<svg width="159" height="24" viewBox="0 0 159 24" fill="none" xmlns="http://www.w3.org/2000/svg"><rect width="159" height="24" rx="12" fill="#000"/><path d="M15.884 16h1.131v-3.978h3.744v-1.04h-3.744V7.94h4.524V6.9h-5.655V16zm7.258-7.748a.67.67 0 00.69-.689.67.67 0 00-.69-.689.67.67 0 00-.689.689.67.67 0 00.69.689zM22.596 16h1.066V9.37h-1.066V16zm5.776-6.708c-1.117 0-1.794.468-2.183.975l-.143-.897h-.924V16h1.067v-3.315c0-1.495.753-2.418 2.002-2.418 1.157 0 1.794.728 1.794 2.106V16h1.066v-3.692c0-2.197-1.183-3.016-2.678-3.016zm4.584-1.04a.67.67 0 00.689-.689.67.67 0 00-.69-.689.67.67 0 00-.688.689.67.67 0 00.689.689zM32.41 16h1.066V9.37H32.41V16zm2.253-2.184c.026 1.456 1.209 2.262 2.925 2.262 1.469 0 2.652-.767 2.652-2.002 0-1.469-1.209-1.755-2.717-1.937-.962-.117-1.664-.208-1.664-.936 0-.611.624-1.001 1.547-1.001.91 0 1.534.507 1.612 1.183h1.092c-.104-1.378-1.196-2.08-2.704-2.093-1.495-.013-2.6.78-2.6 1.989 0 1.378 1.183 1.677 2.665 1.859.988.117 1.716.182 1.716 1.014 0 .611-.663 1.014-1.599 1.014-1.105 0-1.794-.572-1.833-1.352h-1.092zm10.01-4.524c-1.118 0-1.794.546-2.184 1.17V6.9h-1.066V16h1.066v-3.315c0-1.495.767-2.418 2.002-2.418 1.144 0 1.807.728 1.807 2.106V16h1.066v-3.692c0-2.197-1.209-3.016-2.69-3.016zm9.377 6.747l-.325.806c-.248.624-.352.78-.962.78h-.95v.975h1.274c.936 0 1.183-.416 1.6-1.482l3.055-7.748H56.61l-1.976 5.291-2.041-5.291h-1.132l2.587 6.669zm7.25.039c1.937 0 3.289-1.378 3.289-3.393 0-2.015-1.352-3.393-3.29-3.393-1.936 0-3.288 1.378-3.288 3.393 0 2.015 1.352 3.393 3.289 3.393zm0-.949c-1.313 0-2.197-1.027-2.197-2.444s.884-2.444 2.197-2.444c1.313 0 2.197 1.027 2.197 2.444s-.884 2.444-2.197 2.444zm9.152-2.444c0 1.495-.728 2.418-1.937 2.418-1.105 0-1.729-.728-1.729-2.106V9.37H65.72v3.692c0 2.197 1.157 3.016 2.613 3.016 1.092 0 1.729-.468 2.119-.962l.143.884h.923V9.37h-1.066v3.315zm5.587-3.315c-1.183 0-1.69.494-2.002 1.001l-.143-1.001h-.923V16h1.066v-3.38c0-1.053.377-2.21 1.768-2.21h.533V9.37h-.299zm10.489 5.655c-.3 0-.43-.091-.43-.442v-2.899c0-1.547-.974-2.392-2.665-2.392-1.599 0-2.652.767-2.808 2.067h1.067c.13-.676.754-1.118 1.69-1.118 1.04 0 1.65.52 1.65 1.378v.455h-1.95c-1.741 0-2.664.741-2.664 2.067 0 1.209.987 1.937 2.444 1.937 1.144 0 1.806-.507 2.223-1.105.013.65.312 1.027 1.196 1.027h.584v-.975h-.337zm-1.496-1.729c0 1.105-.766 1.872-2.093 1.872-.883 0-1.442-.442-1.442-1.092 0-.754.532-1.105 1.481-1.105h2.055v.325zm5.994-4.004c-1.118 0-1.833.533-2.275 1.144l-.143-1.066h-.923v9.23h1.066v-3.614c.403.637 1.157 1.092 2.275 1.092 1.833 0 3.185-1.365 3.185-3.393 0-2.158-1.352-3.393-3.185-3.393zm-.104 5.837c-1.3 0-2.184-1.014-2.184-2.47 0-1.417.884-2.418 2.184-2.418 1.313 0 2.197 1.001 2.197 2.444s-.884 2.444-2.197 2.444zm7.848-5.837c-1.118 0-1.833.533-2.275 1.144l-.143-1.066h-.923v9.23h1.066v-3.614c.403.637 1.157 1.092 2.275 1.092 1.833 0 3.185-1.365 3.185-3.393 0-2.158-1.352-3.393-3.185-3.393zm-.104 5.837c-1.3 0-2.184-1.014-2.184-2.47 0-1.417.884-2.418 2.184-2.418 1.313 0 2.197 1.001 2.197 2.444s-.884 2.444-2.197 2.444zm4.507.871h1.066V6.9h-1.066V16zm3.073-7.748a.67.67 0 00.689-.689.67.67 0 00-.689-.689.67.67 0 00-.689.689.67.67 0 00.689.689zM105.7 16h1.066V9.37H105.7V16zm5.503.078c1.612 0 2.691-.91 2.951-2.34h-1.131c-.208.845-.858 1.391-1.807 1.391-1.274 0-2.132-.988-2.132-2.431s.858-2.457 2.132-2.457c.975 0 1.625.533 1.82 1.417h1.118c-.273-1.456-1.3-2.366-2.925-2.366-1.924 0-3.237 1.378-3.237 3.406 0 2.067 1.274 3.38 3.211 3.38zm9.983-1.053c-.299 0-.429-.091-.429-.442v-2.899c0-1.547-.975-2.392-2.665-2.392-1.599 0-2.652.767-2.808 2.067h1.066c.13-.676.754-1.118 1.69-1.118 1.04 0 1.651.52 1.651 1.378v.455h-1.95c-1.742 0-2.665.741-2.665 2.067 0 1.209.988 1.937 2.444 1.937 1.144 0 1.807-.507 2.223-1.105.013.65.312 1.027 1.196 1.027h.585v-.975h-.338zm-1.495-1.729c0 1.105-.767 1.872-2.093 1.872-.884 0-1.443-.442-1.443-1.092 0-.754.533-1.105 1.482-1.105h2.054v.325zm3.146.975c0 1.17.455 1.729 1.729 1.729h1.157v-.975h-1.053c-.572 0-.767-.208-.767-.767v-3.913h1.716V9.37h-1.716V7.511h-1.066V9.37h-1.196v.975h1.196v3.926zm4.356-6.019a.67.67 0 00.689-.689.67.67 0 00-.689-.689.67.67 0 00-.689.689.67.67 0 00.689.689zM126.647 16h1.066V9.37h-1.066V16zm5.581.078c1.937 0 3.289-1.378 3.289-3.393 0-2.015-1.352-3.393-3.289-3.393s-3.289 1.378-3.289 3.393c0 2.015 1.352 3.393 3.289 3.393zm0-.949c-1.313 0-2.197-1.027-2.197-2.444s.884-2.444 2.197-2.444c1.313 0 2.197 1.027 2.197 2.444s-.884 2.444-2.197 2.444zm7.762-5.837c-1.118 0-1.794.468-2.184.975l-.143-.897h-.923V16h1.066v-3.315c0-1.495.754-2.418 2.002-2.418 1.157 0 1.794.728 1.794 2.106V16h1.066v-3.692c0-2.197-1.183-3.016-2.678-3.016z" fill="#fff"/></svg>