<svg width="85" height="30" viewBox="0 0 85 30" fill="none" xmlns="http://www.w3.org/2000/svg"><path d="M4 13.33c-1.618 0-2.69-.275-3.49-.621L.035 9.933h.346l.345.657c.819 1.57 1.819 2.264 3.42 2.264 1.836 0 2.873-.912 2.873-2.41 0-1.333-.764-2.008-2.946-2.775C1.6 6.81.364 5.86.364 3.725S2.31 0 4.728 0c1.51 0 2.383.2 3.22.548l.454 2.885h-.364l-.327-.676C6.965 1.187 6.019.475 4.583.475c-1.51 0-2.4.913-2.4 2.21 0 1.296.727 1.953 2.8 2.665 2.728.913 3.873 1.954 3.873 4.072.019 2.319-2.218 3.907-4.855 3.907zM15.421 12.197c-.763.658-1.545 1.096-2.527 1.096-1.455 0-2.219-.658-2.219-2.228V5.003H9.329v-.347l1.437-.548 1.418-2.848h.582V4.18h2.437v.822h-2.437v6.026c0 .894.437 1.332 1.146 1.332.491 0 .818-.127 1.273-.456l.236.292zM20.532 13.366c-2.637 0-4.583-1.68-4.583-4.802 0-2.648 1.891-4.675 4.6-4.675 2.71 0 4.584 1.68 4.584 4.802-.018 2.648-1.928 4.675-4.601 4.675zm-.255-9.002c-1.291 0-2.018.986-2.018 3.67 0 2.94.945 4.857 2.51 4.857 1.309 0 2.018-.986 2.018-3.67 0-2.94-.928-4.857-2.51-4.857zM36.317 13.165c-.418 0-1.491-.018-2.31-.018-.818 0-1.873.018-2.327.018v-.292l.309-.055c.818-.146.963-.402.963-2.063v-3.58c0-1.387-.6-2.062-1.673-2.062-.745 0-1.363.292-1.91.693v4.949c0 1.68.128 1.917.965 2.063l.309.055v.292c-.455 0-1.51-.018-2.328-.018-.818 0-1.891.018-2.328.018v-.292l.364-.055c.764-.11.91-.402.91-2.228V6.646c0-.986-.164-1.26-.837-1.57l-.455-.219v-.2l3.165-.695.254.165v1.278c1-.858 1.928-1.424 3.11-1.424 1.691 0 2.582.912 2.582 2.83v3.834c0 1.863.146 2.082.928 2.228l.327.055-.018.237zM38.954 7.778v.128c.054 2.593 1.455 4.2 3.346 4.2 1.037 0 1.764-.383 2.528-1.15l.254.182c-.982 1.37-2.255 2.228-3.891 2.228-2.4 0-4.201-1.643-4.201-4.474 0-3.049 2.291-4.985 4.492-4.985 2.437 0 3.619 1.37 3.673 3.89l-6.201-.019zm3.983-.51c-.055-1.918-.746-2.886-1.837-2.886-1.237 0-2.019 1.06-2.146 2.885h3.983zM58.449 13.165c-.328 0-1.964-.037-2.6-.037-.674 0-2.71.037-3.056.037v-.256l.582-.091c.564-.091.8-.237.8-.584 0-.292-.182-.658-.582-1.278l-2.037-3.123-2.036 2.812c-.473.658-.691 1.15-.691 1.516 0 .365.218.584.782.675l.6.092v.255c-.328 0-1.782-.036-2.437-.036-.655 0-1.691.036-2.037.036v-.274l.31-.055c.818-.145 1.581-.84 2.2-1.624l2.946-3.872L48.3 3.05c-.673-1.004-1.145-1.46-1.873-1.588l-.382-.073v-.256c.328 0 1.964.037 2.6.037.674 0 2.674-.037 3.02-.037v.256l-.582.091c-.491.073-.764.237-.764.584 0 .292.182.658.582 1.278l1.746 2.703 1.71-2.41c.454-.658.69-1.15.69-1.498 0-.347-.236-.584-.782-.675l-.6-.092v-.255c.327 0 1.782.036 2.437.036.655 0 1.691-.036 2.037-.036v.255l-.31.055c-.818.146-1.563.767-2.2 1.625l-2.637 3.47 3.2 4.71c.674 1.005 1.147 1.461 1.874 1.589l.382.073v.274zM59.904 3.104a.841.841 0 01-.382-.073.95.95 0 01-.31-.22.825.825 0 01-.2-.31.958.958 0 01-.072-.383.85.85 0 01.073-.383 1.3 1.3 0 01.2-.31.701.701 0 01.309-.202.946.946 0 01.382-.073.84.84 0 01.382.073c.127.055.218.128.309.201.09.092.163.201.2.31a.956.956 0 01.073.384.85.85 0 01-.073.384c-.055.127-.128.219-.2.31-.091.091-.2.164-.31.219-.108.037-.236.073-.381.073zm0-.146a.621.621 0 00.327-.073.72.72 0 00.273-.183c.073-.073.127-.164.182-.274a1.037 1.037 0 000-.657.723.723 0 00-.182-.274 1.02 1.02 0 00-.273-.182 1.058 1.058 0 00-.327-.073.62.62 0 00-.328.073.72.72 0 00-.272.182 1.023 1.023 0 00-.182.274 1.037 1.037 0 000 .657c.036.11.109.201.182.274a.72.72 0 00.272.183.71.71 0 00.328.073zm-.419-.256V1.534h.51c.127 0 .236.036.309.091.073.073.109.146.109.256 0 .11-.036.182-.11.255-.072.073-.163.092-.29.092l.054-.019c.055 0 .091.019.128.037a.309.309 0 01.109.11l.2.346h-.273l-.2-.383c-.018-.037-.036-.055-.054-.055-.019-.018-.055-.018-.091-.018h-.128v.456h-.273zm.237-.657h.236c.073 0 .128-.018.146-.036.036-.019.054-.074.054-.128 0-.055-.018-.11-.054-.128a.342.342 0 00-.146-.037h-.236v.329zM3.946 27.918C1.636 27.918 0 26.111 0 23.19c0-2.921 1.673-4.71 3.928-4.71 1.891 0 3.183.985 3.583 2.92.018.056-.018.11-.073.11h-.473c-.054 0-.109-.036-.109-.11-.327-1.551-1.4-2.355-2.91-2.355-1.873 0-3.237 1.534-3.237 4.145 0 2.575 1.382 4.145 3.274 4.145 2.073 0 3.128-1.442 3.11-3.597h-3.11c-.055 0-.11-.055-.11-.11v-.346c0-.055.055-.11.11-.11H7.62c.054 0 .109.055.109.11.054 2.921-1.273 4.637-3.783 4.637zM8.856 27.772c-.054 0-.109-.054-.109-.11l.037-4.564-.037-4.382c0-.055.055-.11.11-.11h.454c.055 0 .11.055.11.11l-.019 4.345.018 4.584c0 .054-.054.11-.109.11h-.455v.017zM13.421 27.918c-1.928 0-3-1.405-3-3.505 0-2.1 1.072-3.506 3-3.506 1.946 0 3 1.406 3 3.506-.017 2.081-1.072 3.505-3 3.505zm0-.51c1.564 0 2.328-1.17 2.328-2.995 0-1.808-.782-3.013-2.328-3.013-1.546.018-2.328 1.169-2.328 3.013 0 1.844.782 2.994 2.328 2.994zM20.223 27.9c-1.055 0-1.82-.511-2.255-1.46l.018 1.223c0 .055-.055.11-.11.11h-.436c-.055 0-.109-.055-.109-.11l.036-5.259-.036-3.652c0-.054.055-.11.11-.11h.454c.054 0 .109.056.109.11l-.018 3.597c.436-.894 1.2-1.424 2.236-1.424 1.746 0 2.674 1.516 2.674 3.47.018 1.917-.946 3.505-2.674 3.505zm-.128-.511c1.491 0 2.164-1.296 2.164-2.94 0-1.68-.654-3.03-2.146-3.03-1.273 0-2.145.967-2.164 2.902-.018 1.936.782 3.068 2.146 3.068zM28.588 27.772c-.055 0-.11-.054-.11-.11l.019-1.26c-.418.932-1.182 1.498-2.255 1.498-1.764 0-2.673-1.515-2.673-3.47 0-1.935.945-3.505 2.673-3.505 1.055 0 1.819.511 2.255 1.443l-.018-1.224c0-.054.054-.11.109-.11h.436c.055 0 .11.056.11.11l-.037 3.14.037 3.379c0 .055-.055.11-.11.11h-.436zm-2.219-.401c1.31 0 2.146-.986 2.164-2.904.019-1.917-.782-3.049-2.127-3.049-1.51 0-2.183 1.297-2.183 2.922 0 1.698.655 3.03 2.146 3.03zM30.497 27.772c-.054 0-.109-.054-.109-.11l.037-4.564-.037-4.382c0-.055.055-.11.11-.11h.454c.055 0 .11.055.11.11l-.019 4.345.018 4.584c0 .054-.054.11-.109.11h-.455v.017zM37.553 24.011h-2.127l.018 3.652c0 .055-.055.11-.11.11h-.49c-.055 0-.11-.055-.11-.11l.037-4.675-.036-4.254c0-.055.054-.11.109-.11h2.673c1.855 0 3.092.895 3.092 2.666 0 1.881-1.273 2.721-3.056 2.721zm-2.145-1.004v.456h2.164c1.454 0 2.346-.584 2.346-2.173 0-1.442-.873-2.1-2.4-2.1h-2.074l-.036 3.817zM45.919 27.772c-.055 0-.11-.054-.11-.11l.019-1.26c-.418.932-1.182 1.498-2.255 1.498-1.764 0-2.673-1.515-2.673-3.47 0-1.935.945-3.505 2.673-3.505 1.055 0 1.819.511 2.255 1.443l-.018-1.224c0-.054.054-.11.109-.11h.436c.055 0 .11.056.11.11l-.037 3.14.037 3.379c0 .055-.055.11-.11.11h-.436zm-2.219-.401c1.31 0 2.146-.986 2.164-2.904.019-1.917-.782-3.049-2.127-3.049-1.51 0-2.183 1.297-2.183 2.922-.018 1.698.655 3.03 2.146 3.03zM49.592 29.89c-.018.073-.072.11-.145.11h-.4c-.055 0-.091-.055-.073-.11l.746-2.136-2.6-6.61c-.019-.036.017-.091.072-.091h.527c.073 0 .11.037.146.091l2.2 5.715 1.892-5.715c.018-.073.072-.11.145-.11h.473c.054 0 .09.056.073.11l-3.056 8.746zM53.975 24.96l.018 2.703c0 .055-.054.11-.109.11h-.473c-.054 0-.109-.055-.109-.11l.037-2.703-.018-3.816c0-.054.054-.11.109-.11h.436c.055 0 .11.056.11.11l-.019 1.278c.382-.767 1.073-1.533 2.164-1.533.982 0 1.673.474 1.946 1.533.4-.821 1.11-1.533 2.164-1.533 1.291 0 2.073.84 2.073 2.72v1.351l.018 2.703c0 .055-.054.11-.109.11h-.454c-.055 0-.11-.055-.11-.11l.019-2.703v-1.296c0-1.625-.619-2.228-1.582-2.228-.873 0-1.474.658-1.892 1.717.018.146.018.292.018.438v1.351l.019 2.703c0 .054-.055.11-.11.11h-.454c-.055 0-.11-.056-.11-.11l.019-2.703v-1.296c0-1.625-.618-2.228-1.582-2.228-.946 0-1.564.767-2 1.99v1.552h-.019zM68.87 25.399c.054 0 .09.054.09.11-.254 1.478-1.164 2.41-2.764 2.41-1.982 0-3.019-1.425-3.019-3.488 0-2.063 1.128-3.524 2.946-3.524 1.764 0 2.837 1.241 2.874 3.378 0 .055-.055.11-.11.11l-5.055.018c0 1.899.8 3.012 2.382 3.012 1.219 0 1.892-.712 2.128-1.899 0-.073.073-.11.109-.11h.418V25.4zm-2.747-4c-1.327 0-2.11.95-2.255 2.448h4.456c-.037-1.333-.782-2.447-2.2-2.447zM70.197 27.772c-.055 0-.11-.054-.11-.11l.019-2.848-.018-3.67c0-.054.054-.11.109-.11h.436c.055 0 .11.056.11.11l-.019 1.278c.382-.748 1.128-1.533 2.273-1.533 1.346 0 2.183.876 2.183 2.72v1.278l.018 2.776c0 .055-.055.11-.11.11h-.454c-.054 0-.109-.055-.109-.11l.018-2.776v-1.223c0-1.625-.673-2.228-1.691-2.228-1 0-1.673.749-2.128 1.99v1.461l.018 2.776c0 .055-.054.11-.109.11h-.436zM79.199 27.645c0 .073-.037.11-.11.127-.2.055-.472.11-.709.11-.873 0-1.527-.438-1.527-1.863l.018-4.418h-.764c-.054 0-.109-.055-.109-.11v-.328c0-.055.055-.11.11-.11h.763l-.018-1.589c0-.054.054-.11.109-.11h.455c.054 0 .109.056.109.11l-.019 1.589h1.583c.054 0 .109.055.109.11v.328c0 .055-.055.11-.11.11h-1.582v4.419c0 1.004.273 1.314.928 1.314.236 0 .473-.018.655-.073.054-.018.109.018.109.073v.31zM82.4 27.9c-1.674 0-2.747-.767-2.783-2.41 0-.055.055-.11.11-.11h.417c.055 0 .11.055.11.11.036 1.315.8 1.935 2.164 1.935 1.145 0 1.964-.53 1.964-1.442 0-2.173-4.62-.603-4.62-3.214 0-1.223 1.037-1.844 2.456-1.844 1.4 0 2.527.621 2.582 2.009 0 .054-.055.11-.11.11h-.381c-.055 0-.11-.056-.11-.11-.072-1.078-.927-1.534-2-1.534-1.109 0-1.818.438-1.818 1.333 0 1.99 4.619.401 4.619 3.195 0 1.242-1.146 1.972-2.6 1.972z" fill="#fff"/></svg>