<svg width="119" height="54" viewBox="0 0 119 54" fill="none" xmlns="http://www.w3.org/2000/svg"><g filter="url(#filter0_d_216_834)"><rect x="7.952" y="7.952" width="103.095" height="38.095" rx="3" fill="#fff" shape-rendering="crispEdges"/><path d="M33.197 31c.064 0 .115-.05.115-.114v-.724a.114.114 0 00-.115-.114h-3.923l-.039-3.76.039-4.063a.114.114 0 00-.115-.114h-.977a.114.114 0 00-.115.114l.051 4.127-.05 4.534c0 .063.05.114.113.114h5.016zm5.62-2.273a.149.149 0 00-.14.114c-.19.953-.774 1.46-1.74 1.46-1.282 0-1.93-.837-1.967-2.412h4.825c.064 0 .114-.05.114-.114-.038-2.172-1.155-3.467-3.047-3.467-1.892 0-3.06 1.397-3.06 3.441 0 1.994 1.092 3.403 3.123 3.403 1.676 0 2.667-.977 2.87-2.31 0-.064-.038-.115-.102-.115h-.876zm-.152-1.65h-3.657c.165-1.233.787-1.931 1.866-1.931 1.156 0 1.753.889 1.79 1.93zm3.485.583c0-1.422.546-2.425 1.727-2.476h.266c1.067.089 1.664 1.029 1.651 2.603-.013 1.651-.698 2.49-1.829 2.49-1.231 0-1.815-1.055-1.815-2.617zM46.785 31c.063 0 .114-.05.114-.114l-.038-3.213.038-3.098a.114.114 0 00-.114-.115h-.94a.114.114 0 00-.114.115l.025.876c-.432-.724-1.13-1.118-2.057-1.118-1.727 0-2.73 1.524-2.73 3.416s.94 3.378 2.704 3.378c.953 0 1.651-.444 2.096-1.181l-.026.94c0 .063.051.114.114.114h.928zm2.683 0c.063 0 .114-.05.114-.114l-.013-3.429c.14-1.435 1.092-2.108 2.197-2.108.14 0 .267.013.368.026a.095.095 0 00.115-.09v-.71a.149.149 0 00-.115-.14 1.76 1.76 0 00-.38-.038c-.915 0-1.753.444-2.223 1.282l.05-1.104a.114.114 0 00-.113-.115h-.94a.114.114 0 00-.114.115l.038 3.085-.038 3.226c0 .063.05.114.114.114h.94zm4.96 0c.064 0 .114-.05.114-.114l-.012-2.68v-.99c.254-1.295.94-1.981 1.803-1.981.813 0 1.384.533 1.384 1.714v1.257l-.026 2.68c0 .063.051.114.115.114h.94c.063 0 .114-.05.114-.114l-.026-2.68v-1.308c0-1.701-.838-2.59-2.184-2.59-1.041 0-1.777.597-2.184 1.257l.038-.99a.114.114 0 00-.114-.115h-.902a.114.114 0 00-.114.115l.026 3.44-.039 2.87c0 .064.051.115.115.115h.952zm9.785-3.784c.254-1.257.864-1.981 1.626-1.981.774 0 1.257.495 1.257 1.714v1.499l-.026 2.438c0 .063.051.114.115.114h.952c.064 0 .114-.05.114-.114l-.025-2.438v-1.512c.28-1.079.864-1.701 1.562-1.701.762 0 1.257.495 1.257 1.714v1.499l-.038 2.438c0 .063.05.114.114.114h.965c.064 0 .115-.05.115-.114l-.026-2.438v-1.55c0-1.777-.762-2.59-2.044-2.59-.927 0-1.6.483-2.057 1.371-.292-.94-.953-1.371-1.892-1.371-.978 0-1.613.571-2.02 1.257l.039-.99a.114.114 0 00-.115-.115h-.914a.114.114 0 00-.114.115l.025 3.873-.038 2.438c0 .063.05.114.114.114h.978c.064 0 .114-.05.114-.114l-.038-2.438v-1.232zm15.416.508c0-2.057-1.105-3.416-3.099-3.416-1.98 0-3.098 1.371-3.098 3.441 0 2.057 1.117 3.403 3.098 3.403 1.994 0 3.099-1.371 3.099-3.428zm-5.016.025c0-1.638.622-2.578 1.917-2.59 1.27 0 1.905.952 1.905 2.59s-.622 2.553-1.905 2.553c-1.282 0-1.917-.915-1.917-2.553zM81.968 31c.063 0 .114-.05.114-.114l-.013-3.429c.14-1.435 1.092-2.108 2.197-2.108.14 0 .267.013.368.026a.095.095 0 00.115-.09v-.71a.149.149 0 00-.115-.14 1.76 1.76 0 00-.38-.038c-.915 0-1.753.444-2.223 1.282l.05-1.104a.114.114 0 00-.113-.115h-.94a.114.114 0 00-.114.115l.038 3.085-.038 3.226c0 .063.05.114.114.114h.94zm8.172-2.273a.149.149 0 00-.14.114c-.19.953-.774 1.46-1.74 1.46-1.282 0-1.93-.837-1.967-2.412h4.825c.064 0 .114-.05.114-.114-.038-2.172-1.155-3.467-3.047-3.467-1.892 0-3.06 1.397-3.06 3.441 0 1.994 1.091 3.403 3.123 3.403 1.676 0 2.667-.977 2.87-2.31 0-.064-.038-.115-.102-.115h-.876zm-.152-1.65H86.33c.165-1.233.787-1.931 1.866-1.931 1.156 0 1.753.889 1.79 1.93z" fill="url(#paint0_linear_216_834)"/></g><defs><linearGradient id="paint0_linear_216_834" x1="27" y1="18" x2="65.173" y2="60.242" gradientUnits="userSpaceOnUse"><stop stop-color="#0D1775"/><stop offset="1" stop-color="#1383F4"/></linearGradient><filter id="filter0_d_216_834" x=".016" y=".016" width="118.968" height="53.968" filterUnits="userSpaceOnUse" color-interpolation-filters="sRGB"><feFlood flood-opacity="0" result="BackgroundImageFix"/><feColorMatrix in="SourceAlpha" values="0 0 0 0 0 0 0 0 0 0 0 0 0 0 0 0 0 0 127 0" result="hardAlpha"/><feOffset/><feGaussianBlur stdDeviation="3.968"/><feComposite in2="hardAlpha" operator="out"/><feColorMatrix values="0 0 0 0 0 0 0 0 0 0 0 0 0 0 0 0 0 0 0.16 0"/><feBlend in2="BackgroundImageFix" result="effect1_dropShadow_216_834"/><feBlend in="SourceGraphic" in2="effect1_dropShadow_216_834" result="shape"/></filter></defs></svg>