<svg width="156" height="74" viewBox="0 0 156 74" fill="none" xmlns="http://www.w3.org/2000/svg"><path d="M2.432 27h4.37V15.752h10.412V11.99H6.802V4.276h12.616V.4H2.432V27zM21.319 4.276h8.208V27h4.37V4.276h8.208V.4H21.319v3.876zM42.968 18.26c.152 5.32 4.142 8.968 10.754 8.968 5.852 0 9.842-3.306 9.842-8.094.038-5.244-4.256-6.65-8.664-7.448-4.18-.722-6.916-1.292-6.916-4.028 0-2.508 2.09-3.8 5.092-3.8 3.23 0 5.358 1.824 5.7 4.522h4.37c-.19-4.902-3.99-8.208-10.07-8.208-5.662 0-9.462 3.154-9.462 7.79 0 5.282 4.18 6.688 8.588 7.448 4.218.76 6.992 1.368 6.992 4.18 0 2.546-2.28 3.952-5.434 3.952-3.724 0-6.156-2.09-6.384-5.206l-4.408-.076zM67.41 27h17.823v-3.876H71.78V15.41h10.716v-3.762H71.781V4.276h12.995V.4H67.412V27zm35.011-23.902c0 1.406-.57 2.394-1.938 2.394h-4.142v3.61h4.332c.722 0 1.292-.114 1.672-.342V27h4.218V.4h-4.142v2.698zm8.088 11.21c0 8.018 4.294 12.92 10.488 12.92s10.488-4.902 10.488-12.92v-1.216c0-7.714-4.294-12.92-10.488-12.92s-10.488 5.206-10.488 12.92v1.216zm16.72-.152c0 5.966-2.508 9.386-6.232 9.386s-6.232-3.42-6.232-9.386v-.912c0-5.928 2.508-9.386 6.232-9.386s6.232 3.458 6.232 9.386v.912zm7.216.152c0 8.018 4.294 12.92 10.488 12.92s10.488-4.902 10.488-12.92v-1.216c0-7.714-4.294-12.92-10.488-12.92s-10.488 5.206-10.488 12.92v1.216zm16.72-.152c0 5.966-2.508 9.386-6.232 9.386s-6.232-3.42-6.232-9.386v-.912c0-5.928 2.508-9.386 6.232-9.386s6.232 3.458 6.232 9.386v.912zM.038 57.154H3.42V73h4.142V57.154h5.206v-3.61H7.486V51.91c0-1.33.57-1.9 1.9-1.9h3.382V46.4H8.854c-3.762 0-5.434 1.824-5.434 5.32v1.824H.038v3.61zM23.27 73.228c5.928 0 9.918-3.99 9.918-9.956 0-5.928-3.99-9.956-9.918-9.956-5.927 0-9.918 4.028-9.918 9.956 0 5.966 3.99 9.956 9.918 9.956zm0-3.496c-3.457 0-5.7-2.698-5.7-6.46s2.242-6.46 5.7-6.46c3.459 0 5.739 2.698 5.739 6.46s-2.28 6.46-5.739 6.46zm23.06-16.188c-3.191 0-4.75 1.292-5.737 2.926l-.456-2.926h-3.648V73h4.104v-9.766c0-3.002 1.178-5.852 4.826-5.852h1.824v-3.838h-.912zM59.497 73H63.6V46.4h-4.104V73zm17.361.228c4.826 0 8.094-2.926 8.778-6.764h-4.104c-.57 2.166-2.394 3.42-4.902 3.42-3.23 0-5.32-2.166-5.434-5.472v-.266h14.668c.076-.532.114-1.064.114-1.558-.114-5.7-3.876-9.272-9.5-9.272-5.738 0-9.576 3.99-9.576 9.994 0 5.966 3.838 9.918 9.956 9.918zm-5.51-12.084c.304-2.774 2.546-4.522 5.168-4.522 2.85 0 4.864 1.634 5.206 4.522H71.347zm17 5.434c.115 4.218 3.687 6.65 8.893 6.65 4.712 0 8.246-2.356 8.246-6.08 0-4.332-3.61-5.244-8.056-5.776-2.812-.304-4.674-.532-4.674-2.356 0-1.558 1.596-2.546 4.028-2.546 2.432 0 4.104 1.254 4.332 3.04h4.028c-.266-3.99-3.648-6.194-8.436-6.194-4.674-.038-7.98 2.356-7.98 6.042 0 4.028 3.496 4.978 7.942 5.51 3.002.38 4.788.532 4.788 2.622 0 1.558-1.672 2.546-4.218 2.546-2.964 0-4.712-1.444-4.864-3.458h-4.028zm19.112 0c.114 4.218 3.686 6.65 8.892 6.65 4.712 0 8.246-2.356 8.246-6.08 0-4.332-3.61-5.244-8.056-5.776-2.812-.304-4.674-.532-4.674-2.356 0-1.558 1.596-2.546 4.028-2.546 2.432 0 4.104 1.254 4.332 3.04h4.028c-.266-3.99-3.648-6.194-8.436-6.194-4.674-.038-7.98 2.356-7.98 6.042 0 4.028 3.496 4.978 7.942 5.51 3.002.38 4.788.532 4.788 2.622 0 1.558-1.672 2.546-4.218 2.546-2.964 0-4.712-1.444-4.864-3.458h-4.028z" fill="#000"/></svg>