<svg width="106" height="31" viewBox="0 0 106 31" fill="none" xmlns="http://www.w3.org/2000/svg"><rect y=".291" width="106" height="30" rx="15" fill="#000"/><path d="M15.053 16.625c.07 1.908 1.452 3.25 3.816 3.25 2.032 0 3.443-1.176 3.443-2.849 0-1.88-1.618-2.406-3.194-2.668-1.452-.25-2.627-.484-2.627-1.646 0-1.037.843-1.59 2.102-1.59 1.313 0 2.212.733 2.35 1.853h1.244c-.11-1.742-1.438-2.945-3.595-2.945-1.963 0-3.304 1.106-3.304 2.752 0 1.88 1.604 2.391 3.166 2.654 1.466.249 2.655.498 2.655 1.7 0 1.052-.927 1.646-2.226 1.646-1.48 0-2.489-.857-2.586-2.157h-1.244zm9.145 1.327c0 1.245.484 1.84 1.839 1.84h1.23v-1.038h-1.12c-.608 0-.815-.22-.815-.815v-4.162h1.825V12.74h-1.825v-1.977h-1.134v1.977h-1.272v1.037h1.272v4.175zm10.18.802c-.319 0-.457-.096-.457-.47v-3.083c0-1.645-1.037-2.544-2.834-2.544-1.701 0-2.82.816-2.987 2.198h1.134c.138-.719.802-1.189 1.797-1.189 1.106 0 1.756.553 1.756 1.466v.484h-2.074c-1.852 0-2.834.788-2.834 2.198 0 1.286 1.05 2.06 2.6 2.06 1.216 0 1.921-.539 2.364-1.175.013.691.331 1.092 1.272 1.092h.622v-1.037h-.36zm-1.59-1.838c0 1.175-.816 1.99-2.227 1.99-.94 0-1.534-.47-1.534-1.161 0-.802.566-1.175 1.576-1.175h2.184v.346zm6.083-4.176c-1.258 0-1.797.525-2.129 1.065l-.152-1.065h-.982v7.051h1.134v-3.595c0-1.12.401-2.35 1.88-2.35h.567V12.74h-.318zm2.056 5.212c0 1.245.484 1.84 1.839 1.84h1.23v-1.038h-1.12c-.608 0-.815-.22-.815-.815v-4.162h1.825V12.74H42.06v-1.977h-1.134v1.977h-1.272v1.037h1.272v4.175zm8.196 0c0 1.245.484 1.84 1.839 1.84h1.23v-1.038h-1.12c-.608 0-.816-.22-.816-.815v-4.162h1.825V12.74h-1.825v-1.977h-1.133v1.977H47.85v1.037h1.272v4.175zm7.314-5.212c-1.258 0-1.797.525-2.129 1.065l-.152-1.065h-.981v7.051h1.133v-3.595c0-1.12.401-2.35 1.88-2.35h.567V12.74h-.318zm7.294 6.014c-.318 0-.457-.096-.457-.47v-3.083c0-1.645-1.037-2.544-2.834-2.544-1.7 0-2.82.816-2.986 2.198h1.133c.139-.719.802-1.189 1.798-1.189 1.106 0 1.756.553 1.756 1.466v.484h-2.074c-1.853 0-2.835.788-2.835 2.198 0 1.286 1.051 2.06 2.6 2.06 1.216 0 1.922-.539 2.364-1.175.014.691.332 1.092 1.272 1.092h.622v-1.037h-.36zm-1.59-1.838c0 1.175-.816 1.99-2.226 1.99-.94 0-1.535-.47-1.535-1.161 0-.802.567-1.175 1.576-1.175h2.185v.346zm8.298-3.098c-.429-.677-1.23-1.161-2.42-1.161-1.95 0-3.387 1.452-3.387 3.609 0 2.295 1.438 3.608 3.387 3.608 1.19 0 1.95-.567 2.42-1.216l.152 1.133h.982v-9.678h-1.134v3.705zm-2.31 5.047c-1.396 0-2.336-1.065-2.336-2.6 0-1.534.94-2.599 2.337-2.599 1.383 0 2.323 1.079 2.323 2.627 0 1.507-.94 2.572-2.323 2.572zm5.569-7.314a.712.712 0 00.733-.733.712.712 0 00-.733-.733.712.712 0 00-.733.733c0 .429.318.733.733.733zm-.581 8.24h1.134V12.74h-1.134v7.051zm6.143-7.134c-1.189 0-1.908.498-2.322 1.037l-.153-.954h-.981v7.051h1.134v-3.525c0-1.59.802-2.572 2.129-2.572 1.23 0 1.908.774 1.908 2.24v3.857h1.134v-3.926c0-2.337-1.259-3.208-2.849-3.208zm9.852 1.3c-.442-.788-1.23-1.3-2.42-1.3-1.949 0-3.387 1.452-3.387 3.609 0 2.295 1.438 3.608 3.388 3.608 1.189 0 1.95-.497 2.42-1.3v.83c0 1.535-.803 2.226-2.282 2.226-1.175 0-1.963-.498-2.157-1.382h-1.161c.18 1.548 1.438 2.392 3.235 2.392 2.42 0 3.498-1.162 3.498-3.194V12.74h-.982l-.152 1.217zm-2.309 4.908c-1.396 0-2.336-1.065-2.336-2.6 0-1.534.94-2.599 2.336-2.599 1.383 0 2.323 1.079 2.323 2.627 0 1.507-.94 2.572-2.323 2.572z" fill="#fff"/></svg>