<svg width="266" height="181" viewBox="0 0 266 181" fill="none" xmlns="http://www.w3.org/2000/svg"><path d="M1.295 130.395H4.83v9.575h.795v-9.575h3.536v-.736H1.295v.736zm11.29 2.107c-1.384 0-1.973.662-2.282 1.487l-.118-1.487h-.648v7.468h.75v-3.786c0-1.517.399-2.961 2.151-2.961h.545v-.721h-.397zm7.765 6.775c-.442 0-.663-.147-.663-.721v-3.477c0-1.708-1.046-2.666-2.917-2.666-1.708 0-2.842.825-3.034 2.18h.751c.192-.913.987-1.517 2.254-1.517 1.4 0 2.195.736 2.195 1.974v.648h-2.534c-1.915 0-2.946.825-2.946 2.224 0 1.326 1.046 2.136 2.637 2.136 1.517 0 2.416-.692 2.872-1.62v.265c-.03.884.339 1.267 1.223 1.267h.442v-.693h-.28zm-1.414-2.327c0 1.429-1.017 2.46-2.784 2.46-1.193 0-1.93-.604-1.93-1.532 0-.987.737-1.532 2.121-1.532h2.593v.604zm8.682-2.769c-.457-1.061-1.459-1.768-2.858-1.768-2.048 0-3.52 1.562-3.52 3.815 0 2.357 1.473 3.83 3.52 3.83 1.4 0 2.371-.751 2.843-1.797l.118 1.709h.648v-10.311h-.751v4.522zm-2.8 5.2c-1.664 0-2.813-1.297-2.813-3.153 0-1.841 1.15-3.152 2.814-3.152 1.664 0 2.813 1.311 2.813 3.167 0 1.841-1.149 3.138-2.813 3.138zm8.617.677c1.636 0 2.888-1.06 3.212-2.563h-.766c-.295 1.164-1.282 1.886-2.504 1.886-1.665 0-2.71-1.267-2.74-3.005v-.133h6.098c0-.103.015-.221.015-.309-.074-2.225-1.444-3.521-3.447-3.521-2.048 0-3.447 1.562-3.447 3.771 0 2.342 1.458 3.874 3.58 3.874zm-2.74-4.448c.119-1.518 1.253-2.534 2.623-2.534 1.458 0 2.504.899 2.622 2.534h-5.244zm13.322 4.36h.81l2.21-6.275 2.106 6.275h.81l2.651-7.468h-.765l-2.298 6.569-2.136-6.569h-.693l-2.253 6.569-2.18-6.569h-.796l2.534 7.468zm10.021-9.045c.295 0 .53-.221.53-.53a.519.519 0 00-.53-.53.519.519 0 00-.53.53c0 .309.236.53.53.53zm-.383 9.045h.752v-7.468h-.752v7.468zm3.078-1.738c0 1.193.486 1.738 1.752 1.738h1.09v-.693h-1.03c-.781 0-1.061-.294-1.061-1.06v-5.023h2.018v-.692h-2.018v-2.092h-.752v2.092h-1.414v.692h1.415v5.038zm7.432-5.819c-1.4 0-2.268.781-2.695 1.856v-4.61h-.752v10.311h.752v-3.683c0-1.944.987-3.182 2.577-3.182 1.43 0 2.313.943 2.313 2.711v4.154h.751v-4.184c0-2.356-1.252-3.373-2.946-3.373zm11.849 7.645c1.694 0 2.887-.972 3.182-2.489H78.4c-.25 1.104-1.149 1.812-2.386 1.812-1.635 0-2.77-1.282-2.77-3.138 0-1.856 1.12-3.167 2.77-3.167 1.252 0 2.136.707 2.401 1.827h.78c-.309-1.547-1.472-2.49-3.166-2.49-2.107 0-3.55 1.562-3.55 3.83 0 2.298 1.429 3.815 3.535 3.815zm7.942 0c2.106 0 3.594-1.561 3.594-3.83 0-2.253-1.488-3.815-3.594-3.815-2.107 0-3.58 1.562-3.58 3.815 0 2.269 1.473 3.83 3.58 3.83zm0-.677c-1.665 0-2.814-1.297-2.814-3.153 0-1.841 1.15-3.152 2.814-3.152 1.664 0 2.813 1.311 2.813 3.152 0 1.856-1.149 3.153-2.813 3.153zm8.533-6.968c-1.37 0-2.253.707-2.68 1.679l-.118-1.59h-.648v7.468h.75v-3.683c0-1.944.988-3.182 2.578-3.182 1.444 0 2.313.943 2.313 2.711v4.154h.751v-4.184c0-2.356-1.252-3.373-2.946-3.373zm5.92.089v-1.12c0-.737.28-1.031 1.031-1.031h1.075v-.692h-1.104c-1.252 0-1.753.545-1.753 1.738v1.105h-1.414v.692h1.414v6.776h.751v-6.776h3.197v6.776h.751v-7.468h-3.948zm3.579-2.637a.52.52 0 00-.53.53c0 .309.236.53.53.53a.51.51 0 00.531-.53.51.51 0 00-.531-.53zm8.228 4.316c-.456-1.061-1.458-1.768-2.857-1.768-2.048 0-3.521 1.562-3.521 3.815 0 2.357 1.473 3.83 3.521 3.83 1.399 0 2.371-.751 2.843-1.797l.117 1.709h.648v-10.311h-.751v4.522zm-2.798 5.2c-1.665 0-2.814-1.297-2.814-3.153 0-1.841 1.149-3.152 2.814-3.152 1.664 0 2.813 1.311 2.813 3.167 0 1.841-1.149 3.138-2.813 3.138zm8.616.677c1.635 0 2.887-1.06 3.211-2.563h-.766c-.294 1.164-1.281 1.886-2.504 1.886-1.664 0-2.71-1.267-2.74-3.005v-.133h6.099c0-.103.014-.221.014-.309-.073-2.225-1.443-3.521-3.446-3.521-2.048 0-3.447 1.562-3.447 3.771 0 2.342 1.458 3.874 3.579 3.874zm-2.74-4.448c.118-1.518 1.252-2.534 2.622-2.534 1.459 0 2.504.899 2.622 2.534h-5.244zm10.986-3.197c-1.37 0-2.254.707-2.681 1.679l-.118-1.59h-.648v7.468h.752v-3.683c0-1.944.986-3.182 2.577-3.182 1.444 0 2.313.943 2.313 2.711v4.154h.751v-4.184c0-2.356-1.252-3.373-2.946-3.373zm7.749 7.645c1.694 0 2.887-.972 3.182-2.489h-.796c-.25 1.104-1.148 1.812-2.386 1.812-1.635 0-2.769-1.282-2.769-3.138 0-1.856 1.119-3.167 2.769-3.167 1.252 0 2.136.707 2.401 1.827h.781c-.309-1.547-1.473-2.49-3.167-2.49-2.107 0-3.55 1.562-3.55 3.83 0 2.298 1.429 3.815 3.535 3.815zm7.942 0c1.635 0 2.887-1.06 3.211-2.563h-.766c-.295 1.164-1.282 1.886-2.504 1.886-1.665 0-2.711-1.267-2.74-3.005v-.133h6.098c0-.103.015-.221.015-.309-.074-2.225-1.444-3.521-3.447-3.521-2.047 0-3.447 1.562-3.447 3.771 0 2.342 1.459 3.874 3.58 3.874zm-2.74-4.448c.118-1.518 1.252-2.534 2.622-2.534 1.458 0 2.504.899 2.622 2.534h-5.244zm13.321 4.36h.81l2.21-6.275 2.106 6.275h.81l2.652-7.468h-.766l-2.298 6.569-2.136-6.569h-.692l-2.254 6.569-2.18-6.569h-.796l2.534 7.468zm10.022-9.045a.52.52 0 00.53-.53.52.52 0 00-.53-.53.52.52 0 00-.531.53c0 .309.236.53.531.53zm-.383 9.045h.751v-7.468h-.751v7.468zm3.077-1.738c0 1.193.486 1.738 1.753 1.738h1.09v-.693h-1.031c-.781 0-1.061-.294-1.061-1.06v-5.023h2.018v-.692h-2.018v-2.092h-.751v2.092h-1.414v.692h1.414v5.038zm7.433-5.819c-1.4 0-2.269.781-2.696 1.856v-4.61h-.751v10.311h.751v-3.683c0-1.944.987-3.182 2.578-3.182 1.429 0 2.312.943 2.312 2.711v4.154h.752v-4.184c0-2.356-1.253-3.373-2.946-3.373zm13.13 7.645c2.209 0 3.771-1.193 4.213-3.27h-.84c-.442 1.65-1.635 2.534-3.388 2.534-2.386 0-3.889-1.871-3.889-4.508s1.532-4.507 3.919-4.507c1.723 0 2.931.898 3.387 2.519h.84c-.457-2.063-2.018-3.256-4.183-3.256-2.902 0-4.788 2.151-4.788 5.244 0 3.123 1.842 5.244 4.729 5.244zm6.131-9.133c.295 0 .53-.221.53-.53a.519.519 0 00-.53-.53.52.52 0 00-.53.53c0 .309.236.53.53.53zm-.383 9.045h.751v-7.468h-.751v7.468zm3.077-1.738c0 1.193.486 1.738 1.753 1.738h1.09v-.693h-1.031c-.781 0-1.06-.294-1.06-1.06v-5.023h2.018v-.692h-2.018v-2.092h-.752v2.092h-1.414v.692h1.414v5.038zm6.225 1.738l-.486 1.208c-.339.824-.471 1.045-1.237 1.045h-.943v.693h1.149c1.002 0 1.237-.383 1.709-1.562l3.579-8.852h-.81l-2.548 6.496-2.593-6.496h-.81l2.99 7.468zm8.928 0h.795v-10.311h-.795v10.311zm6.19-7.557c-1.37 0-2.253.707-2.681 1.679l-.117-1.59h-.649v7.468h.752v-3.683c0-1.944.987-3.182 2.577-3.182 1.444 0 2.313.943 2.313 2.711v4.154h.751v-4.184c0-2.356-1.252-3.373-2.946-3.373zm10.592 1.768c-.456-1.061-1.458-1.768-2.857-1.768-2.048 0-3.521 1.562-3.521 3.815 0 2.357 1.473 3.83 3.521 3.83 1.399 0 2.371-.751 2.843-1.797l.117 1.709h.649v-10.311h-.752v4.522zm-2.798 5.2c-1.665 0-2.814-1.297-2.814-3.153 0-1.841 1.149-3.152 2.814-3.152 1.664 0 2.813 1.311 2.813 3.167 0 1.841-1.149 3.138-2.813 3.138zm8.616.677c1.635 0 2.887-1.06 3.211-2.563h-.766c-.294 1.164-1.281 1.886-2.504 1.886-1.664 0-2.71-1.267-2.74-3.005v-.133h6.099c0-.103.014-.221.014-.309-.073-2.225-1.443-3.521-3.446-3.521-2.048 0-3.447 1.562-3.447 3.771 0 2.342 1.458 3.874 3.579 3.874zm-2.74-4.448c.118-1.518 1.252-2.534 2.622-2.534 1.459 0 2.504.899 2.622 2.534h-5.244zm6.485 4.36h.869l2.475-3.285 2.474 3.285h.914l-2.902-3.815 2.754-3.653h-.854l-2.357 3.093-2.327-3.093h-.899l2.755 3.653-2.902 3.815zm7.583-.486c0 .338.236.559.56.559.324 0 .56-.221.56-.559 0-.339-.236-.545-.56-.545-.324 0-.56.206-.56.545zM5.037 92.982h2.595l2.71-9.9 2.75 9.9h2.575l3.864-13.456h-2.268l-2.884 10.65-2.922-10.65H9.362l-2.999 10.65L3.5 79.505l-2.288.02 3.826 13.456zm20.869-9.958c-1.538 0-2.48.692-3.095 1.538v-5.036h-2.076v13.456h2.076v-4.979c0-1.98 1-3.19 2.634-3.19 1.538 0 2.364.999 2.364 2.863v5.306h2.076v-5.479c0-3.287-1.788-4.479-3.979-4.479zm14.864 8.151c-.423 0-.635-.135-.635-.634V86.6c0-2.326-1.5-3.576-4.113-3.576-2.48 0-4.133 1.192-4.345 3.115h2.038c.154-.865.98-1.442 2.21-1.442 1.365 0 2.154.673 2.154 1.768v.596h-2.48c-2.75 0-4.21 1.134-4.21 3.153 0 1.826 1.5 2.883 3.652 2.883 1.596 0 2.595-.692 3.249-1.691 0 .98.461 1.576 1.807 1.576h1.096v-1.807h-.423zm-2.692-2.23c-.019 1.519-1.018 2.538-2.748 2.538-1.135 0-1.827-.577-1.827-1.404 0-1 .712-1.48 2-1.48h2.575v.346zm4.957 1.365c0 1.788.807 2.672 2.69 2.672h1.923v-1.826h-1.46c-.789 0-1.058-.288-1.058-1.058v-5.132h2.403V83.14H45.13v-2.75h-2.095v2.75h-1.711v1.826h1.71v5.344zm16.043-7.286c-1.596 0-2.538.635-3.153 1.404l-.23-1.288h-1.808v9.842h2.076v-4.96c0-1.999.98-3.21 2.634-3.21 1.557 0 2.345 1 2.345 2.864v5.306h2.096v-5.479c0-3.287-1.788-4.479-3.96-4.479zm10.444 10.073c2.441 0 4.094-1.48 4.44-3.421h-2.076c-.288 1.095-1.21 1.73-2.48 1.73-1.634 0-2.69-1.096-2.749-2.768v-.135h7.42c.039-.27.058-.538.058-.788-.057-2.884-1.96-4.69-4.806-4.69-2.902 0-4.844 2.018-4.844 5.055 0 3.018 1.942 5.017 5.037 5.017zm-2.788-6.113c.154-1.403 1.288-2.287 2.615-2.287 1.441 0 2.46.826 2.633 2.287h-5.248zm7.61 5.998h2.288l2.595-3.576 2.576 3.576h2.422l-3.71-5.037 3.498-4.805h-2.287l-2.403 3.325-2.345-3.325h-2.422l3.48 4.805-3.692 5.037zM86.08 90.31c0 1.788.808 2.672 2.691 2.672h1.923v-1.826h-1.461c-.788 0-1.058-.288-1.058-1.058v-5.132h2.403V83.14h-2.403v-2.75H86.08v2.75h-1.71v1.826h1.71v5.344zm9.853-5.344h1.711v8.016h2.095v-8.016h2.634V83.14h-2.672v-.827c0-.673.288-.961.961-.961h1.711v-1.826h-1.98c-1.903 0-2.749.922-2.749 2.691v.923h-1.71v1.826zm11.753 8.131c2.999 0 5.017-2.018 5.017-5.036 0-2.999-2.018-5.037-5.017-5.037-2.999 0-5.017 2.038-5.017 5.037 0 3.018 2.018 5.036 5.017 5.036zm0-1.768c-1.749 0-2.884-1.365-2.884-3.268 0-1.903 1.135-3.268 2.884-3.268 1.749 0 2.902 1.365 2.902 3.268 0 1.903-1.153 3.268-2.902 3.268zm11.665-8.19c-1.615 0-2.403.654-2.902 1.481l-.231-1.48h-1.846v9.842h2.077v-4.94c0-1.519.595-2.96 2.441-2.96h.923V83.14h-.462zm6.238 6.594c.057 2.134 1.864 3.364 4.498 3.364 2.383 0 4.171-1.191 4.171-3.075 0-2.192-1.826-2.653-4.075-2.922-1.423-.154-2.365-.27-2.365-1.192 0-.788.808-1.288 2.038-1.288 1.23 0 2.076.634 2.191 1.538h2.038c-.134-2.019-1.845-3.134-4.267-3.134-2.365-.019-4.037 1.192-4.037 3.057 0 2.038 1.768 2.518 4.017 2.787 1.519.193 2.422.27 2.422 1.327 0 .788-.845 1.288-2.133 1.288-1.5 0-2.384-.73-2.461-1.75h-2.037zm10.989.577c0 1.788.808 2.672 2.691 2.672h1.923v-1.826h-1.461c-.788 0-1.057-.288-1.057-1.058v-5.132h2.402V83.14h-2.402v-2.75h-2.096v2.75h-1.711v1.826h1.711v5.344zm10.399 2.787c2.442 0 4.095-1.48 4.441-3.421h-2.076c-.289 1.095-1.211 1.73-2.48 1.73-1.634 0-2.691-1.096-2.749-2.768v-.135h7.42c.039-.27.058-.538.058-.788-.058-2.884-1.961-4.69-4.806-4.69-2.903 0-4.844 2.018-4.844 5.055 0 3.018 1.941 5.017 5.036 5.017zm-2.787-6.113c.154-1.403 1.288-2.287 2.614-2.287 1.442 0 2.461.826 2.634 2.287h-5.248zm14.058-3.844c-1.615 0-2.403.653-2.903 1.48l-.23-1.48h-1.846v9.842h2.076v-4.94c0-1.519.596-2.96 2.442-2.96h.922V83.14h-.461zm1.742 9.842h2.076V79.526h-2.076v13.456zm5.168-11.226c.711 0 1.269-.52 1.269-1.25s-.558-1.25-1.269-1.25c-.711 0-1.269.52-1.269 1.25s.558 1.25 1.269 1.25zm-1.057 11.226h2.076V83.14h-2.076v9.842zm9.301-9.958c-1.595 0-2.537.635-3.152 1.404l-.231-1.288h-1.807v9.842h2.076v-4.96c0-1.999.981-3.21 2.634-3.21 1.557 0 2.345 1 2.345 2.864v5.306h2.095v-5.479c0-3.287-1.787-4.479-3.96-4.479zm13.365 1.654c-.635-.98-1.692-1.654-3.23-1.654-2.672 0-4.652 1.98-4.652 4.998 0 3.134 1.98 4.998 4.652 4.998 1.538 0 2.557-.634 3.21-1.614V92.5c0 1.884-1.018 2.75-2.825 2.75-1.461 0-2.423-.635-2.672-1.73h-2.115c.192 2.21 2.018 3.42 4.633 3.42 3.537 0 5.036-1.69 5.036-4.363V83.14h-1.807l-.23 1.538zm-2.884 6.593c-1.73 0-2.864-1.326-2.864-3.249 0-1.903 1.134-3.248 2.864-3.248s2.864 1.345 2.864 3.287c0 1.884-1.134 3.21-2.864 3.21zm7.911-.769c-.884 0-1.461.577-1.461 1.307 0 .827.5 1.23 1.134 1.23.231 0 .462-.057.635-.192.019.077.019.173.019.25 0 .673-.481 1.423-1.692 1.442v1.115c1.903-.02 3.095-1.076 3.095-2.941 0-1.23-.673-2.21-1.73-2.21zM2.23 114.982h2.21v-5.69h5.268v-1.903H4.441v-3.902h6.382v-1.961H2.23v13.456zm9.554-11.495h4.153v11.495h2.21v-11.495H22.3v-1.961H11.784v1.961zm10.952 7.074c.077 2.691 2.095 4.536 5.44 4.536 2.96 0 4.979-1.672 4.979-4.094.02-2.653-2.153-3.364-4.383-3.768-2.114-.365-3.498-.653-3.498-2.038 0-1.268 1.057-1.922 2.575-1.922 1.634 0 2.71.923 2.884 2.288h2.21c-.096-2.48-2.018-4.152-5.094-4.152-2.864 0-4.786 1.595-4.786 3.94 0 2.672 2.114 3.383 4.344 3.768 2.134.384 3.537.692 3.537 2.114 0 1.288-1.153 2-2.749 2-1.884 0-3.114-1.058-3.23-2.634l-2.229-.038zm12.365 4.421h9.016v-1.961h-6.805v-3.902h5.42v-1.903h-5.42v-3.729h6.574v-1.961H35.1v13.456zm24.535-1.807c-.423 0-.634-.135-.634-.634V108.6c0-2.326-1.5-3.576-4.114-3.576-2.48 0-4.133 1.192-4.344 3.115h2.037c.154-.865.98-1.442 2.21-1.442 1.366 0 2.154.673 2.154 1.768v.596h-2.48c-2.749 0-4.21 1.134-4.21 3.153 0 1.826 1.5 2.883 3.653 2.883 1.595 0 2.595-.692 3.248-1.691 0 .98.462 1.576 1.807 1.576h1.096v-1.807h-.423zm-2.691-2.23c-.02 1.519-1.019 2.538-2.749 2.538-1.134 0-1.826-.577-1.826-1.404 0-.999.711-1.48 1.999-1.48h2.576v.346zm9.435-5.921c-1.595 0-2.537.635-3.152 1.404l-.231-1.288H61.19v9.842h2.076v-4.96c0-1.999.98-3.21 2.634-3.21 1.557 0 2.345 1 2.345 2.864v5.306h2.095v-5.479c0-3.287-1.788-4.479-3.96-4.479zm13.25 1.481c-.634-.865-1.69-1.481-3.19-1.481-2.672 0-4.652 2-4.652 5.037 0 3.152 1.98 5.036 4.652 5.036 1.557 0 2.576-.73 3.21-1.595l.25 1.48h1.807v-13.456H79.63v4.979zm-2.844 6.843c-1.73 0-2.865-1.346-2.865-3.287 0-1.922 1.135-3.268 2.865-3.268 1.73 0 2.864 1.346 2.864 3.306 0 1.903-1.134 3.249-2.864 3.249zm19.384-6.67c-.634-.981-1.691-1.654-3.23-1.654-2.671 0-4.651 1.98-4.651 4.998 0 3.134 1.98 4.998 4.652 4.998 1.538 0 2.556-.634 3.21-1.614v1.095c0 1.884-1.019 2.749-2.826 2.749-1.46 0-2.422-.634-2.672-1.73H88.54c.192 2.211 2.018 3.422 4.632 3.422 3.537 0 5.037-1.692 5.037-4.364v-9.438H96.4l-.23 1.538zm-2.883 6.593c-1.73 0-2.864-1.326-2.864-3.249 0-1.903 1.134-3.248 2.864-3.248s2.864 1.345 2.864 3.287c0 1.884-1.134 3.21-2.864 3.21zm8.007-9.515c.711 0 1.269-.519 1.269-1.25 0-.73-.558-1.249-1.269-1.249-.711 0-1.269.519-1.269 1.249 0 .731.558 1.25 1.269 1.25zm-1.057 11.226h2.076v-9.842h-2.076v9.842zm4.111 0h2.076v-13.456h-2.076v13.456zm4.822-2.672c0 1.788.808 2.672 2.692 2.672h1.922v-1.826h-1.461c-.788 0-1.057-.289-1.057-1.057v-5.133h2.403v-1.826h-2.403v-2.749h-2.096v2.749h-1.71v1.826h1.71v5.344zm5.512-.577c.057 2.134 1.864 3.364 4.498 3.364 2.384 0 4.171-1.191 4.171-3.075 0-2.192-1.826-2.653-4.075-2.922-1.423-.154-2.364-.269-2.364-1.192 0-.788.807-1.288 2.037-1.288s2.076.634 2.192 1.538h2.037c-.134-2.019-1.845-3.134-4.267-3.134-2.365-.019-4.037 1.192-4.037 3.057 0 2.038 1.768 2.518 4.018 2.787 1.518.192 2.422.269 2.422 1.327 0 .788-.846 1.288-2.134 1.288-1.5 0-2.384-.731-2.461-1.75h-2.037zm11.443-5.805c0-1.596.961-2.672 2.442-2.672 1.288 0 2.153.769 2.153 1.865 0 .922-.5 1.537-1.365 2.114-1.154.75-2.057 1.384-2.057 2.941v.615h1.961v-.384c0-.961.653-1.461 1.691-2.172 1-.712 1.923-1.557 1.923-3.326 0-2.018-1.654-3.498-4.326-3.498-2.864 0-4.536 2.018-4.536 4.517h2.114zm.885 7.881c0 .769.576 1.288 1.326 1.288.75 0 1.307-.519 1.307-1.288s-.557-1.288-1.307-1.288c-.75 0-1.326.519-1.326 1.288z" fill="#000"/><path d="M2.397 30h4.307v-9.512h5.767L17.527 30h4.793l-5.542-10.449c3.07-1.086 5.093-3.894 5.093-7.415 0-5.093-3.67-8.351-9.138-8.351H2.397V30zm10-22.47c3.07 0 5.055 1.797 5.055 4.606s-1.985 4.607-5.056 4.607H6.704V7.53h5.692zm14.981.599c1.386 0 2.472-1.011 2.472-2.434 0-1.423-1.086-2.435-2.472-2.435s-2.472 1.012-2.472 2.435 1.086 2.434 2.472 2.434zM25.318 30h4.045V10.825h-4.045V30zm7.186-6.33c.112 4.158 3.632 6.555 8.763 6.555 4.644 0 8.127-2.322 8.127-5.992 0-4.27-3.558-5.169-7.94-5.693-2.771-.3-4.606-.524-4.606-2.322 0-1.535 1.573-2.509 3.97-2.509 2.397 0 4.044 1.236 4.269 2.996h3.97c-.262-3.932-3.596-6.104-8.314-6.104-4.607-.038-7.865 2.322-7.865 5.954 0 3.97 3.446 4.906 7.827 5.43 2.959.375 4.72.525 4.72 2.585 0 1.535-1.649 2.509-4.158 2.509-2.921 0-4.644-1.423-4.794-3.408h-3.97zM62.602 10.6c-2.996 0-4.83 1.349-6.03 2.997V3.785h-4.044V30h4.045v-9.7c0-3.857 1.947-6.216 5.13-6.216 2.997 0 4.607 1.947 4.607 5.58V30h4.045V19.327c0-6.404-3.483-8.726-7.753-8.726zm13.49-2.471c1.386 0 2.472-1.011 2.472-2.434 0-1.423-1.086-2.435-2.471-2.435-1.386 0-2.472 1.012-2.472 2.435s1.086 2.434 2.472 2.434zM74.033 30h4.046V10.825h-4.045V30zm16.956-8.614c.15 5.244 4.082 8.839 10.598 8.839 5.768 0 9.7-3.259 9.7-7.977.037-5.168-4.195-6.554-8.539-7.34-4.12-.712-6.816-1.274-6.816-3.97 0-2.472 2.06-3.745 5.019-3.745 3.183 0 5.28 1.797 5.617 4.456h4.307c-.187-4.83-3.932-8.089-9.924-8.089-5.58 0-9.326 3.108-9.326 7.677 0 5.206 4.12 6.592 8.464 7.34 4.157.75 6.891 1.349 6.891 4.12 0 2.51-2.247 3.895-5.355 3.895-3.67 0-6.067-2.06-6.292-5.13l-4.344-.076zm36.822-.973c0 3.97-1.872 6.291-4.943 6.291-2.959 0-4.457-1.91-4.457-5.655V10.825h-4.044V21.5c0 6.554 3.482 8.726 7.564 8.726 2.959 0 4.719-1.199 5.918-2.66l.449 2.435h3.558V10.825h-4.045v9.588zm18.142-9.812c-3.108 0-4.943 1.236-6.142 2.734l-.449-2.51h-3.52V30h4.044v-9.662c0-3.895 1.91-6.254 5.131-6.254 3.033 0 4.569 1.947 4.569 5.58V30h4.082V19.327c0-6.404-3.483-8.726-7.715-8.726zm28.92 15.879c-.824 0-1.236-.262-1.236-1.236v-7.677c0-4.532-2.921-6.966-8.014-6.966-4.831 0-8.052 2.322-8.464 6.067h3.97c.299-1.686 1.91-2.81 4.307-2.81 2.659 0 4.194 1.312 4.194 3.446v1.161h-4.831c-5.355 0-8.202 2.21-8.202 6.142 0 3.558 2.921 5.618 7.116 5.618 3.108 0 5.056-1.349 6.329-3.296 0 1.91.899 3.071 3.52 3.071h2.135v-3.52h-.824zm-5.243-4.345c-.037 2.959-1.985 4.944-5.355 4.944-2.21 0-3.558-1.124-3.558-2.734 0-1.947 1.386-2.884 3.895-2.884h5.018v.674zm8.27 7.865h4.045v-4.869l3.445-3.595L191.044 30h4.794l-7.677-11.422 7.227-7.753h-4.756l-8.688 9.288V3.785h-4.045V30zM12.246 44.6c-2.958 0-4.943 1.349-6.216 3.072v-9.887H1.985V64h3.52l.487-2.771c1.198 1.722 3.258 2.996 6.254 2.996 5.243 0 9.063-3.933 9.063-9.812 0-6.18-3.82-9.812-9.063-9.812zm-.674 16.217c-3.37 0-5.58-2.66-5.58-6.442 0-3.707 2.21-6.329 5.58-6.329s5.618 2.622 5.618 6.367c0 3.782-2.247 6.404-5.618 6.404zm22.079 3.408c4.756 0 7.976-2.884 8.65-6.666h-4.044c-.562 2.134-2.36 3.37-4.831 3.37-3.183 0-5.243-2.135-5.356-5.393v-.262h14.456c.075-.524.113-1.049.113-1.535-.113-5.618-3.82-9.138-9.363-9.138-5.655 0-9.437 3.932-9.437 9.85 0 5.879 3.782 9.774 9.812 9.774zm-5.43-11.91c.299-2.733 2.509-4.456 5.093-4.456 2.808 0 4.793 1.61 5.13 4.456H28.22zm26.488 11.91c4.906 0 8.165-2.734 8.914-7.078h-4.27c-.487 2.21-2.134 3.632-4.606 3.632-3.258 0-5.393-2.584-5.393-6.329 0-3.782 2.135-6.404 5.393-6.404 2.509 0 4.12 1.386 4.644 3.633h4.232c-.787-4.344-3.858-7.078-8.801-7.078-5.805 0-9.625 3.932-9.625 9.85 0 5.991 3.708 9.774 9.512 9.774zm21.072 0c5.843 0 9.775-3.933 9.775-9.812 0-5.843-3.932-9.812-9.775-9.812-5.842 0-9.774 3.97-9.774 9.812 0 5.88 3.932 9.812 9.774 9.812zm0-3.446c-3.408 0-5.617-2.659-5.617-6.366 0-3.708 2.21-6.367 5.617-6.367 3.408 0 5.655 2.66 5.655 6.367s-2.247 6.366-5.655 6.366zm35.086-16.178c-3.146 0-5.318 1.385-6.554 3.483-1.161-2.472-3.408-3.483-5.917-3.483-2.884.037-4.532 1.31-5.618 2.734l-.45-2.51h-3.52V64h4.045V53.739c0-3.408 1.723-5.655 4.494-5.655 2.659 0 4.045 1.76 4.045 5.13V64h4.082V53.626c0-3.445 1.76-5.542 4.531-5.542 2.622 0 4.007 1.76 4.007 5.13V64h4.045V52.952c0-6.067-3.221-8.351-7.19-8.351zm19.811 19.624c4.756 0 7.977-2.884 8.651-6.666h-4.045c-.562 2.134-2.359 3.37-4.831 3.37-3.183 0-5.243-2.135-5.355-5.393v-.262h14.456c.074-.524.112-1.049.112-1.535-.112-5.618-3.82-9.138-9.363-9.138-5.655 0-9.437 3.932-9.437 9.85 0 5.879 3.782 9.774 9.812 9.774zm-5.431-11.91c.3-2.733 2.51-4.456 5.094-4.456 2.809 0 4.793 1.61 5.13 4.456h-10.224zm16.755 5.356c.112 4.157 3.633 6.554 8.764 6.554 4.643 0 8.126-2.322 8.126-5.992 0-4.27-3.558-5.168-7.939-5.693-2.772-.3-4.607-.524-4.607-2.322 0-1.535 1.573-2.509 3.97-2.509 2.397 0 4.045 1.236 4.269 2.996h3.97c-.262-3.932-3.595-6.104-8.314-6.104-4.606-.038-7.864 2.322-7.864 5.954 0 3.97 3.445 4.906 7.827 5.43 2.958.375 4.718.525 4.718 2.585 0 1.535-1.647 2.509-4.156 2.509-2.922 0-4.644-1.423-4.794-3.408h-3.97zM172.021 64h4.306v-9.512h6.03c5.468 0 9.063-3.296 9.063-8.352 0-5.093-3.595-8.351-9.063-8.351h-10.336V64zm9.999-22.47c3.071 0 5.018 1.76 5.018 4.606 0 2.809-1.985 4.607-5.056 4.607h-5.655V41.53h5.693zM194.732 64h4.157V44.713L206.754 64h3.632l7.865-19.287V64h4.157V37.785h-5.468l-8.239 20.635-8.389-20.635h-5.58V64z" fill="url(#paint0_linear_918_12735)"/><defs><linearGradient id="paint0_linear_918_12735" x1="250" y1="36.107" x2="0" y2="36.107" gradientUnits="userSpaceOnUse"><stop stop-color="#FF4343"/><stop offset=".5" stop-color="#9C0B93"/><stop offset="1" stop-color="#4C1BB7"/></linearGradient></defs></svg>