<svg width="126" height="113" viewBox="0 0 126 113" fill="none" xmlns="http://www.w3.org/2000/svg"><path d="M1.6 18h2.775V5.125L9.625 18h2.425L17.3 5.125V18h2.775V.5h-3.65l-5.5 13.775L5.325.5H1.6V18zm33.105-2.35c-.55 0-.825-.175-.825-.825V9.7c0-3.025-1.95-4.65-5.35-4.65-3.225 0-5.375 1.55-5.65 4.05h2.65c.2-1.125 1.275-1.875 2.875-1.875 1.775 0 2.8.875 2.8 2.3v.775H27.98c-3.575 0-5.475 1.475-5.475 4.1 0 2.375 1.95 3.75 4.75 3.75 2.075 0 3.375-.9 4.225-2.2 0 1.275.6 2.05 2.35 2.05h1.425v-2.35h-.55zm-3.5-2.9c-.025 1.975-1.325 3.3-3.575 3.3-1.475 0-2.375-.75-2.375-1.825 0-1.3.925-1.925 2.6-1.925h3.35v.45zm4.97 1.025c.075 2.775 2.425 4.375 5.85 4.375 3.1 0 5.425-1.55 5.425-4 0-2.85-2.375-3.45-5.3-3.8-1.85-.2-3.075-.35-3.075-1.55 0-1.025 1.05-1.675 2.65-1.675 1.6 0 2.7.825 2.85 2h2.65c-.175-2.625-2.4-4.075-5.55-4.075-3.075-.025-5.25 1.55-5.25 3.975 0 2.65 2.3 3.275 5.225 3.625 1.975.25 3.15.35 3.15 1.725 0 1.025-1.1 1.675-2.775 1.675-1.95 0-3.1-.95-3.2-2.275h-2.65zm14.293.75c0 2.325 1.05 3.475 3.5 3.475h2.5v-2.375h-1.9c-1.025 0-1.375-.375-1.375-1.375V7.575h3.125V5.2h-3.125V1.625h-2.725V5.2h-2.225v2.375h2.225v6.95zm13.524 3.625c3.175 0 5.325-1.925 5.775-4.45h-2.7c-.375 1.425-1.575 2.25-3.225 2.25-2.125 0-3.5-1.425-3.575-3.6v-.175h9.65c.05-.35.075-.7.075-1.025-.075-3.75-2.55-6.1-6.25-6.1-3.775 0-6.3 2.625-6.3 6.575 0 3.925 2.525 6.525 6.55 6.525zm-3.625-7.95c.2-1.825 1.675-2.975 3.4-2.975 1.875 0 3.2 1.075 3.425 2.975h-6.825zm18.283-5c-2.1 0-3.125.85-3.775 1.925l-.3-1.925h-2.4V18h2.7v-6.425c0-1.975.775-3.85 3.175-3.85h1.2V5.2h-.6zM2.25 44.525C2.25 46.85 3.3 48 5.75 48h2.5v-2.375h-1.9c-1.025 0-1.375-.375-1.375-1.375v-6.675H8.1V35.2H4.975v-3.575H2.25V35.2H.025v2.375H2.25v6.95zm14.443-9.475c-2 0-3.225.9-4.025 2V30.5h-2.7V48h2.7v-6.475c0-2.575 1.3-4.15 3.425-4.15 2 0 3.075 1.3 3.075 3.725V48h2.7v-7.125c0-4.275-2.325-5.825-5.175-5.825zM30.3 48.15c3.175 0 5.325-1.925 5.775-4.45h-2.7C33 45.125 31.8 45.95 30.15 45.95c-2.125 0-3.5-1.425-3.575-3.6v-.175h9.65c.05-.35.075-.7.075-1.025-.075-3.75-2.55-6.1-6.25-6.1-3.775 0-6.3 2.625-6.3 6.575 0 3.925 2.525 6.525 6.55 6.525zm-3.625-7.95c.2-1.825 1.675-2.975 3.4-2.975 1.875 0 3.2 1.075 3.425 2.975h-6.825zm32.93-5.15c-2.1 0-3.55.925-4.375 2.325-.775-1.65-2.275-2.325-3.95-2.325-1.925.025-3.025.875-3.75 1.825l-.3-1.675h-2.35V48h2.7v-6.85c0-2.275 1.15-3.775 3-3.775 1.775 0 2.7 1.175 2.7 3.425V48h2.725v-6.925c0-2.3 1.175-3.7 3.025-3.7 1.75 0 2.675 1.175 2.675 3.425V48h2.7v-7.375c0-4.05-2.15-5.575-4.8-5.575zm18.947 10.6c-.55 0-.825-.175-.825-.825V39.7c0-3.025-1.95-4.65-5.35-4.65-3.225 0-5.375 1.55-5.65 4.05h2.65c.2-1.125 1.275-1.875 2.875-1.875 1.775 0 2.8.875 2.8 2.3v.775h-3.225c-3.575 0-5.475 1.475-5.475 4.1 0 2.375 1.95 3.75 4.75 3.75 2.075 0 3.375-.9 4.225-2.2 0 1.275.6 2.05 2.35 2.05h1.425v-2.35h-.55zm-3.5-2.9c-.025 1.975-1.325 3.3-3.575 3.3-1.475 0-2.375-.75-2.375-1.825 0-1.3.925-1.925 2.6-1.925h3.35v.45zm11.996-7.55c-2.1 0-3.125.85-3.775 1.925l-.3-1.925h-2.4V48h2.7v-6.425c0-1.975.775-3.85 3.175-3.85h1.2V35.2h-.6zM89.313 48h2.7v-3.25l2.3-2.4L98.088 48h3.2l-5.125-7.625 4.825-5.175h-3.175l-5.8 6.2V30.5h-2.7V48zm18.551.15c3.175 0 5.325-1.925 5.775-4.45h-2.7c-.375 1.425-1.575 2.25-3.225 2.25-2.125 0-3.5-1.425-3.575-3.6v-.175h9.65c.05-.35.075-.7.075-1.025-.075-3.75-2.55-6.1-6.25-6.1-3.775 0-6.3 2.625-6.3 6.575 0 3.925 2.525 6.525 6.55 6.525zm-3.625-7.95c.2-1.825 1.675-2.975 3.4-2.975 1.875 0 3.2 1.075 3.425 2.975h-6.825zm12.635 4.325c0 2.325 1.05 3.475 3.5 3.475h2.5v-2.375h-1.9c-1.025 0-1.375-.375-1.375-1.375v-6.675h3.125V35.2h-3.125v-3.575h-2.725V35.2h-2.225v2.375h2.225v6.95zM.025 67.575H2.25V78h2.725V67.575H8.4V65.2H4.925v-1.075c0-.875.375-1.25 1.25-1.25H8.4V60.5H5.825C3.35 60.5 2.25 61.7 2.25 64v1.2H.025v2.375zM15.31 78.15c3.9 0 6.525-2.625 6.525-6.55 0-3.9-2.625-6.55-6.525-6.55-3.9 0-6.525 2.65-6.525 6.55 0 3.925 2.625 6.55 6.525 6.55zm0-2.3c-2.275 0-3.75-1.775-3.75-4.25s1.475-4.25 3.75-4.25 3.775 1.775 3.775 4.25-1.5 4.25-3.775 4.25zM30.48 65.2c-2.1 0-3.124.85-3.774 1.925l-.3-1.925h-2.4V78h2.7v-6.425c0-1.975.775-3.85 3.175-3.85h1.2V65.2h-.6zm7.53 12.95c3.276 0 5.45-1.825 5.95-4.725h-2.85c-.325 1.475-1.425 2.425-3.075 2.425-2.174 0-3.6-1.725-3.6-4.225 0-2.525 1.425-4.275 3.6-4.275 1.676 0 2.75.925 3.1 2.425h2.826c-.526-2.9-2.575-4.725-5.875-4.725-3.875 0-6.425 2.625-6.425 6.575 0 4 2.474 6.525 6.35 6.525zm14.092 0c3.175 0 5.325-1.925 5.775-4.45h-2.7c-.375 1.425-1.575 2.25-3.225 2.25-2.125 0-3.5-1.425-3.575-3.6v-.175h9.65c.05-.35.075-.7.075-1.025-.075-3.75-2.55-6.1-6.25-6.1-3.775 0-6.3 2.625-6.3 6.575 0 3.925 2.525 6.525 6.55 6.525zm-3.625-7.95c.2-1.825 1.675-2.975 3.4-2.975 1.875 0 3.2 1.075 3.425 2.975h-6.825zm11.185 3.575c.075 2.775 2.425 4.375 5.85 4.375 3.1 0 5.425-1.55 5.425-4 0-2.85-2.375-3.45-5.3-3.8-1.85-.2-3.075-.35-3.075-1.55 0-1.025 1.05-1.675 2.65-1.675 1.6 0 2.7.825 2.85 2h2.65c-.175-2.625-2.4-4.075-5.55-4.075-3.075-.025-5.25 1.55-5.25 3.975 0 2.65 2.3 3.275 5.225 3.625 1.975.25 3.15.35 3.15 1.725 0 1.025-1.1 1.675-2.775 1.675-1.95 0-3.1-.95-3.2-2.275h-2.65zM82.376 78H85.3l2.8-8.7 2.7 8.7h2.9l4.25-12.8H95.2L92.176 75l-2.8-9.8H86.9L83.976 75l-2.925-9.8H78.2L82.376 78zm18.371-14.6c.925 0 1.65-.675 1.65-1.625s-.725-1.625-1.65-1.625c-.925 0-1.65.675-1.65 1.625s.725 1.625 1.65 1.625zM99.372 78h2.7V65.2h-2.7V78zm6.272-3.475c0 2.325 1.05 3.475 3.5 3.475h2.5v-2.375h-1.9c-1.025 0-1.375-.375-1.375-1.375v-6.675h3.125V65.2h-3.125v-3.575h-2.725V65.2h-2.225v2.375h2.225v6.95zm14.442-9.475c-2 0-3.225.9-4.025 2V60.5h-2.7V78h2.7v-6.475c0-2.575 1.3-4.15 3.425-4.15 2 0 3.075 1.3 3.075 3.725V78h2.7v-7.125c0-4.275-2.325-5.825-5.175-5.825zM9.2 108.15c4.075 0 7.05-2.4 7.6-6.1h-2.975c-.55 2.225-2.225 3.575-4.65 3.575-3.3 0-5.3-2.65-5.3-6.375 0-3.75 2.05-6.375 5.375-6.375 2.375 0 4.025 1.375 4.6 3.575h2.975c-.575-3.7-3.45-6.1-7.45-6.1-5.175 0-8.45 3.575-8.45 8.9 0 5.375 3.175 8.9 8.275 8.9zM20.278 93.4c.925 0 1.65-.675 1.65-1.625s-.725-1.625-1.65-1.625c-.925 0-1.65.675-1.65 1.625s.725 1.625 1.65 1.625zM18.903 108h2.7V95.2h-2.7V108zm6.272-3.475c0 2.325 1.05 3.475 3.5 3.475h2.5v-2.375h-1.9c-1.025 0-1.375-.375-1.375-1.375v-6.675h3.125V95.2H27.9v-3.575h-2.725V95.2H22.95v2.375h2.225v6.95zm11.417 3.55l-.5 1.25c-.4 1.05-.65 1.3-1.7 1.3h-1.9V113h2.9c1.875 0 2.425-.925 3.225-3l5.8-14.8h-2.875l-3.475 9.725-3.575-9.725h-2.875l4.975 12.875zM52.455 108h2.875V90.5h-2.875V108zm12.554-12.95c-2.075 0-3.3.825-4.1 1.825l-.3-1.675h-2.35V108h2.7v-6.45c0-2.6 1.275-4.175 3.425-4.175 2.025 0 3.05 1.3 3.05 3.725v6.9h2.725v-7.125c0-4.275-2.325-5.825-5.15-5.825zm17.232 1.925c-.825-1.125-2.2-1.925-4.15-1.925-3.475 0-6.05 2.6-6.05 6.55 0 4.1 2.575 6.55 6.05 6.55 2.025 0 3.35-.95 4.175-2.075l.325 1.925h2.35V90.5h-2.7v6.475zm-3.7 8.9c-2.25 0-3.725-1.75-3.725-4.275 0-2.5 1.475-4.25 3.725-4.25s3.725 1.75 3.725 4.3c0 2.475-1.475 4.225-3.725 4.225zm15.114 2.275c3.175 0 5.325-1.925 5.775-4.45h-2.7c-.375 1.425-1.575 2.25-3.225 2.25-2.125 0-3.5-1.425-3.575-3.6v-.175h9.65c.05-.35.075-.7.075-1.025-.075-3.75-2.55-6.1-6.25-6.1-3.775 0-6.3 2.625-6.3 6.575 0 3.925 2.525 6.525 6.55 6.525zm-3.625-7.95c.2-1.825 1.675-2.975 3.4-2.975 1.875 0 3.2 1.075 3.425 2.975H90.03zm9.897 7.8h2.975l3.375-4.65 3.35 4.65h3.15l-4.825-6.55 4.55-6.25h-2.975l-3.125 4.325-3.05-4.325h-3.15l4.525 6.25-4.8 6.55z" fill="#000"/></svg>