<svg width="113" height="74" viewBox="0 0 113 74" fill="none" xmlns="http://www.w3.org/2000/svg"><path d="M.46 3.246h4.968V17h2.645V3.246h4.968V.9H.46v2.346zm19.114 1.978c-1.932 0-2.875.782-3.473 1.771l-.276-1.771h-2.208V17h2.484v-5.911c0-1.817.713-3.542 2.921-3.542h1.104V5.224h-.552zm12.49 9.614c-.507 0-.76-.161-.76-.759V9.364c0-2.783-1.794-4.278-4.922-4.278-2.967 0-4.945 1.426-5.198 3.726h2.438c.184-1.035 1.173-1.725 2.645-1.725 1.633 0 2.576.805 2.576 2.116v.713h-2.967c-3.289 0-5.037 1.357-5.037 3.772 0 2.185 1.794 3.45 4.37 3.45 1.91 0 3.105-.828 3.887-2.024 0 1.173.552 1.886 2.162 1.886h1.311v-2.162h-.506zm-3.22-2.668c-.024 1.817-1.22 3.036-3.29 3.036-1.357 0-2.185-.69-2.185-1.679 0-1.196.851-1.771 2.392-1.771h3.082v.414zm13.935-5.313c-.759-1.035-2.024-1.771-3.818-1.771-3.197 0-5.566 2.392-5.566 6.026 0 3.772 2.37 6.026 5.566 6.026 1.863 0 3.082-.874 3.841-1.909l.3 1.771h2.161V.9H42.78v5.957zm-3.404 8.188c-2.07 0-3.427-1.61-3.427-3.933 0-2.3 1.357-3.91 3.427-3.91 2.07 0 3.427 1.61 3.427 3.956 0 2.277-1.357 3.887-3.427 3.887zm13.905 2.093c2.92 0 4.899-1.771 5.313-4.094h-2.484c-.345 1.311-1.45 2.07-2.967 2.07-1.955 0-3.22-1.311-3.29-3.312v-.161h8.879c.046-.322.069-.644.069-.943-.07-3.45-2.346-5.612-5.75-5.612-3.473 0-5.796 2.415-5.796 6.049 0 3.611 2.323 6.003 6.026 6.003zm-3.335-7.314c.184-1.679 1.54-2.737 3.128-2.737 1.725 0 2.944.989 3.15 2.737h-6.278zM69.407 17h2.69l2.577-8.004L77.158 17h2.668l3.91-11.776h-2.53l-2.783 9.016-2.576-9.016H73.57l-2.691 9.016-2.691-9.016h-2.622L69.406 17zM86.308 3.568c.851 0 1.518-.621 1.518-1.495 0-.874-.667-1.495-1.518-1.495-.85 0-1.518.621-1.518 1.495 0 .874.667 1.495 1.518 1.495zM85.043 17h2.484V5.224h-2.484V17zm5.77-3.197c0 2.139.966 3.197 3.22 3.197h2.3v-2.185h-1.748c-.943 0-1.265-.345-1.265-1.265V7.409h2.875V5.224H93.32V1.935h-2.507v3.289h-2.047v2.185h2.047v6.394zM104.1 5.086c-1.84 0-2.967.828-3.703 1.84V.9h-2.484V17h2.484v-5.957c0-2.369 1.196-3.818 3.151-3.818 1.84 0 2.829 1.196 2.829 3.427V17h2.484v-6.555c0-3.933-2.139-5.359-4.761-5.359zm-96.671 28c-1.909 0-3.036.759-3.772 1.679l-.276-1.541H1.219V45h2.484v-5.934c0-2.392 1.173-3.841 3.151-3.841 1.863 0 2.806 1.196 2.806 3.427V45h2.507v-6.555c0-3.933-2.139-5.359-4.738-5.359zm12.473 12.052c3.588 0 6.003-2.415 6.003-6.026 0-3.588-2.415-6.026-6.003-6.026S13.9 35.524 13.9 39.112c0 3.611 2.415 6.026 6.003 6.026zm0-2.116c-2.093 0-3.45-1.633-3.45-3.91s1.357-3.91 3.45-3.91 3.473 1.633 3.473 3.91-1.38 3.91-3.473 3.91zm12.69-7.613h2.046V45h2.507v-9.591h3.151v-2.185H37.1v-.989c0-.805.345-1.15 1.15-1.15h2.047V28.9h-2.369c-2.277 0-3.289 1.104-3.289 3.22v1.104h-2.047v2.185zm14.084 9.729c2.921 0 4.9-1.771 5.313-4.094h-2.484c-.345 1.311-1.449 2.07-2.967 2.07-1.955 0-3.22-1.311-3.289-3.312v-.161h8.878c.046-.322.07-.644.07-.943-.07-3.45-2.347-5.612-5.75-5.612-3.474 0-5.797 2.415-5.797 6.049 0 3.611 2.323 6.003 6.026 6.003zm-3.335-7.314c.184-1.679 1.541-2.737 3.128-2.737 1.725 0 2.944.989 3.151 2.737h-6.279zm16.452 7.314c2.921 0 4.9-1.771 5.313-4.094h-2.484c-.345 1.311-1.449 2.07-2.967 2.07-1.955 0-3.22-1.311-3.289-3.312v-.161h8.878c.046-.322.07-.644.07-.943-.07-3.45-2.347-5.612-5.75-5.612-3.474 0-5.797 2.415-5.797 6.049 0 3.611 2.323 6.003 6.026 6.003zm-3.335-7.314c.184-1.679 1.541-2.737 3.128-2.737 1.725 0 2.944.989 3.151 2.737h-6.279zm10.29 3.289c.07 2.553 2.231 4.025 5.382 4.025 2.852 0 4.991-1.426 4.991-3.68 0-2.622-2.185-3.174-4.876-3.496-1.702-.184-2.829-.322-2.829-1.426 0-.943.966-1.541 2.438-1.541 1.472 0 2.484.759 2.622 1.84h2.438c-.16-2.415-2.208-3.749-5.106-3.749-2.829-.023-4.83 1.426-4.83 3.657 0 2.438 2.116 3.013 4.807 3.335 1.817.23 2.898.322 2.898 1.587 0 .943-1.012 1.541-2.553 1.541-1.794 0-2.852-.874-2.944-2.093h-2.438zm16.987-5.704h2.047V45h2.507v-9.591h3.15v-2.185h-3.196v-.989c0-.805.345-1.15 1.15-1.15h2.047V28.9h-2.37c-2.276 0-3.288 1.104-3.288 3.22v1.104h-2.047v2.185zm14.062 9.729c3.588 0 6.003-2.415 6.003-6.026 0-3.588-2.415-6.026-6.003-6.026s-6.003 2.438-6.003 6.026c0 3.611 2.415 6.026 6.003 6.026zm0-2.116c-2.093 0-3.45-1.633-3.45-3.91s1.357-3.91 3.45-3.91 3.473 1.633 3.473 3.91-1.38 3.91-3.473 3.91zm13.957-9.798c-1.932 0-2.875.782-3.473 1.771l-.276-1.771h-2.208V45h2.484v-5.911c0-1.817.713-3.542 2.921-3.542h1.104v-2.323h-.552zM3.818 58.533c0 .851-.345 1.449-1.173 1.449H.138v2.185H2.76c.437 0 .782-.069 1.012-.207V73h2.553V56.9H3.818v1.633zM8.322 73H19.73v-2.231h-7.797l4.278-3.565c1.955-1.633 3.404-3.128 3.404-5.52 0-2.944-2.024-4.922-5.635-4.922-3.427 0-5.635 2.231-5.635 5.29v.414h2.553v-.276c0-2.001 1.242-3.243 3.082-3.243 1.84 0 3.06 1.012 3.06 2.852 0 1.541-1.082 2.668-2.53 3.887l-6.188 5.267V73zm32.723-11.914c-1.932 0-3.266.851-4.025 2.139-.713-1.518-2.093-2.139-3.634-2.139-1.77.023-2.783.805-3.45 1.679l-.276-1.541h-2.162V73h2.484v-6.302c0-2.093 1.058-3.473 2.76-3.473 1.633 0 2.484 1.081 2.484 3.151V73h2.507v-6.371c0-2.116 1.081-3.404 2.783-3.404 1.61 0 2.461 1.081 2.461 3.151V73h2.484v-6.785c0-3.726-1.978-5.129-4.416-5.129zM53.19 73.138c3.588 0 6.003-2.415 6.003-6.026 0-3.588-2.415-6.026-6.003-6.026s-6.003 2.438-6.003 6.026c0 3.611 2.415 6.026 6.003 6.026zm0-2.116c-2.093 0-3.45-1.633-3.45-3.91s1.357-3.91 3.45-3.91 3.473 1.633 3.473 3.91-1.38 3.91-3.473 3.91zm14.21-9.936c-1.908 0-3.035.759-3.771 1.679l-.276-1.541H61.19V73h2.484v-5.934c0-2.392 1.173-3.841 3.15-3.841 1.864 0 2.807 1.196 2.807 3.427V73h2.507v-6.555c0-3.933-2.14-5.359-4.738-5.359zm7.849 8.717c0 2.139.966 3.197 3.22 3.197h2.3v-2.185H79.02c-.943 0-1.265-.345-1.265-1.265v-6.141h2.875v-2.185h-2.875v-3.289h-2.507v3.289H73.2v2.185h2.047v6.394zm13.287-8.717c-1.84 0-2.967.828-3.703 1.84V56.9h-2.484V73h2.484v-5.957c0-2.369 1.196-3.818 3.15-3.818 1.84 0 2.83 1.196 2.83 3.427V73h2.484v-6.555c0-3.933-2.14-5.359-4.761-5.359zm6.514 8.027c.069 2.553 2.23 4.025 5.382 4.025 2.852 0 4.991-1.426 4.991-3.68 0-2.622-2.185-3.174-4.876-3.496-1.702-.184-2.83-.322-2.83-1.426 0-.943.967-1.541 2.439-1.541s2.484.759 2.622 1.84h2.438c-.161-2.415-2.208-3.749-5.106-3.749-2.83-.023-4.83 1.426-4.83 3.657 0 2.438 2.116 3.013 4.807 3.335 1.817.23 2.898.322 2.898 1.587 0 .943-1.012 1.541-2.553 1.541-1.794 0-2.852-.874-2.944-2.093h-2.438z" fill="#000"/></svg>