<svg width="468" height="60" viewBox="0 0 468 60" fill="none" xmlns="http://www.w3.org/2000/svg"><path d="M283.099 22.418c0-4.878-8.316-2.142-8.316-5.85 0-1.746 1.35-2.556 3.438-2.556 2.394 0 3.564.972 3.69 3.006 0 .072.072.144.144.144h.666a.155.155 0 00.144-.144c-.18-2.52-1.818-3.798-4.644-3.798-2.502 0-4.302 1.17-4.302 3.42 0 4.644 8.298 1.854 8.298 5.85 0 2.07-1.62 2.898-3.636 2.898-2.754 0-3.834-1.368-3.978-3.636a.155.155 0 00-.144-.144h-.666a.155.155 0 00-.144.144c.126 2.754 1.746 4.41 4.878 4.41 2.574 0 4.572-1.224 4.572-3.744zm9.036.306c-.072 0-.162.054-.162.144-.306 1.638-1.26 2.628-2.934 2.628-2.196 0-3.294-1.53-3.294-4.14l7.002-.018a.155.155 0 00.144-.144c-.054-2.952-1.53-4.662-3.978-4.662-2.502 0-4.068 2.016-4.068 4.86 0 2.844 1.44 4.806 4.176 4.806 2.214 0 3.474-1.296 3.816-3.33 0-.072-.054-.144-.126-.144h-.576zm-.198-2.106h-6.156c.216-2.07 1.296-3.384 3.132-3.384 1.962 0 3.006 1.512 3.024 3.384zm3.493.666c0-2.25.936-4.032 3.024-4.032 1.872 0 2.97 1.566 2.952 4.212-.018 2.646-1.188 3.996-2.988 3.996-2.07 0-2.988-1.854-2.988-4.176zM302.09 26a.155.155 0 00.144-.144l-.054-4.662.054-4.32a.155.155 0 00-.144-.144h-.612a.155.155 0 00-.144.144l.036 1.674c-.594-1.296-1.656-1.998-3.114-1.998-2.394 0-3.708 2.16-3.708 4.824 0 2.7 1.278 4.788 3.708 4.788 1.476 0 2.538-.774 3.114-2.052l-.036 1.746c0 .072.072.144.144.144h.612zm3.42-5.994c.612-1.674 1.476-2.736 2.772-2.736 1.332 0 2.196.828 2.196 3.078v1.782l-.036 3.726c0 .072.072.144.144.144h.63a.155.155 0 00.144-.144l-.018-3.726v-1.872c0-.216 0-.414-.018-.612.594-1.458 1.422-2.376 2.628-2.376 1.332 0 2.196.828 2.196 3.078v1.782l-.036 3.726c0 .072.072.144.144.144h.63a.155.155 0 00.144-.144l-.018-3.726v-1.872c0-2.574-1.08-3.744-2.862-3.744-1.458 0-2.43.99-2.988 2.124-.378-1.458-1.332-2.124-2.682-2.124-1.512 0-2.466 1.062-2.988 2.124l.036-1.764a.155.155 0 00-.144-.144h-.612a.155.155 0 00-.144.144l.036 5.256-.054 3.726c0 .072.072.144.144.144h.648a.155.155 0 00.144-.144l-.036-3.726v-2.124zM320.204 26a.155.155 0 00.144-.144l-.036-6.318.036-5.994a.155.155 0 00-.144-.144h-.63a.155.155 0 00-.144.144l.054 6.03-.054 6.282c0 .072.072.144.144.144h.63zm9.546-3.276c-.072 0-.162.054-.162.144-.306 1.638-1.26 2.628-2.934 2.628-2.196 0-3.294-1.53-3.294-4.14l7.002-.018a.155.155 0 00.144-.144c-.054-2.952-1.53-4.662-3.978-4.662-2.502 0-4.068 2.016-4.068 4.86 0 2.844 1.44 4.806 4.176 4.806 2.214 0 3.474-1.296 3.816-3.33 0-.072-.054-.144-.126-.144h-.576zm-.198-2.106h-6.156c.216-2.07 1.296-3.384 3.132-3.384 1.962 0 3.006 1.512 3.024 3.384zm9.991 2.844c0-3.852-6.39-1.674-6.39-4.41 0-1.224.99-1.836 2.52-1.836 1.494 0 2.682.612 2.772 2.106 0 .072.072.144.144.144h.54a.155.155 0 00.144-.144c-.09-1.926-1.638-2.772-3.582-2.772-1.98 0-3.402.864-3.402 2.538 0 3.6 6.39 1.422 6.39 4.428 0 1.278-1.134 1.998-2.718 1.998-1.908 0-2.952-.846-3.006-2.664a.155.155 0 00-.144-.144h-.576a.155.155 0 00-.144.144c.054 2.268 1.53 3.33 3.852 3.33 2.016 0 3.6-1.008 3.6-2.718zm9.017 0c0-3.852-6.39-1.674-6.39-4.41 0-1.224.99-1.836 2.52-1.836 1.494 0 2.682.612 2.772 2.106 0 .072.072.144.144.144h.54a.155.155 0 00.144-.144c-.09-1.926-1.638-2.772-3.582-2.772-1.98 0-3.402.864-3.402 2.538 0 3.6 6.39 1.422 6.39 4.428 0 1.278-1.134 1.998-2.718 1.998-1.908 0-2.952-.846-3.006-2.664a.155.155 0 00-.144-.144h-.576a.155.155 0 00-.144.144c.054 2.268 1.53 3.33 3.852 3.33 2.016 0 3.6-1.008 3.6-2.718zm13.053-.738c.018-.072-.054-.144-.126-.144h-.558c-.072 0-.144.072-.162.144-.144 1.746-1.278 2.772-3.006 2.772-2.16-.018-3.15-1.584-3.15-4.104s1.008-4.14 3.15-4.14c1.584 0 2.664.846 2.916 2.484.018.09.09.144.162.144h.54c.072 0 .144-.072.126-.144-.198-1.926-1.512-3.204-3.744-3.204-2.664 0-4.068 1.962-4.068 4.86 0 2.898 1.404 4.806 4.05 4.806 2.376 0 3.708-1.458 3.87-3.474zm9.817-1.35c0-2.898-1.458-4.842-4.14-4.842-2.664 0-4.14 1.944-4.14 4.842 0 2.898 1.476 4.824 4.14 4.824 2.682 0 4.14-1.944 4.14-4.824zm-7.362 0c0-2.52 1.08-4.122 3.222-4.14 2.142 0 3.222 1.638 3.222 4.14 0 2.52-1.062 4.122-3.222 4.122-2.142 0-3.222-1.602-3.222-4.122zM374.233 26a.155.155 0 00.144-.144l-.018-3.834v-2.016c.612-1.692 1.548-2.736 2.934-2.736 1.404 0 2.34.846 2.34 3.078v1.674l-.036 3.834c0 .072.072.144.144.144h.63a.155.155 0 00.144-.144l-.018-3.834v-1.764c0-2.538-1.152-3.744-3.024-3.744-1.602 0-2.628 1.08-3.15 2.124l.036-1.764a.155.155 0 00-.144-.144h-.612a.155.155 0 00-.144.144l.036 5.058-.036 3.924c0 .072.072.144.144.144h.63zm9.386 0a.155.155 0 00.144-.144l-.018-3.834v-2.016c.612-1.692 1.548-2.736 2.934-2.736 1.404 0 2.34.846 2.34 3.078v1.674l-.036 3.834c0 .072.072.144.144.144h.63a.155.155 0 00.144-.144l-.018-3.834v-1.764c0-2.538-1.152-3.744-3.024-3.744-1.602 0-2.628 1.08-3.15 2.124l.036-1.764a.155.155 0 00-.144-.144h-.612a.155.155 0 00-.144.144l.036 5.058-.036 3.924c0 .072.072.144.144.144h.63zm15.524-3.276c-.072 0-.162.054-.162.144-.306 1.638-1.26 2.628-2.934 2.628-2.196 0-3.294-1.53-3.294-4.14l7.002-.018a.155.155 0 00.144-.144c-.054-2.952-1.53-4.662-3.978-4.662-2.502 0-4.068 2.016-4.068 4.86 0 2.844 1.44 4.806 4.176 4.806 2.214 0 3.474-1.296 3.816-3.33 0-.072-.054-.144-.126-.144h-.576zm-.198-2.106h-6.156c.216-2.07 1.296-3.384 3.132-3.384 1.962 0 3.006 1.512 3.024 3.384zm10.53 2.106c.018-.072-.054-.144-.126-.144h-.558c-.072 0-.144.072-.162.144-.144 1.746-1.278 2.772-3.006 2.772-2.16-.018-3.15-1.584-3.15-4.104s1.008-4.14 3.15-4.14c1.584 0 2.664.846 2.916 2.484.018.09.09.144.162.144h.54c.072 0 .144-.072.126-.144-.198-1.926-1.512-3.204-3.744-3.204-2.664 0-4.068 1.962-4.068 4.86 0 2.898 1.404 4.806 4.05 4.806 2.376 0 3.708-1.458 3.87-3.474zm5.697 2.664c0-.072-.072-.126-.144-.108-.252.054-.594.09-.918.09-.9 0-1.278-.414-1.278-1.8v-6.102h2.196a.155.155 0 00.144-.144v-.45a.155.155 0 00-.144-.144h-2.196l.018-2.178a.155.155 0 00-.144-.144h-.63a.155.155 0 00-.144.144l.036 2.178h-1.062a.155.155 0 00-.144.144v.45c0 .072.072.144.144.144h1.062l-.018 6.102c0 1.962.9 2.574 2.106 2.574.324 0 .702-.072.972-.144a.175.175 0 00.144-.18v-.432zm2.688-9.864a.155.155 0 00.144-.144v-.972a.155.155 0 00-.144-.144h-.63a.155.155 0 00-.144.144v.972c0 .072.072.144.144.144h.63zm0 10.476a.155.155 0 00.144-.144l-.018-4.77.018-4.212a.155.155 0 00-.144-.144h-.63a.155.155 0 00-.144.144l.036 4.23-.036 4.752c0 .072.072.144.144.144h.63zm9.887-9.126c.036-.072-.018-.144-.09-.144h-.612c-.09 0-.162.054-.198.144l-3.024 8.37-3.06-8.37c-.036-.09-.108-.144-.198-.144h-.702c-.072 0-.126.072-.09.126l3.438 9.036a.221.221 0 00.198.126h.81c.09 0 .162-.054.198-.144l3.33-9zm2.521-1.35a.155.155 0 00.144-.144v-.972a.155.155 0 00-.144-.144h-.63a.155.155 0 00-.144.144v.972c0 .072.072.144.144.144h.63zm0 10.476a.155.155 0 00.144-.144l-.018-4.77.018-4.212a.155.155 0 00-.144-.144h-.63a.155.155 0 00-.144.144l.036 4.23-.036 4.752c0 .072.072.144.144.144h.63zm6.558-.612c0-.072-.072-.126-.144-.108-.252.054-.594.09-.918.09-.9 0-1.278-.414-1.278-1.8v-6.102h2.196a.155.155 0 00.144-.144v-.45a.155.155 0 00-.144-.144h-2.196l.018-2.178a.155.155 0 00-.144-.144h-.63a.155.155 0 00-.144.144l.036 2.178h-1.062a.155.155 0 00-.144.144v.45c0 .072.072.144.144.144h1.062l-.018 6.102c0 1.962.9 2.574 2.106 2.574.324 0 .702-.072.972-.144a.175.175 0 00.144-.18v-.432zm8.91-8.514c.036-.072-.018-.144-.09-.144h-.666c-.09 0-.162.054-.198.144l-2.61 7.866-3.042-7.884a.221.221 0 00-.198-.126h-.72c-.072 0-.126.072-.09.126l3.6 9.108-1.044 2.952c-.036.072.018.144.09.144h.558c.09 0 .162-.054.198-.144l4.212-12.042zm-105.637 22.5c0-2.898-1.458-4.842-4.14-4.842-2.664 0-4.14 1.944-4.14 4.842 0 2.898 1.476 4.824 4.14 4.824 2.682 0 4.14-1.944 4.14-4.824zm-7.362 0c0-2.52 1.08-4.122 3.222-4.14 2.142 0 3.222 1.638 3.222 4.14 0 2.52-1.062 4.122-3.222 4.122-2.142 0-3.222-1.602-3.222-4.122zm10.201-.108c.018-2.664 1.206-4.032 2.988-4.032 2.07 0 2.988 1.872 2.988 4.212 0 2.232-.936 4.032-3.006 4.032-1.89 0-2.988-1.566-2.97-4.212zm6.876.072c0-2.7-1.296-4.806-3.708-4.806-1.458 0-2.538.792-3.132 2.07l.036-1.728a.155.155 0 00-.144-.144h-.612a.155.155 0 00-.144.144l.054 4.86-.054 7.182c0 .072.072.144.144.144h.648a.155.155 0 00.144-.144l-.054-4.698c.594 1.278 1.656 1.962 3.096 1.962 2.394 0 3.726-2.178 3.726-4.842zm5.729 4.05c0-.072-.072-.126-.144-.108-.252.054-.594.09-.918.09-.9 0-1.278-.414-1.278-1.8v-6.102h2.196a.155.155 0 00.144-.144v-.45a.155.155 0 00-.144-.144h-2.196l.018-2.178a.155.155 0 00-.144-.144h-.63a.155.155 0 00-.144.144l.036 2.178h-1.062a.155.155 0 00-.144.144v.45c0 .072.072.144.144.144h1.062l-.018 6.102c0 1.962.9 2.574 2.106 2.574.324 0 .702-.072.972-.144a.175.175 0 00.144-.18v-.432zm2.687-9.864a.155.155 0 00.144-.144v-.972a.155.155 0 00-.144-.144h-.63a.155.155 0 00-.144.144v.972c0 .072.072.144.144.144h.63zm0 10.476a.155.155 0 00.144-.144l-.018-4.77.018-4.212a.155.155 0 00-.144-.144h-.63a.155.155 0 00-.144.144l.036 4.23-.036 4.752c0 .072.072.144.144.144h.63zm10.553-4.626c0-2.898-1.458-4.842-4.14-4.842-2.664 0-4.14 1.944-4.14 4.842 0 2.898 1.476 4.824 4.14 4.824 2.682 0 4.14-1.944 4.14-4.824zm-7.362 0c0-2.52 1.08-4.122 3.222-4.14 2.142 0 3.222 1.638 3.222 4.14 0 2.52-1.062 4.122-3.222 4.122-2.142 0-3.222-1.602-3.222-4.122zM371.586 44a.155.155 0 00.144-.144l-.018-3.834v-2.016c.612-1.692 1.548-2.736 2.934-2.736 1.404 0 2.34.846 2.34 3.078v1.674l-.036 3.834c0 .072.072.144.144.144h.63a.155.155 0 00.144-.144l-.018-3.834v-1.764c0-2.538-1.152-3.744-3.024-3.744-1.602 0-2.628 1.08-3.15 2.124l.036-1.764a.155.155 0 00-.144-.144h-.612a.155.155 0 00-.144.144l.036 5.058-.036 3.924c0 .072.072.144.144.144h.63zm15.65-2.538c0-3.852-6.39-1.674-6.39-4.41 0-1.224.99-1.836 2.52-1.836 1.494 0 2.682.612 2.772 2.106 0 .072.072.144.144.144h.54a.155.155 0 00.144-.144c-.09-1.926-1.638-2.772-3.582-2.772-1.98 0-3.402.864-3.402 2.538 0 3.6 6.39 1.422 6.39 4.428 0 1.278-1.134 1.998-2.718 1.998-1.908 0-2.952-.846-3.006-2.664a.155.155 0 00-.144-.144h-.576a.155.155 0 00-.144.144c.054 2.268 1.53 3.33 3.852 3.33 2.016 0 3.6-1.008 3.6-2.718zM140.016 26a.155.155 0 00.144-.144l-.054-5.688h5.724a.155.155 0 00.144-.144v-.486a.155.155 0 00-.144-.144h-5.724l.054-5.22h6.012a.155.155 0 00.144-.144v-.486a.155.155 0 00-.144-.144h-6.84a.155.155 0 00-.144.144l.054 6.174-.054 6.138c0 .072.072.144.144.144h.684zm8.587-4.716c0-2.25.936-4.032 3.024-4.032 1.872 0 2.97 1.566 2.952 4.212-.018 2.646-1.188 3.996-2.988 3.996-2.07 0-2.988-1.854-2.988-4.176zm6.66 4.716a.155.155 0 00.144-.144l-.054-4.662.054-4.32a.155.155 0 00-.144-.144h-.612a.155.155 0 00-.144.144l.036 1.674c-.594-1.296-1.656-1.998-3.114-1.998-2.394 0-3.708 2.16-3.708 4.824 0 2.7 1.278 4.788 3.708 4.788 1.476 0 2.538-.774 3.114-2.052l-.036 1.746c0 .072.072.144.144.144h.612zm9.576-2.538c0-3.852-6.39-1.674-6.39-4.41 0-1.224.99-1.836 2.52-1.836 1.494 0 2.682.612 2.772 2.106 0 .072.072.144.144.144h.54a.155.155 0 00.144-.144c-.09-1.926-1.638-2.772-3.582-2.772-1.98 0-3.402.864-3.402 2.538 0 3.6 6.39 1.422 6.39 4.428 0 1.278-1.134 1.998-2.718 1.998-1.908 0-2.952-.846-3.006-2.664a.155.155 0 00-.144-.144h-.576a.155.155 0 00-.144.144c.054 2.268 1.53 3.33 3.852 3.33 2.016 0 3.6-1.008 3.6-2.718zm5.674 1.926c0-.072-.072-.126-.144-.108-.252.054-.594.09-.918.09-.9 0-1.278-.414-1.278-1.8v-6.102h2.196a.155.155 0 00.144-.144v-.45a.155.155 0 00-.144-.144h-2.196l.018-2.178a.155.155 0 00-.144-.144h-.63a.155.155 0 00-.144.144l.036 2.178h-1.062a.155.155 0 00-.144.144v.45c0 .072.072.144.144.144h1.062l-.018 6.102c0 1.962.9 2.574 2.106 2.574.324 0 .702-.072.972-.144a.175.175 0 00.144-.18v-.432zm9.547-11.556c1.242 0 2.034.738 2.034 1.836 0 1.314-1.296 2.034-2.718 2.808-.972-1.134-1.332-1.782-1.332-2.664 0-1.35.756-1.98 2.016-1.98zm-3.51 8.874c0-1.566 1.206-2.448 2.574-3.24.342.378.72.792 1.152 1.242l2.826 3.042c-.81 1.08-1.944 1.71-3.312 1.71-1.962 0-3.24-1.08-3.24-2.754zM186.18 26c.054 0 .09-.072.054-.108l-2.124-2.268c.666-1.098 1.062-2.502 1.098-4.086a.155.155 0 00-.144-.144h-.522a.155.155 0 00-.144.144c-.054 1.35-.36 2.538-.846 3.492l-2.16-2.322c-.594-.648-1.098-1.188-1.512-1.656 1.548-.846 3.042-1.692 3.042-3.348 0-1.548-1.242-2.556-2.88-2.556-1.962 0-2.88 1.26-2.88 2.628 0 1.116.504 2.016 1.44 3.114-1.512.846-2.952 1.872-2.952 3.816 0 2.322 1.998 3.492 4.068 3.492 1.584 0 2.934-.702 3.906-1.89l1.476 1.584a.29.29 0 00.234.108h.846zm12.388-2.538c0-3.852-6.39-1.674-6.39-4.41 0-1.224.99-1.836 2.52-1.836 1.494 0 2.682.612 2.772 2.106 0 .072.072.144.144.144h.54a.155.155 0 00.144-.144c-.09-1.926-1.638-2.772-3.582-2.772-1.98 0-3.402.864-3.402 2.538 0 3.6 6.39 1.422 6.39 4.428 0 1.278-1.134 1.998-2.718 1.998-1.908 0-2.952-.846-3.006-2.664a.155.155 0 00-.144-.144h-.576a.155.155 0 00-.144.144c.054 2.268 1.53 3.33 3.852 3.33 2.016 0 3.6-1.008 3.6-2.718zm8.891-.738c-.072 0-.162.054-.162.144-.306 1.638-1.26 2.628-2.934 2.628-2.196 0-3.294-1.53-3.294-4.14l7.002-.018a.155.155 0 00.144-.144c-.054-2.952-1.53-4.662-3.978-4.662-2.502 0-4.068 2.016-4.068 4.86 0 2.844 1.44 4.806 4.176 4.806 2.214 0 3.474-1.296 3.816-3.33 0-.072-.054-.144-.126-.144h-.576zm-.198-2.106h-6.156c.216-2.07 1.296-3.384 3.132-3.384 1.962 0 3.006 1.512 3.024 3.384zm10.53 2.106c.018-.072-.054-.144-.126-.144h-.558c-.072 0-.144.072-.162.144-.144 1.746-1.278 2.772-3.006 2.772-2.16-.018-3.15-1.584-3.15-4.104s1.008-4.14 3.15-4.14c1.584 0 2.664.846 2.916 2.484.018.09.09.144.162.144h.54c.072 0 .144-.072.126-.144-.198-1.926-1.512-3.204-3.744-3.204-2.664 0-4.068 1.962-4.068 4.86 0 2.898 1.404 4.806 4.05 4.806 2.376 0 3.708-1.458 3.87-3.474zm8.016 1.368l-.036 1.764c0 .072.072.144.144.144h.612a.155.155 0 00.144-.144l-.036-5.058.036-3.924a.155.155 0 00-.144-.144h-.63a.155.155 0 00-.144.144l.018 3.834v2.016c-.612 1.692-1.548 2.736-2.934 2.736-1.404 0-2.34-.846-2.34-3.078v-1.674l.036-3.834a.155.155 0 00-.144-.144h-.63a.155.155 0 00-.144.144l.018 3.834v1.764c0 2.538 1.152 3.744 3.024 3.744 1.602 0 2.628-1.08 3.15-2.124zM229.848 26a.155.155 0 00.144-.144l-.036-5.616c.342-1.98 1.656-2.844 2.988-2.844.27 0 .486.018.666.072.072.018.144-.036.144-.108v-.486a.194.194 0 00-.144-.18 2.246 2.246 0 00-.63-.072c-1.26 0-2.43.702-3.042 1.962l.054-1.71a.155.155 0 00-.144-.144h-.63a.155.155 0 00-.144.144l.054 4.338-.054 4.644c0 .072.072.144.144.144h.63zm11.639-3.276c-.072 0-.162.054-.162.144-.306 1.638-1.26 2.628-2.934 2.628-2.196 0-3.294-1.53-3.294-4.14l7.002-.018a.155.155 0 00.144-.144c-.054-2.952-1.53-4.662-3.978-4.662-2.502 0-4.068 2.016-4.068 4.86 0 2.844 1.44 4.806 4.176 4.806 2.214 0 3.474-1.296 3.816-3.33 0-.072-.054-.144-.126-.144h-.576zm-.198-2.106h-6.156c.216-2.07 1.296-3.384 3.132-3.384 1.962 0 3.006 1.512 3.024 3.384zm-86.95 18.648c.018-2.664 1.206-4.032 2.988-4.032 2.07 0 2.988 1.872 2.988 4.212 0 2.232-.936 4.032-3.006 4.032-1.89 0-2.988-1.566-2.97-4.212zm6.876.072c0-2.7-1.296-4.806-3.708-4.806-1.458 0-2.538.792-3.132 2.07l.036-1.728a.155.155 0 00-.144-.144h-.612a.155.155 0 00-.144.144l.054 4.86-.054 7.182c0 .072.072.144.144.144h.648a.155.155 0 00.144-.144l-.054-4.698c.594 1.278 1.656 1.962 3.096 1.962 2.394 0 3.726-2.178 3.726-4.842zm2.538-.054c0-2.25.936-4.032 3.024-4.032 1.872 0 2.97 1.566 2.952 4.212-.018 2.646-1.188 3.996-2.988 3.996-2.07 0-2.988-1.854-2.988-4.176zm6.66 4.716a.155.155 0 00.144-.144l-.054-4.662.054-4.32a.155.155 0 00-.144-.144h-.612a.155.155 0 00-.144.144l.036 1.674c-.594-1.296-1.656-1.998-3.114-1.998-2.394 0-3.708 2.16-3.708 4.824 0 2.7 1.278 4.788 3.708 4.788 1.476 0 2.538-.774 3.114-2.052l-.036 1.746c0 .072.072.144.144.144h.612zm9.415-9.126c.036-.072-.018-.144-.09-.144h-.666c-.09 0-.162.054-.198.144l-2.61 7.866-3.042-7.884a.221.221 0 00-.198-.126h-.72c-.072 0-.126.072-.09.126l3.6 9.108-1.044 2.952c-.036.072.018.144.09.144h.558c.09 0 .162-.054.198-.144l4.212-12.042zm2.548 3.132c.612-1.674 1.476-2.736 2.772-2.736 1.332 0 2.196.828 2.196 3.078v1.782l-.036 3.726c0 .072.072.144.144.144h.63a.155.155 0 00.144-.144l-.018-3.726v-1.872c0-.216 0-.414-.018-.612.594-1.458 1.422-2.376 2.628-2.376 1.332 0 2.196.828 2.196 3.078v1.782l-.036 3.726c0 .072.072.144.144.144h.63a.155.155 0 00.144-.144l-.018-3.726v-1.872c0-2.574-1.08-3.744-2.862-3.744-1.458 0-2.43.99-2.988 2.124-.378-1.458-1.332-2.124-2.682-2.124-1.512 0-2.466 1.062-2.988 2.124l.036-1.764a.155.155 0 00-.144-.144h-.612a.155.155 0 00-.144.144l.036 5.256-.054 3.726c0 .072.072.144.144.144h.648a.155.155 0 00.144-.144l-.036-3.726v-2.124zm20.76 2.718c-.072 0-.162.054-.162.144-.306 1.638-1.26 2.628-2.934 2.628-2.196 0-3.294-1.53-3.294-4.14l7.002-.018a.155.155 0 00.144-.144c-.054-2.952-1.53-4.662-3.978-4.662-2.502 0-4.068 2.016-4.068 4.86 0 2.844 1.44 4.806 4.176 4.806 2.214 0 3.474-1.296 3.816-3.33 0-.072-.054-.144-.126-.144h-.576zm-.198-2.106h-6.156c.216-2.07 1.296-3.384 3.132-3.384 1.962 0 3.006 1.512 3.024 3.384zM206.7 44a.155.155 0 00.144-.144l-.018-3.834v-2.016c.612-1.692 1.548-2.736 2.934-2.736 1.404 0 2.34.846 2.34 3.078v1.674l-.036 3.834c0 .072.072.144.144.144h.63a.155.155 0 00.144-.144l-.018-3.834v-1.764c0-2.538-1.152-3.744-3.024-3.744-1.602 0-2.628 1.08-3.15 2.124l.036-1.764a.155.155 0 00-.144-.144h-.612a.155.155 0 00-.144.144l.036 5.058-.036 3.924c0 .072.072.144.144.144h.63zm12.483-.612c0-.072-.072-.126-.144-.108-.252.054-.594.09-.918.09-.9 0-1.278-.414-1.278-1.8v-6.102h2.196a.155.155 0 00.144-.144v-.45a.155.155 0 00-.144-.144h-2.196l.018-2.178a.155.155 0 00-.144-.144h-.63a.155.155 0 00-.144.144l.036 2.178h-1.062a.155.155 0 00-.144.144v.45c0 .072.072.144.144.144h1.062l-.018 6.102c0 1.962.9 2.574 2.106 2.574.324 0 .702-.072.972-.144a.175.175 0 00.144-.18v-.432zm8.721-1.926c0-3.852-6.39-1.674-6.39-4.41 0-1.224.99-1.836 2.52-1.836 1.494 0 2.682.612 2.772 2.106 0 .072.072.144.144.144h.54a.155.155 0 00.144-.144c-.09-1.926-1.638-2.772-3.582-2.772-1.98 0-3.402.864-3.402 2.538 0 3.6 6.39 1.422 6.39 4.428 0 1.278-1.134 1.998-2.718 1.998-1.908 0-2.952-.846-3.006-2.664a.155.155 0 00-.144-.144h-.576a.155.155 0 00-.144.144c.054 2.268 1.53 3.33 3.852 3.33 2.016 0 3.6-1.008 3.6-2.718z" fill="#fff"/></svg>