<svg width="174" height="31" viewBox="0 0 174 31" fill="none" xmlns="http://www.w3.org/2000/svg"><path d="M5.13 12.084c1.548 0 2.552-.697 3.026-1.394L8.294 12h1.24V6.66H5.299v1.353h2.704v.237C7.92 9.825 6.706 10.676 5.2 10.676c-1.868 0-3.04-1.464-3.04-3.555 0-2.092 1.2-3.555 3.054-3.555 1.352 0 2.286.752 2.579 1.993h1.659c-.293-2.063-1.938-3.401-4.196-3.401-2.9 0-4.74 1.993-4.74 4.963 0 2.97 1.882 4.963 4.614 4.963zm9.425 0c1.77 0 2.97-1.074 3.22-2.482H16.27c-.21.795-.878 1.255-1.799 1.255-1.184 0-1.951-.795-1.993-2.008v-.097h5.381c.028-.195.042-.39.042-.572-.042-2.091-1.422-3.401-3.485-3.401-2.105 0-3.514 1.463-3.514 3.666 0 2.189 1.409 3.639 3.653 3.639zM12.534 7.65c.111-1.017.934-1.659 1.896-1.659 1.045 0 1.784.6 1.91 1.66h-3.806zm7.045 2.412c0 1.297.586 1.938 1.952 1.938h1.394v-1.324h-1.06c-.57 0-.766-.21-.766-.767V6.187h1.743V4.862h-1.743V2.87h-1.52v1.993h-1.24v1.325h1.24v3.875zm11.147 2.022c1.827 0 3.04-1.018 3.318-2.635h-1.59c-.18.822-.794 1.352-1.714 1.352-1.213 0-2.007-.962-2.007-2.356 0-1.408.794-2.384 2.007-2.384.934 0 1.534.516 1.729 1.352h1.575c-.292-1.617-1.436-2.634-3.276-2.634-2.16 0-3.583 1.463-3.583 3.666 0 2.23 1.38 3.639 3.541 3.639zm4.47-.084h1.506V2.241h-1.505V12zm9.507-1.31c-.307 0-.46-.098-.46-.46V7.371c0-1.687-1.088-2.593-2.984-2.593-1.798 0-2.997.864-3.15 2.258h1.477c.112-.627.711-1.046 1.603-1.046.99 0 1.562.488 1.562 1.283v.432h-1.799c-1.993 0-3.053.823-3.053 2.286 0 1.325 1.088 2.092 2.65 2.092 1.156 0 1.881-.502 2.355-1.227 0 .71.335 1.143 1.31 1.143h.795v-1.31h-.306zM42.75 9.072c-.014 1.102-.739 1.84-1.994 1.84-.822 0-1.324-.418-1.324-1.017 0-.725.516-1.074 1.45-1.074h1.868v.251zm6.69-4.21c-1.172 0-1.744.474-2.106 1.074l-.167-1.074h-1.339V12h1.506V8.417c0-1.101.432-2.147 1.77-2.147h.67V4.862h-.335zm2.03-1.004c.515 0 .92-.376.92-.906s-.405-.906-.92-.906c-.517 0-.921.377-.921.906 0 .53.404.906.92.906zM50.702 12h1.506V4.862h-1.506V12zm3.498-1.938c0 1.297.585 1.938 1.951 1.938h1.395v-1.324h-1.06c-.572 0-.767-.21-.767-.767V6.187h1.743V4.862H55.72V2.87H54.2v1.993h-1.24v1.325h1.24v3.875zm6.367 1.98l-.28.697c-.222.585-.362.725-.947.725h-1.06v1.324h1.617c1.046 0 1.353-.516 1.799-1.673l3.234-8.253h-1.603l-1.938 5.423-1.993-5.423h-1.604l2.775 7.18zM70.905 12h1.63l1.562-4.851L75.603 12h1.617l2.37-7.138h-1.534l-1.686 5.465-1.562-5.465h-1.38l-1.631 5.465-1.631-5.465h-1.59L70.905 12zm13.228-7.221c-1.116 0-1.799.501-2.245 1.115V2.24h-1.506V12h1.506V8.39c0-1.437.725-2.315 1.91-2.315 1.115 0 1.715.725 1.715 2.077V12h1.505V8.027c0-2.384-1.296-3.248-2.885-3.248zm7.588 7.305c1.77 0 2.97-1.074 3.22-2.482h-1.505c-.21.795-.879 1.255-1.799 1.255-1.185 0-1.951-.795-1.993-2.008v-.097h5.38c.029-.195.043-.39.043-.572-.042-2.091-1.422-3.401-3.485-3.401-2.106 0-3.514 1.463-3.514 3.666 0 2.189 1.408 3.639 3.653 3.639zM89.699 7.65c.112-1.017.934-1.659 1.896-1.659 1.046 0 1.785.6 1.91 1.66H89.7zm10.349-2.871c-1.157 0-1.84.46-2.286 1.017l-.168-.934h-1.31V12h1.506V8.403c0-1.45.71-2.328 1.91-2.328 1.129 0 1.7.725 1.7 2.077V12h1.52V8.027c0-2.384-1.297-3.248-2.872-3.248z" fill="#000"/><path d="M1.345 24.923c0 1.39.627 2.077 2.091 2.077h1.495v-1.42H3.795c-.613 0-.822-.223-.822-.821v-3.99h1.868V19.35H2.973v-2.136H1.345v2.136H.015v1.42h1.33v4.153zm8.482-5.573c-1.255 0-1.868.508-2.256 1.15l-.18-1.15H5.957V27h1.614v-3.84c0-1.18.463-2.3 1.897-2.3h.717v-1.51h-.358zm8.112 6.245c-.328 0-.492-.104-.492-.492V22.04c0-1.808-1.166-2.78-3.198-2.78-1.927 0-3.212.927-3.377 2.421h1.584c.12-.672.762-1.12 1.718-1.12 1.061 0 1.674.522 1.674 1.374v.463H13.92c-2.136 0-3.272.882-3.272 2.45 0 1.42 1.166 2.242 2.84 2.242 1.24 0 2.016-.538 2.524-1.315 0 .762.359 1.225 1.405 1.225h.851v-1.404h-.329zm-2.091-1.733c-.015 1.18-.792 1.973-2.137 1.973-.881 0-1.42-.449-1.42-1.091 0-.777.554-1.15 1.555-1.15h2.002v.268zm9.053-3.451c-.493-.672-1.315-1.15-2.48-1.15-2.077 0-3.616 1.553-3.616 3.914 0 2.45 1.539 3.915 3.616 3.915 1.21 0 2.002-.568 2.495-1.24L25.11 27h1.405V16.541H24.9v3.87zM22.69 25.73c-1.345 0-2.227-1.046-2.227-2.555 0-1.494.882-2.54 2.227-2.54 1.344 0 2.226 1.046 2.226 2.57 0 1.48-.882 2.525-2.226 2.525zm6.223-7.456c.553 0 .986-.403.986-.97 0-.569-.433-.972-.986-.972-.553 0-.986.403-.986.971s.433.971.986.971zM28.091 27h1.614v-7.65h-1.614V27zm7.23-7.74c-1.24 0-1.972.494-2.45 1.091l-.18-1h-1.404V27H32.9v-3.855c0-1.554.762-2.495 2.047-2.495 1.21 0 1.823.777 1.823 2.226V27H38.4v-4.258c0-2.555-1.39-3.482-3.078-3.482zm10.387 1.285c-.493-.762-1.315-1.285-2.51-1.285-2.077 0-3.616 1.54-3.616 3.885 0 2.436 1.54 3.885 3.616 3.885 1.195 0 1.987-.493 2.495-1.255v.852c0 1.464-.792 2.136-2.196 2.136-1.136 0-1.883-.493-2.077-1.345h-1.644c.15 1.719 1.57 2.66 3.601 2.66 2.75 0 3.915-1.315 3.915-3.392V19.35h-1.405l-.179 1.195zm-2.241 5.125c-1.345 0-2.226-1.03-2.226-2.525 0-1.479.881-2.525 2.226-2.525s2.226 1.046 2.226 2.555c0 1.464-.881 2.495-2.226 2.495zm8.732-7.605h3.227V27h1.718v-8.935h3.227v-1.524H52.2v1.524zm11.55 9.025c1.898 0 3.182-1.15 3.451-2.66h-1.613c-.224.852-.942 1.345-1.928 1.345-1.27 0-2.091-.852-2.136-2.152v-.104h5.767c.03-.21.045-.419.045-.613-.045-2.241-1.524-3.645-3.735-3.645-2.257 0-3.766 1.568-3.766 3.929 0 2.346 1.51 3.9 3.915 3.9zm-2.166-4.752c.119-1.09 1-1.778 2.032-1.778 1.12 0 1.912.643 2.046 1.778h-4.078zm6.684 2.137c.045 1.658 1.45 2.615 3.496 2.615 1.853 0 3.242-.927 3.242-2.39 0-1.704-1.42-2.063-3.167-2.272-1.106-.12-1.838-.21-1.838-.926 0-.613.627-1.001 1.584-1.001.956 0 1.613.493 1.703 1.195h1.584c-.105-1.569-1.435-2.436-3.317-2.436-1.838-.014-3.138.927-3.138 2.376 0 1.584 1.375 1.957 3.123 2.167 1.18.149 1.882.209 1.882 1.03 0 .613-.657 1.002-1.658 1.002-1.165 0-1.853-.568-1.912-1.36h-1.584zM76.256 27h1.613V16.541h-1.613V27zm10.188-1.404c-.33 0-.493-.105-.493-.494V22.04c0-1.808-1.166-2.78-3.198-2.78-1.927 0-3.212.927-3.377 2.421h1.584c.12-.672.762-1.12 1.718-1.12 1.061 0 1.674.522 1.674 1.374v.463h-1.928c-2.136 0-3.272.882-3.272 2.45 0 1.42 1.166 2.242 2.84 2.242 1.24 0 2.016-.538 2.524-1.315 0 .762.359 1.225 1.405 1.225h.851v-1.404h-.328zm-2.092-1.734c-.015 1.18-.792 1.973-2.137 1.973-.881 0-1.42-.449-1.42-1.091 0-.777.554-1.15 1.555-1.15h2.002v.268zm6.793.613c.045 1.658 1.45 2.615 3.496 2.615 1.853 0 3.243-.927 3.243-2.39 0-1.704-1.42-2.063-3.168-2.272-1.105-.12-1.837-.21-1.837-.926 0-.613.627-1.001 1.583-1.001s1.614.493 1.703 1.195h1.584c-.104-1.569-1.434-2.436-3.317-2.436-1.837-.014-3.137.927-3.137 2.376 0 1.584 1.374 1.957 3.122 2.167 1.18.149 1.883.209 1.883 1.03 0 .613-.657 1.002-1.659 1.002-1.165 0-1.852-.568-1.912-1.36h-1.584zm12.008-5.215c-1.195 0-1.927.538-2.405 1.196V16.54h-1.614V27h1.614v-3.87c0-1.539.777-2.48 2.047-2.48 1.195 0 1.838.777 1.838 2.226V27h1.613v-4.258c0-2.555-1.389-3.482-3.093-3.482zm11.553 6.335c-.329 0-.493-.104-.493-.492V22.04c0-1.808-1.165-2.78-3.197-2.78-1.928 0-3.213.927-3.377 2.421h1.584c.119-.672.762-1.12 1.718-1.12 1.061 0 1.673.522 1.673 1.374v.463h-1.927c-2.137 0-3.272.882-3.272 2.45 0 1.42 1.165 2.242 2.839 2.242 1.24 0 2.017-.538 2.525-1.315 0 .762.358 1.225 1.404 1.225h.852v-1.404h-.329zm-2.092-1.733c-.015 1.18-.792 1.973-2.136 1.973-.882 0-1.42-.449-1.42-1.091 0-.777.553-1.15 1.554-1.15h2.002v.268zm7.169-4.512c-1.255 0-1.867.508-2.256 1.15l-.179-1.15h-1.434V27h1.613v-3.84c0-1.18.463-2.3 1.898-2.3h.717v-1.51h-.359zm4.62 7.74c1.898 0 3.183-1.15 3.451-2.66h-1.613c-.224.852-.941 1.345-1.928 1.345-1.27 0-2.091-.852-2.136-2.152v-.104h5.767c.03-.21.045-.419.045-.613-.045-2.241-1.524-3.645-3.735-3.645-2.256 0-3.765 1.568-3.765 3.929 0 2.346 1.509 3.9 3.914 3.9zm-2.166-4.752c.119-1.09 1.001-1.778 2.032-1.778 1.12 0 1.912.643 2.047 1.778h-4.079zm15.586 4.752c2.435 0 4.213-1.435 4.542-3.646h-1.778c-.329 1.33-1.33 2.137-2.779 2.137-1.972 0-3.168-1.584-3.168-3.81 0-2.242 1.225-3.81 3.213-3.81 1.419 0 2.405.821 2.749 2.136h1.778c-.344-2.211-2.062-3.645-4.453-3.645-3.092 0-5.05 2.136-5.05 5.319 0 3.212 1.898 5.319 4.946 5.319zm5.963-.09h1.718v-4.422h4.094v-1.48h-4.094v-3.033h4.961v-1.524h-6.679V27zm11.552 0c3.272 0 5.334-2.137 5.334-5.244 0-3.108-2.062-5.215-5.334-5.215h-3.556V27h3.556zm-1.838-8.965h1.838c2.301 0 3.571 1.48 3.571 3.72 0 2.242-1.27 3.75-3.571 3.75H153.5v-7.47zm8.192 6.44c.045 1.658 1.449 2.615 3.496 2.615 1.853 0 3.242-.927 3.242-2.39 0-1.704-1.419-2.063-3.167-2.272-1.106-.12-1.838-.21-1.838-.926 0-.613.628-1.001 1.584-1.001.956 0 1.614.493 1.703 1.195h1.584c-.105-1.569-1.434-2.436-3.317-2.436-1.838-.014-3.138.927-3.138 2.376 0 1.584 1.375 1.957 3.123 2.167 1.18.149 1.883.209 1.883 1.03 0 .613-.658 1.002-1.659 1.002-1.165 0-1.852-.568-1.912-1.36h-1.584z" fill="url(#paint0_linear_76_21843)"/><defs><linearGradient id="paint0_linear_76_21843" x1="174" y1="5.5" x2="0" y2="5.5" gradientUnits="userSpaceOnUse"><stop stop-color="#FF4343"/><stop offset=".5" stop-color="#9C0B93"/><stop offset="1" stop-color="#4C1BB7"/></linearGradient></defs></svg>