<svg width="166" height="29" viewBox="0 0 166 29" fill="none" xmlns="http://www.w3.org/2000/svg"><path d="M5.498 13.473c1.659 0 2.735-.747 3.243-1.494l.149 1.405h1.33V7.66H5.678v1.45h2.898v.253c-.09 1.689-1.39 2.6-3.003 2.6-2.002 0-3.257-1.569-3.257-3.81 0-2.24 1.285-3.81 3.272-3.81 1.45 0 2.45.807 2.764 2.137h1.778C9.816 4.27 8.053 2.835 5.633 2.835c-3.108 0-5.08 2.137-5.08 5.32 0 3.182 2.017 5.318 4.945 5.318zm10.101 0c1.898 0 3.183-1.15 3.451-2.66h-1.613c-.224.852-.941 1.345-1.928 1.345-1.27 0-2.091-.851-2.136-2.151v-.105h5.767c.03-.209.045-.418.045-.612-.045-2.241-1.524-3.646-3.735-3.646-2.256 0-3.765 1.569-3.765 3.93 0 2.345 1.509 3.9 3.914 3.9zm-2.166-4.751c.12-1.09 1-1.778 2.032-1.778 1.12 0 1.912.643 2.047 1.778h-4.08zm7.551 2.585c0 1.39.627 2.077 2.092 2.077h1.494v-1.42h-1.136c-.612 0-.821-.224-.821-.822V7.154h1.867v-1.42h-1.867V3.598h-1.629v2.137h-1.33v1.42h1.33v4.153zm11.946 2.166c1.958 0 3.257-1.09 3.556-2.824h-1.703c-.194.882-.852 1.45-1.838 1.45-1.3 0-2.151-1.031-2.151-2.525 0-1.51.851-2.555 2.151-2.555 1.001 0 1.644.553 1.853 1.449h1.688c-.313-1.733-1.539-2.824-3.51-2.824-2.317 0-3.84 1.569-3.84 3.93 0 2.39 1.478 3.9 3.794 3.9zm4.791-.09h1.614V2.926H37.72v10.459zM47.91 11.98c-.329 0-.493-.104-.493-.493V8.423c0-1.808-1.165-2.779-3.197-2.779-1.928 0-3.213.927-3.377 2.42h1.584c.12-.672.762-1.12 1.718-1.12 1.06 0 1.673.523 1.673 1.375v.463H43.89c-2.137 0-3.272.881-3.272 2.45 0 1.42 1.165 2.241 2.839 2.241 1.24 0 2.017-.538 2.525-1.315 0 .763.358 1.226 1.404 1.226h.852v-1.405h-.329zm-2.092-1.733c-.015 1.18-.791 1.972-2.136 1.972-.882 0-1.42-.448-1.42-1.09 0-.777.553-1.15 1.554-1.15h2.002v.268zm7.17-4.512c-1.256 0-1.868.508-2.257 1.15l-.179-1.15h-1.434v7.65h1.613v-3.84c0-1.18.464-2.301 1.898-2.301h.717v-1.51h-.358zm2.175-1.076c.553 0 .986-.403.986-.971s-.433-.971-.986-.971c-.553 0-.986.403-.986.97 0 .569.433.972.986.972zm-.822 8.726h1.614v-7.65H54.34v7.65zm3.748-2.077c0 1.39.628 2.077 2.092 2.077h1.494v-1.42H60.54c-.613 0-.822-.224-.822-.822V7.154h1.868v-1.42h-1.868V3.598H58.09v2.137h-1.33v1.42h1.33v4.153zm6.824 2.121l-.299.747c-.239.628-.388.777-1.016.777h-1.135v1.42h1.733c1.12 0 1.45-.553 1.927-1.793l3.467-8.845H67.87l-2.077 5.812-2.137-5.812H61.94l2.973 7.694zm11.079-.044h1.748l1.673-5.2 1.614 5.2h1.733l2.54-7.65h-1.644l-1.807 5.857-1.674-5.857h-1.479l-1.748 5.857-1.748-5.857h-1.703l2.495 7.65zm14.177-7.74c-1.196 0-1.928.538-2.406 1.195V2.925h-1.614v10.459h1.614v-3.87c0-1.539.777-2.48 2.047-2.48 1.195 0 1.838.777 1.838 2.226v4.124h1.613V9.125c0-2.554-1.39-3.48-3.093-3.48zm8.132 7.83c1.898 0 3.183-1.151 3.451-2.66h-1.613c-.224.851-.942 1.345-1.928 1.345-1.27 0-2.091-.852-2.136-2.152v-.105h5.767c.03-.209.045-.418.045-.612-.045-2.241-1.524-3.646-3.735-3.646-2.256 0-3.766 1.569-3.766 3.93 0 2.345 1.51 3.9 3.915 3.9zm-2.166-4.752c.12-1.09 1-1.778 2.032-1.778 1.12 0 1.912.643 2.047 1.778h-4.08zm11.091-3.078c-1.241 0-1.973.493-2.451 1.09l-.179-1h-1.405v7.65h1.614V9.529c0-1.554.762-2.495 2.047-2.495 1.21 0 1.823.777 1.823 2.226v4.124h1.628V9.125c0-2.554-1.389-3.48-3.077-3.48zm8.921 5.663c0 1.39.627 2.077 2.091 2.077h1.494v-1.42h-1.135c-.613 0-.822-.224-.822-.822V7.154h1.868v-1.42h-1.868V3.598h-1.628v2.137h-1.33v1.42h1.33v4.153zm8.482-5.573c-1.255 0-1.868.508-2.257 1.15l-.179-1.15h-1.434v7.65h1.613v-3.84c0-1.18.464-2.301 1.898-2.301h.717v-1.51h-.358zm8.112 6.245c-.328 0-.493-.104-.493-.493V8.423c0-1.808-1.165-2.779-3.197-2.779-1.928 0-3.212.927-3.377 2.42h1.584c.119-.672.762-1.12 1.718-1.12 1.061 0 1.674.523 1.674 1.375v.463h-1.928c-2.136 0-3.272.881-3.272 2.45 0 1.42 1.166 2.241 2.839 2.241 1.24 0 2.017-.538 2.525-1.315 0 .763.359 1.226 1.404 1.226h.852v-1.405h-.329zm-2.091-1.733c-.015 1.18-.792 1.972-2.137 1.972-.882 0-1.419-.448-1.419-1.09 0-.777.552-1.15 1.553-1.15h2.003v.268zm9.053-3.451c-.493-.673-1.315-1.15-2.481-1.15-2.076 0-3.615 1.553-3.615 3.914 0 2.45 1.539 3.914 3.615 3.914 1.211 0 2.003-.568 2.496-1.24l.194 1.15h1.404V2.926h-1.613v3.87zm-2.212 5.319c-1.344 0-2.226-1.046-2.226-2.555 0-1.494.882-2.54 2.226-2.54 1.345 0 2.227 1.046 2.227 2.57 0 1.479-.882 2.525-2.227 2.525zm6.224-7.456c.553 0 .986-.403.986-.971s-.433-.971-.986-.971c-.553 0-.986.403-.986.97 0 .569.433.972.986.972zm-.822 8.726h1.614v-7.65h-1.614v7.65zm7.23-7.74c-1.24 0-1.973.493-2.451 1.09l-.179-1h-1.404v7.65h1.613V9.529c0-1.554.762-2.495 2.047-2.495 1.21 0 1.823.777 1.823 2.226v4.124h1.629V9.125c0-2.554-1.39-3.48-3.078-3.48zm10.387 1.285c-.493-.762-1.315-1.285-2.51-1.285-2.077 0-3.616 1.54-3.616 3.885 0 2.435 1.539 3.885 3.616 3.885 1.195 0 1.987-.493 2.495-1.255v.851c0 1.464-.792 2.137-2.196 2.137-1.136 0-1.883-.493-2.077-1.345h-1.644c.15 1.718 1.569 2.66 3.601 2.66 2.749 0 3.915-1.315 3.915-3.392V5.734h-1.405l-.179 1.195zm-2.241 5.125c-1.345 0-2.226-1.031-2.226-2.525 0-1.48.881-2.525 2.226-2.525 1.344 0 2.226 1.046 2.226 2.555 0 1.464-.882 2.495-2.226 2.495zM.298 19.449h3.228v8.935h1.718v-8.935h3.228v-1.524H.299v1.524zm11.551 9.024c1.898 0 3.183-1.15 3.452-2.66h-1.614c-.224.852-.941 1.346-1.927 1.346-1.27 0-2.092-.852-2.137-2.152v-.105h5.767c.03-.209.045-.418.045-.612-.045-2.241-1.524-3.646-3.735-3.646-2.256 0-3.765 1.569-3.765 3.93 0 2.345 1.509 3.9 3.914 3.9zm-2.166-4.751c.12-1.09 1-1.778 2.032-1.778 1.12 0 1.912.643 2.047 1.778h-4.08zm6.684 2.137c.045 1.658 1.45 2.614 3.496 2.614 1.853 0 3.243-.926 3.243-2.39 0-1.704-1.42-2.062-3.168-2.271-1.105-.12-1.838-.21-1.838-.927 0-.612.628-1 1.584-1 .956 0 1.614.492 1.703 1.195h1.584c-.105-1.57-1.434-2.436-3.317-2.436-1.837-.015-3.137.927-3.137 2.376 0 1.584 1.374 1.957 3.122 2.166 1.18.15 1.883.21 1.883 1.031 0 .613-.657 1.001-1.659 1.001-1.165 0-1.852-.567-1.912-1.36h-1.584zm7.99 2.525h1.613v-10.46h-1.614v10.46zm10.187-1.405c-.329 0-.493-.104-.493-.493v-3.063c0-1.808-1.166-2.779-3.198-2.779-1.927 0-3.212.927-3.376 2.42h1.584c.12-.672.762-1.12 1.718-1.12 1.06 0 1.673.523 1.673 1.375v.463h-1.927c-2.137 0-3.272.881-3.272 2.45 0 1.42 1.165 2.241 2.838 2.241 1.24 0 2.017-.538 2.526-1.314 0 .762.358 1.225 1.404 1.225h.852v-1.405h-.33zm-2.092-1.733c-.015 1.18-.792 1.972-2.136 1.972-.882 0-1.42-.448-1.42-1.09 0-.777.553-1.15 1.554-1.15h2.002v.268zm6.794.613c.044 1.658 1.449 2.614 3.496 2.614 1.852 0 3.242-.926 3.242-2.39 0-1.704-1.42-2.062-3.167-2.271-1.106-.12-1.838-.21-1.838-.927 0-.612.627-1 1.584-1 .956 0 1.613.492 1.703 1.195h1.584c-.105-1.57-1.435-2.436-3.317-2.436-1.838-.015-3.138.927-3.138 2.376 0 1.584 1.375 1.957 3.123 2.166 1.18.15 1.882.21 1.882 1.031 0 .613-.657 1.001-1.658 1.001-1.165 0-1.853-.567-1.913-1.36h-1.583zm12.008-5.215c-1.196 0-1.928.538-2.406 1.196v-3.915h-1.613v10.459h1.613v-3.87c0-1.539.777-2.48 2.047-2.48 1.195 0 1.838.777 1.838 2.226v4.124h1.614v-4.259c0-2.555-1.39-3.48-3.093-3.48zm11.552 6.335c-.328 0-.493-.104-.493-.493v-3.063c0-1.808-1.165-2.779-3.197-2.779-1.928 0-3.212.927-3.377 2.42h1.584c.12-.672.762-1.12 1.718-1.12 1.061 0 1.674.523 1.674 1.375v.463h-1.928c-2.136 0-3.272.881-3.272 2.45 0 1.42 1.166 2.241 2.839 2.241 1.24 0 2.017-.538 2.525-1.314 0 .762.359 1.225 1.404 1.225h.852v-1.405h-.329zm-2.091-1.733c-.015 1.18-.792 1.972-2.137 1.972-.882 0-1.42-.448-1.42-1.09 0-.777.553-1.15 1.554-1.15h2.003v.268zm7.169-4.512c-1.255 0-1.868.508-2.256 1.15l-.18-1.15h-1.434v7.65h1.614v-3.84c0-1.18.463-2.301 1.897-2.301h.717v-1.51h-.358zm4.62 7.74c1.897 0 3.182-1.151 3.45-2.66h-1.613c-.224.851-.941 1.345-1.927 1.345-1.27 0-2.092-.852-2.137-2.152v-.105h5.767c.03-.209.045-.418.045-.612-.044-2.241-1.524-3.646-3.735-3.646-2.256 0-3.765 1.569-3.765 3.93 0 2.345 1.509 3.9 3.915 3.9zm-2.167-4.752c.12-1.09 1.001-1.778 2.032-1.778 1.12 0 1.912.643 2.047 1.778h-4.079zm15.586 4.751c2.436 0 4.213-1.434 4.542-3.645h-1.778c-.328 1.33-1.33 2.136-2.779 2.136-1.972 0-3.167-1.583-3.167-3.81 0-2.24 1.225-3.81 3.212-3.81 1.42 0 2.406.822 2.75 2.137h1.777c-.344-2.211-2.062-3.646-4.452-3.646-3.093 0-5.05 2.137-5.05 5.32 0 3.212 1.897 5.318 4.945 5.318zm5.963-.09h1.719v-4.422h4.093v-1.48h-4.093V19.45h4.96v-1.524h-6.679v10.459zm11.552 0c3.272 0 5.334-2.136 5.334-5.244 0-3.107-2.062-5.214-5.334-5.214h-3.556v10.459h3.556zM101.6 19.42h1.838c2.301 0 3.571 1.48 3.571 3.72 0 2.242-1.27 3.75-3.571 3.75H101.6v-7.47zm8.192 6.44c.045 1.658 1.45 2.614 3.497 2.614 1.852 0 3.242-.926 3.242-2.39 0-1.704-1.42-2.062-3.168-2.271-1.105-.12-1.837-.21-1.837-.927 0-.612.627-1 1.583-1 .957 0 1.614.492 1.704 1.195h1.583c-.104-1.57-1.434-2.436-3.317-2.436-1.837-.015-3.137.927-3.137 2.376 0 1.584 1.374 1.957 3.123 2.166 1.18.15 1.882.21 1.882 1.031 0 .613-.657 1.001-1.658 1.001-1.166 0-1.853-.567-1.913-1.36h-1.584z" fill="url(#paint0_linear_76_21843)"/><defs><linearGradient id="paint0_linear_76_21843" x1="166" y1="5.884" x2="0" y2="5.884" gradientUnits="userSpaceOnUse"><stop stop-color="#FF4343"/><stop offset=".5" stop-color="#9C0B93"/><stop offset="1" stop-color="#4C1BB7"/></linearGradient></defs></svg>