<svg width="253" height="58" viewBox="0 0 253 58" fill="none" xmlns="http://www.w3.org/2000/svg"><path d="M3.429 20l1.755-4.671h7.749L14.715 20h3.321L10.989 1.1H7.29L.216 20h3.213zM9.045 4.448l3.024 8.235H6.048l2.997-8.235zm16.344 15.714c3.537 0 5.886-1.971 6.426-5.103h-3.078c-.35 1.593-1.539 2.619-3.32 2.619-2.35 0-3.889-1.863-3.889-4.563 0-2.727 1.54-4.617 3.888-4.617 1.81 0 2.97.999 3.348 2.619h3.051c-.567-3.132-2.78-5.103-6.345-5.103-4.185 0-6.939 2.835-6.939 7.101 0 4.32 2.673 7.047 6.858 7.047zM41.31 6.014c-2.16 0-3.483.972-4.347 2.16V1.1h-2.916V20h2.916v-6.993c0-2.781 1.404-4.482 3.7-4.482 2.16 0 3.32 1.404 3.32 4.023V20H46.9v-7.695c0-4.617-2.51-6.291-5.589-6.291zm9.726-1.782c1 0 1.782-.729 1.782-1.755 0-1.026-.783-1.755-1.782-1.755s-1.782.729-1.782 1.755c0 1.026.783 1.755 1.782 1.755zM49.551 20h2.916V6.176h-2.916V20zm12.335.162c3.43 0 5.752-2.079 6.238-4.806h-2.916c-.406 1.539-1.701 2.43-3.483 2.43-2.296 0-3.78-1.539-3.861-3.888v-.189h10.422c.053-.378.08-.756.08-1.107-.08-4.05-2.754-6.588-6.75-6.588-4.077 0-6.803 2.835-6.803 7.101 0 4.239 2.726 7.047 7.073 7.047zm-3.915-8.586c.217-1.971 1.81-3.213 3.673-3.213 2.025 0 3.456 1.161 3.699 3.213H57.97zM73.817 20h3.564l5.103-13.824h-3.078l-3.753 10.692-3.807-10.692h-3.132L73.817 20zm16.072.162c3.428 0 5.75-2.079 6.237-4.806H93.21c-.405 1.539-1.701 2.43-3.483 2.43-2.296 0-3.78-1.539-3.862-3.888v-.189h10.422c.054-.378.081-.756.081-1.107-.08-4.05-2.753-6.588-6.75-6.588-4.076 0-6.803 2.835-6.803 7.101 0 4.239 2.727 7.047 7.073 7.047zm-3.915-8.586c.215-1.971 1.808-3.213 3.671-3.213 2.026 0 3.457 1.161 3.7 3.213h-7.371zm23.656 8.505l-.54 1.35c-.432 1.134-.702 1.404-1.836 1.404h-2.052V25.4h3.132c2.025 0 2.619-.999 3.483-3.24l6.264-15.984h-3.105l-3.753 10.503-3.861-10.503h-3.105l5.373 13.905zm15.827.081c4.212 0 7.047-2.835 7.047-7.074 0-4.212-2.835-7.074-7.047-7.074s-7.047 2.862-7.047 7.074c0 4.239 2.835 7.074 7.047 7.074zm0-2.484c-2.457 0-4.05-1.917-4.05-4.59s1.593-4.59 4.05-4.59 4.077 1.917 4.077 4.59-1.62 4.59-4.077 4.59zm18.869-4.59c0 2.862-1.35 4.536-3.564 4.536-2.133 0-3.213-1.377-3.213-4.077V6.176h-2.916v7.695c0 4.725 2.511 6.291 5.454 6.291 2.133 0 3.402-.864 4.266-1.917l.324 1.755h2.565V6.176h-2.916v6.912zm12.783-6.912c-2.268 0-3.375.918-4.077 2.079l-.324-2.079h-2.592V20h2.916v-6.939c0-2.133.837-4.158 3.429-4.158h1.296V6.176h-.648zm16.752-.162c-2.16 0-3.591.999-4.509 2.214l-.351-2.052h-2.538V25.4h2.916v-7.344c.864 1.242 2.349 2.106 4.482 2.106 3.78 0 6.534-2.808 6.534-7.074 0-4.428-2.754-7.074-6.534-7.074zm-.486 11.691c-2.43 0-4.023-1.917-4.023-4.671 0-2.673 1.593-4.536 4.023-4.536 2.43 0 4.05 1.863 4.05 4.59 0 2.7-1.62 4.617-4.05 4.617zm15.918 2.457c3.429 0 5.751-2.079 6.237-4.806h-2.916c-.405 1.539-1.701 2.43-3.483 2.43-2.295 0-3.78-1.539-3.861-3.888v-.189h10.422c.054-.378.081-.756.081-1.107-.081-4.05-2.754-6.588-6.75-6.588-4.077 0-6.804 2.835-6.804 7.101 0 4.239 2.727 7.047 7.074 7.047zm-3.915-8.586c.216-1.971 1.809-3.213 3.672-3.213 2.025 0 3.456 1.161 3.699 3.213h-7.371zm25.388 5.886c-.594 0-.891-.189-.891-.891v-5.535c0-3.267-2.106-5.022-5.778-5.022-3.483 0-5.805 1.674-6.102 4.374h2.862c.216-1.215 1.377-2.025 3.105-2.025 1.917 0 3.024.945 3.024 2.484v.837h-3.483c-3.861 0-5.913 1.593-5.913 4.428 0 2.565 2.106 4.05 5.13 4.05 2.241 0 3.645-.972 4.563-2.376 0 1.377.648 2.214 2.538 2.214h1.539v-2.538h-.594zm-3.78-3.132c-.027 2.133-1.431 3.564-3.861 3.564-1.593 0-2.565-.81-2.565-1.971 0-1.404.999-2.079 2.808-2.079h3.618v.486zm5.963 5.67h2.916v-3.51l2.484-2.592L222.426 20h3.456l-5.535-8.235 5.211-5.589h-3.429l-6.264 6.696V1.1h-2.916V20zM2.43 48.247C2.43 50.758 3.564 52 6.21 52h2.7v-2.565H6.858c-1.107 0-1.485-.405-1.485-1.485v-7.209h3.375v-2.565H5.373v-3.861H2.43v3.861H.027v2.565H2.43v7.506zm15.328-10.071c-2.268 0-3.375.918-4.077 2.079l-.324-2.079h-2.592V52h2.916v-6.939c0-2.133.837-4.158 3.429-4.158h1.296v-2.727h-.648zm14.66 11.286c-.593 0-.89-.189-.89-.891v-5.535c0-3.267-2.106-5.022-5.778-5.022-3.483 0-5.805 1.674-6.102 4.374h2.862c.216-1.215 1.377-2.025 3.105-2.025 1.917 0 3.024.945 3.024 2.484v.837h-3.483c-3.861 0-5.913 1.593-5.913 4.428 0 2.565 2.106 4.05 5.13 4.05 2.24 0 3.645-.972 4.563-2.376 0 1.377.648 2.214 2.538 2.214h1.539v-2.538h-.594zm-3.78-3.132c-.026 2.133-1.43 3.564-3.86 3.564-1.593 0-2.565-.81-2.565-1.971 0-1.404.999-2.079 2.808-2.079h3.618v.486zm16.36-6.237c-.89-1.215-2.375-2.079-4.481-2.079-3.754 0-6.535 2.808-6.535 7.074 0 4.428 2.782 7.074 6.535 7.074 2.186 0 3.617-1.026 4.508-2.241L45.377 52h2.537V33.1h-2.916v6.993zm-3.995 9.612c-2.43 0-4.023-1.89-4.023-4.617 0-2.7 1.593-4.59 4.023-4.59 2.43 0 4.023 1.89 4.023 4.644 0 2.673-1.594 4.563-4.024 4.563zm11.246-13.473c.999 0 1.782-.729 1.782-1.755 0-1.026-.783-1.755-1.782-1.755s-1.782.729-1.782 1.755c0 1.026.783 1.755 1.782 1.755zM50.764 52h2.916V38.176h-2.916V52zm13.064-13.986c-2.24 0-3.564.891-4.428 1.971l-.324-1.809h-2.538V52h2.916v-6.966c0-2.808 1.377-4.509 3.7-4.509 2.186 0 3.293 1.404 3.293 4.023V52h2.943v-7.695c0-4.617-2.51-6.291-5.562-6.291zM82.6 40.336c-.89-1.377-2.376-2.322-4.536-2.322-3.753 0-6.534 2.781-6.534 7.02 0 4.401 2.781 7.02 6.534 7.02 2.16 0 3.591-.891 4.51-2.268v1.539c0 2.646-1.432 3.861-3.97 3.861-2.052 0-3.402-.891-3.753-2.43h-2.97c.27 3.105 2.835 4.806 6.507 4.806 4.968 0 7.074-2.376 7.074-6.129V38.176h-2.538l-.324 2.16zm-4.05 9.261c-2.43 0-4.023-1.863-4.023-4.563 0-2.673 1.593-4.563 4.023-4.563 2.43 0 4.023 1.89 4.023 4.617 0 2.646-1.593 4.509-4.023 4.509zm24.068-11.583c-2.16 0-3.59.999-4.509 2.214l-.35-2.052h-2.539V57.4h2.916v-7.344c.864 1.242 2.349 2.106 4.482 2.106 3.78 0 6.534-2.808 6.534-7.074 0-4.428-2.754-7.074-6.534-7.074zm-.486 11.691c-2.43 0-4.023-1.917-4.023-4.671 0-2.673 1.593-4.536 4.023-4.536 2.43 0 4.05 1.863 4.05 4.59 0 2.7-1.62 4.617-4.05 4.617zm15.918 2.457c3.429 0 5.751-2.079 6.237-4.806h-2.916c-.405 1.539-1.701 2.43-3.483 2.43-2.295 0-3.78-1.539-3.861-3.888v-.189h10.422c.054-.378.081-.756.081-1.107-.081-4.05-2.754-6.588-6.75-6.588-4.077 0-6.804 2.835-6.804 7.101 0 4.239 2.727 7.047 7.074 7.047zm-3.915-8.586c.216-1.971 1.809-3.213 3.672-3.213 2.025 0 3.456 1.161 3.699 3.213h-7.371zm19.745-5.4c-2.268 0-3.375.918-4.077 2.079l-.324-2.079h-2.592V52h2.916v-6.939c0-2.133.837-4.158 3.429-4.158h1.296v-2.727h-.648zm1.623 2.565h2.403V52h2.943V40.741h3.699v-2.565h-3.753v-1.161c0-.945.405-1.35 1.35-1.35h2.403V33.1h-2.781c-2.673 0-3.861 1.296-3.861 3.78v1.296h-2.403v2.565zm16.507 11.421c4.212 0 7.047-2.835 7.047-7.074 0-4.212-2.835-7.074-7.047-7.074s-7.047 2.862-7.047 7.074c0 4.239 2.835 7.074 7.047 7.074zm0-2.484c-2.457 0-4.05-1.917-4.05-4.59s1.593-4.59 4.05-4.59 4.077 1.917 4.077 4.59-1.62 4.59-4.077 4.59zm16.385-11.502c-2.268 0-3.375.918-4.077 2.079l-.324-2.079h-2.592V52h2.916v-6.939c0-2.133.837-4.158 3.429-4.158h1.296v-2.727h-.648zm18.349-.162c-2.268 0-3.834.999-4.725 2.511-.837-1.782-2.457-2.511-4.266-2.511-2.079.027-3.267.945-4.05 1.971l-.324-1.809h-2.538V52h2.916v-7.398c0-2.457 1.242-4.077 3.24-4.077 1.917 0 2.916 1.269 2.916 3.699V52h2.943v-7.479c0-2.484 1.269-3.996 3.267-3.996 1.89 0 2.889 1.269 2.889 3.699V52h2.916v-7.965c0-4.374-2.322-6.021-5.184-6.021zm20.464 11.448c-.594 0-.891-.189-.891-.891v-5.535c0-3.267-2.106-5.022-5.778-5.022-3.483 0-5.805 1.674-6.102 4.374h2.862c.216-1.215 1.377-2.025 3.105-2.025 1.917 0 3.024.945 3.024 2.484v.837h-3.483c-3.861 0-5.913 1.593-5.913 4.428 0 2.565 2.106 4.05 5.13 4.05 2.241 0 3.645-.972 4.563-2.376 0 1.377.648 2.214 2.538 2.214h1.539v-2.538h-.594zm-3.78-3.132c-.027 2.133-1.431 3.564-3.861 3.564-1.593 0-2.565-.81-2.565-1.971 0-1.404.999-2.079 2.808-2.079h3.618v.486zm13.252-8.316c-2.241 0-3.564.891-4.428 1.971l-.324-1.809h-2.538V52h2.916v-6.966c0-2.808 1.377-4.509 3.699-4.509 2.187 0 3.294 1.404 3.294 4.023V52h2.943v-7.695c0-4.617-2.511-6.291-5.562-6.291zm14.453 14.148c3.537 0 5.886-1.971 6.426-5.103h-3.078c-.351 1.593-1.539 2.619-3.321 2.619-2.349 0-3.888-1.863-3.888-4.563 0-2.727 1.539-4.617 3.888-4.617 1.809 0 2.97.999 3.348 2.619h3.051c-.567-3.132-2.781-5.103-6.345-5.103-4.185 0-6.939 2.835-6.939 7.101 0 4.32 2.673 7.047 6.858 7.047zm15.219 0c3.429 0 5.751-2.079 6.237-4.806h-2.916c-.405 1.539-1.701 2.43-3.483 2.43-2.295 0-3.78-1.539-3.861-3.888v-.189h10.422c.054-.378.081-.756.081-1.107-.081-4.05-2.754-6.588-6.75-6.588-4.077 0-6.804 2.835-6.804 7.101 0 4.239 2.727 7.047 7.074 7.047zm-3.915-8.586c.216-1.971 1.809-3.213 3.672-3.213 2.025 0 3.456 1.161 3.699 3.213h-7.371z" fill="#000"/></svg>