<svg width="152" height="11" viewBox="0 0 152 11" fill="none" xmlns="http://www.w3.org/2000/svg"><path d="M.378 5.585c.042 1.47 1.144 2.478 2.971 2.478 1.617 0 2.72-.914 2.72-2.237.01-1.448-1.176-1.837-2.394-2.057-1.155-.2-1.911-.357-1.911-1.114 0-.692.577-1.05 1.407-1.05.893 0 1.48.505 1.575 1.25h1.207C5.902 1.5 4.851.587 3.171.587 1.607.587.557 1.458.557 2.739c0 1.46 1.155 1.849 2.373 2.059 1.165.21 1.932.378 1.932 1.154 0 .704-.63 1.093-1.502 1.093-1.029 0-1.701-.578-1.764-1.439L.378 5.585zm11.553 1.428c-.231 0-.347-.074-.347-.346V4.514c0-1.27-.819-1.953-2.247-1.953-1.355 0-2.258.651-2.373 1.701h1.113c.084-.472.535-.787 1.207-.787.746 0 1.176.367 1.176.966v.325H9.107c-1.502 0-2.3.62-2.3 1.722 0 .997.82 1.575 1.995 1.575.872 0 1.418-.378 1.775-.924 0 .535.252.861.987.861h.598v-.987h-.23zm-1.47-1.218c-.011.83-.557 1.386-1.502 1.386-.62 0-.998-.315-.998-.766 0-.546.389-.809 1.092-.809h1.407v.189zM14.002 8h1.386l1.984-5.376h-1.197l-1.46 4.158-1.48-4.158h-1.218L14.003 8zm6.25.063c1.333 0 2.236-.809 2.425-1.869h-1.134c-.157.599-.662.945-1.355.945-.892 0-1.47-.599-1.501-1.512v-.074h4.053a3.08 3.08 0 00.032-.43c-.032-1.575-1.072-2.562-2.625-2.562-1.586 0-2.646 1.103-2.646 2.761 0 1.649 1.06 2.741 2.75 2.741zM18.73 4.724c.084-.767.703-1.25 1.428-1.25.787 0 1.344.452 1.438 1.25H18.73zm13.83-2.163c-.882 0-1.49.389-1.837.977-.326-.693-.956-.977-1.66-.977-.808.01-1.27.368-1.574.767l-.126-.704h-.987V8h1.134V5.123c0-.955.483-1.586 1.26-1.586.745 0 1.134.494 1.134 1.439V8h1.144V5.091c0-.966.494-1.554 1.27-1.554.736 0 1.124.494 1.124 1.439V8h1.134V4.902c0-1.7-.903-2.341-2.016-2.341zm5.544 5.502c1.638 0 2.74-1.103 2.74-2.751 0-1.638-1.102-2.751-2.74-2.751-1.638 0-2.74 1.113-2.74 2.751 0 1.648 1.102 2.751 2.74 2.751zm0-.966c-.955 0-1.575-.746-1.575-1.785 0-1.04.62-1.785 1.575-1.785.956 0 1.586.745 1.586 1.785s-.63 1.785-1.586 1.785zm6.488-4.536c-.872 0-1.386.347-1.722.767l-.126-.704h-.987V8h1.134V5.291c0-1.092.535-1.754 1.438-1.754.85 0 1.281.546 1.281 1.565V8h1.145V5.008c0-1.796-.977-2.447-2.163-2.447zm5.705 5.502c1.333 0 2.236-.809 2.425-1.869h-1.134c-.157.599-.662.945-1.355.945-.892 0-1.47-.599-1.501-1.512v-.074h4.053a3.08 3.08 0 00.032-.43c-.032-1.575-1.072-2.562-2.626-2.562-1.585 0-2.646 1.103-2.646 2.761 0 1.649 1.061 2.741 2.752 2.741zm-1.523-3.339c.084-.767.703-1.25 1.428-1.25.788 0 1.344.452 1.439 1.25h-2.867zm6.267 3.307l-.21.525c-.168.442-.273.546-.714.546h-.798v.998h1.218c.788 0 1.019-.389 1.355-1.26l2.436-6.216H57.12l-1.46 4.085-1.5-4.085h-1.208l2.09 5.407zM62.827 8h1.228l1.176-3.654L66.365 8h1.218l1.785-5.376h-1.155l-1.27 4.116-1.176-4.116h-1.04L63.5 6.74 62.27 2.624h-1.197L62.827 8zm7.716-6.132a.67.67 0 00.693-.683.67.67 0 00-.693-.682.67.67 0 00-.693.682.67.67 0 00.693.683zM69.965 8H71.1V2.624h-1.134V8zM72.6 6.54c0 .977.441 1.46 1.47 1.46h1.05v-.997h-.798c-.43 0-.577-.158-.577-.578V3.622h1.312v-.998h-1.312V1.122h-1.145v1.502h-.934v.998h.934V6.54zm6.066-3.979c-.84 0-1.354.378-1.69.84V.65H75.84V8h1.134V5.28c0-1.081.546-1.743 1.438-1.743.84 0 1.292.546 1.292 1.565V8h1.134V5.008c0-1.796-.977-2.447-2.174-2.447zM84.556 8h1.135V.65h-1.135V8zm4.787.063c1.638 0 2.74-1.103 2.74-2.751 0-1.638-1.102-2.751-2.74-2.751-1.638 0-2.74 1.113-2.74 2.751 0 1.648 1.102 2.751 2.74 2.751zm0-.966c-.955 0-1.575-.746-1.575-1.785 0-1.04.62-1.785 1.575-1.785.956 0 1.586.745 1.586 1.785s-.63 1.785-1.586 1.785zM94.05 8h1.228l1.176-3.654L97.588 8h1.218l1.785-5.376h-1.155l-1.27 4.116-1.176-4.116h-1.04L94.722 6.74l-1.229-4.116h-1.197L94.05 8zm9.505.063c1.334 0 2.237-.809 2.426-1.869h-1.134c-.158.599-.662.945-1.355.945-.892 0-1.47-.599-1.501-1.512v-.074h4.053c.021-.146.031-.293.031-.43-.031-1.575-1.071-2.562-2.625-2.562-1.585 0-2.646 1.103-2.646 2.761 0 1.649 1.061 2.741 2.751 2.741zm-1.522-3.339c.084-.767.703-1.25 1.428-1.25.787 0 1.344.452 1.438 1.25h-2.866zm7.679-2.1c-.882 0-1.313.357-1.586.808L108 2.625h-1.008V8h1.134V5.301c0-.829.326-1.617 1.334-1.617h.504v-1.06h-.252zm3.406 3.602c.032 1.165 1.019 1.837 2.457 1.837 1.302 0 2.279-.651 2.279-1.68 0-1.197-.998-1.449-2.226-1.596-.777-.084-1.292-.147-1.292-.651 0-.43.441-.704 1.113-.704.672 0 1.134.347 1.197.84h1.113c-.073-1.102-1.008-1.711-2.331-1.711-1.291-.01-2.205.651-2.205 1.67 0 1.112.966 1.375 2.195 1.522.829.105 1.323.147 1.323.724 0 .431-.462.704-1.166.704-.819 0-1.302-.399-1.344-.955h-1.113zm8.492-3.665c-.84 0-1.397.389-1.754.861l-.136-.798h-.987V10.1h1.134V7.244c.336.483.913.819 1.743.819 1.47 0 2.541-1.092 2.541-2.751 0-1.722-1.071-2.751-2.541-2.751zm-.189 4.546c-.945 0-1.565-.745-1.565-1.816 0-1.04.62-1.764 1.565-1.764s1.575.724 1.575 1.785c0 1.05-.63 1.795-1.575 1.795zm6.358-4.483c-.882 0-1.313.357-1.586.808l-.126-.808h-1.008V8h1.134V5.301c0-.829.326-1.617 1.334-1.617h.504v-1.06h-.252zm3.246 5.439c1.334 0 2.237-.809 2.426-1.869h-1.134c-.158.599-.662.945-1.355.945-.892 0-1.47-.599-1.501-1.512v-.074h4.053c.021-.146.031-.293.031-.43-.031-1.575-1.071-2.562-2.625-2.562-1.585 0-2.646 1.103-2.646 2.761 0 1.649 1.061 2.741 2.751 2.741zm-1.522-3.339c.084-.767.703-1.25 1.428-1.25.787 0 1.344.452 1.438 1.25h-2.866zm9.873 2.289c-.231 0-.346-.074-.346-.346V4.514c0-1.27-.819-1.953-2.247-1.953-1.355 0-2.258.651-2.373 1.701h1.113c.084-.472.535-.787 1.207-.787.746 0 1.176.367 1.176.966v.325h-1.354c-1.502 0-2.3.62-2.3 1.722 0 .997.819 1.575 1.995 1.575.872 0 1.418-.378 1.775-.924 0 .535.252.861.987.861h.598v-.987h-.231zm-1.47-1.218c-.01.83-.556 1.386-1.501 1.386-.62 0-.998-.315-.998-.766 0-.546.389-.809 1.092-.809h1.407v.189zm6.362-2.425c-.346-.473-.924-.809-1.743-.809-1.459 0-2.541 1.092-2.541 2.751 0 1.722 1.082 2.751 2.541 2.751.851 0 1.407-.399 1.754-.872l.136.809h.987V.65h-1.134v2.72zm-1.554 3.737c-.945 0-1.564-.735-1.564-1.795 0-1.05.619-1.785 1.564-1.785.945 0 1.565.735 1.565 1.806 0 1.04-.62 1.774-1.565 1.774zm3.566-.881c.031 1.165 1.018 1.837 2.457 1.837 1.302 0 2.278-.651 2.278-1.68 0-1.197-.997-1.449-2.226-1.596-.777-.084-1.291-.147-1.291-.651 0-.43.441-.704 1.113-.704.672 0 1.134.347 1.197.84h1.113c-.074-1.102-1.008-1.711-2.331-1.711-1.292-.01-2.205.651-2.205 1.67 0 1.112.966 1.375 2.194 1.522.83.105 1.323.147 1.323.724 0 .431-.462.704-1.165.704-.819 0-1.302-.399-1.344-.955h-1.113z" fill="#000"/></svg>