<svg width="136" height="79" viewBox="0 0 136 79" fill="none" xmlns="http://www.w3.org/2000/svg"><path d="M5.25 18h3.375L12.15 5.125 15.725 18h3.35L24.1.5h-2.95L17.4 14.35 13.6.5h-2.725l-3.9 13.85L3.25.475.275.5 5.25 18zM27.04 3.4c.926 0 1.65-.675 1.65-1.625S27.967.15 27.04.15c-.924 0-1.65.675-1.65 1.625S26.117 3.4 27.04 3.4zM25.667 18h2.7V5.2h-2.7V18zm5.346 0h2.7V.5h-2.7V18zm5.347 0h2.7V.5h-2.7V18zm19.618.15c4.075 0 7.05-2.4 7.6-6.1h-2.975c-.55 2.225-2.225 3.575-4.65 3.575-3.3 0-5.3-2.65-5.3-6.375 0-3.75 2.05-6.375 5.375-6.375 2.375 0 4.025 1.375 4.6 3.575h2.975c-.575-3.7-3.45-6.1-7.45-6.1-5.175 0-8.45 3.575-8.45 8.9 0 5.375 3.175 8.9 8.275 8.9zm16.429-13.1c-2 0-3.226.9-4.026 2V.5h-2.7V18h2.7v-6.475c0-2.575 1.3-4.15 3.425-4.15 2 0 3.075 1.3 3.075 3.725V18h2.7v-7.125c0-4.275-2.325-5.825-5.174-5.825zM81.41 3.4c.925 0 1.65-.675 1.65-1.625S82.336.15 81.41.15c-.925 0-1.65.675-1.65 1.625S80.486 3.4 81.41 3.4zM80.036 18h2.7V5.2h-2.7V18zM92.133 5.05c-2.075 0-3.3.825-4.1 1.825l-.3-1.675h-2.35V18h2.7v-6.45c0-2.6 1.275-4.175 3.425-4.175 2.025 0 3.05 1.3 3.05 3.725V18h2.725v-7.125c0-4.275-2.325-5.825-5.15-5.825zm19.305 10.6c-.55 0-.825-.175-.825-.825V9.7c0-3.025-1.95-4.65-5.35-4.65-3.225 0-5.375 1.55-5.65 4.05h2.65c.2-1.125 1.275-1.875 2.875-1.875 1.775 0 2.8.875 2.8 2.3v.775h-3.225c-3.575 0-5.475 1.475-5.475 4.1 0 2.375 1.95 3.75 4.75 3.75 2.075 0 3.375-.9 4.225-2.2 0 1.275.6 2.05 2.35 2.05h1.425v-2.35h-.55zm-3.5-2.9c-.025 1.975-1.325 3.3-3.575 3.3-1.475 0-2.375-.75-2.375-1.825 0-1.3.925-1.925 2.6-1.925h3.35v.45zm6.16-12.4c-1.15 0-1.9.75-1.9 1.7 0 1.05.65 1.6 1.475 1.6.3 0 .6-.1.825-.275.025.125.025.225.025.35 0 .875-.625 1.85-2.2 1.85V7.05c2.475-.025 4.025-1.4 4.025-3.825 0-1.625-.875-2.875-2.25-2.875zm3.376 13.425c.075 2.775 2.425 4.375 5.85 4.375 3.1 0 5.425-1.55 5.425-4 0-2.85-2.375-3.45-5.3-3.8-1.85-.2-3.075-.35-3.075-1.55 0-1.025 1.05-1.675 2.65-1.675 1.6 0 2.7.825 2.85 2h2.65c-.175-2.625-2.4-4.075-5.55-4.075-3.075-.025-5.25 1.55-5.25 3.975 0 2.65 2.3 3.275 5.225 3.625 1.975.25 3.15.35 3.15 1.725 0 1.025-1.1 1.675-2.775 1.675-1.95 0-3.1-.95-3.2-2.275h-2.65zM7.8 33.2c-2.1 0-3.125.85-3.775 1.925l-.3-1.925h-2.4V46h2.7v-6.425c0-1.975.775-3.85 3.175-3.85h1.2V33.2h-.6zm7.73 12.95c3.175 0 5.325-1.925 5.775-4.45h-2.7c-.375 1.425-1.575 2.25-3.225 2.25-2.125 0-3.5-1.425-3.575-3.6v-.175h9.65c.05-.35.075-.7.075-1.025-.075-3.75-2.55-6.1-6.25-6.1-3.775 0-6.3 2.625-6.3 6.575 0 3.925 2.525 6.525 6.55 6.525zm-3.625-7.95c.2-1.825 1.675-2.975 3.4-2.975 1.875 0 3.2 1.075 3.425 2.975h-6.825zm17.858 7.95c3.9 0 6.525-2.625 6.525-6.55 0-3.9-2.625-6.55-6.525-6.55-3.9 0-6.525 2.65-6.525 6.55 0 3.925 2.625 6.55 6.525 6.55zm0-2.3c-2.275 0-3.75-1.775-3.75-4.25s1.475-4.25 3.75-4.25 3.775 1.775 3.775 4.25-1.5 4.25-3.775 4.25zm15.546-10.8c-2 0-3.325.925-4.175 2.05l-.325-1.9h-2.35V51h2.7v-6.8c.8 1.15 2.175 1.95 4.15 1.95 3.5 0 6.05-2.6 6.05-6.55 0-4.1-2.55-6.55-6.05-6.55zm-.45 10.825c-2.25 0-3.725-1.775-3.725-4.325 0-2.475 1.475-4.2 3.725-4.2s3.75 1.725 3.75 4.25c0 2.5-1.5 4.275-3.75 4.275zm14.738 2.275c3.175 0 5.325-1.925 5.775-4.45h-2.7c-.375 1.425-1.575 2.25-3.225 2.25-2.125 0-3.5-1.425-3.575-3.6v-.175h9.65c.05-.35.075-.7.075-1.025-.075-3.75-2.55-6.1-6.25-6.1-3.775 0-6.3 2.625-6.3 6.575 0 3.925 2.525 6.525 6.55 6.525zm-3.625-7.95c.2-1.825 1.675-2.975 3.4-2.975 1.875 0 3.2 1.075 3.425 2.975h-6.825zm18.558-5.15c-2.075 0-3.3.825-4.1 1.825l-.3-1.675h-2.35V46h2.7v-6.45c0-2.6 1.275-4.175 3.425-4.175 2.025 0 3.05 1.3 3.05 3.725V46h2.725v-7.125c0-4.275-2.325-5.825-5.15-5.825zm8.98-1.65c.925 0 1.65-.675 1.65-1.625s-.724-1.625-1.65-1.625c-.925 0-1.65.675-1.65 1.625s.725 1.625 1.65 1.625zM82.135 46h2.7V33.2h-2.7V46zm12.097-12.95c-2.075 0-3.3.825-4.1 1.825l-.3-1.675h-2.35V46h2.7v-6.45c0-2.6 1.275-4.175 3.425-4.175 2.025 0 3.05 1.3 3.05 3.725V46h2.725v-7.125c0-4.275-2.325-5.825-5.15-5.825zm17.381 2.15c-.825-1.275-2.2-2.15-4.2-2.15-3.475 0-6.05 2.575-6.05 6.5 0 4.075 2.575 6.5 6.05 6.5 2 0 3.325-.825 4.175-2.1v1.425c0 2.45-1.325 3.575-3.675 3.575-1.9 0-3.15-.825-3.475-2.25h-2.75c.25 2.875 2.625 4.45 6.025 4.45 4.6 0 6.55-2.2 6.55-5.675V33.2h-2.35l-.3 2zm-3.75 8.575c-2.25 0-3.725-1.725-3.725-4.225 0-2.475 1.475-4.225 3.725-4.225s3.725 1.75 3.725 4.275c0 2.45-1.475 4.175-3.725 4.175zm-107.088 26C.85 72.55 3.2 74.15 6.625 74.15c3.1 0 5.425-1.55 5.425-4 0-2.85-2.375-3.45-5.3-3.8-1.85-.2-3.075-.35-3.075-1.55 0-1.025 1.05-1.675 2.65-1.675 1.6 0 2.7.825 2.85 2h2.65c-.175-2.625-2.4-4.075-5.55-4.075-3.075-.025-5.25 1.55-5.25 3.975 0 2.65 2.3 3.275 5.225 3.625 1.975.25 3.15.35 3.15 1.725 0 1.025-1.1 1.675-2.775 1.675-1.95 0-3.1-.95-3.2-2.275H.775zm20.217-8.725c-2 0-3.325.925-4.175 2.05l-.325-1.9h-2.35V79h2.7v-6.8c.8 1.15 2.175 1.95 4.15 1.95 3.5 0 6.05-2.6 6.05-6.55 0-4.1-2.55-6.55-6.05-6.55zm-.45 10.825c-2.25 0-3.725-1.775-3.725-4.325 0-2.475 1.475-4.2 3.725-4.2s3.75 1.725 3.75 4.25c0 2.5-1.5 4.275-3.75 4.275zM37.981 67.6c0 2.65-1.25 4.2-3.3 4.2-1.975 0-2.975-1.275-2.975-3.775V61.2h-2.7v7.125c0 4.375 2.325 5.825 5.05 5.825 1.975 0 3.15-.8 3.95-1.775l.3 1.625h2.375V61.2h-2.7v6.4zm11.836-6.4c-2.1 0-3.125.85-3.775 1.925l-.3-1.925h-2.4V74h2.7v-6.425c0-1.975.775-3.85 3.175-3.85h1.2V61.2h-.6zM60.328 74l1.625-4.325h7.175L70.778 74h3.075l-6.525-17.5h-3.425L57.353 74h2.975zm5.2-14.4l2.8 7.625h-5.575l2.775-7.625zm16.695 1.45c-2 0-3.325.925-4.175 2.05l-.325-1.9h-2.35V79h2.7v-6.8c.8 1.15 2.175 1.95 4.15 1.95 3.5 0 6.05-2.6 6.05-6.55 0-4.1-2.55-6.55-6.05-6.55zm-.45 10.825c-2.25 0-3.725-1.775-3.725-4.325 0-2.475 1.475-4.2 3.725-4.2s3.75 1.725 3.75 4.25c0 2.5-1.5 4.275-3.75 4.275zM97.286 61.05c-2 0-3.325.925-4.175 2.05l-.325-1.9h-2.35V79h2.7v-6.8c.8 1.15 2.175 1.95 4.15 1.95 3.5 0 6.05-2.6 6.05-6.55 0-4.1-2.55-6.55-6.05-6.55zm-.45 10.825c-2.25 0-3.725-1.775-3.725-4.325 0-2.475 1.475-4.2 3.725-4.2s3.75 1.725 3.75 4.25c0 2.5-1.5 4.275-3.75 4.275zM105.5 74h2.7V56.5h-2.7V74zm11.421.15c3.175 0 5.325-1.925 5.775-4.45h-2.7c-.375 1.425-1.575 2.25-3.225 2.25-2.125 0-3.5-1.425-3.575-3.6v-.175h9.65c.05-.35.075-.7.075-1.025-.075-3.75-2.55-6.1-6.25-6.1-3.775 0-6.3 2.625-6.3 6.575 0 3.925 2.525 6.525 6.55 6.525zm-3.625-7.95c.2-1.825 1.675-2.975 3.4-2.975 1.875 0 3.2 1.075 3.425 2.975h-6.825zm13.153-3.975c0-2.075 1.25-3.475 3.175-3.475 1.675 0 2.8 1 2.8 2.425 0 1.2-.65 2-1.775 2.75-1.5.975-2.675 1.8-2.675 3.825v.8h2.55v-.5c0-1.25.85-1.9 2.2-2.825 1.3-.925 2.5-2.025 2.5-4.325 0-2.625-2.15-4.55-5.625-4.55-3.725 0-5.9 2.625-5.9 5.875h2.75zm1.15 10.25c0 1 .75 1.675 1.725 1.675.975 0 1.7-.675 1.7-1.675s-.725-1.675-1.7-1.675-1.725.675-1.725 1.675z" fill="#000"/></svg>