<svg width="110" height="92" viewBox="0 0 110 92" fill="none" xmlns="http://www.w3.org/2000/svg"><path d="M.64 3.883h6.905V23h3.676V3.883h6.905V.623H.64v3.26zm26.567 2.75c-2.685 0-3.996 1.086-4.827 2.46l-.384-2.46h-3.069V23h3.453v-8.216c0-2.525.99-4.923 4.06-4.923h1.534V6.632h-.767zm17.358 13.362c-.703 0-1.055-.224-1.055-1.055v-6.554c0-3.868-2.493-5.946-6.84-5.946-4.125 0-6.874 1.982-7.226 5.18h3.389c.256-1.44 1.63-2.398 3.676-2.398 2.27 0 3.58 1.119 3.58 2.94v.992h-4.123c-4.572 0-7.001 1.886-7.001 5.243 0 3.037 2.493 4.795 6.074 4.795 2.653 0 4.316-1.151 5.402-2.813 0 1.63.768 2.621 3.005 2.621h1.823v-3.005h-.704zm-4.475-3.708c-.032 2.525-1.695 4.22-4.572 4.22-1.886 0-3.037-.96-3.037-2.334 0-1.663 1.183-2.462 3.325-2.462h4.284v.576zm19.37-7.385c-1.055-1.439-2.813-2.462-5.307-2.462-4.443 0-7.736 3.325-7.736 8.376 0 5.243 3.293 8.376 7.736 8.376 2.59 0 4.284-1.215 5.34-2.654L59.907 23h3.005V.622H59.46v8.28zm-4.731 11.38c-2.877 0-4.764-2.237-4.764-5.466 0-3.197 1.887-5.435 4.764-5.435 2.877 0 4.763 2.238 4.763 5.499 0 3.165-1.886 5.403-4.763 5.403zM68.045 4.33c1.183 0 2.11-.863 2.11-2.077 0-1.215-.927-2.078-2.11-2.078-1.183 0-2.11.863-2.11 2.078 0 1.214.927 2.077 2.11 2.077zM66.287 23h3.452V6.632h-3.452V23zM81.755 6.44c-2.653 0-4.22 1.055-5.243 2.334l-.383-2.142h-3.005V23h3.452v-8.248c0-3.325 1.63-5.339 4.38-5.339 2.59 0 3.9 1.663 3.9 4.764V23h3.485v-9.111c0-5.467-2.973-7.449-6.586-7.449zm22.225 2.75c-1.055-1.63-2.813-2.75-5.37-2.75-4.444 0-7.737 3.293-7.737 8.312 0 5.211 3.293 8.312 7.736 8.312 2.558 0 4.252-1.055 5.339-2.685V22.2c0 3.133-1.694 4.571-4.7 4.571-2.429 0-4.027-1.055-4.443-2.877H91.29c.32 3.677 3.356 5.69 7.704 5.69 5.882 0 8.376-2.813 8.376-7.256V6.632h-3.005l-.384 2.558zm-4.795 10.965c-2.877 0-4.764-2.206-4.764-5.403 0-3.165 1.887-5.402 4.764-5.402 2.877 0 4.763 2.237 4.763 5.466 0 3.133-1.886 5.339-4.763 5.339zM5.467 57h3.74l3.58-11.125L16.24 57h3.708l5.435-16.368h-3.517l-3.868 12.532-3.58-12.532h-3.165l-3.74 12.532-3.74-12.532H.127L5.467 57zm23.492-18.67c1.182 0 2.11-.863 2.11-2.078 0-1.214-.928-2.077-2.11-2.077-1.183 0-2.11.863-2.11 2.078 0 1.214.927 2.078 2.11 2.078zM27.2 57h3.453V40.632H27.2V57zm8.02-4.444c0 2.974 1.343 4.444 4.476 4.444h3.197v-3.037h-2.43c-1.31 0-1.758-.48-1.758-1.758v-8.536H42.7v-3.037h-3.996v-4.571H35.22v4.571h-2.845v3.037h2.845v8.887zM53.688 40.44c-2.557 0-4.124 1.151-5.147 2.558v-8.376H45.09V57h3.452v-8.28c0-3.292 1.663-5.306 4.38-5.306 2.558 0 3.932 1.662 3.932 4.763V57h3.453v-9.111c0-5.467-2.973-7.449-6.618-7.449zm17.37 16.752c4.986 0 8.343-3.357 8.343-8.376 0-4.987-3.357-8.376-8.344-8.376-4.987 0-8.344 3.389-8.344 8.376 0 5.02 3.357 8.376 8.344 8.376zm0-2.941c-2.91 0-4.796-2.27-4.796-5.435 0-3.165 1.886-5.434 4.795-5.434 2.91 0 4.827 2.27 4.827 5.434 0 3.165-1.918 5.435-4.827 5.435zm22.34-5.435c0 3.389-1.598 5.37-4.22 5.37-2.525 0-3.804-1.63-3.804-4.826v-8.728h-3.453v9.111c0 5.595 2.973 7.449 6.458 7.449 2.525 0 4.028-1.023 5.051-2.27L93.814 57h3.037V40.632h-3.453v8.184zm8.131 3.74c0 2.974 1.343 4.444 4.476 4.444h3.197v-3.037h-2.43c-1.31 0-1.758-.48-1.758-1.758v-8.536h3.996v-3.037h-3.996v-4.571h-3.485v4.571h-2.845v3.037h2.845v8.887zm-98.652 34C2.877 89.53 4.22 91 7.353 91h3.197v-3.037H8.12c-1.31 0-1.758-.48-1.758-1.758v-8.536h3.996v-3.037H6.362v-4.571H2.877v4.571H.032v3.037h2.845v8.887zM21.345 74.44c-2.557 0-4.124 1.151-5.146 2.558v-8.376h-3.453V91h3.452v-8.28c0-3.293 1.663-5.306 4.38-5.306 2.558 0 3.932 1.662 3.932 4.763V91h3.453v-9.111c0-5.467-2.973-7.449-6.618-7.449zm17.401 16.752c4.06 0 6.81-2.462 7.385-5.69h-3.453c-.48 1.822-2.014 2.877-4.124 2.877-2.717 0-4.475-1.823-4.571-4.604v-.224h12.34a9.37 9.37 0 00.096-1.31c-.096-4.796-3.261-7.8-7.992-7.8-4.828 0-8.057 3.356-8.057 8.407 0 5.02 3.23 8.344 8.376 8.344zm-4.635-10.166c.256-2.334 2.142-3.804 4.347-3.804 2.398 0 4.092 1.374 4.38 3.804h-8.727zm24.461 5.53c0 2.974 1.343 4.444 4.476 4.444h3.196v-3.037h-2.43c-1.31 0-1.757-.48-1.757-1.758v-8.536h3.996v-3.037h-3.996v-4.571h-3.485v4.571h-2.845v3.037h2.845v8.887zm24.643 1.439c-.704 0-1.055-.224-1.055-1.055v-6.553c0-3.869-2.494-5.947-6.842-5.947-4.123 0-6.873 1.982-7.224 5.18h3.388c.256-1.44 1.63-2.398 3.677-2.398 2.27 0 3.58 1.119 3.58 2.94v.992h-4.124c-4.571 0-7 1.886-7 5.243 0 3.037 2.493 4.795 6.073 4.795 2.653 0 4.316-1.151 5.403-2.813 0 1.63.767 2.621 3.005 2.621h1.822v-3.005h-.703zm-4.476-3.708c-.032 2.525-1.694 4.22-4.571 4.22-1.887 0-3.037-.96-3.037-2.334 0-1.663 1.182-2.462 3.324-2.462h4.284v.576zM84.104 91h3.805l4.315-5.946L96.508 91h4.028l-6.17-8.376 5.818-7.992H96.38l-3.996 5.53-3.9-5.53h-4.028l5.786 7.992L84.104 91z" fill="url(#paint0_linear_1248_7149)"/><defs><linearGradient id="paint0_linear_1248_7149" x1="129" y1="43" x2="0" y2="43" gradientUnits="userSpaceOnUse"><stop stop-color="#FF4343"/><stop offset=".5" stop-color="#9C0B93"/><stop offset="1" stop-color="#4C1BB7"/></linearGradient></defs></svg>