<svg width="100" height="29" viewBox="0 0 100 29" fill="none" xmlns="http://www.w3.org/2000/svg"><rect y=".239" width="100" height="28" rx="14" fill="#000"/><path d="M17.773 10.78h3.097v8.458h1.187V10.78h3.097V9.688h-7.381v1.092zm10.946 1.5c-1.242 0-1.774.519-2.102 1.051l-.15-1.05H25.5v6.957h1.119v-3.547c0-1.105.395-2.32 1.855-2.32h.56v-1.09h-.314zm7.196 5.935c-.313 0-.45-.095-.45-.464V14.71c0-1.624-1.023-2.51-2.797-2.51-1.678 0-2.783.805-2.947 2.169h1.12c.136-.71.79-1.174 1.773-1.174 1.091 0 1.732.546 1.732 1.447v.477H32.3c-1.828 0-2.797.778-2.797 2.17 0 1.268 1.037 2.032 2.565 2.032 1.2 0 1.896-.532 2.333-1.16.014.683.327 1.078 1.255 1.078h.614v-1.023h-.355zm-1.569-1.814c0 1.16-.804 1.964-2.196 1.964-.928 0-1.515-.463-1.515-1.146 0-.791.56-1.16 1.556-1.16h2.155v.342zm8.189-3.056c-.423-.669-1.214-1.146-2.388-1.146-1.923 0-3.342 1.432-3.342 3.56 0 2.265 1.419 3.561 3.342 3.561 1.174 0 1.924-.559 2.388-1.2l.15 1.118h.969v-9.55h-1.12v3.657zm-2.279 4.98c-1.377 0-2.305-1.051-2.305-2.566 0-1.514.928-2.565 2.305-2.565 1.365 0 2.292 1.065 2.292 2.593 0 1.487-.927 2.537-2.292 2.537zm8.128.995c1.61 0 2.756-1.023 3.029-2.415H50.28c-.232.901-.996 1.42-1.978 1.42-1.323 0-2.156-.928-2.197-2.252v-.095h5.403c.014-.164.027-.328.027-.478-.054-2.06-1.337-3.301-3.301-3.301-1.965 0-3.302 1.446-3.302 3.56 0 2.129 1.364 3.561 3.452 3.561zm-2.21-4.27c.109-1.132 1.05-1.87 2.073-1.87 1.16 0 1.979.67 2.088 1.87h-4.161zm13.62-2.851c-1.174 0-1.883.49-2.292 1.023l-.15-.942h-.97v6.958h1.12V15.76c0-1.569.79-2.537 2.1-2.537 1.215 0 1.883.764 1.883 2.21v3.806h1.12v-3.874c0-2.306-1.242-3.165-2.811-3.165zm7.363 7.121c2.033 0 3.452-1.446 3.452-3.56 0-2.115-1.42-3.561-3.452-3.561-2.033 0-3.452 1.446-3.452 3.56 0 2.115 1.419 3.561 3.452 3.561zm0-.996c-1.378 0-2.306-1.077-2.306-2.565 0-1.487.928-2.565 2.306-2.565 1.378 0 2.306 1.078 2.306 2.565 0 1.488-.928 2.565-2.306 2.565zm6.104.914h1.228l1.746-5.17 1.678 5.17h1.228l2.32-6.958h-1.133l-1.814 5.662-1.733-5.662h-1.037l-1.828 5.662-1.733-5.662H71.01l2.251 6.958z" fill="#fff"/></svg>