<svg width="145" height="61" viewBox="0 0 145 61" fill="none" xmlns="http://www.w3.org/2000/svg"><path d="M.38 2.638h4.104V14h2.185V2.638h4.104V.7H.38v1.938zm15.79 1.634c-1.596 0-2.375.646-2.869 1.463l-.228-1.463H11.25V14h2.052V9.117c0-1.501.59-2.926 2.413-2.926h.912V4.272h-.456zm10.317 7.942c-.418 0-.627-.133-.627-.627V7.692c0-2.299-1.482-3.534-4.066-3.534-2.451 0-4.085 1.178-4.294 3.078h2.014c.152-.855.969-1.425 2.185-1.425 1.349 0 2.128.665 2.128 1.748v.589h-2.451c-2.717 0-4.161 1.121-4.161 3.116 0 1.805 1.482 2.85 3.61 2.85 1.577 0 2.565-.684 3.21-1.672 0 .969.457 1.558 1.787 1.558h1.083v-1.786h-.418zm-2.66-2.204c-.02 1.501-1.007 2.508-2.717 2.508-1.121 0-1.805-.57-1.805-1.387 0-.988.703-1.463 1.976-1.463h2.546v.342zm11.512-4.389c-.627-.855-1.672-1.463-3.154-1.463-2.64 0-4.598 1.976-4.598 4.978 0 3.116 1.957 4.978 4.598 4.978 1.54 0 2.546-.722 3.173-1.577L35.605 14h1.786V.7H35.34v4.921zm-2.812 6.764c-1.71 0-2.83-1.33-2.83-3.249 0-1.9 1.12-3.23 2.83-3.23s2.831 1.33 2.831 3.268c0 1.881-1.12 3.211-2.83 3.211zm11.487 1.729c2.413 0 4.047-1.463 4.389-3.382H46.35c-.285 1.083-1.197 1.71-2.451 1.71-1.615 0-2.66-1.083-2.717-2.736v-.133h7.334c.038-.266.057-.532.057-.779-.057-2.85-1.938-4.636-4.75-4.636-2.87 0-4.788 1.995-4.788 4.997 0 2.983 1.919 4.959 4.978 4.959zm-2.755-6.042c.152-1.387 1.273-2.261 2.584-2.261 1.425 0 2.432.817 2.603 2.261h-5.187zm13.968.228c0 3.781 1.786 5.814 5.225 5.814 3.458 0 5.263-2.033 5.263-5.814V.7H63.53v7.714c0 2.47-.95 3.762-3.078 3.762-2.09 0-3.04-1.292-3.04-3.762V.7h-2.185v7.6zm12.31 1.33c.075 2.66 2.07 4.484 5.376 4.484 2.927 0 4.922-1.653 4.922-4.047.019-2.622-2.128-3.325-4.332-3.724-2.09-.361-3.459-.646-3.459-2.014 0-1.254 1.046-1.9 2.547-1.9 1.615 0 2.678.912 2.85 2.261h2.184C77.532 2.239 75.63.586 72.591.586c-2.831 0-4.731 1.577-4.731 3.895 0 2.641 2.09 3.344 4.293 3.724 2.11.38 3.496.684 3.496 2.09 0 1.273-1.14 1.976-2.716 1.976-1.863 0-3.079-1.045-3.193-2.603l-2.203-.038zm16.455 1.159c.057 2.109 1.843 3.325 4.446 3.325 2.356 0 4.123-1.178 4.123-3.04 0-2.166-1.805-2.622-4.028-2.888-1.406-.152-2.337-.266-2.337-1.178 0-.779.798-1.273 2.014-1.273 1.216 0 2.052.627 2.166 1.52h2.014c-.133-1.995-1.824-3.097-4.218-3.097-2.337-.019-3.99 1.178-3.99 3.021 0 2.014 1.748 2.489 3.971 2.755 1.501.19 2.394.266 2.394 1.311 0 .779-.836 1.273-2.109 1.273-1.482 0-2.356-.722-2.432-1.729h-2.014zm15.27-6.631c-1.52 0-2.45.684-3.058 1.52V.7h-2.052V14h2.052V9.079c0-1.957.988-3.154 2.603-3.154 1.52 0 2.337.988 2.337 2.831V14h2.052V8.585c0-3.249-1.767-4.427-3.933-4.427zm14.692 8.056c-.418 0-.627-.133-.627-.627V7.692c0-2.299-1.482-3.534-4.066-3.534-2.451 0-4.085 1.178-4.294 3.078h2.014c.152-.855.969-1.425 2.185-1.425 1.349 0 2.128.665 2.128 1.748v.589h-2.451c-2.717 0-4.161 1.121-4.161 3.116 0 1.805 1.482 2.85 3.61 2.85 1.577 0 2.565-.684 3.211-1.672 0 .969.456 1.558 1.786 1.558h1.083v-1.786h-.418zm-2.66-2.204c-.019 1.501-1.007 2.508-2.717 2.508-1.121 0-1.805-.57-1.805-1.387 0-.988.703-1.463 1.976-1.463h2.546v.342zm9.116-5.738c-1.596 0-2.375.646-2.869 1.463l-.228-1.463h-1.824V14h2.052V9.117c0-1.501.589-2.926 2.413-2.926h.912V4.272h-.456zm5.875 9.842c2.413 0 4.047-1.463 4.389-3.382h-2.052c-.285 1.083-1.197 1.71-2.451 1.71-1.615 0-2.66-1.083-2.717-2.736v-.133h7.334c.038-.266.057-.532.057-.779-.057-2.85-1.938-4.636-4.75-4.636-2.869 0-4.788 1.995-4.788 4.997 0 2.983 1.919 4.959 4.978 4.959zm-2.755-6.042c.152-1.387 1.273-2.261 2.584-2.261 1.425 0 2.432.817 2.603 2.261h-5.187zm8.5 2.717c.057 2.109 1.843 3.325 4.446 3.325 2.356 0 4.123-1.178 4.123-3.04 0-2.166-1.805-2.622-4.028-2.888-1.406-.152-2.337-.266-2.337-1.178 0-.779.798-1.273 2.014-1.273 1.216 0 2.052.627 2.166 1.52h2.014c-.133-1.995-1.824-3.097-4.218-3.097-2.337-.019-3.99 1.178-3.99 3.021 0 2.014 1.748 2.489 3.971 2.755 1.501.19 2.394.266 2.394 1.311 0 .779-.836 1.273-2.109 1.273-1.482 0-2.356-.722-2.432-1.729h-2.014zm9.84 2.033c0 .76.551 1.292 1.311 1.292.76 0 1.33-.532 1.33-1.292s-.57-1.292-1.33-1.292c-.76 0-1.311.532-1.311 1.292zM.684 25.619h7.239l-7.448 9.88V37h10.64v-1.919H3.458l7.448-9.88V23.7H.684v1.919zm16.054 11.495c2.413 0 4.047-1.463 4.39-3.382h-2.053c-.285 1.083-1.197 1.71-2.45 1.71-1.616 0-2.66-1.083-2.718-2.736v-.133h7.334c.038-.266.057-.532.057-.779-.057-2.85-1.938-4.636-4.75-4.636-2.869 0-4.788 1.995-4.788 4.997 0 2.983 1.92 4.959 4.978 4.959zm-2.755-6.042c.152-1.387 1.273-2.261 2.584-2.261 1.425 0 2.432.817 2.603 2.261h-5.187zm13.895-3.8c-1.596 0-2.375.646-2.869 1.463l-.228-1.463h-1.824V37h2.052v-4.883c0-1.501.59-2.926 2.413-2.926h.912v-1.919h-.456zm5.856 9.842c2.964 0 4.959-1.995 4.959-4.978 0-2.964-1.995-4.978-4.96-4.978-2.963 0-4.958 2.014-4.958 4.978 0 2.983 1.995 4.978 4.959 4.978zm0-1.748c-1.73 0-2.85-1.349-2.85-3.23s1.12-3.23 2.85-3.23c1.729 0 2.869 1.349 2.869 3.23s-1.14 3.23-2.87 3.23zm10.843-9.728h4.104V37h2.185V25.638h4.104V23.7H44.577v1.938zM63.8 35.214c-.418 0-.627-.133-.627-.627v-3.895c0-2.299-1.482-3.534-4.066-3.534-2.45 0-4.085 1.178-4.294 3.078h2.014c.152-.855.97-1.425 2.185-1.425 1.35 0 2.128.665 2.128 1.748v.589h-2.45c-2.718 0-4.162 1.121-4.162 3.116 0 1.805 1.482 2.85 3.61 2.85 1.577 0 2.565-.684 3.211-1.672 0 .969.456 1.558 1.786 1.558h1.083v-1.786H63.8zm-2.66-2.204c-.019 1.501-1.007 2.508-2.717 2.508-1.12 0-1.805-.57-1.805-1.387 0-.988.703-1.463 1.976-1.463h2.546v.342zM64.33 37h2.26l2.565-3.534L71.701 37h2.394l-3.667-4.978 3.458-4.75h-2.26l-2.376 3.287-2.318-3.287h-2.394l3.44 4.75L64.328 37zm10.465-1.178c0 .76.55 1.292 1.31 1.292s1.33-.532 1.33-1.292-.57-1.292-1.33-1.292c-.76 0-1.31.532-1.31 1.292zm8.977-10.203h7.239l-7.448 9.88V37h10.64v-1.919h-7.657l7.448-9.88V23.7H83.772v1.919zm16.054 11.495c2.413 0 4.047-1.463 4.389-3.382h-2.052c-.285 1.083-1.197 1.71-2.45 1.71-1.616 0-2.66-1.083-2.718-2.736v-.133h7.334c.038-.266.057-.532.057-.779-.057-2.85-1.938-4.636-4.75-4.636-2.869 0-4.788 1.995-4.788 4.997 0 2.983 1.92 4.959 4.978 4.959zm-2.755-6.042c.152-1.387 1.273-2.261 2.584-2.261 1.425 0 2.432.817 2.603 2.261h-5.187zm13.895-3.8c-1.596 0-2.375.646-2.869 1.463l-.228-1.463h-1.824V37h2.052v-4.883c0-1.501.589-2.926 2.413-2.926h.912v-1.919h-.456zm5.856 9.842c2.964 0 4.959-1.995 4.959-4.978 0-2.964-1.995-4.978-4.959-4.978-2.964 0-4.959 2.014-4.959 4.978 0 2.983 1.995 4.978 4.959 4.978zm0-1.748c-1.729 0-2.85-1.349-2.85-3.23s1.121-3.23 2.85-3.23 2.869 1.349 2.869 3.23-1.14 3.23-2.869 3.23zM5.472 60.114c2.489 0 4.142-1.387 4.522-3.591H7.828c-.247 1.121-1.083 1.843-2.337 1.843-1.653 0-2.736-1.311-2.736-3.211 0-1.919 1.083-3.249 2.736-3.249 1.273 0 2.09.703 2.356 1.843h2.147c-.399-2.204-1.957-3.591-4.465-3.591-2.945 0-4.883 1.995-4.883 4.997 0 3.04 1.881 4.959 4.826 4.959zm10.69 0c2.965 0 4.96-1.995 4.96-4.978 0-2.964-1.995-4.978-4.96-4.978-2.963 0-4.958 2.014-4.958 4.978 0 2.983 1.995 4.978 4.959 4.978zm0-1.748c-1.728 0-2.85-1.349-2.85-3.23s1.122-3.23 2.85-3.23c1.73 0 2.87 1.349 2.87 3.23s-1.14 3.23-2.87 3.23zm17.8-8.208c-1.595 0-2.697.703-3.324 1.767-.59-1.254-1.73-1.767-3.002-1.767-1.463.019-2.3.665-2.85 1.387l-.228-1.273h-1.786V60h2.052v-5.206c0-1.729.874-2.869 2.28-2.869 1.349 0 2.052.893 2.052 2.603V60h2.07v-5.263c0-1.748.894-2.812 2.3-2.812 1.33 0 2.033.893 2.033 2.603V60h2.052v-5.605c0-3.078-1.634-4.237-3.648-4.237zm16.7 0c-1.596 0-2.698.703-3.325 1.767-.59-1.254-1.73-1.767-3.002-1.767-1.463.019-2.3.665-2.85 1.387l-.228-1.273H39.47V60h2.052v-5.206c0-1.729.874-2.869 2.28-2.869 1.349 0 2.052.893 2.052 2.603V60h2.07v-5.263c0-1.748.894-2.812 2.3-2.812 1.33 0 2.033.893 2.033 2.603V60h2.052v-5.605c0-3.078-1.634-4.237-3.648-4.237zm6.553-1.254c.703 0 1.254-.513 1.254-1.235 0-.722-.55-1.235-1.254-1.235-.703 0-1.254.513-1.254 1.235 0 .722.551 1.235 1.254 1.235zM56.17 60h2.052v-9.728H56.17V60zm3.646-3.211c.057 2.109 1.843 3.325 4.446 3.325 2.356 0 4.123-1.178 4.123-3.04 0-2.166-1.805-2.622-4.028-2.888-1.406-.152-2.337-.266-2.337-1.178 0-.779.798-1.273 2.014-1.273 1.216 0 2.052.627 2.166 1.52h2.014c-.133-1.995-1.824-3.097-4.218-3.097-2.337-.019-3.99 1.178-3.99 3.021 0 2.014 1.748 2.489 3.97 2.755 1.502.19 2.395.266 2.395 1.311 0 .779-.836 1.273-2.11 1.273-1.481 0-2.355-.722-2.431-1.729h-2.014zm9.555 0c.057 2.109 1.843 3.325 4.446 3.325 2.356 0 4.123-1.178 4.123-3.04 0-2.166-1.805-2.622-4.028-2.888-1.406-.152-2.337-.266-2.337-1.178 0-.779.798-1.273 2.014-1.273 1.216 0 2.052.627 2.166 1.52h2.014c-.133-1.995-1.824-3.097-4.218-3.097-2.337-.019-3.99 1.178-3.99 3.021 0 2.014 1.748 2.489 3.971 2.755 1.501.19 2.394.266 2.394 1.311 0 .779-.836 1.273-2.109 1.273-1.482 0-2.356-.722-2.432-1.729h-2.014zm11.204-7.885c.703 0 1.254-.513 1.254-1.235 0-.722-.55-1.235-1.254-1.235-.703 0-1.254.513-1.254 1.235 0 .722.551 1.235 1.254 1.235zM79.53 60h2.052v-9.728H79.53V60zm8.662.114c2.964 0 4.959-1.995 4.959-4.978 0-2.964-1.995-4.978-4.96-4.978-2.963 0-4.958 2.014-4.958 4.978 0 2.983 1.995 4.978 4.959 4.978zm0-1.748c-1.73 0-2.85-1.349-2.85-3.23s1.12-3.23 2.85-3.23c1.729 0 2.869 1.349 2.869 3.23s-1.14 3.23-2.87 3.23zm11.739-8.208c-1.577 0-2.508.627-3.116 1.387l-.228-1.273H94.8V60h2.052v-4.902c0-1.976.969-3.173 2.603-3.173 1.539 0 2.318.988 2.318 2.831V60h2.071v-5.415c0-3.249-1.767-4.427-3.914-4.427zm5.59 8.664c0 .76.551 1.292 1.311 1.292.76 0 1.33-.532 1.33-1.292s-.57-1.292-1.33-1.292c-.76 0-1.311.532-1.311 1.292z" fill="#000"/></svg>