<svg width="128" height="73" viewBox="0 0 128 73" fill="none" xmlns="http://www.w3.org/2000/svg"><path d="M.644 6.99c.098 1.848 1.442 3.094 3.64 3.094 2.058 0 3.416-1.12 3.416-2.772 0-1.862-1.652-2.338-3.276-2.618-1.498-.252-2.8-.504-2.8-1.904 0-1.274.994-1.988 2.534-1.988 1.47 0 2.478.826 2.646 2.1h.77C7.434 1.222 6.16.116 4.158.116 2.17.116.868 1.166.868 2.832c0 1.862 1.596 2.282 3.164 2.548 1.54.266 2.912.574 2.912 2.002 0 1.26-1.064 2.016-2.646 2.016-1.652 0-2.772-.952-2.87-2.408H.644zm11.825-4.172c-1.33 0-2.155.742-2.561 1.764V.2h-.714V10h.714V6.5c0-1.848.938-3.024 2.45-3.024 1.357 0 2.197.896 2.197 2.576V10h.715V6.024c0-2.24-1.19-3.206-2.8-3.206zm10.638 6.524c-.42 0-.63-.14-.63-.686V5.352c0-1.624-.994-2.534-2.772-2.534-1.624 0-2.702.784-2.884 2.072h.714c.182-.868.938-1.442 2.142-1.442 1.33 0 2.086.7 2.086 1.876v.616h-2.408c-1.82 0-2.8.784-2.8 2.114 0 1.26.994 2.03 2.506 2.03 1.442 0 2.296-.658 2.73-1.54v.252c-.028.84.322 1.204 1.162 1.204h.42v-.658h-.266zM21.763 7.13c0 1.358-.966 2.338-2.646 2.338-1.134 0-1.834-.574-1.834-1.456 0-.938.7-1.456 2.016-1.456h2.464v.574zm5.463-4.228c-1.316 0-1.876.63-2.17 1.414l-.112-1.414h-.616V10h.714V6.402c0-1.442.378-2.814 2.044-2.814h.518v-.686h-.378zm4.866-.084c-1.33 0-2.254.714-2.702 1.708l-.112-1.624h-.616V12.8h.714V8.362c.406 1.036 1.372 1.722 2.716 1.722 1.946 0 3.346-1.484 3.346-3.64 0-2.226-1.4-3.626-3.346-3.626zm-.056 6.622c-1.582 0-2.674-1.232-2.674-3.01 0-1.736 1.092-2.982 2.674-2.982 1.582 0 2.674 1.246 2.674 2.996 0 1.764-1.092 2.996-2.674 2.996zm7.952.644c1.554 0 2.744-1.008 3.052-2.436h-.728c-.28 1.106-1.218 1.792-2.38 1.792-1.582 0-2.576-1.204-2.604-2.856v-.126h5.796c0-.098.014-.21.014-.294-.07-2.114-1.372-3.346-3.276-3.346-1.946 0-3.276 1.484-3.276 3.584 0 2.226 1.386 3.682 3.402 3.682zm-2.604-4.228c.112-1.442 1.19-2.408 2.492-2.408 1.386 0 2.38.854 2.492 2.408h-4.984zm10.441-3.038c-1.302 0-2.142.672-2.548 1.596l-.112-1.512h-.616V10h.714V6.5c0-1.848.938-3.024 2.45-3.024 1.372 0 2.198.896 2.198 2.576V10h.714V6.024c0-2.24-1.19-3.206-2.8-3.206zM58.107 10l-.462 1.148c-.322.784-.448.994-1.176.994h-.896v.658h1.092c.952 0 1.176-.364 1.624-1.484l3.402-8.414h-.77l-2.422 6.174-2.464-6.174h-.77L58.107 10zm7.379.084c2.002 0 3.416-1.484 3.416-3.64 0-2.142-1.414-3.626-3.416-3.626s-3.402 1.484-3.402 3.626c0 2.156 1.4 3.64 3.402 3.64zm0-.644c-1.582 0-2.674-1.232-2.674-2.996 0-1.75 1.092-2.996 2.674-2.996 1.582 0 2.674 1.246 2.674 2.996 0 1.764-1.092 2.996-2.674 2.996zm9.986-3.052c0 1.862-.923 3.038-2.393 3.038-1.316 0-2.128-.896-2.128-2.59V2.902h-.714v3.976c0 2.226 1.162 3.206 2.73 3.206 1.26 0 2.085-.672 2.492-1.582L75.555 10h.63V2.902h-.714v3.486zm5.293-3.486c-1.316 0-1.876.63-2.17 1.414l-.112-1.414h-.616V10h.714V6.402c0-1.442.378-2.814 2.044-2.814h.518v-.686h-.378zM93.9 2.818c-1.302 0-2.142.728-2.548 1.778-.336-1.176-1.218-1.778-2.338-1.778-1.218 0-1.946.714-2.31 1.596l-.112-1.512h-.616V10h.714V6.388c0-1.736.84-2.912 2.198-2.912 1.232 0 2.002.868 2.002 2.506V10h.714V6.136c.042-1.624.882-2.66 2.212-2.66 1.232 0 1.974.826 1.974 2.436V10h.728V5.884c0-2.142-1.134-3.066-2.618-3.066zm10.447 6.524c-.42 0-.63-.14-.63-.686V5.352c0-1.624-.994-2.534-2.772-2.534-1.624 0-2.702.784-2.884 2.072h.714c.182-.868.938-1.442 2.142-1.442 1.33 0 2.086.7 2.086 1.876v.616h-2.408c-1.82 0-2.8.784-2.8 2.114 0 1.26.994 2.03 2.506 2.03 1.442 0 2.296-.658 2.73-1.54v.252c-.028.84.322 1.204 1.162 1.204h.42v-.658h-.266zm-1.344-2.212c0 1.358-.966 2.338-2.646 2.338-1.134 0-1.834-.574-1.834-1.456 0-.938.7-1.456 2.016-1.456h2.464v.574zm5.463-4.228c-1.316 0-1.876.63-2.17 1.414l-.112-1.414h-.616V10h.714V6.402c0-1.442.378-2.814 2.044-2.814h.518v-.686h-.378zM109.901 10h.714V8.082l1.666-1.708L114.997 10h.868l-3.094-4.144 2.856-2.954h-.882l-4.13 4.256V.2h-.714V10zm9.671.084c1.554 0 2.744-1.008 3.052-2.436h-.728c-.28 1.106-1.218 1.792-2.38 1.792-1.582 0-2.576-1.204-2.604-2.856v-.126h5.796c0-.098.014-.21.014-.294-.07-2.114-1.372-3.346-3.276-3.346-1.946 0-3.276 1.484-3.276 3.584 0 2.226 1.386 3.682 3.402 3.682zm-2.604-4.228c.112-1.442 1.19-2.408 2.492-2.408 1.386 0 2.38.854 2.492 2.408h-4.984zm7.588 2.492c0 1.134.462 1.652 1.666 1.652h1.036v-.658h-.98c-.742 0-1.008-.28-1.008-1.008V3.56h1.918v-.658h-1.918V.914h-.714v1.988h-1.344v.658h1.344v4.788zM.518 27.816c.056 1.47 1.246 2.268 3.024 2.268 1.526 0 2.758-.77 2.758-2.03 0-1.498-1.316-1.792-2.842-2.002-1.106-.154-2.086-.28-2.086-1.274 0-.812.798-1.344 2.002-1.344 1.134 0 1.946.546 2.072 1.47h.728c-.126-1.386-1.26-2.086-2.8-2.086-1.582-.014-2.716.798-2.716 2.016 0 1.428 1.316 1.694 2.772 1.89 1.19.168 2.156.322 2.156 1.372 0 .84-.882 1.372-2.044 1.372-1.358 0-2.24-.63-2.296-1.652H.518zm7.676.532c0 1.134.462 1.652 1.666 1.652h1.036v-.658h-.98c-.742 0-1.008-.28-1.008-1.008V23.56h1.918v-.658H8.908v-1.988h-.714v1.988H6.85v.658h1.344v4.788zm6.687-5.446c-1.316 0-1.876.63-2.17 1.414l-.112-1.414h-.616V30h.714v-3.598c0-1.442.378-2.814 2.044-2.814h.518v-.686h-.378zm7.379 6.44c-.42 0-.63-.14-.63-.686v-3.304c0-1.624-.994-2.534-2.772-2.534-1.624 0-2.702.784-2.884 2.072h.714c.182-.868.938-1.442 2.142-1.442 1.33 0 2.086.7 2.086 1.876v.616h-2.408c-1.82 0-2.8.784-2.8 2.114 0 1.26.994 2.03 2.506 2.03 1.442 0 2.296-.658 2.73-1.54v.252c-.028.84.322 1.204 1.162 1.204h.42v-.658h-.266zm-1.344-2.212c0 1.358-.966 2.338-2.646 2.338-1.134 0-1.834-.574-1.834-1.456 0-.938.7-1.456 2.016-1.456h2.464v.574zm3.097 1.218c0 1.134.462 1.652 1.666 1.652h1.036v-.658h-.98c-.742 0-1.008-.28-1.008-1.008V23.56h1.918v-.658h-1.918v-1.988h-.714v1.988h-1.344v.658h1.344v4.788zm6.705 1.736c1.554 0 2.744-1.008 3.052-2.436h-.728c-.28 1.106-1.218 1.792-2.38 1.792-1.582 0-2.576-1.204-2.604-2.856v-.126h5.796c0-.098.014-.21.014-.294-.07-2.114-1.372-3.346-3.276-3.346-1.946 0-3.276 1.484-3.276 3.584 0 2.226 1.386 3.682 3.402 3.682zm-2.604-4.228c.112-1.442 1.19-2.408 2.492-2.408 1.386 0 2.38.854 2.492 2.408h-4.984zm12.948-1.302c-.434-1.05-1.386-1.736-2.703-1.736-1.946 0-3.346 1.47-3.346 3.626 0 2.24 1.4 3.64 3.346 3.64 1.33 0 2.268-.7 2.716-1.806v1.26c0 1.89-.896 2.702-2.604 2.702-1.33 0-2.253-.602-2.477-1.68h-.742c.223 1.512 1.441 2.324 3.163 2.324 2.297 0 3.374-1.092 3.374-3.318v-6.664h-.616l-.111 1.652zm-2.646 4.886c-1.582 0-2.674-1.232-2.674-2.996s1.092-2.996 2.674-2.996c1.582 0 2.674 1.232 2.674 3.01 0 1.75-1.093 2.982-2.675 2.982zm5.417-8.036c.28 0 .504-.21.504-.504a.493.493 0 00-.504-.504c-.28 0-.504.21-.504.504 0 .294.224.504.504.504zM43.469 30h.714v-7.098h-.714V30zm5.529.084c1.553 0 2.744-1.008 3.052-2.436h-.728c-.28 1.106-1.219 1.792-2.38 1.792-1.583 0-2.577-1.204-2.605-2.856v-.126h5.796c0-.098.014-.21.014-.294-.07-2.114-1.371-3.346-3.276-3.346-1.946 0-3.276 1.484-3.276 3.584 0 2.226 1.386 3.682 3.403 3.682zm-2.604-4.228c.111-1.442 1.19-2.408 2.492-2.408 1.386 0 2.38.854 2.491 2.408h-4.983zm6.83 1.96c.055 1.47 1.245 2.268 3.023 2.268 1.526 0 2.758-.77 2.758-2.03 0-1.498-1.316-1.792-2.842-2.002-1.106-.154-2.086-.28-2.086-1.274 0-.812.798-1.344 2.002-1.344 1.134 0 1.946.546 2.072 1.47h.728c-.126-1.386-1.26-2.086-2.8-2.086-1.582-.014-2.716.798-2.716 2.016 0 1.428 1.316 1.694 2.772 1.89 1.19.168 2.156.322 2.156 1.372 0 .84-.882 1.372-2.044 1.372-1.358 0-2.24-.63-2.296-1.652h-.728zM65.862 30h.77l2.1-5.964L70.735 30h.77l2.52-7.098h-.728l-2.184 6.244-2.03-6.244h-.658l-2.142 6.244-2.072-6.244h-.756L65.863 30zm9.525-8.596c.28 0 .504-.21.504-.504a.493.493 0 00-.504-.504c-.28 0-.504.21-.504.504 0 .294.224.504.504.504zM75.024 30h.714v-7.098h-.714V30zm2.924-1.652c0 1.134.462 1.652 1.666 1.652h1.036v-.658h-.98c-.742 0-1.008-.28-1.008-1.008V23.56h1.918v-.658h-1.918v-1.988h-.714v1.988h-1.344v.658h1.344v4.788zm7.065-5.53c-1.33 0-2.157.742-2.563 1.764V20.2h-.713V30h.714v-3.5c0-1.848.938-3.024 2.45-3.024 1.358 0 2.198.896 2.198 2.576V30h.713v-3.976c0-2.24-1.19-3.206-2.8-3.206zm8.699 5.53c0 1.134.462 1.652 1.666 1.652h1.036v-.658h-.98c-.742 0-1.008-.28-1.008-1.008V23.56h1.918v-.658h-1.918v-1.988h-.714v1.988h-1.344v.658h1.344v4.788zm7.064-5.53c-1.33 0-2.156.742-2.562 1.764V20.2H97.5V30h.714v-3.5c0-1.848.938-3.024 2.45-3.024 1.358 0 2.198.896 2.198 2.576V30h.714v-3.976c0-2.24-1.19-3.206-2.8-3.206zm7.421 7.266c1.554 0 2.744-1.008 3.052-2.436h-.728c-.28 1.106-1.218 1.792-2.38 1.792-1.582 0-2.576-1.204-2.604-2.856v-.126h5.796c0-.098.014-.21.014-.294-.07-2.114-1.372-3.346-3.276-3.346-1.946 0-3.276 1.484-3.276 3.584 0 2.226 1.386 3.682 3.402 3.682zm-2.604-4.228c.112-1.442 1.19-2.408 2.492-2.408 1.386 0 2.38.854 2.492 2.408h-4.984zM4.116 42.818c-1.33 0-2.156.742-2.562 1.764V40.2H.84V50h.714v-3.5c0-1.848.938-3.024 2.45-3.024 1.358 0 2.198.896 2.198 2.576V50h.714v-3.976c0-2.24-1.19-3.206-2.8-3.206zm7.42 7.266c1.555 0 2.745-1.008 3.053-2.436h-.729c-.28 1.106-1.217 1.792-2.38 1.792-1.581 0-2.575-1.204-2.603-2.856v-.126h5.795c0-.098.014-.21.014-.294-.07-2.114-1.371-3.346-3.275-3.346-1.946 0-3.276 1.484-3.276 3.584 0 2.226 1.386 3.682 3.402 3.682zm-2.603-4.228c.112-1.442 1.19-2.408 2.492-2.408 1.385 0 2.38.854 2.491 2.408H8.933zM16.098 50h.714v-9.8h-.714V50zm5.822-7.182c-1.33 0-2.254.714-2.702 1.708l-.112-1.624h-.616V52.8h.714v-4.438c.406 1.036 1.372 1.722 2.716 1.722 1.946 0 3.346-1.484 3.346-3.64 0-2.226-1.4-3.626-3.346-3.626zm-.056 6.622c-1.582 0-2.674-1.232-2.674-3.01 0-1.736 1.092-2.982 2.674-2.982 1.582 0 2.674 1.246 2.674 2.996 0 1.764-1.092 2.996-2.674 2.996zm11.725.644c2.002 0 3.416-1.484 3.416-3.64 0-2.142-1.414-3.626-3.416-3.626s-3.402 1.484-3.402 3.626c0 2.156 1.4 3.64 3.402 3.64zm0-.644c-1.582 0-2.674-1.232-2.674-2.996 0-1.75 1.092-2.996 2.674-2.996 1.582 0 2.674 1.246 2.674 2.996 0 1.764-1.092 2.996-2.674 2.996zm3.914-5.88h1.344V50h.714v-6.44h2.128v-.658H39.56v-1.064c0-.7.266-.98.98-.98h1.162V40.2h-1.19c-1.19 0-1.666.518-1.666 1.652v1.05h-1.344v.658zm12.253-.742c-1.33 0-2.254.714-2.702 1.708l-.112-1.624h-.616V52.8h.714v-4.438c.406 1.036 1.372 1.722 2.716 1.722 1.946 0 3.346-1.484 3.346-3.64 0-2.226-1.4-3.626-3.346-3.626zM49.7 49.44c-1.582 0-2.674-1.232-2.674-3.01 0-1.736 1.092-2.982 2.674-2.982 1.582 0 2.674 1.246 2.674 2.996 0 1.764-1.092 2.996-2.674 2.996zm7.952.644c1.554 0 2.744-1.008 3.052-2.436h-.728c-.28 1.106-1.218 1.792-2.38 1.792-1.582 0-2.576-1.204-2.604-2.856v-.126h5.796c0-.098.014-.21.014-.294-.07-2.114-1.372-3.346-3.276-3.346-1.946 0-3.276 1.484-3.276 3.584 0 2.226 1.386 3.682 3.402 3.682zm-2.604-4.228c.112-1.442 1.19-2.408 2.492-2.408 1.386 0 2.38.854 2.492 2.408h-4.984zm10.063-2.954c-1.316 0-1.876.63-2.17 1.414l-.112-1.414h-.616V50h.714v-3.598c0-1.442.378-2.814 2.044-2.814h.518v-.686h-.378zm.936 4.914c.056 1.47 1.246 2.268 3.024 2.268 1.526 0 2.758-.77 2.758-2.03 0-1.498-1.316-1.792-2.842-2.002-1.106-.154-2.086-.28-2.086-1.274 0-.812.798-1.344 2.002-1.344 1.134 0 1.946.546 2.072 1.47h.728c-.126-1.386-1.26-2.086-2.8-2.086-1.582-.014-2.716.798-2.716 2.016 0 1.428 1.316 1.694 2.772 1.89 1.19.168 2.156.322 2.156 1.372 0 .84-.882 1.372-2.044 1.372-1.358 0-2.24-.63-2.296-1.652h-.728zm10.28 2.268c2.003 0 3.417-1.484 3.417-3.64 0-2.142-1.414-3.626-3.416-3.626s-3.402 1.484-3.402 3.626c0 2.156 1.4 3.64 3.402 3.64zm0-.644c-1.581 0-2.673-1.232-2.673-2.996 0-1.75 1.092-2.996 2.674-2.996 1.582 0 2.674 1.246 2.674 2.996 0 1.764-1.092 2.996-2.674 2.996zm8.111-6.622c-1.302 0-2.142.672-2.548 1.596l-.112-1.512h-.616V50h.714v-3.5c0-1.848.938-3.024 2.45-3.024 1.372 0 2.198.896 2.198 2.576V50h.714v-3.976c0-2.24-1.19-3.206-2.8-3.206zm10.624 6.524c-.42 0-.63-.14-.63-.686v-3.304c0-1.624-.993-2.534-2.772-2.534-1.623 0-2.701.784-2.883 2.072h.713c.183-.868.939-1.442 2.142-1.442 1.33 0 2.087.7 2.087 1.876v.616H91.31c-1.82 0-2.8.784-2.8 2.114 0 1.26.993 2.03 2.505 2.03 1.442 0 2.296-.658 2.73-1.54v.252c-.027.84.323 1.204 1.163 1.204h.42v-.658h-.266zM93.72 47.13c0 1.358-.966 2.338-2.646 2.338-1.134 0-1.834-.574-1.834-1.456 0-.938.7-1.456 2.015-1.456h2.465v.574zM96.282 50h.714v-9.8h-.714V50zm2.757-8.596c.28 0 .504-.21.504-.504a.493.493 0 00-.504-.504c-.28 0-.504.21-.504.504 0 .294.224.504.504.504zM98.676 50h.714v-7.098h-.714V50zm2.071-2.184c.056 1.47 1.246 2.268 3.024 2.268 1.526 0 2.758-.77 2.758-2.03 0-1.498-1.316-1.792-2.842-2.002-1.106-.154-2.086-.28-2.086-1.274 0-.812.798-1.344 2.002-1.344 1.134 0 1.946.546 2.072 1.47h.728c-.126-1.386-1.26-2.086-2.8-2.086-1.582-.014-2.716.798-2.716 2.016 0 1.428 1.316 1.694 2.772 1.89 1.19.168 2.156.322 2.156 1.372 0 .84-.882 1.372-2.044 1.372-1.358 0-2.24-.63-2.296-1.652h-.728zm10.28 2.268c1.554 0 2.744-1.008 3.052-2.436h-.728c-.28 1.106-1.218 1.792-2.38 1.792-1.582 0-2.576-1.204-2.604-2.856v-.126h5.796c0-.098.014-.21.014-.294-.07-2.114-1.372-3.346-3.276-3.346-1.946 0-3.276 1.484-3.276 3.584 0 2.226 1.386 3.682 3.402 3.682zm-2.604-4.228c.112-1.442 1.19-2.408 2.492-2.408 1.386 0 2.38.854 2.492 2.408h-4.984zm12.961-1.358c-.434-1.008-1.386-1.68-2.716-1.68-1.946 0-3.346 1.484-3.346 3.626 0 2.24 1.4 3.64 3.346 3.64 1.33 0 2.254-.714 2.702-1.708l.112 1.624h.616v-9.8h-.714v4.298zm-2.66 4.942c-1.582 0-2.674-1.232-2.674-2.996 0-1.75 1.092-2.996 2.674-2.996 1.582 0 2.674 1.246 2.674 3.01 0 1.75-1.092 2.982-2.674 2.982zM1.204 61.404c.28 0 .504-.21.504-.504a.493.493 0 00-.504-.504c-.28 0-.504.21-.504.504 0 .294.224.504.504.504zM.84 70h.714v-7.098H.84V70zm5.669-7.182c-1.302 0-2.142.672-2.548 1.596l-.112-1.512h-.616V70h.714v-3.5c0-1.848.938-3.024 2.45-3.024 1.372 0 2.198.896 2.198 2.576V70h.714v-3.976c0-2.24-1.19-3.206-2.8-3.206zm4.058 4.998c.056 1.47 1.246 2.268 3.024 2.268 1.526 0 2.758-.77 2.758-2.03 0-1.498-1.316-1.792-2.842-2.002-1.106-.154-2.086-.28-2.086-1.274 0-.812.798-1.344 2.002-1.344 1.134 0 1.946.546 2.072 1.47h.728c-.126-1.386-1.26-2.086-2.8-2.086-1.582-.014-2.716.798-2.716 2.016 0 1.428 1.316 1.694 2.772 1.89 1.19.168 2.156.322 2.156 1.372 0 .84-.882 1.372-2.044 1.372-1.358 0-2.24-.63-2.296-1.652h-.728zm7.508-6.412c.28 0 .504-.21.504-.504a.493.493 0 00-.504-.504c-.28 0-.504.21-.504.504 0 .294.224.504.504.504zM17.711 70h.714v-7.098h-.714V70zm8.175-5.446c-.434-1.05-1.386-1.736-2.702-1.736-1.946 0-3.346 1.47-3.346 3.626 0 2.24 1.4 3.64 3.346 3.64 1.33 0 2.268-.7 2.716-1.806v1.26c0 1.89-.896 2.702-2.604 2.702-1.33 0-2.254-.602-2.478-1.68h-.742c.224 1.512 1.442 2.324 3.164 2.324 2.296 0 3.374-1.092 3.374-3.318v-6.664h-.616l-.112 1.652zM23.24 69.44c-1.582 0-2.674-1.232-2.674-2.996s1.092-2.996 2.674-2.996c1.582 0 2.674 1.232 2.674 3.01 0 1.75-1.092 2.982-2.674 2.982zm8.33-6.622c-1.33 0-2.157.742-2.563 1.764V60.2h-.714V70h.714v-3.5c0-1.848.938-3.024 2.45-3.024 1.358 0 2.198.896 2.198 2.576V70h.714v-3.976c0-2.24-1.19-3.206-2.8-3.206zm4.925 5.53c0 1.134.462 1.652 1.666 1.652h1.036v-.658h-.98c-.742 0-1.008-.28-1.008-1.008V63.56h1.918v-.658h-1.918v-1.988h-.714v1.988h-1.344v.658h1.344v4.788zm3.466-.532c.056 1.47 1.246 2.268 3.024 2.268 1.526 0 2.758-.77 2.758-2.03 0-1.498-1.316-1.792-2.842-2.002-1.106-.154-2.086-.28-2.086-1.274 0-.812.798-1.344 2.002-1.344 1.134 0 1.946.546 2.072 1.47h.728c-.126-1.386-1.26-2.086-2.8-2.086-1.582-.014-2.716.798-2.716 2.016 0 1.428 1.316 1.694 2.772 1.89 1.19.168 2.156.322 2.156 1.372 0 .84-.882 1.372-2.044 1.372-1.358 0-2.24-.63-2.296-1.652h-.728zm6.938 1.722c0 .322.224.532.532.532.308 0 .532-.21.532-.532 0-.322-.224-.518-.532-.518-.308 0-.532.196-.532.518z" fill="#000"/></svg>