<svg width="213" height="78" viewBox="0 0 213 78" fill="none" xmlns="http://www.w3.org/2000/svg"><path d="M.8 5.08h8.64V29h4.6V5.08h8.64V1H.8v4.08zm33.242 3.44c-3.36 0-5 1.36-6.04 3.08l-.48-3.08h-3.84V29h4.32V18.72c0-3.16 1.24-6.16 5.08-6.16h1.92V8.52h-.96zm21.72 16.72c-.88 0-1.32-.28-1.32-1.32v-8.2c0-4.84-3.12-7.44-8.56-7.44-5.16 0-8.6 2.48-9.04 6.48h4.24c.32-1.8 2.04-3 4.6-3 2.84 0 4.48 1.4 4.48 3.68v1.24h-5.16c-5.72 0-8.76 2.36-8.76 6.56 0 3.8 3.12 6 7.6 6 3.32 0 5.4-1.44 6.76-3.52 0 2.04.96 3.28 3.76 3.28h2.28v-3.76h-.88zm-5.6-4.64c-.04 3.16-2.12 5.28-5.72 5.28-2.36 0-3.8-1.2-3.8-2.92 0-2.08 1.48-3.08 4.16-3.08h5.36v.72zm24.237-9.24c-1.32-1.8-3.52-3.08-6.64-3.08-5.56 0-9.68 4.16-9.68 10.48 0 6.56 4.12 10.48 9.68 10.48 3.24 0 5.36-1.52 6.68-3.32l.52 3.08h3.76V1h-4.32v10.36zm-5.92 14.24c-3.6 0-5.96-2.8-5.96-6.84 0-4 2.36-6.8 5.96-6.8s5.96 2.8 5.96 6.88c0 3.96-2.36 6.76-5.96 6.76zm24.181 3.64c5.08 0 8.52-3.08 9.24-7.12h-4.32c-.6 2.28-2.52 3.6-5.16 3.6-3.4 0-5.6-2.28-5.72-5.76v-.28h15.44c.08-.56.12-1.12.12-1.64-.12-6-4.08-9.76-10-9.76-6.04 0-10.08 4.2-10.08 10.52 0 6.28 4.04 10.44 10.48 10.44zm-5.8-12.72c.32-2.92 2.68-4.76 5.44-4.76 3 0 5.12 1.72 5.48 4.76H86.86zm29.407.48c0 7.96 3.76 12.24 11 12.24 7.28 0 11.08-4.28 11.08-12.24V1h-4.6v16.24c0 5.2-2 7.92-6.48 7.92-4.4 0-6.4-2.72-6.4-7.92V1h-4.6v16zm25.915 2.8c.16 5.6 4.36 9.44 11.32 9.44 6.16 0 10.36-3.48 10.36-8.52.04-5.52-4.48-7-9.12-7.84-4.4-.76-7.28-1.36-7.28-4.24 0-2.64 2.2-4 5.36-4 3.4 0 5.64 1.92 6 4.76h4.6c-.2-5.16-4.2-8.64-10.6-8.64-5.96 0-9.96 3.32-9.96 8.2 0 5.56 4.4 7.04 9.04 7.84 4.44.8 7.36 1.44 7.36 4.4 0 2.68-2.4 4.16-5.72 4.16-3.92 0-6.48-2.2-6.72-5.48l-4.64-.08zM1.44 67.8c.16 5.6 4.36 9.44 11.32 9.44 6.16 0 10.36-3.48 10.36-8.52.04-5.52-4.48-7-9.12-7.84-4.4-.76-7.28-1.36-7.28-4.24 0-2.64 2.2-4 5.36-4 3.4 0 5.64 1.92 6 4.76h4.6c-.2-5.16-4.2-8.64-10.6-8.64-5.96 0-9.96 3.32-9.96 8.2 0 5.56 4.4 7.04 9.04 7.84 4.44.8 7.36 1.44 7.36 4.4 0 2.68-2.4 4.16-5.72 4.16-3.92 0-6.48-2.2-6.72-5.48l-4.64-.08zm36.05-11.52c-3.2 0-5.16 1.44-6.44 3.2V49h-4.32v28h4.32V66.64c0-4.12 2.08-6.64 5.48-6.64 3.2 0 4.92 2.08 4.92 5.96V77h4.32V65.6c0-6.84-3.72-9.32-8.28-9.32zm30.928 16.96c-.88 0-1.32-.28-1.32-1.32v-8.2c0-4.84-3.12-7.44-8.56-7.44-5.16 0-8.6 2.48-9.04 6.48h4.24c.32-1.8 2.04-3 4.6-3 2.84 0 4.48 1.4 4.48 3.68v1.24h-5.16c-5.72 0-8.76 2.36-8.76 6.56 0 3.8 3.12 6 7.6 6 3.32 0 5.4-1.44 6.76-3.52 0 2.04.96 3.28 3.76 3.28h2.28v-3.76h-.88zm-5.6-4.64c-.04 3.16-2.12 5.28-5.72 5.28-2.36 0-3.8-1.2-3.8-2.92 0-2.08 1.48-3.08 4.16-3.08h5.36v.72zm19.193-12.08c-3.36 0-5 1.36-6.04 3.08l-.48-3.08h-3.84V77h4.32V66.72c0-3.16 1.24-6.16 5.08-6.16h1.92v-4.04h-.96zM94.38 77.24c5.08 0 8.52-3.08 9.24-7.12h-4.32c-.6 2.28-2.52 3.6-5.16 3.6-3.4 0-5.6-2.28-5.72-5.76v-.28h15.44c.08-.56.12-1.12.12-1.64-.12-6-4.08-9.76-10-9.76-6.04 0-10.08 4.2-10.08 10.52 0 6.28 4.04 10.44 10.48 10.44zm-5.8-12.72c.32-2.92 2.68-4.76 5.44-4.76 3 0 5.12 1.72 5.48 4.76H88.58zm41.727 12.72c6.52 0 11.28-3.84 12.16-9.76h-4.76c-.88 3.56-3.56 5.72-7.44 5.72-5.28 0-8.48-4.24-8.48-10.2 0-6 3.28-10.2 8.6-10.2 3.8 0 6.44 2.2 7.36 5.72h4.76c-.92-5.92-5.52-9.76-11.92-9.76-8.28 0-13.52 5.72-13.52 14.24 0 8.6 5.08 14.24 13.24 14.24zm15.965-.24h4.6V65.16h10.96V61.2h-10.96v-8.12h13.28V49h-17.88v28zm30.926 0c8.76 0 14.28-5.72 14.28-14.04S185.957 49 177.197 49h-9.52v28h9.52zm-4.92-24h4.92c6.16 0 9.56 3.96 9.56 9.96 0 6-3.4 10.04-9.56 10.04h-4.92V53zm21.932 17.24c.12 4.44 3.88 7 9.36 7 4.96 0 8.68-2.48 8.68-6.4 0-4.56-3.8-5.52-8.48-6.08-2.96-.32-4.92-.56-4.92-2.48 0-1.64 1.68-2.68 4.24-2.68 2.56 0 4.32 1.32 4.56 3.2h4.24c-.28-4.2-3.84-6.52-8.88-6.52-4.92-.04-8.4 2.48-8.4 6.36 0 4.24 3.68 5.24 8.36 5.8 3.16.4 5.04.56 5.04 2.76 0 1.64-1.76 2.68-4.44 2.68-3.12 0-4.96-1.52-5.12-3.64h-4.24z" fill="#000"/></svg>