<svg width="180" height="40" viewBox="0 0 180 40" fill="none" xmlns="http://www.w3.org/2000/svg"><rect x=".5" width="179" height="40" rx="20" fill="#fff"/><path d="M36.773 26.102c2.686 0 4.658-1.53 5.1-3.995h-1.564c-.442 1.666-1.717 2.635-3.553 2.635-2.499 0-4.029-1.955-4.029-4.692 0-2.754 1.598-4.692 4.097-4.692 1.785 0 3.043.986 3.502 2.635h1.564c-.442-2.465-2.363-3.995-4.998-3.995-3.451 0-5.678 2.448-5.678 6.052 0 3.638 2.142 6.052 5.559 6.052zm10.694-8.772c-1.547 0-2.21.646-2.618 1.309l-.187-1.309h-1.207V26h1.394v-4.42c0-1.377.493-2.89 2.312-2.89h.697v-1.36h-.391zm5.096 8.772c2.006 0 3.434-1.275 3.774-3.009h-1.41c-.29 1.122-1.242 1.768-2.466 1.768-1.649 0-2.686-1.156-2.737-2.805v-.119h6.732c.017-.204.034-.408.034-.595-.068-2.567-1.666-4.114-4.114-4.114s-4.114 1.802-4.114 4.437c0 2.652 1.7 4.437 4.301 4.437zm-2.754-5.321c.136-1.411 1.31-2.329 2.584-2.329 1.445 0 2.465.833 2.601 2.329H49.81zm15.939 3.944c-.391 0-.561-.119-.561-.578v-3.791c0-2.023-1.275-3.128-3.485-3.128-2.091 0-3.468 1.003-3.672 2.703h1.394c.17-.884.986-1.462 2.21-1.462 1.36 0 2.159.68 2.159 1.802v.595h-2.55c-2.278 0-3.485.969-3.485 2.703 0 1.581 1.292 2.533 3.196 2.533 1.496 0 2.363-.663 2.907-1.445.017.85.408 1.343 1.564 1.343h.765v-1.275h-.442zm-1.955-2.261c0 1.445-1.003 2.448-2.737 2.448-1.156 0-1.887-.578-1.887-1.428 0-.986.697-1.445 1.938-1.445h2.686v.425zm4.115 1.275c0 1.53.595 2.261 2.26 2.261h1.514v-1.275h-1.377c-.748 0-1.003-.272-1.003-1.003v-5.117h2.244V17.33h-2.244v-2.431h-1.394v2.431h-1.564v1.275h1.564v5.134zm8.76 2.363c2.007 0 3.435-1.275 3.775-3.009h-1.411c-.29 1.122-1.241 1.768-2.465 1.768-1.65 0-2.686-1.156-2.737-2.805v-.119h6.732c.017-.204.034-.408.034-.595-.068-2.567-1.666-4.114-4.114-4.114s-4.114 1.802-4.114 4.437c0 2.652 1.7 4.437 4.3 4.437zm-2.753-5.321c.136-1.411 1.309-2.329 2.584-2.329 1.445 0 2.465.833 2.6 2.329h-5.184zM87.4 26l1.258-3.213h5.185L95.102 26h1.58l-4.521-11.9H90.41L85.87 26h1.53zm3.842-10.285l2.159 5.729H89.1l2.142-5.729zm10.093 10.387c2.108 0 3.519-1.19 3.859-3.06h-1.479c-.272 1.105-1.122 1.819-2.363 1.819-1.666 0-2.788-1.292-2.788-3.179 0-1.887 1.122-3.213 2.788-3.213 1.275 0 2.125.697 2.38 1.853h1.462c-.357-1.904-1.7-3.094-3.825-3.094-2.516 0-4.233 1.802-4.233 4.454 0 2.703 1.666 4.42 4.199 4.42zm9.28 0c2.108 0 3.519-1.19 3.859-3.06h-1.479c-.272 1.105-1.122 1.819-2.363 1.819-1.666 0-2.788-1.292-2.788-3.179 0-1.887 1.122-3.213 2.788-3.213 1.275 0 2.125.697 2.38 1.853h1.462c-.357-1.904-1.7-3.094-3.825-3.094-2.516 0-4.233 1.802-4.233 4.454 0 2.703 1.666 4.42 4.199 4.42zm9.383 0c2.533 0 4.301-1.802 4.301-4.437 0-2.635-1.768-4.437-4.301-4.437-2.533 0-4.301 1.802-4.301 4.437 0 2.635 1.768 4.437 4.301 4.437zm0-1.241c-1.717 0-2.873-1.343-2.873-3.196 0-1.853 1.156-3.196 2.873-3.196 1.717 0 2.873 1.343 2.873 3.196 0 1.853-1.156 3.196-2.873 3.196zm11.968-3.196c0 1.955-.952 3.162-2.533 3.162-1.445 0-2.261-.952-2.261-2.754V17.33h-1.394v4.828c0 2.873 1.513 3.944 3.417 3.944 1.428 0 2.261-.612 2.771-1.258l.187 1.156h1.207v-8.67h-1.394v4.335zm7.545-4.437c-1.462 0-2.346.612-2.856 1.275l-.187-1.173h-1.207V26h1.394v-4.335c0-1.955.986-3.162 2.618-3.162 1.513 0 2.346.952 2.346 2.754V26h1.394v-4.828c0-2.873-1.547-3.944-3.502-3.944zm5.925 6.511c0 1.53.595 2.261 2.261 2.261h1.513v-1.275h-1.377c-.748 0-1.003-.272-1.003-1.003v-5.117h2.244V17.33h-2.244v-2.431h-1.394v2.431h-1.564v1.275h1.564v5.134z" fill="#000"/></svg>