<svg width="409" height="24" viewBox="0 0 409 24" fill="none" xmlns="http://www.w3.org/2000/svg"><path d="M.6 18.5h6.65c4.225 0 6.5-1.9 6.5-5 0-2.5-1.6-3.725-3.675-4.05 1.825-.5 3-1.75 3-3.825 0-2.875-2.2-4.625-6.05-4.625H.6v17.5zM7.1 3.4c2 0 3.1.95 3.1 2.5 0 1.575-1.125 2.525-3.1 2.525H3.475V3.4H7.1zm.175 7.4c2.225 0 3.525.95 3.525 2.675 0 1.625-1.225 2.6-3.525 2.6h-3.8V10.8h3.8zm14.799 7.85c3.175 0 5.325-1.925 5.775-4.45h-2.7c-.375 1.425-1.575 2.25-3.225 2.25-2.125 0-3.5-1.425-3.575-3.6v-.175h9.65c.05-.35.075-.7.075-1.025-.075-3.75-2.55-6.1-6.25-6.1-3.775 0-6.3 2.625-6.3 6.575 0 3.925 2.525 6.525 6.55 6.525zm-3.625-7.95c.2-1.825 1.675-2.975 3.4-2.975 1.875 0 3.2 1.075 3.425 2.975h-6.825zm24.68-5c-2.1 0-3.126.85-3.776 1.925l-.3-1.925h-2.4v12.8h2.7v-6.425c0-1.975.775-3.85 3.175-3.85h1.2V5.7h-.6zm7.729 12.95c3.175 0 5.325-1.925 5.775-4.45h-2.7c-.375 1.425-1.575 2.25-3.225 2.25-2.125 0-3.5-1.425-3.575-3.6v-.175h9.65c.05-.35.075-.7.075-1.025-.075-3.75-2.55-6.1-6.25-6.1-3.775 0-6.3 2.625-6.3 6.575 0 3.925 2.525 6.525 6.55 6.525zm-3.625-7.95c.2-1.825 1.675-2.975 3.4-2.975 1.875 0 3.2 1.075 3.425 2.975h-6.825zm14.318 7.8h2.925l2.8-8.7 2.7 8.7h2.9l4.25-12.8h-2.75l-3.025 9.8-2.8-9.8h-2.475l-2.925 9.8-2.925-9.8h-2.85l4.175 12.8zm28.16-2.35c-.55 0-.826-.175-.826-.825V10.2c0-3.025-1.95-4.65-5.35-4.65-3.224 0-5.374 1.55-5.65 4.05h2.65c.2-1.125 1.276-1.875 2.876-1.875 1.775 0 2.8.875 2.8 2.3v.775h-3.225c-3.576 0-5.476 1.475-5.476 4.1 0 2.375 1.95 3.75 4.75 3.75 2.075 0 3.375-.9 4.225-2.2 0 1.275.6 2.05 2.35 2.05h1.425v-2.35h-.55zm-3.5-2.9c-.025 1.975-1.326 3.3-3.576 3.3-1.475 0-2.375-.75-2.375-1.825 0-1.3.925-1.925 2.6-1.925h3.35v.45zM98.206 5.7c-2.1 0-3.125.85-3.775 1.925l-.3-1.925h-2.4v12.8h2.7v-6.425c0-1.975.775-3.85 3.175-3.85h1.2V5.7h-.6zm11.38 1.775c-.825-1.125-2.2-1.925-4.15-1.925-3.475 0-6.05 2.6-6.05 6.55 0 4.1 2.575 6.55 6.05 6.55 2.025 0 3.35-.95 4.175-2.075l.325 1.925h2.35V1h-2.7v6.475zm-3.7 8.9c-2.25 0-3.725-1.75-3.725-4.275 0-2.5 1.475-4.25 3.725-4.25s3.725 1.75 3.725 4.3c0 2.475-1.475 4.225-3.725 4.225zM121 18.65c3.175 0 5.325-1.925 5.775-4.45h-2.7c-.375 1.425-1.575 2.25-3.225 2.25-2.125 0-3.5-1.425-3.575-3.6v-.175h9.65c.05-.35.075-.7.075-1.025-.075-3.75-2.55-6.1-6.25-6.1-3.775 0-6.3 2.625-6.3 6.575 0 3.925 2.525 6.525 6.55 6.525zm-3.625-7.95c.2-1.825 1.675-2.975 3.4-2.975 1.875 0 3.2 1.075 3.425 2.975h-6.825zm21.532-3.225c-.825-1.125-2.2-1.925-4.15-1.925-3.475 0-6.05 2.6-6.05 6.55 0 4.1 2.575 6.55 6.05 6.55 2.025 0 3.35-.95 4.175-2.075l.325 1.925h2.35V1h-2.7v6.475zm-3.7 8.9c-2.25 0-3.725-1.75-3.725-4.275 0-2.5 1.475-4.25 3.725-4.25s3.725 1.75 3.725 4.3c0 2.475-1.475 4.225-3.725 4.225zm18.385 2.125h2.925l2.8-8.7 2.7 8.7h2.9l4.25-12.8h-2.75l-3.025 9.8-2.8-9.8h-2.475l-2.925 9.8-2.925-9.8h-2.85l4.175 12.8zm18.372-14.6c.925 0 1.65-.675 1.65-1.625S172.889.65 171.964.65c-.925 0-1.65.675-1.65 1.625s.725 1.625 1.65 1.625zm-1.375 14.6h2.7V5.7h-2.7v12.8zm6.271-3.475c0 2.325 1.05 3.475 3.5 3.475h2.5v-2.375h-1.9c-1.025 0-1.375-.375-1.375-1.375V8.075h3.125V5.7h-3.125V2.125h-2.725V5.7h-2.225v2.375h2.225v6.95zm14.443-9.475c-2 0-3.225.9-4.025 2V1h-2.7v17.5h2.7v-6.475c0-2.575 1.3-4.15 3.425-4.15 2 0 3.075 1.3 3.075 3.725v6.9h2.7v-7.125c0-4.275-2.325-5.825-5.175-5.825zm14.302 12.95h2.875v-4.625l3.025-3.4 5.5 8.025h3.475l-6.9-10.15L220.005 1h-3.5l-8.025 9.025V1h-2.875v17.5zm22.93-12.95c-2.075 0-3.3.825-4.1 1.825l-.3-1.675h-2.35v12.8h2.7v-6.45c0-2.6 1.275-4.175 3.425-4.175 2.025 0 3.05 1.3 3.05 3.725v6.9h2.725v-7.125c0-4.275-2.325-5.825-5.15-5.825zm13.558 13.1c3.9 0 6.525-2.625 6.525-6.55 0-3.9-2.625-6.55-6.525-6.55-3.9 0-6.525 2.65-6.525 6.55 0 3.925 2.625 6.55 6.525 6.55zm0-2.3c-2.275 0-3.75-1.775-3.75-4.25s1.475-4.25 3.75-4.25 3.775 1.775 3.775 4.25-1.5 4.25-3.775 4.25zm14.571 2.3c3.275 0 5.45-1.825 5.95-4.725h-2.85c-.325 1.475-1.425 2.425-3.075 2.425-2.175 0-3.6-1.725-3.6-4.225 0-2.525 1.425-4.275 3.6-4.275 1.675 0 2.75.925 3.1 2.425h2.825c-.525-2.9-2.575-4.725-5.875-4.725-3.875 0-6.425 2.625-6.425 6.575 0 4 2.475 6.525 6.35 6.525zm8.016-.15h2.7v-3.25l2.3-2.4 3.775 5.65h3.2l-5.125-7.625 4.825-5.175h-3.175l-5.8 6.2V1h-2.7v17.5zm18.526.15c3.9 0 6.525-2.625 6.525-6.55 0-3.9-2.625-6.55-6.525-6.55-3.9 0-6.525 2.65-6.525 6.55 0 3.925 2.625 6.55 6.525 6.55zm0-2.3c-2.275 0-3.75-1.775-3.75-4.25s1.475-4.25 3.75-4.25 3.775 1.775 3.775 4.25-1.5 4.25-3.775 4.25zm17.471-4.25c0 2.65-1.25 4.2-3.3 4.2-1.975 0-2.975-1.275-2.975-3.775V5.7h-2.7v7.125c0 4.375 2.325 5.825 5.05 5.825 1.975 0 3.15-.8 3.95-1.775l.3 1.625h2.375V5.7h-2.7v6.4zm6.359 2.925c0 2.325 1.05 3.475 3.5 3.475h2.5v-2.375h-1.9c-1.025 0-1.375-.375-1.375-1.375V8.075h3.125V5.7h-3.125V2.125h-2.725V5.7h-2.225v2.375h2.225v6.95zM337.75 9.75c0-5.125-3.475-8.9-8.5-8.9s-8.5 3.775-8.5 8.9 3.475 8.9 8.5 8.9 8.5-3.775 8.5-8.9zm-14.05 0c0-3.7 2.225-6.375 5.55-6.375 3.325 0 5.55 2.675 5.55 6.375s-2.225 6.375-5.55 6.375c-3.325 0-5.55-2.675-5.55-6.375zm23.148-4.2c-2 0-3.325.925-4.175 2.05l-.325-1.9h-2.35v17.8h2.7v-6.8c.8 1.15 2.175 1.95 4.15 1.95 3.5 0 6.05-2.6 6.05-6.55 0-4.1-2.55-6.55-6.05-6.55zm-.45 10.825c-2.25 0-3.725-1.775-3.725-4.325 0-2.475 1.475-4.2 3.725-4.2s3.75 1.725 3.75 4.25c0 2.5-1.5 4.275-3.75 4.275zm9.491-1.35c0 2.325 1.05 3.475 3.5 3.475h2.5v-2.375h-1.9c-1.025 0-1.375-.375-1.375-1.375V8.075h3.125V5.7h-3.125V2.125h-2.725V5.7h-2.225v2.375h2.225v6.95zM364.981 3.9c.925 0 1.65-.675 1.65-1.625S365.906.65 364.981.65c-.925 0-1.65.675-1.65 1.625s.725 1.625 1.65 1.625zm-1.375 14.6h2.7V5.7h-2.7v12.8zm11.397.15c3.9 0 6.525-2.625 6.525-6.55 0-3.9-2.625-6.55-6.525-6.55-3.9 0-6.525 2.65-6.525 6.55 0 3.925 2.625 6.55 6.525 6.55zm0-2.3c-2.275 0-3.75-1.775-3.75-4.25s1.475-4.25 3.75-4.25 3.775 1.775 3.775 4.25-1.5 4.25-3.775 4.25zm15.446-10.8c-2.075 0-3.3.825-4.1 1.825l-.3-1.675h-2.35v12.8h2.7v-6.45c0-2.6 1.275-4.175 3.425-4.175 2.025 0 3.05 1.3 3.05 3.725v6.9h2.725v-7.125c0-4.275-2.325-5.825-5.15-5.825zm7.055 8.725c.075 2.775 2.425 4.375 5.85 4.375 3.1 0 5.425-1.55 5.425-4 0-2.85-2.375-3.45-5.3-3.8-1.85-.2-3.075-.35-3.075-1.55 0-1.025 1.05-1.675 2.65-1.675 1.6 0 2.7.825 2.85 2h2.65c-.175-2.625-2.4-4.075-5.55-4.075-3.075-.025-5.25 1.55-5.25 3.975 0 2.65 2.3 3.275 5.225 3.625 1.975.25 3.15.35 3.15 1.725 0 1.025-1.1 1.675-2.775 1.675-1.95 0-3.1-.95-3.2-2.275h-2.65z" fill="#000"/></svg>