<svg width="81" height="15" viewBox="0 0 81 15" fill="none" xmlns="http://www.w3.org/2000/svg"><path d="M2.997 11.049l-.298.745c-.239.627-.388.776-1.014.776H.552v1.416h1.73c1.117 0 1.445-.552 1.922-1.789l3.46-8.826H5.948l-2.073 5.8-2.132-5.8H.03l2.967 7.678zm8.74.045c2.325 0 3.89-1.566 3.89-3.906 0-2.326-1.565-3.906-3.89-3.906-2.327 0-3.892 1.58-3.892 3.906 0 2.34 1.565 3.906 3.891 3.906zm0-1.372c-1.358 0-2.237-1.058-2.237-2.534 0-1.476.88-2.535 2.236-2.535 1.357 0 2.251 1.059 2.251 2.535 0 1.476-.894 2.534-2.25 2.534zm10.418-2.534c0 1.58-.745 2.504-1.968 2.504-1.178 0-1.774-.76-1.774-2.25V3.37h-1.61V7.62c0 2.609 1.386 3.474 3.011 3.474 1.178 0 1.879-.477 2.356-1.059l.179.97h1.416V3.37h-1.61v3.817zm7.058-3.817c-1.252 0-1.863.507-2.251 1.148l-.179-1.148h-1.431v7.633h1.61V7.173c0-1.178.462-2.296 1.893-2.296h.716V3.37h-.358zm5.717 5.561c0 1.386.626 2.072 2.087 2.072h1.491V9.588h-1.133c-.611 0-.82-.224-.82-.82v-3.98h1.864V3.37h-1.864V1.239H34.93v2.132h-1.327v1.416h1.327v4.145zm8.464-5.561c-1.252 0-1.864.507-2.251 1.148l-.18-1.148h-1.43v7.633h1.61V7.173c0-1.178.462-2.296 1.893-2.296h.716V3.37h-.358zm8.095 6.232c-.328 0-.492-.104-.492-.492V6.055c0-1.804-1.163-2.773-3.19-2.773-1.924 0-3.206.924-3.37 2.415h1.58c.12-.671.761-1.118 1.715-1.118 1.059 0 1.67.521 1.67 1.371v.462h-1.923c-2.132 0-3.265.88-3.265 2.445 0 1.417 1.163 2.237 2.832 2.237 1.238 0 2.013-.537 2.52-1.312 0 .76.358 1.222 1.401 1.222h.85V9.603h-.328zm-2.087-1.73c-.015 1.178-.79 1.968-2.132 1.968-.88 0-1.416-.447-1.416-1.088 0-.775.551-1.148 1.55-1.148h1.998v.268zm9.033-3.443c-.492-.671-1.312-1.148-2.474-1.148-2.073 0-3.608 1.55-3.608 3.906 0 2.445 1.535 3.906 3.608 3.906 1.207 0 1.997-.567 2.49-1.238l.193 1.148h1.402V.568h-1.61V4.43zM56.23 9.737c-1.342 0-2.221-1.044-2.221-2.55 0-1.49.88-2.534 2.22-2.534 1.343 0 2.222 1.044 2.222 2.564 0 1.476-.88 2.52-2.221 2.52zm6.21-7.44c.552 0 .984-.402.984-.968 0-.567-.432-.97-.984-.97s-.984.403-.984.97c0 .566.432.969.984.969zm-.82 8.707h1.61V3.371h-1.61v7.633zm7.214-7.722c-1.237 0-1.968.492-2.445 1.088l-.18-.999h-1.4v7.633h1.61V7.158c0-1.55.76-2.49 2.042-2.49 1.208 0 1.819.775 1.819 2.221v4.115h1.625V6.755c0-2.55-1.386-3.473-3.071-3.473zm10.365 1.282c-.492-.76-1.312-1.282-2.505-1.282-2.072 0-3.608 1.535-3.608 3.876 0 2.43 1.536 3.876 3.608 3.876 1.193 0 1.983-.492 2.49-1.252v.85c0 1.46-.79 2.132-2.192 2.132-1.133 0-1.878-.492-2.072-1.342h-1.64c.149 1.714 1.565 2.653 3.593 2.653 2.743 0 3.906-1.311 3.906-3.384v-7.32h-1.401l-.18 1.193zM76.96 9.677c-1.341 0-2.221-1.028-2.221-2.52 0-1.475.88-2.519 2.221-2.519 1.342 0 2.222 1.044 2.222 2.55 0 1.46-.88 2.49-2.222 2.49z" fill="#000"/></svg>