<svg width="176" height="9" viewBox="0 0 176 9" fill="none" xmlns="http://www.w3.org/2000/svg"><path d="M.195.656h2.343V7h.527V.656h2.342V.168H.195v.488zM11.53 6.551c-.274 0-.469-.059-.674-.312l-.488-.566L11.92 3.31h-.527l-1.327 2-1.523-1.786-.058-.068c1.307-.546 1.776-1.171 1.776-1.932 0-.81-.635-1.416-1.493-1.416C7.752.11 7 .783 7 1.681c0 .624.215 1.015.742 1.659-1.19.508-1.67 1.21-1.67 1.981 0 1.123.889 1.738 2.002 1.738.76 0 1.425-.342 1.98-.996l.48.566c.233.283.555.371.926.371h.684v-.449h-.615zM8.728.539c.605 0 1.024.42 1.024.995 0 .664-.458 1.142-1.532 1.61-.498-.595-.703-.936-.703-1.473 0-.654.498-1.132 1.21-1.132zm-.645 6.07c-.858 0-1.503-.487-1.503-1.327 0-.712.4-1.151 1.416-1.64l.146.166 1.62 1.913c-.459.576-1.034.889-1.679.889zm8.07.45c1.465 0 2.5-.791 2.792-2.167h-.556c-.293 1.093-1.084 1.679-2.245 1.679-1.581 0-2.576-1.24-2.576-2.987S14.582.597 16.163.597c1.141 0 1.942.596 2.244 1.67h.557C18.662.9 17.628.108 16.193.108c-1.923 0-3.172 1.425-3.172 3.475 0 2.07 1.22 3.475 3.133 3.475zm3.585-1.582c.04 1.025.869 1.582 2.108 1.582 1.064 0 1.923-.537 1.923-1.416 0-1.044-.917-1.249-1.981-1.395-.771-.108-1.454-.196-1.454-.888 0-.567.556-.937 1.395-.937.79 0 1.357.38 1.445 1.024h.507c-.088-.966-.878-1.454-1.952-1.454-1.103-.01-1.893.556-1.893 1.406 0 .995.917 1.18 1.932 1.317.83.117 1.503.225 1.503.957 0 .585-.615.956-1.425.956-.946 0-1.561-.44-1.6-1.152h-.508zm11.964 1.064c-.293 0-.439-.097-.439-.478V3.76c0-1.132-.693-1.767-1.932-1.767-1.133 0-1.884.547-2.01 1.445h.497c.127-.606.654-1.006 1.493-1.006.927 0 1.454.488 1.454 1.308v.43h-1.678c-1.27 0-1.952.546-1.952 1.473 0 .879.693 1.416 1.747 1.416 1.005 0 1.6-.46 1.903-1.074v.176c-.02.585.224.839.81.839h.293v-.459h-.186zM30.765 5c0 .947-.673 1.63-1.844 1.63-.79 0-1.279-.4-1.279-1.015 0-.654.488-1.015 1.406-1.015h1.717v.4zm4.18-3.006c-.928 0-1.572.498-1.884 1.19l-.078-1.131h-.43v6.9h.498V5.858c.283.722.957 1.2 1.894 1.2 1.356 0 2.332-1.034 2.332-2.537 0-1.552-.976-2.528-2.332-2.528zm-.04 4.617c-1.102 0-1.864-.86-1.864-2.099 0-1.21.762-2.079 1.865-2.079 1.102 0 1.864.869 1.864 2.089 0 1.23-.762 2.089-1.864 2.089zm5.749-4.617c-.927 0-1.572.498-1.884 1.19l-.078-1.131h-.43v6.9h.498V5.858c.283.722.957 1.2 1.894 1.2 1.356 0 2.332-1.034 2.332-2.537 0-1.552-.975-2.528-2.332-2.528zm-.04 4.617c-1.102 0-1.863-.86-1.863-2.099 0-1.21.76-2.079 1.864-2.079 1.103 0 1.864.869 1.864 2.089 0 1.23-.761 2.089-1.864 2.089zm3.358.39h.498V.168h-.498V7zm3.151 0l-.322.8c-.224.547-.312.693-.82.693h-.624v.459h.761c.664 0 .82-.254 1.132-1.035l2.372-5.865h-.537l-1.688 4.304-1.718-4.304h-.537L47.123 7zm2.719-.322c0 .224.156.37.37.37.215 0 .371-.146.371-.37 0-.225-.156-.361-.37-.361-.215 0-.371.136-.371.36zM58.237 7v-.488h-3.27V.168h-.527V7h3.797zm2.656.059c1.396 0 2.382-1.035 2.382-2.538 0-1.493-.986-2.528-2.382-2.528-1.395 0-2.371 1.035-2.371 2.528 0 1.503.976 2.538 2.371 2.538zm0-.45c-1.102 0-1.864-.858-1.864-2.088 0-1.22.761-2.089 1.864-2.089 1.103 0 1.865.869 1.865 2.089 0 1.23-.762 2.089-1.865 2.089zm3.137-1.132c.039 1.025.868 1.582 2.108 1.582 1.064 0 1.923-.537 1.923-1.416 0-1.044-.918-1.249-1.982-1.395-.77-.108-1.454-.196-1.454-.888 0-.567.556-.937 1.396-.937.79 0 1.356.38 1.444 1.024h.508c-.088-.966-.879-1.454-1.952-1.454-1.103-.01-1.894.556-1.894 1.406 0 .995.918 1.18 1.933 1.317.83.117 1.503.225 1.503.957 0 .585-.615.956-1.425.956-.947 0-1.562-.44-1.6-1.152h-.508zm4.66 0c.04 1.025.87 1.582 2.109 1.582 1.064 0 1.922-.537 1.922-1.416 0-1.044-.917-1.249-1.98-1.395-.772-.108-1.455-.196-1.455-.888 0-.567.556-.937 1.396-.937.79 0 1.356.38 1.444 1.024h.508c-.088-.966-.879-1.454-1.952-1.454-1.103-.01-1.894.556-1.894 1.406 0 .995.918 1.18 1.933 1.317.83.117 1.503.225 1.503.957 0 .585-.615.956-1.425.956-.947 0-1.562-.44-1.6-1.152h-.508zm7.167 1.582c1.084 0 1.913-.703 2.128-1.699h-.507c-.196.771-.85 1.25-1.66 1.25-1.102 0-1.795-.84-1.815-1.991V4.53h4.04c0-.069.01-.147.01-.205-.048-1.474-.956-2.333-2.283-2.333-1.357 0-2.284 1.035-2.284 2.499 0 1.552.966 2.567 2.371 2.567zM74.042 4.11c.078-1.005.83-1.679 1.737-1.679.967 0 1.66.596 1.738 1.679h-3.475zm4.761 1.366c.04 1.025.869 1.582 2.109 1.582 1.063 0 1.922-.537 1.922-1.416 0-1.044-.917-1.249-1.981-1.395-.771-.108-1.454-.196-1.454-.888 0-.567.556-.937 1.395-.937.79 0 1.357.38 1.445 1.024h.507c-.087-.966-.878-1.454-1.952-1.454-1.102-.01-1.893.556-1.893 1.406 0 .995.917 1.18 1.932 1.317.83.117 1.503.225 1.503.957 0 .585-.614.956-1.424.956-.947 0-1.562-.44-1.601-1.152h-.508zm9.768 1.582c1.123 0 1.913-.645 2.109-1.65h-.527c-.166.732-.762 1.2-1.582 1.2-1.083 0-1.834-.849-1.834-2.078 0-1.23.741-2.099 1.834-2.099.83 0 1.416.469 1.591 1.21h.518c-.205-1.024-.976-1.649-2.099-1.649-1.395 0-2.352 1.035-2.352 2.538 0 1.522.947 2.528 2.342 2.528zm7.43-.518c-.294 0-.44-.097-.44-.478V3.76c0-1.132-.693-1.767-1.933-1.767-1.132 0-1.883.547-2.01 1.445h.498c.127-.606.653-1.006 1.493-1.006.927 0 1.454.488 1.454 1.308v.43h-1.679c-1.268 0-1.952.546-1.952 1.473 0 .879.693 1.416 1.748 1.416 1.005 0 1.6-.46 1.903-1.074v.176c-.02.585.224.839.81.839h.293v-.459H96zM95.062 5c0 .947-.673 1.63-1.844 1.63-.791 0-1.28-.4-1.28-1.015 0-.654.489-1.015 1.406-1.015h1.718v.4zm4.072-3.006c-.908 0-1.493.469-1.776 1.113l-.078-1.054h-.43V7h.498V4.56c0-1.288.654-2.108 1.708-2.108.956 0 1.532.624 1.532 1.796V7h.498V4.228c0-1.561-.83-2.235-1.952-2.235zm7.871 5.066c1.083 0 1.913-.703 2.127-1.699h-.507c-.195.771-.849 1.25-1.659 1.25-1.103 0-1.796-.84-1.816-1.991V4.53h4.041c0-.069.01-.147.01-.205-.049-1.474-.957-2.333-2.284-2.333-1.357 0-2.284 1.035-2.284 2.499 0 1.552.966 2.567 2.372 2.567zM105.19 4.11c.078-1.005.83-1.679 1.737-1.679.967 0 1.66.596 1.738 1.679h-3.475zM109.487 7h.576l1.639-2.176L113.342 7h.605l-1.923-2.528 1.826-2.42h-.567l-1.561 2.05-1.542-2.05h-.596l1.826 2.42L109.487 7zm7.087.059c1.123 0 1.913-.645 2.108-1.65h-.527c-.166.732-.761 1.2-1.581 1.2-1.083 0-1.835-.849-1.835-2.078 0-1.23.742-2.099 1.835-2.099.83 0 1.415.469 1.591 1.21h.517c-.205-1.024-.976-1.649-2.098-1.649-1.396 0-2.352 1.035-2.352 2.538 0 1.522.947 2.528 2.342 2.528zm5.262 0c1.084 0 1.913-.703 2.128-1.699h-.508c-.195.771-.849 1.25-1.659 1.25-1.103 0-1.796-.84-1.815-1.991V4.53h4.04c0-.069.01-.147.01-.205-.049-1.474-.956-2.333-2.284-2.333-1.356 0-2.283 1.035-2.283 2.499 0 1.552.966 2.567 2.371 2.567zm-1.815-2.948c.078-1.005.829-1.679 1.737-1.679.966 0 1.659.596 1.737 1.679h-3.474zm7.181 2.948c1.084 0 1.913-.703 2.128-1.699h-.508c-.195.771-.849 1.25-1.659 1.25-1.103 0-1.796-.84-1.815-1.991V4.53h4.041c0-.069.009-.147.009-.205-.049-1.474-.956-2.333-2.284-2.333-1.356 0-2.283 1.035-2.283 2.499 0 1.552.966 2.567 2.371 2.567zm-1.815-2.948c.078-1.005.83-1.679 1.737-1.679.966 0 1.659.596 1.737 1.679h-3.474zm9.036-.947c-.303-.702-.966-1.17-1.894-1.17-1.356 0-2.332 1.034-2.332 2.527 0 1.562.976 2.538 2.332 2.538.928 0 1.572-.498 1.884-1.191L134.491 7h.43V.168h-.498v2.996zm-1.855 3.446c-1.103 0-1.864-.86-1.864-2.089 0-1.22.761-2.089 1.864-2.089 1.103 0 1.865.869 1.865 2.099 0 1.22-.762 2.079-1.865 2.079zm10.195-3.446c-.303-.702-.967-1.17-1.894-1.17-1.356 0-2.332 1.034-2.332 2.527 0 1.562.976 2.538 2.332 2.538.927 0 1.572-.498 1.884-1.191L142.831 7h.429V.168h-.497v2.996zm-1.855 3.446c-1.103 0-1.864-.86-1.864-2.089 0-1.22.761-2.089 1.864-2.089 1.103 0 1.864.869 1.864 2.099 0 1.22-.761 2.079-1.864 2.079zm5.709.449c1.084 0 1.913-.703 2.128-1.699h-.507c-.196.771-.85 1.25-1.66 1.25-1.102 0-1.795-.84-1.815-1.991V4.53h4.041c0-.069.009-.147.009-.205-.048-1.474-.956-2.333-2.283-2.333-1.357 0-2.284 1.035-2.284 2.499 0 1.552.966 2.567 2.371 2.567zm-1.815-2.948c.078-1.005.83-1.679 1.737-1.679.967 0 1.66.596 1.738 1.679h-3.475zm7.386-2.118c-.927 0-1.571.498-1.883 1.19l-.078-1.131h-.43v6.9h.498V5.858c.283.722.957 1.2 1.893 1.2 1.357 0 2.333-1.034 2.333-2.537 0-1.552-.976-2.528-2.333-2.528zm-.039 4.617c-1.102 0-1.864-.86-1.864-2.099 0-1.21.762-2.079 1.864-2.079 1.103 0 1.865.869 1.865 2.089 0 1.23-.762 2.089-1.865 2.089zm5.544.449c1.395 0 2.381-1.035 2.381-2.538 0-1.493-.986-2.528-2.381-2.528-1.396 0-2.372 1.035-2.372 2.528 0 1.503.976 2.538 2.372 2.538zm0-.45c-1.103 0-1.864-.858-1.864-2.088 0-1.22.761-2.089 1.864-2.089 1.103 0 1.864.869 1.864 2.089 0 1.23-.761 2.089-1.864 2.089zm3.136-1.132c.039 1.025.869 1.582 2.108 1.582 1.064 0 1.923-.537 1.923-1.416 0-1.044-.917-1.249-1.981-1.395-.771-.108-1.454-.196-1.454-.888 0-.567.556-.937 1.395-.937.791 0 1.357.38 1.445 1.024h.507c-.088-.966-.878-1.454-1.952-1.454-1.103-.01-1.893.556-1.893 1.406 0 .995.917 1.18 1.932 1.317.83.117 1.503.225 1.503.957 0 .585-.615.956-1.425.956-.946 0-1.561-.44-1.6-1.152h-.508zm5.235-4.47a.344.344 0 00.351-.351.344.344 0 00-.351-.351.344.344 0 00-.352.351c0 .205.156.351.352.351zM165.81 7h.498V2.052h-.498V7zm2.039-1.152c0 .79.322 1.152 1.161 1.152h.722v-.459h-.683c-.517 0-.703-.195-.703-.702V2.51h1.338v-.458h-1.338V.666h-.497v1.386h-.937v.458h.937v3.338zm2.416-.37c.039 1.024.869 1.58 2.108 1.58 1.064 0 1.923-.536 1.923-1.415 0-1.044-.917-1.249-1.981-1.395-.771-.108-1.454-.196-1.454-.888 0-.567.556-.937 1.395-.937.791 0 1.357.38 1.445 1.024h.507c-.088-.966-.878-1.454-1.952-1.454-1.103-.01-1.893.556-1.893 1.406 0 .995.917 1.18 1.932 1.317.83.117 1.503.225 1.503.957 0 .585-.615.956-1.425.956-.946 0-1.561-.44-1.6-1.152h-.508zm4.836 1.2c0 .224.157.37.371.37a.353.353 0 00.371-.37c0-.225-.156-.361-.371-.361-.214 0-.371.136-.371.36z" fill="#000"/></svg>