<svg width="203" height="39" viewBox="0 0 203 39" fill="none" xmlns="http://www.w3.org/2000/svg"><path d="M17.555.37C8.823.424 1.965 4.228 1.965 12.64c0 7.34 6.108 9.322 14.626 11.357 6.161 1.554 7.232 1.768 7.232 3.911 0 1.715-1.821 2.465-3.91 2.465-4.768 0-10.18-1.393-15.054-4.126l-4.5 7.5c5.142 3.43 11.464 5.25 18.429 5.25 9.643 0 15.697-4.392 15.697-12.375 0-7.66-6.268-9.803-15.055-12.16-5.839-1.447-6.535-1.93-6.535-3.108 0-1.714 1.66-2.464 3.589-2.464 3.697 0 8.732 1.285 13.018 3.482l4.233-7.768C29.342 1.924 23.555.37 17.555.37zm32.787 38.038V.96H40.27v37.448h10.072zm17.735-9.054V.906H58.005v37.502h28.448v-9.054H68.077zm42.986 9.054L125.42.906h-12.054l-8.893 25.662L95.741.906H83.687l14.197 37.502h13.179zM161.215 9.96V.906h-30.697v37.502h31.019v-9.054H140.59v-5.626h19.179v-8.571H140.59V9.96h20.625zm6.03-9v37.448h10.072V26.996h6l7.286 11.412h11.625l-8.411-12.75c5.197-1.769 7.394-5.573 7.394-11.68 0-9.161-4.876-13.018-17.09-13.018h-16.876zm10.072 9.054h7.286c4.446 0 6.107 1.393 6.107 4.607 0 3.268-1.661 4.607-6.107 4.607h-7.286v-9.214z" fill="#09B45B"/></svg>