<svg width="384" height="38" viewBox="0 0 384 38" fill="none" xmlns="http://www.w3.org/2000/svg"><path d="M4.416 12c3.552 0 5.632-2.208 5.632-5.6 0-3.408-2.08-5.6-5.632-5.6H1.152V12h3.264zm-2.4-10.4h2.4c3.056 0 4.752 1.856 4.752 4.8 0 2.928-1.696 4.8-4.752 4.8h-2.4V1.6zm10.172.576c.32 0 .576-.24.576-.576a.564.564 0 00-.575-.576c-.32 0-.576.24-.576.576 0 .336.255.576.575.576zM11.774 12h.816V3.888h-.816V12zm2.366-2.496c.064 1.68 1.424 2.592 3.456 2.592 1.744 0 3.152-.88 3.152-2.32 0-1.712-1.504-2.048-3.248-2.288-1.264-.176-2.384-.32-2.384-1.456 0-.928.912-1.536 2.288-1.536 1.296 0 2.224.624 2.368 1.68h.832c-.144-1.584-1.44-2.384-3.2-2.384-1.808-.016-3.104.912-3.104 2.304 0 1.632 1.504 1.936 3.168 2.16 1.36.192 2.464.368 2.464 1.568 0 .96-1.008 1.568-2.336 1.568-1.552 0-2.56-.72-2.624-1.888h-.832zm11.7 2.592c1.84 0 3.137-1.056 3.457-2.704h-.864c-.272 1.2-1.248 1.968-2.592 1.968-1.776 0-3.008-1.392-3.008-3.408s1.216-3.44 3.008-3.44c1.36 0 2.32.768 2.608 1.984h.848c-.336-1.68-1.6-2.704-3.44-2.704-2.288 0-3.856 1.696-3.856 4.16 0 2.496 1.552 4.144 3.84 4.144zm8.627 0c2.288 0 3.904-1.696 3.904-4.16 0-2.448-1.616-4.144-3.904-4.144s-3.888 1.696-3.888 4.144c0 2.464 1.6 4.16 3.888 4.16zm0-.736c-1.808 0-3.056-1.408-3.056-3.424 0-2 1.248-3.424 3.056-3.424s3.056 1.424 3.056 3.424c0 2.016-1.248 3.424-3.056 3.424zm7.533.64h.976l3.169-8.112h-.849l-2.784 7.168-2.8-7.168h-.88L42 12zm8.498.096c1.776 0 3.136-1.152 3.488-2.784h-.832c-.32 1.264-1.392 2.048-2.72 2.048-1.808 0-2.944-1.376-2.976-3.264v-.144h6.624c0-.112.016-.24.016-.336-.08-2.416-1.568-3.824-3.744-3.824-2.224 0-3.744 1.696-3.744 4.096 0 2.544 1.584 4.208 3.888 4.208zm-2.976-4.832c.128-1.648 1.36-2.752 2.848-2.752 1.584 0 2.72.976 2.848 2.752h-5.696zm11.501-3.376c-1.504 0-2.144.72-2.48 1.616l-.128-1.616h-.704V12h.816V7.888c0-1.648.432-3.216 2.336-3.216h.592v-.784h-.432zm9.698-.096c-1.52 0-2.464.848-2.928 2.016V.8h-.816V12h.816V8c0-2.112 1.072-3.456 2.8-3.456 1.552 0 2.512 1.024 2.512 2.944V12h.816V7.456c0-2.56-1.36-3.664-3.2-3.664zm8.48 8.304c2.288 0 3.904-1.696 3.904-4.16 0-2.448-1.616-4.144-3.904-4.144s-3.888 1.696-3.888 4.144c0 2.464 1.6 4.16 3.888 4.16zm0-.736c-1.808 0-3.056-1.408-3.056-3.424 0-2 1.248-3.424 3.056-3.424s3.056 1.424 3.056 3.424c0 2.016-1.248 3.424-3.056 3.424zm7.244.64h.88l2.4-6.816L90.012 12h.88l2.88-8.112h-.832l-2.496 7.136-2.32-7.136h-.752l-2.448 7.136-2.368-7.136h-.864L84.444 12zm21.406-6.288c-.496-1.152-1.584-1.92-3.104-1.92-2.224 0-3.824 1.696-3.824 4.144 0 2.56 1.6 4.16 3.824 4.16 1.52 0 2.576-.816 3.088-1.952l.128 1.856h.704V.8h-.816v4.912zm-3.04 5.648c-1.808 0-3.056-1.408-3.056-3.424 0-2 1.248-3.424 3.056-3.424s3.056 1.424 3.056 3.44c0 2-1.248 3.408-3.056 3.408zm12.911-.112c-.48 0-.72-.16-.72-.784V6.688c0-1.856-1.136-2.896-3.168-2.896-1.856 0-3.088.896-3.296 2.368h.816c.208-.992 1.072-1.648 2.448-1.648 1.52 0 2.384.8 2.384 2.144v.704h-2.752c-2.08 0-3.2.896-3.2 2.416 0 1.44 1.136 2.32 2.864 2.32 1.648 0 2.624-.752 3.12-1.76v.288c-.032.96.368 1.376 1.328 1.376h.48v-.752h-.304zm-1.536-2.528c0 1.552-1.104 2.672-3.024 2.672-1.296 0-2.096-.656-2.096-1.664 0-1.072.8-1.664 2.304-1.664h2.816v.656zm3.539 1.392c0 1.296.528 1.888 1.904 1.888h1.184v-.752h-1.12c-.848 0-1.152-.32-1.152-1.152V4.64h2.192v-.752h-2.192V1.616h-.816v2.272h-1.536v.752h1.536v5.472zm11.294 1.136c-.48 0-.72-.16-.72-.784V6.688c0-1.856-1.136-2.896-3.168-2.896-1.856 0-3.088.896-3.296 2.368h.816c.208-.992 1.072-1.648 2.448-1.648 1.52 0 2.384.8 2.384 2.144v.704h-2.752c-2.08 0-3.2.896-3.2 2.416 0 1.44 1.136 2.32 2.864 2.32 1.648 0 2.624-.752 3.12-1.76v.288c-.032.96.368 1.376 1.328 1.376h.48v-.752h-.304zm-1.536-2.528c0 1.552-1.104 2.672-3.024 2.672-1.296 0-2.096-.656-2.096-1.664 0-1.072.8-1.664 2.304-1.664h2.816v.656zm10.78 3.376c1.84 0 3.136-1.056 3.456-2.704h-.864c-.272 1.2-1.248 1.968-2.592 1.968-1.776 0-3.008-1.392-3.008-3.408s1.216-3.44 3.008-3.44c1.36 0 2.32.768 2.608 1.984h.848c-.336-1.68-1.6-2.704-3.44-2.704-2.288 0-3.856 1.696-3.856 4.16 0 2.496 1.552 4.144 3.84 4.144zm12.178-.848c-.48 0-.72-.16-.72-.784V6.688c0-1.856-1.136-2.896-3.168-2.896-1.856 0-3.088.896-3.296 2.368h.816c.208-.992 1.072-1.648 2.448-1.648 1.52 0 2.384.8 2.384 2.144v.704h-2.752c-2.08 0-3.2.896-3.2 2.416 0 1.44 1.136 2.32 2.864 2.32 1.648 0 2.624-.752 3.12-1.76v.288c-.032.96.368 1.376 1.328 1.376h.48v-.752h-.304zm-1.536-2.528c0 1.552-1.104 2.672-3.024 2.672-1.296 0-2.096-.656-2.096-1.664 0-1.072.8-1.664 2.304-1.664h2.816v.656zm6.675-4.928c-1.488 0-2.448.768-2.912 1.824l-.128-1.728h-.704V12h.816V8c0-2.112 1.072-3.456 2.8-3.456 1.568 0 2.512 1.024 2.512 2.944V12h.816V7.456c0-2.56-1.36-3.664-3.2-3.664zm12.903 8.304c1.776 0 3.136-1.152 3.488-2.784h-.832c-.32 1.264-1.392 2.048-2.72 2.048-1.808 0-2.944-1.376-2.976-3.264v-.144h6.624c0-.112.016-.24.016-.336-.08-2.416-1.568-3.824-3.744-3.824-2.224 0-3.744 1.696-3.744 4.096 0 2.544 1.584 4.208 3.888 4.208zm-2.976-4.832c.128-1.648 1.36-2.752 2.848-2.752 1.584 0 2.72.976 2.848 2.752h-5.696zm11.932-3.472c-1.488 0-2.448.768-2.912 1.824l-.128-1.728h-.704V12h.816V8c0-2.112 1.072-3.456 2.8-3.456 1.568 0 2.512 1.024 2.512 2.944V12h.816V7.456c0-2.56-1.36-3.664-3.2-3.664zm8.75 0c-1.52 0-2.464.848-2.928 2.016V.8h-.816V12h.816V8c0-2.112 1.072-3.456 2.8-3.456 1.552 0 2.512 1.024 2.512 2.944V12h.816V7.456c0-2.56-1.36-3.664-3.2-3.664zm12.158 7.456c-.48 0-.72-.16-.72-.784V6.688c0-1.856-1.136-2.896-3.168-2.896-1.856 0-3.088.896-3.296 2.368h.816c.208-.992 1.072-1.648 2.448-1.648 1.52 0 2.384.8 2.384 2.144v.704h-2.752c-2.08 0-3.2.896-3.2 2.416 0 1.44 1.136 2.32 2.864 2.32 1.648 0 2.624-.752 3.12-1.76v.288c-.032.96.368 1.376 1.328 1.376h.48v-.752h-.304zM196.81 8.72c0 1.552-1.104 2.672-3.024 2.672-1.296 0-2.096-.656-2.096-1.664 0-1.072.8-1.664 2.304-1.664h2.816v.656zm6.675-4.928c-1.488 0-2.448.768-2.912 1.824l-.128-1.728h-.704V12h.816V8c0-2.112 1.072-3.456 2.8-3.456 1.568 0 2.512 1.024 2.512 2.944V12h.816V7.456c0-2.56-1.36-3.664-3.2-3.664zm8.417 8.304c1.84 0 3.136-1.056 3.456-2.704h-.864c-.272 1.2-1.248 1.968-2.592 1.968-1.776 0-3.008-1.392-3.008-3.408s1.216-3.44 3.008-3.44c1.36 0 2.32.768 2.608 1.984h.848c-.336-1.68-1.6-2.704-3.44-2.704-2.288 0-3.856 1.696-3.856 4.16 0 2.496 1.552 4.144 3.84 4.144zm8.626 0c1.776 0 3.136-1.152 3.488-2.784h-.832c-.32 1.264-1.392 2.048-2.72 2.048-1.808 0-2.944-1.376-2.976-3.264v-.144h6.624c0-.112.016-.24.016-.336-.08-2.416-1.568-3.824-3.744-3.824-2.224 0-3.744 1.696-3.744 4.096 0 2.544 1.584 4.208 3.888 4.208zm-2.976-4.832c.128-1.648 1.36-2.752 2.848-2.752 1.584 0 2.72.976 2.848 2.752h-5.696zM232.486 12l-.528 1.312c-.368.896-.512 1.136-1.344 1.136h-1.024v.752h1.248c1.088 0 1.344-.416 1.856-1.696l3.888-9.616h-.88l-2.768 7.056-2.816-7.056h-.88L232.486 12zm8.433.096c2.288 0 3.904-1.696 3.904-4.16 0-2.448-1.616-4.144-3.904-4.144s-3.888 1.696-3.888 4.144c0 2.464 1.6 4.16 3.888 4.16zm0-.736c-1.808 0-3.056-1.408-3.056-3.424 0-2 1.248-3.424 3.056-3.424s3.056 1.424 3.056 3.424c0 2.016-1.248 3.424-3.056 3.424zm11.413-3.488c0 2.128-1.056 3.472-2.736 3.472-1.504 0-2.432-1.024-2.432-2.96V3.888h-.816v4.544c0 2.544 1.328 3.664 3.12 3.664 1.44 0 2.384-.768 2.848-1.808l.112 1.712h.72V3.888h-.816v3.984zm6.049-3.984c-1.504 0-2.144.72-2.48 1.616l-.128-1.616h-.704V12h.816V7.888c0-1.648.432-3.216 2.336-3.216h.592v-.784h-.432zm6.562 6.224c0 1.296.528 1.888 1.904 1.888h1.184v-.752h-1.12c-.848 0-1.152-.32-1.152-1.152V4.64h2.192v-.752h-2.192V1.616h-.816v2.272h-1.536v.752h1.536v5.472zm7.642-6.224c-1.504 0-2.144.72-2.48 1.616l-.128-1.616h-.704V12h.816V7.888c0-1.648.432-3.216 2.335-3.216h.592v-.784h-.431zm8.433 7.36c-.48 0-.72-.16-.72-.784V6.688c0-1.856-1.136-2.896-3.168-2.896-1.856 0-3.088.896-3.296 2.368h.816c.208-.992 1.072-1.648 2.448-1.648 1.52 0 2.384.8 2.384 2.144v.704h-2.752c-2.08 0-3.2.896-3.2 2.416 0 1.44 1.136 2.32 2.864 2.32 1.648 0 2.624-.752 3.12-1.76v.288c-.032.96.368 1.376 1.328 1.376h.48v-.752h-.304zm-1.536-2.528c0 1.552-1.104 2.672-3.024 2.672-1.296 0-2.096-.656-2.096-1.664 0-1.072.8-1.664 2.304-1.664h2.816v.656zm9.43-3.008c-.496-1.152-1.584-1.92-3.104-1.92-2.224 0-3.824 1.696-3.824 4.144 0 2.56 1.6 4.16 3.824 4.16 1.52 0 2.576-.816 3.088-1.952l.128 1.856h.704V.8h-.816v4.912zm-3.04 5.648c-1.808 0-3.056-1.408-3.056-3.424 0-2 1.248-3.424 3.056-3.424s3.056 1.424 3.056 3.44c0 2-1.248 3.408-3.056 3.408zm6.192-9.184c.32 0 .576-.24.576-.576a.564.564 0 00-.576-.576.563.563 0 00-.576.576c0 .336.255.576.576.576zM291.648 12h.816V3.888h-.816V12zm6.478-8.208c-1.488 0-2.448.768-2.912 1.824l-.128-1.728h-.704V12h.816V8c0-2.112 1.072-3.456 2.8-3.456 1.568 0 2.512 1.024 2.512 2.944V12h.816V7.456c0-2.56-1.36-3.664-3.2-3.664zm11.614 1.984c-.496-1.2-1.584-1.984-3.088-1.984-2.224 0-3.824 1.68-3.824 4.144 0 2.56 1.6 4.16 3.824 4.16 1.52 0 2.592-.8 3.104-2.064v1.44c0 2.16-1.024 3.088-2.976 3.088-1.52 0-2.576-.688-2.832-1.92h-.848c.256 1.728 1.648 2.656 3.616 2.656 2.624 0 3.856-1.248 3.856-3.792V3.888h-.704l-.128 1.888zm-3.024 5.584c-1.808 0-3.056-1.408-3.056-3.424s1.248-3.424 3.056-3.424 3.056 1.408 3.056 3.44c0 2-1.248 3.408-3.056 3.408zm9.72-1.856c.064 1.68 1.424 2.592 3.456 2.592 1.744 0 3.152-.88 3.152-2.32 0-1.712-1.504-2.048-3.248-2.288-1.264-.176-2.384-.32-2.384-1.456 0-.928.912-1.536 2.288-1.536 1.296 0 2.224.624 2.368 1.68h.832c-.144-1.584-1.44-2.384-3.2-2.384-1.808-.016-3.104.912-3.104 2.304 0 1.632 1.504 1.936 3.168 2.16 1.36.192 2.464.368 2.464 1.568 0 .96-1.008 1.568-2.336 1.568-1.552 0-2.56-.72-2.624-1.888h-.832zm8.773.608c0 1.296.528 1.888 1.904 1.888h1.184v-.752h-1.12c-.848 0-1.152-.32-1.152-1.152V4.64h2.192v-.752h-2.192V1.616h-.816v2.272h-1.536v.752h1.536v5.472zm7.641-6.224c-1.504 0-2.144.72-2.48 1.616l-.128-1.616h-.704V12h.816V7.888c0-1.648.432-3.216 2.336-3.216h.592v-.784h-.432zm8.434 7.36c-.48 0-.72-.16-.72-.784V6.688c0-1.856-1.136-2.896-3.168-2.896-1.857 0-3.088.896-3.296 2.368h.816c.208-.992 1.072-1.648 2.448-1.648 1.52 0 2.384.8 2.384 2.144v.704h-2.752c-2.08 0-3.2.896-3.2 2.416 0 1.44 1.136 2.32 2.864 2.32 1.648 0 2.624-.752 3.12-1.76v.288c-.032.96.368 1.376 1.328 1.376h.48v-.752h-.304zm-1.536-2.528c0 1.552-1.104 2.672-3.024 2.672-1.296 0-2.096-.656-2.096-1.664 0-1.072.8-1.664 2.304-1.664h2.816v.656zm3.539 1.392c0 1.296.528 1.888 1.904 1.888h1.184v-.752h-1.12c-.848 0-1.152-.32-1.152-1.152V4.64h2.192v-.752h-2.192V1.616h-.816v2.272h-1.536v.752h1.536v5.472zm7.663 1.984c1.776 0 3.136-1.152 3.488-2.784h-.832c-.32 1.264-1.392 2.048-2.72 2.048-1.808 0-2.944-1.376-2.976-3.264v-.144h6.624c0-.112.016-.24.016-.336-.08-2.416-1.568-3.824-3.744-3.824-2.224 0-3.744 1.696-3.744 4.096 0 2.544 1.584 4.208 3.888 4.208zm-2.976-4.832c.128-1.648 1.36-2.752 2.848-2.752 1.584 0 2.72.976 2.848 2.752h-5.696zm14.797-1.488c-.496-1.2-1.584-1.984-3.088-1.984-2.224 0-3.824 1.68-3.824 4.144 0 2.56 1.6 4.16 3.824 4.16 1.52 0 2.592-.8 3.104-2.064v1.44c0 2.16-1.024 3.088-2.976 3.088-1.52 0-2.576-.688-2.832-1.92h-.848c.256 1.728 1.648 2.656 3.616 2.656 2.624 0 3.856-1.248 3.856-3.792V3.888h-.704l-.128 1.888zm-3.024 5.584c-1.808 0-3.056-1.408-3.056-3.424s1.248-3.424 3.056-3.424 3.056 1.408 3.056 3.44c0 2-1.248 3.408-3.056 3.408zm6.192-9.184c.32 0 .576-.24.576-.576a.564.564 0 00-.576-.576.563.563 0 00-.576.576c0 .336.255.576.576.576zM365.523 12h.816V3.888h-.816V12zm6.318.096c1.776 0 3.136-1.152 3.488-2.784h-.832c-.32 1.264-1.392 2.048-2.72 2.048-1.808 0-2.944-1.376-2.976-3.264v-.144h6.624c0-.112.016-.24.016-.336-.08-2.416-1.568-3.824-3.744-3.824-2.224 0-3.744 1.696-3.744 4.096 0 2.544 1.584 4.208 3.888 4.208zm-2.976-4.832c.128-1.648 1.36-2.752 2.848-2.752 1.584 0 2.72.976 2.848 2.752h-5.696zm7.805 2.24c.064 1.68 1.424 2.592 3.456 2.592 1.744 0 3.152-.88 3.152-2.32 0-1.712-1.504-2.048-3.248-2.288-1.264-.176-2.384-.32-2.384-1.456 0-.928.912-1.536 2.288-1.536 1.296 0 2.224.624 2.368 1.68h.832c-.144-1.584-1.44-2.384-3.2-2.384-1.808-.016-3.104.912-3.104 2.304 0 1.632 1.504 1.936 3.168 2.16 1.36.192 2.464.368 2.464 1.568 0 .96-1.008 1.568-2.336 1.568-1.552 0-2.56-.72-2.624-1.888h-.832zM8.096 33.248c-.48 0-.72-.16-.72-.784v-3.776c0-1.856-1.136-2.896-3.168-2.896-1.856 0-3.088.896-3.296 2.368h.816c.208-.992 1.072-1.648 2.448-1.648 1.52 0 2.384.8 2.384 2.144v.704H3.808c-2.08 0-3.2.896-3.2 2.416 0 1.44 1.136 2.32 2.864 2.32 1.648 0 2.624-.752 3.12-1.76v.288C6.56 33.584 6.96 34 7.92 34h.48v-.752h-.304zM6.56 30.72c0 1.552-1.104 2.672-3.024 2.672-1.296 0-2.096-.656-2.096-1.664 0-1.072.8-1.664 2.304-1.664H6.56v.656zm6.675-4.928c-1.488 0-2.448.768-2.912 1.824l-.128-1.728h-.704V34h.816v-4c0-2.112 1.072-3.456 2.8-3.456 1.568 0 2.512 1.024 2.512 2.944V34h.816v-4.544c0-2.56-1.36-3.664-3.2-3.664zm11.505 1.92c-.496-1.152-1.584-1.92-3.104-1.92-2.224 0-3.824 1.696-3.824 4.144 0 2.56 1.6 4.16 3.824 4.16 1.52 0 2.576-.816 3.088-1.952L24.852 34h.704V22.8h-.816v4.912zM21.7 33.36c-1.808 0-3.056-1.408-3.056-3.424 0-2 1.248-3.424 3.056-3.424s3.056 1.424 3.056 3.44c0 2-1.248 3.408-3.056 3.408zm10.504-9.184c.32 0 .576-.24.576-.576a.564.564 0 00-.576-.576c-.32 0-.576.24-.576.576 0 .336.256.576.576.576zM31.788 34h.816v-8.112h-.816V34zm11.79-8.208c-1.488 0-2.448.832-2.912 2.032-.383-1.344-1.391-2.032-2.671-2.032-1.392 0-2.224.816-2.64 1.824l-.128-1.728h-.704V34h.816v-4.128c0-1.984.96-3.328 2.511-3.328 1.408 0 2.288.992 2.288 2.864V34h.817v-4.416c.047-1.856 1.008-3.04 2.528-3.04 1.408 0 2.256.944 2.256 2.784V34h.832v-4.704c0-2.448-1.296-3.504-2.992-3.504zm8.724 0c-1.52 0-2.576.816-3.088 1.952l-.128-1.856h-.704V37.2h.816v-5.072c.464 1.184 1.568 1.968 3.104 1.968 2.224 0 3.824-1.696 3.824-4.16 0-2.544-1.6-4.144-3.824-4.144zm-.064 7.568c-1.808 0-3.056-1.408-3.056-3.44 0-1.984 1.248-3.408 3.056-3.408s3.056 1.424 3.056 3.424c0 2.016-1.248 3.424-3.056 3.424zm8.815-7.472c-1.504 0-2.144.72-2.48 1.616l-.128-1.616h-.704V34h.816v-4.112c0-1.648.432-3.216 2.336-3.216h.592v-.784h-.432zm4.647 8.208c2.288 0 3.904-1.696 3.904-4.16 0-2.448-1.616-4.144-3.904-4.144s-3.888 1.696-3.888 4.144c0 2.464 1.6 4.16 3.888 4.16zm0-.736c-1.808 0-3.056-1.408-3.056-3.424 0-2 1.248-3.424 3.056-3.424s3.056 1.424 3.056 3.424c0 2.016-1.248 3.424-3.056 3.424zm7.534.64h.976l3.168-8.112h-.848l-2.784 7.168-2.8-7.168h-.88L73.234 34zm8.498.096c1.775 0 3.136-1.152 3.487-2.784h-.831c-.32 1.264-1.392 2.048-2.72 2.048-1.809 0-2.945-1.376-2.977-3.264v-.144h6.624c0-.112.017-.24.017-.336-.08-2.416-1.569-3.824-3.744-3.824-2.224 0-3.744 1.696-3.744 4.096 0 2.544 1.584 4.208 3.888 4.208zm-2.977-4.832c.129-1.648 1.36-2.752 2.849-2.752 1.584 0 2.72.976 2.847 2.752h-5.695zM93.69 34l-.528 1.312c-.368.896-.512 1.136-1.344 1.136h-1.024v.752h1.248c1.088 0 1.344-.416 1.856-1.696l3.888-9.616h-.88l-2.768 7.056-2.816-7.056h-.88L93.689 34zm8.433.096c2.288 0 3.904-1.696 3.904-4.16 0-2.448-1.616-4.144-3.904-4.144s-3.888 1.696-3.888 4.144c0 2.464 1.6 4.16 3.888 4.16zm0-.736c-1.808 0-3.056-1.408-3.056-3.424 0-2 1.248-3.424 3.056-3.424s3.056 1.424 3.056 3.424c0 2.016-1.248 3.424-3.056 3.424zm11.414-3.488c0 2.128-1.056 3.472-2.737 3.472-1.503 0-2.431-1.024-2.431-2.96v-4.496h-.816v4.544c0 2.544 1.328 3.664 3.12 3.664 1.44 0 2.384-.768 2.848-1.808l.112 1.712h.72v-8.112h-.816v3.984zm6.049-3.984c-1.504 0-2.144.72-2.48 1.616l-.128-1.616h-.704V34h.816v-4.112c0-1.648.432-3.216 2.335-3.216h.592v-.784h-.431zm9.873-.096c-1.52 0-2.576.816-3.088 1.952l-.128-1.856h-.704V37.2h.816v-5.072c.464 1.184 1.568 1.968 3.104 1.968 2.224 0 3.824-1.696 3.824-4.16 0-2.544-1.6-4.144-3.824-4.144zm-.064 7.568c-1.808 0-3.056-1.408-3.056-3.44 0-1.984 1.248-3.408 3.056-3.408s3.056 1.424 3.056 3.424c0 2.016-1.248 3.424-3.056 3.424zm9.088.736c1.776 0 3.136-1.152 3.488-2.784h-.832c-.32 1.264-1.392 2.048-2.72 2.048-1.808 0-2.944-1.376-2.976-3.264v-.144h6.624c0-.112.016-.24.016-.336-.08-2.416-1.568-3.824-3.744-3.824-2.224 0-3.744 1.696-3.744 4.096 0 2.544 1.584 4.208 3.888 4.208zm-2.976-4.832c.128-1.648 1.36-2.752 2.848-2.752 1.584 0 2.72.976 2.848 2.752h-5.696zm11.5-3.376c-1.504 0-2.144.72-2.48 1.616l-.128-1.616h-.704V34h.816v-4.112c0-1.648.432-3.216 2.336-3.216h.592v-.784h-.432zm.979.752h1.536V34h.816v-7.36h2.432v-.752h-2.432v-1.216c0-.8.304-1.12 1.12-1.12h1.328V22.8h-1.36c-1.36 0-1.904.592-1.904 1.888v1.2h-1.536v.752zm8.934 7.456c2.288 0 3.904-1.696 3.904-4.16 0-2.448-1.616-4.144-3.904-4.144s-3.888 1.696-3.888 4.144c0 2.464 1.6 4.16 3.888 4.16zm0-.736c-1.808 0-3.056-1.408-3.056-3.424 0-2 1.248-3.424 3.056-3.424s3.056 1.424 3.056 3.424c0 2.016-1.248 3.424-3.056 3.424zm8.837-7.472c-1.504 0-2.144.72-2.48 1.616l-.128-1.616h-.704V34h.816v-4.112c0-1.648.432-3.216 2.336-3.216h.592v-.784h-.432zm10.698-.096c-1.488 0-2.448.832-2.912 2.032-.384-1.344-1.392-2.032-2.672-2.032-1.392 0-2.224.816-2.64 1.824l-.128-1.728h-.704V34h.816v-4.128c0-1.984.96-3.328 2.512-3.328 1.408 0 2.288.992 2.288 2.864V34h.816v-4.416c.048-1.856 1.008-3.04 2.528-3.04 1.408 0 2.256.944 2.256 2.784V34h.832v-4.704c0-2.448-1.296-3.504-2.992-3.504zm11.939 7.456c-.48 0-.72-.16-.72-.784v-3.776c0-1.856-1.136-2.896-3.168-2.896-1.856 0-3.088.896-3.296 2.368h.816c.208-.992 1.072-1.648 2.448-1.648 1.52 0 2.384.8 2.384 2.144v.704h-2.752c-2.08 0-3.2.896-3.2 2.416 0 1.44 1.136 2.32 2.864 2.32 1.648 0 2.624-.752 3.12-1.76v.288c-.032.96.368 1.376 1.328 1.376h.48v-.752h-.304zm-1.536-2.528c0 1.552-1.104 2.672-3.024 2.672-1.296 0-2.096-.656-2.096-1.664 0-1.072.8-1.664 2.304-1.664h2.816v.656zm6.675-4.928c-1.488 0-2.448.768-2.912 1.824l-.128-1.728h-.704V34h.816v-4c0-2.112 1.072-3.456 2.8-3.456 1.568 0 2.512 1.024 2.512 2.944V34h.816v-4.544c0-2.56-1.36-3.664-3.2-3.664zm8.417 8.304c1.84 0 3.136-1.056 3.456-2.704h-.864c-.272 1.2-1.248 1.968-2.592 1.968-1.776 0-3.008-1.392-3.008-3.408s1.216-3.44 3.008-3.44c1.36 0 2.32.768 2.608 1.984h.848c-.336-1.68-1.6-2.704-3.44-2.704-2.288 0-3.856 1.696-3.856 4.16 0 2.496 1.552 4.144 3.84 4.144zm8.626 0c1.776 0 3.136-1.152 3.488-2.784h-.832c-.32 1.264-1.392 2.048-2.72 2.048-1.808 0-2.944-1.376-2.976-3.264v-.144h6.624c0-.112.016-.24.016-.336-.08-2.416-1.568-3.824-3.744-3.824-2.224 0-3.744 1.696-3.744 4.096 0 2.544 1.584 4.208 3.888 4.208zm-2.976-4.832c.128-1.648 1.36-2.752 2.848-2.752 1.584 0 2.72.976 2.848 2.752h-5.696zm7.515 4.208c0 .368.256.608.608.608s.608-.24.608-.608-.256-.592-.608-.592-.608.224-.608.592z" fill="#000"/></svg>