<svg width="136" height="15" viewBox="0 0 136 15" fill="none" xmlns="http://www.w3.org/2000/svg"><path d="M.3 2.03h3.24V11h1.725V2.03h3.24V.5H.3v1.53zm10.036.21c.555 0 .99-.405.99-.975S10.89.29 10.336.29c-.555 0-.99.405-.99.975s.435.975.99.975zM9.51 11h1.62V3.32H9.51V11zm12.043-7.77c-1.26 0-2.13.555-2.625 1.395-.465-.99-1.365-1.395-2.37-1.395-1.155.015-1.815.525-2.25 1.095l-.18-1.005h-1.41V11h1.62V6.89c0-1.365.69-2.265 1.8-2.265 1.065 0 1.62.705 1.62 2.055V11h1.635V6.845c0-1.38.705-2.22 1.815-2.22 1.05 0 1.605.705 1.605 2.055V11h1.62V6.575c0-2.43-1.29-3.345-2.88-3.345zm5.173-.99c.555 0 .99-.405.99-.975s-.435-.975-.99-.975c-.555 0-.99.405-.99.975s.435.975.99.975zM25.902 11h1.62V3.32h-1.62V11zm7.258-7.77c-1.245 0-1.98.495-2.46 1.095l-.18-1.005h-1.41V11h1.62V7.13c0-1.56.765-2.505 2.055-2.505 1.215 0 1.83.78 1.83 2.235V11h1.635V6.725c0-2.565-1.395-3.495-3.09-3.495zM43.59 4.52c-.495-.765-1.32-1.29-2.52-1.29-2.085 0-3.63 1.545-3.63 3.9 0 2.445 1.545 3.9 3.63 3.9 1.2 0 1.995-.495 2.505-1.26v.855c0 1.47-.795 2.145-2.205 2.145-1.14 0-1.89-.495-2.085-1.35h-1.65c.15 1.725 1.575 2.67 3.615 2.67 2.76 0 3.93-1.32 3.93-3.405V3.32h-1.41l-.18 1.2zm-2.25 5.145c-1.35 0-2.235-1.035-2.235-2.535 0-1.485.885-2.535 2.235-2.535 1.35 0 2.235 1.05 2.235 2.565 0 1.47-.885 2.505-2.235 2.505zM51.425 2.24c.555 0 .99-.405.99-.975S51.98.29 51.425.29c-.555 0-.99.405-.99.975s.435.975.99.975zM50.6 11h1.62V3.32H50.6V11zm2.878-2.535c.045 1.665 1.455 2.625 3.51 2.625 1.86 0 3.255-.93 3.255-2.4 0-1.71-1.425-2.07-3.18-2.28-1.11-.12-1.845-.21-1.845-.93 0-.615.63-1.005 1.59-1.005.96 0 1.62.495 1.71 1.2h1.59c-.105-1.575-1.44-2.445-3.33-2.445-1.845-.015-3.15.93-3.15 2.385 0 1.59 1.38 1.965 3.135 2.175 1.185.15 1.89.21 1.89 1.035 0 .615-.66 1.005-1.665 1.005-1.17 0-1.86-.57-1.92-1.365h-1.59zM68.98 11.09c1.905 0 3.195-1.155 3.465-2.67h-1.62c-.225.855-.945 1.35-1.935 1.35-1.275 0-2.1-.855-2.145-2.16v-.105h5.79a4.4 4.4 0 00.045-.615c-.045-2.25-1.53-3.66-3.75-3.66-2.265 0-3.78 1.575-3.78 3.945 0 2.355 1.515 3.915 3.93 3.915zm-2.175-4.77c.12-1.095 1.005-1.785 2.04-1.785 1.125 0 1.92.645 2.055 1.785h-4.095zM75.609 11h1.98l2.835-7.68h-1.71L76.63 9.26l-2.115-5.94h-1.74L75.61 11zm8.929.09c1.905 0 3.195-1.155 3.465-2.67h-1.62c-.225.855-.945 1.35-1.935 1.35-1.275 0-2.1-.855-2.145-2.16v-.105h5.79a4.4 4.4 0 00.045-.615c-.045-2.25-1.53-3.66-3.75-3.66-2.265 0-3.78 1.575-3.78 3.945 0 2.355 1.515 3.915 3.93 3.915zm-2.175-4.77c.12-1.095 1.005-1.785 2.04-1.785 1.125 0 1.92.645 2.055 1.785h-4.095zm10.97-3c-1.26 0-1.876.51-2.266 1.155l-.18-1.155h-1.44V11h1.62V7.145c0-1.185.465-2.31 1.905-2.31h.72V3.32h-.36zm3.666 7.725l-.3.75c-.24.63-.39.78-1.02.78h-1.14V14h1.74c1.125 0 1.455-.555 1.935-1.8l3.48-8.88h-1.725l-2.085 5.835L95.74 3.32h-1.725L97 11.045zm6.231-2.13c0 1.395.63 2.085 2.1 2.085h1.5V9.575h-1.14c-.615 0-.825-.225-.825-.825V4.745h1.875V3.32h-1.875V1.175h-1.635V3.32h-1.335v1.425h1.335v4.17zm8.665-5.685c-1.2 0-1.935.54-2.415 1.2V.5h-1.62V11h1.62V7.115c0-1.545.78-2.49 2.055-2.49 1.2 0 1.845.78 1.845 2.235V11H115V6.725c0-2.565-1.395-3.495-3.105-3.495zm5.404-.99c.555 0 .99-.405.99-.975s-.435-.975-.99-.975c-.555 0-.99.405-.99.975s.435.975.99.975zm-.825 8.76h1.62V3.32h-1.62V11zm7.258-7.77c-1.245 0-1.98.495-2.46 1.095l-.18-1.005h-1.41V11h1.62V7.13c0-1.56.765-2.505 2.055-2.505 1.215 0 1.83.78 1.83 2.235V11h1.635V6.725c0-2.565-1.395-3.495-3.09-3.495zm10.428 1.29c-.495-.765-1.32-1.29-2.52-1.29-2.085 0-3.63 1.545-3.63 3.9 0 2.445 1.545 3.9 3.63 3.9 1.2 0 1.995-.495 2.505-1.26v.855c0 1.47-.795 2.145-2.205 2.145-1.14 0-1.89-.495-2.085-1.35h-1.65c.15 1.725 1.575 2.67 3.615 2.67 2.76 0 3.93-1.32 3.93-3.405V3.32h-1.41l-.18 1.2zm-2.25 5.145c-1.35 0-2.235-1.035-2.235-2.535 0-1.485.885-2.535 2.235-2.535 1.35 0 2.235 1.05 2.235 2.565 0 1.47-.885 2.505-2.235 2.505z" fill="#000"/></svg>