<svg width="141" height="20" viewBox="0 0 141 20" fill="none" xmlns="http://www.w3.org/2000/svg"><path d="M.415 2.586H4.9V15h2.388V2.586h4.484V.468H.415v2.118zM21.42 13.049c-.457 0-.685-.146-.685-.685V8.107c0-2.512-1.62-3.862-4.443-3.862-2.678 0-4.463 1.287-4.691 3.363h2.2c.166-.934 1.059-1.557 2.387-1.557 1.474 0 2.326.727 2.326 1.91v.644h-2.679c-2.968 0-4.546 1.225-4.546 3.405 0 1.972 1.62 3.114 3.944 3.114 1.724 0 2.803-.748 3.509-1.827 0 1.058.498 1.702 1.951 1.702h1.184v-1.951h-.457zm-2.906-2.409c-.021 1.64-1.1 2.74-2.97 2.74-1.224 0-1.971-.622-1.971-1.515 0-1.08.768-1.598 2.159-1.598h2.782v.373zM23.097 15h2.242v-2.699l1.91-1.993L30.384 15h2.657l-4.256-6.332 4.007-4.297h-2.637L25.34 9.519V.468h-2.242V15zm15.404.125c2.637 0 4.422-1.599 4.796-3.696h-2.242c-.312 1.184-1.308 1.869-2.678 1.869-1.765 0-2.907-1.184-2.969-2.99v-.145h8.014c.041-.29.062-.581.062-.851-.063-3.114-2.118-5.066-5.19-5.066-3.135 0-5.232 2.18-5.232 5.46 0 3.26 2.097 5.419 5.44 5.419zm-3.01-6.602c.166-1.516 1.391-2.47 2.824-2.47 1.556 0 2.657.892 2.844 2.47H35.49zm24.833 4.526c-.457 0-.685-.146-.685-.685V8.107c0-2.512-1.62-3.862-4.443-3.862-2.678 0-4.463 1.287-4.692 3.363h2.2c.167-.934 1.06-1.557 2.388-1.557 1.474 0 2.325.727 2.325 1.91v.644H54.74c-2.968 0-4.546 1.225-4.546 3.405 0 1.972 1.62 3.114 3.944 3.114 1.723 0 2.803-.748 3.509-1.827 0 1.058.498 1.702 1.951 1.702h1.183v-1.951h-.456zm-2.907-2.409c-.02 1.64-1.1 2.74-2.968 2.74-1.225 0-1.973-.622-1.973-1.515 0-1.08.769-1.598 2.16-1.598h2.781v.373zm15.585-6.394c-1.661 0-2.761.768-3.467 1.703l-.27-1.578h-1.952v14.781h2.242v-5.647c.665.955 1.806 1.62 3.447 1.62 2.906 0 5.023-2.16 5.023-5.44 0-3.404-2.117-5.439-5.023-5.439zm-.374 8.99c-1.868 0-3.093-1.475-3.093-3.592 0-2.055 1.225-3.488 3.093-3.488 1.868 0 3.114 1.433 3.114 3.53 0 2.075-1.246 3.55-3.114 3.55zm12.218 1.889c3.239 0 5.418-2.18 5.418-5.44 0-3.238-2.18-5.439-5.418-5.439-3.239 0-5.418 2.2-5.418 5.44 0 3.259 2.18 5.439 5.418 5.439zm0-1.91c-1.89 0-3.114-1.474-3.114-3.53 0-2.055 1.225-3.529 3.114-3.529 1.89 0 3.135 1.474 3.135 3.53 0 2.055-1.246 3.529-3.135 3.529zm6.704-1.723c.062 2.304 2.013 3.633 4.858 3.633 2.574 0 4.504-1.288 4.504-3.322 0-2.367-1.972-2.865-4.4-3.156-1.537-.166-2.554-.29-2.554-1.287 0-.85.872-1.39 2.2-1.39 1.329 0 2.242.684 2.367 1.66h2.201c-.146-2.18-1.993-3.384-4.61-3.384-2.553-.02-4.359 1.287-4.359 3.301 0 2.2 1.91 2.72 4.34 3.01 1.64.208 2.615.291 2.615 1.433 0 .851-.914 1.39-2.305 1.39-1.619 0-2.574-.788-2.657-1.888h-2.2zm12.242-8.616c.768 0 1.37-.56 1.37-1.35 0-.788-.602-1.349-1.37-1.349-.768 0-1.37.56-1.37 1.35 0 .789.602 1.35 1.37 1.35zM102.65 15h2.242V4.37h-2.242V15zm5.208-2.886c0 1.931.872 2.886 2.906 2.886h2.076v-1.972h-1.577c-.852 0-1.142-.312-1.142-1.142V6.343h2.595V4.371h-2.595V1.402h-2.263v2.969h-1.848v1.972h1.848v5.771zm7.55-9.238c.769 0 1.371-.56 1.371-1.35 0-.788-.602-1.349-1.371-1.349-.768 0-1.37.56-1.37 1.35 0 .789.602 1.35 1.37 1.35zM114.267 15h2.242V4.37h-2.242V15zm9.463.125c3.239 0 5.419-2.18 5.419-5.44 0-3.238-2.18-5.439-5.419-5.439-3.238 0-5.418 2.2-5.418 5.44 0 3.259 2.18 5.439 5.418 5.439zm0-1.91c-1.889 0-3.114-1.474-3.114-3.53 0-2.055 1.225-3.529 3.114-3.529 1.89 0 3.135 1.474 3.135 3.53 0 2.055-1.245 3.529-3.135 3.529zm12.827-8.969c-1.723 0-2.74.685-3.405 1.516l-.249-1.391h-1.951V15h2.242V9.644c0-2.16 1.058-3.467 2.844-3.467 1.681 0 2.533 1.08 2.533 3.093V15h2.262V9.083c0-3.55-1.93-4.837-4.276-4.837z" fill="url(#paint0_linear_115_272)"/><defs><linearGradient id="paint0_linear_115_272" x1="144" y1="7.5" x2="0" y2="7.5" gradientUnits="userSpaceOnUse"><stop stop-color="#FF4343"/><stop offset=".5" stop-color="#9C0B93"/><stop offset="1" stop-color="#4C1BB7"/></linearGradient></defs></svg>