<svg width="58" height="12" viewBox="0 0 58 12" fill="none" xmlns="http://www.w3.org/2000/svg"><rect width="58" height="12" rx="6" fill="#000"/><path d="M9.977 6.484c.033.913.695 1.556 1.827 1.556.974 0 1.65-.563 1.65-1.364 0-.9-.776-1.153-1.53-1.278-.696-.12-1.259-.232-1.259-.788 0-.497.404-.762 1.007-.762.629 0 1.06.351 1.126.887h.596c-.053-.834-.689-1.41-1.722-1.41-.94 0-1.583.53-1.583 1.318 0 .9.768 1.145 1.517 1.271.702.12 1.271.239 1.271.815 0 .503-.444.788-1.066.788-.709 0-1.192-.41-1.238-1.033h-.596zm4.38.635c0 .596.231.881.88.881h.59v-.497h-.537c-.291 0-.39-.106-.39-.39V5.12h.874v-.497H14.9v-.947h-.543v.947h-.61v.497h.61v2zm4.875.384c-.152 0-.219-.046-.219-.225V5.802c0-.788-.496-1.219-1.357-1.219-.815 0-1.351.39-1.43 1.053h.543c.066-.344.384-.57.86-.57.53 0 .841.265.841.702V6h-.993c-.887 0-1.357.378-1.357 1.053 0 .616.503.987 1.244.987.583 0 .92-.259 1.133-.563.006.331.159.523.609.523h.298v-.497h-.172zm-.762-.88c0 .563-.39.953-1.066.953-.45 0-.735-.225-.735-.556 0-.384.272-.563.755-.563h1.046v.166zm2.914-2c-.602 0-.86.252-1.02.51l-.073-.51h-.47V8h.543V6.278c0-.536.192-1.125.9-1.125h.272v-.53h-.152zm.985 2.496c0 .596.231.881.88.881h.59v-.497h-.537c-.291 0-.39-.106-.39-.39V5.12h.874v-.497h-.874v-.947h-.543v.947h-.61v.497h.61v2zm3.925 0c0 .596.232.881.88.881h.59v-.497h-.537c-.29 0-.39-.106-.39-.39V5.12h.874v-.497h-.874v-.947h-.543v.947h-.61v.497h.61v2zm3.503-2.496c-.602 0-.86.252-1.02.51l-.072-.51h-.47V8h.542V6.278c0-.536.192-1.125.901-1.125h.271v-.53h-.152zm3.493 2.88c-.152 0-.218-.046-.218-.225V5.802c0-.788-.497-1.219-1.358-1.219-.814 0-1.35.39-1.43 1.053h.543c.066-.344.384-.57.86-.57.53 0 .842.265.842.702V6h-.994c-.887 0-1.357.378-1.357 1.053 0 .616.503.987 1.245.987.582 0 .92-.259 1.132-.563.007.331.159.523.61.523h.297v-.497h-.172zm-.761-.88c0 .563-.391.953-1.067.953-.45 0-.735-.225-.735-.556 0-.384.272-.563.755-.563h1.047v.166zm3.974-1.484c-.205-.324-.59-.556-1.159-.556-.934 0-1.622.695-1.622 1.728 0 1.1.688 1.729 1.622 1.729.57 0 .934-.272 1.159-.583l.073.543h.47V3.365h-.543v1.774zm-1.106 2.417c-.669 0-1.119-.51-1.119-1.245 0-.735.45-1.244 1.119-1.244.662 0 1.113.516 1.113 1.258 0 .721-.45 1.231-1.113 1.231zm2.667-3.503c.198 0 .35-.145.35-.35a.341.341 0 00-.35-.351.341.341 0 00-.351.35c0 .206.152.351.35.351zM37.785 8h.544V4.623h-.544V8zm2.943-3.417c-.57 0-.914.239-1.113.497l-.073-.457h-.47V8h.543V6.311c0-.761.384-1.231 1.02-1.231.59 0 .914.37.914 1.073V8h.543V6.12c0-1.12-.603-1.537-1.364-1.537zm4.718.623c-.212-.378-.59-.623-1.159-.623-.933 0-1.622.695-1.622 1.728 0 1.1.689 1.729 1.622 1.729.57 0 .934-.239 1.16-.623v.398c0 .735-.385 1.066-1.093 1.066-.563 0-.94-.239-1.033-.662h-.557c.086.741.689 1.145 1.55 1.145 1.159 0 1.675-.556 1.675-1.53V4.623h-.47l-.073.583zm-1.106 2.35c-.669 0-1.119-.51-1.119-1.245 0-.735.45-1.244 1.12-1.244.661 0 1.112.516 1.112 1.258 0 .721-.45 1.231-1.113 1.231z" fill="#fff"/></svg>