<svg width="292" height="12" viewBox="0 0 292 12" fill="none" xmlns="http://www.w3.org/2000/svg"><path d="M4.2 11c.07 0 .126-.056.126-.126l-.07-4.732.056-3.892h2.702c.07 0 .126-.056.126-.126v-.798a.125.125 0 00-.126-.126H.252a.125.125 0 00-.126.126v.798c0 .07.056.126.126.126h2.716l.056 3.892-.07 4.732c0 .07.056.126.126.126H4.2zm3.933 0c.07 0 .126-.056.126-.126l-.014-3.78C8.4 5.512 9.45 4.77 10.667 4.77c.154 0 .294.014.406.028A.105.105 0 0011.2 4.7v-.784c0-.07-.056-.14-.126-.154a1.94 1.94 0 00-.42-.042c-1.008 0-1.932.49-2.45 1.414l.056-1.218a.125.125 0 00-.126-.126H7.097a.125.125 0 00-.126.126l.042 3.402-.042 3.556c0 .07.056.126.126.126h1.036zm4.783-3.682c0-1.568.601-2.674 1.903-2.73h.294c1.177.098 1.835 1.134 1.82 2.87-.014 1.82-.77 2.744-2.015 2.744-1.358 0-2.002-1.162-2.002-2.884zM18.026 11c.07 0 .125-.056.125-.126l-.041-3.542.041-3.416a.125.125 0 00-.125-.126h-1.037a.125.125 0 00-.126.126l.029.966c-.476-.798-1.246-1.232-2.268-1.232-1.905 0-3.01 1.68-3.01 3.766 0 2.086 1.035 3.724 2.981 3.724 1.05 0 1.82-.49 2.31-1.302l-.027 1.036c0 .07.055.126.125.126h1.023zm2.986 0c.07 0 .126-.056.126-.126l-.014-2.954V6.828c.28-1.428 1.036-2.184 1.988-2.184.896 0 1.526.588 1.526 1.89V7.92l-.028 2.954c0 .07.056.126.126.126h1.036c.07 0 .126-.056.126-.126L25.87 7.92V6.478c0-1.876-.924-2.856-2.408-2.856-1.148 0-1.96.658-2.408 1.386l.042-1.092a.125.125 0 00-.126-.126h-.994a.125.125 0 00-.126.126l.028 3.794-.042 3.164c0 .07.056.126.126.126h1.05zm12.471-2.072c0-3.024-4.858-1.47-4.858-3.262 0-.798.63-1.162 1.61-1.162 1.036 0 1.736.42 1.82 1.33.014.07.07.126.14.126h.938c.07 0 .126-.056.126-.126-.112-1.498-1.33-2.198-3.01-2.198-1.708 0-2.842.728-2.842 2.114 0 2.912 4.858 1.386 4.858 3.276 0 .798-.7 1.246-1.764 1.246-1.288 0-1.974-.504-2.03-1.638a.125.125 0 00-.126-.126h-.98a.125.125 0 00-.126.126c.056 1.68 1.302 2.52 3.22 2.52 1.722 0 3.024-.812 3.024-2.226zm2.65-5.964c.07 0 .126-.056.126-.126V1.69a.125.125 0 00-.126-.126h-1.05a.125.125 0 00-.126.126v1.148c0 .07.056.126.126.126h1.05zm0 8.036c.07 0 .126-.056.126-.126l-.028-3.598.028-3.36a.125.125 0 00-.126-.126h-1.05a.125.125 0 00-.126.126l.028 3.374-.028 3.584c0 .07.056.126.126.126h1.05zm5.483-.882c0-.056-.056-.112-.126-.084a3.619 3.619 0 01-.742.084c-.616 0-.91-.266-.91-1.134v-4.2h1.652c.07 0 .126-.056.126-.126v-.742a.125.125 0 00-.126-.126h-1.652l.014-1.68a.125.125 0 00-.126-.126H38.69a.125.125 0 00-.126.126l.014 1.68h-.798a.125.125 0 00-.126.126v.742c0 .07.056.126.126.126h.798v4.228c0 1.568.882 2.114 1.932 2.114.336 0 .7-.084.98-.168.07-.028.126-.098.126-.168v-.672zm2.555-7.154c.07 0 .126-.056.126-.126V1.69a.125.125 0 00-.126-.126h-1.05a.125.125 0 00-.126.126v1.148c0 .07.056.126.126.126h1.05zm0 8.036c.07 0 .126-.056.126-.126l-.028-3.598.028-3.36a.125.125 0 00-.126-.126h-1.05a.125.125 0 00-.126.126l.028 3.374-.028 3.584c0 .07.056.126.126.126h1.05zm8.451-3.612c0-2.268-1.218-3.766-3.416-3.766-2.184 0-3.416 1.512-3.416 3.794 0 2.268 1.232 3.752 3.416 3.752 2.198 0 3.416-1.512 3.416-3.78zm-5.53.028c0-1.806.686-2.842 2.114-2.856 1.4 0 2.1 1.05 2.1 2.856 0 1.806-.686 2.814-2.1 2.814-1.414 0-2.114-1.008-2.114-2.814zM55.23 11c.07 0 .126-.056.126-.126l-.014-2.954V6.828c.28-1.428 1.036-2.184 1.988-2.184.896 0 1.526.588 1.526 1.89V7.92l-.028 2.954c0 .07.056.126.126.126h1.036c.07 0 .126-.056.126-.126l-.028-2.954V6.478c0-1.876-.924-2.856-2.408-2.856-1.148 0-1.96.658-2.408 1.386l.042-1.092a.125.125 0 00-.126-.126h-.994a.125.125 0 00-.126.126l.028 3.794-.042 3.164c0 .07.056.126.126.126h1.05zm13.072-.882c0-.056-.056-.112-.126-.084a3.619 3.619 0 01-.742.084c-.616 0-.91-.266-.91-1.134v-4.2h1.652c.07 0 .126-.056.126-.126v-.742a.125.125 0 00-.126-.126h-1.652l.014-1.68a.125.125 0 00-.126-.126h-1.036a.125.125 0 00-.126.126l.014 1.68h-.798a.125.125 0 00-.126.126v.742c0 .07.056.126.126.126h.798v4.228c0 1.568.882 2.114 1.932 2.114.336 0 .7-.084.98-.168.07-.028.126-.098.126-.168v-.672zm7.589-2.73c0-2.268-1.218-3.766-3.416-3.766-2.184 0-3.416 1.512-3.416 3.794 0 2.268 1.232 3.752 3.416 3.752 2.198 0 3.416-1.512 3.416-3.78zm-5.53.028c0-1.806.686-2.842 2.114-2.856 1.4 0 2.1 1.05 2.1 2.856 0 1.806-.686 2.814-2.1 2.814-1.414 0-2.114-1.008-2.114-2.814zm10.813-.098c0-1.568.602-2.674 1.904-2.73h.294c1.176.098 1.834 1.134 1.82 2.87-.014 1.82-.77 2.744-2.016 2.744-1.358 0-2.002-1.162-2.002-2.884zM86.283 11c.07 0 .126-.056.126-.126l-.042-3.542.042-3.416a.125.125 0 00-.126-.126h-1.036a.125.125 0 00-.126.126l.028.966c-.476-.798-1.246-1.232-2.268-1.232-1.904 0-3.01 1.68-3.01 3.766 0 2.086 1.036 3.724 2.982 3.724 1.05 0 1.82-.49 2.31-1.302l-.028 1.036c0 .07.056.126.126.126h1.022zm6.693 0c.084 0 .154-.07.154-.154L93.06 6.1l.07-4.746a.155.155 0 00-.154-.154h-1.792a.155.155 0 00-.154.154L91.1 6.1l-.07 4.746c0 .084.07.154.154.154h1.792zm8.831-3.626c0-2.296-1.33-3.766-3.682-3.766s-3.71 1.512-3.71 3.808 1.358 3.766 3.71 3.766 3.682-1.512 3.682-3.808zm-5.25.056c0-1.624.49-2.408 1.554-2.422 1.036 0 1.54.784 1.54 2.408 0 1.652-.49 2.366-1.526 2.366-1.05 0-1.568-.728-1.568-2.352zM110.85 11c.084 0 .168-.07.182-.154l1.526-6.902c.014-.084-.042-.154-.126-.154h-1.638a.194.194 0 00-.182.154l-.84 5.208-.952-5.208a.194.194 0 00-.182-.154h-2.226a.194.194 0 00-.182.154l-.994 5.334-.798-5.334a.194.194 0 00-.182-.154h-1.82c-.07 0-.14.07-.126.154l1.554 6.902a.194.194 0 00.182.154h2.156c.084 0 .168-.07.182-.154l.98-5.306 1.134 5.306a.194.194 0 00.182.154h2.17zm5.929-3.304c.084 0 .154-.07.154-.154V6.394a.155.155 0 00-.154-.154h-3.402a.155.155 0 00-.154.154v1.148c0 .084.07.154.154.154h3.402zm8.164.686c.014-.084-.056-.154-.14-.154h-1.68c-.084 0-.154.07-.168.154-.098.924-.63 1.414-1.33 1.4-1.05-.014-1.568-.728-1.568-2.38 0-1.596.504-2.366 1.568-2.38.588 0 1.106.392 1.26 1.176a.18.18 0 00.182.154h1.638c.084 0 .154-.07.14-.154-.182-1.554-1.372-2.59-3.22-2.59-2.352 0-3.724 1.512-3.724 3.808s1.372 3.766 3.682 3.766c1.876 0 3.192-1.176 3.36-2.8zm3.152-1.078c0-1.484.546-2.282 1.61-2.254.994.014 1.554.854 1.54 2.394-.028 1.526-.56 2.296-1.582 2.296-1.008.014-1.568-.812-1.568-2.436zm5.04 3.696c.084 0 .154-.07.154-.154l-.056-3.444.056-3.458a.155.155 0 00-.154-.154h-1.82c-.084 0-.154.07-.14.154l.028.63c-.49-.602-1.19-.924-2.086-.924-1.96 0-3.164 1.68-3.164 3.766 0 2.1 1.078 3.724 3.122 3.724.91 0 1.624-.364 2.128-.98l-.028.686c0 .084.07.154.154.154h1.806zm3.49 0c.084 0 .154-.07.154-.154l-.014-3.052c0-1.652 1.092-2.478 2.576-2.478.07 0 .168 0 .238.014.084 0 .154-.056.154-.14V3.944a.194.194 0 00-.154-.182c-.098-.014-.196-.028-.294-.028-1.05 0-2.016.42-2.576 1.274l.042-1.064c.014-.084-.056-.154-.14-.154h-1.792a.155.155 0 00-.154.154l.056 3.444-.056 3.458c0 .084.07.154.154.154h1.806zm11.501-3.626c0-2.1-1.078-3.724-3.122-3.724-.896 0-1.61.35-2.114.952l.028-3.248a.155.155 0 00-.154-.154h-1.82a.155.155 0 00-.154.154l.056 4.746-.056 4.746c0 .084.07.154.154.154h1.82c.084 0 .154-.07.14-.154l-.028-.616c.49.588 1.19.91 2.086.91 1.96 0 3.164-1.68 3.164-3.766zm-5.292-.056c.014-1.484.56-2.24 1.582-2.24 1.008-.014 1.568.798 1.568 2.38 0 1.456-.546 2.282-1.61 2.254-1.008-.014-1.554-.854-1.54-2.394zm13.752.056c0-2.296-1.33-3.766-3.682-3.766s-3.71 1.512-3.71 3.808 1.358 3.766 3.71 3.766 3.682-1.512 3.682-3.808zm-5.25.056c0-1.624.49-2.408 1.554-2.422 1.036 0 1.54.784 1.54 2.408 0 1.652-.49 2.366-1.526 2.366-1.05 0-1.568-.728-1.568-2.352zm8.477 3.57c.084 0 .154-.07.154-.154l-.028-2.912v-.532c0-1.54.812-2.24 1.568-2.24.63 0 1.106.504 1.106 1.288v1.484l-.042 2.912c0 .084.07.154.154.154h1.82c.084 0 .154-.07.154-.154l-.042-2.912V6.422c0-1.764-.98-2.8-2.506-2.8-1.008 0-1.834.448-2.324 1.078l.028-.756c.014-.084-.056-.154-.14-.154h-1.722a.155.155 0 00-.154.154l.028 3.598-.056 3.304c0 .084.07.154.154.154h1.848zm12.476-5.726h1.568c.084 0 .154-.07.154-.154V3.944a.155.155 0 00-.154-.154h-1.568v-.28c0-.728.322-.952.784-.952.322 0 .574.028.784.07.084.014.154-.042.154-.112V1.354a.194.194 0 00-.154-.182c-.35-.042-.854-.112-1.274-.112-1.204 0-2.352.616-2.352 2.254v.476h-.938a.155.155 0 00-.154.154V5.12c0 .084.07.154.154.154h.938v2.548l-.07 3.024c0 .084.07.154.154.154h1.89c.084 0 .154-.07.154-.154l-.07-3.024V5.274zm7.768 4.816l-.028.756c-.014.084.056.154.14.154h1.722c.084 0 .154-.07.154-.154l-.028-3.598.056-3.304a.155.155 0 00-.154-.154h-1.848a.155.155 0 00-.154.154l.028 2.912v.532c0 1.54-.812 2.24-1.568 2.24-.63 0-1.106-.504-1.106-1.288V6.856l.042-2.912a.155.155 0 00-.154-.154h-1.82a.155.155 0 00-.154.154l.042 2.912v1.512c0 1.764.98 2.8 2.506 2.8 1.008 0 1.834-.448 2.324-1.078zm7.866-.448c0-.07-.07-.126-.154-.112-.21.056-.462.112-.784.112-.462 0-.77-.196-.77-.812l-.014-3.556h1.582c.084 0 .154-.07.154-.154V3.944a.155.155 0 00-.154-.154h-1.568l.014-1.652a.155.155 0 00-.154-.154h-1.82a.155.155 0 00-.154.154l.014 1.652h-.77a.155.155 0 00-.154.154V5.12c0 .084.07.154.154.154h.784l-.014 3.612c0 1.638 1.162 2.254 2.38 2.254.434 0 .882-.098 1.288-.224a.254.254 0 00.14-.21V9.642zm5.996.448l-.028.756c-.014.084.056.154.14.154h1.722c.084 0 .154-.07.154-.154l-.028-3.598.056-3.304a.155.155 0 00-.154-.154h-1.848a.155.155 0 00-.154.154l.028 2.912v.532c0 1.54-.812 2.24-1.568 2.24-.63 0-1.106-.504-1.106-1.288V6.856l.042-2.912a.155.155 0 00-.154-.154h-1.82a.155.155 0 00-.154.154l.042 2.912v1.512c0 1.764.98 2.8 2.506 2.8 1.008 0 1.834-.448 2.324-1.078zm5.36.91c.084 0 .154-.07.154-.154l-.014-3.052c0-1.652 1.092-2.478 2.576-2.478.07 0 .168 0 .238.014.084 0 .154-.056.154-.14V3.944a.194.194 0 00-.154-.182c-.098-.014-.196-.028-.294-.028-1.05 0-2.016.42-2.576 1.274l.042-1.064c.014-.084-.056-.154-.14-.154h-1.792a.155.155 0 00-.154.154l.056 3.444-.056 3.458c0 .084.07.154.154.154h1.806zm8.975-2.436a.18.18 0 00-.182.154c-.196.756-.7 1.064-1.4 1.064-1.008 0-1.54-.602-1.624-1.96h5.124c.084 0 .154-.07.154-.154-.056-2.506-1.358-4.06-3.724-4.06-2.296 0-3.668 1.512-3.668 3.808 0 2.184 1.302 3.766 3.71 3.766 2.002 0 3.262-1.148 3.458-2.464.014-.084-.056-.154-.14-.154h-1.708zm-.196-2.072h-2.954c.168-.994.672-1.498 1.512-1.498.924 0 1.358.728 1.442 1.498zM221.744 11c.07 0 .14-.056.154-.126l1.764-6.958c.014-.07-.028-.126-.098-.126h-.924c-.07 0-.14.056-.154.126l-1.358 5.922-1.428-5.922a.164.164 0 00-.154-.126h-1.274c-.07 0-.14.056-.154.126l-1.386 6.006-1.4-6.006a.164.164 0 00-.154-.126h-1.036a.105.105 0 00-.098.126l1.876 6.958c.014.07.084.126.154.126h1.218c.07 0 .14-.056.154-.126l1.372-6.02 1.526 6.02c.014.07.084.126.154.126h1.246zm4.357-8.036c.07 0 .126-.056.126-.126V1.69a.125.125 0 00-.126-.126h-1.05a.125.125 0 00-.126.126v1.148c0 .07.056.126.126.126h1.05zm0 8.036c.07 0 .126-.056.126-.126l-.028-3.598.028-3.36a.125.125 0 00-.126-.126h-1.05a.125.125 0 00-.126.126l.028 3.374-.028 3.584c0 .07.056.126.126.126h1.05zm5.483-.882c0-.056-.056-.112-.126-.084a3.619 3.619 0 01-.742.084c-.616 0-.91-.266-.91-1.134v-4.2h1.652c.07 0 .126-.056.126-.126v-.742a.125.125 0 00-.126-.126h-1.652l.014-1.68a.125.125 0 00-.126-.126h-1.036a.125.125 0 00-.126.126l.014 1.68h-.798a.125.125 0 00-.126.126v.742c0 .07.056.126.126.126h.798v4.228c0 1.568.882 2.114 1.932 2.114.336 0 .7-.084.98-.168.07-.028.126-.098.126-.168v-.672zm6.097-3.584l.014 1.568-.042 2.772c0 .07.056.126.126.126h1.064c.07 0 .126-.056.126-.126l-.042-2.786.014-1.456c.014-2.072-.924-3.01-2.45-3.01-1.12 0-1.89.588-2.338 1.33l.028-3.626a.125.125 0 00-.126-.126h-1.022a.125.125 0 00-.126.126l.042 4.704-.042 4.844c0 .07.056.126.126.126h1.022c.07 0 .126-.056.126-.126l-.042-4.2c.308-1.288 1.106-2.044 2.044-2.044.868 0 1.498.56 1.498 1.904zm14.107 1.498c0-3.878-6.286-2.184-6.286-4.27 0-.812.728-1.162 1.736-1.162 1.176 0 1.89.476 2.016 1.344.014.098.084.154.182.154h1.918c.084 0 .14-.07.14-.154-.308-2.072-1.89-2.954-4.172-2.954-2.506 0-3.934 1.148-3.934 2.982 0 3.892 6.258 2.142 6.258 4.354 0 .924-.7 1.302-1.974 1.302-1.596 0-2.1-.7-2.24-1.778-.014-.084-.084-.154-.168-.154h-1.918a.155.155 0 00-.154.154c.112 2.296 1.876 3.374 4.438 3.374s4.158-1.12 4.158-3.192zm5.595 1.61c0-.07-.07-.126-.154-.112-.21.056-.462.112-.784.112-.462 0-.77-.196-.77-.812l-.014-3.556h1.582c.084 0 .154-.07.154-.154V3.944a.155.155 0 00-.154-.154h-1.568l.014-1.652a.155.155 0 00-.154-.154h-1.82a.155.155 0 00-.154.154l.014 1.652h-.77a.155.155 0 00-.154.154V5.12c0 .084.07.154.154.154h.784l-.014 3.612c0 1.638 1.162 2.254 2.38 2.254.434 0 .882-.098 1.288-.224a.254.254 0 00.14-.21V9.642zm8.2-2.268c0-2.296-1.33-3.766-3.682-3.766s-3.71 1.512-3.71 3.808 1.358 3.766 3.71 3.766 3.682-1.512 3.682-3.808zm-5.25.056c0-1.624.49-2.408 1.554-2.422 1.036 0 1.54.784 1.54 2.408 0 1.652-.49 2.366-1.526 2.366-1.05 0-1.568-.728-1.568-2.352zm8.476 3.57c.084 0 .154-.07.154-.154l-.028-2.912v-.532c0-1.54.812-2.24 1.568-2.24.63 0 1.106.504 1.106 1.288v1.484l-.042 2.912c0 .084.07.154.154.154h1.82c.084 0 .154-.07.154-.154l-.042-2.912V6.422c0-1.764-.98-2.8-2.506-2.8-1.008 0-1.834.448-2.324 1.078l.028-.756c.014-.084-.056-.154-.14-.154h-1.722a.155.155 0 00-.154.154l.028 3.598-.056 3.304c0 .084.07.154.154.154h1.848zm11.38-2.436a.18.18 0 00-.182.154c-.196.756-.7 1.064-1.4 1.064-1.008 0-1.54-.602-1.624-1.96h5.124c.084 0 .154-.07.154-.154-.056-2.506-1.358-4.06-3.724-4.06-2.296 0-3.668 1.512-3.668 3.808 0 2.184 1.302 3.766 3.71 3.766 2.002 0 3.262-1.148 3.458-2.464.014-.084-.056-.154-.14-.154h-1.708zm-.196-2.072h-2.954c.168-.994.672-1.498 1.512-1.498.924 0 1.358.728 1.442 1.498zM291.365 11c.07 0 .112-.07.07-.126l-3.206-4.956 2.912-4.592c.042-.056 0-.126-.07-.126h-2.114a.312.312 0 00-.238.126l-1.68 2.856-1.638-2.842a.289.289 0 00-.238-.14h-2.268c-.07 0-.112.07-.07.126l2.94 4.522-3.178 5.026c-.042.056 0 .126.07.126h2.114a.312.312 0 00.238-.126l1.974-3.36 1.876 3.346a.25.25 0 00.224.14h2.282z" fill="#fff"/></svg>