<svg width="113" height="26" viewBox="0 0 113 26" fill="none" xmlns="http://www.w3.org/2000/svg"><rect width="113" height="26" rx="13" fill="#14964F"/><path d="M25.477 10.924V9.11H18.77v1.815h2.289V17h2.13v-6.076h2.288zm1.067-1.803V17h2.119v-2.401h1.263L31.457 17h2.446l-1.77-2.683c1.094-.372 1.556-1.172 1.556-2.457 0-1.928-1.026-2.74-3.596-2.74h-3.55zm2.119 1.905h1.533c.935 0 1.285.293 1.285.97 0 .687-.35.968-1.285.968h-1.533v-1.938zM43.486 17l-3.145-7.89h-2.784L34.446 17h2.536l.508-1.375h2.953L40.95 17h2.536zm-5.444-3.066l.913-2.457.913 2.457h-1.826zm6.51-4.813V17h3.382c2.334 0 4.227-1.702 4.227-3.934 0-2.243-1.893-3.957-4.227-3.957l-3.381.012zm2.12 1.893h1.184c1.172 0 2.13.88 2.13 2.04 0 1.173-.958 2.052-2.13 2.052h-1.184v-4.091zm13.344 0V9.11h-6.459V17h6.527v-1.905h-4.408v-1.184h4.036v-1.803h-4.036v-1.094h4.34zM71.498 17V9.11h-2.086v4.407l-3.179-4.408h-2.198V17h2.086v-4.396L69.299 17h2.198zm5.556-7.992c-2.333 0-4.227 1.815-4.227 4.058 0 2.232 1.894 4.047 4.227 4.047 2.334 0 4.227-1.815 4.227-4.047 0-2.243-1.893-4.058-4.227-4.058zm0 1.984c1.184 0 2.018.924 2.018 2.074 0 1.138-.834 2.063-2.018 2.063-1.183 0-2.006-.925-2.006-2.063 0-1.15.823-2.074 2.006-2.074zM91.454 17l2.593-7.88H91.68l-1.409 4.566-1.375-4.577h-2.074l-1.375 4.577-1.41-4.565H81.67L84.263 17h2.175l1.42-4.531L89.28 17h2.176z" fill="#fff"/></svg>