<svg width="101" height="11" viewBox="0 0 101 11" fill="none" xmlns="http://www.w3.org/2000/svg"><path d="M.446 8.408h3.05c1.937 0 2.98-.871 2.98-2.293 0-1.146-.734-1.708-1.685-1.857.837-.23 1.375-.802 1.375-1.754 0-1.318-1.008-2.12-2.774-2.12H.446v8.024zm2.98-6.924c.918 0 1.422.436 1.422 1.146 0 .723-.516 1.158-1.421 1.158H1.764V1.484h1.663zm.08 3.393c1.021 0 1.617.436 1.617 1.227 0 .745-.562 1.192-1.616 1.192H1.764V4.877h1.743zm6.787 3.6c1.456 0 2.442-.883 2.648-2.04h-1.238c-.172.653-.722 1.03-1.479 1.03-.974 0-1.605-.652-1.64-1.65v-.08h4.426c.023-.16.034-.321.034-.47-.034-1.72-1.17-2.797-2.866-2.797-1.73 0-2.889 1.204-2.889 3.015 0 1.8 1.158 2.992 3.004 2.992zM8.63 4.83c.091-.837.768-1.364 1.559-1.364.86 0 1.467.493 1.57 1.364H8.63zM20.119 2.47c-.917 0-1.525.424-1.914.94l-.15-.871h-1.077V10.7h1.238V7.583c.367.527.997.894 1.903.894 1.605 0 2.774-1.192 2.774-3.004 0-1.88-1.17-3.003-2.774-3.003zm-.206 4.964c-1.032 0-1.708-.814-1.708-1.984 0-1.135.676-1.926 1.708-1.926 1.031 0 1.72.791 1.72 1.95 0 1.146-.689 1.96-1.72 1.96zm6.941-4.895c-.963 0-1.433.39-1.73.882l-.138-.882h-1.1v5.869h1.237V5.462c0-.906.356-1.766 1.456-1.766h.55V2.54h-.275zM30.4 8.477c1.456 0 2.442-.883 2.648-2.04h-1.238c-.172.653-.722 1.03-1.479 1.03-.974 0-1.605-.652-1.64-1.65v-.08h4.426c.023-.16.034-.321.034-.47-.034-1.72-1.17-2.797-2.866-2.797-1.73 0-2.889 1.204-2.889 3.015 0 1.8 1.158 2.992 3.004 2.992zM28.737 4.83c.091-.837.768-1.364 1.559-1.364.86 0 1.467.493 1.57 1.364h-3.13zm8.555-2.361c-.917 0-1.525.424-1.914.94l-.15-.871h-1.077V10.7h1.238V7.583c.367.527.997.894 1.903.894 1.605 0 2.774-1.192 2.774-3.004 0-1.88-1.17-3.003-2.774-3.003zm-.206 4.964c-1.032 0-1.708-.814-1.708-1.984 0-1.135.676-1.926 1.708-1.926 1.031 0 1.72.791 1.72 1.95 0 1.146-.689 1.96-1.72 1.96zm9.337-.104c-.252 0-.378-.08-.378-.378v-2.35c0-1.387-.894-2.132-2.453-2.132-1.48 0-2.465.71-2.591 1.857h1.215c.092-.516.585-.86 1.318-.86.814 0 1.284.401 1.284 1.055v.355H43.34c-1.64 0-2.511.677-2.511 1.88 0 1.09.894 1.72 2.178 1.72.952 0 1.548-.413 1.937-1.01 0 .586.276.941 1.078.941h.653V7.33h-.252zM44.818 6c-.011.906-.607 1.514-1.639 1.514-.676 0-1.089-.344-1.089-.837 0-.596.424-.883 1.192-.883h1.536v.207zm5.5-3.461c-.962 0-1.432.39-1.73.882l-.138-.882h-1.1v5.869h1.238V5.462c0-.906.355-1.766 1.456-1.766h.55V2.54h-.275zm3.545 5.938c1.456 0 2.442-.883 2.648-2.04h-1.238c-.172.653-.722 1.03-1.478 1.03-.975 0-1.605-.652-1.64-1.65v-.08h4.425c.023-.16.035-.321.035-.47-.035-1.72-1.17-2.797-2.866-2.797-1.731 0-2.89 1.204-2.89 3.015 0 1.8 1.159 2.992 3.004 2.992zM52.201 4.83c.092-.837.768-1.364 1.56-1.364.859 0 1.466.493 1.57 1.364H52.2zm9.874-1.478c-.378-.516-1.009-.883-1.903-.883-1.593 0-2.774 1.192-2.774 3.003 0 1.88 1.18 3.004 2.774 3.004.928 0 1.536-.436 1.914-.952l.15.883h1.077V.383h-1.238v2.97zm-1.697 4.08c-1.032 0-1.708-.802-1.708-1.96 0-1.146.676-1.949 1.708-1.949s1.708.803 1.708 1.972c0 1.135-.676 1.938-1.708 1.938zm6.482-3.805h1.02v4.78h1.25v-4.78h1.57v-1.09h-1.593v-.492c0-.402.172-.574.573-.574h1.02V.383h-1.18c-1.136 0-1.64.55-1.64 1.605v.55h-1.02v1.09zm7.008 4.849c1.789 0 2.992-1.204 2.992-3.004 0-1.788-1.203-3.003-2.992-3.003-1.788 0-2.992 1.215-2.992 3.003 0 1.8 1.204 3.004 2.992 3.004zm0-1.055c-1.043 0-1.72-.814-1.72-1.949 0-1.135.677-1.949 1.72-1.949 1.044 0 1.731.814 1.731 1.95 0 1.134-.687 1.948-1.73 1.948zm6.957-4.883c-.963 0-1.433.39-1.731.882l-.137-.882h-1.101v5.869h1.238V5.462c0-.906.355-1.766 1.456-1.766h.55V2.54h-.275zm4.396 4.276c0 1.066.481 1.593 1.605 1.593h1.146v-1.09h-.871c-.47 0-.63-.171-.63-.63v-3.06h1.432v-1.09H86.47V.9h-1.249v1.64h-1.02v1.089h1.02v3.187zm6.623-4.345c-.918 0-1.48.413-1.846.917V.383H88.76v8.025h1.238v-2.97c0-1.18.596-1.902 1.57-1.902.918 0 1.41.596 1.41 1.708v3.164h1.239V5.141c0-1.96-1.067-2.671-2.373-2.671zm6.24 6.007c1.455 0 2.441-.883 2.647-2.04h-1.238c-.172.653-.722 1.03-1.478 1.03-.975 0-1.605-.652-1.64-1.65v-.08h4.425c.023-.16.035-.321.035-.47-.035-1.72-1.17-2.797-2.866-2.797-1.731 0-2.89 1.204-2.89 3.015 0 1.8 1.159 2.992 3.004 2.992zM96.42 4.83c.092-.837.768-1.364 1.56-1.364.859 0 1.466.493 1.57 1.364h-3.13z" fill="#000"/></svg>