<svg width="534" height="33" viewBox="0 0 534 33" fill="none" xmlns="http://www.w3.org/2000/svg"><path d="M.68 4.668h7.344V25h3.91V4.668h7.344V1.2H.68v3.468zm28.256 2.924c-2.856 0-4.25 1.156-5.134 2.618l-.408-2.618H20.13V25h3.672v-8.738c0-2.686 1.054-5.236 4.318-5.236h1.632V7.592h-.816zm18.462 14.212c-.748 0-1.122-.238-1.122-1.122v-6.97c0-4.114-2.652-6.324-7.276-6.324-4.386 0-7.31 2.108-7.684 5.508h3.604c.272-1.53 1.734-2.55 3.91-2.55 2.414 0 3.808 1.19 3.808 3.128v1.054h-4.386c-4.862 0-7.446 2.006-7.446 5.576 0 3.23 2.652 5.1 6.46 5.1 2.822 0 4.59-1.224 5.746-2.992 0 1.734.816 2.788 3.196 2.788h1.938v-3.196h-.748zm-4.76-3.944c-.034 2.686-1.802 4.488-4.862 4.488-2.006 0-3.23-1.02-3.23-2.482 0-1.768 1.258-2.618 3.536-2.618h4.556v.612zm20.6-7.854c-1.121-1.53-2.991-2.618-5.643-2.618-4.726 0-8.228 3.536-8.228 8.908 0 5.576 3.502 8.908 8.228 8.908 2.754 0 4.556-1.292 5.678-2.822L63.715 25h3.196V1.2h-3.672v8.806zM58.208 22.11c-3.06 0-5.066-2.38-5.066-5.814 0-3.4 2.006-5.78 5.066-5.78s5.066 2.38 5.066 5.848c0 3.366-2.006 5.746-5.066 5.746zm20.554 3.094c4.318 0 7.242-2.618 7.854-6.052h-3.672c-.51 1.938-2.142 3.06-4.386 3.06-2.89 0-4.76-1.938-4.862-4.896v-.238H86.82c.068-.476.102-.952.102-1.394-.102-5.1-3.468-8.296-8.5-8.296-5.134 0-8.568 3.57-8.568 8.942 0 5.338 3.434 8.874 8.908 8.874zm-4.93-10.812c.272-2.482 2.278-4.046 4.624-4.046 2.55 0 4.352 1.462 4.658 4.046h-9.282zm24.01 4.862c.102 3.774 3.298 5.95 7.956 5.95 4.216 0 7.378-2.108 7.378-5.44 0-3.876-3.23-4.692-7.208-5.168-2.516-.272-4.182-.476-4.182-2.108 0-1.394 1.428-2.278 3.604-2.278s3.672 1.122 3.876 2.72h3.604c-.238-3.57-3.264-5.542-7.548-5.542-4.182-.034-7.14 2.108-7.14 5.406 0 3.604 3.128 4.454 7.106 4.93 2.686.34 4.284.476 4.284 2.346 0 1.394-1.496 2.278-3.774 2.278-2.652 0-4.216-1.292-4.352-3.094h-3.604zm38.206-11.866c-2.856 0-4.828 1.258-5.95 3.162-1.054-2.244-3.094-3.162-5.372-3.162-2.618.034-4.114 1.19-5.1 2.482l-.408-2.278h-3.196V25h3.672v-9.316c0-3.094 1.564-5.134 4.08-5.134 2.414 0 3.672 1.598 3.672 4.658V25h3.706v-9.418c0-3.128 1.598-5.032 4.114-5.032 2.38 0 3.638 1.598 3.638 4.658V25h3.672V14.97c0-5.508-2.924-7.582-6.528-7.582zm25.769 14.416c-.748 0-1.122-.238-1.122-1.122v-6.97c0-4.114-2.652-6.324-7.276-6.324-4.386 0-7.31 2.108-7.684 5.508h3.604c.272-1.53 1.734-2.55 3.91-2.55 2.414 0 3.808 1.19 3.808 3.128v1.054h-4.386c-4.862 0-7.446 2.006-7.446 5.576 0 3.23 2.652 5.1 6.46 5.1 2.822 0 4.59-1.224 5.746-2.992 0 1.734.816 2.788 3.196 2.788h1.938v-3.196h-.748zm-4.76-3.944c-.034 2.686-1.802 4.488-4.862 4.488-2.006 0-3.23-1.02-3.23-2.482 0-1.768 1.258-2.618 3.536-2.618h4.556v.612zM173.37 7.592c-2.856 0-4.25 1.156-5.134 2.618l-.408-2.618h-3.264V25h3.672v-8.738c0-2.686 1.054-5.236 4.318-5.236h1.632V7.592h-.816zm4.969 12.682c0 3.162 1.428 4.726 4.76 4.726h3.4v-3.23h-2.584c-1.394 0-1.87-.51-1.87-1.87v-9.078h4.25v-3.23h-4.25V2.73h-3.706v4.862h-3.026v3.23h3.026v9.452zm18.393 4.93c4.318 0 7.242-2.618 7.854-6.052h-3.672c-.51 1.938-2.142 3.06-4.386 3.06-2.89 0-4.76-1.938-4.862-4.896v-.238h13.124c.068-.476.102-.952.102-1.394-.102-5.1-3.468-8.296-8.5-8.296-5.134 0-8.568 3.57-8.568 8.942 0 5.338 3.434 8.874 8.908 8.874zm-4.93-10.812c.272-2.482 2.278-4.046 4.624-4.046 2.55 0 4.352 1.462 4.658 4.046h-9.282zm24.865-6.8c-2.856 0-4.25 1.156-5.134 2.618l-.408-2.618h-3.264V25h3.672v-8.738c0-2.686 1.054-5.236 4.318-5.236h1.632V7.592h-.816zM232.459 25h3.978l3.808-11.832L243.917 25h3.944l5.78-17.408h-3.74l-4.114 13.328-3.808-13.328h-3.366l-3.978 13.328-3.978-13.328h-3.876L232.459 25zm24.984-19.856c1.258 0 2.244-.918 2.244-2.21 0-1.292-.986-2.21-2.244-2.21-1.258 0-2.244.918-2.244 2.21 0 1.292.986 2.21 2.244 2.21zM255.573 25h3.672V7.592h-3.672V25zm8.53-4.726c0 3.162 1.428 4.726 4.76 4.726h3.4v-3.23h-2.584c-1.394 0-1.87-.51-1.87-1.87v-9.078h4.25v-3.23h-4.25V2.73h-3.706v4.862h-3.026v3.23h3.026v9.452zm19.642-12.886c-2.72 0-4.386 1.224-5.474 2.72V1.2h-3.672V25h3.672v-8.806c0-3.502 1.768-5.644 4.658-5.644 2.72 0 4.182 1.768 4.182 5.066V25h3.672v-9.69c0-5.814-3.162-7.922-7.038-7.922zm18.499 9.792c.136 4.76 3.706 8.024 9.622 8.024 5.236 0 8.806-2.958 8.806-7.242.034-4.692-3.808-5.95-7.752-6.664-3.74-.646-6.188-1.156-6.188-3.604 0-2.244 1.87-3.4 4.556-3.4 2.89 0 4.794 1.632 5.1 4.046h3.91c-.17-4.386-3.57-7.344-9.01-7.344-5.066 0-8.466 2.822-8.466 6.97 0 4.726 3.74 5.984 7.684 6.664 3.774.68 6.256 1.224 6.256 3.74 0 2.278-2.04 3.536-4.862 3.536-3.332 0-5.508-1.87-5.712-4.658l-3.944-.068zm21.87 7.82h3.774V7.49l7.14 17.51h3.298l7.14-17.51V25h3.774V1.2h-4.964l-7.48 18.734L329.18 1.2h-5.066V25zm31.626 0l2.21-5.882h9.758L369.952 25h4.182L365.26 1.2h-4.658L351.694 25h4.046zm7.072-19.584l3.808 10.37h-7.582l3.774-10.37zM376.574 25h3.91v-8.636h5.236L390.31 25h4.352l-5.032-9.486c2.788-.986 4.624-3.536 4.624-6.732 0-4.624-3.332-7.582-8.296-7.582h-9.384V25zm9.078-20.4c2.788 0 4.59 1.632 4.59 4.182 0 2.55-1.802 4.182-4.59 4.182h-5.168V4.6h5.168zm9.481.068h7.344V25h3.91V4.668h7.344V1.2h-18.598v3.468zm29.198 12.512c.136 4.76 3.706 8.024 9.622 8.024 5.236 0 8.806-2.958 8.806-7.242.034-4.692-3.808-5.95-7.752-6.664-3.74-.646-6.188-1.156-6.188-3.604 0-2.244 1.87-3.4 4.556-3.4 2.89 0 4.794 1.632 5.1 4.046h3.91c-.17-4.386-3.57-7.344-9.01-7.344-5.066 0-8.466 2.822-8.466 6.97 0 4.726 3.74 5.984 7.684 6.664 3.774.68 6.256 1.224 6.256 3.74 0 2.278-2.04 3.536-4.862 3.536-3.332 0-5.508-1.87-5.712-4.658l-3.944-.068zm23.366-12.036c1.258 0 2.244-.918 2.244-2.21 0-1.292-.986-2.21-2.244-2.21-1.258 0-2.244.918-2.244 2.21 0 1.292.986 2.21 2.244 2.21zM445.827 25h3.672V7.592h-3.672V25zm20.566-14.688c-1.122-1.734-2.992-2.924-5.712-2.924-4.726 0-8.228 3.502-8.228 8.84 0 5.542 3.502 8.84 8.228 8.84 2.72 0 4.522-1.122 5.678-2.856v1.938c0 3.332-1.802 4.862-4.998 4.862-2.584 0-4.284-1.122-4.726-3.06h-3.74c.34 3.91 3.57 6.052 8.194 6.052 6.256 0 8.908-2.992 8.908-7.718V7.592h-3.196l-.408 2.72zm-5.1 11.662c-3.06 0-5.066-2.346-5.066-5.746 0-3.366 2.006-5.746 5.066-5.746s5.066 2.38 5.066 5.814c0 3.332-2.006 5.678-5.066 5.678zm21.472-14.586c-2.822 0-4.488 1.122-5.576 2.482l-.408-2.278h-3.196V25h3.672v-8.772c0-3.536 1.734-5.678 4.658-5.678 2.754 0 4.148 1.768 4.148 5.066V25h3.706v-9.69c0-5.814-3.162-7.922-7.004-7.922zm26.256 14.416c-.748 0-1.122-.238-1.122-1.122v-6.97c0-4.114-2.652-6.324-7.276-6.324-4.386 0-7.31 2.108-7.684 5.508h3.604c.272-1.53 1.734-2.55 3.91-2.55 2.414 0 3.808 1.19 3.808 3.128v1.054h-4.386c-4.862 0-7.446 2.006-7.446 5.576 0 3.23 2.652 5.1 6.46 5.1 2.822 0 4.59-1.224 5.746-2.992 0 1.734.816 2.788 3.196 2.788h1.938v-3.196h-.748zm-4.76-3.944c-.034 2.686-1.802 4.488-4.862 4.488-2.006 0-3.23-1.02-3.23-2.482 0-1.768 1.258-2.618 3.536-2.618h4.556v.612zm7.508 7.14h3.672V1.2h-3.672V25zm6.523-5.746c.102 3.774 3.298 5.95 7.956 5.95 4.216 0 7.378-2.108 7.378-5.44 0-3.876-3.23-4.692-7.208-5.168-2.516-.272-4.182-.476-4.182-2.108 0-1.394 1.428-2.278 3.604-2.278s3.672 1.122 3.876 2.72h3.604c-.238-3.57-3.264-5.542-7.548-5.542-4.182-.034-7.14 2.108-7.14 5.406 0 3.604 3.128 4.454 7.106 4.93 2.686.34 4.284.476 4.284 2.346 0 1.394-1.496 2.278-3.774 2.278-2.652 0-4.216-1.292-4.352-3.094h-3.604z" fill="#000"/></svg>