<svg width="300" height="600" viewBox="0 0 300 600" fill="none" xmlns="http://www.w3.org/2000/svg"><path d="M34.622 185c.17 0 .34-.17.34-.34l-.136-11.05.136-12.07c0-.17-.17-.34-.34-.34H31.29a.56.56 0 00-.51.306c-1.054 1.666-2.754 2.992-4.862 3.808a.484.484 0 00-.306.442v2.686c0 .17.17.306.34.238 1.836-.578 3.468-1.428 4.76-2.652l.068 8.228-.102 10.404c0 .17.17.34.34.34h3.604zm21.882-8.772c0-.17-.17-.34-.34-.34H53.92V161.54c0-.17-.17-.34-.34-.34h-4.93a.71.71 0 00-.544.272l-9.01 13.736c-.136.17-.204.408-.204.612v2.992c0 .17.17.34.34.34h10.506v5.508c0 .17.17.34.34.34h3.502c.17 0 .34-.17.34-.34v-5.508h2.244c.17 0 .34-.17.34-.34v-2.584zm-6.766-.34h-7.344l7.48-11.594-.136 4.556v7.038zm27.465-2.72c0-8.228-3.57-12.444-9.01-12.444-5.474 0-9.01 4.284-9.01 12.41 0 7.888 3.57 12.342 9.01 12.342 5.44 0 9.01-4.42 9.01-12.308zm-13.736 0c0-6.222 1.665-9.044 4.725-9.044 2.993 0 4.727 2.89 4.727 9.044 0 6.12-1.734 8.908-4.727 8.908-2.957 0-4.725-2.822-4.725-8.908zm32.712-1.156c0-.17-.17-.34-.34-.34h-5.882v-6.596c0-.17-.17-.34-.34-.34H87.1c-.17 0-.34.17-.34.34v6.596h-5.882c-.17 0-.34.17-.34.34v2.55c0 .17.17.34.34.34h5.882v6.562c0 .17.17.34.34.34h2.516c.17 0 .34-.17.34-.34v-6.562h5.882c.17 0 .34-.17.34-.34v-2.55zm26.039 6.8c.034-.136-.102-.272-.238-.272h-1.054c-.136 0-.272.136-.306.272-.272 3.298-2.414 5.236-5.678 5.236-4.08-.034-5.95-2.992-5.95-7.752s1.904-7.82 5.95-7.82c2.992 0 5.032 1.598 5.508 4.692.034.17.17.272.306.272h1.02c.136 0 .272-.136.238-.272-.374-3.638-2.856-6.052-7.072-6.052-5.032 0-7.684 3.706-7.684 9.18s2.652 9.078 7.65 9.078c4.488 0 7.004-2.754 7.31-6.562zm15.142 2.584l-.068 3.332c0 .136.136.272.272.272h1.156a.293.293 0 00.272-.272l-.068-9.554.068-7.412a.293.293 0 00-.272-.272h-1.19a.293.293 0 00-.272.272l.034 7.242v3.808c-1.156 3.196-2.924 5.168-5.542 5.168-2.652 0-4.42-1.598-4.42-5.814v-3.162l.068-7.242a.293.293 0 00-.272-.272h-1.19a.293.293 0 00-.272.272l.034 7.242v3.332c0 4.794 2.176 7.072 5.712 7.072 3.026 0 4.964-2.04 5.95-4.012zm7.631 3.604a.293.293 0 00.272-.272l-.068-10.608c.646-3.74 3.128-5.372 5.644-5.372.51 0 .918.034 1.258.136.136.034.272-.068.272-.204v-.918a.366.366 0 00-.272-.34c-.34-.102-.748-.136-1.19-.136-2.38 0-4.59 1.326-5.746 3.706l.102-3.23a.293.293 0 00-.272-.272h-1.19a.293.293 0 00-.272.272l.102 8.194-.102 8.772c0 .136.136.272.272.272h1.19zm12.085 0a.293.293 0 00.272-.272l-.068-10.608c.646-3.74 3.128-5.372 5.644-5.372.51 0 .918.034 1.258.136.136.034.272-.068.272-.204v-.918a.366.366 0 00-.272-.34c-.34-.102-.748-.136-1.19-.136-2.38 0-4.59 1.326-5.746 3.706l.102-3.23a.293.293 0 00-.272-.272h-1.19a.293.293 0 00-.272.272l.102 8.194-.102 8.772c0 .136.136.272.272.272h1.19zm21.986-6.188c-.136 0-.306.102-.306.272-.578 3.094-2.38 4.964-5.542 4.964-4.148 0-6.222-2.89-6.222-7.82l13.226-.034a.293.293 0 00.272-.272c-.102-5.576-2.89-8.806-7.514-8.806-4.726 0-7.684 3.808-7.684 9.18s2.72 9.078 7.888 9.078c4.182 0 6.562-2.448 7.208-6.29 0-.136-.102-.272-.238-.272h-1.088zm-.374-3.978H167.06c.408-3.91 2.448-6.392 5.916-6.392 3.706 0 5.678 2.856 5.712 6.392zM185.795 185a.293.293 0 00.272-.272l-.034-7.242v-3.808c1.156-3.196 2.924-5.168 5.542-5.168 2.652 0 4.42 1.598 4.42 5.814v3.162l-.068 7.242c0 .136.136.272.272.272h1.19a.293.293 0 00.272-.272l-.034-7.242v-3.332c0-4.794-2.176-7.072-5.712-7.072-3.026 0-4.964 2.04-5.95 4.012l.068-3.332a.293.293 0 00-.272-.272h-1.156a.293.293 0 00-.272.272l.068 9.554-.068 7.412c0 .136.136.272.272.272h1.19zm30.513-6.188c.034-.136-.102-.272-.238-.272h-1.054c-.136 0-.272.136-.306.272-.272 3.298-2.414 5.236-5.678 5.236-4.08-.034-5.95-2.992-5.95-7.752s1.904-7.82 5.95-7.82c2.992 0 5.032 1.598 5.508 4.692.034.17.17.272.306.272h1.02c.136 0 .272-.136.238-.272-.374-3.638-2.856-6.052-7.072-6.052-5.032 0-7.684 3.706-7.684 9.18s2.652 9.078 7.65 9.078c4.488 0 7.004-2.754 7.31-6.562zm5.214-13.6a.293.293 0 00.272-.272v-1.836a.293.293 0 00-.272-.272h-1.19a.293.293 0 00-.272.272v1.836c0 .136.136.272.272.272h1.19zm0 19.788a.293.293 0 00.272-.272l-.034-9.01.034-7.956a.293.293 0 00-.272-.272h-1.19a.293.293 0 00-.272.272l.068 7.99-.068 8.976c0 .136.136.272.272.272h1.19zm18.064-6.188c-.136 0-.306.102-.306.272-.578 3.094-2.38 4.964-5.542 4.964-4.148 0-6.222-2.89-6.222-7.82l13.226-.034a.293.293 0 00.272-.272c-.102-5.576-2.89-8.806-7.514-8.806-4.726 0-7.684 3.808-7.684 9.18s2.72 9.078 7.888 9.078c4.182 0 6.562-2.448 7.208-6.29 0-.136-.102-.272-.238-.272h-1.088zm-.374-3.978h-11.628c.408-3.91 2.448-6.392 5.916-6.392 3.706 0 5.678 2.856 5.712 6.392zm18.872 5.372c0-7.276-12.07-3.162-12.07-8.33 0-2.312 1.87-3.468 4.76-3.468 2.822 0 5.066 1.156 5.236 3.978 0 .136.136.272.272.272h1.02a.293.293 0 00.272-.272c-.17-3.638-3.094-5.236-6.766-5.236-3.74 0-6.426 1.632-6.426 4.794 0 6.8 12.07 2.686 12.07 8.364 0 2.414-2.142 3.774-5.134 3.774-3.604 0-5.576-1.598-5.678-5.032a.293.293 0 00-.272-.272h-1.088a.293.293 0 00-.272.272c.102 4.284 2.89 6.29 7.276 6.29 3.808 0 6.8-1.904 6.8-5.134zM34.622 125c.17 0 .34-.17.34-.34l-.136-11.05.136-12.07c0-.17-.17-.34-.34-.34H31.29a.56.56 0 00-.51.306c-1.054 1.666-2.754 2.992-4.862 3.808a.484.484 0 00-.306.442v2.686c0 .17.17.306.34.238 1.836-.578 3.468-1.428 4.76-2.652l.068 8.228-.102 10.404c0 .17.17.34.34.34h3.604zm21.95-6.698c0-2.788-1.632-4.964-4.658-5.916 2.55-1.054 3.944-2.958 3.91-5.236-.068-4.08-2.992-6.392-7.99-6.392-4.964 0-7.922 2.312-7.956 6.392-.034 2.346 1.326 4.25 3.842 5.236-2.992.952-4.59 3.128-4.59 5.916 0 4.488 3.774 7.106 8.704 7.106 4.964 0 8.738-2.618 8.738-7.106zM43.89 107.524c.034-2.38 1.564-3.842 3.944-3.842s3.944 1.462 3.944 3.842c0 2.074-1.496 3.672-3.944 3.672-2.414 0-3.944-1.53-3.944-3.672zm-.68 10.642c0-2.584 1.768-4.216 4.624-4.25 2.856.034 4.624 1.666 4.624 4.25.034 2.482-1.836 4.318-4.624 4.318-2.754 0-4.658-1.836-4.624-4.318zm34.358-4.998c0-8.228-3.57-12.444-9.01-12.444-5.474 0-9.01 4.284-9.01 12.41 0 7.888 3.57 12.342 9.01 12.342 5.44 0 9.01-4.42 9.01-12.308zm-13.736 0c0-6.222 1.666-9.044 4.726-9.044 2.992 0 4.726 2.89 4.726 9.044 0 6.12-1.734 8.908-4.726 8.908-2.958 0-4.726-2.822-4.726-8.908zm32.712-1.156c0-.17-.17-.34-.34-.34h-5.882v-6.596c0-.17-.17-.34-.34-.34h-2.516c-.17 0-.34.17-.34.34v6.596h-5.882c-.17 0-.34.17-.34.34v2.55c0 .17.17.34.34.34h5.882v6.562c0 .17.17.34.34.34h2.516c.17 0 .34-.17.34-.34v-6.562h5.882c.17 0 .34-.17.34-.34v-2.55zm26.039 6.8c.034-.136-.102-.272-.238-.272h-1.054c-.136 0-.272.136-.306.272-.272 3.298-2.414 5.236-5.678 5.236-4.08-.034-5.95-2.992-5.95-7.752s1.904-7.82 5.95-7.82c2.992 0 5.032 1.598 5.508 4.692.034.17.17.272.306.272h1.02c.136 0 .272-.136.238-.272-.374-3.638-2.856-6.052-7.072-6.052-5.032 0-7.684 3.706-7.684 9.18s2.652 9.078 7.65 9.078c4.488 0 7.004-2.754 7.31-6.562zm18.542-2.55c0-5.474-2.754-9.146-7.82-9.146-5.032 0-7.82 3.672-7.82 9.146s2.788 9.112 7.82 9.112c5.066 0 7.82-3.672 7.82-9.112zm-13.906 0c0-4.76 2.04-7.786 6.086-7.82 4.046 0 6.086 3.094 6.086 7.82 0 4.76-2.006 7.786-6.086 7.786-4.046 0-6.086-3.026-6.086-7.786zm29.265 5.134l-.068 3.332c0 .136.136.272.272.272h1.156a.293.293 0 00.272-.272l-.068-9.554.068-7.412a.293.293 0 00-.272-.272h-1.19a.293.293 0 00-.272.272l.034 7.242v3.808c-1.156 3.196-2.924 5.168-5.542 5.168-2.652 0-4.42-1.598-4.42-5.814v-3.162l.068-7.242a.293.293 0 00-.272-.272h-1.19a.293.293 0 00-.272.272l.034 7.242v3.332c0 4.794 2.176 7.072 5.712 7.072 3.026 0 4.964-2.04 5.95-4.012zm7.665 3.604a.293.293 0 00.272-.272l-.034-7.242v-3.808c1.156-3.196 2.924-5.168 5.542-5.168 2.652 0 4.42 1.598 4.42 5.814v3.162l-.068 7.242c0 .136.136.272.272.272h1.19a.293.293 0 00.272-.272l-.034-7.242v-3.332c0-4.794-2.176-7.072-5.712-7.072-3.026 0-4.964 2.04-5.95 4.012l.068-3.332a.293.293 0 00-.272-.272h-1.156a.293.293 0 00-.272.272l.068 9.554-.068 7.412c0 .136.136.272.272.272h1.19zm23.579-1.156c0-.136-.136-.238-.272-.204a8.812 8.812 0 01-1.734.17c-1.7 0-2.414-.782-2.414-3.4v-11.526h4.148a.293.293 0 00.272-.272v-.85a.293.293 0 00-.272-.272h-4.148l.034-4.114a.293.293 0 00-.272-.272h-1.19a.293.293 0 00-.272.272l.068 4.114h-2.006a.293.293 0 00-.272.272v.85c0 .136.136.272.272.272h2.006l-.034 11.526c0 3.706 1.7 4.862 3.978 4.862.612 0 1.326-.136 1.836-.272a.331.331 0 00.272-.34v-.816zm4.906 1.156a.293.293 0 00.272-.272l-.068-10.608c.646-3.74 3.128-5.372 5.644-5.372.51 0 .918.034 1.258.136.136.034.272-.068.272-.204v-.918a.366.366 0 00-.272-.34c-.34-.102-.748-.136-1.19-.136-2.38 0-4.59 1.326-5.746 3.706l.102-3.23a.293.293 0 00-.272-.272h-1.19a.293.293 0 00-.272.272l.102 8.194-.102 8.772c0 .136.136.272.272.272h1.19zm12.254-19.788a.293.293 0 00.272-.272v-1.836a.293.293 0 00-.272-.272h-1.19a.293.293 0 00-.272.272v1.836c0 .136.136.272.272.272h1.19zm0 19.788a.293.293 0 00.272-.272l-.034-9.01.034-7.956a.293.293 0 00-.272-.272h-1.19a.293.293 0 00-.272.272l.068 7.99-.068 8.976c0 .136.136.272.272.272h1.19zm18.065-6.188c-.136 0-.306.102-.306.272-.578 3.094-2.38 4.964-5.542 4.964-4.148 0-6.222-2.89-6.222-7.82l13.226-.034a.293.293 0 00.272-.272c-.102-5.576-2.89-8.806-7.514-8.806-4.726 0-7.684 3.808-7.684 9.18s2.72 9.078 7.888 9.078c4.182 0 6.562-2.448 7.208-6.29 0-.136-.102-.272-.238-.272h-1.088zm-.374-3.978h-11.628c.408-3.91 2.448-6.392 5.916-6.392 3.706 0 5.678 2.856 5.712 6.392zm18.872 5.372c0-7.276-12.07-3.162-12.07-8.33 0-2.312 1.87-3.468 4.76-3.468 2.822 0 5.066 1.156 5.236 3.978 0 .136.136.272.272.272h1.02a.293.293 0 00.272-.272c-.17-3.638-3.094-5.236-6.766-5.236-3.74 0-6.426 1.632-6.426 4.794 0 6.8 12.07 2.686 12.07 8.364 0 2.414-2.142 3.774-5.134 3.774-3.604 0-5.576-1.598-5.678-5.032a.293.293 0 00-.272-.272h-1.088a.293.293 0 00-.272.272c.102 4.284 2.89 6.29 7.276 6.29 3.808 0 6.8-1.904 6.8-5.134z" fill="#fff"/></svg>