<svg width="156" height="70" viewBox="0 0 156 70" fill="none" xmlns="http://www.w3.org/2000/svg"><path d="M18.927 34.073c-2.488 0-4.138-.409-5.368-.927l-.727-4.143h.531l.532.981c1.258 2.345 2.795 3.38 5.256 3.38 2.823 0 4.417-1.362 4.417-3.598 0-1.99-1.174-2.998-4.53-4.143-3.801-1.281-5.703-2.699-5.703-5.888 0-3.19 2.992-5.56 6.71-5.56 2.32 0 3.662.3 4.949.817l.698 4.307h-.559l-.503-1.008c-1.146-2.345-2.6-3.408-4.808-3.408-2.32 0-3.69 1.363-3.69 3.298 0 1.936 1.117 2.917 4.305 3.98 4.193 1.363 5.954 2.917 5.954 6.079.028 3.462-3.41 5.833-7.464 5.833zM36.484 32.383c-1.174.981-2.377 1.636-3.886 1.636-2.237 0-3.41-.982-3.41-3.326v-9.05h-2.07v-.518l2.209-.817 2.18-4.253h.895v4.362h3.746v1.226h-3.746v8.996c0 1.335.671 1.99 1.761 1.99.755 0 1.259-.191 1.957-.682l.364.436zM44.34 34.128c-4.054 0-7.045-2.508-7.045-7.17 0-3.952 2.907-6.977 7.073-6.977 4.165 0 7.045 2.507 7.045 7.168-.028 3.953-2.963 6.979-7.073 6.979zm-.392-13.439c-1.985 0-3.103 1.472-3.103 5.48 0 4.388 1.454 7.25 3.858 7.25 2.013 0 3.103-1.472 3.103-5.479 0-4.389-1.425-7.25-3.858-7.25zM68.606 33.828c-.642 0-2.292-.027-3.55-.027s-2.88.027-3.578.027v-.436l.475-.082c1.258-.218 1.481-.6 1.481-3.08v-5.343c0-2.072-.922-3.08-2.572-3.08-1.146 0-2.096.436-2.935 1.036v7.387c0 2.508.196 2.862 1.482 3.08l.475.082v.436c-.699 0-2.32-.027-3.579-.027-1.258 0-2.907.027-3.578.027v-.436l.56-.082c1.173-.163 1.397-.6 1.397-3.326v-5.887c0-1.472-.252-1.881-1.286-2.345l-.699-.327v-.3l4.864-1.035.392.245v1.908c1.538-1.281 2.963-2.126 4.78-2.126 2.6 0 3.97 1.363 3.97 4.225v5.724c0 2.78.224 3.108 1.426 3.326l.504.082-.029.354zM72.66 25.787v.19c.084 3.871 2.237 6.27 5.144 6.27 1.594 0 2.712-.573 3.886-1.717l.392.272c-1.51 2.045-3.467 3.326-5.983 3.326-3.69 0-6.458-2.454-6.458-6.679 0-4.552 3.522-7.441 6.905-7.441 3.746 0 5.564 2.044 5.648 5.806l-9.534-.027zm6.123-.764c-.084-2.862-1.146-4.306-2.824-4.306-1.9 0-3.103 1.58-3.299 4.306h6.123zM102.63 33.828c-.503 0-3.02-.055-3.998-.055-1.034 0-4.165.055-4.697.055v-.382l.895-.136c.867-.136 1.23-.355 1.23-.872 0-.437-.28-.982-.894-1.909l-3.132-4.66-3.13 4.197c-.728.981-1.063 1.717-1.063 2.263 0 .545.335.872 1.202 1.008l.923.136v.382c-.504 0-2.74-.054-3.747-.054-1.006 0-2.6.054-3.13.054v-.409l.475-.082c1.258-.218 2.432-1.253 3.382-2.426l4.53-5.778-4.446-6.433c-1.034-1.5-1.761-2.181-2.88-2.372l-.587-.109v-.382c.504 0 3.02.055 3.998.055 1.035 0 4.11-.055 4.641-.055v.382l-.894.136c-.755.11-1.175.355-1.175.873 0 .436.28.98.895 1.908l2.684 4.034 2.628-3.598c.699-.982 1.062-1.717 1.062-2.235 0-.518-.363-.873-1.202-1.009l-.923-.136v-.382c.504 0 2.74.055 3.747.055 1.006 0 2.6-.055 3.131-.055v.382l-.475.082c-1.258.218-2.405 1.144-3.383 2.426l-4.054 5.179 4.92 7.032c1.035 1.5 1.762 2.181 2.88 2.372l.587.109v.409zM104.867 18.808c-.224 0-.42-.027-.587-.109a1.466 1.466 0 01-.476-.327 1.238 1.238 0 01-.307-.463 1.391 1.391 0 01-.112-.573c0-.218.028-.409.112-.572.084-.19.195-.327.307-.463.112-.137.308-.246.476-.3.195-.082.391-.11.587-.11.223 0 .419.028.587.11.195.081.335.19.475.3.14.136.252.3.308.463.083.19.111.382.111.572 0 .219-.028.41-.111.573-.084.19-.196.327-.308.463-.14.137-.307.246-.475.327a1.874 1.874 0 01-.587.11zm0-.218c.195 0 .363-.027.503-.109.168-.054.307-.163.419-.272.112-.11.196-.246.28-.41.056-.163.084-.326.084-.49 0-.19-.028-.354-.084-.49a1.078 1.078 0 00-.28-.41 1.565 1.565 0 00-.419-.272c-.168-.055-.336-.109-.503-.109-.196 0-.364.027-.504.11a1.114 1.114 0 00-.419.272c-.112.109-.196.245-.279.409a1.507 1.507 0 00-.084.49c0 .191.028.354.084.49.055.164.167.3.279.41.112.109.252.218.419.272.168.082.336.11.504.11zm-.643-.381v-1.745h.782c.196 0 .364.055.476.136.112.11.167.218.167.382a.488.488 0 01-.167.382c-.112.109-.252.136-.448.136l.084-.027c.084 0 .14.027.196.054a.47.47 0 01.168.164l.307.518h-.419l-.308-.573c-.028-.054-.056-.081-.083-.081-.028-.028-.084-.028-.14-.028h-.196v.682h-.419zm.363-.982h.364c.111 0 .195-.027.223-.054.056-.027.084-.11.084-.19 0-.083-.028-.165-.084-.192a.537.537 0 00-.223-.054h-.364v.49zM18.843 55.853c-3.55 0-6.067-2.699-6.067-7.06s2.572-7.033 6.04-7.033c2.907 0 4.892 1.472 5.507 4.361.028.082-.028.164-.112.164h-.727c-.084 0-.168-.054-.168-.163-.503-2.318-2.152-3.517-4.473-3.517-2.88 0-4.976 2.29-4.976 6.188 0 3.843 2.124 6.188 5.032 6.188 3.187 0 4.808-2.154 4.78-5.37H18.9c-.084 0-.168-.082-.168-.164v-.518c0-.082.084-.163.168-.163h5.591c.084 0 .168.081.168.163.084 4.361-1.957 6.924-5.815 6.924zM26.391 55.635c-.083 0-.167-.082-.167-.164l.056-6.814-.056-6.542c0-.082.084-.164.167-.164h.7c.083 0 .167.082.167.163l-.028 6.488.028 6.842c0 .082-.084.163-.168.163h-.699v.028zM33.409 55.853c-2.964 0-4.613-2.1-4.613-5.234 0-3.135 1.65-5.233 4.613-5.233 2.991 0 4.613 2.098 4.613 5.233-.028 3.108-1.65 5.234-4.613 5.234zm0-.763c2.404 0 3.578-1.745 3.578-4.47 0-2.7-1.202-4.498-3.578-4.498-2.377.027-3.579 1.744-3.579 4.497s1.202 4.47 3.579 4.47zM43.864 55.826c-1.621 0-2.795-.764-3.466-2.181l.028 1.826c0 .082-.084.164-.168.164h-.67c-.085 0-.169-.082-.169-.164l.056-7.85-.056-5.452c0-.082.084-.163.168-.163h.699c.084 0 .168.081.168.163l-.028 5.37c.67-1.336 1.845-2.126 3.438-2.126 2.684 0 4.11 2.262 4.11 5.179.028 2.862-1.454 5.234-4.11 5.234zm-.195-.764c2.292 0 3.327-1.935 3.327-4.388 0-2.508-1.007-4.525-3.3-4.525-1.956 0-3.298 1.444-3.326 4.334-.028 2.89 1.202 4.58 3.299 4.58zM56.725 55.635c-.084 0-.168-.082-.168-.164l.028-1.88c-.643 1.39-1.817 2.235-3.467 2.235-2.712 0-4.11-2.263-4.11-5.18 0-2.889 1.454-5.233 4.11-5.233 1.622 0 2.796.763 3.467 2.153l-.028-1.826c0-.082.084-.164.168-.164h.67c.085 0 .168.082.168.164l-.056 4.688.056 5.043c0 .082-.083.164-.167.164h-.671zm-3.411-.6c2.013 0 3.299-1.472 3.327-4.334.028-2.862-1.202-4.552-3.271-4.552-2.32 0-3.355 1.935-3.355 4.361 0 2.535 1.007 4.525 3.299 4.525zM59.66 55.635c-.084 0-.167-.082-.167-.164l.055-6.814-.056-6.542c0-.082.084-.164.168-.164h.7c.083 0 .167.082.167.163l-.028 6.488.028 6.842c0 .082-.084.163-.168.163h-.699v.028zM70.507 50.02h-3.27l.028 5.451c0 .082-.084.164-.168.164h-.755c-.084 0-.168-.082-.168-.164l.056-6.978-.056-6.351c0-.082.084-.164.168-.164h4.11c2.851 0 4.752 1.336 4.752 3.98 0 2.808-1.957 4.061-4.697 4.061zm-3.298-1.5v.682h3.326c2.237 0 3.607-.873 3.607-3.244 0-2.154-1.342-3.135-3.69-3.135h-3.188l-.055 5.697zM83.368 55.635c-.084 0-.168-.082-.168-.164l.028-1.88c-.643 1.39-1.817 2.235-3.467 2.235-2.712 0-4.11-2.263-4.11-5.18 0-2.889 1.454-5.233 4.11-5.233 1.622 0 2.796.763 3.467 2.153L83.2 45.74c0-.082.084-.164.168-.164h.67c.085 0 .169.082.169.164l-.056 4.688.056 5.043c0 .082-.084.164-.168.164h-.671zm-3.411-.6c2.013 0 3.299-1.472 3.327-4.334.028-2.862-1.202-4.552-3.271-4.552-2.32 0-3.355 1.935-3.355 4.361-.028 2.535 1.007 4.525 3.299 4.525zM89.015 58.797c-.028.109-.112.163-.224.163h-.615c-.084 0-.14-.081-.112-.163l1.147-3.19-3.998-9.867c-.028-.055.028-.136.112-.136h.81c.112 0 .168.054.224.136l3.383 8.532 2.907-8.532c.028-.11.112-.164.224-.164h.727c.084 0 .14.082.112.164l-4.697 13.057zM95.753 51.437l.028 4.034c0 .082-.084.164-.168.164h-.727c-.084 0-.168-.082-.168-.164l.056-4.034-.028-5.697c0-.082.084-.164.168-.164h.67c.085 0 .169.082.169.164l-.028 1.908c.587-1.145 1.65-2.29 3.327-2.29 1.509 0 2.572.709 2.991 2.29.615-1.227 1.705-2.29 3.327-2.29 1.985 0 3.187 1.254 3.187 4.062v2.017l.028 4.034c0 .082-.084.164-.168.164h-.699c-.084 0-.167-.082-.167-.164l.027-4.034v-1.935c0-2.426-.95-3.326-2.432-3.326-1.342 0-2.264.981-2.907 2.562.028.218.028.437.028.654v2.018l.028 4.034c0 .082-.084.163-.168.163h-.699c-.084 0-.168-.081-.168-.163l.028-4.034v-1.936c0-2.426-.95-3.325-2.432-3.325-1.454 0-2.404 1.145-3.075 2.971v2.317h-.028zM118.649 52.091c.084 0 .14.082.14.164-.391 2.208-1.789 3.598-4.249 3.598-3.048 0-4.641-2.126-4.641-5.207 0-3.08 1.733-5.26 4.529-5.26 2.712 0 4.361 1.853 4.417 5.042 0 .082-.084.164-.168.164l-7.772.027c0 2.835 1.23 4.498 3.663 4.498 1.873 0 2.907-1.063 3.271-2.835 0-.11.112-.164.167-.164h.643v-.027zm-4.221-5.97c-2.041 0-3.243 1.418-3.467 3.653h6.85c-.056-1.99-1.202-3.653-3.383-3.653zM120.69 55.635c-.084 0-.167-.082-.167-.164l.028-4.252-.028-5.48c0-.08.083-.163.167-.163h.671c.084 0 .168.082.168.164l-.028 1.908c.587-1.118 1.733-2.29 3.495-2.29 2.069 0 3.355 1.309 3.355 4.062v1.908l.027 4.143c0 .082-.083.164-.167.164h-.699c-.084 0-.168-.082-.168-.164l.028-4.143v-1.826c0-2.426-1.034-3.326-2.6-3.326-1.538 0-2.572 1.118-3.271 2.971v2.18l.028 4.144c0 .082-.084.164-.168.164h-.671zM134.529 55.444c0 .109-.056.163-.168.19a4.552 4.552 0 01-1.09.164c-1.342 0-2.348-.654-2.348-2.78l.028-6.597h-1.175c-.084 0-.167-.081-.167-.163v-.49c0-.083.083-.165.167-.165h1.175l-.028-2.371c0-.082.083-.163.167-.163h.699c.084 0 .168.081.168.163l-.028 2.371h2.432c.084 0 .168.082.168.164v.49c0 .083-.084.164-.168.164h-2.432v6.597c0 1.5.419 1.962 1.426 1.962.363 0 .727-.027 1.006-.109.084-.027.168.028.168.11v.463zM139.449 55.826c-2.572 0-4.221-1.145-4.277-3.599 0-.081.084-.163.168-.163h.643c.084 0 .168.082.168.163.055 1.963 1.23 2.89 3.326 2.89 1.762 0 3.02-.79 3.02-2.153 0-3.244-7.101-.9-7.101-4.798 0-1.826 1.593-2.753 3.774-2.753 2.153 0 3.886.927 3.97 2.998 0 .082-.084.164-.168.164h-.587c-.084 0-.168-.082-.168-.164-.112-1.608-1.426-2.29-3.075-2.29-1.705 0-2.796.655-2.796 1.99 0 2.972 7.101.6 7.101 4.77 0 1.854-1.761 2.945-3.998 2.945z" fill="#fff"/></svg>