<svg width="160" height="600" viewBox="0 0 160 600" fill="none" xmlns="http://www.w3.org/2000/svg"><path d="M41.123 132a.423.423 0 00.393-.393l-.157-12.773.157-13.953a.423.423 0 00-.393-.393H37.27a.648.648 0 00-.59.354c-1.218 1.926-3.183 3.458-5.62 4.402a.559.559 0 00-.354.511v3.105c0 .196.197.353.393.275 2.123-.668 4.01-1.651 5.503-3.066l.078 9.511-.117 12.027c0 .196.196.393.393.393h4.166zm25.373-7.743c0-3.222-1.887-5.738-5.385-6.838 2.948-1.219 4.56-3.42 4.52-6.053-.078-4.716-3.458-7.389-9.236-7.389-5.738 0-9.157 2.673-9.197 7.389-.039 2.712 1.533 4.913 4.441 6.053-3.458 1.1-5.305 3.616-5.305 6.838 0 5.188 4.362 8.215 10.061 8.215 5.738 0 10.1-3.027 10.1-8.215zm-14.66-12.459c.04-2.751 1.808-4.441 4.56-4.441 2.75 0 4.558 1.69 4.558 4.441 0 2.398-1.73 4.245-4.559 4.245-2.79 0-4.559-1.768-4.559-4.245zM51.05 124.1c0-2.987 2.044-4.873 5.345-4.913 3.301.04 5.345 1.926 5.345 4.913.04 2.869-2.122 4.992-5.345 4.992-3.183 0-5.384-2.123-5.345-4.992zm39.716-5.777c0-9.512-4.127-14.385-10.415-14.385-6.328 0-10.415 4.952-10.415 14.345 0 9.119 4.127 14.267 10.415 14.267 6.288 0 10.415-5.109 10.415-14.227zm-15.878 0c0-7.193 1.926-10.455 5.463-10.455 3.459 0 5.463 3.341 5.463 10.455 0 7.074-2.004 10.297-5.463 10.297-3.42 0-5.463-3.262-5.463-10.297zm37.814-1.337a.423.423 0 00-.393-.393h-6.799v-7.624a.423.423 0 00-.393-.393h-2.909a.423.423 0 00-.393.393v7.624h-6.8a.423.423 0 00-.392.393v2.948c0 .197.196.393.393.393h6.799v7.586c0 .196.197.393.393.393h2.909a.423.423 0 00.393-.393v-7.586h6.799a.423.423 0 00.393-.393v-2.948zm-72.45 33.01c.022-.088-.066-.176-.154-.176h-.682c-.088 0-.176.088-.198.176-.176 2.134-1.562 3.388-3.674 3.388-2.64-.022-3.85-1.936-3.85-5.016s1.232-5.06 3.85-5.06c1.936 0 3.256 1.034 3.564 3.036.022.11.11.176.198.176h.66c.088 0 .176-.088.154-.176-.242-2.354-1.848-3.916-4.576-3.916-3.256 0-4.972 2.398-4.972 5.94 0 3.542 1.716 5.874 4.95 5.874 2.904 0 4.532-1.782 4.73-4.246zm11.998-1.65c0-3.542-1.782-5.918-5.06-5.918-3.256 0-5.06 2.376-5.06 5.918 0 3.542 1.804 5.896 5.06 5.896 3.278 0 5.06-2.376 5.06-5.896zm-8.998 0c0-3.08 1.32-5.038 3.938-5.06 2.618 0 3.938 2.002 3.938 5.06 0 3.08-1.298 5.038-3.938 5.038-2.618 0-3.938-1.958-3.938-5.038zm18.935 3.322l-.043 2.156a.19.19 0 00.175.176h.748a.19.19 0 00.176-.176l-.044-6.182.044-4.796a.19.19 0 00-.175-.176h-.77a.19.19 0 00-.177.176l.023 4.686v2.464c-.748 2.068-1.892 3.344-3.587 3.344-1.715 0-2.86-1.034-2.86-3.762v-2.046l.044-4.686a.19.19 0 00-.175-.176h-.77a.19.19 0 00-.176.176l.022 4.686v2.156c0 3.102 1.407 4.576 3.695 4.576 1.958 0 3.212-1.32 3.85-2.596zm4.96 2.332a.19.19 0 00.176-.176l-.022-4.686v-2.464c.748-2.068 1.892-3.344 3.586-3.344 1.716 0 2.86 1.034 2.86 3.762v2.046l-.044 4.686a.19.19 0 00.176.176h.77a.19.19 0 00.176-.176l-.022-4.686v-2.156c0-3.102-1.408-4.576-3.696-4.576-1.958 0-3.212 1.32-3.85 2.596l.044-2.156a.19.19 0 00-.176-.176h-.748a.19.19 0 00-.176.176l.044 6.182-.044 4.796a.19.19 0 00.176.176h.77zm15.257-.748c0-.088-.088-.154-.176-.132-.308.066-.726.11-1.122.11-1.1 0-1.562-.506-1.562-2.2v-7.458h2.684a.19.19 0 00.176-.176v-.55a.19.19 0 00-.176-.176h-2.684l.022-2.662a.19.19 0 00-.176-.176h-.77a.19.19 0 00-.176.176l.044 2.662H77.19a.19.19 0 00-.176.176v.55a.19.19 0 00.176.176h1.298l-.022 7.458c0 2.398 1.1 3.146 2.574 3.146.396 0 .858-.088 1.188-.176a.214.214 0 00.176-.22v-.528zm3.175.748a.19.19 0 00.176-.176l-.044-6.864c.418-2.42 2.024-3.476 3.652-3.476.33 0 .594.022.814.088.088.022.176-.044.176-.132v-.594a.237.237 0 00-.176-.22 2.745 2.745 0 00-.77-.088c-1.54 0-2.97.858-3.718 2.398l.066-2.09a.19.19 0 00-.176-.176h-.77a.19.19 0 00-.176.176l.066 5.302-.066 5.676a.19.19 0 00.176.176h.77zm7.93-12.804a.19.19 0 00.175-.176v-1.188a.19.19 0 00-.176-.176h-.77a.19.19 0 00-.176.176v1.188a.19.19 0 00.176.176h.77zm0 12.804a.19.19 0 00.175-.176l-.022-5.83.022-5.148a.19.19 0 00-.176-.176h-.77a.19.19 0 00-.176.176l.044 5.17-.044 5.808a.19.19 0 00.176.176h.77zm11.688-4.004c-.088 0-.198.066-.198.176-.374 2.002-1.54 3.212-3.586 3.212-2.684 0-4.026-1.87-4.026-5.06l8.558-.022a.19.19 0 00.176-.176c-.066-3.608-1.87-5.698-4.862-5.698-3.058 0-4.972 2.464-4.972 5.94 0 3.476 1.76 5.874 5.104 5.874 2.706 0 4.246-1.584 4.664-4.07 0-.088-.066-.176-.154-.176h-.704zm-.242-2.574h-7.524c.264-2.53 1.584-4.136 3.828-4.136 2.398 0 3.674 1.848 3.696 4.136zm12.211 3.476c0-4.708-7.81-2.046-7.81-5.39 0-1.496 1.21-2.244 3.08-2.244 1.826 0 3.278.748 3.388 2.574a.19.19 0 00.176.176h.66a.19.19 0 00.176-.176c-.11-2.354-2.002-3.388-4.378-3.388-2.42 0-4.158 1.056-4.158 3.102 0 4.4 7.81 1.738 7.81 5.412 0 1.562-1.386 2.442-3.322 2.442-2.332 0-3.608-1.034-3.674-3.256a.19.19 0 00-.176-.176h-.704a.19.19 0 00-.176.176c.066 2.772 1.87 4.07 4.708 4.07 2.464 0 4.4-1.232 4.4-3.322zM41.123 222a.423.423 0 00.393-.393l-.157-12.773.157-13.953a.423.423 0 00-.393-.393H37.27a.648.648 0 00-.59.354c-1.218 1.926-3.183 3.458-5.62 4.402a.559.559 0 00-.354.511v3.105c0 .196.197.353.393.275 2.123-.668 4.01-1.651 5.503-3.066l.078 9.511-.117 12.027c0 .196.196.393.393.393h4.166zm25.294-10.14a.422.422 0 00-.393-.393H63.43v-16.586a.423.423 0 00-.393-.393h-5.699a.82.82 0 00-.629.315l-10.415 15.878a1.175 1.175 0 00-.235.707v3.459c0 .196.196.393.393.393h12.144v6.367c0 .196.197.393.393.393h4.048a.423.423 0 00.393-.393v-6.367h2.594a.423.423 0 00.393-.393v-2.987zm-7.82-.393h-8.49l8.646-13.402-.157 5.266v8.136zm31.747-3.144c0-9.512-4.127-14.385-10.415-14.385-6.328 0-10.415 4.952-10.415 14.345 0 9.119 4.126 14.267 10.415 14.267 6.288 0 10.415-5.109 10.415-14.227zm-15.878 0c0-7.193 1.926-10.455 5.463-10.455 3.458 0 5.463 3.341 5.463 10.455 0 7.074-2.005 10.297-5.463 10.297-3.42 0-5.463-3.262-5.463-10.297zm37.814-1.337a.423.423 0 00-.393-.393h-6.8v-7.624a.422.422 0 00-.393-.393h-2.908a.422.422 0 00-.393.393v7.624h-6.8a.423.423 0 00-.392.393v2.948c0 .197.196.393.393.393h6.799v7.586c0 .196.196.393.393.393h2.908a.423.423 0 00.393-.393v-7.586h6.8a.423.423 0 00.393-.393v-2.948zm-72.028 33.01c.022-.088-.066-.176-.154-.176h-.682c-.088 0-.176.088-.198.176-.176 2.134-1.562 3.388-3.674 3.388-2.64-.022-3.85-1.936-3.85-5.016s1.232-5.06 3.85-5.06c1.936 0 3.256 1.034 3.564 3.036.022.11.11.176.198.176h.66c.088 0 .176-.088.154-.176-.242-2.354-1.848-3.916-4.576-3.916-3.256 0-4.972 2.398-4.972 5.94 0 3.542 1.716 5.874 4.95 5.874 2.904 0 4.532-1.782 4.73-4.246zm9.798 1.672l-.044 2.156a.19.19 0 00.176.176h.748a.19.19 0 00.176-.176l-.044-6.182.044-4.796a.19.19 0 00-.176-.176h-.77a.19.19 0 00-.176.176l.022 4.686v2.464c-.748 2.068-1.892 3.344-3.586 3.344-1.716 0-2.86-1.034-2.86-3.762v-2.046l.044-4.686a.19.19 0 00-.176-.176h-.77a.19.19 0 00-.176.176l.022 4.686v2.156c0 3.102 1.408 4.576 3.696 4.576 1.958 0 3.212-1.32 3.85-2.596zM54.988 244a.19.19 0 00.175-.176l-.043-6.864c.418-2.42 2.024-3.476 3.652-3.476.33 0 .593.022.814.088.087.022.175-.044.175-.132v-.594a.237.237 0 00-.175-.22 2.745 2.745 0 00-.77-.088c-1.54 0-2.97.858-3.719 2.398l.066-2.09a.19.19 0 00-.175-.176h-.77a.19.19 0 00-.177.176l.067 5.302-.066 5.676a.19.19 0 00.175.176h.77zm7.819 0a.19.19 0 00.176-.176l-.044-6.864c.418-2.42 2.024-3.476 3.652-3.476.33 0 .594.022.814.088.088.022.176-.044.176-.132v-.594a.237.237 0 00-.176-.22 2.745 2.745 0 00-.77-.088c-1.54 0-2.97.858-3.718 2.398l.066-2.09a.19.19 0 00-.176-.176h-.77a.19.19 0 00-.176.176l.066 5.302-.066 5.676a.19.19 0 00.176.176h.77zm14.226-4.004c-.088 0-.198.066-.198.176-.374 2.002-1.54 3.212-3.586 3.212-2.684 0-4.026-1.87-4.026-5.06l8.558-.022a.19.19 0 00.176-.176c-.066-3.608-1.87-5.698-4.862-5.698-3.058 0-4.972 2.464-4.972 5.94 0 3.476 1.76 5.874 5.104 5.874 2.706 0 4.246-1.584 4.664-4.07 0-.088-.066-.176-.154-.176h-.704zm-.242-2.574h-7.524c.264-2.53 1.584-4.136 3.828-4.136 2.398 0 3.674 1.848 3.696 4.136zM81.39 244a.19.19 0 00.176-.176l-.022-4.686v-2.464c.748-2.068 1.892-3.344 3.586-3.344 1.716 0 2.86 1.034 2.86 3.762v2.046l-.044 4.686a.19.19 0 00.176.176h.77a.19.19 0 00.176-.176l-.022-4.686v-2.156c0-3.102-1.408-4.576-3.696-4.576-1.958 0-3.212 1.32-3.85 2.596l.044-2.156a.19.19 0 00-.176-.176h-.748a.19.19 0 00-.176.176l.044 6.182-.044 4.796a.19.19 0 00.176.176h.77zm19.744-4.004c.022-.088-.066-.176-.154-.176h-.682c-.088 0-.176.088-.198.176-.176 2.134-1.562 3.388-3.674 3.388-2.64-.022-3.85-1.936-3.85-5.016s1.232-5.06 3.85-5.06c1.936 0 3.256 1.034 3.564 3.036.022.11.11.176.198.176h.66c.088 0 .176-.088.154-.176-.242-2.354-1.848-3.916-4.576-3.916-3.256 0-4.972 2.398-4.972 5.94 0 3.542 1.716 5.874 4.95 5.874 2.904 0 4.532-1.782 4.73-4.246zm3.373-8.8a.19.19 0 00.176-.176v-1.188a.19.19 0 00-.176-.176h-.77a.19.19 0 00-.176.176v1.188a.19.19 0 00.176.176h.77zm0 12.804a.19.19 0 00.176-.176l-.022-5.83.022-5.148a.19.19 0 00-.176-.176h-.77a.19.19 0 00-.176.176l.044 5.17-.044 5.808a.19.19 0 00.176.176h.77zm11.689-4.004c-.088 0-.198.066-.198.176-.374 2.002-1.54 3.212-3.586 3.212-2.684 0-4.026-1.87-4.026-5.06l8.558-.022a.19.19 0 00.176-.176c-.066-3.608-1.87-5.698-4.862-5.698-3.058 0-4.972 2.464-4.972 5.94 0 3.476 1.76 5.874 5.104 5.874 2.706 0 4.246-1.584 4.664-4.07 0-.088-.066-.176-.154-.176h-.704zm-.242-2.574h-7.524c.264-2.53 1.584-4.136 3.828-4.136 2.398 0 3.674 1.848 3.696 4.136zm12.211 3.476c0-4.708-7.81-2.046-7.81-5.39 0-1.496 1.21-2.244 3.08-2.244 1.826 0 3.278.748 3.388 2.574a.19.19 0 00.176.176h.66a.19.19 0 00.176-.176c-.11-2.354-2.002-3.388-4.378-3.388-2.42 0-4.158 1.056-4.158 3.102 0 4.4 7.81 1.738 7.81 5.412 0 1.562-1.386 2.442-3.322 2.442-2.332 0-3.608-1.034-3.674-3.256a.19.19 0 00-.176-.176h-.704a.19.19 0 00-.176.176c.066 2.772 1.87 4.07 4.708 4.07 2.464 0 4.4-1.232 4.4-3.322z" fill="#fff"/></svg>