<svg width="267" height="25" viewBox="0 0 267 25" fill="none" xmlns="http://www.w3.org/2000/svg"><path d="M6.345 19h1.728L12.96 2.503 17.847 19h1.728L25.353.1h-1.512l-5.103 16.983L13.77.1h-1.485L7.182 17.083 2.133.1H.594L6.345 19zM28.267 2.422c.54 0 .972-.405.972-.972a.951.951 0 00-.972-.972.951.951 0 00-.972.972c0 .567.432.972.972.972zM27.565 19h1.377V5.311h-1.377V19zm5.64-3.186c0 2.187.892 3.186 3.214 3.186h1.998v-1.269h-1.89c-1.431 0-1.944-.54-1.944-1.944V6.58h3.699V5.311h-3.7V1.477h-1.376v3.834h-2.592V6.58h2.592v9.234zM46.83 5.149c-2.565 0-4.158 1.431-4.941 3.402V.1h-1.377V19h1.377v-6.75c0-3.564 1.809-5.832 4.725-5.832 2.619 0 4.239 1.728 4.239 4.968V19h1.377v-7.668c0-4.32-2.295-6.183-5.4-6.183zm27.793 12.582c-.81 0-1.215-.27-1.215-1.323v-6.372c0-3.132-1.917-4.887-5.346-4.887-3.132 0-5.211 1.512-5.562 3.996h1.377c.35-1.674 1.809-2.781 4.13-2.781 2.566 0 4.024 1.35 4.024 3.618v1.188h-4.644c-3.51 0-5.4 1.512-5.4 4.077 0 2.43 1.917 3.915 4.833 3.915 2.78 0 4.428-1.269 5.265-2.97v.486c-.054 1.62.62 2.322 2.24 2.322h.81v-1.269h-.512zm-2.592-4.266c0 2.619-1.863 4.509-5.103 4.509-2.187 0-3.537-1.107-3.537-2.808 0-1.809 1.35-2.808 3.888-2.808h4.752v1.107zm13.25 2.349c0 2.187.89 3.186 3.213 3.186h1.998v-1.269h-1.89c-1.431 0-1.944-.54-1.944-1.944V6.58h3.699V5.311h-3.7V1.477h-1.376v3.834h-2.592V6.58h2.592v9.234zM98.176 5.311c-2.538 0-3.618 1.215-4.185 2.727l-.216-2.727h-1.188V19h1.377v-6.939c0-2.781.729-5.427 3.942-5.427h.999V5.311h-.73zm12.705 6.723c0 3.591-1.782 5.859-4.617 5.859-2.538 0-4.104-1.728-4.104-4.995V5.311h-1.377v7.668c0 4.293 2.241 6.183 5.265 6.183 2.43 0 4.023-1.296 4.806-3.051l.189 2.889h1.215V5.311h-1.377v6.723zm3.998 2.754c.108 2.835 2.403 4.374 5.832 4.374 2.943 0 5.319-1.485 5.319-3.915 0-2.889-2.538-3.456-5.481-3.861-2.133-.297-4.023-.54-4.023-2.457 0-1.566 1.539-2.592 3.861-2.592 2.187 0 3.753 1.053 3.996 2.835h1.404c-.243-2.673-2.43-4.023-5.4-4.023-3.051-.027-5.238 1.539-5.238 3.888 0 2.754 2.538 3.267 5.346 3.645 2.295.324 4.158.621 4.158 2.646 0 1.62-1.701 2.646-3.942 2.646-2.619 0-4.32-1.215-4.428-3.186h-1.404zm14.804 1.026c0 2.187.891 3.186 3.213 3.186h1.998v-1.269h-1.89c-1.431 0-1.944-.54-1.944-1.944V6.58h3.699V5.311h-3.699V1.477h-1.377v3.834h-2.592V6.58h2.592v9.234zm12.932 3.348c2.997 0 5.292-1.944 5.886-4.698h-1.404c-.54 2.133-2.349 3.456-4.59 3.456-3.051 0-4.968-2.322-5.022-5.508v-.243h11.178c0-.189.027-.405.027-.567-.135-4.077-2.646-6.453-6.318-6.453-3.753 0-6.318 2.862-6.318 6.912 0 4.293 2.673 7.101 6.561 7.101zm-5.022-8.154c.216-2.781 2.295-4.644 4.806-4.644 2.673 0 4.59 1.647 4.806 4.644h-9.612zm24.997-2.619c-.837-1.944-2.673-3.24-5.238-3.24-3.753 0-6.453 2.862-6.453 6.993 0 4.32 2.7 7.02 6.453 7.02 2.565 0 4.347-1.377 5.211-3.294l.216 3.132h1.188V.1h-1.377v8.289zm-5.13 9.531c-3.051 0-5.157-2.376-5.157-5.778 0-3.375 2.106-5.778 5.157-5.778s5.157 2.403 5.157 5.805c0 3.375-2.106 5.751-5.157 5.751zm23.638-12.771c-2.565 0-4.347 1.377-5.211 3.294l-.216-3.132h-1.188V24.4h1.377v-8.559c.783 1.998 2.646 3.321 5.238 3.321 3.753 0 6.453-2.862 6.453-7.02 0-4.293-2.7-6.993-6.453-6.993zm-.108 12.771c-3.051 0-5.157-2.376-5.157-5.805 0-3.348 2.106-5.751 5.157-5.751s5.157 2.403 5.157 5.778c0 3.402-2.106 5.778-5.157 5.778zm14.876-12.609c-2.538 0-3.618 1.215-4.185 2.727l-.216-2.727h-1.188V19h1.377v-6.939c0-2.781.729-5.427 3.942-5.427h.999V5.311h-.729zm7.842 13.851c3.861 0 6.588-2.862 6.588-7.02 0-4.131-2.727-6.993-6.588-6.993s-6.561 2.862-6.561 6.993c0 4.158 2.7 7.02 6.561 7.02zm0-1.242c-3.051 0-5.157-2.376-5.157-5.778 0-3.375 2.106-5.778 5.157-5.778s5.157 2.403 5.157 5.778c0 3.402-2.106 5.778-5.157 5.778zM216.421 19h1.647l5.346-13.689h-1.431l-4.698 12.096-4.725-12.096h-1.485L216.421 19zm9.574-16.578c.54 0 .972-.405.972-.972a.951.951 0 00-.972-.972.951.951 0 00-.972.972c0 .567.432.972.972.972zM225.293 19h1.377V5.311h-1.377V19zm15.792-10.611c-.837-1.944-2.673-3.24-5.238-3.24-3.753 0-6.453 2.862-6.453 6.993 0 4.32 2.7 7.02 6.453 7.02 2.565 0 4.347-1.377 5.211-3.294l.216 3.132h1.188V.1h-1.377v8.289zm-5.13 9.531c-3.051 0-5.157-2.376-5.157-5.778 0-3.375 2.106-5.778 5.157-5.778s5.157 2.403 5.157 5.805c0 3.375-2.106 5.751-5.157 5.751zm15.794 1.242c2.997 0 5.292-1.944 5.886-4.698h-1.404c-.54 2.133-2.349 3.456-4.59 3.456-3.051 0-4.968-2.322-5.022-5.508v-.243h11.178c0-.189.027-.405.027-.567-.135-4.077-2.646-6.453-6.318-6.453-3.753 0-6.318 2.862-6.318 6.912 0 4.293 2.673 7.101 6.561 7.101zm-5.022-8.154c.216-2.781 2.295-4.644 4.806-4.644 2.673 0 4.59 1.647 4.806 4.644h-9.612zm19.408-5.697c-2.538 0-3.618 1.215-4.185 2.727l-.216-2.727h-1.188V19h1.377v-6.939c0-2.781.729-5.427 3.942-5.427h.999V5.311h-.729z" fill="#000"/></svg>