<svg width="75" height="11" viewBox="0 0 75 11" fill="none" xmlns="http://www.w3.org/2000/svg"><path d="M.038 1.628h3.024V10h1.61V1.628h3.024V.2H.038v1.428zm11.635 1.204c-1.176 0-1.75.476-2.114 1.078L9.39 2.832H8.047V10h1.512V6.402c0-1.106.434-2.156 1.778-2.156h.672V2.832h-.336zm7.601 5.852c-.308 0-.462-.098-.462-.462v-2.87c0-1.694-1.091-2.604-2.996-2.604-1.806 0-3.01.868-3.164 2.268h1.485c.111-.63.713-1.05 1.61-1.05.994 0 1.567.49 1.567 1.288v.434h-1.806c-2.001 0-3.065.826-3.065 2.296 0 1.33 1.091 2.1 2.66 2.1 1.162 0 1.89-.504 2.365-1.232 0 .714.337 1.148 1.317 1.148h.797V8.684h-.308zm-1.96-1.624c-.014 1.106-.741 1.848-2.002 1.848-.825 0-1.33-.42-1.33-1.022 0-.728.519-1.078 1.457-1.078h1.875v.252zm8.483-3.234c-.462-.63-1.232-1.078-2.324-1.078-1.946 0-3.388 1.456-3.388 3.668 0 2.296 1.442 3.668 3.388 3.668 1.134 0 1.876-.532 2.338-1.162L25.993 10h1.316V.2h-1.512v3.626zM23.725 8.81c-1.26 0-2.086-.98-2.086-2.394 0-1.4.826-2.38 2.086-2.38 1.26 0 2.086.98 2.086 2.408 0 1.386-.826 2.366-2.086 2.366zm8.464 1.274c1.778 0 2.982-1.078 3.234-2.492H33.91c-.21.798-.882 1.26-1.806 1.26-1.19 0-1.96-.798-2.002-2.016v-.098h5.404c.028-.196.042-.392.042-.574-.042-2.1-1.428-3.416-3.5-3.416-2.114 0-3.528 1.47-3.528 3.682 0 2.198 1.414 3.654 3.668 3.654zm-2.03-4.452c.112-1.022.938-1.666 1.904-1.666 1.05 0 1.792.602 1.918 1.666h-3.822zM40.507 10h1.61V5.856h3.836V4.47h-3.836V1.628h4.648V.2h-6.258V10zm10.207.084c2.184 0 3.654-1.47 3.654-3.668 0-2.184-1.47-3.668-3.654-3.668S47.06 4.232 47.06 6.416c0 2.198 1.47 3.668 3.654 3.668zm0-1.288c-1.274 0-2.1-.994-2.1-2.38s.826-2.38 2.1-2.38 2.114.994 2.114 2.38-.84 2.38-2.114 2.38zm8.496-5.964c-1.176 0-1.75.476-2.114 1.078l-.168-1.078h-1.344V10h1.512V6.402c0-1.106.434-2.156 1.778-2.156h.672V2.832h-.336zm4.328 7.252c1.779 0 2.983-1.078 3.234-2.492H65.26c-.21.798-.882 1.26-1.806 1.26-1.19 0-1.96-.798-2.002-2.016v-.098h5.404c.029-.196.043-.392.043-.574-.043-2.1-1.428-3.416-3.5-3.416-2.114 0-3.529 1.47-3.529 3.682 0 2.198 1.415 3.654 3.669 3.654zm-2.03-4.452c.112-1.022.938-1.666 1.904-1.666 1.05 0 1.792.602 1.919 1.666h-3.823zM67.052 10h1.666l1.89-2.604L72.483 10h1.764l-2.702-3.668 2.548-3.5h-1.666l-1.75 2.422-1.708-2.422h-1.764l2.534 3.5L67.05 10z" fill="#000"/></svg>