<svg width="174" height="12" viewBox="0 0 174 12" fill="none" xmlns="http://www.w3.org/2000/svg"><path d="M5.46 5.268A2.05 2.05 0 007.033 3.24c0-1.417-1.222-2.418-3.172-2.418C1.924.822.702 1.823.702 3.24c0 1.105.728 1.833 1.56 2.041-.975.221-1.807.975-1.807 2.236 0 1.508 1.261 2.561 3.406 2.561 2.145 0 3.419-1.053 3.419-2.561 0-1.287-.845-2.041-1.82-2.249zM3.861 1.94c1.04 0 1.716.546 1.716 1.339 0 .806-.676 1.352-1.716 1.352-1.027 0-1.703-.546-1.703-1.352 0-.793.676-1.339 1.703-1.339zm0 7.033c-1.144 0-1.937-.65-1.937-1.534s.793-1.521 1.937-1.521c1.157 0 1.95.637 1.95 1.521 0 .884-.793 1.534-1.95 1.534zm4.377-3.315c0 2.743 1.47 4.42 3.588 4.42 2.12 0 3.588-1.677 3.588-4.42v-.416c0-2.639-1.469-4.42-3.588-4.42-2.119 0-3.588 1.781-3.588 4.42v.416zm5.72-.052c0 2.041-.858 3.211-2.132 3.211s-2.132-1.17-2.132-3.211v-.312c0-2.028.858-3.211 2.132-3.211s2.132 1.183 2.132 3.211v.312zm4.692.091h-2.067V6.88h2.067v2.197h1.287V6.88h2.08V5.697h-2.08V3.5H18.65v2.197zM26.832 10h1.495V6.152h3.562V4.865h-3.562V2.226h4.316V.9h-5.811V10zm6.294 0h1.69l2.236-3.497L39.275 10h1.781l-3.029-4.719L40.874.9h-1.69l-2.08 3.237L35.063.9h-1.768l2.847 4.446L33.126 10zm12.241 0h1.495V6.698h2.093c1.898 0 3.146-1.144 3.146-2.899C52.101 2.031 50.853.9 48.955.9h-3.588V10zm3.471-7.8c1.066 0 1.742.611 1.742 1.599 0 .975-.689 1.599-1.755 1.599h-1.963V2.2h1.976zm9.96 6.578c-.286 0-.429-.091-.429-.429V5.684c0-1.573-1.014-2.418-2.782-2.418-1.677 0-2.795.806-2.938 2.106h1.378c.104-.585.663-.975 1.495-.975.923 0 1.456.455 1.456 1.196v.403h-1.677c-1.859 0-2.847.767-2.847 2.132 0 1.235 1.014 1.95 2.47 1.95 1.08 0 1.755-.468 2.197-1.144 0 .663.312 1.066 1.222 1.066h.741V8.778h-.286zm-1.82-1.508c-.013 1.027-.689 1.716-1.859 1.716-.767 0-1.235-.39-1.235-.949 0-.676.481-1.001 1.352-1.001h1.742v.234zm3.586-4.862c.481 0 .858-.351.858-.845s-.377-.845-.858-.845c-.48 0-.858.351-.858.845s.377.845.858.845zM59.85 10h1.404V3.344H59.85V10zm6.147-6.656c-1.092 0-1.625.442-1.963 1.001l-.156-1.001H62.63V10h1.404V6.659c0-1.027.403-2.002 1.651-2.002h.624V3.344h-.312zm.778 4.459c.04 1.443 1.261 2.275 3.042 2.275 1.612 0 2.821-.806 2.821-2.08 0-1.482-1.235-1.794-2.756-1.976-.962-.104-1.599-.182-1.599-.806 0-.533.546-.871 1.378-.871.832 0 1.404.429 1.482 1.04h1.378c-.09-1.365-1.248-2.119-2.886-2.119-1.599-.013-2.73.806-2.73 2.067 0 1.378 1.196 1.703 2.717 1.885 1.027.13 1.638.182 1.638.897 0 .533-.572.871-1.443.871-1.014 0-1.612-.494-1.664-1.183h-1.378zm7.512.52c-.598 0-.988.39-.988.884 0 .559.338.832.767.832a.699.699 0 00.43-.13c.012.052.012.117.012.169 0 .455-.325.962-1.144.975v.754c1.287-.013 2.093-.728 2.093-1.989 0-.832-.455-1.495-1.17-1.495zm5.402-2.665c0 2.743 1.469 4.42 3.588 4.42 2.119 0 3.588-1.677 3.588-4.42v-.416c0-2.639-1.47-4.42-3.588-4.42-2.12 0-3.588 1.781-3.588 4.42v.416zm5.72-.052c0 2.041-.858 3.211-2.132 3.211s-2.132-1.17-2.132-3.211v-.312c0-2.028.858-3.211 2.132-3.211s2.132 1.183 2.132 3.211v.312zm2.572-2.561c0 1.287.988 2.21 2.327 2.21 1.34 0 2.327-.923 2.327-2.21S91.646.822 90.307.822s-2.327.936-2.327 2.223zM90.866 10L97.093.9h-1.39L89.487 10h1.378zm.585-6.955c0 .663-.48 1.157-1.144 1.157-.65 0-1.13-.494-1.13-1.157s.48-1.157 1.13-1.157c.663 0 1.144.494 1.144 1.157zm2.47 4.823c0 1.274.988 2.21 2.327 2.21 1.34 0 2.327-.936 2.327-2.21 0-1.3-.988-2.223-2.327-2.223s-2.327.923-2.327 2.223zm3.471 0c0 .663-.494 1.144-1.144 1.144-.65 0-1.144-.481-1.144-1.144 0-.663.494-1.17 1.144-1.17.65 0 1.144.507 1.144 1.17zm8.867 2.21c1.703 0 2.834-.949 3.094-2.457h-1.482c-.169.767-.741 1.261-1.599 1.261-1.131 0-1.872-.897-1.872-2.197 0-1.313.741-2.223 1.872-2.223.871 0 1.43.481 1.612 1.261h1.469c-.273-1.508-1.339-2.457-3.055-2.457-2.015 0-3.341 1.365-3.341 3.419 0 2.08 1.287 3.393 3.302 3.393zm7.314 0c2.028 0 3.393-1.365 3.393-3.406 0-2.028-1.365-3.406-3.393-3.406-2.028 0-3.393 1.378-3.393 3.406 0 2.041 1.365 3.406 3.393 3.406zm0-1.196c-1.183 0-1.95-.923-1.95-2.21s.767-2.21 1.95-2.21c1.183 0 1.963.923 1.963 2.21s-.78 2.21-1.963 2.21zm12.179-5.616c-1.092 0-1.846.481-2.275 1.209-.403-.858-1.183-1.209-2.054-1.209-1.001.013-1.573.455-1.95.949l-.156-.871h-1.222V10h1.404V6.438c0-1.183.598-1.963 1.56-1.963.923 0 1.404.611 1.404 1.781V10h1.417V6.399c0-1.196.611-1.924 1.573-1.924.91 0 1.391.611 1.391 1.781V10h1.404V6.165c0-2.106-1.118-2.899-2.496-2.899zm11.426 0c-1.092 0-1.846.481-2.275 1.209-.403-.858-1.183-1.209-2.054-1.209-1.001.013-1.573.455-1.95.949l-.156-.871h-1.222V10h1.404V6.438c0-1.183.598-1.963 1.56-1.963.923 0 1.404.611 1.404 1.781V10h1.417V6.399c0-1.196.611-1.924 1.573-1.924.91 0 1.391.611 1.391 1.781V10h1.404V6.165c0-2.106-1.118-2.899-2.496-2.899zm4.484-.858c.481 0 .858-.351.858-.845s-.377-.845-.858-.845-.858.351-.858.845.377.845.858.845zM140.947 10h1.404V3.344h-1.404V10zm2.494-2.197c.039 1.443 1.261 2.275 3.042 2.275 1.612 0 2.821-.806 2.821-2.08 0-1.482-1.235-1.794-2.756-1.976-.962-.104-1.599-.182-1.599-.806 0-.533.546-.871 1.378-.871.832 0 1.404.429 1.482 1.04h1.378c-.091-1.365-1.248-2.119-2.886-2.119-1.599-.013-2.73.806-2.73 2.067 0 1.378 1.196 1.703 2.717 1.885 1.027.13 1.638.182 1.638.897 0 .533-.572.871-1.443.871-1.014 0-1.612-.494-1.664-1.183h-1.378zm6.538 0c.039 1.443 1.261 2.275 3.042 2.275 1.612 0 2.821-.806 2.821-2.08 0-1.482-1.235-1.794-2.756-1.976-.962-.104-1.599-.182-1.599-.806 0-.533.546-.871 1.378-.871.832 0 1.404.429 1.482 1.04h1.378c-.091-1.365-1.248-2.119-2.886-2.119-1.599-.013-2.73.806-2.73 2.067 0 1.378 1.196 1.703 2.717 1.885 1.027.13 1.638.182 1.638.897 0 .533-.572.871-1.443.871-1.014 0-1.612-.494-1.664-1.183h-1.378zm7.666-5.395c.481 0 .858-.351.858-.845s-.377-.845-.858-.845-.858.351-.858.845.377.845.858.845zM156.93 10h1.404V3.344h-1.404V10zm5.926.078c2.028 0 3.393-1.365 3.393-3.406 0-2.028-1.365-3.406-3.393-3.406-2.028 0-3.393 1.378-3.393 3.406 0 2.041 1.365 3.406 3.393 3.406zm0-1.196c-1.183 0-1.95-.923-1.95-2.21s.767-2.21 1.95-2.21c1.183 0 1.963.923 1.963 2.21s-.78 2.21-1.963 2.21zm8.032-5.616c-1.079 0-1.716.429-2.132.949l-.156-.871h-1.222V10h1.404V6.646c0-1.352.663-2.171 1.781-2.171 1.053 0 1.586.676 1.586 1.937V10h1.417V6.295c0-2.223-1.209-3.029-2.678-3.029z" fill="#000"/></svg>