<svg width="147" height="58" viewBox="0 0 147 58" fill="none" xmlns="http://www.w3.org/2000/svg"><path d="M.24 1.2h2.88V9h.648V1.2h2.88V.6H.24v.6zm9.198 1.716c-1.128 0-1.608.54-1.86 1.212l-.096-1.212h-.528V9h.612V5.916c0-1.236.324-2.412 1.752-2.412h.444v-.588h-.324zm6.325 5.52c-.36 0-.54-.12-.54-.588V5.016c0-1.392-.852-2.172-2.376-2.172-1.392 0-2.316.672-2.472 1.776h.612c.156-.744.804-1.236 1.836-1.236 1.14 0 1.788.6 1.788 1.608v.528h-2.064c-1.56 0-2.4.672-2.4 1.812 0 1.08.852 1.74 2.148 1.74 1.236 0 1.968-.564 2.34-1.32v.216c-.024.72.276 1.032.996 1.032h.36v-.564h-.228zM14.611 6.54c0 1.164-.828 2.004-2.268 2.004-.972 0-1.572-.492-1.572-1.248 0-.804.6-1.248 1.728-1.248h2.112v.492zm7.073-2.256c-.372-.864-1.188-1.44-2.328-1.44-1.668 0-2.868 1.272-2.868 3.108 0 1.92 1.2 3.12 2.868 3.12 1.14 0 1.932-.612 2.316-1.464L21.768 9h.528V.6h-.612v3.684zm-2.28 4.236c-1.356 0-2.292-1.056-2.292-2.568 0-1.5.936-2.568 2.292-2.568 1.356 0 2.292 1.068 2.292 2.58 0 1.5-.936 2.556-2.292 2.556zm7.02.552c1.332 0 2.352-.864 2.616-2.088h-.624c-.24.948-1.044 1.536-2.04 1.536-1.356 0-2.208-1.032-2.232-2.448v-.108h4.968c0-.084.012-.18.012-.252-.06-1.812-1.176-2.868-2.808-2.868-1.668 0-2.808 1.272-2.808 3.072 0 1.908 1.188 3.156 2.916 3.156zm-2.232-3.624c.096-1.236 1.02-2.064 2.136-2.064 1.188 0 2.04.732 2.136 2.064h-4.272zm9.832 2.136c0 .972.396 1.416 1.428 1.416h.888v-.564h-.84c-.636 0-.864-.24-.864-.864V3.48h1.644v-.564h-1.644V1.212h-.612v1.704h-1.152v.564h1.152v4.104zm6.055-4.74c-1.14 0-1.848.636-2.196 1.512V.6h-.612V9h.612V6c0-1.584.804-2.592 2.1-2.592 1.164 0 1.884.768 1.884 2.208V9h.612V5.592c0-1.92-1.02-2.748-2.4-2.748zm6.36 6.228c1.332 0 2.352-.864 2.616-2.088h-.624c-.24.948-1.044 1.536-2.04 1.536-1.356 0-2.208-1.032-2.232-2.448v-.108h4.968c0-.084.012-.18.012-.252-.06-1.812-1.176-2.868-2.808-2.868-1.668 0-2.808 1.272-2.808 3.072 0 1.908 1.188 3.156 2.916 3.156zm-2.232-3.624c.096-1.236 1.02-2.064 2.136-2.064 1.188 0 2.04.732 2.136 2.064h-4.272zM53.583 9h.612V.6h-.612V9zm4.74.072c1.331 0 2.351-.864 2.615-2.088h-.624c-.24.948-1.044 1.536-2.04 1.536-1.356 0-2.208-1.032-2.232-2.448v-.108h4.968c0-.084.012-.18.012-.252-.06-1.812-1.176-2.868-2.808-2.868-1.668 0-2.808 1.272-2.808 3.072 0 1.908 1.188 3.156 2.916 3.156zM56.09 5.448c.096-1.236 1.02-2.064 2.136-2.064 1.188 0 2.04.732 2.136 2.064H56.09zm11.494 2.988c-.36 0-.54-.12-.54-.588V5.016c0-1.392-.852-2.172-2.376-2.172-1.392 0-2.316.672-2.472 1.776h.612c.156-.744.804-1.236 1.836-1.236 1.14 0 1.788.6 1.788 1.608v.528h-2.064c-1.56 0-2.4.672-2.4 1.812 0 1.08.852 1.74 2.148 1.74 1.236 0 1.968-.564 2.34-1.32v.216c-.024.72.276 1.032.996 1.032h.36v-.564h-.228zM66.432 6.54c0 1.164-.828 2.004-2.268 2.004-.972 0-1.572-.492-1.572-1.248 0-.804.6-1.248 1.728-1.248h2.112v.492zm7.072-2.256c-.372-.864-1.188-1.44-2.328-1.44-1.668 0-2.868 1.272-2.868 3.108 0 1.92 1.2 3.12 2.868 3.12 1.14 0 1.932-.612 2.316-1.464L73.588 9h.528V.6h-.612v3.684zm-2.28 4.236c-1.356 0-2.292-1.056-2.292-2.568 0-1.5.936-2.568 2.292-2.568 1.356 0 2.292 1.068 2.292 2.58 0 1.5-.936 2.556-2.292 2.556zm7.02.552c1.332 0 2.352-.864 2.616-2.088h-.624c-.24.948-1.044 1.536-2.04 1.536-1.356 0-2.208-1.032-2.232-2.448v-.108h4.968c0-.084.012-.18.012-.252-.06-1.812-1.176-2.868-2.808-2.868-1.668 0-2.808 1.272-2.808 3.072 0 1.908 1.188 3.156 2.916 3.156zm-2.232-3.624c.096-1.236 1.02-2.064 2.136-2.064 1.188 0 2.04.732 2.136 2.064h-4.272zm8.626-2.532c-1.128 0-1.608.54-1.86 1.212l-.096-1.212h-.528V9h.612V5.916c0-1.236.324-2.412 1.752-2.412h.444v-.588h-.324zm.802 4.212c.048 1.26 1.068 1.944 2.592 1.944 1.308 0 2.364-.66 2.364-1.74 0-1.284-1.128-1.536-2.436-1.716-.948-.132-1.788-.24-1.788-1.092 0-.696.684-1.152 1.716-1.152.972 0 1.668.468 1.776 1.26h.624c-.108-1.188-1.08-1.788-2.4-1.788-1.356-.012-2.328.684-2.328 1.728 0 1.224 1.128 1.452 2.376 1.62 1.02.144 1.848.276 1.848 1.176 0 .72-.756 1.176-1.752 1.176-1.164 0-1.92-.54-1.968-1.416h-.624zm8.932-4.284c-1.14 0-1.848.636-2.196 1.512V.6h-.612V9h.612V6c0-1.584.804-2.592 2.1-2.592 1.164 0 1.884.768 1.884 2.208V9h.612V5.592c0-1.92-1.02-2.748-2.4-2.748zm4.078-1.212c.24 0 .432-.18.432-.432a.423.423 0 00-.432-.432c-.24 0-.432.18-.432.432s.192.432.432.432zM98.138 9h.612V2.916h-.612V9zm4.991-6.156c-1.14 0-1.932.612-2.316 1.464l-.096-1.392h-.528V11.4h.612V7.596c.348.888 1.176 1.476 2.328 1.476 1.668 0 2.868-1.272 2.868-3.12 0-1.908-1.2-3.108-2.868-3.108zm-.048 5.676c-1.356 0-2.292-1.056-2.292-2.58 0-1.488.936-2.556 2.292-2.556 1.356 0 2.292 1.068 2.292 2.568 0 1.512-.936 2.568-2.292 2.568zm9.846-5.604c-1.128 0-1.608.54-1.86 1.212l-.096-1.212h-.528V9h.612V5.916c0-1.236.324-2.412 1.752-2.412h.444v-.588h-.324zm6.325 5.52c-.36 0-.54-.12-.54-.588V5.016c0-1.392-.852-2.172-2.376-2.172-1.392 0-2.316.672-2.472 1.776h.612c.156-.744.804-1.236 1.836-1.236 1.14 0 1.788.6 1.788 1.608v.528h-2.064c-1.56 0-2.4.672-2.4 1.812 0 1.08.852 1.74 2.148 1.74 1.236 0 1.968-.564 2.34-1.32v.216c-.024.72.276 1.032.996 1.032h.36v-.564h-.228zM118.1 6.54c0 1.164-.828 2.004-2.268 2.004-.972 0-1.572-.492-1.572-1.248 0-.804.6-1.248 1.728-1.248h2.112v.492zm4.756 2.532c1.38 0 2.352-.792 2.592-2.028h-.648c-.204.9-.936 1.476-1.944 1.476-1.332 0-2.256-1.044-2.256-2.556s.912-2.58 2.256-2.58c1.02 0 1.74.576 1.956 1.488h.636c-.252-1.26-1.2-2.028-2.58-2.028-1.716 0-2.892 1.272-2.892 3.12 0 1.872 1.164 3.108 2.88 3.108zm6.47 0c1.332 0 2.352-.864 2.616-2.088h-.624c-.24.948-1.044 1.536-2.04 1.536-1.356 0-2.208-1.032-2.232-2.448v-.108h4.968c0-.084.012-.18.012-.252-.06-1.812-1.176-2.868-2.808-2.868-1.668 0-2.808 1.272-2.808 3.072 0 1.908 1.188 3.156 2.916 3.156zm-2.232-3.624c.096-1.236 1.02-2.064 2.136-2.064 1.188 0 2.04.732 2.136 2.064h-4.272zM2.484 25h.732l2.376-6.084h-.636l-2.088 5.376-2.1-5.376h-.66L2.484 25zm6.373.072c1.716 0 2.928-1.272 2.928-3.12 0-1.836-1.212-3.108-2.928-3.108s-2.916 1.272-2.916 3.108c0 1.848 1.2 3.12 2.916 3.12zm0-.552c-1.356 0-2.292-1.056-2.292-2.568 0-1.5.936-2.568 2.292-2.568 1.356 0 2.292 1.068 2.292 2.568 0 1.512-.936 2.568-2.292 2.568zm4.144.48h.612v-8.4h-.612V25zm7.403-.564c-.36 0-.54-.12-.54-.588v-2.832c0-1.392-.852-2.172-2.376-2.172-1.392 0-2.316.672-2.472 1.776h.612c.156-.744.804-1.236 1.836-1.236 1.14 0 1.788.6 1.788 1.608v.528h-2.064c-1.56 0-2.4.672-2.4 1.812 0 1.08.852 1.74 2.148 1.74 1.236 0 1.968-.564 2.34-1.32v.216c-.024.72.276 1.032.996 1.032h.36v-.564h-.228zm-1.152-1.896c0 1.164-.828 2.004-2.268 2.004-.972 0-1.572-.492-1.572-1.248 0-.804.6-1.248 1.728-1.248h2.112v.492zm2.655 1.044c0 .972.395 1.416 1.427 1.416h.889v-.564h-.84c-.636 0-.864-.24-.864-.864V19.48h1.644v-.564h-1.645v-1.704h-.611v1.704h-1.152v.564h1.152v4.104zm3.559-5.952c.24 0 .432-.18.432-.432a.423.423 0 00-.432-.432c-.24 0-.432.18-.432.432s.192.432.432.432zM25.154 25h.612v-6.084h-.612V25zm2.05 0h.612v-8.4h-.612V25zm2.363-7.368c.24 0 .432-.18.432-.432a.423.423 0 00-.432-.432c-.24 0-.432.18-.432.432s.192.432.432.432zM29.255 25h.612v-6.084h-.612V25zm2.507-1.416c0 .972.396 1.416 1.428 1.416h.888v-.564h-.84c-.636 0-.864-.24-.864-.864V19.48h1.644v-.564h-1.644v-1.704h-.612v1.704H30.61v.564h1.152v4.104zM36.833 25l-.396.984c-.276.672-.384.852-1.008.852h-.768v.564h.936c.816 0 1.008-.312 1.392-1.272l2.916-7.212h-.66l-2.076 5.292-2.112-5.292h-.66L36.833 25zm8.605 0h.66l1.8-5.112L49.614 25h.66l2.16-6.084h-.624l-1.872 5.352-1.74-5.352h-.564l-1.836 5.352-1.776-5.352h-.648L45.438 25zm8.164-7.368c.24 0 .432-.18.432-.432a.423.423 0 00-.432-.432c-.24 0-.432.18-.432.432s.192.432.432.432zM53.29 25h.612v-6.084h-.612V25zm2.507-1.416c0 .972.396 1.416 1.428 1.416h.888v-.564h-.84c-.636 0-.864-.24-.864-.864V19.48h1.644v-.564H56.41v-1.704h-.612v1.704h-1.152v.564h1.152v4.104zm6.055-4.74c-1.14 0-1.848.636-2.196 1.512V16.6h-.612V25h.612v-3c0-1.584.804-2.592 2.1-2.592 1.164 0 1.884.768 1.884 2.208V25h.612v-3.408c0-1.92-1.02-2.748-2.4-2.748zm13.793 0c-1.116 0-1.836.624-2.184 1.524-.288-1.008-1.044-1.524-2.004-1.524-1.044 0-1.668.612-1.98 1.368l-.096-1.296h-.528V25h.612v-3.096c0-1.488.72-2.496 1.884-2.496 1.056 0 1.716.744 1.716 2.148V25h.612v-3.312c.036-1.392.756-2.28 1.896-2.28 1.056 0 1.692.708 1.692 2.088V25h.624v-3.528c0-1.836-.972-2.628-2.244-2.628zm8.954 5.592c-.36 0-.54-.12-.54-.588v-2.832c0-1.392-.852-2.172-2.376-2.172-1.392 0-2.316.672-2.472 1.776h.612c.156-.744.804-1.236 1.836-1.236 1.14 0 1.788.6 1.788 1.608v.528h-2.064c-1.56 0-2.4.672-2.4 1.812 0 1.08.852 1.74 2.148 1.74 1.236 0 1.968-.564 2.34-1.32v.216c-.024.72.276 1.032.996 1.032h.36v-.564H84.6zm-1.152-1.896c0 1.164-.828 2.004-2.268 2.004-.972 0-1.572-.492-1.572-1.248 0-.804.6-1.248 1.728-1.248h2.112v.492zm4.683-3.624c-1.128 0-1.608.54-1.86 1.212l-.096-1.212h-.528V25h.612v-3.084c0-1.236.324-2.412 1.752-2.412h.444v-.588h-.324zM89.36 25h.613v-1.644l1.428-1.464L93.729 25h.744l-2.652-3.552 2.448-2.532h-.756l-3.54 3.648V16.6h-.612V25zm8.29.072c1.332 0 2.352-.864 2.616-2.088h-.624c-.24.948-1.044 1.536-2.04 1.536-1.356 0-2.208-1.032-2.232-2.448v-.108h4.968c0-.084.012-.18.012-.252-.06-1.812-1.176-2.868-2.808-2.868-1.668 0-2.808 1.272-2.808 3.072 0 1.908 1.188 3.156 2.916 3.156zm-2.232-3.624c.096-1.236 1.02-2.064 2.136-2.064 1.188 0 2.04.732 2.136 2.064h-4.272zm6.504 2.136c0 .972.396 1.416 1.428 1.416h.888v-.564h-.84c-.636 0-.864-.24-.864-.864V19.48h1.644v-.564h-1.644v-1.704h-.612v1.704h-1.152v.564h1.152v4.104zm6.725-1.74v-.516h-3.876v.516h3.876zM110.079 25h.612v-8.4h-.612V25zm4.739.072c1.332 0 2.352-.864 2.616-2.088h-.624c-.24.948-1.044 1.536-2.04 1.536-1.356 0-2.208-1.032-2.232-2.448v-.108h4.968c0-.084.012-.18.012-.252-.06-1.812-1.176-2.868-2.808-2.868-1.668 0-2.808 1.272-2.808 3.072 0 1.908 1.188 3.156 2.916 3.156zm-2.232-3.624c.096-1.236 1.02-2.064 2.136-2.064 1.188 0 2.04.732 2.136 2.064h-4.272zm11.494 2.988c-.36 0-.54-.12-.54-.588v-2.832c0-1.392-.852-2.172-2.376-2.172-1.392 0-2.316.672-2.472 1.776h.612c.156-.744.804-1.236 1.836-1.236 1.14 0 1.788.6 1.788 1.608v.528h-2.064c-1.56 0-2.4.672-2.4 1.812 0 1.08.852 1.74 2.148 1.74 1.236 0 1.968-.564 2.34-1.32v.216c-.024.72.276 1.032.996 1.032h.36v-.564h-.228zm-1.152-1.896c0 1.164-.828 2.004-2.268 2.004-.972 0-1.572-.492-1.572-1.248 0-.804.6-1.248 1.728-1.248h2.112v.492zm7.073-2.256c-.372-.864-1.188-1.44-2.328-1.44-1.668 0-2.868 1.272-2.868 3.108 0 1.92 1.2 3.12 2.868 3.12 1.14 0 1.932-.612 2.316-1.464l.096 1.392h.528v-8.4h-.612v3.684zm-2.28 4.236c-1.356 0-2.292-1.056-2.292-2.568 0-1.5.936-2.568 2.292-2.568 1.356 0 2.292 1.068 2.292 2.58 0 1.5-.936 2.556-2.292 2.556zm4.643-6.888c.24 0 .432-.18.432-.432a.423.423 0 00-.432-.432c-.24 0-.432.18-.432.432s.192.432.432.432zM132.052 25h.612v-6.084h-.612V25zm4.859-6.156c-1.116 0-1.836.576-2.184 1.368l-.096-1.296h-.528V25h.612v-3c0-1.584.804-2.592 2.1-2.592 1.176 0 1.884.768 1.884 2.208V25h.612v-3.408c0-1.92-1.02-2.748-2.4-2.748zm8.71 1.488c-.372-.9-1.188-1.488-2.316-1.488-1.668 0-2.868 1.26-2.868 3.108 0 1.92 1.2 3.12 2.868 3.12 1.14 0 1.944-.6 2.328-1.548v1.08c0 1.62-.768 2.316-2.232 2.316-1.14 0-1.932-.516-2.124-1.44h-.636c.192 1.296 1.236 1.992 2.712 1.992 1.968 0 2.892-.936 2.892-2.844v-5.712h-.528l-.096 1.416zm-2.268 4.188c-1.356 0-2.292-1.056-2.292-2.568s.936-2.568 2.292-2.568c1.356 0 2.292 1.056 2.292 2.58 0 1.5-.936 2.556-2.292 2.556zM.444 39.128c.048 1.26 1.068 1.944 2.592 1.944 1.308 0 2.364-.66 2.364-1.74 0-1.284-1.128-1.536-2.436-1.716-.948-.132-1.788-.24-1.788-1.092 0-.696.684-1.152 1.716-1.152.972 0 1.668.468 1.776 1.26h.624c-.108-1.188-1.08-1.788-2.4-1.788-1.356-.012-2.328.684-2.328 1.728 0 1.224 1.128 1.452 2.376 1.62 1.02.144 1.848.276 1.848 1.176 0 .72-.756 1.176-1.752 1.176-1.164 0-1.92-.54-1.968-1.416H.444zm9.064-4.284c-1.14 0-1.932.612-2.316 1.464l-.096-1.392h-.528V43.4h.612v-3.804c.348.888 1.176 1.476 2.328 1.476 1.668 0 2.868-1.272 2.868-3.12 0-1.908-1.2-3.108-2.868-3.108zM9.46 40.52c-1.356 0-2.292-1.056-2.292-2.58 0-1.488.936-2.556 2.292-2.556 1.356 0 2.292 1.068 2.292 2.568 0 1.512-.936 2.568-2.292 2.568zm6.611-5.604c-1.128 0-1.608.54-1.86 1.212l-.096-1.212h-.528V41h.612v-3.084c0-1.236.324-2.412 1.752-2.412h.444v-.588h-.324zm3.485 6.156c1.332 0 2.352-.864 2.616-2.088h-.624c-.24.948-1.044 1.536-2.04 1.536-1.356 0-2.208-1.032-2.232-2.448v-.108h4.968c0-.084.012-.18.012-.252-.06-1.812-1.176-2.868-2.808-2.868-1.668 0-2.808 1.272-2.808 3.072 0 1.908 1.188 3.156 2.916 3.156zm-2.232-3.624c.096-1.236 1.02-2.064 2.136-2.064 1.188 0 2.04.732 2.136 2.064h-4.272zm11.494 2.988c-.36 0-.54-.12-.54-.588v-2.832c0-1.392-.852-2.172-2.376-2.172-1.392 0-2.316.672-2.472 1.776h.612c.156-.744.804-1.236 1.836-1.236 1.14 0 1.788.6 1.788 1.608v.528h-2.064c-1.56 0-2.4.672-2.4 1.812 0 1.08.852 1.74 2.148 1.74 1.236 0 1.968-.564 2.34-1.32v.216c-.024.72.276 1.032.996 1.032h.36v-.564h-.228zm-1.152-1.896c0 1.164-.828 2.004-2.268 2.004-.972 0-1.572-.492-1.572-1.248 0-.804.6-1.248 1.728-1.248h2.112v.492zm7.073-2.256c-.372-.864-1.188-1.44-2.328-1.44-1.668 0-2.868 1.272-2.868 3.108 0 1.92 1.2 3.12 2.868 3.12 1.14 0 1.932-.612 2.316-1.464L34.823 41h.528v-8.4h-.612v3.684zm-2.28 4.236c-1.356 0-2.292-1.056-2.292-2.568 0-1.5.936-2.568 2.292-2.568 1.356 0 2.292 1.068 2.292 2.58 0 1.5-.936 2.556-2.292 2.556zm4.055-1.392c.048 1.26 1.068 1.944 2.592 1.944 1.308 0 2.364-.66 2.364-1.74 0-1.284-1.128-1.536-2.436-1.716-.948-.132-1.788-.24-1.788-1.092 0-.696.684-1.152 1.716-1.152.972 0 1.668.468 1.776 1.26h.624c-.108-1.188-1.08-1.788-2.4-1.788-1.356-.012-2.328.684-2.328 1.728 0 1.224 1.128 1.452 2.376 1.62 1.02.144 1.848.276 1.848 1.176 0 .72-.756 1.176-1.752 1.176-1.164 0-1.92-.54-1.968-1.416h-.624zm12.046 1.944c1.716 0 2.928-1.272 2.928-3.12 0-1.836-1.212-3.108-2.928-3.108s-2.916 1.272-2.916 3.108c0 1.848 1.2 3.12 2.916 3.12zm0-.552c-1.356 0-2.292-1.056-2.292-2.568 0-1.5.936-2.568 2.292-2.568 1.356 0 2.292 1.068 2.292 2.568 0 1.512-.936 2.568-2.292 2.568zm6.952-5.676c-1.116 0-1.836.576-2.184 1.368l-.096-1.296h-.528V41h.612v-3c0-1.584.804-2.592 2.1-2.592 1.176 0 1.884.768 1.884 2.208V41h.612v-3.408c0-1.92-1.02-2.748-2.4-2.748zm10.625 6.228c1.68 0 2.676-.924 3.036-1.932L69.21 41h.564v-4.38H66.39v.6h2.76v.36c0 1.644-1.14 2.892-3 2.892-1.884 0-3.132-1.512-3.132-3.672 0-2.148 1.248-3.672 3.192-3.672 1.416 0 2.4.732 2.748 2.052h.696c-.348-1.68-1.656-2.652-3.42-2.652-2.376 0-3.888 1.752-3.888 4.272 0 2.532 1.548 4.272 3.792 4.272zm5.38-.072h2.915c1.956 0 2.964-.888 2.964-2.34 0-1.2-.78-1.836-1.896-2.004.936-.24 1.512-.876 1.512-1.896 0-1.332-.936-2.16-2.628-2.16h-2.868V41zm2.891-7.812c1.26 0 1.956.612 1.956 1.608 0 1.008-.708 1.62-1.956 1.62h-2.244v-3.228h2.244zm.024 3.816c1.452 0 2.292.588 2.292 1.692 0 1.056-.78 1.716-2.292 1.716h-2.268v-3.408h2.268zM78.794 41h.648v-3.504h2.472c1.584 0 2.628-.984 2.628-2.448S83.51 32.6 81.914 32.6h-3.12V41zm3.072-7.8c1.236 0 2.016.744 2.016 1.848 0 1.092-.792 1.848-2.028 1.848h-2.412V33.2h2.424zm9.872 1.644c-1.14 0-1.932.612-2.316 1.464l-.096-1.392h-.528V43.4h.612v-3.804c.348.888 1.176 1.476 2.328 1.476 1.668 0 2.868-1.272 2.868-3.12 0-1.908-1.2-3.108-2.868-3.108zm-.048 5.676c-1.356 0-2.292-1.056-2.292-2.58 0-1.488.936-2.556 2.292-2.556 1.356 0 2.292 1.068 2.292 2.568 0 1.512-.936 2.568-2.292 2.568zm9.48-.084c-.36 0-.54-.12-.54-.588v-2.832c0-1.392-.852-2.172-2.376-2.172-1.392 0-2.316.672-2.472 1.776h.612c.156-.744.804-1.236 1.836-1.236 1.14 0 1.788.6 1.788 1.608v.528h-2.064c-1.56 0-2.4.672-2.4 1.812 0 1.08.852 1.74 2.148 1.74 1.236 0 1.968-.564 2.34-1.32v.216c-.024.72.276 1.032.996 1.032h.36v-.564h-.228zm-1.152-1.896c0 1.164-.828 2.004-2.268 2.004-.972 0-1.572-.492-1.572-1.248 0-.804.6-1.248 1.728-1.248h2.112v.492zm2.51-4.908c.24 0 .432-.18.432-.432a.423.423 0 00-.432-.432c-.24 0-.432.18-.432.432s.192.432.432.432zM102.216 41h.612v-6.084h-.612V41zm4.535-6.084c-1.128 0-1.608.54-1.86 1.212l-.096-1.212h-.528V41h.612v-3.084c0-1.236.324-2.412 1.752-2.412h.444v-.588h-.324zm.802 4.212c.048 1.26 1.068 1.944 2.592 1.944 1.308 0 2.364-.66 2.364-1.74 0-1.284-1.128-1.536-2.436-1.716-.948-.132-1.788-.24-1.788-1.092 0-.696.684-1.152 1.716-1.152.972 0 1.668.468 1.776 1.26h.624c-.108-1.188-1.08-1.788-2.4-1.788-1.356-.012-2.328.684-2.328 1.728 0 1.224 1.128 1.452 2.376 1.62 1.02.144 1.848.276 1.848 1.176 0 .72-.756 1.176-1.752 1.176-1.164 0-1.92-.54-1.968-1.416h-.624zm14.71 1.308c-.36 0-.54-.12-.54-.588v-2.832c0-1.392-.852-2.172-2.376-2.172-1.392 0-2.316.672-2.472 1.776h.612c.156-.744.804-1.236 1.836-1.236 1.14 0 1.788.6 1.788 1.608v.528h-2.064c-1.56 0-2.4.672-2.4 1.812 0 1.08.852 1.74 2.148 1.74 1.236 0 1.968-.564 2.34-1.32v.216c-.024.72.276 1.032.996 1.032h.36v-.564h-.228zm-1.152-1.896c0 1.164-.828 2.004-2.268 2.004-.972 0-1.572-.492-1.572-1.248 0-.804.6-1.248 1.728-1.248h2.112v.492zm5.007-3.696c-1.116 0-1.836.576-2.184 1.368l-.096-1.296h-.528V41h.612v-3c0-1.584.804-2.592 2.1-2.592 1.176 0 1.884.768 1.884 2.208V41h.612v-3.408c0-1.92-1.02-2.748-2.4-2.748zm8.629 1.44c-.372-.864-1.188-1.44-2.328-1.44-1.668 0-2.868 1.272-2.868 3.108 0 1.92 1.2 3.12 2.868 3.12 1.14 0 1.932-.612 2.316-1.464l.096 1.392h.528v-8.4h-.612v3.684zm-2.28 4.236c-1.356 0-2.292-1.056-2.292-2.568 0-1.5.936-2.568 2.292-2.568 1.356 0 2.292 1.068 2.292 2.58 0 1.5-.936 2.556-2.292 2.556zM1.176 55.584c0 .972.396 1.416 1.428 1.416h.888v-.564h-.84c-.636 0-.864-.24-.864-.864V51.48h1.644v-.564H1.788v-1.704h-.612v1.704H.024v.564h1.152v4.104zm6.055-4.74c-1.14 0-1.848.636-2.196 1.512V48.6h-.612V57h.612v-3c0-1.584.804-2.592 2.1-2.592 1.164 0 1.884.768 1.884 2.208V57h.612v-3.408c0-1.92-1.02-2.748-2.4-2.748zm6.36 6.228c1.333 0 2.353-.864 2.617-2.088h-.624c-.24.948-1.044 1.536-2.04 1.536-1.356 0-2.208-1.032-2.232-2.448v-.108h4.968c0-.084.012-.18.012-.252-.06-1.812-1.176-2.868-2.808-2.868-1.668 0-2.808 1.272-2.808 3.072 0 1.908 1.188 3.156 2.916 3.156zm-2.231-3.624c.096-1.236 1.02-2.064 2.136-2.064 1.188 0 2.04.732 2.136 2.064H11.36zM20.88 57h.648v-3.876h3.624v-.6h-3.624V49.2h4.344v-.6H20.88V57zm5.54-7.8h2.88V57h.648v-7.8h2.88v-.6H26.42v.6zm6.792 5.22c.084 1.584 1.236 2.652 3.12 2.652 1.764 0 2.928-.96 2.928-2.376 0-1.596-1.416-2.004-2.808-2.244-1.284-.216-2.4-.432-2.4-1.632 0-1.092.852-1.704 2.172-1.704 1.26 0 2.124.708 2.268 1.8h.66c-.12-1.44-1.212-2.388-2.928-2.388-1.704 0-2.82.9-2.82 2.328 0 1.596 1.368 1.956 2.712 2.184 1.32.228 2.496.492 2.496 1.716 0 1.08-.912 1.728-2.268 1.728-1.416 0-2.376-.816-2.46-2.064h-.672zM40.684 57h5.328v-.6h-4.68v-3.396h3.792v-.6h-3.792V49.2h4.524v-.6h-5.172V57zm10.938-7.332c0 .384-.18.648-.553.648h-1.44v.564h1.44c.252 0 .432-.072.54-.204V57h.624v-8.4h-.611v1.068zm2.075 3.324c0 2.46 1.212 4.08 3.036 4.08 1.8 0 3.024-1.62 3.024-4.08v-.384c0-2.388-1.224-4.08-3.024-4.08-1.824 0-3.036 1.692-3.036 4.08v.384zm5.424-.024c0 2.136-.948 3.528-2.388 3.528-1.452 0-2.4-1.392-2.4-3.528v-.336c0-2.136.948-3.528 2.4-3.528 1.44 0 2.388 1.392 2.388 3.528v.336zm1.783.024c0 2.46 1.212 4.08 3.036 4.08 1.8 0 3.024-1.62 3.024-4.08v-.384c0-2.388-1.224-4.08-3.024-4.08-1.824 0-3.036 1.692-3.036 4.08v.384zm5.424-.024c0 2.136-.948 3.528-2.388 3.528-1.452 0-2.4-1.392-2.4-3.528v-.336c0-2.136.948-3.528 2.4-3.528 1.44 0 2.388 1.392 2.388 3.528v.336zm1.257 3.636c0 .276.193.456.457.456.263 0 .456-.18.456-.456s-.193-.444-.457-.444c-.263 0-.456.168-.456.444z" fill="#000"/></svg>