<svg width="153" height="23" viewBox="0 0 153 23" fill="none" xmlns="http://www.w3.org/2000/svg"><path d="M5.274 15.636v-.89h-3.55V7.847H.758v7.79h4.517zm3.158.067c1.658 0 2.815-1.18 2.815-2.904 0-1.725-1.157-2.904-2.815-2.904s-2.815 1.18-2.815 2.904c0 1.725 1.157 2.904 2.815 2.904zm0-.812c-1.124 0-1.88-.88-1.88-2.092 0-1.213.756-2.092 1.88-2.092 1.124 0 1.88.879 1.88 2.092s-.756 2.092-1.88 2.092zm3.606-1.124c.023 1.246 1.035 1.936 2.504 1.936 1.257 0 2.27-.656 2.27-1.713 0-1.258-1.035-1.503-2.326-1.658-.823-.1-1.424-.179-1.424-.802 0-.523.534-.856 1.324-.856.78 0 1.313.434 1.38 1.012h.935c-.09-1.18-1.024-1.78-2.315-1.791-1.28-.011-2.225.667-2.225 1.702 0 1.18 1.012 1.436 2.28 1.591.846.1 1.47.156 1.47.868 0 .523-.568.868-1.369.868-.946 0-1.536-.49-1.569-1.157h-.935zm5.444 0c.023 1.246 1.035 1.936 2.504 1.936 1.257 0 2.27-.656 2.27-1.713 0-1.258-1.035-1.503-2.326-1.658-.823-.1-1.424-.179-1.424-.802 0-.523.534-.856 1.324-.856.78 0 1.313.434 1.38 1.012h.935c-.09-1.18-1.024-1.78-2.315-1.791-1.28-.011-2.225.667-2.225 1.702 0 1.18 1.012 1.436 2.28 1.591.847.1 1.47.156 1.47.868 0 .523-.568.868-1.369.868-.946 0-1.535-.49-1.569-1.157h-.935zm8.402 1.936c1.313 0 2.247-.834 2.47-1.97h-.924c-.189.735-.812 1.158-1.613 1.158-1.08 0-1.758-.757-1.791-1.836v-.078h4.406c.011-.134.022-.267.022-.39-.044-1.68-1.09-2.692-2.693-2.692-1.602 0-2.692 1.18-2.692 2.904 0 1.736 1.112 2.904 2.815 2.904zM24.08 12.22c.09-.923.857-1.524 1.692-1.524.945 0 1.613.545 1.702 1.524h-3.394zm5.159 1.547c.022 1.246 1.035 1.936 2.504 1.936 1.257 0 2.27-.656 2.27-1.713 0-1.258-1.035-1.503-2.326-1.658-.823-.1-1.424-.179-1.424-.802 0-.523.534-.856 1.324-.856.779 0 1.313.434 1.38 1.012h.934c-.089-1.18-1.023-1.78-2.314-1.791-1.28-.011-2.226.667-2.226 1.702 0 1.18 1.013 1.436 2.281 1.591.846.1 1.47.156 1.47.868 0 .523-.568.868-1.37.868-.945 0-1.535-.49-1.568-1.157h-.935zm11.247 1.936c1.38 0 2.303-.779 2.526-2.003h-.968c-.178.724-.735 1.19-1.547 1.19-1.09 0-1.825-.845-1.825-2.08s.734-2.103 1.825-2.103c.834 0 1.39.456 1.558 1.213h.957c-.234-1.246-1.113-2.025-2.504-2.025-1.647 0-2.77 1.18-2.77 2.915 0 1.77 1.09 2.893 2.748 2.893zm8.544-.901c-.256 0-.367-.078-.367-.378v-2.482c0-1.324-.834-2.047-2.28-2.047-1.37 0-2.27.656-2.404 1.769h.912c.111-.579.645-.957 1.447-.957.89 0 1.413.445 1.413 1.18v.389h-1.67c-1.49 0-2.28.634-2.28 1.77 0 1.034.845 1.657 2.092 1.657.979 0 1.546-.434 1.902-.946.011.557.267.88 1.024.88h.5v-.835h-.289zm-1.28-1.48c0 .946-.656 1.602-1.79 1.602-.757 0-1.236-.378-1.236-.934 0-.646.456-.946 1.269-.946h1.758v.278zm5.053-3.427c-.957 0-1.536.4-1.87.834l-.122-.768h-.79v5.675h.913V12.8c0-1.28.645-2.07 1.713-2.07.99 0 1.536.623 1.536 1.803v3.104h.912v-3.16c0-1.88-1.012-2.581-2.292-2.581zm8.983 5.808c1.313 0 2.247-.834 2.47-1.97h-.924c-.189.735-.812 1.158-1.613 1.158-1.08 0-1.758-.757-1.792-1.836v-.078h4.407c.01-.134.022-.267.022-.39-.044-1.68-1.09-2.692-2.693-2.692-1.602 0-2.693 1.18-2.693 2.904 0 1.736 1.113 2.904 2.816 2.904zm-1.803-3.483c.089-.923.857-1.524 1.691-1.524.946 0 1.614.545 1.703 1.524h-3.394zm4.574 3.416h1.035l1.658-2.28 1.658 2.28h1.09l-2.17-2.915 2.026-2.76H68.82l-1.524 2.104-1.503-2.104h-1.09l2.014 2.76-2.159 2.915zm8.398.067c1.38 0 2.303-.779 2.526-2.003h-.968c-.178.724-.735 1.19-1.547 1.19-1.09 0-1.825-.845-1.825-2.08s.734-2.103 1.825-2.103c.835 0 1.39.456 1.558 1.213h.957c-.234-1.246-1.113-2.025-2.504-2.025-1.647 0-2.77 1.18-2.77 2.915 0 1.77 1.09 2.893 2.748 2.893zm6.14 0c1.314 0 2.249-.834 2.471-1.97h-.923c-.19.735-.813 1.158-1.614 1.158-1.08 0-1.758-.757-1.791-1.836v-.078h4.406c.011-.134.022-.267.022-.39-.044-1.68-1.09-2.692-2.692-2.692-1.603 0-2.693 1.18-2.693 2.904 0 1.736 1.112 2.904 2.815 2.904zm-1.802-3.483c.09-.923.857-1.524 1.692-1.524.945 0 1.613.545 1.702 1.524h-3.394zm8.03 3.483c1.312 0 2.247-.834 2.47-1.97h-.924c-.19.735-.812 1.158-1.613 1.158-1.08 0-1.758-.757-1.792-1.836v-.078h4.407c.01-.134.022-.267.022-.39-.045-1.68-1.09-2.692-2.693-2.692-1.602 0-2.693 1.18-2.693 2.904 0 1.736 1.113 2.904 2.815 2.904zM83.52 12.22c.089-.923.857-1.524 1.691-1.524.946 0 1.614.545 1.703 1.524H83.52zm9.887-1.39c-.345-.546-.99-.935-1.947-.935-1.57 0-2.726 1.168-2.726 2.904 0 1.847 1.157 2.904 2.726 2.904.957 0 1.569-.456 1.947-.98l.123.913h.79V7.847h-.913v2.982zm-1.858 4.06c-1.124 0-1.88-.856-1.88-2.091 0-1.235.756-2.092 1.88-2.092 1.113 0 1.87.868 1.87 2.114 0 1.213-.757 2.07-1.87 2.07zm11.399-4.06c-.345-.546-.99-.935-1.947-.935-1.57 0-2.727 1.168-2.727 2.904 0 1.847 1.158 2.904 2.727 2.904.957 0 1.569-.456 1.947-.98l.122.913h.79V7.847h-.912v2.982zm-1.858 4.06c-1.124 0-1.88-.856-1.88-2.091 0-1.235.756-2.092 1.88-2.092 1.112 0 1.869.868 1.869 2.114 0 1.213-.757 2.07-1.869 2.07zm6.628.813c1.313 0 2.248-.834 2.47-1.97h-.923c-.189.735-.812 1.158-1.614 1.158-1.079 0-1.758-.757-1.791-1.836v-.078h4.406c.011-.134.023-.267.023-.39-.045-1.68-1.091-2.692-2.693-2.692-1.603 0-2.693 1.18-2.693 2.904 0 1.736 1.113 2.904 2.815 2.904zm-1.802-3.483c.089-.923.856-1.524 1.691-1.524.946 0 1.613.545 1.702 1.524h-3.393zm8.274-2.325c-.957 0-1.569.456-1.948.979l-.122-.913h-.79v7.9h.912v-3.093c.345.546.991.935 1.948.935 1.568 0 2.726-1.168 2.726-2.904 0-1.847-1.158-2.904-2.726-2.904zm-.09 4.996c-1.112 0-1.869-.868-1.869-2.114 0-1.213.757-2.07 1.869-2.07 1.124 0 1.881.857 1.881 2.092s-.757 2.092-1.881 2.092zm6.473.812c1.658 0 2.815-1.18 2.815-2.904 0-1.725-1.157-2.904-2.815-2.904s-2.815 1.18-2.815 2.904c0 1.725 1.157 2.904 2.815 2.904zm0-.812c-1.124 0-1.88-.88-1.88-2.092 0-1.213.756-2.092 1.88-2.092 1.124 0 1.881.879 1.881 2.092s-.757 2.092-1.881 2.092zm3.606-1.124c.023 1.246 1.035 1.936 2.504 1.936 1.257 0 2.27-.656 2.27-1.713 0-1.258-1.035-1.503-2.326-1.658-.823-.1-1.424-.179-1.424-.802 0-.523.534-.856 1.324-.856.779 0 1.313.434 1.38 1.012h.935c-.089-1.18-1.024-1.78-2.315-1.791-1.279-.011-2.225.667-2.225 1.702 0 1.18 1.012 1.436 2.281 1.591.846.1 1.469.156 1.469.868 0 .523-.568.868-1.369.868-.946 0-1.536-.49-1.569-1.157h-.935zm6.254-4.762c.334 0 .59-.245.59-.59a.573.573 0 00-.59-.59.573.573 0 00-.59.59c0 .345.256.59.59.59zm-.467 6.631h.912V9.961h-.912v5.675zm2.585-1.48c0 1.002.39 1.48 1.48 1.48h.99v-.834h-.901c-.49 0-.656-.178-.656-.657v-3.349h1.468v-.835h-1.468v-1.59h-.913v1.59h-1.024v.835h1.024v3.36zm3.027-.389c.023 1.246 1.035 1.936 2.504 1.936 1.257 0 2.27-.656 2.27-1.713 0-1.258-1.035-1.503-2.326-1.658-.823-.1-1.424-.179-1.424-.802 0-.523.534-.856 1.324-.856.779 0 1.313.434 1.38 1.012h.935c-.089-1.18-1.024-1.78-2.315-1.791-1.279-.011-2.225.667-2.225 1.702 0 1.18 1.012 1.436 2.281 1.591.845.1 1.469.156 1.469.868 0 .523-.568.868-1.369.868-.946 0-1.536-.49-1.569-1.157h-.935zm5.589 1.313c0 .378.267.623.634.623s.634-.245.634-.623-.267-.623-.634-.623-.634.245-.634.623z" fill="#000"/></svg>