<svg width="147" height="10" viewBox="0 0 147 10" fill="none" xmlns="http://www.w3.org/2000/svg"><path d="M4.62 3.996A1.734 1.734 0 005.951 2.28c0-1.199-1.034-2.046-2.684-2.046C1.628.234.594 1.081.594 2.28c0 .935.616 1.551 1.32 1.727-.825.187-1.529.825-1.529 1.892 0 1.276 1.067 2.167 2.882 2.167 1.815 0 2.893-.891 2.893-2.167 0-1.089-.715-1.727-1.54-1.903zM3.267 1.18c.88 0 1.452.462 1.452 1.133 0 .682-.572 1.144-1.452 1.144-.869 0-1.441-.462-1.441-1.144 0-.671.572-1.133 1.441-1.133zm0 5.951c-.968 0-1.639-.55-1.639-1.298s.671-1.287 1.639-1.287c.979 0 1.65.539 1.65 1.287 0 .748-.671 1.298-1.65 1.298zm3.418-.913h3.927V8h1.199V6.218h1.166V5.162h-1.166V.3h-1.43L6.685 5.184v1.034zm3.927-4.587v3.531H7.939l2.673-3.531zm4.793 2.728h-1.75V5.36h1.75v1.859h1.089V5.36h1.76V4.359h-1.76V2.5h-1.09v1.859zM22.328 8h1.265V4.744h3.014V3.655h-3.014V1.422h3.652V.3h-4.917V8zm5.326 0h1.43l1.892-2.959L32.856 8h1.508L31.8 4.007 34.21.3h-1.43l-1.76 2.739L29.293.3h-1.496l2.409 3.762L27.654 8zm10.358 0h1.265V5.206h1.77c1.607 0 2.663-.968 2.663-2.453C43.71 1.257 42.654.3 41.048.3h-3.036V8zm2.937-6.6c.902 0 1.474.517 1.474 1.353 0 .825-.583 1.353-1.485 1.353h-1.661V1.4h1.672zm8.428 5.566c-.242 0-.364-.077-.364-.363V4.348c0-1.331-.857-2.046-2.353-2.046-1.42 0-2.365.682-2.486 1.782h1.166c.087-.495.56-.825 1.264-.825.782 0 1.233.385 1.233 1.012v.341h-1.42c-1.573 0-2.409.649-2.409 1.804 0 1.045.858 1.65 2.09 1.65.913 0 1.486-.396 1.86-.968 0 .561.264.902 1.034.902h.627V6.966h-.242zm-1.54-1.276c-.012.869-.584 1.452-1.574 1.452-.648 0-1.044-.33-1.044-.803 0-.572.407-.847 1.143-.847h1.474v.198zm3.034-4.114c.407 0 .726-.297.726-.715s-.32-.715-.726-.715c-.407 0-.726.297-.726.715s.319.715.726.715zM50.266 8h1.188V2.368h-1.188V8zm5.201-5.632c-.924 0-1.375.374-1.66.847l-.133-.847h-1.056V8h1.188V5.173c0-.869.341-1.694 1.397-1.694h.528V2.368h-.264zm.658 3.773c.033 1.221 1.067 1.925 2.574 1.925 1.364 0 2.387-.682 2.387-1.76 0-1.254-1.045-1.518-2.332-1.672-.814-.088-1.353-.154-1.353-.682 0-.451.462-.737 1.166-.737s1.188.363 1.254.88h1.166c-.077-1.155-1.056-1.793-2.442-1.793-1.353-.011-2.31.682-2.31 1.749 0 1.166 1.012 1.441 2.3 1.595.868.11 1.385.154 1.385.759 0 .451-.484.737-1.22.737-.859 0-1.365-.418-1.409-1.001h-1.166zm6.357.44c-.506 0-.836.33-.836.748 0 .473.286.704.649.704a.591.591 0 00.363-.11.627.627 0 01.01.143c0 .385-.274.814-.967.825v.638c1.089-.011 1.77-.616 1.77-1.683 0-.704-.384-1.265-.99-1.265zm4.57-2.255c0 2.321 1.243 3.74 3.036 3.74s3.036-1.419 3.036-3.74v-.352c0-2.233-1.243-3.74-3.036-3.74s-3.036 1.507-3.036 3.74v.352zm4.84-.044c0 1.727-.726 2.717-1.804 2.717s-1.804-.99-1.804-2.717v-.264c0-1.716.726-2.717 1.804-2.717s1.804 1.001 1.804 2.717v.264zm2.177-2.167c0 1.089.836 1.87 1.969 1.87s1.969-.781 1.969-1.87S77.17.234 76.037.234c-1.132 0-1.968.792-1.968 1.881zM76.51 8L81.78.3h-1.177L75.345 8h1.166zm.495-5.885c0 .561-.407.979-.968.979-.55 0-.957-.418-.957-.979 0-.561.407-.979.957-.979.56 0 .968.418.968.979zm2.09 4.081c0 1.078.836 1.87 1.969 1.87s1.969-.792 1.969-1.87c0-1.1-.836-1.881-1.97-1.881-1.132 0-1.968.781-1.968 1.881zm2.937 0a.942.942 0 01-.968.968.942.942 0 01-.968-.968c0-.561.418-.99.968-.99s.968.429.968.99zm7.502 1.87c1.441 0 2.398-.803 2.618-2.079H90.9c-.143.649-.627 1.067-1.353 1.067-.957 0-1.584-.759-1.584-1.859 0-1.111.627-1.881 1.584-1.881.737 0 1.21.407 1.364 1.067h1.243c-.23-1.276-1.133-2.079-2.585-2.079-1.705 0-2.827 1.155-2.827 2.893 0 1.76 1.09 2.871 2.794 2.871zm6.19 0c1.716 0 2.87-1.155 2.87-2.882 0-1.716-1.154-2.882-2.87-2.882-1.716 0-2.871 1.166-2.871 2.882 0 1.727 1.154 2.882 2.87 2.882zm0-1.012c-1.001 0-1.65-.781-1.65-1.87s.648-1.87 1.65-1.87c1 0 1.66.781 1.66 1.87s-.66 1.87-1.66 1.87zm10.305-4.752c-.924 0-1.562.407-1.925 1.023-.341-.726-1.001-1.023-1.738-1.023-.847.011-1.331.385-1.65.803l-.132-.737h-1.034V8h1.188V4.986c0-1.001.506-1.661 1.32-1.661.781 0 1.188.517 1.188 1.507V8h1.199V4.953c0-1.012.517-1.628 1.331-1.628.77 0 1.177.517 1.177 1.507V8h1.188V4.755c0-1.782-.946-2.453-2.112-2.453zm9.668 0c-.924 0-1.562.407-1.925 1.023-.341-.726-1.001-1.023-1.738-1.023-.847.011-1.331.385-1.65.803l-.132-.737h-1.034V8h1.188V4.986c0-1.001.506-1.661 1.32-1.661.781 0 1.188.517 1.188 1.507V8h1.199V4.953c0-1.012.517-1.628 1.331-1.628.77 0 1.177.517 1.177 1.507V8h1.188V4.755c0-1.782-.946-2.453-2.112-2.453zm3.794-.726c.407 0 .726-.297.726-.715s-.319-.715-.726-.715-.726.297-.726.715.319.715.726.715zM118.887 8h1.188V2.368h-1.188V8zm2.11-1.859c.033 1.221 1.067 1.925 2.574 1.925 1.364 0 2.387-.682 2.387-1.76 0-1.254-1.045-1.518-2.332-1.672-.814-.088-1.353-.154-1.353-.682 0-.451.462-.737 1.166-.737s1.188.363 1.254.88h1.166c-.077-1.155-1.056-1.793-2.442-1.793-1.353-.011-2.31.682-2.31 1.749 0 1.166 1.012 1.441 2.299 1.595.869.11 1.386.154 1.386.759 0 .451-.484.737-1.221.737-.858 0-1.364-.418-1.408-1.001h-1.166zm5.532 0c.033 1.221 1.067 1.925 2.574 1.925 1.364 0 2.387-.682 2.387-1.76 0-1.254-1.045-1.518-2.332-1.672-.814-.088-1.353-.154-1.353-.682 0-.451.462-.737 1.166-.737s1.188.363 1.254.88h1.166c-.077-1.155-1.056-1.793-2.442-1.793-1.353-.011-2.31.682-2.31 1.749 0 1.166 1.012 1.441 2.299 1.595.869.11 1.386.154 1.386.759 0 .451-.484.737-1.221.737-.858 0-1.364-.418-1.408-1.001h-1.166zm6.487-4.565c.407 0 .726-.297.726-.715s-.319-.715-.726-.715-.726.297-.726.715.319.715.726.715zM132.411 8h1.188V2.368h-1.188V8zm5.015.066c1.716 0 2.871-1.155 2.871-2.882 0-1.716-1.155-2.882-2.871-2.882s-2.871 1.166-2.871 2.882c0 1.727 1.155 2.882 2.871 2.882zm0-1.012c-1.001 0-1.65-.781-1.65-1.87s.649-1.87 1.65-1.87 1.661.781 1.661 1.87-.66 1.87-1.661 1.87zm6.796-4.752c-.913 0-1.452.363-1.804.803l-.132-.737h-1.034V8h1.188V5.162c0-1.144.561-1.837 1.507-1.837.891 0 1.342.572 1.342 1.639V8h1.199V4.865c0-1.881-1.023-2.563-2.266-2.563z" fill="#000"/></svg>