<svg width="125" height="47" viewBox="0 0 125 47" fill="none" xmlns="http://www.w3.org/2000/svg"><path d="M.936 10h.702V.9H.936V10zm5.463-6.669c-1.209 0-1.989.624-2.366 1.482L3.93 3.409h-.572V10h.663V6.75c0-1.716.871-2.808 2.275-2.808 1.274 0 2.041.832 2.041 2.392V10H9V6.308c0-2.08-1.105-2.977-2.6-2.977zm4.561 5.135c0 1.053.43 1.534 1.547 1.534h.963v-.611h-.91c-.69 0-.937-.26-.937-.936V4.02h1.782v-.611h-1.781V1.563h-.664v1.846H9.713v.611h1.248v4.446zm6.21-5.057c-1.223 0-1.743.585-2.016 1.313l-.104-1.313h-.572V10h.663V6.659c0-1.339.351-2.613 1.898-2.613h.481v-.637h-.35zm3.775 6.669c1.859 0 3.172-1.378 3.172-3.38 0-1.989-1.313-3.367-3.172-3.367-1.86 0-3.16 1.378-3.16 3.367 0 2.002 1.3 3.38 3.16 3.38zm0-.598c-1.47 0-2.483-1.144-2.483-2.782 0-1.625 1.014-2.782 2.483-2.782s2.483 1.157 2.483 2.782c0 1.638-1.014 2.782-2.483 2.782zm9.871-4.589c-.403-.936-1.287-1.56-2.522-1.56-1.807 0-3.107 1.378-3.107 3.367 0 2.08 1.3 3.38 3.107 3.38 1.235 0 2.093-.663 2.51-1.586L30.906 10h.572V.9h-.663v3.991zm-2.47 4.589c-1.469 0-2.483-1.144-2.483-2.782 0-1.625 1.014-2.782 2.483-2.782 1.47 0 2.483 1.157 2.483 2.795 0 1.625-1.014 2.769-2.483 2.769zm9.477-2.834c0 1.729-.858 2.821-2.223 2.821-1.222 0-1.976-.832-1.976-2.405V3.409h-.663v3.692c0 2.067 1.079 2.977 2.535 2.977 1.17 0 1.937-.624 2.314-1.469L37.9 10h.586V3.409h-.663v3.237zm5.097 3.432c1.495 0 2.548-.858 2.808-2.197h-.702c-.221.975-1.014 1.599-2.106 1.599-1.443 0-2.444-1.131-2.444-2.769 0-1.638.988-2.795 2.444-2.795 1.105 0 1.885.624 2.119 1.612h.689c-.273-1.365-1.3-2.197-2.795-2.197-1.86 0-3.133 1.378-3.133 3.38 0 2.028 1.26 3.367 3.12 3.367zm4.434-8.06c.26 0 .468-.195.468-.468a.458.458 0 00-.468-.468.458.458 0 00-.468.468c0 .273.208.468.468.468zM47.016 10h.663V3.409h-.663V10zm5.264-6.669c-1.209 0-1.989.624-2.366 1.482l-.104-1.404h-.572V10h.663V6.75c0-1.716.871-2.808 2.275-2.808 1.274 0 2.041.832 2.041 2.392V10h.663V6.308c0-2.08-1.105-2.977-2.6-2.977zm9.436 1.612c-.403-.975-1.287-1.612-2.509-1.612-1.807 0-3.107 1.365-3.107 3.367 0 2.08 1.3 3.38 3.107 3.38 1.235 0 2.106-.65 2.522-1.677v1.17c0 1.755-.832 2.509-2.418 2.509-1.235 0-2.093-.559-2.3-1.56h-.69c.208 1.404 1.34 2.158 2.938 2.158 2.132 0 3.133-1.014 3.133-3.081V3.409h-.572l-.104 1.534zM59.26 9.48c-1.469 0-2.483-1.144-2.483-2.782 0-1.638 1.014-2.782 2.483-2.782 1.47 0 2.483 1.144 2.483 2.795 0 1.625-1.014 2.769-2.483 2.769zm11.109.598c1.859 0 3.172-1.378 3.172-3.38 0-1.989-1.313-3.367-3.172-3.367-1.86 0-3.16 1.378-3.16 3.367 0 2.002 1.3 3.38 3.16 3.38zm0-.598c-1.47 0-2.483-1.144-2.483-2.782 0-1.625 1.014-2.782 2.483-2.782s2.483 1.157 2.483 2.782c0 1.638-1.014 2.782-2.483 2.782zm9.273-2.834c0 1.729-.858 2.821-2.223 2.821-1.222 0-1.976-.832-1.976-2.405V3.409h-.663v3.692c0 2.067 1.08 2.977 2.535 2.977 1.17 0 1.937-.624 2.314-1.469L79.72 10h.585V3.409h-.663v3.237zm4.915-3.237c-1.222 0-1.742.585-2.015 1.313l-.104-1.313h-.572V10h.663V6.659c0-1.339.351-2.613 1.898-2.613h.481v-.637h-.351zM3.055 28h.832l2.353-7.943L8.593 28h.832l2.782-9.1h-.728l-2.457 8.177L6.63 18.9h-.715l-2.457 8.177L1.027 18.9H.286L3.055 28zm12.583.078c1.443 0 2.548-.936 2.834-2.262h-.676c-.26 1.027-1.13 1.664-2.21 1.664-1.469 0-2.392-1.118-2.418-2.652v-.117h5.382c0-.091.013-.195.013-.273-.065-1.963-1.274-3.107-3.042-3.107-1.807 0-3.042 1.378-3.042 3.328 0 2.067 1.287 3.419 3.16 3.419zm-2.418-3.926c.104-1.339 1.105-2.236 2.314-2.236 1.287 0 2.21.793 2.314 2.236H13.22zM19.874 28h.663v-9.1h-.663V28zm5.094.078c1.495 0 2.548-.858 2.808-2.197h-.702c-.22.975-1.014 1.599-2.106 1.599-1.443 0-2.444-1.131-2.444-2.769 0-1.638.988-2.795 2.444-2.795 1.105 0 1.885.624 2.12 1.612h.688c-.273-1.365-1.3-2.197-2.795-2.197-1.859 0-3.133 1.378-3.133 3.38 0 2.028 1.261 3.367 3.12 3.367zm7.01 0c1.858 0 3.171-1.378 3.171-3.38 0-1.989-1.313-3.367-3.172-3.367-1.859 0-3.159 1.378-3.159 3.367 0 2.002 1.3 3.38 3.16 3.38zm0-.598c-1.47 0-2.484-1.144-2.484-2.782 0-1.625 1.014-2.782 2.483-2.782 1.47 0 2.483 1.157 2.483 2.782 0 1.638-1.014 2.782-2.483 2.782zm11.846-6.149c-1.209 0-1.988.676-2.365 1.651-.313-1.092-1.132-1.651-2.172-1.651-1.13 0-1.806.663-2.145 1.482l-.104-1.404h-.571V28h.663v-3.354c0-1.612.78-2.704 2.04-2.704 1.145 0 1.86.806 1.86 2.327V28h.663v-3.588c.038-1.508.819-2.47 2.053-2.47 1.145 0 1.834.767 1.834 2.262V28h.675v-3.822c0-1.989-1.053-2.847-2.43-2.847zm6.714 6.747c1.443 0 2.548-.936 2.834-2.262h-.676c-.26 1.027-1.131 1.664-2.21 1.664-1.47 0-2.392-1.118-2.418-2.652v-.117h5.382c0-.091.013-.195.013-.273-.065-1.963-1.274-3.107-3.042-3.107-1.807 0-3.042 1.378-3.042 3.328 0 2.067 1.287 3.419 3.159 3.419zm-2.418-3.926c.104-1.339 1.105-2.236 2.314-2.236 1.287 0 2.21.793 2.314 2.236H48.12zM58.433 28h.702v-3.796h2.613L63.893 28h.793l-2.21-3.926c1.34-.208 2.184-1.183 2.184-2.522 0-1.612-1.13-2.652-2.86-2.652h-3.367V28zm3.328-8.45c1.34 0 2.184.78 2.184 2.002 0 1.209-.858 2.002-2.197 2.002h-2.613V19.55h2.626zm6.791 8.528c1.443 0 2.548-.936 2.834-2.262h-.676c-.26 1.027-1.13 1.664-2.21 1.664-1.469 0-2.392-1.118-2.418-2.652v-.117h5.382c0-.091.013-.195.013-.273-.065-1.963-1.274-3.107-3.042-3.107-1.807 0-3.042 1.378-3.042 3.328 0 2.067 1.287 3.419 3.16 3.419zm-2.418-3.926c.104-1.339 1.105-2.236 2.314-2.236 1.287 0 2.21.793 2.314 2.236h-4.628zm9.839-2.821c-1.235 0-2.106.676-2.522 1.612V18.9h-.663V28h.572l.104-1.495c.39.949 1.274 1.573 2.509 1.573 1.807 0 3.107-1.378 3.107-3.38 0-2.067-1.3-3.367-3.107-3.367zm-.052 6.149c-1.47 0-2.483-1.144-2.483-2.795 0-1.612 1.014-2.769 2.483-2.769s2.483 1.157 2.483 2.782c0 1.638-1.014 2.782-2.483 2.782zm10.27-.091c-.39 0-.586-.13-.586-.637v-3.068c0-1.508-.923-2.353-2.574-2.353-1.508 0-2.509.728-2.678 1.924h.663c.17-.806.871-1.339 1.99-1.339 1.234 0 1.936.65 1.936 1.742v.572h-2.236c-1.69 0-2.6.728-2.6 1.963 0 1.17.923 1.885 2.327 1.885 1.34 0 2.132-.611 2.535-1.43v.234c-.026.78.3 1.118 1.08 1.118h.39v-.611h-.248zm-1.249-2.054c0 1.261-.897 2.171-2.457 2.171-1.053 0-1.703-.533-1.703-1.352 0-.871.65-1.352 1.872-1.352h2.288v.533zm2.876 1.131c0 1.053.429 1.534 1.547 1.534h.962v-.611h-.91c-.69 0-.936-.26-.936-.936V22.02h1.78v-.611h-1.78v-1.846h-.663v1.846H86.57v.611h1.248v4.446zm6.227 1.612c1.442 0 2.547-.936 2.834-2.262h-.677c-.26 1.027-1.13 1.664-2.21 1.664-1.469 0-2.392-1.118-2.418-2.652v-.117h5.383c0-.091.013-.195.013-.273-.066-1.963-1.275-3.107-3.043-3.107-1.806 0-3.042 1.378-3.042 3.328 0 2.067 1.287 3.419 3.16 3.419zm-2.419-3.926c.105-1.339 1.105-2.236 2.314-2.236 1.288 0 2.21.793 2.314 2.236h-4.628zm6.106 3.419a.47.47 0 00.494.494.47.47 0 00.494-.494c0-.299-.208-.481-.494-.481-.286 0-.494.182-.494.481zM1.625 46v-7.826L7.007 46h.663v-9.1h-.689v7.826L1.599 36.9H.936V46h.689zm10.674.078c1.86 0 3.172-1.378 3.172-3.38 0-1.989-1.313-3.367-3.172-3.367-1.859 0-3.159 1.378-3.159 3.367 0 2.002 1.3 3.38 3.16 3.38zm0-.598c-1.469 0-2.483-1.144-2.483-2.782 0-1.625 1.014-2.782 2.483-2.782 1.47 0 2.483 1.157 2.483 2.782 0 1.638-1.014 2.782-2.483 2.782zm7.24-5.46h1.248V46h.663v-5.98h1.976v-.611H21.45v-.988c0-.65.247-.91.91-.91h1.079V36.9h-1.105c-1.105 0-1.547.481-1.547 1.534v.975h-1.248v.611zm7.258 6.058c1.444 0 2.549-.936 2.834-2.262h-.675c-.26 1.027-1.131 1.664-2.21 1.664-1.47 0-2.392-1.118-2.418-2.652v-.117h5.381c0-.091.014-.195.014-.273-.066-1.963-1.274-3.107-3.043-3.107-1.806 0-3.041 1.378-3.041 3.328 0 2.067 1.287 3.419 3.159 3.419zm-2.418-3.926c.104-1.339 1.105-2.236 2.314-2.236 1.287 0 2.21.793 2.314 2.236H24.38zm9.566 3.926c1.443 0 2.548-.936 2.834-2.262h-.676c-.26 1.027-1.131 1.664-2.21 1.664-1.47 0-2.392-1.118-2.418-2.652v-.117h5.382c0-.091.013-.195.013-.273-.065-1.963-1.274-3.107-3.042-3.107-1.807 0-3.042 1.378-3.042 3.328 0 2.067 1.287 3.419 3.159 3.419zm-2.418-3.926c.104-1.339 1.105-2.236 2.314-2.236 1.287 0 2.21.793 2.314 2.236h-4.628zm6.342 1.82c.052 1.365 1.157 2.106 2.808 2.106 1.417 0 2.56-.715 2.56-1.885 0-1.391-1.221-1.664-2.638-1.859-1.027-.143-1.937-.26-1.937-1.183 0-.754.74-1.248 1.859-1.248 1.053 0 1.807.507 1.924 1.365h.676c-.117-1.287-1.17-1.937-2.6-1.937-1.47-.013-2.522.741-2.522 1.872 0 1.326 1.222 1.573 2.574 1.755 1.105.156 2.002.299 2.002 1.274 0 .78-.82 1.274-1.898 1.274-1.261 0-2.08-.585-2.132-1.534h-.676zm9.384-3.952H48.5V46h.663v-5.98h1.976v-.611h-1.976v-.988c0-.65.247-.91.91-.91h1.079V36.9h-1.105c-1.105 0-1.547.481-1.547 1.534v.975h-1.248v.611zm7.258 6.058c1.86 0 3.172-1.378 3.172-3.38 0-1.989-1.313-3.367-3.172-3.367-1.859 0-3.159 1.378-3.159 3.367 0 2.002 1.3 3.38 3.16 3.38zm0-.598c-1.469 0-2.483-1.144-2.483-2.782 0-1.625 1.014-2.782 2.483-2.782 1.47 0 2.483 1.157 2.483 2.782 0 1.638-1.014 2.782-2.483 2.782zm7.18-6.071c-1.221 0-1.741.585-2.014 1.313l-.104-1.313H59V46h.663v-3.341c0-1.339.35-2.613 1.898-2.613h.48v-.637h-.35zm6.242-1.352c0 .416-.195.702-.598.702h-1.56v.611h1.56c.273 0 .468-.078.585-.221V46h.676v-9.1h-.663v1.157zM69.831 46h6.07v-.624h-5.134l3.029-2.73c1.053-.949 1.989-1.82 1.989-3.198 0-1.599-1.105-2.626-2.951-2.626-1.768 0-2.912 1.144-2.912 2.86v.221h.676v-.182c0-1.417.87-2.288 2.236-2.288 1.378 0 2.262.767 2.262 2.054 0 1.144-.871 1.937-1.73 2.717l-3.535 3.211V46zm18.122-6.669c-1.209 0-1.989.676-2.366 1.651-.312-1.092-1.13-1.651-2.17-1.651-1.132 0-1.808.663-2.146 1.482l-.104-1.404h-.572V46h.663v-3.354c0-1.612.78-2.704 2.041-2.704 1.144 0 1.86.806 1.86 2.327V46h.662v-3.588c.04-1.508.82-2.47 2.054-2.47 1.144 0 1.833.767 1.833 2.262V46h.676v-3.822c0-1.989-1.053-2.847-2.43-2.847zm6.714 6.747c1.859 0 3.172-1.378 3.172-3.38 0-1.989-1.313-3.367-3.172-3.367-1.86 0-3.16 1.378-3.16 3.367 0 2.002 1.3 3.38 3.16 3.38zm0-.598c-1.47 0-2.483-1.144-2.483-2.782 0-1.625 1.014-2.782 2.483-2.782s2.483 1.157 2.483 2.782c0 1.638-1.014 2.782-2.483 2.782zm7.531-6.149c-1.209 0-1.989.624-2.366 1.482l-.104-1.404h-.572V46h.663v-3.25c0-1.716.871-2.808 2.275-2.808 1.274 0 2.041.832 2.041 2.392V46h.663v-3.692c0-2.08-1.105-2.977-2.6-2.977zm4.561 5.135c0 1.053.429 1.534 1.547 1.534h.962v-.611h-.91c-.689 0-.936-.26-.936-.936V40.02h1.781v-.611h-1.781v-1.846h-.663v1.846h-1.248v.611h1.248v4.446zm6.56-5.135c-1.235 0-2.002.689-2.379 1.638V36.9h-.663V46h.663v-3.25c0-1.716.871-2.808 2.275-2.808 1.261 0 2.041.832 2.041 2.392V46h.663v-3.692c0-2.08-1.105-2.977-2.6-2.977zm3.781 4.641c.052 1.365 1.157 2.106 2.808 2.106 1.417 0 2.561-.715 2.561-1.885 0-1.391-1.222-1.664-2.639-1.859-1.027-.143-1.937-.26-1.937-1.183 0-.754.741-1.248 1.859-1.248 1.053 0 1.807.507 1.924 1.365h.676c-.117-1.287-1.17-1.937-2.6-1.937-1.469-.013-2.522.741-2.522 1.872 0 1.326 1.222 1.573 2.574 1.755 1.105.156 2.002.299 2.002 1.274 0 .78-.819 1.274-1.898 1.274-1.261 0-2.08-.585-2.132-1.534h-.676zm6.442 1.599a.47.47 0 00.494.494.47.47 0 00.494-.494c0-.299-.208-.481-.494-.481-.286 0-.494.182-.494.481z" fill="#000"/></svg>