<svg width="51" height="18" viewBox="0 0 51 18" fill="none" xmlns="http://www.w3.org/2000/svg"><rect y=".676" width="51" height="17" rx="8.5" fill="#000"/><path d="M4.8 9.963c.037 1.032.785 1.758 2.065 1.758 1.1 0 1.863-.636 1.863-1.541 0-1.018-.876-1.302-1.729-1.444-.785-.135-1.421-.262-1.421-.89 0-.562.456-.861 1.137-.861.71 0 1.197.396 1.272 1.002h.673c-.06-.943-.778-1.594-1.945-1.594-1.063 0-1.788.599-1.788 1.49 0 1.017.868 1.294 1.713 1.436.793.135 1.437.27 1.437.92 0 .57-.502.891-1.205.891-.8 0-1.347-.464-1.4-1.167H4.8zm4.949.718c0 .674.262.995.995.995h.666v-.56h-.606c-.33 0-.442-.12-.442-.442V8.42h.988V7.86h-.988V6.79H9.75v1.07H9.06v.561h.689v2.26zm5.509.434c-.172 0-.247-.052-.247-.254V9.192c0-.89-.561-1.377-1.534-1.377-.92 0-1.527.442-1.616 1.19h.613c.075-.39.434-.644.973-.644.599 0 .95.3.95.794v.261h-1.122c-1.003 0-1.534.427-1.534 1.19 0 .696.569 1.115 1.407 1.115.658 0 1.04-.292 1.28-.636.007.374.179.591.688.591h.336v-.56h-.194zm-.86-.995c0 .636-.442 1.077-1.205 1.077-.51 0-.831-.254-.831-.628 0-.434.307-.636.853-.636h1.182v.187zm3.292-2.26c-.68 0-.973.284-1.152.576l-.083-.576h-.53v3.816h.613V9.731c0-.606.217-1.272 1.017-1.272h.307V7.86h-.172zm1.113 2.821c0 .674.262.995.995.995h.666v-.56h-.606c-.33 0-.442-.12-.442-.442V8.42h.988V7.86h-.988V6.79h-.613v1.07h-.689v.561h.689v2.26zm4.435 0c0 .674.262.995.995.995h.666v-.56h-.606c-.329 0-.441-.12-.441-.442V8.42h.988V7.86h-.988V6.79h-.614v1.07h-.688v.561h.688v2.26zm3.96-2.821c-.682 0-.974.284-1.153.576l-.083-.576h-.53v3.816h.613V9.731c0-.606.217-1.272 1.017-1.272h.307V7.86h-.172zm3.946 3.255c-.172 0-.247-.052-.247-.254V9.192c0-.89-.56-1.377-1.534-1.377-.92 0-1.526.442-1.616 1.19h.614c.075-.39.434-.644.973-.644.598 0 .95.3.95.794v.261H29.16c-1.002 0-1.534.427-1.534 1.19 0 .696.57 1.115 1.407 1.115.659 0 1.04-.292 1.28-.636.007.374.18.591.688.591h.337v-.56h-.195zm-.86-.995c0 .636-.442 1.077-1.205 1.077-.509 0-.83-.254-.83-.628 0-.434.306-.636.853-.636h1.182v.187zm4.49-1.676c-.231-.367-.665-.629-1.309-.629-1.055 0-1.833.786-1.833 1.953 0 1.242.778 1.953 1.833 1.953.644 0 1.055-.307 1.31-.658l.082.613h.532V6.438h-.614v2.006zm-1.249 2.73c-.755 0-1.264-.575-1.264-1.406 0-.83.508-1.407 1.264-1.407.749 0 1.257.584 1.257 1.422 0 .816-.508 1.392-1.257 1.392zm3.014-3.957a.385.385 0 00.396-.397.385.385 0 00-.396-.397.385.385 0 00-.397.397c0 .232.172.396.397.396zm-.315 4.46h.614V7.86h-.614v3.816zm3.325-3.862c-.643 0-1.032.27-1.257.561l-.082-.516h-.531v3.816h.613V9.768c0-.86.434-1.392 1.152-1.392.666 0 1.033.42 1.033 1.213v2.087h.614V9.551c0-1.264-.681-1.736-1.542-1.736zm5.332.704c-.24-.427-.666-.704-1.31-.704-1.054 0-1.833.786-1.833 1.953 0 1.242.779 1.953 1.834 1.953.643 0 1.055-.27 1.31-.703v.449c0 .83-.435 1.204-1.235 1.204-.636 0-1.063-.269-1.168-.748h-.628c.097.838.778 1.295 1.75 1.295 1.31 0 1.894-.629 1.894-1.729V7.86h-.531l-.083.659zm-1.25 2.656c-.755 0-1.264-.576-1.264-1.407 0-.83.509-1.407 1.265-1.407.748 0 1.257.584 1.257 1.422 0 .816-.51 1.392-1.257 1.392z" fill="#fff"/></svg>