<svg width="252" height="59" viewBox="0 0 252 59" fill="none" xmlns="http://www.w3.org/2000/svg"><path d="M.6 4.06h6.48V22h3.45V4.06h6.48V1H.6v3.06zm24.932 2.58c-2.52 0-3.75 1.02-4.53 2.31l-.36-2.31h-2.88V22h3.24v-7.71c0-2.37.93-4.62 3.81-4.62h1.44V6.64h-.72zm16.29 12.54c-.66 0-.99-.21-.99-.99v-6.15c0-3.63-2.34-5.58-6.42-5.58-3.87 0-6.45 1.86-6.78 4.86h3.18c.24-1.35 1.53-2.25 3.45-2.25 2.13 0 3.36 1.05 3.36 2.76v.93h-3.87c-4.29 0-6.57 1.77-6.57 4.92 0 2.85 2.34 4.5 5.7 4.5 2.49 0 4.05-1.08 5.07-2.64 0 1.53.72 2.46 2.82 2.46h1.71v-2.82h-.66zm-4.2-3.48c-.03 2.37-1.59 3.96-4.29 3.96-1.77 0-2.85-.9-2.85-2.19 0-1.56 1.11-2.31 3.12-2.31h4.02v.54zm18.177-6.93c-.99-1.35-2.64-2.31-4.98-2.31-4.17 0-7.26 3.12-7.26 7.86 0 4.92 3.09 7.86 7.26 7.86 2.43 0 4.02-1.14 5.01-2.49l.39 2.31h2.82V1H55.8v7.77zm-4.44 10.68c-2.7 0-4.47-2.1-4.47-5.13 0-3 1.77-5.1 4.47-5.1 2.7 0 4.47 2.1 4.47 5.16 0 2.97-1.77 5.07-4.47 5.07zm18.136 2.73c3.81 0 6.39-2.31 6.93-5.34h-3.24c-.45 1.71-1.89 2.7-3.87 2.7-2.55 0-4.2-1.71-4.29-4.32v-.21h11.58c.06-.42.09-.84.09-1.23-.09-4.5-3.06-7.32-7.5-7.32-4.53 0-7.56 3.15-7.56 7.89 0 4.71 3.03 7.83 7.86 7.83zm-4.35-9.54c.24-2.19 2.01-3.57 4.08-3.57 2.25 0 3.84 1.29 4.11 3.57h-8.19zM98 11.08c1.95-.45 3.63-2.22 3.63-4.68 0-3.27-2.82-5.58-7.32-5.58-4.47 0-7.29 2.31-7.29 5.58 0 2.55 1.68 4.23 3.6 4.71-2.25.51-4.17 2.25-4.17 5.16 0 3.48 2.91 5.91 7.86 5.91s7.89-2.43 7.89-5.91c0-2.97-1.95-4.71-4.2-5.19zM94.31 3.4c2.4 0 3.96 1.26 3.96 3.09 0 1.86-1.56 3.12-3.96 3.12-2.37 0-3.93-1.26-3.93-3.12 0-1.83 1.56-3.09 3.93-3.09zm0 16.23c-2.64 0-4.47-1.5-4.47-3.54s1.83-3.51 4.47-3.51c2.67 0 4.5 1.47 4.5 3.51s-1.83 3.54-4.5 3.54zm9.322-2.49h10.71V22h3.27v-4.86h3.18v-2.88h-3.18V1h-3.9l-10.08 13.32v2.82zm10.71-12.51v9.63h-7.29l7.29-9.63zm13.071 7.44h-4.77v2.73h4.77v5.07h2.97V14.8h4.8v-2.73h-4.8V7h-2.97v5.07zM146.295 22h3.45v-8.88h8.22v-2.97h-8.22V4.06h9.96V1h-13.41v21zm14.525 0h3.9l5.16-8.07 5.13 8.07h4.11l-6.99-10.89L178.7 1h-3.9L170 8.47 165.29 1h-4.08l6.57 10.26L160.82 22zm28.248 0h3.45v-7.62h4.83c4.38 0 7.26-2.64 7.26-6.69 0-4.08-2.88-6.69-7.26-6.69h-8.28v21zm8.01-18c2.46 0 4.02 1.41 4.02 3.69 0 2.25-1.59 3.69-4.05 3.69h-4.53V4h4.56zm22.986 15.18c-.66 0-.99-.21-.99-.99v-6.15c0-3.63-2.34-5.58-6.42-5.58-3.87 0-6.45 1.86-6.78 4.86h3.18c.24-1.35 1.53-2.25 3.45-2.25 2.13 0 3.36 1.05 3.36 2.76v.93h-3.87c-4.29 0-6.57 1.77-6.57 4.92 0 2.85 2.34 4.5 5.7 4.5 2.49 0 4.05-1.08 5.07-2.64 0 1.53.72 2.46 2.82 2.46h1.71v-2.82h-.66zm-4.2-3.48c-.03 2.37-1.59 3.96-4.29 3.96-1.77 0-2.85-.9-2.85-2.19 0-1.56 1.11-2.31 3.12-2.31h4.02v.54zm8.274-11.22c1.11 0 1.98-.81 1.98-1.95s-.87-1.95-1.98-1.95c-1.11 0-1.98.81-1.98 1.95s.87 1.95 1.98 1.95zM222.488 22h3.24V6.64h-3.24V22zm14.186-15.36c-2.52 0-3.75 1.02-4.53 2.31l-.36-2.31h-2.88V22h3.24v-7.71c0-2.37.93-4.62 3.81-4.62h1.44V6.64h-.72zm1.795 10.29c.09 3.33 2.91 5.25 7.02 5.25 3.72 0 6.51-1.86 6.51-4.8 0-3.42-2.85-4.14-6.36-4.56-2.22-.24-3.69-.42-3.69-1.86 0-1.23 1.26-2.01 3.18-2.01 1.92 0 3.24.99 3.42 2.4h3.18c-.21-3.15-2.88-4.89-6.66-4.89-3.69-.03-6.3 1.86-6.3 4.77 0 3.18 2.76 3.93 6.27 4.35 2.37.3 3.78.42 3.78 2.07 0 1.23-1.32 2.01-3.33 2.01-2.34 0-3.72-1.14-3.84-2.73h-3.18zM5.13 58h3.51L12 47.56 15.24 58h3.48l5.1-15.36h-3.3L16.89 54.4l-3.36-11.76h-2.97L7.05 54.4 3.54 42.64H.12L5.13 58zm22.046-17.52c1.11 0 1.98-.81 1.98-1.95s-.87-1.95-1.98-1.95c-1.11 0-1.98.81-1.98 1.95s.87 1.95 1.98 1.95zM25.526 58h3.24V42.64h-3.24V58zm7.526-4.17c0 2.79 1.26 4.17 4.2 4.17h3v-2.85h-2.28c-1.23 0-1.65-.45-1.65-1.65v-8.01h3.75v-2.85h-3.75v-4.29h-3.27v4.29h-2.67v2.85h2.67v8.34zm17.33-11.37c-2.4 0-3.87 1.08-4.83 2.4V37h-3.24v21h3.24v-7.77c0-3.09 1.56-4.98 4.11-4.98 2.4 0 3.69 1.56 3.69 4.47V58h3.24v-8.55c0-5.13-2.79-6.99-6.21-6.99zm16.3 15.72c4.68 0 7.83-3.15 7.83-7.86 0-4.68-3.15-7.86-7.83-7.86s-7.83 3.18-7.83 7.86c0 4.71 3.15 7.86 7.83 7.86zm0-2.76c-2.73 0-4.5-2.13-4.5-5.1 0-2.97 1.77-5.1 4.5-5.1s4.53 2.13 4.53 5.1c0 2.97-1.8 5.1-4.53 5.1zm20.965-5.1c0 3.18-1.5 5.04-3.96 5.04-2.37 0-3.57-1.53-3.57-4.53v-8.19h-3.24v8.55c0 5.25 2.79 6.99 6.06 6.99 2.37 0 3.78-.96 4.74-2.13l.36 1.95h2.85V42.64h-3.24v7.68zm7.631 3.51c0 2.79 1.26 4.17 4.2 4.17h3v-2.85h-2.28c-1.23 0-1.65-.45-1.65-1.65v-8.01h3.75v-2.85h-3.75v-4.29h-3.27v4.29h-2.67v2.85h2.67v8.34zm23.987 4.35c3.93 0 6.54-2.19 7.14-5.67h-3.42c-.39 1.77-1.71 2.91-3.69 2.91-2.61 0-4.32-2.07-4.32-5.07 0-3.03 1.71-5.13 4.32-5.13 2.01 0 3.3 1.11 3.72 2.91h3.39c-.63-3.48-3.09-5.67-7.05-5.67-4.65 0-7.71 3.15-7.71 7.89 0 4.8 2.97 7.83 7.62 7.83zm16.88 0c4.68 0 7.83-3.15 7.83-7.86 0-4.68-3.15-7.86-7.83-7.86s-7.83 3.18-7.83 7.86c0 4.71 3.15 7.86 7.83 7.86zm0-2.76c-2.73 0-4.5-2.13-4.5-5.1 0-2.97 1.77-5.1 4.5-5.1s4.53 2.13 4.53 5.1c0 2.97-1.8 5.1-4.53 5.1zm9.687-2.49c.09 3.33 2.91 5.25 7.02 5.25 3.72 0 6.51-1.86 6.51-4.8 0-3.42-2.85-4.14-6.36-4.56-2.22-.24-3.69-.42-3.69-1.86 0-1.23 1.26-2.01 3.18-2.01 1.92 0 3.24.99 3.42 2.4h3.18c-.21-3.15-2.88-4.89-6.66-4.89-3.69-.03-6.3 1.86-6.3 4.77 0 3.18 2.76 3.93 6.27 4.35 2.37.3 3.78.42 3.78 2.07 0 1.23-1.32 2.01-3.33 2.01-2.34 0-3.72-1.14-3.84-2.73h-3.18zm17.151.9c0 2.79 1.26 4.17 4.2 4.17h3v-2.85h-2.28c-1.23 0-1.65-.45-1.65-1.65v-8.01h3.75v-2.85h-3.75v-4.29h-3.27v4.29h-2.67v2.85h2.67v8.34zm8.601-.9c.09 3.33 2.91 5.25 7.02 5.25 3.72 0 6.51-1.86 6.51-4.8 0-3.42-2.85-4.14-6.36-4.56-2.22-.24-3.69-.42-3.69-1.86 0-1.23 1.26-2.01 3.18-2.01 1.92 0 3.24.99 3.42 2.4h3.18c-.21-3.15-2.88-4.89-6.66-4.89-3.69-.03-6.3 1.86-6.3 4.77 0 3.18 2.76 3.93 6.27 4.35 2.37.3 3.78.42 3.78 2.07 0 1.23-1.32 2.01-3.33 2.01-2.34 0-3.72-1.14-3.84-2.73h-3.18z" fill="#000"/></svg>