<svg width="234" height="24" viewBox="0 0 234 24" fill="none" xmlns="http://www.w3.org/2000/svg"><path d="M.24 8.56h2.724V16h1.044V8.56h2.724V7.6H.24v.96zm14.233 6.564c-.312 0-.528-.06-.768-.336l-.468-.528 1.86-2.796h-1.044l-1.416 2.124-1.68-1.872c1.536-.6 2.04-1.428 2.04-2.352 0-1.044-.84-1.836-1.98-1.836-1.344 0-2.364.864-2.364 2.016 0 .72.216 1.2.828 1.944-1.392.588-1.884 1.524-1.884 2.4 0 1.428 1.164 2.184 2.64 2.184.9 0 1.68-.36 2.364-1.068l.48.54c.312.36.756.456 1.272.456h.912v-.876h-.792zm-3.528-6.768c.636 0 1.056.432 1.056 1.032 0 .708-.492 1.296-1.572 1.728-.552-.648-.756-1.008-.756-1.608 0-.672.504-1.152 1.272-1.152zm-.684 6.84c-.972 0-1.656-.516-1.656-1.404 0-.756.36-1.212 1.38-1.704.036.024.06.06.084.084l1.956 2.184c-.516.552-1.092.84-1.764.84zm10.046.876c1.896 0 3.288-1.08 3.6-2.82h-1.104c-.312 1.176-1.212 1.86-2.508 1.86-1.764 0-2.844-1.38-2.844-3.312 0-1.944 1.128-3.312 2.892-3.312 1.26 0 2.148.696 2.472 1.86h1.104c-.312-1.74-1.668-2.82-3.528-2.82-2.436 0-4.008 1.728-4.008 4.272 0 2.568 1.512 4.272 3.924 4.272zm4.465-2.088c.024 1.344 1.116 2.088 2.7 2.088 1.356 0 2.448-.708 2.448-1.848 0-1.356-1.116-1.62-2.508-1.788-.888-.108-1.536-.192-1.536-.864 0-.564.576-.924 1.428-.924.84 0 1.416.468 1.488 1.092H29.8c-.096-1.272-1.104-1.92-2.496-1.932-1.38-.012-2.4.72-2.4 1.836 0 1.272 1.092 1.548 2.46 1.716.912.108 1.584.168 1.584.936 0 .564-.612.936-1.476.936-1.02 0-1.656-.528-1.692-1.248h-1.008zM34.692 16l.889-2.268h3.66L40.128 16h1.116l-3.192-8.4h-1.236L33.611 16h1.08zm2.712-7.26l1.524 4.044h-3.035l1.511-4.044zm7.73 1.068c-1.031 0-1.691.492-2.1 1.056l-.131-.984h-.852v8.52h.984v-3.336c.372.588 1.068 1.008 2.1 1.008 1.692 0 2.94-1.26 2.94-3.132 0-1.992-1.248-3.132-2.94-3.132zm-.095 5.388c-1.2 0-2.016-.936-2.016-2.28 0-1.308.816-2.232 2.016-2.232 1.212 0 2.028.924 2.028 2.256 0 1.332-.816 2.256-2.028 2.256zm7.244-5.388c-1.032 0-1.692.492-2.1 1.056l-.132-.984H49.2v8.52h.984v-3.336c.372.588 1.068 1.008 2.1 1.008 1.692 0 2.94-1.26 2.94-3.132 0-1.992-1.248-3.132-2.94-3.132zm-.096 5.388c-1.2 0-2.016-.936-2.016-2.28 0-1.308.816-2.232 2.016-2.232 1.212 0 2.028.924 2.028 2.256 0 1.332-.816 2.256-2.028 2.256zm4.16.804h.985V7.6h-.984V16zm4.109.036l-.3.744c-.228.576-.324.72-.888.72h-.876v.9h1.176c.864 0 1.092-.384 1.476-1.368l2.82-7.152H62.82l-1.824 4.884-1.884-4.884h-1.044l2.388 6.156zm3.448-.636c0 .408.288.672.684.672.396 0 .684-.264.684-.672 0-.408-.288-.672-.684-.672-.396 0-.684.264-.684.672zm10.749.6v-.96h-3.828V7.6H69.78V16h4.872zm3.405.072c1.788 0 3.036-1.272 3.036-3.132s-1.248-3.132-3.036-3.132-3.036 1.272-3.036 3.132 1.248 3.132 3.036 3.132zm0-.876c-1.212 0-2.028-.948-2.028-2.256 0-1.308.816-2.256 2.028-2.256 1.212 0 2.028.948 2.028 2.256 0 1.308-.816 2.256-2.028 2.256zm3.89-1.212c.023 1.344 1.115 2.088 2.7 2.088 1.355 0 2.447-.708 2.447-1.848 0-1.356-1.116-1.62-2.508-1.788-.888-.108-1.536-.192-1.536-.864 0-.564.576-.924 1.428-.924.84 0 1.416.468 1.488 1.092h1.008c-.096-1.272-1.104-1.92-2.496-1.932-1.38-.012-2.4.72-2.4 1.836 0 1.272 1.092 1.548 2.46 1.716.912.108 1.584.168 1.584.936 0 .564-.612.936-1.476.936-1.02 0-1.656-.528-1.692-1.248h-1.008zm5.87 0c.024 1.344 1.116 2.088 2.7 2.088 1.356 0 2.448-.708 2.448-1.848 0-1.356-1.116-1.62-2.508-1.788-.888-.108-1.536-.192-1.536-.864 0-.564.576-.924 1.428-.924.84 0 1.416.468 1.488 1.092h1.008c-.096-1.272-1.104-1.92-2.496-1.932-1.38-.012-2.4.72-2.4 1.836 0 1.272 1.092 1.548 2.46 1.716.912.108 1.584.168 1.584.936 0 .564-.612.936-1.476.936-1.02 0-1.656-.528-1.692-1.248h-1.008zm9.06 2.088c1.417 0 2.425-.9 2.665-2.124h-.996c-.204.792-.876 1.248-1.74 1.248-1.164 0-1.896-.816-1.932-1.98v-.084h4.752c.012-.144.024-.288.024-.42-.048-1.812-1.176-2.904-2.904-2.904s-2.904 1.272-2.904 3.132c0 1.872 1.2 3.132 3.036 3.132zm-1.943-3.756c.096-.996.924-1.644 1.824-1.644 1.02 0 1.74.588 1.836 1.644h-3.66zm5.563 1.668c.024 1.344 1.116 2.088 2.7 2.088 1.356 0 2.448-.708 2.448-1.848 0-1.356-1.116-1.62-2.508-1.788-.888-.108-1.536-.192-1.536-.864 0-.564.576-.924 1.428-.924.84 0 1.416.468 1.488 1.092h1.008c-.096-1.272-1.104-1.92-2.496-1.932-1.38-.012-2.4.72-2.4 1.836 0 1.272 1.092 1.548 2.46 1.716.912.108 1.584.168 1.584.936 0 .564-.612.936-1.476.936-1.02 0-1.656-.528-1.692-1.248h-1.008zm12.129 2.088c1.488 0 2.484-.84 2.724-2.16h-1.044c-.192.78-.792 1.284-1.668 1.284-1.176 0-1.968-.912-1.968-2.244 0-1.332.792-2.268 1.968-2.268.9 0 1.5.492 1.68 1.308h1.032c-.252-1.344-1.2-2.184-2.7-2.184-1.776 0-2.988 1.272-2.988 3.144 0 1.908 1.176 3.12 2.964 3.12zm9.215-.972c-.276 0-.396-.084-.396-.408v-2.676c0-1.428-.9-2.208-2.46-2.208-1.476 0-2.448.708-2.592 1.908h.984c.12-.624.696-1.032 1.56-1.032.96 0 1.524.48 1.524 1.272v.42h-1.8c-1.608 0-2.46.684-2.46 1.908 0 1.116.912 1.788 2.256 1.788 1.056 0 1.668-.468 2.052-1.02.012.6.288.948 1.104.948h.54v-.9h-.312zm-1.38-1.596c0 1.02-.708 1.728-1.932 1.728-.816 0-1.332-.408-1.332-1.008 0-.696.492-1.02 1.368-1.02h1.896v.3zm5.448-3.696c-1.032 0-1.656.432-2.016.9l-.132-.828h-.852V16h.984v-3.06c0-1.38.696-2.232 1.848-2.232 1.068 0 1.656.672 1.656 1.944V16h.984v-3.408c0-2.028-1.092-2.784-2.472-2.784zm9.687 6.264c1.416 0 2.424-.9 2.664-2.124h-.996c-.204.792-.876 1.248-1.74 1.248-1.164 0-1.896-.816-1.932-1.98v-.084h4.752c.012-.144.024-.288.024-.42-.048-1.812-1.176-2.904-2.904-2.904s-2.904 1.272-2.904 3.132c0 1.872 1.2 3.132 3.036 3.132zm-1.944-3.756c.096-.996.924-1.644 1.824-1.644 1.02 0 1.74.588 1.836 1.644h-3.66zM138.587 16h1.116l1.788-2.46 1.788 2.46h1.176l-2.34-3.144 2.184-2.976h-1.116l-1.644 2.268-1.62-2.268h-1.176l2.172 2.976L138.587 16zm9.056.072c1.488 0 2.484-.84 2.724-2.16h-1.044c-.192.78-.792 1.284-1.668 1.284-1.176 0-1.968-.912-1.968-2.244 0-1.332.792-2.268 1.968-2.268.9 0 1.5.492 1.68 1.308h1.032c-.252-1.344-1.2-2.184-2.7-2.184-1.776 0-2.988 1.272-2.988 3.144 0 1.908 1.176 3.12 2.964 3.12zm6.622 0c1.416 0 2.424-.9 2.664-2.124h-.996c-.204.792-.876 1.248-1.74 1.248-1.164 0-1.896-.816-1.932-1.98v-.084h4.752c.012-.144.024-.288.024-.42-.048-1.812-1.176-2.904-2.904-2.904s-2.904 1.272-2.904 3.132c0 1.872 1.2 3.132 3.036 3.132zm-1.944-3.756c.096-.996.924-1.644 1.824-1.644 1.02 0 1.74.588 1.836 1.644h-3.66zm8.659 3.756c1.416 0 2.424-.9 2.664-2.124h-.996c-.204.792-.876 1.248-1.74 1.248-1.164 0-1.896-.816-1.932-1.98v-.084h4.752c.012-.144.024-.288.024-.42-.048-1.812-1.176-2.904-2.904-2.904s-2.904 1.272-2.904 3.132c0 1.872 1.2 3.132 3.036 3.132zm-1.944-3.756c.096-.996.924-1.644 1.824-1.644 1.02 0 1.74.588 1.836 1.644h-3.66zm10.663-1.5c-.372-.588-1.068-1.008-2.1-1.008-1.692 0-2.94 1.26-2.94 3.132 0 1.992 1.248 3.132 2.94 3.132 1.032 0 1.692-.492 2.1-1.056l.132.984h.852V7.6h-.984v3.216zm-2.004 4.38c-1.212 0-2.028-.924-2.028-2.256 0-1.332.816-2.256 2.028-2.256 1.2 0 2.016.936 2.016 2.28 0 1.308-.816 2.232-2.016 2.232zm12.293-4.38c-.372-.588-1.068-1.008-2.1-1.008-1.692 0-2.94 1.26-2.94 3.132 0 1.992 1.248 3.132 2.94 3.132 1.032 0 1.692-.492 2.1-1.056l.132.984h.852V7.6h-.984v3.216zm-2.004 4.38c-1.212 0-2.028-.924-2.028-2.256 0-1.332.816-2.256 2.028-2.256 1.2 0 2.016.936 2.016 2.28 0 1.308-.816 2.232-2.016 2.232zm7.149.876c1.416 0 2.424-.9 2.664-2.124h-.996c-.204.792-.876 1.248-1.74 1.248-1.164 0-1.896-.816-1.932-1.98v-.084h4.752c.012-.144.024-.288.024-.42-.048-1.812-1.176-2.904-2.904-2.904s-2.904 1.272-2.904 3.132c0 1.872 1.2 3.132 3.036 3.132zm-1.944-3.756c.096-.996.924-1.644 1.824-1.644 1.02 0 1.74.588 1.836 1.644h-3.66zm8.922-2.508c-1.032 0-1.692.492-2.1 1.056l-.132-.984h-.852v8.52h.984v-3.336c.372.588 1.068 1.008 2.1 1.008 1.692 0 2.94-1.26 2.94-3.132 0-1.992-1.248-3.132-2.94-3.132zm-.096 5.388c-1.2 0-2.016-.936-2.016-2.28 0-1.308.816-2.232 2.016-2.232 1.212 0 2.028.924 2.028 2.256 0 1.332-.816 2.256-2.028 2.256zm6.981.876c1.788 0 3.036-1.272 3.036-3.132s-1.248-3.132-3.036-3.132-3.036 1.272-3.036 3.132 1.248 3.132 3.036 3.132zm0-.876c-1.212 0-2.028-.948-2.028-2.256 0-1.308.816-2.256 2.028-2.256 1.212 0 2.028.948 2.028 2.256 0 1.308-.816 2.256-2.028 2.256zm3.889-1.212c.024 1.344 1.116 2.088 2.7 2.088 1.356 0 2.448-.708 2.448-1.848 0-1.356-1.116-1.62-2.508-1.788-.888-.108-1.536-.192-1.536-.864 0-.564.576-.924 1.428-.924.84 0 1.416.468 1.488 1.092h1.008c-.096-1.272-1.104-1.92-2.496-1.932-1.38-.012-2.4.72-2.4 1.836 0 1.272 1.092 1.548 2.46 1.716.912.108 1.584.168 1.584.936 0 .564-.612.936-1.476.936-1.02 0-1.656-.528-1.692-1.248h-1.008zm6.744-5.136c.36 0 .636-.264.636-.636a.618.618 0 00-.636-.636.618.618 0 00-.636.636c0 .372.276.636.636.636zM209.125 16h.984V9.88h-.984V16zm2.788-1.596c0 1.08.42 1.596 1.596 1.596h1.068v-.9h-.972c-.528 0-.708-.192-.708-.708V10.78h1.584v-.9h-1.584V8.164h-.984V9.88h-1.104v.9h1.104v3.624zm3.265-.42c.024 1.344 1.116 2.088 2.7 2.088 1.356 0 2.448-.708 2.448-1.848 0-1.356-1.116-1.62-2.508-1.788-.888-.108-1.536-.192-1.536-.864 0-.564.576-.924 1.428-.924.84 0 1.416.468 1.488 1.092h1.008c-.096-1.272-1.104-1.92-2.496-1.932-1.38-.012-2.4.72-2.4 1.836 0 1.272 1.092 1.548 2.46 1.716.912.108 1.584.168 1.584.936 0 .564-.612.936-1.476.936-1.02 0-1.656-.528-1.692-1.248h-1.008zm6.026 1.416c0 .408.288.672.684.672.396 0 .684-.264.684-.672 0-.408-.288-.672-.684-.672-.396 0-.684.264-.684.672z" fill="#000"/></svg>