<svg width="45" height="7" viewBox="0 0 45 7" fill="none" xmlns="http://www.w3.org/2000/svg"><path d="M.188 1.631h1.835V6.71h.976V1.63h1.835V.765H.188v.866zm5.545-.136a.3.3 0 00.306-.306.3.3 0 00-.306-.305.3.3 0 00-.306.305.3.3 0 00.306.306zm-.22 5.215h.433V2.404h-.434V6.71zm6.258-4.357c-.79 0-1.3.441-1.546 1.078-.204-.713-.739-1.078-1.418-1.078-.74 0-1.18.433-1.402.968l-.068-.917h-.373V6.71h.433V4.518c0-1.053.51-1.766 1.333-1.766.748 0 1.215.527 1.215 1.52V6.71h.433V4.366c.025-.986.535-1.614 1.342-1.614.747 0 1.197.501 1.197 1.478v2.48h.442V4.213c0-1.3-.688-1.86-1.588-1.86zm4.385 4.408c.943 0 1.665-.612 1.852-1.478h-.442c-.17.67-.739 1.087-1.444 1.087-.96 0-1.562-.73-1.58-1.733v-.076h3.517c0-.06.008-.127.008-.178-.042-1.283-.832-2.03-1.987-2.03-1.18 0-1.987.9-1.987 2.174 0 1.35.84 2.234 2.063 2.234zm-1.58-2.565c.069-.875.723-1.461 1.512-1.461.841 0 1.444.518 1.512 1.46h-3.023zm3.788-1.393h.816V6.71h.433V2.803h1.29v-.4h-1.29v-.645c0-.424.161-.594.594-.594h.705v-.4h-.722c-.722 0-1.01.315-1.01 1.003v.637h-.816v.399zm4.822-.4c-.799 0-1.138.383-1.317.859l-.067-.858h-.374V6.71h.433V4.527c0-.875.23-1.707 1.24-1.707h.314v-.416h-.23zm4.476 3.907c-.255 0-.382-.085-.382-.416V3.89c0-.985-.603-1.537-1.682-1.537-.985 0-1.639.475-1.749 1.257h.433c.11-.527.57-.875 1.3-.875.806 0 1.265.425 1.265 1.138v.374h-1.46c-1.105 0-1.7.475-1.7 1.282 0 .764.604 1.232 1.52 1.232.875 0 1.394-.4 1.657-.935v.153c-.017.51.195.73.705.73h.255V6.31h-.162zm-.815-1.341c0 .823-.586 1.418-1.605 1.418-.688 0-1.113-.348-1.113-.883 0-.57.425-.884 1.223-.884h1.495v.349zm6.363-2.616c-.79 0-1.3.441-1.546 1.078-.204-.713-.739-1.078-1.418-1.078-.74 0-1.18.433-1.402.968l-.068-.917h-.373V6.71h.433V4.518c0-1.053.51-1.766 1.333-1.766.748 0 1.215.527 1.215 1.52V6.71h.433V4.366c.025-.986.535-1.614 1.342-1.614.747 0 1.197.501 1.197 1.478v2.48h.442V4.213c0-1.3-.688-1.86-1.588-1.86zm4.385 4.408c.943 0 1.665-.612 1.852-1.478h-.442c-.17.67-.739 1.087-1.444 1.087-.96 0-1.563-.73-1.58-1.733v-.076h3.517c0-.06.008-.127.008-.178-.042-1.283-.832-2.03-1.987-2.03-1.18 0-1.987.9-1.987 2.174 0 1.35.84 2.234 2.063 2.234zm-1.58-2.565c.069-.875.722-1.461 1.512-1.461.841 0 1.444.518 1.512 1.46h-3.023zm7.863-.824c-.263-.612-.84-1.02-1.648-1.02-1.18 0-2.03.901-2.03 2.2 0 1.36.85 2.209 2.03 2.209.807 0 1.368-.434 1.64-1.037l.068.986h.373V.765h-.433v2.607zM42.264 6.37c-.96 0-1.622-.747-1.622-1.818 0-1.061.663-1.817 1.622-1.817.96 0 1.623.756 1.623 1.826 0 1.062-.663 1.809-1.623 1.809z" fill="#fff"/></svg>