<svg width="100" height="60" viewBox="0 0 100 60" fill="none" xmlns="http://www.w3.org/2000/svg"><path d="M3.937 22l2.015-5.363h8.897L16.895 22h3.813L12.617.3H8.37L.248 22h3.689zm6.448-17.856l3.472 9.455H6.944l3.441-9.455zM22.592 22h3.348V.3h-3.348V22zm24.89-16.058c-2.605 0-4.403 1.147-5.426 2.883-.96-2.046-2.82-2.883-4.898-2.883-2.387.031-3.75 1.085-4.65 2.263l-.372-2.077h-2.914V22h3.348v-8.494c0-2.821 1.426-4.681 3.72-4.681 2.201 0 3.348 1.457 3.348 4.247V22h3.38v-8.587c0-2.852 1.456-4.588 3.75-4.588 2.17 0 3.317 1.457 3.317 4.247V22h3.348v-9.145c0-5.022-2.666-6.913-5.952-6.913zm16.367 16.244c4.836 0 8.091-3.255 8.091-8.122 0-4.836-3.255-8.122-8.09-8.122-4.837 0-8.092 3.286-8.092 8.122 0 4.867 3.255 8.122 8.091 8.122zm0-2.852c-2.82 0-4.65-2.201-4.65-5.27 0-3.069 1.83-5.27 4.65-5.27 2.821 0 4.681 2.201 4.681 5.27 0 3.069-1.86 5.27-4.68 5.27zm10.01-2.573c.093 3.441 3.007 5.425 7.254 5.425 3.844 0 6.727-1.922 6.727-4.96 0-3.534-2.945-4.278-6.572-4.712-2.294-.248-3.813-.434-3.813-1.922 0-1.271 1.302-2.077 3.286-2.077s3.348 1.023 3.534 2.48h3.286c-.217-3.255-2.976-5.053-6.882-5.053-3.813-.031-6.51 1.922-6.51 4.929 0 3.286 2.852 4.061 6.48 4.495 2.448.31 3.905.434 3.905 2.139 0 1.271-1.364 2.077-3.44 2.077-2.419 0-3.845-1.178-3.969-2.821H73.86zm17.723.93c0 2.883 1.302 4.309 4.34 4.309h3.1v-2.945h-2.356c-1.271 0-1.705-.465-1.705-1.705V9.073h3.875V6.128h-3.875V1.695h-3.379v4.433h-2.759v2.945h2.759v8.618zm-88.792 37C2.79 57.574 4.092 59 7.13 59h3.1v-2.945H7.874c-1.271 0-1.705-.465-1.705-1.705v-8.277h3.875v-2.945H6.169v-4.433H2.79v4.433H.031v2.945H2.79v8.618zm17.909-11.749c-2.48 0-4 1.116-4.991 2.48V37.3H12.36V59h3.348v-8.029c0-3.193 1.612-5.146 4.247-5.146 2.48 0 3.813 1.612 3.813 4.619V59h3.348v-8.835c0-5.301-2.883-7.223-6.417-7.223zm16.873 16.244c3.938 0 6.603-2.387 7.161-5.518h-3.347c-.466 1.767-1.954 2.79-4 2.79-2.635 0-4.34-1.767-4.433-4.464v-.217H44.92c.063-.434.094-.868.094-1.271-.093-4.65-3.163-7.564-7.75-7.564-4.681 0-7.812 3.255-7.812 8.153 0 4.867 3.13 8.091 8.121 8.091zm-4.495-9.858c.248-2.263 2.078-3.689 4.217-3.689 2.325 0 3.968 1.333 4.247 3.689h-8.463zm22.671-6.2c-2.604 0-3.875 1.054-4.68 2.387l-.373-2.387H47.72V59h3.348v-7.967c0-2.449.961-4.774 3.937-4.774h1.488v-3.131h-.744zm9.585 16.058c3.937 0 6.603-2.387 7.161-5.518h-3.348c-.465 1.767-1.953 2.79-3.999 2.79-2.635 0-4.34-1.767-4.433-4.464v-.217H72.68c.062-.434.093-.868.093-1.271-.093-4.65-3.162-7.564-7.75-7.564-4.68 0-7.812 3.255-7.812 8.153 0 4.867 3.131 8.091 8.122 8.091zm-4.495-9.858c.248-2.263 2.077-3.689 4.216-3.689 2.325 0 3.968 1.333 4.247 3.689h-8.463z" fill="#000"/></svg>