<svg width="133" height="85" viewBox="0 0 133 85" fill="none" xmlns="http://www.w3.org/2000/svg"><path d="M4.794 7.614V12h.918V7.614L10.268.1H9.231L5.253 6.611 1.309.1H.238l4.556 7.514zm9.115 4.488c2.431 0 4.148-1.802 4.148-4.42 0-2.601-1.717-4.403-4.148-4.403-2.43 0-4.131 1.802-4.131 4.403 0 2.618 1.7 4.42 4.131 4.42zm0-.782c-1.92 0-3.247-1.496-3.247-3.638 0-2.125 1.326-3.638 3.247-3.638 1.921 0 3.247 1.513 3.247 3.638 0 2.142-1.326 3.638-3.247 3.638zm12.127-3.706c0 2.261-1.122 3.689-2.907 3.689-1.598 0-2.584-1.088-2.584-3.145V3.381h-.867v4.828c0 2.703 1.41 3.893 3.315 3.893 1.53 0 2.533-.816 3.026-1.921L26.138 12h.765V3.381h-.867v4.233zM29.3.015c-.46 0-.748.272-.748.663 0 .408.272.612.595.612.17 0 .34-.068.425-.204.119.119.153.272.153.442 0 .646-.408 1.309-1.275 1.343v.51c1.173-.051 1.904-.833 1.904-1.955 0-.782-.442-1.411-1.054-1.411zm6.283 3.366c-1.598 0-2.278.765-2.635 1.717l-.136-1.717h-.748V12h.867V7.631c0-1.751.459-3.417 2.482-3.417h.629v-.833h-.46zm4.937 8.721c1.887 0 3.332-1.224 3.706-2.958h-.884c-.34 1.343-1.479 2.176-2.89 2.176-1.92 0-3.128-1.462-3.162-3.468v-.153h7.038c0-.119.017-.255.017-.357-.085-2.567-1.666-4.063-3.978-4.063-2.363 0-3.978 1.802-3.978 4.352 0 2.703 1.683 4.471 4.131 4.471zM37.36 6.968c.136-1.751 1.445-2.924 3.026-2.924 1.683 0 2.89 1.037 3.026 2.924H37.36zm22.905-3.689c-1.58 0-2.6.884-3.094 2.159-.408-1.428-1.479-2.159-2.839-2.159-1.479 0-2.363.867-2.805 1.938l-.136-1.836h-.748V12h.867V7.614c0-2.108 1.02-3.536 2.67-3.536 1.495 0 2.43 1.054 2.43 3.043V12h.867V7.308c.051-1.972 1.071-3.23 2.686-3.23 1.496 0 2.397 1.003 2.397 2.958V12h.884V7.002c0-2.601-1.377-3.723-3.179-3.723zm5.546-1.717c.34 0 .612-.255.612-.612a.599.599 0 00-.612-.612.599.599 0 00-.612.612c0 .357.272.612.612.612zM65.368 12h.867V3.381h-.867V12zm6.883-8.721c-1.581 0-2.601.816-3.094 1.938l-.136-1.836h-.748V12h.867V7.75c0-2.244 1.139-3.672 2.975-3.672 1.666 0 2.669 1.088 2.669 3.128V12h.867V7.172c0-2.72-1.445-3.893-3.4-3.893zm11.575 4.335c0 2.261-1.122 3.689-2.907 3.689-1.598 0-2.584-1.088-2.584-3.145V3.381h-.867v4.828c0 2.703 1.41 3.893 3.315 3.893 1.53 0 2.533-.816 3.026-1.921L83.928 12h.765V3.381h-.867v4.233zm3.57 2.38c0 1.377.561 2.006 2.023 2.006h1.258v-.799h-1.19c-.9 0-1.224-.34-1.224-1.224V4.18h2.33v-.799h-2.33V.967h-.867v2.414h-1.632v.799h1.633v5.814zm8.143 2.108c1.887 0 3.332-1.224 3.706-2.958h-.884c-.34 1.343-1.48 2.176-2.89 2.176-1.921 0-3.128-1.462-3.162-3.468v-.153h7.038c0-.119.017-.255.017-.357-.085-2.567-1.666-4.063-3.978-4.063-2.363 0-3.978 1.802-3.978 4.352 0 2.703 1.683 4.471 4.13 4.471zm-3.162-5.134c.136-1.751 1.445-2.924 3.026-2.924 1.683 0 2.89 1.037 3.026 2.924h-6.052zm8.293 2.38c.068 1.785 1.513 2.754 3.672 2.754 1.853 0 3.349-.935 3.349-2.465 0-1.819-1.598-2.176-3.451-2.431-1.343-.187-2.533-.34-2.533-1.547 0-.986.969-1.632 2.431-1.632 1.377 0 2.363.663 2.516 1.785h.884c-.153-1.683-1.53-2.533-3.4-2.533-1.921-.017-3.298.969-3.298 2.448 0 1.734 1.598 2.057 3.366 2.295 1.445.204 2.618.391 2.618 1.666 0 1.02-1.071 1.666-2.482 1.666-1.649 0-2.72-.765-2.788-2.006h-.884zM8.602 35.201c-.51 0-.765-.17-.765-.833v-4.012c0-1.972-1.207-3.077-3.366-3.077-1.972 0-3.281.952-3.502 2.516h.867c.221-1.054 1.139-1.751 2.601-1.751 1.615 0 2.533.85 2.533 2.278v.748H4.046c-2.21 0-3.4.952-3.4 2.567 0 1.53 1.207 2.465 3.043 2.465 1.751 0 2.788-.799 3.315-1.87v.306C6.97 35.558 7.395 36 8.415 36h.51v-.799h-.323zM6.97 32.515c0 1.649-1.173 2.839-3.213 2.839-1.377 0-2.227-.697-2.227-1.768 0-1.139.85-1.768 2.448-1.768H6.97v.697zM11.976 36h.935l2.55-7.242L17.892 36h.935l3.06-8.619h-.884l-2.652 7.582-2.465-7.582h-.799l-2.6 7.582-2.517-7.582h-.918L11.976 36zm18.424-.799c-.51 0-.765-.17-.765-.833v-4.012c0-1.972-1.207-3.077-3.366-3.077-1.972 0-3.281.952-3.502 2.516h.867c.22-1.054 1.139-1.751 2.6-1.751 1.616 0 2.534.85 2.534 2.278v.748h-2.924c-2.21 0-3.4.952-3.4 2.567 0 1.53 1.207 2.465 3.043 2.465 1.75 0 2.788-.799 3.315-1.87v.306c-.034 1.02.39 1.462 1.41 1.462h.51v-.799H30.4zm-1.632-2.686c0 1.649-1.173 2.839-3.213 2.839-1.377 0-2.227-.697-2.227-1.768 0-1.139.85-1.768 2.448-1.768h2.992v.697zM34.184 36l-.56 1.394c-.392.952-.545 1.207-1.429 1.207h-1.088v.799h1.326c1.156 0 1.428-.442 1.972-1.802l4.131-10.217h-.935l-2.94 7.497-2.993-7.497h-.935L34.184 36zm9.114-7.82h1.632V36h.867v-7.82h2.584v-.799h-2.584v-1.292c0-.85.323-1.19 1.19-1.19h1.41V24.1h-1.444c-1.445 0-2.023.629-2.023 2.006v1.275h-1.632v.799zm9.651-.799c-1.598 0-2.278.765-2.635 1.717l-.136-1.717h-.748V36h.867v-4.369c0-1.751.46-3.417 2.482-3.417h.63v-.833h-.46zm4.938 8.721c2.43 0 4.148-1.802 4.148-4.42 0-2.601-1.717-4.403-4.148-4.403-2.431 0-4.131 1.802-4.131 4.403 0 2.618 1.7 4.42 4.13 4.42zm0-.782c-1.921 0-3.247-1.496-3.247-3.638 0-2.125 1.326-3.638 3.247-3.638 1.92 0 3.247 1.513 3.247 3.638 0 2.142-1.326 3.638-3.247 3.638zm15.492-8.041c-1.58 0-2.6.884-3.094 2.159-.408-1.428-1.479-2.159-2.839-2.159-1.479 0-2.363.867-2.805 1.938l-.136-1.836h-.748V36h.867v-4.386c0-2.108 1.02-3.536 2.67-3.536 1.495 0 2.43 1.054 2.43 3.043V36h.867v-4.692c.051-1.972 1.071-3.23 2.686-3.23 1.496 0 2.397 1.003 2.397 2.958V36h.884v-4.998c0-2.601-1.377-3.723-3.179-3.723zm10.332 6.715c0 1.377.56 2.006 2.023 2.006h1.258v-.799h-1.19c-.901 0-1.224-.34-1.224-1.224V28.18h2.329v-.799h-2.33v-2.414h-.866v2.414h-1.632v.799h1.632v5.814zm8.119-6.613c-1.598 0-2.278.765-2.635 1.717l-.136-1.717h-.748V36h.867v-4.369c0-1.751.459-3.417 2.482-3.417h.629v-.833h-.459zm8.96 7.82c-.51 0-.765-.17-.765-.833v-4.012c0-1.972-1.207-3.077-3.366-3.077-1.972 0-3.28.952-3.502 2.516h.868c.22-1.054 1.138-1.751 2.6-1.751 1.615 0 2.534.85 2.534 2.278v.748h-2.925c-2.21 0-3.4.952-3.4 2.567 0 1.53 1.207 2.465 3.043 2.465 1.752 0 2.788-.799 3.316-1.87v.306c-.034 1.02.39 1.462 1.41 1.462h.51v-.799h-.323zm-1.632-2.686c0 1.649-1.172 2.839-3.213 2.839-1.376 0-2.226-.697-2.226-1.768 0-1.139.85-1.768 2.448-1.768h2.992v.697zm10.02-3.196c-.527-1.224-1.683-2.04-3.298-2.04-2.363 0-4.063 1.802-4.063 4.403 0 2.72 1.7 4.42 4.063 4.42 1.615 0 2.737-.867 3.281-2.074l.136 1.972h.748V24.1h-.867v5.219zm-3.23 6.001c-1.921 0-3.247-1.496-3.247-3.638 0-2.125 1.326-3.638 3.247-3.638 1.921 0 3.247 1.513 3.247 3.655 0 2.125-1.326 3.621-3.247 3.621zm6.578-9.758c.34 0 .612-.255.612-.612a.599.599 0 00-.612-.612.599.599 0 00-.612.612c0 .357.272.612.612.612zM112.084 36h.867v-8.619h-.867V36zm6.884-8.721c-1.581 0-2.601.816-3.094 1.938l-.136-1.836h-.748V36h.867v-4.25c0-2.244 1.139-3.672 2.975-3.672 1.666 0 2.669 1.088 2.669 3.128V36h.867v-4.828c0-2.72-1.445-3.893-3.4-3.893zm12.34 2.108c-.527-1.275-1.683-2.108-3.281-2.108-2.363 0-4.063 1.785-4.063 4.403 0 2.72 1.7 4.42 4.063 4.42 1.615 0 2.754-.85 3.298-2.193v1.53c0 2.295-1.088 3.281-3.162 3.281-1.615 0-2.737-.731-3.009-2.04h-.901c.272 1.836 1.751 2.822 3.842 2.822 2.788 0 4.097-1.326 4.097-4.029v-8.092h-.748l-.136 2.006zm-3.213 5.933c-1.921 0-3.247-1.496-3.247-3.638s1.326-3.638 3.247-3.638c1.921 0 3.247 1.496 3.247 3.655 0 2.125-1.326 3.621-3.247 3.621zM1.666 57.994c0 1.377.561 2.006 2.023 2.006h1.258v-.799h-1.19c-.901 0-1.224-.34-1.224-1.224V52.18h2.329v-.799H2.533v-2.414h-.867v2.414H.034v.799h1.632v5.814zm8.578-6.715c-1.615 0-2.618.901-3.11 2.142V48.1h-.868V60h.867v-4.25c0-2.244 1.14-3.672 2.975-3.672 1.65 0 2.67 1.088 2.67 3.128V60h.866v-4.828c0-2.72-1.445-3.893-3.4-3.893zm9.01 8.823c2.432 0 4.149-1.802 4.149-4.42 0-2.601-1.717-4.403-4.148-4.403-2.431 0-4.131 1.802-4.131 4.403 0 2.618 1.7 4.42 4.13 4.42zm0-.782c-1.92 0-3.246-1.496-3.246-3.638 0-2.125 1.326-3.638 3.247-3.638 1.92 0 3.247 1.513 3.247 3.638 0 2.142-1.326 3.638-3.247 3.638zm12.127-3.706c0 2.261-1.122 3.689-2.907 3.689-1.598 0-2.584-1.088-2.584-3.145v-4.777h-.867v4.828c0 2.703 1.412 3.893 3.316 3.893 1.53 0 2.533-.816 3.026-1.921L31.483 60h.764v-8.619h-.866v4.233zm2.517 1.734c.069 1.785 1.513 2.754 3.672 2.754 1.853 0 3.35-.935 3.35-2.465 0-1.819-1.599-2.176-3.452-2.431-1.343-.187-2.533-.34-2.533-1.547 0-.986.97-1.632 2.431-1.632 1.377 0 2.364.663 2.517 1.785h.883c-.152-1.683-1.53-2.533-3.4-2.533-1.92-.017-3.297.969-3.297 2.448 0 1.734 1.597 2.057 3.365 2.295 1.446.204 2.619.391 2.619 1.666 0 1.02-1.072 1.666-2.482 1.666-1.65 0-2.72-.765-2.788-2.006h-.885zm16.258 1.853c-.51 0-.765-.17-.765-.833v-4.012c0-1.972-1.207-3.077-3.366-3.077-1.972 0-3.281.952-3.502 2.516h.867c.22-1.054 1.139-1.751 2.6-1.751 1.616 0 2.534.85 2.534 2.278v.748H45.6c-2.21 0-3.4.952-3.4 2.567 0 1.53 1.207 2.465 3.043 2.465 1.75 0 2.788-.799 3.315-1.87v.306c-.034 1.02.39 1.462 1.41 1.462h.51v-.799h-.322zm-1.632-2.686c0 1.649-1.173 2.839-3.213 2.839-1.377 0-2.227-.697-2.227-1.768 0-1.139.85-1.768 2.448-1.768h2.992v.697zm7.092-5.236c-1.58 0-2.6.816-3.094 1.938l-.136-1.836h-.748V60h.867v-4.25c0-2.244 1.14-3.672 2.975-3.672 1.666 0 2.67 1.088 2.67 3.128V60h.866v-4.828c0-2.72-1.445-3.893-3.4-3.893zm12.224 2.04c-.527-1.224-1.683-2.04-3.298-2.04-2.363 0-4.063 1.802-4.063 4.403 0 2.72 1.7 4.42 4.063 4.42 1.615 0 2.737-.867 3.281-2.074L67.96 60h.748V48.1h-.867v5.219zm-3.23 6.001c-1.92 0-3.247-1.496-3.247-3.638 0-2.125 1.326-3.638 3.247-3.638 1.921 0 3.247 1.513 3.247 3.655 0 2.125-1.326 3.621-3.247 3.621zm5.746-1.972c.068 1.785 1.513 2.754 3.672 2.754 1.853 0 3.349-.935 3.349-2.465 0-1.819-1.598-2.176-3.451-2.431-1.343-.187-2.533-.34-2.533-1.547 0-.986.969-1.632 2.43-1.632 1.378 0 2.364.663 2.517 1.785h.884c-.153-1.683-1.53-2.533-3.4-2.533-1.921-.017-3.298.969-3.298 2.448 0 1.734 1.598 2.057 3.366 2.295 1.445.204 2.618.391 2.618 1.666 0 1.02-1.071 1.666-2.482 1.666-1.65 0-2.72-.765-2.788-2.006h-.884zm17.065 2.754c2.43 0 4.148-1.802 4.148-4.42 0-2.601-1.717-4.403-4.148-4.403-2.431 0-4.131 1.802-4.131 4.403 0 2.618 1.7 4.42 4.13 4.42zm0-.782c-1.921 0-3.247-1.496-3.247-3.638 0-2.125 1.326-3.638 3.247-3.638 1.92 0 3.247 1.513 3.247 3.638 0 2.142-1.326 3.638-3.247 3.638zm4.752-7.14h1.632V60h.867v-7.82h2.584v-.799h-2.584v-1.292c0-.85.323-1.19 1.19-1.19h1.41V48.1h-1.444c-1.445 0-2.023.629-2.023 2.006v1.275h-1.632v.799zM10.642 75.279c-1.581 0-2.601.884-3.094 2.159-.408-1.428-1.479-2.159-2.839-2.159-1.479 0-2.363.867-2.805 1.938l-.136-1.836H1.02V84h.867v-4.386c0-2.108 1.02-3.536 2.669-3.536 1.496 0 2.431 1.054 2.431 3.043V84h.867v-4.692c.051-1.972 1.071-3.23 2.686-3.23 1.496 0 2.397 1.003 2.397 2.958V84h.884v-4.998c0-2.601-1.377-3.723-3.179-3.723zm12.686 7.922c-.51 0-.765-.17-.765-.833v-4.012c0-1.972-1.207-3.077-3.366-3.077-1.972 0-3.281.952-3.502 2.516h.867c.22-1.054 1.139-1.751 2.6-1.751 1.616 0 2.534.85 2.534 2.278v.748h-2.924c-2.21 0-3.4.952-3.4 2.567 0 1.53 1.207 2.465 3.043 2.465 1.75 0 2.788-.799 3.315-1.87v.306c-.034 1.02.39 1.462 1.41 1.462h.51v-.799h-.322zm-1.632-2.686c0 1.649-1.173 2.839-3.213 2.839-1.377 0-2.227-.697-2.227-1.768 0-1.139.85-1.768 2.448-1.768h2.992v.697zm6.633-5.134c-1.598 0-2.278.765-2.635 1.717l-.136-1.717h-.748V84h.867v-4.369c0-1.751.459-3.417 2.482-3.417h.629v-.833h-.459zM30.073 84h.867v-2.329l2.023-2.074L36.26 84h1.054l-3.757-5.032 3.468-3.587h-1.071l-5.015 5.168V72.1h-.867V84zm11.743.102c1.887 0 3.332-1.224 3.706-2.958h-.884c-.34 1.343-1.479 2.176-2.89 2.176-1.92 0-3.128-1.462-3.162-3.468v-.153h7.038c0-.119.017-.255.017-.357-.085-2.567-1.666-4.063-3.978-4.063-2.363 0-3.978 1.802-3.978 4.352 0 2.703 1.683 4.471 4.131 4.471zm-3.162-5.134c.136-1.751 1.445-2.924 3.026-2.924 1.683 0 2.89 1.037 3.026 2.924h-6.052zm9.214 3.026c0 1.377.561 2.006 2.023 2.006h1.258v-.799h-1.19c-.9 0-1.224-.34-1.224-1.224V76.18h2.33v-.799h-2.33v-2.414h-.867v2.414h-1.632v.799h1.632v5.814zm4.21-.646c.067 1.785 1.512 2.754 3.671 2.754 1.853 0 3.35-.935 3.35-2.465 0-1.819-1.599-2.176-3.452-2.431-1.343-.187-2.533-.34-2.533-1.547 0-.986.97-1.632 2.431-1.632 1.377 0 2.363.663 2.516 1.785h.884c-.153-1.683-1.53-2.533-3.4-2.533-1.92-.017-3.298.969-3.298 2.448 0 1.734 1.598 2.057 3.366 2.295 1.445.204 2.618.391 2.618 1.666 0 1.02-1.07 1.666-2.482 1.666-1.649 0-2.72-.765-2.788-2.006h-.884z" fill="#000"/></svg>