<svg width="123" height="73" viewBox="0 0 123 73" fill="none" xmlns="http://www.w3.org/2000/svg"><path d="M.44 2.844h4.752V16h2.53V2.844h4.752V.6H.44v2.244zm18.283 1.892c-1.848 0-2.75.748-3.322 1.694l-.264-1.694h-2.112V16h2.376v-5.654c0-1.738.682-3.388 2.794-3.388h1.056V4.736h-.528zm11.946 9.196c-.484 0-.726-.154-.726-.726v-4.51c0-2.662-1.716-4.092-4.708-4.092-2.838 0-4.73 1.364-4.972 3.564h2.332c.176-.99 1.122-1.65 2.53-1.65 1.562 0 2.464.77 2.464 2.024v.682h-2.838c-3.146 0-4.818 1.298-4.818 3.608 0 2.09 1.716 3.3 4.18 3.3 1.826 0 2.97-.792 3.718-1.936 0 1.122.528 1.804 2.068 1.804h1.254v-2.068h-.484zm-3.08-2.552c-.022 1.738-1.166 2.904-3.146 2.904-1.298 0-2.09-.66-2.09-1.606 0-1.144.814-1.694 2.288-1.694h2.948v.396zm13.33-5.082c-.726-.99-1.936-1.694-3.652-1.694-3.058 0-5.324 2.288-5.324 5.764 0 3.608 2.266 5.764 5.324 5.764 1.782 0 2.948-.836 3.674-1.826L41.227 16h2.068V.6H40.92v5.698zm-3.256 7.832c-1.98 0-3.278-1.54-3.278-3.762 0-2.2 1.298-3.74 3.278-3.74s3.278 1.54 3.278 3.784c0 2.178-1.298 3.718-3.278 3.718zm13.3 2.002c2.794 0 4.686-1.694 5.082-3.916H53.67c-.33 1.254-1.386 1.98-2.838 1.98-1.87 0-3.08-1.254-3.146-3.168v-.154h8.492c.044-.308.066-.616.066-.902-.066-3.3-2.244-5.368-5.5-5.368-3.322 0-5.544 2.31-5.544 5.786 0 3.454 2.222 5.742 5.764 5.742zm-3.19-6.996c.176-1.606 1.474-2.618 2.992-2.618 1.65 0 2.816.946 3.014 2.618h-6.006zm24.622-2.64c-.726-1.122-1.936-1.892-3.696-1.892-3.058 0-5.324 2.266-5.324 5.72 0 3.586 2.266 5.72 5.324 5.72 1.76 0 2.926-.726 3.674-1.848v1.254c0 2.156-1.166 3.146-3.234 3.146-1.672 0-2.772-.726-3.058-1.98h-2.42c.22 2.53 2.31 3.916 5.302 3.916 4.048 0 5.764-1.936 5.764-4.994V4.736h-2.068l-.264 1.76zm-3.3 7.546c-1.98 0-3.278-1.518-3.278-3.718 0-2.178 1.298-3.718 3.278-3.718s3.278 1.54 3.278 3.762c0 2.156-1.298 3.674-3.278 3.674zM77.049 16h2.376V.6h-2.376V16zm10.029.132c3.432 0 5.742-2.31 5.742-5.764 0-3.432-2.31-5.764-5.742-5.764s-5.742 2.332-5.742 5.764c0 3.454 2.31 5.764 5.742 5.764zm0-2.024c-2.002 0-3.3-1.562-3.3-3.74s1.298-3.74 3.3-3.74S90.4 8.19 90.4 10.368s-1.32 3.74-3.322 3.74zm13.68-9.504c-1.737 0-2.903.792-3.651 1.804V.6H94.73V16h2.068l.285-1.628c.704 1.012 1.915 1.76 3.674 1.76 3.08 0 5.324-2.31 5.324-5.764 0-3.63-2.244-5.764-5.324-5.764zm-.396 9.526c-1.98 0-3.277-1.562-3.277-3.784 0-2.178 1.297-3.718 3.277-3.718 1.98 0 3.3 1.54 3.3 3.74 0 2.222-1.32 3.762-3.3 3.762zm17.92-.198c-.484 0-.726-.154-.726-.726v-4.51c0-2.662-1.716-4.092-4.708-4.092-2.838 0-4.73 1.364-4.972 3.564h2.332c.176-.99 1.122-1.65 2.53-1.65 1.562 0 2.464.77 2.464 2.024v.682h-2.838c-3.146 0-4.818 1.298-4.818 3.608 0 2.09 1.716 3.3 4.18 3.3 1.826 0 2.97-.792 3.718-1.936 0 1.122.528 1.804 2.068 1.804h1.254v-2.068h-.484zm-3.08-2.552c-.022 1.738-1.166 2.904-3.146 2.904-1.298 0-2.09-.66-2.09-1.606 0-1.144.814-1.694 2.288-1.694h2.948v.396zm4.859 4.62h2.376V.6h-2.376V16zM8.096 42.132c3.586 0 6.204-2.112 6.688-5.368h-2.618c-.484 1.958-1.958 3.146-4.092 3.146-2.904 0-4.664-2.332-4.664-5.61 0-3.3 1.804-5.61 4.73-5.61 2.09 0 3.542 1.21 4.048 3.146h2.618c-.506-3.256-3.036-5.368-6.556-5.368-4.554 0-7.436 3.146-7.436 7.832 0 4.73 2.794 7.832 7.282 7.832zm8.78-.132h2.53v-6.512h6.029V33.31h-6.028v-4.466h7.304V26.6h-9.834V42zm17.01 0c4.818 0 7.854-3.146 7.854-7.722 0-4.576-3.036-7.678-7.854-7.678H28.65V42h5.236zM31.18 28.8h2.706c3.388 0 5.258 2.178 5.258 5.478s-1.87 5.522-5.258 5.522H31.18v-11zm12.063 9.482c.066 2.442 2.133 3.85 5.148 3.85 2.727 0 4.773-1.364 4.773-3.52 0-2.508-2.09-3.036-4.663-3.344-1.628-.176-2.706-.308-2.706-1.364 0-.902.923-1.474 2.331-1.474 1.409 0 2.377.726 2.509 1.76h2.332c-.154-2.31-2.112-3.586-4.884-3.586-2.706-.022-4.62 1.364-4.62 3.498 0 2.332 2.023 2.882 4.597 3.19 1.738.22 2.773.308 2.773 1.518 0 .902-.968 1.474-2.442 1.474-1.716 0-2.728-.836-2.816-2.002h-2.333zM63.23 42h2.574l2.464-7.656L70.645 42h2.552l3.74-11.264h-2.42l-2.662 8.624-2.464-8.624h-2.178l-2.574 8.624-2.574-8.624h-2.508L63.23 42zm16.166-12.848c.814 0 1.453-.594 1.453-1.43s-.638-1.43-1.453-1.43c-.814 0-1.452.594-1.452 1.43s.639 1.43 1.453 1.43zM78.188 42h2.377V30.736h-2.376V42zm5.52-3.058c0 2.046.924 3.058 3.08 3.058h2.2v-2.09h-1.672c-.902 0-1.21-.33-1.21-1.21v-5.874h2.75v-2.09h-2.75V27.59h-2.398v3.146h-1.958v2.09h1.958v6.116zm12.709-8.338c-1.76 0-2.838.792-3.542 1.76V26.6h-2.376V42h2.376v-5.698c0-2.266 1.144-3.652 3.014-3.652 1.76 0 2.706 1.144 2.706 3.278V42h2.376v-6.27c0-3.762-2.046-5.126-4.554-5.126zM1.166 68h2.376V52.6H1.166V68zm10.03.132c3.431 0 5.741-2.31 5.741-5.764 0-3.432-2.31-5.764-5.742-5.764s-5.742 2.332-5.742 5.764c0 3.454 2.31 5.764 5.742 5.764zm0-2.024c-2.003 0-3.3-1.562-3.3-3.74s1.297-3.74 3.3-3.74c2.001 0 3.321 1.562 3.321 3.74s-1.32 3.74-3.322 3.74zM21.055 68h2.575l2.464-7.656L28.47 68h2.552l3.74-11.264h-2.42L29.68 65.36l-2.464-8.624h-2.178l-2.574 8.624-2.574-8.624h-2.508L21.057 68zm26.615-11.396c-1.76 0-2.926.814-3.674 1.804l-.286-1.672h-2.068V72.4h2.376v-5.984c.704 1.012 1.914 1.716 3.652 1.716 3.08 0 5.324-2.288 5.324-5.764 0-3.608-2.244-5.764-5.324-5.764zm-.396 9.526c-1.98 0-3.278-1.562-3.278-3.806 0-2.178 1.298-3.696 3.278-3.696s3.3 1.518 3.3 3.74c0 2.2-1.32 3.762-3.3 3.762zm13.321-9.394c-1.848 0-2.75.748-3.322 1.694l-.264-1.694h-2.112V68h2.376v-5.654c0-1.738.682-3.388 2.794-3.388h1.056v-2.222h-.528zm3.204-1.584c.814 0 1.452-.594 1.452-1.43s-.638-1.43-1.452-1.43-1.452.594-1.452 1.43.638 1.43 1.452 1.43zM62.59 68h2.376V56.736H62.59V68zm9.875.132c2.882 0 4.796-1.606 5.236-4.158h-2.508c-.286 1.298-1.254 2.134-2.706 2.134-1.914 0-3.168-1.518-3.168-3.718 0-2.222 1.254-3.762 3.168-3.762 1.474 0 2.42.814 2.728 2.134H77.7c-.462-2.552-2.266-4.158-5.17-4.158-3.41 0-5.654 2.31-5.654 5.786 0 3.52 2.178 5.742 5.588 5.742zm8.264-12.98c.814 0 1.453-.594 1.453-1.43s-.639-1.43-1.453-1.43c-.814 0-1.451.594-1.451 1.43s.637 1.43 1.451 1.43zM79.52 68h2.376V56.736H79.52V68zm10.646-11.396c-1.826 0-2.904.726-3.608 1.606l-.264-1.474h-2.068V68H86.6v-5.676c0-2.288 1.122-3.674 3.014-3.674 1.782 0 2.684 1.144 2.684 3.278V68h2.398v-6.27c0-3.762-2.046-5.126-4.532-5.126zm15.294 1.892c-.726-1.122-1.936-1.892-3.696-1.892-3.058 0-5.324 2.266-5.324 5.72 0 3.586 2.266 5.72 5.324 5.72 1.76 0 2.926-.726 3.674-1.848v1.254c0 2.156-1.166 3.146-3.234 3.146-1.672 0-2.772-.726-3.058-1.98h-2.42c.22 2.53 2.31 3.916 5.302 3.916 4.048 0 5.764-1.936 5.764-4.994V56.736h-2.068l-.264 1.76zm-3.3 7.546c-1.98 0-3.278-1.518-3.278-3.718 0-2.178 1.298-3.718 3.278-3.718s3.278 1.54 3.278 3.762c0 2.156-1.298 3.674-3.278 3.674z" fill="#000"/></svg>