<svg width="165" height="24" viewBox="0 0 165 24" fill="none" xmlns="http://www.w3.org/2000/svg"><path d="M.22 1.35h2.64V8.5h.594V1.35h2.64V.8H.22v.55zm8.432 1.573c-1.034 0-1.474.495-1.705 1.111l-.088-1.111h-.484V8.5h.56V5.673c0-1.133.298-2.211 1.607-2.211h.407v-.539h-.297zm5.798 5.06c-.33 0-.495-.11-.495-.539V4.848c0-1.276-.781-1.991-2.178-1.991-1.276 0-2.123.616-2.266 1.628h.56c.144-.682.738-1.133 1.684-1.133 1.045 0 1.639.55 1.639 1.474v.484h-1.892c-1.43 0-2.2.616-2.2 1.661 0 .99.78 1.595 1.969 1.595 1.133 0 1.804-.517 2.145-1.21v.198c-.022.66.253.946.913.946h.33v-.517h-.21zm-1.056-1.738c0 1.067-.76 1.837-2.08 1.837-.89 0-1.44-.451-1.44-1.144 0-.737.55-1.144 1.584-1.144h1.936v.451zm6.483-2.068c-.34-.792-1.089-1.32-2.134-1.32-1.529 0-2.629 1.166-2.629 2.849 0 1.76 1.1 2.86 2.63 2.86 1.044 0 1.77-.561 2.122-1.342l.088 1.276h.484V.8h-.56v3.377zm-2.09 3.883c-1.243 0-2.1-.968-2.1-2.354 0-1.375.857-2.354 2.1-2.354s2.101.979 2.101 2.365c0 1.375-.858 2.343-2.1 2.343zm6.435.506c1.22 0 2.156-.792 2.398-1.914h-.572c-.22.869-.957 1.408-1.87 1.408-1.243 0-2.024-.946-2.046-2.244v-.099h4.554c0-.077.01-.165.01-.231-.054-1.661-1.077-2.629-2.573-2.629-1.53 0-2.574 1.166-2.574 2.816 0 1.749 1.089 2.893 2.673 2.893zm-2.046-3.322c.088-1.133.935-1.892 1.958-1.892 1.089 0 1.87.671 1.958 1.892h-3.916zM30.33 1.35h2.64V8.5h.594V1.35h2.64V.8H30.33v.55zm8.233 7.216c1.22 0 2.155-.792 2.398-1.914h-.572c-.22.869-.958 1.408-1.87 1.408-1.243 0-2.024-.946-2.047-2.244v-.099h4.554c0-.077.011-.165.011-.231-.054-1.661-1.078-2.629-2.573-2.629-1.53 0-2.575 1.166-2.575 2.816 0 1.749 1.09 2.893 2.673 2.893zm-2.047-3.322c.089-1.133.936-1.892 1.959-1.892 1.088 0 1.87.671 1.957 1.892h-3.916zm5.367 1.54c.044 1.155.979 1.782 2.376 1.782 1.199 0 2.167-.605 2.167-1.595 0-1.177-1.034-1.408-2.233-1.573-.87-.121-1.64-.22-1.64-1.001 0-.638.628-1.056 1.574-1.056.89 0 1.529.429 1.628 1.155h.572c-.1-1.089-.99-1.639-2.2-1.639-1.243-.011-2.134.627-2.134 1.584 0 1.122 1.034 1.331 2.178 1.485.935.132 1.694.253 1.694 1.078 0 .66-.693 1.078-1.606 1.078-1.067 0-1.76-.495-1.804-1.298h-.572zM47.496 8.5h.56V.8h-.56v7.7zm6.786-.517c-.33 0-.495-.11-.495-.539V4.848c0-1.276-.781-1.991-2.178-1.991-1.276 0-2.123.616-2.266 1.628h.56c.144-.682.738-1.133 1.684-1.133 1.045 0 1.639.55 1.639 1.474v.484h-1.892c-1.43 0-2.2.616-2.2 1.661 0 .99.78 1.595 1.969 1.595 1.133 0 1.804-.517 2.145-1.21v.198c-.022.66.253.946.913.946h.33v-.517h-.21zm-1.056-1.738c0 1.067-.76 1.837-2.08 1.837-.89 0-1.44-.451-1.44-1.144 0-.737.55-1.144 1.584-1.144h1.936v.451zm5.398.957c0 .891.363 1.298 1.309 1.298h.814v-.517h-.77c-.583 0-.792-.22-.792-.792V3.44h1.507v-.517h-1.507V1.361h-.561v1.562h-1.056v.517h1.056v3.762zm5.55-4.345c-1.045 0-1.694.583-2.013 1.386V.8h-.56v7.7h.56V5.75c0-1.452.737-2.376 1.925-2.376 1.067 0 1.727.704 1.727 2.024V8.5h.561V5.376c0-1.76-.935-2.519-2.2-2.519zm3.739-1.111c.22 0 .396-.165.396-.396a.388.388 0 00-.396-.396.388.388 0 00-.396.396c0 .231.176.396.396.396zM67.627 8.5h.56V2.923h-.56V8.5zm1.627-1.716c.044 1.155.979 1.782 2.376 1.782 1.199 0 2.167-.605 2.167-1.595 0-1.177-1.034-1.408-2.233-1.573-.87-.121-1.64-.22-1.64-1.001 0-.638.628-1.056 1.574-1.056.89 0 1.529.429 1.628 1.155h.572c-.1-1.089-.99-1.639-2.2-1.639-1.243-.011-2.134.627-2.134 1.584 0 1.122 1.034 1.331 2.178 1.485.935.132 1.694.253 1.694 1.078 0 .66-.693 1.078-1.606 1.078-1.067 0-1.76-.495-1.804-1.298h-.572zm11.042 1.782c1.22 0 2.156-.792 2.398-1.914h-.572c-.22.869-.957 1.408-1.87 1.408-1.243 0-2.024-.946-2.046-2.244v-.099h4.554c0-.077.01-.165.01-.231-.054-1.661-1.077-2.629-2.573-2.629-1.53 0-2.574 1.166-2.574 2.816 0 1.749 1.089 2.893 2.673 2.893zM78.25 5.244c.088-1.133.935-1.892 1.958-1.892 1.089 0 1.87.671 1.958 1.892H78.25zm10.536 2.739c-.33 0-.495-.11-.495-.539V4.848c0-1.276-.781-1.991-2.178-1.991-1.276 0-2.123.616-2.266 1.628h.56c.144-.682.738-1.133 1.684-1.133 1.045 0 1.639.55 1.639 1.474v.484h-1.892c-1.43 0-2.2.616-2.2 1.661 0 .99.78 1.595 1.969 1.595 1.133 0 1.804-.517 2.145-1.21v.198c-.022.66.253.946.913.946h.33v-.517h-.21zM87.73 6.245c0 1.067-.76 1.837-2.08 1.837-.89 0-1.44-.451-1.44-1.144 0-.737.55-1.144 1.584-1.144h1.936v.451zm4.292-3.322c-1.034 0-1.474.495-1.705 1.111l-.088-1.111h-.484V8.5h.561V5.673c0-1.133.297-2.211 1.606-2.211h.407v-.539h-.297zm3.702-.066c-1.023 0-1.683.528-2.002 1.254l-.088-1.188h-.484V8.5h.561V5.75c0-1.452.737-2.376 1.925-2.376 1.078 0 1.727.704 1.727 2.024V8.5h.561V5.376c0-1.76-.935-2.519-2.2-2.519zm3.728-1.111c.22 0 .396-.165.396-.396a.388.388 0 00-.396-.396.388.388 0 00-.396.396c0 .231.176.396.396.396zM99.166 8.5h.56V2.923h-.56V8.5zm4.454-5.643c-1.023 0-1.683.528-2.002 1.254l-.088-1.188h-.484V8.5h.561V5.75c0-1.452.737-2.376 1.925-2.376 1.078 0 1.727.704 1.727 2.024V8.5h.561V5.376c0-1.76-.935-2.519-2.2-2.519zm7.984 1.364c-.341-.825-1.089-1.364-2.123-1.364-1.529 0-2.629 1.155-2.629 2.849 0 1.76 1.1 2.86 2.629 2.86 1.045 0 1.782-.55 2.134-1.419v.99c0 1.485-.704 2.123-2.046 2.123-1.045 0-1.771-.473-1.947-1.32h-.583c.176 1.188 1.133 1.826 2.486 1.826 1.804 0 2.651-.858 2.651-2.607V2.923h-.484l-.088 1.298zm-2.079 3.839c-1.243 0-2.101-.968-2.101-2.354 0-1.386.858-2.354 2.101-2.354 1.243 0 2.101.968 2.101 2.365 0 1.375-.858 2.343-2.101 2.343zm3.718-1.276c.044 1.155.979 1.782 2.376 1.782 1.199 0 2.167-.605 2.167-1.595 0-1.177-1.034-1.408-2.233-1.573-.869-.121-1.639-.22-1.639-1.001 0-.638.627-1.056 1.573-1.056.891 0 1.529.429 1.628 1.155h.572c-.099-1.089-.99-1.639-2.2-1.639-1.243-.011-2.134.627-2.134 1.584 0 1.122 1.034 1.331 2.178 1.485.935.132 1.694.253 1.694 1.078 0 .66-.693 1.078-1.606 1.078-1.067 0-1.76-.495-1.804-1.298h-.572zm8.325 0c.044 1.155.979 1.782 2.376 1.782 1.199 0 2.167-.605 2.167-1.595 0-1.177-1.034-1.408-2.233-1.573-.869-.121-1.639-.22-1.639-1.001 0-.638.627-1.056 1.573-1.056.891 0 1.529.429 1.628 1.155h.572c-.099-1.089-.99-1.639-2.2-1.639-1.243-.011-2.134.627-2.134 1.584 0 1.122 1.034 1.331 2.178 1.485.935.132 1.694.253 1.694 1.078 0 .66-.693 1.078-1.606 1.078-1.067 0-1.76-.495-1.804-1.298h-.572zm8.077 1.782c1.221 0 2.156-.792 2.398-1.914h-.572c-.22.869-.957 1.408-1.87 1.408-1.243 0-2.024-.946-2.046-2.244v-.099h4.554c0-.077.011-.165.011-.231-.055-1.661-1.078-2.629-2.574-2.629-1.529 0-2.574 1.166-2.574 2.816 0 1.749 1.089 2.893 2.673 2.893zm-2.046-3.322c.088-1.133.935-1.892 1.958-1.892 1.089 0 1.87.671 1.958 1.892h-3.916zm10.536 2.739c-.33 0-.495-.11-.495-.539V4.848c0-1.276-.781-1.991-2.178-1.991-1.276 0-2.123.616-2.266 1.628h.561c.143-.682.737-1.133 1.683-1.133 1.045 0 1.639.55 1.639 1.474v.484h-1.892c-1.43 0-2.2.616-2.2 1.661 0 .99.781 1.595 1.969 1.595 1.133 0 1.804-.517 2.145-1.21v.198c-.022.66.253.946.913.946h.33v-.517h-.209zm-1.056-1.738c0 1.067-.759 1.837-2.079 1.837-.891 0-1.441-.451-1.441-1.144 0-.737.55-1.144 1.584-1.144h1.936v.451zm1.763.539c.044 1.155.979 1.782 2.376 1.782 1.199 0 2.167-.605 2.167-1.595 0-1.177-1.034-1.408-2.233-1.573-.869-.121-1.639-.22-1.639-1.001 0-.638.627-1.056 1.573-1.056.891 0 1.529.429 1.628 1.155h.572c-.099-1.089-.99-1.639-2.2-1.639-1.243-.011-2.134.627-2.134 1.584 0 1.122 1.034 1.331 2.178 1.485.935.132 1.694.253 1.694 1.078 0 .66-.693 1.078-1.606 1.078-1.067 0-1.76-.495-1.804-1.298h-.572zm8.077 1.782c1.573 0 2.684-1.166 2.684-2.86 0-1.683-1.111-2.849-2.684-2.849-1.573 0-2.673 1.166-2.673 2.849 0 1.694 1.1 2.86 2.673 2.86zm0-.506c-1.243 0-2.101-.968-2.101-2.354 0-1.375.858-2.354 2.101-2.354 1.243 0 2.101.979 2.101 2.354 0 1.386-.858 2.354-2.101 2.354zm6.373-5.203c-1.023 0-1.683.528-2.002 1.254l-.088-1.188h-.484V8.5h.561V5.75c0-1.452.737-2.376 1.925-2.376 1.078 0 1.727.704 1.727 2.024V8.5h.561V5.376c0-1.76-.935-2.519-2.2-2.519zm3.672 4.873c-.297 0-.484.187-.484.429 0 .264.176.396.385.396.11 0 .22-.044.275-.132a.397.397 0 01.099.286c0 .418-.264.847-.825.869v.33c.759-.033 1.232-.539 1.232-1.265 0-.506-.286-.913-.682-.913zM2.013 21.5h.605l1.65-4.686L5.841 21.5h.605l1.98-5.577h-.572l-1.716 4.906-1.595-4.906h-.517l-1.683 4.906-1.628-4.906H.121L2.013 21.5zm7.484-6.754c.22 0 .396-.165.396-.396a.388.388 0 00-.396-.396.388.388 0 00-.396.396c0 .231.176.396.396.396zM9.21 21.5h.56v-5.577h-.56V21.5zm2.298-1.298c0 .891.363 1.298 1.309 1.298h.814v-.517h-.77c-.583 0-.792-.22-.792-.792V16.44h1.507v-.517H12.07v-1.562h-.561v1.562h-1.056v.517h1.056v3.762zm5.55-4.345c-1.045 0-1.694.583-2.013 1.386V13.8h-.56v7.7h.56v-2.75c0-1.452.737-2.376 1.925-2.376 1.067 0 1.727.704 1.727 2.024V21.5h.561v-3.124c0-1.76-.935-2.519-2.2-2.519zm8.991 0c-1.023 0-1.683.528-2.002 1.254l-.088-1.188h-.484V21.5h.561v-2.75c0-1.452.737-2.376 1.925-2.376 1.078 0 1.727.704 1.727 2.024V21.5h.561v-3.124c0-1.76-.935-2.519-2.2-2.519zm5.82 5.709c1.221 0 2.156-.792 2.398-1.914h-.572c-.22.869-.957 1.408-1.87 1.408-1.243 0-2.024-.946-2.046-2.244v-.099h4.554c0-.077.011-.165.011-.231-.055-1.661-1.078-2.629-2.574-2.629-1.529 0-2.574 1.166-2.574 2.816 0 1.749 1.09 2.893 2.673 2.893zm-2.046-3.322c.088-1.133.935-1.892 1.958-1.892 1.09 0 1.87.671 1.958 1.892h-3.916zm6.811 3.256h.605l1.65-4.686 1.573 4.686h.605l1.98-5.577h-.572l-1.716 4.906-1.595-4.906h-.517l-1.683 4.906-1.628-4.906h-.594l1.892 5.577zm12.836.066c1.507 0 2.486-.88 2.662-1.98h-1.53c-.131.528-.571.803-1.198.803-.781 0-1.298-.484-1.331-1.287v-.077h4.103c.033-.176.044-.363.044-.528-.022-1.661-1.166-2.717-2.86-2.717-1.75 0-2.904 1.144-2.904 2.904 0 1.749 1.133 2.882 3.014 2.882zm-1.364-3.553c.088-.671.594-1.078 1.265-1.078.704 0 1.177.385 1.287 1.078h-2.552zm4.1 3.487h1.66l1.287-1.771 1.298 1.771h1.771l-2.1-2.882 1.99-2.772h-1.672l-1.199 1.672-1.166-1.672h-1.77l2.001 2.772-2.1 2.882zm7.015-1.617c0 1.078.54 1.617 1.617 1.617h1.265v-1.309h-.77c-.407 0-.56-.165-.56-.561v-2.475h1.297v-1.309h-1.298v-1.584h-1.55v1.584h-.936v1.309h.935v2.728zm6.308 1.683c1.507 0 2.486-.88 2.662-1.98h-1.529c-.132.528-.572.803-1.199.803-.78 0-1.298-.484-1.33-1.287v-.077h4.102c.033-.176.044-.363.044-.528-.022-1.661-1.166-2.717-2.86-2.717-1.749 0-2.904 1.144-2.904 2.904 0 1.749 1.133 2.882 3.014 2.882zm-1.364-3.553c.088-.671.594-1.078 1.265-1.078.704 0 1.177.385 1.287 1.078h-2.552zm8.207-2.233c-.87 0-1.386.33-1.75.77l-.142-.704h-1.353V21.5h1.55v-2.893c0-.979.463-1.551 1.266-1.551.78 0 1.144.506 1.144 1.463V21.5h1.55v-3.135c0-1.936-1.044-2.585-2.265-2.585zm7.325.77c-.363-.462-.924-.77-1.705-.77-1.507 0-2.618 1.133-2.618 2.882 0 1.793 1.11 2.904 2.629 2.904.814 0 1.364-.363 1.738-.847l.154.781h1.353v-7.7h-1.551v2.75zm-1.353 3.751c-.847 0-1.386-.66-1.386-1.628 0-.968.539-1.628 1.386-1.628.847 0 1.375.671 1.375 1.639 0 .957-.528 1.617-1.375 1.617zm6.779 1.265c1.507 0 2.486-.88 2.662-1.98h-1.529c-.132.528-.572.803-1.199.803-.781 0-1.298-.484-1.331-1.287v-.077h4.103c.033-.176.044-.363.044-.528-.022-1.661-1.166-2.717-2.86-2.717-1.749 0-2.904 1.144-2.904 2.904 0 1.749 1.133 2.882 3.014 2.882zm-1.364-3.553c.088-.671.594-1.078 1.265-1.078.704 0 1.177.385 1.287 1.078H83.76zm9.065-1.463c-.363-.462-.924-.77-1.705-.77-1.507 0-2.618 1.133-2.618 2.882 0 1.793 1.11 2.904 2.629 2.904.814 0 1.364-.363 1.738-.847l.154.781h1.353v-7.7h-1.551v2.75zm-1.353 3.751c-.847 0-1.386-.66-1.386-1.628 0-.968.539-1.628 1.386-1.628.847 0 1.375.671 1.375 1.639 0 .957-.528 1.617-1.375 1.617zm9.936-4.521c-.803 0-1.309.319-1.671.759V13.8h-1.551v7.7h1.55v-2.904c0-.968.473-1.54 1.265-1.54.77 0 1.144.517 1.144 1.441V21.5h1.551v-3.135c0-1.914-1.034-2.585-2.288-2.585zm6.005 5.786c1.804 0 2.981-1.144 2.981-2.893 0-1.738-1.177-2.893-2.981-2.893-1.804 0-2.981 1.155-2.981 2.893 0 1.738 1.177 2.893 2.981 2.893zm0-1.265c-.869 0-1.397-.671-1.397-1.628 0-.957.528-1.628 1.397-1.628s1.408.671 1.408 1.628c0 .957-.539 1.628-1.408 1.628zm7.608-1.628c0 1.045-.451 1.606-1.221 1.606s-1.1-.495-1.1-1.507v-2.926h-1.551v3.135c0 2.002 1.078 2.585 2.244 2.585.803 0 1.298-.308 1.661-.748l.143.682h1.375v-5.654h-1.551v2.827zm5.808-2.827c-.88 0-1.32.341-1.628.847l-.143-.847h-1.408V21.5h1.551v-2.772c0-.858.352-1.474 1.276-1.474h.616v-1.408h-.264zm.618 3.773c.066 1.21 1.133 1.947 2.706 1.947 1.518 0 2.574-.715 2.574-1.837 0-1.276-1.078-1.573-2.376-1.705-.814-.099-1.298-.143-1.298-.572 0-.363.396-.583 1.001-.583.627 0 1.056.275 1.1.726h1.485c-.077-1.155-1.122-1.826-2.64-1.826-1.452-.011-2.431.726-2.431 1.848 0 1.166 1.023 1.463 2.343 1.617.913.121 1.298.154 1.298.616 0 .396-.396.605-1.045.605-.759 0-1.188-.341-1.243-.836h-1.474zm9.601.583c0 .891.363 1.298 1.309 1.298h.814v-.517h-.77c-.583 0-.792-.22-.792-.792V16.44h1.507v-.517h-1.507v-1.562h-.561v1.562h-1.056v.517h1.056v3.762zm5.253-4.279c-1.034 0-1.474.495-1.705 1.111l-.088-1.111h-.484V21.5h.561v-2.827c0-1.133.297-2.211 1.606-2.211h.407v-.539h-.297zm5.798 5.06c-.33 0-.495-.11-.495-.539v-2.596c0-1.276-.781-1.991-2.178-1.991-1.276 0-2.123.616-2.266 1.628h.561c.143-.682.737-1.133 1.683-1.133 1.045 0 1.639.55 1.639 1.474v.484h-1.892c-1.43 0-2.2.616-2.2 1.661 0 .99.781 1.595 1.969 1.595 1.133 0 1.804-.517 2.145-1.21v.198c-.022.66.253.946.913.946h.33v-.517h-.209zm-1.056-1.738c0 1.067-.759 1.837-2.079 1.837-.891 0-1.441-.451-1.441-1.144 0-.737.55-1.144 1.584-1.144h1.936v.451zm6.484-2.068c-.341-.792-1.089-1.32-2.134-1.32-1.529 0-2.629 1.166-2.629 2.849 0 1.76 1.1 2.86 2.629 2.86 1.045 0 1.771-.561 2.123-1.342l.088 1.276h.484v-7.7h-.561v3.377zm-2.09 3.883c-1.243 0-2.101-.968-2.101-2.354 0-1.375.858-2.354 2.101-2.354 1.243 0 2.101.979 2.101 2.365 0 1.375-.858 2.343-2.101 2.343zm4.256-6.314c.22 0 .396-.165.396-.396a.388.388 0 00-.396-.396.388.388 0 00-.396.396c0 .231.176.396.396.396zm-.286 6.754h.561v-5.577h-.561V21.5zm4.454-5.643c-1.023 0-1.683.528-2.002 1.254l-.088-1.188h-.484V21.5h.561v-2.75c0-1.452.737-2.376 1.925-2.376 1.078 0 1.727.704 1.727 2.024V21.5h.561v-3.124c0-1.76-.935-2.519-2.2-2.519zm7.985 1.364c-.341-.825-1.089-1.364-2.123-1.364-1.529 0-2.629 1.155-2.629 2.849 0 1.76 1.1 2.86 2.629 2.86 1.045 0 1.782-.55 2.134-1.419v.99c0 1.485-.704 2.123-2.046 2.123-1.045 0-1.771-.473-1.947-1.32h-.583c.176 1.188 1.133 1.826 2.486 1.826 1.804 0 2.651-.858 2.651-2.607v-5.236h-.484l-.088 1.298zm-2.079 3.839c-1.243 0-2.101-.968-2.101-2.354 0-1.386.858-2.354 2.101-2.354 1.243 0 2.101.968 2.101 2.365 0 1.375-.858 2.343-2.101 2.343zm3.904.077c0 .253.176.418.418.418a.398.398 0 00.418-.418c0-.253-.176-.407-.418-.407s-.418.154-.418.407z" fill="#000"/></svg>