<svg width="240" height="13" viewBox="0 0 240 13" fill="none" xmlns="http://www.w3.org/2000/svg"><path d="M4.719 10.078c1.82 0 2.899-1.001 3.289-2.093L8.047 10h.611V5.255H4.992v.65h2.99v.39c0 1.781-1.235 3.133-3.25 3.133-2.041 0-3.393-1.638-3.393-3.978 0-2.327 1.352-3.978 3.458-3.978 1.534 0 2.6.793 2.977 2.223h.754C8.151 1.875 6.734.822 4.823.822 2.249.822.611 2.72.611 5.45c0 2.743 1.677 4.628 4.108 4.628zm8.583 0c1.443 0 2.548-.936 2.834-2.262h-.676c-.26 1.027-1.13 1.664-2.21 1.664-1.469 0-2.392-1.118-2.418-2.652v-.117h5.382c0-.091.013-.195.013-.273-.065-1.963-1.274-3.107-3.042-3.107-1.807 0-3.042 1.378-3.042 3.328 0 2.067 1.287 3.419 3.16 3.419zm-2.418-3.926c.104-1.339 1.105-2.236 2.314-2.236 1.287 0 2.21.793 2.314 2.236h-4.628zm7.046 2.314c0 1.053.43 1.534 1.547 1.534h.962v-.611h-.91c-.689 0-.936-.26-.936-.936V4.02h1.781v-.611h-1.78V1.563h-.664v1.846h-1.248v.611h1.248v4.446zm12.39-3.523c-.402-.975-1.286-1.612-2.508-1.612-1.807 0-3.107 1.365-3.107 3.367 0 2.08 1.3 3.38 3.107 3.38 1.235 0 2.106-.65 2.522-1.677v1.17c0 1.755-.832 2.509-2.418 2.509-1.235 0-2.093-.559-2.301-1.56h-.69c.209 1.404 1.34 2.158 2.939 2.158 2.132 0 3.133-1.014 3.133-3.081V3.409h-.572l-.104 1.534zM27.865 9.48c-1.47 0-2.483-1.144-2.483-2.782 0-1.638 1.014-2.782 2.483-2.782s2.483 1.144 2.483 2.795c0 1.625-1.014 2.769-2.483 2.769zm7.604.598c1.86 0 3.172-1.378 3.172-3.38 0-1.989-1.313-3.367-3.172-3.367-1.859 0-3.159 1.378-3.159 3.367 0 2.002 1.3 3.38 3.16 3.38zm0-.598c-1.469 0-2.483-1.144-2.483-2.782 0-1.625 1.014-2.782 2.483-2.782 1.47 0 2.483 1.157 2.483 2.782 0 1.638-1.014 2.782-2.483 2.782zm4.49.52h.663V.9h-.663V10zm7.603-5.109c-.403-.936-1.287-1.56-2.522-1.56-1.807 0-3.107 1.378-3.107 3.367 0 2.08 1.3 3.38 3.107 3.38 1.235 0 2.093-.663 2.51-1.586L47.651 10h.572V.9h-.663v3.991zm-2.47 4.589c-1.469 0-2.483-1.144-2.483-2.782 0-1.625 1.014-2.782 2.483-2.782 1.47 0 2.483 1.157 2.483 2.795 0 1.625-1.014 2.769-2.483 2.769zm12.2.598c1.95 0 3.329-1.053 3.719-2.886h-.741c-.39 1.456-1.443 2.236-2.99 2.236-2.106 0-3.432-1.651-3.432-3.978s1.352-3.978 3.458-3.978c1.52 0 2.587.793 2.99 2.223h.74c-.402-1.82-1.78-2.873-3.691-2.873-2.561 0-4.225 1.898-4.225 4.628 0 2.756 1.625 4.628 4.173 4.628zm5.23-.078h.702V5.801h3.926v-.65h-3.926V1.55h4.706V.9h-5.408V10zm9.292 0c2.886 0 4.576-1.794 4.576-4.55 0-2.769-1.69-4.55-4.576-4.55H69.16V10h2.652zm-1.95-8.45h1.95c2.483 0 3.86 1.508 3.86 3.9 0 2.379-1.377 3.9-3.86 3.9h-1.95v-7.8zm11.132 6.422c.052 1.365 1.157 2.106 2.808 2.106 1.417 0 2.56-.715 2.56-1.885 0-1.391-1.221-1.664-2.638-1.859-1.027-.143-1.937-.26-1.937-1.183 0-.754.74-1.248 1.859-1.248 1.053 0 1.807.507 1.924 1.365h.676c-.117-1.287-1.17-1.937-2.6-1.937-1.47-.013-2.522.741-2.522 1.872 0 1.326 1.222 1.573 2.574 1.755 1.105.156 2.002.299 2.002 1.274 0 .78-.82 1.274-1.898 1.274-1.261 0-2.08-.585-2.132-1.534h-.676zm9.819-4.641c-1.235 0-2.093.663-2.51 1.586l-.103-1.508h-.572V12.6h.663V8.479c.377.962 1.274 1.599 2.522 1.599 1.807 0 3.107-1.378 3.107-3.38 0-2.067-1.3-3.367-3.107-3.367zm-.052 6.149c-1.47 0-2.483-1.144-2.483-2.795 0-1.612 1.014-2.769 2.483-2.769s2.483 1.157 2.483 2.782c0 1.638-1.014 2.782-2.483 2.782zm7.162-6.071c-1.222 0-1.742.585-2.015 1.313l-.104-1.313h-.572V10h.663V6.659c0-1.339.351-2.613 1.898-2.613h.481v-.637h-.35zm3.776 6.669c1.443 0 2.548-.936 2.834-2.262h-.676c-.26 1.027-1.131 1.664-2.21 1.664-1.469 0-2.392-1.118-2.418-2.652v-.117h5.382c0-.091.013-.195.013-.273-.065-1.963-1.274-3.107-3.042-3.107-1.807 0-3.042 1.378-3.042 3.328 0 2.067 1.287 3.419 3.159 3.419zm-2.418-3.926c.104-1.339 1.105-2.236 2.314-2.236 1.287 0 2.21.793 2.314 2.236h-4.628zm12.451 3.237c-.39 0-.585-.13-.585-.637V5.684c0-1.508-.923-2.353-2.574-2.353-1.508 0-2.509.728-2.678 1.924h.663c.169-.806.871-1.339 1.989-1.339 1.235 0 1.937.65 1.937 1.742v.572h-2.236c-1.69 0-2.6.728-2.6 1.963 0 1.17.923 1.885 2.327 1.885 1.339 0 2.132-.611 2.535-1.43v.234c-.026.78.299 1.118 1.079 1.118h.39v-.611h-.247zm-1.248-2.054c0 1.261-.897 2.171-2.457 2.171-1.053 0-1.703-.533-1.703-1.352 0-.871.65-1.352 1.872-1.352h2.288v.533zm7.662-2.444c-.403-.936-1.287-1.56-2.522-1.56-1.807 0-3.107 1.378-3.107 3.367 0 2.08 1.3 3.38 3.107 3.38 1.235 0 2.093-.663 2.509-1.586l.104 1.508h.572V.9h-.663v3.991zm-2.47 4.589c-1.469 0-2.483-1.144-2.483-2.782 0-1.625 1.014-2.782 2.483-2.782s2.483 1.157 2.483 2.795c0 1.625-1.014 2.769-2.483 2.769zm4.394-1.508c.052 1.365 1.157 2.106 2.808 2.106 1.417 0 2.561-.715 2.561-1.885 0-1.391-1.222-1.664-2.639-1.859-1.027-.143-1.937-.26-1.937-1.183 0-.754.741-1.248 1.859-1.248 1.053 0 1.807.507 1.924 1.365h.676c-.117-1.287-1.17-1.937-2.6-1.937-1.469-.013-2.522.741-2.522 1.872 0 1.326 1.222 1.573 2.574 1.755 1.105.156 2.002.299 2.002 1.274 0 .78-.819 1.274-1.898 1.274-1.261 0-2.08-.585-2.132-1.534h-.676zm15.936 1.417c-.39 0-.585-.13-.585-.637V5.684c0-1.508-.923-2.353-2.574-2.353-1.508 0-2.509.728-2.678 1.924h.663c.169-.806.871-1.339 1.989-1.339 1.235 0 1.937.65 1.937 1.742v.572h-2.236c-1.69 0-2.6.728-2.6 1.963 0 1.17.923 1.885 2.327 1.885 1.339 0 2.132-.611 2.535-1.43v.234c-.026.78.299 1.118 1.079 1.118h.39v-.611h-.247zm-1.248-2.054c0 1.261-.897 2.171-2.457 2.171-1.053 0-1.703-.533-1.703-1.352 0-.871.65-1.352 1.872-1.352h2.288v.533zm2.082.637c.052 1.365 1.157 2.106 2.808 2.106 1.417 0 2.561-.715 2.561-1.885 0-1.391-1.222-1.664-2.639-1.859-1.027-.143-1.937-.26-1.937-1.183 0-.754.741-1.248 1.859-1.248 1.053 0 1.807.507 1.924 1.365h.676c-.117-1.287-1.17-1.937-2.6-1.937-1.469-.013-2.522.741-2.522 1.872 0 1.326 1.222 1.573 2.574 1.755 1.105.156 2.002.299 2.002 1.274 0 .78-.819 1.274-1.898 1.274-1.261 0-2.08-.585-2.132-1.534h-.676zM146.979 10h.663V.9h-.663V10zm5.134.078c1.859 0 3.172-1.378 3.172-3.38 0-1.989-1.313-3.367-3.172-3.367-1.859 0-3.159 1.378-3.159 3.367 0 2.002 1.3 3.38 3.159 3.38zm0-.598c-1.469 0-2.483-1.144-2.483-2.782 0-1.625 1.014-2.782 2.483-2.782s2.483 1.157 2.483 2.782c0 1.638-1.014 2.782-2.483 2.782zm5.885.52h.715l1.95-5.538L162.522 10h.715l2.34-6.591h-.676l-2.028 5.798-1.885-5.798h-.611l-1.989 5.798-1.924-5.798h-.702L157.998 10zm17.809-.611c-.39 0-.585-.13-.585-.637V5.684c0-1.508-.923-2.353-2.574-2.353-1.508 0-2.509.728-2.678 1.924h.663c.169-.806.871-1.339 1.989-1.339 1.235 0 1.937.65 1.937 1.742v.572h-2.236c-1.69 0-2.6.728-2.6 1.963 0 1.17.923 1.885 2.327 1.885 1.339 0 2.132-.611 2.535-1.43v.234c-.026.78.299 1.118 1.079 1.118h.39v-.611h-.247zm-1.248-2.054c0 1.261-.897 2.171-2.457 2.171-1.053 0-1.703-.533-1.703-1.352 0-.871.65-1.352 1.872-1.352h2.288v.533zm2.082.637c.052 1.365 1.157 2.106 2.808 2.106 1.417 0 2.561-.715 2.561-1.885 0-1.391-1.222-1.664-2.639-1.859-1.027-.143-1.937-.26-1.937-1.183 0-.754.741-1.248 1.859-1.248 1.053 0 1.807.507 1.924 1.365h.676c-.117-1.287-1.17-1.937-2.6-1.937-1.469-.013-2.522.741-2.522 1.872 0 1.326 1.222 1.573 2.574 1.755 1.105.156 2.002.299 2.002 1.274 0 .78-.819 1.274-1.898 1.274-1.261 0-2.08-.585-2.132-1.534h-.676zm9.982-2.314c0 2.665 1.313 4.42 3.289 4.42 1.95 0 3.276-1.755 3.276-4.42v-.416c0-2.587-1.326-4.42-3.276-4.42-1.976 0-3.289 1.833-3.289 4.42v.416zm5.876-.026c0 2.314-1.027 3.822-2.587 3.822-1.573 0-2.6-1.508-2.6-3.822v-.364c0-2.314 1.027-3.822 2.6-3.822 1.56 0 2.587 1.508 2.587 3.822v.364zm1.362 3.939a.47.47 0 00.494.494.47.47 0 00.494-.494c0-.299-.208-.481-.494-.481-.286 0-.494.182-.494.481zm4.999-5.603c-.962 0-1.82.338-2.366 1.105l.247-3.549h4.511V.9h-5.122l-.325 5.083.65.026c.39-1.066 1.482-1.43 2.314-1.43 1.456 0 2.353 1.027 2.353 2.431 0 1.612-1.157 2.444-2.405 2.444-1.482 0-2.34-.988-2.444-2.171h-.676c.104 1.508 1.196 2.782 3.12 2.782 1.638 0 3.094-1.066 3.094-3.068 0-1.768-1.183-3.029-2.951-3.029zm10.871-.637c-1.235 0-2.093.663-2.509 1.586l-.104-1.508h-.572V12.6h.663V8.479c.377.962 1.274 1.599 2.522 1.599 1.807 0 3.107-1.378 3.107-3.38 0-2.067-1.3-3.367-3.107-3.367zm-.052 6.149c-1.469 0-2.483-1.144-2.483-2.795 0-1.612 1.014-2.769 2.483-2.769s2.483 1.157 2.483 2.782c0 1.638-1.014 2.782-2.483 2.782zm7.383.598c1.859 0 3.172-1.378 3.172-3.38 0-1.989-1.313-3.367-3.172-3.367-1.859 0-3.159 1.378-3.159 3.367 0 2.002 1.3 3.38 3.159 3.38zm0-.598c-1.469 0-2.483-1.144-2.483-2.782 0-1.625 1.014-2.782 2.483-2.782s2.483 1.157 2.483 2.782c0 1.638-1.014 2.782-2.483 2.782zm4.827-7.462c.26 0 .468-.195.468-.468a.458.458 0 00-.468-.468.458.458 0 00-.468.468c0 .273.208.468.468.468zM221.551 10h.663V3.409h-.663V10zm5.264-6.669c-1.209 0-1.989.624-2.366 1.482l-.104-1.404h-.572V10h.663V6.75c0-1.716.871-2.808 2.275-2.808 1.274 0 2.041.832 2.041 2.392V10h.663V6.308c0-2.08-1.105-2.977-2.6-2.977zm4.562 5.135c0 1.053.429 1.534 1.547 1.534h.962v-.611h-.91c-.689 0-.936-.26-.936-.936V4.02h1.781v-.611h-1.781V1.563h-.663v1.846h-1.248v.611h1.248v4.446zm3.218-.494c.052 1.365 1.157 2.106 2.808 2.106 1.417 0 2.561-.715 2.561-1.885 0-1.391-1.222-1.664-2.639-1.859-1.027-.143-1.937-.26-1.937-1.183 0-.754.741-1.248 1.859-1.248 1.053 0 1.807.507 1.924 1.365h.676c-.117-1.287-1.17-1.937-2.6-1.937-1.469-.013-2.522.741-2.522 1.872 0 1.326 1.222 1.573 2.574 1.755 1.105.156 2.002.299 2.002 1.274 0 .78-.819 1.274-1.898 1.274-1.261 0-2.08-.585-2.132-1.534h-.676z" fill="#000"/></svg>