<svg width="148" height="31" viewBox="0 0 148 31" fill="none" xmlns="http://www.w3.org/2000/svg"><rect y=".5" width="148" height="30" rx="15" fill="#000"/><path d="M9.156 21.5h1.479v-5.202h4.896v-1.36h-4.896V10.96h5.916V9.6H9.156v11.9zm14.398-4.335c0 1.955-.952 3.162-2.533 3.162-1.445 0-2.26-.952-2.26-2.754V12.83h-1.395v4.828c0 2.873 1.513 3.944 3.417 3.944 1.428 0 2.261-.612 2.771-1.258l.187 1.156h1.207v-8.67h-1.394v4.335zm7.545-4.437c-1.462 0-2.346.612-2.857 1.275l-.187-1.173H26.85v8.67h1.393v-4.335c0-1.955.986-3.162 2.618-3.162 1.514 0 2.346.952 2.346 2.754V21.5H34.6v-4.828c0-2.873-1.547-3.944-3.502-3.944zm12.013 1.428c-.527-.833-1.513-1.428-2.975-1.428-2.397 0-4.165 1.785-4.165 4.437 0 2.822 1.768 4.437 4.165 4.437 1.462 0 2.397-.697 2.975-1.496L43.3 21.5h1.207V9.6h-1.394v4.556zm-2.839 6.205c-1.717 0-2.873-1.309-2.873-3.196 0-1.887 1.156-3.196 2.873-3.196 1.7 0 2.856 1.326 2.856 3.23 0 1.853-1.156 3.162-2.856 3.162zm20.254-7.633c-1.547 0-2.482.714-3.009 1.649-.493-1.105-1.53-1.649-2.737-1.649-1.343 0-2.074.663-2.533 1.292l-.187-1.19h-1.207v8.67h1.394v-4.573c0-1.734.867-2.924 2.295-2.924 1.326 0 2.091.884 2.091 2.584V21.5h1.394v-4.641c0-1.768.884-2.856 2.33-2.856 1.308 0 2.056.884 2.056 2.584V21.5h1.394v-4.998c0-2.737-1.479-3.774-3.28-3.774zm7.27 8.823l-.425 1.054c-.323.816-.459 1.02-1.258 1.02h-1.24V24.9h1.665c1.224 0 1.547-.544 2.091-1.938l3.995-10.132h-1.479l-2.584 6.919-2.669-6.919h-1.479l3.383 8.721zm17.984-1.326c-.39 0-.56-.119-.56-.578v-3.791c0-2.023-1.276-3.128-3.486-3.128-2.09 0-3.468 1.003-3.672 2.703h1.394c.17-.884.986-1.462 2.21-1.462 1.36 0 2.16.68 2.16 1.802v.595h-2.55c-2.279 0-3.486.969-3.486 2.703 0 1.581 1.292 2.533 3.196 2.533 1.496 0 2.363-.663 2.907-1.445.017.85.408 1.343 1.564 1.343h.765v-1.275h-.442zm-1.955-2.261c0 1.445-1.003 2.448-2.737 2.448-1.156 0-1.887-.578-1.887-1.428 0-.986.697-1.445 1.938-1.445h2.686v.425zm7.262 3.638c2.108 0 3.52-1.19 3.86-3.06h-1.48c-.272 1.105-1.122 1.819-2.363 1.819-1.666 0-2.788-1.292-2.788-3.179 0-1.887 1.122-3.213 2.788-3.213 1.275 0 2.125.697 2.38 1.853h1.462c-.357-1.904-1.7-3.094-3.825-3.094-2.516 0-4.233 1.802-4.233 4.454 0 2.703 1.666 4.42 4.2 4.42zm9.28 0c2.108 0 3.519-1.19 3.859-3.06h-1.479c-.272 1.105-1.122 1.819-2.363 1.819-1.666 0-2.788-1.292-2.788-3.179 0-1.887 1.122-3.213 2.788-3.213 1.275 0 2.125.697 2.38 1.853h1.462c-.357-1.904-1.7-3.094-3.825-3.094-2.516 0-4.233 1.802-4.233 4.454 0 2.703 1.666 4.42 4.199 4.42zm9.383 0c2.533 0 4.301-1.802 4.301-4.437 0-2.635-1.768-4.437-4.301-4.437-2.533 0-4.301 1.802-4.301 4.437 0 2.635 1.768 4.437 4.301 4.437zm0-1.241c-1.717 0-2.873-1.343-2.873-3.196 0-1.853 1.156-3.196 2.873-3.196 1.717 0 2.873 1.343 2.873 3.196 0 1.853-1.156 3.196-2.873 3.196zm11.968-3.196c0 1.955-.952 3.162-2.533 3.162-1.445 0-2.261-.952-2.261-2.754V12.83h-1.394v4.828c0 2.873 1.513 3.944 3.417 3.944 1.428 0 2.261-.612 2.771-1.258l.187 1.156h1.207v-8.67h-1.394v4.335zm7.545-4.437c-1.462 0-2.346.612-2.856 1.275l-.187-1.173h-1.207v8.67h1.394v-4.335c0-1.955.986-3.162 2.618-3.162 1.513 0 2.346.952 2.346 2.754V21.5h1.394v-4.828c0-2.873-1.547-3.944-3.502-3.944zm5.925 6.511c0 1.53.595 2.261 2.261 2.261h1.513v-1.275h-1.377c-.748 0-1.003-.272-1.003-1.003v-5.117h2.244V12.83h-2.244v-2.431h-1.394v2.431h-1.564v1.275h1.564v5.134z" fill="#fff"/></svg>