<svg width="255" height="40" viewBox="0 0 255 40" fill="none" xmlns="http://www.w3.org/2000/svg"><path d="M.34.95h4.08V12h.918V.95h4.08V.1H.34v.85zm13.031 2.431c-1.598 0-2.278.765-2.635 1.717L10.6 3.381h-.748V12h.867V7.631c0-1.751.459-3.417 2.482-3.417h.629v-.833h-.459zm8.96 7.82c-.51 0-.764-.17-.764-.833V6.356c0-1.972-1.207-3.077-3.366-3.077-1.973 0-3.282.952-3.503 2.516h.867c.222-1.054 1.14-1.751 2.601-1.751 1.616 0 2.534.85 2.534 2.278v.748h-2.924c-2.21 0-3.4.952-3.4 2.567 0 1.53 1.207 2.465 3.043 2.465 1.75 0 2.787-.799 3.314-1.87v.306C20.7 11.558 21.125 12 22.145 12h.51v-.799h-.324zM20.7 8.515c0 1.649-1.174 2.839-3.213 2.839-1.377 0-2.227-.697-2.227-1.768 0-1.139.85-1.768 2.447-1.768H20.7v.697zm10.02-3.196c-.528-1.224-1.684-2.04-3.299-2.04-2.363 0-4.063 1.802-4.063 4.403 0 2.72 1.7 4.42 4.063 4.42 1.615 0 2.737-.867 3.281-2.074L30.838 12h.748V.1h-.867v5.219zm-3.23 6.001c-1.922 0-3.248-1.496-3.248-3.638 0-2.125 1.326-3.638 3.247-3.638 1.921 0 3.247 1.513 3.247 3.655 0 2.125-1.326 3.621-3.247 3.621zm9.944.782c1.887 0 3.332-1.224 3.706-2.958h-.885c-.34 1.343-1.479 2.176-2.89 2.176-1.92 0-3.128-1.462-3.162-3.468v-.153h7.038c0-.119.017-.255.017-.357-.085-2.567-1.666-4.063-3.977-4.063-2.364 0-3.978 1.802-3.978 4.352 0 2.703 1.683 4.471 4.13 4.471zm-3.162-5.134c.136-1.751 1.445-2.924 3.026-2.924 1.682 0 2.89 1.037 3.026 2.924h-6.052zM46.874.95h4.08V12h.918V.95h4.08V.1h-9.078v.85zm12.723 11.152c1.887 0 3.332-1.224 3.706-2.958h-.884c-.34 1.343-1.48 2.176-2.89 2.176-1.921 0-3.128-1.462-3.162-3.468v-.153h7.038c0-.119.017-.255.017-.357-.085-2.567-1.666-4.063-3.978-4.063-2.363 0-3.978 1.802-3.978 4.352 0 2.703 1.683 4.471 4.13 4.471zm-3.162-5.134c.136-1.751 1.445-2.924 3.026-2.924 1.683 0 2.89 1.037 3.026 2.924h-6.052zm8.293 2.38c.068 1.785 1.513 2.754 3.672 2.754 1.853 0 3.349-.935 3.349-2.465 0-1.819-1.598-2.176-3.451-2.431-1.343-.187-2.533-.34-2.533-1.547 0-.986.969-1.632 2.43-1.632 1.378 0 2.364.663 2.517 1.785h.884c-.153-1.683-1.53-2.533-3.4-2.533-1.921-.017-3.298.969-3.298 2.448 0 1.734 1.598 2.057 3.366 2.295 1.445.204 2.618.391 2.618 1.666 0 1.02-1.071 1.666-2.482 1.666-1.65 0-2.72-.765-2.788-2.006h-.884zM73.403 12h.867V.1h-.867V12zm10.487-.799c-.51 0-.765-.17-.765-.833V6.356c0-1.972-1.207-3.077-3.366-3.077-1.972 0-3.28.952-3.502 2.516h.867c.221-1.054 1.14-1.751 2.601-1.751 1.615 0 2.533.85 2.533 2.278v.748h-2.924c-2.21 0-3.4.952-3.4 2.567 0 1.53 1.207 2.465 3.043 2.465 1.751 0 2.788-.799 3.315-1.87v.306c-.034 1.02.391 1.462 1.411 1.462h.51v-.799h-.323zm-1.632-2.686c0 1.649-1.173 2.839-3.213 2.839-1.377 0-2.227-.697-2.227-1.768 0-1.139.85-1.768 2.448-1.768h2.992v.697zm8.343 1.479c0 1.377.56 2.006 2.023 2.006h1.258v-.799h-1.19c-.901 0-1.224-.34-1.224-1.224V4.18h2.329v-.799h-2.33V.967h-.866v2.414h-1.632v.799H90.6v5.814zm8.578-6.715c-1.615 0-2.618.901-3.111 2.142V.1H95.2V12h.867V7.75c0-2.244 1.139-3.672 2.975-3.672 1.649 0 2.669 1.088 2.669 3.128V12h.867V7.172c0-2.72-1.445-3.893-3.4-3.893zm5.777-1.717c.34 0 .612-.255.612-.612a.599.599 0 00-.612-.612.599.599 0 00-.612.612c0 .357.272.612.612.612zM104.514 12h.867V3.381h-.867V12zm2.514-2.652c.068 1.785 1.513 2.754 3.672 2.754 1.853 0 3.349-.935 3.349-2.465 0-1.819-1.598-2.176-3.451-2.431-1.343-.187-2.533-.34-2.533-1.547 0-.986.969-1.632 2.431-1.632 1.377 0 2.363.663 2.516 1.785h.884c-.153-1.683-1.53-2.533-3.4-2.533-1.921-.017-3.298.969-3.298 2.448 0 1.734 1.598 2.057 3.366 2.295 1.445.204 2.618.391 2.618 1.666 0 1.02-1.071 1.666-2.482 1.666-1.649 0-2.72-.765-2.788-2.006h-.884zm17.066 2.754c1.887 0 3.332-1.224 3.706-2.958h-.884c-.34 1.343-1.479 2.176-2.89 2.176-1.921 0-3.128-1.462-3.162-3.468v-.153h7.038c0-.119.017-.255.017-.357-.085-2.567-1.666-4.063-3.978-4.063-2.363 0-3.978 1.802-3.978 4.352 0 2.703 1.683 4.471 4.131 4.471zm-3.162-5.134c.136-1.751 1.445-2.924 3.026-2.924 1.683 0 2.89 1.037 3.026 2.924h-6.052zm16.282 4.233c-.51 0-.765-.17-.765-.833V6.356c0-1.972-1.207-3.077-3.366-3.077-1.972 0-3.281.952-3.502 2.516h.867c.221-1.054 1.139-1.751 2.601-1.751 1.615 0 2.533.85 2.533 2.278v.748h-2.924c-2.21 0-3.4.952-3.4 2.567 0 1.53 1.207 2.465 3.043 2.465 1.751 0 2.788-.799 3.315-1.87v.306c-.034 1.02.391 1.462 1.411 1.462h.51v-.799h-.323zm-1.632-2.686c0 1.649-1.173 2.839-3.213 2.839-1.377 0-2.227-.697-2.227-1.768 0-1.139.85-1.768 2.448-1.768h2.992v.697zm6.634-5.134c-1.598 0-2.278.765-2.635 1.717l-.136-1.717h-.748V12h.867V7.631c0-1.751.459-3.417 2.482-3.417h.629v-.833h-.459zm5.721-.102c-1.581 0-2.601.816-3.094 1.938l-.136-1.836h-.748V12h.867V7.75c0-2.244 1.139-3.672 2.975-3.672 1.666 0 2.669 1.088 2.669 3.128V12h.867V7.172c0-2.72-1.445-3.893-3.4-3.893zm5.761-1.717c.34 0 .612-.255.612-.612a.599.599 0 00-.612-.612.599.599 0 00-.612.612c0 .357.272.612.612.612zM153.256 12h.867V3.381h-.867V12zm6.884-8.721c-1.581 0-2.601.816-3.094 1.938l-.136-1.836h-.748V12h.867V7.75c0-2.244 1.139-3.672 2.975-3.672 1.666 0 2.669 1.088 2.669 3.128V12h.867V7.172c0-2.72-1.445-3.893-3.4-3.893zm12.339 2.108c-.527-1.275-1.683-2.108-3.281-2.108-2.363 0-4.063 1.785-4.063 4.403 0 2.72 1.7 4.42 4.063 4.42 1.615 0 2.754-.85 3.298-2.193v1.53c0 2.295-1.088 3.281-3.162 3.281-1.615 0-2.737-.731-3.009-2.04h-.901c.272 1.836 1.751 2.822 3.842 2.822 2.788 0 4.097-1.326 4.097-4.029V3.381h-.748l-.136 2.006zm-3.213 5.933c-1.921 0-3.247-1.496-3.247-3.638s1.326-3.638 3.247-3.638c1.921 0 3.247 1.496 3.247 3.655 0 2.125-1.326 3.621-3.247 3.621zm5.746-1.972c.068 1.785 1.513 2.754 3.672 2.754 1.853 0 3.349-.935 3.349-2.465 0-1.819-1.598-2.176-3.451-2.431-1.343-.187-2.533-.34-2.533-1.547 0-.986.969-1.632 2.431-1.632 1.377 0 2.363.663 2.516 1.785h.884c-.153-1.683-1.53-2.533-3.4-2.533-1.921-.017-3.298.969-3.298 2.448 0 1.734 1.598 2.057 3.366 2.295 1.445.204 2.618.391 2.618 1.666 0 1.02-1.071 1.666-2.482 1.666-1.649 0-2.72-.765-2.788-2.006h-.884zm12.866 0c.068 1.785 1.513 2.754 3.672 2.754 1.853 0 3.349-.935 3.349-2.465 0-1.819-1.598-2.176-3.451-2.431-1.343-.187-2.533-.34-2.533-1.547 0-.986.969-1.632 2.431-1.632 1.377 0 2.363.663 2.516 1.785h.884c-.153-1.683-1.53-2.533-3.4-2.533-1.921-.017-3.298.969-3.298 2.448 0 1.734 1.598 2.057 3.366 2.295 1.445.204 2.618.391 2.618 1.666 0 1.02-1.071 1.666-2.482 1.666-1.649 0-2.72-.765-2.788-2.006h-.884zm12.483 2.754c1.887 0 3.332-1.224 3.706-2.958h-.884c-.34 1.343-1.479 2.176-2.89 2.176-1.921 0-3.128-1.462-3.162-3.468v-.153h7.038c0-.119.017-.255.017-.357-.085-2.567-1.666-4.063-3.978-4.063-2.363 0-3.978 1.802-3.978 4.352 0 2.703 1.683 4.471 4.131 4.471zm-3.162-5.134c.136-1.751 1.445-2.924 3.026-2.924 1.683 0 2.89 1.037 3.026 2.924h-6.052zm16.283 4.233c-.51 0-.765-.17-.765-.833V6.356c0-1.972-1.207-3.077-3.366-3.077-1.972 0-3.281.952-3.502 2.516h.867c.221-1.054 1.139-1.751 2.601-1.751 1.615 0 2.533.85 2.533 2.278v.748h-2.924c-2.21 0-3.4.952-3.4 2.567 0 1.53 1.207 2.465 3.043 2.465 1.751 0 2.788-.799 3.315-1.87v.306c-.034 1.02.391 1.462 1.411 1.462h.51v-.799h-.323zm-1.632-2.686c0 1.649-1.173 2.839-3.213 2.839-1.377 0-2.227-.697-2.227-1.768 0-1.139.85-1.768 2.448-1.768h2.992v.697zm2.723.833c.068 1.785 1.513 2.754 3.672 2.754 1.853 0 3.349-.935 3.349-2.465 0-1.819-1.598-2.176-3.451-2.431-1.343-.187-2.533-.34-2.533-1.547 0-.986.969-1.632 2.431-1.632 1.377 0 2.363.663 2.516 1.785h.884c-.153-1.683-1.53-2.533-3.4-2.533-1.921-.017-3.298.969-3.298 2.448 0 1.734 1.598 2.057 3.366 2.295 1.445.204 2.618.391 2.618 1.666 0 1.02-1.071 1.666-2.482 1.666-1.649 0-2.72-.765-2.788-2.006h-.884zm12.484 2.754c2.431 0 4.148-1.802 4.148-4.42 0-2.601-1.717-4.403-4.148-4.403-2.431 0-4.131 1.802-4.131 4.403 0 2.618 1.7 4.42 4.131 4.42zm0-.782c-1.921 0-3.247-1.496-3.247-3.638 0-2.125 1.326-3.638 3.247-3.638 1.921 0 3.247 1.513 3.247 3.638 0 2.142-1.326 3.638-3.247 3.638zm9.848-8.041c-1.581 0-2.601.816-3.094 1.938l-.136-1.836h-.748V12h.867V7.75c0-2.244 1.139-3.672 2.975-3.672 1.666 0 2.669 1.088 2.669 3.128V12h.867V7.172c0-2.72-1.445-3.893-3.4-3.893zm5.676 7.531c-.459 0-.748.289-.748.663 0 .408.272.612.595.612.17 0 .34-.068.425-.204.119.119.153.289.153.442 0 .646-.408 1.309-1.275 1.343v.51c1.173-.051 1.904-.833 1.904-1.955 0-.782-.442-1.411-1.054-1.411zM3.111 36h.935l2.55-7.242L9.027 36h.935l3.06-8.619h-.884l-2.652 7.582-2.465-7.582h-.799l-2.601 7.582-2.516-7.582H.187L3.111 36zm11.566-10.438c.34 0 .612-.255.612-.612a.599.599 0 00-.612-.612.599.599 0 00-.612.612c0 .357.272.612.612.612zM14.235 36h.867v-8.619h-.867V36zm3.551-2.006c0 1.377.561 2.006 2.023 2.006h1.258v-.799h-1.19c-.9 0-1.224-.34-1.224-1.224V28.18h2.33v-.799h-2.33v-2.414h-.867v2.414h-1.632v.799h1.632v5.814zm8.578-6.715c-1.615 0-2.618.901-3.11 2.142V24.1h-.868V36h.867v-4.25c0-2.244 1.14-3.672 2.975-3.672 1.65 0 2.67 1.088 2.67 3.128V36h.866v-4.828c0-2.72-1.445-3.893-3.4-3.893zm13.896 0c-1.581 0-2.601.816-3.094 1.938l-.136-1.836h-.748V36h.867v-4.25c0-2.244 1.139-3.672 2.975-3.672 1.666 0 2.669 1.088 2.669 3.128V36h.867v-4.828c0-2.72-1.445-3.893-3.4-3.893zm8.994 8.823c1.887 0 3.332-1.224 3.706-2.958h-.884c-.34 1.343-1.48 2.176-2.89 2.176-1.921 0-3.128-1.462-3.162-3.468v-.153h7.038c0-.119.017-.255.017-.357-.085-2.567-1.666-4.063-3.978-4.063-2.363 0-3.978 1.802-3.978 4.352 0 2.703 1.683 4.471 4.13 4.471zm-3.162-5.134c.136-1.751 1.445-2.924 3.026-2.924 1.683 0 2.89 1.037 3.026 2.924h-6.052zM56.618 36h.935l2.55-7.242L62.533 36h.936l3.06-8.619h-.884l-2.652 7.582-2.465-7.582h-.8l-2.6 7.582-2.516-7.582h-.918L56.618 36zm19.837.102c2.329 0 3.842-1.36 4.114-3.06h-2.363c-.204.816-.884 1.241-1.853 1.241-1.207 0-2.006-.748-2.057-1.989v-.119h6.34a4.53 4.53 0 00.069-.816c-.034-2.567-1.802-4.199-4.42-4.199-2.703 0-4.488 1.768-4.488 4.488 0 2.703 1.75 4.454 4.658 4.454zm-2.108-5.491c.136-1.037.918-1.666 1.955-1.666 1.088 0 1.819.595 1.989 1.666h-3.944zM80.682 36h2.567l1.99-2.737L87.243 36h2.737l-3.247-4.454 3.077-4.284h-2.584l-1.853 2.584-1.802-2.584h-2.737l3.094 4.284L80.682 36zm10.843-2.499c0 1.666.834 2.499 2.5 2.499h1.954v-2.023h-1.19c-.629 0-.867-.255-.867-.867v-3.825h2.007v-2.023h-2.007v-2.448h-2.397v2.448H90.08v2.023h1.445v4.216zm9.749 2.601c2.329 0 3.842-1.36 4.114-3.06h-2.363c-.204.816-.884 1.241-1.853 1.241-1.207 0-2.006-.748-2.057-1.989v-.119h6.341a4.53 4.53 0 00.068-.816c-.034-2.567-1.802-4.199-4.42-4.199-2.703 0-4.488 1.768-4.488 4.488 0 2.703 1.751 4.454 4.658 4.454zm-2.108-5.491c.136-1.037.918-1.666 1.955-1.666 1.088 0 1.819.595 1.989 1.666h-3.944zm12.683-3.451c-1.343 0-2.142.51-2.703 1.19l-.221-1.088h-2.091V36h2.397v-4.471c0-1.513.714-2.397 1.955-2.397 1.207 0 1.768.782 1.768 2.261V36h2.397v-4.845c0-2.992-1.615-3.995-3.502-3.995zm11.32 1.19c-.561-.714-1.428-1.19-2.635-1.19-2.329 0-4.046 1.751-4.046 4.454 0 2.771 1.717 4.488 4.063 4.488 1.258 0 2.108-.561 2.686-1.309l.238 1.207h2.091V24.1h-2.397v4.25zm-2.091 5.797c-1.309 0-2.142-1.02-2.142-2.516s.833-2.516 2.142-2.516 2.125 1.037 2.125 2.533c0 1.479-.816 2.499-2.125 2.499zm10.477 1.955c2.329 0 3.842-1.36 4.114-3.06h-2.363c-.204.816-.884 1.241-1.853 1.241-1.207 0-2.006-.748-2.057-1.989v-.119h6.341a4.53 4.53 0 00.068-.816c-.034-2.567-1.802-4.199-4.42-4.199-2.703 0-4.488 1.768-4.488 4.488 0 2.703 1.751 4.454 4.658 4.454zm-2.108-5.491c.136-1.037.918-1.666 1.955-1.666 1.088 0 1.819.595 1.989 1.666h-3.944zm14.009-2.261c-.561-.714-1.428-1.19-2.635-1.19-2.329 0-4.046 1.751-4.046 4.454 0 2.771 1.717 4.488 4.063 4.488 1.258 0 2.108-.561 2.686-1.309l.238 1.207h2.091V24.1h-2.397v4.25zm-2.091 5.797c-1.309 0-2.142-1.02-2.142-2.516s.833-2.516 2.142-2.516 2.125 1.037 2.125 2.533c0 1.479-.816 2.499-2.125 2.499zm15.357-6.987c-1.241 0-2.023.493-2.584 1.173V24.1h-2.397V36h2.397v-4.488c0-1.496.731-2.38 1.955-2.38 1.19 0 1.768.799 1.768 2.227V36h2.397v-4.845c0-2.958-1.598-3.995-3.536-3.995zm9.28 8.942c2.788 0 4.607-1.768 4.607-4.471 0-2.686-1.819-4.471-4.607-4.471-2.788 0-4.607 1.785-4.607 4.471s1.819 4.471 4.607 4.471zm0-1.955c-1.343 0-2.159-1.037-2.159-2.516s.816-2.516 2.159-2.516 2.176 1.037 2.176 2.516-.833 2.516-2.176 2.516zm11.758-2.516c0 1.615-.697 2.482-1.887 2.482s-1.7-.765-1.7-2.329v-4.522h-2.397v4.845c0 3.094 1.666 3.995 3.468 3.995 1.241 0 2.006-.476 2.567-1.156l.221 1.054h2.125v-8.738h-2.397v4.369zm8.976-4.369c-1.36 0-2.04.527-2.516 1.309l-.221-1.309h-2.176V36h2.397v-4.284c0-1.326.544-2.278 1.972-2.278h.952v-2.176h-.408zm.955 5.831c.102 1.87 1.751 3.009 4.182 3.009 2.346 0 3.978-1.105 3.978-2.839 0-1.972-1.666-2.431-3.672-2.635-1.258-.153-2.006-.221-2.006-.884 0-.561.612-.901 1.547-.901.969 0 1.632.425 1.7 1.122h2.295c-.119-1.785-1.734-2.822-4.08-2.822-2.244-.017-3.757 1.122-3.757 2.856 0 1.802 1.581 2.261 3.621 2.499 1.411.187 2.006.238 2.006.952 0 .612-.612.935-1.615.935-1.173 0-1.836-.527-1.921-1.292h-2.278zm14.837.901c0 1.377.561 2.006 2.023 2.006h1.258v-.799h-1.19c-.901 0-1.224-.34-1.224-1.224V28.18h2.329v-.799h-2.329v-2.414h-.867v2.414h-1.632v.799h1.632v5.814zm8.119-6.613c-1.598 0-2.278.765-2.635 1.717l-.136-1.717h-.748V36h.867v-4.369c0-1.751.459-3.417 2.482-3.417h.629v-.833h-.459zm8.961 7.82c-.51 0-.765-.17-.765-.833v-4.012c0-1.972-1.207-3.077-3.366-3.077-1.972 0-3.281.952-3.502 2.516h.867c.221-1.054 1.139-1.751 2.601-1.751 1.615 0 2.533.85 2.533 2.278v.748h-2.924c-2.21 0-3.4.952-3.4 2.567 0 1.53 1.207 2.465 3.043 2.465 1.751 0 2.788-.799 3.315-1.87v.306c-.034 1.02.391 1.462 1.411 1.462h.51v-.799h-.323zm-1.632-2.686c0 1.649-1.173 2.839-3.213 2.839-1.377 0-2.227-.697-2.227-1.768 0-1.139.85-1.768 2.448-1.768h2.992v.697zm10.02-3.196c-.527-1.224-1.683-2.04-3.298-2.04-2.363 0-4.063 1.802-4.063 4.403 0 2.72 1.7 4.42 4.063 4.42 1.615 0 2.737-.867 3.281-2.074l.136 1.972h.748V24.1h-.867v5.219zm-3.23 6.001c-1.921 0-3.247-1.496-3.247-3.638 0-2.125 1.326-3.638 3.247-3.638 1.921 0 3.247 1.513 3.247 3.655 0 2.125-1.326 3.621-3.247 3.621zm6.578-9.758c.34 0 .612-.255.612-.612a.599.599 0 00-.612-.612.599.599 0 00-.612.612c0 .357.272.612.612.612zM230.902 36h.867v-8.619h-.867V36zm6.883-8.721c-1.581 0-2.601.816-3.094 1.938l-.136-1.836h-.748V36h.867v-4.25c0-2.244 1.139-3.672 2.975-3.672 1.666 0 2.669 1.088 2.669 3.128V36h.867v-4.828c0-2.72-1.445-3.893-3.4-3.893zm12.34 2.108c-.527-1.275-1.683-2.108-3.281-2.108-2.363 0-4.063 1.785-4.063 4.403 0 2.72 1.7 4.42 4.063 4.42 1.615 0 2.754-.85 3.298-2.193v1.53c0 2.295-1.088 3.281-3.162 3.281-1.615 0-2.737-.731-3.009-2.04h-.901c.272 1.836 1.751 2.822 3.842 2.822 2.788 0 4.097-1.326 4.097-4.029v-8.092h-.748l-.136 2.006zm-3.213 5.933c-1.921 0-3.247-1.496-3.247-3.638s1.326-3.638 3.247-3.638c1.921 0 3.247 1.496 3.247 3.655 0 2.125-1.326 3.621-3.247 3.621zm6.034.119c0 .391.272.646.646.646s.646-.255.646-.646-.272-.629-.646-.629-.646.238-.646.629z" fill="#000"/></svg>