<svg width="122" height="15" viewBox="0 0 122 15" fill="none" xmlns="http://www.w3.org/2000/svg"><path d="M4.073 3.446A5.944 5.944 0 015.93 2.211a5.691 5.691 0 012.251-.448c.879 0 1.586.105 2.12.317a6.101 6.101 0 011.553.918c.243.173.493.252.751.234.256-.018.477-.105.66-.263a.744.744 0 00.273-.59c0-.113-.011-.208-.03-.291a.668.668 0 00-.123-.243 1.077 1.077 0 00-.254-.234c-.758-.574-1.511-.986-2.263-1.235C10.12.126 9.224 0 8.181 0c-1.11 0-2.137.194-3.083.58a7.85 7.85 0 00-2.486 1.601A7.4 7.4 0 00.948 4.56 7.192 7.192 0 00.35 7.49a7.305 7.305 0 002.262 5.347 7.656 7.656 0 002.495 1.591A8.183 8.183 0 008.18 15c.92 0 1.796-.137 2.628-.412a8.383 8.383 0 002.344-1.217 1.03 1.03 0 00.243-.328.899.899 0 00.08-.365c0-.275-.08-.49-.242-.647a.952.952 0 00-.598-.263c-.237-.018-.478.052-.72.216-.568.386-1.162.69-1.777.908a5.813 5.813 0 01-1.958.327c-.799 0-1.548-.147-2.25-.44a5.844 5.844 0 01-1.858-1.227 5.608 5.608 0 01-1.695-4.063c0-.786.149-1.526.447-2.22.298-.69.714-1.3 1.248-1.823zM17.618.188c-.298 0-.548.091-.752.271a.895.895 0 00-.304.701v12.678c0 .275.1.505.304.693.204.186.454.281.752.281.31 0 .565-.093.76-.28a.917.917 0 00.293-.694V1.16a.912.912 0 00-.293-.701c-.195-.18-.45-.27-.76-.27zM32.652.188H21.798a.998.998 0 00-.7.253.843.843 0 00-.274.647c0 .262.092.477.274.646.181.168.416.253.7.253h4.383V13.84c0 .275.1.505.304.693.204.186.453.281.751.281s.547-.093.751-.28a.904.904 0 00.305-.694V1.985h4.362a.998.998 0 00.7-.253.842.842 0 00.275-.646.845.845 0 00-.274-.647c-.184-.168-.418-.25-.703-.25zM48.84.423a.846.846 0 00-.609-.235c-.217 0-.398.04-.547.121-.15.081-.279.196-.386.346l-4.829 7.03L37.721.732a1.587 1.587 0 00-.385-.402C37.2.237 37.02.19 36.79.19c-.257 0-.484.073-.68.216a.853.853 0 00-.354.562c-.042.23.026.477.204.74l5.415 7.772v4.364c0 .275.101.505.305.693.203.186.447.281.731.281.298 0 .548-.093.751-.28a.905.905 0 00.305-.694V9.476l5.457-7.772c.162-.236.23-.47.204-.701a.953.953 0 00-.287-.58zM59.575.188c-.298 0-.547.091-.751.271a.895.895 0 00-.305.701v12.678c0 .275.101.505.305.693.204.186.453.281.751.281.31 0 .565-.093.76-.28a.917.917 0 00.293-.694V1.16a.912.912 0 00-.293-.701c-.195-.18-.45-.27-.76-.27zM75.557.188c-.298 0-.547.091-.751.271a.895.895 0 00-.304.701v10.244L65.656.544a1.055 1.055 0 00-.812-.356 1.05 1.05 0 00-.74.271.908.908 0 00-.294.701v12.678c0 .275.099.505.294.693.195.186.442.281.74.281.31 0 .565-.093.76-.28a.925.925 0 00.293-.694V3.614l8.846 10.86a.87.87 0 00.374.253c.155.057.3.085.436.085.31 0 .56-.093.75-.28a.942.942 0 00.286-.694V1.16a.92.92 0 00-.285-.701c-.184-.18-.436-.27-.747-.27z" fill="#fff"/><path fill-rule="evenodd" clip-rule="evenodd" d="M90.063 2.238A7.381 7.381 0 0087.578.722c-.953-.356-2.013-.534-3.176-.534H80.73c-.298 0-.548.091-.751.271a.895.895 0 00-.305.701v12.678c0 .275.101.505.305.693.203.186.453.281.75.281h3.673c1.163 0 2.221-.178 3.176-.534a7.402 7.402 0 002.485-1.515 6.726 6.726 0 001.623-2.323c.379-.891.567-1.876.567-2.949s-.188-2.054-.567-2.939a6.751 6.751 0 00-1.623-2.314zm-.589 8.146a5.365 5.365 0 01-2.058 1.984c-.872.482-1.877.722-3.014.722h-2.617V1.91h2.617c1.137 0 2.14.237 3.014.712a5.305 5.305 0 012.058 1.966c.5.837.751 1.803.751 2.903 0 1.085-.25 2.05-.75 2.893z" fill="#fff"/><path d="M105.308 1.985c.311 0 .56-.08.751-.245a.802.802 0 00.285-.636.845.845 0 00-.285-.665c-.188-.168-.44-.253-.751-.253h-9.172c-.297 0-.547.09-.75.27a.895.895 0 00-.305.702v12.678c0 .275.1.505.304.693.204.186.453.281.751.281h9.172c.311 0 .56-.085.751-.253a.851.851 0 00.285-.665.796.796 0 00-.285-.636c-.188-.162-.44-.245-.751-.245h-8.116V8.334h5.823c.311 0 .561-.085.751-.253a.831.831 0 00.285-.647.824.824 0 00-.285-.647c-.188-.167-.44-.252-.751-.252h-5.823v-4.55h8.116zM116.75 7.414l4.625-5.692c.162-.224.237-.455.224-.693a.89.89 0 00-.263-.598c-.162-.162-.386-.245-.67-.245-.311 0-.561.093-.751.28l-4.547 5.584-4.36-5.581c-.149-.188-.399-.281-.751-.281-.285 0-.51.087-.679.263a1.03 1.03 0 00-.293.618.855.855 0 00.203.655l4.457 5.706-4.722 5.81c-.162.2-.243.42-.243.665 0 .242.081.456.243.636.162.182.399.271.71.271.284 0 .528-.093.731-.28l4.658-5.721 4.413 5.645a.967.967 0 00.355.271c.129.057.28.085.457.085.298 0 .53-.087.701-.263a.955.955 0 00.274-.636.963.963 0 00-.223-.676l-4.549-5.823z" fill="#fff"/></svg>