<svg width="147" height="9" viewBox="0 0 147 9" fill="none" xmlns="http://www.w3.org/2000/svg"><path d="M.2 2.02h2.16V8h1.15V2.02h2.16V1H.2v1.02zm8.31.86c-.84 0-1.25.34-1.51.77l-.12-.77h-.96V8H7V5.43c0-.79.31-1.54 1.27-1.54h.48V2.88h-.24zm5.43 4.18c-.22 0-.33-.07-.33-.33V4.68c0-1.21-.78-1.86-2.14-1.86-1.29 0-2.15.62-2.26 1.62h1.06c.08-.45.51-.75 1.15-.75.71 0 1.12.35 1.12.92v.31h-1.29c-1.43 0-2.19.59-2.19 1.64 0 .95.78 1.5 1.9 1.5.83 0 1.35-.36 1.69-.88 0 .51.24.82.94.82h.57v-.94h-.22zm-1.4-1.16c-.01.79-.53 1.32-1.43 1.32-.59 0-.95-.3-.95-.73 0-.52.37-.77 1.04-.77h1.34v.18zm6.06-2.31c-.33-.45-.88-.77-1.66-.77-1.39 0-2.42 1.04-2.42 2.62 0 1.64 1.03 2.62 2.42 2.62.81 0 1.34-.38 1.67-.83l.13.77h.94V1H18.6v2.59zm-1.48 3.56c-.9 0-1.49-.7-1.49-1.71 0-1 .59-1.7 1.49-1.7s1.49.7 1.49 1.72c0 .99-.59 1.69-1.49 1.69zm6.045.91c1.27 0 2.13-.77 2.31-1.78h-1.08c-.15.57-.63.9-1.29.9-.85 0-1.4-.57-1.43-1.44v-.07h3.86c.02-.14.03-.28.03-.41-.03-1.5-1.02-2.44-2.5-2.44-1.51 0-2.52 1.05-2.52 2.63 0 1.57 1.01 2.61 2.62 2.61zm-1.45-3.18c.08-.73.67-1.19 1.36-1.19.75 0 1.28.43 1.37 1.19h-2.73zm10.952-.52c.65-.15 1.21-.74 1.21-1.56 0-1.09-.94-1.86-2.44-1.86-1.49 0-2.43.77-2.43 1.86 0 .85.56 1.41 1.2 1.57-.75.17-1.39.75-1.39 1.72 0 1.16.97 1.97 2.62 1.97 1.65 0 2.63-.81 2.63-1.97 0-.99-.65-1.57-1.4-1.73zm-1.23-2.56c.8 0 1.32.42 1.32 1.03 0 .62-.52 1.04-1.32 1.04-.79 0-1.31-.42-1.31-1.04 0-.61.52-1.03 1.31-1.03zm0 5.41c-.88 0-1.49-.5-1.49-1.18 0-.68.61-1.17 1.49-1.17.89 0 1.5.49 1.5 1.17 0 .68-.61 1.18-1.5 1.18zm3.107-.83h3.57V8h1.09V6.38h1.06v-.96h-1.06V1h-1.3l-3.36 4.44v.94zm3.57-4.17v3.21h-2.43l2.43-3.21zM43.57 8h1.15V5.04h2.74v-.99h-2.74V2.02h3.32V1h-4.47v7zm4.841 0h1.3l1.72-2.69L53.141 8h1.37l-2.33-3.63L54.371 1h-1.3l-1.6 2.49L49.901 1h-1.36l2.19 3.42L48.411 8zm9.416 0h1.15V5.46h1.61c1.46 0 2.42-.88 2.42-2.23 0-1.36-.96-2.23-2.42-2.23h-2.76v7zm2.67-6c.82 0 1.34.47 1.34 1.23 0 .75-.53 1.23-1.35 1.23h-1.51V2h1.52zm7.662 5.06c-.22 0-.33-.07-.33-.33V4.68c0-1.21-.78-1.86-2.14-1.86-1.29 0-2.15.62-2.26 1.62h1.06c.08-.45.51-.75 1.15-.75.71 0 1.12.35 1.12.92v.31h-1.29c-1.43 0-2.19.59-2.19 1.64 0 .95.78 1.5 1.9 1.5.83 0 1.35-.36 1.69-.88 0 .51.24.82.94.82h.57v-.94h-.22zm-1.4-1.16c-.01.79-.53 1.32-1.43 1.32-.59 0-.95-.3-.95-.73 0-.52.37-.77 1.04-.77h1.34v.18zm2.758-3.74c.37 0 .66-.27.66-.65s-.29-.65-.66-.65c-.37 0-.66.27-.66.65s.29.65.66.65zM68.968 8h1.08V2.88h-1.08V8zm4.73-5.12c-.84 0-1.25.34-1.51.77l-.12-.77h-.96V8h1.08V5.43c0-.79.31-1.54 1.27-1.54h.48V2.88h-.24zm.597 3.43c.03 1.11.97 1.75 2.34 1.75 1.24 0 2.17-.62 2.17-1.6 0-1.14-.95-1.38-2.12-1.52-.74-.08-1.23-.14-1.23-.62 0-.41.42-.67 1.06-.67.64 0 1.08.33 1.14.8h1.06c-.07-1.05-.96-1.63-2.22-1.63-1.23-.01-2.1.62-2.1 1.59 0 1.06.92 1.31 2.09 1.45.79.1 1.26.14 1.26.69 0 .41-.44.67-1.11.67-.78 0-1.24-.38-1.28-.91h-1.06zM83.77 8h1.35l1.41-5.15L87.96 8h1.34l2.01-7h-1.18l-1.5 5.54L87.11 1h-1.09l-1.56 5.54L82.97.99 81.78 1l1.99 7zm8.716-5.84c.37 0 .66-.27.66-.65s-.29-.65-.66-.65c-.37 0-.66.27-.66.65s.29.65.66.65zM91.936 8h1.08V2.88h-1.08V8zm2.509-1.39c0 .93.42 1.39 1.4 1.39h1v-.95h-.76c-.41 0-.55-.15-.55-.55V3.83h1.25v-.95h-1.25V1.45h-1.09v1.43h-.89v.95h.89v2.78zm5.777-3.79c-.8 0-1.29.36-1.61.8V1h-1.08v7h1.08V5.41c0-1.03.52-1.66 1.37-1.66.8 0 1.23.52 1.23 1.49V8h1.08V5.15c0-1.71-.93-2.33-2.07-2.33zm5.433 5.24c1.56 0 2.61-1.05 2.61-2.62 0-1.56-1.05-2.62-2.61-2.62-1.56 0-2.61 1.06-2.61 2.62 0 1.57 1.05 2.62 2.61 2.62zm0-.92c-.91 0-1.5-.71-1.5-1.7s.59-1.7 1.5-1.7 1.51.71 1.51 1.7-.6 1.7-1.51 1.7zm6.989-1.7c0 1.06-.5 1.68-1.32 1.68-.79 0-1.19-.51-1.19-1.51V2.88h-1.08v2.85c0 1.75.93 2.33 2.02 2.33.79 0 1.26-.32 1.58-.71l.12.65h.95V2.88h-1.08v2.56zm2.543 1.17c0 .93.42 1.39 1.4 1.39h1v-.95h-.76c-.41 0-.55-.15-.55-.55V3.83h1.25v-.95h-1.25V1.45h-1.09v1.43h-.89v.95h.89v2.78zm8.796 1.45c1.63 0 2.82-.96 3.04-2.44h-1.19c-.22.89-.89 1.43-1.86 1.43-1.32 0-2.12-1.06-2.12-2.55 0-1.5.82-2.55 2.15-2.55.95 0 1.61.55 1.84 1.43h1.19c-.23-1.48-1.38-2.44-2.98-2.44-2.07 0-3.38 1.43-3.38 3.56 0 2.15 1.27 3.56 3.31 3.56zm6.301 0c1.56 0 2.61-1.05 2.61-2.62 0-1.56-1.05-2.62-2.61-2.62-1.56 0-2.61 1.06-2.61 2.62 0 1.57 1.05 2.62 2.61 2.62zm0-.92c-.91 0-1.5-.71-1.5-1.7s.59-1.7 1.5-1.7 1.51.71 1.51 1.7-.6 1.7-1.51 1.7zm3.229-.83c.03 1.11.97 1.75 2.34 1.75 1.24 0 2.17-.62 2.17-1.6 0-1.14-.95-1.38-2.12-1.52-.74-.08-1.23-.14-1.23-.62 0-.41.42-.67 1.06-.67.64 0 1.08.33 1.14.8h1.06c-.07-1.05-.96-1.63-2.22-1.63-1.23-.01-2.1.62-2.1 1.59 0 1.06.92 1.31 2.09 1.45.79.1 1.26.14 1.26.69 0 .41-.44.67-1.11.67-.78 0-1.24-.38-1.28-.91h-1.06zm5.717.3c0 .93.42 1.39 1.4 1.39h1v-.95h-.76c-.41 0-.55-.15-.55-.55V3.83h1.25v-.95h-1.25V1.45h-1.09v1.43h-.89v.95h.89v2.78zm2.867-.3c.03 1.11.97 1.75 2.34 1.75 1.24 0 2.17-.62 2.17-1.6 0-1.14-.95-1.38-2.12-1.52-.74-.08-1.23-.14-1.23-.62 0-.41.42-.67 1.06-.67.64 0 1.08.33 1.14.8h1.06c-.07-1.05-.96-1.63-2.22-1.63-1.23-.01-2.1.62-2.1 1.59 0 1.06.92 1.31 2.09 1.45.79.1 1.26.14 1.26.69 0 .41-.44.67-1.11.67-.78 0-1.24-.38-1.28-.91h-1.06z" fill="#000"/></svg>