<svg width="77" height="10" viewBox="0 0 77 10" fill="none" xmlns="http://www.w3.org/2000/svg"><path d="M3.313 7.57c1.086 0 1.79-.49 2.123-.979l.098.92h.87V3.763H3.43v.95H5.33v.166c-.06 1.105-.91 1.702-1.967 1.702-1.311 0-2.133-1.027-2.133-2.495 0-1.467.841-2.495 2.143-2.495.949 0 1.604.529 1.81 1.4h1.164C6.141 1.541 4.986.602 3.401.602 1.366.603.074 2.003.074 4.086c0 2.084 1.321 3.483 3.239 3.483zm8.816-.979c-.215 0-.323-.068-.323-.323V4.262c0-1.184-.763-1.82-2.094-1.82-1.262 0-2.103.607-2.21 1.586h1.036c.079-.44.5-.734 1.125-.734.695 0 1.096.342 1.096.9v.303H9.497c-1.399 0-2.143.577-2.143 1.605 0 .93.764 1.467 1.86 1.467.811 0 1.32-.352 1.653-.86 0 .498.235.802.92.802h.557v-.92h-.215zm-1.37-1.135c-.01.773-.518 1.292-1.399 1.292-.577 0-.93-.294-.93-.715 0-.508.363-.753 1.018-.753h1.311v.176zm2.699-3.66a.625.625 0 00.646-.635.625.625 0 00-.646-.636.625.625 0 00-.646.636c0 .372.284.636.646.636zm-.538 5.715h1.057V2.5H12.92v5.01zm4.734-5.068c-.812 0-1.291.322-1.604.714l-.118-.656h-.92v5.01h1.057V4.986c0-1.017.5-1.634 1.34-1.634.793 0 1.194.51 1.194 1.458v2.7h1.067V4.723c0-1.673-.91-2.28-2.016-2.28zm7.78 5.126c1.281 0 2.132-.714 2.328-1.849h-1.115c-.128.578-.558.95-1.204.95-.851 0-1.409-.676-1.409-1.654 0-.988.558-1.673 1.41-1.673.655 0 1.075.362 1.212.949h1.106c-.205-1.135-1.008-1.85-2.3-1.85-1.516 0-2.514 1.028-2.514 2.574 0 1.565.969 2.553 2.485 2.553zm3.137-.058h1.056V.66h-1.056v6.85zm6.671-.92c-.215 0-.322-.068-.322-.323V4.262c0-1.184-.764-1.82-2.094-1.82-1.262 0-2.104.607-2.212 1.586h1.038c.078-.44.499-.734 1.125-.734.694 0 1.096.342 1.096.9v.303H32.61c-1.399 0-2.142.577-2.142 1.605 0 .93.763 1.467 1.859 1.467.812 0 1.32-.352 1.653-.86 0 .498.235.802.92.802h.558v-.92h-.216zm-1.37-1.135c-.01.773-.518 1.292-1.398 1.292-.578 0-.93-.294-.93-.715 0-.508.362-.753 1.018-.753h1.31v.176zm4.695-2.955c-.822 0-1.223.333-1.477.754l-.118-.754h-.939v5.01h1.057V4.996c0-.773.303-1.507 1.242-1.507h.47v-.988h-.235zm1.425-.704a.625.625 0 00.646-.636.625.625 0 00-.646-.636.625.625 0 00-.646.636c0 .372.284.636.646.636zm-.538 5.714h1.057V2.5h-1.057v5.01zm2.454-1.36c0 .91.411 1.36 1.37 1.36h.979v-.93h-.744c-.401 0-.538-.147-.538-.538V3.431h1.223V2.5h-1.223V1.102h-1.067v1.4h-.87v.929h.87v2.72zm4.469 1.39l-.196.488c-.156.411-.254.51-.665.51h-.744v.929h1.135c.734 0 .95-.362 1.263-1.175l2.27-5.792h-1.126l-1.36 3.806-1.399-3.806H44.43l1.947 5.04zm7.255-.03h1.145l1.095-3.405L56.93 7.51h1.135l1.663-5.01h-1.076l-1.184 3.836L56.371 2.5h-.968l-1.145 3.836L53.113 2.5h-1.115l1.634 5.01zm9.284-5.068c-.783 0-1.263.352-1.576.782V.662h-1.056V7.51h1.056V4.977c0-1.008.51-1.625 1.34-1.625.784 0 1.204.51 1.204 1.458v2.7h1.057V4.723c0-1.673-.91-2.28-2.025-2.28zm5.325 5.126c1.243 0 2.084-.753 2.26-1.741h-1.056c-.147.558-.617.88-1.262.88-.832 0-1.37-.557-1.4-1.409v-.068h3.777c.02-.137.03-.274.03-.401-.03-1.468-.999-2.387-2.447-2.387-1.477 0-2.465 1.027-2.465 2.573 0 1.536.988 2.553 2.563 2.553zm-1.418-3.11c.078-.715.655-1.165 1.33-1.165.734 0 1.253.42 1.34 1.164h-2.67zm7.263-2.016c-.813 0-1.292.322-1.605.714l-.117-.656h-.92v5.01H72.5V4.986c0-1.017.5-1.634 1.34-1.634.793 0 1.195.51 1.195 1.458v2.7H76.1V4.723c0-1.673-.91-2.28-2.016-2.28z" fill="#000"/></svg>