<svg width="134" height="168" viewBox="0 0 134 168" fill="none" xmlns="http://www.w3.org/2000/svg"><path d="M1.237 86.285h2.85V94h.64v-7.715h2.849v-.594H1.237v.594zm9.099 1.697c-1.116 0-1.59.534-1.84 1.199l-.095-1.199H7.88V94h.605v-3.05c0-1.223.32-2.386 1.733-2.386h.44v-.582h-.321zm6.256 5.46c-.356 0-.534-.119-.534-.581v-2.802c0-1.377-.843-2.148-2.35-2.148-1.377 0-2.29.665-2.445 1.757h.605c.154-.736.795-1.223 1.816-1.223 1.128 0 1.769.594 1.769 1.59v.523H13.41c-1.543 0-2.374.664-2.374 1.792 0 1.068.843 1.721 2.125 1.721 1.222 0 1.946-.558 2.314-1.305v.213c-.023.712.273 1.021.986 1.021h.356v-.558h-.226zm-1.14-1.875c0 1.151-.818 1.982-2.243 1.982-.961 0-1.555-.487-1.555-1.235 0-.795.594-1.234 1.71-1.234h2.089v.487zm6.997-2.232c-.368-.854-1.176-1.424-2.303-1.424-1.65 0-2.837 1.258-2.837 3.074 0 1.9 1.187 3.086 2.837 3.086 1.127 0 1.91-.605 2.29-1.448L22.533 94h.522v-8.309h-.605v3.644zm-2.256 4.19c-1.34 0-2.267-1.044-2.267-2.54 0-1.484.926-2.54 2.267-2.54 1.342 0 2.267 1.056 2.267 2.552 0 1.484-.925 2.528-2.267 2.528zm6.944.546c1.317 0 2.326-.854 2.587-2.065h-.617c-.237.938-1.033 1.52-2.018 1.52-1.341 0-2.184-1.022-2.207-2.422v-.107h4.913c0-.083.012-.178.012-.25-.059-1.792-1.163-2.836-2.777-2.836-1.65 0-2.778 1.258-2.778 3.038 0 1.888 1.175 3.122 2.885 3.122zm-2.208-3.584c.095-1.223 1.009-2.042 2.113-2.042 1.175 0 2.018.724 2.113 2.042h-4.226zm11.933 3.584c1.317 0 2.326-.854 2.588-2.065h-.618c-.237.938-1.032 1.52-2.017 1.52-1.342 0-2.184-1.022-2.208-2.422v-.107h4.914c0-.083.012-.178.012-.25-.06-1.792-1.164-2.836-2.778-2.836-1.65 0-2.777 1.258-2.777 3.038 0 1.888 1.175 3.122 2.884 3.122zm-2.208-3.584c.095-1.223 1.01-2.042 2.113-2.042 1.175 0 2.018.724 2.113 2.042h-4.226zm11.37 2.955c-.357 0-.535-.119-.535-.581v-2.802c0-1.377-.843-2.148-2.35-2.148-1.377 0-2.291.665-2.445 1.757h.605c.154-.736.795-1.223 1.816-1.223 1.128 0 1.769.594 1.769 1.59v.523h-2.042c-1.543 0-2.374.664-2.374 1.792 0 1.068.843 1.721 2.125 1.721 1.222 0 1.946-.558 2.314-1.305v.213c-.023.712.273 1.021.986 1.021h.356v-.558h-.226zm-1.14-1.875c0 1.151-.82 1.982-2.244 1.982-.961 0-1.555-.487-1.555-1.235 0-.795.594-1.234 1.71-1.234h2.089v.487zm4.631-3.585c-1.116 0-1.59.534-1.84 1.199l-.095-1.199h-.522V94h.605v-3.05c0-1.223.321-2.386 1.734-2.386h.439v-.582h-.32zm3.995-.071c-1.104 0-1.816.57-2.16 1.353l-.095-1.282h-.522V94h.605v-2.967c0-1.567.795-2.564 2.077-2.564 1.163 0 1.864.76 1.864 2.184V94h.605v-3.371c0-1.9-1.009-2.718-2.374-2.718zm4.023-1.199a.418.418 0 00.427-.427c0-.25-.19-.428-.428-.428a.418.418 0 00-.427.428c0 .249.19.427.428.427zM57.222 94h.606v-6.018h-.605V94zm4.807-6.09c-1.104 0-1.816.57-2.16 1.354l-.095-1.282h-.523V94h.606v-2.967c0-1.567.795-2.564 2.077-2.564 1.163 0 1.863.76 1.863 2.184V94h.606v-3.371c0-1.9-1.01-2.718-2.374-2.718zm8.616 1.473c-.368-.89-1.175-1.472-2.291-1.472-1.65 0-2.837 1.246-2.837 3.074 0 1.9 1.187 3.086 2.837 3.086 1.128 0 1.923-.593 2.303-1.531v1.068c0 1.603-.76 2.291-2.208 2.291-1.128 0-1.911-.51-2.101-1.424h-.63c.19 1.282 1.224 1.97 2.684 1.97 1.946 0 2.86-.926 2.86-2.813v-5.65h-.522l-.095 1.4zm-2.243 4.142c-1.342 0-2.268-1.044-2.268-2.54 0-1.495.926-2.54 2.267-2.54 1.342 0 2.268 1.045 2.268 2.552 0 1.484-.926 2.528-2.267 2.528zm4.011-1.377c.047 1.247 1.056 1.923 2.564 1.923 1.294 0 2.338-.653 2.338-1.72 0-1.27-1.116-1.52-2.41-1.698-.937-.13-1.768-.238-1.768-1.08 0-.689.677-1.14 1.697-1.14.962 0 1.65.463 1.757 1.246h.617c-.106-1.175-1.068-1.768-2.374-1.768-1.34-.012-2.302.676-2.302 1.71 0 1.21 1.115 1.435 2.35 1.602 1.009.142 1.828.273 1.828 1.163 0 .712-.748 1.163-1.733 1.163-1.151 0-1.9-.534-1.947-1.4h-.617zM83.13 94h.653l1.78-5.056L87.262 94h.653l2.136-6.018h-.617l-1.852 5.294-1.72-5.294h-.559l-1.816 5.294-1.756-5.294h-.641L83.13 94zm8.076-7.288a.418.418 0 00.427-.427c0-.25-.19-.428-.427-.428a.418.418 0 00-.428.428c0 .249.19.427.428.427zM90.897 94h.606v-6.018h-.606V94zm2.48-1.4c0 .96.392 1.4 1.412 1.4h.879v-.558h-.831c-.63 0-.855-.237-.855-.854V88.54h1.626v-.558h-1.626v-1.685h-.605v1.685h-1.14v.558h1.14v4.06zm5.99-4.69c-1.129 0-1.829.63-2.173 1.496v-3.715h-.605V94h.605v-2.967c0-1.567.795-2.564 2.077-2.564 1.152 0 1.864.76 1.864 2.184V94h.605v-3.371c0-1.9-1.009-2.718-2.374-2.718zm10.58 6.161c1.78 0 3.038-.961 3.394-2.635h-.676c-.356 1.33-1.318 2.042-2.73 2.042-1.923 0-3.134-1.508-3.134-3.632 0-2.125 1.235-3.633 3.157-3.633 1.389 0 2.363.725 2.731 2.03h.676c-.368-1.662-1.626-2.623-3.371-2.623-2.338 0-3.858 1.733-3.858 4.226 0 2.516 1.484 4.225 3.811 4.225zm4.94-7.359a.418.418 0 00.428-.427c0-.25-.19-.428-.428-.428a.418.418 0 00-.427.428c0 .249.19.427.427.427zM114.579 94h.605v-6.018h-.605V94zm2.479-1.4c0 .96.392 1.4 1.413 1.4h.878v-.558h-.831c-.629 0-.854-.237-.854-.854V88.54h1.626v-.558h-1.626v-1.685h-.606v1.685h-1.139v.558h1.139v4.06zm5.016 1.4l-.391.973c-.273.665-.38.843-.997.843h-.76v.558h.926c.807 0 .997-.309 1.377-1.258l2.884-7.134h-.653l-2.053 5.235-2.089-5.235h-.653L122.074 94zM1.854 108h.642v-8.309h-.641V108zm4.989-6.089c-1.104 0-1.816.57-2.16 1.353l-.095-1.282h-.523V108h.606v-2.967c0-1.567.795-2.564 2.077-2.564 1.163 0 1.863.759 1.863 2.184V108h.606v-3.371c0-1.899-1.01-2.718-2.374-2.718zm8.535 1.424c-.368-.854-1.175-1.424-2.303-1.424-1.65 0-2.837 1.258-2.837 3.074 0 1.899 1.187 3.086 2.837 3.086 1.128 0 1.911-.605 2.291-1.448l.095 1.377h.522v-8.309h-.605v3.644zm-2.255 4.19c-1.342 0-2.268-1.044-2.268-2.54 0-1.484.926-2.54 2.268-2.54 1.34 0 2.267 1.056 2.267 2.552 0 1.484-.926 2.528-2.267 2.528zm6.943.546c1.317 0 2.326-.854 2.588-2.065h-.618c-.237.938-1.032 1.519-2.018 1.519-1.34 0-2.184-1.021-2.207-2.421v-.107h4.914c0-.083.012-.178.012-.249-.06-1.793-1.164-2.837-2.778-2.837-1.65 0-2.777 1.258-2.777 3.038 0 1.888 1.175 3.122 2.884 3.122zm-2.208-3.584c.095-1.223 1.01-2.042 2.113-2.042 1.175 0 2.018.724 2.113 2.042h-4.226zM23.084 108h.7l1.994-2.647L27.772 108h.736l-2.338-3.074 2.22-2.944h-.69l-1.898 2.493-1.876-2.493h-.724l2.22 2.944L23.084 108zm6.454-8.368c-.32 0-.523.19-.523.463 0 .285.19.427.416.427.118 0 .237-.047.297-.142.083.083.106.19.106.308 0 .451-.285.914-.89.938v.356c.82-.036 1.33-.582 1.33-1.365 0-.546-.31-.985-.736-.985zm1.436 6.516c.048 1.247 1.057 1.923 2.564 1.923 1.294 0 2.339-.653 2.339-1.721 0-1.27-1.116-1.519-2.41-1.697-.938-.131-1.769-.238-1.769-1.08 0-.689.677-1.14 1.698-1.14.961 0 1.65.463 1.757 1.246h.617c-.107-1.175-1.069-1.768-2.374-1.768-1.342-.012-2.303.676-2.303 1.709 0 1.211 1.116 1.436 2.35 1.602 1.01.143 1.828.273 1.828 1.164 0 .712-.748 1.163-1.733 1.163-1.151 0-1.899-.534-1.946-1.401h-.618zm11.916 1.923c1.317 0 2.326-.854 2.587-2.065h-.617c-.237.938-1.033 1.519-2.018 1.519-1.341 0-2.184-1.021-2.208-2.421v-.107h4.914c0-.083.012-.178.012-.249-.06-1.793-1.163-2.837-2.777-2.837-1.65 0-2.778 1.258-2.778 3.038 0 1.888 1.175 3.122 2.885 3.122zm-2.208-3.584c.095-1.223 1.009-2.042 2.113-2.042 1.175 0 2.017.724 2.112 2.042h-4.225zM45.907 108h.7l1.995-2.647L50.596 108h.736l-2.339-3.074 2.22-2.944h-.688l-1.9 2.493-1.875-2.493h-.724l2.22 2.944L45.907 108zm9.113-6.089c-1.128 0-1.91.605-2.29 1.448l-.096-1.377h-.522v8.392h.605v-3.763c.345.879 1.164 1.46 2.303 1.46 1.65 0 2.837-1.258 2.837-3.086 0-1.887-1.187-3.074-2.837-3.074zm-.047 5.614c-1.342 0-2.267-1.044-2.267-2.552 0-1.472.925-2.528 2.267-2.528 1.34 0 2.267 1.056 2.267 2.54 0 1.496-.926 2.54-2.267 2.54zm6.741.546c1.318 0 2.327-.854 2.588-2.065h-.618c-.237.938-1.032 1.519-2.017 1.519-1.342 0-2.184-1.021-2.208-2.421v-.107h4.914c0-.083.012-.178.012-.249-.06-1.793-1.163-2.837-2.778-2.837-1.65 0-2.777 1.258-2.777 3.038 0 1.888 1.175 3.122 2.884 3.122zm-2.208-3.584c.095-1.223 1.01-2.042 2.113-2.042 1.175 0 2.018.724 2.113 2.042h-4.226zm8.532-2.505c-1.115 0-1.59.534-1.84 1.199l-.094-1.199h-.523V108h.606v-3.051c0-1.222.32-2.385 1.733-2.385h.439v-.582h-.32zm1.831 4.617c0 .962.392 1.401 1.413 1.401h.878v-.558h-.83c-.63 0-.855-.237-.855-.854v-4.048H72.1v-.558h-1.626v-1.685h-.606v1.685h-1.14v.558h1.14v4.059zM83 101.911c-1.104 0-1.816.617-2.16 1.507-.286-.997-1.033-1.507-1.983-1.507-1.033 0-1.65.605-1.958 1.353l-.095-1.282h-.523V108h.606v-3.062c0-1.472.712-2.469 1.863-2.469 1.045 0 1.698.736 1.698 2.124V108h.605v-3.276c.036-1.377.748-2.255 1.875-2.255 1.045 0 1.674.7 1.674 2.065V108h.617v-3.49c0-1.816-.961-2.599-2.22-2.599zm8.857 5.531c-.356 0-.534-.119-.534-.581v-2.802c0-1.377-.843-2.148-2.35-2.148-1.377 0-2.291.665-2.446 1.757h.606c.154-.736.795-1.223 1.816-1.223 1.127 0 1.768.593 1.768 1.591v.522h-2.041c-1.543 0-2.374.664-2.374 1.792 0 1.068.843 1.721 2.124 1.721 1.223 0 1.947-.558 2.315-1.305v.213c-.024.712.273 1.021.985 1.021h.356v-.558h-.225zm-1.14-1.875c0 1.151-.819 1.982-2.243 1.982-.961 0-1.555-.487-1.555-1.234 0-.796.594-1.235 1.71-1.235h2.088v.487zm4.632-3.585c-1.116 0-1.59.534-1.84 1.199l-.095-1.199h-.522V108h.605v-3.051c0-1.222.32-2.385 1.733-2.385h.44v-.582h-.321zM96.566 108h.605v-1.626l1.412-1.448 2.303 3.074h.736l-2.623-3.513 2.421-2.505h-.748l-3.501 3.608v-5.899h-.606V108zm8.199.071c1.318 0 2.326-.854 2.588-2.065h-.618c-.237.938-1.032 1.519-2.017 1.519-1.342 0-2.184-1.021-2.208-2.421v-.107h4.914c0-.083.012-.178.012-.249-.06-1.793-1.164-2.837-2.778-2.837-1.65 0-2.777 1.258-2.777 3.038 0 1.888 1.175 3.122 2.884 3.122zm-2.208-3.584c.095-1.223 1.009-2.042 2.113-2.042 1.175 0 2.018.724 2.113 2.042h-4.226zm6.434 2.112c0 .962.391 1.401 1.412 1.401h.878v-.558h-.83c-.63 0-.855-.237-.855-.854v-4.048h1.626v-.558h-1.626v-1.685h-.605v1.685h-1.14v.558h1.14v4.059zm-106.97 8.113a.418.418 0 00.427-.427c0-.25-.19-.428-.427-.428a.418.418 0 00-.428.428c0 .249.19.427.428.427zM1.712 122h.606v-6.018h-.606V122zm4.806-6.089c-1.104 0-1.816.57-2.16 1.353l-.095-1.282h-.522V122h.605v-2.967c0-1.567.795-2.564 2.077-2.564 1.163 0 1.864.759 1.864 2.184V122h.605v-3.371c0-1.899-1.009-2.718-2.374-2.718zm3.44 4.237c.048 1.247 1.057 1.923 2.565 1.923 1.294 0 2.338-.653 2.338-1.721 0-1.27-1.116-1.519-2.41-1.697-.937-.131-1.768-.238-1.768-1.08 0-.689.677-1.14 1.697-1.14.962 0 1.65.463 1.757 1.246h.617c-.106-1.175-1.068-1.768-2.374-1.768-1.34-.012-2.302.676-2.302 1.709 0 1.211 1.115 1.436 2.35 1.602 1.009.143 1.828.273 1.828 1.164 0 .712-.748 1.163-1.733 1.163-1.152 0-1.9-.534-1.947-1.401H9.96zm6.367-5.436a.418.418 0 00.427-.427c0-.25-.19-.428-.427-.428a.418.418 0 00-.428.428c0 .249.19.427.428.427zM16.016 122h.606v-6.018h-.606V122zm6.93-4.617c-.367-.891-1.174-1.472-2.29-1.472-1.65 0-2.837 1.246-2.837 3.074 0 1.899 1.187 3.086 2.837 3.086 1.128 0 1.923-.593 2.303-1.531v1.068c0 1.603-.76 2.291-2.208 2.291-1.128 0-1.911-.51-2.101-1.424h-.63c.19 1.282 1.224 1.97 2.683 1.97 1.947 0 2.861-.926 2.861-2.813v-5.65h-.522l-.095 1.401zm-2.243 4.142c-1.34 0-2.267-1.044-2.267-2.54 0-1.495.926-2.54 2.267-2.54 1.342 0 2.268 1.045 2.268 2.552 0 1.484-.926 2.528-2.268 2.528zm7.062-5.614c-1.127 0-1.828.629-2.172 1.495v-3.715h-.605V122h.605v-2.967c0-1.567.796-2.564 2.078-2.564 1.15 0 1.863.759 1.863 2.184V122h.605v-3.371c0-1.899-1.009-2.718-2.374-2.718zm4.177 4.688c0 .962.392 1.401 1.412 1.401h.879v-.558h-.831c-.63 0-.855-.237-.855-.854v-4.048h1.626v-.558h-1.626v-1.685h-.605v1.685h-1.14v.558h1.14v4.059zm2.939-.451c.047 1.247 1.056 1.923 2.563 1.923 1.294 0 2.339-.653 2.339-1.721 0-1.27-1.116-1.519-2.41-1.697-.937-.131-1.768-.238-1.768-1.08 0-.689.676-1.14 1.697-1.14.962 0 1.65.463 1.757 1.246h.617c-.107-1.175-1.068-1.768-2.374-1.768-1.341-.012-2.303.676-2.303 1.709 0 1.211 1.116 1.436 2.35 1.602 1.01.143 1.829.273 1.829 1.164 0 .712-.748 1.163-1.733 1.163-1.152 0-1.9-.534-1.947-1.401h-.617zm14.55 1.294c-.356 0-.534-.119-.534-.581v-2.802c0-1.377-.843-2.148-2.35-2.148-1.377 0-2.291.665-2.445 1.757h.605c.154-.736.795-1.223 1.816-1.223 1.127 0 1.768.593 1.768 1.591v.522H46.25c-1.543 0-2.374.664-2.374 1.792 0 1.068.843 1.721 2.125 1.721 1.222 0 1.946-.558 2.314-1.305v.213c-.023.712.273 1.021.985 1.021h.357v-.558h-.226zm-1.14-1.875c0 1.151-.819 1.982-2.243 1.982-.961 0-1.555-.487-1.555-1.234 0-.796.594-1.235 1.71-1.235h2.088v.487zm4.953-3.656c-1.104 0-1.816.57-2.16 1.353l-.096-1.282h-.522V122h.605v-2.967c0-1.567.796-2.564 2.078-2.564 1.163 0 1.863.759 1.863 2.184V122h.605v-3.371c0-1.899-1.008-2.718-2.373-2.718zm8.535 1.424c-.368-.854-1.176-1.424-2.303-1.424-1.65 0-2.837 1.258-2.837 3.074 0 1.899 1.187 3.086 2.837 3.086 1.127 0 1.91-.605 2.29-1.448l.096 1.377h.522v-8.309h-.605v3.644zm-2.256 4.19c-1.34 0-2.267-1.044-2.267-2.54 0-1.484.926-2.54 2.267-2.54 1.342 0 2.267 1.056 2.267 2.552 0 1.484-.925 2.528-2.267 2.528zm7.935-.926c0 .962.392 1.401 1.413 1.401h.878v-.558h-.83c-.63 0-.855-.237-.855-.854v-4.048h1.626v-.558h-1.626v-1.685h-.606v1.685h-1.14v.558h1.14v4.059zm8.378.843c-.356 0-.534-.119-.534-.581v-2.802c0-1.377-.843-2.148-2.35-2.148-1.377 0-2.29.665-2.445 1.757h.605c.155-.736.796-1.223 1.816-1.223 1.128 0 1.769.593 1.769 1.591v.522h-2.042c-1.543 0-2.374.664-2.374 1.792 0 1.068.843 1.721 2.125 1.721 1.223 0 1.947-.558 2.315-1.305v.213c-.024.712.273 1.021.985 1.021h.356v-.558h-.226zm-1.14-1.875c0 1.151-.818 1.982-2.242 1.982-.962 0-1.555-.487-1.555-1.234 0-.796.593-1.235 1.709-1.235h2.089v.487zM76.872 122h.606v-1.626l1.412-1.448L81.192 122h.736l-2.623-3.513 2.421-2.505h-.748l-3.501 3.608v-5.899h-.606V122zm8.2.071c1.318 0 2.326-.854 2.588-2.065h-.618c-.237.938-1.032 1.519-2.017 1.519-1.342 0-2.184-1.021-2.208-2.421v-.107h4.914c0-.083.012-.178.012-.249-.06-1.793-1.163-2.837-2.778-2.837-1.65 0-2.777 1.258-2.777 3.038 0 1.888 1.175 3.122 2.884 3.122zm-2.208-3.584c.095-1.223 1.01-2.042 2.113-2.042 1.175 0 2.018.724 2.113 2.042h-4.226zm14.568 2.955c-.356 0-.534-.119-.534-.581v-2.802c0-1.377-.843-2.148-2.35-2.148-1.377 0-2.29.665-2.445 1.757h.605c.155-.736.796-1.223 1.816-1.223 1.128 0 1.769.593 1.769 1.591v.522H94.25c-1.543 0-2.374.664-2.374 1.792 0 1.068.843 1.721 2.125 1.721 1.223 0 1.947-.558 2.315-1.305v.213c-.024.712.273 1.021.985 1.021h.356v-.558h-.226zm-1.14-1.875c0 1.151-.818 1.982-2.242 1.982-.962 0-1.555-.487-1.555-1.234 0-.796.593-1.235 1.709-1.235h2.089v.487zm-91.67 10.344c-1.128 0-1.912.605-2.292 1.448l-.095-1.377h-.522v8.392h.606v-3.763c.344.879 1.163 1.46 2.302 1.46 1.65 0 2.837-1.258 2.837-3.086 0-1.887-1.187-3.074-2.837-3.074zm-.048 5.614c-1.342 0-2.267-1.044-2.267-2.552 0-1.472.925-2.528 2.267-2.528 1.341 0 2.267 1.056 2.267 2.54 0 1.496-.926 2.54-2.267 2.54zm6.741.546c1.698 0 2.896-1.258 2.896-3.086 0-1.816-1.198-3.074-2.896-3.074-1.697 0-2.884 1.258-2.884 3.074 0 1.828 1.187 3.086 2.884 3.086zm0-.546c-1.341 0-2.267-1.044-2.267-2.54 0-1.484.926-2.54 2.267-2.54 1.342 0 2.267 1.056 2.267 2.54 0 1.496-.925 2.54-2.267 2.54zm3.815-1.377c.047 1.247 1.056 1.923 2.564 1.923 1.293 0 2.338-.653 2.338-1.721 0-1.27-1.116-1.519-2.41-1.697-.937-.131-1.768-.238-1.768-1.08 0-.689.676-1.14 1.697-1.14.962 0 1.65.463 1.757 1.246h.617c-.107-1.175-1.068-1.768-2.374-1.768-1.341-.012-2.303.676-2.303 1.709 0 1.211 1.116 1.436 2.35 1.602 1.01.143 1.829.273 1.829 1.164 0 .712-.748 1.163-1.733 1.163-1.152 0-1.9-.534-1.947-1.401h-.617zm6.365-5.436a.418.418 0 00.428-.427c0-.25-.19-.428-.428-.428a.418.418 0 00-.427.428c0 .249.19.427.427.427zM21.186 136h.605v-6.018h-.605V136zm2.48-1.401c0 .962.391 1.401 1.412 1.401h.878v-.558h-.83c-.63 0-.855-.237-.855-.854v-4.048h1.626v-.558h-1.626v-1.685h-.605v1.685h-1.14v.558h1.14v4.059zm3.52-5.887a.418.418 0 00.427-.427c0-.25-.19-.428-.427-.428a.418.418 0 00-.427.428c0 .249.19.427.427.427zM26.877 136h.606v-6.018h-.606V136zm4.688.071c1.697 0 2.896-1.258 2.896-3.086 0-1.816-1.199-3.074-2.896-3.074-1.698 0-2.885 1.258-2.885 3.074 0 1.828 1.187 3.086 2.885 3.086zm0-.546c-1.342 0-2.267-1.044-2.267-2.54 0-1.484.925-2.54 2.267-2.54 1.34 0 2.267 1.056 2.267 2.54 0 1.496-.926 2.54-2.267 2.54zm6.876-5.614c-1.104 0-1.816.57-2.16 1.353l-.095-1.282h-.522V136h.605v-2.967c0-1.567.795-2.564 2.077-2.564 1.164 0 1.864.759 1.864 2.184V136h.605v-3.371c0-1.899-1.009-2.718-2.374-2.718zm12.207 5.531c-.356 0-.534-.119-.534-.581v-2.802c0-1.377-.843-2.148-2.35-2.148-1.377 0-2.291.665-2.445 1.757h.605c.154-.736.795-1.223 1.816-1.223 1.128 0 1.769.593 1.769 1.591v.522h-2.042c-1.543 0-2.374.664-2.374 1.792 0 1.068.843 1.721 2.125 1.721 1.222 0 1.946-.558 2.314-1.305v.213c-.023.712.273 1.021.986 1.021h.356v-.558h-.226zm-1.14-1.875c0 1.151-.818 1.982-2.243 1.982-.961 0-1.555-.487-1.555-1.234 0-.796.594-1.235 1.71-1.235h2.089v.487zm1.902.581c.048 1.247 1.057 1.923 2.564 1.923 1.294 0 2.338-.653 2.338-1.721 0-1.27-1.115-1.519-2.41-1.697-.937-.131-1.768-.238-1.768-1.08 0-.689.677-1.14 1.698-1.14.961 0 1.65.463 1.756 1.246h.617c-.106-1.175-1.068-1.768-2.373-1.768-1.342-.012-2.303.676-2.303 1.709 0 1.211 1.116 1.436 2.35 1.602 1.009.143 1.828.273 1.828 1.164 0 .712-.748 1.163-1.733 1.163-1.151 0-1.9-.534-1.947-1.401h-.617zm8.984 0c.047 1.247 1.056 1.923 2.563 1.923 1.294 0 2.339-.653 2.339-1.721 0-1.27-1.116-1.519-2.41-1.697-.938-.131-1.768-.238-1.768-1.08 0-.689.676-1.14 1.697-1.14.961 0 1.65.463 1.757 1.246h.617c-.107-1.175-1.068-1.768-2.374-1.768-1.341-.012-2.303.676-2.303 1.709 0 1.211 1.116 1.436 2.35 1.602 1.01.143 1.828.273 1.828 1.164 0 .712-.747 1.163-1.733 1.163-1.15 0-1.899-.534-1.946-1.401h-.617zm8.715 1.923c1.698 0 2.897-1.258 2.897-3.086 0-1.816-1.2-3.074-2.897-3.074-1.697 0-2.884 1.258-2.884 3.074 0 1.828 1.187 3.086 2.885 3.086zm0-.546c-1.34 0-2.267-1.044-2.267-2.54 0-1.484.926-2.54 2.267-2.54 1.342 0 2.268 1.056 2.268 2.54 0 1.496-.926 2.54-2.267 2.54zm6.758.546c1.698 0 2.897-1.258 2.897-3.086 0-1.816-1.2-3.074-2.897-3.074-1.697 0-2.884 1.258-2.884 3.074 0 1.828 1.187 3.086 2.884 3.086zm0-.546c-1.34 0-2.267-1.044-2.267-2.54 0-1.484.926-2.54 2.267-2.54 1.342 0 2.267 1.056 2.267 2.54 0 1.496-.925 2.54-2.267 2.54zm6.877-5.614c-1.104 0-1.816.57-2.16 1.353l-.095-1.282h-.523V136h.606v-2.967c0-1.567.795-2.564 2.077-2.564 1.163 0 1.864.759 1.864 2.184V136h.605v-3.371c0-1.899-1.01-2.718-2.374-2.718zm12.207 5.531c-.356 0-.534-.119-.534-.581v-2.802c0-1.377-.843-2.148-2.35-2.148-1.377 0-2.291.665-2.446 1.757h.606c.154-.736.795-1.223 1.816-1.223 1.127 0 1.768.593 1.768 1.591v.522H91.77c-1.543 0-2.374.664-2.374 1.792 0 1.068.843 1.721 2.124 1.721 1.223 0 1.947-.558 2.315-1.305v.213c-.024.712.273 1.021.985 1.021h.356v-.558h-.225zm-1.14-1.875c0 1.151-.819 1.982-2.243 1.982-.962 0-1.555-.487-1.555-1.234 0-.796.593-1.235 1.71-1.235h2.088v.487zm1.902.581c.047 1.247 1.056 1.923 2.564 1.923 1.293 0 2.338-.653 2.338-1.721 0-1.27-1.116-1.519-2.41-1.697-.937-.131-1.768-.238-1.768-1.08 0-.689.677-1.14 1.697-1.14.962 0 1.65.463 1.757 1.246h.617c-.107-1.175-1.068-1.768-2.374-1.768-1.341-.012-2.302.676-2.302 1.709 0 1.211 1.115 1.436 2.35 1.602 1.009.143 1.828.273 1.828 1.164 0 .712-.748 1.163-1.733 1.163-1.152 0-1.9-.534-1.947-1.401h-.617zm9.707.451c0 .962.392 1.401 1.413 1.401h.878v-.558h-.831c-.629 0-.854-.237-.854-.854v-4.048h1.626v-.558h-1.626v-1.685h-.606v1.685h-1.139v.558h1.139v4.059zm5.99-4.688c-1.128 0-1.828.629-2.172 1.495v-3.715h-.606V136h.606v-2.967c0-1.567.795-2.564 2.077-2.564 1.151 0 1.863.759 1.863 2.184V136h.606v-3.371c0-1.899-1.009-2.718-2.374-2.718zm6.291 6.16c1.318 0 2.327-.854 2.588-2.065h-.617c-.238.938-1.033 1.519-2.018 1.519-1.342 0-2.184-1.021-2.208-2.421v-.107h4.914c0-.083.012-.178.012-.249-.06-1.793-1.163-2.837-2.778-2.837-1.65 0-2.777 1.258-2.777 3.038 0 1.888 1.175 3.122 2.884 3.122zm-2.208-3.584c.095-1.223 1.009-2.042 2.113-2.042 1.175 0 2.018.724 2.113 2.042h-4.226zm7.625 3.513l-.392.973c-.273.665-.38.843-.997.843h-.76v.558h.926c.807 0 .997-.309 1.377-1.258l2.884-7.134h-.653l-2.053 5.235-2.089-5.235h-.653l2.41 6.018zM7.006 149.442c-.356 0-.534-.119-.534-.581v-2.802c0-1.377-.843-2.148-2.35-2.148-1.377 0-2.291.665-2.445 1.757h.605c.154-.736.795-1.223 1.816-1.223 1.128 0 1.769.593 1.769 1.591v.522H3.825c-1.543 0-2.374.664-2.374 1.792 0 1.068.843 1.721 2.125 1.721 1.222 0 1.946-.558 2.314-1.305v.213c-.023.712.273 1.021.986 1.021h.356v-.558h-.226zm-1.14-1.875c0 1.151-.818 1.982-2.243 1.982-.961 0-1.555-.487-1.555-1.234 0-.796.594-1.235 1.71-1.235h2.089v.487zm4.632-3.585c-1.116 0-1.59.534-1.84 1.199l-.095-1.199h-.522V150h.605v-3.051c0-1.222.321-2.385 1.733-2.385h.44v-.582h-.32zm3.448 6.089c1.317 0 2.326-.854 2.587-2.065h-.617c-.237.938-1.033 1.519-2.018 1.519-1.341 0-2.184-1.021-2.208-2.421v-.107h4.914c0-.083.012-.178.012-.249-.06-1.793-1.163-2.837-2.777-2.837-1.65 0-2.778 1.258-2.778 3.038 0 1.888 1.175 3.122 2.885 3.122zm-2.208-3.584c.095-1.223 1.009-2.042 2.113-2.042 1.175 0 2.017.724 2.112 2.042h-4.225zm11.731-2.505c-1.116 0-1.59.534-1.84 1.199l-.095-1.199h-.522V150h.605v-3.051c0-1.222.32-2.385 1.733-2.385h.44v-.582h-.32zm3.447 6.089c1.318 0 2.327-.854 2.588-2.065h-.617c-.238.938-1.033 1.519-2.018 1.519-1.341 0-2.184-1.021-2.208-2.421v-.107h4.914c0-.083.012-.178.012-.249-.06-1.793-1.163-2.837-2.777-2.837-1.65 0-2.778 1.258-2.778 3.038 0 1.888 1.175 3.122 2.884 3.122zm-2.207-3.584c.095-1.223 1.009-2.042 2.113-2.042 1.175 0 2.017.724 2.112 2.042H24.71zM30.784 150h.605v-8.309h-.605V150zm4.687.071c1.318 0 2.327-.854 2.588-2.065h-.618c-.237.938-1.032 1.519-2.018 1.519-1.34 0-2.184-1.021-2.207-2.421v-.107h4.914c0-.083.012-.178.012-.249-.06-1.793-1.164-2.837-2.778-2.837-1.65 0-2.777 1.258-2.777 3.038 0 1.888 1.175 3.122 2.884 3.122zm-2.208-3.584c.095-1.223 1.01-2.042 2.113-2.042 1.175 0 2.018.724 2.113 2.042h-4.226zm11.37 2.955c-.357 0-.535-.119-.535-.581v-2.802c0-1.377-.843-2.148-2.35-2.148-1.377 0-2.291.665-2.445 1.757h.605c.154-.736.795-1.223 1.816-1.223 1.128 0 1.769.593 1.769 1.591v.522H41.45c-1.543 0-2.374.664-2.374 1.792 0 1.068.843 1.721 2.125 1.721 1.222 0 1.946-.558 2.314-1.305v.213c-.023.712.273 1.021.986 1.021h.356v-.558h-.226zm-1.14-1.875c0 1.151-.82 1.982-2.244 1.982-.961 0-1.555-.487-1.555-1.234 0-.796.594-1.235 1.71-1.235h2.089v.487zm1.901.581c.048 1.247 1.057 1.923 2.564 1.923 1.294 0 2.338-.653 2.338-1.721 0-1.27-1.115-1.519-2.41-1.697-.937-.131-1.768-.238-1.768-1.08 0-.689.677-1.14 1.698-1.14.961 0 1.65.463 1.756 1.246h.617c-.106-1.175-1.068-1.768-2.373-1.768-1.342-.012-2.303.676-2.303 1.709 0 1.211 1.116 1.436 2.35 1.602 1.009.143 1.828.273 1.828 1.164 0 .712-.748 1.163-1.733 1.163-1.151 0-1.9-.534-1.947-1.401h-.617zm8.716 1.923c1.318 0 2.327-.854 2.588-2.065h-.617c-.238.938-1.033 1.519-2.018 1.519-1.342 0-2.184-1.021-2.208-2.421v-.107h4.914c0-.083.012-.178.012-.249-.06-1.793-1.163-2.837-2.778-2.837-1.65 0-2.777 1.258-2.777 3.038 0 1.888 1.175 3.122 2.884 3.122zm-2.208-3.584c.095-1.223 1.01-2.042 2.113-2.042 1.175 0 2.018.724 2.113 2.042h-4.226zm10.99-1.152c-.369-.854-1.176-1.424-2.303-1.424-1.65 0-2.837 1.258-2.837 3.074 0 1.899 1.187 3.086 2.837 3.086 1.127 0 1.91-.605 2.29-1.448l.096 1.377h.522v-8.309h-.606v3.644zm-2.256 4.19c-1.341 0-2.267-1.044-2.267-2.54 0-1.484.926-2.54 2.267-2.54 1.341 0 2.267 1.056 2.267 2.552 0 1.484-.926 2.528-2.267 2.528zm8.944.475h.653l1.78-5.056L73.71 150h.653l2.137-6.018h-.617l-1.852 5.294-1.721-5.294h-.558l-1.816 5.294-1.757-5.294h-.64l2.04 6.018zm8.075-7.288a.418.418 0 00.428-.427c0-.25-.19-.428-.428-.428a.418.418 0 00-.427.428c0 .249.19.427.427.427zM77.347 150h.605v-6.018h-.605V150zm2.48-1.401c0 .962.391 1.401 1.412 1.401h.878v-.558h-.83c-.63 0-.855-.237-.855-.854v-4.048h1.626v-.558h-1.626v-1.685h-.606v1.685h-1.14v.558h1.14v4.059zm5.989-4.688c-1.128 0-1.828.629-2.172 1.495v-3.715h-.606V150h.606v-2.967c0-1.567.795-2.564 2.077-2.564 1.151 0 1.863.759 1.863 2.184V150h.606v-3.371c0-1.899-1.01-2.718-2.374-2.718zm-81.303 20.16c1.508 0 2.529-.914 2.742-2.113H5.973c-.178.677-.747 1.069-1.53 1.069-1.01 0-1.663-.677-1.698-1.71v-.083h4.582c.023-.166.035-.332.035-.486-.035-1.781-1.21-2.897-2.967-2.897-1.793 0-2.991 1.247-2.991 3.122 0 1.864 1.198 3.098 3.11 3.098zm-1.72-3.774c.094-.867.795-1.413 1.614-1.413.89 0 1.519.511 1.626 1.413h-3.24zM7.49 164h1.413l1.602-2.208 1.59 2.208h1.496l-2.29-3.11 2.16-2.967h-1.413l-1.483 2.053-1.449-2.053H7.622l2.148 2.967L7.491 164zm7.247-1.65c0 1.104.498 1.65 1.662 1.65h1.187v-1.128h-.903c-.486 0-.652-.178-.652-.652v-3.17h1.483v-1.127h-1.483v-1.698h-1.294v1.698H13.68v1.127h1.057v3.3zm6.42 1.721c1.508 0 2.53-.914 2.743-2.113h-1.282c-.178.677-.748 1.069-1.531 1.069-1.01 0-1.662-.677-1.698-1.71v-.083h4.582a3.48 3.48 0 00.036-.486c-.036-1.781-1.211-2.897-2.968-2.897-1.792 0-2.991 1.247-2.991 3.122 0 1.864 1.199 3.098 3.11 3.098zm-1.72-3.774c.095-.867.795-1.413 1.614-1.413.89 0 1.52.511 1.626 1.413h-3.24zm8.81-2.446c-.984 0-1.566.392-1.946.867l-.142-.795h-1.116V164h1.282v-3.062c0-1.235.605-1.983 1.626-1.983.961 0 1.448.618 1.448 1.769V164h1.294v-3.383c0-2.03-1.104-2.766-2.445-2.766zm8.183.914c-.392-.534-1.045-.914-1.97-.914-1.65 0-2.873 1.235-2.873 3.11 0 1.947 1.222 3.11 2.872 3.11.962 0 1.59-.451 1.983-.985l.154.914h1.116v-8.309H36.43v3.074zm-1.757 4.226c-1.068 0-1.769-.831-1.769-2.03 0-1.187.7-2.017 1.769-2.017 1.068 0 1.769.83 1.769 2.041 0 1.175-.7 2.006-1.769 2.006zm7.176 1.08c1.507 0 2.528-.914 2.742-2.113H43.31c-.178.677-.748 1.069-1.532 1.069-1.008 0-1.661-.677-1.697-1.71v-.083h4.582a3.48 3.48 0 00.035-.486c-.035-1.781-1.21-2.897-2.967-2.897-1.792 0-2.991 1.247-2.991 3.122 0 1.864 1.199 3.098 3.11 3.098zm-1.721-3.774c.095-.867.795-1.413 1.614-1.413.89 0 1.52.511 1.626 1.413h-3.24zm10.223-1.532c-.392-.534-1.044-.914-1.97-.914-1.65 0-2.873 1.235-2.873 3.11 0 1.947 1.223 3.11 2.873 3.11.961 0 1.59-.451 1.982-.985l.154.914h1.116v-8.309h-1.282v3.074zm-1.757 4.226c-1.068 0-1.768-.831-1.768-2.03 0-1.187.7-2.017 1.768-2.017 1.069 0 1.769.83 1.769 2.041 0 1.175-.7 2.006-1.769 2.006zm7.768-.641c0 1.104.498 1.65 1.662 1.65h1.187v-1.128h-.903c-.486 0-.652-.178-.652-.652v-3.17h1.483v-1.127h-1.483v-1.698h-1.294v1.698h-1.056v1.127h1.056v3.3zm6.738-4.427c-.997 0-1.483.403-1.792.914l-.142-.914h-1.14V164h1.282v-3.051c0-.937.368-1.827 1.508-1.827h.57v-1.199H63.1zm6.445 4.961c-.26 0-.391-.083-.391-.391v-2.434c0-1.436-.926-2.208-2.54-2.208-1.532 0-2.552.736-2.683 1.923h1.258c.095-.534.606-.89 1.365-.89.843 0 1.33.416 1.33 1.092v.368h-1.532c-1.697 0-2.599.7-2.599 1.947 0 1.127.926 1.78 2.255 1.78.985 0 1.603-.427 2.006-1.044 0 .605.285.973 1.116.973h.677v-1.116h-.262zm-1.661-1.377c-.012.938-.63 1.567-1.698 1.567-.7 0-1.127-.356-1.127-.866 0-.618.439-.914 1.234-.914h1.59v.213zm7.192-2.742c-.392-.534-1.045-.914-1.97-.914-1.65 0-2.873 1.235-2.873 3.11 0 1.947 1.223 3.11 2.872 3.11.962 0 1.59-.451 1.983-.985l.154.914h1.116v-8.309h-1.282v3.074zm-1.757 4.226c-1.068 0-1.768-.831-1.768-2.03 0-1.187.7-2.017 1.768-2.017s1.769.83 1.769 2.041c0 1.175-.7 2.006-1.769 2.006zm4.944-5.923c.44 0 .784-.32.784-.771s-.345-.772-.784-.772c-.439 0-.783.321-.783.772s.344.771.783.771zM77.611 164h1.282v-6.077h-1.282V164zm5.744-6.149c-.985 0-1.567.392-1.947.867l-.142-.795H80.15V164h1.282v-3.062c0-1.235.605-1.983 1.626-1.983.961 0 1.448.618 1.448 1.769V164H85.8v-3.383c0-2.03-1.104-2.766-2.445-2.766zm8.252 1.021c-.392-.605-1.045-1.021-1.994-1.021-1.65 0-2.873 1.223-2.873 3.087 0 1.934 1.223 3.086 2.873 3.086.95 0 1.578-.392 1.982-.997v.676c0 1.163-.63 1.698-1.745 1.698-.902 0-1.495-.392-1.65-1.069h-1.306c.12 1.365 1.247 2.113 2.861 2.113 2.184 0 3.11-1.044 3.11-2.694v-5.828h-1.116l-.142.949zm-1.78 4.072c-1.069 0-1.77-.819-1.77-2.006 0-1.175.701-2.006 1.77-2.006 1.068 0 1.768.831 1.768 2.029 0 1.164-.7 1.983-1.769 1.983zm10.521-5.093c-.95 0-1.532.428-1.911.95v-3.11h-1.282V164h1.282v-3.074c0-1.223.617-1.971 1.626-1.971.949 0 1.46.618 1.46 1.769V164h1.282v-3.383c0-2.03-1.104-2.766-2.457-2.766zm6.449 6.22c1.851 0 3.098-1.246 3.098-3.11 0-1.851-1.247-3.11-3.098-3.11-1.852 0-3.098 1.259-3.098 3.11 0 1.864 1.246 3.11 3.098 3.11zm0-1.092c-1.081 0-1.781-.843-1.781-2.018 0-1.175.7-2.017 1.781-2.017 1.08 0 1.792.842 1.792 2.017 0 1.175-.712 2.018-1.792 2.018zm8.295-2.018c0 1.259-.594 1.994-1.567 1.994-.938 0-1.413-.605-1.413-1.792v-3.24h-1.282v3.383c0 2.077 1.104 2.765 2.398 2.765.938 0 1.496-.38 1.876-.843l.142.772h1.128v-6.077h-1.282v3.038zm5.619-3.038c-.997 0-1.484.403-1.792.914l-.143-.914h-1.139V164h1.282v-3.051c0-.937.368-1.827 1.507-1.827h.57v-1.199h-.285zm.71 4.071c.036 1.318 1.152 2.077 2.778 2.077 1.472 0 2.575-.736 2.575-1.899 0-1.353-1.127-1.638-2.516-1.804-.878-.095-1.46-.166-1.46-.736 0-.487.499-.795 1.258-.795.76 0 1.282.391 1.353.949h1.259c-.084-1.246-1.14-1.935-2.635-1.935-1.46-.011-2.493.736-2.493 1.888 0 1.258 1.092 1.555 2.481 1.721.937.119 1.495.166 1.495.819 0 .487-.522.795-1.317.795-.926 0-1.472-.451-1.52-1.08h-1.258zm6.359 1.614c0 .273.19.451.451.451a.43.43 0 00.451-.451c0-.273-.19-.439-.451-.439s-.451.166-.451.439zM6.979 15.095c1.748 0 2.882-.788 3.417-1.575l.158 1.48h1.401V8.969H7.168v1.527h3.055v.268c-.095 1.78-1.465 2.74-3.165 2.74-2.11 0-3.433-1.653-3.433-4.016 0-2.362 1.354-4.015 3.448-4.015 1.528 0 2.583.85 2.914 2.252h1.874c-.331-2.331-2.19-3.843-4.74-3.843-3.276 0-5.355 2.252-5.355 5.606 0 3.355 2.126 5.607 5.213 5.607zm10.646 0c2 0 3.354-1.213 3.638-2.804h-1.701c-.236.898-.992 1.418-2.031 1.418-1.339 0-2.205-.898-2.252-2.268v-.11h6.078a4.62 4.62 0 00.047-.646c-.047-2.362-1.606-3.842-3.936-3.842-2.378 0-3.969 1.653-3.969 4.141 0 2.473 1.59 4.11 4.126 4.11zm-2.283-5.008c.126-1.15 1.055-1.874 2.141-1.874 1.181 0 2.016.677 2.158 1.874h-4.3zM23.3 12.81c0 1.465.661 2.189 2.204 2.189h1.575v-1.496h-1.197c-.645 0-.866-.236-.866-.866V8.433h1.969V6.937h-1.969V4.685h-1.716v2.252h-1.402v1.496h1.402v4.378zm12.59 2.284c2.064 0 3.434-1.15 3.749-2.977h-1.795c-.205.93-.898 1.528-1.937 1.528-1.37 0-2.268-1.087-2.268-2.662 0-1.59.898-2.693 2.268-2.693 1.055 0 1.732.583 1.952 1.528h1.78c-.33-1.827-1.622-2.976-3.7-2.976-2.442 0-4.048 1.653-4.048 4.141 0 2.52 1.559 4.11 4 4.11zm5.05-.095h1.701V3.977h-1.7V15zm10.738-1.48c-.346 0-.52-.11-.52-.52V9.772c0-1.906-1.227-2.93-3.37-2.93-2.03 0-3.385.977-3.558 2.552h1.67c.125-.709.802-1.181 1.81-1.181 1.118 0 1.764.55 1.764 1.449v.488h-2.032c-2.252 0-3.448.929-3.448 2.582 0 1.496 1.228 2.363 2.992 2.363 1.307 0 2.126-.567 2.661-1.386 0 .803.378 1.291 1.48 1.291h.898v-1.48h-.347zm-2.204-1.827c-.016 1.244-.835 2.079-2.252 2.079-.93 0-1.496-.473-1.496-1.15 0-.819.583-1.213 1.638-1.213h2.11v.284zm7.556-4.756c-1.323 0-1.968.536-2.378 1.213l-.189-1.213h-1.512V15h1.701v-4.047c0-1.244.488-2.425 2-2.425h.756v-1.59h-.378zm2.293-1.134c.583 0 1.04-.425 1.04-1.023 0-.599-.457-1.024-1.04-1.024s-1.04.425-1.04 1.024c0 .598.457 1.023 1.04 1.023zM58.458 15h1.7V6.937h-1.7V15zm3.95-2.189c0 1.465.662 2.189 2.205 2.189h1.575v-1.496H64.99c-.646 0-.866-.236-.866-.866V8.433h1.968V6.937h-1.968V4.685h-1.717v2.252h-1.401v1.496h1.401v4.378zm7.192 2.236l-.314.788c-.252.661-.41.819-1.071.819h-1.197v1.495h1.827c1.18 0 1.527-.582 2.031-1.89l3.653-9.322h-1.81l-2.19 6.126-2.251-6.126h-1.811l3.133 8.11zM81.278 15h1.843l1.763-5.48L86.584 15h1.827l2.677-8.063h-1.732L87.45 13.11l-1.764-6.173h-1.559l-1.842 6.173-1.843-6.173h-1.795L81.277 15zM96.22 6.843c-1.26 0-2.031.567-2.535 1.26V3.977h-1.7V15h1.7v-4.079c0-1.622.819-2.614 2.157-2.614 1.26 0 1.937.82 1.937 2.347V15h1.701v-4.488c0-2.693-1.464-3.67-3.26-3.67zm8.572 8.252c2 0 3.354-1.213 3.638-2.804h-1.701c-.236.898-.992 1.418-2.031 1.418-1.339 0-2.205-.898-2.252-2.268v-.11h6.078a4.55 4.55 0 00.048-.646c-.048-2.362-1.607-3.842-3.937-3.842-2.378 0-3.969 1.653-3.969 4.141 0 2.473 1.591 4.11 4.126 4.11zm-2.283-5.008c.126-1.15 1.055-1.874 2.141-1.874 1.181 0 2.016.677 2.158 1.874h-4.299zm11.689-3.244c-1.307 0-2.078.52-2.582 1.15l-.189-1.056h-1.481V15h1.701v-4.063c0-1.638.803-2.63 2.158-2.63 1.275 0 1.921.82 1.921 2.347V15h1.716v-4.488c0-2.693-1.464-3.67-3.244-3.67z" fill="#000"/><path d="M2.858 42.156c0 2.943 1.33 4.4 4.431 4.4h3.165v-3.008H8.05c-1.298 0-1.741-.475-1.741-1.74v-8.452h3.956V30.35H6.308v-4.526h-3.45v4.526H.04v3.007h2.817v8.8zM20.826 30.35c-2.658 0-3.956 1.076-4.779 2.437l-.38-2.438H12.63v16.206h3.418v-8.134c0-2.5.981-4.875 4.02-4.875h1.52V30.35h-.76zm17.187 13.23c-.697 0-1.045-.222-1.045-1.045v-6.488c0-3.83-2.469-5.887-6.773-5.887-4.083 0-6.805 1.962-7.153 5.127h3.355c.253-1.424 1.614-2.374 3.64-2.374 2.247 0 3.545 1.108 3.545 2.912v.981h-4.083c-4.527 0-6.932 1.868-6.932 5.191 0 3.007 2.469 4.748 6.014 4.748 2.627 0 4.273-1.14 5.349-2.785 0 1.614.76 2.595 2.975 2.595h1.804V43.58h-.696zm-4.431-3.672c-.032 2.5-1.678 4.178-4.527 4.178-1.867 0-3.006-.95-3.006-2.31 0-1.646 1.17-2.438 3.291-2.438h4.242v.57zm19.178-7.311c-1.044-1.425-2.785-2.437-5.254-2.437-4.4 0-7.66 3.291-7.66 8.292 0 5.191 3.26 8.293 7.66 8.293 2.564 0 4.241-1.203 5.286-2.627l.411 2.437h2.975V24.4H52.76v8.198zm-4.684 11.268c-2.849 0-4.717-2.216-4.717-5.413 0-3.165 1.868-5.38 4.717-5.38 2.848 0 4.716 2.215 4.716 5.444 0 3.133-1.868 5.349-4.716 5.349zM61.26 28.07c1.17 0 2.089-.855 2.089-2.058 0-1.203-.918-2.057-2.09-2.057-1.17 0-2.088.854-2.088 2.057 0 1.203.918 2.058 2.089 2.058zm-1.741 18.484h3.418V30.35H59.52v16.206zM74.834 30.16c-2.627 0-4.178 1.044-5.19 2.31l-.38-2.12h-2.976v16.205h3.419V38.39c0-3.292 1.614-5.286 4.336-5.286 2.564 0 3.861 1.646 3.861 4.716v8.736h3.45v-9.02c0-5.413-2.943-7.375-6.52-7.375zm22.005 2.722c-1.045-1.615-2.785-2.722-5.317-2.722-4.4 0-7.66 3.26-7.66 8.229 0 5.16 3.26 8.23 7.66 8.23 2.532 0 4.21-1.045 5.285-2.66v1.805c0 3.102-1.677 4.526-4.653 4.526-2.405 0-3.988-1.044-4.4-2.849h-3.48c.316 3.64 3.323 5.634 7.627 5.634 5.824 0 8.293-2.785 8.293-7.185V30.35h-2.975l-.38 2.532zM92.09 43.738c-2.848 0-4.716-2.184-4.716-5.349 0-3.134 1.868-5.35 4.716-5.35 2.849 0 4.716 2.216 4.716 5.413 0 3.102-1.867 5.286-4.716 5.286zM.642 55.628H7.48v18.927h3.64V55.627h6.837V52.4H.642v3.228zm24.47 19.117c4.019 0 6.74-2.437 7.31-5.634h-3.418c-.475 1.804-1.994 2.849-4.083 2.849-2.69 0-4.431-1.804-4.526-4.558v-.222h12.218c.063-.443.095-.886.095-1.297-.095-4.748-3.229-7.723-7.913-7.723-4.78 0-7.977 3.323-7.977 8.324 0 4.97 3.197 8.261 8.293 8.261zm-4.59-10.065c.253-2.31 2.12-3.767 4.304-3.767 2.374 0 4.052 1.361 4.337 3.767h-8.641zm14.16 4.526c.095 3.513 3.07 5.539 7.407 5.539 3.924 0 6.868-1.962 6.868-5.064 0-3.608-3.007-4.368-6.71-4.811-2.342-.254-3.893-.443-3.893-1.963 0-1.297 1.329-2.12 3.355-2.12 2.025 0 3.418 1.044 3.608 2.532h3.355c-.221-3.324-3.038-5.16-7.027-5.16C37.752 58.129 35 60.123 35 63.193c0 3.355 2.911 4.146 6.615 4.59 2.5.316 3.988.443 3.988 2.184 0 1.297-1.393 2.12-3.513 2.12-2.47 0-3.925-1.203-4.052-2.88h-3.355zm16.924 5.35h3.418V52.398h-3.418v22.156zm21.582-2.976c-.696 0-1.044-.222-1.044-1.045v-6.488c0-3.83-2.47-5.887-6.774-5.887-4.083 0-6.805 1.962-7.153 5.127h3.355c.253-1.424 1.614-2.374 3.64-2.374 2.247 0 3.545 1.108 3.545 2.912v.981h-4.083c-4.526 0-6.932 1.868-6.932 5.191 0 3.007 2.47 4.748 6.014 4.748 2.627 0 4.273-1.14 5.35-2.785 0 1.614.759 2.595 2.974 2.595h1.805V71.58h-.697zm-4.431-3.672c-.032 2.5-1.678 4.178-4.526 4.178-1.868 0-3.007-.95-3.007-2.31 0-1.646 1.171-2.438 3.292-2.438h4.241v.57zm6.673 4.685c0 1.266.918 2.152 2.184 2.152s2.216-.886 2.216-2.152-.95-2.153-2.216-2.153c-1.266 0-2.184.887-2.184 2.153z" fill="url(#paint0_linear_706_208)"/><defs><linearGradient id="paint0_linear_706_208" x1="107.007" y1="50.83" x2=".009" y2="50.83" gradientUnits="userSpaceOnUse"><stop stop-color="#FF4343"/><stop offset=".5" stop-color="#9C0B93"/><stop offset="1" stop-color="#4C1BB7"/></linearGradient></defs></svg>