<svg width="124" height="20" viewBox="0 0 124 20" fill="none" xmlns="http://www.w3.org/2000/svg"><path d="M1.85 12.142c0 1.912.864 2.858 2.878 2.858h2.056v-1.953H5.222c-.843 0-1.13-.308-1.13-1.13v-5.49H6.66V4.474h-2.57v-2.94h-2.24v2.94H.02v1.953h1.83v5.715zm11.671-7.668c-1.726 0-2.57.699-3.104 1.583l-.247-1.583H8.197V15h2.22V9.716c0-1.624.637-3.166 2.611-3.166h.987V4.474h-.494zm11.163 8.594c-.452 0-.678-.144-.678-.679V8.175c0-2.488-1.604-3.824-4.4-3.824-2.652 0-4.42 1.274-4.646 3.33h2.18c.164-.925 1.048-1.542 2.364-1.542 1.46 0 2.302.72 2.302 1.892v.637h-2.652c-2.94 0-4.502 1.213-4.502 3.372 0 1.953 1.604 3.083 3.906 3.083 1.706 0 2.775-.74 3.474-1.809 0 1.049.494 1.686 1.933 1.686h1.172v-1.932h-.453zm-2.878-2.385c-.02 1.624-1.09 2.713-2.94 2.713-1.213 0-1.953-.616-1.953-1.5 0-1.07.761-1.583 2.138-1.583h2.755v.37zm12.457-4.75c-.678-.925-1.809-1.582-3.412-1.582-2.858 0-4.976 2.138-4.976 5.386 0 3.372 2.118 5.386 4.976 5.386 1.665 0 2.754-.78 3.433-1.706L34.55 15h1.932V.609h-2.22v5.325zm-3.042 7.32c-1.85 0-3.064-1.44-3.064-3.516 0-2.056 1.213-3.495 3.064-3.495 1.85 0 3.063 1.44 3.063 3.536 0 2.035-1.213 3.474-3.063 3.474zm8.563-10.26c.76 0 1.357-.554 1.357-1.336 0-.78-.596-1.336-1.357-1.336-.76 0-1.357.555-1.357 1.336 0 .782.596 1.337 1.357 1.337zM38.654 15h2.22V4.474h-2.22V15zM48.6 4.35c-1.706 0-2.714.68-3.372 1.501l-.246-1.377H43.05V15h2.22V9.696c0-2.138 1.049-3.433 2.817-3.433 1.665 0 2.508 1.069 2.508 3.063V15h2.241V9.14c0-3.515-1.912-4.79-4.235-4.79zM62.894 6.12c-.679-1.049-1.81-1.768-3.454-1.768-2.858 0-4.975 2.117-4.975 5.345 0 3.35 2.117 5.345 4.975 5.345 1.645 0 2.734-.678 3.433-1.727v1.172c0 2.015-1.09 2.94-3.022 2.94-1.563 0-2.59-.678-2.858-1.85h-2.261c.206 2.364 2.159 3.66 4.955 3.66 3.782 0 5.386-1.81 5.386-4.668V4.474H63.14l-.246 1.645zM59.81 13.17c-1.85 0-3.063-1.418-3.063-3.474 0-2.035 1.213-3.475 3.063-3.475s3.063 1.44 3.063 3.516c0 2.015-1.213 3.433-3.063 3.433zM71.824 2.706h4.441V15h2.364V2.706h4.44V.609H71.825v2.097zm15.894 12.417c2.61 0 4.379-1.583 4.749-3.66h-2.22c-.31 1.173-1.296 1.851-2.653 1.851-1.747 0-2.878-1.172-2.94-2.96v-.144h7.936c.041-.288.062-.576.062-.843-.062-3.084-2.097-5.016-5.14-5.016-3.104 0-5.18 2.158-5.18 5.407 0 3.227 2.076 5.365 5.386 5.365zm-2.981-6.537c.164-1.501 1.377-2.447 2.796-2.447 1.541 0 2.631.884 2.816 2.447h-5.612zm9.197 2.94c.062 2.282 1.994 3.597 4.81 3.597 2.55 0 4.462-1.274 4.462-3.289 0-2.344-1.953-2.837-4.358-3.125-1.522-.164-2.529-.288-2.529-1.275 0-.842.863-1.377 2.18-1.377 1.315 0 2.22.678 2.343 1.645h2.179c-.144-2.159-1.974-3.351-4.564-3.351-2.529-.02-4.317 1.274-4.317 3.268 0 2.18 1.891 2.694 4.296 2.982 1.625.205 2.591.287 2.591 1.418 0 .843-.905 1.377-2.282 1.377-1.604 0-2.55-.78-2.632-1.87h-2.179zM104.927 15h2.22V.609h-2.22V15zm14.018-1.932c-.452 0-.678-.144-.678-.679V8.175c0-2.488-1.604-3.824-4.4-3.824-2.652 0-4.42 1.274-4.646 3.33h2.179c.164-.925 1.048-1.542 2.364-1.542 1.46 0 2.303.72 2.303 1.892v.637h-2.652c-2.94 0-4.503 1.213-4.503 3.372 0 1.953 1.604 3.083 3.907 3.083 1.706 0 2.775-.74 3.474-1.809 0 1.049.493 1.686 1.932 1.686h1.172v-1.932h-.452zm-2.878-2.385c-.021 1.624-1.09 2.713-2.94 2.713-1.213 0-1.953-.616-1.953-1.5 0-1.07.761-1.583 2.138-1.583h2.755v.37zm4.334 3.042c0 .823.596 1.398 1.419 1.398.822 0 1.439-.575 1.439-1.398 0-.822-.617-1.398-1.439-1.398-.823 0-1.419.576-1.419 1.398z" fill="url(#paint0_linear_1_213)"/><defs><linearGradient id="paint0_linear_1_213" x1="147" y1="12" x2="0" y2="12" gradientUnits="userSpaceOnUse"><stop stop-color="#FF4343"/><stop offset=".5" stop-color="#9C0B93"/><stop offset="1" stop-color="#4C1BB7"/></linearGradient></defs></svg>