<svg width="160" height="600" viewBox="0 0 160 600" fill="none" xmlns="http://www.w3.org/2000/svg"><path d="M17.112 111a.19.19 0 00.176-.176l-.066-6.952h6.996a.19.19 0 00.176-.176v-.594a.19.19 0 00-.176-.176h-6.996l.066-6.38h7.348a.19.19 0 00.176-.176v-.594a.19.19 0 00-.176-.176h-8.36a.19.19 0 00-.176.176l.066 7.546-.066 7.502a.19.19 0 00.176.176h.836zm10.494-5.764c0-2.75 1.144-4.928 3.696-4.928 2.288 0 3.63 1.914 3.608 5.148-.022 3.234-1.452 4.884-3.652 4.884-2.53 0-3.652-2.266-3.652-5.104zm8.14 5.764a.19.19 0 00.176-.176l-.066-5.698.066-5.28a.19.19 0 00-.176-.176h-.748a.19.19 0 00-.176.176l.044 2.046c-.726-1.584-2.024-2.442-3.806-2.442-2.926 0-4.532 2.64-4.532 5.896 0 3.3 1.562 5.852 4.532 5.852 1.804 0 3.102-.946 3.806-2.508l-.044 2.134a.19.19 0 00.176.176h.748zm11.705-3.102c0-4.708-7.81-2.046-7.81-5.39 0-1.496 1.21-2.244 3.08-2.244 1.826 0 3.278.748 3.388 2.574a.19.19 0 00.176.176h.66a.19.19 0 00.176-.176c-.11-2.354-2.002-3.388-4.378-3.388-2.42 0-4.158 1.056-4.158 3.102 0 4.4 7.81 1.738 7.81 5.412 0 1.562-1.386 2.442-3.322 2.442-2.332 0-3.608-1.034-3.674-3.256a.19.19 0 00-.176-.176h-.704a.19.19 0 00-.176.176c.066 2.772 1.87 4.07 4.708 4.07 2.464 0 4.4-1.232 4.4-3.322zm6.934 2.354c0-.088-.087-.154-.175-.132-.309.066-.727.11-1.123.11-1.1 0-1.562-.506-1.562-2.2v-7.458h2.684a.19.19 0 00.176-.176v-.55a.19.19 0 00-.175-.176h-2.684l.021-2.662a.19.19 0 00-.175-.176h-.77a.19.19 0 00-.176.176l.043 2.662h-1.297a.19.19 0 00-.176.176v.55a.19.19 0 00.175.176h1.298l-.022 7.458c0 2.398 1.1 3.146 2.575 3.146.395 0 .858-.088 1.188-.176a.214.214 0 00.175-.22v-.528zm11.67-14.124c1.517 0 2.485.902 2.485 2.244 0 1.606-1.584 2.486-3.322 3.432-1.188-1.386-1.628-2.178-1.628-3.256 0-1.65.924-2.42 2.464-2.42zm-4.29 10.846c0-1.914 1.473-2.992 3.145-3.96.418.462.88.968 1.408 1.518l3.454 3.718c-.99 1.32-2.376 2.09-4.048 2.09-2.398 0-3.96-1.32-3.96-3.366zM73.534 111c.065 0 .11-.088.065-.132l-2.596-2.772c.814-1.342 1.298-3.058 1.342-4.994a.19.19 0 00-.176-.176h-.638a.19.19 0 00-.176.176c-.066 1.65-.44 3.102-1.034 4.268l-2.64-2.838c-.726-.792-1.342-1.452-1.848-2.024 1.892-1.034 3.718-2.068 3.718-4.092 0-1.892-1.518-3.124-3.52-3.124-2.398 0-3.52 1.54-3.52 3.212 0 1.364.616 2.464 1.76 3.806-1.848 1.034-3.608 2.288-3.608 4.664 0 2.838 2.442 4.268 4.972 4.268 1.936 0 3.586-.858 4.774-2.31l1.804 1.936a.355.355 0 00.286.132h1.034zm15.14-3.102c0-4.708-7.81-2.046-7.81-5.39 0-1.496 1.21-2.244 3.08-2.244 1.826 0 3.278.748 3.388 2.574a.19.19 0 00.176.176h.66a.19.19 0 00.176-.176c-.11-2.354-2.002-3.388-4.378-3.388-2.42 0-4.158 1.056-4.158 3.102 0 4.4 7.81 1.738 7.81 5.412 0 1.562-1.386 2.442-3.322 2.442-2.332 0-3.608-1.034-3.674-3.256a.19.19 0 00-.176-.176h-.704a.19.19 0 00-.176.176c.066 2.772 1.87 4.07 4.708 4.07 2.464 0 4.4-1.232 4.4-3.322zm10.867-.902c-.088 0-.198.066-.198.176-.374 2.002-1.54 3.212-3.587 3.212-2.684 0-4.026-1.87-4.026-5.06l8.559-.022a.19.19 0 00.176-.176c-.066-3.608-1.87-5.698-4.862-5.698-3.058 0-4.972 2.464-4.972 5.94 0 3.476 1.76 5.874 5.103 5.874 2.707 0 4.246-1.584 4.665-4.07 0-.088-.066-.176-.154-.176h-.704zm-.243-2.574h-7.524c.264-2.53 1.584-4.136 3.828-4.136 2.398 0 3.675 1.848 3.697 4.136zm12.871 2.574c.022-.088-.066-.176-.154-.176h-.682c-.088 0-.176.088-.198.176-.176 2.134-1.562 3.388-3.674 3.388-2.64-.022-3.85-1.936-3.85-5.016s1.232-5.06 3.85-5.06c1.936 0 3.256 1.034 3.564 3.036.022.11.11.176.198.176h.66c.088 0 .176-.088.154-.176-.242-2.354-1.848-3.916-4.576-3.916-3.256 0-4.972 2.398-4.972 5.94 0 3.542 1.716 5.874 4.95 5.874 2.904 0 4.532-1.782 4.73-4.246zm9.798 1.672l-.044 2.156a.19.19 0 00.176.176h.748a.19.19 0 00.176-.176l-.044-6.182.044-4.796a.19.19 0 00-.176-.176h-.77a.19.19 0 00-.176.176l.022 4.686v2.464c-.748 2.068-1.892 3.344-3.586 3.344-1.716 0-2.86-1.034-2.86-3.762v-2.046l.044-4.686a.19.19 0 00-.176-.176h-.77a.19.19 0 00-.176.176l.022 4.686v2.156c0 3.102 1.408 4.576 3.696 4.576 1.958 0 3.212-1.32 3.85-2.596zm4.938 2.332a.19.19 0 00.176-.176l-.044-6.864c.418-2.42 2.024-3.476 3.652-3.476.33 0 .594.022.814.088.088.022.176-.044.176-.132v-.594a.237.237 0 00-.176-.22 2.745 2.745 0 00-.77-.088c-1.54 0-2.97.858-3.718 2.398l.066-2.09a.19.19 0 00-.176-.176h-.77a.19.19 0 00-.176.176l.066 5.302-.066 5.676a.19.19 0 00.176.176h.77zm14.226-4.004c-.088 0-.198.066-.198.176-.374 2.002-1.54 3.212-3.586 3.212-2.684 0-4.026-1.87-4.026-5.06l8.558-.022a.19.19 0 00.176-.176c-.066-3.608-1.87-5.698-4.862-5.698-3.058 0-4.972 2.464-4.972 5.94 0 3.476 1.76 5.874 5.104 5.874 2.706 0 4.246-1.584 4.664-4.07 0-.088-.066-.176-.154-.176h-.704zm-.242-2.574h-7.524c.264-2.53 1.584-4.136 3.828-4.136 2.398 0 3.674 1.848 3.696 4.136zM17.024 127.214c.022-3.256 1.474-4.928 3.652-4.928 2.53 0 3.652 2.288 3.652 5.148 0 2.728-1.144 4.928-3.674 4.928-2.31 0-3.652-1.914-3.63-5.148zm8.404.088c0-3.3-1.584-5.874-4.532-5.874-1.782 0-3.102.968-3.828 2.53l.044-2.112a.19.19 0 00-.176-.176h-.748a.19.19 0 00-.176.176l.066 5.94-.066 8.778a.19.19 0 00.176.176h.792a.19.19 0 00.176-.176l-.066-5.742c.726 1.562 2.024 2.398 3.784 2.398 2.926 0 4.554-2.662 4.554-5.918zm3.102-.066c0-2.75 1.144-4.928 3.696-4.928 2.288 0 3.63 1.914 3.608 5.148-.022 3.234-1.452 4.884-3.652 4.884-2.53 0-3.652-2.266-3.652-5.104zM36.67 133a.19.19 0 00.176-.176l-.066-5.698.066-5.28a.19.19 0 00-.176-.176h-.748a.19.19 0 00-.176.176l.044 2.046c-.726-1.584-2.024-2.442-3.806-2.442-2.926 0-4.532 2.64-4.532 5.896 0 3.3 1.562 5.852 4.532 5.852 1.804 0 3.102-.946 3.806-2.508l-.044 2.134a.19.19 0 00.176.176h.748zm11.506-11.154c.044-.088-.022-.176-.11-.176h-.814c-.11 0-.198.066-.242.176l-3.19 9.614-3.718-9.636a.27.27 0 00-.241-.154h-.88c-.089 0-.154.088-.11.154l4.4 11.132-1.276 3.608c-.044.088.022.176.11.176h.681c.11 0 .198-.066.242-.176l5.148-14.718zm3.115 3.828c.748-2.046 1.804-3.344 3.388-3.344 1.628 0 2.684 1.012 2.684 3.762v2.178l-.044 4.554a.19.19 0 00.176.176h.77a.19.19 0 00.176-.176l-.022-4.554v-2.288c0-.264 0-.506-.022-.748.726-1.782 1.738-2.904 3.212-2.904 1.628 0 2.684 1.012 2.684 3.762v2.178l-.044 4.554a.19.19 0 00.176.176h.77a.19.19 0 00.176-.176l-.022-4.554v-2.288c0-3.146-1.32-4.576-3.498-4.576-1.782 0-2.97 1.21-3.652 2.596-.462-1.782-1.628-2.596-3.278-2.596-1.848 0-3.014 1.298-3.652 2.596l.044-2.156a.19.19 0 00-.176-.176h-.748a.19.19 0 00-.176.176l.044 6.424-.066 4.554a.19.19 0 00.176.176h.792a.19.19 0 00.176-.176l-.044-4.554v-2.596zm25.373 3.322c-.088 0-.198.066-.198.176-.374 2.002-1.54 3.212-3.586 3.212-2.684 0-4.026-1.87-4.026-5.06l8.558-.022a.19.19 0 00.176-.176c-.066-3.608-1.87-5.698-4.862-5.698-3.058 0-4.972 2.464-4.972 5.94 0 3.476 1.76 5.874 5.104 5.874 2.706 0 4.246-1.584 4.664-4.07 0-.088-.066-.176-.154-.176h-.704zm-.242-2.574h-7.524c.264-2.53 1.584-4.136 3.828-4.136 2.398 0 3.674 1.848 3.696 4.136zM81.021 133a.19.19 0 00.176-.176l-.022-4.686v-2.464c.748-2.068 1.892-3.344 3.586-3.344 1.716 0 2.86 1.034 2.86 3.762v2.046l-.044 4.686a.19.19 0 00.176.176h.77a.19.19 0 00.176-.176l-.022-4.686v-2.156c0-3.102-1.408-4.576-3.696-4.576-1.958 0-3.212 1.32-3.85 2.596l.044-2.156a.19.19 0 00-.176-.176h-.748a.19.19 0 00-.176.176l.044 6.182-.044 4.796a.19.19 0 00.176.176h.77zm15.257-.748c0-.088-.089-.154-.177-.132-.308.066-.725.11-1.121.11-1.1 0-1.563-.506-1.563-2.2v-7.458h2.684a.19.19 0 00.177-.176v-.55a.19.19 0 00-.177-.176h-2.683l.021-2.662a.19.19 0 00-.175-.176h-.77a.19.19 0 00-.177.176l.045 2.662h-1.298a.19.19 0 00-.176.176v.55a.19.19 0 00.175.176h1.299l-.022 7.458c0 2.398 1.1 3.146 2.573 3.146.397 0 .859-.088 1.189-.176a.214.214 0 00.175-.22v-.528zm10.659-2.354c0-4.708-7.81-2.046-7.81-5.39 0-1.496 1.21-2.244 3.08-2.244 1.826 0 3.278.748 3.388 2.574a.19.19 0 00.176.176h.66a.19.19 0 00.176-.176c-.11-2.354-2.002-3.388-4.378-3.388-2.42 0-4.158 1.056-4.158 3.102 0 4.4 7.81 1.738 7.81 5.412 0 1.562-1.386 2.442-3.322 2.442-2.332 0-3.608-1.034-3.674-3.256a.19.19 0 00-.176-.176h-.704a.19.19 0 00-.176.176c.066 2.772 1.87 4.07 4.708 4.07 2.464 0 4.4-1.232 4.4-3.322zM27.144 185.622c0-5.962-10.164-2.618-10.164-7.15 0-2.134 1.65-3.124 4.202-3.124 2.926 0 4.356 1.188 4.51 3.674a.19.19 0 00.176.176h.814a.19.19 0 00.176-.176c-.22-3.08-2.222-4.642-5.676-4.642-3.058 0-5.258 1.43-5.258 4.18 0 5.676 10.142 2.266 10.142 7.15 0 2.53-1.98 3.542-4.444 3.542-3.366 0-4.686-1.672-4.862-4.444a.19.19 0 00-.176-.176h-.814a.19.19 0 00-.176.176c.154 3.366 2.134 5.39 5.962 5.39 3.146 0 5.588-1.496 5.588-4.576zm11.044.374c-.088 0-.198.066-.198.176-.374 2.002-1.54 3.212-3.586 3.212-2.684 0-4.026-1.87-4.026-5.06l8.558-.022a.19.19 0 00.176-.176c-.066-3.608-1.87-5.698-4.862-5.698-3.058 0-4.972 2.464-4.972 5.94 0 3.476 1.76 5.874 5.104 5.874 2.706 0 4.246-1.584 4.664-4.07 0-.088-.066-.176-.154-.176h-.704zm-.242-2.574h-7.524c.264-2.53 1.584-4.136 3.828-4.136 2.398 0 3.674 1.848 3.696 4.136zm4.269.814c0-2.75 1.144-4.928 3.696-4.928 2.288 0 3.63 1.914 3.608 5.148-.022 3.234-1.452 4.884-3.652 4.884-2.53 0-3.652-2.266-3.652-5.104zm8.14 5.764a.19.19 0 00.176-.176l-.066-5.698.066-5.28a.19.19 0 00-.176-.176h-.748a.19.19 0 00-.176.176l.044 2.046c-.726-1.584-2.024-2.442-3.806-2.442-2.926 0-4.532 2.64-4.532 5.896 0 3.3 1.562 5.852 4.532 5.852 1.804 0 3.102-.946 3.806-2.508l-.044 2.134a.19.19 0 00.176.176h.748zm4.18-7.326c.748-2.046 1.804-3.344 3.388-3.344 1.628 0 2.684 1.012 2.684 3.762v2.178l-.044 4.554a.19.19 0 00.176.176h.77a.19.19 0 00.176-.176l-.022-4.554v-2.288c0-.264 0-.506-.022-.748.726-1.782 1.738-2.904 3.212-2.904 1.628 0 2.684 1.012 2.684 3.762v2.178l-.044 4.554a.19.19 0 00.176.176h.77a.19.19 0 00.176-.176l-.022-4.554v-2.288c0-3.146-1.32-4.576-3.498-4.576-1.782 0-2.97 1.21-3.652 2.596-.462-1.782-1.628-2.596-3.278-2.596-1.848 0-3.014 1.298-3.652 2.596l.044-2.156a.19.19 0 00-.176-.176h-.748a.19.19 0 00-.176.176l.044 6.424-.066 4.554a.19.19 0 00.176.176h.792a.19.19 0 00.176-.176l-.044-4.554v-2.596zM72.495 190a.19.19 0 00.175-.176l-.044-7.722.044-7.326a.19.19 0 00-.176-.176h-.77a.19.19 0 00-.176.176l.066 7.37-.066 7.678a.19.19 0 00.176.176h.77zm11.666-4.004c-.088 0-.198.066-.198.176-.374 2.002-1.54 3.212-3.586 3.212-2.684 0-4.026-1.87-4.026-5.06l8.558-.022a.19.19 0 00.176-.176c-.066-3.608-1.87-5.698-4.862-5.698-3.058 0-4.972 2.464-4.972 5.94 0 3.476 1.76 5.874 5.104 5.874 2.706 0 4.246-1.584 4.664-4.07 0-.088-.066-.176-.154-.176h-.704zm-.242-2.574h-7.524c.264-2.53 1.584-4.136 3.828-4.136 2.398 0 3.674 1.848 3.696 4.136zm12.212 3.476c0-4.708-7.81-2.046-7.81-5.39 0-1.496 1.21-2.244 3.08-2.244 1.826 0 3.278.748 3.388 2.574a.19.19 0 00.176.176h.66a.19.19 0 00.176-.176c-.11-2.354-2.002-3.388-4.378-3.388-2.42 0-4.158 1.056-4.158 3.102 0 4.4 7.81 1.738 7.81 5.412 0 1.562-1.386 2.442-3.322 2.442-2.332 0-3.608-1.034-3.674-3.256a.19.19 0 00-.176-.176h-.704a.19.19 0 00-.176.176c.066 2.772 1.87 4.07 4.708 4.07 2.464 0 4.4-1.232 4.4-3.322zm11.02 0c0-4.708-7.81-2.046-7.81-5.39 0-1.496 1.21-2.244 3.08-2.244 1.826 0 3.278.748 3.388 2.574a.19.19 0 00.176.176h.66a.19.19 0 00.176-.176c-.11-2.354-2.002-3.388-4.378-3.388-2.42 0-4.157 1.056-4.157 3.102 0 4.4 7.809 1.738 7.809 5.412 0 1.562-1.386 2.442-3.322 2.442-2.332 0-3.608-1.034-3.673-3.256a.19.19 0 00-.176-.176h-.705a.19.19 0 00-.175.176c.066 2.772 1.87 4.07 4.707 4.07 2.464 0 4.4-1.232 4.4-3.322zm-81.899 21.098c.022-.088-.066-.176-.154-.176h-.682c-.088 0-.176.088-.198.176-.176 2.134-1.562 3.388-3.674 3.388-2.64-.022-3.85-1.936-3.85-5.016s1.232-5.06 3.85-5.06c1.936 0 3.256 1.034 3.564 3.036.022.11.11.176.198.176h.66c.088 0 .176-.088.154-.176-.242-2.354-1.848-3.916-4.576-3.916-3.256 0-4.972 2.398-4.972 5.94 0 3.542 1.716 5.874 4.95 5.874 2.904 0 4.532-1.782 4.73-4.246zm11.998-1.65c0-3.542-1.782-5.918-5.06-5.918-3.256 0-5.06 2.376-5.06 5.918 0 3.542 1.804 5.896 5.06 5.896 3.278 0 5.06-2.376 5.06-5.896zm-8.998 0c0-3.08 1.32-5.038 3.938-5.06 2.618 0 3.938 2.002 3.938 5.06 0 3.08-1.298 5.038-3.938 5.038-2.618 0-3.938-1.958-3.938-5.038zM40.676 212a.19.19 0 00.175-.176l-.021-4.686v-2.464c.748-2.068 1.892-3.344 3.586-3.344 1.716 0 2.86 1.034 2.86 3.762v2.046l-.045 4.686a.19.19 0 00.176.176h.77a.19.19 0 00.176-.176l-.022-4.686v-2.156c0-3.102-1.408-4.576-3.696-4.576-1.957 0-3.212 1.32-3.85 2.596l.045-2.156a.19.19 0 00-.176-.176h-.748a.19.19 0 00-.176.176l.044 6.182-.044 4.796a.19.19 0 00.176.176h.77zm11.471 0a.19.19 0 00.176-.176l-.022-4.686v-2.464c.748-2.068 1.892-3.344 3.586-3.344 1.716 0 2.86 1.034 2.86 3.762v2.046l-.044 4.686a.19.19 0 00.176.176h.77a.19.19 0 00.176-.176l-.022-4.686v-2.156c0-3.102-1.408-4.576-3.696-4.576-1.958 0-3.212 1.32-3.85 2.596l.044-2.156a.19.19 0 00-.176-.176h-.748a.19.19 0 00-.176.176l.044 6.182-.044 4.796a.19.19 0 00.176.176h.77zm18.974-4.004c-.088 0-.198.066-.198.176-.374 2.002-1.54 3.212-3.586 3.212-2.684 0-4.026-1.87-4.026-5.06l8.558-.022a.19.19 0 00.176-.176c-.066-3.608-1.87-5.698-4.862-5.698-3.058 0-4.972 2.464-4.972 5.94 0 3.476 1.76 5.874 5.104 5.874 2.706 0 4.246-1.584 4.664-4.07 0-.088-.066-.176-.154-.176h-.704zm-.242-2.574h-7.524c.264-2.53 1.584-4.136 3.828-4.136 2.398 0 3.674 1.848 3.696 4.136zm12.87 2.574c.023-.088-.065-.176-.153-.176h-.682c-.088 0-.176.088-.198.176-.176 2.134-1.562 3.388-3.674 3.388-2.64-.022-3.85-1.936-3.85-5.016s1.232-5.06 3.85-5.06c1.936 0 3.256 1.034 3.564 3.036.022.11.11.176.198.176h.66c.088 0 .176-.088.154-.176-.242-2.354-1.848-3.916-4.576-3.916-3.256 0-4.972 2.398-4.972 5.94 0 3.542 1.716 5.874 4.95 5.874 2.904 0 4.532-1.782 4.73-4.246zm6.964 3.256c0-.088-.088-.154-.176-.132-.308.066-.726.11-1.122.11-1.1 0-1.562-.506-1.562-2.2v-7.458h2.684a.19.19 0 00.176-.176v-.55a.19.19 0 00-.176-.176h-2.684l.022-2.662a.19.19 0 00-.176-.176h-.77a.19.19 0 00-.176.176l.044 2.662h-1.298a.19.19 0 00-.176.176v.55a.19.19 0 00.176.176h1.298l-.022 7.458c0 2.398 1.1 3.146 2.574 3.146.396 0 .858-.088 1.188-.176a.214.214 0 00.176-.22v-.528zm3.285-12.056a.19.19 0 00.175-.176v-1.188a.19.19 0 00-.175-.176h-.77a.19.19 0 00-.176.176v1.188a.19.19 0 00.175.176h.77zm0 12.804a.19.19 0 00.175-.176l-.022-5.83.023-5.148a.19.19 0 00-.177-.176h-.77a.19.19 0 00-.175.176l.043 5.17-.043 5.808a.19.19 0 00.175.176h.77zm12.084-11.154c.044-.088-.022-.176-.11-.176h-.748c-.11 0-.198.066-.242.176l-3.696 10.23-3.74-10.23c-.044-.11-.132-.176-.242-.176h-.858c-.088 0-.154.088-.11.154l4.202 11.044a.27.27 0 00.242.154h.99c.11 0 .198-.066.242-.176l4.07-11zm3.082-1.65a.19.19 0 00.176-.176v-1.188a.19.19 0 00-.176-.176h-.77a.19.19 0 00-.176.176v1.188a.19.19 0 00.176.176h.77zm0 12.804a.19.19 0 00.176-.176l-.022-5.83.022-5.148a.19.19 0 00-.176-.176h-.77a.19.19 0 00-.176.176l.044 5.17-.044 5.808a.19.19 0 00.176.176h.77zm8.014-.748c0-.088-.088-.154-.176-.132-.308.066-.726.11-1.122.11-1.1 0-1.562-.506-1.562-2.2v-7.458h2.684a.19.19 0 00.176-.176v-.55a.19.19 0 00-.176-.176h-2.684l.022-2.662a.19.19 0 00-.176-.176h-.77a.19.19 0 00-.176.176l.044 2.662h-1.298a.19.19 0 00-.176.176v.55a.19.19 0 00.176.176h1.298l-.022 7.458c0 2.398 1.1 3.146 2.574 3.146.396 0 .858-.088 1.188-.176a.214.214 0 00.176-.22v-.528zm10.891-10.406c.044-.088-.022-.176-.11-.176h-.814c-.11 0-.198.066-.242.176l-3.19 9.614-3.718-9.636a.27.27 0 00-.242-.154h-.88c-.088 0-.154.088-.11.154l4.4 11.132-1.276 3.608c-.044.088.022.176.11.176h.682c.11 0 .198-.066.242-.176l5.148-14.718zm-102.377 27.5c0-3.542-1.782-5.918-5.06-5.918-3.256 0-5.06 2.376-5.06 5.918 0 3.542 1.804 5.896 5.06 5.896 3.278 0 5.06-2.376 5.06-5.896zm-8.998 0c0-3.08 1.32-5.038 3.938-5.06 2.618 0 3.938 2.002 3.938 5.06 0 3.08-1.298 5.038-3.938 5.038-2.618 0-3.938-1.958-3.938-5.038zm12.468-.132c.022-3.256 1.474-4.928 3.652-4.928 2.53 0 3.652 2.288 3.652 5.148 0 2.728-1.144 4.928-3.674 4.928-2.31 0-3.652-1.914-3.63-5.148zm8.404.088c0-3.3-1.584-5.874-4.532-5.874-1.782 0-3.102.968-3.828 2.53l.044-2.112a.19.19 0 00-.176-.176h-.748a.19.19 0 00-.176.176l.066 5.94-.066 8.778a.19.19 0 00.176.176h.792a.19.19 0 00.176-.176l-.066-5.742c.726 1.562 2.024 2.398 3.784 2.398 2.926 0 4.554-2.662 4.554-5.918zm7.002 4.95c0-.088-.088-.154-.176-.132-.308.066-.726.11-1.122.11-1.1 0-1.562-.506-1.562-2.2v-7.458h2.684a.19.19 0 00.176-.176v-.55a.19.19 0 00-.176-.176h-2.684l.022-2.662a.19.19 0 00-.176-.176h-.77a.19.19 0 00-.176.176l.044 2.662h-1.298a.19.19 0 00-.176.176v.55a.19.19 0 00.176.176h1.298l-.022 7.458c0 2.398 1.1 3.146 2.574 3.146.396 0 .858-.088 1.188-.176a.214.214 0 00.176-.22v-.528zm3.285-12.056a.19.19 0 00.175-.176v-1.188a.19.19 0 00-.175-.176h-.77a.19.19 0 00-.176.176v1.188a.19.19 0 00.176.176h.77zm0 12.804a.19.19 0 00.175-.176l-.021-5.83.022-5.148a.19.19 0 00-.177-.176h-.77a.19.19 0 00-.175.176l.044 5.17-.044 5.808a.19.19 0 00.176.176h.77zm12.898-5.654c0-3.542-1.782-5.918-5.06-5.918-3.256 0-5.06 2.376-5.06 5.918 0 3.542 1.804 5.896 5.06 5.896 3.278 0 5.06-2.376 5.06-5.896zm-8.998 0c0-3.08 1.32-5.038 3.938-5.06 2.618 0 3.938 2.002 3.938 5.06 0 3.08-1.298 5.038-3.938 5.038-2.618 0-3.938-1.958-3.938-5.038zM64.177 234a.19.19 0 00.176-.176l-.022-4.686v-2.464c.748-2.068 1.892-3.344 3.586-3.344 1.716 0 2.86 1.034 2.86 3.762v2.046l-.044 4.686a.19.19 0 00.176.176h.77a.19.19 0 00.176-.176l-.022-4.686v-2.156c0-3.102-1.408-4.576-3.696-4.576-1.958 0-3.212 1.32-3.85 2.596l.044-2.156a.19.19 0 00-.176-.176h-.748a.19.19 0 00-.176.176l.044 6.182-.044 4.796a.19.19 0 00.176.176h.77zm19.128-3.102c0-4.708-7.81-2.046-7.81-5.39 0-1.496 1.21-2.244 3.08-2.244 1.826 0 3.278.748 3.388 2.574a.19.19 0 00.176.176h.66a.19.19 0 00.176-.176c-.11-2.354-2.002-3.388-4.378-3.388-2.42 0-4.158 1.056-4.158 3.102 0 4.4 7.81 1.738 7.81 5.412 0 1.562-1.386 2.442-3.322 2.442-2.332 0-3.608-1.034-3.674-3.256a.19.19 0 00-.176-.176h-.704a.19.19 0 00-.176.176c.066 2.772 1.87 4.07 4.708 4.07 2.464 0 4.4-1.232 4.4-3.322zM24.57 291a.19.19 0 00.176-.176v-.638a.19.19 0 00-.176-.176h-7.766v-.99c0-4.884 8.14-3.938 8.14-9.306-.022-2.684-1.672-4.356-4.576-4.356-2.992.022-4.642 1.87-4.774 5.324a.19.19 0 00.176.176h.682a.19.19 0 00.176-.176c.11-2.86 1.408-4.356 3.718-4.356 2.42 0 3.52 1.54 3.52 3.41 0 4.444-8.14 3.542-8.14 9.372v1.716a.19.19 0 00.176.176h8.668zm10.413-5.456a.19.19 0 00-.176-.176h-1.452v-9.592a.19.19 0 00-.176-.176h-1.364c-.11 0-.22.066-.286.154l-6.512 9.46a.593.593 0 00-.11.33v.638a.19.19 0 00.176.176h7.15v4.466a.19.19 0 00.176.176h.77a.19.19 0 00.176-.176v-4.466h1.452a.19.19 0 00.176-.176v-.638zm-2.75-.176h-6.138l6.16-8.954-.022 2.266v6.688zm16.637-1.276l.022 2.156-.044 4.576a.19.19 0 00.176.176h.77a.19.19 0 00.176-.176l-.022-4.598v-2.156c0-3.212-1.408-4.664-3.718-4.664-1.958 0-3.19 1.276-3.85 2.574l.066-6.204a.19.19 0 00-.176-.176h-.77a.19.19 0 00-.176.176l.066 7.348-.066 7.7a.19.19 0 00.176.176h.77a.19.19 0 00.176-.176l-.066-7.172c.748-2.024 1.936-3.344 3.652-3.344 1.694 0 2.838 1.034 2.838 3.784zm13.364 1.254c0-3.542-1.782-5.918-5.06-5.918-3.256 0-5.06 2.376-5.06 5.918 0 3.542 1.804 5.896 5.06 5.896 3.278 0 5.06-2.376 5.06-5.896zm-8.998 0c0-3.08 1.32-5.038 3.938-5.06 2.618 0 3.938 2.002 3.938 5.06 0 3.08-1.298 5.038-3.938 5.038-2.618 0-3.938-1.958-3.938-5.038zm18.716 3.322l-.044 2.156a.19.19 0 00.176.176h.748a.19.19 0 00.176-.176l-.044-6.182.044-4.796a.19.19 0 00-.176-.176h-.77a.19.19 0 00-.176.176l.022 4.686v2.464c-.748 2.068-1.892 3.344-3.586 3.344-1.716 0-2.86-1.034-2.86-3.762v-2.046l.044-4.686a.19.19 0 00-.176-.176h-.77a.19.19 0 00-.176.176l.022 4.686v2.156c0 3.102 1.408 4.576 3.696 4.576 1.958 0 3.212-1.32 3.85-2.596zM76.67 291a.19.19 0 00.176-.176l-.044-6.864c.418-2.42 2.024-3.476 3.652-3.476.33 0 .594.022.814.088.088.022.176-.044.176-.132v-.594a.237.237 0 00-.176-.22 2.745 2.745 0 00-.77-.088c-1.54 0-2.97.858-3.718 2.398l.066-2.09a.19.19 0 00-.176-.176h-.77a.19.19 0 00-.176.176l.066 5.302-.066 5.676a.19.19 0 00.176.176h.77zm19.733-4.004c.022-.088-.066-.176-.154-.176h-.682c-.088 0-.176.088-.198.176-.176 2.134-1.562 3.388-3.674 3.388-2.64-.022-3.85-1.936-3.85-5.016s1.232-5.06 3.85-5.06c1.936 0 3.256 1.034 3.564 3.036.022.11.11.176.198.176h.66c.088 0 .176-.088.154-.176-.242-2.354-1.848-3.916-4.576-3.916-3.256 0-4.972 2.398-4.972 5.94 0 3.542 1.716 5.874 4.95 5.874 2.904 0 4.532-1.782 4.73-4.246zM99.557 291a.19.19 0 00.176-.176l-.044-7.722.044-7.326a.19.19 0 00-.176-.176h-.77a.19.19 0 00-.176.176l.066 7.37-.066 7.678a.19.19 0 00.176.176h.77zm4.033-12.804a.19.19 0 00.176-.176v-1.188a.19.19 0 00-.176-.176h-.77a.19.19 0 00-.176.176v1.188a.19.19 0 00.176.176h.77zm0 12.804a.19.19 0 00.176-.176l-.022-5.83.022-5.148a.19.19 0 00-.176-.176h-.77a.19.19 0 00-.176.176l.044 5.17-.044 5.808a.19.19 0 00.176.176h.77zm11.468-4.004c-.088 0-.198.066-.198.176-.374 2.002-1.54 3.212-3.586 3.212-2.684 0-4.026-1.87-4.026-5.06l8.558-.022a.19.19 0 00.176-.176c-.066-3.608-1.87-5.698-4.862-5.698-3.058 0-4.972 2.464-4.972 5.94 0 3.476 1.76 5.874 5.104 5.874 2.706 0 4.246-1.584 4.664-4.07 0-.088-.066-.176-.154-.176h-.704zm-.242-2.574h-7.524c.264-2.53 1.584-4.136 3.828-4.136 2.398 0 3.674 1.848 3.696 4.136zm4.379 6.578a.19.19 0 00.176-.176l-.022-4.686v-2.464c.748-2.068 1.892-3.344 3.586-3.344 1.716 0 2.86 1.034 2.86 3.762v2.046l-.044 4.686a.19.19 0 00.176.176h.77a.19.19 0 00.176-.176l-.022-4.686v-2.156c0-3.102-1.408-4.576-3.696-4.576-1.958 0-3.212 1.32-3.85 2.596l.044-2.156a.19.19 0 00-.176-.176h-.748a.19.19 0 00-.176.176l.044 6.182-.044 4.796a.19.19 0 00.176.176h.77zm15.037-.748c0-.088-.088-.154-.176-.132-.308.066-.726.11-1.122.11-1.1 0-1.562-.506-1.562-2.2v-7.458h2.684a.19.19 0 00.176-.176v-.55a.19.19 0 00-.176-.176h-2.684l.022-2.662a.19.19 0 00-.176-.176h-.77a.19.19 0 00-.176.176l.044 2.662h-1.298a.19.19 0 00-.176.176v.55a.19.19 0 00.176.176h1.298l-.022 7.458c0 2.398 1.1 3.146 2.574 3.146.396 0 .858-.088 1.188-.176a.214.214 0 00.176-.22v-.528zM24.636 309.898c0-4.708-7.81-2.046-7.81-5.39 0-1.496 1.21-2.244 3.08-2.244 1.826 0 3.278.748 3.388 2.574a.19.19 0 00.176.176h.66a.19.19 0 00.176-.176c-.11-2.354-2.002-3.388-4.378-3.388-2.42 0-4.158 1.056-4.158 3.102 0 4.4 7.81 1.738 7.81 5.412 0 1.562-1.386 2.442-3.322 2.442-2.332 0-3.608-1.034-3.674-3.256a.19.19 0 00-.176-.176h-.704a.19.19 0 00-.176.176c.066 2.772 1.87 4.07 4.708 4.07 2.464 0 4.4-1.232 4.4-3.322zm9.657.77l-.044 2.156a.19.19 0 00.176.176h.748a.19.19 0 00.176-.176l-.044-6.182.044-4.796a.19.19 0 00-.176-.176h-.77a.19.19 0 00-.176.176l.022 4.686v2.464c-.748 2.068-1.892 3.344-3.586 3.344-1.716 0-2.86-1.034-2.86-3.762v-2.046l.044-4.686a.19.19 0 00-.176-.176h-.77a.19.19 0 00-.176.176l.022 4.686v2.156c0 3.102 1.408 4.576 3.696 4.576 1.958 0 3.212-1.32 3.85-2.596zm4.783-3.454c.022-3.256 1.474-4.928 3.652-4.928 2.53 0 3.652 2.288 3.652 5.148 0 2.728-1.144 4.928-3.674 4.928-2.31 0-3.652-1.914-3.63-5.148zm8.404.088c0-3.3-1.584-5.874-4.532-5.874-1.782 0-3.102.968-3.828 2.53l.044-2.112a.19.19 0 00-.176-.176h-.748a.19.19 0 00-.176.176l.066 5.94-.066 8.778a.19.19 0 00.176.176h.792a.19.19 0 00.176-.176l-.066-5.742c.726 1.562 2.024 2.398 3.784 2.398 2.926 0 4.554-2.662 4.554-5.918zm3.256-.088c.022-3.256 1.474-4.928 3.652-4.928 2.53 0 3.652 2.288 3.652 5.148 0 2.728-1.144 4.928-3.674 4.928-2.31 0-3.652-1.914-3.63-5.148zm8.404.088c0-3.3-1.584-5.874-4.532-5.874-1.782 0-3.102.968-3.828 2.53l.044-2.112a.19.19 0 00-.176-.176H49.9a.19.19 0 00-.176.176l.066 5.94-.066 8.778a.19.19 0 00.176.176h.792a.19.19 0 00.176-.176l-.066-5.742c.726 1.562 2.024 2.398 3.784 2.398 2.926 0 4.554-2.662 4.554-5.918zm11.924.044c0-3.542-1.782-5.918-5.06-5.918-3.256 0-5.06 2.376-5.06 5.918 0 3.542 1.804 5.896 5.06 5.896 3.278 0 5.06-2.376 5.06-5.896zm-8.998 0c0-3.08 1.32-5.038 3.938-5.06 2.618 0 3.938 2.002 3.938 5.06 0 3.08-1.298 5.038-3.938 5.038-2.618 0-3.938-1.958-3.938-5.038zM74.248 313a.19.19 0 00.176-.176l-.044-6.864c.418-2.42 2.024-3.476 3.652-3.476.33 0 .594.022.814.088.088.022.176-.044.176-.132v-.594a.237.237 0 00-.176-.22 2.745 2.745 0 00-.77-.088c-1.54 0-2.97.858-3.718 2.398l.066-2.09a.19.19 0 00-.176-.176h-.77a.19.19 0 00-.176.176l.066 5.302-.066 5.676a.19.19 0 00.176.176h.77zm11.579-.748c0-.088-.088-.154-.176-.132-.308.066-.726.11-1.122.11-1.1 0-1.562-.506-1.562-2.2v-7.458h2.684a.19.19 0 00.176-.176v-.55a.19.19 0 00-.176-.176h-2.684l.022-2.662a.19.19 0 00-.176-.176h-.77a.19.19 0 00-.176.176l.044 2.662h-1.298a.19.19 0 00-.176.176v.55a.19.19 0 00.176.176h1.298l-.022 7.458c0 2.398 1.1 3.146 2.574 3.146.396 0 .858-.088 1.188-.176a.214.214 0 00.176-.22v-.528z" fill="#fff"/></svg>