<svg width="101" height="35" viewBox="0 0 101 35" fill="none" xmlns="http://www.w3.org/2000/svg"><path d="M67.132 13.63h-5.2C60.506 5.551 54.537.645 45.513.645c-10.143 0-16.7 6.72-16.7 17.102 0 10.382 6.353 16.951 16.7 16.898 8.436 0 14.42-4.611 16.2-12.166h3.522l1.075-2.954h-4.13a23.94 23.94 0 00.063-2.953h3.863l1.026-2.953v.01zm-14.54 5.906H47.05l-1.076 2.953h6.32c-.71 4.423-2.622 7.483-6.578 7.483-5.224 0-7.272-5.5-7.272-12.316 0-6.816 1.64-12.268 6.917-12.316 4.15 0 6.295 3.437 7.006 8.294h-4.495l-1.027 2.954h5.77c.01.352.02.705.02 1.068 0 .643-.015 1.271-.045 1.885v-.005zM.125 33.834h9.068V22.282h15.421v-7.483H9.193V9.3h17.06V1.41H.126v32.424zM92.341 22.533c4.048-1.73 6.709-5.042 6.709-9.977v-.101c0-3.156-.973-5.699-2.87-7.536-2.2-2.19-5.687-3.509-10.654-3.509h-15.47v32.424h9.068v-9.827h3.994l6.558 9.827h10.449l-7.788-11.301h.004zm-2.359-9.42c0 2.392-1.79 3.866-4.865 3.866H79.12V9.144h5.945c3.074 0 4.918 1.324 4.918 3.867v.101z" fill="#fff"/></svg>