<svg width="236" height="44" viewBox="0 0 236 44" fill="none" xmlns="http://www.w3.org/2000/svg"><path d="M6.534 15.108c2.52 0 4.014-1.386 4.554-2.898l.054 2.79h.846V8.43H6.912v.9h4.14v.54c0 2.466-1.71 4.338-4.5 4.338-2.826 0-4.698-2.268-4.698-5.508 0-3.222 1.872-5.508 4.788-5.508 2.124 0 3.6 1.098 4.122 3.078h1.044c-.522-2.52-2.484-3.978-5.13-3.978C3.114 2.292.846 4.92.846 8.7c0 3.798 2.322 6.408 5.688 6.408zm11.885 0c1.998 0 3.528-1.296 3.924-3.132h-.936c-.36 1.422-1.566 2.304-3.06 2.304-2.034 0-3.312-1.548-3.348-3.672v-.162h7.452c0-.126.018-.27.018-.378-.09-2.718-1.764-4.302-4.212-4.302-2.502 0-4.212 1.908-4.212 4.608 0 2.862 1.782 4.734 4.374 4.734zM15.07 9.672c.144-1.854 1.53-3.096 3.204-3.096 1.782 0 3.06 1.098 3.204 3.096H15.07zm9.755 3.204c0 1.458.595 2.124 2.142 2.124H28.3v-.846h-1.26c-.953 0-1.296-.36-1.296-1.296V6.72h2.466v-.846h-2.466V3.318h-.918v2.556H23.1v.846h1.727v6.156zm18.543-1.332c0-2.394-2.124-3.006-4.212-3.366-1.926-.324-3.6-.648-3.6-2.448 0-1.638 1.278-2.556 3.258-2.556 1.89 0 3.186 1.062 3.402 2.7h.99c-.162-1.98-1.566-3.348-3.798-3.564V.456h-.864v1.836c-2.412.09-3.96 1.422-3.96 3.492 0 2.394 2.052 2.934 4.068 3.276 1.98.342 3.744.738 3.744 2.574 0 1.62-1.368 2.592-3.402 2.592-2.124 0-3.564-1.224-3.69-3.096h-1.008c.126 2.25 1.674 3.816 4.248 3.96v1.836h.864V15.09c2.394-.144 3.96-1.548 3.96-3.546zM44.587 15h8.406v-.864h-7.11l4.194-3.78c1.458-1.314 2.754-2.52 2.754-4.428 0-2.214-1.53-3.636-4.086-3.636-2.448 0-4.032 1.584-4.032 3.96v.306h.936v-.252c0-1.962 1.206-3.168 3.096-3.168 1.908 0 3.132 1.062 3.132 2.844 0 1.584-1.206 2.682-2.394 3.762l-4.896 4.446V15zm9.837-6.012c0 3.69 1.819 6.12 4.554 6.12 2.7 0 4.536-2.43 4.536-6.12v-.576c0-3.582-1.836-6.12-4.536-6.12-2.736 0-4.553 2.538-4.553 6.12v.576zm8.136-.036c0 3.204-1.422 5.292-3.582 5.292-2.178 0-3.6-2.088-3.6-5.292v-.504c0-3.204 1.422-5.292 3.6-5.292 2.16 0 3.582 2.088 3.582 5.292v.504zm2.675.036c0 3.69 1.818 6.12 4.554 6.12 2.7 0 4.536-2.43 4.536-6.12v-.576c0-3.582-1.836-6.12-4.536-6.12-2.736 0-4.554 2.538-4.554 6.12v.576zm8.136-.036c0 3.204-1.422 5.292-3.582 5.292-2.178 0-3.6-2.088-3.6-5.292v-.504c0-3.204 1.422-5.292 3.6-5.292 2.16 0 3.582 2.088 3.582 5.292v.504zM83.327 15h.99l2.7-7.668L89.591 15h.99l3.24-9.126h-.936l-2.808 8.028-2.61-8.028h-.846l-2.754 8.028-2.664-8.028h-.972L83.327 15zm15.99-9.234c-1.71 0-2.772.954-3.294 2.268V2.4h-.918V15h.918v-4.5c0-2.376 1.206-3.888 3.15-3.888 1.746 0 2.826 1.152 2.826 3.312V15h.918V9.888c0-2.88-1.53-4.122-3.6-4.122zm9.541 9.342c1.998 0 3.528-1.296 3.924-3.132h-.936c-.36 1.422-1.566 2.304-3.06 2.304-2.034 0-3.312-1.548-3.348-3.672v-.162h7.452c0-.126.018-.27.018-.378-.09-2.718-1.764-4.302-4.212-4.302-2.502 0-4.212 1.908-4.212 4.608 0 2.862 1.782 4.734 4.374 4.734zm-3.348-5.436c.144-1.854 1.53-3.096 3.204-3.096 1.782 0 3.06 1.098 3.204 3.096h-6.408zm13.425-3.906c-1.674 0-2.754.864-3.276 2.052l-.144-1.944h-.792V15h.918v-4.5c0-2.376 1.206-3.888 3.15-3.888 1.764 0 2.826 1.152 2.826 3.312V15h.918V9.888c0-2.88-1.53-4.122-3.6-4.122zM132.154 15l-.594 1.476c-.414 1.008-.576 1.278-1.512 1.278h-1.152v.846h1.404c1.224 0 1.512-.468 2.088-1.908l4.374-10.818h-.99l-3.114 7.938-3.168-7.938h-.99L132.154 15zm9.487.108c2.574 0 4.392-1.908 4.392-4.68 0-2.754-1.818-4.662-4.392-4.662-2.574 0-4.374 1.908-4.374 4.662 0 2.772 1.8 4.68 4.374 4.68zm0-.828c-2.034 0-3.438-1.584-3.438-3.852 0-2.25 1.404-3.852 3.438-3.852 2.034 0 3.438 1.602 3.438 3.852 0 2.268-1.404 3.852-3.438 3.852zm12.84-3.924c0 2.394-1.188 3.906-3.078 3.906-1.692 0-2.736-1.152-2.736-3.33V5.874h-.918v5.112c0 2.862 1.494 4.122 3.51 4.122 1.62 0 2.682-.864 3.204-2.034l.126 1.926h.81V5.874h-.918v4.482zm8.615 2.52c0 1.458.594 2.124 2.142 2.124h1.332v-.846h-1.26c-.954 0-1.296-.36-1.296-1.296V6.72h2.466v-.846h-2.466V3.318h-.918v2.556h-1.728v.846h1.728v6.156zm8.597-7.002c-1.692 0-2.412.81-2.79 1.818l-.144-1.818h-.792V15h.918v-4.626c0-1.854.486-3.618 2.628-3.618h.666v-.882h-.486zm9.487 8.28c-.54 0-.81-.18-.81-.882V9.024c0-2.088-1.278-3.258-3.564-3.258-2.088 0-3.474 1.008-3.708 2.664h.918c.234-1.116 1.206-1.854 2.754-1.854 1.71 0 2.682.9 2.682 2.412v.792h-3.096c-2.34 0-3.6 1.008-3.6 2.718 0 1.62 1.278 2.61 3.222 2.61 1.854 0 2.952-.846 3.51-1.98v.324c-.036 1.08.414 1.548 1.494 1.548h.54v-.846h-.342zm-1.728-2.844c0 1.746-1.242 3.006-3.402 3.006-1.458 0-2.358-.738-2.358-1.872 0-1.206.9-1.872 2.592-1.872h3.168v.738zm10.609-3.384c-.558-1.296-1.782-2.16-3.492-2.16-2.502 0-4.302 1.908-4.302 4.662 0 2.88 1.8 4.68 4.302 4.68 1.71 0 2.898-.918 3.474-2.196l.144 2.088h.792V2.4h-.918v5.526zm-3.42 6.354c-2.034 0-3.438-1.584-3.438-3.852 0-2.25 1.404-3.852 3.438-3.852 2.034 0 3.438 1.602 3.438 3.87 0 2.25-1.404 3.834-3.438 3.834zm10.53.828c1.998 0 3.528-1.296 3.924-3.132h-.936c-.36 1.422-1.566 2.304-3.06 2.304-2.034 0-3.312-1.548-3.348-3.672v-.162h7.452c0-.126.018-.27.018-.378-.09-2.718-1.764-4.302-4.212-4.302-2.502 0-4.212 1.908-4.212 4.608 0 2.862 1.782 4.734 4.374 4.734zm-3.348-5.436c.144-1.854 1.53-3.096 3.204-3.096 1.782 0 3.06 1.098 3.204 3.096h-6.408zm14.748 3.204c0 1.458.594 2.124 2.142 2.124h1.332v-.846h-1.26c-.954 0-1.296-.36-1.296-1.296V6.72h2.466v-.846h-2.466V3.318h-.918v2.556h-1.728v.846h1.728v6.156zM215.655 15h.99l2.7-7.668L221.919 15h.99l3.24-9.126h-.936l-2.808 8.028-2.61-8.028h-.846l-2.754 8.028-2.664-8.028h-.972L215.655 15zm15.529.108c2.574 0 4.392-1.908 4.392-4.68 0-2.754-1.818-4.662-4.392-4.662-2.574 0-4.374 1.908-4.374 4.662 0 2.772 1.8 4.68 4.374 4.68zm0-.828c-2.034 0-3.438-1.584-3.438-3.852 0-2.25 1.404-3.852 3.438-3.852 2.034 0 3.438 1.602 3.438 3.852 0 2.268-1.404 3.852-3.438 3.852zM1.296 40h.972v-3.294L5.13 33.43 9.666 40h1.17L5.85 32.692l4.572-5.292H9.234l-6.966 7.938V27.4h-.972V40zm14.982-9.234c-1.674 0-2.754.864-3.276 2.052l-.144-1.944h-.792V40h.918v-4.5c0-2.376 1.206-3.888 3.15-3.888 1.764 0 2.826 1.152 2.826 3.312V40h.918v-5.112c0-2.88-1.53-4.122-3.6-4.122zm9.524 9.342c2.573 0 4.392-1.908 4.392-4.68 0-2.754-1.819-4.662-4.392-4.662-2.575 0-4.375 1.908-4.375 4.662 0 2.772 1.8 4.68 4.375 4.68zm0-.828c-2.035 0-3.439-1.584-3.439-3.852 0-2.25 1.404-3.852 3.439-3.852 2.034 0 3.438 1.602 3.438 3.852 0 2.268-1.404 3.852-3.438 3.852zm10.194.828c2.07 0 3.527-1.188 3.887-3.042h-.972c-.306 1.35-1.404 2.214-2.916 2.214-1.997 0-3.383-1.566-3.383-3.834s1.367-3.87 3.383-3.87c1.53 0 2.61.864 2.934 2.232h.954c-.378-1.89-1.8-3.042-3.87-3.042-2.573 0-4.337 1.908-4.337 4.68 0 2.808 1.746 4.662 4.32 4.662zM41.667 40h.918v-2.466l2.142-2.196L48.22 40h1.116l-3.978-5.328 3.672-3.798h-1.134l-5.31 5.472V27.4h-.918V40zm12.434.108c2.574 0 4.392-1.908 4.392-4.68 0-2.754-1.818-4.662-4.392-4.662-2.574 0-4.374 1.908-4.374 4.662 0 2.772 1.8 4.68 4.374 4.68zm0-.828c-2.034 0-3.438-1.584-3.438-3.852 0-2.25 1.404-3.852 3.438-3.852 2.034 0 3.438 1.602 3.438 3.852 0 2.268-1.404 3.852-3.438 3.852zm12.84-3.924c0 2.394-1.188 3.906-3.078 3.906-1.692 0-2.736-1.152-2.736-3.33v-5.058h-.918v5.112c0 2.862 1.494 4.122 3.51 4.122 1.62 0 2.682-.864 3.204-2.034L67.05 40h.81v-9.126h-.918v4.482zm3.781 2.52c0 1.458.594 2.124 2.142 2.124h1.332v-.846h-1.26c-.954 0-1.296-.36-1.296-1.296V31.72h2.466v-.846h-2.466v-2.556h-.918v2.556h-1.728v.846h1.728v6.156zm21.26-4.176c0-3.726-2.412-6.408-5.886-6.408-3.456 0-5.886 2.682-5.886 6.408 0 3.726 2.43 6.408 5.886 6.408 3.474 0 5.886-2.682 5.886-6.408zm-10.764 0c0-3.222 1.998-5.508 4.878-5.508 2.898 0 4.896 2.286 4.896 5.508s-1.998 5.508-4.896 5.508c-2.88 0-4.878-2.286-4.878-5.508zm17.119-2.934c-1.71 0-2.898.918-3.474 2.196l-.144-2.088h-.792V43.6h.918v-5.706c.522 1.332 1.764 2.214 3.492 2.214 2.502 0 4.302-1.908 4.302-4.68 0-2.862-1.8-4.662-4.302-4.662zm-.072 8.514c-2.034 0-3.438-1.584-3.438-3.87 0-2.232 1.404-3.834 3.438-3.834 2.034 0 3.438 1.602 3.438 3.852 0 2.268-1.404 3.852-3.438 3.852zM105 37.876c0 1.458.594 2.124 2.142 2.124h1.332v-.846h-1.26c-.954 0-1.296-.36-1.296-1.296V31.72h2.466v-.846h-2.466v-2.556H105v2.556h-1.728v.846H105v6.156zm5.339-8.928c.36 0 .648-.27.648-.648a.634.634 0 00-.648-.648c-.36 0-.648.27-.648.648s.288.648.648.648zM109.871 40h.918v-9.126h-.918V40zm7.108.108c2.574 0 4.392-1.908 4.392-4.68 0-2.754-1.818-4.662-4.392-4.662-2.574 0-4.374 1.908-4.374 4.662 0 2.772 1.8 4.68 4.374 4.68zm0-.828c-2.034 0-3.438-1.584-3.438-3.852 0-2.25 1.404-3.852 3.438-3.852 2.034 0 3.438 1.602 3.438 3.852 0 2.268-1.404 3.852-3.438 3.852zm10.428-8.514c-1.674 0-2.754.864-3.276 2.052l-.144-1.944h-.792V40h.918v-4.5c0-2.376 1.206-3.888 3.15-3.888 1.764 0 2.826 1.152 2.826 3.312V40h.918v-5.112c0-2.88-1.53-4.122-3.6-4.122zm5.218 6.426c.072 1.89 1.602 2.916 3.888 2.916 1.962 0 3.546-.99 3.546-2.61 0-1.926-1.692-2.304-3.654-2.574-1.422-.198-2.682-.36-2.682-1.638 0-1.044 1.026-1.728 2.574-1.728 1.458 0 2.502.702 2.664 1.89h.936c-.162-1.782-1.62-2.682-3.6-2.682-2.034-.018-3.492 1.026-3.492 2.592 0 1.836 1.692 2.178 3.564 2.43 1.53.216 2.772.414 2.772 1.764 0 1.08-1.134 1.764-2.628 1.764-1.746 0-2.88-.81-2.952-2.124h-.936z" fill="#000"/></svg>