<svg width="65" height="9" viewBox="0 0 65 9" fill="none" xmlns="http://www.w3.org/2000/svg"><path d="M1.996 2.068c.286-.314.617-.562.995-.741.377-.18.78-.27 1.207-.27.471 0 .85.064 1.137.19.286.128.563.311.832.552.13.104.264.151.403.14a.556.556 0 00.353-.157.47.47 0 00.147-.355.836.836 0 00-.017-.174.421.421 0 00-.065-.146.608.608 0 00-.137-.14C6.445.622 6.041.375 5.64.226 5.237.076 4.757 0 4.199 0a3.93 3.93 0 00-1.654.348 4.19 4.19 0 00-1.332.96A4.48 4.48 0 00.32 2.737 4.76 4.76 0 000 4.495C0 5.13.107 5.723.32 6.27a4.43 4.43 0 00.893 1.432c.38.409.826.727 1.337.955.51.229 1.06.343 1.648.343a4.03 4.03 0 001.409-.247 4.346 4.346 0 001.256-.73.594.594 0 00.174-.416.55.55 0 00-.13-.389.487.487 0 00-.32-.157.557.557 0 00-.387.13 4.02 4.02 0 01-.952.544c-.33.131-.68.197-1.05.197-.428 0-.83-.089-1.207-.265a3.13 3.13 0 01-.995-.736 3.433 3.433 0 01-.67-1.095 3.715 3.715 0 01-.239-1.343c0-.471.08-.915.24-1.331.16-.415.382-.78.669-1.094zM9.257.113a.55.55 0 00-.403.162.568.568 0 00-.163.421v7.607c0 .165.054.303.163.416.11.111.243.168.403.168a.53.53 0 00.407-.168.584.584 0 00.158-.416V.696a.58.58 0 00-.158-.42.543.543 0 00-.407-.163zM17.316.113h-5.818a.503.503 0 00-.376.151.536.536 0 00-.146.389c0 .157.049.286.146.388a.5.5 0 00.376.151h2.35v7.112c0 .165.053.303.162.416.11.112.243.169.403.169.16 0 .294-.056.403-.17a.574.574 0 00.163-.415V1.191h2.338c.153 0 .278-.05.376-.152.098-.1.147-.23.147-.388a.538.538 0 00-.147-.388.504.504 0 00-.377-.15zM25.994.254a.428.428 0 00-.326-.141.555.555 0 00-.293.073.644.644 0 00-.207.207l-2.589 4.218L20.034.439a.912.912 0 00-.206-.241.47.47 0 00-.294-.084.557.557 0 00-.554.467c-.022.138.014.286.11.444l2.902 4.663v2.618c0 .165.054.304.164.416a.53.53 0 00.392.169c.16 0 .293-.056.402-.169a.574.574 0 00.163-.416v-2.62l2.926-4.664a.667.667 0 00.11-.42.6.6 0 00-.155-.348zM31.75.113a.55.55 0 00-.403.162.568.568 0 00-.163.421v7.607c0 .165.053.303.163.416.109.111.243.168.402.168a.53.53 0 00.408-.168.584.584 0 00.157-.416V.696a.58.58 0 00-.157-.42.543.543 0 00-.408-.163zM40.317.113a.55.55 0 00-.403.162.568.568 0 00-.163.421v6.147L35.01.326a.54.54 0 00-.436-.213.53.53 0 00-.397.162.578.578 0 00-.157.421v7.607c0 .165.053.303.157.416a.522.522 0 00.397.168.53.53 0 00.407-.168.589.589 0 00.158-.416V2.169l4.741 6.516c.051.066.118.117.201.151a.62.62 0 00.234.051c.166 0 .3-.055.403-.168a.601.601 0 00.152-.416V.696a.587.587 0 00-.152-.42.518.518 0 00-.4-.163z" fill="#fff"/><path fill-rule="evenodd" clip-rule="evenodd" d="M48.094 1.343a3.908 3.908 0 00-1.333-.91 4.376 4.376 0 00-1.702-.32H43.09a.55.55 0 00-.403.162.568.568 0 00-.163.421v7.607c0 .165.054.303.163.416.11.111.244.168.403.168h1.969a4.38 4.38 0 001.702-.32 3.92 3.92 0 001.333-.91c.377-.392.666-.857.87-1.393a4.953 4.953 0 00.304-1.77c0-.643-.101-1.232-.304-1.763a4.087 4.087 0 00-.87-1.388zm-.316 4.887a3.053 3.053 0 01-1.104 1.191c-.467.289-1.006.433-1.615.433h-1.403V1.146h1.403c.61 0 1.147.142 1.615.427.468.285.836.678 1.104 1.18.268.502.403 1.082.403 1.742 0 .65-.134 1.23-.403 1.735z" fill="#fff"/><path d="M56.266 1.191c.167 0 .3-.049.403-.147a.506.506 0 00.152-.382.535.535 0 00-.152-.399.547.547 0 00-.403-.151h-4.917a.55.55 0 00-.402.162.568.568 0 00-.164.42v7.607c0 .165.054.304.164.416.109.112.243.169.402.169h4.917c.167 0 .3-.05.403-.152a.54.54 0 00.152-.399.502.502 0 00-.152-.382.558.558 0 00-.403-.146h-4.35V5h3.12c.167 0 .301-.05.404-.151.1-.101.152-.23.152-.388a.524.524 0 00-.152-.389.547.547 0 00-.403-.151h-3.122V1.19h4.351zM62.4 4.448l2.48-3.415A.691.691 0 0065 .617a.563.563 0 00-.142-.359.458.458 0 00-.359-.146c-.167 0-.3.055-.403.168L61.66 3.63 59.322.28c-.08-.112-.214-.168-.403-.168a.454.454 0 00-.364.157.653.653 0 00-.157.372.557.557 0 00.109.392l2.39 3.424-2.532 3.486a.663.663 0 00-.13.399c0 .145.043.274.13.382.087.109.214.162.38.162a.525.525 0 00.393-.168l2.497-3.433L64 8.674c.058.075.121.13.19.162.07.034.15.051.246.051a.47.47 0 00.375-.157.609.609 0 00.147-.382.623.623 0 00-.12-.406L62.4 4.448z" fill="#fff"/></svg>