<svg width="130" height="71" viewBox="0 0 130 71" fill="none" xmlns="http://www.w3.org/2000/svg"><path d="M5.152 10.084c2.1 0 3.584-1.134 4.004-3.108h-.798c-.42 1.568-1.554 2.408-3.22 2.408-2.268 0-3.696-1.778-3.696-4.284S2.898.816 5.166.816c1.638 0 2.786.854 3.22 2.394h.798C8.75 1.25 7.266.116 5.208.116 2.45.116.658 2.16.658 5.1c0 2.968 1.75 4.984 4.494 4.984zM10.783 10h.756V5.478h4.228v-.7H11.54V.9h5.068V.2h-5.824V10zm10.007 0c3.108 0 4.928-1.932 4.928-4.9 0-2.982-1.82-4.9-4.928-4.9h-2.856V10h2.856zM18.69.9h2.1c2.674 0 4.158 1.624 4.158 4.2 0 2.562-1.484 4.2-4.158 4.2h-2.1V.9zm12.842 7.448c0 1.134.462 1.652 1.666 1.652h1.036v-.658h-.98c-.742 0-1.008-.28-1.008-1.008V3.56h1.918v-.658h-1.918V.914h-.714v1.988h-1.344v.658h1.344v4.788zm6.686-5.446c-1.316 0-1.876.63-2.17 1.414l-.111-1.414h-.616V10h.714V6.402c0-1.442.378-2.814 2.044-2.814h.517v-.686h-.377zm7.38 6.44c-.42 0-.63-.14-.63-.686V5.352c0-1.624-.994-2.534-2.772-2.534-1.624 0-2.702.784-2.884 2.072h.714c.182-.868.938-1.442 2.142-1.442 1.33 0 2.086.7 2.086 1.876v.616h-2.408c-1.82 0-2.8.784-2.8 2.114 0 1.26.994 2.03 2.506 2.03 1.442 0 2.296-.658 2.73-1.54v.252c-.028.84.322 1.204 1.162 1.204h.42v-.658h-.266zM44.254 7.13c0 1.358-.966 2.338-2.646 2.338-1.134 0-1.834-.574-1.834-1.456 0-.938.7-1.456 2.016-1.456h2.464v.574zm8.251-2.632c-.434-1.008-1.386-1.68-2.716-1.68-1.946 0-3.346 1.484-3.346 3.626 0 2.24 1.4 3.64 3.346 3.64 1.33 0 2.254-.714 2.702-1.708L52.603 10h.616V.2h-.714v4.298zm-2.66 4.942c-1.582 0-2.674-1.232-2.674-2.996 0-1.75 1.092-2.996 2.674-2.996 1.582 0 2.674 1.246 2.674 3.01 0 1.75-1.092 2.982-2.674 2.982zm5.418-8.036c.28 0 .504-.21.504-.504a.493.493 0 00-.504-.504c-.28 0-.504.21-.504.504 0 .294.224.504.504.504zM54.899 10h.714V2.902h-.714V10zm5.668-7.182c-1.302 0-2.142.672-2.548 1.596l-.112-1.512h-.616V10h.714V6.5c0-1.848.938-3.024 2.45-3.024 1.372 0 2.198.896 2.198 2.576V10h.714V6.024c0-2.24-1.19-3.206-2.8-3.206zM70.73 4.554c-.434-1.05-1.386-1.736-2.702-1.736-1.946 0-3.346 1.47-3.346 3.626 0 2.24 1.4 3.64 3.346 3.64 1.33 0 2.268-.7 2.716-1.806v1.26c0 1.89-.896 2.702-2.604 2.702-1.33 0-2.254-.602-2.478-1.68h-.742c.224 1.512 1.442 2.324 3.164 2.324 2.296 0 3.374-1.092 3.374-3.318V2.902h-.616l-.112 1.652zM68.083 9.44c-1.582 0-2.674-1.232-2.674-2.996s1.092-2.996 2.674-2.996c1.582 0 2.674 1.232 2.674 3.01 0 1.75-1.092 2.982-2.674 2.982zm15.071-.098c-.42 0-.63-.14-.63-.686V5.352c0-1.624-.994-2.534-2.772-2.534-1.624 0-2.702.784-2.884 2.072h.714c.182-.868.938-1.442 2.142-1.442 1.33 0 2.086.7 2.086 1.876v.616h-2.408c-1.82 0-2.8.784-2.8 2.114 0 1.26.994 2.03 2.506 2.03 1.442 0 2.296-.658 2.73-1.54v.252C81.81 9.636 82.16 10 83 10h.42v-.658h-.266zM81.81 7.13c0 1.358-.966 2.338-2.646 2.338-1.134 0-1.834-.574-1.834-1.456 0-.938.7-1.456 2.016-1.456h2.464v.574zm5.841-4.312c-1.302 0-2.142.672-2.548 1.596l-.112-1.512h-.616V10h.714V6.5c0-1.848.938-3.024 2.45-3.024 1.372 0 2.198.896 2.198 2.576V10h.714V6.024c0-2.24-1.19-3.206-2.8-3.206zm10.067 1.68c-.434-1.008-1.386-1.68-2.716-1.68-1.946 0-3.346 1.484-3.346 3.626 0 2.24 1.4 3.64 3.346 3.64 1.33 0 2.254-.714 2.702-1.708L97.816 10h.616V.2h-.714v4.298zm-2.66 4.942c-1.582 0-2.674-1.232-2.674-2.996 0-1.75 1.092-2.996 2.674-2.996 1.582 0 2.674 1.246 2.674 3.01 0 1.75-1.092 2.982-2.674 2.982zm9.359-1.092c0 1.134.462 1.652 1.666 1.652h1.036v-.658h-.98c-.742 0-1.008-.28-1.008-1.008V3.56h1.918v-.658h-1.918V.914h-.714v1.988h-1.344v.658h1.344v4.788zm9.882.994c-.42 0-.63-.14-.63-.686V5.352c0-1.624-.994-2.534-2.772-2.534-1.624 0-2.702.784-2.884 2.072h.714c.182-.868.938-1.442 2.142-1.442 1.33 0 2.086.7 2.086 1.876v.616h-2.408c-1.82 0-2.8.784-2.8 2.114 0 1.26.994 2.03 2.506 2.03 1.442 0 2.296-.658 2.73-1.54v.252c-.028.84.322 1.204 1.162 1.204h.42v-.658h-.266zm-1.344-2.212c0 1.358-.966 2.338-2.646 2.338-1.134 0-1.834-.574-1.834-1.456 0-.938.7-1.456 2.016-1.456h2.464v.574zm1.809 2.87h.826l2.352-3.122L120.294 10h.868l-2.758-3.626 2.618-3.472h-.812l-2.24 2.94-2.212-2.94h-.854l2.618 3.472L114.764 10zm11.238-3.682v-.602h-4.522v.602h4.522zM.028 23.56h1.344V30h.714v-6.44h2.128v-.658H2.086v-1.064c0-.7.266-.98.98-.98h1.162V20.2h-1.19c-1.19 0-1.666.518-1.666 1.652v1.05H.028v.658zm7.948-.658c-1.316 0-1.876.63-2.17 1.414l-.112-1.414h-.616V30h.714v-3.598c0-1.442.378-2.814 2.044-2.814h.518v-.686h-.378zm4.066 7.182c1.554 0 2.744-1.008 3.052-2.436h-.728c-.28 1.106-1.218 1.792-2.38 1.792-1.582 0-2.576-1.204-2.604-2.856v-.126h5.796c0-.098.014-.21.014-.294-.07-2.114-1.372-3.346-3.276-3.346-1.946 0-3.276 1.484-3.276 3.584 0 2.226 1.386 3.682 3.402 3.682zm-2.604-4.228c.112-1.442 1.19-2.408 2.492-2.408 1.386 0 2.38.854 2.492 2.408H9.438zm10.302 4.228c1.554 0 2.744-1.008 3.052-2.436h-.728c-.28 1.106-1.218 1.792-2.38 1.792-1.582 0-2.576-1.204-2.604-2.856v-.126h5.796c0-.098.014-.21.014-.294-.07-2.114-1.372-3.346-3.276-3.346-1.946 0-3.276 1.484-3.276 3.584 0 2.226 1.386 3.682 3.402 3.682zm-2.604-4.228c.112-1.442 1.19-2.408 2.492-2.408 1.386 0 2.38.854 2.492 2.408h-4.984zm10.616 1.96c.056 1.47 1.246 2.268 3.024 2.268 1.526 0 2.758-.77 2.758-2.03 0-1.498-1.316-1.792-2.842-2.002-1.106-.154-2.086-.28-2.086-1.274 0-.812.798-1.344 2.002-1.344 1.134 0 1.946.546 2.072 1.47h.728c-.126-1.386-1.26-2.086-2.8-2.086-1.582-.014-2.716.798-2.716 2.016 0 1.428 1.316 1.694 2.772 1.89 1.19.168 2.156.322 2.156 1.372 0 .84-.882 1.372-2.044 1.372-1.358 0-2.24-.63-2.296-1.652h-.728zm10.575-4.998c-1.33 0-2.254.714-2.702 1.708l-.112-1.624h-.616V32.8h.714v-4.438c.406 1.036 1.372 1.722 2.716 1.722 1.946 0 3.346-1.484 3.346-3.64 0-2.226-1.4-3.626-3.346-3.626zm-.056 6.622c-1.582 0-2.674-1.232-2.674-3.01 0-1.736 1.092-2.982 2.674-2.982 1.582 0 2.674 1.246 2.674 2.996 0 1.764-1.092 2.996-2.674 2.996zm7.713-6.538c-1.316 0-1.876.63-2.17 1.414l-.112-1.414h-.616V30h.714v-3.598c0-1.442.378-2.814 2.044-2.814h.518v-.686h-.378zm4.066 7.182c1.554 0 2.744-1.008 3.052-2.436h-.728c-.28 1.106-1.218 1.792-2.38 1.792-1.582 0-2.576-1.204-2.604-2.856v-.126h5.796c0-.098.014-.21.014-.294-.07-2.114-1.372-3.346-3.276-3.346-1.946 0-3.276 1.484-3.276 3.584 0 2.226 1.386 3.682 3.402 3.682zm-2.604-4.228c.112-1.442 1.19-2.408 2.492-2.408 1.386 0 2.38.854 2.492 2.408h-4.984zm13.41 3.486c-.42 0-.63-.14-.63-.686v-3.304c0-1.624-.995-2.534-2.773-2.534-1.623 0-2.702.784-2.884 2.072h.714c.182-.868.938-1.442 2.142-1.442 1.33 0 2.087.7 2.087 1.876v.616h-2.409c-1.82 0-2.8.784-2.8 2.114 0 1.26.995 2.03 2.507 2.03 1.441 0 2.295-.658 2.73-1.54v.252c-.029.84.322 1.204 1.162 1.204h.42v-.658h-.267zM59.51 27.13c0 1.358-.966 2.338-2.646 2.338-1.134 0-1.834-.574-1.834-1.456 0-.938.7-1.456 2.017-1.456h2.463v.574zm8.252-2.632c-.434-1.008-1.386-1.68-2.716-1.68-1.946 0-3.346 1.484-3.346 3.626 0 2.24 1.4 3.64 3.346 3.64 1.33 0 2.254-.714 2.702-1.708L67.861 30h.616v-9.8h-.714v4.298zm-2.66 4.942c-1.582 0-2.674-1.232-2.674-2.996 0-1.75 1.092-2.996 2.674-2.996 1.582 0 2.674 1.246 2.674 3.01 0 1.75-1.092 2.982-2.674 2.982zm12.257-6.622c-1.33 0-2.268.728-2.716 1.736V20.2h-.714V30h.616l.112-1.61c.42 1.022 1.372 1.694 2.702 1.694 1.946 0 3.346-1.484 3.346-3.64 0-2.226-1.4-3.626-3.346-3.626zm-.056 6.622c-1.582 0-2.674-1.232-2.674-3.01 0-1.736 1.092-2.982 2.674-2.982 1.582 0 2.674 1.246 2.674 2.996 0 1.764-1.092 2.996-2.674 2.996zm7.951.644c1.554 0 2.744-1.008 3.052-2.436h-.728c-.28 1.106-1.218 1.792-2.38 1.792-1.582 0-2.576-1.204-2.604-2.856v-.126h5.796c0-.098.014-.21.014-.294-.07-2.114-1.372-3.346-3.276-3.346-1.946 0-3.276 1.484-3.276 3.584 0 2.226 1.386 3.682 3.402 3.682zm-2.604-4.228c.112-1.442 1.19-2.408 2.492-2.408 1.386 0 2.38.854 2.492 2.408h-4.984zm13.062 3.486c-.714 0-.98-.28-.98-1.008V23.56h1.89v-.658h-1.89v-1.988h-.714v1.988h-3.066v-1.988h-.714v1.988h-1.344v.658h1.344v4.788c0 1.134.462 1.652 1.666 1.652h.882v-.658h-.854c-.714 0-.98-.28-.98-1.008V23.56h3.066v4.788c0 1.134.448 1.652 1.652 1.652h1.078v-.658h-1.036zm2.507-7.938c.28 0 .504-.21.504-.504a.493.493 0 00-.504-.504c-.28 0-.504.21-.504.504 0 .294.224.504.504.504zM97.856 30h.714v-7.098h-.714V30zm5.668-7.182c-1.302 0-2.142.672-2.548 1.596l-.112-1.512h-.616V30h.714v-3.5c0-1.848.938-3.024 2.45-3.024 1.372 0 2.198.896 2.198 2.576V30h.714v-3.976c0-2.24-1.19-3.206-2.8-3.206zm10.162 1.736c-.434-1.05-1.386-1.736-2.702-1.736-1.946 0-3.346 1.47-3.346 3.626 0 2.24 1.4 3.64 3.346 3.64 1.33 0 2.268-.7 2.716-1.806v1.26c0 1.89-.896 2.702-2.604 2.702-1.33 0-2.254-.602-2.478-1.68h-.742c.224 1.512 1.442 2.324 3.164 2.324 2.296 0 3.374-1.092 3.374-3.318v-6.664h-.616l-.112 1.652zm-2.646 4.886c-1.582 0-2.674-1.232-2.674-2.996s1.092-2.996 2.674-2.996c1.582 0 2.674 1.232 2.674 3.01 0 1.75-1.092 2.982-2.674 2.982zM7.084 49.342c-.42 0-.63-.14-.63-.686v-3.304c0-1.624-.994-2.534-2.772-2.534-1.624 0-2.702.784-2.884 2.072h.714c.182-.868.938-1.442 2.142-1.442 1.33 0 2.086.7 2.086 1.876v.616H3.332c-1.82 0-2.8.784-2.8 2.114 0 1.26.994 2.03 2.506 2.03 1.442 0 2.296-.658 2.73-1.54v.252C5.74 49.636 6.09 50 6.93 50h.42v-.658h-.266zM5.74 47.13c0 1.358-.966 2.338-2.646 2.338-1.134 0-1.834-.574-1.834-1.456 0-.938.7-1.456 2.016-1.456H5.74v.574zm5.55 2.954c1.61 0 2.744-.924 3.024-2.366h-.757c-.238 1.05-1.091 1.722-2.268 1.722-1.554 0-2.632-1.218-2.632-2.982 0-1.764 1.064-3.01 2.633-3.01 1.19 0 2.03.672 2.282 1.736h.742c-.294-1.47-1.4-2.366-3.01-2.366-2.003 0-3.375 1.484-3.375 3.64 0 2.184 1.358 3.626 3.36 3.626zm7.31-7.182c-1.317 0-1.877.63-2.17 1.414l-.113-1.414h-.616V50h.714v-3.598c0-1.442.378-2.814 2.044-2.814h.518v-.686H18.6zm4.066 7.182c2.002 0 3.415-1.484 3.415-3.64 0-2.142-1.413-3.626-3.415-3.626-2.003 0-3.402 1.484-3.402 3.626 0 2.156 1.4 3.64 3.402 3.64zm0-.644c-1.582 0-2.675-1.232-2.675-2.996 0-1.75 1.093-2.996 2.675-2.996 1.581 0 2.674 1.246 2.674 2.996 0 1.764-1.093 2.996-2.674 2.996zm4.498-1.624c.056 1.47 1.246 2.268 3.024 2.268 1.527 0 2.759-.77 2.759-2.03 0-1.498-1.317-1.792-2.843-2.002-1.105-.154-2.085-.28-2.085-1.274 0-.812.798-1.344 2.002-1.344 1.133 0 1.945.546 2.072 1.47h.727c-.126-1.386-1.26-2.086-2.8-2.086-1.581-.014-2.715.798-2.715 2.016 0 1.428 1.316 1.694 2.771 1.89 1.19.168 2.157.322 2.157 1.372 0 .84-.882 1.372-2.044 1.372-1.358 0-2.24-.63-2.297-1.652h-.727zm6.686 0c.056 1.47 1.246 2.268 3.024 2.268 1.526 0 2.758-.77 2.758-2.03 0-1.498-1.316-1.792-2.842-2.002-1.106-.154-2.086-.28-2.086-1.274 0-.812.798-1.344 2.002-1.344 1.134 0 1.946.546 2.072 1.47h.728c-.126-1.386-1.26-2.086-2.8-2.086-1.582-.014-2.716.798-2.716 2.016 0 1.428 1.316 1.694 2.772 1.89 1.19.168 2.156.322 2.156 1.372 0 .84-.882 1.372-2.044 1.372-1.358 0-2.24-.63-2.296-1.652h-.728zm12.43-6.37c0 .448-.21.756-.644.756h-1.68v.658h1.68c.294 0 .504-.084.63-.238V50h.728v-9.8h-.714v1.246zm6.887 3.472c1.106-.224 1.834-1.008 1.834-2.282 0-1.498-1.19-2.52-3.094-2.52-1.862 0-3.206 1.078-3.22 2.758h.728c.014-1.288 1.05-2.1 2.492-2.1 1.4 0 2.352.756 2.352 1.89 0 1.148-.826 2.016-2.45 2.016h-.77v.63h.812c1.708 0 2.674.7 2.674 1.96 0 1.274-1.12 2.156-2.632 2.156-1.582 0-2.702-.854-2.702-2.296h-.728c0 1.848 1.344 2.954 3.388 2.954 2.044 0 3.416-1.148 3.416-2.772 0-1.526-.966-2.226-2.1-2.394zm3.475 4.102c-.378 0-.616.238-.616.546 0 .336.224.504.49.504.14 0 .28-.056.35-.168a.505.505 0 01.126.364c0 .532-.336 1.078-1.05 1.106v.42c.966-.042 1.568-.686 1.568-1.61 0-.644-.364-1.162-.868-1.162zm5.005-5.516c-1.036 0-1.96.364-2.548 1.19l.266-3.822h4.858V40.2h-5.516l-.35 5.474.7.028c.42-1.148 1.596-1.54 2.492-1.54 1.568 0 2.534 1.106 2.534 2.618 0 1.736-1.246 2.632-2.59 2.632-1.596 0-2.52-1.064-2.632-2.338h-.728c.112 1.624 1.288 2.996 3.36 2.996 1.764 0 3.332-1.148 3.332-3.304 0-1.904-1.274-3.262-3.178-3.262zm4.336 1.82c0 2.87 1.413 4.76 3.541 4.76 2.1 0 3.528-1.89 3.528-4.76v-.448c0-2.786-1.428-4.76-3.528-4.76-2.127 0-3.541 1.974-3.541 4.76v.448zm6.328-.028c0 2.492-1.107 4.116-2.787 4.116-1.694 0-2.8-1.624-2.8-4.116v-.392c0-2.492 1.106-4.116 2.8-4.116 1.68 0 2.787 1.624 2.787 4.116v.392zm2.08.028c0 2.87 1.414 4.76 3.542 4.76 2.1 0 3.528-1.89 3.528-4.76v-.448c0-2.786-1.428-4.76-3.528-4.76-2.128 0-3.542 1.974-3.542 4.76v.448zm6.328-.028c0 2.492-1.106 4.116-2.786 4.116-1.694 0-2.8-1.624-2.8-4.116v-.392c0-2.492 1.106-4.116 2.8-4.116 1.68 0 2.786 1.624 2.786 4.116v.392zm4.768.378h-2.436v.602h2.436v2.562h.658v-2.562h2.45v-.602h-2.45v-2.562h-.658v2.562zm14.446-1.12c-.434-1.05-1.387-1.736-2.703-1.736-1.946 0-3.346 1.47-3.346 3.626 0 2.24 1.4 3.64 3.347 3.64 1.33 0 2.268-.7 2.716-1.806v1.26c0 1.89-.897 2.702-2.605 2.702-1.33 0-2.254-.602-2.477-1.68h-.742c.224 1.512 1.441 2.324 3.163 2.324 2.296 0 3.375-1.092 3.375-3.318v-6.664h-.616l-.112 1.652zm-2.647 4.886c-1.582 0-2.674-1.232-2.674-2.996s1.093-2.996 2.675-2.996c1.581 0 2.673 1.232 2.673 3.01 0 1.75-1.091 2.982-2.673 2.982zm5.054.56h.714v-9.8h-.714V50zm5.529.084c2.002 0 3.416-1.484 3.416-3.64 0-2.142-1.414-3.626-3.416-3.626s-3.402 1.484-3.402 3.626c0 2.156 1.4 3.64 3.402 3.64zm0-.644c-1.582 0-2.674-1.232-2.674-2.996 0-1.75 1.092-2.996 2.674-2.996 1.582 0 2.674 1.246 2.674 2.996 0 1.764-1.092 2.996-2.674 2.996zm8.264-6.622c-1.33 0-2.268.728-2.716 1.736V40.2h-.714V50h.616l.112-1.61c.42 1.022 1.372 1.694 2.702 1.694 1.946 0 3.346-1.484 3.346-3.64 0-2.226-1.4-3.626-3.346-3.626zm-.056 6.622c-1.582 0-2.674-1.232-2.674-3.01 0-1.736 1.092-2.982 2.674-2.982 1.582 0 2.674 1.246 2.674 2.996 0 1.764-1.092 2.996-2.674 2.996zm11.06-.098c-.42 0-.63-.14-.63-.686v-3.304c0-1.624-.994-2.534-2.772-2.534-1.624 0-2.702.784-2.884 2.072h.714c.182-.868.938-1.442 2.142-1.442 1.33 0 2.086.7 2.086 1.876v.616h-2.408c-1.82 0-2.8.784-2.8 2.114 0 1.26.994 2.03 2.506 2.03 1.442 0 2.296-.658 2.73-1.54v.252c-.028.84.322 1.204 1.162 1.204h.42v-.658h-.266zm-1.344-2.212c0 1.358-.966 2.338-2.646 2.338-1.134 0-1.834-.574-1.834-1.456 0-.938.7-1.456 2.016-1.456h2.464v.574zm2.565 2.87h.714v-9.8h-.714V50zM8.764 62.818c-1.302 0-2.142.728-2.548 1.778-.336-1.176-1.218-1.778-2.338-1.778-1.218 0-1.946.714-2.31 1.596l-.112-1.512H.84V70h.714v-3.612c0-1.736.84-2.912 2.198-2.912 1.232 0 2.002.868 2.002 2.506V70h.714v-3.864c.042-1.624.882-2.66 2.212-2.66 1.232 0 1.974.826 1.974 2.436V70h.728v-4.116c0-2.142-1.134-3.066-2.618-3.066zm10.447 6.524c-.42 0-.63-.14-.63-.686v-3.304c0-1.624-.994-2.534-2.772-2.534-1.624 0-2.702.784-2.884 2.072h.714c.182-.868.938-1.442 2.142-1.442 1.33 0 2.086.7 2.086 1.876v.616h-2.408c-1.82 0-2.8.784-2.8 2.114 0 1.26.994 2.03 2.506 2.03 1.442 0 2.296-.658 2.73-1.54v.252c-.028.84.322 1.204 1.162 1.204h.42v-.658h-.266zm-1.344-2.212c0 1.358-.966 2.338-2.646 2.338-1.134 0-1.834-.574-1.834-1.456 0-.938.7-1.456 2.016-1.456h2.464v.574zm5.463-4.228c-1.316 0-1.876.63-2.17 1.414l-.112-1.414h-.616V70h.714v-3.598c0-1.442.378-2.814 2.044-2.814h.518v-.686h-.378zM24.766 70h.714v-1.918l1.666-1.708L29.862 70h.868l-3.094-4.144 2.856-2.954h-.882l-4.13 4.256V60.2h-.714V70zm9.67.084c1.555 0 2.745-1.008 3.053-2.436h-.728c-.28 1.106-1.218 1.792-2.38 1.792-1.582 0-2.576-1.204-2.604-2.856v-.126h5.796c0-.098.014-.21.014-.294-.07-2.114-1.372-3.346-3.276-3.346-1.946 0-3.276 1.484-3.276 3.584 0 2.226 1.386 3.682 3.402 3.682zm-2.603-4.228c.112-1.442 1.19-2.408 2.492-2.408 1.386 0 2.38.854 2.492 2.408h-4.984zm7.588 2.492c0 1.134.462 1.652 1.666 1.652h1.036v-.658h-.98c-.742 0-1.008-.28-1.008-1.008V63.56h1.918v-.658h-1.918v-1.988h-.714v1.988h-1.344v.658h1.344v4.788zm3.466-.532c.056 1.47 1.246 2.268 3.024 2.268 1.526 0 2.758-.77 2.758-2.03 0-1.498-1.316-1.792-2.842-2.002-1.106-.154-2.086-.28-2.086-1.274 0-.812.798-1.344 2.002-1.344 1.134 0 1.946.546 2.072 1.47h.728c-.126-1.386-1.26-2.086-2.8-2.086-1.582-.014-2.716.798-2.716 2.016 0 1.428 1.316 1.694 2.772 1.89 1.19.168 2.156.322 2.156 1.372 0 .84-.882 1.372-2.044 1.372-1.358 0-2.24-.63-2.296-1.652h-.728z" fill="#000"/></svg>