<svg width="264" height="25" viewBox="0 0 264 25" fill="none" xmlns="http://www.w3.org/2000/svg"><path d="M6.475 20.517c-2.296 0-3.818-.404-4.952-.917l-.671-4.1h.49l.49.971c1.16 2.32 2.58 3.345 4.85 3.345 2.604 0 4.075-1.349 4.075-3.56 0-1.97-1.084-2.967-4.179-4.1-3.508-1.268-5.262-2.67-5.262-5.826 0-3.156 2.76-5.503 6.19-5.503 2.141 0 3.38.297 4.566.81l.645 4.261H12.2l-.464-.998C10.679 2.58 9.337 1.53 7.3 1.53c-2.14 0-3.404 1.348-3.404 3.263 0 1.915 1.031 2.886 3.972 3.938 3.869 1.349 5.494 2.886 5.494 6.015.025 3.426-3.147 5.772-6.887 5.772zM22.673 18.845c-1.083.97-2.193 1.618-3.585 1.618-2.064 0-3.147-.97-3.147-3.29V8.217h-1.909v-.513l2.038-.809 2.012-4.208h.825v4.316h3.456v1.214h-3.456v8.9c0 1.322.62 1.97 1.625 1.97.696 0 1.16-.19 1.805-.675l.336.432zM29.92 20.571c-3.74 0-6.5-2.481-6.5-7.094 0-3.91 2.683-6.905 6.526-6.905s6.5 2.482 6.5 7.094c-.026 3.911-2.734 6.905-6.525 6.905zm-.36-13.297c-1.832 0-2.863 1.456-2.863 5.421 0 4.343 1.34 7.175 3.559 7.175 1.857 0 2.863-1.457 2.863-5.422 0-4.342-1.316-7.174-3.56-7.174zM52.309 20.274c-.593 0-2.115-.027-3.276-.027-1.16 0-2.657.027-3.301.027v-.431l.438-.081c1.16-.216 1.367-.593 1.367-3.048v-5.287c0-2.05-.851-3.047-2.373-3.047-1.057 0-1.934.431-2.708 1.024v7.31c0 2.482.18 2.832 1.367 3.048l.438.08v.432c-.644 0-2.14-.027-3.301-.027-1.16 0-2.682.027-3.302.027v-.431l.516-.081c1.084-.162 1.29-.593 1.29-3.29v-5.827c0-1.456-.232-1.86-1.186-2.32l-.645-.323v-.297L42.12 6.68l.36.243v1.888c1.42-1.268 2.735-2.104 4.411-2.104 2.4 0 3.663 1.349 3.663 4.181v5.664c0 2.751.206 3.075 1.315 3.29l.465.082v.35h-.026zM56.049 12.318v.188c.077 3.83 2.063 6.204 4.746 6.204 1.47 0 2.502-.567 3.585-1.7l.361.27c-1.393 2.023-3.198 3.291-5.52 3.291-3.404 0-5.958-2.428-5.958-6.608 0-4.505 3.25-7.364 6.371-7.364 3.456 0 5.133 2.023 5.21 5.745H56.05v-.026zm5.648-.756c-.077-2.832-1.057-4.261-2.605-4.261-1.753 0-2.863 1.564-3.043 4.261h5.648zM83.699 20.274c-.465 0-2.786-.054-3.689-.054-.954 0-3.843.054-4.333.054v-.377l.826-.135c.8-.135 1.135-.35 1.135-.863 0-.432-.259-.971-.826-1.888l-2.889-4.613-2.889 4.154c-.67.971-.98 1.7-.98 2.239 0 .54.31.863 1.11.998l.85.135v.377c-.464 0-2.527-.054-3.456-.054-.928 0-2.398.054-2.888.054v-.404l.438-.081c1.16-.216 2.244-1.24 3.121-2.4l4.178-5.719-4.1-6.365c-.955-1.484-1.626-2.158-2.657-2.347l-.542-.108V2.5c.464 0 2.786.054 3.688.054.955 0 3.792-.054 4.282-.054v.377l-.825.135c-.697.108-1.084.35-1.084.863 0 .432.258.971.826 1.888l2.476 3.992 2.424-3.56c.645-.971.98-1.7.98-2.212 0-.512-.335-.863-1.109-.998l-.85-.135v-.377c.464 0 2.527.054 3.456.054.928 0 2.398-.054 2.888-.054v.377l-.438.081c-1.16.216-2.218 1.133-3.121 2.4l-3.74 5.125 4.54 6.96c.954 1.483 1.624 2.157 2.656 2.346l.542.108v.404zM85.762 5.413c-.206 0-.387-.027-.541-.108a1.35 1.35 0 01-.439-.324 1.227 1.227 0 01-.284-.459 1.465 1.465 0 01-.103-.566c0-.216.026-.405.103-.566.078-.19.18-.324.284-.459a.992.992 0 01.439-.297c.18-.08.36-.107.541-.107.207 0 .387.027.542.107.18.081.31.19.438.297.13.135.233.297.284.459.078.188.103.377.103.566 0 .216-.026.405-.103.566-.077.19-.18.324-.284.459a1.698 1.698 0 01-.438.324 1.622 1.622 0 01-.542.108zm0-.216c.18 0 .336-.027.465-.108.154-.054.283-.162.386-.27.104-.108.181-.243.258-.404a1.59 1.59 0 00.078-.486c0-.189-.026-.35-.078-.485a1.07 1.07 0 00-.258-.405 1.443 1.443 0 00-.386-.27c-.155-.054-.31-.108-.465-.108-.18 0-.335.027-.464.108a1.019 1.019 0 00-.387.27c-.103.108-.18.243-.258.405a1.593 1.593 0 00-.077.485c0 .189.026.35.077.486.052.161.155.296.258.404.103.108.232.216.387.27.155.08.31.108.464.108zm-.593-.378V3.093h.722c.18 0 .335.054.439.135a.5.5 0 01.154.377.5.5 0 01-.154.378c-.103.108-.232.135-.413.135l.077-.027c.078 0 .13.027.18.054.052.027.104.08.156.162l.283.512h-.386l-.284-.566c-.026-.054-.052-.081-.078-.081-.025-.027-.077-.027-.128-.027h-.181v.674h-.387zm.335-.97h.336c.103 0 .18-.028.206-.055.052-.027.077-.108.077-.189 0-.08-.025-.161-.077-.188a.47.47 0 00-.206-.054h-.336v.485zM101.529 20.493c-4.611 0-7.918-3.787-7.918-9.861 0-6.074 3.36-9.807 7.867-9.807 3.779 0 6.381 2.071 7.191 6.074.026.108-.052.218-.157.218h-.965c-.103 0-.235-.08-.235-.218-.65-3.242-2.788-4.904-5.834-4.904-3.75 0-6.487 3.188-6.487 8.664 0 5.475 2.762 8.663 6.538 8.663 4.143 0 6.253-3.023 6.227-7.52h-6.149c-.103 0-.209-.108-.209-.218v-.736c0-.108.103-.219.209-.219h7.294c.103 0 .209.108.209.219.103 6.074-2.554 9.642-7.581 9.642v.003zM111.455 20.193c-.104 0-.209-.108-.209-.218l.077-9.508-.077-9.125c0-.107.103-.218.209-.218h.91c.103 0 .209.108.209.218l-.052 9.071.052 9.562c0 .108-.103.218-.209.218h-.91zM120.65 20.493c-3.856 0-5.992-2.916-5.992-7.302 0-4.385 2.136-7.328 5.992-7.328s5.991 2.943 5.991 7.328c0 4.386-2.109 7.302-5.991 7.302zm0-1.063c3.126 0 4.663-2.425 4.663-6.239 0-3.813-1.563-6.265-4.663-6.265-3.101.027-4.664 2.452-4.664 6.265 0 3.814 1.563 6.24 4.664 6.24zM134.354 20.466c-2.11 0-3.648-1.063-4.507-3.05l.052 2.532c0 .108-.103.218-.209.218h-.885c-.103 0-.208-.107-.208-.218l.077-10.978-.077-7.628c0-.107.103-.218.208-.218h.911c.103 0 .209.108.209.218l-.026 7.52c.859-1.853 2.396-2.97 4.48-2.97 3.49 0 5.368 3.162 5.368 7.248 0 4.087-1.927 7.328-5.393 7.328v-.002zm-.261-1.063c2.995 0 4.325-2.697 4.325-6.128 0-3.43-1.302-6.32-4.297-6.32-2.553 0-4.299 2.015-4.325 6.048-.026 4.032 1.563 6.4 4.297 6.4zM151.181 20.193c-.103 0-.209-.108-.209-.218l.051-2.643c-.833 1.934-2.37 3.104-4.506 3.104-3.515 0-5.367-3.161-5.367-7.247 0-4.087 1.901-7.302 5.367-7.302 2.11 0 3.648 1.063 4.506 3.024l-.051-2.533c0-.108.103-.218.209-.218h.884c.104 0 .209.108.209.218l-.077 6.538.077 7.056c0 .108-.103.219-.209.219h-.884v.002zm-4.429-.817c2.605 0 4.3-2.044 4.326-6.047.025-4.005-1.563-6.374-4.272-6.374-3.023 0-4.377 2.698-4.377 6.101 0 3.405 1.329 6.32 4.326 6.32h-.003zM155.088 20.193c-.103 0-.208-.108-.208-.218l.077-9.508-.077-9.125c0-.107.103-.218.208-.218h.911c.103 0 .209.108.209.218l-.052 9.071.052 9.562c0 .108-.103.218-.209.218h-.911zM168.844 12.347h-4.272l.052 7.628c0 .108-.103.218-.209.218h-.99c-.103 0-.209-.108-.209-.218l.077-9.753-.077-8.882c0-.108.103-.219.209-.219h5.341c3.725 0 6.175 1.88 6.175 5.557 0 3.921-2.527 5.667-6.095 5.667l-.002.002zm-4.297-2.098v.954h4.351c2.917 0 4.689-1.224 4.689-4.523 0-2.996-1.746-4.385-4.792-4.385h-4.168l-.078 7.954h-.002zM185.568 20.193c-.103 0-.209-.108-.209-.218l.052-2.643c-.834 1.934-2.371 3.104-4.506 3.104-3.516 0-5.368-3.161-5.368-7.247 0-4.087 1.901-7.302 5.368-7.302 2.109 0 3.647 1.063 4.506 3.024l-.052-2.533c0-.108.103-.218.209-.218h.885c.103 0 .209.108.209.218l-.078 6.538.078 7.056c0 .108-.104.219-.209.219h-.885v.002zm-4.429-.817c2.605 0 4.297-2.044 4.326-6.047.026-4.005-1.563-6.374-4.272-6.374-3.022 0-4.377 2.698-4.377 6.101 0 3.405 1.329 6.32 4.326 6.32h-.003zM193.019 24.606c-.051.135-.157.219-.286.219h-.807a.15.15 0 01-.132-.219l1.512-4.466-5.21-13.783c-.052-.081.025-.192.129-.192h1.042c.129 0 .234.081.286.192l4.403 11.932 3.778-11.905c.052-.135.158-.219.287-.219h.964c.104 0 .183.108.129.219l-6.095 18.225v-.003zM201.848 14.338l.052 5.64c0 .107-.103.218-.209.218h-.939c-.103 0-.209-.108-.209-.218l.078-5.64-.052-7.954c0-.108.103-.219.209-.219h.885c.103 0 .209.108.209.219l-.052 2.67c.756-1.608 2.136-3.215 4.325-3.215 1.956 0 3.336 1.009 3.882 3.215.808-1.716 2.213-3.215 4.326-3.215 2.579 0 4.142 1.77 4.142 5.667v2.832l.026 5.64c0 .107-.103.218-.209.218h-.913c-.103 0-.209-.108-.209-.218l.052-5.64V11.64c0-3.404-1.251-4.659-3.178-4.659-1.746 0-2.943 1.39-3.805 3.596.026.3.026.599.026.925v2.832l.026 5.64c0 .108-.103.218-.209.218h-.913c-.103 0-.209-.108-.209-.218l.052-5.64v-2.697c0-3.404-1.251-4.658-3.178-4.658s-3.126 1.607-4.011 4.14v3.215l.005.003zM231.755 15.236c.103 0 .183.108.183.218-.495 3.078-2.318 5.039-5.522 5.039-3.959 0-6.043-2.97-6.043-7.275 0-4.304 2.267-7.355 5.888-7.355 3.622 0 5.68 2.587 5.757 7.056 0 .108-.103.218-.209.218l-10.134.027c0 3.952 1.589 6.266 4.767 6.266 2.422 0 3.804-1.497 4.245-3.978 0-.135.129-.219.235-.219h.833v.003zm-5.496-8.308c-2.657 0-4.22 1.988-4.532 5.122h8.909c-.026-2.832-1.537-5.122-4.377-5.122zM234.203 20.193c-.103 0-.209-.108-.209-.218l.052-5.94-.052-7.654c0-.108.103-.219.209-.219h.885c.103 0 .209.108.209.219l-.052 2.67c.756-1.58 2.241-3.215 4.558-3.215 2.708 0 4.377 1.826 4.377 5.667v2.67l.026 5.802c0 .108-.104.218-.209.218h-.913c-.104 0-.209-.108-.209-.218l.051-5.802V11.64c0-3.376-1.354-4.658-3.386-4.658-2.033 0-3.361 1.581-4.246 4.14v3.051l.026 5.802c0 .108-.103.218-.209.218h-.913.005zM252.204 19.921c0 .135-.077.245-.209.272-.39.108-.939.219-1.406.219-1.746 0-3.048-.925-3.048-3.895l.025-9.235h-1.537c-.103 0-.209-.108-.209-.219v-.68c0-.107.103-.218.209-.218h1.537l-.051-3.296c0-.108.103-.218.209-.218h.913c.103 0 .209.108.209.218l-.026 3.296h3.178c.103 0 .208.108.208.219v.68c0 .107-.103.218-.208.218h-3.178v9.235c0 2.099.547 2.724 1.849 2.724.47 0 .965-.054 1.329-.135a.169.169 0 01.208.165v.653l-.002-.003zM258.639 20.466c-3.361 0-5.496-1.608-5.574-5.039 0-.107.104-.218.209-.218h.833c.104 0 .209.108.209.218.078 2.752 1.589 4.033 4.352 4.033 2.293 0 3.933-1.09 3.933-3.024 0-4.55-9.247-1.254-9.247-6.702 0-2.533 2.059-3.841 4.924-3.841 2.866 0 5.053 1.28 5.185 4.194 0 .108-.104.218-.209.218h-.782c-.103 0-.209-.107-.209-.218-.129-2.26-1.849-3.188-4.011-3.188-2.161 0-3.647.925-3.647 2.778 0 4.14 9.247.844 9.247 6.673 0 2.586-2.293 4.113-5.21 4.113l-.003.003z" fill="#fff"/></svg>