<svg width="287" height="47" viewBox="0 0 287 47" fill="none" xmlns="http://www.w3.org/2000/svg"><path d="M17.483 33.231c-2.299 0-3.823-.398-4.96-.904l-.671-4.04h.49l.492.957c1.162 2.286 2.583 3.296 4.856 3.296 2.61 0 4.082-1.329 4.082-3.509 0-1.94-1.085-2.923-4.185-4.04-3.513-1.25-5.27-2.631-5.27-5.741s2.764-5.423 6.2-5.423c2.144 0 3.384.293 4.572.798l.646 4.2h-.517l-.465-.984c-1.059-2.286-2.402-3.323-4.443-3.323-2.144 0-3.41 1.33-3.41 3.217s1.034 2.844 3.978 3.88c3.875 1.33 5.503 2.845 5.503 5.928.026 3.376-3.152 5.688-6.898 5.688zM33.706 31.583c-1.085.957-2.195 1.595-3.59 1.595-2.067 0-3.152-.957-3.152-3.243V21.11h-1.912v-.505l2.041-.797 2.015-4.147h.827v4.253h3.461v1.196h-3.461v8.772c0 1.302.62 1.94 1.627 1.94.698 0 1.163-.186 1.808-.664l.336.425zM40.965 33.284c-3.745 0-6.51-2.445-6.51-6.99 0-3.855 2.687-6.805 6.536-6.805 3.85 0 6.51 2.445 6.51 6.99-.026 3.855-2.738 6.805-6.536 6.805zm-.361-13.104c-1.834 0-2.868 1.436-2.868 5.343 0 4.28 1.344 7.07 3.565 7.07 1.86 0 2.867-1.435 2.867-5.342 0-4.28-1.317-7.07-3.564-7.07zM63.388 32.992c-.594 0-2.118-.027-3.28-.027-1.163 0-2.661.027-3.307.027v-.425l.439-.08c1.162-.213 1.369-.585 1.369-3.004v-5.21c0-2.02-.852-3.003-2.377-3.003-1.059 0-1.937.425-2.712 1.01v7.203c0 2.446.18 2.791 1.37 3.004l.438.08v.425c-.646 0-2.144-.027-3.306-.027-1.163 0-2.687.027-3.307.027v-.425l.517-.08c1.085-.16 1.291-.585 1.291-3.243v-5.741c0-1.436-.232-1.834-1.188-2.286l-.646-.32v-.292l4.495-1.01.362.24v1.86c1.42-1.25 2.738-2.073 4.417-2.073 2.403 0 3.668 1.329 3.668 4.12v5.582c0 2.711.207 3.03 1.318 3.243l.465.08v.345h-.026zM67.134 25.15v.187c.077 3.774 2.066 6.113 4.753 6.113 1.472 0 2.506-.558 3.59-1.674l.362.265c-1.395 1.994-3.203 3.243-5.528 3.243-3.41 0-5.967-2.392-5.967-6.512 0-4.439 3.255-7.256 6.38-7.256 3.462 0 5.141 1.993 5.219 5.661h-8.81v-.026zm5.657-.744c-.077-2.79-1.06-4.2-2.609-4.2-1.757 0-2.868 1.542-3.048 4.2h5.657zM94.826 32.992c-.465 0-2.79-.053-3.694-.053-.956 0-3.849.053-4.34.053v-.372l.827-.133c.8-.133 1.137-.346 1.137-.85 0-.426-.259-.957-.827-1.861l-2.893-4.546-2.894 4.094c-.671.957-.981 1.674-.981 2.206s.31.85 1.11.983l.853.133v.373c-.465 0-2.531-.054-3.462-.054-.93 0-2.402.054-2.893.054v-.4l.44-.079c1.162-.212 2.247-1.223 3.125-2.366l4.185-5.635-4.107-6.273c-.956-1.462-1.628-2.126-2.661-2.312l-.543-.107v-.372c.465 0 2.79.053 3.695.053.955 0 3.797-.053 4.288-.053v.372l-.827.133c-.697.107-1.085.346-1.085.85 0 .426.258.958.827 1.862l2.48 3.933 2.428-3.508c.646-.957.982-1.675.982-2.18 0-.505-.336-.85-1.111-.983l-.853-.133v-.372c.465 0 2.532.053 3.462.053.93 0 2.402-.053 2.893-.053v.372l-.44.08c-1.162.212-2.22 1.116-3.125 2.365l-3.746 5.05 4.547 6.858c.956 1.462 1.627 2.127 2.66 2.313l.543.106v.399zM96.893 18.346c-.207 0-.388-.027-.543-.106a1.35 1.35 0 01-.439-.32 1.205 1.205 0 01-.284-.451 1.424 1.424 0 01-.103-.558c0-.213.026-.4.103-.559.078-.186.18-.319.284-.452a.994.994 0 01.44-.292c.18-.08.361-.106.542-.106.207 0 .387.026.542.106.181.08.31.186.44.292.129.133.232.293.284.452.077.186.103.372.103.559 0 .212-.026.398-.103.558-.078.186-.181.319-.285.452-.129.133-.284.239-.439.319a1.646 1.646 0 01-.542.106zm0-.213c.18 0 .336-.026.465-.106.155-.053.284-.16.387-.266.104-.106.181-.239.259-.398.051-.16.077-.32.077-.479 0-.186-.026-.346-.077-.478a1.053 1.053 0 00-.259-.4 1.443 1.443 0 00-.387-.265c-.155-.053-.31-.106-.465-.106-.181 0-.336.026-.465.106-.155.053-.284.16-.388.266a1.49 1.49 0 00-.258.399c-.052.16-.077.319-.077.478 0 .186.025.346.077.479.052.159.155.292.258.398.104.107.233.213.388.266a.99.99 0 00.465.106zm-.594-.372V16.06h.723c.18 0 .336.053.44.133a.49.49 0 01.154.372.49.49 0 01-.155.372c-.103.107-.232.133-.413.133l.077-.026c.078 0 .13.026.181.053.052.026.103.08.155.16l.284.504h-.387l-.284-.558c-.026-.053-.052-.08-.078-.08-.026-.026-.077-.026-.129-.026h-.18v.664h-.388zm.335-.957h.336c.104 0 .181-.026.207-.053.052-.027.077-.106.077-.186s-.025-.16-.077-.186a.475.475 0 00-.207-.053h-.335v.478zM112.684 33.207c-4.619 0-7.93-3.732-7.93-9.718s3.366-9.664 7.879-9.664c3.784 0 6.391 2.041 7.202 5.986.026.106-.052.215-.158.215h-.966c-.103 0-.235-.08-.235-.215-.651-3.195-2.793-4.833-5.843-4.833-3.756 0-6.497 3.142-6.497 8.538 0 5.396 2.766 8.538 6.548 8.538 4.149 0 6.262-2.98 6.236-7.411h-6.158c-.104 0-.209-.106-.209-.215v-.726c0-.106.103-.215.209-.215h7.305c.104 0 .209.106.209.215.104 5.986-2.557 9.503-7.592 9.503v.002zM122.625 32.912c-.104 0-.21-.106-.21-.215l.078-9.37-.078-8.992c0-.106.104-.215.21-.215h.912c.103 0 .209.106.209.215l-.052 8.939.052 9.423c0 .106-.104.215-.209.215h-.912zM131.834 33.207c-3.862 0-6.001-2.873-6.001-7.195s2.139-7.222 6.001-7.222c3.862 0 6.001 2.9 6.001 7.222 0 4.322-2.113 7.195-6.001 7.195zm0-1.047c3.131 0 4.671-2.39 4.671-6.148 0-3.759-1.566-6.175-4.671-6.175-3.105.027-4.671 2.416-4.671 6.175 0 3.758 1.566 6.148 4.671 6.148zM145.559 33.18c-2.113 0-3.653-1.047-4.513-3.006l.052 2.496c0 .107-.104.216-.21.216h-.886c-.103 0-.209-.107-.209-.216l.078-10.818-.078-7.517c0-.106.103-.215.209-.215h.912c.103 0 .209.106.209.215l-.025 7.41c.86-1.826 2.399-2.926 4.487-2.926 3.495 0 5.375 3.115 5.375 7.142s-1.929 7.222-5.401 7.222v-.002zm-.261-1.047c2.999 0 4.332-2.658 4.332-6.039 0-3.38-1.304-6.228-4.304-6.228-2.557 0-4.306 1.986-4.332 5.96-.026 3.974 1.566 6.307 4.304 6.307zM162.412 32.912c-.103 0-.209-.106-.209-.215l.051-2.605c-.834 1.906-2.374 3.06-4.513 3.06-3.52 0-5.375-3.116-5.375-7.143 0-4.027 1.904-7.195 5.375-7.195 2.114 0 3.653 1.047 4.513 2.98l-.051-2.496c0-.107.103-.216.209-.216h.886c.103 0 .209.107.209.216l-.077 6.443.077 6.953c0 .107-.103.216-.209.216h-.886v.002zm-4.435-.805c2.609 0 4.306-2.015 4.332-5.96.026-3.947-1.566-6.28-4.278-6.28-3.028 0-4.384 2.657-4.384 6.012 0 3.354 1.33 6.228 4.332 6.228h-.002zM166.326 32.912c-.104 0-.21-.106-.21-.215l.078-9.37-.078-8.992c0-.106.104-.215.21-.215h.912c.103 0 .209.106.209.215l-.052 8.939.052 9.423c0 .106-.104.215-.209.215h-.912zM180.102 25.18h-4.278l.052 7.517c0 .106-.103.215-.209.215h-.992c-.104 0-.209-.106-.209-.215l.077-9.612-.077-8.753c0-.106.103-.215.209-.215h5.35c3.73 0 6.184 1.853 6.184 5.476 0 3.864-2.532 5.584-6.104 5.584l-.003.003zm-4.304-2.068v.94h4.358c2.922 0 4.697-1.206 4.697-4.457 0-2.953-1.749-4.322-4.8-4.322h-4.174l-.078 7.839h-.003zM196.852 32.912c-.103 0-.209-.106-.209-.215l.051-2.605c-.834 1.906-2.374 3.06-4.512 3.06-3.521 0-5.376-3.116-5.376-7.143 0-4.027 1.904-7.195 5.376-7.195 2.113 0 3.652 1.047 4.512 2.98l-.051-2.496c0-.107.103-.216.209-.216h.886c.103 0 .209.107.209.216l-.077 6.443.077 6.953c0 .107-.103.216-.209.216h-.886v.002zm-4.435-.805c2.609 0 4.303-2.015 4.332-5.96.026-3.947-1.566-6.28-4.278-6.28-3.028 0-4.384 2.657-4.384 6.012 0 3.354 1.33 6.228 4.332 6.228h-.002zM204.315 37.26c-.052.134-.158.216-.287.216h-.808a.148.148 0 01-.132-.215l1.514-4.402-5.218-13.583c-.052-.08.025-.189.129-.189h1.043c.13 0 .235.08.287.19l4.41 11.759 3.784-11.733c.052-.133.158-.216.287-.216h.966c.103 0 .184.107.129.216l-6.104 17.96v-.002zM213.158 27.142l.051 5.558c0 .106-.103.215-.209.215h-.94c-.104 0-.21-.106-.21-.215l.078-5.558-.052-7.84c0-.105.104-.214.21-.214h.886c.103 0 .209.106.209.215l-.052 2.631c.757-1.584 2.139-3.168 4.332-3.168 1.958 0 3.34.994 3.888 3.168.809-1.69 2.217-3.168 4.332-3.168 2.583 0 4.149 1.744 4.149 5.585v2.79l.026 5.559c0 .106-.104.215-.21.215h-.914c-.103 0-.209-.106-.209-.215l.051-5.558v-2.659c0-3.354-1.252-4.59-3.182-4.59-1.749 0-2.948 1.369-3.81 3.543.025.295.025.59.025.912v2.79l.026 5.559c0 .106-.103.215-.209.215h-.914c-.104 0-.21-.106-.21-.215l.052-5.558V24.48c0-3.355-1.253-4.59-3.183-4.59-1.929 0-3.131 1.584-4.017 4.08v3.168l.006.003zM243.11 28.027c.104 0 .184.106.184.215-.496 3.033-2.322 4.965-5.531 4.965-3.965 0-6.052-2.926-6.052-7.169 0-4.242 2.27-7.248 5.897-7.248 3.627 0 5.688 2.549 5.766 6.953 0 .107-.103.216-.209.216l-10.15.026c0 3.894 1.591 6.175 4.774 6.175 2.426 0 3.81-1.475 4.252-3.92 0-.133.129-.216.235-.216h.834v.003zm-5.504-8.187c-2.661 0-4.227 1.959-4.539 5.047h8.922c-.026-2.79-1.539-5.047-4.383-5.047zM245.562 32.912c-.103 0-.209-.106-.209-.215l.051-5.853-.051-7.544c0-.106.103-.215.209-.215h.886c.103 0 .209.106.209.215l-.051 2.632c.756-1.558 2.244-3.169 4.564-3.169 2.713 0 4.384 1.8 4.384 5.585v2.631l.026 5.718c0 .106-.103.215-.209.215h-.915c-.103 0-.209-.106-.209-.215l.052-5.718v-2.495c0-3.328-1.357-4.591-3.392-4.591-2.036 0-3.366 1.558-4.252 4.08v3.006l.026 5.718c0 .106-.104.215-.21.215h-.914.005zM263.591 32.644c0 .133-.078.242-.21.268-.39.107-.94.215-1.408.215-1.748 0-3.053-.911-3.053-3.838l.026-9.1h-1.54c-.103 0-.209-.107-.209-.216v-.67c0-.106.103-.215.209-.215h1.54l-.052-3.249c0-.106.103-.215.209-.215h.915c.103 0 .209.106.209.215l-.026 3.249h3.183c.103 0 .209.106.209.215v.67c0 .106-.103.215-.209.215h-3.183v9.101c0 2.068.548 2.685 1.852 2.685a6.62 6.62 0 001.331-.133.169.169 0 01.209.162v.643l-.002-.002zM270.036 33.18c-3.366 0-5.505-1.584-5.583-4.965 0-.106.104-.215.21-.215h.834c.103 0 .209.106.209.215.078 2.712 1.591 3.974 4.358 3.974 2.297 0 3.94-1.074 3.94-2.98 0-4.484-9.261-1.235-9.261-6.605 0-2.496 2.061-3.785 4.931-3.785s5.061 1.263 5.192 4.133c0 .107-.103.216-.209.216h-.783c-.103 0-.209-.107-.209-.216-.129-2.227-1.852-3.141-4.017-3.141s-3.652.911-3.652 2.737c0 4.08 9.261.832 9.261 6.576 0 2.55-2.297 4.054-5.219 4.054l-.002.003z" fill="#fff"/></svg>