<svg width="108" height="47" viewBox="0 0 108 47" fill="none" xmlns="http://www.w3.org/2000/svg"><path d="M13.103 22.878c-1.722 0-2.864-.275-3.716-.623l-.503-2.781h.368l.367.658c.871 1.574 1.936 2.27 3.64 2.27 1.954 0 3.057-.915 3.057-2.416 0-1.336-.813-2.013-3.135-2.782-2.633-.86-3.949-1.812-3.949-3.953 0-2.142 2.071-3.734 4.645-3.734 1.607 0 2.536.201 3.426.55l.484 2.89H17.4l-.348-.676c-.794-1.574-1.8-2.288-3.33-2.288-1.606 0-2.554.915-2.554 2.214 0 1.3.774 1.959 2.98 2.673 2.904.915 4.123 1.958 4.123 4.081.02 2.324-2.361 3.917-5.168 3.917zM25.258 21.743c-.813.659-1.645 1.098-2.69 1.098-1.549 0-2.362-.659-2.362-2.233v-6.076h-1.432v-.348l1.53-.549 1.509-2.855h.62v2.928h2.593v.824h-2.594v6.04c0 .896.465 1.336 1.22 1.336.522 0 .87-.129 1.354-.458l.252.293zM30.697 22.914c-2.807 0-4.878-1.684-4.878-4.813 0-2.654 2.013-4.686 4.897-4.686 2.884 0 4.877 1.684 4.877 4.814-.019 2.654-2.051 4.685-4.896 4.685zm-.271-9.023c-1.374 0-2.149.989-2.149 3.679 0 2.947 1.007 4.868 2.671 4.868 1.394 0 2.149-.988 2.149-3.678 0-2.947-.987-4.869-2.671-4.869zM47.497 22.713c-.445 0-1.587-.018-2.458-.018-.871 0-1.994.018-2.478.018v-.293l.33-.055c.87-.146 1.025-.402 1.025-2.068V16.71c0-1.391-.639-2.068-1.78-2.068-.794 0-1.452.293-2.033.695v4.96c0 1.684.136 1.922 1.026 2.068l.33.055v.293c-.485 0-1.607-.018-2.478-.018-.871 0-2.013.018-2.478.018v-.293l.387-.055c.813-.11.968-.402.968-2.233V16.18c0-.988-.174-1.263-.89-1.574l-.484-.22v-.2l3.368-.696.27.164v1.281c1.065-.86 2.052-1.427 3.31-1.427 1.8 0 2.749.915 2.749 2.837v3.843c0 1.867.155 2.087.987 2.233l.348.055-.02.238zM50.303 17.314v.128c.058 2.599 1.549 4.21 3.562 4.21 1.103 0 1.877-.385 2.69-1.154l.27.183c-1.044 1.373-2.4 2.233-4.141 2.233-2.555 0-4.471-1.647-4.471-4.484 0-3.056 2.439-4.996 4.78-4.996 2.594 0 3.852 1.372 3.91 3.898l-6.6-.018zm4.239-.513c-.058-1.921-.794-2.891-1.955-2.891-1.316 0-2.148 1.061-2.284 2.891h4.239zM71.052 22.713c-.349 0-2.09-.037-2.768-.037-.716 0-2.884.037-3.252.037v-.256l.62-.092c.6-.091.851-.238.851-.585 0-.293-.193-.66-.62-1.282l-2.167-3.13-2.168 2.82c-.503.658-.735 1.152-.735 1.518 0 .366.232.586.832.678l.639.091v.256c-.349 0-1.897-.036-2.594-.036-.696 0-1.8.036-2.167.036v-.274l.329-.055c.87-.147 1.684-.842 2.342-1.629l3.135-3.88-3.077-4.32c-.717-1.006-1.22-1.464-1.994-1.592l-.406-.073v-.256c.348 0 2.09.037 2.767.037.717 0 2.846-.037 3.213-.037v.256l-.62.092c-.522.073-.812.238-.812.585 0 .293.194.66.62 1.281l1.857 2.71 1.82-2.417c.484-.659.735-1.153.735-1.5 0-.348-.251-.586-.832-.678l-.639-.091v-.257c.349 0 1.897.037 2.594.037.697 0 1.8-.037 2.168-.037v.257l-.33.055c-.87.146-1.664.768-2.341 1.629l-2.807 3.477 3.407 4.722c.716 1.007 1.219 1.464 1.993 1.592l.407.074v.274zM72.6 12.629a.942.942 0 01-.406-.074 1.014 1.014 0 01-.33-.22.824.824 0 01-.212-.31.911.911 0 01-.078-.385.81.81 0 01.078-.384 1.3 1.3 0 01.213-.311.752.752 0 01.329-.202c.135-.055.27-.073.406-.073.155 0 .29.018.407.073.135.055.232.128.328.202a.823.823 0 01.213.31.91.91 0 01.078.385c0 .147-.02.275-.078.384a1.3 1.3 0 01-.213.312 1.275 1.275 0 01-.328.22 1.33 1.33 0 01-.407.073zm0-.147a.694.694 0 00.348-.073.77.77 0 00.29-.183c.078-.073.136-.165.194-.275a.985.985 0 000-.659.723.723 0 00-.193-.274 1.09 1.09 0 00-.29-.183 1.186 1.186 0 00-.349-.073.694.694 0 00-.348.073.77.77 0 00-.29.183 1.023 1.023 0 00-.194.274.984.984 0 000 .66c.038.11.116.2.193.274a.77.77 0 00.29.183.796.796 0 00.349.073zm-.445-.256v-1.171h.542c.135 0 .251.036.329.091a.324.324 0 01.116.256c0 .11-.039.183-.116.257-.078.073-.174.091-.31.091l.058-.018c.058 0 .097.018.136.036a.32.32 0 01.116.11l.213.348h-.29l-.213-.385c-.02-.036-.04-.054-.059-.054-.019-.019-.058-.019-.096-.019h-.136v.458h-.29zm.251-.659h.252c.078 0 .136-.018.155-.037.039-.018.058-.073.058-.128 0-.055-.02-.11-.058-.128a.381.381 0 00-.155-.036h-.252v.329zM13.045 37.501c-2.458 0-4.2-1.812-4.2-4.74s1.78-4.722 4.18-4.722c2.014 0 3.388.988 3.814 2.928.02.055-.02.11-.078.11h-.503c-.058 0-.116-.037-.116-.11-.348-1.555-1.49-2.36-3.097-2.36-1.993 0-3.445 1.537-3.445 4.154 0 2.58 1.471 4.154 3.484 4.154 2.206 0 3.329-1.445 3.31-3.605h-3.31c-.058 0-.116-.055-.116-.11v-.348c0-.054.058-.11.116-.11h3.87c.059 0 .117.056.117.11.058 2.929-1.355 4.65-4.026 4.65zM18.271 37.355c-.058 0-.116-.055-.116-.11l.038-4.575-.038-4.393c0-.055.058-.11.116-.11h.484c.058 0 .116.055.116.11l-.02 4.356.02 4.594c0 .055-.058.11-.116.11h-.484v.018zM23.129 37.501c-2.052 0-3.194-1.41-3.194-3.514 0-2.105 1.142-3.514 3.194-3.514 2.071 0 3.194 1.41 3.194 3.514-.02 2.087-1.142 3.514-3.194 3.514zm0-.512c1.665 0 2.477-1.172 2.477-3.002 0-1.812-.832-3.02-2.477-3.02-1.645.019-2.477 1.172-2.477 3.02 0 1.849.832 3.002 2.477 3.002zM30.368 37.483c-1.123 0-1.936-.513-2.4-1.464l.02 1.226c0 .055-.059.11-.117.11h-.464c-.059 0-.117-.055-.117-.11l.039-5.271-.039-3.66c0-.055.058-.11.117-.11h.483c.058 0 .116.055.116.11l-.019 3.605c.465-.897 1.278-1.428 2.38-1.428 1.859 0 2.846 1.52 2.846 3.478.02 1.922-1.007 3.514-2.845 3.514zm-.136-.513c1.587 0 2.303-1.3 2.303-2.946 0-1.684-.696-3.039-2.283-3.039-1.355 0-2.284.97-2.304 2.91-.019 1.94.833 3.075 2.284 3.075zM39.271 37.355c-.058 0-.116-.055-.116-.11l.02-1.263c-.446.934-1.259 1.5-2.4 1.5-1.878 0-2.846-1.518-2.846-3.477 0-1.94 1.006-3.514 2.845-3.514 1.123 0 1.936.513 2.4 1.446l-.02-1.226c0-.055.059-.11.117-.11h.465c.058 0 .116.055.116.11l-.04 3.148.04 3.386c0 .055-.058.11-.116.11h-.465zm-2.361-.403c1.393 0 2.284-.988 2.303-2.91.02-1.922-.832-3.056-2.265-3.056-1.606 0-2.322 1.3-2.322 2.928 0 1.702.697 3.038 2.284 3.038zM41.303 37.355c-.058 0-.116-.055-.116-.11l.039-4.575-.039-4.393c0-.055.058-.11.116-.11h.484c.058 0 .116.055.116.11l-.02 4.356.02 4.594c0 .055-.058.11-.116.11h-.484v.018zM48.813 33.584h-2.265l.02 3.66c0 .056-.058.11-.116.11h-.523c-.058 0-.116-.054-.116-.11l.039-4.684-.04-4.265c0-.055.059-.11.117-.11h2.845c1.974 0 3.29.897 3.29 2.672 0 1.886-1.354 2.727-3.251 2.727zm-2.284-1.006v.457h2.303c1.549 0 2.497-.585 2.497-2.178 0-1.445-.929-2.104-2.555-2.104h-2.206l-.039 3.825zM57.716 37.355c-.058 0-.116-.055-.116-.11l.02-1.263c-.446.934-1.259 1.5-2.4 1.5-1.878 0-2.846-1.518-2.846-3.477 0-1.94 1.007-3.514 2.845-3.514 1.123 0 1.936.513 2.4 1.446l-.019-1.226c0-.055.058-.11.116-.11h.465c.058 0 .116.055.116.11l-.039 3.148.039 3.386c0 .055-.058.11-.116.11h-.465zm-2.361-.403c1.393 0 2.284-.988 2.303-2.91.02-1.922-.832-3.056-2.264-3.056-1.607 0-2.323 1.3-2.323 2.928-.02 1.702.697 3.038 2.284 3.038zM61.626 39.478c-.02.073-.078.11-.155.11h-.426a.081.081 0 01-.077-.11l.793-2.142-2.768-6.625c-.019-.037.02-.091.078-.091h.561c.078 0 .116.036.155.091l2.342 5.729 2.013-5.729c.02-.073.077-.11.155-.11h.503c.058 0 .097.055.077.11l-3.251 8.767zM66.29 34.536l.02 2.709c0 .055-.058.11-.117.11h-.503c-.058 0-.116-.055-.116-.11l.039-2.709-.02-3.825c0-.055.059-.11.117-.11h.464c.058 0 .116.055.116.11l-.019 1.281c.406-.768 1.142-1.537 2.303-1.537 1.045 0 1.78.476 2.071 1.537.426-.823 1.18-1.537 2.303-1.537 1.375 0 2.207.842 2.207 2.727v1.354l.02 2.709c0 .055-.059.11-.117.11h-.484c-.058 0-.116-.055-.116-.11l.02-2.709v-1.3c0-1.628-.659-2.232-1.684-2.232-.93 0-1.568.659-2.013 1.72.019.147.019.293.019.44v1.354l.02 2.709c0 .055-.059.11-.117.11h-.484c-.058 0-.116-.056-.116-.11l.02-2.71v-1.299c0-1.628-.659-2.232-1.684-2.232-1.007 0-1.665.768-2.13 1.994v1.556h-.019zM82.142 34.975c.058 0 .097.055.097.11-.271 1.483-1.239 2.416-2.942 2.416-2.11 0-3.213-1.427-3.213-3.495 0-2.069 1.2-3.533 3.135-3.533 1.878 0 3.02 1.245 3.058 3.386 0 .055-.058.11-.116.11l-5.38.018c0 1.904.851 3.02 2.535 3.02 1.297 0 2.013-.714 2.265-1.903 0-.074.077-.11.116-.11h.445v-.019zm-2.923-4.008c-1.412 0-2.245.952-2.4 2.453h4.742c-.038-1.336-.832-2.453-2.342-2.453zM83.555 37.355c-.058 0-.116-.055-.116-.11l.02-2.855-.02-3.679c0-.055.058-.11.116-.11h.464c.058 0 .116.055.116.11l-.019 1.281c.407-.75 1.2-1.537 2.42-1.537 1.432 0 2.322.878 2.322 2.727v1.281l.02 2.782c0 .055-.059.11-.117.11h-.484c-.058 0-.116-.055-.116-.11l.02-2.782v-1.226c0-1.63-.716-2.233-1.8-2.233-1.065 0-1.781.75-2.265 1.995v1.464l.02 2.782c0 .055-.059.11-.117.11h-.464zM93.135 37.227c0 .073-.038.11-.116.128-.213.055-.503.11-.755.11-.928 0-1.625-.44-1.625-1.867l.02-4.43h-.814c-.058 0-.116-.054-.116-.11v-.329c0-.055.058-.11.116-.11h.813l-.02-1.592c0-.055.059-.11.117-.11h.484c.058 0 .116.055.116.11l-.02 1.593h1.684c.058 0 .116.054.116.11v.329c0 .055-.058.11-.116.11h-1.684v4.429c0 1.006.29 1.318.988 1.318a2.7 2.7 0 00.696-.074c.058-.018.116.019.116.074v.31zM96.542 37.483c-1.78 0-2.923-.769-2.961-2.416 0-.055.058-.11.116-.11h.445c.058 0 .116.055.116.11.039 1.318.852 1.94 2.303 1.94 1.22 0 2.09-.53 2.09-1.446 0-2.178-4.915-.604-4.915-3.221 0-1.226 1.103-1.849 2.612-1.849 1.49 0 2.69.623 2.749 2.014 0 .055-.058.11-.116.11h-.407c-.058 0-.116-.055-.116-.11-.077-1.08-.987-1.538-2.129-1.538-1.18 0-1.935.44-1.935 1.336 0 1.995 4.916.403 4.916 3.203 0 1.245-1.22 1.977-2.768 1.977z" fill="#fff"/></svg>