<svg width="150" height="38" viewBox="0 0 150 38" fill="none" xmlns="http://www.w3.org/2000/svg"><path d="M5.95 7.149c-1.87-.323-3.094-.578-3.094-1.802 0-1.122.935-1.7 2.278-1.7 1.445 0 2.397.816 2.55 2.023h1.955C9.571 3.749 8.262 2.389 6.12 2.066V.264H4.471v1.768C2.312 2.253.901 3.596.901 5.483c0 2.363 1.87 2.992 3.842 3.332 1.887.34 3.128.612 3.128 1.87 0 1.139-1.02 1.768-2.431 1.768-1.666 0-2.754-.935-2.856-2.329L.612 10.09c.068 2.108 1.479 3.638 3.859 3.944v1.785H6.12v-1.751c2.227-.238 3.706-1.649 3.706-3.587.017-2.346-1.904-2.975-3.876-3.332zm5.172 1.173c0 3.587 1.921 5.78 4.692 5.78s4.692-2.193 4.692-5.78v-.544c0-3.451-1.921-5.78-4.692-5.78s-4.692 2.329-4.692 5.78v.544zm7.48-.068c0 2.669-1.122 4.199-2.788 4.199-1.666 0-2.788-1.53-2.788-4.199v-.408c0-2.652 1.122-4.199 2.788-4.199 1.666 0 2.788 1.547 2.788 4.199v.408zm11.81 5.848c2.228 0 3.707-1.241 4.047-3.213H32.52c-.221 1.003-.97 1.649-2.091 1.649-1.48 0-2.448-1.173-2.448-2.873 0-1.717.969-2.907 2.448-2.907 1.139 0 1.87.629 2.108 1.649h1.92c-.356-1.972-1.75-3.213-3.994-3.213-2.635 0-4.37 1.785-4.37 4.471 0 2.72 1.684 4.437 4.319 4.437zm9.566 0c2.652 0 4.437-1.785 4.437-4.454 0-2.652-1.785-4.454-4.437-4.454S35.54 6.996 35.54 9.648c0 2.669 1.785 4.454 4.437 4.454zm0-1.564c-1.547 0-2.55-1.207-2.55-2.89s1.003-2.89 2.55-2.89 2.567 1.207 2.567 2.89-1.02 2.89-2.567 2.89zm15.926-7.344c-1.428 0-2.414.629-2.975 1.581-.527-1.122-1.547-1.581-2.686-1.581-1.309.017-2.057.595-2.55 1.241l-.204-1.139h-1.598V14h1.836V9.342c0-1.547.782-2.567 2.04-2.567 1.207 0 1.836.799 1.836 2.329V14h1.853V9.291c0-1.564.8-2.516 2.057-2.516 1.19 0 1.82.799 1.82 2.329V14h1.835V8.985c0-2.754-1.462-3.791-3.264-3.791zm14.942 0c-1.428 0-2.414.629-2.975 1.581-.527-1.122-1.547-1.581-2.686-1.581-1.31.017-2.057.595-2.55 1.241l-.204-1.139h-1.598V14h1.836V9.342c0-1.547.782-2.567 2.04-2.567 1.207 0 1.836.799 1.836 2.329V14h1.853V9.291c0-1.564.799-2.516 2.057-2.516 1.19 0 1.819.799 1.819 2.329V14h1.836V8.985c0-2.754-1.462-3.791-3.264-3.791zm5.863-1.122c.629 0 1.122-.459 1.122-1.105 0-.646-.493-1.105-1.122-1.105-.629 0-1.122.459-1.122 1.105 0 .646.493 1.105 1.122 1.105zM75.774 14h1.836V5.296h-1.836V14zm3.262-2.873c.05 1.887 1.649 2.975 3.978 2.975 2.108 0 3.689-1.054 3.689-2.72 0-1.938-1.615-2.346-3.604-2.584-1.258-.136-2.091-.238-2.091-1.054 0-.697.714-1.139 1.802-1.139s1.836.561 1.938 1.36h1.802c-.12-1.785-1.632-2.771-3.774-2.771-2.091-.017-3.57 1.054-3.57 2.703 0 1.802 1.564 2.227 3.553 2.465 1.343.17 2.142.238 2.142 1.173 0 .697-.748 1.139-1.887 1.139-1.326 0-2.108-.646-2.176-1.547h-1.802zm8.55 0c.05 1.887 1.649 2.975 3.978 2.975 2.108 0 3.689-1.054 3.689-2.72 0-1.938-1.615-2.346-3.604-2.584-1.258-.136-2.091-.238-2.091-1.054 0-.697.714-1.139 1.802-1.139s1.836.561 1.938 1.36H95.1c-.12-1.785-1.632-2.771-3.774-2.771-2.091-.017-3.57 1.054-3.57 2.703 0 1.802 1.564 2.227 3.553 2.465 1.343.17 2.142.238 2.142 1.173 0 .697-.748 1.139-1.887 1.139-1.326 0-2.108-.646-2.176-1.547h-1.802zM97.61 4.072c.63 0 1.122-.459 1.122-1.105 0-.646-.493-1.105-1.122-1.105-.629 0-1.122.459-1.122 1.105 0 .646.493 1.105 1.122 1.105zM96.675 14h1.836V5.296h-1.836V14zm7.75.102c2.652 0 4.437-1.785 4.437-4.454 0-2.652-1.785-4.454-4.437-4.454s-4.437 1.802-4.437 4.454c0 2.669 1.785 4.454 4.437 4.454zm0-1.564c-1.547 0-2.55-1.207-2.55-2.89s1.003-2.89 2.55-2.89 2.567 1.207 2.567 2.89-1.02 2.89-2.567 2.89zm10.504-7.344c-1.411 0-2.244.561-2.788 1.241l-.205-1.139h-1.597V14h1.836V9.614c0-1.768.867-2.839 2.329-2.839 1.377 0 2.074.884 2.074 2.533V14h1.853V9.155c0-2.907-1.581-3.961-3.502-3.961zM5.015 34.102c2.652 0 4.437-1.785 4.437-4.454 0-2.652-1.785-4.454-4.437-4.454S.578 26.996.578 29.648c0 2.669 1.785 4.454 4.437 4.454zm0-1.564c-1.547 0-2.55-1.207-2.55-2.89s1.003-2.89 2.55-2.89 2.567 1.207 2.567 2.89-1.02 2.89-2.567 2.89zm10.503-7.344c-1.41 0-2.244.561-2.788 1.241l-.204-1.139h-1.598V34h1.836v-4.386c0-1.768.867-2.839 2.33-2.839 1.376 0 2.073.884 2.073 2.533V34h1.853v-4.845c0-2.907-1.58-3.961-3.502-3.961zm19.535 0c-1.428 0-2.414.629-2.975 1.581-.527-1.122-1.547-1.581-2.686-1.581-1.31.017-2.057.595-2.55 1.241l-.204-1.139H25.04V34h1.836v-4.658c0-1.547.782-2.567 2.04-2.567 1.207 0 1.836.799 1.836 2.329V34h1.853v-4.709c0-1.564.799-2.516 2.057-2.516 1.19 0 1.819.799 1.819 2.329V34h1.836v-5.015c0-2.754-1.462-3.791-3.264-3.791zm12.884 7.208c-.374 0-.56-.119-.56-.561v-3.485c0-2.057-1.327-3.162-3.639-3.162-2.193 0-3.655 1.054-3.842 2.754h1.802c.136-.765.867-1.275 1.955-1.275 1.207 0 1.904.595 1.904 1.564v.527h-2.193c-2.43 0-3.723 1.003-3.723 2.788 0 1.615 1.326 2.55 3.23 2.55 1.411 0 2.295-.612 2.873-1.496 0 .867.408 1.394 1.598 1.394h.97v-1.598h-.375zm-2.38-1.972c-.017 1.343-.9 2.244-2.43 2.244-1.004 0-1.616-.51-1.616-1.241 0-.884.63-1.309 1.768-1.309h2.278v.306zm4.774-6.358c.63 0 1.122-.459 1.122-1.105 0-.646-.493-1.105-1.122-1.105-.629 0-1.122.459-1.122 1.105 0 .646.493 1.105 1.122 1.105zM47.51 37.4h1.36c1.632 0 2.38-.867 2.38-2.431v-9.673h-1.836v9.537c0 .663-.272.952-.918.952h-.986V37.4zm9.651-3.298c2.653 0 4.438-1.785 4.438-4.454 0-2.652-1.785-4.454-4.438-4.454-2.651 0-4.436 1.802-4.436 4.454 0 2.669 1.785 4.454 4.437 4.454zm0-1.564c-1.546 0-2.55-1.207-2.55-2.89s1.004-2.89 2.55-2.89c1.548 0 2.568 1.207 2.568 2.89s-1.02 2.89-2.568 2.89zm10.317-7.242c-1.428 0-2.125.578-2.567 1.309l-.204-1.309h-1.632V34h1.836v-4.369c0-1.343.527-2.618 2.159-2.618h.816v-1.717h-.408zm6.009 3.604c0 3.383 1.598 5.202 4.675 5.202 3.094 0 4.709-1.819 4.709-5.202v-6.8h-1.955v6.902c0 2.21-.85 3.366-2.754 3.366-1.87 0-2.72-1.156-2.72-3.366V22.1h-1.955v6.8zM84.5 30.09c.068 2.38 1.853 4.012 4.81 4.012 2.619 0 4.404-1.479 4.404-3.621.017-2.346-1.904-2.975-3.876-3.332-1.87-.323-3.094-.578-3.094-1.802 0-1.122.935-1.7 2.278-1.7 1.445 0 2.397.816 2.55 2.023h1.955c-.085-2.193-1.785-3.672-4.505-3.672-2.533 0-4.233 1.411-4.233 3.485 0 2.363 1.87 2.992 3.842 3.332 1.887.34 3.128.612 3.128 1.87 0 1.139-1.02 1.768-2.431 1.768-1.666 0-2.754-.935-2.856-2.329L84.5 30.09zm14.723 1.037c.051 1.887 1.649 2.975 3.978 2.975 2.108 0 3.689-1.054 3.689-2.72 0-1.938-1.615-2.346-3.604-2.584-1.258-.136-2.091-.238-2.091-1.054 0-.697.714-1.139 1.802-1.139s1.836.561 1.938 1.36h1.802c-.119-1.785-1.632-2.771-3.774-2.771-2.091-.017-3.57 1.054-3.57 2.703 0 1.802 1.564 2.227 3.553 2.465 1.343.17 2.142.238 2.142 1.173 0 .697-.748 1.139-1.887 1.139-1.326 0-2.108-.646-2.176-1.547h-1.802zm13.663-5.933c-1.36 0-2.193.612-2.737 1.36V22.1h-1.836V34h1.836v-4.403c0-1.751.884-2.822 2.329-2.822 1.36 0 2.091.884 2.091 2.533V34h1.836v-4.845c0-2.907-1.581-3.961-3.519-3.961zm13.145 7.208c-.374 0-.561-.119-.561-.561v-3.485c0-2.057-1.326-3.162-3.638-3.162-2.193 0-3.655 1.054-3.842 2.754h1.802c.136-.765.867-1.275 1.955-1.275 1.207 0 1.904.595 1.904 1.564v.527h-2.193c-2.431 0-3.723 1.003-3.723 2.788 0 1.615 1.326 2.55 3.23 2.55 1.411 0 2.295-.612 2.873-1.496 0 .867.408 1.394 1.598 1.394h.969v-1.598h-.374zm-2.38-1.972c-.017 1.343-.901 2.244-2.431 2.244-1.003 0-1.615-.51-1.615-1.241 0-.884.629-1.309 1.768-1.309h2.278v.306zm8.157-5.134c-1.428 0-2.125.578-2.567 1.309l-.204-1.309h-1.632V34h1.836v-4.369c0-1.343.527-2.618 2.159-2.618h.816v-1.717h-.408zm5.256 8.806c2.159 0 3.621-1.309 3.927-3.026h-1.836c-.255.969-1.071 1.53-2.193 1.53-1.445 0-2.38-.969-2.431-2.448v-.119h6.562c.034-.238.051-.476.051-.697-.051-2.55-1.734-4.148-4.25-4.148-2.567 0-4.284 1.785-4.284 4.471 0 2.669 1.717 4.437 4.454 4.437zm-2.465-5.406c.136-1.241 1.139-2.023 2.312-2.023 1.275 0 2.176.731 2.329 2.023h-4.641zm7.606 2.431c.051 1.887 1.649 2.975 3.978 2.975 2.108 0 3.689-1.054 3.689-2.72 0-1.938-1.615-2.346-3.604-2.584-1.258-.136-2.091-.238-2.091-1.054 0-.697.714-1.139 1.802-1.139s1.836.561 1.938 1.36h1.802c-.119-1.785-1.632-2.771-3.774-2.771-2.091-.017-3.57 1.054-3.57 2.703 0 1.802 1.564 2.227 3.553 2.465 1.343.17 2.142.238 2.142 1.173 0 .697-.748 1.139-1.887 1.139-1.326 0-2.108-.646-2.176-1.547h-1.802z" fill="#000"/></svg>