<svg width="513" height="43" viewBox="0 0 513 43" fill="none" xmlns="http://www.w3.org/2000/svg"><path d="M1.455 35H4.07V19.082H1.455V35zM20.13 23.22c-1.91 0-3.23.842-3.98 2.116-.705-1.501-2.07-2.115-3.593-2.115-1.75.022-2.751.796-3.41 1.66l-.274-1.524H6.735V35H9.19v-6.23c0-2.07 1.046-3.434 2.728-3.434 1.615 0 2.456 1.068 2.456 3.115V35h2.48v-6.299c0-2.092 1.068-3.366 2.75-3.366 1.592 0 2.434 1.07 2.434 3.116V35h2.456v-6.708c0-3.684-1.956-5.071-4.366-5.071zm19.986 0c-1.91 0-3.23.842-3.98 2.116-.704-1.501-2.069-2.115-3.592-2.115-1.751.022-2.752.796-3.411 1.66l-.273-1.524H26.72V35h2.456v-6.23c0-2.07 1.046-3.434 2.729-3.434 1.614 0 2.456 1.068 2.456 3.115V35h2.478v-6.299c0-2.092 1.07-3.366 2.752-3.366 1.592 0 2.433 1.07 2.433 3.116V35h2.456v-6.708c0-3.684-1.956-5.071-4.366-5.071zm12.03 11.916c2.887 0 4.843-1.75 5.252-4.047h-2.456c-.34 1.296-1.432 2.046-2.933 2.046-1.933 0-3.184-1.296-3.252-3.274v-.16h8.778a6.67 6.67 0 00.068-.932c-.068-3.41-2.32-5.548-5.685-5.548-3.434 0-5.73 2.387-5.73 5.98 0 3.57 2.296 5.935 5.958 5.935zm-3.298-7.23c.182-1.66 1.524-2.707 3.093-2.707 1.705 0 2.91.978 3.115 2.706h-6.208zm16.63-4.549c-1.91 0-2.842.773-3.434 1.751l-.272-1.75h-2.184V35h2.456v-5.844c0-1.797.705-3.502 2.888-3.502h1.092v-2.297h-.546zm1.36 7.8c.069 2.524 2.206 3.98 5.322 3.98 2.82 0 4.934-1.41 4.934-3.639 0-2.592-2.16-3.138-4.82-3.456-1.683-.182-2.798-.319-2.798-1.41 0-.933.955-1.524 2.41-1.524 1.456 0 2.457.75 2.593 1.82h2.41c-.159-2.388-2.182-3.707-5.048-3.707-2.797-.023-4.775 1.41-4.775 3.615 0 2.41 2.092 2.98 4.753 3.298 1.796.227 2.865.318 2.865 1.569 0 .932-1 1.523-2.524 1.523-1.774 0-2.82-.864-2.911-2.07h-2.41zm17.685 3.98c2.888 0 4.844-1.752 5.253-4.048H87.32c-.34 1.296-1.432 2.046-2.933 2.046-1.933 0-3.184-1.296-3.252-3.274v-.16h8.778c.045-.318.068-.636.068-.932-.068-3.41-2.32-5.548-5.685-5.548-3.434 0-5.73 2.387-5.73 5.98 0 3.57 2.296 5.935 5.957 5.935zm-3.297-7.232c.182-1.66 1.524-2.706 3.093-2.706 1.705 0 2.91.978 3.115 2.706h-6.208zm19.924 7.163l-.455 1.137c-.363.955-.591 1.183-1.546 1.183H97.42v2.16h2.638c1.705 0 2.205-.841 2.933-2.729l5.276-13.462h-2.615l-3.161 8.846-3.252-8.846h-2.615l4.525 11.711zm13.33.068c3.548 0 5.935-2.387 5.935-5.957 0-3.548-2.387-5.958-5.935-5.958-3.547 0-5.935 2.41-5.935 5.958 0 3.57 2.388 5.957 5.935 5.957zm0-2.092c-2.069 0-3.411-1.614-3.411-3.865 0-2.252 1.342-3.866 3.411-3.866s3.434 1.614 3.434 3.866c0 2.25-1.365 3.865-3.434 3.865zm15.892-3.865c0 2.41-1.137 3.82-3.002 3.82-1.796 0-2.706-1.16-2.706-3.434v-6.208h-2.456v6.481c0 3.98 2.115 5.298 4.594 5.298 1.796 0 2.865-.727 3.593-1.614l.272 1.478h2.161V23.357h-2.456v5.822zm10.766-5.822c-1.911 0-2.843.773-3.434 1.751l-.273-1.75h-2.183V35h2.456v-5.844c0-1.797.705-3.502 2.888-3.502h1.091v-2.297h-.545zm1.36 7.8c.068 2.524 2.206 3.98 5.321 3.98 2.82 0 4.935-1.41 4.935-3.639 0-2.592-2.161-3.138-4.821-3.456-1.683-.182-2.797-.319-2.797-1.41 0-.933.955-1.524 2.41-1.524 1.456 0 2.456.75 2.593 1.82h2.41c-.159-2.388-2.183-3.707-5.048-3.707-2.797-.023-4.776 1.41-4.776 3.615 0 2.41 2.092 2.98 4.753 3.298 1.796.227 2.865.318 2.865 1.569 0 .932-1 1.523-2.524 1.523-1.774 0-2.82-.864-2.911-2.07h-2.41zm17.685 3.98c2.888 0 4.843-1.752 5.253-4.048h-2.456c-.341 1.296-1.433 2.046-2.934 2.046-1.933 0-3.183-1.296-3.252-3.274v-.16h8.778c.046-.318.068-.636.068-.932-.068-3.41-2.319-5.548-5.685-5.548-3.433 0-5.73 2.387-5.73 5.98 0 3.57 2.297 5.935 5.958 5.935zm-3.298-7.232c.182-1.66 1.524-2.706 3.093-2.706 1.706 0 2.911.978 3.115 2.706h-6.208zM167.625 35h2.456V19.082h-2.456V35zm3.681-9.483h2.024V35h2.478v-9.483h3.116v-2.16h-3.161v-.978c0-.796.341-1.137 1.137-1.137h2.024v-2.16h-2.343c-2.251 0-3.251 1.091-3.251 3.184v1.091h-2.024v2.16z" fill="#000"/><path d="M193.498 35h4.446l4.256-13.224L206.304 35h4.408l6.46-19.456h-4.18l-4.598 14.896-4.256-14.896h-3.762L195.93 30.44l-4.446-14.896h-4.332L193.498 35zm36.056-19.684c-3.04 0-4.902 1.368-6.118 3.04V8.4h-4.104V35h4.104v-9.842c0-3.914 1.976-6.308 5.206-6.308 3.04 0 4.674 1.976 4.674 5.662V35h4.104V24.17c0-6.498-3.534-8.854-7.866-8.854zm20.684 19.912c4.826 0 8.094-2.926 8.778-6.764h-4.104c-.57 2.166-2.394 3.42-4.902 3.42-3.23 0-5.32-2.166-5.434-5.472v-.266h14.668c.076-.532.114-1.064.114-1.558-.114-5.7-3.876-9.272-9.5-9.272-5.738 0-9.576 3.99-9.576 9.994 0 5.966 3.838 9.918 9.956 9.918zm-5.51-12.084c.304-2.774 2.546-4.522 5.168-4.522 2.85 0 4.864 1.634 5.206 4.522h-10.374zm28.208-7.828c-3.154 0-5.016 1.254-6.232 2.774l-.456-2.546h-3.572V35h4.104v-9.804c0-3.952 1.938-6.346 5.206-6.346 3.078 0 4.636 1.976 4.636 5.662V35h4.142V24.17c0-6.498-3.534-8.854-7.828-8.854zm22.689 14.402c0 3.534 1.596 5.282 5.32 5.282h3.8v-3.61h-2.888c-1.558 0-2.09-.57-2.09-2.09V19.154h4.75v-3.61h-4.75V10.11h-4.142v5.434h-3.382v3.61h3.382v10.564zm21.573-14.174c-3.192 0-4.75 1.292-5.738 2.926l-.456-2.926h-3.648V35h4.104v-9.766c0-3.002 1.178-5.852 4.826-5.852h1.824v-3.838h-.912zm20.633 15.884c-.836 0-1.254-.266-1.254-1.254v-7.79c0-4.598-2.964-7.068-8.132-7.068-4.902 0-8.17 2.356-8.588 6.156h4.028c.304-1.71 1.938-2.85 4.37-2.85 2.698 0 4.256 1.33 4.256 3.496v1.178h-4.902c-5.434 0-8.322 2.242-8.322 6.232 0 3.61 2.964 5.7 7.22 5.7 3.154 0 5.13-1.368 6.422-3.344 0 1.938.912 3.116 3.572 3.116h2.166v-3.572h-.836zm-5.32-4.408c-.038 3.002-2.014 5.016-5.434 5.016-2.242 0-3.61-1.14-3.61-2.774 0-1.976 1.406-2.926 3.952-2.926h5.092v.684zm23.025-8.778c-1.254-1.71-3.344-2.926-6.308-2.926-5.282 0-9.196 3.952-9.196 9.956 0 6.232 3.914 9.956 9.196 9.956 3.078 0 5.092-1.444 6.346-3.154l.494 2.926h3.572V8.4h-4.104v9.842zm-5.624 13.528c-3.42 0-5.662-2.66-5.662-6.498 0-3.8 2.242-6.46 5.662-6.46s5.662 2.66 5.662 6.536c0 3.762-2.242 6.422-5.662 6.422zm15.829-18.962c1.406 0 2.508-1.026 2.508-2.47 0-1.444-1.102-2.47-2.508-2.47s-2.508 1.026-2.508 2.47c0 1.444 1.102 2.47 2.508 2.47zM363.651 35h4.104V15.544h-4.104V35zm18.387-19.684c-3.154 0-5.016 1.254-6.232 2.774l-.456-2.546h-3.572V35h4.104v-9.804c0-3.952 1.938-6.346 5.206-6.346 3.078 0 4.636 1.976 4.636 5.662V35h4.142V24.17c0-6.498-3.534-8.854-7.828-8.854zm26.418 3.268c-1.254-1.938-3.344-3.268-6.384-3.268-5.282 0-9.196 3.914-9.196 9.88 0 6.194 3.914 9.88 9.196 9.88 3.04 0 5.054-1.254 6.346-3.192v2.166c0 3.724-2.014 5.434-5.586 5.434-2.888 0-4.788-1.254-5.282-3.42h-4.18c.38 4.37 3.99 6.764 9.158 6.764 6.992 0 9.956-3.344 9.956-8.626V15.544h-3.572l-.456 3.04zm-5.7 13.034c-3.42 0-5.662-2.622-5.662-6.422 0-3.762 2.242-6.422 5.662-6.422s5.662 2.66 5.662 6.498c0 3.724-2.242 6.346-5.662 6.346zM426.635 35h4.218V15.43l7.98 19.57h3.686l7.98-19.57V35h4.218V8.4h-5.548l-8.36 20.938L432.297 8.4h-5.662V35zm41.769.228c4.826 0 8.094-2.926 8.778-6.764h-4.104c-.57 2.166-2.394 3.42-4.902 3.42-3.23 0-5.32-2.166-5.434-5.472v-.266h14.668c.076-.532.114-1.064.114-1.558-.114-5.7-3.876-9.272-9.5-9.272-5.738 0-9.576 3.99-9.576 9.994 0 5.966 3.838 9.918 9.956 9.918zm-5.51-12.084c.304-2.774 2.546-4.522 5.168-4.522 2.85 0 4.864 1.634 5.206 4.522h-10.374zm19.206 6.574c0 3.534 1.596 5.282 5.32 5.282h3.8v-3.61h-2.888c-1.558 0-2.09-.57-2.09-2.09V19.154h4.75v-3.61h-4.75V10.11H482.1v5.434h-3.382v3.61h3.382v10.564zm29.292 1.71c-.836 0-1.254-.266-1.254-1.254v-7.79c0-4.598-2.964-7.068-8.132-7.068-4.902 0-8.17 2.356-8.588 6.156h4.028c.304-1.71 1.938-2.85 4.37-2.85 2.698 0 4.256 1.33 4.256 3.496v1.178h-4.902c-5.434 0-8.322 2.242-8.322 6.232 0 3.61 2.964 5.7 7.22 5.7 3.154 0 5.13-1.368 6.422-3.344 0 1.938.912 3.116 3.572 3.116h2.166v-3.572h-.836zm-5.32-4.408c-.038 3.002-2.014 5.016-5.434 5.016-2.242 0-3.61-1.14-3.61-2.774 0-1.976 1.406-2.926 3.952-2.926h5.092v.684z" fill="url(#paint0_linear_70_11759)"/><defs><linearGradient id="paint0_linear_70_11759" x1="513" y1="21.5" x2="187" y2="21.5" gradientUnits="userSpaceOnUse"><stop stop-color="#FF4343"/><stop offset=".5" stop-color="#9C0B93"/><stop offset="1" stop-color="#4C1BB7"/></linearGradient></defs></svg>