<svg width="143" height="35" viewBox="0 0 143 35" fill="none" xmlns="http://www.w3.org/2000/svg"><rect width="143" height="35" rx="17.5" fill="#000"/><path d="M22.42 11.98h4.767V25h1.827V11.98h4.767V10.3H22.42v1.68zm16.848 2.31c-1.911 0-2.73.798-3.234 1.617l-.231-1.617h-1.491V25h1.722v-5.46c0-1.701.609-3.57 2.856-3.57h.86v-1.68h-.482zm11.077 9.135c-.483 0-.693-.147-.693-.714v-4.683c0-2.499-1.575-3.864-4.305-3.864-2.583 0-4.284 1.239-4.536 3.339h1.722c.21-1.092 1.218-1.806 2.73-1.806 1.68 0 2.667.84 2.667 2.226v.735h-3.15c-2.814 0-4.305 1.197-4.305 3.339 0 1.953 1.596 3.129 3.948 3.129 1.848 0 2.92-.819 3.591-1.785.021 1.05.504 1.659 1.932 1.659h.945v-1.575h-.546zm-2.415-2.793c0 1.785-1.239 3.024-3.38 3.024-1.429 0-2.332-.714-2.332-1.764 0-1.218.861-1.785 2.394-1.785h3.318v.525zm12.604-4.704c-.651-1.029-1.869-1.764-3.675-1.764-2.961 0-5.145 2.205-5.145 5.481 0 3.486 2.184 5.481 5.145 5.481 1.806 0 2.961-.861 3.675-1.848L60.765 25h1.491V10.3h-1.722v5.628zm-3.507 7.665c-2.121 0-3.549-1.617-3.549-3.948s1.428-3.948 3.549-3.948c2.1 0 3.528 1.638 3.528 3.99 0 2.289-1.428 3.906-3.528 3.906zm12.51 1.533c2.478 0 4.242-1.575 4.662-3.717h-1.743c-.357 1.386-1.533 2.184-3.045 2.184-2.037 0-3.318-1.428-3.381-3.465v-.147h8.316c.02-.252.042-.504.042-.735-.084-3.171-2.058-5.082-5.082-5.082s-5.082 2.226-5.082 5.481c0 3.276 2.1 5.481 5.313 5.481zm-3.402-6.573c.168-1.743 1.617-2.877 3.192-2.877 1.785 0 3.045 1.029 3.213 2.877h-6.405zm20.964-4.389c-1.806 0-2.898.756-3.528 1.575l-.231-1.449h-1.491V25h1.722v-5.355c0-2.415 1.218-3.906 3.234-3.906 1.869 0 2.898 1.176 2.898 3.402V25h1.722v-5.964c0-3.549-1.911-4.872-4.326-4.872zm11.333 10.962c3.129 0 5.313-2.226 5.313-5.481s-2.184-5.481-5.313-5.481c-3.129 0-5.313 2.226-5.313 5.481s2.184 5.481 5.313 5.481zm0-1.533c-2.12 0-3.549-1.659-3.549-3.948 0-2.289 1.428-3.948 3.55-3.948 2.12 0 3.548 1.659 3.548 3.948 0 2.289-1.428 3.948-3.549 3.948zM107.828 25h1.89l2.688-7.959L114.989 25h1.89l3.57-10.71h-1.743l-2.793 8.715-2.667-8.715h-1.596l-2.814 8.715-2.667-8.715h-1.806L107.828 25z" fill="#fff"/></svg>