<svg width="43" height="12" viewBox="0 0 43 12" fill="none" xmlns="http://www.w3.org/2000/svg"><rect width="43" height="12" rx="6" fill="#000"/><path d="M6.218 6.252c.027.752.572 1.28 1.504 1.28.8 0 1.357-.462 1.357-1.122 0-.74-.638-.948-1.259-1.052-.572-.098-1.035-.19-1.035-.648 0-.409.332-.627.828-.627.518 0 .872.29.926.73h.49c-.043-.686-.566-1.16-1.416-1.16-.774 0-1.302.436-1.302 1.084 0 .741.632.943 1.247 1.047.578.098 1.047.196 1.047.67 0 .414-.365.648-.878.648-.583 0-.98-.338-1.019-.85h-.49zm3.604.523c0 .49.19.725.725.725h.485v-.409h-.441c-.24 0-.322-.087-.322-.321V5.13h.72v-.41h-.72v-.778h-.447v.779h-.501v.409h.501v1.645zm4.012.316c-.125 0-.18-.038-.18-.185V5.691c0-.649-.409-1.003-1.117-1.003-.67 0-1.112.322-1.177.867h.447c.054-.284.316-.469.708-.469.436 0 .692.218.692.578v.19h-.817c-.73 0-1.117.311-1.117.867 0 .507.414.812 1.024.812.48 0 .758-.213.932-.463.006.272.131.43.502.43h.245v-.409h-.142zm-.627-.724c0 .463-.321.784-.877.784-.37 0-.605-.185-.605-.457 0-.317.224-.464.621-.464h.861v.137zm2.398-1.646c-.496 0-.708.207-.839.42l-.06-.42h-.387V7.5h.447V6.083c0-.441.158-.926.741-.926h.223V4.72h-.125zm.81 2.054c0 .49.191.725.725.725h.485v-.409h-.441c-.24 0-.322-.087-.322-.321V5.13h.72v-.41h-.72v-.778h-.447v.779h-.5v.409h.5v1.645zm3.23 0c0 .49.191.725.725.725h.485v-.409h-.441c-.24 0-.322-.087-.322-.321V5.13h.72v-.41h-.72v-.778h-.447v.779h-.5v.409h.5v1.645zm2.883-2.054c-.495 0-.708.207-.839.42l-.06-.42h-.387V7.5h.447V6.083c0-.441.158-.926.741-.926h.224V4.72h-.126zm2.875 2.37c-.125 0-.18-.038-.18-.185V5.691c0-.649-.409-1.003-1.117-1.003-.67 0-1.112.322-1.177.867h.447c.054-.284.316-.469.708-.469.436 0 .692.218.692.578v.19h-.817c-.73 0-1.117.311-1.117.867 0 .507.414.812 1.024.812.48 0 .758-.213.932-.463.005.272.13.43.501.43h.245v-.409h-.141zm-.627-.724c0 .463-.321.784-.877.784-.37 0-.605-.185-.605-.457 0-.317.223-.464.621-.464h.861v.137zm3.27-1.221c-.168-.267-.484-.458-.953-.458-.768 0-1.335.572-1.335 1.422 0 .905.567 1.423 1.335 1.423.469 0 .768-.224.954-.48l.06.447h.386V3.686h-.446v1.46zm-.91 1.989c-.55 0-.92-.42-.92-1.025 0-.604.37-1.024.92-1.024.546 0 .916.425.916 1.035 0 .594-.37 1.014-.915 1.014zm2.195-2.883a.28.28 0 00.289-.288.28.28 0 00-.289-.29.28.28 0 00-.289.29.28.28 0 00.289.288zM29.102 7.5h.447V4.72h-.447V7.5zm2.421-2.812c-.468 0-.752.196-.915.409l-.06-.376h-.387V7.5h.447V6.11c0-.626.316-1.013.84-1.013.484 0 .751.305.751.883V7.5h.447V5.952c0-.92-.496-1.264-1.123-1.264zm3.883.512c-.174-.31-.485-.512-.953-.512-.769 0-1.336.572-1.336 1.422 0 .905.567 1.423 1.336 1.423.468 0 .768-.196.953-.513v.327c0 .605-.316.878-.899.878-.463 0-.774-.196-.85-.545h-.458c.071.61.567.943 1.275.943.954 0 1.379-.458 1.379-1.26V4.722h-.387l-.06.48zm-.91 1.935c-.55 0-.92-.42-.92-1.025 0-.604.37-1.024.92-1.024.545 0 .916.425.916 1.035 0 .594-.37 1.014-.916 1.014z" fill="#fff"/></svg>