<svg width="131" height="26" viewBox="0 0 131 26" fill="none" xmlns="http://www.w3.org/2000/svg"><rect x=".5" width="130" height="26" rx="13" fill="#fff"/><path d="M21.628 15.404c0 1.08.42 1.596 1.596 1.596h1.068v-.9h-.972c-.528 0-.708-.192-.708-.708V11.78h1.584v-.9h-1.584V9.164h-.984v1.716h-1.104v.9h1.104v3.624zm6.349-4.524c-1.092 0-1.56.456-1.848.924l-.132-.924h-.852V17h.984v-3.12c0-.972.348-2.04 1.632-2.04h.492v-.96h-.276zm6.33 5.22c-.276 0-.396-.084-.396-.408v-2.676c0-1.428-.9-2.208-2.46-2.208-1.476 0-2.448.708-2.592 1.908h.984c.12-.624.696-1.032 1.56-1.032.96 0 1.524.48 1.524 1.272v.42h-1.8c-1.608 0-2.46.684-2.46 1.908 0 1.116.912 1.788 2.256 1.788 1.056 0 1.668-.468 2.052-1.02.012.6.288.948 1.104.948h.54v-.9h-.312zm-1.38-1.596c0 1.02-.708 1.728-1.932 1.728-.816 0-1.332-.408-1.332-1.008 0-.696.492-1.02 1.368-1.02h1.896v.3zm7.202-2.688c-.372-.588-1.068-1.008-2.1-1.008-1.692 0-2.94 1.26-2.94 3.132 0 1.992 1.248 3.132 2.94 3.132 1.032 0 1.692-.492 2.1-1.056l.132.984h.852V8.6h-.984v3.216zm-2.004 4.38c-1.212 0-2.028-.924-2.028-2.256 0-1.332.816-2.256 2.028-2.256 1.2 0 2.016.936 2.016 2.28 0 1.308-.816 2.232-2.016 2.232zm4.832-6.348c.36 0 .636-.264.636-.636a.618.618 0 00-.636-.636.618.618 0 00-.636.636c0 .372.276.636.636.636zM42.453 17h.984v-6.12h-.984V17zm5.332-6.192c-1.032 0-1.656.432-2.016.9l-.132-.828h-.852V17h.984v-3.06c0-1.38.696-2.232 1.848-2.232 1.068 0 1.656.672 1.656 1.944V17h.984v-3.408c0-2.028-1.092-2.784-2.472-2.784zm8.55 1.128c-.383-.684-1.067-1.128-2.1-1.128-1.691 0-2.94 1.26-2.94 3.132 0 1.992 1.249 3.132 2.94 3.132 1.033 0 1.693-.432 2.1-1.128v.72c0 1.332-.695 1.932-1.98 1.932-1.02 0-1.703-.432-1.871-1.2h-1.008c.156 1.344 1.248 2.076 2.808 2.076 2.1 0 3.036-1.008 3.036-2.772v-5.82h-.852l-.132 1.056zm-2.003 4.26c-1.212 0-2.028-.924-2.028-2.256 0-1.332.816-2.256 2.028-2.256 1.2 0 2.016.936 2.016 2.28 0 1.308-.816 2.232-2.016 2.232zm10.553-5.388c-1.032 0-1.692.492-2.1 1.056l-.132-.984H61.8v8.52h.984v-3.336c.372.588 1.068 1.008 2.1 1.008 1.692 0 2.94-1.26 2.94-3.132 0-1.992-1.248-3.132-2.94-3.132zm-.096 5.388c-1.2 0-2.016-.936-2.016-2.28 0-1.308.816-2.232 2.016-2.232 1.212 0 2.028.924 2.028 2.256 0 1.332-.816 2.256-2.028 2.256zm6.98.876c1.788 0 3.036-1.272 3.036-3.132s-1.248-3.132-3.036-3.132-3.036 1.272-3.036 3.132 1.248 3.132 3.036 3.132zm0-.876c-1.212 0-2.028-.948-2.028-2.256 0-1.308.816-2.256 2.028-2.256 1.212 0 2.028.948 2.028 2.256 0 1.308-.816 2.256-2.028 2.256zm4.55-.792c0 1.08.42 1.596 1.596 1.596h1.068v-.9h-.972c-.528 0-.708-.192-.708-.708V11.78h1.584v-.9h-1.584V9.164h-.984v1.716h-1.104v.9h1.104v3.624zm6.185 1.668c1.416 0 2.424-.9 2.664-2.124h-.996c-.204.792-.876 1.248-1.74 1.248-1.164 0-1.896-.816-1.932-1.98v-.084h4.752c.012-.144.024-.288.024-.42-.048-1.812-1.176-2.904-2.904-2.904s-2.904 1.272-2.904 3.132c0 1.872 1.2 3.132 3.036 3.132zm-1.944-3.756c.096-.996.924-1.644 1.824-1.644 1.02 0 1.74.588 1.836 1.644h-3.66zm8.839-2.508c-1.032 0-1.656.432-2.016.9l-.132-.828h-.852V17h.984v-3.06c0-1.38.696-2.232 1.848-2.232 1.068 0 1.656.672 1.656 1.944V17h.984v-3.408c0-2.028-1.092-2.784-2.472-2.784zm4.182 4.596c0 1.08.42 1.596 1.596 1.596h1.068v-.9h-.972c-.528 0-.708-.192-.708-.708V11.78h1.584v-.9h-1.584V9.164h-.984v1.716h-1.104v.9h1.104v3.624zm4.02-5.556c.36 0 .637-.264.637-.636a.618.618 0 00-.636-.636.618.618 0 00-.636.636c0 .372.276.636.636.636zM97.099 17h.984v-6.12h-.984V17zm7.744-.9c-.276 0-.396-.084-.396-.408v-2.676c0-1.428-.9-2.208-2.46-2.208-1.476 0-2.448.708-2.592 1.908h.984c.12-.624.696-1.032 1.56-1.032.96 0 1.524.48 1.524 1.272v.42h-1.8c-1.608 0-2.46.684-2.46 1.908 0 1.116.912 1.788 2.256 1.788 1.056 0 1.668-.468 2.052-1.02.012.6.288.948 1.104.948h.54v-.9h-.312zm-1.38-1.596c0 1.02-.708 1.728-1.932 1.728-.816 0-1.332-.408-1.332-1.008 0-.696.492-1.02 1.368-1.02h1.896v.3zM105.91 17h.984V8.6h-.984V17zm2.212-.6c0 .408.288.672.684.672.396 0 .684-.264.684-.672 0-.408-.288-.672-.684-.672-.396 0-.684.264-.684.672z" fill="#000"/></svg>