<svg width="139" height="58" viewBox="0 0 139 58" fill="none" xmlns="http://www.w3.org/2000/svg"><path d="M10.08 15v-2.142H3.759V.3H1.344V15h8.736zm2.688-12.264c.777 0 1.386-.567 1.386-1.365S13.545.006 12.768.006c-.777 0-1.386.567-1.386 1.365s.609 1.365 1.386 1.365zM11.613 15h2.268V4.248h-2.268V15zm4.092-8.757h5.754l-6.006 7.14V15h9.324v-1.995h-6.279l6.006-7.14V4.248h-8.799v1.995zM31.731 15H34V.3h-2.268V15zm9.594.126c2.667 0 4.473-1.617 4.851-3.738h-2.268c-.315 1.197-1.323 1.89-2.709 1.89-1.785 0-2.94-1.197-3.003-3.024v-.147h8.106a6.16 6.16 0 00.063-.861c-.063-3.15-2.142-5.124-5.25-5.124-3.17 0-5.292 2.205-5.292 5.523 0 3.297 2.121 5.481 5.502 5.481zM38.28 8.448c.168-1.533 1.407-2.499 2.856-2.499 1.575 0 2.688.903 2.877 2.499H38.28zm19.747 4.578c-.462 0-.693-.147-.693-.693V8.028c0-2.541-1.638-3.906-4.494-3.906-2.71 0-4.515 1.302-4.746 3.402h2.226c.168-.945 1.07-1.575 2.415-1.575 1.49 0 2.352.735 2.352 1.932v.651h-2.71c-3.002 0-4.598 1.239-4.598 3.444 0 1.995 1.638 3.15 3.99 3.15 1.743 0 2.835-.756 3.549-1.848 0 1.071.504 1.722 1.974 1.722h1.197v-1.974h-.462zm-2.94-2.436c-.021 1.659-1.113 2.772-3.003 2.772-1.24 0-1.995-.63-1.995-1.533 0-1.092.777-1.617 2.184-1.617h2.814v.378zM62.17 15h2.772l3.97-10.752h-2.395L63.6 12.564l-2.96-8.316h-2.437L62.172 15zm12.5.126c2.667 0 4.473-1.617 4.851-3.738h-2.268c-.315 1.197-1.323 1.89-2.709 1.89-1.785 0-2.94-1.197-3.003-3.024v-.147h8.106a6.16 6.16 0 00.063-.861c-.063-3.15-2.142-5.124-5.25-5.124-3.17 0-5.292 2.205-5.292 5.523 0 3.297 2.121 5.481 5.502 5.481zm-3.045-6.678c.168-1.533 1.407-2.499 2.856-2.499 1.575 0 2.688.903 2.877 2.499h-5.733zm9.395 3.003c.063 2.331 2.037 3.675 4.914 3.675 2.604 0 4.557-1.302 4.557-3.36 0-2.394-1.995-2.898-4.452-3.192-1.554-.168-2.583-.294-2.583-1.302 0-.861.882-1.407 2.226-1.407 1.344 0 2.268.693 2.394 1.68h2.226c-.147-2.205-2.016-3.423-4.662-3.423-2.583-.021-4.41 1.302-4.41 3.339 0 2.226 1.932 2.751 4.39 3.045 1.658.21 2.645.294 2.645 1.449 0 .861-.924 1.407-2.33 1.407-1.639 0-2.605-.798-2.689-1.911h-2.226zM92.04 6.075c0 .84.609 1.428 1.449 1.428.84 0 1.47-.588 1.47-1.428s-.63-1.428-1.47-1.428-1.45.588-1.45 1.428zm0 7.623c0 .84.609 1.428 1.449 1.428.84 0 1.47-.588 1.47-1.428s-.63-1.428-1.47-1.428-1.45.588-1.45 1.428zM3.59 36h2.457L8.4 28.692 10.668 36h2.436l3.57-10.752h-2.31l-2.541 8.232-2.352-8.232H7.392L4.935 33.48l-2.457-8.232H.084L3.591 36zm19.926-10.878c-1.68 0-2.71.756-3.381 1.68V21.3h-2.268V36h2.268v-5.439c0-2.163 1.092-3.486 2.877-3.486 1.68 0 2.583 1.092 2.583 3.129V36h2.268v-5.985c0-3.591-1.953-4.893-4.347-4.893zm11.43 11.004c2.667 0 4.473-1.617 4.851-3.738H37.53c-.315 1.197-1.323 1.89-2.709 1.89-1.785 0-2.94-1.197-3.003-3.024v-.147h8.106a6.16 6.16 0 00.063-.861c-.063-3.15-2.142-5.124-5.25-5.124-3.17 0-5.292 2.205-5.292 5.523 0 3.297 2.121 5.481 5.502 5.481zm-3.045-6.678c.168-1.533 1.407-2.499 2.856-2.499 1.575 0 2.688.903 2.877 2.499h-5.733zm15.358-4.2c-1.764 0-2.625.714-3.171 1.617l-.252-1.617h-2.016V36h2.268v-5.397c0-1.659.651-3.234 2.667-3.234h1.008v-2.121h-.504zm6.493 10.878c2.667 0 4.473-1.617 4.851-3.738h-2.268c-.315 1.197-1.323 1.89-2.709 1.89-1.785 0-2.94-1.197-3.003-3.024v-.147h8.106a6.16 6.16 0 00.063-.861c-.063-3.15-2.142-5.124-5.25-5.124-3.17 0-5.292 2.205-5.292 5.523 0 3.297 2.121 5.481 5.502 5.481zm-3.045-6.678c.168-1.533 1.407-2.499 2.856-2.499 1.575 0 2.688.903 2.877 2.499h-5.733zm20.962-4.326c-1.743 0-2.772.693-3.444 1.533l-.252-1.407H66V36h2.268v-5.418c0-2.184 1.07-3.507 2.877-3.507 1.7 0 2.562 1.092 2.562 3.129V36h2.289v-5.985c0-3.591-1.953-4.893-4.326-4.893zm11.41 11.004c2.666 0 4.472-1.617 4.85-3.738h-2.268c-.315 1.197-1.323 1.89-2.709 1.89-1.785 0-2.94-1.197-3.003-3.024v-.147h8.106a6.16 6.16 0 00.063-.861c-.063-3.15-2.142-5.124-5.25-5.124-3.17 0-5.292 2.205-5.292 5.523 0 3.297 2.121 5.481 5.502 5.481zm-3.046-6.678c.168-1.533 1.407-2.499 2.856-2.499 1.575 0 2.688.903 2.877 2.499h-5.733zM88.348 36h2.499l2.835-3.906L96.496 36h2.646l-4.053-5.502 3.822-5.25h-2.5l-2.624 3.633-2.562-3.633h-2.646l3.8 5.25L88.349 36zm12.82-2.919c0 1.953.882 2.919 2.94 2.919h2.1v-1.995h-1.596c-.861 0-1.155-.315-1.155-1.155v-5.607h2.625v-1.995h-2.625v-3.003h-2.289v3.003h-1.869v1.995h1.869v5.838zm10.764-5.838h1.869V36h2.289v-8.757h2.877v-1.995h-2.919v-.903c0-.735.315-1.05 1.05-1.05h1.869V21.3h-2.163c-2.079 0-3.003 1.008-3.003 2.94v1.008h-1.869v1.995zm12.839 8.883c3.276 0 5.481-2.205 5.481-5.502 0-3.276-2.205-5.502-5.481-5.502s-5.481 2.226-5.481 5.502c0 3.297 2.205 5.502 5.481 5.502zm0-1.932c-1.911 0-3.15-1.491-3.15-3.57 0-2.079 1.239-3.57 3.15-3.57 1.911 0 3.171 1.491 3.171 3.57 0 2.079-1.26 3.57-3.171 3.57zm12.744-8.946c-1.764 0-2.625.714-3.171 1.617l-.252-1.617h-2.016V36h2.268v-5.397c0-1.659.651-3.234 2.667-3.234h1.008v-2.121h-.504zM13.482 46.122c-1.764 0-2.982.777-3.675 1.953-.651-1.386-1.911-1.953-3.318-1.953-1.617.021-2.541.735-3.15 1.533l-.252-1.407H1.113V57h2.268v-5.754c0-1.911.966-3.171 2.52-3.171 1.491 0 2.268.987 2.268 2.877V57h2.289v-5.817c0-1.932.987-3.108 2.541-3.108 1.47 0 2.247.987 2.247 2.877V57h2.268v-6.195c0-3.402-1.806-4.683-4.032-4.683zm15.916 8.904c-.462 0-.693-.147-.693-.693v-4.305c0-2.541-1.638-3.906-4.494-3.906-2.709 0-4.515 1.302-4.746 3.402h2.226c.168-.945 1.071-1.575 2.415-1.575 1.491 0 2.352.735 2.352 1.932v.651h-2.709c-3.003 0-4.599 1.239-4.599 3.444 0 1.995 1.638 3.15 3.99 3.15 1.743 0 2.835-.756 3.549-1.848 0 1.071.504 1.722 1.974 1.722h1.197v-1.974h-.462zm-2.94-2.436c-.021 1.659-1.113 2.772-3.003 2.772-1.239 0-1.995-.63-1.995-1.533 0-1.092.777-1.617 2.184-1.617h2.814v.378zm10.076-6.342c-1.764 0-2.625.714-3.17 1.617l-.253-1.617h-2.016V57h2.268v-5.397c0-1.659.651-3.234 2.667-3.234h1.008v-2.121h-.504zM38.437 57h2.268v-2.73l1.932-2.016L45.808 57h2.688l-4.305-6.405 4.053-4.347h-2.667l-4.872 5.208V42.3h-2.268V57zm15.583.126c2.667 0 4.473-1.617 4.85-3.738h-2.267c-.315 1.197-1.323 1.89-2.71 1.89-1.784 0-2.94-1.197-3.002-3.024v-.147h8.106a6.16 6.16 0 00.063-.861c-.063-3.15-2.142-5.124-5.25-5.124-3.171 0-5.292 2.205-5.292 5.523 0 3.297 2.12 5.481 5.502 5.481zm-3.045-6.678c.168-1.533 1.407-2.499 2.856-2.499 1.575 0 2.688.903 2.877 2.499h-5.733zm10.613 3.633c0 1.953.882 2.919 2.94 2.919h2.1v-1.995h-1.596c-.86 0-1.155-.315-1.155-1.155v-5.607h2.625v-1.995h-2.625v-3.003h-2.289v3.003H59.72v1.995h1.87v5.838zm6.021-.63c.063 2.331 2.037 3.675 4.914 3.675 2.604 0 4.557-1.302 4.557-3.36 0-2.394-1.995-2.898-4.452-3.192-1.554-.168-2.583-.294-2.583-1.302 0-.861.882-1.407 2.226-1.407 1.344 0 2.268.693 2.394 1.68h2.226c-.147-2.205-2.016-3.423-4.662-3.423-2.583-.021-4.41 1.302-4.41 3.339 0 2.226 1.932 2.751 4.389 3.045 1.659.21 2.646.294 2.646 1.449 0 .861-.924 1.407-2.331 1.407-1.638 0-2.604-.798-2.688-1.911h-2.226zm12.501-6.342c0-1.743 1.05-2.919 2.667-2.919 1.407 0 2.352.84 2.352 2.037 0 1.008-.546 1.68-1.49 2.31-1.26.819-2.248 1.512-2.248 3.213v.672h2.142v-.42c0-1.05.714-1.596 1.848-2.373 1.092-.777 2.1-1.701 2.1-3.633 0-2.205-1.806-3.822-4.725-3.822-3.129 0-4.956 2.205-4.956 4.935h2.31zm.966 8.61c0 .84.63 1.407 1.45 1.407.818 0 1.427-.567 1.427-1.407 0-.84-.609-1.407-1.428-1.407s-1.449.567-1.449 1.407z" fill="#000"/></svg>