<svg width="115" height="75" viewBox="0 0 115 75" fill="none" xmlns="http://www.w3.org/2000/svg"><path d="M.3 1.25h3.6V11h.81V1.25h3.6V.5H.3v.75zm11.498 2.145c-1.41 0-2.01.675-2.325 1.515l-.12-1.515h-.66V11h.765V7.145c0-1.545.405-3.015 2.19-3.015h.555v-.735h-.405zm7.906 6.9c-.45 0-.675-.15-.675-.735V6.02c0-1.74-1.065-2.715-2.97-2.715-1.74 0-2.895.84-3.09 2.22h.765c.195-.93 1.005-1.545 2.295-1.545 1.425 0 2.235.75 2.235 2.01v.66h-2.58c-1.95 0-3 .84-3 2.265 0 1.35 1.065 2.175 2.685 2.175 1.545 0 2.46-.705 2.925-1.65v.27c-.03.9.345 1.29 1.245 1.29h.45v-.705h-.285zm-1.44-2.37c0 1.455-1.035 2.505-2.835 2.505-1.215 0-1.965-.615-1.965-1.56 0-1.005.75-1.56 2.16-1.56h2.64v.615zm8.841-2.82c-.465-1.08-1.485-1.8-2.91-1.8-2.085 0-3.585 1.59-3.585 3.885 0 2.4 1.5 3.9 3.585 3.9 1.425 0 2.415-.765 2.895-1.83l.12 1.74h.66V.5h-.765v4.605zm-2.85 5.295c-1.695 0-2.865-1.32-2.865-3.21 0-1.875 1.17-3.21 2.865-3.21 1.695 0 2.865 1.335 2.865 3.225 0 1.875-1.17 3.195-2.865 3.195zm8.774.69c1.665 0 2.94-1.08 3.27-2.61h-.78c-.3 1.185-1.304 1.92-2.55 1.92-1.695 0-2.76-1.29-2.79-3.06v-.135h6.21c0-.105.015-.225.015-.315-.075-2.265-1.47-3.585-3.51-3.585-2.084 0-3.51 1.59-3.51 3.84 0 2.385 1.485 3.945 3.645 3.945zm-2.79-4.53c.12-1.545 1.276-2.58 2.67-2.58 1.486 0 2.55.915 2.67 2.58h-5.34zM43.806 11h.825l2.25-6.39L49.025 11h.825l2.7-7.605h-.78l-2.34 6.69-2.175-6.69h-.705l-2.295 6.69-2.22-6.69h-.81L43.805 11zM54.01 1.79c.3 0 .54-.225.54-.54 0-.315-.24-.54-.54-.54-.3 0-.54.225-.54.54 0 .315.24.54.54.54zM53.62 11h.765V3.395h-.765V11zm3.133-1.77c0 1.215.495 1.77 1.785 1.77h1.11v-.705h-1.05c-.795 0-1.08-.3-1.08-1.08V4.1h2.055v-.705h-2.055v-2.13h-.765v2.13h-1.44V4.1h1.44v5.13zm7.57-5.925c-1.426 0-2.31.795-2.746 1.89V.5h-.765V11h.765V7.25c0-1.98 1.005-3.24 2.625-3.24 1.455 0 2.355.96 2.355 2.76V11h.765V6.74c0-2.4-1.275-3.435-3-3.435zM7.094 26.165c-.465-1.125-1.485-1.86-2.895-1.86-2.085 0-3.585 1.575-3.585 3.885 0 2.4 1.5 3.9 3.585 3.9 1.425 0 2.43-.75 2.91-1.935v1.35c0 2.025-.96 2.895-2.79 2.895-1.425 0-2.415-.645-2.655-1.8H.87c.24 1.62 1.545 2.49 3.39 2.49 2.46 0 3.615-1.17 3.615-3.555v-7.14h-.66l-.12 1.77zM4.26 31.4c-1.695 0-2.865-1.32-2.865-3.21s1.17-3.21 2.865-3.21c1.695 0 2.865 1.32 2.865 3.225 0 1.875-1.17 3.195-2.865 3.195zm10.934-3.27c0 1.995-.99 3.255-2.565 3.255-1.41 0-2.28-.96-2.28-2.775v-4.215h-.765v4.26c0 2.385 1.245 3.435 2.925 3.435 1.35 0 2.235-.72 2.67-1.695L15.284 32h.675v-7.605h-.765v3.735zm9.256 3.165c-.45 0-.675-.15-.675-.735v-3.54c0-1.74-1.065-2.715-2.97-2.715-1.74 0-2.895.84-3.09 2.22h.765c.195-.93 1.005-1.545 2.295-1.545 1.425 0 2.235.75 2.235 2.01v.66h-2.58c-1.95 0-3 .84-3 2.265 0 1.35 1.065 2.175 2.685 2.175 1.545 0 2.46-.705 2.925-1.65v.27c-.03.9.345 1.29 1.245 1.29h.45v-.705h-.285zm-1.44-2.37c0 1.455-1.035 2.505-2.835 2.505-1.215 0-1.965-.615-1.965-1.56 0-1.005.75-1.56 2.16-1.56h2.64v.615zm5.853-4.53c-1.41 0-2.01.675-2.325 1.515l-.12-1.515h-.66V32h.765v-3.855c0-1.545.405-3.015 2.19-3.015h.555v-.735h-.405zm7.907 6.9c-.45 0-.675-.15-.675-.735v-3.54c0-1.74-1.065-2.715-2.97-2.715-1.74 0-2.895.84-3.09 2.22h.765c.195-.93 1.005-1.545 2.295-1.545 1.425 0 2.235.75 2.235 2.01v.66h-2.58c-1.95 0-3 .84-3 2.265 0 1.35 1.065 2.175 2.685 2.175 1.545 0 2.46-.705 2.925-1.65v.27c-.03.9.345 1.29 1.245 1.29h.45v-.705h-.285zm-1.44-2.37c0 1.455-1.035 2.505-2.835 2.505-1.215 0-1.965-.615-1.965-1.56 0-1.005.75-1.56 2.16-1.56h2.64v.615zm6.258-4.62c-1.395 0-2.295.72-2.73 1.71l-.12-1.62h-.66V32h.765v-3.75c0-1.98 1.005-3.24 2.625-3.24 1.47 0 2.355.96 2.355 2.76V32h.765v-4.26c0-2.4-1.275-3.435-3-3.435zm5.263 5.925c0 1.215.495 1.77 1.785 1.77h1.11v-.705h-1.05c-.795 0-1.08-.3-1.08-1.08V25.1h2.055v-.705h-2.055v-2.13h-.765v2.13h-1.44v.705h1.44v5.13zm7.184 1.86c1.665 0 2.94-1.08 3.27-2.61h-.78c-.3 1.185-1.305 1.92-2.55 1.92-1.695 0-2.76-1.29-2.79-3.06v-.135h6.21c0-.105.015-.225.015-.315-.075-2.265-1.47-3.585-3.51-3.585-2.085 0-3.51 1.59-3.51 3.84 0 2.385 1.485 3.945 3.645 3.945zm-2.79-4.53c.12-1.545 1.275-2.58 2.67-2.58 1.485 0 2.55.915 2.67 2.58h-5.34zm11.038 4.53c1.664 0 2.94-1.08 3.27-2.61h-.78c-.3 1.185-1.305 1.92-2.55 1.92-1.695 0-2.76-1.29-2.79-3.06v-.135h6.21c0-.105.014-.225.014-.315-.075-2.265-1.47-3.585-3.51-3.585-2.084 0-3.51 1.59-3.51 3.84 0 2.385 1.486 3.945 3.645 3.945zm-2.79-4.53c.12-1.545 1.274-2.58 2.67-2.58 1.485 0 2.55.915 2.67 2.58h-5.34zm13.886-1.455c-.465-1.08-1.485-1.8-2.91-1.8-2.084 0-3.584 1.59-3.584 3.885 0 2.4 1.5 3.9 3.584 3.9 1.425 0 2.416-.765 2.896-1.83l.12 1.74h.66V21.5h-.766v4.605zM70.53 31.4c-1.694 0-2.864-1.32-2.864-3.21 0-1.875 1.17-3.21 2.864-3.21 1.696 0 2.865 1.335 2.865 3.225 0 1.875-1.17 3.195-2.865 3.195zm9.113-1.74c.06 1.575 1.335 2.43 3.24 2.43 1.635 0 2.955-.825 2.955-2.175 0-1.605-1.41-1.92-3.045-2.145-1.185-.165-2.235-.3-2.235-1.365 0-.87.855-1.44 2.145-1.44 1.215 0 2.085.585 2.22 1.575h.78c-.135-1.485-1.35-2.235-3-2.235-1.695-.015-2.91.855-2.91 2.16 0 1.53 1.41 1.815 2.97 2.025 1.275.18 2.31.345 2.31 1.47 0 .9-.945 1.47-2.19 1.47-1.455 0-2.4-.675-2.46-1.77h-.78zm8.225.57c0 1.215.495 1.77 1.784 1.77h1.11v-.705h-1.05c-.794 0-1.08-.3-1.08-1.08V25.1h2.055v-.705h-2.055v-2.13h-.764v2.13h-1.44v.705h1.44v5.13zm7.184 1.86c2.145 0 3.66-1.59 3.66-3.9 0-2.295-1.515-3.885-3.66-3.885-2.145 0-3.645 1.59-3.645 3.885 0 2.31 1.5 3.9 3.645 3.9zm0-.69c-1.695 0-2.865-1.32-2.865-3.21 0-1.875 1.17-3.21 2.865-3.21 1.695 0 2.865 1.335 2.865 3.21 0 1.89-1.17 3.21-2.865 3.21zm8.855-7.095c-1.425 0-2.415.765-2.895 1.83l-.12-1.74h-.66V35h.765v-4.755c.435 1.11 1.47 1.845 2.91 1.845 2.085 0 3.585-1.59 3.585-3.9 0-2.385-1.5-3.885-3.585-3.885zm-.06 7.095c-1.695 0-2.865-1.32-2.865-3.225 0-1.86 1.17-3.195 2.865-3.195 1.695 0 2.865 1.335 2.865 3.21 0 1.89-1.17 3.21-2.865 3.21zm4.8-1.74c.06 1.575 1.335 2.43 3.24 2.43 1.635 0 2.955-.825 2.955-2.175 0-1.605-1.41-1.92-3.045-2.145-1.185-.165-2.235-.3-2.235-1.365 0-.87.855-1.44 2.145-1.44 1.215 0 2.085.585 2.22 1.575h.78c-.135-1.485-1.35-2.235-3-2.235-1.695-.015-2.91.855-2.91 2.16 0 1.53 1.41 1.815 2.97 2.025 1.275.18 2.31.345 2.31 1.47 0 .9-.945 1.47-2.19 1.47-1.455 0-2.4-.675-2.46-1.77h-.78zM1.47 51.23c0 1.215.495 1.77 1.785 1.77h1.11v-.705h-1.05c-.795 0-1.08-.3-1.08-1.08V46.1H4.29v-.705H2.235v-2.13H1.47v2.13H.03v.705h1.44v5.13zm7.185 1.86c2.145 0 3.66-1.59 3.66-3.9 0-2.295-1.515-3.885-3.66-3.885-2.145 0-3.645 1.59-3.645 3.885 0 2.31 1.5 3.9 3.645 3.9zm0-.69c-1.695 0-2.865-1.32-2.865-3.21 0-1.875 1.17-3.21 2.865-3.21 1.695 0 2.865 1.335 2.865 3.21 0 1.89-1.17 3.21-2.865 3.21zm12.897-7.095c-1.424 0-2.415.765-2.895 1.83l-.12-1.74h-.66V56h.765v-4.755c.436 1.11 1.47 1.845 2.91 1.845 2.085 0 3.585-1.59 3.585-3.9 0-2.385-1.5-3.885-3.585-3.885zm-.06 7.095c-1.695 0-2.864-1.32-2.864-3.225 0-1.86 1.17-3.195 2.864-3.195 1.695 0 2.866 1.335 2.866 3.21 0 1.89-1.17 3.21-2.866 3.21zm8.265-7.005c-1.41 0-2.01.675-2.325 1.515l-.12-1.515h-.66V53h.765v-3.855c0-1.545.405-3.015 2.19-3.015h.555v-.735h-.405zm4.357 7.695c2.145 0 3.66-1.59 3.66-3.9 0-2.295-1.516-3.885-3.66-3.885-2.145 0-3.645 1.59-3.645 3.885 0 2.31 1.5 3.9 3.645 3.9zm0-.69c-1.695 0-2.865-1.32-2.865-3.21 0-1.875 1.17-3.21 2.865-3.21 1.695 0 2.864 1.335 2.864 3.21 0 1.89-1.17 3.21-2.864 3.21zm5.632-1.17c0 1.215.495 1.77 1.785 1.77h1.11v-.705h-1.05c-.795 0-1.08-.3-1.08-1.08V46.1h2.055v-.705h-2.055v-2.13h-.765v2.13h-1.44v.705h1.44v5.13zm7.185 1.86c1.665 0 2.94-1.08 3.27-2.61h-.78c-.3 1.185-1.305 1.92-2.55 1.92-1.695 0-2.76-1.29-2.79-3.06v-.135h6.21c0-.105.015-.225.015-.315-.075-2.265-1.47-3.585-3.51-3.585-2.085 0-3.51 1.59-3.51 3.84 0 2.385 1.485 3.945 3.645 3.945zm-2.79-4.53c.12-1.545 1.275-2.58 2.67-2.58 1.485 0 2.55.915 2.67 2.58h-5.34zm10.992 4.53c1.725 0 2.94-.99 3.24-2.535h-.81c-.255 1.125-1.17 1.845-2.43 1.845-1.665 0-2.82-1.305-2.82-3.195s1.14-3.225 2.82-3.225c1.275 0 2.175.72 2.445 1.86h.795c-.315-1.575-1.5-2.535-3.225-2.535-2.145 0-3.615 1.59-3.615 3.9 0 2.34 1.455 3.885 3.6 3.885zm5.297-1.86c0 1.215.495 1.77 1.785 1.77h1.11v-.705h-1.05c-.795 0-1.08-.3-1.08-1.08V46.1h2.055v-.705h-2.055v-2.13h-.765v2.13h-1.44v.705h1.44v5.13zm14.792 1.065c-.45 0-.675-.15-.675-.735v-3.54c0-1.74-1.065-2.715-2.97-2.715-1.74 0-2.895.84-3.09 2.22h.765c.195-.93 1.005-1.545 2.295-1.545 1.425 0 2.235.75 2.235 2.01v.66h-2.58c-1.95 0-3 .84-3 2.265 0 1.35 1.065 2.175 2.685 2.175 1.545 0 2.46-.705 2.925-1.65v.27c-.03.9.345 1.29 1.245 1.29h.45v-.705h-.285zm-1.44-2.37c0 1.455-1.035 2.505-2.835 2.505-1.215 0-1.965-.615-1.965-1.56 0-1.005.75-1.56 2.16-1.56h2.64v.615zm8.943-2.76c-.465-1.125-1.485-1.86-2.895-1.86-2.085 0-3.585 1.575-3.585 3.885 0 2.4 1.5 3.9 3.585 3.9 1.425 0 2.43-.75 2.91-1.935v1.35c0 2.025-.96 2.895-2.79 2.895-1.425 0-2.415-.645-2.655-1.8H76.5c.24 1.62 1.545 2.49 3.39 2.49 2.46 0 3.615-1.17 3.615-3.555v-7.14h-.66l-.12 1.77zM79.89 52.4c-1.695 0-2.865-1.32-2.865-3.21s1.17-3.21 2.865-3.21c1.695 0 2.865 1.32 2.865 3.225 0 1.875-1.17 3.195-2.865 3.195zm12.104-.105c-.45 0-.675-.15-.675-.735v-3.54c0-1.74-1.065-2.715-2.97-2.715-1.74 0-2.895.84-3.09 2.22h.765c.195-.93 1.005-1.545 2.295-1.545 1.425 0 2.235.75 2.235 2.01v.66h-2.58c-1.95 0-3 .84-3 2.265 0 1.35 1.065 2.175 2.685 2.175 1.545 0 2.46-.705 2.925-1.65v.27c-.03.9.345 1.29 1.245 1.29h.45v-.705h-.285zm-1.44-2.37c0 1.455-1.035 2.505-2.835 2.505-1.215 0-1.965-.615-1.965-1.56 0-1.005.75-1.56 2.16-1.56h2.64v.615zm3.138-6.135c.3 0 .54-.225.54-.54 0-.315-.24-.54-.54-.54-.3 0-.54.225-.54.54 0 .315.24.54.54.54zm-.39 9.21h.765v-7.605h-.765V53zm6.074-7.695c-1.395 0-2.295.72-2.73 1.71l-.12-1.62h-.66V53h.765v-3.75c0-1.98 1.005-3.24 2.625-3.24 1.47 0 2.355.96 2.355 2.76V53h.765v-4.26c0-2.4-1.275-3.435-3-3.435zm4.348 5.355c.06 1.575 1.335 2.43 3.24 2.43 1.635 0 2.955-.825 2.955-2.175 0-1.605-1.41-1.92-3.045-2.145-1.185-.165-2.235-.3-2.235-1.365 0-.87.855-1.44 2.145-1.44 1.215 0 2.085.585 2.22 1.575h.78c-.135-1.485-1.35-2.235-3-2.235-1.695-.015-2.91.855-2.91 2.16 0 1.53 1.41 1.815 2.97 2.025 1.275.18 2.31.345 2.31 1.47 0 .9-.945 1.47-2.19 1.47-1.455 0-2.4-.675-2.46-1.77h-.78zm8.225.57c0 1.215.495 1.77 1.785 1.77h1.11v-.705h-1.05c-.795 0-1.08-.3-1.08-1.08V46.1h2.055v-.705h-2.055v-2.13h-.765v2.13h-1.44v.705h1.44v5.13zM3.105 74h.915l2.97-7.605h-.795l-2.61 6.72-2.625-6.72H.135L3.105 74zm7.966.09c2.146 0 3.66-1.59 3.66-3.9 0-2.295-1.514-3.885-3.66-3.885-2.144 0-3.644 1.59-3.644 3.885 0 2.31 1.5 3.9 3.645 3.9zm0-.69c-1.694 0-2.864-1.32-2.864-3.21 0-1.875 1.17-3.21 2.864-3.21 1.696 0 2.866 1.335 2.866 3.21 0 1.89-1.17 3.21-2.865 3.21zm5.18.6h.766V63.5h-.765V74zm9.254-.705c-.45 0-.675-.15-.675-.735v-3.54c0-1.74-1.065-2.715-2.97-2.715-1.74 0-2.895.84-3.09 2.22h.765c.195-.93 1.005-1.545 2.295-1.545 1.425 0 2.235.75 2.235 2.01v.66h-2.58c-1.95 0-3 .84-3 2.265 0 1.35 1.065 2.175 2.685 2.175 1.545 0 2.46-.705 2.925-1.65v.27c-.03.9.345 1.29 1.245 1.29h.45v-.705h-.285zm-1.44-2.37c0 1.455-1.035 2.505-2.835 2.505-1.215 0-1.965-.615-1.965-1.56 0-1.005.75-1.56 2.16-1.56h2.64v.615zm3.318 1.305c0 1.215.495 1.77 1.785 1.77h1.11v-.705h-1.05c-.795 0-1.08-.3-1.08-1.08V67.1h2.055v-.705h-2.055v-2.13h-.765v2.13h-1.44v.705h1.44v5.13zm4.449-7.44c.3 0 .54-.225.54-.54 0-.315-.24-.54-.54-.54-.3 0-.54.225-.54.54 0 .315.24.54.54.54zm-.39 9.21h.765v-7.605h-.765V74zm2.563 0h.765V63.5h-.765V74zm5.924.09c1.665 0 2.94-1.08 3.27-2.61h-.78c-.3 1.185-1.305 1.92-2.55 1.92-1.695 0-2.76-1.29-2.79-3.06v-.135h6.21c0-.105.015-.225.015-.315-.075-2.265-1.47-3.585-3.51-3.585-2.085 0-3.51 1.59-3.51 3.84 0 2.385 1.485 3.945 3.645 3.945zm-2.79-4.53c.12-1.545 1.275-2.58 2.67-2.58 1.485 0 2.55.915 2.67 2.58h-5.34zm20.21-3.255c-1.395 0-2.295.78-2.73 1.905-.36-1.26-1.305-1.905-2.505-1.905-1.305 0-2.085.765-2.475 1.71l-.12-1.62h-.66V74h.765v-3.87c0-1.86.9-3.12 2.355-3.12 1.32 0 2.145.93 2.145 2.685V74h.765v-4.14c.045-1.74.945-2.85 2.37-2.85 1.32 0 2.115.885 2.115 2.61V74h.78v-4.41c0-2.295-1.215-3.285-2.805-3.285zm11.193 6.99c-.45 0-.675-.15-.675-.735v-3.54c0-1.74-1.065-2.715-2.97-2.715-1.74 0-2.895.84-3.09 2.22h.765c.195-.93 1.005-1.545 2.295-1.545 1.425 0 2.235.75 2.235 2.01v.66h-2.58c-1.95 0-3 .84-3 2.265 0 1.35 1.065 2.175 2.685 2.175 1.545 0 2.46-.705 2.925-1.65v.27c-.03.9.345 1.29 1.245 1.29h.45v-.705h-.285zm-1.44-2.37c0 1.455-1.035 2.505-2.835 2.505-1.215 0-1.965-.615-1.965-1.56 0-1.005.75-1.56 2.16-1.56h2.64v.615zm5.853-4.53c-1.41 0-2.01.675-2.325 1.515l-.12-1.515h-.66V74h.765v-3.855c0-1.545.405-3.015 2.19-3.015h.555v-.735h-.405zM74.494 74h.765v-2.055l1.785-1.83L79.954 74h.93l-3.315-4.44 3.06-3.165h-.945l-4.425 4.56V63.5h-.765V74zm10.362.09c1.665 0 2.94-1.08 3.27-2.61h-.78c-.3 1.185-1.305 1.92-2.55 1.92-1.695 0-2.76-1.29-2.79-3.06v-.135h6.21c0-.105.015-.225.015-.315-.075-2.265-1.47-3.585-3.51-3.585-2.085 0-3.51 1.59-3.51 3.84 0 2.385 1.485 3.945 3.645 3.945zm-2.79-4.53c.12-1.545 1.275-2.58 2.67-2.58 1.485 0 2.55.915 2.67 2.58h-5.34zm8.13 2.67c0 1.215.495 1.77 1.785 1.77h1.11v-.705h-1.05c-.795 0-1.08-.3-1.08-1.08V67.1h2.055v-.705H90.96v-2.13h-.765v2.13h-1.44v.705h1.44v5.13zm3.713-.57c.06 1.575 1.335 2.43 3.24 2.43 1.635 0 2.955-.825 2.955-2.175 0-1.605-1.41-1.92-3.044-2.145-1.186-.165-2.236-.3-2.236-1.365 0-.87.856-1.44 2.145-1.44 1.216 0 2.086.585 2.22 1.575h.78c-.134-1.485-1.35-2.235-3-2.235-1.694-.015-2.91.855-2.91 2.16 0 1.53 1.41 1.815 2.97 2.025 1.276.18 2.31.345 2.31 1.47 0 .9-.945 1.47-2.19 1.47-1.454 0-2.4-.675-2.46-1.77h-.78z" fill="#000"/></svg>