<svg width="187" height="10" viewBox="0 0 187 10" fill="none" xmlns="http://www.w3.org/2000/svg"><path d="M.23 2.123h2.484V9h1.323V2.123H6.52V.95H.23v1.173zm9.557.989c-.966 0-1.437.391-1.736.885l-.138-.885H6.809V9H8.05V6.045c0-.909.356-1.771 1.46-1.771h.552V3.112h-.276zm6.245 4.807c-.254 0-.38-.08-.38-.38V5.183c0-1.392-.897-2.139-2.461-2.139-1.484 0-2.473.713-2.599 1.863h1.219c.092-.518.587-.862 1.322-.862.817 0 1.289.402 1.289 1.058v.356h-1.484c-1.645 0-2.519.678-2.519 1.886 0 1.093.897 1.725 2.185 1.725.955 0 1.553-.414 1.944-1.012 0 .586.276.943 1.081.943h.656V7.919h-.253zm-1.61-1.334c-.012.909-.61 1.518-1.645 1.518-.678 0-1.092-.345-1.092-.84 0-.598.425-.885 1.195-.885h1.541v.207zm6.968-2.656c-.38-.518-1.012-.886-1.91-.886-1.598 0-2.782 1.196-2.782 3.013 0 1.886 1.184 3.013 2.783 3.013.931 0 1.54-.437 1.92-.955l.15.886h1.08V.95H21.39v2.979zm-1.702 4.094c-1.035 0-1.714-.805-1.714-1.967 0-1.15.679-1.955 1.714-1.955s1.713.805 1.713 1.978c0 1.139-.678 1.944-1.713 1.944zm6.952 1.046c1.46 0 2.45-.886 2.656-2.047h-1.242c-.172.655-.724 1.035-1.483 1.035-.978 0-1.61-.655-1.645-1.656v-.08h4.44c.022-.161.034-.322.034-.472-.035-1.725-1.173-2.806-2.875-2.806-1.737 0-2.898 1.207-2.898 3.024 0 1.806 1.161 3.002 3.013 3.002zm-1.668-3.657c.092-.84.77-1.369 1.564-1.369.863 0 1.472.495 1.576 1.369h-3.14zM36.13 9.069c1.794 0 3.002-1.208 3.002-3.013 0-1.794-1.208-3.013-3.002-3.013-1.794 0-3.001 1.219-3.001 3.013 0 1.806 1.207 3.013 3.001 3.013zm0-1.058c-1.046 0-1.725-.816-1.725-1.955 0-1.138.679-1.955 1.725-1.955 1.047 0 1.737.817 1.737 1.955 0 1.138-.69 1.955-1.737 1.955zM41.447 9h1.518l2.173-5.888h-1.31l-1.599 4.554-1.621-4.554h-1.334L41.447 9zm6.845.069c1.46 0 2.45-.886 2.657-2.047h-1.242c-.173.655-.725 1.035-1.484 1.035-.977 0-1.61-.655-1.644-1.656v-.08h4.439c.023-.161.034-.322.034-.472-.034-1.725-1.173-2.806-2.875-2.806-1.736 0-2.898 1.207-2.898 3.024 0 1.806 1.162 3.002 3.013 3.002zm-1.667-3.657c.092-.84.77-1.369 1.564-1.369.862 0 1.472.495 1.575 1.369h-3.14zm8.41-2.3c-.966 0-1.438.391-1.737.885l-.138-.885h-1.104V9h1.242V6.045c0-.909.357-1.771 1.46-1.771h.553V3.112h-.276zM58.663 9h5.704V7.885h-3.899l2.14-1.783c.977-.817 1.701-1.564 1.701-2.76 0-1.472-1.012-2.461-2.817-2.461-1.714 0-2.818 1.115-2.818 2.645v.207h1.277v-.138c0-1 .62-1.622 1.54-1.622s1.53.506 1.53 1.427c0 .77-.54 1.334-1.265 1.943l-3.093 2.633V9zm6.484-3.841c0 2.426 1.3 3.91 3.174 3.91 1.875 0 3.174-1.484 3.174-3.91v-.368c0-2.335-1.3-3.91-3.174-3.91-1.874 0-3.174 1.576-3.174 3.91v.368zm5.06-.046c0 1.805-.759 2.84-1.886 2.84-1.127 0-1.886-1.035-1.886-2.84v-.276c0-1.794.76-2.84 1.886-2.84 1.127 0 1.886 1.046 1.886 2.84v.276zM75.621 9h1.322V.95h-1.322V9zm5.775-5.957c-.955 0-1.518.38-1.886.84l-.138-.771H78.29V9h1.242V6.033c0-1.196.586-1.92 1.575-1.92.932 0 1.403.597 1.403 1.713V9h1.254V5.723c0-1.967-1.07-2.68-2.37-2.68zm7.927.885c-.38-.517-1.012-.885-1.91-.885-1.598 0-2.782 1.196-2.782 3.013 0 1.886 1.184 3.013 2.783 3.013.931 0 1.54-.437 1.92-.955l.15.886h1.08V.95h-1.241v2.979zM87.62 8.024c-1.035 0-1.714-.805-1.714-1.967 0-1.15.679-1.955 1.714-1.955s1.713.805 1.713 1.978c0 1.139-.678 1.944-1.713 1.944zm4.79-5.739c.425 0 .759-.31.759-.747 0-.438-.334-.748-.76-.748-.425 0-.758.31-.758.747 0 .438.333.748.759.748zM91.778 9h1.242V3.112h-1.242V9zm5.162.069c1.507 0 2.507-.84 2.737-2.174h-1.31c-.15.679-.656 1.116-1.415 1.116-1 0-1.656-.793-1.656-1.943 0-1.162.655-1.967 1.656-1.967.77 0 1.265.426 1.426 1.115h1.3c-.242-1.334-1.185-2.173-2.703-2.173-1.783 0-2.956 1.207-2.956 3.024 0 1.84 1.139 3.002 2.921 3.002zm6.483 0c1.46 0 2.449-.886 2.656-2.047h-1.242c-.172.655-.724 1.035-1.483 1.035-.978 0-1.61-.655-1.645-1.656v-.08h4.439c.023-.161.035-.322.035-.472-.035-1.725-1.173-2.806-2.875-2.806-1.737 0-2.898 1.207-2.898 3.024 0 1.806 1.161 3.002 3.013 3.002zm-1.668-3.657c.092-.84.771-1.369 1.564-1.369.863 0 1.472.495 1.576 1.369h-3.14zm5.145 1.644c.034 1.277 1.115 2.013 2.691 2.013 1.426 0 2.495-.713 2.495-1.84 0-1.311-1.092-1.587-2.438-1.748-.851-.092-1.414-.161-1.414-.713 0-.471.483-.77 1.219-.77.736 0 1.242.379 1.311.92h1.219c-.081-1.208-1.104-1.875-2.553-1.875-1.415-.012-2.415.713-2.415 1.829 0 1.218 1.058 1.506 2.403 1.667.909.115 1.449.161 1.449.793 0 .472-.506.771-1.276.771-.897 0-1.426-.437-1.472-1.046H106.9zM117.348 9h1.346l1.288-4.002L121.224 9h1.334l1.955-5.888h-1.265l-1.392 4.508-1.288-4.508h-1.138l-1.346 4.508-1.345-4.508h-1.311L117.348 9zm8.451-6.716c.426 0 .759-.31.759-.747 0-.438-.333-.748-.759-.748-.425 0-.759.31-.759.747 0 .438.334.748.759.748zM125.167 9h1.242V3.112h-1.242V9zm2.885-1.598c0 1.069.483 1.598 1.61 1.598h1.15V7.907h-.874c-.472 0-.633-.172-.633-.632v-3.07h1.438V3.112h-1.438V1.467h-1.253v1.645h-1.024v1.093h1.024v3.197zm6.643-4.359c-.92 0-1.483.414-1.851.92V.95h-1.242V9h1.242V6.021c0-1.184.598-1.909 1.575-1.909.92 0 1.415.598 1.415 1.714V9h1.242V5.723c0-1.967-1.07-2.68-2.381-2.68zm6.248 6.026c1.794 0 3.002-1.208 3.002-3.013 0-1.794-1.208-3.013-3.002-3.013-1.794 0-3.001 1.219-3.001 3.013 0 1.806 1.207 3.013 3.001 3.013zm0-1.058c-1.046 0-1.725-.816-1.725-1.955 0-1.138.679-1.955 1.725-1.955 1.047 0 1.737.817 1.737 1.955 0 1.138-.69 1.955-1.737 1.955zm8.037-1.955c0 1.219-.575 1.932-1.518 1.932-.909 0-1.369-.587-1.369-1.737V3.113h-1.242v3.277c0 2.013 1.07 2.68 2.323 2.68.909 0 1.449-.368 1.817-.817l.138.748h1.093V3.112h-1.242v2.944zm2.925 1.346c0 1.069.483 1.598 1.61 1.598h1.15V7.907h-.874c-.471 0-.632-.172-.632-.632v-3.07h1.437V3.112h-1.437V1.467h-1.254v1.645h-1.023v1.093h1.023v3.197zm9.195 1.667c1.507 0 2.507-.84 2.737-2.174h-1.311c-.149.679-.655 1.116-1.414 1.116-1.001 0-1.656-.793-1.656-1.943 0-1.162.655-1.967 1.656-1.967.77 0 1.265.426 1.426 1.115h1.299c-.241-1.334-1.184-2.173-2.702-2.173-1.783 0-2.956 1.207-2.956 3.024 0 1.84 1.139 3.002 2.921 3.002zm6.471 0c1.794 0 3.001-1.208 3.001-3.013 0-1.794-1.207-3.013-3.001-3.013-1.794 0-3.002 1.219-3.002 3.013 0 1.806 1.208 3.013 3.002 3.013zm0-1.058c-1.047 0-1.725-.816-1.725-1.955 0-1.138.678-1.955 1.725-1.955 1.046 0 1.736.817 1.736 1.955 0 1.138-.69 1.955-1.736 1.955zm3.713-.954c.035 1.276 1.116 2.012 2.691 2.012 1.426 0 2.496-.713 2.496-1.84 0-1.311-1.093-1.587-2.438-1.748-.851-.092-1.415-.161-1.415-.713 0-.471.483-.77 1.219-.77.736 0 1.242.379 1.311.92h1.219c-.08-1.208-1.104-1.875-2.553-1.875-1.414-.012-2.415.713-2.415 1.829 0 1.218 1.058 1.506 2.404 1.667.908.115 1.449.161 1.449.793 0 .472-.506.771-1.277.771-.897 0-1.426-.437-1.472-1.046h-1.219zm6.575.345c0 1.069.483 1.598 1.61 1.598h1.15V7.907h-.874c-.472 0-.633-.172-.633-.632v-3.07h1.438V3.112h-1.438V1.467h-1.253v1.645h-1.024v1.093h1.024v3.197zm3.297-.346c.034 1.277 1.115 2.013 2.691 2.013 1.426 0 2.495-.713 2.495-1.84 0-1.311-1.092-1.587-2.438-1.748-.851-.092-1.414-.161-1.414-.713 0-.471.483-.77 1.219-.77.736 0 1.242.379 1.311.92h1.219c-.081-1.208-1.104-1.875-2.553-1.875-1.415-.012-2.415.713-2.415 1.829 0 1.218 1.058 1.506 2.403 1.667.909.115 1.449.161 1.449.793 0 .472-.506.771-1.276.771-.897 0-1.426-.437-1.472-1.046h-1.219z" fill="#000"/></svg>