<svg width="275" height="131" viewBox="0 0 275 131" fill="none" xmlns="http://www.w3.org/2000/svg"><path d="M6.072 88h.923l2.518-7.151 2.4 7.151h.924l3.021-8.51h-.873l-2.618 7.486-2.434-7.487h-.79l-2.568 7.487-2.484-7.487h-.906L6.072 88zm14.912-8.611c-1.595 0-2.585.89-3.072 2.115v-5.255h-.856V88h.856v-4.197c0-2.215 1.125-3.625 2.938-3.625 1.628 0 2.635 1.074 2.635 3.088V88h.856v-4.767c0-2.686-1.427-3.844-3.357-3.844zm8.897 8.712c1.864 0 3.29-1.209 3.66-2.921h-.873c-.336 1.326-1.46 2.148-2.854 2.148-1.897 0-3.088-1.443-3.122-3.424v-.15h6.95c0-.119.016-.253.016-.354-.084-2.534-1.645-4.011-3.928-4.011-2.333 0-3.928 1.779-3.928 4.297 0 2.669 1.662 4.415 4.08 4.415zm-3.122-5.07c.134-1.729 1.427-2.887 2.988-2.887 1.662 0 2.854 1.024 2.988 2.887H26.76zm12.52-3.642c-1.562 0-2.569.805-3.056 1.913l-.134-1.813h-.739V88h.857v-4.197c0-2.215 1.124-3.625 2.937-3.625 1.645 0 2.636 1.074 2.636 3.088V88h.856v-4.767c0-2.686-1.427-3.844-3.358-3.844zM51.605 88l-.553 1.376c-.387.94-.538 1.192-1.41 1.192h-1.075v.79h1.31c1.14 0 1.41-.437 1.947-1.78l4.079-10.089h-.924l-2.903 7.403-2.955-7.403H48.2L51.606 88zm8.848.1c2.4 0 4.096-1.779 4.096-4.364 0-2.568-1.695-4.347-4.096-4.347-2.4 0-4.079 1.779-4.079 4.347 0 2.585 1.679 4.365 4.08 4.365zm0-.771c-1.897 0-3.206-1.478-3.206-3.593 0-2.098 1.31-3.592 3.206-3.592 1.897 0 3.206 1.494 3.206 3.592 0 2.115-1.309 3.593-3.206 3.593zm11.974-3.66c0 2.233-1.107 3.643-2.87 3.643-1.578 0-2.552-1.075-2.552-3.106V79.49h-.856v4.768c0 2.669 1.394 3.844 3.274 3.844 1.51 0 2.5-.806 2.988-1.897L72.529 88h.756v-8.51h-.856v4.18zm8.034 2.35c0 1.36.554 1.981 1.998 1.981h1.242v-.789h-1.175c-.89 0-1.209-.336-1.209-1.209v-5.724h2.3v-.789h-2.3v-2.383h-.856v2.383h-1.611v.79h1.611v5.74zm8.017-6.53c-1.578 0-2.249.756-2.602 1.696l-.134-1.696h-.738V88h.856v-4.314c0-1.73.453-3.374 2.45-3.374h.622v-.823h-.454zm8.848 7.722c-.503 0-.755-.168-.755-.823v-3.961c0-1.947-1.192-3.038-3.324-3.038-1.947 0-3.24.94-3.458 2.484h.856c.219-1.04 1.125-1.729 2.569-1.729 1.594 0 2.5.84 2.5 2.25v.738H92.83c-2.183 0-3.358.94-3.358 2.535 0 1.51 1.192 2.434 3.005 2.434 1.729 0 2.753-.79 3.273-1.847v.302c-.033 1.008.386 1.444 1.394 1.444h.503v-.789h-.319zm-1.611-2.652c0 1.628-1.158 2.803-3.173 2.803-1.36 0-2.199-.688-2.199-1.746 0-1.124.84-1.745 2.417-1.745h2.955v.688zm9.893-3.156c-.52-1.209-1.661-2.014-3.256-2.014-2.333 0-4.012 1.779-4.012 4.347 0 2.686 1.679 4.365 4.012 4.365 1.595 0 2.703-.856 3.24-2.048l.134 1.947h.739V76.25h-.857v5.153zm-3.189 5.925c-1.897 0-3.206-1.477-3.206-3.592 0-2.098 1.309-3.592 3.206-3.592s3.206 1.494 3.206 3.61c0 2.097-1.309 3.575-3.206 3.575zm9.819.773c1.864 0 3.291-1.209 3.66-2.921h-.873c-.336 1.326-1.46 2.148-2.854 2.148-1.897 0-3.088-1.443-3.122-3.424v-.15H116c0-.119.016-.253.016-.354-.084-2.534-1.645-4.011-3.928-4.011-2.333 0-3.928 1.779-3.928 4.297 0 2.669 1.662 4.415 4.079 4.415zm-3.122-5.07c.134-1.729 1.427-2.887 2.988-2.887 1.662 0 2.854 1.024 2.988 2.887h-5.976zM122.3 88h1.931v-4.969h4.599V81.37h-4.599v-3.407h5.573v-1.713H122.3V88zm8.127 0h2.183l2.887-4.516 2.87 4.516h2.3l-3.911-6.093 3.676-5.657h-2.182l-2.686 4.18-2.635-4.18h-2.283l3.676 5.74-3.895 6.01zm23.478-1.578c-.369 0-.554-.117-.554-.554v-3.441c0-2.031-1.309-3.122-3.592-3.122-2.166 0-3.609 1.04-3.794 2.72h1.78c.134-.756.856-1.26 1.93-1.26 1.192 0 1.88.588 1.88 1.544v.52h-2.165c-2.401 0-3.677.991-3.677 2.754 0 1.594 1.31 2.518 3.19 2.518 1.393 0 2.266-.605 2.837-1.477 0 .856.403 1.376 1.578 1.376h.956v-1.578h-.369zm-2.35-1.947c-.017 1.326-.89 2.216-2.4 2.216-.991 0-1.595-.504-1.595-1.226 0-.873.621-1.292 1.746-1.292h2.249v.302zm8.239-5.17c-1.393 0-2.216.554-2.753 1.225l-.201-1.125h-1.578V88h1.813v-4.33c0-1.747.856-2.804 2.3-2.804 1.359 0 2.048.873 2.048 2.501V88h1.829v-4.784c0-2.87-1.561-3.911-3.458-3.911zm11.571 1.292c-.554-.755-1.477-1.292-2.786-1.292-2.333 0-4.062 1.745-4.062 4.398 0 2.753 1.729 4.398 4.062 4.398 1.36 0 2.249-.638 2.803-1.394L171.6 88h1.578V76.25h-1.813v4.347zm-2.484 5.976c-1.511 0-2.501-1.175-2.501-2.87 0-1.679.99-2.854 2.501-2.854s2.501 1.175 2.501 2.887c0 1.662-.99 2.837-2.501 2.837zm11.287-8.376c.621 0 1.108-.454 1.108-1.091 0-.638-.487-1.091-1.108-1.091-.621 0-1.108.453-1.108 1.09 0 .638.487 1.092 1.108 1.092zM179.245 88h1.813v-8.595h-1.813V88zm8.122-8.695c-1.393 0-2.216.554-2.753 1.225l-.201-1.125h-1.578V88h1.813v-4.33c0-1.747.856-2.804 2.3-2.804 1.359 0 2.047.873 2.047 2.501V88h1.83v-4.784c0-2.87-1.561-3.911-3.458-3.911zm11.571 1.292c-.554-.755-1.477-1.292-2.786-1.292-2.334 0-4.063 1.745-4.063 4.398 0 2.753 1.729 4.398 4.063 4.398 1.359 0 2.249-.638 2.803-1.394l.218 1.293h1.578V76.25h-1.813v4.347zm-2.484 5.976c-1.511 0-2.501-1.175-2.501-2.87 0-1.679.99-2.854 2.501-2.854s2.501 1.175 2.501 2.887c0 1.662-.99 2.837-2.501 2.837zm6.992-8.376c.621 0 1.108-.454 1.108-1.091 0-.638-.487-1.091-1.108-1.091-.621 0-1.108.453-1.108 1.09 0 .638.487 1.092 1.108 1.092zM202.523 88h1.813v-8.595h-1.813V88zm7.535.1c2.199 0 3.659-1.225 3.995-3.172h-1.914c-.218.99-.957 1.628-2.065 1.628-1.46 0-2.417-1.158-2.417-2.837 0-1.695.957-2.87 2.417-2.87 1.125 0 1.847.621 2.082 1.628h1.897c-.353-1.947-1.729-3.172-3.945-3.172-2.602 0-4.314 1.762-4.314 4.414 0 2.686 1.662 4.382 4.264 4.382zm9.461 0c2.132 0 3.576-1.292 3.878-2.987h-1.813c-.252.957-1.057 1.51-2.165 1.51-1.427 0-2.35-.956-2.401-2.417v-.117h6.48c.033-.235.05-.47.05-.689-.05-2.517-1.712-4.095-4.196-4.095-2.535 0-4.231 1.762-4.231 4.414 0 2.636 1.696 4.382 4.398 4.382zm-2.434-5.337c.135-1.226 1.125-1.998 2.283-1.998 1.259 0 2.149.722 2.3 1.998h-4.583zm7.51 2.4c.051 1.863 1.629 2.938 3.928 2.938 2.082 0 3.643-1.041 3.643-2.686 0-1.914-1.595-2.317-3.559-2.552-1.242-.134-2.064-.235-2.064-1.04 0-.689.705-1.125 1.779-1.125 1.074 0 1.813.554 1.914 1.343h1.779c-.118-1.763-1.612-2.736-3.727-2.736-2.064-.017-3.525 1.04-3.525 2.669 0 1.78 1.545 2.199 3.509 2.434 1.326.168 2.115.235 2.115 1.158 0 .688-.739 1.125-1.864 1.125-1.309 0-2.081-.638-2.148-1.528h-1.78zM4.645 105.02c0 1.36.554 1.981 1.998 1.981h1.242v-.789H6.71c-.89 0-1.209-.336-1.209-1.209v-5.724h2.3v-.789H5.5v-2.383h-.856v2.383H3.034v.79h1.611v5.74zm8.47-6.63c-1.594 0-2.585.89-3.072 2.115v-5.255h-.856V107h.857v-4.197c0-2.215 1.124-3.625 2.937-3.625 1.628 0 2.636 1.074 2.636 3.088V107h.856v-4.767c0-2.686-1.427-3.844-3.358-3.844zm5.705-1.696a.591.591 0 00.604-.604.591.591 0 00-.604-.604.591.591 0 00-.604.604c0 .352.268.604.604.604zM18.384 107h.856v-8.51h-.856V107zm2.482-2.619c.068 1.763 1.494 2.72 3.626 2.72 1.83 0 3.307-.924 3.307-2.434 0-1.796-1.578-2.149-3.407-2.401-1.326-.184-2.502-.335-2.502-1.527 0-.974.957-1.612 2.4-1.612 1.36 0 2.334.655 2.485 1.763h.873c-.15-1.662-1.51-2.501-3.357-2.501-1.897-.017-3.257.956-3.257 2.417 0 1.712 1.578 2.031 3.324 2.266 1.427.201 2.585.386 2.585 1.645 0 1.007-1.057 1.645-2.45 1.645-1.629 0-2.686-.755-2.754-1.981h-.873zM40.688 107v-.839h-5.623V95.249h-.907V107h6.53zm7.036-4.331c0 2.233-1.107 3.643-2.87 3.643-1.578 0-2.552-1.075-2.552-3.106v-4.717h-.856v4.768c0 2.669 1.394 3.844 3.274 3.844 1.51 0 2.5-.806 2.988-1.897l.117 1.796h.755v-8.51h-.856v4.179zm6.8-4.28c-1.561 0-2.568.805-3.055 1.913l-.135-1.813h-.738V107h.856v-4.197c0-2.215 1.125-3.625 2.938-3.625 1.645 0 2.635 1.074 2.635 3.088V107h.856v-4.767c0-2.686-1.427-3.844-3.357-3.844zm12.739 7.822c-.504 0-.756-.168-.756-.822v-3.962c0-1.947-1.192-3.038-3.323-3.038-1.948 0-3.24.94-3.458 2.484h.856c.218-1.04 1.124-1.729 2.568-1.729 1.595 0 2.501.84 2.501 2.249v.739h-2.887c-2.182 0-3.357.94-3.357 2.535 0 1.51 1.192 2.434 3.004 2.434 1.73 0 2.753-.789 3.274-1.847v.302c-.034 1.008.386 1.444 1.393 1.444h.504v-.789h-.32zm-1.612-2.652c0 1.628-1.158 2.803-3.172 2.803-1.36 0-2.2-.688-2.2-1.746 0-1.124.84-1.745 2.418-1.745h2.954v.688zm6.55-5.07c-1.578 0-2.25.756-2.602 1.696l-.134-1.696h-.739V107h.857v-4.314c0-1.729.453-3.374 2.45-3.374h.621v-.823h-.453zM79.54 107V96.895L86.489 107h.855V95.25h-.89v10.105l-6.949-10.106h-.856V107h.89zm13.783.101c1.863 0 3.29-1.209 3.66-2.921h-.873c-.336 1.326-1.46 2.149-2.854 2.149-1.897 0-3.089-1.444-3.122-3.425v-.151h6.95c0-.117.016-.252.016-.352-.084-2.535-1.645-4.012-3.928-4.012-2.333 0-3.928 1.779-3.928 4.297 0 2.669 1.662 4.415 4.079 4.415zm-3.122-5.07c.134-1.729 1.427-2.887 2.988-2.887 1.662 0 2.853 1.024 2.988 2.887H90.2zM100.594 107h.923l2.518-7.151 2.4 7.151h.923l3.022-8.51h-.873l-2.619 7.486-2.434-7.487h-.789l-2.568 7.487-2.484-7.487h-.907l2.888 8.511zm19.235-4.331V107h.906v-4.331l4.499-7.42h-1.024l-3.928 6.43-3.895-6.43h-1.057l4.499 7.42zm9 4.432c1.863 0 3.29-1.209 3.66-2.921h-.873c-.336 1.326-1.461 2.149-2.854 2.149-1.897 0-3.089-1.444-3.122-3.425v-.151h6.949c0-.117.017-.252.017-.352-.084-2.535-1.645-4.012-3.928-4.012-2.333 0-3.928 1.779-3.928 4.297 0 2.669 1.662 4.415 4.079 4.415zm-3.122-5.07c.134-1.729 1.427-2.887 2.988-2.887 1.662 0 2.853 1.024 2.988 2.887h-5.976zm16.078 4.18c-.504 0-.756-.168-.756-.822v-3.962c0-1.947-1.191-3.038-3.323-3.038-1.947 0-3.24.94-3.458 2.484h.856c.218-1.04 1.125-1.729 2.568-1.729 1.595 0 2.501.84 2.501 2.249v.739h-2.887c-2.182 0-3.357.94-3.357 2.535 0 1.51 1.192 2.434 3.005 2.434 1.729 0 2.753-.789 3.273-1.847v.302c-.034 1.008.386 1.444 1.393 1.444h.504v-.789h-.319zm-1.612-2.652c0 1.628-1.158 2.803-3.172 2.803-1.36 0-2.199-.688-2.199-1.746 0-1.124.839-1.745 2.417-1.745h2.954v.688zm6.55-5.07c-1.577 0-2.249.756-2.601 1.696l-.135-1.696h-.738V107h.856v-4.314c0-1.729.453-3.374 2.451-3.374h.621v-.823h-.454zm.753 7.957c0 .386.268.638.638.638.369 0 .637-.252.637-.638s-.268-.621-.637-.621c-.37 0-.638.235-.638.621zM3.712 20V9.598L10.864 20h2.202V5.32h-2.37v10.402L3.544 5.319H1.342V20h2.37zm16.894.126c2.663 0 4.467-1.615 4.845-3.733h-2.265c-.315 1.195-1.322 1.887-2.706 1.887-1.783 0-2.936-1.195-2.999-3.02v-.147h8.095c.042-.293.063-.587.063-.86-.063-3.145-2.139-5.117-5.243-5.117-3.167 0-5.285 2.202-5.285 5.516 0 3.293 2.118 5.474 5.495 5.474zm-3.041-6.67c.168-1.53 1.405-2.495 2.852-2.495 1.573 0 2.685.902 2.873 2.496h-5.725zM29.576 20h2.454l2.35-7.298L36.643 20h2.433l3.565-10.738h-2.307l-2.537 8.221-2.35-8.22h-2.075l-2.454 8.22-2.454-8.22h-2.39L29.576 20zm20.4-2.915c0 1.95.882 2.915 2.937 2.915h2.097v-1.992h-1.594c-.86 0-1.153-.315-1.153-1.154v-5.6h2.621V9.262h-2.621V6.263h-2.286v3H48.11v1.992h1.867v5.83zm11.907-7.823c-1.762 0-2.622.713-3.167 1.615l-.252-1.615h-2.013V20h2.265v-5.39c0-1.657.65-3.23 2.663-3.23h1.007V9.262h-.503zM73.27 18.03c-.461 0-.692-.147-.692-.692v-4.3c0-2.538-1.636-3.9-4.488-3.9-2.705 0-4.509 1.3-4.74 3.397h2.223c.168-.944 1.07-1.573 2.412-1.573 1.49 0 2.35.734 2.35 1.93v.65h-2.706c-3 0-4.593 1.237-4.593 3.439 0 1.992 1.636 3.146 3.985 3.146 1.74 0 2.83-.755 3.544-1.846 0 1.07.503 1.72 1.971 1.72h1.196v-1.971h-.462zm-2.936-2.433c-.02 1.657-1.111 2.768-2.999 2.768-1.237 0-1.992-.629-1.992-1.53 0-1.091.776-1.616 2.181-1.616h2.81v.378zm12.708-4.845c-.692-.944-1.846-1.615-3.481-1.615-2.916 0-5.076 2.181-5.076 5.495 0 3.44 2.16 5.495 5.076 5.495 1.698 0 2.81-.797 3.502-1.74L83.335 20h1.972V5.32h-2.265v5.431zm-3.104 7.466c-1.888 0-3.125-1.468-3.125-3.586 0-2.097 1.237-3.565 3.125-3.565s3.125 1.468 3.125 3.607c0 2.076-1.237 3.544-3.125 3.544zm12.679 1.909c2.663 0 4.467-1.615 4.844-3.733h-2.265c-.314 1.195-1.321 1.887-2.705 1.887-1.783 0-2.936-1.195-3-3.02v-.147h8.096c.042-.293.063-.587.063-.86-.063-3.145-2.14-5.117-5.243-5.117-3.167 0-5.285 2.202-5.285 5.516 0 3.293 2.118 5.474 5.495 5.474zm-3.041-6.67c.167-1.53 1.405-2.495 2.852-2.495 1.573 0 2.684.902 2.873 2.496h-5.725zm15.337-4.194c-1.762 0-2.622.713-3.167 1.615l-.251-1.615h-2.014V20h2.265v-5.39c0-1.657.65-3.23 2.664-3.23h1.006V9.262h-.503zm13.013-.126c-1.657 0-2.769.755-3.482 1.72V5.319h-2.265V20h1.972l.272-1.552c.671.965 1.825 1.678 3.503 1.678 2.936 0 5.075-2.202 5.075-5.495 0-3.46-2.139-5.495-5.075-5.495zm-.378 9.081c-1.887 0-3.125-1.489-3.125-3.607 0-2.076 1.238-3.544 3.125-3.544 1.888 0 3.146 1.468 3.146 3.565 0 2.118-1.258 3.586-3.146 3.586zm12.343 1.909c3.272 0 5.474-2.202 5.474-5.495 0-3.272-2.202-5.495-5.474-5.495-3.271 0-5.473 2.223-5.473 5.495 0 3.293 2.202 5.495 5.473 5.495zm0-1.93c-1.908 0-3.146-1.489-3.146-3.565 0-2.076 1.238-3.565 3.146-3.565 1.909 0 3.167 1.489 3.167 3.565 0 2.076-1.258 3.565-3.167 3.565zm12.958-9.06c-1.741 0-2.768.692-3.439 1.531l-.252-1.405h-1.972V20h2.265v-5.41c0-2.182 1.07-3.503 2.874-3.503 1.698 0 2.558 1.09 2.558 3.125V20h2.286v-5.977c0-3.586-1.95-4.887-4.32-4.887zm13.742 5.495c0 2.223-1.049 3.523-2.769 3.523-1.657 0-2.496-1.07-2.496-3.166V9.262h-2.265v5.977c0 3.67 1.951 4.887 4.237 4.887 1.657 0 2.642-.671 3.314-1.49l.251 1.364h1.993V9.262h-2.265v5.37zm4.035 1.825c.063 2.328 2.035 3.67 4.908 3.67 2.6 0 4.551-1.3 4.551-3.356 0-2.39-1.993-2.894-4.446-3.188-1.552-.167-2.58-.293-2.58-1.3 0-.86.881-1.405 2.223-1.405 1.342 0 2.265.692 2.391 1.678h2.223c-.147-2.202-2.013-3.419-4.656-3.419-2.579-.02-4.404 1.3-4.404 3.335 0 2.223 1.929 2.747 4.383 3.04 1.657.21 2.643.295 2.643 1.448 0 .86-.923 1.405-2.328 1.405-1.636 0-2.601-.797-2.685-1.908h-2.223z" fill="#000"/><path d="M10.179 54.166c3.07 0 5.061-1.383 6.002-2.766l.276 2.6h2.462V43.406h-8.408v2.683h5.366v.47c-.166 3.126-2.573 4.813-5.56 4.813-3.706 0-6.03-2.904-6.03-7.053s2.379-7.053 6.058-7.053c2.683 0 4.536 1.494 5.117 3.955h3.291c-.58-4.093-3.845-6.749-8.325-6.749-5.754 0-9.405 3.956-9.405 9.847 0 5.892 3.734 9.847 9.156 9.847zm18.699 0c3.513 0 5.891-2.13 6.39-4.923H32.28c-.415 1.576-1.743 2.489-3.568 2.489-2.351 0-3.872-1.577-3.956-3.983v-.194h10.677c.055-.387.083-.774.083-1.134-.083-4.149-2.821-6.749-6.915-6.749-4.176 0-6.97 2.905-6.97 7.275 0 4.342 2.794 7.219 7.247 7.219zm-4.01-8.796c.22-2.019 1.852-3.291 3.76-3.291 2.075 0 3.541 1.19 3.79 3.291h-7.55zm13.979 4.785c0 2.573 1.161 3.845 3.872 3.845h2.766v-2.628h-2.102c-1.134 0-1.522-.414-1.522-1.52v-7.386h3.458v-2.628H41.86v-3.955h-3.014v3.955h-2.462v2.628h2.462v7.69zm28.56 1.245c-.609 0-.913-.194-.913-.913v-5.67c0-3.347-2.158-5.145-5.92-5.145-3.567 0-5.946 1.715-6.25 4.481h2.932c.22-1.245 1.41-2.074 3.18-2.074 1.964 0 3.098.968 3.098 2.544v.858h-3.568c-3.955 0-6.057 1.632-6.057 4.536 0 2.628 2.157 4.149 5.255 4.149 2.296 0 3.734-.996 4.675-2.434 0 1.41.663 2.268 2.6 2.268h1.576v-2.6h-.608zm-3.873-3.209c-.027 2.186-1.466 3.652-3.955 3.652-1.632 0-2.628-.83-2.628-2.02 0-1.438 1.024-2.13 2.877-2.13h3.706v.498zm21.4-5.338c-3.043-.525-5.034-.94-5.034-2.932 0-1.825 1.521-2.766 3.706-2.766 2.352 0 3.9 1.328 4.15 3.292h3.18c-.11-3.126-2.24-5.338-5.725-5.864v-2.932h-2.683v2.877c-3.513.36-5.809 2.544-5.809 5.615 0 3.844 3.043 4.868 6.251 5.42 3.07.554 5.09.997 5.09 3.043 0 1.854-1.66 2.877-3.956 2.877-2.71 0-4.48-1.521-4.647-3.79l-3.208-.055c.11 3.43 2.406 5.92 6.279 6.417v2.905h2.683v-2.85c3.623-.387 6.03-2.682 6.03-5.835.027-3.817-3.098-4.84-6.307-5.422zm18.621 1.079c1.854-.498 3.237-1.909 3.237-4.287 0-3.098-2.545-5.173-6.722-5.173-3.983 0-6.776 2.407-6.804 5.892h2.987c.056-2.02 1.632-3.347 3.817-3.347 2.019 0 3.596 1.051 3.596 2.821 0 1.77-1.272 3.043-3.817 3.043h-1.604v2.545h1.77c2.683 0 4.094 1.161 4.094 2.96 0 1.99-1.688 3.235-3.873 3.235-2.461 0-4.26-1.355-4.315-3.734h-3.015c0 3.983 2.794 6.279 7.164 6.279 4.371 0 7.164-2.268 7.164-5.587 0-2.904-1.77-4.26-3.679-4.647zm6.961 6.5c-1.273 0-2.102.83-2.102 1.88 0 1.19.719 1.771 1.631 1.771.332 0 .664-.083.913-.277.028.111.028.25.028.36 0 .968-.692 2.047-2.434 2.074v1.605c2.738-.028 4.453-1.55 4.453-4.232 0-1.77-.968-3.181-2.489-3.181zm14.467-6.5c1.798-.415 3.347-2.047 3.347-4.315 0-3.015-2.6-5.145-6.749-5.145-4.121 0-6.721 2.13-6.721 5.145 0 2.351 1.549 3.9 3.319 4.343-2.075.47-3.845 2.074-3.845 4.757 0 3.209 2.683 5.449 7.247 5.449s7.274-2.24 7.274-5.449c0-2.738-1.797-4.343-3.872-4.785zm-3.402-7.08c2.213 0 3.651 1.16 3.651 2.848 0 1.715-1.438 2.877-3.651 2.877-2.185 0-3.623-1.162-3.623-2.877 0-1.687 1.438-2.849 3.623-2.849zm0 14.963c-2.434 0-4.121-1.383-4.121-3.264 0-1.88 1.687-3.236 4.121-3.236 2.462 0 4.149 1.355 4.149 3.236 0 1.88-1.687 3.264-4.149 3.264zm19.852-7.883c1.798-.415 3.347-2.047 3.347-4.315 0-3.015-2.6-5.145-6.749-5.145-4.121 0-6.721 2.13-6.721 5.145 0 2.351 1.548 3.9 3.319 4.343-2.075.47-3.845 2.074-3.845 4.757 0 3.209 2.683 5.449 7.247 5.449s7.274-2.24 7.274-5.449c0-2.738-1.798-4.343-3.872-4.785zm-3.402-7.08c2.213 0 3.651 1.16 3.651 2.848 0 1.715-1.438 2.877-3.651 2.877-2.185 0-3.624-1.162-3.624-2.877 0-1.687 1.439-2.849 3.624-2.849zm0 14.963c-2.434 0-4.121-1.383-4.121-3.264 0-1.88 1.687-3.236 4.121-3.236 2.461 0 4.149 1.355 4.149 3.236 0 1.88-1.688 3.264-4.149 3.264zm19.852-7.883c1.798-.415 3.347-2.047 3.347-4.315 0-3.015-2.6-5.145-6.749-5.145-4.122 0-6.722 2.13-6.722 5.145 0 2.351 1.549 3.9 3.319 4.343-2.074.47-3.844 2.074-3.844 4.757 0 3.209 2.683 5.449 7.247 5.449 4.563 0 7.274-2.24 7.274-5.449 0-2.738-1.798-4.343-3.872-4.785zm-3.402-7.08c2.212 0 3.651 1.16 3.651 2.848 0 1.715-1.439 2.877-3.651 2.877-2.185 0-3.624-1.162-3.624-2.877 0-1.687 1.439-2.849 3.624-2.849zm0 14.963c-2.434 0-4.122-1.383-4.122-3.264 0-1.88 1.688-3.236 4.122-3.236 2.461 0 4.149 1.355 4.149 3.236 0 1.88-1.688 3.264-4.149 3.264zm23.941-11.977c-2.323 0-3.457.94-4.176 2.13l-.332-2.13h-2.656V54h2.988v-7.108c0-2.186.857-4.26 3.512-4.26h1.328v-2.794h-.664zm8.552 14.328c3.513 0 5.892-2.13 6.39-4.923h-2.987c-.415 1.576-1.743 2.489-3.568 2.489-2.352 0-3.873-1.577-3.956-3.983v-.194h10.677c.055-.387.083-.774.083-1.134-.083-4.149-2.822-6.749-6.915-6.749-4.177 0-6.97 2.905-6.97 7.275 0 4.342 2.793 7.219 7.246 7.219zm-4.01-8.796c.221-2.019 1.853-3.291 3.762-3.291 2.074 0 3.54 1.19 3.789 3.291h-7.551zM198.805 54h3.237l3.097-9.626L208.127 54h3.208l4.702-14.162h-3.042l-3.347 10.843-3.098-10.843h-2.738l-3.236 10.843-3.237-10.843h-3.153L198.805 54zm31.155-2.6c-.608 0-.913-.194-.913-.913v-5.67c0-3.347-2.157-5.145-5.919-5.145-3.568 0-5.947 1.715-6.251 4.481h2.932c.221-1.245 1.411-2.074 3.181-2.074 1.964 0 3.098.968 3.098 2.544v.858h-3.568c-3.956 0-6.058 1.632-6.058 4.536 0 2.628 2.158 4.149 5.256 4.149 2.295 0 3.734-.996 4.674-2.434 0 1.41.664 2.268 2.6 2.268h1.577v-2.6h-.609zm-3.872-3.209c-.028 2.186-1.466 3.652-3.956 3.652-1.631 0-2.627-.83-2.627-2.02 0-1.438 1.023-2.13 2.876-2.13h3.707v.498zm13.272-8.353c-2.324 0-3.458.94-4.177 2.13l-.332-2.13h-2.655V54h2.987v-7.108c0-2.186.857-4.26 3.513-4.26h1.327v-2.794h-.663zm12.59 1.964c-.913-1.245-2.434-2.13-4.591-2.13-3.845 0-6.694 2.877-6.694 7.247 0 4.536 2.849 7.247 6.694 7.247 2.24 0 3.706-1.051 4.619-2.296l.359 2.13h2.6V34.638h-2.987v7.164zm-4.094 9.847c-2.489 0-4.121-1.936-4.121-4.73 0-2.766 1.632-4.702 4.121-4.702 2.49 0 4.122 1.936 4.122 4.758 0 2.738-1.632 4.674-4.122 4.674zm18.437-15.102l-3.043 1.466.083-3.402h-2.047l.083 3.374-3.015-1.438-.829 1.936 3.263 1.217-2.268 2.572 1.577 1.383 2.185-2.876 2.213 2.904 1.604-1.383-2.268-2.572 3.291-1.217-.829-1.964z" fill="url(#paint0_linear_830_129)"/><defs><linearGradient id="paint0_linear_830_129" x1="275" y1="53" x2="0" y2="53" gradientUnits="userSpaceOnUse"><stop stop-color="#FF4343"/><stop offset=".5" stop-color="#9C0B93"/><stop offset="1" stop-color="#4C1BB7"/></linearGradient></defs></svg>