<svg width="130" height="41" viewBox="0 0 130 41" fill="none" xmlns="http://www.w3.org/2000/svg"><path d="M.42 2.442h4.536V15h2.415V2.442h4.536V.3H.42v2.142zm17.452 1.806c-1.764 0-2.625.714-3.17 1.617l-.253-1.617h-2.016V15h2.268V9.603c0-1.659.651-3.234 2.667-3.234h1.008V4.248h-.504zm11.403 8.778c-.462 0-.693-.147-.693-.693V8.028c0-2.541-1.638-3.906-4.494-3.906-2.709 0-4.515 1.302-4.746 3.402h2.226c.168-.945 1.071-1.575 2.415-1.575 1.491 0 2.352.735 2.352 1.932v.651h-2.709c-3.003 0-4.599 1.239-4.599 3.444 0 1.995 1.638 3.15 3.99 3.15 1.743 0 2.835-.756 3.549-1.848 0 1.071.504 1.722 1.974 1.722h1.197v-1.974h-.462zm-2.94-2.436c-.021 1.659-1.113 2.772-3.003 2.772-1.239 0-1.995-.63-1.995-1.533 0-1.092.777-1.617 2.184-1.617h2.814v.378zm12.724-4.851c-.693-.945-1.848-1.617-3.486-1.617-2.919 0-5.082 2.184-5.082 5.502 0 3.444 2.163 5.502 5.082 5.502 1.701 0 2.814-.798 3.507-1.743L39.353 15h1.974V.3H39.06v5.439zm-3.108 7.476c-1.89 0-3.129-1.47-3.129-3.591 0-2.1 1.24-3.57 3.13-3.57s3.128 1.47 3.128 3.612c0 2.079-1.239 3.549-3.129 3.549zm12.696 1.911c2.667 0 4.473-1.617 4.85-3.738H51.23c-.315 1.197-1.323 1.89-2.71 1.89-1.784 0-2.94-1.197-3.002-3.024v-.147h8.106a6.16 6.16 0 00.063-.861c-.063-3.15-2.142-5.124-5.25-5.124-3.171 0-5.292 2.205-5.292 5.523 0 3.297 2.12 5.481 5.502 5.481zm-3.045-6.678c.168-1.533 1.407-2.499 2.856-2.499 1.575 0 2.688.903 2.877 2.499h-5.733zm21.906 6.678c2.331 0 3.843-1.05 4.557-2.1l.21 1.974h1.87V6.957H67.76v2.037h4.074v.357c-.126 2.373-1.953 3.654-4.22 3.654-2.815 0-4.579-2.205-4.579-5.355 0-3.15 1.806-5.355 4.6-5.355 2.036 0 3.443 1.134 3.884 3.003h2.5C73.576 2.19 71.098.174 67.696.174c-4.368 0-7.14 3.003-7.14 7.476s2.835 7.476 6.951 7.476zm14.176 0c3.276 0 5.481-2.205 5.481-5.502 0-3.276-2.205-5.502-5.48-5.502-3.277 0-5.482 2.226-5.482 5.502 0 3.297 2.205 5.502 5.481 5.502zm0-1.932c-1.91 0-3.15-1.491-3.15-3.57 0-2.079 1.24-3.57 3.15-3.57 1.911 0 3.171 1.491 3.171 3.57 0 2.079-1.26 3.57-3.17 3.57zM88.99 15h2.268V.3h-2.268V15zm12.66-9.261c-.693-.945-1.848-1.617-3.486-1.617-2.919 0-5.082 2.184-5.082 5.502 0 3.444 2.163 5.502 5.082 5.502 1.701 0 2.814-.798 3.507-1.743l.273 1.617h1.974V.3h-2.268v5.439zm-3.108 7.476c-1.89 0-3.129-1.47-3.129-3.591 0-2.1 1.24-3.57 3.13-3.57 1.889 0 3.128 1.47 3.128 3.612 0 2.079-1.239 3.549-3.129 3.549zM3.591 40h2.457L8.4 32.692 10.668 40h2.436l3.57-10.752h-2.31l-2.541 8.232-2.352-8.232H7.392L4.935 37.48l-2.457-8.232H.084L3.591 40zm15.432-12.264c.777 0 1.386-.567 1.386-1.365s-.61-1.365-1.386-1.365c-.777 0-1.386.567-1.386 1.365s.609 1.365 1.386 1.365zM17.868 40h2.268V29.248h-2.268V40zm5.268-2.919c0 1.953.882 2.919 2.94 2.919h2.1v-1.995H26.58c-.86 0-1.155-.315-1.155-1.155v-5.607h2.625v-1.995h-2.625v-3.003h-2.289v3.003h-1.869v1.995h1.87v5.838zm12.132-7.959c-1.68 0-2.71.756-3.381 1.68V25.3h-2.268V40h2.268v-5.439c0-2.163 1.092-3.486 2.877-3.486 1.68 0 2.583 1.092 2.583 3.129V40h2.268v-5.985c0-3.591-1.953-4.893-4.347-4.893zm11.41 11.004c3.275 0 5.48-2.205 5.48-5.502 0-3.276-2.205-5.502-5.48-5.502-3.277 0-5.482 2.226-5.482 5.502 0 3.297 2.205 5.502 5.481 5.502zm0-1.932c-1.912 0-3.15-1.491-3.15-3.57 0-2.079 1.238-3.57 3.15-3.57 1.91 0 3.17 1.491 3.17 3.57 0 2.079-1.26 3.57-3.17 3.57zm14.675-3.57c0 2.226-1.05 3.528-2.772 3.528-1.659 0-2.499-1.071-2.499-3.171v-5.733h-2.268v5.985c0 3.675 1.953 4.893 4.242 4.893 1.66 0 2.646-.672 3.318-1.491L61.626 40h1.995V29.248h-2.268v5.376zm5.342 2.457c0 1.953.882 2.919 2.94 2.919h2.1v-1.995h-1.596c-.861 0-1.155-.315-1.155-1.155v-5.607h2.625v-1.995h-2.625v-3.003h-2.29v3.003h-1.868v1.995h1.869v5.838zm16.79 3.045c2.752 0 4.579-1.533 4.999-3.969H86.09c-.273 1.239-1.198 2.037-2.584 2.037-1.826 0-3.023-1.449-3.023-3.549 0-2.121 1.197-3.591 3.023-3.591 1.407 0 2.31.777 2.605 2.037h2.373c-.441-2.436-2.163-3.969-4.935-3.969-3.256 0-5.398 2.205-5.398 5.523 0 3.36 2.08 5.481 5.335 5.481zm11.816 0c3.276 0 5.481-2.205 5.481-5.502 0-3.276-2.205-5.502-5.48-5.502-3.277 0-5.482 2.226-5.482 5.502 0 3.297 2.205 5.502 5.481 5.502zm0-1.932c-1.91 0-3.15-1.491-3.15-3.57 0-2.079 1.24-3.57 3.15-3.57 1.911 0 3.171 1.491 3.171 3.57 0 2.079-1.26 3.57-3.17 3.57zm6.782-1.743c.063 2.331 2.037 3.675 4.914 3.675 2.604 0 4.557-1.302 4.557-3.36 0-2.394-1.995-2.898-4.452-3.192-1.554-.168-2.583-.294-2.583-1.302 0-.861.882-1.407 2.226-1.407 1.344 0 2.268.693 2.394 1.68h2.226c-.147-2.205-2.016-3.423-4.662-3.423-2.583-.021-4.41 1.302-4.41 3.339 0 2.226 1.932 2.751 4.389 3.045 1.659.21 2.646.294 2.646 1.449 0 .861-.924 1.407-2.331 1.407-1.638 0-2.604-.798-2.688-1.911h-2.226zm12.005.63c0 1.953.882 2.919 2.94 2.919h2.1v-1.995h-1.596c-.861 0-1.155-.315-1.155-1.155v-5.607h2.625v-1.995h-2.625v-3.003h-2.289v3.003h-1.869v1.995h1.869v5.838zm6.021-.63c.063 2.331 2.037 3.675 4.914 3.675 2.604 0 4.557-1.302 4.557-3.36 0-2.394-1.995-2.898-4.452-3.192-1.554-.168-2.583-.294-2.583-1.302 0-.861.882-1.407 2.226-1.407 1.344 0 2.268.693 2.394 1.68h2.226c-.147-2.205-2.016-3.423-4.662-3.423-2.583-.021-4.41 1.302-4.41 3.339 0 2.226 1.932 2.751 4.389 3.045 1.659.21 2.646.294 2.646 1.449 0 .861-.924 1.407-2.331 1.407-1.638 0-2.604-.798-2.688-1.911h-2.226z" fill="#000"/></svg>