<svg width="121" height="41" viewBox="0 0 121 41" fill="none" xmlns="http://www.w3.org/2000/svg"><path d="M.803 8l.924-2.354h3.542L6.193 8h.638L3.861.3h-.693L.187 8h.616zM3.498.96l1.595 4.136h-3.19L3.498.96zm6.371 7.106c1.265 0 2.156-.726 2.376-1.859h-.594c-.187.825-.858 1.353-1.782 1.353-1.22 0-2.068-.957-2.068-2.343 0-1.386.836-2.365 2.068-2.365.935 0 1.595.528 1.793 1.364h.583c-.23-1.155-1.1-1.859-2.365-1.859-1.573 0-2.65 1.166-2.65 2.86 0 1.716 1.066 2.849 2.64 2.849zm5.898 0c1.265 0 2.156-.726 2.376-1.859h-.594c-.187.825-.858 1.353-1.782 1.353-1.221 0-2.068-.957-2.068-2.343 0-1.386.836-2.365 2.068-2.365.935 0 1.595.528 1.793 1.364h.583c-.231-1.155-1.1-1.859-2.365-1.859-1.573 0-2.651 1.166-2.651 2.86 0 1.716 1.067 2.849 2.64 2.849zm5.93 0c1.221 0 2.156-.792 2.398-1.914h-.572c-.22.869-.957 1.408-1.87 1.408-1.243 0-2.024-.946-2.046-2.244v-.099h4.554c0-.077.011-.165.011-.231-.055-1.661-1.078-2.629-2.574-2.629-1.529 0-2.574 1.166-2.574 2.816 0 1.749 1.09 2.893 2.673 2.893zm-2.046-3.322c.088-1.133.935-1.892 1.958-1.892 1.09 0 1.87.671 1.958 1.892h-3.916zm5.366 1.54c.044 1.155.98 1.782 2.376 1.782 1.2 0 2.167-.605 2.167-1.595 0-1.177-1.034-1.408-2.233-1.573-.869-.121-1.639-.22-1.639-1.001 0-.638.627-1.056 1.573-1.056.891 0 1.53.429 1.628 1.155h.572c-.099-1.089-.99-1.639-2.2-1.639-1.243-.011-2.134.627-2.134 1.584 0 1.122 1.034 1.331 2.178 1.485.935.132 1.694.253 1.694 1.078 0 .66-.693 1.078-1.606 1.078-1.067 0-1.76-.495-1.804-1.298h-.572zm5.253 0c.044 1.155.98 1.782 2.376 1.782 1.2 0 2.167-.605 2.167-1.595 0-1.177-1.034-1.408-2.233-1.573-.869-.121-1.639-.22-1.639-1.001 0-.638.627-1.056 1.573-1.056.891 0 1.53.429 1.628 1.155h.572c-.099-1.089-.99-1.639-2.2-1.639-1.243-.011-2.134.627-2.134 1.584 0 1.122 1.034 1.331 2.178 1.485.935.132 1.694.253 1.694 1.078 0 .66-.693 1.078-1.606 1.078-1.067 0-1.76-.495-1.804-1.298h-.572zm13.133-2.607c-.341-.792-1.09-1.32-2.134-1.32-1.53 0-2.63 1.166-2.63 2.849 0 1.76 1.1 2.86 2.63 2.86 1.044 0 1.77-.561 2.123-1.342L43.479 8h.485V.3h-.561v3.377zm-2.09 3.883c-1.244 0-2.102-.968-2.102-2.354 0-1.375.858-2.354 2.102-2.354 1.242 0 2.1.979 2.1 2.365 0 1.375-.857 2.343-2.1 2.343zm6.434.506c1.221 0 2.156-.792 2.398-1.914h-.572c-.22.869-.957 1.408-1.87 1.408-1.243 0-2.024-.946-2.046-2.244v-.099h4.554c0-.077.011-.165.011-.231-.055-1.661-1.078-2.629-2.574-2.629-1.529 0-2.574 1.166-2.574 2.816 0 1.749 1.089 2.893 2.673 2.893zm-2.046-3.322c.088-1.133.935-1.892 1.958-1.892 1.089 0 1.87.671 1.958 1.892h-3.916zm10.184-1.067c-.341-.792-1.09-1.32-2.134-1.32-1.53 0-2.63 1.166-2.63 2.849 0 1.76 1.1 2.86 2.63 2.86 1.045 0 1.77-.561 2.123-1.342L55.962 8h.484V.3h-.561v3.377zm-2.09 3.883c-1.243 0-2.101-.968-2.101-2.354 0-1.375.858-2.354 2.1-2.354 1.244 0 2.102.979 2.102 2.365 0 1.375-.858 2.343-2.101 2.343zm4.256-6.314c.22 0 .396-.165.396-.396a.388.388 0 00-.396-.396.388.388 0 00-.395.396c0 .231.175.396.395.396zM57.767 8h.56V2.423h-.56V8zm4.31.066c1.265 0 2.156-.726 2.376-1.859h-.594c-.187.825-.858 1.353-1.782 1.353-1.22 0-2.068-.957-2.068-2.343 0-1.386.836-2.365 2.068-2.365.935 0 1.595.528 1.793 1.364h.583c-.23-1.155-1.1-1.859-2.365-1.859-1.573 0-2.65 1.166-2.65 2.86 0 1.716 1.066 2.849 2.64 2.849zm8.373-.583c-.33 0-.495-.11-.495-.539V4.348c0-1.276-.781-1.991-2.178-1.991-1.276 0-2.123.616-2.266 1.628h.56c.144-.682.738-1.133 1.684-1.133 1.045 0 1.639.55 1.639 1.474v.484H67.5c-1.43 0-2.2.616-2.2 1.661 0 .99.78 1.595 1.969 1.595 1.133 0 1.804-.517 2.145-1.21v.198c-.022.66.253.946.913.946h.33v-.517h-.21zm-1.056-1.738c0 1.067-.76 1.837-2.08 1.837-.89 0-1.44-.451-1.44-1.144 0-.737.55-1.144 1.584-1.144h1.936v.451zm2.433.957c0 .891.363 1.298 1.309 1.298h.814v-.517h-.77c-.583 0-.792-.22-.792-.792V2.94h1.507v-.517h-1.507V.861h-.561v1.562H70.77v.517h1.056v3.762zm5.269 1.364c1.22 0 2.156-.792 2.398-1.914h-.572c-.22.869-.957 1.408-1.87 1.408-1.243 0-2.024-.946-2.046-2.244v-.099h4.554c0-.077.01-.165.01-.231-.054-1.661-1.077-2.629-2.573-2.629-1.53 0-2.574 1.166-2.574 2.816 0 1.749 1.089 2.893 2.673 2.893zm-2.046-3.322c.088-1.133.935-1.892 1.958-1.892 1.089 0 1.87.671 1.958 1.892h-3.916zm10.184-1.067c-.341-.792-1.09-1.32-2.134-1.32-1.53 0-2.63 1.166-2.63 2.849 0 1.76 1.1 2.86 2.63 2.86 1.045 0 1.77-.561 2.123-1.342L85.31 8h.484V.3h-.561v3.377zm-2.09 3.883c-1.243 0-2.101-.968-2.101-2.354 0-1.375.858-2.354 2.1-2.354 1.244 0 2.102.979 2.102 2.365 0 1.375-.858 2.343-2.101 2.343zM2.937 17.423c-1.034 0-1.474.495-1.705 1.111l-.088-1.111H.66V23h.561v-2.827c0-1.133.297-2.211 1.606-2.211h.407v-.539h-.297zm3.195 5.643c1.22 0 2.156-.792 2.398-1.914h-.572c-.22.869-.957 1.408-1.87 1.408-1.243 0-2.024-.946-2.046-2.244v-.099h4.554c0-.077.01-.165.01-.231-.054-1.661-1.077-2.629-2.573-2.629-1.53 0-2.574 1.166-2.574 2.816 0 1.749 1.089 2.893 2.673 2.893zm-2.046-3.322c.088-1.133.935-1.892 1.958-1.892 1.089 0 1.87.671 1.958 1.892H4.086zM9.716 23h.56v-7.7h-.56V23zm6.786-.517c-.33 0-.495-.11-.495-.539v-2.596c0-1.276-.782-1.991-2.179-1.991-1.275 0-2.122.616-2.265 1.628h.56c.144-.682.738-1.133 1.684-1.133 1.044 0 1.638.55 1.638 1.474v.484h-1.892c-1.43 0-2.2.616-2.2 1.661 0 .99.781 1.595 1.97 1.595 1.133 0 1.803-.517 2.144-1.21v.198c-.022.66.253.946.914.946h.33v-.517h-.21zm-1.056-1.738c0 1.067-.76 1.837-2.08 1.837-.89 0-1.44-.451-1.44-1.144 0-.737.55-1.144 1.583-1.144h1.936v.451zm2.433.957c0 .891.363 1.298 1.309 1.298h.814v-.517h-.77c-.583 0-.792-.22-.792-.792V17.94h1.507v-.517H18.44v-1.562h-.561v1.562h-1.056v.517h1.056v3.762zm3.262-5.456c.22 0 .396-.165.396-.396a.388.388 0 00-.396-.396.388.388 0 00-.396.396c0 .231.176.396.396.396zM20.855 23h.561v-5.577h-.56V23zm4.344.066c1.573 0 2.684-1.166 2.684-2.86 0-1.683-1.11-2.849-2.684-2.849-1.573 0-2.673 1.166-2.673 2.849 0 1.694 1.1 2.86 2.673 2.86zm0-.506c-1.243 0-2.1-.968-2.1-2.354 0-1.375.857-2.354 2.1-2.354s2.101.979 2.101 2.354c0 1.386-.858 2.354-2.1 2.354zm6.373-5.203c-1.023 0-1.683.528-2.002 1.254l-.088-1.188h-.484V23h.56v-2.75c0-1.452.738-2.376 1.926-2.376 1.078 0 1.727.704 1.727 2.024V23h.56v-3.124c0-1.76-.934-2.519-2.2-2.519zm3.189 3.927c.043 1.155.978 1.782 2.375 1.782 1.2 0 2.167-.605 2.167-1.595 0-1.177-1.033-1.408-2.232-1.573-.87-.121-1.64-.22-1.64-1.001 0-.638.628-1.056 1.574-1.056.89 0 1.528.429 1.627 1.155h.573c-.1-1.089-.99-1.639-2.2-1.639-1.244-.011-2.135.627-2.135 1.584 0 1.122 1.035 1.331 2.178 1.485.935.132 1.694.253 1.694 1.078 0 .66-.692 1.078-1.605 1.078-1.068 0-1.76-.495-1.804-1.298h-.572zm8.187-3.927c-1.045 0-1.694.583-2.013 1.386V15.3h-.561V23h.56v-2.75c0-1.452.738-2.376 1.926-2.376 1.067 0 1.727.704 1.727 2.024V23h.56v-3.124c0-1.76-.934-2.519-2.2-2.519zm3.738-1.111c.22 0 .396-.165.396-.396a.388.388 0 00-.396-.396.388.388 0 00-.396.396c0 .231.176.396.396.396zM46.4 23h.561v-5.577h-.56V23zm4.575-5.643c-1.045 0-1.77.561-2.123 1.342l-.088-1.276h-.484V25.2h.561v-3.487c.32.814 1.078 1.353 2.134 1.353 1.53 0 2.63-1.166 2.63-2.86 0-1.749-1.1-2.849-2.63-2.849zm-.044 5.203c-1.243 0-2.1-.968-2.1-2.365 0-1.364.857-2.343 2.1-2.343s2.101.979 2.101 2.354c0 1.386-.858 2.354-2.1 2.354zm12.975-5.203c-1.023 0-1.684.572-2.002 1.397-.265-.924-.958-1.397-1.838-1.397-.957 0-1.529.561-1.815 1.254l-.087-1.188h-.485V23h.561v-2.838c0-1.364.66-2.288 1.727-2.288.968 0 1.574.682 1.574 1.969V23h.56v-3.036c.034-1.276.694-2.09 1.739-2.09.968 0 1.55.649 1.55 1.914V23h.573v-3.234c0-1.683-.891-2.409-2.057-2.409zm8.208 5.126c-.33 0-.495-.11-.495-.539v-2.596c0-1.276-.781-1.991-2.178-1.991-1.276 0-2.123.616-2.266 1.628h.56c.144-.682.738-1.133 1.684-1.133 1.045 0 1.639.55 1.639 1.474v.484h-1.892c-1.43 0-2.2.616-2.2 1.661 0 .99.78 1.595 1.969 1.595 1.133 0 1.804-.517 2.145-1.21v.198c-.022.66.253.946.913.946h.33v-.517h-.21zm-1.056-1.738c0 1.067-.76 1.837-2.08 1.837-.89 0-1.44-.451-1.44-1.144 0-.737.55-1.144 1.584-1.144h1.936v.451zm4.59-3.388c-1.024 0-1.684.528-2.003 1.254l-.088-1.188h-.484V23h.561v-2.75c0-1.452.737-2.376 1.925-2.376 1.078 0 1.727.704 1.727 2.024V23h.561v-3.124c0-1.76-.935-2.519-2.2-2.519zm8.347 5.126c-.33 0-.495-.11-.495-.539v-2.596c0-1.276-.781-1.991-2.178-1.991-1.276 0-2.123.616-2.266 1.628h.56c.144-.682.738-1.133 1.684-1.133 1.045 0 1.639.55 1.639 1.474v.484h-1.892c-1.43 0-2.2.616-2.2 1.661 0 .99.78 1.595 1.969 1.595 1.133 0 1.804-.517 2.145-1.21v.198c-.022.66.253.946.913.946h.33v-.517h-.21zm-1.056-1.738c0 1.067-.76 1.837-2.08 1.837-.89 0-1.44-.451-1.44-1.144 0-.737.55-1.144 1.584-1.144h1.936v.451zm6.558-2.024c-.341-.825-1.09-1.364-2.123-1.364-1.53 0-2.63 1.155-2.63 2.849 0 1.76 1.1 2.86 2.63 2.86 1.045 0 1.782-.55 2.134-1.419v.99c0 1.485-.704 2.123-2.046 2.123-1.045 0-1.771-.473-1.947-1.32h-.583c.176 1.188 1.133 1.826 2.486 1.826 1.804 0 2.65-.858 2.65-2.607v-5.236h-.483l-.088 1.298zm-2.08 3.839c-1.242 0-2.1-.968-2.1-2.354 0-1.386.858-2.354 2.1-2.354 1.244 0 2.102.968 2.102 2.365 0 1.375-.858 2.343-2.101 2.343zm6.436.506c1.22 0 2.156-.792 2.398-1.914h-.573c-.22.869-.956 1.408-1.87 1.408-1.243 0-2.024-.946-2.046-2.244v-.099h4.555c0-.077.01-.165.01-.231-.055-1.661-1.078-2.629-2.573-2.629-1.53 0-2.575 1.166-2.575 2.816 0 1.749 1.09 2.893 2.674 2.893zm-2.046-3.322c.087-1.133.934-1.892 1.957-1.892 1.09 0 1.87.671 1.959 1.892h-3.916zm7.906-2.321c-1.034 0-1.474.495-1.705 1.111l-.088-1.111h-.484V23h.561v-2.827c0-1.133.297-2.211 1.606-2.211h.407v-.539h-.297zm.736 3.861c.044 1.155.979 1.782 2.376 1.782 1.199 0 2.167-.605 2.167-1.595 0-1.177-1.034-1.408-2.233-1.573-.869-.121-1.639-.22-1.639-1.001 0-.638.627-1.056 1.573-1.056.891 0 1.529.429 1.628 1.155h.572c-.099-1.089-.99-1.639-2.2-1.639-1.243-.011-2.134.627-2.134 1.584 0 1.122 1.034 1.331 2.178 1.485.935.132 1.694.253 1.694 1.078 0 .66-.693 1.078-1.606 1.078-1.067 0-1.76-.495-1.804-1.298h-.572zm8.996.418c0 .891.363 1.298 1.309 1.298h.814v-.517h-.77c-.583 0-.792-.22-.792-.792V17.94h1.507v-.517h-1.507v-1.562h-.561v1.562h-1.056v.517h1.056v3.762zm5.269 1.364c1.573 0 2.684-1.166 2.684-2.86 0-1.683-1.111-2.849-2.684-2.849-1.573 0-2.673 1.166-2.673 2.849 0 1.694 1.1 2.86 2.673 2.86zm0-.506c-1.243 0-2.101-.968-2.101-2.354 0-1.375.858-2.354 2.101-2.354 1.243 0 2.101.979 2.101 2.354 0 1.386-.858 2.354-2.101 2.354zM4.708 35.162c0 1.463-.726 2.387-1.881 2.387-1.034 0-1.672-.704-1.672-2.035v-3.091H.594v3.124c0 1.749.913 2.519 2.145 2.519.99 0 1.639-.528 1.958-1.243L4.774 38h.495v-5.577h-.561v2.739zm4.577-2.805c-1.045 0-1.771.561-2.123 1.342l-.088-1.276H6.59V40.2h.56v-3.487c.32.814 1.079 1.353 2.135 1.353 1.529 0 2.629-1.166 2.629-2.86 0-1.749-1.1-2.849-2.63-2.849zM9.24 37.56c-1.243 0-2.101-.968-2.101-2.365 0-1.364.858-2.343 2.1-2.343 1.244 0 2.102.979 2.102 2.354 0 1.386-.858 2.354-2.101 2.354zm8.326-3.839c-.34-.825-1.089-1.364-2.123-1.364-1.529 0-2.629 1.155-2.629 2.849 0 1.76 1.1 2.86 2.63 2.86 1.044 0 1.781-.55 2.133-1.419v.99c0 1.485-.704 2.123-2.046 2.123-1.045 0-1.77-.473-1.947-1.32h-.583c.176 1.188 1.133 1.826 2.486 1.826 1.804 0 2.651-.858 2.651-2.607v-5.236h-.484l-.088 1.298zm-2.079 3.839c-1.243 0-2.1-.968-2.1-2.354 0-1.386.857-2.354 2.1-2.354s2.101.968 2.101 2.365c0 1.375-.858 2.343-2.1 2.343zm6.248-5.137c-1.034 0-1.474.495-1.705 1.111l-.088-1.111h-.484V38h.56v-2.827c0-1.133.298-2.211 1.607-2.211h.407v-.539h-.297zm5.798 5.06c-.33 0-.495-.11-.495-.539v-2.596c0-1.276-.781-1.991-2.178-1.991-1.276 0-2.123.616-2.266 1.628h.56c.144-.682.738-1.133 1.684-1.133 1.045 0 1.639.55 1.639 1.474v.484h-1.892c-1.43 0-2.2.616-2.2 1.661 0 .99.78 1.595 1.969 1.595 1.133 0 1.804-.517 2.145-1.21v.198c-.022.66.253.946.913.946h.33v-.517h-.21zm-1.056-1.738c0 1.067-.76 1.837-2.08 1.837-.89 0-1.44-.451-1.44-1.144 0-.737.55-1.144 1.584-1.144h1.936v.451zm6.483-2.068c-.34-.792-1.089-1.32-2.134-1.32-1.529 0-2.629 1.166-2.629 2.849 0 1.76 1.1 2.86 2.63 2.86 1.044 0 1.77-.561 2.122-1.342L33.038 38h.484v-7.7h-.56v3.377zm-2.09 3.883c-1.243 0-2.1-.968-2.1-2.354 0-1.375.857-2.354 2.1-2.354s2.101.979 2.101 2.365c0 1.375-.858 2.343-2.1 2.343zm6.435.506c1.22 0 2.156-.792 2.398-1.914h-.572c-.22.869-.957 1.408-1.87 1.408-1.243 0-2.024-.946-2.046-2.244v-.099h4.554c0-.077.01-.165.01-.231-.054-1.661-1.077-2.629-2.573-2.629-1.53 0-2.574 1.166-2.574 2.816 0 1.749 1.089 2.893 2.673 2.893zm-2.046-3.322c.088-1.133.935-1.892 1.958-1.892 1.089 0 1.87.671 1.958 1.892H35.26zM45.526 38l-.363.902c-.253.616-.352.781-.924.781h-.704v.517h.858c.748 0 .924-.286 1.276-1.166l2.673-6.611h-.605l-1.903 4.851-1.936-4.851h-.605L45.526 38zm5.798.066c1.573 0 2.684-1.166 2.684-2.86 0-1.683-1.11-2.849-2.684-2.849-1.573 0-2.673 1.166-2.673 2.849 0 1.694 1.1 2.86 2.673 2.86zm0-.506c-1.243 0-2.1-.968-2.1-2.354 0-1.375.857-2.354 2.1-2.354s2.101.979 2.101 2.354c0 1.386-.858 2.354-2.1 2.354zm7.847-2.398c0 1.463-.726 2.387-1.881 2.387-1.034 0-1.672-.704-1.672-2.035v-3.091h-.561v3.124c0 1.749.913 2.519 2.145 2.519.99 0 1.639-.528 1.958-1.243L59.237 38h.495v-5.577h-.561v2.739zm4.159-2.739c-1.034 0-1.474.495-1.705 1.111l-.088-1.111h-.484V38h.56v-2.827c0-1.133.298-2.211 1.607-2.211h.407v-.539h-.297zm6.557 5.643c1.22 0 2.156-.792 2.398-1.914h-.572c-.22.869-.957 1.408-1.87 1.408-1.243 0-2.024-.946-2.046-2.244v-.099h4.554c0-.077.01-.165.01-.231-.054-1.661-1.077-2.629-2.573-2.629-1.53 0-2.574 1.166-2.574 2.816 0 1.749 1.089 2.893 2.673 2.893zm-2.046-3.322c.088-1.133.935-1.892 1.958-1.892 1.089 0 1.87.671 1.958 1.892H67.84zM72.683 38h.65l1.847-2.453L77.028 38h.682l-2.167-2.849 2.057-2.728h-.638l-1.76 2.31-1.738-2.31h-.67l2.056 2.728L72.683 38zm8.445-5.643c-1.045 0-1.77.561-2.123 1.342l-.088-1.276h-.484V40.2h.561v-3.487c.32.814 1.078 1.353 2.134 1.353 1.53 0 2.63-1.166 2.63-2.86 0-1.749-1.1-2.849-2.63-2.849zm-.044 5.203c-1.243 0-2.1-.968-2.1-2.365 0-1.364.857-2.343 2.1-2.343s2.101.979 2.101 2.354c0 1.386-.858 2.354-2.1 2.354zm6.248.506c1.221 0 2.156-.792 2.398-1.914h-.572c-.22.869-.957 1.408-1.87 1.408-1.243 0-2.024-.946-2.046-2.244v-.099h4.554c0-.077.011-.165.011-.231-.055-1.661-1.078-2.629-2.574-2.629-1.529 0-2.574 1.166-2.574 2.816 0 1.749 1.089 2.893 2.673 2.893zm-2.046-3.322c.088-1.133.935-1.892 1.958-1.892 1.089 0 1.87.671 1.958 1.892h-3.916zm7.907-2.321c-1.034 0-1.474.495-1.705 1.111l-.088-1.111h-.484V38h.56v-2.827c0-1.133.298-2.211 1.607-2.211h.407v-.539h-.297zm1.414-1.177c.22 0 .396-.165.396-.396a.388.388 0 00-.396-.396.388.388 0 00-.396.396c0 .231.176.396.396.396zM94.321 38h.561v-5.577h-.56V38zm4.344.066c1.221 0 2.156-.792 2.398-1.914h-.572c-.22.869-.957 1.408-1.87 1.408-1.243 0-2.024-.946-2.046-2.244v-.099h4.554c0-.077.011-.165.011-.231-.055-1.661-1.078-2.629-2.574-2.629-1.529 0-2.574 1.166-2.574 2.816 0 1.749 1.089 2.893 2.673 2.893zm-2.046-3.322c.088-1.133.935-1.892 1.958-1.892 1.089 0 1.87.671 1.958 1.892h-3.916zm8.204-2.387c-1.023 0-1.683.528-2.002 1.254l-.088-1.188h-.484V38h.561v-2.75c0-1.452.737-2.376 1.925-2.376 1.078 0 1.727.704 1.727 2.024V38h.561v-3.124c0-1.76-.935-2.519-2.2-2.519zm5.787 5.709c1.265 0 2.156-.726 2.376-1.859h-.594c-.187.825-.858 1.353-1.782 1.353-1.221 0-2.068-.957-2.068-2.343 0-1.386.836-2.365 2.068-2.365.935 0 1.595.528 1.793 1.364h.583c-.231-1.155-1.1-1.859-2.365-1.859-1.573 0-2.651 1.166-2.651 2.86 0 1.716 1.067 2.849 2.64 2.849zm5.93 0c1.221 0 2.156-.792 2.398-1.914h-.572c-.22.869-.957 1.408-1.87 1.408-1.243 0-2.024-.946-2.046-2.244v-.099h4.554c0-.077.011-.165.011-.231-.055-1.661-1.078-2.629-2.574-2.629-1.529 0-2.574 1.166-2.574 2.816 0 1.749 1.089 2.893 2.673 2.893zm-2.046-3.322c.088-1.133.935-1.892 1.958-1.892 1.089 0 1.87.671 1.958 1.892h-3.916zm5.166 2.893c0 .253.176.418.418.418a.398.398 0 00.418-.418c0-.253-.176-.407-.418-.407s-.418.154-.418.407z" fill="#000"/></svg>