<svg width="234" height="37" viewBox="0 0 234 37" fill="none" xmlns="http://www.w3.org/2000/svg"><path d="M.224 12h.918V7.036h3.417L7.364 12h1.037l-2.89-5.134c1.751-.272 2.856-1.547 2.856-3.298C8.367 1.46 6.888.1 4.627.1H.224V12zM4.576.95c1.751 0 2.856 1.02 2.856 2.618 0 1.581-1.122 2.618-2.873 2.618H1.142V.95h3.434zm8.88 11.152c1.888 0 3.333-1.224 3.707-2.958h-.884c-.34 1.343-1.48 2.176-2.89 2.176-1.921 0-3.128-1.462-3.162-3.468v-.153h7.038c0-.119.017-.255.017-.357-.085-2.567-1.666-4.063-3.978-4.063-2.363 0-3.978 1.802-3.978 4.352 0 2.703 1.683 4.471 4.13 4.471zm-3.161-5.134c.136-1.751 1.445-2.924 3.026-2.924 1.683 0 2.89 1.037 3.026 2.924h-6.052zm16.283 4.233c-.51 0-.765-.17-.765-.833V6.356c0-1.972-1.207-3.077-3.366-3.077-1.972 0-3.281.952-3.502 2.516h.867c.22-1.054 1.139-1.751 2.6-1.751 1.616 0 2.534.85 2.534 2.278v.748h-2.924c-2.21 0-3.4.952-3.4 2.567 0 1.53 1.207 2.465 3.043 2.465 1.75 0 2.788-.799 3.315-1.87v.306c-.034 1.02.39 1.462 1.41 1.462h.51v-.799h-.322zm-1.632-2.686c0 1.649-1.173 2.839-3.213 2.839-1.377 0-2.227-.697-2.227-1.768 0-1.139.85-1.768 2.448-1.768h2.992v.697zm6.738 3.587c1.955 0 3.332-1.122 3.672-2.873h-.918c-.289 1.275-1.326 2.091-2.754 2.091-1.887 0-3.196-1.479-3.196-3.621s1.292-3.655 3.196-3.655c1.445 0 2.465.816 2.771 2.108h.901c-.357-1.785-1.7-2.873-3.655-2.873-2.43 0-4.097 1.802-4.097 4.42 0 2.652 1.65 4.403 4.08 4.403zm6.003-2.108c0 1.377.562 2.006 2.024 2.006h1.258v-.799h-1.19c-.902 0-1.225-.34-1.225-1.224V4.18h2.33v-.799h-2.33V.967h-.867v2.414h-1.631v.799h1.632v5.814zm9.625-8.432c.34 0 .612-.255.612-.612a.599.599 0 00-.612-.612.599.599 0 00-.612.612c0 .357.272.612.612.612zM46.87 12h.867V3.381h-.867V12zm6.883-8.721c-1.581 0-2.601.816-3.094 1.938l-.136-1.836h-.748V12h.867V7.75c0-2.244 1.139-3.672 2.975-3.672 1.666 0 2.669 1.088 2.669 3.128V12h.867V7.172c0-2.72-1.445-3.893-3.4-3.893zm13.42.102c-1.598 0-2.278.765-2.635 1.717l-.136-1.717h-.748V12h.867V7.631c0-1.751.459-3.417 2.482-3.417h.629v-.833h-.46zm4.937 8.721c1.887 0 3.332-1.224 3.706-2.958h-.884c-.34 1.343-1.479 2.176-2.89 2.176-1.92 0-3.128-1.462-3.162-3.468v-.153h7.038c0-.119.017-.255.017-.357-.085-2.567-1.666-4.063-3.978-4.063-2.363 0-3.978 1.802-3.978 4.352 0 2.703 1.683 4.471 4.131 4.471zm-3.162-5.134c.136-1.751 1.445-2.924 3.026-2.924 1.683 0 2.89 1.037 3.026 2.924h-6.052zm16.283 4.233c-.51 0-.765-.17-.765-.833V6.356c0-1.972-1.207-3.077-3.366-3.077-1.972 0-3.281.952-3.502 2.516h.867c.22-1.054 1.139-1.751 2.6-1.751 1.616 0 2.534.85 2.534 2.278v.748h-2.924c-2.21 0-3.4.952-3.4 2.567 0 1.53 1.207 2.465 3.043 2.465 1.75 0 2.788-.799 3.315-1.87v.306c-.034 1.02.39 1.462 1.41 1.462h.51v-.799h-.322zm-1.632-2.686c0 1.649-1.173 2.839-3.213 2.839-1.377 0-2.227-.697-2.227-1.768 0-1.139.85-1.768 2.448-1.768h2.992v.697zM86.713 12h.867V.1h-.867V12zm8.134-2.006c0 1.377.56 2.006 2.023 2.006h1.258v-.799h-1.19c-.901 0-1.224-.34-1.224-1.224V4.18h2.329v-.799h-2.33V.967h-.866v2.414h-1.632v.799h1.632v5.814zm5.042-8.432A.6.6 0 00100.5.95a.6.6 0 00-.612-.612.599.599 0 00-.612.612c0 .357.272.612.612.612zM99.447 12h.867V3.381h-.867V12zm12.527-8.721c-1.581 0-2.601.884-3.094 2.159-.408-1.428-1.479-2.159-2.839-2.159-1.479 0-2.363.867-2.805 1.938l-.136-1.836h-.748V12h.867V7.614c0-2.108 1.02-3.536 2.669-3.536 1.496 0 2.431 1.054 2.431 3.043V12h.867V7.308c.051-1.972 1.071-3.23 2.686-3.23 1.496 0 2.397 1.003 2.397 2.958V12h.884V7.002c0-2.601-1.377-3.723-3.179-3.723zm8.779 8.823c1.887 0 3.332-1.224 3.706-2.958h-.884c-.34 1.343-1.479 2.176-2.89 2.176-1.921 0-3.128-1.462-3.162-3.468v-.153h7.038c0-.119.017-.255.017-.357-.085-2.567-1.666-4.063-3.978-4.063-2.363 0-3.978 1.802-3.978 4.352 0 2.703 1.683 4.471 4.131 4.471zm-3.162-5.134c.136-1.751 1.445-2.924 3.026-2.924 1.683 0 2.89 1.037 3.026 2.924h-6.052zM132.965 12h.935l2.55-7.242L138.881 12h.935l3.06-8.619h-.884l-2.652 7.582-2.465-7.582h-.799l-2.601 7.582-2.516-7.582h-.918L132.965 12zM144.53 1.562c.34 0 .612-.255.612-.612a.599.599 0 00-.612-.612.599.599 0 00-.612.612c0 .357.272.612.612.612zM144.088 12h.867V3.381h-.867V12zm3.552-2.006c0 1.377.561 2.006 2.023 2.006h1.258v-.799h-1.19c-.901 0-1.224-.34-1.224-1.224V4.18h2.329v-.799h-2.329V.967h-.867v2.414h-1.632v.799h1.632v5.814zm8.578-6.715c-1.615 0-2.618.901-3.111 2.142V.1h-.867V12h.867V7.75c0-2.244 1.139-3.672 2.975-3.672 1.649 0 2.669 1.088 2.669 3.128V12h.867V7.172c0-2.72-1.445-3.893-3.4-3.893zm13.725 8.823c1.887 0 3.332-1.224 3.706-2.958h-.884c-.34 1.343-1.479 2.176-2.89 2.176-1.921 0-3.128-1.462-3.162-3.468v-.153h7.038c0-.119.017-.255.017-.357-.085-2.567-1.666-4.063-3.978-4.063-2.363 0-3.978 1.802-3.978 4.352 0 2.703 1.683 4.471 4.131 4.471zm-3.162-5.134c.136-1.751 1.445-2.924 3.026-2.924 1.683 0 2.89 1.037 3.026 2.924h-6.052zM174.265 12h1.003l2.856-3.791L180.98 12h1.054l-3.349-4.403 3.179-4.216h-.986l-2.72 3.57-2.686-3.57h-1.037l3.179 4.216L174.265 12zm9.649-2.006c0 1.377.561 2.006 2.023 2.006h1.258v-.799h-1.19c-.901 0-1.224-.34-1.224-1.224V4.18h2.329v-.799h-2.329V.967h-.867v2.414h-1.632v.799h1.632v5.814zm8.143 2.108c1.887 0 3.332-1.224 3.706-2.958h-.884c-.34 1.343-1.479 2.176-2.89 2.176-1.921 0-3.128-1.462-3.162-3.468v-.153h7.038c0-.119.017-.255.017-.357-.085-2.567-1.666-4.063-3.978-4.063-2.363 0-3.978 1.802-3.978 4.352 0 2.703 1.683 4.471 4.131 4.471zm-3.162-5.134c.136-1.751 1.445-2.924 3.026-2.924 1.683 0 2.89 1.037 3.026 2.924h-6.052zm12.678-3.689c-1.581 0-2.601.816-3.094 1.938l-.136-1.836h-.748V12h.867V7.75c0-2.244 1.139-3.672 2.975-3.672 1.666 0 2.669 1.088 2.669 3.128V12h.867V7.172c0-2.72-1.445-3.893-3.4-3.893zm12.224 2.04c-.527-1.224-1.683-2.04-3.298-2.04-2.363 0-4.063 1.802-4.063 4.403 0 2.72 1.7 4.42 4.063 4.42 1.615 0 2.737-.867 3.281-2.074l.136 1.972h.748V.1h-.867v5.219zm-3.23 6.001c-1.921 0-3.247-1.496-3.247-3.638 0-2.125 1.326-3.638 3.247-3.638 1.921 0 3.247 1.513 3.247 3.655 0 2.125-1.326 3.621-3.247 3.621zm9.945.782c1.887 0 3.332-1.224 3.706-2.958h-.884c-.34 1.343-1.479 2.176-2.89 2.176-1.921 0-3.128-1.462-3.162-3.468v-.153h7.038c0-.119.017-.255.017-.357-.085-2.567-1.666-4.063-3.978-4.063-2.363 0-3.978 1.802-3.978 4.352 0 2.703 1.683 4.471 4.131 4.471zm-3.162-5.134c.136-1.751 1.445-2.924 3.026-2.924 1.683 0 2.89 1.037 3.026 2.924h-6.052zm15.738-1.649c-.527-1.224-1.683-2.04-3.298-2.04-2.363 0-4.063 1.802-4.063 4.403 0 2.72 1.7 4.42 4.063 4.42 1.615 0 2.737-.867 3.281-2.074l.136 1.972h.748V.1h-.867v5.219zm-3.23 6.001c-1.921 0-3.247-1.496-3.247-3.638 0-2.125 1.326-3.638 3.247-3.638 1.921 0 3.247 1.513 3.247 3.655 0 2.125-1.326 3.621-3.247 3.621zM3.998 27.279c-1.615 0-2.618.901-3.111 2.142V24.1H.02V36h.867v-4.25c0-2.244 1.139-3.672 2.975-3.672 1.649 0 2.669 1.088 2.669 3.128V36h.867v-4.828c0-2.72-1.445-3.893-3.4-3.893zm9.01 8.823c2.432 0 4.149-1.802 4.149-4.42 0-2.601-1.717-4.403-4.148-4.403-2.431 0-4.131 1.802-4.131 4.403 0 2.618 1.7 4.42 4.13 4.42zm0-.782c-1.92 0-3.246-1.496-3.246-3.638 0-2.125 1.326-3.638 3.247-3.638 1.92 0 3.247 1.513 3.247 3.638 0 2.142-1.326 3.638-3.247 3.638zm12.127-3.706c0 2.261-1.122 3.689-2.907 3.689-1.598 0-2.584-1.088-2.584-3.145v-4.777h-.867v4.828c0 2.703 1.411 3.893 3.315 3.893 1.53 0 2.533-.816 3.026-1.921l.12 1.819h.764v-8.619h-.867v4.233zm6.427-4.233c-1.598 0-2.278.765-2.635 1.717l-.136-1.717h-.748V36h.867v-4.369c0-1.751.46-3.417 2.482-3.417h.63v-.833h-.46zm1.137 5.967c.068 1.785 1.513 2.754 3.672 2.754 1.853 0 3.35-.935 3.35-2.465 0-1.819-1.599-2.176-3.452-2.431-1.343-.187-2.533-.34-2.533-1.547 0-.986.97-1.632 2.431-1.632 1.377 0 2.363.663 2.516 1.785h.884c-.153-1.683-1.53-2.533-3.4-2.533-1.92-.017-3.298.969-3.298 2.448 0 1.734 1.598 2.057 3.366 2.295 1.445.204 2.618.391 2.618 1.666 0 1.02-1.07 1.666-2.482 1.666-1.649 0-2.72-.765-2.788-2.006H32.7zm17.066 2.754c2.43 0 4.148-1.802 4.148-4.42 0-2.601-1.717-4.403-4.148-4.403-2.431 0-4.132 1.802-4.132 4.403 0 2.618 1.7 4.42 4.131 4.42zm0-.782c-1.922 0-3.248-1.496-3.248-3.638 0-2.125 1.326-3.638 3.247-3.638 1.921 0 3.247 1.513 3.247 3.638 0 2.142-1.326 3.638-3.247 3.638zm9.848-8.041c-1.58 0-2.6.816-3.094 1.938l-.136-1.836h-.748V36h.867v-4.25c0-2.244 1.14-3.672 2.975-3.672 1.666 0 2.67 1.088 2.67 3.128V36h.866v-4.828c0-2.72-1.445-3.893-3.4-3.893zm8.983-2.363h7.191L69.752 36h.97l6.034-11.254V24.1h-8.16v.816zm8.899 5.406c0 3.485 1.717 5.78 4.3 5.78 2.55 0 4.285-2.295 4.285-5.78v-.544c0-3.383-1.734-5.78-4.284-5.78-2.584 0-4.301 2.397-4.301 5.78v.544zm7.684-.034c0 3.026-1.343 4.998-3.383 4.998-2.057 0-3.4-1.972-3.4-4.998v-.476c0-3.026 1.343-4.998 3.4-4.998 2.04 0 3.383 1.972 3.383 4.998v.476zm5.79.459H88.01v.731h2.958v3.111h.799v-3.111h2.975v-.731h-2.975v-3.111h-.8v3.111zm10.673.34c0 3.315 1.411 5.015 4.335 5.015 2.941 0 4.369-1.7 4.369-5.015V24.1h-.918v7.038c0 2.737-1.054 4.114-3.451 4.114-2.363 0-3.417-1.377-3.417-4.114V24.1h-.918v6.987zm10.665 1.258c.119 2.244 1.751 3.757 4.42 3.757 2.499 0 4.148-1.36 4.148-3.366 0-2.261-2.006-2.839-3.978-3.179-1.819-.306-3.4-.612-3.4-2.312 0-1.547 1.207-2.414 3.077-2.414 1.785 0 3.009 1.003 3.213 2.55h.935c-.17-2.04-1.717-3.383-4.148-3.383-2.414 0-3.995 1.275-3.995 3.298 0 2.261 1.938 2.771 3.842 3.094 1.87.323 3.536.697 3.536 2.431 0 1.53-1.292 2.448-3.213 2.448-2.006 0-3.366-1.156-3.485-2.924h-.952zm14.573 1.003c.068 1.785 1.513 2.754 3.672 2.754 1.853 0 3.349-.935 3.349-2.465 0-1.819-1.598-2.176-3.451-2.431-1.343-.187-2.533-.34-2.533-1.547 0-.986.969-1.632 2.431-1.632 1.377 0 2.363.663 2.516 1.785h.884c-.153-1.683-1.53-2.533-3.4-2.533-1.921-.017-3.298.969-3.298 2.448 0 1.734 1.598 2.057 3.366 2.295 1.445.204 2.618.391 2.618 1.666 0 1.02-1.071 1.666-2.482 1.666-1.649 0-2.72-.765-2.788-2.006h-.884zm12.653-6.069c-1.615 0-2.618.901-3.111 2.142V24.1h-.867V36h.867v-4.25c0-2.244 1.139-3.672 2.975-3.672 1.649 0 2.669 1.088 2.669 3.128V36h.867v-4.828c0-2.72-1.445-3.893-3.4-3.893zm12.918 7.922c-.51 0-.765-.17-.765-.833v-4.012c0-1.972-1.207-3.077-3.366-3.077-1.972 0-3.281.952-3.502 2.516h.867c.221-1.054 1.139-1.751 2.601-1.751 1.615 0 2.533.85 2.533 2.278v.748h-2.924c-2.21 0-3.4.952-3.4 2.567 0 1.53 1.207 2.465 3.043 2.465 1.751 0 2.788-.799 3.315-1.87v.306c-.034 1.02.391 1.462 1.411 1.462h.51v-.799h-.323zm-1.632-2.686c0 1.649-1.173 2.839-3.213 2.839-1.377 0-2.227-.697-2.227-1.768 0-1.139.85-1.768 2.448-1.768h2.992v.697zm6.633-5.134c-1.598 0-2.278.765-2.635 1.717l-.136-1.717h-.748V36h.867v-4.369c0-1.751.459-3.417 2.482-3.417h.629v-.833h-.459zm4.938 8.721c1.887 0 3.332-1.224 3.706-2.958h-.884c-.34 1.343-1.479 2.176-2.89 2.176-1.921 0-3.128-1.462-3.162-3.468v-.153h7.038c0-.119.017-.255.017-.357-.085-2.567-1.666-4.063-3.978-4.063-2.363 0-3.978 1.802-3.978 4.352 0 2.703 1.683 4.471 4.131 4.471zm-3.162-5.134c.136-1.751 1.445-2.924 3.026-2.924 1.683 0 2.89 1.037 3.026 2.924h-6.052zm18.518 5.134c2.55 0 4.352-1.377 4.862-3.774h-.969c-.51 1.904-1.887 2.924-3.91 2.924-2.754 0-4.488-2.159-4.488-5.202s1.768-5.202 4.522-5.202c1.989 0 3.383 1.037 3.91 2.907h.969c-.527-2.38-2.329-3.757-4.828-3.757-3.349 0-5.525 2.482-5.525 6.052 0 3.604 2.125 6.052 5.457 6.052zm6.838-.102h.918v-5.491h5.134v-.85h-5.134V24.95h6.154v-.85h-7.072V36zm12.151 0c3.774 0 5.984-2.346 5.984-5.95 0-3.621-2.21-5.95-5.984-5.95h-3.468V36h3.468zm-2.55-11.05h2.55c3.247 0 5.049 1.972 5.049 5.1 0 3.111-1.802 5.1-5.049 5.1h-2.55v-10.2zm9.975 8.398c.068 1.785 1.513 2.754 3.672 2.754 1.853 0 3.349-.935 3.349-2.465 0-1.819-1.598-2.176-3.451-2.431-1.343-.187-2.533-.34-2.533-1.547 0-.986.969-1.632 2.431-1.632 1.377 0 2.363.663 2.516 1.785h.884c-.153-1.683-1.53-2.533-3.4-2.533-1.921-.017-3.298.969-3.298 2.448 0 1.734 1.598 2.057 3.366 2.295 1.445.204 2.618.391 2.618 1.666 0 1.02-1.071 1.666-2.482 1.666-1.649 0-2.72-.765-2.788-2.006h-.884zm8.424 2.091c0 .391.272.646.646.646s.646-.255.646-.646-.272-.629-.646-.629-.646.238-.646.629z" fill="#000"/></svg>