<svg width="75" height="14" viewBox="0 0 75 14" fill="none" xmlns="http://www.w3.org/2000/svg"><rect width="75" height="14" rx="7" fill="#000"/><path d="M10.476 10h.609V7.858h2.016v-.56h-2.016V5.66h2.436V5.1h-3.045V10zm5.929-1.785c0 .805-.392 1.302-1.043 1.302-.595 0-.931-.392-.931-1.134V6.43h-.574v1.988c0 1.183.623 1.624 1.407 1.624.588 0 .93-.252 1.14-.518l.078.476h.497V6.43h-.574v1.785zm3.106-1.827c-.602 0-.966.252-1.176.525l-.077-.483h-.497V10h.574V8.215c0-.805.406-1.302 1.078-1.302.623 0 .966.392.966 1.134V10h.574V8.012c0-1.183-.637-1.624-1.442-1.624zm4.947.588c-.217-.343-.623-.588-1.225-.588-.987 0-1.715.735-1.715 1.827 0 1.162.728 1.827 1.715 1.827.602 0 .987-.287 1.225-.616l.077.574h.497V5.1h-.574v1.876zm-1.169 2.555c-.707 0-1.183-.539-1.183-1.316s.476-1.316 1.183-1.316c.7 0 1.176.546 1.176 1.33 0 .763-.476 1.302-1.176 1.302zm8.34-3.143c-.637 0-1.022.294-1.24.679-.202-.455-.63-.679-1.126-.679a1.21 1.21 0 00-1.043.532l-.077-.49h-.497V10h.574V8.117c0-.714.357-1.204.945-1.204.546 0 .86.364.86 1.064V10h.575V8.089c0-.728.364-1.176.959-1.176.539 0 .847.364.847 1.064V10h.574V7.942c0-1.127-.61-1.554-1.351-1.554zm2.993 3.633l-.175.434c-.133.336-.189.42-.518.42h-.51v.525h.685c.504 0 .637-.224.861-.798L36.61 6.43h-.609l-1.064 2.849-1.099-2.849h-.609l1.393 3.591zm7.406-.546c-.161 0-.231-.049-.231-.238V7.676c0-.833-.525-1.288-1.435-1.288-.861 0-1.428.413-1.513 1.113h.575c.07-.364.406-.602.91-.602.56 0 .888.28.888.742v.245h-1.05c-.938 0-1.434.399-1.434 1.113 0 .651.532 1.043 1.316 1.043.615 0 .972-.273 1.197-.595.007.35.168.553.644.553h.314v-.525h-.181zm-.806-.931c0 .595-.413 1.008-1.127 1.008-.475 0-.776-.238-.776-.588 0-.406.286-.595.797-.595h1.106v.175zm2.99 1.498c.869 0 1.45-.49 1.59-1.26h-.61c-.111.455-.461.749-.972.749-.686 0-1.148-.532-1.148-1.309 0-.777.462-1.323 1.148-1.323.525 0 .875.287.98.763h.602c-.147-.784-.7-1.274-1.575-1.274-1.036 0-1.743.742-1.743 1.834 0 1.113.686 1.82 1.729 1.82zm3.822 0c.868 0 1.45-.49 1.59-1.26h-.61c-.112.455-.462.749-.973.749-.686 0-1.148-.532-1.148-1.309 0-.777.462-1.323 1.148-1.323.525 0 .875.287.98.763h.602c-.147-.784-.7-1.274-1.575-1.274-1.036 0-1.743.742-1.743 1.834 0 1.113.686 1.82 1.73 1.82zm3.863 0c1.043 0 1.771-.742 1.771-1.827s-.728-1.827-1.77-1.827c-1.044 0-1.772.742-1.772 1.827s.728 1.827 1.771 1.827zm0-.511c-.707 0-1.183-.553-1.183-1.316s.476-1.316 1.183-1.316c.707 0 1.183.553 1.183 1.316s-.476 1.316-1.183 1.316zm4.929-1.316c0 .805-.392 1.302-1.043 1.302-.595 0-.931-.392-.931-1.134V6.43h-.574v1.988c0 1.183.623 1.624 1.407 1.624.588 0 .93-.252 1.14-.518l.078.476h.497V6.43h-.574v1.785zm3.106-1.827c-.602 0-.966.252-1.176.525l-.077-.483h-.497V10h.574V8.215c0-.805.406-1.302 1.078-1.302.623 0 .966.392.966 1.134V10h.574V8.012c0-1.183-.637-1.624-1.442-1.624zm2.44 2.681c0 .63.245.931.93.931h.624v-.525h-.567c-.308 0-.413-.112-.413-.413V6.955h.924V6.43h-.924V5.429h-.574V6.43h-.644v.525h.644v2.114z" fill="#fff"/></svg>