<svg width="287" height="13" viewBox="0 0 287 13" fill="none" xmlns="http://www.w3.org/2000/svg"><path d="M.6 7.196c.092 1.725 1.346 2.887 3.397 2.887 1.92 0 3.188-1.045 3.188-2.586 0-1.738-1.542-2.182-3.057-2.443-1.398-.235-2.613-.47-2.613-1.777 0-1.188.928-1.855 2.365-1.855 1.371 0 2.312.771 2.469 1.96h.718c-.13-1.568-1.32-2.6-3.187-2.6-1.855 0-3.07.98-3.07 2.535 0 1.737 1.49 2.129 2.952 2.377C5.2 5.942 6.48 6.23 6.48 7.562c0 1.176-.993 1.881-2.469 1.881-1.541 0-2.586-.888-2.678-2.247H.601zm10.904 2.887c1.45 0 2.56-.94 2.848-2.273h-.68c-.26 1.032-1.136 1.672-2.22 1.672-1.476 0-2.404-1.123-2.43-2.665V6.7h5.408c0-.092.013-.196.013-.274-.065-1.973-1.28-3.122-3.056-3.122-1.816 0-3.057 1.384-3.057 3.344 0 2.077 1.293 3.435 3.174 3.435zm-2.43-3.945c.105-1.345 1.11-2.247 2.326-2.247 1.293 0 2.22.797 2.325 2.247h-4.65zM16.1 1.984a.46.46 0 00.47-.47.46.46 0 00-.47-.47.46.46 0 00-.47.47c0 .274.209.47.47.47zm-.34 8.02h.666V3.383h-.666v6.623zm1.92-6.008h4.258l-4.442 5.486v.523h5.513V9.39H18.37l4.455-5.5v-.51h-5.147v.615zm8.928 6.087c1.45 0 2.56-.94 2.848-2.273h-.68c-.26 1.032-1.136 1.672-2.22 1.672-1.476 0-2.404-1.123-2.43-2.665V6.7h5.408c0-.092.013-.196.013-.274-.065-1.973-1.28-3.122-3.056-3.122-1.816 0-3.057 1.384-3.057 3.344 0 2.077 1.293 3.435 3.174 3.435zm-2.43-3.945c.105-1.345 1.11-2.247 2.326-2.247 1.293 0 2.22.797 2.325 2.247h-4.65zm13.133 3.945c1.868 0 3.188-1.384 3.188-3.396 0-1.999-1.32-3.383-3.188-3.383s-3.174 1.384-3.174 3.383c0 2.012 1.306 3.396 3.174 3.396zm0-.6c-1.476 0-2.495-1.15-2.495-2.796 0-1.633 1.019-2.796 2.495-2.796 1.476 0 2.495 1.163 2.495 2.796 0 1.646-1.019 2.795-2.495 2.795zm7.568-6.18c-1.215 0-1.999.628-2.377 1.49l-.105-1.411h-.575v6.623h.666V6.739c0-1.724.876-2.822 2.286-2.822 1.28 0 2.051.837 2.051 2.404v3.684h.666v-3.71c0-2.09-1.11-2.991-2.612-2.991zm10.534 6.78c1.45 0 2.56-.94 2.848-2.273h-.68c-.26 1.032-1.136 1.672-2.22 1.672-1.476 0-2.404-1.123-2.43-2.665V6.7h5.408c0-.092.013-.196.013-.274-.065-1.973-1.28-3.122-3.057-3.122-1.815 0-3.056 1.384-3.056 3.344 0 2.077 1.293 3.435 3.174 3.435zm-2.43-3.945c.105-1.345 1.11-2.247 2.325-2.247 1.294 0 2.221.797 2.326 2.247h-4.65zm12.512 3.253c-.392 0-.588-.13-.588-.64V5.668c0-1.515-.927-2.364-2.586-2.364-1.516 0-2.521.731-2.691 1.933h.666c.17-.81.875-1.346 1.998-1.346 1.242 0 1.947.654 1.947 1.75v.576h-2.247c-1.698 0-2.612.731-2.612 1.972 0 1.176.927 1.894 2.338 1.894 1.345 0 2.142-.614 2.547-1.437v.235c-.026.784.3 1.124 1.084 1.124h.392V9.39h-.248zM64.24 7.327c0 1.267-.901 2.181-2.469 2.181-1.058 0-1.711-.535-1.711-1.358 0-.875.653-1.359 1.88-1.359h2.3v.536zm5.097-3.945c-1.228 0-1.75.588-2.025 1.32l-.104-1.32h-.575v6.623h.666V6.648c0-1.346.353-2.626 1.907-2.626h.484v-.64h-.353zm4.397-.078c-1.215 0-1.999.627-2.378 1.489l-.104-1.411h-.575v6.623h.666V6.739c0-1.724.875-2.822 2.286-2.822 1.28 0 2.051.837 2.051 2.404v3.684h.666v-3.71c0-2.09-1.11-2.991-2.612-2.991zm4.426-1.32a.46.46 0 00.47-.47.46.46 0 00-.47-.47.46.46 0 00-.47.47c0 .274.21.47.47.47zm-.34 8.02h.667V3.383h-.666v6.623zm5.29-6.7c-1.215 0-1.999.627-2.378 1.489l-.104-1.411h-.575v6.623h.666V6.739c0-1.724.876-2.822 2.286-2.822 1.28 0 2.051.837 2.051 2.404v3.684h.666v-3.71c0-2.09-1.11-2.991-2.612-2.991zm9.482 1.62c-.405-.98-1.293-1.62-2.521-1.62-1.816 0-3.122 1.371-3.122 3.383 0 2.09 1.306 3.396 3.122 3.396 1.24 0 2.116-.653 2.534-1.685v1.176c0 1.763-.836 2.52-2.43 2.52-1.24 0-2.103-.56-2.312-1.567h-.692c.209 1.411 1.345 2.169 2.952 2.169 2.142 0 3.148-1.02 3.148-3.096V3.382h-.575l-.104 1.541zm-2.469 4.558c-1.476 0-2.495-1.15-2.495-2.795 0-1.646 1.019-2.796 2.495-2.796 1.476 0 2.495 1.15 2.495 2.809 0 1.633-1.019 2.782-2.495 2.782zm4.415-1.515c.052 1.372 1.162 2.116 2.821 2.116 1.424 0 2.574-.718 2.574-1.894 0-1.398-1.228-1.672-2.652-1.868-1.032-.144-1.946-.261-1.946-1.189 0-.757.744-1.254 1.868-1.254 1.058 0 1.815.51 1.933 1.372h.68c-.118-1.293-1.176-1.946-2.613-1.946-1.476-.014-2.535.744-2.535 1.88 0 1.333 1.228 1.581 2.587 1.764 1.11.157 2.011.3 2.011 1.28 0 .784-.822 1.28-1.907 1.28-1.267 0-2.09-.587-2.142-1.541h-.68zm10.526-5.983a.46.46 0 00.471-.47.46.46 0 00-.471-.47.46.46 0 00-.47.47c0 .274.209.47.47.47zm-.339 8.02h.666V3.383h-.666v6.623zm5.289-6.7c-1.215 0-1.999.627-2.378 1.489l-.104-1.411h-.575v6.623h.666V6.739c0-1.724.876-2.822 2.286-2.822 1.28 0 2.051.837 2.051 2.404v3.684h.666v-3.71c0-2.09-1.11-2.991-2.612-2.991zm10.312.078c-1.228 0-1.751.588-2.025 1.32l-.104-1.32h-.575v6.623h.666V6.648c0-1.346.353-2.626 1.907-2.626h.483v-.64h-.352zm3.794 6.701c1.45 0 2.56-.94 2.847-2.273h-.679c-.261 1.032-1.136 1.672-2.221 1.672-1.476 0-2.403-1.123-2.429-2.665V6.7h5.408c0-.092.013-.196.013-.274-.065-1.973-1.28-3.122-3.057-3.122-1.816 0-3.057 1.384-3.057 3.344 0 2.077 1.294 3.435 3.175 3.435zm-2.43-3.945c.105-1.345 1.11-2.247 2.325-2.247 1.293 0 2.221.797 2.325 2.247h-4.65zm12.512 3.253c-.392 0-.588-.13-.588-.64V5.668c0-1.515-.928-2.364-2.587-2.364-1.515 0-2.521.731-2.691 1.933h.667c.17-.81.875-1.346 1.998-1.346 1.241 0 1.947.654 1.947 1.75v.576h-2.247c-1.698 0-2.613.731-2.613 1.972 0 1.176.928 1.894 2.339 1.894 1.345 0 2.142-.614 2.547-1.437v.235c-.026.784.3 1.124 1.084 1.124h.392V9.39h-.248zm-1.254-2.064c0 1.267-.902 2.181-2.469 2.181-1.058 0-1.711-.535-1.711-1.358 0-.875.653-1.359 1.881-1.359h2.299v.536zm2.393 2.678h.666V.86h-.666v9.144zm6.25-1.542c0 1.058.431 1.542 1.554 1.542h.967V9.39h-.915c-.692 0-.94-.261-.94-.94V3.995h1.789v-.614h-1.789V1.527h-.666v1.855h-1.255v.614h1.255v4.467zm3.874-6.479a.46.46 0 00.47-.47.46.46 0 00-.47-.47.46.46 0 00-.47.47c0 .274.209.47.47.47zm-.34 8.02h.666V3.383h-.666v6.623zm9.626-6.7c-1.215 0-1.998.679-2.377 1.659-.314-1.098-1.137-1.66-2.182-1.66-1.136 0-1.815.667-2.155 1.49l-.105-1.411h-.574v6.623h.666v-3.37c0-1.62.784-2.718 2.051-2.718 1.149 0 1.868.81 1.868 2.339v3.749h.666V6.399c.039-1.515.823-2.482 2.064-2.482 1.149 0 1.842.771 1.842 2.273v3.815h.679v-3.84c0-2-1.058-2.861-2.443-2.861zm6.746 6.78c1.45 0 2.56-.941 2.848-2.274h-.68c-.261 1.032-1.136 1.672-2.22 1.672-1.476 0-2.404-1.123-2.43-2.665V6.7h5.408c0-.092.013-.196.013-.274-.065-1.973-1.28-3.122-3.057-3.122-1.815 0-3.056 1.384-3.056 3.344 0 2.077 1.293 3.435 3.174 3.435zm-2.43-3.946c.105-1.345 1.111-2.247 2.325-2.247 1.294 0 2.221.797 2.326 2.247h-4.651zm11.814 3.867h.718l1.959-5.565 1.868 5.565h.719l2.351-6.623h-.679l-2.038 5.826-1.894-5.826h-.614l-1.999 5.826-1.933-5.826h-.705l2.247 6.623zm8.887-8.02a.46.46 0 00.47-.471.46.46 0 00-.47-.47.46.46 0 00-.47.47c0 .274.209.47.47.47zm-.34 8.02h.666V3.382h-.666v6.623zm2.729-1.542c0 1.058.431 1.542 1.554 1.542h.967V9.39h-.914c-.693 0-.941-.261-.941-.94V3.995h1.79v-.614h-1.79V1.527h-.666v1.855h-1.254v.614h1.254v4.467zm6.591-5.16c-1.241 0-2.011.693-2.39 1.646V.861h-.666v9.144h.666V6.739c0-1.724.875-2.822 2.286-2.822 1.267 0 2.051.837 2.051 2.404v3.684h.666v-3.71c0-2.09-1.11-2.991-2.613-2.991zm10.547 6.78c1.45 0 2.561-.94 2.848-2.273h-.679c-.262 1.032-1.137 1.672-2.221 1.672-1.476 0-2.404-1.123-2.43-2.665V6.7h5.408c0-.092.013-.196.013-.274-.065-1.973-1.28-3.122-3.056-3.122-1.816 0-3.057 1.384-3.057 3.344 0 2.077 1.293 3.435 3.174 3.435zm-2.43-3.945c.105-1.345 1.111-2.247 2.326-2.247 1.293 0 2.22.797 2.325 2.247h-4.651zm5.751 3.867h.771l2.194-2.913 2.195 2.913h.81l-2.574-3.383 2.443-3.24h-.757l-2.09 2.743-2.064-2.743h-.797l2.443 3.24-2.574 3.383zm7.414-1.542c0 1.058.432 1.542 1.555 1.542h.967V9.39h-.915c-.692 0-.94-.261-.94-.94V3.995h1.789v-.614h-1.789V1.527h-.667v1.855h-1.254v.614h1.254v4.467zm6.257 1.62c1.45 0 2.56-.94 2.848-2.273h-.679c-.262 1.032-1.137 1.672-2.221 1.672-1.476 0-2.404-1.123-2.43-2.665V6.7h5.408c0-.092.013-.196.013-.274-.065-1.973-1.28-3.122-3.056-3.122-1.816 0-3.057 1.384-3.057 3.344 0 2.077 1.293 3.435 3.174 3.435zm-2.43-3.945c.105-1.345 1.111-2.247 2.326-2.247 1.293 0 2.22.797 2.325 2.247h-4.651zm9.743-2.834c-1.215 0-1.999.627-2.378 1.489l-.104-1.411h-.575v6.623h.666V6.739c0-1.724.876-2.822 2.286-2.822 1.28 0 2.051.837 2.051 2.404v3.684h.666v-3.71c0-2.09-1.11-2.991-2.612-2.991zm9.393 1.567c-.405-.94-1.293-1.567-2.534-1.567-1.816 0-3.122 1.384-3.122 3.383 0 2.09 1.306 3.396 3.122 3.396 1.241 0 2.103-.666 2.521-1.593l.104 1.515h.575V.86h-.666v4.01zm-2.482 4.611c-1.476 0-2.495-1.15-2.495-2.795 0-1.633 1.019-2.796 2.495-2.796 1.476 0 2.495 1.163 2.495 2.809 0 1.633-1.019 2.782-2.495 2.782zm7.641.601c1.45 0 2.561-.94 2.848-2.273h-.679c-.262 1.032-1.137 1.672-2.221 1.672-1.476 0-2.404-1.123-2.43-2.665V6.7h5.408c0-.092.013-.196.013-.274-.065-1.973-1.28-3.122-3.056-3.122-1.816 0-3.057 1.384-3.057 3.344 0 2.077 1.293 3.435 3.174 3.435zm-2.429-3.945c.104-1.345 1.11-2.247 2.325-2.247 1.293 0 2.22.797 2.325 2.247h-4.65zm12.093-1.267c-.405-.94-1.293-1.567-2.534-1.567-1.816 0-3.122 1.384-3.122 3.383 0 2.09 1.306 3.396 3.122 3.396 1.241 0 2.103-.666 2.521-1.593l.105 1.515h.574V.86h-.666v4.01zm-2.482 4.611c-1.476 0-2.495-1.15-2.495-2.795 0-1.633 1.019-2.796 2.495-2.796 1.476 0 2.495 1.163 2.495 2.809 0 1.633-1.019 2.782-2.495 2.782zm11.293-6.178c-1.241 0-2.012.692-2.39 1.645V.861h-.667v9.144h.667V6.739c0-1.724.875-2.822 2.286-2.822 1.267 0 2.05.837 2.05 2.404v3.684h.667v-3.71c0-2.09-1.111-2.991-2.613-2.991zm6.924 6.78c1.868 0 3.187-1.385 3.187-3.397 0-1.999-1.319-3.383-3.187-3.383-1.868 0-3.174 1.384-3.174 3.383 0 2.012 1.306 3.396 3.174 3.396zm0-.602c-1.476 0-2.495-1.15-2.495-2.795 0-1.633 1.019-2.796 2.495-2.796 1.476 0 2.495 1.163 2.495 2.796 0 1.646-1.019 2.795-2.495 2.795zm9.318-2.847c0 1.737-.862 2.834-2.234 2.834-1.228 0-1.985-.836-1.985-2.416V3.382h-.666v3.71c0 2.077 1.084 2.991 2.547 2.991 1.176 0 1.946-.627 2.325-1.476l.092 1.398h.587V3.382h-.666v3.253zm4.939-3.253c-1.228 0-1.751.588-2.025 1.32l-.105-1.32h-.574v6.623h.666V6.648c0-1.346.353-2.626 1.907-2.626h.483v-.64h-.352zm.873 4.585c.053 1.372 1.163 2.116 2.822 2.116 1.424 0 2.573-.718 2.573-1.894 0-1.398-1.228-1.672-2.652-1.868-1.031-.144-1.946-.261-1.946-1.189 0-.757.745-1.254 1.868-1.254 1.058 0 1.816.51 1.933 1.372h.68c-.118-1.293-1.176-1.946-2.613-1.946-1.476-.014-2.534.744-2.534 1.88 0 1.333 1.228 1.581 2.586 1.764 1.111.157 2.012.3 2.012 1.28 0 .784-.823 1.28-1.907 1.28-1.267 0-2.09-.587-2.142-1.541h-.68zm6.473 1.607c0 .3.209.496.497.496a.473.473 0 00.496-.496c0-.3-.209-.484-.496-.484-.288 0-.497.183-.497.484z" fill="#000"/></svg>