<svg width="293" height="23" viewBox="0 0 293 23" fill="none" xmlns="http://www.w3.org/2000/svg"><path d="M.536 18H6.92c4.056 0 6.24-1.824 6.24-4.8 0-2.4-1.536-3.576-3.528-3.888 1.752-.48 2.88-1.68 2.88-3.672 0-2.76-2.112-4.44-5.808-4.44H.536V18zm6.24-14.496c1.92 0 2.976.912 2.976 2.4 0 1.512-1.08 2.424-2.976 2.424h-3.48V3.504h3.48zm.168 7.104c2.136 0 3.384.912 3.384 2.568 0 1.56-1.176 2.496-3.384 2.496H3.296v-5.064h3.648zm14.207 7.536c3.048 0 5.112-1.848 5.544-4.272h-2.592c-.36 1.368-1.512 2.16-3.096 2.16-2.04 0-3.36-1.368-3.432-3.456v-.168h9.264c.048-.336.072-.672.072-.984-.072-3.6-2.448-5.856-6-5.856-3.624 0-6.048 2.52-6.048 6.312 0 3.768 2.424 6.264 6.288 6.264zm-3.48-7.632c.192-1.752 1.608-2.856 3.264-2.856 1.8 0 3.072 1.032 3.288 2.856H17.67zm23.692-4.8c-2.016 0-3 .816-3.624 1.848l-.288-1.848h-2.304V18h2.592v-6.168c0-1.896.744-3.696 3.048-3.696h1.152V5.712h-.576zm7.42 12.432c3.049 0 5.113-1.848 5.545-4.272h-2.592c-.36 1.368-1.512 2.16-3.096 2.16-2.04 0-3.36-1.368-3.432-3.456v-.168h9.264c.048-.336.072-.672.072-.984-.072-3.6-2.448-5.856-6-5.856-3.624 0-6.048 2.52-6.048 6.312 0 3.768 2.424 6.264 6.288 6.264zm-3.48-7.632c.193-1.752 1.609-2.856 3.265-2.856 1.8 0 3.072 1.032 3.288 2.856h-6.552zm22.568 5.232c-.528 0-.792-.168-.792-.792v-4.92c0-2.904-1.872-4.464-5.136-4.464-3.096 0-5.16 1.488-5.424 3.888h2.544c.192-1.08 1.224-1.8 2.76-1.8 1.704 0 2.688.84 2.688 2.208v.744h-3.096c-3.432 0-5.256 1.416-5.256 3.936 0 2.28 1.872 3.6 4.56 3.6 1.992 0 3.24-.864 4.056-2.112 0 1.224.576 1.968 2.256 1.968H68.4v-2.256h-.528zm-3.36-2.784c-.024 1.896-1.272 3.168-3.432 3.168-1.416 0-2.28-.72-2.28-1.752 0-1.248.888-1.848 2.496-1.848h3.216v.432zm14.542-5.544c-.792-1.08-2.112-1.848-3.984-1.848-3.336 0-5.808 2.496-5.808 6.288 0 3.936 2.472 6.288 5.808 6.288 1.944 0 3.216-.912 4.008-1.992L79.39 18h2.256V1.2h-2.592v6.216zm-3.552 8.544c-2.16 0-3.576-1.68-3.576-4.104 0-2.4 1.416-4.08 3.576-4.08s3.576 1.68 3.576 4.128c0 2.376-1.416 4.056-3.576 4.056zm12.23 2.112l-.48 1.2c-.385 1.008-.625 1.248-1.633 1.248h-1.824v2.28h2.784c1.8 0 2.328-.888 3.096-2.88l5.568-14.208h-2.76l-3.336 9.336-3.432-9.336h-2.76l4.776 12.36zm16.283-14.088c.888 0 1.584-.648 1.584-1.56s-.696-1.56-1.584-1.56c-.888 0-1.584.648-1.584 1.56s.696 1.56 1.584 1.56zM102.694 18h2.592V5.712h-2.592V18zm3.885-10.008h2.136V18h2.616V7.992h3.288v-2.28h-3.336V4.68c0-.84.36-1.2 1.2-1.2h2.136V1.2h-2.472c-2.376 0-3.432 1.152-3.432 3.36v1.152h-2.136v2.28zM122.1 18h2.592V1.2H122.1V18zm6.453-14.016c.888 0 1.584-.648 1.584-1.56s-.696-1.56-1.584-1.56c-.888 0-1.584.648-1.584 1.56s.696 1.56 1.584 1.56zM127.233 18h2.592V5.712h-2.592V18zM141.75 7.632c-.792-1.224-2.112-2.064-4.032-2.064-3.336 0-5.808 2.472-5.808 6.24 0 3.912 2.472 6.24 5.808 6.24 1.92 0 3.192-.792 4.008-2.016V17.4c0 2.352-1.272 3.432-3.528 3.432-1.824 0-3.024-.792-3.336-2.16h-2.64c.24 2.76 2.52 4.272 5.784 4.272 4.416 0 6.288-2.112 6.288-5.448V5.712h-2.256l-.288 1.92zm-3.6 8.232c-2.16 0-3.576-1.656-3.576-4.056 0-2.376 1.416-4.056 3.576-4.056s3.576 1.68 3.576 4.104c0 2.352-1.416 4.008-3.576 4.008zm15.133-10.296c-1.92 0-3.096.864-3.864 1.92V1.2h-2.592V18h2.592v-6.216c0-2.472 1.248-3.984 3.288-3.984 1.92 0 2.952 1.248 2.952 3.576V18h2.592v-6.84c0-4.104-2.232-5.592-4.968-5.592zm8.213 9.096c0 2.232 1.008 3.336 3.36 3.336h2.4v-2.28h-1.824c-.984 0-1.32-.36-1.32-1.32V7.992h3v-2.28h-3V2.28h-2.616v3.432h-2.136v2.28h2.136v6.672zm13.889-9.096c-1.992 0-3.168.792-3.936 1.752l-.288-1.608h-2.256V18h2.592v-6.192c0-2.496 1.224-4.008 3.288-4.008 1.944 0 2.928 1.248 2.928 3.576V18h2.616v-6.84c0-4.104-2.232-5.592-4.944-5.592zm8.621-1.584c.888 0 1.584-.648 1.584-1.56s-.696-1.56-1.584-1.56c-.888 0-1.584.648-1.584 1.56s.696 1.56 1.584 1.56zM182.686 18h2.592V5.712h-2.592V18zm11.613-12.432c-1.992 0-3.168.792-3.936 1.752l-.288-1.608h-2.256V18h2.592v-6.192c0-2.496 1.224-4.008 3.288-4.008 1.944 0 2.928 1.248 2.928 3.576V18h2.616v-6.84c0-4.104-2.232-5.592-4.944-5.592zm16.685 2.064c-.792-1.224-2.112-2.064-4.032-2.064-3.336 0-5.808 2.472-5.808 6.24 0 3.912 2.472 6.24 5.808 6.24 1.92 0 3.192-.792 4.008-2.016V17.4c0 2.352-1.272 3.432-3.528 3.432-1.824 0-3.024-.792-3.336-2.16h-2.64c.24 2.76 2.52 4.272 5.784 4.272 4.416 0 6.288-2.112 6.288-5.448V5.712h-2.256l-.288 1.92zm-3.6 8.232c-2.16 0-3.576-1.656-3.576-4.056 0-2.376 1.416-4.056 3.576-4.056s3.576 1.68 3.576 4.104c0 2.352-1.416 4.008-3.576 4.008zm14.29-1.92c.072 2.664 2.328 4.2 5.616 4.2 2.976 0 5.208-1.488 5.208-3.84 0-2.736-2.28-3.312-5.088-3.648-1.776-.192-2.952-.336-2.952-1.488 0-.984 1.008-1.608 2.544-1.608s2.592.792 2.736 1.92h2.544c-.168-2.52-2.304-3.912-5.328-3.912-2.952-.024-5.04 1.488-5.04 3.816 0 2.544 2.208 3.144 5.016 3.48 1.896.24 3.024.336 3.024 1.656 0 .984-1.056 1.608-2.664 1.608-1.872 0-2.976-.912-3.072-2.184h-2.544zm13.72.72c0 2.232 1.008 3.336 3.36 3.336h2.4v-2.28h-1.824c-.984 0-1.32-.36-1.32-1.32V7.992h3v-2.28h-3V2.28h-2.616v3.432h-2.136v2.28h2.136v6.672zm13.625-8.952c-2.016 0-3 .816-3.624 1.848l-.288-1.848h-2.304V18h2.592v-6.168c0-1.896.744-3.696 3.048-3.696h1.152V5.712h-.576zm3.495-1.728c.888 0 1.584-.648 1.584-1.56s-.696-1.56-1.584-1.56c-.888 0-1.584.648-1.584 1.56s.696 1.56 1.584 1.56zM251.194 18h2.592V5.712h-2.592V18zm5.133 0h2.592v-3.12l2.208-2.304L264.751 18h3.072l-4.92-7.32 4.632-4.968h-3.048l-5.568 5.952V1.2h-2.592V18zm17.808.144c3.048 0 5.112-1.848 5.544-4.272h-2.592c-.36 1.368-1.512 2.16-3.096 2.16-2.04 0-3.36-1.368-3.432-3.456v-.168h9.264c.048-.336.072-.672.072-.984-.072-3.6-2.448-5.856-6-5.856-3.624 0-6.048 2.52-6.048 6.312 0 3.768 2.424 6.264 6.288 6.264zm-3.48-7.632c.192-1.752 1.608-2.856 3.264-2.856 1.8 0 3.072 1.032 3.288 2.856h-6.552zm10.737 3.432c.072 2.664 2.328 4.2 5.616 4.2 2.976 0 5.208-1.488 5.208-3.84 0-2.736-2.28-3.312-5.088-3.648-1.776-.192-2.952-.336-2.952-1.488 0-.984 1.008-1.608 2.544-1.608s2.592.792 2.736 1.92H292c-.168-2.52-2.304-3.912-5.328-3.912-2.952-.024-5.04 1.488-5.04 3.816 0 2.544 2.208 3.144 5.016 3.48 1.896.24 3.024.336 3.024 1.656 0 .984-1.056 1.608-2.664 1.608-1.872 0-2.976-.912-3.072-2.184h-2.544z" fill="#000"/></svg>