<svg width="143" height="29" viewBox="0 0 143 29" fill="none" xmlns="http://www.w3.org/2000/svg"><rect width="143" height="29" rx="14.5" fill="#000"/><path d="M23.088 20h1.392v-4.896h4.608v-1.28H24.48V10.08h5.568V8.8h-6.96V20zm8.933-9.536c.48 0 .848-.352.848-.848a.824.824 0 00-.848-.848.824.824 0 00-.848.848c0 .496.368.848.848.848zM31.35 20h1.312v-8.16H31.35V20zm7.11-8.256c-1.377 0-2.209.576-2.689 1.2l-.176-1.104h-1.136V20h1.313v-4.08c0-1.84.928-2.976 2.463-2.976 1.424 0 2.209.896 2.209 2.592V20h1.312v-4.544c0-2.704-1.457-3.712-3.297-3.712zm11.306 1.344c-.495-.784-1.423-1.344-2.8-1.344-2.256 0-3.92 1.68-3.92 4.176 0 2.656 1.664 4.176 3.92 4.176 1.377 0 2.256-.656 2.8-1.408L49.942 20h1.136V8.8h-1.311v4.288zm-2.672 5.84c-1.616 0-2.704-1.232-2.704-3.008s1.088-3.008 2.704-3.008c1.6 0 2.688 1.248 2.688 3.04 0 1.744-1.087 2.976-2.688 2.976zm13.72 1.168c2.383 0 4.047-1.696 4.047-4.176 0-2.48-1.664-4.176-4.048-4.176-2.384 0-4.048 1.696-4.048 4.176 0 2.48 1.664 4.176 4.048 4.176zm0-1.168c-1.617 0-2.705-1.264-2.705-3.008s1.088-3.008 2.704-3.008 2.704 1.264 2.704 3.008-1.088 3.008-2.704 3.008zm11.264-3.008c0 1.84-.896 2.976-2.384 2.976-1.36 0-2.128-.896-2.128-2.592V11.84h-1.312v4.544c0 2.704 1.424 3.712 3.216 3.712 1.344 0 2.128-.576 2.608-1.184L72.253 20h1.136v-8.16h-1.312v4.08zm3.74 1.952c0 1.44.56 2.128 2.128 2.128h1.424v-1.2h-1.296c-.704 0-.944-.256-.944-.944V13.04h2.111v-1.2H77.13V9.552h-1.313v2.288h-1.472v1.2h1.473v4.832zm17.98-6.128c-1.456 0-2.336.672-2.832 1.552-.464-1.04-1.44-1.552-2.576-1.552-1.264 0-1.952.624-2.384 1.216l-.176-1.12h-1.136V20h1.312v-4.304c0-1.632.816-2.752 2.16-2.752 1.248 0 1.968.832 1.968 2.432V20h1.312v-4.368c0-1.664.832-2.688 2.192-2.688 1.232 0 1.936.832 1.936 2.432V20h1.312v-4.704c0-2.576-1.392-3.552-3.088-3.552zm8.437 8.352c2.384 0 4.048-1.696 4.048-4.176 0-2.48-1.664-4.176-4.048-4.176-2.384 0-4.048 1.696-4.048 4.176 0 2.48 1.664 4.176 4.048 4.176zm0-1.168c-1.616 0-2.704-1.264-2.704-3.008s1.088-3.008 2.704-3.008 2.704 1.264 2.704 3.008-1.088 3.008-2.704 3.008zm9.329-7.088c-1.456 0-2.08.608-2.464 1.232l-.176-1.232h-1.136V20h1.312v-4.16c0-1.296.464-2.72 2.176-2.72h.656v-1.28h-.368zm4.796 8.256c1.888 0 3.232-1.2 3.552-2.832h-1.328c-.272 1.056-1.168 1.664-2.32 1.664-1.552 0-2.528-1.088-2.576-2.64v-.112h6.336c.016-.192.032-.384.032-.56-.064-2.416-1.568-3.872-3.872-3.872s-3.872 1.696-3.872 4.176c0 2.496 1.6 4.176 4.048 4.176zm-2.592-5.008c.128-1.328 1.232-2.192 2.432-2.192 1.36 0 2.32.784 2.448 2.192h-4.88z" fill="#fff"/></svg>