<svg width="288" height="36" viewBox="0 0 288 36" fill="none" xmlns="http://www.w3.org/2000/svg"><path d="M1.224 12.5h.901V2.147L6.579 12.5h.833l4.454-10.353V12.5h.901V.6h-1.156l-4.59 10.659L2.397.6H1.224v11.9zm21.373-.799c-.51 0-.765-.17-.765-.833V6.856c0-1.972-1.207-3.077-3.366-3.077-1.972 0-3.28.952-3.502 2.516h.867c.221-1.054 1.14-1.751 2.601-1.751 1.615 0 2.533.85 2.533 2.278v.748h-2.924c-2.21 0-3.4.952-3.4 2.567 0 1.53 1.207 2.465 3.043 2.465 1.751 0 2.788-.799 3.315-1.87v.306c-.034 1.02.391 1.462 1.411 1.462h.51v-.799h-.323zm-1.632-2.686c0 1.649-1.173 2.839-3.213 2.839-1.377 0-2.227-.697-2.227-1.768 0-1.139.85-1.768 2.448-1.768h2.992v.697zm3.642-6.953c.34 0 .612-.255.612-.612a.599.599 0 00-.612-.612.599.599 0 00-.612.612c0 .357.272.612.612.612zM21.972 15.9h1.054c1.445 0 2.023-.629 2.023-2.006V3.881h-.867v10.03c0 .85-.323 1.19-1.19 1.19h-1.02v.799zm8.92-3.298c2.432 0 4.149-1.802 4.149-4.42 0-2.601-1.717-4.403-4.148-4.403-2.431 0-4.131 1.802-4.131 4.403 0 2.618 1.7 4.42 4.13 4.42zm0-.782c-1.92 0-3.247-1.496-3.247-3.638 0-2.125 1.326-3.638 3.247-3.638 1.921 0 3.247 1.513 3.247 3.638 0 2.142-1.326 3.638-3.247 3.638zm9.39-7.939c-1.598 0-2.278.765-2.635 1.717l-.136-1.717h-.748V12.5h.867V8.131c0-1.751.46-3.417 2.482-3.417h.63v-.833h-.46zm1.137 5.967c.068 1.785 1.513 2.754 3.672 2.754 1.853 0 3.349-.935 3.349-2.465 0-1.819-1.598-2.176-3.451-2.431-1.343-.187-2.533-.34-2.533-1.547 0-.986.969-1.632 2.431-1.632 1.377 0 2.363.663 2.516 1.785h.884c-.153-1.683-1.53-2.533-3.4-2.533-1.921-.017-3.298.969-3.298 2.448 0 1.734 1.598 2.057 3.366 2.295 1.445.204 2.618.391 2.618 1.666 0 1.02-1.071 1.666-2.482 1.666-1.649 0-2.72-.765-2.788-2.006h-.884zM53.69 4.68h1.632v7.82h.867V4.68h2.584v-.799H56.19V2.589c0-.85.323-1.19 1.19-1.19h1.411V.6h-1.445c-1.445 0-2.023.629-2.023 2.006v1.275H53.69v.799zm9.652-.799c-1.598 0-2.278.765-2.635 1.717l-.136-1.717h-.748V12.5h.867V8.131c0-1.751.459-3.417 2.482-3.417h.629v-.833h-.46zm4.937 8.721c2.431 0 4.148-1.802 4.148-4.42 0-2.601-1.717-4.403-4.148-4.403-2.43 0-4.13 1.802-4.13 4.403 0 2.618 1.7 4.42 4.13 4.42zm0-.782c-1.92 0-3.247-1.496-3.247-3.638 0-2.125 1.326-3.638 3.247-3.638 1.921 0 3.247 1.513 3.247 3.638 0 2.142-1.326 3.638-3.247 3.638zm15.493-8.041c-1.581 0-2.601.884-3.094 2.159-.408-1.428-1.48-2.159-2.84-2.159-1.478 0-2.362.867-2.804 1.938l-.136-1.836h-.748V12.5h.867V8.114c0-2.108 1.02-3.536 2.669-3.536 1.496 0 2.43 1.054 2.43 3.043V12.5h.868V7.808c.05-1.972 1.07-3.23 2.686-3.23 1.496 0 2.397 1.003 2.397 2.958V12.5h.884V7.502c0-2.601-1.377-3.723-3.18-3.723zm9.481 3.043c0 3.485 1.718 5.78 4.302 5.78 2.55 0 4.284-2.295 4.284-5.78v-.544c0-3.383-1.734-5.78-4.284-5.78-2.585 0-4.302 2.397-4.302 5.78v.544zm7.685-.034c0 3.026-1.344 4.998-3.383 4.998-2.058 0-3.4-1.972-3.4-4.998v-.476c0-3.026 1.343-4.998 3.4-4.998 2.04 0 3.383 1.972 3.383 4.998v.476zm1.781 5.151c0 .391.272.646.646.646s.646-.255.646-.646-.272-.629-.646-.629-.646.238-.646.629zm6.536-7.327c-1.258 0-2.38.442-3.094 1.445l.323-4.641h5.899V.6h-6.698l-.425 6.647.85.034c.51-1.394 1.938-1.87 3.026-1.87 1.904 0 3.077 1.343 3.077 3.179 0 2.108-1.513 3.196-3.145 3.196-1.938 0-3.06-1.292-3.196-2.839h-.884c.136 1.972 1.564 3.638 4.08 3.638 2.142 0 4.046-1.394 4.046-4.012 0-2.312-1.547-3.961-3.859-3.961zm9.634-.833c-1.615 0-2.737.867-3.281 2.074l-.136-1.972h-.748V15.9h.867v-5.389c.493 1.258 1.666 2.091 3.298 2.091 2.363 0 4.063-1.802 4.063-4.42 0-2.703-1.7-4.403-4.063-4.403zm-.068 8.041c-1.921 0-3.247-1.496-3.247-3.655 0-2.108 1.326-3.621 3.247-3.621 1.921 0 3.247 1.513 3.247 3.638 0 2.142-1.326 3.638-3.247 3.638zm6.361-1.326c0 1.377.561 2.006 2.023 2.006h1.258v-.799h-1.19c-.901 0-1.224-.34-1.224-1.224V4.68h2.329v-.799h-2.329V1.467h-.867v2.414h-1.632v.799h1.632v5.814zm4.209-.646c.068 1.785 1.513 2.754 3.672 2.754 1.853 0 3.349-.935 3.349-2.465 0-1.819-1.598-2.176-3.451-2.431-1.343-.187-2.533-.34-2.533-1.547 0-.986.969-1.632 2.431-1.632 1.377 0 2.363.663 2.516 1.785h.884c-.153-1.683-1.53-2.533-3.4-2.533-1.921-.017-3.298.969-3.298 2.448 0 1.734 1.598 2.057 3.366 2.295 1.445.204 2.618.391 2.618 1.666 0 1.02-1.071 1.666-2.482 1.666-1.649 0-2.72-.765-2.788-2.006h-.884zm15.348 2.652h.935l2.55-7.242 2.431 7.242h.935l3.06-8.619h-.884l-2.652 7.582-2.465-7.582h-.799l-2.601 7.582-2.516-7.582h-.918l2.924 8.619zm11.566-10.438c.34 0 .612-.255.612-.612a.599.599 0 00-.612-.612.599.599 0 00-.612.612c0 .357.272.612.612.612zm-.442 10.438h.867V3.881h-.867V12.5zm3.551-2.006c0 1.377.561 2.006 2.023 2.006h1.258v-.799h-1.19c-.901 0-1.224-.34-1.224-1.224V4.68h2.329v-.799h-2.329V1.467h-.867v2.414h-1.632v.799h1.632v5.814zm8.578-6.715c-1.615 0-2.618.901-3.111 2.142V.6h-.867v11.9h.867V8.25c0-2.244 1.139-3.672 2.975-3.672 1.649 0 2.669 1.088 2.669 3.128V12.5h.867V7.672c0-2.72-1.445-3.893-3.4-3.893zm9.918 8.721h.867V.6h-.867v11.9zm6.713.102c2.431 0 4.148-1.802 4.148-4.42 0-2.601-1.717-4.403-4.148-4.403-2.431 0-4.131 1.802-4.131 4.403 0 2.618 1.7 4.42 4.131 4.42zm0-.782c-1.921 0-3.247-1.496-3.247-3.638 0-2.125 1.326-3.638 3.247-3.638 1.921 0 3.247 1.513 3.247 3.638 0 2.142-1.326 3.638-3.247 3.638zm7.696.68h.935l2.55-7.242 2.431 7.242h.935l3.06-8.619h-.884l-2.652 7.582-2.465-7.582h-.799l-2.601 7.582-2.516-7.582h-.918l2.924 8.619zm14.666.102c1.887 0 3.332-1.224 3.706-2.958h-.884c-.34 1.343-1.479 2.176-2.89 2.176-1.921 0-3.128-1.462-3.162-3.468v-.153h7.038c0-.119.017-.255.017-.357-.085-2.567-1.666-4.063-3.978-4.063-2.363 0-3.978 1.802-3.978 4.352 0 2.703 1.683 4.471 4.131 4.471zm-3.162-5.134c.136-1.751 1.445-2.924 3.026-2.924 1.683 0 2.89 1.037 3.026 2.924h-6.052zm12.22-3.587c-1.598 0-2.278.765-2.635 1.717l-.136-1.717h-.748V12.5h.867V8.131c0-1.751.459-3.417 2.482-3.417h.629v-.833h-.459zm15.948-.102c-1.581 0-2.601.884-3.094 2.159-.408-1.428-1.479-2.159-2.839-2.159-1.479 0-2.363.867-2.805 1.938l-.136-1.836h-.748V12.5h.867V8.114c0-2.108 1.02-3.536 2.669-3.536 1.496 0 2.431 1.054 2.431 3.043V12.5h.867V7.808c.051-1.972 1.071-3.23 2.686-3.23 1.496 0 2.397 1.003 2.397 2.958V12.5h.884V7.502c0-2.601-1.377-3.723-3.179-3.723zm12.685 7.922c-.51 0-.765-.17-.765-.833V6.856c0-1.972-1.207-3.077-3.366-3.077-1.972 0-3.281.952-3.502 2.516h.867c.221-1.054 1.139-1.751 2.601-1.751 1.615 0 2.533.85 2.533 2.278v.748h-2.924c-2.21 0-3.4.952-3.4 2.567 0 1.53 1.207 2.465 3.043 2.465 1.751 0 2.788-.799 3.315-1.87v.306c-.034 1.02.391 1.462 1.411 1.462h.51v-.799h-.323zm-1.632-2.686c0 1.649-1.173 2.839-3.213 2.839-1.377 0-2.227-.697-2.227-1.768 0-1.139.85-1.768 2.448-1.768h2.992v.697zm6.634-5.134c-1.598 0-2.278.765-2.635 1.717l-.136-1.717h-.748V12.5h.867V8.131c0-1.751.459-3.417 2.482-3.417h.629v-.833h-.459zm8.15 2.006c-.527-1.275-1.683-2.108-3.281-2.108-2.363 0-4.063 1.785-4.063 4.403 0 2.72 1.7 4.42 4.063 4.42 1.615 0 2.754-.85 3.298-2.193v1.53c0 2.295-1.088 3.281-3.162 3.281-1.615 0-2.737-.731-3.009-2.04h-.901c.272 1.836 1.751 2.822 3.842 2.822 2.788 0 4.097-1.326 4.097-4.029V3.881h-.748l-.136 2.006zm-3.213 5.933c-1.921 0-3.247-1.496-3.247-3.638s1.326-3.638 3.247-3.638c1.921 0 3.247 1.496 3.247 3.655 0 2.125-1.326 3.621-3.247 3.621zm6.578-9.758c.34 0 .612-.255.612-.612a.599.599 0 00-.612-.612.599.599 0 00-.612.612c0 .357.272.612.612.612zm-.442 10.438h.867V3.881h-.867V12.5zm6.884-8.721c-1.581 0-2.601.816-3.094 1.938l-.136-1.836h-.748V12.5h.867V8.25c0-2.244 1.139-3.672 2.975-3.672 1.666 0 2.669 1.088 2.669 3.128V12.5h.867V7.672c0-2.72-1.445-3.893-3.4-3.893zm19.2 7.939c-.476 0-.816-.102-1.173-.544l-.85-.986 2.703-4.114h-.918l-2.312 3.485-2.652-3.111-.102-.119c2.278-.952 3.094-2.04 3.094-3.366 0-1.411-1.105-2.465-2.601-2.465-1.768 0-3.077 1.173-3.077 2.737 0 1.088.374 1.768 1.292 2.89-2.074.884-2.907 2.108-2.907 3.451 0 1.955 1.547 3.026 3.485 3.026 1.326 0 2.482-.595 3.451-1.734l.833.986c.408.493.969.646 1.615.646h1.19v-.782h-1.071zm-4.879-10.472c1.054 0 1.785.731 1.785 1.734 0 1.156-.799 1.989-2.669 2.805-.867-1.037-1.224-1.632-1.224-2.567 0-1.139.867-1.972 2.108-1.972zm-1.122 10.574c-1.496 0-2.618-.85-2.618-2.312 0-1.241.697-2.006 2.465-2.856l.255.289 2.822 3.332c-.799 1.003-1.802 1.547-2.924 1.547zM.357 32.5h7.939v-.816H1.581l3.961-3.57c1.377-1.241 2.601-2.38 2.601-4.182 0-2.091-1.445-3.434-3.859-3.434-2.312 0-3.808 1.496-3.808 3.74v.289h.884v-.238c0-1.853 1.139-2.992 2.924-2.992 1.802 0 2.958 1.003 2.958 2.686 0 1.496-1.139 2.533-2.261 3.553L.357 31.735v.765zm8.43-3.128h6.359V32.5h.884v-3.128h1.955v-.816H16.03V20.6h-.986l-6.256 7.973v.799zm6.359-7.667v6.851H9.79l5.355-6.851zm4.022 13.005l4.811-14.62h-.867l-4.81 14.62h.866zm9.819-10.098c-1.258 0-2.38.442-3.094 1.445l.323-4.641h5.899V20.6h-6.698l-.425 6.647.85.034c.51-1.394 1.938-1.87 3.026-1.87 1.904 0 3.077 1.343 3.077 3.179 0 2.108-1.513 3.196-3.145 3.196-1.938 0-3.06-1.292-3.196-2.839h-.884c.136 1.972 1.564 3.638 4.08 3.638 2.142 0 4.046-1.394 4.046-4.012 0-2.312-1.547-3.961-3.86-3.961zm10.05 7.888h.868V20.6h-.867v11.9zm3.348-10.438c.34 0 .612-.255.612-.612a.599.599 0 00-.612-.612.599.599 0 00-.612.612c0 .357.272.612.612.612zM41.943 32.5h.867v-8.619h-.867V32.5zm5.404 0h1.037l3.366-8.619h-.9l-2.959 7.616-2.975-7.616h-.935l3.366 8.619zm9.029.102c1.887 0 3.332-1.224 3.706-2.958h-.884c-.34 1.343-1.48 2.176-2.89 2.176-1.921 0-3.128-1.462-3.162-3.468v-.153h7.038c0-.119.017-.255.017-.357-.085-2.567-1.666-4.063-3.978-4.063-2.363 0-3.978 1.802-3.978 4.352 0 2.703 1.683 4.471 4.13 4.471zm-3.162-5.134c.136-1.751 1.445-2.924 3.026-2.924 1.683 0 2.89 1.037 3.026 2.924h-6.052zm12.892 2.38c.068 1.785 1.513 2.754 3.672 2.754 1.853 0 3.349-.935 3.349-2.465 0-1.819-1.598-2.176-3.451-2.431-1.343-.187-2.533-.34-2.533-1.547 0-.986.969-1.632 2.43-1.632 1.378 0 2.364.663 2.517 1.785h.884c-.153-1.683-1.53-2.533-3.4-2.533-1.921-.017-3.298.969-3.298 2.448 0 1.734 1.598 2.057 3.366 2.295 1.445.204 2.618.391 2.618 1.666 0 1.02-1.071 1.666-2.482 1.666-1.65 0-2.72-.765-2.788-2.006h-.884zm14.93-1.734c0 2.261-1.121 3.689-2.906 3.689-1.598 0-2.584-1.088-2.584-3.145v-4.777h-.867v4.828c0 2.703 1.41 3.893 3.315 3.893 1.53 0 2.533-.816 3.026-1.921l.119 1.819h.765v-8.619h-.867v4.233zm7.074-4.335c-1.615 0-2.737.867-3.281 2.074l-.136-1.972h-.748V35.9h.867v-5.389c.493 1.258 1.666 2.091 3.298 2.091 2.363 0 4.063-1.802 4.063-4.42 0-2.703-1.7-4.403-4.063-4.403zm-.068 8.041c-1.921 0-3.247-1.496-3.247-3.655 0-2.108 1.326-3.621 3.247-3.621 1.92 0 3.247 1.513 3.247 3.638 0 2.142-1.326 3.638-3.247 3.638zm10.012-8.041c-1.615 0-2.737.867-3.28 2.074l-.137-1.972h-.748V35.9h.867v-5.389c.493 1.258 1.666 2.091 3.298 2.091 2.363 0 4.063-1.802 4.063-4.42 0-2.703-1.7-4.403-4.063-4.403zm-.068 8.041c-1.92 0-3.247-1.496-3.247-3.655 0-2.108 1.326-3.621 3.247-3.621 1.921 0 3.247 1.513 3.247 3.638 0 2.142-1.326 3.638-3.247 3.638zm9.655.782c2.431 0 4.148-1.802 4.148-4.42 0-2.601-1.717-4.403-4.148-4.403-2.431 0-4.131 1.802-4.131 4.403 0 2.618 1.7 4.42 4.131 4.42zm0-.782c-1.921 0-3.247-1.496-3.247-3.638 0-2.125 1.326-3.638 3.247-3.638 1.921 0 3.247 1.513 3.247 3.638 0 2.142-1.326 3.638-3.247 3.638zm9.39-7.939c-1.598 0-2.278.765-2.635 1.717l-.136-1.717h-.748V32.5h.867v-4.369c0-1.751.459-3.417 2.482-3.417h.629v-.833h-.459zm2.622 6.613c0 1.377.561 2.006 2.023 2.006h1.258v-.799h-1.19c-.901 0-1.224-.34-1.224-1.224V24.68h2.329v-.799h-2.329v-2.414h-.867v2.414h-1.632v.799h1.632v5.814z" fill="#000"/></svg>