<svg width="209" height="57" viewBox="0 0 209 57" fill="none" xmlns="http://www.w3.org/2000/svg"><path d="M.56 3.256h6.048V20h3.22V3.256h6.048V.4H.56v2.856zm18.734.392c1.035 0 1.848-.756 1.848-1.82s-.813-1.82-1.848-1.82c-1.037 0-1.849.756-1.849 1.82s.813 1.82 1.849 1.82zM17.754 20h3.023V5.664h-3.024V20zm22.48-14.504c-2.352 0-3.976 1.036-4.9 2.604-.868-1.848-2.548-2.604-4.424-2.604-2.156.028-3.388.98-4.2 2.044l-.336-1.876h-2.632V20h3.024v-7.672c0-2.548 1.288-4.228 3.36-4.228 1.988 0 3.024 1.316 3.024 3.836V20h3.052v-7.756c0-2.576 1.316-4.144 3.388-4.144 1.96 0 2.996 1.316 2.996 3.836V20h3.024v-8.26c0-4.536-2.408-6.244-5.376-6.244zm14.812 14.672c3.556 0 5.964-2.156 6.468-4.984H58.49c-.42 1.596-1.764 2.52-3.612 2.52-2.38 0-3.92-1.596-4.004-4.032v-.196h10.808c.056-.392.084-.784.084-1.148-.084-4.2-2.856-6.832-7-6.832-4.228 0-7.056 2.94-7.056 7.364 0 4.396 2.828 7.308 7.336 7.308zm-4.06-8.904c.224-2.044 1.876-3.332 3.808-3.332 2.1 0 3.584 1.204 3.836 3.332h-7.644zm21.425 4.844c0 2.604 1.176 3.892 3.92 3.892h2.8v-2.66h-2.128c-1.148 0-1.54-.42-1.54-1.54V8.324h3.5v-2.66h-3.5V1.66H72.41v4.004h-2.492v2.66h2.492v7.784zm15.118 4.06c4.368 0 7.309-2.94 7.309-7.336 0-4.368-2.94-7.336-7.308-7.336s-7.308 2.968-7.308 7.336c0 4.396 2.94 7.336 7.308 7.336zm0-2.576c-2.547 0-4.2-1.988-4.2-4.76s1.653-4.76 4.2-4.76c2.549 0 4.228 1.988 4.228 4.76s-1.68 4.76-4.228 4.76zm17.94-1.484c0 2.604 1.176 3.892 3.92 3.892h2.8v-2.66h-2.128c-1.148 0-1.54-.42-1.54-1.54V8.324h3.5v-2.66h-3.5V1.66h-3.052v4.004h-2.492v2.66h2.492v7.784zm15.896-10.444c-2.352 0-3.5.952-4.228 2.156l-.336-2.156h-2.688V20h3.024v-7.196c0-2.212.868-4.312 3.556-4.312h1.344V5.664h-.672zm15.203 11.704c-.616 0-.924-.196-.924-.924v-5.74c0-3.388-2.184-5.208-5.992-5.208-3.612 0-6.02 1.736-6.328 4.536h2.968c.224-1.26 1.428-2.1 3.22-2.1 1.988 0 3.136.98 3.136 2.576v.868h-3.612c-4.004 0-6.132 1.652-6.132 4.592 0 2.66 2.184 4.2 5.32 4.2 2.324 0 3.78-1.008 4.732-2.464 0 1.428.672 2.296 2.632 2.296h1.596v-2.632h-.616zm-3.92-3.248c-.028 2.212-1.484 3.696-4.004 3.696-1.652 0-2.66-.84-2.66-2.044 0-1.456 1.036-2.156 2.912-2.156h3.752v.504zm16.966-6.468c-.924-1.26-2.464-2.156-4.648-2.156-3.892 0-6.776 2.912-6.776 7.336 0 4.592 2.884 7.336 6.776 7.336 2.268 0 3.752-1.064 4.676-2.324l.364 2.156h2.632V.4h-3.024v7.252zm-4.144 9.968c-2.52 0-4.172-1.96-4.172-4.788 0-2.8 1.652-4.76 4.172-4.76 2.52 0 4.172 1.96 4.172 4.816 0 2.772-1.652 4.732-4.172 4.732zm16.927 2.548c3.556 0 5.964-2.156 6.468-4.984h-3.024c-.42 1.596-1.764 2.52-3.612 2.52-2.38 0-3.92-1.596-4.004-4.032v-.196h10.808c.056-.392.084-.784.084-1.148-.084-4.2-2.856-6.832-7-6.832-4.228 0-7.056 2.94-7.056 7.364 0 4.396 2.828 7.308 7.336 7.308zm-4.06-8.904c.224-2.044 1.876-3.332 3.808-3.332 2.1 0 3.584 1.204 3.836 3.332h-7.644zm27.165 8.904c4.368 0 7.308-2.94 7.308-7.336 0-4.368-2.94-7.336-7.308-7.336s-7.308 2.968-7.308 7.336c0 4.396 2.94 7.336 7.308 7.336zm0-2.576c-2.548 0-4.2-1.988-4.2-4.76s1.652-4.76 4.2-4.76 4.228 1.988 4.228 4.76-1.68 4.76-4.228 4.76zm17.3-12.096c-2.324 0-3.696.924-4.592 2.044l-.336-1.876h-2.632V20h3.024v-7.224c0-2.912 1.428-4.676 3.836-4.676 2.268 0 3.416 1.456 3.416 4.172V20h3.052v-7.98c0-4.788-2.604-6.524-5.768-6.524zM1.792 51H4.9V36.58L10.78 51h2.716l5.88-14.42V51h3.108V31.4h-4.088l-6.16 15.428L5.964 31.4H1.792V51zm30.777.168c3.556 0 5.964-2.156 6.468-4.984h-3.024c-.42 1.596-1.764 2.52-3.612 2.52-2.38 0-3.92-1.596-4.004-4.032v-.196h10.808c.056-.392.084-.784.084-1.148-.084-4.2-2.856-6.832-7-6.832-4.228 0-7.056 2.94-7.056 7.364 0 4.396 2.828 7.308 7.336 7.308zm-4.06-8.904c.224-2.044 1.876-3.332 3.808-3.332 2.1 0 3.584 1.204 3.836 3.332H28.51zm14.152 4.844c0 2.604 1.176 3.892 3.92 3.892h2.8v-2.66h-2.128c-1.148 0-1.54-.42-1.54-1.54v-7.476h3.5v-2.66h-3.5V32.66H42.66v4.004h-2.492v2.66h2.492v7.784zm21.583 1.26c-.616 0-.924-.196-.924-.924v-5.74c0-3.388-2.184-5.208-5.992-5.208-3.612 0-6.02 1.736-6.328 4.536h2.968c.224-1.26 1.428-2.1 3.22-2.1 1.988 0 3.136.98 3.136 2.576v.868h-3.612c-4.004 0-6.132 1.652-6.132 4.592 0 2.66 2.184 4.2 5.32 4.2 2.324 0 3.78-1.008 4.732-2.464 0 1.428.672 2.296 2.632 2.296h1.596v-2.632h-.616zm-3.92-3.248c-.028 2.212-1.484 3.696-4.004 3.696-1.652 0-2.66-.84-2.66-2.044 0-1.456 1.036-2.156 2.912-2.156h3.752v.504zM77.536 51h3.695l5.293-14.336h-3.192L79.44 47.752l-3.948-11.088h-3.249L77.537 51zm16.638.168c4.368 0 7.308-2.94 7.308-7.336 0-4.368-2.94-7.336-7.308-7.336s-7.308 2.968-7.308 7.336c0 4.396 2.94 7.336 7.308 7.336zm0-2.576c-2.548 0-4.2-1.988-4.2-4.76s1.652-4.76 4.2-4.76 4.228 1.988 4.228 4.76-1.68 4.76-4.228 4.76zm9.74 2.408h3.024V31.4h-3.024V51zm19.092-2.632c-.616 0-.924-.196-.924-.924v-5.74c0-3.388-2.184-5.208-5.992-5.208-3.612 0-6.02 1.736-6.328 4.536h2.968c.224-1.26 1.428-2.1 3.22-2.1 1.988 0 3.136.98 3.136 2.576v.868h-3.612c-4.004 0-6.132 1.652-6.132 4.592 0 2.66 2.184 4.2 5.32 4.2 2.324 0 3.78-1.008 4.732-2.464 0 1.428.672 2.296 2.632 2.296h1.596v-2.632h-.616zm-3.92-3.248c-.028 2.212-1.484 3.696-4.004 3.696-1.652 0-2.66-.84-2.66-2.044 0-1.456 1.036-2.156 2.912-2.156h3.752v.504zm7.219 1.988c0 2.604 1.176 3.892 3.92 3.892h2.8v-2.66h-2.128c-1.148 0-1.54-.42-1.54-1.54v-7.476h3.5v-2.66h-3.5V32.66h-3.052v4.004h-2.492v2.66h2.492v7.784zm10.184-12.46c1.036 0 1.848-.756 1.848-1.82s-.812-1.82-1.848-1.82-1.848.756-1.848 1.82.812 1.82 1.848 1.82zM134.949 51h3.024V36.664h-3.024V51zm5.988 0h3.024V31.4h-3.024V51zm7.528-16.352c1.036 0 1.848-.756 1.848-1.82s-.812-1.82-1.848-1.82-1.848.756-1.848 1.82.812 1.82 1.848 1.82zM146.925 51h3.024V36.664h-3.024V51zm7.025-3.892c0 2.604 1.176 3.892 3.92 3.892h2.8v-2.66h-2.128c-1.148 0-1.54-.42-1.54-1.54v-7.476h3.5v-2.66h-3.5V32.66h-3.052v4.004h-2.492v2.66h2.492v7.784zm12.787 3.976l-.56 1.4c-.448 1.176-.728 1.456-1.904 1.456h-2.128v2.66h3.248c2.1 0 2.716-1.036 3.612-3.36l6.496-16.576h-3.22l-3.892 10.892-4.004-10.892h-3.22l5.572 14.42zm13.139-13.272c0-2.324 1.4-3.892 3.556-3.892 1.876 0 3.136 1.12 3.136 2.716 0 1.344-.728 2.24-1.988 3.08-1.68 1.092-2.996 2.016-2.996 4.284v.896h2.856v-.56c0-1.4.952-2.128 2.464-3.164 1.456-1.036 2.8-2.268 2.8-4.844 0-2.94-2.408-5.096-6.3-5.096-4.172 0-6.608 2.94-6.608 6.58h3.08zm1.288 11.48c0 1.12.84 1.876 1.932 1.876S185 50.412 185 49.292c0-1.12-.812-1.876-1.904-1.876-1.092 0-1.932.756-1.932 1.876z" fill="#000"/></svg>