<svg width="226" height="25" viewBox="0 0 226 25" fill="none" xmlns="http://www.w3.org/2000/svg"><rect x="1" y="1.463" width="224" height="23" rx="11.5" fill="#fff"/><circle cx="17.533" cy="12.963" r="4.889" fill="#4FC706"/><path d="M25.948 16.463h1.979v-2.324h1.065l1.108 2.324h2.173l-1.366-2.808c.677-.441 1.118-1.194 1.118-2.119 0-1.581-1.172-2.603-2.904-2.603h-3.173v7.53zm3.012-5.917c.645 0 1.043.377 1.043.99s-.398.99-1.043.99h-1.033v-1.98h1.033zm4.015 5.917h5.314v-1.679h-3.334v-1.312h2.57v-1.57h-2.57V10.61h3.216V8.933h-5.196v7.53zm6.23 0h1.979v-2.324h1.183c1.71 0 2.85-1.022 2.85-2.603 0-1.581-1.14-2.603-2.85-2.603h-3.162v7.53zm2.98-5.917c.623 0 1.021.377 1.021.99s-.398.99-1.022.99h-1v-1.98h1zm11.172 2.152c0-2.184-1.538-3.83-3.808-3.83-2.27 0-3.807 1.646-3.807 3.83 0 2.183 1.538 3.83 3.807 3.83 2.27 0 3.808-1.647 3.808-3.83zm-5.593 0c0-1.259.688-2.195 1.785-2.195 1.098 0 1.786.936 1.786 2.195 0 1.258-.688 2.194-1.786 2.194-1.097 0-1.785-.936-1.785-2.194zm6.462 3.765h1.98v-2.324h1.064l1.108 2.324h2.173l-1.366-2.808c.677-.441 1.118-1.194 1.118-2.119 0-1.581-1.172-2.603-2.904-2.603h-3.173v7.53zm3.012-5.917c.645 0 1.043.377 1.043.99s-.398.99-1.043.99h-1.033v-1.98h1.033zm3.366.065h2.033v5.852h1.98V10.61h2.032V8.933h-6.045v1.678zm6.2 3.367c0 1.56 1.258 2.55 3.205 2.55 1.86 0 3.066-1.001 3.076-2.464.011-1.55-1.065-1.926-2.388-2.184-1.312-.258-1.731-.355-1.731-.807 0-.462.408-.677.946-.677.667 0 1.033.376 1.076.882h1.925c0-1.485-1.172-2.41-3-2.41-1.797 0-2.938.99-2.938 2.356 0 1.57 1.044 1.969 2.346 2.237 1.323.27 1.774.366 1.774.829 0 .484-.451.72-1.054.72-.807 0-1.27-.42-1.312-.99l-1.926-.042zm9.557-4.185h2.441v6.67h.936v-6.67h2.442v-.86h-5.82v.86zm9.326 1.12c-.925 0-1.484.45-1.807.967V8.933h-.882v7.53h.882V13.72c0-1.237.635-2.001 1.657-2.001.946 0 1.495.602 1.495 1.742v3.002h.882v-3.055c0-1.818-1-2.496-2.227-2.496zm7.191 2.807c0 1.237-.602 2-1.602 2-.915 0-1.43-.602-1.43-1.742v-3.001h-.883v3.055c0 1.817.957 2.495 2.162 2.495.904 0 1.43-.387 1.753-.796l.119.732h.763v-5.486h-.882v2.743zm4.623-2.743c-.978 0-1.398.408-1.656.828l-.118-.828h-.764v5.486h.882v-2.797c0-.872.312-1.829 1.463-1.829h.44v-.86h-.247zm.671 3.678c.022 1.205 1 1.872 2.42 1.872 1.216 0 2.195-.635 2.195-1.656 0-1.216-1.001-1.453-2.249-1.603-.796-.097-1.376-.172-1.376-.775 0-.505.516-.828 1.28-.828.753 0 1.269.42 1.333.979h.904c-.086-1.14-.99-1.721-2.237-1.732-1.237-.01-2.152.645-2.152 1.646 0 1.14.98 1.387 2.205 1.538.818.097 1.42.15 1.42.84 0 .505-.548.838-1.323.838-.914 0-1.484-.473-1.516-1.119h-.904zm9.918-2.84c-.334-.526-.958-.903-1.883-.903-1.516 0-2.635 1.13-2.635 2.808 0 1.785 1.119 2.807 2.635 2.807.925 0 1.517-.44 1.883-.947l.118.883h.764v-7.53h-.882v2.883zm-1.797 3.927c-1.086 0-1.817-.828-1.817-2.022s.731-2.023 1.817-2.023c1.076 0 1.808.84 1.808 2.044 0 1.173-.732 2-1.808 2zm8.732-.086c-.248 0-.355-.075-.355-.366v-2.399c0-1.28-.807-1.979-2.205-1.979-1.323 0-2.195.635-2.324 1.71h.882c.108-.559.624-.925 1.399-.925.86 0 1.366.43 1.366 1.14v.377h-1.614c-1.441 0-2.205.613-2.205 1.71 0 1 .818 1.603 2.022 1.603.947 0 1.495-.42 1.84-.914.01.538.258.85.989.85h.484v-.807h-.279zm-1.237-1.43c0 .913-.635 1.548-1.732 1.548-.732 0-1.194-.366-1.194-.903 0-.624.441-.915 1.226-.915h1.7v.27zm3.587 2.269l-.269.667c-.204.516-.291.645-.796.645h-.785v.807h1.054c.774 0 .979-.344 1.323-1.226l2.528-6.411h-.936l-1.635 4.378-1.689-4.378h-.936l2.141 5.518zm7.012-.032l.796-2.034h3.281l.796 2.034h1l-2.861-7.53h-1.108l-2.872 7.53h.968zm2.431-6.508l1.366 3.625h-2.721l1.355-3.625zm6.929.957c-.925 0-1.516.441-1.882.947l-.118-.882h-.764v7.637h.882v-2.99c.333.527.957.903 1.882.903 1.517 0 2.636-1.13 2.636-2.807 0-1.786-1.119-2.808-2.636-2.808zm-.086 4.83c-1.075 0-1.807-.84-1.807-2.044 0-1.172.732-2 1.807-2 1.087 0 1.818.828 1.818 2.022s-.731 2.022-1.818 2.022zm6.268-4.765c-.979 0-1.398.408-1.656.828l-.119-.828h-.763v5.486h.882v-2.797c0-.872.312-1.829 1.463-1.829h.441v-.86h-.248zm1.464-.925c.323 0 .57-.237.57-.57a.554.554 0 00-.57-.57.554.554 0 00-.57.57c0 .333.247.57.57.57zm-.452 6.41h.882v-5.485h-.882v5.486zm2.091 0h.882v-7.53h-.882v7.53zm4.54 0h5.184v-.828h-3.937l2.259-1.914c.893-.764 1.624-1.474 1.624-2.604 0-1.355-.946-2.248-2.57-2.248-1.517 0-2.517 1.011-2.517 2.431v.194h.903v-.14c0-1.033.645-1.678 1.614-1.678 1 0 1.645.538 1.645 1.484 0 .818-.581 1.399-1.28 2.001l-2.925 2.539v.764zm5.563-6.7h4.324l-3.689 6.7h.979l3.7-6.894v-.635h-5.314v.828zm12.386 4.011v-.742h-3.582v.742h3.582zm3.509.85h3.948v1.84h.903v-1.84h1.216v-.828h-1.216V8.933h-1.011l-3.84 4.883v.807zm3.948-4.582v3.754h-2.937l2.937-3.754zm7.679 5.615c-.247 0-.355-.075-.355-.366v-2.399c0-1.28-.807-1.979-2.205-1.979-1.323 0-2.194.635-2.324 1.71h.883c.107-.559.623-.925 1.398-.925.86 0 1.366.43 1.366 1.14v.377h-1.614c-1.441 0-2.205.613-2.205 1.71 0 1 .818 1.603 2.023 1.603.946 0 1.495-.42 1.839-.914.011.538.258.85.99.85h.484v-.807h-.28zm-1.237-1.43c0 .913-.635 1.548-1.732 1.548-.731 0-1.194-.366-1.194-.903 0-.624.441-.915 1.226-.915h1.7v.27zm8.315-3.314c-.979 0-1.57.452-1.904 1.043-.312-.699-.968-1.043-1.731-1.043-.85 0-1.313.42-1.603.818l-.119-.753h-.763v5.486h.882v-2.894c0-1.097.548-1.85 1.452-1.85.839 0 1.323.56 1.323 1.635v3.109h.882v-2.937c0-1.119.559-1.807 1.474-1.807.828 0 1.301.56 1.301 1.635v3.109h.882V13.3c0-1.732-.936-2.388-2.076-2.388zM193.586 14c.054 1.485 1.129 2.528 2.969 2.528 1.581 0 2.678-.914 2.678-2.216 0-1.463-1.258-1.871-2.485-2.076-1.129-.193-2.043-.376-2.043-1.28 0-.807.656-1.237 1.635-1.237 1.021 0 1.721.57 1.828 1.441h.968c-.086-1.355-1.118-2.29-2.796-2.29-1.528 0-2.571.86-2.571 2.14 0 1.463 1.248 1.86 2.463 2.065 1.14.194 2.065.387 2.065 1.323 0 .818-.72 1.28-1.732 1.28-1.15 0-1.936-.667-2.011-1.678h-.968zm10.094 2.528c1.291 0 2.098-.613 2.442-1.162l.064 1.098h.807v-4.077h-3.173v.86h2.259v.258c0 1.334-1 2.163-2.388 2.163-1.56 0-2.592-1.227-2.592-2.97 0-1.742 1.032-2.968 2.613-2.968 1.141 0 1.947.613 2.206 1.656h1c-.258-1.549-1.517-2.517-3.184-2.517-2.184 0-3.593 1.55-3.593 3.83 0 2.28 1.452 3.83 3.539 3.83zm3.609-6.734h2.442v6.67h.936v-6.67h2.442v-.86h-5.82v.86z" fill="#000"/><rect x="1" y="1.463" width="224" height="23" rx="11.5" stroke="#000" stroke-width=".978" stroke-miterlimit="0" stroke-linejoin="bevel"/></svg>