<svg width="160" height="28" viewBox="0 0 160 28" fill="none" xmlns="http://www.w3.org/2000/svg"><rect width="160" height="28" rx="14" fill="#000"/><path d="M23.02 19h1.305v-4.59h4.32v-1.2h-4.32V9.7h5.22V8.5H23.02V19zm12.704-3.825c0 1.725-.84 2.79-2.235 2.79-1.275 0-1.995-.84-1.995-2.43V11.35h-1.23v4.26c0 2.535 1.335 3.48 3.015 3.48 1.26 0 1.995-.54 2.445-1.11L35.89 19h1.065v-7.65h-1.23v3.825zm6.657-3.915c-1.29 0-2.07.54-2.52 1.125l-.165-1.035h-1.065V19h1.23v-3.825c0-1.725.87-2.79 2.31-2.79 1.335 0 2.07.84 2.07 2.43V19h1.23v-4.26c0-2.535-1.365-3.48-3.09-3.48zm10.6 1.26c-.465-.735-1.335-1.26-2.625-1.26-2.115 0-3.675 1.575-3.675 3.915 0 2.49 1.56 3.915 3.675 3.915 1.29 0 2.115-.615 2.625-1.32l.165 1.23h1.065V8.5h-1.23v4.02zm-2.505 5.475c-1.515 0-2.535-1.155-2.535-2.82 0-1.665 1.02-2.82 2.535-2.82 1.5 0 2.52 1.17 2.52 2.85 0 1.635-1.02 2.79-2.52 2.79zm17.872-6.735c-1.365 0-2.19.63-2.655 1.455-.435-.975-1.35-1.455-2.415-1.455-1.185 0-1.83.585-2.235 1.14l-.165-1.05h-1.065V19h1.23v-4.035c0-1.53.765-2.58 2.025-2.58 1.17 0 1.845.78 1.845 2.28V19h1.23v-4.095c0-1.56.78-2.52 2.055-2.52 1.155 0 1.815.78 1.815 2.28V19h1.23v-4.41c0-2.415-1.305-3.33-2.895-3.33zm6.414 7.785l-.375.93c-.285.72-.405.9-1.11.9h-1.095V22h1.47c1.08 0 1.365-.48 1.845-1.71l3.525-8.94h-1.305l-2.28 6.105-2.355-6.105h-1.305l2.985 7.695zm15.868-1.17c-.345 0-.495-.105-.495-.51V14.02c0-1.785-1.125-2.76-3.075-2.76-1.845 0-3.06.885-3.24 2.385h1.23c.15-.78.87-1.29 1.95-1.29 1.2 0 1.905.6 1.905 1.59v.525h-2.25c-2.01 0-3.075.855-3.075 2.385 0 1.395 1.14 2.235 2.82 2.235 1.32 0 2.085-.585 2.565-1.275.015.75.36 1.185 1.38 1.185h.675v-1.125h-.39zm-1.725-1.995c0 1.275-.885 2.16-2.415 2.16-1.02 0-1.665-.51-1.665-1.26 0-.87.615-1.275 1.71-1.275h2.37v.375zm6.408 3.21c1.86 0 3.105-1.05 3.405-2.7h-1.305c-.24.975-.99 1.605-2.085 1.605-1.47 0-2.46-1.14-2.46-2.805 0-1.665.99-2.835 2.46-2.835 1.125 0 1.875.615 2.1 1.635h1.29c-.315-1.68-1.5-2.73-3.375-2.73-2.22 0-3.735 1.59-3.735 3.93 0 2.385 1.47 3.9 3.705 3.9zm8.189 0c1.86 0 3.105-1.05 3.405-2.7h-1.305c-.24.975-.99 1.605-2.085 1.605-1.47 0-2.46-1.14-2.46-2.805 0-1.665.99-2.835 2.46-2.835 1.125 0 1.875.615 2.1 1.635h1.29c-.315-1.68-1.5-2.73-3.375-2.73-2.22 0-3.735 1.59-3.735 3.93 0 2.385 1.47 3.9 3.705 3.9zm8.278 0c2.235 0 3.795-1.59 3.795-3.915s-1.56-3.915-3.795-3.915-3.795 1.59-3.795 3.915 1.56 3.915 3.795 3.915zm0-1.095c-1.515 0-2.535-1.185-2.535-2.82 0-1.635 1.02-2.82 2.535-2.82 1.515 0 2.535 1.185 2.535 2.82 0 1.635-1.02 2.82-2.535 2.82zm10.561-2.82c0 1.725-.84 2.79-2.235 2.79-1.275 0-1.995-.84-1.995-2.43V11.35h-1.23v4.26c0 2.535 1.335 3.48 3.015 3.48 1.26 0 1.995-.54 2.445-1.11l.165 1.02h1.065v-7.65h-1.23v3.825zm6.656-3.915c-1.29 0-2.07.54-2.52 1.125l-.165-1.035h-1.065V19h1.23v-3.825c0-1.725.87-2.79 2.31-2.79 1.335 0 2.07.84 2.07 2.43V19h1.23v-4.26c0-2.535-1.365-3.48-3.09-3.48zm5.228 5.745c0 1.35.525 1.995 1.995 1.995h1.335v-1.125h-1.215c-.66 0-.885-.24-.885-.885v-4.515h1.98V11.35h-1.98V9.205h-1.23v2.145h-1.38v1.125h1.38v4.53z" fill="#fff"/></svg>