<svg width="268" height="12" viewBox="0 0 268 12" fill="none" xmlns="http://www.w3.org/2000/svg"><path d="M.32 1.932h3.456V11.5h1.84V1.932h3.456V.3H.32v1.632zm13.297 1.376c-1.344 0-2 .544-2.416 1.232l-.192-1.232H9.473V11.5h1.728V7.388c0-1.264.496-2.464 2.032-2.464h.768V3.308h-.384zm8.688 6.688c-.352 0-.528-.112-.528-.528v-3.28c0-1.936-1.248-2.976-3.424-2.976-2.064 0-3.44.992-3.616 2.592h1.696c.128-.72.816-1.2 1.84-1.2 1.136 0 1.792.56 1.792 1.472v.496H18c-2.288 0-3.504.944-3.504 2.624 0 1.52 1.248 2.4 3.04 2.4 1.328 0 2.16-.576 2.704-1.408 0 .816.384 1.312 1.504 1.312h.912V9.996h-.352zm-2.24-1.856c-.016 1.264-.848 2.112-2.288 2.112-.944 0-1.52-.48-1.52-1.168 0-.832.592-1.232 1.664-1.232h2.144v.288zm9.694-3.696c-.527-.72-1.407-1.232-2.655-1.232-2.224 0-3.872 1.664-3.872 4.192 0 2.624 1.648 4.192 3.872 4.192 1.296 0 2.143-.608 2.672-1.328l.207 1.232h1.505V.3h-1.729v4.144zm-2.367 5.696c-1.44 0-2.384-1.12-2.384-2.736 0-1.6.944-2.72 2.384-2.72s2.384 1.12 2.384 2.752c0 1.584-.945 2.704-2.384 2.704zm9.672 1.456c2.032 0 3.408-1.232 3.696-2.848h-1.728c-.24.912-1.008 1.44-2.064 1.44-1.36 0-2.24-.912-2.288-2.304v-.112h6.176c.032-.224.048-.448.048-.656-.048-2.4-1.632-3.904-4-3.904-2.416 0-4.032 1.68-4.032 4.208 0 2.512 1.616 4.176 4.192 4.176zm-2.32-5.088c.128-1.168 1.072-1.904 2.176-1.904 1.2 0 2.048.688 2.192 1.904h-4.368zM45.9 11.5h7.936V9.948H48.41l2.976-2.48c1.36-1.136 2.368-2.176 2.368-3.84 0-2.048-1.408-3.424-3.92-3.424-2.384 0-3.92 1.552-3.92 3.68v.288h1.776V3.98c0-1.392.864-2.256 2.144-2.256 1.28 0 2.128.704 2.128 1.984 0 1.072-.752 1.856-1.76 2.704l-4.304 3.664V11.5zm9.022-5.344c0 3.376 1.808 5.44 4.416 5.44 2.608 0 4.416-2.064 4.416-5.44v-.512c0-3.248-1.808-5.44-4.416-5.44-2.608 0-4.416 2.192-4.416 5.44v.512zm7.04-.064c0 2.512-1.056 3.952-2.624 3.952s-2.624-1.44-2.624-3.952v-.384c0-2.496 1.056-3.952 2.624-3.952s2.624 1.456 2.624 3.952v.384zm9.868 5.408h2.16l2.256-8.24 2.288 8.24h2.144L83.893.3h-1.888l-2.4 8.864L77.173.3h-1.744l-2.496 8.864-2.384-8.88L68.645.3l3.184 11.2zm16.204.096c2.495 0 4.175-1.68 4.175-4.192 0-2.496-1.68-4.192-4.175-4.192-2.496 0-4.177 1.696-4.177 4.192 0 2.512 1.68 4.192 4.177 4.192zm0-1.472c-1.457 0-2.4-1.136-2.4-2.72 0-1.584.944-2.72 2.4-2.72s2.415 1.136 2.415 2.72c0 1.584-.96 2.72-2.415 2.72zm9.709-6.816c-1.344 0-2 .544-2.416 1.232l-.192-1.232h-1.536V11.5h1.728V7.388c0-1.264.496-2.464 2.032-2.464h.768V3.308h-.384zm1.45 8.192h1.728V.3h-1.728v11.2zm9.646-7.056c-.528-.72-1.408-1.232-2.656-1.232-2.224 0-3.872 1.664-3.872 4.192 0 2.624 1.648 4.192 3.872 4.192 1.296 0 2.144-.608 2.672-1.328l.208 1.232h1.504V.3h-1.728v4.144zm-2.368 5.696c-1.44 0-2.384-1.12-2.384-2.736 0-1.6.944-2.72 2.384-2.72s2.384 1.12 2.384 2.752c0 1.584-.944 2.704-2.384 2.704zm10.054 1.36h1.84V.3h-1.84v11.2zm8.035-8.288c-1.328 0-2.112.528-2.624 1.168l-.192-1.072h-1.504V11.5h1.728V7.372c0-1.664.816-2.672 2.192-2.672 1.296 0 1.952.832 1.952 2.384V11.5h1.744V6.94c0-2.736-1.488-3.728-3.296-3.728zm11.029 1.232c-.528-.72-1.408-1.232-2.656-1.232-2.224 0-3.872 1.664-3.872 4.192 0 2.624 1.648 4.192 3.872 4.192 1.296 0 2.144-.608 2.672-1.328l.208 1.232h1.504V.3h-1.728v4.144zm-2.368 5.696c-1.44 0-2.384-1.12-2.384-2.736 0-1.6.944-2.72 2.384-2.72s2.384 1.12 2.384 2.752c0 1.584-.944 2.704-2.384 2.704zm6.664-7.984c.592 0 1.056-.432 1.056-1.04 0-.608-.464-1.04-1.056-1.04-.592 0-1.056.432-1.056 1.04 0 .608.464 1.04 1.056 1.04zm-.88 9.344h1.728V3.308h-1.728V11.5zm7.182.096c2.096 0 3.488-1.168 3.808-3.024h-1.824c-.208.944-.912 1.552-1.968 1.552-1.392 0-2.304-1.104-2.304-2.704 0-1.616.912-2.736 2.304-2.736 1.072 0 1.76.592 1.984 1.552h1.808c-.336-1.856-1.648-3.024-3.76-3.024-2.48 0-4.112 1.68-4.112 4.208 0 2.56 1.584 4.176 4.064 4.176zm9.019 0c2.032 0 3.408-1.232 3.696-2.848h-1.728c-.24.912-1.008 1.44-2.064 1.44-1.36 0-2.24-.912-2.288-2.304v-.112h6.176c.032-.224.048-.448.048-.656-.048-2.4-1.632-3.904-4-3.904-2.416 0-4.032 1.68-4.032 4.208 0 2.512 1.616 4.176 4.192 4.176zm-2.32-5.088c.128-1.168 1.072-1.904 2.176-1.904 1.2 0 2.048.688 2.192 1.904h-4.368zm7.158 2.288c.048 1.776 1.552 2.8 3.744 2.8 1.984 0 3.472-.992 3.472-2.56 0-1.824-1.52-2.208-3.392-2.432-1.184-.128-1.968-.224-1.968-.992 0-.656.672-1.072 1.696-1.072s1.728.528 1.824 1.28h1.696c-.112-1.68-1.536-2.608-3.552-2.608-1.968-.016-3.36.992-3.36 2.544 0 1.696 1.472 2.096 3.344 2.32 1.264.16 2.016.224 2.016 1.104 0 .656-.704 1.072-1.776 1.072-1.248 0-1.984-.608-2.048-1.456h-1.696zm15.161 2.704h2.16l2.256-8.24 2.288 8.24h2.144L187.268.3h-1.888l-2.4 8.864L180.548.3h-1.744l-2.496 8.864-2.384-8.88L172.02.3l3.184 11.2zm13.946-9.344c.592 0 1.056-.432 1.056-1.04 0-.608-.464-1.04-1.056-1.04-.592 0-1.056.432-1.056 1.04 0 .608.464 1.04 1.056 1.04zm-.88 9.344h1.728V3.308h-1.728V11.5zm4.014-2.224c0 1.488.672 2.224 2.24 2.224h1.6V9.98h-1.216c-.656 0-.88-.24-.88-.88V4.828h2v-1.52h-2V1.02h-1.744v2.288h-1.424v1.52h1.424v4.448zm9.243-6.064c-1.28 0-2.064.576-2.576 1.28V.3h-1.728v11.2h1.728V7.356c0-1.648.832-2.656 2.192-2.656 1.28 0 1.968.832 1.968 2.384V11.5h1.728V6.94c0-2.736-1.488-3.728-3.312-3.728zm8.693 8.384c2.496 0 4.176-1.68 4.176-4.192 0-2.496-1.68-4.192-4.176-4.192-2.496 0-4.176 1.696-4.176 4.192 0 2.512 1.68 4.192 4.176 4.192zm0-1.472c-1.456 0-2.4-1.136-2.4-2.72 0-1.584.944-2.72 2.4-2.72s2.416 1.136 2.416 2.72c0 1.584-.96 2.72-2.416 2.72zm11.182-2.72c0 1.696-.8 2.688-2.112 2.688-1.264 0-1.904-.816-1.904-2.416V3.308h-1.728v4.56c0 2.8 1.488 3.728 3.232 3.728 1.264 0 2.016-.512 2.528-1.136l.192 1.04h1.52V3.308h-1.728v4.096zm4.069 1.872c0 1.488.672 2.224 2.24 2.224h1.6V9.98h-1.216c-.656 0-.88-.24-.88-.88V4.828h2v-1.52h-2V1.02h-1.744v2.288h-1.424v1.52h1.424v4.448zm14.073 2.32c2.608 0 4.512-1.536 4.864-3.904h-1.904c-.352 1.424-1.424 2.288-2.976 2.288-2.112 0-3.392-1.696-3.392-4.08 0-2.4 1.312-4.08 3.44-4.08 1.52 0 2.576.88 2.944 2.288h1.904c-.368-2.368-2.208-3.904-4.768-3.904-3.312 0-5.408 2.288-5.408 5.696 0 3.44 2.032 5.696 5.296 5.696zm10.082 0c2.496 0 4.176-1.68 4.176-4.192 0-2.496-1.68-4.192-4.176-4.192-2.496 0-4.176 1.696-4.176 4.192 0 2.512 1.68 4.192 4.176 4.192zm0-1.472c-1.456 0-2.4-1.136-2.4-2.72 0-1.584.944-2.72 2.4-2.72s2.416 1.136 2.416 2.72c0 1.584-.96 2.72-2.416 2.72zm5.167-1.328c.048 1.776 1.552 2.8 3.744 2.8 1.984 0 3.472-.992 3.472-2.56 0-1.824-1.52-2.208-3.392-2.432-1.184-.128-1.968-.224-1.968-.992 0-.656.672-1.072 1.696-1.072s1.728.528 1.824 1.28h1.696c-.112-1.68-1.536-2.608-3.552-2.608-1.968-.016-3.36.992-3.36 2.544 0 1.696 1.472 2.096 3.344 2.32 1.264.16 2.016.224 2.016 1.104 0 .656-.704 1.072-1.776 1.072-1.248 0-1.984-.608-2.048-1.456h-1.696zm9.147.48c0 1.488.672 2.224 2.24 2.224h1.6V9.98h-1.216c-.656 0-.88-.24-.88-.88V4.828h2v-1.52h-2V1.02h-1.744v2.288h-1.424v1.52h1.424v4.448z" fill="#000"/></svg>