<svg width="149" height="36" viewBox="0 0 149 36" fill="none" xmlns="http://www.w3.org/2000/svg"><rect width="149" height="36" rx="18" fill="#000"/><path d="M21.28 21.037c.097 2.69 2.046 4.58 5.378 4.58 2.865 0 4.852-1.657 4.852-4.014 0-2.65-2.28-3.391-4.501-3.762-2.046-.35-3.703-.681-3.703-2.319 0-1.461 1.189-2.24 2.962-2.24 1.851 0 3.118 1.032 3.313 2.61h1.754c-.156-2.455-2.027-4.15-5.067-4.15-2.767 0-4.657 1.559-4.657 3.878 0 2.65 2.26 3.371 4.462 3.742 2.066.35 3.742.701 3.742 2.396 0 1.482-1.306 2.32-3.138 2.32-2.085 0-3.507-1.209-3.644-3.04H21.28zm12.889 1.871c0 1.754.682 2.592 2.592 2.592h1.734v-1.462h-1.578c-.858 0-1.15-.311-1.15-1.15v-5.865h2.572v-1.461h-2.572v-2.787h-1.598v2.787h-1.793v1.461h1.793v5.885zm14.347 1.13c-.448 0-.643-.136-.643-.662V19.03c0-2.319-1.462-3.585-3.995-3.585-2.397 0-3.975 1.15-4.21 3.098h1.599c.195-1.013 1.13-1.676 2.533-1.676 1.56 0 2.475.78 2.475 2.066v.682h-2.923c-2.611 0-3.995 1.11-3.995 3.098 0 1.813 1.481 2.904 3.664 2.904 1.715 0 2.708-.76 3.332-1.657.02.975.468 1.54 1.793 1.54h.877v-1.462h-.507zm-2.24-2.591c0 1.656-1.15 2.806-3.138 2.806-1.325 0-2.163-.663-2.163-1.637 0-1.13.798-1.657 2.221-1.657h3.08v.488zm8.574-5.885c-1.773 0-2.533.74-3 1.5l-.215-1.5H50.25V25.5h1.598v-5.067c0-1.578.565-3.313 2.65-3.313h.8v-1.559h-.449zm2.898 7.346c0 1.754.682 2.592 2.591 2.592h1.735v-1.462h-1.579c-.857 0-1.15-.311-1.15-1.15v-5.865h2.573v-1.461h-2.572v-2.787h-1.598v2.787h-1.793v1.461h1.793v5.885zm11.551 0c0 1.754.682 2.592 2.592 2.592h1.734v-1.462h-1.578c-.858 0-1.15-.311-1.15-1.15v-5.865h2.572v-1.461h-2.572v-2.787H69.3v2.787h-1.793v1.461H69.3v5.885zm10.31-7.347c-1.773 0-2.533.741-3.001 1.501l-.215-1.5H75.01V25.5h1.598v-5.067c0-1.578.565-3.313 2.65-3.313h.8v-1.559h-.45zm10.28 8.477c-.449 0-.644-.136-.644-.662V19.03c0-2.319-1.461-3.585-3.995-3.585-2.397 0-3.975 1.15-4.209 3.098h1.598c.195-1.013 1.13-1.676 2.534-1.676 1.558 0 2.474.78 2.474 2.066v.682h-2.923c-2.611 0-3.995 1.11-3.995 3.098 0 1.813 1.481 2.904 3.664 2.904 1.715 0 2.709-.76 3.332-1.657.02.975.468 1.54 1.793 1.54h.877v-1.462h-.507zm-2.242-2.591c0 1.656-1.15 2.806-3.137 2.806-1.325 0-2.163-.663-2.163-1.637 0-1.13.799-1.657 2.221-1.657h3.08v.488zm11.696-4.366c-.604-.954-1.734-1.636-3.41-1.636-2.748 0-4.774 2.046-4.774 5.086 0 3.235 2.026 5.086 4.774 5.086 1.676 0 2.748-.8 3.41-1.715l.215 1.598h1.383V11.859h-1.598v5.222zm-3.254 7.113c-1.968 0-3.293-1.5-3.293-3.663s1.325-3.664 3.293-3.664c1.949 0 3.274 1.52 3.274 3.703 0 2.124-1.325 3.624-3.274 3.624zm7.847-10.308c.585 0 1.033-.43 1.033-1.033 0-.604-.448-1.033-1.033-1.033-.584 0-1.032.429-1.032 1.033 0 .604.448 1.033 1.032 1.033zm-.818 11.614h1.598v-9.938h-1.598V25.5zm8.659-10.055c-1.676 0-2.689.701-3.274 1.461l-.214-1.344h-1.384V25.5h1.598v-4.97c0-2.24 1.13-3.624 3.001-3.624 1.734 0 2.689 1.091 2.689 3.157V25.5h1.598v-5.534c0-3.294-1.773-4.521-4.014-4.521zm13.885 1.831c-.623-1.11-1.734-1.831-3.41-1.831-2.748 0-4.774 2.046-4.774 5.086 0 3.235 2.026 5.086 4.774 5.086 1.676 0 2.748-.702 3.41-1.832v1.17c0 2.162-1.13 3.137-3.215 3.137-1.656 0-2.767-.702-3.04-1.949h-1.637c.253 2.183 2.027 3.371 4.56 3.371 3.41 0 4.93-1.637 4.93-4.501V15.56h-1.383l-.215 1.715zm-3.254 6.918c-1.968 0-3.293-1.5-3.293-3.663s1.325-3.664 3.293-3.664c1.949 0 3.274 1.52 3.274 3.703 0 2.124-1.325 3.624-3.274 3.624z" fill="#fff"/></svg>