<svg width="134" height="113" viewBox="0 0 134 113" fill="none" xmlns="http://www.w3.org/2000/svg"><path d="M8.41 3.658c0-2.27-1.582-3.43-3.987-3.43H.975a.145.145 0 00-.134.134l.05 5.483-.05 6.02c0 .068.067.135.134.135h.64a.145.145 0 00.134-.134l-.034-4.71h2.759c2.304 0 3.935-1.076 3.935-3.498zM1.75.95h2.69c1.968 0 3.095.858 3.095 2.708 0 2.035-1.144 2.792-3.028 2.792H1.7v-.589l.05-4.91zM10.383 12a.145.145 0 00.135-.134l-.034-5.904.034-5.6a.145.145 0 00-.135-.135h-.588a.145.145 0 00-.135.135l.05 5.634-.05 5.87c0 .067.067.134.135.134h.588zm7.49-1.783l-.034 1.649c0 .067.067.134.135.134h.571a.145.145 0 00.135-.134l-.034-4.726.034-3.667a.145.145 0 00-.135-.134h-.588a.145.145 0 00-.135.134l.017 3.582V8.94c-.572 1.581-1.446 2.556-2.741 2.556-1.312 0-2.187-.79-2.187-2.875V7.055l.034-3.582a.145.145 0 00-.135-.134h-.588a.145.145 0 00-.135.134l.017 3.582v1.649c0 2.371 1.076 3.498 2.825 3.498 1.497 0 2.456-1.01 2.944-1.985zm2.866-2.556c0-2.237.925-3.851 2.809-3.851 1.749 0 2.775 1.48 2.758 3.935-.017 2.439-1.11 3.565-2.674 3.582-1.95.017-2.893-1.379-2.893-3.666zm6.324 3.465l-.017-5.13.034-2.523a.145.145 0 00-.135-.134h-.555a.145.145 0 00-.134.134l.033 1.598c-.538-1.228-1.53-1.884-2.859-1.884-2.304 0-3.515 2.002-3.515 4.49 0 2.49 1.211 4.29 3.532 4.29 1.312 0 2.287-.657 2.825-1.8v.959c0 2.421-1.076 3.464-2.758 3.464-1.328 0-2.422-.572-2.59-1.95-.017-.085-.084-.136-.151-.136h-.572c-.067 0-.135.068-.118.135.152 1.85 1.649 2.624 3.448 2.607 2.186 0 3.549-1.38 3.532-4.12zm5.082-8.914a.145.145 0 00.135-.135V1.17a.145.145 0 00-.135-.134h-.589a.145.145 0 00-.134.134v.908c0 .068.067.135.134.135h.589zm0 9.788a.145.145 0 00.135-.134l-.017-4.457.017-3.936a.145.145 0 00-.135-.134h-.589a.145.145 0 00-.134.134l.033 3.952-.033 4.44c0 .068.067.135.134.135h.589zm2.528 0a.145.145 0 00.134-.134l-.017-3.583V6.4c.572-1.581 1.447-2.557 2.742-2.557 1.312 0 2.186.79 2.186 2.876v1.564l-.034 3.583c0 .067.068.134.135.134h.589a.145.145 0 00.134-.134l-.017-3.583V6.635c0-2.371-1.076-3.498-2.825-3.498-1.497 0-2.456 1.009-2.943 1.984l.033-1.648a.145.145 0 00-.134-.134h-.572a.145.145 0 00-.135.134l.034 4.726-.034 3.667c0 .067.068.134.135.134h.589zm10.99-.572c0-.067-.067-.118-.134-.1-.236.05-.555.083-.858.083-.84 0-1.194-.386-1.194-1.681V4.028h2.052a.145.145 0 00.134-.134v-.42a.145.145 0 00-.134-.135h-2.052l.017-2.035a.145.145 0 00-.135-.135h-.588a.145.145 0 00-.135.135l.034 2.035h-.993a.145.145 0 00-.134.134v.42c0 .068.067.135.134.135h.993l-.017 5.702c0 1.833.84 2.404 1.967 2.404.303 0 .656-.067.909-.134a.164.164 0 00.134-.168v-.404zm7.955-3.75c0-2.708-1.362-4.524-3.868-4.524-2.49 0-3.868 1.816-3.868 4.524s1.379 4.507 3.868 4.507c2.506 0 3.868-1.816 3.868-4.507zm-6.879 0c0-2.355 1.01-3.852 3.01-3.868 2.002 0 3.011 1.53 3.011 3.868 0 2.354-.992 3.851-3.01 3.851-2.002 0-3.01-1.497-3.01-3.851zm17.306 1.95c0-3.598-5.97-1.563-5.97-4.12 0-1.143.924-1.715 2.354-1.715 1.396 0 2.506.572 2.59 1.967 0 .068.067.135.134.135h.505a.145.145 0 00.134-.135c-.084-1.8-1.53-2.59-3.346-2.59-1.85 0-3.18.808-3.18 2.372 0 3.363 5.971 1.328 5.971 4.137 0 1.194-1.06 1.867-2.54 1.867-1.782 0-2.757-.79-2.808-2.49a.145.145 0 00-.134-.134h-.539a.145.145 0 00-.134.135c.05 2.119 1.43 3.111 3.599 3.111 1.884 0 3.364-.942 3.364-2.54zm4.628 1.8c0-.067-.067-.118-.134-.1-.236.05-.555.083-.858.083-.84 0-1.194-.386-1.194-1.681V4.028h2.052a.145.145 0 00.134-.134v-.42a.145.145 0 00-.134-.135h-2.052l.017-2.035a.145.145 0 00-.135-.135h-.588a.145.145 0 00-.135.135l.034 2.035h-.993a.145.145 0 00-.134.134v.42c0 .068.067.135.134.135h.993l-.017 5.702c0 1.833.84 2.404 1.968 2.404.302 0 .655-.067.908-.134a.164.164 0 00.134-.168v-.404zm7.955-3.75c0-2.708-1.362-4.524-3.868-4.524-2.49 0-3.868 1.816-3.868 4.524s1.379 4.507 3.868 4.507c2.506 0 3.868-1.816 3.868-4.507zm-6.879 0c0-2.355 1.01-3.852 3.01-3.868 2.002 0 3.011 1.53 3.011 3.868 0 2.354-.992 3.851-3.01 3.851-2.002 0-3.01-1.497-3.01-3.851zM84.9 8.939c.016-.067-.05-.134-.118-.134h-.521c-.068 0-.135.067-.152.134-.134 1.631-1.194 2.59-2.808 2.59-2.019-.017-2.944-1.48-2.944-3.834 0-2.355.942-3.869 2.944-3.869 1.48 0 2.489.79 2.724 2.321.017.084.084.135.151.135h.505c.067 0 .135-.067.118-.135-.185-1.8-1.413-2.993-3.498-2.993-2.49 0-3.801 1.833-3.801 4.54 0 2.708 1.312 4.491 3.784 4.491 2.22 0 3.464-1.362 3.616-3.246zm6.127 2.943a.234.234 0 00.202.118h.707c.067 0 .1-.067.067-.118l-3.313-5.398 2.977-3.044c.05-.034.016-.101-.034-.101h-.74a.332.332 0 00-.236.1l-3.834 3.986V6.181l.034-5.82a.145.145 0 00-.135-.134h-.589a.145.145 0 00-.134.135l.05 5.836-.05 5.684c0 .068.067.135.134.135h.589a.145.145 0 00.135-.135l-.017-3.515 1.244-1.278 2.388 3.851.555.942zm8.085-2.253c0-3.6-5.97-1.564-5.97-4.12 0-1.144.924-1.716 2.354-1.716 1.396 0 2.506.572 2.59 1.967 0 .068.067.135.135.135h.504a.145.145 0 00.135-.135c-.084-1.8-1.53-2.59-3.347-2.59-1.85 0-3.179.808-3.179 2.372 0 3.363 5.97 1.328 5.97 4.137 0 1.194-1.059 1.867-2.539 1.867-1.783 0-2.758-.79-2.809-2.49a.145.145 0 00-.134-.134h-.538a.145.145 0 00-.135.135c.05 2.119 1.43 3.111 3.6 3.111 1.883 0 3.363-.942 3.363-2.54zm.907 3.75c.084 0 .168-.05.202-.118l.689-1.16a.619.619 0 00.068-.252v-.942c0-.068-.068-.135-.135-.135h-.639c-.067 0-.135.067-.135.135v1.076l-.353 1.261c-.017.068.034.135.101.135h.202zM8.174 27.678c0-2.708-1.363-4.524-3.869-4.524-2.489 0-3.868 1.816-3.868 4.524 0 2.707 1.38 4.507 3.868 4.507 2.506 0 3.869-1.816 3.869-4.507zm-6.879 0c0-2.355 1.01-3.852 3.01-3.869 2.002 0 3.01 1.531 3.01 3.869 0 2.354-.991 3.851-3.01 3.851-2 0-3.01-1.497-3.01-3.851zm8.858-.101c.017-2.49 1.127-3.768 2.792-3.768 1.934 0 2.792 1.75 2.792 3.936 0 2.085-.874 3.767-2.809 3.767-1.766 0-2.791-1.463-2.775-3.935zm6.425.067c0-2.523-1.21-4.49-3.464-4.49-1.363 0-2.372.74-2.927 1.934l.034-1.615a.145.145 0 00-.135-.134h-.572a.145.145 0 00-.134.134l.05 4.541-.05 6.71c0 .068.067.135.134.135h.606a.145.145 0 00.134-.135l-.05-4.389c.555 1.194 1.547 1.833 2.893 1.833 2.237 0 3.481-2.035 3.481-4.524zm4.68 3.784c0-.067-.067-.117-.134-.1-.236.05-.555.083-.858.083-.841 0-1.194-.387-1.194-1.681v-5.702h2.052a.145.145 0 00.134-.134v-.42a.145.145 0 00-.134-.135h-2.052l.017-2.035a.145.145 0 00-.135-.135h-.588a.145.145 0 00-.135.135l.034 2.035h-.993a.145.145 0 00-.134.134v.42c0 .068.067.135.134.135h.993l-.017 5.702c0 1.833.84 2.405 1.967 2.405.303 0 .656-.068.909-.135a.164.164 0 00.134-.168v-.404zm1.838-9.216a.145.145 0 00.135-.135v-.908a.145.145 0 00-.135-.134h-.588a.145.145 0 00-.135.134v.908c0 .067.067.135.135.135h.588zm0 9.788a.145.145 0 00.135-.134l-.017-4.457.017-3.936a.145.145 0 00-.135-.134h-.588a.145.145 0 00-.135.134l.034 3.953-.034 4.44c0 .067.067.134.135.134h.588zm9.188-4.322c0-2.708-1.362-4.524-3.868-4.524-2.49 0-3.868 1.816-3.868 4.524 0 2.707 1.379 4.507 3.868 4.507 2.506 0 3.868-1.816 3.868-4.507zm-6.879 0c0-2.355 1.01-3.852 3.01-3.869 2.002 0 3.011 1.531 3.011 3.869 0 2.354-.992 3.851-3.01 3.851-2.002 0-3.01-1.497-3.01-3.851zM34.23 32a.145.145 0 00.135-.134l-.017-3.583V26.4c.572-1.58 1.446-2.556 2.741-2.556 1.312 0 2.187.79 2.187 2.876v1.564l-.034 3.582c0 .068.067.135.135.135h.588a.145.145 0 00.135-.134l-.017-3.583v-1.648c0-2.371-1.076-3.498-2.825-3.498-1.497 0-2.456 1.009-2.944 1.984l.034-1.648a.145.145 0 00-.135-.134h-.571a.145.145 0 00-.135.134l.034 4.726-.034 3.666c0 .068.067.135.135.135h.588zm13.95-2.371c0-3.6-5.97-1.565-5.97-4.12 0-1.145.925-1.716 2.354-1.716 1.396 0 2.506.572 2.59 1.968 0 .067.067.134.135.134h.504a.145.145 0 00.135-.134c-.084-1.8-1.53-2.59-3.347-2.59-1.85 0-3.179.807-3.179 2.37 0 3.364 5.97 1.33 5.97 4.138 0 1.194-1.059 1.867-2.539 1.867-1.782 0-2.758-.79-2.808-2.49a.145.145 0 00-.135-.134h-.538a.145.145 0 00-.135.135c.05 2.119 1.43 3.111 3.6 3.111 1.883 0 3.363-.942 3.363-2.54zm.907 3.75c.084 0 .168-.05.202-.118l.69-1.16a.624.624 0 00.067-.252v-.942a.145.145 0 00-.135-.135h-.639a.145.145 0 00-.134.135v1.076l-.354 1.262c-.016.067.034.134.101.134h.202zM60.735 32a.145.145 0 00.135-.134v-.455a.145.145 0 00-.135-.134h-5.92l-.05-5.248h5.5a.145.145 0 00.134-.134v-.454a.145.145 0 00-.135-.135h-5.5l.051-4.355H60.6a.145.145 0 00.135-.135v-.454a.145.145 0 00-.135-.135h-6.559a.145.145 0 00-.134.135l.05 5.399-.05 6.105c0 .067.067.134.134.134h6.694zm4.981 0a.145.145 0 00.135-.134l-.05-5.651.033-5.248h3.296a.145.145 0 00.135-.134v-.471a.145.145 0 00-.135-.135h-7.484a.145.145 0 00-.134.135v.47c0 .068.067.135.134.135h3.297l.05 5.248-.05 5.65c0 .068.067.135.134.135h.64zm5.34 0a.145.145 0 00.134-.134l-.05-5.315h5.347a.145.145 0 00.135-.135v-.454a.145.145 0 00-.135-.134H71.14l.05-4.877h5.618a.145.145 0 00.135-.135v-.454a.145.145 0 00-.135-.135h-6.39a.145.145 0 00-.135.135l.05 5.769-.05 5.735c0 .067.067.134.134.134h.64zm13.454-2.371c0-3.6-5.97-1.565-5.97-4.12 0-1.145.924-1.716 2.354-1.716 1.396 0 2.506.572 2.59 1.968 0 .067.067.134.135.134h.504a.145.145 0 00.135-.134c-.084-1.8-1.53-2.59-3.347-2.59-1.85 0-3.179.807-3.179 2.37 0 3.364 5.97 1.33 5.97 4.138 0 1.194-1.059 1.867-2.539 1.867-1.783 0-2.758-.79-2.808-2.49a.145.145 0 00-.135-.134h-.538a.145.145 0 00-.135.135c.05 2.119 1.43 3.111 3.6 3.111 1.883 0 3.363-.942 3.363-2.54zM1.26 47.594c0-2.103.875-3.768 2.826-3.768 1.749 0 2.775 1.463 2.758 3.936-.017 2.472-1.11 3.733-2.792 3.733-1.934 0-2.792-1.732-2.792-3.901zM7.484 52a.145.145 0 00.135-.135l-.05-4.355.05-4.037a.145.145 0 00-.135-.134h-.572a.145.145 0 00-.134.134l.033 1.564c-.555-1.21-1.547-1.867-2.91-1.867-2.236 0-3.464 2.019-3.464 4.508 0 2.523 1.194 4.473 3.465 4.473 1.379 0 2.371-.723 2.91-1.917l-.034 1.631c0 .068.067.135.134.135h.572zm2.422 0a.145.145 0 00.135-.135l-.017-3.582V46.4c.572-1.581 1.446-2.557 2.741-2.557 1.312 0 2.187.79 2.187 2.876v1.564l-.034 3.582c0 .068.067.135.135.135h.588a.145.145 0 00.135-.135l-.017-3.582v-1.648c0-2.371-1.076-3.498-2.825-3.498-1.497 0-2.456 1.009-2.944 1.984l.034-1.648a.145.145 0 00-.135-.134h-.571a.145.145 0 00-.135.134l.034 4.726-.034 3.666c0 .068.067.135.135.135h.588zm7.845-4.406c0-2.103.875-3.801 2.825-3.801 1.75 0 2.776 1.496 2.759 3.969-.017 2.489-1.144 3.75-2.792 3.75-1.934 0-2.792-1.749-2.792-3.918zM23.974 52a.145.145 0 00.134-.135l-.033-6.912.033-4.591a.145.145 0 00-.134-.135h-.589a.145.145 0 00-.134.135l.016 4.608c-.555-1.177-1.547-1.816-2.875-1.816-2.237 0-3.465 2.035-3.465 4.524 0 2.523 1.194 4.49 3.465 4.49 1.379 0 2.37-.723 2.91-1.917l-.035 1.614c0 .068.068.135.135.135h.572zm5.25-5.6c.571-1.564 1.378-2.557 2.59-2.557 1.244 0 2.051.774 2.051 2.876v1.665l-.034 3.481c0 .068.068.135.135.135h.589a.145.145 0 00.134-.135l-.017-3.48v-1.75c0-.202 0-.387-.016-.572.555-1.362 1.328-2.22 2.455-2.22 1.245 0 2.052.774 2.052 2.876v1.665l-.034 3.481c0 .068.068.135.135.135h.588a.145.145 0 00.135-.135l-.017-3.48v-1.75c0-2.405-1.009-3.498-2.674-3.498-1.362 0-2.27.925-2.792 1.984-.353-1.362-1.244-1.984-2.506-1.984-1.412 0-2.304.992-2.792 1.984l.034-1.648a.145.145 0 00-.134-.134h-.572a.145.145 0 00-.135.134l.034 4.911-.05 3.481c0 .068.067.135.134.135h.605a.145.145 0 00.135-.135l-.034-3.48V46.4zm19.648 1.278c0-2.708-1.362-4.524-3.868-4.524-2.489 0-3.868 1.816-3.868 4.524s1.379 4.507 3.868 4.507c2.506 0 3.868-1.816 3.868-4.507zm-6.878 0c0-2.355 1.009-3.852 3.01-3.868 2.002 0 3.01 1.53 3.01 3.868 0 2.354-.992 3.851-3.01 3.851-2.001 0-3.01-1.497-3.01-3.851zM50.802 52a.145.145 0 00.134-.135l-.033-5.247c.32-1.85 1.547-2.657 2.791-2.657.253 0 .454.017.623.067.067.017.134-.033.134-.1v-.455a.181.181 0 00-.134-.168 2.097 2.097 0 00-.589-.067c-1.177 0-2.27.656-2.842 1.833l.05-1.598a.145.145 0 00-.134-.134h-.589a.145.145 0 00-.135.134l.051 4.053-.05 4.34c0 .067.067.134.134.134h.589zm10.202-3.06c-.067 0-.151.05-.151.134-.286 1.53-1.177 2.455-2.741 2.455-2.052 0-3.078-1.43-3.078-3.868l6.542-.017a.145.145 0 00.135-.134c-.05-2.759-1.43-4.356-3.717-4.356-2.338 0-3.801 1.883-3.801 4.54 0 2.658 1.346 4.491 3.902 4.491 2.069 0 3.246-1.21 3.565-3.111 0-.068-.05-.135-.117-.135h-.539zm-.185-1.969h-5.751c.201-1.934 1.21-3.161 2.926-3.161 1.833 0 2.809 1.412 2.825 3.161zM73.307 52c.084 0 .151-.05.168-.135l2.338-8.392c.017-.067-.034-.134-.101-.134h-.521a.164.164 0 00-.169.134l-2.035 7.686-2.135-7.686a.164.164 0 00-.169-.134h-.706a.164.164 0 00-.168.134l-2.001 7.72-2.187-7.72a.164.164 0 00-.168-.134h-.572c-.067 0-.118.067-.1.134l2.522 8.392a.164.164 0 00.168.135h.673c.084 0 .151-.05.168-.135l1.968-7.803 2.17 7.803a.164.164 0 00.168.135h.689zm4.251-9.788a.145.145 0 00.135-.135v-.908a.145.145 0 00-.135-.134h-.588a.145.145 0 00-.135.134v.908c0 .068.067.135.135.135h.588zm0 9.788a.145.145 0 00.135-.135l-.017-4.456.017-3.936a.145.145 0 00-.135-.134h-.588a.145.145 0 00-.135.134l.034 3.953-.034 4.44c0 .067.067.134.135.134h.588zm5.454-.572c0-.067-.067-.117-.134-.1-.236.05-.555.083-.858.083-.84 0-1.194-.386-1.194-1.681v-5.702h2.052a.145.145 0 00.134-.134v-.42a.145.145 0 00-.134-.135h-2.052l.017-2.035a.145.145 0 00-.135-.135h-.588a.145.145 0 00-.135.135l.034 2.035h-.993a.145.145 0 00-.134.134v.42c0 .068.067.135.135.135h.992l-.017 5.702c0 1.833.84 2.405 1.968 2.405.302 0 .656-.068.908-.135a.164.164 0 00.134-.168v-.404zm6.8-4.709l.017 1.648-.034 3.498c0 .068.067.135.135.135h.588a.145.145 0 00.135-.135l-.017-3.515v-1.648c0-2.455-1.076-3.565-2.842-3.565-1.497 0-2.439.975-2.943 1.968l.05-4.743a.145.145 0 00-.135-.135h-.588a.145.145 0 00-.135.135l.05 5.617-.05 5.886c0 .068.068.135.135.135h.588a.145.145 0 00.135-.135l-.05-5.482c.571-1.547 1.48-2.557 2.791-2.557 1.295 0 2.17.79 2.17 2.893zM4.793 72.151c2.002-.1 3.532-1.244 3.532-3.498 0-4.675-6.76-1.867-6.76-5.432 0-1.682 1.126-2.405 2.707-2.422 1.968-.017 2.876.942 2.977 2.809 0 .067.067.134.134.134h.606a.145.145 0 00.134-.134c-.151-2.17-1.261-3.347-3.33-3.532v-1.06a.145.145 0 00-.134-.134h-.572a.145.145 0 00-.135.134v1.043C2.12 60.16.757 61.236.757 63.271c0 4.44 6.76 1.581 6.76 5.45 0 1.933-1.294 2.707-2.942 2.707-2.187 0-3.028-1.278-3.162-3.397a.145.145 0 00-.135-.135H.64a.145.145 0 00-.134.135c.117 2.371 1.244 3.868 3.464 4.087v1.43c0 .067.067.134.135.134h.555a.145.145 0 00.134-.135v-1.396zm12.452-6.037c0-3.835-1.564-6.072-3.918-6.072-2.372 0-3.936 2.237-3.936 6.072 0 3.784 1.564 6.071 3.919 6.071 2.354 0 3.935-2.254 3.935-6.071zm-6.963 0c0-3.38 1.144-5.315 3.028-5.315 1.85 0 3.027 1.917 3.027 5.315 0 3.397-1.177 5.314-3.027 5.314s-3.027-1.934-3.027-5.314zm17.97 2.825c.017-.067-.05-.134-.117-.134h-.522c-.067 0-.134.067-.151.134-.135 1.632-1.194 2.59-2.809 2.59-2.018-.017-2.943-1.48-2.943-3.834 0-2.355.942-3.869 2.943-3.869 1.48 0 2.49.79 2.725 2.321.017.084.084.135.151.135h.505c.067 0 .134-.067.117-.135-.185-1.8-1.412-2.993-3.498-2.993-2.489 0-3.8 1.833-3.8 4.54 0 2.708 1.311 4.491 3.783 4.491 2.22 0 3.465-1.362 3.616-3.246zm8.5-1.261c0-2.708-1.363-4.524-3.869-4.524-2.489 0-3.868 1.816-3.868 4.524 0 2.707 1.38 4.507 3.868 4.507 2.506 0 3.868-1.816 3.868-4.507zm-6.88 0c0-2.355 1.01-3.852 3.011-3.868 2.002 0 3.01 1.53 3.01 3.868 0 2.354-.992 3.851-3.01 3.851-2.001 0-3.01-1.497-3.01-3.851zm8.926-1.278c.572-1.565 1.38-2.557 2.59-2.557 1.245 0 2.052.774 2.052 2.876v1.665l-.033 3.481c0 .068.067.135.134.135h.589a.145.145 0 00.134-.135l-.016-3.48v-1.75c0-.202 0-.387-.017-.572.555-1.362 1.328-2.22 2.455-2.22 1.245 0 2.052.774 2.052 2.876v1.665l-.034 3.481c0 .068.068.135.135.135h.589a.145.145 0 00.134-.135l-.017-3.48v-1.75c0-2.405-1.009-3.498-2.674-3.498-1.362 0-2.27.925-2.792 1.984-.353-1.362-1.244-1.984-2.505-1.984-1.413 0-2.305.992-2.792 1.984l.033-1.648a.145.145 0 00-.134-.134h-.572a.145.145 0 00-.135.134l.034 4.911-.05 3.481c0 .068.067.135.134.135h.606a.145.145 0 00.134-.135l-.034-3.48v-1.986zm13.09 0c.572-1.565 1.38-2.557 2.59-2.557 1.245 0 2.052.774 2.052 2.876v1.665l-.033 3.481c0 .068.067.135.134.135h.589a.145.145 0 00.134-.135l-.017-3.48v-1.75c0-.202 0-.387-.016-.572.555-1.362 1.328-2.22 2.455-2.22 1.245 0 2.052.774 2.052 2.876v1.665l-.034 3.481c0 .068.068.135.135.135h.588a.145.145 0 00.135-.135l-.017-3.48v-1.75c0-2.405-1.009-3.498-2.674-3.498-1.362 0-2.27.925-2.792 1.984-.353-1.362-1.244-1.984-2.506-1.984-1.412 0-2.304.992-2.791 1.984l.033-1.648a.145.145 0 00-.134-.134h-.572a.145.145 0 00-.135.134l.034 4.911-.05 3.481c0 .068.067.135.134.135h.605a.145.145 0 00.135-.135l-.034-3.48v-1.986zm13.057-4.188a.145.145 0 00.134-.135v-.908a.145.145 0 00-.134-.134h-.589a.145.145 0 00-.134.134v.908c0 .068.067.135.134.135h.589zm0 9.788a.145.145 0 00.134-.135l-.016-4.456.016-3.936a.145.145 0 00-.134-.134h-.589a.145.145 0 00-.134.134l.033 3.953-.033 4.44c0 .067.067.134.134.134h.589zm8.38-2.371c0-3.6-5.97-1.565-5.97-4.12 0-1.144.925-1.716 2.354-1.716 1.396 0 2.506.572 2.59 1.967 0 .068.067.135.135.135h.504a.145.145 0 00.135-.135c-.084-1.8-1.53-2.59-3.347-2.59-1.85 0-3.179.808-3.179 2.372 0 3.364 5.97 1.329 5.97 4.137 0 1.194-1.059 1.867-2.539 1.867-1.782 0-2.758-.79-2.808-2.49a.145.145 0 00-.135-.134h-.538a.145.145 0 00-.135.135c.05 2.119 1.43 3.111 3.6 3.111 1.883 0 3.363-.942 3.363-2.54zm7.752 0c0-3.6-5.97-1.565-5.97-4.12 0-1.144.925-1.716 2.354-1.716 1.396 0 2.506.572 2.59 1.967 0 .068.068.135.135.135h.504a.145.145 0 00.135-.135c-.084-1.8-1.53-2.59-3.347-2.59-1.85 0-3.178.808-3.178 2.372 0 3.364 5.97 1.329 5.97 4.137 0 1.194-1.06 1.867-2.54 1.867-1.782 0-2.758-.79-2.808-2.49a.145.145 0 00-.135-.134h-.538a.145.145 0 00-.134.135c.05 2.119 1.43 3.111 3.599 3.111 1.883 0 3.363-.942 3.363-2.54zm1.967-7.417a.145.145 0 00.135-.135v-.908a.145.145 0 00-.135-.134h-.589a.145.145 0 00-.134.134v.908c0 .068.067.135.134.135h.589zm0 9.788a.145.145 0 00.135-.135l-.017-4.456.016-3.936a.145.145 0 00-.134-.134h-.589a.145.145 0 00-.134.134l.033 3.953-.033 4.44c0 .067.067.134.134.134h.589zm9.188-4.322c0-2.708-1.363-4.524-3.868-4.524-2.49 0-3.869 1.816-3.869 4.524 0 2.707 1.38 4.507 3.868 4.507 2.506 0 3.869-1.816 3.869-4.507zm-6.879 0c0-2.355 1.01-3.852 3.01-3.868 2.002 0 3.011 1.53 3.011 3.868 0 2.354-.992 3.851-3.01 3.851-2.002 0-3.01-1.497-3.01-3.851zM94.178 72a.145.145 0 00.134-.135l-.016-3.582V66.4c.571-1.581 1.446-2.557 2.741-2.557 1.312 0 2.186.79 2.186 2.876v1.564l-.033 3.582c0 .068.067.135.134.135h.589c.067 0 .134-.067.134-.135l-.016-3.582v-1.648c0-2.371-1.077-3.498-2.826-3.498-1.497 0-2.455 1.009-2.943 1.984l.034-1.648a.145.145 0 00-.135-.134h-.572a.145.145 0 00-.134.134l.033 4.726-.033 3.666c0 .068.067.135.134.135h.589zm7.105 1.38c.084 0 .168-.051.201-.119l.69-1.16a.618.618 0 00.067-.252v-.942c0-.067-.067-.135-.134-.135h-.639a.144.144 0 00-.135.135v1.076l-.353 1.261c-.017.068.034.135.101.135h.202zM1.513 92a.145.145 0 00.135-.135l-.017-3.582V86.4c.572-1.581 1.447-2.557 2.742-2.557 1.312 0 2.186.79 2.186 2.876v1.564l-.034 3.582c0 .068.068.135.135.135h.589a.145.145 0 00.134-.135l-.017-3.582v-1.648c0-2.371-1.076-3.498-2.825-3.498-1.497 0-2.456 1.009-2.943 1.984l.033-1.648a.145.145 0 00-.134-.134H.925a.145.145 0 00-.135.134L.824 88.2.79 91.865c0 .068.068.135.135.135h.589zm14.758-4.322c0-2.708-1.363-4.524-3.869-4.524-2.489 0-3.868 1.816-3.868 4.524 0 2.707 1.38 4.507 3.868 4.507 2.506 0 3.869-1.816 3.869-4.507zm-6.879 0c0-2.355 1.01-3.852 3.01-3.868 2.002 0 3.01 1.53 3.01 3.868 0 2.354-.991 3.851-3.01 3.851-2 0-3.01-1.497-3.01-3.851zM20.946 86.4c.571-1.565 1.379-2.557 2.59-2.557 1.244 0 2.051.774 2.051 2.876v1.665l-.033 3.481c0 .068.067.135.134.135h.589a.145.145 0 00.134-.135l-.016-3.48v-1.75c0-.202 0-.387-.017-.572.555-1.362 1.328-2.22 2.455-2.22 1.245 0 2.052.774 2.052 2.876v1.665l-.034 3.481c0 .068.068.135.135.135h.589a.145.145 0 00.134-.135l-.017-3.48v-1.75c0-2.405-1.009-3.498-2.674-3.498-1.362 0-2.27.925-2.791 1.984-.354-1.362-1.245-1.984-2.506-1.984-1.413 0-2.305.992-2.792 1.984l.033-1.648a.145.145 0 00-.134-.134h-.572a.145.145 0 00-.134.134l.033 4.911-.05 3.481c0 .068.067.135.134.135h.606a.145.145 0 00.134-.135l-.033-3.48v-1.986zm13.056-4.188a.145.145 0 00.134-.135v-.908a.145.145 0 00-.134-.135h-.589a.145.145 0 00-.134.135v.908c0 .067.067.135.134.135h.589zm0 9.788a.145.145 0 00.134-.135l-.016-4.456.016-3.936a.145.145 0 00-.134-.134h-.589a.145.145 0 00-.134.134l.033 3.953-.033 4.44c0 .067.067.134.134.134h.589zm2.528 0a.145.145 0 00.134-.135l-.017-3.582V86.4c.572-1.581 1.447-2.557 2.742-2.557 1.311 0 2.186.79 2.186 2.876v1.564l-.034 3.582c0 .068.068.135.135.135h.589a.145.145 0 00.134-.135l-.017-3.582v-1.648c0-2.371-1.076-3.498-2.825-3.498-1.497 0-2.456 1.009-2.943 1.984l.033-1.648a.145.145 0 00-.134-.134h-.572a.145.145 0 00-.135.134l.034 4.726-.034 3.666c0 .068.068.135.135.135h.589zm8.164-9.788a.145.145 0 00.134-.135v-.908a.145.145 0 00-.134-.135h-.589a.145.145 0 00-.134.135v.908c0 .067.067.135.134.135h.589zm0 9.788a.145.145 0 00.134-.135l-.016-4.456.017-3.936a.145.145 0 00-.135-.134h-.589a.145.145 0 00-.134.134l.033 3.953-.033 4.44c0 .067.067.134.134.134h.589zm2.629-5.6c.571-1.565 1.379-2.557 2.59-2.557 1.244 0 2.051.774 2.051 2.876v1.665l-.033 3.481c0 .068.067.135.134.135h.589a.145.145 0 00.134-.135l-.016-3.48v-1.75c0-.202 0-.387-.017-.572.555-1.362 1.328-2.22 2.455-2.22 1.245 0 2.052.774 2.052 2.876v1.665l-.034 3.481c0 .068.068.135.135.135h.589a.145.145 0 00.134-.135l-.017-3.48v-1.75c0-2.405-1.009-3.498-2.674-3.498-1.362 0-2.27.925-2.792 1.984-.353-1.362-1.244-1.984-2.505-1.984-1.413 0-2.304.992-2.792 1.984l.033-1.648a.145.145 0 00-.134-.134h-.572a.145.145 0 00-.135.134l.034 4.911-.05 3.481c0 .068.067.135.134.135h.606a.145.145 0 00.134-.135l-.033-3.48v-1.986zm17.967 3.817l-.034 1.648c0 .068.067.135.135.135h.572a.145.145 0 00.134-.135l-.034-4.725.034-3.667a.145.145 0 00-.134-.134h-.59a.145.145 0 00-.134.134l.017 3.582v1.884c-.572 1.581-1.446 2.557-2.741 2.557-1.312 0-2.187-.791-2.187-2.876v-1.565l.034-3.582a.145.145 0 00-.135-.134h-.588a.145.145 0 00-.135.134l.017 3.582v1.649c0 2.371 1.076 3.498 2.826 3.498 1.496 0 2.455-1.01 2.943-1.985zm3.22-3.817c.571-1.565 1.379-2.557 2.59-2.557 1.244 0 2.051.774 2.051 2.876v1.665l-.033 3.481c0 .068.067.135.134.135h.589a.145.145 0 00.134-.135l-.016-3.48v-1.75c0-.202 0-.387-.017-.572.555-1.362 1.328-2.22 2.455-2.22 1.245 0 2.052.774 2.052 2.876v1.665l-.034 3.481c0 .068.068.135.135.135h.589a.145.145 0 00.134-.135l-.017-3.48v-1.75c0-2.405-1.009-3.498-2.674-3.498-1.362 0-2.27.925-2.792 1.984-.353-1.362-1.244-1.984-2.506-1.984-1.412 0-2.304.992-2.791 1.984l.033-1.648a.145.145 0 00-.134-.134h-.572a.145.145 0 00-.135.134l.034 4.911-.05 3.481c0 .068.067.135.134.135h.606a.145.145 0 00.134-.135l-.034-3.48v-1.986zm15.364 1.194c0-2.103.875-3.801 2.826-3.801 1.749 0 2.775 1.496 2.758 3.969-.017 2.489-1.144 3.75-2.792 3.75-1.934 0-2.792-1.749-2.792-3.918zM90.097 92a.145.145 0 00.134-.135l-.033-6.912.033-4.591a.145.145 0 00-.134-.135h-.589a.145.145 0 00-.134.135l.017 4.608c-.556-1.177-1.548-1.816-2.876-1.816-2.237 0-3.465 2.035-3.465 4.524 0 2.523 1.194 4.49 3.465 4.49 1.379 0 2.37-.723 2.91-1.917l-.034 1.614c0 .068.067.135.134.135h.572zm8.157-3.06c-.067 0-.151.05-.151.134-.286 1.53-1.178 2.455-2.742 2.455-2.052 0-3.077-1.43-3.077-3.868l6.542-.017a.145.145 0 00.134-.135c-.05-2.758-1.43-4.355-3.716-4.355-2.338 0-3.801 1.883-3.801 4.54 0 2.658 1.345 4.491 3.901 4.491 2.07 0 3.246-1.21 3.566-3.111 0-.068-.05-.135-.118-.135h-.538zm-.185-1.969h-5.752c.202-1.934 1.211-3.162 2.927-3.162 1.833 0 2.808 1.413 2.825 3.162zm2.876.606c.017-2.49 1.127-3.767 2.792-3.767 1.934 0 2.792 1.749 2.792 3.935 0 2.085-.875 3.767-2.809 3.767-1.766 0-2.791-1.463-2.775-3.935zm6.425.067c0-2.523-1.211-4.49-3.465-4.49-1.362 0-2.371.74-2.926 1.934l.034-1.615c0-.067-.068-.134-.135-.134h-.572c-.067 0-.134.067-.134.134l.05 4.541-.05 6.71c0 .068.067.135.134.135h.606c.067 0 .134-.067.134-.134l-.05-4.39c.555 1.194 1.547 1.833 2.893 1.833 2.236 0 3.481-2.035 3.481-4.524zm8.611.034c0-2.708-1.362-4.524-3.868-4.524-2.489 0-3.869 1.816-3.869 4.524 0 2.707 1.38 4.507 3.869 4.507 2.506 0 3.868-1.816 3.868-4.507zm-6.879 0c0-2.355 1.009-3.852 3.011-3.868 2.001 0 3.01 1.53 3.01 3.868 0 2.354-.992 3.851-3.01 3.851-2.002 0-3.011-1.497-3.011-3.851zm14.645 1.95c0-3.599-5.971-1.564-5.971-4.12 0-1.143.925-1.715 2.355-1.715 1.396 0 2.506.572 2.59 1.967 0 .068.067.135.135.135h.504c.067 0 .135-.067.135-.135-.084-1.8-1.531-2.59-3.347-2.59-1.85 0-3.179.808-3.179 2.372 0 3.364 5.971 1.329 5.971 4.137 0 1.194-1.06 1.867-2.54 1.867-1.783 0-2.758-.79-2.809-2.49 0-.066-.067-.134-.134-.134h-.538a.144.144 0 00-.135.135c.051 2.119 1.43 3.111 3.599 3.111 1.884 0 3.364-.942 3.364-2.54zm1.967-7.416c.067 0 .134-.068.134-.135v-.908c0-.067-.067-.135-.134-.135h-.589c-.067 0-.135.068-.135.135v.908c0 .067.068.135.135.135h.589zm0 9.788c.067 0 .134-.067.134-.135l-.017-4.456.017-3.936c0-.067-.067-.134-.134-.134h-.589c-.067 0-.135.067-.135.134l.034 3.953-.034 4.44c0 .067.068.134.135.134h.589zm5.454-.572c0-.067-.068-.117-.135-.1a4.36 4.36 0 01-.858.083c-.841 0-1.194-.386-1.194-1.681v-5.702h2.052c.067 0 .135-.067.135-.134v-.42c0-.068-.068-.135-.135-.135h-2.052l.017-2.035c0-.068-.067-.135-.134-.135h-.589c-.067 0-.135.067-.135.135l.034 2.035h-.992a.145.145 0 00-.135.134v.42c0 .068.067.135.135.135h.992l-.017 5.701c0 1.834.841 2.406 1.968 2.406.303 0 .656-.068.908-.135a.164.164 0 00.135-.168v-.404zm.926 1.951c.084 0 .168-.05.202-.118l.689-1.16a.619.619 0 00.068-.252v-.942c0-.067-.068-.135-.135-.135h-.639c-.067 0-.134.067-.134.135v1.076l-.354 1.261c-.016.068.034.135.101.135h.202zM1.261 107.594c0-2.103.875-3.768 2.826-3.768 1.749 0 2.775 1.464 2.758 3.936-.017 2.472-1.11 3.733-2.792 3.733-1.934 0-2.792-1.732-2.792-3.901zM7.484 112a.145.145 0 00.135-.135l-.05-4.355.05-4.037c0-.067-.068-.134-.135-.134h-.572c-.067 0-.134.067-.134.134l.033 1.564c-.555-1.211-1.547-1.867-2.91-1.867-2.236 0-3.464 2.019-3.464 4.508 0 2.522 1.194 4.473 3.465 4.473 1.379 0 2.371-.723 2.91-1.917l-.034 1.631c0 .068.067.135.134.135h.572zm2.422 0a.144.144 0 00.135-.135l-.017-3.582V106.4c.572-1.581 1.446-2.557 2.741-2.557 1.312 0 2.187.791 2.187 2.876v1.564l-.034 3.582c0 .068.067.135.135.135h.588a.144.144 0 00.135-.135l-.017-3.582v-1.648c0-2.371-1.076-3.498-2.825-3.498-1.497 0-2.456 1.009-2.944 1.984l.034-1.648c0-.067-.067-.134-.135-.134h-.571c-.068 0-.135.067-.135.134l.034 4.726-.034 3.666c0 .068.067.135.135.135h.588zm7.845-4.406c0-2.103.875-3.801 2.825-3.801 1.75 0 2.776 1.497 2.759 3.969-.017 2.489-1.144 3.75-2.792 3.75-1.934 0-2.792-1.749-2.792-3.918zM23.974 112a.144.144 0 00.134-.135l-.033-6.912.033-4.591c0-.067-.067-.135-.134-.135h-.589c-.067 0-.134.068-.134.135l.016 4.608c-.555-1.177-1.547-1.816-2.875-1.816-2.237 0-3.465 2.035-3.465 4.524 0 2.522 1.194 4.49 3.465 4.49 1.379 0 2.37-.723 2.91-1.917l-.035 1.614c0 .068.068.135.135.135h.572zm10.785-3.061c-.067 0-.151.051-.151.135-.286 1.53-1.178 2.455-2.742 2.455-2.052 0-3.078-1.429-3.078-3.868l6.543-.017c.067 0 .134-.067.134-.134-.05-2.759-1.43-4.356-3.717-4.356-2.337 0-3.8 1.883-3.8 4.541 0 2.657 1.345 4.49 3.901 4.49 2.069 0 3.246-1.211 3.566-3.111 0-.068-.05-.135-.118-.135h-.538zm-.185-1.968h-5.752c.202-1.934 1.21-3.161 2.926-3.161 1.834 0 2.809 1.412 2.826 3.161zm2.91 5.029a.144.144 0 00.134-.135l-.033-5.903.033-5.6c0-.067-.067-.135-.134-.135h-.589c-.067 0-.134.068-.134.135l.05 5.634-.05 5.869c0 .068.067.135.134.135h.589zm2.578-9.788a.145.145 0 00.135-.135v-.908c0-.067-.067-.134-.135-.134h-.588c-.068 0-.135.067-.135.134v.908c0 .068.067.135.135.135h.588zm0 9.788a.145.145 0 00.135-.135l-.017-4.456.017-3.936c0-.067-.067-.134-.135-.134h-.588c-.068 0-.135.067-.135.134l.034 3.952-.034 4.44c0 .068.067.135.135.135h.588zm5.454-.572c0-.067-.067-.118-.134-.101a4.318 4.318 0 01-.858.084c-.84 0-1.194-.386-1.194-1.681v-5.702h2.052c.067 0 .134-.067.134-.134v-.421c0-.067-.067-.134-.134-.134H43.33l.017-2.035a.145.145 0 00-.135-.135h-.588a.144.144 0 00-.135.135l.034 2.035h-.992c-.068 0-.135.067-.135.134v.421c0 .067.067.134.135.134h.992l-.017 5.702c0 1.833.84 2.405 1.968 2.405.302 0 .656-.068.908-.135a.164.164 0 00.134-.168v-.404zm7.03-2.489c-.067 0-.151.051-.151.135-.286 1.53-1.178 2.455-2.742 2.455-2.051 0-3.077-1.429-3.077-3.868l6.542-.017c.067 0 .134-.067.134-.134-.05-2.759-1.43-4.356-3.716-4.356-2.338 0-3.801 1.883-3.801 4.541 0 2.657 1.345 4.49 3.901 4.49 2.07 0 3.246-1.211 3.566-3.111 0-.068-.05-.135-.118-.135h-.538zm-.185-1.968h-5.752c.202-1.934 1.211-3.161 2.927-3.161 1.833 0 2.808 1.412 2.825 3.161zm11.107 1.968c-.067 0-.151.051-.151.135-.286 1.53-1.178 2.455-2.742 2.455-2.052 0-3.077-1.429-3.077-3.868l6.542-.017c.067 0 .134-.067.134-.134-.05-2.759-1.43-4.356-3.716-4.356-2.338 0-3.801 1.883-3.801 4.541 0 2.657 1.345 4.49 3.902 4.49 2.068 0 3.245-1.211 3.565-3.111 0-.068-.05-.135-.118-.135h-.538zm-.185-1.968h-5.752c.202-1.934 1.211-3.161 2.927-3.161 1.833 0 2.808 1.412 2.825 3.161zM71.252 112c.067 0 .1-.067.067-.118l-2.994-4.473 2.607-3.953c.034-.05 0-.117-.067-.117h-.605a.233.233 0 00-.202.117l-2.237 3.414-2.304-3.414a.233.233 0 00-.202-.117h-.69c-.067 0-.1.067-.067.117l2.674 3.953-2.977 4.473c-.033.051 0 .118.068.118h.622c.084 0 .168-.05.202-.118l2.59-3.902 2.607 3.902a.232.232 0 00.201.118h.707zm6.965-3.061c-.067 0-.152.051-.152.135-.285 1.53-1.177 2.455-2.741 2.455-2.052 0-3.078-1.429-3.078-3.868l6.543-.017c.067 0 .134-.067.134-.134-.05-2.759-1.43-4.356-3.717-4.356-2.337 0-3.8 1.883-3.8 4.541 0 2.657 1.345 4.49 3.901 4.49 2.069 0 3.246-1.211 3.566-3.111 0-.068-.05-.135-.118-.135h-.538zm-.185-1.968H72.28c.202-1.934 1.21-3.161 2.926-3.161 1.834 0 2.809 1.412 2.826 3.161zm9.166 1.968c.017-.067-.05-.134-.118-.134h-.521c-.067 0-.135.067-.151.134-.135 1.631-1.195 2.59-2.809 2.59-2.018-.017-2.943-1.48-2.943-3.834 0-2.355.942-3.869 2.943-3.869 1.48 0 2.49.791 2.724 2.321.017.084.085.135.152.135h.504c.068 0 .135-.067.118-.135-.185-1.799-1.413-2.993-3.498-2.993-2.49 0-3.8 1.833-3.8 4.541 0 2.707 1.31 4.49 3.783 4.49 2.22 0 3.465-1.362 3.616-3.246zm6.817 1.278l-.033 1.648c0 .068.067.135.134.135h.572a.145.145 0 00.135-.135l-.034-4.725.034-3.667c0-.067-.068-.134-.135-.134H94.1c-.067 0-.134.067-.134.134l.017 3.582v1.884c-.572 1.581-1.447 2.556-2.742 2.556-1.311 0-2.186-.79-2.186-2.875v-1.565l.034-3.582c0-.067-.068-.134-.135-.134h-.589c-.067 0-.134.067-.134.134l.017 3.582v1.649c0 2.371 1.076 3.498 2.825 3.498 1.497 0 2.456-1.009 2.943-1.985zm6.046 1.211c0-.067-.068-.118-.135-.101a4.318 4.318 0 01-.858.084c-.84 0-1.194-.386-1.194-1.681v-5.702h2.052c.067 0 .135-.067.135-.134v-.421c0-.067-.068-.134-.135-.134h-2.052l.017-2.035a.145.145 0 00-.135-.135h-.588a.145.145 0 00-.135.135l.034 2.035h-.992c-.068 0-.135.067-.135.134v.421c0 .067.067.134.135.134h.992l-.017 5.702c0 1.833.841 2.405 1.968 2.405.303 0 .656-.068.908-.135a.164.164 0 00.135-.168v-.404zm1.838-9.216c.067 0 .134-.067.134-.135v-.908a.144.144 0 00-.134-.134h-.589a.144.144 0 00-.134.134v.908c0 .068.067.135.134.135h.589zm0 9.788c.067 0 .134-.067.134-.135l-.017-4.456.017-3.936a.144.144 0 00-.134-.134h-.589a.144.144 0 00-.134.134l.033 3.952-.033 4.44c0 .068.067.135.134.135h.589zm9.187-4.322c0-2.708-1.362-4.524-3.868-4.524-2.489 0-3.868 1.816-3.868 4.524 0 2.707 1.379 4.507 3.868 4.507 2.506 0 3.868-1.816 3.868-4.507zm-6.878 0c0-2.355 1.009-3.852 3.01-3.868 2.002 0 3.011 1.53 3.011 3.868 0 2.354-.993 3.851-3.011 3.851-2.001 0-3.01-1.497-3.01-3.851zm8.825 4.322c.067 0 .134-.067.134-.135l-.017-3.582V106.4c.572-1.581 1.447-2.557 2.742-2.557 1.312 0 2.186.791 2.186 2.876v1.564l-.034 3.582c0 .068.068.135.135.135h.589c.067 0 .134-.067.134-.135l-.017-3.582v-1.648c0-2.371-1.076-3.498-2.825-3.498-1.497 0-2.456 1.009-2.943 1.984l.033-1.648a.144.144 0 00-.134-.134h-.572c-.067 0-.135.067-.135.134l.034 4.726-.034 3.666c0 .068.068.135.135.135h.589zm7.962 0c.067 0 .135-.067.135-.135v-.958c0-.067-.068-.135-.135-.135h-.79c-.068 0-.135.068-.135.135v.958c0 .068.067.135.135.135h.79z" fill="#fff"/></svg>