<svg width="138" height="38" viewBox="0 0 138 38" fill="none" xmlns="http://www.w3.org/2000/svg"><path d="M3.073 9a.102.102 0 00.094-.095l-.035-3.97.023-3.688h2.317a.102.102 0 00.094-.094V.822a.102.102 0 00-.094-.095H.212a.102.102 0 00-.094.095v.33c0 .048.047.095.095.095h2.316l.036 3.688-.036 3.97c0 .048.047.095.095.095h.449zm2.491 0a.102.102 0 00.095-.095l-.024-3.687c.225-1.3 1.088-1.867 1.962-1.867.177 0 .32.012.437.047.048.012.095-.023.095-.07v-.32a.127.127 0 00-.095-.118 1.474 1.474 0 00-.413-.047c-.827 0-1.596.46-1.997 1.288l.035-1.123a.102.102 0 00-.095-.094h-.413a.102.102 0 00-.095.094l.036 2.848-.036 3.05c0 .047.048.094.095.094h.413zm2.963-3.096c0-1.478.614-2.648 1.985-2.648 1.23 0 1.95 1.029 1.938 2.766-.011 1.737-.78 2.623-1.961 2.623-1.36 0-1.962-1.217-1.962-2.741zM12.899 9a.102.102 0 00.095-.095l-.035-3.06.035-2.837a.102.102 0 00-.095-.094h-.401a.102.102 0 00-.095.094l.024 1.1c-.39-.852-1.088-1.313-2.045-1.313-1.572 0-2.434 1.419-2.434 3.168 0 1.772.839 3.143 2.434 3.143.97 0 1.667-.508 2.045-1.347l-.024 1.146c0 .048.047.095.095.095h.401zm1.525-3.096c0-1.478.615-2.671 1.986-2.671 1.229 0 1.95 1.052 1.938 2.789-.012 1.749-.804 2.635-1.962 2.635-1.36 0-1.962-1.229-1.962-2.753zM18.797 9a.102.102 0 00.095-.095l-.024-4.857.024-3.226a.102.102 0 00-.095-.095h-.414a.102.102 0 00-.094.095L18.3 4.06c-.39-.827-1.087-1.276-2.02-1.276-1.572 0-2.435 1.43-2.435 3.179 0 1.772.84 3.155 2.435 3.155.969 0 1.666-.508 2.044-1.347L18.3 8.905c0 .048.048.095.095.095h.402zm1.75-6.878a.102.102 0 00.094-.095V1.39a.102.102 0 00-.095-.094h-.413a.102.102 0 00-.095.094v.638c0 .048.047.095.095.095h.413zm0 6.878a.102.102 0 00.094-.095l-.012-3.131.012-2.766a.102.102 0 00-.095-.094h-.413a.102.102 0 00-.095.094l.024 2.777-.024 3.12c0 .048.047.095.095.095h.413zm1.776 0a.102.102 0 00.094-.095l-.012-2.517V5.065c.402-1.111 1.017-1.797 1.927-1.797.921 0 1.536.556 1.536 2.021v1.1l-.024 2.516c0 .048.048.095.095.095h.413a.102.102 0 00.095-.095l-.012-2.517V5.23c0-1.666-.756-2.458-1.985-2.458-1.052 0-1.726.709-2.068 1.394l.023-1.158a.102.102 0 00-.094-.094h-.402a.102.102 0 00-.095.094l.024 3.321-.024 2.576c0 .048.048.095.095.095h.414zm5.512-3.05c0-1.57.65-2.705 1.974-2.705 1.229 0 1.95 1.04 1.938 2.765-.012 1.714-.78 2.505-1.88 2.517-1.37.012-2.032-.969-2.032-2.576zm4.444 2.435l-.012-3.604.023-1.773a.102.102 0 00-.094-.094h-.39a.102.102 0 00-.095.094l.024 1.123c-.378-.863-1.075-1.324-2.009-1.324-1.62 0-2.47 1.407-2.47 3.156s.85 3.013 2.482 3.013c.922 0 1.607-.46 1.985-1.264v.673c0 1.702-.756 2.435-1.938 2.435-.934 0-1.702-.402-1.82-1.37-.012-.06-.059-.095-.106-.095h-.402c-.047 0-.095.047-.083.094.107 1.3 1.158 1.844 2.423 1.832 1.536 0 2.494-.97 2.482-2.896zm3.57-6.263a.102.102 0 00.095-.095V1.39a.102.102 0 00-.094-.094h-.414a.102.102 0 00-.094.094v.638c0 .048.047.095.094.095h.414zm0 6.878a.102.102 0 00.095-.095l-.011-3.131.011-2.766a.102.102 0 00-.094-.094h-.414a.102.102 0 00-.094.094l.023 2.777-.023 3.12c0 .048.047.095.094.095h.414zm1.777 0a.102.102 0 00.095-.095l-.012-2.517V5.065c.402-1.111 1.016-1.797 1.926-1.797.922 0 1.537.556 1.537 2.021v1.1l-.024 2.516c0 .048.047.095.094.095h.414a.102.102 0 00.095-.095l-.012-2.517V5.23c0-1.666-.756-2.458-1.986-2.458-1.051 0-1.725.709-2.068 1.394l.024-1.158a.102.102 0 00-.095-.094h-.401a.102.102 0 00-.095.094l.024 3.321-.024 2.576c0 .048.047.095.094.095h.414zm9.748-5.992c.024-.047-.012-.094-.06-.094h-.4c-.06 0-.107.035-.13.094l-1.986 5.496-2.01-5.496c-.023-.059-.07-.094-.13-.094h-.46c-.048 0-.083.047-.06.082l2.258 5.933c.023.047.07.083.13.083h.532c.059 0 .106-.036.13-.095l2.186-5.909zm5.55 2.955c0-1.903-.957-3.18-2.718-3.18-1.75 0-2.718 1.277-2.718 3.18 0 1.902.969 3.167 2.718 3.167 1.76 0 2.718-1.276 2.718-3.167zm-4.834 0c0-1.655.71-2.707 2.116-2.718 1.406 0 2.115 1.075 2.115 2.718 0 1.654-.697 2.706-2.115 2.706-1.407 0-2.116-1.052-2.116-2.706zM54.34 9a.102.102 0 00.094-.095l-.023-4.148.023-3.935a.102.102 0 00-.094-.095h-.414a.102.102 0 00-.094.095l.035 3.959-.035 4.124c0 .048.047.095.094.095h.414zm6.007-5.992c.024-.047-.011-.094-.059-.094h-.402c-.059 0-.106.035-.13.094L57.77 8.504l-2.01-5.496c-.023-.059-.07-.094-.13-.094h-.46c-.047 0-.083.047-.06.082l2.258 5.933c.024.047.071.083.13.083h.532c.059 0 .106-.036.13-.095l2.186-5.909zm4.9 3.841c-.047 0-.106.036-.106.095-.2 1.075-.827 1.725-1.926 1.725-1.442 0-2.163-1.004-2.163-2.718l4.597-.012a.102.102 0 00.095-.094c-.036-1.939-1.005-3.061-2.612-3.061-1.643 0-2.671 1.323-2.671 3.19 0 1.868.945 3.156 2.742 3.156 1.453 0 2.28-.85 2.505-2.186 0-.048-.035-.095-.082-.095h-.379zm-.13-1.383h-4.041c.141-1.359.85-2.221 2.056-2.221 1.288 0 1.974.992 1.985 2.221zm6.088 1.868c0-2.53-4.196-1.1-4.196-2.896 0-.803.65-1.205 1.655-1.205.98 0 1.76.402 1.82 1.382 0 .048.047.095.094.095h.355a.102.102 0 00.094-.095c-.059-1.264-1.075-1.82-2.352-1.82-1.3 0-2.233.568-2.233 1.667 0 2.363 4.195.933 4.195 2.907 0 .84-.744 1.312-1.784 1.312-1.253 0-1.939-.556-1.974-1.75a.102.102 0 00-.094-.094h-.379a.102.102 0 00-.094.095c.035 1.489 1.004 2.186 2.529 2.186 1.323 0 2.364-.662 2.364-1.784zm7.363 0c0-2.53-4.196-1.1-4.196-2.896 0-.803.65-1.205 1.655-1.205.98 0 1.76.402 1.82 1.382 0 .048.047.095.094.095h.355a.102.102 0 00.094-.095c-.059-1.264-1.075-1.82-2.351-1.82-1.3 0-2.234.568-2.234 1.667 0 2.363 4.195.933 4.195 2.907 0 .84-.744 1.312-1.784 1.312-1.253 0-1.938-.556-1.974-1.75a.102.102 0 00-.094-.094h-.378a.102.102 0 00-.095.095c.035 1.489 1.005 2.186 2.53 2.186 1.323 0 2.363-.662 2.363-1.784zm1.382-5.212a.102.102 0 00.094-.095V1.39a.102.102 0 00-.094-.094h-.414a.102.102 0 00-.094.094v.638c0 .048.047.095.094.095h.414zm0 6.878a.102.102 0 00.094-.095l-.012-3.131.012-2.766a.102.102 0 00-.094-.094h-.414a.102.102 0 00-.094.094l.023 2.777-.023 3.12c0 .048.047.095.094.095h.414zm1.599-3.05c0-1.57.65-2.705 1.973-2.705 1.23 0 1.95 1.04 1.939 2.765-.012 1.714-.78 2.505-1.88 2.517-1.37.012-2.032-.969-2.032-2.576zm4.443 2.435l-.011-3.604.023-1.773a.102.102 0 00-.094-.094h-.39a.102.102 0 00-.095.094l.024 1.123c-.378-.863-1.076-1.324-2.01-1.324-1.618 0-2.47 1.407-2.47 3.156s.852 3.013 2.483 3.013c.921 0 1.607-.46 1.985-1.264v.673c0 1.702-.756 2.435-1.938 2.435-.934 0-1.702-.402-1.82-1.37-.012-.06-.06-.095-.107-.095h-.401c-.048 0-.095.047-.083.094.106 1.3 1.158 1.844 2.423 1.832 1.536 0 2.493-.97 2.481-2.896zM87.6 9a.102.102 0 00.094-.095l-.012-2.517V5.065c.402-1.111 1.017-1.797 1.927-1.797.921 0 1.536.556 1.536 2.021v1.1l-.024 2.516c0 .048.048.095.095.095h.413a.102.102 0 00.095-.095l-.012-2.517V5.23c0-1.666-.756-2.458-1.985-2.458-1.052 0-1.726.709-2.068 1.394l.023-1.158a.102.102 0 00-.094-.094h-.402a.102.102 0 00-.095.094l.024 3.321-.024 2.576c0 .048.048.095.095.095h.413zm5.737-6.878a.102.102 0 00.094-.095V1.39a.102.102 0 00-.094-.094h-.414a.102.102 0 00-.095.094v.638c0 .048.048.095.095.095h.414zm0 6.878a.102.102 0 00.094-.095l-.012-3.131.012-2.766a.102.102 0 00-.094-.094h-.414a.102.102 0 00-.095.094l.024 2.777-.024 3.12c0 .048.048.095.095.095h.414zm2.426-5.614h1.335a.102.102 0 00.095-.094v-.284a.102.102 0 00-.095-.094h-1.335v-.615c0-.91.33-1.288.863-1.288.165 0 .33.024.484.07.047.013.095-.023.095-.07V.739a.127.127 0 00-.095-.118 2.138 2.138 0 00-.579-.083c-.615.012-1.335.437-1.335 1.726v.65h-.887a.102.102 0 00-.094.094v.284c0 .047.047.094.094.094h.887v2.825l-.024 2.694c0 .048.047.095.094.095h.426a.102.102 0 00.095-.095l-.024-2.694V3.386zm2.721-1.264a.102.102 0 00.095-.095V1.39a.102.102 0 00-.095-.094h-.414a.102.102 0 00-.094.094v.638c0 .048.047.095.094.095h.414zm0 6.878a.102.102 0 00.095-.095l-.012-3.131.012-2.766a.102.102 0 00-.095-.094h-.414a.102.102 0 00-.094.094l.023 2.777-.023 3.12c0 .048.047.095.094.095h.414zm6.22-2.15c.012-.048-.036-.095-.083-.095h-.366c-.048 0-.095.047-.107.094-.094 1.146-.839 1.82-1.973 1.82-1.418-.012-2.068-1.04-2.068-2.694 0-1.655.661-2.719 2.068-2.719 1.04 0 1.749.556 1.914 1.631.012.06.059.095.107.095h.354c.047 0 .095-.047.083-.095-.13-1.264-.993-2.103-2.458-2.103-1.749 0-2.671 1.288-2.671 3.19 0 1.903.922 3.156 2.659 3.156 1.56 0 2.434-.957 2.541-2.28zm1.115-.946c0-1.478.614-2.648 1.985-2.648 1.229 0 1.95 1.029 1.939 2.766-.012 1.737-.78 2.623-1.962 2.623-1.359 0-1.962-1.217-1.962-2.741zM110.192 9c.047 0 .094-.047.094-.095l-.035-3.06.035-2.837c0-.047-.047-.094-.094-.094h-.402c-.047 0-.095.047-.095.094l.024 1.1c-.39-.852-1.087-1.313-2.045-1.313-1.571 0-2.434 1.419-2.434 3.168 0 1.772.839 3.143 2.434 3.143.969 0 1.667-.508 2.045-1.347l-.024 1.146c0 .048.048.095.095.095h.402zm1.702 0c.047 0 .094-.047.094-.095l-.012-2.517V5.065c.402-1.111 1.017-1.797 1.927-1.797.922 0 1.536.556 1.536 2.021v1.1l-.023 2.516c0 .048.047.095.094.095h.414c.047 0 .094-.047.094-.095l-.012-2.517V5.23c0-1.666-.756-2.458-1.985-2.458-1.052 0-1.725.709-2.068 1.394l.023-1.158c0-.047-.047-.094-.094-.094h-.402c-.047 0-.094.047-.094.094l.023 3.321-.023 2.576c0 .048.047.095.094.095h.414zm7.723-.402c0-.047-.047-.083-.095-.07-.165.035-.39.058-.602.058-.591 0-.84-.271-.84-1.181V3.398h1.442a.102.102 0 00.095-.094v-.296a.102.102 0 00-.095-.094h-1.442l.012-1.43c0-.048-.047-.095-.094-.095h-.414c-.047 0-.094.047-.094.095l.023 1.43h-.697c-.047 0-.095.047-.095.094v.296c0 .047.048.094.095.094h.697l-.012 4.007c0 1.288.591 1.69 1.383 1.69.213 0 .461-.048.638-.095a.116.116 0 00.095-.118v-.284zm3.148.402a.102.102 0 00.095-.095l-.024-3.687c.225-1.3 1.087-1.867 1.962-1.867.177 0 .319.012.437.047.048.012.095-.023.095-.07v-.32a.127.127 0 00-.095-.118 1.472 1.472 0 00-.413-.047c-.828 0-1.596.46-1.998 1.288l.036-1.123a.102.102 0 00-.095-.094h-.413a.102.102 0 00-.095.094l.036 2.848-.036 3.05c0 .047.047.094.095.094h.413zm3.787-6.878c.047 0 .095-.047.095-.095V1.39c0-.047-.048-.094-.095-.094h-.413a.102.102 0 00-.095.094v.638c0 .048.047.095.095.095h.413zm0 6.878c.047 0 .095-.047.095-.095l-.012-3.131.012-2.766c0-.047-.048-.094-.095-.094h-.413a.102.102 0 00-.095.094l.024 2.777-.024 3.12c0 .048.047.095.095.095h.413zm5.889-1.666c0-2.53-4.195-1.1-4.195-2.896 0-.803.65-1.205 1.654-1.205.981 0 1.761.402 1.82 1.382 0 .048.047.095.095.095h.354a.102.102 0 00.095-.095c-.059-1.264-1.076-1.82-2.352-1.82-1.3 0-2.234.568-2.234 1.667 0 2.363 4.196.933 4.196 2.907 0 .84-.745 1.312-1.785 1.312-1.252 0-1.938-.556-1.973-1.75 0-.046-.048-.094-.095-.094h-.378c-.047 0-.095.048-.095.095.036 1.489 1.005 2.186 2.529 2.186 1.324 0 2.364-.662 2.364-1.784zm4.348 1.583a.165.165 0 00.142.083h.497c.047 0 .071-.047.047-.083l-2.328-3.793 2.092-2.14c.035-.023.011-.07-.024-.07h-.52a.236.236 0 00-.166.07l-2.694 2.801v-.874l.024-4.09c0-.046-.048-.094-.095-.094h-.414c-.047 0-.094.048-.094.095l.035 4.1-.035 3.995c0 .048.047.095.094.095h.414c.047 0 .095-.047.095-.095l-.012-2.47.874-.898 1.678 2.706.39.662zM5.744 19.963c0-1.903-.958-3.18-2.719-3.18-1.749 0-2.718 1.277-2.718 3.18 0 1.902.97 3.167 2.718 3.167 1.761 0 2.719-1.276 2.719-3.167zm-4.834 0c0-1.655.71-2.707 2.115-2.719 1.407 0 2.116 1.076 2.116 2.719 0 1.654-.697 2.706-2.116 2.706C1.62 22.67.91 21.617.91 19.963zm6.505-2.577H8.75a.102.102 0 00.095-.094v-.284a.102.102 0 00-.095-.094H7.415v-.615c0-.91.33-1.288.863-1.288.165 0 .33.024.484.07.048.013.095-.023.095-.07v-.272a.127.127 0 00-.095-.118 2.136 2.136 0 00-.579-.083c-.614.012-1.335.438-1.335 1.726v.65H5.96a.102.102 0 00-.094.094v.284c0 .047.047.094.094.094h.887v2.825l-.024 2.695c0 .047.047.094.095.094h.425a.102.102 0 00.095-.095l-.024-2.694v-2.825zM12.005 23a.102.102 0 00.095-.095l-.023-4.148.023-3.935a.102.102 0 00-.094-.095h-.414a.102.102 0 00-.094.095l.035 3.959-.035 4.125c0 .047.047.094.094.094h.414zm6.446-3.037c0-1.903-.958-3.18-2.719-3.18-1.749 0-2.718 1.277-2.718 3.18 0 1.902.97 3.167 2.718 3.167 1.761 0 2.719-1.276 2.719-3.167zm-4.834 0c0-1.655.709-2.707 2.115-2.719 1.407 0 2.116 1.076 2.116 2.719 0 1.654-.697 2.706-2.116 2.706-1.406 0-2.115-1.052-2.115-2.706zm10.29 1.37c0-2.528-4.195-1.098-4.195-2.895 0-.803.65-1.205 1.655-1.205.98 0 1.76.401 1.82 1.383 0 .047.047.094.094.094h.355a.102.102 0 00.094-.095c-.059-1.264-1.075-1.82-2.351-1.82-1.3 0-2.234.568-2.234 1.667 0 2.364 4.195.933 4.195 2.907 0 .84-.744 1.312-1.784 1.312-1.253 0-1.938-.556-1.974-1.75a.102.102 0 00-.094-.094h-.378a.102.102 0 00-.095.095c.035 1.489 1.005 2.186 2.53 2.186 1.323 0 2.363-.662 2.363-1.784zm5.448 0c0-2.528-4.195-1.098-4.195-2.895 0-.803.65-1.205 1.654-1.205.981 0 1.761.401 1.82 1.383 0 .047.047.094.095.094h.354a.102.102 0 00.095-.095c-.06-1.264-1.076-1.82-2.352-1.82-1.3 0-2.234.568-2.234 1.667 0 2.364 4.196.933 4.196 2.907 0 .84-.745 1.312-1.785 1.312-1.252 0-1.938-.556-1.973-1.75a.102.102 0 00-.095-.094h-.378a.102.102 0 00-.095.095c.036 1.489 1.005 2.186 2.53 2.186 1.323 0 2.363-.662 2.363-1.784zm3.004-1.43c0-1.477.615-2.647 1.986-2.647 1.229 0 1.95 1.029 1.938 2.766-.012 1.737-.78 2.623-1.962 2.623-1.36 0-1.962-1.217-1.962-2.741zM36.732 23a.102.102 0 00.095-.095l-.036-3.06.036-2.837a.102.102 0 00-.095-.094h-.402a.102.102 0 00-.094.094l.023 1.1c-.39-.852-1.087-1.313-2.044-1.313-1.572 0-2.435 1.419-2.435 3.168 0 1.772.84 3.143 2.435 3.143.969 0 1.666-.508 2.044-1.347l-.023 1.146c0 .048.047.095.094.095h.402zm1.702 0a.102.102 0 00.095-.095l-.012-2.517v-1.324c.402-1.11 1.016-1.796 1.926-1.796.922 0 1.537.556 1.537 2.021v1.1l-.024 2.517c0 .047.047.094.094.094h.414a.102.102 0 00.095-.095l-.012-2.517V19.23c0-1.666-.757-2.458-1.986-2.458-1.051 0-1.725.709-2.068 1.394l.024-1.158a.102.102 0 00-.095-.094h-.402a.102.102 0 00-.094.094l.023 3.321-.023 2.576c0 .048.047.095.094.095h.414zm5.513-3.096c0-1.478.614-2.671 1.985-2.671 1.23 0 1.95 1.052 1.938 2.789-.012 1.749-.803 2.635-1.962 2.635-1.359 0-1.961-1.229-1.961-2.753zM48.319 23a.102.102 0 00.095-.095l-.024-4.857.024-3.226a.102.102 0 00-.095-.095h-.413a.102.102 0 00-.095.095l.012 3.238c-.39-.827-1.087-1.276-2.021-1.276-1.572 0-2.434 1.43-2.434 3.179 0 1.772.839 3.155 2.434 3.155.97 0 1.666-.508 2.045-1.347l-.024 1.134c0 .048.047.095.094.095h.402zm3.665-6.878a.102.102 0 00.095-.095v-.638a.102.102 0 00-.095-.095h-.413a.102.102 0 00-.095.095v.638c0 .047.048.095.095.095h.413zm0 6.878a.102.102 0 00.095-.095l-.012-3.131.012-2.766a.102.102 0 00-.095-.094h-.413a.102.102 0 00-.095.094l.024 2.777-.024 3.12c0 .048.048.095.095.095h.413zm5.89-1.666c0-2.53-4.196-1.1-4.196-2.896 0-.803.65-1.205 1.655-1.205.98 0 1.76.401 1.82 1.383 0 .047.047.094.094.094h.355a.102.102 0 00.094-.095c-.059-1.264-1.075-1.82-2.352-1.82-1.3 0-2.233.568-2.233 1.667 0 2.364 4.195.933 4.195 2.907 0 .84-.744 1.312-1.784 1.312-1.253 0-1.938-.556-1.974-1.75a.102.102 0 00-.095-.094h-.378a.102.102 0 00-.094.095c.035 1.489 1.004 2.186 2.529 2.186 1.324 0 2.364-.662 2.364-1.784zM61.123 23a.102.102 0 00.095-.095l-.012-2.517v-1.324c.402-1.11 1.016-1.796 1.926-1.796.922 0 1.536.556 1.536 2.021v1.1l-.023 2.517c0 .047.047.094.094.094h.414a.102.102 0 00.095-.095l-.012-2.517V19.23c0-1.666-.757-2.458-1.986-2.458-1.051 0-1.725.709-2.068 1.394l.024-1.158a.102.102 0 00-.095-.094h-.402a.102.102 0 00-.094.094l.023 3.321-.023 2.576c0 .048.047.095.094.095h.414zm10.37-3.037c0-1.903-.957-3.18-2.718-3.18-1.75 0-2.719 1.277-2.719 3.18 0 1.902.97 3.167 2.719 3.167 1.76 0 2.718-1.276 2.718-3.167zm-4.834 0c0-1.655.71-2.707 2.116-2.719 1.406 0 2.115 1.076 2.115 2.719 0 1.654-.697 2.706-2.115 2.706-1.407 0-2.116-1.052-2.116-2.706zm8.12 2.635c0-.047-.048-.082-.095-.07-.166.035-.39.058-.603.058-.59 0-.84-.271-.84-1.181v-4.007h1.443a.102.102 0 00.094-.094v-.296a.102.102 0 00-.094-.094h-1.442l.012-1.43a.102.102 0 00-.095-.095h-.413a.102.102 0 00-.095.095l.024 1.43h-.698a.102.102 0 00-.094.094v.296c0 .047.047.094.094.094h.698l-.012 4.006c0 1.289.59 1.69 1.382 1.69.213 0 .461-.047.639-.094a.115.115 0 00.094-.118v-.284zm7.272-1.264c0-2.53-4.195-1.1-4.195-2.896 0-.803.65-1.205 1.654-1.205.981 0 1.761.401 1.82 1.383 0 .047.048.094.095.094h.354a.102.102 0 00.095-.095c-.06-1.264-1.076-1.82-2.352-1.82-1.3 0-2.233.568-2.233 1.667 0 2.364 4.195.933 4.195 2.907 0 .84-.745 1.312-1.785 1.312-1.252 0-1.938-.556-1.973-1.75a.102.102 0 00-.095-.094h-.378a.102.102 0 00-.095.095c.036 1.489 1.005 2.186 2.53 2.186 1.323 0 2.363-.662 2.363-1.784zm4.833.413l-.023 1.159c0 .047.047.094.094.094h.402a.102.102 0 00.094-.095l-.023-3.32.023-2.577a.102.102 0 00-.094-.094h-.414a.102.102 0 00-.094.094l.012 2.518v1.323c-.402 1.111-1.017 1.796-1.927 1.796-.922 0-1.536-.555-1.536-2.02v-1.1l.023-2.517a.102.102 0 00-.094-.094h-.414a.102.102 0 00-.094.094l.012 2.518v1.158c0 1.666.756 2.458 1.985 2.458 1.052 0 1.725-.71 2.068-1.395zm2.239-5.625a.102.102 0 00.095-.095v-.638a.102.102 0 00-.095-.095h-.414a.102.102 0 00-.094.095v.638c0 .047.047.095.094.095h.414zm0 6.878a.102.102 0 00.095-.095l-.012-3.131.012-2.766a.102.102 0 00-.095-.094h-.414a.102.102 0 00-.094.094l.023 2.777-.023 3.12c0 .048.047.095.094.095h.414zm3.833-.402c0-.047-.048-.082-.095-.07-.165.035-.39.058-.603.058-.59 0-.839-.271-.839-1.181v-4.007h1.442a.102.102 0 00.095-.094v-.296a.102.102 0 00-.095-.094H91.42l.012-1.43a.102.102 0 00-.094-.095h-.414a.102.102 0 00-.095.095l.024 1.43h-.697a.102.102 0 00-.095.094v.296c0 .047.047.094.095.094h.697l-.012 4.006c0 1.289.591 1.69 1.383 1.69.213 0 .46-.047.638-.094a.115.115 0 00.095-.118v-.284zm.732-2.694c0-1.478.615-2.648 1.986-2.648 1.229 0 1.95 1.029 1.938 2.766-.012 1.737-.78 2.623-1.962 2.623-1.36 0-1.962-1.217-1.962-2.741zM98.062 23a.102.102 0 00.094-.095l-.035-3.06.035-2.837a.102.102 0 00-.094-.094h-.402a.102.102 0 00-.094.094l.023 1.1c-.39-.852-1.087-1.313-2.044-1.313-1.572 0-2.435 1.419-2.435 3.168 0 1.772.84 3.143 2.435 3.143.969 0 1.666-.508 2.044-1.347l-.023 1.146c0 .048.047.095.094.095h.402zm6.24-3.06c0-1.774-.851-3.145-2.434-3.145-.946 0-1.643.485-2.033 1.289l.012-3.262a.102.102 0 00-.095-.095h-.413a.102.102 0 00-.095.095l.035 3.309-.035 4.763c0 .047.047.094.094.094h.402a.102.102 0 00.095-.094l-.024-1.1c.39.863 1.087 1.324 2.045 1.324 1.572 0 2.446-1.43 2.446-3.179zm-4.514-.06c.011-1.75.803-2.624 1.961-2.624 1.359 0 1.95 1.218 1.95 2.742 0 1.49-.602 2.66-1.961 2.66-1.241 0-1.962-1.029-1.95-2.778zm5.921 3.12c.047 0 .094-.047.094-.095l-.023-4.148.023-3.935c0-.047-.047-.095-.094-.095h-.414c-.047 0-.094.047-.094.095l.035 3.959-.035 4.125c0 .047.047.094.094.094h.414zm5.794-2.15c-.047 0-.106.034-.106.094-.201 1.075-.827 1.725-1.926 1.725-1.442 0-2.163-1.005-2.163-2.718l4.597-.012a.102.102 0 00.095-.095c-.036-1.938-1.005-3.06-2.612-3.06-1.643 0-2.671 1.323-2.671 3.19 0 1.868.946 3.156 2.742 3.156 1.454 0 2.281-.85 2.505-2.186 0-.048-.035-.095-.082-.095h-.379zm-.13-1.384h-4.041c.141-1.359.851-2.222 2.056-2.222 1.288 0 1.974.993 1.985 2.222zm4.495-2.08h1.335c.047 0 .095-.047.095-.094v-.284c0-.047-.048-.094-.095-.094h-1.335v-.615c0-.91.33-1.288.862-1.288.166 0 .331.024.485.07a.075.075 0 00.094-.07v-.272a.127.127 0 00-.094-.118 2.143 2.143 0 00-.579-.083c-.615.012-1.336.438-1.336 1.726v.65h-.886c-.047 0-.095.047-.095.094v.284c0 .047.048.094.095.094h.886v2.825l-.023 2.695c0 .047.047.094.094.094h.426c.047 0 .094-.047.094-.095l-.023-2.694v-2.825zm6.811 2.577c0-1.903-.957-3.18-2.718-3.18-1.749 0-2.718 1.277-2.718 3.18 0 1.902.969 3.167 2.718 3.167 1.761 0 2.718-1.276 2.718-3.167zm-4.834 0c0-1.655.709-2.707 2.116-2.719 1.406 0 2.115 1.076 2.115 2.719 0 1.654-.697 2.706-2.115 2.706-1.407 0-2.116-1.052-2.116-2.706zm6.19 3.037c.047 0 .094-.047.094-.095l-.023-3.687c.224-1.3 1.087-1.867 1.962-1.867.177 0 .319.012.437.047a.075.075 0 00.094-.07v-.32a.127.127 0 00-.094-.118 1.473 1.473 0 00-.414-.047c-.827 0-1.595.46-1.997 1.288l.035-1.123c0-.047-.047-.094-.094-.094h-.414c-.047 0-.094.047-.094.094l.035 2.848-.035 3.05c0 .047.047.094.094.094h.414zm5.27-3.096c0-1.478.615-2.648 1.986-2.648 1.229 0 1.95 1.029 1.938 2.766-.012 1.737-.78 2.623-1.962 2.623-1.359 0-1.962-1.217-1.962-2.741zM133.678 23c.047 0 .094-.047.094-.095l-.035-3.06.035-2.837c0-.047-.047-.094-.094-.094h-.402c-.047 0-.094.047-.094.094l.023 1.1c-.39-.852-1.087-1.313-2.044-1.313-1.572 0-2.435 1.419-2.435 3.168 0 1.772.839 3.143 2.435 3.143.969 0 1.666-.508 2.044-1.347l-.023 1.146c0 .048.047.095.094.095h.402zm1.749 0a.102.102 0 00.095-.095l-.024-4.148.024-3.935a.101.101 0 00-.095-.095h-.413a.101.101 0 00-.095.095l.036 3.959-.036 4.125c0 .047.047.094.095.094h.413zm1.812 0a.102.102 0 00.095-.095l-.024-4.148.024-3.935a.101.101 0 00-.095-.095h-.413a.101.101 0 00-.095.095l.036 3.959-.036 4.125c0 .047.047.094.095.094h.413zM1.111 30.122a.102.102 0 00.094-.095v-.638a.102.102 0 00-.094-.095H.697a.102.102 0 00-.094.095v.638c0 .047.047.095.094.095h.414zm0 6.878a.102.102 0 00.094-.094l-.011-3.132.011-2.766a.102.102 0 00-.094-.094H.697a.102.102 0 00-.094.094l.023 2.777-.023 3.12c0 .048.047.095.094.095h.414zm1.776 0a.102.102 0 00.095-.094l-.012-2.518v-1.323c.402-1.111 1.016-1.797 1.926-1.797.922 0 1.537.556 1.537 2.021v1.1l-.024 2.517c0 .047.047.094.095.094h.413a.102.102 0 00.095-.094L7 34.388V33.23c0-1.666-.756-2.458-1.986-2.458-1.051 0-1.725.709-2.068 1.394l.024-1.158a.102.102 0 00-.095-.094h-.401a.102.102 0 00-.095.094l.024 3.321-.024 2.577c0 .047.047.094.095.094h.413zm9.748-5.992c.024-.047-.012-.094-.06-.094h-.4c-.06 0-.107.035-.13.094l-1.986 5.496-2.01-5.496c-.023-.059-.07-.094-.13-.094h-.46c-.048 0-.083.047-.06.082l2.258 5.933c.023.047.07.083.13.083h.532c.059 0 .106-.036.13-.095l2.186-5.909zm4.9 3.841c-.047 0-.106.036-.106.095-.201 1.075-.828 1.725-1.927 1.725-1.442 0-2.162-1.005-2.162-2.718l4.597-.012a.102.102 0 00.094-.095c-.035-1.938-1.004-3.06-2.611-3.06-1.643 0-2.671 1.323-2.671 3.19 0 1.868.945 3.156 2.742 3.156 1.453 0 2.28-.85 2.505-2.186 0-.048-.035-.095-.083-.095h-.378zm-.13-1.383h-4.042c.142-1.359.851-2.222 2.057-2.222 1.288 0 1.973.993 1.985 2.222zm6.087 1.868c0-2.53-4.195-1.1-4.195-2.896 0-.804.65-1.205 1.654-1.205.981 0 1.761.401 1.82 1.382 0 .048.048.095.095.095h.354a.102.102 0 00.095-.095c-.06-1.264-1.076-1.82-2.352-1.82-1.3 0-2.233.568-2.233 1.667 0 2.363 4.195.933 4.195 2.907 0 .84-.745 1.312-1.785 1.312-1.252 0-1.938-.555-1.973-1.75a.102.102 0 00-.095-.094h-.378a.102.102 0 00-.095.095c.036 1.489 1.005 2.186 2.53 2.186 1.323 0 2.363-.662 2.363-1.784zm3.253 1.264c0-.047-.047-.082-.095-.07-.165.035-.39.058-.602.058-.591 0-.84-.271-.84-1.181v-4.007h1.442a.102.102 0 00.095-.094v-.296a.102.102 0 00-.095-.094H25.21l.011-1.43a.102.102 0 00-.094-.095h-.414a.102.102 0 00-.095.095l.024 1.43h-.697a.102.102 0 00-.095.094v.296c0 .047.048.094.095.094h.697l-.012 4.006c0 1.289.591 1.69 1.383 1.69.213 0 .461-.047.638-.094a.115.115 0 00.095-.118v-.284zm5.59-2.635c0-1.903-.958-3.18-2.719-3.18-1.749 0-2.718 1.277-2.718 3.18 0 1.902.97 3.167 2.718 3.167 1.761 0 2.718-1.276 2.718-3.167zm-4.834 0c0-1.655.709-2.707 2.115-2.719 1.407 0 2.116 1.076 2.116 2.719 0 1.654-.697 2.706-2.116 2.706-1.406 0-2.115-1.052-2.115-2.706zM33.69 37a.102.102 0 00.094-.094l-.024-3.688c.225-1.3 1.087-1.867 1.962-1.867.177 0 .32.012.437.047.048.012.095-.023.095-.07v-.32a.127.127 0 00-.095-.118 1.473 1.473 0 00-.413-.047c-.828 0-1.596.46-1.998 1.288l.036-1.123a.102.102 0 00-.095-.094h-.413a.102.102 0 00-.095.094l.036 2.848-.036 3.05c0 .047.047.094.095.094h.413zm7.528-1.666c0-2.53-4.195-1.1-4.195-2.896 0-.804.65-1.205 1.655-1.205.98 0 1.76.401 1.82 1.382 0 .048.047.095.094.095h.355a.102.102 0 00.094-.095c-.059-1.264-1.075-1.82-2.352-1.82-1.3 0-2.233.568-2.233 1.667 0 2.363 4.195.933 4.195 2.907 0 .84-.744 1.312-1.784 1.312-1.253 0-1.939-.555-1.974-1.75a.102.102 0 00-.094-.094h-.379a.102.102 0 00-.094.095c.035 1.489 1.004 2.186 2.529 2.186 1.323 0 2.363-.662 2.363-1.784z" fill="#fff"/></svg>