<svg width="230" height="42" viewBox="0 0 230 42" fill="none" xmlns="http://www.w3.org/2000/svg"><path d="M6.534 13.108c2.52 0 4.014-1.386 4.554-2.898l.054 2.79h.846V6.43H6.912v.9h4.14v.54c0 2.466-1.71 4.338-4.5 4.338-2.826 0-4.698-2.268-4.698-5.508 0-3.222 1.872-5.508 4.788-5.508 2.124 0 3.6 1.098 4.122 3.078h1.044C11.286 1.75 9.324.292 6.678.292 3.114.292.846 2.92.846 6.7c0 3.798 2.322 6.408 5.688 6.408zm11.885 0c1.998 0 3.528-1.296 3.924-3.132h-.936c-.36 1.422-1.566 2.304-3.06 2.304-2.034 0-3.312-1.548-3.348-3.672v-.162h7.452c0-.126.018-.27.018-.378-.09-2.718-1.764-4.302-4.212-4.302-2.502 0-4.212 1.908-4.212 4.608 0 2.862 1.782 4.734 4.374 4.734zM15.07 7.672c.144-1.854 1.53-3.096 3.204-3.096 1.782 0 3.06 1.098 3.204 3.096H15.07zm9.755 3.204c0 1.458.595 2.124 2.142 2.124H28.3v-.846h-1.26c-.953 0-1.296-.36-1.296-1.296V4.72h2.466v-.846h-2.466V1.318h-.918v2.556H23.1v.846h1.727v6.156zm17.157-4.878c-.558-1.35-1.782-2.232-3.474-2.232-2.502 0-4.302 1.89-4.302 4.662 0 2.88 1.8 4.68 4.302 4.68 1.71 0 2.916-.9 3.492-2.322v1.62c0 2.43-1.152 3.474-3.348 3.474-1.71 0-2.898-.774-3.186-2.16h-.954c.288 1.944 1.854 2.988 4.068 2.988 2.952 0 4.338-1.404 4.338-4.266V3.874h-.792l-.144 2.124zM38.58 12.28c-2.034 0-3.438-1.584-3.438-3.852s1.404-3.852 3.438-3.852c2.034 0 3.438 1.584 3.438 3.87 0 2.25-1.404 3.834-3.438 3.834zm10.529.828c2.574 0 4.392-1.908 4.392-4.68 0-2.754-1.818-4.662-4.392-4.662-2.574 0-4.374 1.908-4.374 4.662 0 2.772 1.8 4.68 4.374 4.68zm0-.828c-2.034 0-3.438-1.584-3.438-3.852 0-2.25 1.404-3.852 3.438-3.852 2.034 0 3.438 1.602 3.438 3.852 0 2.268-1.404 3.852-3.438 3.852zm6.216.72h.918V.4h-.918V13zm10.528-7.074c-.558-1.296-1.782-2.16-3.492-2.16-2.502 0-4.302 1.908-4.302 4.662 0 2.88 1.8 4.68 4.302 4.68 1.71 0 2.898-.918 3.474-2.196L65.98 13h.792V.4h-.918v5.526zm-3.42 6.354c-2.034 0-3.438-1.584-3.438-3.852 0-2.25 1.404-3.852 3.438-3.852 2.034 0 3.438 1.602 3.438 3.87 0 2.25-1.404 3.834-3.438 3.834zm16.893.828c2.7 0 4.608-1.458 5.148-3.996H83.45c-.54 2.016-1.998 3.096-4.14 3.096-2.916 0-4.752-2.286-4.752-5.508s1.872-5.508 4.788-5.508c2.106 0 3.582 1.098 4.14 3.078h1.026C83.953 1.75 82.045.292 79.4.292c-3.546 0-5.85 2.628-5.85 6.408 0 3.816 2.25 6.408 5.778 6.408zm7.24-.108h.973V7.186h5.435v-.9H87.54V1.3h6.515V.4h-7.488V13zm12.866 0c3.996 0 6.336-2.484 6.336-6.3 0-3.834-2.34-6.3-6.336-6.3H95.76V13h3.672zm-2.7-11.7h2.7c3.438 0 5.346 2.088 5.346 5.4 0 3.294-1.908 5.4-5.346 5.4h-2.7V1.3zm15.413 8.892c.072 1.89 1.602 2.916 3.888 2.916 1.962 0 3.546-.99 3.546-2.61 0-1.926-1.692-2.304-3.654-2.574-1.422-.198-2.682-.36-2.682-1.638 0-1.044 1.026-1.728 2.574-1.728 1.458 0 2.502.702 2.664 1.89h.936c-.162-1.782-1.62-2.682-3.6-2.682-2.034-.018-3.492 1.026-3.492 2.592 0 1.836 1.692 2.178 3.564 2.43 1.53.216 2.772.414 2.772 1.764 0 1.08-1.134 1.764-2.628 1.764-1.746 0-2.88-.81-2.952-2.124h-.936zm13.596-6.426c-1.71 0-2.898.918-3.474 2.196l-.144-2.088h-.792V16.6h.918v-5.706c.522 1.332 1.764 2.214 3.492 2.214 2.502 0 4.302-1.908 4.302-4.68 0-2.862-1.8-4.662-4.302-4.662zm-.072 8.514c-2.034 0-3.438-1.584-3.438-3.87 0-2.232 1.404-3.834 3.438-3.834 2.034 0 3.438 1.602 3.438 3.852 0 2.268-1.404 3.852-3.438 3.852zm9.917-8.406c-1.692 0-2.412.81-2.79 1.818l-.144-1.818h-.792V13h.918V8.374c0-1.854.486-3.618 2.628-3.618h.666v-.882h-.486zm5.228 9.234c1.998 0 3.528-1.296 3.924-3.132h-.936c-.36 1.422-1.566 2.304-3.06 2.304-2.034 0-3.312-1.548-3.348-3.672v-.162h7.452c0-.126.018-.27.018-.378-.09-2.718-1.764-4.302-4.212-4.302-2.502 0-4.212 1.908-4.212 4.608 0 2.862 1.782 4.734 4.374 4.734zm-3.348-5.436c.144-1.854 1.53-3.096 3.204-3.096 1.782 0 3.06 1.098 3.204 3.096h-6.408zm17.241 4.482c-.54 0-.81-.18-.81-.882V7.024c0-2.088-1.278-3.258-3.564-3.258-2.088 0-3.474 1.008-3.708 2.664h.918c.234-1.116 1.206-1.854 2.754-1.854 1.71 0 2.682.9 2.682 2.412v.792h-3.096c-2.34 0-3.6 1.008-3.6 2.718 0 1.62 1.278 2.61 3.222 2.61 1.854 0 2.952-.846 3.51-1.98v.324c-.036 1.08.414 1.548 1.494 1.548h.54v-.846h-.342zM152.98 9.31c0 1.746-1.242 3.006-3.402 3.006-1.458 0-2.358-.738-2.358-1.872 0-1.206.9-1.872 2.592-1.872h3.168v.738zm10.609-3.384c-.558-1.296-1.782-2.16-3.492-2.16-2.502 0-4.302 1.908-4.302 4.662 0 2.88 1.8 4.68 4.302 4.68 1.71 0 2.898-.918 3.474-2.196l.144 2.088h.792V.4h-.918v5.526zm-3.42 6.354c-2.034 0-3.438-1.584-3.438-3.852 0-2.25 1.404-3.852 3.438-3.852 2.034 0 3.438 1.602 3.438 3.87 0 2.25-1.404 3.834-3.438 3.834zm6.083-2.088c.072 1.89 1.602 2.916 3.888 2.916 1.962 0 3.546-.99 3.546-2.61 0-1.926-1.692-2.304-3.654-2.574-1.422-.198-2.682-.36-2.682-1.638 0-1.044 1.026-1.728 2.574-1.728 1.458 0 2.502.702 2.664 1.89h.936c-.162-1.782-1.62-2.682-3.6-2.682-2.034-.018-3.492 1.026-3.492 2.592 0 1.836 1.692 2.178 3.564 2.43 1.53.216 2.772.414 2.772 1.764 0 1.08-1.134 1.764-2.628 1.764-1.746 0-2.88-.81-2.952-2.124h-.936zm22.065 1.962c-.54 0-.81-.18-.81-.882V7.024c0-2.088-1.278-3.258-3.564-3.258-2.088 0-3.474 1.008-3.708 2.664h.918c.234-1.116 1.206-1.854 2.754-1.854 1.71 0 2.682.9 2.682 2.412v.792h-3.096c-2.34 0-3.6 1.008-3.6 2.718 0 1.62 1.278 2.61 3.222 2.61 1.854 0 2.952-.846 3.51-1.98v.324c-.036 1.08.414 1.548 1.494 1.548h.54v-.846h-.342zm-1.728-2.844c0 1.746-1.242 3.006-3.402 3.006-1.458 0-2.358-.738-2.358-1.872 0-1.206.9-1.872 2.592-1.872h3.168v.738zm2.884.882c.072 1.89 1.602 2.916 3.888 2.916 1.962 0 3.546-.99 3.546-2.61 0-1.926-1.692-2.304-3.654-2.574-1.422-.198-2.682-.36-2.682-1.638 0-1.044 1.026-1.728 2.574-1.728 1.458 0 2.502.702 2.664 1.89h.936c-.162-1.782-1.62-2.682-3.6-2.682-2.034-.018-3.492 1.026-3.492 2.592 0 1.836 1.692 2.178 3.564 2.43 1.53.216 2.772.414 2.772 1.764 0 1.08-1.134 1.764-2.628 1.764-1.746 0-2.88-.81-2.952-2.124h-.936zM203.51 13h.918V.4h-.918V13zm7.108.108c2.574 0 4.392-1.908 4.392-4.68 0-2.754-1.818-4.662-4.392-4.662-2.574 0-4.374 1.908-4.374 4.662 0 2.772 1.8 4.68 4.374 4.68zm0-.828c-2.034 0-3.438-1.584-3.438-3.852 0-2.25 1.404-3.852 3.438-3.852 2.034 0 3.438 1.602 3.438 3.852 0 2.268-1.404 3.852-3.438 3.852zm8.149.72h.99l2.7-7.668L225.031 13h.99l3.24-9.126h-.936l-2.808 8.028-2.61-8.028h-.846l-2.754 8.028-2.664-8.028h-.972L218.767 13zM9.108 37.154c-.54 0-.81-.18-.81-.882v-4.248c0-2.088-1.278-3.258-3.564-3.258-2.088 0-3.474 1.008-3.708 2.664h.918c.234-1.116 1.206-1.854 2.754-1.854 1.71 0 2.682.9 2.682 2.412v.792H4.284c-2.34 0-3.6 1.008-3.6 2.718 0 1.62 1.278 2.61 3.222 2.61 1.854 0 2.952-.846 3.51-1.98v.324C7.38 37.532 7.83 38 8.91 38h.54v-.846h-.342zM7.38 34.31c0 1.746-1.242 3.006-3.402 3.006-1.458 0-2.358-.738-2.358-1.872 0-1.206.9-1.872 2.592-1.872H7.38v.738zm2.884.882c.072 1.89 1.602 2.916 3.888 2.916 1.962 0 3.546-.99 3.546-2.61 0-1.926-1.692-2.304-3.654-2.574-1.422-.198-2.682-.36-2.682-1.638 0-1.044 1.026-1.728 2.574-1.728 1.458 0 2.502.702 2.664 1.89h.936c-.162-1.782-1.62-2.682-3.6-2.682-2.034-.018-3.492 1.026-3.492 2.592 0 1.836 1.692 2.178 3.564 2.43 1.53.216 2.772.414 2.772 1.764 0 1.08-1.134 1.764-2.628 1.764-1.746 0-2.88-.81-2.952-2.124h-.936zm13.82-3.204c0 3.69 1.819 6.12 4.555 6.12 2.7 0 4.536-2.43 4.536-6.12v-.576c0-3.582-1.836-6.12-4.536-6.12-2.736 0-4.554 2.538-4.554 6.12v.576zm8.137-.036c0 3.204-1.422 5.292-3.582 5.292-2.178 0-3.6-2.088-3.6-5.292v-.504c0-3.204 1.422-5.292 3.6-5.292 2.16 0 3.582 2.088 3.582 5.292v.504zm1.886 5.454c0 .414.288.684.684.684.396 0 .684-.27.684-.684 0-.414-.288-.666-.684-.666-.396 0-.684.252-.684.666zm8.464-5.94c1.422-.288 2.358-1.296 2.358-2.934 0-1.926-1.53-3.24-3.978-3.24-2.394 0-4.122 1.386-4.14 3.546h.936c.018-1.656 1.35-2.7 3.204-2.7 1.8 0 3.024.972 3.024 2.43 0 1.476-1.062 2.592-3.15 2.592h-.99v.81h1.044c2.196 0 3.438.9 3.438 2.52 0 1.638-1.44 2.772-3.384 2.772-2.034 0-3.474-1.098-3.474-2.952h-.936c0 2.376 1.728 3.798 4.356 3.798s4.392-1.476 4.392-3.564c0-1.962-1.242-2.862-2.7-3.078zm13.825-2.7c-1.71 0-2.898.918-3.474 2.196l-.144-2.088h-.792V41.6h.918v-5.706c.522 1.332 1.764 2.214 3.492 2.214 2.502 0 4.302-1.908 4.302-4.68 0-2.862-1.8-4.662-4.302-4.662zm-.072 8.514c-2.034 0-3.438-1.584-3.438-3.87 0-2.232 1.404-3.834 3.438-3.834 2.034 0 3.438 1.602 3.438 3.852 0 2.268-1.404 3.852-3.438 3.852zm10.224.828c2.573 0 4.391-1.908 4.391-4.68 0-2.754-1.817-4.662-4.391-4.662-2.575 0-4.375 1.908-4.375 4.662 0 2.772 1.8 4.68 4.374 4.68zm0-.828c-2.035 0-3.439-1.584-3.439-3.852 0-2.25 1.404-3.852 3.438-3.852 2.035 0 3.439 1.602 3.439 3.852 0 2.268-1.404 3.852-3.439 3.852zm6.684-10.332c.36 0 .648-.27.648-.648a.634.634 0 00-.648-.648c-.36 0-.648.27-.648.648s.288.648.648.648zM72.764 38h.918v-9.126h-.918V38zm7.288-9.234c-1.674 0-2.754.864-3.276 2.052l-.144-1.944h-.792V38h.918v-4.5c0-2.376 1.206-3.888 3.15-3.888 1.764 0 2.826 1.152 2.826 3.312V38h.918v-5.112c0-2.88-1.53-4.122-3.6-4.122zm6.316 7.11c0 1.458.594 2.124 2.142 2.124h1.331v-.846h-1.26c-.954 0-1.296-.36-1.296-1.296V29.72h2.466v-.846h-2.466v-2.556h-.917v2.556H84.64v.846h1.728v6.156zm4.456-.684c.072 1.89 1.602 2.916 3.888 2.916 1.962 0 3.546-.99 3.546-2.61 0-1.926-1.692-2.304-3.654-2.574-1.422-.198-2.682-.36-2.682-1.638 0-1.044 1.026-1.728 2.574-1.728 1.458 0 2.502.702 2.664 1.89h.936c-.162-1.782-1.62-2.682-3.6-2.682-2.034-.018-3.492 1.026-3.492 2.592 0 1.836 1.692 2.178 3.564 2.43 1.53.216 2.772.414 2.772 1.764 0 1.08-1.134 1.764-2.628 1.764-1.746 0-2.88-.81-2.952-2.124h-.936z" fill="#000"/></svg>