<svg width="179" height="25" viewBox="0 0 179 25" fill="none" xmlns="http://www.w3.org/2000/svg"><path d="M6.201 6.497A8.714 8.714 0 018.928 4.52a7.763 7.763 0 013.304-.718c1.29 0 2.328.168 3.113.508.784.34 1.543.828 2.279 1.468.357.278.723.404 1.103.375.376-.029.7-.168.967-.42.267-.25.402-.563.402-.945 0-.18-.016-.333-.045-.465a1.11 1.11 0 00-.18-.388 1.641 1.641 0 00-.373-.376c-1.112-.918-2.218-1.578-3.32-1.976-1.1-.4-2.415-.601-3.945-.601-1.63 0-3.138.31-4.527.928a11.467 11.467 0 00-3.649 2.561A11.904 11.904 0 001.614 8.28c-.585 1.449-.878 3.01-.878 4.69 0 1.697.293 3.275.878 4.734a11.77 11.77 0 002.443 3.82 11.172 11.172 0 003.662 2.545c1.398.61 2.903.915 4.514.915 1.35 0 2.636-.22 3.857-.66 1.222-.44 2.37-1.09 3.44-1.947a1.548 1.548 0 00.476-1.11c0-.439-.119-.782-.357-1.034a1.347 1.347 0 00-.877-.42c-.348-.03-.701.084-1.058.346a11.088 11.088 0 01-2.607 1.452 7.9 7.9 0 01-2.874.524 7.888 7.888 0 01-3.305-.705A8.557 8.557 0 016.2 19.466a9.117 9.117 0 01-1.832-2.92c-.437-1.11-.656-2.303-.656-3.58 0-1.259.219-2.443.656-3.552A9.138 9.138 0 016.2 6.497zM26.085 1.284c-.437 0-.803.145-1.102.433-.3.291-.447.663-.447 1.122v20.285c0 .44.148.808.447 1.109.299.297.665.45 1.102.45.457 0 .83-.15 1.116-.45.29-.301.43-.67.43-1.11V2.84c0-.459-.144-.834-.43-1.122-.286-.288-.659-.433-1.116-.433zM48.156 1.284H32.223c-.418 0-.759.136-1.029.404-.267.269-.402.615-.402 1.035 0 .42.135.763.402 1.035.267.268.611.404 1.029.404h6.433v18.965c0 .44.148.808.447 1.109.299.297.665.45 1.103.45.437 0 .803-.15 1.102-.45.3-.3.447-.67.447-1.11V4.16h6.404c.418 0 .76-.136 1.03-.404.266-.269.401-.615.401-1.035 0-.42-.135-.763-.402-1.035-.27-.269-.614-.401-1.032-.401zM71.92 1.659a1.188 1.188 0 00-.893-.375c-.318 0-.585.065-.804.194a1.74 1.74 0 00-.565.553l-7.09 11.248-6.97-11.125c-.18-.278-.366-.495-.565-.644-.2-.149-.466-.223-.804-.223-.376 0-.71.117-.996.346-.29.23-.463.53-.521.9-.061.368.038.762.299 1.183l7.95 12.435v6.982c0 .44.148.809.447 1.11.3.297.656.449 1.074.449.437 0 .804-.149 1.103-.45.299-.3.446-.669.446-1.109v-6.989L72.043 3.71c.238-.378.338-.753.3-1.122a1.58 1.58 0 00-.422-.928zM87.68 1.284c-.437 0-.803.145-1.102.433-.3.291-.447.663-.447 1.122v20.285c0 .44.148.808.447 1.109.299.297.665.45 1.102.45.457 0 .83-.15 1.116-.45.29-.301.43-.67.43-1.11V2.84c0-.459-.144-.834-.43-1.122-.286-.288-.659-.433-1.116-.433zM111.143 1.284a1.53 1.53 0 00-1.103.433c-.299.291-.447.663-.447 1.122v16.39L96.608 1.854c-.318-.378-.713-.57-1.192-.57-.438 0-.8.146-1.087.434-.29.291-.43.663-.43 1.122v20.285c0 .44.144.808.43 1.109.286.297.65.45 1.087.45.456 0 .83-.15 1.115-.45.286-.301.431-.67.431-1.11V6.767l12.985 17.376c.138.178.322.314.55.405.228.09.44.135.64.135.456 0 .823-.148 1.102-.45.277-.3.418-.669.418-1.108V2.838c0-.459-.138-.834-.418-1.122-.27-.288-.639-.433-1.096-.433z" fill="#fff"/><path fill-rule="evenodd" clip-rule="evenodd" d="M132.439 4.563a10.718 10.718 0 00-3.649-2.425c-1.399-.57-2.955-.854-4.662-.854h-5.391a1.53 1.53 0 00-1.103.433c-.299.291-.447.663-.447 1.122v20.285c0 .44.148.808.447 1.109.299.297.665.45 1.103.45h5.391c1.707 0 3.26-.285 4.662-.855a10.757 10.757 0 003.649-2.425 10.817 10.817 0 002.382-3.716c.556-1.426.833-3.001.833-4.719 0-1.717-.277-3.285-.833-4.702a10.854 10.854 0 00-2.382-3.703zm-.865 13.034c-.736 1.348-1.743 2.406-3.022 3.175-1.28.77-2.755 1.155-4.424 1.155h-3.842V4.039h3.842c1.669 0 3.141.379 4.424 1.139a8.132 8.132 0 013.022 3.146c.733 1.34 1.103 2.885 1.103 4.645 0 1.736-.367 3.279-1.103 4.627z" fill="#fff"/><path d="M154.818 4.159c.457 0 .823-.13 1.103-.392.276-.258.418-.598.418-1.018 0-.44-.138-.796-.418-1.064-.277-.269-.646-.405-1.103-.405h-13.464a1.53 1.53 0 00-1.103.434c-.299.29-.447.663-.447 1.122V23.12c0 .44.148.808.447 1.11.299.297.666.449 1.103.449h13.464c.457 0 .823-.136 1.103-.404.276-.269.418-.625.418-1.064 0-.42-.138-.76-.418-1.02-.277-.258-.646-.39-1.103-.39h-11.914v-7.484h8.548c.457 0 .823-.136 1.103-.404.276-.269.418-.615.418-1.035 0-.42-.138-.764-.418-1.035-.277-.269-.646-.404-1.103-.404h-8.548v-7.28h11.914zM171.616 12.845l6.79-9.107c.238-.359.347-.727.328-1.109a1.479 1.479 0 00-.386-.957c-.238-.259-.566-.392-.984-.392-.456 0-.823.15-1.102.45l-6.675 8.932-6.401-8.929c-.218-.3-.585-.45-1.102-.45-.418 0-.749.14-.997.421a1.72 1.72 0 00-.431.99 1.46 1.46 0 00.299 1.048l6.543 9.13-6.932 9.294c-.238.32-.357.673-.357 1.064 0 .388.119.73.357 1.019.238.29.585.433 1.042.433.418 0 .775-.149 1.074-.45l6.838-9.152 6.478 9.033c.157.2.331.346.521.433.189.09.411.136.672.136.437 0 .778-.139 1.028-.42.248-.279.383-.618.402-1.02.02-.397-.09-.76-.328-1.08l-6.677-9.317z" fill="#fff"/></svg>