<svg width="249" height="53" viewBox="0 0 249 53" fill="none" xmlns="http://www.w3.org/2000/svg"><path d="M.54 3.854h5.832V20h3.105V3.854h5.832V1.1H.54v2.754zm22.439 2.322c-2.268 0-3.375.918-4.077 2.079l-.324-2.079h-2.592V20h2.916v-6.939c0-2.133.837-4.158 3.429-4.158h1.296V6.176h-.648zm14.66 11.286c-.594 0-.89-.189-.89-.891v-5.535c0-3.267-2.107-5.022-5.779-5.022-3.483 0-5.805 1.674-6.102 4.374h2.862c.216-1.215 1.377-2.025 3.105-2.025 1.917 0 3.024.945 3.024 2.484v.837h-3.483c-3.86 0-5.913 1.593-5.913 4.428 0 2.565 2.106 4.05 5.13 4.05 2.241 0 3.645-.972 4.563-2.376 0 1.377.648 2.214 2.538 2.214h1.54v-2.538h-.595zm-3.78-3.132c-.027 2.133-1.43 3.564-3.86 3.564-1.594 0-2.566-.81-2.566-1.971 0-1.404 1-2.079 2.808-2.079h3.618v.486zm16.36-6.237c-.89-1.215-2.376-2.079-4.482-2.079-3.753 0-6.534 2.808-6.534 7.074 0 4.428 2.781 7.074 6.534 7.074 2.187 0 3.618-1.026 4.51-2.241l.35 2.079h2.538V1.1H50.22v6.993zm-3.996 9.612c-2.43 0-4.023-1.89-4.023-4.617 0-2.7 1.593-4.59 4.023-4.59 2.43 0 4.023 1.89 4.023 4.644 0 2.673-1.593 4.563-4.023 4.563zm16.323 2.457c3.429 0 5.75-2.079 6.237-4.806h-2.916c-.405 1.539-1.701 2.43-3.483 2.43-2.295 0-3.78-1.539-3.861-3.888v-.189h10.422c.054-.378.08-.756.08-1.107-.08-4.05-2.753-6.588-6.75-6.588-4.076 0-6.803 2.835-6.803 7.101 0 4.239 2.727 7.047 7.074 7.047zm-3.915-8.586c.216-1.971 1.809-3.213 3.672-3.213 2.025 0 3.456 1.161 3.699 3.213H58.63zm20.875 5.535c1.27 1.917 3.24 3.051 5.86 3.051 4.022 0 6.776-2.646 6.776-6.372 0-3.834-2.619-6.372-6.372-6.372-2.268 0-4.05 1.08-4.914 2.727-.108.189-.135.351-.189.459-.027-.351-.027-.513-.027-.729 0-3.915 1.62-6.453 4.536-6.453 2.025 0 3.294 1.107 3.7 2.862h2.97c-.46-3.321-2.998-5.346-6.48-5.346-4.618 0-7.453 3.618-7.453 9.747 0 2.538.594 4.779 1.593 6.426zm9.64-3.321c0 2.295-1.513 3.915-3.808 3.915s-3.834-1.593-3.834-3.888c0-2.349 1.593-3.942 3.888-3.942 2.322 0 3.753 1.62 3.753 3.915zm14.946-3.618c1.809-.486 3.159-1.863 3.159-4.185 0-3.024-2.484-5.049-6.561-5.049-3.888 0-6.615 2.349-6.642 5.751h2.916c.054-1.971 1.593-3.267 3.726-3.267 1.971 0 3.51 1.026 3.51 2.754s-1.242 2.97-3.726 2.97h-1.566v2.484h1.728c2.619 0 3.996 1.134 3.996 2.889 0 1.944-1.647 3.159-3.78 3.159-2.403 0-4.158-1.323-4.212-3.645h-2.943c0 3.888 2.727 6.129 6.993 6.129s6.993-2.214 6.993-5.454c0-2.835-1.728-4.158-3.591-4.536zm5.647.81c0 5.697 3.051 9.18 7.452 9.18s7.452-3.483 7.452-9.18v-.864c0-5.481-3.051-9.18-7.452-9.18s-7.452 3.699-7.452 9.18v.864zm11.88-.108c0 4.239-1.782 6.669-4.428 6.669s-4.428-2.43-4.428-6.669v-.648c0-4.212 1.782-6.669 4.428-6.669s4.428 2.457 4.428 6.669v.648zm5.126.108c0 5.697 3.051 9.18 7.452 9.18s7.452-3.483 7.452-9.18v-.864c0-5.481-3.051-9.18-7.452-9.18s-7.452 3.699-7.452 9.18v.864zm11.88-.108c0 4.239-1.782 6.669-4.428 6.669s-4.428-2.43-4.428-6.669v-.648c0-4.212 1.782-6.669 4.428-6.669s4.428 2.457 4.428 6.669v.648zm11.954 2.916c.108 3.78 2.943 6.372 7.641 6.372 4.158 0 6.993-2.349 6.993-5.751.027-3.726-3.024-4.725-6.156-5.292-2.97-.513-4.914-.918-4.914-2.862 0-1.782 1.485-2.7 3.618-2.7 2.295 0 3.807 1.296 4.05 3.213h3.105c-.135-3.483-2.835-5.832-7.155-5.832-4.023 0-6.723 2.241-6.723 5.535 0 3.753 2.97 4.752 6.102 5.292 2.997.54 4.968.972 4.968 2.97 0 1.809-1.62 2.808-3.861 2.808-2.646 0-4.374-1.485-4.536-3.699l-3.132-.054zm24.334-7.776c-2.16 0-3.483.972-4.347 2.16V1.1h-2.916V20h2.916v-6.993c0-2.781 1.404-4.482 3.699-4.482 2.16 0 3.321 1.404 3.321 4.023V20h2.916v-7.695c0-4.617-2.511-6.291-5.589-6.291zm20.877 11.448c-.594 0-.891-.189-.891-.891v-5.535c0-3.267-2.106-5.022-5.778-5.022-3.483 0-5.805 1.674-6.102 4.374h2.862c.216-1.215 1.377-2.025 3.105-2.025 1.917 0 3.024.945 3.024 2.484v.837h-3.483c-3.861 0-5.913 1.593-5.913 4.428 0 2.565 2.106 4.05 5.13 4.05 2.241 0 3.645-.972 4.563-2.376 0 1.377.648 2.214 2.538 2.214h1.539v-2.538h-.594zm-3.78-3.132c-.027 2.133-1.431 3.564-3.861 3.564-1.593 0-2.565-.81-2.565-1.971 0-1.404.999-2.079 2.808-2.079h3.618v.486zm12.955-8.154c-2.268 0-3.375.918-4.077 2.079l-.324-2.079h-2.592V20h2.916v-6.939c0-2.133.837-4.158 3.429-4.158h1.296V6.176h-.648zm8.348 13.986c3.429 0 5.751-2.079 6.237-4.806h-2.916c-.405 1.539-1.701 2.43-3.483 2.43-2.295 0-3.78-1.539-3.861-3.888v-.189h10.422c.054-.378.081-.756.081-1.107-.081-4.05-2.754-6.588-6.75-6.588-4.077 0-6.804 2.835-6.804 7.101 0 4.239 2.727 7.047 7.074 7.047zm-3.915-8.586c.216-1.971 1.809-3.213 3.672-3.213 2.025 0 3.456 1.161 3.699 3.213h-7.371zM9.936 52.162c4.401 0 7.614-2.592 8.208-6.588h-3.213c-.594 2.403-2.403 3.861-5.022 3.861-3.564 0-5.724-2.862-5.724-6.885 0-4.05 2.214-6.885 5.805-6.885 2.565 0 4.347 1.485 4.968 3.861h3.213c-.621-3.996-3.726-6.588-8.046-6.588-5.589 0-9.126 3.861-9.126 9.612 0 5.805 3.429 9.612 8.937 9.612zM20.712 52h3.105v-7.992h7.398v-2.673h-7.398v-5.481h8.964V33.1H20.712V52zm20.876 0c5.913 0 9.639-3.861 9.639-9.477S47.5 33.1 41.587 33.1h-6.425V52h6.426zm-3.321-16.2h3.32c4.159 0 6.454 2.673 6.454 6.723S45.746 49.3 41.588 49.3h-3.321V35.8zM53.07 47.437c.081 2.997 2.62 4.725 6.318 4.725 3.348 0 5.86-1.674 5.86-4.32 0-3.078-2.566-3.726-5.725-4.104-1.998-.216-3.32-.378-3.32-1.674 0-1.107 1.133-1.809 2.861-1.809 1.728 0 2.916.891 3.078 2.16h2.862c-.189-2.835-2.592-4.401-5.994-4.401-3.32-.027-5.67 1.674-5.67 4.293 0 2.862 2.484 3.537 5.643 3.915 2.133.27 3.402.378 3.402 1.863 0 1.107-1.188 1.809-2.997 1.809-2.106 0-3.348-1.026-3.456-2.457H53.07zM78.654 52H82.3l3.807-13.905L89.967 52h3.618l5.427-18.9h-3.186l-4.05 14.958L87.672 33.1H84.73l-4.212 14.958-4.023-14.985-3.213.027L78.654 52zm23.534-15.768c.999 0 1.782-.729 1.782-1.755 0-1.026-.783-1.755-1.782-1.755s-1.782.729-1.782 1.755c0 1.026.783 1.755 1.782 1.755zM100.703 52h2.916V38.176h-2.916V52zm6.774-3.753c0 2.511 1.134 3.753 3.78 3.753h2.7v-2.565h-2.052c-1.107 0-1.485-.405-1.485-1.485v-7.209h3.375v-2.565h-3.375v-3.861h-2.943v3.861h-2.403v2.565h2.403v7.506zm15.598-10.233c-2.16 0-3.483.972-4.347 2.16V33.1h-2.916V52h2.916v-6.993c0-2.781 1.404-4.482 3.699-4.482 2.16 0 3.321 1.404 3.321 4.023V52h2.916v-7.695c0-4.617-2.511-6.291-5.589-6.291zm14.669 14.148c4.212 0 7.047-2.835 7.047-7.074 0-4.212-2.835-7.074-7.047-7.074s-7.047 2.862-7.047 7.074c0 4.239 2.835 7.074 7.047 7.074zm0-2.484c-2.457 0-4.05-1.917-4.05-4.59s1.593-4.59 4.05-4.59 4.077 1.917 4.077 4.59-1.62 4.59-4.077 4.59zm18.869-4.59c0 2.862-1.35 4.536-3.564 4.536-2.133 0-3.213-1.377-3.213-4.077v-7.371h-2.916v7.695c0 4.725 2.511 6.291 5.454 6.291 2.133 0 3.402-.864 4.266-1.917l.324 1.755h2.565V38.176h-2.916v6.912zm6.868 3.159c0 2.511 1.134 3.753 3.78 3.753h2.7v-2.565h-2.052c-1.107 0-1.485-.405-1.485-1.485v-7.209h3.375v-2.565h-3.375v-3.861h-2.943v3.861h-2.403v2.565h2.403v7.506zm23.748 3.915c4.401 0 7.614-2.592 8.208-6.588h-3.213c-.594 2.403-2.403 3.861-5.022 3.861-3.564 0-5.724-2.862-5.724-6.885 0-4.05 2.214-6.885 5.805-6.885 2.565 0 4.347 1.485 4.968 3.861h3.213c-.621-3.996-3.726-6.588-8.046-6.588-5.589 0-9.126 3.861-9.126 9.612 0 5.805 3.429 9.612 8.937 9.612zm17.013 0c4.212 0 7.047-2.835 7.047-7.074 0-4.212-2.835-7.074-7.047-7.074s-7.047 2.862-7.047 7.074c0 4.239 2.835 7.074 7.047 7.074zm0-2.484c-2.457 0-4.05-1.917-4.05-4.59s1.593-4.59 4.05-4.59 4.077 1.917 4.077 4.59-1.62 4.59-4.077 4.59zm8.719-2.241c.081 2.997 2.619 4.725 6.318 4.725 3.348 0 5.859-1.674 5.859-4.32 0-3.078-2.565-3.726-5.724-4.104-1.998-.216-3.321-.378-3.321-1.674 0-1.107 1.134-1.809 2.862-1.809 1.728 0 2.916.891 3.078 2.16h2.862c-.189-2.835-2.592-4.401-5.994-4.401-3.321-.027-5.67 1.674-5.67 4.293 0 2.862 2.484 3.537 5.643 3.915 2.133.27 3.402.378 3.402 1.863 0 1.107-1.188 1.809-2.997 1.809-2.106 0-3.348-1.026-3.456-2.457h-2.862zm15.436.81c0 2.511 1.134 3.753 3.78 3.753h2.7v-2.565h-2.052c-1.107 0-1.485-.405-1.485-1.485v-7.209h3.375v-2.565h-3.375v-3.861h-2.943v3.861h-2.403v2.565h2.403v7.506zm7.741-.81c.081 2.997 2.619 4.725 6.318 4.725 3.348 0 5.859-1.674 5.859-4.32 0-3.078-2.565-3.726-5.724-4.104-1.998-.216-3.321-.378-3.321-1.674 0-1.107 1.134-1.809 2.862-1.809 1.728 0 2.916.891 3.078 2.16h2.862c-.189-2.835-2.592-4.401-5.994-4.401-3.321-.027-5.67 1.674-5.67 4.293 0 2.862 2.484 3.537 5.643 3.915 2.133.27 3.402.378 3.402 1.863 0 1.107-1.188 1.809-2.997 1.809-2.106 0-3.348-1.026-3.456-2.457h-2.862z" fill="#000"/></svg>