<svg width="53" height="8" viewBox="0 0 53 8" fill="none" xmlns="http://www.w3.org/2000/svg"><path d="M14.548 3.976c0-.077-.001-.153-.004-.227h.904l.24-.695H14.47C14.136 1.154 12.738 0 10.626 0c-2.374 0-3.91 1.58-3.91 4.024 0 2.467 1.488 3.988 3.91 3.976 1.975 0 3.376-1.085 3.793-2.862h.825l.252-.695h-.968c.013-.152.02-.307.02-.467zm-3.874 2.923C9.451 6.899 8.971 5.604 8.971 4s.384-2.886 1.62-2.898c.971 0 1.473.809 1.64 1.952h-1.053l-.24.694h1.352a8.008 8.008 0 01-.007.696h-1.297l-.252.694h1.48c-.167 1.04-.614 1.76-1.54 1.76zM0 .18h6.117v1.856H2.123v1.293h3.61v1.76h-3.61v2.72H0V.178zm16.371 0v7.628h2.123V5.497h.936l1.535 2.311h2.446L21.588 5.15c.948-.408 1.572-1.186 1.572-2.348v-.024c0-.742-.228-1.34-.672-1.772C21.971.491 21.157.18 19.992.18h-3.622zm2.123 3.665V2h1.391c.72 0 1.152.311 1.152.91v.024c0 .563-.42.91-1.14.91h-1.403zm5.745 3.963h6.2V6.012h-4.101v-1.21h3.67V3.138h-3.67V1.976h4.054V.18H24.24v7.628zm6.896 0h2.387l1.475-2.299 1.463 2.3h2.435l-2.627-3.905L38.776.18H36.4l-1.366 2.144L33.678.18h-2.435l2.519 3.748-2.627 3.88zm9.835-3.616a1.55 1.55 0 00.992 1.465c.196.076.405.111.615.104.672 0 1.067-.275 1.355-.694l-.72-.515c-.167.191-.335.311-.587.311-.36 0-.612-.3-.612-.694v-.012c0-.372.252-.671.6-.671a.655.655 0 01.564.323l.731-.539a1.467 1.467 0 00-1.307-.682 1.592 1.592 0 00-1.631 1.605m3.238 0c0 .862.708 1.58 1.68 1.58.983 0 1.69-.73 1.69-1.592v-.012c0-.862-.707-1.58-1.679-1.58-.983 0-1.69.73-1.69 1.604m2.326 0c0 .36-.24.671-.636.671a.66.66 0 01-.647-.682V4.17a.64.64 0 01.635-.67.665.665 0 01.648.694m1.56-1.545v3.04h1.066V4.036c0-.323.18-.503.432-.503s.42.168.42.503v1.653h1.056V4.036c0-.323.191-.503.444-.503.252 0 .42.168.42.503v1.665H53v-2c0-.707-.396-1.114-1.043-1.114a1.293 1.293 0 00-1.02.49c-.156-.31-.468-.49-.875-.49a1.117 1.117 0 00-.911.479v-.42h-1.057v.003zm-8.612 2.477a.469.469 0 00.168.395.581.581 0 00.791 0 .559.559 0 10-.791-.79.563.563 0 00-.168.395z" fill="#fff"/></svg>