<svg width="188" height="10" viewBox="0 0 188 10" fill="none" xmlns="http://www.w3.org/2000/svg"><path d="M.22 1.422h2.376V8h1.265V1.422h2.376V.3H.22v1.122zm9.142.946c-.924 0-1.375.374-1.661.847l-.132-.847H6.513V8H7.7V5.173c0-.869.34-1.694 1.397-1.694h.528V2.368h-.264zm5.973 4.598c-.243 0-.364-.077-.364-.363V4.348c0-1.331-.857-2.046-2.354-2.046-1.419 0-2.365.682-2.486 1.782h1.166c.088-.495.561-.825 1.265-.825.782 0 1.232.385 1.232 1.012v.341h-1.418c-1.573 0-2.41.649-2.41 1.804 0 1.045.859 1.65 2.09 1.65.914 0 1.486-.396 1.86-.968 0 .561.264.902 1.034.902h.627V6.966h-.242zm-1.54-1.276c-.011.869-.584 1.452-1.573 1.452-.65 0-1.045-.33-1.045-.803 0-.572.407-.847 1.143-.847h1.474v.198zm6.665-2.541c-.363-.495-.968-.847-1.826-.847-1.53 0-2.662 1.144-2.662 2.882 0 1.804 1.133 2.882 2.662 2.882.89 0 1.474-.418 1.837-.913l.143.847h1.034V.3H20.46v2.849zm-1.628 3.916c-.99 0-1.64-.77-1.64-1.881 0-1.1.65-1.87 1.64-1.87.99 0 1.639.77 1.639 1.892 0 1.089-.65 1.859-1.64 1.859zm6.65 1.001c1.397 0 2.343-.847 2.54-1.958h-1.187c-.165.627-.693.99-1.42.99-.934 0-1.54-.627-1.572-1.584v-.077h4.246c.022-.154.033-.308.033-.451-.033-1.65-1.122-2.684-2.75-2.684-1.661 0-2.772 1.155-2.772 2.893 0 1.727 1.11 2.871 2.882 2.871zm-1.595-3.498c.088-.803.737-1.309 1.496-1.309.825 0 1.408.473 1.507 1.309h-3.003zm8.505 2.255c.516.781 1.32 1.243 2.386 1.243 1.64 0 2.761-1.078 2.761-2.596 0-1.562-1.067-2.596-2.596-2.596-.923 0-1.65.44-2.002 1.111-.044.077-.055.143-.077.187-.01-.143-.01-.209-.01-.297 0-1.595.66-2.629 1.848-2.629.825 0 1.342.451 1.507 1.166h1.21C37.23 1.059 36.198.234 34.779.234c-1.882 0-3.037 1.474-3.037 3.971 0 1.034.242 1.947.65 2.618zm3.926-1.353c0 .935-.615 1.595-1.55 1.595s-1.563-.649-1.563-1.584c0-.957.65-1.606 1.584-1.606.947 0 1.53.66 1.53 1.595zm2.423 1.111c-.506 0-.836.33-.836.748 0 .473.286.704.65.704a.591.591 0 00.362-.11.627.627 0 01.011.143c0 .385-.275.814-.968.825v.638c1.09-.011 1.771-.616 1.771-1.683 0-.704-.385-1.265-.99-1.265zm1.209-2.255c0 2.321 1.242 3.74 3.035 3.74 1.794 0 3.037-1.419 3.037-3.74v-.352c0-2.233-1.243-3.74-3.036-3.74s-3.036 1.507-3.036 3.74v.352zm4.84-.044c0 1.727-.727 2.717-1.804 2.717-1.078 0-1.804-.99-1.804-2.717v-.264c0-1.716.725-2.717 1.803-2.717 1.078 0 1.804 1.001 1.804 2.717v.264zm2.088.044c0 2.321 1.243 3.74 3.036 3.74s3.036-1.419 3.036-3.74v-.352c0-2.233-1.243-3.74-3.036-3.74s-3.036 1.507-3.036 3.74v.352zm4.84-.044c0 1.727-.726 2.717-1.804 2.717s-1.804-.99-1.804-2.717v-.264c0-1.716.726-2.717 1.804-2.717s1.804 1.001 1.804 2.717v.264zm2.089.044c0 2.321 1.243 3.74 3.036 3.74s3.036-1.419 3.036-3.74v-.352c0-2.233-1.243-3.74-3.036-3.74s-3.036 1.507-3.036 3.74v.352zm4.84-.044c0 1.727-.726 2.717-1.804 2.717s-1.804-.99-1.804-2.717v-.264c0-1.716.726-2.717 1.804-2.717s1.804 1.001 1.804 2.717v.264zm4.87 1.188c.044 1.54 1.2 2.596 3.113 2.596 1.694 0 2.85-.957 2.85-2.343.01-1.518-1.233-1.925-2.509-2.156-1.21-.209-2.002-.374-2.002-1.166 0-.726.605-1.1 1.474-1.1.935 0 1.551.528 1.65 1.309h1.265C69.303 1.191 68.203.234 66.443.234c-1.639 0-2.739.913-2.739 2.255 0 1.529 1.21 1.936 2.486 2.156 1.221.22 2.024.396 2.024 1.21 0 .737-.66 1.144-1.573 1.144-1.078 0-1.782-.605-1.848-1.507l-1.276-.022zm9.914-3.168c-.88 0-1.42.396-1.771.88V.3h-1.188V8h1.188V5.151c0-1.133.572-1.826 1.507-1.826.88 0 1.353.572 1.353 1.639V8h1.188V4.865c0-1.881-1.023-2.563-2.277-2.563zm8.505 4.664c-.242 0-.363-.077-.363-.363V4.348c0-1.331-.858-2.046-2.354-2.046-1.419 0-2.365.682-2.486 1.782H77.9c.088-.495.561-.825 1.265-.825.781 0 1.232.385 1.232 1.012v.341h-1.419c-1.573 0-2.409.649-2.409 1.804 0 1.045.858 1.65 2.09 1.65.913 0 1.485-.396 1.86-.968 0 .561.263.902 1.033.902h.627V6.966h-.242zm-1.54-1.276c-.01.869-.583 1.452-1.573 1.452-.649 0-1.045-.33-1.045-.803 0-.572.407-.847 1.144-.847h1.474v.198zm5.278-3.322c-.924 0-1.375.374-1.66.847l-.133-.847h-1.056V8h1.188V5.173c0-.869.341-1.694 1.397-1.694h.528V2.368h-.264zm3.401 5.698c1.397 0 2.343-.847 2.541-1.958h-1.188c-.165.627-.693.99-1.419.99-.935 0-1.54-.627-1.573-1.584v-.077h4.246c.022-.154.033-.308.033-.451-.033-1.65-1.122-2.684-2.75-2.684-1.66 0-2.772 1.155-2.772 2.893 0 1.727 1.111 2.871 2.882 2.871zM87.48 4.568c.088-.803.737-1.309 1.496-1.309.825 0 1.408.473 1.507 1.309H87.48zm11.475 3.498c1.793 0 3.102-1.056 3.344-2.684h-1.309c-.242.979-.979 1.573-2.046 1.573-1.452 0-2.332-1.166-2.332-2.805 0-1.65.902-2.805 2.365-2.805 1.045 0 1.771.605 2.024 1.573h1.309c-.253-1.628-1.518-2.684-3.278-2.684-2.277 0-3.718 1.573-3.718 3.916 0 2.365 1.397 3.916 3.641 3.916zM103.346 8h1.265V4.744h3.014V3.655h-3.014V1.422h3.652V.3h-4.917V8zm8.504 0c2.409 0 3.927-1.573 3.927-3.861 0-2.288-1.518-3.839-3.927-3.839h-2.618V8h2.618zm-1.353-6.6h1.353c1.694 0 2.629 1.089 2.629 2.739S113.544 6.9 111.85 6.9h-1.353V1.4zm6.032 4.741c.033 1.221 1.067 1.925 2.574 1.925 1.364 0 2.387-.682 2.387-1.76 0-1.254-1.045-1.518-2.332-1.672-.814-.088-1.354-.154-1.354-.682 0-.451.463-.737 1.167-.737s1.188.363 1.254.88h1.166c-.077-1.155-1.056-1.793-2.442-1.793-1.353-.011-2.31.682-2.31 1.749 0 1.166 1.012 1.441 2.299 1.595.869.11 1.386.154 1.386.759 0 .451-.484.737-1.221.737-.858 0-1.364-.418-1.408-1.001h-1.166zM126.523 8h1.287l1.232-3.828L130.23 8h1.276l1.87-5.632h-1.21l-1.331 4.312-1.232-4.312h-1.089l-1.287 4.312-1.287-4.312h-1.254L126.523 8zm8.083-6.424c.407 0 .726-.297.726-.715s-.319-.715-.726-.715-.726.297-.726.715.319.715.726.715zM134.001 8h1.188V2.368h-1.188V8zm2.76-1.529c0 1.023.462 1.529 1.54 1.529h1.1V6.955h-.836c-.451 0-.605-.165-.605-.605V3.413h1.375V2.368h-1.375V.795h-1.199v1.573h-.979v1.045h.979v3.058zm6.354-4.169c-.88 0-1.419.396-1.771.88V.3h-1.188V8h1.188V5.151c0-1.133.572-1.826 1.507-1.826.88 0 1.353.572 1.353 1.639V8h1.188V4.865c0-1.881-1.023-2.563-2.277-2.563zm5.977 5.764c1.716 0 2.871-1.155 2.871-2.882 0-1.716-1.155-2.882-2.871-2.882s-2.871 1.166-2.871 2.882c0 1.727 1.155 2.882 2.871 2.882zm0-1.012c-1.001 0-1.65-.781-1.65-1.87s.649-1.87 1.65-1.87 1.661.781 1.661 1.87-.66 1.87-1.661 1.87zm7.687-1.87c0 1.166-.55 1.848-1.452 1.848-.869 0-1.309-.561-1.309-1.661V2.368h-1.188v3.135c0 1.925 1.023 2.563 2.222 2.563.869 0 1.386-.352 1.738-.781l.132.715h1.045V2.368h-1.188v2.816zm2.798 1.287c0 1.023.462 1.529 1.54 1.529h1.1V6.955h-.836c-.451 0-.605-.165-.605-.605V3.413h1.375V2.368h-1.375V.795h-1.199v1.573h-.979v1.045h.979v3.058zm8.795 1.595c1.441 0 2.398-.803 2.618-2.079h-1.254c-.143.649-.627 1.067-1.353 1.067-.957 0-1.584-.759-1.584-1.859 0-1.111.627-1.881 1.584-1.881.737 0 1.21.407 1.364 1.067h1.243c-.231-1.276-1.133-2.079-2.585-2.079-1.705 0-2.827 1.155-2.827 2.893 0 1.76 1.089 2.871 2.794 2.871zm6.189 0c1.716 0 2.871-1.155 2.871-2.882 0-1.716-1.155-2.882-2.871-2.882s-2.871 1.166-2.871 2.882c0 1.727 1.155 2.882 2.871 2.882zm0-1.012c-1.001 0-1.65-.781-1.65-1.87s.649-1.87 1.65-1.87 1.661.781 1.661 1.87-.66 1.87-1.661 1.87zm3.552-.913c.033 1.221 1.067 1.925 2.574 1.925 1.364 0 2.387-.682 2.387-1.76 0-1.254-1.045-1.518-2.332-1.672-.814-.088-1.353-.154-1.353-.682 0-.451.462-.737 1.166-.737s1.188.363 1.254.88h1.166c-.077-1.155-1.056-1.793-2.442-1.793-1.353-.011-2.31.682-2.31 1.749 0 1.166 1.012 1.441 2.299 1.595.869.11 1.386.154 1.386.759 0 .451-.484.737-1.221.737-.858 0-1.364-.418-1.408-1.001h-1.166zm6.289.33c0 1.023.462 1.529 1.54 1.529h1.1V6.955h-.836c-.451 0-.605-.165-.605-.605V3.413h1.375V2.368h-1.375V.795h-1.199v1.573h-.979v1.045h.979v3.058z" fill="#000"/></svg>