<svg width="93" height="24" viewBox="0 0 93 24" fill="none" xmlns="http://www.w3.org/2000/svg"><rect x=".287" y=".117" width="91.887" height="23.766" rx="11.883" fill="#fff"/><path d="M23.445 15.5v-.88h-3.51V7.8h-.956v7.7h4.466zm3.122.066c1.297 0 2.221-.825 2.442-1.947h-.913c-.188.726-.803 1.144-1.596 1.144-1.067 0-1.738-.748-1.77-1.815v-.077h4.355c.011-.132.023-.264.023-.385-.044-1.661-1.079-2.662-2.663-2.662-1.584 0-2.662 1.166-2.662 2.871 0 1.716 1.1 2.871 2.784 2.871zm-1.782-3.443c.087-.913.846-1.507 1.671-1.507.936 0 1.596.539 1.684 1.507h-3.355zm10.313 2.552c-.253 0-.363-.077-.363-.374v-2.453c0-1.309-.825-2.024-2.255-2.024-1.353 0-2.244.649-2.376 1.749h.902c.11-.572.638-.946 1.43-.946.88 0 1.397.44 1.397 1.166v.385h-1.65c-1.474 0-2.255.627-2.255 1.749 0 1.023.836 1.639 2.068 1.639.968 0 1.529-.429 1.88-.935.012.55.265.869 1.013.869h.495v-.825h-.286zm-1.265-1.463c0 .935-.65 1.584-1.771 1.584-.748 0-1.221-.374-1.221-.924 0-.638.45-.935 1.254-.935h1.738v.275zm4.84-3.322c-1 0-1.43.418-1.694.847l-.12-.847h-.782v5.61h.902v-2.86c0-.891.32-1.87 1.496-1.87h.451v-.88h-.253zm3.785-.066c-.946 0-1.518.396-1.848.825l-.12-.759h-.782v5.61h.902v-2.805c0-1.265.638-2.046 1.694-2.046.98 0 1.518.616 1.518 1.782V15.5h.902v-3.124c0-1.859-1-2.552-2.266-2.552zm12.554 0c-1.001 0-1.606.462-1.947 1.067-.319-.715-.99-1.067-1.771-1.067-.869 0-1.342.429-1.639.836l-.121-.77h-.781v5.61h.902v-2.959c0-1.122.561-1.892 1.485-1.892.858 0 1.353.572 1.353 1.672V15.5h.902v-3.003c0-1.144.572-1.848 1.507-1.848.847 0 1.331.572 1.331 1.672V15.5h.902v-3.234c0-1.771-.957-2.442-2.123-2.442zm5.8 5.742c1.64 0 2.784-1.166 2.784-2.871s-1.144-2.871-2.783-2.871c-1.64 0-2.783 1.166-2.783 2.871s1.144 2.871 2.783 2.871zm0-.803c-1.11 0-1.858-.869-1.858-2.068s.748-2.068 1.859-2.068c1.11 0 1.859.869 1.859 2.068s-.748 2.068-1.86 2.068zm6.414-4.873c-1.001 0-1.43.418-1.694.847l-.121-.847h-.781v5.61h.902v-2.86c0-.891.319-1.87 1.496-1.87h.45v-.88h-.252zm3.297 5.676c1.299 0 2.223-.825 2.443-1.947h-.913c-.188.726-.803 1.144-1.596 1.144-1.066 0-1.737-.748-1.77-1.815v-.077h4.356c.01-.132.021-.264.021-.385-.043-1.661-1.077-2.662-2.661-2.662-1.585 0-2.663 1.166-2.663 2.871 0 1.716 1.1 2.871 2.784 2.871zm-1.781-3.443c.087-.913.846-1.507 1.671-1.507.936 0 1.596.539 1.684 1.507h-3.355z" fill="#000"/></svg>