<svg width="157" height="11" viewBox="0 0 157 11" fill="none" xmlns="http://www.w3.org/2000/svg"><path d="M.2 2.02h2.16V8h1.15V2.02h2.16V1H.2v1.02zm8.31.86c-.84 0-1.25.34-1.51.77l-.12-.77h-.96V8H7V5.43c0-.79.31-1.54 1.27-1.54h.48V2.88h-.24zm5.43 4.18c-.22 0-.33-.07-.33-.33V4.68c0-1.21-.78-1.86-2.14-1.86-1.29 0-2.15.62-2.26 1.62h1.06c.08-.45.51-.75 1.15-.75.71 0 1.12.35 1.12.92v.31h-1.29c-1.43 0-2.19.59-2.19 1.64 0 .95.78 1.5 1.9 1.5.83 0 1.35-.36 1.69-.88 0 .51.24.82.94.82h.57v-.94h-.22zm-1.4-1.16c-.01.79-.53 1.32-1.43 1.32-.59 0-.95-.3-.95-.73 0-.52.37-.77 1.04-.77h1.34v.18zm6.06-2.31c-.33-.45-.88-.77-1.66-.77-1.39 0-2.42 1.04-2.42 2.62 0 1.64 1.03 2.62 2.42 2.62.81 0 1.34-.38 1.67-.83l.13.77h.94V1H18.6v2.59zm-1.48 3.56c-.9 0-1.49-.7-1.49-1.71 0-1 .59-1.7 1.49-1.7s1.49.7 1.49 1.72c0 .99-.59 1.69-1.49 1.69zm6.045.91c1.27 0 2.13-.77 2.31-1.78h-1.08c-.15.57-.63.9-1.29.9-.85 0-1.4-.57-1.43-1.44v-.07h3.86c.02-.14.03-.28.03-.41-.03-1.5-1.02-2.44-2.5-2.44-1.51 0-2.52 1.05-2.52 2.63 0 1.57 1.01 2.61 2.62 2.61zm-1.45-3.18c.08-.73.67-1.19 1.36-1.19.75 0 1.28.43 1.37 1.19h-2.73zm11.192-1.2c-.33-.51-.88-.86-1.68-.86-1.39 0-2.42 1.03-2.42 2.6 0 1.63 1.03 2.6 2.42 2.6.8 0 1.33-.33 1.67-.84v.57c0 .98-.53 1.43-1.47 1.43-.76 0-1.26-.33-1.39-.9h-1.1c.1 1.15 1.05 1.78 2.41 1.78 1.84 0 2.62-.88 2.62-2.27V2.88h-.94l-.12.8zm-1.5 3.43c-.9 0-1.49-.69-1.49-1.69 0-.99.59-1.69 1.49-1.69s1.49.7 1.49 1.71c0 .98-.59 1.67-1.49 1.67zm3.615.89h1.08V1h-1.08v7zm4.559.06c1.56 0 2.61-1.05 2.61-2.62 0-1.56-1.05-2.62-2.61-2.62-1.56 0-2.61 1.06-2.61 2.62 0 1.57 1.05 2.62 2.61 2.62zm0-.92c-.91 0-1.5-.71-1.5-1.7s.59-1.7 1.5-1.7 1.51.71 1.51 1.7-.6 1.7-1.51 1.7zm6.218-4.32c-.79 0-1.32.36-1.66.82V1h-1.08v7H44l.13-.74c.32.46.87.8 1.67.8 1.4 0 2.42-1.05 2.42-2.62 0-1.65-1.02-2.62-2.42-2.62zm-.18 4.33c-.9 0-1.49-.71-1.49-1.72 0-.99.59-1.69 1.49-1.69s1.5.7 1.5 1.7c0 1.01-.6 1.71-1.5 1.71zm8.146-.09c-.22 0-.33-.07-.33-.33V4.68c0-1.21-.78-1.86-2.14-1.86-1.29 0-2.15.62-2.26 1.62h1.06c.08-.45.51-.75 1.15-.75.71 0 1.12.35 1.12.92v.31h-1.29c-1.43 0-2.19.59-2.19 1.64 0 .95.78 1.5 1.9 1.5.83 0 1.35-.36 1.69-.88 0 .51.24.82.94.82h.57v-.94h-.22zm-1.4-1.16c-.01.79-.53 1.32-1.43 1.32-.59 0-.95-.3-.95-.73 0-.52.37-.77 1.04-.77h1.34v.18zM54.573 8h1.08V1h-1.08v7zm7.847.06c1.63 0 2.82-.96 3.04-2.44h-1.19c-.22.89-.89 1.43-1.86 1.43-1.32 0-2.12-1.06-2.12-2.55 0-1.5.82-2.55 2.15-2.55.95 0 1.61.55 1.84 1.43h1.19C65.24 1.9 64.09.94 62.49.94c-2.07 0-3.38 1.43-3.38 3.56 0 2.15 1.27 3.56 3.31 3.56zM66.412 8h1.15V5.04h2.74v-.99h-2.74V2.02h3.32V1h-4.47v7zm7.731 0c2.19 0 3.57-1.43 3.57-3.51S76.333 1 74.143 1h-2.38v7h2.38zm-1.23-6h1.23c1.54 0 2.39.99 2.39 2.49 0 1.5-.85 2.51-2.39 2.51h-1.23V2zm5.483 4.31c.03 1.11.97 1.75 2.34 1.75 1.24 0 2.17-.62 2.17-1.6 0-1.14-.95-1.38-2.12-1.52-.74-.08-1.23-.14-1.23-.62 0-.41.42-.67 1.06-.67.64 0 1.08.33 1.14.8h1.06c-.07-1.05-.96-1.63-2.22-1.63-1.23-.01-2.1.62-2.1 1.59 0 1.06.92 1.31 2.09 1.45.79.1 1.26.14 1.26.69 0 .41-.44.67-1.11.67-.78 0-1.24-.38-1.28-.91h-1.06zM87.48 8h1.17l1.12-3.48L90.852 8h1.16l1.7-5.12h-1.1l-1.21 3.92-1.12-3.92h-.99l-1.17 3.92-1.17-3.92h-1.14L87.481 8zm7.349-5.84c.37 0 .66-.27.66-.65s-.29-.65-.66-.65c-.37 0-.66.27-.66.65s.29.65.66.65zM94.28 8h1.08V2.88h-1.08V8zm2.509-1.39c0 .93.42 1.39 1.4 1.39h1v-.95h-.76c-.41 0-.55-.15-.55-.55V3.83h1.25v-.95h-1.25V1.45h-1.09v1.43h-.89v.95h.89v2.78zm5.777-3.79c-.8 0-1.29.36-1.61.8V1h-1.08v7h1.08V5.41c0-1.03.52-1.66 1.37-1.66.8 0 1.23.52 1.23 1.49V8h1.08V5.15c0-1.71-.93-2.33-2.07-2.33zm5.61 5.18h1.08V1h-1.08v7zm4.559.06c1.56 0 2.61-1.05 2.61-2.62 0-1.56-1.05-2.62-2.61-2.62-1.56 0-2.61 1.06-2.61 2.62 0 1.57 1.05 2.62 2.61 2.62zm0-.92c-.91 0-1.5-.71-1.5-1.7s.59-1.7 1.5-1.7 1.51.71 1.51 1.7-.6 1.7-1.51 1.7zm4.483.86h1.17l1.12-3.48 1.08 3.48h1.16l1.7-5.12h-1.1l-1.21 3.92-1.12-3.92h-.99l-1.17 3.92-1.17-3.92h-1.14l1.67 5.12zm12.097-5.18c-.8 0-1.33.37-1.67.82l-.13-.76h-.94V10h1.08V7.28c.32.46.87.78 1.66.78 1.4 0 2.42-1.04 2.42-2.62 0-1.64-1.02-2.62-2.42-2.62zm-.18 4.33c-.9 0-1.49-.71-1.49-1.73 0-.99.59-1.68 1.49-1.68s1.5.69 1.5 1.7c0 1-.6 1.71-1.5 1.71zm6.055-4.27c-.84 0-1.25.34-1.51.77l-.12-.77h-.96V8h1.08V5.43c0-.79.31-1.54 1.27-1.54h.48V2.88h-.24zm1.456-.72c.37 0 .66-.27.66-.65s-.29-.65-.66-.65c-.37 0-.66.27-.66.65s.29.65.66.65zm-.55 5.84h1.08V2.88h-1.08V8zm4.489.06c1.31 0 2.18-.73 2.38-1.89h-1.14c-.13.59-.57.97-1.23.97-.87 0-1.44-.69-1.44-1.69 0-1.01.57-1.71 1.44-1.71.67 0 1.1.37 1.24.97h1.13c-.21-1.16-1.03-1.89-2.35-1.89-1.55 0-2.57 1.05-2.57 2.63 0 1.6.99 2.61 2.54 2.61zm3.757-5.9c.37 0 .66-.27.66-.65s-.29-.65-.66-.65c-.37 0-.66.27-.66.65s.29.65.66.65zm-.55 5.84h1.08V2.88h-1.08V8zm4.838-5.18c-.83 0-1.32.33-1.64.73l-.12-.67h-.94V8h1.08V5.42c0-1.04.51-1.67 1.37-1.67.81 0 1.22.52 1.22 1.49V8h1.09V5.15c0-1.71-.93-2.33-2.06-2.33zm6.953.86c-.33-.51-.88-.86-1.68-.86-1.39 0-2.42 1.03-2.42 2.6 0 1.63 1.03 2.6 2.42 2.6.8 0 1.33-.33 1.67-.84v.57c0 .98-.53 1.43-1.47 1.43-.76 0-1.26-.33-1.39-.9h-1.1c.1 1.15 1.05 1.78 2.41 1.78 1.84 0 2.62-.88 2.62-2.27V2.88h-.94l-.12.8zm-1.5 3.43c-.9 0-1.49-.69-1.49-1.69 0-.99.59-1.69 1.49-1.69s1.49.7 1.49 1.71c0 .98-.59 1.67-1.49 1.67z" fill="#000"/></svg>