<svg width="123" height="46" viewBox="0 0 123 46" fill="none" xmlns="http://www.w3.org/2000/svg"><path d="M.46 3.246h4.968V17h2.645V3.246h4.968V.9H.46v2.346zm19.114 1.978c-1.932 0-2.875.782-3.473 1.771l-.276-1.771h-2.208V17h2.484v-5.911c0-1.817.713-3.542 2.921-3.542h1.104V5.224h-.552zm12.49 9.614c-.507 0-.76-.161-.76-.759V9.364c0-2.783-1.794-4.278-4.922-4.278-2.967 0-4.945 1.426-5.198 3.726h2.438c.184-1.035 1.173-1.725 2.645-1.725 1.633 0 2.576.805 2.576 2.116v.713h-2.967c-3.289 0-5.037 1.357-5.037 3.772 0 2.185 1.794 3.45 4.37 3.45 1.91 0 3.105-.828 3.887-2.024 0 1.173.552 1.886 2.162 1.886h1.311v-2.162h-.506zm-3.22-2.668c-.024 1.817-1.22 3.036-3.29 3.036-1.357 0-2.185-.69-2.185-1.679 0-1.196.851-1.771 2.392-1.771h3.082v.414zm13.935-5.313c-.759-1.035-2.024-1.771-3.818-1.771-3.197 0-5.566 2.392-5.566 6.026 0 3.772 2.37 6.026 5.566 6.026 1.863 0 3.082-.874 3.841-1.909l.3 1.771h2.161V.9H42.78v5.957zm-3.404 8.188c-2.07 0-3.427-1.61-3.427-3.933 0-2.3 1.357-3.91 3.427-3.91 2.07 0 3.427 1.61 3.427 3.956 0 2.277-1.357 3.887-3.427 3.887zm13.905 2.093c2.92 0 4.899-1.771 5.313-4.094h-2.484c-.345 1.311-1.45 2.07-2.967 2.07-1.955 0-3.22-1.311-3.29-3.312v-.161h8.879c.046-.322.069-.644.069-.943-.07-3.45-2.346-5.612-5.75-5.612-3.473 0-5.796 2.415-5.796 6.049 0 3.611 2.323 6.003 6.026 6.003zm-3.335-7.314c.184-1.679 1.54-2.737 3.128-2.737 1.725 0 2.944.989 3.15 2.737h-6.278zm16.909.276c0 4.577 2.162 7.038 6.325 7.038 4.186 0 6.37-2.461 6.37-7.038V.9h-2.644v9.338c0 2.99-1.15 4.554-3.726 4.554-2.53 0-3.68-1.564-3.68-4.554V.9h-2.645v9.2zm14.9 1.61c.093 3.22 2.508 5.428 6.51 5.428 3.542 0 5.957-2.001 5.957-4.899.023-3.174-2.576-4.025-5.244-4.508-2.53-.437-4.186-.782-4.186-2.438 0-1.518 1.265-2.3 3.082-2.3 1.955 0 3.243 1.104 3.45 2.737h2.645C93.853 2.763 91.553.762 87.873.762c-3.427 0-5.727 1.909-5.727 4.715 0 3.197 2.53 4.048 5.198 4.508 2.553.46 4.232.828 4.232 2.53 0 1.541-1.38 2.392-3.29 2.392-2.253 0-3.725-1.265-3.863-3.151l-2.668-.046zm-80.926 28c.092 3.22 2.507 5.428 6.509 5.428 3.542 0 5.957-2.001 5.957-4.899.023-3.174-2.576-4.025-5.244-4.508-2.53-.437-4.186-.782-4.186-2.438 0-1.518 1.265-2.3 3.082-2.3 1.955 0 3.243 1.104 3.45 2.737h2.645c-.115-2.967-2.415-4.968-6.095-4.968-3.427 0-5.727 1.909-5.727 4.715 0 3.197 2.53 4.048 5.198 4.508 2.553.46 4.232.828 4.232 2.53 0 1.541-1.38 2.392-3.289 2.392-2.254 0-3.726-1.265-3.864-3.151L.828 39.71zm20.728-6.624c-1.84 0-2.967.828-3.703 1.84V28.9H15.37V45h2.484v-5.957c0-2.369 1.196-3.818 3.151-3.818 1.84 0 2.83 1.196 2.83 3.427V45h2.483v-6.555c0-3.933-2.139-5.359-4.76-5.359zm17.784 9.752c-.506 0-.759-.161-.759-.759v-4.715c0-2.783-1.794-4.278-4.922-4.278-2.967 0-4.945 1.426-5.198 3.726H30.9c.184-1.035 1.173-1.725 2.645-1.725 1.633 0 2.576.805 2.576 2.116v.713h-2.967c-3.289 0-5.037 1.357-5.037 3.772 0 2.185 1.794 3.45 4.37 3.45 1.91 0 3.105-.828 3.887-2.024 0 1.173.552 1.886 2.162 1.886h1.311v-2.162h-.506zm-3.22-2.668c-.023 1.817-1.219 3.036-3.289 3.036-1.357 0-2.185-.69-2.185-1.679 0-1.196.851-1.771 2.392-1.771h3.082v.414zm11.037-6.946c-1.932 0-2.875.782-3.473 1.771l-.276-1.771h-2.209V45h2.485v-5.911c0-1.817.713-3.542 2.92-3.542h1.105v-2.323h-.553zm7.111 11.914c2.921 0 4.899-1.771 5.313-4.094h-2.484c-.345 1.311-1.449 2.07-2.967 2.07-1.955 0-3.22-1.311-3.289-3.312v-.161h8.878c.046-.322.069-.644.069-.943-.069-3.45-2.346-5.612-5.75-5.612-3.473 0-5.796 2.415-5.796 6.049 0 3.611 2.323 6.003 6.026 6.003zm-3.335-7.314c.184-1.679 1.541-2.737 3.128-2.737 1.725 0 2.944.989 3.151 2.737h-6.279zm23.993 7.314c3.749 0 6.486-2.208 6.992-5.612H79.18c-.506 2.047-2.047 3.289-4.278 3.289-3.036 0-4.876-2.438-4.876-5.865 0-3.45 1.886-5.865 4.945-5.865 2.185 0 3.703 1.265 4.232 3.289h2.737c-.53-3.404-3.174-5.612-6.854-5.612-4.761 0-7.774 3.289-7.774 8.188 0 4.945 2.92 8.188 7.613 8.188zm9.18-.138h2.645v-6.808h6.302v-2.277H86.75v-4.669h7.636V28.9H84.106V45zm17.782 0c5.037 0 8.211-3.289 8.211-8.073 0-4.784-3.174-8.027-8.211-8.027h-5.474V45h5.474zm-2.829-13.8h2.829c3.542 0 5.497 2.277 5.497 5.727s-1.955 5.773-5.497 5.773h-2.829V31.2zm12.611 9.913c.069 2.553 2.231 4.025 5.382 4.025 2.852 0 4.991-1.426 4.991-3.68 0-2.622-2.185-3.174-4.876-3.496-1.702-.184-2.829-.322-2.829-1.426 0-.943.966-1.541 2.438-1.541 1.472 0 2.484.759 2.622 1.84h2.438c-.161-2.415-2.208-3.749-5.106-3.749-2.829-.023-4.83 1.426-4.83 3.657 0 2.438 2.116 3.013 4.807 3.335 1.817.23 2.898.322 2.898 1.587 0 .943-1.012 1.541-2.553 1.541-1.794 0-2.852-.874-2.944-2.093h-2.438z" fill="#000"/></svg>