<svg width="728" height="22" viewBox="0 0 728 22" fill="none" xmlns="http://www.w3.org/2000/svg"><path fill="#fff" d="M0 0h728v22H0z"/><path d="M5.594 15h1.242l1.858-6.523V7.44H5.13v1.08h2.397L5.594 15zm4.692 0h1.188V7.44h-.8c-.27.734-.626.95-1.63.95v.843h1.242V15zm2.193 0h1.188v-1.188h-1.188V15zm3.836.108c1.166 0 1.803-.691 1.803-1.9v-1.35c0-1.113-.442-1.729-1.317-1.729-.497 0-.864.216-1.102.659V9.341c0-.724.238-.929.659-.929.378 0 .616.205.616.745v.216h1.123v-.14c0-1.21-.605-1.901-1.771-1.901-1.232 0-1.815.691-1.815 1.966v3.91c0 1.209.637 1.9 1.804 1.9zm0-1.08c-.41 0-.616-.238-.616-.734v-1.34c0-.507.205-.745.616-.745.41 0 .615.238.615.745v1.34c0 .496-.205.734-.615.734zm3.451-2.387c.745 0 1.145-.432 1.145-1.21v-1.89c0-.777-.4-1.209-1.145-1.209s-1.145.432-1.145 1.21v1.89c0 .777.4 1.21 1.145 1.21zM19.583 15h.756l2.926-7.56h-.756L19.582 15zm.183-4.04c-.248 0-.389-.14-.389-.474V8.488c0-.335.14-.476.39-.476.237 0 .388.14.388.476v1.998c0 .334-.151.475-.389.475zm3.316 4.148c.745 0 1.145-.432 1.145-1.21v-1.89c0-.777-.4-1.21-1.145-1.21s-1.145.433-1.145 1.21v1.89c0 .778.4 1.21 1.145 1.21zm0-.68c-.249 0-.39-.14-.39-.476v-1.998c0-.334.141-.475.39-.475.237 0 .389.14.389.475v1.998c0 .335-.152.476-.39.476zm5.116.68c1.08 0 1.684-.648 1.684-1.793v-2.138c0-1.145-.604-1.793-1.684-1.793s-1.685.648-1.685 1.793v2.138c0 1.145.605 1.793 1.685 1.793zm0-1.015c-.41 0-.54-.281-.54-.67V11.07c0-.378.118-.67.54-.67.42 0 .54.292.54.67v2.354c0 .389-.13.67-.54.67zm4.374-5.746c.119 0 .248.022.389.065V7.44a1.659 1.659 0 00-.627-.108c-.907 0-1.35.443-1.35 1.34v.82h-.626v.972h.626V15h1.145v-4.536h.832v-.972h-.832v-.67c0-.345.119-.475.443-.475zm4.76 1.037c-.56 0-.917.346-1.069 1.037l-.021-.929h-.994V15h1.145v-3.175c0-.853.335-1.296.972-1.296.097 0 .205.01.292.032V9.45a.69.69 0 00-.324-.065zm2.425 0c-1.101 0-1.695.648-1.695 1.793v2.138c0 1.145.594 1.793 1.695 1.793 1.102 0 1.696-.648 1.696-1.793v-.097h-1.102v.205c0 .486-.205.67-.572.67-.378 0-.572-.184-.572-.67v-.929h2.246v-1.317c0-1.145-.594-1.793-1.696-1.793zm-.55 2.203v-.518c0-.486.205-.67.561-.67.357 0 .562.184.562.67v.518h-1.123zm5.292-1.123v-.972h-.832v-1.49h-.983l-.108 1.49h-.68v.972h.626v3.305c0 .896.443 1.339 1.35 1.339.238 0 .432-.032.627-.108v-.972a1.33 1.33 0 01-.389.065c-.324 0-.443-.13-.443-.475v-3.154h.832zM48.414 15c-.076-.313-.13-.81-.13-1.588v-2.214c0-1.21-.454-1.814-1.598-1.814-1.059 0-1.61.616-1.61 1.685v.14h1.08v-.205c0-.41.162-.637.519-.637.324 0 .464.183.464.626v.108c0 .303-.108.4-.896.789-.972.475-1.329.972-1.329 1.836 0 .853.465 1.382 1.2 1.382.55 0 .96-.27 1.166-.756.01.346.054.583.086.648h1.048zm-1.869-.875c-.324 0-.486-.205-.486-.594 0-.356.173-.637.519-.853.302-.194.475-.302.561-.41v.94c0 .604-.205.917-.594.917zm2.615-5.313h1.144V7.559H49.16v1.253zm0 6.188h1.144V9.492H49.16V15zm2.035 0h1.145V7.44h-1.145V15zm3.765-6.188h1.145V7.559H54.96v1.253zm0 6.188h1.145V9.492H54.96V15zm4.153-5.616c-.508 0-.907.27-1.102.745l-.022-.637h-.993V15h1.145v-3.715c0-.659.259-.886.583-.886.346 0 .475.249.475.724V15h1.145v-4.007c0-1.134-.465-1.609-1.231-1.609zM61.983 15h1.403L64.5 9.492h-1.07l-.69 3.964-.703-3.964H60.87L61.982 15zm4.648-5.616c-1.102 0-1.696.648-1.696 1.793v2.138c0 1.145.594 1.793 1.696 1.793 1.101 0 1.695-.648 1.695-1.793v-.097h-1.101v.205c0 .486-.205.67-.573.67-.378 0-.572-.184-.572-.67v-.929h2.246v-1.317c0-1.145-.594-1.793-1.695-1.793zm-.551 2.203v-.518c0-.486.205-.67.562-.67.356 0 .561.184.561.67v.518H66.08zm4.45 3.521c1.047 0 1.577-.626 1.577-1.598 0-.983-.648-1.361-1.232-1.685-.453-.249-.842-.486-.842-.94 0-.378.205-.518.443-.518.28 0 .453.151.453.594v.151h1.08v-.119c0-1.004-.604-1.609-1.544-1.609-1.015 0-1.544.605-1.544 1.523 0 1.037.67 1.415 1.252 1.75.432.248.8.464.8.874 0 .432-.206.594-.497.594-.292 0-.508-.173-.508-.67v-.205h-1.101v.173c0 1.059.604 1.685 1.663 1.685zm4.492-4.644v-.972h-.832v-1.49h-.983l-.108 1.49h-.68v.972h.626v3.305c0 .896.443 1.339 1.35 1.339.238 0 .432-.032.627-.108v-.972a1.33 1.33 0 01-.39.065c-.323 0-.442-.13-.442-.475v-3.154h.832zm2.208 4.644c1.08 0 1.685-.648 1.685-1.793v-2.138c0-1.145-.605-1.793-1.685-1.793s-1.685.648-1.685 1.793v2.138c0 1.145.605 1.793 1.685 1.793zm0-1.015c-.41 0-.54-.281-.54-.67V11.07c0-.378.119-.67.54-.67.421 0 .54.292.54.67v2.354c0 .389-.13.67-.54.67zm4.547-4.709c-.561 0-.918.346-1.069 1.037l-.022-.929h-.993V15h1.145v-3.175c0-.853.334-1.296.972-1.296.097 0 .205.01.291.032V9.45a.69.69 0 00-.324-.065zM87.637 15c-.075-.313-.13-.81-.13-1.588v-2.214c0-1.21-.453-1.814-1.598-1.814-1.058 0-1.609.616-1.609 1.685v.14h1.08v-.205c0-.41.162-.637.519-.637.324 0 .464.183.464.626v.108c0 .303-.108.4-.896.789-.972.475-1.329.972-1.329 1.836 0 .853.465 1.382 1.2 1.382.55 0 .96-.27 1.166-.756.01.346.053.583.086.648h1.047zm-1.868-.875c-.324 0-.486-.205-.486-.594 0-.356.173-.637.519-.853.302-.194.475-.302.561-.41v.94c0 .604-.205.917-.594.917zm4.18.983c1.102 0 1.631-.691 1.631-1.771v-.443H90.48v.55c0 .411-.14.649-.53.649-.388 0-.529-.238-.529-.648v-2.398c0-.41.14-.648.53-.648.388 0 .529.238.529.648v.443h1.101v-.335c0-1.08-.529-1.771-1.63-1.771-1.091 0-1.675.648-1.675 1.771v2.182c0 1.123.584 1.771 1.674 1.771zm3.934 0c1.102 0 1.631-.691 1.631-1.771v-.443h-1.101v.55c0 .411-.14.649-.53.649-.388 0-.529-.238-.529-.648v-2.398c0-.41.14-.648.53-.648.388 0 .529.238.529.648v.443h1.101v-.335c0-1.08-.529-1.771-1.63-1.771-1.091 0-1.675.648-1.675 1.771v2.182c0 1.123.584 1.771 1.674 1.771zm3.945 0c1.08 0 1.685-.648 1.685-1.793v-2.138c0-1.145-.605-1.793-1.685-1.793s-1.685.648-1.685 1.793v2.138c0 1.145.605 1.793 1.685 1.793zm0-1.015c-.41 0-.54-.281-.54-.67V11.07c0-.378.119-.67.54-.67.421 0 .54.292.54.67v2.354c0 .389-.13.67-.54.67zm4.634-4.601v3.715c0 .659-.26.886-.584.886-.345 0-.475-.249-.475-.724V9.492h-1.145v4.007c0 1.134.465 1.609 1.232 1.609.507 0 .907-.27 1.101-.745l.022.637h.993V9.492h-1.144zm4.143-.108c-.507 0-.907.27-1.101.745l-.022-.637h-.993V15h1.144v-3.715c0-.659.26-.886.584-.886.345 0 .475.249.475.724V15h1.145v-4.007c0-1.134-.465-1.609-1.232-1.609zm4.371 1.08v-.972h-.832v-1.49h-.983l-.108 1.49h-.68v.972h.626v3.305c0 .896.443 1.339 1.35 1.339.238 0 .432-.032.627-.108v-.972c-.141.043-.27.065-.389.065-.324 0-.443-.13-.443-.475v-3.154h.832zm2.089 4.644c1.048 0 1.577-.626 1.577-1.598 0-.983-.648-1.361-1.231-1.685-.454-.249-.842-.486-.842-.94 0-.378.205-.518.442-.518.281 0 .454.151.454.594v.151h1.08v-.119c0-1.004-.605-1.609-1.544-1.609-1.016 0-1.545.605-1.545 1.523 0 1.037.67 1.415 1.253 1.75.432.248.799.464.799.874 0 .432-.205.594-.497.594-.291 0-.507-.173-.507-.67v-.205h-1.102v.173c0 1.059.605 1.685 1.663 1.685zm3.974-.108h1.145V7.44h-1.145V15zm3.613.108c1.08 0 1.684-.648 1.684-1.793v-2.138c0-1.145-.604-1.793-1.684-1.793s-1.685.648-1.685 1.793v2.138c0 1.145.605 1.793 1.685 1.793zm0-1.015c-.411 0-.54-.281-.54-.67V11.07c0-.378.118-.67.54-.67.421 0 .54.292.54.67v2.354c0 .389-.13.67-.54.67zm3.909 1.015c1.048 0 1.577-.626 1.577-1.598 0-.983-.648-1.361-1.231-1.685-.454-.249-.842-.486-.842-.94 0-.378.205-.518.442-.518.281 0 .454.151.454.594v.151h1.08v-.119c0-1.004-.605-1.609-1.544-1.609-1.016 0-1.545.605-1.545 1.523 0 1.037.67 1.415 1.253 1.75.432.248.799.464.799.874 0 .432-.205.594-.497.594-.291 0-.507-.173-.507-.67v-.205h-1.102v.173c0 1.059.605 1.685 1.663 1.685zm3.832-5.724c-1.101 0-1.695.648-1.695 1.793v2.138c0 1.145.594 1.793 1.695 1.793 1.102 0 1.696-.648 1.696-1.793v-.097h-1.102v.205c0 .486-.205.67-.572.67-.378 0-.573-.184-.573-.67v-.929h2.247v-1.317c0-1.145-.594-1.793-1.696-1.793zm-.551 2.203v-.518c0-.486.206-.67.562-.67.356 0 .562.184.562.67v.518h-1.124zm9.01-2.203c-.486 0-.886.27-1.08.734-.195-.507-.573-.734-1.102-.734-.497 0-.886.27-1.08.745l-.022-.637h-.993V15h1.145v-3.715c0-.648.248-.886.572-.886.367 0 .464.292.464.67V15h1.145v-3.715c0-.648.249-.886.573-.886.367 0 .464.292.464.67V15h1.145v-4.007c0-1.123-.465-1.609-1.231-1.609zm3.659 5.724c1.08 0 1.685-.648 1.685-1.793v-2.138c0-1.145-.605-1.793-1.685-1.793s-1.684.648-1.684 1.793v2.138c0 1.145.604 1.793 1.684 1.793zm0-1.015c-.41 0-.54-.281-.54-.67V11.07c0-.378.119-.67.54-.67.422 0 .54.292.54.67v2.354c0 .389-.129.67-.54.67zm4.58-4.709c-.508 0-.907.27-1.102.745l-.021-.637h-.994V15h1.145v-3.715c0-.659.259-.886.583-.886.346 0 .475.249.475.724V15h1.145v-4.007c0-1.134-.464-1.609-1.231-1.609zm3.668 0c-1.101 0-1.695.648-1.695 1.793v2.138c0 1.145.594 1.793 1.695 1.793 1.102 0 1.696-.648 1.696-1.793v-.097h-1.102v.205c0 .486-.205.67-.572.67-.378 0-.572-.184-.572-.67v-.929h2.246v-1.317c0-1.145-.594-1.793-1.696-1.793zm-.55 2.203v-.518c0-.486.205-.67.561-.67.357 0 .562.184.562.67v.518h-1.123zm3.564 5.195c.886 0 1.318-.367 1.512-1.307l1.22-5.983h-1.069l-.659 3.79-.734-3.79h-1.166l1.328 5.735-.022.075c-.075.357-.216.465-.604.465-.152 0-.292-.022-.422-.065v.972c.195.086.411.108.616.108zM157.352 15h1.458l.518-3.391.518 3.391h1.383l.831-5.508h-1.015l-.583 3.964-.54-3.964h-1.156l-.54 3.964-.583-3.964h-1.123l.832 5.508zm7.419-5.616c-.41 0-.756.173-.972.497V7.44h-1.144V15h1.144v-3.715c0-.659.26-.886.584-.886.345 0 .475.249.475.724V15h1.145v-4.007c0-1.134-.465-1.609-1.232-1.609zm3.669 0c-1.102 0-1.696.648-1.696 1.793v2.138c0 1.145.594 1.793 1.696 1.793 1.101 0 1.695-.648 1.695-1.793v-.097h-1.101v.205c0 .486-.205.67-.573.67-.378 0-.572-.184-.572-.67v-.929h2.246v-1.317c0-1.145-.594-1.793-1.695-1.793zm-.551 2.203v-.518c0-.486.205-.67.562-.67.356 0 .561.184.561.67v.518h-1.123zm5.119-2.203c-.507 0-.907.27-1.101.745l-.022-.637h-.993V15h1.144v-3.715c0-.659.26-.886.584-.886.345 0 .475.249.475.724V15h1.145v-4.007c0-1.134-.465-1.609-1.232-1.609zm6.101 1.08v-.972h-.832v-1.49h-.983l-.108 1.49h-.68v.972h.626v3.305c0 .896.443 1.339 1.35 1.339.238 0 .432-.032.627-.108v-.972c-.141.043-.27.065-.389.065-.324 0-.443-.13-.443-.475v-3.154h.832zm2.726-1.08c-.561 0-.918.346-1.069 1.037l-.021-.929h-.994V15h1.145v-3.175c0-.853.335-1.296.972-1.296.097 0 .205.01.291.032V9.45a.688.688 0 00-.324-.065zM185.903 15c-.076-.313-.13-.81-.13-1.588v-2.214c0-1.21-.453-1.814-1.598-1.814-1.059 0-1.609.616-1.609 1.685v.14h1.08v-.205c0-.41.162-.637.518-.637.324 0 .464.183.464.626v.108c0 .303-.108.4-.896.789-.972.475-1.328.972-1.328 1.836 0 .853.464 1.382 1.198 1.382.551 0 .962-.27 1.167-.756.011.346.054.583.086.648h1.048zm-1.869-.875c-.324 0-.486-.205-.486-.594 0-.356.173-.637.519-.853.302-.194.475-.302.561-.41v.94c0 .604-.205.917-.594.917zm6.038.875c-.075-.313-.129-.81-.129-1.588V7.44h-1.145v2.452a1.167 1.167 0 00-.983-.508c-.756 0-1.242.475-1.242 1.61v2.505c0 1.134.486 1.609 1.242 1.609.508 0 .918-.28 1.112-.756.022.346.065.583.098.648h1.047zm-1.868-.907c-.378 0-.486-.292-.486-.67V11.07c0-.378.108-.67.486-.67.324 0 .594.238.594.886v1.922c0 .648-.27.886-.594.886zm2.621-5.281h1.145V7.559h-1.145v1.253zm0 6.188h1.145V9.492h-1.145V15zm4.153-5.616c-.508 0-.908.27-1.102.745l-.022-.637h-.993V15h1.145v-3.715c0-.659.259-.886.583-.886.345 0 .475.249.475.724V15h1.145v-4.007c0-1.134-.465-1.609-1.231-1.609zm4.359.108l-.021.648c-.195-.475-.605-.756-1.102-.756-.767 0-1.253.475-1.253 1.61v2.235c0 1.134.486 1.609 1.253 1.609.41 0 .745-.184.972-.508v.832c0 .486-.184.68-.572.68-.357 0-.519-.194-.519-.486v-.086h-1.101v.032c0 .95.55 1.48 1.641 1.48 1.285 0 1.696-.648 1.696-1.706V9.492h-.994zm-.745 4.33c-.378 0-.486-.29-.486-.669V11.07c0-.378.108-.67.486-.67.324 0 .594.238.594.886v1.652c0 .648-.27.886-.594.886zm6.015 1.286c1.145 0 1.749-.691 1.749-1.858v-1.015h-1.123v1.102c0 .497-.237.691-.594.691-.356 0-.594-.194-.594-.691V9.114c0-.497.238-.702.594-.702.357 0 .594.205.594.702v.875h1.123v-.8c0-1.166-.604-1.857-1.749-1.857s-1.75.691-1.75 1.858v4.06c0 1.167.605 1.858 1.75 1.858zm2.45-.108h1.188v-3.294h1.533v-1.08h-1.533V8.52h1.955V7.44h-3.143V15zm3.712 0h1.815c1.188 0 1.771-.659 1.771-1.868V9.308c0-1.21-.583-1.868-1.771-1.868h-1.815V15zm1.188-1.08v-5.4h.605c.378 0 .605.194.605.734v3.932c0 .54-.227.734-.605.734h-.605zm4.7 1.188c1.047 0 1.577-.626 1.577-1.598 0-.983-.648-1.361-1.232-1.685-.453-.249-.842-.486-.842-.94 0-.378.205-.518.443-.518.281 0 .453.151.453.594v.151h1.08v-.119c0-1.004-.604-1.609-1.544-1.609-1.015 0-1.544.605-1.544 1.523 0 1.037.669 1.415 1.252 1.75.432.248.8.464.8.874 0 .432-.206.594-.497.594-.292 0-.508-.173-.508-.67v-.205h-1.101v.173c0 1.059.604 1.685 1.663 1.685zm4.514-.108h1.458l.518-3.391.518 3.391h1.383l.831-5.508h-1.015l-.583 3.964-.54-3.964h-1.156l-.54 3.964-.583-3.964h-1.123l.832 5.508zm5.303-6.188h1.144V7.559h-1.144v1.253zm0 6.188h1.144V9.492h-1.144V15zm4.325-4.536v-.972h-.832v-1.49h-.983l-.108 1.49h-.68v.972h.626v3.305c0 .896.443 1.339 1.35 1.339.238 0 .432-.032.627-.108v-.972c-.141.043-.27.065-.389.065-.324 0-.443-.13-.443-.475v-3.154h.832zm2.759-1.08c-.41 0-.756.173-.972.497V7.44h-1.145V15h1.145v-3.715c0-.659.259-.886.583-.886.346 0 .475.249.475.724V15h1.145v-4.007c0-1.134-.464-1.609-1.231-1.609zm6.1 1.08v-.972h-.831v-1.49h-.983l-.108 1.49h-.681v.972h.627v3.305c0 .896.443 1.339 1.35 1.339.237 0 .432-.032.626-.108v-.972c-.14.043-.27.065-.389.065-.324 0-.442-.13-.442-.475v-3.154h.831zm2.759-1.08c-.41 0-.756.173-.972.497V7.44h-1.144V15h1.144v-3.715c0-.659.26-.886.584-.886.345 0 .475.249.475.724V15h1.145v-4.007c0-1.134-.465-1.609-1.232-1.609zm2.081-.572h1.145V7.559h-1.145v1.253zm0 6.188h1.145V9.492h-1.145V15zm3.483.108c1.048 0 1.577-.626 1.577-1.598 0-.983-.648-1.361-1.231-1.685-.454-.249-.843-.486-.843-.94 0-.378.205-.518.443-.518.281 0 .454.151.454.594v.151h1.08v-.119c0-1.004-.605-1.609-1.545-1.609-1.015 0-1.544.605-1.544 1.523 0 1.037.669 1.415 1.253 1.75.432.248.799.464.799.874 0 .432-.205.594-.497.594-.292 0-.508-.173-.508-.67v-.205h-1.101v.173c0 1.059.605 1.685 1.663 1.685zm6.091-5.724c-.497 0-.907.28-1.102.756l-.021-.648h-.994v7.182h1.145V14.6c.227.324.561.508.972.508.767 0 1.253-.475 1.253-1.61v-2.505c0-1.134-.486-1.609-1.253-1.609zm.108 4.04c0 .377-.108.669-.486.669-.324 0-.594-.238-.594-.886v-1.922c0-.648.27-.886.594-.886.378 0 .486.292.486.67v2.354zm4.036-4.04c-.562 0-.918.346-1.069 1.037l-.022-.929h-.994V15h1.145v-3.175c0-.853.335-1.296.972-1.296.097 0 .205.01.292.032V9.45a.693.693 0 00-.324-.065zm2.414 5.724c1.08 0 1.685-.648 1.685-1.793v-2.138c0-1.145-.605-1.793-1.685-1.793s-1.685.648-1.685 1.793v2.138c0 1.145.605 1.793 1.685 1.793zm0-1.015c-.411 0-.54-.281-.54-.67V11.07c0-.378.119-.67.54-.67.421 0 .54.292.54.67v2.354c0 .389-.13.67-.54.67zm3.23.907h1.404l1.112-5.508h-1.069l-.691 3.964-.702-3.964h-1.166L263.86 15zm3.093-6.188h1.144V7.559h-1.144v1.253zm0 6.188h1.144V9.492h-1.144V15zm5.459 0c-.076-.313-.13-.81-.13-1.588V7.44h-1.145v2.452a1.164 1.164 0 00-.982-.508c-.756 0-1.242.475-1.242 1.61v2.505c0 1.134.486 1.609 1.242 1.609.507 0 .918-.28 1.112-.756.022.346.065.583.097.648h1.048zm-1.869-.907c-.378 0-.486-.292-.486-.67V11.07c0-.378.108-.67.486-.67.324 0 .594.238.594.886v1.922c0 .648-.27.886-.594.886zm4.209-4.709c-1.101 0-1.695.648-1.695 1.793v2.138c0 1.145.594 1.793 1.695 1.793 1.102 0 1.696-.648 1.696-1.793v-.097h-1.102v.205c0 .486-.205.67-.572.67-.378 0-.573-.184-.573-.67v-.929h2.247v-1.317c0-1.145-.594-1.793-1.696-1.793zm-.551 2.203v-.518c0-.486.206-.67.562-.67.356 0 .562.184.562.67v.518h-1.124zm5.088-2.203c-.562 0-.918.346-1.07 1.037l-.021-.929h-.994V15h1.145v-3.175c0-.853.335-1.296.972-1.296.097 0 .205.01.292.032V9.45a.693.693 0 00-.324-.065zm.036 5.616h1.188v-1.188h-1.188V15zm5.122 0h.843v-3.316l1.523-4.244h-.832l-1.08 3.154-1.08-3.154h-.896l1.522 4.244V15zm3.974.108c1.026 0 1.598-.637 1.598-1.76v-2.139c0-1.123-.572-1.75-1.598-1.75-1.037 0-1.599.627-1.599 1.75v2.139c0 1.123.562 1.76 1.599 1.76zm0-.724c-.562 0-.789-.367-.789-.96v-2.29c0-.584.227-.95.789-.95.561 0 .777.366.777.95v2.29c0 .593-.227.96-.777.96zm4.828-4.816v3.607c0 .81-.367 1.21-.853 1.21-.475 0-.68-.325-.68-.951V9.568h-.821v3.963c0 1.091.453 1.577 1.253 1.577.55 0 .982-.302 1.198-.832l.011.724h.702V9.568h-.81zm4.956 5.54c.972 0 1.512-.583 1.512-1.512 0-.972-.67-1.328-1.275-1.642-.518-.259-.972-.507-.972-1.058 0-.497.314-.734.692-.734.41 0 .691.237.691.788v.13h.767v-.108c0-.95-.584-1.512-1.469-1.512-.929 0-1.469.561-1.469 1.447 0 1.004.68 1.35 1.285 1.674.497.248.94.497.94 1.026 0 .55-.303.788-.745.788-.443 0-.746-.248-.746-.831v-.206h-.788v.184c0 .983.583 1.566 1.577 1.566zm4.221-5.648c-.486 0-.864.226-1.102.626V7.44h-.81V15h.81v-3.607c0-.81.368-1.21.854-1.21.475 0 .68.324.68.95V15h.821v-3.974c0-1.08-.454-1.566-1.253-1.566zm3.734 5.648c1.026 0 1.599-.637 1.599-1.76v-2.139c0-1.123-.573-1.75-1.599-1.75-1.036 0-1.598.627-1.598 1.75v2.139c0 1.123.562 1.76 1.598 1.76zm0-.724c-.561 0-.788-.367-.788-.96v-2.29c0-.584.227-.95.788-.95.562 0 .778.366.778.95v2.29c0 .593-.227.96-.778.96zm4.829-4.816v3.607c0 .81-.367 1.21-.853 1.21-.475 0-.681-.325-.681-.951V9.568h-.82v3.963c0 1.091.453 1.577 1.252 1.577.551 0 .983-.302 1.199-.832l.011.724h.702V9.568h-.81zM312.833 15h.81V7.44h-.81V15zm5.075 0c-.075-.313-.119-.788-.119-1.48V7.44h-.81v2.668a1.258 1.258 0 00-1.123-.648c-.788 0-1.263.486-1.263 1.566v2.505c0 1.08.475 1.577 1.263 1.577.562 0 .994-.313 1.221-.842.01.356.043.615.086.734h.745zm-1.803-.616c-.497 0-.692-.356-.692-.918V11.09c0-.55.195-.907.692-.907.496 0 .874.41.874 1.21v1.782c0 .799-.378 1.21-.874 1.21zm5.96.724c1.047 0 1.555-.659 1.555-1.739v-.345h-.788v.42c0 .606-.227.94-.767.94s-.767-.334-.767-.94v-2.332c0-.605.227-.929.767-.929s.767.324.767.929v.313h.788v-.237c0-1.08-.508-1.728-1.555-1.728-1.037 0-1.588.615-1.588 1.728v2.181c0 1.113.551 1.739 1.588 1.739zm3.913 0c1.026 0 1.598-.637 1.598-1.76v-2.139c0-1.123-.572-1.75-1.598-1.75-1.037 0-1.598.627-1.598 1.75v2.139c0 1.123.561 1.76 1.598 1.76zm0-.724c-.562 0-.788-.367-.788-.96v-2.29c0-.584.226-.95.788-.95s.778.366.778.95v2.29c0 .593-.227.96-.778.96zm4.429-4.924c-.551 0-.983.302-1.199.82l-.011-.712h-.702V15h.81v-3.607c0-.81.368-1.21.854-1.21.475 0 .68.324.68.95V15h.821v-3.974c0-1.08-.454-1.566-1.253-1.566zm3.594 5.648c.972 0 1.512-.583 1.512-1.512 0-.972-.67-1.328-1.275-1.642-.518-.259-.972-.507-.972-1.058 0-.497.314-.734.692-.734.41 0 .691.237.691.788v.13h.767v-.108c0-.95-.584-1.512-1.469-1.512-.929 0-1.469.561-1.469 1.447 0 1.004.68 1.35 1.285 1.674.497.248.94.497.94 1.026 0 .55-.303.788-.745.788-.443 0-.746-.248-.746-.831v-.206h-.788v.184c0 .983.583 1.566 1.577 1.566zm2.31-6.318h.81V7.624h-.81V8.79zm0 6.21h.81V9.568h-.81V15zm5.075 0c-.076-.313-.119-.788-.119-1.48V7.44h-.81v2.668a1.259 1.259 0 00-1.123-.648c-.789 0-1.264.486-1.264 1.566v2.505c0 1.08.475 1.577 1.264 1.577.561 0 .993-.313 1.22-.842.011.356.043.615.086.734h.746zm-1.804-.616c-.497 0-.691-.356-.691-.918V11.09c0-.55.194-.907.691-.907.497 0 .875.41.875 1.21v1.782c0 .799-.378 1.21-.875 1.21zm4.22-4.924c-1.047 0-1.609.626-1.609 1.75v2.138c0 1.123.562 1.76 1.609 1.76 1.037 0 1.61-.637 1.61-1.76v-.087h-.789v.162c0 .659-.281.961-.81.961s-.799-.302-.799-.96v-1.016h2.398v-1.199c0-1.123-.573-1.75-1.61-1.75zm-.788 2.278v-.604c0-.648.27-.95.788-.95.519 0 .81.302.81.95v.604h-1.598zm5.131-2.278c-.572 0-.95.324-1.134 1.004L347 9.568h-.702V15h.81v-3.164c0-1.048.357-1.566 1.059-1.566.119 0 .227.01.335.054v-.8a.753.753 0 00-.357-.064zm3.4 5.54h1.047l.713-3.92.713 3.92h.993l.94-5.432h-.734l-.756 4.309-.724-4.31h-.853l-.724 4.31-.756-4.31h-.799l.94 5.433zm7.043-5.54c-.486 0-.864.226-1.101.626V7.44h-.81V15h.81v-3.607c0-.81.367-1.21.853-1.21.475 0 .68.324.68.95V15h.821v-3.974c0-1.08-.454-1.566-1.253-1.566zm3.745 0c-1.047 0-1.609.626-1.609 1.75v2.138c0 1.123.562 1.76 1.609 1.76 1.037 0 1.609-.637 1.609-1.76v-.087h-.788v.162c0 .659-.281.961-.81.961s-.799-.302-.799-.96v-1.016h2.397v-1.199c0-1.123-.572-1.75-1.609-1.75zm-.788 2.278v-.604c0-.648.27-.95.788-.95.519 0 .81.302.81.95v.604h-1.598zm5.412-1.48v-.69h-.983V8.002h-.702l-.086 1.566h-.702v.69h.669v3.608c0 .832.389 1.242 1.199 1.242.238 0 .411-.022.605-.108v-.702a1.2 1.2 0 01-.454.086c-.388 0-.529-.172-.529-.604v-3.521h.983zm2.642-.798c-.486 0-.864.226-1.101.626V7.44h-.81V15h.81v-3.607c0-.81.367-1.21.853-1.21.475 0 .68.324.68.95V15h.821v-3.974c0-1.08-.454-1.566-1.253-1.566zm3.745 0c-1.047 0-1.609.626-1.609 1.75v2.138c0 1.123.562 1.76 1.609 1.76 1.037 0 1.609-.637 1.609-1.76v-.087h-.788v.162c0 .659-.281.961-.81.961s-.799-.302-.799-.96v-1.016h2.397v-1.199c0-1.123-.572-1.75-1.609-1.75zm-.788 2.278v-.604c0-.648.27-.95.788-.95.519 0 .81.302.81.95v.604h-1.598zm5.131-2.278c-.572 0-.95.324-1.134 1.004l-.011-.896h-.702V15h.81v-3.164c0-1.048.357-1.566 1.059-1.566a.87.87 0 01.334.054v-.8a.751.751 0 00-.356-.064zm3.205 7.322c.745 0 1.112-.324 1.307-1.166l1.371-6.048h-.766l-.886 4.136-.972-4.136h-.832l1.404 5.54-.108.389c-.097.443-.259.561-.637.561a.939.939 0 01-.432-.086v.702c.151.086.357.108.551.108zm4.845-1.674c1.026 0 1.598-.637 1.598-1.76v-2.139c0-1.123-.572-1.75-1.598-1.75-1.037 0-1.599.627-1.599 1.75v2.139c0 1.123.562 1.76 1.599 1.76zm0-.724c-.562 0-.789-.367-.789-.96v-2.29c0-.584.227-.95.789-.95.561 0 .777.366.777.95v2.29c0 .593-.227.96-.777.96zm4.828-4.816v3.607c0 .81-.367 1.21-.853 1.21-.475 0-.68-.325-.68-.951V9.568h-.821v3.963c0 1.091.453 1.577 1.253 1.577.55 0 .982-.302 1.198-.832l.011.724h.702V9.568h-.81zm5.917 0v3.607c0 .81-.367 1.21-.853 1.21-.475 0-.681-.325-.681-.951V9.568h-.82v3.963c0 1.091.453 1.577 1.252 1.577.551 0 .983-.302 1.199-.832l.011.724h.702V9.568h-.81zm3.756-.108c-.551 0-.983.302-1.199.82l-.011-.712h-.702V15h.81v-3.607c0-.81.367-1.21.853-1.21.476 0 .681.324.681.95V15h.821v-3.974c0-1.08-.454-1.566-1.253-1.566zm5.473 5.54c-.076-.313-.119-.788-.119-1.48V7.44h-.81v2.668a1.259 1.259 0 00-1.123-.648c-.789 0-1.264.486-1.264 1.566v2.505c0 1.08.475 1.577 1.264 1.577.561 0 .993-.313 1.22-.842.011.356.043.615.087.734h.745zm-1.804-.616c-.497 0-.691-.356-.691-.918V11.09c0-.55.194-.907.691-.907.497 0 .875.41.875 1.21v1.782c0 .799-.378 1.21-.875 1.21zm4.221-4.924c-1.048 0-1.609.626-1.609 1.75v2.138c0 1.123.561 1.76 1.609 1.76 1.037 0 1.609-.637 1.609-1.76v-.087h-.788v.162c0 .659-.281.961-.81.961-.53 0-.8-.302-.8-.96v-1.016h2.398v-1.199c0-1.123-.572-1.75-1.609-1.75zm-.789 2.278v-.604c0-.648.27-.95.789-.95.518 0 .81.302.81.95v.604h-1.599zm5.132-2.278c-.573 0-.951.324-1.134 1.004l-.011-.896h-.702V15h.81v-3.164c0-1.048.356-1.566 1.058-1.566.119 0 .227.01.335.054v-.8a.751.751 0 00-.356-.064zm2.319 5.648c.972 0 1.512-.583 1.512-1.512 0-.972-.67-1.328-1.275-1.642-.518-.259-.972-.507-.972-1.058 0-.497.314-.734.692-.734.41 0 .691.237.691.788v.13h.767v-.108c0-.95-.584-1.512-1.469-1.512-.929 0-1.469.561-1.469 1.447 0 1.004.68 1.35 1.285 1.674.497.248.94.497.94 1.026 0 .55-.303.788-.745.788-.443 0-.746-.248-.746-.831v-.206h-.788v.184c0 .983.583 1.566 1.577 1.566zm4.385-4.85v-.69h-.983V8.002h-.702l-.087 1.566h-.702v.69h.67v3.608c0 .832.389 1.242 1.199 1.242.237 0 .41-.022.605-.108v-.702a1.203 1.203 0 01-.454.086c-.389 0-.529-.172-.529-.604v-3.521h.983zM422.972 15c-.075-.313-.118-.8-.118-1.48v-2.419c0-1.08-.465-1.641-1.502-1.641-.972 0-1.533.561-1.533 1.576v.12h.767v-.163c0-.54.28-.831.756-.831.464 0 .702.27.702.81v.13c0 .366-.119.474-1.026.885-.983.464-1.35.94-1.35 1.782 0 .82.464 1.339 1.209 1.339.605 0 1.048-.302 1.264-.842.021.345.054.626.086.734h.745zm-1.814-.605c-.443 0-.67-.27-.67-.745s.227-.8.767-1.07c.465-.237.681-.366.789-.507v1.091c0 .778-.335 1.231-.886 1.231zm4.624-4.935c-.55 0-.982.302-1.198.82l-.011-.712h-.702V15h.81v-3.607c0-.81.367-1.21.853-1.21.475 0 .68.324.68.95V15h.821v-3.974c0-1.08-.453-1.566-1.253-1.566zm5.473 5.54c-.075-.313-.118-.788-.118-1.48V7.44h-.81v2.668a1.26 1.26 0 00-1.124-.648c-.788 0-1.263.486-1.263 1.566v2.505c0 1.08.475 1.577 1.263 1.577.562 0 .994-.313 1.221-.842.011.356.043.615.086.734h.745zm-1.803-.616c-.497 0-.691-.356-.691-.918V11.09c0-.55.194-.907.691-.907.497 0 .875.41.875 1.21v1.782c0 .799-.378 1.21-.875 1.21zm6.392-4.924c-.486 0-.864.226-1.102.626V7.44h-.81V15h.81v-3.607c0-.81.368-1.21.854-1.21.475 0 .68.324.68.95V15h.821v-3.974c0-1.08-.454-1.566-1.253-1.566zm3.734 5.648c1.026 0 1.599-.637 1.599-1.76v-2.139c0-1.123-.573-1.75-1.599-1.75-1.036 0-1.598.627-1.598 1.75v2.139c0 1.123.562 1.76 1.598 1.76zm0-.724c-.561 0-.788-.367-.788-.96v-2.29c0-.584.227-.95.788-.95.562 0 .778.366.778.95v2.29c0 .593-.227.96-.778.96zm3.155.616h1.048l.712-3.92.713 3.92h.994l.939-5.432h-.734l-.756 4.309-.724-4.31h-.853l-.723 4.31-.756-4.31h-.8l.94 5.433zm8.492.108c1.09 0 1.684-.68 1.684-1.804V12.3h-.799v1.058c0 .648-.335.983-.864.983-.529 0-.864-.335-.864-.983V9.082c0-.648.335-.983.864-.983.529 0 .864.335.864.983v.831h.799v-.777c0-1.134-.594-1.804-1.684-1.804-1.08 0-1.685.67-1.685 1.804v4.168c0 1.124.605 1.804 1.685 1.804zM453.75 15h.842v-3.456h1.739v-.767h-1.739v-2.57h2.16V7.44h-3.002V15zm3.691 0h1.728c1.167 0 1.707-.616 1.707-1.836V9.276c0-1.22-.54-1.836-1.707-1.836h-1.728V15zm.843-.767V8.207h.864c.594 0 .885.28.885 1.026v3.963c0 .746-.291 1.037-.885 1.037h-.864zm4.948.875c.972 0 1.512-.583 1.512-1.512 0-.972-.67-1.328-1.275-1.642-.518-.259-.972-.507-.972-1.058 0-.497.313-.734.691-.734.411 0 .692.237.692.788v.13h.766v-.108c0-.95-.583-1.512-1.468-1.512-.929 0-1.469.561-1.469 1.447 0 1.004.68 1.35 1.285 1.674.497.248.94.497.94 1.026 0 .55-.303.788-.746.788-.442 0-.745-.248-.745-.831v-.206h-.788v.184c0 .983.583 1.566 1.577 1.566zM467.94 15h1.048l.712-3.92.713 3.92h.994l.939-5.432h-.734l-.756 4.309-.724-4.31h-.853l-.723 4.31-.756-4.31h-.8l.94 5.433zm6.622.108c1.026 0 1.599-.637 1.599-1.76v-2.139c0-1.123-.573-1.75-1.599-1.75-1.036 0-1.598.627-1.598 1.75v2.139c0 1.123.562 1.76 1.598 1.76zm0-.724c-.561 0-.788-.367-.788-.96v-2.29c0-.584.227-.95.788-.95.562 0 .778.366.778.95v2.29c0 .593-.227.96-.778.96zm4.365-4.924c-.573 0-.951.324-1.134 1.004l-.011-.896h-.702V15h.81v-3.164c0-1.048.356-1.566 1.058-1.566.119 0 .227.01.335.054v-.8a.751.751 0 00-.356-.064zm3.56 5.54h.886l-1.426-3.391 1.361-2.041h-.875l-1.696 2.646V7.44h-.81V15h.81v-1.642l.648-.96L482.487 15zm6.403 0c-.075-.313-.119-.8-.119-1.48v-2.419c0-1.08-.464-1.641-1.501-1.641-.972 0-1.533.561-1.533 1.576v.12h.766v-.163c0-.54.281-.831.756-.831.465 0 .702.27.702.81v.13c0 .366-.118.474-1.026.885-.982.464-1.35.94-1.35 1.782 0 .82.465 1.339 1.21 1.339.605 0 1.048-.302 1.264-.842.021.345.054.626.086.734h.745zm-1.814-.605c-.443 0-.67-.27-.67-.745s.227-.8.767-1.07c.464-.237.68-.366.788-.507v1.091c0 .778-.334 1.231-.885 1.231zM491.7 9.46c-.55 0-.982.302-1.198.82l-.011-.712h-.702V15h.81v-3.607c0-.81.367-1.21.853-1.21.475 0 .68.324.68.95V15h.821v-3.974c0-1.08-.453-1.566-1.253-1.566zm5.473 5.54c-.075-.313-.118-.788-.118-1.48V7.44h-.81v2.668a1.26 1.26 0 00-1.124-.648c-.788 0-1.263.486-1.263 1.566v2.505c0 1.08.475 1.577 1.263 1.577.562 0 .994-.313 1.221-.842.011.356.043.615.086.734h.745zm-1.803-.616c-.497 0-.691-.356-.691-.918V11.09c0-.55.194-.907.691-.907.497 0 .875.41.875 1.21v1.782c0 .799-.378 1.21-.875 1.21zm5.118.616h1.047l.713-3.92.713 3.92h.993l.94-5.432h-.734l-.756 4.309-.724-4.31h-.853l-.724 4.31-.756-4.31h-.799l.94 5.433zm7.043-5.54c-.486 0-.864.226-1.101.626V7.44h-.81V15h.81v-3.607c0-.81.367-1.21.853-1.21.475 0 .68.324.68.95V15h.821v-3.974c0-1.08-.454-1.566-1.253-1.566zm3.745 0c-1.047 0-1.609.626-1.609 1.75v2.138c0 1.123.562 1.76 1.609 1.76 1.037 0 1.609-.637 1.609-1.76v-.087h-.788v.162c0 .659-.281.961-.81.961s-.799-.302-.799-.96v-1.016h2.397v-1.199c0-1.123-.572-1.75-1.609-1.75zm-.788 2.278v-.604c0-.648.27-.95.788-.95.519 0 .81.302.81.95v.604h-1.598zm5.412-1.48v-.69h-.983V8.002h-.702l-.086 1.566h-.702v.69h.669v3.608c0 .832.389 1.242 1.199 1.242.238 0 .411-.022.605-.108v-.702a1.2 1.2 0 01-.454.086c-.388 0-.529-.172-.529-.604v-3.521h.983zm2.642-.798c-.486 0-.864.226-1.101.626V7.44h-.81V15h.81v-3.607c0-.81.367-1.21.853-1.21.475 0 .68.324.68.95V15h.821v-3.974c0-1.08-.454-1.566-1.253-1.566zm3.745 0c-1.047 0-1.609.626-1.609 1.75v2.138c0 1.123.562 1.76 1.609 1.76 1.037 0 1.609-.637 1.609-1.76v-.087h-.788v.162c0 .659-.281.961-.81.961s-.799-.302-.799-.96v-1.016h2.397v-1.199c0-1.123-.572-1.75-1.609-1.75zm-.788 2.278v-.604c0-.648.27-.95.788-.95.519 0 .81.302.81.95v.604h-1.598zm5.131-2.278c-.572 0-.95.324-1.134 1.004l-.011-.896h-.702V15h.81v-3.164c0-1.048.357-1.566 1.059-1.566a.87.87 0 01.334.054v-.8a.751.751 0 00-.356-.064zm3.205 7.322c.745 0 1.112-.324 1.307-1.166l1.371-6.048h-.766l-.886 4.136-.972-4.136h-.832l1.404 5.54-.108.389c-.097.443-.259.561-.637.561a.939.939 0 01-.432-.086v.702c.151.086.357.108.551.108zm4.845-1.674c1.026 0 1.598-.637 1.598-1.76v-2.139c0-1.123-.572-1.75-1.598-1.75-1.037 0-1.599.627-1.599 1.75v2.139c0 1.123.562 1.76 1.599 1.76zm0-.724c-.562 0-.789-.367-.789-.96v-2.29c0-.584.227-.95.789-.95.561 0 .777.366.777.95v2.29c0 .593-.227.96-.777.96zm4.828-4.816v3.607c0 .81-.367 1.21-.853 1.21-.475 0-.68-.325-.68-.951V9.568h-.821v3.963c0 1.091.453 1.577 1.253 1.577.55 0 .982-.302 1.198-.832l.011.724h.702V9.568h-.81zm5.085 5.54c1.048 0 1.556-.659 1.556-1.739v-.345h-.789v.42c0 .606-.227.94-.767.94s-.766-.334-.766-.94v-2.332c0-.605.226-.929.766-.929s.767.324.767.929v.313h.789v-.237c0-1.08-.508-1.728-1.556-1.728-1.036 0-1.587.615-1.587 1.728v2.181c0 1.113.551 1.739 1.587 1.739zm5.469-.108c-.075-.313-.119-.8-.119-1.48v-2.419c0-1.08-.464-1.641-1.501-1.641-.972 0-1.533.561-1.533 1.576v.12h.766v-.163c0-.54.281-.831.756-.831.465 0 .702.27.702.81v.13c0 .366-.118.474-1.026.885-.982.464-1.35.94-1.35 1.782 0 .82.465 1.339 1.21 1.339.605 0 1.048-.302 1.264-.842.021.345.054.626.086.734h.745zm-1.814-.605c-.443 0-.67-.27-.67-.745s.227-.8.767-1.07c.464-.237.68-.366.788-.507v1.091c0 .778-.334 1.231-.885 1.231zm4.624-4.935c-.551 0-.983.302-1.199.82l-.01-.712h-.702V15h.81v-3.607c0-.81.367-1.21.853-1.21.475 0 .68.324.68.95V15h.821v-3.974c0-1.08-.454-1.566-1.253-1.566zm7.073 5.54c-.076-.313-.119-.8-.119-1.48v-2.419c0-1.08-.465-1.641-1.501-1.641-.972 0-1.534.561-1.534 1.576v.12h.767v-.163c0-.54.281-.831.756-.831.464 0 .702.27.702.81v.13c0 .366-.119.474-1.026.885-.983.464-1.35.94-1.35 1.782 0 .82.464 1.339 1.209 1.339.605 0 1.048-.302 1.264-.842.022.345.054.626.086.734h.746zm-1.815-.605c-.443 0-.669-.27-.669-.745s.226-.8.766-1.07c.465-.237.681-.366.789-.507v1.091c0 .778-.335 1.231-.886 1.231zm4.409-6.34c.151 0 .291.022.453.087V7.44c-.194-.086-.367-.108-.605-.108-.799 0-1.188.41-1.188 1.231v1.005h-.691v.69h.691V15h.81v-4.741h.983v-.691h-.983V8.66c0-.442.152-.604.53-.604zm2.795 0c.151 0 .291.022.453.087V7.44c-.194-.086-.367-.108-.605-.108-.799 0-1.188.41-1.188 1.231v1.005h-.691v.69h.691V15h.81v-4.741h.983v-.691h-.983V8.66c0-.442.152-.604.53-.604zm2.568 7.053c1.026 0 1.599-.637 1.599-1.76v-2.139c0-1.123-.573-1.75-1.599-1.75-1.037 0-1.598.627-1.598 1.75v2.139c0 1.123.561 1.76 1.598 1.76zm0-.724c-.561 0-.788-.367-.788-.96v-2.29c0-.584.227-.95.788-.95.562 0 .778.366.778.95v2.29c0 .593-.227.96-.778.96zm4.364-4.924c-.572 0-.95.324-1.134 1.004l-.01-.896h-.702V15h.81v-3.164c0-1.048.356-1.566 1.058-1.566.119 0 .227.01.335.054v-.8a.753.753 0 00-.357-.064zm4.178 5.54c-.076-.313-.119-.788-.119-1.48V7.44h-.81v2.668a1.259 1.259 0 00-1.123-.648c-.789 0-1.264.486-1.264 1.566v2.505c0 1.08.475 1.577 1.264 1.577.561 0 .993-.313 1.22-.842.011.356.043.615.087.734h.745zm-1.804-.616c-.497 0-.691-.356-.691-.918V11.09c0-.55.194-.907.691-.907.497 0 .875.41.875 1.21v1.782c0 .799-.378 1.21-.875 1.21zm6.608-4.125v-.691h-.982V8.002h-.702l-.087 1.566h-.702v.69h.67v3.608c0 .832.389 1.242 1.199 1.242.237 0 .41-.022.604-.108v-.702a1.198 1.198 0 01-.453.086c-.389 0-.529-.172-.529-.604v-3.521h.982zm2.211 4.849c1.026 0 1.598-.637 1.598-1.76v-2.139c0-1.123-.572-1.75-1.598-1.75-1.037 0-1.599.627-1.599 1.75v2.139c0 1.123.562 1.76 1.599 1.76zm0-.724c-.562 0-.789-.367-.789-.96v-2.29c0-.584.227-.95.789-.95.561 0 .777.366.777.95v2.29c0 .593-.226.96-.777.96zm6.406-4.125v-.691h-.983V8.002h-.702l-.086 1.566h-.702v.69h.67v3.608c0 .832.388 1.242 1.198 1.242.238 0 .411-.022.605-.108v-.702a1.198 1.198 0 01-.453.086c-.389 0-.53-.172-.53-.604v-3.521h.983zM593.663 15c-.076-.313-.119-.8-.119-1.48v-2.419c0-1.08-.464-1.641-1.501-1.641-.972 0-1.534.561-1.534 1.576v.12h.767v-.163c0-.54.281-.831.756-.831.465 0 .702.27.702.81v.13c0 .366-.119.474-1.026.885-.983.464-1.35.94-1.35 1.782 0 .82.465 1.339 1.21 1.339.605 0 1.047-.302 1.263-.842.022.345.054.626.087.734h.745zm-1.814-.605c-.443 0-.67-.27-.67-.745s.227-.8.767-1.07c.464-.237.68-.366.788-.507v1.091c0 .778-.335 1.231-.885 1.231zm5.272.605h.886l-1.426-3.391 1.361-2.041h-.875l-1.696 2.646V7.44h-.81V15h.81v-1.642l.648-.96L597.121 15zm2.96-5.54c-1.048 0-1.609.626-1.609 1.75v2.138c0 1.123.561 1.76 1.609 1.76 1.037 0 1.609-.637 1.609-1.76v-.087h-.788v.162c0 .659-.281.961-.81.961s-.799-.302-.799-.96v-1.016h2.397v-1.199c0-1.123-.572-1.75-1.609-1.75zm-.788 2.278v-.604c0-.648.27-.95.788-.95s.81.302.81.95v.604h-1.598zm7.173-1.48v-.69h-.983V8.002h-.702l-.086 1.566h-.702v.69h.669v3.608c0 .832.389 1.242 1.199 1.242.238 0 .411-.022.605-.108v-.702a1.2 1.2 0 01-.454.086c-.388 0-.529-.172-.529-.604v-3.521h.983zm2.642-.798c-.486 0-.864.226-1.101.626V7.44h-.81V15h.81v-3.607c0-.81.367-1.21.853-1.21.475 0 .68.324.68.95V15h.821v-3.974c0-1.08-.454-1.566-1.253-1.566zm3.745 0c-1.047 0-1.609.626-1.609 1.75v2.138c0 1.123.562 1.76 1.609 1.76 1.037 0 1.609-.637 1.609-1.76v-.087h-.788v.162c0 .659-.281.961-.81.961s-.799-.302-.799-.96v-1.016h2.397v-1.199c0-1.123-.572-1.75-1.609-1.75zm-.788 2.278v-.604c0-.648.27-.95.788-.95.519 0 .81.302.81.95v.604h-1.598zm6.957-2.278c-.486 0-.864.226-1.101.626V7.44h-.81V15h.81v-3.607c0-.81.367-1.21.853-1.21.475 0 .68.324.68.95V15h.821v-3.974c0-1.08-.454-1.566-1.253-1.566zm2.244-.67h.81V7.624h-.81V8.79zm0 6.21h.81V9.568h-.81V15zm4.233-5.432l-.011.723c-.216-.529-.648-.831-1.21-.831-.788 0-1.263.486-1.263 1.566v2.268c0 1.08.475 1.576 1.263 1.576.486 0 .875-.237 1.113-.648v.994c0 .616-.26.886-.789.886-.507 0-.767-.249-.767-.68v-.076h-.777v.043c0 .896.529 1.393 1.555 1.393 1.166 0 1.588-.594 1.588-1.62V9.568h-.702zm-.972 4.579c-.508 0-.702-.357-.702-.918V11.09c0-.55.194-.907.702-.907.486 0 .864.41.864 1.21v1.544c0 .8-.378 1.21-.864 1.21zm4.62-4.687c-.486 0-.864.226-1.101.626V7.44h-.81V15h.81v-3.607c0-.81.367-1.21.853-1.21.475 0 .68.324.68.95V15h.821v-3.974c0-1.08-.454-1.566-1.253-1.566zm5.852 0c-.572 0-.95.324-1.134 1.004l-.011-.896h-.702V15h.81v-3.164c0-1.048.357-1.566 1.059-1.566.119 0 .227.01.335.054v-.8a.753.753 0 00-.357-.064zM636 8.79h.81V7.624H636V8.79zm0 6.21h.81V9.568H636V15zm3.196.108c.972 0 1.512-.583 1.512-1.512 0-.972-.67-1.328-1.275-1.642-.518-.259-.972-.507-.972-1.058 0-.497.314-.734.692-.734.41 0 .691.237.691.788v.13h.767v-.108c0-.95-.584-1.512-1.469-1.512-.929 0-1.469.561-1.469 1.447 0 1.004.68 1.35 1.285 1.674.497.248.94.497.94 1.026 0 .55-.303.788-.745.788-.443 0-.746-.248-.746-.831v-.206h-.788v.184c0 .983.583 1.566 1.577 1.566zm4.869-.108h.886l-1.426-3.391 1.361-2.041h-.875l-1.695 2.646V7.44h-.81V15h.81v-1.642l.648-.96L644.065 15zm4.827.108c1.026 0 1.598-.637 1.598-1.76v-2.139c0-1.123-.572-1.75-1.598-1.75-1.037 0-1.599.627-1.599 1.75v2.139c0 1.123.562 1.76 1.599 1.76zm0-.724c-.562 0-.789-.367-.789-.96v-2.29c0-.584.227-.95.789-.95.561 0 .777.366.777.95v2.29c0 .593-.227.96-.777.96zm4.213-6.328c.151 0 .291.021.453.086V7.44c-.194-.086-.367-.108-.605-.108-.799 0-1.188.41-1.188 1.231v1.005h-.691v.69h.691V15h.81v-4.741h.983v-.691h-.983V8.66c0-.442.152-.604.53-.604zM655.997 15h.81V7.44h-.81V15zm3.336.108c1.026 0 1.598-.637 1.598-1.76v-2.139c0-1.123-.572-1.75-1.598-1.75-1.037 0-1.598.627-1.598 1.75v2.139c0 1.123.561 1.76 1.598 1.76zm0-.724c-.562 0-.788-.367-.788-.96v-2.29c0-.584.226-.95.788-.95s.778.366.778.95v2.29c0 .593-.227.96-.778.96zm3.867.724c.972 0 1.512-.583 1.512-1.512 0-.972-.669-1.328-1.274-1.642-.518-.259-.972-.507-.972-1.058 0-.497.313-.734.691-.734.411 0 .691.237.691.788v.13h.767v-.108c0-.95-.583-1.512-1.469-1.512-.928 0-1.468.561-1.468 1.447 0 1.004.68 1.35 1.285 1.674.497.248.939.497.939 1.026 0 .55-.302.788-.745.788s-.745-.248-.745-.831v-.206h-.788v.184c0 .983.583 1.566 1.576 1.566zm2.31-6.318h.81V7.624h-.81V8.79zm0 6.21h.81V9.568h-.81V15zm3.758-5.54c-.551 0-.983.302-1.199.82l-.011-.712h-.702V15h.81v-3.607c0-.81.367-1.21.853-1.21.475 0 .681.324.681.95V15h.82v-3.974c0-1.08-.453-1.566-1.252-1.566zm4.63.108l-.011.723c-.216-.529-.648-.831-1.209-.831-.789 0-1.264.486-1.264 1.566v2.268c0 1.08.475 1.576 1.264 1.576a1.24 1.24 0 001.112-.648v.994c0 .616-.259.886-.788.886-.508 0-.767-.249-.767-.68v-.076h-.778v.043c0 .896.53 1.393 1.556 1.393 1.166 0 1.587-.594 1.587-1.62V9.568h-.702zm-.972 4.579c-.507 0-.702-.357-.702-.918V11.09c0-.55.195-.907.702-.907.486 0 .864.41.864 1.21v1.544c0 .8-.378 1.21-.864 1.21zm4.913 2.635c.746 0 1.113-.324 1.307-1.166l1.372-6.048h-.767l-.886 4.136-.972-4.136h-.831l1.404 5.54-.108.389c-.097.443-.259.561-.637.561a.936.936 0 01-.432-.086v.702c.151.086.356.108.55.108zm4.845-1.674c1.026 0 1.598-.637 1.598-1.76v-2.139c0-1.123-.572-1.75-1.598-1.75-1.037 0-1.599.627-1.599 1.75v2.139c0 1.123.562 1.76 1.599 1.76zm0-.724c-.562 0-.789-.367-.789-.96v-2.29c0-.584.227-.95.789-.95.561 0 .777.366.777.95v2.29c0 .593-.226.96-.777.96zm4.828-4.816v3.607c0 .81-.367 1.21-.853 1.21-.475 0-.68-.325-.68-.951V9.568h-.821v3.963c0 1.091.454 1.577 1.253 1.577.551 0 .983-.302 1.199-.832l.01.724h.702V9.568h-.81zm3.692-.108c-.573 0-.951.324-1.134 1.004l-.011-.896h-.702V15h.81v-3.164c0-1.048.356-1.566 1.058-1.566.119 0 .227.01.335.054v-.8a.751.751 0 00-.356-.064zm6.92 0c-.53 0-.94.291-1.156.799-.173-.551-.562-.8-1.123-.8-.54 0-.951.303-1.167.821l-.01-.712h-.702V15h.81v-3.607c0-.8.345-1.21.82-1.21.465 0 .648.335.648.853V15h.821v-3.607c0-.8.346-1.21.821-1.21.464 0 .648.335.648.853V15h.81v-4.018c0-1.047-.454-1.522-1.22-1.522zm3.702 5.648c1.026 0 1.599-.637 1.599-1.76v-2.139c0-1.123-.573-1.75-1.599-1.75-1.036 0-1.598.627-1.598 1.75v2.139c0 1.123.562 1.76 1.598 1.76zm0-.724c-.561 0-.788-.367-.788-.96v-2.29c0-.584.227-.95.788-.95.562 0 .778.366.778.95v2.29c0 .593-.227.96-.778.96zm4.429-4.924c-.55 0-.982.302-1.198.82l-.011-.712h-.702V15h.81v-3.607c0-.81.367-1.21.853-1.21.475 0 .68.324.68.95V15h.821v-3.974c0-1.08-.453-1.566-1.253-1.566zm3.745 0c-1.047 0-1.609.626-1.609 1.75v2.138c0 1.123.562 1.76 1.609 1.76 1.037 0 1.61-.637 1.61-1.76v-.087h-.789v.162c0 .659-.281.961-.81.961s-.799-.302-.799-.96v-1.016h2.398v-1.199c0-1.123-.573-1.75-1.61-1.75zm-.788 2.278v-.604c0-.648.27-.95.788-.95.519 0 .81.302.81.95v.604h-1.598zm3.717 5.044c.745 0 1.112-.324 1.307-1.166l1.371-6.048h-.767l-.885 4.136-.972-4.136h-.832l1.404 5.54-.108.389c-.097.443-.259.561-.637.561a.939.939 0 01-.432-.086v.702c.151.086.356.108.551.108zM715.788 15h.853v-1.09h-.853V15z" fill="#000"/></svg>