<svg width="654" height="42" viewBox="0 0 654 42" fill="none" xmlns="http://www.w3.org/2000/svg"><path d="M18.635 33.773c.186 0 .325-.14.325-.325v-.65a.317.317 0 00-.325-.324H2.081l-.093-15.58h15.395c.186 0 .325-.14.325-.325v-.65a.317.317 0 00-.325-.324H1.988L2.08 2.611h16.183c.186 0 .325-.14.325-.325v-.649a.317.317 0 00-.325-.324H.782a.317.317 0 00-.324.324L.55 16.383.458 33.448c0 .186.139.325.324.325h17.853zm20.893 0c.139 0 .231-.14.139-.279l-8.533-12.427 7.373-10.897c.093-.14 0-.279-.139-.279h-.974c-.185 0-.417.093-.51.279l-6.63 9.738-6.725-9.738c-.092-.186-.324-.279-.51-.279h-1.113c-.139 0-.232.14-.139.279l7.559 10.897-8.486 12.428c-.093.139 0 .278.139.278h.974c.185 0 .417-.093.51-.279l7.744-11.268 7.697 11.269c.093.185.325.278.51.278h1.114zm4.385-12.242c.046-7.234 3.339-10.944 8.115-10.944 5.657 0 8.115 5.24 8.115 11.407 0 5.982-2.504 11.037-8.162 11.037-5.1 0-8.114-4.266-8.068-11.5zm17.714.232c0-6.956-3.293-12.382-9.414-12.382-3.941 0-6.77 2.272-8.207 5.843l.092-5.008a.317.317 0 00-.324-.325h-.835a.317.317 0 00-.325.325l.093 12.288-.093 18.827c0 .186.14.325.325.325h.881c.186 0 .325-.14.325-.325l-.093-12.706c1.484 3.664 4.266 5.611 8.161 5.611 6.121 0 9.414-5.61 9.414-12.473zM83.11 25.24c-.186 0-.325.14-.371.325-.788 4.59-3.339 7.466-8.069 7.466-5.982 0-8.996-4.266-8.996-11.13v-.463H83.9c.186 0 .325-.14.325-.325-.093-7.465-3.849-11.685-9.877-11.685-6.214 0-10.202 5.193-10.202 12.474 0 7.373 3.617 12.334 10.526 12.334 5.565 0 8.579-3.153 9.506-8.671 0-.186-.092-.325-.278-.325h-.788zm-.464-5.1H65.768c.464-5.75 3.478-9.507 8.579-9.507 5.425 0 8.3 4.174 8.3 9.507zm6.412 13.633c.186 0 .325-.14.325-.325l-.093-15.395c1.02-5.055 4.36-7.141 7.513-7.141.788 0 1.39.046 1.9.185a.253.253 0 00.325-.232v-.649a.445.445 0 00-.324-.417c-.51-.14-1.113-.186-1.762-.186-3.2 0-6.168 1.901-7.698 5.24l.14-4.637a.317.317 0 00-.326-.325h-.88a.317.317 0 00-.325.325l.093 11.13-.093 12.102c0 .186.139.325.324.325h.882zm14.18-27.128c.186 0 .325-.139.325-.324V4.327a.317.317 0 00-.325-.325h-.881a.317.317 0 00-.325.325V6.32c0 .185.139.324.325.324h.881zm0 27.128c.186 0 .325-.14.325-.325l-.047-12.474.047-10.758a.317.317 0 00-.325-.325h-.881a.317.317 0 00-.325.325l.047 10.804-.047 12.428c0 .186.139.325.325.325h.881zm23.028-8.533c-.185 0-.324.14-.371.325-.788 4.59-3.339 7.466-8.068 7.466-5.982 0-8.997-4.266-8.997-11.13v-.463h18.224c.186 0 .325-.14.325-.325-.093-7.465-3.849-11.685-9.877-11.685-6.214 0-10.202 5.193-10.202 12.474 0 7.373 3.617 12.334 10.527 12.334 5.564 0 8.578-3.153 9.506-8.671 0-.186-.093-.325-.279-.325h-.788zm-.464-5.1h-16.879c.464-5.75 3.478-9.507 8.579-9.507 5.425 0 8.3 4.174 8.3 9.507zm6.413 13.633c.185 0 .324-.14.324-.325l-.046-9.923v-5.936c1.855-4.22 4.22-6.956 7.976-6.956 3.895 0 6.446 2.273 6.446 8.672v4.22l-.047 9.923c0 .186.139.325.325.325h.881c.185 0 .324-.14.324-.325l-.046-9.923v-4.452c0-6.724-2.921-9.738-7.698-9.738-4.266 0-6.909 3.06-8.207 5.89l.092-5.009a.317.317 0 00-.324-.325h-.881a.317.317 0 00-.325.325l.093 13.309-.093 9.923c0 .186.139.325.325.325h.881zm39.358-8.394c.046-.185-.093-.324-.279-.324h-.695c-.186 0-.325.139-.371.325-.418 4.776-3.478 7.65-8.393 7.65-5.89 0-8.626-4.405-8.626-11.128 0-6.724 2.783-11.269 8.672-11.269 4.452 0 7.373 2.458 8.069 6.956.046.186.185.325.371.325h.695c.186 0 .325-.14.278-.325-.463-4.869-3.756-8.161-9.413-8.161-6.724 0-10.202 5.054-10.202 12.474 0 7.419 3.478 12.334 10.156 12.334 6.074 0 9.32-3.756 9.738-8.856zm21.171-.139c-.185 0-.325.14-.371.325-.788 4.59-3.339 7.466-8.069 7.466-5.981 0-8.996-4.266-8.996-11.13v-.463h18.224c.186 0 .325-.14.325-.325-.093-7.465-3.849-11.685-9.877-11.685-6.214 0-10.202 5.193-10.202 12.474 0 7.373 3.617 12.334 10.526 12.334 5.565 0 8.579-3.153 9.507-8.671 0-.186-.093-.325-.279-.325h-.788zm-.464-5.1h-16.879c.464-5.75 3.478-9.507 8.579-9.507 5.425 0 8.3 4.174 8.3 9.507zm21.499 12.659a.252.252 0 00-.324-.232c-.649.14-1.577.185-2.319.185-2.504 0-3.431-1.159-3.431-5.054V11.143h5.75c.185 0 .324-.139.324-.324v-.603a.317.317 0 00-.324-.325h-5.75l.046-5.657a.317.317 0 00-.325-.325h-.881a.317.317 0 00-.324.325l.046 5.657h-2.736a.317.317 0 00-.324.325v.603c0 .185.139.324.324.324h2.736v16.555c0 4.962 2.041 6.4 4.962 6.4.742 0 1.623-.186 2.226-.279.185-.046.324-.185.324-.37v-.65zm18.95-13.494v4.22l-.046 9.923c0 .186.139.325.324.325h.881c.186 0 .325-.14.325-.325l-.047-9.923v-4.452c0-6.724-2.921-9.738-7.697-9.738-4.266 0-6.956 3.06-8.254 5.89l.092-13.634a.317.317 0 00-.324-.325h-.881a.317.317 0 00-.325.325l.093 15.488-.093 16.37c0 .185.139.324.325.324h.881c.185 0 .324-.14.324-.325l-.092-15.859c1.855-4.22 4.312-7.048 8.068-7.048 3.896 0 6.446 2.364 6.446 8.764zm23.731 5.935c-.186 0-.325.14-.371.325-.789 4.59-3.339 7.466-8.069 7.466-5.982 0-8.996-4.266-8.996-11.13v-.463h18.224c.185 0 .325-.14.325-.325-.093-7.465-3.849-11.685-9.878-11.685-6.213 0-10.201 5.193-10.201 12.474 0 7.373 3.617 12.334 10.526 12.334 5.565 0 8.579-3.153 9.506-8.671 0-.186-.093-.325-.278-.325h-.788zm-.464-5.1h-16.879c.463-5.75 3.478-9.507 8.578-9.507 5.426 0 8.301 4.174 8.301 9.507zm13.569 1.39c.047-7.233 3.339-10.943 8.115-10.943 5.658 0 8.115 5.24 8.115 11.407 0 5.982-2.504 11.037-8.161 11.037-5.101 0-8.115-4.266-8.069-11.5zm17.714.232c0-6.955-3.292-12.38-9.413-12.38-3.942 0-6.77 2.271-8.208 5.842l.093-5.008a.317.317 0 00-.325-.325h-.834a.317.317 0 00-.325.325l.093 12.288-.093 18.827c0 .186.139.325.325.325h.881c.185 0 .324-.14.324-.325l-.093-12.706c1.484 3.664 4.267 5.611 8.162 5.611 6.121 0 9.413-5.61 9.413-12.473zm23.339.093c0-7.42-3.663-12.427-10.387-12.427s-10.387 5.008-10.387 12.427c0 7.42 3.663 12.381 10.387 12.381s10.387-4.961 10.387-12.38zm-19.244 0c0-6.724 2.968-11.222 8.857-11.222 5.889 0 8.857 4.545 8.857 11.222 0 6.678-2.921 11.176-8.857 11.176-5.889 0-8.857-4.452-8.857-11.176zm43.092 11.918c.186 0 .371-.14.418-.325l6.677-23.232c.046-.185-.046-.325-.232-.325h-.742a.445.445 0 00-.417.325l-6.167 21.795-6.353-21.795a.446.446 0 00-.418-.325h-1.02a.445.445 0 00-.417.325l-5.889 21.887-6.632-21.887a.444.444 0 00-.417-.325h-.881a.253.253 0 00-.232.325l7.281 23.232a.444.444 0 00.417.325h.974c.185 0 .371-.14.417-.325l5.796-22.212 6.4 22.212a.445.445 0 00.417.325h1.02zm27.19-8.533c-.186 0-.325.14-.371.325-.788 4.59-3.339 7.466-8.069 7.466-5.982 0-8.996-4.266-8.996-11.13v-.463h18.224c.186 0 .325-.14.325-.325-.093-7.465-3.849-11.685-9.877-11.685-6.214 0-10.202 5.193-10.202 12.474 0 7.373 3.617 12.334 10.526 12.334 5.565 0 8.579-3.153 9.506-8.671 0-.186-.092-.325-.278-.325h-.788zm-.464-5.1h-16.879c.464-5.75 3.478-9.507 8.579-9.507 5.425 0 8.3 4.174 8.3 9.507zm6.412 13.633c.186 0 .325-.14.325-.325l-.093-15.395c1.021-5.055 4.359-7.141 7.513-7.141.788 0 1.391.046 1.901.185a.252.252 0 00.324-.232v-.649a.445.445 0 00-.324-.417c-.51-.14-1.113-.186-1.762-.186-3.2 0-6.168 1.901-7.698 5.24l.139-4.637a.317.317 0 00-.325-.325h-.881a.317.317 0 00-.324.325l.093 11.13-.093 12.102c0 .186.139.325.324.325h.881zm39.108-11.918c0-7.42-3.663-12.427-10.387-12.427s-10.387 5.008-10.387 12.427c0 7.42 3.663 12.381 10.387 12.381s10.387-4.961 10.387-12.38zm-19.244 0c0-6.724 2.968-11.222 8.857-11.222 5.889 0 8.857 4.545 8.857 11.222 0 6.678-2.921 11.176-8.857 11.176-5.889 0-8.857-4.452-8.857-11.176zm25.071-10.758h5.24c.186 0 .325-.14.325-.325v-.556a.317.317 0 00-.325-.325h-5.24V7.155c0-3.802 1.299-5.425 3.524-5.425.557 0 1.16.046 1.763.232a.252.252 0 00.324-.232v-.464c0-.185-.139-.37-.278-.463-.557-.186-1.252-.279-1.994-.279-2.133.047-4.776 1.623-4.776 6.631v2.736h-3.571a.318.318 0 00-.325.325v.556c0 .186.14.325.325.325h3.571v11.64l-.047 10.711c0 .186.139.325.325.325h.881c.185 0 .325-.14.325-.325l-.047-10.712V11.097zm40.252 13.17c0-12.706-21.145-6.307-21.145-14.654 0-3.663 3.061-5.333 7.559-5.333 5.24 0 7.975 2.087 8.346 6.26.047.232.232.418.464.418h3.664c.231 0 .417-.186.37-.417-.695-6.678-5.286-9.785-12.705-9.785-7.188 0-11.918 3.339-11.918 9.274 0 12.382 21.146 5.843 21.146 14.793 0 4.266-3.432 6.028-8.208 6.028-6.353 0-8.672-2.967-9.089-7.836-.046-.232-.232-.418-.464-.418h-3.617a.416.416 0 00-.417.418c.325 7.373 5.194 11.314 13.448 11.314 7.373 0 12.566-3.385 12.566-10.063zm14.818 6.584c0-.185-.186-.37-.417-.278a12 12 0 01-2.458.278c-2.04 0-3.014-.88-3.014-3.756V13.184h5.472a.416.416 0 00.417-.418V10.31a.416.416 0 00-.417-.418h-5.472l.046-5.564a.415.415 0 00-.417-.418h-3.432a.415.415 0 00-.417.418l.046 5.564h-2.643a.415.415 0 00-.417.418v2.457c0 .232.185.418.417.418h2.643v14.004c0 5.194 2.922 7.002 6.4 7.002 1.113 0 2.318-.278 3.246-.556.231-.093.417-.325.417-.557v-2.226zm23.28-9.042c0-7.512-4.034-12.474-11.314-12.474-7.234 0-11.315 5.008-11.315 12.567 0 7.512 4.081 12.427 11.315 12.427 7.28 0 11.314-5.008 11.314-12.52zm-18.316.093c0-5.982 2.272-9.414 7.002-9.46 4.637 0 6.955 3.478 6.955 9.46 0 5.982-2.272 9.32-6.955 9.32-4.684 0-7.002-3.338-7.002-9.32zm25.096 11.87a.415.415 0 00.417-.417l-.046-9.784v-3.617c.927-4.73 3.431-7.234 6.585-7.234 2.967 0 5.054 1.948 5.054 6.26v4.591l-.093 9.784c0 .232.186.418.418.418h3.431a.416.416 0 00.418-.418l-.093-9.784v-4.776c0-6.214-3.061-9.46-7.976-9.46-3.803 0-6.492 2.18-7.976 4.59l.139-3.616a.415.415 0 00-.417-.418h-3.293a.416.416 0 00-.417.418l.093 12.566-.139 10.48c0 .232.185.418.417.418h3.478zm37.135-8.3a.543.543 0 00-.51.418c-.696 3.477-2.829 5.332-6.353 5.332-4.684 0-7.049-3.06-7.188-8.81h17.621a.416.416 0 00.418-.418c-.139-7.93-4.22-12.66-11.129-12.66-6.91 0-11.176 5.102-11.176 12.568 0 7.28 3.988 12.427 11.407 12.427 6.121 0 9.738-3.57 10.48-8.44 0-.231-.139-.417-.371-.417h-3.199zm-.557-6.028h-13.355c.603-4.498 2.875-7.049 6.817-7.049 4.22 0 6.399 3.246 6.538 7.049zm31.024 14.329c.185 0 .278-.186.185-.371l-10.711-16.648 9.506-15.07c.093-.186 0-.371-.186-.371h-3.988c-.232 0-.51.139-.649.37l-7.095 11.408-7.141-11.407a.798.798 0 00-.649-.371h-4.359c-.186 0-.278.185-.186.37l9.692 14.932-10.665 16.787c-.093.185 0 .37.185.37h3.988c.232 0 .51-.138.649-.37l8.254-13.262 8.162 13.262a.798.798 0 00.649.37h4.359zm40.251-16.184c0-10.434-6.167-16.88-15.534-16.88s-15.488 6.493-15.488 16.88c0 10.109 6.121 16.787 15.488 16.787 9.321 0 15.534-6.632 15.534-16.787zm-26.57 0c0-8.3 4.08-13.309 11.036-13.309 6.909 0 11.083 5.055 11.083 13.31 0 8.253-4.174 13.215-11.083 13.215-6.863 0-11.036-5.008-11.036-13.216zm33.423 16.184a.415.415 0 00.417-.418l-.046-9.784v-3.617c.927-4.73 3.431-7.234 6.585-7.234 2.967 0 5.054 1.948 5.054 6.26v4.591l-.093 9.784c0 .232.186.418.418.418h3.431a.416.416 0 00.418-.418l-.093-9.784v-4.776c0-6.214-3.061-9.46-7.976-9.46-3.802 0-6.492 2.18-7.976 4.59l.139-3.616a.415.415 0 00-.417-.418h-3.293a.416.416 0 00-.417.418l.093 12.566-.139 10.48c0 .232.185.418.417.418h3.478zm37.135-8.3a.543.543 0 00-.51.417c-.696 3.477-2.829 5.332-6.353 5.332-4.684 0-7.049-3.06-7.188-8.81h17.621a.416.416 0 00.418-.418c-.139-7.93-4.22-12.66-11.129-12.66-6.91 0-11.176 5.102-11.176 12.568 0 7.28 3.988 12.427 11.408 12.427 6.121 0 9.738-3.57 10.479-8.44 0-.231-.139-.417-.371-.417h-3.199zm-.557-6.03h-13.355c.603-4.497 2.875-7.048 6.817-7.048 4.22 0 6.399 3.246 6.538 7.049z" fill="#fff"/></svg>