<svg width="231" height="33" viewBox="0 0 231 33" fill="none" xmlns="http://www.w3.org/2000/svg"><path d="M9.58 32.685c-3.91 0-6.504-.655-8.437-1.486L0 24.554h.835l.835 1.574c1.978 3.76 4.395 5.42 8.262 5.42 4.438 0 6.943-2.185 6.943-5.77 0-3.191-1.845-4.809-7.119-6.645C3.779 17.08.791 14.806.791 9.691.791 4.489 5.493.773 11.338.773c3.648 0 5.757.48 7.779 1.311l1.098 6.907h-.879l-.79-1.617c-1.802-3.76-4.088-5.465-7.56-5.465-3.647 0-5.8 2.186-5.8 5.29 0 3.235 1.758 4.678 6.767 6.383 6.592 2.185 9.36 4.677 9.36 9.748.045 5.552-5.36 9.355-11.733 9.355zM37.178 29.975c-1.845 1.574-3.735 2.623-6.108 2.623-3.516 0-5.361-1.574-5.361-5.333V12.75h-3.253v-.83l3.472-1.312 3.428-6.82h1.406v6.995h5.89v1.967h-5.89v14.426c0 2.142 1.055 3.191 2.769 3.191 1.187 0 1.977-.306 3.076-1.092l.572.699zM49.527 32.773c-6.372 0-11.074-4.022-11.074-11.498 0-6.338 4.57-11.19 11.118-11.19 6.329 0 11.075 4.021 11.075 11.496-.044 6.34-4.659 11.192-11.119 11.192zm-.615-21.552c-3.12 0-4.878 2.36-4.878 8.787 0 7.038 2.285 11.628 6.065 11.628 3.164 0 4.878-2.36 4.878-8.787 0-7.038-2.242-11.628-6.065-11.628zM87.673 32.292c-1.011 0-3.604-.044-5.582-.044-1.933 0-4.526.044-5.625.044v-.7l.747-.13c1.978-.35 2.33-.962 2.33-4.94v-8.569c0-3.322-1.45-4.94-4.044-4.94-1.801 0-3.295.7-4.614 1.661v11.847c0 4.022.308 4.59 2.33 4.94l.746.131v.7c-1.098 0-3.647-.044-5.625-.044-1.977 0-4.57.044-5.625.044v-.7l.88-.13c1.845-.263 2.196-.962 2.196-5.334v-9.443c0-2.36-.395-3.016-2.021-3.76l-1.099-.524v-.48l7.647-1.662.615.393v3.06c2.417-2.054 4.658-3.41 7.515-3.41 4.087 0 6.24 2.187 6.24 6.777v9.18c0 4.46.352 4.984 2.242 5.333l.79.132-.043.568zM94.045 19.396v.306c.132 6.207 3.516 10.054 8.086 10.054 2.505 0 4.263-.918 6.108-2.754l.616.437c-2.373 3.28-5.45 5.334-9.405 5.334-5.8 0-10.151-3.935-10.151-10.71 0-7.301 5.537-11.935 10.854-11.935 5.889 0 8.746 3.279 8.877 9.311l-14.985-.043zm9.624-1.224c-.132-4.59-1.802-6.908-4.438-6.908-2.989 0-4.879 2.536-5.186 6.908h9.624zM141.155 32.292c-.791 0-4.746-.088-6.284-.088-1.626 0-6.548.088-7.383.088v-.612l1.406-.219c1.362-.218 1.934-.568 1.934-1.399 0-.7-.44-1.573-1.407-3.06l-4.921-7.475-4.922 6.732c-1.143 1.574-1.67 2.754-1.67 3.628 0 .875.527 1.4 1.889 1.618l1.451.219v.612c-.792 0-4.307-.088-5.889-.088-1.582 0-4.087.088-4.922.088v-.656l.747-.131c1.977-.35 3.823-2.011 5.317-3.891l7.12-9.268-6.988-10.317c-1.626-2.404-2.768-3.497-4.526-3.803l-.923-.175v-.612c.791 0 4.746.088 6.284.088 1.626 0 6.46-.088 7.295-.088v.612l-1.406.219c-1.187.175-1.846.568-1.846 1.399 0 .7.44 1.573 1.406 3.06l4.219 6.47 4.131-5.77c1.099-1.575 1.67-2.755 1.67-3.586 0-.83-.571-1.398-1.889-1.617l-1.451-.219V3.44c.791 0 4.307.088 5.889.088 1.582 0 4.087-.088 4.922-.088v.612l-.747.132c-1.978.35-3.779 1.836-5.318 3.89l-6.372 8.306 7.735 11.279c1.626 2.404 2.768 3.497 4.526 3.803l.923.175v.656zM144.671 8.204c-.352 0-.659-.043-.923-.174a2.296 2.296 0 01-.747-.525 1.973 1.973 0 01-.484-.743 2.286 2.286 0 01-.175-.918c0-.35.044-.656.175-.918.132-.306.308-.525.484-.743.176-.219.483-.394.747-.481.308-.131.615-.175.923-.175.351 0 .659.044.923.175.307.13.527.306.747.48.22.22.395.481.483.744.132.306.176.612.176.918 0 .35-.044.655-.176.918-.132.306-.307.524-.483.743-.22.219-.484.393-.747.525a2.892 2.892 0 01-.923.174zm0-.35c.307 0 .571-.043.791-.174.264-.088.483-.262.659-.437.176-.175.308-.394.44-.656.087-.262.131-.525.131-.787 0-.306-.044-.568-.131-.787-.088-.262-.264-.48-.44-.656-.176-.174-.395-.306-.659-.437-.264-.087-.527-.175-.791-.175-.308 0-.571.044-.791.175-.264.088-.484.263-.659.437-.176.175-.308.394-.44.656a2.46 2.46 0 00-.132.787c0 .306.044.568.132.787.088.262.264.48.44.656.175.175.395.35.659.437.264.131.527.175.791.175zm-1.011-.611V4.445h1.231c.307 0 .571.087.747.218.175.175.263.35.263.612a.794.794 0 01-.263.612c-.176.175-.396.22-.703.22l.131-.045c.132 0 .22.044.308.088a.745.745 0 01.264.262l.483.83h-.659l-.484-.917c-.043-.088-.087-.132-.131-.132-.044-.043-.132-.043-.22-.043h-.308v1.093h-.659zm.571-1.574h.572c.175 0 .307-.044.351-.088.088-.043.132-.174.132-.306 0-.13-.044-.262-.132-.306a.829.829 0 00-.351-.087h-.572v.787zM187.145 17.289c0-9.65-5.657-15.484-14.253-15.484-8.641 0-14.342 5.876-14.342 15.484 0 9.522 5.701 15.484 14.297 15.484 8.597 0 14.298-5.92 14.298-15.484zm-26.234 0c0-8.493 4.587-13.597 11.936-13.597 7.305 0 11.937 5.104 11.937 13.597 0 8.535-4.632 13.596-11.937 13.596-7.26 0-11.936-5.104-11.936-13.596zM192.497 32.3c.179 0 .357-.17.357-.342l-.045-9.136v-4.804c1.514-4.032 3.831-6.52 7.26-6.52 3.474 0 5.79 2.016 5.79 7.335v3.989l-.089 9.136c0 .171.179.343.357.343h1.559c.178 0 .356-.172.356-.343l-.045-9.136v-4.203c0-6.048-2.85-8.922-7.482-8.922-3.964 0-6.503 2.574-7.795 5.061l.089-4.203c0-.172-.178-.343-.356-.343h-1.515c-.178 0-.356.171-.356.343l.089 12.052-.089 9.35c0 .172.178.344.356.344h1.559zM229.129 24.495c-.178 0-.401.128-.401.343-.757 3.903-3.117 6.262-7.26 6.262-5.434 0-8.151-3.646-8.151-9.865l17.327-.043c.178 0 .356-.172.356-.343-.134-7.034-3.786-11.11-9.843-11.11-6.192 0-10.067 4.805-10.067 11.582 0 6.776 3.564 11.452 10.334 11.452 5.478 0 8.596-3.089 9.442-7.935 0-.172-.133-.343-.311-.343h-1.426zm-.49-5.019h-15.232c.534-4.932 3.206-8.063 7.75-8.063 4.854 0 7.438 3.603 7.482 8.063z" fill="#fff"/></svg>