<svg width="554" height="20" viewBox="0 0 554 20" fill="none" xmlns="http://www.w3.org/2000/svg"><path d="M16.01 13l.74-1.89h3.05l.74 1.89h.93l-2.66-7h-1.03l-2.67 7h.9zm2.26-6.05l1.27 3.37h-2.53l1.26-3.37zM22.142 13h.82V6h-.82v7zm1.943 0h.82V6h-.82v7zm4.94-1.33c0 .9.35 1.33 1.33 1.33h.89v-.75h-.81c-.44 0-.59-.16-.59-.59V8.65h1.32V7.9h-1.32V6.47h-.82V7.9h-.92v.75h.92v3.02zm5.291-3.77c-.91 0-1.3.38-1.54.77l-.11-.77h-.71V13h.82v-2.6c0-.81.29-1.7 1.36-1.7h.41v-.8h-.23zm5.276 4.35c-.23 0-.33-.07-.33-.34V9.68c0-1.19-.75-1.84-2.05-1.84-1.23 0-2.04.59-2.16 1.59h.82c.1-.52.58-.86 1.3-.86.8 0 1.27.4 1.27 1.06v.35h-1.5c-1.34 0-2.05.57-2.05 1.59 0 .93.76 1.49 1.88 1.49.88 0 1.39-.39 1.71-.85.01.5.24.79.92.79h.45v-.75h-.26zm-1.15-1.33c0 .85-.59 1.44-1.61 1.44-.68 0-1.11-.34-1.11-.84 0-.58.41-.85 1.14-.85h1.58v.25zm6.001-2.24c-.31-.49-.89-.84-1.75-.84-1.41 0-2.45 1.05-2.45 2.61 0 1.66 1.04 2.61 2.45 2.61.86 0 1.41-.41 1.75-.88l.11.82h.71V6h-.82v2.68zm-1.67 3.65c-1.01 0-1.69-.77-1.69-1.88 0-1.11.68-1.88 1.69-1.88 1 0 1.68.78 1.68 1.9 0 1.09-.68 1.86-1.68 1.86zM46.8 7.04c.3 0 .53-.22.53-.53 0-.31-.23-.53-.53-.53-.3 0-.53.22-.53.53 0 .31.23.53.53.53zM46.38 13h.82V7.9h-.82V13zm4.444-5.16c-.86 0-1.38.36-1.68.75l-.11-.69h-.71V13h.82v-2.55c0-1.15.58-1.86 1.54-1.86.89 0 1.38.56 1.38 1.62V13h.82v-2.84c0-1.69-.91-2.32-2.06-2.32zm7.125.94c-.32-.57-.89-.94-1.75-.94-1.41 0-2.45 1.05-2.45 2.61 0 1.66 1.04 2.61 2.45 2.61.86 0 1.41-.36 1.75-.94v.6c0 1.11-.58 1.61-1.65 1.61-.85 0-1.42-.36-1.56-1h-.84c.13 1.12 1.04 1.73 2.34 1.73 1.75 0 2.53-.84 2.53-2.31V7.9h-.71l-.11.88zm-1.67 3.55c-1.01 0-1.69-.77-1.69-1.88 0-1.11.68-1.88 1.69-1.88 1 0 1.68.78 1.68 1.9 0 1.09-.68 1.86-1.68 1.86zm6.644-5.29c.3 0 .53-.22.53-.53 0-.31-.23-.53-.53-.53-.3 0-.53.22-.53.53 0 .31.23.53.53.53zm-.42 5.96h.82V7.9h-.82V13zm4.444-5.16c-.86 0-1.38.36-1.68.75l-.11-.69h-.71V13h.82v-2.55c0-1.15.58-1.86 1.54-1.86.89 0 1.38.56 1.38 1.62V13h.82v-2.84c0-1.69-.91-2.32-2.06-2.32zm4.32 5.16h.99l1.91-5.1h-.86l-1.53 4.17-1.54-4.17h-.88l1.91 5.1zm5.637.06c1.49 0 2.53-1.06 2.53-2.61 0-1.55-1.04-2.61-2.53-2.61-1.49 0-2.53 1.06-2.53 2.61 0 1.55 1.04 2.61 2.53 2.61zm0-.73c-1.01 0-1.69-.79-1.69-1.88 0-1.09.68-1.88 1.69-1.88 1.01 0 1.69.79 1.69 1.88 0 1.09-.68 1.88-1.69 1.88zm3.47.67h.82V6h-.82v7zm3.344 0h.99l1.91-5.1h-.86l-1.53 4.17-1.54-4.17h-.88l1.91 5.1zm5.637.06c1.18 0 2.02-.75 2.22-1.77h-.83c-.17.66-.73 1.04-1.45 1.04-.97 0-1.58-.68-1.61-1.65v-.07h3.96c.01-.12.02-.24.02-.35-.04-1.51-.98-2.42-2.42-2.42s-2.42 1.06-2.42 2.61c0 1.56 1 2.61 2.53 2.61zm-1.62-3.13c.08-.83.77-1.37 1.52-1.37.85 0 1.45.49 1.53 1.37h-3.05zm4.636 1.39c.02 1.12.93 1.74 2.25 1.74 1.13 0 2.04-.59 2.04-1.54 0-1.13-.93-1.35-2.09-1.49-.74-.09-1.28-.16-1.28-.72 0-.47.48-.77 1.19-.77.7 0 1.18.39 1.24.91h.84c-.08-1.06-.92-1.6-2.08-1.61-1.15-.01-2 .6-2 1.53 0 1.06.91 1.29 2.05 1.43.76.09 1.32.14 1.32.78 0 .47-.51.78-1.23.78-.85 0-1.38-.44-1.41-1.04h-.84zM102.55 7.9c-.91 0-1.3.38-1.54.77l-.11-.77h-.71V13h.82v-2.6c0-.81.29-1.7 1.36-1.7h.41v-.8h-.23zm1.361-.86c.3 0 .53-.22.53-.53 0-.31-.23-.53-.53-.53-.3 0-.53.22-.53.53 0 .31.23.53.53.53zm-.42 5.96h.82V7.9h-.82V13zm1.733-1.68c.02 1.12.93 1.74 2.25 1.74 1.13 0 2.04-.59 2.04-1.54 0-1.13-.93-1.35-2.09-1.49-.74-.09-1.28-.16-1.28-.72 0-.47.48-.77 1.19-.77.7 0 1.18.39 1.24.91h.84c-.08-1.06-.92-1.6-2.08-1.61-1.15-.01-2 .6-2 1.53 0 1.06.91 1.29 2.05 1.43.76.09 1.32.14 1.32.78 0 .47-.51.78-1.23.78-.85 0-1.38-.44-1.41-1.04h-.84zm5.2 1.68h.82v-1.34l1.03-1.06 1.69 2.4h.99l-2.13-2.99 1.99-2.11h-1.01l-2.56 2.71V6h-.82v7zm5.008-.5c0 .34.24.56.57.56.33 0 .57-.22.57-.56 0-.34-.24-.56-.57-.56-.33 0-.57.22-.57.56zm4.897.5h4.59v-.8h-3.72V9.84h2.99v-.8h-2.99V6.8h3.59V6h-4.46v7zm7.947-5.16c-.86 0-1.38.36-1.68.75l-.11-.69h-.71V13h.82v-2.55c0-1.15.58-1.86 1.54-1.86.89 0 1.38.56 1.38 1.62V13h.82v-2.84c0-1.69-.91-2.32-2.06-2.32zm2.895 3.48c.02 1.12.93 1.74 2.25 1.74 1.13 0 2.04-.59 2.04-1.54 0-1.13-.93-1.35-2.09-1.49-.74-.09-1.28-.16-1.28-.72 0-.47.48-.77 1.19-.77.7 0 1.18.39 1.24.91h.84c-.08-1.06-.92-1.6-2.08-1.61-1.15-.01-2 .6-2 1.53 0 1.06.91 1.29 2.05 1.43.76.09 1.32.14 1.32.78 0 .47-.51.78-1.23.78-.85 0-1.38-.44-1.41-1.04h-.84zm8.771-.87c0 1.15-.56 1.86-1.49 1.86-.85 0-1.33-.56-1.33-1.62V7.9h-.82v2.84c0 1.69.89 2.32 2.01 2.32.84 0 1.33-.36 1.63-.74l.11.68h.71V7.9h-.82v2.55zm4.297-2.55c-.91 0-1.3.38-1.54.77l-.11-.77h-.71V13h.82v-2.6c0-.81.29-1.7 1.36-1.7h.41v-.8h-.23zm2.998 5.16c1.18 0 2.02-.75 2.22-1.77h-.83c-.17.66-.73 1.04-1.45 1.04-.97 0-1.58-.68-1.61-1.65v-.07h3.96c.01-.12.02-.24.02-.35-.04-1.51-.98-2.42-2.42-2.42s-2.42 1.06-2.42 2.61c0 1.56 1 2.61 2.53 2.61zm-1.62-3.13c.08-.83.77-1.37 1.52-1.37.85 0 1.45.49 1.53 1.37h-3.05zm8.963 3.1l-.25.62c-.19.48-.27.6-.74.6h-.73V15h.98c.72 0 .91-.32 1.23-1.14l2.35-5.96h-.87l-1.52 4.07-1.57-4.07h-.87l1.99 5.13zm5.577.03c1.49 0 2.53-1.06 2.53-2.61 0-1.55-1.04-2.61-2.53-2.61-1.49 0-2.53 1.06-2.53 2.61 0 1.55 1.04 2.61 2.53 2.61zm0-.73c-1.01 0-1.69-.79-1.69-1.88 0-1.09.68-1.88 1.69-1.88 1.01 0 1.69.79 1.69 1.88 0 1.09-.68 1.88-1.69 1.88zm7.04-1.88c0 1.15-.56 1.86-1.49 1.86-.85 0-1.33-.56-1.33-1.62V7.9h-.82v2.84c0 1.69.89 2.32 2.01 2.32.84 0 1.33-.36 1.63-.74l.11.68h.71V7.9h-.82v2.55zm8.125 0c0 1.15-.56 1.86-1.49 1.86-.85 0-1.33-.56-1.33-1.62V7.9h-.82v2.84c0 1.69.89 2.32 2.01 2.32.84 0 1.33-.36 1.63-.74l.11.68h.71V7.9h-.82v2.55zm4.438-2.61c-.86 0-1.38.36-1.68.75l-.11-.69h-.71V13h.82v-2.55c0-1.15.58-1.86 1.54-1.86.89 0 1.38.56 1.38 1.62V13h.82v-2.84c0-1.69-.91-2.32-2.06-2.32zm7.067.84c-.31-.49-.89-.84-1.75-.84-1.41 0-2.45 1.05-2.45 2.61 0 1.66 1.04 2.61 2.45 2.61.86 0 1.41-.41 1.75-.88l.11.82h.71V6h-.82v2.68zm-1.67 3.65c-1.01 0-1.69-.77-1.69-1.88 0-1.11.68-1.88 1.69-1.88 1 0 1.68.78 1.68 1.9 0 1.09-.68 1.86-1.68 1.86zm5.957.73c1.18 0 2.02-.75 2.22-1.77h-.83c-.17.66-.73 1.04-1.45 1.04-.97 0-1.58-.68-1.61-1.65v-.07h3.96c.01-.12.02-.24.02-.35-.04-1.51-.98-2.42-2.42-2.42s-2.42 1.06-2.42 2.61c0 1.56 1 2.61 2.53 2.61zm-1.62-3.13c.08-.83.77-1.37 1.52-1.37.85 0 1.45.49 1.53 1.37h-3.05zm7.226-2.03c-.91 0-1.3.38-1.54.77l-.11-.77h-.71V13h.82v-2.6c0-.81.29-1.7 1.36-1.7h.41v-.8h-.23zm.623 3.42c.02 1.12.93 1.74 2.25 1.74 1.13 0 2.04-.59 2.04-1.54 0-1.13-.93-1.35-2.09-1.49-.74-.09-1.28-.16-1.28-.72 0-.47.48-.77 1.19-.77.7 0 1.18.39 1.24.91h.84c-.08-1.06-.92-1.6-2.08-1.61-1.15-.01-2 .6-2 1.53 0 1.06.91 1.29 2.05 1.43.76.09 1.32.14 1.32.78 0 .47-.51.78-1.23.78-.85 0-1.38-.44-1.41-1.04h-.84zm5.58.35c0 .9.35 1.33 1.33 1.33h.89v-.75h-.81c-.44 0-.59-.16-.59-.59V8.65h1.32V7.9h-1.32V6.47h-.82V7.9h-.92v.75h.92v3.02zm7.363.58c-.23 0-.33-.07-.33-.34V9.68c0-1.19-.75-1.84-2.05-1.84-1.23 0-2.04.59-2.16 1.59h.82c.1-.52.58-.86 1.3-.86.8 0 1.27.4 1.27 1.06v.35h-1.5c-1.34 0-2.05.57-2.05 1.59 0 .93.76 1.49 1.88 1.49.88 0 1.39-.39 1.71-.85.01.5.24.79.92.79h.45v-.75h-.26zm-1.15-1.33c0 .85-.59 1.44-1.61 1.44-.68 0-1.11-.34-1.11-.84 0-.58.41-.85 1.14-.85h1.58v.25zm4.54-3.08c-.86 0-1.38.36-1.68.75l-.11-.69h-.71V13h.82v-2.55c0-1.15.58-1.86 1.54-1.86.89 0 1.38.56 1.38 1.62V13h.82v-2.84c0-1.69-.91-2.32-2.06-2.32zm7.067.84c-.31-.49-.89-.84-1.75-.84-1.41 0-2.45 1.05-2.45 2.61 0 1.66 1.04 2.61 2.45 2.61.86 0 1.41-.41 1.75-.88l.11.82h.71V6h-.82v2.68zm-1.67 3.65c-1.01 0-1.69-.77-1.69-1.88 0-1.11.68-1.88 1.69-1.88 1 0 1.68.78 1.68 1.9 0 1.09-.68 1.86-1.68 1.86zm6.604-.66c0 .9.35 1.33 1.33 1.33h.89v-.75h-.81c-.44 0-.59-.16-.59-.59V8.65h1.32V7.9h-1.32V6.47h-.82V7.9h-.92v.75h.92v3.02zm5.431-3.83c-.86 0-1.38.42-1.68.9V6h-.82v7h.82v-2.55c0-1.15.59-1.86 1.54-1.86.88 0 1.39.56 1.39 1.62V13h.82v-2.84c0-1.69-.93-2.32-2.07-2.32zm5.407 5.22c1.49 0 2.53-1.06 2.53-2.61 0-1.55-1.04-2.61-2.53-2.61-1.49 0-2.53 1.06-2.53 2.61 0 1.55 1.04 2.61 2.53 2.61zm0-.73c-1.01 0-1.69-.79-1.69-1.88 0-1.09.68-1.88 1.69-1.88 1.01 0 1.69.79 1.69 1.88 0 1.09-.68 1.88-1.69 1.88zm3.24-1.01c.02 1.12.93 1.74 2.25 1.74 1.13 0 2.04-.59 2.04-1.54 0-1.13-.93-1.35-2.09-1.49-.74-.09-1.28-.16-1.28-.72 0-.47.48-.77 1.19-.77.7 0 1.18.39 1.24.91h.84c-.08-1.06-.92-1.6-2.08-1.61-1.15-.01-2 .6-2 1.53 0 1.06.91 1.29 2.05 1.43.76.09 1.32.14 1.32.78 0 .47-.51.78-1.23.78-.85 0-1.38-.44-1.41-1.04h-.84zm7.551 1.74c1.18 0 2.02-.75 2.22-1.77h-.83c-.17.66-.73 1.04-1.45 1.04-.97 0-1.58-.68-1.61-1.65v-.07h3.96c.01-.12.02-.24.02-.35-.04-1.51-.98-2.42-2.42-2.42s-2.42 1.06-2.42 2.61c0 1.56 1 2.61 2.53 2.61zm-1.62-3.13c.08-.83.77-1.37 1.52-1.37.85 0 1.45.49 1.53 1.37h-3.05zm9.842-2.03c-.91 0-1.3.38-1.54.77l-.11-.77h-.71V13h.82v-2.6c0-.81.29-1.7 1.36-1.7h.41v-.8h-.23zm1.361-.86c.3 0 .53-.22.53-.53 0-.31-.23-.53-.53-.53-.3 0-.53.22-.53.53 0 .31.23.53.53.53zm-.42 5.96h.82V7.9h-.82V13zm1.734-1.68c.02 1.12.93 1.74 2.25 1.74 1.13 0 2.04-.59 2.04-1.54 0-1.13-.93-1.35-2.09-1.49-.74-.09-1.28-.16-1.28-.72 0-.47.48-.77 1.19-.77.7 0 1.18.39 1.24.91h.84c-.08-1.06-.92-1.6-2.08-1.61-1.15-.01-2 .6-2 1.53 0 1.06.91 1.29 2.05 1.43.76.09 1.32.14 1.32.78 0 .47-.51.78-1.23.78-.85 0-1.38-.44-1.41-1.04h-.84zm5.2 1.68h.82v-1.34l1.03-1.06 1.69 2.4h.99l-2.13-2.99 1.99-2.11h-1.01l-2.56 2.71V6h-.82v7zm4.741-1.68c.02 1.12.93 1.74 2.25 1.74 1.13 0 2.04-.59 2.04-1.54 0-1.13-.93-1.35-2.09-1.49-.74-.09-1.28-.16-1.28-.72 0-.47.48-.77 1.19-.77.7 0 1.18.39 1.24.91h.84c-.08-1.06-.92-1.6-2.08-1.61-1.15-.01-2 .6-2 1.53 0 1.06.91 1.29 2.05 1.43.76.09 1.32.14 1.32.78 0 .47-.51.78-1.23.78-.85 0-1.38-.44-1.41-1.04h-.84zm10.387-3.48c-.86 0-1.41.41-1.75.88V6h-.82v7h.71l.11-.78c.31.49.89.84 1.75.84 1.41 0 2.45-1.05 2.45-2.61 0-1.66-1.04-2.61-2.45-2.61zm-.08 4.49c-1 0-1.68-.78-1.68-1.9 0-1.09.68-1.86 1.68-1.86 1.01 0 1.69.77 1.69 1.88 0 1.11-.68 1.88-1.69 1.88zm5.817.73c1.18 0 2.02-.75 2.22-1.77h-.83c-.17.66-.73 1.04-1.45 1.04-.97 0-1.58-.68-1.61-1.65v-.07h3.96c.01-.12.02-.24.02-.35-.04-1.51-.98-2.42-2.42-2.42s-2.42 1.06-2.42 2.61c0 1.56 1 2.61 2.53 2.61zm-1.62-3.13c.08-.83.77-1.37 1.52-1.37.85 0 1.45.49 1.53 1.37h-3.05zm4.268-1.28h.92V13h.82V8.65h1.44V7.9h-1.44v-.59c0-.39.15-.56.56-.56h.88V6h-.93c-.95 0-1.33.43-1.33 1.33v.57h-.92v.75zm5.888 4.41c1.49 0 2.53-1.06 2.53-2.61 0-1.55-1.04-2.61-2.53-2.61-1.49 0-2.53 1.06-2.53 2.61 0 1.55 1.04 2.61 2.53 2.61zm0-.73c-1.01 0-1.69-.79-1.69-1.88 0-1.09.68-1.88 1.69-1.88 1.01 0 1.69.79 1.69 1.88 0 1.09-.68 1.88-1.69 1.88zm5.83-4.43c-.91 0-1.3.38-1.54.77l-.11-.77h-.71V13h.82v-2.6c0-.81.29-1.7 1.36-1.7h.41v-.8h-.23zm2.998 5.16c1.18 0 2.02-.75 2.22-1.77h-.83c-.17.66-.73 1.04-1.45 1.04-.97 0-1.58-.68-1.61-1.65v-.07h3.96c.01-.12.02-.24.02-.35-.04-1.51-.98-2.42-2.42-2.42s-2.42 1.06-2.42 2.61c0 1.56 1 2.61 2.53 2.61zm-1.62-3.13c.08-.83.77-1.37 1.52-1.37.85 0 1.45.49 1.53 1.37h-3.05zm7.863 1.74c0 .9.35 1.33 1.33 1.33h.89v-.75h-.81c-.44 0-.59-.16-.59-.59V8.65h1.32V7.9h-1.32V6.47h-.82V7.9h-.92v.75h.92v3.02zm5.29-3.77c-.91 0-1.3.38-1.54.77l-.11-.77h-.71V13h.82v-2.6c0-.81.29-1.7 1.36-1.7h.41v-.8h-.23zm5.275 4.35c-.23 0-.33-.07-.33-.34V9.68c0-1.19-.75-1.84-2.05-1.84-1.23 0-2.04.59-2.16 1.59h.82c.1-.52.58-.86 1.3-.86.8 0 1.27.4 1.27 1.06v.35h-1.5c-1.34 0-2.05.57-2.05 1.59 0 .93.76 1.49 1.88 1.49.88 0 1.39-.39 1.71-.85.01.5.24.79.92.79h.45v-.75h-.26zm-1.15-1.33c0 .85-.59 1.44-1.61 1.44-.68 0-1.11-.34-1.11-.84 0-.58.41-.85 1.14-.85h1.58v.25zm6.002-2.24c-.31-.49-.89-.84-1.75-.84-1.41 0-2.45 1.05-2.45 2.61 0 1.66 1.04 2.61 2.45 2.61.86 0 1.41-.41 1.75-.88l.11.82h.71V6h-.82v2.68zm-1.67 3.65c-1.01 0-1.69-.77-1.69-1.88 0-1.11.68-1.88 1.69-1.88 1 0 1.68.78 1.68 1.9 0 1.09-.68 1.86-1.68 1.86zm4.027-5.29c.3 0 .53-.22.53-.53 0-.31-.23-.53-.53-.53-.3 0-.53.22-.53.53 0 .31.23.53.53.53zm-.42 5.96h.82V7.9h-.82V13zm4.443-5.16c-.86 0-1.38.36-1.68.75l-.11-.69h-.71V13h.82v-2.55c0-1.15.58-1.86 1.54-1.86.89 0 1.38.56 1.38 1.62V13h.82v-2.84c0-1.69-.91-2.32-2.06-2.32zm7.126.94c-.32-.57-.89-.94-1.75-.94-1.41 0-2.45 1.05-2.45 2.61 0 1.66 1.04 2.61 2.45 2.61.86 0 1.41-.36 1.75-.94v.6c0 1.11-.58 1.61-1.65 1.61-.85 0-1.42-.36-1.56-1h-.84c.13 1.12 1.04 1.73 2.34 1.73 1.75 0 2.53-.84 2.53-2.31V7.9h-.71l-.11.88zm-1.67 3.55c-1.01 0-1.69-.77-1.69-1.88 0-1.11.68-1.88 1.69-1.88 1 0 1.68.78 1.68 1.9 0 1.09-.68 1.86-1.68 1.86zm3.507.17c0 .34.24.56.57.56.33 0 .57-.22.57-.56 0-.34-.24-.56-.57-.56-.33 0-.57.22-.57.56zm7.768-5.76l-1.17.54.03-1.29h-.57l.02 1.28-1.16-.53-.23.56 1.22.45-.84.99.43.4.83-1.05.84 1.05.44-.4-.83-.98 1.22-.45-.23-.57zM347.78 13h.87V9.94h2.88v-.8h-2.88V6.8h3.48V6h-4.35v7zM355 7.9c-.91 0-1.3.38-1.54.77l-.11-.77h-.71V13h.82v-2.6c0-.81.29-1.7 1.36-1.7h.41v-.8H355zm2.998 5.16c1.49 0 2.53-1.06 2.53-2.61 0-1.55-1.04-2.61-2.53-2.61-1.49 0-2.53 1.06-2.53 2.61 0 1.55 1.04 2.61 2.53 2.61zm0-.73c-1.01 0-1.69-.79-1.69-1.88 0-1.09.68-1.88 1.69-1.88 1.01 0 1.69.79 1.69 1.88 0 1.09-.68 1.88-1.69 1.88zm9.16-4.49c-.91 0-1.46.42-1.77.97-.29-.65-.9-.97-1.61-.97-.79 0-1.22.39-1.49.76l-.11-.7h-.71V13h.82v-2.69c0-1.02.51-1.72 1.35-1.72.78 0 1.23.52 1.23 1.52V13h.82v-2.73c0-1.04.52-1.68 1.37-1.68.77 0 1.21.52 1.21 1.52V13h.82v-2.94c0-1.61-.87-2.22-1.93-2.22zm6.709-1.08c0 .35-.16.6-.49.6h-1.14v.75h1.13c.22 0 .38-.04.48-.13V13h.84V6h-.82v.76zm5.141 6.24l.74-1.89h3.05l.74 1.89h.93l-2.66-7h-1.03l-2.67 7h.9zm2.26-6.05l1.27 3.37h-2.53l1.26-3.37zm6.442.89c-.86 0-1.41.41-1.75.88l-.11-.82h-.71V15h.82v-2.78c.31.49.89.84 1.75.84 1.41 0 2.45-1.05 2.45-2.61 0-1.66-1.04-2.61-2.45-2.61zm-.08 4.49c-1 0-1.68-.78-1.68-1.9 0-1.09.68-1.86 1.68-1.86 1.01 0 1.69.77 1.69 1.88 0 1.11-.68 1.88-1.69 1.88zm5.827-4.43c-.91 0-1.3.38-1.54.77l-.11-.77h-.71V13h.82v-2.6c0-.81.29-1.7 1.36-1.7h.41v-.8h-.23zm1.361-.86c.3 0 .53-.22.53-.53 0-.31-.23-.53-.53-.53-.3 0-.53.22-.53.53 0 .31.23.53.53.53zm-.42 5.96h.82V7.9h-.82V13zm1.943 0h.82V6h-.82v7zm2.314-1.05c-.42 0-.66.25-.66.58 0 .36.23.54.53.54.12 0 .26-.04.34-.12.01.04.01.08.01.13 0 .34-.2.79-.84.8v.47c.88-.02 1.41-.53 1.41-1.38 0-.55-.3-1.02-.79-1.02zm6.597 1.11c1.24 0 2.07-.7 2.27-1.8h-.87c-.16.65-.66 1.07-1.39 1.07-.98 0-1.64-.76-1.64-1.87s.66-1.89 1.64-1.89c.75 0 1.25.41 1.4 1.09h.86c-.21-1.12-1-1.82-2.25-1.82-1.48 0-2.49 1.06-2.49 2.62 0 1.59.98 2.6 2.47 2.6zm5.519 0c1.49 0 2.53-1.06 2.53-2.61 0-1.55-1.04-2.61-2.53-2.61-1.49 0-2.53 1.06-2.53 2.61 0 1.55 1.04 2.61 2.53 2.61zm0-.73c-1.01 0-1.69-.79-1.69-1.88 0-1.09.68-1.88 1.69-1.88 1.01 0 1.69.79 1.69 1.88 0 1.09-.68 1.88-1.69 1.88zm9.161-4.49c-.91 0-1.46.42-1.77.97-.29-.65-.9-.97-1.61-.97-.79 0-1.22.39-1.49.76l-.11-.7h-.71V13h.82v-2.69c0-1.02.51-1.72 1.35-1.72.78 0 1.23.52 1.23 1.52V13h.82v-2.73c0-1.04.52-1.68 1.37-1.68.77 0 1.21.52 1.21 1.52V13h.82v-2.94c0-1.61-.87-2.22-1.93-2.22zm8.672 0c-.91 0-1.46.42-1.77.97-.29-.65-.9-.97-1.61-.97-.79 0-1.22.39-1.49.76l-.11-.7h-.71V13h.82v-2.69c0-1.02.51-1.72 1.35-1.72.78 0 1.23.52 1.23 1.52V13h.82v-2.73c0-1.04.52-1.68 1.37-1.68.77 0 1.21.52 1.21 1.52V13h.82v-2.94c0-1.61-.87-2.22-1.93-2.22zm3.401-.8c.3 0 .53-.22.53-.53 0-.31-.23-.53-.53-.53-.3 0-.53.22-.53.53 0 .31.23.53.53.53zm-.42 5.96h.82V7.9h-.82V13zm1.734-1.68c.02 1.12.93 1.74 2.25 1.74 1.13 0 2.04-.59 2.04-1.54 0-1.13-.93-1.35-2.09-1.49-.74-.09-1.28-.16-1.28-.72 0-.47.48-.77 1.19-.77.7 0 1.18.39 1.24.91h.84c-.08-1.06-.92-1.6-2.08-1.61-1.15-.01-2 .6-2 1.53 0 1.06.91 1.29 2.05 1.43.76.09 1.32.14 1.32.78 0 .47-.51.78-1.23.78-.85 0-1.38-.44-1.41-1.04h-.84zm4.892 0c.02 1.12.93 1.74 2.25 1.74 1.13 0 2.04-.59 2.04-1.54 0-1.13-.93-1.35-2.09-1.49-.74-.09-1.28-.16-1.28-.72 0-.47.48-.77 1.19-.77.7 0 1.18.39 1.24.91h.84c-.08-1.06-.92-1.6-2.08-1.61-1.15-.01-2 .6-2 1.53 0 1.06.91 1.29 2.05 1.43.76.09 1.32.14 1.32.78 0 .47-.51.78-1.23.78-.85 0-1.38-.44-1.41-1.04h-.84zm5.621-4.28c.3 0 .53-.22.53-.53 0-.31-.23-.53-.53-.53-.3 0-.53.22-.53.53 0 .31.23.53.53.53zm-.42 5.96h.82V7.9h-.82V13zm4.293.06c1.49 0 2.53-1.06 2.53-2.61 0-1.55-1.04-2.61-2.53-2.61-1.49 0-2.53 1.06-2.53 2.61 0 1.55 1.04 2.61 2.53 2.61zm0-.73c-1.01 0-1.69-.79-1.69-1.88 0-1.09.68-1.88 1.69-1.88 1.01 0 1.69.79 1.69 1.88 0 1.09-.68 1.88-1.69 1.88zm5.97-4.49c-.86 0-1.38.36-1.68.75l-.11-.69h-.71V13h.82v-2.55c0-1.15.58-1.86 1.54-1.86.89 0 1.38.56 1.38 1.62V13h.82v-2.84c0-1.69-.91-2.32-2.06-2.32zm2.896 3.48c.02 1.12.93 1.74 2.25 1.74 1.13 0 2.04-.59 2.04-1.54 0-1.13-.93-1.35-2.09-1.49-.74-.09-1.28-.16-1.28-.72 0-.47.48-.77 1.19-.77.7 0 1.18.39 1.24.91h.84c-.08-1.06-.92-1.6-2.08-1.61-1.15-.01-2 .6-2 1.53 0 1.06.91 1.29 2.05 1.43.76.09 1.32.14 1.32.78 0 .47-.51.78-1.23.78-.85 0-1.38-.44-1.41-1.04h-.84zm7.607 0c.02 1.12.93 1.74 2.25 1.74 1.13 0 2.04-.59 2.04-1.54 0-1.13-.93-1.35-2.09-1.49-.74-.09-1.28-.16-1.28-.72 0-.47.48-.77 1.19-.77.7 0 1.18.39 1.24.91h.84c-.08-1.06-.92-1.6-2.08-1.61-1.15-.01-2 .6-2 1.53 0 1.06.91 1.29 2.05 1.43.76.09 1.32.14 1.32.78 0 .47-.51.78-1.23.78-.85 0-1.38-.44-1.41-1.04h-.84zm5.58.35c0 .9.35 1.33 1.33 1.33h.89v-.75h-.81c-.44 0-.59-.16-.59-.59V8.65h1.32V7.9h-1.32V6.47h-.82V7.9h-.92v.75h.92v3.02zm7.363.58c-.23 0-.33-.07-.33-.34V9.68c0-1.19-.75-1.84-2.05-1.84-1.23 0-2.04.59-2.16 1.59h.82c.1-.52.58-.86 1.3-.86.8 0 1.27.4 1.27 1.06v.35h-1.5c-1.34 0-2.05.57-2.05 1.59 0 .93.76 1.49 1.88 1.49.88 0 1.39-.39 1.71-.85.01.5.24.79.92.79h.45v-.75h-.26zm-1.15-1.33c0 .85-.59 1.44-1.61 1.44-.68 0-1.11-.34-1.11-.84 0-.58.41-.85 1.14-.85h1.58v.25zm4.4-3.02c-.91 0-1.3.38-1.54.77l-.11-.77h-.71V13h.82v-2.6c0-.81.29-1.7 1.36-1.7h.41v-.8h-.23zm1.487 3.77c0 .9.35 1.33 1.33 1.33h.89v-.75h-.81c-.44 0-.59-.16-.59-.59V8.65h1.32V7.9h-1.32V6.47h-.82V7.9h-.92v.75h.92v3.02zm5.008-3.02h.92V13h.82V8.65h1.44V7.9h-1.44v-.59c0-.39.15-.56.56-.56h.88V6h-.93c-.95 0-1.33.43-1.33 1.33v.57h-.92v.75zm6.132-.75c-.91 0-1.3.38-1.54.77l-.11-.77h-.71V13h.82v-2.6c0-.81.29-1.7 1.36-1.7h.41v-.8h-.23zm2.998 5.16c1.49 0 2.53-1.06 2.53-2.61 0-1.55-1.04-2.61-2.53-2.61-1.49 0-2.53 1.06-2.53 2.61 0 1.55 1.04 2.61 2.53 2.61zm0-.73c-1.01 0-1.69-.79-1.69-1.88 0-1.09.68-1.88 1.69-1.88 1.01 0 1.69.79 1.69 1.88 0 1.09-.68 1.88-1.69 1.88zm9.16-4.49c-.91 0-1.46.42-1.77.97-.29-.65-.9-.97-1.61-.97-.79 0-1.22.39-1.49.76l-.11-.7h-.71V13h.82v-2.69c0-1.02.51-1.72 1.35-1.72.78 0 1.23.52 1.23 1.52V13h.82v-2.73c0-1.04.52-1.68 1.37-1.68.77 0 1.21.52 1.21 1.52V13h.82v-2.94c0-1.61-.87-2.22-1.93-2.22zm5.679 2.17c0 2 .91 3.05 2.66 3.05s2.68-1.05 2.68-3.05V6h-.87v4.06c0 1.45-.58 2.2-1.81 2.2-1.21 0-1.79-.75-1.79-2.2V6h-.87v4.01zm6.381.7c.05 1.38 1.05 2.35 2.76 2.35 1.47 0 2.49-.85 2.49-2.06 0-1.36-1.17-1.74-2.31-1.93-1.05-.18-1.9-.35-1.9-1.19 0-.75.61-1.15 1.52-1.15.95 0 1.6.53 1.7 1.34h.9c-.08-1.26-1.04-2.13-2.6-2.13-1.42 0-2.39.8-2.39 1.99 0 1.36 1.16 1.73 2.29 1.92 1.06.18 1.92.36 1.92 1.23 0 .76-.67 1.19-1.61 1.19-1.07 0-1.8-.62-1.87-1.56h-.9zm8.595 2.29c2.19 0 3.52-1.41 3.52-3.5 0-2.1-1.33-3.5-3.52-3.5h-2.24v7h2.24zm-1.37-6.2h1.37c1.7 0 2.63 1.06 2.63 2.7 0 1.63-.93 2.7-2.63 2.7h-1.37V6.8zm10.955 4.2c0-1.36-1.17-1.74-2.31-1.93-1.05-.18-1.9-.35-1.9-1.19 0-.75.61-1.15 1.52-1.15.95 0 1.6.53 1.7 1.34h.9c-.07-1.12-.83-1.93-2.09-2.1V4.92h-.76v1.03c-1.28.09-2.14.86-2.14 1.98 0 1.36 1.16 1.73 2.29 1.92 1.06.18 1.92.36 1.92 1.23 0 .76-.67 1.19-1.61 1.19-1.07 0-1.8-.62-1.87-1.56h-.9c.05 1.25.88 2.17 2.31 2.33v1.03h.76v-1.02c1.3-.11 2.18-.93 2.18-2.05zm4.414-1.64c.67-.18 1.13-.69 1.13-1.57 0-1.1-.91-1.85-2.35-1.85-1.38 0-2.34.85-2.35 2.08h.83c.01-.8.65-1.33 1.53-1.33.84 0 1.48.44 1.48 1.15s-.52 1.23-1.56 1.23h-.55v.73h.6c1.09 0 1.69.47 1.69 1.2 0 .8-.7 1.31-1.61 1.31-.99 0-1.71-.55-1.72-1.47h-.83c0 1.39.98 2.22 2.5 2.22s2.52-.81 2.52-2c0-1.07-.67-1.58-1.31-1.7zm1.939 3.14c0 .34.24.56.57.56.33 0 .57-.22.57-.56 0-.34-.24-.56-.57-.56-.33 0-.57.22-.57.56z" fill="#000"/></svg>