<svg width="529" height="17" viewBox="0 0 529 17" fill="none" xmlns="http://www.w3.org/2000/svg"><path d="M.224 13h.901V2.647L5.579 13h.833l4.454-10.353V13h.901V1.1h-1.156l-4.59 10.659L1.397 1.1H.224V13zm21.373-.799c-.51 0-.765-.17-.765-.833V7.356c0-1.972-1.207-3.077-3.366-3.077-1.972 0-3.28.952-3.502 2.516h.867c.221-1.054 1.14-1.751 2.601-1.751 1.615 0 2.533.85 2.533 2.278v.748h-2.924c-2.21 0-3.4.952-3.4 2.567 0 1.53 1.207 2.465 3.043 2.465 1.751 0 2.788-.799 3.315-1.87v.306C19.965 12.558 20.39 13 21.41 13h.51v-.799h-.323zm-1.632-2.686c0 1.649-1.173 2.839-3.213 2.839-1.377 0-2.227-.697-2.227-1.768 0-1.139.85-1.768 2.448-1.768h2.992v.697zm3.642-6.953c.34 0 .612-.255.612-.612a.599.599 0 00-.612-.612.599.599 0 00-.612.612c0 .357.272.612.612.612zM20.972 16.4h1.054c1.445 0 2.023-.629 2.023-2.006V4.381h-.867v10.03c0 .85-.323 1.19-1.19 1.19h-1.02v.799zm8.92-3.298c2.432 0 4.149-1.802 4.149-4.42 0-2.601-1.717-4.403-4.148-4.403-2.431 0-4.131 1.802-4.131 4.403 0 2.618 1.7 4.42 4.13 4.42zm0-.782c-1.92 0-3.247-1.496-3.247-3.638 0-2.125 1.326-3.638 3.247-3.638 1.922 0 3.247 1.513 3.247 3.638 0 2.142-1.326 3.638-3.247 3.638zm9.39-7.939c-1.598 0-2.278.765-2.635 1.717l-.136-1.717h-.748V13h.867V8.631c0-1.751.46-3.417 2.482-3.417h.63v-.833h-.46zm5.34.799h1.632V13h.867V5.18h2.584v-.799H47.12V3.089c0-.85.323-1.19 1.19-1.19h1.41V1.1h-1.444c-1.445 0-2.023.629-2.023 2.006v1.275h-1.632v.799zm9.492 7.922c2.431 0 4.148-1.802 4.148-4.42 0-2.601-1.717-4.403-4.148-4.403-2.43 0-4.13 1.802-4.13 4.403 0 2.618 1.7 4.42 4.13 4.42zm0-.782c-1.92 0-3.247-1.496-3.247-3.638 0-2.125 1.326-3.638 3.247-3.638 1.921 0 3.247 1.513 3.247 3.638 0 2.142-1.326 3.638-3.247 3.638zm9.39-7.939c-1.598 0-2.278.765-2.635 1.717l-.136-1.717h-.748V13h.867V8.631c0-1.751.459-3.417 2.482-3.417h.629v-.833h-.46zm4.937 8.721c1.887 0 3.332-1.224 3.706-2.958h-.884c-.34 1.343-1.479 2.176-2.89 2.176-1.92 0-3.128-1.462-3.162-3.468v-.153h7.038c0-.119.017-.255.017-.357-.085-2.567-1.666-4.063-3.978-4.063-2.363 0-3.978 1.802-3.978 4.352 0 2.703 1.683 4.471 4.131 4.471zM65.28 7.968c.136-1.751 1.445-2.924 3.026-2.924 1.683 0 2.89 1.037 3.026 2.924H65.28zM72.763 13h1.003l2.856-3.791L79.478 13h1.054l-3.349-4.403 3.18-4.216h-.987l-2.72 3.57-2.686-3.57h-1.037l3.18 4.216L72.762 13zm17.634-8.721c-1.615 0-2.737.867-3.281 2.074l-.136-1.972h-.748V16.4h.867v-5.389c.493 1.258 1.666 2.091 3.298 2.091 2.363 0 4.063-1.802 4.063-4.42 0-2.703-1.7-4.403-4.063-4.403zm-.068 8.041c-1.921 0-3.247-1.496-3.247-3.655 0-2.108 1.326-3.621 3.247-3.621 1.92 0 3.247 1.513 3.247 3.638 0 2.142-1.326 3.638-3.247 3.638zm13.429-.119c-.51 0-.765-.17-.765-.833V7.356c0-1.972-1.207-3.077-3.366-3.077-1.972 0-3.28.952-3.502 2.516h.867c.221-1.054 1.14-1.751 2.601-1.751 1.615 0 2.533.85 2.533 2.278v.748h-2.924c-2.21 0-3.4.952-3.4 2.567 0 1.53 1.207 2.465 3.043 2.465 1.751 0 2.788-.799 3.315-1.87v.306c-.034 1.02.391 1.462 1.411 1.462h.51v-.799h-.323zm-1.632-2.686c0 1.649-1.173 2.839-3.213 2.839-1.377 0-2.227-.697-2.227-1.768 0-1.139.85-1.768 2.448-1.768h2.992v.697zm3.557-6.953c.34 0 .612-.255.612-.612a.599.599 0 00-.612-.612.599.599 0 00-.612.612c0 .357.272.612.612.612zM105.241 13h.867V4.381h-.867V13zm6.424-8.619c-1.598 0-2.278.765-2.635 1.717l-.136-1.717h-.748V13h.867V8.631c0-1.751.459-3.417 2.482-3.417h.629v-.833h-.459zm1.137 5.967c.068 1.785 1.513 2.754 3.672 2.754 1.853 0 3.349-.935 3.349-2.465 0-1.819-1.598-2.176-3.451-2.431-1.343-.187-2.533-.34-2.533-1.547 0-.986.969-1.632 2.431-1.632 1.377 0 2.363.663 2.516 1.785h.884c-.153-1.683-1.53-2.533-3.4-2.533-1.921-.017-3.298.969-3.298 2.448 0 1.734 1.598 2.057 3.366 2.295 1.445.204 2.618.391 2.618 1.666 0 1.02-1.071 1.666-2.482 1.666-1.649 0-2.72-.765-2.788-2.006h-.884zm12.271-5.168h1.632V13h.867V5.18h2.584v-.799h-2.584V3.089c0-.85.323-1.19 1.19-1.19h1.411V1.1h-1.445c-1.445 0-2.023.629-2.023 2.006v1.275h-1.632v.799zm9.652-.799c-1.598 0-2.278.765-2.635 1.717l-.136-1.717h-.748V13h.867V8.631c0-1.751.459-3.417 2.482-3.417h.629v-.833h-.459zm4.937 8.721c2.431 0 4.148-1.802 4.148-4.42 0-2.601-1.717-4.403-4.148-4.403-2.431 0-4.131 1.802-4.131 4.403 0 2.618 1.7 4.42 4.131 4.42zm0-.782c-1.921 0-3.247-1.496-3.247-3.638 0-2.125 1.326-3.638 3.247-3.638 1.921 0 3.247 1.513 3.247 3.638 0 2.142-1.326 3.638-3.247 3.638zm15.493-8.041c-1.581 0-2.601.884-3.094 2.159-.408-1.428-1.479-2.159-2.839-2.159-1.479 0-2.363.867-2.805 1.938l-.136-1.836h-.748V13h.867V8.614c0-2.108 1.02-3.536 2.669-3.536 1.496 0 2.431 1.054 2.431 3.043V13h.867V8.308c.051-1.972 1.071-3.23 2.686-3.23 1.496 0 2.397 1.003 2.397 2.958V13h.884V8.002c0-2.601-1.377-3.723-3.179-3.723zm9.481 3.043c0 3.485 1.717 5.78 4.301 5.78 2.55 0 4.284-2.295 4.284-5.78v-.544c0-3.383-1.734-5.78-4.284-5.78-2.584 0-4.301 2.397-4.301 5.78v.544zm7.684-.034c0 3.026-1.343 4.998-3.383 4.998-2.057 0-3.4-1.972-3.4-4.998v-.476c0-3.026 1.343-4.998 3.4-4.998 2.04 0 3.383 1.972 3.383 4.998v.476zm1.782 5.151c0 .391.272.646.646.646s.646-.255.646-.646-.272-.629-.646-.629-.646.238-.646.629zm2.172-5.117c0 3.485 1.717 5.78 4.301 5.78 2.55 0 4.284-2.295 4.284-5.78v-.544c0-3.383-1.734-5.78-4.284-5.78-2.584 0-4.301 2.397-4.301 5.78v.544zm7.684-.034c0 3.026-1.343 4.998-3.383 4.998-2.057 0-3.4-1.972-3.4-4.998v-.476c0-3.026 1.343-4.998 3.4-4.998 2.04 0 3.383 1.972 3.383 4.998v.476zm11.477-3.009c-1.615 0-2.737.867-3.281 2.074l-.136-1.972h-.748V16.4h.867v-5.389c.493 1.258 1.666 2.091 3.298 2.091 2.363 0 4.063-1.802 4.063-4.42 0-2.703-1.7-4.403-4.063-4.403zm-.068 8.041c-1.921 0-3.247-1.496-3.247-3.655 0-2.108 1.326-3.621 3.247-3.621 1.921 0 3.247 1.513 3.247 3.638 0 2.142-1.326 3.638-3.247 3.638zm6.289-9.758c.34 0 .612-.255.612-.612a.599.599 0 00-.612-.612.599.599 0 00-.612.612c0 .357.272.612.612.612zM201.214 13h.867V4.381h-.867V13zm7.071-8.721c-1.615 0-2.737.867-3.281 2.074l-.136-1.972h-.748V16.4h.867v-5.389c.493 1.258 1.666 2.091 3.298 2.091 2.363 0 4.063-1.802 4.063-4.42 0-2.703-1.7-4.403-4.063-4.403zm-.068 8.041c-1.921 0-3.247-1.496-3.247-3.655 0-2.108 1.326-3.621 3.247-3.621 1.921 0 3.247 1.513 3.247 3.638 0 2.142-1.326 3.638-3.247 3.638zm5.439-1.972c.068 1.785 1.513 2.754 3.672 2.754 1.853 0 3.349-.935 3.349-2.465 0-1.819-1.598-2.176-3.451-2.431-1.343-.187-2.533-.34-2.533-1.547 0-.986.969-1.632 2.431-1.632 1.377 0 2.363.663 2.516 1.785h.884c-.153-1.683-1.53-2.533-3.4-2.533-1.921-.017-3.298.969-3.298 2.448 0 1.734 1.598 2.057 3.366 2.295 1.445.204 2.618.391 2.618 1.666 0 1.02-1.071 1.666-2.482 1.666-1.649 0-2.72-.765-2.788-2.006h-.884zm20.84 1.853c-.51 0-.765-.17-.765-.833V7.356c0-1.972-1.207-3.077-3.366-3.077-1.972 0-3.281.952-3.502 2.516h.867c.221-1.054 1.139-1.751 2.601-1.751 1.615 0 2.533.85 2.533 2.278v.748h-2.924c-2.21 0-3.4.952-3.4 2.567 0 1.53 1.207 2.465 3.043 2.465 1.751 0 2.788-.799 3.315-1.87v.306c-.034 1.02.391 1.462 1.411 1.462h.51v-.799h-.323zm-1.632-2.686c0 1.649-1.173 2.839-3.213 2.839-1.377 0-2.227-.697-2.227-1.768 0-1.139.85-1.768 2.448-1.768h2.992v.697zm7.092-5.236c-1.581 0-2.601.816-3.094 1.938l-.136-1.836h-.748V13h.867V8.75c0-2.244 1.139-3.672 2.975-3.672 1.666 0 2.669 1.088 2.669 3.128V13h.867V8.172c0-2.72-1.445-3.893-3.4-3.893zm12.224 2.04c-.527-1.224-1.683-2.04-3.298-2.04-2.363 0-4.063 1.802-4.063 4.403 0 2.72 1.7 4.42 4.063 4.42 1.615 0 2.737-.867 3.281-2.074l.136 1.972h.748V1.1h-.867v5.219zm-3.23 6.001c-1.921 0-3.247-1.496-3.247-3.638 0-2.125 1.326-3.638 3.247-3.638 1.921 0 3.247 1.513 3.247 3.655 0 2.125-1.326 3.621-3.247 3.621zm9.732-7.14h1.632V13h.867V5.18h2.584v-.799h-2.584V3.089c0-.85.323-1.19 1.19-1.19h1.411V1.1h-1.445c-1.445 0-2.023.629-2.023 2.006v1.275h-1.632v.799zm9.493 7.922c2.431 0 4.148-1.802 4.148-4.42 0-2.601-1.717-4.403-4.148-4.403-2.431 0-4.131 1.802-4.131 4.403 0 2.618 1.7 4.42 4.131 4.42zm0-.782c-1.921 0-3.247-1.496-3.247-3.638 0-2.125 1.326-3.638 3.247-3.638 1.921 0 3.247 1.513 3.247 3.638 0 2.142-1.326 3.638-3.247 3.638zm9.389-7.939c-1.598 0-2.278.765-2.635 1.717l-.136-1.717h-.748V13h.867V8.631c0-1.751.459-3.417 2.482-3.417h.629v-.833h-.459zm13.908 7.82c-.51 0-.765-.17-.765-.833V7.356c0-1.972-1.207-3.077-3.366-3.077-1.972 0-3.281.952-3.502 2.516h.867c.221-1.054 1.139-1.751 2.601-1.751 1.615 0 2.533.85 2.533 2.278v.748h-2.924c-2.21 0-3.4.952-3.4 2.567 0 1.53 1.207 2.465 3.043 2.465 1.751 0 2.788-.799 3.315-1.87v.306c-.034 1.02.391 1.462 1.411 1.462h.51v-.799h-.323zm-1.632-2.686c0 1.649-1.173 2.839-3.213 2.839-1.377 0-2.227-.697-2.227-1.768 0-1.139.85-1.768 2.448-1.768h2.992v.697zM297.537 13h.867V1.1h-.867V13zm3.347-10.438c.34 0 .612-.255.612-.612a.599.599 0 00-.612-.612.599.599 0 00-.612.612c0 .357.272.612.612.612zM300.442 13h.867V4.381h-.867V13zm12.527-8.721c-1.581 0-2.601.884-3.094 2.159-.408-1.428-1.479-2.159-2.839-2.159-1.479 0-2.363.867-2.805 1.938l-.136-1.836h-.748V13h.867V8.614c0-2.108 1.02-3.536 2.669-3.536 1.496 0 2.431 1.054 2.431 3.043V13h.867V8.308c.051-1.972 1.071-3.23 2.686-3.23 1.496 0 2.397 1.003 2.397 2.958V13h.884V8.002c0-2.601-1.377-3.723-3.179-3.723zm5.546-1.717c.34 0 .612-.255.612-.612a.599.599 0 00-.612-.612.599.599 0 00-.612.612c0 .357.272.612.612.612zM318.073 13h.867V4.381h-.867V13zm3.551-2.006c0 1.377.561 2.006 2.023 2.006h1.258v-.799h-1.19c-.901 0-1.224-.34-1.224-1.224V5.18h2.329v-.799h-2.329V1.967h-.867v2.414h-1.632v.799h1.632v5.814zm8.142 2.108c1.887 0 3.332-1.224 3.706-2.958h-.884c-.34 1.343-1.479 2.176-2.89 2.176-1.921 0-3.128-1.462-3.162-3.468v-.153h7.038c0-.119.017-.255.017-.357-.085-2.567-1.666-4.063-3.978-4.063-2.363 0-3.978 1.802-3.978 4.352 0 2.703 1.683 4.471 4.131 4.471zm-3.162-5.134c.136-1.751 1.445-2.924 3.026-2.924 1.683 0 2.89 1.037 3.026 2.924h-6.052zm15.739-1.649c-.527-1.224-1.683-2.04-3.298-2.04-2.363 0-4.063 1.802-4.063 4.403 0 2.72 1.7 4.42 4.063 4.42 1.615 0 2.737-.867 3.281-2.074l.136 1.972h.748V1.1h-.867v5.219zm-3.23 6.001c-1.921 0-3.247-1.496-3.247-3.638 0-2.125 1.326-3.638 3.247-3.638 1.921 0 3.247 1.513 3.247 3.655 0 2.125-1.326 3.621-3.247 3.621zm11.365-1.326c0 1.377.561 2.006 2.023 2.006h1.258v-.799h-1.19c-.901 0-1.224-.34-1.224-1.224V5.18h2.329v-.799h-2.329V1.967h-.867v2.414h-1.632v.799h1.632v5.814zm5.042-8.432c.34 0 .612-.255.612-.612a.599.599 0 00-.612-.612.599.599 0 00-.612.612c0 .357.272.612.612.612zM355.078 13h.867V4.381h-.867V13zm12.527-8.721c-1.581 0-2.601.884-3.094 2.159-.408-1.428-1.479-2.159-2.839-2.159-1.479 0-2.363.867-2.805 1.938l-.136-1.836h-.748V13h.867V8.614c0-2.108 1.02-3.536 2.669-3.536 1.496 0 2.431 1.054 2.431 3.043V13h.867V8.308c.051-1.972 1.071-3.23 2.686-3.23 1.496 0 2.397 1.003 2.397 2.958V13h.884V8.002c0-2.601-1.377-3.723-3.179-3.723zm8.779 8.823c1.887 0 3.332-1.224 3.706-2.958h-.884c-.34 1.343-1.479 2.176-2.89 2.176-1.921 0-3.128-1.462-3.162-3.468v-.153h7.038c0-.119.017-.255.017-.357-.085-2.567-1.666-4.063-3.978-4.063-2.363 0-3.978 1.802-3.978 4.352 0 2.703 1.683 4.471 4.131 4.471zm-3.162-5.134c.136-1.751 1.445-2.924 3.026-2.924 1.683 0 2.89 1.037 3.026 2.924h-6.052zm8.443 3.842c-.459 0-.748.289-.748.663 0 .408.272.612.595.612.17 0 .34-.068.425-.204.119.119.153.289.153.442 0 .646-.408 1.309-1.275 1.343v.51c1.173-.051 1.904-.833 1.904-1.955 0-.782-.442-1.411-1.054-1.411zm6.938-6.63h5.542l-5.78 7.14V13h7.174v-.799h-6.035l5.797-7.157v-.663h-6.698v.799zm11.621 7.922c1.887 0 3.332-1.224 3.706-2.958h-.884c-.34 1.343-1.479 2.176-2.89 2.176-1.921 0-3.128-1.462-3.162-3.468v-.153h7.038c0-.119.017-.255.017-.357-.085-2.567-1.666-4.063-3.978-4.063-2.363 0-3.978 1.802-3.978 4.352 0 2.703 1.683 4.471 4.131 4.471zm-3.162-5.134c.136-1.751 1.445-2.924 3.026-2.924 1.683 0 2.89 1.037 3.026 2.924h-6.052zm12.219-3.587c-1.598 0-2.278.765-2.635 1.717l-.136-1.717h-.748V13h.867V8.631c0-1.751.459-3.417 2.482-3.417h.629v-.833h-.459zm4.938 8.721c2.431 0 4.148-1.802 4.148-4.42 0-2.601-1.717-4.403-4.148-4.403-2.431 0-4.131 1.802-4.131 4.403 0 2.618 1.7 4.42 4.131 4.42zm0-.782c-1.921 0-3.247-1.496-3.247-3.638 0-2.125 1.326-3.638 3.247-3.638 1.921 0 3.247 1.513 3.247 3.638 0 2.142-1.326 3.638-3.247 3.638zm14.209.782c1.955 0 3.332-1.122 3.672-2.873h-.918c-.289 1.275-1.326 2.091-2.754 2.091-1.887 0-3.196-1.479-3.196-3.621s1.292-3.655 3.196-3.655c1.445 0 2.465.816 2.771 2.108h.901c-.357-1.785-1.7-2.873-3.655-2.873-2.431 0-4.097 1.802-4.097 4.42 0 2.652 1.649 4.403 4.08 4.403zm9.166 0c2.431 0 4.148-1.802 4.148-4.42 0-2.601-1.717-4.403-4.148-4.403-2.431 0-4.131 1.802-4.131 4.403 0 2.618 1.7 4.42 4.131 4.42zm0-.782c-1.921 0-3.247-1.496-3.247-3.638 0-2.125 1.326-3.638 3.247-3.638 1.921 0 3.247 1.513 3.247 3.638 0 2.142-1.326 3.638-3.247 3.638zm15.492-8.041c-1.581 0-2.601.884-3.094 2.159-.408-1.428-1.479-2.159-2.839-2.159-1.479 0-2.363.867-2.805 1.938l-.136-1.836h-.748V13h.867V8.614c0-2.108 1.02-3.536 2.669-3.536 1.496 0 2.431 1.054 2.431 3.043V13h.867V8.308c.051-1.972 1.071-3.23 2.686-3.23 1.496 0 2.397 1.003 2.397 2.958V13h.884V8.002c0-2.601-1.377-3.723-3.179-3.723zm14.726 0c-1.581 0-2.601.884-3.094 2.159-.408-1.428-1.479-2.159-2.839-2.159-1.479 0-2.363.867-2.805 1.938l-.136-1.836h-.748V13h.867V8.614c0-2.108 1.02-3.536 2.669-3.536 1.496 0 2.431 1.054 2.431 3.043V13h.867V8.308c.051-1.972 1.071-3.23 2.686-3.23 1.496 0 2.397 1.003 2.397 2.958V13h.884V8.002c0-2.601-1.377-3.723-3.179-3.723zm5.546-1.717c.34 0 .612-.255.612-.612a.599.599 0 00-.612-.612.599.599 0 00-.612.612c0 .357.272.612.612.612zM472.916 13h.867V4.381h-.867V13zm2.514-2.652c.068 1.785 1.513 2.754 3.672 2.754 1.853 0 3.349-.935 3.349-2.465 0-1.819-1.598-2.176-3.451-2.431-1.343-.187-2.533-.34-2.533-1.547 0-.986.969-1.632 2.431-1.632 1.377 0 2.363.663 2.516 1.785h.884c-.153-1.683-1.53-2.533-3.4-2.533-1.921-.017-3.298.969-3.298 2.448 0 1.734 1.598 2.057 3.366 2.295 1.445.204 2.618.391 2.618 1.666 0 1.02-1.071 1.666-2.482 1.666-1.649 0-2.72-.765-2.788-2.006h-.884zm8.118 0c.068 1.785 1.513 2.754 3.672 2.754 1.853 0 3.349-.935 3.349-2.465 0-1.819-1.598-2.176-3.451-2.431-1.343-.187-2.533-.34-2.533-1.547 0-.986.969-1.632 2.431-1.632 1.377 0 2.363.663 2.516 1.785h.884c-.153-1.683-1.53-2.533-3.4-2.533-1.921-.017-3.298.969-3.298 2.448 0 1.734 1.598 2.057 3.366 2.295 1.445.204 2.618.391 2.618 1.666 0 1.02-1.071 1.666-2.482 1.666-1.649 0-2.72-.765-2.788-2.006h-.884zm9.117-7.786c.34 0 .612-.255.612-.612a.599.599 0 00-.612-.612.599.599 0 00-.612.612c0 .357.272.612.612.612zM492.223 13h.867V4.381h-.867V13zm6.713.102c2.431 0 4.148-1.802 4.148-4.42 0-2.601-1.717-4.403-4.148-4.403-2.431 0-4.131 1.802-4.131 4.403 0 2.618 1.7 4.42 4.131 4.42zm0-.782c-1.921 0-3.247-1.496-3.247-3.638 0-2.125 1.326-3.638 3.247-3.638 1.921 0 3.247 1.513 3.247 3.638 0 2.142-1.326 3.638-3.247 3.638zm9.849-8.041c-1.581 0-2.601.816-3.094 1.938l-.136-1.836h-.748V13h.867V8.75c0-2.244 1.139-3.672 2.975-3.672 1.666 0 2.669 1.088 2.669 3.128V13h.867V8.172c0-2.72-1.445-3.893-3.4-3.893zm4.928 6.069c.068 1.785 1.513 2.754 3.672 2.754 1.853 0 3.349-.935 3.349-2.465 0-1.819-1.598-2.176-3.451-2.431-1.343-.187-2.533-.34-2.533-1.547 0-.986.969-1.632 2.431-1.632 1.377 0 2.363.663 2.516 1.785h.884c-.153-1.683-1.53-2.533-3.4-2.533-1.921-.017-3.298.969-3.298 2.448 0 1.734 1.598 2.057 3.366 2.295 1.445.204 2.618.391 2.618 1.666 0 1.02-1.071 1.666-2.482 1.666-1.649 0-2.72-.765-2.788-2.006h-.884zm8.424 2.091c0 .391.272.646.646.646s.646-.255.646-.646-.272-.629-.646-.629-.646.238-.646.629zm6.439-9.945l-2.125.918.034-2.329h-.629l.034 2.329-2.108-.918-.255.595 2.176.833-1.496 1.785.459.425 1.496-1.853 1.496 1.853.476-.425-1.479-1.768 2.159-.833-.238-.612z" fill="#000"/></svg>