<svg width="244" height="42" viewBox="0 0 244 42" fill="none" xmlns="http://www.w3.org/2000/svg"><path d="M9.485 32.85l-.898 2.245C7.87 36.981 7.42 37.43 5.535 37.43H2.123v4.264H7.33c3.367 0 4.355-1.66 5.791-5.387L23.536 9.732h-5.163l-6.24 17.463L5.715 9.732H.552l8.933 23.119zm26.314.136c7.003 0 11.717-4.714 11.717-11.762 0-7.002-4.714-11.76-11.717-11.76s-11.716 4.758-11.716 11.76c0 7.048 4.713 11.762 11.716 11.762zm0-4.13c-4.085 0-6.733-3.188-6.733-7.632 0-4.444 2.648-7.631 6.733-7.631 4.085 0 6.779 3.187 6.779 7.631 0 4.444-2.694 7.632-6.779 7.632zm31.371-7.632c0 4.759-2.244 7.542-5.925 7.542-3.546 0-5.342-2.29-5.342-6.779V9.732h-4.848v12.794c0 7.856 4.175 10.46 9.068 10.46 3.546 0 5.656-1.437 7.092-3.188l.539 2.918h4.264V9.732H67.17v11.492zM88.423 9.732c-3.771 0-5.612 1.527-6.779 3.457l-.538-3.457h-4.31v22.984h4.848V21.18c0-3.546 1.392-6.913 5.701-6.913H89.5V9.732h-1.077zm17.214 16.745c0 4.174 1.885 6.24 6.284 6.24h4.489v-4.265h-3.411c-1.841 0-2.469-.674-2.469-2.47V13.998h5.611V9.732h-5.611V3.313h-4.893v6.42h-3.996v4.264h3.996v12.48zm25.484-16.745c-3.771 0-5.611 1.527-6.779 3.457l-.538-3.457h-4.31v22.984h4.848V21.18c0-3.546 1.392-6.913 5.701-6.913h2.155V9.732h-1.077zm24.374 18.765c-.987 0-1.481-.315-1.481-1.482v-9.202c0-5.432-3.501-8.35-9.606-8.35-5.791 0-9.652 2.783-10.146 7.272h4.759c.359-2.02 2.289-3.367 5.162-3.367 3.187 0 5.028 1.572 5.028 4.13v1.392h-5.791c-6.419 0-9.831 2.648-9.831 7.362 0 4.265 3.502 6.734 8.529 6.734 3.726 0 6.06-1.616 7.587-3.95 0 2.289 1.077 3.68 4.219 3.68h2.559v-4.22h-.988zm-6.284-5.208c-.045 3.547-2.379 5.926-6.419 5.926-2.649 0-4.265-1.347-4.265-3.277 0-2.334 1.661-3.457 4.669-3.457h6.015v.808zm27.2-10.37c-1.482-2.02-3.951-3.456-7.452-3.456-6.24 0-10.863 4.669-10.863 11.761 0 7.362 4.623 11.762 10.863 11.762 3.636 0 6.015-1.706 7.497-3.726l.583 3.456h4.22V1.293h-4.848V12.92zm-6.644 15.982c-4.04 0-6.689-3.143-6.689-7.677 0-4.489 2.649-7.631 6.689-7.631s6.689 3.142 6.689 7.721c0 4.444-2.649 7.587-6.689 7.587zm18.698-22.4c1.661 0 2.963-1.213 2.963-2.918 0-1.706-1.302-2.918-2.963-2.918-1.66 0-2.962 1.212-2.962 2.918 0 1.705 1.302 2.917 2.962 2.917zm-2.468 26.215h4.848V9.732h-4.848v22.984zm21.72-23.253c-3.725 0-5.925 1.482-7.362 3.277l-.538-3.008h-4.22v22.984h4.848V21.134c0-4.668 2.29-7.496 6.15-7.496 3.636 0 5.477 2.334 5.477 6.688v12.39h4.893V19.922c0-7.676-4.175-10.459-9.248-10.459zm31.209 3.86c-1.482-2.289-3.951-3.86-7.542-3.86-6.239 0-10.863 4.624-10.863 11.671 0 7.318 4.624 11.672 10.863 11.672 3.591 0 5.971-1.481 7.497-3.77v2.558c0 4.4-2.379 6.42-6.599 6.42-3.412 0-5.656-1.482-6.24-4.04h-4.938c.449 5.162 4.714 7.99 10.819 7.99 8.26 0 11.761-3.95 11.761-10.19V9.731h-4.22l-.538 3.592zm-6.734 15.398c-4.04 0-6.688-3.098-6.688-7.587 0-4.444 2.648-7.586 6.688-7.586 4.04 0 6.689 3.142 6.689 7.676 0 4.4-2.649 7.497-6.689 7.497z" fill="#000"/></svg>