<svg width="145" height="73" viewBox="0 0 145 73" fill="none" xmlns="http://www.w3.org/2000/svg"><path d="M1.408 16H7.26c3.718 0 5.72-1.672 5.72-4.4 0-2.2-1.408-3.278-3.234-3.564 1.606-.44 2.64-1.54 2.64-3.366C12.386 2.14 10.45.6 7.062.6H1.408V16zm5.72-13.288c1.76 0 2.728.836 2.728 2.2 0 1.386-.99 2.222-2.728 2.222h-3.19V2.712h3.19zm.154 6.512c1.958 0 3.102.836 3.102 2.354 0 1.43-1.078 2.288-3.102 2.288H3.938V9.224h3.344zm13.023 6.908c2.794 0 4.686-1.694 5.082-3.916h-2.376c-.33 1.254-1.386 1.98-2.838 1.98-1.87 0-3.08-1.254-3.146-3.168v-.154h8.492c.044-.308.066-.616.066-.902-.066-3.3-2.244-5.368-5.5-5.368-3.322 0-5.544 2.31-5.544 5.786 0 3.454 2.222 5.742 5.764 5.742zm-3.19-6.996c.176-1.606 1.474-2.618 2.992-2.618 1.65 0 2.816.946 3.014 2.618h-6.006zm21.718-4.4c-1.848 0-2.75.748-3.322 1.694l-.264-1.694h-2.112V16h2.376v-5.654c0-1.738.682-3.388 2.794-3.388h1.056V4.736h-.528zm6.802 11.396c2.794 0 4.686-1.694 5.082-3.916h-2.376c-.33 1.254-1.386 1.98-2.838 1.98-1.87 0-3.08-1.254-3.146-3.168v-.154h8.492c.044-.308.066-.616.066-.902-.066-3.3-2.244-5.368-5.5-5.368-3.322 0-5.544 2.31-5.544 5.786 0 3.454 2.222 5.742 5.764 5.742zm-3.19-6.996c.176-1.606 1.474-2.618 2.992-2.618 1.65 0 2.816.946 3.014 2.618h-6.006zM55.045 16h2.574l2.464-7.656L62.46 16h2.552l3.74-11.264h-2.42L63.67 13.36l-2.464-8.624h-2.178l-2.574 8.624-2.574-8.624h-2.508L55.045 16zm24.78-2.068c-.484 0-.726-.154-.726-.726v-4.51c0-2.662-1.716-4.092-4.708-4.092-2.838 0-4.73 1.364-4.972 3.564h2.332c.176-.99 1.122-1.65 2.53-1.65 1.562 0 2.464.77 2.464 2.024v.682h-2.838c-3.146 0-4.818 1.298-4.818 3.608 0 2.09 1.716 3.3 4.18 3.3 1.826 0 2.97-.792 3.718-1.936 0 1.122.528 1.804 2.068 1.804h1.254v-2.068h-.484zm-3.08-2.552c-.022 1.738-1.166 2.904-3.146 2.904-1.298 0-2.09-.66-2.09-1.606 0-1.144.814-1.694 2.288-1.694h2.948v.396zm10.556-6.644c-1.847 0-2.75.748-3.322 1.694l-.263-1.694h-2.112V16h2.376v-5.654c0-1.738.681-3.388 2.793-3.388h1.056V4.736h-.527zm10.015 1.562c-.726-.99-1.936-1.694-3.652-1.694-3.058 0-5.324 2.288-5.324 5.764 0 3.608 2.266 5.764 5.324 5.764 1.782 0 2.948-.836 3.674-1.826L97.624 16h2.068V.6h-2.376v5.698zM94.06 14.13c-1.98 0-3.278-1.54-3.278-3.762 0-2.2 1.298-3.74 3.278-3.74s3.278 1.54 3.278 3.784c0 2.178-1.298 3.718-3.278 3.718zm13.3 2.002c2.794 0 4.686-1.694 5.082-3.916h-2.376c-.33 1.254-1.386 1.98-2.838 1.98-1.87 0-3.08-1.254-3.146-3.168v-.154h8.492c.044-.308.066-.616.066-.902-.066-3.3-2.244-5.368-5.5-5.368-3.322 0-5.544 2.31-5.544 5.786 0 3.454 2.222 5.742 5.764 5.742zm-3.19-6.996c.176-1.606 1.474-2.618 2.992-2.618 1.65 0 2.816.946 3.014 2.618h-6.006zm18.949-2.838c-.726-.99-1.936-1.694-3.652-1.694-3.058 0-5.324 2.288-5.324 5.764 0 3.608 2.266 5.764 5.324 5.764 1.782 0 2.948-.836 3.674-1.826l.286 1.694h2.068V.6h-2.376v5.698zm-3.256 7.832c-1.98 0-3.278-1.54-3.278-3.762 0-2.2 1.298-3.74 3.278-3.74s3.278 1.54 3.278 3.784c0 2.178-1.298 3.718-3.278 3.718zM3.762 42h2.574L8.8 34.344 11.176 42h2.552l3.74-11.264h-2.42l-2.662 8.624-2.464-8.624H7.744L5.17 39.36l-2.574-8.624H.088L3.762 42zm16.167-12.848c.814 0 1.452-.594 1.452-1.43s-.638-1.43-1.452-1.43-1.452.594-1.452 1.43.638 1.43 1.452 1.43zM18.719 42h2.376V30.736h-2.376V42zm5.519-3.058c0 2.046.924 3.058 3.08 3.058h2.2v-2.09h-1.672c-.902 0-1.21-.33-1.21-1.21v-5.874h2.75v-2.09h-2.75V27.59h-2.398v3.146H22.28v2.09h1.958v6.116zm12.71-8.338c-1.76 0-2.839.792-3.543 1.76V26.6H31.03V42h2.376v-5.698c0-2.266 1.144-3.652 3.014-3.652 1.76 0 2.706 1.144 2.706 3.278V42h2.376v-6.27c0-3.762-2.046-5.126-4.554-5.126zM49.532 42h2.53v-4.07l2.662-2.992L59.565 42h3.058l-6.072-8.932 5.654-6.468h-3.08l-7.062 7.942V26.6h-2.53V42zm20.178-11.396c-1.826 0-2.903.726-3.608 1.606l-.263-1.474H63.77V42h2.376v-5.676c0-2.288 1.122-3.674 3.014-3.674 1.782 0 2.684 1.144 2.684 3.278V42h2.398v-6.27c0-3.762-2.045-5.126-4.531-5.126zm11.931 11.528c3.432 0 5.742-2.31 5.742-5.764 0-3.432-2.31-5.764-5.742-5.764S75.9 32.936 75.9 36.368c0 3.454 2.31 5.764 5.742 5.764zm0-2.024c-2.002 0-3.3-1.562-3.3-3.74s1.298-3.74 3.3-3.74 3.322 1.562 3.322 3.74-1.32 3.74-3.322 3.74zm12.823 2.024c2.882 0 4.796-1.606 5.236-4.158h-2.508c-.286 1.298-1.254 2.134-2.706 2.134-1.914 0-3.168-1.518-3.168-3.718 0-2.222 1.254-3.762 3.168-3.762 1.474 0 2.42.814 2.728 2.134H99.7c-.462-2.552-2.266-4.158-5.17-4.158-3.41 0-5.654 2.31-5.654 5.786 0 3.52 2.178 5.742 5.588 5.742zM101.52 42h2.376v-2.86l2.024-2.112L109.242 42h2.816l-4.51-6.71 4.246-4.554H109l-5.104 5.456V26.6h-2.376V42zm16.302.132c3.432 0 5.742-2.31 5.742-5.764 0-3.432-2.31-5.764-5.742-5.764s-5.742 2.332-5.742 5.764c0 3.454 2.31 5.764 5.742 5.764zm0-2.024c-2.002 0-3.3-1.562-3.3-3.74s1.298-3.74 3.3-3.74 3.322 1.562 3.322 3.74-1.32 3.74-3.322 3.74zm15.375-3.74c0 2.332-1.1 3.696-2.904 3.696-1.738 0-2.618-1.122-2.618-3.322v-6.006h-2.376v6.27c0 3.85 2.046 5.126 4.444 5.126 1.738 0 2.772-.704 3.476-1.562l.264 1.43h2.09V30.736h-2.376v5.632zm5.596 2.574c0 2.046.923 3.058 3.08 3.058h2.2v-2.09h-1.672c-.902 0-1.21-.33-1.21-1.21v-5.874h2.75v-2.09h-2.75V27.59h-2.398v3.146h-1.958v2.09h1.958v6.116zM15.774 60.3c0-4.51-3.058-7.832-7.48-7.832-4.422 0-7.48 3.322-7.48 7.832s3.058 7.832 7.48 7.832c4.422 0 7.48-3.322 7.48-7.832zm-12.364 0c0-3.256 1.958-5.61 4.884-5.61s4.884 2.354 4.884 5.61c0 3.256-1.958 5.61-4.884 5.61S3.41 63.556 3.41 60.3zm20.37-3.696c-1.76 0-2.926.814-3.674 1.804l-.286-1.672h-2.068V72.4h2.376v-5.984c.704 1.012 1.914 1.716 3.652 1.716 3.08 0 5.324-2.288 5.324-5.764 0-3.608-2.244-5.764-5.324-5.764zm-.396 9.526c-1.98 0-3.278-1.562-3.278-3.806 0-2.178 1.298-3.696 3.278-3.696s3.3 1.518 3.3 3.74c0 2.2-1.32 3.762-3.3 3.762zm8.352-1.188c0 2.046.924 3.058 3.08 3.058h2.2v-2.09h-1.672c-.902 0-1.21-.33-1.21-1.21v-5.874h2.75v-2.09h-2.75V53.59h-2.398v3.146h-1.958v2.09h1.958v6.116zm8.001-9.79c.814 0 1.452-.594 1.452-1.43s-.638-1.43-1.452-1.43-1.452.594-1.452 1.43.638 1.43 1.452 1.43zM38.527 68h2.376V56.736h-2.376V68zm10.03.132c3.431 0 5.741-2.31 5.741-5.764 0-3.432-2.31-5.764-5.742-5.764s-5.742 2.332-5.742 5.764c0 3.454 2.31 5.764 5.742 5.764zm0-2.024c-2.003 0-3.3-1.562-3.3-3.74s1.297-3.74 3.3-3.74c2.001 0 3.321 1.562 3.321 3.74s-1.32 3.74-3.322 3.74zm13.592-9.504c-1.826 0-2.904.726-3.608 1.606l-.264-1.474h-2.068V68h2.376v-5.676c0-2.288 1.122-3.674 3.014-3.674 1.782 0 2.684 1.144 2.684 3.278V68h2.398v-6.27c0-3.762-2.046-5.126-4.532-5.126zm6.209 7.678c.066 2.442 2.134 3.85 5.148 3.85 2.728 0 4.774-1.364 4.774-3.52 0-2.508-2.09-3.036-4.664-3.344-1.628-.176-2.706-.308-2.706-1.364 0-.902.924-1.474 2.332-1.474s2.376.726 2.508 1.76h2.332c-.154-2.31-2.112-3.586-4.884-3.586-2.706-.022-4.62 1.364-4.62 3.498 0 2.332 2.024 2.882 4.598 3.19 1.738.22 2.772.308 2.772 1.518 0 .902-.968 1.474-2.442 1.474-1.716 0-2.728-.836-2.816-2.002h-2.332z" fill="#000"/></svg>