<svg width="157" height="35" viewBox="0 0 157 35" fill="none" xmlns="http://www.w3.org/2000/svg"><path d="M5.082 12.084c1.96 0 3.122-1.078 3.542-2.254L8.666 12h.658V6.89H5.376v.7h3.22v.42c0 1.918-1.33 3.374-3.5 3.374-2.198 0-3.654-1.764-3.654-4.284 0-2.506 1.456-4.284 3.724-4.284 1.652 0 2.8.854 3.206 2.394h.812c-.406-1.96-1.932-3.094-3.99-3.094C2.422 2.116.658 4.16.658 7.1c0 2.954 1.806 4.984 4.424 4.984zm9.244 0c1.554 0 2.744-1.008 3.052-2.436h-.728c-.28 1.106-1.218 1.792-2.38 1.792-1.582 0-2.576-1.204-2.604-2.856v-.126h5.796c0-.098.014-.21.014-.294-.07-2.114-1.372-3.346-3.276-3.346-1.946 0-3.276 1.484-3.276 3.584 0 2.226 1.386 3.682 3.402 3.682zm-2.604-4.228c.112-1.442 1.19-2.408 2.492-2.408 1.386 0 2.38.854 2.492 2.408h-4.984zm7.588 2.492c0 1.134.462 1.652 1.666 1.652h1.036v-.658h-.98c-.742 0-1.009-.28-1.009-1.008V5.56h1.919v-.658h-1.919V2.914h-.713v1.988h-1.345v.658h1.345v4.788zM33.73 9.312c0-1.862-1.652-2.338-3.276-2.618-1.498-.252-2.8-.504-2.8-1.904 0-1.274.994-1.988 2.534-1.988 1.47 0 2.478.826 2.646 2.1h.77c-.126-1.54-1.218-2.604-2.954-2.772V.688h-.672v1.428c-1.876.07-3.08 1.106-3.08 2.716 0 1.862 1.596 2.282 3.164 2.548 1.54.266 2.912.574 2.912 2.002 0 1.26-1.064 2.016-2.646 2.016-1.652 0-2.772-.952-2.87-2.408h-.784c.098 1.75 1.302 2.968 3.304 3.08v1.428h.672V12.07c1.862-.112 3.08-1.204 3.08-2.758zM34.68 12h6.538v-.672h-5.53l3.262-2.94c1.134-1.022 2.142-1.96 2.142-3.444 0-1.722-1.19-2.828-3.178-2.828-1.904 0-3.136 1.232-3.136 3.08v.238h.728v-.196c0-1.526.938-2.464 2.408-2.464 1.484 0 2.436.826 2.436 2.212 0 1.232-.938 2.086-1.862 2.926l-3.808 3.458V12zm7.651-4.676c0 2.87 1.414 4.76 3.542 4.76 2.1 0 3.528-1.89 3.528-4.76v-.448c0-2.786-1.428-4.76-3.528-4.76-2.128 0-3.542 1.974-3.542 4.76v.448zm6.328-.028c0 2.492-1.106 4.116-2.786 4.116-1.694 0-2.8-1.624-2.8-4.116v-.392c0-2.492 1.106-4.116 2.8-4.116 1.68 0 2.786 1.624 2.786 4.116v.392zm2.08.028c0 2.87 1.414 4.76 3.542 4.76 2.1 0 3.528-1.89 3.528-4.76v-.448c0-2.786-1.428-4.76-3.528-4.76-2.128 0-3.542 1.974-3.542 4.76v.448zm6.328-.028c0 2.492-1.106 4.116-2.786 4.116-1.694 0-2.8-1.624-2.8-4.116v-.392c0-2.492 1.106-4.116 2.8-4.116 1.68 0 2.786 1.624 2.786 4.116v.392zM64.81 12h.77l2.1-5.964L69.682 12h.77l2.52-7.098h-.728l-2.184 6.244-2.03-6.244h-.658l-2.142 6.244-2.072-6.244h-.756L64.81 12zm12.437-7.182c-1.33 0-2.156.742-2.562 1.764V2.2h-.714V12h.714V8.5c0-1.848.938-3.024 2.45-3.024 1.358 0 2.198.896 2.198 2.576V12h.714V8.024c0-2.24-1.19-3.206-2.8-3.206zm7.42 7.266c1.554 0 2.744-1.008 3.052-2.436h-.728c-.28 1.106-1.218 1.792-2.38 1.792-1.582 0-2.576-1.204-2.604-2.856v-.126h5.796c0-.098.014-.21.014-.294-.07-2.114-1.372-3.346-3.276-3.346-1.946 0-3.276 1.484-3.276 3.584 0 2.226 1.386 3.682 3.402 3.682zm-2.604-4.228c.112-1.442 1.19-2.408 2.492-2.408 1.386 0 2.38.854 2.492 2.408h-4.984zm10.442-3.038c-1.302 0-2.142.672-2.548 1.596l-.112-1.512h-.616V12h.714V8.5c0-1.848.938-3.024 2.45-3.024 1.372 0 2.198.896 2.198 2.576V12h.714V8.024c0-2.24-1.19-3.206-2.8-3.206zM102.786 12l-.462 1.148c-.322.784-.448.994-1.176.994h-.896v.658h1.092c.952 0 1.176-.364 1.624-1.484l3.402-8.414h-.77l-2.422 6.174-2.464-6.174h-.77L102.786 12zm7.379.084c2.002 0 3.416-1.484 3.416-3.64 0-2.142-1.414-3.626-3.416-3.626s-3.402 1.484-3.402 3.626c0 2.156 1.4 3.64 3.402 3.64zm0-.644c-1.582 0-2.674-1.232-2.674-2.996 0-1.75 1.092-2.996 2.674-2.996 1.582 0 2.674 1.246 2.674 2.996 0 1.764-1.092 2.996-2.674 2.996zm9.987-3.052c0 1.862-.924 3.038-2.394 3.038-1.316 0-2.128-.896-2.128-2.59V4.902h-.714v3.976c0 2.226 1.162 3.206 2.73 3.206 1.26 0 2.086-.672 2.492-1.582l.098 1.498h.63V4.902h-.714v3.486zm6.7 1.96c0 1.134.462 1.652 1.666 1.652h1.036v-.658h-.98c-.742 0-1.008-.28-1.008-1.008V5.56h1.918v-.658h-1.918V2.914h-.714v1.988h-1.344v.658h1.344v4.788zm6.687-5.446c-1.316 0-1.876.63-2.17 1.414l-.112-1.414h-.616V12h.714V8.402c0-1.442.378-2.814 2.044-2.814h.518v-.686h-.378zm7.379 6.44c-.42 0-.63-.14-.63-.686V7.352c0-1.624-.994-2.534-2.772-2.534-1.624 0-2.702.784-2.884 2.072h.714c.182-.868.938-1.442 2.142-1.442 1.33 0 2.086.7 2.086 1.876v.616h-2.408c-1.82 0-2.8.784-2.8 2.114 0 1.26.994 2.03 2.506 2.03 1.442 0 2.296-.658 2.73-1.54v.252c-.028.84.322 1.204 1.162 1.204h.42v-.658h-.266zm-1.344-2.212c0 1.358-.966 2.338-2.646 2.338-1.134 0-1.834-.574-1.834-1.456 0-.938.7-1.456 2.016-1.456h2.464v.574zm8.251-2.632c-.434-1.008-1.386-1.68-2.716-1.68-1.946 0-3.346 1.484-3.346 3.626 0 2.24 1.4 3.64 3.346 3.64 1.33 0 2.254-.714 2.702-1.708l.112 1.624h.616V2.2h-.714v4.298zm-2.66 4.942c-1.582 0-2.674-1.232-2.674-2.996 0-1.75 1.092-2.996 2.674-2.996 1.582 0 2.674 1.246 2.674 3.01 0 1.75-1.092 2.982-2.674 2.982zm8.19.644c1.554 0 2.744-1.008 3.052-2.436h-.728c-.28 1.106-1.218 1.792-2.38 1.792-1.582 0-2.576-1.204-2.604-2.856v-.126h5.796c0-.098.014-.21.014-.294-.07-2.114-1.372-3.346-3.276-3.346-1.946 0-3.276 1.484-3.276 3.584 0 2.226 1.386 3.682 3.402 3.682zm-2.604-4.228c.112-1.442 1.19-2.408 2.492-2.408 1.386 0 2.38.854 2.492 2.408h-4.984zM1.372 30.348c0 1.134.462 1.652 1.666 1.652h1.036v-.658h-.98c-.742 0-1.008-.28-1.008-1.008V25.56h1.918v-.658H2.086v-1.988h-.714v1.988H.028v.658h1.344v4.788zM6.882 32h.77l2.1-5.964L11.754 32h.77l2.52-7.098h-.728l-2.184 6.244-2.03-6.244h-.658l-2.142 6.244-2.072-6.244h-.756L6.882 32zm12.078.084c2.002 0 3.416-1.484 3.416-3.64 0-2.142-1.414-3.626-3.416-3.626s-3.402 1.484-3.402 3.626c0 2.156 1.4 3.64 3.402 3.64zm0-.644c-1.582 0-2.674-1.232-2.674-2.996 0-1.75 1.092-2.996 2.674-2.996 1.582 0 2.674 1.246 2.674 2.996 0 1.764-1.092 2.996-2.674 2.996zm8.776.56h.756v-2.562l2.226-2.548L34.246 32h.91l-3.877-5.684 3.555-4.116h-.924l-5.417 6.174V22.2h-.756V32zm11.653-7.182c-1.302 0-2.142.672-2.548 1.596l-.112-1.512h-.616V32h.714v-3.5c0-1.848.938-3.024 2.45-3.024 1.372 0 2.198.896 2.198 2.576V32h.714v-3.976c0-2.24-1.19-3.206-2.8-3.206zm7.407 7.266c2.002 0 3.416-1.484 3.416-3.64 0-2.142-1.414-3.626-3.416-3.626s-3.402 1.484-3.402 3.626c0 2.156 1.4 3.64 3.402 3.64zm0-.644c-1.582 0-2.674-1.232-2.674-2.996 0-1.75 1.092-2.996 2.674-2.996 1.582 0 2.674 1.246 2.674 2.996 0 1.764-1.092 2.996-2.674 2.996zm7.929.644c1.61 0 2.744-.924 3.024-2.366h-.756c-.238 1.05-1.092 1.722-2.268 1.722-1.554 0-2.632-1.218-2.632-2.982 0-1.764 1.064-3.01 2.632-3.01 1.19 0 2.03.672 2.282 1.736h.742c-.294-1.47-1.4-2.366-3.01-2.366-2.002 0-3.374 1.484-3.374 3.64 0 2.184 1.358 3.626 3.36 3.626zM59.137 32h.714v-1.918l1.666-1.708L64.233 32h.868l-3.094-4.144 2.856-2.954h-.882l-4.13 4.256V22.2h-.714V32zm9.671.084c2.002 0 3.416-1.484 3.416-3.64 0-2.142-1.414-3.626-3.416-3.626s-3.402 1.484-3.402 3.626c0 2.156 1.4 3.64 3.402 3.64zm0-.644c-1.582 0-2.674-1.232-2.674-2.996 0-1.75 1.092-2.996 2.674-2.996 1.582 0 2.674 1.246 2.674 2.996 0 1.764-1.092 2.996-2.674 2.996zm9.987-3.052c0 1.862-.924 3.038-2.394 3.038-1.316 0-2.128-.896-2.128-2.59v-3.934h-.714v3.976c0 2.226 1.162 3.206 2.73 3.206 1.26 0 2.086-.672 2.492-1.582L78.879 32h.63v-7.098h-.714v3.486zm2.94 1.96c0 1.134.462 1.652 1.666 1.652h1.036v-.658h-.98c-.742 0-1.008-.28-1.008-1.008V25.56h1.918v-.658H82.45v-1.988h-.714v1.988h-1.344v.658h1.344v4.788zM98.271 27.1c0-2.898-1.876-4.984-4.578-4.984-2.688 0-4.578 2.086-4.578 4.984s1.89 4.984 4.578 4.984c2.702 0 4.578-2.086 4.578-4.984zm-8.372 0c0-2.506 1.554-4.284 3.794-4.284 2.254 0 3.808 1.778 3.808 4.284s-1.554 4.284-3.808 4.284c-2.24 0-3.794-1.778-3.794-4.284zm13.314-2.282c-1.33 0-2.254.714-2.702 1.708l-.112-1.624h-.616V34.8h.714v-4.438c.406 1.036 1.372 1.722 2.716 1.722 1.946 0 3.346-1.484 3.346-3.64 0-2.226-1.4-3.626-3.346-3.626zm-.056 6.622c-1.582 0-2.674-1.232-2.674-3.01 0-1.736 1.092-2.982 2.674-2.982 1.582 0 2.674 1.246 2.674 2.996 0 1.764-1.092 2.996-2.674 2.996zm5.238-1.092c0 1.134.462 1.652 1.666 1.652h1.036v-.658h-.98c-.742 0-1.008-.28-1.008-1.008V25.56h1.918v-.658h-1.918v-1.988h-.714v1.988h-1.344v.658h1.344v4.788zm4.153-6.944c.28 0 .504-.21.504-.504a.493.493 0 00-.504-.504c-.28 0-.504.21-.504.504 0 .294.224.504.504.504zM112.184 32h.714v-7.098h-.714V32zm5.528.084c2.002 0 3.416-1.484 3.416-3.64 0-2.142-1.414-3.626-3.416-3.626s-3.402 1.484-3.402 3.626c0 2.156 1.4 3.64 3.402 3.64zm0-.644c-1.582 0-2.674-1.232-2.674-2.996 0-1.75 1.092-2.996 2.674-2.996 1.582 0 2.674 1.246 2.674 2.996 0 1.764-1.092 2.996-2.674 2.996zm8.111-6.622c-1.302 0-2.142.672-2.548 1.596l-.112-1.512h-.616V32h.714v-3.5c0-1.848.938-3.024 2.45-3.024 1.372 0 2.198.896 2.198 2.576V32h.714v-3.976c0-2.24-1.19-3.206-2.8-3.206zm4.058 4.998c.056 1.47 1.246 2.268 3.024 2.268 1.526 0 2.758-.77 2.758-2.03 0-1.498-1.316-1.792-2.842-2.002-1.106-.154-2.086-.28-2.086-1.274 0-.812.798-1.344 2.002-1.344 1.134 0 1.946.546 2.072 1.47h.728c-.126-1.386-1.26-2.086-2.8-2.086-1.582-.014-2.716.798-2.716 2.016 0 1.428 1.316 1.694 2.772 1.89 1.19.168 2.156.322 2.156 1.372 0 .84-.882 1.372-2.044 1.372-1.358 0-2.24-.63-2.296-1.652h-.728z" fill="#000"/></svg>