<svg width="137" height="12" viewBox="0 0 137 12" fill="none" xmlns="http://www.w3.org/2000/svg"><path d="M3.127 8.796H4.68L7.433.928H6.095L3.903 7.245 1.733.928H.364l2.764 7.868zm7.048.067c1.754 0 2.934-1.18 2.934-2.945 0-1.753-1.18-2.945-2.934-2.945-1.753 0-2.933 1.192-2.933 2.945 0 1.765 1.18 2.945 2.933 2.945zm0-1.034c-1.023 0-1.686-.798-1.686-1.91 0-1.113.663-1.912 1.686-1.912s1.698.799 1.698 1.911c0 1.113-.675 1.911-1.698 1.911zm3.91.967H15.3V.928h-1.214v7.868zm7.665-1.057c-.247 0-.371-.078-.371-.37V5.063c0-1.36-.877-2.09-2.406-2.09-1.45 0-2.416.696-2.54 1.82h1.192c.09-.506.573-.843 1.292-.843.798 0 1.26.394 1.26 1.034v.349h-1.45c-1.608 0-2.463.663-2.463 1.843 0 1.068.877 1.686 2.136 1.686.933 0 1.518-.404 1.9-.989 0 .573.27.922 1.056.922h.641V7.739h-.247zm-1.574-1.304c-.011.888-.596 1.484-1.607 1.484-.663 0-1.068-.337-1.068-.82 0-.585.416-.866 1.169-.866h1.506v.202zm2.898.798c0 1.046.472 1.563 1.574 1.563h1.124V7.728h-.854c-.461 0-.619-.169-.619-.618V4.109h1.405V3.04H24.3V1.433h-1.225v1.608h-1v1.068h1v3.124zm4.088-5.002c.416 0 .742-.303.742-.73s-.326-.73-.741-.73c-.416 0-.742.303-.742.73s.326.73.742.73zm-.618 6.565h1.214V3.04h-1.214v5.755zm2.404 0h1.214V.928h-1.214v7.868zM31.97 2.23c.416 0 .742-.303.742-.73s-.326-.73-.742-.73c-.415 0-.741.303-.741.73s.326.73.741.73zm-.618 6.565h1.214V3.04h-1.214v5.755zm2.82-1.563c0 1.046.472 1.563 1.574 1.563h1.124V7.728h-.854c-.461 0-.619-.169-.619-.618V4.109h1.405V3.04h-1.405V1.433h-1.225v1.608h-1v1.068h1v3.124zm5.134 1.597l-.225.562c-.18.472-.292.584-.765.584h-.854v1.068h1.304c.843 0 1.09-.416 1.45-1.349l2.608-6.654H41.53L39.97 7.413 38.36 3.041H37.07l2.237 5.789zm9.65.033c1.472 0 2.45-.82 2.675-2.124h-1.282c-.146.663-.64 1.09-1.382 1.09-.978 0-1.619-.775-1.619-1.9 0-1.135.64-1.922 1.619-1.922.753 0 1.236.416 1.394 1.09h1.27c-.236-1.303-1.158-2.124-2.642-2.124-1.742 0-2.889 1.18-2.889 2.957 0 1.798 1.113 2.933 2.855 2.933zM57.82 7.74c-.247 0-.37-.078-.37-.37V5.063c0-1.36-.877-2.09-2.406-2.09-1.45 0-2.417.696-2.54 1.82h1.191c.09-.506.573-.843 1.293-.843.798 0 1.259.394 1.259 1.034v.349h-1.45c-1.608 0-2.462.663-2.462 1.843 0 1.068.877 1.686 2.136 1.686.933 0 1.517-.404 1.9-.989 0 .573.27.922 1.056.922h.64V7.739h-.246zm-1.573-1.304c-.011.888-.596 1.484-1.608 1.484-.663 0-1.068-.337-1.068-.82 0-.585.416-.866 1.17-.866h1.506v.202zm5.517-3.462c-.933 0-1.484.371-1.844.82l-.134-.752h-1.057v5.755h1.214v-2.9c0-1.17.573-1.877 1.54-1.877.91 0 1.371.584 1.371 1.675v3.102h1.225V5.592c0-1.922-1.045-2.619-2.315-2.619zm6.295 5.823h1.215V7.335l1.034-1.08 1.697 2.54h1.439l-2.305-3.427 2.17-2.327H71.88l-2.608 2.787v-4.9H68.06v7.868zm9.007-5.823c-.933 0-1.484.371-1.844.82l-.134-.752H74.03v5.755h1.214v-2.9c0-1.17.573-1.877 1.54-1.877.91 0 1.371.584 1.371 1.675v3.102h1.225V5.592c0-1.922-1.045-2.619-2.315-2.619zm6.096 5.89c1.753 0 2.934-1.18 2.934-2.945 0-1.753-1.18-2.945-2.934-2.945-1.754 0-2.934 1.192-2.934 2.945 0 1.765 1.18 2.945 2.934 2.945zm0-1.034c-1.023 0-1.686-.798-1.686-1.91 0-1.113.663-1.912 1.686-1.912s1.697.799 1.697 1.911c0 1.113-.674 1.911-1.697 1.911zm6.551 1.034c1.473 0 2.45-.82 2.676-2.124h-1.282c-.146.663-.64 1.09-1.382 1.09-.978 0-1.62-.775-1.62-1.9 0-1.135.642-1.922 1.62-1.922.753 0 1.236.416 1.393 1.09h1.27c-.236-1.303-1.157-2.124-2.64-2.124-1.743 0-2.89 1.18-2.89 2.957 0 1.798 1.113 2.933 2.855 2.933zm3.605-.067h1.214V7.335l1.034-1.08 1.697 2.54h1.439l-2.304-3.427 2.17-2.327H97.14l-2.608 2.787v-4.9h-1.214v7.868zm10.511.034l-.225.562c-.18.472-.292.584-.764.584h-.855v1.068h1.304c.843 0 1.091-.416 1.45-1.349l2.608-6.654h-1.292l-1.563 4.372-1.607-4.372h-1.293l2.237 5.789zm6.589.033c1.753 0 2.934-1.18 2.934-2.945 0-1.753-1.181-2.945-2.934-2.945-1.754 0-2.934 1.192-2.934 2.945 0 1.765 1.18 2.945 2.934 2.945zm0-1.034c-1.023 0-1.686-.798-1.686-1.91 0-1.113.663-1.912 1.686-1.912s1.697.799 1.697 1.911c0 1.113-.674 1.911-1.697 1.911zm7.855-1.91c0 1.19-.562 1.888-1.483 1.888-.888 0-1.338-.574-1.338-1.698V3.041h-1.214v3.203c0 1.967 1.045 2.62 2.271 2.62.888 0 1.416-.36 1.776-.799l.134.73h1.068V3.042h-1.214v2.877zm8.007 2.944c1.753 0 2.934-1.18 2.934-2.945 0-1.753-1.181-2.945-2.934-2.945-1.754 0-2.934 1.192-2.934 2.945 0 1.765 1.18 2.945 2.934 2.945zm0-1.034c-1.023 0-1.686-.798-1.686-1.91 0-1.113.663-1.912 1.686-1.912s1.697.799 1.697 1.911c0 1.113-.674 1.911-1.697 1.911zm10.385-5.834V.928h-1.157c-1.113 0-1.608.528-1.608 1.54v.573h-2.113v-.484c0-.393.157-.562.551-.562h.854V.928h-1.023c-1.113 0-1.607.528-1.607 1.54v.573h-1.001v1.068h1.001v4.687h1.225V4.109h2.113v4.687h1.214V4.109h1.551V3.04h-1.551v-.484c0-.393.169-.562.562-.562h.989z" fill="#000"/></svg>