<svg width="49" height="14" viewBox="0 0 49 14" fill="none" xmlns="http://www.w3.org/2000/svg"><rect width="49" height="14" rx="7" fill="#000"/><path d="M7.74 8.122c.03.83.633 1.414 1.662 1.414.885 0 1.498-.511 1.498-1.24 0-.818-.704-1.047-1.39-1.161-.632-.109-1.143-.21-1.143-.716 0-.452.367-.693.914-.693.572 0 .963.32 1.024.807h.541c-.048-.758-.626-1.282-1.565-1.282-.854 0-1.438.482-1.438 1.198 0 .818.698 1.04 1.378 1.155.638.109 1.156.217 1.156.74 0 .458-.403.717-.97.717-.643 0-1.082-.373-1.125-.94h-.541zm3.981.578c0 .541.211.8.8.8h.536v-.451h-.487c-.265 0-.355-.097-.355-.355V6.882h.794v-.451h-.794V5.57h-.494v.86h-.553v.452h.553V8.7zm4.431.349c-.138 0-.198-.043-.198-.205V7.502c0-.716-.452-1.107-1.234-1.107-.74 0-1.228.355-1.3.956h.494c.06-.313.349-.517.782-.517.481 0 .764.24.764.638v.21h-.903c-.806 0-1.233.343-1.233.957 0 .56.457.897 1.131.897.53 0 .837-.235 1.03-.511.005.3.144.475.553.475h.27v-.451h-.156zm-.692-.8c0 .51-.355.866-.969.866-.409 0-.668-.205-.668-.506 0-.349.247-.511.686-.511h.951v.15zM18.11 6.43c-.548 0-.783.228-.927.463l-.066-.463h-.428V9.5h.494V7.935c0-.487.174-1.023.818-1.023h.247v-.481h-.138zm.894 2.269c0 .541.211.8.8.8h.537v-.451h-.488c-.265 0-.355-.097-.355-.355V6.882h.794v-.451h-.794V5.57h-.494v.86h-.553v.452h.553V8.7zm3.568 0c0 .541.21.8.8.8h.536v-.451h-.488c-.264 0-.355-.097-.355-.355V6.882h.795v-.451h-.795V5.57h-.493v.86h-.554v.452h.554V8.7zm3.184-2.27c-.548 0-.782.23-.927.464l-.066-.463h-.427V9.5h.493V7.935c0-.487.175-1.023.819-1.023h.246v-.481h-.138zM28.93 9.05c-.139 0-.199-.043-.199-.205V7.502c0-.716-.451-1.107-1.234-1.107-.74 0-1.227.355-1.3.956h.494c.06-.313.349-.517.782-.517.482 0 .765.24.765.638v.21h-.903c-.807 0-1.234.343-1.234.957 0 .56.457.897 1.132.897.53 0 .836-.235 1.029-.511.006.3.144.475.553.475h.271v-.451h-.156zm-.692-.8c0 .51-.356.866-.97.866-.409 0-.668-.205-.668-.506 0-.349.247-.511.687-.511h.95v.15zM31.85 6.9c-.187-.295-.536-.505-1.054-.505-.848 0-1.474.631-1.474 1.57 0 1 .626 1.571 1.474 1.571.518 0 .849-.247 1.054-.53l.066.494h.427V5.287h-.493V6.9zm-1.005 2.197c-.608 0-1.017-.464-1.017-1.132 0-.668.409-1.131 1.017-1.131.601 0 1.01.47 1.01 1.143 0 .656-.409 1.12-1.01 1.12zm2.423-3.184a.31.31 0 00.32-.319.31.31 0 00-.32-.319.31.31 0 00-.319.32.31.31 0 00.32.318zM33.015 9.5h.494V6.43h-.494V9.5zm2.675-3.105c-.518 0-.831.216-1.011.45l-.067-.414h-.427V9.5h.493V7.965c0-.692.35-1.12.927-1.12.536 0 .83.338.83.976V9.5h.494V7.79c0-1.016-.547-1.395-1.24-1.395zm4.288.565c-.193-.343-.536-.565-1.053-.565-.849 0-1.475.631-1.475 1.57 0 1 .626 1.571 1.475 1.571.517 0 .848-.217 1.053-.566v.361c0 .669-.35.97-.993.97-.512 0-.855-.217-.939-.602h-.505c.078.674.625 1.04 1.408 1.04 1.053 0 1.522-.505 1.522-1.39V6.432h-.427l-.066.53zm-1.005 2.137c-.608 0-1.017-.464-1.017-1.132 0-.668.409-1.131 1.017-1.131.602 0 1.011.47 1.011 1.143 0 .656-.41 1.12-1.011 1.12z" fill="#fff"/></svg>