<svg width="161" height="51" viewBox="0 0 161 51" fill="none" xmlns="http://www.w3.org/2000/svg"><path d="M9.814 5.1c0-2.898-1.876-4.984-4.578-4.984C2.548.116.658 2.202.658 5.1s1.89 4.984 4.578 4.984c2.702 0 4.578-2.086 4.578-4.984zm-8.372 0c0-2.506 1.554-4.284 3.794-4.284C7.49.816 9.044 2.594 9.044 5.1S7.49 9.384 5.236 9.384c-2.24 0-3.794-1.778-3.794-4.284zm15.036 1.288c0 1.862-.924 3.038-2.394 3.038-1.316 0-2.128-.896-2.128-2.59V2.902h-.714v3.976c0 2.226 1.162 3.206 2.73 3.206 1.26 0 2.086-.672 2.492-1.582L16.562 10h.63V2.902h-.714v3.486zm5.293-3.486c-1.316 0-1.876.63-2.17 1.414l-.112-1.414h-.616V10h.714V6.402c0-1.442.378-2.814 2.044-2.814h.518v-.686h-.378zm8.486-.084c-1.302 0-2.142.672-2.548 1.596l-.112-1.512h-.616V10h.714V6.5c0-1.848.938-3.024 2.45-3.024 1.372 0 2.198.896 2.198 2.576V10h.714V6.024c0-2.24-1.19-3.206-2.8-3.206zm7.406 7.266c1.555 0 2.745-1.008 3.053-2.436h-.729c-.28 1.106-1.218 1.792-2.38 1.792-1.581 0-2.575-1.204-2.603-2.856v-.126H40.8c0-.098.014-.21.014-.294-.07-2.114-1.373-3.346-3.276-3.346-1.946 0-3.276 1.484-3.276 3.584 0 2.226 1.386 3.682 3.401 3.682zM35.06 5.856c.111-1.442 1.19-2.408 2.491-2.408 1.386 0 2.38.854 2.492 2.408H35.06zM43.727 10h.77l2.1-5.964L48.6 10h.77l2.52-7.098h-.728l-2.184 6.244-2.03-6.244h-.658l-2.142 6.244-2.072-6.244h-.756L43.728 10zm15.384 0h.896l2.534-8.554L65.076 10h.896L68.968.2h-.784l-2.646 8.806L62.962.2h-.77l-2.646 8.806L56.928.2h-.798l2.982 9.8zm13.551.084c1.555 0 2.745-1.008 3.053-2.436h-.728c-.28 1.106-1.219 1.792-2.38 1.792-1.583 0-2.577-1.204-2.605-2.856v-.126H75.8c0-.098.014-.21.014-.294-.07-2.114-1.371-3.346-3.276-3.346-1.946 0-3.276 1.484-3.276 3.584 0 2.226 1.386 3.682 3.403 3.682zM70.06 5.856c.111-1.442 1.19-2.408 2.492-2.408 1.385 0 2.38.854 2.491 2.408H70.06zM77.225 10h.714V.2h-.714V10zm5.486.084c1.61 0 2.744-.924 3.024-2.366h-.756c-.238 1.05-1.092 1.722-2.268 1.722-1.554 0-2.632-1.218-2.632-2.982 0-1.764 1.064-3.01 2.632-3.01 1.19 0 2.03.672 2.282 1.736h.742c-.294-1.47-1.4-2.366-3.01-2.366-2.002 0-3.374 1.484-3.374 3.64 0 2.184 1.358 3.626 3.36 3.626zm7.548 0c2.002 0 3.416-1.484 3.416-3.64 0-2.142-1.414-3.626-3.416-3.626s-3.402 1.484-3.402 3.626c0 2.156 1.4 3.64 3.402 3.64zm0-.644c-1.582 0-2.674-1.232-2.674-2.996 0-1.75 1.092-2.996 2.674-2.996 1.582 0 2.674 1.246 2.674 2.996 0 1.764-1.092 2.996-2.674 2.996zm12.759-6.622c-1.302 0-2.142.728-2.548 1.778-.336-1.176-1.218-1.778-2.338-1.778-1.218 0-1.946.714-2.31 1.596l-.112-1.512h-.616V10h.714V6.388c0-1.736.84-2.912 2.198-2.912 1.232 0 2.002.868 2.002 2.506V10h.714V6.136c.042-1.624.882-2.66 2.212-2.66 1.232 0 1.974.826 1.974 2.436V10h.728V5.884c0-2.142-1.134-3.066-2.618-3.066zm7.229 7.266c1.554 0 2.744-1.008 3.052-2.436h-.728c-.28 1.106-1.218 1.792-2.38 1.792-1.582 0-2.576-1.204-2.604-2.856v-.126h5.796c0-.098.014-.21.014-.294-.07-2.114-1.372-3.346-3.276-3.346-1.946 0-3.276 1.484-3.276 3.584 0 2.226 1.386 3.682 3.402 3.682zm-2.604-4.228c.112-1.442 1.19-2.408 2.492-2.408 1.386 0 2.38.854 2.492 2.408h-4.984zM118.75 10h.756V5.912h2.814L124.63 10h.854l-2.38-4.228c1.442-.224 2.352-1.274 2.352-2.716 0-1.736-1.218-2.856-3.08-2.856h-3.626V10zm3.584-9.1c1.442 0 2.352.84 2.352 2.156 0 1.302-.924 2.156-2.366 2.156h-2.814V.9h2.828zm7.314 9.184c1.554 0 2.744-1.008 3.052-2.436h-.728c-.28 1.106-1.218 1.792-2.38 1.792-1.582 0-2.576-1.204-2.604-2.856v-.126h5.796c0-.098.014-.21.014-.294-.07-2.114-1.372-3.346-3.276-3.346-1.946 0-3.276 1.484-3.276 3.584 0 2.226 1.386 3.682 3.402 3.682zm-2.604-4.228c.112-1.442 1.19-2.408 2.492-2.408 1.386 0 2.38.854 2.492 2.408h-4.984zm10.595-3.038c-1.33 0-2.268.728-2.716 1.736V.2h-.714V10h.616l.112-1.61c.42 1.022 1.372 1.694 2.702 1.694 1.946 0 3.346-1.484 3.346-3.64 0-2.226-1.4-3.626-3.346-3.626zm-.056 6.622c-1.582 0-2.674-1.232-2.674-3.01 0-1.736 1.092-2.982 2.674-2.982 1.582 0 2.674 1.246 2.674 2.996 0 1.764-1.092 2.996-2.674 2.996zm11.06-.098c-.42 0-.63-.14-.63-.686V5.352c0-1.624-.994-2.534-2.772-2.534-1.624 0-2.702.784-2.884 2.072h.714c.182-.868.938-1.442 2.142-1.442 1.33 0 2.086.7 2.086 1.876v.616h-2.408c-1.82 0-2.8.784-2.8 2.114 0 1.26.994 2.03 2.506 2.03 1.442 0 2.296-.658 2.73-1.54v.252c-.028.84.322 1.204 1.162 1.204h.42v-.658h-.266zm-1.344-2.212c0 1.358-.966 2.338-2.646 2.338-1.134 0-1.834-.574-1.834-1.456 0-.938.7-1.456 2.016-1.456h2.464v.574zm3.096 1.218c0 1.134.462 1.652 1.666 1.652h1.036v-.658h-.98c-.742 0-1.008-.28-1.008-1.008V3.56h1.918v-.658h-1.918V.914h-.714v1.988h-1.344v.658h1.344v4.788zm6.706 1.736c1.554 0 2.744-1.008 3.052-2.436h-.728c-.28 1.106-1.218 1.792-2.38 1.792-1.582 0-2.576-1.204-2.604-2.856v-.126h5.796c0-.098.014-.21.014-.294-.07-2.114-1.372-3.346-3.276-3.346-1.946 0-3.276 1.484-3.276 3.584 0 2.226 1.386 3.682 3.402 3.682zm-2.604-4.228c.112-1.442 1.19-2.408 2.492-2.408 1.386 0 2.38.854 2.492 2.408h-4.984zM.966 25.954c0 2.73 1.162 4.13 3.57 4.13 2.422 0 3.598-1.4 3.598-4.13V20.2h-.756v5.796c0 2.254-.868 3.388-2.842 3.388-1.946 0-2.814-1.134-2.814-3.388V20.2H.966v5.754zm12.41-3.136c-1.33 0-2.255.714-2.702 1.708l-.112-1.624h-.617V32.8h.714v-4.438c.406 1.036 1.372 1.722 2.716 1.722 1.947 0 3.346-1.484 3.346-3.64 0-2.226-1.4-3.626-3.345-3.626zm-.056 6.622c-1.582 0-2.675-1.232-2.675-3.01 0-1.736 1.093-2.982 2.675-2.982 1.582 0 2.673 1.246 2.673 2.996 0 1.764-1.091 2.996-2.674 2.996zm9.12-1.092c0 1.134.462 1.652 1.666 1.652h1.036v-.658h-.98c-.742 0-1.008-.28-1.008-1.008V23.56h1.918v-.658h-1.918v-1.988h-.714v1.988h-1.344v.658h1.344v4.788zm6.706 1.736c2.002 0 3.416-1.484 3.416-3.64 0-2.142-1.414-3.626-3.416-3.626s-3.402 1.484-3.402 3.626c0 2.156 1.4 3.64 3.402 3.64zm0-.644c-1.582 0-2.674-1.232-2.674-2.996 0-1.75 1.092-2.996 2.674-2.996 1.582 0 2.674 1.246 2.674 2.996 0 1.764-1.092 2.996-2.674 2.996zm15.468-2.128c0-1.862-1.652-2.338-3.276-2.618-1.498-.252-2.8-.504-2.8-1.904 0-1.274.994-1.988 2.534-1.988 1.47 0 2.478.826 2.646 2.1h.77c-.126-1.54-1.218-2.604-2.954-2.772v-1.442h-.672v1.428c-1.876.07-3.08 1.106-3.08 2.716 0 1.862 1.596 2.282 3.164 2.548 1.54.266 2.912.574 2.912 2.002 0 1.26-1.064 2.016-2.646 2.016-1.652 0-2.772-.952-2.87-2.408h-.784c.098 1.75 1.302 2.968 3.304 3.08v1.428h.672V30.07c1.862-.112 3.08-1.204 3.08-2.758zm3.006-5.866c0 .448-.21.756-.644.756h-1.68v.658h1.68c.294 0 .504-.084.63-.238V30h.728v-9.8h-.714v1.246zM49.663 30h6.538v-.672h-5.53l3.262-2.94c1.134-1.022 2.142-1.96 2.142-3.444 0-1.722-1.19-2.828-3.178-2.828-1.904 0-3.136 1.232-3.136 3.08v.238h.728v-.196c0-1.526.938-2.464 2.408-2.464 1.484 0 2.436.826 2.436 2.212 0 1.232-.938 2.086-1.862 2.926l-3.808 3.458V30zm8.114-.98c-.378 0-.616.238-.616.546 0 .336.224.504.49.504.14 0 .28-.056.35-.168a.505.505 0 01.126.364c0 .532-.336 1.078-1.05 1.106v.42c.966-.042 1.568-.686 1.568-1.61 0-.644-.364-1.162-.868-1.162zm1.41-3.696c0 2.87 1.415 4.76 3.543 4.76 2.1 0 3.528-1.89 3.528-4.76v-.448c0-2.786-1.428-4.76-3.528-4.76-2.128 0-3.542 1.974-3.542 4.76v.448zm6.329-.028c0 2.492-1.106 4.116-2.786 4.116-1.694 0-2.8-1.624-2.8-4.116v-.392c0-2.492 1.106-4.116 2.8-4.116 1.68 0 2.786 1.624 2.786 4.116v.392zm2.08.028c0 2.87 1.414 4.76 3.542 4.76 2.1 0 3.528-1.89 3.528-4.76v-.448c0-2.786-1.428-4.76-3.528-4.76-2.128 0-3.542 1.974-3.542 4.76v.448zm6.328-.028c0 2.492-1.106 4.116-2.786 4.116-1.694 0-2.8-1.624-2.8-4.116v-.392c0-2.492 1.106-4.116 2.8-4.116 1.68 0 2.786 1.624 2.786 4.116v.392zm2.08.028c0 2.87 1.414 4.76 3.542 4.76 2.1 0 3.528-1.89 3.528-4.76v-.448c0-2.786-1.428-4.76-3.528-4.76-2.128 0-3.542 1.974-3.542 4.76v.448zm6.328-.028c0 2.492-1.106 4.116-2.786 4.116-1.694 0-2.8-1.624-2.8-4.116v-.392c0-2.492 1.106-4.116 2.8-4.116 1.68 0 2.786 1.624 2.786 4.116v.392zm9.116 4.788c1.61 0 2.744-.924 3.024-2.366h-.756c-.238 1.05-1.092 1.722-2.268 1.722-1.554 0-2.632-1.218-2.632-2.982 0-1.764 1.064-3.01 2.632-3.01 1.19 0 2.03.672 2.282 1.736h.742c-.294-1.47-1.4-2.366-3.01-2.366-2.002 0-3.374 1.484-3.374 3.64 0 2.184 1.358 3.626 3.36 3.626zm10.656-.742c-.42 0-.63-.14-.63-.686v-3.304c0-1.624-.994-2.534-2.773-2.534-1.623 0-2.701.784-2.883 2.072h.713c.182-.868.938-1.442 2.142-1.442 1.331 0 2.087.7 2.087 1.876v.616h-2.409c-1.82 0-2.8.784-2.8 2.114 0 1.26.995 2.03 2.507 2.03 1.441 0 2.296-.658 2.73-1.54v.252c-.028.84.322 1.204 1.162 1.204h.42v-.658h-.266zm-1.344-2.212c0 1.358-.967 2.338-2.647 2.338-1.133 0-1.834-.574-1.834-1.456 0-.938.7-1.456 2.017-1.456h2.464v.574zm2.242.686c.056 1.47 1.246 2.268 3.024 2.268 1.526 0 2.758-.77 2.758-2.03 0-1.498-1.316-1.792-2.842-2.002-1.106-.154-2.086-.28-2.086-1.274 0-.812.798-1.344 2.002-1.344 1.134 0 1.946.546 2.072 1.47h.728c-.126-1.386-1.26-2.086-2.8-2.086-1.582-.014-2.716.798-2.716 2.016 0 1.428 1.316 1.694 2.772 1.89 1.19.168 2.156.322 2.156 1.372 0 .84-.882 1.372-2.044 1.372-1.358 0-2.24-.63-2.296-1.652h-.728zm10.421-4.998c-1.33 0-2.156.742-2.562 1.764V20.2h-.714V30h.714v-3.5c0-1.848.938-3.024 2.45-3.024 1.358 0 2.198.896 2.198 2.576V30h.714v-3.976c0-2.24-1.19-3.206-2.8-3.206zM7.448 46.318v-.602H.924v.602h6.524zm8.809-3.5c-1.302 0-2.142.672-2.548 1.596l-.112-1.512h-.616V50h.714v-3.5c0-1.848.938-3.024 2.45-3.024 1.372 0 2.198.896 2.198 2.576V50h.714v-3.976c0-2.24-1.19-3.206-2.8-3.206zm7.406 7.266c2.003 0 3.416-1.484 3.416-3.64 0-2.142-1.413-3.626-3.416-3.626-2.002 0-3.401 1.484-3.401 3.626 0 2.156 1.4 3.64 3.401 3.64zm0-.644c-1.582 0-2.674-1.232-2.674-2.996 0-1.75 1.092-2.996 2.674-2.996 1.582 0 2.674 1.246 2.674 2.996 0 1.764-1.091 2.996-2.674 2.996zm16.533-6.622c-1.302 0-2.142.728-2.548 1.778-.336-1.176-1.218-1.778-2.338-1.778-1.218 0-1.946.714-2.31 1.596l-.112-1.512h-.616V50h.714v-3.612c0-1.736.84-2.912 2.198-2.912 1.232 0 2.002.868 2.002 2.506V50h.714v-3.864c.042-1.624.882-2.66 2.212-2.66 1.232 0 1.974.826 1.974 2.436V50h.728v-4.116c0-2.142-1.134-3.066-2.618-3.066zm4.567-1.414c.28 0 .504-.21.504-.504a.493.493 0 00-.504-.504c-.28 0-.504.21-.504.504 0 .294.224.504.504.504zM44.399 50h.714v-7.098h-.714V50zm5.668-7.182c-1.302 0-2.142.672-2.548 1.596l-.112-1.512h-.616V50h.714v-3.5c0-1.848.938-3.024 2.45-3.024 1.372 0 2.198.896 2.198 2.576V50h.714v-3.976c0-2.24-1.19-3.206-2.8-3.206zm4.744-1.414c.28 0 .504-.21.504-.504a.493.493 0 00-.504-.504c-.28 0-.504.21-.504.504 0 .294.224.504.504.504zM54.447 50h.714v-7.098h-.714V50zm10.317-7.182c-1.302 0-2.142.728-2.548 1.778-.336-1.176-1.218-1.778-2.338-1.778-1.218 0-1.946.714-2.31 1.596l-.112-1.512h-.616V50h.714v-3.612c0-1.736.84-2.912 2.198-2.912 1.232 0 2.002.868 2.002 2.506V50h.714v-3.864c.042-1.624.882-2.66 2.212-2.66 1.232 0 1.974.826 1.974 2.436V50h.728v-4.116c0-2.142-1.134-3.066-2.618-3.066zm9.355 3.57c0 1.862-.924 3.038-2.394 3.038-1.316 0-2.128-.896-2.128-2.59v-3.934h-.714v3.976c0 2.226 1.162 3.206 2.73 3.206 1.26 0 2.086-.672 2.492-1.582L74.203 50h.63v-7.098h-.714v3.486zm10.319-3.57c-1.302 0-2.142.728-2.548 1.778-.336-1.176-1.218-1.778-2.338-1.778-1.218 0-1.946.714-2.31 1.596l-.112-1.512h-.616V50h.714v-3.612c0-1.736.84-2.912 2.198-2.912 1.232 0 2.002.868 2.002 2.506V50h.714v-3.864c.042-1.624.882-2.66 2.212-2.66 1.232 0 1.974.826 1.974 2.436V50h.728v-4.116c0-2.142-1.134-3.066-2.618-3.066zm3.88 4.998c.057 1.47 1.247 2.268 3.025 2.268 1.526 0 2.758-.77 2.758-2.03 0-1.498-1.316-1.792-2.842-2.002-1.106-.154-2.086-.28-2.086-1.274 0-.812.798-1.344 2.002-1.344 1.134 0 1.946.546 2.072 1.47h.728c-.126-1.386-1.26-2.086-2.8-2.086-1.582-.014-2.716.798-2.716 2.016 0 1.428 1.316 1.694 2.772 1.89 1.19.168 2.156.322 2.156 1.372 0 .84-.882 1.372-2.044 1.372-1.358 0-2.24-.63-2.296-1.652h-.728zm6.938 1.722c0 .322.224.532.532.532.308 0 .532-.21.532-.532 0-.322-.224-.518-.532-.518-.308 0-.532.196-.532.518z" fill="#000"/></svg>