<svg width="300" height="600" viewBox="0 0 300 600" fill="none" xmlns="http://www.w3.org/2000/svg"><path d="M39.51 236.792c0-2.958-1.7-4.964-4.624-5.678 2.278-.714 4.012-2.244 4.012-5.134-.034-3.74-3.128-6.12-7.548-6.12-4.896 0-8.024 2.448-8.296 7.038 0 .17.17.34.34.34h3.264c.17 0 .34-.136.374-.34.204-2.72 1.564-4.046 4.114-4.046 2.074 0 3.638 1.394 3.638 3.536 0 2.108-1.53 3.536-4.828 3.536h-.884c-.17 0-.34.17-.34.34v2.176c0 .17.17.34.34.34h.884c3.638 0 5.338 1.292 5.304 4.148-.068 2.72-1.632 4.42-4.318 4.42-2.754.034-4.08-1.632-4.25-4.488a.34.34 0 00-.34-.34h-3.366c-.17 0-.34.17-.306.34.374 4.896 3.094 7.48 8.16 7.48 4.862 0 8.67-2.822 8.67-7.548zm19.962-1.394c0-5.066-3.264-8.33-7.48-8.33-2.04 0-3.74.612-4.964 1.972l.544-5.576h10.064c.17 0 .34-.17.34-.34v-2.584c0-.17-.17-.34-.34-.34H44.274c-.17 0-.34.17-.374.34l-.816 12.478c-.034.17.136.34.306.34h2.958a.404.404 0 00.408-.34c.51-1.87 1.904-2.89 4.012-2.89 2.89 0 4.284 1.972 4.284 5.542 0 3.74-1.666 5.814-4.42 5.814-2.38 0-3.774-1.36-3.944-3.604a.396.396 0 00-.374-.34h-3.468c-.17 0-.34.17-.306.34.442 3.944 3.128 6.63 8.126 6.63 5.236 0 8.806-3.502 8.806-9.112zm20.873-3.23c0-8.228-3.57-12.444-9.01-12.444-5.474 0-9.01 4.284-9.01 12.41 0 7.888 3.57 12.342 9.01 12.342 5.44 0 9.01-4.42 9.01-12.308zm-13.736 0c0-6.222 1.666-9.044 4.726-9.044 2.992 0 4.726 2.89 4.726 9.044 0 6.12-1.734 8.908-4.726 8.908-2.958 0-4.726-2.822-4.726-8.908zm32.712-1.156c0-.17-.17-.34-.34-.34H93.1v-6.596c0-.17-.17-.34-.34-.34h-2.516c-.17 0-.34.17-.34.34v6.596h-5.882c-.17 0-.34.17-.34.34v2.55c0 .17.17.34.34.34h5.882v6.562c0 .17.17.34.34.34h2.516c.17 0 .34-.17.34-.34v-6.562h5.882c.17 0 .34-.17.34-.34v-2.55zm24.776 7.164c.032-.128-.096-.256-.224-.256h-.992c-.128 0-.256.128-.288.256-.256 3.104-2.272 4.928-5.344 4.928-3.84-.032-5.6-2.816-5.6-7.296s1.792-7.36 5.6-7.36c2.816 0 4.736 1.504 5.184 4.416.032.16.16.256.288.256h.96c.128 0 .256-.128.224-.256-.352-3.424-2.688-5.696-6.656-5.696-4.736 0-7.232 3.488-7.232 8.64 0 5.152 2.496 8.544 7.2 8.544 4.224 0 6.592-2.592 6.88-6.176zm16.171-2.4c0-5.152-2.592-8.608-7.36-8.608-4.736 0-7.36 3.456-7.36 8.608 0 5.152 2.624 8.576 7.36 8.576 4.768 0 7.36-3.456 7.36-8.576zm-13.088 0c0-4.48 1.92-7.328 5.728-7.36 3.808 0 5.728 2.912 5.728 7.36 0 4.48-1.888 7.328-5.728 7.328-3.808 0-5.728-2.848-5.728-7.328zM143.939 244a.275.275 0 00.256-.256l-.064-9.984c.608-3.52 2.944-5.056 5.312-5.056.48 0 .864.032 1.184.128.128.032.256-.064.256-.192v-.864a.345.345 0 00-.256-.32c-.32-.096-.704-.128-1.12-.128-2.24 0-4.32 1.248-5.408 3.488l.096-3.04a.275.275 0 00-.256-.256h-1.12a.275.275 0 00-.256.256l.096 7.712-.096 8.256c0 .128.128.256.256.256h1.12zm10.094 0a.275.275 0 00.256-.256l-.064-9.984c.608-3.52 2.944-5.056 5.312-5.056.48 0 .864.032 1.184.128.128.032.256-.064.256-.192v-.864a.345.345 0 00-.256-.32c-.32-.096-.704-.128-1.12-.128-2.24 0-4.32 1.248-5.408 3.488l.096-3.04a.275.275 0 00-.256-.256h-1.12a.275.275 0 00-.256.256l.096 7.712-.096 8.256c0 .128.128.256.256.256h1.12zm19.413-5.824c-.128 0-.288.096-.288.256-.544 2.912-2.24 4.672-5.216 4.672-3.904 0-5.856-2.72-5.856-7.36l12.448-.032a.275.275 0 00.256-.256c-.096-5.248-2.72-8.288-7.072-8.288-4.448 0-7.232 3.584-7.232 8.64 0 5.056 2.56 8.544 7.424 8.544 3.936 0 6.176-2.304 6.784-5.92 0-.128-.096-.256-.224-.256h-1.024zm-.352-3.744H162.15c.384-3.68 2.304-6.016 5.568-6.016 3.488 0 5.344 2.688 5.376 6.016zm16.482 5.056c0-6.848-11.36-2.976-11.36-7.84 0-2.176 1.76-3.264 4.48-3.264 2.656 0 4.768 1.088 4.928 3.744 0 .128.128.256.256.256h.96a.275.275 0 00.256-.256c-.16-3.424-2.912-4.928-6.368-4.928-3.52 0-6.048 1.536-6.048 4.512 0 6.4 11.36 2.528 11.36 7.872 0 2.272-2.016 3.552-4.832 3.552-3.392 0-5.248-1.504-5.344-4.736a.275.275 0 00-.256-.256h-1.024a.275.275 0 00-.256.256c.096 4.032 2.72 5.92 6.848 5.92 3.584 0 6.4-1.792 6.4-4.832zm3.678-3.904c.032-4.736 2.144-7.168 5.312-7.168 3.68 0 5.312 3.328 5.312 7.488 0 3.968-1.664 7.168-5.344 7.168-3.36 0-5.312-2.784-5.28-7.488zm12.224.128c0-4.8-2.304-8.544-6.592-8.544-2.592 0-4.512 1.408-5.568 3.68l.064-3.072a.275.275 0 00-.256-.256h-1.088a.275.275 0 00-.256.256l.096 8.64-.096 12.768c0 .128.128.256.256.256h1.152a.275.275 0 00.256-.256l-.096-8.352c1.056 2.272 2.944 3.488 5.504 3.488 4.256 0 6.624-3.872 6.624-8.608zm16.384.064c0-5.152-2.592-8.608-7.36-8.608-4.736 0-7.36 3.456-7.36 8.608 0 5.152 2.624 8.576 7.36 8.576 4.768 0 7.36-3.456 7.36-8.576zm-13.088 0c0-4.48 1.92-7.328 5.728-7.36 3.808 0 5.728 2.912 5.728 7.36 0 4.48-1.888 7.328-5.728 7.328-3.808 0-5.728-2.848-5.728-7.328zM225.565 244a.275.275 0 00.256-.256l-.032-6.816v-3.584c1.088-3.008 2.752-4.864 5.216-4.864 2.496 0 4.16 1.504 4.16 5.472v2.976l-.064 6.816c0 .128.128.256.256.256h1.12a.275.275 0 00.256-.256l-.032-6.816v-3.136c0-4.512-2.048-6.656-5.376-6.656-2.848 0-4.672 1.92-5.6 3.776l.064-3.136a.275.275 0 00-.256-.256h-1.088a.275.275 0 00-.256.256l.064 8.992-.064 6.976c0 .128.128.256.256.256h1.12zm14.926-8.384c0-4 1.664-7.232 5.376-7.232 3.328 0 5.28 2.848 5.248 7.552-.032 4.736-2.176 7.136-5.312 7.136-3.68 0-5.312-3.328-5.312-7.456zm11.84 8.384a.275.275 0 00.256-.256l-.064-13.152.064-8.736a.275.275 0 00-.256-.256h-1.12a.275.275 0 00-.256.256l.032 8.768c-1.056-2.24-2.944-3.456-5.472-3.456-4.256 0-6.592 3.872-6.592 8.608 0 4.8 2.272 8.544 6.592 8.544 2.624 0 4.512-1.376 5.536-3.648l-.064 3.072c0 .128.128.256.256.256h1.088zm15.521-5.824c-.128 0-.288.096-.288.256-.544 2.912-2.24 4.672-5.216 4.672-3.904 0-5.856-2.72-5.856-7.36l12.448-.032a.275.275 0 00.256-.256c-.096-5.248-2.72-8.288-7.072-8.288-4.448 0-7.232 3.584-7.232 8.64 0 5.056 2.56 8.544 7.424 8.544 3.936 0 6.176-2.304 6.784-5.92 0-.128-.096-.256-.224-.256h-1.024zm-.352-3.744h-10.944c.384-3.68 2.304-6.016 5.568-6.016 3.488 0 5.344 2.688 5.376 6.016zm5.409 9.568a.275.275 0 00.256-.256l-.032-6.816v-3.584c1.088-3.008 2.752-4.864 5.216-4.864 2.496 0 4.16 1.504 4.16 5.472v2.976l-.064 6.816c0 .128.128.256.256.256h1.12a.275.275 0 00.256-.256l-.032-6.816v-3.136c0-4.512-2.048-6.656-5.376-6.656-2.848 0-4.672 1.92-5.6 3.776l.064-3.136a.275.275 0 00-.256-.256h-1.088a.275.275 0 00-.256.256l.064 8.992-.064 6.976c0 .128.128.256.256.256h1.12zm20.911-1.088c0-.128-.128-.224-.256-.192a8.293 8.293 0 01-1.632.16c-1.6 0-2.272-.736-2.272-3.2v-10.848h3.904a.275.275 0 00.256-.256v-.8a.275.275 0 00-.256-.256h-3.904l.032-3.872a.275.275 0 00-.256-.256h-1.12a.275.275 0 00-.256.256l.064 3.872h-1.888a.275.275 0 00-.256.256v.8c0 .128.128.256.256.256h1.888l-.032 10.848c0 3.488 1.6 4.576 3.744 4.576.576 0 1.248-.128 1.728-.256a.312.312 0 00.256-.32v-.768zm-256.652 24.8c0-4.8-2.304-8.512-6.592-8.512-2.56 0-4.448 1.312-5.504 3.488l.032-8.832a.275.275 0 00-.256-.256h-1.12a.275.275 0 00-.256.256l.096 8.96-.096 12.896c0 .128.128.256.256.256h1.088a.275.275 0 00.256-.256l-.064-2.976c1.056 2.336 2.944 3.584 5.536 3.584 4.256 0 6.624-3.872 6.624-8.608zm-12.224-.16c.032-4.736 2.176-7.104 5.312-7.104 3.68 0 5.28 3.296 5.28 7.424 0 4.032-1.632 7.2-5.312 7.2-3.36 0-5.312-2.784-5.28-7.52zm16.705.064c0-4 1.664-7.168 5.376-7.168 3.328 0 5.28 2.784 5.248 7.488-.032 4.704-2.112 7.104-5.312 7.104-3.68 0-5.312-3.296-5.312-7.424zM53.489 276a.275.275 0 00.256-.256l-.096-8.288.096-7.68a.275.275 0 00-.256-.256H52.4a.275.275 0 00-.256.256l.064 2.976c-1.056-2.304-2.944-3.552-5.536-3.552-4.256 0-6.592 3.84-6.592 8.576 0 4.8 2.272 8.512 6.592 8.512 2.624 0 4.512-1.376 5.536-3.648l-.064 3.104c0 .128.128.256.256.256h1.088zm5.889 0a.275.275 0 00.255-.256l-.032-6.816v-3.584c1.089-3.008 2.752-4.864 5.216-4.864 2.497 0 4.16 1.504 4.16 5.472v2.976l-.064 6.816c0 .128.129.256.257.256h1.12a.275.275 0 00.255-.256l-.032-6.816v-3.136c0-4.512-2.047-6.656-5.376-6.656-2.848 0-4.672 1.92-5.6 3.776l.065-3.136a.275.275 0 00-.256-.256h-1.088a.275.275 0 00-.257.256l.065 8.992-.065 6.976c0 .128.129.256.257.256h1.12zm24.846-.224a.444.444 0 00.384.224h1.344c.128 0 .192-.128.128-.224l-6.304-10.272 5.664-5.792c.096-.064.032-.192-.064-.192h-1.408c-.16 0-.32.064-.448.192l-7.296 7.584v-2.368l.064-11.072a.275.275 0 00-.256-.256h-1.12a.275.275 0 00-.256.256l.096 11.104-.096 10.816c0 .128.128.256.256.256h1.12a.275.275 0 00.256-.256l-.032-6.688 2.368-2.432 4.544 7.328 1.056 1.792zm16.662-4.288c0-6.848-11.36-2.976-11.36-7.84 0-2.176 1.76-3.264 4.48-3.264 2.656 0 4.768 1.088 4.928 3.744 0 .128.128.256.256.256h.96a.275.275 0 00.256-.256c-.16-3.424-2.912-4.928-6.368-4.928-3.52 0-6.048 1.536-6.048 4.512 0 6.4 11.36 2.528 11.36 7.872 0 2.272-2.016 3.552-4.832 3.552-3.392 0-5.248-1.504-5.344-4.736a.275.275 0 00-.256-.256h-1.024a.275.275 0 00-.256.256c.096 4.032 2.72 5.92 6.848 5.92 3.584 0 6.4-1.792 6.4-4.832zM31.622 188c.17 0 .34-.17.34-.34l-.136-11.05.136-12.07c0-.17-.17-.34-.34-.34H28.29a.56.56 0 00-.51.306c-1.054 1.666-2.754 2.992-4.862 3.808a.484.484 0 00-.306.442v2.686c0 .17.17.306.34.238 1.836-.578 3.468-1.428 4.76-2.652l.068 8.228-.102 10.404c0 .17.17.34.34.34h3.604zm21.882-8.772c0-.17-.17-.34-.34-.34H50.92V164.54c0-.17-.17-.34-.34-.34h-4.93a.71.71 0 00-.544.272l-9.01 13.736c-.136.17-.204.408-.204.612v2.992c0 .17.17.34.34.34h10.506v5.508c0 .17.17.34.34.34h3.502c.17 0 .34-.17.34-.34v-5.508h2.244c.17 0 .34-.17.34-.34v-2.584zm-6.766-.34h-7.344l7.48-11.594-.136 4.556v7.038zm27.465-2.72c0-8.228-3.57-12.444-9.01-12.444-5.474 0-9.01 4.284-9.01 12.41 0 7.888 3.57 12.342 9.01 12.342 5.44 0 9.01-4.42 9.01-12.308zm-13.736 0c0-6.222 1.666-9.044 4.725-9.044 2.993 0 4.727 2.89 4.727 9.044 0 6.12-1.734 8.908-4.727 8.908-2.957 0-4.725-2.822-4.725-8.908zm32.712-1.156c0-.17-.17-.34-.34-.34h-5.882v-6.596c0-.17-.17-.34-.34-.34H84.1c-.17 0-.34.17-.34.34v6.596h-5.882c-.17 0-.34.17-.34.34v2.55c0 .17.17.34.34.34h5.882v6.562c0 .17.17.34.34.34h2.516c.17 0 .34-.17.34-.34v-6.562h5.882c.17 0 .34-.17.34-.34v-2.55zm26.039 6.8c.034-.136-.102-.272-.238-.272h-1.054c-.136 0-.272.136-.306.272-.272 3.298-2.414 5.236-5.678 5.236-4.08-.034-5.95-2.992-5.95-7.752s1.904-7.82 5.95-7.82c2.992 0 5.032 1.598 5.508 4.692.034.17.17.272.306.272h1.02c.136 0 .272-.136.238-.272-.374-3.638-2.856-6.052-7.072-6.052-5.032 0-7.684 3.706-7.684 9.18s2.652 9.078 7.65 9.078c4.488 0 7.004-2.754 7.31-6.562zm15.142 2.584l-.068 3.332c0 .136.136.272.272.272h1.156a.293.293 0 00.272-.272l-.068-9.554.068-7.412a.293.293 0 00-.272-.272h-1.19a.293.293 0 00-.272.272l.034 7.242v3.808c-1.156 3.196-2.924 5.168-5.542 5.168-2.652 0-4.42-1.598-4.42-5.814v-3.162l.068-7.242a.293.293 0 00-.272-.272h-1.19a.293.293 0 00-.272.272l.034 7.242v3.332c0 4.794 2.176 7.072 5.712 7.072 3.026 0 4.964-2.04 5.95-4.012zm7.631 3.604a.293.293 0 00.272-.272l-.068-10.608c.646-3.74 3.128-5.372 5.644-5.372.51 0 .918.034 1.258.136.136.034.272-.068.272-.204v-.918a.366.366 0 00-.272-.34c-.34-.102-.748-.136-1.19-.136-2.38 0-4.59 1.326-5.746 3.706l.102-3.23a.293.293 0 00-.272-.272h-1.19a.293.293 0 00-.272.272l.102 8.194-.102 8.772c0 .136.136.272.272.272h1.19zm12.085 0a.293.293 0 00.272-.272l-.068-10.608c.646-3.74 3.128-5.372 5.644-5.372.51 0 .918.034 1.258.136.136.034.272-.068.272-.204v-.918a.366.366 0 00-.272-.34c-.34-.102-.748-.136-1.19-.136-2.38 0-4.59 1.326-5.746 3.706l.102-3.23a.293.293 0 00-.272-.272h-1.19a.293.293 0 00-.272.272l.102 8.194-.102 8.772c0 .136.136.272.272.272h1.19zm21.986-6.188c-.136 0-.306.102-.306.272-.578 3.094-2.38 4.964-5.542 4.964-4.148 0-6.222-2.89-6.222-7.82l13.226-.034a.293.293 0 00.272-.272c-.102-5.576-2.89-8.806-7.514-8.806-4.726 0-7.684 3.808-7.684 9.18s2.72 9.078 7.888 9.078c4.182 0 6.562-2.448 7.208-6.29 0-.136-.102-.272-.238-.272h-1.088zm-.374-3.978H164.06c.408-3.91 2.448-6.392 5.916-6.392 3.706 0 5.678 2.856 5.712 6.392zM182.795 188a.293.293 0 00.272-.272l-.034-7.242v-3.808c1.156-3.196 2.924-5.168 5.542-5.168 2.652 0 4.42 1.598 4.42 5.814v3.162l-.068 7.242c0 .136.136.272.272.272h1.19a.293.293 0 00.272-.272l-.034-7.242v-3.332c0-4.794-2.176-7.072-5.712-7.072-3.026 0-4.964 2.04-5.95 4.012l.068-3.332a.293.293 0 00-.272-.272h-1.156a.293.293 0 00-.272.272l.068 9.554-.068 7.412c0 .136.136.272.272.272h1.19zm30.513-6.188c.034-.136-.102-.272-.238-.272h-1.054c-.136 0-.272.136-.306.272-.272 3.298-2.414 5.236-5.678 5.236-4.08-.034-5.95-2.992-5.95-7.752s1.904-7.82 5.95-7.82c2.992 0 5.032 1.598 5.508 4.692.034.17.17.272.306.272h1.02c.136 0 .272-.136.238-.272-.374-3.638-2.856-6.052-7.072-6.052-5.032 0-7.684 3.706-7.684 9.18s2.652 9.078 7.65 9.078c4.488 0 7.004-2.754 7.31-6.562zm5.214-13.6a.293.293 0 00.272-.272v-1.836a.293.293 0 00-.272-.272h-1.19a.293.293 0 00-.272.272v1.836c0 .136.136.272.272.272h1.19zm0 19.788a.293.293 0 00.272-.272l-.034-9.01.034-7.956a.293.293 0 00-.272-.272h-1.19a.293.293 0 00-.272.272l.068 7.99-.068 8.976c0 .136.136.272.272.272h1.19zm18.064-6.188c-.136 0-.306.102-.306.272-.578 3.094-2.38 4.964-5.542 4.964-4.148 0-6.222-2.89-6.222-7.82l13.226-.034a.293.293 0 00.272-.272c-.102-5.576-2.89-8.806-7.514-8.806-4.726 0-7.684 3.808-7.684 9.18s2.72 9.078 7.888 9.078c4.182 0 6.562-2.448 7.208-6.29 0-.136-.102-.272-.238-.272h-1.088zm-.374-3.978h-11.628c.408-3.91 2.448-6.392 5.916-6.392 3.706 0 5.678 2.856 5.712 6.392zm18.872 5.372c0-7.276-12.07-3.162-12.07-8.33 0-2.312 1.87-3.468 4.76-3.468 2.822 0 5.066 1.156 5.236 3.978 0 .136.136.272.272.272h1.02a.293.293 0 00.272-.272c-.17-3.638-3.094-5.236-6.766-5.236-3.74 0-6.426 1.632-6.426 4.794 0 6.8 12.07 2.686 12.07 8.364 0 2.414-2.142 3.774-5.134 3.774-3.604 0-5.576-1.598-5.678-5.032a.293.293 0 00-.272-.272h-1.088a.293.293 0 00-.272.272c.102 4.284 2.89 6.29 7.276 6.29 3.808 0 6.8-1.904 6.8-5.134zM31.622 125c.17 0 .34-.17.34-.34l-.136-11.05.136-12.07c0-.17-.17-.34-.34-.34H28.29a.56.56 0 00-.51.306c-1.054 1.666-2.754 2.992-4.862 3.808a.484.484 0 00-.306.442v2.686c0 .17.17.306.34.238 1.836-.578 3.468-1.428 4.76-2.652l.068 8.228-.102 10.404c0 .17.17.34.34.34h3.604zm21.95-6.698c0-2.788-1.632-4.964-4.658-5.916 2.55-1.054 3.944-2.958 3.91-5.236-.068-4.08-2.992-6.392-7.99-6.392-4.964 0-7.922 2.312-7.956 6.392-.034 2.346 1.326 4.25 3.842 5.236-2.992.952-4.59 3.128-4.59 5.916 0 4.488 3.774 7.106 8.704 7.106 4.964 0 8.738-2.618 8.738-7.106zM40.89 107.524c.034-2.38 1.564-3.842 3.944-3.842s3.944 1.462 3.944 3.842c0 2.074-1.496 3.672-3.944 3.672-2.414 0-3.944-1.53-3.944-3.672zm-.68 10.642c0-2.584 1.768-4.216 4.624-4.25 2.856.034 4.624 1.666 4.624 4.25.034 2.482-1.836 4.318-4.624 4.318-2.754 0-4.658-1.836-4.624-4.318zm34.358-4.998c0-8.228-3.57-12.444-9.01-12.444-5.474 0-9.01 4.284-9.01 12.41 0 7.888 3.57 12.342 9.01 12.342 5.44 0 9.01-4.42 9.01-12.308zm-13.736 0c0-6.222 1.666-9.044 4.726-9.044 2.992 0 4.726 2.89 4.726 9.044 0 6.12-1.734 8.908-4.726 8.908-2.958 0-4.726-2.822-4.726-8.908zm32.712-1.156c0-.17-.17-.34-.34-.34h-5.882v-6.596c0-.17-.17-.34-.34-.34h-2.516c-.17 0-.34.17-.34.34v6.596h-5.882c-.17 0-.34.17-.34.34v2.55c0 .17.17.34.34.34h5.882v6.562c0 .17.17.34.34.34h2.516c.17 0 .34-.17.34-.34v-6.562h5.882c.17 0 .34-.17.34-.34v-2.55zm26.039 6.8c.034-.136-.102-.272-.238-.272h-1.054c-.136 0-.272.136-.306.272-.272 3.298-2.414 5.236-5.678 5.236-4.08-.034-5.95-2.992-5.95-7.752s1.904-7.82 5.95-7.82c2.992 0 5.032 1.598 5.508 4.692.034.17.17.272.306.272h1.02c.136 0 .272-.136.238-.272-.374-3.638-2.856-6.052-7.072-6.052-5.032 0-7.684 3.706-7.684 9.18s2.652 9.078 7.65 9.078c4.488 0 7.004-2.754 7.31-6.562zm18.542-2.55c0-5.474-2.754-9.146-7.82-9.146-5.032 0-7.82 3.672-7.82 9.146s2.788 9.112 7.82 9.112c5.066 0 7.82-3.672 7.82-9.112zm-13.906 0c0-4.76 2.04-7.786 6.086-7.82 4.046 0 6.086 3.094 6.086 7.82 0 4.76-2.006 7.786-6.086 7.786-4.046 0-6.086-3.026-6.086-7.786zm29.265 5.134l-.068 3.332c0 .136.136.272.272.272h1.156a.293.293 0 00.272-.272l-.068-9.554.068-7.412a.293.293 0 00-.272-.272h-1.19a.293.293 0 00-.272.272l.034 7.242v3.808c-1.156 3.196-2.924 5.168-5.542 5.168-2.652 0-4.42-1.598-4.42-5.814v-3.162l.068-7.242a.293.293 0 00-.272-.272h-1.19a.293.293 0 00-.272.272l.034 7.242v3.332c0 4.794 2.176 7.072 5.712 7.072 3.026 0 4.964-2.04 5.95-4.012zm7.665 3.604a.293.293 0 00.272-.272l-.034-7.242v-3.808c1.156-3.196 2.924-5.168 5.542-5.168 2.652 0 4.42 1.598 4.42 5.814v3.162l-.068 7.242c0 .136.136.272.272.272h1.19a.293.293 0 00.272-.272l-.034-7.242v-3.332c0-4.794-2.176-7.072-5.712-7.072-3.026 0-4.964 2.04-5.95 4.012l.068-3.332a.293.293 0 00-.272-.272h-1.156a.293.293 0 00-.272.272l.068 9.554-.068 7.412c0 .136.136.272.272.272h1.19zm23.579-1.156c0-.136-.136-.238-.272-.204a8.812 8.812 0 01-1.734.17c-1.7 0-2.414-.782-2.414-3.4v-11.526h4.148a.293.293 0 00.272-.272v-.85a.293.293 0 00-.272-.272h-4.148l.034-4.114a.293.293 0 00-.272-.272h-1.19a.293.293 0 00-.272.272l.068 4.114h-2.006a.293.293 0 00-.272.272v.85c0 .136.136.272.272.272h2.006l-.034 11.526c0 3.706 1.7 4.862 3.978 4.862.612 0 1.326-.136 1.836-.272a.331.331 0 00.272-.34v-.816zm4.906 1.156a.293.293 0 00.272-.272l-.068-10.608c.646-3.74 3.128-5.372 5.644-5.372.51 0 .918.034 1.258.136.136.034.272-.068.272-.204v-.918a.366.366 0 00-.272-.34c-.34-.102-.748-.136-1.19-.136-2.38 0-4.59 1.326-5.746 3.706l.102-3.23a.293.293 0 00-.272-.272h-1.19a.293.293 0 00-.272.272l.102 8.194-.102 8.772c0 .136.136.272.272.272h1.19zm12.254-19.788a.293.293 0 00.272-.272v-1.836a.293.293 0 00-.272-.272h-1.19a.293.293 0 00-.272.272v1.836c0 .136.136.272.272.272h1.19zm0 19.788a.293.293 0 00.272-.272l-.034-9.01.034-7.956a.293.293 0 00-.272-.272h-1.19a.293.293 0 00-.272.272l.068 7.99-.068 8.976c0 .136.136.272.272.272h1.19zm18.065-6.188c-.136 0-.306.102-.306.272-.578 3.094-2.38 4.964-5.542 4.964-4.148 0-6.222-2.89-6.222-7.82l13.226-.034a.293.293 0 00.272-.272c-.102-5.576-2.89-8.806-7.514-8.806-4.726 0-7.684 3.808-7.684 9.18s2.72 9.078 7.888 9.078c4.182 0 6.562-2.448 7.208-6.29 0-.136-.102-.272-.238-.272h-1.088zm-.374-3.978h-11.628c.408-3.91 2.448-6.392 5.916-6.392 3.706 0 5.678 2.856 5.712 6.392zm18.872 5.372c0-7.276-12.07-3.162-12.07-8.33 0-2.312 1.87-3.468 4.76-3.468 2.822 0 5.066 1.156 5.236 3.978 0 .136.136.272.272.272h1.02a.293.293 0 00.272-.272c-.17-3.638-3.094-5.236-6.766-5.236-3.74 0-6.426 1.632-6.426 4.794 0 6.8 12.07 2.686 12.07 8.364 0 2.414-2.142 3.774-5.134 3.774-3.604 0-5.576-1.598-5.678-5.032a.293.293 0 00-.272-.272h-1.088a.293.293 0 00-.272.272c.102 4.284 2.89 6.29 7.276 6.29 3.808 0 6.8-1.904 6.8-5.134z" fill="#fff"/></svg>