<svg width="179" height="12" viewBox="0 0 179 12" fill="none" xmlns="http://www.w3.org/2000/svg"><path d="M.24 2.324h2.592V9.5h1.38V2.324h2.592V1.1H.24v1.224zm8.029.168c.444 0 .792-.324.792-.78s-.348-.78-.792-.78c-.444 0-.792.324-.792.78s.348.78.792.78zM7.609 9.5h1.296V3.356H7.609V9.5zm7.258-5.184c-.396-.612-1.056-1.032-2.016-1.032-1.668 0-2.904 1.236-2.904 3.12 0 1.956 1.236 3.12 2.904 3.12.96 0 1.596-.396 2.004-1.008V9.2c0 1.176-.636 1.716-1.764 1.716-.912 0-1.512-.396-1.668-1.08h-1.32c.12 1.38 1.26 2.136 2.892 2.136 2.208 0 3.144-1.056 3.144-2.724V3.356h-1.128l-.144.96zm-1.8 4.116c-1.08 0-1.788-.828-1.788-2.028 0-1.188.708-2.028 1.788-2.028s1.788.84 1.788 2.052c0 1.176-.708 2.004-1.788 2.004zm7.567-5.148c-.96 0-1.549.432-1.933.96V1.1h-1.296v8.4h1.296V6.392c0-1.236.625-1.992 1.645-1.992.96 0 1.476.624 1.476 1.788V9.5h1.296V6.08c0-2.052-1.116-2.796-2.484-2.796zm4.106 4.548c0 1.116.504 1.668 1.68 1.668h1.2V8.36h-.912c-.492 0-.66-.18-.66-.66V4.496h1.5v-1.14h-1.5V1.64H24.74v1.716h-1.068v1.14h1.068v3.336zm6.51-.36c.037 1.332 1.165 2.1 2.809 2.1 1.488 0 2.604-.744 2.604-1.92 0-1.368-1.14-1.656-2.544-1.824-.888-.096-1.476-.168-1.476-.744 0-.492.504-.804 1.272-.804s1.296.396 1.368.96h1.272c-.084-1.26-1.152-1.956-2.664-1.956-1.476-.012-2.52.744-2.52 1.908 0 1.272 1.104 1.572 2.508 1.74.948.12 1.512.168 1.512.828 0 .492-.528.804-1.332.804-.936 0-1.488-.456-1.536-1.092H31.25zm9.705-4.188c-.96 0-1.596.444-2.004.984l-.156-.912h-1.128V11.9h1.296V8.636c.384.552 1.044.936 1.992.936 1.68 0 2.904-1.248 2.904-3.144 0-1.968-1.224-3.144-2.904-3.144zM40.74 8.48c-1.08 0-1.788-.852-1.788-2.076 0-1.188.708-2.016 1.788-2.016s1.8.828 1.8 2.04c0 1.2-.72 2.052-1.8 2.052zm7.267-5.124c-1.008 0-1.5.408-1.812.924l-.144-.924h-1.152V9.5h1.296V6.416c0-.948.372-1.848 1.524-1.848h.576V3.356h-.288zm3.71 6.216c1.524 0 2.556-.924 2.772-2.136h-1.296c-.18.684-.756 1.08-1.548 1.08-1.02 0-1.68-.684-1.716-1.728v-.084h4.632a3.52 3.52 0 00.036-.492c-.036-1.8-1.224-2.928-3-2.928-1.812 0-3.024 1.26-3.024 3.156 0 1.884 1.212 3.132 3.144 3.132zm-1.74-3.816c.096-.876.804-1.428 1.632-1.428.9 0 1.536.516 1.644 1.428h-3.276zM61.26 8.372c-.264 0-.396-.084-.396-.396v-2.46c0-1.452-.936-2.232-2.568-2.232-1.548 0-2.58.744-2.712 1.944h1.272c.096-.54.612-.9 1.38-.9.852 0 1.344.42 1.344 1.104v.372h-1.548c-1.716 0-2.628.708-2.628 1.968 0 1.14.936 1.8 2.28 1.8.996 0 1.62-.432 2.028-1.056 0 .612.288.984 1.128.984h.684V8.372h-.264zM59.58 6.98c-.012.948-.636 1.584-1.716 1.584-.708 0-1.14-.36-1.14-.876 0-.624.444-.924 1.248-.924h1.608v.216zm7.27-2.772c-.395-.54-1.055-.924-1.991-.924-1.668 0-2.904 1.248-2.904 3.144 0 1.968 1.236 3.144 2.904 3.144.972 0 1.608-.456 2.004-.996l.156.924h1.128V1.1H66.85v3.108zM65.076 8.48c-1.08 0-1.788-.84-1.788-2.052 0-1.2.708-2.04 1.788-2.04s1.788.84 1.788 2.064c0 1.188-.708 2.028-1.788 2.028zm4.074-1.008c.036 1.332 1.164 2.1 2.808 2.1 1.488 0 2.604-.744 2.604-1.92 0-1.368-1.14-1.656-2.544-1.824-.888-.096-1.476-.168-1.476-.744 0-.492.504-.804 1.272-.804s1.296.396 1.368.96h1.272c-.084-1.26-1.152-1.956-2.664-1.956-1.476-.012-2.52.744-2.52 1.908 0 1.272 1.104 1.572 2.508 1.74.948.12 1.512.168 1.512.828 0 .492-.528.804-1.332.804-.936 0-1.488-.456-1.536-1.092H69.15zm12.391 2.1c1.872 0 3.132-1.26 3.132-3.144 0-1.872-1.26-3.144-3.132-3.144s-3.132 1.272-3.132 3.144c0 1.884 1.26 3.144 3.132 3.144zm0-1.104c-1.092 0-1.8-.852-1.8-2.04 0-1.188.708-2.04 1.8-2.04s1.812.852 1.812 2.04c0 1.188-.72 2.04-1.812 2.04zm7.414-5.184c-.996 0-1.584.396-1.968.876l-.144-.804h-1.128V9.5h1.296V6.404c0-1.248.612-2.004 1.644-2.004.972 0 1.464.624 1.464 1.788V9.5h1.308V6.08c0-2.052-1.116-2.796-2.472-2.796zm11.125 1.848a1.892 1.892 0 001.452-1.872c0-1.308-1.128-2.232-2.928-2.232-1.788 0-2.916.924-2.916 2.232 0 1.02.672 1.692 1.44 1.884-.9.204-1.668.9-1.668 2.064 0 1.392 1.164 2.364 3.144 2.364 1.98 0 3.156-.972 3.156-2.364 0-1.188-.78-1.884-1.68-2.076zM98.603 2.06c.96 0 1.584.504 1.584 1.236 0 .744-.624 1.248-1.584 1.248-.948 0-1.572-.504-1.572-1.248 0-.732.624-1.236 1.572-1.236zm0 6.492c-1.056 0-1.788-.6-1.788-1.416s.732-1.404 1.788-1.404c1.068 0 1.8.588 1.8 1.404s-.732 1.416-1.8 1.416zm4.041-3.06c0 2.532 1.356 4.08 3.312 4.08 1.956 0 3.312-1.548 3.312-4.08v-.384c0-2.436-1.356-4.08-3.312-4.08-1.956 0-3.312 1.644-3.312 4.08v.384zm5.28-.048c0 1.884-.792 2.964-1.968 2.964s-1.968-1.08-1.968-2.964v-.288c0-1.872.792-2.964 1.968-2.964s1.968 1.092 1.968 2.964v.288zm4.33.084h-1.908V6.62h1.908v2.028h1.188V6.62h1.92V5.528h-1.92V3.5h-1.188v2.028zm7.553 3.972h1.38V5.948h3.288V4.76h-3.288V2.324h3.984V1.1h-5.364v8.4zm8.749.072c1.872 0 3.132-1.26 3.132-3.144 0-1.872-1.26-3.144-3.132-3.144s-3.132 1.272-3.132 3.144c0 1.884 1.26 3.144 3.132 3.144zm0-1.104c-1.092 0-1.8-.852-1.8-2.04 0-1.188.708-2.04 1.8-2.04s1.812.852 1.812 2.04c0 1.188-.72 2.04-1.812 2.04zm7.282-5.112c-1.008 0-1.5.408-1.812.924l-.144-.924h-1.152V9.5h1.296V6.416c0-.948.372-1.848 1.524-1.848h.576V3.356h-.288zm3.71 6.216c1.524 0 2.556-.924 2.772-2.136h-1.296c-.18.684-.756 1.08-1.548 1.08-1.02 0-1.68-.684-1.716-1.728v-.084h4.632a3.52 3.52 0 00.036-.492c-.036-1.8-1.224-2.928-3-2.928-1.812 0-3.024 1.26-3.024 3.156 0 1.884 1.212 3.132 3.144 3.132zm-1.74-3.816c.096-.876.804-1.428 1.632-1.428.9 0 1.536.516 1.644 1.428h-3.276zm4.751 3.744h1.428l1.62-2.232 1.608 2.232h1.512l-2.316-3.144 2.184-3h-1.428l-1.5 2.076-1.464-2.076h-1.512l2.172 3-2.304 3.144zm13.158-6.216c-.96 0-1.596.444-2.004.984l-.156-.912h-1.128V11.9h1.296V8.636c.384.552 1.044.936 1.992.936 1.68 0 2.904-1.248 2.904-3.144 0-1.968-1.224-3.144-2.904-3.144zm-.216 5.196c-1.08 0-1.788-.852-1.788-2.076 0-1.188.708-2.016 1.788-2.016s1.8.828 1.8 2.04c0 1.2-.72 2.052-1.8 2.052zm9.774-.108c-.264 0-.396-.084-.396-.396v-2.46c0-1.452-.936-2.232-2.568-2.232-1.548 0-2.58.744-2.712 1.944h1.272c.096-.54.612-.9 1.38-.9.852 0 1.344.42 1.344 1.104v.372h-1.548c-1.716 0-2.628.708-2.628 1.968 0 1.14.936 1.8 2.28 1.8.996 0 1.62-.432 2.028-1.056 0 .612.288.984 1.128.984h.684V8.372h-.264zm-1.68-1.392c-.012.948-.636 1.584-1.716 1.584-.708 0-1.14-.36-1.14-.876 0-.624.444-.924 1.248-.924h1.608v.216zm3.31-4.488c.444 0 .792-.324.792-.78s-.348-.78-.792-.78c-.444 0-.792.324-.792.78s.348.78.792.78zm-.66 7.008h1.296V3.356h-1.296V9.5zm5.675-6.144c-1.008 0-1.5.408-1.812.924l-.144-.924h-1.152V9.5h1.296V6.416c0-.948.372-1.848 1.524-1.848h.576V3.356h-.288zm.718 4.116c.036 1.332 1.164 2.1 2.808 2.1 1.488 0 2.604-.744 2.604-1.92 0-1.368-1.14-1.656-2.544-1.824-.888-.096-1.476-.168-1.476-.744 0-.492.504-.804 1.272-.804s1.296.396 1.368.96h1.272c-.084-1.26-1.152-1.956-2.664-1.956-1.476-.012-2.52.744-2.52 1.908 0 1.272 1.104 1.572 2.508 1.74.948.12 1.512.168 1.512.828 0 .492-.528.804-1.332.804-.936 0-1.488-.456-1.536-1.092h-1.272z" fill="#000"/></svg>