<svg width="206" height="113" viewBox="0 0 206 113" fill="none" xmlns="http://www.w3.org/2000/svg"><path d="M15.368 23c.16 0 .288-.128.288-.288v-1.824a.287.287 0 00-.288-.288H5.48l-.096-9.472L5.48.888A.287.287 0 005.192.6H2.728a.287.287 0 00-.288.288l.128 10.4-.128 11.424c0 .16.128.288.288.288h12.64zm17.17-8.256c0-5.184-2.784-8.608-7.808-8.608-4.992 0-7.808 3.456-7.808 8.672 0 5.184 2.816 8.576 7.808 8.576 5.024 0 7.808-3.456 7.808-8.64zm-12.64.064c0-4.128 1.568-6.496 4.832-6.528 3.2 0 4.8 2.4 4.8 6.528s-1.568 6.432-4.8 6.432c-3.232 0-4.832-2.304-4.832-6.432zm30.983-.064c0-5.184-2.784-8.608-7.808-8.608-4.992 0-7.808 3.456-7.808 8.672 0 5.184 2.816 8.576 7.808 8.576 5.024 0 7.808-3.456 7.808-8.64zm-12.64.064c0-4.128 1.568-6.496 4.832-6.528 3.2 0 4.8 2.4 4.8 6.528s-1.568 6.432-4.8 6.432c-3.232 0-4.832-2.304-4.832-6.432zm25.638 7.936c.064.16.256.256.416.256h2.784c.128 0 .192-.128.128-.256l-6.08-10.24 5.408-5.76c.064-.096.032-.224-.096-.224h-2.752c-.16 0-.352.096-.48.224l-6.24 6.88v-1.792L57.063.888A.287.287 0 0056.775.6h-2.368a.287.287 0 00-.288.288l.128 11.008-.128 10.816c0 .16.128.288.288.288h2.368c.16 0 .288-.128.288-.288L57 16.92l2.048-2.304 3.52 5.728 1.312 2.4zm8.837-18.112c.16 0 .288-.128.288-.288V1.72a.287.287 0 00-.288-.288h-2.4a.287.287 0 00-.288.288v2.624c0 .16.128.288.288.288h2.4zm0 18.368c.16 0 .288-.128.288-.288l-.064-8.224.064-7.68a.287.287 0 00-.288-.288h-2.4a.287.287 0 00-.288.288l.064 7.712-.064 8.192c0 .16.128.288.288.288h2.4zm6.933 0c.16 0 .288-.128.288-.288l-.032-6.752v-2.496c.64-3.264 2.368-4.992 4.544-4.992 2.048 0 3.488 1.344 3.488 4.32v3.168l-.064 6.752c0 .16.128.288.288.288h2.368c.16 0 .288-.128.288-.288l-.064-6.752v-3.296c0-4.288-2.112-6.528-5.504-6.528-2.624 0-4.48 1.504-5.504 3.168l.096-2.496a.287.287 0 00-.288-.288h-2.272a.287.287 0 00-.288.288l.064 8.672-.096 7.232c0 .16.128.288.288.288h2.4zm17.21-8.384c0-3.712 1.472-6.144 4.384-6.272h.672c2.688.224 4.192 2.592 4.16 6.496-.032 4.064-1.792 5.984-4.48 5.984-3.136.032-4.736-2.24-4.736-6.208zm11.936 7.264l-.032-8.768.064-6.304a.287.287 0 00-.288-.288h-2.336a.287.287 0 00-.288.288l.096 2.272c-1.088-1.824-2.848-2.816-5.152-2.816-4.448 0-6.944 3.776-6.944 8.448 0 4.704 2.432 8.192 7.04 8.192 2.304 0 4.064-1.056 5.12-2.88v1.824c0 3.712-1.792 5.312-4.544 5.312-2.304 0-3.936-.928-4.256-2.976-.032-.16-.16-.288-.32-.288h-2.304c-.16 0-.288.128-.256.288.288 3.552 3.296 5.152 7.072 5.088 4.704 0 7.36-2.656 7.328-7.392zm18.888-.896c0-.128-.128-.256-.288-.192a8.271 8.271 0 01-1.696.192c-1.408 0-2.08-.608-2.08-2.592v-9.6h3.776c.16 0 .288-.128.288-.288V6.808a.287.287 0 00-.288-.288h-3.776l.032-3.84a.287.287 0 00-.288-.288h-2.368a.287.287 0 00-.288.288l.032 3.84h-1.824a.287.287 0 00-.288.288v1.696c0 .16.128.288.288.288h1.824v9.664c0 3.584 2.016 4.832 4.416 4.832.768 0 1.6-.192 2.24-.384.16-.064.288-.224.288-.384v-1.536zm17.345-6.24c0-5.184-2.784-8.608-7.808-8.608-4.992 0-7.808 3.456-7.808 8.672 0 5.184 2.816 8.576 7.808 8.576 5.024 0 7.808-3.456 7.808-8.64zm-12.64.064c0-4.128 1.568-6.496 4.832-6.528 3.2 0 4.8 2.4 4.8 6.528s-1.568 6.432-4.8 6.432c-3.232 0-4.832-2.304-4.832-6.432zM6.472 56.584c0-3.424 1.248-5.28 3.68-5.216 2.304.032 3.552 1.984 3.52 5.536-.032 3.488-1.28 5.248-3.616 5.248-2.304.032-3.584-1.856-3.584-5.568zM17.992 65c.192 0 .352-.16.352-.352L18.248 53.8l.096-10.848a.355.355 0 00-.352-.352h-4.16a.355.355 0 00-.352.352l.064 7.296c-1.12-1.344-2.72-2.048-4.736-2.048-4.48 0-7.232 3.84-7.232 8.608 0 4.8 2.464 8.512 7.136 8.512 2.08 0 3.712-.832 4.864-2.24l-.064 1.568c-.032.192.128.352.32.352h4.16zm15.305-5.568a.412.412 0 00-.416.352c-.448 1.728-1.6 2.432-3.2 2.432-2.304 0-3.52-1.376-3.712-4.48h11.712c.192 0 .352-.16.352-.352-.128-5.728-3.104-9.28-8.512-9.28-5.248 0-8.384 3.456-8.384 8.704 0 4.992 2.976 8.608 8.48 8.608 4.576 0 7.456-2.624 7.904-5.632.032-.192-.128-.352-.32-.352h-3.904zm-.448-4.736h-6.752c.384-2.272 1.536-3.424 3.456-3.424 2.112 0 3.104 1.664 3.296 3.424zm23.602 4.32c.032-.192-.128-.352-.32-.352h-3.84c-.192 0-.352.16-.384.352-.224 2.112-1.44 3.232-3.04 3.2-2.4-.032-3.584-1.664-3.584-5.44 0-3.648 1.152-5.408 3.584-5.44 1.344 0 2.528.896 2.88 2.688a.412.412 0 00.416.352h3.744c.192 0 .352-.16.32-.352-.416-3.552-3.136-5.92-7.36-5.92-5.376 0-8.512 3.456-8.512 8.704 0 5.248 3.136 8.608 8.416 8.608 4.288 0 7.296-2.688 7.68-6.4zm7.205-2.464c0-3.392 1.248-5.216 3.68-5.152 2.272.032 3.552 1.952 3.52 5.472-.064 3.488-1.28 5.248-3.616 5.248-2.304.032-3.584-1.856-3.584-5.568zM75.176 65c.192 0 .352-.16.352-.352l-.128-7.872.128-7.904a.355.355 0 00-.352-.352h-4.16c-.192 0-.352.16-.32.352l.064 1.44c-1.12-1.376-2.72-2.112-4.768-2.112-4.48 0-7.232 3.84-7.232 8.608 0 4.8 2.464 8.512 7.136 8.512 2.08 0 3.712-.832 4.864-2.24l-.064 1.568c0 .192.16.352.352.352h4.128zm7.977 0c.192 0 .352-.16.352-.352l-.032-6.976c0-3.776 2.496-5.664 5.888-5.664.16 0 .384 0 .544.032.192 0 .352-.128.352-.32v-2.848a.443.443 0 00-.352-.416 4.774 4.774 0 00-.672-.064c-2.4 0-4.608.96-5.888 2.912l.096-2.432c.032-.192-.128-.352-.32-.352h-4.096a.355.355 0 00-.352.352l.128 7.872-.128 7.904c0 .192.16.352.352.352h4.128zm26.287-8.288c0-4.8-2.464-8.512-7.136-8.512-2.048 0-3.68.8-4.832 2.176l.064-7.424a.355.355 0 00-.352-.352h-4.16a.355.355 0 00-.352.352L92.8 53.8l-.128 10.848c0 .192.16.352.352.352h4.16c.192 0 .352-.16.32-.352l-.064-1.408c1.12 1.344 2.72 2.08 4.768 2.08 4.48 0 7.232-3.84 7.232-8.608zm-12.096-.128c.032-3.392 1.28-5.12 3.616-5.12 2.304-.032 3.584 1.824 3.584 5.44 0 3.328-1.248 5.216-3.68 5.152-2.304-.032-3.552-1.952-3.52-5.472zm31.433.128c0-5.248-3.04-8.608-8.416-8.608s-8.48 3.456-8.48 8.704c0 5.248 3.104 8.608 8.48 8.608s8.416-3.456 8.416-8.704zm-12 .128c0-3.712 1.12-5.504 3.552-5.536 2.368 0 3.52 1.792 3.52 5.504 0 3.776-1.12 5.408-3.488 5.408-2.4 0-3.584-1.664-3.584-5.376zM136.152 65c.192 0 .352-.16.352-.352l-.064-6.656v-1.216c0-3.52 1.856-5.12 3.584-5.12 1.44 0 2.528 1.152 2.528 2.944v3.392l-.096 6.656c0 .192.16.352.352.352h4.16c.192 0 .352-.16.352-.352l-.096-6.656v-3.456c0-4.032-2.24-6.4-5.728-6.4-2.304 0-4.192 1.024-5.312 2.464l.064-1.728c.032-.192-.128-.352-.32-.352h-3.936a.355.355 0 00-.352.352l.064 8.224-.128 7.552c0 .192.16.352.352.352h4.224zm18.876-18.08c.192 0 .352-.16.352-.352v-3.616a.355.355 0 00-.352-.352h-4.16a.355.355 0 00-.352.352v3.616c0 .192.16.352.352.352h4.16zM155.06 65c.192 0 .352-.16.352-.352l-.128-7.872.128-7.904a.355.355 0 00-.352-.352h-4.224a.355.355 0 00-.352.352l.128 7.904-.128 7.872c0 .192.16.352.352.352h4.224zm17.399-3.04a.355.355 0 00-.352-.352h-7.776l7.424-9.344c.128-.192.224-.416.224-.64v-2.752a.355.355 0 00-.352-.352h-12.064a.355.355 0 00-.352.352v2.688c0 .192.16.352.352.352h6.56l-7.36 9.408c-.128.192-.224.416-.224.64v2.688c0 .192.16.352.352.352h13.216c.192 0 .352-.16.352-.352V61.96zm14.202-2.528a.412.412 0 00-.416.352c-.448 1.728-1.6 2.432-3.2 2.432-2.304 0-3.52-1.376-3.712-4.48h11.712c.192 0 .352-.16.352-.352-.128-5.728-3.104-9.28-8.512-9.28-5.248 0-8.384 3.456-8.384 8.704 0 4.992 2.976 8.608 8.48 8.608 4.576 0 7.456-2.624 7.904-5.632.032-.192-.128-.352-.32-.352h-3.904zm-.448-4.736h-6.752c.384-2.272 1.536-3.424 3.456-3.424 2.112 0 3.104 1.664 3.296 3.424zM15.912 90.808c.064-.16-.032-.288-.192-.288h-2.432c-.16 0-.32.128-.384.288l-3.936 12.416-4.672-12.448c-.064-.128-.224-.256-.384-.256h-2.72c-.128 0-.224.128-.192.256l6.464 16.256-1.76 5.12c-.064.16.064.288.192.288h2.208c.16 0 .32-.128.384-.288l7.424-21.344zm16.814 7.936c0-5.184-2.784-8.608-7.808-8.608-4.992 0-7.808 3.456-7.808 8.672 0 5.184 2.816 8.576 7.808 8.576 5.024 0 7.808-3.456 7.808-8.64zm-12.64.064c0-4.128 1.568-6.496 4.832-6.528 3.2 0 4.8 2.4 4.8 6.528s-1.568 6.432-4.8 6.432c-3.232 0-4.832-2.304-4.832-6.432zm26.822 5.376l-.064 2.528c0 .16.128.288.288.288h2.272c.16 0 .288-.128.288-.288l-.064-8.672.096-7.232a.287.287 0 00-.288-.288h-2.432a.287.287 0 00-.288.288l.064 6.752v2.496c-.64 3.264-2.4 4.992-4.544 4.992-2.08 0-3.488-1.344-3.488-4.32V97.56l.064-6.752a.287.287 0 00-.288-.288h-2.4a.287.287 0 00-.288.288l.064 6.752v3.264c0 4.32 2.144 6.56 5.536 6.56 2.624 0 4.48-1.504 5.472-3.2zM56.15 107c.16 0 .288-.128.288-.288l-.032-8.64c.352-3.616 2.752-5.312 5.536-5.312.352 0 .672.032.928.064a.24.24 0 00.288-.224v-1.792c0-.16-.128-.32-.288-.352a4.434 4.434 0 00-.96-.096c-2.304 0-4.416 1.12-5.6 3.232l.128-2.784a.287.287 0 00-.288-.288h-2.368a.287.287 0 00-.288.288l.096 7.776-.096 8.128c0 .16.128.288.288.288h2.368zm19-8.384c.033-4.128 1.793-6.272 4.609-6.272 3.136 0 4.608 2.656 4.608 6.592 0 3.68-1.472 6.24-4.672 6.24-2.912 0-4.576-2.4-4.544-6.56zm12.16.096c0-4.8-2.367-8.512-6.815-8.512-2.368 0-4.16 1.12-5.248 2.976l.064-2.368a.287.287 0 00-.288-.288h-2.368a.287.287 0 00-.288.288l.096 9.024-.096 12.32c0 .16.128.288.288.288h2.432c.16 0 .288-.128.288-.288l-.064-7.616c1.088 1.824 2.848 2.784 5.152 2.784 4.352 0 6.848-3.84 6.848-8.608zm18.378.032c0-5.184-2.784-8.608-7.808-8.608-4.992 0-7.808 3.456-7.808 8.672 0 5.184 2.816 8.576 7.808 8.576 5.024 0 7.808-3.456 7.808-8.64zm-12.64.064c0-4.128 1.568-6.496 4.832-6.528 3.2 0 4.8 2.4 4.8 6.528s-1.568 6.432-4.8 6.432c-3.232 0-4.832-2.304-4.832-6.432zM111.583 107c.16 0 .288-.128.288-.288l-.032-8.64c.352-3.616 2.752-5.312 5.536-5.312.352 0 .672.032.928.064a.24.24 0 00.288-.224v-1.792c0-.16-.128-.32-.288-.352a4.434 4.434 0 00-.96-.096c-2.304 0-4.416 1.12-5.6 3.232l.128-2.784a.287.287 0 00-.288-.288h-2.368a.287.287 0 00-.288.288l.096 7.776-.096 8.128c0 .16.128.288.288.288h2.368zm18.35-2.016c0-.128-.128-.256-.288-.192a8.271 8.271 0 01-1.696.192c-1.408 0-2.08-.608-2.08-2.592v-9.6h3.776c.16 0 .288-.128.288-.288v-1.696a.287.287 0 00-.288-.288h-3.776l.032-3.84a.287.287 0 00-.288-.288h-2.368a.287.287 0 00-.288.288l.032 3.84h-1.824a.287.287 0 00-.288.288v1.696c0 .16.128.288.288.288h1.824v9.664c0 3.584 2.016 4.832 4.416 4.832.768 0 1.6-.192 2.24-.384.16-.064.288-.224.288-.384v-1.536zm7.695-12.224h3.584c.16 0 .288-.128.288-.288v-1.664a.287.287 0 00-.288-.288h-3.584v-1.216c0-2.08.8-2.88 2.112-2.88.544 0 1.056.064 1.504.192a.24.24 0 00.288-.224V84.76c0-.16-.128-.32-.288-.352a10.761 10.761 0 00-2.144-.224c-2.112 0-4.32 1.28-4.32 4.896v1.44h-2.304a.287.287 0 00-.288.288v1.664c0 .16.128.288.288.288h2.304v6.816l-.096 7.136c0 .16.128.288.288.288h2.464c.16 0 .288-.128.288-.288l-.096-7.136V92.76zm20.805 5.984c0-5.184-2.784-8.608-7.808-8.608-4.992 0-7.808 3.456-7.808 8.672 0 5.184 2.816 8.576 7.808 8.576 5.024 0 7.808-3.456 7.808-8.64zm-12.64.064c0-4.128 1.568-6.496 4.832-6.528 3.2 0 4.8 2.4 4.8 6.528s-1.568 6.432-4.8 6.432c-3.232 0-4.832-2.304-4.832-6.432zM164.488 107c.16 0 .288-.128.288-.288l-.128-11.072.128-10.752a.287.287 0 00-.288-.288h-2.368a.287.287 0 00-.288.288l.128 10.784-.128 11.04c0 .16.128.288.288.288h2.368zm7.062-18.368c.16 0 .288-.128.288-.288V85.72a.287.287 0 00-.288-.288h-2.4a.287.287 0 00-.288.288v2.624c0 .16.128.288.288.288h2.4zm0 18.368c.16 0 .288-.128.288-.288l-.064-8.224.064-7.68a.287.287 0 00-.288-.288h-2.4a.287.287 0 00-.288.288l.064 7.712-.064 8.192c0 .16.128.288.288.288h2.4zm19.317-8.256c0-5.184-2.784-8.608-7.808-8.608-4.992 0-7.808 3.456-7.808 8.672 0 5.184 2.816 8.576 7.808 8.576 5.024 0 7.808-3.456 7.808-8.64zm-12.64.064c0-4.128 1.568-6.496 4.832-6.528 3.2 0 4.8 2.4 4.8 6.528s-1.568 6.432-4.8 6.432c-3.232 0-4.832-2.304-4.832-6.432zm21.616 1.984c.16 0 .288-.128.288-.288.192-5.28 5.568-5.312 5.568-10.304 0-3.776-2.944-5.888-6.848-5.888-4.48 0-7.072 2.336-7.296 6.688 0 .16.128.288.288.288h2.208c.16 0 .288-.128.288-.288.128-3.008 1.44-4.512 4.416-4.48 2.4.032 4.064 1.28 4.064 3.584 0 3.68-5.44 4.224-5.6 10.4 0 .16.128.288.288.288h2.336zm.128 6.208c.16 0 .288-.128.288-.288v-2.784a.287.287 0 00-.288-.288h-2.592a.287.287 0 00-.288.288v2.784c0 .16.128.288.288.288h2.592z" fill="#fff"/></svg>