<svg width="139" height="57" viewBox="0 0 139 57" fill="none" xmlns="http://www.w3.org/2000/svg"><path d="M.32 1.6h3.84V12h.864V1.6h3.84V.8H.32v.8zm12.264 2.288c-1.503 0-2.143.72-2.48 1.616l-.127-1.616h-.704V12h.816V7.888c0-1.648.431-3.216 2.335-3.216h.593v-.784h-.432zm8.434 7.36c-.48 0-.72-.16-.72-.784V6.688c0-1.856-1.136-2.896-3.168-2.896-1.856 0-3.088.896-3.296 2.368h.816c.208-.992 1.072-1.648 2.448-1.648 1.52 0 2.384.8 2.384 2.144v.704H16.73c-2.08 0-3.2.896-3.2 2.416 0 1.44 1.136 2.32 2.864 2.32 1.648 0 2.624-.752 3.12-1.76v.288c-.032.96.368 1.376 1.328 1.376h.48v-.752h-.304zM19.482 8.72c0 1.552-1.104 2.672-3.024 2.672-1.296 0-2.096-.656-2.096-1.664 0-1.072.8-1.664 2.304-1.664h2.816v.656zm9.43-3.008c-.496-1.152-1.584-1.92-3.104-1.92-2.224 0-3.824 1.696-3.824 4.144 0 2.56 1.6 4.16 3.824 4.16 1.52 0 2.576-.816 3.088-1.952L29.024 12h.704V.8h-.816v4.912zm-3.04 5.648c-1.808 0-3.056-1.408-3.056-3.424 0-2 1.248-3.424 3.056-3.424s3.056 1.424 3.056 3.44c0 2-1.248 3.408-3.056 3.408zm9.36.736c1.776 0 3.136-1.152 3.487-2.784h-.831c-.32 1.264-1.392 2.048-2.72 2.048-1.809 0-2.944-1.376-2.977-3.264v-.144h6.624c0-.112.017-.24.017-.336-.08-2.416-1.569-3.824-3.745-3.824-2.224 0-3.744 1.696-3.744 4.096 0 2.544 1.585 4.208 3.888 4.208zm-2.977-4.832c.128-1.648 1.36-2.752 2.848-2.752 1.584 0 2.72.976 2.849 2.752h-5.697zM46.725 12h.88l2.4-6.816L52.293 12h.88l2.88-8.112h-.832l-2.496 7.136-2.32-7.136h-.752l-2.448 7.136-2.368-7.136h-.864L46.725 12zM57.61 2.176c.32 0 .576-.24.576-.576a.564.564 0 00-.576-.576c-.32 0-.576.24-.576.576 0 .336.256.576.576.576zM57.194 12h.816V3.888h-.816V12zm3.343-1.888c0 1.296.528 1.888 1.904 1.888h1.184v-.752h-1.12c-.848 0-1.152-.32-1.152-1.152V4.64h2.192v-.752h-2.192V1.616h-.816v2.272H59v.752h1.536v5.472zm8.073-6.32c-1.52 0-2.464.848-2.928 2.016V.8h-.816V12h.816V8c0-2.112 1.072-3.456 2.8-3.456 1.552 0 2.512 1.024 2.512 2.944V12h.816V7.456c0-2.56-1.36-3.664-3.2-3.664zM4.544 34.096c1.776 0 3.136-1.152 3.488-2.784H7.2c-.32 1.264-1.392 2.048-2.72 2.048-1.808 0-2.944-1.376-2.976-3.264v-.144h6.624c0-.112.016-.24.016-.336-.08-2.416-1.568-3.824-3.744-3.824-2.224 0-3.744 1.696-3.744 4.096 0 2.544 1.584 4.208 3.888 4.208zm-2.976-4.832c.128-1.648 1.36-2.752 2.848-2.752 1.584 0 2.72.976 2.848 2.752H1.568zM8.612 34h.944l2.688-3.568L14.932 34h.992l-3.152-4.144 2.992-3.968h-.928l-2.56 3.36-2.528-3.36h-.976l2.992 3.968L8.612 34zm9.081-1.888c0 1.296.528 1.888 1.904 1.888h1.184v-.752h-1.12c-.848 0-1.152-.32-1.152-1.152V26.64h2.192v-.752h-2.192v-2.272h-.816v2.272h-1.536v.752h1.536v5.472zm7.663 1.984c1.776 0 3.136-1.152 3.488-2.784h-.832c-.32 1.264-1.392 2.048-2.72 2.048-1.808 0-2.944-1.376-2.976-3.264v-.144h6.625c0-.112.015-.24.015-.336-.08-2.416-1.567-3.824-3.744-3.824-2.224 0-3.744 1.696-3.744 4.096 0 2.544 1.584 4.208 3.889 4.208zm-2.976-4.832c.129-1.648 1.36-2.752 2.849-2.752 1.584 0 2.72.976 2.848 2.752H22.38zm11.933-3.472c-1.488 0-2.448.768-2.912 1.824l-.128-1.728h-.704V34h.816v-4c0-2.112 1.072-3.456 2.8-3.456 1.568 0 2.512 1.024 2.512 2.944V34h.816v-4.544c0-2.56-1.36-3.664-3.2-3.664zm11.505 1.92c-.496-1.152-1.584-1.92-3.104-1.92-2.224 0-3.824 1.696-3.824 4.144 0 2.56 1.6 4.16 3.824 4.16 1.52 0 2.576-.816 3.088-1.952L45.93 34h.704V22.8h-.816v4.912zm-3.04 5.648c-1.808 0-3.056-1.408-3.056-3.424 0-2 1.248-3.424 3.056-3.424s3.056 1.424 3.056 3.44c0 2-1.248 3.408-3.056 3.408zm9.36.736c1.776 0 3.136-1.152 3.488-2.784h-.832c-.32 1.264-1.392 2.048-2.72 2.048-1.808 0-2.944-1.376-2.976-3.264v-.144h6.624c0-.112.016-.24.016-.336-.08-2.416-1.568-3.824-3.744-3.824-2.224 0-3.744 1.696-3.744 4.096 0 2.544 1.584 4.208 3.888 4.208zm-2.976-4.832c.128-1.648 1.36-2.752 2.848-2.752 1.584 0 2.72.976 2.848 2.752h-5.696zm14.813-1.552c-.496-1.152-1.584-1.92-3.104-1.92-2.224 0-3.824 1.696-3.824 4.144 0 2.56 1.6 4.16 3.824 4.16 1.52 0 2.576-.816 3.088-1.952L64.087 34h.704V22.8h-.816v4.912zm-3.04 5.648c-1.808 0-3.056-1.408-3.056-3.424 0-2 1.248-3.424 3.056-3.424s3.056 1.424 3.056 3.44c0 2-1.248 3.408-3.056 3.408zm13.831-7.568c-1.52 0-2.464.848-2.928 2.016V22.8h-.816V34h.816v-4c0-2.112 1.073-3.456 2.8-3.456 1.552 0 2.512 1.024 2.512 2.944V34h.816v-4.544c0-2.56-1.36-3.664-3.2-3.664zm8.481 8.304c2.288 0 3.904-1.696 3.904-4.16 0-2.448-1.616-4.144-3.904-4.144s-3.888 1.696-3.888 4.144c0 2.464 1.6 4.16 3.888 4.16zm0-.736c-1.808 0-3.056-1.408-3.056-3.424 0-2 1.248-3.424 3.056-3.424s3.056 1.424 3.056 3.424c0 2.016-1.248 3.424-3.056 3.424zm11.413-3.488c0 2.128-1.055 3.472-2.736 3.472-1.504 0-2.431-1.024-2.431-2.96v-4.496h-.816v4.544c0 2.544 1.327 3.664 3.12 3.664 1.44 0 2.383-.768 2.847-1.808L94.756 34h.72v-8.112h-.816v3.984zm6.05-3.984c-1.504 0-2.144.72-2.48 1.616l-.129-1.616h-.704V34h.816v-4.112c0-1.648.433-3.216 2.336-3.216h.592v-.784h-.431zm1.07 5.616c.064 1.68 1.424 2.592 3.456 2.592 1.744 0 3.152-.88 3.152-2.32 0-1.712-1.504-2.048-3.248-2.288-1.264-.176-2.384-.32-2.384-1.456 0-.928.912-1.536 2.288-1.536 1.296 0 2.224.624 2.368 1.68h.832c-.144-1.584-1.44-2.384-3.2-2.384-1.808-.016-3.104.912-3.104 2.304 0 1.632 1.504 1.936 3.168 2.16 1.36.192 2.464.368 2.464 1.568 0 .96-1.008 1.568-2.336 1.568-1.552 0-2.56-.72-2.624-1.888h-.832zm19.613 1.744c-.48 0-.72-.16-.72-.784v-3.776c0-1.856-1.136-2.896-3.168-2.896-1.856 0-3.088.896-3.296 2.368h.816c.208-.992 1.072-1.648 2.448-1.648 1.52 0 2.384.8 2.384 2.144v.704h-2.752c-2.08 0-3.2.896-3.2 2.416 0 1.44 1.136 2.32 2.864 2.32 1.648 0 2.624-.752 3.12-1.76v.288c-.032.96.368 1.376 1.328 1.376h.48v-.752h-.304zm-1.536-2.528c0 1.552-1.104 2.672-3.024 2.672-1.296 0-2.096-.656-2.096-1.664 0-1.072.8-1.664 2.304-1.664h2.816v.656zm6.675-4.928c-1.488 0-2.448.768-2.912 1.824l-.128-1.728h-.704V34h.816v-4c0-2.112 1.072-3.456 2.8-3.456 1.568 0 2.512 1.024 2.512 2.944V34h.816v-4.544c0-2.56-1.36-3.664-3.2-3.664zm11.505 1.92c-.496-1.152-1.584-1.92-3.104-1.92-2.224 0-3.824 1.696-3.824 4.144 0 2.56 1.6 4.16 3.824 4.16 1.52 0 2.576-.816 3.088-1.952l.128 1.856h.704V22.8h-.816v4.912zm-3.04 5.648c-1.808 0-3.056-1.408-3.056-3.424 0-2 1.248-3.424 3.056-3.424s3.056 1.424 3.056 3.44c0 2-1.248 3.408-3.056 3.408zM4.704 47.792c-1.488 0-2.448.768-2.912 1.824l-.128-1.728H.96V56h.816v-4c0-2.112 1.072-3.456 2.8-3.456 1.568 0 2.512 1.024 2.512 2.944V56h.816v-4.544c0-2.56-1.36-3.664-3.2-3.664zm8.465 8.304c2.288 0 3.904-1.696 3.904-4.16 0-2.448-1.616-4.144-3.904-4.144s-3.888 1.696-3.888 4.144c0 2.464 1.6 4.16 3.888 4.16zm0-.736c-1.808 0-3.056-1.408-3.056-3.424 0-2 1.248-3.424 3.056-3.424s3.056 1.424 3.056 3.424c0 2.016-1.248 3.424-3.056 3.424zm13.374.736c1.84 0 3.136-1.056 3.456-2.704h-.864c-.272 1.2-1.248 1.968-2.592 1.968-1.776 0-3.008-1.392-3.008-3.408s1.216-3.44 3.008-3.44c1.36 0 2.32.768 2.608 1.984h.848c-.336-1.68-1.6-2.704-3.44-2.704-2.288 0-3.856 1.696-3.856 4.16 0 2.496 1.552 4.144 3.84 4.144zm8.626 0c2.288 0 3.904-1.696 3.904-4.16 0-2.448-1.616-4.144-3.904-4.144s-3.888 1.696-3.888 4.144c0 2.464 1.6 4.16 3.888 4.16zm0-.736c-1.808 0-3.056-1.408-3.056-3.424 0-2 1.248-3.424 3.056-3.424s3.056 1.424 3.056 3.424c0 2.016-1.248 3.424-3.056 3.424zm14.581-7.568c-1.488 0-2.448.832-2.912 2.032-.384-1.344-1.392-2.032-2.672-2.032-1.392 0-2.224.816-2.64 1.824l-.128-1.728h-.704V56h.816v-4.128c0-1.984.96-3.328 2.512-3.328 1.408 0 2.288.992 2.288 2.864V56h.816v-4.416c.048-1.856 1.008-3.04 2.528-3.04 1.408 0 2.256.944 2.256 2.784V56h.832v-4.704c0-2.448-1.296-3.504-2.992-3.504zm13.86 0c-1.488 0-2.448.832-2.912 2.032-.384-1.344-1.392-2.032-2.672-2.032-1.392 0-2.224.816-2.64 1.824l-.128-1.728h-.704V56h.816v-4.128c0-1.984.96-3.328 2.512-3.328 1.408 0 2.288.992 2.288 2.864V56h.816v-4.416c.048-1.856 1.008-3.04 2.528-3.04 1.408 0 2.256.944 2.256 2.784V56h.832v-4.704c0-2.448-1.296-3.504-2.992-3.504zm5.22-1.616c.32 0 .575-.24.575-.576a.564.564 0 00-.576-.576c-.32 0-.576.24-.576.576 0 .336.256.576.576.576zM68.412 56h.816v-8.112h-.816V56zm2.367-2.496c.064 1.68 1.424 2.592 3.456 2.592 1.743 0 3.151-.88 3.151-2.32 0-1.712-1.504-2.048-3.248-2.288-1.263-.176-2.383-.32-2.383-1.456 0-.928.912-1.536 2.287-1.536 1.296 0 2.224.624 2.368 1.68h.832c-.143-1.584-1.44-2.384-3.2-2.384-1.808-.016-3.104.912-3.104 2.304 0 1.632 1.505 1.936 3.169 2.16 1.36.192 2.463.368 2.463 1.568 0 .96-1.007 1.568-2.335 1.568-1.553 0-2.56-.72-2.624-1.888h-.832zm7.64 0c.064 1.68 1.424 2.592 3.456 2.592 1.744 0 3.152-.88 3.152-2.32 0-1.712-1.504-2.048-3.248-2.288-1.264-.176-2.384-.32-2.384-1.456 0-.928.912-1.536 2.288-1.536 1.296 0 2.224.624 2.368 1.68h.832c-.144-1.584-1.44-2.384-3.2-2.384-1.808-.016-3.104.912-3.104 2.304 0 1.632 1.504 1.936 3.168 2.16 1.36.192 2.464.368 2.464 1.568 0 .96-1.008 1.568-2.336 1.568-1.552 0-2.56-.72-2.624-1.888h-.832zm8.581-7.328c.32 0 .576-.24.576-.576a.564.564 0 00-.576-.576c-.32 0-.576.24-.576.576 0 .336.256.576.576.576zM86.585 56h.816v-8.112h-.816V56zm6.318.096c2.288 0 3.904-1.696 3.904-4.16 0-2.448-1.616-4.144-3.904-4.144s-3.888 1.696-3.888 4.144c0 2.464 1.6 4.16 3.888 4.16zm0-.736c-1.808 0-3.056-1.408-3.056-3.424 0-2 1.248-3.424 3.056-3.424s3.056 1.424 3.056 3.424c0 2.016-1.248 3.424-3.056 3.424zm9.27-7.568c-1.488 0-2.448.768-2.912 1.824l-.128-1.728h-.704V56h.816v-4c0-2.112 1.072-3.456 2.8-3.456 1.568 0 2.512 1.024 2.512 2.944V56h.816v-4.544c0-2.56-1.36-3.664-3.2-3.664z" fill="#000"/></svg>