<svg width="135" height="11" viewBox="0 0 135 11" fill="none" xmlns="http://www.w3.org/2000/svg"><path d="M.704 8H3.63c1.859 0 2.86-.836 2.86-2.2 0-1.1-.704-1.639-1.617-1.782.803-.22 1.32-.77 1.32-1.683C6.193 1.07 5.225.3 3.531.3H.704V8zm2.86-6.644c.88 0 1.364.418 1.364 1.1 0 .693-.495 1.111-1.364 1.111H1.969V1.356h1.595zm.077 3.256c.979 0 1.551.418 1.551 1.177 0 .715-.539 1.144-1.551 1.144H1.969V4.612h1.672zm6.511 3.454c1.398 0 2.344-.847 2.542-1.958h-1.189c-.165.627-.693.99-1.419.99-.935 0-1.54-.627-1.573-1.584v-.077h4.246c.022-.154.034-.308.034-.451-.034-1.65-1.122-2.684-2.75-2.684-1.662 0-2.773 1.155-2.773 2.893 0 1.727 1.111 2.871 2.883 2.871zM8.557 4.568c.088-.803.737-1.309 1.496-1.309.825 0 1.408.473 1.507 1.309H8.557zm10.86-2.2c-.925 0-1.376.374-1.662.847l-.132-.847h-1.056V8h1.188V5.173c0-.869.341-1.694 1.397-1.694h.528V2.368h-.264zm3.4 5.698c1.398 0 2.343-.847 2.541-1.958H24.17c-.165.627-.693.99-1.419.99-.934 0-1.54-.627-1.573-1.584v-.077h4.246c.023-.154.034-.308.034-.451-.034-1.65-1.122-2.684-2.75-2.684-1.661 0-2.772 1.155-2.772 2.893 0 1.727 1.11 2.871 2.881 2.871zm-1.595-3.498c.088-.803.737-1.309 1.496-1.309.826 0 1.409.473 1.508 1.309h-3.003zm10.344 2.398c-.242 0-.363-.077-.363-.363V4.348c0-1.331-.858-2.046-2.354-2.046-1.419 0-2.365.682-2.486 1.782h1.166c.088-.495.561-.825 1.265-.825.781 0 1.232.385 1.232 1.012v.341h-1.419c-1.573 0-2.409.649-2.409 1.804 0 1.045.858 1.65 2.09 1.65.913 0 1.485-.396 1.859-.968 0 .561.264.902 1.034.902h.627V6.966h-.242zm-1.54-1.276c-.011.869-.583 1.452-1.573 1.452-.649 0-1.045-.33-1.045-.803 0-.572.407-.847 1.144-.847h1.474v.198zm6.665-2.541c-.363-.495-.968-.847-1.826-.847-1.529 0-2.662 1.144-2.662 2.882 0 1.804 1.133 2.882 2.662 2.882.891 0 1.474-.418 1.837-.913l.143.847h1.034V.3h-1.188v2.849zm-1.628 3.916c-.99 0-1.639-.77-1.639-1.881 0-1.1.65-1.87 1.64-1.87.99 0 1.638.77 1.638 1.892 0 1.089-.649 1.859-1.639 1.859zm5.605.968l-.22.55c-.176.462-.286.572-.748.572h-.836V10.2h1.276c.825 0 1.067-.407 1.419-1.32l2.552-6.512h-1.265l-1.529 4.279-1.573-4.279h-1.265l2.189 5.665zm7.463-6.457c.407 0 .726-.297.726-.715s-.319-.715-.726-.715-.726.297-.726.715.32.715.726.715zM47.526 8h1.188V2.368h-1.188V8zm1.78-4.587h.98V8h1.199V3.413h1.507V2.368h-1.53v-.473c0-.385.166-.55.55-.55h.98V.3h-1.133c-1.09 0-1.573.528-1.573 1.54v.528h-.98v1.045zM56.422 8h1.188V.3H56.42V8zm2.957-6.424c.407 0 .726-.297.726-.715s-.319-.715-.726-.715-.726.297-.726.715.32.715.726.715zM58.773 8h1.188V2.368h-1.188V8zm6.654-4.752c-.363-.561-.968-.946-1.848-.946-1.529 0-2.662 1.133-2.662 2.86 0 1.793 1.133 2.86 2.662 2.86.88 0 1.463-.363 1.837-.924v.627c0 1.078-.583 1.573-1.617 1.573-.836 0-1.386-.363-1.529-.99h-1.21c.11 1.265 1.155 1.958 2.651 1.958 2.024 0 2.882-.968 2.882-2.497V2.368h-1.034l-.132.88zm-1.65 3.773c-.99 0-1.639-.759-1.639-1.859 0-1.089.649-1.859 1.639-1.859s1.639.77 1.639 1.881c0 1.078-.649 1.837-1.639 1.837zm6.936-4.719c-.88 0-1.42.396-1.771.88V.3h-1.188V8h1.188V5.151c0-1.133.572-1.826 1.507-1.826.88 0 1.353.572 1.353 1.639V8h1.188V4.865c0-1.881-1.023-2.563-2.277-2.563zm3.764 4.169c0 1.023.462 1.529 1.54 1.529h1.1V6.955h-.836c-.45 0-.605-.165-.605-.605V3.413h1.375V2.368h-1.375V.795h-1.199v1.573h-.979v1.045h.98v3.058zm6.366-4.169c-.913 0-1.452.363-1.804.803l-.132-.737h-1.034V8h1.188V5.162c0-1.144.561-1.837 1.507-1.837.891 0 1.342.572 1.342 1.639V8h1.199V4.865c0-1.881-1.023-2.563-2.266-2.563zm3.951-.726c.407 0 .726-.297.726-.715s-.319-.715-.726-.715-.726.297-.726.715.32.715.726.715zM84.19 8h1.188V2.368H84.19V8zm5.323-5.698c-.913 0-1.452.363-1.804.803l-.132-.737h-1.034V8h1.188V5.162c0-1.144.561-1.837 1.507-1.837.891 0 1.342.572 1.342 1.639V8h1.199V4.865c0-1.881-1.023-2.563-2.266-2.563zm7.647.946c-.363-.561-.968-.946-1.848-.946-1.529 0-2.662 1.133-2.662 2.86 0 1.793 1.133 2.86 2.662 2.86.88 0 1.463-.363 1.837-.924v.627c0 1.078-.583 1.573-1.617 1.573-.836 0-1.386-.363-1.529-.99h-1.21c.11 1.265 1.155 1.958 2.651 1.958 2.024 0 2.882-.968 2.882-2.497V2.368h-1.034l-.132.88zm-1.65 3.773c-.99 0-1.639-.759-1.639-1.859 0-1.089.65-1.859 1.64-1.859.99 0 1.638.77 1.638 1.881 0 1.078-.649 1.837-1.639 1.837zm6.55-.88c.033 1.221 1.067 1.925 2.574 1.925 1.364 0 2.387-.682 2.387-1.76 0-1.254-1.045-1.518-2.332-1.672-.814-.088-1.353-.154-1.353-.682 0-.451.462-.737 1.166-.737s1.188.363 1.254.88h1.166c-.077-1.155-1.056-1.793-2.442-1.793-1.353-.011-2.31.682-2.31 1.749 0 1.166 1.012 1.441 2.299 1.595.869.11 1.386.154 1.386.759 0 .451-.484.737-1.221.737-.858 0-1.364-.418-1.408-1.001h-1.166zm6.288.33c0 1.023.462 1.529 1.54 1.529h1.1V6.955h-.836c-.451 0-.605-.165-.605-.605V3.413h1.375V2.368h-1.375V.795h-1.199v1.573h-.979v1.045h.979v3.058zm6.245-4.103c-.924 0-1.375.374-1.661.847l-.132-.847h-1.056V8h1.188V5.173c0-.869.341-1.694 1.397-1.694h.528V2.368h-.264zm1.602-.792c.407 0 .726-.297.726-.715s-.319-.715-.726-.715-.726.297-.726.715.319.715.726.715zM115.589 8h1.188V2.368h-1.188V8zm2.352 0h1.188V6.57l1.012-1.056L121.802 8h1.408l-2.255-3.355 2.123-2.277h-1.397l-2.552 2.728V.3h-1.188V8zm8.163.066c1.397 0 2.343-.847 2.541-1.958h-1.188c-.165.627-.693.99-1.419.99-.935 0-1.54-.627-1.573-1.584v-.077h4.246c.022-.154.033-.308.033-.451-.033-1.65-1.122-2.684-2.75-2.684-1.661 0-2.772 1.155-2.772 2.893 0 1.727 1.111 2.871 2.882 2.871zm-1.595-3.498c.088-.803.737-1.309 1.496-1.309.825 0 1.408.473 1.507 1.309h-3.003zm4.921 1.573c.033 1.221 1.067 1.925 2.574 1.925 1.364 0 2.387-.682 2.387-1.76 0-1.254-1.045-1.518-2.332-1.672-.814-.088-1.353-.154-1.353-.682 0-.451.462-.737 1.166-.737s1.188.363 1.254.88h1.166c-.077-1.155-1.056-1.793-2.442-1.793-1.353-.011-2.31.682-2.31 1.749 0 1.166 1.012 1.441 2.299 1.595.869.11 1.386.154 1.386.759 0 .451-.484.737-1.221.737-.858 0-1.364-.418-1.408-1.001h-1.166z" fill="#000"/></svg>