<svg width="120" height="18" viewBox="0 0 120 18" fill="none" xmlns="http://www.w3.org/2000/svg"><path d="M.265 17H4.29V7.248L7.855 17h3.358l3.565-9.752V17h4.025V.9h-5.497L9.695 11.894 5.877.9H.265V17zm26.496.138c2.714 0 4.646-1.725 5.106-4.071h-1.909c-.39 1.518-1.679 2.392-3.335 2.392-2.23 0-3.634-1.564-3.703-3.795v-.161h9.108c.023-.276.046-.552.046-.805-.092-3.473-2.254-5.566-5.566-5.566s-5.566 2.438-5.566 6.003c0 3.588 2.3 6.003 5.82 6.003zm-3.726-7.199c.184-1.909 1.771-3.151 3.496-3.151 1.955 0 3.335 1.127 3.52 3.151h-7.016zM44.6 15.275c-.528 0-.758-.161-.758-.782V9.364c0-2.737-1.726-4.232-4.715-4.232-2.83 0-4.692 1.357-4.968 3.657h1.886c.23-1.196 1.334-1.978 2.99-1.978 1.84 0 2.92.92 2.92 2.438v.805h-3.45c-3.081 0-4.715 1.311-4.715 3.657 0 2.139 1.748 3.427 4.325 3.427 2.024 0 3.197-.897 3.933-1.955.023 1.15.552 1.817 2.116 1.817h1.035v-1.725h-.599zm-2.644-3.059c0 1.955-1.358 3.312-3.703 3.312-1.565 0-2.553-.782-2.553-1.932 0-1.334.943-1.955 2.622-1.955h3.634v.575zm4.21.92c.045 2.576 2.138 4.002 5.174 4.002 2.6 0 4.692-1.357 4.692-3.542 0-2.599-2.139-3.105-4.807-3.427-1.702-.207-2.944-.368-2.944-1.656 0-1.081 1.104-1.771 2.737-1.771 1.61 0 2.714.897 2.852 2.093h1.932c-.184-2.438-2.116-3.68-4.784-3.703-2.645-.023-4.6 1.38-4.6 3.519 0 2.438 2.093 2.967 4.715 3.289 1.748.207 3.036.322 3.036 1.794 0 1.081-1.173 1.794-2.829 1.794-1.955 0-3.174-1.012-3.243-2.392h-1.932zm20.17-2.001c0 2.645-1.287 4.278-3.426 4.278-1.955 0-3.06-1.288-3.06-3.726V5.27h-1.885v6.532c0 3.887 2.047 5.336 4.623 5.336 1.932 0 3.059-.828 3.749-1.702L66.589 17h1.633V5.27h-1.886v5.865zm9.886-5.865c-2.093 0-2.99.874-3.542 1.771l-.253-1.771h-1.633V17h1.886v-5.98c0-1.863.667-3.91 3.128-3.91h.943V5.27h-.53zm12.132 10.005c-.529 0-.759-.161-.759-.782V9.364c0-2.737-1.725-4.232-4.715-4.232-2.829 0-4.692 1.357-4.968 3.657h1.886c.23-1.196 1.334-1.978 2.99-1.978 1.84 0 2.921.92 2.921 2.438v.805h-3.45c-3.082 0-4.715 1.311-4.715 3.657 0 2.139 1.748 3.427 4.324 3.427 2.024 0 3.197-.897 3.933-1.955.023 1.15.552 1.817 2.116 1.817h1.035v-1.725h-.598zm-2.645-3.059c0 1.955-1.357 3.312-3.703 3.312-1.564 0-2.553-.782-2.553-1.932 0-1.334.943-1.955 2.622-1.955h3.634v.575zm10.604-7.084c-1.978 0-3.243.943-4.025 2.024V.9h-1.886V17h1.633l.253-1.794c.713 1.127 2.047 1.932 4.025 1.932 3.243 0 5.635-2.415 5.635-6.003 0-3.818-2.392-6.003-5.635-6.003zm-.184 10.327c-2.3 0-3.864-1.794-3.864-4.37 0-2.507 1.564-4.278 3.864-4.278 2.323 0 3.887 1.771 3.887 4.324s-1.564 4.324-3.887 4.324zM104.102 17h1.886V.9h-1.886V17zm9.875.138c2.714 0 4.646-1.725 5.106-4.071h-1.909c-.391 1.518-1.679 2.392-3.335 2.392-2.231 0-3.634-1.564-3.703-3.795v-.161h9.108c.023-.276.046-.552.046-.805-.092-3.473-2.254-5.566-5.566-5.566s-5.566 2.438-5.566 6.003c0 3.588 2.3 6.003 5.819 6.003zm-3.726-7.199c.184-1.909 1.771-3.151 3.496-3.151 1.955 0 3.335 1.127 3.519 3.151h-7.015z" fill="#fff"/></svg>