<svg width="169" height="94" viewBox="0 0 169 94" fill="none" xmlns="http://www.w3.org/2000/svg"><path d="M.836 25.27c.204 7.14 5.559 12.036 14.433 12.036 7.854 0 13.209-4.437 13.209-10.863.051-7.038-5.712-8.925-11.628-9.996-5.61-.969-9.282-1.734-9.282-5.406 0-3.366 2.805-5.1 6.834-5.1 4.335 0 7.191 2.448 7.65 6.069h5.865C27.662 5.431 22.562.994 14.402.994 6.803.994 1.703 5.227 1.703 11.449c0 7.089 5.61 8.976 11.526 9.996 5.661 1.02 9.384 1.836 9.384 5.61 0 3.417-3.06 5.304-7.293 5.304-4.998 0-8.262-2.805-8.568-6.987L.836 25.27zM33.641 37h5.661V10.735L50.012 37h4.947l10.71-26.265V37h5.661V1.3h-7.446l-11.22 28.101L41.24 1.3h-7.599V37zm47.44 0l3.314-8.823h14.638L102.398 37h6.273L95.361 1.3h-6.987L75.012 37h6.069zM91.689 7.624L97.4 23.179H86.027l5.66-15.555zM112.332 37h5.865V24.046h7.854L132.936 37h6.528l-7.548-14.229c4.182-1.479 6.936-5.304 6.936-10.098 0-6.936-4.998-11.373-12.444-11.373h-14.076V37zm13.617-30.6c4.182 0 6.885 2.448 6.885 6.273 0 3.825-2.703 6.273-6.885 6.273h-7.752V6.4h7.752zm14.221.102h11.016V37h5.865V6.502h11.016V1.3H140.17v5.202zM.836 71.27c.204 7.14 5.559 12.036 14.433 12.036 7.854 0 13.209-4.437 13.209-10.863.051-7.038-5.712-8.925-11.628-9.996-5.61-.969-9.282-1.734-9.282-5.406 0-3.366 2.805-5.1 6.834-5.1 4.335 0 7.191 2.448 7.65 6.069h5.865c-.255-6.579-5.355-11.016-13.515-11.016-7.599 0-12.699 4.233-12.699 10.455 0 7.089 5.61 8.976 11.526 9.996 5.661 1.02 9.384 1.836 9.384 5.61 0 3.417-3.06 5.304-7.293 5.304-4.998 0-8.262-2.805-8.568-6.987L.836 71.27zm35.049-18.054c1.887 0 3.366-1.377 3.366-3.315s-1.479-3.315-3.366-3.315-3.366 1.377-3.366 3.315 1.479 3.315 3.366 3.315zM33.08 83h5.508V56.888H33.08V83zm30.848-22.032c-1.683-2.601-4.488-4.386-8.568-4.386-7.089 0-12.342 5.253-12.342 13.26 0 8.313 5.253 13.26 12.342 13.26 4.08 0 6.783-1.683 8.517-4.284v2.907c0 4.998-2.703 7.293-7.497 7.293-3.876 0-6.426-1.683-7.089-4.59h-5.61c.51 5.865 5.355 9.078 12.291 9.078 9.384 0 13.362-4.488 13.362-11.577V56.888H64.54l-.612 4.08zm-7.65 17.493c-4.59 0-7.599-3.519-7.599-8.619 0-5.049 3.01-8.619 7.6-8.619s7.598 3.57 7.598 8.721c0 4.998-3.009 8.517-7.599 8.517zm32.209-21.879c-4.233 0-6.732 1.683-8.364 3.723l-.612-3.417h-4.794V83h5.508V69.842c0-5.304 2.6-8.517 6.987-8.517 4.13 0 6.222 2.652 6.222 7.599V83h5.559V68.465c0-8.721-4.743-11.883-10.506-11.883zm39.383 21.624c-1.122 0-1.683-.357-1.683-1.683V66.068c0-6.171-3.978-9.486-10.914-9.486-6.579 0-10.965 3.162-11.526 8.262h5.406c.408-2.295 2.601-3.825 5.865-3.825 3.621 0 5.712 1.785 5.712 4.692v1.581h-6.579c-7.293 0-11.169 3.009-11.169 8.364 0 4.845 3.978 7.65 9.69 7.65 4.233 0 6.885-1.836 8.619-4.488 0 2.601 1.224 4.182 4.794 4.182h2.907v-4.794h-1.122zm-7.14-5.916c-.051 4.029-2.703 6.732-7.293 6.732-3.009 0-4.845-1.53-4.845-3.723 0-2.652 1.887-3.927 5.304-3.927h6.834v.918zM131.992 83h5.508V47.3h-5.508V83zm9.785-8.619c.153 5.661 4.947 8.925 11.934 8.925 6.324 0 11.067-3.162 11.067-8.16 0-5.814-4.845-7.038-10.812-7.752-3.774-.408-6.273-.714-6.273-3.162 0-2.091 2.142-3.417 5.406-3.417s5.508 1.683 5.814 4.08h5.406c-.357-5.355-4.896-8.313-11.322-8.313-6.273-.051-10.71 3.162-10.71 8.109 0 5.406 4.692 6.681 10.659 7.395 4.029.51 6.426.714 6.426 3.519 0 2.091-2.244 3.417-5.661 3.417-3.978 0-6.324-1.938-6.528-4.641h-5.406z" fill="#fff"/></svg>