<svg width="123" height="18" viewBox="0 0 123 18" fill="none" xmlns="http://www.w3.org/2000/svg"><path d="M.46 4.488h4.347V17h4.232V4.488h4.347V.9H.46v3.588zm15.63-1.196c.69 0 1.219-.506 1.219-1.219 0-.713-.53-1.219-1.22-1.219s-1.218.506-1.218 1.219c0 .713.529 1.219 1.219 1.219zM15.124 17h1.886V5.27h-1.886V17zM32.68 5.132c-2.093 0-3.358.966-4.071 2.231-.667-1.495-2.07-2.231-3.703-2.231-1.817 0-2.806.897-3.427 1.748l-.253-1.61h-1.633V17h1.886v-6.187c0-2.346 1.173-3.956 3.105-3.956 1.794 0 2.829 1.196 2.829 3.496V17H29.3v-6.279c0-2.392 1.196-3.864 3.15-3.864 1.772 0 2.784 1.196 2.784 3.496V17h1.886v-6.762c0-3.703-2.001-5.106-4.44-5.106zm12.128 12.006c2.714 0 4.646-1.725 5.106-4.071h-1.909c-.39 1.518-1.679 2.392-3.335 2.392-2.23 0-3.634-1.564-3.703-3.795v-.161h9.108c.023-.276.046-.552.046-.805-.092-3.473-2.254-5.566-5.566-5.566S38.99 7.57 38.99 11.135c0 3.588 2.3 6.003 5.82 6.003zm-3.726-7.199c.184-1.909 1.771-3.151 3.496-3.151 1.955 0 3.335 1.127 3.52 3.151h-7.016zm9.815-2.944h2.116V17H54.9V6.995h3.312V5.27H54.9V3.913c0-.897.345-1.288 1.288-1.288h2.024V.9h-2.14c-2.184 0-3.058.989-3.058 3.059V5.27h-2.116v1.725zM65.002 5.27c-2.093 0-2.99.874-3.542 1.771l-.253-1.771h-1.633V17h1.886v-5.98c0-1.863.667-3.91 3.128-3.91h.943V5.27h-.529zm12.133 10.005c-.53 0-.76-.161-.76-.782V9.364c0-2.737-1.724-4.232-4.714-4.232-2.83 0-4.692 1.357-4.968 3.657h1.886c.23-1.196 1.334-1.978 2.99-1.978 1.84 0 2.92.92 2.92 2.438v.805h-3.45c-3.081 0-4.714 1.311-4.714 3.657 0 2.139 1.748 3.427 4.324 3.427 2.024 0 3.197-.897 3.933-1.955.023 1.15.552 1.817 2.116 1.817h1.035v-1.725h-.598zm-2.645-3.059c0 1.955-1.357 3.312-3.703 3.312-1.564 0-2.553-.782-2.553-1.932 0-1.334.943-1.955 2.622-1.955h3.634v.575zm17.78-7.084c-2.093 0-3.358.966-4.072 2.231-.666-1.495-2.07-2.231-3.702-2.231-1.817 0-2.806.897-3.427 1.748l-.254-1.61h-1.632V17h1.885v-6.187c0-2.346 1.174-3.956 3.106-3.956 1.793 0 2.828 1.196 2.828 3.496V17h1.886v-6.279c0-2.392 1.197-3.864 3.151-3.864 1.772 0 2.784 1.196 2.784 3.496V17h1.886v-6.762c0-3.703-2.002-5.106-4.44-5.106zm12.128 12.006c2.714 0 4.646-1.725 5.106-4.071h-1.909c-.391 1.518-1.679 2.392-3.335 2.392-2.231 0-3.634-1.564-3.703-3.795v-.161h9.108c.023-.276.046-.552.046-.805-.092-3.473-2.254-5.566-5.566-5.566s-5.566 2.438-5.566 6.003c0 3.588 2.3 6.003 5.819 6.003zm-3.726-7.199c.184-1.909 1.771-3.151 3.496-3.151 1.955 0 3.335 1.127 3.519 3.151h-7.015zm20.437-2.875c-.713-1.127-2.047-1.932-4.025-1.932-3.243 0-5.635 2.415-5.635 6.003 0 3.818 2.392 6.003 5.635 6.003 1.978 0 3.243-.943 4.025-2.024l.253 1.886h1.633V.9h-1.886v6.164zm-3.841 8.395c-2.323 0-3.887-1.771-3.887-4.324s1.564-4.324 3.887-4.324c2.3 0 3.864 1.794 3.864 4.37 0 2.507-1.564 4.278-3.864 4.278z" fill="#fff"/></svg>