<svg width="297" height="10" viewBox="0 0 297 10" fill="none" xmlns="http://www.w3.org/2000/svg"><path d="M5.556 6l.407-1.04H7.64L8.047 6h.511L7.097 2.15h-.567L5.061 6h.495zm1.242-3.328l.699 1.854H6.106l.692-1.853zM8.928 6h.451V2.15h-.45V6zm1.069 0h.451V2.15h-.451V6zm2.717-.731c0 .494.193.731.732.731h.49v-.412h-.446c-.242 0-.325-.088-.325-.325V3.608h.726v-.413h-.726v-.786h-.45v.786h-.507v.413h.506v1.66zm2.91-2.074c-.5 0-.715.209-.847.424l-.06-.424h-.39V6h.45V4.57c0-.446.16-.935.748-.935h.226v-.44h-.127zm2.901 2.393c-.126 0-.181-.039-.181-.188V4.175c0-.655-.413-1.012-1.128-1.012-.676 0-1.122.325-1.188.875h.451c.055-.286.32-.474.715-.474.44 0 .699.22.699.583v.193h-.825c-.737 0-1.128.313-1.128.874 0 .512.418.82 1.034.82.484 0 .765-.215.94-.468.006.275.133.435.507.435h.247v-.412h-.143zm-.632-.732c0 .468-.325.792-.886.792-.374 0-.61-.187-.61-.462 0-.319.225-.468.627-.468h.869v.138zm3.3-1.232c-.17-.27-.489-.462-.962-.462-.775 0-1.347.578-1.347 1.436 0 .913.572 1.435 1.347 1.435.473 0 .776-.226.963-.484l.06.451h.39V2.15h-.45v1.474zm-.918 2.007c-.555 0-.93-.423-.93-1.034 0-.61.375-1.034.93-1.034.55 0 .924.43.924 1.046 0 .599-.374 1.022-.924 1.022zm2.215-2.909a.283.283 0 00.292-.292.283.283 0 00-.292-.291.283.283 0 00-.291.292c0 .17.126.291.291.291zM22.26 6h.45V3.195h-.45V6zm2.443-2.838c-.473 0-.759.198-.924.413l-.06-.38h-.391V6h.451V4.598c0-.633.319-1.023.847-1.023.49 0 .759.307.759.89V6h.451V4.438c0-.93-.5-1.276-1.133-1.276zm3.919.517c-.176-.313-.49-.517-.962-.517-.776 0-1.348.578-1.348 1.436 0 .913.572 1.435 1.348 1.435.473 0 .775-.198.962-.517v.33c0 .61-.319.885-.907.885-.468 0-.782-.197-.858-.55h-.462c.071.617.572.952 1.287.952.962 0 1.391-.462 1.391-1.27V3.194h-.39l-.061.484zm-.919 1.953c-.555 0-.929-.424-.929-1.034 0-.611.374-1.034.93-1.034.55 0 .924.429.924 1.045 0 .599-.375 1.022-.925 1.022zm3.655-2.91a.283.283 0 00.291-.292.283.283 0 00-.291-.291.283.283 0 00-.292.292c0 .17.127.291.292.291zM31.127 6h.45V3.195h-.45V6zm2.444-2.838c-.473 0-.76.198-.924.413l-.06-.38h-.391V6h.45V4.598c0-.633.32-1.023.848-1.023.49 0 .759.307.759.89V6h.45V4.438c0-.93-.5-1.276-1.132-1.276zM35.947 6h.544l1.05-2.805h-.472l-.842 2.294-.847-2.294h-.484L35.946 6zm3.1.033c.82 0 1.392-.583 1.392-1.436 0-.852-.572-1.435-1.392-1.435s-1.391.583-1.391 1.436c0 .852.572 1.435 1.391 1.435zm0-.402c-.555 0-.93-.434-.93-1.034 0-.599.375-1.034.93-1.034.556 0 .93.435.93 1.034 0 .6-.374 1.034-.93 1.034zM40.956 6h.45V2.15h-.45V6zm1.839 0h.544l1.05-2.805h-.472l-.842 2.294-.847-2.294h-.484L42.794 6zm3.1.033c.65 0 1.111-.413 1.221-.974h-.456c-.094.364-.402.572-.798.572-.533 0-.869-.373-.885-.907v-.038h2.178c.005-.066.01-.133.01-.193-.021-.83-.538-1.331-1.33-1.331s-1.331.583-1.331 1.436c0 .857.55 1.435 1.391 1.435zm-.89-1.722a.83.83 0 01.835-.753c.468 0 .798.27.842.753h-1.678zm2.55.765c.01.616.51.957 1.237.957.621 0 1.122-.325 1.122-.847 0-.622-.512-.742-1.15-.82-.407-.049-.704-.087-.704-.395 0-.259.264-.424.655-.424.385 0 .649.214.682.5h.462c-.044-.582-.506-.88-1.144-.885-.633-.006-1.1.33-1.1.841 0 .583.5.71 1.127.787.418.05.726.077.726.429 0 .258-.28.429-.676.429-.468 0-.76-.242-.776-.572h-.462zm5.597-1.881c-.5 0-.715.209-.847.424l-.06-.424h-.391V6h.45V4.57c0-.446.16-.935.749-.935h.225v-.44h-.126zm.748-.473a.283.283 0 00.292-.292.283.283 0 00-.292-.291.283.283 0 00-.291.292c0 .17.126.291.291.291zM53.67 6h.45V3.195h-.45V6zm.953-.924c.01.616.511.957 1.237.957.622 0 1.122-.325 1.122-.847 0-.622-.511-.742-1.15-.82-.406-.049-.703-.087-.703-.395 0-.259.264-.424.654-.424.385 0 .65.214.682.5h.462c-.044-.582-.506-.88-1.144-.885-.632-.006-1.1.33-1.1.841 0 .583.5.71 1.128.787.418.05.726.077.726.429 0 .258-.28.429-.677.429-.467 0-.759-.242-.775-.572h-.462zm2.86.924h.45v-.737l.567-.583.93 1.32h.544l-1.171-1.644 1.094-1.161h-.555l-1.408 1.49V2.15h-.451V6zm2.754-.275c0 .187.132.308.313.308.182 0 .314-.121.314-.308s-.132-.308-.314-.308c-.181 0-.313.121-.313.308zM62.93 6h2.524v-.44H63.41V4.262h1.645v-.44h-1.645V2.59h1.975v-.44H62.93V6zm4.37-2.838c-.473 0-.759.198-.924.413l-.06-.38h-.39V6h.45V4.598c0-.633.32-1.023.847-1.023.49 0 .76.307.76.89V6h.45V4.438c0-.93-.5-1.276-1.133-1.276zm1.593 1.914c.01.616.511.957 1.237.957.622 0 1.122-.325 1.122-.847 0-.622-.511-.742-1.15-.82-.406-.049-.703-.087-.703-.395 0-.259.264-.424.654-.424.385 0 .65.214.682.5h.462c-.044-.582-.506-.88-1.144-.885-.632-.006-1.1.33-1.1.841 0 .583.5.71 1.128.787.418.05.726.077.726.429 0 .258-.28.429-.677.429-.467 0-.759-.242-.775-.572h-.462zm4.823-.478c0 .632-.308 1.022-.82 1.022-.467 0-.73-.308-.73-.89V3.194h-.452v1.562c0 .93.49 1.276 1.106 1.276.462 0 .731-.198.896-.407l.06.374h.391V3.195h-.45v1.403zm2.364-1.403c-.5 0-.715.209-.847.424l-.06-.424h-.39V6h.45V4.57c0-.446.16-.935.748-.935h.226v-.44h-.127zm1.649 2.838c.649 0 1.11-.413 1.22-.974h-.456c-.093.364-.401.572-.797.572-.534 0-.87-.373-.886-.907v-.038h2.178c.006-.066.011-.133.011-.193-.022-.83-.539-1.331-1.33-1.331-.793 0-1.332.583-1.332 1.436 0 .857.55 1.435 1.392 1.435zm-.891-1.722a.83.83 0 01.836-.753c.467 0 .797.27.841.753H76.84zm4.93 1.705l-.138.341c-.105.264-.148.33-.407.33h-.401V7.1h.539c.395 0 .5-.176.676-.627l1.293-3.278h-.479l-.836 2.239-.864-2.239h-.478l1.094 2.821zm3.067.017c.82 0 1.391-.583 1.391-1.436 0-.852-.572-1.435-1.391-1.435-.82 0-1.392.583-1.392 1.436 0 .852.572 1.435 1.392 1.435zm0-.402c-.556 0-.93-.434-.93-1.034 0-.599.374-1.034.93-1.034.555 0 .93.435.93 1.034 0 .6-.375 1.034-.93 1.034zm3.872-1.034c0 .633-.308 1.023-.82 1.023-.467 0-.731-.308-.731-.89V3.194h-.451v1.562c0 .93.49 1.276 1.105 1.276.462 0 .732-.198.897-.407l.06.374h.391V3.195h-.451v1.403zm4.469 0c0 .633-.308 1.023-.82 1.023-.467 0-.731-.308-.731-.89V3.194h-.451v1.562c0 .93.49 1.276 1.105 1.276.462 0 .732-.198.897-.407l.06.374h.39V3.195h-.45v1.403zm2.44-1.435c-.472 0-.758.198-.923.413l-.06-.38h-.391V6h.45V4.598c0-.633.32-1.023.848-1.023.49 0 .759.307.759.89V6h.45V4.438c0-.93-.5-1.276-1.132-1.276zm3.887.462c-.17-.27-.49-.462-.962-.462-.776 0-1.348.578-1.348 1.436 0 .913.572 1.435 1.348 1.435.473 0 .775-.226.962-.484l.06.451h.391V2.15h-.45v1.474zm-.918 2.007c-.556 0-.93-.423-.93-1.034 0-.61.374-1.034.93-1.034.55 0 .924.43.924 1.046 0 .599-.374 1.022-.924 1.022zm3.276.402c.649 0 1.111-.413 1.221-.974h-.456c-.094.364-.402.572-.798.572-.533 0-.869-.373-.885-.907v-.038h2.178c.005-.066.011-.133.011-.193-.022-.83-.539-1.331-1.331-1.331-.792 0-1.331.583-1.331 1.436 0 .857.55 1.435 1.391 1.435zm-.891-1.722a.83.83 0 01.836-.753c.468 0 .798.27.842.753h-1.678zm3.974-1.116c-.5 0-.715.209-.847.424l-.06-.424h-.391V6h.451V4.57c0-.446.16-.935.748-.935h.226v-.44h-.127zm.343 1.881c.011.616.512.957 1.238.957.621 0 1.122-.325 1.122-.847 0-.622-.512-.742-1.15-.82-.407-.049-.704-.087-.704-.395 0-.259.264-.424.655-.424.385 0 .649.214.682.5h.462c-.044-.582-.506-.88-1.144-.885-.633-.006-1.1.33-1.1.841 0 .583.5.71 1.127.787.418.05.726.077.726.429 0 .258-.28.429-.676.429-.468 0-.759-.242-.776-.572h-.462zm3.069.193c0 .494.193.731.732.731h.489v-.412h-.445c-.242 0-.325-.088-.325-.325V3.608h.726v-.413h-.726v-.786h-.451v.786h-.506v.413h.506v1.66zm4.05.319c-.127 0-.182-.039-.182-.188V4.175c0-.655-.412-1.012-1.127-1.012-.677 0-1.122.325-1.188.875h.451c.055-.286.319-.474.715-.474.44 0 .698.22.698.583v.193h-.825c-.737 0-1.127.313-1.127.874 0 .512.418.82 1.034.82.484 0 .764-.215.94-.468.006.275.132.435.506.435h.248v-.412h-.143zm-.633-.732c0 .468-.324.792-.885.792-.374 0-.611-.187-.611-.462 0-.319.226-.468.627-.468h.869v.138zm2.497-1.694c-.473 0-.759.198-.924.413l-.06-.38h-.391V6h.451V4.598c0-.633.319-1.023.847-1.023.49 0 .759.307.759.89V6h.451V4.438c0-.93-.5-1.276-1.133-1.276zm3.887.462c-.17-.27-.489-.462-.962-.462-.776 0-1.348.578-1.348 1.436 0 .913.572 1.435 1.348 1.435.473 0 .775-.226.962-.484l.061.451h.39V2.15h-.451v1.474zm-.918 2.007c-.556 0-.93-.423-.93-1.034 0-.61.374-1.034.93-1.034.55 0 .924.43.924 1.046 0 .599-.374 1.022-.924 1.022zm3.632-.362c0 .494.192.731.731.731h.49v-.412h-.446c-.242 0-.324-.088-.324-.325V3.608h.726v-.413h-.726v-.786h-.451v.786h-.506v.413h.506v1.66zm2.987-2.107c-.473 0-.759.231-.924.495V2.15h-.451V6h.451V4.598c0-.633.324-1.023.847-1.023.484 0 .764.307.764.89V6h.451V4.438c0-.93-.511-1.276-1.138-1.276zm2.973 2.871c.82 0 1.392-.583 1.392-1.436 0-.852-.572-1.435-1.392-1.435-.819 0-1.391.583-1.391 1.436 0 .852.572 1.435 1.391 1.435zm0-.402c-.555 0-.929-.434-.929-1.034 0-.599.374-1.034.929-1.034.556 0 .93.435.93 1.034 0 .6-.374 1.034-.93 1.034zm1.783-.555c.011.616.511.957 1.237.957.622 0 1.122-.325 1.122-.847 0-.622-.511-.742-1.149-.82-.407-.049-.704-.087-.704-.395 0-.259.264-.424.654-.424.385 0 .649.214.682.5h.462c-.044-.582-.506-.88-1.144-.885-.632-.006-1.1.33-1.1.841 0 .583.501.71 1.128.787.418.05.726.077.726.429 0 .258-.281.429-.677.429-.467 0-.759-.242-.775-.572h-.462zm4.152.957c.649 0 1.111-.413 1.221-.974h-.456c-.094.364-.402.572-.798.572-.533 0-.869-.373-.885-.907v-.038h2.178c.005-.066.011-.133.011-.193-.022-.83-.539-1.331-1.331-1.331-.792 0-1.331.583-1.331 1.436 0 .857.55 1.435 1.391 1.435zm-.891-1.722a.83.83 0 01.836-.753c.468 0 .798.27.842.753h-1.678zm5.414-1.116c-.5 0-.715.209-.847.424l-.06-.424h-.391V6h.451V4.57c0-.446.16-.935.748-.935h.226v-.44h-.127zm.749-.473a.283.283 0 00.291-.292.283.283 0 00-.291-.291.284.284 0 00-.292.292c0 .17.127.291.292.291zM137.808 6h.451V3.195h-.451V6zm.953-.924c.011.616.511.957 1.237.957.622 0 1.122-.325 1.122-.847 0-.622-.511-.742-1.149-.82-.407-.049-.704-.087-.704-.395 0-.259.264-.424.654-.424.385 0 .649.214.682.5h.462c-.044-.582-.506-.88-1.144-.885-.632-.006-1.1.33-1.1.841 0 .583.501.71 1.128.787.418.05.726.077.726.429 0 .258-.281.429-.677.429-.467 0-.759-.242-.775-.572h-.462zm2.86.924h.451v-.737l.566-.583.93 1.32h.544l-1.171-1.644 1.094-1.161h-.555l-1.408 1.49V2.15h-.451V6zm2.608-.924c.011.616.511.957 1.237.957.622 0 1.122-.325 1.122-.847 0-.622-.511-.742-1.149-.82-.407-.049-.704-.087-.704-.395 0-.259.264-.424.654-.424.385 0 .649.214.682.5h.462c-.044-.582-.506-.88-1.144-.885-.632-.006-1.1.33-1.1.841 0 .583.501.71 1.128.787.418.05.726.077.726.429 0 .258-.281.429-.677.429-.467 0-.759-.242-.775-.572h-.462zm5.713-1.914c-.473 0-.776.226-.963.484V2.15h-.451V6h.391l.06-.429c.171.27.49.462.963.462.775 0 1.347-.578 1.347-1.436 0-.913-.572-1.435-1.347-1.435zm-.044 2.47c-.55 0-.924-.43-.924-1.045 0-.6.374-1.023.924-1.023.555 0 .929.423.929 1.034 0 .61-.374 1.034-.929 1.034zm3.199.401c.649 0 1.111-.413 1.221-.974h-.456c-.094.364-.402.572-.798.572-.533 0-.869-.373-.885-.907v-.038h2.178c.005-.066.011-.133.011-.193-.022-.83-.539-1.331-1.331-1.331-.792 0-1.331.583-1.331 1.436 0 .857.55 1.435 1.391 1.435zm-.891-1.722a.83.83 0 01.836-.753c.468 0 .798.27.842.753h-1.678zm2.347-.704h.506V6h.451V3.607h.792v-.412h-.792V2.87c0-.214.082-.308.308-.308h.484V2.15h-.512c-.522 0-.731.236-.731.732v.313h-.506v.413zm3.238 2.426c.82 0 1.392-.583 1.392-1.436 0-.852-.572-1.435-1.392-1.435-.819 0-1.391.583-1.391 1.436 0 .852.572 1.435 1.391 1.435zm0-.402c-.555 0-.929-.434-.929-1.034 0-.599.374-1.034.929-1.034.556 0 .93.435.93 1.034 0 .6-.374 1.034-.93 1.034zm3.207-2.436c-.5 0-.715.209-.847.424l-.06-.424h-.391V6h.451V4.57c0-.446.16-.935.748-.935h.226v-.44h-.127zm1.649 2.838c.649 0 1.111-.413 1.221-.974h-.457c-.093.364-.401.572-.797.572-.534 0-.869-.373-.886-.907v-.038h2.178c.006-.066.011-.133.011-.193-.022-.83-.539-1.331-1.331-1.331-.792 0-1.331.583-1.331 1.436 0 .857.55 1.435 1.392 1.435zm-.891-1.722a.83.83 0 01.836-.753c.467 0 .797.27.841.753h-1.677zm4.324.958c0 .494.193.731.732.731h.489v-.412h-.445c-.242 0-.325-.088-.325-.325V3.608h.726v-.413h-.726v-.786h-.451v.786h-.506v.413h.506v1.66zm2.91-2.074c-.5 0-.715.209-.847.424l-.06-.424h-.391V6h.451V4.57c0-.446.16-.935.748-.935h.226v-.44h-.127zm2.902 2.393c-.127 0-.182-.039-.182-.188V4.175c0-.655-.412-1.012-1.127-1.012-.677 0-1.122.325-1.188.875h.451c.055-.286.319-.474.715-.474.44 0 .698.22.698.583v.193h-.825c-.737 0-1.127.313-1.127.874 0 .512.418.82 1.034.82.484 0 .764-.215.94-.468.006.275.132.435.506.435h.248v-.412h-.143zm-.633-.732c0 .468-.324.792-.885.792-.374 0-.611-.187-.611-.462 0-.319.226-.468.627-.468h.869v.138zm3.301-1.232c-.17-.27-.489-.462-.962-.462-.776 0-1.348.578-1.348 1.436 0 .913.572 1.435 1.348 1.435.473 0 .775-.226.962-.484l.061.451h.39V2.15h-.451v1.474zm-.918 2.007c-.556 0-.93-.423-.93-1.034 0-.61.374-1.034.93-1.034.55 0 .924.43.924 1.046 0 .599-.374 1.022-.924 1.022zm2.214-2.909a.284.284 0 00.292-.292.284.284 0 00-.292-.291.283.283 0 00-.291.292c0 .17.126.291.291.291zM175.625 6h.451V3.195h-.451V6zm2.444-2.838c-.473 0-.759.198-.924.413l-.06-.38h-.391V6h.451V4.598c0-.633.319-1.023.847-1.023.49 0 .759.307.759.89V6h.451V4.438c0-.93-.5-1.276-1.133-1.276zm3.919.517c-.176-.313-.489-.517-.962-.517-.776 0-1.348.578-1.348 1.436 0 .913.572 1.435 1.348 1.435.473 0 .775-.198.962-.517v.33c0 .61-.319.885-.907.885-.468 0-.781-.197-.858-.55h-.462c.071.617.572.952 1.287.952.962 0 1.391-.462 1.391-1.27V3.194h-.39l-.061.484zm-.918 1.953c-.556 0-.93-.424-.93-1.034 0-.611.374-1.034.93-1.034.55 0 .924.429.924 1.045 0 .599-.374 1.022-.924 1.022zm1.929.093c0 .187.132.308.313.308.182 0 .314-.121.314-.308s-.132-.308-.314-.308c-.181 0-.313.121-.313.308zm4.272-3.168l-.644.297.017-.71h-.314l.011.704-.638-.291-.126.308.671.247-.462.545.236.22.457-.577.462.577.242-.22-.457-.539.671-.248-.126-.313zM188.029 6h.478V4.317h1.584v-.44h-1.584V2.59h1.914v-.44h-2.392V6zM192 3.195c-.5 0-.715.209-.847.424l-.06-.424h-.391V6h.451V4.57c0-.446.16-.935.748-.935h.226v-.44H192zm1.649 2.838c.819 0 1.391-.583 1.391-1.436 0-.852-.572-1.435-1.391-1.435-.82 0-1.392.583-1.392 1.436 0 .852.572 1.435 1.392 1.435zm0-.402c-.556 0-.93-.434-.93-1.034 0-.599.374-1.034.93-1.034.555 0 .929.435.929 1.034 0 .6-.374 1.034-.929 1.034zm5.038-2.469c-.5 0-.803.231-.973.534-.16-.358-.495-.534-.886-.534a.95.95 0 00-.819.418l-.061-.385h-.39V6h.451V4.52c0-.56.28-.945.742-.945.429 0 .677.285.677.835V6h.451V4.498c0-.572.286-.924.753-.924.424 0 .666.287.666.837V6h.451V4.383c0-.885-.479-1.221-1.062-1.221zm3.69-.594c0 .192-.088.33-.27.33h-.627v.413h.622c.121 0 .209-.022.264-.072V6h.462V2.15h-.451v.418zM205.023 6h.467V2.964L206.766 6h.424l1.276-3.036V6h.467V2.15h-.594l-1.347 3.196-1.364-3.196h-.605V6zm7.071-.412c-.126 0-.181-.039-.181-.188V4.175c0-.655-.413-1.012-1.128-1.012-.676 0-1.122.325-1.188.875h.451c.055-.286.319-.474.715-.474.44 0 .699.22.699.583v.193h-.825c-.737 0-1.128.313-1.128.874 0 .512.418.82 1.034.82.484 0 .765-.215.941-.468.005.275.132.435.506.435h.247v-.412h-.143zm-.632-.732c0 .468-.325.792-.886.792-.374 0-.61-.187-.61-.462 0-.319.225-.468.627-.468h.869v.138zm2.42-1.661c-.501 0-.715.209-.847.424l-.061-.424h-.39V6h.451V4.57c0-.446.159-.935.748-.935h.225v-.44h-.126zm.425 2.228c-.231 0-.363.137-.363.319 0 .197.127.296.292.296a.278.278 0 00.187-.066c.005.022.005.044.005.072 0 .187-.11.435-.462.44v.258c.484-.01.776-.291.776-.758 0-.303-.165-.561-.435-.561zm3.629.61c.682 0 1.139-.385 1.249-.99h-.479c-.088.357-.363.588-.764.588-.539 0-.902-.418-.902-1.028 0-.61.363-1.04.902-1.04.412 0 .687.226.77.6h.473c-.116-.616-.55-1.001-1.238-1.001-.814 0-1.369.583-1.369 1.441 0 .875.539 1.43 1.358 1.43zm3.036 0c.819 0 1.391-.583 1.391-1.436 0-.852-.572-1.435-1.391-1.435-.82 0-1.392.583-1.392 1.436 0 .852.572 1.435 1.392 1.435zm0-.402c-.556 0-.93-.434-.93-1.034 0-.599.374-1.034.93-1.034.555 0 .929.435.929 1.034 0 .6-.374 1.034-.929 1.034zm5.038-2.469c-.501 0-.803.231-.974.534-.159-.358-.495-.534-.885-.534a.952.952 0 00-.82.418l-.06-.385h-.391V6h.451V4.52c0-.56.281-.945.743-.945.429 0 .676.285.676.835V6h.451V4.498c0-.572.286-.924.754-.924.423 0 .665.287.665.837V6h.451V4.383c0-.885-.478-1.221-1.061-1.221zm4.769 0c-.5 0-.803.231-.973.534-.16-.358-.495-.534-.886-.534a.95.95 0 00-.819.418l-.061-.385h-.39V6h.451V4.52c0-.56.28-.945.742-.945.429 0 .677.285.677.835V6h.451V4.498c0-.572.286-.924.753-.924.424 0 .666.287.666.837V6h.451V4.383c0-.885-.479-1.221-1.062-1.221zm1.871-.44a.284.284 0 00.292-.292.284.284 0 00-.292-.291.283.283 0 00-.291.292c0 .17.126.291.291.291zM232.419 6h.451V3.195h-.451V6zm.954-.924c.011.616.511.957 1.237.957.622 0 1.122-.325 1.122-.847 0-.622-.511-.742-1.149-.82-.407-.049-.704-.087-.704-.395 0-.259.264-.424.654-.424.385 0 .649.214.682.5h.462c-.044-.582-.506-.88-1.144-.885-.632-.006-1.1.33-1.1.841 0 .583.501.71 1.128.787.418.05.726.077.726.429 0 .258-.281.429-.677.429-.467 0-.759-.242-.775-.572h-.462zm2.691 0c.011.616.511.957 1.237.957.622 0 1.122-.325 1.122-.847 0-.622-.511-.742-1.149-.82-.407-.049-.704-.087-.704-.395 0-.259.264-.424.654-.424.385 0 .649.214.682.5h.462c-.044-.582-.506-.88-1.144-.885-.632-.006-1.1.33-1.1.841 0 .583.501.71 1.128.787.418.05.726.077.726.429 0 .258-.281.429-.677.429-.467 0-.759-.242-.775-.572h-.462zm3.091-2.354a.283.283 0 00.291-.292.283.283 0 00-.291-.291.284.284 0 00-.292.292c0 .17.127.291.292.291zM238.924 6h.451V3.195h-.451V6zm2.361.033c.82 0 1.392-.583 1.392-1.436 0-.852-.572-1.435-1.392-1.435-.819 0-1.391.583-1.391 1.436 0 .852.572 1.435 1.391 1.435zm0-.402c-.555 0-.929-.434-.929-1.034 0-.599.374-1.034.929-1.034.556 0 .93.435.93 1.034 0 .6-.374 1.034-.93 1.034zm3.284-2.469c-.473 0-.759.198-.924.413l-.061-.38h-.39V6h.451V4.598c0-.633.319-1.023.847-1.023.489 0 .759.307.759.89V6h.451V4.438c0-.93-.501-1.276-1.133-1.276zm1.592 1.914c.011.616.512.957 1.238.957.621 0 1.122-.325 1.122-.847 0-.622-.512-.742-1.15-.82-.407-.049-.704-.087-.704-.395 0-.259.264-.424.655-.424.385 0 .649.214.682.5h.462c-.044-.582-.506-.88-1.144-.885-.633-.006-1.1.33-1.1.841 0 .583.5.71 1.127.787.418.05.726.077.726.429 0 .258-.28.429-.676.429-.468 0-.759-.242-.776-.572h-.462zm4.184 0c.011.616.512.957 1.238.957.621 0 1.122-.325 1.122-.847 0-.622-.512-.742-1.15-.82-.407-.049-.704-.087-.704-.395 0-.259.264-.424.655-.424.385 0 .649.214.682.5h.462c-.044-.582-.506-.88-1.144-.885-.633-.006-1.1.33-1.1.841 0 .583.5.71 1.127.787.418.05.726.077.726.429 0 .258-.28.429-.676.429-.468 0-.759-.242-.776-.572h-.462zm3.069.193c0 .494.193.731.732.731h.489v-.412h-.445c-.242 0-.325-.088-.325-.325V3.608h.726v-.413h-.726v-.786h-.451v.786h-.506v.413h.506v1.66zm4.05.319c-.127 0-.182-.039-.182-.188V4.175c0-.655-.412-1.012-1.127-1.012-.677 0-1.122.325-1.188.875h.451c.055-.286.319-.474.715-.474.44 0 .698.22.698.583v.193h-.825c-.737 0-1.127.313-1.127.874 0 .512.418.82 1.034.82.484 0 .764-.215.94-.468.006.275.132.435.506.435h.248v-.412h-.143zm-.633-.732c0 .468-.324.792-.885.792-.374 0-.611-.187-.611-.462 0-.319.226-.468.627-.468h.869v.138zm2.421-1.661c-.501 0-.715.209-.847.424l-.061-.424h-.39V6h.451V4.57c0-.446.159-.935.748-.935h.225v-.44h-.126zm.817 2.074c0 .494.193.731.732.731h.489v-.412h-.445c-.242 0-.325-.088-.325-.325V3.608h.726v-.413h-.726v-.786h-.451v.786h-.506v.413h.506v1.66zm2.755-1.662h.506V6h.451V3.607h.792v-.412h-.792V2.87c0-.214.082-.308.308-.308h.484V2.15h-.512c-.523 0-.731.236-.731.732v.313h-.506v.413zm3.372-.412c-.5 0-.715.209-.847.424l-.06-.424h-.391V6h.451V4.57c0-.446.16-.935.748-.935h.226v-.44h-.127zm1.649 2.838c.82 0 1.392-.583 1.392-1.436 0-.852-.572-1.435-1.392-1.435-.819 0-1.391.583-1.391 1.436 0 .852.572 1.435 1.391 1.435zm0-.402c-.555 0-.929-.434-.929-1.034 0-.599.374-1.034.929-1.034.556 0 .93.435.93 1.034 0 .6-.374 1.034-.93 1.034zm5.038-2.469c-.5 0-.803.231-.973.534-.16-.358-.495-.534-.886-.534a.95.95 0 00-.819.418l-.061-.385h-.39V6h.451V4.52c0-.56.28-.945.742-.945.429 0 .677.285.677.835V6h.451V4.498c0-.572.286-.924.753-.924.424 0 .666.287.666.837V6h.451V4.383c0-.885-.479-1.221-1.062-1.221zm3.124 1.194c0 1.1.5 1.677 1.463 1.677.962 0 1.474-.578 1.474-1.678V2.15h-.479v2.233c0 .798-.319 1.21-.995 1.21-.666 0-.985-.412-.985-1.21V2.15h-.478v2.206zm3.509.385c.028.759.578 1.292 1.518 1.292.809 0 1.37-.468 1.37-1.133 0-.748-.644-.957-1.271-1.062-.577-.099-1.045-.192-1.045-.654 0-.413.336-.633.836-.633.523 0 .88.292.935.737h.495c-.044-.692-.572-1.171-1.43-1.171-.781 0-1.314.44-1.314 1.095 0 .747.638.951 1.259 1.055.583.1 1.056.198 1.056.677 0 .418-.368.654-.885.654-.589 0-.99-.34-1.029-.857h-.495zM284.243 6c1.205 0 1.936-.776 1.936-1.925 0-1.155-.731-1.925-1.936-1.925h-1.232V6h1.232zm-.753-3.41h.753c.935 0 1.447.583 1.447 1.485 0 .896-.512 1.485-1.447 1.485h-.753V2.59zm6.025 2.31c0-.748-.643-.957-1.27-1.062-.578-.099-1.045-.192-1.045-.654 0-.413.335-.633.836-.633.522 0 .88.292.935.737h.495c-.039-.615-.457-1.061-1.15-1.154v-.578h-.418v.567c-.704.049-1.177.472-1.177 1.088 0 .748.638.952 1.26 1.057.583.099 1.056.197 1.056.676 0 .418-.369.654-.886.654-.588 0-.99-.34-1.028-.857h-.495c.027.687.484 1.193 1.27 1.281v.566h.418v-.56c.715-.061 1.199-.512 1.199-1.128zm2.428-.902c.369-.099.622-.38.622-.864 0-.604-.501-1.017-1.293-1.017-.759 0-1.287.467-1.292 1.144h.456c.006-.44.358-.732.842-.732.462 0 .814.243.814.633s-.286.676-.858.676h-.303v.402h.33c.6 0 .93.258.93.66 0 .44-.385.72-.886.72-.544 0-.94-.302-.946-.808h-.456c0 .764.539 1.221 1.375 1.221s1.386-.446 1.386-1.1c0-.588-.369-.869-.721-.935zm1.066 1.727c0 .187.132.308.314.308.181 0 .313-.121.313-.308s-.132-.308-.313-.308c-.182 0-.314.121-.314.308z" fill="#000"/></svg>