<svg width="150" height="11" viewBox="0 0 150 11" fill="none" xmlns="http://www.w3.org/2000/svg"><path d="M.396 1.411h4.191L.275 7.131V8h6.16V6.889H2.002l4.312-5.72V.3H.396v1.111zm9.295 6.655c1.397 0 2.343-.847 2.54-1.958h-1.187c-.165.627-.693.99-1.42.99-.934 0-1.54-.627-1.572-1.584v-.077h4.246c.022-.154.033-.308.033-.451-.033-1.65-1.122-2.684-2.75-2.684-1.661 0-2.772 1.155-2.772 2.893 0 1.727 1.11 2.871 2.882 2.871zM8.096 4.568c.088-.803.737-1.309 1.496-1.309.825 0 1.408.473 1.507 1.309H8.096zm8.044-2.2c-.924 0-1.375.374-1.661.847l-.132-.847h-1.056V8h1.188V5.173c0-.869.341-1.694 1.397-1.694h.528V2.368h-.264zm3.39 5.698c1.716 0 2.871-1.155 2.871-2.882 0-1.716-1.155-2.882-2.87-2.882-1.717 0-2.872 1.166-2.872 2.882 0 1.727 1.155 2.882 2.871 2.882zm0-1.012c-1 0-1.65-.781-1.65-1.87s.65-1.87 1.65-1.87c1.001 0 1.661.781 1.661 1.87s-.66 1.87-1.66 1.87zm9.655-4.752c-.88 0-1.463.407-1.837.902l-.143-.836H26.17V10.2h1.188V7.208c.352.506.957.858 1.826.858 1.54 0 2.662-1.144 2.662-2.882 0-1.804-1.122-2.882-2.662-2.882zm-.198 4.763c-.99 0-1.64-.781-1.64-1.903 0-1.089.65-1.848 1.64-1.848.99 0 1.65.759 1.65 1.87 0 1.1-.66 1.881-1.65 1.881zm4.417-5.489c.407 0 .726-.297.726-.715s-.32-.715-.726-.715c-.407 0-.726.297-.726.715s.319.715.726.715zM32.799 8h1.188V2.368h-1.188V8zm5.366-5.698c-.88 0-1.463.407-1.837.902l-.143-.836h-1.034V10.2h1.188V7.208c.352.506.957.858 1.826.858 1.54 0 2.662-1.144 2.662-2.882 0-1.804-1.122-2.882-2.662-2.882zm-.198 4.763c-.99 0-1.639-.781-1.639-1.903 0-1.089.65-1.848 1.64-1.848.99 0 1.65.759 1.65 1.87 0 1.1-.66 1.881-1.65 1.881zm3.538-.924c.033 1.221 1.067 1.925 2.574 1.925 1.364 0 2.387-.682 2.387-1.76 0-1.254-1.045-1.518-2.332-1.672-.814-.088-1.353-.154-1.353-.682 0-.451.462-.737 1.166-.737s1.188.363 1.254.88h1.166c-.077-1.155-1.056-1.793-2.442-1.793-1.353-.011-2.31.682-2.31 1.749 0 1.166 1.012 1.441 2.3 1.595.868.11 1.385.154 1.385.759 0 .451-.484.737-1.22.737-.859 0-1.365-.418-1.409-1.001h-1.166zm5.697 1.177c0 .44.319.748.759.748s.77-.308.77-.748-.33-.748-.77-.748-.76.308-.76.748zm5.197-5.907h4.19l-4.311 5.72V8h6.16V6.889h-4.433l4.312-5.72V.3h-5.918v1.111zm9.294 6.655c1.398 0 2.344-.847 2.541-1.958h-1.187c-.165.627-.694.99-1.42.99-.934 0-1.54-.627-1.573-1.584v-.077H64.3c.023-.154.034-.308.034-.451-.034-1.65-1.123-2.684-2.75-2.684-1.662 0-2.773 1.155-2.773 2.893 0 1.727 1.111 2.871 2.883 2.871zM60.1 4.568c.088-.803.737-1.309 1.495-1.309.825 0 1.408.473 1.508 1.309h-3.003zm8.044-2.2c-.924 0-1.375.374-1.661.847l-.132-.847h-1.056V8h1.188V5.173c0-.869.34-1.694 1.397-1.694h.528V2.368h-.264zm3.39 5.698c1.716 0 2.871-1.155 2.871-2.882 0-1.716-1.155-2.882-2.87-2.882-1.717 0-2.872 1.166-2.872 2.882 0 1.727 1.155 2.882 2.871 2.882zm0-1.012c-1 0-1.65-.781-1.65-1.87s.65-1.87 1.65-1.87c1.001 0 1.661.781 1.661 1.87s-.66 1.87-1.66 1.87zm9.226 1.012c1.44 0 2.398-.803 2.618-2.079h-1.254c-.143.649-.627 1.067-1.353 1.067-.957 0-1.584-.759-1.584-1.859 0-1.111.627-1.881 1.584-1.881.737 0 1.21.407 1.364 1.067h1.243c-.231-1.276-1.133-2.079-2.585-2.079-1.705 0-2.827 1.155-2.827 2.893 0 1.76 1.089 2.871 2.794 2.871zm6.19 0c1.715 0 2.87-1.155 2.87-2.882 0-1.716-1.155-2.882-2.87-2.882-1.717 0-2.872 1.166-2.872 2.882 0 1.727 1.155 2.882 2.871 2.882zm0-1.012c-1.002 0-1.65-.781-1.65-1.87s.648-1.87 1.65-1.87c1 0 1.66.781 1.66 1.87s-.66 1.87-1.66 1.87zm10.304-4.752c-.924 0-1.562.407-1.925 1.023-.34-.726-1-1.023-1.738-1.023-.847.011-1.33.385-1.65.803l-.132-.737h-1.034V8h1.188V4.986c0-1.001.506-1.661 1.32-1.661.781 0 1.188.517 1.188 1.507V8h1.2V4.953c0-1.012.516-1.628 1.33-1.628.77 0 1.177.517 1.177 1.507V8h1.188V4.755c0-1.782-.946-2.453-2.112-2.453zm9.668 0c-.924 0-1.562.407-1.925 1.023-.341-.726-1.001-1.023-1.738-1.023-.847.011-1.331.385-1.65.803l-.132-.737h-1.034V8h1.188V4.986c0-1.001.506-1.661 1.32-1.661.781 0 1.188.517 1.188 1.507V8h1.199V4.953c0-1.012.517-1.628 1.331-1.628.77 0 1.177.517 1.177 1.507V8h1.188V4.755c0-1.782-.946-2.453-2.112-2.453zm3.794-.726c.407 0 .726-.297.726-.715s-.319-.715-.726-.715-.726.297-.726.715.319.715.726.715zM110.11 8h1.188V2.368h-1.188V8zm2.111-1.859c.033 1.221 1.067 1.925 2.574 1.925 1.364 0 2.387-.682 2.387-1.76 0-1.254-1.045-1.518-2.332-1.672-.814-.088-1.353-.154-1.353-.682 0-.451.462-.737 1.166-.737s1.188.363 1.254.88h1.166c-.077-1.155-1.056-1.793-2.442-1.793-1.353-.011-2.31.682-2.31 1.749 0 1.166 1.012 1.441 2.299 1.595.869.11 1.386.154 1.386.759 0 .451-.484.737-1.221.737-.858 0-1.364-.418-1.408-1.001h-1.166zm5.532 0c.033 1.221 1.067 1.925 2.574 1.925 1.364 0 2.387-.682 2.387-1.76 0-1.254-1.045-1.518-2.332-1.672-.814-.088-1.353-.154-1.353-.682 0-.451.462-.737 1.166-.737s1.188.363 1.254.88h1.166c-.077-1.155-1.056-1.793-2.442-1.793-1.353-.011-2.31.682-2.31 1.749 0 1.166 1.012 1.441 2.299 1.595.869.11 1.386.154 1.386.759 0 .451-.484.737-1.221.737-.858 0-1.364-.418-1.408-1.001h-1.166zm6.487-4.565c.407 0 .726-.297.726-.715s-.319-.715-.726-.715-.726.297-.726.715.319.715.726.715zM123.635 8h1.188V2.368h-1.188V8zm5.014.066c1.716 0 2.871-1.155 2.871-2.882 0-1.716-1.155-2.882-2.871-2.882s-2.871 1.166-2.871 2.882c0 1.727 1.155 2.882 2.871 2.882zm0-1.012c-1.001 0-1.65-.781-1.65-1.87s.649-1.87 1.65-1.87 1.661.781 1.661 1.87-.66 1.87-1.661 1.87zm6.797-4.752c-.913 0-1.452.363-1.804.803l-.132-.737h-1.034V8h1.188V5.162c0-1.144.561-1.837 1.507-1.837.891 0 1.342.572 1.342 1.639V8h1.199V4.865c0-1.881-1.023-2.563-2.266-2.563zm3.104 3.839c.033 1.221 1.067 1.925 2.574 1.925 1.364 0 2.387-.682 2.387-1.76 0-1.254-1.045-1.518-2.332-1.672-.814-.088-1.353-.154-1.353-.682 0-.451.462-.737 1.166-.737s1.188.363 1.254.88h1.166c-.077-1.155-1.056-1.793-2.442-1.793-1.353-.011-2.31.682-2.31 1.749 0 1.166 1.012 1.441 2.299 1.595.869.11 1.386.154 1.386.759 0 .451-.484.737-1.221.737-.858 0-1.364-.418-1.408-1.001h-1.166zm5.696 1.177c0 .44.319.748.759.748s.77-.308.77-.748-.33-.748-.77-.748-.759.308-.759.748zm4.873-6.259l-1.21.583.033-1.353h-.814l.033 1.342-1.199-.572-.33.77 1.298.484-.902 1.023.627.55.869-1.144.88 1.155.638-.55-.902-1.023 1.309-.484-.33-.781z" fill="#000"/></svg>