<svg width="118" height="38" viewBox="0 0 118 38" fill="none" xmlns="http://www.w3.org/2000/svg"><path d="M.38 2.638h4.104V14h2.185V2.638h4.104V.7H.38v1.938zm15.79 1.634c-1.596 0-2.375.646-2.869 1.463l-.228-1.463H11.25V14h2.052V9.117c0-1.501.59-2.926 2.413-2.926h.912V4.272h-.456zm10.317 7.942c-.418 0-.627-.133-.627-.627V7.692c0-2.299-1.482-3.534-4.066-3.534-2.451 0-4.085 1.178-4.294 3.078h2.014c.152-.855.969-1.425 2.185-1.425 1.349 0 2.128.665 2.128 1.748v.589h-2.451c-2.717 0-4.161 1.121-4.161 3.116 0 1.805 1.482 2.85 3.61 2.85 1.577 0 2.565-.684 3.21-1.672 0 .969.457 1.558 1.787 1.558h1.083v-1.786h-.418zm-2.66-2.204c-.02 1.501-1.007 2.508-2.717 2.508-1.121 0-1.805-.57-1.805-1.387 0-.988.703-1.463 1.976-1.463h2.546v.342zm11.512-4.389c-.627-.855-1.672-1.463-3.154-1.463-2.64 0-4.598 1.976-4.598 4.978 0 3.116 1.957 4.978 4.598 4.978 1.54 0 2.546-.722 3.173-1.577L35.605 14h1.786V.7H35.34v4.921zm-2.812 6.764c-1.71 0-2.83-1.33-2.83-3.249 0-1.9 1.12-3.23 2.83-3.23s2.831 1.33 2.831 3.268c0 1.881-1.12 3.211-2.83 3.211zm11.487 1.729c2.413 0 4.047-1.463 4.389-3.382H46.35c-.285 1.083-1.197 1.71-2.451 1.71-1.615 0-2.66-1.083-2.717-2.736v-.133h7.334c.038-.266.057-.532.057-.779-.057-2.85-1.938-4.636-4.75-4.636-2.87 0-4.788 1.995-4.788 4.997 0 2.983 1.919 4.959 4.978 4.959zm-2.755-6.042c.152-1.387 1.273-2.261 2.584-2.261 1.425 0 2.432.817 2.603 2.261h-5.187zm19.82 6.042c2.109 0 3.477-.95 4.123-1.9l.19 1.786h1.69V6.723h-5.775v1.843h3.686v.323c-.114 2.147-1.767 3.306-3.82 3.306-2.545 0-4.141-1.995-4.141-4.845 0-2.85 1.634-4.845 4.16-4.845 1.844 0 3.117 1.026 3.516 2.717h2.26C66.57 2.41 64.329.586 61.25.586c-3.952 0-6.46 2.717-6.46 6.764 0 4.047 2.565 6.764 6.289 6.764zm12.826 0c2.964 0 4.959-1.995 4.959-4.978 0-2.964-1.995-4.978-4.96-4.978-2.963 0-4.958 2.014-4.958 4.978 0 2.983 1.995 4.978 4.959 4.978zm0-1.748c-1.73 0-2.85-1.349-2.85-3.23s1.12-3.23 2.85-3.23c1.729 0 2.869 1.349 2.869 3.23s-1.14 3.23-2.87 3.23zM80.514 14h2.052V.7h-2.052V14zm11.454-8.379c-.627-.855-1.672-1.463-3.154-1.463-2.64 0-4.598 1.976-4.598 4.978 0 3.116 1.957 4.978 4.598 4.978 1.54 0 2.546-.722 3.173-1.577L92.234 14h1.786V.7h-2.052v4.921zm-2.812 6.764c-1.71 0-2.83-1.33-2.83-3.249 0-1.9 1.12-3.23 2.83-3.23s2.831 1.33 2.831 3.268c0 1.881-1.12 3.211-2.83 3.211zM3.25 37h2.223L7.6 30.388 9.652 37h2.204l3.23-9.728h-2.09l-2.299 7.448-2.128-7.448H6.688L4.465 34.72l-2.223-7.448H.076L3.249 37zm13.962-11.096c.703 0 1.254-.513 1.254-1.235 0-.722-.55-1.235-1.254-1.235-.703 0-1.254.513-1.254 1.235 0 .722.551 1.235 1.254 1.235zM16.166 37h2.052v-9.728h-2.052V37zm4.767-2.641c0 1.767.798 2.641 2.66 2.641h1.9v-1.805h-1.444c-.78 0-1.045-.285-1.045-1.045v-5.073h2.375v-1.805h-2.375v-2.717h-2.071v2.717h-1.691v1.805h1.69v5.282zm10.976-7.201c-1.52 0-2.451.684-3.059 1.52V23.7h-2.052V37h2.052v-4.921c0-1.957.988-3.154 2.603-3.154 1.52 0 2.337.988 2.337 2.831V37h2.052v-5.415c0-3.249-1.767-4.427-3.933-4.427zm10.323 9.956c2.964 0 4.959-1.995 4.959-4.978 0-2.964-1.995-4.978-4.959-4.978-2.964 0-4.959 2.014-4.959 4.978 0 2.983 1.995 4.978 4.959 4.978zm0-1.748c-1.729 0-2.85-1.349-2.85-3.23s1.121-3.23 2.85-3.23 2.869 1.349 2.869 3.23-1.14 3.23-2.869 3.23zm13.278-3.23c0 2.014-.95 3.192-2.508 3.192-1.501 0-2.261-.969-2.261-2.869v-5.187h-2.052v5.415c0 3.325 1.767 4.427 3.838 4.427 1.501 0 2.394-.608 3.002-1.349L55.757 37h1.805v-9.728H55.51v4.864zm4.833 2.223c0 1.767.798 2.641 2.66 2.641h1.9v-1.805h-1.444c-.78 0-1.045-.285-1.045-1.045v-5.073h2.375v-1.805h-2.375v-2.717h-2.071v2.717h-1.691v1.805h1.69v5.282zm15.191 2.755c2.49 0 4.142-1.387 4.522-3.591h-2.165c-.248 1.121-1.084 1.843-2.338 1.843-1.653 0-2.736-1.311-2.736-3.211 0-1.919 1.084-3.249 2.737-3.249 1.272 0 2.09.703 2.355 1.843h2.147c-.398-2.204-1.956-3.591-4.465-3.591-2.944 0-4.882 1.995-4.882 4.997 0 3.04 1.88 4.959 4.825 4.959zm10.691 0c2.964 0 4.96-1.995 4.96-4.978 0-2.964-1.996-4.978-4.96-4.978s-4.959 2.014-4.959 4.978c0 2.983 1.995 4.978 4.96 4.978zm0-1.748c-1.729 0-2.85-1.349-2.85-3.23s1.121-3.23 2.85-3.23c1.73 0 2.87 1.349 2.87 3.23s-1.14 3.23-2.87 3.23zm6.136-1.577c.056 2.109 1.843 3.325 4.445 3.325 2.356 0 4.123-1.178 4.123-3.04 0-2.166-1.805-2.622-4.028-2.888-1.405-.152-2.337-.266-2.337-1.178 0-.779.799-1.273 2.015-1.273 1.216 0 2.052.627 2.166 1.52h2.013c-.133-1.995-1.823-3.097-4.218-3.097-2.337-.019-3.99 1.178-3.99 3.021 0 2.014 1.749 2.489 3.972 2.755 1.5.19 2.393.266 2.393 1.311 0 .779-.836 1.273-2.109 1.273-1.481 0-2.355-.722-2.431-1.729H92.36zm10.862.57c0 1.767.798 2.641 2.66 2.641h1.9v-1.805h-1.444c-.779 0-1.045-.285-1.045-1.045v-5.073h2.375v-1.805h-2.375v-2.717h-2.071v2.717h-1.691v1.805h1.691v5.282zm5.447-.57c.057 2.109 1.843 3.325 4.446 3.325 2.356 0 4.123-1.178 4.123-3.04 0-2.166-1.805-2.622-4.028-2.888-1.406-.152-2.337-.266-2.337-1.178 0-.779.798-1.273 2.014-1.273 1.216 0 2.052.627 2.166 1.52h2.014c-.133-1.995-1.824-3.097-4.218-3.097-2.337-.019-3.99 1.178-3.99 3.021 0 2.014 1.748 2.489 3.971 2.755 1.501.19 2.394.266 2.394 1.311 0 .779-.836 1.273-2.109 1.273-1.482 0-2.356-.722-2.432-1.729h-2.014z" fill="#000"/></svg>