<svg width="553" height="14" viewBox="0 0 553 14" fill="none" xmlns="http://www.w3.org/2000/svg"><path d="M7.099 10.098c-.42 0-.63-.14-.63-.686V6.108c0-1.624-.994-2.534-2.772-2.534-1.624 0-2.702.784-2.884 2.072h.714c.182-.868.938-1.442 2.142-1.442 1.33 0 2.086.7 2.086 1.876v.616H3.347c-1.82 0-2.8.784-2.8 2.114 0 1.26.994 2.03 2.506 2.03 1.442 0 2.296-.658 2.73-1.54v.252c-.028.84.322 1.204 1.162 1.204h.42v-.658h-.266zM5.755 7.886c0 1.358-.966 2.338-2.646 2.338-1.134 0-1.834-.574-1.834-1.456 0-.938.7-1.456 2.016-1.456h2.464v.574zm5.84-4.312c-1.302 0-2.142.672-2.548 1.596l-.112-1.512H8.32v7.098h.714v-3.5c0-1.848.938-3.024 2.45-3.024 1.372 0 2.198.896 2.198 2.576v3.948h.714V6.78c0-2.24-1.19-3.206-2.8-3.206zm10.067 1.68c-.434-1.008-1.386-1.68-2.716-1.68C17 3.574 15.6 5.058 15.6 7.2c0 2.24 1.4 3.64 3.346 3.64 1.33 0 2.254-.714 2.702-1.708l.112 1.624h.616v-9.8h-.714v4.298zm-2.66 4.942c-1.582 0-2.674-1.232-2.674-2.996 0-1.75 1.092-2.996 2.674-2.996 1.582 0 2.674 1.246 2.674 3.01 0 1.75-1.092 2.982-2.674 2.982zM31.26 3.574c-1.33 0-2.268.728-2.716 1.736V.956h-.714v9.8h.616l.112-1.61c.42 1.022 1.372 1.694 2.702 1.694 1.946 0 3.346-1.484 3.346-3.64 0-2.226-1.4-3.626-3.346-3.626zm-.056 6.622c-1.582 0-2.674-1.232-2.674-3.01 0-1.736 1.092-2.982 2.674-2.982 1.582 0 2.674 1.246 2.674 2.996 0 1.764-1.092 2.996-2.674 2.996zm4.816.56h.714v-9.8h-.714v9.8zm5.528.084c2.002 0 3.416-1.484 3.416-3.64 0-2.142-1.414-3.626-3.416-3.626S38.145 5.058 38.145 7.2c0 2.156 1.4 3.64 3.402 3.64zm0-.644c-1.582 0-2.674-1.232-2.674-2.996 0-1.75 1.092-2.996 2.674-2.996 1.582 0 2.674 1.246 2.674 2.996 0 1.764-1.092 2.996-2.674 2.996zm7.929.644c1.61 0 2.744-.924 3.024-2.366h-.756c-.238 1.05-1.092 1.722-2.268 1.722-1.554 0-2.632-1.218-2.632-2.982 0-1.764 1.064-3.01 2.632-3.01 1.19 0 2.03.672 2.282 1.736h.742c-.294-1.47-1.4-2.366-3.01-2.366-2.002 0-3.374 1.484-3.374 3.64 0 2.184 1.358 3.626 3.36 3.626zm4.412-.084h.714V8.838l1.666-1.708 2.716 3.626h.868l-3.094-4.144 2.856-2.954h-.882l-4.13 4.256V.956h-.714v9.8zm13.8.084c2.002 0 3.416-1.484 3.416-3.64 0-2.142-1.414-3.626-3.416-3.626S64.286 5.058 64.286 7.2c0 2.156 1.4 3.64 3.402 3.64zm0-.644c-1.582 0-2.674-1.232-2.674-2.996 0-1.75 1.092-2.996 2.674-2.996 1.582 0 2.674 1.246 2.674 2.996 0 1.764-1.092 2.996-2.674 2.996zm9.986-3.052c0 1.862-.924 3.038-2.394 3.038-1.316 0-2.127-.896-2.127-2.59V3.658h-.715v3.976c0 2.226 1.162 3.206 2.73 3.206 1.26 0 2.086-.672 2.492-1.582l.099 1.498h.63V3.658h-.715v3.486zm2.941 1.96c0 1.134.462 1.652 1.666 1.652h1.036v-.658h-.98c-.742 0-1.008-.28-1.008-1.008V4.316h1.918v-.658h-1.918V1.67h-.714v1.988h-1.344v.658h1.344v4.788zm8.094 0c0 1.134.462 1.652 1.666 1.652h1.036v-.658h-.98c-.742 0-1.008-.28-1.008-1.008V4.316h1.918v-.658h-1.918V1.67h-.714v1.988h-1.344v.658h1.344v4.788zm7.064-5.53c-1.33 0-2.156.742-2.562 1.764V.956h-.714v9.8h.714v-3.5c0-1.848.938-3.024 2.45-3.024 1.358 0 2.198.896 2.198 2.576v3.948h.714V6.78c0-2.24-1.19-3.206-2.8-3.206zm7.421 7.266c1.554 0 2.744-1.008 3.052-2.436h-.728c-.28 1.106-1.218 1.792-2.38 1.792-1.582 0-2.576-1.204-2.604-2.856v-.126h5.796c0-.098.014-.21.014-.294-.07-2.114-1.372-3.346-3.276-3.346-1.946 0-3.276 1.484-3.276 3.584 0 2.226 1.386 3.682 3.402 3.682zm-2.604-4.228c.112-1.442 1.19-2.408 2.492-2.408 1.386 0 2.38.854 2.492 2.408h-4.984zm14.214-3.038c-1.302 0-2.142.672-2.548 1.596l-.112-1.512h-.616v7.098h.714v-3.5c0-1.848.938-3.024 2.45-3.024 1.372 0 2.198.896 2.198 2.576v3.948h.714V6.78c0-2.24-1.19-3.206-2.8-3.206zm7.407 7.266c2.002 0 3.416-1.484 3.416-3.64 0-2.142-1.414-3.626-3.416-3.626s-3.402 1.484-3.402 3.626c0 2.156 1.4 3.64 3.402 3.64zm0-.644c-1.582 0-2.674-1.232-2.674-2.996 0-1.75 1.092-2.996 2.674-2.996 1.582 0 2.674 1.246 2.674 2.996 0 1.764-1.092 2.996-2.674 2.996zm5.199-8.036c.28 0 .504-.21.504-.504a.493.493 0 00-.504-.504c-.28 0-.504.21-.504.504 0 .294.224.504.504.504zm-.364 8.596h.714V3.658h-.714v7.098zm2.071-2.184c.056 1.47 1.246 2.268 3.024 2.268 1.526 0 2.758-.77 2.758-2.03 0-1.498-1.316-1.792-2.842-2.002-1.106-.154-2.086-.28-2.086-1.274 0-.812.798-1.344 2.002-1.344 1.134 0 1.946.546 2.072 1.47h.728c-.126-1.386-1.26-2.086-2.8-2.086-1.582-.014-2.716.798-2.716 2.016 0 1.428 1.316 1.694 2.772 1.89 1.19.168 2.156.322 2.156 1.372 0 .84-.882 1.372-2.044 1.372-1.358 0-2.24-.63-2.296-1.652h-.728zm10.28 2.268c1.554 0 2.744-1.008 3.052-2.436h-.728c-.28 1.106-1.218 1.792-2.38 1.792-1.582 0-2.576-1.204-2.604-2.856v-.126h5.796c0-.098.014-.21.014-.294-.07-2.114-1.372-3.346-3.276-3.346-1.946 0-3.276 1.484-3.276 3.584 0 2.226 1.386 3.682 3.402 3.682zm-2.604-4.228c.112-1.442 1.19-2.408 2.492-2.408 1.386 0 2.38.854 2.492 2.408h-4.984zm12.66 4.144h.77l2.1-5.964 2.002 5.964h.77l2.52-7.098h-.728l-2.184 6.244-2.03-6.244h-.658l-2.142 6.244-2.072-6.244h-.756l2.408 7.098zm9.525-8.596c.28 0 .504-.21.504-.504a.493.493 0 00-.504-.504c-.28 0-.504.21-.504.504 0 .294.224.504.504.504zm-.364 8.596h.714V3.658h-.714v7.098zm2.925-1.652c0 1.134.462 1.652 1.666 1.652h1.036v-.658h-.98c-.742 0-1.008-.28-1.008-1.008V4.316h1.918v-.658h-1.918V1.67h-.714v1.988h-1.344v.658h1.344v4.788zm7.064-5.53c-1.33 0-2.156.742-2.562 1.764V.956h-.714v9.8h.714v-3.5c0-1.848.938-3.024 2.45-3.024 1.358 0 2.198.896 2.198 2.576v3.948h.714V6.78c0-2.24-1.19-3.206-2.8-3.206zm11.598 0c-1.33 0-2.254.714-2.702 1.708l-.112-1.624h-.616v9.898h.714V9.118c.406 1.036 1.372 1.722 2.716 1.722 1.946 0 3.346-1.484 3.346-3.64 0-2.226-1.4-3.626-3.346-3.626zm-.056 6.622c-1.582 0-2.674-1.232-2.674-3.01 0-1.736 1.092-2.982 2.674-2.982 1.582 0 2.674 1.246 2.674 2.996 0 1.764-1.092 2.996-2.674 2.996zm7.951.644c2.002 0 3.416-1.484 3.416-3.64 0-2.142-1.414-3.626-3.416-3.626s-3.402 1.484-3.402 3.626c0 2.156 1.4 3.64 3.402 3.64zm0-.644c-1.582 0-2.674-1.232-2.674-2.996 0-1.75 1.092-2.996 2.674-2.996 1.582 0 2.674 1.246 2.674 2.996 0 1.764-1.092 2.996-2.674 2.996zm6.338.56h.77l2.1-5.964 2.002 5.964h.77l2.52-7.098h-.728l-2.184 6.244-2.03-6.244h-.658l-2.142 6.244-2.072-6.244h-.756l2.408 7.098zm12.078.084c1.554 0 2.744-1.008 3.052-2.436h-.728c-.28 1.106-1.218 1.792-2.38 1.792-1.582 0-2.576-1.204-2.604-2.856v-.126h5.796c0-.098.014-.21.014-.294-.07-2.114-1.372-3.346-3.276-3.346-1.946 0-3.276 1.484-3.276 3.584 0 2.226 1.386 3.682 3.402 3.682zm-2.604-4.228c.112-1.442 1.19-2.408 2.492-2.408 1.386 0 2.38.854 2.492 2.408h-4.984zm10.063-2.954c-1.316 0-1.876.63-2.17 1.414l-.112-1.414h-.616v7.098h.714V7.158c0-1.442.378-2.814 2.044-2.814h.518v-.686h-.378zm.857.658h1.344v6.44h.714v-6.44h2.128v-.658h-2.128V2.594c0-.7.266-.98.98-.98h1.162V.956h-1.19c-1.19 0-1.666.518-1.666 1.652v1.05h-1.344v.658zm10.202 2.828c0 1.862-.924 3.038-2.394 3.038-1.316 0-2.128-.896-2.128-2.59V3.658h-.714v3.976c0 2.226 1.162 3.206 2.73 3.206 1.26 0 2.086-.672 2.492-1.582l.098 1.498h.63V3.658h-.714v3.486zm2.395 3.612h.714v-9.8h-.714v9.8zm11.962-5.502c-.434-1.008-1.386-1.68-2.716-1.68-1.946 0-3.346 1.484-3.346 3.626 0 2.24 1.4 3.64 3.346 3.64 1.33 0 2.254-.714 2.702-1.708l.112 1.624h.616v-9.8h-.714v4.298zm-2.66 4.942c-1.582 0-2.674-1.232-2.674-2.996 0-1.75 1.092-2.996 2.674-2.996 1.582 0 2.674 1.246 2.674 3.01 0 1.75-1.092 2.982-2.674 2.982zm11.297-.098c-.42 0-.63-.14-.63-.686V6.108c0-1.624-.994-2.534-2.772-2.534-1.624 0-2.702.784-2.884 2.072h.714c.182-.868.938-1.442 2.142-1.442 1.33 0 2.086.7 2.086 1.876v.616h-2.408c-1.82 0-2.8.784-2.8 2.114 0 1.26.994 2.03 2.506 2.03 1.442 0 2.296-.658 2.73-1.54v.252c-.028.84.322 1.204 1.162 1.204h.42v-.658h-.266zm-1.344-2.212c0 1.358-.966 2.338-2.646 2.338-1.134 0-1.834-.574-1.834-1.456 0-.938.7-1.456 2.016-1.456h2.464v.574zm3.097 1.218c0 1.134.462 1.652 1.666 1.652h1.036v-.658h-.98c-.742 0-1.008-.28-1.008-1.008V4.316h1.918v-.658h-1.918V1.67h-.714v1.988h-1.344v.658h1.344v4.788zm9.882.994c-.42 0-.63-.14-.63-.686V6.108c0-1.624-.994-2.534-2.772-2.534-1.624 0-2.702.784-2.884 2.072h.714c.182-.868.938-1.442 2.142-1.442 1.33 0 2.086.7 2.086 1.876v.616h-2.408c-1.82 0-2.8.784-2.8 2.114 0 1.26.994 2.03 2.506 2.03 1.442 0 2.296-.658 2.73-1.54v.252c-.028.84.322 1.204 1.162 1.204h.42v-.658h-.266zm-1.344-2.212c0 1.358-.966 2.338-2.646 2.338-1.134 0-1.834-.574-1.834-1.456 0-.938.7-1.456 2.016-1.456h2.464v.574zm2.481 2.408c0 .322.224.532.532.532.308 0 .532-.21.532-.532 0-.322-.224-.518-.532-.518-.308 0-.532.196-.532.518zm6.484.462h1.61V7.2h2.254c2.044 0 3.388-1.232 3.388-3.122 0-1.904-1.344-3.122-3.388-3.122h-3.864v9.8zm3.738-8.4c1.148 0 1.876.658 1.876 1.722 0 1.05-.742 1.722-1.89 1.722h-2.114V2.356h2.128zm7.658 8.484c1.778 0 2.982-1.078 3.234-2.492h-1.512c-.21.798-.882 1.26-1.806 1.26-1.19 0-1.96-.798-2.002-2.016v-.098h5.404c.028-.196.042-.392.042-.574-.042-2.1-1.428-3.416-3.5-3.416-2.114 0-3.528 1.47-3.528 3.682 0 2.198 1.414 3.654 3.668 3.654zm-2.03-4.452c.112-1.022.938-1.666 1.904-1.666 1.05 0 1.792.602 1.918 1.666h-3.822zm10.238-2.8c-1.176 0-1.75.476-2.114 1.078l-.168-1.078h-1.344v7.168h1.512V7.158c0-1.106.434-2.156 1.778-2.156h.672V3.588h-.336zm.842 1.33h1.246v5.838h1.526V4.918h1.918v-1.33h-1.946v-.602c0-.49.21-.7.7-.7h1.246V.956h-1.442c-1.386 0-2.002.672-2.002 1.96v.672h-1.246v1.33zm8.559 5.922c2.184 0 3.654-1.47 3.654-3.668 0-2.184-1.47-3.668-3.654-3.668s-3.654 1.484-3.654 3.668c0 2.198 1.47 3.668 3.654 3.668zm0-1.288c-1.274 0-2.1-.994-2.1-2.38s.826-2.38 2.1-2.38 2.114.994 2.114 2.38-.84 2.38-2.114 2.38zm8.496-5.964c-1.176 0-1.75.476-2.114 1.078l-.168-1.078h-1.344v7.168h1.512V7.158c0-1.106.434-2.156 1.778-2.156h.672V3.588h-.336zm9.514-.084c-1.176 0-1.988.518-2.45 1.302-.434-.924-1.274-1.302-2.212-1.302-1.078.014-1.694.49-2.1 1.022l-.168-.938h-1.316v7.168h1.512V6.92c0-1.274.644-2.114 1.68-2.114.994 0 1.512.658 1.512 1.918v4.032h1.526V6.878c0-1.288.658-2.072 1.694-2.072.98 0 1.498.658 1.498 1.918v4.032h1.512v-4.13c0-2.268-1.204-3.122-2.688-3.122zm10.611 5.936c-.308 0-.462-.098-.462-.462v-2.87c0-1.694-1.092-2.604-2.996-2.604-1.806 0-3.01.868-3.164 2.268h1.484c.112-.63.714-1.05 1.61-1.05.994 0 1.568.49 1.568 1.288v.434h-1.806c-2.002 0-3.066.826-3.066 2.296 0 1.33 1.092 2.1 2.66 2.1 1.162 0 1.89-.504 2.366-1.232 0 .714.336 1.148 1.316 1.148h.798V9.44h-.308zm-1.96-1.624c-.014 1.106-.742 1.848-2.002 1.848-.826 0-1.33-.42-1.33-1.022 0-.728.518-1.078 1.456-1.078h1.876v.252zm6.872-4.312c-1.162 0-1.848.462-2.296 1.022l-.168-.938h-1.316v7.168h1.512V7.144c0-1.456.714-2.338 1.918-2.338 1.134 0 1.708.728 1.708 2.086v3.864h1.526v-3.99c0-2.394-1.302-3.262-2.884-3.262zm7.494 7.336c1.834 0 3.052-1.022 3.332-2.646h-1.596c-.182.826-.798 1.358-1.722 1.358-1.218 0-2.016-.966-2.016-2.366 0-1.414.798-2.394 2.016-2.394.938 0 1.54.518 1.736 1.358h1.582c-.294-1.624-1.442-2.646-3.29-2.646-2.17 0-3.598 1.47-3.598 3.682 0 2.24 1.386 3.654 3.556 3.654zm7.891 0c1.778 0 2.982-1.078 3.234-2.492h-1.512c-.21.798-.882 1.26-1.806 1.26-1.19 0-1.96-.798-2.002-2.016v-.098h5.404c.028-.196.042-.392.042-.574-.042-2.1-1.428-3.416-3.5-3.416-2.114 0-3.528 1.47-3.528 3.682 0 2.198 1.414 3.654 3.668 3.654zm-2.03-4.452c.112-1.022.938-1.666 1.904-1.666 1.05 0 1.792.602 1.918 1.666h-3.822zm11.231 4.368l.91-2.422h4.018l.924 2.422h1.722l-3.654-9.8h-1.918l-3.668 9.8h1.666zm2.912-8.064l1.568 4.27h-3.122l1.554-4.27zm9.293.812c-1.162 0-1.848.462-2.296 1.022l-.168-.938h-1.316v7.168h1.512V7.144c0-1.456.714-2.338 1.918-2.338 1.134 0 1.708.728 1.708 2.086v3.864h1.526v-3.99c0-2.394-1.302-3.262-2.884-3.262zM377.42 9.44c-.308 0-.462-.098-.462-.462v-2.87c0-1.694-1.092-2.604-2.996-2.604-1.806 0-3.01.868-3.164 2.268h1.484c.112-.63.714-1.05 1.61-1.05.994 0 1.568.49 1.568 1.288v.434h-1.806c-2.002 0-3.066.826-3.066 2.296 0 1.33 1.092 2.1 2.66 2.1 1.162 0 1.89-.504 2.366-1.232 0 .714.336 1.148 1.316 1.148h.798V9.44h-.308zm-1.96-1.624c-.014 1.106-.742 1.848-2.002 1.848-.826 0-1.33-.42-1.33-1.022 0-.728.518-1.078 1.456-1.078h1.876v.252zm3.091 2.94h1.512v-9.8h-1.512v9.8zm5.067.042l-.28.7c-.224.588-.364.728-.952.728h-1.064v1.33h1.624c1.05 0 1.358-.518 1.806-1.68L388 3.588h-1.61l-1.946 5.446-2.002-5.446h-1.61l2.786 7.21zm5.815-1.988c0 1.302.588 1.946 1.96 1.946h1.4v-1.33h-1.064c-.574 0-.77-.21-.77-.77V4.918h1.75v-1.33h-1.75V1.586h-1.526v2.002h-1.246v1.33h1.246V8.81zm5.092-6.23c.518 0 .924-.378.924-.91s-.406-.91-.924-.91-.924.378-.924.91.406.91.924.91zm-.77 8.176h1.512V3.588h-1.512v7.168zm6.284.084c1.834 0 3.052-1.022 3.332-2.646h-1.596c-.182.826-.798 1.358-1.722 1.358-1.218 0-2.016-.966-2.016-2.366 0-1.414.798-2.394 2.016-2.394.938 0 1.54.518 1.736 1.358h1.582c-.294-1.624-1.442-2.646-3.29-2.646-2.17 0-3.598 1.47-3.598 3.682 0 2.24 1.386 3.654 3.556 3.654zm4.181-2.45c.042 1.554 1.358 2.45 3.276 2.45 1.736 0 3.038-.868 3.038-2.24 0-1.596-1.33-1.932-2.968-2.128-1.036-.112-1.722-.196-1.722-.868 0-.574.588-.938 1.484-.938s1.512.462 1.596 1.12h1.484c-.098-1.47-1.344-2.282-3.108-2.282-1.722-.014-2.94.868-2.94 2.226 0 1.484 1.288 1.834 2.926 2.03 1.106.14 1.764.196 1.764.966 0 .574-.616.938-1.554.938-1.092 0-1.736-.532-1.792-1.274h-1.484zm7.878 1.386c-.378 0-.616.238-.616.546 0 .336.224.504.49.504.14 0 .28-.056.35-.168a.505.505 0 01.126.364c0 .532-.336 1.078-1.05 1.106v.42c.966-.042 1.568-.686 1.568-1.61 0-.644-.364-1.162-.868-1.162zm9.185 1.064c1.554 0 2.744-1.008 3.052-2.436h-.728c-.28 1.106-1.218 1.792-2.38 1.792-1.582 0-2.576-1.204-2.604-2.856v-.126h5.796c0-.098.014-.21.014-.294-.07-2.114-1.372-3.346-3.276-3.346-1.946 0-3.276 1.484-3.276 3.584 0 2.226 1.386 3.682 3.402 3.682zm-2.604-4.228c.112-1.442 1.19-2.408 2.492-2.408 1.386 0 2.38.854 2.492 2.408h-4.984zm6.164 4.144h.826l2.352-3.122 2.352 3.122h.868l-2.758-3.626 2.618-3.472h-.812l-2.24 2.94-2.212-2.94h-.854l2.618 3.472-2.758 3.626zm10.166.084c1.61 0 2.744-.924 3.024-2.366h-.756c-.238 1.05-1.092 1.722-2.268 1.722-1.554 0-2.632-1.218-2.632-2.982 0-1.764 1.064-3.01 2.632-3.01 1.19 0 2.03.672 2.282 1.736h.742c-.294-1.47-1.4-2.366-3.01-2.366-2.002 0-3.374 1.484-3.374 3.64 0 2.184 1.358 3.626 3.36 3.626zm4.412-.084h.714v-9.8h-.714v9.8zm7.545-3.612c0 1.862-.924 3.038-2.394 3.038-1.316 0-2.128-.896-2.128-2.59V3.658h-.714v3.976c0 2.226 1.162 3.206 2.73 3.206 1.26 0 2.086-.672 2.492-1.582l.098 1.498h.63V3.658h-.714v3.486zm2.072 1.428c.056 1.47 1.246 2.268 3.024 2.268 1.526 0 2.758-.77 2.758-2.03 0-1.498-1.316-1.792-2.842-2.002-1.106-.154-2.086-.28-2.086-1.274 0-.812.798-1.344 2.002-1.344 1.134 0 1.946.546 2.072 1.47h.728c-.126-1.386-1.26-2.086-2.8-2.086-1.582-.014-2.716.798-2.716 2.016 0 1.428 1.316 1.694 2.772 1.89 1.19.168 2.156.322 2.156 1.372 0 .84-.882 1.372-2.044 1.372-1.358 0-2.24-.63-2.296-1.652h-.728zm7.509-6.412c.28 0 .504-.21.504-.504a.493.493 0 00-.504-.504c-.28 0-.504.21-.504.504 0 .294.224.504.504.504zm-.364 8.596h.714V3.658h-.714v7.098zm4.45 0h.854l2.772-7.098h-.742l-2.436 6.272-2.45-6.272h-.77l2.772 7.098zm7.436.084c1.554 0 2.744-1.008 3.052-2.436h-.728c-.28 1.106-1.218 1.792-2.38 1.792-1.582 0-2.576-1.204-2.604-2.856v-.126h5.796c0-.098.014-.21.014-.294-.07-2.114-1.372-3.346-3.276-3.346-1.946 0-3.276 1.484-3.276 3.584 0 2.226 1.386 3.682 3.402 3.682zm-2.604-4.228c.112-1.442 1.19-2.408 2.492-2.408 1.386 0 2.38.854 2.492 2.408h-4.984zm11.47 2.492c0 1.134.462 1.652 1.666 1.652h1.036v-.658h-.98c-.742 0-1.008-.28-1.008-1.008V4.316h1.918v-.658h-1.918V1.67h-.714v1.988h-1.344v.658h1.344v4.788zm6.706 1.736c2.002 0 3.416-1.484 3.416-3.64 0-2.142-1.414-3.626-3.416-3.626s-3.402 1.484-3.402 3.626c0 2.156 1.4 3.64 3.402 3.64zm0-.644c-1.582 0-2.674-1.232-2.674-2.996 0-1.75 1.092-2.996 2.674-2.996 1.582 0 2.674 1.246 2.674 2.996 0 1.764-1.092 2.996-2.674 2.996zm12.92.644c2.1 0 3.584-1.134 4.004-3.108h-.798c-.42 1.568-1.554 2.408-3.22 2.408-2.268 0-3.696-1.778-3.696-4.284s1.456-4.284 3.724-4.284c1.638 0 2.786.854 3.22 2.394h.798c-.434-1.96-1.918-3.094-3.976-3.094-2.758 0-4.55 2.044-4.55 4.984 0 2.968 1.75 4.984 4.494 4.984zm5.827-8.68c.28 0 .504-.21.504-.504a.493.493 0 00-.504-.504c-.28 0-.504.21-.504.504 0 .294.224.504.504.504zm-.364 8.596h.714V3.658h-.714v7.098zm2.925-1.652c0 1.134.462 1.652 1.666 1.652h1.036v-.658h-.98c-.742 0-1.008-.28-1.008-1.008V4.316h1.918v-.658h-1.918V1.67h-.714v1.988h-1.344v.658h1.344v4.788zm5.916 1.652l-.462 1.148c-.322.784-.448.994-1.176.994h-.896v.658h1.092c.952 0 1.176-.364 1.624-1.484l3.402-8.414h-.77l-2.422 6.174-2.464-6.174h-.77l2.842 7.098zm8.486 0h.756v-9.8h-.756v9.8zm5.883-7.182c-1.302 0-2.142.672-2.548 1.596l-.112-1.512h-.616v7.098h.714v-3.5c0-1.848.938-3.024 2.45-3.024 1.372 0 2.198.896 2.198 2.576v3.948h.714V6.78c0-2.24-1.19-3.206-2.8-3.206zm10.067 1.68c-.434-1.008-1.386-1.68-2.716-1.68-1.946 0-3.346 1.484-3.346 3.626 0 2.24 1.4 3.64 3.346 3.64 1.33 0 2.254-.714 2.702-1.708l.112 1.624h.616v-9.8h-.714v4.298zm-2.66 4.942c-1.582 0-2.674-1.232-2.674-2.996 0-1.75 1.092-2.996 2.674-2.996 1.582 0 2.674 1.246 2.674 3.01 0 1.75-1.092 2.982-2.674 2.982zm8.189.644c1.554 0 2.744-1.008 3.052-2.436h-.728c-.28 1.106-1.218 1.792-2.38 1.792-1.582 0-2.576-1.204-2.604-2.856v-.126h5.796c0-.098.014-.21.014-.294-.07-2.114-1.372-3.346-3.276-3.346-1.946 0-3.276 1.484-3.276 3.584 0 2.226 1.386 3.682 3.402 3.682zm-2.604-4.228c.112-1.442 1.19-2.408 2.492-2.408 1.386 0 2.38.854 2.492 2.408h-4.984zm6.164 4.144h.826l2.352-3.122 2.352 3.122h.868L548.03 7.13l2.618-3.472h-.812l-2.24 2.94-2.212-2.94h-.854l2.618 3.472-2.758 3.626zm7.207-.462c0 .322.224.532.532.532.308 0 .532-.21.532-.532 0-.322-.224-.518-.532-.518-.308 0-.532.196-.532.518z" fill="#000"/></svg>