<svg width="244" height="42" viewBox="0 0 244 42" fill="none" xmlns="http://www.w3.org/2000/svg"><path d="M9.452 32.699l-.898 2.244c-.718 1.885-1.167 2.334-3.052 2.334H2.09v4.265h5.207c3.367 0 4.355-1.661 5.791-5.387L23.503 9.58H18.34L12.1 27.042 5.681 9.58H.52l8.933 23.119zm26.314.134c7.003 0 11.716-4.713 11.716-11.761 0-7.003-4.713-11.761-11.716-11.761-7.003 0-11.716 4.758-11.716 11.76 0 7.049 4.713 11.762 11.716 11.762zm0-4.13c-4.085 0-6.734-3.187-6.734-7.631 0-4.444 2.649-7.631 6.734-7.631s6.778 3.187 6.778 7.63c0 4.445-2.693 7.632-6.778 7.632zm31.371-7.631c0 4.758-2.245 7.541-5.925 7.541-3.547 0-5.342-2.289-5.342-6.778V9.58h-4.848v12.794c0 7.856 4.174 10.46 9.067 10.46 3.547 0 5.656-1.437 7.093-3.188l.539 2.918h4.264V9.58h-4.848v11.492zM88.389 9.58c-3.77 0-5.61 1.526-6.778 3.457l-.539-3.457h-4.31v22.984h4.849V21.027c0-3.546 1.391-6.913 5.701-6.913h2.155V9.58h-1.078zm17.214 16.744c0 4.175 1.886 6.24 6.285 6.24h4.489v-4.265h-3.412c-1.84 0-2.469-.673-2.469-2.469V13.845h5.612V9.58h-5.612V3.16h-4.893v6.42h-3.995v4.265h3.995v12.48zM131.088 9.58c-3.771 0-5.612 1.526-6.779 3.457l-.539-3.457h-4.309v22.984h4.848V21.027c0-3.546 1.392-6.913 5.701-6.913h2.155V9.58h-1.077zm24.374 18.764c-.987 0-1.481-.314-1.481-1.481V17.66c0-5.431-3.502-8.35-9.607-8.35-5.791 0-9.651 2.784-10.145 7.273h4.758c.36-2.02 2.29-3.367 5.163-3.367 3.187 0 5.028 1.571 5.028 4.13v1.392h-5.791c-6.42 0-9.831 2.648-9.831 7.362 0 4.264 3.501 6.733 8.529 6.733 3.726 0 6.06-1.616 7.586-3.95 0 2.29 1.078 3.68 4.22 3.68h2.559v-4.219h-.988zm-6.284-5.207c-.045 3.546-2.38 5.925-6.42 5.925-2.648 0-4.264-1.346-4.264-3.277 0-2.334 1.661-3.456 4.668-3.456h6.016v.808zm27.199-10.37c-1.481-2.02-3.95-3.456-7.451-3.456-6.24 0-10.864 4.668-10.864 11.76 0 7.363 4.624 11.762 10.864 11.762 3.636 0 6.015-1.706 7.496-3.726l.584 3.457h4.22V1.14h-4.849v11.626zm-6.643 15.981c-4.04 0-6.689-3.142-6.689-7.676 0-4.49 2.649-7.631 6.689-7.631s6.688 3.142 6.688 7.72c0 4.445-2.648 7.587-6.688 7.587zm18.698-22.4c1.661 0 2.963-1.212 2.963-2.918 0-1.706-1.302-2.918-2.963-2.918s-2.963 1.212-2.963 2.918c0 1.706 1.302 2.918 2.963 2.918zm-2.469 26.216h4.848V9.58h-4.848v22.984zM207.684 9.31c-3.726 0-5.925 1.481-7.362 3.277l-.539-3.008h-4.219v22.984h4.848V20.982c0-4.668 2.289-7.496 6.15-7.496 3.636 0 5.476 2.334 5.476 6.688v12.39h4.893V19.77c0-7.676-4.174-10.46-9.247-10.46zm31.208 3.86c-1.481-2.29-3.95-3.86-7.541-3.86-6.24 0-10.863 4.623-10.863 11.671 0 7.317 4.623 11.672 10.863 11.672 3.591 0 5.97-1.482 7.497-3.771v2.559c0 4.399-2.38 6.419-6.599 6.419-3.412 0-5.656-1.482-6.24-4.04h-4.938c.449 5.162 4.714 7.99 10.819 7.99 8.259 0 11.761-3.95 11.761-10.19V9.581h-4.22l-.539 3.59zm-6.733 15.398c-4.04 0-6.689-3.098-6.689-7.587 0-4.444 2.649-7.586 6.689-7.586s6.689 3.142 6.689 7.676c0 4.4-2.649 7.497-6.689 7.497z" fill="#000"/></svg>