<svg width="53" height="15" viewBox="0 0 53 15" fill="none" xmlns="http://www.w3.org/2000/svg"><rect y=".814" width="53" height="14" rx="7" fill="#000"/><path d="M8.156 5.462h1.777v4.852h.68V5.462h1.777v-.626H8.156v.626zm6.278.86c-.712 0-1.017.298-1.205.603l-.086-.602h-.555v3.99h.641V8.28c0-.634.227-1.33 1.065-1.33h.32v-.626h-.18zm4.128 3.405c-.18 0-.258-.055-.258-.266V7.716c0-.932-.587-1.44-1.604-1.44-.963 0-1.596.461-1.69 1.244h.641c.079-.407.454-.673 1.018-.673.626 0 .993.313.993.83v.273H16.49c-1.049 0-1.605.446-1.605 1.245 0 .727.595 1.165 1.472 1.165.688 0 1.087-.305 1.338-.665.008.392.188.619.72.619h.352v-.587h-.204zm-.9-1.041c0 .665-.461 1.127-1.26 1.127-.532 0-.868-.266-.868-.658 0-.453.32-.665.892-.665h1.236v.196zm4.697-1.753c-.243-.383-.697-.657-1.37-.657-1.103 0-1.917.821-1.917 2.042 0 1.3.814 2.043 1.918 2.043.673 0 1.103-.321 1.369-.69l.086.643h.556V4.836h-.642v2.097zM21.052 9.79c-.79 0-1.322-.602-1.322-1.47 0-.87.532-1.472 1.322-1.472.783 0 1.315.61 1.315 1.487 0 .853-.532 1.455-1.315 1.455zm4.662.572c.923 0 1.58-.587 1.737-1.386h-.65c-.133.517-.57.814-1.134.814-.76 0-1.237-.532-1.26-1.29v-.056h3.099c.007-.094.015-.187.015-.274-.031-1.181-.767-1.893-1.893-1.893-1.127 0-1.894.83-1.894 2.042 0 1.22.782 2.043 1.98 2.043zm-1.268-2.45a1.181 1.181 0 011.19-1.072c.665 0 1.134.384 1.197 1.072h-2.387zm7.812-1.635c-.673 0-1.08.281-1.315.587l-.086-.54h-.556v3.99h.642V8.319c0-.9.454-1.455 1.205-1.455.697 0 1.08.438 1.08 1.267v2.184h.642V8.09c0-1.322-.712-1.815-1.612-1.815zm4.223 4.085c1.166 0 1.98-.83 1.98-2.043s-.814-2.042-1.98-2.042-1.98.83-1.98 2.042c0 1.213.814 2.043 1.98 2.043zm0-.572c-.79 0-1.323-.618-1.323-1.47 0-.854.533-1.472 1.323-1.472.79 0 1.322.618 1.322 1.471 0 .853-.532 1.471-1.322 1.471zm3.501.525h.704l1.002-2.966.963 2.966h.704l1.33-3.991h-.65l-1.04 3.247L42 6.323h-.595L40.358 9.57l-.994-3.247h-.673l1.291 3.99z" fill="#fff"/></svg>