<svg width="72" height="20" viewBox="0 0 72 20" fill="none" xmlns="http://www.w3.org/2000/svg"><rect y=".5" width="72" height="19" rx="9.5" fill="#000"/><path d="M10.56 6.68h2.498v6.82h.957V6.68h2.497V5.8H10.56v.88zm8.826 1.21c-1.001 0-1.43.418-1.694.847l-.121-.847h-.781v5.61h.902v-2.86c0-.891.319-1.87 1.496-1.87h.45v-.88h-.252zm5.802 4.785c-.253 0-.363-.077-.363-.374V9.848c0-1.309-.825-2.024-2.255-2.024-1.353 0-2.244.649-2.376 1.749h.902c.11-.572.638-.946 1.43-.946.88 0 1.397.44 1.397 1.166v.385h-1.65c-1.474 0-2.255.627-2.255 1.749 0 1.023.836 1.639 2.068 1.639.968 0 1.53-.429 1.881-.935.011.55.264.869 1.012.869h.495v-.825h-.286zm-1.265-1.463c0 .935-.649 1.584-1.77 1.584-.749 0-1.222-.374-1.222-.924 0-.638.451-.935 1.254-.935h1.738v.275zm6.602-2.464c-.34-.539-.979-.924-1.925-.924-1.55 0-2.695 1.155-2.695 2.871 0 1.826 1.144 2.871 2.695 2.871.946 0 1.551-.451 1.925-.968l.121.902h.781V5.8h-.902v2.948zm-1.837 4.015c-1.11 0-1.859-.847-1.859-2.068s.748-2.068 1.86-2.068c1.1 0 1.847.858 1.847 2.09 0 1.199-.748 2.046-1.848 2.046zm6.553.803c1.298 0 2.222-.825 2.442-1.947h-.913c-.187.726-.803 1.144-1.595 1.144-1.067 0-1.738-.748-1.771-1.815v-.077h4.356c.011-.132.022-.264.022-.385-.044-1.661-1.078-2.662-2.662-2.662-1.584 0-2.662 1.166-2.662 2.871 0 1.716 1.1 2.871 2.783 2.871zm-1.782-3.443c.088-.913.847-1.507 1.672-1.507.935 0 1.595.539 1.683 1.507h-3.355zM44.44 7.824c-.946 0-1.518.396-1.848.825l-.12-.759h-.782v5.61h.902v-2.805c0-1.265.638-2.046 1.694-2.046.98 0 1.518.616 1.518 1.782V13.5h.902v-3.124c0-1.859-1-2.552-2.266-2.552zm5.937 5.742c1.639 0 2.783-1.166 2.783-2.871s-1.144-2.871-2.783-2.871c-1.64 0-2.783 1.166-2.783 2.871s1.144 2.871 2.783 2.871zm0-.803c-1.111 0-1.86-.869-1.86-2.068s.749-2.068 1.86-2.068c1.11 0 1.859.869 1.859 2.068s-.748 2.068-1.86 2.068zm4.921.737h.99l1.409-4.169 1.352 4.169h.99l1.87-5.61h-.913l-1.463 4.565-1.397-4.565H57.3l-1.473 4.565-1.398-4.565h-.946L55.3 13.5z" fill="#fff"/></svg>