<svg width="100" height="178" viewBox="0 0 100 178" fill="none" xmlns="http://www.w3.org/2000/svg"><path d="M1.098 13.5l-.041-.684.861-.218c.018-.046.032-.164.041-.356.018-.191.032-.437.041-.738.01-.31.014-.647.014-1.012v-2.01c0-.373-.005-.715-.014-1.025-.009-.31-.023-.56-.04-.752-.01-.2-.024-.314-.042-.342l-.861-.205.04-.683h3.679l.04.683-.874.205a1.855 1.855 0 00-.055.37c-.01.19-.018.441-.027.751v3.993c.009.3.018.551.027.752.018.2.036.323.055.369l.875.218-.041.684H1.098zm4.457 0l-.041-.629.848-.232a1.88 1.88 0 00.027-.246 14.204 14.204 0 00.041-1.121l.014-1.04c0-.282-.01-.528-.028-.738a6.004 6.004 0 00-.095-.656l-.875-.192v-.615l2.406-.615.369.232-.082.807.04.014c.283-.365.593-.634.93-.807.347-.182.712-.273 1.094-.273.392 0 .739.095 1.04.287.31.191.555.474.738.847.182.365.273.807.273 1.327v1.408c0 .31.005.601.014.875.009.264.027.433.054.506l.848.232-.04.629H9.697l-.042-.629.78-.232c.018-.082.032-.196.04-.342.01-.155.014-.324.014-.506.01-.182.014-.356.014-.52v-1.148c0-.346-.054-.624-.164-.834a1.022 1.022 0 00-.984-.629c-.228 0-.442.05-.643.15-.191.1-.364.247-.52.438v2.01c0 .31.005.601.014.875.018.264.037.433.055.506l.834.232-.041.629h-3.5zm11.32.11a3.278 3.278 0 01-1.558-.37 3.064 3.064 0 01-1.108-1.053 2.944 2.944 0 01-.41-1.544c0-.575.146-1.108.438-1.6A3.31 3.31 0 0115.44 7.84c.51-.3 1.098-.451 1.763-.451.401 0 .761.054 1.08.164.32.1.575.246.766.437.192.192.287.406.287.643 0 .228-.073.4-.219.52a.784.784 0 01-.505.163c-.174 0-.329-.031-.465-.095a2.418 2.418 0 01-.451-.315l-.998-.875.697.164a1.112 1.112 0 00-.793.11c-.255.136-.465.364-.63.683-.163.31-.245.702-.245 1.176 0 .702.168 1.23.506 1.586.346.355.77.533 1.271.533.255 0 .506-.054.752-.164.255-.118.501-.319.738-.601l.438.396c-.255.556-.615.98-1.08 1.271a2.75 2.75 0 01-1.477.424zm3.008-.11l-.041-.629.848-.232c.009-.037.018-.119.027-.246.01-.137.018-.301.027-.493.01-.2.014-.41.014-.629l.014-1.025c0-.273-.01-.515-.028-.725a6.455 6.455 0 00-.095-.683l-.875-.192v-.615l2.365-.615.355.232-.054 1.08.04.014c.265-.51.53-.857.794-1.039.273-.182.551-.273.834-.273.246 0 .46.068.642.205.192.136.287.35.287.642 0 .292-.1.52-.3.684-.2.164-.433.246-.698.246-.218 0-.414-.036-.588-.11a2.292 2.292 0 01-.574-.423l.383.04a2.386 2.386 0 00-.725.916l.014 1.08c.01.338.014.643.014.917.009.264.018.488.027.67.01.173.018.287.027.342l1.19.205-.041.656h-3.883zm8.49.11c-.592 0-1.12-.133-1.586-.397a2.923 2.923 0 01-1.08-1.08 3.107 3.107 0 01-.383-1.545c0-.638.146-1.194.438-1.668.292-.483.67-.861 1.135-1.135.474-.273.98-.405 1.517-.396.802 0 1.422.25 1.86.752.437.492.656 1.134.656 1.927v.329h-4.02v-.711h2.68l-.205.328v-.465c0-.429-.096-.77-.287-1.026-.191-.255-.456-.382-.793-.382-.228 0-.433.063-.615.191-.183.128-.328.324-.438.588-.1.255-.15.579-.15.97v.288c0 .638.168 1.153.506 1.545.346.392.806.587 1.38.587.31 0 .593-.054.848-.164.255-.118.502-.314.739-.587l.423.382c-.255.547-.615.962-1.08 1.244-.465.283-.98.424-1.545.424zm5.551 0c-.42 0-.784-.092-1.094-.274a2.105 2.105 0 01-.697-.656c-.155-.255-.232-.497-.232-.725 0-.328.1-.601.3-.82.21-.228.53-.406.957-.533l2.147-.63V9.48a.851.851 0 00-.191-.533 1.352 1.352 0 00-.479-.424c-.2-.109-.415-.164-.643-.164-.145 0-.25.037-.314.11-.055.064-.091.196-.11.396L33.5 9.7c-.456.091-.83.078-1.12-.04-.283-.128-.425-.333-.425-.616 0-.173.092-.35.274-.533.182-.183.405-.351.67-.506.273-.164.551-.3.834-.41a2.53 2.53 0 01.738-.205c.811 0 1.454.187 1.928.56.474.365.715.857.724 1.477l-.04 1.9c0 .255.004.456.013.602.018.146.046.264.082.355l.902.164v.575l-.888.382a4.365 4.365 0 01-.452.15 1.54 1.54 0 01-.396.055c-.355 0-.606-.182-.752-.546l-.232-.63.287.069c-.283.346-.575.62-.875.82-.292.192-.575.287-.848.287zm.697-1.231c.128 0 .251-.023.37-.069.118-.054.227-.132.328-.232v-1.34l-.93.178c-.228.027-.392.096-.492.205a.662.662 0 00-.137.438c0 .21.082.4.246.574a.864.864 0 00.615.246zm6.221 1.23c-.383 0-.761-.04-1.135-.123a4.027 4.027 0 01-.943-.341l-.068-1.6h.875l.287.984c.346.2.706.301 1.08.301.282 0 .496-.055.642-.164a.57.57 0 00.22-.465c0-.2-.083-.373-.247-.52-.155-.145-.478-.31-.97-.491-.675-.247-1.145-.515-1.409-.807-.264-.292-.396-.656-.396-1.094 0-.374.114-.702.341-.984.228-.292.547-.515.957-.67.41-.164.885-.246 1.422-.246.292 0 .588.027.889.082.3.054.547.127.738.218l.164 1.586h-.875l-.3-.97a1.07 1.07 0 00-.342-.123 1.342 1.342 0 00-.37-.055c-.273 0-.496.06-.67.178a.56.56 0 00-.245.478c0 .219.1.401.3.547.2.146.566.328 1.094.547.602.246 1.03.51 1.285.793.256.273.383.615.383 1.025 0 .575-.25 1.04-.752 1.395-.501.346-1.153.52-1.955.52zm6.563 0c-.593 0-1.122-.132-1.586-.396a2.924 2.924 0 01-1.08-1.08 3.107 3.107 0 01-.383-1.545c0-.638.145-1.194.437-1.668.292-.483.67-.861 1.135-1.135.474-.273.98-.405 1.518-.396.802 0 1.421.25 1.859.752.437.492.656 1.134.656 1.927v.329h-4.02v-.711h2.68l-.205.328v-.465c0-.429-.095-.77-.287-1.026-.191-.255-.456-.382-.793-.382-.228 0-.433.063-.615.191s-.328.324-.438.588c-.1.255-.15.579-.15.97v.288c0 .638.169 1.153.506 1.545.346.392.807.587 1.38.587.31 0 .593-.054.848-.164.256-.118.502-.314.739-.587l.423.382c-.255.547-.615.962-1.08 1.244-.464.283-.98.424-1.544.424zM.797 32.508l-.04-.63.847-.232c0-.054.004-.168.013-.341.01-.164.019-.374.028-.63l.027-.82c.01-.291.014-.592.014-.902l.027-2.72c0-.265-.009-.506-.027-.725a5.928 5.928 0 00-.096-.67l-.875-.192v-.615l2.406-.615.37.232-.096.834.04.014c.21-.337.48-.606.807-.806.329-.201.675-.301 1.04-.301.437 0 .847.114 1.23.341.383.22.693.543.93.971.237.429.355.944.355 1.545 0 .602-.141 1.158-.424 1.668-.273.501-.66.907-1.162 1.217-.501.31-1.098.465-1.79.465a3.09 3.09 0 01-.972-.164v.861c0 .3.005.583.014.848.018.264.037.433.055.506l1.12.218-.04.643h-3.8zm3.65-3.883c.283 0 .53-.064.739-.191.219-.137.392-.351.52-.643.127-.292.19-.665.19-1.121 0-.474-.068-.852-.204-1.135-.128-.291-.301-.506-.52-.642a1.227 1.227 0 00-.683-.206c-.192 0-.379.05-.561.15a1.48 1.48 0 00-.479.384v3.117c.137.091.292.164.465.219.173.045.351.068.534.068zm4.116.875l-.041-.629.847-.232a1.88 1.88 0 00.028-.246c.009-.137.018-.301.027-.493.01-.2.014-.41.014-.628l.013-1.026c0-.273-.009-.515-.027-.724a6.47 6.47 0 00-.096-.684l-.875-.192v-.615l2.366-.615.355.232-.055 1.08.041.014c.265-.51.529-.857.793-1.039.274-.182.552-.273.834-.273.246 0 .46.068.643.205.191.136.287.35.287.642 0 .292-.1.52-.3.684-.201.164-.434.246-.698.246-.219 0-.415-.036-.588-.11a2.295 2.295 0 01-.574-.423l.383.04a2.383 2.383 0 00-.725.916l.014 1.08c.009.338.013.643.013.917.01.264.019.488.028.67.009.173.018.287.027.342l1.19.205-.041.656H8.563zm8.654.11c-.638 0-1.198-.128-1.682-.383a2.943 2.943 0 01-1.134-1.08 3.07 3.07 0 01-.41-1.586c0-.675.154-1.25.464-1.723.31-.474.716-.834 1.217-1.08a3.582 3.582 0 011.6-.37c.601 0 1.13.128 1.586.383.465.256.825.616 1.08 1.08.264.456.396.98.396 1.573a3.162 3.162 0 01-1.545 2.762 3.012 3.012 0 01-1.572.423zm.137-.876c.228 0 .419-.073.574-.218.164-.146.287-.36.37-.643a3.31 3.31 0 00.136-1.012c0-.784-.128-1.422-.383-1.914-.246-.492-.579-.738-.998-.738-.346 0-.62.178-.82.533-.2.346-.301.82-.301 1.422 0 .483.06.92.178 1.313.127.392.296.701.506.93.218.218.464.327.738.327zm8.654.944l-.37-.205.015-.889-.041-.014c-.228.392-.483.67-.766.834a1.798 1.798 0 01-.875.233c-.483 0-.93-.123-1.34-.37a2.73 2.73 0 01-.984-1.025c-.246-.446-.37-.961-.37-1.545 0-.51.096-.966.288-1.367.191-.41.446-.756.765-1.039.32-.292.675-.51 1.067-.656a3.245 3.245 0 011.203-.233c.173 0 .35.019.533.055.182.027.333.073.451.137 0-.173-.004-.365-.013-.575 0-.218-.005-.432-.014-.642 0-.219-.005-.415-.014-.588 0-.182-.004-.319-.014-.41l-1.011-.15-.027-.588 2.584-.67.382.232c-.027.565-.054 1.09-.082 1.572a26.2 26.2 0 00-.04 1.504l-.014 3.172c0 .447.013.811.04 1.094.028.282.05.524.069.724l.902.192v.588l-2.324.629zm-1.38-1.354c.145 0 .31-.045.491-.137.192-.09.356-.241.493-.45v-3.05a.983.983 0 00-.452-.355 1.33 1.33 0 00-.52-.11c-.428 0-.783.178-1.066.534-.273.355-.41.843-.41 1.463 0 .674.142 1.194.424 1.558.292.365.638.547 1.04.547zm10.732-.055l.902.192v.588l-2.324.629-.37-.205.014-.957-.04-.014c-.265.42-.552.715-.862.889-.3.164-.615.246-.943.246-.657 0-1.19-.205-1.6-.616-.41-.419-.615-1.039-.615-1.859V26a12.384 12.384 0 00-.055-1.162l-.93-.192v-.615l2.461-.615.383.232c-.018.274-.036.602-.055.985-.018.383-.027.775-.027 1.176l-.014 1.148c0 .474.105.82.315 1.04.21.218.497.327.861.327.183 0 .37-.05.56-.15.201-.1.37-.264.507-.492v-1.326-.575c0-.173-.01-.332-.028-.478a7.92 7.92 0 00-.04-.465l-.971-.192v-.615l2.474-.615.37.232a7.507 7.507 0 00-.042.52c0 .191-.004.415-.013.67V26.779c0 .219.004.456.013.711.019.246.041.506.069.78zm4.593 1.34a3.279 3.279 0 01-1.558-.369 3.063 3.063 0 01-1.108-1.052 2.943 2.943 0 01-.41-1.545c0-.575.146-1.108.438-1.6a3.311 3.311 0 011.203-1.203c.51-.3 1.098-.451 1.764-.451.4 0 .76.054 1.08.164.319.1.574.246.765.437.192.192.287.406.287.643 0 .228-.073.4-.218.52a.784.784 0 01-.506.163c-.173 0-.328-.031-.465-.095a2.415 2.415 0 01-.451-.315l-.998-.875.697.164a1.112 1.112 0 00-.793.11c-.255.136-.465.364-.629.683-.164.31-.246.702-.246 1.176 0 .702.169 1.23.506 1.586.346.355.77.533 1.271.533.255 0 .506-.055.752-.164.255-.118.502-.319.738-.601l.438.396c-.255.556-.615.98-1.08 1.271a2.75 2.75 0 01-1.477.424zm7.834-1.257a1.817 1.817 0 01-.752.943 2.181 2.181 0 01-1.203.342c-.629 0-1.148-.183-1.558-.547-.401-.374-.602-.93-.602-1.668l.041-3.049h-.957v-.424l2.338-1.86h.424l-.028 1.929-.027 3.24c0 .383.091.66.274.834.182.164.437.246.765.246.173 0 .342-.032.506-.096.164-.073.305-.164.424-.273l.355.383zm-2.994-3.979v-.861h2.611v.861h-2.61zm3.145 5.127l-.041-.643.916-.218c.009-.037.018-.119.027-.246.01-.137.018-.301.027-.493.01-.191.014-.4.014-.628l.014-1.026c0-.273-.01-.52-.028-.738a5.915 5.915 0 00-.095-.67l-.916-.192v-.615l2.515-.615.37.232c-.028.292-.05.588-.069.89-.009.29-.014.623-.014.997v1.723c0 .3.005.588.014.861.018.274.037.447.055.52l.916.218-.041.643h-3.664zm1.845-7.205c-.364 0-.651-.11-.86-.328a1.12 1.12 0 01-.315-.78c0-.291.105-.546.314-.765.21-.228.497-.342.861-.342.365 0 .648.114.848.342a1.147 1.147 0 010 1.545c-.2.218-.483.328-.848.328zm5.086 7.26l-2.515-5.21-.643-.218.028-.629h3.5l.04.629-.847.219 1.545 3.35h-.397l1.436-3.35-.848-.219.041-.629h2.475l.027.629-.642.219-2.598 5.209h-.602zm4.034-.055l-.041-.643.916-.218c.009-.037.018-.119.027-.246.009-.137.018-.301.027-.493.01-.191.014-.4.014-.628l.014-1.026c0-.273-.01-.52-.028-.738a5.96 5.96 0 00-.095-.67l-.916-.192v-.615l2.515-.615.37.232c-.028.292-.05.588-.069.89-.01.29-.014.623-.014.997v1.723c0 .3.005.588.014.861.018.274.036.447.055.52l.916.218-.041.643h-3.664zm1.845-7.205c-.364 0-.651-.11-.861-.328a1.119 1.119 0 01-.315-.78c0-.291.105-.546.315-.765.21-.228.497-.342.861-.342.365 0 .647.114.848.342a1.146 1.146 0 010 1.545c-.2.218-.483.328-.848.328zm7.11 6.057a1.817 1.817 0 01-.752.943 2.181 2.181 0 01-1.203.342c-.63 0-1.149-.183-1.559-.547-.401-.374-.602-.93-.602-1.668l.041-3.049h-.957v-.424l2.338-1.86h.424l-.027 1.929-.028 3.24c0 .383.092.66.274.834.182.164.437.246.766.246.173 0 .341-.032.505-.096.164-.073.306-.164.424-.273l.356.383zm-2.995-3.979v-.861h2.612v.861h-2.611zm5.838 5.182l-2.501-5.21-.643-.218.04-.629h3.487l.041.629-.847.219 1.53 3.35-1.107 1.859zm3.815-6.057l.04.629-.642.219-2.379 4.716-1.08 2.27c-.237.501-.483.839-.738 1.012a1.386 1.386 0 01-.82.273c-.31 0-.556-.077-.739-.232a.673.673 0 01-.26-.533c0-.21.078-.397.233-.561.164-.164.41-.292.738-.383l1.6-.451-.916.629 1.668-3.076.178-.315 1.463-3.35-.848-.218.04-.629h2.462zm5.974 6.111c-.665 0-1.212-.095-1.64-.287-.428-.2-.747-.46-.957-.779a1.922 1.922 0 01-.315-1.053c0-.3.073-.61.22-.93.154-.319.418-.637.792-.956.383-.329.916-.643 1.6-.944.538-.273.966-.542 1.285-.806.319-.265.547-.534.683-.807.146-.274.22-.565.22-.875 0-.401-.101-.702-.302-.902a.913.913 0 00-.683-.301c-.337 0-.624.127-.862.383-.227.255-.341.628-.341 1.12 0 .292.036.575.11.848.072.274.177.552.314.834.136.274.305.565.505.875.21.31.447.652.711 1.026.456.629.884 1.148 1.285 1.558.401.401.793.702 1.176.903.383.191.766.287 1.149.287.246 0 .465-.032.656-.096.2-.073.41-.182.629-.328l.246.342a2.343 2.343 0 01-.834.656 2.596 2.596 0 01-1.121.232c-.492 0-.957-.1-1.395-.3-.437-.2-.87-.51-1.298-.93a12.98 12.98 0 01-1.354-1.6 39.97 39.97 0 01-1.04-1.517 6.947 6.947 0 01-.628-1.244 3.872 3.872 0 01-.205-1.258c0-.447.096-.848.287-1.203.2-.365.479-.652.834-.862a2.275 2.275 0 011.217-.328c.565 0 1.03.155 1.394.465.365.3.547.72.547 1.258 0 .364-.09.71-.273 1.039-.183.328-.488.656-.916.984-.429.328-1.012.68-1.75 1.053-.61.319-1.03.643-1.258.97-.228.32-.342.68-.342 1.08 0 .32.082.602.246.848.164.237.397.424.698.561.31.128.665.191 1.066.191.492 0 .939-.095 1.34-.287.4-.2.77-.533 1.107-.998.337-.465.647-1.089.93-1.873l-.957-.15.027-.52 2.858-.013.027.52-.957.163c-.447.866-.902 1.595-1.367 2.188-.465.583-.97 1.025-1.518 1.326-.547.291-1.162.437-1.846.437zM1.03 45.5l-.041-.492.847-.205c.01-.046.018-.128.028-.246.009-.119.013-.278.013-.479.01-.2.014-.447.014-.738l.014-1.067c0-.3-.014-.597-.041-.888a7.812 7.812 0 00-.069-.697l-.875-.192v-.451l1.832-.506.192.191-.055 1.149.04.014c.274-.53.552-.885.835-1.067.282-.191.547-.287.793-.287.21 0 .383.055.52.164.145.1.218.255.218.465a.6.6 0 01-.232.506.909.909 0 01-.56.164c-.165 0-.324-.037-.48-.11a1.812 1.812 0 01-.423-.3l.246.082c-.173.11-.337.264-.492.465a3.167 3.167 0 00-.424.724l.014 1.272.027.71.027.67c.01.192.019.342.028.452l1.19.178-.028.519H1.03zm7.615.11a2.915 2.915 0 01-1.436-.356 2.695 2.695 0 01-1.011-1.012c-.247-.446-.37-.97-.37-1.572 0-.647.133-1.208.397-1.682s.61-.838 1.039-1.093a2.492 2.492 0 011.38-.383c.712.009 1.268.246 1.669.71.4.465.601 1.122.601 1.97v.245H6.717v-.601h3.295l-.15.178v-.287c0-.53-.119-.935-.356-1.217-.237-.283-.56-.424-.97-.424a1.33 1.33 0 00-.739.232c-.237.146-.428.374-.574.684-.146.3-.219.683-.219 1.148v.165c0 .747.182 1.33.547 1.75.374.419.852.628 1.436.628a1.9 1.9 0 00.86-.191c.256-.128.502-.333.74-.615l.341.314c-.255.474-.579.83-.97 1.067-.393.227-.83.341-1.313.341zm7.998.04l-.205-.177.013-.889-.04-.014c-.274.383-.557.652-.848.807a1.849 1.849 0 01-.903.232c-.52 0-.984-.118-1.394-.355a2.69 2.69 0 01-.957-1.012c-.237-.428-.356-.92-.356-1.476 0-.483.082-.925.247-1.326a3.076 3.076 0 011.654-1.696 2.873 2.873 0 011.135-.232c.255 0 .514.032.779.095.264.064.488.165.67.301 0-.164-.005-.378-.014-.642 0-.265-.005-.538-.014-.82 0-.292-.004-.548-.013-.766 0-.228-.005-.383-.014-.465l-1.066-.192-.028-.45 2.01-.561.246.191a108.306 108.306 0 00-.055 3.295l-.013 3.145c0 .464.009.865.027 1.203.027.328.046.56.055.697l.875.219v.45l-1.791.438zm-1.64-.957c.264 0 .51-.054.738-.164.227-.118.46-.323.697-.615v-2.94c-.173-.31-.392-.528-.656-.656a1.81 1.81 0 00-.793-.191c-.575 0-1.026.214-1.354.642-.319.42-.479.967-.479 1.641 0 .72.178 1.28.534 1.682.364.4.802.601 1.312.601zm9.993-.15l.862.219v.45l-1.778.438-.205-.177.014-.862-.041-.013c-.264.373-.538.638-.82.793-.274.145-.57.218-.89.218-.61 0-1.12-.187-1.53-.56-.41-.383-.616-.953-.616-1.71v-1.175c0-.255-.009-.501-.027-.738a20.06 20.06 0 00-.04-.739l-.93-.19v-.452l1.859-.506.246.219a25.28 25.28 0 00-.041.902c-.01.32-.014.652-.014.998l-.014 1.504c0 .565.133.97.397 1.217.264.237.601.355 1.012.355.246 0 .496-.063.752-.191.255-.128.478-.346.67-.656V42.3c0-.2-.005-.397-.014-.588 0-.2-.005-.388-.014-.56a5.199 5.199 0 00-.04-.465l-.999-.192v-.451l1.928-.506.205.191c-.01.256-.018.484-.027.684V42.642c0 .502.009.907.027 1.217.027.301.05.529.068.684zm4.58 1.066c-.51 0-.98-.114-1.408-.341a2.666 2.666 0 01-1.025-1.012c-.255-.447-.383-.975-.383-1.586 0-.593.132-1.126.396-1.6a3.039 3.039 0 012.693-1.559c.402 0 .74.05 1.013.151.273.1.478.233.615.397a.773.773 0 01.219.52.529.529 0 01-.137.368.518.518 0 01-.383.137.847.847 0 01-.383-.082c-.11-.055-.241-.164-.396-.328l-.697-.697.492.136a1.61 1.61 0 00-1.053.11c-.337.145-.615.405-.834.779-.219.364-.328.838-.328 1.422 0 .729.182 1.29.547 1.681.373.392.838.588 1.394.588.347 0 .643-.063.889-.191.255-.128.497-.333.725-.615l.369.314c-.256.474-.58.83-.971 1.067-.392.227-.843.341-1.354.341zm5.756 0a2.915 2.915 0 01-1.435-.355 2.695 2.695 0 01-1.012-1.012c-.246-.446-.37-.97-.37-1.572 0-.647.133-1.208.397-1.682.265-.474.611-.838 1.04-1.093a2.493 2.493 0 011.38-.383c.711.009 1.267.246 1.668.71.401.465.602 1.122.602 1.97v.245h-4.197v-.601h3.294l-.15.178v-.287c0-.53-.118-.935-.355-1.217-.237-.283-.56-.424-.971-.424a1.33 1.33 0 00-.738.232c-.237.146-.429.374-.575.684-.145.3-.218.683-.218 1.148v.165c0 .747.182 1.33.547 1.75.373.419.852.628 1.435.628a1.9 1.9 0 00.861-.191c.256-.128.502-.333.739-.615l.341.314c-.255.474-.578.83-.97 1.067-.392.227-.83.341-1.313.341zm8.067 0c-.338 0-.675-.036-1.012-.109a3.625 3.625 0 01-.861-.315l-.069-1.462h.67l.274.984c.319.219.683.328 1.093.328.31 0 .56-.073.752-.219a.752.752 0 00.287-.615.84.84 0 00-.26-.615c-.173-.182-.51-.378-1.011-.588-.647-.282-1.103-.551-1.367-.807-.265-.264-.397-.601-.397-1.011 0-.328.096-.615.287-.862.2-.255.474-.45.82-.587a3.08 3.08 0 011.204-.22c.255 0 .515.023.78.07.264.045.482.104.655.177l.15 1.422h-.642l-.328-.93a1.069 1.069 0 00-.328-.123 1.485 1.485 0 00-.41-.055c-.32 0-.574.078-.766.233a.688.688 0 00-.287.574.83.83 0 00.314.67c.21.164.58.369 1.108.615.602.273 1.02.542 1.258.807.237.264.355.583.355.957 0 .492-.214.898-.642 1.217-.429.31-.971.464-1.627.464zm3.199-.109l-.027-.506.888-.191c.018-.091.032-.242.041-.451.01-.21.014-.488.014-.834.009-.347.014-.77.014-1.272v-1.709c0-.346-.005-.702-.014-1.066 0-.365-.005-.707-.014-1.026 0-.328-.004-.606-.013-.834 0-.237-.005-.392-.014-.464l-1.012-.137-.027-.438 1.955-.56.26.191-.028 1.149-.027 1.271v1.682l-.014 2.2c0 .539.005 1.026.014 1.464.018.428.036.706.055.834l.888.191-.027.506h-2.912zm3.664 0l-.027-.506.916-.191c.009-.037.013-.1.013-.192.01-.09.018-.237.028-.437.009-.2.013-.479.013-.834v-.903c0-.373-.009-.715-.027-1.025a7.908 7.908 0 00-.068-.724l-.916-.192v-.451l1.941-.506.205.191c-.027.283-.05.561-.068.835-.01.273-.014.592-.014.957v1.722c0 .42.005.766.014 1.04a4 4 0 00.054.519l.916.191-.027.506h-2.953zm1.477-7.506a.874.874 0 01-.602-.232.758.758 0 01-.246-.575c0-.227.082-.419.246-.574a.874.874 0 01.602-.232.796.796 0 01.82.806.796.796 0 01-.82.807zm2.214 10.514l-.027-.492.848-.206v-.245a13.91 13.91 0 00.04-1.094c.01-.255.014-.552.014-.889l.028-3.377c0-.273-.014-.551-.041-.834a7.743 7.743 0 00-.069-.684l-.875-.19v-.452l1.832-.506.233.219-.069.752h.041c.256-.328.534-.575.834-.738.31-.174.643-.26.998-.26.502 0 .944.127 1.327.383.392.246.697.587.916 1.025.228.428.342.925.342 1.49 0 .602-.137 1.144-.41 1.627a3.08 3.08 0 01-1.122 1.148c-.465.274-.993.41-1.586.41-.218 0-.446-.022-.683-.068a4.46 4.46 0 01-.63-.164v1.026c0 .346.005.638.014.875l.041.546 1.122.178-.028.52h-3.09zm3.295-3.582c.365 0 .684-.087.957-.26.283-.173.502-.428.657-.766.164-.337.25-.747.26-1.23a2.621 2.621 0 00-.22-1.162 1.826 1.826 0 00-.628-.793c-.265-.2-.57-.3-.916-.3-.283 0-.547.067-.793.204-.246.128-.47.32-.67.574v3.309c.182.137.392.241.629.314.237.073.478.11.724.11zm4.047 3.582l-.027-.492.847-.206v-.245a13.91 13.91 0 00.041-1.094c.01-.255.014-.552.014-.889l.027-3.377c0-.273-.013-.551-.04-.834a7.743 7.743 0 00-.069-.684l-.875-.19v-.452l1.832-.506.233.219-.069.752h.041c.255-.328.533-.575.834-.738.31-.174.643-.26.998-.26.502 0 .944.127 1.326.383.392.246.698.587.916 1.025.228.428.342.925.342 1.49 0 .602-.136 1.144-.41 1.627a3.08 3.08 0 01-1.121 1.148c-.465.274-.994.41-1.586.41-.219 0-.447-.022-.684-.068a4.46 4.46 0 01-.628-.164v1.026c0 .346.004.638.013.875l.041.546 1.121.178-.027.52h-3.09zm3.295-3.582c.365 0 .684-.087.957-.26.283-.173.501-.428.656-.766.164-.337.251-.747.26-1.23a2.623 2.623 0 00-.219-1.162 1.826 1.826 0 00-.629-.793c-.264-.2-.57-.3-.915-.3-.283 0-.547.067-.794.204-.246.128-.469.32-.67.574v3.309c.183.137.393.241.63.314.237.073.478.11.724.11zm6.33.683c-.364 0-.688-.073-.97-.218a1.855 1.855 0 01-.67-.56 1.247 1.247 0 01-.233-.712c0-.31.1-.565.3-.766.201-.2.53-.373.985-.519l2.078-.697v-.697a1 1 0 00-.205-.616 1.404 1.404 0 00-.547-.451 1.747 1.747 0 00-.765-.164c-.228 0-.383.05-.465.15-.082.091-.132.278-.15.56l-.028.575c-.328.073-.606.064-.834-.027-.228-.1-.341-.26-.341-.479 0-.155.063-.31.19-.465.138-.155.315-.3.534-.437a3.75 3.75 0 011.463-.574c.674 0 1.212.178 1.613.533.41.355.62.82.63 1.395l-.028 2.296c0 .174.004.342.013.506.019.164.041.287.069.37l.875.163v.424l-.67.246a3.824 3.824 0 01-.356.11.901.901 0 01-.273.054c-.282 0-.465-.16-.547-.478l-.15-.533h.205c-.301.337-.593.592-.875.765a1.627 1.627 0 01-.848.246zm.37-.806c.209 0 .405-.046.587-.137.183-.1.36-.25.533-.451v-1.436l-1.53.41c-.22.055-.38.142-.48.26a.719.719 0 00-.136.451c0 .228.1.438.3.63.21.182.452.273.725.273zm6.616 3.814c-.838 0-1.503-.136-1.996-.41-.492-.273-.738-.638-.738-1.094 0-.31.123-.597.37-.861.245-.264.642-.533 1.189-.807l.52.11c-.302.173-.534.373-.698.601a1.3 1.3 0 00-.246.752.97.97 0 00.437.848c.301.2.707.3 1.217.3.593 0 1.071-.127 1.436-.382.364-.255.547-.584.547-.984 0-.31-.114-.543-.342-.698-.219-.146-.584-.237-1.094-.273l-1.463-.123-.205-.055a1.42 1.42 0 01-.861-.26c-.228-.182-.342-.4-.342-.656 0-.246.118-.488.355-.725s.566-.446.985-.628l.177.273a1.85 1.85 0 00-.382.328.412.412 0 00-.123.274c0 .127.054.236.164.328.118.09.282.145.492.164l1.764.177c.629.064 1.107.224 1.435.479.328.255.492.62.492 1.094 0 .419-.136.797-.41 1.134-.273.338-.642.602-1.107.793-.465.2-.99.301-1.573.301zm.11-4.812c-.483 0-.916-.087-1.299-.26a2.129 2.129 0 01-.875-.711c-.21-.31-.314-.66-.314-1.053 0-.428.109-.81.328-1.148.219-.347.515-.615.888-.807.374-.2.793-.3 1.258-.3.465 0 .88.09 1.244.273.374.182.666.437.875.766.21.319.315.683.315 1.093 0 .401-.11.766-.328 1.094-.21.328-.497.588-.862.78a2.713 2.713 0 01-1.23.273zm.068-.547c.374 0 .67-.137.889-.41.219-.274.328-.638.328-1.094 0-.51-.123-.92-.37-1.23a1.129 1.129 0 00-.942-.465c-.374 0-.68.145-.916.437-.237.292-.356.67-.356 1.135 0 .483.123.875.37 1.176.254.3.587.45.997.45zm3.172-2.748l-1.627-.11-.533-.547 2.16-.218v.875zm3.555 5.1a2.915 2.915 0 01-1.436-.356 2.695 2.695 0 01-1.011-1.012c-.247-.446-.37-.97-.37-1.572 0-.647.132-1.208.397-1.682.264-.474.61-.838 1.039-1.093a2.493 2.493 0 011.38-.383c.712.009 1.268.246 1.669.71.4.465.601 1.122.601 1.97v.245h-4.197v-.601h3.295l-.15.178v-.287c0-.53-.119-.935-.356-1.217-.237-.283-.56-.424-.97-.424a1.33 1.33 0 00-.739.232c-.237.146-.428.374-.574.684-.146.3-.219.683-.219 1.148v.165c0 .747.183 1.33.547 1.75.374.419.852.628 1.436.628a1.9 1.9 0 00.86-.191c.256-.128.502-.333.74-.615l.341.314c-.255.474-.579.83-.97 1.067-.393.227-.83.341-1.313.341zm4.293.027a.861.861 0 01-.615-.233.819.819 0 01-.247-.601c0-.164.037-.306.11-.424a.794.794 0 01.3-.3.944.944 0 01.452-.11c.246 0 .45.082.615.246a.774.774 0 01.246.588.818.818 0 01-.246.601.861.861 0 01-.615.233zM4.334 66.596c-.68 0-1.272-.088-1.776-.264a4.348 4.348 0 01-1.356-.792l.252-.432c.296.232.58.424.852.576.272.144.568.252.888.324.328.064.704.096 1.128.096.784 0 1.376-.156 1.776-.468.408-.32.612-.744.612-1.272 0-.448-.144-.792-.432-1.032-.28-.24-.764-.428-1.452-.564l-1.188-.24c-.776-.16-1.352-.412-1.728-.756-.376-.344-.564-.82-.564-1.428 0-.48.124-.9.372-1.26a2.45 2.45 0 011.032-.84c.44-.2.952-.3 1.536-.3a4.56 4.56 0 011.62.276c.488.184.908.46 1.26.828l-.24.432c-.392-.376-.796-.644-1.212-.804a3.958 3.958 0 00-1.428-.24c-.736 0-1.324.172-1.764.516-.432.344-.648.808-.648 1.392 0 .472.14.84.42 1.104.28.256.732.448 1.356.576l1.2.24c.832.168 1.436.412 1.812.732.384.312.576.764.576 1.356 0 .44-.116.832-.348 1.176-.232.336-.568.6-1.008.792-.432.184-.948.276-1.548.276zm4.543-.096v-6h.504v6h-.504zm-.132-7.572v-.756h.768v.756h-.768zM11.49 66.5v-4.704c0-.208-.012-.42-.036-.636a20.212 20.212 0 00-.06-.66h.492l.108 1.44h-.144c.152-.496.404-.876.756-1.14.352-.264.78-.396 1.284-.396.528 0 .952.128 1.272.384.32.248.528.636.624 1.164h-.168c.136-.472.392-.848.768-1.128.384-.28.844-.42 1.38-.42.64 0 1.128.184 1.464.552.336.368.504.944.504 1.728V66.5h-.504v-3.768c0-.648-.116-1.12-.348-1.416-.232-.296-.608-.444-1.128-.444-.584 0-1.048.196-1.392.588-.336.392-.504.92-.504 1.584V66.5h-.504v-3.768c0-.648-.116-1.12-.348-1.416-.232-.296-.608-.444-1.128-.444-.584 0-1.044.196-1.38.588-.336.392-.504.92-.504 1.584V66.5h-.504zm10.324 2.592v-7.296c0-.208-.012-.42-.036-.636a20.212 20.212 0 00-.06-.66h.492l.12 1.572h-.144c.136-.52.4-.928.792-1.224.4-.296.888-.444 1.464-.444.544 0 1.012.124 1.404.372.4.248.708.604.924 1.068.224.456.336 1.008.336 1.656 0 .64-.108 1.192-.324 1.656-.216.464-.524.82-.924 1.068-.4.248-.872.372-1.416.372-.576 0-1.064-.148-1.464-.444-.392-.296-.656-.704-.792-1.224h.132v4.164h-.504zm2.628-2.964c.656 0 1.176-.224 1.56-.672.392-.456.588-1.108.588-1.956 0-.848-.196-1.496-.588-1.944-.384-.456-.904-.684-1.56-.684s-1.176.228-1.56.684c-.384.448-.576 1.096-.576 1.944 0 .848.192 1.5.576 1.956.384.448.904.672 1.56.672zm4.368.372v-8.832h.504V66.5h-.504zm2.613 0v-6h.504v6h-.504zm-.132-7.572v-.756h.768v.756h-.768zm2.986 7.572v-5.568h-1.2V60.5h1.32l-.12.132v-1.068c0-.616.148-1.092.444-1.428.304-.344.732-.516 1.284-.516.136 0 .28.016.432.048.152.024.272.056.36.096v.48a1.85 1.85 0 00-.336-.108 1.881 1.881 0 00-.432-.048c-.28 0-.516.06-.708.18-.184.12-.32.296-.408.528-.088.224-.132.508-.132.852v1.02l-.096-.168h1.86v.432H34.78V66.5h-.504zm3.092 2.724l-.12-.468c.376-.088.684-.2.924-.336.248-.128.456-.296.624-.504.168-.208.32-.468.456-.78l.312-.72-.012.252-2.616-6.168h.576l2.412 5.808h-.276l2.376-5.808h.576l-2.796 6.648c-.144.344-.3.632-.468.864-.168.24-.352.44-.552.6-.192.16-.408.288-.648.384a4.12 4.12 0 01-.768.228zM3.89 81.596c-.544 0-1.016-.124-1.416-.372a2.422 2.422 0 01-.924-1.068c-.216-.464-.324-1.016-.324-1.656 0-.64.108-1.192.324-1.656.216-.464.524-.82.924-1.068.4-.248.872-.372 1.416-.372.544 0 1.016.124 1.416.372.4.248.708.604.924 1.068.224.464.336 1.016.336 1.656 0 .64-.112 1.192-.336 1.656-.216.464-.524.82-.924 1.068-.4.248-.872.372-1.416.372zm0-.468c.656 0 1.18-.224 1.572-.672.392-.456.588-1.108.588-1.956 0-.848-.196-1.496-.588-1.944-.392-.456-.916-.684-1.572-.684s-1.18.228-1.572.684c-.384.448-.576 1.096-.576 1.944 0 .848.192 1.5.576 1.956.392.448.916.672 1.572.672zm4.353.372v-4.632c0-.224-.008-.452-.024-.684a9.489 9.489 0 00-.048-.684h.492l.072 1.308-.108.012c.08-.32.224-.584.432-.792.216-.208.46-.364.732-.468a2.367 2.367 0 011.104-.144c.096.008.184.024.264.048l-.024.468a1.292 1.292 0 00-.264-.048 3.195 3.195 0 00-.288-.012c-.368 0-.692.096-.972.288a1.96 1.96 0 00-.636.696 1.64 1.64 0 00-.228.804v3.84h-.504zm4.055 0v-6h.504v6h-.504zm-.132-7.572v-.756h.768v.756h-.768zm5.266 10.248c-.488 0-.948-.072-1.38-.216a3.504 3.504 0 01-1.152-.624l.24-.408c.264.192.512.344.744.456.232.112.472.192.72.24.256.056.536.084.84.084.624 0 1.096-.172 1.416-.516.328-.336.492-.82.492-1.452v-2.052h.132c-.128.528-.4.94-.816 1.236-.408.296-.896.444-1.464.444-.552 0-1.032-.12-1.44-.36a2.526 2.526 0 01-.936-1.044c-.216-.448-.324-.976-.324-1.584 0-.608.108-1.132.324-1.572.224-.448.536-.792.936-1.032.408-.248.888-.372 1.44-.372.568 0 1.056.148 1.464.444.416.296.688.712.816 1.248l-.132-.156.108-1.44h.492l-.072.66a8.61 8.61 0 00-.024.636v4.86c0 .832-.204 1.46-.612 1.884-.408.424-1.012.636-1.812.636zm-.24-3.276c.664 0 1.188-.22 1.572-.66.392-.448.588-1.068.588-1.86s-.196-1.408-.588-1.848c-.384-.44-.908-.66-1.572-.66s-1.192.22-1.584.66c-.392.44-.588 1.056-.588 1.848s.196 1.412.588 1.86c.392.44.92.66 1.584.66zm4.763.6v-6h.504v6h-.504zm-.132-7.572v-.756h.768v.756h-.768zm2.745 7.572v-4.704c0-.208-.012-.42-.036-.636a20.212 20.212 0 00-.06-.66h.492l.108 1.44h-.144c.168-.504.448-.884.84-1.14.4-.264.868-.396 1.404-.396.712 0 1.248.184 1.608.552.368.368.552.944.552 1.728V81.5h-.504v-3.768c0-.648-.132-1.12-.396-1.416-.264-.296-.68-.444-1.248-.444-.648 0-1.164.196-1.548.588-.376.392-.564.92-.564 1.584V81.5h-.504zm9.1.096c-.544 0-1.016-.124-1.416-.372a2.422 2.422 0 01-.924-1.068c-.216-.464-.324-1.016-.324-1.656 0-.648.108-1.2.324-1.656.224-.464.536-.82.936-1.068.4-.248.868-.372 1.404-.372.568 0 1.052.148 1.452.444.408.296.676.704.804 1.224h-.144l.12-1.572h.492l-.072.66a8.61 8.61 0 00-.024.636V81.5h-.504v-1.572h.132c-.128.52-.396.928-.804 1.224-.408.296-.892.444-1.452.444zm0-.468c.656 0 1.176-.224 1.56-.672.384-.456.576-1.108.576-1.956 0-.848-.192-1.496-.576-1.944-.384-.456-.904-.684-1.56-.684s-1.18.228-1.572.684c-.384.448-.576 1.096-.576 1.944 0 .848.192 1.5.576 1.956.392.448.916.672 1.572.672zm6.492.468c-.488 0-.864-.152-1.128-.456-.256-.312-.384-.784-.384-1.416v-3.792h-1.2V75.5h1.2v-1.716l.504-.192V75.5h1.824v.432h-1.824v3.684c0 .528.08.912.24 1.152.168.24.436.36.804.36a1.785 1.785 0 00.756-.156v.48c-.088.04-.208.072-.36.096a1.986 1.986 0 01-.432.048zm2.138-.096v-6h.504v6h-.504zm-.132-7.572v-.756h.768v.756h-.768zm5.002 7.668c-.544 0-1.016-.124-1.416-.372a2.422 2.422 0 01-.924-1.068c-.216-.464-.324-1.016-.324-1.656 0-.64.108-1.192.324-1.656.216-.464.524-.82.924-1.068.4-.248.872-.372 1.416-.372.544 0 1.016.124 1.416.372.4.248.708.604.924 1.068.224.464.336 1.016.336 1.656 0 .64-.112 1.192-.336 1.656-.216.464-.524.82-.924 1.068-.4.248-.872.372-1.416.372zm0-.468c.656 0 1.18-.224 1.572-.672.392-.456.588-1.108.588-1.956 0-.848-.196-1.496-.588-1.944-.392-.456-.916-.684-1.572-.684s-1.18.228-1.572.684c-.384.448-.576 1.096-.576 1.944 0 .848.192 1.5.576 1.956.392.448.916.672 1.572.672zm4.377.372v-4.704c0-.208-.013-.42-.037-.636a20.212 20.212 0 00-.06-.66h.492l.108 1.44h-.144c.168-.504.448-.884.84-1.14.4-.264.868-.396 1.404-.396.712 0 1.248.184 1.608.552.368.368.553.944.553 1.728V81.5h-.505v-3.768c0-.648-.132-1.12-.396-1.416-.264-.296-.68-.444-1.248-.444-.647 0-1.163.196-1.547.588-.377.392-.565.92-.565 1.584V81.5h-.504zm16.54.096a6.606 6.606 0 01-1.009-.696 7.592 7.592 0 01-.72-.72h.156c-.32.448-.724.796-1.212 1.044a3.524 3.524 0 01-1.62.372c-.544 0-1.008-.084-1.392-.252-.384-.168-.676-.4-.876-.696-.2-.304-.3-.66-.3-1.068 0-.552.16-1.02.48-1.404.32-.392.788-.8 1.404-1.224l.384-.264-.06.096c-.4-.448-.688-.828-.864-1.14a1.952 1.952 0 01-.264-.972c0-.344.076-.644.228-.9.16-.256.38-.456.66-.6a2.13 2.13 0 011.008-.228c.48 0 .884.144 1.212.432.336.28.504.668.504 1.164 0 .272-.056.528-.168.768-.112.24-.304.488-.576.744-.272.248-.656.532-1.152.852l.024-.156 2.52 2.832h-.132c.208-.336.372-.76.492-1.272.128-.52.196-1.072.204-1.656h.492a7.915 7.915 0 01-.252 1.86 5.763 5.763 0 01-.612 1.476l-.024-.216c.192.224.444.472.756.744.312.264.644.492.996.684l-.288.396zm-4.417-.468c.552 0 1.04-.112 1.464-.336a3.12 3.12 0 001.08-.996v.216l-2.688-2.988h.168l-.396.276a8.58 8.58 0 00-.96.756 2.4 2.4 0 00-.552.696 1.858 1.858 0 00-.168.816c0 .488.172.872.516 1.152.352.272.864.408 1.536.408zm.42-7.716c-.416 0-.752.116-1.008.348-.256.232-.384.54-.384.924 0 .192.032.372.096.54.064.16.172.344.324.552.16.2.376.456.648.768l-.18.048c.608-.4 1.048-.748 1.32-1.044.272-.304.408-.624.408-.96 0-.352-.112-.636-.336-.852-.224-.216-.52-.324-.888-.324zm10.42 8.184c-.544 0-1.016-.124-1.416-.372a2.422 2.422 0 01-.924-1.068c-.216-.464-.324-1.016-.324-1.656 0-.64.108-1.192.324-1.656.216-.464.524-.82.924-1.068.4-.248.872-.372 1.416-.372.544 0 1.016.124 1.416.372.4.248.708.604.924 1.068.224.464.336 1.016.336 1.656 0 .64-.112 1.192-.336 1.656-.216.464-.524.82-.924 1.068-.4.248-.872.372-1.416.372zm0-.468c.656 0 1.18-.224 1.572-.672.392-.456.588-1.108.588-1.956 0-.848-.196-1.496-.588-1.944-.392-.456-.916-.684-1.572-.684s-1.18.228-1.572.684c-.384.448-.576 1.096-.576 1.944 0 .848.192 1.5.576 1.956.392.448.916.672 1.572.672zm4.558.372v-5.568h-1.2V75.5h1.32l-.12.132v-1.068c0-.616.148-1.092.444-1.428.304-.344.732-.516 1.284-.516.136 0 .28.016.432.048.152.024.272.056.36.096v.48a1.85 1.85 0 00-.336-.108 1.881 1.881 0 00-.432-.048c-.28 0-.516.06-.708.18-.184.12-.32.296-.408.528-.088.224-.132.508-.132.852v1.02l-.096-.168h1.86v.432H79.57V81.5h-.504zm3.61 0v-5.568h-1.2V75.5h1.32l-.12.132v-1.068c0-.616.147-1.092.443-1.428.304-.344.732-.516 1.284-.516.136 0 .28.016.432.048.152.024.272.056.36.096v.48a1.85 1.85 0 00-.336-.108 1.881 1.881 0 00-.432-.048c-.28 0-.516.06-.708.18-.184.12-.32.296-.408.528-.088.224-.132.508-.132.852v1.02l-.096-.168h1.86v.432H83.18V81.5h-.504zm5.782.096c-.88 0-1.58-.268-2.1-.804-.52-.544-.78-1.3-.78-2.268 0-.64.116-1.192.348-1.656.232-.464.556-.824.972-1.08a2.754 2.754 0 011.452-.384c.52 0 .96.112 1.32.336.368.216.648.532.84.948.2.408.3.896.3 1.464v.324h-4.908v-.456h4.644l-.204.156c0-.72-.168-1.284-.504-1.692-.336-.416-.836-.624-1.5-.624-.704 0-1.256.24-1.656.72-.392.48-.588 1.108-.588 1.884v.06c0 .848.208 1.496.624 1.944.416.44.996.66 1.74.66.376 0 .728-.06 1.056-.18.328-.12.644-.324.948-.612l.252.396c-.248.272-.576.484-.984.636a3.614 3.614 0 01-1.272.228zm3.996-.096v-4.632c0-.224-.008-.452-.024-.684a9.489 9.489 0 00-.048-.684h.492l.072 1.308-.108.012c.08-.32.224-.584.432-.792.216-.208.46-.364.732-.468a2.367 2.367 0 011.104-.144c.096.008.184.024.264.048l-.024.468a1.292 1.292 0 00-.264-.048 3.195 3.195 0 00-.288-.012c-.368 0-.692.096-.972.288a1.96 1.96 0 00-.636.696 1.64 1.64 0 00-.228.804v3.84h-.504zm-90.82 15v-4.704c0-.208-.012-.42-.036-.636a20.212 20.212 0 00-.06-.66h.492l.108 1.44h-.144c.152-.496.404-.876.756-1.14.352-.264.78-.396 1.284-.396.528 0 .952.128 1.272.384.32.248.528.636.624 1.164h-.168c.136-.472.392-.848.768-1.128.384-.28.844-.42 1.38-.42.64 0 1.128.184 1.464.552.336.368.504.944.504 1.728V96.5h-.504v-3.768c0-.648-.116-1.12-.348-1.416-.232-.296-.608-.444-1.128-.444-.584 0-1.048.196-1.392.588-.336.392-.504.92-.504 1.584V96.5h-.504v-3.768c0-.648-.116-1.12-.348-1.416-.232-.296-.608-.444-1.128-.444-.584 0-1.044.196-1.38.588-.336.392-.504.92-.504 1.584V96.5h-.504zm12.58.096c-.543 0-1.015-.124-1.415-.372a2.422 2.422 0 01-.924-1.068c-.216-.464-.324-1.016-.324-1.656 0-.648.108-1.2.324-1.656.224-.464.536-.82.936-1.068.4-.248.868-.372 1.404-.372.568 0 1.052.148 1.452.444.408.296.676.704.804 1.224h-.144l.12-1.572h.492l-.072.66a8.61 8.61 0 00-.024.636V96.5h-.504v-1.572h.132c-.128.52-.396.928-.804 1.224-.408.296-.892.444-1.452.444zm0-.468c.657 0 1.177-.224 1.56-.672.385-.456.577-1.108.577-1.956 0-.848-.192-1.496-.576-1.944-.384-.456-.904-.684-1.56-.684s-1.18.228-1.572.684c-.384.448-.576 1.096-.576 1.944 0 .848.192 1.5.576 1.956.392.448.916.672 1.572.672zm4.74.372v-4.704c0-.208-.011-.42-.035-.636a20.212 20.212 0 00-.06-.66h.492l.108 1.44h-.144c.168-.504.448-.884.84-1.14.4-.264.868-.396 1.404-.396.712 0 1.248.184 1.608.552.368.368.552.944.552 1.728V96.5h-.504v-3.768c0-.648-.132-1.12-.396-1.416-.264-.296-.68-.444-1.248-.444-.648 0-1.164.196-1.548.588-.376.392-.564.92-.564 1.584V96.5h-.504zm9.1.096c-.544 0-1.016-.124-1.416-.372a2.422 2.422 0 01-.924-1.068c-.216-.464-.324-1.016-.324-1.656 0-.648.108-1.2.324-1.656.224-.464.536-.82.936-1.068.4-.248.868-.372 1.404-.372.568 0 1.052.148 1.452.444.408.296.676.704.804 1.224h-.144l.12-1.572h.492l-.072.66a8.61 8.61 0 00-.024.636V96.5h-.504v-1.572h.132c-.128.52-.396.928-.804 1.224-.408.296-.892.444-1.452.444zm0-.468c.656 0 1.176-.224 1.56-.672.384-.456.576-1.108.576-1.956 0-.848-.192-1.496-.576-1.944-.384-.456-.904-.684-1.56-.684s-1.18.228-1.572.684c-.384.448-.576 1.096-.576 1.944 0 .848.192 1.5.576 1.956.392.448.916.672 1.572.672zm7.26 3.048c-.487 0-.947-.072-1.38-.216a3.504 3.504 0 01-1.151-.624l.24-.408c.263.192.511.344.743.456.233.112.473.192.72.24.257.056.537.084.84.084.624 0 1.096-.172 1.416-.516.329-.336.492-.82.492-1.452v-2.052h.133c-.128.528-.4.94-.816 1.236-.409.296-.897.444-1.465.444-.551 0-1.032-.12-1.44-.36a2.526 2.526 0 01-.935-1.044c-.216-.448-.325-.976-.325-1.584 0-.608.108-1.132.325-1.572.224-.448.535-.792.936-1.032.407-.248.888-.372 1.44-.372.567 0 1.055.148 1.463.444.417.296.689.712.817 1.248l-.133-.156.108-1.44h.492l-.072.66a8.61 8.61 0 00-.023.636v4.86c0 .832-.204 1.46-.612 1.884-.409.424-1.013.636-1.813.636zm-.24-3.276c.665 0 1.189-.22 1.573-.66.392-.448.587-1.068.587-1.86s-.196-1.408-.587-1.848c-.384-.44-.908-.66-1.572-.66-.665 0-1.193.22-1.585.66-.392.44-.587 1.056-.587 1.848s.196 1.412.587 1.86c.392.44.92.66 1.584.66zm7.236.696c-.88 0-1.58-.268-2.1-.804-.52-.544-.78-1.3-.78-2.268 0-.64.115-1.192.348-1.656.232-.464.556-.824.971-1.08a2.754 2.754 0 011.453-.384c.52 0 .96.112 1.32.336.367.216.648.532.84.948.2.408.3.896.3 1.464v.324h-4.908v-.456h4.644l-.205.156c0-.72-.167-1.284-.503-1.692-.337-.416-.837-.624-1.5-.624-.704 0-1.256.24-1.657.72-.392.48-.587 1.108-.587 1.884v.06c0 .848.208 1.496.623 1.944.416.44.996.66 1.74.66.377 0 .729-.06 1.056-.18.328-.12.645-.324.948-.612l.252.396c-.247.272-.575.484-.983.636a3.614 3.614 0 01-1.273.228zm4.02-.096v-4.704c0-.208-.012-.42-.036-.636a20.212 20.212 0 00-.06-.66h.492l.108 1.44h-.144c.152-.496.404-.876.756-1.14.352-.264.78-.396 1.284-.396.528 0 .952.128 1.272.384.32.248.528.636.624 1.164h-.168c.136-.472.392-.848.768-1.128.384-.28.844-.42 1.38-.42.64 0 1.128.184 1.464.552.336.368.504.944.504 1.728V96.5h-.504v-3.768c0-.648-.116-1.12-.348-1.416-.232-.296-.608-.444-1.128-.444-.584 0-1.048.196-1.392.588-.336.392-.504.92-.504 1.584V96.5h-.504v-3.768c0-.648-.116-1.12-.348-1.416-.232-.296-.608-.444-1.128-.444-.584 0-1.044.196-1.38.588-.336.392-.504.92-.504 1.584V96.5h-.504zm12.796.096c-.88 0-1.58-.268-2.1-.804-.52-.544-.78-1.3-.78-2.268 0-.64.116-1.192.348-1.656.232-.464.556-.824.972-1.08a2.754 2.754 0 011.452-.384c.52 0 .96.112 1.32.336.368.216.648.532.84.948.2.408.3.896.3 1.464v.324H56.57v-.456h4.644l-.204.156c0-.72-.168-1.284-.504-1.692-.336-.416-.836-.624-1.5-.624-.704 0-1.256.24-1.656.72-.392.48-.588 1.108-.588 1.884v.06c0 .848.208 1.496.624 1.944.416.44.996.66 1.74.66.376 0 .728-.06 1.056-.18.328-.12.644-.324.948-.612l.252.396c-.248.272-.576.484-.984.636a3.614 3.614 0 01-1.272.228zm4.02-.096v-4.704c0-.208-.012-.42-.036-.636a20.212 20.212 0 00-.06-.66h.492l.108 1.44h-.144c.168-.504.448-.884.84-1.14.4-.264.868-.396 1.404-.396.712 0 1.248.184 1.608.552.368.368.552.944.552 1.728V96.5h-.504v-3.768c0-.648-.132-1.12-.396-1.416-.264-.296-.68-.444-1.248-.444-.648 0-1.164.196-1.548.588-.376.392-.564.92-.564 1.584V96.5h-.504zm8.596.096c-.488 0-.864-.152-1.128-.456-.256-.312-.384-.784-.384-1.416v-3.792h-1.2V90.5h1.2v-1.716l.504-.192V90.5h1.824v.432h-1.824v3.684c0 .528.08.912.24 1.152.168.24.436.36.804.36a1.785 1.785 0 00.756-.156v.48c-.088.04-.208.072-.36.096a1.986 1.986 0 01-.432.048zm6.698-.096l-2.111-6h.564l2.004 5.832h-.325L80.66 90.5h.636l2.052 5.832h-.323l2.027-5.832h.552l-2.123 6h-.6l-2.076-5.892h.36L79.052 96.5h-.612zm8.73 0v-6h.504v6h-.505zm-.133-7.572v-.756h.768v.756h-.768zm4.498 7.668c-.488 0-.864-.152-1.128-.456-.256-.312-.384-.784-.384-1.416v-3.792h-1.2V90.5h1.2v-1.716l.504-.192V90.5h1.824v.432h-1.824v3.684c0 .528.08.912.24 1.152.168.24.436.36.804.36a1.785 1.785 0 00.756-.156v.48c-.088.04-.208.072-.36.096a1.986 1.986 0 01-.432.048zm2.138-.096v-8.832h.504v4.284h-.144c.16-.512.444-.896.852-1.152.408-.264.88-.396 1.416-.396.728 0 1.264.188 1.608.564.352.376.528.94.528 1.692v3.84h-.504v-3.792c0-.64-.128-1.104-.384-1.392-.256-.296-.672-.444-1.248-.444-.64 0-1.156.196-1.548.588-.384.392-.576.912-.576 1.56v3.48h-.504zM4.334 111.596c-.68 0-1.272-.088-1.776-.264a4.348 4.348 0 01-1.356-.792l.252-.432c.296.232.58.424.852.576.272.144.568.252.888.324.328.064.704.096 1.128.096.784 0 1.376-.156 1.776-.468.408-.32.612-.744.612-1.272 0-.448-.144-.792-.432-1.032-.28-.24-.764-.428-1.452-.564l-1.188-.24c-.776-.16-1.352-.412-1.728-.756-.376-.344-.564-.82-.564-1.428 0-.48.124-.9.372-1.26a2.45 2.45 0 011.032-.84c.44-.2.952-.3 1.536-.3a4.56 4.56 0 011.62.276c.488.184.908.46 1.26.828l-.24.432c-.392-.376-.796-.644-1.212-.804a3.958 3.958 0 00-1.428-.24c-.736 0-1.324.172-1.764.516-.432.344-.648.808-.648 1.392 0 .472.14.84.42 1.104.28.256.732.448 1.356.576l1.2.24c.832.168 1.436.412 1.812.732.384.312.576.764.576 1.356 0 .44-.116.832-.348 1.176-.232.336-.568.6-1.008.792-.432.184-.948.276-1.548.276zm6.306 0c-.488 0-.864-.152-1.128-.456-.256-.312-.384-.784-.384-1.416v-3.792h-1.2v-.432h1.2v-1.716l.504-.192v1.908h1.824v.432H9.632v3.684c0 .528.08.912.24 1.152.168.24.436.36.804.36a1.785 1.785 0 00.756-.156v.48c-.088.04-.208.072-.36.096a1.986 1.986 0 01-.432.048zm4.336 0c-.544 0-1.016-.124-1.416-.372a2.422 2.422 0 01-.924-1.068c-.216-.464-.324-1.016-.324-1.656 0-.64.108-1.192.324-1.656.216-.464.524-.82.924-1.068.4-.248.872-.372 1.416-.372.544 0 1.016.124 1.416.372.4.248.708.604.924 1.068.224.464.336 1.016.336 1.656 0 .64-.112 1.192-.336 1.656-.216.464-.524.82-.924 1.068-.4.248-.872.372-1.416.372zm0-.468c.656 0 1.18-.224 1.572-.672.392-.456.588-1.108.588-1.956 0-.848-.196-1.496-.588-1.944-.392-.456-.916-.684-1.572-.684s-1.18.228-1.572.684c-.384.448-.576 1.096-.576 1.944 0 .848.192 1.5.576 1.956.392.448.916.672 1.572.672zm4.377.372v-4.704c0-.208-.012-.42-.036-.636a20.212 20.212 0 00-.06-.66h.492l.108 1.44h-.144c.168-.504.448-.884.84-1.14.4-.264.868-.396 1.404-.396.712 0 1.248.184 1.608.552.368.368.552.944.552 1.728v3.816h-.504v-3.768c0-.648-.132-1.12-.396-1.416-.264-.296-.68-.444-1.248-.444-.648 0-1.164.196-1.548.588-.376.392-.564.92-.564 1.584v3.456h-.504zm9.316.096c-.88 0-1.58-.268-2.1-.804-.52-.544-.78-1.3-.78-2.268 0-.64.116-1.192.348-1.656.232-.464.556-.824.972-1.08a2.754 2.754 0 011.452-.384c.52 0 .96.112 1.32.336.368.216.648.532.84.948.2.408.3.896.3 1.464v.324h-4.908v-.456h4.644l-.204.156c0-.72-.168-1.284-.504-1.692-.336-.416-.836-.624-1.5-.624-.704 0-1.256.24-1.656.72-.392.48-.588 1.108-.588 1.884v.06c0 .848.208 1.496.624 1.944.416.44.996.66 1.74.66.376 0 .728-.06 1.056-.18.328-.12.644-.324.948-.612l.252.396c-.248.272-.576.484-.984.636a3.614 3.614 0 01-1.272.228zm4.128-.096v-8.46h.504v3.936h5.772v-3.936h.504v8.46h-.504v-4.056h-5.772v4.056h-.504zm11.47.096c-.88 0-1.58-.268-2.1-.804-.52-.544-.78-1.3-.78-2.268 0-.64.115-1.192.347-1.656.233-.464.556-.824.972-1.08a2.754 2.754 0 011.452-.384c.52 0 .96.112 1.32.336.368.216.648.532.84.948.2.408.3.896.3 1.464v.324h-4.907v-.456h4.644l-.204.156c0-.72-.169-1.284-.505-1.692-.336-.416-.836-.624-1.5-.624-.703 0-1.255.24-1.656.72-.392.48-.587 1.108-.587 1.884v.06c0 .848.208 1.496.623 1.944.416.44.996.66 1.74.66.377 0 .729-.06 1.056-.18.328-.12.645-.324.948-.612l.252.396c-.247.272-.575.484-.983.636a3.614 3.614 0 01-1.273.228zm6.252 0c-.536 0-1.004-.124-1.404-.372a2.448 2.448 0 01-.912-1.068c-.216-.464-.324-1.016-.324-1.656 0-.648.108-1.2.324-1.656.216-.464.52-.82.912-1.068.4-.248.868-.372 1.404-.372.568 0 1.056.148 1.464.444.408.296.68.704.816 1.224h-.132v-4.404h.504v8.832h-.504v-1.572h.132c-.136.52-.408.928-.816 1.224-.408.296-.896.444-1.464.444zm.012-.468c.648 0 1.168-.224 1.56-.672.392-.456.588-1.108.588-1.956 0-.848-.196-1.496-.588-1.944-.392-.456-.912-.684-1.56-.684-.656 0-1.176.228-1.56.684-.384.448-.576 1.096-.576 1.944 0 .848.192 1.5.576 1.956.384.448.904.672 1.56.672zm7.272 3.048c-.488 0-.948-.072-1.38-.216a3.504 3.504 0 01-1.152-.624l.24-.408c.264.192.512.344.744.456.232.112.472.192.72.24.256.056.536.084.84.084.624 0 1.096-.172 1.416-.516.328-.336.492-.82.492-1.452v-2.052h.132c-.128.528-.4.94-.816 1.236-.408.296-.896.444-1.464.444-.552 0-1.032-.12-1.44-.36a2.526 2.526 0 01-.936-1.044c-.216-.448-.324-.976-.324-1.584 0-.608.108-1.132.324-1.572.224-.448.536-.792.936-1.032.408-.248.888-.372 1.44-.372.568 0 1.056.148 1.464.444.416.296.688.712.816 1.248l-.132-.156.108-1.44h.492l-.072.66a8.61 8.61 0 00-.024.636v4.86c0 .832-.204 1.46-.612 1.884-.408.424-1.012.636-1.812.636zm-.24-3.276c.664 0 1.188-.22 1.572-.66.392-.448.588-1.068.588-1.86s-.196-1.408-.588-1.848c-.384-.44-.908-.66-1.572-.66s-1.192.22-1.584.66c-.392.44-.588 1.056-.588 1.848s.196 1.412.588 1.86c.392.44.92.66 1.584.66zm7.235.696c-.88 0-1.58-.268-2.1-.804-.52-.544-.78-1.3-.78-2.268 0-.64.116-1.192.348-1.656.232-.464.556-.824.972-1.08a2.754 2.754 0 011.452-.384c.52 0 .96.112 1.32.336.368.216.648.532.84.948.2.408.3.896.3 1.464v.324h-4.908v-.456h4.644l-.204.156c0-.72-.168-1.284-.504-1.692-.336-.416-.836-.624-1.5-.624-.704 0-1.256.24-1.656.72-.392.48-.588 1.108-.588 1.884v.06c0 .848.208 1.496.624 1.944.416.44.996.66 1.74.66.376 0 .728-.06 1.056-.18.328-.12.644-.324.948-.612l.252.396c-.248.272-.576.484-.984.636a3.614 3.614 0 01-1.272.228zm3.816-.096v-.84h.828v.84h-.828zM2.26 165.02c-.3 0-.567-.038-.804-.116a1.899 1.899 0 01-.618-.333l.158-.349c.124.091.247.169.37.233.127.059.263.105.408.137.144.028.306.042.486.042.314 0 .547-.058.699-.174a.559.559 0 00.227-.466c0-.165-.053-.292-.159-.38-.106-.089-.29-.159-.555-.212l-.555-.111c-.343-.071-.598-.185-.767-.344-.166-.159-.249-.374-.249-.645 0-.222.056-.416.17-.582a1.14 1.14 0 01.486-.386c.208-.092.45-.138.724-.138.265 0 .506.041.725.122.219.078.406.192.56.344l-.153.338a1.54 1.54 0 00-.523-.317 1.749 1.749 0 00-.614-.101c-.289 0-.518.064-.687.191a.599.599 0 00-.249.508.53.53 0 00.159.407c.105.095.28.167.523.217l.561.111c.36.074.624.185.793.333.17.148.254.356.254.624a.917.917 0 01-.169.545c-.11.159-.266.282-.47.37a1.839 1.839 0 01-.73.132zm2.963 0c-.261 0-.46-.074-.598-.222-.137-.151-.206-.379-.206-.682v-1.465H3.9v-.333h.519v-.725l.428-.122v.847h.762v.333h-.762v1.417c0 .212.036.364.106.455.074.088.183.133.328.133a.968.968 0 00.18-.016c.053-.014.1-.03.143-.048v.36a.72.72 0 01-.18.047.98.98 0 01-.201.021zm1.971 0c-.254 0-.476-.054-.666-.164a1.127 1.127 0 01-.434-.476 1.648 1.648 0 01-.153-.735c0-.285.05-.53.153-.735.102-.204.247-.361.434-.471.19-.113.412-.169.666-.169.258 0 .48.056.667.169.19.11.336.267.439.471.105.205.158.45.158.735 0 .282-.053.527-.158.735a1.117 1.117 0 01-.44.476 1.29 1.29 0 01-.666.164zm0-.349c.254 0 .455-.086.603-.259.148-.176.222-.432.222-.767 0-.338-.075-.594-.227-.767a.74.74 0 00-.598-.264.74.74 0 00-.597.264c-.149.173-.223.429-.223.767 0 .335.074.591.223.767a.746.746 0 00.597.259zm1.932.302v-2.042c0-.099-.005-.199-.016-.301a8.499 8.499 0 00-.026-.312h.413l.052.581h-.063a.911.911 0 01.37-.465c.173-.109.372-.164.598-.164.314 0 .55.085.709.254.162.166.243.428.243.788v1.661h-.429v-1.635c0-.25-.05-.431-.153-.544-.099-.117-.254-.175-.465-.175-.247 0-.443.076-.587.228-.145.151-.217.354-.217.608v1.518h-.429zm4.279.047c-.416 0-.744-.119-.984-.359-.24-.244-.36-.58-.36-1.01 0-.279.053-.521.16-.725.105-.208.253-.369.444-.481.19-.117.409-.175.655-.175.244 0 .448.051.614.153a.996.996 0 01.38.439c.089.187.133.409.133.667v.159h-2.058v-.27h1.778l-.09.069c0-.283-.064-.503-.19-.662-.128-.158-.316-.238-.567-.238-.264 0-.47.094-.619.281-.148.183-.222.432-.222.746v.047c0 .332.081.584.244.756.165.17.396.254.692.254.16 0 .307-.023.445-.068.14-.05.275-.129.402-.238l.148.301a1.208 1.208 0 01-.444.265 1.755 1.755 0 01-.561.089zm1.745-.047v-3.729h.44v1.65h2.247v-1.65h.434v3.729h-.434v-1.703h-2.248v1.703h-.439zm5.181.047c-.416 0-.744-.119-.983-.359-.24-.244-.36-.58-.36-1.01 0-.279.053-.521.159-.725.106-.208.254-.369.444-.481.19-.117.41-.175.656-.175.243 0 .448.051.613.153a.995.995 0 01.381.439c.088.187.133.409.133.667v.159h-2.058v-.27h1.777l-.09.069c0-.283-.063-.503-.19-.662-.127-.158-.316-.238-.566-.238-.265 0-.47.094-.619.281-.148.183-.222.432-.222.746v.047c0 .332.081.584.243.756.166.17.397.254.693.254.159 0 .307-.023.444-.068.141-.05.275-.129.402-.238l.149.301a1.208 1.208 0 01-.445.265 1.755 1.755 0 01-.56.089zm2.703 0c-.233 0-.437-.054-.613-.164a1.128 1.128 0 01-.413-.476 1.727 1.727 0 01-.143-.735c0-.289.048-.536.143-.74.099-.205.236-.362.413-.471.176-.109.38-.164.613-.164.24 0 .446.06.619.18.176.12.294.282.354.487h-.063v-1.857h.428v3.893h-.423v-.635h.058a.868.868 0 01-.349.503c-.176.12-.384.179-.624.179zm.09-.349c.25 0 .451-.086.603-.259.151-.176.227-.432.227-.767 0-.338-.076-.594-.227-.767a.756.756 0 00-.603-.264.756.756 0 00-.603.264c-.148.173-.222.429-.222.767 0 .335.074.591.222.767a.762.762 0 00.603.259zm3.245 1.481c-.229 0-.44-.028-.634-.084a1.637 1.637 0 01-.524-.259l.127-.323a1.574 1.574 0 00.65.286c.113.024.233.037.36.037.261 0 .459-.069.593-.207.134-.137.2-.333.2-.587v-.777h.054a.868.868 0 01-.35.497c-.176.12-.382.18-.618.18-.244 0-.455-.053-.635-.159a1.114 1.114 0 01-.413-.46 1.64 1.64 0 01-.142-.709c0-.268.047-.501.142-.698.1-.198.237-.349.413-.455.18-.109.391-.164.635-.164.24 0 .446.06.619.18.176.12.292.286.349.497l-.053-.053.047-.576h.418a4.39 4.39 0 00-.042.613v2.026c0 .395-.103.693-.307.894-.201.201-.497.301-.889.301zm-.063-1.586c.257 0 .46-.085.608-.254.148-.173.222-.415.222-.725s-.074-.55-.222-.719c-.148-.17-.35-.254-.608-.254a.774.774 0 00-.608.254c-.152.169-.228.409-.228.719s.076.552.228.725a.777.777 0 00.608.254zm3.261.454c-.416 0-.744-.119-.984-.359-.24-.244-.36-.58-.36-1.01 0-.279.053-.521.16-.725.105-.208.253-.369.444-.481.19-.117.408-.175.655-.175.244 0 .448.051.614.153a.995.995 0 01.38.439c.089.187.133.409.133.667v.159h-2.058v-.27h1.778l-.09.069c0-.283-.064-.503-.19-.662-.128-.158-.316-.238-.567-.238-.264 0-.47.094-.619.281-.148.183-.222.432-.222.746v.047c0 .332.082.584.244.756.165.17.396.254.693.254.158 0 .306-.023.444-.068.14-.05.275-.129.402-.238l.148.301a1.207 1.207 0 01-.444.265 1.755 1.755 0 01-.561.089zm3.077-.047v-2.655h.428v2.655h-.428zm-.053-3.258v-.482h.529v.482h-.53zm2.196 3.305c-.211 0-.409-.028-.592-.084a1.276 1.276 0 01-.455-.249l.148-.301c.13.102.272.178.423.227.155.05.316.074.481.074.212 0 .37-.037.477-.111a.367.367 0 00.163-.317.301.301 0 00-.105-.243c-.067-.064-.178-.113-.334-.149l-.491-.1c-.226-.049-.395-.132-.508-.249a.637.637 0 01-.17-.455c0-.155.041-.29.122-.407.081-.12.2-.213.355-.28.155-.071.336-.106.544-.106.194 0 .372.03.535.09.165.056.303.139.412.249l-.153.296a1.025 1.025 0 00-.365-.228 1.126 1.126 0 00-.418-.079c-.208 0-.365.042-.47.127a.392.392 0 00-.154.323c0 .102.032.186.095.253.067.064.17.112.307.143l.492.101c.24.053.418.136.534.248.12.11.18.258.18.445a.689.689 0 01-.132.418.843.843 0 01-.37.269 1.438 1.438 0 01-.55.095zm4.13 0c-.236 0-.442-.054-.619-.164a1.128 1.128 0 01-.412-.476 1.727 1.727 0 01-.143-.735c0-.289.048-.536.143-.74.099-.205.236-.362.412-.471.177-.109.383-.164.62-.164.239 0 .445.062.618.185.176.12.293.284.35.492h-.064l.058-.629h.412l-.031.312a4.39 4.39 0 00-.01.301v2.042h-.43v-.624h.059a.844.844 0 01-.35.492c-.175.12-.38.179-.613.179zm.085-.349c.254 0 .455-.086.603-.259.148-.176.222-.432.222-.767 0-.338-.074-.594-.222-.767a.747.747 0 00-.603-.264.756.756 0 00-.603.264c-.148.173-.222.429-.222.767 0 .335.074.591.222.767a.762.762 0 00.603.259zm3.456 1.444v-3.184c0-.099-.006-.199-.016-.301a8.327 8.327 0 00-.027-.312h.413l.058.629h-.063a.85.85 0 01.343-.492c.173-.123.38-.185.62-.185.239 0 .445.055.618.164.176.109.314.266.413.471.098.204.148.451.148.74 0 .286-.05.531-.148.735a1.094 1.094 0 01-.408.476c-.176.11-.384.164-.624.164-.236 0-.44-.059-.613-.179a.852.852 0 01-.344-.492h.058v1.766h-.428zm1.243-1.444c.253 0 .454-.086.602-.259.152-.176.228-.432.228-.767 0-.338-.076-.594-.227-.767a.747.747 0 00-.603-.264.756.756 0 00-.603.264c-.148.173-.223.429-.223.767 0 .335.075.591.223.767a.762.762 0 00.603.259zm1.917.302v-2.015c0-.106-.003-.214-.01-.323a4.456 4.456 0 00-.021-.317h.412l.053.645-.074.005a.83.83 0 01.497-.619.935.935 0 01.376-.079c.053 0 .099.002.137.005a.42.42 0 01.117.027l-.005.381a.582.582 0 00-.149-.032.914.914 0 00-.148-.011.743.743 0 00-.407.111.75.75 0 00-.344.656v1.566h-.434zm2.991.047c-.254 0-.476-.054-.666-.164a1.127 1.127 0 01-.434-.476 1.648 1.648 0 01-.153-.735c0-.285.05-.53.153-.735.102-.204.247-.361.434-.471a1.28 1.28 0 01.666-.169c.258 0 .48.056.666.169.191.11.337.267.44.471.105.205.158.45.158.735 0 .282-.053.527-.158.735a1.117 1.117 0 01-.44.476 1.29 1.29 0 01-.666.164zm0-.349c.254 0 .455-.086.603-.259.148-.176.222-.432.222-.767 0-.338-.076-.594-.227-.767a.74.74 0 00-.598-.264c-.25 0-.45.088-.598.264-.148.173-.222.429-.222.767 0 .335.074.591.222.767a.746.746 0 00.598.259zm2.937.349c-.233 0-.437-.054-.613-.164a1.129 1.129 0 01-.413-.476 1.727 1.727 0 01-.143-.735c0-.289.048-.536.143-.74.099-.205.236-.362.413-.471.176-.109.38-.164.613-.164.24 0 .446.06.619.18.176.12.294.282.354.487h-.063v-1.857h.428v3.893h-.423v-.635h.058a.869.869 0 01-.349.503c-.176.12-.384.179-.624.179zm.09-.349c.25 0 .451-.086.603-.259.152-.176.228-.432.228-.767 0-.338-.076-.594-.228-.767a.756.756 0 00-.603-.264.756.756 0 00-.603.264c-.148.173-.222.429-.222.767 0 .335.074.591.222.767a.762.762 0 00.603.259zm3.013.349c-.314 0-.552-.086-.714-.259-.159-.172-.238-.437-.238-.793v-1.65h.428v1.639c0 .244.05.423.148.54.099.113.252.169.46.169.233 0 .42-.076.561-.227.141-.152.212-.355.212-.609v-1.512h.428v2.655h-.418v-.598h.069a.946.946 0 01-.36.476.983.983 0 01-.576.169zm3.232 0c-.26 0-.488-.056-.682-.169a1.152 1.152 0 01-.444-.481 1.664 1.664 0 01-.154-.741c0-.289.053-.534.159-.735.106-.204.254-.359.444-.465a1.39 1.39 0 01.677-.159c.17 0 .334.03.492.09.162.06.296.145.402.254l-.153.307a1.046 1.046 0 00-.714-.302c-.275 0-.489.087-.64.259-.152.173-.228.425-.228.757 0 .328.076.581.228.761.151.18.365.27.64.27a1.027 1.027 0 00.714-.296l.153.301c-.11.113-.245.2-.407.26a1.416 1.416 0 01-.487.089zm2.445 0c-.261 0-.46-.074-.598-.222-.138-.151-.206-.379-.206-.682v-1.465h-.519v-.333h.519v-.725l.428-.122v.847h.762v.333h-.762v1.417c0 .212.035.364.106.455.074.088.183.133.328.133a.97.97 0 00.18-.016c.053-.014.1-.03.142-.048v.36a.72.72 0 01-.18.047.98.98 0 01-.2.021zm3.62 0c-.24 0-.447-.059-.62-.179a.902.902 0 01-.349-.503h.059v.635h-.424v-3.893h.429v1.857h-.064a.874.874 0 01.35-.487c.172-.12.379-.18.618-.18.24 0 .446.056.62.169.175.11.311.267.406.471.1.205.148.45.148.735 0 .286-.049.531-.148.735a1.128 1.128 0 01-.412.476c-.173.11-.377.164-.614.164zm-.09-.349c.25 0 .45-.086.602-.259.152-.173.228-.428.228-.767 0-.338-.076-.594-.228-.767a.756.756 0 00-.603-.264.756.756 0 00-.603.264c-.148.173-.222.429-.222.767 0 .335.074.591.222.767a.762.762 0 00.603.259zm1.786 1.503l-.1-.355c.165-.039.303-.084.412-.137a.799.799 0 00.28-.201c.074-.085.138-.191.19-.318l.138-.312-.01.18-1.159-2.713h.466l.957 2.332h-.137l.946-2.332h.45l-1.227 2.877c-.07.169-.148.31-.233.423a1.2 1.2 0 01-.275.28 1.126 1.126 0 01-.317.175 2.37 2.37 0 01-.381.101zm5.559-1.154c-.3 0-.568-.038-.804-.116a1.9 1.9 0 01-.619-.333l.159-.349c.123.091.246.169.37.233.127.059.263.105.407.137.145.028.307.042.487.042.314 0 .546-.058.698-.174a.559.559 0 00.227-.466c0-.165-.053-.292-.158-.38-.106-.089-.291-.159-.556-.212l-.555-.111c-.342-.071-.598-.185-.767-.344-.166-.159-.249-.374-.249-.645 0-.222.057-.416.17-.582a1.14 1.14 0 01.486-.386c.208-.092.45-.138.725-.138.264 0 .506.041.725.122.218.078.405.192.56.344l-.153.338a1.539 1.539 0 00-.524-.317 1.749 1.749 0 00-.613-.101c-.29 0-.519.064-.688.191a.598.598 0 00-.248.508.53.53 0 00.158.407c.106.095.28.167.524.217l.56.111c.36.074.625.185.794.333.17.148.254.356.254.624a.916.916 0 01-.17.545c-.109.159-.266.282-.47.37a1.839 1.839 0 01-.73.132zm2.962 0c-.26 0-.46-.074-.597-.222-.138-.151-.207-.379-.207-.682v-1.465h-.518v-.333h.518v-.725l.429-.122v.847h.761v.333h-.761v1.417c0 .212.035.364.106.455.073.088.183.133.327.133a.97.97 0 00.18-.016c.053-.014.1-.03.143-.048v.36a.72.72 0 01-.18.047.98.98 0 01-.2.021zm1.972 0c-.254 0-.476-.054-.667-.164a1.128 1.128 0 01-.434-.476 1.65 1.65 0 01-.153-.735c0-.285.051-.53.153-.735.103-.204.247-.361.434-.471.19-.113.413-.169.667-.169.257 0 .48.056.666.169.19.11.337.267.44.471.105.205.158.45.158.735 0 .282-.053.527-.159.735a1.117 1.117 0 01-.439.476 1.29 1.29 0 01-.666.164zm0-.349c.254 0 .454-.086.603-.259.148-.176.222-.432.222-.767 0-.338-.076-.594-.228-.767a.741.741 0 00-.597-.264.74.74 0 00-.598.264c-.148.173-.222.429-.222.767 0 .335.074.591.222.767a.746.746 0 00.598.259zm1.932.302v-2.042c0-.099-.005-.199-.016-.301a8.542 8.542 0 00-.027-.312h.413l.053.581h-.064a.911.911 0 01.37-.465c.173-.109.373-.164.598-.164.314 0 .55.085.71.254.161.166.242.428.242.788v1.661h-.428v-1.635c0-.25-.051-.431-.153-.544-.1-.117-.254-.175-.466-.175-.247 0-.442.076-.587.228-.145.151-.217.354-.217.608v1.518h-.428zm4.278.047c-.416 0-.744-.119-.983-.359-.24-.244-.36-.58-.36-1.01 0-.279.053-.521.159-.725.105-.208.254-.369.444-.481.19-.117.409-.175.656-.175.243 0 .448.051.613.153a.995.995 0 01.381.439c.088.187.132.409.132.667v.159H81.33v-.27h1.777l-.09.069c0-.283-.063-.503-.19-.662-.127-.158-.316-.238-.566-.238-.265 0-.471.094-.62.281-.147.183-.221.432-.221.746v.047c0 .332.08.584.243.756.166.17.397.254.693.254.159 0 .307-.023.444-.068.141-.05.275-.129.402-.238l.148.301a1.207 1.207 0 01-.444.265 1.756 1.756 0 01-.56.089zm1.328-.047l1.486-1.989v.164l-1.418-1.904h.519l1.163 1.592h-.137l1.153-1.592h.524l-1.423 1.904v-.164l1.486 1.989h-.518l-1.243-1.687h.169l-1.243 1.687h-.518zm-82.63 7v-3.729h2.328v.36H1.483v1.306h1.772v.36H1.483v1.703h-.44zm2.923 0v-2.655h.429v2.655h-.429zm-.053-3.258v-.482h.53v.482h-.53zm1.314 3.258v-2.042c0-.099-.006-.199-.016-.301a8.477 8.477 0 00-.027-.312h.413l.053.581h-.064a.911.911 0 01.37-.465c.173-.109.372-.164.598-.164.314 0 .55.085.709.254.162.166.243.428.243.788v1.661h-.428v-1.635c0-.25-.051-.431-.154-.544-.098-.117-.254-.175-.465-.175-.247 0-.443.076-.587.228-.145.151-.217.354-.217.608v1.518h-.428zm4.109.047c-.236 0-.443-.054-.619-.164a1.128 1.128 0 01-.412-.476 1.727 1.727 0 01-.143-.735c0-.289.047-.536.143-.74.098-.205.236-.362.412-.471.176-.109.383-.164.619-.164.24 0 .446.062.619.185.176.12.292.284.349.492h-.064l.059-.629h.412l-.032.312c-.007.102-.01.202-.01.301v2.042h-.429v-.624h.059a.844.844 0 01-.35.492c-.176.12-.38.179-.613.179zm.085-.349c.253 0 .454-.086.603-.259.148-.176.222-.432.222-.767 0-.338-.074-.594-.223-.767a.747.747 0 00-.602-.264.756.756 0 00-.603.264c-.149.173-.223.429-.223.767 0 .335.074.591.223.767a.762.762 0 00.603.259zm2.076.302v-2.042c0-.099-.005-.199-.016-.301a8.542 8.542 0 00-.026-.312h.412l.053.581h-.063a.911.911 0 01.37-.465c.173-.109.372-.164.598-.164.314 0 .55.085.709.254.162.166.243.428.243.788v1.661h-.429v-1.635c0-.25-.05-.431-.153-.544-.099-.117-.254-.175-.466-.175-.246 0-.442.076-.587.228-.144.151-.216.354-.216.608v1.518h-.429zm4.215.047a1.33 1.33 0 01-.682-.169 1.152 1.152 0 01-.444-.481 1.664 1.664 0 01-.154-.741c0-.289.053-.534.159-.735.106-.204.254-.359.444-.465a1.39 1.39 0 01.677-.159c.17 0 .334.03.492.09.162.06.296.145.402.254l-.153.307a1.046 1.046 0 00-.714-.302c-.275 0-.489.087-.64.259-.152.173-.228.425-.228.757 0 .328.076.581.228.761.151.18.365.27.64.27a1.027 1.027 0 00.714-.296l.153.301c-.11.113-.245.2-.407.26a1.416 1.416 0 01-.487.089zm1.503-.047v-2.655h.428v2.655h-.428zm-.053-3.258v-.482h.53v.482h-.53zm2.324 3.305c-.237 0-.443-.054-.62-.164a1.129 1.129 0 01-.412-.476 1.727 1.727 0 01-.143-.735c0-.289.048-.536.143-.74.099-.205.236-.362.413-.471.176-.109.382-.164.619-.164.24 0 .446.062.619.185.176.12.292.284.349.492h-.064l.058-.629h.413l-.032.312c-.007.102-.01.202-.01.301v2.042h-.429v-.624h.058a.844.844 0 01-.349.492c-.176.12-.38.179-.613.179zm.084-.349c.254 0 .455-.086.603-.259.148-.176.222-.432.222-.767 0-.338-.074-.594-.222-.767a.747.747 0 00-.603-.264.756.756 0 00-.603.264c-.148.173-.222.429-.222.767 0 .335.074.591.222.767a.762.762 0 00.603.259zm2.077.302v-3.893h.428v3.893h-.428zm2.687 0v-3.729h.439v3.729h-.44zm1.321 0v-2.042c0-.099-.005-.199-.016-.301a8.544 8.544 0 00-.026-.312h.412l.053.581h-.063a.911.911 0 01.37-.465c.173-.109.372-.164.598-.164.314 0 .55.085.708.254.163.166.244.428.244.788v1.661h-.429v-1.635c0-.25-.05-.431-.153-.544-.099-.117-.254-.175-.466-.175-.246 0-.442.076-.587.228-.144.151-.216.354-.216.608v1.518h-.429zm4.215.047c-.26 0-.488-.056-.682-.169a1.152 1.152 0 01-.444-.481 1.664 1.664 0 01-.154-.741c0-.289.053-.534.159-.735.106-.204.254-.359.444-.465a1.39 1.39 0 01.677-.159c.17 0 .333.03.492.09.162.06.296.145.402.254l-.153.307a1.046 1.046 0 00-.714-.302c-.275 0-.489.087-.64.259-.152.173-.228.425-.228.757 0 .328.076.581.228.761.151.18.365.27.64.27a1.028 1.028 0 00.714-.296l.153.301c-.11.113-.245.2-.407.26a1.416 1.416 0 01-.487.089zm1.47-.047v-.54h.54v.54h-.54zm2.25-1.312v-.28h2.67v.28h-2.67zm4.514 1.312v-3.729h2.328v.36h-1.889v1.306h1.772v.36h-1.772v1.703h-.439zm4.506.047c-.373 0-.69-.077-.952-.232a1.547 1.547 0 01-.603-.661c-.137-.286-.206-.626-.206-1.021 0-.395.069-.734.206-1.016.141-.285.342-.506.603-.661.261-.155.579-.233.952-.233.265 0 .501.041.71.122.207.081.389.199.544.354l-.164.349a1.798 1.798 0 00-.503-.322 1.469 1.469 0 00-.581-.106c-.427 0-.751.132-.974.397-.222.264-.333.636-.333 1.116 0 .479.111.853.334 1.121.222.265.546.397.973.397.222 0 .416-.034.581-.101.166-.07.334-.181.503-.333l.164.354c-.155.152-.337.27-.545.355a1.942 1.942 0 01-.709.121zm1.998-.047v-3.729h.38l1.497 3.38h-.153l1.497-3.38h.38v3.729h-.402v-3.163h.16l-1.413 3.163h-.29l-1.418-3.163h.158v3.163h-.396zm5.914 0v-3.729h1.237c.413 0 .762.072 1.048.217.285.141.502.351.65.629.148.275.222.614.222 1.016 0 .398-.074.737-.222 1.015-.148.279-.365.49-.65.635-.286.145-.635.217-1.048.217h-1.237zm.439-.376h.767c.507 0 .885-.123 1.131-.37.247-.25.37-.624.37-1.121 0-.501-.123-.875-.37-1.122-.246-.246-.624-.37-1.131-.37h-.767v2.983zm3.465.376v-2.655h.428v2.655h-.428zm-.053-3.258v-.482h.529v.482h-.53zm2.096 3.258l-1.138-2.655h.466l.952 2.338h-.143l.963-2.338h.444l-1.137 2.655h-.407zm2.027 0v-2.655h.428v2.655h-.428zm-.053-3.258v-.482h.529v.482h-.53zm2.196 3.305c-.211 0-.409-.028-.592-.084a1.276 1.276 0 01-.455-.249l.148-.301c.13.102.272.178.423.227.155.05.316.074.482.074.211 0 .37-.037.476-.111a.368.368 0 00.164-.317.301.301 0 00-.106-.243c-.067-.064-.178-.113-.333-.149l-.492-.1c-.226-.049-.395-.132-.508-.249a.637.637 0 01-.17-.455c0-.155.041-.29.122-.407.081-.12.2-.213.355-.28.155-.071.336-.106.544-.106.194 0 .372.03.535.09.165.056.303.139.412.249l-.153.296a1.024 1.024 0 00-.365-.228 1.126 1.126 0 00-.418-.079c-.208 0-.365.042-.47.127a.392.392 0 00-.154.323c0 .102.032.186.095.253.067.064.17.112.307.143l.492.101c.24.053.418.136.534.248.12.11.18.258.18.445a.688.688 0 01-.132.418.842.842 0 01-.37.269 1.438 1.438 0 01-.55.095zm1.74-.047v-2.655h.43v2.655h-.43zm-.052-3.258v-.482h.529v.482h-.529zm2.403 3.305c-.254 0-.476-.054-.667-.164a1.127 1.127 0 01-.433-.476 1.648 1.648 0 01-.154-.735c0-.285.051-.53.154-.735.102-.204.246-.361.433-.471a1.28 1.28 0 01.667-.169c.257 0 .48.056.666.169.19.11.337.267.44.471.105.205.158.45.158.735 0 .282-.053.527-.159.735a1.117 1.117 0 01-.439.476 1.29 1.29 0 01-.666.164zm0-.349c.254 0 .455-.086.603-.259.148-.176.222-.432.222-.767 0-.338-.076-.594-.228-.767a.74.74 0 00-.597-.264c-.25 0-.45.088-.598.264-.148.173-.222.429-.222.767 0 .335.074.591.222.767a.746.746 0 00.598.259zm1.932.302v-2.042c0-.099-.005-.199-.016-.301a8.327 8.327 0 00-.026-.312h.412l.053.581h-.063a.912.912 0 01.37-.465c.173-.109.372-.164.598-.164.313 0 .55.085.708.254.163.166.244.428.244.788v1.661h-.429v-1.635c0-.25-.051-.431-.153-.544-.099-.117-.254-.175-.466-.175-.247 0-.442.076-.587.228-.144.151-.217.354-.217.608v1.518h-.428z" fill="#000"/></svg>