<svg width="354" height="33" viewBox="0 0 354 33" fill="none" xmlns="http://www.w3.org/2000/svg"><path d="M.9 5.09h9.72V32h5.175V5.09h9.72V.5H.9v4.59zm37.398 3.87c-3.78 0-5.625 1.53-6.795 3.465l-.54-3.465h-4.32V32h4.86V20.435c0-3.555 1.395-6.93 5.715-6.93h2.16V8.96h-1.08zm24.434 18.81c-.99 0-1.485-.315-1.485-1.485V17.06c0-5.445-3.51-8.37-9.63-8.37-5.805 0-9.675 2.79-10.17 7.29h4.77c.36-2.025 2.295-3.375 5.175-3.375 3.195 0 5.04 1.575 5.04 4.14v1.395h-5.805c-6.435 0-9.855 2.655-9.855 7.38 0 4.275 3.51 6.75 8.55 6.75 3.735 0 6.075-1.62 7.605-3.96 0 2.295 1.08 3.69 4.23 3.69h2.565v-4.23h-.99zm-6.3-5.22c-.045 3.555-2.385 5.94-6.435 5.94-2.655 0-4.275-1.35-4.275-3.285 0-2.34 1.665-3.465 4.68-3.465h6.03v.81zM83.7 12.155c-1.485-2.025-3.96-3.465-7.47-3.465-6.255 0-10.89 4.68-10.89 11.79 0 7.38 4.635 11.79 10.89 11.79 3.645 0 6.03-1.71 7.515-3.735L84.329 32h4.23V.5h-4.86v11.655zm-6.66 16.02c-4.05 0-6.705-3.15-6.705-7.695 0-4.5 2.655-7.65 6.705-7.65 4.05 0 6.705 3.15 6.705 7.74 0 4.455-2.655 7.605-6.705 7.605zm27.204 4.095c5.715 0 9.585-3.465 10.395-8.01h-4.86c-.675 2.565-2.835 4.05-5.805 4.05-3.825 0-6.3-2.565-6.435-6.48v-.315h17.37c.09-.63.135-1.26.135-1.845-.135-6.75-4.59-10.98-11.25-10.98-6.795 0-11.34 4.725-11.34 11.835 0 7.065 4.545 11.745 11.79 11.745zm-6.525-14.31c.36-3.285 3.015-5.355 6.12-5.355 3.375 0 5.76 1.935 6.165 5.355H97.718zM129 5.09h9.72V32h5.175V5.09h9.72V.5h-24.615v4.59zm34.788 27.18c5.715 0 9.585-3.465 10.395-8.01h-4.86c-.675 2.565-2.835 4.05-5.805 4.05-3.825 0-6.3-2.565-6.435-6.48v-.315h17.37c.09-.63.135-1.26.135-1.845-.135-6.75-4.59-10.98-11.25-10.98-6.795 0-11.34 4.725-11.34 11.835 0 7.065 4.545 11.745 11.79 11.745zm-6.525-14.31c.36-3.285 3.015-5.355 6.12-5.355 3.375 0 5.76 1.935 6.165 5.355h-12.285zm20.132 6.435c.135 4.995 4.365 7.875 10.53 7.875 5.58 0 9.765-2.79 9.765-7.2 0-5.13-4.275-6.21-9.54-6.84-3.33-.36-5.535-.63-5.535-2.79 0-1.845 1.89-3.015 4.77-3.015s4.86 1.485 5.13 3.6h4.77c-.315-4.725-4.32-7.335-9.99-7.335-5.535-.045-9.45 2.79-9.45 7.155 0 4.77 4.14 5.895 9.405 6.525 3.555.45 5.67.63 5.67 3.105 0 1.845-1.98 3.015-4.995 3.015-3.51 0-5.58-1.71-5.76-4.095h-4.77zM201.457 32h4.86V.5h-4.86V32zm30.684-4.23c-.99 0-1.485-.315-1.485-1.485V17.06c0-5.445-3.51-8.37-9.63-8.37-5.805 0-9.675 2.79-10.17 7.29h4.77c.36-2.025 2.295-3.375 5.175-3.375 3.195 0 5.04 1.575 5.04 4.14v1.395h-5.805c-6.435 0-9.855 2.655-9.855 7.38 0 4.275 3.51 6.75 8.55 6.75 3.735 0 6.075-1.62 7.605-3.96 0 2.295 1.08 3.69 4.23 3.69h2.565v-4.23h-.99zm-6.3-5.22c-.045 3.555-2.385 5.94-6.435 5.94-2.655 0-4.275-1.35-4.275-3.285 0-2.34 1.665-3.465 4.68-3.465h6.03v.81zm35.626 9.72c7.335 0 12.69-4.32 13.68-10.98h-5.355c-.99 4.005-4.005 6.435-8.37 6.435-5.94 0-9.54-4.77-9.54-11.475 0-6.75 3.69-11.475 9.675-11.475 4.275 0 7.245 2.475 8.28 6.435h5.355c-1.035-6.66-6.21-10.98-13.41-10.98-9.315 0-15.21 6.435-15.21 16.02 0 9.675 5.715 16.02 14.895 16.02zm17.961-.27h5.175V18.68h12.33v-4.455h-12.33V5.09h14.94V.5h-20.115V32zm34.792 0c9.855 0 16.065-6.435 16.065-15.795S324.075.5 314.22.5h-10.71V32h10.71zm-5.535-27h5.535c6.93 0 10.755 4.455 10.755 11.205S321.15 27.5 314.22 27.5h-5.535V5zm24.673 19.395c.135 4.995 4.365 7.875 10.53 7.875 5.58 0 9.765-2.79 9.765-7.2 0-5.13-4.275-6.21-9.54-6.84-3.33-.36-5.535-.63-5.535-2.79 0-1.845 1.89-3.015 4.77-3.015s4.86 1.485 5.13 3.6h4.77c-.315-4.725-4.32-7.335-9.99-7.335-5.535-.045-9.45 2.79-9.45 7.155 0 4.77 4.14 5.895 9.405 6.525 3.555.45 5.67.63 5.67 3.105 0 1.845-1.98 3.015-4.995 3.015-3.51 0-5.58-1.71-5.76-4.095h-4.77z" fill="#000"/></svg>