<svg width="117" height="25" viewBox="0 0 117 25" fill="none" xmlns="http://www.w3.org/2000/svg"><path d="M.864 8.5H3.78c1.956 0 2.964-.888 2.964-2.34 0-1.2-.78-1.836-1.896-2.004.936-.24 1.512-.876 1.512-1.896C6.36.928 5.424.1 3.732.1H.864v8.4zM3.756.688c1.26 0 1.956.612 1.956 1.608 0 1.008-.708 1.62-1.956 1.62H1.512V.688h2.244zm.024 3.816c1.452 0 2.292.588 2.292 1.692 0 1.056-.78 1.716-2.292 1.716H1.512V4.504H3.78zm6.905 4.068c1.332 0 2.352-.864 2.616-2.088h-.624c-.24.948-1.044 1.536-2.04 1.536-1.356 0-2.208-1.032-2.232-2.448v-.108h4.968c0-.084.012-.18.012-.252-.06-1.812-1.176-2.868-2.808-2.868-1.668 0-2.808 1.272-2.808 3.072 0 1.908 1.188 3.156 2.916 3.156zM8.453 4.948c.096-1.236 1.02-2.064 2.136-2.064 1.188 0 2.04.732 2.136 2.064H8.453zm9.832 2.136c0 .972.396 1.416 1.428 1.416h.888v-.564h-.84c-.636 0-.864-.24-.864-.864V2.98h1.644v-.564h-1.644V.712h-.612v1.704h-1.152v.564h1.152v4.104zm6.055-4.74c-1.14 0-1.848.636-2.195 1.512V.1h-.613v8.4h.613v-3c0-1.584.803-2.592 2.1-2.592 1.163 0 1.883.768 1.883 2.208V8.5h.613V5.092c0-1.92-1.02-2.748-2.4-2.748zm6.361 6.228c1.332 0 2.352-.864 2.616-2.088h-.624c-.24.948-1.044 1.536-2.04 1.536-1.356 0-2.208-1.032-2.232-2.448v-.108h4.968c0-.084.012-.18.012-.252-.06-1.812-1.176-2.868-2.808-2.868-1.668 0-2.808 1.272-2.808 3.072 0 1.908 1.188 3.156 2.916 3.156zm-2.232-3.624c.096-1.236 1.02-2.064 2.136-2.064 1.188 0 2.04.732 2.136 2.064h-4.272zm16.36-2.664c-1.008 0-1.704.444-2.1 1.116-.372-.792-1.092-1.116-1.896-1.116-.924.012-1.452.42-1.8.876l-.144-.804h-1.128V8.5h1.296V5.212c0-1.092.552-1.812 1.44-1.812.852 0 1.296.564 1.296 1.644V8.5h1.308V5.176c0-1.104.564-1.776 1.452-1.776.84 0 1.284.564 1.284 1.644V8.5h1.296V4.96c0-1.944-1.032-2.676-2.304-2.676zm9.095 5.088c-.264 0-.396-.084-.396-.396v-2.46c0-1.452-.936-2.232-2.568-2.232-1.548 0-2.58.744-2.712 1.944h1.272c.096-.54.612-.9 1.38-.9.852 0 1.344.42 1.344 1.104v.372h-1.548c-1.716 0-2.628.708-2.628 1.968 0 1.14.936 1.8 2.28 1.8.996 0 1.62-.432 2.028-1.056 0 .612.288.984 1.128.984h.684V7.372h-.264zm-1.68-1.392c-.012.948-.636 1.584-1.716 1.584-.708 0-1.14-.36-1.14-.876 0-.624.444-.924 1.248-.924h1.608v.216zm2.386.492c.036 1.332 1.164 2.1 2.808 2.1 1.488 0 2.604-.744 2.604-1.92 0-1.368-1.14-1.656-2.544-1.824-.888-.096-1.476-.168-1.476-.744 0-.492.504-.804 1.272-.804s1.296.396 1.368.96h1.272c-.084-1.26-1.152-1.956-2.664-1.956-1.476-.012-2.52.744-2.52 1.908 0 1.272 1.104 1.572 2.508 1.74.948.12 1.512.168 1.512.828 0 .492-.528.804-1.332.804-.936 0-1.488-.456-1.536-1.092H54.63zm6.86.36c0 1.116.504 1.668 1.68 1.668h1.2V7.36h-.912c-.492 0-.66-.18-.66-.66V3.496h1.5v-1.14h-1.5V.64H61.49v1.716h-1.068v1.14h1.068v3.336zm6.492 1.74c1.524 0 2.556-.924 2.772-2.136h-1.296c-.18.684-.756 1.08-1.548 1.08-1.02 0-1.68-.684-1.716-1.728v-.084h4.632a3.52 3.52 0 00.036-.492c-.036-1.8-1.224-2.928-3-2.928-1.812 0-3.024 1.26-3.024 3.156 0 1.884 1.212 3.132 3.144 3.132zm-1.74-3.816c.096-.876.804-1.428 1.632-1.428.9 0 1.536.516 1.644 1.428h-3.276zm8.775-2.4c-1.008 0-1.5.408-1.812.924l-.144-.924H71.91V8.5h1.296V5.416c0-.948.372-1.848 1.524-1.848h.576V2.356h-.288zm7.062 6.216c1.872 0 3.132-1.26 3.132-3.144 0-1.872-1.26-3.144-3.132-3.144s-3.132 1.272-3.132 3.144c0 1.884 1.26 3.144 3.132 3.144zm0-1.104c-1.092 0-1.8-.852-1.8-2.04 0-1.188.708-2.04 1.8-2.04s1.812.852 1.812 2.04c0 1.188-.72 2.04-1.812 2.04zm3.503-3.972h1.068V8.5h1.308V3.496h1.644v-1.14h-1.668V1.84c0-.42.18-.6.6-.6h1.068V.1h-1.236c-1.188 0-1.716.576-1.716 1.68v.576h-1.068v1.14zm9.537 5.04l-.24.6c-.192.504-.312.624-.816.624h-.912v1.14h1.392c.9 0 1.164-.444 1.548-1.44l2.784-7.104h-1.38l-1.668 4.668-1.716-4.668h-1.38l2.388 6.18zm7.034.036c1.872 0 3.132-1.26 3.132-3.144 0-1.872-1.26-3.144-3.132-3.144s-3.132 1.272-3.132 3.144c0 1.884 1.26 3.144 3.132 3.144zm0-1.104c-1.092 0-1.8-.852-1.8-2.04 0-1.188.708-2.04 1.8-2.04s1.812.852 1.812 2.04c0 1.188-.72 2.04-1.812 2.04zm8.386-2.04c0 1.272-.6 2.016-1.584 2.016-.948 0-1.428-.612-1.428-1.812V2.356h-1.296v3.42c0 2.1 1.116 2.796 2.424 2.796.948 0 1.512-.384 1.896-.852l.144.78h1.14V2.356h-1.296v3.072zm5.682-3.072c-1.008 0-1.5.408-1.812.924l-.144-.924h-1.152V8.5h1.296V5.416c0-.948.372-1.848 1.524-1.848h.576V2.356h-.288zM1.296 15.492c.444 0 .792-.324.792-.78s-.348-.78-.792-.78c-.444 0-.792.324-.792.78s.348.78.792.78zM.636 22.5h1.296v-6.144H.636V22.5zm5.806-6.216c-.996 0-1.584.396-1.968.876l-.144-.804H3.202V22.5h1.296v-3.096c0-1.248.612-2.004 1.644-2.004.972 0 1.464.624 1.464 1.788V22.5h1.308v-3.42c0-2.052-1.116-2.796-2.472-2.796zm5.05 6.216h1.583l2.268-6.144h-1.368l-1.668 4.752-1.692-4.752H9.223l2.268 6.144zm7.142.072c1.524 0 2.556-.924 2.772-2.136H20.11c-.18.684-.756 1.08-1.548 1.08-1.02 0-1.68-.684-1.716-1.728v-.084h4.632a3.52 3.52 0 00.036-.492c-.036-1.8-1.224-2.928-3-2.928-1.812 0-3.024 1.26-3.024 3.156 0 1.884 1.212 3.132 3.144 3.132zm-1.74-3.816c.096-.876.804-1.428 1.632-1.428.9 0 1.536.516 1.644 1.428h-3.276zm5.369 1.716c.036 1.332 1.164 2.1 2.808 2.1 1.488 0 2.604-.744 2.604-1.92 0-1.368-1.14-1.656-2.544-1.824-.888-.096-1.476-.168-1.476-.744 0-.492.504-.804 1.272-.804s1.296.396 1.368.96h1.272c-.084-1.26-1.152-1.956-2.664-1.956-1.476-.012-2.52.744-2.52 1.908 0 1.272 1.104 1.572 2.508 1.74.948.12 1.512.168 1.512.828 0 .492-.528.804-1.332.804-.936 0-1.488-.456-1.536-1.092h-1.272zm6.86.36c0 1.116.504 1.668 1.68 1.668h1.2v-1.14h-.912c-.492 0-.66-.18-.66-.66v-3.204h1.5v-1.14h-1.5V14.64h-1.308v1.716h-1.068v1.14h1.068v3.336zm10.772-4.548c-1.008 0-1.704.444-2.1 1.116-.372-.792-1.092-1.116-1.896-1.116-.924.012-1.452.42-1.8.876l-.144-.804h-1.128V22.5h1.296v-3.288c0-1.092.552-1.812 1.44-1.812.852 0 1.296.564 1.296 1.644V22.5h1.308v-3.324c0-1.104.564-1.776 1.452-1.776.84 0 1.284.564 1.284 1.644V22.5H42.2v-3.54c0-1.944-1.032-2.676-2.304-2.676zm6.348 6.288c1.524 0 2.556-.924 2.772-2.136H47.72c-.18.684-.756 1.08-1.548 1.08-1.02 0-1.68-.684-1.716-1.728v-.084h4.632a3.52 3.52 0 00.036-.492c-.036-1.8-1.224-2.928-3-2.928-1.812 0-3.024 1.26-3.024 3.156 0 1.884 1.212 3.132 3.144 3.132zm-1.74-3.816c.096-.876.804-1.428 1.632-1.428.9 0 1.536.516 1.644 1.428h-3.276zm8.908-2.472c-.996 0-1.584.396-1.968.876l-.144-.804h-1.128V22.5h1.296v-3.096c0-1.248.612-2.004 1.644-2.004.972 0 1.464.624 1.464 1.788V22.5h1.308v-3.42c0-2.052-1.116-2.796-2.472-2.796zm4.095 4.548c0 1.116.504 1.668 1.68 1.668h1.2v-1.14h-.912c-.492 0-.66-.18-.66-.66v-3.204h1.5v-1.14h-1.5V14.64h-1.308v1.716h-1.068v1.14h1.068v3.336zm7.395-5.7c.24 0 .432-.18.432-.432a.423.423 0 00-.432-.432c-.24 0-.432.18-.432.432s.192.432.432.432zM63.04 24.9h.744c1.02 0 1.428-.444 1.428-1.416v-7.068H64.6v7.08c0 .6-.228.84-.84.84h-.72v.564zm6.297-2.328c1.716 0 2.928-1.272 2.928-3.12 0-1.836-1.212-3.108-2.928-3.108s-2.916 1.272-2.916 3.108c0 1.848 1.2 3.12 2.916 3.12zm0-.552c-1.356 0-2.292-1.056-2.292-2.568 0-1.5.936-2.568 2.292-2.568 1.356 0 2.292 1.068 2.292 2.568 0 1.512-.936 2.568-2.292 2.568zm8.56-2.616c0 1.596-.792 2.604-2.052 2.604-1.128 0-1.824-.768-1.824-2.22v-3.372h-.612v3.408c0 1.908.996 2.748 2.34 2.748 1.08 0 1.788-.576 2.136-1.356l.084 1.284h.54v-6.084h-.612v2.988zm4.537-2.988c-1.129 0-1.609.54-1.86 1.212l-.097-1.212h-.527V22.5h.612v-3.084c0-1.236.323-2.412 1.751-2.412h.445v-.588h-.325zm4.038-.072c-1.116 0-1.836.576-2.184 1.368l-.096-1.296h-.528V22.5h.612v-3c0-1.584.804-2.592 2.1-2.592 1.176 0 1.884.768 1.884 2.208V22.5h.612v-3.408c0-1.92-1.02-2.748-2.4-2.748zm6.35 6.228c1.331 0 2.351-.864 2.615-2.088h-.624c-.24.948-1.044 1.536-2.04 1.536-1.356 0-2.208-1.032-2.232-2.448v-.108h4.968c0-.084.012-.18.012-.252-.06-1.812-1.176-2.868-2.808-2.868-1.668 0-2.808 1.272-2.808 3.072 0 1.908 1.188 3.156 2.916 3.156zm-2.233-3.624c.096-1.236 1.02-2.064 2.136-2.064 1.188 0 2.04.732 2.136 2.064H90.59zm7.708 3.552l-.396.984c-.276.672-.384.852-1.008.852h-.768v.564h.936c.816 0 1.008-.312 1.392-1.272l2.916-7.212h-.66l-2.076 5.292-2.112-5.292h-.66l2.436 6.084z" fill="#000"/></svg>