<svg width="65" height="17" viewBox="0 0 65 17" fill="none" xmlns="http://www.w3.org/2000/svg"><rect y=".5" width="65" height="16" rx="8" fill="#000"/><path d="M10.32 9.668c.04 1.104.84 1.88 2.208 1.88 1.176 0 1.992-.68 1.992-1.648 0-1.088-.936-1.392-1.848-1.544-.84-.144-1.52-.28-1.52-.952 0-.6.488-.92 1.216-.92.76 0 1.28.424 1.36 1.072h.72c-.064-1.008-.832-1.704-2.08-1.704-1.136 0-1.912.64-1.912 1.592 0 1.088.928 1.384 1.832 1.536.848.144 1.536.288 1.536.984 0 .608-.536.952-1.288.952-.856 0-1.44-.496-1.496-1.248h-.72zm5.291.768c0 .72.28 1.064 1.064 1.064h.712v-.6h-.648c-.352 0-.472-.128-.472-.472V8.02h1.056v-.6h-1.056V6.276h-.656V7.42h-.736v.6h.736v2.416zm5.89.464c-.184 0-.264-.056-.264-.272V8.844c0-.952-.6-1.472-1.64-1.472-.984 0-1.632.472-1.728 1.272h.656c.08-.416.464-.688 1.04-.688.64 0 1.016.32 1.016.848v.28h-1.2c-1.072 0-1.64.456-1.64 1.272 0 .744.608 1.192 1.504 1.192.704 0 1.112-.312 1.368-.68.008.4.192.632.736.632h.36v-.6h-.208zm-.92-1.064c0 .68-.472 1.152-1.288 1.152-.544 0-.888-.272-.888-.672 0-.464.328-.68.912-.68h1.264v.2zm3.52-2.416c-.727 0-1.04.304-1.231.616l-.088-.616h-.568v4.08h.656V9.42c0-.648.232-1.36 1.088-1.36h.328v-.64h-.184zm1.19 3.016c0 .72.28 1.064 1.064 1.064h.712v-.6h-.648c-.352 0-.472-.128-.472-.472V8.02h1.056v-.6h-1.056V6.276h-.656V7.42h-.736v.6h.736v2.416zm4.742 0c0 .72.28 1.064 1.064 1.064h.712v-.6h-.648c-.352 0-.472-.128-.472-.472V8.02h1.056v-.6H30.69V6.276h-.656V7.42h-.736v.6h.736v2.416zm4.233-3.016c-.728 0-1.04.304-1.232.616l-.088-.616h-.568v4.08h.656V9.42c0-.648.232-1.36 1.088-1.36h.328v-.64h-.184zm4.22 3.48c-.184 0-.264-.056-.264-.272V8.844c0-.952-.6-1.472-1.64-1.472-.984 0-1.632.472-1.728 1.272h.656c.08-.416.464-.688 1.04-.688.64 0 1.016.32 1.016.848v.28h-1.2c-1.072 0-1.64.456-1.64 1.272 0 .744.608 1.192 1.504 1.192.704 0 1.112-.312 1.368-.68.008.4.192.632.736.632h.36v-.6h-.208zm-.92-1.064c0 .68-.472 1.152-1.288 1.152-.544 0-.888-.272-.888-.672 0-.464.328-.68.912-.68h1.264v.2zm4.801-1.792c-.248-.392-.712-.672-1.4-.672-1.128 0-1.96.84-1.96 2.088 0 1.328.832 2.088 1.96 2.088a1.65 1.65 0 001.4-.704l.088.656h.568V5.9h-.656v2.144zm-1.336 2.92c-.808 0-1.352-.616-1.352-1.504s.544-1.504 1.352-1.504c.8 0 1.344.624 1.344 1.52 0 .872-.544 1.488-1.344 1.488zm3.222-4.232c.24 0 .424-.176.424-.424a.412.412 0 00-.424-.424.412.412 0 00-.424.424c0 .248.184.424.424.424zm-.336 4.768h.656V7.42h-.656v4.08zm3.554-4.128c-.688 0-1.104.288-1.344.6l-.088-.552h-.568v4.08h.656V9.46c0-.92.464-1.488 1.232-1.488.712 0 1.104.448 1.104 1.296V11.5h.656V9.228c0-1.352-.728-1.856-1.648-1.856zm5.7.752c-.255-.456-.711-.752-1.4-.752-1.127 0-1.96.84-1.96 2.088 0 1.328.833 2.088 1.96 2.088.689 0 1.129-.288 1.4-.752v.48c0 .888-.463 1.288-1.32 1.288-.68 0-1.135-.288-1.247-.8h-.672c.104.896.832 1.384 1.872 1.384 1.4 0 2.024-.672 2.024-1.848V7.42h-.568l-.088.704zm-1.335 2.84c-.808 0-1.352-.616-1.352-1.504s.544-1.504 1.352-1.504c.8 0 1.344.624 1.344 1.52 0 .872-.544 1.488-1.344 1.488z" fill="#fff"/></svg>