<svg width="46" height="9" viewBox="0 0 46 9" fill="none" xmlns="http://www.w3.org/2000/svg"><path d="M4.185 2.173c-.939 0-1.569.428-1.973.975V.01H.928v8.32h1.118l.154-.88c.38.548 1.034.952 1.985.952 1.664 0 2.877-1.248 2.877-3.115 0-1.96-1.213-3.114-2.877-3.114zM3.971 7.32c-1.07 0-1.77-.844-1.77-2.044 0-1.177.7-2.01 1.77-2.01s1.783.833 1.783 2.021c0 1.201-.713 2.033-1.783 2.033zm9.682-.107c-.261 0-.392-.083-.392-.392V4.384c0-1.438-.927-2.21-2.544-2.21-1.533 0-2.555.736-2.686 1.925h1.26c.095-.535.606-.892 1.367-.892.844 0 1.331.416 1.331 1.094v.368h-1.533c-1.7 0-2.603.702-2.603 1.95 0 1.129.927 1.783 2.258 1.783.987 0 1.605-.428 2.009-1.046 0 .606.285.974 1.117.974h.678V7.213h-.262zM11.99 5.834c-.012.94-.63 1.57-1.7 1.57-.7 0-1.129-.357-1.129-.868 0-.619.44-.916 1.236-.916h1.593v.214zm2.625 2.496h1.284V.01h-1.284v8.32zm8.105-1.117c-.261 0-.392-.083-.392-.392V4.384c0-1.438-.927-2.21-2.544-2.21-1.533 0-2.555.736-2.686 1.925h1.26c.095-.535.606-.892 1.367-.892.844 0 1.331.416 1.331 1.094v.368h-1.533c-1.7 0-2.603.702-2.603 1.95 0 1.129.927 1.783 2.258 1.783.987 0 1.605-.428 2.009-1.046 0 .606.285.974 1.117.974h.678V7.213h-.262zm-1.664-1.379c-.012.94-.63 1.57-1.7 1.57-.7 0-1.129-.357-1.129-.868 0-.619.44-.916 1.236-.916h1.593v.214zm5.835-3.66c-.987 0-1.57.391-1.95.867l-.143-.797H23.68V8.33h1.284V5.264c0-1.237.606-1.985 1.628-1.985.963 0 1.45.618 1.45 1.77V8.33h1.296V4.943c0-2.033-1.105-2.77-2.448-2.77zm6.363 6.228c1.557 0 2.59-.868 2.829-2.247h-1.355c-.155.701-.678 1.153-1.462 1.153-1.035 0-1.712-.82-1.712-2.009 0-1.2.677-2.032 1.711-2.032.797 0 1.308.44 1.474 1.153h1.344c-.25-1.38-1.225-2.247-2.794-2.247-1.842 0-3.055 1.248-3.055 3.126 0 1.902 1.177 3.103 3.02 3.103zm6.7 0c1.51 0 2.532-.916 2.745-2.116h-1.283c-.178.677-.75 1.07-1.534 1.07-1.01 0-1.664-.678-1.7-1.712v-.083h4.589c.024-.167.035-.333.035-.488-.035-1.783-1.212-2.9-2.971-2.9-1.795 0-2.996 1.248-2.996 3.126 0 1.867 1.2 3.103 3.115 3.103zm-1.724-3.78c.095-.868.797-1.415 1.617-1.415.891 0 1.521.511 1.628 1.415H38.23zm5.124 2.971c0 .476.345.809.82.809.476 0 .832-.333.832-.809 0-.475-.356-.808-.832-.808-.475 0-.82.333-.82.808z" fill="url(#paint0_linear_1013_218)"/><defs><linearGradient id="paint0_linear_1013_218" x1=".298" y1="2.83" x2="56.298" y2="2.83" gradientUnits="userSpaceOnUse"><stop stop-color="#FBBA00"/><stop offset="1" stop-color="#C39"/></linearGradient></defs></svg>