<svg width="559" height="298" viewBox="0 0 559 298" fill="none" xmlns="http://www.w3.org/2000/svg"><path d="M3.36 213h4.092v-18.988L15.195 213h3.576l7.743-18.988V213h4.092v-25.809h-5.383l-8.11 20.315-8.26-20.315H3.36V213zm48.822-3.466c-.811 0-1.217-.258-1.217-1.216v-7.559c0-4.461-2.876-6.857-7.89-6.857-4.756 0-7.927 2.285-8.332 5.972h3.908c.295-1.659 1.88-2.765 4.24-2.765 2.618 0 4.13 1.291 4.13 3.392v1.143h-4.757c-5.272 0-8.074 2.176-8.074 6.047 0 3.502 2.876 5.53 7.005 5.53 3.06 0 4.977-1.327 6.23-3.244 0 1.88.886 3.023 3.467 3.023h2.101v-3.466h-.81zm-5.162-4.277c-.037 2.913-1.954 4.867-5.272 4.867-2.175 0-3.503-1.106-3.503-2.691 0-1.917 1.364-2.839 3.835-2.839h4.94v.663zm7.331 1.512c.11 4.093 3.576 6.452 8.627 6.452 4.572 0 8.001-2.286 8.001-5.899 0-4.203-3.502-5.088-7.816-5.604-2.728-.295-4.535-.516-4.535-2.286 0-1.512 1.548-2.47 3.908-2.47s3.982 1.216 4.203 2.949h3.908c-.258-3.871-3.539-6.009-8.185-6.009-4.535-.037-7.742 2.285-7.742 5.862 0 3.908 3.392 4.83 7.706 5.346 2.912.369 4.645.516 4.645 2.544 0 1.512-1.622 2.47-4.093 2.47-2.875 0-4.571-1.401-4.719-3.355h-3.908zm21.078 1.106c0 3.429 1.549 5.125 5.162 5.125h3.687v-3.503h-2.802c-1.512 0-2.028-.553-2.028-2.027v-9.845h4.609v-3.502h-4.609v-5.273H75.43v5.273h-3.281v3.502h3.281v10.25zm19.945 5.346c4.683 0 7.854-2.839 8.517-6.563h-3.982c-.553 2.102-2.323 3.319-4.756 3.319-3.134 0-5.162-2.102-5.272-5.309v-.259h14.231c.074-.516.111-1.032.111-1.511-.111-5.531-3.761-8.996-9.217-8.996-5.568 0-9.291 3.871-9.291 9.696 0 5.789 3.723 9.623 9.66 9.623zm-5.346-11.724c.295-2.692 2.47-4.388 5.014-4.388 2.766 0 4.72 1.586 5.052 4.388H90.028zm26.964-7.374c-3.098 0-4.609 1.253-5.568 2.839l-.442-2.839h-3.54V213h3.982v-9.475c0-2.913 1.143-5.678 4.683-5.678h1.769v-3.724h-.884zm14.138 13.752c0 3.429 1.548 5.125 5.162 5.125h3.687v-3.503h-2.802c-1.512 0-2.028-.553-2.028-2.027v-9.845h4.608v-3.502h-4.608v-5.273h-4.019v5.273h-3.282v3.502h3.282v10.25zm21.3-13.973c-2.95 0-4.757 1.327-5.936 2.949v-9.66h-3.982V213h3.982v-9.549c0-3.798 1.917-6.121 5.051-6.121 2.949 0 4.535 1.918 4.535 5.494V213h3.982v-10.508c0-6.305-3.429-8.59-7.632-8.59zm20.068 19.319c4.683 0 7.854-2.839 8.517-6.563h-3.982c-.553 2.102-2.323 3.319-4.756 3.319-3.134 0-5.162-2.102-5.272-5.309v-.259h14.231c.074-.516.111-1.032.111-1.511-.111-5.531-3.761-8.996-9.217-8.996-5.568 0-9.292 3.871-9.292 9.696 0 5.789 3.724 9.623 9.66 9.623zm-5.346-11.724c.295-2.692 2.47-4.388 5.014-4.388 2.766 0 4.72 1.586 5.052 4.388h-10.066zM194.405 213h4.093v-18.988L206.24 213h3.577l7.742-18.988V213h4.093v-25.809h-5.383l-8.111 20.315-8.259-20.315h-5.494V213zm48.823-3.466c-.812 0-1.217-.258-1.217-1.216v-7.559c0-4.461-2.876-6.857-7.89-6.857-4.756 0-7.927 2.285-8.333 5.972h3.908c.295-1.659 1.881-2.765 4.24-2.765 2.618 0 4.13 1.291 4.13 3.392v1.143h-4.756c-5.273 0-8.075 2.176-8.075 6.047 0 3.502 2.876 5.53 7.005 5.53 3.061 0 4.978-1.327 6.231-3.244 0 1.88.885 3.023 3.466 3.023h2.102v-3.466h-.811zm-5.162-4.277c-.037 2.913-1.954 4.867-5.273 4.867-2.175 0-3.502-1.106-3.502-2.691 0-1.917 1.364-2.839 3.834-2.839h4.941v.663zm17.691-11.134c-3.097 0-4.609 1.253-5.567 2.839l-.443-2.839h-3.539V213h3.982v-9.475c0-2.913 1.143-5.678 4.682-5.678h1.77v-3.724h-.885zM259.098 213h3.982v-4.793l3.392-3.539 5.567 8.332h4.719l-7.558-11.245 7.116-7.632h-4.683l-8.553 9.143v-16.075h-3.982V213zm27.358.221c4.682 0 7.853-2.839 8.517-6.563h-3.982c-.553 2.102-2.323 3.319-4.756 3.319-3.134 0-5.162-2.102-5.273-5.309v-.259h14.232c.074-.516.111-1.032.111-1.511-.111-5.531-3.761-8.996-9.218-8.996-5.567 0-9.291 3.871-9.291 9.696 0 5.789 3.724 9.623 9.66 9.623zm-5.346-11.724c.295-2.692 2.47-4.388 5.014-4.388 2.765 0 4.719 1.586 5.051 4.388H281.11zm18.634 6.378c0 3.429 1.548 5.125 5.162 5.125h3.687v-3.503h-2.802c-1.512 0-2.028-.553-2.028-2.027v-9.845h4.608v-3.502h-4.608v-5.273h-4.019v5.273h-3.281v3.502h3.281v10.25zM3.36 255H7.6v-10.913h10.102v-3.65H7.6v-7.485h12.24v-3.761H3.36V255zm26.88.221c5.751 0 9.622-3.871 9.622-9.66 0-5.751-3.87-9.659-9.623-9.659-5.751 0-9.623 3.908-9.623 9.659 0 5.789 3.872 9.66 9.623 9.66zm0-3.392c-3.356 0-5.531-2.617-5.531-6.268 0-3.65 2.175-6.267 5.53-6.267 3.355 0 5.568 2.617 5.568 6.267 0 3.651-2.213 6.268-5.568 6.268zm22.374-15.706c-3.097 0-4.61 1.253-5.568 2.839l-.442-2.839h-3.54V255h3.982v-9.475c0-2.913 1.143-5.678 4.683-5.678h1.77v-3.724h-.886zm11.105 19.098c4.83 0 8.037-2.691 8.774-6.968H68.29c-.479 2.175-2.101 3.576-4.535 3.576-3.207 0-5.309-2.544-5.309-6.231 0-3.724 2.102-6.304 5.31-6.304 2.47 0 4.055 1.364 4.571 3.576h4.166c-.774-4.277-3.797-6.968-8.664-6.968-5.715 0-9.475 3.871-9.475 9.696 0 5.899 3.65 9.623 9.364 9.623zm20.782 0c4.682 0 7.853-2.839 8.517-6.563h-3.982c-.553 2.102-2.323 3.319-4.757 3.319-3.133 0-5.161-2.102-5.272-5.309v-.259H93.24c.073-.516.11-1.032.11-1.511-.11-5.531-3.76-8.996-9.217-8.996-5.567 0-9.291 3.871-9.291 9.696 0 5.789 3.724 9.623 9.66 9.623zm-5.347-11.724c.296-2.692 2.47-4.388 5.015-4.388 2.765 0 4.72 1.586 5.051 4.388H79.154zm16.495 5.272c.111 4.093 3.577 6.452 8.628 6.452 4.572 0 8.001-2.286 8.001-5.899 0-4.203-3.503-5.088-7.817-5.604-2.728-.295-4.535-.516-4.535-2.286 0-1.512 1.549-2.47 3.908-2.47 2.36 0 3.982 1.216 4.204 2.949h3.908c-.258-3.871-3.54-6.009-8.185-6.009-4.535-.037-7.743 2.285-7.743 5.862 0 3.908 3.392 4.83 7.706 5.346 2.913.369 4.645.516 4.645 2.544 0 1.512-1.622 2.47-4.092 2.47-2.876 0-4.572-1.401-4.72-3.355H95.65zM130.094 255h2.028l5.53-15.706L142.925 255h2.028l6.636-18.693h-1.917l-5.752 16.444-5.346-16.444h-1.733l-5.641 16.444-5.457-16.444h-1.991L130.094 255zm25.084-22.638c.738 0 1.327-.553 1.327-1.327 0-.775-.589-1.328-1.327-1.328-.737 0-1.327.553-1.327 1.328 0 .774.59 1.327 1.327 1.327zM154.22 255h1.88v-18.693h-1.88V255zm7.702-4.351c0 2.987 1.216 4.351 4.387 4.351h2.728v-1.733h-2.58c-1.955 0-2.655-.737-2.655-2.654V238.04h5.051v-1.733h-5.051v-5.235h-1.88v5.235h-3.54v1.733h3.54v12.609zm18.604-14.563c-3.503 0-5.678 1.954-6.747 4.645v-11.54h-1.881V255h1.881v-9.217c0-4.867 2.47-7.964 6.452-7.964 3.576 0 5.788 2.359 5.788 6.784V255h1.881v-10.471c0-5.899-3.134-8.443-7.374-8.443zm32.865 19.135c5.53 0 9.438-2.986 10.545-8.185h-2.102c-1.106 4.13-4.093 6.342-8.48 6.342-5.973 0-9.734-4.683-9.734-11.282 0-6.6 3.835-11.282 9.808-11.282 4.313 0 7.337 2.249 8.48 6.304h2.101c-1.143-5.162-5.051-8.148-10.471-8.148-7.263 0-11.982 5.383-11.982 13.126 0 7.816 4.608 13.125 11.835 13.125zm15.347-22.859c.737 0 1.327-.553 1.327-1.327 0-.775-.59-1.328-1.327-1.328-.738 0-1.328.553-1.328 1.328 0 .774.59 1.327 1.328 1.327zM227.779 255h1.88v-18.693h-1.88V255zm7.702-4.351c0 2.987 1.217 4.351 4.387 4.351h2.729v-1.733h-2.581c-1.954 0-2.655-.737-2.655-2.654V238.04h5.051v-1.733h-5.051v-5.235h-1.88v5.235h-3.54v1.733h3.54v12.609zM251.062 255l-1.217 3.023c-.848 2.065-1.18 2.618-3.097 2.618h-2.36v1.733h2.876c2.507 0 3.097-.959 4.277-3.908l8.959-22.159h-2.027l-6.379 16.26-6.489-16.26h-2.028L251.062 255zm22.346 0h1.991v-25.809h-1.991V255zm15.495-18.914c-3.429 0-5.642 1.77-6.711 4.203l-.295-3.982h-1.622V255h1.88v-9.217c0-4.867 2.471-7.964 6.453-7.964 3.613 0 5.788 2.359 5.788 6.784V255h1.88v-10.471c0-5.899-3.133-8.443-7.373-8.443zm26.511 4.424c-1.143-2.654-3.65-4.424-7.153-4.424-5.124 0-8.811 3.908-8.811 9.549 0 5.899 3.687 9.586 8.811 9.586 3.503 0 5.936-1.88 7.116-4.498l.295 4.277h1.623v-25.809h-1.881v11.319zm-7.005 13.015c-4.166 0-7.042-3.244-7.042-7.89 0-4.609 2.876-7.89 7.042-7.89s7.042 3.281 7.042 7.927c0 4.609-2.876 7.853-7.042 7.853zm21.567 1.696c4.093 0 7.227-2.654 8.038-6.415h-1.917c-.738 2.913-3.208 4.719-6.268 4.719-4.167 0-6.784-3.171-6.858-7.521v-.332h15.264c0-.258.037-.553.037-.774-.184-5.568-3.613-8.812-8.628-8.812-5.124 0-8.627 3.908-8.627 9.439 0 5.862 3.65 9.696 8.959 9.696zm-6.858-11.134c.295-3.798 3.134-6.342 6.563-6.342 3.65 0 6.268 2.249 6.563 6.342h-13.126zM339.35 255h2.175l6.194-8.222 6.194 8.222h2.286l-7.263-9.549 6.894-9.144h-2.138l-5.899 7.743-5.826-7.743h-2.249l6.895 9.144L339.35 255z" fill="#000"/><path d="M1.586 20.578h17.129V68h9.12V20.578h17.128V12.49H1.586v8.088zm65.904 6.82c-6.662 0-9.913 2.697-11.975 6.106l-.951-6.106H46.95V68h8.564V47.62c0-6.265 2.459-12.212 10.071-12.212h3.807v-8.01H67.49zm43.058 33.148c-1.744 0-2.616-.555-2.616-2.617V41.672c0-9.595-6.186-14.75-16.97-14.75-10.23 0-17.05 4.917-17.923 12.847h8.406c.635-3.568 4.045-5.947 9.12-5.947 5.63 0 8.881 2.775 8.881 7.295v2.459h-10.23c-11.34 0-17.366 4.678-17.366 13.005 0 7.533 6.185 11.895 15.067 11.895 6.582 0 10.706-2.855 13.402-6.979 0 4.045 1.903 6.503 7.454 6.503h4.52v-7.454h-1.745zm-11.102-9.199c-.079 6.265-4.203 10.468-11.34 10.468-4.678 0-7.533-2.38-7.533-5.79 0-4.123 2.934-6.105 8.247-6.105h10.626v1.427zm48.05-18.318c-2.617-3.569-6.978-6.107-13.164-6.107-11.022 0-19.19 8.248-19.19 20.777 0 13.005 8.168 20.777 19.19 20.777 6.424 0 10.627-3.014 13.243-6.582L148.606 68h7.455V12.49h-8.565v20.539zm-11.736 28.23c-7.137 0-11.816-5.55-11.816-13.56 0-7.93 4.679-13.48 11.816-13.48 7.137 0 11.815 5.55 11.815 13.639 0 7.85-4.678 13.402-11.815 13.402zm47.94 7.217c10.071 0 16.891-6.106 18.318-14.116h-8.564c-1.19 4.52-4.996 7.137-10.23 7.137-6.74 0-11.102-4.52-11.34-11.419v-.555h30.61c.159-1.11.238-2.22.238-3.251-.238-11.895-8.089-19.35-19.825-19.35-11.974 0-19.984 8.327-19.984 20.857 0 12.45 8.01 20.697 20.777 20.697zm-11.499-25.218c.635-5.789 5.313-9.436 10.785-9.436 5.948 0 10.151 3.41 10.864 9.436h-21.649zM230.818 68h9.119V44.527h21.729v-7.85h-21.729V20.577h26.328V12.49h-35.447V68zm38.394 0h10.309l13.639-21.332L306.721 68h10.864l-18.477-28.786 17.367-26.724h-10.309l-12.688 19.746-12.451-19.746h-10.784l17.366 27.12L269.212 68zm83.156 0h9.278l8.882-27.596L379.092 68h9.199l13.481-40.602h-8.723l-9.595 31.086-8.882-31.086h-7.851l-9.278 31.086-9.278-31.086h-9.04L352.368 68zm58.274-46.311c2.934 0 5.234-2.142 5.234-5.155 0-3.013-2.3-5.154-5.234-5.154s-5.234 2.14-5.234 5.154 2.3 5.155 5.234 5.155zM406.28 68h8.565V27.398h-8.565V68zm19.894-11.023c0 7.375 3.331 11.023 11.102 11.023h7.93v-7.533h-6.026c-3.252 0-4.362-1.19-4.362-4.362V34.932h9.913v-7.534h-9.913v-11.34h-8.644v11.34h-7.057v7.534h7.057v22.045zm45.812-30.054c-6.344 0-10.229 2.854-12.767 6.344V12.49h-8.564V68h8.564V47.461c0-8.168 4.124-13.164 10.864-13.164 6.344 0 9.754 4.124 9.754 11.816V68h8.565V45.4c0-13.56-7.375-18.477-16.416-18.477zM22.839 147.476c10.388 0 17.287-5.789 18.873-14.988h-9.04c-1.031 4.679-4.52 7.692-9.754 7.692-6.9 0-11.42-5.471-11.42-13.402 0-8.009 4.52-13.56 11.42-13.56 5.313 0 8.723 2.934 9.833 7.692h8.961c-1.665-9.199-8.168-14.988-18.636-14.988-12.291 0-20.38 8.327-20.38 20.856 0 12.689 7.85 20.698 20.142 20.698zm44.619 0c12.37 0 20.697-8.327 20.697-20.777 0-12.371-8.326-20.777-20.697-20.777-12.37 0-20.697 8.406-20.697 20.777 0 12.45 8.326 20.777 20.697 20.777zm0-7.296c-7.216 0-11.895-5.63-11.895-13.481s4.679-13.481 11.895-13.481c7.216 0 11.974 5.63 11.974 13.481s-4.758 13.481-11.974 13.481zm48.995-34.258c-6.582 0-10.467 2.617-13.005 5.789l-.952-5.313h-7.454V147h8.565v-20.459c0-8.248 4.044-13.244 10.864-13.244 6.423 0 9.674 4.124 9.674 11.816V147h8.644v-22.601c0-13.56-7.375-18.477-16.336-18.477zm54.973-5.233c2.934 0 5.234-2.141 5.234-5.155 0-3.013-2.3-5.154-5.234-5.154s-5.234 2.14-5.234 5.154c0 3.013 2.3 5.155 5.234 5.155zm-19.27 5.709v-3.41c0-2.775 1.11-3.965 3.885-3.965h6.027V91.49h-7.216c-7.851 0-11.34 3.727-11.34 10.864v4.044h-7.058v7.534h7.058V147h8.644v-33.068h14.908V147h8.644v-40.602h-23.552zm62.715 5.631c-2.617-3.569-6.979-6.107-13.164-6.107-11.023 0-19.191 8.248-19.191 20.777 0 13.005 8.168 20.777 19.191 20.777 6.423 0 10.626-3.014 13.243-6.582l1.031 6.106h7.454V91.49h-8.564v20.539zm-11.737 28.231c-7.137 0-11.816-5.551-11.816-13.561 0-7.93 4.679-13.481 11.816-13.481 7.137 0 11.816 5.551 11.816 13.64 0 7.851-4.679 13.402-11.816 13.402zm47.94 7.216c10.071 0 16.891-6.106 18.319-14.116h-8.565c-1.189 4.521-4.996 7.137-10.23 7.137-6.74 0-11.102-4.52-11.34-11.419v-.555h30.61c.159-1.11.238-2.22.238-3.251-.238-11.895-8.088-19.35-19.825-19.35-11.974 0-19.983 8.327-19.983 20.856 0 12.451 8.009 20.698 20.776 20.698zm-11.498-25.218c.634-5.789 5.313-9.436 10.785-9.436 5.947 0 10.15 3.41 10.864 9.436h-21.649zm58.865-16.336c-6.582 0-10.467 2.617-13.005 5.789l-.952-5.313h-7.454V147h8.565v-20.459c0-8.248 4.044-13.244 10.864-13.244 6.423 0 9.674 4.124 9.674 11.816V147h8.644v-22.601c0-13.56-7.375-18.477-16.336-18.477zm42.451 41.554c10.388 0 17.287-5.789 18.873-14.988h-9.04c-1.031 4.679-4.52 7.692-9.754 7.692-6.899 0-11.419-5.471-11.419-13.402 0-8.009 4.52-13.56 11.419-13.56 5.313 0 8.723 2.934 9.833 7.692h8.961c-1.665-9.199-8.168-14.988-18.635-14.988-12.292 0-20.381 8.327-20.381 20.856 0 12.689 7.851 20.698 20.143 20.698zm44.699 0c10.071 0 16.891-6.106 18.318-14.116h-8.565c-1.189 4.521-4.995 7.137-10.229 7.137-6.741 0-11.102-4.52-11.34-11.419v-.555h30.61c.158-1.11.238-2.22.238-3.251-.238-11.895-8.089-19.35-19.825-19.35-11.975 0-19.984 8.327-19.984 20.856 0 12.451 8.009 20.698 20.777 20.698zm-11.499-25.218c.634-5.789 5.313-9.436 10.785-9.436 5.947 0 10.15 3.41 10.864 9.436h-21.649z" fill="url(#paint0_linear_1401_481)"/><defs><linearGradient id="paint0_linear_1401_481" x1="559" y1="90.664" x2="0" y2="90.664" gradientUnits="userSpaceOnUse"><stop stop-color="#FF4343"/><stop offset=".5" stop-color="#9C0B93"/><stop offset="1" stop-color="#4C1BB7"/></linearGradient></defs></svg>