<svg width="233" height="31" viewBox="0 0 233 31" fill="none" xmlns="http://www.w3.org/2000/svg"><path d="M7.154 7.122a11.401 11.401 0 013.569-2.552 10.276 10.276 0 014.326-.927c1.687 0 3.047.217 4.073.655 1.027.44 2.02 1.07 2.984 1.897.467.36.947.522 1.444.485a2.03 2.03 0 001.266-.543c.35-.322.526-.727.526-1.22 0-.234-.02-.43-.058-.602a1.423 1.423 0 00-.236-.501 2.133 2.133 0 00-.488-.485c-1.456-1.186-2.904-2.038-4.348-2.552C18.773.259 17.052 0 15.05 0c-2.134 0-4.107.401-5.925 1.199a15.013 15.013 0 00-4.777 3.308A15.355 15.355 0 001.15 9.424C.383 11.296 0 13.314 0 15.481c0 2.193.383 4.232 1.149 6.116.766 1.884 1.83 3.53 3.198 4.933a14.628 14.628 0 004.793 3.288c1.831.79 3.8 1.182 5.909 1.182 1.767 0 3.45-.284 5.05-.852a15.744 15.744 0 004.503-2.515c.206-.205.362-.43.467-.677.1-.246.156-.497.156-.756 0-.568-.156-1.01-.468-1.337a1.772 1.772 0 00-1.148-.543c-.455-.037-.918.11-1.385.447a14.567 14.567 0 01-3.413 1.876 10.463 10.463 0 01-3.762.677c-1.536 0-2.975-.305-4.326-.91a11.2 11.2 0 01-3.569-2.537 11.755 11.755 0 01-2.399-3.772c-.572-1.432-.858-2.974-.858-4.624 0-1.625.286-3.154.858-4.587a11.782 11.782 0 012.4-3.768zM33.182.389c-.572 0-1.052.188-1.443.56-.392.376-.585.856-.585 1.45v26.2c0 .567.193 1.044.585 1.432.391.385.87.58 1.443.58.598 0 1.086-.191 1.46-.58.38-.388.564-.865.564-1.433v-26.2c0-.593-.189-1.078-.564-1.45-.374-.371-.862-.56-1.46-.56zM62.072.389H41.216c-.547 0-.993.175-1.346.522-.35.347-.527.794-.527 1.337 0 .543.177.986.526 1.336.35.347.8.523 1.347.523h8.421v24.495c0 .569.194 1.045.585 1.433.391.385.871.581 1.443.581.573 0 1.052-.192 1.444-.58.391-.39.585-.865.585-1.434v-24.5h8.383c.547 0 .993-.175 1.346-.522.35-.346.526-.793.526-1.336 0-.544-.176-.986-.526-1.337-.353-.347-.803-.518-1.35-.518zM93.18.873A1.565 1.565 0 0092.01.39c-.416 0-.766.083-1.052.25a2.266 2.266 0 00-.74.715l-9.28 14.529-9.123-14.37c-.236-.36-.48-.64-.74-.832-.262-.192-.611-.288-1.053-.288-.492 0-.93.15-1.305.447A1.783 1.783 0 0068.036 2c-.08.476.05.986.391 1.53l10.407 16.061v9.019c0 .568.194 1.044.585 1.433.392.384.859.58 1.406.58.572 0 1.052-.192 1.443-.58.391-.389.585-.865.585-1.433v-9.027L93.34 3.522c.312-.489.442-.974.392-1.45-.06-.476-.24-.877-.552-1.199zM113.809.389c-.572 0-1.052.188-1.443.56-.391.376-.585.856-.585 1.45v26.2c0 .567.194 1.044.585 1.432.391.385.871.58 1.443.58.598 0 1.086-.191 1.461-.58.378-.388.564-.865.564-1.433v-26.2c0-.593-.19-1.078-.564-1.45-.375-.371-.863-.56-1.461-.56zM144.522.389c-.573 0-1.052.188-1.444.56-.391.376-.585.856-.585 1.45v21.17L125.496 1.124c-.417-.489-.934-.735-1.561-.735-.573 0-1.048.188-1.423.56-.379.376-.564.856-.564 1.45v26.2c0 .567.19 1.044.564 1.432.375.385.85.58 1.423.58.597 0 1.085-.191 1.46-.58.374-.388.564-.864.564-1.433V7.47l16.997 22.445c.181.23.421.405.72.522a2.3 2.3 0 00.837.176c.598 0 1.078-.192 1.444-.58.362-.39.547-.866.547-1.434v-26.2c0-.593-.181-1.078-.547-1.45-.354-.371-.838-.56-1.435-.56z" fill="#fff"/><path fill-rule="evenodd" clip-rule="evenodd" d="M172.397 4.625a14.036 14.036 0 00-4.776-3.133C165.79.756 163.754.389 161.519.389h-7.057c-.573 0-1.052.188-1.444.56-.391.376-.585.856-.585 1.45v26.2c0 .567.194 1.044.585 1.432.392.385.871.58 1.444.58h7.057c2.235 0 4.267-.367 6.102-1.102 1.831-.735 3.426-1.78 4.776-3.133 1.351-1.354 2.391-2.953 3.119-4.8.728-1.842 1.09-3.876 1.09-6.095 0-2.218-.362-4.244-1.09-6.073a14.005 14.005 0 00-3.119-4.783zm-1.132 16.834c-.963 1.742-2.28 3.108-3.955 4.102-1.675.995-3.607 1.492-5.791 1.492h-5.029V3.948h5.029c2.184 0 4.112.489 5.791 1.47a10.556 10.556 0 013.955 4.065c.96 1.73 1.444 3.726 1.444 5.998 0 2.244-.48 4.236-1.444 5.978z" fill="#fff"/><path d="M201.692 4.102c.597 0 1.077-.167 1.443-.505.362-.334.547-.773.547-1.316 0-.568-.181-1.028-.547-1.375-.362-.346-.846-.522-1.443-.522h-17.625c-.572 0-1.052.188-1.443.56-.391.376-.585.856-.585 1.45v26.2c0 .568.194 1.044.585 1.433.391.384.871.58 1.443.58h17.625c.597 0 1.077-.175 1.443-.522.362-.347.547-.806.547-1.374 0-.543-.181-.982-.547-1.316-.362-.334-.846-.505-1.443-.505h-15.596v-9.667h11.19c.597 0 1.077-.175 1.443-.522.362-.347.547-.794.547-1.337 0-.543-.181-.986-.547-1.337-.362-.346-.846-.522-1.443-.522h-11.19V4.102h15.596zM223.68 15.322l8.888-11.763c.311-.464.454-.94.429-1.433-.025-.488-.193-.902-.505-1.236-.311-.334-.741-.506-1.288-.506-.597 0-1.077.192-1.443.581l-8.736 11.538L212.646.969c-.286-.388-.766-.58-1.444-.58-.547 0-.98.18-1.304.543a2.205 2.205 0 00-.564 1.278c-.051.489.08.94.391 1.353l8.564 11.793-9.073 12.005a2.228 2.228 0 00-.467 1.375c0 .501.156.944.467 1.316.311.376.766.56 1.363.56a1.92 1.92 0 001.406-.581l8.951-11.822 8.48 11.667c.206.26.433.447.682.56.248.117.538.175.879.175.572 0 1.019-.18 1.347-.543.324-.359.501-.797.526-1.315a2.091 2.091 0 00-.429-1.396l-8.741-12.034z" fill="#fff"/></svg>