<svg width="140" height="15" viewBox="0 0 140 15" fill="none" xmlns="http://www.w3.org/2000/svg"><rect x="1" y=".411" width="138" height="14" rx="7" fill="#fff"/><circle cx="10.107" cy="7.411" r="2.977" fill="#4FC706"/><path d="M15.23 9.41h1.205V7.997h.648l.675 1.415h1.322L18.25 7.7c.412-.268.68-.726.68-1.29 0-.962-.713-1.584-1.767-1.584H15.23V9.41zm1.833-3.601c.393 0 .636.23.636.602 0 .374-.243.603-.636.603h-.628V5.809h.628zm2.445 3.602h3.235V8.389h-2.03V7.59h1.565v-.956h-1.565v-.786h1.958V4.827h-3.163V9.41zm3.792 0h1.205V7.996h.72c1.042 0 1.736-.622 1.736-1.585 0-.962-.694-1.584-1.735-1.584H23.3V9.41zm1.814-3.602c.38 0 .622.23.622.602 0 .374-.242.603-.622.603h-.609V5.809h.61zm6.802 1.31c0-1.33-.936-2.332-2.318-2.332-1.381 0-2.318 1.002-2.318 2.332 0 1.329.936 2.33 2.318 2.33 1.382 0 2.319-1.001 2.319-2.33zm-3.405 0c0-.767.42-1.336 1.087-1.336.668 0 1.087.57 1.087 1.336 0 .766-.419 1.336-1.087 1.336-.668 0-1.087-.57-1.087-1.336zm3.934 2.292h1.205V7.996h.649l.674 1.415h1.323l-.832-1.71c.413-.268.681-.726.681-1.29 0-.962-.714-1.584-1.768-1.584h-1.932V9.41zm1.834-3.602c.393 0 .635.23.635.602 0 .374-.242.603-.635.603h-.629V5.809h.629zm2.05.04h1.237V9.41h1.205V5.848h1.237V4.827h-3.68v1.021zm3.773 2.049c0 .95.767 1.552 1.952 1.552 1.133 0 1.866-.61 1.873-1.5.006-.943-.649-1.172-1.454-1.33-.799-.156-1.054-.215-1.054-.49 0-.282.248-.413.576-.413.406 0 .629.23.655.537h1.172c0-.903-.714-1.467-1.827-1.467-1.094 0-1.788.603-1.788 1.434 0 .957.635 1.199 1.428 1.363.805.163 1.08.222 1.08.504 0 .295-.275.439-.642.439-.49 0-.772-.256-.798-.603l-1.173-.026zm5.819-2.547h1.486v4.06h.57V5.35h1.487v-.524H45.92v.524zm5.678.68c-.563 0-.904.276-1.1.59V4.827h-.537V9.41h.537V7.74c0-.753.386-1.218 1.008-1.218.576 0 .91.366.91 1.06v1.828h.537V7.55c0-1.107-.609-1.52-1.355-1.52zm4.378 1.71c0 .753-.367 1.218-.976 1.218-.557 0-.871-.367-.871-1.061V6.07h-.537v1.86c0 1.106.583 1.519 1.316 1.519.55 0 .871-.236 1.068-.485l.072.446h.465V6.07h-.537v1.67zm2.814-1.67c-.596 0-.851.249-1.008.504l-.072-.504h-.465v3.34h.537V7.708c0-.53.19-1.113.89-1.113h.269V6.07h-.15zm.408 2.24c.013.733.61 1.139 1.474 1.139.74 0 1.336-.386 1.336-1.009 0-.74-.61-.884-1.369-.975-.485-.06-.838-.105-.838-.472 0-.308.314-.504.779-.504.458 0 .773.255.812.596h.55c-.052-.694-.602-1.048-1.362-1.054-.753-.007-1.31.392-1.31 1.002 0 .694.596.844 1.343.936.498.059.864.092.864.51 0 .309-.334.512-.805.512-.557 0-.904-.289-.924-.682h-.55zm6.038-1.73c-.203-.32-.583-.55-1.146-.55-.923 0-1.604.688-1.604 1.71 0 1.087.68 1.709 1.604 1.709.563 0 .924-.269 1.146-.576l.072.537h.465V4.827h-.537v1.755zm-1.093 2.39c-.662 0-1.107-.503-1.107-1.23s.445-1.231 1.107-1.231c.654 0 1.1.51 1.1 1.244 0 .714-.445 1.218-1.1 1.218zm5.315-.052c-.15 0-.216-.045-.216-.222v-1.46c0-.78-.491-1.205-1.343-1.205-.805 0-1.335.386-1.414 1.04h.537c.066-.34.38-.562.851-.562.524 0 .832.262.832.694v.229h-.982c-.878 0-1.343.373-1.343 1.041 0 .61.498.976 1.231.976.577 0 .91-.255 1.12-.557.007.328.157.518.603.518h.294v-.492h-.17zm-.753-.87c0 .556-.386.943-1.054.943-.446 0-.727-.223-.727-.55 0-.38.268-.557.746-.557h1.035v.164zM70.89 9.43l-.164.406c-.124.315-.177.393-.484.393h-.479v.491h.642c.472 0 .596-.21.806-.746L72.75 6.07h-.57l-.996 2.665-1.028-2.665h-.57l1.304 3.36zm4.269-.02l.484-1.237h1.998l.484 1.238h.61l-1.743-4.584h-.674L74.569 9.41h.59zm1.48-3.961l.831 2.207h-1.656l.825-2.207zm4.218.583c-.563 0-.923.268-1.146.576l-.072-.537h-.465v4.65h.537V8.9c.203.32.583.55 1.146.55.924 0 1.605-.688 1.605-1.71 0-1.086-.681-1.708-1.605-1.708zm-.052 2.94c-.655 0-1.1-.51-1.1-1.244 0-.714.445-1.218 1.1-1.218.661 0 1.107.504 1.107 1.23 0 .728-.446 1.232-1.107 1.232zM84.62 6.07c-.596 0-.852.249-1.009.504l-.072-.504h-.465v3.34h.537V7.708c0-.53.19-1.113.89-1.113h.27V6.07h-.151zm.89-.563a.337.337 0 00.348-.347.337.337 0 00-.347-.347.337.337 0 00-.347.347c0 .203.15.347.347.347zm-.274 3.903h.537V6.07h-.537v3.34zm1.273 0h.536V4.827h-.537V9.41zm2.763 0h3.157v-.505h-2.397l1.375-1.165c.544-.465.989-.897.989-1.585 0-.825-.576-1.369-1.565-1.369-.923 0-1.532.616-1.532 1.48v.118h.55V6.3c0-.629.393-1.022.982-1.022.609 0 1.002.328 1.002.904 0 .498-.354.851-.78 1.218l-1.78 1.546v.465zm3.387-4.08h2.633l-2.246 4.08h.596l2.252-4.198v-.386H92.66v.504zm7.541 2.442v-.451H98.02v.451h2.181zm2.693.917c.288.472.753.76 1.388.76.943 0 1.591-.655 1.591-1.539 0-.936-.635-1.532-1.539-1.532-.615 0-1.074.3-1.277.753-.026.059-.032.098-.039.124-.006-.111-.006-.157-.006-.223 0-1.034.438-1.761 1.237-1.761.557 0 .884.314.989.78h.55c-.111-.767-.681-1.265-1.512-1.265-1.094 0-1.742.91-1.742 2.351 0 .603.131 1.153.36 1.552zm2.429-.779c0 .616-.412 1.054-1.047 1.054-.629 0-1.048-.425-1.048-1.04 0-.63.432-1.062 1.067-1.062s1.028.439 1.028 1.048zm4.125 1.008c-.151 0-.217-.045-.217-.222v-1.46c0-.78-.491-1.205-1.342-1.205-.805 0-1.336.386-1.415 1.04h.537c.066-.34.38-.562.852-.562.524 0 .831.262.831.694v.229h-.982c-.877 0-1.342.373-1.342 1.041 0 .61.497.976 1.231.976.576 0 .91-.255 1.12-.557.006.328.157.518.602.518h.295v-.492h-.17zm-.754-.87c0 .556-.386.943-1.054.943-.445 0-.727-.223-.727-.55 0-.38.269-.557.747-.557h1.034v.164zm5.063-2.017c-.596 0-.956.275-1.159.635-.19-.426-.59-.635-1.055-.635a1.13 1.13 0 00-.975.497l-.072-.458h-.465v3.34h.537V7.649c0-.668.334-1.126.884-1.126.51 0 .805.34.805.995v1.893h.537V7.623c0-.681.341-1.1.897-1.1.504 0 .793.34.793.995v1.893h.537V7.485c0-1.054-.57-1.453-1.264-1.453zm3.961 3.379l.485-1.238h1.997l.485 1.238h.609l-1.742-4.584h-.675l-1.748 4.584h.589zm1.48-3.962l.832 2.207h-1.657l.825-2.207zm2.614 3.962h3.006v-.524h-2.436V7.34h1.958v-.524h-1.958V5.351h2.351v-.524h-2.921V9.41zm3.462-1.5c.033.904.688 1.539 1.807 1.539.963 0 1.631-.557 1.631-1.35 0-.89-.766-1.139-1.513-1.263-.687-.118-1.244-.23-1.244-.78 0-.49.4-.752.995-.752.623 0 1.048.347 1.114.877h.589c-.052-.825-.681-1.395-1.703-1.395-.929 0-1.565.524-1.565 1.304 0 .89.76 1.132 1.5 1.257.694.118 1.257.236 1.257.805 0 .498-.438.78-1.054.78-.701 0-1.179-.406-1.225-1.022h-.589zm3.649-2.56h1.486v4.06h.57V5.35h1.486v-.524h-3.542v.524z" fill="#000"/><rect x="1" y=".411" width="138" height="14" rx="7" stroke="#000" stroke-width=".595" stroke-miterlimit="0" stroke-linejoin="bevel"/></svg>