<svg width="140" height="17" viewBox="0 0 140 17" fill="none" xmlns="http://www.w3.org/2000/svg"><rect x="1" y=".469" width="138" height="16" rx="8" fill="#fff"/><circle cx="12.47" cy="8.469" r="3.374" fill="#D10000"/><path d="M21.542 10.97V9.81h-1.9V5.774h-1.365v5.195h3.265zm.554 0h1.366V5.773h-1.366v5.195zm3.451 0h1.618l1.707-5.196h-1.417l-1.106 3.533-1.069-3.533h-1.447l1.714 5.195zm3.696 0h3.667V9.81h-2.301v-.905h1.773V7.822H30.61v-.89h2.219V5.773h-3.585v5.195zm5.98-4.603h1.686v4.602h.645V6.367h1.685v-.593h-4.015v.593zm6.436.772c-.638 0-1.024.312-1.247.668V5.774h-.608v5.195h.608V9.076c0-.853.438-1.38 1.143-1.38.653 0 1.032.416 1.032 1.202v2.071h.609V8.861c0-1.254-.69-1.722-1.537-1.722zm4.962 1.937c0 .854-.416 1.381-1.106 1.381-.63 0-.987-.416-.987-1.202V7.184h-.609v2.108c0 1.254.661 1.722 1.492 1.722.624 0 .987-.268 1.21-.55l.082.505h.527V7.184h-.609v1.892zm3.19-1.892c-.675 0-.965.282-1.143.571l-.082-.571h-.527v3.785h.609V9.04c0-.6.215-1.261 1.01-1.261h.304v-.594h-.171zm.463 2.538c.014.831.69 1.292 1.67 1.292.838 0 1.514-.438 1.514-1.143 0-.84-.69-1.002-1.552-1.106-.549-.067-.95-.119-.95-.535 0-.349.357-.571.884-.571.52 0 .875.29.92.675h.623c-.059-.786-.682-1.187-1.543-1.195-.854-.007-1.485.446-1.485 1.136 0 .787.676.957 1.522 1.061.564.067.98.104.98.58 0 .348-.38.578-.913.578-.631 0-1.025-.326-1.047-.772h-.623zm6.843-1.96c-.23-.363-.66-.623-1.299-.623-1.046 0-1.818.78-1.818 1.937 0 1.232.772 1.938 1.818 1.938.638 0 1.047-.305 1.299-.653l.082.608h.526V5.774h-.608v1.989zm-1.24 2.71c-.75 0-1.254-.572-1.254-1.396 0-.823.505-1.395 1.254-1.395.743 0 1.247.579 1.247 1.41 0 .81-.504 1.38-1.247 1.38zm6.025-.06c-.17 0-.245-.052-.245-.252V8.505c0-.883-.557-1.366-1.521-1.366-.913 0-1.515.438-1.604 1.18h.609c.074-.386.43-.638.965-.638.594 0 .942.297.942.787v.26h-1.113c-.995 0-1.521.423-1.521 1.18 0 .69.564 1.106 1.395 1.106.653 0 1.032-.29 1.27-.631.007.37.177.586.682.586h.334v-.557h-.193zm-.854-.987c0 .631-.438 1.07-1.195 1.07-.504 0-.823-.253-.823-.624 0-.43.304-.631.846-.631h1.172v.185zm2.476 1.566l-.186.46c-.141.357-.2.446-.55.446h-.541v.556h.727c.535 0 .676-.237.913-.846l1.744-4.423h-.645l-1.128 3.02-1.166-3.02h-.645l1.477 3.807zm4.838-.022l.55-1.403h2.263l.55 1.403h.69L70.44 5.774h-.764l-1.982 5.195h.668zm1.677-4.49l.943 2.501h-1.878l.935-2.501zm4.782.66c-.639 0-1.047.305-1.3.653l-.08-.608h-.528v5.27h.609V10.39c.23.364.66.624 1.299.624 1.046 0 1.818-.78 1.818-1.938 0-1.232-.772-1.937-1.818-1.937zm-.06 3.333c-.742 0-1.247-.58-1.247-1.41 0-.81.505-1.38 1.247-1.38.75 0 1.255.57 1.255 1.394s-.505 1.396-1.255 1.396zm4.325-3.288c-.675 0-.965.282-1.143.571l-.081-.571h-.527v3.785h.608V9.04c0-.6.215-1.261 1.01-1.261h.304v-.594h-.17zm1.01-.638a.382.382 0 00.394-.394c0-.23-.171-.393-.394-.393a.382.382 0 00-.393.393c0 .23.17.394.393.394zm-.312 4.423h.609V7.184h-.609v3.785zm1.443 0h.608V5.774h-.608v5.195zm3.132 0h3.578v-.571H85.22l1.559-1.322c.616-.527 1.12-1.016 1.12-1.796 0-.935-.653-1.55-1.773-1.55-1.047 0-1.737.697-1.737 1.676v.134h.623v-.096c0-.713.446-1.158 1.114-1.158.69 0 1.135.37 1.135 1.024 0 .564-.4.965-.883 1.38l-2.019 1.752v.527zm3.84-4.624h2.983l-2.546 4.624h.675l2.554-4.757v-.438h-3.667v.571zm8.545 2.769V8.6h-2.471v.513h2.471zm5.287-.847c.497-.133.838-.512.838-1.165 0-.816-.675-1.373-1.744-1.373-1.024 0-1.737.631-1.744 1.544h.616c.007-.594.482-.987 1.135-.987.624 0 1.099.326 1.099.853 0 .527-.386.913-1.158.913h-.408v.542h.445c.809 0 1.255.349 1.255.89 0 .594-.52.973-1.195.973-.735 0-1.27-.408-1.277-1.091h-.616c0 1.032.727 1.648 1.855 1.648 1.129 0 1.871-.602 1.871-1.485 0-.794-.497-1.172-.972-1.262zm5.034 2.145c-.171 0-.245-.052-.245-.252V8.505c0-.883-.557-1.366-1.521-1.366-.913 0-1.515.438-1.604 1.18h.609c.074-.386.431-.638.965-.638.594 0 .943.297.943.787v.26h-1.114c-.994 0-1.521.423-1.521 1.18 0 .69.564 1.106 1.395 1.106.653 0 1.032-.29 1.269-.631.008.37.178.586.683.586h.334v-.557h-.193zm-.853-.987c0 .631-.438 1.07-1.195 1.07-.505 0-.824-.253-.824-.624 0-.43.304-.631.846-.631h1.173v.185zm5.737-2.286c-.675 0-1.084.312-1.314.72-.215-.482-.668-.72-1.195-.72-.586 0-.905.29-1.105.564l-.082-.52h-.527v3.786h.609V8.973c0-.758.378-1.277 1.001-1.277.579 0 .913.386.913 1.128v2.145h.609V8.943c0-.772.386-1.247 1.017-1.247.571 0 .898.386.898 1.128v2.145h.609V8.787c0-1.195-.646-1.648-1.433-1.648zm4.037 2.13c.037 1.025.779 1.745 2.048 1.745 1.092 0 1.849-.631 1.849-1.53 0-1.009-.869-1.29-1.715-1.432-.779-.133-1.41-.26-1.41-.883 0-.557.453-.854 1.128-.854.705 0 1.188.394 1.262.995h.668c-.06-.935-.772-1.58-1.93-1.58-1.054 0-1.774.593-1.774 1.476 0 1.01.861 1.284 1.7 1.425.787.134 1.425.267 1.425.913 0 .564-.497.883-1.195.883-.794 0-1.336-.46-1.388-1.158h-.668zm6.965 1.745c.891 0 1.447-.423 1.685-.802l.044.757h.557V8.156h-2.189v.594h1.558v.178c0 .92-.69 1.492-1.648 1.492-1.076 0-1.788-.846-1.788-2.049 0-1.202.712-2.048 1.803-2.048.787 0 1.344.423 1.522 1.143h.69c-.178-1.069-1.046-1.737-2.197-1.737-1.507 0-2.479 1.069-2.479 2.642 0 1.574 1.002 2.643 2.442 2.643zm2.49-4.647h1.685v4.602h.646V6.367h1.685v-.593h-4.016v.593z" fill="#000"/><rect x="1" y=".469" width="138" height="16" rx="8" stroke="#000" stroke-width=".675" stroke-miterlimit="0" stroke-linejoin="bevel"/></svg>