<svg width="142" height="24" viewBox="0 0 142 24" fill="none" xmlns="http://www.w3.org/2000/svg"><rect x=".787" y=".117" width="140.887" height="23.766" rx="11.883" fill="#fff"/><path d="M18.95 8.68h2.498v6.82h.957V8.68h2.497V7.8H18.95v.88zm8.826 1.21c-1.001 0-1.43.418-1.694.847l-.121-.847h-.781v5.61h.902v-2.86c0-.891.319-1.87 1.496-1.87h.45v-.88h-.252zm5.802 4.785c-.253 0-.363-.077-.363-.374v-2.453c0-1.309-.825-2.024-2.255-2.024-1.353 0-2.244.649-2.376 1.749h.902c.11-.572.638-.946 1.43-.946.88 0 1.397.44 1.397 1.166v.385h-1.65c-1.474 0-2.255.627-2.255 1.749 0 1.023.836 1.639 2.068 1.639.968 0 1.53-.429 1.881-.935.011.55.264.869 1.012.869h.495v-.825h-.286zm-1.265-1.463c0 .935-.649 1.584-1.77 1.584-.749 0-1.222-.374-1.222-.924 0-.638.451-.935 1.254-.935h1.738v.275zm6.602-2.464c-.34-.539-.979-.924-1.925-.924-1.55 0-2.695 1.155-2.695 2.871 0 1.826 1.144 2.871 2.695 2.871.946 0 1.551-.451 1.925-.968l.121.902h.781V7.8h-.902v2.948zm-1.837 4.015c-1.11 0-1.859-.847-1.859-2.068s.748-2.068 1.86-2.068c1.1 0 1.847.858 1.847 2.09 0 1.199-.748 2.046-1.848 2.046zm6.553.803c1.298 0 2.222-.825 2.442-1.947h-.913c-.187.726-.803 1.144-1.595 1.144-1.067 0-1.738-.748-1.771-1.815v-.077h4.356c.011-.132.022-.264.022-.385-.044-1.661-1.078-2.662-2.662-2.662-1.584 0-2.662 1.166-2.662 2.871 0 1.716 1.1 2.871 2.783 2.871zm-1.782-3.443c.088-.913.847-1.507 1.672-1.507.935 0 1.595.539 1.683 1.507h-3.355zm8.055.858c.055 1.518 1.155 2.585 3.036 2.585 1.617 0 2.74-.935 2.74-2.266 0-1.496-1.288-1.914-2.542-2.123-1.155-.198-2.09-.385-2.09-1.309 0-.825.671-1.265 1.672-1.265 1.045 0 1.76.583 1.87 1.474h.99c-.088-1.386-1.144-2.343-2.86-2.343-1.562 0-2.629.88-2.629 2.189 0 1.496 1.276 1.903 2.52 2.112 1.165.198 2.111.396 2.111 1.353 0 .836-.737 1.309-1.77 1.309-1.178 0-1.98-.682-2.058-1.716h-.99zm6.99 2.519h.935V9.428L60.38 15.5h.847l2.552-6.072V15.5h.935V7.8h-1.188l-2.695 6.391L58.104 7.8h-1.21v7.7zm9.676 0l.814-2.079h3.355l.814 2.079h1.023L69.65 7.8h-1.133l-2.937 7.7h.99zm2.486-6.655l1.397 3.707H67.67l1.386-3.707zm4.392 6.655h.957v-2.959h1.936l1.628 2.959h1.078l-1.727-3.146c.99-.275 1.639-1.111 1.639-2.189 0-1.441-1.023-2.365-2.564-2.365h-2.947v7.7zm2.882-6.82c1 0 1.65.583 1.65 1.485 0 .902-.65 1.496-1.662 1.496h-1.913V8.68h1.924zm2.917 0h2.497v6.82h.957V8.68h2.497V7.8h-5.951v.88zm9.49 4.301c.055 1.518 1.155 2.585 3.036 2.585 1.617 0 2.74-.935 2.74-2.266 0-1.496-1.288-1.914-2.542-2.123-1.155-.198-2.09-.385-2.09-1.309 0-.825.671-1.265 1.672-1.265 1.045 0 1.76.583 1.87 1.474h.99c-.088-1.386-1.144-2.343-2.86-2.343-1.562 0-2.629.88-2.629 2.189 0 1.496 1.276 1.903 2.52 2.112 1.165.198 2.111.396 2.111 1.353 0 .836-.737 1.309-1.77 1.309-1.178 0-1.98-.682-2.058-1.716h-.99zm7.32-4.037c.33 0 .583-.242.583-.583a.567.567 0 00-.583-.583.567.567 0 00-.583.583c0 .341.253.583.583.583zm-.462 6.556h.902V9.89h-.902v5.61zm6.559-4.642c-.352-.627-.979-1.034-1.925-1.034-1.55 0-2.695 1.155-2.695 2.871 0 1.826 1.144 2.871 2.695 2.871.946 0 1.551-.396 1.925-1.034v.66c0 1.221-.638 1.771-1.815 1.771-.934 0-1.561-.396-1.715-1.1H97.7c.142 1.232 1.144 1.903 2.573 1.903 1.925 0 2.783-.924 2.783-2.541V9.89h-.781l-.121.968zm-1.837 3.905c-1.11 0-1.858-.847-1.858-2.068s.748-2.068 1.858-2.068c1.1 0 1.848.858 1.848 2.09 0 1.199-.748 2.046-1.848 2.046zm6.718-4.939c-.946 0-1.518.396-1.848.825l-.121-.759h-.781v5.61h.902v-2.805c0-1.265.638-2.046 1.694-2.046.979 0 1.518.616 1.518 1.782V15.5h.902v-3.124c0-1.859-1.001-2.552-2.266-2.552zm8.377 4.851c-.253 0-.363-.077-.363-.374v-2.453c0-1.309-.825-2.024-2.255-2.024-1.353 0-2.244.649-2.376 1.749h.902c.11-.572.638-.946 1.43-.946.88 0 1.397.44 1.397 1.166v.385h-1.65c-1.474 0-2.255.627-2.255 1.749 0 1.023.836 1.639 2.068 1.639.968 0 1.529-.429 1.881-.935.011.55.264.869 1.012.869h.495v-.825h-.286zm-1.265-1.463c0 .935-.649 1.584-1.771 1.584-.748 0-1.221-.374-1.221-.924 0-.638.451-.935 1.254-.935h1.738v.275zm2.245 2.288h.902V7.8h-.902v7.7zm1.906-1.848c.022 1.232 1.023 1.914 2.475 1.914 1.243 0 2.244-.649 2.244-1.694 0-1.243-1.023-1.485-2.299-1.639-.814-.099-1.408-.176-1.408-.792 0-.517.528-.847 1.309-.847.77 0 1.298.429 1.364 1.001h.924c-.088-1.166-1.012-1.76-2.288-1.771-1.265-.011-2.2.66-2.2 1.683 0 1.166 1.001 1.419 2.255 1.573.836.099 1.452.154 1.452.858 0 .517-.561.858-1.353.858-.935 0-1.518-.484-1.551-1.144h-.924z" fill="#000"/></svg>