<svg width="255" height="11" viewBox="0 0 255 11" fill="none" xmlns="http://www.w3.org/2000/svg"><path d="M.828 5.032c0 2.34.996 3.54 3.06 3.54 2.076 0 3.084-1.2 3.084-3.54V.1h-.648v4.968c0 1.932-.744 2.904-2.436 2.904-1.668 0-2.412-.972-2.412-2.904V.1H.828v4.932zm10.637-2.688c-1.14 0-1.932.612-2.316 1.464l-.096-1.392h-.528V10.9h.612V7.096c.348.888 1.176 1.476 2.328 1.476 1.668 0 2.868-1.272 2.868-3.12 0-1.908-1.2-3.108-2.868-3.108zm-.048 5.676c-1.356 0-2.292-1.056-2.292-2.58 0-1.488.936-2.556 2.292-2.556 1.356 0 2.292 1.068 2.292 2.568 0 1.512-.936 2.568-2.292 2.568zM20.5 3.832c-.372-.9-1.188-1.488-2.316-1.488-1.668 0-2.868 1.26-2.868 3.108 0 1.92 1.2 3.12 2.868 3.12 1.14 0 1.944-.6 2.328-1.548v1.08c0 1.62-.768 2.316-2.232 2.316-1.14 0-1.932-.516-2.124-1.44h-.636c.192 1.296 1.236 1.992 2.712 1.992 1.968 0 2.892-.936 2.892-2.844V2.416h-.528L20.5 3.832zM18.232 8.02c-1.356 0-2.292-1.056-2.292-2.568s.936-2.568 2.292-2.568c1.356 0 2.292 1.056 2.292 2.58 0 1.5-.936 2.556-2.292 2.556zm6.816-5.604c-1.128 0-1.608.54-1.86 1.212l-.096-1.212h-.528V8.5h.612V5.416c0-1.236.324-2.412 1.752-2.412h.444v-.588h-.324zm6.325 5.52c-.36 0-.54-.12-.54-.588V4.516c0-1.392-.852-2.172-2.376-2.172-1.392 0-2.316.672-2.472 1.776h.612c.156-.744.804-1.236 1.836-1.236 1.14 0 1.788.6 1.788 1.608v.528h-2.064c-1.56 0-2.4.672-2.4 1.812 0 1.08.852 1.74 2.148 1.74 1.236 0 1.968-.564 2.34-1.32v.216c-.024.72.276 1.032.996 1.032h.36v-.564h-.228zM30.22 6.04c0 1.164-.828 2.004-2.268 2.004-.972 0-1.572-.492-1.572-1.248 0-.804.6-1.248 1.728-1.248h2.112v.492zm7.073-2.256c-.372-.864-1.188-1.44-2.328-1.44-1.669 0-2.869 1.272-2.869 3.108 0 1.92 1.2 3.12 2.868 3.12 1.14 0 1.932-.612 2.316-1.464l.096 1.392h.529V.1h-.612v3.684zm-2.28 4.236c-1.357 0-2.293-1.056-2.293-2.568 0-1.5.937-2.568 2.293-2.568 1.355 0 2.291 1.068 2.291 2.58 0 1.5-.935 2.556-2.291 2.556zm7.019.552c1.332 0 2.352-.864 2.616-2.088h-.624c-.24.948-1.044 1.536-2.04 1.536-1.356 0-2.208-1.032-2.232-2.448v-.108h4.968c0-.084.012-.18.012-.252-.06-1.812-1.176-2.868-2.808-2.868-1.668 0-2.808 1.272-2.808 3.072 0 1.908 1.188 3.156 2.916 3.156zm-2.232-3.624c.096-1.236 1.02-2.064 2.136-2.064 1.188 0 2.04.732 2.136 2.064h-4.272zm11.2 3.552l-.396.984c-.276.672-.384.852-1.008.852h-.768v.564h.936c.816 0 1.008-.312 1.392-1.272l2.916-7.212h-.66l-2.076 5.292-2.112-5.292h-.66L51.001 8.5zm6.325.072c1.716 0 2.928-1.272 2.928-3.12 0-1.836-1.212-3.108-2.928-3.108S54.41 3.616 54.41 5.452c0 1.848 1.2 3.12 2.916 3.12zm0-.552c-1.356 0-2.292-1.056-2.292-2.568 0-1.5.936-2.568 2.292-2.568 1.356 0 2.292 1.068 2.292 2.568 0 1.512-.936 2.568-2.292 2.568zm8.56-2.616c0 1.596-.792 2.604-2.052 2.604-1.128 0-1.824-.768-1.824-2.22V2.416h-.612v3.408c0 1.908.996 2.748 2.34 2.748 1.08 0 1.788-.576 2.136-1.356l.084 1.284h.54V2.416h-.612v2.988zm4.537-2.988c-1.128 0-1.608.54-1.86 1.212l-.096-1.212h-.528V8.5h.612V5.416c0-1.236.324-2.412 1.752-2.412h.444v-.588h-.324zm4.921 4.668c0 .972.396 1.416 1.428 1.416h.888v-.564h-.84c-.636 0-.864-.24-.864-.864V2.98H77.6v-.564h-1.644V.712h-.612v1.704h-1.152v.564h1.152v4.104zm5.731-4.668c-1.128 0-1.608.54-1.86 1.212l-.096-1.212h-.528V8.5h.612V5.416c0-1.236.324-2.412 1.752-2.412h.444v-.588h-.324zm6.325 5.52c-.36 0-.54-.12-.54-.588V4.516c0-1.392-.852-2.172-2.376-2.172-1.392 0-2.316.672-2.472 1.776h.612c.156-.744.804-1.236 1.836-1.236 1.14 0 1.788.6 1.788 1.608v.528h-2.064c-1.56 0-2.4.672-2.4 1.812 0 1.08.852 1.74 2.148 1.74 1.236 0 1.968-.564 2.34-1.32v.216c-.024.72.276 1.032.996 1.032h.36v-.564H87.4zM86.248 6.04c0 1.164-.828 2.004-2.268 2.004-.972 0-1.572-.492-1.572-1.248 0-.804.6-1.248 1.728-1.248h2.112v.492zm7.073-2.256c-.372-.864-1.188-1.44-2.328-1.44-1.668 0-2.868 1.272-2.868 3.108 0 1.92 1.2 3.12 2.868 3.12 1.14 0 1.932-.612 2.316-1.464l.096 1.392h.528V.1h-.612v3.684zM91.04 8.02c-1.356 0-2.292-1.056-2.292-2.568 0-1.5.936-2.568 2.292-2.568 1.356 0 2.292 1.068 2.292 2.58 0 1.5-.936 2.556-2.292 2.556zm4.643-6.888c.24 0 .432-.18.432-.432a.423.423 0 00-.432-.432c-.24 0-.432.18-.432.432s.192.432.432.432zM95.372 8.5h.612V2.416h-.612V8.5zm4.859-6.156c-1.116 0-1.836.576-2.184 1.368l-.096-1.296h-.528V8.5h.612v-3c0-1.584.804-2.592 2.1-2.592 1.176 0 1.884.768 1.884 2.208V8.5h.612V5.092c0-1.92-1.02-2.748-2.4-2.748zm8.711 1.488c-.372-.9-1.188-1.488-2.316-1.488-1.668 0-2.868 1.26-2.868 3.108 0 1.92 1.2 3.12 2.868 3.12 1.14 0 1.944-.6 2.328-1.548v1.08c0 1.62-.768 2.316-2.232 2.316-1.14 0-1.932-.516-2.124-1.44h-.636c.192 1.296 1.236 1.992 2.712 1.992 1.968 0 2.892-.936 2.892-2.844V2.416h-.528l-.096 1.416zm-2.268 4.188c-1.356 0-2.292-1.056-2.292-2.568s.936-2.568 2.292-2.568c1.356 0 2.292 1.056 2.292 2.58 0 1.5-.936 2.556-2.292 2.556zm9.042.48h.66l1.8-5.112 1.716 5.112h.66l2.16-6.084h-.624l-1.872 5.352-1.74-5.352h-.564l-1.836 5.352-1.776-5.352h-.648l2.064 6.084zm8.164-7.368c.24 0 .432-.18.432-.432a.423.423 0 00-.432-.432c-.24 0-.432.18-.432.432s.192.432.432.432zm-.312 7.368h.612V2.416h-.612V8.5zm2.506-1.416c0 .972.396 1.416 1.428 1.416h.888v-.564h-.84c-.636 0-.864-.24-.864-.864V2.98h1.644v-.564h-1.644V.712h-.612v1.704h-1.152v.564h1.152v4.104zm6.056-4.74c-1.14 0-1.848.636-2.196 1.512V.1h-.612v8.4h.612v-3c0-1.584.804-2.592 2.1-2.592 1.164 0 1.884.768 1.884 2.208V8.5h.612V5.092c0-1.92-1.02-2.748-2.4-2.748zm7.144 6.156h.648V4.996h2.472c1.584 0 2.628-.984 2.628-2.448S143.99.1 142.394.1h-3.12v8.4zm3.072-7.8c1.236 0 2.016.744 2.016 1.848 0 1.092-.792 1.848-2.028 1.848h-2.412V.7h2.424zm6.046 7.872c1.332 0 2.352-.864 2.616-2.088h-.624c-.24.948-1.044 1.536-2.04 1.536-1.356 0-2.208-1.032-2.232-2.448v-.108h4.968c0-.084.012-.18.012-.252-.06-1.812-1.176-2.868-2.808-2.868-1.668 0-2.808 1.272-2.808 3.072 0 1.908 1.188 3.156 2.916 3.156zm-2.232-3.624c.096-1.236 1.02-2.064 2.136-2.064 1.188 0 2.04.732 2.136 2.064h-4.272zm8.626-2.532c-1.128 0-1.608.54-1.86 1.212l-.096-1.212h-.528V8.5h.612V5.416c0-1.236.324-2.412 1.752-2.412h.444v-.588h-.324zm.734.564h1.152V8.5h.612V2.98h1.824v-.564h-1.824v-.912c0-.6.228-.84.84-.84h.996V.1h-1.02c-1.02 0-1.428.444-1.428 1.416v.9h-1.152v.564zm6.701 5.592c1.716 0 2.927-1.272 2.927-3.12 0-1.836-1.211-3.108-2.927-3.108s-2.916 1.272-2.916 3.108c0 1.848 1.2 3.12 2.916 3.12zm0-.552c-1.356 0-2.292-1.056-2.292-2.568 0-1.5.936-2.568 2.292-2.568 1.356 0 2.292 1.068 2.292 2.568 0 1.512-.936 2.568-2.292 2.568zm6.628-5.604c-1.128 0-1.608.54-1.86 1.212l-.096-1.212h-.528V8.5h.612V5.416c0-1.236.324-2.412 1.752-2.412h.444v-.588h-.324zm8.022-.072c-1.116 0-1.836.624-2.184 1.524-.288-1.008-1.044-1.524-2.004-1.524-1.044 0-1.668.612-1.98 1.368l-.096-1.296h-.528V8.5h.612V5.404c0-1.488.72-2.496 1.884-2.496 1.056 0 1.716.744 1.716 2.148V8.5h.612V5.188c.036-1.392.756-2.28 1.896-2.28 1.056 0 1.692.708 1.692 2.088V8.5h.624V4.972c0-1.836-.972-2.628-2.244-2.628zm8.955 5.592c-.36 0-.54-.12-.54-.588V4.516c0-1.392-.852-2.172-2.376-2.172-1.392 0-2.316.672-2.472 1.776h.612c.156-.744.804-1.236 1.836-1.236 1.14 0 1.788.6 1.788 1.608v.528h-2.064c-1.56 0-2.4.672-2.4 1.812 0 1.08.852 1.74 2.148 1.74 1.236 0 1.968-.564 2.34-1.32v.216c-.024.72.276 1.032.996 1.032h.36v-.564h-.228zm-1.152-1.896c0 1.164-.828 2.004-2.268 2.004-.972 0-1.572-.492-1.572-1.248 0-.804.6-1.248 1.728-1.248h2.112v.492zm5.006-3.696c-1.116 0-1.836.576-2.184 1.368l-.096-1.296h-.528V8.5h.612v-3c0-1.584.804-2.592 2.1-2.592 1.176 0 1.884.768 1.884 2.208V8.5h.612V5.092c0-1.92-1.02-2.748-2.4-2.748zm6.313 6.228c1.38 0 2.352-.792 2.592-2.028h-.648c-.204.9-.936 1.476-1.944 1.476-1.332 0-2.256-1.044-2.256-2.556s.912-2.58 2.256-2.58c1.02 0 1.74.576 1.956 1.488h.636c-.252-1.26-1.2-2.028-2.58-2.028-1.716 0-2.892 1.272-2.892 3.12 0 1.872 1.164 3.108 2.88 3.108zm6.47 0c1.332 0 2.352-.864 2.616-2.088h-.624c-.24.948-1.044 1.536-2.04 1.536-1.356 0-2.208-1.032-2.232-2.448v-.108h4.968c0-.084.012-.18.012-.252-.06-1.812-1.176-2.868-2.808-2.868-1.668 0-2.808 1.272-2.808 3.072 0 1.908 1.188 3.156 2.916 3.156zm-2.232-3.624c.096-1.236 1.02-2.064 2.136-2.064 1.188 0 2.04.732 2.136 2.064h-4.272zm9.532 3.552l1.008-2.568h3.864l1.008 2.568h.696l-3.24-8.4h-.756l-3.252 8.4h.672zm2.94-7.68l1.74 4.512h-3.48l1.74-4.512zm7.364 1.524c-1.116 0-1.836.576-2.184 1.368l-.096-1.296h-.528V8.5h.612v-3c0-1.584.804-2.592 2.1-2.592 1.176 0 1.884.768 1.884 2.208V8.5h.612V5.092c0-1.92-1.02-2.748-2.4-2.748zm9.107 5.592c-.36 0-.54-.12-.54-.588V4.516c0-1.392-.852-2.172-2.376-2.172-1.392 0-2.316.672-2.472 1.776h.612c.156-.744.804-1.236 1.836-1.236 1.14 0 1.788.6 1.788 1.608v.528h-2.064c-1.56 0-2.4.672-2.4 1.812 0 1.08.852 1.74 2.148 1.74 1.236 0 1.968-.564 2.34-1.32v.216c-.024.72.276 1.032.996 1.032h.36v-.564h-.228zm-1.152-1.896c0 1.164-.828 2.004-2.268 2.004-.972 0-1.572-.492-1.572-1.248 0-.804.6-1.248 1.728-1.248h2.112v.492zm2.198 2.46h.612V.1h-.612v8.4zm3.875 0l-.396.984c-.276.672-.384.852-1.008.852h-.768v.564h.936c.816 0 1.008-.312 1.392-1.272l2.916-7.212h-.66l-2.076 5.292-2.112-5.292h-.66l2.436 6.084zm4.433-1.416c0 .972.396 1.416 1.428 1.416h.888v-.564h-.84c-.636 0-.864-.24-.864-.864V2.98h1.644v-.564h-1.644V.712h-.612v1.704h-1.152v.564h1.152v4.104zm3.559-5.952c.24 0 .432-.18.432-.432a.423.423 0 00-.432-.432c-.24 0-.432.18-.432.432s.192.432.432.432zm-.312 7.368h.612V2.416h-.612V8.5zm4.702.072c1.38 0 2.352-.792 2.592-2.028h-.648c-.204.9-.936 1.476-1.944 1.476-1.332 0-2.256-1.044-2.256-2.556s.912-2.58 2.256-2.58c1.02 0 1.74.576 1.956 1.488h.636c-.252-1.26-1.2-2.028-2.58-2.028-1.716 0-2.892 1.272-2.892 3.12 0 1.872 1.164 3.108 2.88 3.108zm3.506-1.944c.048 1.26 1.068 1.944 2.592 1.944 1.308 0 2.364-.66 2.364-1.74 0-1.284-1.128-1.536-2.436-1.716-.948-.132-1.788-.24-1.788-1.092 0-.696.684-1.152 1.716-1.152.972 0 1.668.468 1.776 1.26h.624c-.108-1.188-1.08-1.788-2.4-1.788-1.356-.012-2.328.684-2.328 1.728 0 1.224 1.128 1.452 2.376 1.62 1.02.144 1.848.276 1.848 1.176 0 .72-.756 1.176-1.752 1.176-1.164 0-1.92-.54-1.968-1.416h-.624z" fill="#000"/></svg>