<svg width="136" height="32" viewBox="0 0 136 32" fill="none" xmlns="http://www.w3.org/2000/svg"><rect width="136" height="32" rx="16" fill="#000"/><path d="M28.678 22.108c2.16 0 3.51-1.026 4.086-1.944L32.872 22h1.35v-6.822h-5.31v1.44h3.78v.432c0 2.232-1.674 3.618-3.996 3.618-2.61 0-4.338-2.052-4.338-4.968s1.728-4.968 4.374-4.968c1.908 0 3.258 1.026 3.69 2.772h1.674c-.432-2.592-2.538-4.212-5.328-4.212-3.654 0-6.012 2.592-6.012 6.408 0 3.816 2.43 6.408 5.922 6.408zm12.007 0c2.124 0 3.636-1.35 3.996-3.186h-1.494c-.306 1.188-1.314 1.872-2.61 1.872-1.746 0-2.844-1.224-2.898-2.97v-.126h7.128c.018-.216.036-.432.036-.63-.072-2.718-1.764-4.356-4.356-4.356-2.592 0-4.356 1.908-4.356 4.698 0 2.808 1.8 4.698 4.554 4.698zm-2.916-5.634c.144-1.494 1.386-2.466 2.736-2.466 1.53 0 2.61.882 2.754 2.466h-5.49zm9.337 3.132c0 1.62.63 2.394 2.394 2.394h1.602v-1.35h-1.458c-.792 0-1.062-.288-1.062-1.062V14.17h2.376v-1.35h-2.376v-2.574h-1.476v2.574H45.45v1.35h1.656v5.436zm9.608-.63c.036 2.016 1.674 3.132 4.05 3.132 2.034 0 3.672-1.062 3.672-2.772 0-2.034-1.674-2.43-3.762-2.682-1.332-.162-2.304-.288-2.304-1.296 0-.846.864-1.386 2.142-1.386 1.26 0 2.124.702 2.232 1.638h1.512c-.144-1.908-1.656-2.88-3.744-2.898-2.07-.018-3.6 1.08-3.6 2.754 0 1.908 1.638 2.322 3.69 2.574 1.368.162 2.376.252 2.376 1.404 0 .846-.918 1.404-2.214 1.404-1.53 0-2.484-.792-2.538-1.872h-1.512zm10.044.63c0 1.62.63 2.394 2.394 2.394h1.602v-1.35h-1.458c-.792 0-1.062-.288-1.062-1.062V14.17h2.376v-1.35h-2.376v-2.574h-1.476v2.574h-1.656v1.35h1.656v5.436zm13.253 1.044c-.414 0-.594-.126-.594-.612v-4.014c0-2.142-1.35-3.312-3.69-3.312-2.214 0-3.672 1.062-3.888 2.862h1.476c.18-.936 1.044-1.548 2.34-1.548 1.44 0 2.286.72 2.286 1.908v.63h-2.7c-2.412 0-3.69 1.026-3.69 2.862 0 1.674 1.368 2.682 3.384 2.682 1.584 0 2.502-.702 3.078-1.53.018.9.432 1.422 1.656 1.422h.81v-1.35h-.468zm-2.07-2.394c0 1.53-1.062 2.592-2.898 2.592-1.224 0-1.998-.612-1.998-1.512 0-1.044.738-1.53 2.052-1.53h2.844v.45zm7.92-5.436c-1.638 0-2.34.684-2.772 1.386l-.198-1.386h-1.278V22h1.477v-4.68c0-1.458.522-3.06 2.447-3.06h.738v-1.44h-.413zm2.677 6.786c0 1.62.63 2.394 2.394 2.394h1.602v-1.35h-1.458c-.792 0-1.062-.288-1.062-1.062V14.17h2.376v-1.35h-2.376v-2.574h-1.476v2.574h-1.656v1.35h1.656v5.436zm9.276 2.502c2.124 0 3.636-1.35 3.996-3.186h-1.494c-.306 1.188-1.314 1.872-2.61 1.872-1.746 0-2.844-1.224-2.898-2.97v-.126h7.128c.018-.216.036-.432.036-.63-.072-2.718-1.764-4.356-4.356-4.356-2.592 0-4.356 1.908-4.356 4.698 0 2.808 1.8 4.698 4.554 4.698zm-2.916-5.634c.144-1.494 1.386-2.466 2.736-2.466 1.53 0 2.61.882 2.754 2.466h-5.49zm15.994-2.25c-.558-.882-1.602-1.512-3.15-1.512-2.538 0-4.41 1.89-4.41 4.698 0 2.988 1.872 4.698 4.41 4.698 1.548 0 2.538-.738 3.15-1.584L111.09 22h1.278V9.4h-1.476v4.824zm-3.006 6.57c-1.818 0-3.042-1.386-3.042-3.384s1.224-3.384 3.042-3.384c1.8 0 3.024 1.404 3.024 3.42 0 1.962-1.224 3.348-3.024 3.348z" fill="#fff"/></svg>