<svg width="373" height="25" viewBox="0 0 373 25" fill="none" xmlns="http://www.w3.org/2000/svg"><path d="M.863 11.197c0 5.265 2.241 7.965 6.885 7.965 4.671 0 6.939-2.7 6.939-7.965V.1h-1.458v11.178c0 4.347-1.674 6.534-5.481 6.534-3.753 0-5.427-2.187-5.427-6.534V.1H.863v11.097zm23.933-6.048c-2.566 0-4.348 1.377-5.212 3.294l-.215-3.132H18.18V24.4h1.378v-8.559c.782 1.998 2.645 3.321 5.238 3.321 3.753 0 6.453-2.862 6.453-7.02 0-4.293-2.7-6.993-6.453-6.993zm-.108 12.771c-3.051 0-5.157-2.376-5.157-5.805 0-3.348 2.106-5.751 5.157-5.751 3.05 0 5.157 2.403 5.157 5.778 0 3.402-2.107 5.778-5.157 5.778zm20.438-9.423c-.837-2.025-2.673-3.348-5.212-3.348-3.753 0-6.453 2.835-6.453 6.993 0 4.32 2.7 7.02 6.453 7.02 2.566 0 4.374-1.35 5.239-3.483v2.43c0 3.645-1.728 5.211-5.023 5.211-2.565 0-4.347-1.161-4.779-3.24h-1.43c.431 2.916 2.78 4.482 6.102 4.482 4.427 0 6.506-2.106 6.506-6.399V5.311h-1.188l-.215 3.186zm-5.103 9.423c-3.052 0-5.158-2.376-5.158-5.778 0-3.402 2.106-5.778 5.157-5.778 3.052 0 5.157 2.376 5.157 5.805 0 3.375-2.105 5.751-5.157 5.751zM55.356 5.311c-2.538 0-3.618 1.215-4.185 2.727l-.216-2.727h-1.188V19h1.377v-6.939c0-2.781.73-5.427 3.942-5.427h1V5.311h-.73zm14.232 12.42c-.81 0-1.215-.27-1.215-1.323v-6.372c0-3.132-1.917-4.887-5.346-4.887-3.132 0-5.211 1.512-5.562 3.996h1.377c.35-1.674 1.809-2.781 4.13-2.781 2.566 0 4.024 1.35 4.024 3.618v1.188h-4.644c-3.51 0-5.4 1.512-5.4 4.077 0 2.43 1.917 3.915 4.833 3.915 2.78 0 4.428-1.269 5.265-2.97v.486c-.054 1.62.62 2.322 2.24 2.322h.81v-1.269h-.512zm-2.592-4.266c0 2.619-1.863 4.509-5.103 4.509-2.187 0-3.537-1.107-3.537-2.808 0-1.809 1.35-2.808 3.888-2.808h4.752v1.107zM82.91 8.389c-.837-1.944-2.673-3.24-5.238-3.24-3.753 0-6.453 2.862-6.453 6.993 0 4.32 2.7 7.02 6.453 7.02 2.565 0 4.347-1.377 5.211-3.294L83.1 19h1.188V.1H82.91v8.289zm-5.13 9.531c-3.05 0-5.157-2.376-5.157-5.778 0-3.375 2.106-5.778 5.157-5.778s5.157 2.403 5.157 5.805c0 3.375-2.106 5.751-5.157 5.751zm15.794 1.242c2.997 0 5.292-1.944 5.886-4.698h-1.404c-.54 2.133-2.349 3.456-4.59 3.456-3.05 0-4.968-2.322-5.022-5.508v-.243h11.178c0-.189.027-.405.027-.567-.135-4.077-2.646-6.453-6.318-6.453-3.753 0-6.318 2.862-6.318 6.912 0 4.293 2.673 7.101 6.561 7.101zm-5.022-8.154c.216-2.781 2.295-4.644 4.806-4.644 2.673 0 4.59 1.647 4.806 4.644h-9.612zm22.122 4.806c0 2.187.891 3.186 3.213 3.186h1.998v-1.269h-1.89c-1.431 0-1.944-.54-1.944-1.944V6.58h3.699V5.311h-3.699V1.477h-1.377v3.834h-2.592V6.58h2.592v9.234zm12.932 3.348c3.861 0 6.588-2.862 6.588-7.02 0-4.131-2.727-6.993-6.588-6.993s-6.561 2.862-6.561 6.993c0 4.158 2.7 7.02 6.561 7.02zm0-1.242c-3.051 0-5.157-2.376-5.157-5.778 0-3.375 2.106-5.778 5.157-5.778s5.157 2.403 5.157 5.778c0 3.402-2.106 5.778-5.157 5.778zm28.644-.189c-.81 0-1.215-.27-1.215-1.323v-6.372c0-3.132-1.917-4.887-5.346-4.887-3.132 0-5.211 1.512-5.562 3.996h1.377c.351-1.674 1.809-2.781 4.131-2.781 2.565 0 4.023 1.35 4.023 3.618v1.188h-4.644c-3.51 0-5.4 1.512-5.4 4.077 0 2.43 1.917 3.915 4.833 3.915 2.781 0 4.428-1.269 5.265-2.97v.486c-.054 1.62.621 2.322 2.241 2.322h.81v-1.269h-.513zm-2.592-4.266c0 2.619-1.863 4.509-5.103 4.509-2.187 0-3.537-1.107-3.537-2.808 0-1.809 1.35-2.808 3.888-2.808h4.752v1.107zM161.882 19h1.377V.1h-1.377V19zm5.316-16.578c.54 0 .972-.405.972-.972a.951.951 0 00-.972-.972.951.951 0 00-.972.972c0 .567.432.972.972.972zM166.496 19h1.377V5.311h-1.377V19zm8.583 0h1.647l5.346-13.689h-1.431l-4.698 12.096-4.725-12.096h-1.485L175.079 19zm14.34.162c2.997 0 5.292-1.944 5.886-4.698h-1.404c-.54 2.133-2.349 3.456-4.59 3.456-3.051 0-4.968-2.322-5.022-5.508v-.243h11.178c0-.189.027-.405.027-.567-.135-4.077-2.646-6.453-6.318-6.453-3.753 0-6.318 2.862-6.318 6.912 0 4.293 2.673 7.101 6.561 7.101zm-5.022-8.154c.216-2.781 2.295-4.644 4.806-4.644 2.673 0 4.59 1.647 4.806 4.644h-9.612zm33.138 6.723c-.81 0-1.215-.27-1.215-1.323v-6.372c0-3.132-1.917-4.887-5.346-4.887-3.132 0-5.211 1.512-5.562 3.996h1.377c.351-1.674 1.809-2.781 4.131-2.781 2.565 0 4.023 1.35 4.023 3.618v1.188h-4.644c-3.51 0-5.4 1.512-5.4 4.077 0 2.43 1.917 3.915 4.833 3.915 2.781 0 4.428-1.269 5.265-2.97v.486c-.054 1.62.621 2.322 2.241 2.322h.81v-1.269h-.513zm-2.592-4.266c0 2.619-1.863 4.509-5.103 4.509-2.187 0-3.537-1.107-3.537-2.808 0-1.809 1.35-2.808 3.888-2.808h4.752v1.107zm10.703 5.697c3.105 0 5.292-1.782 5.832-4.563h-1.458c-.459 2.025-2.106 3.321-4.374 3.321-2.997 0-5.076-2.349-5.076-5.751s2.052-5.805 5.076-5.805c2.295 0 3.915 1.296 4.401 3.348h1.431c-.567-2.835-2.7-4.563-5.805-4.563-3.861 0-6.507 2.862-6.507 7.02 0 4.212 2.619 6.993 6.48 6.993zm14.475 0c3.105 0 5.292-1.782 5.832-4.563h-1.458c-.459 2.025-2.106 3.321-4.374 3.321-2.997 0-5.076-2.349-5.076-5.751s2.052-5.805 5.076-5.805c2.295 0 3.915 1.296 4.401 3.348h1.431c-.567-2.835-2.7-4.563-5.805-4.563-3.861 0-6.507 2.862-6.507 7.02 0 4.212 2.619 6.993 6.48 6.993zm14.557 0c3.861 0 6.588-2.862 6.588-7.02 0-4.131-2.727-6.993-6.588-6.993s-6.561 2.862-6.561 6.993c0 4.158 2.7 7.02 6.561 7.02zm0-1.242c-3.051 0-5.157-2.376-5.157-5.778 0-3.375 2.106-5.778 5.157-5.778s5.157 2.403 5.157 5.778c0 3.402-2.106 5.778-5.157 5.778zm19.26-5.886c0 3.591-1.782 5.859-4.617 5.859-2.538 0-4.104-1.728-4.104-4.995V5.311h-1.377v7.668c0 4.293 2.241 6.183 5.265 6.183 2.43 0 4.023-1.296 4.806-3.051L274.1 19h1.215V5.311h-1.377v6.723zm10.937-6.885c-2.511 0-4.131 1.296-4.914 3.078l-.216-2.916h-1.188V19h1.377v-6.75c0-3.564 1.809-5.832 4.725-5.832 2.646 0 4.239 1.728 4.239 4.968V19h1.377v-7.668c0-4.32-2.295-6.183-5.4-6.183zm9.473 10.665c0 2.187.891 3.186 3.213 3.186h1.998v-1.269h-1.89c-1.431 0-1.944-.54-1.944-1.944V6.58h3.699V5.311h-3.699V1.477h-1.377v3.834h-2.592V6.58h2.592v9.234zm15.61 0c0 2.187.891 3.186 3.213 3.186h1.998v-1.269h-1.89c-1.431 0-1.944-.54-1.944-1.944V6.58h3.699V5.311h-3.699V1.477h-1.377v3.834h-2.592V6.58h2.592v9.234zm12.932 3.348c3.861 0 6.588-2.862 6.588-7.02 0-4.131-2.727-6.993-6.588-6.993s-6.561 2.862-6.561 6.993c0 4.158 2.7 7.02 6.561 7.02zm0-1.242c-3.051 0-5.157-2.376-5.157-5.778 0-3.375 2.106-5.778 5.157-5.778s5.157 2.403 5.157 5.778c0 3.402-2.106 5.778-5.157 5.778zm20.502-9.531c-.837-1.944-2.673-3.24-5.238-3.24-3.753 0-6.453 2.862-6.453 6.993 0 4.32 2.7 7.02 6.453 7.02 2.565 0 4.347-1.377 5.211-3.294l.216 3.132h1.188V.1h-1.377v8.289zm-5.13 9.531c-3.051 0-5.157-2.376-5.157-5.778 0-3.375 2.106-5.778 5.157-5.778s5.157 2.403 5.157 5.805c0 3.375-2.106 5.751-5.157 5.751zm21.788-.189c-.81 0-1.215-.27-1.215-1.323v-6.372c0-3.132-1.917-4.887-5.346-4.887-3.132 0-5.211 1.512-5.562 3.996h1.377c.351-1.674 1.809-2.781 4.131-2.781 2.565 0 4.023 1.35 4.023 3.618v1.188h-4.644c-3.51 0-5.4 1.512-5.4 4.077 0 2.43 1.917 3.915 4.833 3.915 2.781 0 4.428-1.269 5.265-2.97v.486c-.054 1.62.621 2.322 2.241 2.322h.81v-1.269h-.513zm-2.592-4.266c0 2.619-1.863 4.509-5.103 4.509-2.187 0-3.537-1.107-3.537-2.808 0-1.809 1.35-2.808 3.888-2.808h4.752v1.107zM366.06 19l-.891 2.214c-.621 1.512-.864 1.917-2.268 1.917h-1.728V24.4h2.106c1.836 0 2.268-.702 3.132-2.862l6.561-16.227h-1.485l-4.671 11.907-4.752-11.907h-1.485L366.06 19z" fill="#000"/></svg>