<svg width="156" height="45" viewBox="0 0 156 45" fill="none" xmlns="http://www.w3.org/2000/svg"><path d="M5.082 10.084c1.96 0 3.122-1.078 3.542-2.254L8.666 10h.658V4.89H5.376v.7h3.22v.42c0 1.918-1.33 3.374-3.5 3.374-2.198 0-3.654-1.764-3.654-4.284 0-2.506 1.456-4.284 3.724-4.284 1.652 0 2.8.854 3.206 2.394h.812C8.778 1.25 7.252.116 5.194.116 2.422.116.658 2.16.658 5.1c0 2.954 1.806 4.984 4.424 4.984zm9.244 0c2.002 0 3.416-1.484 3.416-3.64 0-2.142-1.414-3.626-3.416-3.626s-3.402 1.484-3.402 3.626c0 2.156 1.4 3.64 3.402 3.64zm0-.644c-1.582 0-2.674-1.232-2.674-2.996 0-1.75 1.092-2.996 2.674-2.996C15.908 3.448 17 4.694 17 6.444c0 1.764-1.092 2.996-2.674 2.996zm8.608.56h.714V.2h-.714V10zm5.528.084c2.002 0 3.416-1.484 3.416-3.64 0-2.142-1.414-3.626-3.416-3.626S25.06 4.302 25.06 6.444c0 2.156 1.4 3.64 3.402 3.64zm0-.644c-1.582 0-2.674-1.232-2.674-2.996 0-1.75 1.092-2.996 2.674-2.996 1.582 0 2.674 1.246 2.674 2.996 0 1.764-1.092 2.996-2.674 2.996zm8.111-6.622c-1.302 0-2.142.672-2.548 1.596l-.112-1.512h-.616V10h.714V6.5c0-1.848.938-3.024 2.45-3.024 1.372 0 2.198.896 2.198 2.576V10h.714V6.024c0-2.24-1.19-3.206-2.8-3.206zm10.162 1.736c-.434-1.05-1.386-1.736-2.702-1.736-1.946 0-3.346 1.47-3.346 3.626 0 2.24 1.4 3.64 3.346 3.64 1.33 0 2.268-.7 2.716-1.806v1.26c0 1.89-.896 2.702-2.604 2.702-1.33 0-2.254-.602-2.478-1.68h-.742c.224 1.512 1.442 2.324 3.164 2.324 2.296 0 3.374-1.092 3.374-3.318V2.902h-.616l-.112 1.652zM44.09 9.44c-1.582 0-2.674-1.232-2.674-2.996s1.092-2.996 2.674-2.996c1.582 0 2.674 1.232 2.674 3.01 0 1.75-1.092 2.982-2.674 2.982zm11.963.644c2.002 0 3.416-1.484 3.416-3.64 0-2.142-1.414-3.626-3.416-3.626S52.65 4.302 52.65 6.444c0 2.156 1.4 3.64 3.402 3.64zm0-.644c-1.582 0-2.674-1.232-2.674-2.996 0-1.75 1.092-2.996 2.674-2.996 1.582 0 2.674 1.246 2.674 2.996 0 1.764-1.092 2.996-2.674 2.996zm7.733-6.538c-1.316 0-1.876.63-2.17 1.414l-.112-1.414h-.616V10h.714V6.402c0-1.442.378-2.814 2.044-2.814h.518v-.686h-.378zm4.887 4.914c.056 1.47 1.246 2.268 3.024 2.268 1.526 0 2.758-.77 2.758-2.03 0-1.498-1.316-1.792-2.842-2.002-1.106-.154-2.086-.28-2.086-1.274 0-.812.798-1.344 2.002-1.344 1.134 0 1.946.546 2.072 1.47h.728c-.126-1.386-1.26-2.086-2.8-2.086-1.582-.014-2.716.798-2.716 2.016 0 1.428 1.316 1.694 2.772 1.89 1.19.168 2.156.322 2.156 1.372 0 .84-.882 1.372-2.044 1.372-1.358 0-2.24-.63-2.296-1.652h-.728zm10.42-4.998c-1.33 0-2.155.742-2.561 1.764V.2h-.714V10h.714V6.5c0-1.848.938-3.024 2.45-3.024 1.358 0 2.198.896 2.198 2.576V10h.714V6.024c0-2.24-1.19-3.206-2.8-3.206zm7.421 7.266c2.002 0 3.416-1.484 3.416-3.64 0-2.142-1.414-3.626-3.416-3.626s-3.402 1.484-3.402 3.626c0 2.156 1.4 3.64 3.402 3.64zm0-.644c-1.582 0-2.674-1.232-2.674-2.996 0-1.75 1.092-2.996 2.674-2.996 1.582 0 2.674 1.246 2.674 2.996 0 1.764-1.092 2.996-2.674 2.996zm7.733-6.538c-1.316 0-1.876.63-2.17 1.414l-.112-1.414h-.616V10h.714V6.402c0-1.442.378-2.814 2.044-2.814h.518v-.686h-.378zm2.16 5.446c0 1.134.461 1.652 1.665 1.652h1.036v-.658h-.98c-.742 0-1.008-.28-1.008-1.008V3.56h1.918v-.658H97.12V.914h-.714v1.988h-1.344v.658h1.344v4.788zm10.697 1.736c2.002 0 3.416-1.484 3.416-3.64 0-2.142-1.414-3.626-3.416-3.626s-3.402 1.484-3.402 3.626c0 2.156 1.4 3.64 3.402 3.64zm0-.644c-1.582 0-2.674-1.232-2.674-2.996 0-1.75 1.092-2.996 2.674-2.996 1.582 0 2.674 1.246 2.674 2.996 0 1.764-1.092 2.996-2.674 2.996zm8.111-6.622c-1.302 0-2.142.672-2.548 1.596l-.112-1.512h-.616V10h.714V6.5c0-1.848.938-3.024 2.45-3.024 1.372 0 2.198.896 2.198 2.576V10h.714V6.024c0-2.24-1.19-3.206-2.8-3.206zM122.807.9h3.36V10h.756V.9h3.36V.2h-7.476v.7zm10.478 9.184c1.554 0 2.744-1.008 3.052-2.436h-.728c-.28 1.106-1.218 1.792-2.38 1.792-1.582 0-2.576-1.204-2.604-2.856v-.126h5.796c0-.098.014-.21.014-.294-.07-2.114-1.372-3.346-3.276-3.346-1.946 0-3.276 1.484-3.276 3.584 0 2.226 1.386 3.682 3.402 3.682zm-2.604-4.228c.112-1.442 1.19-2.408 2.492-2.408 1.386 0 2.38.854 2.492 2.408h-4.984zm6.829 1.96c.056 1.47 1.246 2.268 3.024 2.268 1.526 0 2.758-.77 2.758-2.03 0-1.498-1.316-1.792-2.842-2.002-1.106-.154-2.086-.28-2.086-1.274 0-.812.798-1.344 2.002-1.344 1.134 0 1.946.546 2.072 1.47h.728c-.126-1.386-1.26-2.086-2.8-2.086-1.582-.014-2.716.798-2.716 2.016 0 1.428 1.316 1.694 2.772 1.89 1.19.168 2.156.322 2.156 1.372 0 .84-.882 1.372-2.044 1.372-1.358 0-2.24-.63-2.296-1.652h-.728zM144.654 10h.714V.2h-.714V10zm8.637-.658c-.42 0-.63-.14-.63-.686V5.352c0-1.624-.994-2.534-2.772-2.534-1.624 0-2.702.784-2.884 2.072h.714c.182-.868.938-1.442 2.142-1.442 1.33 0 2.086.7 2.086 1.876v.616h-2.408c-1.82 0-2.8.784-2.8 2.114 0 1.26.994 2.03 2.506 2.03 1.442 0 2.296-.658 2.73-1.54v.252c-.028.84.322 1.204 1.162 1.204h.42v-.658h-.266zm-1.344-2.212c0 1.358-.966 2.338-2.646 2.338-1.134 0-1.834-.574-1.834-1.456 0-.938.7-1.456 2.016-1.456h2.464v.574zm2.859 1.89c-.378 0-.616.238-.616.546 0 .336.224.504.49.504.14 0 .28-.056.35-.168a.505.505 0 01.126.364c0 .532-.336 1.078-1.05 1.106v.42c.966-.042 1.568-.686 1.568-1.61 0-.644-.364-1.162-.868-1.162zM1.022 27l1.176-2.996h4.508L7.882 27h.812l-3.78-9.8h-.882L.238 27h.784zm3.43-8.96l2.03 5.264h-4.06l2.03-5.264zm8.746 1.778c-1.33 0-2.254.714-2.702 1.708l-.112-1.624h-.616V29.8h.714v-4.438c.406 1.036 1.372 1.722 2.716 1.722 1.946 0 3.346-1.484 3.346-3.64 0-2.226-1.4-3.626-3.346-3.626zm-.056 6.622c-1.582 0-2.674-1.232-2.674-3.01 0-1.736 1.092-2.982 2.674-2.982 1.582 0 2.674 1.246 2.674 2.996 0 1.764-1.092 2.996-2.674 2.996zm8.245-6.622c-1.33 0-2.254.714-2.702 1.708l-.112-1.624h-.616V29.8h.714v-4.438c.406 1.036 1.372 1.722 2.716 1.722 1.946 0 3.346-1.484 3.346-3.64 0-2.226-1.4-3.626-3.346-3.626zm-.056 6.622c-1.582 0-2.674-1.232-2.674-3.01 0-1.736 1.092-2.982 2.674-2.982 1.582 0 2.674 1.246 2.674 2.996 0 1.764-1.092 2.996-2.674 2.996zm4.816.56h.714v-9.8h-.714V27zm5.528.084c1.554 0 2.744-1.008 3.052-2.436H34c-.28 1.106-1.218 1.792-2.38 1.792-1.582 0-2.576-1.204-2.604-2.856v-.126h5.796c0-.098.014-.21.014-.294-.07-2.114-1.372-3.346-3.276-3.346-1.946 0-3.276 1.484-3.276 3.584 0 2.226 1.386 3.682 3.402 3.682zm-2.604-4.228c.112-1.442 1.19-2.408 2.492-2.408 1.386 0 2.38.854 2.492 2.408h-4.984zm18.597 3.5c-.392 0-.672-.084-.966-.448l-.7-.812 2.226-3.388h-.756l-1.904 2.87-2.184-2.562-.084-.098c1.876-.784 2.548-1.68 2.548-2.772 0-1.162-.91-2.03-2.142-2.03-1.456 0-2.534.966-2.534 2.254 0 .896.308 1.456 1.064 2.38-1.708.728-2.394 1.736-2.394 2.842 0 1.61 1.274 2.492 2.87 2.492 1.092 0 2.044-.49 2.842-1.428l.686.812c.336.406.798.532 1.33.532h.98v-.644h-.882zm-4.018-8.624c.868 0 1.47.602 1.47 1.428 0 .952-.658 1.638-2.198 2.31-.714-.854-1.008-1.344-1.008-2.114 0-.938.714-1.624 1.736-1.624zm-.924 8.708c-1.232 0-2.156-.7-2.156-1.904 0-1.022.574-1.652 2.03-2.352l.21.238 2.324 2.744c-.658.826-1.484 1.274-2.408 1.274zm11.57-1.092c0 1.134.462 1.652 1.666 1.652h1.036v-.658h-.98c-.742 0-1.008-.28-1.008-1.008V20.56h1.918v-.658H55.01v-1.988h-.714v1.988h-1.344v.658h1.344v4.788zm7.064-5.53c-1.33 0-2.156.742-2.562 1.764V17.2h-.714V27h.714v-3.5c0-1.848.938-3.024 2.45-3.024 1.358 0 2.198.896 2.198 2.576V27h.714v-3.976c0-2.24-1.19-3.206-2.8-3.206zm7.42 7.266c2.003 0 3.417-1.484 3.417-3.64 0-2.142-1.414-3.626-3.416-3.626s-3.402 1.484-3.402 3.626c0 2.156 1.4 3.64 3.402 3.64zm0-.644c-1.581 0-2.673-1.232-2.673-2.996 0-1.75 1.092-2.996 2.674-2.996 1.582 0 2.674 1.246 2.674 2.996 0 1.764-1.092 2.996-2.674 2.996zm9.987-3.052c0 1.862-.924 3.038-2.394 3.038-1.316 0-2.128-.896-2.128-2.59v-3.934h-.714v3.976c0 2.226 1.162 3.206 2.73 3.206 1.26 0 2.086-.672 2.492-1.582L78.851 27h.63v-7.098h-.714v3.486zm2.073 1.428c.056 1.47 1.246 2.268 3.024 2.268 1.526 0 2.758-.77 2.758-2.03 0-1.498-1.316-1.792-2.842-2.002-1.106-.154-2.086-.28-2.086-1.274 0-.812.798-1.344 2.002-1.344 1.134 0 1.946.546 2.072 1.47h.728c-.126-1.386-1.26-2.086-2.8-2.086-1.582-.014-2.716.798-2.716 2.016 0 1.428 1.316 1.694 2.772 1.89 1.19.168 2.156.322 2.156 1.372 0 .84-.882 1.372-2.044 1.372-1.358 0-2.24-.63-2.296-1.652h-.728zm13.388 1.526c-.42 0-.63-.14-.63-.686v-3.304c0-1.624-.993-2.534-2.772-2.534-1.623 0-2.701.784-2.883 2.072h.713c.182-.868.938-1.442 2.142-1.442 1.33 0 2.087.7 2.087 1.876v.616h-2.409c-1.82 0-2.8.784-2.8 2.114 0 1.26.995 2.03 2.507 2.03 1.441 0 2.295-.658 2.73-1.54v.252c-.028.84.322 1.204 1.162 1.204h.42v-.658h-.267zm-1.343-2.212c0 1.358-.967 2.338-2.647 2.338-1.133 0-1.834-.574-1.834-1.456 0-.938.7-1.456 2.017-1.456h2.463v.574zm5.84-4.312c-1.302 0-2.142.672-2.548 1.596l-.112-1.512h-.616V27h.714v-3.5c0-1.848.938-3.024 2.45-3.024 1.372 0 2.198.896 2.198 2.576V27h.714v-3.976c0-2.24-1.19-3.206-2.8-3.206zm10.067 1.68c-.434-1.008-1.386-1.68-2.716-1.68-1.946 0-3.346 1.484-3.346 3.626 0 2.24 1.4 3.64 3.346 3.64 1.33 0 2.254-.714 2.702-1.708L108.89 27h.616v-9.8h-.714v4.298zm-2.66 4.942c-1.582 0-2.674-1.232-2.674-2.996 0-1.75 1.092-2.996 2.674-2.996 1.582 0 2.674 1.246 2.674 3.01 0 1.75-1.092 2.982-2.674 2.982zm4.732-1.624c.056 1.47 1.246 2.268 3.024 2.268 1.526 0 2.758-.77 2.758-2.03 0-1.498-1.316-1.792-2.842-2.002-1.106-.154-2.086-.28-2.086-1.274 0-.812.798-1.344 2.002-1.344 1.134 0 1.946.546 2.072 1.47h.728c-.126-1.386-1.26-2.086-2.8-2.086-1.582-.014-2.716.798-2.716 2.016 0 1.428 1.316 1.694 2.772 1.89 1.19.168 2.156.322 2.156 1.372 0 .84-.882 1.372-2.044 1.372-1.358 0-2.24-.63-2.296-1.652h-.728zm14.053 2.268c2.002 0 3.416-1.484 3.416-3.64 0-2.142-1.414-3.626-3.416-3.626s-3.402 1.484-3.402 3.626c0 2.156 1.4 3.64 3.402 3.64zm0-.644c-1.582 0-2.674-1.232-2.674-2.996 0-1.75 1.092-2.996 2.674-2.996 1.582 0 2.674 1.246 2.674 2.996 0 1.764-1.092 2.996-2.674 2.996zm3.914-5.88h1.344V27h.714v-6.44h2.128v-.658h-2.128v-1.064c0-.7.266-.98.98-.98h1.162V17.2h-1.19c-1.19 0-1.666.518-1.666 1.652v1.05h-1.344v.658zM3.976 44.084c2.002 0 3.416-1.484 3.416-3.64 0-2.142-1.414-3.626-3.416-3.626S.574 38.302.574 40.444c0 2.156 1.4 3.64 3.402 3.64zm0-.644c-1.582 0-2.674-1.232-2.674-2.996 0-1.75 1.092-2.996 2.674-2.996 1.582 0 2.674 1.246 2.674 2.996 0 1.764-1.092 2.996-2.674 2.996zm5.257-1.092c0 1.134.462 1.652 1.666 1.652h1.036v-.658h-.98c-.742 0-1.008-.28-1.008-1.008V37.56h1.918v-.658H9.947v-1.988h-.714v1.988H7.89v.658h1.344v4.788zm7.065-5.53c-1.33 0-2.156.742-2.562 1.764V34.2h-.714V44h.714v-3.5c0-1.848.938-3.024 2.45-3.024 1.358 0 2.198.896 2.198 2.576V44h.714v-3.976c0-2.24-1.19-3.206-2.8-3.206zm7.42 7.266c1.554 0 2.744-1.008 3.052-2.436h-.728c-.28 1.106-1.218 1.792-2.38 1.792-1.582 0-2.576-1.204-2.604-2.856v-.126h5.796c0-.098.014-.21.014-.294-.07-2.114-1.372-3.346-3.276-3.346-1.946 0-3.276 1.484-3.276 3.584 0 2.226 1.386 3.682 3.402 3.682zm-2.604-4.228c.112-1.442 1.19-2.408 2.492-2.408 1.386 0 2.38.854 2.492 2.408h-4.984zm10.063-2.954c-1.316 0-1.875.63-2.17 1.414l-.112-1.414h-.616V44h.715v-3.598c0-1.442.378-2.814 2.044-2.814h.517v-.686h-.378zm4.888 4.914c.056 1.47 1.246 2.268 3.024 2.268 1.526 0 2.758-.77 2.758-2.03 0-1.498-1.316-1.792-2.842-2.002-1.106-.154-2.086-.28-2.086-1.274 0-.812.798-1.344 2.002-1.344 1.134 0 1.946.546 2.072 1.47h.728c-.126-1.386-1.26-2.086-2.8-2.086-1.582-.014-2.716.798-2.716 2.016 0 1.428 1.316 1.694 2.772 1.89 1.19.168 2.156.322 2.156 1.372 0 .84-.882 1.372-2.044 1.372-1.358 0-2.24-.63-2.296-1.652h-.728zm10.42-4.998c-1.33 0-2.156.742-2.562 1.764V34.2h-.714V44h.714v-3.5c0-1.848.938-3.024 2.45-3.024 1.358 0 2.198.896 2.198 2.576V44h.714v-3.976c0-2.24-1.19-3.206-2.8-3.206zm10.638 6.524c-.42 0-.63-.14-.63-.686v-3.304c0-1.624-.994-2.534-2.772-2.534-1.624 0-2.702.784-2.884 2.072h.714c.182-.868.938-1.442 2.142-1.442 1.33 0 2.086.7 2.086 1.876v.616h-2.408c-1.82 0-2.8.784-2.8 2.114 0 1.26.994 2.03 2.506 2.03 1.442 0 2.296-.658 2.73-1.54v.252c-.028.84.322 1.204 1.162 1.204h.42v-.658h-.266zM55.78 41.13c0 1.358-.966 2.338-2.646 2.338-1.134 0-1.834-.574-1.834-1.456 0-.938.7-1.456 2.016-1.456h2.464v.574zm5.463-4.228c-1.316 0-1.876.63-2.17 1.414l-.112-1.414h-.616V44h.714v-3.598c0-1.442.378-2.814 2.044-2.814h.518v-.686h-.378zm4.066 7.182c1.554 0 2.744-1.008 3.052-2.436h-.728c-.28 1.106-1.218 1.792-2.38 1.792-1.582 0-2.576-1.204-2.604-2.856v-.126h5.796c0-.098.014-.21.014-.294-.07-2.114-1.372-3.346-3.276-3.346-1.946 0-3.276 1.484-3.276 3.584 0 2.226 1.386 3.682 3.402 3.682zm-2.604-4.228c.112-1.442 1.19-2.408 2.492-2.408 1.386 0 2.38.854 2.492 2.408h-4.984zm6.83 1.96c.056 1.47 1.246 2.268 3.024 2.268 1.526 0 2.758-.77 2.758-2.03 0-1.498-1.316-1.792-2.842-2.002-1.106-.154-2.086-.28-2.086-1.274 0-.812.798-1.344 2.002-1.344 1.134 0 1.946.546 2.072 1.47h.728c-.126-1.386-1.26-2.086-2.8-2.086-1.582-.014-2.716.798-2.716 2.016 0 1.428 1.316 1.694 2.772 1.89 1.19.168 2.156.322 2.156 1.372 0 .84-.882 1.372-2.044 1.372-1.358 0-2.24-.63-2.296-1.652h-.728z" fill="#000"/></svg>