<svg width="249" height="51" viewBox="0 0 249 51" fill="none" xmlns="http://www.w3.org/2000/svg"><path d="M7.852 19c5.694 0 9.282-3.718 9.282-9.126C17.134 4.466 13.546.8 7.852.8H1.664V19h6.188zM4.654 3.4h3.198c4.004 0 6.214 2.574 6.214 6.474 0 3.9-2.21 6.526-6.214 6.526H4.654v-13zm16.258.416c.962 0 1.716-.702 1.716-1.69s-.755-1.69-1.716-1.69c-.962 0-1.716.702-1.716 1.69s.753 1.69 1.715 1.69zM19.482 19h2.808V5.688h-2.808V19zm4.988-4.394c.078 2.886 2.522 4.55 6.084 4.55 3.224 0 5.642-1.612 5.642-4.16 0-2.964-2.47-3.588-5.512-3.952-1.924-.208-3.198-.364-3.198-1.612 0-1.066 1.092-1.742 2.756-1.742 1.664 0 2.808.858 2.964 2.08h2.756c-.182-2.73-2.496-4.238-5.772-4.238-3.198-.026-5.46 1.612-5.46 4.134 0 2.756 2.392 3.406 5.434 3.77 2.054.26 3.276.364 3.276 1.794 0 1.066-1.144 1.742-2.886 1.742-2.028 0-3.224-.988-3.328-2.366H24.47zm20.012 4.55c3.406 0 5.668-1.898 6.188-4.914h-2.964c-.338 1.534-1.482 2.522-3.198 2.522-2.262 0-3.744-1.794-3.744-4.394 0-2.626 1.482-4.446 3.744-4.446 1.742 0 2.86.962 3.224 2.522h2.938c-.546-3.016-2.678-4.914-6.11-4.914-4.03 0-6.682 2.73-6.682 6.838 0 4.16 2.574 6.786 6.604 6.786zm14.63 0c4.055 0 6.785-2.73 6.785-6.812 0-4.056-2.73-6.812-6.786-6.812-4.056 0-6.786 2.756-6.786 6.812 0 4.082 2.73 6.812 6.786 6.812zm0-2.392c-2.367 0-3.9-1.846-3.9-4.42s1.533-4.42 3.9-4.42c2.365 0 3.925 1.846 3.925 4.42s-1.56 4.42-3.926 4.42zM71.133 19h3.432L79.48 5.688h-2.964l-3.614 10.296-3.666-10.296H66.22L71.134 19zm15.476.156c3.302 0 5.538-2.002 6.006-4.628h-2.808c-.39 1.482-1.638 2.34-3.354 2.34-2.21 0-3.64-1.482-3.718-3.744v-.182h10.036c.052-.364.078-.728.078-1.066-.078-3.9-2.652-6.344-6.5-6.344-3.926 0-6.552 2.73-6.552 6.838 0 4.082 2.626 6.786 6.812 6.786zm-3.77-8.268c.208-1.898 1.742-3.094 3.536-3.094 1.95 0 3.328 1.118 3.562 3.094H82.84zm19.014-5.2c-2.184 0-3.25.884-3.926 2.002l-.312-2.002H95.12V19h2.808v-6.682c0-2.054.806-4.004 3.302-4.004h1.248V5.688h-.624zm9.97 9.698c0 2.418 1.092 3.614 3.64 3.614h2.6v-2.47h-1.976c-1.066 0-1.43-.39-1.43-1.43V8.158h3.25v-2.47h-3.25V1.97h-2.834v3.718h-2.314v2.47h2.314v7.228zm15.021-9.854c-2.08 0-3.354.936-4.186 2.08V.8h-2.808V19h2.808v-6.734c0-2.678 1.352-4.316 3.562-4.316 2.08 0 3.198 1.352 3.198 3.874V19h2.808v-7.41c0-4.446-2.418-6.058-5.382-6.058zm14.152 13.624c3.302 0 5.538-2.002 6.006-4.628h-2.808c-.39 1.482-1.638 2.34-3.354 2.34-2.21 0-3.64-1.482-3.718-3.744v-.182h10.036c.052-.364.078-.728.078-1.066-.078-3.9-2.652-6.344-6.5-6.344-3.926 0-6.552 2.73-6.552 6.838 0 4.082 2.626 6.786 6.812 6.786zm-3.77-8.268c.208-1.898 1.742-3.094 3.536-3.094 1.95 0 3.328 1.118 3.562 3.094h-7.098zm25.77-4.16c-1.664 0-3.042.442-4.056 1.534l.312-4.94h8.736V.8h-11.362l-.572 10.478 2.782.052c.728-1.872 2.574-2.236 3.666-2.236 2.236 0 3.666 1.586 3.666 3.796 0 2.522-1.794 3.822-3.666 3.822-2.34 0-3.718-1.56-3.926-3.458h-2.86c.182 3.25 2.626 5.876 6.76 5.876 3.562 0 6.604-2.158 6.604-6.24 0-3.666-2.47-6.162-6.084-6.162zM178.129 19h2.99v-6.604h4.186c3.796 0 6.292-2.288 6.292-5.798 0-3.536-2.496-5.798-6.292-5.798h-7.176V19zm6.942-15.6c2.132 0 3.484 1.222 3.484 3.198 0 1.95-1.378 3.198-3.51 3.198h-3.926V3.4h3.952zm9.969.416c.962 0 1.716-.702 1.716-1.69s-.754-1.69-1.716-1.69-1.716.702-1.716 1.69.754 1.69 1.716 1.69zM193.61 19h2.808V5.688h-2.808V19zm5.561 0h2.808V.8h-2.808V19zm5.561 0h2.808V.8h-2.808V19zm17.728-2.444c-.572 0-.858-.182-.858-.858v-5.33c0-3.146-2.028-4.836-5.564-4.836-3.354 0-5.59 1.612-5.876 4.212h2.756c.208-1.17 1.326-1.95 2.99-1.95 1.846 0 2.912.91 2.912 2.392v.806h-3.354c-3.718 0-5.694 1.534-5.694 4.264 0 2.47 2.028 3.9 4.94 3.9 2.158 0 3.51-.936 4.394-2.288 0 1.326.624 2.132 2.444 2.132h1.482v-2.444h-.572zm-3.64-3.016c-.026 2.054-1.378 3.432-3.718 3.432-1.534 0-2.47-.78-2.47-1.898 0-1.352.962-2.002 2.704-2.002h3.484v.468zm12.476-7.852c-2.184 0-3.25.884-3.926 2.002l-.312-2.002h-2.496V19h2.808v-6.682c0-2.054.806-4.004 3.302-4.004h1.248V5.688h-.624zm1.555 8.918c.078 2.886 2.522 4.55 6.084 4.55 3.224 0 5.642-1.612 5.642-4.16 0-2.964-2.47-3.588-5.512-3.952-1.924-.208-3.198-.364-3.198-1.612 0-1.066 1.092-1.742 2.756-1.742 1.664 0 2.808.858 2.964 2.08h2.756c-.182-2.73-2.496-4.238-5.772-4.238-3.198-.026-5.46 1.612-5.46 4.134 0 2.756 2.392 3.406 5.434 3.77 2.054.26 3.276.364 3.276 1.794 0 1.066-1.144 1.742-2.886 1.742-2.028 0-3.224-.988-3.328-2.366h-2.756zM7.67 50.156c4.056 0 6.786-2.73 6.786-6.812 0-4.056-2.73-6.812-6.786-6.812-4.056 0-6.786 2.756-6.786 6.812 0 4.082 2.73 6.812 6.786 6.812zm0-2.392c-2.366 0-3.9-1.846-3.9-4.42s1.534-4.42 3.9-4.42c2.366 0 3.926 1.846 3.926 4.42s-1.56 4.42-3.926 4.42zm7.59-8.606h2.314V50h2.834V39.158h3.562v-2.47h-3.614V35.57c0-.91.39-1.3 1.3-1.3h2.314V31.8h-2.678c-2.574 0-3.718 1.248-3.718 3.64v1.248H15.26v2.47zM32.361 50h2.99v-6.604h4.186c3.796 0 6.292-2.288 6.292-5.798 0-3.536-2.496-5.798-6.292-5.798h-7.176V50zm6.942-15.6c2.132 0 3.484 1.222 3.484 3.198 0 1.95-1.378 3.198-3.51 3.198h-3.926V34.4h3.952zm14.223 15.756c3.302 0 5.538-2.002 6.006-4.628h-2.808c-.39 1.482-1.638 2.34-3.354 2.34-2.21 0-3.64-1.482-3.718-3.744v-.182h10.036c.052-.364.078-.728.078-1.066-.078-3.9-2.652-6.344-6.5-6.344-3.926 0-6.552 2.73-6.552 6.838 0 4.082 2.626 6.786 6.812 6.786zm-3.77-8.268c.208-1.898 1.742-3.094 3.536-3.094 1.95 0 3.328 1.118 3.562 3.094h-7.098zm24.448 5.668c-.572 0-.858-.182-.858-.858v-5.33c0-3.146-2.028-4.836-5.564-4.836-3.354 0-5.59 1.612-5.876 4.212h2.756c.208-1.17 1.326-1.95 2.99-1.95 1.846 0 2.912.91 2.912 2.392v.806H67.21c-3.718 0-5.694 1.534-5.694 4.264 0 2.47 2.028 3.9 4.94 3.9 2.158 0 3.51-.936 4.394-2.288 0 1.326.624 2.132 2.444 2.132h1.482v-2.444h-.572zm-3.64-3.016c-.026 2.054-1.378 3.432-3.718 3.432-1.534 0-2.47-.78-2.47-1.898 0-1.352.962-2.002 2.704-2.002h3.484v.468zM76.306 50h2.808v-3.38l2.392-2.496L85.432 50h3.328l-5.33-7.93 5.018-5.382h-3.302l-6.032 6.448V31.8h-2.808V50zm20.75 0h2.991v-6.604h4.186c3.796 0 6.292-2.288 6.292-5.798 0-3.536-2.496-5.798-6.292-5.798h-7.176V50zM104 34.4c2.132 0 3.484 1.222 3.484 3.198 0 1.95-1.378 3.198-3.51 3.198h-3.926V34.4h3.952zm14.222 15.756c3.302 0 5.538-2.002 6.006-4.628h-2.808c-.39 1.482-1.638 2.34-3.354 2.34-2.21 0-3.64-1.482-3.718-3.744v-.182h10.036c.052-.364.078-.728.078-1.066-.078-3.9-2.652-6.344-6.5-6.344-3.926 0-6.552 2.73-6.552 6.838 0 4.082 2.626 6.786 6.812 6.786zm-3.77-8.268c.208-1.898 1.742-3.094 3.536-3.094 1.95 0 3.328 1.118 3.562 3.094h-7.098zm19.015-5.2c-2.184 0-3.25.884-3.926 2.002l-.312-2.002h-2.496V50h2.808v-6.682c0-2.054.806-4.004 3.302-4.004h1.248v-2.626h-.624zm1.562 2.47h2.314V50h2.834V39.158h3.562v-2.47h-3.614V35.57c0-.91.39-1.3 1.3-1.3h2.314V31.8h-2.678c-2.574 0-3.718 1.248-3.718 3.64v1.248h-2.314v2.47zm15.896 10.998c4.056 0 6.786-2.73 6.786-6.812 0-4.056-2.73-6.812-6.786-6.812-4.056 0-6.786 2.756-6.786 6.812 0 4.082 2.73 6.812 6.786 6.812zm0-2.392c-2.366 0-3.9-1.846-3.9-4.42s1.534-4.42 3.9-4.42c2.366 0 3.926 1.846 3.926 4.42s-1.56 4.42-3.926 4.42zm15.778-11.076c-2.184 0-3.25.884-3.926 2.002l-.312-2.002h-2.496V50h2.808v-6.682c0-2.054.806-4.004 3.302-4.004h1.248v-2.626h-.624zm17.67-.156c-2.184 0-3.692.962-4.55 2.418-.806-1.716-2.366-2.418-4.108-2.418-2.002.026-3.146.91-3.9 1.898l-.312-1.742h-2.444V50h2.808v-7.124c0-2.366 1.196-3.926 3.12-3.926 1.846 0 2.808 1.222 2.808 3.562V50h2.834v-7.202c0-2.392 1.222-3.848 3.146-3.848 1.82 0 2.782 1.222 2.782 3.562V50h2.808v-7.67c0-4.212-2.236-5.798-4.992-5.798zm19.705 11.024c-.572 0-.858-.182-.858-.858v-5.33c0-3.146-2.028-4.836-5.564-4.836-3.354 0-5.59 1.612-5.876 4.212h2.756c.208-1.17 1.326-1.95 2.99-1.95 1.846 0 2.912.91 2.912 2.392v.806h-3.354c-3.718 0-5.694 1.534-5.694 4.264 0 2.47 2.028 3.9 4.94 3.9 2.158 0 3.51-.936 4.394-2.288 0 1.326.624 2.132 2.444 2.132h1.482v-2.444h-.572zm-3.64-3.016c-.026 2.054-1.378 3.432-3.718 3.432-1.534 0-2.47-.78-2.47-1.898 0-1.352.962-2.002 2.704-2.002h3.484v.468zm12.762-8.008c-2.158 0-3.432.858-4.264 1.898l-.312-1.742h-2.444V50h2.808v-6.708c0-2.704 1.326-4.342 3.562-4.342 2.106 0 3.172 1.352 3.172 3.874V50h2.834v-7.41c0-4.446-2.418-6.058-5.356-6.058zm13.918 13.624c3.406 0 5.668-1.898 6.188-4.914h-2.964c-.338 1.534-1.482 2.522-3.198 2.522-2.262 0-3.744-1.794-3.744-4.394 0-2.626 1.482-4.446 3.744-4.446 1.742 0 2.86.962 3.224 2.522h2.938c-.546-3.016-2.678-4.914-6.11-4.914-4.03 0-6.682 2.73-6.682 6.838 0 4.16 2.574 6.786 6.604 6.786zm14.655 0c3.302 0 5.538-2.002 6.006-4.628h-2.808c-.39 1.482-1.638 2.34-3.354 2.34-2.21 0-3.64-1.482-3.718-3.744v-.182h10.036c.052-.364.078-.728.078-1.066-.078-3.9-2.652-6.344-6.5-6.344-3.926 0-6.552 2.73-6.552 6.838 0 4.082 2.626 6.786 6.812 6.786zm-3.77-8.268c.208-1.898 1.742-3.094 3.536-3.094 1.95 0 3.328 1.118 3.562 3.094h-7.098z" fill="#000"/></svg>