<svg width="259" height="41" viewBox="0 0 259 41" fill="none" xmlns="http://www.w3.org/2000/svg"><path d="M3.363 13.5V4.076L9.842 13.5h1.995V.2H9.69v9.424L3.211.2H1.216v13.3h2.147zm15.305.114c2.413 0 4.047-1.463 4.389-3.382h-2.052c-.285 1.083-1.197 1.71-2.451 1.71-1.615 0-2.66-1.083-2.717-2.736v-.133h7.334c.038-.266.057-.532.057-.779-.057-2.85-1.938-4.636-4.75-4.636-2.87 0-4.788 1.995-4.788 4.997 0 2.983 1.919 4.959 4.978 4.959zm-2.755-6.042c.152-1.387 1.273-2.261 2.584-2.261 1.425 0 2.432.817 2.603 2.261h-5.187zM26.795 13.5h2.223l2.128-6.612 2.052 6.612h2.204l3.23-9.728h-2.09l-2.3 7.448-2.127-7.448h-1.881L28.01 11.22l-2.223-7.448h-2.166l3.173 9.728zm17.987 0h2.185V8.674h2.926l2.565 4.826h2.432l-2.812-5.301c1.558-.551 2.584-1.976 2.584-3.762C54.662 1.853 52.8.2 50.026.2h-5.244v13.3zm5.073-11.4c1.558 0 2.565.912 2.565 2.337 0 1.425-1.007 2.337-2.565 2.337h-2.888V2.1h2.888zm15.114 9.614c-.418 0-.627-.133-.627-.627V7.192c0-2.299-1.482-3.534-4.066-3.534-2.45 0-4.085 1.178-4.294 3.078h2.014c.152-.855.97-1.425 2.185-1.425 1.35 0 2.128.665 2.128 1.748v.589h-2.45c-2.718 0-4.162 1.121-4.162 3.116 0 1.805 1.482 2.85 3.61 2.85 1.577 0 2.565-.684 3.211-1.672 0 .969.456 1.558 1.786 1.558h1.083v-1.786h-.418zM62.31 9.51c-.019 1.501-1.007 2.508-2.717 2.508-1.12 0-1.805-.57-1.805-1.387 0-.988.703-1.463 1.976-1.463h2.546v.342zm6.141 3.99h2.223l2.128-6.612 2.052 6.612h2.204l3.23-9.728h-2.09l-2.299 7.448-2.128-7.448h-1.88l-2.224 7.448-2.223-7.448h-2.166L68.45 13.5zm17.988 0h2.185V7.876h5.206V5.995h-5.206V2.138h6.308V.2h-8.493v13.3zm9.199 0h2.47l3.268-5.111 3.249 5.111h2.603L102.8 6.603 106.961.2h-2.47l-3.04 4.731L98.468.2h-2.584l4.161 6.498-4.408 6.802zm26.574-1.786c-.418 0-.627-.133-.627-.627V7.192c0-2.299-1.482-3.534-4.066-3.534-2.451 0-4.085 1.178-4.294 3.078h2.014c.152-.855.969-1.425 2.185-1.425 1.349 0 2.128.665 2.128 1.748v.589H117.1c-2.717 0-4.161 1.121-4.161 3.116 0 1.805 1.482 2.85 3.61 2.85 1.577 0 2.565-.684 3.211-1.672 0 .969.456 1.558 1.786 1.558h1.083v-1.786h-.418zm-2.66-2.204c-.019 1.501-1.007 2.508-2.717 2.508-1.121 0-1.805-.57-1.805-1.387 0-.988.703-1.463 1.976-1.463h2.546v.342zm8.586 4.104c2.489 0 4.142-1.387 4.522-3.591h-2.166c-.247 1.121-1.083 1.843-2.337 1.843-1.653 0-2.736-1.311-2.736-3.211 0-1.919 1.083-3.249 2.736-3.249 1.273 0 2.09.703 2.356 1.843h2.147c-.399-2.204-1.957-3.591-4.465-3.591-2.945 0-4.883 1.995-4.883 4.997 0 3.04 1.881 4.959 4.826 4.959zm10.558 0c2.489 0 4.142-1.387 4.522-3.591h-2.166c-.247 1.121-1.083 1.843-2.337 1.843-1.653 0-2.736-1.311-2.736-3.211 0-1.919 1.083-3.249 2.736-3.249 1.273 0 2.09.703 2.356 1.843h2.147c-.399-2.204-1.957-3.591-4.465-3.591-2.945 0-4.883 1.995-4.883 4.997 0 3.04 1.881 4.959 4.826 4.959zm10.69 0c2.964 0 4.959-1.995 4.959-4.978 0-2.964-1.995-4.978-4.959-4.978-2.964 0-4.959 2.014-4.959 4.978 0 2.983 1.995 4.978 4.959 4.978zm0-1.748c-1.729 0-2.85-1.349-2.85-3.23s1.121-3.23 2.85-3.23 2.869 1.349 2.869 3.23-1.14 3.23-2.869 3.23zm13.278-3.23c0 2.014-.95 3.192-2.508 3.192-1.501 0-2.261-.969-2.261-2.869V3.772h-2.052v5.415c0 3.325 1.767 4.427 3.838 4.427 1.501 0 2.394-.608 3.002-1.349l.228 1.235h1.805V3.772h-2.052v4.864zm9.204-4.978c-1.577 0-2.508.627-3.116 1.387l-.228-1.273h-1.786V13.5h2.052V8.598c0-1.976.969-3.173 2.603-3.173 1.539 0 2.318.988 2.318 2.831V13.5h2.071V8.085c0-3.249-1.767-4.427-3.914-4.427zm6.484 7.201c0 1.767.798 2.641 2.66 2.641h1.9v-1.805h-1.444c-.779 0-1.045-.285-1.045-1.045V5.577h2.375V3.772h-2.375V1.055h-2.071v2.717h-1.691v1.805h1.691v5.282zm5.786 1.463c0 .76.551 1.292 1.311 1.292.76 0 1.33-.532 1.33-1.292s-.57-1.292-1.33-1.292c-.76 0-1.311.532-1.311 1.292zM.684 25.119h7.239l-7.448 9.88V36.5h10.64v-1.919H3.458l7.448-9.88V23.2H.684v1.919zm16.054 11.495c2.413 0 4.047-1.463 4.39-3.382h-2.053c-.285 1.083-1.197 1.71-2.45 1.71-1.616 0-2.66-1.083-2.718-2.736v-.133h7.334c.038-.266.057-.532.057-.779-.057-2.85-1.938-4.636-4.75-4.636-2.869 0-4.788 1.995-4.788 4.997 0 2.983 1.92 4.959 4.978 4.959zm-2.755-6.042c.152-1.387 1.273-2.261 2.584-2.261 1.425 0 2.432.817 2.603 2.261h-5.187zm13.895-3.8c-1.596 0-2.375.646-2.869 1.463l-.228-1.463h-1.824V36.5h2.052v-4.883c0-1.501.59-2.926 2.413-2.926h.912v-1.919h-.456zm5.856 9.842c2.964 0 4.959-1.995 4.959-4.978 0-2.964-1.995-4.978-4.96-4.978-2.963 0-4.958 2.014-4.958 4.978 0 2.983 1.995 4.978 4.959 4.978zm0-1.748c-1.73 0-2.85-1.349-2.85-3.23s1.12-3.23 2.85-3.23c1.729 0 2.869 1.349 2.869 3.23s-1.14 3.23-2.87 3.23zm16.676-8.208c-1.52 0-2.527.703-3.173 1.558l-.247-1.444h-1.786V40.3h2.052v-5.168c.608.874 1.653 1.482 3.154 1.482 2.66 0 4.598-1.976 4.598-4.978 0-3.116-1.938-4.978-4.598-4.978zm-.342 8.227c-1.71 0-2.83-1.349-2.83-3.287 0-1.881 1.12-3.192 2.83-3.192s2.85 1.311 2.85 3.23c0 1.9-1.14 3.249-2.85 3.249zm7.63-9.481c.703 0 1.254-.513 1.254-1.235 0-.722-.551-1.235-1.255-1.235-.703 0-1.254.513-1.254 1.235 0 .722.552 1.235 1.255 1.235zM56.652 36.5h2.052v-9.728h-2.052V36.5zm9.269-9.842c-1.52 0-2.527.703-3.173 1.558l-.247-1.444h-1.786V40.3h2.052v-5.168c.608.874 1.653 1.482 3.154 1.482 2.66 0 4.598-1.976 4.598-4.978 0-3.116-1.938-4.978-4.598-4.978zm-.342 8.227c-1.71 0-2.831-1.349-2.831-3.287 0-1.881 1.121-3.192 2.831-3.192s2.85 1.311 2.85 3.23c0 1.9-1.14 3.249-2.85 3.249zm6.11-1.596c.058 2.109 1.844 3.325 4.447 3.325 2.356 0 4.123-1.178 4.123-3.04 0-2.166-1.805-2.622-4.028-2.888-1.406-.152-2.337-.266-2.337-1.178 0-.779.798-1.273 2.014-1.273 1.216 0 2.052.627 2.166 1.52h2.014c-.133-1.995-1.824-3.097-4.218-3.097-2.337-.019-3.99 1.178-3.99 3.021 0 2.014 1.748 2.489 3.97 2.755 1.502.19 2.395.266 2.395 1.311 0 .779-.836 1.273-2.11 1.273-1.481 0-2.355-.722-2.431-1.729H71.69zm9.84 2.033c0 .76.55 1.292 1.31 1.292s1.33-.532 1.33-1.292-.57-1.292-1.33-1.292c-.76 0-1.31.532-1.31 1.292zm8.977-10.203h7.24l-7.449 9.88V36.5h10.64v-1.919h-7.657l7.448-9.88V23.2H90.507v1.919zm16.055 11.495c2.413 0 4.047-1.463 4.389-3.382h-2.052c-.285 1.083-1.197 1.71-2.451 1.71-1.615 0-2.66-1.083-2.718-2.736v-.133h7.335c.038-.266.057-.532.057-.779-.057-2.85-1.938-4.636-4.75-4.636-2.869 0-4.788 1.995-4.788 4.997 0 2.983 1.919 4.959 4.978 4.959zm-2.755-6.042c.152-1.387 1.273-2.261 2.584-2.261 1.425 0 2.432.817 2.603 2.261h-5.187zm13.894-3.8c-1.596 0-2.375.646-2.869 1.463l-.228-1.463h-1.824V36.5h2.052v-4.883c0-1.501.589-2.926 2.413-2.926h.912v-1.919h-.456zm5.856 9.842c2.964 0 4.959-1.995 4.959-4.978 0-2.964-1.995-4.978-4.959-4.978-2.964 0-4.959 2.014-4.959 4.978 0 2.983 1.995 4.978 4.959 4.978zm0-1.748c-1.729 0-2.85-1.349-2.85-3.23s1.121-3.23 2.85-3.23 2.869 1.349 2.869 3.23-1.14 3.23-2.869 3.23zm15.936 1.748c2.489 0 4.142-1.387 4.522-3.591h-2.166c-.247 1.121-1.083 1.843-2.337 1.843-1.653 0-2.736-1.311-2.736-3.211 0-1.919 1.083-3.249 2.736-3.249 1.273 0 2.09.703 2.356 1.843h2.147c-.399-2.204-1.957-3.591-4.465-3.591-2.945 0-4.883 1.995-4.883 4.997 0 3.04 1.881 4.959 4.826 4.959zm10.69 0c2.964 0 4.959-1.995 4.959-4.978 0-2.964-1.995-4.978-4.959-4.978-2.964 0-4.959 2.014-4.959 4.978 0 2.983 1.995 4.978 4.959 4.978zm0-1.748c-1.729 0-2.85-1.349-2.85-3.23s1.121-3.23 2.85-3.23 2.869 1.349 2.869 3.23-1.14 3.23-2.869 3.23zm17.8-8.208c-1.596 0-2.698.703-3.325 1.767-.589-1.254-1.729-1.767-3.002-1.767-1.463.019-2.299.665-2.85 1.387l-.228-1.273h-1.786V36.5h2.052v-5.206c0-1.729.874-2.869 2.28-2.869 1.349 0 2.052.893 2.052 2.603V36.5h2.071v-5.263c0-1.748.893-2.812 2.299-2.812 1.33 0 2.033.893 2.033 2.603V36.5h2.052v-5.605c0-3.078-1.634-4.237-3.648-4.237zm16.699 0c-1.596 0-2.698.703-3.325 1.767-.589-1.254-1.729-1.767-3.002-1.767-1.463.019-2.299.665-2.85 1.387l-.228-1.273h-1.786V36.5h2.052v-5.206c0-1.729.874-2.869 2.28-2.869 1.349 0 2.052.893 2.052 2.603V36.5h2.071v-5.263c0-1.748.893-2.812 2.299-2.812 1.33 0 2.033.893 2.033 2.603V36.5h2.052v-5.605c0-3.078-1.634-4.237-3.648-4.237zm6.554-1.254c.703 0 1.254-.513 1.254-1.235 0-.722-.551-1.235-1.254-1.235s-1.254.513-1.254 1.235c0 .722.551 1.235 1.254 1.235zM190.191 36.5h2.052v-9.728h-2.052V36.5zm3.645-3.211c.057 2.109 1.843 3.325 4.446 3.325 2.356 0 4.123-1.178 4.123-3.04 0-2.166-1.805-2.622-4.028-2.888-1.406-.152-2.337-.266-2.337-1.178 0-.779.798-1.273 2.014-1.273 1.216 0 2.052.627 2.166 1.52h2.014c-.133-1.995-1.824-3.097-4.218-3.097-2.337-.019-3.99 1.178-3.99 3.021 0 2.014 1.748 2.489 3.971 2.755 1.501.19 2.394.266 2.394 1.311 0 .779-.836 1.273-2.109 1.273-1.482 0-2.356-.722-2.432-1.729h-2.014zm9.556 0c.057 2.109 1.843 3.325 4.446 3.325 2.356 0 4.123-1.178 4.123-3.04 0-2.166-1.805-2.622-4.028-2.888-1.406-.152-2.337-.266-2.337-1.178 0-.779.798-1.273 2.014-1.273 1.216 0 2.052.627 2.166 1.52h2.014c-.133-1.995-1.824-3.097-4.218-3.097-2.337-.019-3.99 1.178-3.99 3.021 0 2.014 1.748 2.489 3.971 2.755 1.501.19 2.394.266 2.394 1.311 0 .779-.836 1.273-2.109 1.273-1.482 0-2.356-.722-2.432-1.729h-2.014zm11.204-7.885c.703 0 1.254-.513 1.254-1.235 0-.722-.551-1.235-1.254-1.235s-1.254.513-1.254 1.235c0 .722.551 1.235 1.254 1.235zM213.551 36.5h2.052v-9.728h-2.052V36.5zm8.661.114c2.964 0 4.959-1.995 4.959-4.978 0-2.964-1.995-4.978-4.959-4.978-2.964 0-4.959 2.014-4.959 4.978 0 2.983 1.995 4.978 4.959 4.978zm0-1.748c-1.729 0-2.85-1.349-2.85-3.23s1.121-3.23 2.85-3.23 2.869 1.349 2.869 3.23-1.14 3.23-2.869 3.23zm11.739-8.208c-1.577 0-2.508.627-3.116 1.387l-.228-1.273h-1.786V36.5h2.052v-4.902c0-1.976.969-3.173 2.603-3.173 1.539 0 2.318.988 2.318 2.831V36.5h2.071v-5.415c0-3.249-1.767-4.427-3.914-4.427zm5.363 6.631c.057 2.109 1.843 3.325 4.446 3.325 2.356 0 4.123-1.178 4.123-3.04 0-2.166-1.805-2.622-4.028-2.888-1.406-.152-2.337-.266-2.337-1.178 0-.779.798-1.273 2.014-1.273 1.216 0 2.052.627 2.166 1.52h2.014c-.133-1.995-1.824-3.097-4.218-3.097-2.337-.019-3.99 1.178-3.99 3.021 0 2.014 1.748 2.489 3.971 2.755 1.501.19 2.394.266 2.394 1.311 0 .779-.836 1.273-2.109 1.273-1.482 0-2.356-.722-2.432-1.729h-2.014zm9.839 2.033c0 .76.551 1.292 1.311 1.292.76 0 1.33-.532 1.33-1.292s-.57-1.292-1.33-1.292c-.76 0-1.311.532-1.311 1.292zm8.416-10.811l-2.09 1.007.057-2.337h-1.406l.057 2.318-2.071-.988-.57 1.33 2.242.836-1.558 1.767 1.083.95 1.501-1.976 1.52 1.995 1.102-.95-1.558-1.767 2.261-.836-.57-1.349z" fill="#000"/></svg>