<svg width="533" height="33" viewBox="0 0 533 33" fill="none" xmlns="http://www.w3.org/2000/svg"><path d="M.68 4.668h7.344V25h3.91V4.668h7.344V1.2H.68v3.468zm28.256 2.924c-2.856 0-4.25 1.156-5.134 2.618l-.408-2.618H20.13V25h3.672v-8.738c0-2.686 1.054-5.236 4.318-5.236h1.632V7.592h-.816zm18.462 14.212c-.748 0-1.122-.238-1.122-1.122v-6.97c0-4.114-2.652-6.324-7.276-6.324-4.386 0-7.31 2.108-7.684 5.508h3.604c.272-1.53 1.734-2.55 3.91-2.55 2.414 0 3.808 1.19 3.808 3.128v1.054h-4.386c-4.862 0-7.446 2.006-7.446 5.576 0 3.23 2.652 5.1 6.46 5.1 2.822 0 4.59-1.224 5.746-2.992 0 1.734.816 2.788 3.196 2.788h1.938v-3.196h-.748zm-4.76-3.944c-.034 2.686-1.802 4.488-4.862 4.488-2.006 0-3.23-1.02-3.23-2.482 0-1.768 1.258-2.618 3.536-2.618h4.556v.612zm20.6-7.854c-1.121-1.53-2.991-2.618-5.643-2.618-4.726 0-8.228 3.536-8.228 8.908 0 5.576 3.502 8.908 8.228 8.908 2.754 0 4.556-1.292 5.678-2.822L63.715 25h3.196V1.2h-3.672v8.806zM58.208 22.11c-3.06 0-5.066-2.38-5.066-5.814 0-3.4 2.006-5.78 5.066-5.78s5.066 2.38 5.066 5.848c0 3.366-2.006 5.746-5.066 5.746zm20.554 3.094c4.318 0 7.242-2.618 7.854-6.052h-3.672c-.51 1.938-2.142 3.06-4.386 3.06-2.89 0-4.76-1.938-4.862-4.896v-.238H86.82c.068-.476.102-.952.102-1.394-.102-5.1-3.468-8.296-8.5-8.296-5.134 0-8.568 3.57-8.568 8.942 0 5.338 3.434 8.874 8.908 8.874zm-4.93-10.812c.272-2.482 2.278-4.046 4.624-4.046 2.55 0 4.352 1.462 4.658 4.046h-9.282zm38.052-4.08c-1.122-1.734-2.992-2.924-5.712-2.924-4.726 0-8.228 3.502-8.228 8.84 0 5.542 3.502 8.84 8.228 8.84 2.72 0 4.522-1.122 5.678-2.856v1.938c0 3.332-1.802 4.862-4.998 4.862-2.584 0-4.284-1.122-4.726-3.06h-3.74c.34 3.91 3.57 6.052 8.194 6.052 6.256 0 8.908-2.992 8.908-7.718V7.592h-3.196l-.408 2.72zm-5.1 11.662c-3.06 0-5.066-2.346-5.066-5.746 0-3.366 2.006-5.746 5.066-5.746s5.066 2.38 5.066 5.814c0 3.332-2.006 5.678-5.066 5.678zM119.075 25h3.672V1.2h-3.672V25zm15.5.204c5.304 0 8.874-3.57 8.874-8.908 0-5.304-3.57-8.908-8.874-8.908s-8.874 3.604-8.874 8.908c0 5.338 3.57 8.908 8.874 8.908zm0-3.128c-3.094 0-5.1-2.414-5.1-5.78s2.006-5.78 5.1-5.78 5.134 2.414 5.134 5.78-2.04 5.78-5.134 5.78zm21.143-14.688c-2.686 0-4.488 1.224-5.644 2.788V1.2h-3.672V25h3.196l.442-2.516c1.088 1.564 2.958 2.72 5.678 2.72 4.76 0 8.228-3.57 8.228-8.908 0-5.61-3.468-8.908-8.228-8.908zm-.612 14.722c-3.06 0-5.066-2.414-5.066-5.848 0-3.366 2.006-5.746 5.066-5.746s5.1 2.38 5.1 5.78c0 3.434-2.04 5.814-5.1 5.814zm27.694-.306c-.748 0-1.122-.238-1.122-1.122v-6.97c0-4.114-2.652-6.324-7.276-6.324-4.386 0-7.31 2.108-7.684 5.508h3.604c.272-1.53 1.734-2.55 3.91-2.55 2.414 0 3.808 1.19 3.808 3.128v1.054h-4.386c-4.862 0-7.446 2.006-7.446 5.576 0 3.23 2.652 5.1 6.46 5.1 2.822 0 4.59-1.224 5.746-2.992 0 1.734.816 2.788 3.196 2.788h1.938v-3.196h-.748zm-4.76-3.944c-.034 2.686-1.802 4.488-4.862 4.488-2.006 0-3.23-1.02-3.23-2.482 0-1.768 1.258-2.618 3.536-2.618h4.556v.612zm7.508 7.14h3.672V1.2h-3.672V25zm26.681.204c5.542 0 9.588-3.264 10.336-8.296h-4.046c-.748 3.026-3.026 4.862-6.324 4.862-4.488 0-7.208-3.604-7.208-8.67 0-5.1 2.788-8.67 7.31-8.67 3.23 0 5.474 1.87 6.256 4.862h4.046c-.782-5.032-4.692-8.296-10.132-8.296-7.038 0-11.492 4.862-11.492 12.104 0 7.31 4.318 12.104 11.254 12.104zm13.57-.204h3.91V14.936h9.316V11.57h-9.316V4.668h11.288V1.2h-15.198V25zm26.287 0c7.446 0 12.138-4.862 12.138-11.934 0-7.072-4.692-11.866-12.138-11.866h-8.092V25h8.092zm-4.182-20.4h4.182c5.236 0 8.126 3.366 8.126 8.466s-2.89 8.534-8.126 8.534h-4.182v-17zm18.642 14.654c.102 3.774 3.298 5.95 7.956 5.95 4.216 0 7.378-2.108 7.378-5.44 0-3.876-3.23-4.692-7.208-5.168-2.516-.272-4.182-.476-4.182-2.108 0-1.394 1.428-2.278 3.604-2.278s3.672 1.122 3.876 2.72h3.604c-.238-3.57-3.264-5.542-7.548-5.542-4.182-.034-7.14 2.108-7.14 5.406 0 3.604 3.128 4.454 7.106 4.93 2.686.34 4.284.476 4.284 2.346 0 1.394-1.496 2.278-3.774 2.278-2.652 0-4.216-1.292-4.352-3.094h-3.604zM297.437 25h3.978l3.808-11.832L308.895 25h3.944l5.78-17.408h-3.74l-4.114 13.328-3.808-13.328h-3.366l-3.978 13.328-3.978-13.328h-3.876L297.437 25zm24.985-19.856c1.258 0 2.244-.918 2.244-2.21 0-1.292-.986-2.21-2.244-2.21-1.258 0-2.244.918-2.244 2.21 0 1.292.986 2.21 2.244 2.21zM320.552 25h3.672V7.592h-3.672V25zm8.529-4.726c0 3.162 1.428 4.726 4.76 4.726h3.4v-3.23h-2.584c-1.394 0-1.87-.51-1.87-1.87v-9.078h4.25v-3.23h-4.25V2.73h-3.706v4.862h-3.026v3.23h3.026v9.452zm19.642-12.886c-2.72 0-4.386 1.224-5.474 2.72V1.2h-3.672V25h3.672v-8.806c0-3.502 1.768-5.644 4.658-5.644 2.72 0 4.182 1.768 4.182 5.066V25h3.672v-9.69c0-5.814-3.162-7.922-7.038-7.922zM367.8 25h3.672V1.2H367.8V25zm15.5.204c5.304 0 8.874-3.57 8.874-8.908 0-5.304-3.57-8.908-8.874-8.908s-8.874 3.604-8.874 8.908c0 5.338 3.57 8.908 8.874 8.908zm0-3.128c-3.094 0-5.1-2.414-5.1-5.78s2.006-5.78 5.1-5.78 5.134 2.414 5.134 5.78-2.04 5.78-5.134 5.78zM398.541 25h3.978l3.808-11.832L409.999 25h3.944l5.78-17.408h-3.74l-4.114 13.328-3.808-13.328h-3.366l-3.978 13.328-3.978-13.328h-3.876L398.541 25zm41.13-17.612c-2.72 0-4.522 1.258-5.678 2.788l-.442-2.584h-3.196V31.8h3.672v-9.248c1.088 1.564 2.958 2.652 5.644 2.652 4.76 0 8.228-3.536 8.228-8.908 0-5.576-3.468-8.908-8.228-8.908zm-.612 14.722c-3.06 0-5.066-2.414-5.066-5.882 0-3.366 2.006-5.712 5.066-5.712s5.1 2.346 5.1 5.78c0 3.4-2.04 5.814-5.1 5.814zm20.588-14.518c-2.856 0-4.25 1.156-5.134 2.618l-.408-2.618h-3.264V25h3.672v-8.738c0-2.686 1.054-5.236 4.318-5.236h1.632V7.592h-.816zm4.951-2.448c1.258 0 2.244-.918 2.244-2.21 0-1.292-.986-2.21-2.244-2.21-1.258 0-2.244.918-2.244 2.21 0 1.292.986 2.21 2.244 2.21zM462.728 25h3.672V7.592h-3.672V25zm15.261.204c4.454 0 7.412-2.482 8.092-6.426h-3.876c-.442 2.006-1.938 3.298-4.182 3.298-2.958 0-4.896-2.346-4.896-5.746 0-3.434 1.938-5.814 4.896-5.814 2.278 0 3.74 1.258 4.216 3.298h3.842c-.714-3.944-3.502-6.426-7.99-6.426-5.27 0-8.738 3.57-8.738 8.942 0 5.44 3.366 8.874 8.636 8.874zm12.773-20.06c1.258 0 2.244-.918 2.244-2.21 0-1.292-.986-2.21-2.244-2.21-1.258 0-2.244.918-2.244 2.21 0 1.292.986 2.21 2.244 2.21zM488.892 25h3.672V7.592h-3.672V25zm16.451-17.612c-2.822 0-4.488 1.122-5.576 2.482l-.408-2.278h-3.196V25h3.672v-8.772c0-3.536 1.734-5.678 4.658-5.678 2.754 0 4.148 1.768 4.148 5.066V25h3.706v-9.69c0-5.814-3.162-7.922-7.004-7.922zm23.638 2.924c-1.122-1.734-2.992-2.924-5.712-2.924-4.726 0-8.228 3.502-8.228 8.84 0 5.542 3.502 8.84 8.228 8.84 2.72 0 4.522-1.122 5.678-2.856v1.938c0 3.332-1.802 4.862-4.998 4.862-2.584 0-4.284-1.122-4.726-3.06h-3.74c.34 3.91 3.57 6.052 8.194 6.052 6.256 0 8.908-2.992 8.908-7.718V7.592h-3.196l-.408 2.72zm-5.1 11.662c-3.06 0-5.066-2.346-5.066-5.746 0-3.366 2.006-5.746 5.066-5.746s5.066 2.38 5.066 5.814c0 3.332-2.006 5.678-5.066 5.678z" fill="#000"/></svg>