<svg width="257" height="18" viewBox="0 0 257 18" fill="none" xmlns="http://www.w3.org/2000/svg"><path d="M.152 13.5h2.07V8.028h5.85V13.5h2.07V.9h-2.07v5.292h-5.85V.9H.152v12.6zm20.513-1.692c-.396 0-.594-.126-.594-.594v-3.69c0-2.178-1.404-3.348-3.852-3.348-2.322 0-3.87 1.116-4.068 2.916h1.908c.144-.81.918-1.35 2.07-1.35 1.278 0 2.016.63 2.016 1.656v.558h-2.322c-2.574 0-3.942 1.062-3.942 2.952 0 1.71 1.404 2.7 3.42 2.7 1.494 0 2.43-.648 3.042-1.584 0 .918.432 1.476 1.692 1.476h1.026v-1.692h-.396zm-2.52-2.088c-.018 1.422-.954 2.376-2.574 2.376-1.062 0-1.71-.54-1.71-1.314 0-.936.666-1.386 1.872-1.386h2.412v.324zm8.637-5.436c-1.512 0-2.25.612-2.718 1.386l-.216-1.386H22.12V13.5h1.944V8.874c0-1.422.558-2.772 2.286-2.772h.864V4.284h-.432zm8.193 1.278c-.593-.81-1.584-1.386-2.988-1.386-2.502 0-4.355 1.872-4.355 4.716 0 2.952 1.853 4.716 4.355 4.716 1.459 0 2.413-.684 3.006-1.494l.234 1.386h1.693V.9h-1.945v4.662zm-2.663 6.408c-1.62 0-2.682-1.26-2.682-3.078 0-1.8 1.062-3.06 2.682-3.06 1.62 0 2.681 1.26 2.681 3.096 0 1.782-1.062 3.042-2.681 3.042zm21.715-7.794c-1.512 0-2.556.666-3.15 1.674-.558-1.188-1.638-1.674-2.844-1.674-1.386.018-2.178.63-2.7 1.314l-.216-1.206h-1.692V13.5h1.944V8.568c0-1.638.828-2.718 2.16-2.718 1.278 0 1.944.846 1.944 2.466V13.5h1.962V8.514c0-1.656.846-2.664 2.178-2.664 1.26 0 1.926.846 1.926 2.466V13.5h1.944V8.19c0-2.916-1.548-4.014-3.456-4.014zm9.522 9.432c2.286 0 3.834-1.386 4.158-3.204h-1.944c-.27 1.026-1.134 1.62-2.322 1.62-1.53 0-2.52-1.026-2.574-2.592v-.126h6.948a5.28 5.28 0 00.054-.738c-.054-2.7-1.836-4.392-4.5-4.392-2.718 0-4.536 1.89-4.536 4.734 0 2.826 1.818 4.698 4.716 4.698zm-2.61-5.724c.144-1.314 1.206-2.142 2.448-2.142 1.35 0 2.304.774 2.466 2.142h-4.914zm9.097 3.114c0 1.674.756 2.502 2.52 2.502h1.8v-1.71h-1.368c-.738 0-.99-.27-.99-.99V5.994h2.25v-1.71h-2.25V1.71h-1.962v2.574h-1.602v1.71h1.602v5.004zm13.875.81c-.396 0-.594-.126-.594-.594v-3.69c0-2.178-1.404-3.348-3.852-3.348-2.322 0-3.87 1.116-4.068 2.916h1.908c.144-.81.918-1.35 2.07-1.35 1.278 0 2.016.63 2.016 1.656v.558H79.07c-2.574 0-3.942 1.062-3.942 2.952 0 1.71 1.404 2.7 3.42 2.7 1.494 0 2.43-.648 3.042-1.584 0 .918.432 1.476 1.692 1.476h1.026v-1.692h-.396zm-2.52-2.088c-.018 1.422-.954 2.376-2.574 2.376-1.062 0-1.71-.54-1.71-1.314 0-.936.666-1.386 1.872-1.386h2.412v.324zm3.975 3.78h1.944V.9h-1.944v12.6zm9.121-2.502c0 1.674.756 2.502 2.52 2.502h1.8v-1.71H97.44c-.738 0-.99-.27-.99-.99V5.994h2.25v-1.71h-2.25V1.71h-1.962v2.574h-1.602v1.71h1.602v5.004zm10.219-6.714c-1.512 0-2.25.612-2.718 1.386l-.216-1.386h-1.728V13.5h1.944V8.874c0-1.422.558-2.772 2.286-2.772h.864V4.284h-.432zm9.774 7.524c-.396 0-.594-.126-.594-.594v-3.69c0-2.178-1.404-3.348-3.852-3.348-2.322 0-3.87 1.116-4.068 2.916h1.908c.144-.81.918-1.35 2.07-1.35 1.278 0 2.016.63 2.016 1.656v.558h-2.322c-2.574 0-3.942 1.062-3.942 2.952 0 1.71 1.404 2.7 3.42 2.7 1.494 0 2.43-.648 3.042-1.584 0 .918.432 1.476 1.692 1.476h1.026v-1.692h-.396zm-2.52-2.088c-.018 1.422-.954 2.376-2.574 2.376-1.062 0-1.71-.54-1.71-1.314 0-.936.666-1.386 1.872-1.386h2.412v.324zm10.906-4.158c-.594-.81-1.584-1.386-2.988-1.386-2.502 0-4.356 1.872-4.356 4.716 0 2.952 1.854 4.716 4.356 4.716 1.458 0 2.412-.684 3.006-1.494l.234 1.386h1.692V.9h-1.944v4.662zm-2.664 6.408c-1.62 0-2.682-1.26-2.682-3.078 0-1.8 1.062-3.06 2.682-3.06 1.62 0 2.682 1.26 2.682 3.096 0 1.782-1.062 3.042-2.682 3.042zm7.498-8.982c.666 0 1.188-.486 1.188-1.17 0-.684-.522-1.17-1.188-1.17-.666 0-1.188.486-1.188 1.17 0 .684.522 1.17 1.188 1.17zm-.99 10.512h1.944V4.284h-1.944V13.5zm8.709-9.324c-1.494 0-2.376.594-2.952 1.314l-.216-1.206h-1.692V13.5h1.944V8.856c0-1.872.918-3.006 2.466-3.006 1.458 0 2.196.936 2.196 2.682V13.5h1.962V8.37c0-3.078-1.674-4.194-3.708-4.194zm12.514 1.548c-.594-.918-1.584-1.548-3.024-1.548-2.502 0-4.356 1.854-4.356 4.68 0 2.934 1.854 4.68 4.356 4.68 1.44 0 2.394-.594 3.006-1.512v1.026c0 1.764-.954 2.574-2.646 2.574-1.368 0-2.268-.594-2.502-1.62h-1.98c.18 2.07 1.89 3.204 4.338 3.204 3.312 0 4.716-1.584 4.716-4.086V4.284h-1.692l-.216 1.44zm-2.7 6.174c-1.62 0-2.682-1.242-2.682-3.042 0-1.782 1.062-3.042 2.682-3.042 1.62 0 2.682 1.26 2.682 3.078 0 1.764-1.062 3.006-2.682 3.006zm21.716-7.722c-1.512 0-2.556.666-3.15 1.674-.558-1.188-1.638-1.674-2.844-1.674-1.386.018-2.178.63-2.7 1.314l-.216-1.206h-1.692V13.5h1.944V8.568c0-1.638.828-2.718 2.16-2.718 1.278 0 1.944.846 1.944 2.466V13.5h1.962V8.514c0-1.656.846-2.664 2.178-2.664 1.26 0 1.926.846 1.926 2.466V13.5h1.944V8.19c0-2.916-1.548-4.014-3.456-4.014zm13.642 7.632c-.396 0-.594-.126-.594-.594v-3.69c0-2.178-1.404-3.348-3.852-3.348-2.322 0-3.87 1.116-4.068 2.916h1.908c.144-.81.918-1.35 2.07-1.35 1.278 0 2.016.63 2.016 1.656v.558h-2.322c-2.574 0-3.942 1.062-3.942 2.952 0 1.71 1.404 2.7 3.42 2.7 1.494 0 2.43-.648 3.042-1.584 0 .918.432 1.476 1.692 1.476h1.026v-1.692h-.396zm-2.52-2.088c-.018 1.422-.954 2.376-2.574 2.376-1.062 0-1.71-.54-1.71-1.314 0-.936.666-1.386 1.872-1.386h2.412v.324zm10.906-4.158c-.594-.81-1.584-1.386-2.988-1.386-2.502 0-4.356 1.872-4.356 4.716 0 2.952 1.854 4.716 4.356 4.716 1.458 0 2.412-.684 3.006-1.494l.234 1.386h1.692V.9h-1.944v4.662zm-2.664 6.408c-1.62 0-2.682-1.26-2.682-3.078 0-1.8 1.062-3.06 2.682-3.06 1.62 0 2.682 1.26 2.682 3.096 0 1.782-1.062 3.042-2.682 3.042zm10.882 1.638c2.286 0 3.834-1.386 4.158-3.204h-1.944c-.27 1.026-1.134 1.62-2.322 1.62-1.53 0-2.52-1.026-2.574-2.592v-.126h6.948a5.28 5.28 0 00.054-.738c-.054-2.7-1.836-4.392-4.5-4.392-2.718 0-4.536 1.89-4.536 4.734 0 2.826 1.818 4.698 4.716 4.698zm-2.61-5.724c.144-1.314 1.206-2.142 2.448-2.142 1.35 0 2.304.774 2.466 2.142h-4.914zm17.481 5.724c2.286 0 3.834-1.386 4.158-3.204h-1.944c-.27 1.026-1.134 1.62-2.322 1.62-1.53 0-2.52-1.026-2.574-2.592v-.126h6.948a5.28 5.28 0 00.054-.738c-.054-2.7-1.836-4.392-4.5-4.392-2.718 0-4.536 1.89-4.536 4.734 0 2.826 1.818 4.698 4.716 4.698zm-2.61-5.724c.144-1.314 1.206-2.142 2.448-2.142 1.35 0 2.304.774 2.466 2.142h-4.914zm16.926 3.924c-.396 0-.594-.126-.594-.594v-3.69c0-2.178-1.404-3.348-3.852-3.348-2.322 0-3.87 1.116-4.068 2.916h1.908c.144-.81.918-1.35 2.07-1.35 1.278 0 2.016.63 2.016 1.656v.558h-2.322c-2.574 0-3.942 1.062-3.942 2.952 0 1.71 1.404 2.7 3.42 2.7 1.494 0 2.43-.648 3.042-1.584 0 .918.432 1.476 1.692 1.476h1.026v-1.692h-.396zm-2.52-2.088c-.018 1.422-.954 2.376-2.574 2.376-1.062 0-1.71-.54-1.71-1.314 0-.936.666-1.386 1.872-1.386h2.412v.324zm3.579.738c.054 1.998 1.746 3.15 4.212 3.15 2.232 0 3.906-1.116 3.906-2.88 0-2.052-1.71-2.484-3.816-2.736-1.332-.144-2.214-.252-2.214-1.116 0-.738.756-1.206 1.908-1.206s1.944.594 2.052 1.44h1.908c-.126-1.89-1.728-2.934-3.996-2.934-2.214-.018-3.78 1.116-3.78 2.862 0 1.908 1.656 2.358 3.762 2.61 1.422.18 2.268.252 2.268 1.242 0 .738-.792 1.206-1.998 1.206-1.404 0-2.232-.684-2.304-1.638h-1.908zm10.614-7.47c.666 0 1.188-.486 1.188-1.17 0-.684-.522-1.17-1.188-1.17-.666 0-1.188.486-1.188 1.17 0 .684.522 1.17 1.188 1.17zm-.99 10.512h1.944V4.284h-1.944V13.5zm8.224.108c2.286 0 3.834-1.386 4.158-3.204h-1.944c-.27 1.026-1.134 1.62-2.322 1.62-1.53 0-2.52-1.026-2.574-2.592v-.126h6.948a5.28 5.28 0 00.054-.738c-.054-2.7-1.836-4.392-4.5-4.392-2.718 0-4.536 1.89-4.536 4.734 0 2.826 1.818 4.698 4.716 4.698zm-2.61-5.724c.144-1.314 1.206-2.142 2.448-2.142 1.35 0 2.304.774 2.466 2.142h-4.914zm13.164-3.6c-1.512 0-2.25.612-2.718 1.386l-.216-1.386h-1.728V13.5h1.944V8.874c0-1.422.558-2.772 2.286-2.772h.864V4.284h-.432z" fill="#000"/></svg>