<svg width="266" height="43" viewBox="0 0 266 43" fill="none" xmlns="http://www.w3.org/2000/svg"><path d="M16.204 30.403c-2.13 0-3.543-.365-4.597-.827l-.622-3.696h.455l.455.875c1.077 2.092 2.394 3.016 4.5 3.016 2.419 0 3.784-1.216 3.784-3.21 0-1.776-1.006-2.675-3.879-3.697-3.256-1.143-4.884-2.407-4.884-5.253 0-2.845 2.562-4.96 5.746-4.96 1.987 0 3.136.267 4.238.73l.598 3.841h-.479l-.43-.9c-.982-2.09-2.227-3.04-4.119-3.04-1.987 0-3.16 1.217-3.16 2.943 0 1.727.958 2.602 3.687 3.55 3.591 1.217 5.1 2.603 5.1 5.424.024 3.088-2.921 5.204-6.393 5.204zM31.24 28.895c-1.006.876-2.035 1.46-3.328 1.46-1.915 0-2.92-.876-2.92-2.968v-8.073h-1.773v-.462l1.892-.73 1.867-3.793h.766v3.89h3.209v1.095h-3.209v8.025c0 1.192.575 1.775 1.509 1.775.646 0 1.077-.17 1.676-.608l.311.39zM37.968 30.452c-3.472 0-6.034-2.238-6.034-6.396 0-3.526 2.49-6.226 6.058-6.226 3.567 0 6.033 2.238 6.033 6.396-.024 3.526-2.538 6.226-6.057 6.226zm-.335-11.99c-1.7 0-2.658 1.314-2.658 4.889 0 3.915 1.245 6.468 3.304 6.468 1.724 0 2.658-1.313 2.658-4.888 0-3.915-1.221-6.468-3.304-6.468zM58.75 30.184c-.55 0-1.963-.024-3.04-.024-1.078 0-2.467.024-3.066.024v-.389l.408-.073c1.077-.195 1.269-.535 1.269-2.748v-4.766c0-1.848-.79-2.748-2.203-2.748-.982 0-1.796.389-2.514.924v6.59c0 2.237.167 2.553 1.269 2.748l.407.073v.39c-.599 0-1.987-.025-3.065-.025-1.077 0-2.49.024-3.064.024v-.389l.478-.073c1.006-.146 1.198-.535 1.198-2.967v-5.253c0-1.313-.216-1.677-1.102-2.091l-.598-.292v-.267l4.166-.924.335.218v1.703c1.317-1.143 2.538-1.897 4.094-1.897 2.227 0 3.4 1.216 3.4 3.77v5.106c0 2.48.191 2.773 1.22 2.967l.432.073v.316h-.024zM62.221 23.01v.17c.072 3.454 1.916 5.594 4.406 5.594 1.365 0 2.322-.511 3.328-1.532l.335.243c-1.293 1.824-2.969 2.967-5.124 2.967-3.16 0-5.53-2.19-5.53-5.958 0-4.062 3.017-6.64 5.913-6.64 3.209 0 4.765 1.825 4.837 5.18h-8.164v-.024zm5.244-.68c-.072-2.554-.982-3.843-2.418-3.843-1.628 0-2.658 1.41-2.825 3.842h5.243zM87.888 30.184c-.431 0-2.586-.049-3.424-.049-.886 0-3.567.05-4.022.05v-.341l.766-.122c.742-.122 1.053-.316 1.053-.778 0-.39-.24-.876-.766-1.702l-2.681-4.159-2.682 3.745c-.623.876-.91 1.532-.91 2.019 0 .486.288.778 1.03.9l.79.121v.34c-.431 0-2.347-.048-3.208-.048-.862 0-2.227.049-2.682.049v-.365l.407-.073c1.077-.195 2.083-1.119 2.897-2.165l3.879-5.155-3.807-5.74c-.886-1.337-1.509-1.945-2.466-2.115l-.503-.097v-.34c.431 0 2.586.048 3.424.048.886 0 3.52-.049 3.974-.049v.34l-.766.122c-.646.098-1.005.316-1.005.779 0 .389.239.875.766 1.702L80.25 20.7l2.25-3.21c.6-.876.91-1.532.91-1.994 0-.462-.31-.778-1.029-.9l-.79-.122v-.34c.43 0 2.346.048 3.208.048.862 0 2.227-.048 2.682-.048v.34l-.407.073c-1.078.195-2.06 1.022-2.897 2.165l-3.472 4.62 4.214 6.274c.886 1.338 1.508 1.946 2.466 2.116l.503.097v.365zM89.803 16.785c-.191 0-.359-.025-.503-.098a1.251 1.251 0 01-.407-.291 1.101 1.101 0 01-.263-.414 1.288 1.288 0 01-.096-.51c0-.195.024-.365.096-.511.072-.17.168-.292.263-.414a.923.923 0 01.407-.267c.168-.073.335-.097.503-.097.192 0 .36.024.503.097.168.073.287.17.407.267a1.1 1.1 0 01.263.414c.072.17.096.34.096.51 0 .195-.024.365-.096.511-.072.17-.167.292-.263.414a1.57 1.57 0 01-.407.291 1.542 1.542 0 01-.503.098zm0-.195a.81.81 0 00.431-.097.947.947 0 00.36-.243c.095-.098.167-.22.239-.365.047-.146.072-.292.072-.438 0-.17-.025-.316-.072-.438a.962.962 0 00-.24-.364 1.338 1.338 0 00-.359-.243 1.378 1.378 0 00-.43-.098.809.809 0 00-.432.098.946.946 0 00-.359.243 1.364 1.364 0 00-.24.364 1.397 1.397 0 00-.071.438c0 .17.024.316.072.438a.964.964 0 00.239.365.947.947 0 00.36.243.927.927 0 00.43.097zm-.55-.34v-1.557h.67c.167 0 .311.049.407.122a.445.445 0 01.144.34.445.445 0 01-.144.34c-.096.098-.216.122-.383.122l.072-.024c.071 0 .12.024.167.049a.41.41 0 01.144.146l.263.462h-.359l-.263-.511c-.024-.049-.048-.073-.072-.073-.024-.024-.072-.024-.12-.024h-.167v.608h-.36zm.31-.876h.312c.096 0 .168-.024.192-.048.047-.025.071-.098.071-.17 0-.074-.024-.147-.072-.17a.446.446 0 00-.191-.05h-.311v.438zM104.439 30.381c-4.281 0-7.35-3.414-7.35-8.89 0-5.477 3.12-8.843 7.302-8.843 3.508 0 5.924 1.868 6.675 5.477.024.097-.048.197-.146.197h-.895c-.096 0-.218-.073-.218-.197-.603-2.924-2.588-4.421-5.416-4.421-3.481 0-6.021 2.874-6.021 7.81 0 4.937 2.564 7.812 6.069 7.812 3.845 0 5.804-2.726 5.78-6.78h-5.708c-.096 0-.194-.098-.194-.197v-.664c0-.097.096-.197.194-.197h6.771c.096 0 .194.097.194.197.096 5.476-2.371 8.694-7.037 8.694v.002zM113.652 30.111c-.096 0-.194-.097-.194-.197l.072-8.572-.072-8.227c0-.097.096-.197.194-.197h.845c.096 0 .194.097.194.197l-.048 8.178.048 8.621c0 .098-.096.197-.194.197h-.845zM122.188 30.381c-3.58 0-5.562-2.629-5.562-6.583s1.982-6.607 5.562-6.607c3.579 0 5.561 2.653 5.561 6.607s-1.958 6.583-5.561 6.583zm0-.958c2.901 0 4.328-2.186 4.328-5.625 0-3.438-1.451-5.65-4.328-5.65-2.878.025-4.329 2.212-4.329 5.65 0 3.439 1.451 5.625 4.329 5.625zM134.908 30.357c-1.958 0-3.385-.958-4.183-2.75l.048 2.283c0 .097-.095.197-.194.197h-.821c-.096 0-.194-.097-.194-.197l.072-9.898-.072-6.877c0-.097.096-.197.194-.197h.845c.096 0 .194.097.194.197l-.024 6.78c.798-1.67 2.225-2.677 4.159-2.677 3.24 0 4.983 2.85 4.983 6.534 0 3.684-1.789 6.607-5.007 6.607v-.002zm-.242-.958c2.78 0 4.016-2.432 4.016-5.526 0-3.093-1.21-5.697-3.989-5.697-2.371 0-3.991 1.816-4.015 5.452-.024 3.636 1.451 5.77 3.988 5.77zM150.528 30.111c-.096 0-.194-.097-.194-.197l.048-2.383c-.773 1.744-2.2 2.8-4.183 2.8-3.263 0-4.982-2.851-4.982-6.535 0-3.685 1.765-6.583 4.982-6.583 1.959 0 3.386.958 4.183 2.726l-.048-2.284c0-.097.096-.197.194-.197h.821c.096 0 .194.098.194.197l-.071 5.895.071 6.362c0 .097-.095.197-.194.197h-.821v.002zm-4.111-.737c2.419 0 3.992-1.843 4.015-5.452.024-3.611-1.45-5.746-3.964-5.746-2.806 0-4.063 2.432-4.063 5.5 0 3.07 1.233 5.698 4.015 5.698h-.003zM154.156 30.111c-.096 0-.194-.097-.194-.197l.071-8.572-.071-8.227c0-.097.095-.197.194-.197h.845c.095 0 .194.097.194.197l-.048 8.178.048 8.621c0 .098-.096.197-.194.197h-.845zM166.924 23.037h-3.965l.048 6.877c0 .097-.096.197-.194.197h-.919c-.096 0-.194-.097-.194-.197l.072-8.793-.072-8.008c0-.098.096-.197.194-.197h4.958c3.457 0 5.732 1.694 5.732 5.01 0 3.535-2.346 5.109-5.658 5.109l-.002.002zm-3.989-1.892v.86h4.039c2.708 0 4.353-1.103 4.353-4.077 0-2.702-1.621-3.955-4.449-3.955h-3.869l-.071 7.172h-.003zM182.448 30.111c-.096 0-.194-.097-.194-.197l.048-2.383c-.773 1.744-2.2 2.8-4.183 2.8-3.263 0-4.982-2.851-4.982-6.535 0-3.685 1.765-6.583 4.982-6.583 1.959 0 3.386.958 4.183 2.726l-.048-2.284c0-.097.096-.197.194-.197h.821c.096 0 .194.098.194.197l-.071 5.895.071 6.362c0 .097-.095.197-.194.197h-.821v.002zm-4.111-.737c2.419 0 3.989-1.843 4.015-5.452.024-3.611-1.45-5.746-3.964-5.746-2.806 0-4.063 2.432-4.063 5.5 0 3.07 1.233 5.698 4.015 5.698h-.003zM189.365 34.09c-.048.121-.146.197-.266.197h-.749a.135.135 0 01-.122-.197l1.403-4.027-4.836-12.427c-.048-.073.024-.173.119-.173h.968c.119 0 .217.073.265.173l4.087 10.758 3.508-10.734c.048-.122.146-.197.266-.197h.895c.096 0 .17.097.12.197l-5.658 16.432v-.002zM197.561 24.832l.048 5.085c0 .097-.096.197-.194.197h-.872c-.096 0-.194-.098-.194-.197l.072-5.085-.048-7.172c0-.097.096-.197.194-.197h.821c.096 0 .194.097.194.197l-.048 2.408c.702-1.45 1.983-2.9 4.015-2.9 1.815 0 3.096.91 3.604 2.9.749-1.547 2.054-2.9 4.015-2.9 2.394 0 3.845 1.596 3.845 5.11v2.554l.024 5.085c0 .097-.096.197-.194.197h-.847c-.096 0-.194-.098-.194-.197l.048-5.085V22.4c0-3.07-1.162-4.2-2.95-4.2-1.621 0-2.732 1.252-3.532 3.242.024.27.024.54.024.834v2.553l.024 5.085c0 .097-.096.197-.194.197h-.847c-.096 0-.194-.097-.194-.197l.048-5.085v-2.432c0-3.069-1.162-4.2-2.95-4.2-1.789 0-2.902 1.45-3.723 3.733v2.9l.005.002zM225.322 25.642c.096 0 .17.097.17.197-.46 2.774-2.153 4.542-5.126 4.542-3.675 0-5.61-2.677-5.61-6.558 0-3.882 2.105-6.632 5.466-6.632 3.362 0 5.272 2.332 5.344 6.361 0 .098-.096.198-.194.198l-9.407.024c0 3.563 1.475 5.649 4.425 5.649 2.248 0 3.531-1.35 3.941-3.587 0-.122.119-.197.218-.197h.773v.003zm-5.102-7.49c-2.466 0-3.917 1.792-4.207 4.617h8.27c-.024-2.553-1.427-4.618-4.063-4.618zM227.594 30.111c-.096 0-.194-.097-.194-.197l.048-5.355-.048-6.901c0-.098.096-.197.194-.197h.821c.096 0 .194.097.194.197l-.048 2.407c.702-1.425 2.081-2.899 4.231-2.899 2.514 0 4.063 1.647 4.063 5.11v2.407l.024 5.231c0 .098-.096.197-.194.197h-.848c-.095 0-.194-.097-.194-.197l.048-5.23V22.4c0-3.045-1.257-4.2-3.143-4.2-1.887 0-3.12 1.425-3.941 3.733v2.75l.024 5.231c0 .098-.096.197-.194.197h-.848.005zM244.303 29.866c0 .121-.071.22-.194.245-.361.098-.871.197-1.304.197-1.621 0-2.83-.834-2.83-3.511l.024-8.327h-1.427c-.096 0-.194-.097-.194-.197v-.613c0-.097.095-.197.194-.197h1.427l-.048-2.972c0-.097.095-.197.194-.197h.847c.096 0 .194.098.194.197l-.024 2.972h2.95c.096 0 .194.097.194.197v.613c0 .097-.096.197-.194.197h-2.95v8.327c0 1.892.508 2.456 1.717 2.456.436 0 .895-.049 1.233-.122a.156.156 0 01.194.148v.589l-.003-.002zM250.277 30.357c-3.12 0-5.102-1.45-5.174-4.543 0-.097.096-.197.194-.197h.773c.096 0 .194.097.194.197.072 2.48 1.475 3.636 4.039 3.636 2.129 0 3.652-.983 3.652-2.726 0-4.103-8.584-1.131-8.584-6.044 0-2.283 1.911-3.462 4.571-3.462 2.66 0 4.69 1.155 4.812 3.781 0 .097-.096.197-.194.197h-.725c-.096 0-.194-.097-.194-.197-.12-2.038-1.717-2.874-3.723-2.874s-3.386.834-3.386 2.504c0 3.733 8.584.762 8.584 6.017 0 2.332-2.129 3.708-4.837 3.708l-.002.003z" fill="#fff"/></svg>