<svg width="319" height="9" viewBox="0 0 319 9" fill="none" xmlns="http://www.w3.org/2000/svg"><path d="M4.182 2.595C4.182 1.48 3.406.91 2.225.91H.53a.071.071 0 00-.066.066L.49 3.669.465 6.626c0 .033.033.066.066.066h.314a.071.071 0 00.066-.066L.894 4.313H2.25c1.132 0 1.933-.529 1.933-1.718zM.911 1.265h1.322c.966 0 1.52.421 1.52 1.33 0 1-.562 1.371-1.487 1.371H.886v-.289l.025-2.412zm4.242 5.427a.071.071 0 00.066-.066l-.017-2.9.017-2.75A.071.071 0 005.152.91h-.289a.071.071 0 00-.066.066l.025 2.767-.025 2.883c0 .033.033.066.066.066h.29zm3.678-.875l-.016.81c0 .032.033.065.066.065h.28a.071.071 0 00.067-.066L9.21 4.305l.017-1.801a.071.071 0 00-.066-.066h-.29a.071.071 0 00-.066.066l.009 1.76v.925c-.281.776-.71 1.255-1.347 1.255-.644 0-1.074-.388-1.074-1.412v-.768l.017-1.76a.071.071 0 00-.066-.066h-.29a.071.071 0 00-.066.066l.009 1.76v.81c0 1.164.528 1.717 1.388 1.717.735 0 1.206-.495 1.445-.974zM10.24 4.56c0-1.099.455-1.892 1.38-1.892.859 0 1.363.727 1.355 1.933-.009 1.198-.546 1.752-1.314 1.76-.958.008-1.42-.678-1.42-1.801zm3.106 1.702l-.008-2.52.017-1.239a.071.071 0 00-.066-.066h-.273a.071.071 0 00-.066.066l.016.785c-.264-.603-.751-.925-1.404-.925-1.132 0-1.726.983-1.726 2.205 0 1.223.594 2.107 1.734 2.107.645 0 1.124-.322 1.388-.884v.47c0 1.19-.529 1.703-1.355 1.703-.652 0-1.19-.281-1.272-.959-.008-.041-.041-.066-.074-.066h-.281c-.033 0-.066.033-.058.066.074.909.81 1.289 1.694 1.28 1.073 0 1.743-.677 1.734-2.023zm2.497-4.379a.071.071 0 00.066-.066v-.446a.071.071 0 00-.066-.066h-.29a.071.071 0 00-.066.066v.446c0 .033.034.066.067.066h.289zm0 4.808a.071.071 0 00.066-.066L15.9 4.437l.008-1.933a.071.071 0 00-.066-.066h-.29a.071.071 0 00-.066.066l.017 1.941-.017 2.181c0 .033.034.066.067.066h.289zm1.241 0a.071.071 0 00.066-.066l-.008-1.76v-.925c.281-.776.71-1.255 1.347-1.255.644 0 1.074.388 1.074 1.412v.769l-.017 1.76c0 .032.033.065.066.065h.29a.071.071 0 00.065-.066l-.008-1.76v-.809c0-1.165-.529-1.718-1.388-1.718-.735 0-1.206.495-1.445.975l.016-.81a.071.071 0 00-.066-.066h-.28a.071.071 0 00-.067.066l.017 2.321-.017 1.801c0 .033.033.066.066.066h.29zm5.399-.28c0-.034-.033-.058-.066-.05a2.14 2.14 0 01-.422.041c-.413 0-.586-.19-.586-.826v-2.8h1.008a.071.071 0 00.066-.066v-.207a.071.071 0 00-.066-.066h-1.008l.008-1a.071.071 0 00-.066-.066h-.29a.071.071 0 00-.065.066l.016 1h-.487a.071.071 0 00-.066.066v.207c0 .033.033.066.066.066h.487l-.008 2.8c0 .9.413 1.181.967 1.181.148 0 .322-.033.446-.066a.08.08 0 00.066-.082V6.41zm3.907-1.843c0-1.33-.67-2.222-1.9-2.222-1.223 0-1.9.892-1.9 2.222s.677 2.214 1.9 2.214c1.23 0 1.9-.892 1.9-2.214zm-3.379 0c0-1.156.496-1.891 1.479-1.9.983 0 1.479.752 1.479 1.9 0 1.157-.488 1.892-1.479 1.892-.983 0-1.479-.735-1.479-1.892zm8.5.959c0-1.768-2.932-.769-2.932-2.024 0-.562.454-.843 1.156-.843.686 0 1.231.28 1.273.967 0 .033.033.066.066.066h.247a.071.071 0 00.067-.066c-.042-.884-.752-1.273-1.644-1.273-.909 0-1.562.397-1.562 1.165 0 1.652 2.933.653 2.933 2.032 0 .587-.52.917-1.247.917-.876 0-1.355-.388-1.38-1.222a.071.071 0 00-.066-.066h-.264a.071.071 0 00-.067.066c.025 1.04.703 1.528 1.768 1.528.926 0 1.652-.463 1.652-1.247zm2.274.883c0-.033-.033-.057-.066-.05a2.14 2.14 0 01-.421.042c-.413 0-.587-.19-.587-.826v-2.8h1.008a.071.071 0 00.066-.066v-.207a.071.071 0 00-.066-.066H32.71l.008-1a.071.071 0 00-.066-.066h-.289a.071.071 0 00-.066.066l.017 1h-.488a.071.071 0 00-.066.066v.207c0 .033.033.066.066.066h.488l-.009 2.8c0 .9.413 1.181.967 1.181.149 0 .322-.033.446-.066a.08.08 0 00.066-.082V6.41zm3.907-1.842c0-1.33-.669-2.222-1.9-2.222-1.222 0-1.9.892-1.9 2.222s.678 2.214 1.9 2.214c1.231 0 1.9-.892 1.9-2.214zm-3.378 0c0-1.156.495-1.891 1.478-1.9.983 0 1.479.752 1.479 1.9 0 1.157-.487 1.892-1.479 1.892-.983 0-1.478-.735-1.478-1.892zm7.44.62c.009-.033-.024-.066-.057-.066h-.256c-.034 0-.067.033-.075.066-.066.801-.586 1.272-1.38 1.272-.99-.008-1.445-.727-1.445-1.883 0-1.157.462-1.9 1.446-1.9.727 0 1.222.388 1.338 1.14.008.04.041.066.074.066h.248c.033 0 .066-.033.058-.066-.091-.884-.694-1.47-1.718-1.47-1.223 0-1.867.9-1.867 2.23s.644 2.205 1.858 2.205c1.09 0 1.702-.669 1.776-1.594zm3.01 1.446a.115.115 0 00.1.057h.346c.033 0 .05-.033.033-.058l-1.627-2.651 1.462-1.496c.025-.016.009-.05-.016-.05h-.364a.163.163 0 00-.115.05l-1.884 1.958v-.611l.017-2.858a.071.071 0 00-.067-.066h-.289a.071.071 0 00-.066.066l.025 2.866-.025 2.792c0 .034.033.067.066.067h.29a.071.071 0 00.066-.066l-.009-1.727.612-.628 1.173 1.892.272.463zm3.971-1.107c0-1.768-2.932-.769-2.932-2.024 0-.562.454-.843 1.156-.843.686 0 1.231.28 1.272.967 0 .033.033.066.067.066h.247a.071.071 0 00.066-.066c-.04-.884-.751-1.273-1.644-1.273-.908 0-1.56.397-1.56 1.165 0 1.652 2.932.653 2.932 2.032 0 .587-.52.917-1.248.917-.875 0-1.354-.388-1.38-1.222a.071.071 0 00-.065-.066h-.265a.071.071 0 00-.066.066c.025 1.04.702 1.528 1.768 1.528.925 0 1.652-.463 1.652-1.247zm.446 1.842a.115.115 0 00.099-.058l.339-.57a.307.307 0 00.033-.124v-.463a.071.071 0 00-.066-.066h-.314a.071.071 0 00-.066.066v.53l-.174.619c-.008.033.017.066.05.066h.099zm5.92-2.8c0-1.33-.669-2.223-1.9-2.223-1.222 0-1.9.892-1.9 2.222s.678 2.214 1.9 2.214c1.231 0 1.9-.892 1.9-2.214zm-3.378 0c0-1.157.496-1.893 1.479-1.9.983 0 1.478.751 1.478 1.9 0 1.156-.487 1.891-1.478 1.891-.983 0-1.48-.735-1.48-1.892zm4.351-.05c.008-1.223.554-1.85 1.371-1.85.95 0 1.372.858 1.372 1.932 0 1.025-.43 1.85-1.38 1.85-.867 0-1.371-.718-1.363-1.932zm3.156.033c0-1.24-.595-2.206-1.702-2.206-.67 0-1.165.364-1.437.95l.016-.793a.071.071 0 00-.066-.066h-.28a.071.071 0 00-.067.066l.025 2.23-.025 3.297c0 .033.033.066.066.066h.298a.071.071 0 00.066-.066l-.025-2.157c.273.587.76.9 1.42.9 1.1 0 1.71-.999 1.71-2.221zm2.299 1.858c0-.033-.033-.057-.066-.05a2.14 2.14 0 01-.422.042c-.413 0-.586-.19-.586-.826v-2.8h1.008a.071.071 0 00.066-.066v-.207a.071.071 0 00-.066-.066h-1.008l.008-1a.071.071 0 00-.066-.066h-.29a.071.071 0 00-.065.066l.016 1h-.487a.071.071 0 00-.066.066v.207c0 .033.033.066.066.066h.487l-.008 2.8c0 .9.413 1.181.967 1.181.148 0 .322-.033.446-.066a.08.08 0 00.066-.082V6.41zm.903-4.527a.071.071 0 00.066-.066v-.446a.071.071 0 00-.066-.066h-.29a.071.071 0 00-.066.066v.446c0 .033.033.066.066.066h.29zm0 4.808a.071.071 0 00.066-.066l-.009-2.189.009-1.933a.071.071 0 00-.066-.066h-.29a.071.071 0 00-.066.066l.017 1.941-.017 2.181c0 .033.033.066.066.066h.29zm4.513-2.123c0-1.33-.67-2.222-1.9-2.222-1.223 0-1.9.892-1.9 2.222s.677 2.214 1.9 2.214c1.23 0 1.9-.892 1.9-2.214zm-3.38 0c0-1.156.496-1.891 1.48-1.9.983 0 1.478.752 1.478 1.9 0 1.157-.487 1.892-1.479 1.892-.983 0-1.478-.735-1.478-1.892zM67.9 6.692a.071.071 0 00.067-.066l-.009-1.76v-.925c.281-.776.71-1.255 1.347-1.255.644 0 1.074.388 1.074 1.412v.769l-.017 1.76c0 .032.033.065.066.065h.29a.071.071 0 00.066-.066l-.009-1.76v-.809c0-1.165-.528-1.718-1.388-1.718-.735 0-1.206.495-1.445.975l.016-.81a.071.071 0 00-.066-.066h-.28a.071.071 0 00-.067.066l.017 2.321-.017 1.801c0 .033.033.066.066.066h.29zm6.852-1.164c0-1.768-2.932-.769-2.932-2.024 0-.562.454-.843 1.156-.843.686 0 1.231.28 1.273.967 0 .033.033.066.066.066h.247a.071.071 0 00.066-.066c-.04-.884-.751-1.273-1.643-1.273-.91 0-1.562.397-1.562 1.165 0 1.652 2.933.653 2.933 2.032 0 .587-.52.917-1.248.917-.875 0-1.354-.388-1.38-1.222a.071.071 0 00-.065-.066h-.265a.071.071 0 00-.066.066c.025 1.04.703 1.528 1.768 1.528.925 0 1.652-.463 1.652-1.247zm.446 1.842a.115.115 0 00.1-.058l.338-.57a.305.305 0 00.033-.124v-.463a.071.071 0 00-.066-.066h-.314a.071.071 0 00-.066.066v.53l-.174.619c-.008.033.017.066.05.066h.099zm5.721-.678a.071.071 0 00.066-.066v-.223a.071.071 0 00-.066-.066H78.01l-.024-2.577h2.701a.071.071 0 00.066-.066V3.47a.071.071 0 00-.066-.067h-2.701l.024-2.14h2.842a.071.071 0 00.066-.065V.976a.071.071 0 00-.066-.066H77.63a.071.071 0 00-.066.066l.025 2.652-.025 2.998c0 .033.034.066.067.066h3.287zm2.447 0a.071.071 0 00.066-.066l-.025-2.775.017-2.578h1.62a.071.071 0 00.065-.066V.976a.071.071 0 00-.066-.066h-3.676a.071.071 0 00-.066.066v.231c0 .033.033.066.066.066h1.62l.024 2.578-.025 2.775c0 .033.033.066.066.066h.314zm2.623 0a.071.071 0 00.066-.066l-.025-2.61h2.627a.071.071 0 00.066-.066v-.223a.071.071 0 00-.066-.066h-2.627l.025-2.396h2.759a.071.071 0 00.066-.066V.976a.071.071 0 00-.066-.066h-3.14a.071.071 0 00-.065.066l.024 2.833-.024 2.817c0 .033.033.066.066.066h.314zm6.608-1.164c0-1.768-2.932-.769-2.932-2.024 0-.562.454-.843 1.156-.843.686 0 1.231.28 1.273.967 0 .033.032.066.066.066h.247a.071.071 0 00.066-.066c-.04-.884-.751-1.273-1.643-1.273-.91 0-1.562.397-1.562 1.165 0 1.652 2.933.653 2.933 2.032 0 .587-.52.917-1.248.917-.875 0-1.354-.388-1.38-1.222a.071.071 0 00-.065-.066h-.265a.071.071 0 00-.066.066c.025 1.04.703 1.528 1.768 1.528.925 0 1.652-.463 1.652-1.247zm2.1-1c0-1.033.43-1.85 1.388-1.85.86 0 1.363.718 1.355 1.933-.008 1.214-.545 1.833-1.371 1.833-.95 0-1.372-.85-1.372-1.916zm3.057 2.164a.071.071 0 00.066-.066l-.025-2.14.025-1.982a.071.071 0 00-.066-.066h-.281a.071.071 0 00-.066.066l.016.768c-.272-.594-.76-.917-1.429-.917-1.099 0-1.702.992-1.702 2.214 0 1.24.587 2.198 1.702 2.198.678 0 1.165-.356 1.43-.942l-.017.801c0 .033.033.066.066.066h.28zm1.19 0a.071.071 0 00.066-.066L99 4.866v-.925c.281-.776.71-1.255 1.347-1.255.644 0 1.074.388 1.074 1.412v.769l-.017 1.76c0 .032.033.065.066.065h.29a.071.071 0 00.066-.066l-.009-1.76v-.809c0-1.165-.528-1.718-1.388-1.718-.735 0-1.206.495-1.445.975l.016-.81a.071.071 0 00-.066-.066h-.28a.071.071 0 00-.067.066l.017 2.321-.017 1.801c0 .033.033.066.066.066h.29zm3.853-2.164c0-1.033.429-1.867 1.388-1.867.859 0 1.363.735 1.354 1.95-.008 1.222-.561 1.842-1.371 1.842-.95 0-1.371-.86-1.371-1.925zm3.056 2.164a.071.071 0 00.066-.066l-.016-3.395.016-2.255a.071.071 0 00-.066-.066h-.289a.071.071 0 00-.066.066l.008 2.263c-.272-.578-.76-.892-1.412-.892-1.099 0-1.702 1-1.702 2.222 0 1.24.587 2.206 1.702 2.206.677 0 1.165-.355 1.429-.942l-.017.793c0 .033.033.066.066.066h.281zm2.579-2.75c.281-.769.677-1.256 1.272-1.256.611 0 1.008.38 1.008 1.412v.818l-.017 1.71c0 .033.033.066.066.066h.29a.071.071 0 00.066-.066l-.009-1.71v-.859c0-.1 0-.19-.008-.28.273-.67.653-1.091 1.206-1.091.612 0 1.008.38 1.008 1.412v.818l-.016 1.71c0 .033.033.066.066.066h.289a.071.071 0 00.066-.066l-.008-1.71v-.859c0-1.181-.496-1.718-1.314-1.718-.669 0-1.115.454-1.371.975-.174-.67-.611-.975-1.231-.975-.694 0-1.132.487-1.371.975l.016-.81a.071.071 0 00-.066-.066h-.281a.071.071 0 00-.066.066l.017 2.412-.025 1.71c0 .033.033.066.066.066h.297a.071.071 0 00.066-.066l-.016-1.71v-.975zm9.651.627c0-1.33-.669-2.222-1.9-2.222-1.222 0-1.9.892-1.9 2.222s.678 2.214 1.9 2.214c1.231 0 1.9-.892 1.9-2.214zm-3.378 0c0-1.156.495-1.891 1.478-1.9.983 0 1.479.752 1.479 1.9 0 1.157-.487 1.892-1.479 1.892-.983 0-1.478-.735-1.478-1.892zm4.326 2.123a.071.071 0 00.066-.066l-.016-2.577c.157-.909.76-1.305 1.371-1.305.124 0 .223.008.306.033.033.008.066-.017.066-.05v-.223a.089.089 0 00-.066-.083 1.036 1.036 0 00-.29-.033c-.578 0-1.115.323-1.396.9l.025-.784a.071.071 0 00-.066-.066h-.289a.071.071 0 00-.066.066l.025 1.99-.025 2.132c0 .033.033.066.066.066h.289zm5.011-1.503c-.033 0-.074.025-.074.066-.14.752-.578 1.206-1.346 1.206-1.008 0-1.512-.702-1.512-1.9l3.213-.008a.071.071 0 00.066-.066c-.024-1.355-.702-2.14-1.825-2.14-1.148 0-1.867.925-1.867 2.23 0 1.306.661 2.206 1.916 2.206 1.016 0 1.595-.595 1.752-1.528 0-.033-.025-.066-.058-.066h-.265zm-.09-.967h-2.826c.1-.95.595-1.553 1.438-1.553.9 0 1.379.694 1.388 1.553zm6.133 2.47c.042 0 .075-.024.083-.066l1.148-4.122a.052.052 0 00-.049-.066h-.256c-.042 0-.075.025-.083.066l-1 3.775-1.049-3.775a.08.08 0 00-.082-.066h-.347c-.042 0-.075.025-.083.066l-.983 3.792-1.074-3.792a.08.08 0 00-.082-.066h-.281c-.033 0-.058.033-.05.066l1.239 4.122a.082.082 0 00.083.066h.33c.042 0 .075-.024.083-.066l.966-3.833 1.066 3.833c.008.042.041.066.083.066h.338zm2.089-4.808a.071.071 0 00.066-.066v-.446a.071.071 0 00-.066-.066h-.289c-.034 0-.067.033-.067.066v.446c0 .033.033.066.067.066h.289zm0 4.808a.071.071 0 00.066-.066l-.009-2.189.009-1.933a.071.071 0 00-.066-.066h-.289c-.034 0-.067.033-.067.066l.017 1.941-.017 2.181c0 .033.033.066.067.066h.289zm2.679-.28c0-.034-.033-.058-.066-.05a2.148 2.148 0 01-.422.041c-.413 0-.586-.19-.586-.826v-2.8h1.008a.071.071 0 00.066-.066v-.207a.071.071 0 00-.066-.066h-1.008l.008-1a.071.071 0 00-.066-.066h-.289a.071.071 0 00-.066.066l.016 1h-.487a.071.071 0 00-.066.066v.207c0 .033.033.066.066.066h.487l-.008 2.8c0 .9.413 1.181.966 1.181.149 0 .323-.033.447-.066a.08.08 0 00.066-.082V6.41zm3.34-2.314l.008.81-.017 1.718c0 .033.033.066.066.066h.289c.034 0 .067-.033.067-.066l-.009-1.726v-.81c0-1.206-.528-1.751-1.396-1.751-.735 0-1.198.479-1.445.966l.024-2.33a.071.071 0 00-.066-.065h-.289a.071.071 0 00-.066.066l.025 2.759-.025 2.891c0 .033.033.066.066.066h.289a.071.071 0 00.066-.066l-.024-2.693c.28-.76.727-1.255 1.371-1.255.636 0 1.066.388 1.066 1.42zm4.449 2.669c.983-.05 1.734-.612 1.734-1.719 0-2.296-3.32-.917-3.32-2.668 0-.826.553-1.181 1.33-1.19.966-.008 1.412.463 1.462 1.38 0 .033.033.066.066.066h.297a.071.071 0 00.066-.066c-.074-1.066-.619-1.644-1.635-1.735v-.52a.071.071 0 00-.066-.066h-.281a.071.071 0 00-.066.066v.512c-.901.05-1.57.578-1.57 1.578 0 2.18 3.321.776 3.321 2.676 0 .95-.636 1.33-1.446 1.33-1.074 0-1.487-.627-1.553-1.668a.071.071 0 00-.066-.066h-.314a.071.071 0 00-.066.066c.058 1.165.611 1.9 1.702 2.007v.702c0 .033.033.066.066.066h.273a.071.071 0 00.066-.066v-.685zm6.116-2.966c0-1.884-.768-2.982-1.925-2.982-1.165 0-1.933 1.098-1.933 2.982 0 1.859.768 2.982 1.925 2.982 1.156 0 1.933-1.107 1.933-2.982zm-3.42 0c0-1.66.562-2.61 1.487-2.61.909 0 1.487.941 1.487 2.61s-.578 2.61-1.487 2.61c-.909 0-1.487-.95-1.487-2.61zm8.827 1.388c.008-.033-.025-.066-.058-.066h-.256c-.033 0-.066.033-.075.066-.066.801-.586 1.272-1.379 1.272-.992-.008-1.446-.727-1.446-1.883 0-1.157.463-1.9 1.446-1.9.727 0 1.222.388 1.338 1.14.008.04.041.066.074.066h.248c.033 0 .066-.033.058-.066-.091-.884-.694-1.47-1.718-1.47-1.223 0-1.867.9-1.867 2.23s.644 2.205 1.859 2.205c1.09 0 1.701-.669 1.776-1.594zm4.174-.62c0-1.33-.669-2.222-1.9-2.222-1.222 0-1.9.892-1.9 2.222s.678 2.214 1.9 2.214c1.231 0 1.9-.892 1.9-2.214zm-3.378 0c0-1.156.495-1.891 1.478-1.9.983 0 1.479.752 1.479 1.9 0 1.157-.487 1.892-1.479 1.892-.983 0-1.478-.735-1.478-1.892zm4.384-.628c.281-.768.677-1.255 1.272-1.255.611 0 1.008.38 1.008 1.412v.818l-.017 1.71c0 .033.033.066.066.066h.29a.071.071 0 00.066-.066l-.009-1.71v-.859c0-.1 0-.19-.008-.28.273-.67.653-1.091 1.206-1.091.611 0 1.008.38 1.008 1.412v.818l-.016 1.71c0 .033.033.066.066.066h.289a.071.071 0 00.066-.066l-.008-1.71v-.859c0-1.181-.496-1.718-1.314-1.718-.669 0-1.115.454-1.371.975-.174-.67-.612-.975-1.231-.975-.694 0-1.132.487-1.371.975l.016-.81a.071.071 0 00-.066-.066h-.281a.071.071 0 00-.066.066l.017 2.412-.025 1.71c0 .033.033.066.066.066h.297a.071.071 0 00.066-.066l-.016-1.71v-.975zm6.429 0c.281-.768.678-1.255 1.273-1.255.611 0 1.007.38 1.007 1.412v.818l-.016 1.71c0 .033.033.066.066.066h.289a.071.071 0 00.066-.066l-.008-1.71v-.859c0-.1 0-.19-.008-.28.272-.67.652-1.091 1.206-1.091.611 0 1.008.38 1.008 1.412v.818l-.017 1.71c0 .033.033.066.066.066h.289a.071.071 0 00.066-.066l-.008-1.71v-.859c0-1.181-.495-1.718-1.313-1.718-.669 0-1.115.454-1.372.975-.173-.67-.611-.975-1.23-.975-.694 0-1.132.487-1.372.975l.017-.81a.071.071 0 00-.066-.066h-.281a.071.071 0 00-.066.066l.016 2.412-.025 1.71c0 .033.033.066.067.066h.297a.071.071 0 00.066-.066l-.017-1.71v-.975zm6.414-2.057a.071.071 0 00.066-.066v-.446a.071.071 0 00-.066-.066h-.29a.071.071 0 00-.066.066v.446c0 .033.033.066.066.066h.29zm0 4.808a.071.071 0 00.066-.066l-.009-2.189.009-1.933a.071.071 0 00-.066-.066h-.29a.071.071 0 00-.066.066l.017 1.941-.017 2.181c0 .033.033.066.066.066h.29zm4.116-1.164c0-1.768-2.933-.769-2.933-2.024 0-.562.455-.843 1.157-.843.686 0 1.231.28 1.272.967 0 .033.033.066.066.066h.248a.071.071 0 00.066-.066c-.041-.884-.752-1.273-1.644-1.273-.909 0-1.561.397-1.561 1.165 0 1.652 2.932.653 2.932 2.032 0 .587-.52.917-1.247.917-.876 0-1.355-.388-1.379-1.222 0-.033-.034-.066-.067-.066h-.264a.071.071 0 00-.066.066c.025 1.04.702 1.528 1.768 1.528.925 0 1.652-.463 1.652-1.247zm3.808 0c0-1.768-2.933-.769-2.933-2.024 0-.562.455-.843 1.157-.843.685 0 1.231.28 1.272.967 0 .033.033.066.066.066h.248a.071.071 0 00.066-.066c-.041-.884-.752-1.273-1.644-1.273-.909 0-1.561.397-1.561 1.165 0 1.652 2.932.653 2.932 2.032 0 .587-.52.917-1.247.917-.876 0-1.355-.388-1.38-1.222a.071.071 0 00-.066-.066h-.264a.071.071 0 00-.066.066c.025 1.04.702 1.528 1.768 1.528.925 0 1.652-.463 1.652-1.247zm.966-3.644a.071.071 0 00.066-.066v-.446a.071.071 0 00-.066-.066h-.289a.071.071 0 00-.066.066v.446c0 .033.033.066.066.066h.289zm0 4.808a.071.071 0 00.066-.066l-.008-2.189.008-1.933a.071.071 0 00-.066-.066h-.289a.071.071 0 00-.066.066l.016 1.941-.016 2.181c0 .033.033.066.066.066h.289zm4.513-2.123c0-1.33-.669-2.222-1.9-2.222-1.223 0-1.9.892-1.9 2.222s.677 2.214 1.9 2.214c1.231 0 1.9-.892 1.9-2.214zm-3.379 0c0-1.156.496-1.891 1.479-1.9.983 0 1.478.752 1.478 1.9 0 1.157-.487 1.892-1.478 1.892-.983 0-1.479-.735-1.479-1.892zm4.335 2.123a.071.071 0 00.066-.066l-.008-1.76v-.925c.28-.776.71-1.255 1.346-1.255.644 0 1.074.388 1.074 1.412v.769l-.017 1.76c0 .032.033.065.067.065h.289a.071.071 0 00.066-.066l-.009-1.76v-.809c0-1.165-.528-1.718-1.387-1.718-.736 0-1.206.495-1.446.975l.017-.81c0-.033-.034-.066-.067-.066h-.28c-.033 0-.067.033-.067.066l.017 2.321-.017 1.801c0 .033.034.066.067.066h.289zm3.489.678a.116.116 0 00.1-.058l.338-.57a.299.299 0 00.033-.124v-.463a.071.071 0 00-.066-.066h-.314a.071.071 0 00-.066.066v.53l-.173.619c-.008.033.016.066.049.066h.099zm2.698-.678a.071.071 0 00.066-.066l-.008-1.76v-.925c.281-.776.711-1.255 1.347-1.255.644 0 1.074.388 1.074 1.412v.769l-.017 1.76c0 .032.033.065.066.065h.289a.071.071 0 00.066-.066l-.008-1.76v-.809c0-1.165-.529-1.718-1.388-1.718-.735 0-1.206.495-1.445.975l.016-.81a.071.071 0 00-.066-.066h-.281a.071.071 0 00-.066.066l.017 2.321-.017 1.801c0 .033.033.066.066.066h.289zm7.249-2.123c0-1.33-.669-2.222-1.9-2.222-1.223 0-1.9.892-1.9 2.222s.677 2.214 1.9 2.214c1.231 0 1.9-.892 1.9-2.214zm-3.379 0c0-1.156.496-1.891 1.479-1.9.983 0 1.479.752 1.479 1.9 0 1.157-.488 1.892-1.479 1.892-.983 0-1.479-.735-1.479-1.892zm5.675-.628c.281-.768.678-1.255 1.272-1.255.612 0 1.008.38 1.008 1.412v.818l-.016 1.71c0 .033.033.066.066.066h.289a.071.071 0 00.066-.066l-.008-1.71v-.859c0-.1 0-.19-.009-.28.273-.67.653-1.091 1.207-1.091.611 0 1.007.38 1.007 1.412v.818l-.016 1.71c0 .033.033.066.066.066h.289a.071.071 0 00.066-.066l-.008-1.71v-.859c0-1.181-.496-1.718-1.314-1.718-.669 0-1.115.454-1.371.975-.173-.67-.611-.975-1.231-.975-.694 0-1.132.487-1.371.975l.016-.81a.071.071 0 00-.066-.066h-.281a.071.071 0 00-.066.066l.017 2.412-.025 1.71c0 .033.033.066.066.066h.298a.071.071 0 00.066-.066l-.017-1.71v-.975zm6.413-2.057a.071.071 0 00.066-.066v-.446a.071.071 0 00-.066-.066h-.289a.071.071 0 00-.066.066v.446c0 .033.033.066.066.066h.289zm0 4.808a.071.071 0 00.066-.066l-.008-2.189.008-1.933a.071.071 0 00-.066-.066h-.289a.071.071 0 00-.066.066l.017 1.941-.017 2.181c0 .033.033.066.066.066h.289zm1.242 0a.071.071 0 00.066-.066l-.008-1.76v-.925c.281-.776.71-1.255 1.346-1.255.645 0 1.074.388 1.074 1.412v.769l-.016 1.76c0 .032.033.065.066.065h.289a.071.071 0 00.066-.066l-.008-1.76v-.809c0-1.165-.529-1.718-1.388-1.718-.735 0-1.206.495-1.446.975l.017-.81a.071.071 0 00-.066-.066h-.281a.071.071 0 00-.066.066l.016 2.321-.016 1.801c0 .033.033.066.066.066h.289zm4.01-4.808a.071.071 0 00.066-.066v-.446a.071.071 0 00-.066-.066h-.289a.071.071 0 00-.066.066v.446c0 .033.033.066.066.066h.289zm0 4.808a.071.071 0 00.066-.066l-.008-2.189.008-1.933a.071.071 0 00-.066-.066h-.289a.071.071 0 00-.066.066l.016 1.941-.016 2.181c0 .033.033.066.066.066h.289zm1.291-2.75c.281-.769.678-1.256 1.272-1.256.612 0 1.008.38 1.008 1.412v.818l-.016 1.71c0 .033.033.066.066.066h.289a.071.071 0 00.066-.066l-.008-1.71v-.859c0-.1 0-.19-.008-.28.272-.67.652-1.091 1.206-1.091.611 0 1.008.38 1.008 1.412v.818l-.017 1.71c0 .033.033.066.066.066h.289a.071.071 0 00.066-.066l-.008-1.71v-.859c0-1.181-.496-1.718-1.313-1.718-.67 0-1.116.454-1.372.975-.173-.67-.611-.975-1.231-.975-.694 0-1.131.487-1.371.975l.017-.81c0-.033-.033-.066-.067-.066h-.28a.071.071 0 00-.066.066l.016 2.412-.025 1.71c0 .033.033.066.066.066h.298a.071.071 0 00.066-.066l-.017-1.71v-.975zm8.826 1.875l-.017.81c0 .032.033.065.066.065h.281a.071.071 0 00.066-.066l-.016-2.321.016-1.801a.071.071 0 00-.066-.066h-.289a.071.071 0 00-.066.066l.008 1.76v.925c-.281.776-.71 1.255-1.346 1.255-.645 0-1.074-.388-1.074-1.412v-.768l.016-1.76a.071.071 0 00-.066-.066h-.289a.071.071 0 00-.066.066l.008 1.76v.81c0 1.164.529 1.717 1.388 1.717.735 0 1.206-.495 1.446-.974zm1.581-1.876c.281-.768.678-1.255 1.272-1.255.612 0 1.008.38 1.008 1.412v.818l-.016 1.71c0 .033.033.066.066.066h.289a.071.071 0 00.066-.066l-.008-1.71v-.859c0-.1 0-.19-.009-.28.273-.67.653-1.091 1.207-1.091.611 0 1.007.38 1.007 1.412v.818l-.016 1.71c0 .033.033.066.066.066h.289a.071.071 0 00.066-.066l-.008-1.71v-.859c0-1.181-.496-1.718-1.314-1.718-.669 0-1.115.454-1.371.975-.173-.67-.611-.975-1.231-.975-.694 0-1.132.487-1.371.975l.016-.81a.071.071 0 00-.066-.066h-.281a.071.071 0 00-.066.066l.017 2.412-.025 1.71c0 .033.033.066.066.066h.298a.071.071 0 00.066-.066l-.017-1.71v-.975zm7.547.587c0-1.033.43-1.867 1.388-1.867.859 0 1.363.735 1.355 1.95-.009 1.222-.562 1.842-1.372 1.842-.95 0-1.371-.86-1.371-1.925zm3.057 2.164a.071.071 0 00.066-.066l-.017-3.395.017-2.255a.071.071 0 00-.066-.066h-.289c-.034 0-.067.033-.067.066l.009 2.263c-.273-.578-.76-.892-1.413-.892-1.099 0-1.702 1-1.702 2.222 0 1.24.587 2.206 1.702 2.206.677 0 1.165-.355 1.429-.942l-.016.793c0 .033.033.066.066.066h.281zm4.006-1.503c-.033 0-.074.025-.074.066-.14.752-.578 1.206-1.346 1.206-1.008 0-1.512-.702-1.512-1.9l3.213-.008a.071.071 0 00.066-.066c-.024-1.355-.702-2.14-1.825-2.14-1.149 0-1.867.925-1.867 2.23 0 1.306.661 2.206 1.916 2.206 1.016 0 1.595-.595 1.752-1.528 0-.033-.025-.066-.058-.066h-.265zm-.09-.967h-2.826c.099-.95.595-1.553 1.438-1.553.9 0 1.379.694 1.388 1.553zm1.412.298c.009-1.223.554-1.85 1.372-1.85.95 0 1.371.858 1.371 1.932 0 1.025-.43 1.85-1.38 1.85-.867 0-1.371-.718-1.363-1.932zm3.156.033c0-1.24-.595-2.206-1.702-2.206-.669 0-1.165.364-1.437.95l.016-.793a.071.071 0 00-.066-.066h-.281a.071.071 0 00-.066.066l.025 2.23-.025 3.297c0 .033.033.066.066.066h.298a.071.071 0 00.066-.066l-.025-2.157c.273.587.76.9 1.421.9 1.099 0 1.71-.999 1.71-2.221zm4.23.016c0-1.33-.669-2.222-1.9-2.222-1.223 0-1.9.892-1.9 2.222s.677 2.214 1.9 2.214c1.231 0 1.9-.892 1.9-2.214zm-3.379 0c0-1.156.496-1.891 1.479-1.9.983 0 1.478.752 1.478 1.9 0 1.157-.487 1.892-1.478 1.892-.983 0-1.479-.735-1.479-1.892zm7.193.959c0-1.768-2.932-.769-2.932-2.024 0-.562.454-.843 1.156-.843.686 0 1.231.28 1.272.967 0 .033.033.066.066.066h.248a.071.071 0 00.066-.066c-.041-.884-.751-1.273-1.644-1.273-.908 0-1.561.397-1.561 1.165 0 1.652 2.933.653 2.933 2.032 0 .587-.521.917-1.248.917-.875 0-1.354-.388-1.379-1.222a.071.071 0 00-.066-.066h-.265a.071.071 0 00-.066.066c.025 1.04.702 1.528 1.768 1.528.925 0 1.652-.463 1.652-1.247zm.966-3.644a.071.071 0 00.066-.066v-.446a.071.071 0 00-.066-.066h-.289a.071.071 0 00-.066.066v.446c0 .033.033.066.066.066h.289zm0 4.808a.071.071 0 00.066-.066l-.008-2.189.008-1.933a.071.071 0 00-.066-.066h-.289a.071.071 0 00-.066.066l.017 1.941-.017 2.181c0 .033.033.066.066.066h.289zm2.679-.28c0-.034-.033-.058-.066-.05a2.13 2.13 0 01-.421.041c-.413 0-.587-.19-.587-.826v-2.8h1.008a.071.071 0 00.066-.066v-.207a.071.071 0 00-.066-.066h-1.008l.009-1a.071.071 0 00-.066-.066h-.29a.071.071 0 00-.066.066l.017 1h-.488a.071.071 0 00-.066.066v.207c0 .033.033.066.066.066h.488l-.008 2.8c0 .9.413 1.181.966 1.181.149 0 .322-.033.446-.066a.08.08 0 00.066-.082V6.41zm.455.958a.113.113 0 00.099-.058l.339-.57a.299.299 0 00.033-.124v-.463a.071.071 0 00-.066-.066h-.314a.071.071 0 00-.066.066v.53l-.173.619a.052.052 0 00.049.066h.099zm2.526-2.842c0-1.033.429-1.85 1.388-1.85.859 0 1.363.718 1.355 1.933-.009 1.214-.546 1.833-1.372 1.833-.95 0-1.371-.85-1.371-1.916zm3.056 2.164c.033 0 .067-.033.067-.066l-.025-2.14.025-1.982c0-.033-.034-.066-.067-.066h-.28c-.033 0-.067.033-.067.066l.017.768c-.273-.594-.76-.917-1.429-.917-1.099 0-1.702.992-1.702 2.214 0 1.24.587 2.198 1.702 2.198.677 0 1.165-.356 1.429-.942l-.017.801c0 .033.034.066.067.066h.28zm1.19 0a.071.071 0 00.066-.066l-.008-1.76v-.925c.281-.776.71-1.255 1.347-1.255.644 0 1.073.388 1.073 1.412v.769l-.016 1.76c0 .032.033.065.066.065h.289a.071.071 0 00.066-.066l-.008-1.76v-.809c0-1.165-.529-1.718-1.388-1.718-.735 0-1.206.495-1.446.975l.017-.81a.071.071 0 00-.066-.066h-.281a.071.071 0 00-.066.066l.016 2.321-.016 1.801c0 .033.033.066.066.066h.289zm3.853-2.164c0-1.033.43-1.867 1.388-1.867.859 0 1.363.735 1.355 1.95-.008 1.222-.562 1.842-1.371 1.842-.95 0-1.372-.86-1.372-1.925zm3.057 2.164a.071.071 0 00.066-.066l-.016-3.395.016-2.255a.071.071 0 00-.066-.066h-.289a.071.071 0 00-.066.066l.008 2.263c-.273-.578-.76-.892-1.413-.892-1.098 0-1.701 1-1.701 2.222 0 1.24.586 2.206 1.701 2.206.678 0 1.165-.355 1.43-.942l-.017.793c0 .033.033.066.066.066h.281zm5.298-1.503c-.033 0-.075.025-.075.066-.14.752-.578 1.206-1.346 1.206-1.008 0-1.512-.702-1.512-1.9l3.213-.008c.033 0 .067-.033.067-.066-.025-1.355-.703-2.14-1.826-2.14-1.148 0-1.867.925-1.867 2.23 0 1.306.661 2.206 1.916 2.206 1.017 0 1.595-.595 1.752-1.528 0-.033-.025-.066-.058-.066h-.264zm-.091-.967h-2.826c.1-.95.595-1.553 1.438-1.553.9 0 1.379.694 1.388 1.553zm1.429 2.47a.071.071 0 00.066-.066l-.016-2.9.016-2.75a.071.071 0 00-.066-.066h-.289a.071.071 0 00-.066.066l.025 2.767-.025 2.883c0 .033.033.066.066.066h.289zm1.267-4.808a.071.071 0 00.066-.066v-.446a.071.071 0 00-.066-.066h-.29a.071.071 0 00-.066.066v.446c0 .033.033.066.066.066h.29zm0 4.808a.071.071 0 00.066-.066l-.009-2.189.009-1.933a.071.071 0 00-.066-.066h-.29a.071.071 0 00-.066.066l.017 1.941-.017 2.181c0 .033.033.066.066.066h.29zm2.679-.28c0-.034-.033-.058-.067-.05a2.13 2.13 0 01-.421.041c-.413 0-.586-.19-.586-.826v-2.8h1.007c.034 0 .067-.033.067-.066v-.207c0-.033-.033-.066-.067-.066h-1.007l.008-1a.071.071 0 00-.066-.066h-.289a.071.071 0 00-.066.066l.016 1h-.487a.071.071 0 00-.066.066v.207c0 .033.033.066.066.066h.487l-.008 2.8c0 .9.413 1.181.966 1.181.149 0 .323-.033.446-.066a.08.08 0 00.067-.082V6.41zm3.452-1.223c-.033 0-.074.025-.074.066-.14.752-.578 1.206-1.346 1.206-1.008 0-1.512-.702-1.512-1.9l3.213-.008a.071.071 0 00.066-.066c-.024-1.355-.702-2.14-1.825-2.14-1.149 0-1.867.925-1.867 2.23 0 1.306.661 2.206 1.916 2.206 1.016 0 1.595-.595 1.752-1.528 0-.033-.025-.066-.058-.066h-.265zm-.09-.967h-2.826c.099-.95.595-1.553 1.438-1.553.9 0 1.379.694 1.388 1.553zm5.455.967c-.033 0-.074.025-.074.066-.141.752-.578 1.206-1.347 1.206-1.007 0-1.511-.702-1.511-1.9l3.213-.008a.071.071 0 00.066-.066c-.025-1.355-.702-2.14-1.825-2.14-1.149 0-1.867.925-1.867 2.23 0 1.306.66 2.206 1.916 2.206 1.016 0 1.594-.595 1.751-1.528 0-.033-.024-.066-.057-.066h-.265zm-.091-.967h-2.825c.099-.95.595-1.553 1.438-1.553.9 0 1.379.694 1.387 1.553zm3.915 2.47c.033 0 .049-.033.033-.058l-1.471-2.197 1.281-1.941c.016-.025 0-.058-.033-.058h-.298a.115.115 0 00-.099.058l-1.099 1.677-1.131-1.677a.116.116 0 00-.1-.058h-.338c-.033 0-.05.033-.033.058l1.313 1.941-1.462 2.197c-.017.025 0 .058.033.058h.306a.115.115 0 00.099-.058l1.272-1.916 1.28 1.917a.116.116 0 00.1.057h.347zm3.421-1.503c-.033 0-.075.025-.075.066-.14.752-.578 1.206-1.346 1.206-1.008 0-1.512-.702-1.512-1.9l3.214-.008a.071.071 0 00.066-.066c-.025-1.355-.703-2.14-1.826-2.14-1.148 0-1.867.925-1.867 2.23 0 1.306.661 2.206 1.917 2.206 1.016 0 1.594-.595 1.751-1.528 0-.033-.025-.066-.058-.066h-.264zm-.091-.967h-2.825c.099-.95.594-1.553 1.437-1.553.9 0 1.38.694 1.388 1.553zm4.502.967c.009-.033-.025-.066-.058-.066h-.256c-.033 0-.066.033-.074.066-.066.801-.587 1.272-1.38 1.272-.991-.008-1.445-.727-1.445-1.883 0-1.157.462-1.9 1.445-1.9.727 0 1.223.388 1.339 1.14.008.04.041.066.074.066h.248c.033 0 .066-.033.058-.066-.091-.884-.694-1.47-1.719-1.47-1.222 0-1.867.9-1.867 2.23s.645 2.205 1.859 2.205c1.091 0 1.702-.669 1.776-1.594zm3.349.628l-.017.81c0 .032.033.065.066.065h.281a.071.071 0 00.066-.066l-.016-2.321.016-1.801a.071.071 0 00-.066-.066H305a.071.071 0 00-.066.066l.008 1.76v.925c-.281.776-.71 1.255-1.346 1.255-.645 0-1.074-.388-1.074-1.412v-.768l.016-1.76a.071.071 0 00-.066-.066h-.289a.071.071 0 00-.066.066l.008 1.76v.81c0 1.164.529 1.717 1.388 1.717.735 0 1.206-.495 1.446-.974zm2.969.594c0-.033-.033-.057-.066-.05a2.137 2.137 0 01-.421.042c-.413 0-.587-.19-.587-.826v-2.8h1.008a.071.071 0 00.066-.066v-.207a.071.071 0 00-.066-.066h-1.008l.009-1c0-.033-.034-.066-.067-.066h-.289a.071.071 0 00-.066.066l.017 1h-.488a.071.071 0 00-.066.066v.207c0 .033.033.066.066.066h.488l-.009 2.8c0 .9.414 1.181.967 1.181.149 0 .322-.033.446-.066a.08.08 0 00.066-.082V6.41zm.903-4.527a.071.071 0 00.066-.066v-.446a.071.071 0 00-.066-.066h-.289a.071.071 0 00-.066.066v.446c0 .033.033.066.066.066h.289zm0 4.808a.071.071 0 00.066-.066l-.008-2.189.008-1.933a.071.071 0 00-.066-.066h-.289a.071.071 0 00-.066.066l.016 1.941-.016 2.181c0 .033.033.066.066.066h.289zm4.513-2.123c0-1.33-.669-2.222-1.9-2.222-1.223 0-1.9.892-1.9 2.222s.677 2.214 1.9 2.214c1.231 0 1.9-.892 1.9-2.214zm-3.379 0c0-1.156.496-1.891 1.479-1.9.983 0 1.479.752 1.479 1.9 0 1.157-.488 1.892-1.479 1.892-.983 0-1.479-.735-1.479-1.892zm4.335 2.123a.071.071 0 00.066-.066l-.008-1.76v-.925c.281-.776.71-1.255 1.346-1.255.645 0 1.074.388 1.074 1.412v.769l-.016 1.76c0 .032.033.065.066.065h.289a.071.071 0 00.066-.066l-.008-1.76v-.809c0-1.165-.529-1.718-1.388-1.718-.735 0-1.206.495-1.446.975l.017-.81a.071.071 0 00-.066-.066h-.281a.071.071 0 00-.066.066l.016 2.321-.016 1.801c0 .033.033.066.066.066h.289zm3.911 0a.071.071 0 00.066-.066v-.47a.071.071 0 00-.066-.067h-.388a.071.071 0 00-.066.066v.471c0 .033.033.066.066.066h.388z" fill="#fff"/></svg>