<svg width="99" height="36" viewBox="0 0 99 36" fill="none" xmlns="http://www.w3.org/2000/svg"><g filter="url(#filter0_d_12_23)"><rect x="6" y="6" width="86.948" height="24.265" rx="2.022" fill="url(#paint0_linear_12_23)" shape-rendering="crispEdges"/><path d="M15.565 20.132c.04 0 .073-.032.073-.073v-.46a.073.073 0 00-.073-.073h-2.782l-.032-2.111h2.556c.04 0 .072-.033.072-.073v-.461a.072.072 0 00-.072-.073H12.75l.032-1.73h2.718c.04 0 .072-.033.072-.074v-.46a.072.072 0 00-.072-.073h-3.422a.072.072 0 00-.072.072l.032 2.67-.032 2.846c0 .041.032.073.072.073h3.486zm1.59 0c.041 0 .073-.032.073-.073l-.008-1.706v-.631c.162-.825.599-1.262 1.149-1.262.517 0 .881.34.881 1.092v.8l-.016 1.707c0 .041.032.073.073.073h.599c.04 0 .072-.032.072-.073l-.016-1.706v-.833c0-1.084-.534-1.65-1.391-1.65-.663 0-1.132.38-1.391.8l.024-.63a.072.072 0 00-.073-.073h-.574a.072.072 0 00-.073.073l.016 2.192-.024 1.828c0 .04.033.072.073.072h.607zm6.801-1.448c-.04 0-.08.033-.089.073-.121.607-.493.93-1.108.93-.817 0-1.23-.533-1.253-1.536h3.073c.04 0 .073-.033.073-.073-.024-1.383-.736-2.208-1.941-2.208s-1.95.89-1.95 2.192c0 1.27.696 2.167 1.99 2.167 1.068 0 1.699-.622 1.828-1.472 0-.04-.024-.073-.065-.073h-.558zm-.097-1.05h-2.33c.106-.785.502-1.23 1.19-1.23.736 0 1.116.566 1.14 1.23zm2.276 2.498c.04 0 .073-.032.073-.073l-.008-2.183c.089-.914.695-1.343 1.4-1.343.088 0 .17.008.234.016a.06.06 0 00.073-.056v-.453c0-.04-.033-.081-.073-.09a1.587 1.587 0 00-1.658.793l.032-.703a.072.072 0 00-.073-.073h-.598a.073.073 0 00-.073.073l.024 1.965-.024 2.055c0 .04.032.072.073.072h.598zm2.755-2.119c0-.938.372-1.553 1.108-1.585h.17c.68.056 1.06.655 1.051 1.642-.008 1.027-.453 1.512-1.132 1.512-.793.008-1.197-.566-1.197-1.569zm3.017 1.836l-.008-2.216.016-1.593a.072.072 0 00-.073-.073h-.59a.073.073 0 00-.073.073l.024.574c-.275-.461-.72-.712-1.302-.712-1.124 0-1.755.955-1.755 2.136 0 1.188.615 2.07 1.78 2.07.582 0 1.027-.267 1.293-.728v.461c0 .938-.453 1.343-1.148 1.343-.582 0-.995-.235-1.076-.752-.008-.04-.04-.073-.08-.073h-.583c-.04 0-.073.032-.065.073.073.897.833 1.302 1.788 1.286 1.189 0 1.86-.672 1.852-1.869zm1.685-4.36c.04 0 .073-.032.073-.072v-.663a.072.072 0 00-.073-.073h-.607a.072.072 0 00-.072.073v.663c0 .04.032.073.072.073h.607zm0 4.643c.04 0 .073-.032.073-.073l-.016-2.078.016-1.941a.073.073 0 00-.073-.073h-.607a.072.072 0 00-.072.073l.016 1.949-.016 2.07c0 .041.032.073.072.073h.607zm4.211-.501a.072.072 0 00-.072-.073h-2.322l2.257-2.96a.244.244 0 00.04-.13v-.428a.072.072 0 00-.073-.073H34.77a.073.073 0 00-.073.073v.428c0 .04.033.073.073.073h2.03l-2.232 2.96a.245.245 0 00-.04.13v.428c0 .041.032.073.072.073h3.13c.04 0 .073-.032.073-.073v-.428zm3.647-.947c-.04 0-.08.033-.089.073-.121.607-.493.93-1.108.93-.817 0-1.23-.533-1.254-1.536h3.074c.04 0 .073-.033.073-.073-.025-1.383-.736-2.208-1.941-2.208-1.206 0-1.95.89-1.95 2.192 0 1.27.696 2.167 1.99 2.167 1.068 0 1.698-.622 1.828-1.472 0-.04-.024-.073-.065-.073h-.558zm-.097-1.05h-2.33c.106-.785.502-1.23 1.19-1.23.736 0 1.116.566 1.14 1.23zm6.662-1.594c.016-.04-.008-.073-.049-.073h-.615c-.04 0-.08.032-.097.073l-.995 3.138-1.18-3.146c-.017-.033-.057-.065-.098-.065h-.687c-.032 0-.057.032-.048.065l1.633 4.108-.445 1.294c-.016.041.017.073.049.073h.558c.04 0 .08-.032.097-.073l1.877-5.394zm4.25 2.006c0-1.31-.704-2.176-1.974-2.176-1.262 0-1.974.873-1.974 2.192 0 1.31.712 2.167 1.974 2.167 1.27 0 1.973-.873 1.973-2.183zm-3.196.016c0-1.044.397-1.642 1.222-1.65.809 0 1.213.606 1.213 1.65 0 1.043-.396 1.625-1.213 1.625-.817 0-1.221-.582-1.221-1.625zm6.78 1.359l-.016.639c0 .04.032.072.073.072h.574c.04 0 .073-.032.073-.073l-.016-2.191.024-1.828a.072.072 0 00-.073-.073h-.615a.073.073 0 00-.072.073l.016 1.706v.631c-.162.825-.607 1.262-1.149 1.262-.526 0-.881-.34-.881-1.092v-.8l.016-1.707a.073.073 0 00-.073-.073h-.607a.072.072 0 00-.072.073l.016 1.706v.825c0 1.092.542 1.658 1.399 1.658.663 0 1.132-.38 1.383-.808zm2.336.711c.04 0 .073-.032.073-.073l-.008-2.183c.089-.914.695-1.343 1.399-1.343.089 0 .17.008.235.016a.06.06 0 00.072-.056v-.453c0-.04-.032-.081-.072-.09a1.587 1.587 0 00-1.658.793l.032-.703a.072.072 0 00-.073-.073h-.599a.073.073 0 00-.072.073l.024 1.965-.024 2.055c0 .04.032.072.072.072h.599zm6.162-.51c0-.032-.032-.064-.072-.048a2.087 2.087 0 01-.43.049c-.355 0-.525-.154-.525-.655V16.54h.955c.04 0 .072-.032.072-.073v-.428a.072.072 0 00-.072-.073h-.955l.008-.97a.073.073 0 00-.073-.073h-.598a.072.072 0 00-.073.072l.008.97h-.46a.073.073 0 00-.074.074v.428c0 .04.033.073.073.073h.461v2.443c0 .906.51 1.221 1.116 1.221.195 0 .405-.048.567-.097.04-.016.072-.057.072-.097v-.388zm1.428.51c.04 0 .072-.032.072-.073l-.008-2.183c.09-.914.696-1.343 1.4-1.343.089 0 .17.008.234.016a.06.06 0 00.073-.056v-.453c0-.04-.032-.081-.073-.09a1.587 1.587 0 00-1.658.793l.032-.703a.073.073 0 00-.072-.073h-.599a.072.072 0 00-.073.073l.025 1.965-.025 2.055c0 .04.033.072.073.072h.599zm2.763-2.127c0-.906.347-1.545 1.1-1.577h.17c.679.056 1.059.655 1.05 1.658-.007 1.052-.444 1.585-1.164 1.585-.784 0-1.156-.671-1.156-1.666zm2.952 2.127c.04 0 .073-.032.073-.073l-.025-2.046.025-1.973a.072.072 0 00-.073-.073h-.599a.073.073 0 00-.073.073l.017.558c-.275-.461-.72-.712-1.31-.712-1.1 0-1.74.97-1.74 2.176 0 1.205.599 2.151 1.723 2.151.607 0 1.052-.283 1.335-.752l-.017.599c0 .04.033.072.073.072h.59zm1.652-2.127c0-.938.372-1.601 1.173-1.593.736.008 1.157.623 1.148 1.674-.008 1.06-.453 1.593-1.164 1.593-.785 0-1.157-.67-1.157-1.674zm2.952 2.127c.04 0 .073-.032.073-.073l-.016-3.065.016-2.45a.072.072 0 00-.073-.073h-.598a.072.072 0 00-.073.072l.008 2.039c-.283-.453-.728-.696-1.302-.696-1.1 0-1.74.97-1.74 2.176 0 1.213.6 2.151 1.724 2.151.598 0 1.051-.275 1.326-.736l-.016.582c0 .041.032.073.073.073h.598zm1.758-4.642c.04 0 .073-.033.073-.073v-.663a.072.072 0 00-.073-.073h-.607a.072.072 0 00-.073.073v.663c0 .04.033.073.073.073h.607zm0 4.642c.04 0 .073-.032.073-.073l-.016-2.078.016-1.941a.073.073 0 00-.073-.073h-.607a.072.072 0 00-.073.073l.017 1.949-.016 2.07c0 .041.032.073.072.073h.607zm1.752 0c.04 0 .073-.032.073-.073l-.008-1.706v-.631c.162-.825.599-1.262 1.148-1.262.518 0 .882.34.882 1.092v.8l-.016 1.707c0 .041.032.073.073.073h.598c.04 0 .073-.032.073-.073l-.016-1.706v-.833c0-1.084-.534-1.65-1.391-1.65-.663 0-1.133.38-1.391.8l.024-.63a.072.072 0 00-.073-.073h-.574a.072.072 0 00-.073.073l.016 2.192-.024 1.828c0 .04.032.072.073.072h.606zm4.35-2.119c0-.938.372-1.553 1.108-1.585h.17c.68.056 1.06.655 1.052 1.642-.009 1.027-.453 1.512-1.133 1.512-.792.008-1.197-.566-1.197-1.569zm3.017 1.836l-.008-2.216.016-1.593a.072.072 0 00-.073-.073h-.59a.072.072 0 00-.073.073l.025.574c-.275-.461-.72-.712-1.303-.712-1.124 0-1.755.955-1.755 2.136 0 1.188.615 2.07 1.78 2.07.582 0 1.027-.267 1.294-.728v.461c0 .938-.453 1.343-1.149 1.343-.582 0-.995-.235-1.076-.752-.008-.04-.04-.073-.08-.073h-.583c-.04 0-.073.032-.065.073.073.897.834 1.302 1.788 1.286 1.189 0 1.86-.672 1.852-1.869z" fill="#fff"/></g><defs><linearGradient id="paint0_linear_12_23" x1="9.532" y1="18.132" x2="92.948" y2="18.132" gradientUnits="userSpaceOnUse"><stop stop-color="#078A04"/><stop offset="1" stop-color="#014C0C"/></linearGradient><filter id="filter0_d_12_23" x=".945" y=".945" width="97.058" height="34.375" filterUnits="userSpaceOnUse" color-interpolation-filters="sRGB"><feFlood flood-opacity="0" result="BackgroundImageFix"/><feColorMatrix in="SourceAlpha" values="0 0 0 0 0 0 0 0 0 0 0 0 0 0 0 0 0 0 127 0" result="hardAlpha"/><feOffset/><feGaussianBlur stdDeviation="2.528"/><feComposite in2="hardAlpha" operator="out"/><feColorMatrix values="0 0 0 0 0 0 0 0 0 0 0 0 0 0 0 0 0 0 0.16 0"/><feBlend in2="BackgroundImageFix" result="effect1_dropShadow_12_23"/><feBlend in="SourceGraphic" in2="effect1_dropShadow_12_23" result="shape"/></filter></defs></svg>