<svg width="76" height="24" viewBox="0 0 76 24" fill="none" xmlns="http://www.w3.org/2000/svg"><g filter="url(#filter0_d_5_416)"><rect x="4.474" y="4.713" width="67.052" height="14.375" rx="1.629" fill="url(#paint0_linear_5_416)" shape-rendering="crispEdges"/><path d="M10.686 13.4a.058.058 0 00.059-.058v-.371a.058.058 0 00-.06-.06h-2.24l-.026-1.7h2.058a.058.058 0 00.059-.058v-.372a.058.058 0 00-.059-.058H8.42l.026-1.394h2.189a.058.058 0 00.058-.06V8.9a.058.058 0 00-.058-.06H7.878a.058.058 0 00-.059.06l.026 2.15-.026 2.293c0 .032.026.059.059.059h2.808zm1.28 0a.058.058 0 00.06-.058l-.007-1.375v-.508c.13-.665.482-1.016.925-1.016.417 0 .71.273.71.88v.644l-.013 1.375c0 .032.026.059.059.059h.482a.058.058 0 00.059-.06l-.013-1.374v-.67c0-.874-.43-1.33-1.121-1.33-.534 0-.912.306-1.12.645l.019-.508a.058.058 0 00-.059-.059h-.462a.058.058 0 00-.059.059l.013 1.766-.02 1.472c0 .032.027.059.06.059h.488zm5.479-1.166a.076.076 0 00-.072.059c-.098.489-.397.75-.892.75-.658 0-.99-.43-1.01-1.239h2.476a.058.058 0 00.058-.058c-.02-1.114-.593-1.779-1.563-1.779-.971 0-1.57.717-1.57 1.766 0 1.023.56 1.746 1.602 1.746.86 0 1.368-.502 1.473-1.186 0-.033-.02-.059-.053-.059h-.45zm-.078-.847H15.49c.085-.632.404-.99.958-.99.593 0 .9.456.919.99zm1.833 2.014a.058.058 0 00.059-.06l-.007-1.758c.072-.736.56-1.082 1.127-1.082.072 0 .137.007.19.013a.049.049 0 00.058-.045v-.365a.076.076 0 00-.059-.072 1.279 1.279 0 00-1.336.639l.027-.567a.058.058 0 00-.059-.059h-.482a.058.058 0 00-.059.059l.02 1.583-.02 1.655c0 .032.026.059.059.059h.482zm2.22-1.707c0-.756.299-1.251.892-1.277h.137c.547.045.853.527.846 1.322-.006.828-.364 1.218-.912 1.218-.638.007-.964-.456-.964-1.263zm2.43 1.478l-.007-1.785.013-1.283a.058.058 0 00-.059-.059h-.475a.058.058 0 00-.059.059l.02.463c-.222-.372-.58-.574-1.05-.574-.905 0-1.413.769-1.413 1.72 0 .958.495 1.668 1.433 1.668.47 0 .828-.215 1.043-.586v.371c0 .756-.365 1.082-.926 1.082-.469 0-.801-.19-.866-.606-.007-.033-.033-.059-.065-.059h-.47c-.032 0-.058.026-.052.059.06.723.672 1.049 1.44 1.036.958 0 1.499-.541 1.492-1.506zm1.357-3.511a.058.058 0 00.058-.059v-.534a.058.058 0 00-.058-.059h-.489a.058.058 0 00-.058.059v.534c0 .033.026.059.058.059h.489zm0 3.74a.058.058 0 00.058-.06l-.013-1.673.013-1.564a.058.058 0 00-.058-.059h-.489a.058.058 0 00-.058.059l.012 1.57-.012 1.668c0 .032.026.059.058.059h.489zm3.392-.404a.058.058 0 00-.059-.059h-1.87l1.818-2.385a.196.196 0 00.033-.104v-.345a.058.058 0 00-.059-.059h-2.306a.058.058 0 00-.059.059v.345c0 .033.026.059.059.059h1.635l-1.798 2.384a.196.196 0 00-.033.105v.345c0 .032.026.059.059.059h2.521a.058.058 0 00.059-.06v-.344zm2.938-.763a.076.076 0 00-.072.059c-.098.489-.398.75-.893.75-.658 0-.99-.43-1.01-1.239h2.476a.058.058 0 00.059-.058c-.02-1.114-.593-1.779-1.564-1.779-.97 0-1.57.717-1.57 1.766 0 1.023.56 1.746 1.603 1.746.86 0 1.368-.502 1.472-1.186 0-.033-.02-.059-.052-.059h-.45zm-.079-.847h-1.876c.085-.632.404-.99.958-.99.593 0 .899.456.918.99zm5.366-1.283c.013-.033-.006-.059-.039-.059h-.495c-.032 0-.065.026-.078.059l-.801 2.528-.952-2.535c-.013-.026-.045-.052-.078-.052h-.554c-.026 0-.045.026-.039.052l1.316 3.31-.358 1.043a.042.042 0 00.04.058h.449c.032 0 .065-.026.078-.058l1.511-4.346zm3.424 1.616c0-1.056-.567-1.753-1.59-1.753-1.016 0-1.59.704-1.59 1.766 0 1.055.574 1.746 1.59 1.746 1.023 0 1.59-.704 1.59-1.76zm-2.574.013c0-.84.32-1.323.984-1.33.651 0 .977.49.977 1.33 0 .84-.319 1.31-.977 1.31-.658 0-.984-.47-.984-1.31zm5.461 1.094l-.013.515c0 .032.026.059.059.059h.462a.058.058 0 00.059-.06l-.013-1.765.02-1.472a.058.058 0 00-.06-.059h-.494a.058.058 0 00-.059.059l.013 1.375v.508c-.13.664-.489 1.016-.925 1.016-.423 0-.71-.274-.71-.88v-.644l.013-1.375a.058.058 0 00-.059-.059h-.488a.058.058 0 00-.06.059l.014 1.375v.664c0 .88.437 1.336 1.127 1.336.534 0 .912-.306 1.114-.652zm1.882.574a.058.058 0 00.058-.06l-.006-1.758c.072-.736.56-1.082 1.127-1.082.072 0 .137.007.19.013a.049.049 0 00.058-.045v-.365a.076.076 0 00-.059-.072 1.279 1.279 0 00-1.336.639l.026-.567a.058.058 0 00-.058-.059h-.482a.058.058 0 00-.059.059l.02 1.583-.02 1.655c0 .032.026.059.059.059h.482zm4.964-.41c0-.027-.026-.053-.059-.04-.091.02-.215.04-.345.04-.287 0-.424-.125-.424-.529v-1.954h.77a.058.058 0 00.058-.059v-.345a.058.058 0 00-.059-.059h-.769l.007-.782a.058.058 0 00-.059-.058h-.482a.058.058 0 00-.059.058l.007.782h-.371a.058.058 0 00-.06.059v.345c0 .033.027.059.06.059h.37v1.967c0 .73.411.984.9.984.156 0 .326-.039.456-.078.033-.013.059-.046.059-.078v-.313zm1.15.41a.058.058 0 00.058-.06l-.006-1.758c.071-.736.56-1.082 1.127-1.082.071 0 .136.007.189.013a.049.049 0 00.058-.045v-.365a.076.076 0 00-.058-.072 1.279 1.279 0 00-1.336.639l.026-.567a.058.058 0 00-.059-.059h-.482a.058.058 0 00-.058.059l.02 1.583-.02 1.655c0 .032.026.059.058.059h.482zm2.225-1.714c0-.73.28-1.244.886-1.27h.137c.547.045.853.527.847 1.335-.007.847-.358 1.277-.938 1.277-.632 0-.932-.54-.932-1.342zm2.378 1.714a.058.058 0 00.059-.06l-.02-1.647.02-1.59a.058.058 0 00-.059-.059h-.482a.058.058 0 00-.059.059l.013.45c-.221-.372-.58-.574-1.055-.574-.886 0-1.4.782-1.4 1.753 0 .97.481 1.733 1.387 1.733.489 0 .847-.228 1.075-.606l-.013.482c0 .032.026.059.058.059h.476zm1.331-1.714c0-.756.3-1.29.945-1.283.593.006.931.501.925 1.348-.007.854-.365 1.284-.938 1.284-.632 0-.932-.541-.932-1.349zm2.378 1.714a.058.058 0 00.059-.06l-.013-2.468.013-1.974a.058.058 0 00-.059-.06h-.482a.058.058 0 00-.059.06l.007 1.641c-.228-.364-.587-.56-1.049-.56-.886 0-1.4.782-1.4 1.753 0 .977.481 1.733 1.387 1.733.482 0 .847-.222 1.068-.593l-.013.469c0 .032.026.059.059.059h.482zm1.416-3.74a.058.058 0 00.058-.059v-.534a.058.058 0 00-.058-.059h-.489a.058.058 0 00-.058.059v.534c0 .033.026.059.058.059h.489zm0 3.74a.058.058 0 00.058-.06l-.013-1.673.013-1.564a.058.058 0 00-.058-.059h-.489a.058.058 0 00-.058.059l.013 1.57-.013 1.668c0 .032.026.059.058.059h.489zm1.411 0a.058.058 0 00.06-.06l-.007-1.374v-.508c.13-.665.482-1.016.925-1.016.417 0 .71.273.71.88v.644l-.013 1.375c0 .032.026.059.059.059h.482a.058.058 0 00.058-.06l-.013-1.374v-.67c0-.874-.43-1.33-1.12-1.33-.535 0-.913.306-1.121.645l.02-.508a.058.058 0 00-.059-.059h-.463a.058.058 0 00-.058.059l.013 1.766-.02 1.472c0 .032.026.059.059.059h.489zm3.505-1.707c0-.756.3-1.251.892-1.277h.137c.547.045.853.527.847 1.322-.007.828-.365 1.218-.912 1.218-.639.007-.965-.456-.965-1.263zm2.43 1.478l-.007-1.785.013-1.283a.058.058 0 00-.058-.059h-.476a.058.058 0 00-.059.059l.02.463c-.222-.372-.58-.574-1.05-.574-.905 0-1.413.769-1.413 1.72 0 .958.495 1.668 1.433 1.668.47 0 .828-.215 1.043-.586v.371c0 .756-.365 1.082-.925 1.082-.47 0-.802-.19-.867-.606-.006-.033-.032-.059-.065-.059h-.47c-.032 0-.058.026-.051.059.058.723.67 1.049 1.44 1.036.957 0 1.498-.541 1.492-1.506z" fill="#fff"/></g><defs><linearGradient id="paint0_linear_5_416" x1="7.198" y1="11.901" x2="71.526" y2="11.9" gradientUnits="userSpaceOnUse"><stop stop-color="#078A04"/><stop offset="1" stop-color="#014C0C"/></linearGradient><filter id="filter0_d_5_416" x=".402" y=".641" width="75.196" height="22.519" filterUnits="userSpaceOnUse" color-interpolation-filters="sRGB"><feFlood flood-opacity="0" result="BackgroundImageFix"/><feColorMatrix in="SourceAlpha" values="0 0 0 0 0 0 0 0 0 0 0 0 0 0 0 0 0 0 127 0" result="hardAlpha"/><feOffset/><feGaussianBlur stdDeviation="2.036"/><feComposite in2="hardAlpha" operator="out"/><feColorMatrix values="0 0 0 0 0 0 0 0 0 0 0 0 0 0 0 0 0 0 0.16 0"/><feBlend in2="BackgroundImageFix" result="effect1_dropShadow_5_416"/><feBlend in="SourceGraphic" in2="effect1_dropShadow_5_416" result="shape"/></filter></defs></svg>