<svg width="186" height="8" viewBox="0 0 186 8" fill="none" xmlns="http://www.w3.org/2000/svg"><path d="M1.828 5.692a.059.059 0 00.054-.054l-.02-2.295.013-2.13h1.339a.059.059 0 00.055-.056v-.19a.059.059 0 00-.055-.055H.174A.059.059 0 00.12.966v.191c0 .028.027.055.055.055h1.338l.02 2.13-.02 2.296c0 .027.028.054.055.054h.26zm1.44 0a.059.059 0 00.054-.054L3.31 3.507c.13-.751.628-1.08 1.133-1.08.103 0 .185.008.253.028.027.007.055-.014.055-.04V2.23a.074.074 0 00-.055-.069.852.852 0 00-.24-.027c-.477 0-.921.266-1.153.744l.02-.648a.059.059 0 00-.054-.055h-.24a.059.059 0 00-.054.055l.02 1.646-.02 1.762c0 .027.027.054.054.054h.24zm1.711-1.789c0-.854.356-1.53 1.148-1.53.71 0 1.127.594 1.12 1.598-.007 1.004-.45 1.516-1.134 1.516-.785 0-1.134-.703-1.134-1.584zm2.527 1.79a.059.059 0 00.055-.055l-.02-1.77.02-1.638a.059.059 0 00-.055-.055h-.232a.059.059 0 00-.054.055l.013.635c-.225-.492-.628-.758-1.181-.758-.909 0-1.407.82-1.407 1.83 0 1.025.485 1.817 1.407 1.817.56 0 .963-.294 1.181-.779l-.013.663c0 .027.027.054.054.054h.232zm.882-1.79c0-.854.355-1.544 1.147-1.544.71 0 1.127.608 1.12 1.612-.007 1.011-.464 1.523-1.134 1.523-.785 0-1.133-.71-1.133-1.591zm2.527 1.79c.027 0 .054-.028.054-.055l-.013-2.807.013-1.865c0-.027-.027-.054-.054-.054h-.24a.059.059 0 00-.054.054l.007 1.872c-.226-.479-.629-.738-1.168-.738-.909 0-1.407.826-1.407 1.837 0 1.025.485 1.824 1.407 1.824.56 0 .963-.294 1.181-.779l-.013.656c0 .027.027.054.054.054h.232zm1.01-3.976a.059.059 0 00.055-.054v-.369a.059.059 0 00-.055-.055h-.239a.059.059 0 00-.054.055v.369c0 .027.027.054.054.054h.24zm0 3.975a.059.059 0 00.055-.054l-.007-1.81.007-1.598a.059.059 0 00-.055-.055h-.239a.059.059 0 00-.054.055l.014 1.605-.014 1.803c0 .027.027.054.054.054h.24zm1.027 0a.059.059 0 00.055-.054L13 4.183v-.765c.232-.642.587-1.038 1.113-1.038.533 0 .888.32.888 1.168v.635l-.014 1.455c0 .027.027.054.055.054h.239a.059.059 0 00.054-.054l-.006-1.455v-.67c0-.962-.437-1.42-1.148-1.42-.607 0-.997.41-1.195.806l.014-.67c0-.027-.028-.054-.055-.054h-.232a.059.059 0 00-.055.055l.014 1.919-.014 1.489c0 .027.028.054.055.054h.239zm3.186-1.762c0-.908.375-1.564 1.14-1.564.71 0 1.127.601 1.12 1.598-.007.99-.45 1.448-1.086 1.455-.792.007-1.174-.56-1.174-1.489zm2.568 1.407l-.007-2.083.013-1.024a.059.059 0 00-.054-.055h-.226a.059.059 0 00-.054.055l.013.648c-.218-.498-.621-.764-1.16-.764-.936 0-1.428.812-1.428 1.823 0 1.01.492 1.742 1.434 1.742.533 0 .929-.267 1.148-.731v.39c0 .983-.438 1.406-1.12 1.406-.54 0-.984-.232-1.052-.792-.007-.034-.034-.055-.062-.055h-.232c-.027 0-.055.028-.048.055.062.751.67 1.065 1.4 1.058.888 0 1.441-.56 1.435-1.673zm2.063-3.62a.059.059 0 00.055-.054v-.369a.059.059 0 00-.055-.055h-.239a.059.059 0 00-.054.055v.369c0 .027.027.054.054.054h.24zm0 3.975a.059.059 0 00.055-.054l-.007-1.81.007-1.598a.059.059 0 00-.055-.055h-.239a.059.059 0 00-.054.055l.013 1.605-.013 1.803c0 .027.027.054.054.054h.24zm1.027 0a.059.059 0 00.055-.054l-.007-1.455v-.765c.232-.642.587-1.038 1.113-1.038.533 0 .888.32.888 1.168v.635l-.014 1.455c0 .027.027.054.055.054h.239a.059.059 0 00.054-.054l-.006-1.455v-.67c0-.962-.438-1.42-1.148-1.42-.608 0-.997.41-1.195.806l.014-.67c0-.027-.028-.054-.055-.054h-.232a.059.059 0 00-.055.055l.014 1.919-.014 1.489c0 .027.027.054.055.054h.239zm5.633-3.462c.014-.028-.007-.055-.034-.055h-.232c-.034 0-.062.02-.075.055L25.94 5.405 24.78 2.23c-.015-.034-.042-.055-.076-.055h-.266c-.028 0-.048.027-.034.048l1.304 3.428a.084.084 0 00.075.048h.307c.035 0 .062-.02.076-.054l1.263-3.415zm3.207 1.707c0-1.1-.553-1.837-1.57-1.837-1.011 0-1.571.738-1.571 1.837 0 1.1.56 1.83 1.57 1.83 1.018 0 1.571-.737 1.571-1.83zm-2.793 0c0-.956.41-1.564 1.223-1.57.812 0 1.222.62 1.222 1.57 0 .956-.403 1.564-1.222 1.564-.813 0-1.223-.608-1.223-1.564zm3.611 1.755a.059.059 0 00.055-.054l-.014-2.398.014-2.274a.059.059 0 00-.055-.054h-.239a.059.059 0 00-.055.054l.02 2.288-.02 2.384c0 .027.028.054.055.054h.24zm3.472-3.462c.013-.028-.007-.055-.034-.055h-.233c-.034 0-.061.02-.075.055l-1.147 3.175-1.161-3.175c-.014-.034-.041-.055-.075-.055h-.267c-.027 0-.047.027-.034.048l1.305 3.428c.013.028.04.048.075.048h.307c.034 0 .062-.02.075-.054l1.264-3.415zm2.831 2.22c-.027 0-.061.02-.061.054-.116.621-.478.997-1.113.997-.834 0-1.25-.58-1.25-1.57l2.657-.008a.059.059 0 00.054-.054c-.02-1.12-.58-1.77-1.51-1.77-.948 0-1.543.766-1.543 1.845s.547 1.823 1.585 1.823c.84 0 1.318-.491 1.448-1.263 0-.027-.02-.055-.048-.055h-.219zm-.075-.8h-2.335c.081-.785.491-1.284 1.188-1.284.744 0 1.14.574 1.147 1.284zM41.2 4.73c0-1.462-2.425-.636-2.425-1.674 0-.464.376-.697.957-.697.567 0 1.017.233 1.051.8 0 .027.028.054.055.054h.205a.059.059 0 00.055-.054c-.035-.731-.622-1.052-1.36-1.052-.75 0-1.29.328-1.29.963 0 1.366 2.424.54 2.424 1.68 0 .485-.43.758-1.031.758-.724 0-1.12-.321-1.14-1.01a.059.059 0 00-.055-.056h-.219a.059.059 0 00-.054.055c.02.86.58 1.264 1.461 1.264.765 0 1.366-.383 1.366-1.032zm4.255 0c0-1.462-2.424-.636-2.424-1.674 0-.464.375-.697.956-.697.567 0 1.017.233 1.052.8 0 .027.027.054.054.054h.205a.059.059 0 00.055-.054c-.034-.731-.622-1.052-1.36-1.052-.75 0-1.29.328-1.29.963 0 1.366 2.424.54 2.424 1.68 0 .485-.43.758-1.03.758-.725 0-1.12-.321-1.141-1.01a.059.059 0 00-.055-.056h-.219a.059.059 0 00-.054.055c.02.86.58 1.264 1.461 1.264.765 0 1.366-.383 1.366-1.032zm.799-3.013c.027 0 .055-.027.055-.054v-.369c0-.027-.028-.055-.055-.055h-.24a.059.059 0 00-.054.055v.369c0 .027.028.054.055.054h.239zm0 3.975c.027 0 .055-.027.055-.054l-.007-1.81.007-1.598c0-.028-.028-.055-.055-.055h-.24a.059.059 0 00-.054.055l.014 1.605-.014 1.803c0 .027.028.054.055.054h.239zm.924-1.762c0-.908.376-1.564 1.14-1.564.71 0 1.127.601 1.12 1.598-.006.99-.45 1.448-1.085 1.455-.793.007-1.175-.56-1.175-1.489zm2.568 1.407l-.007-2.083.014-1.024a.059.059 0 00-.055-.055h-.225a.059.059 0 00-.055.055l.014.648c-.219-.498-.622-.764-1.161-.764-.936 0-1.428.812-1.428 1.823 0 1.01.492 1.742 1.434 1.742.533 0 .93-.267 1.148-.731v.39c0 .983-.437 1.406-1.12 1.406-.54 0-.984-.232-1.052-.792a.065.065 0 00-.061-.055h-.233c-.027 0-.054.028-.047.055.061.751.669 1.065 1.4 1.058.888 0 1.44-.56 1.434-1.673zm.93.355a.059.059 0 00.054-.054l-.007-1.455v-.765c.232-.642.587-1.038 1.113-1.038.533 0 .888.32.888 1.168v.635l-.013 1.455c0 .027.027.054.054.054h.24a.059.059 0 00.054-.054l-.007-1.455v-.67c0-.962-.437-1.42-1.147-1.42-.608 0-.998.41-1.196.806l.014-.67a.059.059 0 00-.055-.054h-.232a.059.059 0 00-.054.055l.013 1.919-.013 1.489c0 .027.027.054.054.054h.24zm3.315-3.975a.059.059 0 00.054-.054v-.369a.059.059 0 00-.054-.055h-.24a.059.059 0 00-.054.055v.369c0 .027.027.054.055.054h.239zm0 3.975a.059.059 0 00.054-.054l-.007-1.81.007-1.598a.059.059 0 00-.054-.055h-.24a.059.059 0 00-.054.055l.014 1.605-.014 1.803c0 .027.027.054.055.054h.239zm1.402-3.244h.771a.059.059 0 00.055-.054V2.23a.059.059 0 00-.055-.055h-.771V1.82c0-.526.191-.745.498-.745.096 0 .192.014.28.041.028.007.055-.013.055-.04V.917a.074.074 0 00-.055-.068 1.236 1.236 0 00-.334-.048c-.355.007-.772.253-.772.997v.376h-.512a.059.059 0 00-.055.055v.164c0 .027.027.054.055.054h.512v1.633l-.014 1.557c0 .027.028.054.055.054h.246a.059.059 0 00.054-.054l-.013-1.557V2.448zm1.572-.73a.059.059 0 00.055-.055v-.369a.059.059 0 00-.055-.055h-.239c-.027 0-.054.028-.054.055v.369c0 .027.027.054.054.054h.24zm0 3.974a.059.059 0 00.055-.054l-.007-1.81.007-1.598a.059.059 0 00-.055-.055h-.239c-.027 0-.054.027-.054.055l.013 1.605-.013 1.803c0 .027.027.054.054.054h.24zM60.56 4.45c.007-.027-.02-.054-.048-.054H60.3c-.027 0-.054.027-.061.054-.055.663-.485 1.052-1.14 1.052-.82-.007-1.196-.6-1.196-1.557 0-.956.383-1.57 1.195-1.57.601 0 1.011.32 1.107.942a.065.065 0 00.061.054h.205c.027 0 .055-.027.048-.054-.075-.731-.574-1.216-1.42-1.216-1.012 0-1.544.744-1.544 1.844s.532 1.823 1.536 1.823c.902 0 1.407-.553 1.469-1.318zm.644-.546c0-.854.355-1.53 1.148-1.53.71 0 1.126.594 1.12 1.598-.007 1.004-.451 1.516-1.134 1.516-.785 0-1.134-.703-1.134-1.584zm2.527 1.79c.027 0 .055-.028.055-.055l-.02-1.77.02-1.638c0-.028-.028-.055-.055-.055H63.5a.059.059 0 00-.055.055l.014.635c-.225-.492-.628-.758-1.182-.758-.908 0-1.407.82-1.407 1.83 0 1.025.485 1.817 1.407 1.817.56 0 .963-.294 1.182-.779l-.014.663c0 .027.028.054.055.054h.232zm.984 0a.059.059 0 00.054-.055l-.006-1.455v-.765c.232-.642.587-1.038 1.113-1.038.532 0 .888.32.888 1.168v.635l-.014 1.455c0 .027.027.054.055.054h.239a.059.059 0 00.054-.054l-.007-1.455v-.67c0-.962-.437-1.42-1.147-1.42-.608 0-.997.41-1.195.806l.014-.67c0-.027-.028-.054-.055-.054h-.232a.059.059 0 00-.055.055l.014 1.919-.014 1.489c0 .027.027.054.055.054h.239zm4.463-.233c0-.027-.027-.048-.055-.04-.095.02-.225.033-.348.033-.342 0-.485-.157-.485-.683V2.455h.833a.059.059 0 00.055-.055v-.17a.059.059 0 00-.055-.055h-.833l.007-.826c0-.028-.028-.055-.055-.055h-.239c-.027 0-.055.027-.055.055l.014.826h-.403a.059.059 0 00-.054.055v.17c0 .028.027.055.054.055h.403l-.007 2.315c0 .745.342.977.8.977.122 0 .266-.027.368-.055a.067.067 0 00.055-.068V5.46zm1.82.232a.059.059 0 00.054-.054l-.014-2.131c.13-.751.629-1.08 1.134-1.08.103 0 .184.008.253.028.027.007.054-.014.054-.04V2.23a.074.074 0 00-.054-.069.853.853 0 00-.24-.027c-.477 0-.921.266-1.154.744l.021-.648a.059.059 0 00-.055-.055h-.239a.059.059 0 00-.054.055l.02 1.646-.02 1.762c0 .027.027.054.054.054h.24zm2.188-3.975a.059.059 0 00.054-.054v-.369a.059.059 0 00-.054-.055h-.24a.059.059 0 00-.054.055v.369c0 .027.027.054.055.054h.239zm0 3.975a.059.059 0 00.054-.054l-.006-1.81.006-1.598a.059.059 0 00-.054-.055h-.24a.059.059 0 00-.054.055l.014 1.605-.014 1.803c0 .027.027.054.055.054h.239zm3.403-.963c0-1.461-2.424-.635-2.424-1.673 0-.464.375-.697.956-.697.567 0 1.017.233 1.051.8 0 .027.028.054.055.054h.205a.059.059 0 00.055-.054c-.035-.731-.622-1.052-1.36-1.052-.75 0-1.29.328-1.29.963 0 1.366 2.424.54 2.424 1.68 0 .485-.43.758-1.031.758-.724 0-1.12-.321-1.14-1.01a.059.059 0 00-.055-.056h-.219a.059.059 0 00-.055.055c.021.86.581 1.264 1.462 1.264.765 0 1.366-.383 1.366-1.032zm2.513.916a.095.095 0 00.082.047h.287c.027 0 .04-.027.027-.047l-1.345-2.193 1.208-1.236c.02-.014.007-.041-.013-.041h-.3a.135.135 0 00-.096.041l-1.558 1.619v-.506l.014-2.363a.059.059 0 00-.055-.054h-.238a.059.059 0 00-.055.054l.02 2.37-.02 2.309c0 .027.027.054.055.054h.239a.059.059 0 00.054-.054l-.007-1.428.506-.519.97 1.564.225.383zm4.851-1.708c0-1.1-.553-1.837-1.57-1.837-1.011 0-1.571.738-1.571 1.837 0 1.1.56 1.83 1.57 1.83 1.018 0 1.571-.737 1.571-1.83zm-2.793 0c0-.956.41-1.564 1.222-1.57.813 0 1.223.62 1.223 1.57 0 .956-.403 1.564-1.223 1.564-.812 0-1.222-.608-1.222-1.564zm3.76-1.489h.77a.059.059 0 00.056-.054V2.23a.059.059 0 00-.055-.055h-.772V1.82c0-.526.191-.745.499-.745.095 0 .19.014.28.041.027.007.054-.013.054-.04V.917a.074.074 0 00-.054-.068 1.235 1.235 0 00-.335-.048c-.355.007-.772.253-.772.997v.376h-.512a.059.059 0 00-.055.055v.164c0 .027.028.054.055.054h.512v1.633l-.013 1.557c0 .027.027.054.054.054h.246a.059.059 0 00.055-.054l-.014-1.557V2.448zm2.652 3.244c.027 0 .055-.027.055-.054l-.014-2.398.014-2.274c0-.027-.028-.054-.055-.054h-.239c-.027 0-.055.027-.055.054l.02 2.288-.02 2.384c0 .027.028.054.055.054h.24zm3.724-1.755c0-1.1-.553-1.837-1.57-1.837-1.011 0-1.571.738-1.571 1.837 0 1.1.56 1.83 1.57 1.83 1.018 0 1.572-.737 1.572-1.83zm-2.793 0c0-.956.41-1.564 1.223-1.57.812 0 1.222.62 1.222 1.57 0 .956-.403 1.564-1.222 1.564-.813 0-1.223-.608-1.223-1.564zm5.947.792c0-1.461-2.424-.635-2.424-1.673 0-.464.375-.697.956-.697.567 0 1.017.233 1.052.8 0 .027.027.054.054.054h.205a.059.059 0 00.055-.054c-.034-.731-.622-1.052-1.36-1.052-.75 0-1.29.328-1.29.963 0 1.366 2.424.54 2.424 1.68 0 .485-.43.758-1.03.758-.725 0-1.121-.321-1.141-1.01a.059.059 0 00-.055-.056h-.219a.059.059 0 00-.054.055c.02.86.58 1.264 1.461 1.264.765 0 1.366-.383 1.366-1.032zm3.148 0c0-1.461-2.424-.635-2.424-1.673 0-.464.375-.697.956-.697.567 0 1.017.233 1.052.8 0 .027.027.054.054.054h.205a.059.059 0 00.055-.054c-.034-.731-.622-1.052-1.36-1.052-.75 0-1.29.328-1.29.963 0 1.366 2.424.54 2.424 1.68 0 .485-.43.758-1.03.758-.725 0-1.12-.321-1.141-1.01a.059.059 0 00-.055-.056h-.219a.059.059 0 00-.054.055c.02.86.58 1.264 1.461 1.264.765 0 1.366-.383 1.366-1.032zm1.736-.826c0-.854.355-1.53 1.148-1.53.71 0 1.127.594 1.12 1.598-.007 1.004-.451 1.516-1.134 1.516-.785 0-1.134-.703-1.134-1.584zm2.527 1.79a.059.059 0 00.055-.055l-.021-1.77.021-1.638a.059.059 0 00-.055-.055h-.232c-.027 0-.055.027-.055.055l.014.635c-.225-.492-.628-.758-1.181-.758-.909 0-1.407.82-1.407 1.83 0 1.025.484 1.817 1.407 1.817.56 0 .963-.294 1.181-.779l-.014.663c0 .027.028.054.055.054h.232zm.984 0c.027 0 .055-.028.055-.055l-.007-1.455v-.765c.232-.642.587-1.038 1.113-1.038.533 0 .888.32.888 1.168v.635l-.014 1.455c0 .027.027.054.055.054h.239c.027 0 .054-.027.054-.054l-.006-1.455v-.67c0-.962-.438-1.42-1.148-1.42-.608 0-.997.41-1.195.806l.014-.67c0-.027-.028-.054-.055-.054h-.232c-.027 0-.055.027-.055.055l.014 1.919-.014 1.489c0 .027.028.054.055.054h.239zm3.186-1.79c0-.854.355-1.544 1.147-1.544.71 0 1.127.608 1.12 1.612-.007 1.011-.464 1.523-1.134 1.523-.785 0-1.133-.71-1.133-1.591zm2.527 1.79c.027 0 .054-.028.054-.055l-.013-2.807.013-1.865c0-.027-.027-.054-.054-.054h-.24c-.027 0-.054.027-.054.054l.007 1.872c-.226-.479-.629-.738-1.168-.738-.909 0-1.407.826-1.407 1.837 0 1.025.485 1.824 1.407 1.824.56 0 .963-.294 1.181-.779l-.013.656c0 .027.027.054.054.054h.233zm2.118-3.976c.027 0 .054-.027.054-.054v-.369c0-.027-.027-.055-.054-.055h-.239a.059.059 0 00-.055.055v.369c0 .027.027.054.055.054h.239zm0 3.975c.027 0 .054-.027.054-.054l-.007-1.81.007-1.598c0-.028-.027-.055-.054-.055h-.239a.059.059 0 00-.055.055l.014 1.605-.014 1.803c0 .027.027.054.055.054h.239zm3.403-.963c0-1.461-2.425-.635-2.425-1.673 0-.464.376-.697.956-.697.567 0 1.018.233 1.052.8 0 .027.028.054.055.054h.205c.027 0 .054-.027.054-.054-.034-.731-.621-1.052-1.359-1.052-.751 0-1.291.328-1.291.963 0 1.366 2.425.54 2.425 1.68 0 .485-.43.758-1.031.758-.724 0-1.12-.321-1.141-1.01 0-.028-.027-.056-.054-.056h-.219c-.027 0-.055.028-.055.055.021.86.581 1.264 1.462 1.264.765 0 1.366-.383 1.366-1.032zm1.878.963a.059.059 0 00.055-.054l-.007-1.455v-.765c.232-.642.587-1.038 1.113-1.038.533 0 .888.32.888 1.168v.635l-.013 1.455c0 .027.027.054.054.054h.239a.059.059 0 00.055-.054l-.007-1.455v-.67c0-.962-.437-1.42-1.147-1.42-.608 0-.997.41-1.196.806l.014-.67a.059.059 0 00-.055-.054h-.232c-.027 0-.054.027-.054.055l.013 1.919-.013 1.489c0 .027.027.054.054.054h.239zm5.993-1.755c0-1.1-.553-1.837-1.571-1.837-1.011 0-1.571.738-1.571 1.837 0 1.1.56 1.83 1.571 1.83 1.018 0 1.571-.737 1.571-1.83zm-2.793 0c0-.956.409-1.564 1.222-1.57.813 0 1.223.62 1.223 1.57 0 .956-.403 1.564-1.223 1.564-.813 0-1.222-.608-1.222-1.564zm4.692 1.523c0-.027-.028-.048-.055-.04a1.77 1.77 0 01-.348.033c-.342 0-.485-.157-.485-.683V2.455h.833c.027 0 .055-.027.055-.055v-.17c0-.028-.028-.055-.055-.055h-.833l.007-.826c0-.028-.028-.055-.055-.055h-.239c-.027 0-.055.027-.055.055l.014.826h-.403c-.027 0-.055.027-.055.055v.17c0 .028.028.055.055.055h.403l-.007 2.315c0 .745.342.977.799.977.123 0 .267-.027.369-.055a.067.067 0 00.055-.068V5.46zm4.203-.73c0-1.462-2.425-.636-2.425-1.674 0-.464.376-.697.956-.697.567 0 1.018.233 1.052.8 0 .027.027.054.055.054h.205c.027 0 .054-.027.054-.054-.034-.731-.621-1.052-1.359-1.052-.751 0-1.291.328-1.291.963 0 1.366 2.425.54 2.425 1.68 0 .485-.43.758-1.031.758-.724 0-1.121-.321-1.141-1.01a.059.059 0 00-.055-.056h-.218a.059.059 0 00-.055.055c.021.86.581 1.264 1.462 1.264.765 0 1.366-.383 1.366-1.032zm2.793.238l-.014.67c0 .027.027.054.055.054h.232c.027 0 .054-.027.054-.054l-.013-1.92.013-1.488c0-.028-.027-.055-.054-.055h-.239a.059.059 0 00-.055.055l.007 1.454v.765c-.232.642-.587 1.038-1.113 1.038-.533 0-.888-.32-.888-1.167v-.636l.013-1.454c0-.028-.027-.055-.054-.055h-.239a.059.059 0 00-.055.055l.007 1.454v.67c0 .963.437 1.42 1.147 1.42.608 0 .998-.41 1.196-.806zm1.293-3.25a.059.059 0 00.055-.055v-.369a.059.059 0 00-.055-.055h-.239c-.027 0-.054.028-.054.055v.369c0 .027.027.054.054.054h.239zm0 3.974a.059.059 0 00.055-.054l-.007-1.81.007-1.598a.059.059 0 00-.055-.055h-.239c-.027 0-.054.027-.054.055l.013 1.605-.013 1.803c0 .027.027.054.054.054h.239zm2.215-.232a.043.043 0 00-.054-.04 1.78 1.78 0 01-.349.033c-.341 0-.485-.157-.485-.683V2.455h.834c.027 0 .054-.027.054-.055v-.17c0-.028-.027-.055-.054-.055h-.834l.007-.826c0-.028-.027-.055-.054-.055h-.239a.059.059 0 00-.055.055l.014.826h-.403a.059.059 0 00-.055.055v.17c0 .028.027.055.055.055h.403l-.007 2.315c0 .745.341.977.799.977.123 0 .266-.027.369-.055.034-.007.054-.034.054-.068V5.46zm.424-1.557c0-.854.355-1.53 1.147-1.53.71 0 1.127.594 1.12 1.598-.007 1.004-.451 1.516-1.134 1.516-.785 0-1.133-.703-1.133-1.584zm2.527 1.79c.027 0 .054-.028.054-.055l-.02-1.77.02-1.638c0-.028-.027-.055-.054-.055h-.233c-.027 0-.054.027-.054.055l.013.635c-.225-.492-.628-.758-1.181-.758-.909 0-1.407.82-1.407 1.83 0 1.025.485 1.817 1.407 1.817.56 0 .963-.294 1.181-.779l-.013.663c0 .027.027.054.054.054h.233zm3.606-1.77c0-1.024-.492-1.816-1.407-1.816-.547 0-.95.28-1.175.744l.007-1.885a.059.059 0 00-.055-.054h-.239c-.027 0-.054.027-.054.054l.02 1.912-.02 2.753c0 .027.027.054.054.054h.232a.059.059 0 00.055-.054l-.014-.635c.226.498.629.765 1.182.765.908 0 1.414-.827 1.414-1.838zm-2.609-.034c.007-1.01.464-1.516 1.134-1.516.785 0 1.126.704 1.126 1.585 0 .86-.348 1.536-1.133 1.536-.717 0-1.134-.594-1.127-1.605zm3.422 1.803c.027 0 .054-.027.054-.054l-.013-2.398.013-2.274c0-.027-.027-.054-.054-.054h-.239a.059.059 0 00-.055.054l.02 2.288-.02 2.384c0 .027.027.054.055.054h.239zm3.348-1.243c-.027 0-.061.02-.061.055-.116.621-.478.997-1.113.997-.834 0-1.25-.58-1.25-1.57l2.657-.008c.027 0 .054-.027.054-.054-.02-1.12-.58-1.77-1.509-1.77-.949 0-1.544.766-1.544 1.845s.547 1.823 1.585 1.823c.84 0 1.318-.491 1.448-1.263 0-.027-.021-.055-.048-.055h-.219zm-.075-.799h-2.336c.082-.785.492-1.284 1.189-1.284.744 0 1.14.574 1.147 1.284zm2.597-1.202h.772c.027 0 .055-.027.055-.054V2.23c0-.028-.028-.055-.055-.055h-.772V1.82c0-.526.192-.745.499-.745.096 0 .191.014.28.041.027.007.055-.013.055-.04V.917c0-.034-.028-.061-.055-.068a1.24 1.24 0 00-.335-.048c-.355.007-.771.253-.771.997v.376h-.513c-.027 0-.054.027-.054.055v.164c0 .027.027.054.054.054h.513v1.633l-.014 1.557c0 .027.027.054.055.054h.245a.059.059 0 00.055-.054l-.014-1.557V2.448zm3.937 1.49c0-1.1-.554-1.838-1.571-1.838-1.011 0-1.571.738-1.571 1.837 0 1.1.56 1.83 1.571 1.83 1.017 0 1.571-.737 1.571-1.83zm-2.794 0c0-.957.41-1.565 1.223-1.572.813 0 1.222.622 1.222 1.571 0 .956-.403 1.564-1.222 1.564-.813 0-1.223-.608-1.223-1.564zm3.577 1.754c.027 0 .055-.027.055-.054l-.014-2.131c.13-.751.628-1.08 1.134-1.08a.9.9 0 01.253.028.043.043 0 00.054-.04V2.23a.073.073 0 00-.054-.069.859.859 0 00-.239-.027c-.479 0-.922.266-1.155.744l.021-.648c0-.028-.028-.055-.055-.055h-.239c-.027 0-.055.027-.055.055l.021 1.646-.021 1.762c0 .027.028.054.055.054h.239zm3.046-1.789c0-.854.355-1.53 1.147-1.53.711 0 1.127.594 1.12 1.598-.006 1.004-.45 1.516-1.133 1.516-.786 0-1.134-.703-1.134-1.584zm2.527 1.79c.027 0 .055-.028.055-.055l-.021-1.77.021-1.638c0-.028-.028-.055-.055-.055h-.232a.059.059 0 00-.055.055l.014.635c-.226-.492-.629-.758-1.182-.758-.908 0-1.407.82-1.407 1.83 0 1.025.485 1.817 1.407 1.817.56 0 .963-.294 1.182-.779l-.014.663c0 .027.027.054.055.054h.232zm1.011 0c.027 0 .054-.028.054-.055l-.013-2.398.013-2.274c0-.027-.027-.054-.054-.054h-.239a.059.059 0 00-.055.054l.021 2.288-.021 2.384c0 .027.027.054.055.054h.239zm1.047 0c.027 0 .055-.028.055-.055l-.014-2.398.014-2.274c0-.027-.028-.054-.055-.054h-.239c-.027 0-.055.027-.055.054l.021 2.288-.021 2.384c0 .027.028.054.055.054h.239zm2.154-3.976a.059.059 0 00.055-.054v-.369a.059.059 0 00-.055-.055h-.239c-.027 0-.054.028-.054.055v.369c0 .027.027.054.054.054h.239zm0 3.975a.059.059 0 00.055-.054l-.007-1.81.007-1.598a.059.059 0 00-.055-.055h-.239c-.027 0-.054.027-.054.055l.013 1.605-.013 1.803c0 .027.027.054.054.054h.239zm1.027 0c.027 0 .054-.027.054-.054l-.006-1.455v-.765c.232-.642.587-1.038 1.113-1.038.533 0 .888.32.888 1.168v.635l-.014 1.455c0 .027.027.054.055.054h.239c.027 0 .054-.027.054-.054l-.007-1.455v-.67c0-.962-.437-1.42-1.147-1.42-.608 0-.997.41-1.195.806l.014-.67c0-.027-.028-.054-.055-.054h-.232a.059.059 0 00-.055.055l.014 1.919-.014 1.489c0 .027.027.054.055.054h.239zm5.633-3.462c.014-.028-.007-.055-.034-.055h-.232a.08.08 0 00-.075.055l-1.148 3.175-1.161-3.175c-.014-.034-.041-.055-.075-.055h-.266c-.028 0-.048.027-.035.048l1.305 3.428a.084.084 0 00.075.048h.307c.035 0 .062-.02.076-.054l1.263-3.415zm2.832 2.22c-.028 0-.062.02-.062.054-.116.621-.478.997-1.113.997-.833 0-1.25-.58-1.25-1.57l2.657-.008c.027 0 .055-.027.055-.054-.021-1.12-.581-1.77-1.51-1.77-.949 0-1.543.766-1.543 1.845s.546 1.823 1.584 1.823c.84 0 1.318-.491 1.448-1.263 0-.027-.02-.055-.048-.055h-.218zm-.075-.8h-2.336c.082-.785.492-1.284 1.188-1.284.745 0 1.141.574 1.148 1.284zm3.517 1.08c0-1.462-2.424-.636-2.424-1.674 0-.464.375-.697.956-.697.567 0 1.018.233 1.052.8 0 .027.027.054.054.054h.205a.059.059 0 00.055-.054c-.034-.731-.622-1.052-1.359-1.052-.751 0-1.291.328-1.291.963 0 1.366 2.425.54 2.425 1.68 0 .485-.431.758-1.032.758-.724 0-1.12-.321-1.14-1.01 0-.028-.028-.056-.055-.056h-.219c-.027 0-.054.028-.054.055.02.86.58 1.264 1.461 1.264.765 0 1.366-.383 1.366-1.032zm1.88.73c0-.027-.027-.048-.055-.04-.095.02-.225.033-.348.033-.341 0-.485-.157-.485-.683V2.455h.833a.059.059 0 00.055-.055v-.17a.059.059 0 00-.055-.055h-.833l.007-.826a.059.059 0 00-.055-.055h-.239c-.027 0-.054.027-.054.055l.013.826h-.403c-.027 0-.054.027-.054.055v.17c0 .028.027.055.054.055h.403l-.007 2.315c0 .745.342.977.8.977.122 0 .266-.027.368-.055a.066.066 0 00.055-.068V5.46zm3.23-1.523c0-1.1-.553-1.837-1.571-1.837-1.01 0-1.57.738-1.57 1.837 0 1.1.56 1.83 1.57 1.83 1.018 0 1.571-.737 1.571-1.83zm-2.793 0c0-.956.41-1.564 1.222-1.57.813 0 1.223.62 1.223 1.57 0 .956-.403 1.564-1.223 1.564-.812 0-1.222-.608-1.222-1.564zm3.577 1.755c.027 0 .054-.027.054-.054l-.013-2.131c.129-.751.628-1.08 1.133-1.08a.89.89 0 01.253.028c.027.007.055-.014.055-.04V2.23c0-.034-.028-.062-.055-.069a.85.85 0 00-.239-.027c-.478 0-.922.266-1.154.744l.02-.648c0-.028-.027-.055-.054-.055h-.239a.059.059 0 00-.055.055l.021 1.646-.021 1.762c0 .027.027.054.055.054h.239zm4.351-.963c0-1.461-2.425-.635-2.425-1.673 0-.464.376-.697.956-.697.567 0 1.018.233 1.052.8 0 .027.028.054.055.054h.205c.027 0 .054-.027.054-.054-.034-.731-.621-1.052-1.359-1.052-.751 0-1.291.328-1.291.963 0 1.366 2.425.54 2.425 1.68 0 .485-.43.758-1.031.758-.724 0-1.12-.321-1.141-1.01 0-.028-.027-.056-.054-.056h-.219c-.027 0-.055.028-.055.055.021.86.581 1.264 1.462 1.264.765 0 1.366-.383 1.366-1.032z" fill="#fff"/></svg>