<svg width="142" height="21" viewBox="0 0 142 21" fill="none" xmlns="http://www.w3.org/2000/svg"><path d="M5.89 20.658c-2.405 0-3.999-.41-5.188-.929L0 15.576h.513l.514.984c1.215 2.35 2.701 3.388 5.078 3.388 2.729 0 4.269-1.366 4.269-3.607 0-1.994-1.135-3.005-4.377-4.153C2.323 10.904.487 9.483.487 6.287.486 3.035 3.376.713 6.97.713c2.242 0 3.539.3 4.781.82l.676 4.316h-.54L11.4 4.84c-1.107-2.35-2.512-3.416-4.646-3.416-2.243 0-3.566 1.366-3.566 3.306 0 2.022 1.08 2.924 4.16 3.99 4.052 1.366 5.754 2.923 5.754 6.092.027 3.47-3.296 5.847-7.213 5.847zM22.854 18.964c-1.134.984-2.296 1.64-3.755 1.64-2.16 0-3.296-.984-3.296-3.334V8.2h-1.999v-.52l2.135-.82 2.107-4.262h.864V6.97h3.62V8.2h-3.62v9.016c0 1.338.648 1.994 1.702 1.994.73 0 1.216-.191 1.891-.683l.351.437zM30.445 20.713c-3.917 0-6.807-2.514-6.807-7.186 0-3.962 2.81-6.994 6.834-6.994 3.89 0 6.808 2.513 6.808 7.185-.027 3.962-2.864 6.995-6.835 6.995zm-.378-13.47c-1.918 0-2.998 1.475-2.998 5.492 0 4.399 1.404 7.268 3.728 7.268 1.945 0 2.998-1.476 2.998-5.492 0-4.4-1.378-7.268-3.728-7.268zM53.894 20.412c-.621 0-2.215-.027-3.43-.027-1.19 0-2.783.027-3.459.027v-.437l.46-.082c1.215-.218 1.431-.6 1.431-3.087V11.45c0-2.077-.891-3.088-2.485-3.088-1.108 0-2.026.437-2.837 1.038v7.405c0 2.513.19 2.869 1.432 3.087l.46.082v.437c-.676 0-2.243-.027-3.458-.027-1.216 0-2.81.027-3.458.027v-.437l.54-.082c1.135-.164 1.35-.6 1.35-3.333v-5.902c0-1.475-.242-1.885-1.242-2.35l-.675-.327v-.3l4.7-1.04.379.247V8.8c1.485-1.284 2.863-2.13 4.619-2.13 2.512 0 3.836 1.365 3.836 4.234v5.738c0 2.787.216 3.115 1.378 3.333l.486.082-.027.355zM57.811 12.352v.191c.081 3.88 2.161 6.285 4.97 6.285 1.54 0 2.621-.574 3.756-1.722l.378.274c-1.459 2.049-3.35 3.333-5.781 3.333-3.566 0-6.24-2.46-6.24-6.694 0-4.563 3.403-7.46 6.672-7.46 3.62 0 5.376 2.05 5.457 5.82l-9.212-.027zm5.916-.765C63.647 8.718 62.62 7.27 61 7.27c-1.837 0-2.999 1.585-3.188 4.317h5.916zM86.77 20.412c-.486 0-2.917-.054-3.862-.054-1 0-4.026.054-4.539.054v-.382l.865-.137c.837-.136 1.188-.355 1.188-.874 0-.437-.27-.984-.864-1.913l-3.026-4.672-3.025 4.208c-.703.983-1.027 1.721-1.027 2.268 0 .546.324.874 1.162 1.01l.891.137v.383c-.486 0-2.647-.055-3.62-.055-.972 0-2.512.055-3.025.055v-.41l.459-.082c1.215-.219 2.35-1.257 3.269-2.432l4.376-5.792-4.295-6.448c-1-1.503-1.702-2.186-2.783-2.377l-.567-.11v-.382c.486 0 2.917.055 3.863.055 1 0 3.971-.055 4.484-.055v.382l-.864.137c-.73.11-1.135.355-1.135.874 0 .437.27.984.865 1.913l2.593 4.044 2.54-3.607c.675-.984 1.026-1.721 1.026-2.24 0-.52-.351-.875-1.162-1.011l-.891-.137V2.38c.486 0 2.647.054 3.62.054.972 0 2.512-.054 3.025-.054v.382l-.459.082c-1.216.219-2.323 1.148-3.269 2.432l-3.917 5.191 4.755 7.05c1 1.502 1.702 2.185 2.782 2.376l.568.11v.41zM88.932 5.358c-.216 0-.405-.028-.567-.11a1.413 1.413 0 01-.46-.327 1.235 1.235 0 01-.297-.465 1.44 1.44 0 01-.108-.574c0-.218.027-.41.108-.573.081-.192.19-.328.297-.465.108-.137.297-.246.46-.3.189-.082.378-.11.567-.11.216 0 .405.028.567.11.19.081.324.19.46.3.135.137.242.3.297.465.08.19.108.382.108.573 0 .219-.027.41-.108.574-.082.191-.19.328-.298.465a1.775 1.775 0 01-.459.327c-.162.055-.351.11-.567.11zm0-.219c.189 0 .351-.027.486-.11.162-.054.297-.163.405-.272.108-.11.19-.246.27-.41.054-.164.081-.328.081-.492 0-.191-.027-.355-.08-.492a1.081 1.081 0 00-.27-.41 1.512 1.512 0 00-.406-.273c-.162-.055-.324-.11-.486-.11-.19 0-.351.028-.486.11a1.068 1.068 0 00-.406.273c-.108.11-.189.246-.27.41a1.564 1.564 0 00-.08.492c0 .191.026.355.08.492.054.164.162.3.27.41.108.109.243.218.406.273.162.082.324.11.486.11zm-.621-.382V3.008h.756c.189 0 .351.055.46.137.107.109.161.218.161.382a.499.499 0 01-.162.383c-.108.109-.243.136-.432.136l.081-.027c.081 0 .135.027.19.055a.461.461 0 01.161.163l.297.52h-.405l-.297-.574c-.027-.055-.054-.082-.081-.082-.027-.027-.081-.027-.135-.027h-.19v.683h-.404zm.35-.984h.352c.108 0 .189-.027.216-.055.054-.027.081-.109.081-.19 0-.083-.027-.165-.081-.192a.504.504 0 00-.216-.055h-.351v.492zM115.041 11.036c0-6.032-3.477-9.678-8.761-9.678-5.312 0-8.816 3.673-8.816 9.678 0 5.95 3.504 9.677 8.789 9.677 5.284 0 8.788-3.7 8.788-9.678zm-16.126 0c0-5.308 2.82-8.498 7.338-8.498 4.49 0 7.337 3.19 7.337 8.498 0 5.334-2.847 8.497-7.337 8.497-4.463 0-7.338-3.19-7.338-8.498zM118.332 20.418c.109 0 .219-.107.219-.214l-.028-5.71V11.49c.931-2.52 2.355-4.075 4.463-4.075 2.136 0 3.56 1.26 3.56 4.585v2.493l-.055 5.71c0 .107.109.214.219.214h.958c.11 0 .219-.107.219-.214l-.027-5.71v-2.627c0-3.78-1.752-5.576-4.6-5.576-2.437 0-3.997 1.608-4.791 3.163l.054-2.627c0-.107-.109-.215-.219-.215h-.931c-.109 0-.219.107-.219.215l.055 7.533-.055 5.844c0 .107.11.214.219.214h.959zM140.85 15.54c-.109 0-.246.08-.246.214-.466 2.439-1.917 3.913-4.463 3.913-3.341 0-5.011-2.278-5.011-6.165l10.651-.027c.109 0 .219-.107.219-.214-.082-4.397-2.327-6.944-6.051-6.944-3.806 0-6.188 3.003-6.188 7.238 0 4.236 2.191 7.158 6.352 7.158 3.368 0 5.285-1.93 5.805-4.96 0-.107-.082-.214-.192-.214h-.876zm-.301-3.137h-9.364c.329-3.083 1.971-5.04 4.764-5.04 2.984 0 4.572 2.252 4.6 5.04z" fill="#fff"/></svg>