<svg width="134" height="56" viewBox="0 0 134 56" fill="none" xmlns="http://www.w3.org/2000/svg"><path d="M4.14 11c3.33 0 5.28-2.07 5.28-5.25C9.42 2.555 7.47.5 4.14.5H1.08V11h3.06zM1.89 1.25h2.25c2.865 0 4.455 1.74 4.455 4.5 0 2.745-1.59 4.5-4.455 4.5H1.89v-9zm9.537.54c.3 0 .54-.225.54-.54 0-.315-.24-.54-.54-.54-.3 0-.54.225-.54.54 0 .315.24.54.54.54zm-.39 9.21h.765V3.395h-.765V11zm2.218-2.34c.06 1.575 1.335 2.43 3.24 2.43 1.635 0 2.955-.825 2.955-2.175 0-1.605-1.41-1.92-3.045-2.145-1.185-.165-2.235-.3-2.235-1.365 0-.87.855-1.44 2.145-1.44 1.215 0 2.085.585 2.22 1.575h.78c-.135-1.485-1.35-2.235-3-2.235-1.695-.015-2.91.855-2.91 2.16 0 1.53 1.41 1.815 2.97 2.025 1.275.18 2.31.345 2.31 1.47 0 .9-.945 1.47-2.19 1.47-1.455 0-2.4-.675-2.46-1.77h-.78zm10.97 2.43c1.725 0 2.94-.99 3.24-2.535h-.81c-.255 1.125-1.17 1.845-2.43 1.845-1.665 0-2.82-1.305-2.82-3.195s1.14-3.225 2.82-3.225c1.275 0 2.175.72 2.445 1.86h.795c-.315-1.575-1.5-2.535-3.225-2.535-2.145 0-3.615 1.59-3.615 3.9 0 2.34 1.455 3.885 3.6 3.885zm8.087 0c2.145 0 3.66-1.59 3.66-3.9 0-2.295-1.515-3.885-3.66-3.885-2.145 0-3.645 1.59-3.645 3.885 0 2.31 1.5 3.9 3.645 3.9zm0-.69c-1.695 0-2.865-1.32-2.865-3.21 0-1.875 1.17-3.21 2.865-3.21 1.695 0 2.865 1.335 2.865 3.21 0 1.89-1.17 3.21-2.865 3.21zm7.063.6h.914l2.97-7.605h-.794l-2.61 6.72-2.625-6.72h-.825L39.374 11zm7.966.09c1.665 0 2.94-1.08 3.27-2.61h-.78c-.3 1.185-1.305 1.92-2.55 1.92-1.695 0-2.76-1.29-2.79-3.06v-.135h6.21c0-.105.015-.225.015-.315-.075-2.265-1.47-3.585-3.51-3.585-2.085 0-3.51 1.59-3.51 3.84 0 2.385 1.485 3.945 3.645 3.945zm-2.79-4.53c.12-1.545 1.275-2.58 2.67-2.58 1.485 0 2.55.915 2.67 2.58h-5.34zm10.782-3.165c-1.41 0-2.01.675-2.325 1.515l-.12-1.515h-.66V11h.765V7.145c0-1.545.405-3.015 2.19-3.015h.555v-.735h-.405zm9.092-.09c-1.425 0-2.31.795-2.745 1.89V.5h-.765V11h.765V7.25c0-1.98 1.005-3.24 2.625-3.24 1.455 0 2.355.96 2.355 2.76V11h.765V6.74c0-2.4-1.275-3.435-3-3.435zm7.95 7.785c2.145 0 3.66-1.59 3.66-3.9 0-2.295-1.515-3.885-3.66-3.885-2.145 0-3.645 1.59-3.645 3.885 0 2.31 1.5 3.9 3.645 3.9zm0-.69c-1.695 0-2.865-1.32-2.865-3.21 0-1.875 1.17-3.21 2.865-3.21 1.695 0 2.865 1.335 2.865 3.21 0 1.89-1.17 3.21-2.865 3.21zm6.79.6h.826l2.25-6.39L84.386 11h.825l2.7-7.605h-.78l-2.34 6.69-2.175-6.69h-.705l-2.295 6.69-2.22-6.69h-.81L79.166 11zm15.704 0h.825l2.25-6.39 2.145 6.39h.825l2.7-7.605h-.78l-2.34 6.69-2.175-6.69h-.705l-2.295 6.69-2.22-6.69h-.81L94.869 11zm12.941.09c1.665 0 2.94-1.08 3.27-2.61h-.78c-.3 1.185-1.305 1.92-2.55 1.92-1.695 0-2.76-1.29-2.79-3.06v-.135h6.21c0-.105.015-.225.015-.315-.075-2.265-1.47-3.585-3.51-3.585-2.085 0-3.51 1.59-3.51 3.84 0 2.385 1.485 3.945 3.645 3.945zm-2.79-4.53c.12-1.545 1.275-2.58 2.67-2.58 1.485 0 2.55.915 2.67 2.58h-5.34zM4.575 24.305c-1.425 0-2.43.78-2.91 1.86V21.5H.9V32h.66l.12-1.725c.45 1.095 1.47 1.815 2.895 1.815 2.085 0 3.585-1.59 3.585-3.9 0-2.385-1.5-3.885-3.585-3.885zm-.06 7.095c-1.695 0-2.865-1.32-2.865-3.225 0-1.86 1.17-3.195 2.865-3.195 1.695 0 2.865 1.335 2.865 3.21 0 1.89-1.17 3.21-2.865 3.21zm11.85-.105c-.45 0-.676-.15-.676-.735v-3.54c0-1.74-1.065-2.715-2.97-2.715-1.74 0-2.895.84-3.09 2.22h.765c.195-.93 1.005-1.545 2.295-1.545 1.425 0 2.235.75 2.235 2.01v.66h-2.58c-1.95 0-3 .84-3 2.265 0 1.35 1.065 2.175 2.685 2.175 1.545 0 2.46-.705 2.925-1.65v.27c-.03.9.345 1.29 1.245 1.29h.45v-.705h-.285zm-1.44-2.37c0 1.455-1.036 2.505-2.836 2.505-1.215 0-1.965-.615-1.965-1.56 0-1.005.75-1.56 2.16-1.56h2.64v.615zm5.945 3.165c1.725 0 2.94-.99 3.24-2.535h-.81c-.255 1.125-1.17 1.845-2.43 1.845-1.665 0-2.82-1.305-2.82-3.195s1.14-3.225 2.82-3.225c1.275 0 2.175.72 2.445 1.86h.795c-.315-1.575-1.5-2.535-3.225-2.535-2.145 0-3.615 1.59-3.615 3.9 0 2.34 1.455 3.885 3.6 3.885zm4.727-.09h.765v-2.055l1.785-1.83L31.057 32h.93l-3.315-4.44 3.06-3.165h-.945l-4.425 4.56V21.5h-.765V32zm11.081-2.34c.06 1.575 1.335 2.43 3.24 2.43 1.635 0 2.955-.825 2.955-2.175 0-1.605-1.41-1.92-3.045-2.145-1.185-.165-2.235-.3-2.235-1.365 0-.87.855-1.44 2.145-1.44 1.215 0 2.085.585 2.22 1.575h.78c-.135-1.485-1.35-2.235-3-2.235-1.695-.015-2.91.855-2.91 2.16 0 1.53 1.41 1.815 2.97 2.025 1.275.18 2.31.345 2.31 1.47 0 .9-.945 1.47-2.19 1.47-1.455 0-2.4-.675-2.46-1.77h-.78zm13.175-1.53c0 1.995-.99 3.255-2.565 3.255-1.41 0-2.28-.96-2.28-2.775v-4.215h-.765v4.26c0 2.385 1.245 3.435 2.925 3.435 1.35 0 2.235-.72 2.67-1.695L49.943 32h.675v-7.605h-.765v3.735zm5.88 3.96c1.726 0 2.94-.99 3.24-2.535h-.81c-.254 1.125-1.17 1.845-2.43 1.845-1.664 0-2.82-1.305-2.82-3.195s1.14-3.225 2.82-3.225c1.276 0 2.176.72 2.446 1.86h.795c-.315-1.575-1.5-2.535-3.225-2.535-2.145 0-3.615 1.59-3.615 3.9 0 2.34 1.455 3.885 3.6 3.885zm8.043 0c1.724 0 2.94-.99 3.24-2.535h-.81c-.255 1.125-1.17 1.845-2.43 1.845-1.666 0-2.82-1.305-2.82-3.195s1.14-3.225 2.82-3.225c1.274 0 2.175.72 2.444 1.86h.796c-.316-1.575-1.5-2.535-3.226-2.535-2.145 0-3.614 1.59-3.614 3.9 0 2.34 1.454 3.885 3.6 3.885zm8.086 0c1.666 0 2.94-1.08 3.27-2.61h-.78c-.3 1.185-1.305 1.92-2.55 1.92-1.695 0-2.76-1.29-2.79-3.06v-.135h6.21c0-.105.016-.225.016-.315-.076-2.265-1.47-3.585-3.51-3.585-2.085 0-3.51 1.59-3.51 3.84 0 2.385 1.484 3.945 3.644 3.945zm-2.79-4.53c.12-1.545 1.275-2.58 2.67-2.58 1.486 0 2.55.915 2.67 2.58h-5.34zm7.318 2.1c.06 1.575 1.335 2.43 3.24 2.43 1.635 0 2.955-.825 2.955-2.175 0-1.605-1.41-1.92-3.045-2.145-1.185-.165-2.235-.3-2.235-1.365 0-.87.855-1.44 2.145-1.44 1.215 0 2.085.585 2.22 1.575h.78c-.135-1.485-1.35-2.235-3-2.235-1.695-.015-2.91.855-2.91 2.16 0 1.53 1.41 1.815 2.97 2.025 1.275.18 2.31.345 2.31 1.47 0 .9-.945 1.47-2.19 1.47-1.455 0-2.4-.675-2.46-1.77h-.78zm7.163 0c.06 1.575 1.335 2.43 3.24 2.43 1.635 0 2.955-.825 2.955-2.175 0-1.605-1.41-1.92-3.045-2.145-1.185-.165-2.235-.3-2.235-1.365 0-.87.855-1.44 2.145-1.44 1.215 0 2.085.585 2.22 1.575h.78c-.135-1.485-1.35-2.235-3-2.235-1.695-.015-2.91.855-2.91 2.16 0 1.53 1.41 1.815 2.97 2.025 1.275.18 2.31.345 2.31 1.47 0 .9-.945 1.47-2.19 1.47-1.455 0-2.4-.675-2.46-1.77h-.78zm7.433 1.845c0 .345.24.57.57.57.33 0 .57-.225.57-.57s-.24-.555-.57-.555c-.33 0-.57.21-.57.555zm6.287-9.255h3.6V32h.81v-9.75h3.6v-.75h-8.01v.75zm11.498 2.145c-1.41 0-2.01.675-2.325 1.515l-.12-1.515h-.66V32h.765v-3.855c0-1.545.405-3.015 2.19-3.015h.555v-.735h-.405zm7.906 6.9c-.45 0-.675-.15-.675-.735v-3.54c0-1.74-1.065-2.715-2.97-2.715-1.74 0-2.895.84-3.09 2.22h.765c.195-.93 1.005-1.545 2.295-1.545 1.425 0 2.235.75 2.235 2.01v.66h-2.58c-1.95 0-3 .84-3 2.265 0 1.35 1.065 2.175 2.685 2.175 1.545 0 2.46-.705 2.925-1.65v.27c-.03.9.345 1.29 1.245 1.29h.45v-.705h-.285zm-1.44-2.37c0 1.455-1.035 2.505-2.835 2.505-1.215 0-1.965-.615-1.965-1.56 0-1.005.75-1.56 2.16-1.56h2.64v.615zm8.841-2.82c-.465-1.08-1.485-1.8-2.91-1.8-2.085 0-3.585 1.59-3.585 3.885 0 2.4 1.5 3.9 3.585 3.9 1.425 0 2.415-.765 2.895-1.83l.12 1.74h.66V21.5h-.765v4.605zm-2.85 5.295c-1.695 0-2.865-1.32-2.865-3.21 0-1.875 1.17-3.21 2.865-3.21 1.695 0 2.865 1.335 2.865 3.225 0 1.875-1.17 3.195-2.865 3.195zm8.774.69c1.665 0 2.94-1.08 3.27-2.61h-.78c-.3 1.185-1.305 1.92-2.55 1.92-1.695 0-2.76-1.29-2.79-3.06v-.135h6.21c0-.105.015-.225.015-.315-.075-2.265-1.47-3.585-3.51-3.585-2.085 0-3.51 1.59-3.51 3.84 0 2.385 1.485 3.945 3.645 3.945zm-2.79-4.53c.12-1.545 1.275-2.58 2.67-2.58 1.485 0 2.55.915 2.67 2.58h-5.34zM2.745 53h.825l2.25-6.39L7.965 53h.825l2.7-7.605h-.78l-2.34 6.69-2.175-6.69H5.49l-2.295 6.69-2.22-6.69h-.81L2.745 53zm10.205-9.21c.3 0 .54-.225.54-.54 0-.315-.24-.54-.54-.54-.3 0-.54.225-.54.54 0 .315.24.54.54.54zM12.56 53h.765v-7.605h-.765V53zm3.134-1.77c0 1.215.495 1.77 1.785 1.77h1.11v-.705h-1.05c-.795 0-1.08-.3-1.08-1.08V46.1h2.055v-.705h-2.055v-2.13h-.765v2.13h-1.44v.705h1.44v5.13zm7.568-5.925c-1.425 0-2.31.795-2.745 1.89V42.5h-.764V53h.764v-3.75c0-1.98 1.006-3.24 2.625-3.24 1.456 0 2.355.96 2.355 2.76V53h.765v-4.26c0-2.4-1.274-3.435-3-3.435zm13.371 7.785c2.25 0 3.84-1.215 4.29-3.33h-.855c-.45 1.68-1.665 2.58-3.45 2.58-2.43 0-3.96-1.905-3.96-4.59 0-2.685 1.56-4.59 3.99-4.59 1.755 0 2.985.915 3.45 2.565h.855c-.465-2.1-2.055-3.315-4.26-3.315-2.955 0-4.875 2.19-4.875 5.34 0 3.18 1.875 5.34 4.815 5.34zm6.244-9.3c.3 0 .54-.225.54-.54 0-.315-.24-.54-.54-.54-.3 0-.54.225-.54.54 0 .315.24.54.54.54zm-.39 9.21h.765v-7.605h-.765V53zm3.133-1.77c0 1.215.495 1.77 1.785 1.77h1.11v-.705h-1.05c-.795 0-1.08-.3-1.08-1.08V46.1h2.055v-.705h-2.055v-2.13h-.765v2.13h-1.44v.705h1.44v5.13zM51.96 53l-.496 1.23c-.345.84-.48 1.065-1.26 1.065h-.96V56h1.17c1.02 0 1.26-.39 1.74-1.59l3.645-9.015h-.825L52.38 52.01l-2.64-6.615h-.825L51.96 53zm9.09 0h.81V42.5h-.81V53zm6.304-7.695c-1.395 0-2.295.72-2.73 1.71l-.12-1.62h-.66V53h.765v-3.75c0-1.98 1.005-3.24 2.625-3.24 1.47 0 2.355.96 2.355 2.76V53h.765v-4.26c0-2.4-1.275-3.435-3-3.435zm10.786 1.8c-.465-1.08-1.485-1.8-2.91-1.8-2.085 0-3.585 1.59-3.585 3.885 0 2.4 1.5 3.9 3.585 3.9 1.425 0 2.415-.765 2.895-1.83l.12 1.74h.66V42.5h-.765v4.605zM75.29 52.4c-1.695 0-2.865-1.32-2.865-3.21 0-1.875 1.17-3.21 2.865-3.21 1.695 0 2.865 1.335 2.865 3.225 0 1.875-1.17 3.195-2.865 3.195zm8.775.69c1.665 0 2.94-1.08 3.27-2.61h-.78c-.3 1.185-1.305 1.92-2.55 1.92-1.695 0-2.76-1.29-2.79-3.06v-.135h6.21c0-.105.015-.225.015-.315-.075-2.265-1.47-3.585-3.51-3.585-2.085 0-3.51 1.59-3.51 3.84 0 2.385 1.485 3.945 3.645 3.945zm-2.79-4.53c.12-1.545 1.275-2.58 2.67-2.58 1.485 0 2.55.915 2.67 2.58h-5.34zM87.878 53h.885l2.52-3.345L93.803 53h.93l-2.955-3.885 2.805-3.72h-.87l-2.4 3.15-2.37-3.15h-.915l2.805 3.72L87.878 53zm7.722-.495c0 .345.24.57.57.57.33 0 .57-.225.57-.57s-.24-.555-.57-.555c-.33 0-.57.21-.57.555z" fill="#000"/></svg>