<svg width="41" height="14" viewBox="0 0 41 14" fill="none" xmlns="http://www.w3.org/2000/svg"><path d="M27.86 5.415h-2.104C25.18 2.34 22.767.47 19.118.47c-4.102 0-6.753 2.559-6.753 6.514s2.569 6.457 6.753 6.437c3.41 0 5.83-1.757 6.55-4.635h1.424l.435-1.124h-1.67a8.568 8.568 0 00.025-1.125h1.562l.415-1.125v.003zm-5.88 2.25h-2.24l-.435 1.125h2.555c-.287 1.685-1.06 2.85-2.66 2.85-2.112 0-2.94-2.095-2.94-4.691 0-2.596.662-4.673 2.797-4.691 1.678 0 2.545 1.309 2.832 3.16h-1.817l-.415 1.124h2.333a14.25 14.25 0 01-.01 1.125v-.002zM.765 13.42h3.667V8.712h6.235v-2.85H4.432V3.766h6.898V.76H.765v12.66zM38.053 8.807c1.636-.66 2.712-1.92 2.712-3.8v-.04c0-1.201-.393-2.17-1.16-2.87-.89-.834-2.3-1.336-4.308-1.336h-6.255v12.66h3.666V9.368h1.615l1.989 4.102h4.225l-2.486-4.663h.002zm-.954-3.589c0 .912-.724 1.473-1.967 1.473h-2.426V3.707h2.404c1.243 0 1.989.504 1.989 1.473v.038z" fill="#fff"/></svg>