<svg width="300" height="250" viewBox="0 0 300 250" fill="none" xmlns="http://www.w3.org/2000/svg"><path d="M35.954 174.844c0-2.526-1.452-4.239-3.949-4.849 1.945-.61 3.426-1.916 3.426-4.385-.029-3.194-2.671-5.226-6.446-5.226-4.181 0-6.853 2.09-7.085 6.01 0 .146.145.291.29.291h2.788c.145 0 .29-.116.32-.291.174-2.323 1.335-3.455 3.513-3.455 1.771 0 3.107 1.19 3.107 3.02 0 1.8-1.307 3.02-4.123 3.02h-.755a.312.312 0 00-.29.29v1.858c0 .146.145.291.29.291h.755c3.107 0 4.558 1.103 4.53 3.542-.059 2.323-1.394 3.775-3.688 3.775-2.352.029-3.485-1.394-3.63-3.833a.29.29 0 00-.29-.29h-2.875c-.145 0-.29.145-.261.29.32 4.182 2.642 6.388 6.969 6.388 4.152 0 7.404-2.41 7.404-6.446zm17.048-1.19c0-4.327-2.788-7.114-6.388-7.114-1.742 0-3.194.522-4.24 1.684l.465-4.762h8.595c.145 0 .29-.146.29-.291v-2.207a.312.312 0 00-.29-.29H40.022c-.145 0-.29.145-.319.29l-.697 10.657c-.029.145.116.29.261.29h2.527c.174 0 .32-.116.348-.29.436-1.597 1.626-2.468 3.426-2.468 2.469 0 3.66 1.684 3.66 4.733 0 3.194-1.424 4.965-3.776 4.965-2.032 0-3.223-1.161-3.368-3.078a.338.338 0 00-.32-.29h-2.961c-.145 0-.29.145-.261.29.377 3.369 2.671 5.663 6.94 5.663 4.471 0 7.52-2.991 7.52-7.782zm17.827-2.759c0-7.027-3.05-10.627-7.695-10.627-4.675 0-7.695 3.658-7.695 10.598 0 6.737 3.049 10.541 7.695 10.541 4.646 0 7.695-3.775 7.695-10.512zm-11.731 0c0-5.314 1.422-7.724 4.036-7.724 2.555 0 4.036 2.468 4.036 7.724 0 5.227-1.481 7.608-4.036 7.608-2.527 0-4.037-2.41-4.037-7.608zm27.937-.987c0-.145-.145-.291-.29-.291H81.72v-5.633a.312.312 0 00-.29-.29h-2.15a.312.312 0 00-.29.29v5.633h-5.023c-.145 0-.29.146-.29.291v2.178c0 .145.145.29.29.29h5.023v5.604c0 .145.146.291.29.291h2.15c.145 0 .29-.146.29-.291v-5.604h5.023c.146 0 .29-.145.29-.29v-2.178zm22.238 5.807c.029-.116-.087-.232-.203-.232h-.9c-.116 0-.232.116-.261.232-.233 2.817-2.062 4.472-4.85 4.472-3.484-.029-5.081-2.555-5.081-6.62 0-4.066 1.626-6.679 5.081-6.679 2.556 0 4.298 1.365 4.704 4.007a.276.276 0 00.262.232h.871c.116 0 .232-.116.203-.232-.319-3.107-2.439-5.168-6.04-5.168-4.297 0-6.562 3.165-6.562 7.84 0 4.674 2.265 7.752 6.533 7.752 3.833 0 5.982-2.352 6.243-5.604zm15.836-2.178c0-4.674-2.352-7.81-6.679-7.81-4.297 0-6.678 3.136-6.678 7.81 0 4.675 2.381 7.782 6.678 7.782 4.327 0 6.679-3.136 6.679-7.782zm-11.876 0c0-4.065 1.742-6.649 5.197-6.678 3.456 0 5.198 2.642 5.198 6.678 0 4.066-1.713 6.65-5.198 6.65-3.455 0-5.197-2.584-5.197-6.65zM129.601 181c.116 0 .233-.116.233-.232l-.059-9.06c.552-3.194 2.672-4.588 4.821-4.588.435 0 .784.029 1.074.116.116.029.232-.058.232-.174v-.784a.312.312 0 00-.232-.29c-.29-.087-.639-.116-1.016-.116-2.033 0-3.92 1.132-4.908 3.165l.088-2.759c0-.116-.117-.232-.233-.232h-1.016a.25.25 0 00-.232.232l.087 6.998-.087 7.492a.25.25 0 00.232.232h1.016zm10.321 0a.25.25 0 00.232-.232l-.058-9.06c.552-3.194 2.671-4.588 4.82-4.588.436 0 .784.029 1.075.116.116.029.232-.058.232-.174v-.784a.312.312 0 00-.232-.29c-.291-.087-.639-.116-1.017-.116-2.032 0-3.92 1.132-4.907 3.165l.087-2.759a.25.25 0 00-.232-.232h-1.016c-.117 0-.233.116-.233.232l.087 6.998-.087 7.492c0 .116.116.232.233.232h1.016zm18.777-5.285c-.117 0-.262.087-.262.233-.493 2.642-2.032 4.239-4.733 4.239-3.542 0-5.314-2.468-5.314-6.679l11.296-.029a.25.25 0 00.232-.232c-.087-4.762-2.468-7.52-6.417-7.52-4.036 0-6.562 3.252-6.562 7.84 0 4.587 2.323 7.752 6.736 7.752 3.572 0 5.604-2.09 6.156-5.371 0-.117-.087-.233-.203-.233h-.929zm-.32-3.397h-9.93c.348-3.339 2.09-5.459 5.052-5.459 3.165 0 4.849 2.439 4.878 5.459zm16.118 4.588c0-6.214-10.308-2.701-10.308-7.114 0-1.975 1.597-2.962 4.065-2.962 2.41 0 4.326.987 4.472 3.397 0 .116.116.233.232.233h.871c.116 0 .232-.117.232-.233-.145-3.107-2.642-4.471-5.778-4.471-3.194 0-5.488 1.393-5.488 4.094 0 5.807 10.308 2.294 10.308 7.143 0 2.062-1.829 3.223-4.385 3.223-3.077 0-4.762-1.365-4.849-4.297 0-.117-.116-.233-.232-.233h-.929a.25.25 0 00-.233.233c.088 3.658 2.469 5.371 6.214 5.371 3.253 0 5.808-1.626 5.808-4.384zm4.499-3.543c.029-4.297 1.945-6.504 4.82-6.504 3.339 0 4.82 3.02 4.82 6.795 0 3.6-1.51 6.504-4.849 6.504-3.049 0-4.82-2.526-4.791-6.795zm11.092.116c0-4.355-2.091-7.752-5.982-7.752-2.352 0-4.094 1.277-5.052 3.339l.058-2.788a.25.25 0 00-.232-.232h-.988a.25.25 0 00-.232.232l.087 7.84-.087 11.586a.25.25 0 00.232.232h1.046a.25.25 0 00.232-.232l-.087-7.579c.958 2.062 2.671 3.165 4.994 3.165 3.862 0 6.011-3.513 6.011-7.811zm16.028.058c0-4.674-2.352-7.81-6.678-7.81-4.298 0-6.679 3.136-6.679 7.81 0 4.675 2.381 7.782 6.679 7.782 4.326 0 6.678-3.136 6.678-7.782zm-11.876 0c0-4.065 1.742-6.649 5.198-6.678 3.455 0 5.197 2.642 5.197 6.678 0 4.066-1.713 6.65-5.197 6.65-3.456 0-5.198-2.584-5.198-6.65zM210.638 181a.25.25 0 00.232-.232l-.029-6.185v-3.252c.987-2.73 2.497-4.414 4.733-4.414 2.265 0 3.775 1.365 3.775 4.965v2.701l-.058 6.185a.25.25 0 00.232.232h1.017a.25.25 0 00.232-.232l-.029-6.185v-2.846c0-4.094-1.859-6.04-4.878-6.04-2.585 0-4.24 1.743-5.082 3.427l.058-2.846a.25.25 0 00-.232-.232h-.987c-.116 0-.233.116-.233.232l.058 8.16-.058 6.33c0 .116.117.232.233.232h1.016zm14.706-7.608c0-3.629 1.51-6.562 4.878-6.562 3.02 0 4.791 2.584 4.762 6.853-.029 4.297-1.975 6.475-4.82 6.475-3.34 0-4.82-3.02-4.82-6.766zM236.087 181c.116 0 .233-.116.233-.232l-.058-11.935.058-7.927c0-.116-.117-.232-.233-.232h-1.016a.25.25 0 00-.232.232l.029 7.957c-.958-2.033-2.672-3.136-4.966-3.136-3.862 0-5.981 3.513-5.981 7.81 0 4.356 2.061 7.753 5.981 7.753 2.381 0 4.095-1.248 5.024-3.31l-.058 2.788a.25.25 0 00.232.232h.987zm15.245-5.285c-.116 0-.261.087-.261.233-.494 2.642-2.032 4.239-4.733 4.239-3.542 0-5.314-2.468-5.314-6.679l11.296-.029a.25.25 0 00.232-.232c-.087-4.762-2.468-7.52-6.417-7.52-4.036 0-6.563 3.252-6.563 7.84 0 4.587 2.323 7.752 6.737 7.752 3.572 0 5.604-2.09 6.156-5.371 0-.117-.087-.233-.203-.233h-.93zm-.319-3.397h-9.931c.349-3.339 2.091-5.459 5.053-5.459 3.165 0 4.849 2.439 4.878 5.459zm6.069 8.682c.117 0 .233-.116.233-.232l-.029-6.185v-3.252c.987-2.73 2.497-4.414 4.733-4.414 2.265 0 3.775 1.365 3.775 4.965v2.701l-.059 6.185c0 .116.117.232.233.232h1.016a.25.25 0 00.232-.232l-.029-6.185v-2.846c0-4.094-1.858-6.04-4.878-6.04-2.584 0-4.239 1.743-5.081 3.427l.058-2.846c0-.116-.116-.232-.233-.232h-.987a.25.25 0 00-.232.232l.058 8.16-.058 6.33a.25.25 0 00.232.232h1.016zm20.137-.987a.185.185 0 00-.232-.174 7.53 7.53 0 01-1.481.145c-1.452 0-2.061-.668-2.061-2.904v-9.844h3.542a.25.25 0 00.232-.232v-.726a.25.25 0 00-.232-.232h-3.542l.029-3.514c0-.116-.117-.232-.233-.232h-1.016a.25.25 0 00-.232.232l.058 3.514h-1.713c-.117 0-.233.116-.233.232v.726c0 .116.116.232.233.232h1.713l-.029 9.844c0 3.165 1.452 4.152 3.397 4.152.523 0 1.133-.116 1.568-.232a.282.282 0 00.232-.29v-.697zM34.764 201.479c0-4.355-2.091-7.723-5.982-7.723-2.323 0-4.036 1.19-4.994 3.165l.029-8.015a.25.25 0 00-.233-.232h-1.016a.25.25 0 00-.232.232l.087 8.131-.087 11.702a.25.25 0 00.232.232h.987a.25.25 0 00.233-.232l-.058-2.701c.958 2.12 2.67 3.252 5.023 3.252 3.862 0 6.01-3.513 6.01-7.811zm-11.093-.145c.03-4.297 1.975-6.446 4.82-6.446 3.34 0 4.792 2.991 4.792 6.737 0 3.658-1.481 6.533-4.82 6.533-3.05 0-4.82-2.526-4.792-6.824zm15.158.058c0-3.629 1.51-6.504 4.879-6.504 3.02 0 4.79 2.526 4.762 6.795-.03 4.268-1.917 6.446-4.82 6.446-3.34 0-4.82-2.991-4.82-6.737zM49.573 209a.25.25 0 00.232-.232l-.087-7.521.087-6.969a.25.25 0 00-.232-.232h-.987a.25.25 0 00-.232.232l.058 2.701c-.959-2.091-2.672-3.223-5.024-3.223-3.862 0-5.981 3.484-5.981 7.781 0 4.356 2.061 7.724 5.981 7.724 2.381 0 4.095-1.248 5.024-3.31l-.058 2.817a.25.25 0 00.232.232h.987zm5.344 0a.25.25 0 00.232-.232l-.03-6.185v-3.252c.988-2.73 2.498-4.414 4.734-4.414 2.265 0 3.775 1.365 3.775 4.965v2.701l-.058 6.185a.25.25 0 00.232.232h1.016a.25.25 0 00.233-.232l-.03-6.185v-2.846c0-4.094-1.858-6.04-4.878-6.04-2.584 0-4.24 1.743-5.081 3.427l.058-2.846a.25.25 0 00-.232-.232H53.9a.25.25 0 00-.232.232l.058 8.16-.058 6.33a.25.25 0 00.232.232h1.017zm22.545-.203a.403.403 0 00.349.203h1.22c.115 0 .173-.116.115-.203l-5.72-9.321 5.14-5.256c.087-.058.029-.174-.058-.174H77.23a.573.573 0 00-.407.174l-6.62 6.882v-2.149l.058-10.047a.25.25 0 00-.232-.232h-1.016a.25.25 0 00-.233.232l.087 10.076-.087 9.815a.25.25 0 00.233.232h1.016a.25.25 0 00.232-.232l-.029-6.069 2.149-2.207 4.123 6.65.958 1.626zm15.12-3.891c0-6.214-10.308-2.701-10.308-7.114 0-1.975 1.597-2.962 4.065-2.962 2.41 0 4.326.987 4.472 3.397 0 .116.116.233.232.233h.87c.117 0 .233-.117.233-.233-.145-3.107-2.642-4.471-5.778-4.471-3.194 0-5.488 1.393-5.488 4.094 0 5.807 10.308 2.294 10.308 7.143 0 2.062-1.83 3.223-4.385 3.223-3.078 0-4.762-1.365-4.849-4.297a.25.25 0 00-.232-.233h-.93a.25.25 0 00-.232.233c.087 3.658 2.469 5.371 6.214 5.371 3.252 0 5.808-1.626 5.808-4.384zM29.218 140c.145 0 .29-.145.29-.29l-.116-9.437.116-10.309a.312.312 0 00-.29-.29h-2.846a.48.48 0 00-.436.261c-.9 1.423-2.352 2.556-4.152 3.253a.413.413 0 00-.261.377v2.294c0 .145.145.261.29.203 1.568-.493 2.962-1.219 4.065-2.265l.058 7.027-.087 8.886c0 .145.145.29.29.29h3.079zm18.687-7.492a.312.312 0 00-.29-.29h-1.916v-12.254a.312.312 0 00-.29-.29h-4.211a.606.606 0 00-.465.232l-7.695 11.731a.873.873 0 00-.174.523v2.555c0 .145.145.291.29.291h8.973v4.704c0 .145.145.29.29.29h2.991c.145 0 .29-.145.29-.29v-4.704h1.917c.145 0 .29-.146.29-.291v-2.207zm-5.778-.29h-6.272l6.388-9.902-.116 3.891v6.011zm23.455-2.323c0-7.027-3.048-10.627-7.694-10.627-4.675 0-7.695 3.658-7.695 10.598 0 6.737 3.049 10.541 7.695 10.541 4.646 0 7.694-3.775 7.694-10.512zm-11.73 0c0-5.314 1.422-7.724 4.036-7.724 2.555 0 4.036 2.468 4.036 7.724 0 5.227-1.481 7.608-4.036 7.608-2.526 0-4.036-2.41-4.036-7.608zm27.937-.987c0-.145-.145-.291-.29-.291h-5.024v-5.633a.312.312 0 00-.29-.29h-2.15a.312.312 0 00-.29.29v5.633h-5.023c-.145 0-.29.146-.29.291v2.178c0 .145.145.29.29.29h5.024v5.604c0 .145.145.291.29.291h2.149c.145 0 .29-.146.29-.291v-5.604h5.023c.146 0 .29-.145.29-.29v-2.178zm22.238 5.807c.029-.116-.087-.232-.203-.232h-.9c-.116 0-.232.116-.261.232-.233 2.817-2.062 4.472-4.85 4.472-3.484-.029-5.081-2.555-5.081-6.62 0-4.066 1.626-6.679 5.081-6.679 2.556 0 4.298 1.365 4.704 4.007a.276.276 0 00.262.232h.871c.116 0 .232-.116.203-.232-.319-3.107-2.439-5.168-6.04-5.168-4.297 0-6.562 3.165-6.562 7.84 0 4.674 2.265 7.752 6.533 7.752 3.833 0 5.982-2.352 6.243-5.604zm12.932 2.207l-.058 2.846a.25.25 0 00.232.232h.987c.117 0 .233-.116.233-.232l-.058-8.16.058-6.33c0-.116-.116-.232-.233-.232h-1.016a.25.25 0 00-.232.232l.029 6.185v3.252c-.987 2.73-2.497 4.414-4.733 4.414-2.265 0-3.775-1.365-3.775-4.965v-2.701l.058-6.185a.25.25 0 00-.232-.232h-1.016c-.117 0-.233.116-.233.232l.029 6.185v2.846c0 4.094 1.859 6.039 4.879 6.039 2.584 0 4.239-1.742 5.081-3.426zm6.517 3.078c.116 0 .233-.116.233-.232l-.059-9.06c.552-3.194 2.672-4.588 4.821-4.588.435 0 .784.029 1.074.116.116.029.232-.058.232-.174v-.784a.312.312 0 00-.232-.29c-.29-.087-.639-.116-1.016-.116-2.033 0-3.92 1.132-4.908 3.165l.088-2.759c0-.116-.117-.232-.233-.232h-1.016a.25.25 0 00-.232.232l.087 6.998-.087 7.492a.25.25 0 00.232.232h1.016zm10.321 0a.25.25 0 00.232-.232l-.058-9.06c.552-3.194 2.671-4.588 4.82-4.588.436 0 .784.029 1.075.116.116.029.232-.058.232-.174v-.784a.312.312 0 00-.232-.29c-.291-.087-.639-.116-1.017-.116-2.032 0-3.92 1.132-4.907 3.165l.087-2.759a.25.25 0 00-.232-.232h-1.016c-.117 0-.233.116-.233.232l.087 6.998-.087 7.492c0 .116.116.232.233.232h1.016zm18.777-5.285c-.117 0-.262.087-.262.233-.493 2.642-2.032 4.239-4.733 4.239-3.542 0-5.314-2.468-5.314-6.679l11.296-.029a.25.25 0 00.232-.232c-.087-4.762-2.468-7.52-6.417-7.52-4.036 0-6.562 3.252-6.562 7.84 0 4.587 2.323 7.752 6.736 7.752 3.572 0 5.604-2.09 6.156-5.371 0-.117-.087-.233-.203-.233h-.929zm-.32-3.397h-9.93c.348-3.339 2.09-5.459 5.052-5.459 3.165 0 4.849 2.439 4.878 5.459zm6.07 8.682a.25.25 0 00.232-.232l-.029-6.185v-3.252c.987-2.73 2.497-4.414 4.733-4.414 2.265 0 3.775 1.365 3.775 4.965v2.701l-.058 6.185a.25.25 0 00.232.232h1.016c.116 0 .233-.116.233-.232l-.029-6.185v-2.846c0-4.094-1.859-6.04-4.879-6.04-2.584 0-4.239 1.743-5.081 3.427l.058-2.846a.25.25 0 00-.232-.232h-.988a.25.25 0 00-.232.232l.058 8.16-.058 6.33a.25.25 0 00.232.232h1.017zm26.059-5.285c.029-.116-.087-.232-.203-.232h-.901c-.116 0-.232.116-.261.232-.232 2.817-2.062 4.472-4.849 4.472-3.485-.029-5.082-2.555-5.082-6.62 0-4.066 1.626-6.679 5.082-6.679 2.555 0 4.297 1.365 4.704 4.007.029.145.145.232.261.232h.871c.116 0 .233-.116.204-.232-.32-3.107-2.44-5.168-6.04-5.168-4.298 0-6.563 3.165-6.563 7.84 0 4.674 2.265 7.752 6.534 7.752 3.833 0 5.981-2.352 6.243-5.604zm4.453-11.615a.25.25 0 00.232-.232V121.3a.25.25 0 00-.232-.232h-1.017a.25.25 0 00-.232.232v1.568a.25.25 0 00.232.232h1.017zm0 16.9a.25.25 0 00.232-.232l-.029-7.695.029-6.795a.25.25 0 00-.232-.232h-1.017a.25.25 0 00-.232.232l.058 6.824-.058 7.666a.25.25 0 00.232.232h1.017zm15.427-5.285c-.116 0-.261.087-.261.233-.494 2.642-2.033 4.239-4.733 4.239-3.543 0-5.314-2.468-5.314-6.679l11.295-.029c.116 0 .233-.116.233-.232-.088-4.762-2.469-7.52-6.418-7.52-4.036 0-6.562 3.252-6.562 7.84 0 4.587 2.323 7.752 6.737 7.752 3.571 0 5.604-2.09 6.155-5.371 0-.117-.087-.233-.203-.233h-.929zm-.319-3.397h-9.931c.348-3.339 2.091-5.459 5.052-5.459 3.165 0 4.85 2.439 4.879 5.459zm16.117 4.588c0-6.214-10.308-2.701-10.308-7.114 0-1.975 1.597-2.962 4.065-2.962 2.41 0 4.327.987 4.472 3.397 0 .116.116.233.232.233h.871c.116 0 .233-.117.233-.233-.146-3.107-2.643-4.471-5.779-4.471-3.194 0-5.488 1.393-5.488 4.094 0 5.807 10.308 2.294 10.308 7.143 0 2.062-1.829 3.223-4.384 3.223-3.078 0-4.762-1.365-4.849-4.297a.25.25 0 00-.233-.233h-.929c-.116 0-.232.116-.232.233.087 3.658 2.468 5.371 6.214 5.371 3.252 0 5.807-1.626 5.807-4.384zM29.218 94c.145 0 .29-.145.29-.29l-.116-9.437.116-10.309a.312.312 0 00-.29-.29h-2.846a.479.479 0 00-.436.261c-.9 1.423-2.352 2.556-4.152 3.253a.413.413 0 00-.261.377v2.294c0 .145.145.261.29.203 1.568-.493 2.962-1.22 4.065-2.265l.058 7.027-.087 8.886c0 .145.145.29.29.29h3.079zm18.745-5.72c0-2.381-1.393-4.24-3.978-5.053 2.178-.9 3.369-2.526 3.34-4.471-.059-3.485-2.556-5.46-6.824-5.46-4.24 0-6.766 1.975-6.795 5.46-.029 2.003 1.133 3.63 3.281 4.471-2.555.813-3.92 2.672-3.92 5.053 0 3.833 3.224 6.068 7.434 6.068 4.24 0 7.462-2.235 7.462-6.068zm-10.83-9.205c.029-2.033 1.335-3.281 3.368-3.281 2.032 0 3.368 1.248 3.368 3.281 0 1.771-1.277 3.136-3.368 3.136-2.062 0-3.368-1.307-3.368-3.136zm-.581 9.089c0-2.207 1.51-3.601 3.949-3.63 2.439.029 3.949 1.423 3.949 3.63.029 2.12-1.568 3.687-3.95 3.687-2.351 0-3.977-1.568-3.948-3.687zm29.342-4.269c0-7.027-3.049-10.627-7.694-10.627-4.675 0-7.695 3.658-7.695 10.598 0 6.737 3.049 10.54 7.695 10.54 4.645 0 7.694-3.774 7.694-10.51zm-11.73 0c0-5.314 1.422-7.724 4.036-7.724 2.555 0 4.036 2.468 4.036 7.724 0 5.227-1.481 7.608-4.036 7.608-2.527 0-4.037-2.41-4.037-7.608zm27.937-.987a.312.312 0 00-.29-.29h-5.024v-5.634a.312.312 0 00-.29-.29h-2.15a.312.312 0 00-.29.29v5.634h-5.023a.312.312 0 00-.29.29v2.178c0 .145.145.29.29.29h5.023v5.604c0 .145.146.29.29.29h2.15c.145 0 .29-.145.29-.29v-5.604h5.023c.145 0 .29-.145.29-.29v-2.178zm22.238 5.807c.029-.116-.087-.232-.203-.232h-.9c-.116 0-.232.116-.261.232-.233 2.817-2.062 4.472-4.85 4.472-3.484-.03-5.081-2.555-5.081-6.62 0-4.066 1.626-6.679 5.081-6.679 2.556 0 4.298 1.365 4.704 4.007a.276.276 0 00.262.232h.871c.116 0 .232-.116.203-.232-.319-3.107-2.439-5.168-6.04-5.168-4.297 0-6.562 3.165-6.562 7.84s2.265 7.752 6.533 7.752c3.833 0 5.982-2.352 6.243-5.604zm15.836-2.178c0-4.675-2.352-7.81-6.679-7.81-4.297 0-6.678 3.135-6.678 7.81s2.381 7.782 6.678 7.782c4.327 0 6.679-3.136 6.679-7.782zm-11.877 0c0-4.065 1.743-6.649 5.198-6.678 3.456 0 5.198 2.642 5.198 6.678 0 4.066-1.713 6.65-5.198 6.65-3.455 0-5.198-2.584-5.198-6.65zm24.993 4.385l-.058 2.846a.25.25 0 00.232.232h.988a.25.25 0 00.232-.232l-.058-8.16.058-6.33a.25.25 0 00-.232-.232h-1.017a.25.25 0 00-.232.232l.029 6.185v3.252c-.987 2.73-2.497 4.414-4.733 4.414-2.265 0-3.775-1.365-3.775-4.965v-2.7l.058-6.186a.25.25 0 00-.232-.232h-1.016c-.116 0-.233.116-.233.232l.03 6.185v2.846c0 4.094 1.858 6.04 4.878 6.04 2.584 0 4.239-1.743 5.081-3.427zM139.837 94a.25.25 0 00.233-.232l-.029-6.185V84.33c.987-2.73 2.497-4.414 4.733-4.414 2.265 0 3.775 1.365 3.775 4.965v2.7l-.058 6.186a.25.25 0 00.232.232h1.016a.25.25 0 00.232-.232l-.029-6.185v-2.846c0-4.094-1.858-6.04-4.878-6.04-2.584 0-4.239 1.743-5.081 3.427l.058-2.846a.25.25 0 00-.233-.232h-.987a.25.25 0 00-.232.232l.058 8.16-.058 6.33a.25.25 0 00.232.232h1.016zm20.137-.987c0-.116-.116-.204-.232-.175a7.52 7.52 0 01-1.481.146c-1.452 0-2.061-.668-2.061-2.904v-9.844h3.542a.25.25 0 00.232-.232v-.726a.25.25 0 00-.232-.232H156.2l.029-3.514a.25.25 0 00-.233-.232h-1.016a.25.25 0 00-.232.232l.058 3.514h-1.713c-.116 0-.233.116-.233.232v.726c0 .116.117.232.233.232h1.713l-.029 9.844c0 3.165 1.452 4.152 3.397 4.152.523 0 1.133-.116 1.568-.232a.283.283 0 00.232-.29v-.697zm4.19.987a.25.25 0 00.233-.232l-.058-9.06c.551-3.194 2.671-4.588 4.82-4.588.435 0 .784.03 1.074.116.116.03.232-.058.232-.174v-.784a.312.312 0 00-.232-.29c-.29-.087-.639-.116-1.016-.116-2.033 0-3.92 1.132-4.907 3.165l.087-2.759a.25.25 0 00-.233-.232h-1.016a.25.25 0 00-.232.232l.087 6.998-.087 7.492a.25.25 0 00.232.232h1.016zm10.466-16.9a.25.25 0 00.232-.232V75.3a.25.25 0 00-.232-.232h-1.016a.25.25 0 00-.232.232v1.568a.25.25 0 00.232.232h1.016zm0 16.9a.25.25 0 00.232-.232l-.029-7.695.029-6.795a.25.25 0 00-.232-.232h-1.016a.25.25 0 00-.232.232l.058 6.824-.058 7.666a.25.25 0 00.232.232h1.016zm15.427-5.285c-.116 0-.261.087-.261.233-.493 2.642-2.032 4.239-4.733 4.239-3.542 0-5.314-2.468-5.314-6.679l11.296-.029a.25.25 0 00.232-.232c-.087-4.762-2.468-7.52-6.417-7.52-4.036 0-6.563 3.252-6.563 7.84 0 4.587 2.323 7.752 6.737 7.752 3.572 0 5.604-2.09 6.156-5.371 0-.117-.087-.233-.203-.233h-.93zm-.319-3.397h-9.931c.349-3.34 2.091-5.459 5.053-5.459 3.165 0 4.849 2.44 4.878 5.459zm16.118 4.588c0-6.214-10.308-2.7-10.308-7.114 0-1.975 1.597-2.962 4.065-2.962 2.41 0 4.326.987 4.471 3.397 0 .116.117.233.233.233h.871a.25.25 0 00.232-.233c-.145-3.107-2.642-4.471-5.778-4.471-3.194 0-5.488 1.393-5.488 4.094 0 5.807 10.308 2.294 10.308 7.143 0 2.062-1.829 3.223-4.385 3.223-3.078 0-4.762-1.365-4.849-4.297a.25.25 0 00-.232-.233h-.929a.25.25 0 00-.233.232c.087 3.66 2.468 5.372 6.214 5.372 3.252 0 5.808-1.626 5.808-4.384z" fill="#fff"/></svg>