<svg width="160" height="41" viewBox="0 0 160 41" fill="none" xmlns="http://www.w3.org/2000/svg"><path d="M.38 2.638h4.104V14h2.185V2.638h4.104V.7H.38v1.938zm14.688 11.476c2.413 0 4.047-1.463 4.39-3.382h-2.053c-.285 1.083-1.197 1.71-2.45 1.71-1.616 0-2.66-1.083-2.718-2.736v-.133h7.334c.038-.266.057-.532.057-.779-.057-2.85-1.938-4.636-4.75-4.636-2.869 0-4.788 1.995-4.788 4.997 0 2.983 1.92 4.959 4.978 4.959zm-2.755-6.042c.152-1.387 1.273-2.261 2.584-2.261 1.425 0 2.432.817 2.603 2.261h-5.187zm13.44 6.042c2.488 0 4.141-1.387 4.521-3.591h-2.166c-.247 1.121-1.083 1.843-2.337 1.843-1.653 0-2.736-1.311-2.736-3.211 0-1.919 1.083-3.249 2.736-3.249 1.273 0 2.09.703 2.356 1.843h2.147c-.399-2.204-1.957-3.591-4.465-3.591-2.945 0-4.883 1.995-4.883 4.997 0 3.04 1.881 4.959 4.826 4.959zm11.203-9.956c-1.52 0-2.451.684-3.06 1.52V.7h-2.051V14h2.052V9.079c0-1.957.988-3.154 2.603-3.154 1.52 0 2.337.988 2.337 2.831V14h2.052V8.585c0-3.249-1.767-4.427-3.933-4.427zm10.929 0c-1.577 0-2.508.627-3.116 1.387l-.228-1.273h-1.786V14h2.052V9.098c0-1.976.969-3.173 2.603-3.173 1.539 0 2.318.988 2.318 2.831V14h2.071V8.585c0-3.249-1.767-4.427-3.914-4.427zm10.304 9.956c2.964 0 4.959-1.995 4.959-4.978 0-2.964-1.995-4.978-4.959-4.978-2.964 0-4.959 2.014-4.959 4.978 0 2.983 1.995 4.978 4.959 4.978zm0-1.748c-1.729 0-2.85-1.349-2.85-3.23s1.121-3.23 2.85-3.23 2.869 1.349 2.869 3.23-1.14 3.23-2.869 3.23zM64.798 14h2.052V.7h-2.052V14zm8.662.114c2.964 0 4.959-1.995 4.959-4.978 0-2.964-1.995-4.978-4.96-4.978-2.963 0-4.959 2.014-4.959 4.978 0 2.983 1.996 4.978 4.96 4.978zm0-1.748c-1.73 0-2.85-1.349-2.85-3.23s1.12-3.23 2.85-3.23c1.729 0 2.869 1.349 2.869 3.23s-1.14 3.23-2.87 3.23zm14.038-6.574c-.627-.969-1.672-1.634-3.193-1.634-2.64 0-4.598 1.957-4.598 4.94 0 3.097 1.958 4.94 4.599 4.94 1.52 0 2.526-.627 3.172-1.596v1.083c0 1.862-1.006 2.717-2.792 2.717-1.445 0-2.395-.627-2.642-1.71h-2.09c.19 2.185 1.996 3.382 4.58 3.382 3.495 0 4.977-1.672 4.977-4.313V4.272h-1.785l-.228 1.52zm-2.85 6.517c-1.71 0-2.831-1.311-2.831-3.211 0-1.881 1.12-3.211 2.83-3.211s2.831 1.33 2.831 3.249c0 1.862-1.12 3.173-2.83 3.173zm9.68 1.748l-.38.95c-.303.798-.493.988-1.291.988h-1.444V17.8h2.204c1.425 0 1.843-.703 2.45-2.28l4.409-11.248h-2.185l-2.641 7.391-2.717-7.391h-2.185l3.78 9.785zm23.038-9.899c-1.596 0-2.698.703-3.325 1.767-.589-1.254-1.729-1.767-3.002-1.767-1.463.019-2.299.665-2.85 1.387l-.228-1.273h-1.786V14h2.052V8.794c0-1.729.874-2.869 2.28-2.869 1.349 0 2.052.893 2.052 2.603V14h2.071V8.737c0-1.748.893-2.812 2.299-2.812 1.33 0 2.033.893 2.033 2.603V14h2.052V8.395c0-3.078-1.634-4.237-3.648-4.237zm10.051 9.956c2.413 0 4.047-1.463 4.389-3.382h-2.052c-.285 1.083-1.197 1.71-2.451 1.71-1.615 0-2.66-1.083-2.717-2.736v-.133h7.334c.038-.266.057-.532.057-.779-.057-2.85-1.938-4.636-4.75-4.636-2.869 0-4.788 1.995-4.788 4.997 0 2.983 1.919 4.959 4.978 4.959zm-2.755-6.042c.152-1.387 1.273-2.261 2.584-2.261 1.425 0 2.432.817 2.603 2.261h-5.187zm13.591 6.042c2.413 0 4.047-1.463 4.389-3.382h-2.052c-.285 1.083-1.197 1.71-2.451 1.71-1.615 0-2.66-1.083-2.717-2.736v-.133h7.334c.038-.266.057-.532.057-.779-.057-2.85-1.938-4.636-4.75-4.636-2.869 0-4.788 1.995-4.788 4.997 0 2.983 1.919 4.959 4.978 4.959zm-2.755-6.042c.152-1.387 1.273-2.261 2.584-2.261 1.425 0 2.432.817 2.603 2.261h-5.187zm9.603 3.287c0 1.767.798 2.641 2.66 2.641h1.9v-1.805h-1.444c-.779 0-1.045-.285-1.045-1.045V6.077h2.375V4.272h-2.375V1.555h-2.071v2.717h-1.691v1.805h1.691v5.282zm5.447-.57c.057 2.109 1.843 3.325 4.446 3.325 2.356 0 4.123-1.178 4.123-3.04 0-2.166-1.805-2.622-4.028-2.888-1.406-.152-2.337-.266-2.337-1.178 0-.779.798-1.273 2.014-1.273 1.216 0 2.052.627 2.166 1.52h2.014c-.133-1.995-1.824-3.097-4.218-3.097-2.337-.019-3.99 1.178-3.99 3.021 0 2.014 1.748 2.489 3.971 2.755 1.501.19 2.394.266 2.394 1.311 0 .779-.836 1.273-2.109 1.273-1.482 0-2.356-.722-2.432-1.729h-2.014zM1.71 34.359c0 1.767.798 2.641 2.66 2.641h1.9v-1.805H4.826c-.779 0-1.045-.285-1.045-1.045v-5.073h2.375v-1.805H3.781v-2.717H1.71v2.717H.019v1.805H1.71v5.282zm10.786-7.087c-1.596 0-2.375.646-2.869 1.463L9.4 27.272H7.575V37h2.052v-4.883c0-1.501.59-2.926 2.413-2.926h.912v-1.919h-.456zm10.317 7.942c-.418 0-.627-.133-.627-.627v-3.895c0-2.299-1.482-3.534-4.066-3.534-2.45 0-4.085 1.178-4.294 3.078h2.014c.152-.855.97-1.425 2.185-1.425 1.35 0 2.128.665 2.128 1.748v.589h-2.45c-2.718 0-4.162 1.121-4.162 3.116 0 1.805 1.482 2.85 3.61 2.85 1.577 0 2.565-.684 3.211-1.672 0 .969.456 1.558 1.786 1.558h1.083v-1.786h-.418zm-2.66-2.204c-.019 1.501-1.007 2.508-2.717 2.508-1.12 0-1.805-.57-1.805-1.387 0-.988.703-1.463 1.976-1.463h2.546v.342zm9.326-5.852c-1.577 0-2.508.627-3.116 1.387l-.228-1.273h-1.786V37H26.4v-4.902c0-1.976.969-3.173 2.603-3.173 1.539 0 2.318.988 2.318 2.831V37h2.07v-5.415c0-3.249-1.766-4.427-3.913-4.427zm5.362 6.631c.057 2.109 1.843 3.325 4.446 3.325 2.356 0 4.123-1.178 4.123-3.04 0-2.166-1.805-2.622-4.028-2.888-1.406-.152-2.337-.266-2.337-1.178 0-.779.798-1.273 2.014-1.273 1.216 0 2.052.627 2.166 1.52h2.014c-.133-1.995-1.824-3.097-4.218-3.097-2.337-.019-3.99 1.178-3.99 3.021 0 2.014 1.748 2.489 3.971 2.755 1.501.19 2.394.266 2.394 1.311 0 .779-.836 1.273-2.109 1.273-1.482 0-2.356-.722-2.432-1.729h-2.014zm15.365-6.631c-1.52 0-2.527.703-3.173 1.558l-.247-1.444H45V40.8h2.052v-5.168c.608.874 1.653 1.482 3.154 1.482 2.66 0 4.598-1.976 4.598-4.978 0-3.116-1.938-4.978-4.598-4.978zm-.342 8.227c-1.71 0-2.83-1.349-2.83-3.287 0-1.881 1.12-3.192 2.83-3.192s2.85 1.311 2.85 3.23c0 1.9-1.14 3.249-2.85 3.249zm15.476-.171c-.418 0-.627-.133-.627-.627v-3.895c0-2.299-1.482-3.534-4.066-3.534-2.45 0-4.085 1.178-4.294 3.078h2.014c.152-.855.97-1.425 2.185-1.425 1.35 0 2.128.665 2.128 1.748v.589h-2.45c-2.718 0-4.162 1.121-4.162 3.116 0 1.805 1.482 2.85 3.61 2.85 1.577 0 2.565-.684 3.211-1.672 0 .969.456 1.558 1.786 1.558h1.083v-1.786h-.418zm-2.66-2.204c-.019 1.501-1.007 2.508-2.717 2.508-1.12 0-1.805-.57-1.805-1.387 0-.988.703-1.463 1.976-1.463h2.546v.342zm9.117-5.738c-1.596 0-2.375.646-2.869 1.463l-.228-1.463h-1.824V37h2.052v-4.883c0-1.501.59-2.926 2.413-2.926h.912v-1.919h-.456zm5.875 9.842c2.413 0 4.047-1.463 4.389-3.382h-2.052c-.285 1.083-1.197 1.71-2.451 1.71-1.615 0-2.66-1.083-2.717-2.736v-.133h7.334c.038-.266.057-.532.057-.779-.057-2.85-1.938-4.636-4.75-4.636-2.87 0-4.788 1.995-4.788 4.997 0 2.983 1.919 4.959 4.978 4.959zm-2.755-6.042c.152-1.387 1.273-2.261 2.584-2.261 1.425 0 2.432.817 2.603 2.261h-5.187zm14.104-3.914c-1.577 0-2.508.627-3.116 1.387l-.228-1.273H83.89V37h2.052v-4.902c0-1.976.969-3.173 2.603-3.173 1.539 0 2.318.988 2.318 2.831V37h2.07v-5.415c0-3.249-1.766-4.427-3.913-4.427zm10.17 9.956c2.49 0 4.143-1.387 4.523-3.591h-2.166c-.247 1.121-1.083 1.843-2.337 1.843-1.653 0-2.736-1.311-2.736-3.211 0-1.919 1.083-3.249 2.736-3.249 1.273 0 2.09.703 2.356 1.843h2.147c-.399-2.204-1.957-3.591-4.465-3.591-2.945 0-4.883 1.995-4.883 4.997 0 3.04 1.88 4.959 4.826 4.959zm8.608-.057l-.38.95c-.304.798-.494.988-1.292.988h-1.444V40.8h2.204c1.425 0 1.843-.703 2.451-2.28l4.408-11.248h-2.185l-2.641 7.391-2.717-7.391h-2.185l3.781 9.785z" fill="#000"/></svg>