<svg width="117" height="26" viewBox="0 0 117 26" fill="none" xmlns="http://www.w3.org/2000/svg"><rect width="117" height="26" rx="13" fill="#fff"/><path d="M28.52 12.8c0-2.472-1.644-4.272-4.008-4.272s-4.008 1.8-4.008 4.272c0 2.472 1.644 4.272 4.008 4.272s4.008-1.8 4.008-4.272zm-6.948 0c0-1.932 1.188-3.312 2.94-3.312s2.94 1.38 2.94 3.312-1.188 3.312-2.94 3.312-2.94-1.38-2.94-3.312zm11.207-1.992c-1.032 0-1.692.492-2.1 1.056l-.132-.984h-.852v8.52h.984v-3.336c.372.588 1.068 1.008 2.1 1.008 1.692 0 2.94-1.26 2.94-3.132 0-1.992-1.248-3.132-2.94-3.132zm-.096 5.388c-1.2 0-2.016-.936-2.016-2.28 0-1.308.816-2.232 2.016-2.232 1.212 0 2.028.924 2.028 2.256 0 1.332-.816 2.256-2.028 2.256zm6.98.876c1.417 0 2.425-.9 2.665-2.124h-.996c-.204.792-.876 1.248-1.74 1.248-1.164 0-1.896-.816-1.932-1.98v-.084h4.752c.012-.144.024-.288.024-.42-.048-1.812-1.176-2.904-2.904-2.904s-2.904 1.272-2.904 3.132c0 1.872 1.2 3.132 3.036 3.132zm-1.943-3.756c.096-.996.924-1.644 1.824-1.644 1.02 0 1.74.588 1.836 1.644h-3.66zm8.839-2.508c-1.032 0-1.656.432-2.016.9l-.132-.828h-.852V17h.984v-3.06c0-1.38.696-2.232 1.848-2.232 1.068 0 1.656.672 1.656 1.944V17h.984v-3.408c0-2.028-1.092-2.784-2.472-2.784zM58.838 16.1c-.276 0-.396-.084-.396-.408v-2.676c0-1.428-.9-2.208-2.46-2.208-1.476 0-2.448.708-2.592 1.908h.984c.12-.624.696-1.032 1.56-1.032.96 0 1.524.48 1.524 1.272v.42h-1.8c-1.608 0-2.46.684-2.46 1.908 0 1.116.912 1.788 2.256 1.788 1.056 0 1.668-.468 2.052-1.02.012.6.288.948 1.104.948h.54v-.9h-.312zm-1.38-1.596c0 1.02-.708 1.728-1.932 1.728-.816 0-1.332-.408-1.332-1.008 0-.696.492-1.02 1.368-1.02h1.896v.3zm5.126 2.568c1.488 0 2.484-.84 2.724-2.16h-1.044c-.192.78-.792 1.284-1.668 1.284-1.176 0-1.968-.912-1.968-2.244 0-1.332.792-2.268 1.968-2.268.9 0 1.5.492 1.68 1.308h1.032c-.252-1.344-1.2-2.184-2.7-2.184-1.776 0-2.988 1.272-2.988 3.144 0 1.908 1.176 3.12 2.964 3.12zm6.55 0c1.489 0 2.485-.84 2.725-2.16h-1.044c-.192.78-.792 1.284-1.668 1.284-1.176 0-1.968-.912-1.968-2.244 0-1.332.792-2.268 1.968-2.268.9 0 1.5.492 1.68 1.308h1.032c-.252-1.344-1.2-2.184-2.7-2.184-1.776 0-2.988 1.272-2.988 3.144 0 1.908 1.176 3.12 2.964 3.12zm6.624 0c1.788 0 3.036-1.272 3.036-3.132s-1.248-3.132-3.036-3.132-3.036 1.272-3.036 3.132 1.248 3.132 3.036 3.132zm0-.876c-1.212 0-2.028-.948-2.028-2.256 0-1.308.816-2.256 2.028-2.256 1.212 0 2.028.948 2.028 2.256 0 1.308-.816 2.256-2.028 2.256zm8.448-2.256c0 1.38-.672 2.232-1.788 2.232-1.02 0-1.596-.672-1.596-1.944V10.88h-.984v3.408c0 2.028 1.068 2.784 2.412 2.784 1.008 0 1.596-.432 1.956-.888l.132.816h.852v-6.12h-.984v3.06zm5.325-3.132c-1.032 0-1.656.432-2.016.9l-.132-.828h-.852V17h.984v-3.06c0-1.38.696-2.232 1.848-2.232 1.068 0 1.656.672 1.656 1.944V17h.984v-3.408c0-2.028-1.092-2.784-2.472-2.784zm4.183 4.596c0 1.08.42 1.596 1.596 1.596h1.068v-.9h-.972c-.528 0-.708-.192-.708-.708V11.78h1.584v-.9h-1.584V9.164h-.984v1.716H92.61v.9h1.104v3.624z" fill="#000"/></svg>