<svg width="78" height="18" viewBox="0 0 78 18" fill="none" xmlns="http://www.w3.org/2000/svg"><rect y=".5" width="78" height="17" rx="8.5" fill="#000"/><path d="M16.39 9.35c0-1.854-1.233-3.204-3.006-3.204-1.773 0-3.006 1.35-3.006 3.204s1.233 3.204 3.006 3.204c1.773 0 3.006-1.35 3.006-3.204zm-5.211 0c0-1.449.891-2.484 2.205-2.484s2.205 1.035 2.205 2.484-.891 2.484-2.205 2.484-2.205-1.035-2.205-2.484zm8.406-1.494c-.774 0-1.27.369-1.575.792l-.1-.738h-.638v6.39h.738v-2.502c.279.441.8.756 1.575.756 1.269 0 2.205-.945 2.205-2.349 0-1.494-.936-2.349-2.205-2.349zm-.072 4.041c-.9 0-1.512-.702-1.512-1.71 0-.981.612-1.674 1.512-1.674.909 0 1.52.693 1.52 1.692s-.611 1.692-1.52 1.692zm5.235.657c1.062 0 1.818-.675 1.998-1.593h-.747c-.153.594-.657.936-1.305.936-.873 0-1.422-.612-1.45-1.485v-.063h3.565c.009-.108.018-.216.018-.315-.036-1.359-.882-2.178-2.178-2.178-1.296 0-2.178.954-2.178 2.349 0 1.404.9 2.349 2.277 2.349zM23.29 9.737a1.359 1.359 0 011.368-1.233c.765 0 1.305.441 1.377 1.233H23.29zm6.629-1.881c-.774 0-1.242.324-1.512.675l-.099-.621h-.639v4.59h.738v-2.295c0-1.035.522-1.674 1.386-1.674.801 0 1.242.504 1.242 1.458V12.5h.738V9.944c0-1.521-.819-2.088-1.854-2.088zm9.21 3.969c-.208 0-.298-.063-.298-.306V9.512c0-1.071-.675-1.656-1.845-1.656-1.107 0-1.836.531-1.944 1.431h.738c.09-.468.522-.774 1.17-.774.72 0 1.143.36 1.143.954v.315h-1.35c-1.206 0-1.845.513-1.845 1.431 0 .837.684 1.341 1.692 1.341.792 0 1.251-.351 1.54-.765.008.45.215.711.827.711h.405v-.675h-.234zm-1.036-1.197c0 .765-.53 1.296-1.449 1.296-.612 0-.999-.306-.999-.756 0-.522.37-.765 1.026-.765h1.422v.225zm3.845 1.926c1.116 0 1.863-.63 2.043-1.62h-.783c-.144.585-.594.963-1.251.963-.882 0-1.476-.684-1.476-1.683s.594-1.701 1.476-1.701c.675 0 1.125.369 1.26.981h.774c-.189-1.008-.9-1.638-2.025-1.638-1.332 0-2.241.954-2.241 2.358 0 1.431.882 2.34 2.223 2.34zm4.913 0c1.116 0 1.863-.63 2.043-1.62h-.783c-.144.585-.594.963-1.25.963-.883 0-1.477-.684-1.477-1.683s.594-1.701 1.476-1.701c.675 0 1.125.369 1.26.981h.774c-.189-1.008-.9-1.638-2.025-1.638-1.332 0-2.24.954-2.24 2.358 0 1.431.881 2.34 2.222 2.34zm4.967 0c1.341 0 2.277-.954 2.277-2.349 0-1.395-.936-2.349-2.277-2.349-1.34 0-2.277.954-2.277 2.349 0 1.395.936 2.349 2.277 2.349zm0-.657c-.909 0-1.52-.711-1.52-1.692s.611-1.692 1.52-1.692c.91 0 1.521.711 1.521 1.692s-.612 1.692-1.52 1.692zm6.337-1.692c0 1.035-.505 1.674-1.342 1.674-.765 0-1.197-.504-1.197-1.458V7.91h-.737v2.556c0 1.521.8 2.088 1.809 2.088.755 0 1.197-.324 1.466-.666l.1.612h.639V7.91h-.739v2.295zm3.993-2.349c-.774 0-1.242.324-1.512.675l-.099-.621h-.639v4.59h.738v-2.295c0-1.035.522-1.674 1.386-1.674.802 0 1.242.504 1.242 1.458V12.5h.738V9.944c0-1.521-.818-2.088-1.853-2.088zm3.137 3.447c0 .81.316 1.197 1.198 1.197h.8v-.675h-.728c-.397 0-.532-.144-.532-.531V8.585h1.189V7.91h-1.189V6.623h-.737V7.91h-.829v.675h.829v2.718z" fill="#fff"/></svg>