<svg width="97" height="14" viewBox="0 0 97 14" fill="none" xmlns="http://www.w3.org/2000/svg"><path d="M3.175 3.124c.422-.449.91-.803 1.468-1.06a4.196 4.196 0 011.78-.384c.694 0 1.253.09 1.676.272.422.182.83.444 1.227.787.192.15.39.217.594.201a.832.832 0 00.521-.225.661.661 0 00.216-.506 1.16 1.16 0 00-.024-.25.591.591 0 00-.097-.208.883.883 0 00-.2-.201C9.735 1.058 9.14.704 8.546.49 7.955.277 7.247.169 6.423.169c-.878 0-1.69.167-2.438.498A6.175 6.175 0 002.02 2.039c-.56.584-1 1.264-1.316 2.04a6.622 6.622 0 00-.472 2.514c0 .91.157 1.757.472 2.539a6.305 6.305 0 001.316 2.047 6.016 6.016 0 001.972 1.365c.753.327 1.563.49 2.43.49a6.11 6.11 0 002.078-.353 6.46 6.46 0 001.853-1.044.828.828 0 00.256-.595c0-.235-.064-.42-.192-.554a.726.726 0 00-.473-.226c-.187-.015-.377.045-.57.186a5.978 5.978 0 01-1.404.778 4.27 4.27 0 01-1.547.281 4.266 4.266 0 01-1.78-.378 4.608 4.608 0 01-1.468-1.052 4.884 4.884 0 01-.987-1.566 5.166 5.166 0 01-.353-1.92c0-.674.118-1.308.353-1.903a4.896 4.896 0 01.987-1.564zM13.883.33a.825.825 0 00-.594.232.799.799 0 00-.24.601v10.875c0 .236.079.433.24.594.16.16.358.241.594.241.246 0 .446-.08.6-.24a.82.82 0 00.232-.595V1.163a.816.816 0 00-.232-.601.814.814 0 00-.6-.233zM25.768.33h-8.58a.754.754 0 00-.554.216.753.753 0 00-.217.555c0 .225.073.41.217.555a.75.75 0 00.554.217h3.464v10.166c0 .236.08.434.24.595.162.16.359.241.594.241.236 0 .433-.08.594-.24a.807.807 0 00.24-.596V1.871h3.45a.754.754 0 00.554-.217.753.753 0 00.216-.555.756.756 0 00-.216-.555.756.756 0 00-.556-.215zM38.565.53a.64.64 0 00-.48-.2.838.838 0 00-.434.103.935.935 0 00-.304.297l-3.818 6.03L29.776.796A1.316 1.316 0 0029.47.45a.708.708 0 00-.433-.12.838.838 0 00-.537.186.74.74 0 00-.28.482c-.033.197.02.409.161.634L32.663 8.3v3.743c0 .236.08.433.241.595.161.16.353.24.578.24.236 0 .433-.08.594-.24a.807.807 0 00.24-.595V8.296l4.315-6.666a.932.932 0 00.161-.602.845.845 0 00-.227-.497zM47.052.33a.825.825 0 00-.594.232.798.798 0 00-.24.601v10.875c0 .236.08.433.24.594.161.16.359.241.594.241.246 0 .447-.08.6-.24a.82.82 0 00.233-.595V1.163a.816.816 0 00-.232-.601.814.814 0 00-.6-.233zM59.687.33a.825.825 0 00-.594.232.799.799 0 00-.24.601V9.95L51.86.635a.806.806 0 00-.642-.306.794.794 0 00-.586.233.812.812 0 00-.232.601v10.875c0 .236.078.433.232.594.154.16.35.241.586.241.245 0 .446-.08.6-.24a.828.828 0 00.232-.595v-8.77l6.993 9.316a.687.687 0 00.296.216.938.938 0 00.344.073c.246 0 .444-.08.594-.24a.844.844 0 00.225-.595V1.163a.825.825 0 00-.225-.601c-.145-.155-.344-.233-.59-.233z" fill="#fff"/><path fill-rule="evenodd" clip-rule="evenodd" d="M71.155 2.088a5.776 5.776 0 00-1.965-1.3c-.753-.306-1.591-.459-2.51-.459h-2.904a.825.825 0 00-.594.233.799.799 0 00-.24.601v10.875c0 .236.08.433.24.594.161.16.359.241.594.241h2.903c.92 0 1.756-.152 2.51-.457a5.792 5.792 0 001.966-1.3 5.8 5.8 0 001.283-1.993c.3-.764.448-1.609.448-2.53 0-.92-.149-1.76-.448-2.52a5.82 5.82 0 00-1.283-1.985zm-.466 6.987a4.421 4.421 0 01-1.627 1.702c-.69.413-1.484.62-2.382.62h-2.07v-9.59h2.07c.898 0 1.69.202 2.382.61.689.407 1.232.97 1.627 1.687.395.718.594 1.546.594 2.49 0 .93-.198 1.758-.594 2.48z" fill="#fff"/><path d="M83.206 1.87c.246 0 .444-.069.594-.21a.713.713 0 00.225-.545.753.753 0 00-.225-.57c-.149-.145-.348-.217-.594-.217h-7.25a.825.825 0 00-.594.232.799.799 0 00-.24.602v10.874c0 .236.079.433.24.595.16.159.358.24.594.24h7.25c.246 0 .444-.072.594-.216a.76.76 0 00.225-.57.707.707 0 00-.225-.547c-.149-.139-.348-.21-.594-.21H76.79V7.316h4.604c.245 0 .443-.072.593-.216a.74.74 0 00.226-.555.736.736 0 00-.226-.555c-.148-.144-.347-.217-.593-.217H76.79V1.871h6.416zM92.252 6.528l3.657-4.883a.967.967 0 00.176-.594.792.792 0 00-.208-.514c-.128-.138-.304-.21-.53-.21a.773.773 0 00-.593.242L91.16 5.357 87.713.57c-.118-.16-.316-.24-.594-.24a.68.68 0 00-.537.225.92.92 0 00-.232.53c-.02.203.033.39.161.562l3.523 4.894-3.732 4.983a.929.929 0 00-.193.57c0 .209.065.393.193.547.128.156.315.232.56.232.226 0 .418-.08.579-.24l3.682-4.907 3.489 4.842a.774.774 0 00.28.232.831.831 0 00.362.073c.236 0 .419-.074.554-.225a.855.855 0 00.216-.546.872.872 0 00-.176-.58l-3.596-4.994z" fill="#fff"/></svg>