<svg width="100" height="27" viewBox="0 0 100 27" fill="none" xmlns="http://www.w3.org/2000/svg"><rect x=".169" y=".668" width="99.599" height="25.866" rx="12.933" fill="#fff"/><path d="M19.906 14.597c.055 1.509 1.149 2.57 3.019 2.57 1.607 0 2.723-.93 2.723-2.253 0-1.487-1.28-1.903-2.526-2.11-1.149-.198-2.078-.383-2.078-1.302 0-.82.667-1.258 1.662-1.258 1.039 0 1.75.58 1.86 1.466h.983c-.087-1.378-1.137-2.33-2.843-2.33-1.553 0-2.614.875-2.614 2.176 0 1.488 1.269 1.893 2.505 2.1 1.159.197 2.1.394 2.1 1.345 0 .832-.733 1.302-1.761 1.302-1.17 0-1.969-.678-2.046-1.706h-.984zm7.234 1.05c0 .984.383 1.454 1.454 1.454h.974v-.82h-.886c-.481 0-.645-.175-.645-.645v-3.292h1.443v-.82h-1.443V9.96h-.897v1.564h-1.006v.82h1.006v3.303zm8.052.634c-.252 0-.361-.076-.361-.372V13.47c0-1.301-.82-2.012-2.242-2.012-1.345 0-2.231.645-2.362 1.739h.896c.11-.569.635-.94 1.422-.94.875 0 1.389.437 1.389 1.159v.383h-1.64c-1.466 0-2.242.623-2.242 1.738 0 1.017.83 1.63 2.056 1.63.962 0 1.52-.427 1.87-.93.01.547.262.864 1.006.864h.492v-.82h-.284zm-1.258-1.454c0 .93-.645 1.574-1.76 1.574-.744 0-1.215-.372-1.215-.918 0-.635.449-.93 1.247-.93h1.728v.273zm4.812-3.303c-.995 0-1.421.415-1.684.842l-.12-.842h-.777V17.1h.897v-2.843c0-.886.317-1.86 1.488-1.86h.448v-.874h-.252zm1.626 4.123c0 .984.383 1.454 1.455 1.454h.973v-.82h-.886c-.48 0-.645-.175-.645-.645v-3.292h1.444v-.82h-1.444V9.96h-.897v1.564h-1.006v.82h1.006v3.303zm6.483 0c0 .984.383 1.454 1.455 1.454h.973v-.82h-.886c-.48 0-.645-.175-.645-.645v-3.292h1.444v-.82h-1.444V9.96h-.897v1.564H45.85v.82h1.006v3.303zm5.786-4.123c-.995 0-1.422.415-1.684.842l-.12-.842h-.777V17.1h.897v-2.843c0-.886.317-1.86 1.487-1.86h.449v-.874h-.252zm5.77 4.757c-.252 0-.362-.076-.362-.372V13.47c0-1.301-.82-2.012-2.242-2.012-1.345 0-2.23.645-2.362 1.739h.897c.11-.569.634-.94 1.422-.94.874 0 1.389.437 1.389 1.159v.383h-1.641c-1.465 0-2.242.623-2.242 1.738 0 1.017.831 1.63 2.056 1.63.962 0 1.52-.427 1.87-.93.011.547.263.864 1.006.864h.492v-.82h-.284zm-1.258-1.454c0 .93-.646 1.574-1.761 1.574-.744 0-1.214-.372-1.214-.918 0-.635.448-.93 1.247-.93h1.728v.273zm6.563-2.45c-.339-.536-.973-.919-1.914-.919-1.542 0-2.679 1.148-2.679 2.854 0 1.816 1.137 2.855 2.68 2.855.94 0 1.541-.449 1.913-.963l.12.897h.777V9.446h-.897v2.93zm-1.826 3.992c-1.105 0-1.848-.843-1.848-2.056 0-1.215.743-2.057 1.848-2.057 1.094 0 1.837.854 1.837 2.078 0 1.192-.743 2.035-1.837 2.035zm4.404-5.786c.328 0 .58-.24.58-.58a.563.563 0 00-.58-.58c-.328 0-.58.241-.58.58 0 .34.252.58.58.58zm-.46 6.518h.897v-5.577h-.896V17.1zm4.86-5.643c-.94 0-1.509.394-1.837.82l-.12-.754h-.777V17.1h.897v-2.788c0-1.258.634-2.035 1.684-2.035.973 0 1.51.613 1.51 1.772v3.051h.896v-3.106c0-1.848-.995-2.537-2.253-2.537zm7.793 1.028c-.35-.623-.973-1.028-1.914-1.028-1.542 0-2.68 1.148-2.68 2.854 0 1.816 1.138 2.855 2.68 2.855.94 0 1.542-.394 1.914-1.028v.656c0 1.214-.634 1.76-1.805 1.76-.93 0-1.553-.393-1.706-1.093h-.918c.142 1.225 1.137 1.892 2.559 1.892 1.914 0 2.767-.918 2.767-2.526v-5.304h-.777l-.12.962zM76.66 16.37c-1.105 0-1.849-.843-1.849-2.056 0-1.215.744-2.057 1.849-2.057 1.093 0 1.837.854 1.837 2.078 0 1.192-.744 2.035-1.838 2.035z" fill="#000"/></svg>