<svg width="262" height="93" viewBox="0 0 262 93" fill="none" xmlns="http://www.w3.org/2000/svg"><path d="M11.824 6.644c0 2.128-1.54 2.968-3.332 2.968H4.236l.084-6.104h4.06c2.184 0 3.444 1.008 3.444 3.136zm-.364 13.104c.112.14.28.252.476.252h4.34c.14 0 .224-.14.14-.252l-4.844-7.476c2.772-.84 4.368-2.828 4.368-5.712C15.94 2.472 13.112.4 8.212.4H.316a.31.31 0 00-.308.308l.14 9.492-.14 9.492c0 .168.14.308.308.308h3.752a.31.31 0 00.308-.308l-.112-6.972h2.8l1.932 2.912 2.464 4.116zm16.866-4.62a.36.36 0 00-.364.308c-.392 1.512-1.4 2.128-2.8 2.128-2.015 0-3.08-1.204-3.247-3.92h10.248a.31.31 0 00.308-.308c-.112-5.012-2.716-8.12-7.448-8.12-4.593 0-7.337 3.024-7.337 7.616 0 4.368 2.605 7.532 7.42 7.532 4.004 0 6.524-2.296 6.916-4.928.029-.168-.111-.308-.28-.308h-3.416zm-.392-4.144h-5.908c.337-1.988 1.345-2.996 3.024-2.996 1.848 0 2.716 1.456 2.884 2.996zm10.852 1.652c0-2.996 1.092-4.62 3.22-4.564 2.016.028 3.108 1.736 3.08 4.844-.028 3.052-1.12 4.592-3.164 4.592-2.016.028-3.136-1.624-3.136-4.872zM48.866 20a.31.31 0 00.308-.308L49.09 10.2l.084-9.492A.31.31 0 0048.866.4h-3.64a.31.31 0 00-.308.308l.056 6.384c-.98-1.176-2.38-1.792-4.144-1.792-3.92 0-6.328 3.36-6.328 7.532 0 4.2 2.156 7.448 6.244 7.448 1.82 0 3.248-.728 4.256-1.96l-.056 1.372c-.028.168.112.308.28.308h3.64zm12.72-1.82l-.056 1.512c-.028.168.112.308.28.308h3.444a.31.31 0 00.308-.308l-.056-7.196.112-6.608a.31.31 0 00-.308-.308h-3.696a.31.31 0 00-.308.308l.056 5.824v1.064c0 3.08-1.624 4.48-3.136 4.48-1.26 0-2.212-1.008-2.212-2.576v-2.968l.084-5.824a.31.31 0 00-.308-.308h-3.64a.31.31 0 00-.308.308l.084 5.824v3.024c0 3.528 1.96 5.6 5.012 5.6 2.016 0 3.668-.896 4.648-2.156zm20.576-3.416c.028-.168-.112-.308-.28-.308h-3.36c-.168 0-.308.14-.336.308-.196 1.848-1.26 2.828-2.66 2.8-2.1-.028-3.136-1.456-3.136-4.76 0-3.192 1.008-4.732 3.136-4.76 1.176 0 2.212.784 2.52 2.352a.36.36 0 00.364.308h3.276c.168 0 .308-.14.28-.308-.364-3.108-2.744-5.18-6.44-5.18-4.704 0-7.448 3.024-7.448 7.616s2.744 7.532 7.364 7.532c3.752 0 6.384-2.352 6.72-5.6zm12.66.364a.36.36 0 00-.364.308c-.392 1.512-1.4 2.128-2.8 2.128-2.016 0-3.08-1.204-3.248-3.92h10.248a.31.31 0 00.308-.308c-.112-5.012-2.716-8.12-7.448-8.12-4.592 0-7.336 3.024-7.336 7.616 0 4.368 2.604 7.532 7.42 7.532 4.004 0 6.524-2.296 6.916-4.928.028-.168-.112-.308-.28-.308h-3.416zm-.392-4.144h-5.908c.336-1.988 1.344-2.996 3.024-2.996 1.848 0 2.716 1.456 2.884 2.996zm23.563 4.004c-.14 0-.28.112-.308.252-.42 2.1-1.708 3.22-3.836 3.22-2.828 0-4.256-1.848-4.34-5.32h10.64c.14 0 .252-.112.252-.252-.084-4.788-2.548-7.644-6.72-7.644s-6.748 3.08-6.748 7.588c0 4.396 2.408 7.504 6.888 7.504 3.696 0 5.88-2.156 6.328-5.096 0-.14-.084-.252-.224-.252h-1.932zm-.336-3.64h-8.064c.364-2.716 1.736-4.256 4.116-4.256 2.548 0 3.864 1.96 3.948 4.256zm8.131.308c.56-2.772 1.904-4.368 3.584-4.368 1.708 0 2.772 1.092 2.772 3.78v3.304l-.056 5.376c0 .14.112.252.252.252h2.1c.14 0 .252-.112.252-.252l-.056-5.376V11.04c.616-2.38 1.904-3.752 3.444-3.752 1.68 0 2.772 1.092 2.772 3.78v3.304l-.084 5.376c0 .14.112.252.252.252h2.128c.14 0 .252-.112.252-.252l-.056-5.376v-3.416c0-3.92-1.68-5.712-4.508-5.712-2.044 0-3.528 1.064-4.536 3.024-.644-2.072-2.1-3.024-4.172-3.024-2.156 0-3.556 1.26-4.452 2.772l.084-2.184a.251.251 0 00-.252-.252h-2.016a.251.251 0 00-.252.252l.056 8.54-.084 5.376c0 .14.112.252.252.252h2.156c.14 0 .252-.112.252-.252l-.084-5.376v-2.716zm23.267-7.728c.14 0 .252-.112.252-.252V1.38a.251.251 0 00-.252-.252h-2.1a.251.251 0 00-.252.252v2.296c0 .14.112.252.252.252h2.1zm0 16.072c.14 0 .252-.112.252-.252l-.056-7.196.056-6.72a.251.251 0 00-.252-.252h-2.1a.251.251 0 00-.252.252l.056 6.748-.056 7.168c0 .14.112.252.252.252h2.1zm15.67-4.144c0-6.048-9.716-2.94-9.716-6.524 0-1.596 1.26-2.324 3.22-2.324 2.072 0 3.472.84 3.64 2.66.028.14.14.252.28.252h1.876c.14 0 .252-.112.252-.252-.224-2.996-2.66-4.396-6.02-4.396-3.416 0-5.684 1.456-5.684 4.228 0 5.824 9.716 2.772 9.716 6.552 0 1.596-1.4 2.492-3.528 2.492-2.576 0-3.948-1.008-4.06-3.276a.251.251 0 00-.252-.252h-1.96a.251.251 0 00-.252.252c.112 3.36 2.604 5.04 6.44 5.04 3.444 0 6.048-1.624 6.048-4.452zm14.792 0c0-6.048-9.716-2.94-9.716-6.524 0-1.596 1.26-2.324 3.22-2.324 2.072 0 3.472.84 3.64 2.66.028.14.14.252.28.252h1.876c.14 0 .252-.112.252-.252-.224-2.996-2.66-4.396-6.02-4.396-3.416 0-5.684 1.456-5.684 4.228 0 5.824 9.716 2.772 9.716 6.552 0 1.596-1.4 2.492-3.528 2.492-2.576 0-3.948-1.008-4.06-3.276a.251.251 0 00-.252-.252h-1.96a.251.251 0 00-.252.252c.112 3.36 2.604 5.04 6.44 5.04 3.444 0 6.048-1.624 6.048-4.452zm5.3-11.928c.14 0 .252-.112.252-.252V1.38a.251.251 0 00-.252-.252h-2.1a.251.251 0 00-.252.252v2.296c0 .14.112.252.252.252h2.1zm0 16.072c.14 0 .252-.112.252-.252l-.056-7.196.056-6.72a.251.251 0 00-.252-.252h-2.1a.251.251 0 00-.252.252l.056 6.748-.056 7.168c0 .14.112.252.252.252h2.1zm16.903-7.224c0-4.536-2.436-7.532-6.832-7.532-4.368 0-6.832 3.024-6.832 7.588 0 4.536 2.464 7.504 6.832 7.504 4.396 0 6.832-3.024 6.832-7.56zm-11.06.056c0-3.612 1.372-5.684 4.228-5.712 2.8 0 4.2 2.1 4.2 5.712 0 3.612-1.372 5.628-4.2 5.628-2.828 0-4.228-2.016-4.228-5.628zM206.933 20c.14 0 .252-.112.252-.252l-.028-5.908v-2.184c.56-2.856 2.072-4.368 3.976-4.368 1.792 0 3.052 1.176 3.052 3.78v2.772l-.056 5.908c0 .14.112.252.252.252h2.072c.14 0 .252-.112.252-.252l-.056-5.908v-2.884c0-3.752-1.848-5.712-4.816-5.712-2.296 0-3.92 1.316-4.816 2.772l.084-2.184a.251.251 0 00-.252-.252h-1.988a.251.251 0 00-.252.252l.056 7.588-.084 6.328c0 .14.112.252.252.252h2.1zm24.943-4.144c0-6.048-9.716-2.94-9.716-6.524 0-1.596 1.26-2.324 3.22-2.324 2.072 0 3.472.84 3.64 2.66.028.14.14.252.28.252h1.876c.14 0 .252-.112.252-.252-.224-2.996-2.66-4.396-6.02-4.396-3.416 0-5.684 1.456-5.684 4.228 0 5.824 9.716 2.772 9.716 6.552 0 1.596-1.4 2.492-3.528 2.492-2.576 0-3.948-1.008-4.06-3.276a.251.251 0 00-.252-.252h-1.96a.251.251 0 00-.252.252c.112 3.36 2.604 5.04 6.44 5.04 3.444 0 6.048-1.624 6.048-4.452zm5.02 4.144c.14 0 .252-.112.252-.252v-2.436a.251.251 0 00-.252-.252h-2.324a.251.251 0 00-.252.252v2.436c0 .14.112.252.252.252h2.324zM3.732 43.148l-.056-1.596L8.912 55.72c.056.168.252.28.42.28h2.744c.168 0 .364-.112.42-.28l4.76-13.496-.028.868-.14 5.32v7.28c0 .168.14.308.308.308h3.696a.31.31 0 00.308-.308l-.14-9.492.14-9.492a.31.31 0 00-.308-.308h-4.76c-.168 0-.364.112-.42.28l-4.9 14.056L5.804 36.68c-.056-.168-.252-.28-.42-.28H.316a.31.31 0 00-.308.308l.14 9.492-.14 9.492c0 .168.14.308.308.308h3.248a.31.31 0 00.308-.308v-7.28l-.14-5.264zm24.555 5.46c0-2.968 1.092-4.564 3.22-4.508 1.988.028 3.108 1.708 3.08 4.788-.056 3.052-1.12 4.592-3.164 4.592-2.016.028-3.136-1.624-3.136-4.872zM38.367 56a.31.31 0 00.308-.308l-.112-6.888.112-6.916a.31.31 0 00-.308-.308h-3.64c-.168 0-.308.14-.28.308l.056 1.26c-.98-1.204-2.38-1.848-4.172-1.848-3.92 0-6.328 3.36-6.328 7.532 0 4.2 2.156 7.448 6.244 7.448 1.82 0 3.248-.728 4.256-1.96l-.056 1.372c0 .168.14.308.308.308h3.612zm7.092 0a.31.31 0 00.308-.308l-.056-5.824v-1.064c0-3.08 1.624-4.48 3.136-4.48 1.26 0 2.212 1.008 2.212 2.576v2.968l-.084 5.824c0 .168.14.308.308.308h3.64a.31.31 0 00.308-.308l-.084-5.824v-3.024c0-3.528-1.96-5.6-5.012-5.6-2.016 0-3.668.896-4.648 2.156l.056-1.512c.028-.168-.112-.308-.28-.308h-3.444a.31.31 0 00-.308.308l.056 7.196-.112 6.608c0 .168.14.308.308.308h3.696zm16.404-7.392c0-2.968 1.092-4.564 3.22-4.508 1.988.028 3.108 1.708 3.08 4.788-.056 3.052-1.12 4.592-3.164 4.592-2.016.028-3.136-1.624-3.136-4.872zM71.943 56a.31.31 0 00.308-.308l-.112-6.888.112-6.916a.31.31 0 00-.308-.308h-3.64c-.168 0-.308.14-.28.308l.056 1.26c-.98-1.204-2.38-1.848-4.172-1.848-3.92 0-6.328 3.36-6.328 7.532 0 4.2 2.156 7.448 6.244 7.448 1.82 0 3.248-.728 4.256-1.96l-.056 1.372c0 .168.14.308.308.308h3.612zm7.036-7.476c0-2.884 1.092-4.452 3.22-4.396 2.016.028 3.108 1.68 3.08 4.676-.028 2.912-1.12 4.368-3.164 4.368-2.016.028-3.136-1.54-3.136-4.648zm10.304 7.084L89.227 49l.084-7.112a.31.31 0 00-.308-.308h-3.584c-.168 0-.308.14-.28.308l.056 1.26c-.98-1.148-2.38-1.764-4.172-1.764-3.92 0-6.328 3.276-6.328 7.308 0 4.06 2.24 7.224 6.524 7.224 1.792 0 3.192-.756 4.144-2.016v1.652c0 2.268-1.26 3.276-3.08 3.276-1.68 0-2.632-.672-2.856-1.82-.028-.196-.168-.308-.364-.308h-3.5c-.168 0-.308.14-.28.308.252 3.136 3.08 4.648 6.86 4.592 4.76 0 7.168-2.352 7.14-5.992zm13.141-4.48a.36.36 0 00-.364.308c-.392 1.512-1.4 2.128-2.8 2.128-2.016 0-3.08-1.204-3.248-3.92h10.248a.31.31 0 00.308-.308c-.112-5.012-2.716-8.12-7.448-8.12-4.592 0-7.336 3.024-7.336 7.616 0 4.368 2.604 7.532 7.42 7.532 4.004 0 6.524-2.296 6.916-4.928.028-.168-.112-.308-.28-.308h-3.416zm-.392-4.144h-5.908c.336-1.988 1.344-2.996 3.024-2.996 1.848 0 2.716 1.456 2.884 2.996zm25.55 3.836c.028-.14-.084-.252-.224-.252h-1.876c-.14 0-.252.112-.28.252-.252 2.324-1.708 3.64-3.864 3.64-2.828-.028-4.172-1.988-4.172-5.656 0-3.584 1.344-5.656 4.172-5.656 1.932 0 3.332 1.064 3.724 3.164.028.14.14.252.28.252h1.848c.14 0 .252-.112.224-.252-.308-3.024-2.492-5.068-6.076-5.068-4.368 0-6.804 3.052-6.804 7.588s2.436 7.504 6.748 7.504c3.724 0 6.02-2.324 6.3-5.516zm5.176 5.18c.14 0 .252-.112.252-.252l-.112-9.688.112-9.408a.251.251 0 00-.252-.252h-2.072a.251.251 0 00-.252.252l.112 9.436-.112 9.66c0 .14.112.252.252.252h2.072zm6.179-16.072c.14 0 .252-.112.252-.252V37.38a.251.251 0 00-.252-.252h-2.1a.251.251 0 00-.252.252v2.296c0 .14.112.252.252.252h2.1zm0 16.072c.14 0 .252-.112.252-.252l-.056-7.196.056-6.72a.251.251 0 00-.252-.252h-2.1a.251.251 0 00-.252.252l.056 6.748-.056 7.168c0 .14.112.252.252.252h2.1zm6.263-8.344c.56-2.772 1.904-4.368 3.584-4.368 1.708 0 2.772 1.092 2.772 3.78v3.304l-.056 5.376c0 .14.112.252.252.252h2.1c.14 0 .252-.112.252-.252l-.056-5.376V47.04c.616-2.38 1.904-3.752 3.444-3.752 1.68 0 2.772 1.092 2.772 3.78v3.304l-.084 5.376c0 .14.112.252.252.252h2.128c.14 0 .252-.112.252-.252l-.056-5.376v-3.416c0-3.92-1.68-5.712-4.508-5.712-2.044 0-3.528 1.064-4.536 3.024-.644-2.072-2.1-3.024-4.172-3.024-2.156 0-3.556 1.26-4.452 2.772l.084-2.184a.251.251 0 00-.252-.252h-2.016a.251.251 0 00-.252.252l.056 8.54-.084 5.376c0 .14.112.252.252.252h2.156c.14 0 .252-.112.252-.252l-.084-5.376v-2.716zm22.903.98c0-3.136 1.204-5.348 3.808-5.46h.588c2.352.196 3.668 2.268 3.64 5.74-.028 3.64-1.54 5.488-4.032 5.488-2.716 0-4.004-2.324-4.004-5.768zM178.323 56c.14 0 .252-.112.252-.252l-.084-7.084.084-6.832a.251.251 0 00-.252-.252h-2.072a.251.251 0 00-.252.252l.056 1.932c-.952-1.596-2.492-2.464-4.536-2.464-3.808 0-6.02 3.36-6.02 7.532 0 4.172 2.072 7.448 5.964 7.448 2.1 0 3.64-.98 4.62-2.604l-.056 2.072c0 .14.112.252.252.252h2.044zm10.872-1.764c0-.112-.112-.224-.252-.168a7.237 7.237 0 01-1.484.168c-1.232 0-1.82-.532-1.82-2.268v-8.4h3.304c.14 0 .252-.112.252-.252v-1.484a.251.251 0 00-.252-.252h-3.304l.028-3.36a.251.251 0 00-.252-.252h-2.072a.251.251 0 00-.252.252l.028 3.36h-1.596a.251.251 0 00-.252.252v1.484c0 .14.112.252.252.252h1.596v8.456c0 3.136 1.764 4.228 3.864 4.228.672 0 1.4-.168 1.96-.336.14-.056.252-.196.252-.336v-1.344zm12.545-3.248c-.14 0-.28.112-.308.252-.42 2.1-1.708 3.22-3.836 3.22-2.828 0-4.256-1.848-4.34-5.32h10.64c.14 0 .252-.112.252-.252-.084-4.788-2.548-7.644-6.72-7.644s-6.748 3.08-6.748 7.588c0 4.396 2.408 7.504 6.888 7.504 3.696 0 5.88-2.156 6.328-5.096 0-.14-.084-.252-.224-.252h-1.932zm-.336-3.64h-8.064c.364-2.716 1.736-4.256 4.116-4.256 2.548 0 3.864 1.96 3.948 4.256zM215.107 56c.14 0 .252-.112.252-.252l-.028-7.56c.308-3.164 2.408-4.648 4.844-4.648.308 0 .588.028.812.056a.21.21 0 00.252-.196v-1.568c0-.14-.112-.28-.252-.308a3.88 3.88 0 00-.84-.084c-2.016 0-3.864.98-4.9 2.828l.112-2.436a.251.251 0 00-.252-.252h-2.072a.251.251 0 00-.252.252l.084 6.804-.084 7.112c0 .14.112.252.252.252h2.072zm11.049-16.072c.14 0 .252-.112.252-.252V37.38a.251.251 0 00-.252-.252h-2.1a.251.251 0 00-.252.252v2.296c0 .14.112.252.252.252h2.1zm0 16.072c.14 0 .252-.112.252-.252l-.056-7.196.056-6.72a.251.251 0 00-.252-.252h-2.1a.251.251 0 00-.252.252l.056 6.748-.056 7.168c0 .14.112.252.252.252h2.1zm15.671-4.144c0-6.048-9.716-2.94-9.716-6.524 0-1.596 1.26-2.324 3.22-2.324 2.072 0 3.472.84 3.64 2.66.028.14.14.252.28.252h1.876c.14 0 .252-.112.252-.252-.224-2.996-2.66-4.396-6.02-4.396-3.416 0-5.684 1.456-5.684 4.228 0 5.824 9.716 2.772 9.716 6.552 0 1.596-1.4 2.492-3.528 2.492-2.576 0-3.948-1.008-4.06-3.276a.251.251 0 00-.252-.252h-1.96a.251.251 0 00-.252.252c.112 3.36 2.604 5.04 6.44 5.04 3.444 0 6.048-1.624 6.048-4.452zm11.348 3.92c.056.14.224.224.364.224h2.436c.112 0 .168-.112.112-.224l-5.32-8.96 4.732-5.04c.056-.084.028-.196-.084-.196h-2.408a.652.652 0 00-.42.196l-5.46 6.02v-1.568l.084-9.576a.251.251 0 00-.252-.252h-2.072a.251.251 0 00-.252.252l.112 9.632-.112 9.464c0 .14.112.252.252.252h2.072c.14 0 .252-.112.252-.252l-.056-5.068 1.792-2.016 3.08 5.012 1.148 2.1zm7.671.224c.14 0 .252-.112.252-.252v-2.436a.251.251 0 00-.252-.252h-2.324a.251.251 0 00-.252.252v2.436c0 .14.112.252.252.252h2.324zM3.732 79.148l-.056-1.596L8.912 91.72c.056.168.252.28.42.28h2.744c.168 0 .364-.112.42-.28l4.76-13.496-.028.868-.14 5.32v7.28c0 .168.14.308.308.308h3.696a.31.31 0 00.308-.308l-.14-9.492.14-9.492a.31.31 0 00-.308-.308h-4.76c-.168 0-.364.112-.42.28l-4.9 14.056L5.804 72.68c-.056-.168-.252-.28-.42-.28H.316a.31.31 0 00-.308.308l.14 9.492-.14 9.492c0 .168.14.308.308.308h3.248a.31.31 0 00.308-.308v-7.28l-.14-5.264zm35.055 5.6c0-4.592-2.66-7.532-7.364-7.532s-7.42 3.024-7.42 7.616 2.716 7.532 7.42 7.532 7.364-3.024 7.364-7.616zm-10.5.112c0-3.248.98-4.816 3.108-4.844 2.072 0 3.08 1.568 3.08 4.816 0 3.304-.98 4.732-3.052 4.732-2.1 0-3.136-1.456-3.136-4.704zM45.24 92a.31.31 0 00.308-.308l-.056-5.824v-1.064c0-3.08 1.624-4.48 3.136-4.48 1.26 0 2.212 1.008 2.212 2.576v2.968l-.084 5.824c0 .168.14.308.308.308h3.64a.31.31 0 00.308-.308l-.084-5.824v-3.024c0-3.528-1.96-5.6-5.012-5.6-2.016 0-3.668.896-4.648 2.156l.056-1.512c.028-.168-.112-.308-.28-.308H41.6a.31.31 0 00-.308.308l.056 7.196-.112 6.608c0 .168.14.308.308.308h3.696zM68 87.128a.36.36 0 00-.364.308c-.392 1.512-1.4 2.128-2.8 2.128-2.016 0-3.08-1.204-3.248-3.92h10.248a.31.31 0 00.308-.308c-.112-5.012-2.716-8.12-7.448-8.12-4.592 0-7.336 3.024-7.336 7.616 0 4.368 2.604 7.532 7.42 7.532 4.004 0 6.524-2.296 6.916-4.928.028-.168-.112-.308-.28-.308H68zm-.392-4.144H61.7c.336-1.988 1.344-2.996 3.024-2.996 1.848 0 2.716 1.456 2.884 2.996zm15.26 6.3c0-.14-.14-.252-.307-.224-.42.112-.925.224-1.569.224-.924 0-1.54-.392-1.54-1.624l-.028-7.112h3.164a.31.31 0 00.309-.308v-2.352a.31.31 0 00-.309-.308h-3.135l.028-3.304a.31.31 0 00-.308-.308h-3.64a.31.31 0 00-.308.308l.028 3.304h-1.54a.31.31 0 00-.308.308v2.352c0 .168.14.308.308.308h1.568l-.029 7.224c0 3.276 2.325 4.508 4.76 4.508.868 0 1.764-.196 2.576-.448a.509.509 0 00.28-.42v-2.128zM89.29 76.18a.31.31 0 00.308-.308v-3.164a.31.31 0 00-.308-.308h-3.64a.31.31 0 00-.308.308v3.164c0 .168.14.308.308.308h3.64zM89.317 92a.31.31 0 00.308-.308l-.112-6.888.112-6.916a.31.31 0 00-.308-.308h-3.696a.31.31 0 00-.308.308l.112 6.916-.112 6.888c0 .168.14.308.308.308h3.696zm15.224-2.66a.31.31 0 00-.308-.308h-6.804l6.496-8.176c.112-.168.196-.364.196-.56v-2.408a.31.31 0 00-.308-.308H93.257a.31.31 0 00-.308.308v2.352c0 .168.14.308.308.308h5.74l-6.44 8.232c-.112.168-.196.364-.196.56v2.352c0 .168.14.308.308.308h11.564a.31.31 0 00.308-.308V89.34zm12.427-2.212a.36.36 0 00-.364.308c-.392 1.512-1.4 2.128-2.8 2.128-2.016 0-3.08-1.204-3.248-3.92h10.248a.31.31 0 00.308-.308c-.112-5.012-2.716-8.12-7.448-8.12-4.592 0-7.336 3.024-7.336 7.616 0 4.368 2.604 7.532 7.42 7.532 4.004 0 6.524-2.296 6.916-4.928.028-.168-.112-.308-.28-.308h-3.416zm-.392-4.144h-5.908c.336-1.988 1.344-2.996 3.024-2.996 1.848 0 2.716 1.456 2.884 2.996zm15.107 1.652c0-3.136 1.204-5.348 3.808-5.46h.588c2.352.196 3.668 2.268 3.64 5.74-.028 3.64-1.54 5.488-4.032 5.488-2.716 0-4.004-2.324-4.004-5.768zM141.903 92c.14 0 .252-.112.252-.252l-.084-7.084.084-6.832a.251.251 0 00-.252-.252h-2.072a.251.251 0 00-.252.252l.056 1.932c-.952-1.596-2.492-2.464-4.536-2.464-3.808 0-6.02 3.36-6.02 7.532 0 4.172 2.072 7.448 5.964 7.448 2.1 0 3.64-.98 4.62-2.604l-.056 2.072c0 .14.112.252.252.252h2.044zm15.576-4.144c0-6.048-9.716-2.94-9.716-6.524 0-1.596 1.26-2.324 3.22-2.324 2.072 0 3.472.84 3.64 2.66.028.14.14.252.28.252h1.876c.14 0 .252-.112.252-.252-.224-2.996-2.66-4.396-6.02-4.396-3.416 0-5.684 1.456-5.684 4.228 0 5.824 9.716 2.772 9.716 6.552 0 1.596-1.4 2.492-3.528 2.492-2.576 0-3.948-1.008-4.06-3.276a.251.251 0 00-.252-.252h-1.96a.251.251 0 00-.252.252c.112 3.36 2.604 5.04 6.44 5.04 3.444 0 6.048-1.624 6.048-4.452zm14.792 0c0-6.048-9.716-2.94-9.716-6.524 0-1.596 1.26-2.324 3.22-2.324 2.072 0 3.472.84 3.64 2.66.028.14.14.252.28.252h1.876c.14 0 .252-.112.252-.252-.224-2.996-2.66-4.396-6.02-4.396-3.416 0-5.684 1.456-5.684 4.228 0 5.824 9.716 2.772 9.716 6.552 0 1.596-1.4 2.492-3.528 2.492-2.576 0-3.948-1.008-4.06-3.276a.251.251 0 00-.252-.252h-1.96a.251.251 0 00-.252.252c.112 3.36 2.604 5.04 6.44 5.04 3.444 0 6.048-1.624 6.048-4.452zm13.392-.868c-.14 0-.28.112-.308.252-.42 2.1-1.708 3.22-3.836 3.22-2.828 0-4.256-1.848-4.34-5.32h10.64c.14 0 .252-.112.252-.252-.084-4.788-2.548-7.644-6.72-7.644s-6.748 3.08-6.748 7.588c0 4.396 2.408 7.504 6.888 7.504 3.696 0 5.88-2.156 6.328-5.096 0-.14-.084-.252-.224-.252h-1.932zm-.336-3.64h-8.064c.364-2.716 1.736-4.256 4.116-4.256 2.548 0 3.864 1.96 3.948 4.256zm12.425 6.888c0-.112-.112-.224-.252-.168a7.237 7.237 0 01-1.484.168c-1.232 0-1.82-.532-1.82-2.268v-8.4h3.304c.14 0 .252-.112.252-.252v-1.484a.251.251 0 00-.252-.252h-3.304l.028-3.36a.251.251 0 00-.252-.252H191.9a.251.251 0 00-.252.252l.028 3.36h-1.596a.251.251 0 00-.252.252v1.484c0 .14.112.252.252.252h1.596v8.456c0 3.136 1.764 4.228 3.864 4.228.672 0 1.4-.168 1.96-.336.14-.056.252-.196.252-.336v-1.344zm14.465-2.38c0-6.048-9.716-2.94-9.716-6.524 0-1.596 1.26-2.324 3.22-2.324 2.072 0 3.472.84 3.64 2.66.028.14.14.252.28.252h1.876c.14 0 .252-.112.252-.252-.224-2.996-2.66-4.396-6.02-4.396-3.416 0-5.684 1.456-5.684 4.228 0 5.824 9.716 2.772 9.716 6.552 0 1.596-1.4 2.492-3.528 2.492-2.576 0-3.948-1.008-4.06-3.276a.251.251 0 00-.252-.252h-1.96a.251.251 0 00-.252.252c.112 3.36 2.604 5.04 6.44 5.04 3.444 0 6.048-1.624 6.048-4.452zm5.02 4.144c.14 0 .252-.112.252-.252v-2.436a.251.251 0 00-.252-.252h-2.324a.251.251 0 00-.252.252v2.436c0 .14.112.252.252.252h2.324z" fill="#fff"/></svg>