<svg width="96" height="24" viewBox="0 0 96 24" fill="none" xmlns="http://www.w3.org/2000/svg"><rect y=".5" width="96" height="23" rx="11.5" fill="#000"/><path d="M22.22 8.68h2.497v6.82h.957V8.68h2.497V7.8H22.22v.88zm8.825 1.21c-1.001 0-1.43.418-1.694.847l-.121-.847h-.781v5.61h.902v-2.86c0-.891.319-1.87 1.496-1.87h.451v-.88h-.253zm5.802 4.785c-.253 0-.363-.077-.363-.374v-2.453c0-1.309-.825-2.024-2.255-2.024-1.352 0-2.244.649-2.375 1.749h.901c.11-.572.639-.946 1.43-.946.88 0 1.398.44 1.398 1.166v.385h-1.65c-1.474 0-2.256.627-2.256 1.749 0 1.023.837 1.639 2.069 1.639.968 0 1.529-.429 1.88-.935.012.55.265.869 1.013.869h.494v-.825h-.286zm-1.264-1.463c0 .935-.65 1.584-1.771 1.584-.748 0-1.221-.374-1.221-.924 0-.638.45-.935 1.253-.935h1.739v.275zm6.602-2.464c-.342-.539-.98-.924-1.925-.924-1.551 0-2.695 1.155-2.695 2.871 0 1.826 1.144 2.871 2.695 2.871.946 0 1.55-.451 1.925-.968l.12.902h.782V7.8h-.903v2.948zm-1.838 4.015c-1.11 0-1.858-.847-1.858-2.068s.748-2.068 1.858-2.068c1.1 0 1.849.858 1.849 2.09 0 1.199-.748 2.046-1.849 2.046zm6.553.803c1.298 0 2.222-.825 2.442-1.947h-.913c-.187.726-.803 1.144-1.595 1.144-1.067 0-1.738-.748-1.77-1.815v-.077h4.355c.011-.132.022-.264.022-.385-.044-1.661-1.078-2.662-2.662-2.662-1.584 0-2.662 1.166-2.662 2.871 0 1.716 1.1 2.871 2.783 2.871zm-1.782-3.443c.088-.913.847-1.507 1.672-1.507.935 0 1.595.539 1.683 1.507h-3.355zM56.1 9.824c-.946 0-1.518.396-1.848.825l-.12-.759h-.782v5.61h.902v-2.805c0-1.265.638-2.046 1.694-2.046.98 0 1.518.616 1.518 1.782V15.5h.902v-3.124c0-1.859-1-2.552-2.266-2.552zm5.937 5.742c1.639 0 2.783-1.166 2.783-2.871s-1.144-2.871-2.783-2.871-2.783 1.166-2.783 2.871 1.144 2.871 2.783 2.871zm0-.803c-1.111 0-1.859-.869-1.859-2.068s.748-2.068 1.859-2.068 1.859.869 1.859 2.068-.748 2.068-1.859 2.068zm4.922.737h.99l1.408-4.169 1.353 4.169h.99l1.87-5.61h-.913l-1.463 4.565-1.397-4.565h-.836l-1.474 4.565-1.397-4.565h-.946l1.815 5.61z" fill="#fff"/></svg>