<svg width="40" height="13" viewBox="0 0 40 13" fill="none" xmlns="http://www.w3.org/2000/svg"><rect y=".043" width="40" height="12" rx="6" fill="#000"/><path d="M4.718 6.292c.028.754.574 1.283 1.507 1.283.803 0 1.36-.464 1.36-1.125 0-.742-.639-.95-1.261-1.053-.574-.099-1.038-.191-1.038-.65 0-.41.333-.628.83-.628.519 0 .874.29.928.732h.492c-.044-.688-.568-1.163-1.42-1.163-.775 0-1.305.436-1.305 1.086 0 .743.634.945 1.25 1.049.58.098 1.049.196 1.049.671 0 .415-.366.65-.88.65-.583 0-.982-.339-1.02-.852h-.492zm3.612.524c0 .492.191.727.726.727h.486v-.41H9.1c-.24 0-.322-.087-.322-.322V5.167h.72v-.41h-.72v-.78H8.33v.78h-.502v.41h.502v1.65zm4.02.317c-.126 0-.18-.038-.18-.186V5.73c0-.65-.41-1.005-1.12-1.005-.671 0-1.113.322-1.179.868h.448c.054-.284.316-.47.71-.47.437 0 .693.22.693.58v.19h-.819c-.732 0-1.12.312-1.12.869 0 .508.416.813 1.027.813.48 0 .76-.213.934-.464.005.273.131.432.502.432h.246v-.41h-.142zm-.628-.726c0 .464-.322.786-.879.786-.371 0-.606-.186-.606-.459 0-.316.224-.464.622-.464h.863v.137zm2.403-1.65c-.497 0-.71.208-.841.421l-.06-.42h-.388v2.785h.448v-1.42c0-.442.158-.928.742-.928h.224v-.437h-.125zm.812 2.06c0 .49.19.726.726.726h.486v-.41h-.443c-.24 0-.322-.087-.322-.322V5.167h.721v-.41h-.72v-.78h-.448v.78h-.503v.41h.503v1.65zm3.236 0c0 .49.191.726.727.726h.486v-.41h-.443c-.24 0-.322-.087-.322-.322V5.167h.72v-.41h-.72v-.78h-.448v.78h-.502v.41h.502v1.65zm2.89-2.06c-.498 0-.71.208-.842.421l-.06-.42h-.388v2.785h.448v-1.42c0-.442.159-.928.743-.928h.224v-.437h-.126zm2.88 2.376c-.126 0-.18-.038-.18-.186V5.73c0-.65-.41-1.005-1.12-1.005-.672 0-1.114.322-1.18.868h.448c.055-.284.317-.47.71-.47.437 0 .694.22.694.58v.19h-.82c-.731 0-1.119.312-1.119.869 0 .508.415.813 1.027.813.48 0 .759-.213.933-.464.006.273.131.432.503.432h.245v-.41h-.142zm-.629-.726c0 .464-.322.786-.879.786-.37 0-.606-.186-.606-.459 0-.316.224-.464.623-.464h.862v.137zm3.278-1.223c-.17-.268-.486-.459-.956-.459-.77 0-1.338.573-1.338 1.425 0 .907.568 1.425 1.338 1.425.47 0 .77-.224.956-.48l.06.448h.387V3.72h-.447v1.464zm-.912 1.993c-.552 0-.923-.42-.923-1.027 0-.606.371-1.026.923-1.026.546 0 .917.426.917 1.037 0 .595-.371 1.016-.917 1.016zm2.199-2.889c.163 0 .289-.12.289-.29 0-.168-.126-.289-.29-.289-.163 0-.289.12-.289.29 0 .17.126.29.29.29zm-.23 3.255h.448V4.758h-.448v2.785zm2.427-2.818c-.47 0-.754.197-.918.41l-.06-.377h-.388v2.785h.448V6.15c0-.628.317-1.015.841-1.015.486 0 .754.305.754.884v1.524h.447V5.992c0-.923-.497-1.267-1.124-1.267zm3.89.513c-.175-.31-.486-.513-.955-.513-.77 0-1.338.573-1.338 1.425 0 .907.568 1.425 1.338 1.425.47 0 .77-.196.955-.513v.328c0 .606-.316.879-.9.879-.465 0-.776-.197-.853-.546h-.458c.07.611.568.944 1.277.944.956 0 1.382-.458 1.382-1.261V4.758h-.388l-.06.48zm-.912 1.939c-.551 0-.922-.42-.922-1.027 0-.606.37-1.026.922-1.026.546 0 .918.426.918 1.037 0 .595-.372 1.016-.918 1.016z" fill="#fff"/></svg>