<svg width="265" height="9" viewBox="0 0 265 9" fill="none" xmlns="http://www.w3.org/2000/svg"><path d="M.414 5.065c.063 1.188.927 1.989 2.34 1.989 1.323 0 2.196-.72 2.196-1.782 0-1.197-1.062-1.503-2.106-1.683-.963-.162-1.8-.324-1.8-1.224 0-.819.639-1.278 1.629-1.278.945 0 1.593.531 1.701 1.35h.495C4.779 1.357 3.96.646 2.673.646 1.395.646.558 1.321.558 2.392c0 1.197 1.026 1.467 2.034 1.638.99.171 1.872.369 1.872 1.287 0 .81-.684 1.296-1.701 1.296-1.062 0-1.782-.612-1.845-1.548H.414zm8.808-.387c0 1.197-.594 1.953-1.539 1.953-.846 0-1.368-.576-1.368-1.665V2.437h-.459v2.556c0 1.431.747 2.061 1.755 2.061.81 0 1.341-.432 1.602-1.017L9.276 7h.405V2.437h-.459v2.241zm3.529 2.376c1.035 0 1.764-.594 1.944-1.521h-.486c-.153.675-.702 1.107-1.458 1.107-1 0-1.692-.783-1.692-1.917s.684-1.935 1.692-1.935c.765 0 1.305.432 1.467 1.116h.477c-.19-.945-.9-1.521-1.935-1.521-1.287 0-2.17.954-2.17 2.34 0 1.404.874 2.331 2.16 2.331zm4.825 0c1.035 0 1.764-.594 1.944-1.521h-.486c-.153.675-.702 1.107-1.458 1.107-1 0-1.692-.783-1.692-1.917s.684-1.935 1.692-1.935c.765 0 1.305.432 1.467 1.116h.477c-.19-.945-.9-1.521-1.935-1.521-1.287 0-2.17.954-2.17 2.34 0 1.404.874 2.331 2.16 2.331zm4.852 0c1 0 1.764-.648 1.962-1.566h-.468c-.18.711-.783 1.152-1.53 1.152-1.017 0-1.656-.774-1.674-1.836v-.081h3.726c0-.063.01-.135.01-.189-.046-1.359-.883-2.151-2.107-2.151-1.25 0-2.106.954-2.106 2.304 0 1.431.891 2.367 2.187 2.367zm-1.674-2.718c.072-.927.765-1.548 1.602-1.548.891 0 1.53.549 1.602 1.548h-3.204zm4.39 1.26c.037.945.802 1.458 1.945 1.458.98 0 1.773-.495 1.773-1.305 0-.963-.846-1.152-1.827-1.287-.712-.099-1.341-.18-1.341-.819 0-.522.512-.864 1.287-.864.728 0 1.25.351 1.331.945h.468c-.08-.891-.81-1.341-1.8-1.341-1.017-.009-1.745.513-1.745 1.296 0 .918.846 1.089 1.782 1.215.765.108 1.386.207 1.386.882 0 .54-.567.882-1.314.882-.873 0-1.44-.405-1.476-1.062h-.468zm4.298 0c.036.945.801 1.458 1.944 1.458.981 0 1.773-.495 1.773-1.305 0-.963-.846-1.152-1.827-1.287-.71-.099-1.34-.18-1.34-.819 0-.522.512-.864 1.286-.864.73 0 1.251.351 1.332.945h.468c-.08-.891-.81-1.341-1.8-1.341-1.017-.009-1.746.513-1.746 1.296 0 .918.846 1.089 1.782 1.215.765.108 1.386.207 1.386.882 0 .54-.567.882-1.314.882-.873 0-1.44-.405-1.476-1.062h-.468zm7.253-4.122c.18 0 .324-.135.324-.324a.317.317 0 00-.324-.324.317.317 0 00-.324.324c0 .189.144.324.324.324zM36.46 7h.459V2.437h-.46V7zm1.331-1.404c.036.945.801 1.458 1.944 1.458.981 0 1.773-.495 1.773-1.305 0-.963-.846-1.152-1.827-1.287-.711-.099-1.341-.18-1.341-.819 0-.522.513-.864 1.287-.864.729 0 1.251.351 1.332.945h.468c-.081-.891-.81-1.341-1.8-1.341-1.017-.009-1.746.513-1.746 1.296 0 .918.846 1.089 1.782 1.215.765.108 1.386.207 1.386.882 0 .54-.567.882-1.314.882-.873 0-1.44-.405-1.476-1.062h-.468zm7.36.342c0 .729.297 1.062 1.072 1.062h.666v-.423h-.63c-.477 0-.648-.18-.648-.648V2.86h1.232v-.423h-1.233V1.159h-.458v1.278h-.864v.423h.864v3.078zm4.542-3.555c-.855 0-1.386.477-1.647 1.134V.7h-.46V7h.46V4.75c0-1.188.603-1.944 1.575-1.944.873 0 1.413.576 1.413 1.656V7h.459V4.444c0-1.44-.765-2.061-1.8-2.061zm4.77 4.671c1 0 1.764-.648 1.962-1.566h-.468c-.18.711-.783 1.152-1.53 1.152-1.017 0-1.656-.774-1.674-1.836v-.081h3.726c0-.063.01-.135.01-.189-.046-1.359-.883-2.151-2.107-2.151-1.25 0-2.106.954-2.106 2.304 0 1.431.891 2.367 2.187 2.367zM52.79 4.336c.072-.927.765-1.548 1.602-1.548.891 0 1.53.549 1.602 1.548H52.79zm9.021 2.718c1.035 0 1.764-.594 1.944-1.521h-.486c-.153.675-.702 1.107-1.458 1.107-.999 0-1.692-.783-1.692-1.917s.684-1.935 1.692-1.935c.765 0 1.305.432 1.467 1.116h.477c-.189-.945-.9-1.521-1.935-1.521-1.287 0-2.169.954-2.169 2.34 0 1.404.873 2.331 2.16 2.331zm6.148-2.376c0 1.197-.594 1.953-1.539 1.953-.846 0-1.368-.576-1.368-1.665V2.437h-.459v2.556c0 1.431.747 2.061 1.755 2.061.81 0 1.341-.432 1.602-1.017l.063.963h.405V2.437h-.459v2.241zM69.5 7h.459V.7h-.459V7zm6.632-4.617c-.837 0-1.377.468-1.638 1.143-.216-.756-.783-1.143-1.503-1.143-.783 0-1.25.459-1.485 1.026l-.072-.972h-.396V7h.46V4.678c0-1.116.54-1.872 1.412-1.872.792 0 1.287.558 1.287 1.611V7h.46V4.516c.026-1.044.566-1.71 1.421-1.71.792 0 1.27.531 1.27 1.566V7h.467V4.354c0-1.377-.729-1.971-1.683-1.971zm2.936-.909c.18 0 .324-.135.324-.324a.317.317 0 00-.324-.324.317.317 0 00-.324.324c0 .189.144.324.324.324zM78.833 7h.459V2.437h-.459V7zm3.644-4.617c-.837 0-1.377.432-1.638 1.026l-.072-.972h-.396V7h.46V4.75c0-1.188.602-1.944 1.574-1.944.882 0 1.413.576 1.413 1.656V7h.46V4.444c0-1.44-.766-2.061-1.8-2.061zm6.83 4.194c-.27 0-.405-.09-.405-.441V4.012c0-1.044-.64-1.629-1.782-1.629-1.044 0-1.737.504-1.854 1.332h.459c.117-.558.603-.927 1.377-.927.855 0 1.34.45 1.34 1.206v.396h-1.547c-1.17 0-1.8.504-1.8 1.359 0 .81.639 1.305 1.61 1.305.928 0 1.477-.423 1.756-.99v.162c-.018.54.207.774.747.774h.27v-.423h-.171zm-.864-1.422c0 .873-.621 1.503-1.701 1.503-.73 0-1.18-.369-1.18-.936 0-.603.45-.936 1.297-.936h1.584v.369zm1.99.783c0 .729.298 1.062 1.072 1.062h.666v-.423h-.63c-.477 0-.648-.18-.648-.648V2.86h1.233v-.423h-1.233V1.159h-.46v1.278h-.863v.423h.864v3.078zm2.67-4.464c.18 0 .324-.135.324-.324a.317.317 0 00-.324-.324.317.317 0 00-.324.324c0 .189.144.324.324.324zM92.87 7h.46V2.437h-.46V7zm3.554.054c1.287 0 2.196-.954 2.196-2.34 0-1.377-.909-2.331-2.196-2.331-1.287 0-2.187.954-2.187 2.331 0 1.386.9 2.34 2.187 2.34zm0-.414c-1.017 0-1.719-.792-1.719-1.926 0-1.125.702-1.926 1.72-1.926 1.016 0 1.718.801 1.718 1.926 0 1.134-.702 1.926-1.719 1.926zm5.214-4.257c-.837 0-1.377.432-1.638 1.026l-.072-.972h-.396V7h.46V4.75c0-1.188.602-1.944 1.574-1.944.882 0 1.413.576 1.413 1.656V7h.459V4.444c0-1.44-.765-2.061-1.8-2.061zm7.258 4.671c1.287 0 2.196-.954 2.196-2.34 0-1.377-.909-2.331-2.196-2.331-1.287 0-2.187.954-2.187 2.331 0 1.386.9 2.34 2.187 2.34zm0-.414c-1.017 0-1.719-.792-1.719-1.926 0-1.125.702-1.926 1.719-1.926 1.017 0 1.719.801 1.719 1.926 0 1.134-.702 1.926-1.719 1.926zm2.516-3.78h.864V7h.459V2.86h1.368v-.423h-1.368v-.684c0-.45.171-.63.63-.63h.747V.7h-.765c-.765 0-1.071.333-1.071 1.062v.675h-.864v.423zm7.877-.477c-.855 0-1.449.459-1.737 1.098l-.072-1.044h-.396V8.8h.459V5.947c.261.666.882 1.107 1.746 1.107 1.251 0 2.151-.954 2.151-2.34 0-1.431-.9-2.331-2.151-2.331zm-.036 4.257c-1.017 0-1.719-.792-1.719-1.935 0-1.116.702-1.917 1.719-1.917 1.017 0 1.719.801 1.719 1.926 0 1.134-.702 1.926-1.719 1.926zm4.959-4.203c-.846 0-1.206.405-1.395.909l-.072-.909h-.396V7h.459V4.687c0-.927.243-1.809 1.314-1.809h.333v-.441h-.243zm2.614 4.617c.999 0 1.764-.648 1.962-1.566h-.468c-.18.711-.783 1.152-1.53 1.152-1.017 0-1.656-.774-1.674-1.836v-.081h3.726c0-.063.009-.135.009-.189-.045-1.359-.882-2.151-2.106-2.151-1.251 0-2.106.954-2.106 2.304 0 1.431.891 2.367 2.187 2.367zm-1.674-2.718c.072-.927.765-1.548 1.602-1.548.891 0 1.53.549 1.602 1.548h-3.204zm6.811-1.953c-.855 0-1.449.459-1.737 1.098l-.072-1.044h-.396V8.8h.459V5.947c.261.666.882 1.107 1.746 1.107 1.251 0 2.151-.954 2.151-2.34 0-1.431-.9-2.331-2.151-2.331zm-.036 4.257c-1.017 0-1.719-.792-1.719-1.935 0-1.116.702-1.917 1.719-1.917 1.017 0 1.719.801 1.719 1.926 0 1.134-.702 1.926-1.719 1.926zm7.109-.063c-.27 0-.405-.09-.405-.441V4.012c0-1.044-.639-1.629-1.782-1.629-1.044 0-1.737.504-1.854 1.332h.459c.117-.558.603-.927 1.377-.927.855 0 1.341.45 1.341 1.206v.396h-1.548c-1.17 0-1.8.504-1.8 1.359 0 .81.639 1.305 1.611 1.305.927 0 1.476-.423 1.755-.99v.162c-.018.54.207.774.747.774h.27v-.423h-.171zm-.864-1.422c0 .873-.621 1.503-1.701 1.503-.729 0-1.179-.369-1.179-.936 0-.603.45-.936 1.296-.936h1.584v.369zm3.512-2.718c-.846 0-1.206.405-1.395.909l-.072-.909h-.396V7h.459V4.687c0-.927.243-1.809 1.314-1.809h.333v-.441h-.243zm4.744 4.14c-.27 0-.405-.09-.405-.441V4.012c0-1.044-.639-1.629-1.782-1.629-1.044 0-1.737.504-1.854 1.332h.459c.117-.558.603-.927 1.377-.927.855 0 1.341.45 1.341 1.206v.396h-1.548c-1.17 0-1.8.504-1.8 1.359 0 .81.639 1.305 1.611 1.305.927 0 1.476-.423 1.755-.99v.162c-.018.54.207.774.747.774h.27v-.423h-.171zm-.864-1.422c0 .873-.621 1.503-1.701 1.503-.729 0-1.179-.369-1.179-.936 0-.603.45-.936 1.296-.936h1.584v.369zm1.991.783c0 .729.297 1.062 1.071 1.062h.666v-.423h-.63c-.477 0-.648-.18-.648-.648V2.86h1.233v-.423h-1.233V1.159h-.459v1.278h-.864v.423h.864v3.078zm2.669-4.464c.18 0 .324-.135.324-.324a.317.317 0 00-.324-.324.317.317 0 00-.324.324c0 .189.144.324.324.324zM149.989 7h.459V2.437h-.459V7zm3.554.054c1.287 0 2.196-.954 2.196-2.34 0-1.377-.909-2.331-2.196-2.331-1.287 0-2.187.954-2.187 2.331 0 1.386.9 2.34 2.187 2.34zm0-.414c-1.017 0-1.719-.792-1.719-1.926 0-1.125.702-1.926 1.719-1.926 1.017 0 1.719.801 1.719 1.926 0 1.134-.702 1.926-1.719 1.926zm5.214-4.257c-.837 0-1.377.432-1.638 1.026l-.072-.972h-.396V7h.459V4.75c0-1.188.603-1.944 1.575-1.944.882 0 1.413.576 1.413 1.656V7h.459V4.444c0-1.44-.765-2.061-1.8-2.061zm3.005 3.987c-.243 0-.396.153-.396.351 0 .216.144.324.315.324.09 0 .18-.036.225-.108a.325.325 0 01.081.234c0 .342-.216.693-.675.711v.27c.621-.027 1.008-.441 1.008-1.035 0-.414-.234-.747-.558-.747zm7.615-2.907c-.279-.648-.891-1.08-1.746-1.08-1.251 0-2.151.954-2.151 2.331 0 1.44.9 2.34 2.151 2.34.855 0 1.449-.459 1.737-1.098L169.44 7h.396V.7h-.459v2.763zm-1.71 3.177c-1.017 0-1.719-.792-1.719-1.926 0-1.125.702-1.926 1.719-1.926 1.017 0 1.719.801 1.719 1.935 0 1.125-.702 1.917-1.719 1.917zm5.265.414c.999 0 1.764-.648 1.962-1.566h-.468c-.18.711-.783 1.152-1.53 1.152-1.017 0-1.656-.774-1.674-1.836v-.081h3.726c0-.063.009-.135.009-.189-.045-1.359-.882-2.151-2.106-2.151-1.251 0-2.106.954-2.106 2.304 0 1.431.891 2.367 2.187 2.367zm-1.674-2.718c.072-.927.765-1.548 1.602-1.548.891 0 1.53.549 1.602 1.548h-3.204zm8.332-.873c-.279-.648-.891-1.08-1.746-1.08-1.251 0-2.151.954-2.151 2.331 0 1.44.9 2.34 2.151 2.34.855 0 1.449-.459 1.737-1.098L179.653 7h.396V.7h-.459v2.763zm-1.71 3.177c-1.017 0-1.719-.792-1.719-1.926 0-1.125.702-1.926 1.719-1.926 1.017 0 1.719.801 1.719 1.935 0 1.125-.702 1.917-1.719 1.917zm3.483-5.166c.18 0 .324-.135.324-.324a.317.317 0 00-.324-.324.317.317 0 00-.324.324c0 .189.144.324.324.324zM181.129 7h.459V2.437h-.459V7zm3.527.054c1.035 0 1.764-.594 1.944-1.521h-.486c-.153.675-.702 1.107-1.458 1.107-.999 0-1.692-.783-1.692-1.917s.684-1.935 1.692-1.935c.765 0 1.305.432 1.467 1.116h.477c-.189-.945-.9-1.521-1.935-1.521-1.287 0-2.169.954-2.169 2.34 0 1.404.873 2.331 2.16 2.331zm6.85-.477c-.27 0-.405-.09-.405-.441V4.012c0-1.044-.639-1.629-1.782-1.629-1.044 0-1.737.504-1.854 1.332h.459c.117-.558.603-.927 1.377-.927.855 0 1.341.45 1.341 1.206v.396h-1.548c-1.17 0-1.8.504-1.8 1.359 0 .81.639 1.305 1.611 1.305.927 0 1.476-.423 1.755-.99v.162c-.018.54.207.774.747.774h.27v-.423h-.171zm-.864-1.422c0 .873-.621 1.503-1.701 1.503-.729 0-1.179-.369-1.179-.936 0-.603.45-.936 1.296-.936h1.584v.369zm1.991.783c0 .729.297 1.062 1.071 1.062h.666v-.423h-.63c-.477 0-.648-.18-.648-.648V2.86h1.233v-.423h-1.233V1.159h-.459v1.278h-.864v.423h.864v3.078zm2.669-4.464c.18 0 .324-.135.324-.324a.317.317 0 00-.324-.324.317.317 0 00-.324.324c0 .189.144.324.324.324zM195.068 7h.459V2.437h-.459V7zm3.554.054c1.287 0 2.196-.954 2.196-2.34 0-1.377-.909-2.331-2.196-2.331-1.287 0-2.187.954-2.187 2.331 0 1.386.9 2.34 2.187 2.34zm0-.414c-1.017 0-1.719-.792-1.719-1.926 0-1.125.702-1.926 1.719-1.926 1.017 0 1.719.801 1.719 1.926 0 1.134-.702 1.926-1.719 1.926zm5.214-4.257c-.837 0-1.377.432-1.638 1.026l-.072-.972h-.396V7h.459V4.75c0-1.188.603-1.944 1.575-1.944.882 0 1.413.576 1.413 1.656V7h.459V4.444c0-1.44-.765-2.061-1.8-2.061zm9.256 4.194c-.27 0-.405-.09-.405-.441V4.012c0-1.044-.639-1.629-1.782-1.629-1.044 0-1.737.504-1.854 1.332h.459c.117-.558.603-.927 1.377-.927.855 0 1.341.45 1.341 1.206v.396h-1.548c-1.17 0-1.8.504-1.8 1.359 0 .81.639 1.305 1.611 1.305.927 0 1.476-.423 1.755-.99v.162c-.018.54.207.774.747.774h.27v-.423h-.171zm-.864-1.422c0 .873-.621 1.503-1.701 1.503-.729 0-1.179-.369-1.179-.936 0-.603.45-.936 1.296-.936h1.584v.369zm3.755-2.772c-.837 0-1.377.432-1.638 1.026l-.072-.972h-.396V7h.459V4.75c0-1.188.603-1.944 1.575-1.944.882 0 1.413.576 1.413 1.656V7h.459V4.444c0-1.44-.765-2.061-1.8-2.061zm6.471 1.08c-.279-.648-.891-1.08-1.746-1.08-1.251 0-2.151.954-2.151 2.331 0 1.44.9 2.34 2.151 2.34.855 0 1.449-.459 1.737-1.098L222.517 7h.396V.7h-.459v2.763zm-1.71 3.177c-1.017 0-1.719-.792-1.719-1.926 0-1.125.702-1.926 1.719-1.926 1.017 0 1.719.801 1.719 1.935 0 1.125-.702 1.917-1.719 1.917zm7.691.414c.999 0 1.764-.648 1.962-1.566h-.468c-.18.711-.783 1.152-1.53 1.152-1.017 0-1.656-.774-1.674-1.836v-.081h3.726c0-.063.009-.135.009-.189-.045-1.359-.882-2.151-2.106-2.151-1.251 0-2.106.954-2.106 2.304 0 1.431.891 2.367 2.187 2.367zm-1.674-2.718c.072-.927.765-1.548 1.602-1.548.891 0 1.53.549 1.602 1.548h-3.204zM230.723 7h.531l1.512-2.007L234.278 7h.558l-1.773-2.331 1.683-2.232h-.522l-1.44 1.89-1.422-1.89h-.549l1.683 2.232L230.723 7zm6.562.054c.999 0 1.764-.648 1.962-1.566h-.468c-.18.711-.783 1.152-1.53 1.152-1.017 0-1.656-.774-1.674-1.836v-.081h3.726c0-.063.009-.135.009-.189-.045-1.359-.882-2.151-2.106-2.151-1.251 0-2.106.954-2.106 2.304 0 1.431.891 2.367 2.187 2.367zm-1.674-2.718c.072-.927.765-1.548 1.602-1.548.891 0 1.53.549 1.602 1.548h-3.204zm6.596 2.718c1.035 0 1.764-.594 1.944-1.521h-.486c-.153.675-.702 1.107-1.458 1.107-.999 0-1.692-.783-1.692-1.917s.684-1.935 1.692-1.935c.765 0 1.305.432 1.467 1.116h.477c-.189-.945-.9-1.521-1.935-1.521-1.287 0-2.169.954-2.169 2.34 0 1.404.873 2.331 2.16 2.331zm6.148-2.376c0 1.197-.594 1.953-1.539 1.953-.846 0-1.368-.576-1.368-1.665V2.437h-.459v2.556c0 1.431.747 2.061 1.755 2.061.81 0 1.341-.432 1.602-1.017l.063.963h.405V2.437h-.459v2.241zm1.89 1.26c0 .729.297 1.062 1.071 1.062h.666v-.423h-.63c-.477 0-.648-.18-.648-.648V2.86h1.233v-.423h-1.233V1.159h-.459v1.278h-.864v.423h.864v3.078zm2.67-4.464c.18 0 .324-.135.324-.324a.317.317 0 00-.324-.324.317.317 0 00-.324.324c0 .189.144.324.324.324zM252.681 7h.459V2.437h-.459V7zm3.554.054c1.287 0 2.196-.954 2.196-2.34 0-1.377-.909-2.331-2.196-2.331-1.287 0-2.187.954-2.187 2.331 0 1.386.9 2.34 2.187 2.34zm0-.414c-1.017 0-1.719-.792-1.719-1.926 0-1.125.702-1.926 1.719-1.926 1.017 0 1.719.801 1.719 1.926 0 1.134-.702 1.926-1.719 1.926zm5.214-4.257c-.837 0-1.377.432-1.638 1.026l-.072-.972h-.396V7h.459V4.75c0-1.188.603-1.944 1.575-1.944.882 0 1.413.576 1.413 1.656V7h.459V4.444c0-1.44-.765-2.061-1.8-2.061zm2.762 4.32c0 .207.144.342.342.342a.326.326 0 00.342-.342c0-.207-.144-.333-.342-.333-.198 0-.342.126-.342.333z" fill="#000"/></svg>