<svg width="152" height="17" viewBox="0 0 152 17" fill="none" xmlns="http://www.w3.org/2000/svg"><path d="M.176 12.944h1.97V.946H.177v11.998zM14.25 4.066c-1.44 0-2.434.634-3 1.594-.53-1.132-1.56-1.594-2.707-1.594-1.32.017-2.074.6-2.571 1.25l-.206-1.148H4.155v8.776h1.85V8.248c0-1.56.79-2.588 2.058-2.588 1.216 0 1.85.805 1.85 2.348v4.936h1.869V8.196c0-1.577.805-2.536 2.074-2.536 1.2 0 1.834.805 1.834 2.348v4.936h1.85V7.888c0-2.777-1.473-3.822-3.29-3.822zm15.064 0c-1.44 0-2.434.634-3 1.594-.53-1.132-1.56-1.594-2.707-1.594-1.32.017-2.074.6-2.571 1.25l-.206-1.148h-1.611v8.776h1.85V8.248c0-1.56.79-2.588 2.058-2.588 1.217 0 1.85.805 1.85 2.348v4.936h1.869V8.196c0-1.577.805-2.536 2.074-2.536 1.2 0 1.834.805 1.834 2.348v4.936h1.85V7.888c0-2.777-1.473-3.822-3.29-3.822zm9.067 8.98c2.177 0 3.65-1.32 3.96-3.05h-1.852c-.257.977-1.08 1.542-2.211 1.542-1.457 0-2.4-.977-2.45-2.468v-.12h6.615c.034-.24.051-.48.051-.702-.051-2.571-1.748-4.182-4.285-4.182-2.588 0-4.319 1.8-4.319 4.507 0 2.691 1.731 4.474 4.49 4.474zm-2.485-5.45c.137-1.25 1.148-2.04 2.33-2.04 1.286 0 2.194.738 2.349 2.04h-4.68zM48.43 4.168c-1.44 0-2.142.583-2.588 1.32l-.206-1.32h-1.645v8.776h1.85V8.539c0-1.354.532-2.64 2.178-2.64h.822V4.17h-.411zm1.025 5.88c.052 1.902 1.663 2.999 4.011 2.999 2.125 0 3.72-1.063 3.72-2.743 0-1.954-1.629-2.365-3.634-2.605-1.269-.137-2.108-.24-2.108-1.063 0-.702.72-1.148 1.816-1.148 1.097 0 1.851.566 1.954 1.371h1.817c-.12-1.8-1.645-2.793-3.805-2.793-2.108-.018-3.6 1.062-3.6 2.725 0 1.817 1.578 2.245 3.583 2.485 1.354.171 2.16.24 2.16 1.183 0 .702-.755 1.148-1.903 1.148-1.337 0-2.125-.651-2.194-1.56h-1.817zm13.33 2.999c2.176 0 3.65-1.32 3.959-3.051h-1.851c-.257.977-1.08 1.542-2.211 1.542-1.457 0-2.4-.977-2.451-2.468v-.12h6.616c.034-.24.051-.48.051-.702-.051-2.571-1.748-4.182-4.285-4.182-2.588 0-4.319 1.8-4.319 4.507 0 2.691 1.731 4.474 4.49 4.474zm-2.486-5.45c.138-1.252 1.149-2.04 2.331-2.04 1.286 0 2.194.737 2.348 2.04H60.3zm15.018 5.398l-.343.857c-.274.72-.446.891-1.166.891h-1.302v1.629h1.988c1.285 0 1.662-.634 2.21-2.057l3.977-10.147h-1.97l-2.383 6.668-2.451-6.668h-1.971l3.41 8.827zm10.047.052c2.673 0 4.473-1.8 4.473-4.49 0-2.675-1.8-4.491-4.473-4.491-2.674 0-4.474 1.816-4.474 4.49 0 2.691 1.8 4.49 4.474 4.49zm0-1.577c-1.56 0-2.571-1.217-2.571-2.914s1.01-2.914 2.57-2.914c1.56 0 2.589 1.217 2.589 2.914s-1.029 2.914-2.588 2.914zM97.34 8.556c0 1.817-.856 2.88-2.262 2.88-1.354 0-2.04-.875-2.04-2.589V4.168h-1.85v4.885c0 3 1.593 3.994 3.462 3.994 1.354 0 2.16-.549 2.708-1.217l.205 1.114h1.629V4.168H97.34v4.388zm8.115-4.388c-1.44 0-2.143.583-2.588 1.32l-.206-1.32h-1.645v8.776h1.851V8.539c0-1.354.531-2.64 2.177-2.64h.822V4.17h-.411zm1.025 5.88c.052 1.902 1.663 2.999 4.011 2.999 2.125 0 3.719-1.063 3.719-2.743 0-1.954-1.628-2.365-3.633-2.605-1.269-.137-2.109-.24-2.109-1.063 0-.702.72-1.148 1.817-1.148s1.851.566 1.954 1.371h1.817c-.12-1.8-1.646-2.793-3.805-2.793-2.108-.018-3.599 1.062-3.599 2.725 0 1.817 1.576 2.245 3.582 2.485 1.354.171 2.159.24 2.159 1.183 0 .702-.754 1.148-1.902 1.148-1.337 0-2.125-.651-2.194-1.56h-1.817zm13.33 2.999c2.176 0 3.65-1.32 3.959-3.051h-1.851c-.257.977-1.08 1.542-2.211 1.542-1.457 0-2.4-.977-2.451-2.468v-.12h6.616c.034-.24.051-.48.051-.702-.051-2.571-1.748-4.182-4.285-4.182-2.588 0-4.319 1.8-4.319 4.507 0 2.691 1.731 4.474 4.491 4.474zm-2.486-5.45c.137-1.252 1.149-2.04 2.331-2.04 1.286 0 2.194.737 2.348 2.04h-4.679zm8.096 5.347h1.851V.946h-1.851v11.998zm2.774-7.147h1.525v7.147h1.868V5.797h2.349V4.168h-2.383v-.737c0-.6.257-.857.857-.857h1.526V.946h-1.766c-1.697 0-2.451.823-2.451 2.4v.822h-1.525v1.629zm12.027-2.863c.634 0 1.131-.462 1.131-1.114 0-.651-.497-1.114-1.131-1.114s-1.131.463-1.131 1.114c0 .652.497 1.114 1.131 1.114zm-.943 10.01h1.852V4.168h-1.852v8.776zm8.294-8.878c-1.423 0-2.263.565-2.811 1.25l-.206-1.148h-1.611v8.776h1.851V8.522c0-1.783.874-2.862 2.348-2.862 1.389 0 2.091.89 2.091 2.553v4.73h1.868V8.06c0-2.93-1.593-3.993-3.53-3.993z" fill="#000"/></svg>