<svg width="275" height="12" viewBox="0 0 275 12" fill="none" xmlns="http://www.w3.org/2000/svg"><path d="M.236 1.33h2.832V9h.637V1.33h2.832V.74H.236v.59zm9.045 1.687c-1.11 0-1.581.531-1.829 1.192l-.094-1.192h-.52V9h.602V5.967c0-1.215.319-2.371 1.723-2.371H9.6v-.579H9.28zm6.22 5.428c-.354 0-.531-.118-.531-.578V5.082c0-1.368-.838-2.135-2.337-2.135-1.368 0-2.277.66-2.43 1.746h.601c.154-.732.79-1.215 1.806-1.215 1.12 0 1.758.59 1.758 1.58v.52h-2.03c-1.534 0-2.36.66-2.36 1.782 0 1.062.838 1.71 2.113 1.71 1.215 0 1.935-.554 2.3-1.297v.212c-.023.708.272 1.015.98 1.015h.354v-.555H15.5zm-1.133-1.864c0 1.145-.814 1.97-2.23 1.97-.956 0-1.546-.483-1.546-1.227 0-.79.59-1.227 1.7-1.227h2.076v.484zm6.955-2.218c-.366-.85-1.169-1.416-2.29-1.416-1.64 0-2.82 1.25-2.82 3.056 0 1.888 1.18 3.068 2.82 3.068 1.121 0 1.9-.602 2.278-1.44L21.405 9h.52V.74h-.602v3.623zM19.08 8.528c-1.334 0-2.254-1.038-2.254-2.525 0-1.475.92-2.525 2.254-2.525 1.333 0 2.253 1.05 2.253 2.537 0 1.475-.92 2.513-2.253 2.513zm6.902.543c1.31 0 2.313-.85 2.573-2.053h-.614c-.236.932-1.027 1.51-2.006 1.51-1.333 0-2.171-1.015-2.195-2.407v-.106h4.885c0-.083.012-.177.012-.248-.059-1.782-1.156-2.82-2.761-2.82-1.64 0-2.761 1.25-2.761 3.02 0 1.877 1.168 3.104 2.867 3.104zm-2.195-3.564c.095-1.215 1.003-2.03 2.1-2.03 1.169 0 2.007.72 2.101 2.03h-4.2zm9.669 2.1c0 .956.389 1.393 1.404 1.393h.873v-.555h-.826c-.625 0-.85-.236-.85-.85V3.573h1.617v-.555h-1.617V1.342h-.601v1.675h-1.133v.555h1.133v4.036zm5.651 1.464c1.31 0 2.313-.85 2.573-2.053h-.614c-.236.932-1.026 1.51-2.006 1.51-1.333 0-2.171-1.015-2.195-2.407v-.106h4.886c0-.083.011-.177.011-.248-.059-1.782-1.156-2.82-2.76-2.82-1.641 0-2.762 1.25-2.762 3.02 0 1.877 1.168 3.104 2.867 3.104zm-2.194-3.564c.094-1.215 1.003-2.03 2.1-2.03 1.168 0 2.006.72 2.1 2.03h-4.2zm8.647 3.564c1.357 0 2.313-.779 2.548-1.994h-.637c-.2.885-.92 1.451-1.911 1.451-1.31 0-2.219-1.027-2.219-2.513 0-1.487.897-2.537 2.219-2.537 1.003 0 1.71.566 1.923 1.463h.625c-.247-1.24-1.18-1.994-2.537-1.994-1.687 0-2.843 1.25-2.843 3.068 0 1.84 1.144 3.056 2.832 3.056zm6.48-6.124c-1.121 0-1.818.625-2.16 1.486V.74h-.602V9h.602V6.05c0-1.558.79-2.549 2.065-2.549 1.145 0 1.853.755 1.853 2.171V9h.602V5.649c0-1.888-1.004-2.702-2.36-2.702zm9.527 6.124c1.31 0 2.312-.85 2.572-2.053h-.614c-.236.932-1.026 1.51-2.006 1.51-1.333 0-2.17-1.015-2.194-2.407v-.106h4.885c0-.083.012-.177.012-.248-.06-1.782-1.157-2.82-2.762-2.82-1.64 0-2.76 1.25-2.76 3.02 0 1.877 1.167 3.104 2.867 3.104zm-2.195-3.564c.094-1.215 1.003-2.03 2.1-2.03 1.168 0 2.006.72 2.1 2.03h-4.2zm11.302 2.938c-.354 0-.531-.118-.531-.578V5.082c0-1.368-.838-2.135-2.337-2.135-1.368 0-2.277.66-2.43 1.746h.602c.153-.732.79-1.215 1.805-1.215 1.12 0 1.758.59 1.758 1.58v.52h-2.03c-1.534 0-2.36.66-2.36 1.782 0 1.062.838 1.71 2.113 1.71 1.215 0 1.935-.554 2.3-1.297v.212c-.023.708.272 1.015.98 1.015h.354v-.555h-.224zm-1.133-1.864c0 1.145-.814 1.97-2.23 1.97-.956 0-1.546-.483-1.546-1.227 0-.79.59-1.227 1.7-1.227h2.076v.484zm4.605-3.564c-1.11 0-1.582.531-1.83 1.192l-.094-1.192h-.52V9h.603V5.967c0-1.215.318-2.371 1.722-2.371h.437v-.579h-.319zm3.971-.07c-1.097 0-1.805.566-2.148 1.345l-.094-1.275h-.52V9h.603V6.05c0-1.558.79-2.549 2.065-2.549 1.156 0 1.852.755 1.852 2.171V9h.602V5.649c0-1.888-1.003-2.702-2.36-2.702zm3.999-1.192a.416.416 0 00.425-.425.416.416 0 00-.425-.425.416.416 0 00-.425.425c0 .248.189.425.425.425zM81.81 9h.602V3.017h-.602V9zm4.778-6.053c-1.098 0-1.806.566-2.148 1.345l-.094-1.275h-.52V9h.602V6.05c0-1.558.791-2.549 2.065-2.549 1.157 0 1.853.755 1.853 2.171V9h.602V5.649c0-1.888-1.003-2.702-2.36-2.702zm8.565 1.463c-.366-.885-1.168-1.463-2.277-1.463-1.64 0-2.82 1.239-2.82 3.056 0 1.888 1.18 3.068 2.82 3.068 1.12 0 1.911-.59 2.289-1.522V8.61c0 1.593-.755 2.277-2.195 2.277-1.12 0-1.9-.507-2.088-1.416h-.626c.189 1.274 1.216 1.959 2.667 1.959 1.935 0 2.844-.92 2.844-2.797V3.017h-.52l-.094 1.393zm-2.23 4.118c-1.334 0-2.254-1.038-2.254-2.525 0-1.487.92-2.525 2.254-2.525 1.333 0 2.254 1.038 2.254 2.537 0 1.475-.92 2.513-2.254 2.513zm3.988-1.369c.047 1.24 1.05 1.912 2.549 1.912 1.286 0 2.324-.65 2.324-1.711 0-1.263-1.109-1.51-2.395-1.688-.932-.13-1.758-.236-1.758-1.073 0-.685.672-1.133 1.687-1.133.956 0 1.64.46 1.746 1.239h.614c-.106-1.168-1.062-1.758-2.36-1.758-1.333-.012-2.29.672-2.29 1.699 0 1.203 1.11 1.428 2.337 1.593 1.003.141 1.817.271 1.817 1.156 0 .708-.743 1.157-1.722 1.157-1.145 0-1.888-.531-1.936-1.393h-.613zm9.509-5.404a.415.415 0 00.424-.425.415.415 0 00-.424-.425.416.416 0 00-.425.425c0 .248.189.425.425.425zM106.113 9h.602V3.017h-.602V9zm4.778-6.053c-1.098 0-1.806.566-2.148 1.345l-.094-1.275h-.52V9h.602V6.05c0-1.558.791-2.549 2.065-2.549 1.157 0 1.853.755 1.853 2.171V9h.602V5.649c0-1.888-1.003-2.702-2.36-2.702zm9.315.07c-1.11 0-1.582.531-1.829 1.192l-.095-1.192h-.519V9h.602V5.967c0-1.215.318-2.371 1.723-2.371h.436v-.579h-.318zm3.427 6.054c1.31 0 2.313-.85 2.572-2.053h-.613c-.236.932-1.027 1.51-2.006 1.51-1.334 0-2.172-1.015-2.195-2.407v-.106h4.885c0-.083.012-.177.012-.248-.059-1.782-1.157-2.82-2.761-2.82-1.641 0-2.762 1.25-2.762 3.02 0 1.877 1.169 3.104 2.868 3.104zm-2.195-3.564c.094-1.215 1.003-2.03 2.1-2.03 1.169 0 2.006.72 2.101 2.03h-4.201zm11.302 2.938c-.354 0-.531-.118-.531-.578V5.082c0-1.368-.838-2.135-2.336-2.135-1.369 0-2.278.66-2.431 1.746h.602c.153-.732.79-1.215 1.805-1.215 1.121 0 1.758.59 1.758 1.58v.52h-2.029c-1.534 0-2.36.66-2.36 1.782 0 1.062.838 1.71 2.112 1.71 1.215 0 1.935-.554 2.301-1.297v.212c-.024.708.271 1.015.979 1.015h.354v-.555h-.224zm-1.133-1.864c0 1.145-.814 1.97-2.23 1.97-.956 0-1.546-.483-1.546-1.227 0-.79.59-1.227 1.7-1.227h2.076v.484zM133.769 9h.602V.74h-.602V9zm5.646-1.392c0 .955.389 1.392 1.404 1.392h.873v-.555h-.826c-.625 0-.85-.236-.85-.85V3.573h1.617v-.555h-1.617V1.342h-.601v1.675h-1.133v.555h1.133v4.036zm3.499-5.853a.416.416 0 00.425-.425.416.416 0 00-.425-.425.415.415 0 00-.424.425c0 .248.188.425.424.425zM142.608 9h.601V3.017h-.601V9zm8.695-6.053c-1.097 0-1.805.613-2.148 1.498-.283-.991-1.026-1.498-1.97-1.498-1.027 0-1.64.601-1.947 1.345l-.095-1.275h-.519V9h.602V5.956c0-1.464.708-2.455 1.853-2.455 1.038 0 1.687.732 1.687 2.112V9h.602V5.743c.035-1.369.743-2.242 1.864-2.242 1.039 0 1.664.696 1.664 2.053V9h.614V5.53c0-1.805-.956-2.583-2.207-2.583zm6.094 6.124c1.309 0 2.312-.85 2.572-2.053h-.614c-.236.932-1.026 1.51-2.006 1.51-1.333 0-2.171-1.015-2.194-2.407v-.106h4.885c0-.083.012-.177.012-.248-.059-1.782-1.157-2.82-2.762-2.82-1.64 0-2.761 1.25-2.761 3.02 0 1.877 1.168 3.104 2.868 3.104zm-2.195-3.564c.094-1.215 1.003-2.03 2.1-2.03 1.168 0 2.006.72 2.101 2.03h-4.201zM165.873 9h.649l1.77-5.027L169.979 9h.649l2.124-5.983h-.613l-1.841 5.263-1.711-5.263h-.555l-1.805 5.263-1.747-5.263h-.637L165.873 9zm8.028-7.245a.416.416 0 00.425-.425.416.416 0 00-.425-.425.416.416 0 00-.425.425c0 .248.189.425.425.425zM173.594 9h.602V3.017h-.602V9zm2.465-1.392c0 .955.39 1.392 1.404 1.392h.874v-.555h-.826c-.626 0-.85-.236-.85-.85V3.573h1.617v-.555h-1.617V1.342h-.602v1.675h-1.133v.555h1.133v4.036zm5.954-4.661c-1.121 0-1.817.625-2.159 1.486V.74h-.602V9h.602V6.05c0-1.558.791-2.549 2.065-2.549 1.145 0 1.853.755 1.853 2.171V9h.601V5.649c0-1.888-1.003-2.702-2.36-2.702zm9.669 6.124c1.499 0 2.513-.909 2.726-2.1h-1.275c-.177.672-.743 1.061-1.522 1.061-1.003 0-1.652-.672-1.687-1.699v-.082h4.555c.023-.166.035-.33.035-.484-.035-1.77-1.204-2.88-2.95-2.88-1.782 0-2.974 1.24-2.974 3.104 0 1.853 1.192 3.08 3.092 3.08zm-1.711-3.753c.094-.861.791-1.404 1.605-1.404.885 0 1.51.508 1.616 1.404h-3.221zM194.642 9h1.405l1.593-2.195L199.221 9h1.487l-2.278-3.092 2.148-2.95h-1.404L197.699 5l-1.44-2.042h-1.487l2.136 2.95L194.642 9zm7.204-1.64c0 1.097.496 1.64 1.652 1.64h1.18V7.879h-.896c-.484 0-.649-.177-.649-.649V4.08h1.475V2.957h-1.475V1.271h-1.287v1.687h-1.05V4.08h1.05v3.28zm6.384 1.71c1.498 0 2.513-.908 2.726-2.1h-1.275c-.177.673-.743 1.062-1.522 1.062-1.003 0-1.652-.672-1.687-1.699v-.082h4.554c.024-.166.036-.33.036-.484-.036-1.77-1.204-2.88-2.95-2.88-1.782 0-2.974 1.24-2.974 3.104 0 1.853 1.192 3.08 3.092 3.08zm-1.711-3.752c.094-.861.79-1.404 1.605-1.404.885 0 1.51.508 1.616 1.404h-3.221zm8.759-2.43c-.979 0-1.558.389-1.935.861l-.142-.79h-1.109V9h1.274V5.956c0-1.228.602-1.971 1.617-1.971.956 0 1.44.614 1.44 1.758V9h1.286V5.637c0-2.018-1.098-2.75-2.431-2.75zm8.134.908c-.39-.53-1.039-.908-1.959-.908-1.64 0-2.856 1.227-2.856 3.091 0 1.935 1.216 3.092 2.856 3.092.956 0 1.581-.449 1.971-.98l.153.909h1.109V.74h-1.274v3.056zm-1.747 4.201c-1.062 0-1.758-.826-1.758-2.018 0-1.18.696-2.006 1.758-2.006s1.759.826 1.759 2.03c0 1.168-.697 1.994-1.759 1.994zm7.134 1.074c1.499 0 2.513-.909 2.726-2.1h-1.275c-.177.672-.743 1.061-1.522 1.061-1.003 0-1.652-.672-1.687-1.699v-.082h4.555c.023-.166.035-.33.035-.484-.035-1.77-1.204-2.88-2.95-2.88-1.782 0-2.974 1.24-2.974 3.104 0 1.853 1.192 3.08 3.092 3.08zm-1.711-3.753c.094-.861.791-1.404 1.605-1.404.885 0 1.51.508 1.616 1.404h-3.221zm10.164-1.522c-.39-.53-1.039-.908-1.959-.908-1.64 0-2.856 1.227-2.856 3.091 0 1.935 1.216 3.092 2.856 3.092.956 0 1.581-.449 1.97-.98l.154.909h1.109V.74h-1.274v3.056zm-1.747 4.201c-1.062 0-1.758-.826-1.758-2.018 0-1.18.696-2.006 1.758-2.006s1.758.826 1.758 2.03c0 1.168-.696 1.994-1.758 1.994zm10.46-5.11c-.944 0-1.523.425-1.9.945V.74h-1.275V9h1.275V5.944c0-1.216.613-1.959 1.616-1.959.944 0 1.452.614 1.452 1.758V9h1.274V5.637c0-2.018-1.097-2.75-2.442-2.75zm6.411 6.184c1.841 0 3.08-1.24 3.08-3.092 0-1.84-1.239-3.091-3.08-3.091s-3.08 1.25-3.08 3.091c0 1.853 1.239 3.092 3.08 3.092zm0-1.086c-1.074 0-1.77-.838-1.77-2.006 0-1.168.696-2.006 1.77-2.006s1.782.838 1.782 2.006c0 1.168-.708 2.006-1.782 2.006zm8.246-2.006c0 1.251-.59 1.983-1.558 1.983-.932 0-1.404-.602-1.404-1.782V2.958h-1.274v3.363c0 2.065 1.097 2.75 2.383 2.75.933 0 1.487-.378 1.865-.838l.141.767h1.121V2.958h-1.274V5.98zm5.587-3.02c-.992 0-1.475.4-1.782.908l-.142-.909h-1.133V9h1.275V5.967c0-.932.366-1.817 1.498-1.817h.567V2.958h-.283zm.705 4.047c.036 1.31 1.145 2.065 2.762 2.065 1.463 0 2.56-.732 2.56-1.888 0-1.345-1.121-1.629-2.501-1.794-.874-.094-1.452-.165-1.452-.731 0-.484.496-.791 1.251-.791.755 0 1.274.39 1.345.944h1.251c-.083-1.239-1.133-1.923-2.62-1.923-1.451-.012-2.478.731-2.478 1.876 0 1.25 1.086 1.546 2.467 1.71.932.119 1.486.166 1.486.815 0 .484-.519.79-1.309.79-.921 0-1.464-.448-1.511-1.073h-1.251zm6.322 1.605c0 .271.188.448.448.448s.448-.177.448-.448c0-.272-.188-.437-.448-.437s-.448.165-.448.437z" fill="#000"/></svg>