<svg width="182" height="10" viewBox="0 0 182 10" fill="none" xmlns="http://www.w3.org/2000/svg"><path d="M.468 6.51C.52 8.33 1.885 9.578 4.147 9.578c2.002 0 3.367-1.131 3.367-2.769.013-1.794-1.456-2.275-2.964-2.548-1.43-.247-2.366-.442-2.366-1.378 0-.858.715-1.3 1.742-1.3 1.105 0 1.833.624 1.95 1.547h1.495C7.306 1.453 6.006.322 3.926.322 1.989.322.689 1.401.689 2.987c0 1.807 1.43 2.288 2.938 2.548 1.443.26 2.392.468 2.392 1.43 0 .871-.78 1.352-1.859 1.352-1.274 0-2.106-.715-2.184-1.781L.468 6.51zm15.876-3.744c-1.092 0-1.846.481-2.275 1.209-.403-.858-1.183-1.209-2.054-1.209-1.001.013-1.573.455-1.95.949l-.156-.871H8.687V9.5h1.404V5.938c0-1.183.598-1.963 1.56-1.963.923 0 1.404.611 1.404 1.781V9.5h1.417V5.899c0-1.196.611-1.924 1.573-1.924.91 0 1.391.611 1.391 1.781V9.5h1.404V5.665c0-2.106-1.118-2.899-2.496-2.899zm9.853 5.512c-.286 0-.43-.091-.43-.429V5.184c0-1.573-1.013-2.418-2.781-2.418-1.677 0-2.795.806-2.938 2.106h1.378c.104-.585.663-.975 1.495-.975.923 0 1.456.455 1.456 1.196v.403H22.7c-1.86 0-2.847.767-2.847 2.132 0 1.235 1.014 1.95 2.47 1.95 1.079 0 1.755-.468 2.197-1.144 0 .663.312 1.066 1.222 1.066h.74V8.278h-.285zm-1.82-1.508c-.013 1.027-.69 1.716-1.86 1.716-.766 0-1.234-.39-1.234-.949 0-.676.48-1.001 1.352-1.001h1.742v.234zm6.238-3.926c-1.092 0-1.625.442-1.963 1.001l-.156-1.001h-1.248V9.5h1.404V6.159c0-1.027.403-2.002 1.65-2.002h.625V2.844h-.312zm1.9 4.849c0 1.209.546 1.807 1.82 1.807h1.3V8.265h-.988c-.533 0-.715-.195-.715-.715V4.079h1.625V2.844h-1.625V.985h-1.417v1.859h-1.157v1.235h1.157v3.614zm7.82 0c0 1.209.546 1.807 1.82 1.807h1.3V8.265h-.988c-.533 0-.715-.195-.715-.715V4.079h1.625V2.844h-1.625V.985h-1.417v1.859h-1.157v1.235h1.157v3.614zm7.38-4.849c-1.092 0-1.625.442-1.963 1.001l-.156-1.001h-1.248V9.5h1.404V6.159c0-1.027.403-2.002 1.651-2.002h.624V2.844h-.312zm7.059 5.434c-.286 0-.429-.091-.429-.429V5.184c0-1.573-1.014-2.418-2.782-2.418-1.677 0-2.795.806-2.938 2.106h1.378c.104-.585.663-.975 1.495-.975.923 0 1.456.455 1.456 1.196v.403h-1.677c-1.859 0-2.847.767-2.847 2.132 0 1.235 1.014 1.95 2.47 1.95 1.079 0 1.755-.468 2.197-1.144 0 .663.312 1.066 1.222 1.066h.741V8.278h-.286zm-1.82-1.508c-.013 1.027-.689 1.716-1.859 1.716-.767 0-1.235-.39-1.235-.949 0-.676.481-1.001 1.352-1.001h1.742v.234zm7.877-3.003c-.429-.585-1.144-1.001-2.158-1.001-1.807 0-3.146 1.352-3.146 3.406 0 2.132 1.339 3.406 3.146 3.406 1.053 0 1.742-.494 2.171-1.079l.169 1.001h1.222V.4h-1.404v3.367zm-1.924 4.628c-1.17 0-1.937-.91-1.937-2.223 0-1.3.767-2.21 1.937-2.21s1.937.91 1.937 2.236c0 1.287-.767 2.197-1.937 2.197zm7.859 1.183c1.651 0 2.769-1.001 3.003-2.314h-1.404c-.195.741-.819 1.17-1.677 1.17-1.105 0-1.82-.741-1.859-1.872v-.091h5.018c.026-.182.039-.364.039-.533-.039-1.95-1.326-3.172-3.25-3.172-1.963 0-3.276 1.365-3.276 3.419 0 2.041 1.313 3.393 3.406 3.393zm-1.885-4.134c.104-.949.871-1.547 1.768-1.547.975 0 1.664.559 1.781 1.547h-3.549zm9.507-2.6c-1.092 0-1.625.442-1.963 1.001l-.156-1.001h-1.248V9.5h1.404V6.159c0-1.027.403-2.002 1.651-2.002h.624V2.844h-.312zm.778 4.459c.039 1.443 1.26 2.275 3.042 2.275 1.612 0 2.82-.806 2.82-2.08 0-1.482-1.234-1.794-2.755-1.976-.962-.104-1.6-.182-1.6-.806 0-.533.547-.871 1.379-.871s1.404.429 1.482 1.04h1.378c-.091-1.365-1.248-2.119-2.886-2.119-1.6-.013-2.73.806-2.73 2.067 0 1.378 1.196 1.703 2.717 1.885 1.027.13 1.638.182 1.638.897 0 .533-.572.871-1.443.871-1.014 0-1.612-.494-1.664-1.183h-1.378zm13.787-4.537c-1.08 0-1.716.429-2.132.949l-.156-.871h-1.222V9.5h1.404V6.146c0-1.352.663-2.171 1.78-2.171 1.054 0 1.587.676 1.587 1.937V9.5h1.417V5.795c0-2.223-1.21-3.029-2.678-3.029zm7.063 6.812c1.651 0 2.769-1.001 3.003-2.314h-1.404c-.195.741-.819 1.17-1.677 1.17-1.105 0-1.82-.741-1.859-1.872v-.091h5.018c.026-.182.039-.364.039-.533-.039-1.95-1.326-3.172-3.25-3.172-1.963 0-3.276 1.365-3.276 3.419 0 2.041 1.313 3.393 3.406 3.393zm-1.885-4.134c.104-.949.871-1.547 1.768-1.547.975 0 1.664.559 1.781 1.547h-3.549zm9.299 4.134c1.651 0 2.769-1.001 3.003-2.314h-1.404c-.195.741-.819 1.17-1.677 1.17-1.105 0-1.82-.741-1.859-1.872v-.091h5.018c.026-.182.039-.364.039-.533-.039-1.95-1.326-3.172-3.25-3.172-1.963 0-3.276 1.365-3.276 3.419 0 2.041 1.313 3.393 3.406 3.393zm-1.885-4.134c.104-.949.871-1.547 1.768-1.547.975 0 1.664.559 1.781 1.547h-3.549zm11.197-1.677c-.429-.585-1.144-1.001-2.158-1.001-1.807 0-3.146 1.352-3.146 3.406 0 2.132 1.339 3.406 3.146 3.406 1.053 0 1.742-.494 2.171-1.079l.169 1.001h1.222V.4h-1.404v3.367zm-1.924 4.628c-1.17 0-1.937-.91-1.937-2.223 0-1.3.767-2.21 1.937-2.21s1.937.91 1.937 2.236c0 1.287-.767 2.197-1.937 2.197zm7.74-1.092c.039 1.443 1.261 2.275 3.042 2.275 1.612 0 2.821-.806 2.821-2.08 0-1.482-1.235-1.794-2.756-1.976-.962-.104-1.599-.182-1.599-.806 0-.533.546-.871 1.378-.871.832 0 1.404.429 1.482 1.04h1.378c-.091-1.365-1.248-2.119-2.886-2.119-1.599-.013-2.73.806-2.73 2.067 0 1.378 1.196 1.703 2.717 1.885 1.027.13 1.638.182 1.638.897 0 .533-.572.871-1.443.871-1.014 0-1.612-.494-1.664-1.183h-1.378zm14.608-4.537c-1.092 0-1.846.481-2.275 1.209-.403-.858-1.183-1.209-2.054-1.209-1.001.013-1.573.455-1.95.949l-.156-.871h-1.222V9.5h1.404V5.938c0-1.183.598-1.963 1.56-1.963.923 0 1.404.611 1.404 1.781V9.5h1.417V5.899c0-1.196.611-1.924 1.573-1.924.91 0 1.391.611 1.391 1.781V9.5h1.404V5.665c0-2.106-1.118-2.899-2.496-2.899zm9.853 5.512c-.286 0-.429-.091-.429-.429V5.184c0-1.573-1.014-2.418-2.782-2.418-1.677 0-2.795.806-2.938 2.106h1.378c.104-.585.663-.975 1.495-.975.923 0 1.456.455 1.456 1.196v.403h-1.677c-1.859 0-2.847.767-2.847 2.132 0 1.235 1.014 1.95 2.47 1.95 1.079 0 1.755-.468 2.197-1.144 0 .663.312 1.066 1.222 1.066h.741V8.278h-.286zm-1.82-1.508c-.013 1.027-.689 1.716-1.859 1.716-.767 0-1.235-.39-1.235-.949 0-.676.481-1.001 1.352-1.001h1.742v.234zm6.238-3.926c-1.092 0-1.625.442-1.963 1.001l-.156-1.001h-1.248V9.5h1.404V6.159c0-1.027.403-2.002 1.651-2.002h.624V2.844h-.312zm1.9 4.849c0 1.209.546 1.807 1.82 1.807h1.3V8.265h-.988c-.533 0-.715-.195-.715-.715V4.079h1.625V2.844h-1.625V.985h-1.417v1.859h-1.157v1.235h1.157v3.614zm7.82 0c0 1.209.546 1.807 1.82 1.807h1.3V8.265h-.988c-.533 0-.715-.195-.715-.715V4.079h1.625V2.844h-1.625V.985h-1.417v1.859H156v1.235h1.157v3.614zm7.033 1.885c1.651 0 2.769-1.001 3.003-2.314h-1.404c-.195.741-.819 1.17-1.677 1.17-1.105 0-1.82-.741-1.859-1.872v-.091h5.018c.026-.182.039-.364.039-.533-.039-1.95-1.326-3.172-3.25-3.172-1.963 0-3.276 1.365-3.276 3.419 0 2.041 1.313 3.393 3.406 3.393zm-1.885-4.134c.104-.949.871-1.547 1.768-1.547.975 0 1.664.559 1.781 1.547h-3.549zm9.195 4.134c1.703 0 2.834-.949 3.094-2.457h-1.482c-.169.767-.741 1.261-1.599 1.261-1.131 0-1.872-.897-1.872-2.197 0-1.313.741-2.223 1.872-2.223.871 0 1.43.481 1.612 1.261h1.469c-.273-1.508-1.339-2.457-3.055-2.457-2.015 0-3.341 1.365-3.341 3.419 0 2.08 1.287 3.393 3.302 3.393zm7.665-6.812c-1.04 0-1.677.468-2.093 1.04V.4h-1.404v9.1h1.404V6.133c0-1.339.676-2.158 1.781-2.158 1.04 0 1.599.676 1.599 1.937V9.5h1.404V5.795c0-2.223-1.209-3.029-2.691-3.029z" fill="#000"/></svg>