<svg width="269" height="23" viewBox="0 0 269 23" fill="none" xmlns="http://www.w3.org/2000/svg"><path d="M.5 3.05h5.4V18h2.875V3.05h5.4V.5H.5v2.55zM21.277 5.2c-2.1 0-3.125.85-3.775 1.925l-.3-1.925h-2.4V18h2.7v-6.425c0-1.975.775-3.85 3.175-3.85h1.2V5.2h-.6zM34.85 15.65c-.55 0-.825-.175-.825-.825V9.7c0-3.025-1.95-4.65-5.35-4.65-3.225 0-5.375 1.55-5.65 4.05h2.65c.2-1.125 1.275-1.875 2.875-1.875 1.775 0 2.8.875 2.8 2.3v.775h-3.225c-3.575 0-5.475 1.475-5.475 4.1 0 2.375 1.95 3.75 4.75 3.75 2.075 0 3.375-.9 4.225-2.2 0 1.275.6 2.05 2.35 2.05h1.425v-2.35h-.55zm-3.5-2.9c-.025 1.975-1.325 3.3-3.575 3.3-1.475 0-2.375-.75-2.375-1.825 0-1.3.925-1.925 2.6-1.925h3.35v.45zM46.5 6.975c-.825-1.125-2.2-1.925-4.15-1.925-3.475 0-6.05 2.6-6.05 6.55 0 4.1 2.575 6.55 6.05 6.55 2.025 0 3.35-.95 4.175-2.075L46.85 18h2.35V.5h-2.7v6.475zm-3.7 8.9c-2.25 0-3.725-1.75-3.725-4.275 0-2.5 1.475-4.25 3.725-4.25s3.725 1.75 3.725 4.3c0 2.475-1.475 4.225-3.725 4.225zm15.114 2.275c3.175 0 5.325-1.925 5.775-4.45h-2.7c-.375 1.425-1.575 2.25-3.225 2.25-2.125 0-3.5-1.425-3.575-3.6v-.175h9.65c.05-.35.075-.7.075-1.025-.075-3.75-2.55-6.1-6.25-6.1-3.775 0-6.3 2.625-6.3 6.575 0 3.925 2.525 6.525 6.55 6.525zm-3.625-7.95c.2-1.825 1.675-2.975 3.4-2.975 1.875 0 3.2 1.075 3.425 2.975h-6.825zm12.276 4.575c-1.15 0-1.9.75-1.9 1.7 0 1.075.65 1.6 1.475 1.6.3 0 .6-.075.825-.25.025.1.025.225.025.325 0 .875-.625 1.85-2.2 1.875v1.45c2.475-.025 4.025-1.4 4.025-3.825 0-1.6-.875-2.875-2.25-2.875zM78.677 3.4c.925 0 1.65-.675 1.65-1.625S79.602.15 78.677.15c-.925 0-1.65.675-1.65 1.625s.725 1.625 1.65 1.625zM77.302 18h2.7V5.2h-2.7V18zM97.373 5.05c-2.1 0-3.55.925-4.375 2.325-.775-1.65-2.275-2.325-3.95-2.325-1.925.025-3.025.875-3.75 1.825l-.3-1.675h-2.35V18h2.7v-6.85c0-2.275 1.15-3.775 3-3.775 1.775 0 2.7 1.175 2.7 3.425V18h2.725v-6.925c0-2.3 1.175-3.7 3.025-3.7 1.75 0 2.675 1.175 2.675 3.425V18h2.7v-7.375c0-4.05-2.15-5.575-4.8-5.575zm14.098 0c-2 0-3.325.925-4.175 2.05l-.325-1.9h-2.35V23h2.7v-6.8c.8 1.15 2.175 1.95 4.15 1.95 3.5 0 6.05-2.6 6.05-6.55 0-4.1-2.55-6.55-6.05-6.55zm-.45 10.825c-2.25 0-3.725-1.775-3.725-4.325 0-2.475 1.475-4.2 3.725-4.2s3.75 1.725 3.75 4.25c0 2.5-1.5 4.275-3.75 4.275zM126.159 5.2c-2.1 0-3.125.85-3.775 1.925l-.3-1.925h-2.4V18h2.7v-6.425c0-1.975.775-3.85 3.175-3.85h1.2V5.2h-.6zm7.705 12.95c3.9 0 6.525-2.625 6.525-6.55 0-3.9-2.625-6.55-6.525-6.55-3.9 0-6.525 2.65-6.525 6.55 0 3.925 2.625 6.55 6.525 6.55zm0-2.3c-2.275 0-3.75-1.775-3.75-4.25s1.475-4.25 3.75-4.25 3.775 1.775 3.775 4.25-1.5 4.25-3.775 4.25zm11.56 2.15h3.3l4.725-12.8h-2.85l-3.475 9.9-3.525-9.9h-2.9l4.725 12.8zm14.881.15c3.175 0 5.325-1.925 5.775-4.45h-2.7c-.375 1.425-1.575 2.25-3.225 2.25-2.125 0-3.5-1.425-3.575-3.6v-.175h9.65c.05-.35.075-.7.075-1.025-.075-3.75-2.55-6.1-6.25-6.1-3.775 0-6.3 2.625-6.3 6.575 0 3.925 2.525 6.525 6.55 6.525zm-3.625-7.95c.2-1.825 1.675-2.975 3.4-2.975 1.875 0 3.2 1.075 3.425 2.975h-6.825zm12.277 4.575c-1.15 0-1.9.75-1.9 1.7 0 1.075.65 1.6 1.475 1.6.3 0 .6-.075.825-.25.025.1.025.225.025.325 0 .875-.625 1.85-2.2 1.875v1.45c2.475-.025 4.025-1.4 4.025-3.825 0-1.6-.875-2.875-2.25-2.875zM186.169 5.2c-2.1 0-3.125.85-3.775 1.925l-.3-1.925h-2.4V18h2.7v-6.425c0-1.975.775-3.85 3.175-3.85h1.2V5.2h-.6zm7.73 12.95c3.175 0 5.325-1.925 5.775-4.45h-2.7c-.375 1.425-1.575 2.25-3.225 2.25-2.125 0-3.5-1.425-3.575-3.6v-.175h9.65c.05-.35.075-.7.075-1.025-.075-3.75-2.55-6.1-6.25-6.1-3.775 0-6.3 2.625-6.3 6.575 0 3.925 2.525 6.525 6.55 6.525zm-3.625-7.95c.2-1.825 1.675-2.975 3.4-2.975 1.875 0 3.2 1.075 3.425 2.975h-6.825zm18.658-5.15c-2 0-3.325.925-4.175 2.05l-.325-1.9h-2.35V23h2.7v-6.8c.8 1.15 2.175 1.95 4.15 1.95 3.5 0 6.05-2.6 6.05-6.55 0-4.1-2.55-6.55-6.05-6.55zm-.45 10.825c-2.25 0-3.725-1.775-3.725-4.325 0-2.475 1.475-4.2 3.725-4.2s3.75 1.725 3.75 4.25c0 2.5-1.5 4.275-3.75 4.275zm14.738 2.275c3.175 0 5.325-1.925 5.775-4.45h-2.7c-.375 1.425-1.575 2.25-3.225 2.25-2.125 0-3.5-1.425-3.575-3.6v-.175h9.65c.05-.35.075-.7.075-1.025-.075-3.75-2.55-6.1-6.25-6.1-3.775 0-6.3 2.625-6.3 6.575 0 3.925 2.525 6.525 6.55 6.525zm-3.625-7.95c.2-1.825 1.675-2.975 3.4-2.975 1.875 0 3.2 1.075 3.425 2.975h-6.825zm23.508 5.45c-.55 0-.825-.175-.825-.825V9.7c0-3.025-1.95-4.65-5.35-4.65-3.225 0-5.375 1.55-5.65 4.05h2.65c.2-1.125 1.275-1.875 2.875-1.875 1.775 0 2.8.875 2.8 2.3v.775h-3.225c-3.575 0-5.475 1.475-5.475 4.1 0 2.375 1.95 3.75 4.75 3.75 2.075 0 3.375-.9 4.225-2.2 0 1.275.6 2.05 2.35 2.05h1.425v-2.35h-.55zm-3.5-2.9c-.025 1.975-1.325 3.3-3.575 3.3-1.475 0-2.375-.75-2.375-1.825 0-1.3.925-1.925 2.6-1.925h3.35v.45zm6.446 1.775c0 2.325 1.05 3.475 3.5 3.475h2.5v-2.375h-1.9c-1.025 0-1.375-.375-1.375-1.375V7.575h3.125V5.2h-3.125V1.625h-2.725V5.2h-2.225v2.375h2.225v6.95zm7.614 1.925c0 1 .725 1.7 1.725 1.7s1.75-.7 1.75-1.7-.75-1.7-1.75-1.7-1.725.7-1.725 1.7zm5.591 0c0 1 .725 1.7 1.725 1.7s1.75-.7 1.75-1.7-.75-1.7-1.75-1.7-1.725.7-1.725 1.7zm5.591 0c0 1 .725 1.7 1.725 1.7s1.75-.7 1.75-1.7-.75-1.7-1.75-1.7-1.725.7-1.725 1.7z" fill="#000"/></svg>