<svg width="76" height="22" viewBox="0 0 76 22" fill="none" xmlns="http://www.w3.org/2000/svg"><rect width="76" height="22" rx="11" fill="#000"/><path d="M7.935 12.01c.054 1.5 1.141 2.555 3 2.555 1.598 0 2.706-.924 2.706-2.239 0-1.478-1.271-1.891-2.51-2.098-1.142-.195-2.066-.38-2.066-1.293 0-.816.663-1.25 1.652-1.25 1.033 0 1.74.576 1.848 1.456h.979c-.087-1.37-1.13-2.315-2.827-2.315-1.543 0-2.597.87-2.597 2.163 0 1.478 1.26 1.88 2.489 2.087 1.152.196 2.087.391 2.087 1.337 0 .826-.729 1.293-1.75 1.293-1.163 0-1.957-.673-2.033-1.695h-.978zm7.19 1.044c0 .979.38 1.446 1.445 1.446h.967v-.815h-.88c-.478 0-.641-.174-.641-.642V9.773h1.434v-.816h-1.434V7.402h-.892v1.554h-1v.816h1v3.282zm8.002.63c-.25 0-.359-.075-.359-.369v-2.424c0-1.293-.815-2-2.228-2-1.337 0-2.217.642-2.348 1.729h.891c.11-.566.63-.935 1.414-.935.87 0 1.38.434 1.38 1.152v.38h-1.63c-1.457 0-2.229.62-2.229 1.729 0 1.01.826 1.62 2.044 1.62.956 0 1.51-.425 1.858-.925.011.544.261.859 1 .859h.49v-.815h-.283zm-1.25-1.445c0 .924-.641 1.565-1.75 1.565-.74 0-1.207-.37-1.207-.913 0-.63.446-.924 1.24-.924h1.717v.272zm4.783-3.283c-.99 0-1.413.414-1.674.837l-.12-.837h-.771V14.5h.891v-2.826c0-.88.315-1.848 1.478-1.848h.446v-.87h-.25zm1.616 4.098c0 .979.38 1.446 1.446 1.446h.967v-.815h-.88c-.479 0-.642-.174-.642-.642V9.773h1.435v-.816h-1.434V7.402h-.892v1.554h-1v.816h1v3.282zm6.443 0c0 .979.38 1.446 1.446 1.446h.968v-.815h-.88c-.48 0-.642-.174-.642-.642V9.773h1.434v-.816h-1.434V7.402h-.892v1.554h-1v.816h1v3.282zm5.751-4.098c-.989 0-1.413.414-1.674.837l-.12-.837h-.771V14.5h.891v-2.826c0-.88.315-1.848 1.478-1.848h.446v-.87h-.25zm5.734 4.729c-.25 0-.359-.076-.359-.37v-2.424c0-1.293-.815-2-2.228-2-1.337 0-2.217.642-2.348 1.729h.891c.109-.566.63-.935 1.413-.935.87 0 1.38.434 1.38 1.152v.38h-1.63c-1.456 0-2.228.62-2.228 1.729 0 1.01.826 1.62 2.044 1.62.956 0 1.51-.425 1.858-.925.011.544.261.859 1 .859h.49v-.815h-.283zm-1.25-1.446c0 .924-.642 1.565-1.75 1.565-.74 0-1.207-.37-1.207-.913 0-.63.446-.924 1.24-.924h1.717v.272zm6.524-2.435c-.337-.532-.968-.913-1.903-.913-1.532 0-2.663 1.142-2.663 2.837 0 1.805 1.13 2.837 2.663 2.837.935 0 1.533-.445 1.903-.956l.12.891h.77V6.891h-.89v2.913zm-1.816 3.968c-1.097 0-1.837-.837-1.837-2.044 0-1.206.74-2.043 1.837-2.043 1.087 0 1.827.848 1.827 2.065 0 1.185-.74 2.022-1.827 2.022zm4.378-5.75a.56.56 0 00.576-.576.56.56 0 00-.576-.577.56.56 0 00-.576.577c0 .337.25.576.576.576zm-.457 6.478h.891V8.956h-.89V14.5zm4.83-5.609c-.935 0-1.5.392-1.826.815l-.12-.75h-.771V14.5h.89v-2.772c0-1.25.631-2.022 1.675-2.022.967 0 1.5.61 1.5 1.761V14.5h.891v-3.087c0-1.837-.99-2.522-2.24-2.522zm7.745 1.022c-.348-.62-.967-1.022-1.902-1.022-1.533 0-2.663 1.142-2.663 2.837 0 1.805 1.13 2.837 2.663 2.837.935 0 1.532-.391 1.902-1.021v.652c0 1.206-.63 1.75-1.793 1.75-.924 0-1.544-.392-1.696-1.087h-.913c.141 1.217 1.13 1.88 2.543 1.88 1.903 0 2.75-.913 2.75-2.51V8.955h-.771l-.12.957zm-1.815 3.859c-1.098 0-1.837-.837-1.837-2.044 0-1.206.739-2.043 1.837-2.043 1.087 0 1.826.848 1.826 2.065 0 1.185-.74 2.022-1.826 2.022z" fill="#fff"/></svg>