<svg width="133" height="110" viewBox="0 0 133 110" fill="none" xmlns="http://www.w3.org/2000/svg"><path d="M9.51 72.846c0-2.434-1.65-4.226-4.035-4.226-2.386 0-4.036 1.792-4.036 4.226 0 2.433 1.65 4.225 4.036 4.225 2.386 0 4.036-1.792 4.036-4.225zm-6.67 0c0-1.757 1.056-3.027 2.635-3.027 1.579 0 2.635 1.27 2.635 3.027 0 1.756-1.056 3.026-2.635 3.026-1.579 0-2.635-1.27-2.635-3.026zm10.99-1.995c-.95 0-1.579.44-1.982.974l-.155-.902h-1.115v8.45h1.282v-3.228c.38.546 1.032.926 1.97.926 1.662 0 2.873-1.234 2.873-3.11 0-1.946-1.211-3.11-2.873-3.11zm-.214 5.14c-1.068 0-1.768-.843-1.768-2.053 0-1.175.7-1.995 1.768-1.995 1.069 0 1.78.82 1.78 2.018 0 1.187-.711 2.03-1.78 2.03zm6.998 1.08c1.508 0 2.528-.914 2.742-2.113h-1.282c-.178.677-.748 1.069-1.531 1.069-1.01 0-1.662-.677-1.698-1.71v-.083h4.582a3.49 3.49 0 00.036-.486c-.036-1.78-1.211-2.897-2.968-2.897-1.792 0-2.99 1.247-2.99 3.122 0 1.864 1.198 3.098 3.109 3.098zm-1.721-3.774c.095-.867.795-1.413 1.614-1.413.89 0 1.52.51 1.626 1.413h-3.24zm8.811-2.445c-.985 0-1.567.391-1.947.866l-.142-.795h-1.116V77h1.282v-3.062c0-1.235.605-1.983 1.626-1.983.962 0 1.448.618 1.448 1.769V77h1.294v-3.383c0-2.03-1.104-2.766-2.445-2.766zm12.203 5.032c-.261 0-.392-.083-.392-.391v-2.434c0-1.436-.926-2.207-2.54-2.207-1.531 0-2.552.735-2.682 1.922h1.258c.095-.534.605-.89 1.365-.89.843 0 1.33.416 1.33 1.092v.368h-1.532c-1.697 0-2.6.7-2.6 1.947 0 1.127.926 1.78 2.256 1.78.985 0 1.602-.427 2.006-1.044 0 .605.285.973 1.116.973h.676v-1.116h-.261zm-1.662-1.377c-.012.938-.629 1.567-1.697 1.567-.7 0-1.128-.356-1.128-.866 0-.617.44-.914 1.235-.914h1.59v.213zm5.397.487c.036 1.318 1.151 2.077 2.778 2.077 1.471 0 2.575-.736 2.575-1.899 0-1.353-1.127-1.638-2.516-1.804-.878-.095-1.46-.166-1.46-.736 0-.487.499-.795 1.258-.795.76 0 1.282.391 1.353.95h1.259c-.084-1.247-1.14-1.936-2.636-1.936-1.46-.011-2.492.736-2.492 1.888 0 1.258 1.092 1.555 2.48 1.72.938.12 1.496.167 1.496.82 0 .487-.522.795-1.317.795-.926 0-1.472-.45-1.52-1.08h-1.258zm9.6-4.142c-.95 0-1.58.439-1.983.973l-.154-.902h-1.116v8.45h1.282v-3.228c.38.546 1.032.926 1.97.926 1.662 0 2.873-1.234 2.873-3.11 0-1.946-1.211-3.11-2.873-3.11zm-.214 5.14c-1.069 0-1.77-.844-1.77-2.054 0-1.175.701-1.995 1.77-1.995 1.068 0 1.78.82 1.78 2.018 0 1.187-.712 2.03-1.78 2.03zm7.187-5.07c-.997 0-1.484.404-1.792.915l-.143-.914h-1.14V77h1.283v-3.05c0-.938.368-1.828 1.507-1.828h.57v-1.2h-.285zm3.67 6.15c1.508 0 2.528-.915 2.742-2.114h-1.282c-.178.677-.748 1.069-1.531 1.069-1.009 0-1.662-.677-1.697-1.71v-.083h4.581c.024-.166.036-.332.036-.486-.036-1.78-1.21-2.897-2.968-2.897-1.792 0-2.99 1.247-2.99 3.122 0 1.864 1.198 3.098 3.11 3.098zm-1.721-3.775c.095-.867.795-1.413 1.614-1.413.89 0 1.52.51 1.626 1.413h-3.24zm11.161 2.587c-.26 0-.392-.083-.392-.391v-2.434c0-1.436-.925-2.207-2.54-2.207-1.53 0-2.552.735-2.682 1.922h1.258c.095-.534.605-.89 1.365-.89.843 0 1.33.416 1.33 1.092v.368h-1.532c-1.697 0-2.6.7-2.6 1.947 0 1.127.927 1.78 2.256 1.78.985 0 1.603-.427 2.006-1.044 0 .605.285.973 1.116.973h.676v-1.116h-.26zm-1.662-1.377c-.011.938-.629 1.567-1.697 1.567-.7 0-1.127-.356-1.127-.866 0-.617.439-.914 1.234-.914h1.59v.213zm7.193-2.742c-.392-.534-1.045-.913-1.97-.913-1.65 0-2.873 1.234-2.873 3.11 0 1.946 1.222 3.11 2.872 3.11.962 0 1.59-.452 1.983-.986l.154.914h1.115v-8.309h-1.281v3.075zm-1.757 4.226c-1.068 0-1.769-.83-1.769-2.03 0-1.187.7-2.017 1.769-2.017 1.068 0 1.769.83 1.769 2.041 0 1.175-.7 2.006-1.77 2.006zM4.88 85.851c-.937 0-1.566.428-1.97.974V83.69H1.629V92h1.116l.154-.878c.38.546 1.033.95 1.982.95 1.662 0 2.873-1.247 2.873-3.11 0-1.96-1.21-3.11-2.873-3.11zm-.213 5.14c-1.069 0-1.769-.843-1.769-2.041 0-1.176.7-2.007 1.769-2.007 1.068 0 1.78.831 1.78 2.018 0 1.2-.712 2.03-1.78 2.03zm6.997 1.08c1.508 0 2.529-.914 2.742-2.113h-1.282c-.178.677-.747 1.069-1.53 1.069-1.01 0-1.663-.677-1.698-1.71v-.083h4.582a3.49 3.49 0 00.035-.486c-.035-1.78-1.21-2.897-2.967-2.897-1.793 0-2.991 1.247-2.991 3.122 0 1.864 1.198 3.098 3.11 3.098zm-1.72-3.774c.094-.867.795-1.413 1.614-1.413.89 0 1.519.51 1.626 1.413h-3.24zm11.541 2.575c-.45 0-.629-.178-.629-.653V87.05h1.472v-1.127h-1.472v-1.698h-1.282v1.698h-2.338v-1.698h-1.294v1.698h-1.056v1.127h1.056v3.3c0 1.104.499 1.65 1.662 1.65h1.056v-1.128h-.795c-.463 0-.629-.178-.629-.653V87.05h2.338v3.3c0 1.104.487 1.65 1.65 1.65h1.235v-1.128h-.974zm2.449-5.804c.439 0 .783-.32.783-.771s-.344-.772-.783-.772c-.44 0-.784.32-.784.772 0 .45.345.771.784.771zM23.282 92h1.282v-6.077h-1.282V92zm5.743-6.148c-.985 0-1.566.391-1.946.866l-.143-.795h-1.115V92h1.281v-3.062c0-1.235.606-1.983 1.627-1.983.961 0 1.448.618 1.448 1.769V92h1.294v-3.383c0-2.03-1.104-2.766-2.446-2.766zm8.252 1.02c-.391-.605-1.044-1.02-1.994-1.02-1.65 0-2.872 1.222-2.872 3.086 0 1.934 1.222 3.086 2.872 3.086.95 0 1.579-.392 1.983-.997v.676c0 1.163-.63 1.698-1.745 1.698-.902 0-1.496-.392-1.65-1.069h-1.306c.119 1.365 1.247 2.113 2.86 2.113 2.185 0 3.11-1.044 3.11-2.694v-5.828H37.42l-.143.95zm-1.78 4.072c-1.068 0-1.769-.82-1.769-2.006 0-1.175.7-2.006 1.769-2.006 1.068 0 1.769.83 1.769 2.03 0 1.163-.7 1.982-1.769 1.982zm12.883-.06c-.26 0-.391-.083-.391-.391v-2.434c0-1.436-.926-2.207-2.54-2.207-1.532 0-2.552.735-2.683 1.922h1.258c.095-.534.605-.89 1.365-.89.843 0 1.33.416 1.33 1.092v.368h-1.532c-1.697 0-2.6.7-2.6 1.947 0 1.127.927 1.78 2.256 1.78.985 0 1.603-.427 2.006-1.044 0 .605.285.973 1.116.973h.676v-1.116h-.26zm-1.661-1.377c-.012.938-.63 1.567-1.698 1.567-.7 0-1.127-.356-1.127-.866 0-.617.439-.914 1.234-.914h1.59v.213zm5.364 2.564c1.555 0 2.587-.866 2.825-2.243h-1.353c-.155.7-.677 1.151-1.46 1.151-1.033 0-1.71-.819-1.71-2.006 0-1.199.677-2.03 1.71-2.03.795 0 1.305.44 1.471 1.152h1.342c-.25-1.377-1.223-2.243-2.79-2.243-1.84 0-3.05 1.246-3.05 3.121 0 1.9 1.175 3.098 3.015 3.098zm6.595 0c1.555 0 2.588-.866 2.825-2.243H60.15c-.154.7-.676 1.151-1.46 1.151-1.032 0-1.71-.819-1.71-2.006 0-1.199.678-2.03 1.71-2.03.795 0 1.306.44 1.472 1.152h1.341c-.249-1.377-1.222-2.243-2.79-2.243-1.839 0-3.05 1.246-3.05 3.121 0 1.9 1.176 3.098 3.015 3.098zm6.679 0c1.852 0 3.098-1.246 3.098-3.11 0-1.851-1.246-3.11-3.098-3.11-1.852 0-3.098 1.259-3.098 3.11 0 1.864 1.246 3.11 3.098 3.11zm0-1.092c-1.08 0-1.78-.843-1.78-2.018 0-1.175.7-2.017 1.78-2.017s1.792.842 1.792 2.017c0 1.175-.712 2.018-1.792 2.018zm8.295-2.018c0 1.258-.594 1.995-1.567 1.995-.938 0-1.412-.606-1.412-1.793v-3.24H69.39v3.383c0 2.077 1.104 2.765 2.397 2.765.938 0 1.496-.38 1.876-.843l.142.772h1.128v-6.077h-1.282v3.038zm5.75-3.11c-.985 0-1.567.392-1.947.867l-.142-.795h-1.116V92h1.282v-3.062c0-1.235.606-1.983 1.626-1.983.962 0 1.448.618 1.448 1.769V92h1.294v-3.383c0-2.03-1.104-2.766-2.445-2.766zm4.05 4.5c0 1.103.499 1.649 1.662 1.649h1.187v-1.128h-.902c-.487 0-.653-.178-.653-.653V87.05h1.484v-1.127h-1.484v-1.698h-1.294v1.698h-1.056v1.127h1.056v3.3zM91.86 92h.653l1.78-5.056L95.989 92h.653l2.137-6.018h-.617l-1.852 5.294-1.721-5.294h-.558l-1.816 5.294-1.757-5.294h-.64L91.857 92zm8.075-7.288a.418.418 0 00.428-.427c0-.25-.19-.428-.428-.428a.418.418 0 00-.427.428c0 .249.19.427.427.427zM99.626 92h.605v-6.018h-.605V92zm2.479-1.4c0 .96.392 1.4 1.413 1.4h.878v-.558h-.831c-.629 0-.854-.237-.854-.854V86.54h1.626v-.558h-1.626v-1.685h-.606v1.685h-1.139v.558h1.139v4.06zm5.99-4.69c-1.128 0-1.828.63-2.173 1.496v-3.715h-.605V92h.605v-2.967c0-1.567.796-2.564 2.078-2.564 1.151 0 1.863.76 1.863 2.184V92h.605v-3.371c0-1.9-1.008-2.718-2.373-2.718zM5.368 107.072c1.78 0 3.039-.961 3.395-2.635h-.677c-.356 1.33-1.317 2.042-2.73 2.042-1.923 0-3.133-1.508-3.133-3.632 0-2.125 1.234-3.633 3.157-3.633 1.389 0 2.362.725 2.73 2.03h.677c-.368-1.662-1.627-2.623-3.371-2.623-2.339 0-3.858 1.733-3.858 4.226 0 2.516 1.484 4.225 3.81 4.225zm4.94-7.359a.418.418 0 00.428-.427c0-.25-.19-.428-.427-.428a.418.418 0 00-.428.428c0 .249.19.427.428.427zM10 107h.605v-6.018H10V107zm2.48-1.401c0 .962.391 1.401 1.412 1.401h.879v-.558h-.831c-.63 0-.855-.237-.855-.854v-4.048h1.626v-.558h-1.626v-1.685h-.605v1.685h-1.14v.558h1.14v4.059zM17.496 107l-.392.973c-.273.665-.38.843-.997.843h-.76v.558h.926c.807 0 .997-.309 1.377-1.258l2.884-7.134h-.652l-2.054 5.235-2.089-5.235h-.653l2.41 6.018zm7.194 0h.64v-8.309h-.64V107zm4.988-6.089c-1.104 0-1.816.57-2.16 1.353l-.095-1.282H26.9V107h.605v-2.967c0-1.567.795-2.564 2.077-2.564 1.163 0 1.864.759 1.864 2.184V107h.605v-3.371c0-1.899-1.009-2.718-2.374-2.718zm8.535 1.424c-.368-.854-1.175-1.424-2.303-1.424-1.65 0-2.836 1.258-2.836 3.074 0 1.899 1.187 3.086 2.836 3.086 1.128 0 1.911-.605 2.291-1.448l.095 1.377h.522v-8.309h-.605v3.644zm-2.255 4.19c-1.341 0-2.267-1.044-2.267-2.54 0-1.484.926-2.54 2.267-2.54 1.341 0 2.267 1.056 2.267 2.552 0 1.484-.926 2.528-2.267 2.528zm6.943.546c1.318 0 2.327-.854 2.588-2.065h-.617c-.238.938-1.033 1.519-2.018 1.519-1.342 0-2.184-1.021-2.208-2.421v-.107h4.914c0-.083.012-.178.012-.249-.06-1.793-1.163-2.837-2.778-2.837-1.65 0-2.777 1.258-2.777 3.038 0 1.888 1.175 3.122 2.884 3.122zm-2.208-3.584c.095-1.223 1.01-2.042 2.113-2.042 1.175 0 2.018.724 2.113 2.042h-4.226zM45.92 107h.7l1.994-2.647L50.607 107h.736l-2.338-3.074 2.22-2.944h-.689l-1.9 2.493-1.875-2.493h-.724l2.22 2.944L45.92 107zm9.855-1.401c0 .962.392 1.401 1.412 1.401h.879v-.558h-.831c-.63 0-.855-.237-.855-.854v-4.048h1.626v-.558H56.38v-1.685h-.605v1.685h-1.14v.558h1.14v4.059zm5.685 1.472c1.697 0 2.896-1.258 2.896-3.086 0-1.816-1.199-3.074-2.896-3.074-1.697 0-2.884 1.258-2.884 3.074 0 1.828 1.187 3.086 2.884 3.086zm0-.546c-1.341 0-2.267-1.044-2.267-2.54 0-1.484.926-2.54 2.267-2.54 1.341 0 2.267 1.056 2.267 2.54 0 1.496-.926 2.54-2.267 2.54zm9.013-4.19c-.368-.854-1.175-1.424-2.302-1.424-1.65 0-2.837 1.258-2.837 3.074 0 1.899 1.187 3.086 2.837 3.086 1.127 0 1.91-.605 2.29-1.448l.095 1.377h.523v-8.309h-.606v3.644zm-2.255 4.19c-1.341 0-2.267-1.044-2.267-2.54 0-1.484.926-2.54 2.267-2.54 1.341 0 2.267 1.056 2.267 2.552 0 1.484-.926 2.528-2.267 2.528zm9.578-.083c-.356 0-.534-.119-.534-.581v-2.802c0-1.377-.843-2.148-2.35-2.148-1.377 0-2.29.665-2.445 1.757h.605c.154-.736.796-1.223 1.816-1.223 1.128 0 1.769.593 1.769 1.591v.522h-2.042c-1.543 0-2.374.664-2.374 1.792 0 1.068.843 1.721 2.125 1.721 1.223 0 1.947-.558 2.315-1.305v.213c-.024.712.273 1.021.985 1.021h.356v-.558h-.226zm-1.14-1.875c0 1.151-.818 1.982-2.243 1.982-.96 0-1.554-.487-1.554-1.234 0-.796.593-1.235 1.709-1.235h2.089v.487zM80.439 107l-.392.973c-.273.665-.38.843-.997.843h-.76v.558h.926c.807 0 .997-.309 1.377-1.258l2.884-7.134h-.653l-2.053 5.235-2.09-5.235h-.652l2.41 6.018z" fill="#000"/><path d="M.556 8.374h6.006V25h3.197V8.374h6.005V5.538H.556v2.836zm23.106 2.39c-2.335 0-3.475.946-4.198 2.142l-.334-2.141h-2.669V25h3.003v-7.145c0-2.197.862-4.282 3.53-4.282h1.335v-2.808h-.667zM38.76 22.388c-.612 0-.918-.195-.918-.918v-5.7c0-3.364-2.168-5.171-5.95-5.171-3.586 0-5.977 1.724-6.283 4.504h2.947c.222-1.251 1.418-2.085 3.197-2.085 1.974 0 3.114.973 3.114 2.558v.862H31.28c-3.976 0-6.09 1.64-6.09 4.56 0 2.64 2.17 4.17 5.283 4.17 2.308 0 3.754-1.001 4.7-2.447 0 1.418.666 2.28 2.613 2.28h1.584v-2.613h-.611zm-3.893-3.226c-.027 2.197-1.473 3.67-3.976 3.67-1.64 0-2.64-.834-2.64-2.03 0-1.445 1.028-2.14 2.89-2.14h3.726v.5zm16.847-6.422c-.918-1.251-2.447-2.141-4.616-2.141-3.864 0-6.728 2.891-6.728 7.284 0 4.56 2.864 7.285 6.728 7.285 2.252 0 3.726-1.057 4.644-2.308L52.102 25h2.614V5.538h-3.003v7.2zm-4.115 9.898c-2.502 0-4.143-1.947-4.143-4.755 0-2.78 1.64-4.726 4.143-4.726 2.502 0 4.143 1.946 4.143 4.782 0 2.753-1.64 4.699-4.143 4.699zm16.808 2.53c3.53 0 5.922-2.141 6.422-4.95h-3.002c-.417 1.586-1.752 2.503-3.587 2.503-2.363 0-3.892-1.585-3.976-4.003v-.195h10.732c.056-.39.084-.779.084-1.14-.084-4.17-2.836-6.784-6.951-6.784-4.198 0-7.007 2.92-7.007 7.312 0 4.365 2.809 7.257 7.285 7.257zm-4.032-8.841c.223-2.03 1.863-3.31 3.782-3.31 2.085 0 3.558 1.196 3.809 3.31h-7.59zM2.502 50.136C2.502 52.72 3.67 54 6.395 54h2.78v-2.641H7.062c-1.14 0-1.53-.417-1.53-1.53v-7.423h3.476v-2.641H5.533v-3.976h-3.03v3.976H.027v2.641h2.474v7.73zm21.432 1.25c-.612 0-.917-.194-.917-.917v-5.7c0-3.364-2.17-5.171-5.95-5.171-3.587 0-5.978 1.724-6.284 4.504h2.947c.223-1.251 1.418-2.085 3.198-2.085 1.974 0 3.114.973 3.114 2.558v.862h-3.587c-3.976 0-6.089 1.64-6.089 4.56 0 2.64 2.169 4.17 5.283 4.17 2.307 0 3.753-1.001 4.699-2.447 0 1.418.667 2.28 2.613 2.28h1.585v-2.614h-.612zm-3.892-3.225c-.028 2.197-1.474 3.67-3.976 3.67-1.64 0-2.641-.834-2.641-2.03 0-1.445 1.028-2.14 2.891-2.14h3.726v.5zM24.708 54h3.308l3.754-5.171L35.495 54H39l-5.367-7.284 5.06-6.951h-3.308l-3.475 4.81-3.392-4.81h-3.503l5.032 6.95L24.708 54zm23.765-6.673v-2.474H39.02v2.474h9.453zm.998-4.92h2.474V54h3.03V42.406h3.81v-2.641H54.92v-1.196c0-.973.417-1.39 1.39-1.39h2.474v-2.641h-2.863c-2.753 0-3.976 1.334-3.976 3.892v1.335h-2.474v2.641zm18.068-2.642c-2.336 0-3.476.945-4.199 2.14l-.333-2.14h-2.67V54h3.003v-7.145c0-2.197.862-4.282 3.531-4.282h1.335v-2.808h-.667zm8.596 14.402c3.531 0 5.922-2.141 6.423-4.95h-3.003c-.417 1.586-1.752 2.503-3.587 2.503-2.363 0-3.892-1.585-3.975-4.003v-.195h10.732c.055-.39.083-.779.083-1.14-.083-4.17-2.836-6.784-6.95-6.784-4.199 0-7.007 2.92-7.007 7.312 0 4.365 2.808 7.257 7.284 7.257zm-4.031-8.842c.222-2.03 1.863-3.308 3.781-3.308 2.085 0 3.559 1.195 3.81 3.308h-7.591zm19.888 8.842c3.53 0 5.922-2.141 6.422-4.95h-3.002c-.418 1.586-1.752 2.503-3.587 2.503-2.363 0-3.892-1.585-3.976-4.003v-.195h10.732c.056-.39.084-.779.084-1.14-.084-4.17-2.836-6.784-6.951-6.784-4.198 0-7.007 2.92-7.007 7.312 0 4.365 2.809 7.257 7.285 7.257zm-4.032-8.842c.223-2.03 1.863-3.308 3.782-3.308 2.085 0 3.558 1.195 3.808 3.308h-7.59z" fill="url(#paint0_linear_1247_6724)"/><defs><linearGradient id="paint0_linear_1247_6724" x1="133" y1="20.5" x2="0" y2="20.5" gradientUnits="userSpaceOnUse"><stop stop-color="#FF4343"/><stop offset=".5" stop-color="#9C0B93"/><stop offset="1" stop-color="#4C1BB7"/></linearGradient></defs></svg>