<svg width="88" height="22" viewBox="0 0 88 22" fill="none" xmlns="http://www.w3.org/2000/svg"><rect x=".785" y=".569" width="87" height="21" rx="10.5" fill="#000"/><path d="M18.503 7.83h2.467v6.74h.946V7.83h2.467v-.87h-5.88v.87zm8.72 1.196c-.99 0-1.413.413-1.674.837l-.12-.837h-.771v5.543h.891v-2.826c0-.88.315-1.848 1.478-1.848h.446v-.87h-.25zm5.734 4.728c-.25 0-.359-.076-.359-.37V10.96c0-1.293-.815-2-2.228-2-1.337 0-2.218.642-2.348 1.729h.891c.109-.565.63-.935 1.413-.935.87 0 1.38.435 1.38 1.152v.38h-1.63c-1.456 0-2.228.62-2.228 1.729 0 1.01.826 1.62 2.044 1.62.956 0 1.51-.424 1.858-.924.011.543.261.858 1 .858h.49v-.815h-.283zm-1.25-1.446c0 .924-.642 1.566-1.75 1.566-.74 0-1.207-.37-1.207-.913 0-.63.446-.924 1.24-.924h1.717v.271zm6.523-2.434c-.336-.533-.967-.913-1.902-.913-1.532 0-2.663 1.14-2.663 2.836 0 1.805 1.13 2.837 2.663 2.837.935 0 1.533-.445 1.902-.956l.12.891h.772V6.96h-.892v2.914zm-1.815 3.967c-1.097 0-1.837-.837-1.837-2.043 0-1.207.74-2.044 1.837-2.044 1.087 0 1.826.848 1.826 2.065 0 1.185-.739 2.022-1.826 2.022zm6.475.793c1.283 0 2.196-.815 2.413-1.923h-.902c-.184.717-.793 1.13-1.576 1.13-1.054 0-1.717-.74-1.75-1.793v-.077h4.305c.01-.13.021-.26.021-.38-.043-1.641-1.065-2.63-2.63-2.63s-2.63 1.152-2.63 2.836c0 1.696 1.086 2.837 2.75 2.837zm-1.76-3.402c.087-.902.837-1.489 1.652-1.489.924 0 1.576.533 1.663 1.49h-3.316zm10.85-2.271c-.934 0-1.5.39-1.825.815l-.12-.75h-.772v5.543h.892v-2.772c0-1.25.63-2.021 1.673-2.021.968 0 1.5.608 1.5 1.76v3.033h.892v-3.087c0-1.837-.99-2.521-2.24-2.521zm5.867 5.673c1.62 0 2.75-1.152 2.75-2.837 0-1.684-1.13-2.836-2.75-2.836s-2.75 1.152-2.75 2.836c0 1.685 1.13 2.837 2.75 2.837zm0-.793c-1.098 0-1.837-.859-1.837-2.043 0-1.185.739-2.044 1.837-2.044 1.098 0 1.837.859 1.837 2.043 0 1.185-.74 2.044-1.837 2.044zm4.863.728h.979l1.39-4.12 1.338 4.12h.978l1.848-5.543h-.902l-1.446 4.51-1.38-4.51h-.826l-1.457 4.51-1.38-4.51h-.935l1.793 5.543z" fill="#fff"/></svg>