<svg width="133" height="110" viewBox="0 0 133 110" fill="none" xmlns="http://www.w3.org/2000/svg"><path d="M10.022 72.496c0-2.664-1.725-4.582-4.209-4.582-2.47 0-4.208 1.918-4.208 4.582 0 2.664 1.737 4.581 4.208 4.581 2.484 0 4.209-1.917 4.209-4.581zm-7.696 0c0-2.304 1.428-3.938 3.487-3.938 2.072 0 3.5 1.634 3.5 3.938 0 2.303-1.428 3.938-3.5 3.938-2.059 0-3.487-1.635-3.487-3.938zm12.239-2.098c-1.223 0-2.072.656-2.484 1.57l-.103-1.493h-.566v9.099h.656v-4.08c.373.953 1.261 1.583 2.497 1.583 1.789 0 3.076-1.364 3.076-3.346 0-2.046-1.287-3.333-3.076-3.333zm-.051 6.087c-1.455 0-2.459-1.132-2.459-2.767 0-1.596 1.004-2.741 2.459-2.741 1.454 0 2.458 1.145 2.458 2.754 0 1.622-1.004 2.754-2.459 2.754zm7.309.592c1.428 0 2.522-.926 2.806-2.24h-.67c-.257 1.018-1.12 1.648-2.188 1.648-1.454 0-2.367-1.107-2.393-2.625v-.116h5.328c0-.09.013-.193.013-.27-.065-1.944-1.262-3.076-3.012-3.076-1.789 0-3.011 1.364-3.011 3.294 0 2.047 1.274 3.385 3.127 3.385zm-2.394-3.886c.103-1.326 1.094-2.214 2.291-2.214 1.274 0 2.188.785 2.29 2.214h-4.58zm9.599-2.793c-1.197 0-1.97.618-2.343 1.467l-.103-1.39h-.566V77h.656v-3.217c0-1.7.863-2.78 2.252-2.78 1.262 0 2.021.823 2.021 2.368V77h.656v-3.655c0-2.06-1.093-2.947-2.573-2.947zm13.235 5.997c-.386 0-.58-.129-.58-.63v-3.038c0-1.493-.913-2.33-2.548-2.33-1.492 0-2.483.721-2.65 1.906h.656c.167-.798.862-1.326 1.969-1.326 1.222 0 1.917.644 1.917 1.724v.567h-2.213c-1.673 0-2.574.72-2.574 1.943 0 1.158.913 1.866 2.303 1.866 1.326 0 2.111-.605 2.51-1.415v.231c-.026.772.296 1.107 1.068 1.107h.386v-.605h-.244zm-1.236-2.033c0 1.248-.888 2.149-2.432 2.149-1.042 0-1.686-.528-1.686-1.338 0-.863.644-1.339 1.853-1.339h2.265v.528zm5.53.63c.052 1.352 1.146 2.085 2.78 2.085 1.403 0 2.536-.708 2.536-1.866 0-1.377-1.21-1.647-2.612-1.84-1.017-.142-1.918-.258-1.918-1.171 0-.747.733-1.236 1.84-1.236 1.043 0 1.79.502 1.905 1.351h.67c-.117-1.274-1.16-1.917-2.575-1.917-1.454-.013-2.496.733-2.496 1.853 0 1.313 1.21 1.557 2.548 1.737 1.094.155 1.982.296 1.982 1.262 0 .772-.811 1.261-1.88 1.261-1.248 0-2.059-.58-2.11-1.519h-.67zm9.721-4.594c-1.222 0-2.072.656-2.483 1.57l-.103-1.493h-.567v9.099h.657v-4.08c.373.953 1.26 1.583 2.496 1.583 1.79 0 3.076-1.364 3.076-3.346 0-2.046-1.287-3.333-3.076-3.333zm-.051 6.087c-1.454 0-2.458-1.132-2.458-2.767 0-1.596 1.004-2.741 2.458-2.741 1.454 0 2.458 1.145 2.458 2.754 0 1.622-1.004 2.754-2.458 2.754zm7.09-6.01c-1.21 0-1.724.58-1.994 1.3l-.103-1.3h-.566V77h.656v-3.308c0-1.325.347-2.586 1.879-2.586h.476v-.63h-.347zm3.738 6.602c1.429 0 2.523-.926 2.806-2.24h-.67c-.257 1.018-1.119 1.648-2.187 1.648-1.454 0-2.368-1.107-2.394-2.625v-.116h5.328c0-.09.013-.193.013-.27-.064-1.944-1.261-3.076-3.011-3.076-1.79 0-3.012 1.364-3.012 3.294 0 2.047 1.274 3.385 3.127 3.385zm-2.393-3.886c.103-1.326 1.094-2.214 2.29-2.214 1.275 0 2.188.785 2.291 2.214h-4.581zm12.326 3.204c-.386 0-.579-.129-.579-.63v-3.038c0-1.493-.913-2.33-2.548-2.33-1.493 0-2.484.721-2.651 1.906h.656c.168-.798.862-1.326 1.97-1.326 1.222 0 1.917.644 1.917 1.724v.567h-2.214c-1.673 0-2.574.72-2.574 1.943 0 1.158.914 1.866 2.304 1.866 1.326 0 2.11-.605 2.51-1.415v.231c-.026.772.296 1.107 1.068 1.107h.386v-.605h-.245zm-1.235-2.033c0 1.248-.888 2.149-2.433 2.149-1.042 0-1.685-.528-1.685-1.338 0-.863.643-1.339 1.853-1.339h2.265v.528zm7.585-2.42c-.399-.926-1.274-1.544-2.497-1.544-1.788 0-3.075 1.364-3.075 3.333 0 2.06 1.286 3.346 3.075 3.346 1.223 0 2.072-.656 2.484-1.57L83.428 77h.567v-9.009h-.657v3.951zm-2.445 4.543c-1.454 0-2.458-1.132-2.458-2.754 0-1.609 1.004-2.754 2.458-2.754 1.454 0 2.458 1.145 2.458 2.767 0 1.609-1.004 2.741-2.458 2.741zM4.925 85.398c-1.222 0-2.085.67-2.496 1.596V82.99h-.657V92h.566l.103-1.48c.387.94 1.262 1.557 2.484 1.557 1.79 0 3.076-1.364 3.076-3.346 0-2.046-1.287-3.333-3.076-3.333zm-.051 6.087c-1.454 0-2.458-1.132-2.458-2.767 0-1.596 1.004-2.741 2.458-2.741 1.454 0 2.458 1.145 2.458 2.754 0 1.622-1.004 2.754-2.458 2.754zm7.31.592c1.428 0 2.522-.926 2.805-2.24h-.67c-.257 1.018-1.119 1.648-2.187 1.648-1.454 0-2.368-1.107-2.394-2.625v-.116h5.328c0-.09.013-.193.013-.27-.064-1.944-1.261-3.076-3.012-3.076-1.788 0-3.011 1.364-3.011 3.294 0 2.047 1.274 3.385 3.127 3.385zM9.79 88.191c.102-1.326 1.093-2.214 2.29-2.214 1.274 0 2.188.785 2.291 2.214H9.79zm6.975 2.29c0 1.043.424 1.519 1.531 1.519h.953v-.605h-.901c-.682 0-.927-.257-.927-.926v-4.39h1.763v-.604h-1.763v-1.827h-.656v1.827h-1.236v.605h1.236v4.401zm12.69.914c-.385 0-.578-.129-.578-.63v-3.038c0-1.493-.914-2.33-2.548-2.33-1.493 0-2.484.721-2.652 1.906h.657c.167-.798.862-1.326 1.969-1.326 1.223 0 1.917.644 1.917 1.724v.567h-2.213c-1.673 0-2.574.72-2.574 1.943 0 1.158.914 1.866 2.304 1.866 1.325 0 2.11-.605 2.51-1.415v.231c-.027.772.295 1.107 1.067 1.107h.386v-.605h-.244zm-1.235-2.033c0 1.248-.888 2.149-2.432 2.149-1.042 0-1.686-.528-1.686-1.338 0-.863.644-1.339 1.853-1.339h2.265v.528zm5.102 2.715c1.48 0 2.522-.85 2.78-2.175h-.695c-.219.966-1.004 1.583-2.085 1.583-1.429 0-2.42-1.12-2.42-2.741 0-1.622.978-2.767 2.42-2.767 1.094 0 1.866.618 2.098 1.596h.682c-.27-1.351-1.287-2.175-2.767-2.175-1.84 0-3.102 1.364-3.102 3.346 0 2.008 1.248 3.333 3.089 3.333zm6.9 0c1.48 0 2.522-.85 2.78-2.175h-.695c-.22.966-1.004 1.583-2.085 1.583-1.429 0-2.42-1.12-2.42-2.741 0-1.622.978-2.767 2.42-2.767 1.094 0 1.866.618 2.097 1.596h.683c-.27-1.351-1.287-2.175-2.767-2.175-1.84 0-3.102 1.364-3.102 3.346 0 2.008 1.248 3.333 3.089 3.333zm6.938 0c1.84 0 3.14-1.364 3.14-3.346 0-1.969-1.3-3.333-3.14-3.333s-3.127 1.364-3.127 3.333c0 1.982 1.287 3.346 3.127 3.346zm0-.592c-1.454 0-2.458-1.132-2.458-2.754 0-1.609 1.004-2.754 2.458-2.754 1.455 0 2.458 1.145 2.458 2.754 0 1.622-1.004 2.754-2.458 2.754zm9.18-2.805c0 1.711-.849 2.792-2.2 2.792-1.21 0-1.956-.823-1.956-2.38v-3.617h-.657v3.655c0 2.046 1.069 2.947 2.51 2.947 1.158 0 1.918-.617 2.29-1.454l.09 1.377h.58v-6.525h-.656v3.205zm5.214-3.282c-1.197 0-1.97.618-2.343 1.467l-.103-1.39h-.566V92h.657v-3.217c0-1.7.862-2.78 2.252-2.78 1.26 0 2.02.823 2.02 2.368V92h.657v-3.655c0-2.06-1.094-2.947-2.574-2.947zm4.515 5.083c0 1.043.425 1.519 1.532 1.519h.952v-.605h-.9c-.683 0-.927-.257-.927-.926v-4.39h1.763v-.604h-1.763v-1.827h-.657v1.827h-1.235v.605h1.235v4.401zM74.603 92h.708l1.93-5.483L79.083 92h.708l2.317-6.525h-.67l-2.007 5.74-1.866-5.74h-.605l-1.97 5.74-1.904-5.74h-.695L74.603 92zm8.756-7.902a.454.454 0 00.464-.463.454.454 0 00-.464-.464.453.453 0 00-.463.464c0 .27.206.463.463.463zM83.025 92h.656v-6.525h-.656V92zm2.688-1.519c0 1.043.425 1.519 1.532 1.519h.952v-.605h-.9c-.683 0-.927-.257-.927-.926v-4.39h1.763v-.604H86.37v-1.827h-.657v1.827h-1.235v.605h1.235v4.401zm6.494-5.083c-1.222 0-1.982.682-2.355 1.621v-4.028h-.656V92h.656v-3.217c0-1.7.862-2.78 2.252-2.78 1.249 0 2.02.823 2.02 2.368V92h.657v-3.655c0-2.06-1.094-2.947-2.574-2.947zm-86.47 21.679c2.097 0 3.628-1.235 3.911-3.14H8.117c-.283 1.145-1.145 1.84-2.394 1.84-1.699 0-2.728-1.364-2.728-3.281 0-1.931 1.055-3.282 2.767-3.282 1.222 0 2.072.708 2.368 1.84H9.66c-.296-1.904-1.776-3.14-3.835-3.14-2.664 0-4.35 1.84-4.35 4.582 0 2.767 1.635 4.581 4.26 4.581zm5.702-7.593c.476 0 .85-.347.85-.836 0-.49-.374-.837-.85-.837s-.85.347-.85.837c0 .489.374.836.85.836zM10.73 107h1.39v-6.589h-1.39V107zm3.229-1.789c0 1.197.54 1.789 1.801 1.789h1.287v-1.223h-.978c-.527 0-.707-.193-.707-.707v-3.437h1.608v-1.222h-1.608v-1.84H13.96v1.84h-1.146v1.222h1.146v3.578zm5.877 1.828l-.257.643c-.206.541-.335.669-.875.669h-.978v1.223h1.493c.965 0 1.248-.476 1.66-1.544l2.986-7.619h-1.48l-1.79 5.006-1.84-5.006h-1.48l2.561 6.628zm8.166-.039h1.48v-9.009h-1.48V107zm6.463-6.667c-1.069 0-1.7.425-2.111.94l-.154-.862h-1.21V107h1.39v-3.32c0-1.339.656-2.15 1.763-2.15 1.042 0 1.57.67 1.57 1.918V107h1.403v-3.668c0-2.201-1.197-2.999-2.651-2.999zm8.87.991c-.424-.579-1.132-.991-2.136-.991-1.788 0-3.114 1.339-3.114 3.372 0 2.111 1.326 3.372 3.114 3.372 1.043 0 1.725-.489 2.15-1.068l.167.991h1.21v-9.009h-1.39v3.333zm-1.904 4.582c-1.158 0-1.917-.901-1.917-2.201 0-1.287.759-2.187 1.917-2.187s1.918.9 1.918 2.213c0 1.274-.76 2.175-1.918 2.175zm7.78 1.171c1.635 0 2.742-.991 2.973-2.291h-1.39c-.193.734-.81 1.159-1.66 1.159-1.094 0-1.802-.734-1.84-1.854v-.09h4.968c.025-.18.038-.36.038-.527-.038-1.931-1.313-3.141-3.217-3.141-1.944 0-3.243 1.352-3.243 3.385 0 2.021 1.3 3.359 3.371 3.359zm-1.866-4.092c.103-.94.863-1.532 1.75-1.532.966 0 1.648.554 1.764 1.532h-3.514zM52.441 107h1.532l1.737-2.394L57.434 107h1.622l-2.484-3.372 2.343-3.217h-1.532l-1.609 2.226-1.57-2.226h-1.621l2.33 3.217L52.44 107zm11.34-1.519c0 1.043.426 1.519 1.532 1.519h.953v-.605h-.901c-.682 0-.927-.257-.927-.926v-4.389h1.763v-.605h-1.763v-1.827h-.656v1.827h-1.236v.605h1.236v4.401zm6.165 1.596c1.84 0 3.14-1.364 3.14-3.346 0-1.969-1.3-3.333-3.14-3.333s-3.127 1.364-3.127 3.333c0 1.982 1.287 3.346 3.127 3.346zm0-.592c-1.454 0-2.458-1.132-2.458-2.754 0-1.609 1.004-2.754 2.458-2.754 1.454 0 2.458 1.145 2.458 2.754 0 1.622-1.004 2.754-2.458 2.754zm9.773-4.543c-.4-.926-1.275-1.544-2.497-1.544-1.79 0-3.076 1.364-3.076 3.333 0 2.059 1.287 3.346 3.076 3.346 1.222 0 2.072-.656 2.484-1.57l.103 1.493h.566v-9.009h-.656v3.951zm-2.446 4.543c-1.454 0-2.458-1.132-2.458-2.754 0-1.609 1.004-2.754 2.458-2.754 1.455 0 2.458 1.145 2.458 2.767 0 1.609-1.003 2.741-2.458 2.741zm10.386-.09c-.387 0-.58-.129-.58-.63v-3.038c0-1.493-.913-2.329-2.548-2.329-1.493 0-2.484.721-2.65 1.905h.656c.167-.798.862-1.326 1.969-1.326 1.222 0 1.917.643 1.917 1.725v.566H84.21c-1.673 0-2.574.72-2.574 1.943 0 1.158.913 1.866 2.303 1.866 1.326 0 2.11-.605 2.51-1.415v.231c-.026.772.296 1.107 1.068 1.107h.386v-.605h-.244zm-1.236-2.033c0 1.248-.888 2.149-2.432 2.149-1.043 0-1.686-.528-1.686-1.338 0-.863.643-1.339 1.853-1.339h2.265v.528zm4.1 2.638l-.424 1.055c-.296.721-.412.914-1.081.914h-.824v.605h1.004c.875 0 1.08-.335 1.493-1.364l3.127-7.735h-.708l-2.226 5.676-2.265-5.676h-.708L90.523 107z" fill="#000"/><path d="M.556 8.374h6.006V25h3.197V8.374h6.005V5.538H.556v2.836zm23.106 2.39c-2.335 0-3.475.946-4.198 2.142l-.334-2.141h-2.669V25h3.003v-7.145c0-2.197.862-4.282 3.53-4.282h1.335v-2.808h-.667zM38.76 22.388c-.612 0-.918-.195-.918-.918v-5.7c0-3.364-2.168-5.171-5.95-5.171-3.586 0-5.977 1.724-6.283 4.504h2.947c.222-1.251 1.418-2.085 3.197-2.085 1.974 0 3.114.973 3.114 2.558v.862H31.28c-3.976 0-6.09 1.64-6.09 4.56 0 2.64 2.17 4.17 5.283 4.17 2.308 0 3.754-1.001 4.7-2.447 0 1.418.666 2.28 2.613 2.28h1.584v-2.613h-.611zm-3.893-3.226c-.027 2.197-1.473 3.67-3.976 3.67-1.64 0-2.64-.834-2.64-2.03 0-1.445 1.028-2.14 2.89-2.14h3.726v.5zm16.847-6.422c-.918-1.251-2.447-2.141-4.616-2.141-3.864 0-6.728 2.891-6.728 7.284 0 4.56 2.864 7.285 6.728 7.285 2.252 0 3.726-1.057 4.644-2.308L52.102 25h2.614V5.538h-3.003v7.2zm-4.115 9.898c-2.502 0-4.143-1.947-4.143-4.755 0-2.78 1.64-4.726 4.143-4.726 2.502 0 4.143 1.946 4.143 4.782 0 2.753-1.64 4.699-4.143 4.699zm16.808 2.53c3.53 0 5.922-2.141 6.422-4.95h-3.002c-.417 1.586-1.752 2.503-3.587 2.503-2.363 0-3.892-1.585-3.976-4.003v-.195h10.732c.056-.39.084-.779.084-1.14-.084-4.17-2.836-6.784-6.951-6.784-4.198 0-7.007 2.92-7.007 7.312 0 4.365 2.809 7.257 7.285 7.257zm-4.032-8.841c.223-2.03 1.863-3.31 3.782-3.31 2.085 0 3.558 1.196 3.809 3.31h-7.59zM2.502 50.136C2.502 52.72 3.67 54 6.395 54h2.78v-2.641H7.062c-1.14 0-1.53-.417-1.53-1.53v-7.423h3.476v-2.641H5.533v-3.976h-3.03v3.976H.027v2.641h2.474v7.73zm21.432 1.25c-.612 0-.917-.194-.917-.917v-5.7c0-3.364-2.17-5.171-5.95-5.171-3.587 0-5.978 1.724-6.284 4.504h2.947c.223-1.251 1.418-2.085 3.198-2.085 1.974 0 3.114.973 3.114 2.558v.862h-3.587c-3.976 0-6.089 1.64-6.089 4.56 0 2.64 2.169 4.17 5.283 4.17 2.307 0 3.753-1.001 4.699-2.447 0 1.418.667 2.28 2.613 2.28h1.585v-2.614h-.612zm-3.892-3.225c-.028 2.197-1.474 3.67-3.976 3.67-1.64 0-2.641-.834-2.641-2.03 0-1.445 1.028-2.14 2.891-2.14h3.726v.5zM24.708 54h3.308l3.754-5.171L35.495 54H39l-5.367-7.284 5.06-6.951h-3.308l-3.475 4.81-3.392-4.81h-3.503l5.032 6.95L24.708 54zm23.765-6.673v-2.474H39.02v2.474h9.453zm.998-4.92h2.474V54h3.03V42.406h3.81v-2.641H54.92v-1.196c0-.973.417-1.39 1.39-1.39h2.474v-2.641h-2.863c-2.753 0-3.976 1.334-3.976 3.892v1.335h-2.474v2.641zm18.068-2.642c-2.336 0-3.476.945-4.199 2.14l-.333-2.14h-2.67V54h3.003v-7.145c0-2.197.862-4.282 3.531-4.282h1.335v-2.808h-.667zm8.596 14.402c3.531 0 5.922-2.141 6.423-4.95h-3.003c-.417 1.586-1.752 2.503-3.587 2.503-2.363 0-3.892-1.585-3.975-4.003v-.195h10.732c.055-.39.083-.779.083-1.14-.083-4.17-2.836-6.784-6.95-6.784-4.199 0-7.007 2.92-7.007 7.312 0 4.365 2.808 7.257 7.284 7.257zm-4.031-8.842c.222-2.03 1.863-3.308 3.781-3.308 2.085 0 3.559 1.195 3.81 3.308h-7.591zm19.888 8.842c3.53 0 5.922-2.141 6.422-4.95h-3.002c-.418 1.586-1.752 2.503-3.587 2.503-2.363 0-3.892-1.585-3.976-4.003v-.195h10.732c.056-.39.084-.779.084-1.14-.084-4.17-2.836-6.784-6.951-6.784-4.198 0-7.007 2.92-7.007 7.312 0 4.365 2.809 7.257 7.285 7.257zm-4.032-8.842c.223-2.03 1.863-3.308 3.782-3.308 2.085 0 3.558 1.195 3.808 3.308h-7.59z" fill="url(#paint0_linear_1247_6724)"/><defs><linearGradient id="paint0_linear_1247_6724" x1="133" y1="20.5" x2="0" y2="20.5" gradientUnits="userSpaceOnUse"><stop stop-color="#FF4343"/><stop offset=".5" stop-color="#9C0B93"/><stop offset="1" stop-color="#4C1BB7"/></linearGradient></defs></svg>