<svg width="80" height="12" viewBox="0 0 80 12" fill="none" xmlns="http://www.w3.org/2000/svg"><rect width="80" height="12" rx="6" fill="#000"/><path d="M6.259 8.537c.967 0 1.677-.551 1.837-1.439h-.564c-.159.6-.618.949-1.28.949-.899 0-1.45-.704-1.45-1.69 0-.991.575-1.69 1.475-1.69.643 0 1.096.356 1.262.95h.563c-.16-.888-.851-1.44-1.8-1.44-1.243 0-2.045.882-2.045 2.18 0 1.31.772 2.18 2.002 2.18zm3.845 0c.912 0 1.549-.65 1.549-1.598 0-.949-.637-1.598-1.549-1.598-.912 0-1.549.649-1.549 1.598 0 .949.637 1.598 1.549 1.598zm0-.447c-.618 0-1.035-.484-1.035-1.151s.417-1.151 1.035-1.151c.618 0 1.035.484 1.035 1.15 0 .668-.417 1.152-1.035 1.152zm5.608-2.749c-.557 0-.894.257-1.084.594-.177-.398-.55-.594-.985-.594-.484 0-.747.239-.913.465l-.067-.428h-.434V8.5h.502V6.853c0-.624.312-1.053.826-1.053.477 0 .753.319.753.93V8.5h.502V6.829c0-.637.318-1.029.839-1.029.471 0 .74.319.74.93V8.5h.503V6.7c0-.986-.533-1.359-1.182-1.359zm3.399 0c-.527 0-.863.251-1.072.539l-.067-.502h-.435v4.346h.503V8.022c.19.3.544.515 1.07.515.864 0 1.5-.643 1.5-1.598 0-1.016-.636-1.598-1.5-1.598zm-.05 2.749c-.611 0-1.028-.478-1.028-1.163 0-.668.417-1.139 1.029-1.139.618 0 1.034.471 1.034 1.15 0 .68-.416 1.152-1.034 1.152zm2.123.41h.502V4.215h-.502V8.5zm2.629.037c.722 0 1.236-.46 1.359-1.084h-.508c-.104.404-.447.637-.888.637-.594 0-.967-.416-.986-1.01v-.043h2.425c.006-.074.012-.147.012-.214-.025-.925-.6-1.482-1.482-1.482-.881 0-1.481.649-1.481 1.598 0 .955.612 1.598 1.549 1.598zM22.82 6.62a.924.924 0 01.93-.84c.52 0 .888.3.937.84h-1.867zm3.175 1.065c0 .55.215.814.815.814h.545v-.46h-.496c-.27 0-.361-.097-.361-.36V5.837h.808v-.46h-.808v-.875h-.502v.876h-.564v.459h.564v1.849zm3.156.85c.722 0 1.236-.458 1.359-1.083h-.508c-.105.404-.447.637-.888.637-.594 0-.967-.416-.986-1.01v-.043h2.424c.007-.074.013-.147.013-.214-.025-.925-.6-1.482-1.482-1.482-.881 0-1.481.649-1.481 1.598 0 .955.612 1.598 1.549 1.598zm-.992-1.915a.924.924 0 01.93-.84c.52 0 .888.3.937.84H28.16zm5.487 1.897l-.153.38c-.117.294-.165.367-.453.367h-.447v.46h.6c.44 0 .557-.197.753-.699l1.439-3.648h-.533l-.93 2.491-.962-2.491h-.532l1.218 3.14zm3.414.019c.912 0 1.549-.65 1.549-1.598 0-.949-.637-1.598-1.549-1.598-.912 0-1.549.649-1.549 1.598 0 .949.637 1.598 1.55 1.598zm0-.447c-.618 0-1.034-.484-1.034-1.151s.416-1.151 1.034-1.151c.618 0 1.035.484 1.035 1.15 0 .668-.416 1.152-1.035 1.152zm4.31-1.151c0 .704-.343 1.139-.912 1.139-.52 0-.814-.343-.814-.992V5.378h-.502v1.738c0 1.035.545 1.42 1.23 1.42.515 0 .815-.22.998-.452l.068.416h.434V5.378h-.502v1.56zm2.631-1.561c-.557 0-.796.232-.942.471l-.068-.471h-.434V8.5h.502V6.908c0-.496.177-1.04.832-1.04h.251v-.49h-.14zm4.94 2.663c-.141 0-.202-.043-.202-.208V6.467c0-.728-.46-1.126-1.255-1.126-.753 0-1.25.361-1.323.973h.502c.061-.318.355-.526.796-.526.49 0 .778.245.778.649v.214h-.919c-.82 0-1.255.35-1.255.974 0 .569.465.912 1.151.912.539 0 .851-.239 1.047-.52.006.305.147.483.563.483h.276v-.46h-.16zm-.704-.814c0 .52-.362.881-.986.881-.416 0-.68-.208-.68-.514 0-.355.251-.52.698-.52h.968v.153zM51.06 5.34c-.526 0-.863.251-1.071.539l-.068-.502h-.434v4.346h.502V8.022c.19.3.545.515 1.071.515.863 0 1.5-.643 1.5-1.598 0-1.016-.637-1.598-1.5-1.598zm-.049 2.749c-.612 0-1.028-.478-1.028-1.163 0-.668.416-1.139 1.028-1.139.618 0 1.035.471 1.035 1.15 0 .68-.417 1.152-1.035 1.152zm3.696-2.749c-.526 0-.863.251-1.071.539l-.068-.502h-.434v4.346h.502V8.022c.19.3.544.515 1.071.515.863 0 1.5-.643 1.5-1.598 0-1.016-.637-1.598-1.5-1.598zm-.049 2.749c-.612 0-1.029-.478-1.029-1.163 0-.668.417-1.139 1.029-1.139.618 0 1.035.471 1.035 1.15 0 .68-.417 1.152-1.035 1.152zm2.123.41h.502V4.215h-.502V8.5zm1.446-3.649a.315.315 0 00.325-.324c0-.19-.141-.325-.325-.325a.315.315 0 00-.324.325c0 .19.14.324.324.324zM57.97 8.5h.502V5.378h-.502V8.5zm2.592.037c.759 0 1.267-.429 1.39-1.102h-.533c-.098.398-.404.655-.851.655-.6 0-1.004-.465-1.004-1.145 0-.68.404-1.157 1.004-1.157.46 0 .765.25.857.667h.527c-.129-.685-.613-1.114-1.378-1.114-.906 0-1.524.649-1.524 1.604 0 .973.6 1.592 1.512 1.592zm4.701-.496c-.14 0-.202-.043-.202-.208V6.467c0-.728-.46-1.126-1.255-1.126-.753 0-1.249.361-1.322.973h.502c.06-.318.355-.526.796-.526.49 0 .777.245.777.649v.214h-.918c-.82 0-1.255.35-1.255.974 0 .569.465.912 1.15.912.54 0 .852-.239 1.047-.52.007.305.147.483.564.483h.275v-.46h-.159zm-.704-.814c0 .52-.361.881-.986.881-.416 0-.68-.208-.68-.514 0-.355.252-.52.699-.52h.967v.153zm1.482.459c0 .55.214.814.814.814h.545v-.46h-.496c-.27 0-.361-.097-.361-.36V5.837h.808v-.46h-.808v-.875h-.502v.876h-.563v.459h.563v1.849zm2.051-2.835a.315.315 0 00.324-.324c0-.19-.14-.325-.324-.325a.315.315 0 00-.325.325c0 .19.141.324.325.324zM67.835 8.5h.502V5.378h-.502V8.5zm2.628.037c.912 0 1.55-.65 1.55-1.598 0-.949-.638-1.598-1.55-1.598s-1.549.649-1.549 1.598c0 .949.637 1.598 1.55 1.598zm0-.447c-.618 0-1.034-.484-1.034-1.151s.416-1.151 1.034-1.151c.619 0 1.035.484 1.035 1.15 0 .668-.416 1.152-1.035 1.152zm3.655-2.749c-.526 0-.845.22-1.028.46l-.068-.423h-.434V8.5h.502V6.939c0-.704.355-1.139.943-1.139.544 0 .844.343.844.992V8.5h.502V6.761c0-1.034-.557-1.42-1.26-1.42z" fill="#fff"/></svg>