<svg width="121" height="18" viewBox="0 0 121 18" fill="none" xmlns="http://www.w3.org/2000/svg"><path d="M4.44 4.664a5.85 5.85 0 011.83-1.321 5.233 5.233 0 012.22-.48c.866 0 1.563.112 2.09.34a5.932 5.932 0 011.53.98c.24.187.486.271.741.252.253-.02.47-.113.65-.281a.825.825 0 00.27-.632c0-.12-.01-.223-.03-.311a.739.739 0 00-.121-.26 1.1 1.1 0 00-.25-.25c-.748-.615-1.49-1.056-2.231-1.322-.738-.268-1.621-.402-2.65-.402a7.422 7.422 0 00-3.04.62A7.701 7.701 0 003 3.31a7.955 7.955 0 00-1.64 2.545 8.258 8.258 0 00-.59 3.135c0 1.135.197 2.19.59 3.166.393.975.939 1.827 1.64 2.553.7.729 1.52 1.295 2.46 1.702.939.409 1.95.612 3.03.612.908 0 1.771-.147 2.592-.441a8.06 8.06 0 002.31-1.302 1.032 1.032 0 00.32-.742c0-.294-.08-.523-.24-.691a.906.906 0 00-.59-.282c-.233-.019-.47.057-.71.232a7.454 7.454 0 01-1.751.97c-.607.234-1.25.35-1.93.35a5.319 5.319 0 01-2.22-.47 5.747 5.747 0 01-1.83-1.313 6.091 6.091 0 01-1.231-1.952 6.442 6.442 0 01-.44-2.394c0-.841.146-1.632.44-2.374.293-.74.704-1.39 1.23-1.95zM17.793 1.179c-.294 0-.54.097-.74.29-.201.194-.3.442-.3.75v13.56c0 .295.099.541.3.742.2.2.446.3.74.3.307 0 .557-.099.75-.3.194-.2.288-.447.288-.741V2.219c0-.307-.097-.558-.289-.75-.192-.193-.442-.29-.749-.29zM32.615 1.179h-10.7a.94.94 0 00-.691.27.94.94 0 00-.27.692c0 .28.09.51.27.692.179.179.41.27.69.27h4.32v12.679c0 .294.1.54.301.741.2.2.447.301.74.301.294 0 .54-.1.741-.3.2-.202.3-.448.3-.742V3.1h4.301c.28 0 .51-.091.69-.27a.94.94 0 00.27-.692c0-.282-.09-.51-.27-.692a.943.943 0 00-.692-.268zM48.575 1.43a.8.8 0 00-.6-.251c-.215 0-.394.043-.54.13-.147.086-.275.209-.38.369l-4.761 7.52-4.681-7.438a1.643 1.643 0 00-.38-.43c-.134-.1-.313-.15-.54-.15-.252 0-.477.079-.669.232a.924.924 0 00-.35.601c-.04.247.026.51.201.791l5.34 8.314v4.668c0 .294.099.54.3.742.2.199.44.3.72.3.294 0 .54-.1.741-.3.2-.201.3-.448.3-.742v-4.672l5.38-8.314c.16-.253.227-.504.201-.75a1.054 1.054 0 00-.282-.62zM59.158 1.179c-.294 0-.54.097-.74.29-.201.194-.3.442-.3.75v13.56c0 .295.099.541.3.742.2.2.446.3.74.3.307 0 .557-.099.75-.3.194-.2.288-.447.288-.741V2.219c0-.307-.097-.558-.289-.75-.192-.193-.442-.29-.749-.29zM74.915 1.179c-.294 0-.54.097-.74.29-.202.194-.301.443-.301.75v10.957L65.154 1.56a1.005 1.005 0 00-.801-.38.99.99 0 00-.73.29c-.194.194-.29.443-.29.75v13.56c0 .295.098.541.29.742.192.2.436.3.73.3.306 0 .557-.099.749-.3.192-.2.29-.447.29-.741V4.843l8.72 11.618c.092.119.215.21.369.27.153.06.296.09.43.09.306 0 .552-.099.74-.3.186-.2.28-.447.28-.741V2.219c0-.307-.092-.558-.28-.75-.181-.193-.43-.29-.736-.29z" fill="#fff"/><path fill-rule="evenodd" clip-rule="evenodd" d="M89.216 3.371a7.2 7.2 0 00-2.45-1.622c-.94-.38-1.985-.57-3.131-.57h-3.62c-.294 0-.54.097-.741.29-.201.194-.3.442-.3.75v13.56c0 .295.099.541.3.742.2.2.447.3.74.3h3.621c1.146 0 2.19-.19 3.13-.57a7.222 7.222 0 002.451-1.622 7.232 7.232 0 001.6-2.484c.373-.954.56-2.006.56-3.155 0-1.148-.187-2.196-.56-3.143a7.256 7.256 0 00-1.6-2.476zm-.58 8.713a5.512 5.512 0 01-2.03 2.124c-.86.514-1.85.772-2.971.772h-2.58V3.02h2.58c1.12 0 2.11.254 2.97.762a5.445 5.445 0 012.03 2.104c.493.895.74 1.928.74 3.104 0 1.162-.245 2.193-.74 3.095z" fill="#fff"/><path d="M104.245 3.1c.307 0 .553-.086.741-.261a.888.888 0 00.281-.681c0-.294-.093-.532-.281-.712-.186-.179-.434-.27-.741-.27h-9.042c-.293 0-.54.098-.74.29-.201.195-.3.443-.3.75v13.561c0 .294.099.54.3.742.2.199.447.3.74.3h9.042c.307 0 .553-.09.741-.27.186-.18.281-.417.281-.711a.881.881 0 00-.281-.681c-.186-.173-.434-.262-.741-.262h-8.001V9.892h5.741c.306 0 .553-.09.74-.27a.922.922 0 00.281-.692.918.918 0 00-.281-.692c-.185-.18-.434-.27-.74-.27h-5.741V3.1h8.001zM115.526 8.908l4.56-6.089c.16-.24.233-.486.22-.741a.986.986 0 00-.259-.64c-.16-.173-.38-.262-.661-.262-.306 0-.552.1-.74.3l-4.482 5.973-4.299-5.97c-.147-.201-.393-.3-.74-.3-.281 0-.503.092-.67.28a1.15 1.15 0 00-.289.662.97.97 0 00.201.7l4.393 6.104-4.654 6.214c-.16.215-.24.45-.24.712 0 .26.08.489.24.68.159.196.392.29.699.29.281 0 .52-.099.721-.3l4.592-6.119 4.351 6.04a.961.961 0 00.35.289c.127.06.276.09.451.09.294 0 .522-.092.691-.28a1.07 1.07 0 00.27-.681 1.087 1.087 0 00-.221-.723l-4.484-6.229z" fill="#fff"/></svg>