<svg width="165" height="115" viewBox="0 0 165 115" fill="none" xmlns="http://www.w3.org/2000/svg"><path d="M5.384 82.201c2.723 0 4.317-1.692 4.317-4.292 0-2.612-1.594-4.292-4.317-4.292H2.883v8.584h2.501zm-1.839-7.97h1.84c2.342 0 3.641 1.422 3.641 3.678 0 2.244-1.3 3.679-3.642 3.679H3.545V74.23zm7.796.44a.432.432 0 00.442-.44.432.432 0 00-.442-.442.432.432 0 00-.441.441c0 .258.196.442.441.442zm-.318 7.53h.625v-6.217h-.625V82.2zm1.813-1.913c.05 1.288 1.092 1.987 2.649 1.987 1.337 0 2.416-.675 2.416-1.779 0-1.312-1.153-1.57-2.49-1.753-.968-.135-1.827-.245-1.827-1.116 0-.711.7-1.177 1.754-1.177.993 0 1.704.478 1.815 1.287h.637c-.11-1.214-1.103-1.827-2.452-1.827-1.386-.012-2.38.7-2.38 1.766 0 1.25 1.153 1.484 2.429 1.656 1.042.147 1.888.282 1.888 1.201 0 .736-.772 1.202-1.79 1.202-1.19 0-1.962-.552-2.011-1.447h-.638zm8.968 1.987c1.41 0 2.403-.81 2.649-2.073h-.662c-.209.92-.957 1.508-1.987 1.508-1.361 0-2.305-1.066-2.305-2.611 0-1.546.931-2.637 2.305-2.637 1.042 0 1.778.589 1.999 1.52h.65c-.258-1.287-1.227-2.072-2.637-2.072-1.753 0-2.955 1.3-2.955 3.189 0 1.912 1.19 3.175 2.943 3.175zm6.611 0c1.754 0 2.992-1.3 2.992-3.189 0-1.876-1.238-3.176-2.992-3.176-1.753 0-2.98 1.3-2.98 3.176 0 1.889 1.227 3.189 2.98 3.189zm0-.565c-1.386 0-2.342-1.079-2.342-2.624 0-1.533.956-2.624 2.342-2.624 1.386 0 2.342 1.091 2.342 2.624 0 1.545-.956 2.624-2.342 2.624zm5.774.491h.748l2.428-6.217h-.65l-2.134 5.494-2.146-5.494h-.674l2.428 6.217zm6.513.074c1.36 0 2.403-.883 2.673-2.134h-.638c-.245.969-1.067 1.57-2.084 1.57-1.386 0-2.257-1.055-2.281-2.502v-.11h5.077c0-.086.012-.184.012-.258-.062-1.852-1.202-2.93-2.87-2.93-1.704 0-2.87 1.3-2.87 3.138 0 1.95 1.215 3.225 2.98 3.225zM38.42 78.57c.098-1.263 1.042-2.109 2.183-2.109 1.214 0 2.084.748 2.182 2.11h-4.365zm8.814-2.587c-1.152 0-1.643.552-1.9 1.238l-.099-1.238h-.54V82.2h.626V79.05c0-1.264.331-2.465 1.79-2.465h.454v-.601h-.33zm10.032 5.64c-.368 0-.552-.122-.552-.6V78.13c0-1.423-.87-2.22-2.428-2.22-1.422 0-2.366.687-2.526 1.815h.626c.16-.76.821-1.263 1.876-1.263 1.165 0 1.827.613 1.827 1.643v.54h-2.11c-1.593 0-2.452.687-2.452 1.852 0 1.103.871 1.778 2.195 1.778 1.263 0 2.011-.577 2.392-1.35v.221c-.025.736.282 1.055 1.017 1.055h.368v-.576h-.233zm-1.177-1.937c0 1.19-.846 2.048-2.318 2.048-.993 0-1.606-.503-1.606-1.275 0-.822.613-1.276 1.766-1.276h2.158v.503zm8.556-3.777c-1.165 0-1.986.638-2.379 1.52v-3.813h-.625v8.584h.54l.097-1.41c.368.895 1.202 1.484 2.367 1.484 1.705 0 2.93-1.3 2.93-3.189 0-1.95-1.225-3.176-2.93-3.176zm-.049 5.8c-1.386 0-2.342-1.079-2.342-2.636 0-1.52.956-2.612 2.342-2.612 1.386 0 2.342 1.091 2.342 2.624 0 1.545-.956 2.624-2.342 2.624zm6.965.565c1.36 0 2.403-.883 2.673-2.134h-.638c-.245.969-1.066 1.57-2.084 1.57-1.386 0-2.257-1.055-2.281-2.502v-.11h5.077c0-.086.012-.184.012-.258-.061-1.852-1.202-2.93-2.87-2.93-1.704 0-2.87 1.3-2.87 3.138 0 1.95 1.215 3.225 2.98 3.225zM69.28 78.57c.098-1.263 1.042-2.109 2.183-2.109 1.214 0 2.084.748 2.182 2.11h-4.365zm11.44 3.054c-.625 0-.858-.246-.858-.883V76.56h1.656v-.576h-1.656v-1.741h-.625v1.74h-2.686v-1.74h-.625v1.74H74.75v.577h1.177v4.194c0 .993.405 1.447 1.46 1.447h.772v-.576h-.748c-.626 0-.859-.246-.859-.883V76.56h2.686v4.194c0 .993.392 1.447 1.447 1.447h.944v-.576h-.907zm4.433.65c1.36 0 2.403-.883 2.673-2.134h-.638c-.245.969-1.067 1.57-2.084 1.57-1.386 0-2.257-1.055-2.281-2.502v-.11H87.9c0-.086.013-.184.013-.258-.062-1.852-1.202-2.93-2.87-2.93-1.704 0-2.87 1.3-2.87 3.138 0 1.95 1.215 3.225 2.98 3.225zm-2.281-3.704c.098-1.263 1.042-2.109 2.182-2.109 1.214 0 2.085.748 2.183 2.11h-4.365zm8.814-2.587c-1.153 0-1.643.552-1.9 1.238l-.099-1.238h-.54V82.2h.626V79.05c0-1.264.331-2.465 1.79-2.465h.454v-.601h-.33zm6.071 6.217h.675l1.839-5.224 1.754 5.224h.674l2.208-6.217h-.638l-1.913 5.469-1.778-5.47h-.577l-1.876 5.47-1.815-5.47h-.662l2.11 6.218zm13.29-.576c-.368 0-.552-.123-.552-.601V78.13c0-1.423-.871-2.22-2.428-2.22-1.422 0-2.367.687-2.526 1.815h.625c.16-.76.822-1.263 1.877-1.263 1.165 0 1.827.613 1.827 1.643v.54h-2.109c-1.595 0-2.453.687-2.453 1.852 0 1.103.871 1.778 2.195 1.778 1.263 0 2.011-.577 2.391-1.35v.221c-.024.736.282 1.055 1.018 1.055h.368v-.576h-.233zm-1.177-1.938c0 1.19-.846 2.048-2.318 2.048-.993 0-1.606-.503-1.606-1.275 0-.822.613-1.276 1.765-1.276h2.159v.503zm3.907 2.514l-.405 1.006c-.282.686-.392.87-1.03.87h-.785v.576h.957c.833 0 1.03-.318 1.422-1.3l2.98-7.37h-.675l-2.121 5.409-2.158-5.408h-.675l2.49 6.217zm7.751-1.447c0 .993.404 1.447 1.459 1.447h.907v-.576h-.858c-.65 0-.883-.246-.883-.883V76.56h1.68v-.576h-1.68v-1.741h-.625v1.74h-1.177v.577h1.177v4.194zm5.873 1.52c1.754 0 2.992-1.3 2.992-3.188 0-1.876-1.238-3.176-2.992-3.176-1.753 0-2.98 1.3-2.98 3.176 0 1.889 1.227 3.189 2.98 3.189zm0-.564c-1.386 0-2.342-1.079-2.342-2.624 0-1.533.956-2.624 2.342-2.624 1.386 0 2.342 1.091 2.342 2.624 0 1.545-.956 2.624-2.342 2.624zM3.202 95.754c0 .993.404 1.447 1.459 1.447h.907v-.576H4.71c-.65 0-.883-.246-.883-.883V91.56h1.68v-.576h-1.68v-1.741h-.625v1.74H2.025v.577h1.177v4.194zm5.856-4.77c-1.152 0-1.643.552-1.9 1.238l-.099-1.238h-.54V97.2h.626V94.05c0-1.264.331-2.465 1.79-2.465h.454v-.601h-.33zm6.464 5.64c-.368 0-.552-.122-.552-.6V93.13c0-1.423-.87-2.22-2.428-2.22-1.422 0-2.367.687-2.526 1.815h.625c.16-.76.822-1.263 1.876-1.263 1.165 0 1.828.613 1.828 1.643v.54h-2.11c-1.594 0-2.452.687-2.452 1.852 0 1.103.87 1.778 2.195 1.778 1.263 0 2.01-.577 2.391-1.35v.221c-.024.736.282 1.055 1.018 1.055h.368v-.576h-.233zm-1.178-1.937c0 1.19-.846 2.048-2.317 2.048-.993 0-1.606-.503-1.606-1.275 0-.822.613-1.276 1.765-1.276h2.159v.503zm7.228-2.305c-.38-.883-1.214-1.472-2.379-1.472-1.705 0-2.93 1.3-2.93 3.176 0 1.962 1.225 3.189 2.93 3.189 1.165 0 1.974-.626 2.367-1.497l.098 1.423h.54v-8.584h-.626v3.765zm-2.33 4.328c-1.386 0-2.342-1.079-2.342-2.624 0-1.533.956-2.624 2.342-2.624 1.386 0 2.342 1.091 2.342 2.636 0 1.533-.956 2.612-2.342 2.612zm7.173.565c1.361 0 2.404-.883 2.674-2.134h-.638c-.245.969-1.067 1.57-2.085 1.57-1.386 0-2.256-1.055-2.28-2.502v-.11h5.076c0-.086.012-.184.012-.258-.061-1.852-1.201-2.93-2.87-2.93-1.704 0-2.869 1.3-2.869 3.138 0 1.95 1.214 3.225 2.98 3.225zm-2.28-3.704c.098-1.263 1.042-2.109 2.182-2.109 1.214 0 2.085.748 2.183 2.11h-4.366zm9.728 3.63h.662v-3.96h3.703v-.614h-3.703V89.23h4.439v-.613h-5.101v8.584zm5.317 0l1.03-2.624h3.949l1.03 2.624h.71l-3.31-8.584h-.773l-3.323 8.584h.687zm3.004-7.848l1.779 4.61h-3.557l1.778-4.61zM47.12 97.2l1.03-2.624h3.948l1.03 2.624h.712l-3.311-8.584h-.773l-3.323 8.584h.687zm3.004-7.848l1.778 4.61h-3.556l1.778-4.61zm5.453 7.848v-7.382l5.077 7.382h.625v-8.584h-.65V96l-5.076-7.382h-.626v8.584h.65zm11.038.074c1.717 0 2.734-.945 3.102-1.975l.037 1.901h.576v-4.476h-3.458v.613h2.82v.368c0 1.68-1.164 2.955-3.065 2.955-1.925 0-3.2-1.545-3.2-3.752 0-2.195 1.275-3.752 3.261-3.752 1.447 0 2.453.748 2.808 2.097h.712c-.356-1.717-1.692-2.71-3.495-2.71-2.428 0-3.973 1.79-3.973 4.365 0 2.587 1.582 4.365 3.875 4.365zm8.373-1.987c.049 1.288 1.09 1.987 2.648 1.987 1.337 0 2.416-.675 2.416-1.779 0-1.312-1.153-1.57-2.49-1.753-.968-.135-1.826-.245-1.826-1.116 0-.711.698-1.177 1.753-1.177.993 0 1.705.478 1.815 1.287h.638c-.11-1.214-1.104-1.827-2.453-1.827-1.386-.012-2.379.7-2.379 1.766 0 1.25 1.153 1.484 2.428 1.656 1.043.147 1.889.282 1.889 1.201 0 .736-.773 1.202-1.79 1.202-1.19 0-1.963-.552-2.012-1.447h-.638zm9.127-4.378c-1.165 0-1.889.65-2.244 1.545v-3.838h-.626v8.584h.626v-3.066c0-1.618.821-2.648 2.145-2.648 1.19 0 1.926.784 1.926 2.256V97.2h.625v-3.483c0-1.962-1.042-2.808-2.452-2.808zm9.317 5.715c-.368 0-.551-.123-.551-.601V93.13c0-1.423-.871-2.22-2.428-2.22-1.423 0-2.367.687-2.526 1.815h.625c.16-.76.822-1.263 1.876-1.263 1.165 0 1.827.613 1.827 1.643v.54h-2.109c-1.594 0-2.453.687-2.453 1.852 0 1.103.871 1.778 2.195 1.778 1.264 0 2.012-.577 2.392-1.35v.221c-.025.736.282 1.055 1.017 1.055h.368v-.576h-.233zm-1.177-1.938c0 1.19-.846 2.048-2.317 2.048-.994 0-1.607-.503-1.607-1.275 0-.822.613-1.276 1.766-1.276h2.158v.503zm4.785-3.703c-1.153 0-1.643.552-1.9 1.238l-.099-1.238h-.54V97.2h.626V94.05c0-1.264.331-2.465 1.79-2.465h.454v-.601h-.33zm3.562 6.29c1.361 0 2.403-.882 2.673-2.133h-.638c-.245.969-1.067 1.57-2.084 1.57-1.386 0-2.257-1.055-2.281-2.502v-.11h5.076c0-.086.013-.184.013-.258-.062-1.852-1.202-2.93-2.87-2.93-1.704 0-2.87 1.3-2.87 3.138 0 1.95 1.215 3.225 2.981 3.225zm-2.281-3.703c.098-1.263 1.042-2.109 2.183-2.109 1.214 0 2.084.748 2.182 2.11h-4.365zm5.982 1.717c.049 1.288 1.091 1.987 2.649 1.987 1.336 0 2.415-.675 2.415-1.779 0-1.312-1.152-1.57-2.489-1.753-.969-.135-1.827-.245-1.827-1.116 0-.711.699-1.177 1.753-1.177.994 0 1.705.478 1.815 1.287h.638c-.11-1.214-1.104-1.827-2.453-1.827-1.385-.012-2.379.7-2.379 1.766 0 1.25 1.153 1.484 2.428 1.656 1.043.147 1.889.282 1.889 1.201 0 .736-.773 1.202-1.79 1.202-1.19 0-1.962-.552-2.012-1.447h-.637zm11.071 1.913h.674l1.84-5.224 1.753 5.224h.675l2.207-6.217h-.638l-1.913 5.469-1.778-5.47h-.576l-1.876 5.47-1.815-5.47h-.662l2.109 6.218zm8.343-7.53a.432.432 0 00.441-.44.432.432 0 00-.441-.442.432.432 0 00-.442.441c0 .258.196.442.442.442zm-.319 7.53h.625v-6.217h-.625V97.2zm2.562-1.447c0 .993.404 1.447 1.459 1.447h.907v-.576h-.858c-.65 0-.883-.246-.883-.883V91.56h1.68v-.576h-1.68v-1.741h-.625v1.74h-1.178v.577h1.178v4.194zm6.187-4.844c-1.165 0-1.888.65-2.244 1.545v-3.838h-.625v8.584h.625v-3.066c0-1.618.822-2.648 2.146-2.648 1.19 0 1.925.784 1.925 2.256V97.2h.626v-3.483c0-1.962-1.043-2.808-2.453-2.808zM6.513 112.275c1.839 0 3.139-.994 3.507-2.723h-.7c-.367 1.374-1.36 2.109-2.82 2.109-1.986 0-3.237-1.557-3.237-3.752s1.275-3.752 3.262-3.752c1.435 0 2.44.748 2.82 2.097h.7c-.38-1.717-1.68-2.71-3.483-2.71-2.416 0-3.986 1.79-3.986 4.365 0 2.6 1.533 4.366 3.937 4.366zm5.104-7.603a.432.432 0 00.441-.442.432.432 0 00-.441-.441.432.432 0 00-.442.441c0 .258.197.442.442.442zm-.319 7.529h.625v-6.217h-.625v6.217zm2.562-1.447c0 .993.404 1.447 1.459 1.447h.907v-.576h-.858c-.65 0-.883-.246-.883-.883v-4.182h1.68v-.576h-1.68v-1.741h-.625v1.741h-1.178v.576h1.178v4.194zm5.182 1.447l-.405 1.006c-.282.686-.392.87-1.03.87h-.785v.576h.957c.834 0 1.03-.318 1.422-1.299l2.98-7.37h-.674l-2.122 5.408-2.158-5.408h-.675l2.49 6.217zm7.432 0h.662v-8.584h-.662v8.584zm5.153-6.291c-1.14 0-1.876.589-2.232 1.398l-.098-1.324h-.54v6.217h.626v-3.066c0-1.618.822-2.648 2.146-2.648 1.202 0 1.926.784 1.926 2.256v3.458h.625v-3.483c0-1.962-1.042-2.808-2.453-2.808zm8.818 1.472c-.38-.883-1.214-1.472-2.379-1.472-1.705 0-2.93 1.3-2.93 3.176 0 1.962 1.225 3.189 2.93 3.189 1.165 0 1.974-.626 2.367-1.496l.098 1.422h.54v-8.584h-.626v3.765zm-2.33 4.328c-1.386 0-2.342-1.079-2.342-2.624 0-1.533.956-2.624 2.342-2.624 1.386 0 2.342 1.091 2.342 2.637 0 1.532-.956 2.611-2.342 2.611zm7.173.565c1.361 0 2.404-.883 2.673-2.134h-.637c-.245.969-1.067 1.569-2.085 1.569-1.386 0-2.256-1.054-2.28-2.501v-.11h5.076c0-.086.012-.184.012-.258-.061-1.852-1.201-2.931-2.87-2.931-1.704 0-2.869 1.3-2.869 3.139 0 1.95 1.214 3.226 2.98 3.226zm-2.28-3.704c.097-1.263 1.042-2.109 2.182-2.109 1.214 0 2.085.748 2.183 2.109h-4.366zm5.398 3.63h.723l2.06-2.735 2.06 2.735h.76l-2.415-3.176 2.293-3.041h-.711l-1.962 2.575-1.938-2.575h-.748l2.293 3.041-2.415 3.176zm6.312-.405c0 .282.197.466.466.466.27 0 .466-.184.466-.466 0-.282-.196-.453-.466-.453s-.466.171-.466.453zM3.73 13l.887-2.358h3.91l.9 2.358h1.676L7.546 3.46H5.68L2.11 13h1.622zm2.835-7.85l1.527 4.157h-3.04L6.566 5.15zM11.932 13h1.471V3.46h-1.471V13zm2.914 0h1.472V3.46h-1.472V13zm6.906-1.894c0 1.267.572 1.894 1.908 1.894h1.362v-1.295h-1.035c-.56 0-.75-.204-.75-.75V7.318h1.704V6.023h-1.704v-1.95h-1.485v1.95h-1.213v1.294h1.213v3.789zm7.872-5.165c-1.09 0-1.758.49-2.194 1.09v-3.57H25.96V13h1.471V9.47c0-1.403.709-2.262 1.867-2.262 1.09 0 1.677.709 1.677 2.03V13h1.471V9.116c0-2.33-1.267-3.175-2.82-3.175zm7.418 7.14c1.73 0 2.903-1.049 3.148-2.425h-1.472c-.204.777-.858 1.226-1.758 1.226-1.158 0-1.907-.776-1.948-1.962v-.095h5.26c.027-.191.04-.382.04-.559-.04-2.044-1.39-3.325-3.406-3.325-2.058 0-3.434 1.43-3.434 3.584 0 2.14 1.376 3.557 3.57 3.557zm-1.976-4.333c.11-.995.913-1.622 1.853-1.622 1.023 0 1.745.586 1.867 1.622h-3.72zm13.657-2.807c-1.076 0-1.798.49-2.262 1.117V3.461H44.99V13h1.28l.178-1.008c.436.626 1.185 1.09 2.275 1.09 1.908 0 3.298-1.431 3.298-3.57 0-2.25-1.39-3.571-3.298-3.571zm-.245 5.9c-1.226 0-2.03-.967-2.03-2.343 0-1.35.804-2.303 2.03-2.303 1.227 0 2.044.954 2.044 2.316 0 1.377-.817 2.33-2.044 2.33zm5.472-6.8c.504 0 .9-.368.9-.885 0-.518-.396-.886-.9-.886s-.9.368-.9.886c0 .517.396.885.9.885zM53.2 13h1.472V6.023h-1.471V13zm8.244-5.887c-.45-.695-1.2-1.172-2.29-1.172-1.894 0-3.298 1.404-3.298 3.543 0 2.221 1.404 3.543 3.298 3.543 1.09 0 1.813-.45 2.276-1.144v.776c0 1.336-.722 1.95-2.003 1.95-1.036 0-1.717-.45-1.895-1.227h-1.499c.137 1.567 1.431 2.425 3.285 2.425 2.507 0 3.57-1.199 3.57-3.093V6.023h-1.28l-.164 1.09zM59.4 11.787c-1.227 0-2.031-.94-2.031-2.303 0-1.35.804-2.303 2.03-2.303 1.227 0 2.031.954 2.031 2.33 0 1.336-.804 2.276-2.03 2.276zm8.917-.681c0 1.267.573 1.894 1.908 1.894h1.363v-1.295h-1.036c-.558 0-.75-.204-.75-.75V7.318h1.704V6.023h-1.703v-1.95h-1.486v1.95h-1.212v1.294h1.212v3.789zm7.373 1.976c1.73 0 2.902-1.05 3.148-2.426h-1.472c-.205.777-.859 1.226-1.758 1.226-1.159 0-1.908-.776-1.949-1.962v-.095h5.26c.028-.191.041-.382.041-.559-.04-2.044-1.39-3.325-3.407-3.325-2.058 0-3.434 1.43-3.434 3.584 0 2.14 1.376 3.557 3.57 3.557zm-1.977-4.334c.11-.995.913-1.622 1.854-1.622 1.022 0 1.744.586 1.867 1.622h-3.72zm9.64 4.334c1.785 0 2.97-.995 3.243-2.576h-1.554c-.177.804-.776 1.322-1.676 1.322-1.186 0-1.962-.94-1.962-2.303 0-1.376.776-2.33 1.962-2.33.913 0 1.5.504 1.69 1.321h1.54c-.286-1.58-1.404-2.575-3.203-2.575-2.112 0-3.502 1.43-3.502 3.584 0 2.18 1.35 3.557 3.462 3.557zm8.035-7.141c-1.09 0-1.758.49-2.194 1.09v-3.57h-1.472V13h1.472V9.47c0-1.403.709-2.262 1.867-2.262 1.09 0 1.676.709 1.676 2.03V13h1.472V9.116c0-2.33-1.267-3.175-2.82-3.175zm7.347 4.756c.04 1.513 1.322 2.385 3.189 2.385 1.689 0 2.957-.845 2.957-2.18 0-1.554-1.295-1.881-2.889-2.072-1.009-.11-1.676-.19-1.676-.845 0-.559.572-.913 1.444-.913s1.472.45 1.554 1.09h1.444c-.095-1.43-1.308-2.221-3.025-2.221-1.676-.014-2.862.845-2.862 2.167 0 1.444 1.254 1.785 2.848 1.976 1.077.136 1.717.19 1.717.94 0 .559-.599.913-1.512.913-1.063 0-1.69-.518-1.745-1.24h-1.444zm10.952-4.756c-1.09 0-1.758.49-2.194 1.09v-3.57h-1.472V13h1.472V9.47c0-1.403.709-2.262 1.867-2.262 1.09 0 1.676.709 1.676 2.03V13h1.472V9.116c0-2.33-1.267-3.175-2.821-3.175zm10.537 5.778c-.299 0-.449-.095-.449-.45V8.476c0-1.65-1.063-2.535-2.917-2.535-1.758 0-2.93.845-3.079 2.208h1.444c.109-.614.695-1.023 1.567-1.023.968 0 1.527.477 1.527 1.254v.423h-1.758c-1.949 0-2.985.804-2.985 2.235 0 1.294 1.063 2.044 2.589 2.044 1.131 0 1.84-.49 2.303-1.2 0 .696.328 1.118 1.281 1.118h.777v-1.281h-.3zm-1.907-1.58c-.014 1.076-.723 1.798-1.949 1.798-.804 0-1.295-.409-1.295-.995 0-.708.504-1.05 1.417-1.05h1.827v.246zm6.538-4.116c-1.144 0-1.703.463-2.057 1.049l-.164-1.05h-1.308V13h1.472V9.498c0-1.077.422-2.099 1.73-2.099h.655V6.023h-.328zm4.214 7.059c1.731 0 2.903-1.05 3.148-2.426h-1.472c-.204.777-.858 1.226-1.758 1.226-1.158 0-1.908-.776-1.948-1.962v-.095h5.26c.027-.191.041-.382.041-.559-.041-2.044-1.39-3.325-3.407-3.325-2.058 0-3.434 1.43-3.434 3.584 0 2.14 1.376 3.557 3.57 3.557zm-1.976-4.334c.109-.995.913-1.622 1.853-1.622 1.023 0 1.745.586 1.867 1.622h-3.72zm6.097 1.949c.041 1.513 1.322 2.385 3.189 2.385 1.69 0 2.957-.845 2.957-2.18 0-1.554-1.295-1.881-2.889-2.072-1.009-.11-1.676-.19-1.676-.845 0-.559.572-.913 1.444-.913s1.472.45 1.554 1.09h1.444c-.095-1.43-1.308-2.221-3.025-2.221-1.676-.014-2.862.845-2.862 2.167 0 1.444 1.254 1.785 2.848 1.976 1.077.136 1.717.19 1.717.94 0 .559-.599.913-1.512.913-1.063 0-1.69-.518-1.745-1.24h-1.444zm7.057 1.458c0 .545.395.927.94.927.546 0 .954-.382.954-.927s-.408-.927-.954-.927c-.545 0-.94.382-.94.927z" fill="#000"/><path d="M7.983 39.428c3.532 0 6.11-2.08 6.587-5.287h-2.579c-.476 1.928-1.928 3.098-4.03 3.098-2.86 0-4.593-2.297-4.593-5.525 0-3.25 1.776-5.525 4.658-5.525 2.059 0 3.489 1.191 3.987 3.098h2.579C14.093 26.08 11.602 24 8.135 24 3.649 24 .81 27.099.81 31.714c0 4.658 2.752 7.714 7.172 7.714zm13.653 0c3.38 0 5.656-2.276 5.656-5.677 0-3.38-2.275-5.677-5.656-5.677-3.38 0-5.655 2.296-5.655 5.677 0 3.401 2.275 5.677 5.655 5.677zm0-1.994c-1.971 0-3.25-1.538-3.25-3.683 0-2.146 1.279-3.684 3.25-3.684 1.972 0 3.272 1.538 3.272 3.684 0 2.145-1.3 3.683-3.272 3.683zm20.3-9.36c-1.82 0-3.077.801-3.792 2.015-.672-1.43-1.972-2.015-3.423-2.015-1.669.021-2.622.758-3.25 1.581l-.26-1.451h-2.037v11.093h2.34v-5.936c0-1.972.996-3.272 2.6-3.272 1.538 0 2.34 1.018 2.34 2.968v6.24h2.362v-6.002c0-1.993 1.018-3.206 2.621-3.206 1.517 0 2.319 1.018 2.319 2.968v6.24h2.34v-6.391c0-3.51-1.863-4.832-4.16-4.832zm19.044 0c-1.82 0-3.077.801-3.792 2.015-.672-1.43-1.972-2.015-3.424-2.015-1.668.021-2.621.758-3.25 1.581l-.26-1.451h-2.036v11.093h2.34v-5.936c0-1.972.996-3.272 2.6-3.272 1.538 0 2.34 1.018 2.34 2.968v6.24h2.362v-6.002c0-1.993 1.018-3.206 2.622-3.206 1.516 0 2.318 1.018 2.318 2.968v6.24h2.34v-6.391c0-3.51-1.863-4.832-4.16-4.832zm7.473-1.43c.802 0 1.43-.585 1.43-1.409 0-.823-.628-1.408-1.43-1.408-.801 0-1.43.585-1.43 1.408s.629 1.409 1.43 1.409zm-1.191 12.654h2.34V28.203h-2.34v11.093zm4.157-3.662c.065 2.405 2.102 3.792 5.07 3.792 2.687 0 4.702-1.344 4.702-3.467 0-2.47-2.058-2.99-4.593-3.294-1.604-.173-2.665-.303-2.665-1.343 0-.889.91-1.452 2.296-1.452 1.387 0 2.34.715 2.47 1.733h2.297c-.151-2.275-2.08-3.531-4.81-3.531-2.665-.022-4.55 1.343-4.55 3.445 0 2.297 1.993 2.838 4.528 3.142 1.712.216 2.73.303 2.73 1.495 0 .888-.953 1.451-2.405 1.451-1.69 0-2.687-.823-2.773-1.971h-2.297zm10.897 0c.065 2.405 2.102 3.792 5.07 3.792 2.688 0 4.703-1.344 4.703-3.467 0-2.47-2.059-2.99-4.594-3.294-1.603-.173-2.665-.303-2.665-1.343 0-.889.91-1.452 2.297-1.452 1.386 0 2.34.715 2.47 1.733h2.297c-.152-2.275-2.08-3.531-4.81-3.531-2.666-.022-4.55 1.343-4.55 3.445 0 2.297 1.992 2.838 4.528 3.142 1.711.216 2.73.303 2.73 1.495 0 .888-.954 1.451-2.405 1.451-1.69 0-2.687-.823-2.774-1.971h-2.297zm12.778-8.993c.802 0 1.43-.585 1.43-1.408s-.628-1.408-1.43-1.408c-.802 0-1.43.585-1.43 1.408s.628 1.409 1.43 1.409zm-1.192 12.654h2.34V28.204h-2.34v11.093zm9.878.13c3.38 0 5.655-2.275 5.655-5.676 0-3.38-2.275-5.677-5.655-5.677-3.38 0-5.656 2.296-5.656 5.677 0 3.401 2.276 5.677 5.656 5.677zm0-1.993c-1.972 0-3.25-1.538-3.25-3.683 0-2.146 1.278-3.684 3.25-3.684s3.272 1.538 3.272 3.684c0 2.145-1.3 3.683-3.272 3.683zm13.387-9.36c-1.798 0-2.86.715-3.553 1.581l-.26-1.451h-2.037v11.093h2.34v-5.59c0-2.253 1.105-3.618 2.969-3.618 1.755 0 2.643 1.126 2.643 3.228v5.98h2.362v-6.175c0-3.705-2.015-5.048-4.464-5.048zM.031 54.262h1.928v9.035h2.362v-9.035H7.29v-2.058H4.278v-.932c0-.758.325-1.084 1.083-1.084H7.29V48.13H5.058c-2.145 0-3.099 1.04-3.099 3.033v1.04H.031v2.059zm14.081-2.058c-1.82 0-2.708.736-3.272 1.668l-.26-1.668H8.5v11.093h2.34V57.73c0-1.712.672-3.337 2.752-3.337h1.04v-2.188h-.52zm6.7 11.224c2.752 0 4.615-1.669 5.005-3.857h-2.34c-.325 1.235-1.365 1.95-2.795 1.95-1.842 0-3.034-1.235-3.099-3.12v-.152h8.364c.043-.303.065-.607.065-.889-.065-3.25-2.21-5.286-5.417-5.286-3.272 0-5.46 2.275-5.46 5.698 0 3.402 2.188 5.656 5.677 5.656zm-3.142-6.89c.173-1.583 1.452-2.58 2.947-2.58 1.625 0 2.773.932 2.968 2.58H17.67zm15.5 6.89c2.751 0 4.614-1.669 5.005-3.857h-2.34c-.326 1.235-1.366 1.95-2.796 1.95-1.842 0-3.033-1.235-3.098-3.12v-.152h8.363c.044-.303.066-.607.066-.889-.066-3.25-2.21-5.286-5.417-5.286-3.272 0-5.46 2.275-5.46 5.698 0 3.402 2.188 5.656 5.676 5.656zm-3.143-6.89c.174-1.583 1.452-2.58 2.947-2.58 1.625 0 2.774.932 2.969 2.58h-5.916zm9.34 5.416c0 .867.629 1.474 1.496 1.474.866 0 1.516-.607 1.516-1.474s-.65-1.473-1.516-1.473c-.867 0-1.495.606-1.495 1.473zM49.26 50.34h4.68v12.957h2.492V50.34h4.68v-2.21H49.26v2.21zM71.18 61.26c-.477 0-.715-.15-.715-.714v-4.442c0-2.622-1.69-4.03-4.637-4.03-2.795 0-4.658 1.343-4.897 3.51h2.297c.173-.975 1.105-1.625 2.492-1.625 1.538 0 2.427.758 2.427 1.993v.672h-2.795c-3.099 0-4.746 1.278-4.746 3.553 0 2.059 1.69 3.25 4.117 3.25 1.798 0 2.925-.78 3.662-1.906 0 1.105.52 1.776 2.037 1.776h1.235v-2.036h-.477zm-3.033-2.513c-.022 1.712-1.149 2.86-3.099 2.86-1.278 0-2.058-.65-2.058-1.581 0-1.127.801-1.669 2.253-1.669h2.904v.39zm3.636 4.55h2.579l2.925-4.03 2.903 4.03h2.73l-4.181-5.676 3.943-5.417h-2.578l-2.709 3.748-2.643-3.748h-2.73l3.921 5.417-4.16 5.676zm16.696-9.035h1.928v9.035h2.362v-9.035h2.969v-2.058h-3.012v-.932c0-.758.325-1.084 1.083-1.084h1.929V48.13h-2.232c-2.145 0-3.099 1.04-3.099 3.033v1.04H88.48v2.059zm14.081-2.058c-1.82 0-2.708.736-3.272 1.668l-.26-1.668h-2.08v11.093h2.34V57.73c0-1.712.672-3.337 2.752-3.337h1.04v-2.188h-.52zm6.7 11.224c2.752 0 4.615-1.669 5.005-3.857h-2.34c-.325 1.235-1.365 1.95-2.795 1.95-1.842 0-3.034-1.235-3.099-3.12v-.152h8.364c.043-.303.065-.607.065-.889-.065-3.25-2.21-5.286-5.417-5.286-3.272 0-5.46 2.275-5.46 5.698 0 3.402 2.188 5.656 5.677 5.656zm-3.142-6.89c.173-1.583 1.452-2.58 2.947-2.58 1.625 0 2.773.932 2.968 2.58h-5.915zm15.499 6.89c2.752 0 4.616-1.669 5.006-3.857h-2.341c-.325 1.235-1.365 1.95-2.795 1.95-1.842 0-3.033-1.235-3.098-3.12v-.152h8.364c.043-.303.065-.607.065-.889-.065-3.25-2.211-5.286-5.417-5.286-3.272 0-5.461 2.275-5.461 5.698 0 3.402 2.189 5.656 5.677 5.656zm-3.142-6.89c.174-1.583 1.452-2.58 2.947-2.58 1.625 0 2.774.932 2.969 2.58h-5.916zm9.341 5.416c0 .867.628 1.474 1.495 1.474.866 0 1.516-.607 1.516-1.474s-.65-1.473-1.516-1.473c-.867 0-1.495.606-1.495 1.473z" fill="url(#paint0_linear_10_111)"/><defs><linearGradient id="paint0_linear_10_111" x1="164.009" y1="39.922" x2=".009" y2="39.922" gradientUnits="userSpaceOnUse"><stop stop-color="#FF4343"/><stop offset=".5" stop-color="#9C0B93"/><stop offset="1" stop-color="#4C1BB7"/></linearGradient></defs></svg>