<svg width="195" height="14" viewBox="0 0 195 14" fill="none" xmlns="http://www.w3.org/2000/svg"><path d="M2.448 12V5.14L7.164 12h1.452V2.32H7.053v6.859l-4.716-6.86H.885V12h1.563zm11.14.083c1.756 0 2.945-1.065 3.194-2.462H15.29c-.208.789-.871 1.245-1.784 1.245-1.176 0-1.936-.788-1.978-1.991v-.097h5.338c.028-.194.042-.387.042-.567-.042-2.075-1.41-3.375-3.458-3.375-2.088 0-3.485 1.452-3.485 3.637 0 2.172 1.397 3.61 3.624 3.61zm-2.006-4.398c.111-1.01.927-1.645 1.881-1.645 1.037 0 1.77.594 1.895 1.645h-3.776zM19.503 12h1.618l1.549-4.813L24.163 12h1.605l2.35-7.08h-1.52l-1.674 5.42-1.549-5.42h-1.369l-1.618 5.42-1.618-5.42h-1.576L19.503 12zm13.452-1.922c0 1.286.58 1.922 1.936 1.922h1.383v-1.314h-1.051c-.567 0-.76-.207-.76-.76V6.233h1.728V4.92h-1.729V2.942h-1.507v1.977h-1.23v1.314h1.23v3.845zm7.851-5.159c-1.162 0-1.729.47-2.088 1.065l-.166-1.065h-1.328V12h1.494V8.446c0-1.093.428-2.13 1.756-2.13h.664V4.92h-.332zm7.51 5.781c-.305 0-.457-.097-.457-.456V7.409c0-1.674-1.079-2.573-2.96-2.573-1.784 0-2.973.858-3.125 2.24h1.466c.11-.622.705-1.036 1.59-1.036.982 0 1.549.484 1.549 1.272v.429h-1.784c-1.978 0-3.029.815-3.029 2.268 0 1.313 1.08 2.074 2.628 2.074 1.148 0 1.867-.498 2.337-1.217 0 .705.332 1.134 1.3 1.134h.788v-1.3h-.304zm-1.937-1.604c-.014 1.092-.733 1.825-1.978 1.825-.816 0-1.313-.415-1.313-1.01 0-.718.511-1.064 1.438-1.064h1.853v.249zm8.38-3.195c-.457-.622-1.217-1.065-2.296-1.065-1.922 0-3.347 1.439-3.347 3.624 0 2.268 1.425 3.623 3.347 3.623 1.12 0 1.853-.526 2.31-1.148l.18 1.065h1.3V2.32h-1.494V5.9zm-2.047 4.924c-1.245 0-2.06-.969-2.06-2.365 0-1.383.815-2.351 2.06-2.351 1.244 0 2.06.968 2.06 2.378 0 1.37-.816 2.338-2.06 2.338zm8.36 1.258c1.757 0 2.946-1.065 3.195-2.462h-1.494c-.207.789-.871 1.245-1.784 1.245-1.175 0-1.936-.788-1.977-1.991v-.097h5.338c.028-.194.041-.387.041-.567-.041-2.075-1.41-3.375-3.457-3.375-2.088 0-3.485 1.452-3.485 3.637 0 2.172 1.397 3.61 3.623 3.61zm-2.005-4.398c.11-1.01.926-1.645 1.88-1.645 1.038 0 1.77.594 1.895 1.645h-3.775zM69.181 4.92c-1.162 0-1.73.47-2.089 1.065l-.166-1.065H65.6V12h1.493V8.446c0-1.093.43-2.13 1.757-2.13h.663V4.92h-.331zm8.58-.083c-1.092 0-1.825.498-2.295 1.134V2.32h-1.494V12h1.3l.18-1.023c.442.636 1.203 1.106 2.31 1.106 1.935 0 3.346-1.452 3.346-3.623 0-2.282-1.41-3.624-3.347-3.624zm-.249 5.989c-1.244 0-2.06-.982-2.06-2.38 0-1.368.816-2.336 2.06-2.336 1.245 0 2.075.968 2.075 2.35 0 1.397-.83 2.366-2.075 2.366zm8.14 1.258c2.157 0 3.609-1.452 3.609-3.623 0-2.158-1.452-3.624-3.61-3.624-2.157 0-3.609 1.466-3.609 3.624 0 2.17 1.452 3.623 3.61 3.623zm0-1.272c-1.259 0-2.075-.982-2.075-2.351 0-1.37.816-2.351 2.075-2.351 1.258 0 2.088.982 2.088 2.35 0 1.37-.83 2.352-2.088 2.352zm8.544-5.975c-1.148 0-1.826.457-2.268 1.01l-.166-.927h-1.3V12h1.493V8.432c0-1.438.706-2.31 1.895-2.31 1.12 0 1.687.72 1.687 2.061V12h1.508V8.059c0-2.365-1.286-3.223-2.85-3.223zm9.061 3.624c0 1.466-.691 2.323-1.825 2.323-1.093 0-1.646-.705-1.646-2.088V4.919h-1.494v3.942c0 2.42 1.287 3.222 2.794 3.222 1.092 0 1.742-.443 2.185-.982l.166.899h1.314V4.92h-1.494v3.54zm2.661 1.203c.042 1.535 1.342 2.42 3.236 2.42 1.715 0 3.001-.857 3.001-2.213 0-1.576-1.313-1.908-2.931-2.102-1.024-.11-1.701-.193-1.701-.857 0-.567.58-.927 1.465-.927.886 0 1.494.457 1.577 1.107h1.466c-.097-1.453-1.328-2.255-3.07-2.255-1.701-.013-2.904.858-2.904 2.2 0 1.465 1.272 1.81 2.89 2.005 1.093.138 1.743.193 1.743.954 0 .567-.609.926-1.536.926-1.078 0-1.714-.525-1.77-1.258h-1.466zm7.257-3.54c0 .553.401.94.954.94.553 0 .968-.387.968-.94 0-.554-.415-.94-.968-.94-.553 0-.954.386-.954.94zm0 5.02c0 .553.401.94.954.94.553 0 .968-.387.968-.94 0-.554-.415-.94-.968-.94-.553 0-.954.386-.954.94zm10.13.94c1.756 0 2.945-1.065 3.194-2.462h-1.493c-.208.789-.872 1.245-1.784 1.245-1.176 0-1.937-.788-1.978-1.991v-.097h5.338c.028-.194.042-.387.042-.567-.042-2.075-1.411-3.375-3.458-3.375-2.088 0-3.485 1.452-3.485 3.637 0 2.172 1.397 3.61 3.624 3.61zm-2.006-4.398c.111-1.01.927-1.645 1.881-1.645 1.037 0 1.77.594 1.895 1.645h-3.776zm13.004 3.015c-.304 0-.456-.097-.456-.456V7.409c0-1.674-1.079-2.573-2.96-2.573-1.784 0-2.973.858-3.125 2.24h1.466c.11-.622.705-1.036 1.59-1.036.982 0 1.549.484 1.549 1.272v.429h-1.784c-1.978 0-3.029.815-3.029 2.268 0 1.313 1.079 2.074 2.628 2.074 1.148 0 1.867-.498 2.337-1.217 0 .705.332 1.134 1.3 1.134h.788v-1.3h-.304zm-1.936-1.604c-.014 1.092-.733 1.825-1.978 1.825-.815 0-1.313-.415-1.313-1.01 0-.718.511-1.064 1.438-1.064h1.853v.249zm6.636-4.177c-1.162 0-1.729.47-2.088 1.065l-.166-1.065h-1.328V12h1.494V8.446c0-1.093.428-2.13 1.756-2.13h.664V4.92h-.332zm4.987-.083c-1.148 0-1.826.457-2.268 1.01l-.166-.927h-1.3V12h1.493V8.432c0-1.438.706-2.31 1.895-2.31 1.12 0 1.687.72 1.687 2.061V12h1.508V8.059c0-2.365-1.286-3.223-2.849-3.223zm11.853 1.59c-1.522-.262-2.517-.47-2.517-1.465 0-.913.76-1.383 1.853-1.383 1.175 0 1.95.664 2.074 1.646h1.591c-.056-1.563-1.121-2.67-2.863-2.932V.826h-1.341v1.438c-1.757.18-2.905 1.272-2.905 2.807 0 1.923 1.522 2.434 3.126 2.711 1.535.277 2.544.498 2.544 1.521 0 .927-.829 1.438-1.977 1.438-1.355 0-2.241-.76-2.324-1.894l-1.604-.028c.056 1.715 1.203 2.96 3.14 3.209v1.452h1.341v-1.425c1.812-.193 3.015-1.341 3.015-2.918.014-1.908-1.549-2.42-3.153-2.71zM159.815 12h6.859v-1.341h-4.688l2.572-2.144c1.176-.982 2.047-1.88 2.047-3.32 0-1.77-1.217-2.959-3.388-2.959-2.061 0-3.388 1.342-3.388 3.181v.25h1.535V5.5c0-1.203.747-1.95 1.853-1.95 1.106 0 1.839.609 1.839 1.715 0 .927-.65 1.604-1.521 2.337l-3.72 3.167V12zm8.683-1.784c-.636 0-1.051.415-1.051.94 0 .595.36.885.816.885a.741.741 0 00.456-.138.78.78 0 01.014.18c0 .484-.346 1.023-1.217 1.037v.802c1.369-.014 2.227-.774 2.227-2.116 0-.885-.484-1.59-1.245-1.59zm7.234-3.25a2.18 2.18 0 001.673-2.157c0-1.508-1.3-2.573-3.374-2.573-2.061 0-3.361 1.065-3.361 2.573 0 1.175.775 1.95 1.66 2.17-1.038.236-1.923 1.038-1.923 2.38 0 1.604 1.342 2.724 3.624 2.724 2.281 0 3.637-1.12 3.637-2.724 0-1.37-.899-2.172-1.936-2.393zm-1.701-3.54c1.106 0 1.825.58 1.825 1.424 0 .858-.719 1.438-1.825 1.438-1.093 0-1.812-.58-1.812-1.438 0-.843.719-1.424 1.812-1.424zm0 7.482c-1.217 0-2.061-.692-2.061-1.632s.844-1.618 2.061-1.618c1.23 0 2.074.677 2.074 1.618 0 .94-.844 1.632-2.074 1.632zm9.925-3.942a2.18 2.18 0 001.674-2.157c0-1.508-1.3-2.573-3.375-2.573-2.06 0-3.36 1.065-3.36 2.573 0 1.175.774 1.95 1.659 2.17-1.037.236-1.922 1.038-1.922 2.38 0 1.604 1.341 2.724 3.623 2.724s3.637-1.12 3.637-2.724c0-1.37-.898-2.172-1.936-2.393zm-1.701-3.54c1.107 0 1.826.58 1.826 1.424 0 .858-.719 1.438-1.826 1.438-1.092 0-1.811-.58-1.811-1.438 0-.843.719-1.424 1.811-1.424zm0 7.482c-1.217 0-2.06-.692-2.06-1.632s.843-1.618 2.06-1.618c1.231 0 2.075.677 2.075 1.618 0 .94-.844 1.632-2.075 1.632zm9.926-3.942a2.18 2.18 0 001.673-2.157c0-1.508-1.3-2.573-3.374-2.573-2.061 0-3.361 1.065-3.361 2.573 0 1.175.775 1.95 1.66 2.17-1.037.236-1.922 1.038-1.922 2.38 0 1.604 1.341 2.724 3.623 2.724s3.637-1.12 3.637-2.724c0-1.37-.899-2.172-1.936-2.393zm-1.701-3.54c1.106 0 1.826.58 1.826 1.424 0 .858-.72 1.438-1.826 1.438-1.092 0-1.812-.58-1.812-1.438 0-.843.72-1.424 1.812-1.424zm0 7.482c-1.217 0-2.061-.692-2.061-1.632s.844-1.618 2.061-1.618c1.231 0 2.074.677 2.074 1.618 0 .94-.843 1.632-2.074 1.632z" fill="url(#paint0_linear_784_1572)"/><defs><linearGradient id="paint0_linear_784_1572" x1="205" y1="9" x2="0" y2="9" gradientUnits="userSpaceOnUse"><stop stop-color="#FF4343"/><stop offset=".5" stop-color="#9C0B93"/><stop offset="1" stop-color="#4C1BB7"/></linearGradient></defs></svg>