<svg width="300" height="250" viewBox="0 0 300 250" fill="none" xmlns="http://www.w3.org/2000/svg"><path d="M42.028 98.222c0-7.87-13.415-3.456-13.415-9.437 0-2.817 2.178-4.124 5.546-4.124 3.862 0 5.75 1.568 5.953 4.85a.25.25 0 00.232.232h1.075a.25.25 0 00.232-.233c-.29-4.065-2.933-6.126-7.492-6.126-4.036 0-6.94 1.887-6.94 5.517 0 7.491 13.387 2.99 13.387 9.437 0 3.339-2.614 4.675-5.866 4.675-4.443 0-6.185-2.207-6.417-5.866a.25.25 0 00-.232-.232h-1.075a.25.25 0 00-.232.232c.203 4.443 2.817 7.114 7.869 7.114 4.152 0 7.375-1.974 7.375-6.04zm14.577.493c-.116 0-.261.087-.261.233-.494 2.642-2.033 4.239-4.733 4.239-3.543 0-5.314-2.468-5.314-6.679l11.296-.029a.25.25 0 00.232-.232c-.087-4.762-2.468-7.52-6.417-7.52-4.037 0-6.563 3.252-6.563 7.84 0 4.587 2.323 7.752 6.737 7.752 3.571 0 5.604-2.09 6.156-5.371 0-.117-.087-.233-.203-.233h-.93zm-.32-3.397h-9.93c.349-3.34 2.09-5.459 5.053-5.459 3.165 0 4.849 2.44 4.878 5.459zm6.07 8.682a.25.25 0 00.233-.232l-.03-6.185V94.33c.988-2.73 2.498-4.414 4.734-4.414 2.264 0 3.774 1.365 3.774 4.965v2.7l-.058 6.186a.25.25 0 00.233.232h1.016a.25.25 0 00.232-.232l-.029-6.185v-2.846c0-4.094-1.858-6.04-4.878-6.04-2.584 0-4.24 1.743-5.081 3.427l.058-2.846a.25.25 0 00-.233-.232h-.987a.25.25 0 00-.232.232l.058 8.16-.058 6.33a.25.25 0 00.232.232h1.016zm14.706-7.608c0-3.63 1.51-6.562 4.878-6.562 3.02 0 4.791 2.584 4.762 6.853-.029 4.297-1.974 6.475-4.82 6.475-3.34 0-4.82-3.02-4.82-6.766zM87.805 104a.25.25 0 00.232-.232l-.058-11.934.058-7.928a.25.25 0 00-.232-.232h-1.017a.25.25 0 00-.232.232l.03 7.956c-.96-2.032-2.672-3.135-4.966-3.135-3.862 0-5.982 3.513-5.982 7.81 0 4.356 2.062 7.753 5.982 7.753 2.38 0 4.094-1.248 5.023-3.31l-.058 2.788a.25.25 0 00.232.232h.988zm11.386-9.67c.987-2.7 2.381-4.413 4.472-4.413 2.148 0 3.542 1.336 3.542 4.965v2.875l-.058 6.011a.25.25 0 00.232.232h1.017a.25.25 0 00.232-.232l-.029-6.011v-3.02c0-.348 0-.668-.029-.987.958-2.352 2.294-3.833 4.239-3.833 2.149 0 3.543 1.336 3.543 4.965v2.875l-.058 6.011a.25.25 0 00.232.232h1.016c.117 0 .233-.116.233-.232l-.029-6.011v-3.02c0-4.152-1.743-6.04-4.617-6.04-2.352 0-3.92 1.597-4.82 3.427-.61-2.352-2.149-3.426-4.327-3.426-2.439 0-3.978 1.713-4.82 3.426l.058-2.846a.25.25 0 00-.232-.232H98a.25.25 0 00-.233.232l.058 8.479-.087 6.011a.25.25 0 00.233.232h1.045a.25.25 0 00.232-.232l-.058-6.011v-3.426zm35.086 2.207c0-4.675-2.352-7.81-6.678-7.81-4.298 0-6.679 3.135-6.679 7.81s2.381 7.782 6.679 7.782c4.326 0 6.678-3.136 6.678-7.782zm-11.876 0c0-4.065 1.742-6.649 5.198-6.678 3.455 0 5.197 2.642 5.197 6.678 0 4.066-1.713 6.65-5.197 6.65-3.456 0-5.198-2.584-5.198-6.65zM138.799 104a.25.25 0 00.232-.232l-.029-6.185V94.33c.987-2.73 2.497-4.414 4.733-4.414 2.265 0 3.775 1.365 3.775 4.965v2.7l-.058 6.186a.25.25 0 00.232.232h1.016c.116 0 .233-.116.233-.232l-.029-6.185v-2.846c0-4.094-1.859-6.04-4.879-6.04-2.584 0-4.239 1.743-5.081 3.427l.058-2.846a.25.25 0 00-.232-.232h-.988a.25.25 0 00-.232.232l.058 8.16-.058 6.33a.25.25 0 00.232.232h1.017zm25.043-5.285c-.117 0-.262.087-.262.233-.493 2.642-2.032 4.239-4.733 4.239-3.542 0-5.314-2.468-5.314-6.679l11.296-.029a.25.25 0 00.232-.232c-.087-4.762-2.468-7.52-6.417-7.52-4.036 0-6.562 3.252-6.562 7.84 0 4.587 2.322 7.752 6.736 7.752 3.572 0 5.604-2.09 6.156-5.371 0-.117-.087-.233-.203-.233h-.929zm-.32-3.397h-9.931c.349-3.34 2.091-5.459 5.053-5.459 3.165 0 4.849 2.44 4.878 5.459zm15.261-6.04c.058-.116-.029-.232-.145-.232h-1.075c-.145 0-.261.087-.319.232l-4.21 12.689-4.908-12.718a.357.357 0 00-.319-.203h-1.162c-.116 0-.203.116-.145.203l5.808 14.693-1.684 4.762c-.059.116.029.232.145.232h.9c.145 0 .261-.087.319-.232l6.795-19.426zM28.178 134.392c0-3.629 1.51-6.504 4.878-6.504 3.02 0 4.791 2.526 4.762 6.795-.029 4.268-1.916 6.446-4.82 6.446-3.34 0-4.82-2.991-4.82-6.737zM38.922 142a.25.25 0 00.232-.232l-.087-7.521.087-6.969a.25.25 0 00-.233-.232h-.987a.25.25 0 00-.232.232l.058 2.701c-.958-2.091-2.671-3.223-5.023-3.223-3.862 0-5.982 3.484-5.982 7.781 0 4.356 2.062 7.724 5.982 7.724 2.38 0 4.094-1.248 5.023-3.31l-.058 2.817a.25.25 0 00.232.232h.988zm5.343 0a.25.25 0 00.232-.232l-.029-6.185v-3.252c.987-2.73 2.497-4.414 4.733-4.414 2.265 0 3.775 1.365 3.775 4.965v2.701l-.058 6.185a.25.25 0 00.232.232h1.017a.25.25 0 00.232-.232l-.03-6.185v-2.846c0-4.094-1.858-6.04-4.877-6.04-2.585 0-4.24 1.743-5.082 3.427l.058-2.846a.25.25 0 00-.232-.232h-.987a.25.25 0 00-.233.232l.059 8.16-.059 6.33a.25.25 0 00.233.232h1.016zm24.531-14.722c.058-.116-.029-.232-.145-.232h-1.075c-.145 0-.26.087-.319.232l-4.21 12.689-4.907-12.718a.357.357 0 00-.32-.203H56.66c-.117 0-.204.116-.146.203l5.808 14.693-1.684 4.762c-.058.116.029.232.145.232h.9c.145 0 .261-.087.32-.232l6.794-19.426zm9.301 13.735a.186.186 0 00-.232-.174 7.534 7.534 0 01-1.481.145c-1.452 0-2.062-.668-2.062-2.904v-9.844h3.543a.25.25 0 00.232-.232v-.726a.25.25 0 00-.232-.232h-3.543l.03-3.514a.25.25 0 00-.233-.232h-1.016a.25.25 0 00-.233.232l.058 3.514h-1.713a.25.25 0 00-.232.232v.726a.25.25 0 00.232.232h1.713l-.029 9.844c0 3.165 1.452 4.152 3.398 4.152.522 0 1.132-.116 1.568-.232a.282.282 0 00.232-.29v-.697zm4.335-15.913a.25.25 0 00.232-.232V123.3a.25.25 0 00-.232-.232h-1.016a.25.25 0 00-.233.232v1.568a.25.25 0 00.233.232h1.016zm0 16.9a.25.25 0 00.232-.232l-.029-7.695.03-6.795a.25.25 0 00-.233-.232h-1.016a.25.25 0 00-.233.232l.059 6.824-.059 7.666a.25.25 0 00.233.232h1.016zm5.7-9.669c.987-2.701 2.381-4.414 4.472-4.414 2.148 0 3.542 1.336 3.542 4.965v2.875l-.058 6.011a.25.25 0 00.232.232h1.017a.25.25 0 00.232-.232l-.029-6.011v-3.02c0-.348 0-.668-.029-.987.958-2.352 2.294-3.833 4.239-3.833 2.149 0 3.543 1.336 3.543 4.965v2.875l-.058 6.011a.25.25 0 00.232.232h1.016c.117 0 .233-.116.233-.232l-.029-6.011v-3.02c0-4.152-1.743-6.04-4.617-6.04-2.352 0-3.92 1.598-4.82 3.427-.61-2.352-2.15-3.427-4.327-3.427-2.439 0-3.978 1.714-4.82 3.427l.058-2.846a.25.25 0 00-.232-.232h-.987a.25.25 0 00-.233.232l.058 8.479-.087 6.011a.25.25 0 00.232.232h1.046a.25.25 0 00.232-.232l-.058-6.011v-3.426zm33.489 4.384c-.116 0-.261.087-.261.233-.494 2.642-2.033 4.239-4.733 4.239-3.543 0-5.314-2.468-5.314-6.679l11.295-.029c.116 0 .233-.116.233-.232-.088-4.762-2.469-7.52-6.418-7.52-4.036 0-6.562 3.252-6.562 7.84 0 4.587 2.323 7.752 6.737 7.752 3.571 0 5.604-2.09 6.155-5.371 0-.117-.087-.233-.203-.233h-.929zm-.319-3.397h-9.931c.348-3.339 2.091-5.459 5.052-5.459 3.165 0 4.85 2.439 4.879 5.459zm3.817 11.063c.145 0 .29-.087.349-.203l1.19-2.004c.058-.116.116-.29.116-.435v-1.626c0-.117-.116-.233-.232-.233h-1.104c-.116 0-.232.116-.232.233v1.858l-.61 2.178a.186.186 0 00.175.232h.348zm11.2-9.989c0-3.629 1.51-6.504 4.878-6.504 3.02 0 4.792 2.526 4.762 6.795-.029 4.268-1.916 6.446-4.82 6.446-3.339 0-4.82-2.991-4.82-6.737zM147.063 142a.25.25 0 00.232-.232l-.087-7.521.087-6.969a.25.25 0 00-.232-.232h-.987c-.117 0-.233.116-.233.232l.058 2.701c-.958-2.091-2.671-3.223-5.023-3.223-3.862 0-5.982 3.484-5.982 7.781 0 4.356 2.062 7.724 5.982 7.724 2.381 0 4.094-1.248 5.023-3.31l-.058 2.817c0 .116.116.232.233.232h.987zm5.343 0c.117 0 .233-.116.233-.232l-.029-6.185v-3.252c.987-2.73 2.497-4.414 4.733-4.414 2.265 0 3.774 1.365 3.774 4.965v2.701l-.058 6.185c0 .116.117.232.233.232h1.016a.25.25 0 00.232-.232l-.029-6.185v-2.846c0-4.094-1.858-6.04-4.878-6.04-2.584 0-4.239 1.743-5.081 3.427l.058-2.846c0-.116-.117-.232-.233-.232h-.987a.25.25 0 00-.232.232l.058 8.16-.058 6.33a.25.25 0 00.232.232h1.016zm24.531-14.722c.059-.116-.029-.232-.145-.232h-1.074c-.145 0-.261.087-.319.232l-4.211 12.689-4.907-12.718a.357.357 0 00-.32-.203H164.8c-.116 0-.203.116-.145.203l5.807 14.693-1.684 4.762c-.058.116.029.232.145.232h.9c.146 0 .262-.087.32-.232l6.794-19.426zM193.727 142a.282.282 0 00.29-.232l4.036-14.49c.029-.116-.058-.232-.174-.232h-.9a.283.283 0 00-.291.232l-3.513 13.27-3.688-13.27a.282.282 0 00-.29-.232h-1.22a.282.282 0 00-.29.232l-3.456 13.328-3.774-13.328a.283.283 0 00-.291-.232h-.987c-.116 0-.203.116-.174.232l4.355 14.49a.283.283 0 00.291.232h1.161a.283.283 0 00.291-.232l3.397-13.473 3.746 13.473a.282.282 0 00.29.232h1.191zm17.067-9.118l.029 2.846-.058 6.04a.25.25 0 00.232.232h1.017a.25.25 0 00.232-.232l-.029-6.069v-2.846c0-4.239-1.859-6.156-4.907-6.156-2.585 0-4.211 1.685-5.082 3.398l.087-8.189a.25.25 0 00-.232-.232h-1.016c-.117 0-.233.116-.233.232l.087 9.699-.087 10.163c0 .116.116.232.233.232h1.016a.25.25 0 00.232-.232l-.087-9.466c.987-2.672 2.555-4.414 4.82-4.414 2.236 0 3.746 1.365 3.746 4.994zm16.332 3.833c-.116 0-.261.087-.261.233-.494 2.642-2.033 4.239-4.733 4.239-3.542 0-5.314-2.468-5.314-6.679l11.296-.029a.25.25 0 00.232-.232c-.087-4.762-2.468-7.52-6.417-7.52-4.036 0-6.563 3.252-6.563 7.84 0 4.587 2.323 7.752 6.737 7.752 3.572 0 5.604-2.09 6.156-5.371 0-.117-.087-.233-.203-.233h-.93zm-.319-3.397h-9.931c.349-3.339 2.091-5.459 5.053-5.459 3.165 0 4.849 2.439 4.878 5.459zm6.04 8.682c.117 0 .233-.116.233-.232l-.058-9.06c.551-3.194 2.671-4.588 4.82-4.588.435 0 .784.029 1.074.116.116.029.232-.058.232-.174v-.784a.312.312 0 00-.232-.29c-.29-.087-.639-.116-1.016-.116-2.033 0-3.92 1.132-4.907 3.165l.087-2.759c0-.116-.116-.232-.233-.232h-1.016a.25.25 0 00-.232.232l.087 6.998-.087 7.492a.25.25 0 00.232.232h1.016zm18.777-5.285c-.116 0-.261.087-.261.233-.494 2.642-2.033 4.239-4.733 4.239-3.543 0-5.314-2.468-5.314-6.679l11.295-.029c.117 0 .233-.116.233-.232-.087-4.762-2.468-7.52-6.418-7.52-4.036 0-6.562 3.252-6.562 7.84 0 4.587 2.323 7.752 6.737 7.752 3.571 0 5.604-2.09 6.156-5.371 0-.117-.088-.233-.204-.233h-.929zm-.319-3.397h-9.931c.348-3.339 2.091-5.459 5.052-5.459 3.166 0 4.85 2.439 4.879 5.459zM37.208 176.922l-.058 2.846a.25.25 0 00.233.232h.987a.25.25 0 00.232-.232l-.058-8.16.058-6.33a.25.25 0 00-.232-.232h-1.017a.25.25 0 00-.232.232l.03 6.185v3.252c-.988 2.73-2.498 4.414-4.734 4.414-2.265 0-3.775-1.365-3.775-4.965v-2.701l.058-6.185a.25.25 0 00-.232-.232h-1.016a.25.25 0 00-.232.232l.029 6.185v2.846c0 4.094 1.858 6.039 4.878 6.039 2.584 0 4.24-1.742 5.081-3.426zm16.651-1.016c0-6.214-10.308-2.701-10.308-7.114 0-1.975 1.597-2.962 4.066-2.962 2.41 0 4.326.987 4.471 3.397 0 .116.116.233.233.233h.87c.117 0 .233-.117.233-.233-.145-3.107-2.642-4.471-5.779-4.471-3.194 0-5.488 1.393-5.488 4.094 0 5.807 10.309 2.294 10.309 7.143 0 2.062-1.83 3.223-4.385 3.223-3.078 0-4.762-1.365-4.85-4.297a.25.25 0 00-.231-.233h-.93a.25.25 0 00-.232.233c.087 3.658 2.468 5.371 6.214 5.371 3.252 0 5.807-1.626 5.807-4.384zm4.557-12.806a.25.25 0 00.233-.232V161.3a.25.25 0 00-.233-.232H57.4a.25.25 0 00-.232.232v1.568a.25.25 0 00.232.232h1.016zm0 16.9a.25.25 0 00.233-.232l-.03-7.695.03-6.795a.25.25 0 00-.233-.232H57.4a.25.25 0 00-.232.232l.058 6.824-.058 7.666a.25.25 0 00.232.232h1.016zm5.526 0a.25.25 0 00.232-.232l-.029-6.185v-3.252c.988-2.73 2.498-4.414 4.733-4.414 2.265 0 3.775 1.365 3.775 4.965v2.701l-.058 6.185a.25.25 0 00.232.232h1.017a.25.25 0 00.232-.232l-.029-6.185v-2.846c0-4.094-1.858-6.04-4.878-6.04-2.584 0-4.24 1.743-5.082 3.427l.058-2.846a.25.25 0 00-.232-.232h-.987a.25.25 0 00-.233.232l.059 8.16-.059 6.33a.25.25 0 00.233.232h1.016zm14.706-7.492c0-3.861 1.597-6.649 4.849-6.649 3.02 0 4.791 2.555 4.762 6.795-.029 4.21-1.916 6.155-4.617 6.185-3.368.029-4.994-2.382-4.994-6.331zm10.918 5.982l-.03-8.856.059-4.356a.25.25 0 00-.233-.232h-.958a.25.25 0 00-.232.232l.058 2.759c-.93-2.12-2.642-3.252-4.936-3.252-3.978 0-6.069 3.455-6.069 7.752 0 4.298 2.09 7.405 6.098 7.405 2.265 0 3.949-1.133 4.878-3.107v1.655c0 4.181-1.858 5.982-4.762 5.982-2.294 0-4.181-.988-4.472-3.369-.029-.145-.145-.232-.261-.232h-.987c-.117 0-.233.116-.204.232.262 3.194 2.846 4.53 5.953 4.501 3.775 0 6.127-2.381 6.098-7.114zm25.906-4.559c0-7.985-13.154-4.268-13.154-9.001 0-1.946 1.713-2.817 4.182-2.817 2.874 0 4.471 1.133 4.704 3.281a.338.338 0 00.319.291h3.136c.145 0 .29-.145.261-.291-.522-4.239-3.629-6.126-8.304-6.126-4.85 0-7.782 2.264-7.782 6.039 0 7.927 13.095 4.065 13.095 9.118 0 2.265-1.8 3.165-4.616 3.165-3.63 0-4.879-1.626-5.169-4.21a.338.338 0 00-.319-.291h-3.136a.312.312 0 00-.29.291c.231 4.704 3.6 7.027 8.826 7.027 4.966 0 8.247-2.236 8.247-6.476zm11.037 3.688c0-.145-.145-.261-.291-.203a5.88 5.88 0 01-1.568.203c-1.103 0-1.742-.465-1.742-1.975l-.029-7.985h3.368c.146 0 .291-.145.291-.29v-2.033c0-.145-.145-.29-.291-.29h-3.339l.029-3.455c0-.146-.145-.291-.29-.291h-2.962c-.145 0-.29.145-.29.291l.058 3.455h-1.655c-.146 0-.291.145-.291.29v2.033c0 .145.145.29.291.29h1.655l-.029 8.073c0 3.339 2.119 4.529 4.471 4.529.784 0 1.626-.174 2.352-.406a.413.413 0 00.262-.378v-1.858zm16.358-5.14c0-4.733-2.642-7.782-7.346-7.782-4.704 0-7.405 3.136-7.405 7.87 0 4.733 2.701 7.781 7.405 7.781 4.704 0 7.346-3.107 7.346-7.869zm-11.179.117c0-3.543 1.219-5.401 3.804-5.43 2.526 0 3.774 1.858 3.774 5.401 0 3.571-1.219 5.313-3.745 5.313-2.556 0-3.833-1.771-3.833-5.284zM148.931 180c.146 0 .291-.145.291-.29l-.058-6.069v-1.626c.29-3.107 1.916-4.588 3.687-4.588 1.598 0 2.73 1.103 2.73 3.223v2.991l-.087 6.069c0 .145.145.29.29.29h2.991c.145 0 .29-.145.29-.29l-.087-6.069v-3.078c0-3.775-1.974-5.866-5.11-5.866-2.236 0-3.92 1.133-4.878 2.527l.058-1.888c0-.145-.146-.29-.291-.29h-2.816c-.146 0-.291.145-.291.29l.058 7.637-.087 6.737c0 .145.145.29.291.29h3.019zm23.994-5.111a.345.345 0 00-.348.291c-.436 1.829-1.597 2.7-3.426 2.7-2.527 0-3.804-1.51-3.949-4.704h10.83c.146 0 .291-.145.291-.29-.087-5.082-2.73-8.189-7.347-8.189-4.529 0-7.288 3.136-7.288 7.87 0 4.558 2.584 7.781 7.404 7.781 4.008 0 6.447-2.323 6.882-5.168 0-.145-.116-.291-.261-.291h-2.788zm-.377-4.065h-7.23c.377-2.41 1.597-3.687 3.687-3.687 2.294 0 3.427 1.742 3.543 3.687zM194.607 180c.116 0 .203-.145.145-.232l-6.679-10.367 6.011-9.495c.058-.087-.029-.232-.145-.232h-3.456a.478.478 0 00-.435.261l-3.949 6.476-3.978-6.476a.481.481 0 00-.436-.261h-3.688c-.116 0-.203.145-.145.232l6.069 9.408-6.65 10.454c-.058.087.029.232.146.232h3.455a.481.481 0 00.436-.261l4.645-7.579 4.501 7.579a.48.48 0 00.436.261h3.717z" fill="#fff"/></svg>