<svg width="300" height="250" viewBox="0 0 300 250" fill="none" xmlns="http://www.w3.org/2000/svg"><path d="M33.55 104a.25.25 0 00.232-.232l-.087-9.757.058-9.06h5.691a.25.25 0 00.232-.232v-.813a.25.25 0 00-.232-.232H26.523a.25.25 0 00-.233.232v.813a.25.25 0 00.233.233h5.69l.088 9.06-.087 9.756a.25.25 0 00.232.232h1.104zm7.283 0a.25.25 0 00.233-.232l-.059-9.06c.552-3.194 2.672-4.588 4.82-4.588.436 0 .785.03 1.075.116.116.03.232-.058.232-.174v-.784a.312.312 0 00-.232-.29c-.29-.087-.639-.116-1.016-.116-2.033 0-3.92 1.132-4.908 3.165l.087-2.759a.25.25 0 00-.232-.232h-1.016a.25.25 0 00-.232.232l.087 6.998-.087 7.492a.25.25 0 00.232.232h1.016zm8.44-7.608c0-3.63 1.51-6.504 4.878-6.504 3.02 0 4.791 2.526 4.762 6.795-.029 4.268-1.916 6.446-4.82 6.446-3.34 0-4.82-2.991-4.82-6.737zM60.016 104a.25.25 0 00.233-.232l-.087-7.52.087-6.97a.25.25 0 00-.233-.232h-.987a.25.25 0 00-.232.232l.058 2.7c-.958-2.09-2.671-3.222-5.023-3.222-3.862 0-5.982 3.484-5.982 7.781 0 4.356 2.061 7.724 5.981 7.724 2.382 0 4.095-1.248 5.024-3.31l-.058 2.817a.25.25 0 00.232.232h.987zm5.344 0a.25.25 0 00.232-.232l-.029-6.185V94.33c.987-2.73 2.497-4.414 4.733-4.414 2.265 0 3.775 1.365 3.775 4.965v2.7l-.058 6.186a.25.25 0 00.232.232h1.017a.25.25 0 00.232-.232l-.03-6.185v-2.846c0-4.094-1.858-6.04-4.877-6.04-2.585 0-4.24 1.743-5.082 3.427l.058-2.846a.25.25 0 00-.232-.232h-.987a.25.25 0 00-.233.232l.058 8.16-.058 6.33a.25.25 0 00.233.232h1.016zm25.246-4.094c0-6.214-10.308-2.7-10.308-7.114 0-1.975 1.597-2.962 4.065-2.962 2.41 0 4.327.987 4.472 3.397a.25.25 0 00.232.233h.871a.25.25 0 00.233-.233c-.146-3.107-2.643-4.471-5.779-4.471-3.194 0-5.488 1.393-5.488 4.094 0 5.807 10.308 2.294 10.308 7.143 0 2.062-1.83 3.223-4.384 3.223-3.078 0-4.762-1.365-4.85-4.297a.25.25 0 00-.232-.233h-.929a.25.25 0 00-.232.232c.087 3.659 2.468 5.372 6.214 5.372 3.252 0 5.807-1.626 5.807-4.384zm4.499-3.543c.029-4.297 1.945-6.504 4.82-6.504 3.339 0 4.82 3.02 4.82 6.795 0 3.6-1.51 6.504-4.849 6.504-3.049 0-4.82-2.526-4.791-6.795zm11.092.116c0-4.355-2.091-7.752-5.982-7.752-2.352 0-4.094 1.277-5.052 3.339l.058-2.788a.25.25 0 00-.232-.232h-.987a.25.25 0 00-.233.232l.087 7.84-.087 11.586a.25.25 0 00.233.232h1.045a.25.25 0 00.232-.232l-.087-7.579c.958 2.062 2.672 3.165 4.994 3.165 3.862 0 6.011-3.513 6.011-7.81zm4.094-.087c0-3.63 1.51-6.504 4.879-6.504 3.019 0 4.791 2.526 4.762 6.795-.029 4.268-1.917 6.446-4.821 6.446-3.339 0-4.82-2.991-4.82-6.737zM121.035 104a.25.25 0 00.232-.232l-.087-7.52.087-6.97a.25.25 0 00-.232-.232h-.987c-.116 0-.233.116-.233.232l.059 2.7c-.959-2.09-2.672-3.222-5.024-3.222-3.862 0-5.981 3.484-5.981 7.781 0 4.356 2.061 7.724 5.981 7.724 2.381 0 4.094-1.248 5.024-3.31l-.059 2.817c0 .116.117.232.233.232h.987zm5.315 0a.25.25 0 00.232-.232l-.058-9.06c.551-3.194 2.671-4.588 4.82-4.588.435 0 .784.03 1.074.116.116.03.233-.058.233-.174v-.784a.313.313 0 00-.233-.29c-.29-.087-.639-.116-1.016-.116-2.033 0-3.92 1.132-4.907 3.165l.087-2.759a.25.25 0 00-.232-.232h-1.017a.25.25 0 00-.232.232l.087 6.998-.087 7.492a.25.25 0 00.232.232h1.017zm18.776-5.285c-.116 0-.261.087-.261.233-.494 2.642-2.033 4.239-4.733 4.239-3.543 0-5.314-2.468-5.314-6.679l11.296-.029a.25.25 0 00.232-.232c-.087-4.762-2.468-7.52-6.417-7.52-4.037 0-6.563 3.252-6.563 7.84 0 4.587 2.323 7.752 6.737 7.752 3.571 0 5.604-2.09 6.156-5.371 0-.117-.087-.233-.204-.233h-.929zm-.319-3.397h-9.931c.349-3.34 2.091-5.459 5.053-5.459 3.165 0 4.849 2.44 4.878 5.459zm6.069 8.682c.116 0 .233-.116.233-.232l-.029-6.185V94.33c.987-2.73 2.497-4.414 4.733-4.414 2.264 0 3.774 1.365 3.774 4.965v2.7l-.058 6.186c0 .116.116.232.233.232h1.016a.25.25 0 00.232-.232l-.029-6.185v-2.846c0-4.094-1.858-6.04-4.878-6.04-2.584 0-4.239 1.743-5.082 3.427l.059-2.846c0-.116-.117-.232-.233-.232h-.987a.25.25 0 00-.232.232l.058 8.16-.058 6.33a.25.25 0 00.232.232h1.016zm20.137-.987a.185.185 0 00-.232-.174 7.537 7.537 0 01-1.481.145c-1.452 0-2.062-.668-2.062-2.904v-9.844h3.543a.25.25 0 00.232-.232v-.726a.25.25 0 00-.232-.232h-3.543l.029-3.514a.25.25 0 00-.232-.232h-1.016a.25.25 0 00-.232.232l.058 3.514h-1.714a.25.25 0 00-.232.232v.726a.25.25 0 00.232.232h1.714l-.029 9.844c0 3.165 1.451 4.152 3.397 4.152.523 0 1.132-.116 1.568-.232a.282.282 0 00.232-.29v-.697zM40.635 136.599c.029-.145-.116-.29-.262-.29h-2.7a.338.338 0 00-.32.29c-.232 2.149-1.538 3.31-3.397 3.281-2.555-.029-3.775-1.742-3.775-5.343 0-3.484 1.22-5.342 3.775-5.342 1.626 0 2.875.929 3.223 2.816a.346.346 0 00.349.291h2.671c.145 0 .29-.146.261-.291-.348-3.165-2.729-5.314-6.504-5.314-4.704 0-7.375 3.136-7.375 7.87 0 4.733 2.671 7.781 7.317 7.781 3.862 0 6.417-2.41 6.737-5.749zM46.487 142c.145 0 .29-.145.29-.29l-.058-6.998c.174-3.369 2.38-4.995 5.197-4.995.233 0 .465 0 .668.029.145 0 .29-.116.29-.261v-2.149a.373.373 0 00-.29-.348 6.12 6.12 0 00-.726-.058c-2.148 0-4.123.929-5.226 2.758l.116-2.352a.312.312 0 00-.29-.29h-2.933a.312.312 0 00-.29.29l.115 7.114-.116 7.26c0 .145.146.29.29.29h2.962zm22.121-7.521c0-4.733-2.642-7.782-7.346-7.782-4.704 0-7.405 3.136-7.405 7.87 0 4.733 2.7 7.781 7.405 7.781 4.704 0 7.346-3.107 7.346-7.869zm-11.179.117c0-3.543 1.22-5.401 3.804-5.43 2.526 0 3.775 1.858 3.775 5.401 0 3.571-1.22 5.313-3.746 5.313-2.555 0-3.833-1.771-3.833-5.284zm26.86 2.961c0-6.33-9.93-3.281-9.93-6.504 0-1.452 1.103-2.091 2.816-2.091 1.946 0 3.05.842 3.31 2.352.03.175.146.291.32.291h2.671c.145 0 .29-.145.262-.291-.233-3.078-2.817-4.617-6.505-4.617-3.803 0-6.214 1.598-6.214 4.617 0 6.156 9.931 3.223 9.931 6.534 0 1.393-1.19 2.177-3.165 2.177-2.323 0-3.6-.871-3.717-2.816a.29.29 0 00-.29-.29H70.96a.312.312 0 00-.29.29c.145 3.368 2.904 5.139 6.998 5.139 3.775 0 6.62-1.742 6.62-4.791zm15.879 0c0-6.33-9.93-3.281-9.93-6.504 0-1.452 1.103-2.091 2.816-2.091 1.945 0 3.049.842 3.31 2.352.029.175.145.291.32.291h2.67c.146 0 .291-.145.262-.291-.232-3.078-2.816-4.617-6.504-4.617-3.804 0-6.214 1.598-6.214 4.617 0 6.156 9.93 3.223 9.93 6.534 0 1.393-1.19 2.177-3.164 2.177-2.323 0-3.601-.871-3.717-2.816a.29.29 0 00-.29-.29H86.84a.312.312 0 00-.29.29c.145 3.368 2.903 5.139 6.997 5.139 3.775 0 6.621-1.742 6.621-4.791zm8.654-2.671c.145 0 .29-.145.29-.29v-2.033a.312.312 0 00-.29-.29h-6.534a.312.312 0 00-.29.29v2.033c0 .145.145.29.29.29h6.534zm17.205-.407c0-4.355-2.207-7.723-6.33-7.723-1.975 0-3.514.842-4.559 2.264l.029-7.056a.312.312 0 00-.29-.29h-2.962a.312.312 0 00-.29.29l.116 9.437-.116 10.309c0 .145.145.29.29.29h2.962c.145 0 .29-.145.29-.29l-.058-1.626c1.016 1.451 2.526 2.206 4.501 2.206 4.007 0 6.417-3.484 6.417-7.811zm-11.005-.116c.029-3.368 1.394-5.081 3.717-5.081 2.468-.029 3.716 1.974 3.716 5.372 0 3.165-1.248 5.168-3.774 5.11-2.381-.029-3.688-1.945-3.659-5.401zm28.073.116c0-4.733-2.642-7.782-7.346-7.782-4.704 0-7.405 3.136-7.405 7.87 0 4.733 2.701 7.781 7.405 7.781 4.704 0 7.346-3.107 7.346-7.869zm-11.179.117c0-3.543 1.219-5.401 3.804-5.43 2.526 0 3.774 1.858 3.774 5.401 0 3.571-1.219 5.313-3.745 5.313-2.556 0-3.833-1.771-3.833-5.284zM149.072 142c.146 0 .291-.145.291-.29l-.058-6.998c.174-3.369 2.381-4.995 5.197-4.995.233 0 .465 0 .668.029.145 0 .29-.116.29-.261v-2.149a.373.373 0 00-.29-.348 6.122 6.122 0 00-.726-.058c-2.149 0-4.123.929-5.226 2.758l.116-2.352c0-.145-.146-.29-.291-.29h-2.932c-.146 0-.291.145-.291.29l.116 7.114-.116 7.26c0 .145.145.29.291.29h2.961zm10.943-7.637c0-3.223 1.219-5.226 3.775-5.168 2.352.029 3.687 1.974 3.658 5.459-.029 3.455-1.394 5.197-3.746 5.197-2.439 0-3.687-2.032-3.687-5.488zM170.526 142c.145 0 .291-.145.291-.29l-.059-10.367.059-9.379c0-.145-.146-.29-.291-.29h-2.962a.312.312 0 00-.29.29l.058 6.94c-1.016-1.393-2.555-2.148-4.501-2.148-4.007 0-6.388 3.484-6.388 7.811 0 4.355 2.178 7.723 6.33 7.723 2.004 0 3.543-.871 4.588-2.323l-.087 1.743c0 .145.145.29.29.29h2.962zm14.281-5.111a.346.346 0 00-.349.291c-.435 1.829-1.597 2.7-3.426 2.7-2.526 0-3.804-1.51-3.949-4.704h10.831c.145 0 .29-.145.29-.29-.087-5.082-2.729-8.189-7.346-8.189-4.53 0-7.289 3.136-7.289 7.87 0 4.558 2.585 7.781 7.405 7.781 4.007 0 6.446-2.323 6.882-5.168 0-.145-.117-.291-.262-.291h-2.787zm-.378-4.065h-7.23c.378-2.41 1.597-3.687 3.688-3.687 2.294 0 3.426 1.742 3.542 3.687zm9.698 9.176c.146 0 .291-.145.291-.29l-.058-6.998c.174-3.369 2.381-4.995 5.197-4.995.233 0 .465 0 .668.029.145 0 .291-.116.291-.261v-2.149a.374.374 0 00-.291-.348 6.105 6.105 0 00-.726-.058c-2.148 0-4.123.929-5.226 2.758l.116-2.352c0-.145-.145-.29-.291-.29h-2.932c-.146 0-.291.145-.291.29l.116 7.114-.116 7.26c0 .145.145.29.291.29h2.961zM28.671 172.363c.03-4.297 1.946-6.504 4.82-6.504 3.34 0 4.82 3.02 4.82 6.795 0 3.6-1.51 6.504-4.849 6.504-3.048 0-4.82-2.526-4.79-6.795zm11.093.116c0-4.355-2.091-7.752-5.982-7.752-2.352 0-4.094 1.277-5.052 3.339l.058-2.788a.25.25 0 00-.233-.232h-.987a.25.25 0 00-.232.232l.087 7.84-.087 11.586a.25.25 0 00.232.232h1.045a.25.25 0 00.233-.232l-.087-7.579c.958 2.062 2.67 3.165 4.994 3.165 3.862 0 6.01-3.513 6.01-7.811zm4.094-.087c0-3.629 1.51-6.504 4.878-6.504 3.02 0 4.791 2.526 4.762 6.795-.029 4.268-1.916 6.446-4.82 6.446-3.34 0-4.82-2.991-4.82-6.737zM54.602 180a.25.25 0 00.232-.232l-.087-7.521.087-6.969a.25.25 0 00-.233-.232h-.987a.25.25 0 00-.232.232l.058 2.701c-.958-2.091-2.671-3.223-5.023-3.223-3.862 0-5.982 3.484-5.982 7.781 0 4.356 2.062 7.724 5.982 7.724 2.38 0 4.094-1.248 5.023-3.31l-.058 2.817a.25.25 0 00.232.232h.988zm15.187-14.722c.058-.116-.03-.232-.146-.232H68.57c-.145 0-.261.087-.32.232l-4.21 12.689-4.907-12.718a.357.357 0 00-.32-.203h-1.16c-.117 0-.204.116-.146.203l5.807 14.693-1.684 4.762c-.058.116.03.232.145.232h.9c.146 0 .262-.087.32-.232l6.794-19.426zm4.11 5.053c.988-2.701 2.381-4.414 4.472-4.414 2.149 0 3.543 1.336 3.543 4.965v2.875l-.058 6.011a.25.25 0 00.232.232h1.016a.25.25 0 00.232-.232l-.029-6.011v-3.02c0-.348 0-.668-.029-.987.959-2.352 2.294-3.833 4.24-3.833 2.148 0 3.542 1.336 3.542 4.965v2.875l-.058 6.011a.25.25 0 00.232.232h1.017a.25.25 0 00.232-.232l-.029-6.011v-3.02c0-4.152-1.742-6.04-4.617-6.04-2.352 0-3.92 1.598-4.82 3.427-.61-2.352-2.149-3.427-4.327-3.427-2.439 0-3.978 1.714-4.82 3.427l.058-2.846a.25.25 0 00-.232-.232h-.987a.25.25 0 00-.233.232l.059 8.479-.087 6.011a.25.25 0 00.232.232h1.045a.25.25 0 00.232-.232l-.058-6.011v-3.426zm33.489 4.384c-.116 0-.261.087-.261.233-.494 2.642-2.033 4.239-4.733 4.239-3.543 0-5.314-2.468-5.314-6.679l11.296-.029a.25.25 0 00.232-.232c-.087-4.762-2.468-7.52-6.417-7.52-4.037 0-6.563 3.252-6.563 7.84 0 4.587 2.323 7.752 6.737 7.752 3.571 0 5.604-2.09 6.156-5.371 0-.117-.087-.233-.203-.233h-.93zm-.319-3.397h-9.93c.348-3.339 2.09-5.459 5.052-5.459 3.165 0 4.849 2.439 4.878 5.459zm6.069 8.682c.116 0 .233-.116.233-.232l-.029-6.185v-3.252c.987-2.73 2.497-4.414 4.733-4.414 2.265 0 3.774 1.365 3.774 4.965v2.701l-.058 6.185c0 .116.117.232.233.232h1.016a.25.25 0 00.232-.232l-.029-6.185v-2.846c0-4.094-1.858-6.04-4.878-6.04-2.584 0-4.239 1.743-5.081 3.427l.058-2.846c0-.116-.117-.232-.233-.232h-.987a.25.25 0 00-.232.232l.058 8.16-.058 6.33a.25.25 0 00.232.232h1.016zm20.137-.987a.185.185 0 00-.232-.174 7.537 7.537 0 01-1.481.145c-1.452 0-2.062-.668-2.062-2.904v-9.844h3.543a.25.25 0 00.232-.232v-.726a.25.25 0 00-.232-.232H129.5l.03-3.514c0-.116-.117-.232-.233-.232h-1.016a.25.25 0 00-.232.232l.058 3.514h-1.713c-.117 0-.233.116-.233.232v.726c0 .116.116.232.233.232h1.713l-.029 9.844c0 3.165 1.452 4.152 3.397 4.152.523 0 1.132-.116 1.568-.232a.282.282 0 00.232-.29v-.697zm14.069-3.107c0-6.214-10.308-2.701-10.308-7.114 0-1.975 1.597-2.962 4.065-2.962 2.41 0 4.327.987 4.472 3.397 0 .116.116.233.232.233h.871c.116 0 .232-.117.232-.233-.145-3.107-2.642-4.471-5.778-4.471-3.194 0-5.488 1.393-5.488 4.094 0 5.807 10.308 2.294 10.308 7.143 0 2.062-1.829 3.223-4.384 3.223-3.078 0-4.762-1.365-4.85-4.297 0-.117-.116-.233-.232-.233h-.929c-.116 0-.232.116-.232.233.087 3.658 2.468 5.371 6.214 5.371 3.252 0 5.807-1.626 5.807-4.384z" fill="#fff"/></svg>