<svg width="125" height="50" viewBox="0 0 125 50" fill="none" xmlns="http://www.w3.org/2000/svg"><path d="M33.463 15.591V.291h-5.417v20.17h15.3v-4.87h-9.883zm18.038 4.87V.32h-5.417v20.142H51.5zm17.492 0L76.716.291h-6.484L65.45 14.093 60.752.291H54.27l7.636 20.17h7.088zm26.976-15.3V.29H79.458v20.17h16.684v-4.87H84.875v-3.025h10.316v-4.61H84.875V5.16h11.094zM5.435 49.46V29.32H.018v20.142h5.417zm23.026 0v-20.17H23.13v11.266L15.004 29.29h-5.62v20.171h5.332V38.223l8.126 11.238h5.619zM40.62 29.002c-4.697.03-8.386 2.075-8.386 6.6 0 3.947 3.285 5.013 7.867 6.108 3.314.836 3.89.95 3.89 2.103 0 .923-.98 1.326-2.103 1.326-2.565 0-5.475-.75-8.097-2.219l-2.421 4.034c2.766 1.845 6.166 2.824 9.913 2.824 5.186 0 8.442-2.362 8.442-6.656 0-4.12-3.37-5.273-8.097-6.541-3.14-.778-3.515-1.038-3.515-1.672 0-.922.893-1.325 1.93-1.325 1.989 0 4.697.692 7.003 1.873l2.276-4.178c-2.363-1.441-5.475-2.277-8.702-2.277zm17.634 20.46V29.318h-5.417v20.142h5.417zm14.727-20.46c-5.735-.028-11.152 3.746-11.152 10.403 0 5.705 4.841 10.344 10.806 10.344 3.4 0 6.541-1.123 8.962-3.054v-8.818H72.98v3.862h3.458v1.93a7.484 7.484 0 01-3.804 1.009c-3.026 0-5.13-2.363-5.13-5.273 0-3.372 2.565-5.389 5.476-5.389 1.556 0 3.14.548 4.409 1.643l3.544-3.717c-2.248-1.931-5.1-2.91-7.953-2.94zm31.631 20.46V29.29h-5.446v7.608h-8.213V29.29h-5.417v20.171h5.417v-7.693h8.213v7.693h5.446zm19.902-15.532v-4.64h-17.145v4.64h5.85V49.46h5.446V33.93h5.849z" fill="#09B45B"/></svg>