<svg width="174" height="11" viewBox="0 0 174 11" fill="none" xmlns="http://www.w3.org/2000/svg"><path d="M.22 1.422h2.376V8h1.265V1.422h2.376V.3H.22v1.122zm10.261 3.762c0 1.166-.55 1.848-1.452 1.848-.869 0-1.309-.561-1.309-1.661V2.368H6.532v3.135c0 1.925 1.023 2.563 2.222 2.563.87 0 1.386-.352 1.738-.781l.132.715h1.045V2.368h-1.188v2.816zm5.208-2.816c-.924 0-1.375.374-1.661.847l-.132-.847H12.84V8h1.188V5.173c0-.869.34-1.694 1.397-1.694h.528V2.368h-.264zm4.01-.066c-.869 0-1.452.396-1.826.902V.3h-1.188V8h1.035l.143-.814c.352.506.957.88 1.837.88 1.54 0 2.662-1.155 2.662-2.882 0-1.815-1.122-2.882-2.662-2.882zm-.198 4.763c-.99 0-1.639-.781-1.639-1.892 0-1.089.65-1.859 1.64-1.859.99 0 1.65.77 1.65 1.87 0 1.111-.66 1.881-1.65 1.881zm7.673-1.881c0 1.166-.55 1.848-1.451 1.848-.87 0-1.31-.561-1.31-1.661V2.368h-1.188v3.135c0 1.925 1.023 2.563 2.223 2.563.869 0 1.386-.352 1.738-.781l.131.715h1.046V2.368h-1.189v2.816zM29.534 8h1.187V.3h-1.188V8zm5.025.066c1.397 0 2.343-.847 2.54-1.958h-1.187c-.165.627-.693.99-1.42.99-.934 0-1.54-.627-1.572-1.584v-.077h4.246c.022-.154.033-.308.033-.451-.033-1.65-1.122-2.684-2.75-2.684-1.661 0-2.772 1.155-2.772 2.893 0 1.727 1.11 2.871 2.882 2.871zm-1.595-3.498c.088-.803.737-1.309 1.496-1.309.825 0 1.408.473 1.507 1.309h-3.003zm8.165-2.266c-.913 0-1.452.363-1.804.803l-.132-.737H38.16V8h1.188V5.162c0-1.144.561-1.837 1.507-1.837.891 0 1.342.572 1.342 1.639V8h1.2V4.865c0-1.881-1.024-2.563-2.267-2.563zm3.754 4.169c0 1.023.462 1.529 1.54 1.529h1.1V6.955h-.836c-.451 0-.605-.165-.605-.605V3.413h1.375V2.368h-1.375V.795h-1.2v1.573h-.978v1.045h.979v3.058zm6.617 0C51.5 7.494 51.962 8 53.04 8h1.1V6.955h-.836c-.451 0-.605-.165-.605-.605V3.413h1.375V2.368h-1.375V.795h-1.2v1.573h-.978v1.045h.979v3.058zm4-4.895c.407 0 .727-.297.727-.715s-.32-.715-.726-.715c-.407 0-.726.297-.726.715s.319.715.726.715zM54.896 8h1.188V2.368h-1.188V8zm8.832-5.698c-.924 0-1.562.407-1.925 1.023-.341-.726-1.001-1.023-1.738-1.023-.847.011-1.331.385-1.65.803l-.132-.737h-1.034V8h1.188V4.986c0-1.001.506-1.661 1.32-1.661.781 0 1.188.517 1.188 1.507V8h1.199V4.953c0-1.012.517-1.628 1.331-1.628.77 0 1.177.517 1.177 1.507V8h1.188V4.755c0-1.782-.946-2.453-2.112-2.453zm5.819 5.764c1.397 0 2.343-.847 2.541-1.958h-1.188c-.165.627-.693.99-1.419.99-.935 0-1.54-.627-1.573-1.584v-.077h4.246c.022-.154.033-.308.033-.451-.033-1.65-1.122-2.684-2.75-2.684-1.661 0-2.772 1.155-2.772 2.893 0 1.727 1.111 2.871 2.882 2.871zm-1.595-3.498c.088-.803.737-1.309 1.496-1.309.825 0 1.408.473 1.507 1.309h-3.003zm4.921 1.573c.033 1.221 1.067 1.925 2.574 1.925 1.364 0 2.387-.682 2.387-1.76 0-1.254-1.045-1.518-2.332-1.672-.814-.088-1.353-.154-1.353-.682 0-.451.462-.737 1.166-.737s1.188.363 1.254.88h1.166c-.077-1.155-1.056-1.793-2.442-1.793-1.353-.011-2.31.682-2.31 1.749 0 1.166 1.012 1.441 2.3 1.595.868.11 1.385.154 1.385.759 0 .451-.484.737-1.22.737-.859 0-1.365-.418-1.409-1.001h-1.166zm8.124-2.728h.98V8h1.198V3.413h1.507V2.368h-1.529v-.473c0-.385.165-.55.55-.55h.98V.3h-1.134c-1.089 0-1.573.528-1.573 1.54v.528h-.979v1.045zm6.726 4.653c1.716 0 2.87-1.155 2.87-2.882 0-1.716-1.154-2.882-2.87-2.882-1.716 0-2.871 1.166-2.871 2.882 0 1.727 1.155 2.882 2.87 2.882zm0-1.012c-1.001 0-1.65-.781-1.65-1.87s.649-1.87 1.65-1.87c1 0 1.66.781 1.66 1.87s-.66 1.87-1.66 1.87zm6.675-4.686c-.924 0-1.375.374-1.661.847l-.132-.847h-1.056V8h1.188V5.173c0-.869.34-1.694 1.397-1.694h.528V2.368h-.264zm8.112.88c-.363-.561-.968-.946-1.848-.946-1.529 0-2.662 1.133-2.662 2.86 0 1.793 1.133 2.86 2.662 2.86.88 0 1.463-.363 1.837-.924v.627c0 1.078-.583 1.573-1.617 1.573-.836 0-1.386-.363-1.529-.99h-1.21c.11 1.265 1.155 1.958 2.651 1.958 2.024 0 2.882-.968 2.882-2.497V2.368h-1.034l-.132.88zm-1.65 3.773c-.99 0-1.639-.759-1.639-1.859 0-1.089.649-1.859 1.639-1.859s1.639.77 1.639 1.881c0 1.078-.649 1.837-1.639 1.837zm3.977.979h1.188V.3h-1.188V8zm5.014.066c1.716 0 2.871-1.155 2.871-2.882 0-1.716-1.155-2.882-2.871-2.882s-2.871 1.166-2.871 2.882c0 1.727 1.155 2.882 2.871 2.882zm0-1.012c-1.001 0-1.65-.781-1.65-1.87s.649-1.87 1.65-1.87 1.661.781 1.661 1.87-.66 1.87-1.661 1.87zm6.841-4.752c-.869 0-1.452.396-1.826.902V.3h-1.188V8h1.034l.143-.814c.352.506.957.88 1.837.88 1.54 0 2.662-1.155 2.662-2.882 0-1.815-1.122-2.882-2.662-2.882zm-.198 4.763c-.99 0-1.639-.781-1.639-1.892 0-1.089.649-1.859 1.639-1.859s1.65.77 1.65 1.87c0 1.111-.66 1.881-1.65 1.881zm8.96-.099c-.242 0-.363-.077-.363-.363V4.348c0-1.331-.858-2.046-2.354-2.046-1.419 0-2.365.682-2.486 1.782h1.166c.088-.495.561-.825 1.265-.825.781 0 1.232.385 1.232 1.012v.341h-1.419c-1.573 0-2.409.649-2.409 1.804 0 1.045.858 1.65 2.09 1.65.913 0 1.485-.396 1.859-.968 0 .561.264.902 1.034.902h.627V6.966h-.242zm-1.54-1.276c-.011.869-.583 1.452-1.573 1.452-.649 0-1.045-.33-1.045-.803 0-.572.407-.847 1.144-.847h1.474v.198zM126.342 8h1.188V.3h-1.188V8zm11.646-5.698c-.924 0-1.562.407-1.925 1.023-.341-.726-1.001-1.023-1.738-1.023-.847.011-1.331.385-1.65.803l-.132-.737h-1.034V8h1.188V4.986c0-1.001.506-1.661 1.32-1.661.781 0 1.188.517 1.188 1.507V8h1.199V4.953c0-1.012.517-1.628 1.331-1.628.77 0 1.177.517 1.177 1.507V8h1.188V4.755c0-1.782-.946-2.453-2.112-2.453zm8.337 4.664c-.242 0-.363-.077-.363-.363V4.348c0-1.331-.858-2.046-2.354-2.046-1.419 0-2.365.682-2.486 1.782h1.166c.088-.495.561-.825 1.265-.825.781 0 1.232.385 1.232 1.012v.341h-1.419c-1.573 0-2.409.649-2.409 1.804 0 1.045.858 1.65 2.09 1.65.913 0 1.485-.396 1.859-.968 0 .561.264.902 1.034.902h.627V6.966h-.242zm-1.54-1.276c-.011.869-.583 1.452-1.573 1.452-.649 0-1.045-.33-1.045-.803 0-.572.407-.847 1.144-.847h1.474v.198zm5.278-3.322c-.924 0-1.375.374-1.661.847l-.132-.847h-1.056V8h1.188V5.173c0-.869.341-1.694 1.397-1.694h.528V2.368h-.264zM151.06 8h1.188V6.57l1.012-1.056L154.921 8h1.408l-2.255-3.355 2.123-2.277H154.8l-2.552 2.728V.3h-1.188V8zm8.162.066c1.397 0 2.343-.847 2.541-1.958h-1.188c-.165.627-.693.99-1.419.99-.935 0-1.54-.627-1.573-1.584v-.077h4.246c.022-.154.033-.308.033-.451-.033-1.65-1.122-2.684-2.75-2.684-1.661 0-2.772 1.155-2.772 2.893 0 1.727 1.111 2.871 2.882 2.871zm-1.595-3.498c.088-.803.737-1.309 1.496-1.309.825 0 1.408.473 1.507 1.309h-3.003zm5.559 1.903c0 1.023.462 1.529 1.54 1.529h1.1V6.955h-.836c-.451 0-.605-.165-.605-.605V3.413h1.375V2.368h-1.375V.795h-1.199v1.573h-.979v1.045h.979v3.058zm3.154-.33c.033 1.221 1.067 1.925 2.574 1.925 1.364 0 2.387-.682 2.387-1.76 0-1.254-1.045-1.518-2.332-1.672-.814-.088-1.353-.154-1.353-.682 0-.451.462-.737 1.166-.737s1.188.363 1.254.88h1.166c-.077-1.155-1.056-1.793-2.442-1.793-1.353-.011-2.31.682-2.31 1.749 0 1.166 1.012 1.441 2.299 1.595.869.11 1.386.154 1.386.759 0 .451-.484.737-1.221.737-.858 0-1.364-.418-1.408-1.001h-1.166zm5.696 1.177c0 .44.319.748.759.748s.77-.308.77-.748-.33-.748-.77-.748-.759.308-.759.748z" fill="#000"/></svg>