<svg width="75" height="22" viewBox="0 0 75 22" fill="none" xmlns="http://www.w3.org/2000/svg"><rect width="75" height="22" rx="11" fill="#000"/><path d="M14.2 8.8h2.27V15h.87V8.8h2.27V8H14.2v.8zm8.023 1.1c-.91 0-1.3.38-1.54.77l-.11-.77h-.71V15h.82v-2.6c0-.81.29-1.7 1.36-1.7h.41v-.8h-.23zm5.275 4.35c-.23 0-.33-.07-.33-.34v-2.23c0-1.19-.75-1.84-2.05-1.84-1.23 0-2.04.59-2.16 1.59h.82c.1-.52.58-.86 1.3-.86.8 0 1.27.4 1.27 1.06v.35h-1.5c-1.34 0-2.05.57-2.05 1.59 0 .93.76 1.49 1.88 1.49.88 0 1.39-.39 1.71-.85.01.5.24.79.92.79h.45v-.75h-.26zm-1.15-1.33c0 .85-.59 1.44-1.61 1.44-.68 0-1.11-.34-1.11-.84 0-.58.41-.85 1.14-.85h1.58v.25zm6.002-2.24c-.31-.49-.89-.84-1.75-.84-1.41 0-2.45 1.05-2.45 2.61 0 1.66 1.04 2.61 2.45 2.61.86 0 1.41-.41 1.75-.88l.11.82h.71V8h-.82v2.68zm-1.67 3.65c-1.01 0-1.69-.77-1.69-1.88 0-1.11.68-1.88 1.69-1.88 1 0 1.68.78 1.68 1.9 0 1.09-.68 1.86-1.68 1.86zm5.957.73c1.18 0 2.02-.75 2.22-1.77h-.83c-.17.66-.73 1.04-1.45 1.04-.97 0-1.58-.68-1.61-1.65v-.07h3.96c.01-.12.02-.24.02-.35-.04-1.51-.98-2.42-2.42-2.42s-2.42 1.06-2.42 2.61c0 1.56 1 2.61 2.53 2.61zm-1.62-3.13c.08-.83.77-1.37 1.52-1.37.85 0 1.45.49 1.53 1.37h-3.05zm9.982-2.09c-.86 0-1.38.36-1.68.75l-.11-.69h-.71V15h.82v-2.55c0-1.15.58-1.86 1.54-1.86.89 0 1.38.56 1.38 1.62V15h.82v-2.84c0-1.69-.91-2.32-2.06-2.32zm5.397 5.22c1.49 0 2.53-1.06 2.53-2.61 0-1.55-1.04-2.61-2.53-2.61-1.49 0-2.53 1.06-2.53 2.61 0 1.55 1.04 2.61 2.53 2.61zm0-.73c-1.01 0-1.69-.79-1.69-1.88 0-1.09.68-1.88 1.69-1.88 1.01 0 1.69.79 1.69 1.88 0 1.09-.68 1.88-1.69 1.88zm4.475.67h.9l1.28-3.79L58.28 15h.9l1.7-5.1h-.83l-1.33 4.15-1.27-4.15h-.76l-1.34 4.15-1.27-4.15h-.86l1.65 5.1z" fill="#fff"/></svg>