<svg width="258" height="57" viewBox="0 0 258 57" fill="none" xmlns="http://www.w3.org/2000/svg"><path d="M5.88 20h3.78l3.948-14.42L17.612 20h3.752L26.992.4h-3.304l-4.2 15.512L15.232.4H12.18L7.812 15.912 3.64.372.308.4 5.88 20zM36.278 5.496c-2.24 0-3.612 1.008-4.508 2.24V.4h-3.024V20h3.024v-7.252c0-2.884 1.456-4.648 3.836-4.648 2.24 0 3.444 1.456 3.444 4.172V20h3.024v-7.98c0-4.788-2.604-6.524-5.796-6.524zm12.088 14.588l-.56 1.4c-.448 1.176-.728 1.456-1.904 1.456h-2.128v2.66h3.248c2.1 0 2.716-1.036 3.612-3.36L57.13 5.664h-3.22l-3.892 10.892-4.004-10.892h-3.22l5.572 14.42zM67.364 3.648c1.036 0 1.848-.756 1.848-1.82S68.4.008 67.364.008s-1.848.756-1.848 1.82.812 1.82 1.848 1.82zM65.824 20h3.024V5.664h-3.024V20zm5.372-4.732c.084 3.108 2.716 4.9 6.552 4.9 3.472 0 6.076-1.736 6.076-4.48 0-3.192-2.66-3.864-5.936-4.256-2.072-.224-3.444-.392-3.444-1.736 0-1.148 1.176-1.876 2.968-1.876s3.024.924 3.192 2.24h2.968c-.196-2.94-2.688-4.564-6.216-4.564-3.444-.028-5.88 1.736-5.88 4.452 0 2.968 2.576 3.668 5.852 4.06 2.212.28 3.528.392 3.528 1.932 0 1.148-1.232 1.876-3.108 1.876-2.184 0-3.472-1.064-3.584-2.548h-2.968zm22.532-9.772c-2.324 0-3.696.924-4.592 2.044L88.8 5.664h-2.632V20h3.024v-7.224c0-2.912 1.428-4.676 3.836-4.676 2.268 0 3.416 1.456 3.416 4.172V20h3.052v-7.98c0-4.788-2.604-6.524-5.768-6.524zm9.234-5.264c-1.288 0-2.128.84-2.128 1.904 0 1.176.728 1.792 1.652 1.792.336 0 .672-.112.924-.308.028.14.028.252.028.392 0 .98-.7 2.072-2.464 2.072v1.652c2.772-.028 4.508-1.568 4.508-4.284 0-1.82-.98-3.22-2.52-3.22zm6.445 15.876c0 2.604 1.176 3.892 3.92 3.892h2.8v-2.66h-2.128c-1.148 0-1.54-.42-1.54-1.54V8.324h3.5v-2.66h-3.5V1.66h-3.052v4.004h-2.492v2.66h2.492v7.784zm32.299-10.612c-2.352 0-3.976 1.036-4.9 2.604-.868-1.848-2.548-2.604-4.424-2.604-2.156.028-3.388.98-4.2 2.044l-.336-1.876h-2.632V20h3.024v-7.672c0-2.548 1.288-4.228 3.36-4.228 1.988 0 3.024 1.316 3.024 3.836V20h3.052v-7.756c0-2.576 1.316-4.144 3.388-4.144 1.96 0 2.996 1.316 2.996 3.836V20h3.024v-8.26c0-4.536-2.408-6.244-5.376-6.244zm11.66 14.588l-.56 1.4c-.448 1.176-.728 1.456-1.904 1.456h-2.128v2.66h3.248c2.1 0 2.716-1.036 3.612-3.36l6.496-16.576h-3.22l-3.892 10.892-4.004-10.892h-3.22l5.572 14.42zm18.494-3.976c0 2.604 1.176 3.892 3.92 3.892h2.8v-2.66h-2.128c-1.148 0-1.54-.42-1.54-1.54V8.324h3.5v-2.66h-3.5V1.66h-3.052v4.004h-2.492v2.66h2.492v7.784zm15.896-10.444c-2.352 0-3.5.952-4.228 2.156l-.336-2.156h-2.688V20h3.024v-7.196c0-2.212.868-4.312 3.556-4.312h1.344V5.664h-.672zm15.203 11.704c-.616 0-.924-.196-.924-.924v-5.74c0-3.388-2.184-5.208-5.992-5.208-3.612 0-6.02 1.736-6.328 4.536h2.968c.224-1.26 1.428-2.1 3.22-2.1 1.988 0 3.136.98 3.136 2.576v.868h-3.612c-4.004 0-6.132 1.652-6.132 4.592 0 2.66 2.184 4.2 5.32 4.2 2.324 0 3.78-1.008 4.732-2.464 0 1.428.672 2.296 2.632 2.296h1.596v-2.632h-.616zm-3.92-3.248c-.028 2.212-1.484 3.696-4.004 3.696-1.652 0-2.66-.84-2.66-2.044 0-1.456 1.036-2.156 2.912-2.156h3.752v.504zm16.966-6.468c-.924-1.26-2.464-2.156-4.648-2.156-3.892 0-6.776 2.912-6.776 7.336 0 4.592 2.884 7.336 6.776 7.336 2.268 0 3.752-1.064 4.676-2.324l.364 2.156h2.632V.4h-3.024v7.252zm-4.144 9.968c-2.52 0-4.172-1.96-4.172-4.788 0-2.8 1.652-4.76 4.172-4.76 2.52 0 4.172 1.96 4.172 4.816 0 2.772-1.652 4.732-4.172 4.732zm11.663-13.972c1.036 0 1.848-.756 1.848-1.82s-.812-1.82-1.848-1.82-1.848.756-1.848 1.82.812 1.82 1.848 1.82zM221.984 20h3.024V5.664h-3.024V20zm13.548-14.504c-2.324 0-3.696.924-4.592 2.044l-.336-1.876h-2.632V20h3.024v-7.224c0-2.912 1.428-4.676 3.836-4.676 2.268 0 3.416 1.456 3.416 4.172V20h3.052v-7.98c0-4.788-2.604-6.524-5.768-6.524zm19.466 2.408c-.924-1.428-2.464-2.408-4.704-2.408-3.892 0-6.776 2.884-6.776 7.28 0 4.564 2.884 7.28 6.776 7.28 2.24 0 3.724-.924 4.676-2.352V19.3c0 2.744-1.484 4.004-4.116 4.004-2.128 0-3.528-.924-3.892-2.52h-3.08c.28 3.22 2.94 4.984 6.748 4.984 5.152 0 7.336-2.464 7.336-6.356V5.664h-2.632l-.336 2.24zm-4.2 9.604c-2.52 0-4.172-1.932-4.172-4.732 0-2.772 1.652-4.732 4.172-4.732 2.52 0 4.172 1.96 4.172 4.788 0 2.744-1.652 4.676-4.172 4.676zM.868 46.268c.084 3.108 2.716 4.9 6.552 4.9 3.472 0 6.076-1.736 6.076-4.48 0-3.192-2.66-3.864-5.936-4.256-2.072-.224-3.444-.392-3.444-1.736 0-1.148 1.176-1.876 2.968-1.876s3.024.924 3.192 2.24h2.968c-.196-2.94-2.688-4.564-6.216-4.564-3.444-.028-5.88 1.736-5.88 4.452 0 2.968 2.576 3.668 5.852 4.06 2.212.28 3.528.392 3.528 1.932 0 1.148-1.232 1.876-3.108 1.876-2.184 0-3.472-1.064-3.584-2.548H.868zm16.008.84c0 2.604 1.175 3.892 3.92 3.892h2.8v-2.66h-2.128c-1.148 0-1.54-.42-1.54-1.54v-7.476h3.5v-2.66h-3.5V32.66h-3.053v4.004h-2.492v2.66h2.492v7.784zM32.77 36.664c-2.352 0-3.5.952-4.228 2.156l-.336-2.156H25.52V51h3.024v-7.196c0-2.212.868-4.312 3.556-4.312h1.344v-2.828h-.672zm15.204 11.704c-.616 0-.924-.196-.924-.924v-5.74c0-3.388-2.184-5.208-5.992-5.208-3.612 0-6.02 1.736-6.328 4.536h2.968c.224-1.26 1.428-2.1 3.22-2.1 1.988 0 3.136.98 3.136 2.576v.868h-3.612c-4.004 0-6.132 1.652-6.132 4.592 0 2.66 2.184 4.2 5.32 4.2 2.324 0 3.78-1.008 4.732-2.464 0 1.428.672 2.296 2.632 2.296h1.596v-2.632h-.616zm-3.92-3.248c-.028 2.212-1.484 3.696-4.004 3.696-1.652 0-2.66-.84-2.66-2.044 0-1.456 1.036-2.156 2.912-2.156h3.752v.504zm7.219 1.988c0 2.604 1.176 3.892 3.92 3.892h2.8v-2.66h-2.128c-1.148 0-1.54-.42-1.54-1.54v-7.476h3.5v-2.66h-3.5V32.66h-3.052v4.004h-2.492v2.66h2.492v7.784zm15.147 4.06c3.556 0 5.964-2.156 6.468-4.984h-3.024c-.42 1.596-1.764 2.52-3.612 2.52-2.38 0-3.92-1.596-4.004-4.032v-.196h10.808c.056-.392.084-.784.084-1.148-.084-4.2-2.856-6.832-7-6.832-4.228 0-7.056 2.94-7.056 7.364 0 4.396 2.828 7.308 7.336 7.308zm-4.06-8.904c.224-2.044 1.876-3.332 3.808-3.332 2.1 0 3.584 1.204 3.836 3.332H62.36zm24.173-3.36c-.924-1.428-2.464-2.408-4.704-2.408-3.892 0-6.776 2.884-6.776 7.28 0 4.564 2.884 7.28 6.776 7.28 2.24 0 3.724-.924 4.676-2.352V50.3c0 2.744-1.484 4.004-4.116 4.004-2.128 0-3.528-.924-3.892-2.52h-3.08c.28 3.22 2.94 4.984 6.748 4.984 5.152 0 7.336-2.464 7.336-6.356V36.664H86.87l-.336 2.24zm-4.2 9.604c-2.52 0-4.172-1.932-4.172-4.732 0-2.772 1.652-4.732 4.172-4.732 2.52 0 4.172 1.96 4.172 4.788 0 2.744-1.652 4.676-4.172 4.676zM96.6 51.084l-.56 1.4c-.448 1.176-.728 1.456-1.904 1.456h-2.128v2.66h3.248c2.1 0 2.716-1.036 3.612-3.36l6.496-16.576h-3.22l-3.892 10.892-4.004-10.892h-3.22l5.572 14.42zM117.362 51h3.276l3.136-9.744L126.798 51h3.248l4.76-14.336h-3.08l-3.388 10.976-3.136-10.976h-2.772l-3.276 10.976-3.276-10.976h-3.192L117.362 51zm25.32.168c4.368 0 7.308-2.94 7.308-7.336 0-4.368-2.94-7.336-7.308-7.336s-7.308 2.968-7.308 7.336c0 4.396 2.94 7.336 7.308 7.336zm0-2.576c-2.548 0-4.2-1.988-4.2-4.76s1.652-4.76 4.2-4.76 4.228 1.988 4.228 4.76-1.68 4.76-4.228 4.76zm16.992-11.928c-2.352 0-3.5.952-4.228 2.156l-.336-2.156h-2.688V51h3.024v-7.196c0-2.212.868-4.312 3.556-4.312h1.344v-2.828h-.672zM162.211 51h3.024v-3.64l2.576-2.688L172.039 51h3.584l-5.74-8.54 5.404-5.796h-3.556l-6.496 6.944V31.4h-3.024V51zm16.415-16.352c1.036 0 1.848-.756 1.848-1.82s-.812-1.82-1.848-1.82-1.848.756-1.848 1.82.812 1.82 1.848 1.82zM177.086 51h3.024V36.664h-3.024V51zm13.548-14.504c-2.324 0-3.696.924-4.592 2.044l-.336-1.876h-2.632V51h3.024v-7.224c0-2.912 1.428-4.676 3.836-4.676 2.268 0 3.416 1.456 3.416 4.172V51h3.052v-7.98c0-4.788-2.604-6.524-5.768-6.524zm19.466 2.408c-.924-1.428-2.464-2.408-4.704-2.408-3.892 0-6.776 2.884-6.776 7.28 0 4.564 2.884 7.28 6.776 7.28 2.24 0 3.724-.924 4.676-2.352V50.3c0 2.744-1.484 4.004-4.116 4.004-2.128 0-3.528-.924-3.892-2.52h-3.08c.28 3.22 2.94 4.984 6.748 4.984 5.152 0 7.336-2.464 7.336-6.356V36.664h-2.632l-.336 2.24zm-4.2 9.604c-2.52 0-4.172-1.932-4.172-4.732 0-2.772 1.652-4.732 4.172-4.732 2.52 0 4.172 1.96 4.172 4.788 0 2.744-1.652 4.676-4.172 4.676zm12.531-10.696c0-2.324 1.4-3.892 3.556-3.892 1.876 0 3.136 1.12 3.136 2.716 0 1.344-.728 2.24-1.988 3.08-1.68 1.092-2.996 2.016-2.996 4.284v.896h2.856v-.56c0-1.4.952-2.128 2.464-3.164 1.456-1.036 2.8-2.268 2.8-4.844 0-2.94-2.408-5.096-6.3-5.096-4.172 0-6.608 2.94-6.608 6.58h3.08zm1.288 11.48c0 1.12.84 1.876 1.932 1.876s1.904-.756 1.904-1.876c0-1.12-.812-1.876-1.904-1.876-1.092 0-1.932.756-1.932 1.876z" fill="#000"/></svg>