<svg width="165" height="11" viewBox="0 0 165 11" fill="none" xmlns="http://www.w3.org/2000/svg"><path d="M1.767 8V3.049L5.17 8h1.048V1.012H5.091v4.952L1.687 1.012H.639V8h1.128zm10.287-.938c-.22 0-.33-.07-.33-.33V4.686c0-1.208-.778-1.857-2.136-1.857-1.287 0-2.146.619-2.256 1.617H8.39c.08-.449.51-.748 1.148-.748.71 0 1.118.349 1.118.918v.31H9.37c-1.428 0-2.186.588-2.186 1.637 0 .948.778 1.497 1.896 1.497.829 0 1.348-.36 1.687-.879 0 .51.24.819.939.819h.569v-.938h-.22zm-1.398-1.158c-.01.788-.529 1.317-1.427 1.317-.589 0-.948-.3-.948-.728 0-.52.369-.769 1.038-.769h1.337v.18zM14.024 8h1.318l1.886-5.111H16.09l-1.387 3.953-1.408-3.953h-1.158L14.024 8zm4.3-5.83c.368 0 .658-.27.658-.649s-.29-.648-.659-.648c-.37 0-.659.27-.659.648 0 .38.29.65.66.65zM17.773 8h1.078V2.889h-1.078V8zm6.038-4.312c-.33-.51-.878-.859-1.677-.859-1.387 0-2.416 1.028-2.416 2.596 0 1.627 1.029 2.595 2.416 2.595.799 0 1.328-.33 1.667-.839v.57c0 .978-.529 1.427-1.467 1.427-.759 0-1.258-.33-1.388-.898H19.85c.1 1.147 1.048 1.776 2.406 1.776 1.837 0 2.615-.878 2.615-2.266V2.89h-.938l-.12.799zm-1.497 3.424c-.899 0-1.488-.69-1.488-1.687 0-.989.59-1.688 1.488-1.688s1.487.7 1.487 1.707c0 .979-.589 1.668-1.487 1.668zm8.28-.05c-.219 0-.329-.07-.329-.33V4.686c0-1.208-.778-1.857-2.136-1.857-1.288 0-2.146.619-2.256 1.617h1.058c.08-.449.51-.748 1.148-.748.709 0 1.118.349 1.118.918v.31H27.91c-1.427 0-2.186.588-2.186 1.637 0 .948.779 1.497 1.897 1.497.828 0 1.348-.36 1.687-.879 0 .51.24.819.938.819h.57v-.938h-.22zm-1.397-1.158c-.01.788-.529 1.317-1.427 1.317-.59 0-.949-.3-.949-.728 0-.52.37-.769 1.038-.769h1.338v.18zm2.574.708c0 .929.42 1.388 1.397 1.388h.999v-.948h-.759c-.41 0-.549-.15-.549-.55V3.838h1.248V2.89H32.86V1.462h-1.088v1.427h-.889v.948h.889v2.775zm5.4 1.448c1.268 0 2.126-.769 2.306-1.777H38.4c-.15.569-.63.898-1.288.898-.848 0-1.398-.569-1.427-1.437v-.07h3.853c.02-.14.03-.28.03-.41-.03-1.497-1.018-2.435-2.496-2.435-1.507 0-2.515 1.048-2.515 2.625 0 1.568 1.008 2.606 2.615 2.606zm-1.447-3.175c.08-.728.668-1.187 1.357-1.187.749 0 1.278.429 1.368 1.187h-2.726zm7.338.12c0 1.987.939 3.055 2.745 3.055 1.817 0 2.766-1.068 2.766-3.055V1.012h-1.148v4.053c0 1.298-.5 1.977-1.617 1.977-1.099 0-1.598-.68-1.598-1.977V1.012h-1.148v3.993zm6.468.699c.04 1.398 1.088 2.356 2.825 2.356 1.537 0 2.585-.869 2.585-2.126.01-1.378-1.118-1.747-2.276-1.957-1.098-.19-1.817-.34-1.817-1.058 0-.659.55-.998 1.338-.998.849 0 1.408.479 1.497 1.188h1.148C54.781 1.82 53.783.952 52.186.952 50.7.952 49.7 1.781 49.7 3c0 1.387 1.098 1.757 2.256 1.956 1.108.2 1.837.36 1.837 1.098 0 .67-.599 1.039-1.427 1.039-.978 0-1.617-.55-1.677-1.368l-1.158-.02zM60.82 8.06c1.269 0 2.127-.769 2.307-1.777H62.05c-.15.569-.63.898-1.288.898-.849 0-1.398-.569-1.428-1.437v-.07h3.854c.02-.14.03-.28.03-.41-.03-1.497-1.019-2.435-2.496-2.435-1.507 0-2.516 1.048-2.516 2.625 0 1.568 1.009 2.606 2.616 2.606zm-1.447-3.175c.08-.728.67-1.187 1.358-1.187.749 0 1.278.429 1.368 1.187h-2.726zm9.387 2.177c-.22 0-.33-.07-.33-.33V4.686c0-1.208-.778-1.857-2.136-1.857-1.287 0-2.146.619-2.256 1.617h1.058c.08-.449.51-.748 1.148-.748.71 0 1.118.349 1.118.918v.31h-1.287c-1.428 0-2.186.588-2.186 1.637 0 .948.778 1.497 1.896 1.497.829 0 1.348-.36 1.687-.879 0 .51.24.819.939.819h.569v-.938h-.22zm-1.398-1.158c-.01.788-.529 1.317-1.427 1.317-.589 0-.948-.3-.948-.728 0-.52.369-.769 1.038-.769h1.337v.18zm4.79-3.015c-.838 0-1.248.34-1.507.769l-.12-.769h-.958V8h1.078V5.435c0-.79.31-1.538 1.268-1.538h.479V2.89h-.24zm3.6-.06c-.829 0-1.318.33-1.637.729l-.12-.669h-.938V8h1.078V5.425c0-1.039.509-1.668 1.368-1.668.808 0 1.217.52 1.217 1.488V8h1.088V5.155c0-1.707-.928-2.326-2.056-2.326zm3.586-.659c.37 0 .659-.27.659-.649s-.29-.648-.66-.648c-.368 0-.658.27-.658.648 0 .38.29.65.659.65zM78.789 8h1.079V2.889H78.79V8zm4.831-5.17c-.829 0-1.318.329-1.637.728l-.12-.669h-.938V8h1.078V5.425c0-1.039.509-1.668 1.368-1.668.808 0 1.217.52 1.217 1.488V8h1.089V5.155c0-1.707-.929-2.326-2.057-2.326zm6.94.858c-.33-.51-.878-.859-1.677-.859-1.388 0-2.416 1.028-2.416 2.596 0 1.627 1.028 2.595 2.416 2.595.799 0 1.328-.33 1.667-.839v.57c0 .978-.529 1.427-1.467 1.427-.759 0-1.258-.33-1.388-.898h-1.098c.1 1.147 1.048 1.776 2.406 1.776 1.837 0 2.615-.878 2.615-2.266V2.89h-.938l-.12.799zm-1.497 3.424c-.899 0-1.488-.69-1.488-1.687 0-.989.59-1.688 1.488-1.688s1.487.7 1.487 1.707c0 .979-.589 1.668-1.487 1.668zm3.39-.799c.03 1.108.967 1.747 2.335 1.747 1.238 0 2.166-.619 2.166-1.597 0-1.138-.948-1.378-2.116-1.518-.739-.08-1.228-.14-1.228-.619 0-.409.42-.668 1.058-.668.64 0 1.078.33 1.138.798h1.058c-.07-1.048-.958-1.627-2.216-1.627-1.228-.01-2.096.619-2.096 1.587 0 1.058.918 1.308 2.086 1.448.789.1 1.258.14 1.258.689 0 .409-.44.668-1.108.668-.779 0-1.238-.379-1.278-.908h-1.058zM101.521 8h1.168l1.118-3.474L104.886 8h1.158l1.697-5.111h-1.098l-1.208 3.913-1.118-3.913h-.988l-1.168 3.913-1.168-3.913h-1.138L101.522 8zm7.335-5.83c.37 0 .659-.27.659-.649a.637.637 0 00-.659-.648.637.637 0 00-.658.648c0 .38.289.65.658.65zM108.308 8h1.078V2.889h-1.078V8zm2.505-1.388c0 .929.419 1.388 1.397 1.388h.998v-.948h-.758c-.41 0-.549-.15-.549-.55V3.838h1.247V2.89h-1.247V1.462h-1.088v1.427h-.889v.948h.889v2.775zm5.766-3.783c-.798 0-1.287.36-1.607.799V1.012h-1.078V8h1.078V5.415c0-1.029.519-1.658 1.368-1.658.798 0 1.228.52 1.228 1.488V8h1.078V5.155c0-1.707-.929-2.326-2.067-2.326zm8.337 0c-.799 0-1.328.37-1.667.819l-.13-.759h-.939v7.107h1.079V7.281c.319.46.868.779 1.657.779 1.397 0 2.415-1.038 2.415-2.616 0-1.637-1.018-2.615-2.415-2.615zm-.18 4.322c-.899 0-1.487-.708-1.487-1.726 0-.989.588-1.678 1.487-1.678.898 0 1.497.69 1.497 1.697 0 .999-.599 1.707-1.497 1.707zm6.045-4.262c-.839 0-1.248.34-1.508.769l-.119-.769h-.959V8h1.078V5.435c0-.79.31-1.538 1.268-1.538h.479V2.89h-.239zm3.086 5.17c1.268 0 2.126-.768 2.306-1.776h-1.078c-.15.569-.629.898-1.288.898-.848 0-1.397-.569-1.427-1.437v-.07h3.853c.02-.14.03-.28.03-.41-.03-1.497-1.018-2.435-2.496-2.435-1.507 0-2.515 1.048-2.515 2.625 0 1.568 1.008 2.606 2.615 2.606zm-1.447-3.174c.08-.728.669-1.187 1.357-1.187.749 0 1.278.429 1.368 1.187h-2.725zm7.06 3.175c1.308 0 2.177-.729 2.376-1.887h-1.138c-.129.59-.569.969-1.228.969-.868 0-1.437-.69-1.437-1.688 0-1.008.569-1.707 1.437-1.707.669 0 1.099.37 1.238.969h1.128c-.209-1.158-1.028-1.887-2.346-1.887-1.547 0-2.565 1.048-2.565 2.625 0 1.598.988 2.606 2.535 2.606zm3.75-5.89c.37 0 .659-.27.659-.649a.637.637 0 00-.659-.648.637.637 0 00-.658.648c0 .38.289.65.658.65zM142.681 8h1.079V2.889h-1.079V8zm1.916-1.687c.03 1.108.968 1.747 2.336 1.747 1.237 0 2.166-.619 2.166-1.597 0-1.138-.948-1.378-2.116-1.518-.739-.08-1.228-.14-1.228-.619 0-.409.419-.668 1.058-.668s1.078.33 1.138.798h1.058c-.07-1.048-.958-1.627-2.216-1.627-1.228-.01-2.096.619-2.096 1.587 0 1.058.918 1.308 2.086 1.448.789.1 1.258.14 1.258.689 0 .409-.44.668-1.108.668-.779 0-1.238-.379-1.278-.908h-1.058zm5.886-4.143c.37 0 .659-.27.659-.649a.637.637 0 00-.659-.648.637.637 0 00-.658.648c0 .38.289.65.658.65zM149.934 8h1.078V2.889h-1.078V8zm4.551.06c1.557 0 2.605-1.048 2.605-2.616 0-1.557-1.048-2.615-2.605-2.615s-2.605 1.058-2.605 2.615c0 1.568 1.048 2.616 2.605 2.616zm0-.918c-.908 0-1.497-.71-1.497-1.698s.589-1.697 1.497-1.697c.908 0 1.507.71 1.507 1.697 0 .989-.599 1.698-1.507 1.698zm6.168-4.313c-.829 0-1.318.33-1.638.729l-.119-.669h-.939V8h1.078V5.425c0-1.039.51-1.668 1.368-1.668.809 0 1.218.52 1.218 1.488V8h1.088V5.155c0-1.707-.928-2.326-2.056-2.326zm2.937 4.552c0 .4.289.679.688.679.4 0 .699-.28.699-.679 0-.4-.299-.679-.699-.679-.399 0-.688.28-.688.68z" fill="url(#paint0_linear_409_4939)"/><defs><linearGradient id="paint0_linear_409_4939" x1="170" y1="4.5" x2="0" y2="4.5" gradientUnits="userSpaceOnUse"><stop stop-color="#FF4343"/><stop offset=".5" stop-color="#9C0B93"/><stop offset="1" stop-color="#4C1BB7"/></linearGradient></defs></svg>