<svg width="263" height="16" viewBox="0 0 263 16" fill="none" xmlns="http://www.w3.org/2000/svg"><path d="M.088 12.5h1.955V.6H.088v11.9zm8.35-8.704c-1.428 0-2.125.578-2.567 1.309l-.204-1.309H4.035V12.5H5.87V8.131c0-1.343.527-2.618 2.159-2.618h.816V3.796h-.408zm5.24 8.806c2.651 0 4.436-1.785 4.436-4.454 0-2.652-1.785-4.454-4.437-4.454S9.24 5.496 9.24 8.148c0 2.669 1.785 4.454 4.437 4.454zm0-1.564c-1.548 0-2.55-1.207-2.55-2.89s1.002-2.89 2.55-2.89c1.546 0 2.566 1.207 2.566 2.89s-1.02 2.89-2.567 2.89zM24.18 3.694c-1.41 0-2.244.561-2.788 1.241l-.203-1.139H19.59V12.5h1.837V8.114c0-1.768.867-2.839 2.329-2.839 1.377 0 2.073.884 2.073 2.533V12.5h1.854V7.655c0-2.907-1.581-3.961-3.503-3.961zm13.636 8.908c2.652 0 4.437-1.785 4.437-4.454 0-2.652-1.785-4.454-4.437-4.454s-4.437 1.802-4.437 4.454c0 2.669 1.785 4.454 4.437 4.454zm0-1.564c-1.547 0-2.55-1.207-2.55-2.89s1.003-2.89 2.55-2.89 2.567 1.207 2.567 2.89-1.02 2.89-2.567 2.89zm10.316-7.242c-1.428 0-2.125.578-2.567 1.309l-.204-1.309H43.73V12.5h1.836V8.131c0-1.343.527-2.618 2.16-2.618h.815V3.796h-.408zm5.256 8.806c2.16 0 3.621-1.309 3.927-3.026H55.48c-.255.969-1.07 1.53-2.193 1.53-1.445 0-2.38-.969-2.43-2.448v-.119h6.561c.034-.238.051-.476.051-.697-.05-2.55-1.734-4.148-4.25-4.148-2.567 0-4.284 1.785-4.284 4.471 0 2.669 1.717 4.437 4.454 4.437zm-2.465-5.406c.136-1.241 1.14-2.023 2.312-2.023 1.275 0 2.176.731 2.33 2.023h-4.642zM65.648 12.5h2.244l3.213-8.704h-1.938l-2.363 6.732-2.397-6.732h-1.972l3.213 8.704zm10.102.102c2.652 0 4.437-1.785 4.437-4.454 0-2.652-1.785-4.454-4.437-4.454s-4.437 1.802-4.437 4.454c0 2.669 1.785 4.454 4.437 4.454zm0-1.564c-1.547 0-2.55-1.207-2.55-2.89s1.003-2.89 2.55-2.89 2.567 1.207 2.567 2.89-1.02 2.89-2.567 2.89zm5.914 1.462H83.5V.6h-1.836v11.9zm11.591-1.598c-.374 0-.56-.119-.56-.561V6.856c0-2.057-1.327-3.162-3.639-3.162-2.193 0-3.655 1.054-3.842 2.754h1.802c.136-.765.867-1.275 1.955-1.275 1.207 0 1.904.595 1.904 1.564v.527h-2.193c-2.43 0-3.723 1.003-3.723 2.788 0 1.615 1.326 2.55 3.23 2.55 1.411 0 2.295-.612 2.873-1.496 0 .867.408 1.394 1.598 1.394h.97v-1.598h-.375zm-2.38-1.972c-.017 1.343-.9 2.244-2.43 2.244-1.004 0-1.616-.51-1.616-1.241 0-.884.63-1.309 1.768-1.309h2.278v.306zm4.383 1.207c0 1.581.715 2.363 2.38 2.363h1.7v-1.615h-1.291c-.697 0-.935-.255-.935-.935V5.411h2.125V3.796h-2.125V1.365h-1.853v2.431h-1.513v1.615h1.513v4.726zm6.183-7.565c.629 0 1.122-.459 1.122-1.105 0-.646-.493-1.105-1.122-1.105-.629 0-1.122.459-1.122 1.105 0 .646.493 1.105 1.122 1.105zm-.935 9.928h1.836V3.796h-1.836V12.5zm3.636 0h1.836V.6h-1.836v11.9zm4.571-9.928c.629 0 1.122-.459 1.122-1.105 0-.646-.493-1.105-1.122-1.105-.629 0-1.122.459-1.122 1.105 0 .646.493 1.105 1.122 1.105zm-.935 9.928h1.836V3.796h-1.836V12.5zm4.265-2.363c0 1.581.714 2.363 2.38 2.363h1.7v-1.615h-1.292c-.697 0-.935-.255-.935-.935V5.411h2.125V3.796h-2.125V1.365h-1.853v2.431h-1.513v1.615h1.513v4.726zm7.764 2.414l-.34.85c-.272.714-.442.884-1.156.884h-1.292V15.9h1.972c1.275 0 1.649-.629 2.193-2.04l3.944-10.064h-1.955l-2.363 6.613-2.431-6.613h-1.955l3.383 8.755zm5.166-1.105c0 .68.493 1.156 1.173 1.156s1.19-.476 1.19-1.156c0-.68-.51-1.156-1.19-1.156-.68 0-1.173.476-1.173 1.156zm11.943-3.349V12.5h1.955V8.097L143.308.6h-2.193l-3.213 5.44L134.774.6h-2.295l4.437 7.497zm9.989 4.505c2.652 0 4.437-1.785 4.437-4.454 0-2.652-1.785-4.454-4.437-4.454s-4.437 1.802-4.437 4.454c0 2.669 1.785 4.454 4.437 4.454zm0-1.564c-1.547 0-2.55-1.207-2.55-2.89s1.003-2.89 2.55-2.89 2.567 1.207 2.567 2.89-1.02 2.89-2.567 2.89zm11.88-2.89c0 1.802-.85 2.856-2.244 2.856-1.343 0-2.023-.867-2.023-2.567V3.796h-1.836v4.845c0 2.975 1.581 3.961 3.434 3.961 1.343 0 2.142-.544 2.686-1.207l.204 1.105h1.615V3.796h-1.836v4.352zm8.048-4.352c-1.428 0-2.125.578-2.567 1.309l-.204-1.309h-1.632V12.5h1.836V8.131c0-1.343.527-2.618 2.159-2.618h.816V3.796h-.408zm10.004 8.806c2.652 0 4.437-1.785 4.437-4.454 0-2.652-1.785-4.454-4.437-4.454S172.4 5.496 172.4 8.148c0 2.669 1.785 4.454 4.437 4.454zm0-1.564c-1.547 0-2.55-1.207-2.55-2.89s1.003-2.89 2.55-2.89 2.567 1.207 2.567 2.89-1.02 2.89-2.567 2.89zm10.572-7.344c-1.36 0-2.261.629-2.839 1.394l-.221-1.292h-1.598V15.9h1.836v-4.624c.544.782 1.479 1.326 2.822 1.326 2.38 0 4.114-1.768 4.114-4.454 0-2.788-1.734-4.454-4.114-4.454zm-.306 7.361c-1.53 0-2.533-1.207-2.533-2.941 0-1.683 1.003-2.856 2.533-2.856s2.55 1.173 2.55 2.89c0 1.7-1.02 2.907-2.55 2.907zm10.549-7.361c-1.36 0-2.261.629-2.839 1.394l-.221-1.292h-1.598V15.9h1.836v-4.624c.544.782 1.479 1.326 2.822 1.326 2.38 0 4.114-1.768 4.114-4.454 0-2.788-1.734-4.454-4.114-4.454zm-.306 7.361c-1.53 0-2.533-1.207-2.533-2.941 0-1.683 1.003-2.856 2.533-2.856s2.55 1.173 2.55 2.89c0 1.7-1.02 2.907-2.55 2.907zm10.005 1.547c2.652 0 4.437-1.785 4.437-4.454 0-2.652-1.785-4.454-4.437-4.454s-4.437 1.802-4.437 4.454c0 2.669 1.785 4.454 4.437 4.454zm0-1.564c-1.547 0-2.55-1.207-2.55-2.89s1.003-2.89 2.55-2.89 2.567 1.207 2.567 2.89-1.02 2.89-2.567 2.89zm10.316-7.242c-1.428 0-2.125.578-2.567 1.309l-.204-1.309h-1.632V12.5h1.836V8.131c0-1.343.527-2.618 2.159-2.618h.816V3.796h-.408zm2.485 6.341c0 1.581.714 2.363 2.38 2.363h1.7v-1.615h-1.292c-.697 0-.935-.255-.935-.935V5.411h2.125V3.796h-2.125V1.365h-1.853v2.431h-1.513v1.615h1.513v4.726zm11.215-1.989c0 1.802-.85 2.856-2.244 2.856-1.343 0-2.023-.867-2.023-2.567V3.796h-1.836v4.845c0 2.975 1.581 3.961 3.434 3.961 1.343 0 2.142-.544 2.686-1.207l.204 1.105h1.615V3.796h-1.836v4.352zm8.235-4.454c-1.411 0-2.244.561-2.788 1.241l-.204-1.139h-1.598V12.5h1.836V8.114c0-1.768.867-2.839 2.329-2.839 1.377 0 2.074.884 2.074 2.533V12.5h1.853V7.655c0-2.907-1.581-3.961-3.502-3.961zm6.107-1.122c.629 0 1.122-.459 1.122-1.105 0-.646-.493-1.105-1.122-1.105-.629 0-1.122.459-1.122 1.105 0 .646.493 1.105 1.122 1.105zm-.935 9.928h1.836V3.796h-1.836V12.5zm4.265-2.363c0 1.581.714 2.363 2.38 2.363h1.7v-1.615h-1.292c-.697 0-.935-.255-.935-.935V5.411h2.125V3.796h-2.125V1.365h-1.853v2.431h-1.513v1.615h1.513v4.726zm7.764 2.414l-.34.85c-.272.714-.442.884-1.156.884h-1.292V15.9h1.972c1.275 0 1.649-.629 2.193-2.04l3.944-10.064h-1.955l-2.363 6.613-2.431-6.613h-1.955l3.383 8.755z" fill="#000"/></svg>