<svg width="208" height="11" viewBox="0 0 208 11" fill="none" xmlns="http://www.w3.org/2000/svg"><path d="M3.63 8.06c1.4 0 2.23-.77 2.53-1.61L6.19 8h.47V4.35H3.84v.5h2.3v.3c0 1.37-.95 2.41-2.5 2.41-1.57 0-2.61-1.26-2.61-3.06 0-1.79 1.04-3.06 2.66-3.06 1.18 0 2 .61 2.29 1.71h.58C6.27 1.75 5.18.94 3.71.94 1.73.94.47 2.4.47 4.5c0 2.11 1.29 3.56 3.16 3.56zm6.603 0c1.11 0 1.96-.72 2.18-1.74h-.52c-.2.79-.87 1.28-1.7 1.28-1.13 0-1.84-.86-1.86-2.04v-.09h4.14c0-.07.01-.15.01-.21-.05-1.51-.98-2.39-2.34-2.39-1.39 0-2.34 1.06-2.34 2.56 0 1.59.99 2.63 2.43 2.63zm-1.86-3.02c.08-1.03.85-1.72 1.78-1.72.99 0 1.7.61 1.78 1.72h-3.56zm5.42 1.78c0 .81.33 1.18 1.19 1.18h.74v-.47h-.7c-.53 0-.72-.2-.72-.72V3.4h1.37v-.47h-1.37V1.51h-.51v1.42h-.96v.47h.96v3.42zm7.47-3.89c-.94 0-1.34.45-1.55 1.01l-.08-1.01h-.44V8h.51V5.43c0-1.03.27-2.01 1.46-2.01h.37v-.49h-.27zm2.905 5.13c1.11 0 1.96-.72 2.18-1.74h-.52c-.2.79-.87 1.28-1.7 1.28-1.13 0-1.84-.86-1.86-2.04v-.09h4.14c0-.07.01-.15.01-.21-.05-1.51-.98-2.39-2.34-2.39-1.39 0-2.34 1.06-2.34 2.56 0 1.59.99 2.63 2.43 2.63zm-1.86-3.02c.08-1.03.85-1.72 1.78-1.72.99 0 1.7.61 1.78 1.72h-3.56zm9.578 2.49c-.3 0-.45-.1-.45-.49V4.68c0-1.16-.71-1.81-1.98-1.81-1.16 0-1.93.56-2.06 1.48h.51c.13-.62.67-1.03 1.53-1.03.95 0 1.49.5 1.49 1.34v.44h-1.72c-1.3 0-2 .56-2 1.51 0 .9.71 1.45 1.79 1.45 1.03 0 1.64-.47 1.95-1.1v.18c-.02.6.23.86.83.86h.3v-.47h-.19zm-.96-1.58c0 .97-.69 1.67-1.89 1.67-.81 0-1.31-.41-1.31-1.04 0-.67.5-1.04 1.44-1.04h1.76v.41zM32.758 8h.51V1h-.51v7zm4.93-2.63v-.43h-3.23v.43h3.23zm1.388 1.45c0 .81.33 1.18 1.19 1.18h.74v-.47h-.7c-.53 0-.72-.2-.72-.72V3.4h1.37v-.47h-1.37V1.51h-.51v1.42h-.96v.47h.96v3.42zm2.966-4.96c.2 0 .36-.15.36-.36s-.16-.36-.36-.36c-.2 0-.36.15-.36.36s.16.36.36.36zM41.782 8h.51V2.93h-.51V8zm7.369-5.13c-.93 0-1.53.52-1.82 1.27-.24-.84-.87-1.27-1.67-1.27-.87 0-1.39.51-1.65 1.14l-.08-1.08h-.44V8H44V5.42c0-1.24.6-2.08 1.57-2.08.88 0 1.43.62 1.43 1.79V8h.51V5.24c.03-1.16.63-1.9 1.58-1.9.88 0 1.41.59 1.41 1.74V8h.52V5.06c0-1.53-.81-2.19-1.87-2.19zm5.164 5.19c1.11 0 1.96-.72 2.18-1.74h-.52c-.2.79-.87 1.28-1.7 1.28-1.13 0-1.84-.86-1.86-2.04v-.09h4.14c0-.07.01-.15.01-.21-.05-1.51-.98-2.39-2.34-2.39-1.39 0-2.34 1.06-2.34 2.56 0 1.59.99 2.63 2.43 2.63zm-1.86-3.02c.08-1.03.85-1.72 1.78-1.72.99 0 1.7.61 1.78 1.72h-3.56zm8.193 1.78c0 .81.33 1.18 1.19 1.18h.74v-.47h-.7c-.53 0-.72-.2-.72-.72V3.4h1.37v-.47h-1.37V1.51h-.51v1.42h-.96v.47h.96v3.42zm4.776-3.89c-.94 0-1.34.45-1.55 1.01l-.08-1.01h-.44V8h.51V5.43c0-1.03.27-2.01 1.46-2.01h.37v-.49h-.27zm5.27 4.6c-.3 0-.45-.1-.45-.49V4.68c0-1.16-.71-1.81-1.98-1.81-1.16 0-1.93.56-2.06 1.48h.51c.13-.62.67-1.03 1.53-1.03.95 0 1.49.5 1.49 1.34v.44h-1.72c-1.3 0-2 .56-2 1.51 0 .9.71 1.45 1.79 1.45 1.03 0 1.64-.47 1.95-1.1v.18c-.02.6.23.86.83.86h.3v-.47h-.19zm-.96-1.58c0 .97-.69 1.67-1.89 1.67-.81 0-1.31-.41-1.31-1.04 0-.67.5-1.04 1.44-1.04h1.76v.41zm5.895-1.88c-.31-.72-.99-1.2-1.94-1.2-1.39 0-2.39 1.06-2.39 2.59 0 1.6 1 2.6 2.39 2.6.95 0 1.61-.51 1.93-1.22l.08 1.16h.44V1h-.51v3.07zm-1.9 3.53c-1.13 0-1.91-.88-1.91-2.14 0-1.25.78-2.14 1.91-2.14s1.91.89 1.91 2.15c0 1.25-.78 2.13-1.91 2.13zm5.85.46c1.11 0 1.96-.72 2.18-1.74h-.52c-.2.79-.87 1.28-1.7 1.28-1.13 0-1.84-.86-1.86-2.04v-.09h4.14c0-.07.01-.15.01-.21-.05-1.51-.98-2.39-2.34-2.39-1.39 0-2.34 1.06-2.34 2.56 0 1.59.99 2.63 2.43 2.63zm-1.86-3.02c.08-1.03.85-1.72 1.78-1.72.99 0 1.7.61 1.78 1.72h-3.56zm7.583 1.4c.04 1.05.89 1.62 2.16 1.62 1.09 0 1.97-.55 1.97-1.45 0-1.07-.94-1.28-2.03-1.43-.79-.11-1.49-.2-1.49-.91 0-.58.57-.96 1.43-.96.81 0 1.39.39 1.48 1.05h.52c-.09-.99-.9-1.49-2-1.49-1.13-.01-1.94.57-1.94 1.44 0 1.02.94 1.21 1.98 1.35.85.12 1.54.23 1.54.98 0 .6-.63.98-1.46.98-.97 0-1.6-.45-1.64-1.18h-.52zm5.363-4.58c.2 0 .36-.15.36-.36s-.16-.36-.36-.36c-.2 0-.36.15-.36.36s.16.36.36.36zM90.405 8h.51V2.93h-.51V8zm5.839-3.89c-.31-.75-.99-1.24-1.93-1.24-1.39 0-2.39 1.05-2.39 2.59 0 1.6 1 2.6 2.39 2.6.95 0 1.62-.5 1.94-1.29v.9c0 1.35-.64 1.93-1.86 1.93-.95 0-1.61-.43-1.77-1.2h-.53c.16 1.08 1.03 1.66 2.26 1.66 1.64 0 2.41-.78 2.41-2.37V2.93h-.44l-.08 1.18zm-1.89 3.49c-1.13 0-1.91-.88-1.91-2.14 0-1.26.78-2.14 1.91-2.14s1.91.88 1.91 2.15c0 1.25-.78 2.13-1.91 2.13zm5.949-4.73c-.93 0-1.53.48-1.82 1.14l-.08-1.08h-.44V8h.51V5.5c0-1.32.67-2.16 1.75-2.16.98 0 1.57.64 1.57 1.84V8h.51V5.16c0-1.6-.85-2.29-2-2.29zm7.589 4.66c-.3 0-.45-.1-.45-.49V4.68c0-1.16-.71-1.81-1.98-1.81-1.16 0-1.93.56-2.06 1.48h.51c.13-.62.67-1.03 1.53-1.03.95 0 1.49.5 1.49 1.34v.44h-1.72c-1.3 0-2 .56-2 1.51 0 .9.71 1.45 1.79 1.45 1.03 0 1.64-.47 1.95-1.1v.18c-.02.6.23.86.83.86h.3v-.47h-.19zm-.96-1.58c0 .97-.69 1.67-1.89 1.67-.81 0-1.31-.41-1.31-1.04 0-.67.5-1.04 1.44-1.04h1.76v.41zM108.764 8h.51V1h-.51v7zm1.479-1.56c.04 1.05.89 1.62 2.16 1.62 1.09 0 1.97-.55 1.97-1.45 0-1.07-.94-1.28-2.03-1.43-.79-.11-1.49-.2-1.49-.91 0-.58.57-.96 1.43-.96.81 0 1.39.39 1.48 1.05h.52c-.09-.99-.9-1.49-2-1.49-1.13-.01-1.94.57-1.94 1.44 0 1.02.94 1.21 1.98 1.35.85.12 1.54.23 1.54.98 0 .6-.63.98-1.46.98-.97 0-1.6-.45-1.64-1.18h-.52zm10.248-3.57c-.95 0-1.62.52-1.94 1.24V1h-.51v7h.44l.08-1.15c.3.73.98 1.21 1.93 1.21 1.39 0 2.39-1.06 2.39-2.6 0-1.59-1-2.59-2.39-2.59zm-.04 4.73c-1.13 0-1.91-.88-1.91-2.15 0-1.24.78-2.13 1.91-2.13s1.91.89 1.91 2.14c0 1.26-.78 2.14-1.91 2.14zm7.9-.07c-.3 0-.45-.1-.45-.49V4.68c0-1.16-.71-1.81-1.98-1.81-1.16 0-1.93.56-2.06 1.48h.51c.13-.62.67-1.03 1.53-1.03.95 0 1.49.5 1.49 1.34v.44h-1.72c-1.3 0-2 .56-2 1.51 0 .9.71 1.45 1.79 1.45 1.03 0 1.64-.47 1.95-1.1v.18c-.02.6.23.86.83.86h.3v-.47h-.19zm-.96-1.58c0 .97-.69 1.67-1.89 1.67-.81 0-1.31-.41-1.31-1.04 0-.67.5-1.04 1.44-1.04h1.76v.41zm1.602.49c.04 1.05.89 1.62 2.16 1.62 1.09 0 1.97-.55 1.97-1.45 0-1.07-.94-1.28-2.03-1.43-.79-.11-1.49-.2-1.49-.91 0-.58.57-.96 1.43-.96.81 0 1.39.39 1.48 1.05h.52c-.09-.99-.9-1.49-2-1.49-1.13-.01-1.94.57-1.94 1.44 0 1.02.94 1.21 1.98 1.35.85.12 1.54.23 1.54.98 0 .6-.63.98-1.46.98-.97 0-1.6-.45-1.64-1.18h-.52zm7.343 1.62c1.11 0 1.96-.72 2.18-1.74h-.52c-.2.79-.87 1.28-1.7 1.28-1.13 0-1.84-.86-1.86-2.04v-.09h4.14c0-.07.01-.15.01-.21-.05-1.51-.98-2.39-2.34-2.39-1.39 0-2.34 1.06-2.34 2.56 0 1.59.99 2.63 2.43 2.63zm-1.86-3.02c.08-1.03.85-1.72 1.78-1.72.99 0 1.7.61 1.78 1.72h-3.56zm9.258-.97c-.31-.72-.99-1.2-1.94-1.2-1.39 0-2.39 1.06-2.39 2.59 0 1.6 1 2.6 2.39 2.6.95 0 1.61-.51 1.93-1.22l.08 1.16h.44V1h-.51v3.07zm-1.9 3.53c-1.13 0-1.91-.88-1.91-2.14 0-1.25.78-2.14 1.91-2.14s1.91.89 1.91 2.15c0 1.25-.78 2.13-1.91 2.13zm8.545.46c1.43 0 2.44-1.06 2.44-2.6 0-1.53-1.01-2.59-2.44-2.59s-2.43 1.06-2.43 2.59c0 1.54 1 2.6 2.43 2.6zm0-.46c-1.13 0-1.91-.88-1.91-2.14 0-1.25.78-2.14 1.91-2.14s1.91.89 1.91 2.14c0 1.26-.78 2.14-1.91 2.14zm5.793-4.73c-.93 0-1.53.48-1.82 1.14l-.08-1.08h-.44V8h.51V5.5c0-1.32.67-2.16 1.75-2.16.98 0 1.57.64 1.57 1.84V8h.51V5.16c0-1.6-.85-2.29-2-2.29zM162.126 8l.84-2.14h3.22l.84 2.14h.58l-2.7-7h-.63l-2.71 7h.56zm2.45-6.4l1.45 3.76h-2.9l1.45-3.76zm3.917 6.4h.54V1h-.54v7zm4.558 0h.51V1h-.51v7zm3.949.06c1.11 0 1.96-.72 2.18-1.74h-.52c-.2.79-.87 1.28-1.7 1.28-1.13 0-1.84-.86-1.86-2.04v-.09h4.14c0-.07.01-.15.01-.21-.05-1.51-.98-2.39-2.34-2.39-1.39 0-2.34 1.06-2.34 2.56 0 1.59.99 2.63 2.43 2.63zm-1.86-3.02c.08-1.03.85-1.72 1.78-1.72.99 0 1.7.61 1.78 1.72h-3.56zm9.578 2.49c-.3 0-.45-.1-.45-.49V4.68c0-1.16-.71-1.81-1.98-1.81-1.16 0-1.93.56-2.06 1.48h.51c.13-.62.67-1.03 1.53-1.03.95 0 1.49.5 1.49 1.34v.44h-1.72c-1.3 0-2 .56-2 1.51 0 .9.71 1.45 1.79 1.45 1.03 0 1.64-.47 1.95-1.1v.18c-.02.6.23.86.83.86h.3v-.47h-.19zm-.96-1.58c0 .97-.69 1.67-1.89 1.67-.81 0-1.31-.41-1.31-1.04 0-.67.5-1.04 1.44-1.04h1.76v.41zm3.902-3.02c-.94 0-1.34.45-1.55 1.01l-.08-1.01h-.44V8h.51V5.43c0-1.03.27-2.01 1.46-2.01h.37v-.49h-.27zm3.366-.06c-.93 0-1.53.48-1.82 1.14l-.08-1.08h-.44V8h.51V5.5c0-1.32.67-2.16 1.75-2.16.98 0 1.57.64 1.57 1.84V8h.51V5.16c0-1.6-.85-2.29-2-2.29zm3.389-1.01c.2 0 .36-.15.36-.36s-.16-.36-.36-.36c-.2 0-.36.15-.36.36s.16.36.36.36zm-.26 6.14h.51V2.93h-.51V8zm4.049-5.13c-.93 0-1.53.48-1.82 1.14l-.08-1.08h-.44V8h.51V5.5c0-1.32.67-2.16 1.75-2.16.98 0 1.57.64 1.57 1.84V8h.51V5.16c0-1.6-.85-2.29-2-2.29zm7.258 1.24c-.31-.75-.99-1.24-1.93-1.24-1.39 0-2.39 1.05-2.39 2.59 0 1.6 1 2.6 2.39 2.6.95 0 1.62-.5 1.94-1.29v.9c0 1.35-.64 1.93-1.86 1.93-.95 0-1.61-.43-1.77-1.2h-.53c.16 1.08 1.03 1.66 2.26 1.66 1.64 0 2.41-.78 2.41-2.37V2.93h-.44l-.08 1.18zm-1.89 3.49c-1.13 0-1.91-.88-1.91-2.14 0-1.26.78-2.14 1.91-2.14s1.91.88 1.91 2.15c0 1.25-.78 2.13-1.91 2.13zm3.55.07c0 .23.16.38.38.38s.38-.15.38-.38-.16-.37-.38-.37-.38.14-.38.37z" fill="#000"/></svg>