<svg width="152" height="25" viewBox="0 0 152 25" fill="none" xmlns="http://www.w3.org/2000/svg"><rect y=".5" width="152" height="24" rx="12" fill="#000"/><path d="M14.504 16.5c2.628 0 4.224-1.692 4.224-4.2 0-2.52-1.596-4.2-4.224-4.2h-2.688v8.4h2.688zM12.86 9.06h1.644c2.04 0 3.156 1.272 3.156 3.24 0 1.956-1.116 3.24-3.156 3.24H12.86V9.06zm7.543.288c.36 0 .636-.264.636-.636a.618.618 0 00-.636-.636.618.618 0 00-.636.636c0 .372.276.636.636.636zm-.504 7.152h.984v-6.12h-.984v6.12zm2.08-2.016c.024 1.344 1.116 2.088 2.7 2.088 1.356 0 2.448-.708 2.448-1.848 0-1.356-1.116-1.62-2.508-1.788-.888-.108-1.536-.192-1.536-.864 0-.564.576-.924 1.428-.924.84 0 1.416.468 1.488 1.092h1.008c-.096-1.272-1.104-1.92-2.496-1.932-1.38-.012-2.4.72-2.4 1.836 0 1.272 1.092 1.548 2.46 1.716.912.108 1.584.168 1.584.936 0 .564-.612.936-1.476.936-1.02 0-1.656-.528-1.692-1.248h-1.008zm8.988 2.088c1.488 0 2.484-.84 2.724-2.16h-1.044c-.192.78-.792 1.284-1.668 1.284-1.176 0-1.968-.912-1.968-2.244 0-1.332.792-2.268 1.968-2.268.9 0 1.5.492 1.68 1.308h1.032c-.252-1.344-1.2-2.184-2.7-2.184-1.776 0-2.988 1.272-2.988 3.144 0 1.908 1.176 3.12 2.964 3.12zm6.623 0c1.788 0 3.036-1.272 3.036-3.132s-1.248-3.132-3.036-3.132-3.036 1.272-3.036 3.132 1.248 3.132 3.036 3.132zm0-.876c-1.212 0-2.028-.948-2.028-2.256 0-1.308.816-2.256 2.028-2.256 1.212 0 2.028.948 2.028 2.256 0 1.308-.816 2.256-2.028 2.256zm5.574.804h1.188l2.293-6.12h-1.033l-1.836 5.004-1.848-5.004h-1.055l2.291 6.12zm6.765.072c1.416 0 2.424-.9 2.664-2.124h-.996c-.203.792-.876 1.248-1.74 1.248-1.163 0-1.895-.816-1.931-1.98v-.084h4.752c.012-.144.024-.288.024-.42-.048-1.812-1.176-2.904-2.904-2.904-1.729 0-2.904 1.272-2.904 3.132 0 1.872 1.2 3.132 3.035 3.132zm-1.944-3.756c.096-.996.925-1.644 1.825-1.644 1.02 0 1.74.588 1.835 1.644h-3.66zm8.671-2.436c-1.092 0-1.56.456-1.848.924l-.132-.924h-.852v6.12h.984v-3.12c0-.972.348-2.04 1.632-2.04h.492v-.96h-.276zm4.078 3.372c.06 1.656 1.26 2.82 3.312 2.82 1.764 0 2.988-1.02 2.988-2.472 0-1.632-1.404-2.088-2.772-2.316-1.26-.216-2.28-.42-2.28-1.428 0-.9.732-1.38 1.824-1.38 1.14 0 1.92.636 2.04 1.608h1.08c-.096-1.512-1.248-2.556-3.12-2.556-1.704 0-2.868.96-2.868 2.388 0 1.632 1.392 2.076 2.748 2.304 1.272.216 2.304.432 2.304 1.476 0 .912-.804 1.428-1.932 1.428-1.284 0-2.16-.744-2.244-1.872h-1.08zm7.625 2.748h1.02V9.876l2.784 6.624h.924l2.784-6.624V16.5h1.02V8.1h-1.296l-2.94 6.972L69.679 8.1h-1.32v8.4zm10.556 0l.888-2.268h3.66l.888 2.268h1.116l-3.192-8.4H81.04l-3.204 8.4h1.08zm2.712-7.26l1.524 4.044h-3.036l1.512-4.044zm4.79 7.26h1.045v-3.228h2.112L91.35 16.5h1.176l-1.884-3.432c1.08-.3 1.788-1.212 1.788-2.388 0-1.572-1.116-2.58-2.796-2.58h-3.216v8.4zm3.145-7.44c1.092 0 1.8.636 1.8 1.62 0 .984-.708 1.632-1.812 1.632h-2.088V9.06h2.1zm3.182 0h2.724v7.44h1.044V9.06h2.724V8.1h-6.492v.96zm10.353 4.692c.06 1.656 1.26 2.82 3.312 2.82 1.764 0 2.988-1.02 2.988-2.472 0-1.632-1.404-2.088-2.772-2.316-1.26-.216-2.28-.42-2.28-1.428 0-.9.732-1.38 1.824-1.38 1.14 0 1.92.636 2.04 1.608h1.08c-.096-1.512-1.248-2.556-3.12-2.556-1.704 0-2.868.96-2.868 2.388 0 1.632 1.392 2.076 2.748 2.304 1.272.216 2.304.432 2.304 1.476 0 .912-.804 1.428-1.932 1.428-1.284 0-2.16-.744-2.244-1.872h-1.08zm7.985-4.404c.36 0 .636-.264.636-.636a.618.618 0 00-.636-.636.618.618 0 00-.636.636c0 .372.276.636.636.636zm-.504 7.152h.984v-6.12h-.984v6.12zm7.156-5.064c-.384-.684-1.068-1.128-2.1-1.128-1.692 0-2.94 1.26-2.94 3.132 0 1.992 1.248 3.132 2.94 3.132 1.032 0 1.692-.432 2.1-1.128v.72c0 1.332-.696 1.932-1.98 1.932-1.02 0-1.704-.432-1.872-1.2h-1.008c.156 1.344 1.248 2.076 2.808 2.076 2.1 0 3.036-1.008 3.036-2.772v-5.82h-.852l-.132 1.056zm-2.004 4.26c-1.212 0-2.028-.924-2.028-2.256 0-1.332.816-2.256 2.028-2.256 1.2 0 2.016.936 2.016 2.28 0 1.308-.816 2.232-2.016 2.232zm7.329-5.388c-1.032 0-1.656.432-2.016.9l-.132-.828h-.852v6.12h.984v-3.06c0-1.38.696-2.232 1.848-2.232 1.068 0 1.656.672 1.656 1.944V16.5h.984v-3.408c0-2.028-1.092-2.784-2.472-2.784zm9.138 5.292c-.276 0-.396-.084-.396-.408v-2.676c0-1.428-.9-2.208-2.46-2.208-1.476 0-2.448.708-2.592 1.908h.984c.12-.624.696-1.032 1.56-1.032.96 0 1.524.48 1.524 1.272v.42h-1.8c-1.608 0-2.46.684-2.46 1.908 0 1.116.912 1.788 2.256 1.788 1.056 0 1.668-.468 2.052-1.02.012.6.288.948 1.104.948h.54v-.9h-.312zm-1.38-1.596c0 1.02-.708 1.728-1.932 1.728-.816 0-1.332-.408-1.332-1.008 0-.696.492-1.02 1.368-1.02h1.896v.3zm2.449 2.496h.984V8.1h-.984v8.4zm2.08-2.016c.024 1.344 1.116 2.088 2.7 2.088 1.356 0 2.448-.708 2.448-1.848 0-1.356-1.116-1.62-2.508-1.788-.888-.108-1.536-.192-1.536-.864 0-.564.576-.924 1.428-.924.84 0 1.416.468 1.488 1.092h1.008c-.096-1.272-1.104-1.92-2.496-1.932-1.38-.012-2.4.72-2.4 1.836 0 1.272 1.092 1.548 2.46 1.716.912.108 1.584.168 1.584.936 0 .564-.612.936-1.476.936-1.02 0-1.656-.528-1.692-1.248h-1.008z" fill="#fff"/></svg>