<svg width="150" height="33" viewBox="0 0 150 33" fill="none" xmlns="http://www.w3.org/2000/svg"><path d="M1.008 10h6.216v-.7h-5.46V5.338h4.424v-.7H1.764V.9h5.278V.2H1.008V10zm6.719 0h.826l2.352-3.122L13.257 10h.868l-2.758-3.626 2.618-3.472h-.812l-2.24 2.94-2.212-2.94h-.854l2.618 3.472L7.727 10zm10.748-7.182c-1.33 0-2.254.714-2.702 1.708l-.112-1.624h-.616V12.8h.714V8.362c.406 1.036 1.372 1.722 2.716 1.722 1.946 0 3.346-1.484 3.346-3.64 0-2.226-1.4-3.626-3.346-3.626zM18.42 9.44c-1.582 0-2.674-1.232-2.674-3.01 0-1.736 1.092-2.982 2.674-2.982 1.582 0 2.674 1.246 2.674 2.996 0 1.764-1.092 2.996-2.674 2.996zm7.951.644c1.554 0 2.744-1.008 3.052-2.436h-.727c-.28 1.106-1.218 1.792-2.38 1.792-1.582 0-2.577-1.204-2.605-2.856v-.126h5.796c0-.098.014-.21.014-.294-.07-2.114-1.372-3.346-3.276-3.346-1.945 0-3.276 1.484-3.276 3.584 0 2.226 1.387 3.682 3.402 3.682zm-2.604-4.228c.113-1.442 1.19-2.408 2.493-2.408 1.386 0 2.38.854 2.491 2.408h-4.983zM33.83 2.902c-1.316 0-1.876.63-2.17 1.414l-.112-1.414h-.616V10h.714V6.402c0-1.442.378-2.814 2.044-2.814h.518v-.686h-.378zm2.16 5.446c0 1.134.461 1.652 1.665 1.652h1.036v-.658h-.98c-.742 0-1.008-.28-1.008-1.008V3.56h1.918v-.658h-1.918V.914h-.714v1.988h-1.344v.658h1.344v4.788zm13.805.994c-.42 0-.63-.14-.63-.686V5.352c0-1.624-.994-2.534-2.772-2.534-1.624 0-2.702.784-2.884 2.072h.714c.182-.868.938-1.442 2.142-1.442 1.33 0 2.086.7 2.086 1.876v.616h-2.408c-1.82 0-2.8.784-2.8 2.114 0 1.26.994 2.03 2.506 2.03 1.442 0 2.296-.658 2.73-1.54v.252C48.45 9.636 48.8 10 49.64 10h.42v-.658h-.266zM48.45 7.13c0 1.358-.966 2.338-2.646 2.338-1.134 0-1.834-.574-1.834-1.456 0-.938.7-1.456 2.016-1.456h2.464v.574zm5.84-4.312c-1.301 0-2.141.672-2.547 1.596l-.112-1.512h-.616V10h.714V6.5c0-1.848.938-3.024 2.45-3.024 1.372 0 2.198.896 2.198 2.576V10h.714V6.024c0-2.24-1.19-3.206-2.8-3.206zm10.625 6.524c-.42 0-.63-.14-.63-.686V5.352c0-1.624-.994-2.534-2.772-2.534-1.624 0-2.702.784-2.884 2.072h.714c.182-.868.938-1.442 2.142-1.442 1.33 0 2.086.7 2.086 1.876v.616h-2.408c-1.82 0-2.8.784-2.8 2.114 0 1.26.994 2.03 2.506 2.03 1.442 0 2.296-.658 2.73-1.54v.252c-.028.84.322 1.204 1.162 1.204h.42v-.658h-.266zM63.572 7.13c0 1.358-.966 2.338-2.646 2.338-1.134 0-1.834-.574-1.834-1.456 0-.938.7-1.456 2.016-1.456h2.464v.574zM66.137 10h.714V.2h-.714V10zm4.52 0l-.462 1.148c-.321.784-.447.994-1.175.994h-.896v.658h1.092c.952 0 1.175-.364 1.624-1.484l3.401-8.414h-.77L71.05 9.076l-2.464-6.174h-.77L70.659 10zm4.127-2.184c.056 1.47 1.246 2.268 3.024 2.268 1.526 0 2.758-.77 2.758-2.03 0-1.498-1.316-1.792-2.842-2.002-1.106-.154-2.086-.28-2.086-1.274 0-.812.798-1.344 2.002-1.344 1.134 0 1.946.546 2.072 1.47h.728c-.126-1.386-1.26-2.086-2.8-2.086-1.582-.014-2.716.798-2.716 2.016 0 1.428 1.316 1.694 2.772 1.89 1.19.168 2.156.322 2.156 1.372 0 .84-.882 1.372-2.044 1.372-1.358 0-2.24-.63-2.296-1.652h-.728zm7.508-6.412c.28 0 .504-.21.504-.504a.493.493 0 00-.504-.504c-.28 0-.504.21-.504.504 0 .294.224.504.504.504zM81.928 10h.714V2.902h-.714V10zm2.07-2.184c.056 1.47 1.246 2.268 3.024 2.268 1.526 0 2.758-.77 2.758-2.03 0-1.498-1.316-1.792-2.841-2.002-1.106-.154-2.086-.28-2.086-1.274 0-.812.797-1.344 2.002-1.344 1.133 0 1.945.546 2.072 1.47h.727c-.126-1.386-1.26-2.086-2.8-2.086-1.582-.014-2.716.798-2.716 2.016 0 1.428 1.316 1.694 2.772 1.89 1.19.168 2.157.322 2.157 1.372 0 .84-.882 1.372-2.044 1.372-1.358 0-2.24-.63-2.296-1.652h-.728zm7.316 1.204c-.378 0-.616.238-.616.546 0 .336.224.504.49.504.14 0 .28-.056.35-.168a.505.505 0 01.126.364c0 .532-.336 1.078-1.05 1.106v.42c.966-.042 1.568-.686 1.568-1.61 0-.644-.364-1.162-.868-1.162zm6.413-7.616c.28 0 .504-.21.504-.504a.493.493 0 00-.504-.504c-.28 0-.504.21-.504.504 0 .294.224.504.504.504zM97.363 10h.714V2.902h-.714V10zm5.669-7.182c-1.302 0-2.142.672-2.548 1.596l-.112-1.512h-.616V10h.714V6.5c0-1.848.938-3.024 2.45-3.024 1.372 0 2.198.896 2.198 2.576V10h.714V6.024c0-2.24-1.19-3.206-2.8-3.206zm4.912 5.53c0 1.134.462 1.652 1.666 1.652h1.036v-.658h-.98c-.742 0-1.008-.28-1.008-1.008V3.56h1.918v-.658h-1.918V.914h-.714v1.988H106.6v.658h1.344v4.788zm8.941-1.96c0 1.862-.924 3.038-2.394 3.038-1.316 0-2.128-.896-2.128-2.59V2.902h-.714v3.976c0 2.226 1.162 3.206 2.73 3.206 1.26 0 2.086-.672 2.492-1.582l.098 1.498h.63V2.902h-.714v3.486zm2.758-4.984c.28 0 .504-.21.504-.504a.493.493 0 00-.504-.504c-.28 0-.504.21-.504.504 0 .294.224.504.504.504zM119.279 10h.714V2.902h-.714V10zm2.925-1.652c0 1.134.462 1.652 1.666 1.652h1.036v-.658h-.98c-.742 0-1.008-.28-1.008-1.008V3.56h1.918v-.658h-1.918V.914h-.714v1.988h-1.344v.658h1.344v4.788zm4.152-6.944c.28 0 .504-.21.504-.504a.493.493 0 00-.504-.504c-.28 0-.504.21-.504.504 0 .294.224.504.504.504zM125.992 10h.714V2.902h-.714V10zm4.451 0h.854l2.772-7.098h-.742l-2.436 6.272-2.45-6.272h-.77L130.443 10zm7.435.084c1.554 0 2.744-1.008 3.052-2.436h-.728c-.28 1.106-1.218 1.792-2.38 1.792-1.582 0-2.576-1.204-2.604-2.856v-.126h5.796c0-.098.014-.21.014-.294-.07-2.114-1.372-3.346-3.276-3.346-1.946 0-3.276 1.484-3.276 3.584 0 2.226 1.386 3.682 3.402 3.682zm-2.604-4.228c.112-1.442 1.19-2.408 2.492-2.408 1.386 0 2.38.854 2.492 2.408h-4.984zM4.27 22.818c-1.33 0-2.254.714-2.702 1.708l-.112-1.624H.84V32.8h.714v-4.438c.406 1.036 1.372 1.722 2.716 1.722 1.946 0 3.346-1.484 3.346-3.64 0-2.226-1.4-3.626-3.346-3.626zm-.056 6.622c-1.582 0-2.674-1.232-2.674-3.01 0-1.736 1.092-2.982 2.674-2.982 1.582 0 2.674 1.246 2.674 2.996 0 1.764-1.092 2.996-2.674 2.996zm4.815.56h.714v-9.8H9.03V30zm8.637-.658c-.42 0-.63-.14-.63-.686v-3.304c0-1.624-.994-2.534-2.772-2.534-1.624 0-2.702.784-2.884 2.072h.714c.182-.868.938-1.442 2.142-1.442 1.33 0 2.086.7 2.086 1.876v.616h-2.408c-1.82 0-2.8.784-2.8 2.114 0 1.26.994 2.03 2.506 2.03 1.442 0 2.296-.658 2.73-1.54v.252c-.028.84.322 1.204 1.162 1.204h.42v-.658h-.266zm-1.344-2.212c0 1.358-.966 2.338-2.646 2.338-1.134 0-1.834-.574-1.834-1.456 0-.938.7-1.456 2.016-1.456h2.464v.574zm3.097 1.218c0 1.134.462 1.652 1.666 1.652h1.036v-.658h-.98c-.742 0-1.008-.28-1.008-1.008V23.56h1.918v-.658h-1.918v-1.988h-.714v1.988h-1.344v.658h1.344v4.788zm3.058-4.788h1.344V30h.714v-6.44h2.128v-.658h-2.128v-1.064c0-.7.266-.98.98-.98h1.162V20.2h-1.19c-1.19 0-1.666.518-1.666 1.652v1.05h-1.344v.658zm7.817 6.524c2.002 0 3.416-1.484 3.416-3.64 0-2.142-1.414-3.626-3.416-3.626s-3.402 1.484-3.402 3.626c0 2.156 1.4 3.64 3.402 3.64zm0-.644c-1.582 0-2.674-1.232-2.674-2.996 0-1.75 1.092-2.996 2.674-2.996 1.582 0 2.674 1.246 2.674 2.996 0 1.764-1.092 2.996-2.674 2.996zm7.733-6.538c-1.316 0-1.876.63-2.17 1.414l-.112-1.414h-.616V30h.714v-3.598c0-1.442.378-2.814 2.044-2.814h.518v-.686h-.378zm9.36-.084c-1.302 0-2.142.728-2.548 1.778-.336-1.176-1.218-1.778-2.338-1.778-1.218 0-1.946.714-2.31 1.596l-.112-1.512h-.616V30h.714v-3.612c0-1.736.84-2.912 2.198-2.912 1.232 0 2.002.868 2.002 2.506V30h.714v-3.864c.042-1.624.882-2.66 2.212-2.66 1.232 0 1.974.826 1.974 2.436V30h.728v-4.116c0-2.142-1.134-3.066-2.618-3.066zm3.881 4.998c.056 1.47 1.246 2.268 3.024 2.268 1.526 0 2.758-.77 2.758-2.03 0-1.498-1.316-1.792-2.842-2.002-1.106-.154-2.086-.28-2.086-1.274 0-.812.798-1.344 2.002-1.344 1.134 0 1.946.546 2.072 1.47h.728c-.126-1.386-1.26-2.086-2.8-2.086-1.582-.014-2.716.798-2.716 2.016 0 1.428 1.316 1.694 2.772 1.89 1.19.168 2.156.322 2.156 1.372 0 .84-.882 1.372-2.044 1.372-1.358 0-2.24-.63-2.296-1.652h-.728zm7.315 1.204c-.378 0-.616.238-.616.546 0 .336.224.504.49.504.14 0 .28-.056.35-.168a.505.505 0 01.126.364c0 .532-.336 1.078-1.05 1.106v.42c.966-.042 1.568-.686 1.568-1.61 0-.644-.364-1.162-.868-1.162zm9.186 1.064c1.554 0 2.744-1.008 3.052-2.436h-.728c-.28 1.106-1.218 1.792-2.38 1.792-1.582 0-2.576-1.204-2.604-2.856v-.126h5.796c0-.098.014-.21.014-.294-.07-2.114-1.372-3.346-3.276-3.346-1.946 0-3.276 1.484-3.276 3.584 0 2.226 1.386 3.682 3.402 3.682zm-2.604-4.228c.112-1.442 1.19-2.408 2.492-2.408 1.386 0 2.38.854 2.492 2.408h-4.984zM72.33 30h.714v-9.8h-.714V30zm2.757-8.596c.28 0 .504-.21.504-.504a.493.493 0 00-.504-.504c-.28 0-.504.21-.504.504 0 .294.224.504.504.504zM74.723 30h.714v-7.098h-.714V30zm2.924-1.652c0 1.134.462 1.652 1.666 1.652h1.036v-.658h-.98c-.742 0-1.008-.28-1.008-1.008V23.56h1.918v-.658h-1.918v-1.988h-.714v1.988h-1.344v.658h1.344v4.788zm6.706 1.736c1.554 0 2.744-1.008 3.052-2.436h-.728c-.28 1.106-1.218 1.792-2.38 1.792-1.582 0-2.576-1.204-2.604-2.856v-.126h5.796c0-.098.014-.21.014-.294-.07-2.114-1.372-3.346-3.276-3.346-1.946 0-3.276 1.484-3.276 3.584 0 2.226 1.386 3.682 3.402 3.682zm-2.604-4.228c.112-1.442 1.19-2.408 2.492-2.408 1.386 0 2.38.854 2.492 2.408h-4.984zm14.075 4.228c1.554 0 2.744-1.008 3.052-2.436h-.728c-.28 1.106-1.218 1.792-2.38 1.792-1.582 0-2.576-1.204-2.604-2.856v-.126h5.796c0-.098.014-.21.014-.294-.07-2.114-1.372-3.346-3.276-3.346-1.946 0-3.276 1.484-3.276 3.584 0 2.226 1.386 3.682 3.402 3.682zm-2.604-4.228c.112-1.442 1.19-2.408 2.492-2.408 1.386 0 2.38.854 2.492 2.408H93.22zM99.383 30h.826l2.352-3.122L104.913 30h.868l-2.758-3.626 2.618-3.472h-.812l-2.24 2.94-2.212-2.94h-.854l2.618 3.472L99.383 30zm10.208.084c1.554 0 2.744-1.008 3.052-2.436h-.728c-.28 1.106-1.218 1.792-2.38 1.792-1.582 0-2.576-1.204-2.604-2.856v-.126h5.796c0-.098.014-.21.014-.294-.07-2.114-1.372-3.346-3.276-3.346-1.946 0-3.276 1.484-3.276 3.584 0 2.226 1.386 3.682 3.402 3.682zm-2.604-4.228c.112-1.442 1.19-2.408 2.492-2.408 1.386 0 2.38.854 2.492 2.408h-4.984zm10.26 4.228c1.61 0 2.744-.924 3.024-2.366h-.756c-.238 1.05-1.092 1.722-2.268 1.722-1.554 0-2.632-1.218-2.632-2.982 0-1.764 1.064-3.01 2.632-3.01 1.19 0 2.03.672 2.282 1.736h.742c-.294-1.47-1.4-2.366-3.01-2.366-2.002 0-3.374 1.484-3.374 3.64 0 2.184 1.358 3.626 3.36 3.626zm9.563-3.696c0 1.862-.924 3.038-2.394 3.038-1.316 0-2.128-.896-2.128-2.59v-3.934h-.714v3.976c0 2.226 1.162 3.206 2.73 3.206 1.26 0 2.086-.672 2.492-1.582l.098 1.498h.63v-7.098h-.714v3.486zm2.941 1.96c0 1.134.462 1.652 1.666 1.652h1.036v-.658h-.98c-.742 0-1.008-.28-1.008-1.008V23.56h1.918v-.658h-1.918v-1.988h-.714v1.988h-1.344v.658h1.344v4.788zm4.152-6.944c.28 0 .504-.21.504-.504a.493.493 0 00-.504-.504c-.28 0-.504.21-.504.504 0 .294.224.504.504.504zM133.539 30h.714v-7.098h-.714V30zm5.529.084c2.002 0 3.416-1.484 3.416-3.64 0-2.142-1.414-3.626-3.416-3.626s-3.402 1.484-3.402 3.626c0 2.156 1.4 3.64 3.402 3.64zm0-.644c-1.582 0-2.674-1.232-2.674-2.996 0-1.75 1.092-2.996 2.674-2.996 1.582 0 2.674 1.246 2.674 2.996 0 1.764-1.092 2.996-2.674 2.996zm8.11-6.622c-1.301 0-2.141.672-2.547 1.596l-.112-1.512h-.616V30h.714v-3.5c0-1.848.938-3.024 2.45-3.024 1.372 0 2.198.896 2.198 2.576V30h.714v-3.976c0-2.24-1.19-3.206-2.801-3.206z" fill="#000"/></svg>