<svg width="207" height="50" viewBox="0 0 207 50" fill="none" xmlns="http://www.w3.org/2000/svg"><rect width="207" height="50" rx="25" fill="#000"/><path d="M40.2 25c0-4.12-2.74-7.12-6.68-7.12-3.94 0-6.68 3-6.68 7.12s2.74 7.12 6.68 7.12c3.94 0 6.68-3 6.68-7.12zm-11.58 0c0-3.22 1.98-5.52 4.9-5.52 2.92 0 4.9 2.3 4.9 5.52 0 3.22-1.98 5.52-4.9 5.52-2.92 0-4.9-2.3-4.9-5.52zm18.68-3.32c-1.72 0-2.82.82-3.5 1.76l-.22-1.64h-1.42V36h1.64v-5.56c.62.98 1.78 1.68 3.5 1.68 2.82 0 4.9-2.1 4.9-5.22 0-3.32-2.08-5.22-4.9-5.22zm-.16 8.98c-2 0-3.36-1.56-3.36-3.8 0-2.18 1.36-3.72 3.36-3.72 2.02 0 3.38 1.54 3.38 3.76 0 2.22-1.36 3.76-3.38 3.76zm11.633 1.46c2.36 0 4.04-1.5 4.44-3.54h-1.66c-.34 1.32-1.46 2.08-2.9 2.08-1.94 0-3.16-1.36-3.22-3.3v-.14h7.92c.02-.24.04-.48.04-.7-.08-3.02-1.96-4.84-4.84-4.84s-4.84 2.12-4.84 5.22c0 3.12 2 5.22 5.06 5.22zm-3.24-6.26c.16-1.66 1.54-2.74 3.04-2.74 1.7 0 2.9.98 3.06 2.74h-6.1zm14.731-4.18c-1.72 0-2.76.72-3.36 1.5l-.22-1.38h-1.42V32h1.64v-5.1c0-2.3 1.16-3.72 3.08-3.72 1.78 0 2.76 1.12 2.76 3.24V32h1.64v-5.68c0-3.38-1.82-4.64-4.12-4.64zM90.73 30.5c-.46 0-.66-.14-.66-.68v-4.46c0-2.38-1.5-3.68-4.1-3.68-2.46 0-4.08 1.18-4.32 3.18h1.64c.2-1.04 1.16-1.72 2.6-1.72 1.6 0 2.54.8 2.54 2.12v.7h-3c-2.68 0-4.1 1.14-4.1 3.18 0 1.86 1.52 2.98 3.76 2.98 1.76 0 2.78-.78 3.42-1.7.02 1 .48 1.58 1.84 1.58h.9v-1.5h-.52zm-2.3-2.66c0 1.7-1.18 2.88-3.22 2.88-1.36 0-2.22-.68-2.22-1.68 0-1.16.82-1.7 2.28-1.7h3.16v.5zm9.08-6.16c-1.72 0-2.76.72-3.36 1.5l-.22-1.38h-1.42V32h1.64v-5.1c0-2.3 1.16-3.72 3.08-3.72 1.78 0 2.76 1.12 2.76 3.24V32h1.641v-5.68c0-3.38-1.82-4.64-4.12-4.64zm20.466 8.82c-.46 0-.66-.14-.66-.68v-4.46c0-2.38-1.5-3.68-4.1-3.68-2.46 0-4.08 1.18-4.32 3.18h1.64c.2-1.04 1.16-1.72 2.6-1.72 1.6 0 2.54.8 2.54 2.12v.7h-3c-2.68 0-4.1 1.14-4.1 3.18 0 1.86 1.52 2.98 3.76 2.98 1.76 0 2.78-.78 3.42-1.7.02 1 .48 1.58 1.84 1.58h.9v-1.5h-.52zm-2.3-2.66c0 1.7-1.18 2.88-3.22 2.88-1.36 0-2.22-.68-2.22-1.68 0-1.16.82-1.7 2.28-1.7h3.16v.5zm8.544 4.28c2.48 0 4.14-1.4 4.54-3.6h-1.74c-.32 1.3-1.32 2.14-2.78 2.14-1.96 0-3.28-1.52-3.28-3.74s1.32-3.78 3.28-3.78c1.5 0 2.5.82 2.8 2.18h1.72c-.42-2.24-2-3.64-4.5-3.64-2.96 0-4.98 2.12-4.98 5.24 0 3.18 1.96 5.2 4.94 5.2zm10.918 0c2.48 0 4.14-1.4 4.54-3.6h-1.74c-.32 1.3-1.32 2.14-2.78 2.14-1.96 0-3.28-1.52-3.28-3.74s1.32-3.78 3.28-3.78c1.5 0 2.5.82 2.8 2.18h1.72c-.42-2.24-2-3.64-4.5-3.64-2.96 0-4.98 2.12-4.98 5.24 0 3.18 1.96 5.2 4.94 5.2zm11.037 0c2.98 0 5.06-2.12 5.06-5.22 0-3.1-2.08-5.22-5.06-5.22-2.98 0-5.06 2.12-5.06 5.22 0 3.1 2.08 5.22 5.06 5.22zm0-1.46c-2.02 0-3.38-1.58-3.38-3.76 0-2.18 1.36-3.76 3.38-3.76 2.02 0 3.38 1.58 3.38 3.76 0 2.18-1.36 3.76-3.38 3.76zm14.081-3.76c0 2.3-1.12 3.72-2.98 3.72-1.7 0-2.66-1.12-2.66-3.24V21.8h-1.64v5.68c0 3.38 1.78 4.64 4.02 4.64 1.68 0 2.66-.72 3.26-1.48l.22 1.36h1.42V21.8h-1.64v5.1zm8.876-5.22c-1.72 0-2.76.72-3.36 1.5l-.22-1.38h-1.42V32h1.64v-5.1c0-2.3 1.16-3.72 3.08-3.72 1.78 0 2.76 1.12 2.76 3.24V32h1.64v-5.68c0-3.38-1.82-4.64-4.12-4.64zm6.971 7.66c0 1.8.7 2.66 2.66 2.66h1.78v-1.5h-1.62c-.88 0-1.18-.32-1.18-1.18V23.3h2.64v-1.5h-2.64v-2.86h-1.64v2.86h-1.84v1.5h1.84v6.04z" fill="#fff"/></svg>