<svg width="491" height="32" viewBox="0 0 491 32" fill="none" xmlns="http://www.w3.org/2000/svg"><path d="M.752 31h4.773V8.855L14.555 31h4.171l9.03-22.145V31h4.773V.9h-6.278l-9.46 23.693L7.159.9H.752V31zm56.94-4.042c-.946 0-1.419-.301-1.419-1.419v-8.815c0-5.203-3.354-7.998-9.202-7.998-5.547 0-9.245 2.666-9.718 6.966h4.558c.344-1.935 2.193-3.225 4.945-3.225 3.053 0 4.816 1.505 4.816 3.956v1.333h-5.547c-6.149 0-9.417 2.537-9.417 7.052 0 4.085 3.354 6.45 8.17 6.45 3.57 0 5.805-1.548 7.267-3.784 0 2.193 1.032 3.526 4.042 3.526h2.451v-4.042h-.946zm-6.02-4.988c-.043 3.397-2.279 5.676-6.149 5.676-2.537 0-4.085-1.29-4.085-3.139 0-2.236 1.591-3.311 4.472-3.311h5.762v.774zm8.55 1.763c.129 4.773 4.17 7.525 10.062 7.525 5.332 0 9.33-2.666 9.33-6.88 0-4.902-4.084-5.934-9.115-6.536-3.182-.344-5.29-.602-5.29-2.666 0-1.763 1.807-2.881 4.559-2.881 2.752 0 4.644 1.419 4.902 3.44h4.558c-.301-4.515-4.128-7.009-9.546-7.009-5.29-.043-9.03 2.666-9.03 6.837 0 4.558 3.956 5.633 8.987 6.235 3.397.43 5.418.602 5.418 2.967 0 1.763-1.892 2.881-4.773 2.881-3.354 0-5.332-1.634-5.504-3.913h-4.558zm24.583 1.29c0 3.999 1.806 5.977 6.02 5.977h4.3v-4.085h-3.268c-1.763 0-2.365-.645-2.365-2.365V13.069h5.375V8.984h-5.375V2.835h-4.687v6.149h-3.827v4.085h3.827v11.954zm23.261 6.235c5.461 0 9.159-3.311 9.933-7.654h-4.644c-.645 2.451-2.709 3.87-5.547 3.87-3.655 0-6.02-2.451-6.149-6.192v-.301h16.598c.086-.602.129-1.204.129-1.763-.129-6.45-4.386-10.492-10.75-10.492-6.493 0-10.836 4.515-10.836 11.309 0 6.751 4.343 11.223 11.266 11.223zm-6.235-13.674c.344-3.139 2.881-5.117 5.848-5.117 3.225 0 5.504 1.849 5.891 5.117h-11.739zm31.446-8.6c-3.612 0-5.375 1.462-6.493 3.311l-.516-3.311h-4.128V31h4.644V19.949c0-3.397 1.333-6.622 5.461-6.622h2.064V8.984h-1.032zm16.489 16.039c0 3.999 1.806 5.977 6.02 5.977h4.3v-4.085h-3.268c-1.763 0-2.365-.645-2.365-2.365V13.069h5.375V8.984h-5.375V2.835h-4.687v6.149h-3.827v4.085h3.827v11.954zm24.842-16.297c-3.44 0-5.547 1.548-6.923 3.44V.9h-4.644V31h4.644V19.863c0-4.429 2.236-7.138 5.891-7.138 3.44 0 5.289 2.236 5.289 6.407V31h4.644V18.745c0-7.353-3.999-10.019-8.901-10.019zm23.405 22.532c5.461 0 9.159-3.311 9.933-7.654h-4.644c-.645 2.451-2.709 3.87-5.547 3.87-3.655 0-6.02-2.451-6.149-6.192v-.301h16.598c.086-.602.129-1.204.129-1.763-.129-6.45-4.386-10.492-10.75-10.492-6.493 0-10.836 4.515-10.836 11.309 0 6.751 4.343 11.223 11.266 11.223zm-6.235-13.674c.344-3.139 2.881-5.117 5.848-5.117 3.225 0 5.504 1.849 5.891 5.117h-11.739zm56.639-8.858c-3.612 0-6.106 1.591-7.525 3.999-1.333-2.838-3.913-3.999-6.794-3.999-3.311.043-5.203 1.505-6.45 3.139l-.516-2.881h-4.042V31h4.644V19.218c0-3.913 1.978-6.493 5.16-6.493 3.053 0 4.644 2.021 4.644 5.891V31h4.687V19.089c0-3.956 2.021-6.364 5.203-6.364 3.01 0 4.601 2.021 4.601 5.891V31h4.644V18.315c0-6.966-3.698-9.589-8.256-9.589zm32.59 18.232c-.946 0-1.419-.301-1.419-1.419v-8.815c0-5.203-3.354-7.998-9.202-7.998-5.547 0-9.245 2.666-9.718 6.966h4.558c.344-1.935 2.193-3.225 4.945-3.225 3.053 0 4.816 1.505 4.816 3.956v1.333h-5.547c-6.149 0-9.417 2.537-9.417 7.052 0 4.085 3.354 6.45 8.17 6.45 3.569 0 5.805-1.548 7.267-3.784 0 2.193 1.032 3.526 4.042 3.526h2.451v-4.042h-.946zm-6.02-4.988c-.043 3.397-2.279 5.676-6.149 5.676-2.537 0-4.085-1.29-4.085-3.139 0-2.236 1.591-3.311 4.472-3.311h5.762v.774zm20.632-12.986c-3.612 0-5.375 1.462-6.493 3.311l-.516-3.311h-4.128V31h4.644V19.949c0-3.397 1.333-6.622 5.461-6.622h2.064V8.984h-1.032zM299.515 31h4.644v-5.59l3.956-4.128L314.608 31h5.504l-8.815-13.115 8.299-8.901h-5.461l-9.976 10.664V.9h-4.644V31zm31.907.258c5.461 0 9.159-3.311 9.933-7.654h-4.644c-.645 2.451-2.709 3.87-5.547 3.87-3.655 0-6.02-2.451-6.149-6.192v-.301h16.598c.086-.602.129-1.204.129-1.763-.129-6.45-4.386-10.492-10.75-10.492-6.493 0-10.836 4.515-10.836 11.309 0 6.751 4.343 11.223 11.266 11.223zm-6.235-13.674c.344-3.139 2.881-5.117 5.848-5.117 3.225 0 5.504 1.849 5.891 5.117h-11.739zm21.733 7.439c0 3.999 1.806 5.977 6.02 5.977h4.3v-4.085h-3.268c-1.763 0-2.365-.645-2.365-2.365V13.069h5.375V8.984h-5.375V2.835h-4.687v6.149h-3.827v4.085h3.827v11.954zm22.04-11.954h3.827V31h4.687V13.069h5.891V8.984h-5.977V7.135c0-1.505.645-2.15 2.15-2.15h3.827V.9h-4.429c-4.257 0-6.149 2.064-6.149 6.02v2.064h-3.827v4.085zm26.289 18.189c6.708 0 11.223-4.515 11.223-11.266 0-6.708-4.515-11.266-11.223-11.266-6.708 0-11.223 4.558-11.223 11.266 0 6.751 4.515 11.266 11.223 11.266zm0-3.956c-3.913 0-6.45-3.053-6.45-7.31s2.537-7.31 6.45-7.31c3.913 0 6.493 3.053 6.493 7.31s-2.58 7.31-6.493 7.31zm26.095-18.318c-3.612 0-5.375 1.462-6.493 3.311l-.516-3.311h-4.128V31h4.644V19.949c0-3.397 1.333-6.622 5.461-6.622h2.064V8.984h-1.032zm12.951 22.274c5.633 0 9.374-3.139 10.234-8.127h-4.902c-.559 2.537-2.451 4.171-5.289 4.171-3.741 0-6.192-2.967-6.192-7.267 0-4.343 2.451-7.353 6.192-7.353 2.881 0 4.73 1.591 5.332 4.171h4.859c-.903-4.988-4.429-8.127-10.105-8.127-6.665 0-11.051 4.515-11.051 11.309 0 6.88 4.257 11.223 10.922 11.223zm24.238 0c5.461 0 9.159-3.311 9.933-7.654h-4.644c-.645 2.451-2.709 3.87-5.547 3.87-3.655 0-6.02-2.451-6.149-6.192v-.301h16.598c.086-.602.129-1.204.129-1.763-.129-6.45-4.386-10.492-10.75-10.492-6.493 0-10.836 4.515-10.836 11.309 0 6.751 4.343 11.223 11.266 11.223zm-6.235-13.674c.344-3.139 2.881-5.117 5.848-5.117 3.225 0 5.504 1.849 5.891 5.117h-11.739zm19.237 6.149c.129 4.773 4.171 7.525 10.062 7.525 5.332 0 9.331-2.666 9.331-6.88 0-4.902-4.085-5.934-9.116-6.536-3.182-.344-5.289-.602-5.289-2.666 0-1.763 1.806-2.881 4.558-2.881s4.644 1.419 4.902 3.44h4.558c-.301-4.515-4.128-7.009-9.546-7.009-5.289-.043-9.03 2.666-9.03 6.837 0 4.558 3.956 5.633 8.987 6.235 3.397.43 5.418.602 5.418 2.967 0 1.763-1.892 2.881-4.773 2.881-3.354 0-5.332-1.634-5.504-3.913h-4.558z" fill="#000"/></svg>