<svg width="130" height="30" viewBox="0 0 130 30" fill="none" xmlns="http://www.w3.org/2000/svg"><rect y=".5" width="130" height="29" rx="14.5" fill="#fff"/><path d="M29.94 15.6c0-2.884-1.918-4.984-4.676-4.984s-4.676 2.1-4.676 4.984 1.918 4.984 4.676 4.984 4.676-2.1 4.676-4.984zm-8.106 0c0-2.254 1.386-3.864 3.43-3.864 2.044 0 3.43 1.61 3.43 3.864 0 2.254-1.386 3.864-3.43 3.864-2.044 0-3.43-1.61-3.43-3.864zm13.075-2.324c-1.204 0-1.974.574-2.45 1.232l-.154-1.148h-.994v9.94h1.148v-3.892c.434.686 1.246 1.176 2.45 1.176 1.974 0 3.43-1.47 3.43-3.654 0-2.324-1.456-3.654-3.43-3.654zm-.112 6.286c-1.4 0-2.352-1.092-2.352-2.66 0-1.526.952-2.604 2.352-2.604 1.414 0 2.366 1.078 2.366 2.632s-.952 2.632-2.366 2.632zm8.144 1.022c1.652 0 2.828-1.05 3.108-2.478h-1.162c-.238.924-1.022 1.456-2.03 1.456-1.358 0-2.212-.952-2.254-2.31v-.098h5.544c.014-.168.028-.336.028-.49-.056-2.114-1.372-3.388-3.388-3.388S39.4 14.76 39.4 16.93c0 2.184 1.4 3.654 3.542 3.654zm-2.268-4.382c.112-1.162 1.078-1.918 2.128-1.918 1.19 0 2.03.686 2.142 1.918h-4.27zm10.312-2.926c-1.204 0-1.932.504-2.352 1.05l-.154-.966h-.994v7.14h1.148v-3.57c0-1.61.812-2.604 2.156-2.604 1.246 0 1.932.784 1.932 2.268V20.5h1.148v-3.976c0-2.366-1.274-3.248-2.884-3.248zm14.326 6.174c-.322 0-.462-.098-.462-.476v-3.122c0-1.666-1.05-2.576-2.87-2.576-1.722 0-2.856.826-3.024 2.226h1.148c.14-.728.812-1.204 1.82-1.204 1.12 0 1.778.56 1.778 1.484v.49h-2.1c-1.876 0-2.87.798-2.87 2.226 0 1.302 1.064 2.086 2.632 2.086 1.232 0 1.946-.546 2.394-1.19.014.7.336 1.106 1.288 1.106h.63v-1.05h-.364zm-1.61-1.862c0 1.19-.826 2.016-2.254 2.016-.952 0-1.554-.476-1.554-1.176 0-.812.574-1.19 1.596-1.19H63.7v.35zm5.98 2.996c1.736 0 2.898-.98 3.178-2.52h-1.218c-.224.91-.924 1.498-1.946 1.498-1.372 0-2.296-1.064-2.296-2.618 0-1.554.924-2.646 2.296-2.646 1.05 0 1.75.574 1.96 1.526h1.204c-.294-1.568-1.4-2.548-3.15-2.548-2.072 0-3.486 1.484-3.486 3.668 0 2.226 1.372 3.64 3.458 3.64zm7.643 0c1.736 0 2.898-.98 3.178-2.52h-1.218c-.224.91-.924 1.498-1.946 1.498-1.372 0-2.296-1.064-2.296-2.618 0-1.554.924-2.646 2.296-2.646 1.05 0 1.75.574 1.96 1.526h1.204c-.294-1.568-1.4-2.548-3.15-2.548-2.072 0-3.486 1.484-3.486 3.668 0 2.226 1.372 3.64 3.458 3.64zm7.727 0c2.086 0 3.542-1.484 3.542-3.654s-1.456-3.654-3.542-3.654-3.542 1.484-3.542 3.654 1.456 3.654 3.542 3.654zm0-1.022c-1.414 0-2.366-1.106-2.366-2.632s.952-2.632 2.366-2.632c1.414 0 2.366 1.106 2.366 2.632s-.952 2.632-2.366 2.632zm9.856-2.632c0 1.61-.784 2.604-2.086 2.604-1.19 0-1.862-.784-1.862-2.268V13.36h-1.148v3.976c0 2.366 1.246 3.248 2.814 3.248 1.176 0 1.862-.504 2.282-1.036l.154.952h.994v-7.14h-1.148v3.57zm6.213-3.654c-1.204 0-1.932.504-2.352 1.05l-.154-.966h-.994v7.14h1.148v-3.57c0-1.61.812-2.604 2.156-2.604 1.246 0 1.932.784 1.932 2.268V20.5h1.148v-3.976c0-2.366-1.274-3.248-2.884-3.248zm4.88 5.362c0 1.26.49 1.862 1.862 1.862h1.246v-1.05h-1.134c-.616 0-.826-.224-.826-.826V14.41h1.848v-1.05h-1.848v-2.002H106v2.002h-1.288v1.05H106v4.228z" fill="#000"/></svg>