<svg width="149" height="24" viewBox="0 0 149 24" fill="none" xmlns="http://www.w3.org/2000/svg"><path d="M8.604 4.8c0-2.46-1.668-4.272-4.08-4.272S.444 2.34.444 4.8s1.668 4.272 4.08 4.272S8.604 7.26 8.604 4.8zm-6.744 0c0-1.776 1.068-3.06 2.664-3.06S7.188 3.024 7.188 4.8 6.12 7.86 4.524 7.86 1.86 6.576 1.86 4.8zm12.035 1.128c0 1.272-.6 2.016-1.584 2.016-.948 0-1.428-.612-1.428-1.812V2.856H9.587v3.42c0 2.1 1.116 2.796 2.424 2.796.948 0 1.512-.384 1.896-.852l.144.78h1.14V2.856h-1.296v3.072zm3.052 1.404c0 1.116.504 1.668 1.68 1.668h1.2V7.86h-.912c-.492 0-.66-.18-.66-.66V3.996h1.5v-1.14h-1.5V1.14h-1.308v1.716H15.88v1.14h1.068v3.336zM24.39 6.12V5.052h-4.08V6.12h4.08zm4.17 2.952c1.872 0 3.132-1.26 3.132-3.144 0-1.872-1.26-3.144-3.133-3.144-1.872 0-3.132 1.272-3.132 3.144 0 1.884 1.26 3.144 3.133 3.144zm0-1.104c-1.092 0-1.8-.852-1.8-2.04 0-1.188.707-2.04 1.8-2.04 1.091 0 1.812.852 1.812 2.04 0 1.188-.72 2.04-1.813 2.04zm3.503-3.972h1.068V9h1.308V3.996h1.644v-1.14h-1.668V2.34c0-.42.18-.6.6-.6h1.068V.6h-1.236c-1.188 0-1.716.576-1.716 1.68v.576h-1.068v1.14zm8.382 2.124V5.052h-4.08V6.12h4.08zm4.423-3.336c-.96 0-1.548.432-1.932.96V.6H41.64V9h1.296V5.892c0-1.236.624-1.992 1.644-1.992.96 0 1.476.624 1.476 1.788V9h1.296V5.58c0-2.052-1.116-2.796-2.484-2.796zm6.52 6.288c1.872 0 3.132-1.26 3.132-3.144 0-1.872-1.26-3.144-3.132-3.144s-3.132 1.272-3.132 3.144c0 1.884 1.26 3.144 3.132 3.144zm0-1.104c-1.092 0-1.8-.852-1.8-2.04 0-1.188.708-2.04 1.8-2.04s1.812.852 1.812 2.04c0 1.188-.72 2.04-1.812 2.04zm8.386-2.04c0 1.272-.6 2.016-1.584 2.016-.948 0-1.428-.612-1.428-1.812V2.856h-1.296v3.42c0 2.1 1.116 2.796 2.424 2.796.948 0 1.512-.384 1.896-.852l.144.78h1.14V2.856h-1.296v3.072zm5.68-3.072c-1.007 0-1.5.408-1.811.924l-.144-.924h-1.152V9h1.296V5.916c0-.948.372-1.848 1.524-1.848h.576V2.856h-.288zm.719 4.116c.036 1.332 1.164 2.1 2.808 2.1 1.488 0 2.604-.744 2.604-1.92 0-1.368-1.14-1.656-2.544-1.824-.888-.096-1.476-.168-1.476-.744 0-.492.504-.804 1.272-.804s1.296.396 1.368.96h1.272c-.084-1.26-1.152-1.956-2.664-1.956-1.476-.012-2.52.744-2.52 1.908 0 1.272 1.104 1.572 2.508 1.74.948.12 1.512.168 1.512.828 0 .492-.528.804-1.332.804-.936 0-1.488-.456-1.536-1.092h-1.272zm9.93.36c0 1.116.504 1.668 1.68 1.668h1.2V7.86h-.912c-.492 0-.66-.18-.66-.66V3.996h1.5v-1.14h-1.5V1.14h-1.308v1.716h-1.068v1.14h1.068v3.336zm6.813-4.476c-1.008 0-1.5.408-1.812.924l-.144-.924h-1.152V9h1.296V5.916c0-.948.372-1.848 1.524-1.848h.576V2.856h-.288zm6.516 5.016c-.264 0-.396-.084-.396-.396v-2.46c0-1.452-.936-2.232-2.568-2.232-1.548 0-2.58.744-2.712 1.944h1.272c.096-.54.612-.9 1.38-.9.852 0 1.344.42 1.344 1.104v.372h-1.548c-1.716 0-2.628.708-2.628 1.968 0 1.14.936 1.8 2.28 1.8.996 0 1.62-.432 2.028-1.056 0 .612.288.984 1.128.984h.684V7.872h-.264zm-1.68-1.392c-.012.948-.636 1.584-1.716 1.584-.708 0-1.14-.36-1.14-.876 0-.624.444-.924 1.248-.924h1.608v.216zm7.27-2.772c-.395-.54-1.055-.924-1.991-.924-1.668 0-2.904 1.248-2.904 3.144 0 1.968 1.236 3.144 2.904 3.144.972 0 1.608-.456 2.004-.996L95.19 9h1.128V.6h-1.296v3.108zM93.248 7.98c-1.08 0-1.788-.84-1.788-2.052 0-1.2.708-2.04 1.788-2.04s1.788.84 1.788 2.064c0 1.188-.708 2.028-1.788 2.028zm4.998-5.988c.444 0 .792-.324.792-.78s-.348-.78-.792-.78c-.444 0-.792.324-.792.78s.348.78.792.78zM97.585 9h1.296V2.856h-1.296V9zm5.807-6.216c-.996 0-1.584.396-1.968.876l-.144-.804h-1.128V9h1.296V5.904c0-1.248.612-2.004 1.644-2.004.972 0 1.464.624 1.464 1.788V9h1.308V5.58c0-2.052-1.116-2.796-2.472-2.796zm8.342 1.032c-.396-.612-1.056-1.032-2.016-1.032-1.668 0-2.904 1.236-2.904 3.12 0 1.956 1.236 3.12 2.904 3.12.96 0 1.596-.396 2.004-1.008V8.7c0 1.176-.636 1.716-1.764 1.716-.912 0-1.512-.396-1.668-1.08h-1.32c.12 1.38 1.26 2.136 2.892 2.136 2.208 0 3.144-1.056 3.144-2.724V2.856h-1.128l-.144.96zm-1.8 4.116c-1.08 0-1.788-.828-1.788-2.028 0-1.188.708-2.028 1.788-2.028s1.788.84 1.788 2.052c0 1.176-.708 2.004-1.788 2.004zm10.313 1.14c1.872 0 3.132-1.26 3.132-3.144 0-1.872-1.26-3.144-3.132-3.144s-3.132 1.272-3.132 3.144c0 1.884 1.26 3.144 3.132 3.144zm0-1.104c-1.092 0-1.8-.852-1.8-2.04 0-1.188.708-2.04 1.8-2.04s1.812.852 1.812 2.04c0 1.188-.72 2.04-1.812 2.04zm7.414-5.184c-.996 0-1.584.396-1.968.876l-.144-.804h-1.128V9h1.296V5.904c0-1.248.612-2.004 1.644-2.004.972 0 1.464.624 1.464 1.788V9h1.308V5.58c0-2.052-1.116-2.796-2.472-2.796zm6.805 2.616c0 2.388 1.128 3.672 3.3 3.672 2.184 0 3.324-1.284 3.324-3.672V.6h-1.38v4.872c0 1.56-.6 2.376-1.944 2.376-1.32 0-1.92-.816-1.92-2.376V.6h-1.38v4.8zm7.775.84c.048 1.68 1.308 2.832 3.396 2.832 1.848 0 3.108-1.044 3.108-2.556.012-1.656-1.344-2.1-2.736-2.352-1.32-.228-2.184-.408-2.184-1.272 0-.792.66-1.2 1.608-1.2 1.02 0 1.692.576 1.8 1.428h1.38c-.06-1.548-1.26-2.592-3.18-2.592-1.788 0-2.988.996-2.988 2.46 0 1.668 1.32 2.112 2.712 2.352 1.332.24 2.208.432 2.208 1.32 0 .804-.72 1.248-1.716 1.248-1.176 0-1.944-.66-2.016-1.644l-1.392-.024zM.372 20.972c.036 1.332 1.164 2.1 2.808 2.1 1.488 0 2.604-.744 2.604-1.92 0-1.368-1.14-1.656-2.544-1.824-.888-.096-1.476-.168-1.476-.744 0-.492.504-.804 1.272-.804s1.296.396 1.368.96h1.272c-.084-1.26-1.152-1.956-2.664-1.956-1.476-.012-2.52.744-2.52 1.908 0 1.272 1.104 1.572 2.508 1.74.948.12 1.512.168 1.512.828 0 .492-.528.804-1.332.804-.936 0-1.488-.456-1.536-1.092H.372zm6.86.36c0 1.116.504 1.668 1.68 1.668h1.2v-1.14H9.2c-.492 0-.66-.18-.66-.66v-3.204h1.5v-1.14h-1.5V15.14H7.232v1.716H6.164v1.14h1.068v3.336zm6.48 1.74c1.872 0 3.132-1.26 3.132-3.144 0-1.872-1.26-3.144-3.132-3.144s-3.132 1.272-3.132 3.144c0 1.884 1.26 3.144 3.132 3.144zm0-1.104c-1.092 0-1.8-.852-1.8-2.04 0-1.188.708-2.04 1.8-2.04s1.812.852 1.812 2.04c0 1.188-.72 2.04-1.812 2.04zm6.994 1.104c1.572 0 2.616-.876 2.856-2.268h-1.368c-.156.708-.684 1.164-1.476 1.164-1.044 0-1.728-.828-1.728-2.028 0-1.212.684-2.052 1.728-2.052.804 0 1.32.444 1.488 1.164h1.356c-.252-1.392-1.236-2.268-2.82-2.268-1.86 0-3.084 1.26-3.084 3.156 0 1.92 1.188 3.132 3.048 3.132zM24.554 23h1.296v-1.56l1.104-1.152L28.766 23h1.536l-2.46-3.66 2.316-2.484h-1.524l-2.784 2.976V14.6h-1.296V23zm5.877-2.028c.036 1.332 1.164 2.1 2.808 2.1 1.488 0 2.604-.744 2.604-1.92 0-1.368-1.14-1.656-2.544-1.824-.888-.096-1.476-.168-1.476-.744 0-.492.504-.804 1.272-.804s1.296.396 1.368.96h1.272c-.084-1.26-1.152-1.956-2.664-1.956-1.476-.012-2.52.744-2.52 1.908 0 1.272 1.104 1.572 2.508 1.74.948.12 1.512.168 1.512.828 0 .492-.528.804-1.332.804-.936 0-1.488-.456-1.536-1.092H30.43z" fill="#000"/></svg>