<svg width="126" height="63" viewBox="0 0 126 63" fill="none" xmlns="http://www.w3.org/2000/svg"><path d="M.706 4.098h7.619v21.095h4.057V4.098h7.62V.5H.705v3.598zm29.316 3.034c-2.963 0-4.41 1.199-5.327 2.716l-.423-2.716h-3.387v18.06h3.81v-9.065c0-2.787 1.093-5.432 4.48-5.432h1.693V7.131h-.846zm19.154 14.745c-.776 0-1.165-.247-1.165-1.164V13.48c0-4.268-2.751-6.561-7.548-6.561-4.551 0-7.585 2.187-7.973 5.715h3.74c.282-1.588 1.799-2.646 4.056-2.646 2.505 0 3.951 1.235 3.951 3.245v1.094h-4.55c-5.045 0-7.726 2.081-7.726 5.785 0 3.351 2.752 5.291 6.703 5.291 2.927 0 4.762-1.27 5.961-3.104 0 1.8.847 2.893 3.316 2.893h2.01v-3.316h-.775zm-4.939-4.092c-.035 2.787-1.87 4.656-5.044 4.656-2.082 0-3.351-1.058-3.351-2.575 0-1.834 1.305-2.716 3.668-2.716h4.727v.635zm21.374-8.149C64.447 8.05 62.507 6.92 59.755 6.92c-4.903 0-8.536 3.669-8.536 9.242 0 5.785 3.633 9.242 8.536 9.242 2.858 0 4.727-1.34 5.892-2.927l.458 2.716h3.316V.5h-3.81v9.136zm-5.22 12.558c-3.175 0-5.257-2.469-5.257-6.032 0-3.527 2.082-5.997 5.256-5.997 3.175 0 5.257 2.47 5.257 6.068 0 3.492-2.082 5.961-5.257 5.961zm21.325 3.21c4.48 0 7.514-2.716 8.148-6.279h-3.81c-.529 2.011-2.222 3.175-4.55 3.175-2.998 0-4.938-2.01-5.044-5.08v-.246h13.616c.07-.494.106-.988.106-1.447-.106-5.291-3.598-8.607-8.819-8.607-5.326 0-8.89 3.704-8.89 9.278 0 5.538 3.564 9.206 9.243 9.206zM76.6 14.187c.282-2.575 2.363-4.198 4.797-4.198 2.646 0 4.516 1.517 4.833 4.198h-9.63zM3.175 57.289c0 3.281 1.481 4.904 4.938 4.904h3.528v-3.351H8.96c-1.446 0-1.94-.53-1.94-1.94v-9.42h4.41v-3.35H7.02v-5.045H3.175v5.045H.035v3.35h3.14v9.807zm27.192 1.588c-.776 0-1.165-.247-1.165-1.164V50.48c0-4.268-2.75-6.561-7.548-6.561-4.55 0-7.585 2.187-7.973 5.715h3.74c.282-1.588 1.799-2.646 4.056-2.646 2.505 0 3.951 1.235 3.951 3.245v1.094h-4.55c-5.045 0-7.726 2.081-7.726 5.785 0 3.351 2.752 5.291 6.703 5.291 2.927 0 4.762-1.27 5.961-3.104 0 1.8.847 2.893 3.316 2.893h2.01v-3.316h-.775zm-4.939-4.092c-.035 2.787-1.87 4.656-5.044 4.656-2.082 0-3.352-1.058-3.352-2.575 0-1.834 1.306-2.716 3.67-2.716h4.726v.635zm5.92 7.408h4.198l4.762-6.561 4.727 6.56h4.445l-6.808-9.242 6.42-8.818h-4.198l-4.41 6.102-4.303-6.102h-4.445l6.385 8.819-6.773 9.242zm30.153-8.466v-3.14H49.507v3.14h11.994zm1.265-6.244h3.14v14.71h3.845v-14.71h4.832v-3.351H69.68v-1.517c0-1.235.53-1.764 1.764-1.764h3.14V37.5H70.95c-3.492 0-5.044 1.693-5.044 4.938v1.694h-3.14v3.35zm22.925-3.351c-2.963 0-4.41 1.2-5.327 2.716l-.423-2.716h-3.387v18.06h3.81v-9.065c0-2.787 1.094-5.433 4.48-5.433h1.693v-3.562h-.846zm10.907 18.272c4.48 0 7.513-2.716 8.148-6.279h-3.81c-.529 2.011-2.222 3.175-4.55 3.175-2.998 0-4.939-2.01-5.044-5.08v-.246h13.616c.07-.494.106-.988.106-1.447-.106-5.291-3.598-8.607-8.82-8.607-5.326 0-8.889 3.704-8.889 9.277 0 5.539 3.563 9.207 9.243 9.207zm-5.115-11.217c.282-2.575 2.363-4.198 4.797-4.198 2.646 0 4.515 1.517 4.833 4.198h-9.63zm25.233 11.217c4.48 0 7.513-2.716 8.148-6.279h-3.81c-.529 2.011-2.222 3.175-4.55 3.175-2.998 0-4.939-2.01-5.044-5.08v-.246h13.616c.07-.494.106-.988.106-1.447-.106-5.291-3.598-8.607-8.819-8.607-5.327 0-8.89 3.704-8.89 9.277 0 5.539 3.563 9.207 9.243 9.207zm-5.115-11.217c.282-2.575 2.363-4.198 4.797-4.198 2.646 0 4.515 1.517 4.833 4.198h-9.63z" fill="url(#paint0_linear_1247_6747)"/><defs><linearGradient id="paint0_linear_1247_6747" x1="128" y1="48.193" x2="0" y2="48.193" gradientUnits="userSpaceOnUse"><stop stop-color="#FF4343"/><stop offset=".5" stop-color="#9C0B93"/><stop offset="1" stop-color="#4C1BB7"/></linearGradient></defs></svg>