<svg width="120" height="91" viewBox="0 0 120 91" fill="none" xmlns="http://www.w3.org/2000/svg"><path d="M.42 2.442h4.536V15h2.415V2.442h4.536V.3H.42v2.142zm17.452 1.806c-1.764 0-2.625.714-3.17 1.617l-.253-1.617h-2.016V15h2.268V9.603c0-1.659.651-3.234 2.667-3.234h1.008V4.248h-.504zm11.403 8.778c-.462 0-.693-.147-.693-.693V8.028c0-2.541-1.638-3.906-4.494-3.906-2.709 0-4.515 1.302-4.746 3.402h2.226c.168-.945 1.071-1.575 2.415-1.575 1.491 0 2.352.735 2.352 1.932v.651h-2.709c-3.003 0-4.599 1.239-4.599 3.444 0 1.995 1.638 3.15 3.99 3.15 1.743 0 2.835-.756 3.549-1.848 0 1.071.504 1.722 1.974 1.722h1.197v-1.974h-.462zm-2.94-2.436c-.021 1.659-1.113 2.772-3.003 2.772-1.239 0-1.995-.63-1.995-1.533 0-1.092.777-1.617 2.184-1.617h2.814v.378zm12.724-4.851c-.693-.945-1.848-1.617-3.486-1.617-2.919 0-5.082 2.184-5.082 5.502 0 3.444 2.163 5.502 5.082 5.502 1.701 0 2.814-.798 3.507-1.743L39.353 15h1.974V.3H39.06v5.439zm-3.108 7.476c-1.89 0-3.129-1.47-3.129-3.591 0-2.1 1.24-3.57 3.13-3.57s3.128 1.47 3.128 3.612c0 2.079-1.239 3.549-3.129 3.549zm12.696 1.911c2.667 0 4.473-1.617 4.85-3.738H51.23c-.315 1.197-1.323 1.89-2.71 1.89-1.784 0-2.94-1.197-3.002-3.024v-.147h8.106a6.16 6.16 0 00.063-.861c-.063-3.15-2.142-5.124-5.25-5.124-3.171 0-5.292 2.205-5.292 5.523 0 3.297 2.12 5.481 5.502 5.481zm-3.045-6.678c.168-1.533 1.407-2.499 2.856-2.499 1.575 0 2.688.903 2.877 2.499h-5.733zM61.04 8.7c0 4.179 1.974 6.426 5.775 6.426 3.822 0 5.817-2.247 5.817-6.426V.3h-2.415v8.526c0 2.73-1.05 4.158-3.402 4.158-2.31 0-3.36-1.428-3.36-4.158V.3H61.04v8.4zm13.606 1.47c.084 2.94 2.289 4.956 5.943 4.956 3.234 0 5.439-1.827 5.439-4.473.02-2.898-2.352-3.675-4.788-4.116-2.31-.399-3.822-.714-3.822-2.226 0-1.386 1.155-2.1 2.814-2.1 1.785 0 2.96 1.008 3.15 2.499h2.415C85.692 2.001 83.592.174 80.232.174c-3.13 0-5.23 1.743-5.23 4.305 0 2.919 2.31 3.696 4.747 4.116 2.33.42 3.864.756 3.864 2.31 0 1.407-1.26 2.184-3.003 2.184-2.058 0-3.402-1.155-3.528-2.877l-2.436-.042zM.65 36.451c.063 2.331 2.037 3.675 4.914 3.675 2.604 0 4.557-1.302 4.557-3.36 0-2.394-1.995-2.898-4.452-3.192-1.554-.168-2.583-.294-2.583-1.302 0-.861.882-1.407 2.226-1.407 1.344 0 2.268.693 2.394 1.68h2.226c-.147-2.205-2.016-3.423-4.662-3.423-2.583-.021-4.41 1.302-4.41 3.339 0 2.226 1.932 2.751 4.389 3.045 1.659.21 2.646.294 2.646 1.449 0 .861-.924 1.407-2.331 1.407-1.638 0-2.604-.798-2.688-1.911H.651zm16.878-7.329c-1.68 0-2.71.756-3.381 1.68V25.3H11.88V40h2.268v-5.439c0-2.163 1.092-3.486 2.877-3.486 1.68 0 2.583 1.092 2.583 3.129V40h2.268v-5.985c0-3.591-1.953-4.893-4.347-4.893zm16.237 8.904c-.462 0-.693-.147-.693-.693v-4.305c0-2.541-1.638-3.906-4.494-3.906-2.709 0-4.515 1.302-4.746 3.402h2.226c.168-.945 1.071-1.575 2.415-1.575 1.491 0 2.352.735 2.352 1.932v.651h-2.709c-3.003 0-4.599 1.239-4.599 3.444 0 1.995 1.638 3.15 3.99 3.15 1.743 0 2.835-.756 3.55-1.848 0 1.071.503 1.722 1.973 1.722h1.197v-1.974h-.462zm-2.94-2.436c-.02 1.659-1.113 2.772-3.003 2.772-1.239 0-1.995-.63-1.995-1.533 0-1.092.777-1.617 2.184-1.617h2.814v.378zm10.077-6.342c-1.764 0-2.625.714-3.171 1.617l-.252-1.617h-2.016V40h2.268v-5.397c0-1.659.65-3.234 2.667-3.234h1.008v-2.121h-.504zm6.493 10.878c2.667 0 4.473-1.617 4.85-3.738H49.98c-.315 1.197-1.323 1.89-2.71 1.89-1.784 0-2.94-1.197-3.002-3.024v-.147h8.106a6.16 6.16 0 00.063-.861c-.063-3.15-2.142-5.124-5.25-5.124-3.171 0-5.292 2.205-5.292 5.523 0 3.297 2.12 5.481 5.502 5.481zm-3.045-6.678c.168-1.533 1.407-2.499 2.856-2.499 1.575 0 2.688.903 2.877 2.499H44.35zm9.395 3.003c.063 2.331 2.037 3.675 4.914 3.675 2.604 0 4.557-1.302 4.557-3.36 0-2.394-1.995-2.898-4.452-3.192-1.554-.168-2.583-.294-2.583-1.302 0-.861.882-1.407 2.226-1.407 1.344 0 2.268.693 2.394 1.68h2.226c-.147-2.205-2.016-3.423-4.662-3.423-2.583-.021-4.41 1.302-4.41 3.339 0 2.226 1.932 2.751 4.389 3.045 1.659.21 2.646.294 2.646 1.449 0 .861-.924 1.407-2.331 1.407-1.638 0-2.604-.798-2.688-1.911h-2.226zm10.875 2.247c0 .84.609 1.428 1.449 1.428.84 0 1.47-.588 1.47-1.428s-.63-1.428-1.47-1.428-1.45.588-1.45 1.428zm9.922-11.277h8.001l-8.232 10.92V40h11.76v-2.121H77.61l8.232-10.92V25.3H74.543v2.121zm17.744 12.705c2.667 0 4.473-1.617 4.851-3.738H94.87c-.315 1.197-1.323 1.89-2.709 1.89-1.785 0-2.94-1.197-3.003-3.024v-.147h8.106a6.16 6.16 0 00.063-.861c-.063-3.15-2.142-5.124-5.25-5.124-3.17 0-5.292 2.205-5.292 5.523 0 3.297 2.121 5.481 5.502 5.481zm-3.045-6.678c.168-1.533 1.407-2.499 2.856-2.499 1.575 0 2.688.903 2.877 2.499h-5.733zm15.358-4.2c-1.764 0-2.625.714-3.171 1.617l-.252-1.617h-2.016V40h2.268v-5.397c0-1.659.651-3.234 2.667-3.234h1.008v-2.121h-.504zm6.472 10.878c3.276 0 5.481-2.205 5.481-5.502 0-3.276-2.205-5.502-5.481-5.502s-5.481 2.226-5.481 5.502c0 3.297 2.205 5.502 5.481 5.502zm0-1.932c-1.911 0-3.15-1.491-3.15-3.57 0-2.079 1.239-3.57 3.15-3.57 1.911 0 3.171 1.491 3.171 3.57 0 2.079-1.26 3.57-3.171 3.57zM1.89 62.081c0 1.953.882 2.919 2.94 2.919h2.1v-1.995H5.334c-.861 0-1.155-.315-1.155-1.155v-5.607h2.625v-1.995H4.179v-3.003H1.89v3.003H.021v1.995H1.89v5.838zm16.188.945c-.462 0-.693-.147-.693-.693v-4.305c0-2.541-1.638-3.906-4.494-3.906-2.71 0-4.515 1.302-4.746 3.402h2.226c.168-.945 1.07-1.575 2.415-1.575 1.49 0 2.352.735 2.352 1.932v.651h-2.71c-3.002 0-4.598 1.239-4.598 3.444 0 1.995 1.638 3.15 3.99 3.15 1.743 0 2.835-.756 3.549-1.848 0 1.071.504 1.722 1.974 1.722h1.197v-1.974h-.462zm-2.94-2.436c-.021 1.659-1.113 2.772-3.003 2.772-1.24 0-1.995-.63-1.995-1.533 0-1.092.777-1.617 2.184-1.617h2.814v.378zM18.662 65h2.5l2.834-3.906L26.81 65h2.646l-4.053-5.502 3.822-5.25h-2.499l-2.625 3.633-2.562-3.633h-2.646l3.801 5.25L18.662 65zm11.567-1.302c0 .84.61 1.428 1.45 1.428s1.47-.588 1.47-1.428-.63-1.428-1.47-1.428-1.45.588-1.45 1.428zm9.922-11.277h8.002l-8.233 10.92V65h11.76v-2.121h-8.462l8.231-10.92V50.3H40.153v2.121zm17.745 12.705c2.667 0 4.473-1.617 4.85-3.738H60.48c-.315 1.197-1.323 1.89-2.71 1.89-1.784 0-2.94-1.197-3.002-3.024v-.147h8.106a6.16 6.16 0 00.063-.861c-.063-3.15-2.142-5.124-5.25-5.124-3.171 0-5.292 2.205-5.292 5.523 0 3.297 2.12 5.481 5.502 5.481zm-3.045-6.678c.168-1.533 1.407-2.499 2.856-2.499 1.575 0 2.688.903 2.877 2.499H54.85zm15.357-4.2c-1.764 0-2.625.714-3.17 1.617l-.253-1.617H64.77V65h2.268v-5.397c0-1.659.651-3.234 2.667-3.234h1.008v-2.121h-.504zm6.472 10.878c3.276 0 5.481-2.205 5.481-5.502 0-3.276-2.205-5.502-5.48-5.502-3.277 0-5.482 2.226-5.482 5.502 0 3.297 2.205 5.502 5.481 5.502zm0-1.932c-1.91 0-3.15-1.491-3.15-3.57 0-2.079 1.24-3.57 3.15-3.57 1.911 0 3.171 1.491 3.171 3.57 0 2.079-1.26 3.57-3.17 3.57zM6.048 90.126c2.751 0 4.578-1.533 4.998-3.969H8.652c-.273 1.239-1.197 2.037-2.583 2.037-1.827 0-3.024-1.449-3.024-3.549 0-2.121 1.197-3.591 3.024-3.591 1.407 0 2.31.777 2.604 2.037h2.373c-.441-2.436-2.163-3.969-4.935-3.969-3.255 0-5.397 2.205-5.397 5.523 0 3.36 2.079 5.481 5.334 5.481zm11.816 0c3.276 0 5.48-2.205 5.48-5.502 0-3.276-2.204-5.502-5.48-5.502-3.276 0-5.481 2.226-5.481 5.502 0 3.297 2.205 5.502 5.48 5.502zm0-1.932c-1.911 0-3.15-1.491-3.15-3.57 0-2.079 1.239-3.57 3.15-3.57 1.91 0 3.17 1.491 3.17 3.57 0 2.079-1.26 3.57-3.17 3.57zm19.674-9.072c-1.764 0-2.982.777-3.675 1.953-.651-1.386-1.911-1.953-3.318-1.953-1.617.021-2.541.735-3.15 1.533l-.252-1.407h-1.974V90h2.268v-5.754c0-1.911.966-3.171 2.52-3.171 1.49 0 2.268.987 2.268 2.877V90h2.289v-5.817c0-1.932.987-3.108 2.54-3.108 1.47 0 2.248.987 2.248 2.877V90h2.268v-6.195c0-3.402-1.806-4.683-4.032-4.683zm18.457 0c-1.764 0-2.982.777-3.675 1.953-.651-1.386-1.911-1.953-3.318-1.953-1.617.021-2.541.735-3.15 1.533l-.252-1.407h-1.974V90h2.268v-5.754c0-1.911.966-3.171 2.52-3.171 1.49 0 2.268.987 2.268 2.877V90h2.289v-5.817c0-1.932.987-3.108 2.54-3.108 1.47 0 2.248.987 2.248 2.877V90h2.268v-6.195c0-3.402-1.806-4.683-4.032-4.683zm7.243-1.386c.777 0 1.386-.567 1.386-1.365s-.61-1.365-1.386-1.365c-.777 0-1.386.567-1.386 1.365s.609 1.365 1.386 1.365zM62.083 90h2.268V79.248h-2.268V90zm4.029-3.549c.063 2.331 2.037 3.675 4.914 3.675 2.604 0 4.557-1.302 4.557-3.36 0-2.394-1.995-2.898-4.452-3.192-1.554-.168-2.583-.294-2.583-1.302 0-.861.882-1.407 2.226-1.407 1.344 0 2.268.693 2.394 1.68h2.226c-.147-2.205-2.016-3.423-4.662-3.423-2.583-.021-4.41 1.302-4.41 3.339 0 2.226 1.932 2.751 4.389 3.045 1.659.21 2.646.294 2.646 1.449 0 .861-.924 1.407-2.331 1.407-1.638 0-2.604-.798-2.688-1.911h-2.226zm10.562 0c.063 2.331 2.036 3.675 4.913 3.675 2.605 0 4.557-1.302 4.557-3.36 0-2.394-1.995-2.898-4.452-3.192-1.553-.168-2.582-.294-2.582-1.302 0-.861.882-1.407 2.225-1.407 1.345 0 2.269.693 2.395 1.68h2.225c-.147-2.205-2.016-3.423-4.662-3.423-2.583-.021-4.41 1.302-4.41 3.339 0 2.226 1.933 2.751 4.39 3.045 1.659.21 2.645.294 2.645 1.449 0 .861-.924 1.407-2.33 1.407-1.638 0-2.604-.798-2.688-1.911h-2.227zm12.383-8.715c.777 0 1.386-.567 1.386-1.365s-.609-1.365-1.386-1.365c-.777 0-1.386.567-1.386 1.365s.61 1.365 1.386 1.365zM87.902 90h2.268V79.248h-2.268V90zm9.573.126c3.276 0 5.481-2.205 5.481-5.502 0-3.276-2.205-5.502-5.48-5.502-3.277 0-5.482 2.226-5.482 5.502 0 3.297 2.205 5.502 5.481 5.502zm0-1.932c-1.91 0-3.15-1.491-3.15-3.57 0-2.079 1.24-3.57 3.15-3.57 1.911 0 3.171 1.491 3.171 3.57 0 2.079-1.26 3.57-3.17 3.57zm12.975-9.072c-1.743 0-2.772.693-3.444 1.533l-.252-1.407h-1.974V90h2.268v-5.418c0-2.184 1.071-3.507 2.877-3.507 1.701 0 2.562 1.092 2.562 3.129V90h2.289v-5.985c0-3.591-1.953-4.893-4.326-4.893zm6.179 9.576c0 .84.609 1.428 1.449 1.428.84 0 1.47-.588 1.47-1.428s-.63-1.428-1.47-1.428-1.449.588-1.449 1.428z" fill="#000"/></svg>