<svg width="229" height="57" viewBox="0 0 229 57" fill="none" xmlns="http://www.w3.org/2000/svg"><path d="M12.92 21v-2.958H4.191V.7H.856V21H12.92zm3.712-16.936c1.073 0 1.914-.783 1.914-1.885 0-1.102-.841-1.885-1.914-1.885s-1.914.783-1.914 1.885c0 1.102.841 1.885 1.914 1.885zM15.037 21h3.132V6.152h-3.132V21zm5.651-12.093h7.946l-8.294 9.86V21h12.876v-2.755h-8.67l8.293-9.86V6.152H20.69v2.755zM42.82 21h3.132V.7H42.82V21zm13.25.174c3.682 0 6.176-2.233 6.698-5.162h-3.132c-.435 1.653-1.827 2.61-3.74 2.61-2.466 0-4.06-1.653-4.148-4.176v-.203h11.194c.058-.406.087-.812.087-1.189-.087-4.35-2.958-7.076-7.25-7.076-4.379 0-7.308 3.045-7.308 7.627 0 4.553 2.93 7.569 7.598 7.569zm-4.206-9.222c.232-2.117 1.943-3.451 3.944-3.451 2.175 0 3.712 1.247 3.973 3.451h-7.917zm27.27 6.322c-.639 0-.958-.203-.958-.957v-5.945c0-3.509-2.262-5.394-6.206-5.394-3.74 0-6.235 1.798-6.554 4.698h3.074c.232-1.305 1.48-2.175 3.335-2.175 2.06 0 3.248 1.015 3.248 2.668v.899h-3.74c-4.148 0-6.352 1.711-6.352 4.756 0 2.755 2.262 4.35 5.51 4.35 2.407 0 3.915-1.044 4.901-2.552 0 1.479.696 2.378 2.726 2.378h1.653v-2.726h-.638zm-4.06-3.364c-.03 2.291-1.538 3.828-4.148 3.828-1.71 0-2.755-.87-2.755-2.117 0-1.508 1.073-2.233 3.016-2.233h3.886v.522zM84.854 21h3.828l5.481-14.848h-3.306l-4.03 11.484-4.09-11.484h-3.364L84.855 21zm17.262.174c3.683 0 6.177-2.233 6.699-5.162h-3.132c-.435 1.653-1.827 2.61-3.741 2.61-2.465 0-4.06-1.653-4.147-4.176v-.203h11.194c.058-.406.087-.812.087-1.189-.087-4.35-2.958-7.076-7.25-7.076-4.379 0-7.308 3.045-7.308 7.627 0 4.553 2.93 7.569 7.598 7.569zm-4.205-9.222c.232-2.117 1.943-3.451 3.944-3.451 2.175 0 3.712 1.247 3.973 3.451h-7.917zm12.974 4.147c.087 3.219 2.813 5.075 6.786 5.075 3.596 0 6.293-1.798 6.293-4.64 0-3.306-2.755-4.002-6.148-4.408-2.146-.232-3.567-.406-3.567-1.798 0-1.189 1.218-1.943 3.074-1.943 1.856 0 3.132.957 3.306 2.32h3.074c-.203-3.045-2.784-4.727-6.438-4.727-3.567-.029-6.09 1.798-6.09 4.611 0 3.074 2.668 3.799 6.061 4.205 2.291.29 3.654.406 3.654 2.001 0 1.189-1.276 1.943-3.219 1.943-2.262 0-3.596-1.102-3.712-2.639h-3.074zm15.216-7.424c0 1.16.841 1.972 2.001 1.972s2.03-.812 2.03-1.972-.87-1.972-2.03-1.972c-1.16 0-2.001.812-2.001 1.972zm0 10.527c0 1.16.841 1.972 2.001 1.972s2.03-.812 2.03-1.972-.87-1.972-2.03-1.972c-1.16 0-2.001.812-2.001 1.972zM143.72 21h3.393l3.248-10.092L153.493 21h3.364l4.93-14.848h-3.19l-3.509 11.368-3.248-11.368h-2.871l-3.393 11.368-3.393-11.368h-3.306L143.72 21zm27.516-15.022c-2.32 0-3.741 1.044-4.669 2.32V.7h-3.132V21h3.132v-7.511c0-2.987 1.508-4.814 3.973-4.814 2.32 0 3.567 1.508 3.567 4.321V21h3.132v-8.265c0-4.959-2.697-6.757-6.003-6.757zm15.786 15.196c3.683 0 6.177-2.233 6.699-5.162h-3.132c-.435 1.653-1.827 2.61-3.741 2.61-2.465 0-4.06-1.653-4.148-4.176v-.203h11.195c.058-.406.087-.812.087-1.189-.087-4.35-2.958-7.076-7.25-7.076-4.379 0-7.308 3.045-7.308 7.627 0 4.553 2.929 7.569 7.598 7.569zm-4.205-9.222c.232-2.117 1.943-3.451 3.944-3.451 2.175 0 3.712 1.247 3.973 3.451h-7.917zm21.208-5.8c-2.436 0-3.625.986-4.379 2.233l-.348-2.233h-2.784V21h3.132v-7.453c0-2.291.899-4.466 3.683-4.466h1.392V6.152h-.696zm8.966 15.022c3.683 0 6.177-2.233 6.699-5.162h-3.132c-.435 1.653-1.827 2.61-3.741 2.61-2.465 0-4.06-1.653-4.147-4.176v-.203h11.194c.058-.406.087-.812.087-1.189-.087-4.35-2.958-7.076-7.25-7.076-4.379 0-7.308 3.045-7.308 7.627 0 4.553 2.929 7.569 7.598 7.569zm-4.205-9.222c.232-2.117 1.943-3.451 3.944-3.451 2.175 0 3.712 1.247 3.973 3.451h-7.917zM8.367 40.978c-2.407 0-3.828.957-4.756 2.117l-.348-1.943H.537V56h3.132v-7.482c0-3.016 1.479-4.843 3.973-4.843 2.349 0 3.538 1.508 3.538 4.321V56h3.161v-8.265c0-4.959-2.697-6.757-5.974-6.757zm15.756 15.196c3.683 0 6.177-2.233 6.7-5.162H27.69c-.435 1.653-1.827 2.61-3.74 2.61-2.466 0-4.06-1.653-4.148-4.176v-.203h11.194c.058-.406.087-.812.087-1.189-.087-4.35-2.958-7.076-7.25-7.076-4.379 0-7.308 3.045-7.308 7.627 0 4.553 2.93 7.569 7.598 7.569zm-4.205-9.222c.232-2.117 1.943-3.451 3.944-3.451 2.175 0 3.712 1.247 3.973 3.451h-7.917zM31.398 56h3.451l3.915-5.394L42.65 56h3.654l-5.597-7.598 5.278-7.25h-3.45l-3.626 5.017-3.538-5.017h-3.654l5.25 7.25L31.397 56zm17.705-4.031c0 2.697 1.218 4.031 4.06 4.031h2.9v-2.755H53.86c-1.189 0-1.595-.435-1.595-1.595v-7.743h3.625v-2.755h-3.625v-4.147h-3.16v4.147h-2.582v2.755h2.581v8.062zm14.864-8.062h2.582V56h3.16V43.907h3.974v-2.755H69.65v-1.247c0-1.015.436-1.45 1.45-1.45h2.582V35.7h-2.988c-2.87 0-4.146 1.392-4.146 4.06v1.392h-2.582v2.755zm17.73 12.267c4.525 0 7.57-3.045 7.57-7.598 0-4.524-3.045-7.598-7.57-7.598-4.523 0-7.568 3.074-7.568 7.598 0 4.553 3.045 7.598 7.569 7.598zm0-2.668c-2.638 0-4.35-2.059-4.35-4.93 0-2.871 1.712-4.93 4.35-4.93 2.64 0 4.38 2.059 4.38 4.93 0 2.871-1.74 4.93-4.38 4.93zm17.599-12.354c-2.436 0-3.625.986-4.379 2.233l-.348-2.233h-2.784V56h3.132v-7.453c0-2.291.899-4.466 3.683-4.466h1.392v-2.929h-.696zm27.129-.174c-2.436 0-4.118 1.073-5.075 2.697-.899-1.914-2.639-2.697-4.582-2.697-2.233.029-3.509 1.015-4.35 2.117l-.348-1.943h-2.726V56h3.132v-7.946c0-2.639 1.334-4.379 3.48-4.379 2.059 0 3.132 1.363 3.132 3.973V56h3.161v-8.033c0-2.668 1.363-4.292 3.509-4.292 2.03 0 3.103 1.363 3.103 3.973V56h3.132v-8.555c0-4.698-2.494-6.467-5.568-6.467zm21.979 12.296c-.638 0-.957-.203-.957-.957v-5.945c0-3.509-2.262-5.394-6.206-5.394-3.741 0-6.235 1.798-6.554 4.698h3.074c.232-1.305 1.479-2.175 3.335-2.175 2.059 0 3.248 1.015 3.248 2.668v.899h-3.741c-4.147 0-6.351 1.711-6.351 4.756 0 2.755 2.262 4.35 5.51 4.35 2.407 0 3.915-1.044 4.901-2.552 0 1.479.696 2.378 2.726 2.378h1.653v-2.726h-.638zm-4.06-3.364c-.029 2.291-1.537 3.828-4.147 3.828-1.711 0-2.755-.87-2.755-2.117 0-1.508 1.073-2.233 3.016-2.233h3.886v.522zm13.915-8.758c-2.436 0-3.625.986-4.379 2.233l-.348-2.233h-2.784V56h3.132v-7.453c0-2.291.899-4.466 3.683-4.466h1.392v-2.929h-.696zM160.887 56h3.132v-3.77l2.668-2.784L171.066 56h3.712l-5.945-8.845 5.597-6.003h-3.683l-6.728 7.192V35.7h-3.132V56zm21.518.174c3.683 0 6.177-2.233 6.699-5.162h-3.132c-.435 1.653-1.827 2.61-3.741 2.61-2.465 0-4.06-1.653-4.147-4.176v-.203h11.194c.058-.406.087-.812.087-1.189-.087-4.35-2.958-7.076-7.25-7.076-4.379 0-7.308 3.045-7.308 7.627 0 4.553 2.929 7.569 7.598 7.569zm-4.205-9.222c.232-2.117 1.943-3.451 3.944-3.451 2.175 0 3.712 1.247 3.973 3.451H178.2zm14.657 5.017c0 2.697 1.218 4.031 4.06 4.031h2.9v-2.755h-2.204c-1.189 0-1.595-.435-1.595-1.595v-7.743h3.625v-2.755h-3.625v-4.147h-3.161v4.147h-2.581v2.755h2.581v8.062zm8.314-.87c.087 3.219 2.813 5.075 6.786 5.075 3.596 0 6.293-1.798 6.293-4.64 0-3.306-2.755-4.002-6.148-4.408-2.146-.232-3.567-.406-3.567-1.798 0-1.189 1.218-1.943 3.074-1.943 1.856 0 3.132.957 3.306 2.32h3.074c-.203-3.045-2.784-4.727-6.438-4.727-3.567-.029-6.09 1.798-6.09 4.611 0 3.074 2.668 3.799 6.061 4.205 2.291.29 3.654.406 3.654 2.001 0 1.189-1.276 1.943-3.219 1.943-2.262 0-3.596-1.102-3.712-2.639h-3.074zm17.264-8.758c0-2.407 1.45-4.031 3.683-4.031 1.943 0 3.248 1.16 3.248 2.813 0 1.392-.754 2.32-2.059 3.19-1.74 1.131-3.103 2.088-3.103 4.437v.928h2.958v-.58c0-1.45.986-2.204 2.552-3.277 1.508-1.073 2.9-2.349 2.9-5.017 0-3.045-2.494-5.278-6.525-5.278-4.321 0-6.844 3.045-6.844 6.815h3.19zm1.334 11.89c0 1.16.87 1.943 2.001 1.943 1.131 0 1.972-.783 1.972-1.943 0-1.16-.841-1.943-1.972-1.943s-2.001.783-2.001 1.943z" fill="#000"/></svg>