<svg width="126" height="81" viewBox="0 0 126 81" fill="none" xmlns="http://www.w3.org/2000/svg"><path d="M6.384 11.784V18h2.76v-6.216L15.408 1.2h-3.096L7.776 8.88 3.36 1.2H.12l6.264 10.584zm14.102 6.36c3.744 0 6.264-2.52 6.264-6.288 0-3.744-2.52-6.288-6.264-6.288s-6.264 2.544-6.264 6.288c0 3.768 2.52 6.288 6.264 6.288zm0-2.208c-2.184 0-3.6-1.704-3.6-4.08 0-2.376 1.416-4.08 3.6-4.08s3.624 1.704 3.624 4.08c0 2.376-1.44 4.08-3.624 4.08zm16.772-4.08c0 2.544-1.2 4.032-3.168 4.032-1.896 0-2.856-1.224-2.856-3.624V5.712h-2.592v6.84c0 4.2 2.233 5.592 4.848 5.592 1.896 0 3.024-.768 3.792-1.704l.289 1.56h2.28V5.712h-2.593v6.144zm20.623-4.44c-.792-1.08-2.112-1.848-3.984-1.848-3.336 0-5.808 2.496-5.808 6.288 0 3.936 2.472 6.288 5.808 6.288 1.944 0 3.216-.912 4.008-1.992L58.217 18h2.256V1.2h-2.592v6.216zM54.33 15.96c-2.16 0-3.576-1.68-3.576-4.104 0-2.4 1.416-4.08 3.576-4.08s3.576 1.68 3.576 4.128c0 2.376-1.416 4.056-3.576 4.056zm9.997-11.976c.888 0 1.584-.648 1.584-1.56s-.696-1.56-1.584-1.56c-.888 0-1.584.648-1.584 1.56s.696 1.56 1.584 1.56zM63.006 18h2.592V5.712h-2.592V18zm14.47-10.584c-.793-1.08-2.113-1.848-3.985-1.848-3.336 0-5.808 2.496-5.808 6.288 0 3.936 2.472 6.288 5.808 6.288 1.944 0 3.216-.912 4.008-1.992L77.811 18h2.256V1.2h-2.592v6.216zm-3.553 8.544c-2.16 0-3.576-1.68-3.576-4.104 0-2.4 1.416-4.08 3.576-4.08s3.576 1.68 3.576 4.128c0 2.376-1.416 4.056-3.576 4.056zM89.08 5.568c-1.992 0-3.168.792-3.936 1.752l-.288-1.608H82.6V18h2.592v-6.192c0-2.496 1.224-4.008 3.288-4.008 1.944 0 2.928 1.248 2.928 3.576V18h2.616v-6.84c0-4.104-2.232-5.592-4.944-5.592zm7.915-4.512c-1.104 0-1.824.72-1.824 1.632 0 1.008.624 1.536 1.416 1.536.288 0 .576-.096.792-.264.024.12.024.216.024.336 0 .84-.6 1.776-2.112 1.776v1.416c2.376-.024 3.864-1.344 3.864-3.672 0-1.56-.84-2.76-2.16-2.76zm5.524 13.608c0 2.232 1.008 3.336 3.36 3.336h2.4v-2.28h-1.824c-.984 0-1.32-.36-1.32-1.32V7.992h3v-2.28h-3V2.28h-2.616v3.432h-2.136v2.28h2.136v6.672zm-91.911 18.32c.888 0 1.584-.648 1.584-1.56s-.696-1.56-1.584-1.56c-.888 0-1.584.648-1.584 1.56s.696 1.56 1.584 1.56zm-5.832 1.728V33.68c0-.84.336-1.2 1.176-1.2h1.824V30.2H5.592c-2.376 0-3.432 1.128-3.432 3.288v1.224H.024v2.28H2.16V47h2.616V36.992h4.512V47h2.616V34.712H4.776zm16.124-.144c-1.992 0-3.168.792-3.936 1.752l-.288-1.608H14.42V47h2.592v-6.192c0-2.496 1.224-4.008 3.288-4.008 1.944 0 2.928 1.248 2.928 3.576V47h2.616v-6.84c0-4.104-2.232-5.592-4.944-5.592zm8.622-1.584c.888 0 1.584-.648 1.584-1.56s-.696-1.56-1.584-1.56c-.888 0-1.584.648-1.584 1.56s.696 1.56 1.584 1.56zM28.202 47h2.592V34.712h-2.592V47zm4.604-4.056c.073 2.664 2.329 4.2 5.617 4.2 2.975 0 5.207-1.488 5.207-3.84 0-2.736-2.28-3.312-5.088-3.648-1.776-.192-2.952-.336-2.952-1.488 0-.984 1.008-1.608 2.544-1.608s2.593.792 2.736 1.92h2.544c-.168-2.52-2.303-3.912-5.328-3.912-2.951-.024-5.04 1.488-5.04 3.816 0 2.544 2.209 3.144 5.017 3.48 1.895.24 3.023.336 3.023 1.656 0 .984-1.055 1.608-2.663 1.608-1.873 0-2.977-.912-3.073-2.184h-2.544zm19.29-8.376c-1.92 0-3.097.864-3.865 1.92V30.2H45.64V47h2.592v-6.216c0-2.472 1.248-3.984 3.288-3.984 1.92 0 2.952 1.248 2.952 3.576V47h2.592v-6.84c0-4.104-2.232-5.592-4.968-5.592zm17.017 12.504l-.48 1.2c-.384 1.008-.624 1.248-1.632 1.248h-1.824v2.28h2.784c1.8 0 2.328-.888 3.096-2.88l5.568-14.208h-2.76l-3.336 9.336-3.432-9.336h-2.76l4.776 12.36zm14.069.072c3.744 0 6.264-2.52 6.264-6.288 0-3.744-2.52-6.288-6.264-6.288s-6.264 2.544-6.264 6.288c0 3.768 2.52 6.288 6.264 6.288zm0-2.208c-2.184 0-3.6-1.704-3.6-4.08 0-2.376 1.416-4.08 3.6-4.08s3.624 1.704 3.624 4.08c0 2.376-1.44 4.08-3.624 4.08zm16.772-4.08c0 2.544-1.2 4.032-3.168 4.032-1.896 0-2.856-1.224-2.856-3.624v-6.552h-2.592v6.84c0 4.2 2.232 5.592 4.848 5.592 1.896 0 3.024-.768 3.792-1.704l.288 1.56h2.28V34.712h-2.592v6.144zm11.362-6.144c-2.016 0-3 .816-3.624 1.848l-.288-1.848H105.1V47h2.592v-6.168c0-1.896.744-3.696 3.048-3.696h1.152v-2.424h-.576zM12.504 73.744c-.528 0-.792-.168-.792-.792v-4.92c0-2.904-1.872-4.464-5.136-4.464-3.096 0-5.16 1.488-5.424 3.888h2.544c.192-1.08 1.224-1.8 2.76-1.8 1.704 0 2.688.84 2.688 2.208v.744H6.048c-3.432 0-5.256 1.416-5.256 3.936 0 2.28 1.872 3.6 4.56 3.6 1.992 0 3.24-.864 4.056-2.112 0 1.224.576 1.968 2.256 1.968h1.368v-2.256h-.528zm-3.36-2.784c-.024 1.896-1.272 3.168-3.432 3.168-1.416 0-2.28-.72-2.28-1.752 0-1.248.888-1.848 2.496-1.848h3.216v.432zm11.876-7.392c-1.92 0-3.192.888-4.008 1.968l-.312-1.824h-2.256V80.8h2.592v-6.528c.768 1.104 2.088 1.872 3.984 1.872 3.36 0 5.808-2.496 5.808-6.288 0-3.936-2.448-6.288-5.808-6.288zm-.432 10.392c-2.16 0-3.576-1.704-3.576-4.152 0-2.376 1.416-4.032 3.576-4.032s3.6 1.656 3.6 4.08c0 2.4-1.44 4.104-3.6 4.104zM35.48 63.568c-1.92 0-3.192.888-4.008 1.968l-.312-1.824h-2.256V80.8h2.592v-6.528c.768 1.104 2.088 1.872 3.984 1.872 3.36 0 5.808-2.496 5.808-6.288 0-3.936-2.448-6.288-5.808-6.288zm-.432 10.392c-2.16 0-3.576-1.704-3.576-4.152 0-2.376 1.416-4.032 3.576-4.032s3.6 1.656 3.6 4.08c0 2.4-1.44 4.104-3.6 4.104zM43.366 76h2.592V59.2h-2.592V76zm6.453-14.016c.888 0 1.584-.648 1.584-1.56s-.696-1.56-1.584-1.56c-.888 0-1.584.648-1.584 1.56s.696 1.56 1.584 1.56zM48.499 76h2.592V63.712h-2.592V76zm10.772.144c3.144 0 5.232-1.752 5.712-4.536h-2.736c-.312 1.416-1.368 2.328-2.952 2.328-2.088 0-3.456-1.656-3.456-4.056 0-2.424 1.368-4.104 3.456-4.104 1.608 0 2.64.888 2.976 2.328h2.712c-.504-2.784-2.472-4.536-5.64-4.536-3.72 0-6.168 2.52-6.168 6.312 0 3.84 2.376 6.264 6.096 6.264zm18.928-2.4c-.528 0-.792-.168-.792-.792v-4.92c0-2.904-1.872-4.464-5.136-4.464-3.096 0-5.16 1.488-5.424 3.888h2.544c.192-1.08 1.224-1.8 2.76-1.8 1.704 0 2.688.84 2.688 2.208v.744h-3.096c-3.432 0-5.256 1.416-5.256 3.936 0 2.28 1.872 3.6 4.56 3.6 1.992 0 3.24-.864 4.056-2.112 0 1.224.576 1.968 2.256 1.968h1.368v-2.256H78.2zm-3.36-2.784c-.024 1.896-1.272 3.168-3.432 3.168-1.416 0-2.28-.72-2.28-1.752 0-1.248.888-1.848 2.496-1.848h3.216v.432zm6.188 1.704c0 2.232 1.008 3.336 3.36 3.336h2.4v-2.28h-1.824c-.984 0-1.32-.36-1.32-1.32v-6.408h3v-2.28h-3V60.28h-2.616v3.432h-2.136v2.28h2.136v6.672zm8.73-10.68c.887 0 1.583-.648 1.583-1.56s-.696-1.56-1.584-1.56c-.888 0-1.584.648-1.584 1.56s.696 1.56 1.584 1.56zM88.436 76h2.591V63.712h-2.592V76zm10.94.144c3.744 0 6.264-2.52 6.264-6.288 0-3.744-2.52-6.288-6.264-6.288s-6.264 2.544-6.264 6.288c0 3.768 2.52 6.288 6.264 6.288zm0-2.208c-2.184 0-3.6-1.704-3.6-4.08 0-2.376 1.416-4.08 3.6-4.08S103 67.48 103 69.856c0 2.376-1.44 4.08-3.624 4.08zm14.828-10.368c-1.992 0-3.168.792-3.936 1.752l-.288-1.608h-2.256V76h2.592v-6.192c0-2.496 1.224-4.008 3.288-4.008 1.944 0 2.928 1.248 2.928 3.576V76h2.616v-6.84c0-4.104-2.232-5.592-4.944-5.592zm10.229 7.32l.408-11.688h-2.784l.408 11.688h1.968zm-2.664 3.624c0 .96.72 1.632 1.68 1.632s1.656-.672 1.656-1.632c0-.96-.696-1.632-1.656-1.632s-1.68.672-1.68 1.632z" fill="#000"/></svg>