<svg width="283" height="21" viewBox="0 0 283 21" fill="none" xmlns="http://www.w3.org/2000/svg"><path d="M5.072 16c4.884 0 7.744-3.036 7.744-7.7 0-4.686-2.86-7.7-7.744-7.7H.584V16h4.488zm-3.3-14.3h3.3c4.202 0 6.534 2.552 6.534 6.6 0 4.026-2.332 6.6-6.534 6.6h-3.3V1.7zm13.987.792c.44 0 .792-.33.792-.792a.775.775 0 00-.792-.792c-.44 0-.792.33-.792.792s.352.792.792.792zM15.187 16h1.122V4.846h-1.122V16zm6.994 0h1.342l4.356-11.154h-1.166l-3.828 9.856-3.85-9.856h-1.21L22.181 16zm11.684.132c2.442 0 4.312-1.584 4.796-3.828h-1.144c-.44 1.738-1.914 2.816-3.74 2.816-2.486 0-4.048-1.892-4.092-4.488v-.198h9.108c0-.154.022-.33.022-.462-.11-3.322-2.156-5.258-5.148-5.258-3.058 0-5.148 2.332-5.148 5.632 0 3.498 2.178 5.786 5.346 5.786zm-4.092-6.644c.176-2.266 1.87-3.784 3.916-3.784 2.178 0 3.74 1.342 3.916 3.784h-7.832zm17.762-6.996c.44 0 .792-.33.792-.792a.775.775 0 00-.792-.792c-.44 0-.792.33-.792.792s.352.792.792.792zM46.963 16h1.122V4.846h-1.122V16zM55.87 4.714c-2.046 0-3.366 1.056-4.004 2.508l-.176-2.376h-.968V16h1.122v-5.5c0-2.904 1.474-4.752 3.85-4.752 2.156 0 3.454 1.408 3.454 4.048V16h1.122V9.752c0-3.52-1.87-5.038-4.4-5.038zm7.72 8.69c0 1.782.726 2.596 2.618 2.596h1.628v-1.034h-1.54c-1.166 0-1.584-.44-1.584-1.584V5.88h3.014V4.846h-3.014V1.722H63.59v3.124h-2.112V5.88h2.112v7.524zm10.537 2.728c3.146 0 5.368-2.332 5.368-5.72 0-3.366-2.222-5.698-5.368-5.698-3.146 0-5.346 2.332-5.346 5.698 0 3.388 2.2 5.72 5.346 5.72zm0-1.012c-2.486 0-4.202-1.936-4.202-4.708 0-2.75 1.716-4.708 4.202-4.708 2.486 0 4.202 1.958 4.202 4.708 0 2.772-1.716 4.708-4.202 4.708zM96.74 7.442c-.682-1.65-2.178-2.728-4.246-2.728-3.058 0-5.258 2.31-5.258 5.698 0 3.52 2.2 5.72 5.258 5.72 2.09 0 3.564-1.1 4.268-2.838v1.98c0 2.97-1.408 4.246-4.092 4.246-2.09 0-3.542-.946-3.894-2.64H87.61c.352 2.376 2.266 3.652 4.972 3.652 3.608 0 5.302-1.716 5.302-5.214V4.846h-.968l-.176 2.596zm-4.158 7.678c-2.486 0-4.202-1.936-4.202-4.708 0-2.772 1.716-4.708 4.202-4.708 2.486 0 4.202 1.936 4.202 4.73 0 2.75-1.716 4.686-4.202 4.686zm12.869 1.012c3.146 0 5.368-2.332 5.368-5.72 0-3.366-2.222-5.698-5.368-5.698-3.146 0-5.346 2.332-5.346 5.698 0 3.388 2.2 5.72 5.346 5.72zm0-1.012c-2.486 0-4.202-1.936-4.202-4.708 0-2.75 1.716-4.708 4.202-4.708 2.486 0 4.202 1.958 4.202 4.708 0 2.772-1.716 4.708-4.202 4.708zm7.598.88h1.122V.6h-1.122V16zm12.867-8.646c-.682-1.584-2.178-2.64-4.268-2.64-3.058 0-5.258 2.332-5.258 5.698 0 3.52 2.2 5.72 5.258 5.72 2.09 0 3.542-1.122 4.246-2.684L126.07 16h.968V.6h-1.122v6.754zm-4.18 7.766c-2.486 0-4.202-1.936-4.202-4.708 0-2.75 1.716-4.708 4.202-4.708 2.486 0 4.202 1.958 4.202 4.73 0 2.75-1.716 4.686-4.202 4.686zm8.403-.66c-.594 0-.968.374-.968.858 0 .528.352.792.77.792.22 0 .44-.088.55-.264.154.154.198.374.198.572 0 .836-.528 1.694-1.65 1.738v.66c1.518-.066 2.464-1.078 2.464-2.53 0-1.012-.572-1.826-1.364-1.826zm9.001-1.892c.088 2.31 1.958 3.564 4.752 3.564 2.398 0 4.334-1.21 4.334-3.19 0-2.354-2.068-2.816-4.466-3.146-1.738-.242-3.278-.44-3.278-2.002 0-1.276 1.254-2.112 3.146-2.112 1.782 0 3.058.858 3.256 2.31h1.144c-.198-2.178-1.98-3.278-4.4-3.278-2.486-.022-4.268 1.254-4.268 3.168 0 2.244 2.068 2.662 4.356 2.97 1.87.264 3.388.506 3.388 2.156 0 1.32-1.386 2.156-3.212 2.156-2.134 0-3.52-.99-3.608-2.596h-1.144zm11.799-10.076c.44 0 .792-.33.792-.792a.775.775 0 00-.792-.792c-.44 0-.792.33-.792.792s.352.792.792.792zM150.367 16h1.122V4.846h-1.122V16zm3.76 0h1.122V.6h-1.122V16zm6.993 0h1.342l4.356-11.154h-1.166l-3.828 9.856-3.85-9.856h-1.21L161.12 16zm11.685.132c2.442 0 4.312-1.584 4.796-3.828h-1.144c-.44 1.738-1.914 2.816-3.74 2.816-2.486 0-4.048-1.892-4.092-4.488v-.198h9.108c0-.154.022-.33.022-.462-.11-3.322-2.156-5.258-5.148-5.258-3.058 0-5.148 2.332-5.148 5.632 0 3.498 2.178 5.786 5.346 5.786zm-4.092-6.644c.176-2.266 1.87-3.784 3.916-3.784 2.178 0 3.74 1.342 3.916 3.784h-7.832zm15.813-4.642c-2.068 0-2.948.99-3.41 2.222l-.176-2.222h-.968V16h1.122v-5.654c0-2.266.594-4.422 3.212-4.422h.814V4.846h-.594zm17.999 10.12c-.66 0-.99-.22-.99-1.078V8.696c0-2.552-1.562-3.982-4.356-3.982-2.552 0-4.246 1.232-4.532 3.256h1.122c.286-1.364 1.474-2.266 3.366-2.266 2.09 0 3.278 1.1 3.278 2.948v.968h-3.784c-2.86 0-4.4 1.232-4.4 3.322 0 1.98 1.562 3.19 3.938 3.19 2.266 0 3.608-1.034 4.29-2.42v.396c-.044 1.32.506 1.892 1.826 1.892h.66v-1.034h-.418zm-2.112-3.476c0 2.134-1.518 3.674-4.158 3.674-1.782 0-2.882-.902-2.882-2.288 0-1.474 1.1-2.288 3.168-2.288h3.872v.902zm9.178-6.776c-2.046 0-3.366 1.056-4.004 2.508l-.176-2.376h-.968V16h1.122v-5.5c0-2.904 1.474-4.752 3.85-4.752 2.156 0 3.454 1.408 3.454 4.048V16h1.122V9.752c0-3.52-1.87-5.038-4.4-5.038zm15.819 2.64c-.682-1.584-2.178-2.64-4.268-2.64-3.058 0-5.258 2.332-5.258 5.698 0 3.52 2.2 5.72 5.258 5.72 2.09 0 3.542-1.122 4.246-2.684l.176 2.552h.968V.6h-1.122v6.754zm-4.18 7.766c-2.486 0-4.202-1.936-4.202-4.708 0-2.75 1.716-4.708 4.202-4.708 2.486 0 4.202 1.958 4.202 4.73 0 2.75-1.716 4.686-4.202 4.686zm26.323-10.406c-2.046 0-3.366 1.144-4.004 2.794-.528-1.848-1.914-2.794-3.674-2.794-1.914 0-3.058 1.122-3.63 2.508l-.176-2.376h-.968V16h1.122v-5.676c0-2.728 1.32-4.576 3.454-4.576 1.936 0 3.146 1.364 3.146 3.938V16h1.122V9.928c.066-2.552 1.386-4.18 3.476-4.18 1.936 0 3.102 1.298 3.102 3.828V16h1.144V9.532c0-3.366-1.782-4.818-4.114-4.818zm11.361 11.418c3.146 0 5.368-2.332 5.368-5.72 0-3.366-2.222-5.698-5.368-5.698-3.146 0-5.346 2.332-5.346 5.698 0 3.388 2.2 5.72 5.346 5.72zm0-1.012c-2.486 0-4.202-1.936-4.202-4.708 0-2.75 1.716-4.708 4.202-4.708 2.486 0 4.202 1.958 4.202 4.708 0 2.772-1.716 4.708-4.202 4.708zm12.151-10.274c-2.068 0-2.948.99-3.41 2.222l-.176-2.222h-.968V16h1.122v-5.654c0-2.266.594-4.422 3.212-4.422h.814V4.846h-.594zm6.39 11.286c2.442 0 4.312-1.584 4.796-3.828h-1.144c-.44 1.738-1.914 2.816-3.74 2.816-2.486 0-4.048-1.892-4.092-4.488v-.198h9.108c0-.154.022-.33.022-.462-.11-3.322-2.156-5.258-5.148-5.258-3.058 0-5.148 2.332-5.148 5.632 0 3.498 2.178 5.786 5.346 5.786zm-4.092-6.644c.176-2.266 1.87-3.784 3.916-3.784 2.178 0 3.74 1.342 3.916 3.784h-7.832z" fill="#000"/></svg>