<svg width="245" height="15" viewBox="0 0 245 15" fill="none" xmlns="http://www.w3.org/2000/svg"><path d="M11.104 6.416c0-3.6-2.128-5.824-5.36-5.824S.4 2.832.4 6.416c0 3.488 2.112 5.792 5.344 5.792 3.216 0 5.36-2.288 5.36-5.792zm-9.168 0c0-2.864 1.408-4.592 3.808-4.592 2.384 0 3.824 1.744 3.824 4.592s-1.44 4.56-3.824 4.56c-2.368 0-3.808-1.728-3.808-4.56zM15.084 4.88h1.792c.08 0 .144-.064.144-.144v-.832a.143.143 0 00-.144-.144h-1.792v-.608c0-1.04.4-1.44 1.056-1.44.272 0 .528.032.752.096a.12.12 0 00.144-.112V.88c0-.08-.064-.16-.144-.176A5.38 5.38 0 0015.82.592c-1.056 0-2.16.64-2.16 2.448v.72h-1.152a.143.143 0 00-.144.144v.832c0 .08.064.144.144.144h1.152v3.408l-.048 3.568c0 .08.064.144.144.144h1.232c.08 0 .144-.064.144-.144l-.048-3.568V4.88zm5.812 0h1.792c.08 0 .144-.064.144-.144v-.832a.143.143 0 00-.144-.144h-1.792v-.608c0-1.04.4-1.44 1.056-1.44.272 0 .528.032.752.096a.12.12 0 00.144-.112V.88c0-.08-.064-.16-.144-.176a5.38 5.38 0 00-1.072-.112c-1.056 0-2.16.64-2.16 2.448v.72H18.32a.143.143 0 00-.144.144v.832c0 .08.064.144.144.144h1.152v3.408l-.048 3.568c0 .08.064.144.144.144H20.8c.08 0 .144-.064.144-.144l-.048-3.568V4.88zm10.152 4.752c0-3.456-5.552-1.68-5.552-3.728 0-.912.72-1.328 1.84-1.328 1.184 0 1.984.48 2.08 1.52.016.08.08.144.16.144h1.072c.08 0 .144-.064.144-.144-.128-1.712-1.52-2.512-3.44-2.512-1.952 0-3.248.832-3.248 2.416 0 3.328 5.552 1.584 5.552 3.744 0 .912-.8 1.424-2.016 1.424-1.472 0-2.256-.576-2.32-1.872a.143.143 0 00-.144-.144h-1.12a.143.143 0 00-.144.144c.064 1.92 1.488 2.88 3.68 2.88 1.968 0 3.456-.928 3.456-2.544zm7.653-.496c-.08 0-.16.064-.176.144-.24 1.2-.976 1.84-2.192 1.84-1.616 0-2.432-1.056-2.48-3.04h6.08c.08 0 .144-.064.144-.144-.048-2.736-1.456-4.368-3.84-4.368s-3.856 1.76-3.856 4.336c0 2.512 1.376 4.288 3.936 4.288 2.112 0 3.36-1.232 3.616-2.912 0-.08-.048-.144-.128-.144H38.7zm-.192-2.08H33.9c.208-1.552.992-2.432 2.352-2.432 1.456 0 2.208 1.12 2.256 2.432zm7.1 3.936c0-.064-.064-.128-.144-.096a4.136 4.136 0 01-.848.096c-.704 0-1.04-.304-1.04-1.296v-4.8h1.888c.08 0 .144-.064.144-.144v-.848a.143.143 0 00-.144-.144h-1.888l.016-1.92a.143.143 0 00-.144-.144h-1.184a.143.143 0 00-.144.144l.016 1.92h-.912a.143.143 0 00-.144.144v.848c0 .08.064.144.144.144h.912v4.832c0 1.792 1.008 2.416 2.208 2.416.384 0 .8-.096 1.12-.192.08-.032.144-.112.144-.192v-.768zm11.624-7.088c.032-.08-.016-.144-.096-.144H55.92c-.08 0-.16.064-.192.144l-1.968 6.208-2.336-6.224c-.032-.064-.112-.128-.192-.128h-1.36c-.064 0-.112.064-.096.128l3.232 8.128-.88 2.56c-.032.08.032.144.096.144h1.104c.08 0 .16-.064.192-.144l3.712-10.672zm8.407 3.968c0-2.592-1.392-4.304-3.904-4.304-2.496 0-3.904 1.728-3.904 4.336 0 2.592 1.408 4.288 3.904 4.288 2.512 0 3.904-1.728 3.904-4.32zm-6.32.032c0-2.064.784-3.248 2.416-3.264 1.6 0 2.4 1.2 2.4 3.264s-.784 3.216-2.4 3.216c-1.616 0-2.416-1.152-2.416-3.216zm13.411 2.688l-.032 1.264c0 .08.064.144.144.144h1.136c.08 0 .144-.064.144-.144l-.032-4.336.048-3.616a.143.143 0 00-.144-.144h-1.216a.143.143 0 00-.144.144l.032 3.376v1.248c-.32 1.632-1.2 2.496-2.272 2.496-1.04 0-1.744-.672-1.744-2.16V7.28l.032-3.376a.143.143 0 00-.144-.144h-1.2a.143.143 0 00-.144.144l.032 3.376v1.632c0 2.16 1.072 3.28 2.768 3.28 1.312 0 2.24-.752 2.736-1.6zM77.352 12c.08 0 .144-.064.144-.144l-.016-4.32c.176-1.808 1.376-2.656 2.768-2.656.176 0 .336.016.464.032a.12.12 0 00.144-.112v-.896c0-.08-.064-.16-.144-.176a2.217 2.217 0 00-.48-.048c-1.152 0-2.208.56-2.8 1.616l.064-1.392a.143.143 0 00-.144-.144h-1.184a.143.143 0 00-.144.144l.048 3.888-.048 4.064c0 .08.064.144.144.144h1.184zm18.803-3.968c.016-.096-.048-.176-.144-.176h-2.08a.221.221 0 00-.208.176c-.304 1.504-1.152 2.336-2.704 2.336-1.904 0-2.992-1.44-2.992-3.936s1.056-4 3.008-4c1.44 0 2.32.752 2.656 2.08a.206.206 0 00.208.176h2.032c.096 0 .16-.08.144-.176C95.419 1.552 93.467.56 91.067.56c-3.376 0-5.552 2.32-5.552 5.888 0 3.408 2.128 5.792 5.568 5.792 2.624 0 4.448-1.168 5.072-4.208zm12.468-1.6c0-3.616-2.256-5.872-5.664-5.872-3.44 0-5.648 2.304-5.648 5.872 0 3.424 2.224 5.808 5.648 5.808 3.424 0 5.664-2.384 5.664-5.808zm-8.8 0c0-2.496 1.088-4 3.136-4s3.152 1.552 3.152 4-1.12 3.936-3.136 3.936-3.152-1.504-3.152-3.936zM117.538 12c.096 0 .176-.08.176-.176v-1.456a.178.178 0 00-.176-.176h-5.344V10c0-2.144 5.52-1.904 5.52-6.048-.064-2.096-1.328-3.36-3.824-3.36-2.576.016-3.888 1.408-3.904 3.824 0 .096.08.176.176.176h1.872c.096 0 .176-.08.176-.176.048-1.344.688-2.064 1.68-2.08 1.04-.016 1.616.624 1.568 1.696 0 2.352-5.536 1.936-5.536 6.4v1.392c0 .096.08.176.176.176h7.44zm11.211-2.784a.206.206 0 00-.208.176c-.224.864-.8 1.216-1.6 1.216-1.152 0-1.76-.688-1.856-2.24h5.856c.096 0 .176-.08.176-.176-.064-2.864-1.552-4.64-4.256-4.64-2.624 0-4.192 1.728-4.192 4.352 0 2.496 1.488 4.304 4.24 4.304 2.288 0 3.728-1.312 3.952-2.816.016-.096-.064-.176-.16-.176h-1.952zm-.224-2.368h-3.376c.192-1.136.768-1.712 1.728-1.712 1.056 0 1.552.832 1.648 1.712zm6.36 1.04c0-1.68.784-2.56 1.456-2.56.672 0 1.072.48 1.072 1.472v2.24l-.064 2.784c0 .096.08.176.176.176h2.112c.096 0 .176-.08.176-.176l-.064-2.784V7.888c0-1.68.8-2.56 1.456-2.56.656 0 1.072.48 1.072 1.472v2.24l-.064 2.784c0 .096.08.176.176.176h2.112c.096 0 .176-.08.176-.176l-.048-2.784V6.768c0-2.192-.96-3.2-2.624-3.2-.976 0-1.808.304-2.512 1.552-.384-1.056-1.2-1.552-2.352-1.552-1.056 0-1.792.432-2.368 1.232l.032-.864c.016-.096-.064-.176-.16-.176h-1.984a.178.178 0 00-.176.176l.032 5.104-.064 2.784c0 .096.08.176.176.176h2.144c.096 0 .176-.08.176-.176l-.064-2.784V7.888zm13.638-4.928c.096 0 .176-.08.176-.176V.976a.178.178 0 00-.176-.176h-2.08a.178.178 0 00-.176.176v1.808c0 .096.08.176.176.176h2.08zm.016 9.04c.096 0 .176-.08.176-.176l-.064-3.936.064-3.952a.178.178 0 00-.176-.176h-2.112a.178.178 0 00-.176.176l.064 3.952-.064 3.936c0 .096.08.176.176.176h2.112zm9.484-2.512c0-3.504-5.392-1.904-5.392-3.472 0-.704.496-.992 1.28-.992.96 0 1.408.416 1.536 1.104.032.112.112.176.224.176h1.872c.096 0 .176-.08.16-.176-.16-1.712-1.616-2.56-3.76-2.56-2.224 0-3.6.912-3.6 2.624 0 3.456 5.392 1.936 5.392 3.504 0 .64-.512 1.008-1.456 1.008-1.12 0-1.712-.4-1.792-1.296a.178.178 0 00-.176-.176h-1.984a.178.178 0 00-.176.176c.096 1.824 1.712 2.784 4.048 2.784 2.192 0 3.824-.976 3.824-2.704zm9.062 0c0-3.504-5.392-1.904-5.392-3.472 0-.704.496-.992 1.28-.992.96 0 1.408.416 1.536 1.104.032.112.112.176.224.176h1.872c.096 0 .176-.08.16-.176-.16-1.712-1.616-2.56-3.76-2.56-2.224 0-3.6.912-3.6 2.624 0 3.456 5.392 1.936 5.392 3.504 0 .64-.512 1.008-1.456 1.008-1.12 0-1.712-.4-1.792-1.296a.178.178 0 00-.176-.176h-1.984a.178.178 0 00-.176.176c.096 1.824 1.712 2.784 4.048 2.784 2.192 0 3.824-.976 3.824-2.704zm3.718-6.528c.096 0 .176-.08.176-.176V.976a.178.178 0 00-.176-.176h-2.08a.178.178 0 00-.176.176v1.808c0 .096.08.176.176.176h2.08zm.016 9.04c.096 0 .176-.08.176-.176l-.064-3.936.064-3.952a.178.178 0 00-.176-.176h-2.112a.178.178 0 00-.176.176l.064 3.952-.064 3.936c0 .096.08.176.176.176h2.112zm10.075-4.144c0-2.624-1.52-4.304-4.208-4.304s-4.24 1.728-4.24 4.352c0 2.624 1.552 4.304 4.24 4.304s4.208-1.728 4.208-4.352zm-6 .064c0-1.856.56-2.752 1.776-2.768 1.184 0 1.76.896 1.76 2.752 0 1.888-.56 2.704-1.744 2.704-1.2 0-1.792-.832-1.792-2.688zm9.688 4.08c.096 0 .176-.08.176-.176l-.032-3.328v-.608c0-1.76.928-2.56 1.792-2.56.72 0 1.264.576 1.264 1.472v1.696l-.048 3.328c0 .096.08.176.176.176h2.08c.096 0 .176-.08.176-.176l-.048-3.328V6.768c0-2.016-1.12-3.2-2.864-3.2-1.152 0-2.096.512-2.656 1.232l.032-.864c.016-.096-.064-.176-.16-.176h-1.968a.178.178 0 00-.176.176l.032 4.112-.064 3.776c0 .096.08.176.176.176h2.112zm14.781-2.512c0-3.504-5.392-1.904-5.392-3.472 0-.704.496-.992 1.28-.992.96 0 1.408.416 1.536 1.104.032.112.112.176.224.176h1.872c.096 0 .176-.08.16-.176-.16-1.712-1.616-2.56-3.76-2.56-2.224 0-3.6.912-3.6 2.624 0 3.456 5.392 1.936 5.392 3.504 0 .64-.512 1.008-1.456 1.008-1.12 0-1.712-.4-1.792-1.296a.178.178 0 00-.176-.176h-1.984a.178.178 0 00-.176.176c.096 1.824 1.712 2.784 4.048 2.784 2.192 0 3.824-.976 3.824-2.704zm9.467 1.504c0-.064-.064-.128-.144-.096a4.136 4.136 0 01-.848.096c-.704 0-1.04-.304-1.04-1.296v-4.8h1.888c.08 0 .144-.064.144-.144v-.848a.143.143 0 00-.144-.144h-1.888l.016-1.92a.143.143 0 00-.144-.144h-1.184a.143.143 0 00-.144.144l.016 1.92h-.912a.143.143 0 00-.144.144v.848c0 .08.064.144.144.144h.912v4.832c0 1.792 1.008 2.416 2.208 2.416.384 0 .8-.096 1.12-.192.08-.032.144-.112.144-.192v-.768zm8.673-3.12c0-2.592-1.392-4.304-3.904-4.304-2.496 0-3.904 1.728-3.904 4.336 0 2.592 1.408 4.288 3.904 4.288 2.512 0 3.904-1.728 3.904-4.32zm-6.32.032c0-2.064.784-3.248 2.416-3.264 1.6 0 2.4 1.2 2.4 3.264s-.784 3.216-2.4 3.216c-1.616 0-2.416-1.152-2.416-3.216zm9.155-.112c0-1.856.736-3.168 2.32-3.152 1.456.016 2.288 1.232 2.272 3.312-.016 2.096-.896 3.152-2.304 3.152-1.552 0-2.288-1.328-2.288-3.312zm5.84 4.208c.08 0 .144-.064.144-.144l-.032-6.064.032-4.848a.143.143 0 00-.144-.144h-1.184a.143.143 0 00-.144.144l.016 4.032c-.56-.896-1.44-1.376-2.576-1.376-2.176 0-3.44 1.92-3.44 4.304 0 2.4 1.184 4.256 3.408 4.256 1.184 0 2.08-.544 2.624-1.456l-.032 1.152c0 .08.064.144.144.144h1.184zm3.269-4.208c0-1.792.688-3.056 2.176-3.12h.336c1.344.112 2.096 1.296 2.08 3.28-.016 2.08-.88 3.136-2.304 3.136-1.552 0-2.288-1.328-2.288-3.296zm5.84 4.208c.08 0 .144-.064.144-.144l-.048-4.048.048-3.904a.143.143 0 00-.144-.144h-1.184a.143.143 0 00-.144.144l.032 1.104c-.544-.912-1.424-1.408-2.592-1.408-2.176 0-3.44 1.92-3.44 4.304 0 2.384 1.184 4.256 3.408 4.256 1.2 0 2.08-.56 2.64-1.488l-.032 1.184c0 .08.064.144.144.144h1.168zm8.885-8.096c.032-.08-.016-.144-.096-.144h-1.216c-.08 0-.16.064-.192.144l-1.968 6.208-2.336-6.224c-.032-.064-.112-.128-.192-.128h-1.36c-.064 0-.112.064-.096.128l3.232 8.128-.88 2.56c-.032.08.032.144.096.144h1.104c.08 0 .16-.064.192-.144l3.712-10.672z" fill="#fff"/></svg>