<svg width="129" height="45" viewBox="0 0 129 45" fill="none" xmlns="http://www.w3.org/2000/svg"><path d="M86.406 17.671H79.75C77.925 7.22 70.285.87 58.734.87 45.75.87 37.357 9.565 37.357 23c0 13.437 8.132 21.938 21.377 21.87 10.797 0 18.456-5.968 20.735-15.745h4.509l1.376-3.822h-5.287a31.31 31.31 0 00.081-3.822h4.944l1.314-3.822v.012zm-18.612 7.644h-7.092l-1.377 3.822h8.09c-.91 5.724-3.357 9.684-8.42 9.684-6.687 0-9.309-7.119-9.309-15.939s2.099-15.876 8.855-15.938c5.311 0 8.058 4.447 8.967 10.734h-5.754L60.44 21.5h7.385c.013.456.025.913.025 1.382 0 .832-.019 1.645-.056 2.44v-.007zM.637 43.819h11.607v-14.95h19.74v-9.684h-19.74v-7.118h21.838V1.858H.637v41.96zM118.674 29.194c5.181-2.24 8.587-6.525 8.587-12.911v-.132c0-4.084-1.245-7.375-3.674-9.752-2.815-2.833-7.279-4.54-13.637-4.54H90.149v41.96h11.607V31.1h5.112l8.394 12.718h13.375l-9.969-14.625h.006zm-3.02-12.192c0 3.097-2.292 5.004-6.227 5.004h-7.678v-10.14h7.61c3.935 0 6.295 1.715 6.295 5.005v.131z" fill="#fff"/></svg>