<svg width="86" height="73" viewBox="0 0 86 73" fill="none" xmlns="http://www.w3.org/2000/svg"><path d="M.44 2.844h4.752V16h2.53V2.844h4.752V.6H.44v2.244zm18.283 1.892c-1.848 0-2.75.748-3.322 1.694l-.264-1.694h-2.112V16h2.376v-5.654c0-1.738.682-3.388 2.794-3.388h1.056V4.736h-.528zm11.946 9.196c-.484 0-.726-.154-.726-.726v-4.51c0-2.662-1.716-4.092-4.708-4.092-2.838 0-4.73 1.364-4.972 3.564h2.332c.176-.99 1.122-1.65 2.53-1.65 1.562 0 2.464.77 2.464 2.024v.682h-2.838c-3.146 0-4.818 1.298-4.818 3.608 0 2.09 1.716 3.3 4.18 3.3 1.826 0 2.97-.792 3.718-1.936 0 1.122.528 1.804 2.068 1.804h1.254v-2.068h-.484zm-3.08-2.552c-.022 1.738-1.166 2.904-3.146 2.904-1.298 0-2.09-.66-2.09-1.606 0-1.144.814-1.694 2.288-1.694h2.948v.396zm13.33-5.082c-.726-.99-1.936-1.694-3.652-1.694-3.058 0-5.324 2.288-5.324 5.764 0 3.608 2.266 5.764 5.324 5.764 1.782 0 2.948-.836 3.674-1.826L41.227 16h2.068V.6H40.92v5.698zm-3.256 7.832c-1.98 0-3.278-1.54-3.278-3.762 0-2.2 1.298-3.74 3.278-3.74s3.278 1.54 3.278 3.784c0 2.178-1.298 3.718-3.278 3.718zm13.3 2.002c2.794 0 4.686-1.694 5.082-3.916H53.67c-.33 1.254-1.386 1.98-2.838 1.98-1.87 0-3.08-1.254-3.146-3.168v-.154h8.492c.044-.308.066-.616.066-.902-.066-3.3-2.244-5.368-5.5-5.368-3.322 0-5.544 2.31-5.544 5.786 0 3.454 2.222 5.742 5.764 5.742zm-3.19-6.996c.176-1.606 1.474-2.618 2.992-2.618 1.65 0 2.816.946 3.014 2.618h-6.006zm10.803 4.026c-1.011 0-1.672.66-1.672 1.496 0 .946.572 1.408 1.298 1.408.265 0 .529-.066.727-.22.021.088.021.198.021.286 0 .77-.55 1.628-1.936 1.65v1.276c2.178-.022 3.542-1.232 3.542-3.366 0-1.408-.77-2.53-1.98-2.53zM1.409 42h2.53V26.6h-2.53V42zm18.066-11.396c-1.848 0-3.124.814-3.85 2.046-.682-1.452-2.002-2.046-3.476-2.046-1.694.022-2.662.77-3.3 1.606l-.264-1.474H6.516V42h2.376v-6.028c0-2.002 1.012-3.322 2.64-3.322 1.562 0 2.376 1.034 2.376 3.014V42h2.398v-6.094c0-2.024 1.034-3.256 2.662-3.256 1.54 0 2.354 1.034 2.354 3.014V42h2.376v-6.49c0-3.564-1.892-4.906-4.224-4.906zm12.405 0c-1.76 0-2.926.814-3.674 1.804l-.285-1.672H25.85V46.4h2.377v-5.984c.703 1.012 1.913 1.716 3.651 1.716 3.08 0 5.324-2.288 5.324-5.764 0-3.608-2.244-5.764-5.324-5.764zm-.396 9.526c-1.98 0-3.277-1.562-3.277-3.806 0-2.178 1.297-3.696 3.277-3.696 1.98 0 3.3 1.518 3.3 3.74 0 2.2-1.32 3.762-3.3 3.762zm13.322-9.394c-1.848 0-2.75.748-3.322 1.694l-.264-1.694h-2.112V42h2.376v-5.654c0-1.738.682-3.388 2.794-3.388h1.056v-2.222h-.528zm6.78 11.396c3.433 0 5.743-2.31 5.743-5.764 0-3.432-2.31-5.764-5.742-5.764s-5.742 2.332-5.742 5.764c0 3.454 2.31 5.764 5.742 5.764zm0-2.024c-2.001 0-3.3-1.562-3.3-3.74s1.299-3.74 3.3-3.74c2.003 0 3.323 1.562 3.323 3.74s-1.32 3.74-3.322 3.74zM61.76 42h2.904l4.158-11.264h-2.508l-3.058 8.712-3.102-8.712H57.6L61.759 42zm13.095.132c2.794 0 4.686-1.694 5.082-3.916H77.56c-.33 1.254-1.386 1.98-2.838 1.98-1.87 0-3.08-1.254-3.146-3.168v-.154h8.492c.044-.308.066-.616.066-.902-.066-3.3-2.244-5.368-5.5-5.368-3.322 0-5.544 2.31-5.544 5.786 0 3.454 2.222 5.742 5.764 5.742zm-3.19-6.996c.176-1.606 1.474-2.618 2.992-2.618 1.65 0 2.816.946 3.014 2.618h-6.006zm10.803 4.026c-1.012 0-1.672.66-1.672 1.496 0 .946.572 1.408 1.298 1.408.264 0 .528-.066.726-.22.022.088.022.198.022.286 0 .77-.55 1.628-1.936 1.65v1.276c2.178-.022 3.542-1.232 3.542-3.366 0-1.408-.77-2.53-1.98-2.53zM1.408 68h2.53v-5.588h3.388L10.296 68h2.816l-3.256-6.138c1.804-.638 2.992-2.288 2.992-4.356 0-2.992-2.156-4.906-5.368-4.906H1.408V68zm5.874-13.2c1.804 0 2.97 1.056 2.97 2.706s-1.166 2.706-2.97 2.706H3.938V54.8h3.344zm12.4 13.332c2.794 0 4.686-1.694 5.082-3.916h-2.376c-.33 1.254-1.386 1.98-2.838 1.98-1.87 0-3.08-1.254-3.146-3.168v-.154h8.492c.044-.308.066-.616.066-.902-.066-3.3-2.244-5.368-5.5-5.368-3.322 0-5.544 2.31-5.544 5.786 0 3.454 2.222 5.742 5.764 5.742zm-3.19-6.996c.176-1.606 1.474-2.618 2.992-2.618 1.65 0 2.816.946 3.014 2.618h-6.006zm16.419-4.532c-1.76 0-2.926.814-3.674 1.804l-.286-1.672h-2.068V72.4h2.376v-5.984c.704 1.012 1.914 1.716 3.652 1.716 3.08 0 5.324-2.288 5.324-5.764 0-3.608-2.244-5.764-5.324-5.764zm-.396 9.526c-1.98 0-3.278-1.562-3.278-3.806 0-2.178 1.298-3.696 3.278-3.696s3.3 1.518 3.3 3.74c0 2.2-1.32 3.762-3.3 3.762zm12.97 2.002c2.794 0 4.686-1.694 5.082-3.916H48.19c-.33 1.254-1.386 1.98-2.838 1.98-1.87 0-3.08-1.254-3.146-3.168v-.154h8.492c.044-.308.066-.616.066-.902-.066-3.3-2.244-5.368-5.5-5.368-3.322 0-5.544 2.31-5.544 5.786 0 3.454 2.222 5.742 5.764 5.742zm-3.19-6.996c.176-1.606 1.474-2.618 2.992-2.618 1.65 0 2.816.946 3.014 2.618h-6.006zm20.686 4.796c-.483 0-.726-.154-.726-.726v-4.51c0-2.662-1.716-4.092-4.708-4.092-2.837 0-4.73 1.364-4.971 3.564h2.331c.177-.99 1.123-1.65 2.53-1.65 1.563 0 2.465.77 2.465 2.024v.682h-2.839c-3.146 0-4.818 1.298-4.818 3.608 0 2.09 1.717 3.3 4.18 3.3 1.827 0 2.97-.792 3.719-1.936 0 1.122.528 1.804 2.068 1.804h1.253v-2.068h-.484zm-3.08-2.552c-.022 1.738-1.166 2.904-3.146 2.904-1.297 0-2.09-.66-2.09-1.606 0-1.144.815-1.694 2.288-1.694h2.948v.396zm5.673 1.562c0 2.046.924 3.058 3.08 3.058h2.2v-2.09h-1.672c-.902 0-1.21-.33-1.21-1.21v-5.874h2.75v-2.09h-2.75V53.59h-2.398v3.146h-1.958v2.09h1.958v6.116zm6.7 1.694c0 .88.638 1.496 1.518 1.496s1.54-.616 1.54-1.496-.66-1.496-1.54-1.496-1.518.616-1.518 1.496zm4.92 0c0 .88.638 1.496 1.518 1.496s1.54-.616 1.54-1.496-.66-1.496-1.54-1.496-1.518.616-1.518 1.496zm4.92 0c0 .88.638 1.496 1.518 1.496s1.54-.616 1.54-1.496-.66-1.496-1.54-1.496-1.518.616-1.518 1.496z" fill="#000"/></svg>