<svg width="219" height="24" viewBox="0 0 219 24" fill="none" xmlns="http://www.w3.org/2000/svg"><path d="M.585 18.187h2.85V.846H.584v17.34zM20.928 5.355c-2.081 0-3.518.916-4.335 2.303-.768-1.635-2.255-2.303-3.914-2.303-1.908.024-2.998.867-3.716 1.808l-.298-1.66H6.337v12.684h2.675v-6.788c0-2.254 1.14-3.74 2.973-3.74 1.759 0 2.675 1.164 2.675 3.393v7.135h2.7v-6.862c0-2.28 1.165-3.667 2.998-3.667 1.734 0 2.65 1.165 2.65 3.394v7.135h2.676v-7.308c0-4.013-2.13-5.524-4.756-5.524zm21.773 0c-2.081 0-3.518.916-4.336 2.303-.768-1.635-2.254-2.303-3.914-2.303-1.907.024-2.997.867-3.716 1.808l-.297-1.66H28.11v12.684h2.675v-6.788c0-2.254 1.14-3.74 2.973-3.74 1.759 0 2.675 1.164 2.675 3.393v7.135h2.7v-6.862c0-2.28 1.165-3.667 2.998-3.667 1.734 0 2.65 1.165 2.65 3.394v7.135h2.676v-7.308c0-4.013-2.13-5.524-4.756-5.524zm13.104 12.98c3.147 0 5.277-1.907 5.723-4.409h-2.676c-.371 1.412-1.56 2.23-3.195 2.23-2.106 0-3.468-1.412-3.543-3.568v-.173h9.563c.05-.347.074-.694.074-1.016-.075-3.716-2.527-6.044-6.193-6.044-3.741 0-6.243 2.6-6.243 6.515 0 3.89 2.502 6.466 6.49 6.466zm-3.592-7.877c.199-1.809 1.66-2.948 3.37-2.948 1.857 0 3.17 1.065 3.393 2.948h-6.763zM70.33 5.503c-2.081 0-3.097.843-3.74 1.908l-.298-1.908h-2.378v12.684h2.675V11.82c0-1.957.768-3.815 3.146-3.815h1.19V5.503h-.595zM71.812 14c.074 2.75 2.403 4.335 5.797 4.335 3.071 0 5.375-1.535 5.375-3.963 0-2.824-2.353-3.419-5.251-3.766-1.834-.198-3.047-.346-3.047-1.535 0-1.016 1.04-1.66 2.625-1.66 1.586 0 2.676.817 2.824 1.982h2.626c-.173-2.602-2.378-4.038-5.5-4.038-3.046-.025-5.201 1.536-5.201 3.938 0 2.626 2.279 3.246 5.177 3.593 1.957.247 3.121.346 3.121 1.709 0 1.015-1.09 1.66-2.75 1.66-1.932 0-3.071-.942-3.17-2.255h-2.626zm19.265 4.335c3.147 0 5.277-1.907 5.723-4.409h-2.676c-.371 1.412-1.56 2.23-3.195 2.23-2.106 0-3.468-1.412-3.543-3.568v-.173h9.563c.05-.347.074-.694.074-1.016-.075-3.716-2.527-6.044-6.193-6.044-3.741 0-6.243 2.6-6.243 6.515 0 3.89 2.502 6.466 6.49 6.466zm-3.592-7.877c.198-1.809 1.66-2.948 3.37-2.948 1.857 0 3.17 1.065 3.393 2.948h-6.763zm21.705 7.803l-.495 1.239c-.396 1.04-.644 1.288-1.685 1.288h-1.882v2.353h2.873c1.858 0 2.403-.916 3.196-2.972l5.747-14.666h-2.849l-3.443 9.637-3.542-9.637h-2.849l4.929 12.758zm14.522.075c3.864 0 6.466-2.602 6.466-6.49 0-3.865-2.602-6.491-6.466-6.491-3.865 0-6.466 2.626-6.466 6.49 0 3.89 2.601 6.49 6.466 6.49zm0-2.28c-2.254 0-3.716-1.758-3.716-4.21 0-2.453 1.462-4.212 3.716-4.212 2.254 0 3.741 1.759 3.741 4.211 0 2.453-1.487 4.211-3.741 4.211zm17.312-4.21c0 2.625-1.239 4.16-3.27 4.16-1.957 0-2.948-1.263-2.948-3.74V5.503h-2.675v7.06c0 4.336 2.304 5.772 5.004 5.772 1.957 0 3.121-.792 3.914-1.758l.297 1.61h2.354V5.503h-2.676v6.342zm11.728-6.343c-2.081 0-3.096.843-3.74 1.908l-.298-1.908h-2.378v12.684h2.676V11.82c0-1.957.767-3.815 3.146-3.815h1.189V5.503h-.595zM154.234 14c.074 2.75 2.403 4.335 5.797 4.335 3.072 0 5.376-1.535 5.376-3.963 0-2.824-2.354-3.419-5.252-3.766-1.833-.198-3.047-.346-3.047-1.535 0-1.016 1.04-1.66 2.626-1.66 1.585 0 2.675.817 2.824 1.982h2.626c-.174-2.602-2.379-4.038-5.5-4.038-3.047-.025-5.202 1.536-5.202 3.938 0 2.626 2.279 3.246 5.177 3.593 1.957.247 3.122.346 3.122 1.709 0 1.015-1.09 1.66-2.75 1.66-1.932 0-3.072-.942-3.171-2.255h-2.626zm19.266 4.335c3.146 0 5.276-1.907 5.722-4.409h-2.675c-.372 1.412-1.561 2.23-3.196 2.23-2.106 0-3.468-1.412-3.542-3.568v-.173h9.562c.049-.347.074-.694.074-1.016-.074-3.716-2.527-6.044-6.193-6.044-3.741 0-6.243 2.6-6.243 6.515 0 3.89 2.502 6.466 6.491 6.466zm-3.592-7.877c.198-1.809 1.659-2.948 3.369-2.948 1.858 0 3.171 1.065 3.394 2.948h-6.763zm11.7 7.729h2.675V.846h-2.675v17.34zm4.01-10.33h2.205v10.33h2.7V7.857h3.394V5.503h-3.444V4.438c0-.867.372-1.239 1.239-1.239h2.205V.846h-2.552c-2.452 0-3.542 1.19-3.542 3.468v1.19h-2.205v2.353zm17.384-4.137c.916 0 1.635-.67 1.635-1.61 0-.942-.719-1.61-1.635-1.61-.917 0-1.635.668-1.635 1.61 0 .94.718 1.61 1.635 1.61zm-1.363 14.467h2.675V5.503h-2.675v12.684zm11.987-12.832c-2.056 0-3.27.817-4.063 1.808l-.297-1.66h-2.329v12.684h2.676v-6.392c0-2.576 1.263-4.137 3.393-4.137 2.007 0 3.023 1.289 3.023 3.692v6.837h2.7v-7.06c0-4.236-2.304-5.772-5.103-5.772z" fill="#000"/></svg>