<svg width="424" height="18" viewBox="0 0 424 18" fill="none" xmlns="http://www.w3.org/2000/svg"><path d="M.482 9.915c.133 2.508 1.957 4.199 4.94 4.199 2.793 0 4.636-1.52 4.636-3.762 0-2.527-2.242-3.173-4.446-3.553-2.033-.342-3.8-.684-3.8-2.584 0-1.73 1.35-2.698 3.44-2.698 1.994 0 3.362 1.12 3.59 2.85h1.045C9.697 2.087 7.968.586 5.251.586 2.553.586.786 2.01.786 4.272c0 2.527 2.166 3.097 4.294 3.458 2.09.36 3.952.779 3.952 2.717 0 1.71-1.444 2.736-3.59 2.736-2.243 0-3.763-1.292-3.896-3.268H.482zm15.859 4.199c2.109 0 3.724-1.368 4.142-3.306h-.988c-.38 1.5-1.653 2.432-3.23 2.432-2.147 0-3.496-1.634-3.534-3.876v-.171h7.866c0-.133.019-.285.019-.4-.095-2.868-1.862-4.54-4.446-4.54-2.641 0-4.446 2.014-4.446 4.864 0 3.02 1.881 4.997 4.617 4.997zm-3.534-5.738c.152-1.957 1.615-3.268 3.382-3.268 1.881 0 3.23 1.159 3.382 3.268h-6.764zm10.218-6.042a.67.67 0 00.684-.684.67.67 0 00-.684-.684.67.67 0 00-.684.684.67.67 0 00.684.684zM22.531 14h.97V4.367h-.97V14zm2.791-8.74h6.194l-6.46 7.98V14h8.018v-.893H26.33l6.48-8v-.74h-7.487v.893zm12.988 8.854c2.109 0 3.724-1.368 4.142-3.306h-.988c-.38 1.5-1.653 2.432-3.23 2.432-2.147 0-3.496-1.634-3.534-3.876v-.171h7.866c0-.133.019-.285.019-.4-.095-2.868-1.862-4.54-4.446-4.54-2.641 0-4.446 2.014-4.446 4.864 0 3.02 1.88 4.997 4.617 4.997zm-3.534-5.738c.152-1.957 1.615-3.268 3.382-3.268 1.88 0 3.23 1.159 3.382 3.268h-6.764zm19.101 5.738c2.717 0 4.636-2.014 4.636-4.94 0-2.907-1.919-4.921-4.636-4.921s-4.617 2.014-4.617 4.92c0 2.927 1.9 4.94 4.617 4.94zm0-.874c-2.147 0-3.629-1.672-3.629-4.066 0-2.375 1.482-4.066 3.63-4.066 2.146 0 3.628 1.69 3.628 4.066 0 2.394-1.482 4.066-3.629 4.066zm11.008-8.987c-1.768 0-2.908.912-3.459 2.166l-.151-2.052h-.837V14h.97V9.25c0-2.508 1.273-4.104 3.325-4.104 1.861 0 2.983 1.216 2.983 3.496V14h.969V8.604c0-3.04-1.615-4.351-3.8-4.351zm15.321 9.86c2.11 0 3.724-1.367 4.142-3.305h-.988c-.38 1.5-1.653 2.432-3.23 2.432-2.147 0-3.496-1.634-3.534-3.876v-.171h7.866c0-.133.02-.285.02-.4-.096-2.868-1.863-4.54-4.447-4.54-2.64 0-4.446 2.014-4.446 4.864 0 3.02 1.881 4.997 4.617 4.997zm-3.534-5.737c.152-1.957 1.615-3.268 3.382-3.268 1.881 0 3.23 1.159 3.382 3.268h-6.764zm18.199 4.73c-.57 0-.855-.19-.855-.93V7.692c0-2.204-1.35-3.44-3.763-3.44-2.204 0-3.666 1.065-3.913 2.813h.968c.247-1.178 1.273-1.957 2.907-1.957 1.805 0 2.831.95 2.831 2.546v.836h-3.268c-2.47 0-3.8 1.064-3.8 2.869 0 1.71 1.35 2.755 3.401 2.755 1.957 0 3.117-.893 3.706-2.09v.342c-.038 1.14.437 1.634 1.577 1.634h.57v-.893h-.361zm-1.825-3.001c0 1.843-1.31 3.173-3.59 3.173-1.54 0-2.49-.78-2.49-1.976 0-1.273.95-1.976 2.737-1.976h3.343v.779zm7.414-5.738c-1.786 0-2.546.855-2.945 1.919l-.152-1.92h-.836V14h.97V9.117c0-1.957.512-3.82 2.773-3.82h.703v-.93h-.513zm6.395-.114c-1.767 0-2.907.912-3.458 2.166l-.152-2.052h-.836V14h.969V9.25c0-2.508 1.273-4.104 3.325-4.104 1.862 0 2.983 1.216 2.983 3.496V14h.969V8.604c0-3.04-1.615-4.351-3.8-4.351zm6.439-1.92a.67.67 0 00.684-.683.67.67 0 00-.684-.684.67.67 0 00-.684.684.67.67 0 00.684.684zM112.8 14h.969V4.367h-.969V14zm7.693-9.747c-1.767 0-2.907.912-3.458 2.166l-.152-2.052h-.836V14h.969V9.25c0-2.508 1.273-4.104 3.325-4.104 1.862 0 2.983 1.216 2.983 3.496V14h.969V8.604c0-3.04-1.615-4.351-3.8-4.351zm13.792 2.356c-.589-1.425-1.881-2.356-3.667-2.356-2.641 0-4.541 1.995-4.541 4.92 0 3.04 1.9 4.94 4.541 4.94 1.805 0 3.078-.95 3.686-2.45v1.71c0 2.565-1.216 3.667-3.534 3.667-1.805 0-3.059-.817-3.363-2.28H126.4c.304 2.052 1.957 3.154 4.294 3.154 3.116 0 4.579-1.482 4.579-4.503V4.367h-.836l-.152 2.242zm-3.591 6.63c-2.147 0-3.629-1.671-3.629-4.065s1.482-4.066 3.629-4.066c2.147 0 3.629 1.672 3.629 4.085 0 2.375-1.482 4.047-3.629 4.047zm6.421-2.203c.076 1.995 1.691 3.078 4.104 3.078 2.071 0 3.743-1.045 3.743-2.755 0-2.033-1.786-2.432-3.857-2.717-1.501-.21-2.831-.38-2.831-1.73 0-1.101 1.083-1.823 2.717-1.823 1.539 0 2.641.74 2.812 1.995h.988c-.171-1.881-1.71-2.831-3.8-2.831-2.147-.02-3.686 1.083-3.686 2.736 0 1.938 1.786 2.299 3.762 2.565 1.615.228 2.926.437 2.926 1.862 0 1.14-1.197 1.862-2.774 1.862-1.843 0-3.04-.855-3.116-2.242h-.988zm15.311-8.702a.67.67 0 00.684-.684.67.67 0 00-.684-.684.67.67 0 00-.684.684.67.67 0 00.684.684zM151.932 14h.969V4.367h-.969V14zm7.693-9.747c-1.767 0-2.907.912-3.458 2.166l-.152-2.052h-.836V14h.969V9.25c0-2.508 1.273-4.104 3.325-4.104 1.862 0 2.983 1.216 2.983 3.496V14h.969V8.604c0-3.04-1.615-4.351-3.8-4.351zm14.998.114c-1.786 0-2.546.855-2.945 1.919l-.152-1.92h-.836V14h.969V9.117c0-1.957.513-3.82 2.774-3.82h.703v-.93h-.513zm5.519 9.747c2.109 0 3.724-1.368 4.142-3.306h-.988c-.38 1.5-1.653 2.432-3.23 2.432-2.147 0-3.496-1.634-3.534-3.876v-.171h7.866c0-.133.019-.285.019-.4-.095-2.868-1.862-4.54-4.446-4.54-2.641 0-4.446 2.014-4.446 4.864 0 3.02 1.881 4.997 4.617 4.997zm-3.534-5.738c.152-1.957 1.615-3.268 3.382-3.268 1.881 0 3.23 1.159 3.382 3.268h-6.764zm18.198 4.73c-.57 0-.855-.19-.855-.93V7.692c0-2.204-1.349-3.44-3.762-3.44-2.204 0-3.667 1.065-3.914 2.813h.969c.247-1.178 1.273-1.957 2.907-1.957 1.805 0 2.831.95 2.831 2.546v.836h-3.268c-2.47 0-3.8 1.064-3.8 2.869 0 1.71 1.349 2.755 3.401 2.755 1.957 0 3.116-.893 3.705-2.09v.342c-.038 1.14.437 1.634 1.577 1.634h.57v-.893h-.361zm-1.824-3.001c0 1.843-1.311 3.173-3.591 3.173-1.539 0-2.489-.78-2.489-1.976 0-1.273.95-1.976 2.736-1.976h3.344v.779zM196.463 14h.969V.7h-.969V14zm9.09-2.242c0 1.539.627 2.242 2.261 2.242h1.406v-.893h-1.33c-1.007 0-1.368-.38-1.368-1.368v-6.48h2.603v-.892h-2.603V1.669h-.969v2.698h-1.824v.893h1.824v6.498zm5.635-9.424a.67.67 0 00.684-.684.67.67 0 00-.684-.684.67.67 0 00-.684.684.67.67 0 00.684.684zM210.694 14h.969V4.367h-.969V14zm14.001-9.747c-1.767 0-2.907.988-3.458 2.413-.456-1.596-1.653-2.413-3.173-2.413-1.653 0-2.641.969-3.135 2.166l-.152-2.052h-.836V14h.969V9.098c0-2.356 1.14-3.952 2.983-3.952 1.672 0 2.717 1.178 2.717 3.4V14h.969V8.756c.057-2.204 1.197-3.61 3.002-3.61 1.672 0 2.679 1.12 2.679 3.306V14h.988V8.414c0-2.907-1.539-4.161-3.553-4.161zm9.812 9.86c2.109 0 3.724-1.367 4.142-3.305h-.988c-.38 1.5-1.653 2.432-3.23 2.432-2.147 0-3.496-1.634-3.534-3.876v-.171h7.866c0-.133.019-.285.019-.4-.095-2.868-1.862-4.54-4.446-4.54-2.641 0-4.446 2.014-4.446 4.864 0 3.02 1.881 4.997 4.617 4.997zm-3.534-5.737c.152-1.957 1.615-3.268 3.382-3.268 1.881 0 3.23 1.159 3.382 3.268h-6.764zM248.155 14h1.045l2.85-8.094L254.767 14h1.045l3.42-9.633h-.988l-2.964 8.474-2.755-8.474h-.893l-2.907 8.474-2.812-8.474h-1.026L248.155 14zm12.927-11.666a.67.67 0 00.684-.684.67.67 0 00-.684-.684.67.67 0 00-.684.684.67.67 0 00.684.684zM260.588 14h.969V4.367h-.969V14zm3.969-2.242c0 1.539.627 2.242 2.261 2.242h1.406v-.893h-1.33c-1.007 0-1.368-.38-1.368-1.368v-6.48h2.603v-.892h-2.603V1.669h-.969v2.698h-1.824v.893h1.824v6.498zm9.587-7.505c-1.805 0-2.926 1.007-3.477 2.394V.7h-.969V14h.969V9.25c0-2.508 1.273-4.104 3.325-4.104 1.843 0 2.983 1.216 2.983 3.496V14h.969V8.604c0-3.04-1.615-4.351-3.8-4.351zm15.569 9.86c2.413 0 4.047-1.462 4.389-3.381h-2.052c-.285 1.083-1.197 1.71-2.451 1.71-1.615 0-2.66-1.083-2.717-2.736v-.133h7.334c.038-.266.057-.532.057-.78-.057-2.85-1.938-4.635-4.75-4.635-2.869 0-4.788 1.995-4.788 4.997 0 2.983 1.919 4.959 4.978 4.959zm-2.755-6.041c.152-1.387 1.273-2.261 2.584-2.261 1.425 0 2.432.817 2.603 2.26h-5.187zM294.479 14h2.261l2.565-3.534L301.851 14h2.394l-3.667-4.978 3.458-4.75h-2.261L299.4 7.559l-2.318-3.287h-2.394l3.439 4.75L294.479 14zm11.6-2.641c0 1.767.798 2.64 2.66 2.64h1.9v-1.804h-1.444c-.779 0-1.045-.285-1.045-1.045V6.077h2.375V4.272h-2.375V1.555h-2.071v2.717h-1.691v1.805h1.691v5.282zm10.278 2.755c2.413 0 4.047-1.463 4.389-3.382h-2.052c-.285 1.083-1.197 1.71-2.451 1.71-1.615 0-2.66-1.083-2.717-2.736v-.133h7.334c.038-.266.057-.532.057-.78-.057-2.85-1.938-4.635-4.75-4.635-2.869 0-4.788 1.995-4.788 4.997 0 2.983 1.919 4.959 4.978 4.959zm-2.755-6.042c.152-1.387 1.273-2.261 2.584-2.261 1.425 0 2.432.817 2.603 2.26h-5.187zm14.104-3.914c-1.577 0-2.508.627-3.116 1.387l-.228-1.273h-1.786V14h2.052V9.098c0-1.976.969-3.173 2.603-3.173 1.539 0 2.318.988 2.318 2.83V14h2.071V8.585c0-3.25-1.767-4.427-3.914-4.427zm13.097 1.463c-.627-.855-1.672-1.463-3.154-1.463-2.641 0-4.598 1.976-4.598 4.978 0 3.116 1.957 4.978 4.598 4.978 1.539 0 2.546-.722 3.173-1.577l.247 1.463h1.786V.7h-2.052v4.92zm-2.812 6.764c-1.71 0-2.831-1.33-2.831-3.25 0-1.9 1.121-3.23 2.831-3.23s2.831 1.33 2.831 3.269c0 1.88-1.121 3.21-2.831 3.21zm11.486 1.729c2.413 0 4.047-1.463 4.389-3.382h-2.052c-.285 1.083-1.197 1.71-2.451 1.71-1.615 0-2.66-1.083-2.717-2.736v-.133h7.334c.038-.266.057-.532.057-.78-.057-2.85-1.938-4.635-4.75-4.635-2.869 0-4.788 1.995-4.788 4.997 0 2.983 1.919 4.959 4.978 4.959zm-2.755-6.042c.152-1.387 1.273-2.261 2.584-2.261 1.425 0 2.432.817 2.603 2.26h-5.187zm16.365-2.451c-.627-.855-1.672-1.463-3.154-1.463-2.641 0-4.598 1.976-4.598 4.978 0 3.116 1.957 4.978 4.598 4.978 1.539 0 2.546-.722 3.173-1.577l.247 1.463h1.786V.7h-2.052v4.92zm-2.812 6.764c-1.71 0-2.831-1.33-2.831-3.25 0-1.9 1.121-3.23 2.831-3.23s2.831 1.33 2.831 3.269c0 1.88-1.121 3.21-2.831 3.21zm16.842-8.227c-1.52 0-2.451.684-3.059 1.52V.7h-2.052V14h2.052V9.079c0-1.957.988-3.154 2.603-3.154 1.52 0 2.337.988 2.337 2.83V14h2.052V8.585c0-3.25-1.767-4.427-3.933-4.427zm10.323 9.956c2.964 0 4.959-1.995 4.959-4.978 0-2.964-1.995-4.978-4.959-4.978-2.964 0-4.959 2.014-4.959 4.978 0 2.983 1.995 4.978 4.959 4.978zm0-1.748c-1.729 0-2.85-1.35-2.85-3.23 0-1.881 1.121-3.23 2.85-3.23s2.869 1.349 2.869 3.23c0 1.88-1.14 3.23-2.869 3.23zm13.278-3.23c0 2.014-.95 3.192-2.508 3.192-1.501 0-2.261-.97-2.261-2.87V4.273h-2.052v5.415c0 3.325 1.767 4.427 3.838 4.427 1.501 0 2.394-.608 3.002-1.35l.228 1.236h1.805V4.272h-2.052v4.864zm8.995-4.864c-1.596 0-2.375.646-2.869 1.463l-.228-1.463h-1.824V14h2.052V9.117c0-1.501.589-2.926 2.413-2.926h.912V4.27h-.456zm1.136 6.517c.057 2.109 1.843 3.325 4.446 3.325 2.356 0 4.123-1.178 4.123-3.04 0-2.166-1.805-2.622-4.028-2.888-1.406-.152-2.337-.266-2.337-1.178 0-.78.798-1.273 2.014-1.273 1.216 0 2.052.627 2.166 1.52h2.014c-.133-1.995-1.824-3.097-4.218-3.097-2.337-.02-3.99 1.178-3.99 3.02 0 2.015 1.748 2.49 3.971 2.756 1.501.19 2.394.266 2.394 1.31 0 .78-.836 1.274-2.109 1.274-1.482 0-2.356-.722-2.432-1.73h-2.014zm9.84 2.033c0 .76.551 1.292 1.311 1.292.76 0 1.33-.532 1.33-1.292s-.57-1.292-1.33-1.292c-.76 0-1.311.532-1.311 1.292z" fill="#000"/></svg>