<svg width="83" height="33" viewBox="0 0 83 33" fill="none" xmlns="http://www.w3.org/2000/svg"><path d="M5.52 11.59c2.445 0 4.23-1.44 4.56-3.66H8.295c-.33 1.335-1.335 2.145-2.79 2.145-1.98 0-3.18-1.59-3.18-3.825 0-2.25 1.23-3.825 3.225-3.825 1.425 0 2.415.825 2.76 2.145h1.785C9.75 2.35 8.025.91 5.625.91 2.52.91.555 3.055.555 6.25c0 3.225 1.905 5.34 4.965 5.34zm9.452 0c2.34 0 3.915-1.575 3.915-3.93 0-2.34-1.575-3.93-3.915-3.93s-3.915 1.59-3.915 3.93c0 2.355 1.575 3.93 3.915 3.93zm0-1.38c-1.365 0-2.25-1.065-2.25-2.55 0-1.485.885-2.55 2.25-2.55s2.265 1.065 2.265 2.55c0 1.485-.9 2.55-2.265 2.55zm14.053-6.48c-1.26 0-2.13.555-2.625 1.395-.465-.99-1.365-1.395-2.37-1.395-1.155.015-1.816.525-2.25 1.095L21.6 3.82h-1.41v7.68h1.62V7.39c0-1.365.69-2.265 1.8-2.265 1.064 0 1.62.705 1.62 2.055v4.32h1.634V7.345c0-1.38.706-2.22 1.816-2.22 1.05 0 1.605.705 1.605 2.055v4.32h1.62V7.075c0-2.43-1.29-3.345-2.88-3.345zm8.458 0c-1.2 0-1.995.555-2.505 1.23l-.195-1.14h-1.41V14.5h1.62v-4.08c.48.69 1.305 1.17 2.49 1.17 2.1 0 3.63-1.56 3.63-3.93 0-2.46-1.53-3.93-3.63-3.93zm-.27 6.495c-1.35 0-2.235-1.065-2.235-2.595 0-1.485.885-2.52 2.235-2.52 1.35 0 2.25 1.035 2.25 2.55 0 1.5-.9 2.565-2.25 2.565zm8.843 1.365c1.905 0 3.195-1.155 3.465-2.67h-1.62c-.225.855-.945 1.35-1.935 1.35-1.275 0-2.1-.855-2.145-2.16v-.105h5.79a4.4 4.4 0 00.045-.615c-.045-2.25-1.53-3.66-3.75-3.66-2.265 0-3.78 1.575-3.78 3.945 0 2.355 1.515 3.915 3.93 3.915zm-2.175-4.77c.12-1.095 1.005-1.785 2.04-1.785 1.125 0 1.92.645 2.055 1.785h-4.095zm7.581 2.595c0 1.395.63 2.085 2.1 2.085h1.5v-1.425h-1.14c-.615 0-.825-.225-.825-.825V5.245h1.875V3.82h-1.875V1.675h-1.635V3.82h-1.335v1.425h1.335v4.17zm5.456-6.675c.555 0 .99-.405.99-.975s-.435-.975-.99-.975c-.555 0-.99.405-.99.975s.435.975.99.975zm-.825 8.76h1.62V3.82h-1.62v7.68zm3.763-2.085c0 1.395.63 2.085 2.1 2.085h1.5v-1.425h-1.14c-.615 0-.825-.225-.825-.825V5.245h1.875V3.82H61.49V1.675h-1.635V3.82H58.52v1.425h1.335v4.17zM65.31 2.74c.555 0 .99-.405.99-.975s-.435-.975-.99-.975c-.555 0-.99.405-.99.975s.435.975.99.975zm-.825 8.76h1.62V3.82h-1.62v7.68zm5.278 0h1.98l2.835-7.68h-1.71l-2.085 5.94-2.115-5.94h-1.74l2.835 7.68zm8.929.09c1.905 0 3.195-1.155 3.465-2.67h-1.62c-.225.855-.945 1.35-1.935 1.35-1.275 0-2.1-.855-2.145-2.16v-.105h5.79a4.4 4.4 0 00.045-.615c-.045-2.25-1.53-3.66-3.75-3.66-2.265 0-3.78 1.575-3.78 3.945 0 2.355 1.515 3.915 3.93 3.915zm-2.175-4.77c.12-1.095 1.005-1.785 2.04-1.785 1.125 0 1.92.645 2.055 1.785h-4.095zM4.425 29.59c2.34 0 3.915-1.575 3.915-3.93 0-2.34-1.575-3.93-3.915-3.93S.51 23.32.51 25.66c0 2.355 1.575 3.93 3.915 3.93zm0-1.38c-1.365 0-2.25-1.065-2.25-2.55 0-1.485.885-2.55 2.25-2.55s2.265 1.065 2.265 2.55c0 1.485-.9 2.55-2.265 2.55zm6.043-7.47c.555 0 .99-.405.99-.975s-.435-.975-.99-.975c-.555 0-.99.405-.99.975s.435.975.99.975zm-.825 8.76h1.62v-7.68h-1.62v7.68zm3.208 0h1.62V19h-1.62v10.5zm6.716-2.535c.045 1.665 1.455 2.625 3.51 2.625 1.86 0 3.255-.93 3.255-2.4 0-1.71-1.425-2.07-3.18-2.28-1.11-.12-1.845-.21-1.845-.93 0-.615.63-1.005 1.59-1.005.96 0 1.62.495 1.71 1.2h1.59c-.105-1.575-1.44-2.445-3.33-2.445-1.845-.015-3.15.93-3.15 2.385 0 1.59 1.38 1.965 3.135 2.175 1.185.15 1.89.21 1.89 1.035 0 .615-.66 1.005-1.665 1.005-1.17 0-1.86-.57-1.92-1.365h-1.59zm12.13-5.235c-1.2 0-1.995.555-2.505 1.23l-.195-1.14h-1.41V32.5h1.62v-4.08c.48.69 1.305 1.17 2.49 1.17 2.1 0 3.63-1.56 3.63-3.93 0-2.46-1.53-3.93-3.63-3.93zm-.27 6.495c-1.35 0-2.235-1.065-2.235-2.595 0-1.485.885-2.52 2.235-2.52 1.35 0 2.25 1.035 2.25 2.55 0 1.5-.9 2.565-2.25 2.565zm9.083-6.405c-1.26 0-1.875.51-2.265 1.155l-.18-1.155h-1.44v7.68h1.62v-3.855c0-1.185.465-2.31 1.905-2.31h.72V21.82h-.36zm4.638 7.77c1.905 0 3.195-1.155 3.465-2.67h-1.62c-.225.855-.945 1.35-1.935 1.35-1.275 0-2.1-.855-2.145-2.16v-.105h5.79a4.4 4.4 0 00.045-.615c-.045-2.25-1.53-3.66-3.75-3.66-2.265 0-3.78 1.575-3.78 3.945 0 2.355 1.515 3.915 3.93 3.915zm-2.175-4.77c.12-1.095 1.005-1.785 2.04-1.785 1.125 0 1.92.645 2.055 1.785h-4.095zm14.105 3.27c-.33 0-.495-.105-.495-.495V24.52c0-1.815-1.17-2.79-3.21-2.79-1.935 0-3.225.93-3.39 2.43h1.59c.12-.675.765-1.125 1.725-1.125 1.065 0 1.68.525 1.68 1.38v.465h-1.935c-2.145 0-3.285.885-3.285 2.46 0 1.425 1.17 2.25 2.85 2.25 1.245 0 2.025-.54 2.535-1.32 0 .765.36 1.23 1.41 1.23h.855v-1.41h-.33zm-2.1-1.74c-.015 1.185-.795 1.98-2.145 1.98-.885 0-1.425-.45-1.425-1.095 0-.78.555-1.155 1.56-1.155h2.01v.27zm9.089-3.465c-.495-.675-1.32-1.155-2.49-1.155-2.085 0-3.63 1.56-3.63 3.93 0 2.46 1.544 3.93 3.63 3.93 1.215 0 2.01-.57 2.505-1.245l.195 1.155h1.41V19h-1.62v3.885zm-2.22 5.34c-1.35 0-2.236-1.05-2.236-2.565 0-1.5.886-2.55 2.236-2.55s2.235 1.05 2.235 2.58c0 1.485-.885 2.535-2.235 2.535zm5.093-1.26c.045 1.665 1.455 2.625 3.51 2.625 1.86 0 3.255-.93 3.255-2.4 0-1.71-1.425-2.07-3.18-2.28-1.11-.12-1.845-.21-1.845-.93 0-.615.63-1.005 1.59-1.005.96 0 1.62.495 1.71 1.2h1.59c-.105-1.575-1.44-2.445-3.33-2.445-1.845-.015-3.15.93-3.15 2.385 0 1.59 1.38 1.965 3.135 2.175 1.185.15 1.89.21 1.89 1.035 0 .615-.66 1.005-1.665 1.005-1.17 0-1.86-.57-1.92-1.365h-1.59z" fill="#000"/></svg>