<svg width="130" height="46" viewBox="0 0 130 46" fill="none" xmlns="http://www.w3.org/2000/svg"><path d="M5.58 7.384c-.317 0-.476-.106-.476-.518V4.369c0-1.228-.751-1.915-2.095-1.915-1.227 0-2.042.592-2.18 1.566h.54c.138-.656.709-1.09 1.619-1.09 1.005 0 1.576.529 1.576 1.418v.465h-1.82c-1.375 0-2.116.593-2.116 1.598 0 .952.752 1.534 1.894 1.534 1.09 0 1.736-.497 2.064-1.164v.19c-.022.635.243.91.878.91h.317v-.497h-.2zM4.564 5.713c0 1.026-.73 1.766-2 1.766-.856 0-1.385-.433-1.385-1.1 0-.709.529-1.1 1.523-1.1h1.862v.434zm4.415-3.26c-.984 0-1.62.509-1.926 1.207l-.085-1.143h-.465v5.365h.54V5.236c0-1.396.708-2.285 1.851-2.285 1.037 0 1.661.677 1.661 1.947v2.984h.54V4.877c0-1.693-.9-2.423-2.116-2.423zm7.608 1.27c-.328-.761-1.048-1.27-2.053-1.27-1.47 0-2.529 1.122-2.529 2.741 0 1.693 1.058 2.751 2.53 2.751 1.004 0 1.703-.54 2.041-1.29l.085 1.227h.465V.475h-.54v3.248zm-2.01 3.735c-1.196 0-2.021-.93-2.021-2.264 0-1.323.825-2.264 2.02-2.264 1.196 0 2.021.941 2.021 2.275 0 1.322-.825 2.253-2.02 2.253zm9.263-5.004c-1.005 0-1.714.55-2.053 1.312V.476h-.54v7.406h.466l.085-1.217c.317.772 1.037 1.28 2.042 1.28 1.47 0 2.529-1.122 2.529-2.75 0-1.683-1.058-2.741-2.53-2.741zm-.043 5.004c-1.195 0-2.02-.93-2.02-2.275 0-1.312.825-2.253 2.02-2.253 1.196 0 2.021.941 2.021 2.264 0 1.333-.825 2.264-2.02 2.264zm3.64.424h.54V.475h-.54v7.407zm4.178.063c1.513 0 2.582-1.122 2.582-2.75 0-1.62-1.069-2.741-2.582-2.741s-2.57 1.121-2.57 2.74c0 1.63 1.057 2.751 2.57 2.751zm0-.487c-1.195 0-2.02-.93-2.02-2.264 0-1.323.825-2.264 2.02-2.264 1.196 0 2.021.941 2.021 2.264 0 1.333-.825 2.264-2.02 2.264zm5.992.487c1.217 0 2.074-.698 2.286-1.788h-.572c-.18.793-.825 1.301-1.714 1.301-1.174 0-1.989-.92-1.989-2.253 0-1.334.804-2.275 1.99-2.275.899 0 1.534.508 1.724 1.312h.56c-.221-1.111-1.057-1.788-2.274-1.788-1.513 0-2.55 1.121-2.55 2.75 0 1.651 1.026 2.741 2.54 2.741zm3.335-.063h.54v-1.45l1.258-1.29 2.053 2.74h.656L43.111 4.75l2.158-2.233h-.666L41.48 5.734V.475h-.54v7.407zm10.43.063c1.512 0 2.581-1.122 2.581-2.75 0-1.62-1.069-2.741-2.582-2.741s-2.57 1.121-2.57 2.74c0 1.63 1.057 2.751 2.57 2.751zm0-.487c-1.196 0-2.022-.93-2.022-2.264 0-1.323.826-2.264 2.021-2.264 1.196 0 2.021.941 2.021 2.264 0 1.333-.825 2.264-2.02 2.264zm7.547-2.306c0 1.407-.698 2.296-1.81 2.296-.994 0-1.608-.677-1.608-1.958V2.517h-.54v3.005c0 1.682.879 2.423 2.064 2.423.952 0 1.577-.508 1.883-1.196l.074 1.133h.477V2.517h-.54v2.635zm2.222 1.481c0 .857.35 1.249 1.26 1.249h.782v-.498h-.74c-.561 0-.762-.211-.762-.762V3.014h1.45v-.497h-1.45V1.015h-.54v1.502h-1.015v.497h1.015v3.619zm6.117 0c0 .857.35 1.249 1.26 1.249h.782v-.498h-.74c-.561 0-.762-.211-.762-.762V3.014h1.45v-.497h-1.45V1.015h-.54v1.502h-1.015v.497h1.015v3.619zm5.34-4.18c-1.006 0-1.63.561-1.937 1.334V.475h-.54v7.407h.54V5.236c0-1.396.709-2.285 1.852-2.285 1.026 0 1.66.677 1.66 1.947v2.984h.54V4.877c0-1.693-.899-2.423-2.116-2.423zm5.607 5.492c1.175 0 2.074-.762 2.307-1.841h-.55c-.212.836-.92 1.354-1.799 1.354-1.195 0-1.947-.91-1.968-2.158v-.095h4.38c0-.074.011-.16.011-.223-.053-1.597-1.037-2.528-2.476-2.528-1.47 0-2.476 1.121-2.476 2.708 0 1.683 1.048 2.783 2.571 2.783zM76.237 4.75c.085-1.09.9-1.82 1.884-1.82 1.047 0 1.799.645 1.883 1.82h-3.767zM86.98 2.454c-.984 0-1.618.508-1.925 1.206l-.085-1.143h-.466v5.365h.54V5.236c0-1.396.709-2.285 1.852-2.285 1.037 0 1.66.677 1.66 1.947v2.984h.54V4.877c0-1.693-.899-2.423-2.116-2.423zm5.598 5.491c1.513 0 2.582-1.122 2.582-2.75 0-1.62-1.069-2.741-2.582-2.741s-2.57 1.121-2.57 2.74c0 1.63 1.057 2.751 2.57 2.751zm0-.487c-1.195 0-2.02-.93-2.02-2.264 0-1.323.825-2.264 2.02-2.264 1.196 0 2.021.941 2.021 2.264 0 1.333-.825 2.264-2.02 2.264zm3.93-6.073c.21 0 .38-.159.38-.38 0-.223-.17-.382-.38-.382a.373.373 0 00-.382.381c0 .222.17.381.381.381zm-.276 6.497h.54V2.517h-.54v5.365zm1.565-1.651c.042 1.11.942 1.714 2.285 1.714 1.154 0 2.085-.582 2.085-1.534 0-1.132-.995-1.354-2.148-1.513-.836-.117-1.577-.212-1.577-.963 0-.614.604-1.016 1.513-1.016.857 0 1.471.413 1.566 1.111h.551c-.096-1.047-.953-1.576-2.117-1.576-1.195-.01-2.052.603-2.052 1.523 0 1.08.994 1.28 2.095 1.429.899.127 1.629.243 1.629 1.037 0 .634-.666 1.036-1.545 1.036-1.026 0-1.692-.476-1.735-1.248h-.55zm7.769 1.714c1.175 0 2.074-.762 2.307-1.841h-.55c-.212.836-.921 1.354-1.799 1.354-1.196 0-1.947-.91-1.968-2.158v-.095h4.38c0-.074.011-.16.011-.223-.053-1.597-1.037-2.528-2.476-2.528-1.471 0-2.476 1.121-2.476 2.708 0 1.683 1.048 2.783 2.571 2.783zm-1.968-3.195c.085-1.09.9-1.82 1.884-1.82 1.047 0 1.798.645 1.883 1.82h-3.767zm9.569 3.132h.582l1.587-4.508 1.513 4.508h.582l1.904-5.365h-.55l-1.65 4.72-1.535-4.72h-.497l-1.619 4.72-1.566-4.72h-.571l1.82 5.365zm7.198-6.497a.373.373 0 00.381-.38.373.373 0 00-.381-.382.372.372 0 00-.38.381c0 .222.169.381.38.381zm-.275 6.497h.54V2.517h-.54v5.365zm2.211-1.249c0 .857.349 1.249 1.259 1.249h.783v-.498h-.741c-.561 0-.762-.211-.762-.762V3.014h1.45v-.497h-1.45V1.015h-.539v1.502h-1.016v.497h1.016v3.619zm5.339-4.18c-1.006 0-1.63.561-1.937 1.334V.475h-.539v7.407h.539V5.236c0-1.396.709-2.285 1.852-2.285 1.026 0 1.661.677 1.661 1.947v2.984h.54V4.877c0-1.693-.9-2.423-2.116-2.423zm-124.187 12c-1.005 0-1.703.54-2.042 1.292l-.084-1.228H.86v7.48h.54v-3.353c.307.783 1.037 1.301 2.052 1.301 1.471 0 2.53-1.122 2.53-2.75 0-1.683-1.059-2.741-2.53-2.741zm-.042 5.005c-1.196 0-2.02-.93-2.02-2.274 0-1.313.824-2.254 2.02-2.254 1.196 0 2.021.941 2.021 2.264 0 1.333-.825 2.264-2.02 2.264zm6.01.487c1.513 0 2.581-1.122 2.581-2.75 0-1.62-1.068-2.741-2.581-2.741-1.514 0-2.572 1.121-2.572 2.74 0 1.63 1.058 2.751 2.572 2.751zm0-.487c-1.196 0-2.021-.93-2.021-2.264 0-1.322.825-2.264 2.02-2.264 1.196 0 2.021.941 2.021 2.264 0 1.333-.825 2.264-2.02 2.264zm4.79.424h.582l1.587-4.508 1.513 4.508h.582l1.904-5.365h-.55l-1.65 4.72-1.535-4.72h-.497l-1.619 4.72-1.566-4.72h-.571l1.82 5.365zm9.128.063c1.174 0 2.074-.762 2.306-1.841h-.55c-.211.836-.92 1.354-1.799 1.354-1.195 0-1.947-.91-1.968-2.158v-.095h4.38c0-.074.011-.16.011-.222-.053-1.598-1.037-2.53-2.476-2.53-1.47 0-2.475 1.122-2.475 2.71 0 1.682 1.047 2.782 2.57 2.782zM21.37 16.75c.084-1.09.899-1.82 1.883-1.82 1.047 0 1.799.645 1.883 1.82h-3.766zm7.605-2.233c-.994 0-1.418.476-1.64 1.069l-.084-1.069h-.466v5.365h.54v-2.72c0-1.09.285-2.126 1.544-2.126h.392v-.519h-.286zm.647.497h1.016v4.868h.54v-4.868h1.608v-.497h-1.608v-.804c0-.529.2-.74.74-.74h.879v-.498h-.9c-.9 0-1.259.392-1.259 1.249v.793h-1.016v.497zm7.71 2.138c0 1.407-.697 2.296-1.808 2.296-.995 0-1.609-.677-1.609-1.958v-2.973h-.54v3.005c0 1.682.879 2.423 2.064 2.423.952 0 1.577-.508 1.883-1.196l.074 1.133h.477v-5.365h-.54v2.635zm1.81 2.73h.54v-7.407h-.54v7.407zm9.041-4.159c-.328-.762-1.047-1.27-2.052-1.27-1.471 0-2.53 1.122-2.53 2.741 0 1.693 1.059 2.751 2.53 2.751 1.005 0 1.703-.54 2.042-1.29l.084 1.227h.466v-7.407h-.54v3.248zm-2.01 3.735c-1.196 0-2.02-.93-2.02-2.264 0-1.322.824-2.264 2.02-2.264 1.196 0 2.02.941 2.02 2.275 0 1.322-.824 2.253-2.02 2.253zm8.538-.074c-.317 0-.476-.105-.476-.518v-2.497c0-1.228-.751-1.915-2.095-1.915-1.227 0-2.042.592-2.18 1.566h.54c.138-.656.709-1.09 1.619-1.09 1.005 0 1.577.529 1.577 1.418v.465h-1.82c-1.376 0-2.117.593-2.117 1.598 0 .952.752 1.534 1.894 1.534 1.09 0 1.736-.497 2.064-1.164v.19c-.022.636.243.91.878.91h.317v-.497h-.2zm-1.016-1.672c0 1.027-.73 1.768-2 1.768-.856 0-1.385-.434-1.385-1.1 0-.71.529-1.101 1.523-1.101h1.862v.433zm2.34.921c0 .857.35 1.249 1.26 1.249h.783v-.498h-.74c-.561 0-.762-.211-.762-.762v-3.608h1.45v-.497h-1.45v-1.502h-.54v1.502H55.02v.497h1.016v3.619zm7.47.751c-.318 0-.477-.105-.477-.518v-2.497c0-1.228-.751-1.915-2.095-1.915-1.227 0-2.042.592-2.18 1.566h.54c.138-.656.71-1.09 1.62-1.09 1.004 0 1.576.529 1.576 1.418v.465h-1.82c-1.376 0-2.116.593-2.116 1.598 0 .952.75 1.534 1.893 1.534 1.09 0 1.736-.497 2.064-1.164v.19c-.021.636.243.91.878.91h.317v-.497h-.2zm-1.016-1.672c0 1.027-.73 1.768-2 1.768-.857 0-1.386-.434-1.386-1.1 0-.71.529-1.101 1.523-1.101h1.863v.433zm1.875 1.82c0 .244.169.402.402.402a.383.383 0 00.402-.402c0-.243-.17-.391-.402-.391-.233 0-.402.148-.402.391zM.903 31.882H2.12v-2.688h1.704c1.545 0 2.56-.931 2.56-2.36 0-1.438-1.015-2.359-2.56-2.359H.904v7.407zm2.826-6.349c.867 0 1.417.497 1.417 1.302 0 .793-.56 1.301-1.428 1.301H2.12v-2.603H3.73zm5.788 6.412c1.343 0 2.253-.815 2.444-1.883h-1.143c-.159.603-.667.952-1.365.952-.9 0-1.481-.603-1.513-1.524v-.074h4.084a3.1 3.1 0 00.032-.433c-.032-1.588-1.08-2.582-2.645-2.582-1.598 0-2.667 1.11-2.667 2.782 0 1.662 1.069 2.762 2.773 2.762zM7.982 28.58c.085-.772.71-1.259 1.44-1.259.793 0 1.354.455 1.449 1.26H7.982zm7.738-2.116c-.889 0-1.322.36-1.598.815l-.127-.815H12.98v5.418h1.142v-2.72c0-.836.328-1.63 1.344-1.63h.508v-1.068h-.254zm.636 1.005h.942v4.413h1.153v-4.413h1.45v-1.005H18.43v-.455c0-.37.159-.529.529-.529h.942v-1.005h-1.09c-1.048 0-1.513.508-1.513 1.481v.508h-.942v1.005zm6.469 4.476c1.65 0 2.761-1.11 2.761-2.772 0-1.65-1.11-2.772-2.761-2.772-1.65 0-2.762 1.121-2.762 2.772 0 1.661 1.111 2.772 2.762 2.772zm0-.973c-.963 0-1.587-.752-1.587-1.8 0-1.047.624-1.798 1.587-1.798s1.598.751 1.598 1.799c0 1.047-.635 1.799-1.598 1.799zm6.42-4.508c-.888 0-1.322.36-1.597.815l-.127-.815h-1.016v5.418h1.143v-2.72c0-.836.328-1.63 1.344-1.63h.508v-1.068h-.254zm7.191-.063c-.888 0-1.502.391-1.851.984-.328-.699-.963-.984-1.672-.984-.815.01-1.28.37-1.587.772l-.127-.709h-.995v5.418h1.143v-2.9c0-.962.487-1.597 1.27-1.597.751 0 1.142.497 1.142 1.45v3.047h1.154V28.95c0-.974.497-1.566 1.28-1.566.74 0 1.132.497 1.132 1.45v3.047h1.143V28.76c0-1.714-.91-2.36-2.032-2.36zm8.02 4.486c-.233 0-.35-.074-.35-.35V28.37c0-1.28-.825-1.968-2.264-1.968-1.365 0-2.275.656-2.391 1.714h1.121c.085-.476.54-.794 1.217-.794.751 0 1.185.37 1.185.974v.328H41.61c-1.513 0-2.317.624-2.317 1.735 0 1.005.825 1.587 2.01 1.587.879 0 1.429-.38 1.789-.931 0 .54.254.868.994.868h.603v-.995h-.233zm-1.482-1.227c-.01.835-.56 1.396-1.513 1.396-.624 0-1.005-.317-1.005-.772 0-.55.391-.815 1.1-.815h1.418v.19zm5.194-3.26c-.879 0-1.397.35-1.736.773l-.127-.709h-.994v5.418h1.142v-2.73c0-1.1.54-1.767 1.45-1.767.857 0 1.29.55 1.29 1.576v2.92h1.154v-3.015c0-1.81-.984-2.465-2.18-2.465zm5.663 5.545c1.387 0 2.307-.772 2.519-2h-1.206c-.138.625-.604 1.027-1.302 1.027-.92 0-1.523-.73-1.523-1.789 0-1.068.603-1.809 1.523-1.809.709 0 1.164.392 1.312 1.027h1.196c-.223-1.228-1.09-2-2.487-2-1.64 0-2.719 1.11-2.719 2.782 0 1.693 1.047 2.762 2.688 2.762zm5.964 0c1.344 0 2.254-.815 2.445-1.883h-1.143c-.159.603-.667.952-1.365.952-.9 0-1.481-.603-1.513-1.524v-.074h4.084a3.1 3.1 0 00.032-.433c-.032-1.588-1.08-2.582-2.645-2.582-1.598 0-2.667 1.11-2.667 2.782 0 1.662 1.069 2.762 2.772 2.762zm-1.534-3.365c.085-.772.71-1.259 1.44-1.259.793 0 1.354.455 1.449 1.26H58.26zm8.488 3.302l.688-1.83h3.036l.698 1.83h1.302l-2.762-7.407h-1.45l-2.771 7.407h1.259zm2.2-6.095l1.186 3.227h-2.36l1.175-3.227zm7.024.614c-.878 0-1.397.349-1.735.772l-.127-.709h-.995v5.418h1.143v-2.73c0-1.1.54-1.767 1.45-1.767.856 0 1.29.55 1.29 1.576v2.92h1.154v-3.015c0-1.81-.985-2.465-2.18-2.465zm8.17 4.486c-.232 0-.349-.074-.349-.35V28.37c0-1.28-.825-1.968-2.264-1.968-1.365 0-2.275.656-2.391 1.714h1.121c.085-.476.54-.794 1.217-.794.751 0 1.185.37 1.185.974v.328h-1.365c-1.513 0-2.317.624-2.317 1.735 0 1.005.825 1.587 2.01 1.587.879 0 1.429-.38 1.789-.931 0 .54.254.868.994.868h.603v-.995h-.233zm-1.48-1.227c-.011.835-.562 1.396-1.514 1.396-.624 0-1.005-.317-1.005-.772 0-.55.391-.815 1.1-.815h1.418v.19zm2.336 2.222h1.142v-7.407H85v7.407zm3.829.031l-.212.53c-.17.444-.275.55-.72.55h-.804v1.005h1.228c.793 0 1.026-.392 1.365-1.27l2.454-6.264h-1.216l-1.471 4.116-1.513-4.116h-1.217l2.106 5.45zm4.394-1.502c0 .984.445 1.47 1.482 1.47h1.058v-1.005h-.804c-.434 0-.582-.158-.582-.582V27.47h1.322v-1.005h-1.322v-1.513h-1.154v1.513h-.941v1.005h.941v2.942zm3.849-4.709c.391 0 .698-.285.698-.687a.676.676 0 00-.698-.688.676.676 0 00-.699.688c0 .402.307.687.699.687zm-.582 6.18h1.142v-5.418H96.49v5.418zm4.749.063c1.386 0 2.307-.772 2.518-2h-1.206c-.138.625-.603 1.027-1.301 1.027-.921 0-1.524-.73-1.524-1.789 0-1.068.603-1.809 1.524-1.809.708 0 1.163.392 1.312 1.027h1.195c-.222-1.228-1.09-2-2.486-2-1.64 0-2.72 1.11-2.72 2.782 0 1.693 1.048 2.762 2.688 2.762zm3.16-1.852c.032 1.175 1.026 1.852 2.476 1.852 1.312 0 2.296-.656 2.296-1.693 0-1.206-1.005-1.46-2.243-1.608-.783-.085-1.302-.148-1.302-.656 0-.434.445-.709 1.122-.709s1.143.35 1.206.846h1.122c-.074-1.11-1.016-1.724-2.349-1.724-1.302-.01-2.222.656-2.222 1.682 0 1.122.973 1.386 2.211 1.534.836.106 1.333.148 1.333.73 0 .434-.465.71-1.174.71-.825 0-1.312-.403-1.354-.964h-1.122zm5.954 1.048c-.286 0-.466.18-.466.413 0 .254.17.38.371.38.105 0 .211-.042.264-.127.074.075.095.18.095.276 0 .402-.254.814-.793.836v.317c.73-.032 1.185-.519 1.185-1.217 0-.487-.275-.878-.656-.878zM3.232 43.945c1.174 0 2.073-.762 2.306-1.841h-.55c-.212.836-.92 1.354-1.8 1.354-1.195 0-1.946-.91-1.967-2.158v-.095H5.6c0-.074.01-.16.01-.222-.052-1.598-1.036-2.53-2.475-2.53-1.47 0-2.476 1.122-2.476 2.71 0 1.682 1.048 2.782 2.571 2.782zM1.262 40.75c.085-1.09.9-1.82 1.884-1.82 1.047 0 1.798.645 1.883 1.82H1.263zm4.658 3.132h.624l1.778-2.36 1.777 2.36h.657l-2.085-2.74 1.979-2.625h-.614L8.344 40.74l-1.672-2.222h-.645l1.979 2.624-2.085 2.74zm7.683.063c1.217 0 2.074-.698 2.286-1.788h-.571c-.18.794-.826 1.301-1.715 1.301-1.174 0-1.989-.92-1.989-2.253 0-1.334.804-2.275 1.99-2.275.899 0 1.534.508 1.724 1.312h.561c-.222-1.111-1.058-1.788-2.275-1.788-1.513 0-2.55 1.121-2.55 2.75 0 1.651 1.027 2.741 2.54 2.741zm3.335-.063h.54v-7.407h-.54v7.407zm5.702-2.73c0 1.407-.698 2.296-1.81 2.296-.994 0-1.608-.677-1.608-1.958v-2.973h-.54v3.005c0 1.682.879 2.423 2.064 2.423.952 0 1.576-.508 1.883-1.196l.074 1.133h.476v-5.365h-.54v2.635zm1.566 1.079c.043 1.11.942 1.714 2.286 1.714 1.153 0 2.084-.582 2.084-1.534 0-1.132-.994-1.355-2.148-1.513-.835-.117-1.576-.212-1.576-.963 0-.614.603-1.016 1.513-1.016.857 0 1.47.413 1.566 1.111h.55c-.095-1.047-.952-1.576-2.116-1.576-1.196-.01-2.053.603-2.053 1.523 0 1.08.995 1.28 2.095 1.429.9.127 1.63.243 1.63 1.037 0 .634-.667 1.037-1.545 1.037-1.026 0-1.693-.477-1.735-1.249h-.55zm5.675-4.846c.211 0 .38-.159.38-.38 0-.223-.169-.382-.38-.382a.373.373 0 00-.381.381c0 .222.17.381.38.381zm-.275 6.497h.54v-5.365h-.54v5.365zm3.363 0h.646l2.095-5.365h-.561l-1.841 4.74-1.852-4.74h-.582l2.095 5.365zm5.62.063c1.174 0 2.074-.762 2.306-1.841h-.55c-.211.836-.92 1.354-1.798 1.354-1.196 0-1.947-.91-1.969-2.158v-.095h4.38c0-.074.011-.16.011-.222-.053-1.598-1.036-2.53-2.475-2.53-1.471 0-2.476 1.122-2.476 2.71 0 1.682 1.047 2.782 2.57 2.782zm-1.968-3.195c.084-1.09.9-1.82 1.883-1.82 1.048 0 1.799.645 1.883 1.82h-3.766zm8.669 1.883c0 .857.35 1.249 1.259 1.249h.783v-.498h-.74c-.561 0-.763-.211-.763-.761v-3.609h1.45v-.497h-1.45v-1.502h-.54v1.502h-1.015v.497h1.016v3.619zm5.068 1.312c1.513 0 2.581-1.121 2.581-2.75 0-1.62-1.068-2.741-2.581-2.741s-2.571 1.121-2.571 2.74c0 1.63 1.058 2.751 2.57 2.751zm0-.487c-1.196 0-2.021-.93-2.021-2.264 0-1.323.825-2.264 2.02-2.264 1.196 0 2.022.941 2.022 2.264 0 1.333-.826 2.264-2.021 2.264zm9.764.487c1.587 0 2.709-.857 3.026-2.349h-.603c-.317 1.185-1.174 1.82-2.433 1.82-1.714 0-2.794-1.344-2.794-3.238s1.1-3.237 2.815-3.237c1.238 0 2.105.645 2.434 1.809h.603c-.328-1.481-1.45-2.338-3.005-2.338-2.085 0-3.44 1.544-3.44 3.766 0 2.243 1.324 3.767 3.397 3.767zm4.404-6.56a.373.373 0 00.381-.38c0-.223-.169-.382-.38-.382a.373.373 0 00-.382.381c0 .222.17.381.381.381zm-.275 6.497h.54v-5.365h-.54v5.365zm2.21-1.249c0 .857.35 1.249 1.26 1.249h.783v-.498h-.74c-.562 0-.763-.211-.763-.761v-3.609h1.45v-.497h-1.45v-1.502h-.54v1.502h-1.015v.497h1.016v3.619zm4.472 1.249l-.35.867c-.243.593-.338.751-.888.751h-.677v.498h.825c.72 0 .889-.275 1.228-1.122l2.57-6.359h-.581l-1.83 4.666-1.863-4.666h-.582l2.148 5.365zm6.413 0h.571v-7.407h-.571v7.407zm4.446-5.428c-.984 0-1.619.508-1.925 1.206l-.085-1.143h-.466v5.365h.54v-2.646c0-1.396.709-2.285 1.852-2.285 1.037 0 1.66.677 1.66 1.947v2.984h.54v-3.005c0-1.693-.899-2.423-2.116-2.423zm7.608 1.27c-.328-.762-1.047-1.27-2.052-1.27-1.47 0-2.529 1.121-2.529 2.74 0 1.693 1.058 2.751 2.529 2.751 1.005 0 1.703-.54 2.042-1.29l.085 1.227h.465v-7.407h-.54v3.248zm-2.01 3.734c-1.195 0-2.02-.93-2.02-2.264 0-1.323.825-2.264 2.02-2.264 1.196 0 2.021.941 2.021 2.275 0 1.322-.825 2.253-2.02 2.253zm6.19.487c1.174 0 2.073-.762 2.306-1.841h-.55c-.212.836-.92 1.354-1.799 1.354-1.195 0-1.947-.91-1.968-2.158v-.095h4.38c0-.074.011-.16.011-.222-.053-1.598-1.037-2.53-2.476-2.53-1.47 0-2.476 1.122-2.476 2.71 0 1.682 1.048 2.782 2.572 2.782zm-1.969-3.195c.085-1.09.9-1.82 1.884-1.82 1.047 0 1.799.645 1.883 1.82h-3.767zm4.658 3.132h.625l1.777-2.36 1.778 2.36h.656l-2.085-2.74L101 38.516h-.614l-1.693 2.222-1.671-2.222h-.646l1.979 2.624-2.085 2.74zm5.447-.35c0 .244.17.403.402.403a.383.383 0 00.402-.403c0-.243-.169-.391-.402-.391-.232 0-.402.148-.402.391z" fill="#000"/></svg>