<svg width="65" height="12" viewBox="0 0 65 12" fill="none" xmlns="http://www.w3.org/2000/svg"><path d="M.405 7.535c0 2.175 1.755 3.555 4.47 3.555 2.595 0 4.275-1.395 4.29-3.435.015-2.16-1.485-2.685-3.33-3.045-1.83-.36-2.415-.495-2.415-1.125 0-.645.57-.945 1.32-.945.93 0 1.44.525 1.5 1.23h2.685C8.925 1.7 7.29.41 4.74.41 2.235.41.645 1.79.645 3.695c0 2.19 1.455 2.745 3.27 3.12 1.845.375 2.475.51 2.475 1.155 0 .675-.63 1.005-1.47 1.005-1.125 0-1.77-.585-1.83-1.38l-2.685-.06zm10.512 1.47c0 1.35.525 1.995 1.995 1.995h1.335V9.875h-1.215c-.66 0-.885-.24-.885-.885V4.475h1.98V3.35h-1.98V1.205h-1.23V3.35h-1.38v1.125h1.38v4.53zm11.043.87c-.345 0-.495-.105-.495-.51V6.02c0-1.785-1.125-2.76-3.075-2.76-1.845 0-3.06.885-3.24 2.385h1.23c.15-.78.87-1.29 1.95-1.29 1.2 0 1.905.6 1.905 1.59v.525h-2.25c-2.01 0-3.074.855-3.074 2.385 0 1.395 1.14 2.235 2.82 2.235 1.32 0 2.084-.585 2.564-1.275.015.75.36 1.185 1.38 1.185h.675V9.875h-.39zM20.235 7.88c0 1.275-.884 2.16-2.415 2.16-1.02 0-1.665-.51-1.665-1.26 0-.87.615-1.275 1.71-1.275h2.37v.375zm3.631 1.125c0 1.35.525 1.995 1.995 1.995h1.335V9.875h-1.215c-.66 0-.885-.24-.885-.885V4.475h1.98V3.35h-1.98V1.205h-1.23V3.35h-1.38v1.125h1.38v4.53zm5.026-6.945c.45 0 .795-.33.795-.795a.773.773 0 00-.795-.795c-.45 0-.795.33-.795.795s.345.795.795.795zm-.63 8.94h1.23V3.35h-1.23V11zm2.6-2.52c.03 1.68 1.395 2.61 3.375 2.61 1.695 0 3.06-.885 3.06-2.31 0-1.695-1.395-2.025-3.135-2.235-1.11-.135-1.92-.24-1.92-1.08 0-.705.72-1.155 1.785-1.155 1.05 0 1.77.585 1.86 1.365h1.26c-.12-1.59-1.38-2.4-3.12-2.415-1.725-.015-3 .9-3 2.295 0 1.59 1.365 1.935 3.075 2.145 1.14.135 1.98.21 1.98 1.17 0 .705-.765 1.17-1.845 1.17-1.275 0-2.07-.66-2.115-1.56h-1.26zm8.37.525c0 1.35.525 1.995 1.995 1.995h1.335V9.875h-1.215c-.66 0-.885-.24-.885-.885V4.475h1.98V3.35h-1.98V1.205h-1.23V3.35h-1.38v1.125h1.38v4.53zm5.026-6.945c.45 0 .795-.33.795-.795a.773.773 0 00-.795-.795c-.45 0-.795.33-.795.795s.345.795.795.795zm-.63 8.94h1.23V3.35h-1.23V11zm6.35.09c1.86 0 3.105-1.05 3.405-2.7h-1.305c-.24.975-.99 1.605-2.085 1.605-1.47 0-2.46-1.14-2.46-2.805 0-1.665.99-2.835 2.46-2.835 1.125 0 1.875.615 2.1 1.635h1.29c-.315-1.68-1.5-2.73-3.375-2.73-2.22 0-3.735 1.59-3.735 3.93 0 2.385 1.47 3.9 3.705 3.9zm11.519-1.215c-.345 0-.495-.105-.495-.51V6.02c0-1.785-1.125-2.76-3.075-2.76-1.845 0-3.06.885-3.24 2.385h1.23c.15-.78.87-1.29 1.95-1.29 1.2 0 1.905.6 1.905 1.59v.525h-2.25c-2.01 0-3.075.855-3.075 2.385 0 1.395 1.14 2.235 2.82 2.235 1.32 0 2.085-.585 2.565-1.275.015.75.36 1.185 1.38 1.185h.675V9.875h-.39zM59.772 7.88c0 1.275-.885 2.16-2.415 2.16-1.02 0-1.665-.51-1.665-1.26 0-.87.615-1.275 1.71-1.275h2.37v.375zm3.06 3.12h1.23V.5h-1.23V11z" fill="#fff"/></svg>