<svg width="120" height="73" viewBox="0 0 120 73" fill="none" xmlns="http://www.w3.org/2000/svg"><path d="M1.408 16h10.318v-2.244H3.938V9.29h6.204V7.112H3.938V2.844h7.524V.6H1.408V16zm12.155 0h2.375V.6h-2.376V16zm10.05.132c2.795 0 4.687-1.694 5.083-3.916H26.32c-.33 1.254-1.386 1.98-2.838 1.98-1.87 0-3.08-1.254-3.146-3.168v-.154h8.492c.044-.308.066-.616.066-.902-.066-3.3-2.244-5.368-5.5-5.368-3.322 0-5.544 2.31-5.544 5.786 0 3.454 2.222 5.742 5.764 5.742zm-3.19-6.996c.177-1.606 1.475-2.618 2.993-2.618 1.65 0 2.816.946 3.014 2.618h-6.006zM33.336 16h2.904l4.158-11.264h-2.508l-3.058 8.712-3.102-8.712h-2.552L33.335 16zm17.959-2.068c-.484 0-.726-.154-.726-.726v-4.51c0-2.662-1.716-4.092-4.708-4.092-2.838 0-4.73 1.364-4.972 3.564h2.332c.176-.99 1.122-1.65 2.53-1.65 1.562 0 2.464.77 2.464 2.024v.682h-2.838c-3.146 0-4.818 1.298-4.818 3.608 0 2.09 1.716 3.3 4.18 3.3 1.826 0 2.97-.792 3.718-1.936 0 1.122.528 1.804 2.068 1.804h1.254v-2.068h-.484zm-3.08-2.552c-.022 1.738-1.166 2.904-3.146 2.904-1.298 0-2.09-.66-2.09-1.606 0-1.144.814-1.694 2.288-1.694h2.948v.396zm5.672 1.562c0 2.046.924 3.058 3.08 3.058h2.2v-2.09h-1.672c-.902 0-1.21-.33-1.21-1.21V6.826h2.75v-2.09h-2.75V1.59h-2.398v3.146h-1.958v2.09h1.958v6.116zm11.901 3.19c2.794 0 4.686-1.694 5.082-3.916h-2.376c-.33 1.254-1.386 1.98-2.838 1.98-1.87 0-3.08-1.254-3.146-3.168v-.154h8.492c.044-.308.066-.616.066-.902-.066-3.3-2.244-5.368-5.5-5.368-3.322 0-5.544 2.31-5.544 5.786 0 3.454 2.222 5.742 5.764 5.742zm-3.19-6.996c.176-1.606 1.474-2.618 2.992-2.618 1.65 0 2.816.946 3.014 2.618h-6.006zM4.422 42.066l-.44 1.1c-.352.924-.572 1.144-1.496 1.144H.814v2.09h2.552c1.65 0 2.134-.814 2.838-2.64l5.104-13.024h-2.53L5.72 39.294l-3.146-8.558H.044l4.378 11.33zm12.896.066c3.432 0 5.742-2.31 5.742-5.764 0-3.432-2.31-5.764-5.742-5.764s-5.742 2.332-5.742 5.764c0 3.454 2.31 5.764 5.742 5.764zm0-2.024c-2.002 0-3.3-1.562-3.3-3.74s1.298-3.74 3.3-3.74 3.322 1.562 3.322 3.74-1.32 3.74-3.322 3.74zm15.375-3.74c0 2.332-1.1 3.696-2.904 3.696-1.738 0-2.618-1.122-2.618-3.322v-6.006h-2.376v6.27c0 3.85 2.046 5.126 4.444 5.126 1.738 0 2.772-.704 3.476-1.562l.264 1.43h2.09V30.736h-2.376v5.632zm10.415-5.632c-1.848 0-2.75.748-3.322 1.694l-.264-1.694H37.41V42h2.376v-5.654c0-1.738.682-3.388 2.794-3.388h1.056v-2.222h-.528zm8.437 8.206c0 2.046.923 3.058 3.08 3.058h2.2v-2.09h-1.672c-.902 0-1.21-.33-1.21-1.21v-5.874h2.75v-2.09h-2.75V27.59h-2.398v3.146h-1.959v2.09h1.959v6.116zm12.489-8.206c-1.848 0-2.75.748-3.322 1.694l-.264-1.694h-2.112V42h2.376v-5.654c0-1.738.682-3.388 2.794-3.388h1.056v-2.222h-.528zm11.946 9.196c-.484 0-.726-.154-.726-.726v-4.51c0-2.662-1.716-4.092-4.708-4.092-2.838 0-4.73 1.364-4.972 3.564h2.332c.176-.99 1.122-1.65 2.53-1.65 1.562 0 2.464.77 2.464 2.024v.682h-2.838c-3.146 0-4.818 1.298-4.818 3.608 0 2.09 1.716 3.3 4.18 3.3 1.826 0 2.97-.792 3.718-1.936 0 1.122.528 1.804 2.068 1.804h1.254v-2.068h-.484zM72.9 37.38c-.022 1.738-1.166 2.904-3.146 2.904-1.298 0-2.09-.66-2.09-1.606 0-1.144.814-1.694 2.288-1.694H72.9v.396zm13.33-5.082c-.726-.99-1.936-1.694-3.652-1.694-3.058 0-5.324 2.288-5.324 5.764 0 3.608 2.266 5.764 5.324 5.764 1.782 0 2.948-.836 3.674-1.826L86.538 42h2.068V26.6H86.23v5.698zm-3.256 7.832c-1.98 0-3.278-1.54-3.278-3.762 0-2.2 1.298-3.74 3.278-3.74s3.278 1.54 3.278 3.784c0 2.178-1.298 3.718-3.278 3.718zm9.164-10.978c.814 0 1.452-.594 1.452-1.43s-.638-1.43-1.452-1.43-1.452.594-1.452 1.43.638 1.43 1.452 1.43zM90.928 42h2.376V30.736h-2.376V42zm10.645-11.396c-1.826 0-2.904.726-3.608 1.606l-.264-1.474h-2.068V42h2.376v-5.676c0-2.288 1.122-3.674 3.014-3.674 1.782 0 2.684 1.144 2.684 3.278V42h2.398v-6.27c0-3.762-2.046-5.126-4.532-5.126zm15.295 1.892c-.726-1.122-1.936-1.892-3.696-1.892-3.058 0-5.324 2.266-5.324 5.72 0 3.586 2.266 5.72 5.324 5.72 1.76 0 2.926-.726 3.674-1.848v1.254c0 2.156-1.166 3.146-3.234 3.146-1.672 0-2.772-.726-3.058-1.98h-2.42c.22 2.53 2.31 3.916 5.302 3.916 4.048 0 5.764-1.936 5.764-4.994V30.736h-2.068l-.264 1.76zm-3.3 7.546c-1.98 0-3.278-1.518-3.278-3.718 0-2.178 1.298-3.718 3.278-3.718s3.278 1.54 3.278 3.762c0 2.156-1.298 3.674-3.278 3.674zM1.98 64.942c0 2.046.924 3.058 3.08 3.058h2.2v-2.09H5.588c-.902 0-1.21-.33-1.21-1.21v-5.874h2.75v-2.09h-2.75V53.59H1.98v3.146H.022v2.09H1.98v6.116zm11.88 3.19c3.431 0 5.741-2.31 5.741-5.764 0-3.432-2.31-5.764-5.742-5.764s-5.742 2.332-5.742 5.764c0 3.454 2.31 5.764 5.742 5.764zm0-2.024c-2.003 0-3.3-1.562-3.3-3.74s1.297-3.74 3.3-3.74c2.001 0 3.321 1.562 3.321 3.74s-1.32 3.74-3.322 3.74zm16.21-7.81c-.726-.99-1.936-1.694-3.652-1.694-3.058 0-5.324 2.288-5.324 5.764 0 3.608 2.266 5.764 5.324 5.764 1.782 0 2.948-.836 3.674-1.826L30.378 68h2.068V52.6H30.07v5.698zm-3.256 7.832c-1.98 0-3.278-1.54-3.278-3.762 0-2.2 1.298-3.74 3.278-3.74s3.278 1.54 3.278 3.784c0 2.178-1.298 3.718-3.278 3.718zm18.25-.198c-.484 0-.726-.154-.726-.726v-4.51c0-2.662-1.716-4.092-4.708-4.092-2.838 0-4.73 1.364-4.972 3.564h2.332c.176-.99 1.122-1.65 2.53-1.65 1.562 0 2.464.77 2.464 2.024v.682h-2.838c-3.146 0-4.818 1.298-4.818 3.608 0 2.09 1.716 3.3 4.18 3.3 1.826 0 2.97-.792 3.718-1.936 0 1.122.528 1.804 2.068 1.804h1.254v-2.068h-.484zm-3.08-2.552c-.022 1.738-1.166 2.904-3.146 2.904-1.298 0-2.09-.66-2.09-1.606 0-1.144.814-1.694 2.288-1.694h2.948v.396zm7.641 4.686l-.44 1.1c-.352.924-.572 1.144-1.496 1.144h-1.672v2.09h2.552c1.65 0 2.134-.814 2.838-2.64l5.104-13.024h-2.53l-3.058 8.558-3.146-8.558h-2.53l4.378 11.33z" fill="#000"/></svg>