<svg width="270" height="43" viewBox="0 0 270 43" fill="none" xmlns="http://www.w3.org/2000/svg"><path d="M16.448 30.403c-2.163 0-3.597-.365-4.666-.827l-.632-3.696h.462l.461.875c1.094 2.092 2.43 3.016 4.57 3.016 2.454 0 3.84-1.216 3.84-3.21 0-1.776-1.022-2.675-3.938-3.697-3.305-1.143-4.958-2.407-4.958-5.253 0-2.845 2.6-4.96 5.833-4.96 2.017 0 3.184.267 4.301.73l.608 3.841h-.486l-.437-.9c-.997-2.09-2.26-3.04-4.18-3.04-2.017 0-3.208 1.217-3.208 2.943 0 1.727.972 2.602 3.742 3.55 3.646 1.217 5.177 2.603 5.177 5.424.024 3.088-2.965 5.204-6.49 5.204zM31.71 28.895c-1.02.876-2.066 1.46-3.378 1.46-1.944 0-2.965-.876-2.965-2.968v-8.073h-1.799v-.462l1.92-.73 1.896-3.793h.778v3.89h3.256v1.095h-3.256v8.025c0 1.192.583 1.775 1.53 1.775.657 0 1.094-.17 1.702-.608l.316.39zM38.539 30.452c-3.524 0-6.124-2.238-6.124-6.396 0-3.526 2.527-6.226 6.148-6.226 3.621 0 6.124 2.238 6.124 6.396-.024 3.526-2.576 6.226-6.148 6.226zm-.34-11.99c-1.726 0-2.698 1.314-2.698 4.889 0 3.915 1.264 6.468 3.354 6.468 1.75 0 2.697-1.313 2.697-4.888 0-3.915-1.24-6.468-3.353-6.468zM59.633 30.184c-.559 0-1.992-.024-3.086-.024-1.094 0-2.503.024-3.11.024v-.389l.412-.073c1.094-.195 1.288-.535 1.288-2.748v-4.766c0-1.848-.802-2.748-2.236-2.748-.996 0-1.822.389-2.551.924v6.59c0 2.237.17 2.553 1.288 2.748l.413.073v.39c-.608 0-2.017-.025-3.11-.025-1.094 0-2.528.024-3.111.024v-.389l.486-.073c1.02-.146 1.215-.535 1.215-2.967v-5.253c0-1.313-.219-1.677-1.118-2.091l-.608-.292v-.267l4.229-.924.34.218v1.703c1.337-1.143 2.576-1.897 4.156-1.897 2.26 0 3.45 1.216 3.45 3.77v5.106c0 2.48.195 2.773 1.24 2.967l.438.073v.316h-.025zM63.157 23.01v.17c.073 3.454 1.944 5.594 4.472 5.594 1.385 0 2.357-.511 3.378-1.532l.34.243c-1.312 1.824-3.013 2.967-5.2 2.967-3.209 0-5.615-2.19-5.615-5.958 0-4.062 3.063-6.64 6.003-6.64 3.257 0 4.836 1.825 4.91 5.18h-8.288v-.024zm5.322-.68c-.073-2.554-.996-3.843-2.454-3.843-1.653 0-2.698 1.41-2.868 3.842h5.322zM89.21 30.184c-.438 0-2.625-.049-3.476-.049-.9 0-3.62.05-4.083.05v-.341l.778-.122c.753-.122 1.07-.316 1.07-.778 0-.39-.244-.876-.778-1.702l-2.722-4.159-2.722 3.745c-.632.876-.924 1.532-.924 2.019 0 .486.292.778 1.045.9l.802.121v.34c-.437 0-2.381-.048-3.256-.048s-2.26.049-2.722.049v-.365l.413-.073c1.094-.195 2.114-1.119 2.94-2.165l3.938-5.155-3.864-5.74c-.9-1.337-1.531-1.945-2.504-2.115l-.51-.097v-.34c.438 0 2.625.048 3.475.048.9 0 3.573-.049 4.035-.049v.34l-.778.122c-.656.098-1.02.316-1.02.779 0 .389.242.875.777 1.702l2.333 3.599 2.284-3.21c.608-.876.924-1.532.924-1.994 0-.462-.316-.778-1.045-.9l-.802-.122v-.34c.437 0 2.382.048 3.256.048.875 0 2.26-.048 2.722-.048v.34l-.413.073c-1.093.195-2.09 1.022-2.94 2.165l-3.524 4.62 4.277 6.274c.9 1.338 1.53 1.946 2.503 2.116l.51.097v.365zM91.154 16.785c-.195 0-.365-.025-.51-.098a1.27 1.27 0 01-.414-.291 1.099 1.099 0 01-.267-.414 1.27 1.27 0 01-.097-.51c0-.195.024-.365.097-.511.073-.17.17-.292.267-.414a.937.937 0 01.413-.267c.17-.073.34-.097.51-.097.195 0 .365.024.51.097.171.073.293.17.414.267.122.122.219.268.267.414.073.17.098.34.098.51 0 .195-.025.365-.098.511-.072.17-.17.292-.267.414a1.597 1.597 0 01-.413.291 1.586 1.586 0 01-.51.098zm0-.195c.17 0 .316-.024.437-.097a.962.962 0 00.365-.243c.097-.098.17-.22.243-.365.048-.146.073-.292.073-.438 0-.17-.025-.316-.073-.438a.96.96 0 00-.243-.364 1.36 1.36 0 00-.365-.243 1.416 1.416 0 00-.437-.098.831.831 0 00-.438.098.96.96 0 00-.364.243c-.098.097-.17.219-.243.364a1.379 1.379 0 00-.073.438c0 .17.024.316.073.438a.962.962 0 00.243.365.962.962 0 00.364.243.953.953 0 00.438.097zm-.56-.34v-1.557h.681c.17 0 .316.049.413.122a.442.442 0 01.146.34.442.442 0 01-.146.34c-.097.098-.219.122-.389.122l.073-.024c.073 0 .122.024.17.049a.413.413 0 01.146.146l.267.462h-.364l-.267-.511c-.025-.049-.049-.073-.073-.073-.025-.024-.073-.024-.122-.024h-.17v.608h-.364zm.317-.876h.316c.097 0 .17-.024.194-.048.048-.025.073-.098.073-.17 0-.074-.025-.147-.073-.17a.458.458 0 00-.195-.05h-.316v.438zM106.01 30.381c-4.346 0-7.461-3.414-7.461-8.89 0-5.477 3.166-8.843 7.412-8.843 3.56 0 6.012 1.868 6.776 5.477.024.097-.049.197-.149.197h-.909c-.097 0-.221-.073-.221-.197-.612-2.924-2.627-4.421-5.497-4.421-3.534 0-6.112 2.874-6.112 7.81 0 4.937 2.603 7.812 6.161 7.812 3.903 0 5.891-2.726 5.866-6.78h-5.793a.211.211 0 01-.197-.197v-.664c0-.097.097-.197.197-.197h6.872c.097 0 .197.097.197.197.097 5.476-2.406 8.694-7.142 8.694v.002zM115.361 30.111c-.097 0-.197-.097-.197-.197l.073-8.572-.073-8.227c0-.097.098-.197.197-.197h.858c.097 0 .197.097.197.197l-.049 8.178.049 8.621c0 .098-.097.197-.197.197h-.858zM124.025 30.381c-3.633 0-5.645-2.629-5.645-6.583s2.012-6.607 5.645-6.607c3.633 0 5.645 2.653 5.645 6.607s-1.987 6.583-5.645 6.583zm0-.958c2.945 0 4.394-2.186 4.394-5.625 0-3.438-1.473-5.65-4.394-5.65-2.921.025-4.394 2.212-4.394 5.65 0 3.439 1.473 5.625 4.394 5.625zM136.937 30.357c-1.988 0-3.436-.958-4.246-2.75l.049 2.283c0 .097-.097.197-.197.197h-.834a.211.211 0 01-.196-.197l.073-9.898-.073-6.877c0-.097.097-.197.196-.197h.858c.098 0 .197.097.197.197l-.024 6.78c.809-1.67 2.258-2.677 4.221-2.677 3.288 0 5.058 2.85 5.058 6.534 0 3.684-1.816 6.607-5.082 6.607v-.002zm-.246-.958c2.822 0 4.076-2.432 4.076-5.526 0-3.093-1.227-5.697-4.049-5.697-2.406 0-4.051 1.816-4.075 5.452-.025 3.636 1.472 5.77 4.048 5.77zM152.792 30.111c-.097 0-.197-.097-.197-.197l.049-2.383c-.785 1.744-2.234 2.8-4.246 2.8-3.312 0-5.057-2.851-5.057-6.535 0-3.685 1.791-6.583 5.057-6.583 1.988 0 3.436.958 4.246 2.726l-.049-2.284c0-.097.097-.197.197-.197h.833c.098 0 .197.098.197.197l-.073 5.895.073 6.362c0 .097-.097.197-.197.197h-.833v.002zm-4.173-.737c2.455 0 4.051-1.843 4.076-5.452.024-3.611-1.473-5.746-4.025-5.746-2.848 0-4.124 2.432-4.124 5.5 0 3.07 1.252 5.698 4.076 5.698h-.003zM156.474 30.111a.211.211 0 01-.197-.197l.073-8.572-.073-8.227c0-.097.097-.197.197-.197h.858c.097 0 .196.097.196.197l-.048 8.178.048 8.621c0 .098-.097.197-.196.197h-.858zM169.434 23.037h-4.024l.048 6.877c0 .097-.097.197-.197.197h-.933c-.097 0-.197-.097-.197-.197l.073-8.793-.073-8.008c0-.098.098-.197.197-.197h5.033c3.509 0 5.818 1.694 5.818 5.01 0 3.535-2.381 5.109-5.742 5.109l-.003.002zm-4.049-1.892v.86h4.1c2.749 0 4.418-1.103 4.418-4.077 0-2.702-1.645-3.955-4.515-3.955h-3.927l-.073 7.172h-.003zM185.192 30.111c-.097 0-.197-.097-.197-.197l.049-2.383c-.785 1.744-2.234 2.8-4.246 2.8-3.312 0-5.057-2.851-5.057-6.535 0-3.685 1.791-6.583 5.057-6.583 1.988 0 3.436.958 4.246 2.726l-.049-2.284c0-.097.097-.197.197-.197h.833c.098 0 .197.098.197.197l-.073 5.895.073 6.362c0 .097-.097.197-.197.197h-.833v.002zm-4.173-.737c2.455 0 4.049-1.843 4.076-5.452.024-3.611-1.473-5.746-4.025-5.746-2.848 0-4.124 2.432-4.124 5.5 0 3.07 1.252 5.698 4.076 5.698h-.003zM192.213 34.09c-.049.121-.148.197-.27.197h-.761a.136.136 0 01-.124-.197l1.425-4.027-4.91-12.427c-.048-.073.025-.173.122-.173h.982c.121 0 .221.073.27.173l4.148 10.758 3.56-10.734c.049-.122.149-.197.27-.197h.909c.097 0 .172.097.121.197l-5.742 16.432v-.002zM200.532 24.832l.048 5.085c0 .097-.097.197-.197.197h-.884a.211.211 0 01-.197-.197l.073-5.085-.049-7.172c0-.097.097-.197.197-.197h.834c.097 0 .196.097.196.197l-.048 2.408c.712-1.45 2.012-2.9 4.075-2.9 1.842 0 3.143.91 3.658 2.9.76-1.547 2.085-2.9 4.075-2.9 2.431 0 3.903 1.596 3.903 5.11v2.554l.025 5.085c0 .097-.098.197-.197.197h-.861a.211.211 0 01-.196-.197l.048-5.085V22.4c0-3.07-1.178-4.2-2.994-4.2-1.645 0-2.773 1.252-3.584 3.242.024.27.024.54.024.834v2.553l.024 5.085c0 .097-.097.197-.197.197h-.86c-.097 0-.197-.097-.197-.197l.049-5.085v-2.432c0-3.069-1.179-4.2-2.994-4.2-1.816 0-2.946 1.45-3.779 3.733v2.9l.005.002zM228.71 25.642c.097 0 .173.097.173.197-.467 2.774-2.185 4.542-5.203 4.542-3.731 0-5.694-2.677-5.694-6.558 0-3.882 2.136-6.632 5.548-6.632s5.351 2.332 5.424 6.361c0 .098-.097.198-.197.198l-9.548.024c0 3.563 1.497 5.649 4.491 5.649 2.282 0 3.584-1.35 4-3.587 0-.122.122-.197.221-.197h.785v.003zm-5.179-7.49c-2.503 0-3.976 1.792-4.27 4.617h8.394c-.024-2.553-1.448-4.618-4.124-4.618zM231.016 30.111a.211.211 0 01-.196-.197l.048-5.355-.048-6.901c0-.098.097-.197.196-.197h.834c.097 0 .197.097.197.197l-.049 2.407c.712-1.425 2.112-2.899 4.295-2.899 2.551 0 4.124 1.647 4.124 5.11v2.407l.024 5.231c0 .098-.097.197-.197.197h-.86c-.097 0-.197-.097-.197-.197l.049-5.23V22.4c0-3.045-1.276-4.2-3.191-4.2-1.915 0-3.167 1.425-4.001 3.733v2.75l.025 5.231c0 .098-.097.197-.197.197h-.86.004zM247.977 29.866a.24.24 0 01-.197.245c-.367.098-.884.197-1.324.197-1.645 0-2.873-.834-2.873-3.511l.025-8.327h-1.449c-.097 0-.197-.097-.197-.197v-.613c0-.097.098-.197.197-.197h1.449l-.049-2.972c0-.097.097-.197.197-.197h.86c.097 0 .197.098.197.197l-.024 2.972h2.994c.097 0 .197.097.197.197v.613c0 .097-.098.197-.197.197h-2.994v8.327c0 1.892.515 2.456 1.742 2.456.442 0 .909-.049 1.252-.122.097-.024.197.049.197.148v.589l-.003-.002zM254.041 30.357c-3.167 0-5.179-1.45-5.252-4.543 0-.097.097-.197.197-.197h.785c.097 0 .197.097.197.197.072 2.48 1.497 3.636 4.099 3.636 2.161 0 3.706-.983 3.706-2.726 0-4.103-8.712-1.131-8.712-6.044 0-2.283 1.939-3.462 4.639-3.462s4.761 1.155 4.885 3.781c0 .097-.097.197-.197.197h-.736c-.097 0-.197-.097-.197-.197-.121-2.038-1.742-2.874-3.779-2.874-2.036 0-3.436.834-3.436 2.504 0 3.733 8.712.762 8.712 6.017 0 2.332-2.16 3.708-4.909 3.708l-.002.003z" fill="#fff"/></svg>