<svg width="102" height="17" viewBox="0 0 102 17" fill="none" xmlns="http://www.w3.org/2000/svg"><path d="M8.065.4c-3.69.022-6.587 1.63-6.587 5.183 0 3.1 2.58 3.938 6.18 4.798 2.602.657 3.055.747 3.055 1.652 0 .725-.77 1.042-1.652 1.042-2.015 0-4.3-.589-6.36-1.743L.798 14.5c2.173 1.448 4.844 2.218 7.786 2.218 4.074 0 6.632-1.856 6.632-5.229 0-3.236-2.648-4.142-6.36-5.138-2.467-.61-2.762-.815-2.762-1.312 0-.725.702-1.042 1.517-1.042 1.562 0 3.69.544 5.5 1.472L14.9 2.188C13.044 1.056 10.6.4 8.065.4zm24.58 16.07V.626h-4.278V6.6h-6.45V.626H17.66V16.47h4.255v-6.043h6.451v6.043h4.278zm20.318 0L46.648.626h-5.59L34.81 16.47h5.092l1.019-2.762h5.93l1.019 2.762h5.092zm-10.932-6.157l1.833-4.934 1.834 4.934H42.03zM55.105.65v15.82h4.255v-4.82h2.535l3.078 4.82h4.912l-3.554-5.386c2.196-.747 3.124-2.354 3.124-4.934 0-3.87-2.06-5.5-7.22-5.5h-7.13zm4.255 3.825h3.078c1.879 0 2.58.588 2.58 1.946 0 1.38-.701 1.947-2.58 1.947H59.36V4.474zm25.645-.023V.626H72.037V16.47h13.105v-3.825h-8.85v-2.377h8.103V6.647h-8.103V4.45h8.715zM94.004.4c-3.69.022-6.587 1.63-6.587 5.183 0 3.1 2.58 3.938 6.18 4.798 2.602.657 3.055.747 3.055 1.652 0 .725-.77 1.042-1.653 1.042-2.014 0-4.3-.589-6.36-1.743l-1.9 3.169c2.172 1.448 4.843 2.218 7.785 2.218 4.074 0 6.632-1.856 6.632-5.229 0-3.236-2.648-4.142-6.36-5.138-2.467-.61-2.762-.815-2.762-1.312 0-.725.702-1.042 1.517-1.042 1.562 0 3.69.544 5.5 1.472l1.788-3.282C98.983 1.056 96.539.4 94.004.4z" fill="#09B45B"/></svg>