<svg width="225" height="12" viewBox="0 0 225 12" fill="none" xmlns="http://www.w3.org/2000/svg"><path d="M.864 9h.648V5.124h3.624v-.6H1.512V1.2h4.344V.6H.864V9zm6.297-7.368c.24 0 .432-.18.432-.432A.423.423 0 007.16.768c-.24 0-.432.18-.432.432s.192.432.432.432zM6.849 9h.612V2.916h-.612V9zm4.859-6.156c-1.116 0-1.836.576-2.184 1.368l-.096-1.296H8.9V9h.612V6c0-1.584.804-2.592 2.1-2.592 1.176 0 1.884.768 1.884 2.208V9h.612V5.592c0-1.92-1.02-2.748-2.4-2.748zm4.066-1.212c.24 0 .432-.18.432-.432a.423.423 0 00-.432-.432c-.24 0-.432.18-.432.432s.192.432.432.432zM15.462 9h.612V2.916h-.612V9zm1.775-1.872c.048 1.26 1.068 1.944 2.592 1.944 1.308 0 2.364-.66 2.364-1.74 0-1.284-1.128-1.536-2.436-1.716-.948-.132-1.788-.24-1.788-1.092 0-.696.684-1.152 1.716-1.152.972 0 1.668.468 1.776 1.26h.624c-.108-1.188-1.08-1.788-2.4-1.788-1.356-.012-2.328.684-2.328 1.728 0 1.224 1.128 1.452 2.376 1.62 1.02.144 1.848.276 1.848 1.176 0 .72-.756 1.176-1.752 1.176-1.164 0-1.92-.54-1.968-1.416h-.624zm8.932-4.284c-1.14 0-1.848.636-2.196 1.512V.6h-.612V9h.612V6c0-1.584.804-2.592 2.1-2.592 1.164 0 1.884.768 1.884 2.208V9h.612V5.592c0-1.92-1.02-2.748-2.4-2.748zM34.993 9l-.396.984c-.276.672-.384.852-1.008.852h-.768v.564h.936c.816 0 1.008-.312 1.392-1.272l2.916-7.212h-.66L35.33 8.208l-2.112-5.292h-.66L34.993 9zm6.325.072c1.716 0 2.928-1.272 2.928-3.12 0-1.836-1.212-3.108-2.928-3.108s-2.916 1.272-2.916 3.108c0 1.848 1.2 3.12 2.916 3.12zm0-.552c-1.356 0-2.292-1.056-2.292-2.568 0-1.5.936-2.568 2.292-2.568 1.356 0 2.292 1.068 2.292 2.568 0 1.512-.936 2.568-2.292 2.568zm8.56-2.616c0 1.596-.792 2.604-2.052 2.604-1.128 0-1.824-.768-1.824-2.22V2.916h-.612v3.408c0 1.908.996 2.748 2.34 2.748 1.08 0 1.788-.576 2.136-1.356L49.95 9h.54V2.916h-.612v2.988zm4.537-2.988c-1.128 0-1.608.54-1.86 1.212l-.096-1.212h-.528V9h.612V5.916c0-1.236.324-2.412 1.752-2.412h.444v-.588h-.324zm8.161 6.156c1.8 0 3.072-.972 3.432-2.664h-.684c-.36 1.344-1.332 2.064-2.76 2.064-1.944 0-3.168-1.524-3.168-3.672s1.248-3.672 3.192-3.672c1.404 0 2.388.732 2.76 2.052h.684C65.66 1.5 64.388.528 62.624.528c-2.364 0-3.9 1.752-3.9 4.272 0 2.544 1.5 4.272 3.852 4.272zm4.995-7.44c.24 0 .432-.18.432-.432a.423.423 0 00-.432-.432c-.24 0-.432.18-.432.432s.192.432.432.432zM67.26 9h.612V2.916h-.612V9zm2.507-1.416c0 .972.396 1.416 1.428 1.416h.888v-.564h-.84c-.636 0-.864-.24-.864-.864V3.48h1.644v-.564h-1.644V1.212h-.612v1.704h-1.152v.564h1.152v4.104zM74.837 9l-.396.984c-.276.672-.384.852-1.008.852h-.768v.564h.936c.816 0 1.008-.312 1.392-1.272l2.916-7.212h-.66l-2.076 5.292-2.112-5.292h-.66L74.837 9zm7.273 0h.648V.6h-.648V9zm5.043-6.156c-1.116 0-1.836.576-2.184 1.368l-.096-1.296h-.528V9h.612V6c0-1.584.804-2.592 2.1-2.592 1.176 0 1.884.768 1.884 2.208V9h.612V5.592c0-1.92-1.02-2.748-2.4-2.748zm8.629 1.44c-.372-.864-1.188-1.44-2.328-1.44-1.668 0-2.868 1.272-2.868 3.108 0 1.92 1.2 3.12 2.868 3.12 1.14 0 1.932-.612 2.316-1.464L95.866 9h.528V.6h-.612v3.684zm-2.28 4.236c-1.356 0-2.292-1.056-2.292-2.568 0-1.5.936-2.568 2.292-2.568 1.356 0 2.292 1.068 2.292 2.58 0 1.5-.936 2.556-2.292 2.556zm7.019.552c1.332 0 2.352-.864 2.616-2.088h-.624c-.24.948-1.044 1.536-2.04 1.536-1.356 0-2.208-1.032-2.232-2.448v-.108h4.968c0-.084.012-.18.012-.252-.06-1.812-1.176-2.868-2.808-2.868-1.668 0-2.808 1.272-2.808 3.072 0 1.908 1.188 3.156 2.916 3.156zm-2.232-3.624c.096-1.236 1.02-2.064 2.136-2.064 1.188 0 2.04.732 2.136 2.064h-4.272zM103.572 9h.708l2.016-2.676L108.312 9h.744l-2.364-3.108 2.244-2.976h-.696l-1.92 2.52-1.896-2.52h-.732l2.244 2.976L103.572 9zm14.859-.564c-.36 0-.54-.12-.54-.588V5.016c0-1.392-.852-2.172-2.376-2.172-1.392 0-2.316.672-2.472 1.776h.612c.156-.744.804-1.236 1.836-1.236 1.14 0 1.788.6 1.788 1.608v.528h-2.064c-1.56 0-2.4.672-2.4 1.812 0 1.08.852 1.74 2.148 1.74 1.236 0 1.968-.564 2.34-1.32v.216c-.024.72.276 1.032.996 1.032h.36v-.564h-.228zm-1.152-1.896c0 1.164-.828 2.004-2.268 2.004-.972 0-1.572-.492-1.572-1.248 0-.804.6-1.248 1.728-1.248h2.112v.492zm5.139-3.696c-1.14 0-1.932.612-2.316 1.464l-.096-1.392h-.528V11.4h.612V7.596c.348.888 1.176 1.476 2.328 1.476 1.668 0 2.868-1.272 2.868-3.12 0-1.908-1.2-3.108-2.868-3.108zm-.048 5.676c-1.356 0-2.292-1.056-2.292-2.58 0-1.488.936-2.556 2.292-2.556 1.356 0 2.292 1.068 2.292 2.568 0 1.512-.936 2.568-2.292 2.568zm7.067-5.676c-1.14 0-1.932.612-2.316 1.464l-.096-1.392h-.528V11.4h.612V7.596c.348.888 1.176 1.476 2.328 1.476 1.668 0 2.868-1.272 2.868-3.12 0-1.908-1.2-3.108-2.868-3.108zm-.048 5.676c-1.356 0-2.292-1.056-2.292-2.58 0-1.488.936-2.556 2.292-2.556 1.356 0 2.292 1.068 2.292 2.568 0 1.512-.936 2.568-2.292 2.568zm4.128.48h.612V.6h-.612V9zm2.363-7.368c.24 0 .432-.18.432-.432a.423.423 0 00-.432-.432c-.24 0-.432.18-.432.432s.192.432.432.432zM135.568 9h.612V2.916h-.612V9zm4.702.072c1.38 0 2.352-.792 2.592-2.028h-.648c-.204.9-.936 1.476-1.944 1.476-1.332 0-2.256-1.044-2.256-2.556s.912-2.58 2.256-2.58c1.02 0 1.74.576 1.956 1.488h.636c-.252-1.26-1.2-2.028-2.58-2.028-1.716 0-2.892 1.272-2.892 3.12 0 1.872 1.164 3.108 2.88 3.108zm9.134-.636c-.36 0-.54-.12-.54-.588V5.016c0-1.392-.852-2.172-2.376-2.172-1.392 0-2.316.672-2.472 1.776h.612c.156-.744.804-1.236 1.836-1.236 1.14 0 1.788.6 1.788 1.608v.528h-2.064c-1.56 0-2.4.672-2.4 1.812 0 1.08.852 1.74 2.148 1.74 1.236 0 1.968-.564 2.34-1.32v.216c-.024.72.276 1.032.996 1.032h.36v-.564h-.228zm-1.152-1.896c0 1.164-.828 2.004-2.268 2.004-.972 0-1.572-.492-1.572-1.248 0-.804.6-1.248 1.728-1.248h2.112v.492zm2.654 1.044c0 .972.396 1.416 1.428 1.416h.888v-.564h-.84c-.636 0-.864-.24-.864-.864V3.48h1.644v-.564h-1.644V1.212h-.612v1.704h-1.152v.564h1.152v4.104zm3.56-5.952c.24 0 .432-.18.432-.432a.423.423 0 00-.432-.432c-.24 0-.432.18-.432.432s.192.432.432.432zM154.154 9h.612V2.916h-.612V9zm4.738.072c1.716 0 2.928-1.272 2.928-3.12 0-1.836-1.212-3.108-2.928-3.108s-2.916 1.272-2.916 3.108c0 1.848 1.2 3.12 2.916 3.12zm0-.552c-1.356 0-2.292-1.056-2.292-2.568 0-1.5.936-2.568 2.292-2.568 1.356 0 2.292 1.068 2.292 2.568 0 1.512-.936 2.568-2.292 2.568zm6.952-5.676c-1.116 0-1.836.576-2.184 1.368l-.096-1.296h-.528V9h.612V6c0-1.584.804-2.592 2.1-2.592 1.176 0 1.884.768 1.884 2.208V9h.612V5.592c0-1.92-1.02-2.748-2.4-2.748zm7.301-1.212c.24 0 .432-.18.432-.432a.423.423 0 00-.432-.432c-.24 0-.432.18-.432.432s.192.432.432.432zM172.833 9h.612V2.916h-.612V9zm4.859-6.156c-1.116 0-1.836.576-2.184 1.368l-.096-1.296h-.528V9h.612V6c0-1.584.804-2.592 2.1-2.592 1.176 0 1.884.768 1.884 2.208V9h.612V5.592c0-1.92-1.02-2.748-2.4-2.748zm13.781 0c-1.116 0-1.836.624-2.184 1.524-.288-1.008-1.044-1.524-2.004-1.524-1.044 0-1.668.612-1.98 1.368l-.096-1.296h-.528V9h.612V5.904c0-1.488.72-2.496 1.884-2.496 1.056 0 1.716.744 1.716 2.148V9h.612V5.688c.036-1.392.756-2.28 1.896-2.28 1.056 0 1.692.708 1.692 2.088V9h.624V5.472c0-1.836-.972-2.628-2.244-2.628zm3.914-1.212c.24 0 .432-.18.432-.432a.423.423 0 00-.432-.432c-.24 0-.432.18-.432.432s.192.432.432.432zM195.075 9h.612V2.916h-.612V9zm4.859-6.156c-1.116 0-1.836.576-2.184 1.368l-.096-1.296h-.528V9h.612V6c0-1.584.804-2.592 2.1-2.592 1.176 0 1.884.768 1.884 2.208V9h.612V5.592c0-1.92-1.02-2.748-2.4-2.748zm8.171 3.06c0 1.596-.792 2.604-2.052 2.604-1.128 0-1.824-.768-1.824-2.22V2.916h-.612v3.408c0 1.908.996 2.748 2.34 2.748 1.08 0 1.788-.576 2.136-1.356L208.177 9h.54V2.916h-.612v2.988zm2.52 1.68c0 .972.396 1.416 1.428 1.416h.888v-.564h-.84c-.636 0-.864-.24-.864-.864V3.48h1.644v-.564h-1.644V1.212h-.612v1.704h-1.152v.564h1.152v4.104zm5.748 1.488c1.332 0 2.352-.864 2.616-2.088h-.624c-.24.948-1.044 1.536-2.04 1.536-1.356 0-2.208-1.032-2.232-2.448v-.108h4.968c0-.084.012-.18.012-.252-.06-1.812-1.176-2.868-2.808-2.868-1.668 0-2.808 1.272-2.808 3.072 0 1.908 1.188 3.156 2.916 3.156zm-2.232-3.624c.096-1.236 1.02-2.064 2.136-2.064 1.188 0 2.04.732 2.136 2.064h-4.272zm5.854 1.68c.048 1.26 1.068 1.944 2.592 1.944 1.308 0 2.364-.66 2.364-1.74 0-1.284-1.128-1.536-2.436-1.716-.948-.132-1.788-.24-1.788-1.092 0-.696.684-1.152 1.716-1.152.972 0 1.668.468 1.776 1.26h.624c-.108-1.188-1.08-1.788-2.4-1.788-1.356-.012-2.328.684-2.328 1.728 0 1.224 1.128 1.452 2.376 1.62 1.02.144 1.848.276 1.848 1.176 0 .72-.756 1.176-1.752 1.176-1.164 0-1.92-.54-1.968-1.416h-.624z" fill="#000"/></svg>