<svg width="219" height="68" viewBox="0 0 219 68" fill="none" xmlns="http://www.w3.org/2000/svg"><path d="M1.24 25h3.885V6.975L12.475 25h3.395l7.35-18.025V25h3.885V.5h-5.11l-7.7 19.285L6.455.5H1.24V25zm46.347-3.29c-.77 0-1.155-.245-1.155-1.155V13.38c0-4.235-2.73-6.51-7.49-6.51-4.515 0-7.525 2.17-7.91 5.67h3.71c.28-1.575 1.785-2.625 4.025-2.625 2.485 0 3.92 1.225 3.92 3.22v1.085h-4.515c-5.005 0-7.665 2.065-7.665 5.74 0 3.325 2.73 5.25 6.65 5.25 2.905 0 4.725-1.26 5.915-3.08 0 1.785.84 2.87 3.29 2.87h1.995v-3.29h-.77zm-4.9-4.06c-.035 2.765-1.855 4.62-5.005 4.62-2.065 0-3.325-1.05-3.325-2.555 0-1.82 1.295-2.695 3.64-2.695h4.69v.63zm6.959 1.435c.105 3.885 3.395 6.125 8.19 6.125 4.34 0 7.594-2.17 7.594-5.6 0-3.99-3.325-4.83-7.42-5.32-2.59-.28-4.304-.49-4.304-2.17 0-1.435 1.47-2.345 3.71-2.345s3.78 1.155 3.99 2.8h3.71c-.245-3.675-3.36-5.705-7.77-5.705-4.305-.035-7.35 2.17-7.35 5.565 0 3.71 3.22 4.585 7.314 5.075 2.765.35 4.41.49 4.41 2.415 0 1.435-1.54 2.345-3.884 2.345-2.73 0-4.34-1.33-4.48-3.185h-3.71zm20.009 1.05c0 3.255 1.47 4.865 4.9 4.865h3.5v-3.325h-2.66c-1.435 0-1.925-.525-1.925-1.925v-9.345h4.375V7.08H73.47V2.075h-3.815V7.08H66.54v3.325h3.115v9.73zm18.933 5.075c4.446 0 7.456-2.695 8.086-6.23h-3.78c-.526 1.995-2.206 3.15-4.516 3.15-2.975 0-4.9-1.995-5.004-5.04v-.245h13.51c.07-.49.105-.98.105-1.435-.106-5.25-3.57-8.54-8.75-8.54-5.285 0-8.82 3.675-8.82 9.205 0 5.495 3.535 9.135 9.17 9.135zm-5.075-11.13c.28-2.555 2.346-4.165 4.76-4.165 2.626 0 4.48 1.505 4.796 4.165h-9.556zm25.596-7c-2.94 0-4.375 1.19-5.285 2.695l-.42-2.695h-3.36V25h3.78v-8.995c0-2.765 1.085-5.39 4.445-5.39h1.68V7.08h-.84zm13.422 13.055c0 3.255 1.47 4.865 4.9 4.865h3.5v-3.325h-2.66c-1.435 0-1.925-.525-1.925-1.925v-9.345h4.375V7.08h-4.375V2.075h-3.815V7.08h-3.115v3.325h3.115v9.73zM142.75 6.87c-2.8 0-4.515 1.26-5.635 2.8V.5h-3.78V25h3.78v-9.065c0-3.605 1.82-5.81 4.795-5.81 2.8 0 4.305 1.82 4.305 5.215V25h3.78v-9.975c0-5.985-3.255-8.155-7.245-8.155zm19.051 18.34c4.445 0 7.455-2.695 8.085-6.23h-3.78c-.525 1.995-2.205 3.15-4.515 3.15-2.975 0-4.9-1.995-5.005-5.04v-.245h13.51c.07-.49.105-.98.105-1.435-.105-5.25-3.57-8.54-8.75-8.54-5.285 0-8.82 3.675-8.82 9.205 0 5.495 3.535 9.135 9.17 9.135zm-5.075-11.13c.28-2.555 2.345-4.165 4.76-4.165 2.625 0 4.48 1.505 4.795 4.165h-9.555zM21.47 48.87c-2.94 0-4.97 1.295-6.125 3.255-1.085-2.31-3.185-3.255-5.53-3.255-2.695.035-4.235 1.225-5.25 2.555l-.42-2.345H.855V67h3.78v-9.59c0-3.185 1.61-5.285 4.2-5.285 2.485 0 3.78 1.645 3.78 4.795V67h3.815v-9.695c0-3.22 1.645-5.18 4.235-5.18 2.45 0 3.745 1.645 3.745 4.795V67h3.78V56.675c0-5.67-3.01-7.805-6.72-7.805zm26.527 14.84c-.77 0-1.155-.245-1.155-1.155V55.38c0-4.235-2.73-6.51-7.49-6.51-4.515 0-7.525 2.17-7.91 5.67h3.71c.28-1.575 1.785-2.625 4.025-2.625 2.485 0 3.92 1.225 3.92 3.22v1.085h-4.515c-5.005 0-7.665 2.065-7.665 5.74 0 3.325 2.73 5.25 6.65 5.25 2.905 0 4.725-1.26 5.915-3.08 0 1.785.84 2.87 3.29 2.87h1.995v-3.29h-.77zm-4.9-4.06c-.035 2.765-1.855 4.62-5.005 4.62-2.065 0-3.325-1.05-3.325-2.555 0-1.82 1.295-2.695 3.64-2.695h4.69v.63zM59.89 49.08c-2.94 0-4.375 1.19-5.285 2.695l-.42-2.695h-3.36V67h3.78v-8.995c0-2.765 1.085-5.39 4.445-5.39h1.68V49.08h-.84zM63.062 67h3.78v-4.55l3.22-3.36L75.347 67h4.48l-7.175-10.675 6.755-7.245h-4.445l-8.12 8.68V42.5h-3.78V67zm25.97.21c4.446 0 7.456-2.695 8.086-6.23h-3.78c-.525 1.995-2.205 3.15-4.515 3.15-2.975 0-4.9-1.995-5.005-5.04v-.245h13.51c.07-.49.105-.98.105-1.435-.105-5.25-3.57-8.54-8.75-8.54-5.285 0-8.82 3.675-8.82 9.205 0 5.495 3.535 9.135 9.17 9.135zm-5.074-11.13c.28-2.555 2.345-4.165 4.76-4.165 2.625 0 4.48 1.505 4.795 4.165h-9.555zm17.689 6.055c0 3.255 1.47 4.865 4.9 4.865h3.5v-3.325h-2.66c-1.435 0-1.925-.525-1.925-1.925v-9.345h4.375V49.08h-4.375v-5.005h-3.815v5.005h-3.115v3.325h3.115v9.73zm17.94-9.73h3.115V67h3.815V52.405h4.795V49.08h-4.865v-1.505c0-1.225.525-1.75 1.75-1.75h3.115V42.5h-3.605c-3.465 0-5.005 1.68-5.005 4.9v1.68h-3.115v3.325zm21.398 14.805c5.46 0 9.135-3.675 9.135-9.17 0-5.46-3.675-9.17-9.135-9.17s-9.135 3.71-9.135 9.17c0 5.495 3.675 9.17 9.135 9.17zm0-3.22c-3.185 0-5.25-2.485-5.25-5.95 0-3.465 2.065-5.95 5.25-5.95s5.285 2.485 5.285 5.95c0 3.465-2.1 5.95-5.285 5.95zm21.24-14.91c-2.94 0-4.375 1.19-5.285 2.695l-.42-2.695h-3.36V67h3.78v-8.995c0-2.765 1.085-5.39 4.445-5.39h1.68V49.08h-.84zm10.542 18.13c4.585 0 7.63-2.555 8.33-6.615h-3.99c-.455 2.065-1.995 3.395-4.305 3.395-3.045 0-5.04-2.415-5.04-5.915 0-3.535 1.995-5.985 5.04-5.985 2.345 0 3.85 1.295 4.34 3.395h3.955c-.735-4.06-3.605-6.615-8.225-6.615-5.425 0-8.995 3.675-8.995 9.205 0 5.6 3.465 9.135 8.89 9.135zm19.728 0c4.445 0 7.455-2.695 8.085-6.23h-3.78c-.525 1.995-2.205 3.15-4.515 3.15-2.975 0-4.9-1.995-5.005-5.04v-.245h13.51c.07-.49.105-.98.105-1.435-.105-5.25-3.57-8.54-8.75-8.54-5.285 0-8.82 3.675-8.82 9.205 0 5.495 3.535 9.135 9.17 9.135zm-5.075-11.13c.28-2.555 2.345-4.165 4.76-4.165 2.625 0 4.48 1.505 4.795 4.165h-9.555zm15.658 5.005c.105 3.885 3.395 6.125 8.19 6.125 4.34 0 7.595-2.17 7.595-5.6 0-3.99-3.325-4.83-7.42-5.32-2.59-.28-4.305-.49-4.305-2.17 0-1.435 1.47-2.345 3.71-2.345s3.78 1.155 3.99 2.8h3.71c-.245-3.675-3.36-5.705-7.77-5.705-4.305-.035-7.35 2.17-7.35 5.565 0 3.71 3.22 4.585 7.315 5.075 2.765.35 4.41.49 4.41 2.415 0 1.435-1.54 2.345-3.885 2.345-2.73 0-4.34-1.33-4.48-3.185h-3.71z" fill="#000"/></svg>