<svg width="571" height="80" viewBox="0 0 571 80" fill="none" xmlns="http://www.w3.org/2000/svg"><path d="M4.29 75.888h1.17l3.304-11.156 3.305 11.156h1.168l3.908-12.781h-1.023l-3.45 11.485-3.36-11.485H8.308L4.857 74.592 1.442 63.107H.402L4.29 75.888zm17.674.11c2.027 0 3.579-1.315 3.98-3.178h-.949c-.365 1.443-1.588 2.338-3.104 2.338-2.063 0-3.36-1.57-3.396-3.725v-.164h7.559c0-.128.018-.274.018-.384-.091-2.757-1.79-4.364-4.272-4.364-2.538 0-4.273 1.936-4.273 4.674 0 2.904 1.808 4.803 4.437 4.803zm-3.396-5.515c.146-1.88 1.552-3.14 3.25-3.14 1.808 0 3.104 1.114 3.25 3.14h-6.5zm21.807-1.698c-.566-1.369-1.808-2.264-3.524-2.264-2.538 0-4.364 1.918-4.364 4.73 0 2.92 1.826 4.746 4.364 4.746 1.735 0 2.958-.912 3.542-2.355v1.643c0 2.465-1.169 3.524-3.396 3.524-1.735 0-2.94-.785-3.232-2.19h-.968c.293 1.971 1.881 3.03 4.127 3.03 2.994 0 4.4-1.424 4.4-4.327v-8.691h-.803l-.146 2.154zm-3.451 6.373c-2.063 0-3.487-1.607-3.487-3.908 0-2.3 1.424-3.907 3.487-3.907s3.487 1.607 3.487 3.926c0 2.282-1.424 3.889-3.487 3.889zm7.065-10.48a.643.643 0 00.658-.658.643.643 0 00-.658-.657.643.643 0 00-.657.657c0 .383.292.657.657.657zm-.474 11.21h.93v-9.257h-.93v9.257zm5.804 0h1.114l3.615-9.257h-.968l-3.177 8.18-3.195-8.18h-1.004l3.615 9.257zm9.697.11c2.027 0 3.579-1.315 3.98-3.178h-.949c-.365 1.443-1.588 2.338-3.104 2.338-2.063 0-3.36-1.57-3.396-3.725v-.164h7.559c0-.128.018-.274.018-.384-.091-2.757-1.79-4.364-4.272-4.364-2.538 0-4.273 1.936-4.273 4.674 0 2.904 1.808 4.803 4.437 4.803zm-3.396-5.515c.146-1.88 1.552-3.14 3.25-3.14 1.808 0 3.104 1.114 3.25 3.14h-6.5zm17.041 5.405l-.602 1.497c-.42 1.023-.584 1.296-1.534 1.296h-1.168v.859h1.424c1.241 0 1.533-.475 2.118-1.936l4.437-10.973H76.33l-3.158 8.052-3.214-8.052h-1.004l3.706 9.257zm9.624.11c2.611 0 4.455-1.936 4.455-4.748 0-2.793-1.844-4.729-4.455-4.729-2.61 0-4.437 1.936-4.437 4.73 0 2.811 1.826 4.746 4.437 4.746zm0-.84c-2.063 0-3.487-1.607-3.487-3.908 0-2.282 1.424-3.907 3.487-3.907s3.487 1.625 3.487 3.907c0 2.3-1.424 3.908-3.487 3.908zm13.025-3.98c0 2.428-1.206 3.961-3.123 3.961-1.716 0-2.775-1.168-2.775-3.377V66.63h-.931v5.185c0 2.903 1.515 4.181 3.56 4.181 1.644 0 2.72-.876 3.25-2.063l.128 1.954h.822v-9.257h-.931v4.546zm8.738 2.556c0 1.478.603 2.154 2.173 2.154h1.351v-.858h-1.278c-.968 0-1.315-.365-1.315-1.315V67.49h2.502v-.858h-2.502v-2.593h-.931v2.593h-1.753v.858h1.753v6.245zm9.213-7.213c-1.734 0-2.812.968-3.341 2.3v-5.714h-.931v12.781h.931v-4.565c0-2.41 1.223-3.944 3.195-3.944 1.771 0 2.867 1.169 2.867 3.36v5.149h.931v-5.186c0-2.92-1.552-4.18-3.652-4.18zm9.678 9.477c2.027 0 3.579-1.315 3.98-3.178h-.949c-.365 1.443-1.589 2.338-3.104 2.338-2.063 0-3.36-1.57-3.396-3.725v-.164h7.559c0-.128.018-.274.018-.384-.091-2.757-1.789-4.364-4.272-4.364-2.538 0-4.273 1.936-4.273 4.674 0 2.904 1.808 4.803 4.437 4.803zm-3.396-5.515c.146-1.88 1.552-3.14 3.25-3.14 1.807 0 3.104 1.114 3.25 3.14h-6.5zm18.739-3.962c-1.734 0-2.939.931-3.524 2.228l-.146-2.118h-.803V79.54h.931v-5.788c.53 1.35 1.789 2.246 3.542 2.246 2.538 0 4.364-1.936 4.364-4.748 0-2.903-1.826-4.729-4.364-4.729zm-.073 8.637c-2.063 0-3.487-1.607-3.487-3.926 0-2.264 1.424-3.889 3.487-3.889s3.488 1.625 3.488 3.907c0 2.3-1.425 3.908-3.488 3.908zm6.28.73h.932V63.107h-.932v12.781zm11.264-.858c-.548 0-.822-.183-.822-.895v-4.309c0-2.118-1.296-3.305-3.615-3.305-2.118 0-3.524 1.023-3.761 2.703h.931c.238-1.132 1.224-1.881 2.794-1.881 1.734 0 2.72.913 2.72 2.447v.803h-3.14c-2.374 0-3.652 1.022-3.652 2.757 0 1.643 1.296 2.648 3.268 2.648 1.881 0 2.995-.859 3.561-2.009v.329c-.037 1.095.42 1.57 1.515 1.57h.548v-.858h-.347zM154 72.145c0 1.771-1.26 3.05-3.451 3.05-1.479 0-2.391-.75-2.391-1.9 0-1.223.912-1.899 2.629-1.899H154v.749zm4.039 1.589c0 1.478.603 2.154 2.173 2.154h1.351v-.858h-1.278c-.968 0-1.315-.365-1.315-1.315V67.49h2.502v-.858h-2.502v-2.593h-.931v2.593h-1.753v.858h1.753v6.245zm3.989-6.245h1.753v8.399h.931v-8.399h2.775v-.858h-2.775v-1.388c0-.913.347-1.278 1.278-1.278h1.515v-.858h-1.552c-1.552 0-2.172.675-2.172 2.154v1.37h-1.753v.858zm10.195 8.508c2.611 0 4.455-1.935 4.455-4.747 0-2.793-1.844-4.729-4.455-4.729-2.611 0-4.437 1.936-4.437 4.73 0 2.811 1.826 4.746 4.437 4.746zm0-.84c-2.063 0-3.488-1.606-3.488-3.907 0-2.282 1.425-3.907 3.488-3.907 2.063 0 3.487 1.625 3.487 3.907 0 2.3-1.424 3.908-3.487 3.908zm10.085-8.526c-1.717 0-2.447.822-2.83 1.844l-.147-1.844h-.803v9.257h.931v-4.693c0-1.88.493-3.67 2.666-3.67h.676v-.894h-.493zm12.207-.11c-1.698 0-2.794.95-3.323 2.32-.439-1.535-1.589-2.32-3.049-2.32-1.589 0-2.538.931-3.013 2.082l-.146-1.972h-.804v9.257h.932v-4.71c0-2.265 1.095-3.799 2.866-3.799 1.607 0 2.611 1.132 2.611 3.269v5.24h.931v-5.04c.055-2.117 1.151-3.469 2.885-3.469 1.607 0 2.575 1.078 2.575 3.177v5.332h.949V70.52c0-2.794-1.479-3.999-3.414-3.999zm5.865 8.089c-.493 0-.804.31-.804.712 0 .438.292.657.639.657.183 0 .365-.073.457-.219.128.128.164.31.164.475 0 .694-.438 1.406-1.369 1.442v.548c1.26-.055 2.045-.895 2.045-2.1 0-.84-.475-1.515-1.132-1.515zm8.364-9.933a.644.644 0 00.658-.657.644.644 0 00-.658-.657.643.643 0 00-.657.657c0 .383.292.657.657.657zm-.474 11.211h.931v-9.257h-.931v9.257zm7.392-9.367c-1.698 0-2.793.877-3.323 2.082l-.146-1.972h-.803v9.257h.931v-4.565c0-2.41 1.223-3.944 3.195-3.944 1.79 0 2.867 1.169 2.867 3.36v5.149h.931v-5.186c0-2.92-1.552-4.18-3.652-4.18zm5.293 6.519c.073 1.917 1.625 2.957 3.944 2.957 1.99 0 3.597-1.004 3.597-2.647 0-1.954-1.716-2.337-3.707-2.61-1.442-.202-2.72-.366-2.72-1.662 0-1.06 1.041-1.753 2.611-1.753 1.479 0 2.538.712 2.702 1.917h.95c-.165-1.808-1.644-2.72-3.652-2.72-2.063-.019-3.542 1.04-3.542 2.629 0 1.862 1.716 2.209 3.615 2.465 1.552.219 2.812.42 2.812 1.789 0 1.095-1.151 1.79-2.666 1.79-1.771 0-2.921-.822-2.994-2.155h-.95zm9.792-8.363a.644.644 0 00.658-.657.644.644 0 00-.658-.657.643.643 0 00-.657.657c0 .383.292.657.657.657zm-.474 11.211h.931v-9.257h-.931v9.257zm10.661-7.103c-.566-1.369-1.808-2.264-3.524-2.264-2.538 0-4.364 1.918-4.364 4.73 0 2.92 1.826 4.746 4.364 4.746 1.734 0 2.958-.912 3.542-2.355v1.643c0 2.465-1.169 3.524-3.396 3.524-1.735 0-2.94-.785-3.232-2.19h-.968c.293 1.971 1.881 3.03 4.127 3.03 2.994 0 4.4-1.424 4.4-4.327v-8.691h-.803l-.146 2.154zm-3.451 6.373c-2.063 0-3.488-1.607-3.488-3.908 0-2.3 1.425-3.907 3.488-3.907 2.063 0 3.487 1.607 3.487 3.926 0 2.282-1.424 3.889-3.487 3.889zm10.863-8.637c-1.735 0-2.812.968-3.341 2.3v-5.714h-.932v12.781h.932v-4.565c0-2.41 1.223-3.944 3.195-3.944 1.771 0 2.866 1.169 2.866 3.36v5.149h.932v-5.186c0-2.92-1.552-4.18-3.652-4.18zm6.424 7.213c0 1.478.603 2.154 2.173 2.154h1.351v-.858h-1.278c-.968 0-1.315-.365-1.315-1.315V67.49h2.502v-.858h-2.502v-2.593h-.931v2.593h-1.753v.858h1.753v6.245zm19.85 1.314c-.512 0-.877-.11-1.26-.584l-.913-1.06 2.903-4.418h-.986l-2.483 3.743-2.848-3.341-.11-.128c2.447-1.022 3.323-2.19 3.323-3.615 0-1.516-1.187-2.648-2.794-2.648-1.898 0-3.304 1.26-3.304 2.94 0 1.169.401 1.899 1.387 3.104-2.227.95-3.122 2.264-3.122 3.707 0 2.1 1.662 3.25 3.743 3.25 1.424 0 2.666-.64 3.707-1.863l.894 1.06c.438.529 1.041.693 1.735.693h1.278v-.84h-1.15zm-5.241-11.247c1.132 0 1.918.785 1.918 1.862 0 1.242-.859 2.136-2.867 3.013-.931-1.114-1.315-1.753-1.315-2.757 0-1.224.932-2.118 2.264-2.118zm-1.205 11.357c-1.606 0-2.811-.913-2.811-2.484 0-1.332.748-2.154 2.647-3.067l.274.31 3.031 3.58c-.858 1.076-1.936 1.66-3.141 1.66zm15.09-1.424c0 1.478.602 2.154 2.172 2.154h1.352v-.858h-1.279c-.967 0-1.314-.365-1.314-1.315V67.49h2.501v-.858h-2.501v-2.593h-.931v2.593h-1.753v.858h1.753v6.245zm8.745 2.264c2.611 0 4.455-1.936 4.455-4.748 0-2.793-1.844-4.729-4.455-4.729-2.611 0-4.437 1.936-4.437 4.73 0 2.811 1.826 4.746 4.437 4.746zm0-.84c-2.063 0-3.487-1.607-3.487-3.908 0-2.282 1.424-3.907 3.487-3.907s3.487 1.625 3.487 3.907c0 2.3-1.424 3.908-3.487 3.908zm10.395.84c2.611 0 4.455-1.936 4.455-4.748 0-2.793-1.844-4.729-4.455-4.729-2.611 0-4.437 1.936-4.437 4.73 0 2.811 1.826 4.746 4.437 4.746zm0-.84c-2.063 0-3.487-1.607-3.487-3.908 0-2.282 1.424-3.907 3.487-3.907s3.488 1.625 3.488 3.907c0 2.3-1.425 3.908-3.488 3.908zm6.305.73h.932V63.107h-.932v12.781zm2.701-2.848c.073 1.917 1.625 2.957 3.944 2.957 1.99 0 3.597-1.004 3.597-2.647 0-1.954-1.717-2.337-3.707-2.61-1.442-.202-2.72-.366-2.72-1.662 0-1.06 1.04-1.753 2.611-1.753 1.479 0 2.538.712 2.702 1.917h.949c-.164-1.808-1.643-2.72-3.651-2.72-2.064-.019-3.543 1.04-3.543 2.629 0 1.862 1.717 2.209 3.616 2.465 1.552.219 2.812.42 2.812 1.789 0 1.095-1.151 1.79-2.666 1.79-1.771 0-2.922-.822-2.995-2.155h-.949zm14.932.694c0 1.478.603 2.154 2.173 2.154h1.351v-.858h-1.278c-.967 0-1.314-.365-1.314-1.315V67.49h2.501v-.858h-2.501v-2.593h-.932v2.593h-1.752v.858h1.752v6.245zm8.746 2.264c2.611 0 4.455-1.936 4.455-4.748 0-2.793-1.844-4.729-4.455-4.729-2.611 0-4.437 1.936-4.437 4.73 0 2.811 1.826 4.746 4.437 4.746zm0-.84c-2.064 0-3.488-1.607-3.488-3.908 0-2.282 1.424-3.907 3.488-3.907 2.063 0 3.487 1.625 3.487 3.907 0 2.3-1.424 3.908-3.487 3.908zm15.499-8.637c-1.735 0-2.812.968-3.342 2.3v-5.714h-.931v12.781h.931v-4.565c0-2.41 1.224-3.944 3.196-3.944 1.771 0 2.866 1.169 2.866 3.36v5.149h.932v-5.186c0-2.92-1.552-4.18-3.652-4.18zm9.678 9.477c2.026 0 3.578-1.315 3.98-3.178h-.95c-.365 1.443-1.588 2.338-3.104 2.338-2.063 0-3.359-1.57-3.396-3.725v-.164h7.559c0-.128.019-.274.019-.384-.092-2.757-1.79-4.364-4.273-4.364-2.538 0-4.272 1.936-4.272 4.674 0 2.904 1.807 4.803 4.437 4.803zm-3.397-5.515c.147-1.88 1.552-3.14 3.25-3.14 1.808 0 3.104 1.114 3.25 3.14h-6.5zm9.345 5.405h.931V63.107h-.931v12.781zm7.594-9.367c-1.735 0-2.94.931-3.524 2.228l-.146-2.118h-.803V79.54h.931v-5.788c.529 1.35 1.789 2.246 3.542 2.246 2.538 0 4.364-1.936 4.364-4.748 0-2.903-1.826-4.729-4.364-4.729zm-.073 8.637c-2.063 0-3.487-1.607-3.487-3.926 0-2.264 1.424-3.889 3.487-3.889s3.487 1.625 3.487 3.907c0 2.3-1.424 3.908-3.487 3.908zm13.977.73l-.603 1.497c-.42 1.023-.584 1.296-1.534 1.296h-1.168v.859h1.424c1.242 0 1.534-.475 2.118-1.936l4.437-10.973h-1.004l-3.159 8.052-3.214-8.052h-1.004l3.707 9.257zm9.623.11c2.611 0 4.456-1.936 4.456-4.748 0-2.793-1.845-4.729-4.456-4.729-2.611 0-4.436 1.936-4.436 4.73 0 2.811 1.825 4.746 4.436 4.746zm0-.84c-2.063 0-3.487-1.607-3.487-3.908 0-2.282 1.424-3.907 3.487-3.907 2.064 0 3.488 1.625 3.488 3.907 0 2.3-1.424 3.908-3.488 3.908zm13.025-3.98c0 2.428-1.205 3.961-3.122 3.961-1.717 0-2.776-1.168-2.776-3.377V66.63h-.931v5.185c0 2.903 1.516 4.181 3.561 4.181 1.643 0 2.72-.876 3.25-2.063l.127 1.954h.822v-9.257h-.931v4.546zm14.764 0c0 2.428-1.205 3.961-3.123 3.961-1.716 0-2.775-1.168-2.775-3.377V66.63h-.931v5.185c0 2.903 1.515 4.181 3.56 4.181 1.644 0 2.721-.876 3.25-2.063l.128 1.954h.822v-9.257h-.931v4.546zm7.396-4.657c-1.699 0-2.794.877-3.324 2.082l-.146-1.972h-.803v9.257h.931v-4.565c0-2.41 1.224-3.944 3.195-3.944 1.79 0 2.867 1.169 2.867 3.36v5.149h.931v-5.186c0-2.92-1.552-4.18-3.651-4.18zm9.492.11c-1.717 0-2.447.822-2.83 1.844l-.146-1.844h-.804v9.257h.931v-4.693c0-1.88.493-3.67 2.666-3.67h.676v-.894h-.493zm9.624 8.399c-.548 0-.822-.183-.822-.895v-4.309c0-2.118-1.296-3.305-3.615-3.305-2.118 0-3.524 1.023-3.762 2.703h.932c.237-1.132 1.223-1.881 2.793-1.881 1.735 0 2.721.913 2.721 2.447v.803h-3.141c-2.373 0-3.651 1.022-3.651 2.757 0 1.643 1.296 2.648 3.268 2.648 1.88 0 2.994-.859 3.56-2.009v.329c-.036 1.095.42 1.57 1.516 1.57h.547v-.858h-.346zm-1.753-2.885c0 1.771-1.26 3.05-3.451 3.05-1.479 0-2.392-.75-2.392-1.9 0-1.223.913-1.899 2.629-1.899h3.214v.749zm5.726 3.743h1.113l3.616-9.257h-.968l-3.177 8.18-3.195-8.18h-1.005l3.616 9.257zm9.697.11c2.026 0 3.578-1.315 3.98-3.178h-.949c-.365 1.443-1.589 2.338-3.104 2.338-2.063 0-3.36-1.57-3.396-3.725v-.164h7.559c0-.128.018-.274.018-.384-.091-2.757-1.789-4.364-4.273-4.364-2.538 0-4.272 1.936-4.272 4.674 0 2.904 1.808 4.803 4.437 4.803zm-3.396-5.515c.146-1.88 1.552-3.14 3.25-3.14 1.807 0 3.104 1.114 3.25 3.14h-6.5zm9.344 5.405h.932V63.107h-.932v12.781zm8.517-11.21a.643.643 0 00.657-.658.643.643 0 00-.657-.657.643.643 0 00-.657.657c0 .383.292.657.657.657zm-.475 11.21h.931v-9.257h-.931v9.257zm3.814-2.154c0 1.478.603 2.154 2.173 2.154h1.351v-.858h-1.278c-.968 0-1.315-.365-1.315-1.315V67.49h2.502v-.858h-2.502v-2.593h-.931v2.593h-1.753v.858h1.753v6.245zm4.867 1.551c0 .42.292.694.694.694.402 0 .694-.274.694-.694 0-.42-.292-.675-.694-.675-.402 0-.694.255-.694.675zM351.644 42.016c2.567 0 4.272-1.43 4.664-3.704h-2.234c-.255 1.156-1.117 1.901-2.411 1.901-1.705 0-2.822-1.352-2.822-3.312 0-1.979 1.117-3.35 2.822-3.35 1.313 0 2.156.724 2.43 1.9h2.215c-.412-2.273-2.019-3.704-4.605-3.704-3.038 0-5.037 2.058-5.037 5.154 0 3.136 1.94 5.115 4.978 5.115zm15.455-1.96c-.432 0-.647-.137-.647-.646v-4.018c0-2.37-1.529-3.645-4.194-3.645-2.528 0-4.213 1.215-4.428 3.175h2.077c.157-.882.999-1.47 2.253-1.47 1.392 0 2.195.686 2.195 1.803v.608h-2.528c-2.802 0-4.291 1.156-4.291 3.214 0 1.861 1.528 2.939 3.723 2.939 1.626 0 2.645-.706 3.312-1.724 0 .999.47 1.606 1.842 1.606h1.117v-1.842h-.431zm-2.744-2.273c-.019 1.548-1.038 2.587-2.802 2.587-1.156 0-1.862-.588-1.862-1.43 0-1.02.725-1.51 2.038-1.51h2.626v.353zm9.619-6.036c-1.627 0-2.587.647-3.214 1.431l-.235-1.313h-1.842v10.033h2.116v-5.056c0-2.038.999-3.272 2.685-3.272 1.587 0 2.39 1.019 2.39 2.92v5.408h2.136v-5.585c0-3.35-1.822-4.566-4.036-4.566zm16.344 0c-1.548 0-2.586.706-3.253 1.607v-5.173h-2.116v13.717h1.842l.255-1.45c.627.902 1.705 1.568 3.272 1.568 2.744 0 4.743-2.058 4.743-5.134 0-3.234-1.999-5.134-4.743-5.134zm-.352 8.486c-1.764 0-2.92-1.392-2.92-3.37 0-1.94 1.156-3.313 2.92-3.313 1.763 0 2.939 1.372 2.939 3.332 0 1.979-1.176 3.35-2.939 3.35zm11.552 1.783c2.489 0 4.174-1.509 4.527-3.488h-2.116c-.294 1.117-1.235 1.764-2.528 1.764-1.666 0-2.744-1.117-2.802-2.822v-.138h7.564c.039-.274.058-.548.058-.803-.058-2.94-1.998-4.782-4.899-4.782-2.959 0-4.938 2.058-4.938 5.154 0 3.077 1.979 5.115 5.134 5.115zm-2.841-6.232c.157-1.43 1.313-2.332 2.665-2.332 1.47 0 2.508.843 2.685 2.332h-5.35zm23.44 4.272c-.431 0-.646-.137-.646-.646v-4.018c0-2.37-1.529-3.645-4.194-3.645-2.528 0-4.213 1.215-4.429 3.175h2.078c.156-.882.999-1.47 2.253-1.47 1.392 0 2.195.686 2.195 1.803v.608h-2.528c-2.802 0-4.292 1.156-4.292 3.214 0 1.861 1.529 2.939 3.724 2.939 1.626 0 2.645-.706 3.312-1.724 0 .999.47 1.606 1.842 1.606h1.117v-1.842h-.432zm-2.743-2.273c-.02 1.548-1.039 2.587-2.802 2.587-1.156 0-1.862-.588-1.862-1.43 0-1.02.725-1.51 2.038-1.51h2.626v.353zm14.711-6.036c-1.568 0-2.607.726-3.273 1.607l-.255-1.489h-1.842v13.953h2.117v-5.33c.627.9 1.705 1.528 3.253 1.528 2.743 0 4.742-2.038 4.742-5.134 0-3.214-1.999-5.134-4.742-5.134zm-.353 8.486c-1.764 0-2.92-1.392-2.92-3.39 0-1.94 1.156-3.293 2.92-3.293s2.939 1.353 2.939 3.332c0 1.96-1.175 3.35-2.939 3.35zm13.669-3.351c0 2.077-.98 3.292-2.587 3.292-1.548 0-2.332-1-2.332-2.96v-5.349h-2.116v5.585c0 3.43 1.822 4.566 3.958 4.566 1.549 0 2.47-.627 3.097-1.391l.235 1.273h1.861V31.865h-2.116v5.017zm3.83-3.155h5.369l-5.604 6.662v1.51h8.7v-1.862h-5.859l5.605-6.663v-1.509h-8.211v1.862zm9.568 0h5.37l-5.605 6.662v1.51h8.701v-1.862h-5.859l5.604-6.663v-1.509h-8.211v1.862zm9.941 8.171h2.116V28.181h-2.116v13.717zm8.953.118c2.489 0 4.174-1.509 4.527-3.488h-2.117c-.294 1.117-1.234 1.764-2.528 1.764-1.665 0-2.743-1.117-2.802-2.822v-.138h7.564c.039-.274.059-.548.059-.803-.059-2.94-1.999-4.782-4.899-4.782-2.959 0-4.938 2.058-4.938 5.154 0 3.077 1.979 5.115 5.134 5.115zm-2.841-6.232c.156-1.43 1.312-2.332 2.665-2.332 1.469 0 2.508.843 2.684 2.332h-5.349zm14.994 3.39c0 1.823.823 2.724 2.744 2.724h1.959v-1.861h-1.489c-.804 0-1.078-.294-1.078-1.078v-5.232h2.45v-1.862h-2.45v-2.802h-2.136v2.802h-1.744v1.862h1.744v5.448zm10.581 2.842c3.057 0 5.115-2.058 5.115-5.134 0-3.057-2.058-5.134-5.115-5.134-3.057 0-5.114 2.077-5.114 5.134 0 3.076 2.057 5.134 5.114 5.134zm0-1.803c-1.783 0-2.939-1.391-2.939-3.331s1.156-3.332 2.939-3.332c1.784 0 2.959 1.392 2.959 3.332s-1.175 3.331-2.959 3.331zm12.556-1.038c0 1.822.823 2.723 2.743 2.723h1.96v-1.861h-1.49c-.803 0-1.077-.294-1.077-1.078v-5.232h2.449v-1.862h-2.449v-2.802h-2.136v2.802h-1.744v1.862h1.744v5.448zm11.125-7.31c-1.647 0-2.45.666-2.96 1.509l-.235-1.509h-1.881v10.033h2.116v-5.036c0-1.548.608-3.018 2.489-3.018h.941v-1.979h-.47zm10.64 8.191c-.431 0-.647-.137-.647-.646v-4.018c0-2.37-1.528-3.645-4.193-3.645-2.528 0-4.214 1.215-4.429 3.175h2.077c.157-.882 1-1.47 2.254-1.47 1.391 0 2.194.686 2.194 1.803v.608h-2.527c-2.803 0-4.292 1.156-4.292 3.214 0 1.861 1.529 2.939 3.723 2.939 1.627 0 2.646-.706 3.312-1.724 0 .999.47 1.606 1.842 1.606h1.117v-1.842h-.431zm-2.744-2.273c-.019 1.548-1.038 2.587-2.802 2.587-1.156 0-1.861-.588-1.861-1.43 0-1.02.725-1.51 2.038-1.51h2.625v.353zm11.874-4.527c-.646-.881-1.724-1.509-3.253-1.509-2.724 0-4.742 2.038-4.742 5.135 0 3.214 2.018 5.134 4.742 5.134 1.588 0 2.626-.745 3.273-1.627l.255 1.51h1.842V28.18h-2.117v5.075zm-2.9 6.977c-1.764 0-2.92-1.372-2.92-3.351 0-1.96 1.156-3.332 2.92-3.332s2.92 1.372 2.92 3.37c0 1.94-1.156 3.313-2.92 3.313zm11.847 1.783c2.489 0 4.174-1.509 4.527-3.488h-2.117c-.294 1.117-1.234 1.764-2.528 1.764-1.665 0-2.743-1.117-2.802-2.822v-.138h7.564c.039-.274.059-.548.059-.803-.059-2.94-1.999-4.782-4.899-4.782-2.959 0-4.938 2.058-4.938 5.154 0 3.077 1.979 5.115 5.134 5.115zm-2.842-6.232c.157-1.43 1.313-2.332 2.665-2.332 1.47 0 2.509.843 2.685 2.332h-5.35zm8.448 4.9c0 .783.568 1.332 1.352 1.332.784 0 1.371-.549 1.371-1.333 0-.783-.587-1.332-1.371-1.332s-1.352.549-1.352 1.332z" fill="#000"/><path d="M2.606 28.807c0 8.644 4.083 13.292 11.945 13.292 7.905 0 12.032-4.648 12.032-13.292V11.433h-4.995v17.635c0 5.646-2.172 8.6-7.037 8.6-4.778 0-6.95-2.954-6.95-8.6V11.433H2.606v17.374zm28.141 3.04C30.921 37.93 35.482 42.1 43.04 42.1c6.69 0 11.25-3.78 11.25-9.252.044-5.994-4.864-7.602-9.903-8.514-4.778-.825-7.905-1.476-7.905-4.604 0-2.867 2.389-4.343 5.82-4.343 3.692 0 6.124 2.084 6.515 5.168h4.995c-.217-5.603-4.56-9.382-11.51-9.382-6.472 0-10.816 3.605-10.816 8.905 0 6.037 4.778 7.644 9.817 8.513 4.821.869 7.992 1.564 7.992 4.778 0 2.91-2.606 4.517-6.211 4.517-4.257 0-7.037-2.389-7.297-5.95l-5.039-.087zM70.93 35.8c0 4.04 1.825 6.038 6.081 6.038h4.344V37.71h-3.301c-1.781 0-2.39-.651-2.39-2.389V23.725h5.43V19.6h-5.43v-6.212H70.93V19.6h-3.866v4.126h3.866V35.8zM94.426 42.1c5.517 0 9.252-3.345 10.034-7.732h-4.691c-.652 2.476-2.737 3.91-5.603 3.91-3.692 0-6.081-2.477-6.212-6.256v-.304h16.767c.086-.608.13-1.216.13-1.78-.13-6.516-4.431-10.599-10.86-10.599-6.558 0-10.945 4.56-10.945 11.424 0 6.82 4.387 11.337 11.38 11.337zm-6.298-13.813c.348-3.17 2.91-5.169 5.907-5.169 3.258 0 5.56 1.868 5.951 5.169H88.128zm30.723 13.813c5.69 0 9.469-3.171 10.337-8.21h-4.951c-.565 2.563-2.476 4.213-5.343 4.213-3.779 0-6.255-2.997-6.255-7.34 0-4.387 2.476-7.428 6.255-7.428 2.91 0 4.778 1.607 5.386 4.213h4.908c-.912-5.038-4.473-8.209-10.207-8.209-6.732 0-11.163 4.56-11.163 11.424 0 6.95 4.3 11.337 11.033 11.337zm25.612-22.76c-3.475 0-5.603 1.563-6.993 3.474v-11.38h-4.691v30.405h4.691v-11.25c0-4.474 2.259-7.21 5.951-7.21 3.475 0 5.342 2.258 5.342 6.472v11.988h4.691v-12.38c0-7.427-4.039-10.12-8.991-10.12zm34.926 22.76c5.516 0 9.252-3.345 10.034-7.732h-4.691c-.652 2.476-2.737 3.91-5.604 3.91-3.692 0-6.081-2.477-6.211-6.256v-.304h16.766c.087-.608.131-1.216.131-1.78-.131-6.516-4.431-10.599-10.859-10.599-6.559 0-10.946 4.56-10.946 11.424 0 6.82 4.387 11.337 11.38 11.337zm-6.298-13.813c.347-3.17 2.91-5.169 5.907-5.169 3.258 0 5.56 1.868 5.951 5.169h-11.858zm40.843 9.469c-.956 0-1.433-.304-1.433-1.433v-8.905c0-5.256-3.388-8.079-9.296-8.079-5.603 0-9.338 2.693-9.816 7.037h4.604c.348-1.955 2.215-3.258 4.995-3.258 3.084 0 4.865 1.52 4.865 3.996v1.347h-5.603c-6.212 0-9.513 2.562-9.513 7.123 0 4.127 3.388 6.516 8.253 6.516 3.605 0 5.864-1.564 7.341-3.823 0 2.215 1.042 3.562 4.083 3.562h2.476v-4.083h-.956zm-6.081-5.039c-.043 3.432-2.302 5.734-6.211 5.734-2.563 0-4.127-1.303-4.127-3.17 0-2.26 1.607-3.345 4.518-3.345h5.82v.781zM228.695 19.6c-3.649 0-5.43 1.477-6.559 3.344l-.521-3.344h-4.17v22.239h4.691V30.675c0-3.431 1.346-6.69 5.516-6.69h2.085V19.6h-1.042zm15.663-.26c-3.605 0-5.734 1.433-7.123 3.17l-.522-2.91h-4.083v22.239h4.691V30.63c0-4.517 2.216-7.253 5.951-7.253 3.518 0 5.299 2.258 5.299 6.472v11.988h4.735v-12.38c0-7.427-4.04-10.12-8.948-10.12zm15.603-2.868c1.607 0 2.867-1.172 2.867-2.823 0-1.65-1.26-2.823-2.867-2.823s-2.867 1.173-2.867 2.823 1.26 2.823 2.867 2.823zm-2.389 25.367h4.691v-22.24h-4.691v22.24zm21.017-22.5c-3.605 0-5.733 1.434-7.123 3.171l-.522-2.91h-4.083v22.239h4.692V30.63c0-4.517 2.215-7.253 5.95-7.253 3.519 0 5.299 2.258 5.299 6.472v11.988h4.735v-12.38c0-7.427-4.04-10.12-8.948-10.12zm30.197 3.736c-1.433-2.216-3.822-3.736-7.297-3.736-6.037 0-10.511 4.474-10.511 11.293 0 7.08 4.474 11.294 10.511 11.294 3.475 0 5.777-1.434 7.254-3.649v2.476c0 4.257-2.302 6.211-6.385 6.211-3.301 0-5.473-1.433-6.038-3.909h-4.778c.435 4.995 4.561 7.732 10.468 7.732 7.993 0 11.381-3.823 11.381-9.86V19.599h-4.083l-.522 3.475zm-6.515 14.898c-3.909 0-6.472-2.997-6.472-7.34 0-4.3 2.563-7.341 6.472-7.341 3.909 0 6.472 3.04 6.472 7.427 0 4.257-2.563 7.254-6.472 7.254zm14.748-3.475c.131 4.822 4.214 7.602 10.164 7.602 5.386 0 9.426-2.693 9.426-6.95 0-4.952-4.127-5.994-9.209-6.602-3.214-.348-5.342-.608-5.342-2.694 0-1.78 1.824-2.91 4.604-2.91 2.78 0 4.691 1.434 4.952 3.475h4.604c-.304-4.56-4.17-7.08-9.643-7.08-5.342-.043-9.121 2.693-9.121 6.906 0 4.605 3.996 5.69 9.078 6.299 3.431.434 5.473.608 5.473 2.997 0 1.78-1.912 2.91-4.822 2.91-3.388 0-5.386-1.65-5.56-3.953h-4.604z" fill="url(#paint0_linear_19_18749)"/><defs><linearGradient id="paint0_linear_19_18749" x1="347" y1="25.362" x2="0" y2="25.362" gradientUnits="userSpaceOnUse"><stop stop-color="#FF4343"/><stop offset=".5" stop-color="#9C0B93"/><stop offset="1" stop-color="#4C1BB7"/></linearGradient></defs></svg>