<svg width="128" height="19" viewBox="0 0 128 19" fill="none" xmlns="http://www.w3.org/2000/svg"><path d="M35.62 9.443c0-.182-.003-.362-.01-.54h2.166l.575-1.65h-2.917C34.634 2.74 31.284 0 26.223 0c-5.69 0-9.369 3.754-9.369 9.557 0 5.86 3.564 9.471 9.369 9.443 4.731 0 8.09-2.578 9.088-6.798h1.977l.603-1.65h-2.317c.03-.36.046-.73.047-1.109zm-9.282 6.941c-2.932 0-4.081-3.074-4.081-6.884 0-3.81.92-6.855 3.88-6.883 2.328 0 3.532 1.921 3.93 4.636h-2.52l-.576 1.65h3.238a21.456 21.456 0 01-.015 1.65h-3.109l-.603 1.65h3.545c-.399 2.471-1.47 4.18-3.69 4.18v.001zM.76.427h14.657v4.408h-9.57v3.072h8.65v4.181h-8.65v6.457H.76V.427zm39.229 0v18.118h5.087v-5.49h2.242l3.678 5.49h5.863l-4.368-6.315c2.27-.967 3.764-2.816 3.764-5.575V6.6c0-1.764-.546-3.186-1.61-4.21C53.41 1.166 51.456.427 48.668.427H39.99zm5.087 8.704V4.75h3.334c1.724 0 2.758.74 2.758 2.16v.057c0 1.337-1.005 2.161-2.729 2.161l-3.363.003zm13.766 9.414H73.7v-4.268h-9.829v-2.871h8.794V7.452H63.87V4.693h9.715V.427H58.843v18.118zm16.525 0h5.72l3.534-5.461 3.506 5.46h5.834l-6.294-9.272L93.674.427h-5.69l-3.275 5.091-3.25-5.09h-5.833l6.035 8.901-6.294 9.216zm23.566-8.589a3.655 3.655 0 001.121 2.678 3.758 3.758 0 002.73 1.05c1.61 0 2.558-.655 3.248-1.65l-1.724-1.224c-.403.456-.805.74-1.409.74-.862 0-1.465-.711-1.465-1.65v-.028c0-.882.603-1.594 1.436-1.594.274 0 .542.072.779.207.237.134.434.328.572.562l1.753-1.28a3.502 3.502 0 00-1.345-1.228 3.547 3.547 0 00-1.787-.393 3.845 3.845 0 00-2.773 1.084 3.739 3.739 0 00-1.136 2.728m7.76 0c0 2.047 1.696 3.754 4.023 3.754 2.357 0 4.053-1.735 4.053-3.783v-.027c0-2.048-1.696-3.755-4.024-3.755-2.356 0-4.052 1.736-4.052 3.812m5.575 0c0 .853-.575 1.593-1.523 1.593a1.595 1.595 0 01-1.119-.488 1.566 1.566 0 01-.433-1.132v-.027a1.505 1.505 0 01.418-1.119 1.543 1.543 0 011.105-.475 1.6 1.6 0 011.128.502 1.58 1.58 0 01.424 1.148m3.736-3.669v7.218h2.558V9.585c0-.768.431-1.194 1.035-1.194.604 0 1.006.398 1.006 1.194v3.925h2.529V9.585c0-.768.46-1.194 1.064-1.194.605 0 1.006.398 1.006 1.194v3.954h2.558v-4.75c0-1.678-.949-2.645-2.5-2.645a3.121 3.121 0 00-1.358.304 3.09 3.09 0 00-1.085.862c-.374-.74-1.121-1.166-2.098-1.166-.43.002-.852.106-1.232.304s-.707.484-.951.834v-.996h-2.532v.006zM95.37 12.174a1.104 1.104 0 00.402.938 1.398 1.398 0 001.897 0 1.326 1.326 0 00.408-.943 1.316 1.316 0 00-.393-.949 1.342 1.342 0 00-.959-.389 1.354 1.354 0 00-.953.404 1.33 1.33 0 00-.402.939z" fill="#fff"/></svg>