<svg width="245" height="11" viewBox="0 0 245 11" fill="none" xmlns="http://www.w3.org/2000/svg"><path d="M3.63 8.06c1.4 0 2.23-.77 2.53-1.61L6.19 8h.47V4.35H3.84v.5h2.3v.3c0 1.37-.95 2.41-2.5 2.41-1.57 0-2.61-1.26-2.61-3.06 0-1.79 1.04-3.06 2.66-3.06 1.18 0 2 .61 2.29 1.71h.58C6.27 1.75 5.18.94 3.71.94 1.73.94.47 2.4.47 4.5c0 2.11 1.29 3.56 3.16 3.56zm6.603 0c1.11 0 1.96-.72 2.18-1.74h-.52c-.2.79-.87 1.28-1.7 1.28-1.13 0-1.84-.86-1.86-2.04v-.09h4.14c0-.07.01-.15.01-.21-.05-1.51-.98-2.39-2.34-2.39-1.39 0-2.34 1.06-2.34 2.56 0 1.59.99 2.63 2.43 2.63zm-1.86-3.02c.08-1.03.85-1.72 1.78-1.72.99 0 1.7.61 1.78 1.72h-3.56zm5.42 1.78c0 .81.33 1.18 1.19 1.18h.74v-.47h-.7c-.53 0-.72-.2-.72-.72V3.4h1.37v-.47h-1.37V1.51h-.51v1.42h-.96v.47h.96v3.42zm5.78 0c0 .81.33 1.18 1.19 1.18h.74v-.47h-.7c-.53 0-.72-.2-.72-.72V3.4h1.37v-.47h-1.37V1.51h-.51v1.42h-.96v.47h.96v3.42zm2.967-4.96c.2 0 .36-.15.36-.36s-.16-.36-.36-.36c-.2 0-.36.15-.36.36s.16.36.36.36zM22.28 8h.51V2.93h-.51V8zm5.839-3.89c-.31-.75-.99-1.24-1.93-1.24-1.39 0-2.39 1.05-2.39 2.59 0 1.6 1 2.6 2.39 2.6.95 0 1.62-.5 1.94-1.29v.9c0 1.35-.64 1.93-1.86 1.93-.95 0-1.61-.43-1.77-1.2h-.53c.16 1.08 1.03 1.66 2.26 1.66 1.64 0 2.41-.78 2.41-2.37V2.93h-.44l-.08 1.18zm-1.89 3.49c-1.13 0-1.91-.88-1.91-2.14 0-1.26.78-2.14 1.91-2.14s1.91.88 1.91 2.15c0 1.25-.78 2.13-1.91 2.13zm5.95-4.73c-.95 0-1.54.53-1.83 1.26V1h-.51v7h.51V5.5c0-1.32.67-2.16 1.75-2.16.97 0 1.57.64 1.57 1.84V8h.51V5.16c0-1.6-.85-2.29-2-2.29zm3.518 3.95c0 .81.33 1.18 1.19 1.18h.74v-.47h-.7c-.53 0-.72-.2-.72-.72V3.4h1.37v-.47h-1.37V1.51h-.51v1.42h-.96v.47h.96v3.42zm2.935.48c-.27 0-.44.17-.44.39 0 .24.16.36.35.36.1 0 .2-.04.25-.12.07.07.09.17.09.26 0 .38-.24.77-.75.79v.3c.69-.03 1.12-.49 1.12-1.15 0-.46-.26-.83-.62-.83zm5.791.7h.61l1.98-5.07h-.53l-1.74 4.48-1.75-4.48h-.55L44.423 8zm7.551-.47c-.3 0-.45-.1-.45-.49V4.68c0-1.16-.71-1.81-1.98-1.81-1.16 0-1.93.56-2.06 1.48h.51c.13-.62.67-1.03 1.53-1.03.95 0 1.49.5 1.49 1.34v.44h-1.72c-1.3 0-2 .56-2 1.51 0 .9.71 1.45 1.79 1.45 1.03 0 1.64-.47 1.95-1.1v.18c-.02.6.23.86.83.86h.3v-.47h-.19zm-.96-1.58c0 .97-.69 1.67-1.89 1.67-.81 0-1.31-.41-1.31-1.04 0-.67.5-1.04 1.44-1.04h1.76v.41zm3.902-3.02c-.94 0-1.34.45-1.55 1.01l-.08-1.01h-.44V8h.51V5.43c0-1.03.27-2.01 1.46-2.01h.37v-.49h-.27zm1.286-1.07c.2 0 .36-.15.36-.36s-.16-.36-.36-.36c-.2 0-.36.15-.36.36s.16.36.36.36zM55.942 8h.51V2.93h-.51V8zm6.169-.47c-.3 0-.45-.1-.45-.49V4.68c0-1.16-.71-1.81-1.98-1.81-1.16 0-1.93.56-2.06 1.48h.51c.13-.62.67-1.03 1.53-1.03.95 0 1.49.5 1.49 1.34v.44h-1.72c-1.3 0-2 .56-2 1.51 0 .9.71 1.45 1.79 1.45 1.03 0 1.64-.47 1.95-1.1v.18c-.02.6.23.86.83.86h.3v-.47h-.19zm-.96-1.58c0 .97-.69 1.67-1.89 1.67-.81 0-1.31-.41-1.31-1.04 0-.67.5-1.04 1.44-1.04h1.76v.41zm4.282-3.08c-.95 0-1.62.52-1.94 1.24V1h-.51v7h.44l.08-1.15c.3.73.98 1.21 1.93 1.21 1.39 0 2.39-1.06 2.39-2.6 0-1.59-1-2.59-2.39-2.59zm-.04 4.73c-1.13 0-1.91-.88-1.91-2.15 0-1.24.78-2.13 1.91-2.13s1.91.89 1.91 2.14c0 1.26-.78 2.14-1.91 2.14zm3.44.4h.51V1h-.51v7zm3.948.06c1.11 0 1.96-.72 2.18-1.74h-.52c-.2.79-.87 1.28-1.7 1.28-1.13 0-1.84-.86-1.86-2.04v-.09h4.14c0-.07.01-.15.01-.21-.05-1.51-.98-2.39-2.34-2.39-1.39 0-2.34 1.06-2.34 2.56 0 1.59.99 2.63 2.43 2.63zm-1.86-3.02c.08-1.03.85-1.72 1.78-1.72.99 0 1.7.61 1.78 1.72h-3.56zm7.584 1.4c.04 1.05.89 1.62 2.16 1.62 1.09 0 1.97-.55 1.97-1.45 0-1.07-.94-1.28-2.03-1.43-.79-.11-1.49-.2-1.49-.91 0-.58.57-.96 1.43-.96.81 0 1.39.39 1.48 1.05h.52c-.09-.99-.9-1.49-2-1.49-1.13-.01-1.94.57-1.94 1.44 0 1.02.94 1.21 1.98 1.35.85.12 1.54.23 1.54.98 0 .6-.63.98-1.46.98-.97 0-1.6-.45-1.64-1.18h-.52zm7.553-3.57c-.95 0-1.61.51-1.93 1.22l-.08-1.16h-.44V10h.51V6.83c.29.74.98 1.23 1.94 1.23 1.39 0 2.39-1.06 2.39-2.6 0-1.59-1-2.59-2.39-2.59zm-.04 4.73c-1.13 0-1.91-.88-1.91-2.15 0-1.24.78-2.13 1.91-2.13s1.91.89 1.91 2.14c0 1.26-.78 2.14-1.91 2.14zm5.51-4.67c-.94 0-1.34.45-1.55 1.01l-.08-1.01h-.44V8h.51V5.43c0-1.03.27-2.01 1.46-2.01h.37v-.49h-.27zm2.904 5.13c1.11 0 1.96-.72 2.18-1.74h-.52c-.2.79-.87 1.28-1.7 1.28-1.13 0-1.84-.86-1.86-2.04v-.09h4.14c0-.07.01-.15.01-.21-.05-1.51-.98-2.39-2.34-2.39-1.39 0-2.34 1.06-2.34 2.56 0 1.59.99 2.63 2.43 2.63zm-1.86-3.02c.08-1.03.85-1.72 1.78-1.72.99 0 1.7.61 1.78 1.72h-3.56zm9.578 2.49c-.3 0-.45-.1-.45-.49V4.68c0-1.16-.71-1.81-1.98-1.81-1.16 0-1.93.56-2.06 1.48h.51c.13-.62.67-1.03 1.53-1.03.95 0 1.49.5 1.49 1.34v.44h-1.72c-1.3 0-2 .56-2 1.51 0 .9.71 1.45 1.79 1.45 1.03 0 1.64-.47 1.95-1.1v.18c-.02.6.23.86.83.86h.3v-.47h-.19zm-.96-1.58c0 .97-.69 1.67-1.89 1.67-.81 0-1.31-.41-1.31-1.04 0-.67.5-1.04 1.44-1.04h1.76v.41zm5.894-1.88c-.31-.72-.99-1.2-1.94-1.2-1.39 0-2.39 1.06-2.39 2.59 0 1.6 1 2.6 2.39 2.6.95 0 1.61-.51 1.93-1.22l.08 1.16h.44V1h-.51v3.07zm-1.9 3.53c-1.13 0-1.91-.88-1.91-2.14 0-1.25.78-2.14 1.91-2.14s1.91.89 1.91 2.15c0 1.25-.78 2.13-1.91 2.13zm3.379-1.16c.04 1.05.89 1.62 2.16 1.62 1.09 0 1.97-.55 1.97-1.45 0-1.07-.94-1.28-2.03-1.43-.79-.11-1.49-.2-1.49-.91 0-.58.57-.96 1.43-.96.81 0 1.39.39 1.48 1.05h.52c-.09-.99-.9-1.49-2-1.49-1.13-.01-1.94.57-1.94 1.44 0 1.02.94 1.21 1.98 1.35.85.12 1.54.23 1.54.98 0 .6-.63.98-1.46.98-.97 0-1.6-.45-1.64-1.18h-.52zm10.039 1.62c1.43 0 2.44-1.06 2.44-2.6 0-1.53-1.01-2.59-2.44-2.59s-2.43 1.06-2.43 2.59c0 1.54 1 2.6 2.43 2.6zm0-.46c-1.13 0-1.91-.88-1.91-2.14 0-1.25.78-2.14 1.91-2.14s1.91.89 1.91 2.14c0 1.26-.78 2.14-1.91 2.14zm5.793-4.73c-.93 0-1.53.48-1.82 1.14l-.08-1.08h-.44V8h.51V5.5c0-1.32.67-2.16 1.75-2.16.98 0 1.57.64 1.57 1.84V8h.51V5.16c0-1.6-.85-2.29-2-2.29zm8.064 5.19c1.43 0 2.44-1.06 2.44-2.6 0-1.53-1.01-2.59-2.44-2.59s-2.43 1.06-2.43 2.59c0 1.54 1 2.6 2.43 2.6zm0-.46c-1.13 0-1.91-.88-1.91-2.14 0-1.25.78-2.14 1.91-2.14s1.91.89 1.91 2.14c0 1.26-.78 2.14-1.91 2.14zm7.134-2.18c0 1.33-.66 2.17-1.711 2.17-.939 0-1.519-.64-1.519-1.85V2.93h-.51v2.84c0 1.59.83 2.29 1.95 2.29.9 0 1.49-.48 1.78-1.13l.07 1.07h.45V2.93h-.51v2.49zm3.78-2.49c-.94 0-1.34.45-1.55 1.01l-.08-1.01h-.44V8h.51V5.43c0-1.03.27-2.01 1.46-2.01h.37v-.49h-.27zm7.861 1.14c-.31-.72-.99-1.2-1.94-1.2-1.39 0-2.39 1.06-2.39 2.59 0 1.6 1 2.6 2.39 2.6.95 0 1.61-.51 1.93-1.22l.08 1.16h.44V1h-.51v3.07zm-1.9 3.53c-1.13 0-1.91-.88-1.91-2.14 0-1.25.78-2.14 1.91-2.14s1.91.89 1.91 2.15c0 1.25-.78 2.13-1.91 2.13zm5.85.46c1.11 0 1.96-.72 2.18-1.74h-.52c-.2.79-.87 1.28-1.7 1.28-1.13 0-1.84-.86-1.86-2.04v-.09h4.14c0-.07.01-.15.01-.21-.05-1.51-.98-2.39-2.34-2.39-1.39 0-2.34 1.06-2.34 2.56 0 1.59.99 2.63 2.43 2.63zm-1.86-3.02c.08-1.03.85-1.72 1.78-1.72.99 0 1.7.61 1.78 1.72h-3.56zm9.258-.97c-.31-.72-.99-1.2-1.94-1.2-1.39 0-2.39 1.06-2.39 2.59 0 1.6 1 2.6 2.39 2.6.95 0 1.61-.51 1.93-1.22l.08 1.16h.44V1h-.51v3.07zm-1.9 3.53c-1.13 0-1.91-.88-1.91-2.14 0-1.25.78-2.14 1.91-2.14s1.91.89 1.91 2.15c0 1.25-.78 2.13-1.91 2.13zm3.869-5.74c.2 0 .36-.15.36-.36s-.16-.36-.36-.36c-.2 0-.36.15-.36.36s.16.36.36.36zm-.26 6.14h.51V2.93h-.51V8zm3.919.06c1.15 0 1.96-.66 2.16-1.69h-.54c-.17.75-.78 1.23-1.62 1.23-1.11 0-1.88-.87-1.88-2.13 0-1.26.76-2.15 1.88-2.15.85 0 1.45.48 1.63 1.24h.53c-.21-1.05-1-1.69-2.15-1.69-1.43 0-2.41 1.06-2.41 2.6 0 1.56.97 2.59 2.4 2.59zm7.612-.53c-.3 0-.45-.1-.45-.49V4.68c0-1.16-.71-1.81-1.98-1.81-1.16 0-1.93.56-2.06 1.48h.51c.13-.62.67-1.03 1.53-1.03.95 0 1.49.5 1.49 1.34v.44h-1.72c-1.3 0-2 .56-2 1.51 0 .9.71 1.45 1.79 1.45 1.03 0 1.64-.47 1.95-1.1v.18c-.02.6.23.86.83.86h.3v-.47h-.19zm-.96-1.58c0 .97-.69 1.67-1.89 1.67-.81 0-1.31-.41-1.31-1.04 0-.67.5-1.04 1.44-1.04h1.76v.41zm2.212.87c0 .81.33 1.18 1.19 1.18h.74v-.47h-.7c-.53 0-.72-.2-.72-.72V3.4h1.37v-.47h-1.37V1.51h-.51v1.42h-.96v.47h.96v3.42zm4.789 1.24c1.11 0 1.96-.72 2.18-1.74h-.52c-.2.79-.87 1.28-1.7 1.28-1.13 0-1.84-.86-1.86-2.04v-.09h4.14c0-.07.01-.15.01-.21-.05-1.51-.98-2.39-2.34-2.39-1.39 0-2.34 1.06-2.34 2.56 0 1.59.99 2.63 2.43 2.63zm-1.86-3.02c.08-1.03.85-1.72 1.78-1.72.99 0 1.7.61 1.78 1.72h-3.56zm9.258-.97c-.31-.72-.99-1.2-1.94-1.2-1.39 0-2.39 1.06-2.39 2.59 0 1.6 1 2.6 2.39 2.6.95 0 1.61-.51 1.93-1.22l.08 1.16h.44V1h-.51v3.07zm-1.9 3.53c-1.13 0-1.91-.88-1.91-2.14 0-1.25.78-2.14 1.91-2.14s1.91.89 1.91 2.15c0 1.25-.78 2.13-1.91 2.13zm6.425.4h.54V4.77h3.02v-.5h-3.02V1.5h3.62V1h-4.16v7zm4.578 0h.63l2.14-3.17 2.16 3.17h.64l-2.44-3.62 2.29-3.38h-.63l-2 2.98-2-2.98h-.64l2.3 3.42-2.45 3.58zm11.502-5.13c-.95 0-1.61.51-1.93 1.22l-.08-1.16h-.44V10h.51V6.83c.29.74.98 1.23 1.94 1.23 1.39 0 2.39-1.06 2.39-2.6 0-1.59-1-2.59-2.39-2.59zm-.04 4.73c-1.13 0-1.91-.88-1.91-2.15 0-1.24.78-2.13 1.91-2.13s1.91.89 1.91 2.14c0 1.26-.78 2.14-1.91 2.14zm3.44.4h.51V1h-.51v7zm6.169-.47c-.3 0-.45-.1-.45-.49V4.68c0-1.16-.71-1.81-1.98-1.81-1.16 0-1.93.56-2.06 1.48h.51c.13-.62.67-1.03 1.53-1.03.95 0 1.49.5 1.49 1.34v.44h-1.72c-1.3 0-2 .56-2 1.51 0 .9.71 1.45 1.79 1.45 1.03 0 1.64-.47 1.95-1.1v.18c-.02.6.23.86.83.86h.3v-.47h-.19zm-.96-1.58c0 .97-.69 1.67-1.89 1.67-.81 0-1.31-.41-1.31-1.04 0-.67.5-1.04 1.44-1.04h1.76v.41zm2.212.87c0 .81.33 1.18 1.19 1.18h.74v-.47h-.7c-.53 0-.72-.2-.72-.72V3.4h1.37v-.47h-1.37V1.51h-.51v1.42h-.96v.47h.96v3.42zm2.185-3.42h.96V8h.51V3.4h1.52v-.47h-1.52v-.76c0-.5.19-.7.7-.7h.83V1h-.85c-.85 0-1.19.37-1.19 1.18v.75h-.96v.47zm5.583 4.66c1.43 0 2.44-1.06 2.44-2.6 0-1.53-1.01-2.59-2.44-2.59s-2.43 1.06-2.43 2.59c0 1.54 1 2.6 2.43 2.6zm0-.46c-1.13 0-1.91-.88-1.91-2.14 0-1.25.78-2.14 1.91-2.14s1.91.89 1.91 2.14c0 1.26-.78 2.14-1.91 2.14zm5.524-4.67c-.94 0-1.34.45-1.55 1.01l-.08-1.01h-.44V8h.51V5.43c0-1.03.27-2.01 1.46-2.01h.37v-.49h-.27zm6.685-.06c-.93 0-1.53.52-1.82 1.27-.24-.84-.87-1.27-1.67-1.27-.87 0-1.39.51-1.65 1.14l-.08-1.08h-.44V8h.51V5.42c0-1.24.6-2.08 1.57-2.08.88 0 1.43.62 1.43 1.79V8h.51V5.24c.03-1.16.63-1.9 1.58-1.9.88 0 1.41.59 1.41 1.74V8h.52V5.06c0-1.53-.81-2.19-1.87-2.19zm2.942 4.8c0 .23.16.38.38.38s.38-.15.38-.38-.16-.37-.38-.37-.38.14-.38.37z" fill="#000"/></svg>