<svg width="88" height="23" viewBox="0 0 88 23" fill="none" xmlns="http://www.w3.org/2000/svg"><rect width="88" height="23" rx="11.5" fill="#000"/><path d="M21.214 15v-.88h-3.509V7.3h-.957V15h4.466zm3.122.066c1.298 0 2.222-.825 2.442-1.947h-.913c-.187.726-.803 1.144-1.595 1.144-1.067 0-1.738-.748-1.771-1.815v-.077h4.356c.01-.132.022-.264.022-.385-.044-1.661-1.078-2.662-2.662-2.662-1.584 0-2.662 1.166-2.662 2.871 0 1.716 1.1 2.871 2.783 2.871zm-1.782-3.443c.088-.913.847-1.507 1.672-1.507.935 0 1.595.539 1.683 1.507h-3.355zm10.313 2.552c-.253 0-.363-.077-.363-.374v-2.453c0-1.309-.825-2.024-2.255-2.024-1.353 0-2.244.649-2.376 1.749h.902c.11-.572.638-.946 1.43-.946.88 0 1.397.44 1.397 1.166v.385h-1.65c-1.474 0-2.255.627-2.255 1.749 0 1.023.836 1.639 2.068 1.639.968 0 1.529-.429 1.881-.935.011.55.264.869 1.012.869h.495v-.825h-.286zm-1.265-1.463c0 .935-.649 1.584-1.771 1.584-.748 0-1.221-.374-1.221-.924 0-.638.451-.935 1.254-.935h1.738v.275zm4.84-3.322c-1 0-1.43.418-1.694.847l-.12-.847h-.782V15h.903v-2.86c0-.891.319-1.87 1.495-1.87h.452v-.88h-.253zm3.785-.066c-.946 0-1.518.396-1.848.825l-.12-.759h-.782V15h.902v-2.805c0-1.265.638-2.046 1.694-2.046.98 0 1.518.616 1.518 1.782V15h.902v-3.124c0-1.859-1-2.552-2.266-2.552zM46.654 15h.935V8.928L50.141 15h.847l2.552-6.072V15h.935V7.3h-1.188l-2.695 6.391L47.864 7.3h-1.21V15zm11.767.066c1.639 0 2.783-1.166 2.783-2.871S60.06 9.324 58.42 9.324c-1.64 0-2.783 1.166-2.783 2.871s1.144 2.871 2.783 2.871zm0-.803c-1.111 0-1.86-.869-1.86-2.068s.749-2.068 1.86-2.068c1.11 0 1.859.869 1.859 2.068s-.748 2.068-1.86 2.068zm6.413-4.873c-1 0-1.43.418-1.694.847l-.12-.847h-.782V15h.902v-2.86c0-.891.32-1.87 1.496-1.87h.451v-.88h-.253zm3.298 5.676c1.298 0 2.222-.825 2.442-1.947h-.913c-.187.726-.803 1.144-1.595 1.144-1.067 0-1.738-.748-1.771-1.815v-.077h4.356c.01-.132.022-.264.022-.385-.044-1.661-1.078-2.662-2.662-2.662-1.584 0-2.662 1.166-2.662 2.871 0 1.716 1.1 2.871 2.783 2.871zm-1.782-3.443c.088-.913.847-1.507 1.672-1.507.935 0 1.595.539 1.683 1.507H66.35z" fill="#fff"/></svg>