<svg width="165" height="72" viewBox="0 0 165 72" fill="none" xmlns="http://www.w3.org/2000/svg"><path d="M20.019 35.047c-2.632 0-4.376-.42-5.678-.953l-.768-4.262h.561l.562 1.01c1.33 2.41 2.957 3.476 5.56 3.476 2.986 0 4.671-1.402 4.671-3.701 0-2.047-1.241-3.084-4.79-4.262-4.021-1.318-6.032-2.776-6.032-6.056 0-3.28 3.164-5.72 7.097-5.72 2.454 0 3.873.309 5.233.842l.74 4.43h-.592l-.532-1.038c-1.212-2.411-2.75-3.505-5.086-3.505-2.454 0-3.903 1.402-3.903 3.393 0 1.99 1.183 3 4.554 4.093 4.435 1.402 6.298 3 6.298 6.253.03 3.56-3.608 6-7.895 6zM38.589 33.308c-1.242 1.01-2.514 1.683-4.11 1.683-2.366 0-3.608-1.01-3.608-3.42v-9.31h-2.188v-.532l2.336-.841 2.306-4.374h.947V21h3.962v1.262h-3.962v9.252c0 1.374.71 2.047 1.862 2.047.799 0 1.331-.197 2.07-.701l.385.448zM46.898 35.103c-4.288 0-7.452-2.58-7.452-7.374 0-4.066 3.076-7.178 7.481-7.178 4.406 0 7.452 2.58 7.452 7.374-.03 4.066-3.134 7.178-7.481 7.178zm-.414-13.823c-2.1 0-3.282 1.514-3.282 5.636 0 4.514 1.537 7.458 4.08 7.458 2.13 0 3.283-1.514 3.283-5.636 0-4.514-1.508-7.458-4.081-7.458zM72.564 34.794c-.68 0-2.424-.028-3.755-.028-1.33 0-3.046.028-3.785.028v-.448l.503-.084c1.33-.225 1.567-.617 1.567-3.169v-5.495c0-2.13-.976-3.168-2.72-3.168-1.213 0-2.218.448-3.105 1.065v7.598c0 2.58.207 2.944 1.567 3.169l.503.084v.448c-.74 0-2.455-.028-3.785-.028s-3.076.028-3.785.028v-.448l.591-.084c1.242-.169 1.479-.617 1.479-3.42v-6.057c0-1.514-.266-1.934-1.36-2.411l-.74-.337v-.308l5.145-1.065.414.252v1.962c1.627-1.317 3.135-2.186 5.057-2.186 2.75 0 4.199 1.401 4.199 4.345v5.888c0 2.86.236 3.196 1.508 3.42l.532.085-.03.364zM76.852 26.523v.197c.089 3.981 2.366 6.448 5.441 6.448 1.685 0 2.868-.588 4.11-1.766l.414.28c-1.597 2.103-3.666 3.42-6.328 3.42-3.903 0-6.83-2.522-6.83-6.868 0-4.683 3.725-7.655 7.303-7.655 3.963 0 5.885 2.103 5.974 5.972l-10.084-.028zm6.476-.785c-.089-2.944-1.212-4.43-2.987-4.43-2.01 0-3.282 1.627-3.489 4.43h6.476zM108.551 34.794c-.532 0-3.193-.056-4.228-.056-1.095 0-4.406.056-4.968.056v-.392l.946-.14c.917-.14 1.301-.365 1.301-.897 0-.449-.296-1.01-.946-1.963l-3.312-4.794-3.312 4.317c-.769 1.01-1.123 1.767-1.123 2.327 0 .561.354.898 1.271 1.038l.976.14v.392c-.532 0-2.898-.056-3.962-.056-1.065 0-2.75.056-3.312.056v-.42l.502-.084c1.331-.224 2.573-1.29 3.578-2.495l4.79-5.944-4.7-6.617c-1.095-1.542-1.864-2.243-3.047-2.44l-.62-.112v-.392c.532 0 3.193.056 4.228.056 1.094 0 4.347-.056 4.909-.056v.392l-.947.14c-.798.113-1.242.365-1.242.898 0 .448.296 1.01.947 1.962l2.838 4.15 2.78-3.701c.739-1.01 1.124-1.766 1.124-2.3 0-.532-.385-.896-1.272-1.037l-.976-.14v-.392c.532 0 2.898.056 3.963.056 1.064 0 2.75-.056 3.311-.056v.392l-.502.084c-1.331.225-2.543 1.178-3.578 2.496l-4.288 5.327 5.204 7.234c1.095 1.542 1.863 2.242 3.046 2.439l.621.112v.42zM110.917 19.346c-.237 0-.444-.028-.621-.112a1.551 1.551 0 01-.503-.337 1.257 1.257 0 01-.325-.476 1.395 1.395 0 01-.119-.59c0-.223.03-.42.119-.588.088-.196.207-.336.325-.477.118-.14.325-.252.503-.308.207-.084.414-.112.621-.112.236 0 .443.028.621.112.207.084.354.196.502.308.148.14.266.309.326.477.088.196.118.393.118.589 0 .224-.03.42-.118.589a1.977 1.977 0 01-.326.476c-.148.14-.325.253-.502.337a2.032 2.032 0 01-.621.112zm0-.224c.207 0 .384-.029.532-.113.177-.056.325-.168.443-.28.119-.112.207-.252.296-.42.059-.169.089-.337.089-.505 0-.196-.03-.365-.089-.505a1.1 1.1 0 00-.296-.42 1.666 1.666 0 00-.443-.28c-.177-.057-.355-.113-.532-.113-.207 0-.385.028-.533.112a1.174 1.174 0 00-.443.28 1.584 1.584 0 00-.296.421 1.517 1.517 0 00-.089.505c0 .196.03.364.089.504.059.169.178.309.296.421.118.112.266.224.443.28.178.084.355.113.533.113zm-.68-.393v-1.794h.828c.207 0 .384.056.502.14a.498.498 0 01.178.392c0 .169-.06.28-.178.393-.118.112-.266.14-.473.14l.089-.028c.089 0 .148.028.207.056a.49.49 0 01.177.168l.325.533h-.443l-.325-.589c-.03-.056-.059-.084-.089-.084-.03-.028-.089-.028-.148-.028h-.207v.701h-.443zm.384-1.01h.384c.119 0 .207-.027.237-.055.059-.029.089-.113.089-.197s-.03-.168-.089-.196a.58.58 0 00-.237-.056h-.384v.505zM19.93 57.449c-3.755 0-6.417-2.776-6.417-7.262s2.72-7.234 6.388-7.234c3.075 0 5.174 1.514 5.825 4.486a.124.124 0 01-.118.169h-.77c-.088 0-.177-.057-.177-.169-.532-2.383-2.277-3.617-4.73-3.617-3.047 0-5.264 2.355-5.264 6.365 0 3.953 2.247 6.364 5.322 6.364 3.371 0 5.086-2.215 5.057-5.523h-5.057c-.088 0-.177-.084-.177-.168v-.533c0-.084.088-.168.177-.168h5.914c.089 0 .178.084.178.168.088 4.486-2.07 7.122-6.15 7.122zM27.914 57.224c-.089 0-.177-.084-.177-.168l.059-7.01-.06-6.728c0-.084.09-.168.178-.168h.74c.088 0 .177.084.177.168l-.03 6.673.03 7.037c0 .084-.09.168-.178.168h-.739v.028zM35.336 57.449c-3.134 0-4.879-2.16-4.879-5.384s1.745-5.383 4.879-5.383c3.164 0 4.88 2.16 4.88 5.383-.03 3.197-1.746 5.384-4.88 5.384zm0-.785c2.543 0 3.785-1.795 3.785-4.599 0-2.775-1.272-4.626-3.785-4.626-2.513.028-3.785 1.795-3.785 4.626 0 2.832 1.272 4.599 3.785 4.599zM46.395 57.42c-1.715 0-2.957-.785-3.667-2.242l.03 1.878c0 .084-.089.168-.177.168h-.71c-.089 0-.177-.084-.177-.168l.059-8.075-.06-5.607c0-.084.09-.168.178-.168h.74c.088 0 .177.084.177.168l-.03 5.523c.71-1.374 1.952-2.187 3.637-2.187 2.839 0 4.347 2.327 4.347 5.327.03 2.944-1.538 5.383-4.347 5.383zm-.207-.785c2.425 0 3.519-1.99 3.519-4.514 0-2.579-1.065-4.654-3.49-4.654-2.07 0-3.489 1.486-3.518 4.458-.03 2.972 1.271 4.71 3.49 4.71zM59.997 57.224c-.088 0-.177-.084-.177-.168l.03-1.935c-.68 1.43-1.923 2.3-3.667 2.3-2.868 0-4.347-2.328-4.347-5.328 0-2.972 1.538-5.383 4.347-5.383 1.715 0 2.957.785 3.666 2.215l-.03-1.878c0-.084.09-.169.178-.169h.71c.089 0 .177.084.177.169l-.059 4.822.06 5.187c0 .084-.09.168-.178.168h-.71zm-3.607-.617c2.129 0 3.489-1.514 3.519-4.457.03-2.944-1.272-4.683-3.46-4.683-2.454 0-3.548 1.99-3.548 4.486 0 2.608 1.064 4.654 3.489 4.654zM63.102 57.224c-.089 0-.177-.084-.177-.168l.059-7.01-.06-6.728c0-.084.09-.168.178-.168h.74c.088 0 .177.084.177.168l-.03 6.673.03 7.037c0 .084-.089.168-.178.168h-.739v.028zM74.575 51.449h-3.46l.03 5.607c0 .084-.089.168-.177.168h-.799c-.088 0-.177-.084-.177-.168l.06-7.177-.06-6.533c0-.084.089-.168.177-.168h4.347c3.016 0 5.027 1.373 5.027 4.093 0 2.888-2.07 4.178-4.968 4.178zm-3.489-1.542v.7h3.519c2.365 0 3.814-.897 3.814-3.336 0-2.215-1.419-3.224-3.903-3.224h-3.37l-.06 5.86zM88.177 57.224c-.088 0-.177-.084-.177-.168l.03-1.935c-.68 1.43-1.922 2.3-3.667 2.3-2.868 0-4.347-2.328-4.347-5.328 0-2.972 1.538-5.383 4.347-5.383 1.715 0 2.957.785 3.667 2.215L88 47.047c0-.084.089-.169.177-.169h.71c.089 0 .177.084.177.169l-.059 4.822.06 5.187c0 .084-.09.168-.178.168h-.71zm-3.607-.617c2.129 0 3.49-1.514 3.519-4.457.03-2.944-1.272-4.683-3.46-4.683-2.454 0-3.548 1.99-3.548 4.486-.03 2.608 1.064 4.654 3.489 4.654zM94.15 60.477c-.029.112-.118.168-.236.168h-.65a.124.124 0 01-.119-.168l1.213-3.28-4.229-10.15c-.03-.056.03-.14.118-.14h.858c.118 0 .177.056.236.14l3.578 8.775 3.076-8.775c.03-.112.118-.169.236-.169H99c.089 0 .148.084.118.169l-4.968 13.43zM101.277 52.907l.029 4.149c0 .084-.088.168-.177.168h-.769c-.088 0-.177-.084-.177-.168l.059-4.15-.03-5.86c0-.083.089-.167.178-.167h.709c.089 0 .178.084.178.168l-.03 1.962c.621-1.177 1.745-2.355 3.519-2.355 1.597 0 2.721.73 3.164 2.355.651-1.261 1.804-2.355 3.519-2.355 2.099 0 3.371 1.29 3.371 4.178v2.075l.029 4.149c0 .084-.088.168-.177.168h-.739c-.089 0-.178-.084-.178-.168l.03-4.15v-1.99c0-2.495-1.005-3.42-2.573-3.42-1.419 0-2.395 1.009-3.075 2.635.03.224.03.448.03.673v2.075l.029 4.149c0 .084-.088.168-.177.168h-.739c-.089 0-.178-.084-.178-.168l.03-4.15v-1.99c0-2.495-1.006-3.42-2.573-3.42-1.537 0-2.543 1.177-3.253 3.055v2.383h-.029zM125.495 53.58c.088 0 .147.084.147.168-.414 2.27-1.892 3.7-4.494 3.7-3.223 0-4.909-2.186-4.909-5.355 0-3.168 1.834-5.41 4.791-5.41 2.868 0 4.612 1.906 4.672 5.186 0 .084-.089.168-.178.168l-8.22.028c0 2.916 1.301 4.627 3.873 4.627 1.982 0 3.076-1.094 3.46-2.916 0-.112.118-.169.178-.169h.68v-.028zm-4.465-6.14c-2.159 0-3.431 1.457-3.667 3.756h7.245c-.06-2.046-1.272-3.757-3.578-3.757zM127.653 57.224c-.088 0-.177-.084-.177-.168l.029-4.374-.029-5.635c0-.084.089-.168.177-.168h.71c.089 0 .177.084.177.168l-.029 1.962c.621-1.15 1.833-2.355 3.696-2.355 2.188 0 3.548 1.346 3.548 4.178v1.962l.03 4.262c0 .084-.089.168-.177.168h-.74c-.088 0-.177-.084-.177-.168l.029-4.262v-1.878c0-2.495-1.094-3.42-2.75-3.42-1.626 0-2.72 1.149-3.459 3.055v2.243l.029 4.262c0 .084-.088.168-.177.168h-.71zM142.29 57.028c0 .112-.059.168-.177.196a4.946 4.946 0 01-1.153.169c-1.42 0-2.484-.673-2.484-2.86l.029-6.785h-1.242c-.088 0-.177-.084-.177-.169v-.504c0-.084.089-.169.177-.169h1.242l-.029-2.439c0-.084.089-.168.177-.168h.739c.089 0 .178.084.178.168l-.03 2.44h2.573c.089 0 .177.084.177.168v.504c0 .085-.088.169-.177.169h-2.573v6.785c0 1.542.444 2.018 1.508 2.018.385 0 .769-.028 1.065-.112.089-.028.177.028.177.112v.477zM147.495 57.42c-2.721 0-4.465-1.177-4.525-3.7 0-.084.089-.169.178-.169h.68c.089 0 .177.085.177.169.06 2.018 1.301 2.972 3.519 2.972 1.863 0 3.194-.813 3.194-2.215 0-3.337-7.511-.926-7.511-4.935 0-1.878 1.685-2.832 3.992-2.832 2.277 0 4.11.954 4.199 3.084 0 .085-.089.169-.178.169h-.621c-.088 0-.177-.084-.177-.169-.118-1.654-1.508-2.355-3.253-2.355-1.803 0-2.957.673-2.957 2.047 0 3.056 7.511.617 7.511 4.907 0 1.906-1.863 3.028-4.228 3.028z" fill="#fff"/></svg>