<svg width="484" height="32" viewBox="0 0 484 32" fill="none" xmlns="http://www.w3.org/2000/svg"><path d="M.68 4.668h7.344V25h3.91V4.668h7.344V1.2H.68v3.468zm28.256 2.924c-2.856 0-4.25 1.156-5.134 2.618l-.408-2.618H20.13V25h3.672v-8.738c0-2.686 1.054-5.236 4.318-5.236h1.632V7.592h-.816zm18.462 14.212c-.748 0-1.122-.238-1.122-1.122v-6.97c0-4.114-2.652-6.324-7.276-6.324-4.386 0-7.31 2.108-7.684 5.508h3.604c.272-1.53 1.734-2.55 3.91-2.55 2.414 0 3.808 1.19 3.808 3.128v1.054h-4.386c-4.862 0-7.446 2.006-7.446 5.576 0 3.23 2.652 5.1 6.46 5.1 2.822 0 4.59-1.224 5.746-2.992 0 1.734.816 2.788 3.196 2.788h1.938v-3.196h-.748zm-4.76-3.944c-.034 2.686-1.802 4.488-4.862 4.488-2.006 0-3.23-1.02-3.23-2.482 0-1.768 1.258-2.618 3.536-2.618h4.556v.612zm20.6-7.854c-1.121-1.53-2.991-2.618-5.643-2.618-4.726 0-8.228 3.536-8.228 8.908 0 5.576 3.502 8.908 8.228 8.908 2.754 0 4.556-1.292 5.678-2.822L63.715 25h3.196V1.2h-3.672v8.806zM58.208 22.11c-3.06 0-5.066-2.38-5.066-5.814 0-3.4 2.006-5.78 5.066-5.78s5.066 2.38 5.066 5.848c0 3.366-2.006 5.746-5.066 5.746zm20.554 3.094c4.318 0 7.242-2.618 7.854-6.052h-3.672c-.51 1.938-2.142 3.06-4.386 3.06-2.89 0-4.76-1.938-4.862-4.896v-.238H86.82c.068-.476.102-.952.102-1.394-.102-5.1-3.468-8.296-8.5-8.296-5.134 0-8.568 3.57-8.568 8.942 0 5.338 3.434 8.874 8.908 8.874zm-4.93-10.812c.272-2.482 2.278-4.046 4.624-4.046 2.55 0 4.352 1.462 4.658 4.046h-9.282zm16.696 6.222c-1.564 0-2.584 1.02-2.584 2.312 0 1.462.884 2.176 2.006 2.176.408 0 .816-.102 1.122-.34.034.136.034.306.034.442 0 1.19-.85 2.516-2.992 2.55v1.972c3.366-.034 5.474-1.904 5.474-5.202 0-2.176-1.19-3.91-3.06-3.91zm30.515 1.19c-.748 0-1.122-.238-1.122-1.122v-6.97c0-4.114-2.652-6.324-7.276-6.324-4.386 0-7.31 2.108-7.684 5.508h3.604c.272-1.53 1.734-2.55 3.91-2.55 2.414 0 3.808 1.19 3.808 3.128v1.054h-4.386c-4.862 0-7.446 2.006-7.446 5.576 0 3.23 2.652 5.1 6.46 5.1 2.822 0 4.59-1.224 5.746-2.992 0 1.734.816 2.788 3.196 2.788h1.938v-3.196h-.748zm-4.76-3.944c-.034 2.686-1.802 4.488-4.862 4.488-2.006 0-3.23-1.02-3.23-2.482 0-1.768 1.258-2.618 3.536-2.618h4.556v.612zM132.97 7.388c-2.822 0-4.488 1.122-5.576 2.482l-.408-2.278h-3.196V25h3.672v-8.772c0-3.536 1.734-5.678 4.658-5.678 2.754 0 4.148 1.768 4.148 5.066V25h3.706v-9.69c0-5.814-3.162-7.922-7.004-7.922zm26.256 14.416c-.748 0-1.122-.238-1.122-1.122v-6.97c0-4.114-2.652-6.324-7.276-6.324-4.386 0-7.31 2.108-7.684 5.508h3.604c.272-1.53 1.734-2.55 3.91-2.55 2.414 0 3.808 1.19 3.808 3.128v1.054h-4.386c-4.862 0-7.446 2.006-7.446 5.576 0 3.23 2.652 5.1 6.46 5.1 2.822 0 4.59-1.224 5.746-2.992 0 1.734.816 2.788 3.196 2.788h1.938v-3.196h-.748zm-4.76-3.944c-.034 2.686-1.802 4.488-4.862 4.488-2.006 0-3.23-1.02-3.23-2.482 0-1.768 1.258-2.618 3.536-2.618h4.556v.612zm7.508 7.14h3.672V1.2h-3.672V25zm12.303.102l-.68 1.7c-.544 1.428-.884 1.768-2.312 1.768h-2.584v3.23h3.944c2.55 0 3.298-1.258 4.386-4.08l7.888-20.128h-3.91l-4.726 13.226-4.862-13.226h-3.91l6.766 17.51zm11.386-5.848c.102 3.774 3.298 5.95 7.956 5.95 4.216 0 7.378-2.108 7.378-5.44 0-3.876-3.23-4.692-7.208-5.168-2.516-.272-4.182-.476-4.182-2.108 0-1.394 1.428-2.278 3.604-2.278s3.672 1.122 3.876 2.72h3.604c-.238-3.57-3.264-5.542-7.548-5.542-4.182-.034-7.14 2.108-7.14 5.406 0 3.604 3.128 4.454 7.106 4.93 2.686.34 4.284.476 4.284 2.346 0 1.394-1.496 2.278-3.774 2.278-2.652 0-4.216-1.292-4.352-3.094h-3.604zm26.442 5.95c4.318 0 7.242-2.618 7.854-6.052h-3.672c-.51 1.938-2.142 3.06-4.386 3.06-2.89 0-4.76-1.938-4.862-4.896v-.238h13.124c.068-.476.102-.952.102-1.394-.102-5.1-3.468-8.296-8.5-8.296-5.134 0-8.568 3.57-8.568 8.942 0 5.338 3.434 8.874 8.908 8.874zm-4.93-10.812c.272-2.482 2.278-4.046 4.624-4.046 2.55 0 4.352 1.462 4.658 4.046h-9.282zm16.696 6.222c-1.564 0-2.584 1.02-2.584 2.312 0 1.462.884 2.176 2.006 2.176.408 0 .816-.102 1.122-.34.034.136.034.306.034.442 0 1.19-.85 2.516-2.992 2.55v1.972c3.366-.034 5.474-1.904 5.474-5.202 0-2.176-1.19-3.91-3.06-3.91zm16.473-15.47c1.258 0 2.244-.918 2.244-2.21 0-1.292-.986-2.21-2.244-2.21-1.258 0-2.244.918-2.244 2.21 0 1.292.986 2.21 2.244 2.21zM238.474 25h3.672V7.592h-3.672V25zm27.297-17.612c-2.856 0-4.828 1.258-5.95 3.162-1.054-2.244-3.094-3.162-5.372-3.162-2.618.034-4.114 1.19-5.1 2.482l-.408-2.278h-3.196V25h3.672v-9.316c0-3.094 1.564-5.134 4.08-5.134 2.414 0 3.672 1.598 3.672 4.658V25h3.706v-9.418c0-3.128 1.598-5.032 4.114-5.032 2.38 0 3.638 1.598 3.638 4.658V25h3.672V14.97c0-5.508-2.924-7.582-6.528-7.582zm19.173 0c-2.72 0-4.522 1.258-5.678 2.788l-.442-2.584h-3.196V31.8h3.672v-9.248c1.088 1.564 2.958 2.652 5.644 2.652 4.76 0 8.228-3.536 8.228-8.908 0-5.576-3.468-8.908-8.228-8.908zm-.612 14.722c-3.06 0-5.066-2.414-5.066-5.882 0-3.366 2.006-5.712 5.066-5.712s5.1 2.346 5.1 5.78c0 3.4-2.04 5.814-5.1 5.814zm20.589-14.518c-2.856 0-4.25 1.156-5.134 2.618l-.408-2.618h-3.264V25h3.672v-8.738c0-2.686 1.054-5.236 4.318-5.236h1.632V7.592h-.816zm10.478 17.612c5.304 0 8.874-3.57 8.874-8.908 0-5.304-3.57-8.908-8.874-8.908s-8.874 3.604-8.874 8.908c0 5.338 3.57 8.908 8.874 8.908zm0-3.128c-3.094 0-5.1-2.414-5.1-5.78s2.006-5.78 5.1-5.78 5.134 2.414 5.134 5.78-2.04 5.78-5.134 5.78zM331.121 25h4.488l6.426-17.408h-3.876l-4.726 13.464-4.794-13.464h-3.944L331.121 25zm20.238.204c4.318 0 7.242-2.618 7.854-6.052h-3.672c-.51 1.938-2.142 3.06-4.386 3.06-2.89 0-4.76-1.938-4.862-4.896v-.238h13.124c.068-.476.102-.952.102-1.394-.102-5.1-3.468-8.296-8.5-8.296-5.134 0-8.568 3.57-8.568 8.942 0 5.338 3.434 8.874 8.908 8.874zm-4.93-10.812c.272-2.482 2.278-4.046 4.624-4.046 2.55 0 4.352 1.462 4.658 4.046h-9.282zm16.696 6.222c-1.564 0-2.584 1.02-2.584 2.312 0 1.462.884 2.176 2.006 2.176.408 0 .816-.102 1.122-.34.034.136.034.306.034.442 0 1.19-.85 2.516-2.992 2.55v1.972c3.366-.034 5.474-1.904 5.474-5.202 0-2.176-1.19-3.91-3.06-3.91zm23.409-13.022c-2.856 0-4.25 1.156-5.134 2.618l-.408-2.618h-3.264V25h3.672v-8.738c0-2.686 1.054-5.236 4.318-5.236h1.632V7.592h-.816zm10.512 17.612c4.318 0 7.242-2.618 7.854-6.052h-3.672c-.51 1.938-2.142 3.06-4.386 3.06-2.89 0-4.76-1.938-4.862-4.896v-.238h13.124c.068-.476.102-.952.102-1.394-.102-5.1-3.468-8.296-8.5-8.296-5.134 0-8.568 3.57-8.568 8.942 0 5.338 3.434 8.874 8.908 8.874zm-4.93-10.812c.272-2.482 2.278-4.046 4.624-4.046 2.55 0 4.352 1.462 4.658 4.046h-9.282zm25.375-7.004c-2.72 0-4.522 1.258-5.678 2.788l-.442-2.584h-3.196V31.8h3.672v-9.248c1.088 1.564 2.958 2.652 5.644 2.652 4.76 0 8.228-3.536 8.228-8.908 0-5.576-3.468-8.908-8.228-8.908zm-.612 14.722c-3.06 0-5.066-2.414-5.066-5.882 0-3.366 2.006-5.712 5.066-5.712s5.1 2.346 5.1 5.78c0 3.4-2.04 5.814-5.1 5.814zm20.044 3.094c4.318 0 7.242-2.618 7.854-6.052h-3.672c-.51 1.938-2.142 3.06-4.386 3.06-2.89 0-4.76-1.938-4.862-4.896v-.238h13.124c.068-.476.102-.952.102-1.394-.102-5.1-3.468-8.296-8.5-8.296-5.134 0-8.568 3.57-8.568 8.942 0 5.338 3.434 8.874 8.908 8.874zm-4.93-10.812c.272-2.482 2.278-4.046 4.624-4.046 2.55 0 4.352 1.462 4.658 4.046h-9.282zm31.971 7.412c-.748 0-1.122-.238-1.122-1.122v-6.97c0-4.114-2.652-6.324-7.276-6.324-4.386 0-7.31 2.108-7.684 5.508h3.604c.272-1.53 1.734-2.55 3.91-2.55 2.414 0 3.808 1.19 3.808 3.128v1.054h-4.386c-4.862 0-7.446 2.006-7.446 5.576 0 3.23 2.652 5.1 6.46 5.1 2.822 0 4.59-1.224 5.746-2.992 0 1.734.816 2.788 3.196 2.788h1.938v-3.196h-.748zm-4.76-3.944c-.034 2.686-1.802 4.488-4.862 4.488-2.006 0-3.23-1.02-3.23-2.482 0-1.768 1.258-2.618 3.536-2.618h4.556v.612zm8.766 2.414c0 3.162 1.428 4.726 4.76 4.726h3.4v-3.23h-2.584c-1.394 0-1.87-.51-1.87-1.87v-9.078h4.25v-3.23h-4.25V2.73h-3.706v4.862h-3.026v3.23h3.026v9.452zm10.355 2.618c0 1.36.986 2.312 2.346 2.312s2.38-.952 2.38-2.312c0-1.36-1.02-2.312-2.38-2.312-1.36 0-2.346.952-2.346 2.312z" fill="#000"/></svg>