<svg width="152" height="120" viewBox="0 0 152 120" fill="none" xmlns="http://www.w3.org/2000/svg"><path d="M.217 72.935h2.61V80h.586v-7.065h2.609v-.544H.217v.544zm8.332 1.554c-1.021 0-1.456.49-1.684 1.098l-.087-1.098h-.479V80h.555v-2.793c0-1.12.293-2.185 1.587-2.185h.402v-.533h-.294zm5.73 5c-.326 0-.49-.109-.49-.532V76.39c0-1.26-.771-1.967-2.152-1.967-1.26 0-2.098.608-2.239 1.609h.554c.142-.674.729-1.12 1.664-1.12 1.032 0 1.62.544 1.62 1.457v.478h-1.87c-1.414 0-2.174.609-2.174 1.641 0 .978.771 1.576 1.945 1.576 1.12 0 1.783-.51 2.12-1.195v.195c-.022.652.25.935.902.935h.326v-.51h-.206zm-1.044-1.717c0 1.054-.75 1.815-2.054 1.815-.88 0-1.424-.446-1.424-1.13 0-.729.543-1.13 1.565-1.13h1.913v.445zm6.407-2.044c-.337-.782-1.076-1.304-2.11-1.304-1.51 0-2.597 1.152-2.597 2.815 0 1.74 1.087 2.826 2.598 2.826 1.032 0 1.75-.554 2.098-1.326L19.718 80h.478v-7.609h-.554v3.337zm-2.066 3.837c-1.228 0-2.076-.956-2.076-2.326 0-1.359.848-2.326 2.076-2.326 1.229 0 2.076.967 2.076 2.337 0 1.359-.847 2.315-2.076 2.315zm6.359.5c1.206 0 2.13-.782 2.37-1.891h-.566c-.217.859-.946 1.391-1.848 1.391-1.228 0-2-.935-2.021-2.217v-.098h4.5c0-.076.01-.163.01-.228-.054-1.642-1.065-2.598-2.543-2.598-1.511 0-2.544 1.152-2.544 2.782 0 1.729 1.076 2.86 2.642 2.86zm-2.022-3.282c.087-1.12.924-1.87 1.935-1.87 1.076 0 1.848.663 1.935 1.87h-3.87zm8.906 1.934c0 .88.359 1.283 1.293 1.283h.805v-.51h-.761c-.576 0-.783-.218-.783-.783V75h1.49v-.51h-1.49v-1.544h-.554v1.543h-1.044V75h1.044v3.718zm5.206 1.348c1.207 0 2.13-.782 2.37-1.891h-.566c-.217.859-.945 1.391-1.847 1.391-1.229 0-2-.935-2.022-2.217v-.098h4.5c0-.076.01-.163.01-.228-.053-1.642-1.064-2.598-2.543-2.598-1.51 0-2.543 1.152-2.543 2.782 0 1.729 1.076 2.86 2.641 2.86zm-2.022-3.282c.087-1.12.924-1.87 1.935-1.87 1.076 0 1.848.663 1.935 1.87h-3.87zm7.966 3.282c1.25 0 2.13-.717 2.348-1.837h-.587c-.185.816-.848 1.337-1.761 1.337-1.207 0-2.044-.945-2.044-2.315s.826-2.337 2.044-2.337c.924 0 1.576.522 1.771 1.348h.577c-.229-1.141-1.087-1.837-2.337-1.837-1.555 0-2.62 1.152-2.62 2.826 0 1.696 1.054 2.815 2.609 2.815zm5.969-5.641c-1.033 0-1.674.576-1.99 1.37V72.39h-.554V80h.555v-2.717c0-1.435.728-2.348 1.902-2.348 1.054 0 1.706.695 1.706 2V80h.555v-3.087c0-1.74-.924-2.49-2.174-2.49zm8.776 5.641c1.206 0 2.13-.782 2.37-1.891h-.566c-.217.859-.946 1.391-1.848 1.391-1.228 0-2-.935-2.022-2.217v-.098h4.5c0-.076.011-.163.011-.228-.054-1.642-1.065-2.598-2.543-2.598-1.511 0-2.544 1.152-2.544 2.782 0 1.729 1.076 2.86 2.642 2.86zm-2.022-3.282c.087-1.12.924-1.87 1.935-1.87 1.076 0 1.848.663 1.934 1.87h-3.87zm10.411 2.706c-.326 0-.49-.109-.49-.532V76.39c0-1.26-.77-1.967-2.151-1.967-1.261 0-2.098.608-2.24 1.609h.555c.141-.674.728-1.12 1.663-1.12 1.032 0 1.62.544 1.62 1.457v.478h-1.87c-1.413 0-2.174.609-2.174 1.641 0 .978.772 1.576 1.946 1.576 1.12 0 1.782-.51 2.12-1.195v.195c-.022.652.25.935.901.935h.326v-.51h-.206zm-1.043-1.717c0 1.054-.75 1.815-2.055 1.815-.88 0-1.424-.446-1.424-1.13 0-.729.544-1.13 1.565-1.13h1.913v.445zm4.24-3.283c-1.02 0-1.456.49-1.684 1.098l-.087-1.098h-.478V80h.554v-2.793c0-1.12.294-2.185 1.587-2.185h.402v-.533h-.293zm3.66-.065c-1.012 0-1.664.522-1.979 1.239l-.087-1.174h-.478V80h.554v-2.717c0-1.435.728-2.348 1.902-2.348 1.066 0 1.707.695 1.707 2V80h.554v-3.087c0-1.74-.924-2.49-2.174-2.49zm3.683-1.098a.383.383 0 00.391-.391.383.383 0 00-.391-.392.383.383 0 00-.392.392c0 .228.174.391.392.391zM75.36 80h.555v-5.51h-.555V80zm4.401-5.576c-1.01 0-1.663.522-1.978 1.239l-.087-1.174h-.478V80h.554v-2.717c0-1.435.728-2.348 1.902-2.348 1.066 0 1.707.695 1.707 2V80h.554v-3.087c0-1.74-.924-2.49-2.174-2.49zm7.89 1.348c-.337-.816-1.076-1.348-2.097-1.348-1.511 0-2.598 1.141-2.598 2.815 0 1.74 1.087 2.826 2.597 2.826 1.033 0 1.761-.543 2.11-1.402v.978c0 1.468-.697 2.098-2.023 2.098-1.032 0-1.75-.467-1.924-1.304h-.576c.174 1.174 1.12 1.804 2.457 1.804 1.783 0 2.62-.848 2.62-2.576v-5.174h-.479l-.087 1.283zm-2.054 3.793c-1.228 0-2.076-.956-2.076-2.326s.848-2.326 2.076-2.326c1.228 0 2.076.957 2.076 2.337 0 1.359-.848 2.315-2.076 2.315zm3.674-1.26c.043 1.14.967 1.76 2.347 1.76 1.185 0 2.142-.598 2.142-1.576 0-1.163-1.022-1.391-2.207-1.554-.859-.12-1.62-.218-1.62-.99 0-.63.62-1.043 1.555-1.043.88 0 1.51.424 1.609 1.141h.565c-.098-1.076-.978-1.62-2.174-1.62-1.228-.01-2.109.62-2.109 1.566 0 1.109 1.022 1.315 2.152 1.468.924.13 1.674.25 1.674 1.065 0 .652-.684 1.065-1.587 1.065-1.054 0-1.739-.49-1.782-1.283h-.566zm13.324 1.184c-.326 0-.489-.109-.489-.532V76.39c0-1.26-.772-1.967-2.152-1.967-1.261 0-2.098.608-2.24 1.609h.555c.141-.674.728-1.12 1.663-1.12 1.032 0 1.619.544 1.619 1.457v.478h-1.87c-1.412 0-2.173.609-2.173 1.641 0 .978.772 1.576 1.946 1.576 1.119 0 1.782-.51 2.119-1.195v.195c-.022.652.25.935.902.935h.326v-.51h-.206zm-1.044-1.717c0 1.054-.75 1.815-2.054 1.815-.88 0-1.424-.446-1.424-1.13 0-.729.544-1.13 1.565-1.13h1.913v.445zm1.742.532c.043 1.142.967 1.761 2.348 1.761 1.184 0 2.141-.598 2.141-1.576 0-1.163-1.022-1.391-2.207-1.554-.858-.12-1.619-.218-1.619-.99 0-.63.619-1.043 1.554-1.043.881 0 1.511.424 1.609 1.141h.565c-.098-1.076-.978-1.62-2.174-1.62-1.228-.01-2.108.62-2.108 1.566 0 1.109 1.021 1.315 2.152 1.468.924.13 1.674.25 1.674 1.065 0 .652-.685 1.065-1.587 1.065-1.055 0-1.739-.49-1.783-1.283h-.565zm8.226 0c.044 1.142.968 1.761 2.348 1.761 1.185 0 2.142-.598 2.142-1.576 0-1.163-1.022-1.391-2.207-1.554-.859-.12-1.62-.218-1.62-.99 0-.63.62-1.043 1.555-1.043.88 0 1.511.424 1.609 1.141h.565c-.098-1.076-.979-1.62-2.174-1.62-1.228-.01-2.109.62-2.109 1.566 0 1.109 1.022 1.315 2.152 1.468.924.13 1.674.25 1.674 1.065 0 .652-.685 1.065-1.587 1.065-1.054 0-1.739-.49-1.782-1.283h-.566zm7.982 1.761c1.554 0 2.652-1.152 2.652-2.826 0-1.663-1.098-2.815-2.652-2.815s-2.641 1.152-2.641 2.815c0 1.674 1.087 2.826 2.641 2.826zm0-.5c-1.228 0-2.076-.956-2.076-2.326 0-1.359.848-2.326 2.076-2.326 1.228 0 2.076.967 2.076 2.326 0 1.37-.848 2.326-2.076 2.326zm6.189.5c1.554 0 2.652-1.152 2.652-2.826 0-1.663-1.098-2.815-2.652-2.815-1.555 0-2.642 1.152-2.642 2.815 0 1.674 1.087 2.826 2.642 2.826zm0-.5c-1.229 0-2.077-.956-2.077-2.326 0-1.359.848-2.326 2.077-2.326 1.228 0 2.076.967 2.076 2.326 0 1.37-.848 2.326-2.076 2.326zm6.297-5.141c-1.011 0-1.663.522-1.979 1.239l-.086-1.174h-.479V80h.555v-2.717c0-1.435.728-2.348 1.902-2.348 1.065 0 1.706.695 1.706 2V80h.555v-3.087c0-1.74-.924-2.49-2.174-2.49zM5.5 91.489c-.326 0-.49-.109-.49-.532V88.39c0-1.26-.77-1.967-2.151-1.967-1.261 0-2.098.608-2.24 1.609h.555c.141-.674.728-1.12 1.663-1.12 1.033 0 1.62.544 1.62 1.457v.478h-1.87c-1.413 0-2.174.609-2.174 1.641 0 .978.772 1.576 1.946 1.576 1.12 0 1.782-.51 2.12-1.195v.195c-.022.652.25.935.901.935h.327v-.51H5.5zm-1.043-1.717c0 1.054-.75 1.815-2.055 1.815-.88 0-1.424-.446-1.424-1.13 0-.729.544-1.13 1.566-1.13h1.913v.445zm1.74.532c.044 1.142.968 1.761 2.349 1.761 1.185 0 2.141-.598 2.141-1.576 0-1.163-1.022-1.391-2.206-1.554-.86-.12-1.62-.218-1.62-.99 0-.63.62-1.043 1.554-1.043.88 0 1.511.424 1.61 1.141h.564c-.098-1.076-.978-1.62-2.174-1.62-1.228-.01-2.108.62-2.108 1.566 0 1.109 1.021 1.315 2.152 1.468.924.13 1.674.25 1.674 1.065 0 .652-.685 1.065-1.587 1.065-1.055 0-1.74-.49-1.783-1.283h-.565zm8.89.413c0 .88.36 1.283 1.294 1.283h.804v-.51h-.76c-.577 0-.783-.218-.783-.783V87h1.49v-.51h-1.49v-1.544h-.554v1.543h-1.044V87h1.044v3.718zm5.485-4.293c-1.032 0-1.674.576-1.989 1.37V84.39h-.554V92h.554v-2.717c0-1.435.729-2.348 1.902-2.348 1.055 0 1.707.695 1.707 2V92h.554v-3.087c0-1.74-.924-2.49-2.174-2.49zm5.762 5.641c1.206 0 2.13-.782 2.37-1.891h-.566c-.217.859-.946 1.391-1.848 1.391-1.228 0-2-.935-2.021-2.217v-.098h4.5c0-.076.01-.163.01-.228-.054-1.642-1.065-2.598-2.543-2.598-1.511 0-2.544 1.152-2.544 2.782 0 1.729 1.076 2.86 2.642 2.86zm-2.022-3.282c.087-1.12.924-1.87 1.935-1.87 1.076 0 1.848.663 1.935 1.87h-3.87zM31.294 92l-.359.891c-.25.609-.348.772-.913.772h-.696v.51h.848c.74 0 .913-.282 1.261-1.151l2.641-6.533h-.597l-1.88 4.794-1.914-4.794h-.598L31.294 92zm11.305-.51c-.326 0-.489-.11-.489-.533V88.39c0-1.26-.772-1.967-2.152-1.967-1.26 0-2.098.608-2.24 1.609h.555c.141-.674.728-1.12 1.663-1.12 1.033 0 1.62.544 1.62 1.457v.478h-1.87c-1.413 0-2.174.609-2.174 1.641 0 .978.772 1.576 1.946 1.576 1.12 0 1.783-.51 2.12-1.195v.195c-.022.652.25.935.902.935h.326v-.51h-.207zm-1.043-1.718c0 1.054-.75 1.815-2.055 1.815-.88 0-1.423-.446-1.423-1.13 0-.729.543-1.13 1.565-1.13h1.913v.445zm4.241-3.283c-1.022 0-1.456.49-1.685 1.098l-.087-1.098h-.478V92h.555v-2.793c0-1.12.293-2.185 1.587-2.185h.402v-.533h-.294zm3.157 5.576c1.207 0 2.13-.782 2.37-1.891h-.566c-.217.859-.945 1.391-1.847 1.391-1.229 0-2-.935-2.022-2.217v-.098h4.5c0-.076.01-.163.01-.228-.053-1.642-1.064-2.598-2.543-2.598-1.51 0-2.543 1.152-2.543 2.782 0 1.729 1.076 2.86 2.641 2.86zm-2.022-3.282c.087-1.12.924-1.87 1.935-1.87 1.076 0 1.848.663 1.935 1.87h-3.87zm10.743-2.294c-1.021 0-1.456.49-1.684 1.098l-.087-1.098h-.479V92h.555v-2.793c0-1.12.293-2.185 1.587-2.185h.402v-.533h-.294zm3.157 5.576c1.207 0 2.13-.782 2.37-1.891h-.565c-.218.859-.946 1.391-1.848 1.391-1.229 0-2-.935-2.022-2.217v-.098h4.5c0-.076.011-.163.011-.228-.054-1.642-1.065-2.598-2.544-2.598-1.51 0-2.543 1.152-2.543 2.782 0 1.729 1.076 2.86 2.641 2.86zm-2.022-3.282c.087-1.12.924-1.87 1.935-1.87 1.076 0 1.848.663 1.935 1.87h-3.87zM64.374 92h.554v-7.609h-.554V92zm4.292.065c1.207 0 2.13-.782 2.37-1.891h-.566c-.217.859-.945 1.391-1.847 1.391-1.229 0-2-.935-2.022-2.217v-.098h4.5c0-.076.01-.163.01-.228-.054-1.642-1.064-2.598-2.543-2.598-1.51 0-2.543 1.152-2.543 2.782 0 1.729 1.076 2.86 2.641 2.86zm-2.022-3.282c.087-1.12.924-1.87 1.935-1.87 1.076 0 1.848.663 1.935 1.87h-3.87zm10.411 2.706c-.326 0-.489-.109-.489-.532V88.39c0-1.26-.772-1.967-2.152-1.967-1.26 0-2.098.608-2.24 1.609h.555c.142-.674.728-1.12 1.663-1.12 1.033 0 1.62.544 1.62 1.457v.478h-1.87c-1.413 0-2.174.609-2.174 1.641 0 .978.772 1.576 1.946 1.576 1.12 0 1.783-.51 2.12-1.195v.195c-.022.652.25.935.902.935h.326v-.51h-.207zm-1.043-1.717c0 1.054-.75 1.815-2.055 1.815-.88 0-1.423-.446-1.423-1.13 0-.729.543-1.13 1.565-1.13h1.913v.445zm1.741.532c.044 1.142.968 1.761 2.348 1.761 1.185 0 2.141-.598 2.141-1.576 0-1.163-1.021-1.391-2.206-1.554-.859-.12-1.62-.218-1.62-.99 0-.63.62-1.043 1.555-1.043.88 0 1.51.424 1.608 1.141h.566c-.098-1.076-.979-1.62-2.174-1.62-1.229-.01-2.109.62-2.109 1.566 0 1.109 1.022 1.315 2.152 1.468.924.13 1.674.25 1.674 1.065 0 .652-.685 1.065-1.587 1.065-1.054 0-1.739-.49-1.782-1.283h-.566zm7.982 1.761c1.207 0 2.13-.782 2.37-1.891h-.566c-.217.859-.945 1.391-1.847 1.391-1.229 0-2-.935-2.022-2.217v-.098h4.5c0-.076.01-.163.01-.228-.054-1.642-1.065-2.598-2.543-2.598-1.51 0-2.543 1.152-2.543 2.782 0 1.729 1.076 2.86 2.64 2.86zm-2.022-3.282c.087-1.12.924-1.87 1.935-1.87 1.076 0 1.848.663 1.935 1.87h-3.87zm10.063-1.055c-.337-.782-1.076-1.304-2.108-1.304-1.511 0-2.598 1.152-2.598 2.815 0 1.74 1.087 2.826 2.598 2.826 1.032 0 1.75-.554 2.097-1.326L93.853 92h.478v-7.609h-.555v3.337zm-2.065 3.837c-1.228 0-2.076-.956-2.076-2.326 0-1.359.848-2.326 2.076-2.326 1.228 0 2.076.967 2.076 2.337 0 1.359-.848 2.315-2.076 2.315zm8.19.435h.598l1.631-4.63 1.554 4.63h.598l1.956-5.51h-.565l-1.695 4.847-1.577-4.848h-.51l-1.664 4.848-1.608-4.848h-.587L99.902 92zm7.396-6.674a.383.383 0 00.391-.391.383.383 0 00-.391-.392.383.383 0 00-.392.392c0 .228.174.391.392.391zM107.014 92h.554v-5.51h-.554V92zm2.271-1.283c0 .88.358 1.283 1.293 1.283h.804v-.51h-.76c-.577 0-.783-.218-.783-.783V87h1.489v-.51h-1.489v-1.544h-.554v1.543h-1.044V87h1.044v3.718zm5.484-4.293c-1.032 0-1.674.576-1.989 1.37V84.39h-.554V92h.554v-2.717c0-1.435.728-2.348 1.902-2.348 1.055 0 1.707.695 1.707 2V92h.554v-3.087c0-1.74-.924-2.49-2.174-2.49zM3.217 104.065c1.38 0 2.316-.837 2.511-1.935H4.554c-.163.62-.684.979-1.402.979-.924 0-1.522-.62-1.554-1.566v-.076h4.196c.021-.152.032-.304.032-.445-.032-1.63-1.109-2.653-2.717-2.653-1.642 0-2.74 1.142-2.74 2.859 0 1.707 1.098 2.837 2.848 2.837zm-1.576-3.456c.087-.794.729-1.294 1.479-1.294.815 0 1.39.468 1.489 1.294H1.64zM5.944 104h1.294l1.467-2.022L10.162 104h1.37l-2.098-2.848 1.978-2.717h-1.294l-1.358 1.88-1.326-1.88h-1.37l1.967 2.717L5.944 104zm6.636-1.511c0 1.011.457 1.511 1.522 1.511h1.087v-1.033h-.826c-.446 0-.598-.163-.598-.597v-2.903h1.359v-1.032h-1.359V96.88H12.58v1.555h-.967v1.032h.967v3.022zm5.88 1.576c1.38 0 2.316-.837 2.511-1.935h-1.174c-.163.62-.684.979-1.402.979-.924 0-1.521-.62-1.554-1.566v-.076h4.196c.021-.152.032-.304.032-.445-.032-1.63-1.108-2.653-2.717-2.653-1.642 0-2.74 1.142-2.74 2.859 0 1.707 1.098 2.837 2.848 2.837zm-1.576-3.456c.087-.794.729-1.294 1.479-1.294.815 0 1.391.468 1.489 1.294h-2.968zm8.07-2.24c-.903 0-1.436.36-1.784.794l-.13-.728h-1.022V104h1.174v-2.804c0-1.131.555-1.816 1.49-1.816.88 0 1.326.566 1.326 1.62v3h1.184v-3.098c0-1.859-1.01-2.532-2.239-2.532zm7.492.838c-.359-.49-.957-.837-1.805-.837-1.51 0-2.63 1.13-2.63 2.847 0 1.783 1.12 2.848 2.63 2.848.88 0 1.457-.413 1.816-.902l.14.837h1.023v-7.609h-1.174v2.816zm-1.609 3.869c-.978 0-1.62-.761-1.62-1.859 0-1.087.642-1.847 1.62-1.847.978 0 1.62.76 1.62 1.869 0 1.076-.642 1.837-1.62 1.837zm6.571.989c1.38 0 2.315-.837 2.511-1.935h-1.174c-.163.62-.685.979-1.402.979-.924 0-1.522-.62-1.554-1.566v-.076h4.195c.022-.152.033-.304.033-.445-.033-1.63-1.109-2.653-2.718-2.653-1.64 0-2.739 1.142-2.739 2.859 0 1.707 1.098 2.837 2.848 2.837zm-1.576-3.456c.087-.794.728-1.294 1.478-1.294.816 0 1.392.468 1.49 1.294h-2.968zm9.362-1.402c-.358-.49-.956-.837-1.804-.837-1.511 0-2.63 1.13-2.63 2.847 0 1.783 1.119 2.848 2.63 2.848.88 0 1.456-.413 1.815-.902l.141.837h1.022v-7.609h-1.174v2.816zm-1.608 3.869c-.979 0-1.62-.761-1.62-1.859 0-1.087.641-1.847 1.62-1.847.978 0 1.62.76 1.62 1.869 0 1.076-.642 1.837-1.62 1.837zm7.113-.587c0 1.011.456 1.511 1.521 1.511h1.087v-1.033h-.826c-.445 0-.598-.163-.598-.597v-2.903h1.36v-1.032h-1.36V96.88H50.7v1.555h-.968v1.032h.968v3.022zm6.17-4.054c-.913 0-1.358.37-1.64.837l-.131-.837h-1.044V104h1.174v-2.794c0-.858.337-1.673 1.38-1.673h.522v-1.098h-.26zm5.903 4.543c-.24 0-.36-.076-.36-.358v-2.229c0-1.315-.847-2.022-2.325-2.022-1.403 0-2.337.674-2.457 1.761h1.152c.087-.489.555-.815 1.25-.815.772 0 1.218.38 1.218 1v.337h-1.402c-1.555 0-2.38.641-2.38 1.783 0 1.032.847 1.63 2.064 1.63.903 0 1.468-.391 1.837-.956 0 .554.261.891 1.022.891h.62v-1.022h-.24zm-1.522-1.261c-.011.859-.576 1.435-1.555 1.435-.64 0-1.032-.326-1.032-.793 0-.566.402-.837 1.13-.837h1.457v.195zm6.586-2.51c-.359-.49-.957-.837-1.804-.837-1.511 0-2.63 1.13-2.63 2.847 0 1.783 1.119 2.848 2.63 2.848.88 0 1.456-.413 1.815-.902l.141.837h1.022v-7.609h-1.174v2.816zm-1.609 3.869c-.978 0-1.62-.761-1.62-1.859 0-1.087.642-1.847 1.62-1.847.978 0 1.62.76 1.62 1.869 0 1.076-.641 1.837-1.62 1.837zm4.528-5.424c.402 0 .717-.293.717-.706s-.315-.707-.717-.707c-.402 0-.718.293-.718.707 0 .413.316.706.718.706zM70.157 104h1.174v-5.565h-1.174V104zm5.26-5.63c-.903 0-1.435.358-1.783.793l-.13-.728h-1.022V104h1.174v-2.804c0-1.131.554-1.816 1.489-1.816.88 0 1.326.566 1.326 1.62v3h1.185v-3.098c0-1.859-1.011-2.532-2.24-2.532zm7.556.934c-.358-.554-.956-.934-1.826-.934-1.51 0-2.63 1.12-2.63 2.826 0 1.771 1.12 2.826 2.63 2.826.87 0 1.446-.359 1.816-.913v.619c0 1.065-.577 1.555-1.598 1.555-.826 0-1.37-.359-1.511-.979h-1.196c.109 1.25 1.141 1.935 2.62 1.935 2 0 2.847-.956 2.847-2.467v-5.337h-1.021l-.13.87zm-1.63 3.729c-.978 0-1.62-.75-1.62-1.837 0-1.076.642-1.837 1.62-1.837.978 0 1.62.761 1.62 1.858 0 1.066-.642 1.816-1.62 1.816zm9.635-4.663c-.87 0-1.402.39-1.75.87V96.39h-1.174V104h1.174v-2.815c0-1.12.565-1.805 1.489-1.805.87 0 1.337.566 1.337 1.62v3h1.174v-3.098c0-1.859-1.011-2.532-2.25-2.532zm5.905 5.695c1.696 0 2.837-1.141 2.837-2.848 0-1.695-1.14-2.847-2.837-2.847-1.695 0-2.837 1.152-2.837 2.847 0 1.707 1.142 2.848 2.837 2.848zm0-1c-.989 0-1.63-.772-1.63-1.848s.641-1.847 1.63-1.847c.99 0 1.642.771 1.642 1.847s-.652 1.848-1.642 1.848zm7.597-1.848c0 1.153-.544 1.826-1.435 1.826-.859 0-1.294-.554-1.294-1.641v-2.967h-1.174v3.098c0 1.902 1.011 2.532 2.196 2.532.859 0 1.37-.348 1.718-.772l.13.707h1.033v-5.565h-1.174v2.782zm5.146-2.782c-.913 0-1.359.37-1.642.837l-.13-.837h-1.044V104h1.174v-2.794c0-.858.337-1.673 1.381-1.673h.522v-1.098h-.261zm.65 3.728c.033 1.207 1.054 1.902 2.543 1.902 1.348 0 2.359-.674 2.359-1.739 0-1.239-1.032-1.5-2.304-1.652-.805-.087-1.337-.152-1.337-.674 0-.446.456-.728 1.152-.728s1.174.358 1.239.869h1.152c-.076-1.141-1.043-1.772-2.413-1.772-1.337-.01-2.282.674-2.282 1.729 0 1.152 1 1.424 2.271 1.576.859.109 1.37.152 1.37.75 0 .446-.478.728-1.207.728-.847 0-1.347-.413-1.391-.989h-1.152zm6.116 1.076c-.293 0-.478.185-.478.424 0 .261.174.391.38.391.109 0 .218-.043.272-.13a.393.393 0 01.098.283c0 .413-.261.836-.815.858v.326c.75-.032 1.217-.532 1.217-1.25 0-.5-.282-.902-.674-.902zM3.087 116.065c1.207 0 2.13-.782 2.37-1.891H4.89c-.217.859-.945 1.391-1.847 1.391-1.229 0-2-.935-2.022-2.217v-.098h4.5c0-.076.01-.163.01-.228-.054-1.642-1.065-2.598-2.543-2.598-1.51 0-2.543 1.152-2.543 2.782 0 1.729 1.076 2.859 2.641 2.859zm-2.022-3.282c.087-1.12.924-1.87 1.935-1.87 1.076 0 1.848.663 1.935 1.87h-3.87zM5.85 116h.642l1.826-2.424L10.144 116h.674l-2.142-2.815 2.033-2.696h-.63l-1.74 2.283-1.717-2.283H5.96l2.033 2.696L5.85 116zm7.894.065c1.25 0 2.13-.717 2.348-1.837h-.587c-.185.815-.848 1.337-1.761 1.337-1.207 0-2.044-.945-2.044-2.315s.826-2.337 2.044-2.337c.924 0 1.576.522 1.771 1.348h.576c-.228-1.141-1.087-1.837-2.337-1.837-1.554 0-2.62 1.152-2.62 2.826 0 1.696 1.055 2.815 2.61 2.815zm3.425-.065h.554v-7.609h-.554V116zm5.858-2.804c0 1.445-.718 2.358-1.859 2.358-1.022 0-1.652-.695-1.652-2.011v-3.054h-.555v3.087c0 1.728.903 2.489 2.12 2.489.978 0 1.62-.522 1.935-1.228l.076 1.163h.49v-5.511h-.555v2.707zm1.61 1.108c.043 1.142.966 1.761 2.347 1.761 1.185 0 2.141-.598 2.141-1.576 0-1.163-1.021-1.391-2.206-1.554-.859-.12-1.62-.218-1.62-.989 0-.631.62-1.044 1.555-1.044.88 0 1.51.424 1.608 1.141h.565c-.097-1.076-.978-1.619-2.174-1.619-1.228-.011-2.108.619-2.108 1.565 0 1.109 1.021 1.315 2.152 1.467.924.131 1.674.25 1.674 1.066 0 .652-.685 1.065-1.587 1.065-1.054 0-1.74-.489-1.783-1.283h-.565zm5.829-4.978a.383.383 0 00.39-.391.383.383 0 00-.39-.392.383.383 0 00-.392.392c0 .228.174.391.392.391zM30.183 116h.554v-5.511h-.554V116zm3.455 0h.663l2.153-5.511h-.576l-1.892 4.87-1.902-4.87h-.598L33.638 116zm5.773.065c1.207 0 2.13-.782 2.37-1.891h-.565c-.218.859-.946 1.391-1.848 1.391-1.228 0-2-.935-2.022-2.217v-.098h4.5c0-.076.011-.163.011-.228-.054-1.642-1.065-2.598-2.544-2.598-1.51 0-2.543 1.152-2.543 2.782 0 1.729 1.076 2.859 2.641 2.859zm-2.021-3.282c.087-1.12.923-1.87 1.934-1.87 1.077 0 1.848.663 1.935 1.87h-3.87zm8.905 1.934c0 .881.36 1.283 1.294 1.283h.804v-.511h-.76c-.577 0-.783-.217-.783-.782V111h1.489v-.511h-1.49v-1.543h-.553v1.543h-1.044V111h1.043v3.717zm5.207 1.348c1.554 0 2.652-1.152 2.652-2.826 0-1.663-1.098-2.815-2.652-2.815-1.555 0-2.642 1.152-2.642 2.815 0 1.674 1.087 2.826 2.642 2.826zm0-.5c-1.229 0-2.076-.956-2.076-2.326 0-1.359.847-2.326 2.076-2.326 1.228 0 2.076.967 2.076 2.326 0 1.37-.848 2.326-2.076 2.326zm10.031.5c1.63 0 2.783-.88 3.109-2.413h-.62c-.326 1.218-1.206 1.87-2.5 1.87-1.76 0-2.87-1.381-2.87-3.326 0-1.946 1.131-3.327 2.892-3.327 1.272 0 2.163.664 2.5 1.859h.62c-.338-1.522-1.49-2.402-3.087-2.402-2.142 0-3.533 1.587-3.533 3.87 0 2.304 1.359 3.869 3.489 3.869zm4.525-6.739a.383.383 0 00.39-.391.383.383 0 00-.39-.392.383.383 0 00-.392.392c0 .228.174.391.392.391zM65.775 116h.554v-5.511h-.554V116zm2.27-1.283c0 .881.36 1.283 1.294 1.283h.804v-.511h-.76c-.577 0-.783-.217-.783-.782V111h1.489v-.511h-1.49v-1.543h-.553v1.543h-1.044V111h1.044v3.717zM72.64 116l-.359.891c-.25.609-.348.772-.913.772h-.695v.511h.847c.74 0 .913-.283 1.261-1.152l2.642-6.533h-.598l-1.88 4.794-1.914-4.794h-.598L72.64 116zm6.588 0h.587v-7.609h-.587V116zm4.568-5.576c-1.01 0-1.663.522-1.978 1.239l-.087-1.174h-.479V116h.555v-2.717c0-1.435.728-2.348 1.902-2.348 1.065 0 1.707.695 1.707 2V116h.554v-3.087c0-1.739-.924-2.489-2.174-2.489zm7.816 1.304c-.337-.782-1.076-1.304-2.109-1.304-1.51 0-2.598 1.152-2.598 2.815 0 1.739 1.087 2.826 2.598 2.826 1.033 0 1.75-.554 2.098-1.326l.087 1.261h.478v-7.609h-.554v3.337zm-2.065 3.837c-1.229 0-2.076-.956-2.076-2.326 0-1.359.847-2.326 2.076-2.326 1.228 0 2.076.967 2.076 2.337 0 1.359-.848 2.315-2.076 2.315zm6.358.5c1.207 0 2.13-.782 2.37-1.891h-.566c-.217.859-.945 1.391-1.847 1.391-1.229 0-2-.935-2.022-2.217v-.098h4.5c0-.076.01-.163.01-.228-.054-1.642-1.065-2.598-2.543-2.598-1.51 0-2.543 1.152-2.543 2.782 0 1.729 1.076 2.859 2.641 2.859zm-2.022-3.282c.087-1.12.924-1.87 1.935-1.87 1.076 0 1.848.663 1.935 1.87h-3.87zM98.667 116h.642l1.826-2.424 1.826 2.424h.674l-2.141-2.815 2.032-2.696h-.63l-1.739 2.283-1.718-2.283h-.663l2.033 2.696L98.667 116zm5.596-.359c0 .25.174.413.413.413a.394.394 0 00.413-.413c0-.25-.174-.402-.413-.402s-.413.152-.413.402zM2.673 62h1.58l1.514-4.702L7.227 62h1.566l2.297-6.917H9.604l-1.635 5.296-1.513-5.296H5.118l-1.58 5.296-1.581-5.296H.417L2.673 62zm12.82-6.999c-1.081 0-1.743.487-2.175 1.081v-3.54h-1.46V62h1.46v-3.5c0-1.39.702-2.242 1.85-2.242 1.081 0 1.662.703 1.662 2.013V62h1.46v-3.85c0-2.31-1.257-3.149-2.797-3.149zm7.354 7.08c1.716 0 2.878-1.04 3.12-2.405H24.51c-.203.77-.852 1.216-1.743 1.216-1.149 0-1.892-.77-1.932-1.945v-.095h5.215c.027-.19.04-.378.04-.554-.04-2.027-1.378-3.297-3.377-3.297-2.04 0-3.405 1.419-3.405 3.554 0 2.12 1.365 3.526 3.54 3.526zm-1.96-4.296c.109-.987.906-1.608 1.838-1.608 1.013 0 1.73.58 1.851 1.608h-3.688zM30.918 55c-1.121 0-1.783.446-2.216.987l-.162-.905h-1.27V62h1.46v-3.486c0-1.405.688-2.256 1.85-2.256 1.095 0 1.648.703 1.648 2.013V62H33.7v-3.85c0-2.31-1.256-3.149-2.783-3.149zm10.837 7.08c2.107 0 3.526-1.419 3.526-3.54 0-2.107-1.419-3.54-3.526-3.54-2.108 0-3.527 1.433-3.527 3.54 0 2.121 1.419 3.54 3.527 3.54zm0-1.243c-1.23 0-2.027-.96-2.027-2.297 0-1.337.797-2.297 2.027-2.297s2.04.96 2.04 2.297c0 1.338-.81 2.297-2.04 2.297zm5.146-.716c0 1.257.568 1.878 1.892 1.878h1.351v-1.283h-1.027c-.554 0-.743-.203-.743-.744v-3.607h1.689v-1.283h-1.689V53.15H46.9v1.933h-1.202v1.283H46.9v3.756zm7.806-5.12c-1.081 0-1.743.486-2.176 1.08v-3.54h-1.459V62h1.46v-3.5c0-1.39.702-2.242 1.85-2.242 1.081 0 1.662.703 1.662 2.013V62h1.46v-3.85c0-2.31-1.257-3.149-2.797-3.149zm7.354 7.08c1.716 0 2.878-1.041 3.12-2.406h-1.458c-.203.77-.852 1.216-1.743 1.216-1.149 0-1.892-.77-1.932-1.945v-.095h5.215c.027-.19.04-.378.04-.554-.04-2.027-1.378-3.297-3.377-3.297-2.04 0-3.405 1.419-3.405 3.554 0 2.12 1.364 3.526 3.54 3.526zm-1.96-4.297c.109-.987.906-1.608 1.838-1.608 1.014 0 1.73.58 1.851 1.608h-3.688zm9.881-2.702c-1.135 0-1.689.459-2.04 1.04l-.162-1.04h-1.297V62h1.46v-3.472c0-1.068.418-2.08 1.715-2.08h.649v-1.365h-.325zm.809 4.634c.04 1.5 1.31 2.364 3.161 2.364 1.675 0 2.932-.838 2.932-2.162 0-1.54-1.284-1.864-2.864-2.053-1-.108-1.662-.19-1.662-.838 0-.554.567-.905 1.432-.905s1.46.446 1.54 1.08h1.432c-.094-1.418-1.297-2.202-3-2.202-1.66-.013-2.836.838-2.836 2.149 0 1.432 1.243 1.77 2.823 1.959 1.068.135 1.703.189 1.703.932 0 .554-.595.905-1.5.905-1.054 0-1.675-.513-1.73-1.23H70.79zm13.856 2.364c1.77 0 2.945-.986 3.215-2.553h-1.54c-.176.797-.77 1.31-1.662 1.31-1.175 0-1.946-.932-1.946-2.283 0-1.365.77-2.31 1.946-2.31.905 0 1.486.5 1.675 1.31h1.527c-.284-1.567-1.392-2.554-3.175-2.554-2.094 0-3.472 1.419-3.472 3.554 0 2.162 1.337 3.526 3.432 3.526zM95.3 60.73c-.297 0-.446-.095-.446-.446v-2.77c0-1.634-1.054-2.513-2.891-2.513-1.743 0-2.905.838-3.054 2.19h1.433c.108-.609.689-1.014 1.553-1.014.96 0 1.513.473 1.513 1.243v.419h-1.742c-1.932 0-2.96.797-2.96 2.215 0 1.284 1.055 2.027 2.568 2.027 1.121 0 1.824-.486 2.283-1.189 0 .69.324 1.108 1.27 1.108h.77v-1.27h-.297zm-1.892-1.567c-.013 1.067-.716 1.783-1.931 1.783-.798 0-1.284-.405-1.284-.986 0-.703.5-1.04 1.405-1.04h1.81v.243zM100.041 55c-1.121 0-1.783.446-2.216.987l-.162-.905h-1.27V62h1.46v-3.486c0-1.405.688-2.256 1.85-2.256 1.095 0 1.649.703 1.649 2.013V62h1.472v-3.85c0-2.31-1.256-3.149-2.783-3.149zm4.456-2.54c-.622 0-1.027.406-1.027.92 0 .567.351.864.797.864a.739.739 0 00.446-.149.861.861 0 01.014.19c0 .472-.338 1-1.189 1v.796c1.337-.013 2.175-.756 2.175-2.067 0-.878-.473-1.554-1.216-1.554zm3.11 7.661c0 1.257.567 1.878 1.891 1.878h1.351v-1.283h-1.027c-.554 0-.743-.203-.743-.744v-3.607h1.689v-1.283h-1.689V53.15h-1.472v1.933h-1.203v1.283h1.203v3.756zm4.115 1.04c0 .54.391.92.932.92.54 0 .945-.38.945-.92s-.405-.918-.945-.918c-.541 0-.932.378-.932.918z" fill="#000"/><path d="M.483 5.553h5.218V20H8.48V5.553h5.218V3.09H.483v2.464zM24.925 17.73c-.531 0-.797-.169-.797-.797V11.98c0-2.924-1.884-4.494-5.17-4.494-3.116 0-5.194 1.498-5.46 3.914h2.561c.193-1.088 1.232-1.812 2.778-1.812 1.715 0 2.706.845 2.706 2.222v.75h-3.116c-3.455 0-5.291 1.425-5.291 3.961 0 2.295 1.884 3.624 4.59 3.624 2.005 0 3.261-.87 4.083-2.126 0 1.232.58 1.981 2.27 1.981h1.378v-2.27h-.532zm-3.382-2.802c-.024 1.908-1.28 3.189-3.455 3.189-1.425 0-2.295-.725-2.295-1.764 0-1.256.894-1.86 2.513-1.86h3.237v.435zM26.878 20h2.609v-3.14l2.222-2.32L35.357 20h3.093l-4.953-7.368L38.16 7.63h-3.068l-5.605 5.991V3.09h-2.61V20zm17.926.145c3.068 0 5.145-1.86 5.58-4.3h-2.609c-.362 1.377-1.522 2.174-3.116 2.174-2.054 0-3.382-1.377-3.455-3.479v-.169h9.325a7.09 7.09 0 00.073-.99c-.073-3.624-2.464-5.895-6.04-5.895-3.648 0-6.088 2.537-6.088 6.354 0 3.793 2.44 6.305 6.33 6.305zM41.3 12.463c.193-1.764 1.618-2.875 3.285-2.875 1.812 0 3.093 1.039 3.31 2.875h-6.595zm28.897 5.266c-.531 0-.797-.169-.797-.797V11.98c0-2.924-1.884-4.494-5.17-4.494-3.116 0-5.194 1.498-5.46 3.914h2.561c.193-1.088 1.232-1.812 2.778-1.812 1.716 0 2.706.845 2.706 2.222v.75H63.7c-3.455 0-5.291 1.425-5.291 3.961 0 2.295 1.884 3.624 4.59 3.624 2.005 0 3.261-.87 4.083-2.126 0 1.232.58 1.981 2.27 1.981h1.378v-2.27h-.532zm-3.382-2.802c-.024 1.908-1.28 3.189-3.455 3.189-1.425 0-2.295-.725-2.295-1.764 0-1.256.894-1.86 2.513-1.86h3.237v.435zM7.9 29.486c-1.933 0-3.213.894-4.035 1.981l-.314-1.836h-2.27v17.2h2.608v-6.57c.774 1.11 2.102 1.884 4.01 1.884 3.383 0 5.847-2.513 5.847-6.33 0-3.961-2.464-6.329-5.846-6.329zm-.435 10.46c-2.174 0-3.6-1.715-3.6-4.179 0-2.392 1.426-4.058 3.6-4.058 2.174 0 3.624 1.667 3.624 4.107 0 2.415-1.45 4.13-3.624 4.13zm14.218 2.199c3.769 0 6.305-2.537 6.305-6.33 0-3.768-2.536-6.329-6.305-6.329-3.769 0-6.305 2.56-6.305 6.33 0 3.792 2.536 6.329 6.305 6.329zm0-2.223c-2.198 0-3.624-1.715-3.624-4.106 0-2.392 1.426-4.107 3.624-4.107 2.198 0 3.648 1.715 3.648 4.107 0 2.391-1.45 4.106-3.648 4.106zm7.801-2.005c.072 2.682 2.343 4.228 5.653 4.228 2.996 0 5.242-1.498 5.242-3.865 0-2.754-2.295-3.334-5.121-3.672-1.788-.194-2.972-.339-2.972-1.498 0-.99 1.015-1.619 2.561-1.619s2.61.797 2.754 1.933h2.561c-.17-2.537-2.32-3.938-5.363-3.938-2.972-.024-5.073 1.498-5.073 3.841 0 2.561 2.222 3.165 5.049 3.503 1.908.242 3.044.338 3.044 1.667 0 .99-1.063 1.619-2.682 1.619-1.884 0-2.996-.918-3.092-2.199h-2.561zM43.73 27.892c.894 0 1.595-.653 1.595-1.57 0-.919-.701-1.571-1.595-1.571s-1.594.652-1.594 1.57.7 1.57 1.594 1.57zM42.401 42h2.61V29.631H42.4V42zm6.06-3.358c0 2.247 1.016 3.358 3.383 3.358h2.416v-2.295h-1.836c-.99 0-1.329-.362-1.329-1.329v-6.45h3.02v-2.295h-3.02v-3.455h-2.633v3.455h-2.15v2.295h2.15v6.716zm8.787-10.75c.894 0 1.595-.653 1.595-1.57 0-.919-.7-1.571-1.595-1.571-.894 0-1.594.652-1.594 1.57s.7 1.57 1.594 1.57zM55.92 42h2.609V29.631h-2.61V42zm11.013.145c3.768 0 6.305-2.537 6.305-6.33 0-3.768-2.537-6.329-6.305-6.329-3.77 0-6.306 2.56-6.306 6.33 0 3.792 2.537 6.329 6.306 6.329zm0-2.223c-2.199 0-3.624-1.715-3.624-4.106 0-2.392 1.425-4.107 3.624-4.107 2.198 0 3.647 1.715 3.647 4.107 0 2.391-1.45 4.106-3.647 4.106zm14.926-10.436c-2.006 0-3.19.797-3.962 1.764l-.29-1.619h-2.271V42h2.609v-6.233c0-2.512 1.232-4.034 3.31-4.034 1.956 0 2.947 1.256 2.947 3.6V42h2.633v-6.885c0-4.131-2.246-5.629-4.976-5.629z" fill="url(#paint0_linear_10_111)"/><defs><linearGradient id="paint0_linear_10_111" x1="107.742" y1="24" x2="0" y2="24" gradientUnits="userSpaceOnUse"><stop stop-color="#FF4343"/><stop offset=".5" stop-color="#9C0B93"/><stop offset="1" stop-color="#4C1BB7"/></linearGradient></defs></svg>