<svg width="601" height="92" viewBox="0 0 601 92" fill="none" xmlns="http://www.w3.org/2000/svg"><path d="M.292 59.51h3.504V69h.788v-9.49h3.504v-.73H.292v.73zm11.191 2.088c-1.372 0-1.956.657-2.263 1.474l-.116-1.474H8.46V69h.745v-3.752c0-1.504.394-2.935 2.131-2.935h.54v-.715h-.394zm7.696 6.716c-.438 0-.657-.146-.657-.716v-3.445c0-1.694-1.037-2.643-2.891-2.643-1.694 0-2.818.818-3.008 2.161h.745c.19-.905.978-1.504 2.234-1.504 1.387 0 2.175.73 2.175 1.957v.642h-2.511c-1.898 0-2.92.818-2.92 2.205 0 1.314 1.037 2.117 2.613 2.117 1.504 0 2.395-.687 2.847-1.606v.262c-.029.876.336 1.256 1.212 1.256h.438v-.686h-.277zm-1.402-2.307c0 1.416-1.007 2.438-2.76 2.438-1.182 0-1.912-.598-1.912-1.518 0-.978.73-1.519 2.103-1.519h2.57v.599zm8.605-2.745c-.452-1.051-1.445-1.752-2.832-1.752-2.03 0-3.49 1.548-3.49 3.782 0 2.336 1.46 3.796 3.49 3.796 1.387 0 2.35-.745 2.818-1.782L26.485 69h.642V58.78h-.745v4.482zm-2.774 5.154c-1.65 0-2.788-1.285-2.788-3.124 0-1.825 1.139-3.125 2.788-3.125 1.65 0 2.789 1.3 2.789 3.14 0 1.824-1.139 3.109-2.789 3.109zm8.54.672c1.621 0 2.862-1.052 3.183-2.54h-.759c-.292 1.153-1.27 1.868-2.482 1.868-1.65 0-2.686-1.256-2.715-2.978v-.132h6.044c0-.102.015-.219.015-.306-.073-2.205-1.431-3.49-3.417-3.49-2.03 0-3.416 1.548-3.416 3.738 0 2.321 1.445 3.84 3.548 3.84zm-2.715-4.41c.117-1.503 1.241-2.51 2.599-2.51 1.445 0 2.482.89 2.599 2.51h-5.198zm11.408-.058c0 2.905 1.372 4.468 4.015 4.468 2.657 0 4.044-1.563 4.044-4.468v-5.84h-1.68v5.928c0 1.898-.73 2.89-2.364 2.89-1.606 0-2.336-.992-2.336-2.89V58.78h-1.68v5.84zm9.459 1.022c.058 2.044 1.591 3.446 4.131 3.446 2.249 0 3.782-1.27 3.782-3.11.014-2.015-1.635-2.555-3.329-2.862-1.606-.277-2.657-.496-2.657-1.547 0-.964.803-1.46 1.956-1.46 1.241 0 2.059.7 2.19 1.737h1.68c-.074-1.883-1.534-3.154-3.87-3.154-2.175 0-3.635 1.212-3.635 2.993 0 2.03 1.606 2.57 3.3 2.862 1.62.292 2.686.526 2.686 1.606 0 .978-.876 1.518-2.088 1.518-1.43 0-2.365-.803-2.453-2l-1.693-.029zm13.506 1.329c0 1.357.613 2.029 2.044 2.029h1.46v-1.387H66.2c-.598 0-.803-.219-.803-.803v-3.898h1.825v-1.387h-1.825v-2.088h-1.591v2.088h-1.3v1.387h1.3v4.059zm7.898 2.117c1.854 0 3.11-1.125 3.373-2.6H73.5c-.22.833-.92 1.315-1.884 1.315-1.24 0-2.044-.832-2.087-2.103v-.102h5.635c.03-.204.044-.409.044-.598-.044-2.19-1.49-3.563-3.65-3.563-2.205 0-3.68 1.533-3.68 3.84 0 2.292 1.475 3.81 3.826 3.81zm-2.117-4.643c.117-1.066.978-1.738 1.986-1.738 1.095 0 1.868.628 2 1.738h-3.986zm10.327 4.643c1.912 0 3.183-1.066 3.475-2.76h-1.665c-.19.862-.832 1.416-1.796 1.416-1.27 0-2.102-1.007-2.102-2.467 0-1.475.832-2.497 2.102-2.497.979 0 1.606.54 1.81 1.417h1.65c-.306-1.694-1.503-2.76-3.43-2.76-2.263 0-3.753 1.533-3.753 3.84 0 2.336 1.446 3.81 3.709 3.81zm8.609-7.65c-1.168 0-1.883.525-2.35 1.167V58.78h-1.578V69h1.577v-3.781c0-1.504.76-2.424 2-2.424 1.169 0 1.796.76 1.796 2.175V69h1.577v-4.161c0-2.497-1.358-3.402-3.022-3.402zm11.739 7.65c1.855 0 3.11-1.125 3.373-2.6h-1.577c-.219.833-.92 1.315-1.883 1.315-1.241 0-2.044-.832-2.088-2.103v-.102h5.636a4.31 4.31 0 00.043-.598c-.043-2.19-1.489-3.563-3.65-3.563-2.204 0-3.679 1.533-3.679 3.84 0 2.292 1.475 3.81 3.825 3.81zm-2.117-4.643c.117-1.066.979-1.738 1.986-1.738 1.095 0 1.869.628 2 1.738h-3.986zm13.729 3.183c-.321 0-.482-.103-.482-.482v-2.993c0-1.767-1.139-2.716-3.124-2.716-1.884 0-3.139.905-3.3 2.365h1.548c.117-.657.744-1.095 1.679-1.095 1.036 0 1.635.511 1.635 1.344v.452h-1.883c-2.088 0-3.198.862-3.198 2.395 0 1.387 1.139 2.19 2.774 2.19 1.212 0 1.971-.526 2.468-1.285 0 .744.35 1.197 1.372 1.197h.832v-1.372h-.321zm-2.044-1.694c-.015 1.153-.774 1.927-2.088 1.927-.861 0-1.387-.438-1.387-1.066 0-.759.54-1.124 1.519-1.124h1.956v.263zm7.005-4.41c-1.226 0-1.825.497-2.204 1.125l-.175-1.124h-1.402V69h1.577v-3.752c0-1.154.452-2.249 1.854-2.249h.701v-1.474h-.351zm5.265-.087c-1.211 0-1.927.482-2.394 1.066l-.175-.978h-1.373V69h1.577v-3.767c0-1.518.745-2.438 2-2.438 1.183 0 1.782.76 1.782 2.175V69h1.591v-4.161c0-2.497-1.358-3.402-3.008-3.402zm5.245-.963c.54 0 .964-.395.964-.95 0-.554-.424-.948-.964-.948s-.964.394-.964.949c0 .554.424.949.964.949zM126.542 69h1.577v-7.475h-1.577V69zm7.064-7.563c-1.211 0-1.927.482-2.394 1.066l-.175-.978h-1.373V69h1.577v-3.767c0-1.518.745-2.438 2-2.438 1.183 0 1.782.76 1.782 2.175V69h1.591v-4.161c0-2.497-1.358-3.402-3.008-3.402zm10.151 1.256c-.482-.745-1.285-1.256-2.453-1.256-2.03 0-3.533 1.504-3.533 3.796 0 2.38 1.503 3.796 3.533 3.796 1.168 0 1.942-.482 2.438-1.226v.832c0 1.43-.774 2.088-2.146 2.088-1.11 0-1.84-.482-2.03-1.314h-1.606c.146 1.679 1.533 2.599 3.519 2.599 2.686 0 3.825-1.285 3.825-3.315v-7.168h-1.372l-.175 1.168zm-2.19 5.008c-1.314 0-2.176-1.008-2.176-2.468 0-1.445.862-2.467 2.176-2.467s2.175 1.022 2.175 2.496c0 1.431-.861 2.439-2.175 2.439zm4.957-1.168c.044 1.62 1.416 2.555 3.416 2.555 1.811 0 3.168-.906 3.168-2.336 0-1.665-1.387-2.015-3.095-2.22-1.08-.116-1.796-.204-1.796-.905 0-.598.614-.978 1.548-.978s1.577.482 1.664 1.168h1.548c-.102-1.533-1.402-2.38-3.241-2.38-1.796-.014-3.066.905-3.066 2.322 0 1.547 1.343 1.912 3.051 2.117 1.154.146 1.84.204 1.84 1.007 0 .599-.643.978-1.621.978-1.139 0-1.81-.555-1.869-1.328h-1.547zM160.164 69h.803l2.19-6.22 2.087 6.22h.803l2.628-7.402h-.759l-2.277 6.511-2.117-6.511h-.687l-2.233 6.511-2.161-6.511h-.789L160.164 69zm9.933-8.964a.514.514 0 00.525-.526.514.514 0 00-.525-.526.515.515 0 00-.526.526c0 .307.234.526.526.526zm-.38 8.964h.745v-7.402h-.745V69zm3.05-1.723c0 1.183.482 1.723 1.737 1.723h1.081v-.686h-1.022c-.774 0-1.051-.292-1.051-1.051v-4.979h2v-.686h-2v-2.073h-.745v2.073h-1.402v.686h1.402v4.993zm7.367-5.767c-1.387 0-2.248.774-2.672 1.84v-4.57h-.744V69h.744v-3.65c0-1.927.978-3.154 2.555-3.154 1.416 0 2.292.935 2.292 2.687V69h.745v-4.146c0-2.336-1.241-3.344-2.92-3.344zm11.54.088c-1.373 0-1.957.657-2.263 1.474l-.117-1.474h-.643V69h.745v-3.752c0-1.504.394-2.935 2.132-2.935h.54v-.715h-.394zm4.24 7.49c1.621 0 2.862-1.052 3.183-2.54h-.759c-.292 1.153-1.271 1.868-2.482 1.868-1.65 0-2.687-1.256-2.716-2.978v-.132h6.044c0-.102.015-.219.015-.306-.073-2.205-1.431-3.49-3.416-3.49-2.03 0-3.417 1.548-3.417 3.738 0 2.321 1.446 3.84 3.548 3.84zm-2.716-4.41c.117-1.503 1.241-2.51 2.599-2.51 1.446 0 2.482.89 2.599 2.51h-5.198zm13.517-1.416c-.452-1.051-1.445-1.752-2.832-1.752-2.03 0-3.49 1.548-3.49 3.782 0 2.336 1.46 3.796 3.49 3.796 1.387 0 2.35-.745 2.818-1.782l.116 1.694h.643V58.78h-.745v4.482zm-2.774 5.154c-1.65 0-2.788-1.285-2.788-3.124 0-1.825 1.138-3.125 2.788-3.125s2.789 1.3 2.789 3.14c0 1.824-1.139 3.109-2.789 3.109zm10.643-3.183c0 1.942-.964 3.168-2.497 3.168-1.372 0-2.219-.934-2.219-2.7v-4.103h-.744v4.146c0 2.322 1.211 3.344 2.847 3.344 1.314 0 2.175-.701 2.598-1.65l.103 1.562h.657v-7.402h-.745v3.635zm5.724 3.855c1.679 0 2.862-.964 3.154-2.468h-.789c-.248 1.095-1.139 1.796-2.365 1.796-1.621 0-2.745-1.27-2.745-3.11 0-1.84 1.11-3.139 2.745-3.139 1.241 0 2.117.701 2.38 1.81h.774c-.307-1.532-1.46-2.467-3.139-2.467-2.088 0-3.519 1.548-3.519 3.796 0 2.278 1.416 3.782 3.504 3.782zm7.871 0c1.621 0 2.862-1.052 3.183-2.54h-.759c-.292 1.153-1.27 1.868-2.482 1.868-1.65 0-2.686-1.256-2.716-2.978v-.132h6.045c0-.102.014-.219.014-.306-.073-2.205-1.43-3.49-3.416-3.49-2.029 0-3.416 1.548-3.416 3.738 0 2.321 1.445 3.84 3.547 3.84zm-2.715-4.41c.117-1.503 1.241-2.51 2.599-2.51 1.445 0 2.482.89 2.598 2.51h-5.197zm13.517-1.416c-.453-1.051-1.446-1.752-2.833-1.752-2.029 0-3.489 1.548-3.489 3.782 0 2.336 1.46 3.796 3.489 3.796 1.387 0 2.351-.745 2.818-1.782l.117 1.694h.642V58.78h-.744v4.482zm-2.774 5.154c-1.65 0-2.789-1.285-2.789-3.124 0-1.825 1.139-3.125 2.789-3.125 1.649 0 2.788 1.3 2.788 3.14 0 1.824-1.139 3.109-2.788 3.109zm12.431.672c1.679 0 2.862-.964 3.154-2.468h-.788c-.249 1.095-1.139 1.796-2.366 1.796-1.62 0-2.744-1.27-2.744-3.11 0-1.84 1.109-3.139 2.744-3.139 1.241 0 2.117.701 2.38 1.81h.774c-.307-1.532-1.46-2.467-3.139-2.467-2.088 0-3.519 1.548-3.519 3.796 0 2.278 1.417 3.782 3.504 3.782zm7.872 0c2.087 0 3.562-1.548 3.562-3.796 0-2.234-1.475-3.782-3.562-3.782-2.088 0-3.548 1.548-3.548 3.782 0 2.248 1.46 3.796 3.548 3.796zm0-.672c-1.65 0-2.789-1.285-2.789-3.124 0-1.825 1.139-3.125 2.789-3.125 1.649 0 2.788 1.3 2.788 3.125 0 1.84-1.139 3.124-2.788 3.124zm13.305-6.906c-1.358 0-2.234.76-2.657 1.854-.35-1.226-1.27-1.854-2.438-1.854-1.27 0-2.03.745-2.409 1.665l-.117-1.577h-.642V69h.744v-3.767c0-1.81.876-3.037 2.292-3.037 1.285 0 2.088.906 2.088 2.614V69h.745v-4.03c.044-1.693.92-2.774 2.307-2.774 1.284 0 2.058.862 2.058 2.54V69h.759v-4.292c0-2.234-1.182-3.198-2.73-3.198zm12.647 0c-1.358 0-2.234.76-2.657 1.854-.351-1.226-1.271-1.854-2.439-1.854-1.27 0-2.029.745-2.409 1.665l-.116-1.577h-.643V69h.745v-3.767c0-1.81.876-3.037 2.292-3.037 1.285 0 2.088.906 2.088 2.614V69h.744v-4.03c.044-1.693.92-2.774 2.307-2.774 1.285 0 2.059.862 2.059 2.54V69h.759v-4.292c0-2.234-1.183-3.198-2.73-3.198zm4.763-1.474a.514.514 0 00.525-.526.514.514 0 00-.525-.526.515.515 0 00-.526.526c0 .307.234.526.526.526zm-.38 8.964h.745v-7.402h-.745V69zm2.159-2.278c.059 1.533 1.3 2.366 3.154 2.366 1.591 0 2.876-.803 2.876-2.117 0-1.563-1.372-1.87-2.964-2.088-1.153-.16-2.175-.292-2.175-1.329 0-.847.832-1.401 2.088-1.401 1.182 0 2.029.569 2.16 1.533h.76c-.132-1.446-1.314-2.176-2.92-2.176-1.65-.014-2.833.832-2.833 2.103 0 1.489 1.373 1.766 2.891 1.97 1.241.176 2.248.336 2.248 1.431 0 .876-.919 1.431-2.131 1.431-1.416 0-2.336-.657-2.395-1.723h-.759zm6.972 0c.059 1.533 1.3 2.366 3.154 2.366 1.591 0 2.876-.803 2.876-2.117 0-1.563-1.372-1.87-2.964-2.088-1.153-.16-2.175-.292-2.175-1.329 0-.847.832-1.401 2.088-1.401 1.182 0 2.029.569 2.161 1.533h.759c-.132-1.446-1.314-2.176-2.92-2.176-1.65-.014-2.833.832-2.833 2.103 0 1.489 1.373 1.766 2.891 1.97 1.241.176 2.249.336 2.249 1.431 0 .876-.92 1.431-2.132 1.431-1.416 0-2.336-.657-2.394-1.723h-.76zm7.83-6.686a.515.515 0 00.526-.526.515.515 0 00-.526-.526.514.514 0 00-.525.526c0 .307.233.526.525.526zM303.427 69h.744v-7.402h-.744V69zm5.765.088c2.088 0 3.563-1.548 3.563-3.796 0-2.234-1.475-3.782-3.563-3.782s-3.548 1.548-3.548 3.782c0 2.248 1.46 3.796 3.548 3.796zm0-.672c-1.65 0-2.788-1.285-2.788-3.124 0-1.825 1.138-3.125 2.788-3.125s2.789 1.3 2.789 3.125c0 1.84-1.139 3.124-2.789 3.124zm8.459-6.906c-1.358 0-2.234.701-2.658 1.665l-.116-1.577h-.643V69h.745v-3.65c0-1.927.978-3.154 2.555-3.154 1.431 0 2.292.935 2.292 2.687V69h.745v-4.146c0-2.336-1.241-3.344-2.92-3.344zm15.014 6.804c-.438 0-.657-.146-.657-.716v-3.445c0-1.694-1.036-2.643-2.89-2.643-1.694 0-2.818.818-3.008 2.161h.745c.189-.905.978-1.504 2.233-1.504 1.387 0 2.176.73 2.176 1.957v.642h-2.511c-1.898 0-2.92.818-2.92 2.205 0 1.314 1.036 2.117 2.613 2.117 1.504 0 2.394-.687 2.847-1.606v.262c-.029.876.336 1.256 1.212 1.256h.438v-.686h-.278zm-1.401-2.307c0 1.416-1.008 2.438-2.76 2.438-1.182 0-1.912-.598-1.912-1.518 0-.978.73-1.519 2.102-1.519h2.57v.599zm3.229 1.27c0 1.183.482 1.723 1.738 1.723h1.08v-.686h-1.022c-.774 0-1.051-.292-1.051-1.051v-4.979h2v-.686h-2v-2.073h-.745v2.073h-1.401v.686h1.401v4.993zm8.339-7.241a.514.514 0 00.525-.526.514.514 0 00-.525-.526.515.515 0 00-.526.526c0 .307.234.526.526.526zm-2.263 11.884h.905c1.241 0 1.737-.54 1.737-1.723v-8.6h-.744v8.615c0 .73-.278 1.022-1.022 1.022h-.876v.686zm9.764-6.687c0 1.942-.964 3.168-2.497 3.168-1.372 0-2.219-.934-2.219-2.7v-4.103h-.745v4.146c0 2.322 1.212 3.344 2.847 3.344 1.314 0 2.176-.701 2.599-1.65L350.42 69h.657v-7.402h-.744v3.635zm2.161 1.49c.059 1.532 1.3 2.365 3.154 2.365 1.591 0 2.876-.803 2.876-2.117 0-1.563-1.372-1.87-2.964-2.088-1.153-.16-2.175-.292-2.175-1.329 0-.847.832-1.401 2.088-1.401 1.182 0 2.029.569 2.161 1.533h.759c-.132-1.446-1.314-2.176-2.92-2.176-1.65-.014-2.833.832-2.833 2.103 0 1.489 1.373 1.766 2.891 1.97 1.241.176 2.249.336 2.249 1.431 0 .876-.92 1.431-2.132 1.431-1.416 0-2.336-.657-2.394-1.723h-.76zm8.006.554c0 1.183.481 1.723 1.737 1.723h1.08v-.686h-1.022c-.773 0-1.051-.292-1.051-1.051v-4.979h2v-.686h-2v-2.073h-.744v2.073h-1.402v.686h1.402v4.993zm9.462-7.198c0 .468-.219.789-.671.789h-1.752v.686h1.752c.306 0 .525-.088.657-.248V69h.759V58.78h-.745v1.3zm2.613 8.44c0 .335.234.554.555.554a.529.529 0 00.555-.555c0-.336-.234-.54-.555-.54-.321 0-.555.204-.555.54zm5.614-6.293c-1.08 0-2.044.38-2.657 1.24l.277-3.985h5.066v-.701h-5.752l-.365 5.709.73.029c.438-1.197 1.664-1.606 2.599-1.606 1.635 0 2.642 1.153 2.642 2.73 0 1.81-1.299 2.745-2.701 2.745-1.664 0-2.628-1.11-2.744-2.438h-.76c.117 1.693 1.344 3.124 3.504 3.124 1.84 0 3.475-1.197 3.475-3.446 0-1.985-1.328-3.401-3.314-3.401zm11.858 6.862c1.679 0 2.862-.964 3.154-2.468h-.788c-.249 1.095-1.139 1.796-2.366 1.796-1.62 0-2.744-1.27-2.744-3.11 0-1.84 1.109-3.139 2.744-3.139 1.241 0 2.117.701 2.38 1.81h.774c-.307-1.532-1.46-2.467-3.139-2.467-2.088 0-3.519 1.548-3.519 3.796 0 2.278 1.417 3.782 3.504 3.782zm7.872 0c1.62 0 2.861-1.052 3.182-2.54h-.759c-.292 1.153-1.27 1.868-2.482 1.868-1.65 0-2.686-1.256-2.715-2.978v-.132h6.044c0-.102.015-.219.015-.306-.073-2.205-1.431-3.49-3.417-3.49-2.029 0-3.416 1.548-3.416 3.738 0 2.321 1.445 3.84 3.548 3.84zm-2.716-4.41c.117-1.503 1.241-2.51 2.599-2.51 1.445 0 2.482.89 2.599 2.51h-5.198zm10.889-3.168c-1.358 0-2.234.701-2.657 1.665l-.117-1.577h-.643V69h.745v-3.65c0-1.927.978-3.154 2.555-3.154 1.431 0 2.292.935 2.292 2.687V69h.745v-4.146c0-2.336-1.241-3.344-2.92-3.344zm5.123 5.767c0 1.183.481 1.723 1.737 1.723h1.08v-.686h-1.022c-.773 0-1.051-.292-1.051-1.051v-4.979h2v-.686h-2v-2.073h-.744v2.073h-1.402v.686h1.402v4.993zm3.614-.555c.059 1.533 1.3 2.366 3.154 2.366 1.591 0 2.876-.803 2.876-2.117 0-1.563-1.372-1.87-2.964-2.088-1.153-.16-2.175-.292-2.175-1.329 0-.847.832-1.401 2.088-1.401 1.182 0 2.029.569 2.161 1.533h.759c-.132-1.446-1.314-2.176-2.92-2.176-1.65-.014-2.833.832-2.833 2.103 0 1.489 1.373 1.766 2.891 1.97 1.241.176 2.249.336 2.249 1.431 0 .876-.92 1.431-2.132 1.431-1.416 0-2.336-.657-2.394-1.723h-.76zm14.963-5.212c-1.387 0-2.351.745-2.818 1.781l-.117-1.693h-.642V71.92h.745v-4.628c.423 1.08 1.43 1.796 2.832 1.796 2.029 0 3.489-1.548 3.489-3.796 0-2.322-1.46-3.782-3.489-3.782zm-.058 6.906c-1.65 0-2.789-1.285-2.789-3.139 0-1.81 1.139-3.11 2.789-3.11 1.649 0 2.788 1.3 2.788 3.125 0 1.84-1.139 3.124-2.788 3.124zm8.292.672c1.62 0 2.861-1.052 3.183-2.54h-.76c-.292 1.153-1.27 1.868-2.482 1.868-1.649 0-2.686-1.256-2.715-2.978v-.132h6.044c0-.102.015-.219.015-.306-.073-2.205-1.431-3.49-3.417-3.49-2.029 0-3.416 1.548-3.416 3.738 0 2.321 1.445 3.84 3.548 3.84zm-2.716-4.41c.117-1.503 1.241-2.51 2.599-2.51 1.445 0 2.482.89 2.599 2.51h-5.198zm10.495-3.08c-1.373 0-1.957.657-2.263 1.474l-.117-1.474h-.642V69h.744v-3.752c0-1.504.394-2.935 2.132-2.935h.54v-.715h-.394zm5.097 5.124c.058 1.533 1.299 2.366 3.153 2.366 1.592 0 2.877-.803 2.877-2.117 0-1.563-1.373-1.87-2.964-2.088-1.154-.16-2.176-.292-2.176-1.329 0-.847.833-1.401 2.088-1.401 1.183 0 2.03.569 2.161 1.533h.759c-.131-1.446-1.314-2.176-2.92-2.176-1.65-.014-2.832.832-2.832 2.103 0 1.489 1.372 1.766 2.891 1.97 1.241.176 2.248.336 2.248 1.431 0 .876-.92 1.431-2.132 1.431-1.416 0-2.336-.657-2.394-1.723h-.759zm10.867-5.212c-1.387 0-2.249.774-2.672 1.84v-4.57h-.745V69h.745v-3.65c0-1.927.978-3.154 2.555-3.154 1.416 0 2.292.935 2.292 2.687V69h.745v-4.146c0-2.336-1.241-3.344-2.92-3.344zm11.093 6.804c-.438 0-.657-.146-.657-.716v-3.445c0-1.694-1.036-2.643-2.89-2.643-1.694 0-2.818.818-3.008 2.161h.745c.189-.905.978-1.504 2.233-1.504 1.387 0 2.176.73 2.176 1.957v.642h-2.511c-1.898 0-2.92.818-2.92 2.205 0 1.314 1.036 2.117 2.613 2.117 1.504 0 2.394-.687 2.847-1.606v.262c-.029.876.336 1.256 1.212 1.256h.438v-.686h-.278zm-1.401-2.307c0 1.416-1.008 2.438-2.76 2.438-1.182 0-1.912-.598-1.912-1.518 0-.978.73-1.519 2.102-1.519h2.57v.599zm5.697-4.41c-1.373 0-1.957.658-2.263 1.475l-.117-1.474h-.642V69h.744v-3.752c0-1.504.394-2.935 2.132-2.935h.54v-.715h-.394zm4.24 7.49c1.621 0 2.862-1.05 3.183-2.54h-.759c-.292 1.154-1.27 1.869-2.482 1.869-1.65 0-2.687-1.256-2.716-2.978v-.132h6.045c0-.102.014-.219.014-.306-.073-2.205-1.431-3.49-3.416-3.49-2.03 0-3.417 1.548-3.417 3.738 0 2.321 1.446 3.84 3.548 3.84zm-2.715-4.409c.116-1.503 1.241-2.51 2.598-2.51 1.446 0 2.482.89 2.599 2.51h-5.197zm14.327 6.22c-1.606-2.19-2.234-3.986-2.234-6.278 0-2.278.628-4.073 2.234-6.278h-.803c-1.518 2.044-2.161 4-2.161 6.278 0 2.307.643 4.249 2.161 6.278h.803zm9.45-9.388c-1.358 0-2.234.76-2.657 1.854-.351-1.226-1.27-1.854-2.438-1.854-1.271 0-2.03.745-2.409 1.665l-.117-1.577h-.643V69h.745v-3.767c0-1.81.876-3.037 2.292-3.037 1.285 0 2.088.906 2.088 2.614V69h.745v-4.03c.043-1.693.919-2.774 2.306-2.774 1.285 0 2.059.862 2.059 2.54V69h.759v-4.292c0-2.234-1.182-3.198-2.73-3.198zm4.763-1.474a.514.514 0 00.525-.526.514.514 0 00-.525-.526.515.515 0 00-.526.526c0 .307.234.526.526.526zm-.38 8.964h.745v-7.402h-.745V69zm5.912-7.49c-1.358 0-2.234.701-2.658 1.665l-.116-1.577h-.643V69h.745v-3.65c0-1.927.978-3.154 2.555-3.154 1.431 0 2.292.935 2.292 2.687V69h.745v-4.146c0-2.336-1.241-3.344-2.92-3.344zm4.48 7.008c0 .336.233.555.555.555a.528.528 0 00.554-.555c0-.336-.233-.54-.554-.54-.322 0-.555.204-.555.54zm13.857-2.321c0-1.942-1.723-2.438-3.416-2.73-1.562-.263-2.92-.526-2.92-1.986 0-1.329 1.036-2.073 2.642-2.073 1.533 0 2.585.861 2.76 2.19h.803c-.132-1.606-1.27-2.716-3.081-2.891v-1.504h-.701v1.49c-1.956.072-3.212 1.153-3.212 2.832 0 1.942 1.665 2.38 3.3 2.657 1.606.277 3.037.599 3.037 2.088 0 1.314-1.11 2.102-2.76 2.102-1.722 0-2.89-.993-2.993-2.511h-.817c.102 1.825 1.358 3.095 3.445 3.212v1.49h.701v-1.49c1.942-.117 3.212-1.256 3.212-2.876zm6.186-2.468c1.182-.204 2.044-1.138 2.044-2.38 0-1.562-1.3-2.657-3.285-2.657-1.986 0-3.285 1.095-3.285 2.658 0 1.255.861 2.175 2.044 2.38-1.358.248-2.351 1.197-2.351 2.598 0 1.606 1.402 2.76 3.592 2.76 2.19 0 3.591-1.154 3.591-2.76 0-1.416-.992-2.365-2.35-2.599zm-3.752-2.38c0-1.182 1.007-2 2.511-2 1.504 0 2.511.818 2.511 2 0 1.183-1.022 2-2.511 2s-2.511-.817-2.511-2zm2.511 7.082c-1.65 0-2.803-.891-2.803-2.161 0-1.256 1.138-2.161 2.803-2.161 1.65 0 2.803.905 2.803 2.16 0 1.271-1.153 2.162-2.803 2.162zm4.569-10.089c1.621 2.19 2.234 3.986 2.234 6.278 0 2.278-.628 4.073-2.234 6.278h.818c1.518-2.044 2.161-4 2.161-6.278 0-2.307-.657-4.249-2.161-6.278h-.818zm4.588 10.176c0 .336.234.555.555.555a.529.529 0 00.555-.555c0-.336-.234-.54-.555-.54-.321 0-.555.204-.555.54zM305.922 39h2.684l2.569-7.982L313.652 39h2.66l3.9-11.744h-2.523l-2.776 8.992-2.569-8.992h-2.27l-2.684 8.992-2.683-8.992h-2.615L305.922 39zm16.855-13.395c.849 0 1.514-.62 1.514-1.49 0-.872-.665-1.492-1.514-1.492-.848 0-1.514.62-1.514 1.491 0 .872.666 1.491 1.514 1.491zM321.516 39h2.477V27.256h-2.477V39zm5.754-3.188c0 2.133.963 3.188 3.211 3.188h2.294v-2.179h-1.744c-.94 0-1.261-.344-1.261-1.261v-6.125h2.867v-2.179h-2.867v-3.28h-2.5v3.28h-2.042v2.18h2.042v6.376zm13.25-8.693c-1.835 0-2.959.826-3.692 1.835v-6.01h-2.478V39h2.478v-5.94c0-2.363 1.192-3.808 3.142-3.808 1.835 0 2.821 1.193 2.821 3.418V39h2.477v-6.537c0-3.922-2.133-5.344-4.748-5.344zM353.39 39h2.477V22.944h-2.477V39zm10.456.138c3.578 0 5.986-2.409 5.986-6.01 0-3.578-2.408-6.01-5.986-6.01s-5.987 2.432-5.987 6.01c0 3.601 2.409 6.01 5.987 6.01zm0-2.11c-2.088 0-3.441-1.63-3.441-3.9s1.353-3.899 3.441-3.899c2.087 0 3.463 1.629 3.463 3.9 0 2.27-1.376 3.898-3.463 3.898zM374.127 39h2.684l2.569-7.982L381.857 39h2.661l3.899-11.744h-2.523l-2.776 8.992-2.568-8.992h-2.271l-2.684 8.992-2.683-8.992h-2.615L374.127 39zm20.764.138c2.913 0 4.886-1.767 5.299-4.083h-2.478c-.344 1.307-1.445 2.064-2.958 2.064-1.95 0-3.211-1.307-3.28-3.303v-.16h8.853c.046-.321.069-.642.069-.94-.069-3.441-2.339-5.597-5.734-5.597-3.464 0-5.78 2.408-5.78 6.032 0 3.601 2.316 5.987 6.009 5.987zm-3.326-7.294c.184-1.675 1.537-2.73 3.12-2.73 1.72 0 2.936.987 3.142 2.73h-6.262zm16.774-4.588c-1.926 0-2.867.78-3.463 1.767l-.275-1.767h-2.202V39h2.477v-5.895c0-1.812.711-3.532 2.913-3.532h1.101v-2.317h-.551zm13.337 11.882c3.005 0 5-1.675 5.459-4.335h-2.615c-.298 1.353-1.307 2.224-2.821 2.224-1.995 0-3.303-1.582-3.303-3.876 0-2.316 1.308-3.922 3.303-3.922 1.537 0 2.523.849 2.844 2.225h2.592c-.481-2.66-2.362-4.335-5.39-4.335-3.555 0-5.895 2.408-5.895 6.032 0 3.67 2.271 5.987 5.826 5.987zm12.906 0c3.578 0 5.986-2.409 5.986-6.01 0-3.578-2.408-6.01-5.986-6.01s-5.987 2.432-5.987 6.01c0 3.601 2.409 6.01 5.987 6.01zm0-2.11c-2.087 0-3.441-1.63-3.441-3.9s1.354-3.899 3.441-3.899c2.087 0 3.463 1.629 3.463 3.9 0 2.27-1.376 3.898-3.463 3.898zm21.488-9.91c-1.927 0-3.257.85-4.014 2.134-.711-1.514-2.087-2.133-3.624-2.133-1.766.023-2.775.803-3.44 1.674l-.276-1.537h-2.156V39h2.477v-6.285c0-2.087 1.055-3.463 2.753-3.463 1.628 0 2.477 1.078 2.477 3.142V39h2.5v-6.353c0-2.11 1.078-3.395 2.775-3.395 1.606 0 2.455 1.078 2.455 3.142V39h2.477v-6.766c0-3.716-1.973-5.115-4.404-5.115zm20.159 0c-1.927 0-3.257.85-4.014 2.134-.711-1.514-2.087-2.133-3.624-2.133-1.766.023-2.775.803-3.44 1.674l-.276-1.537h-2.156V39h2.478v-6.285c0-2.087 1.055-3.463 2.752-3.463 1.628 0 2.477 1.078 2.477 3.142V39h2.5v-6.353c0-2.11 1.078-3.395 2.776-3.395 1.605 0 2.454 1.078 2.454 3.142V39h2.477v-6.766c0-3.716-1.973-5.115-4.404-5.115zm7.911-1.513c.849 0 1.514-.62 1.514-1.49 0-.872-.665-1.492-1.514-1.492s-1.514.62-1.514 1.491c0 .872.665 1.491 1.514 1.491zM482.879 39h2.477V27.256h-2.477V39zm4.4-3.876c.069 2.546 2.225 4.014 5.368 4.014 2.844 0 4.977-1.422 4.977-3.67 0-2.615-2.179-3.166-4.863-3.487-1.697-.183-2.821-.32-2.821-1.422 0-.94.963-1.536 2.431-1.536s2.477.756 2.615 1.835h2.431c-.16-2.409-2.202-3.74-5.092-3.74-2.821-.022-4.816 1.423-4.816 3.648 0 2.431 2.11 3.004 4.793 3.326 1.812.229 2.89.32 2.89 1.582 0 .94-1.009 1.537-2.545 1.537-1.79 0-2.845-.872-2.936-2.087h-2.432zm11.536 0c.069 2.546 2.225 4.014 5.367 4.014 2.844 0 4.977-1.422 4.977-3.67 0-2.615-2.179-3.166-4.862-3.487-1.698-.183-2.821-.32-2.821-1.422 0-.94.963-1.536 2.431-1.536s2.477.756 2.615 1.835h2.431c-.161-2.409-2.202-3.74-5.092-3.74-2.821-.022-4.817 1.423-4.817 3.648 0 2.431 2.11 3.004 4.794 3.326 1.812.229 2.89.32 2.89 1.582 0 .94-1.009 1.537-2.546 1.537-1.789 0-2.844-.872-2.936-2.087h-2.431zm13.526-9.519c.848 0 1.513-.62 1.513-1.49 0-.872-.665-1.492-1.513-1.492-.849 0-1.514.62-1.514 1.491 0 .872.665 1.491 1.514 1.491zM511.079 39h2.477V27.256h-2.477V39zm10.456.138c3.578 0 5.987-2.409 5.987-6.01 0-3.578-2.409-6.01-5.987-6.01-3.578 0-5.986 2.432-5.986 6.01 0 3.601 2.408 6.01 5.986 6.01zm0-2.11c-2.087 0-3.44-1.63-3.44-3.9s1.353-3.899 3.44-3.899c2.087 0 3.463 1.629 3.463 3.9 0 2.27-1.376 3.898-3.463 3.898zm14.171-9.91c-1.903 0-3.027.758-3.761 1.675l-.276-1.537h-2.156V39h2.478v-5.918c0-2.385 1.169-3.83 3.142-3.83 1.858 0 2.798 1.193 2.798 3.418V39h2.5v-6.537c0-3.922-2.133-5.344-4.725-5.344zm6.749 10.46c0 .917.665 1.56 1.582 1.56.918 0 1.606-.643 1.606-1.56 0-.918-.688-1.56-1.606-1.56-.917 0-1.582.642-1.582 1.56z" fill="#000"/><path d="M.844 13.767h9.114V39h4.852V13.767h9.115V9.463H.844v4.304zm42.69 21.267c-.928 0-1.392-.296-1.392-1.393v-8.65c0-5.105-3.291-7.848-9.03-7.848-5.443 0-9.072 2.616-9.536 6.835h4.473c.338-1.898 2.152-3.164 4.852-3.164 2.996 0 4.726 1.477 4.726 3.882v1.308h-5.443c-6.034 0-9.24 2.49-9.24 6.92 0 4.008 3.29 6.33 8.016 6.33 3.503 0 5.697-1.52 7.131-3.714 0 2.152 1.013 3.46 3.967 3.46h2.405v-3.966h-.928zm-5.907-4.895c-.042 3.333-2.236 5.57-6.034 5.57-2.49 0-4.008-1.266-4.008-3.08 0-2.195 1.561-3.25 4.388-3.25h5.654v.76zM46.945 39h4.557v-5.485l3.882-4.051L61.756 39h5.4l-8.65-12.87 8.144-8.734h-5.359L51.502 27.86V9.463h-4.557V39zm31.31.253c5.359 0 8.988-3.249 9.747-7.51h-4.557c-.633 2.405-2.658 3.797-5.443 3.797-3.587 0-5.907-2.405-6.034-6.076v-.295h16.287c.085-.591.127-1.182.127-1.73-.127-6.33-4.304-10.296-10.549-10.296-6.371 0-10.633 4.43-10.633 11.097 0 6.625 4.261 11.013 11.055 11.013zm-6.118-13.418c.337-3.08 2.827-5.021 5.738-5.021 3.165 0 5.401 1.814 5.781 5.021h-11.52zm50.472 9.199c-.928 0-1.392-.296-1.392-1.393v-8.65c0-5.105-3.291-7.848-9.03-7.848-5.443 0-9.072 2.616-9.536 6.835h4.473c.337-1.898 2.152-3.164 4.852-3.164 2.996 0 4.726 1.477 4.726 3.882v1.308h-5.443c-6.034 0-9.241 2.49-9.241 6.92 0 4.008 3.291 6.33 8.017 6.33 3.502 0 5.697-1.52 7.131-3.714 0 2.152 1.013 3.46 3.967 3.46h2.405v-3.966h-.929zm-5.907-4.895c-.042 3.333-2.236 5.57-6.034 5.57-2.489 0-4.008-1.266-4.008-3.08 0-2.195 1.561-3.25 4.388-3.25h5.654v.76zm31.675-12.996c-3.375 0-5.612 1.561-7.046 3.46l-.549-3.207h-3.966V47.44h4.557V35.962c1.35 1.94 3.671 3.291 7.004 3.291 5.908 0 10.212-4.388 10.212-11.055 0-6.92-4.304-11.055-10.212-11.055zm-.759 18.27c-3.798 0-6.287-2.995-6.287-7.3 0-4.177 2.489-7.088 6.287-7.088s6.329 2.911 6.329 7.173c0 4.22-2.531 7.215-6.329 7.215zm24.833 3.84c6.583 0 11.013-4.43 11.013-11.055 0-6.582-4.43-11.055-11.013-11.055-6.582 0-11.012 4.473-11.012 11.055 0 6.625 4.43 11.055 11.012 11.055zm0-3.882c-3.839 0-6.329-2.996-6.329-7.173s2.49-7.173 6.329-7.173c3.84 0 6.372 2.996 6.372 7.173s-2.532 7.173-6.372 7.173zm13.626-3.502c.126 4.684 4.093 7.384 9.874 7.384 5.232 0 9.156-2.616 9.156-6.751 0-4.81-4.009-5.823-8.945-6.414-3.123-.337-5.19-.59-5.19-2.616 0-1.73 1.772-2.827 4.472-2.827 2.701 0 4.557 1.393 4.81 3.376h4.473c-.295-4.43-4.051-6.878-9.367-6.878-5.19-.042-8.861 2.616-8.861 6.709 0 4.473 3.882 5.527 8.819 6.118 3.333.422 5.316.591 5.316 2.912 0 1.73-1.856 2.827-4.683 2.827-3.292 0-5.233-1.604-5.401-3.84h-4.473zm24.882-17.511c1.561 0 2.785-1.14 2.785-2.743s-1.224-2.742-2.785-2.742c-1.561 0-2.785 1.139-2.785 2.742 0 1.604 1.224 2.743 2.785 2.743zM208.638 39h4.558V17.396h-4.558V39zm10.586-5.865c0 3.924 1.772 5.865 5.907 5.865h4.22v-4.008h-3.207c-1.73 0-2.321-.633-2.321-2.321V21.405h5.275v-4.009h-5.275v-6.034h-4.599v6.034h-3.756v4.009h3.756v11.73zm15.346-18.777c1.562 0 2.785-1.14 2.785-2.743s-1.223-2.742-2.785-2.742c-1.561 0-2.784 1.139-2.784 2.742 0 1.604 1.223 2.743 2.784 2.743zM232.25 39h4.557V17.396h-4.557V39zm19.235.253c6.583 0 11.013-4.43 11.013-11.055 0-6.582-4.43-11.055-11.013-11.055-6.582 0-11.013 4.473-11.013 11.055 0 6.625 4.431 11.055 11.013 11.055zm0-3.882c-3.84 0-6.329-2.996-6.329-7.173s2.489-7.173 6.329-7.173 6.372 2.996 6.372 7.173-2.532 7.173-6.372 7.173zm26.07-18.228c-3.502 0-5.57 1.392-6.92 3.08l-.506-2.827h-3.967V39h4.557V28.114c0-4.389 2.152-7.047 5.781-7.047 3.418 0 5.148 2.194 5.148 6.287V39h4.599V26.974c0-7.215-3.924-9.831-8.692-9.831z" fill="url(#paint0_linear_2_381)"/><defs><linearGradient id="paint0_linear_2_381" x1="301" y1="28.5" x2="0" y2="28.5" gradientUnits="userSpaceOnUse"><stop stop-color="#FF4343"/><stop offset=".5" stop-color="#9C0B93"/><stop offset="1" stop-color="#4C1BB7"/></linearGradient></defs></svg>