<svg width="250" height="77" viewBox="0 0 250 77" fill="none" xmlns="http://www.w3.org/2000/svg"><path d="M.56 28H5V7.4L13.4 28h3.88l8.4-20.6V28h4.44V0h-5.84l-8.8 22.04L6.52 0H.56v28zm52.968-3.76c-.88 0-1.32-.28-1.32-1.32v-8.2c0-4.84-3.12-7.44-8.56-7.44-5.16 0-8.6 2.48-9.04 6.48h4.24c.32-1.8 2.04-3 4.6-3 2.84 0 4.48 1.4 4.48 3.68v1.24h-5.16c-5.72 0-8.76 2.36-8.76 6.56 0 3.8 3.12 6 7.6 6 3.32 0 5.4-1.44 6.76-3.52 0 2.04.96 3.28 3.76 3.28h2.28v-3.76h-.88zm-5.6-4.64c-.04 3.16-2.12 5.28-5.72 5.28-2.36 0-3.8-1.2-3.8-2.92 0-2.08 1.48-3.08 4.16-3.08h5.36v.72zm7.953 1.64c.12 4.44 3.88 7 9.36 7 4.96 0 8.68-2.48 8.68-6.4 0-4.56-3.8-5.52-8.48-6.08-2.96-.32-4.92-.56-4.92-2.48 0-1.64 1.68-2.68 4.24-2.68 2.56 0 4.32 1.32 4.56 3.2h4.24c-.28-4.2-3.84-6.52-8.88-6.52-4.92-.04-8.4 2.48-8.4 6.36 0 4.24 3.68 5.24 8.36 5.8 3.16.4 5.04.56 5.04 2.76 0 1.64-1.76 2.68-4.44 2.68-3.12 0-4.96-1.52-5.12-3.64h-4.24zm22.867 1.2c0 3.72 1.68 5.56 5.6 5.56h4v-3.8h-3.04c-1.64 0-2.2-.6-2.2-2.2V11.32h5v-3.8h-5V1.8h-4.36v5.72h-3.56v3.8h3.56v11.12zm21.639 5.8c5.08 0 8.52-3.08 9.24-7.12h-4.32c-.6 2.28-2.52 3.6-5.16 3.6-3.4 0-5.6-2.28-5.72-5.76v-.28h15.44c.08-.56.12-1.12.12-1.64-.12-6-4.08-9.76-10-9.76-6.04 0-10.08 4.2-10.08 10.52 0 6.28 4.04 10.44 10.48 10.44zm-5.8-12.72c.32-2.92 2.68-4.76 5.44-4.76 3 0 5.12 1.72 5.48 4.76h-10.92zm29.252-8c-3.36 0-5 1.36-6.04 3.08l-.48-3.08h-3.84V28h4.32V17.72c0-3.16 1.24-6.16 5.08-6.16h1.92V7.52h-.96zm15.339 14.92c0 3.72 1.68 5.56 5.6 5.56h4v-3.8h-3.04c-1.64 0-2.2-.6-2.2-2.2V11.32h5v-3.8h-5V1.8h-4.36v5.72h-3.56v3.8h3.56v11.12zm23.108-15.16c-3.2 0-5.16 1.44-6.44 3.2V0h-4.32v28h4.32V17.64c0-4.12 2.08-6.64 5.48-6.64 3.2 0 4.92 2.08 4.92 5.96V28h4.32V16.6c0-6.84-3.72-9.32-8.28-9.32zm21.773 20.96c5.08 0 8.52-3.08 9.24-7.12h-4.32c-.6 2.28-2.52 3.6-5.16 3.6-3.4 0-5.6-2.28-5.72-5.76v-.28h15.44c.08-.56.12-1.12.12-1.64-.12-6-4.08-9.76-10-9.76-6.04 0-10.08 4.2-10.08 10.52 0 6.28 4.04 10.44 10.48 10.44zm-5.8-12.72c.32-2.92 2.68-4.76 5.44-4.76 3 0 5.12 1.72 5.48 4.76h-10.92zM23.68 55.28c-3.36 0-5.68 1.48-7 3.72-1.24-2.64-3.64-3.72-6.32-3.72-3.08.04-4.84 1.4-6 2.92l-.48-2.68H.12V76h4.32V65.04c0-3.64 1.84-6.04 4.8-6.04 2.84 0 4.32 1.88 4.32 5.48V76h4.36V64.92c0-3.68 1.88-5.92 4.84-5.92 2.8 0 4.28 1.88 4.28 5.48V76h4.32V64.2c0-6.48-3.44-8.92-7.68-8.92zm30.316 16.96c-.88 0-1.32-.28-1.32-1.32v-8.2c0-4.84-3.12-7.44-8.56-7.44-5.16 0-8.6 2.48-9.04 6.48h4.24c.32-1.8 2.04-3 4.6-3 2.84 0 4.48 1.4 4.48 3.68v1.24h-5.16c-5.72 0-8.76 2.36-8.76 6.56 0 3.8 3.12 6 7.6 6 3.32 0 5.4-1.44 6.76-3.52 0 2.04.96 3.28 3.76 3.28h2.28v-3.76h-.88zm-5.6-4.64c-.04 3.16-2.12 5.28-5.72 5.28-2.36 0-3.8-1.2-3.8-2.92 0-2.08 1.48-3.08 4.16-3.08h5.36v.72zM67.59 55.52c-3.36 0-5 1.36-6.04 3.08l-.48-3.08h-3.84V76h4.32V65.72c0-3.16 1.24-6.16 5.08-6.16h1.92v-4.04h-.96zM71.214 76h4.32v-5.2l3.68-3.84 6.04 9.04h5.12l-8.2-12.2 7.72-8.28h-5.08l-9.28 9.92V48h-4.32v28zm29.681.24c5.08 0 8.52-3.08 9.24-7.12h-4.32c-.6 2.28-2.52 3.6-5.16 3.6-3.4 0-5.6-2.28-5.72-5.76v-.28h15.44c.08-.56.12-1.12.12-1.64-.12-6-4.08-9.76-10-9.76-6.04 0-10.08 4.2-10.08 10.52 0 6.28 4.04 10.44 10.48 10.44zm-5.8-12.72c.32-2.92 2.68-4.76 5.44-4.76 3 0 5.12 1.72 5.48 4.76h-10.92zm20.216 6.92c0 3.72 1.68 5.56 5.6 5.56h4v-3.8h-3.04c-1.64 0-2.2-.6-2.2-2.2V59.32h5v-3.8h-5V49.8h-4.36v5.72h-3.56v3.8h3.56v11.12zm20.502-11.12h3.56V76h4.36V59.32h5.48v-3.8h-5.56V53.8c0-1.4.6-2 2-2h3.56V48h-4.12c-3.96 0-5.72 1.92-5.72 5.6v1.92h-3.56v3.8zm24.456 16.92c6.24 0 10.44-4.2 10.44-10.48 0-6.24-4.2-10.48-10.44-10.48-6.24 0-10.44 4.24-10.44 10.48 0 6.28 4.2 10.48 10.44 10.48zm0-3.68c-3.64 0-6-2.84-6-6.8s2.36-6.8 6-6.8 6.04 2.84 6.04 6.8-2.4 6.8-6.04 6.8zm24.274-17.04c-3.36 0-5 1.36-6.04 3.08l-.48-3.08h-3.84V76h4.32V65.72c0-3.16 1.24-6.16 5.08-6.16h1.92v-4.04h-.96zm12.047 20.72c5.24 0 8.72-2.92 9.52-7.56h-4.56c-.52 2.36-2.28 3.88-4.92 3.88-3.48 0-5.76-2.76-5.76-6.76 0-4.04 2.28-6.84 5.76-6.84 2.68 0 4.4 1.48 4.96 3.88h4.52c-.84-4.64-4.12-7.56-9.4-7.56-6.2 0-10.28 4.2-10.28 10.52 0 6.4 3.96 10.44 10.16 10.44zm22.547 0c5.08 0 8.52-3.08 9.24-7.12h-4.32c-.6 2.28-2.52 3.6-5.16 3.6-3.4 0-5.6-2.28-5.72-5.76v-.28h15.44c.08-.56.12-1.12.12-1.64-.12-6-4.08-9.76-10-9.76-6.04 0-10.08 4.2-10.08 10.52 0 6.28 4.04 10.44 10.48 10.44zm-5.8-12.72c.32-2.92 2.68-4.76 5.44-4.76 3 0 5.12 1.72 5.48 4.76h-10.92zm17.895 5.72c.12 4.44 3.88 7 9.36 7 4.96 0 8.68-2.48 8.68-6.4 0-4.56-3.8-5.52-8.48-6.08-2.96-.32-4.92-.56-4.92-2.48 0-1.64 1.68-2.68 4.24-2.68 2.56 0 4.32 1.32 4.56 3.2h4.24c-.28-4.2-3.84-6.52-8.88-6.52-4.92-.04-8.4 2.48-8.4 6.36 0 4.24 3.68 5.24 8.36 5.8 3.16.4 5.04.56 5.04 2.76 0 1.64-1.76 2.68-4.44 2.68-3.12 0-4.96-1.52-5.12-3.64h-4.24z" fill="#000"/></svg>