<svg width="122" height="15" viewBox="0 0 122 15" fill="none" xmlns="http://www.w3.org/2000/svg"><path d="M2.54 14l1.3-3.46h5.74L10.9 14h2.46L8.14 0H5.4L.16 14h2.38zM6.7 2.48l2.24 6.1H4.48l2.22-6.1zM14.576 14h2.16V0h-2.16v14zM30.633 3.64c-1.68 0-2.84.74-3.5 1.86-.62-1.32-1.82-1.86-3.16-1.86-1.54.02-2.42.7-3 1.46l-.24-1.34h-1.88V14h2.16V8.52c0-1.82.92-3.02 2.4-3.02 1.42 0 2.16.94 2.16 2.74V14h2.18V8.46c0-1.84.94-2.96 2.42-2.96 1.4 0 2.14.94 2.14 2.74V14h2.16V8.1c0-3.24-1.72-4.46-3.84-4.46zm10.56 10.48c3.12 0 5.22-2.1 5.22-5.24 0-3.12-2.1-5.24-5.22-5.24-3.12 0-5.22 2.12-5.22 5.24 0 3.14 2.1 5.24 5.22 5.24zm0-1.84c-1.82 0-3-1.42-3-3.4s1.18-3.4 3-3.4 3.02 1.42 3.02 3.4-1.2 3.4-3.02 3.4zm6.458-1.66c.06 2.22 1.94 3.5 4.68 3.5 2.48 0 4.34-1.24 4.34-3.2 0-2.28-1.9-2.76-4.24-3.04-1.48-.16-2.46-.28-2.46-1.24 0-.82.84-1.34 2.12-1.34 1.28 0 2.16.66 2.28 1.6h2.12c-.14-2.1-1.92-3.26-4.44-3.26-2.46-.02-4.2 1.24-4.2 3.18 0 2.12 1.84 2.62 4.18 2.9 1.58.2 2.52.28 2.52 1.38 0 .82-.88 1.34-2.22 1.34-1.56 0-2.48-.76-2.56-1.82h-2.12zm11.434.6c0 1.86.84 2.78 2.8 2.78h2v-1.9h-1.52c-.82 0-1.1-.3-1.1-1.1V5.66h2.5v-1.9h-2.5V.9h-2.18v2.86h-1.78v1.9h1.78v5.56zm12.031 0c0 1.86.84 2.78 2.8 2.78h2v-1.9h-1.52c-.82 0-1.1-.3-1.1-1.1V5.66h2.5v-1.9h-2.5V.9h-2.18v2.86h-1.78v1.9h1.78v5.56zm11.555-7.58c-1.6 0-2.58.72-3.22 1.6V0h-2.16v14h2.16V8.82c0-2.06 1.04-3.32 2.74-3.32 1.6 0 2.46 1.04 2.46 2.98V14h2.16V8.3c0-3.42-1.86-4.66-4.14-4.66zm10.886 10.48c2.54 0 4.26-1.54 4.62-3.56h-2.16c-.3 1.14-1.26 1.8-2.58 1.8-1.7 0-2.8-1.14-2.86-2.88v-.14h7.72c.04-.28.06-.56.06-.82-.06-3-2.04-4.88-5-4.88-3.02 0-5.04 2.1-5.04 5.26 0 3.14 2.02 5.22 5.24 5.22zm-2.9-6.36c.16-1.46 1.34-2.38 2.72-2.38 1.5 0 2.56.86 2.74 2.38h-5.46zm14.626-4c-1.68 0-2.5.68-3.02 1.54l-.24-1.54h-1.92V14h2.16V8.86c0-1.58.62-3.08 2.54-3.08h.96V3.76h-.48zm6.184 10.36c2.54 0 4.26-1.54 4.62-3.56h-2.16c-.3 1.14-1.26 1.8-2.58 1.8-1.7 0-2.8-1.14-2.86-2.88v-.14h7.72c.04-.28.06-.56.06-.82-.06-3-2.04-4.88-5-4.88-3.02 0-5.04 2.1-5.04 5.26 0 3.14 2.02 5.22 5.24 5.22zm-2.9-6.36c.16-1.46 1.34-2.38 2.72-2.38 1.5 0 2.56.86 2.74 2.38h-5.46zm11.886 1.98l.34-9.74h-2.32l.34 9.74h1.64zm-2.22 3.02c0 .8.6 1.36 1.4 1.36.8 0 1.38-.56 1.38-1.36s-.58-1.36-1.38-1.36c-.8 0-1.4.56-1.4 1.36z" fill="#000"/></svg>