<svg width="245" height="149" viewBox="0 0 245 149" fill="none" xmlns="http://www.w3.org/2000/svg"><path d="M.34 85.95h4.08V97h.918V85.95h4.08v-.85H.34v.85zm13.031 2.431c-1.598 0-2.278.765-2.635 1.717l-.136-1.717h-.748V97h.867v-4.369c0-1.751.459-3.417 2.482-3.417h.629v-.833h-.459zm8.96 7.82c-.51 0-.764-.17-.764-.833v-4.012c0-1.972-1.207-3.077-3.366-3.077-1.973 0-3.282.952-3.503 2.516h.867c.222-1.054 1.14-1.751 2.601-1.751 1.616 0 2.534.85 2.534 2.278v.748h-2.924c-2.21 0-3.4.952-3.4 2.567 0 1.53 1.207 2.465 3.043 2.465 1.75 0 2.787-.799 3.314-1.87v.306C20.7 96.558 21.125 97 22.145 97h.51v-.799h-.324zM20.7 93.515c0 1.649-1.174 2.839-3.213 2.839-1.377 0-2.227-.697-2.227-1.768 0-1.139.85-1.768 2.447-1.768H20.7v.697zm10.02-3.196c-.528-1.224-1.684-2.04-3.299-2.04-2.363 0-4.063 1.802-4.063 4.403 0 2.72 1.7 4.42 4.063 4.42 1.615 0 2.737-.867 3.281-2.074L30.838 97h.748V85.1h-.867v5.219zm-3.23 6.001c-1.922 0-3.248-1.496-3.248-3.638 0-2.125 1.326-3.638 3.247-3.638 1.921 0 3.247 1.513 3.247 3.655 0 2.125-1.326 3.621-3.247 3.621zm9.944.782c1.887 0 3.332-1.224 3.706-2.958h-.885c-.34 1.343-1.479 2.176-2.89 2.176-1.92 0-3.128-1.462-3.162-3.468v-.153h7.038c0-.119.017-.255.017-.357-.085-2.567-1.666-4.063-3.977-4.063-2.364 0-3.978 1.802-3.978 4.352 0 2.703 1.683 4.471 4.13 4.471zm-3.162-5.134c.136-1.751 1.445-2.924 3.026-2.924 1.682 0 2.89 1.037 3.026 2.924h-6.052zM48.2 94.994c0 1.377.561 2.006 2.023 2.006h1.258v-.799h-1.19c-.9 0-1.224-.34-1.224-1.224V89.18h2.33v-.799h-2.33v-2.414H48.2v2.414h-1.632v.799H48.2v5.814zm8.143 2.108c1.887 0 3.332-1.224 3.706-2.958h-.884c-.34 1.343-1.48 2.176-2.89 2.176-1.921 0-3.128-1.462-3.162-3.468v-.153h7.038c0-.119.017-.255.017-.357-.085-2.567-1.666-4.063-3.978-4.063-2.363 0-3.978 1.802-3.978 4.352 0 2.703 1.683 4.471 4.13 4.471zm-3.162-5.134c.136-1.751 1.445-2.924 3.026-2.924 1.683 0 2.89 1.037 3.026 2.924H53.18zm12.457 5.134c1.955 0 3.332-1.122 3.672-2.873h-.918c-.289 1.275-1.326 2.091-2.754 2.091-1.887 0-3.196-1.479-3.196-3.621s1.292-3.655 3.196-3.655c1.445 0 2.465.816 2.771 2.108h.901c-.357-1.785-1.7-2.873-3.655-2.873-2.43 0-4.097 1.802-4.097 4.42 0 2.652 1.65 4.403 4.08 4.403zm9.336-8.823c-1.615 0-2.618.901-3.111 2.142V85.1h-.867V97h.867v-4.25c0-2.244 1.139-3.672 2.975-3.672 1.649 0 2.669 1.088 2.669 3.128V97h.867v-4.828c0-2.72-1.445-3.893-3.4-3.893zm13.725 8.823c1.887 0 3.332-1.224 3.706-2.958h-.884c-.34 1.343-1.479 2.176-2.89 2.176-1.92 0-3.128-1.462-3.162-3.468v-.153h7.038c0-.119.017-.255.017-.357-.085-2.567-1.666-4.063-3.978-4.063-2.363 0-3.978 1.802-3.978 4.352 0 2.703 1.683 4.471 4.131 4.471zm-3.162-5.134c.136-1.751 1.445-2.924 3.026-2.924 1.683 0 2.89 1.037 3.026 2.924h-6.052zm16.283 4.233c-.51 0-.765-.17-.765-.833v-4.012c0-1.972-1.207-3.077-3.366-3.077-1.972 0-3.281.952-3.502 2.516h.867c.22-1.054 1.139-1.751 2.6-1.751 1.616 0 2.534.85 2.534 2.278v.748h-2.924c-2.21 0-3.4.952-3.4 2.567 0 1.53 1.207 2.465 3.043 2.465 1.75 0 2.788-.799 3.315-1.87v.306c-.034 1.02.391 1.462 1.411 1.462h.51v-.799h-.323zm-1.632-2.686c0 1.649-1.173 2.839-3.213 2.839-1.377 0-2.227-.697-2.227-1.768 0-1.139.85-1.768 2.448-1.768h2.992v.697zm6.633-5.134c-1.598 0-2.278.765-2.635 1.717l-.136-1.717h-.748V97h.867v-4.369c0-1.751.459-3.417 2.482-3.417h.629v-.833h-.459zm5.722-.102c-1.581 0-2.601.816-3.094 1.938l-.136-1.836h-.748V97h.867v-4.25c0-2.244 1.139-3.672 2.975-3.672 1.666 0 2.669 1.088 2.669 3.128V97h.867v-4.828c0-2.72-1.445-3.893-3.4-3.893zm5.761-1.717c.34 0 .612-.255.612-.612a.599.599 0 00-.612-.612.599.599 0 00-.612.612c0 .357.272.612.612.612zM117.862 97h.867v-8.619h-.867V97zm6.883-8.721c-1.581 0-2.601.816-3.094 1.938l-.136-1.836h-.748V97h.867v-4.25c0-2.244 1.139-3.672 2.975-3.672 1.666 0 2.669 1.088 2.669 3.128V97h.867v-4.828c0-2.72-1.445-3.893-3.4-3.893zm12.34 2.108c-.527-1.275-1.683-2.108-3.281-2.108-2.363 0-4.063 1.785-4.063 4.403 0 2.72 1.7 4.42 4.063 4.42 1.615 0 2.754-.85 3.298-2.193v1.53c0 2.295-1.088 3.281-3.162 3.281-1.615 0-2.737-.731-3.009-2.04h-.901c.272 1.836 1.751 2.822 3.842 2.822 2.788 0 4.097-1.326 4.097-4.029v-8.092h-.748l-.136 2.006zm-3.213 5.933c-1.921 0-3.247-1.496-3.247-3.638s1.326-3.638 3.247-3.638c1.921 0 3.247 1.496 3.247 3.655 0 2.125-1.326 3.621-3.247 3.621zm5.745-1.972c.068 1.785 1.513 2.754 3.672 2.754 1.853 0 3.349-.935 3.349-2.465 0-1.819-1.598-2.176-3.451-2.431-1.343-.187-2.533-.34-2.533-1.547 0-.986.969-1.632 2.431-1.632 1.377 0 2.363.663 2.516 1.785h.884c-.153-1.683-1.53-2.533-3.4-2.533-1.921-.017-3.298.969-3.298 2.448 0 1.734 1.598 2.057 3.366 2.295 1.445.204 2.618.391 2.618 1.666 0 1.02-1.071 1.666-2.482 1.666-1.649 0-2.72-.765-2.788-2.006h-.884zm13.699-7.786c.34 0 .612-.255.612-.612a.599.599 0 00-.612-.612.599.599 0 00-.612.612c0 .357.272.612.612.612zM152.874 97h.867v-8.619h-.867V97zm6.884-8.721c-1.581 0-2.601.816-3.094 1.938l-.136-1.836h-.748V97h.867v-4.25c0-2.244 1.139-3.672 2.975-3.672 1.666 0 2.669 1.088 2.669 3.128V97h.867v-4.828c0-2.72-1.445-3.893-3.4-3.893zm13.42.102c-1.598 0-2.278.765-2.635 1.717l-.136-1.717h-.748V97h.867v-4.369c0-1.751.459-3.417 2.482-3.417h.629v-.833h-.459zm4.937 8.721c1.887 0 3.332-1.224 3.706-2.958h-.884c-.34 1.343-1.479 2.176-2.89 2.176-1.921 0-3.128-1.462-3.162-3.468v-.153h7.038c0-.119.017-.255.017-.357-.085-2.567-1.666-4.063-3.978-4.063-2.363 0-3.978 1.802-3.978 4.352 0 2.703 1.683 4.471 4.131 4.471zm-3.162-5.134c.136-1.751 1.445-2.924 3.026-2.924 1.683 0 2.89 1.037 3.026 2.924h-6.052zm16.283 4.233c-.51 0-.765-.17-.765-.833v-4.012c0-1.972-1.207-3.077-3.366-3.077-1.972 0-3.281.952-3.502 2.516h.867c.221-1.054 1.139-1.751 2.601-1.751 1.615 0 2.533.85 2.533 2.278v.748h-2.924c-2.21 0-3.4.952-3.4 2.567 0 1.53 1.207 2.465 3.043 2.465 1.751 0 2.788-.799 3.315-1.87v.306c-.034 1.02.391 1.462 1.411 1.462h.51v-.799h-.323zm-1.632-2.686c0 1.649-1.173 2.839-3.213 2.839-1.377 0-2.227-.697-2.227-1.768 0-1.139.85-1.768 2.448-1.768h2.992v.697zM192.718 97h.867V85.1h-.867V97zm8.134-2.006c0 1.377.561 2.006 2.023 2.006h1.258v-.799h-1.19c-.901 0-1.224-.34-1.224-1.224V89.18h2.329v-.799h-2.329v-2.414h-.867v2.414h-1.632v.799h1.632v5.814zm5.042-8.432c.34 0 .612-.255.612-.612a.599.599 0 00-.612-.612.599.599 0 00-.612.612c0 .357.272.612.612.612zM205.452 97h.867v-8.619h-.867V97zm12.527-8.721c-1.581 0-2.601.884-3.094 2.159-.408-1.428-1.479-2.159-2.839-2.159-1.479 0-2.363.867-2.805 1.938l-.136-1.836h-.748V97h.867v-4.386c0-2.108 1.02-3.536 2.669-3.536 1.496 0 2.431 1.054 2.431 3.043V97h.867v-4.692c.051-1.972 1.071-3.23 2.686-3.23 1.496 0 2.397 1.003 2.397 2.958V97h.884v-4.998c0-2.601-1.377-3.723-3.179-3.723zm8.779 8.823c1.887 0 3.332-1.224 3.706-2.958h-.884c-.34 1.343-1.479 2.176-2.89 2.176-1.921 0-3.128-1.462-3.162-3.468v-.153h7.038c0-.119.017-.255.017-.357-.085-2.567-1.666-4.063-3.978-4.063-2.363 0-3.978 1.802-3.978 4.352 0 2.703 1.683 4.471 4.131 4.471zm-3.162-5.134c.136-1.751 1.445-2.924 3.026-2.924 1.683 0 2.89 1.037 3.026 2.924h-6.052zM3.111 116h.935l2.55-7.242L9.027 116h.935l3.06-8.619h-.884l-2.652 7.582-2.465-7.582h-.799l-2.601 7.582-2.516-7.582H.187L3.111 116zm11.566-10.438c.34 0 .612-.255.612-.612a.599.599 0 00-.612-.612.599.599 0 00-.612.612c0 .357.272.612.612.612zM14.235 116h.867v-8.619h-.867V116zm3.551-2.006c0 1.377.561 2.006 2.023 2.006h1.258v-.799h-1.19c-.9 0-1.224-.34-1.224-1.224v-5.797h2.33v-.799h-2.33v-2.414h-.867v2.414h-1.632v.799h1.632v5.814zm8.578-6.715c-1.615 0-2.618.901-3.11 2.142V104.1h-.868V116h.867v-4.25c0-2.244 1.14-3.672 2.975-3.672 1.65 0 2.67 1.088 2.67 3.128V116h.866v-4.828c0-2.72-1.445-3.893-3.4-3.893zm13.93 8.823c2.159 0 3.62-1.309 3.927-3.026h-1.836c-.255.969-1.071 1.53-2.193 1.53-1.445 0-2.38-.969-2.431-2.448v-.119h6.562c.034-.238.05-.476.05-.697-.05-2.55-1.733-4.148-4.25-4.148-2.566 0-4.283 1.785-4.283 4.471 0 2.669 1.717 4.437 4.454 4.437zm-2.465-5.406c.136-1.241 1.139-2.023 2.312-2.023 1.275 0 2.176.731 2.329 2.023h-4.641zm6.73 5.304h2.023l2.295-3.162L51.155 116h2.142l-3.281-4.454 3.094-4.25h-2.023l-2.125 2.941-2.074-2.941h-2.142l3.077 4.25L44.559 116zm10.378-2.363c0 1.581.714 2.363 2.38 2.363h1.7v-1.615h-1.292c-.697 0-.935-.255-.935-.935v-4.539h2.125v-1.615H56.79v-2.431h-1.853v2.431h-1.513v1.615h1.513v4.726zm9.197 2.465c2.159 0 3.62-1.309 3.927-3.026h-1.836c-.255.969-1.071 1.53-2.193 1.53-1.445 0-2.38-.969-2.431-2.448v-.119h6.562c.034-.238.05-.476.05-.697-.05-2.55-1.733-4.148-4.25-4.148-2.566 0-4.283 1.785-4.283 4.471 0 2.669 1.717 4.437 4.454 4.437zm-2.465-5.406c.136-1.241 1.139-2.023 2.312-2.023 1.275 0 2.176.731 2.329 2.023h-4.641zm12.619-3.502c-1.411 0-2.244.561-2.788 1.241l-.204-1.139h-1.598V116h1.836v-4.386c0-1.768.867-2.839 2.329-2.839 1.377 0 2.074.884 2.074 2.533V116h1.853v-4.845c0-2.907-1.581-3.961-3.502-3.961zm11.718 1.309c-.56-.765-1.496-1.309-2.822-1.309-2.363 0-4.114 1.768-4.114 4.454 0 2.788 1.751 4.454 4.114 4.454 1.377 0 2.278-.646 2.84-1.411l.22 1.309h1.598v-11.9h-1.836v4.403zm-2.516 6.052c-1.53 0-2.533-1.19-2.533-2.907 0-1.7 1.003-2.89 2.533-2.89s2.533 1.19 2.533 2.924c0 1.683-1.003 2.873-2.533 2.873zm10.277 1.547c2.16 0 3.621-1.309 3.927-3.026h-1.836c-.255.969-1.07 1.53-2.193 1.53-1.445 0-2.38-.969-2.43-2.448v-.119h6.561c.034-.238.051-.476.051-.697-.05-2.55-1.734-4.148-4.25-4.148-2.567 0-4.284 1.785-4.284 4.471 0 2.669 1.717 4.437 4.454 4.437zm-2.465-5.406c.136-1.241 1.14-2.023 2.312-2.023 1.275 0 2.176.731 2.33 2.023h-4.642zm14.643-2.193c-.561-.765-1.496-1.309-2.822-1.309-2.363 0-4.114 1.768-4.114 4.454 0 2.788 1.751 4.454 4.114 4.454 1.377 0 2.278-.646 2.839-1.411l.221 1.309h1.598v-11.9h-1.836v4.403zm-2.516 6.052c-1.53 0-2.533-1.19-2.533-2.907 0-1.7 1.003-2.89 2.533-2.89s2.533 1.19 2.533 2.924c0 1.683-1.003 2.873-2.533 2.873zm15.068-7.361c-1.36 0-2.193.612-2.737 1.36V104.1h-1.836V116h1.836v-4.403c0-1.751.884-2.822 2.329-2.822 1.36 0 2.091.884 2.091 2.533V116h1.836v-4.845c0-2.907-1.581-3.961-3.519-3.961zm9.237 8.908c2.652 0 4.437-1.785 4.437-4.454 0-2.652-1.785-4.454-4.437-4.454s-4.437 1.802-4.437 4.454c0 2.669 1.785 4.454 4.437 4.454zm0-1.564c-1.547 0-2.55-1.207-2.55-2.89s1.003-2.89 2.55-2.89 2.567 1.207 2.567 2.89-1.02 2.89-2.567 2.89zm11.88-2.89c0 1.802-.85 2.856-2.244 2.856-1.343 0-2.023-.867-2.023-2.567v-4.641h-1.836v4.845c0 2.975 1.581 3.961 3.434 3.961 1.343 0 2.142-.544 2.686-1.207l.204 1.105h1.615v-8.704h-1.836v4.352zm8.048-4.352c-1.428 0-2.125.578-2.567 1.309l-.204-1.309h-1.632V116h1.836v-4.369c0-1.343.527-2.618 2.159-2.618h.816v-1.717h-.408zm1.017 5.831c.051 1.887 1.649 2.975 3.978 2.975 2.108 0 3.689-1.054 3.689-2.72 0-1.938-1.615-2.346-3.604-2.584-1.258-.136-2.091-.238-2.091-1.054 0-.697.714-1.139 1.802-1.139s1.836.561 1.938 1.36h1.802c-.119-1.785-1.632-2.771-3.774-2.771-2.091-.017-3.57 1.054-3.57 2.703 0 1.802 1.564 2.227 3.553 2.465 1.343.17 2.142.238 2.142 1.173 0 .697-.748 1.139-1.887 1.139-1.326 0-2.108-.646-2.176-1.547h-1.802zm9.107 2.312c0 .391.272.646.646.646s.646-.255.646-.646-.272-.629-.646-.629-.646.238-.646.629z" fill="#000"/><path d="M.717 11.548h7.749V33h4.125V11.548h7.749V7.889H.717v3.659zm36.295 18.08c-.79 0-1.184-.251-1.184-1.184V21.09c0-4.34-2.798-6.672-7.677-6.672-4.628 0-7.713 2.224-8.107 5.811h3.802c.287-1.614 1.83-2.69 4.126-2.69 2.547 0 4.017 1.255 4.017 3.3v1.112h-4.627c-5.13 0-7.856 2.117-7.856 5.883 0 3.408 2.798 5.381 6.815 5.381 2.978 0 4.843-1.291 6.063-3.157 0 1.83.86 2.942 3.372 2.942h2.045v-3.372h-.79zm-5.023-4.161c-.036 2.834-1.9 4.735-5.13 4.735-2.116 0-3.407-1.076-3.407-2.619 0-1.865 1.327-2.762 3.73-2.762h4.807v.646zM39.911 33h3.874v-4.663l3.3-3.444L52.503 33h4.592L49.74 22.059l6.924-7.426h-4.556l-8.323 8.897V7.889h-3.874V33zm26.619.215c4.555 0 7.64-2.762 8.286-6.385h-3.874c-.538 2.045-2.26 3.228-4.628 3.228-3.049 0-5.022-2.044-5.13-5.165v-.251h13.847a10.53 10.53 0 00.108-1.471c-.108-5.381-3.659-8.753-8.968-8.753-5.417 0-9.04 3.767-9.04 9.434 0 5.633 3.623 9.363 9.399 9.363zm-5.202-11.407c.287-2.62 2.403-4.27 4.879-4.27 2.69 0 4.592 1.543 4.914 4.27h-9.793zm42.91 7.82c-.789 0-1.184-.251-1.184-1.184V21.09c0-4.34-2.798-6.672-7.676-6.672-4.628 0-7.713 2.224-8.108 5.811h3.803c.287-1.614 1.83-2.69 4.125-2.69 2.547 0 4.018 1.255 4.018 3.3v1.112h-4.628c-5.13 0-7.856 2.117-7.856 5.883 0 3.408 2.798 5.381 6.816 5.381 2.977 0 4.843-1.291 6.063-3.157 0 1.83.861 2.942 3.372 2.942h2.044v-3.372h-.789zm-5.022-4.161c-.036 2.834-1.901 4.735-5.13 4.735-2.116 0-3.408-1.076-3.408-2.619 0-1.865 1.328-2.762 3.731-2.762h4.807v.646zm26.929-11.05c-2.87 0-4.771 1.328-5.99 2.942l-.467-2.726h-3.372v25.542h3.874v-9.758c1.148 1.65 3.121 2.798 5.955 2.798 5.023 0 8.682-3.73 8.682-9.399 0-5.883-3.659-9.398-8.682-9.398zm-.645 15.534c-3.229 0-5.345-2.547-5.345-6.206 0-3.552 2.116-6.027 5.345-6.027 3.228 0 5.381 2.475 5.381 6.099 0 3.587-2.153 6.134-5.381 6.134zm21.112 3.264c5.596 0 9.363-3.766 9.363-9.399 0-5.596-3.767-9.398-9.363-9.398s-9.363 3.802-9.363 9.399c0 5.632 3.767 9.398 9.363 9.398zm0-3.3c-3.264 0-5.381-2.547-5.381-6.098 0-3.552 2.117-6.099 5.381-6.099 3.265 0 5.417 2.547 5.417 6.099 0 3.551-2.152 6.098-5.417 6.098zm11.584-2.977c.108 3.981 3.48 6.277 8.394 6.277 4.449 0 7.785-2.224 7.785-5.74 0-4.089-3.408-4.95-7.605-5.452-2.655-.287-4.413-.502-4.413-2.224 0-1.471 1.507-2.404 3.803-2.404 2.296 0 3.874 1.184 4.089 2.87h3.803c-.251-3.767-3.444-5.847-7.964-5.847-4.412-.036-7.533 2.224-7.533 5.704 0 3.802 3.3 4.699 7.497 5.201 2.834.359 4.52.502 4.52 2.475 0 1.471-1.578 2.404-3.982 2.404-2.798 0-4.448-1.363-4.591-3.265h-3.803zM179.35 12.05c1.327 0 2.368-.968 2.368-2.332 0-1.363-1.041-2.331-2.368-2.331s-2.368.968-2.368 2.332c0 1.363 1.041 2.331 2.368 2.331zM177.377 33h3.874V14.633h-3.874V33zm8.999-4.986c0 3.336 1.507 4.986 5.023 4.986h3.587v-3.408h-2.726c-1.471 0-1.973-.538-1.973-1.973v-9.578h4.484v-3.408h-4.484v-5.13h-3.911v5.13h-3.192v3.408h3.192v9.973zm13.047-15.964c1.328 0 2.368-.968 2.368-2.332 0-1.363-1.04-2.331-2.368-2.331-1.327 0-2.367.968-2.367 2.332 0 1.363 1.04 2.331 2.367 2.331zM197.45 33h3.875V14.633h-3.875V33zm16.354.215c5.596 0 9.363-3.766 9.363-9.399 0-5.596-3.767-9.398-9.363-9.398s-9.363 3.802-9.363 9.399c0 5.632 3.767 9.398 9.363 9.398zm0-3.3c-3.265 0-5.381-2.547-5.381-6.098 0-3.552 2.116-6.099 5.381-6.099 3.264 0 5.417 2.547 5.417 6.099 0 3.551-2.153 6.098-5.417 6.098zm22.164-15.497c-2.978 0-4.736 1.184-5.884 2.619l-.43-2.404h-3.372V33h3.874v-9.255c0-3.731 1.83-5.991 4.915-5.991 2.905 0 4.376 1.865 4.376 5.345V33h3.91V22.776c0-6.134-3.336-8.358-7.389-8.358z" fill="url(#paint0_linear_13_400)"/><path d="M3.933 62h2.691L9.2 53.996 11.684 62h2.668l3.91-11.776h-2.53l-2.783 9.016-2.576-9.016H8.096L5.405 59.24l-2.691-9.016H.092L3.933 62zm21.824-11.914c-1.84 0-2.967.828-3.703 1.84V45.9H19.57V62h2.484v-5.957c0-2.369 1.196-3.818 3.15-3.818 1.84 0 2.83 1.196 2.83 3.427V62h2.484v-6.555c0-3.933-2.14-5.359-4.761-5.359zm12.519 12.052c2.92 0 4.899-1.771 5.313-4.094h-2.484c-.345 1.311-1.45 2.07-2.967 2.07-1.955 0-3.22-1.311-3.29-3.312v-.161h8.879c.046-.322.069-.644.069-.943-.07-3.45-2.346-5.612-5.75-5.612-3.473 0-5.796 2.415-5.796 6.049 0 3.611 2.323 6.003 6.026 6.003zm-3.335-7.314c.184-1.679 1.54-2.737 3.128-2.737 1.725 0 2.944.989 3.15 2.737h-6.278zm17.073-4.738c-1.909 0-3.036.759-3.772 1.679l-.276-1.541h-2.162V62h2.484v-5.934c0-2.392 1.173-3.841 3.151-3.841 1.863 0 2.806 1.196 2.806 3.427V62h2.507v-6.555c0-3.933-2.139-5.359-4.738-5.359zm18.448 12.052c3.588 0 6.003-2.415 6.003-6.026 0-3.588-2.415-6.026-6.003-6.026s-6.003 2.438-6.003 6.026c0 3.611 2.415 6.026 6.003 6.026zm0-2.116c-2.093 0-3.45-1.633-3.45-3.91s1.357-3.91 3.45-3.91 3.473 1.633 3.473 3.91-1.38 3.91-3.473 3.91zm8.761-1.219c0 2.139.966 3.197 3.22 3.197h2.3v-2.185h-1.748c-.943 0-1.265-.345-1.265-1.265v-6.141h2.875v-2.185H81.73v-3.289h-2.507v3.289h-2.047v2.185h2.047v6.394zm13.287-8.717c-1.84 0-2.967.828-3.703 1.84V45.9h-2.484V62h2.485v-5.957c0-2.369 1.195-3.818 3.15-3.818 1.84 0 2.83 1.196 2.83 3.427V62h2.484v-6.555c0-3.933-2.14-5.359-4.762-5.359zm12.52 12.052c2.921 0 4.899-1.771 5.313-4.094h-2.484c-.345 1.311-1.449 2.07-2.967 2.07-1.955 0-3.22-1.311-3.289-3.312v-.161h8.878c.046-.322.069-.644.069-.943-.069-3.45-2.346-5.612-5.75-5.612-3.473 0-5.796 2.415-5.796 6.049 0 3.611 2.323 6.003 6.026 6.003zm-3.335-7.314c.184-1.679 1.541-2.737 3.128-2.737 1.725 0 2.944.989 3.151 2.737h-6.279zm16.82-4.6c-1.932 0-2.875.782-3.473 1.771l-.276-1.771h-2.208V62h2.484v-5.911c0-1.817.713-3.542 2.921-3.542h1.104v-2.323h-.552zm1.376 7.889c.069 2.553 2.231 4.025 5.382 4.025 2.852 0 4.991-1.426 4.991-3.68 0-2.622-2.185-3.174-4.876-3.496-1.702-.184-2.829-.322-2.829-1.426 0-.943.966-1.541 2.438-1.541 1.472 0 2.484.759 2.622 1.84h2.438c-.161-2.415-2.208-3.749-5.106-3.749-2.829-.023-4.83 1.426-4.83 3.657 0 2.438 2.116 3.013 4.807 3.335 1.817.23 2.898.322 2.898 1.587 0 .943-1.012 1.541-2.553 1.541-1.794 0-2.852-.874-2.944-2.093h-2.438zm23.587 4.025c3.013 0 5.014-1.679 5.474-4.347h-2.622c-.299 1.357-1.311 2.231-2.829 2.231-2.001 0-3.312-1.587-3.312-3.887 0-2.323 1.311-3.933 3.312-3.933 1.541 0 2.53.851 2.852 2.231h2.599c-.483-2.668-2.369-4.347-5.405-4.347-3.565 0-5.911 2.415-5.911 6.049 0 3.68 2.277 6.003 5.842 6.003zm18.14-2.3c-.506 0-.759-.161-.759-.759v-4.715c0-2.783-1.794-4.278-4.922-4.278-2.967 0-4.945 1.426-5.198 3.726h2.438c.184-1.035 1.173-1.725 2.645-1.725 1.633 0 2.576.805 2.576 2.116v.713h-2.967c-3.289 0-5.037 1.357-5.037 3.772 0 2.185 1.794 3.45 4.37 3.45 1.909 0 3.105-.828 3.887-2.024 0 1.173.552 1.886 2.162 1.886h1.311v-2.162h-.506zm-3.22-2.668c-.023 1.817-1.219 3.036-3.289 3.036-1.357 0-2.185-.69-2.185-1.679 0-1.196.851-1.771 2.392-1.771h3.082v.414zm11.289-7.084c-1.909 0-3.036.759-3.772 1.679l-.276-1.541h-2.162V62h2.484v-5.934c0-2.392 1.173-3.841 3.151-3.841 1.863 0 2.806 1.196 2.806 3.427V62h2.507v-6.555c0-3.933-2.139-5.359-4.738-5.359zm7.585-4.324c-1.058 0-1.748.69-1.748 1.564 0 .966.598 1.472 1.357 1.472.276 0 .552-.092.759-.253.023.115.023.207.023.322 0 .805-.575 1.702-2.024 1.702v1.357c2.277-.023 3.703-1.288 3.703-3.519 0-1.495-.805-2.645-2.07-2.645zm5.294 13.041c0 2.139.966 3.197 3.22 3.197h2.3v-2.185h-1.748c-.943 0-1.265-.345-1.265-1.265v-6.141h2.875v-2.185h-2.875v-3.289h-2.507v3.289h-2.047v2.185h2.047v6.394zm7.005 1.771c0 .92.667 1.564 1.587 1.564.92 0 1.61-.644 1.61-1.564s-.69-1.564-1.61-1.564c-.92 0-1.587.644-1.587 1.564z" fill="#000"/><defs><linearGradient id="paint0_linear_13_400" x1="245" y1="20.5" x2="0" y2="20.5" gradientUnits="userSpaceOnUse"><stop stop-color="#FF4343"/><stop offset=".5" stop-color="#9C0B93"/><stop offset="1" stop-color="#4C1BB7"/></linearGradient></defs></svg>