<svg width="144" height="16" viewBox="0 0 144 16" fill="none" xmlns="http://www.w3.org/2000/svg"><path d="M17.591 15V1.067h-4.916L9.052 7.058 5.449 1.067H.533V15h3.682V6.083l4.2 7.086h1.274l4.2-7.086V15h3.702zM33.22 1.067h-3.762V8.61c0 2.229-1.015 3.164-2.647 3.164-1.612 0-2.628-.935-2.648-3.164V1.087H20.42V8.61c0 4.558 2.468 6.588 6.39 6.588 3.921 0 6.41-2.03 6.41-6.588V1.067zm6.475 10.57V1.066h-3.742V15H46.52v-3.364h-6.827zM57.18 4.27V1.067H45.338V4.27h4.04V15h3.762V4.271h4.041zM62.806 15V1.087h-3.742V15h3.742zm8.978-3.702V8.392h-6.907v2.906h6.907zM88.904 15L83.35 1.067h-4.916L72.94 15h4.478l.896-2.428h5.215L84.425 15h4.478zM79.29 9.586l1.612-4.34 1.612 4.34H79.29zM96.207.868c-3.245.02-5.792 1.433-5.792 4.558 0 2.727 2.269 3.463 5.434 4.22 2.289.577 2.687.656 2.687 1.453 0 .637-.677.915-1.453.915-1.772 0-3.782-.517-5.594-1.532l-1.672 2.786c1.911 1.274 4.26 1.951 6.848 1.951 3.582 0 5.832-1.632 5.832-4.598 0-2.846-2.329-3.643-5.594-4.518-2.17-.538-2.428-.717-2.428-1.155 0-.637.617-.916 1.334-.916 1.373 0 3.244.478 4.837 1.294l1.572-2.886c-1.632-.995-3.782-1.572-6.011-1.572zm14.112 0c-3.244.02-5.792 1.433-5.792 4.558 0 2.727 2.269 3.463 5.434 4.22 2.289.577 2.687.656 2.687 1.453 0 .637-.677.915-1.453.915-1.772 0-3.782-.517-5.593-1.532l-1.672 2.786c1.91 1.274 4.259 1.951 6.847 1.951 3.583 0 5.832-1.632 5.832-4.598 0-2.846-2.329-3.643-5.593-4.518-2.17-.538-2.429-.717-2.429-1.155 0-.637.617-.916 1.334-.916 1.373 0 3.244.478 4.837 1.294l1.572-2.886c-1.632-.995-3.782-1.572-6.011-1.572zm19.845 3.563V1.067h-11.406V15h11.525v-3.364H122.5v-2.09h7.126V6.361H122.5v-1.93h7.664zm13.148-.16V1.067h-11.844V4.27h4.041V15h3.762V4.271h4.041z" fill="#09B45B"/></svg>