<svg width="65" height="17" viewBox="0 0 65 17" fill="none" xmlns="http://www.w3.org/2000/svg"><path d="M8.638.875C4.333.853.265 3.687.265 8.685c0 4.283 3.635 7.766 8.113 7.766 2.553 0 4.911-.844 6.728-2.293v-6.62H8.638v2.899h2.596v1.45a5.618 5.618 0 01-2.856.757c-2.271 0-3.85-1.774-3.85-3.96 0-2.53 1.925-4.045 4.11-4.045 1.168 0 2.358.411 3.31 1.233l2.66-2.79C12.922 1.631 10.78.895 8.639.874zm17.128.021c-4.479 0-8.113 3.483-8.113 7.789 0 4.283 3.634 7.766 8.113 7.766 4.478 0 8.113-3.483 8.113-7.766 0-4.306-3.635-7.789-8.113-7.789zm0 3.808c2.271 0 3.872 1.774 3.872 3.98 0 2.186-1.6 3.96-3.872 3.96s-3.851-1.774-3.851-3.96c0-2.206 1.58-3.98 3.85-3.98zm14.873 7.875V1.09H36.57v15.144H48.06v-3.656h-7.42zm9.475-11.466v15.122h6.49c4.478 0 8.113-3.267 8.113-7.55 0-4.306-3.635-7.594-8.113-7.594l-6.49.022zm4.067 3.634h2.272c2.25 0 4.088 1.688 4.088 3.916 0 2.25-1.838 3.937-4.088 3.937H54.18V4.747z" fill="#09B45B"/></svg>