<svg width="320" height="20" viewBox="0 0 320 20" fill="none" xmlns="http://www.w3.org/2000/svg"><path fill="#fff" d="M0 0h320v20H0z"/><path d="M2.785 9h.805l1.204-4.228V4.1h-2.31v.7h1.554L2.785 9zm3.041 0h.77V4.1h-.518c-.175.476-.406.616-1.057.616v.546h.805V9zm1.421 0h.77v-.77h-.77V9zm2.487.07c.756 0 1.169-.448 1.169-1.232v-.875c0-.721-.287-1.12-.854-1.12-.322 0-.56.14-.714.427v-.938c0-.469.154-.602.427-.602.245 0 .399.133.399.483v.14h.728v-.091c0-.784-.392-1.232-1.148-1.232-.798 0-1.176.448-1.176 1.274v2.534c0 .784.413 1.232 1.169 1.232zm0-.7c-.266 0-.4-.154-.4-.476v-.868c0-.329.134-.483.4-.483s.399.154.399.483v.868c0 .322-.133.476-.4.476zm2.237-1.547c.483 0 .742-.28.742-.784V4.814c0-.504-.26-.784-.742-.784-.483 0-.742.28-.742.784v1.225c0 .504.259.784.742.784zM11.85 9h.49l1.898-4.9h-.49L11.852 9zm.12-2.618c-.161 0-.252-.091-.252-.308V4.779c0-.217.09-.308.252-.308.154 0 .252.091.252.308v1.295c0 .217-.098.308-.252.308zM14.12 9.07c.483 0 .742-.28.742-.784V7.061c0-.504-.26-.784-.742-.784-.483 0-.742.28-.742.784v1.225c0 .504.259.784.742.784zm0-.441c-.161 0-.252-.091-.252-.308V7.026c0-.217.09-.308.252-.308.154 0 .252.091.252.308v1.295c0 .217-.098.308-.252.308zm3.316.441c.7 0 1.092-.42 1.092-1.162V6.522c0-.742-.392-1.162-1.092-1.162-.7 0-1.092.42-1.092 1.162v1.386c0 .742.392 1.162 1.092 1.162zm0-.658c-.266 0-.35-.182-.35-.434V6.452c0-.245.077-.434.35-.434.273 0 .35.189.35.434v1.526c0 .252-.084.434-.35.434zm2.835-3.724c.077 0 .16.014.252.042V4.1a1.075 1.075 0 00-.406-.07c-.588 0-.875.287-.875.868v.532h-.406v.63h.406V9h.742V6.06h.539v-.63h-.54v-.434c0-.224.078-.308.288-.308zm3.085.672c-.364 0-.595.224-.693.672l-.014-.602h-.644V9h.742V6.942c0-.553.217-.84.63-.84.063 0 .133.007.19.021v-.721a.447.447 0 00-.21-.042zm1.572 0c-.714 0-1.1.42-1.1 1.162v1.386c0 .742.386 1.162 1.1 1.162.714 0 1.099-.42 1.099-1.162v-.063h-.714v.133c0 .315-.133.434-.371.434-.245 0-.371-.119-.371-.434v-.602h1.456v-.854c0-.742-.385-1.162-1.1-1.162zm-.357 1.428v-.336c0-.315.133-.434.364-.434.23 0 .364.119.364.434v.336h-.728zM28 6.06v-.63h-.539v-.966h-.637l-.07.966h-.44v.63h.405v2.142c0 .581.287.868.875.868.154 0 .28-.021.406-.07v-.63a.862.862 0 01-.252.042c-.21 0-.287-.084-.287-.308V6.06h.54zM30.538 9c-.049-.203-.084-.525-.084-1.029V6.536c0-.784-.294-1.176-1.035-1.176-.686 0-1.044.399-1.044 1.092v.091h.7V6.41c0-.266.105-.413.337-.413.21 0 .3.119.3.406v.07c0 .196-.07.259-.58.511-.63.308-.862.63-.862 1.19 0 .553.302.896.777.896.357 0 .623-.175.756-.49.008.224.035.378.056.42h.68zm-1.21-.567c-.21 0-.316-.133-.316-.385 0-.231.113-.413.337-.553.195-.126.308-.196.363-.266v.609c0 .392-.133.595-.384.595zm1.694-3.444h.742v-.812h-.742v.812zm0 4.011h.742V5.43h-.742V9zm1.32 0h.741V4.1h-.742V9zm2.44-4.011h.742v-.812h-.742v.812zm0 4.011h.742V5.43h-.742V9zm2.691-3.64a.74.74 0 00-.714.483l-.014-.413h-.644V9h.742V6.592c0-.427.168-.574.378-.574.224 0 .308.161.308.469V9h.742V6.403c0-.735-.3-1.043-.798-1.043zM39.333 9h.91l.72-3.57h-.692l-.448 2.569-.455-2.569h-.756l.72 3.57zm3.013-3.64c-.714 0-1.1.42-1.1 1.162v1.386c0 .742.386 1.162 1.1 1.162.714 0 1.099-.42 1.099-1.162v-.063h-.714v.133c0 .315-.133.434-.371.434-.245 0-.371-.119-.371-.434v-.602h1.456v-.854c0-.742-.385-1.162-1.1-1.162zm-.357 1.428v-.336c0-.315.133-.434.364-.434.23 0 .364.119.364.434v.336h-.728zm2.884 2.282c.679 0 1.022-.406 1.022-1.036 0-.637-.42-.882-.798-1.092-.294-.161-.546-.315-.546-.609 0-.245.133-.336.287-.336.182 0 .294.098.294.385v.098h.7v-.077c0-.651-.392-1.043-1.001-1.043-.658 0-1.001.392-1.001.987 0 .672.434.917.812 1.134.28.161.518.301.518.567 0 .28-.133.385-.322.385s-.329-.112-.329-.434v-.133h-.714v.112c0 .686.392 1.092 1.078 1.092zm2.911-3.01v-.63h-.539v-.966h-.637l-.07.966h-.44v.63h.405v2.142c0 .581.287.868.875.868.154 0 .28-.021.406-.07v-.63a.862.862 0 01-.252.042c-.21 0-.287-.084-.287-.308V6.06h.54zm1.432 3.01c.7 0 1.092-.42 1.092-1.162V6.522c0-.742-.392-1.162-1.092-1.162-.7 0-1.092.42-1.092 1.162v1.386c0 .742.392 1.162 1.092 1.162zm0-.658c-.266 0-.35-.182-.35-.434V6.452c0-.245.077-.434.35-.434.273 0 .35.189.35.434v1.526c0 .252-.084.434-.35.434zm2.947-3.052c-.364 0-.595.224-.693.672l-.014-.602h-.644V9h.742V6.942c0-.553.217-.84.63-.84.063 0 .133.007.189.021v-.721a.447.447 0 00-.21-.042zM55.961 9c-.049-.203-.084-.525-.084-1.029V6.536c0-.784-.294-1.176-1.036-1.176-.686 0-1.043.399-1.043 1.092v.091h.7V6.41c0-.266.105-.413.336-.413.21 0 .301.119.301.406v.07c0 .196-.07.259-.58.511-.63.308-.862.63-.862 1.19 0 .553.301.896.777.896.357 0 .623-.175.756-.49.007.224.035.378.056.42h.68zm-1.21-.567c-.21 0-.316-.133-.316-.385 0-.231.112-.413.336-.553.196-.126.308-.196.364-.266v.609c0 .392-.133.595-.385.595zm2.709.637c.714 0 1.057-.448 1.057-1.148v-.287h-.714v.357c0 .266-.091.42-.343.42s-.343-.154-.343-.42V6.438c0-.266.09-.42.343-.42.252 0 .343.154.343.42v.287h.714v-.217c0-.7-.343-1.148-1.057-1.148-.707 0-1.085.42-1.085 1.148v1.414c0 .728.378 1.148 1.085 1.148zm2.55 0c.714 0 1.057-.448 1.057-1.148v-.287h-.714v.357c0 .266-.091.42-.343.42s-.343-.154-.343-.42V6.438c0-.266.09-.42.343-.42.252 0 .343.154.343.42v.287h.714v-.217c0-.7-.343-1.148-1.057-1.148-.707 0-1.085.42-1.085 1.148v1.414c0 .728.378 1.148 1.085 1.148zm2.556 0c.7 0 1.092-.42 1.092-1.162V6.522c0-.742-.392-1.162-1.092-1.162-.7 0-1.092.42-1.092 1.162v1.386c0 .742.392 1.162 1.092 1.162zm0-.658c-.266 0-.35-.182-.35-.434V6.452c0-.245.077-.434.35-.434.273 0 .35.189.35.434v1.526c0 .252-.084.434-.35.434zM65.57 5.43v2.408c0 .427-.168.574-.378.574-.224 0-.308-.161-.308-.469V5.43h-.742v2.597c0 .735.3 1.043.798 1.043a.74.74 0 00.714-.483l.014.413h.644V5.43h-.742zm2.685-.07a.74.74 0 00-.714.483l-.014-.413h-.644V9h.742V6.592c0-.427.168-.574.378-.574.224 0 .308.161.308.469V9h.742V6.403c0-.735-.3-1.043-.798-1.043zm2.833.7v-.63h-.539v-.966h-.637l-.07.966h-.441v.63h.406v2.142c0 .581.287.868.875.868.154 0 .28-.021.406-.07v-.63a.862.862 0 01-.252.042c-.21 0-.287-.084-.287-.308V6.06h.539zm1.354 3.01c.68 0 1.022-.406 1.022-1.036 0-.637-.42-.882-.798-1.092-.294-.161-.546-.315-.546-.609 0-.245.133-.336.287-.336.182 0 .294.098.294.385v.098h.7v-.077c0-.651-.392-1.043-1-1.043-.659 0-1.002.392-1.002.987 0 .672.434.917.812 1.134.28.161.518.301.518.567 0 .28-.133.385-.322.385s-.329-.112-.329-.434v-.133h-.714v.112c0 .686.392 1.092 1.078 1.092zM75.018 9h.742V4.1h-.742V9zm2.341.07c.7 0 1.092-.42 1.092-1.162V6.522c0-.742-.392-1.162-1.092-1.162-.7 0-1.092.42-1.092 1.162v1.386c0 .742.392 1.162 1.092 1.162zm0-.658c-.266 0-.35-.182-.35-.434V6.452c0-.245.077-.434.35-.434.273 0 .35.189.35.434v1.526c0 .252-.084.434-.35.434zm2.535.658c.679 0 1.022-.406 1.022-1.036 0-.637-.42-.882-.798-1.092-.294-.161-.546-.315-.546-.609 0-.245.133-.336.287-.336.182 0 .294.098.294.385v.098h.7v-.077c0-.651-.392-1.043-1.001-1.043-.658 0-1.001.392-1.001.987 0 .672.434.917.812 1.134.28.161.518.301.518.567 0 .28-.133.385-.322.385-.19 0-.33-.112-.33-.434v-.133h-.713v.112c0 .686.392 1.092 1.078 1.092zm2.483-3.71c-.714 0-1.099.42-1.099 1.162v1.386c0 .742.385 1.162 1.1 1.162.713 0 1.098-.42 1.098-1.162v-.063h-.714v.133c0 .315-.133.434-.37.434-.246 0-.372-.119-.372-.434v-.602h1.456v-.854c0-.742-.385-1.162-1.099-1.162zm-.357 1.428v-.336c0-.315.133-.434.364-.434.231 0 .364.119.364.434v.336h-.728zm5.84-1.428a.739.739 0 00-.7.476c-.127-.329-.372-.476-.715-.476-.322 0-.574.175-.7.483l-.014-.413h-.644V9h.742V6.592c0-.42.161-.574.371-.574.238 0 .301.189.301.434V9h.742V6.592c0-.42.161-.574.371-.574.238 0 .301.189.301.434V9h.742V6.403c0-.728-.3-1.043-.798-1.043zm2.371 3.71c.7 0 1.093-.42 1.093-1.162V6.522c0-.742-.392-1.162-1.093-1.162-.7 0-1.091.42-1.091 1.162v1.386c0 .742.391 1.162 1.091 1.162zm0-.658c-.265 0-.35-.182-.35-.434V6.452c0-.245.078-.434.35-.434.273 0 .35.189.35.434v1.526c0 .252-.084.434-.35.434zM93.2 5.36a.74.74 0 00-.714.483l-.014-.413h-.644V9h.742V6.592c0-.427.168-.574.378-.574.224 0 .308.161.308.469V9h.742V6.403c0-.735-.301-1.043-.798-1.043zm2.377 0c-.714 0-1.099.42-1.099 1.162v1.386c0 .742.385 1.162 1.1 1.162.713 0 1.098-.42 1.098-1.162v-.063h-.714v.133c0 .315-.133.434-.37.434-.246 0-.372-.119-.372-.434v-.602h1.456v-.854c0-.742-.385-1.162-1.099-1.162zm-.357 1.428v-.336c0-.315.133-.434.364-.434.231 0 .364.119.364.434v.336h-.728zm2.31 3.367c.575 0 .855-.238.98-.847l.792-3.878h-.693l-.427 2.457-.476-2.457h-.756l.86 3.717-.013.049c-.05.231-.14.301-.392.301a.858.858 0 01-.273-.042v.63c.126.056.266.07.399.07zM101.147 9h.945l.336-2.198.336 2.198h.896l.539-3.57h-.658l-.378 2.569-.35-2.569h-.749l-.35 2.569-.378-2.569h-.728l.539 3.57zm4.809-3.64a.729.729 0 00-.63.322V4.1h-.742V9h.742V6.592c0-.427.168-.574.378-.574.224 0 .308.161.308.469V9h.742V6.403c0-.735-.301-1.043-.798-1.043zm2.378 0c-.714 0-1.099.42-1.099 1.162v1.386c0 .742.385 1.162 1.099 1.162s1.099-.42 1.099-1.162v-.063h-.714v.133c0 .315-.133.434-.371.434-.245 0-.371-.119-.371-.434v-.602h1.456v-.854c0-.742-.385-1.162-1.099-1.162zm-.357 1.428v-.336c0-.315.133-.434.364-.434.231 0 .364.119.364.434v.336h-.728zm3.318-1.428a.74.74 0 00-.714.483l-.014-.413h-.644V9h.742V6.592c0-.427.168-.574.378-.574.224 0 .308.161.308.469V9h.742V6.403c0-.735-.301-1.043-.798-1.043zm3.954.7v-.63h-.539v-.966h-.637l-.07.966h-.441v.63h.406v2.142c0 .581.287.868.875.868.154 0 .28-.021.406-.07v-.63a.862.862 0 01-.252.042c-.21 0-.287-.084-.287-.308V6.06h.539zm1.768-.7c-.364 0-.595.224-.693.672l-.014-.602h-.644V9h.742V6.942c0-.553.217-.84.63-.84.063 0 .133.007.189.021v-.721a.447.447 0 00-.21-.042zM119.652 9c-.049-.203-.084-.525-.084-1.029V6.536c0-.784-.294-1.176-1.036-1.176-.686 0-1.043.399-1.043 1.092v.091h.7V6.41c0-.266.105-.413.336-.413.21 0 .301.119.301.406v.07c0 .196-.07.259-.581.511-.63.308-.861.63-.861 1.19 0 .553.301.896.777.896.357 0 .623-.175.756-.49.007.224.035.378.056.42h.679zm-1.211-.567c-.21 0-.315-.133-.315-.385 0-.231.112-.413.336-.553.196-.126.308-.196.364-.266v.609c0 .392-.133.595-.385.595zm3.913.567c-.049-.203-.084-.525-.084-1.029V4.1h-.742v1.589a.756.756 0 00-.637-.329c-.49 0-.805.308-.805 1.043v1.624c0 .735.315 1.043.805 1.043a.756.756 0 00.721-.49c.014.224.042.378.063.42h.679zm-1.211-.588c-.245 0-.315-.189-.315-.434V6.452c0-.245.07-.434.315-.434.21 0 .385.154.385.574v1.246c0 .42-.175.574-.385.574zm1.699-3.423h.742v-.812h-.742v.812zm0 4.011h.742V5.43h-.742V9zm2.692-3.64a.74.74 0 00-.714.483l-.014-.413h-.644V9h.742V6.592c0-.427.168-.574.378-.574.224 0 .308.161.308.469V9h.742V6.403c0-.735-.301-1.043-.798-1.043zm2.825.07l-.014.42a.753.753 0 00-.714-.49c-.497 0-.812.308-.812 1.043v1.449c0 .735.315 1.043.812 1.043a.743.743 0 00.63-.329v.539c0 .315-.119.441-.371.441-.231 0-.336-.126-.336-.315v-.056h-.714v.021c0 .616.357.959 1.064.959.833 0 1.099-.42 1.099-1.106V5.43h-.644zm-.483 2.807c-.245 0-.315-.189-.315-.434V6.452c0-.245.07-.434.315-.434.21 0 .385.154.385.574v1.071c0 .42-.175.574-.385.574zm3.899.833c.742 0 1.134-.448 1.134-1.204v-.658h-.728v.714c0 .322-.154.448-.385.448s-.385-.126-.385-.448V5.185c0-.322.154-.455.385-.455s.385.133.385.455v.567h.728v-.518c0-.756-.392-1.204-1.134-1.204-.742 0-1.134.448-1.134 1.204v2.632c0 .756.392 1.204 1.134 1.204zm1.588-.07h.77V6.865h.994v-.7h-.994V4.8h1.267v-.7h-2.037V9zm2.406 0h1.176c.77 0 1.148-.427 1.148-1.211V5.311c0-.784-.378-1.211-1.148-1.211h-1.176V9zm.77-.7V4.8h.392c.245 0 .392.126.392.476v2.548c0 .35-.147.476-.392.476h-.392zm3.046.77c.679 0 1.022-.406 1.022-1.036 0-.637-.42-.882-.798-1.092-.294-.161-.546-.315-.546-.609 0-.245.133-.336.287-.336.182 0 .294.098.294.385v.098h.7v-.077c0-.651-.392-1.043-1.001-1.043-.658 0-1.001.392-1.001.987 0 .672.434.917.812 1.134.28.161.518.301.518.567 0 .28-.133.385-.322.385s-.329-.112-.329-.434v-.133h-.714v.112c0 .686.392 1.092 1.078 1.092zm2.926-.07h.945l.336-2.198.336 2.198h.896l.539-3.57h-.658l-.378 2.569-.35-2.569h-.749l-.35 2.569-.378-2.569h-.728l.539 3.57zm3.437-4.011h.742v-.812h-.742v.812zm0 4.011h.742V5.43h-.742V9zm2.803-2.94v-.63h-.539v-.966h-.637l-.07.966h-.441v.63h.406v2.142c0 .581.287.868.875.868.154 0 .28-.021.406-.07v-.63a.862.862 0 01-.252.042c-.21 0-.287-.084-.287-.308V6.06h.539zm1.788-.7a.729.729 0 00-.63.322V4.1h-.742V9h.742V6.592c0-.427.168-.574.378-.574.224 0 .308.161.308.469V9h.742V6.403c0-.735-.301-1.043-.798-1.043zm3.954.7v-.63h-.539v-.966h-.637l-.07.966h-.441v.63h.406v2.142c0 .581.287.868.875.868.154 0 .28-.021.406-.07v-.63a.862.862 0 01-.252.042c-.21 0-.287-.084-.287-.308V6.06h.539zm1.789-.7a.729.729 0 00-.63.322V4.1h-.742V9h.742V6.592c0-.427.168-.574.378-.574.224 0 .308.161.308.469V9h.742V6.403c0-.735-.301-1.043-.798-1.043zm1.348-.371h.742v-.812h-.742v.812zm0 4.011h.742V5.43h-.742V9zm2.258.07c.679 0 1.022-.406 1.022-1.036 0-.637-.42-.882-.798-1.092-.294-.161-.546-.315-.546-.609 0-.245.133-.336.287-.336.182 0 .294.098.294.385v.098h.7v-.077c0-.651-.392-1.043-1.001-1.043-.658 0-1.001.392-1.001.987 0 .672.434.917.812 1.134.28.161.518.301.518.567 0 .28-.133.385-.322.385s-.329-.112-.329-.434v-.133h-.714v.112c0 .686.392 1.092 1.078 1.092zm3.947-3.71a.753.753 0 00-.714.49l-.014-.42h-.644v4.655h.742V8.741c.147.21.364.329.63.329.497 0 .812-.308.812-1.043V6.403c0-.735-.315-1.043-.812-1.043zm.07 2.618c0 .245-.07.434-.315.434-.21 0-.385-.154-.385-.574V6.592c0-.42.175-.574.385-.574.245 0 .315.189.315.434v1.526zm2.616-2.618c-.364 0-.595.224-.693.672l-.014-.602h-.644V9h.742V6.942c0-.553.217-.84.63-.84.063 0 .133.007.189.021v-.721a.447.447 0 00-.21-.042zm1.565 3.71c.7 0 1.092-.42 1.092-1.162V6.522c0-.742-.392-1.162-1.092-1.162-.7 0-1.092.42-1.092 1.162v1.386c0 .742.392 1.162 1.092 1.162zm0-.658c-.266 0-.35-.182-.35-.434V6.452c0-.245.077-.434.35-.434.273 0 .35.189.35.434v1.526c0 .252-.084.434-.35.434zM170.18 9h.91l.721-3.57h-.693l-.448 2.569-.455-2.569h-.756L170.18 9zm2.004-4.011h.742v-.812h-.742v.812zm0 4.011h.742V5.43h-.742V9zm3.538 0c-.049-.203-.084-.525-.084-1.029V4.1h-.742v1.589a.756.756 0 00-.637-.329c-.49 0-.805.308-.805 1.043v1.624c0 .735.315 1.043.805 1.043a.756.756 0 00.721-.49c.014.224.042.378.063.42h.679zm-1.211-.588c-.245 0-.315-.189-.315-.434V6.452c0-.245.07-.434.315-.434.21 0 .385.154.385.574v1.246c0 .42-.175.574-.385.574zm2.728-3.052c-.714 0-1.099.42-1.099 1.162v1.386c0 .742.385 1.162 1.099 1.162s1.099-.42 1.099-1.162v-.063h-.714v.133c0 .315-.133.434-.371.434-.245 0-.371-.119-.371-.434v-.602h1.456v-.854c0-.742-.385-1.162-1.099-1.162zm-.357 1.428v-.336c0-.315.133-.434.364-.434.231 0 .364.119.364.434v.336h-.728zm3.298-1.428c-.364 0-.595.224-.693.672l-.014-.602h-.644V9h.742V6.942c0-.553.217-.84.63-.84.063 0 .133.007.189.021v-.721a.447.447 0 00-.21-.042zm.023 3.64h.77v-.77h-.77V9zm3.32 0h.546V6.851l.987-2.751h-.539l-.7 2.044-.7-2.044h-.581l.987 2.751V9zm2.575.07c.665 0 1.036-.413 1.036-1.141V6.543c0-.728-.371-1.134-1.036-1.134-.672 0-1.036.406-1.036 1.134v1.386c0 .728.364 1.141 1.036 1.141zm0-.469c-.364 0-.511-.238-.511-.623V6.494c0-.378.147-.616.511-.616s.504.238.504.616v1.484c0 .385-.147.623-.504.623zm3.13-3.122v2.338c0 .525-.238.784-.553.784-.308 0-.441-.21-.441-.616V5.479h-.532v2.569c0 .707.294 1.022.812 1.022.357 0 .637-.196.777-.539l.007.469h.455V5.479h-.525zm3.212 3.591c.63 0 .98-.378.98-.98 0-.63-.434-.861-.826-1.064-.336-.168-.63-.329-.63-.686 0-.322.203-.476.448-.476.266 0 .448.154.448.511v.084h.497v-.07c0-.616-.378-.98-.952-.98-.602 0-.952.364-.952.938 0 .651.441.875.833 1.085.322.161.609.322.609.665 0 .357-.196.511-.483.511s-.483-.161-.483-.539v-.133h-.511v.119c0 .637.378 1.015 1.022 1.015zm2.736-3.661a.795.795 0 00-.714.406V4.1h-.525V9h.525V6.662c0-.525.238-.784.553-.784.308 0 .441.21.441.616V9h.532V6.424c0-.7-.294-1.015-.812-1.015zm2.421 3.661c.665 0 1.036-.413 1.036-1.141V6.543c0-.728-.371-1.134-1.036-1.134-.672 0-1.036.406-1.036 1.134v1.386c0 .728.364 1.141 1.036 1.141zm0-.469c-.364 0-.511-.238-.511-.623V6.494c0-.378.147-.616.511-.616s.504.238.504.616v1.484c0 .385-.147.623-.504.623zm3.129-3.122v2.338c0 .525-.238.784-.553.784-.308 0-.441-.21-.441-.616V5.479h-.532v2.569c0 .707.294 1.022.812 1.022.357 0 .637-.196.777-.539l.007.469h.455V5.479h-.525zM201.922 9h.525V4.1h-.525V9zm3.289 0c-.049-.203-.077-.511-.077-.959V4.1h-.525v1.729a.816.816 0 00-.728-.42c-.511 0-.819.315-.819 1.015v1.624c0 .7.308 1.022.819 1.022.364 0 .644-.203.791-.546.007.231.028.399.056.476h.483zm-1.169-.399c-.322 0-.448-.231-.448-.595v-1.54c0-.357.126-.588.448-.588s.567.266.567.784v1.155c0 .518-.245.784-.567.784zm3.863.469c.679 0 1.008-.427 1.008-1.127v-.224h-.511v.273c0 .392-.147.609-.497.609s-.497-.217-.497-.609V6.48c0-.392.147-.602.497-.602s.497.21.497.602v.203h.511v-.154c0-.7-.329-1.12-1.008-1.12-.672 0-1.029.399-1.029 1.12v1.414c0 .721.357 1.127 1.029 1.127zm2.536 0c.665 0 1.036-.413 1.036-1.141V6.543c0-.728-.371-1.134-1.036-1.134-.672 0-1.036.406-1.036 1.134v1.386c0 .728.364 1.141 1.036 1.141zm0-.469c-.364 0-.511-.238-.511-.623V6.494c0-.378.147-.616.511-.616s.504.238.504.616v1.484c0 .385-.147.623-.504.623zm2.871-3.192c-.357 0-.637.196-.777.532l-.007-.462h-.455V9h.525V6.662c0-.525.238-.784.553-.784.308 0 .441.21.441.616V9h.532V6.424c0-.7-.294-1.015-.812-1.015zm2.329 3.661c.63 0 .98-.378.98-.98 0-.63-.434-.861-.826-1.064-.336-.168-.63-.329-.63-.686 0-.322.203-.476.448-.476.266 0 .448.154.448.511v.084h.497v-.07c0-.616-.378-.98-.952-.98-.602 0-.952.364-.952.938 0 .651.441.875.833 1.085.322.161.609.322.609.665 0 .357-.196.511-.483.511s-.483-.161-.483-.539v-.133h-.511v.119c0 .637.378 1.015 1.022 1.015zm1.497-4.095h.525v-.756h-.525v.756zm0 4.025h.525V5.479h-.525V9zm3.29 0c-.049-.203-.077-.511-.077-.959V4.1h-.525v1.729a.816.816 0 00-.728-.42c-.511 0-.819.315-.819 1.015v1.624c0 .7.308 1.022.819 1.022.364 0 .644-.203.791-.546.007.231.028.399.056.476h.483zm-1.169-.399c-.322 0-.448-.231-.448-.595v-1.54c0-.357.126-.588.448-.588s.567.266.567.784v1.155c0 .518-.245.784-.567.784zm2.735-3.192c-.679 0-1.043.406-1.043 1.134v1.386c0 .728.364 1.141 1.043 1.141.672 0 1.043-.413 1.043-1.141v-.056h-.511v.105c0 .427-.182.623-.525.623s-.518-.196-.518-.623V7.32h1.554v-.777c0-.728-.371-1.134-1.043-1.134zm-.511 1.477v-.392c0-.42.175-.616.511-.616s.525.196.525.616v.392h-1.036zm3.326-1.477c-.371 0-.616.21-.735.651l-.007-.581h-.455V9h.525V6.949c0-.679.231-1.015.686-1.015.077 0 .147.007.217.035v-.518a.487.487 0 00-.231-.042zM227.012 9h.679l.462-2.541.462 2.541h.644l.609-3.521h-.476l-.49 2.793-.469-2.793h-.553l-.469 2.793-.49-2.793h-.518L227.012 9zm4.566-3.591a.795.795 0 00-.714.406V4.1h-.525V9h.525V6.662c0-.525.238-.784.553-.784.308 0 .441.21.441.616V9h.532V6.424c0-.7-.294-1.015-.812-1.015zm2.427 0c-.679 0-1.043.406-1.043 1.134v1.386c0 .728.364 1.141 1.043 1.141.672 0 1.043-.413 1.043-1.141v-.056h-.511v.105c0 .427-.182.623-.525.623s-.518-.196-.518-.623V7.32h1.554v-.777c0-.728-.371-1.134-1.043-1.134zm-.511 1.477v-.392c0-.42.175-.616.511-.616s.525.196.525.616v.392h-1.036zm3.508-.959v-.448h-.637V4.464h-.455l-.056 1.015h-.455v.448h.434v2.338c0 .539.252.805.777.805a.89.89 0 00.392-.07v-.455a.778.778 0 01-.294.056c-.252 0-.343-.112-.343-.392V5.927h.637zm1.712-.518a.795.795 0 00-.714.406V4.1h-.525V9H238V6.662c0-.525.238-.784.553-.784.308 0 .441.21.441.616V9h.532V6.424c0-.7-.294-1.015-.812-1.015zm2.428 0c-.679 0-1.043.406-1.043 1.134v1.386c0 .728.364 1.141 1.043 1.141.672 0 1.043-.413 1.043-1.141v-.056h-.511v.105c0 .427-.182.623-.525.623s-.518-.196-.518-.623V7.32h1.554v-.777c0-.728-.371-1.134-1.043-1.134zm-.511 1.477v-.392c0-.42.175-.616.511-.616s.525.196.525.616v.392h-1.036zm3.325-1.477c-.371 0-.616.21-.735.651l-.007-.581h-.455V9h.525V6.949c0-.679.231-1.015.686-1.015.077 0 .147.007.217.035v-.518a.487.487 0 00-.231-.042zm2.078 4.746c.483 0 .721-.21.847-.756l.889-3.92h-.497l-.574 2.681-.63-2.681h-.539l.91 3.591-.07.252c-.063.287-.168.364-.413.364a.608.608 0 01-.28-.056v.455c.098.056.231.07.357.07zm3.14-1.085c.665 0 1.036-.413 1.036-1.141V6.543c0-.728-.371-1.134-1.036-1.134-.672 0-1.036.406-1.036 1.134v1.386c0 .728.364 1.141 1.036 1.141zm0-.469c-.364 0-.511-.238-.511-.623V6.494c0-.378.147-.616.511-.616s.504.238.504.616v1.484c0 .385-.147.623-.504.623zm3.129-3.122v2.338c0 .525-.238.784-.553.784-.308 0-.441-.21-.441-.616V5.479h-.532v2.569c0 .707.294 1.022.812 1.022.357 0 .637-.196.777-.539l.007.469h.455V5.479h-.525zm3.835 0v2.338c0 .525-.238.784-.553.784-.308 0-.441-.21-.441-.616V5.479h-.532v2.569c0 .707.294 1.022.812 1.022.357 0 .637-.196.777-.539l.007.469h.455V5.479h-.525zm2.435-.07c-.357 0-.637.196-.777.532l-.007-.462h-.455V9h.525V6.662c0-.525.238-.784.553-.784.308 0 .441.21.441.616V9h.532V6.424c0-.7-.294-1.015-.812-1.015zM262.12 9c-.049-.203-.077-.511-.077-.959V4.1h-.525v1.729a.816.816 0 00-.728-.42c-.511 0-.819.315-.819 1.015v1.624c0 .7.308 1.022.819 1.022.364 0 .644-.203.791-.546.007.231.028.399.056.476h.483zm-1.169-.399c-.322 0-.448-.231-.448-.595v-1.54c0-.357.126-.588.448-.588s.567.266.567.784v1.155c0 .518-.245.784-.567.784zm2.736-3.192c-.679 0-1.043.406-1.043 1.134v1.386c0 .728.364 1.141 1.043 1.141.672 0 1.043-.413 1.043-1.141v-.056h-.511v.105c0 .427-.182.623-.525.623s-.518-.196-.518-.623V7.32h1.554v-.777c0-.728-.371-1.134-1.043-1.134zm-.511 1.477v-.392c0-.42.175-.616.511-.616s.525.196.525.616v.392h-1.036zm3.325-1.477c-.371 0-.616.21-.735.651l-.007-.581h-.455V9h.525V6.949c0-.679.231-1.015.686-1.015.077 0 .147.007.217.035v-.518a.487.487 0 00-.231-.042zm1.504 3.661c.63 0 .98-.378.98-.98 0-.63-.434-.861-.826-1.064-.336-.168-.63-.329-.63-.686 0-.322.203-.476.448-.476.266 0 .448.154.448.511v.084h.497v-.07c0-.616-.378-.98-.952-.98-.602 0-.952.364-.952.938 0 .651.441.875.833 1.085.322.161.609.322.609.665 0 .357-.196.511-.483.511s-.483-.161-.483-.539v-.133h-.511v.119c0 .637.378 1.015 1.022 1.015zm2.841-3.143v-.448h-.637V4.464h-.455l-.056 1.015h-.455v.448h.434v2.338c0 .539.252.805.777.805a.89.89 0 00.392-.07v-.455a.778.778 0 01-.294.056c-.252 0-.343-.112-.343-.392V5.927h.637zM273.308 9c-.049-.203-.077-.518-.077-.959V6.473c0-.7-.301-1.064-.973-1.064-.63 0-.994.364-.994 1.022v.077h.497v-.105c0-.35.182-.539.49-.539.301 0 .455.175.455.525v.084c0 .238-.077.308-.665.574-.637.301-.875.609-.875 1.155 0 .532.301.868.784.868.392 0 .679-.196.819-.546a2.9 2.9 0 00.056.476h.483zm-1.176-.392c-.287 0-.434-.175-.434-.483s.147-.518.497-.693c.301-.154.441-.238.511-.329v.707c0 .504-.217.798-.574.798zm2.997-3.199c-.357 0-.637.196-.777.532l-.007-.462h-.455V9h.525V6.662c0-.525.238-.784.553-.784.308 0 .441.21.441.616V9h.532V6.424c0-.7-.294-1.015-.812-1.015zM278.677 9c-.049-.203-.077-.511-.077-.959V4.1h-.525v1.729a.816.816 0 00-.728-.42c-.511 0-.819.315-.819 1.015v1.624c0 .7.308 1.022.819 1.022.364 0 .644-.203.791-.546.007.231.028.399.056.476h.483zm-1.169-.399c-.322 0-.448-.231-.448-.595v-1.54c0-.357.126-.588.448-.588s.567.266.567.784v1.155c0 .518-.245.784-.567.784zm4.143-3.192a.795.795 0 00-.714.406V4.1h-.525V9h.525V6.662c0-.525.238-.784.553-.784.308 0 .441.21.441.616V9h.532V6.424c0-.7-.294-1.015-.812-1.015zm2.42 3.661c.665 0 1.036-.413 1.036-1.141V6.543c0-.728-.371-1.134-1.036-1.134-.672 0-1.036.406-1.036 1.134v1.386c0 .728.364 1.141 1.036 1.141zm0-.469c-.364 0-.511-.238-.511-.623V6.494c0-.378.147-.616.511-.616s.504.238.504.616v1.484c0 .385-.147.623-.504.623zm2.045.399h.679l.462-2.541.462 2.541h.644l.609-3.521h-.476l-.49 2.793-.469-2.793h-.553l-.469 2.793-.49-2.793h-.518L286.116 9zm5.504.07c.707 0 1.092-.441 1.092-1.169V7.25h-.518v.686c0 .42-.217.637-.56.637-.343 0-.56-.217-.56-.637V5.164c0-.42.217-.637.56-.637.343 0 .56.217.56.637v.539h.518v-.504c0-.735-.385-1.169-1.092-1.169-.7 0-1.092.434-1.092 1.169v2.702c0 .728.392 1.169 1.092 1.169zm1.637-.07h.546V6.76h1.127v-.497h-1.127V4.597h1.4V4.1h-1.946V9zm2.392 0h1.12c.756 0 1.106-.399 1.106-1.19V5.29c0-.791-.35-1.19-1.106-1.19h-1.12V9zm.546-.497V4.597h.56c.385 0 .574.182.574.665v2.569c0 .483-.189.672-.574.672h-.56zm3.207.567c.63 0 .98-.378.98-.98 0-.63-.434-.861-.826-1.064-.336-.168-.63-.329-.63-.686 0-.322.203-.476.448-.476.266 0 .448.154.448.511v.084h.497v-.07c0-.616-.378-.98-.952-.98-.602 0-.952.364-.952.938 0 .651.441.875.833 1.085.322.161.609.322.609.665 0 .357-.196.511-.483.511s-.483-.161-.483-.539v-.133h-.511v.119c0 .637.378 1.015 1.022 1.015zm3.052-.07h.679l.462-2.541.462 2.541h.644l.609-3.521h-.476l-.49 2.793-.469-2.793h-.553l-.469 2.793-.49-2.793h-.518L302.454 9zm4.292.07c.665 0 1.036-.413 1.036-1.141V6.543c0-.728-.371-1.134-1.036-1.134-.672 0-1.036.406-1.036 1.134v1.386c0 .728.364 1.141 1.036 1.141zm0-.469c-.364 0-.511-.238-.511-.623V6.494c0-.378.147-.616.511-.616s.504.238.504.616v1.484c0 .385-.147.623-.504.623zm2.829-3.192c-.371 0-.616.21-.735.651l-.007-.581h-.455V9h.525V6.949c0-.679.231-1.015.686-1.015.077 0 .147.007.217.035v-.518a.487.487 0 00-.231-.042zM311.882 9h.574l-.924-2.198.882-1.323h-.567l-1.099 1.715V4.1h-.525V9h.525V7.936l.42-.623.714 1.687zM4.724 17c-.049-.203-.077-.518-.077-.959v-1.568c0-.7-.301-1.064-.973-1.064-.63 0-.994.364-.994 1.022v.077h.497v-.105c0-.35.182-.539.49-.539.301 0 .455.175.455.525v.084c0 .238-.077.308-.665.574-.637.301-.875.609-.875 1.155 0 .532.301.868.784.868.392 0 .679-.196.819-.546a2.9 2.9 0 00.056.476h.483zm-1.176-.392c-.287 0-.434-.175-.434-.483s.147-.518.497-.693c.301-.154.441-.238.511-.329v.707c0 .504-.217.798-.574.798zm2.997-3.199c-.357 0-.637.196-.777.532l-.007-.462h-.455V17h.525v-2.338c0-.525.238-.784.553-.784.308 0 .441.21.441.616V17h.532v-2.576c0-.7-.294-1.015-.812-1.015zM10.093 17c-.05-.203-.077-.511-.077-.959V12.1H9.49v1.729a.816.816 0 00-.728-.42c-.511 0-.82.315-.82 1.015v1.624c0 .7.309 1.022.82 1.022.364 0 .644-.203.79-.546.008.231.029.399.057.476h.483zm-1.17-.399c-.321 0-.447-.231-.447-.595v-1.54c0-.357.126-.588.448-.588s.567.266.567.784v1.155c0 .518-.245.784-.567.784zm3.318.399h.679l.462-2.541.462 2.541h.644l.609-3.521h-.476l-.49 2.793-.47-2.793h-.552l-.47 2.793-.49-2.793h-.517L12.24 17zm4.565-3.591a.795.795 0 00-.714.406V12.1h-.525V17h.525v-2.338c0-.525.238-.784.553-.784.308 0 .441.21.441.616V17h.532v-2.576c0-.7-.294-1.015-.812-1.015zm2.427 0c-.679 0-1.043.406-1.043 1.134v1.386c0 .728.364 1.141 1.043 1.141.672 0 1.043-.413 1.043-1.141v-.056h-.51v.105c0 .427-.183.623-.526.623s-.518-.196-.518-.623v-.658h1.554v-.777c0-.728-.37-1.134-1.043-1.134zm-.51 1.477v-.392c0-.42.174-.616.51-.616s.525.196.525.616v.392h-1.036zm3.507-.959v-.448h-.637v-1.015h-.455l-.056 1.015h-.455v.448h.434v2.338c0 .539.252.805.777.805a.89.89 0 00.392-.07v-.455a.778.778 0 01-.294.056c-.252 0-.343-.112-.343-.392v-2.282h.637zm1.713-.518a.795.795 0 00-.714.406V12.1h-.525V17h.525v-2.338c0-.525.238-.784.553-.784.308 0 .44.21.44.616V17h.533v-2.576c0-.7-.294-1.015-.812-1.015zm2.427 0c-.679 0-1.043.406-1.043 1.134v1.386c0 .728.364 1.141 1.043 1.141.672 0 1.043-.413 1.043-1.141v-.056h-.51v.105c0 .427-.183.623-.526.623s-.518-.196-.518-.623v-.658h1.554v-.777c0-.728-.37-1.134-1.043-1.134zm-.51 1.477v-.392c0-.42.174-.616.51-.616s.525.196.525.616v.392H25.86zm3.325-1.477c-.371 0-.616.21-.735.651l-.007-.581h-.455V17h.525v-2.051c0-.679.231-1.015.686-1.015.077 0 .147.007.217.035v-.518a.487.487 0 00-.231-.042zm2.077 4.746c.483 0 .721-.21.847-.756l.89-3.92H32.5l-.574 2.681-.63-2.681h-.539l.91 3.591-.07.252c-.063.287-.168.364-.413.364a.608.608 0 01-.28-.056v.455c.098.056.231.07.357.07zm3.14-1.085c.665 0 1.036-.413 1.036-1.141v-1.386c0-.728-.37-1.134-1.036-1.134-.672 0-1.036.406-1.036 1.134v1.386c0 .728.364 1.141 1.036 1.141zm0-.469c-.364 0-.51-.238-.51-.623v-1.484c0-.378.146-.616.51-.616s.504.238.504.616v1.484c0 .385-.147.623-.504.623zm3.13-3.122v2.338c0 .525-.238.784-.553.784-.308 0-.441-.21-.441-.616v-2.506h-.532v2.569c0 .707.294 1.022.812 1.022.357 0 .637-.196.777-.539l.007.469h.455v-3.521h-.525zm3.296 3.591c.679 0 1.008-.427 1.008-1.127v-.224h-.511v.273c0 .392-.147.609-.497.609s-.497-.217-.497-.609V14.48c0-.392.147-.602.497-.602s.497.21.497.602v.203h.51v-.154c0-.7-.328-1.12-1.007-1.12-.672 0-1.03.399-1.03 1.12v1.414c0 .721.358 1.127 1.03 1.127zm3.544-.07c-.049-.203-.077-.518-.077-.959v-1.568c0-.7-.3-1.064-.973-1.064-.63 0-.994.364-.994 1.022v.077h.497v-.105c0-.35.182-.539.49-.539.301 0 .455.175.455.525v.084c0 .238-.077.308-.665.574-.637.301-.875.609-.875 1.155 0 .532.301.868.784.868.392 0 .68-.196.82-.546a2.9 2.9 0 00.055.476h.483zm-1.176-.392c-.287 0-.434-.175-.434-.483s.147-.518.497-.693c.301-.154.441-.238.511-.329v.707c0 .504-.217.798-.574.798zm2.998-3.199c-.357 0-.637.196-.777.532l-.007-.462h-.455V17h.525v-2.338c0-.525.238-.784.553-.784.308 0 .44.21.44.616V17h.533v-2.576c0-.7-.294-1.015-.812-1.015zM50.778 17c-.05-.203-.077-.518-.077-.959v-1.568c0-.7-.301-1.064-.973-1.064-.63 0-.994.364-.994 1.022v.077h.497v-.105c0-.35.182-.539.49-.539.3 0 .455.175.455.525v.084c0 .238-.077.308-.665.574-.637.301-.875.609-.875 1.155 0 .532.3.868.784.868.392 0 .679-.196.819-.546a2.9 2.9 0 00.056.476h.483zm-1.176-.392c-.287 0-.434-.175-.434-.483s.147-.518.497-.693c.3-.154.44-.238.51-.329v.707c0 .504-.216.798-.573.798zm2.857-4.109c.098 0 .189.014.294.056V12.1a.89.89 0 00-.392-.07c-.518 0-.77.266-.77.798v.651h-.448v.448h.448V17h.525v-3.073h.637v-.448h-.637v-.588c0-.287.098-.392.343-.392zm1.811 0c.098 0 .19.014.294.056V12.1a.89.89 0 00-.392-.07c-.517 0-.77.266-.77.798v.651h-.447v.448h.448V17h.525v-3.073h.637v-.448h-.637v-.588c0-.287.098-.392.343-.392zm1.665 4.571c.665 0 1.036-.413 1.036-1.141v-1.386c0-.728-.37-1.134-1.036-1.134-.672 0-1.036.406-1.036 1.134v1.386c0 .728.364 1.141 1.036 1.141zm0-.469c-.364 0-.51-.238-.51-.623v-1.484c0-.378.146-.616.51-.616s.504.238.504.616v1.484c0 .385-.147.623-.504.623zm2.83-3.192c-.372 0-.617.21-.736.651l-.007-.581h-.455V17h.525v-2.051c0-.679.231-1.015.686-1.015.077 0 .147.007.217.035v-.518a.487.487 0 00-.23-.042zM61.471 17c-.05-.203-.077-.511-.077-.959V12.1h-.525v1.729a.816.816 0 00-.728-.42c-.511 0-.82.315-.82 1.015v1.624c0 .7.309 1.022.82 1.022.364 0 .644-.203.79-.546.008.231.029.399.057.476h.483zm-1.17-.399c-.321 0-.447-.231-.447-.595v-1.54c0-.357.126-.588.448-.588s.567.266.567.784v1.155c0 .518-.245.784-.567.784zm4.284-2.674v-.448h-.637v-1.015h-.455l-.056 1.015h-.455v.448h.434v2.338c0 .539.252.805.777.805a.89.89 0 00.392-.07v-.455a.778.778 0 01-.294.056c-.252 0-.343-.112-.343-.392v-2.282h.637zm1.432 3.143c.665 0 1.036-.413 1.036-1.141v-1.386c0-.728-.37-1.134-1.036-1.134-.672 0-1.036.406-1.036 1.134v1.386c0 .728.364 1.141 1.036 1.141zm0-.469c-.364 0-.51-.238-.51-.623v-1.484c0-.378.146-.616.51-.616s.504.238.504.616v1.484c0 .385-.147.623-.504.623zm4.153-2.674v-.448h-.637v-1.015h-.455l-.056 1.015h-.455v.448h.434v2.338c0 .539.252.805.777.805a.89.89 0 00.392-.07v-.455a.778.778 0 01-.294.056c-.252 0-.343-.112-.343-.392v-2.282h.637zM72.632 17c-.049-.203-.077-.518-.077-.959v-1.568c0-.7-.3-1.064-.973-1.064-.63 0-.994.364-.994 1.022v.077h.497v-.105c0-.35.182-.539.49-.539.301 0 .455.175.455.525v.084c0 .238-.077.308-.665.574-.637.301-.875.609-.875 1.155 0 .532.301.868.784.868.392 0 .68-.196.82-.546a2.9 2.9 0 00.055.476h.483zm-1.176-.392c-.287 0-.434-.175-.434-.483s.147-.518.497-.693c.301-.154.441-.238.511-.329v.707c0 .504-.217.798-.574.798zm3.418.392h.574l-.924-2.198.882-1.323h-.568l-1.098 1.715V12.1h-.525V17h.525v-1.064l.42-.623.714 1.687zm1.918-3.591c-.679 0-1.043.406-1.043 1.134v1.386c0 .728.364 1.141 1.043 1.141.672 0 1.043-.413 1.043-1.141v-.056h-.511v.105c0 .427-.182.623-.525.623s-.518-.196-.518-.623v-.658h1.554v-.777c0-.728-.371-1.134-1.043-1.134zm-.511 1.477v-.392c0-.42.175-.616.511-.616s.525.196.525.616v.392h-1.036zm4.65-.959v-.448h-.638v-1.015h-.455l-.056 1.015h-.455v.448h.434v2.338c0 .539.252.805.777.805a.89.89 0 00.392-.07v-.455a.778.778 0 01-.294.056c-.252 0-.343-.112-.343-.392v-2.282h.637zm1.712-.518a.795.795 0 00-.714.406V12.1h-.525V17h.525v-2.338c0-.525.238-.784.553-.784.308 0 .441.21.441.616V17h.532v-2.576c0-.7-.294-1.015-.812-1.015zm2.427 0c-.679 0-1.043.406-1.043 1.134v1.386c0 .728.364 1.141 1.043 1.141.672 0 1.043-.413 1.043-1.141v-.056h-.51v.105c0 .427-.183.623-.526.623s-.518-.196-.518-.623v-.658h1.554v-.777c0-.728-.37-1.134-1.043-1.134zm-.51 1.477v-.392c0-.42.174-.616.51-.616s.525.196.525.616v.392H84.56zm4.509-1.477a.795.795 0 00-.714.406V12.1h-.525V17h.525v-2.338c0-.525.238-.784.553-.784.308 0 .44.21.44.616V17h.533v-2.576c0-.7-.294-1.015-.812-1.015zm1.454-.434h.525v-.756h-.525v.756zm0 4.025h.525v-3.521h-.525V17zm2.743-3.521l-.007.469c-.14-.343-.42-.539-.784-.539-.51 0-.819.315-.819 1.015v1.47c0 .7.308 1.022.82 1.022a.805.805 0 00.72-.42v.644c0 .399-.168.574-.51.574-.33 0-.498-.161-.498-.441v-.049h-.504v.028c0 .581.343.903 1.008.903.756 0 1.03-.385 1.03-1.05v-3.626h-.456zm-.63 2.968c-.329 0-.455-.231-.455-.595v-1.386c0-.357.126-.588.455-.588.315 0 .56.266.56.784v1.001c0 .518-.245.784-.56.784zm2.995-3.038a.795.795 0 00-.714.406V12.1h-.525V17h.525v-2.338c0-.525.238-.784.553-.784.308 0 .441.21.441.616V17h.532v-2.576c0-.7-.294-1.015-.812-1.015zm3.793 0c-.37 0-.616.21-.735.651l-.007-.581h-.455V17h.525v-2.051c0-.679.231-1.015.686-1.015.077 0 .147.007.217.035v-.518a.487.487 0 00-.23-.042zm.649-.434h.525v-.756h-.525v.756zm0 4.025h.525v-3.521h-.525V17zm2.071.07c.63 0 .98-.378.98-.98 0-.63-.434-.861-.826-1.064-.336-.168-.63-.329-.63-.686 0-.322.203-.476.448-.476.266 0 .448.154.448.511v.084h.497v-.07c0-.616-.378-.98-.952-.98-.602 0-.952.364-.952.938 0 .651.441.875.833 1.085.322.161.609.322.609.665 0 .357-.196.511-.483.511s-.483-.161-.483-.539v-.133h-.511v.119c0 .637.378 1.015 1.022 1.015zM105.3 17h.574l-.924-2.198.882-1.323h-.567l-1.099 1.715V12.1h-.525V17h.525v-1.064l.42-.623L105.3 17zm3.129.07c.665 0 1.036-.413 1.036-1.141v-1.386c0-.728-.371-1.134-1.036-1.134-.672 0-1.036.406-1.036 1.134v1.386c0 .728.364 1.141 1.036 1.141zm0-.469c-.364 0-.511-.238-.511-.623v-1.484c0-.378.147-.616.511-.616s.504.238.504.616v1.484c0 .385-.147.623-.504.623zm2.73-4.102c.098 0 .189.014.294.056V12.1a.89.89 0 00-.392-.07c-.518 0-.77.266-.77.798v.651h-.448v.448h.448V17h.525v-3.073h.637v-.448h-.637v-.588c0-.287.098-.392.343-.392zM113.034 17h.525v-4.9h-.525V17zm2.162.07c.665 0 1.036-.413 1.036-1.141v-1.386c0-.728-.371-1.134-1.036-1.134-.672 0-1.036.406-1.036 1.134v1.386c0 .728.364 1.141 1.036 1.141zm0-.469c-.364 0-.511-.238-.511-.623v-1.484c0-.378.147-.616.511-.616s.504.238.504.616v1.484c0 .385-.147.623-.504.623zm2.507.469c.63 0 .98-.378.98-.98 0-.63-.434-.861-.826-1.064-.336-.168-.63-.329-.63-.686 0-.322.203-.476.448-.476.266 0 .448.154.448.511v.084h.497v-.07c0-.616-.378-.98-.952-.98-.602 0-.952.364-.952.938 0 .651.441.875.833 1.085.322.161.609.322.609.665 0 .357-.196.511-.483.511s-.483-.161-.483-.539v-.133h-.511v.119c0 .637.378 1.015 1.022 1.015zm1.497-4.095h.525v-.756h-.525v.756zm0 4.025h.525v-3.521h-.525V17zm2.435-3.591c-.357 0-.637.196-.777.532l-.007-.462h-.455V17h.525v-2.338c0-.525.238-.784.553-.784.308 0 .441.21.441.616V17h.532v-2.576c0-.7-.294-1.015-.812-1.015zm3.002.07l-.007.469c-.14-.343-.42-.539-.784-.539-.511 0-.819.315-.819 1.015v1.47c0 .7.308 1.022.819 1.022a.805.805 0 00.721-.42v.644c0 .399-.168.574-.511.574-.329 0-.497-.161-.497-.441v-.049h-.504v.028c0 .581.343.903 1.008.903.756 0 1.029-.385 1.029-1.05v-3.626h-.455zm-.63 2.968c-.329 0-.455-.231-.455-.595v-1.386c0-.357.126-.588.455-.588.315 0 .56.266.56.784v1.001c0 .518-.245.784-.56.784zm3.184 1.708c.483 0 .721-.21.847-.756l.889-3.92h-.497l-.574 2.681-.63-2.681h-.539l.91 3.591-.07.252c-.063.287-.168.364-.413.364a.608.608 0 01-.28-.056v.455c.098.056.231.07.357.07zm3.14-1.085c.665 0 1.036-.413 1.036-1.141v-1.386c0-.728-.371-1.134-1.036-1.134-.672 0-1.036.406-1.036 1.134v1.386c0 .728.364 1.141 1.036 1.141zm0-.469c-.364 0-.511-.238-.511-.623v-1.484c0-.378.147-.616.511-.616s.504.238.504.616v1.484c0 .385-.147.623-.504.623zm3.13-3.122v2.338c0 .525-.238.784-.553.784-.308 0-.441-.21-.441-.616v-2.506h-.532v2.569c0 .707.294 1.022.812 1.022.357 0 .637-.196.777-.539l.007.469h.455v-3.521h-.525zm2.392-.07c-.371 0-.616.21-.735.651l-.007-.581h-.455V17h.525v-2.051c0-.679.231-1.015.686-1.015.077 0 .147.007.217.035v-.518a.487.487 0 00-.231-.042zm4.485 0c-.343 0-.609.189-.749.518-.112-.357-.364-.518-.728-.518-.35 0-.616.196-.756.532l-.007-.462h-.455V17h.525v-2.338c0-.518.224-.784.532-.784.301 0 .42.217.42.553V17h.532v-2.338c0-.518.224-.784.532-.784.301 0 .42.217.42.553V17h.525v-2.604c0-.679-.294-.987-.791-.987zm2.4 3.661c.665 0 1.036-.413 1.036-1.141v-1.386c0-.728-.371-1.134-1.036-1.134-.672 0-1.036.406-1.036 1.134v1.386c0 .728.364 1.141 1.036 1.141zm0-.469c-.364 0-.511-.238-.511-.623v-1.484c0-.378.147-.616.511-.616s.504.238.504.616v1.484c0 .385-.147.623-.504.623zm2.871-3.192c-.357 0-.637.196-.777.532l-.007-.462h-.455V17h.525v-2.338c0-.525.238-.784.553-.784.308 0 .441.21.441.616V17h.532v-2.576c0-.7-.294-1.015-.812-1.015zm2.427 0c-.679 0-1.043.406-1.043 1.134v1.386c0 .728.364 1.141 1.043 1.141.672 0 1.043-.413 1.043-1.141v-.056h-.511v.105c0 .427-.182.623-.525.623s-.518-.196-.518-.623v-.658h1.554v-.777c0-.728-.371-1.134-1.043-1.134zm-.511 1.477v-.392c0-.42.175-.616.511-.616s.525.196.525.616v.392h-1.036zm2.409 3.269c.483 0 .721-.21.847-.756l.889-3.92h-.497l-.574 2.681-.63-2.681h-.539l.91 3.591-.07.252c-.063.287-.168.364-.413.364a.608.608 0 01-.28-.056v.455c.098.056.231.07.357.07zM151.787 17h.553v-.707h-.553V17z" fill="#000"/></svg>