<svg width="37" height="13" viewBox="0 0 37 13" fill="none" xmlns="http://www.w3.org/2000/svg"><path d="M25.15 5.035h-1.893C22.74 2.195 20.567.47 17.282.47c-3.69 0-6.077 2.362-6.077 6.013 0 3.65 2.312 5.96 6.077 5.942 3.07 0 5.248-1.622 5.896-4.278h1.281l.392-1.039h-1.503a8.122 8.122 0 00.023-1.038h1.405l.374-1.039v.004zm-5.292 2.077h-2.016L17.45 8.15h2.3c-.26 1.555-.955 2.631-2.394 2.631-1.902 0-2.647-1.934-2.647-4.33 0-2.397.597-4.314 2.518-4.33 1.51 0 2.29 1.207 2.549 2.916H18.14l-.373 1.038h2.1a12.841 12.841 0 01-.01 1.038v-.001zM.765 12.425h3.3V8.076h5.612v-2.63H4.065V3.511h6.209V.738H.765v11.687zM34.324 8.165c1.473-.608 2.441-1.772 2.441-3.507v-.036c0-1.11-.354-2.004-1.044-2.65-.8-.77-2.07-1.234-3.877-1.234h-5.63v11.686h3.3v-3.74h1.453l1.79 3.786h3.803l-2.238-4.305h.002zm-.859-3.312c0 .841-.651 1.36-1.77 1.36h-2.183V3.458h2.163c1.12 0 1.79.465 1.79 1.36v.035z" fill="#fff"/></svg>