<svg width="230" height="32" viewBox="0 0 230 32" fill="none" xmlns="http://www.w3.org/2000/svg"><path d="M7.281 7.622A11.212 11.212 0 0110.79 5.07a9.954 9.954 0 014.252-.927c1.658 0 2.994.217 4.003.655 1.01.44 1.986 1.07 2.933 1.897.459.36.93.522 1.418.485a1.98 1.98 0 001.245-.543 1.6 1.6 0 00.517-1.22c0-.234-.02-.43-.058-.602a1.435 1.435 0 00-.231-.501 2.115 2.115 0 00-.48-.485c-1.431-1.186-2.854-2.038-4.273-2.552C18.701.759 17.01.5 15.042.5c-2.097 0-4.037.401-5.824 1.199a14.753 14.753 0 00-4.694 3.308 15.384 15.384 0 00-3.144 4.917C.626 11.796.25 13.814.25 15.981c0 2.193.376 4.232 1.13 6.116.752 1.884 1.798 3.53 3.143 4.933a14.372 14.372 0 004.71 3.288c1.8.79 3.735 1.182 5.808 1.182 1.737 0 3.391-.284 4.963-.852 1.572-.568 3.048-1.408 4.425-2.515a2.006 2.006 0 00.612-1.433c0-.568-.152-1.01-.459-1.337a1.73 1.73 0 00-1.129-.543c-.446-.037-.901.11-1.36.447a14.244 14.244 0 01-3.355 1.876 10.127 10.127 0 01-3.697.677c-1.51 0-2.925-.305-4.252-.91a11.013 11.013 0 01-3.508-2.537 11.784 11.784 0 01-2.357-3.772c-.563-1.432-.844-2.974-.844-4.624 0-1.625.281-3.154.844-4.587A11.81 11.81 0 017.28 7.622zM32.863.889c-.563 0-1.034.188-1.42.56-.384.376-.574.856-.574 1.45v26.2c0 .567.19 1.044.575 1.432.385.385.856.58 1.419.58.587 0 1.067-.191 1.435-.58.372-.388.554-.865.554-1.433v-26.2c0-.593-.186-1.078-.554-1.45-.368-.371-.848-.56-1.435-.56zM61.257.889H40.759c-.538 0-.977.175-1.324.522-.343.347-.517.794-.517 1.337 0 .543.174.986.517 1.336.343.347.786.523 1.324.523h8.276v24.495c0 .569.19 1.045.575 1.433.384.385.856.581 1.418.581.563 0 1.034-.192 1.42-.58.384-.39.574-.865.574-1.434v-24.5h8.239c.538 0 .976-.175 1.323-.522.344-.346.518-.793.518-1.336 0-.544-.174-.986-.517-1.337-.348-.347-.79-.518-1.328-.518zM91.83 1.373A1.525 1.525 0 0090.68.89c-.409 0-.752.083-1.033.25a2.244 2.244 0 00-.728.715l-9.12 14.529-8.967-14.37c-.232-.36-.472-.64-.728-.832-.257-.192-.6-.288-1.034-.288-.484 0-.914.15-1.282.447a1.788 1.788 0 00-.67 1.161c-.079.476.05.986.384 1.53l10.229 16.061v9.019c0 .568.19 1.044.575 1.433.384.384.844.58 1.381.58.563 0 1.034-.192 1.419-.58.385-.389.575-.865.575-1.433v-9.027L91.988 4.022c.306-.489.434-.974.385-1.45-.058-.476-.236-.877-.542-1.199zM112.106.889c-.563 0-1.034.188-1.419.56-.385.376-.575.856-.575 1.45v26.2c0 .567.19 1.044.575 1.432.385.385.856.58 1.419.58.587 0 1.067-.191 1.435-.58.372-.388.554-.865.554-1.433v-26.2c0-.593-.186-1.078-.554-1.45-.368-.371-.848-.56-1.435-.56zM142.291.889c-.563 0-1.034.188-1.419.56-.385.376-.575.856-.575 1.45v21.17L123.591 1.624c-.409-.489-.918-.735-1.534-.735-.563 0-1.03.188-1.398.56-.372.376-.554.856-.554 1.45v26.2c0 .567.186 1.044.554 1.432.368.385.835.58 1.398.58.587 0 1.067-.191 1.435-.58.368-.388.554-.864.554-1.433V7.97l16.706 22.445c.178.23.414.405.707.522.294.117.567.176.823.176.588 0 1.059-.192 1.419-.58.356-.39.538-.866.538-1.434v-26.2c0-.593-.178-1.078-.538-1.45-.347-.371-.823-.56-1.41-.56z" fill="#fff"/><path fill-rule="evenodd" clip-rule="evenodd" d="M169.688 5.125a13.787 13.787 0 00-4.695-3.133c-1.799-.736-3.801-1.103-5.997-1.103h-6.936c-.563 0-1.034.188-1.419.56-.384.376-.575.856-.575 1.45v26.2c0 .567.191 1.044.575 1.432.385.385.856.58 1.419.58h6.936c2.196 0 4.194-.367 5.997-1.102 1.8-.735 3.367-1.78 4.695-3.133 1.328-1.354 2.349-2.953 3.065-4.8.715-1.842 1.071-3.876 1.071-6.095 0-2.218-.356-4.244-1.071-6.073-.716-1.834-1.737-3.43-3.065-4.783zm-1.113 16.834c-.947 1.742-2.241 3.108-3.888 4.102-1.646.995-3.544 1.492-5.691 1.492h-4.942V4.448h4.942c2.147 0 4.041.489 5.691 1.47 1.647.982 2.945 2.335 3.888 4.065.943 1.73 1.419 3.726 1.419 5.998 0 2.244-.472 4.236-1.419 5.978z" fill="#fff"/><path d="M198.479 4.602c.588 0 1.059-.167 1.419-.505.356-.335.538-.773.538-1.316 0-.568-.178-1.028-.538-1.375-.356-.346-.831-.522-1.419-.522h-17.321c-.563 0-1.035.188-1.419.56-.385.376-.575.856-.575 1.45v26.2c0 .568.19 1.044.575 1.433.384.384.856.58 1.419.58h17.321c.588 0 1.059-.175 1.419-.522.356-.347.538-.806.538-1.374 0-.543-.178-.982-.538-1.316-.356-.334-.831-.505-1.419-.505h-15.328v-9.667h10.998c.587 0 1.059-.175 1.419-.522.355-.347.537-.794.537-1.337 0-.543-.178-.986-.537-1.337-.356-.346-.832-.522-1.419-.522h-10.998V4.602h15.328zM220.09 15.822l8.735-11.763c.306-.464.447-.94.422-1.433-.025-.488-.19-.902-.496-1.236-.306-.334-.728-.506-1.266-.506-.587 0-1.059.192-1.418.581l-8.587 11.538-8.235-11.534c-.281-.388-.753-.58-1.418-.58-.538 0-.964.18-1.283.543a2.231 2.231 0 00-.554 1.278c-.049.489.079.94.385 1.353l8.417 11.793-8.918 12.005a2.251 2.251 0 00-.459 1.375c0 .501.153.944.459 1.316.306.376.753.56 1.34.56.538 0 .997-.193 1.382-.581l8.797-11.822 8.334 11.667c.203.26.427.447.671.56.244.117.529.175.864.175.562 0 1.001-.18 1.323-.543.319-.359.493-.797.517-1.315a2.112 2.112 0 00-.421-1.396l-8.591-12.034z" fill="#fff"/></svg>