<svg width="53" height="11" viewBox="0 0 53 11" fill="none" xmlns="http://www.w3.org/2000/svg"><path d="M.468 7.01c.052 1.82 1.417 3.068 3.679 3.068 2.002 0 3.367-1.131 3.367-2.769.013-1.794-1.456-2.275-2.964-2.548-1.43-.247-2.366-.442-2.366-1.378 0-.858.715-1.3 1.742-1.3 1.105 0 1.833.624 1.95 1.547h1.495C7.306 1.953 6.006.822 3.926.822 1.989.822.689 1.901.689 3.487c0 1.807 1.43 2.288 2.938 2.548 1.443.26 2.392.468 2.392 1.43 0 .871-.78 1.352-1.859 1.352-1.274 0-2.106-.715-2.184-1.781L.468 7.01zm8.804 1.456c0 1.053.43 1.534 1.547 1.534h.962v-.611h-.91c-.689 0-.936-.26-.936-.936V4.02h1.781v-.611h-1.78V1.563h-.664v1.846H8.024v.611h1.248v4.446zm9.176.923c-.39 0-.585-.13-.585-.637V5.684c0-1.508-.923-2.353-2.574-2.353-1.508 0-2.509.728-2.678 1.924h.663c.17-.806.871-1.339 1.99-1.339 1.234 0 1.936.65 1.936 1.742v.572h-2.236c-1.69 0-2.6.728-2.6 1.963 0 1.17.923 1.885 2.327 1.885 1.34 0 2.132-.611 2.535-1.43v.234c-.026.78.3 1.118 1.08 1.118h.39v-.611h-.248zM17.2 7.335c0 1.261-.897 2.171-2.457 2.171-1.053 0-1.703-.533-1.703-1.352 0-.871.65-1.352 1.872-1.352H17.2v.533zm2.876 1.131c0 1.053.429 1.534 1.547 1.534h.962v-.611h-.91c-.69 0-.936-.26-.936-.936V4.02h1.78v-.611h-1.78V1.563h-.663v1.846h-1.248v.611h1.248v4.446zm3.855-6.448c.26 0 .468-.195.468-.468a.458.458 0 00-.468-.468.458.458 0 00-.468.468c0 .273.209.468.468.468zM23.593 10h.663V3.409h-.663V10zm1.923-2.028c.052 1.365 1.157 2.106 2.808 2.106 1.417 0 2.561-.715 2.561-1.885 0-1.391-1.222-1.664-2.639-1.859-1.027-.143-1.937-.26-1.937-1.183 0-.754.741-1.248 1.86-1.248 1.052 0 1.806.507 1.923 1.365h.676c-.117-1.287-1.17-1.937-2.6-1.937-1.469-.013-2.522.741-2.522 1.872 0 1.326 1.222 1.573 2.574 1.755 1.105.156 2.002.299 2.002 1.274 0 .78-.819 1.274-1.898 1.274-1.26 0-2.08-.585-2.132-1.534h-.676zm7.128.494c0 1.053.43 1.534 1.547 1.534h.962v-.611h-.91c-.689 0-.936-.26-.936-.936V4.02h1.781v-.611h-1.78V1.563h-.664v1.846h-1.248v.611h1.248v4.446zM36.5 2.018c.26 0 .468-.195.468-.468a.458.458 0 00-.468-.468.458.458 0 00-.468.468c0 .273.208.468.468.468zM36.162 10h.663V3.409h-.663V10zm5.095.078c1.495 0 2.547-.858 2.808-2.197h-.703c-.22.975-1.014 1.599-2.105 1.599-1.444 0-2.444-1.131-2.444-2.769 0-1.638.987-2.795 2.444-2.795 1.105 0 1.885.624 2.119 1.612h.689c-.273-1.365-1.3-2.197-2.795-2.197-1.86 0-3.134 1.378-3.134 3.38 0 2.028 1.261 3.367 3.12 3.367zm9.894-.689c-.39 0-.585-.13-.585-.637V5.684c0-1.508-.923-2.353-2.574-2.353-1.508 0-2.509.728-2.678 1.924h.663c.17-.806.871-1.339 1.99-1.339 1.234 0 1.936.65 1.936 1.742v.572h-2.236c-1.69 0-2.6.728-2.6 1.963 0 1.17.923 1.885 2.327 1.885 1.34 0 2.132-.611 2.535-1.43v.234c-.026.78.3 1.118 1.08 1.118h.39v-.611h-.248zm-1.248-2.054c0 1.261-.897 2.171-2.457 2.171-1.053 0-1.703-.533-1.703-1.352 0-.871.65-1.352 1.872-1.352h2.288v.533zM52.285 10h.663V.9h-.663V10z" fill="#fff"/></svg>