<svg width="106" height="14" viewBox="0 0 106 14" fill="none" xmlns="http://www.w3.org/2000/svg"><path d="M3.724 3.217a5.138 5.138 0 011.608-1.153 4.623 4.623 0 011.95-.419c.76 0 1.373.098 1.835.296.463.198.91.483 1.345.857.21.162.427.236.65.219a.915.915 0 00.571-.246.717.717 0 00.237-.55c0-.106-.01-.195-.026-.272a.644.644 0 00-.106-.227.963.963 0 00-.22-.218C10.912.968 10.259.583 9.608.35 8.96.117 8.185 0 7.283 0 6.32 0 5.43.181 4.612.541c-.82.36-1.539.86-2.153 1.495a6.936 6.936 0 00-1.441 2.22A7.163 7.163 0 00.5 6.992c0 .99.173 1.91.518 2.761.345.851.825 1.595 1.441 2.228A6.637 6.637 0 007.282 14c.796 0 1.555-.128 2.275-.385a7.087 7.087 0 002.03-1.136.893.893 0 00.28-.647c0-.256-.07-.456-.21-.603a.798.798 0 00-.518-.246c-.205-.017-.413.05-.624.202a6.559 6.559 0 01-1.538.847 4.705 4.705 0 01-1.695.306c-.693 0-1.341-.138-1.95-.411a5.049 5.049 0 01-1.608-1.145 5.31 5.31 0 01-1.081-1.704 5.588 5.588 0 01-.387-2.088c0-.734.13-1.425.387-2.072a5.322 5.322 0 011.081-1.701zM15.453.176a.907.907 0 00-.65.252.866.866 0 00-.264.655v11.832c0 .257.088.472.264.648a.893.893 0 00.65.262c.27 0 .49-.087.658-.262a.89.89 0 00.255-.648V1.083a.885.885 0 00-.255-.655.894.894 0 00-.658-.252zM28.473.176h-9.4a.829.829 0 00-.606.235.817.817 0 00-.237.604c0 .245.08.445.237.604.157.156.36.236.607.236h3.795v11.062c0 .257.087.472.263.647a.892.892 0 00.65.263.885.885 0 00.651-.263.876.876 0 00.264-.647V1.853h3.777c.247 0 .448-.08.607-.236a.817.817 0 00.237-.604.82.82 0 00-.237-.603.831.831 0 00-.608-.234zM42.491.394a.704.704 0 00-.527-.218.923.923 0 00-.474.113c-.13.075-.241.183-.334.322l-4.182 6.562-4.111-6.49a1.436 1.436 0 00-.334-.375c-.118-.087-.275-.13-.474-.13a.922.922 0 00-.588.201.805.805 0 00-.307.525c-.036.215.023.445.176.69l4.69 7.254v4.073c0 .257.087.472.264.647a.872.872 0 00.633.262.884.884 0 00.65-.262.875.875 0 00.264-.647V8.844l4.726-7.254c.14-.22.2-.44.177-.654a.917.917 0 00-.249-.542zM51.788.176a.907.907 0 00-.651.252.866.866 0 00-.264.655v11.832c0 .257.088.472.264.648a.893.893 0 00.65.262c.27 0 .49-.087.659-.262a.89.89 0 00.254-.648V1.083a.885.885 0 00-.254-.655.895.895 0 00-.658-.252zM65.628.176a.907.907 0 00-.65.252.866.866 0 00-.264.655v9.561L57.054.508a.885.885 0 00-.704-.332.873.873 0 00-.64.252.88.88 0 00-.255.655v11.832c0 .257.086.472.254.648a.859.859 0 00.641.262c.27 0 .49-.087.658-.262a.898.898 0 00.255-.648V3.373l7.66 10.137c.08.103.189.183.324.236.134.052.26.079.377.079.27 0 .486-.087.65-.262a.916.916 0 00.247-.648V1.083c0-.268-.082-.487-.246-.655-.16-.168-.378-.252-.647-.252z" fill="#000"/><path fill-rule="evenodd" clip-rule="evenodd" d="M78.19 2.089A6.33 6.33 0 0076.037.674c-.825-.332-1.743-.498-2.75-.498h-3.18a.907.907 0 00-.65.252.866.866 0 00-.264.655v11.832c0 .257.087.472.264.648a.893.893 0 00.65.262h3.18c1.007 0 1.923-.166 2.75-.498a6.347 6.347 0 002.153-1.415 6.304 6.304 0 001.405-2.168c.328-.832.491-1.75.491-2.752 0-1.002-.163-1.917-.49-2.743a6.327 6.327 0 00-1.406-2.16zm-.51 7.602a4.824 4.824 0 01-1.783 1.853c-.755.449-1.625.673-2.61.673h-2.266V1.783h2.266c.985 0 1.853.22 2.61.664a4.765 4.765 0 011.783 1.836c.432.78.65 1.682.65 2.709 0 1.013-.216 1.913-.65 2.7z" fill="#000"/><path d="M91.391 1.853c.27 0 .486-.076.65-.229a.773.773 0 00.247-.594c0-.257-.081-.464-.246-.62-.163-.157-.382-.236-.65-.236h-7.943a.907.907 0 00-.65.252.866.866 0 00-.264.655v11.832c0 .257.087.472.263.647a.892.892 0 00.65.263h7.943c.27 0 .486-.08.65-.236a.823.823 0 00.247-.62.767.767 0 00-.246-.595c-.163-.151-.382-.228-.65-.228h-7.029V7.778h5.043c.269 0 .485-.079.65-.236a.802.802 0 00.247-.603.798.798 0 00-.247-.604c-.163-.157-.381-.236-.65-.236h-5.043V1.853h7.028zM101.3 6.92l4.005-5.313c.141-.21.205-.424.194-.647a.864.864 0 00-.228-.558c-.14-.151-.334-.228-.58-.228-.269 0-.486.086-.651.262l-3.937 5.21L96.328.438c-.13-.176-.346-.263-.651-.263-.247 0-.442.082-.588.246a.998.998 0 00-.254.577.843.843 0 00.176.611l3.86 5.326-4.09 5.422c-.14.187-.21.392-.21.62 0 .227.07.427.21.595.141.17.346.253.615.253a.864.864 0 00.634-.263l4.034-5.339 3.821 5.27a.845.845 0 00.307.252c.112.053.243.08.396.08.258 0 .459-.082.607-.246a.926.926 0 00.237-.594.943.943 0 00-.193-.63L101.3 6.92z" fill="#000"/></svg>