<svg width="84" height="21" viewBox="0 0 84 21" fill="none" xmlns="http://www.w3.org/2000/svg"><rect y=".5" width="84" height="20" rx="10" fill="#000"/><path d="M17.1 11c0-2.06-1.37-3.56-3.34-3.56-1.97 0-3.34 1.5-3.34 3.56s1.37 3.56 3.34 3.56c1.97 0 3.34-1.5 3.34-3.56zm-5.79 0c0-1.61.99-2.76 2.45-2.76 1.46 0 2.45 1.15 2.45 2.76 0 1.61-.99 2.76-2.45 2.76-1.46 0-2.45-1.15-2.45-2.76zm9.34-1.66c-.86 0-1.41.41-1.75.88l-.11-.82h-.71v7.1h.82v-2.78c.31.49.89.84 1.75.84 1.41 0 2.45-1.05 2.45-2.61 0-1.66-1.04-2.61-2.45-2.61zm-.08 4.49c-1 0-1.68-.78-1.68-1.9 0-1.09.68-1.86 1.68-1.86 1.01 0 1.69.77 1.69 1.88 0 1.11-.68 1.88-1.69 1.88zm5.817.73c1.18 0 2.02-.75 2.22-1.77h-.83c-.17.66-.73 1.04-1.45 1.04-.97 0-1.58-.68-1.61-1.65v-.07h3.96c.01-.12.02-.24.02-.35-.04-1.51-.98-2.42-2.42-2.42s-2.42 1.06-2.42 2.61c0 1.56 1 2.61 2.53 2.61zm-1.62-3.13c.08-.83.77-1.37 1.52-1.37.85 0 1.45.49 1.53 1.37h-3.05zm7.365-2.09c-.86 0-1.38.36-1.68.75l-.11-.69h-.71v5.1h.82v-2.55c0-1.15.58-1.86 1.54-1.86.89 0 1.38.56 1.38 1.62v2.79h.82v-2.84c0-1.69-.91-2.32-2.06-2.32zm10.233 4.41c-.23 0-.33-.07-.33-.34v-2.23c0-1.19-.75-1.84-2.05-1.84-1.23 0-2.04.59-2.16 1.59h.82c.1-.52.58-.86 1.3-.86.8 0 1.27.4 1.27 1.06v.35h-1.5c-1.34 0-2.05.57-2.05 1.59 0 .93.76 1.49 1.88 1.49.88 0 1.39-.39 1.71-.85.01.5.24.79.92.79h.45v-.75h-.26zm-1.15-1.33c0 .85-.59 1.44-1.61 1.44-.68 0-1.11-.34-1.11-.84 0-.58.41-.85 1.14-.85h1.58v.25zm4.272 2.14c1.24 0 2.07-.7 2.27-1.8h-.87c-.16.65-.66 1.07-1.39 1.07-.98 0-1.64-.76-1.64-1.87s.66-1.89 1.64-1.89c.75 0 1.25.41 1.4 1.09h.86c-.21-1.12-1-1.82-2.25-1.82-1.48 0-2.49 1.06-2.49 2.62 0 1.59.98 2.6 2.47 2.6zm5.459 0c1.24 0 2.07-.7 2.27-1.8h-.87c-.16.65-.66 1.07-1.39 1.07-.98 0-1.64-.76-1.64-1.87s.66-1.89 1.64-1.89c.75 0 1.25.41 1.4 1.09h.86c-.21-1.12-1-1.82-2.25-1.82-1.48 0-2.49 1.06-2.49 2.62 0 1.59.98 2.6 2.47 2.6zm5.519 0c1.49 0 2.53-1.06 2.53-2.61 0-1.55-1.04-2.61-2.53-2.61-1.49 0-2.53 1.06-2.53 2.61 0 1.55 1.04 2.61 2.53 2.61zm0-.73c-1.01 0-1.69-.79-1.69-1.88 0-1.09.68-1.88 1.69-1.88 1.01 0 1.69.79 1.69 1.88 0 1.09-.68 1.88-1.69 1.88zm7.04-1.88c0 1.15-.56 1.86-1.49 1.86-.85 0-1.33-.56-1.33-1.62V9.4h-.82v2.84c0 1.69.89 2.32 2.01 2.32.84 0 1.33-.36 1.63-.74l.11.68h.71V9.4h-.82v2.55zm4.438-2.61c-.86 0-1.38.36-1.68.75l-.11-.69h-.71v5.1h.82v-2.55c0-1.15.58-1.86 1.54-1.86.89 0 1.38.56 1.38 1.62v2.79h.82v-2.84c0-1.69-.91-2.32-2.06-2.32zm3.485 3.83c0 .9.35 1.33 1.33 1.33h.89v-.75h-.81c-.44 0-.59-.16-.59-.59v-3.01h1.32V9.4h-1.32V7.97h-.82V9.4h-.92v.75h.92v3.02z" fill="#fff"/></svg>