<svg width="152" height="9" viewBox="0 0 152 9" fill="none" xmlns="http://www.w3.org/2000/svg"><path d="M.172 1.857H2.03V7h.989V1.857h1.857V.98H.172v.877zm7.147.74c-.722 0-1.075.292-1.298.662l-.104-.662h-.825V7h.929V4.79c0-.68.266-1.325 1.092-1.325h.413v-.868h-.207zm4.67 3.595c-.19 0-.284-.06-.284-.284V4.145c0-1.04-.67-1.6-1.84-1.6-1.11 0-1.85.533-1.944 1.393h.912c.068-.387.438-.645.989-.645.61 0 .963.301.963.792v.266h-1.11c-1.23 0-1.883.508-1.883 1.41 0 .818.67 1.29 1.634 1.29.714 0 1.161-.309 1.453-.756 0 .438.207.705.809.705h.49v-.808h-.19zm-1.204-.998c-.009.68-.456 1.135-1.23 1.135-.507 0-.817-.258-.817-.628 0-.447.318-.662.894-.662h1.153v.155zm5.21-1.987c-.283-.387-.756-.662-1.427-.662-1.195 0-2.081.895-2.081 2.253 0 1.41.886 2.254 2.081 2.254.697 0 1.152-.327 1.436-.714l.112.662h.808V.98h-.928v2.227zM14.724 6.27c-.774 0-1.282-.602-1.282-1.47 0-.86.508-1.463 1.282-1.463s1.281.602 1.281 1.48c0 .851-.507 1.453-1.281 1.453zm5.199.783c1.092 0 1.832-.663 1.987-1.531h-.93c-.128.49-.541.774-1.109.774-.73 0-1.204-.49-1.23-1.239v-.06h3.32c.017-.12.026-.24.026-.352-.026-1.29-.877-2.099-2.15-2.099-1.299 0-2.167.903-2.167 2.262 0 1.35.868 2.245 2.253 2.245zm-1.247-2.735c.069-.628.576-1.024 1.17-1.024.645 0 1.1.37 1.178 1.024h-2.348zm8.971 2.735c1.402 0 2.425-.826 2.615-2.099h-1.024c-.189.766-.765 1.23-1.6 1.23-1.135 0-1.823-.912-1.823-2.193 0-1.29.706-2.193 1.85-2.193.816 0 1.384.473 1.582 1.23h1.023C30.071 1.754 29.082.928 27.706.928c-1.78 0-2.906 1.23-2.906 3.062 0 1.849 1.092 3.062 2.846 3.062zm5.42 0c1.34 0 2.244-.903 2.244-2.254 0-1.341-.903-2.253-2.245-2.253-1.341 0-2.244.912-2.244 2.253 0 1.35.903 2.254 2.244 2.254zm0-.792c-.783 0-1.29-.61-1.29-1.462 0-.851.507-1.462 1.29-1.462.782 0 1.298.611 1.298 1.462 0 .852-.516 1.462-1.299 1.462zm8.056-3.715c-.722 0-1.221.318-1.505.8-.266-.568-.782-.8-1.359-.8-.662.009-1.04.301-1.29.628l-.103-.576h-.808V7h.929V4.644c0-.783.395-1.299 1.032-1.299.61 0 .928.404.928 1.178V7h.938V4.618c0-.791.404-1.273 1.04-1.273.602 0 .92.404.92 1.178V7h.93V4.463c0-1.393-.74-1.918-1.652-1.918zm7.559 0c-.723 0-1.221.318-1.505.8-.267-.568-.783-.8-1.359-.8-.662.009-1.04.301-1.29.628l-.103-.576h-.809V7h.93V4.644c0-.783.395-1.299 1.031-1.299.61 0 .929.404.929 1.178V7h.937V4.618c0-.791.405-1.273 1.041-1.273.602 0 .92.404.92 1.178V7h.929V4.463c0-1.393-.74-1.918-1.651-1.918zm4.54 4.507c1.342 0 2.245-.903 2.245-2.254 0-1.341-.903-2.253-2.244-2.253-1.342 0-2.245.912-2.245 2.253 0 1.35.903 2.254 2.245 2.254zm0-.792c-.782 0-1.29-.61-1.29-1.462 0-.851.508-1.462 1.29-1.462.783 0 1.3.611 1.3 1.462 0 .852-.517 1.462-1.3 1.462zm6.337-3.053c-.283-.387-.756-.662-1.427-.662-1.196 0-2.081.895-2.081 2.253 0 1.41.885 2.254 2.08 2.254.697 0 1.153-.327 1.437-.714l.112.662h.808V.98h-.929v2.227zM58.286 6.27c-.774 0-1.282-.602-1.282-1.47 0-.86.508-1.463 1.282-1.463s1.281.602 1.281 1.48c0 .851-.507 1.453-1.281 1.453zm3.582-4.291a.55.55 0 00.567-.56.55.55 0 00-.567-.558.55.55 0 00-.568.559c0 .326.25.559.568.559zM61.395 7h.929V2.597h-.93V7zm2.157-1.195c0 .8.361 1.195 1.204 1.195h.86v-.817h-.653c-.353 0-.473-.129-.473-.473V3.414h1.075v-.817H64.49v-1.23h-.938v1.23h-.765v.817h.765v2.39zm3.928 1.22l-.172.43c-.138.362-.224.448-.585.448h-.653v.817h.997c.645 0 .834-.318 1.11-1.032l1.995-5.091h-.99l-1.195 3.345-1.23-3.345h-.988l1.711 4.429zm8.07.027c1.403 0 2.426-.826 2.615-2.099h-1.023c-.19.766-.766 1.23-1.6 1.23-1.135 0-1.823-.912-1.823-2.193 0-1.29.705-2.193 1.85-2.193.816 0 1.384.473 1.581 1.23h1.024C77.976 1.754 76.987.928 75.61.928c-1.78 0-2.907 1.23-2.907 3.062 0 1.849 1.093 3.062 2.847 3.062zM78.984 7h.99V4.454h2.356v-.851h-2.357V1.857h2.856V.98h-3.845V7zm6.65 0c1.883 0 3.07-1.23 3.07-3.019 0-1.788-1.187-3.001-3.07-3.001h-2.047V7h2.047zm-1.058-5.16h1.058c1.324 0 2.055.851 2.055 2.141s-.731 2.159-2.055 2.159h-1.058v-4.3zm4.715 3.707c.026.954.834 1.505 2.012 1.505 1.067 0 1.867-.534 1.867-1.376 0-.98-.817-1.187-1.824-1.308-.636-.068-1.057-.12-1.057-.533 0-.352.36-.576.911-.576.55 0 .929.284.98.688h.912c-.06-.903-.825-1.402-1.909-1.402-1.058-.008-1.806.533-1.806 1.368 0 .911.791 1.126 1.797 1.247.68.086 1.084.12 1.084.593 0 .353-.378.576-.955.576-.67 0-1.066-.327-1.1-.782h-.912zM97.439 7H98.6l1.213-4.429L101.042 7h1.153l1.728-6.02h-1.014l-1.29 4.764L100.311.98h-.937l-1.342 4.764L96.751.971 95.728.98 97.439 7zm7.496-5.022a.55.55 0 00.568-.56.55.55 0 00-.568-.558.55.55 0 00-.568.559c0 .326.25.559.568.559zM104.462 7h.929V2.597h-.929V7zm2.158-1.195c0 .8.361 1.195 1.204 1.195h.86v-.817h-.654c-.353 0-.473-.129-.473-.473V3.414h1.075v-.817h-1.075v-1.23h-.937v1.23h-.766v.817h.766v2.39zm4.968-3.26c-.688 0-1.11.31-1.385.688V.98h-.929V7h.929V4.773c0-.886.447-1.428 1.178-1.428.688 0 1.058.447 1.058 1.281V7h.929V4.549c0-1.47-.8-2.004-1.78-2.004zm4.672 4.507c1.342 0 2.245-.903 2.245-2.254 0-1.341-.903-2.253-2.245-2.253-1.341 0-2.244.912-2.244 2.253 0 1.35.903 2.254 2.244 2.254zm0-.792c-.782 0-1.29-.61-1.29-1.462 0-.851.508-1.462 1.29-1.462.783 0 1.299.611 1.299 1.462 0 .852-.516 1.462-1.299 1.462zm6.01-1.462c0 .912-.43 1.445-1.135 1.445-.679 0-1.023-.438-1.023-1.298V2.597h-.929v2.45c0 1.506.8 2.005 1.737 2.005.68 0 1.084-.276 1.359-.611l.103.559h.817V2.597h-.929v2.201zm2.188 1.007c0 .8.361 1.195 1.204 1.195h.86v-.817h-.654c-.352 0-.473-.129-.473-.473V3.414h1.075v-.817h-1.075v-1.23h-.937v1.23h-.766v.817h.766v2.39zm7.564 1.247c1.402 0 2.425-.826 2.614-2.099h-1.023c-.189.766-.765 1.23-1.6 1.23-1.135 0-1.823-.912-1.823-2.193 0-1.29.705-2.193 1.849-2.193.817 0 1.385.473 1.583 1.23h1.023c-.198-1.273-1.187-2.099-2.563-2.099-1.78 0-2.907 1.23-2.907 3.062 0 1.849 1.093 3.062 2.847 3.062zm5.419 0c1.342 0 2.245-.903 2.245-2.254 0-1.341-.903-2.253-2.245-2.253-1.341 0-2.244.912-2.244 2.253 0 1.35.903 2.254 2.244 2.254zm0-.792c-.782 0-1.29-.61-1.29-1.462 0-.851.508-1.462 1.29-1.462.783 0 1.299.611 1.299 1.462 0 .852-.516 1.462-1.299 1.462zm2.777-.713c.026.954.834 1.505 2.013 1.505 1.066 0 1.866-.534 1.866-1.376 0-.98-.817-1.187-1.823-1.308-.637-.068-1.058-.12-1.058-.533 0-.352.361-.576.911-.576.551 0 .929.284.981.688h.911c-.06-.903-.825-1.402-1.909-1.402-1.058-.008-1.806.533-1.806 1.368 0 .911.791 1.126 1.798 1.247.679.086 1.083.12 1.083.593 0 .353-.378.576-.954.576-.671 0-1.067-.327-1.101-.782h-.912zm4.917.258c0 .8.361 1.195 1.204 1.195h.86v-.817h-.654c-.352 0-.473-.129-.473-.473V3.414h1.075v-.817h-1.075v-1.23h-.937v1.23h-.766v.817h.766v2.39zm2.465-.258c.026.954.835 1.505 2.013 1.505 1.066 0 1.866-.534 1.866-1.376 0-.98-.817-1.187-1.823-1.308-.637-.068-1.058-.12-1.058-.533 0-.352.361-.576.912-.576.55 0 .928.284.98.688h.912c-.061-.903-.826-1.402-1.91-1.402-1.057-.008-1.806.533-1.806 1.368 0 .911.792 1.126 1.798 1.247.679.086 1.083.12 1.083.593 0 .353-.378.576-.954.576-.671 0-1.067-.327-1.101-.782h-.912z" fill="#000"/></svg>