<svg width="346" height="15" viewBox="0 0 346 15" fill="none" xmlns="http://www.w3.org/2000/svg"><path d="M.79 8.463c.108 2.046 1.596 3.426 4.03 3.426 2.28 0 3.783-1.24 3.783-3.07 0-2.062-1.829-2.589-3.627-2.899-1.66-.279-3.101-.558-3.101-2.108 0-1.411 1.1-2.202 2.806-2.202 1.628 0 2.744.915 2.93 2.326h.853C8.309 2.076 6.898.85 4.681.85c-2.202 0-3.643 1.163-3.643 3.008 0 2.062 1.767 2.527 3.503 2.822 1.706.294 3.225.636 3.225 2.217 0 1.395-1.178 2.232-2.93 2.232-1.83 0-3.07-1.054-3.178-2.666H.79zm12.94 3.426c1.721 0 3.039-1.116 3.38-2.698h-.806c-.31 1.225-1.349 1.985-2.636 1.985-1.752 0-2.852-1.333-2.883-3.163v-.14h6.418c0-.108.016-.232.016-.325-.078-2.341-1.52-3.705-3.628-3.705-2.155 0-3.628 1.643-3.628 3.969 0 2.465 1.535 4.077 3.767 4.077zm-2.883-4.682c.124-1.597 1.317-2.667 2.76-2.667 1.534 0 2.635.946 2.759 2.667h-5.52zm8.338-4.93c.31 0 .558-.233.558-.558a.546.546 0 00-.558-.558.546.546 0 00-.559.558c0 .325.248.558.559.558zm-.403 9.52h.79V3.935h-.79v7.86zm2.277-7.133h5.054l-5.271 6.512v.62h6.543v-.729H21.88l5.286-6.527v-.604H21.06v.728zm10.598 7.225c1.72 0 3.038-1.116 3.38-2.698h-.807c-.31 1.225-1.349 1.985-2.635 1.985-1.752 0-2.853-1.333-2.884-3.163v-.14h6.418c0-.108.016-.232.016-.325-.078-2.341-1.52-3.705-3.628-3.705-2.155 0-3.628 1.643-3.628 3.969 0 2.465 1.535 4.077 3.768 4.077zm-2.884-4.682c.124-1.597 1.318-2.667 2.76-2.667 1.534 0 2.635.946 2.76 2.667h-5.52zm15.586 4.682c2.217 0 3.783-1.643 3.783-4.03 0-2.373-1.566-4.016-3.783-4.016-2.217 0-3.767 1.643-3.767 4.015 0 2.388 1.55 4.031 3.767 4.031zm0-.713c-1.752 0-2.961-1.364-2.961-3.318 0-1.938 1.21-3.318 2.961-3.318 1.752 0 2.962 1.38 2.962 3.318 0 1.954-1.21 3.318-2.962 3.318zm8.982-7.333c-1.442 0-2.372.744-2.822 1.767l-.124-1.674h-.682v7.86h.791V7.92c0-2.046 1.039-3.349 2.713-3.349 1.52 0 2.434.993 2.434 2.853v4.372h.79V7.393c0-2.48-1.317-3.55-3.1-3.55zm12.503 8.046c1.72 0 3.038-1.116 3.38-2.698h-.807c-.31 1.225-1.349 1.985-2.636 1.985-1.752 0-2.852-1.333-2.883-3.163v-.14h6.418c0-.108.016-.232.016-.325-.078-2.341-1.52-3.705-3.628-3.705-2.155 0-3.628 1.643-3.628 3.969 0 2.465 1.535 4.077 3.768 4.077zM62.96 7.207c.124-1.597 1.318-2.667 2.76-2.667 1.534 0 2.635.946 2.76 2.667h-5.52zm14.85 3.86c-.466 0-.698-.155-.698-.76V6.65c0-1.799-1.101-2.806-3.07-2.806-1.799 0-2.992.868-3.194 2.294h.79c.202-.961 1.04-1.597 2.373-1.597 1.473 0 2.31.776 2.31 2.078V7.3h-2.667c-2.015 0-3.1.868-3.1 2.341 0 1.395 1.1 2.248 2.775 2.248 1.597 0 2.542-.729 3.023-1.705v.279c-.031.93.357 1.333 1.287 1.333h.465v-.729h-.295zm-1.489-2.45c0 1.505-1.07 2.59-2.93 2.59-1.256 0-2.031-.636-2.031-1.612 0-1.04.775-1.613 2.232-1.613h2.729v.636zm6.05-4.681c-1.458 0-2.078.697-2.403 1.566l-.124-1.566h-.683v7.86h.791V7.812c0-1.597.419-3.117 2.264-3.117h.573v-.76h-.418zm5.218-.093c-1.442 0-2.372.744-2.822 1.767l-.124-1.674h-.682v7.86h.79V7.92c0-2.046 1.04-3.349 2.714-3.349 1.519 0 2.434.993 2.434 2.853v4.372h.79V7.393c0-2.48-1.317-3.55-3.1-3.55zm5.254-1.566c.31 0 .558-.233.558-.558a.546.546 0 00-.558-.558.546.546 0 00-.559.558c0 .325.248.558.558.558zm-.404 9.52h.791V3.935h-.79v7.86zm6.278-7.954c-1.442 0-2.372.744-2.822 1.767l-.124-1.674h-.682v7.86h.79V7.92c0-2.046 1.04-3.349 2.714-3.349 1.519 0 2.434.993 2.434 2.853v4.372h.791V7.393c0-2.48-1.318-3.55-3.101-3.55zm11.254 1.922c-.481-1.163-1.535-1.922-2.993-1.922-2.155 0-3.705 1.628-3.705 4.015 0 2.48 1.55 4.031 3.705 4.031 1.473 0 2.512-.775 3.008-2v1.396c0 2.092-.992 2.992-2.884 2.992-1.472 0-2.496-.667-2.744-1.86h-.821c.248 1.674 1.596 2.573 3.503 2.573 2.543 0 3.737-1.21 3.737-3.675v-7.38h-.682l-.124 1.83zm-2.931 5.41c-1.751 0-2.961-1.363-2.961-3.317 0-1.953 1.21-3.318 2.961-3.318 1.752 0 2.962 1.365 2.962 3.334 0 1.938-1.21 3.302-2.962 3.302zm5.24-1.798c.062 1.628 1.38 2.512 3.349 2.512 1.69 0 3.054-.853 3.054-2.248 0-1.659-1.457-1.984-3.147-2.217-1.225-.17-2.31-.31-2.31-1.41 0-.9.884-1.49 2.217-1.49 1.256 0 2.155.605 2.294 1.629h.807c-.14-1.535-1.396-2.31-3.101-2.31-1.752-.016-3.008.883-3.008 2.232 0 1.582 1.458 1.876 3.07 2.093 1.318.186 2.387.357 2.387 1.52 0 .93-.976 1.519-2.263 1.519-1.504 0-2.481-.698-2.543-1.83h-.806zm12.494-7.1c.31 0 .558-.233.558-.558a.546.546 0 00-.558-.558.547.547 0 00-.559.558c0 .325.249.558.559.558zm-.403 9.52h.79V3.935h-.79v7.86zm6.277-7.954c-1.442 0-2.372.744-2.822 1.767l-.124-1.674h-.682v7.86h.791V7.92c0-2.046 1.039-3.349 2.713-3.349 1.519 0 2.434.993 2.434 2.853v4.372h.791V7.393c0-2.48-1.318-3.55-3.101-3.55zm12.239.093c-1.458 0-2.078.697-2.403 1.566l-.124-1.566h-.683v7.86h.791V7.812c0-1.597.419-3.117 2.264-3.117h.573v-.76h-.418zm4.503 7.953c1.721 0 3.038-1.116 3.379-2.698h-.806c-.31 1.225-1.349 1.985-2.635 1.985-1.752 0-2.853-1.333-2.884-3.163v-.14h6.418c0-.108.016-.232.016-.325-.078-2.341-1.519-3.705-3.628-3.705-2.155 0-3.628 1.643-3.628 3.969 0 2.465 1.535 4.077 3.768 4.077zm-2.884-4.682c.124-1.597 1.318-2.667 2.76-2.667 1.534 0 2.635.946 2.759 2.667h-5.519zm14.849 3.86c-.465 0-.697-.155-.697-.76V6.65c0-1.799-1.101-2.806-3.07-2.806-1.798 0-2.992.868-3.194 2.294h.791c.202-.961 1.039-1.597 2.372-1.597 1.473 0 2.31.776 2.31 2.078V7.3H155.2c-2.015 0-3.1.868-3.1 2.341 0 1.395 1.1 2.248 2.775 2.248 1.597 0 2.542-.729 3.023-1.705v.279c-.031.93.357 1.333 1.287 1.333h.465v-.729h-.295zm-1.488-2.45c0 1.505-1.07 2.59-2.93 2.59-1.256 0-2.031-.636-2.031-1.612 0-1.04.775-1.613 2.232-1.613h2.729v.636zm2.84 3.18h.791V.942h-.791v10.853zm7.418-1.83c0 1.255.512 1.83 1.845 1.83h1.147v-.73h-1.085c-.822 0-1.116-.31-1.116-1.116V4.664h2.124v-.728h-2.124V1.734h-.791v2.202h-1.488v.728h1.488v5.303zm4.598-7.69c.31 0 .558-.233.558-.558a.546.546 0 00-.558-.558.546.546 0 00-.558.558c0 .325.248.558.558.558zm-.403 9.52h.791V3.935h-.791v7.86zm11.425-7.954c-1.442 0-2.372.806-2.822 1.969-.372-1.303-1.349-1.97-2.589-1.97-1.349 0-2.155.791-2.558 1.768l-.124-1.674h-.682v7.86h.79v-4c0-1.922.931-3.225 2.434-3.225 1.365 0 2.218.962 2.218 2.776v4.45h.79v-4.28c.047-1.798.977-2.946 2.45-2.946 1.364 0 2.186.915 2.186 2.698v4.527h.806V7.238c0-2.372-1.256-3.395-2.899-3.395zm8.006 8.046c1.721 0 3.039-1.116 3.38-2.698h-.806c-.311 1.225-1.349 1.985-2.636 1.985-1.752 0-2.853-1.333-2.884-3.163v-.14h6.419c0-.108.015-.232.015-.325-.077-2.341-1.519-3.705-3.628-3.705-2.155 0-3.627 1.643-3.627 3.969 0 2.465 1.534 4.077 3.767 4.077zm-2.884-4.682c.124-1.597 1.318-2.667 2.76-2.667 1.535 0 2.636.946 2.76 2.667h-5.52zm14.021 4.59h.853l2.325-6.606 2.217 6.605h.853l2.791-7.86h-.807l-2.418 6.914-2.248-6.914h-.729l-2.372 6.914-2.295-6.914h-.837l2.667 7.86zm10.548-9.52c.31 0 .558-.233.558-.558a.546.546 0 00-.558-.558.546.546 0 00-.558.558c0 .325.248.558.558.558zm-.403 9.52h.79V3.935h-.79v7.86zm3.238-1.83c0 1.255.512 1.83 1.845 1.83h1.148v-.73h-1.086c-.821 0-1.116-.31-1.116-1.116V4.664h2.124v-.728h-2.124V1.734h-.791v2.202h-1.488v.728h1.488v5.303zm7.823-6.124c-1.472 0-2.387.821-2.837 1.953V.943h-.79v10.853h.79V7.92c0-2.046 1.039-3.349 2.713-3.349 1.504 0 2.434.993 2.434 2.853v4.372h.791V7.393c0-2.48-1.318-3.55-3.101-3.55zm12.704 8.046c1.969 0 3.302-1.194 3.581-2.76h-1.674c-.233.884-.977 1.396-2 1.396-1.318 0-2.171-.884-2.217-2.233v-.108h5.984c.031-.217.047-.434.047-.636-.047-2.326-1.582-3.783-3.876-3.783-2.341 0-3.907 1.628-3.907 4.078 0 2.434 1.566 4.046 4.062 4.046zm-2.248-4.93c.124-1.132 1.039-1.845 2.108-1.845 1.163 0 1.985.667 2.124 1.845h-4.232zm6.137 4.837h1.845l2.093-2.884 2.078 2.884h1.953l-2.992-4.062 2.822-3.876h-1.845l-1.938 2.682-1.892-2.682h-1.953l2.806 3.876-2.977 4.062zm9.466-2.155c0 1.442.651 2.155 2.17 2.155h1.551v-1.473h-1.179c-.635 0-.852-.232-.852-.852V5.33h1.937V3.858h-1.937V1.641h-1.69v2.217h-1.38v1.473h1.38v4.31zm8.387 2.248c1.968 0 3.302-1.194 3.581-2.76h-1.675c-.232.884-.976 1.396-2 1.396-1.317 0-2.17-.884-2.217-2.233v-.108h5.985c.031-.217.046-.434.046-.636-.046-2.326-1.581-3.783-3.876-3.783-2.341 0-3.906 1.628-3.906 4.078 0 2.434 1.565 4.046 4.062 4.046zm-2.249-4.93c.125-1.132 1.039-1.845 2.109-1.845 1.163 0 1.984.667 2.124 1.845h-4.233zM267.8 3.765c-1.287 0-2.046.512-2.543 1.132l-.186-1.039h-1.457v7.938h1.674v-4c0-1.612.791-2.589 2.125-2.589 1.255 0 1.891.806 1.891 2.31v4.28h1.69v-4.42c0-2.65-1.442-3.612-3.194-3.612zm10.687 1.194c-.512-.698-1.364-1.194-2.574-1.194-2.155 0-3.751 1.613-3.751 4.062 0 2.543 1.596 4.062 3.751 4.062 1.256 0 2.078-.589 2.59-1.287l.201 1.194h1.457V.943h-1.674V4.96zm-2.294 5.52c-1.396 0-2.311-1.086-2.311-2.652 0-1.55.915-2.636 2.311-2.636 1.395 0 2.31 1.086 2.31 2.667 0 1.535-.915 2.62-2.31 2.62zm9.372 1.41c1.969 0 3.302-1.194 3.581-2.76h-1.674c-.232.884-.977 1.396-2 1.396-1.318 0-2.17-.884-2.217-2.233v-.108h5.985c.031-.217.046-.434.046-.636-.046-2.326-1.581-3.783-3.876-3.783-2.341 0-3.907 1.628-3.907 4.078 0 2.434 1.566 4.046 4.062 4.046zm-2.248-4.93c.124-1.132 1.039-1.845 2.109-1.845 1.162 0 1.984.667 2.124 1.845h-4.233zm13.354-2c-.512-.698-1.365-1.194-2.574-1.194-2.155 0-3.752 1.613-3.752 4.062 0 2.543 1.597 4.062 3.752 4.062 1.256 0 2.078-.589 2.589-1.287l.202 1.194h1.457V.943h-1.674V4.96zm-2.295 5.52c-1.395 0-2.31-1.086-2.31-2.652 0-1.55.915-2.636 2.31-2.636s2.31 1.086 2.31 2.667c0 1.535-.915 2.62-2.31 2.62zm13.743-6.714c-1.241 0-2 .558-2.496 1.24V.943h-1.675v10.853h1.675V7.781c0-1.597.806-2.574 2.124-2.574 1.24 0 1.906.806 1.906 2.31v4.28h1.675v-4.42c0-2.65-1.442-3.612-3.209-3.612zm8.423 8.124c2.419 0 4.046-1.628 4.046-4.062 0-2.418-1.627-4.062-4.046-4.062-2.419 0-4.046 1.644-4.046 4.062 0 2.434 1.627 4.062 4.046 4.062zm0-1.426c-1.411 0-2.326-1.101-2.326-2.636 0-1.535.915-2.636 2.326-2.636s2.341 1.101 2.341 2.636c0 1.535-.93 2.636-2.341 2.636zm10.835-2.636c0 1.644-.776 2.605-2.047 2.605-1.225 0-1.845-.79-1.845-2.341V3.858h-1.674v4.419c0 2.713 1.442 3.612 3.132 3.612 1.224 0 1.953-.496 2.449-1.1l.186 1.007h1.473V3.858h-1.674v3.97zm7.34-3.969c-1.303 0-1.938.527-2.341 1.194l-.186-1.194h-1.489v7.938h1.675V7.812c0-1.225.48-2.388 1.969-2.388h.744V3.858h-.372zm.927 5.318c.047 1.72 1.504 2.713 3.628 2.713 1.922 0 3.364-.961 3.364-2.48 0-1.768-1.473-2.14-3.287-2.357-1.147-.124-1.906-.217-1.906-.961 0-.636.651-1.04 1.643-1.04s1.674.513 1.767 1.241h1.644c-.109-1.628-1.489-2.527-3.442-2.527-1.907-.015-3.256.961-3.256 2.465 0 1.644 1.426 2.031 3.24 2.248 1.225.155 1.954.217 1.954 1.07 0 .636-.682 1.039-1.721 1.039-1.209 0-1.923-.59-1.985-1.411h-1.643zm8.029 1.659c0 .62.449 1.054 1.07 1.054.62 0 1.085-.434 1.085-1.054 0-.62-.465-1.054-1.085-1.054-.621 0-1.07.434-1.07 1.054z" fill="#000"/></svg>