<svg width="40" height="14" viewBox="0 0 40 14" fill="none" xmlns="http://www.w3.org/2000/svg"><rect y=".621" width="40" height="13" rx="6.5" fill="#000"/><path d="M5.127 5.187h1.44V9.12h.552V5.187h1.44v-.508H5.127v.508zm5.09.698c-.577 0-.825.24-.977.488l-.07-.488h-.45V9.12h.52V7.47c0-.514.184-1.079.863-1.079h.26v-.507h-.146zm3.347 2.76c-.146 0-.21-.045-.21-.216V7.014c0-.755-.475-1.167-1.3-1.167-.78 0-1.294.374-1.37 1.009h.52c.063-.33.368-.546.825-.546.507 0 .805.254.805.672v.223h-.951c-.85 0-1.301.361-1.301 1.008 0 .59.482.946 1.193.946.558 0 .882-.248 1.085-.54.006.318.152.502.584.502h.285v-.476h-.165zm-.73-.844c0 .54-.374.914-1.021.914-.431 0-.704-.216-.704-.533 0-.368.26-.54.723-.54h1.002v.159zm3.808-1.421c-.196-.311-.564-.533-1.11-.533-.895 0-1.554.666-1.554 1.656 0 1.053.66 1.656 1.554 1.656.546 0 .895-.26 1.11-.559l.07.52h.45V4.68h-.52v1.7zm-1.06 2.316c-.64 0-1.071-.489-1.071-1.193 0-.705.431-1.193 1.072-1.193.634 0 1.066.495 1.066 1.205 0 .692-.432 1.18-1.066 1.18zm3.78.463c.75 0 1.282-.476 1.41-1.123h-.528c-.107.418-.463.66-.92.66-.615 0-1.002-.432-1.021-1.047v-.045h2.512c.007-.076.013-.152.013-.222-.025-.958-.622-1.535-1.535-1.535-.914 0-1.536.672-1.536 1.656 0 .99.635 1.656 1.605 1.656zm-1.027-1.986a.958.958 0 01.964-.87c.54 0 .92.311.97.87h-1.934zm6.334-1.326c-.546 0-.876.228-1.066.476l-.07-.438h-.45V9.12h.52V7.503c0-.73.368-1.18.977-1.18.565 0 .875.355.875 1.027v1.77h.52V7.32c0-1.073-.577-1.472-1.306-1.472zm3.424 3.312c.945 0 1.605-.673 1.605-1.656 0-.984-.66-1.656-1.605-1.656s-1.605.672-1.605 1.656c0 .983.66 1.656 1.605 1.656zm0-.463c-.641 0-1.072-.502-1.072-1.193 0-.692.431-1.193 1.072-1.193.64 0 1.072.501 1.072 1.193 0 .691-.431 1.193-1.072 1.193zm2.839.425h.57l.813-2.405.78 2.405h.571l1.079-3.236h-.527l-.844 2.633-.805-2.633h-.483l-.85 2.633-.806-2.633h-.545l1.047 3.236z" fill="#fff"/></svg>