<svg width="97" height="16" viewBox="0 0 97 16" fill="none" xmlns="http://www.w3.org/2000/svg"><rect width="97" height="16" rx="8" fill="#000"/><path d="M10.16 6.04h1.816V11h.696V6.04h1.816V5.4H10.16v.64zm6.418.88c-.728 0-1.04.304-1.232.616l-.088-.616h-.568V11h.656V8.92c0-.648.232-1.36 1.088-1.36h.328v-.64h-.184zm4.22 3.48c-.184 0-.264-.056-.264-.272V8.344c0-.952-.6-1.472-1.64-1.472-.984 0-1.632.472-1.728 1.272h.656c.08-.416.464-.688 1.04-.688.64 0 1.016.32 1.016.848v.28h-1.2c-1.072 0-1.64.456-1.64 1.272 0 .744.608 1.192 1.504 1.192.704 0 1.112-.312 1.368-.68.008.4.192.632.736.632h.36v-.6h-.208zm-.92-1.064c0 .68-.472 1.152-1.288 1.152-.544 0-.888-.272-.888-.672 0-.464.328-.68.912-.68h1.264v.2zm4.802-1.792c-.248-.392-.712-.672-1.4-.672-1.128 0-1.96.84-1.96 2.088 0 1.328.832 2.088 1.96 2.088a1.65 1.65 0 001.4-.704l.088.656h.568V5.4h-.656v2.144zm-1.336 2.92c-.808 0-1.352-.616-1.352-1.504s.544-1.504 1.352-1.504c.8 0 1.344.624 1.344 1.52 0 .872-.544 1.488-1.344 1.488zm4.765.584c.944 0 1.616-.6 1.776-1.416h-.664c-.136.528-.584.832-1.16.832-.776 0-1.264-.544-1.288-1.32v-.056h3.168c.008-.096.016-.192.016-.28-.032-1.208-.784-1.936-1.936-1.936s-1.936.848-1.936 2.088c0 1.248.8 2.088 2.024 2.088zm-1.296-2.504a1.208 1.208 0 011.216-1.096c.68 0 1.16.392 1.224 1.096h-2.44zm5.859.624c.04 1.104.84 1.88 2.208 1.88 1.176 0 1.992-.68 1.992-1.648 0-1.088-.936-1.392-1.848-1.544-.84-.144-1.52-.28-1.52-.952 0-.6.488-.92 1.216-.92.76 0 1.28.424 1.36 1.072h.72c-.064-1.008-.832-1.704-2.08-1.704-1.136 0-1.912.64-1.912 1.592 0 1.088.928 1.384 1.832 1.536.848.144 1.536.288 1.536.984 0 .608-.536.952-1.288.952-.856 0-1.44-.496-1.496-1.248h-.72zM37.755 11h.68V6.584L40.29 11h.616l1.856-4.416V11h.68V5.4h-.864l-1.96 4.648L38.635 5.4h-.88V11zm7.037 0l.592-1.512h2.44L48.416 11h.744l-2.128-5.6h-.824L44.072 11h.72zM46.6 6.16l1.016 2.696h-2.024L46.6 6.16zM49.794 11h.696V8.848h1.408L53.082 11h.784L52.61 8.712c.72-.2 1.192-.808 1.192-1.592 0-1.048-.744-1.72-1.864-1.72h-2.144V11zm2.096-4.96c.728 0 1.2.424 1.2 1.08 0 .656-.472 1.088-1.208 1.088H50.49V6.04h1.4zm2.122 0h1.816V11h.696V6.04h1.816V5.4h-4.328v.64zm6.902 3.128c.04 1.104.84 1.88 2.208 1.88 1.176 0 1.992-.68 1.992-1.648 0-1.088-.936-1.392-1.848-1.544-.84-.144-1.52-.28-1.52-.952 0-.6.488-.92 1.216-.92.76 0 1.28.424 1.36 1.072h.72c-.064-1.008-.832-1.704-2.08-1.704-1.136 0-1.912.64-1.912 1.592 0 1.088.928 1.384 1.832 1.536.848.144 1.536.288 1.536.984 0 .608-.536.952-1.288.952-.856 0-1.44-.496-1.496-1.248h-.72zm5.323-2.936c.24 0 .424-.176.424-.424a.412.412 0 00-.424-.424.412.412 0 00-.424.424c0 .248.184.424.424.424zM65.901 11h.656V6.92h-.656V11zm4.77-3.376c-.255-.456-.711-.752-1.4-.752-1.127 0-1.96.84-1.96 2.088 0 1.328.833 2.088 1.96 2.088.689 0 1.129-.288 1.4-.752v.48c0 .888-.463 1.288-1.32 1.288-.68 0-1.135-.288-1.247-.8h-.672c.104.896.832 1.384 1.872 1.384 1.4 0 2.024-.672 2.024-1.848V6.92h-.568l-.088.704zm-1.335 2.84c-.808 0-1.352-.616-1.352-1.504s.544-1.504 1.352-1.504c.8 0 1.344.624 1.344 1.52 0 .872-.544 1.488-1.344 1.488zm4.885-3.592c-.688 0-1.104.288-1.344.6l-.088-.552h-.568V11h.656V8.96c0-.92.464-1.488 1.232-1.488.712 0 1.104.448 1.104 1.296V11h.656V8.728c0-1.352-.728-1.856-1.648-1.856zm6.093 3.528c-.184 0-.264-.056-.264-.272V8.344c0-.952-.6-1.472-1.64-1.472-.984 0-1.632.472-1.728 1.272h.656c.08-.416.464-.688 1.04-.688.64 0 1.016.32 1.016.848v.28h-1.2c-1.072 0-1.64.456-1.64 1.272 0 .744.608 1.192 1.504 1.192.704 0 1.112-.312 1.368-.68.008.4.192.632.736.632h.36v-.6h-.208zm-.92-1.064c0 .68-.472 1.152-1.288 1.152-.544 0-.888-.272-.888-.672 0-.464.328-.68.912-.68h1.264v.2zM81.026 11h.656V5.4h-.656V11zm1.387-1.344c.016.896.744 1.392 1.8 1.392.904 0 1.632-.472 1.632-1.232 0-.904-.744-1.08-1.672-1.192-.592-.072-1.024-.128-1.024-.576 0-.376.384-.616.952-.616.56 0 .944.312.992.728h.672c-.064-.848-.736-1.28-1.664-1.288-.92-.008-1.6.48-1.6 1.224 0 .848.728 1.032 1.64 1.144.608.072 1.056.112 1.056.624 0 .376-.408.624-.984.624-.68 0-1.104-.352-1.128-.832h-.672z" fill="#fff"/></svg>