<svg width="145" height="20" viewBox="0 0 145 20" fill="none" xmlns="http://www.w3.org/2000/svg"><path d="M4.452 4.595a7.107 7.107 0 012.221-1.647 6.204 6.204 0 012.692-.598c1.05 0 1.896.14 2.535.423.64.283 1.257.69 1.857 1.224.29.232.59.337.898.312.307-.024.571-.14.789-.35.217-.207.327-.469.327-.787 0-.15-.013-.278-.037-.388a.936.936 0 00-.146-.323 1.352 1.352 0 00-.304-.313c-.906-.765-1.807-1.315-2.705-1.647C11.683.167 10.612 0 9.365 0 8.037 0 6.81.259 5.678.773a9.344 9.344 0 00-2.973 2.135A9.95 9.95 0 00.715 6.08C.238 7.287 0 8.59 0 9.988c0 1.415.238 2.73.715 3.945a9.838 9.838 0 001.99 3.183 9.102 9.102 0 002.983 2.121c1.14.51 2.365.763 3.677.763 1.1 0 2.148-.183 3.143-.55a9.704 9.704 0 002.802-1.622 1.315 1.315 0 00.388-.924c0-.367-.097-.653-.291-.863a1.087 1.087 0 00-.715-.35c-.283-.025-.57.07-.862.288a8.979 8.979 0 01-2.123 1.21 6.308 6.308 0 01-2.342.437 6.304 6.304 0 01-2.692-.588 6.977 6.977 0 01-2.22-1.636 7.625 7.625 0 01-1.494-2.433 8.227 8.227 0 01-.534-2.984c0-1.048.178-2.035.534-2.959a7.642 7.642 0 011.493-2.43zM20.65.25a1.23 1.23 0 00-.898.362c-.244.243-.364.552-.364.935v16.904c0 .366.12.673.364.924.243.248.542.375.898.375.372 0 .676-.124.909-.375.235-.25.35-.558.35-.924V1.547c0-.383-.117-.695-.35-.935-.233-.24-.537-.361-.91-.361zM38.629.25h-12.98c-.34 0-.617.114-.838.338-.217.223-.327.512-.327.862s.11.636.327.863c.218.223.498.336.838.336h5.241v15.804c0 .367.12.674.364.925.243.248.542.374.898.374a1.2 1.2 0 00.898-.374c.244-.251.365-.558.365-.925V2.647h5.216c.34 0 .618-.113.838-.337.218-.224.328-.512.328-.863 0-.35-.11-.636-.328-.862-.22-.224-.5-.334-.84-.334zM57.988.563a.957.957 0 00-.728-.312c-.26 0-.477.054-.655.162a1.433 1.433 0 00-.461.46l-5.775 9.374L44.691.976a2.03 2.03 0 00-.46-.537c-.163-.123-.38-.185-.655-.185-.306 0-.579.097-.812.288a1.159 1.159 0 00-.424.75c-.05.306.031.635.243.986L49.06 12.64v5.819c0 .366.12.673.364.924.243.248.534.375.875.375a1.2 1.2 0 00.898-.375c.243-.25.364-.558.364-.924v-5.824l6.526-10.363c.194-.315.275-.628.244-.935a1.33 1.33 0 00-.343-.774zM70.826.25a1.23 1.23 0 00-.899.362c-.243.243-.364.552-.364.935v16.904c0 .366.12.673.364.924.244.248.542.375.899.375.372 0 .675-.124.908-.375.236-.25.351-.558.351-.924V1.547c0-.383-.118-.695-.35-.935-.234-.24-.537-.361-.91-.361zM89.938.25a1.23 1.23 0 00-.898.362c-.244.243-.364.552-.364.935v13.659L78.098.726C77.84.41 77.517.25 77.127.25c-.356 0-.652.121-.885.361-.236.243-.351.552-.351.935v16.904c0 .366.117.673.35.924.234.248.53.375.886.375.372 0 .675-.124.908-.375.234-.25.351-.558.351-.924V4.819l10.578 14.48c.113.149.262.262.448.337.186.076.359.114.521.114.372 0 .67-.124.898-.375.226-.25.34-.558.34-.924V1.547c0-.383-.112-.695-.34-.935-.22-.24-.52-.361-.893-.361z" fill="#fff"/><path fill-rule="evenodd" clip-rule="evenodd" d="M107.286 2.984a8.73 8.73 0 00-2.972-2.022c-1.14-.474-2.407-.711-3.798-.711h-4.392a1.23 1.23 0 00-.898.361c-.244.243-.364.552-.364.935v16.904c0 .366.12.673.364.924.243.248.542.375.898.375h4.392c1.391 0 2.656-.238 3.798-.712a8.751 8.751 0 002.972-2.021 9.038 9.038 0 001.941-3.097c.453-1.188.678-2.5.678-3.932 0-1.431-.225-2.738-.678-3.919a9.069 9.069 0 00-1.941-3.085zm-.704 10.86c-.6 1.125-1.42 2.006-2.462 2.647-1.043.642-2.245.962-3.604.962h-3.13V2.547h3.13c1.359 0 2.559.315 3.604.949a6.717 6.717 0 012.462 2.622c.597 1.116.898 2.404.898 3.87 0 1.447-.299 2.733-.898 3.857z" fill="#fff"/><path d="M125.516 2.647c.372 0 .671-.108.899-.327.225-.215.34-.498.34-.848 0-.367-.112-.663-.34-.887-.226-.224-.527-.337-.899-.337h-10.968a1.23 1.23 0 00-.898.361c-.243.243-.364.553-.364.935v16.904c0 .366.121.673.364.924.244.248.542.375.898.375h10.968c.372 0 .671-.113.899-.337.225-.224.34-.52.34-.887 0-.35-.112-.633-.34-.849-.226-.215-.527-.326-.899-.326h-9.705v-6.236h6.963c.372 0 .671-.114.899-.337.225-.224.34-.512.34-.863 0-.35-.112-.636-.34-.862-.226-.224-.527-.337-.899-.337h-6.963V2.647h9.705zM139.2 9.885l5.531-7.589c.194-.299.283-.606.267-.924a1.244 1.244 0 00-.314-.798c-.194-.216-.461-.326-.801-.326-.372 0-.671.124-.899.375l-5.437 7.443-5.214-7.44c-.178-.251-.476-.375-.898-.375-.341 0-.61.116-.812.35a1.451 1.451 0 00-.351.825c-.031.315.05.606.244.873l5.329 7.608-5.646 7.746a1.47 1.47 0 00-.291.886c0 .324.097.61.291.85.194.242.476.36.848.36.341 0 .631-.124.875-.374l5.57-7.627 5.278 7.527c.128.167.269.288.424.361.154.076.335.113.547.113.356 0 .634-.115.838-.35.202-.232.312-.515.328-.849a1.385 1.385 0 00-.268-.9L139.2 9.885z" fill="#fff"/></svg>