<svg width="151" height="53" viewBox="0 0 151 53" fill="none" xmlns="http://www.w3.org/2000/svg"><path d="M.28.9h3.36V10h.756V.9h3.36V.2H.28v.7zm10.731 2.002c-1.316 0-1.876.63-2.17 1.414L8.73 2.902h-.616V10h.714V6.402c0-1.442.378-2.814 2.044-2.814h.518v-.686h-.378zm7.38 6.44c-.42 0-.63-.14-.63-.686V5.352c0-1.624-.994-2.534-2.772-2.534-1.624 0-2.702.784-2.884 2.072h.714c.182-.868.938-1.442 2.142-1.442 1.33 0 2.086.7 2.086 1.876v.616h-2.408c-1.82 0-2.8.784-2.8 2.114 0 1.26.994 2.03 2.506 2.03 1.442 0 2.296-.658 2.73-1.54v.252c-.028.84.322 1.204 1.162 1.204h.42v-.658h-.266zM17.047 7.13c0 1.358-.966 2.338-2.646 2.338-1.134 0-1.834-.574-1.834-1.456 0-.938.7-1.456 2.016-1.456h2.464v.574zm8.251-2.632c-.434-1.008-1.386-1.68-2.716-1.68-1.946 0-3.346 1.484-3.346 3.626 0 2.24 1.4 3.64 3.346 3.64 1.33 0 2.254-.714 2.702-1.708L25.396 10h.616V.2h-.714v4.298zm-2.66 4.942c-1.582 0-2.674-1.232-2.674-2.996 0-1.75 1.092-2.996 2.674-2.996 1.582 0 2.674 1.246 2.674 3.01 0 1.75-1.092 2.982-2.674 2.982zm8.19.644c1.554 0 2.744-1.008 3.052-2.436h-.728c-.28 1.106-1.218 1.792-2.38 1.792-1.582 0-2.576-1.204-2.604-2.856v-.126h5.796c0-.098.014-.21.014-.294-.07-2.114-1.372-3.346-3.276-3.346-1.946 0-3.276 1.484-3.276 3.584 0 2.226 1.386 3.682 3.402 3.682zm-2.604-4.228c.112-1.442 1.19-2.408 2.492-2.408 1.386 0 2.38.854 2.492 2.408h-4.984zM38.602.9h3.36V10h.756V.9h3.36V.2h-7.476v.7zm10.478 9.184c1.553 0 2.744-1.008 3.052-2.436h-.728c-.28 1.106-1.219 1.792-2.38 1.792-1.583 0-2.577-1.204-2.605-2.856v-.126h5.797c0-.098.014-.21.014-.294-.07-2.114-1.372-3.346-3.276-3.346-1.947 0-3.276 1.484-3.276 3.584 0 2.226 1.386 3.682 3.402 3.682zm-2.605-4.228c.112-1.442 1.19-2.408 2.492-2.408 1.386 0 2.38.854 2.492 2.408h-4.984zm6.83 1.96c.056 1.47 1.246 2.268 3.024 2.268 1.526 0 2.758-.77 2.758-2.03 0-1.498-1.316-1.792-2.842-2.002-1.106-.154-2.086-.28-2.086-1.274 0-.812.798-1.344 2.002-1.344 1.134 0 1.946.546 2.072 1.47h.728c-.126-1.386-1.26-2.086-2.8-2.086-1.582-.014-2.716.798-2.716 2.016 0 1.428 1.316 1.694 2.772 1.89 1.19.168 2.156.322 2.156 1.372 0 .84-.882 1.372-2.044 1.372-1.358 0-2.24-.63-2.296-1.652h-.728zM60.45 10h.714V.2h-.714V10zm8.637-.658c-.42 0-.63-.14-.63-.686V5.352c0-1.624-.994-2.534-2.772-2.534-1.624 0-2.702.784-2.884 2.072h.714c.182-.868.938-1.442 2.142-1.442 1.33 0 2.086.7 2.086 1.876v.616h-2.408c-1.82 0-2.8.784-2.8 2.114 0 1.26.994 2.03 2.506 2.03 1.442 0 2.296-.658 2.73-1.54v.252c-.028.84.322 1.204 1.162 1.204h.42v-.658h-.266zM67.742 7.13c0 1.358-.966 2.338-2.646 2.338-1.134 0-1.834-.574-1.834-1.456 0-.938.7-1.456 2.016-1.456h2.464v.574zm6.87 1.218c0 1.134.462 1.652 1.666 1.652h1.036v-.658h-.98c-.742 0-1.008-.28-1.008-1.008V3.56h1.918v-.658h-1.918V.914h-.714v1.988h-1.344v.658h1.344v4.788zm7.065-5.53c-1.33 0-2.157.742-2.563 1.764V.2H78.4V10h.715V6.5c0-1.848.938-3.024 2.45-3.024 1.358 0 2.198.896 2.198 2.576V10h.713V6.024c0-2.24-1.19-3.206-2.8-3.206zm4.757-1.414c.28 0 .505-.21.505-.504a.493.493 0 00-.504-.504c-.28 0-.505.21-.505.504 0 .294.224.504.504.504zM86.07 10h.715V2.902h-.715V10zm2.071-2.184c.056 1.47 1.246 2.268 3.024 2.268 1.526 0 2.758-.77 2.758-2.03 0-1.498-1.316-1.792-2.842-2.002-1.106-.154-2.086-.28-2.086-1.274 0-.812.798-1.344 2.002-1.344 1.134 0 1.946.546 2.072 1.47h.728c-.126-1.386-1.26-2.086-2.8-2.086-1.582-.014-2.716.798-2.716 2.016 0 1.428 1.316 1.694 2.772 1.89 1.19.168 2.156.322 2.156 1.372 0 .84-.882 1.372-2.044 1.372-1.358 0-2.24-.63-2.296-1.652h-.728zm14.054 2.268c1.554 0 2.744-1.008 3.052-2.436h-.728c-.28 1.106-1.218 1.792-2.38 1.792-1.582 0-2.576-1.204-2.604-2.856v-.126h5.796c0-.098.014-.21.014-.294-.07-2.114-1.372-3.346-3.276-3.346-1.946 0-3.276 1.484-3.276 3.584 0 2.226 1.386 3.682 3.402 3.682zm-2.604-4.228c.112-1.442 1.19-2.408 2.492-2.408 1.386 0 2.38.854 2.492 2.408h-4.984zM113 9.342c-.42 0-.63-.14-.63-.686V5.352c0-1.624-.994-2.534-2.772-2.534-1.624 0-2.702.784-2.884 2.072h.714c.182-.868.938-1.442 2.142-1.442 1.33 0 2.086.7 2.086 1.876v.616h-2.408c-1.82 0-2.8.784-2.8 2.114 0 1.26.994 2.03 2.506 2.03 1.442 0 2.296-.658 2.73-1.54v.252c-.028.84.322 1.204 1.162 1.204h.42v-.658H113zm-1.344-2.212c0 1.358-.966 2.338-2.646 2.338-1.134 0-1.834-.574-1.834-1.456 0-.938.7-1.456 2.016-1.456h2.464v.574zm5.463-4.228c-1.316 0-1.876.63-2.17 1.414l-.112-1.414h-.616V10h.714V6.402c0-1.442.378-2.814 2.044-2.814h.518v-.686h-.378zm4.712-.084c-1.302 0-2.142.672-2.548 1.596l-.112-1.512h-.616V10h.714V6.5c0-1.848.938-3.024 2.45-3.024 1.372 0 2.198.896 2.198 2.576V10h.714V6.024c0-2.24-1.19-3.206-2.8-3.206zm4.744-1.414c.28 0 .504-.21.504-.504a.493.493 0 00-.504-.504c-.28 0-.504.21-.504.504 0 .294.224.504.504.504zM126.211 10h.714V2.902h-.714V10zm5.669-7.182c-1.302 0-2.142.672-2.548 1.596l-.112-1.512h-.616V10h.714V6.5c0-1.848.938-3.024 2.45-3.024 1.372 0 2.198.896 2.198 2.576V10h.714V6.024c0-2.24-1.19-3.206-2.8-3.206zm10.162 1.736c-.434-1.05-1.386-1.736-2.702-1.736-1.946 0-3.346 1.47-3.346 3.626 0 2.24 1.4 3.64 3.346 3.64 1.33 0 2.268-.7 2.716-1.806v1.26c0 1.89-.896 2.702-2.604 2.702-1.33 0-2.254-.602-2.478-1.68h-.742c.224 1.512 1.442 2.324 3.164 2.324 2.296 0 3.374-1.092 3.374-3.318V2.902h-.616l-.112 1.652zm-2.646 4.886c-1.582 0-2.674-1.232-2.674-2.996s1.092-2.996 2.674-2.996c1.582 0 2.674 1.232 2.674 3.01 0 1.75-1.092 2.982-2.674 2.982zm4.731-1.624c.056 1.47 1.246 2.268 3.024 2.268 1.526 0 2.758-.77 2.758-2.03 0-1.498-1.316-1.792-2.842-2.002-1.106-.154-2.086-.28-2.086-1.274 0-.812.798-1.344 2.002-1.344 1.134 0 1.946.546 2.072 1.47h.728c-.126-1.386-1.26-2.086-2.8-2.086-1.582-.014-2.716.798-2.716 2.016 0 1.428 1.316 1.694 2.772 1.89 1.19.168 2.156.322 2.156 1.372 0 .84-.882 1.372-2.044 1.372-1.358 0-2.24-.63-2.296-1.652h-.728zm-143.609 20c.056 1.47 1.246 2.268 3.024 2.268 1.526 0 2.758-.77 2.758-2.03 0-1.498-1.316-1.792-2.842-2.002-1.106-.154-2.086-.28-2.086-1.274 0-.812.798-1.344 2.002-1.344 1.134 0 1.946.546 2.072 1.47h.728c-.126-1.386-1.26-2.086-2.8-2.086-1.582-.014-2.716.798-2.716 2.016 0 1.428 1.316 1.694 2.772 1.89 1.19.168 2.156.322 2.156 1.372 0 .84-.882 1.372-2.044 1.372-1.358 0-2.24-.63-2.296-1.652H.518zm10.28 2.268c1.554 0 2.744-1.008 3.052-2.436h-.728c-.28 1.106-1.218 1.792-2.38 1.792-1.582 0-2.576-1.204-2.604-2.856v-.126h5.796c0-.098.014-.21.014-.294-.07-2.114-1.372-3.346-3.276-3.346-1.946 0-3.276 1.484-3.276 3.584 0 2.226 1.386 3.682 3.402 3.682zm-2.604-4.228c.112-1.442 1.19-2.408 2.492-2.408 1.386 0 2.38.854 2.492 2.408H8.194zm13.41 3.486c-.42 0-.63-.14-.63-.686v-3.304c0-1.624-.994-2.534-2.773-2.534-1.623 0-2.702.784-2.883 2.072h.714c.181-.868.938-1.442 2.142-1.442 1.33 0 2.085.7 2.085 1.876v.616h-2.407c-1.82 0-2.8.784-2.8 2.114 0 1.26.994 2.03 2.506 2.03 1.442 0 2.296-.658 2.73-1.54v.252c-.029.84.322 1.204 1.162 1.204h.42v-.658h-.267zm-1.345-2.212c0 1.358-.965 2.338-2.646 2.338-1.133 0-1.833-.574-1.833-1.456 0-.938.7-1.456 2.016-1.456h2.463v.574zm2.243.686c.056 1.47 1.246 2.268 3.024 2.268 1.526 0 2.758-.77 2.758-2.03 0-1.498-1.316-1.792-2.842-2.002-1.106-.154-2.086-.28-2.086-1.274 0-.812.798-1.344 2.002-1.344 1.134 0 1.946.546 2.072 1.47h.728c-.126-1.386-1.26-2.086-2.8-2.086-1.582-.014-2.716.798-2.716 2.016 0 1.428 1.316 1.694 2.772 1.89 1.19.168 2.156.322 2.156 1.372 0 .84-.882 1.372-2.044 1.372-1.358 0-2.24-.63-2.296-1.652h-.728zm10.28 2.268c2.003 0 3.417-1.484 3.417-3.64 0-2.142-1.414-3.626-3.416-3.626s-3.402 1.484-3.402 3.626c0 2.156 1.4 3.64 3.402 3.64zm0-.644c-1.581 0-2.673-1.232-2.673-2.996 0-1.75 1.092-2.996 2.674-2.996 1.582 0 2.674 1.246 2.674 2.996 0 1.764-1.092 2.996-2.674 2.996zm8.111-6.622c-1.302 0-2.142.672-2.548 1.596l-.112-1.512h-.616V30h.714v-3.5c0-1.848.938-3.024 2.45-3.024 1.372 0 2.198.896 2.198 2.576V30h.714v-3.976c0-2.24-1.19-3.206-2.8-3.206zm4.675 6.202c-.378 0-.616.238-.616.546 0 .336.224.504.49.504.14 0 .28-.056.35-.168a.505.505 0 01.126.364c0 .532-.336 1.078-1.05 1.106v.42c.966-.042 1.568-.686 1.568-1.61 0-.644-.364-1.162-.868-1.162zm7.771.98h.77l2.1-5.964L58.211 30h.77l2.52-7.098h-.728l-2.184 6.244-2.03-6.244h-.658l-2.142 6.244-2.072-6.244h-.756L53.34 30zm9.525-8.596c.28 0 .504-.21.504-.504a.493.493 0 00-.504-.504c-.28 0-.504.21-.504.504 0 .294.224.504.504.504zM62.5 30h.714v-7.098H62.5V30zm2.925-1.652c0 1.134.462 1.652 1.666 1.652h1.036v-.658h-.98c-.742 0-1.008-.28-1.008-1.008V23.56h1.918v-.658h-1.918v-1.988h-.714v1.988H64.08v.658h1.344v4.788zm7.064-5.53c-1.33 0-2.156.742-2.562 1.764V20.2h-.714V30h.714v-3.5c0-1.848.938-3.024 2.45-3.024 1.358 0 2.198.896 2.198 2.576V30h.714v-3.976c0-2.24-1.19-3.206-2.8-3.206zm11.443 0c-1.302 0-2.142.672-2.548 1.596l-.112-1.512h-.616V30h.714v-3.5c0-1.848.938-3.024 2.45-3.024 1.372 0 2.198.896 2.198 2.576V30h.714v-3.976c0-2.24-1.19-3.206-2.8-3.206zm7.407 7.266c1.554 0 2.744-1.008 3.052-2.436h-.728c-.28 1.106-1.218 1.792-2.38 1.792-1.582 0-2.576-1.204-2.604-2.856v-.126h5.796c0-.098.014-.21.014-.294-.07-2.114-1.372-3.346-3.276-3.346-1.946 0-3.276 1.484-3.276 3.584 0 2.226 1.386 3.682 3.402 3.682zm-2.604-4.228c.112-1.442 1.19-2.408 2.492-2.408 1.386 0 2.38.854 2.492 2.408h-4.984zM97.404 30h.77l2.1-5.964L102.276 30h.77l2.52-7.098h-.728l-2.184 6.244-2.03-6.244h-.658l-2.142 6.244-2.072-6.244h-.756L97.404 30zM4.242 50.084c1.918 0 3.164-1.12 3.388-2.52H5.684c-.168.672-.728 1.022-1.526 1.022-.994 0-1.652-.616-1.694-1.638v-.098h5.222c.042-.224.056-.462.056-.672-.028-2.114-1.484-3.458-3.64-3.458-2.226 0-3.696 1.456-3.696 3.696 0 2.226 1.442 3.668 3.836 3.668zm-1.736-4.522c.112-.854.756-1.372 1.61-1.372.896 0 1.498.49 1.638 1.372H2.506zM7.724 50h2.114l1.638-2.254L13.128 50h2.254l-2.674-3.668 2.534-3.528h-2.128l-1.526 2.128-1.484-2.128H7.85l2.548 3.528L7.724 50zm8.93-2.058c0 1.372.685 2.058 2.057 2.058h1.61v-1.666h-.98c-.518 0-.714-.21-.714-.714v-3.15h1.652v-1.666h-1.652v-2.016h-1.974v2.016h-1.19v1.666h1.19v3.472zm8.027 2.142c1.918 0 3.165-1.12 3.389-2.52h-1.947c-.168.672-.728 1.022-1.526 1.022-.994 0-1.652-.616-1.694-1.638v-.098h5.223c.041-.224.055-.462.055-.672-.027-2.114-1.483-3.458-3.64-3.458-2.226 0-3.695 1.456-3.695 3.696 0 2.226 1.442 3.668 3.835 3.668zm-1.736-4.522c.113-.854.756-1.372 1.61-1.372.896 0 1.498.49 1.639 1.372h-3.248zM33.39 42.72c-1.106 0-1.764.42-2.226.98l-.182-.896H29.26V50h1.974v-3.682c0-1.246.588-1.974 1.61-1.974.994 0 1.456.644 1.456 1.862V50h1.974v-3.99c0-2.464-1.33-3.29-2.884-3.29zm9.323.98c-.462-.588-1.176-.98-2.17-.98-1.918 0-3.332 1.442-3.332 3.668 0 2.282 1.414 3.696 3.346 3.696 1.036 0 1.736-.462 2.212-1.078l.196.994h1.722v-9.8h-1.974v3.5zm-1.722 4.774c-1.078 0-1.764-.84-1.764-2.072 0-1.232.686-2.072 1.764-2.072 1.078 0 1.75.854 1.75 2.086 0 1.218-.672 2.058-1.75 2.058zm8.628 1.61c1.918 0 3.164-1.12 3.388-2.52h-1.946c-.168.672-.728 1.022-1.526 1.022-.994 0-1.652-.616-1.694-1.638v-.098h5.222c.042-.224.056-.462.056-.672-.028-2.114-1.484-3.458-3.64-3.458-2.226 0-3.696 1.456-3.696 3.696 0 2.226 1.442 3.668 3.836 3.668zm-1.736-4.522c.112-.854.756-1.372 1.61-1.372.896 0 1.498.49 1.638 1.372h-3.248zM59.42 43.7c-.462-.588-1.176-.98-2.17-.98-1.918 0-3.332 1.442-3.332 3.668 0 2.282 1.414 3.696 3.346 3.696 1.036 0 1.736-.462 2.212-1.078l.196.994h1.722v-9.8H59.42v3.5zm-1.722 4.774c-1.078 0-1.764-.84-1.764-2.072 0-1.232.686-2.072 1.764-2.072 1.078 0 1.75.854 1.75 2.086 0 1.218-.672 2.058-1.75 2.058zm12.647-5.754c-1.022 0-1.666.406-2.128.966V40.2h-1.974V50h1.974v-3.696c0-1.232.602-1.96 1.61-1.96.98 0 1.456.658 1.456 1.834V50h1.974v-3.99c0-2.436-1.316-3.29-2.912-3.29zm7.642 7.364c2.296 0 3.794-1.456 3.794-3.682 0-2.212-1.498-3.682-3.794-3.682-2.296 0-3.794 1.47-3.794 3.682 0 2.212 1.498 3.682 3.794 3.682zm0-1.61c-1.106 0-1.778-.854-1.778-2.072s.672-2.072 1.778-2.072c1.106 0 1.792.854 1.792 2.072s-.686 2.072-1.792 2.072zm9.683-2.072c0 1.33-.574 2.044-1.554 2.044-.98 0-1.4-.63-1.4-1.918v-3.724h-1.974v3.99c0 2.548 1.372 3.29 2.856 3.29 1.022 0 1.652-.392 2.114-.952l.182.868h1.75v-7.196H87.67v3.598zm7.392-3.598c-1.12 0-1.68.434-2.072 1.078l-.182-1.078h-1.792V50h1.974v-3.528c0-1.092.448-1.876 1.624-1.876h.784v-1.792h-.336zm.786 4.802c.084 1.54 1.442 2.478 3.444 2.478 1.932 0 3.276-.91 3.276-2.338 0-1.624-1.372-2.002-3.024-2.17-1.036-.126-1.652-.182-1.652-.728 0-.462.504-.742 1.274-.742.798 0 1.344.35 1.4.924h1.89c-.098-1.47-1.428-2.324-3.36-2.324-1.848-.014-3.094.924-3.094 2.352 0 1.484 1.302 1.862 2.982 2.058 1.162.154 1.652.196 1.652.784 0 .504-.504.77-1.33.77-.966 0-1.512-.434-1.582-1.064h-1.876zm12.219.742c0 1.134.462 1.652 1.666 1.652h1.036v-.658h-.98c-.742 0-1.008-.28-1.008-1.008V43.56h1.918v-.658h-1.918v-1.988h-.714v1.988h-1.344v.658h1.344v4.788zm6.687-5.446c-1.316 0-1.876.63-2.17 1.414l-.112-1.414h-.616V50h.714v-3.598c0-1.442.378-2.814 2.044-2.814h.518v-.686h-.378zm7.379 6.44c-.42 0-.63-.14-.63-.686v-3.304c0-1.624-.994-2.534-2.772-2.534-1.624 0-2.702.784-2.884 2.072h.714c.182-.868.938-1.442 2.142-1.442 1.33 0 2.086.7 2.086 1.876v.616h-2.408c-1.82 0-2.8.784-2.8 2.114 0 1.26.994 2.03 2.506 2.03 1.442 0 2.296-.658 2.73-1.54v.252c-.028.84.322 1.204 1.162 1.204h.42v-.658h-.266zm-1.344-2.212c0 1.358-.966 2.338-2.646 2.338-1.134 0-1.834-.574-1.834-1.456 0-.938.7-1.456 2.016-1.456h2.464v.574zm8.251-2.632c-.434-1.008-1.386-1.68-2.716-1.68-1.946 0-3.346 1.484-3.346 3.626 0 2.24 1.4 3.64 3.346 3.64 1.33 0 2.254-.714 2.702-1.708l.112 1.624h.616v-9.8h-.714v4.298zm-2.66 4.942c-1.582 0-2.674-1.232-2.674-2.996 0-1.75 1.092-2.996 2.674-2.996 1.582 0 2.674 1.246 2.674 3.01 0 1.75-1.092 2.982-2.674 2.982zm5.418-8.036c.28 0 .504-.21.504-.504a.493.493 0 00-.504-.504c-.28 0-.504.21-.504.504 0 .294.224.504.504.504zM131.434 50h.714v-7.098h-.714V50zm5.668-7.182c-1.302 0-2.142.672-2.548 1.596l-.112-1.512h-.616V50h.714v-3.5c0-1.848.938-3.024 2.45-3.024 1.372 0 2.198.896 2.198 2.576V50h.714v-3.976c0-2.24-1.19-3.206-2.8-3.206zm10.163 1.736c-.434-1.05-1.386-1.736-2.702-1.736-1.946 0-3.346 1.47-3.346 3.626 0 2.24 1.4 3.64 3.346 3.64 1.33 0 2.268-.7 2.716-1.806v1.26c0 1.89-.896 2.702-2.604 2.702-1.33 0-2.254-.602-2.478-1.68h-.742c.224 1.512 1.442 2.324 3.164 2.324 2.296 0 3.374-1.092 3.374-3.318v-6.664h-.616l-.112 1.652zm-2.646 4.886c-1.582 0-2.674-1.232-2.674-2.996s1.092-2.996 2.674-2.996c1.582 0 2.674 1.232 2.674 3.01 0 1.75-1.092 2.982-2.674 2.982zm4.969.098c0 .322.224.532.532.532.308 0 .532-.21.532-.532 0-.322-.224-.518-.532-.518-.308 0-.532.196-.532.518z" fill="#000"/></svg>