<svg width="160" height="36" viewBox="0 0 160 36" fill="none" xmlns="http://www.w3.org/2000/svg"><path fill="#fff" d="M0 0h160v36H0z"/><path d="M6.111 15l.814-2.079h3.355L11.094 15h1.023L9.191 7.3H8.058L5.121 15h.99zm2.486-6.655l1.397 3.707H7.211l1.386-3.707zM12.857 15h.901V7.3h-.902V15zm2.137 0h.902V7.3h-.902V15zm5.434-1.463c0 .99.386 1.463 1.463 1.463h.98v-.825h-.891c-.485 0-.65-.176-.65-.649v-3.311h1.453V9.39H21.33V7.817h-.901V9.39h-1.012v.825h1.011v3.322zm5.82-4.147c-1 0-1.43.418-1.694.847l-.12-.847h-.782V15h.902v-2.86c0-.891.32-1.87 1.496-1.87h.451v-.88h-.253zm5.803 4.785c-.253 0-.363-.077-.363-.374v-2.453c0-1.309-.825-2.024-2.255-2.024-1.353 0-2.244.649-2.376 1.749h.902c.11-.572.638-.946 1.43-.946.88 0 1.397.44 1.397 1.166v.385h-1.65c-1.474 0-2.255.627-2.255 1.749 0 1.023.836 1.639 2.068 1.639.968 0 1.529-.429 1.88-.935.012.55.265.869 1.013.869h.495v-.825h-.286zm-1.265-1.463c0 .935-.65 1.584-1.771 1.584-.748 0-1.221-.374-1.221-.924 0-.638.45-.935 1.254-.935h1.738v.275zm6.602-2.464c-.341-.539-.98-.924-1.925-.924-1.551 0-2.695 1.155-2.695 2.871 0 1.826 1.144 2.871 2.695 2.871.946 0 1.55-.451 1.925-.968l.12.902h.782V7.3h-.902v2.948zm-1.837 4.015c-1.111 0-1.86-.847-1.86-2.068s.749-2.068 1.86-2.068c1.1 0 1.848.858 1.848 2.09 0 1.199-.748 2.046-1.848 2.046zm4.43-5.819c.33 0 .582-.242.582-.583a.567.567 0 00-.583-.583.567.567 0 00-.583.583c0 .341.253.583.583.583zM39.517 15h.902V9.39h-.902V15zm4.888-5.676c-.946 0-1.518.396-1.848.825l-.121-.759h-.781V15h.902v-2.805c0-1.265.638-2.046 1.694-2.046.979 0 1.518.616 1.518 1.782V15h.902v-3.124c0-1.859-1.001-2.552-2.266-2.552zm7.838 1.034c-.352-.627-.979-1.034-1.925-1.034-1.55 0-2.695 1.155-2.695 2.871 0 1.826 1.144 2.871 2.695 2.871.946 0 1.551-.396 1.925-1.034v.66c0 1.221-.638 1.771-1.815 1.771-.935 0-1.562-.396-1.716-1.1h-.924c.143 1.232 1.144 1.903 2.574 1.903 1.925 0 2.783-.924 2.783-2.541V9.39h-.78l-.122.968zm-1.837 3.905c-1.11 0-1.859-.847-1.859-2.068s.748-2.068 1.86-2.068c1.1 0 1.847.858 1.847 2.09 0 1.199-.748 2.046-1.848 2.046zm9.366.803c1.364 0 2.277-.77 2.497-1.98h-.957c-.176.715-.726 1.177-1.53 1.177-1.077 0-1.803-.836-1.803-2.057s.726-2.079 1.804-2.079c.825 0 1.375.451 1.54 1.199h.946c-.231-1.232-1.1-2.002-2.475-2.002-1.628 0-2.74 1.166-2.74 2.882 0 1.749 1.079 2.86 2.718 2.86zm8.447-.891c-.253 0-.363-.077-.363-.374v-2.453c0-1.309-.825-2.024-2.255-2.024-1.353 0-2.244.649-2.376 1.749h.902c.11-.572.638-.946 1.43-.946.88 0 1.397.44 1.397 1.166v.385h-1.65c-1.474 0-2.255.627-2.255 1.749 0 1.023.836 1.639 2.068 1.639.968 0 1.529-.429 1.88-.935.012.55.265.869 1.013.869h.495v-.825h-.286zm-1.265-1.463c0 .935-.65 1.584-1.771 1.584-.748 0-1.221-.374-1.221-.924 0-.638.45-.935 1.254-.935h1.738v.275zm4.84-3.322c-1.001 0-1.43.418-1.694.847l-.121-.847h-.781V15h.902v-2.86c0-.891.319-1.87 1.496-1.87h.451v-.88h-.253zm3.63 0c-1 0-1.43.418-1.693.847l-.121-.847h-.781V15h.902v-2.86c0-.891.319-1.87 1.496-1.87h.45v-.88h-.252zm1.498-.946c.33 0 .583-.242.583-.583a.567.567 0 00-.583-.583.567.567 0 00-.583.583c0 .341.253.583.583.583zM76.46 15h.902V9.39h-.902V15zm4.722.066c1.298 0 2.222-.825 2.442-1.947h-.913c-.187.726-.803 1.144-1.595 1.144-1.067 0-1.738-.748-1.77-1.815v-.077h4.355c.011-.132.022-.264.022-.385-.044-1.661-1.078-2.662-2.662-2.662-1.584 0-2.662 1.166-2.662 2.871 0 1.716 1.1 2.871 2.783 2.871zm-1.782-3.443c.088-.913.847-1.507 1.672-1.507.935 0 1.595.539 1.683 1.507h-3.355zm5.1 1.529c.022 1.232 1.023 1.914 2.475 1.914 1.243 0 2.244-.649 2.244-1.694 0-1.243-1.023-1.485-2.299-1.639-.814-.099-1.408-.176-1.408-.792 0-.517.528-.847 1.31-.847.77 0 1.297.429 1.363 1.001h.924c-.088-1.166-1.012-1.76-2.288-1.771-1.265-.011-2.2.66-2.2 1.683 0 1.166 1.001 1.419 2.255 1.573.836.099 1.452.154 1.452.858 0 .517-.56.858-1.353.858-.935 0-1.518-.484-1.55-1.144H84.5zM95.696 9.39c-1 0-1.43.418-1.694.847l-.12-.847H93.1V15h.902v-2.86c0-.891.32-1.87 1.496-1.87h.451v-.88h-.253zm1.497-.946c.33 0 .583-.242.583-.583a.567.567 0 00-.583-.583.567.567 0 00-.583.583c0 .341.253.583.583.583zM96.731 15h.902V9.39h-.902V15zm1.907-1.848c.022 1.232 1.023 1.914 2.475 1.914 1.243 0 2.244-.649 2.244-1.694 0-1.243-1.023-1.485-2.299-1.639-.814-.099-1.408-.176-1.408-.792 0-.517.528-.847 1.309-.847.77 0 1.298.429 1.364 1.001h.924c-.088-1.166-1.012-1.76-2.288-1.771-1.265-.011-2.2.66-2.2 1.683 0 1.166 1 1.419 2.255 1.573.836.099 1.452.154 1.452.858 0 .517-.561.858-1.353.858-.935 0-1.518-.484-1.551-1.144h-.924zm5.72 1.848h.902v-1.474l1.133-1.166 1.859 2.64h1.089l-2.343-3.289 2.189-2.321h-1.111l-2.816 2.981V7.3h-.902V15zm5.508-.55c0 .374.264.616.627.616s.627-.242.627-.616-.264-.616-.627-.616-.627.242-.627.616zm9.854.55v-.88h-3.509V7.3h-.957V15h4.466zm3.122.066c1.639 0 2.783-1.166 2.783-2.871s-1.144-2.871-2.783-2.871-2.783 1.166-2.783 2.871 1.144 2.871 2.783 2.871zm0-.803c-1.111 0-1.859-.869-1.859-2.068s.748-2.068 1.859-2.068 1.859.869 1.859 2.068-.748 2.068-1.859 2.068zm3.564-1.111c.022 1.232 1.023 1.914 2.475 1.914 1.243 0 2.244-.649 2.244-1.694 0-1.243-1.023-1.485-2.299-1.639-.814-.099-1.408-.176-1.408-.792 0-.517.528-.847 1.309-.847.77 0 1.298.429 1.364 1.001h.924c-.088-1.166-1.012-1.76-2.288-1.771-1.265-.011-2.2.66-2.2 1.683 0 1.166 1.001 1.419 2.255 1.573.836.099 1.452.154 1.452.858 0 .517-.561.858-1.353.858-.935 0-1.518-.484-1.551-1.144h-.924zm5.382 0c.022 1.232 1.023 1.914 2.475 1.914 1.243 0 2.244-.649 2.244-1.694 0-1.243-1.023-1.485-2.299-1.639-.814-.099-1.408-.176-1.408-.792 0-.517.528-.847 1.309-.847.77 0 1.298.429 1.364 1.001h.924c-.088-1.166-1.012-1.76-2.288-1.771-1.265-.011-2.2.66-2.2 1.683 0 1.166 1.001 1.419 2.255 1.573.836.099 1.452.154 1.452.858 0 .517-.561.858-1.353.858-.935 0-1.518-.484-1.551-1.144h-.924zm8.306 1.914c1.298 0 2.222-.825 2.442-1.947h-.913c-.187.726-.803 1.144-1.595 1.144-1.067 0-1.738-.748-1.771-1.815v-.077h4.356c.011-.132.022-.264.022-.385-.044-1.661-1.078-2.662-2.662-2.662-1.584 0-2.662 1.166-2.662 2.871 0 1.716 1.1 2.871 2.783 2.871zm-1.782-3.443c.088-.913.847-1.507 1.672-1.507.935 0 1.595.539 1.683 1.507h-3.355zm5.099 1.529c.022 1.232 1.023 1.914 2.475 1.914 1.243 0 2.244-.649 2.244-1.694 0-1.243-1.023-1.485-2.299-1.639-.814-.099-1.408-.176-1.408-.792 0-.517.528-.847 1.309-.847.77 0 1.298.429 1.364 1.001h.924c-.088-1.166-1.012-1.76-2.288-1.771-1.265-.011-2.2.66-2.2 1.683 0 1.166 1.001 1.419 2.255 1.573.836.099 1.452.154 1.452.858 0 .517-.561.858-1.353.858-.935 0-1.518-.484-1.551-1.144h-.924zM8.135 28.066c1.364 0 2.277-.77 2.497-1.98h-.957c-.176.715-.726 1.177-1.529 1.177-1.078 0-1.804-.836-1.804-2.057s.726-2.079 1.804-2.079c.825 0 1.375.451 1.54 1.199h.946c-.231-1.232-1.1-2.002-2.475-2.002-1.628 0-2.739 1.166-2.739 2.882 0 1.749 1.078 2.86 2.717 2.86zm8.447-.891c-.253 0-.363-.077-.363-.374v-2.453c0-1.309-.825-2.024-2.255-2.024-1.353 0-2.244.649-2.376 1.749h.902c.11-.572.638-.946 1.43-.946.88 0 1.397.44 1.397 1.166v.385h-1.65c-1.474 0-2.255.627-2.255 1.749 0 1.023.836 1.639 2.068 1.639.968 0 1.529-.429 1.88-.935.012.55.265.869 1.013.869h.495v-.825h-.286zm-1.265-1.463c0 .935-.65 1.584-1.771 1.584-.748 0-1.221-.374-1.221-.924 0-.638.45-.935 1.254-.935h1.738v.275zm4.994-3.388c-.946 0-1.518.396-1.848.825l-.12-.759h-.782V28h.902v-2.805c0-1.265.638-2.046 1.694-2.046.98 0 1.518.616 1.518 1.782V28h.902v-3.124c0-1.859-1-2.552-2.266-2.552zm8.88 5.742c1.298 0 2.222-.825 2.442-1.947h-.913c-.187.726-.803 1.144-1.595 1.144-1.067 0-1.738-.748-1.77-1.815v-.077h4.355c.011-.132.022-.264.022-.385-.044-1.661-1.078-2.662-2.662-2.662-1.584 0-2.662 1.166-2.662 2.871 0 1.716 1.1 2.871 2.783 2.871zm-1.782-3.443c.088-.913.847-1.507 1.672-1.507.935 0 1.595.539 1.683 1.507H27.41zM31.931 28h1.023l1.64-2.255L36.231 28h1.078l-2.145-2.882 2.002-2.728h-1.023l-1.507 2.079-1.485-2.079h-1.078l1.991 2.728L31.931 28zm8.302.066c1.364 0 2.277-.77 2.497-1.98h-.957c-.176.715-.726 1.177-1.53 1.177-1.077 0-1.803-.836-1.803-2.057s.726-2.079 1.804-2.079c.825 0 1.375.451 1.54 1.199h.946c-.231-1.232-1.1-2.002-2.475-2.002-1.628 0-2.74 1.166-2.74 2.882 0 1.749 1.079 2.86 2.718 2.86zm6.07 0c1.299 0 2.223-.825 2.443-1.947h-.913c-.188.726-.803 1.144-1.596 1.144-1.067 0-1.738-.748-1.77-1.815v-.077h4.355c.011-.132.022-.264.022-.385-.044-1.661-1.078-2.662-2.662-2.662-1.584 0-2.662 1.166-2.662 2.871 0 1.716 1.1 2.871 2.783 2.871zm-1.781-3.443c.087-.913.846-1.507 1.672-1.507.934 0 1.594.539 1.682 1.507h-3.354zm7.937 3.443c1.298 0 2.222-.825 2.442-1.947h-.913c-.187.726-.803 1.144-1.595 1.144-1.067 0-1.738-.748-1.771-1.815v-.077h4.356c.01-.132.022-.264.022-.385-.044-1.661-1.078-2.662-2.662-2.662-1.584 0-2.662 1.166-2.662 2.871 0 1.716 1.1 2.871 2.783 2.871zm-1.782-3.443c.088-.913.847-1.507 1.672-1.507.935 0 1.595.539 1.683 1.507h-3.355zm9.774-1.375c-.34-.539-.979-.924-1.925-.924-1.55 0-2.695 1.155-2.695 2.871 0 1.826 1.144 2.871 2.695 2.871.946 0 1.551-.451 1.925-.968l.121.902h.781v-7.7h-.902v2.948zm-1.837 4.015c-1.11 0-1.859-.847-1.859-2.068s.748-2.068 1.86-2.068c1.1 0 1.847.858 1.847 2.09 0 1.199-.748 2.046-1.848 2.046zm11.269-4.015c-.341-.539-.98-.924-1.925-.924-1.551 0-2.695 1.155-2.695 2.871 0 1.826 1.144 2.871 2.695 2.871.946 0 1.55-.451 1.925-.968l.12.902h.782v-7.7h-.902v2.948zm-1.837 4.015c-1.111 0-1.86-.847-1.86-2.068s.749-2.068 1.86-2.068c1.1 0 1.848.858 1.848 2.09 0 1.199-.748 2.046-1.848 2.046zm6.552.803c1.299 0 2.222-.825 2.442-1.947h-.913c-.186.726-.802 1.144-1.594 1.144-1.067 0-1.739-.748-1.772-1.815v-.077h4.357c.01-.132.022-.264.022-.385-.044-1.661-1.079-2.662-2.662-2.662-1.584 0-2.662 1.166-2.662 2.871 0 1.716 1.1 2.871 2.782 2.871zm-1.781-3.443c.088-.913.847-1.507 1.672-1.507.934 0 1.594.539 1.682 1.507h-3.355zm8.179-2.299c-.946 0-1.551.451-1.925.968l-.121-.902h-.781v7.81h.902v-3.058c.34.539.979.924 1.925.924 1.55 0 2.695-1.155 2.695-2.871 0-1.826-1.144-2.871-2.695-2.871zm-.088 4.939c-1.1 0-1.848-.858-1.848-2.09 0-1.199.748-2.046 1.848-2.046 1.11 0 1.859.847 1.859 2.068s-.748 2.068-1.86 2.068zm6.398.803c1.64 0 2.784-1.166 2.784-2.871s-1.145-2.871-2.784-2.871c-1.638 0-2.782 1.166-2.782 2.871s1.144 2.871 2.782 2.871zm0-.803c-1.11 0-1.858-.869-1.858-2.068s.748-2.068 1.859-2.068c1.11 0 1.858.869 1.858 2.068s-.748 2.068-1.859 2.068zm3.565-1.111c.022 1.232 1.023 1.914 2.475 1.914 1.243 0 2.244-.649 2.244-1.694 0-1.243-1.023-1.485-2.299-1.639-.814-.099-1.408-.176-1.408-.792 0-.517.528-.847 1.31-.847.77 0 1.297.429 1.363 1.001h.924c-.088-1.166-1.012-1.76-2.288-1.771-1.265-.011-2.2.66-2.2 1.683 0 1.166 1.001 1.419 2.255 1.573.836.099 1.452.154 1.452.858 0 .517-.56.858-1.353.858-.935 0-1.518-.484-1.55-1.144h-.925zm6.183-4.708c.33 0 .583-.242.583-.583a.567.567 0 00-.583-.583.567.567 0 00-.583.583c0 .341.253.583.583.583zM96.592 28h.902v-5.61h-.902V28zm2.555-1.463c0 .99.385 1.463 1.463 1.463h.979v-.825h-.891c-.484 0-.649-.176-.649-.649v-3.311h1.452v-.825h-1.452v-1.573h-.902v1.573h-1.012v.825h1.012v3.322zm2.993-.385c.022 1.232 1.023 1.914 2.475 1.914 1.243 0 2.244-.649 2.244-1.694 0-1.243-1.023-1.485-2.299-1.639-.814-.099-1.408-.176-1.408-.792 0-.517.528-.847 1.309-.847.77 0 1.298.429 1.364 1.001h.924c-.088-1.166-1.012-1.76-2.288-1.771-1.265-.011-2.2.66-2.2 1.683 0 1.166 1.001 1.419 2.255 1.573.836.099 1.452.154 1.452.858 0 .517-.561.858-1.353.858-.935 0-1.518-.484-1.551-1.144h-.924zm5.524 1.298c0 .374.264.616.627.616s.627-.242.627-.616-.264-.616-.627-.616-.627.242-.627.616z" fill="#000"/></svg>