<svg width="298" height="22" viewBox="0 0 298 22" fill="none" xmlns="http://www.w3.org/2000/svg"><path d="M.536 17h2.76v-6.096h3.696L10.232 17h3.072l-3.552-6.696c1.968-.696 3.264-2.496 3.264-4.752C13.016 2.288 10.664.2 7.16.2H.536V17zM6.944 2.6c1.968 0 3.24 1.152 3.24 2.952s-1.272 2.952-3.24 2.952H3.296V2.6h3.648zm13.527 14.544c3.048 0 5.112-1.848 5.544-4.272h-2.592c-.36 1.368-1.512 2.16-3.096 2.16-2.04 0-3.36-1.368-3.432-3.456v-.168h9.264c.048-.336.072-.672.072-.984-.072-3.6-2.448-5.856-6-5.856-3.624 0-6.048 2.52-6.048 6.312 0 3.768 2.424 6.264 6.288 6.264zm-3.48-7.632c.192-1.752 1.608-2.856 3.264-2.856 1.8 0 3.072 1.032 3.288 2.856h-6.552zm22.568 5.232c-.528 0-.792-.168-.792-.792v-4.92c0-2.904-1.872-4.464-5.136-4.464-3.096 0-5.16 1.488-5.424 3.888h2.544c.192-1.08 1.224-1.8 2.76-1.8 1.704 0 2.688.84 2.688 2.208v.744h-3.096c-3.432 0-5.256 1.416-5.256 3.936 0 2.28 1.872 3.6 4.56 3.6 1.992 0 3.24-.864 4.056-2.112 0 1.224.576 1.968 2.256 1.968h1.368v-2.256h-.528zm-3.36-2.784c-.024 1.896-1.272 3.168-3.432 3.168-1.416 0-2.28-.72-2.28-1.752 0-1.248.888-1.848 2.496-1.848h3.216v.432zM50.74 6.416c-.792-1.08-2.112-1.848-3.984-1.848-3.336 0-5.808 2.496-5.808 6.288 0 3.936 2.472 6.288 5.808 6.288 1.944 0 3.216-.912 4.008-1.992L51.077 17h2.256V.2H50.74v6.216zm-3.552 8.544c-2.16 0-3.576-1.68-3.576-4.104 0-2.4 1.416-4.08 3.576-4.08s3.576 1.68 3.576 4.128c0 2.376-1.416 4.056-3.576 4.056zm12.229 2.112l-.48 1.2c-.384 1.008-.624 1.248-1.632 1.248h-1.824v2.28h2.784c1.8 0 2.328-.888 3.096-2.88L66.93 4.712h-2.76l-3.336 9.336-3.432-9.336h-2.76l4.776 12.36zm13.715-10.08h2.136V17h2.616V6.992h3.288v-2.28h-3.336V3.68c0-.84.36-1.2 1.2-1.2h2.136V.2h-2.472c-2.376 0-3.432 1.152-3.432 3.36v1.152h-2.136v2.28zm14.674 10.152c3.744 0 6.264-2.52 6.264-6.288 0-3.744-2.52-6.288-6.264-6.288s-6.264 2.544-6.264 6.288c0 3.768 2.52 6.288 6.264 6.288zm0-2.208c-2.184 0-3.6-1.704-3.6-4.08 0-2.376 1.416-4.08 3.6-4.08s3.624 1.704 3.624 4.08c0 2.376-1.44 4.08-3.624 4.08zM102.37 4.712c-2.016 0-3 .816-3.624 1.848l-.288-1.848h-2.304V17h2.592v-6.168c0-1.896.744-3.696 3.048-3.696h1.152V4.712h-.576zm9.203 8.952c0 2.232 1.008 3.336 3.36 3.336h2.4v-2.28h-1.824c-.984 0-1.32-.36-1.32-1.32V6.992h3v-2.28h-3V1.28h-2.616v3.432h-2.136v2.28h2.136v6.672zm13.865-9.096c-1.92 0-3.096.864-3.864 1.92V.2h-2.592V17h2.592v-6.216c0-2.472 1.248-3.984 3.288-3.984 1.92 0 2.952 1.248 2.952 3.576V17h2.592v-6.84c0-4.104-2.232-5.592-4.968-5.592zm13.063 12.576c3.048 0 5.112-1.848 5.544-4.272h-2.592c-.36 1.368-1.512 2.16-3.096 2.16-2.04 0-3.36-1.368-3.432-3.456v-.168h9.264c.048-.336.072-.672.072-.984-.072-3.6-2.448-5.856-6-5.856-3.624 0-6.048 2.52-6.048 6.312 0 3.768 2.424 6.264 6.288 6.264zm-3.48-7.632c.192-1.752 1.608-2.856 3.264-2.856 1.8 0 3.072 1.032 3.288 2.856h-6.552zm23.693-4.8c-2.016 0-3 .816-3.624 1.848l-.288-1.848h-2.304V17h2.592v-6.168c0-1.896.744-3.696 3.048-3.696h1.152V4.712h-.576zm7.42 12.432c3.048 0 5.112-1.848 5.544-4.272h-2.592c-.36 1.368-1.512 2.16-3.096 2.16-2.04 0-3.36-1.368-3.432-3.456v-.168h9.264c.048-.336.072-.672.072-.984-.072-3.6-2.448-5.856-6-5.856-3.624 0-6.048 2.52-6.048 6.312 0 3.768 2.424 6.264 6.288 6.264zm-3.48-7.632c.192-1.752 1.608-2.856 3.264-2.856 1.8 0 3.072 1.032 3.288 2.856h-6.552zm22.568 5.232c-.528 0-.792-.168-.792-.792v-4.92c0-2.904-1.872-4.464-5.136-4.464-3.096 0-5.16 1.488-5.424 3.888h2.544c.192-1.08 1.224-1.8 2.76-1.8 1.704 0 2.688.84 2.688 2.208v.744h-3.096c-3.432 0-5.256 1.416-5.256 3.936 0 2.28 1.872 3.6 4.56 3.6 1.992 0 3.24-.864 4.056-2.112 0 1.224.576 1.968 2.256 1.968h1.368v-2.256h-.528zm-3.36-2.784c-.024 1.896-1.272 3.168-3.432 3.168-1.416 0-2.28-.72-2.28-1.752 0-1.248.888-1.848 2.496-1.848h3.216v.432zm5.3 5.04h2.592V.2h-2.592V17zm25.409-12.432c-2.016 0-3.408.888-4.2 2.232-.744-1.584-2.184-2.232-3.792-2.232-1.848.024-2.904.84-3.6 1.752l-.288-1.608h-2.256V17h2.592v-6.576c0-2.184 1.104-3.624 2.88-3.624 1.704 0 2.592 1.128 2.592 3.288V17h2.616v-6.648c0-2.208 1.128-3.552 2.904-3.552 1.68 0 2.568 1.128 2.568 3.288V17h2.592V9.92c0-3.888-2.064-5.352-4.608-5.352zm18.19 10.176c-.528 0-.792-.168-.792-.792v-4.92c0-2.904-1.872-4.464-5.136-4.464-3.096 0-5.16 1.488-5.424 3.888h2.544c.192-1.08 1.224-1.8 2.76-1.8 1.704 0 2.688.84 2.688 2.208v.744h-3.096c-3.432 0-5.256 1.416-5.256 3.936 0 2.28 1.872 3.6 4.56 3.6 1.992 0 3.24-.864 4.056-2.112 0 1.224.576 1.968 2.256 1.968h1.368v-2.256h-.528zm-3.36-2.784c-.024 1.896-1.272 3.168-3.432 3.168-1.416 0-2.28-.72-2.28-1.752 0-1.248.888-1.848 2.496-1.848h3.216v.432zm11.516-7.248c-2.016 0-3 .816-3.624 1.848l-.288-1.848h-2.304V17h2.592v-6.168c0-1.896.744-3.696 3.048-3.696h1.152V4.712h-.576zM241.092 17h2.592v-3.12l2.208-2.304L249.516 17h3.072l-4.92-7.32 4.632-4.968h-3.048l-5.568 5.952V.2h-2.592V17zm17.809.144c3.048 0 5.112-1.848 5.544-4.272h-2.592c-.36 1.368-1.512 2.16-3.096 2.16-2.04 0-3.36-1.368-3.432-3.456v-.168h9.264c.048-.336.072-.672.072-.984-.072-3.6-2.448-5.856-6-5.856-3.624 0-6.048 2.52-6.048 6.312 0 3.768 2.424 6.264 6.288 6.264zm-3.48-7.632c.192-1.752 1.608-2.856 3.264-2.856 1.8 0 3.072 1.032 3.288 2.856h-6.552zm12.13 4.152c0 2.232 1.008 3.336 3.36 3.336h2.4v-2.28h-1.824c-.984 0-1.32-.36-1.32-1.32V6.992h3v-2.28h-3V1.28h-2.616v3.432h-2.136v2.28h2.136v6.672zm6.881-.72c.072 2.664 2.328 4.2 5.616 4.2 2.976 0 5.208-1.488 5.208-3.84 0-2.736-2.28-3.312-5.088-3.648-1.776-.192-2.953-.336-2.953-1.488 0-.984 1.009-1.608 2.545-1.608s2.592.792 2.736 1.92h2.544c-.168-2.52-2.304-3.912-5.328-3.912-2.952-.024-5.04 1.488-5.04 3.816 0 2.544 2.208 3.144 5.016 3.48 1.896.24 3.024.336 3.024 1.656 0 .984-1.056 1.608-2.664 1.608-1.872 0-2.976-.912-3.072-2.184h-2.544zm14.287-7.248c0-1.992 1.2-3.336 3.048-3.336 1.608 0 2.688.96 2.688 2.328 0 1.152-.624 1.92-1.704 2.64-1.44.936-2.568 1.728-2.568 3.672v.768h2.448v-.48c0-1.2.816-1.824 2.112-2.712 1.248-.888 2.4-1.944 2.4-4.152 0-2.52-2.064-4.368-5.4-4.368-3.576 0-5.664 2.52-5.664 5.64h2.64zm1.104 9.84c0 .96.72 1.608 1.656 1.608.936 0 1.632-.648 1.632-1.608 0-.96-.696-1.608-1.632-1.608-.936 0-1.656.648-1.656 1.608z" fill="#000"/></svg>