<svg width="285" height="22" viewBox="0 0 285 22" fill="none" xmlns="http://www.w3.org/2000/svg"><path d="M.472 17h2.645v-5.842h3.542L9.764 17h2.944l-3.404-6.417c1.886-.667 3.128-2.392 3.128-4.554C12.432 2.901 10.178.9 6.82.9H.472V17zM6.613 3.2c1.886 0 3.105 1.104 3.105 2.829S8.499 8.858 6.613 8.858H3.117V3.2h3.496zm12.964 13.938c2.92 0 4.899-1.771 5.313-4.094h-2.484c-.345 1.311-1.45 2.07-2.967 2.07-1.955 0-3.22-1.311-3.29-3.312v-.161h8.879c.046-.322.069-.644.069-.943-.07-3.45-2.346-5.612-5.75-5.612-3.473 0-5.796 2.415-5.796 6.049 0 3.611 2.323 6.003 6.026 6.003zm-3.335-7.314c.184-1.679 1.54-2.737 3.128-2.737 1.725 0 2.944.989 3.15 2.737h-6.278zm21.627 5.014c-.506 0-.76-.161-.76-.759V9.364c0-2.783-1.793-4.278-4.921-4.278-2.967 0-4.945 1.426-5.198 3.726h2.438c.184-1.035 1.173-1.725 2.645-1.725 1.633 0 2.576.805 2.576 2.116v.713h-2.967c-3.29 0-5.037 1.357-5.037 3.772 0 2.185 1.794 3.45 4.37 3.45 1.909 0 3.105-.828 3.887-2.024 0 1.173.552 1.886 2.162 1.886h1.31v-2.162h-.505zm-3.22-2.668c-.023 1.817-1.22 3.036-3.29 3.036-1.356 0-2.184-.69-2.184-1.679 0-1.196.85-1.771 2.392-1.771h3.082v.414zm13.936-5.313c-.76-1.035-2.024-1.771-3.818-1.771-3.197 0-5.566 2.392-5.566 6.026 0 3.772 2.369 6.026 5.566 6.026 1.863 0 3.082-.874 3.84-1.909l.3 1.771h2.162V.9h-2.484v5.957zm-3.404 8.188c-2.07 0-3.427-1.61-3.427-3.933 0-2.3 1.357-3.91 3.427-3.91 2.07 0 3.427 1.61 3.427 3.956 0 2.277-1.357 3.887-3.427 3.887zm11.72 2.024l-.46 1.15c-.369.966-.599 1.196-1.565 1.196h-1.748V21.6h2.668c1.725 0 2.231-.851 2.967-2.76L64.1 5.224h-2.645l-3.197 8.947-3.289-8.947h-2.645L56.9 17.069zm13.143-9.66h2.047V17H74.6V7.409h3.15V5.224h-3.197v-.989c0-.805.345-1.15 1.15-1.15h2.047V.9h-2.368c-2.278 0-3.29 1.104-3.29 3.22v1.104h-2.046v2.185zm14.062 9.729c3.588 0 6.003-2.415 6.003-6.026 0-3.588-2.415-6.026-6.003-6.026s-6.003 2.438-6.003 6.026c0 3.611 2.415 6.026 6.003 6.026zm0-2.116c-2.093 0-3.45-1.633-3.45-3.91s1.357-3.91 3.45-3.91 3.473 1.633 3.473 3.91-1.38 3.91-3.473 3.91zm13.958-9.798c-1.932 0-2.875.782-3.473 1.771l-.276-1.771h-2.208V17h2.484v-5.911c0-1.817.713-3.542 2.92-3.542h1.105V5.224h-.552zm8.819 8.579c0 2.139.966 3.197 3.22 3.197h2.3v-2.185h-1.748c-.943 0-1.265-.345-1.265-1.265V7.409h2.875V5.224h-2.875V1.935h-2.507v3.289h-2.047v2.185h2.047v6.394zm13.288-8.717c-1.84 0-2.967.828-3.703 1.84V.9h-2.484V17h2.484v-5.957c0-2.369 1.196-3.818 3.151-3.818 1.84 0 2.829 1.196 2.829 3.427V17h2.484v-6.555c0-3.933-2.139-5.359-4.761-5.359zm12.519 12.052c2.921 0 4.899-1.771 5.313-4.094h-2.484c-.345 1.311-1.449 2.07-2.967 2.07-1.955 0-3.22-1.311-3.289-3.312v-.161h8.878c.046-.322.069-.644.069-.943-.069-3.45-2.346-5.612-5.75-5.612-3.473 0-5.796 2.415-5.796 6.049 0 3.611 2.323 6.003 6.026 6.003zm-3.335-7.314c.184-1.679 1.541-2.737 3.128-2.737 1.725 0 2.944.989 3.151 2.737h-6.279zm22.705-4.6c-1.932 0-2.875.782-3.473 1.771l-.276-1.771h-2.208V17h2.484v-5.911c0-1.817.713-3.542 2.921-3.542h1.104V5.224h-.552zm7.111 11.914c2.921 0 4.899-1.771 5.313-4.094H162c-.345 1.311-1.449 2.07-2.967 2.07-1.955 0-3.22-1.311-3.289-3.312v-.161h8.878c.046-.322.069-.644.069-.943-.069-3.45-2.346-5.612-5.75-5.612-3.473 0-5.796 2.415-5.796 6.049 0 3.611 2.323 6.003 6.026 6.003zm-3.335-7.314c.184-1.679 1.541-2.737 3.128-2.737 1.725 0 2.944.989 3.151 2.737h-6.279zm21.627 5.014c-.506 0-.759-.161-.759-.759V9.364c0-2.783-1.794-4.278-4.922-4.278-2.967 0-4.945 1.426-5.198 3.726h2.438c.184-1.035 1.173-1.725 2.645-1.725 1.633 0 2.576.805 2.576 2.116v.713h-2.967c-3.289 0-5.037 1.357-5.037 3.772 0 2.185 1.794 3.45 4.37 3.45 1.909 0 3.105-.828 3.887-2.024 0 1.173.552 1.886 2.162 1.886h1.311v-2.162h-.506zm-3.22-2.668c-.023 1.817-1.219 3.036-3.289 3.036-1.357 0-2.185-.69-2.185-1.679 0-1.196.851-1.771 2.392-1.771h3.082v.414zm5.08 4.83h2.484V.9h-2.484V17zm24.35-11.914c-1.932 0-3.266.851-4.025 2.139-.713-1.518-2.093-2.139-3.634-2.139-1.771.023-2.783.805-3.45 1.679l-.276-1.541h-2.162V17h2.484v-6.302c0-2.093 1.058-3.473 2.76-3.473 1.633 0 2.484 1.081 2.484 3.151V17h2.507v-6.371c0-2.116 1.081-3.404 2.783-3.404 1.61 0 2.461 1.081 2.461 3.151V17h2.484v-6.785c0-3.726-1.978-5.129-4.416-5.129zm17.432 9.752c-.506 0-.759-.161-.759-.759V9.364c0-2.783-1.794-4.278-4.922-4.278-2.967 0-4.945 1.426-5.198 3.726h2.438c.184-1.035 1.173-1.725 2.645-1.725 1.633 0 2.576.805 2.576 2.116v.713h-2.967c-3.289 0-5.037 1.357-5.037 3.772 0 2.185 1.794 3.45 4.37 3.45 1.909 0 3.105-.828 3.887-2.024 0 1.173.552 1.886 2.162 1.886h1.311v-2.162h-.506zm-3.22-2.668c-.023 1.817-1.219 3.036-3.289 3.036-1.357 0-2.185-.69-2.185-1.679 0-1.196.851-1.771 2.392-1.771h3.082v.414zm11.036-6.946c-1.932 0-2.875.782-3.473 1.771l-.276-1.771h-2.208V17h2.484v-5.911c0-1.817.713-3.542 2.921-3.542h1.104V5.224h-.552zM231.005 17h2.484v-2.99l2.116-2.208L239.078 17h2.944l-4.715-7.015 4.439-4.761h-2.921l-5.336 5.704V.9h-2.484V17zm17.067.138c2.921 0 4.899-1.771 5.313-4.094h-2.484c-.345 1.311-1.449 2.07-2.967 2.07-1.955 0-3.22-1.311-3.289-3.312v-.161h8.878c.046-.322.069-.644.069-.943-.069-3.45-2.346-5.612-5.75-5.612-3.473 0-5.796 2.415-5.796 6.049 0 3.611 2.323 6.003 6.026 6.003zm-3.335-7.314c.184-1.679 1.541-2.737 3.128-2.737 1.725 0 2.944.989 3.151 2.737h-6.279zm11.624 3.979c0 2.139.966 3.197 3.22 3.197h2.3v-2.185h-1.748c-.943 0-1.265-.345-1.265-1.265V7.409h2.875V5.224h-2.875V1.935h-2.507v3.289h-2.047v2.185h2.047v6.394zm6.594-.69c.069 2.553 2.231 4.025 5.382 4.025 2.852 0 4.991-1.426 4.991-3.68 0-2.622-2.185-3.174-4.876-3.496-1.702-.184-2.829-.322-2.829-1.426 0-.943.966-1.541 2.438-1.541 1.472 0 2.484.759 2.622 1.84h2.438c-.161-2.415-2.208-3.749-5.106-3.749-2.829-.023-4.83 1.426-4.83 3.657 0 2.438 2.116 3.013 4.807 3.335 1.817.23 2.898.322 2.898 1.587 0 .943-1.012 1.541-2.553 1.541-1.794 0-2.852-.874-2.944-2.093h-2.438zm13.692-6.946c0-1.909 1.15-3.197 2.921-3.197 1.541 0 2.576.92 2.576 2.231 0 1.104-.598 1.84-1.633 2.53-1.38.897-2.461 1.656-2.461 3.519v.736h2.346v-.46c0-1.15.782-1.748 2.024-2.599 1.196-.851 2.3-1.863 2.3-3.979 0-2.415-1.978-4.186-5.175-4.186-3.427 0-5.428 2.415-5.428 5.405h2.53zm1.058 9.43c0 .92.69 1.541 1.587 1.541s1.564-.621 1.564-1.541c0-.92-.667-1.541-1.564-1.541s-1.587.621-1.587 1.541z" fill="#000"/></svg>