<svg width="440" height="38" viewBox="0 0 440 38" fill="none" xmlns="http://www.w3.org/2000/svg"><path d="M4.957 19.012c-.56 0-1.18-.08-1.86-.24-.666-.16-1.24-.373-1.72-.64l-.1-2.96 1.28-.08.68 2.06c.267.174.58.313.94.42.374.093.727.14 1.06.14.6 0 1.053-.127 1.36-.38.32-.253.48-.593.48-1.02 0-.466-.14-.84-.42-1.12-.267-.28-.62-.52-1.06-.72-.44-.2-.906-.393-1.4-.58-.493-.2-.96-.433-1.4-.7-.44-.28-.8-.633-1.08-1.06-.266-.44-.4-.992-.4-1.659 0-.72.2-1.346.6-1.88.414-.546.987-.966 1.72-1.26.747-.306 1.607-.46 2.58-.46.307 0 .633.02.98.06.36.04.707.107 1.04.2.333.08.626.174.88.28l.22 2.92-1.26.08-.64-1.96c-.413-.213-.887-.32-1.42-.32-.546 0-1 .14-1.36.42-.346.267-.52.647-.52 1.14 0 .44.14.807.42 1.1.28.28.64.527 1.08.74.44.2.907.4 1.4.6.507.2.98.44 1.42.72.453.266.82.606 1.1 1.02.28.413.42.94.42 1.58 0 .68-.214 1.293-.64 1.84-.414.532-1 .952-1.76 1.259-.747.307-1.62.46-2.62.46zm13.018-1.86a2.658 2.658 0 01-1.1 1.38c-.52.333-1.106.5-1.76.5-.919 0-1.679-.267-2.279-.8-.586-.547-.88-1.36-.88-2.44l.06-4.459h-1.4v-.62l3.42-2.72h.62l-.04 2.82-.04 4.74c0 .56.133.966.4 1.22.266.24.64.36 1.12.36.253 0 .5-.047.74-.14.24-.107.446-.24.62-.4l.52.56zm-4.379-5.819v-1.26h3.82v1.26h-3.82zm9.459 7.659c-.933 0-1.753-.187-2.46-.56a4.303 4.303 0 01-1.66-1.58c-.4-.68-.6-1.453-.6-2.32 0-.986.227-1.826.68-2.52a4.42 4.42 0 011.78-1.579 5.24 5.24 0 012.34-.54c.88 0 1.653.187 2.32.56.68.373 1.206.9 1.58 1.58.386.666.58 1.433.58 2.3 0 .88-.207 1.673-.62 2.38a4.552 4.552 0 01-1.64 1.659c-.694.413-1.46.62-2.3.62zm.2-1.28c.333 0 .613-.107.84-.32.24-.213.42-.526.54-.94.133-.413.2-.906.2-1.48 0-1.146-.187-2.08-.56-2.8-.36-.72-.847-1.079-1.46-1.079-.507 0-.907.26-1.2.78-.293.507-.44 1.2-.44 2.08 0 .706.087 1.346.26 1.92.187.573.433 1.026.74 1.36.32.32.68.48 1.08.48zm5.439 1.12l-.06-.92 1.24-.34a2.73 2.73 0 00.04-.36c.013-.186.026-.42.04-.7.013-.293.02-.606.02-.94l.02-1.52c0-.413-.014-.773-.04-1.08a8.751 8.751 0 00-.14-.96l-1.28-.28v-.899l3.52-.9.54.34-.12 1.18.06.02c.413-.533.866-.927 1.36-1.18.506-.266 1.04-.4 1.599-.4.573 0 1.08.14 1.52.42.453.28.813.693 1.08 1.24.266.533.4 1.18.4 1.94v2.06c0 .453.006.88.02 1.28.013.386.04.632.08.74l1.24.339-.06.92h-5.02l-.06-.92 1.14-.34c.027-.12.047-.287.06-.5.013-.226.02-.473.02-.74.013-.266.02-.52.02-.76v-1.68c0-.506-.08-.913-.24-1.22-.147-.32-.347-.553-.6-.7-.24-.146-.52-.22-.84-.22-.333 0-.646.074-.94.22-.28.148-.533.36-.76.64v2.94c0 .454.007.88.02 1.28.027.387.054.633.08.74l1.22.34-.06.92h-5.119zm16.538.16c-.867 0-1.64-.193-2.32-.58a4.276 4.276 0 01-1.58-1.58c-.373-.666-.56-1.42-.56-2.26 0-.933.214-1.746.64-2.44.427-.706.98-1.259 1.66-1.659a4.222 4.222 0 012.22-.58c1.173 0 2.08.367 2.72 1.1.64.72.96 1.66.96 2.82v.48h-5.88v-1.04h3.92l-.3.48v-.68c0-.627-.14-1.127-.42-1.5-.28-.373-.667-.56-1.16-.56-.334 0-.633.093-.9.28-.267.187-.48.473-.64.86-.147.373-.22.846-.22 1.42v.42c0 .933.247 1.686.74 2.26.506.572 1.18.86 2.02.86.453 0 .866-.08 1.24-.24.373-.174.733-.46 1.08-.86l.62.56c-.374.8-.9 1.406-1.58 1.819-.68.413-1.434.62-2.26.62zm12.278-.16l-.06-1 1.24-.32c.027-.067.047-.247.06-.54.026-.293.047-.66.06-1.1.013-.44.02-.92.02-1.44v-2.94c0-.532-.007-1.019-.02-1.459-.014-.453-.034-.82-.06-1.1-.014-.293-.033-.473-.06-.54l-1.24-.3.06-1h5.36l.06 1-1.26.3a7.754 7.754 0 00-.06.56c-.027.307-.047.687-.06 1.14-.014.453-.02.92-.02 1.4v2.94c0 .466.006.926.02 1.38.013.44.033.82.06 1.14.026.306.046.492.06.56l1.26.319-.06 1h-5.36zm-7.159 0l-.06-1 1.26-.32c.026-.067.046-.24.06-.52.027-.28.047-.64.06-1.08.013-.453.02-.946.02-1.48v-2.94c0-.546-.007-1.046-.02-1.499-.014-.453-.033-.82-.06-1.1-.014-.293-.033-.46-.06-.5l-1.26-.3.06-1h5.34l.06 1-1.24.3c-.027.067-.054.247-.08.54-.014.28-.027.647-.04 1.1v5.84c.013.44.026.806.04 1.1.026.293.053.472.08.54l1.24.319-.06 1h-5.34zm3.58-5.24v-1.52c.32.04.686.068 1.1.08.426.014.953.02 1.58.02.626 0 1.146-.006 1.559-.02.413-.012.78-.04 1.1-.08v1.52c-.28-.013-.627-.026-1.04-.04-.413-.026-.953-.04-1.62-.04-.666 0-1.213.014-1.64.04-.413.014-.76.027-1.04.04zm14.857 5.4c-.866 0-1.64-.193-2.32-.58a4.277 4.277 0 01-1.579-1.58c-.373-.666-.56-1.42-.56-2.26 0-.933.213-1.746.64-2.44.427-.706.98-1.259 1.66-1.659a4.222 4.222 0 012.22-.58c1.173 0 2.08.367 2.719 1.1.64.72.96 1.66.96 2.82v.48h-5.88v-1.04h3.92l-.3.48v-.68c0-.627-.14-1.127-.42-1.5-.28-.373-.666-.56-1.16-.56-.333 0-.633.093-.9.28-.266.187-.48.473-.64.86-.146.373-.22.846-.22 1.42v.42c0 .933.247 1.686.74 2.26.507.572 1.18.86 2.02.86.454 0 .867-.08 1.24-.24.373-.174.733-.46 1.08-.86l.62.56c-.373.8-.9 1.406-1.58 1.819-.68.413-1.433.62-2.26.62zm11.959.1l-.54-.3.02-1.3-.06-.02c-.334.573-.707.98-1.12 1.22-.413.227-.84.34-1.28.34a3.74 3.74 0 01-1.96-.54c-.6-.36-1.08-.86-1.44-1.5-.36-.653-.54-1.406-.54-2.26 0-.746.14-1.413.42-2 .28-.6.654-1.106 1.12-1.519a4.75 4.75 0 011.56-.96 4.748 4.748 0 011.76-.34c.253 0 .513.027.78.08.267.04.487.107.66.2 0-.253-.007-.533-.02-.84 0-.32-.007-.633-.02-.94 0-.32-.007-.606-.02-.86 0-.266-.007-.466-.02-.6l-1.48-.22-.04-.86 3.78-.98.56.34c-.04.827-.08 1.594-.12 2.3a38.26 38.26 0 00-.06 2.2l-.02 4.64c0 .653.02 1.186.06 1.6.04.413.073.766.1 1.06l1.32.28v.859l-3.4.92zm-2.02-1.98c.213 0 .453-.066.72-.2.28-.133.52-.353.72-.66v-4.46a1.438 1.438 0 00-.66-.519 1.944 1.944 0 00-.76-.16c-.627 0-1.147.26-1.56.78-.4.52-.6 1.233-.6 2.14 0 .986.207 1.746.62 2.28.427.533.933.8 1.52.8zm10.459 6.28c-1.414 0-2.52-.194-3.32-.58-.787-.387-1.18-.92-1.18-1.6 0-.44.233-.854.7-1.24.48-.373 1.127-.674 1.94-.9l.86.08c-.32.226-.574.486-.76.78-.187.293-.28.6-.28.92 0 .453.186.8.56 1.04.386.253.946.38 1.68.38.72 0 1.32-.16 1.8-.48.48-.307.72-.694.72-1.16 0-.334-.12-.587-.36-.76-.24-.16-.654-.267-1.24-.32l-2.54-.22-.18-.1c-.68 0-1.207-.133-1.58-.4-.373-.253-.56-.587-.56-1 0-.427.207-.82.62-1.18.427-.373 1.007-.666 1.74-.88l.32.34c-.147.094-.267.2-.36.32a.488.488 0 00-.14.32c0 .16.046.28.14.36.106.08.253.134.44.16l3.1.3c.986.093 1.719.353 2.199.78.48.427.72.986.72 1.68 0 .626-.22 1.193-.66 1.7-.427.506-1.027.906-1.8 1.2-.76.306-1.62.46-2.58.46zm.08-6.92c-.8 0-1.507-.133-2.12-.4-.6-.28-1.067-.66-1.4-1.14-.333-.493-.5-1.06-.5-1.7 0-.653.18-1.232.54-1.74.36-.506.847-.906 1.46-1.199.626-.293 1.326-.44 2.1-.44.76 0 1.433.154 2.02.46.6.293 1.073.693 1.42 1.2.346.507.519 1.08.519 1.72a2.85 2.85 0 01-.52 1.68c-.346.48-.82.86-1.42 1.14-.6.28-1.3.42-2.1.42zm.16-1.16c.413 0 .74-.18.98-.54.24-.373.36-.873.36-1.5 0-.68-.134-1.226-.4-1.64-.254-.412-.6-.619-1.04-.619-.4 0-.727.193-.98.58-.254.386-.38.9-.38 1.54 0 .653.133 1.18.4 1.58.266.4.62.6 1.06.6zm4.979-3.62l-2.7-.26-.6-.939 3.3-.4v1.6zm5.32 7.3c-.867 0-1.64-.193-2.32-.58a4.278 4.278 0 01-1.58-1.58c-.374-.666-.56-1.42-.56-2.26 0-.933.213-1.746.64-2.44.426-.706.98-1.259 1.66-1.659a4.222 4.222 0 012.22-.58c1.172 0 2.079.367 2.719 1.1.64.72.96 1.66.96 2.82v.48h-5.88v-1.04h3.92l-.3.48v-.68c0-.627-.14-1.127-.42-1.5-.28-.373-.667-.56-1.16-.56-.333 0-.633.093-.9.28-.266.187-.48.473-.64.86-.146.373-.22.846-.22 1.42v.42c0 .933.247 1.686.74 2.26.507.572 1.18.86 2.02.86.453 0 .867-.08 1.24-.24.373-.174.733-.46 1.08-.86l.62.56c-.374.8-.9 1.406-1.58 1.819-.68.413-1.433.62-2.26.62zm15.757-1.84a2.66 2.66 0 01-1.1 1.38 3.19 3.19 0 01-1.76.5c-.92 0-1.679-.267-2.279-.8-.587-.547-.88-1.36-.88-2.44l.06-4.459h-1.4v-.62l3.419-2.72h.62l-.04 2.82-.04 4.74c0 .56.134.966.4 1.22.267.24.64.36 1.12.36.253 0 .5-.047.74-.14.24-.107.447-.24.62-.4l.52.56zm-4.379-5.819v-1.26h3.819v1.26h-3.819zm4.699 7.499l-.06-.92 1.24-.34c.013-.053.026-.173.04-.36.013-.2.026-.44.04-.72.013-.293.02-.6.02-.92l.02-1.5c0-.4-.014-.753-.04-1.06a9.73 9.73 0 00-.14-1l-1.28-.28v-.899l3.459-.9.52.34-.08 1.58.06.02c.387-.747.774-1.253 1.16-1.52.4-.267.807-.4 1.22-.4.36 0 .673.1.94.3.28.2.42.513.42.94 0 .427-.147.76-.44 1-.293.24-.633.36-1.02.36-.32 0-.607-.054-.86-.16-.253-.12-.533-.327-.84-.62l.56.06a3.26 3.26 0 00-.58.56 3.54 3.54 0 00-.48.78l.02 1.58c.014.493.02.94.02 1.34.014.386.027.712.04.98.014.253.027.42.04.5l1.74.299-.06.96h-5.679zm11.158.16c-.613 0-1.146-.133-1.599-.4-.44-.267-.78-.587-1.02-.96-.227-.373-.34-.727-.34-1.06 0-.48.146-.88.44-1.2.306-.333.773-.593 1.399-.78l3.14-.92v-.72c0-.28-.093-.54-.28-.78a1.978 1.978 0 00-.7-.62 1.93 1.93 0 00-.94-.239c-.213 0-.366.053-.46.16-.08.093-.133.287-.16.58l-.1 1.22c-.666.133-1.213.113-1.639-.06-.414-.187-.62-.487-.62-.9 0-.254.133-.513.4-.78.266-.267.593-.513.98-.74.399-.24.806-.44 1.219-.6.414-.173.774-.273 1.08-.3 1.187 0 2.127.273 2.82.82.693.533 1.046 1.253 1.06 2.16l-.06 2.78c0 .373.006.666.02.88.026.212.066.386.12.52l1.319.24v.839l-1.299.56c-.24.093-.46.167-.66.22-.2.053-.394.08-.58.08-.52 0-.887-.267-1.1-.8l-.34-.92.42.1c-.413.507-.84.907-1.28 1.2-.426.28-.84.42-1.24.42zm1.02-1.8c.187 0 .367-.033.54-.1.173-.08.333-.193.48-.34v-1.96l-1.36.26c-.333.04-.573.14-.72.3-.133.16-.2.374-.2.64 0 .307.12.587.36.84.254.24.554.36.9.36zm5.579 1.64l-.06-.92 1.24-.34c.014-.053.027-.173.04-.36.014-.186.027-.42.04-.7.014-.293.02-.606.02-.94l.02-1.52c0-.413-.013-.773-.04-1.08a8.54 8.54 0 00-.14-.96l-1.28-.28v-.899l3.52-.9.54.34-.12 1.18.06.02c.413-.533.866-.927 1.36-1.18.506-.266 1.04-.4 1.599-.4.574 0 1.08.14 1.52.42.454.28.813.693 1.08 1.24.267.533.4 1.18.4 1.94v2.06c0 .453.007.88.02 1.28.013.386.04.632.08.74l1.24.339-.06.92h-5.019l-.06-.92 1.139-.34a3.32 3.32 0 00.06-.5c.014-.226.02-.473.02-.74.014-.266.02-.52.02-.76v-1.68c0-.506-.08-.913-.24-1.22-.146-.32-.346-.553-.6-.7a1.572 1.572 0 00-.839-.22 2.07 2.07 0 00-.94.22c-.28.148-.534.36-.76.64v2.94c0 .454.007.88.02 1.28.027.387.053.633.08.74l1.22.34-.06.92h-5.12zm15.278.16c-.56 0-1.113-.06-1.66-.18-.546-.133-1.006-.3-1.379-.5l-.1-2.34h1.28l.419 1.44c.507.293 1.034.44 1.58.44.414 0 .727-.08.94-.24.213-.173.32-.4.32-.68 0-.293-.12-.546-.36-.76-.227-.213-.7-.453-1.42-.72-.986-.36-1.673-.753-2.059-1.18-.387-.426-.58-.96-.58-1.6 0-.546.166-1.026.5-1.439.333-.427.8-.753 1.399-.98.6-.24 1.294-.36 2.08-.36.427 0 .86.04 1.3.12.44.08.8.187 1.08.32l.24 2.32h-1.28l-.44-1.42c-.133-.08-.3-.14-.5-.18a1.968 1.968 0 00-.54-.08c-.4 0-.726.087-.98.26a.82.82 0 00-.36.7c0 .32.147.587.44.8.294.213.827.48 1.6.8.88.36 1.507.746 1.88 1.16.373.4.56.9.56 1.5 0 .84-.367 1.52-1.1 2.039-.733.507-1.687.76-2.86.76zm10.399-.16h-5.499l-.06-.92 1.239-.34c.014-.227.02-.44.02-.64.014-.213.02-.446.02-.7v-.94-1.48l-.02-2.479v-1.88c0-.88.167-1.666.5-2.36.334-.693.787-1.233 1.36-1.62.573-.4 1.227-.6 1.96-.6.666 0 1.213.14 1.64.42.44.267.66.62.66 1.06 0 .28-.087.494-.26.64-.16.147-.387.22-.68.22-.374 0-.76-.166-1.16-.5l-1.14-1.06.86.12c-.387 0-.687.24-.9.72-.2.467-.3 1.154-.3 2.06v1.52l.04 1.26.02 2.44c0 .666.013 1.346.04 2.04.027.693.053 1.28.08 1.76l1.64.339-.06.92zm-5.739-7.479v-.92l1.439-.4 1.18.06h3.5v1.26h-6.119zm11.658 7.639c-.933 0-1.753-.187-2.46-.56a4.305 4.305 0 01-1.659-1.58c-.4-.68-.6-1.453-.6-2.32 0-.986.226-1.826.68-2.52a4.417 4.417 0 011.779-1.579 5.242 5.242 0 012.34-.54c.88 0 1.653.187 2.32.56.68.373 1.206.9 1.579 1.58.387.666.58 1.433.58 2.3 0 .88-.206 1.673-.62 2.38a4.553 4.553 0 01-1.639 1.659 4.41 4.41 0 01-2.3.62zm.2-1.28c.333 0 .613-.107.84-.32.24-.213.42-.526.54-.94.133-.413.2-.906.2-1.48 0-1.146-.187-2.08-.56-2.8-.36-.72-.847-1.079-1.46-1.079-.507 0-.907.26-1.2.78-.293.507-.44 1.2-.44 2.08 0 .706.087 1.346.26 1.92.187.573.433 1.026.74 1.36.32.32.68.48 1.08.48zm5.459 1.12l-.06-.92 1.24-.34c.013-.053.027-.173.04-.36.013-.2.027-.44.04-.72.013-.293.02-.6.02-.92l.02-1.5c0-.4-.013-.753-.04-1.06a9.462 9.462 0 00-.14-1l-1.28-.28v-.899l3.46-.9.52.34-.08 1.58.06.02c.386-.747.773-1.253 1.16-1.52.399-.267.806-.4 1.219-.4.36 0 .674.1.94.3.28.2.42.513.42.94 0 .427-.146.76-.44 1-.293.24-.633.36-1.02.36a2.2 2.2 0 01-.86-.16c-.253-.12-.533-.327-.839-.62l.56.06a3.467 3.467 0 00-1.06 1.34l.02 1.58c.013.493.02.94.02 1.34.013.386.026.712.04.98.013.253.026.42.04.5l1.739.299-.06.96h-5.679zm8.199 0l-.06-.92 1.24-.34c.013-.053.027-.173.04-.36.013-.2.027-.44.04-.72.013-.28.02-.586.02-.92l.02-1.5c0-.266-.007-.506-.02-.72a12.228 12.228 0 00-.16-1.34l-1.28-.28v-.899l3.52-.9.54.34-.12 1.16.06.02c.426-.547.873-.94 1.339-1.18.467-.253.954-.38 1.46-.38.52 0 1 .133 1.44.4.453.253.82.647 1.1 1.18.28.52.42 1.193.42 2.02l.04 2.06c0 .44.006.86.02 1.26.013.4.04.652.08.76l1.08.339-.06.92h-4.74l-.06-.92 1.02-.34a3.32 3.32 0 00.06-.5c.013-.226.02-.473.02-.74.013-.266.02-.52.02-.76l-.02-1.88c0-.48-.073-.86-.22-1.14-.133-.293-.32-.5-.56-.62a1.684 1.684 0 00-.8-.18c-.293 0-.586.08-.88.24-.293.147-.54.354-.739.62v2.94c0 .44.006.86.02 1.26.026.4.053.653.08.76l1.099.34-.06.92h-4.999zm11.738 0l-.06-.92 1.04-.34a3.32 3.32 0 00.06-.5c.014-.226.02-.473.02-.74.014-.266.02-.52.02-.76l-.04-1.7c0-.52-.073-.933-.22-1.24-.146-.306-.346-.526-.6-.66a1.643 1.643 0 00-.839-.22c-.334 0-.654.074-.96.22a1.83 1.83 0 00-.74.62l-.58-.76c.48-.639.986-1.119 1.52-1.439a3.319 3.319 0 011.759-.5c.627 0 1.18.147 1.66.44.493.28.873.687 1.14 1.22.267.533.4 1.173.4 1.92l.04 2.08c0 .44.007.86.02 1.26.027.4.053.652.08.76l1.24.339-.06.92h-4.9zm9.099.16c-.56 0-1.113-.06-1.66-.18-.546-.133-1.006-.3-1.379-.5l-.1-2.34h1.279l.42 1.44c.507.293 1.034.44 1.58.44.413 0 .727-.08.94-.24.213-.173.32-.4.32-.68 0-.293-.12-.546-.36-.76-.227-.213-.7-.453-1.42-.72-.986-.36-1.673-.753-2.06-1.18-.386-.426-.579-.96-.579-1.6 0-.546.166-1.026.5-1.439.333-.427.799-.753 1.399-.98.6-.24 1.293-.36 2.08-.36.427 0 .86.04 1.3.12.44.08.8.187 1.08.32l.24 2.32h-1.28l-.44-1.42c-.133-.08-.3-.14-.5-.18a1.968 1.968 0 00-.54-.08c-.4 0-.727.087-.98.26a.82.82 0 00-.36.7c0 .32.147.587.44.8.293.213.827.48 1.6.8.88.36 1.506.746 1.88 1.16.373.4.56.9.56 1.5 0 .84-.367 1.52-1.1 2.039-.733.507-1.687.76-2.86.76zm8.779-.16l-.06-.92 1.24-.34c.013-.053.026-.173.04-.36.013-.2.026-.44.04-.72.013-.28.02-.586.02-.92l.02-1.5a11.118 11.118 0 00-.08-1.38c-.027-.226-.06-.453-.1-.68l-1.28-.28v-.899l3.519-.9.54.34-.12 1.16.06.02c.427-.547.874-.94 1.34-1.18a3.02 3.02 0 011.46-.38c.52 0 1 .133 1.44.4.453.253.82.647 1.1 1.18.28.52.42 1.193.42 2.02l.04 2.06c0 .44.006.86.02 1.26.013.4.04.652.08.76l1.079.339-.06.92h-4.739l-.06-.92 1.02-.34a3.32 3.32 0 00.06-.5c.013-.226.02-.473.02-.74.013-.266.02-.52.02-.76l-.02-1.88c0-.48-.073-.86-.22-1.14-.133-.293-.32-.5-.56-.62a1.686 1.686 0 00-.8-.18c-.293 0-.586.08-.88.24-.293.147-.54.354-.74.62v2.94c0 .44.007.86.02 1.26.027.4.054.653.08.76l1.1.34-.06.92h-4.999zm11.738 0l-.06-.92 1.04-.34a3.32 3.32 0 00.06-.5c.013-.226.02-.473.02-.74.013-.266.02-.52.02-.76l-.04-1.7c0-.52-.073-.933-.22-1.24-.146-.306-.346-.526-.6-.66a1.644 1.644 0 00-.84-.22c-.333 0-.653.074-.959.22a1.83 1.83 0 00-.74.62l-.58-.76c.48-.639.986-1.119 1.519-1.439a3.325 3.325 0 011.76-.5c.627 0 1.18.147 1.66.44.493.28.873.687 1.14 1.22.266.533.4 1.173.4 1.92l.04 2.08c0 .44.006.86.02 1.26.026.4.053.652.08.76l1.24.339-.06.92h-4.9zm10.359.16c-.867 0-1.64-.193-2.32-.58a4.284 4.284 0 01-1.58-1.58c-.373-.666-.56-1.42-.56-2.26 0-.933.214-1.746.64-2.44.427-.706.98-1.259 1.66-1.659a4.222 4.222 0 012.22-.58c1.173 0 2.08.367 2.719 1.1.64.72.96 1.66.96 2.82v.48h-5.879v-1.04h3.92l-.3.48v-.68c0-.627-.14-1.127-.42-1.5-.28-.373-.667-.56-1.16-.56-.333 0-.633.093-.9.28-.267.187-.48.473-.64.86-.147.373-.22.846-.22 1.42v.42c0 .933.247 1.686.74 2.26.507.572 1.18.86 2.02.86.453 0 .866-.08 1.24-.24.373-.174.733-.46 1.079-.86l.62.56c-.373.8-.9 1.406-1.579 1.819a4.27 4.27 0 01-2.26.62zm4.759-.16l-.06-.92 1.24-.34c.013-.053.027-.173.04-.36.013-.2.027-.44.04-.72.013-.293.02-.6.02-.92l.02-1.5c0-.4-.013-.753-.04-1.06a9.462 9.462 0 00-.14-1l-1.28-.28v-.899l3.46-.9.52.34-.08 1.58.06.02c.386-.747.773-1.253 1.16-1.52.399-.267.806-.4 1.219-.4.36 0 .674.1.94.3.28.2.42.513.42.94 0 .427-.147.76-.44 1-.293.24-.633.36-1.02.36a2.2 2.2 0 01-.86-.16c-.253-.12-.533-.327-.839-.62l.56.06a3.467 3.467 0 00-1.06 1.34l.02 1.58c.013.493.02.94.02 1.34.013.386.026.712.04.98.013.253.026.42.04.5l1.739.299-.06.96h-5.679zm12.438.16c-.839 0-1.599-.18-2.279-.54a4.477 4.477 0 01-1.62-1.54c-.4-.666-.6-1.42-.6-2.26 0-.84.213-1.62.64-2.34a4.842 4.842 0 011.76-1.759c.746-.44 1.606-.66 2.579-.66.587 0 1.114.08 1.58.24.467.147.84.36 1.12.64.28.28.42.593.42.94 0 .333-.107.587-.32.76-.2.16-.447.24-.74.24-.253 0-.48-.047-.68-.14a3.585 3.585 0 01-.66-.46l-1.459-1.28 1.019.24c-.386-.093-.773-.04-1.159.16-.374.2-.68.533-.92 1-.24.453-.36 1.026-.36 1.72 0 1.026.246 1.8.74 2.32.506.52 1.126.78 1.859.78.374 0 .74-.08 1.1-.24.373-.174.733-.467 1.08-.88l.64.58c-.373.813-.9 1.432-1.58 1.859a4.023 4.023 0 01-2.16.62zm4.28-.16l-.06-.92 1.24-.34c.013-.147.026-.4.04-.76.026-.373.046-.8.06-1.28.013-.48.02-.946.02-1.4v-2.52c0-.452-.007-.906-.02-1.359 0-.466-.007-.906-.02-1.32 0-.426-.007-.813-.02-1.16a10.86 10.86 0 00-.06-.84l-1.48-.2-.04-.86 3.779-.98.56.34c-.026.414-.053.814-.08 1.2l-.04 1.28a305.425 305.425 0 00-.08 3.72l.06.02c.414-.52.867-.907 1.36-1.16.493-.266 1.02-.4 1.58-.4.573 0 1.08.14 1.52.42.453.28.813.693 1.08 1.24.266.533.4 1.18.4 1.94v2.06c0 .453.006.88.02 1.28.026.386.053.632.079.74l1.24.339-.06.92h-4.999l-.06-.92 1.12-.34a3.32 3.32 0 00.06-.5c.013-.226.02-.473.02-.74.013-.266.02-.52.02-.76v-1.68c0-.506-.08-.913-.24-1.22-.147-.32-.347-.553-.6-.7-.24-.146-.52-.22-.84-.22-.32 0-.626.074-.92.22-.293.148-.553.36-.78.64v2.94c0 .494.007.927.02 1.3.027.373.054.613.08.72l1.2.34-.06.92h-5.099zm15.138.16c-.614 0-1.147-.133-1.6-.4-.44-.267-.78-.587-1.02-.96-.227-.373-.34-.727-.34-1.06 0-.48.147-.88.44-1.2.307-.333.773-.593 1.4-.78l3.139-.92v-.72c0-.28-.093-.54-.279-.78a1.986 1.986 0 00-.7-.62 1.936 1.936 0 00-.94-.239c-.214 0-.367.053-.46.16-.08.093-.134.287-.16.58l-.1 1.22c-.667.133-1.213.113-1.64-.06-.413-.187-.62-.487-.62-.9 0-.254.133-.513.4-.78s.593-.513.98-.74c.4-.24.807-.44 1.22-.6.413-.173.773-.273 1.08-.3 1.186 0 2.126.273 2.819.82.693.533 1.047 1.253 1.06 2.16l-.06 2.78c0 .373.007.666.02.88.027.212.067.386.12.52l1.32.24v.839l-1.3.56c-.24.093-.46.167-.66.22-.2.053-.393.08-.58.08-.52 0-.886-.267-1.1-.8l-.34-.92.42.1c-.413.507-.839.907-1.279 1.2-.427.28-.84.42-1.24.42zm1.02-1.8c.186 0 .366-.033.54-.1.173-.08.333-.193.479-.34v-1.96l-1.359.26c-.334.04-.574.14-.72.3-.134.16-.2.374-.2.64 0 .307.12.587.36.84.253.24.553.36.9.36zm5.579 1.64l-.06-.92 1.24-.34c.013-.053.026-.173.04-.36a21.25 21.25 0 00.06-1.64l.02-1.52c0-.413-.014-.773-.04-1.08a9.025 9.025 0 00-.14-.96l-1.28-.28v-.899l3.519-.9.54.34-.12 1.18.06.02c.414-.533.867-.927 1.36-1.18a3.39 3.39 0 011.6-.4c.573 0 1.08.14 1.52.42.453.28.813.693 1.08 1.24.266.533.399 1.18.399 1.94v2.06c0 .453.007.88.02 1.28.014.386.04.632.08.74l1.24.339-.06.92h-5.019l-.06-.92 1.14-.34a3.32 3.32 0 00.06-.5c.013-.226.02-.473.02-.74.013-.266.02-.52.02-.76v-1.68c0-.506-.08-.913-.24-1.22-.147-.32-.347-.553-.6-.7-.24-.146-.52-.22-.84-.22-.333 0-.646.074-.94.22-.28.148-.533.36-.76.64v2.94c0 .454.007.88.02 1.28.027.387.054.633.08.74l1.22.34-.06.92h-5.119zm18.977.26l-.54-.3.02-1.3-.06-.02c-.333.573-.706.98-1.12 1.22-.413.227-.839.34-1.279.34a3.74 3.74 0 01-1.96-.54c-.6-.36-1.08-.86-1.44-1.5-.36-.653-.54-1.406-.54-2.26 0-.746.14-1.413.42-2 .28-.6.653-1.106 1.12-1.519a4.748 4.748 0 011.56-.96 4.747 4.747 0 011.759-.34c.254 0 .514.027.78.08.267.04.487.107.66.2 0-.253-.006-.533-.02-.84 0-.32-.006-.633-.02-.94 0-.32-.006-.606-.02-.86a6.34 6.34 0 00-.02-.6l-1.479-.22-.04-.86 3.779-.98.56.34c-.04.827-.08 1.594-.12 2.3a38.26 38.26 0 00-.06 2.2l-.02 4.64c0 .653.02 1.186.06 1.6.04.413.073.766.1 1.06l1.32.28v.859l-3.4.92zm-2.02-1.98c.214 0 .454-.066.72-.2.28-.133.52-.353.72-.66v-4.46a1.432 1.432 0 00-.66-.519 1.94 1.94 0 00-.76-.16c-.626 0-1.146.26-1.559.78-.4.52-.6 1.233-.6 2.14 0 .986.206 1.746.62 2.28.426.533.933.8 1.519.8zm5.92 1.72l-.06-.94 1.339-.32c.014-.053.027-.173.04-.36.014-.2.027-.44.04-.72.014-.28.02-.586.02-.92l.02-1.5c0-.4-.013-.76-.04-1.08a8.442 8.442 0 00-.14-.98l-1.339-.28v-.899l3.679-.9.54.34c-.04.427-.073.86-.1 1.3-.013.426-.02.913-.02 1.46v2.52c0 .44.007.86.02 1.26.027.4.053.652.08.76l1.34.319-.06.94h-5.359zm2.699-10.539c-.533 0-.953-.16-1.26-.48a1.639 1.639 0 01-.459-1.14c0-.426.153-.8.459-1.12.307-.333.727-.5 1.26-.5.534 0 .947.167 1.24.5.293.32.44.694.44 1.12 0 .427-.147.807-.44 1.14-.293.32-.706.48-1.24.48zm6.839 10.699c-.56 0-1.113-.06-1.659-.18-.547-.133-1.007-.3-1.38-.5l-.1-2.34h1.28l.42 1.44c.506.293 1.033.44 1.579.44.414 0 .727-.08.94-.24.213-.173.32-.4.32-.68 0-.293-.12-.546-.36-.76-.226-.213-.7-.453-1.42-.72-.986-.36-1.673-.753-2.059-1.18-.387-.426-.58-.96-.58-1.6 0-.546.166-1.026.5-1.439.333-.427.8-.753 1.399-.98.6-.24 1.294-.36 2.08-.36.427 0 .86.04 1.3.12.44.08.8.187 1.08.32l.24 2.32h-1.28l-.44-1.42c-.133-.08-.3-.14-.5-.18a1.963 1.963 0 00-.54-.08c-.4 0-.726.087-.98.26a.82.82 0 00-.36.7c0 .32.147.587.44.8.294.213.827.48 1.6.8.88.36 1.507.746 1.88 1.16.373.4.56.9.56 1.5 0 .84-.367 1.52-1.1 2.039-.733.507-1.687.76-2.86.76zm4.74-.16l-.06-.94 1.339-.32c.014-.053.027-.173.04-.36.014-.2.027-.44.04-.72.014-.28.02-.586.02-.92l.02-1.5c0-.4-.013-.76-.04-1.08a8.442 8.442 0 00-.14-.98l-1.339-.28v-.899l3.679-.9.54.34c-.04.427-.073.86-.1 1.3-.013.426-.02.913-.02 1.46v2.52c0 .44.007.86.02 1.26.027.4.053.652.08.76l1.34.319-.06.94h-5.359zm2.699-10.539c-.533 0-.953-.16-1.26-.48a1.639 1.639 0 01-.459-1.14c0-.426.153-.8.459-1.12.307-.333.727-.5 1.26-.5.534 0 .947.167 1.24.5.293.32.44.694.44 1.12 0 .427-.147.807-.44 1.14-.293.32-.706.48-1.24.48zm3.32 10.539l-.06-.92 1.24-.34c.013-.053.026-.173.04-.36a21.25 21.25 0 00.06-1.64l.02-1.52c0-.413-.014-.773-.04-1.08a9.025 9.025 0 00-.14-.96l-1.28-.28v-.899l3.519-.9.54.34-.12 1.18.06.02c.414-.533.867-.927 1.36-1.18a3.39 3.39 0 011.6-.4c.573 0 1.08.14 1.52.42.453.28.813.693 1.08 1.24.266.533.399 1.18.399 1.94v2.06c0 .453.007.88.02 1.28.014.386.04.632.08.74l1.24.339-.06.92h-5.019l-.06-.92 1.14-.34c.027-.12.046-.287.06-.5.013-.226.02-.473.02-.74.013-.266.02-.52.02-.76v-1.68c0-.506-.08-.913-.24-1.22-.147-.32-.347-.553-.6-.7-.24-.146-.52-.22-.84-.22-.333 0-.647.074-.94.22-.28.148-.533.36-.76.64v2.94c0 .454.007.88.02 1.28.027.387.054.633.08.74l1.22.34-.06.92h-5.119zm16.218 4.56c-1.414 0-2.52-.194-3.32-.58-.787-.387-1.18-.92-1.18-1.6 0-.44.234-.854.7-1.24.48-.373 1.127-.674 1.94-.9l.86.08c-.32.226-.574.486-.76.78-.187.293-.28.6-.28.92 0 .453.186.8.56 1.04.386.253.946.38 1.68.38.719 0 1.319-.16 1.799-.48.48-.307.72-.694.72-1.16 0-.334-.12-.587-.36-.76-.24-.16-.653-.267-1.24-.32l-2.539-.22-.18-.1c-.68 0-1.207-.133-1.58-.4-.373-.253-.56-.587-.56-1 0-.427.207-.82.62-1.18.427-.373 1.007-.666 1.74-.88l.32.34c-.147.094-.267.2-.36.32a.485.485 0 00-.14.32c0 .16.046.28.14.36.106.08.253.134.44.16l3.099.3c.987.093 1.72.353 2.2.78.48.427.72.986.72 1.68 0 .626-.22 1.193-.66 1.7-.427.506-1.027.906-1.8 1.2-.76.306-1.62.46-2.579.46zm.08-6.92c-.8 0-1.507-.133-2.12-.4-.6-.28-1.067-.66-1.4-1.14-.333-.493-.5-1.06-.5-1.7 0-.653.18-1.232.54-1.74.36-.506.847-.906 1.46-1.199.626-.293 1.326-.44 2.1-.44.759 0 1.433.154 2.019.46a3.59 3.59 0 011.42 1.2c.347.507.52 1.08.52 1.72 0 .626-.173 1.186-.52 1.68-.347.48-.82.86-1.42 1.14-.6.28-1.3.42-2.099.42zm.16-1.16c.413 0 .739-.18.979-.54.24-.373.36-.873.36-1.5 0-.68-.133-1.226-.4-1.64-.253-.412-.6-.619-1.039-.619-.4 0-.727.193-.98.58-.254.386-.38.9-.38 1.54 0 .653.133 1.18.4 1.58.266.4.62.6 1.06.6zm4.979-3.62l-2.7-.26-.6-.939 3.3-.4v1.6zM2.946 35.806c-.475 0-.9-.061-1.275-.184a3.012 3.012 0 01-.982-.529l.252-.554c.196.146.391.269.587.37.201.095.417.167.646.218.23.044.487.067.772.067.498 0 .867-.093 1.107-.277.24-.185.361-.43.361-.739 0-.262-.084-.464-.252-.603-.167-.14-.46-.252-.88-.336l-.881-.176c-.543-.112-.948-.294-1.217-.546-.263-.251-.394-.593-.394-1.023 0-.353.09-.66.268-.923.185-.263.442-.467.772-.613.33-.145.713-.218 1.15-.218.419 0 .802.065 1.149.193.347.123.643.305.89.546l-.244.537a2.454 2.454 0 00-.83-.504 2.774 2.774 0 00-.974-.16c-.458 0-.822.101-1.09.303a.95.95 0 00-.395.805c0 .274.084.49.252.646.168.151.445.266.83.344l.89.176c.57.118.99.294 1.258.529.269.235.403.565.403.99 0 .324-.09.612-.269.864a1.69 1.69 0 01-.746.587c-.325.14-.71.21-1.158.21zm4.699 0c-.414 0-.73-.117-.948-.352-.218-.24-.327-.602-.327-1.083v-2.324h-.822v-.528h.822v-1.15l.68-.192v1.342h1.208v.529H7.049v2.248c0 .336.056.576.168.721.118.14.291.21.52.21.107 0 .202-.008.286-.025.083-.022.159-.047.226-.075v.57a1.168 1.168 0 01-.285.076 1.542 1.542 0 01-.319.033zm3.127 0c-.403 0-.755-.087-1.057-.26a1.801 1.801 0 01-.688-.755c-.162-.33-.243-.719-.243-1.166 0-.453.08-.842.243-1.166.162-.325.392-.574.688-.747a2.035 2.035 0 011.057-.268c.409 0 .76.089 1.057.268.302.173.534.422.697.747.167.324.251.713.251 1.166 0 .447-.084.836-.251 1.166a1.784 1.784 0 01-.697.755c-.296.173-.649.26-1.057.26zm0-.554c.403 0 .722-.137.957-.41.235-.28.352-.686.352-1.217 0-.537-.12-.943-.36-1.217-.236-.28-.552-.42-.949-.42-.397 0-.713.14-.948.42-.235.274-.352.68-.352 1.217 0 .531.117.937.352 1.216.235.274.551.411.948.411zm3.065.479v-3.239a4.64 4.64 0 00-.025-.478 13.59 13.59 0 00-.042-.495h.654l.084.923h-.1c.122-.325.318-.57.587-.738.274-.174.59-.26.948-.26.498 0 .872.134 1.124.402.257.263.386.68.386 1.25v2.635h-.68v-2.593c0-.397-.08-.685-.243-.864-.157-.184-.403-.277-.738-.277-.392 0-.702.12-.932.361-.229.24-.344.562-.344.965v2.408h-.68zm6.787.075c-.66 0-1.18-.19-1.56-.57-.381-.386-.571-.92-.571-1.603 0-.442.084-.825.251-1.15.168-.33.403-.584.705-.763a1.955 1.955 0 011.04-.276c.386 0 .71.08.974.243.262.162.464.394.604.696.14.297.21.649.21 1.057v.252h-3.264v-.428h2.819l-.143.11c0-.448-.1-.798-.302-1.05-.201-.251-.5-.377-.898-.377-.419 0-.746.148-.981.445-.235.29-.352.685-.352 1.182v.076c0 .526.128.926.385 1.2.263.268.63.402 1.1.402.251 0 .486-.036.704-.109.224-.078.437-.204.638-.377l.235.478c-.185.179-.42.319-.705.42-.28.095-.576.142-.89.142zm2.768-.075v-5.915h.696v2.618h3.566v-2.618h.688v5.915h-.688v-2.702h-3.566v2.702h-.696zm8.219.075c-.66 0-1.18-.19-1.56-.57-.381-.386-.571-.92-.571-1.603 0-.442.084-.825.251-1.15.168-.33.403-.584.705-.763a1.955 1.955 0 011.04-.276c.386 0 .71.08.974.243.263.162.464.394.604.696.14.297.21.649.21 1.057v.252H30v-.428h2.819l-.143.11c0-.448-.1-.798-.302-1.05-.201-.251-.5-.377-.898-.377-.419 0-.746.148-.981.445-.235.29-.353.685-.353 1.182v.076c0 .526.13.926.386 1.2.263.268.63.402 1.1.402.251 0 .486-.036.704-.109a1.98 1.98 0 00.638-.377l.235.478c-.185.179-.42.319-.705.42-.28.095-.576.142-.89.142zm4.287 0c-.37 0-.694-.087-.974-.26a1.803 1.803 0 01-.654-.755c-.151-.324-.227-.713-.227-1.166 0-.459.076-.85.227-1.175.156-.324.375-.573.654-.746.28-.174.604-.26.974-.26.38 0 .707.095.981.285.28.19.467.447.562.772h-.1v-2.945h.68v6.175h-.672v-1.007h.092c-.09.336-.274.601-.553.797-.28.19-.61.285-.99.285zm.142-.554c.397 0 .716-.137.956-.41.241-.28.361-.686.361-1.217 0-.537-.12-.943-.36-1.217-.241-.28-.56-.42-.957-.42-.397 0-.716.14-.956.42-.235.274-.353.68-.353 1.217 0 .531.118.937.353 1.216.24.274.559.411.956.411zm5.148 2.35c-.363 0-.699-.045-1.007-.135a2.562 2.562 0 01-.83-.41l.201-.513c.173.123.344.221.512.294.168.073.341.126.52.16.18.039.37.058.57.058.414 0 .728-.109.94-.327.213-.218.32-.529.32-.931v-1.233h.083c-.09.33-.274.592-.554.788-.28.19-.607.285-.981.285a1.95 1.95 0 01-1.007-.251 1.767 1.767 0 01-.655-.73c-.15-.319-.226-.694-.226-1.124 0-.426.075-.795.226-1.108a1.71 1.71 0 01.655-.721 1.9 1.9 0 011.007-.26c.38 0 .707.095.981.285.28.19.465.453.554.788l-.084-.084.076-.914h.662a7.05 7.05 0 00-.067.973v3.214c0 .626-.162 1.099-.486 1.417-.32.32-.789.479-1.41.479zm-.1-2.517c.408 0 .73-.135.964-.403.235-.274.353-.657.353-1.15 0-.492-.118-.872-.353-1.14-.235-.269-.556-.403-.965-.403-.402 0-.724.134-.964.402-.24.269-.361.65-.361 1.142 0 .492.12.875.36 1.149.241.268.563.403.965.403zm5.172.721c-.66 0-1.18-.19-1.56-.57-.38-.386-.57-.92-.57-1.603 0-.442.083-.825.25-1.15.169-.33.403-.584.706-.763a1.956 1.956 0 011.04-.276c.386 0 .71.08.973.243.263.162.464.394.604.696.14.297.21.649.21 1.057v.252h-3.264v-.428h2.82l-.143.11c0-.448-.101-.798-.302-1.05-.202-.251-.501-.377-.898-.377-.42 0-.747.148-.982.445-.235.29-.352.685-.352 1.182v.076c0 .526.128.926.386 1.2.263.268.63.402 1.099.402.252 0 .486-.036.705-.109a1.98 1.98 0 00.637-.377l.235.478c-.184.179-.42.319-.705.42-.28.095-.576.142-.889.142zm4.88-.075v-4.212h.68v4.212h-.68zm-.084-5.169V29.8h.84v.764h-.84zm3.485 5.244a3.18 3.18 0 01-.94-.134 2.028 2.028 0 01-.722-.394l.235-.479c.207.163.431.283.672.361.246.079.5.118.763.118.336 0 .587-.06.755-.177a.585.585 0 00.26-.503.48.48 0 00-.168-.386c-.106-.1-.282-.179-.528-.235l-.78-.16c-.358-.078-.627-.209-.806-.394a1.011 1.011 0 01-.268-.721c0-.246.064-.462.193-.646.128-.19.316-.338.562-.445.246-.112.534-.168.864-.168.307 0 .59.048.847.143.263.09.481.221.655.394l-.244.47a1.603 1.603 0 00-.579-.36 1.789 1.789 0 00-.662-.126c-.33 0-.58.067-.747.201a.62.62 0 00-.243.512c0 .162.05.296.15.403.107.1.27.176.487.226l.78.16c.38.083.663.215.848.394.19.173.285.408.285.705 0 .251-.07.472-.21.662a1.34 1.34 0 01-.587.428c-.246.1-.537.151-.872.151zm6.55 0c-.374 0-.701-.087-.981-.26a1.803 1.803 0 01-.654-.755c-.151-.324-.227-.713-.227-1.166 0-.459.076-.85.227-1.175.156-.324.374-.573.654-.746.28-.174.607-.26.982-.26.38 0 .707.097.981.293.28.19.465.45.554.78h-.1l.092-.998h.654l-.05.495a6.942 6.942 0 00-.017.478v3.239h-.68v-.99h.093c-.09.33-.275.59-.554.78-.28.19-.604.285-.973.285zm.135-.554c.403 0 .721-.137.956-.41.235-.28.353-.686.353-1.217 0-.537-.118-.943-.353-1.217-.235-.28-.553-.42-.956-.42-.397 0-.716.14-.957.42-.234.274-.352.68-.352 1.217 0 .531.117.937.352 1.216.241.274.56.411.957.411zm5.481 2.29v-5.05a4.64 4.64 0 00-.025-.478 13.82 13.82 0 00-.042-.495h.655l.092.998h-.1c.089-.33.27-.59.545-.78.274-.196.6-.293.981-.293.38 0 .708.086.982.26.28.173.498.422.654.746.157.325.235.716.235 1.175 0 .453-.078.842-.235 1.166a1.747 1.747 0 01-.646.755c-.28.173-.61.26-.99.26-.374 0-.699-.095-.973-.285a1.349 1.349 0 01-.545-.78h.092v2.802h-.68zm1.972-2.29c.403 0 .721-.137.956-.41.24-.28.361-.686.361-1.217 0-.537-.12-.943-.36-1.217-.236-.28-.554-.42-.957-.42-.397 0-.716.14-.957.42-.234.274-.352.68-.352 1.217 0 .531.118.937.352 1.216.241.274.56.411.957.411zm3.042.479v-3.197c0-.168-.005-.338-.017-.512a7.179 7.179 0 00-.033-.503h.654l.084 1.023-.117.009c.056-.252.153-.459.293-.62.14-.163.305-.283.495-.362a1.46 1.46 0 01.596-.125c.084 0 .157.002.218.008.067.005.129.02.185.042l-.009.604a.984.984 0 00-.235-.05 1.444 1.444 0 00-.234-.017c-.247 0-.462.059-.647.176a1.184 1.184 0 00-.41.453c-.09.185-.135.38-.135.587v2.484h-.688zm4.744.075c-.403 0-.755-.087-1.057-.26a1.8 1.8 0 01-.688-.755c-.162-.33-.243-.719-.243-1.166 0-.453.08-.842.243-1.166.162-.325.391-.574.688-.747a2.035 2.035 0 011.057-.268c.408 0 .76.089 1.057.268.302.173.534.422.696.747.168.324.252.713.252 1.166 0 .447-.084.836-.252 1.166a1.784 1.784 0 01-.696.755c-.296.173-.649.26-1.057.26zm0-.554c.403 0 .721-.137.956-.41.235-.28.353-.686.353-1.217 0-.537-.12-.943-.361-1.217-.235-.28-.55-.42-.948-.42-.397 0-.713.14-.948.42-.235.274-.352.68-.352 1.217 0 .531.117.937.352 1.216.235.274.55.411.948.411zm4.659.554c-.37 0-.694-.087-.974-.26a1.803 1.803 0 01-.654-.755c-.15-.324-.226-.713-.226-1.166 0-.459.075-.85.226-1.175.157-.324.375-.573.654-.746.28-.174.605-.26.974-.26.38 0 .707.095.981.285.28.19.467.447.563.772h-.101v-2.945h.68v6.175h-.672v-1.007h.093c-.09.336-.275.601-.554.797-.28.19-.61.285-.99.285zm.142-.554c.397 0 .716-.137.957-.41.24-.28.36-.686.36-1.217 0-.537-.12-.943-.36-1.217-.24-.28-.56-.42-.957-.42-.397 0-.716.14-.956.42-.235.274-.352.68-.352 1.217 0 .531.117.937.352 1.216.24.274.56.411.956.411zm4.78.554c-.499 0-.876-.137-1.133-.41-.252-.275-.378-.694-.378-1.26V31.52h.68v2.6c0 .387.078.672.235.857.156.179.4.268.73.268.369 0 .665-.12.889-.36.224-.241.335-.563.335-.965v-2.4h.68v4.212h-.663v-.948h.11a1.503 1.503 0 01-.571.755 1.56 1.56 0 01-.915.268zm5.127 0c-.414 0-.775-.09-1.083-.268a1.827 1.827 0 01-.704-.764c-.162-.33-.244-.721-.244-1.174 0-.459.084-.848.252-1.166a1.73 1.73 0 01.705-.739 2.208 2.208 0 011.074-.252c.268 0 .528.048.78.143.257.095.47.23.638.403l-.244.486a1.659 1.659 0 00-.553-.36 1.549 1.549 0 00-.58-.118c-.436 0-.774.137-1.014.411-.241.274-.361.674-.361 1.2 0 .52.12.923.36 1.208.241.285.58.428 1.016.428a1.635 1.635 0 001.132-.47l.244.478a1.708 1.708 0 01-.646.411 2.213 2.213 0 01-.772.143zm3.877 0c-.414 0-.73-.117-.948-.352-.218-.24-.328-.602-.328-1.083v-2.324h-.822v-.528h.823v-1.15l.68-.192v1.342h1.207v.529h-1.208v2.248c0 .336.056.576.168.721.117.14.29.21.52.21.106 0 .201-.008.285-.025.084-.022.16-.047.227-.075v.57a1.168 1.168 0 01-.285.076 1.543 1.543 0 01-.32.033zm5.741 0c-.38 0-.707-.095-.981-.285a1.427 1.427 0 01-.554-.797h.092v1.007h-.67v-6.175h.679V32.5h-.101c.095-.325.28-.582.554-.772a1.68 1.68 0 01.981-.285c.381 0 .708.089.982.268.28.173.495.422.646.747.157.324.235.713.235 1.166 0 .453-.078.842-.235 1.166a1.81 1.81 0 01-.654.755c-.274.173-.599.26-.974.26zm-.142-.554c.397 0 .716-.137.956-.41.241-.275.361-.68.361-1.217s-.12-.943-.361-1.217c-.24-.28-.559-.42-.956-.42-.397 0-.716.14-.957.42-.235.274-.352.68-.352 1.217 0 .531.117.937.352 1.216.24.274.56.411.957.411zm2.834 2.383l-.16-.562c.263-.062.481-.134.655-.218.179-.078.327-.185.444-.319.118-.134.218-.302.302-.503l.218-.495-.016.285-1.838-4.304h.739l1.518 3.7h-.218l1.502-3.7h.713l-1.947 4.564a3.048 3.048 0 01-.369.671 1.93 1.93 0 01-.436.445c-.151.117-.319.21-.503.277-.185.067-.386.12-.604.16zm8.817-1.829c-.475 0-.9-.061-1.275-.184a3.015 3.015 0 01-.982-.529l.252-.554a4.3 4.3 0 00.587.37c.202.095.417.167.646.218.23.044.487.067.772.067.498 0 .867-.093 1.108-.277.24-.185.36-.43.36-.739 0-.262-.083-.464-.251-.603-.168-.14-.462-.252-.881-.336l-.881-.176c-.543-.112-.948-.294-1.217-.546-.263-.251-.394-.593-.394-1.023 0-.353.09-.66.268-.923a1.81 1.81 0 01.772-.613c.33-.145.713-.218 1.15-.218.419 0 .802.065 1.149.193a2.4 2.4 0 01.889.546l-.243.537a2.46 2.46 0 00-.83-.504 2.78 2.78 0 00-.974-.16c-.458 0-.822.101-1.09.303a.95.95 0 00-.395.805c0 .274.084.49.252.646.168.151.445.266.831.344l.889.176c.57.118.99.294 1.258.529.269.235.403.565.403.99 0 .324-.089.612-.268.864a1.697 1.697 0 01-.747.587c-.324.14-.71.21-1.158.21zm4.699 0c-.414 0-.73-.117-.948-.352-.218-.24-.327-.602-.327-1.083v-2.324h-.822v-.528h.822v-1.15l.68-.192v1.342h1.208v.529h-1.208v2.248c0 .336.056.576.167.721.118.14.291.21.521.21.106 0 .201-.008.285-.025.084-.022.159-.047.226-.075v.57a1.16 1.16 0 01-.285.076 1.537 1.537 0 01-.319.033zm3.127 0c-.402 0-.755-.087-1.057-.26a1.809 1.809 0 01-.688-.755c-.162-.33-.243-.719-.243-1.166 0-.453.081-.842.243-1.166.163-.325.392-.574.688-.747a2.037 2.037 0 011.057-.268c.409 0 .761.089 1.057.268.303.173.535.422.697.747.168.324.252.713.252 1.166 0 .447-.084.836-.252 1.166a1.778 1.778 0 01-.697.755c-.296.173-.648.26-1.057.26zm0-.554c.403 0 .722-.137.957-.41.235-.28.352-.686.352-1.217 0-.537-.12-.943-.361-1.217-.234-.28-.551-.42-.948-.42-.397 0-.713.14-.948.42-.235.274-.352.68-.352 1.217 0 .531.117.937.352 1.216.235.274.551.411.948.411zm3.065.479v-3.239c0-.156-.008-.316-.025-.478a12.75 12.75 0 00-.042-.495h.654l.084.923h-.1c.123-.325.318-.57.587-.738.274-.174.59-.26.948-.26.498 0 .872.134 1.124.402.257.263.386.68.386 1.25v2.635h-.679v-2.593c0-.397-.082-.685-.244-.864-.156-.184-.403-.277-.738-.277-.392 0-.702.12-.931.361-.23.24-.344.562-.344.965v2.408h-.68zm6.787.075c-.66 0-1.18-.19-1.561-.57-.38-.386-.57-.92-.57-1.603 0-.442.084-.825.252-1.15a1.82 1.82 0 01.704-.763 1.956 1.956 0 011.041-.276c.386 0 .71.08.973.243.263.162.464.394.604.696.14.297.21.649.21 1.057v.252h-3.264v-.428h2.819l-.143.11c0-.448-.1-.798-.302-1.05-.201-.251-.5-.377-.897-.377-.42 0-.747.148-.982.445-.235.29-.352.685-.352 1.182v.076c0 .526.128.926.386 1.2.263.268.629.402 1.099.402.251 0 .486-.036.704-.109.224-.078.437-.204.638-.377l.235.478c-.185.179-.42.319-.705.42a2.74 2.74 0 01-.889.142zm2.105-.075l2.358-3.155v.26l-2.249-3.02h.823l1.845 2.525h-.218l1.829-2.525h.831l-2.257 3.02v-.26l2.357 3.155h-.822l-1.971-2.677h.268l-1.972 2.677h-.822zm8.324 0v-5.915h3.691v.57h-2.995v2.073h2.811v.57h-2.811v2.702h-.696zm4.635 0v-4.212h.68v4.212h-.68zm-.084-5.169V29.8h.839v.764h-.839zm2.083 5.169v-3.239c0-.156-.008-.316-.025-.478a12.75 12.75 0 00-.042-.495h.655l.084.923h-.101c.123-.325.319-.57.587-.738.274-.174.59-.26.948-.26.498 0 .873.134 1.124.402.258.263.386.68.386 1.25v2.635h-.679v-2.593c0-.397-.081-.685-.243-.864-.157-.184-.403-.277-.739-.277-.391 0-.702.12-.931.361-.229.24-.344.562-.344.965v2.408h-.68zm6.519.075c-.375 0-.702-.087-.982-.26a1.795 1.795 0 01-.654-.755c-.151-.324-.227-.713-.227-1.166 0-.459.076-.85.227-1.175.156-.324.374-.573.654-.746.28-.174.607-.26.982-.26.38 0 .707.097.981.293.28.19.465.45.554.78h-.101l.093-.998h.654l-.05.495a7.072 7.072 0 00-.017.478v3.239h-.68v-.99h.093c-.09.33-.274.59-.554.78a1.69 1.69 0 01-.973.285zm.134-.554c.403 0 .722-.137.956-.41.235-.28.353-.686.353-1.217 0-.537-.118-.943-.353-1.217-.234-.28-.553-.42-.956-.42-.397 0-.716.14-.956.42-.235.274-.353.68-.353 1.217 0 .531.118.937.353 1.216.24.274.559.411.956.411zm3.294.479v-3.239c0-.156-.008-.316-.025-.478a12.75 12.75 0 00-.042-.495h.654l.084.923h-.101a1.44 1.44 0 01.588-.738c.274-.174.59-.26.948-.26.498 0 .872.134 1.124.402.257.263.386.68.386 1.25v2.635h-.68v-2.593c0-.397-.081-.685-.243-.864-.157-.184-.403-.277-.738-.277-.392 0-.702.12-.932.361-.229.24-.344.562-.344.965v2.408h-.679zm6.686.075c-.414 0-.775-.09-1.082-.268a1.83 1.83 0 01-.705-.764c-.162-.33-.243-.721-.243-1.174 0-.459.084-.848.251-1.166.168-.325.403-.571.705-.739a2.21 2.21 0 011.074-.252c.269 0 .529.048.78.143.258.095.47.23.638.403l-.243.486a1.665 1.665 0 00-.554-.36 1.551 1.551 0 00-.579-.118c-.436 0-.775.137-1.015.411-.241.274-.361.674-.361 1.2 0 .52.12.923.361 1.208.24.285.579.428 1.015.428a1.636 1.636 0 001.133-.47l.243.478a1.706 1.706 0 01-.646.411 2.214 2.214 0 01-.772.143zm2.384-.075v-4.212h.679v4.212h-.679zm-.084-5.169V29.8h.839v.764h-.839zm3.685 5.244c-.374 0-.702-.087-.981-.26a1.804 1.804 0 01-.655-.755c-.151-.324-.226-.713-.226-1.166 0-.459.075-.85.226-1.175.157-.324.375-.573.655-.746.279-.174.607-.26.981-.26.381 0 .708.097.982.293.28.19.464.45.554.78h-.101l.092-.998h.655l-.051.495a7.063 7.063 0 00-.016.478v3.239h-.68v-.99h.092c-.089.33-.274.59-.553.78-.28.19-.605.285-.974.285zm.135-.554c.402 0 .721-.137.956-.41.235-.28.352-.686.352-1.217 0-.537-.117-.943-.352-1.217-.235-.28-.554-.42-.956-.42-.398 0-.716.14-.957.42-.235.274-.352.68-.352 1.217 0 .531.117.937.352 1.216.241.274.559.411.957.411zm3.293.479v-6.175h.68v6.175h-.68zm4.263 0v-5.915h.696v5.915h-.696zm2.095 0v-3.239c0-.156-.008-.316-.025-.478a12.75 12.75 0 00-.042-.495h.655l.084.923h-.101c.123-.325.319-.57.587-.738.274-.174.59-.26.948-.26.498 0 .873.134 1.124.402.258.263.386.68.386 1.25v2.635h-.679v-2.593c0-.397-.081-.685-.244-.864-.156-.184-.402-.277-.738-.277-.391 0-.702.12-.931.361-.229.24-.344.562-.344.965v2.408h-.68zm6.687.075c-.414 0-.775-.09-1.083-.268a1.82 1.82 0 01-.704-.764c-.163-.33-.244-.721-.244-1.174 0-.459.084-.848.252-1.166.168-.325.403-.571.705-.739a2.205 2.205 0 011.074-.252c.268 0 .528.048.78.143.257.095.47.23.637.403l-.243.486a1.655 1.655 0 00-.554-.36 1.543 1.543 0 00-.579-.118c-.436 0-.774.137-1.015.411-.24.274-.36.674-.36 1.2 0 .52.12.923.36 1.208.241.285.579.428 1.015.428a1.636 1.636 0 001.133-.47l.243.478a1.698 1.698 0 01-.646.411 2.208 2.208 0 01-.771.143zm2.331-.075v-.856h.856v.856h-.856zm3.568-2.081v-.445h4.237v.445h-4.237zm7.162 2.08v-5.914h3.691v.57h-2.995v2.073h2.811v.57h-2.811v2.702h-.696zm7.147.076c-.593 0-1.096-.123-1.51-.369a2.445 2.445 0 01-.956-1.049c-.219-.453-.328-.992-.328-1.619 0-.626.109-1.163.328-1.61.223-.454.542-.803.956-1.05.414-.246.917-.369 1.51-.369.42 0 .794.065 1.124.193.33.129.618.316.865.562l-.261.554a2.842 2.842 0 00-.797-.512 2.336 2.336 0 00-.922-.167c-.677 0-1.192.21-1.544.629-.353.42-.529 1.01-.529 1.77s.176 1.354.529 1.779c.352.42.867.629 1.544.629.352 0 .66-.053.922-.16.263-.111.529-.288.797-.528l.261.562c-.247.24-.535.428-.865.562-.33.129-.704.193-1.124.193zm3.168-.075v-5.915h.604l2.374 5.36h-.243l2.374-5.36h.605v5.915h-.638v-5.017h.252l-2.24 5.017h-.462l-2.248-5.017h.251v5.017h-.629zm9.381 0v-5.915h1.963c.655 0 1.208.114 1.661.344.454.224.797.556 1.032.998.235.436.353.973.353 1.611 0 .632-.118 1.169-.353 1.61a2.328 2.328 0 01-1.032 1.008c-.453.229-1.006.344-1.661.344h-1.963zm.696-.596h1.217c.805 0 1.404-.196 1.795-.587.392-.397.588-.99.588-1.779 0-.794-.196-1.387-.588-1.779-.391-.391-.99-.587-1.795-.587h-1.217v4.732zm5.496.596v-4.212h.68v4.212h-.68zm-.084-5.169V29.8h.839v.764h-.839zm3.325 5.169l-1.804-4.212h.739l1.51 3.708h-.227l1.527-3.708h.705l-1.804 4.212h-.646zm3.216 0v-4.212h.679v4.212h-.679zm-.084-5.169V29.8h.839v.764h-.839zm3.484 5.244a3.18 3.18 0 01-.94-.134 2.022 2.022 0 01-.721-.394l.235-.479c.206.163.43.283.671.361.246.079.5.118.763.118.336 0 .587-.06.755-.177a.583.583 0 00.26-.503.482.482 0 00-.167-.386c-.107-.1-.283-.179-.529-.235l-.78-.16c-.358-.078-.627-.209-.806-.394a1.01 1.01 0 01-.268-.721c0-.246.064-.462.193-.646.128-.19.316-.338.562-.445a2.07 2.07 0 01.864-.168c.308 0 .59.048.847.143.263.09.481.221.655.394l-.243.47a1.607 1.607 0 00-.579-.36 1.793 1.793 0 00-.663-.126c-.33 0-.579.067-.747.201a.62.62 0 00-.243.512c0 .162.05.296.151.403.106.1.268.176.486.226l.781.16c.38.083.663.215.847.394.19.173.285.408.285.705 0 .251-.07.472-.209.662-.14.185-.336.328-.588.428-.246.1-.537.151-.872.151zm2.761-.075v-4.212h.679v4.212h-.679zm-.084-5.169V29.8h.839v.764h-.839zm3.811 5.244c-.402 0-.755-.087-1.057-.26a1.803 1.803 0 01-.688-.755c-.162-.33-.243-.719-.243-1.166 0-.453.081-.842.243-1.166.162-.325.392-.574.688-.747a2.037 2.037 0 011.057-.268c.409 0 .761.089 1.057.268.302.173.535.422.697.747.168.324.251.713.251 1.166 0 .447-.083.836-.251 1.166a1.785 1.785 0 01-.697.755c-.296.173-.648.26-1.057.26zm0-.554c.403 0 .722-.137.957-.41.235-.28.352-.686.352-1.217 0-.537-.12-.943-.361-1.217-.235-.28-.551-.42-.948-.42-.397 0-.713.14-.948.42-.235.274-.352.68-.352 1.217 0 .531.117.937.352 1.216.235.274.551.411.948.411zm3.065.479v-3.239c0-.156-.008-.316-.025-.478a12.75 12.75 0 00-.042-.495h.654l.084.923h-.101c.124-.325.319-.57.588-.738.274-.174.59-.26.948-.26.498 0 .872.134 1.124.402.257.263.386.68.386 1.25v2.635h-.68v-2.593c0-.397-.081-.685-.243-.864-.157-.184-.403-.277-.738-.277-.392 0-.702.12-.931.361-.23.24-.344.562-.344.965v2.408h-.68z" fill="#000"/></svg>