<svg width="174" height="29" viewBox="0 0 174 29" fill="none" xmlns="http://www.w3.org/2000/svg"><path d="M85.417 11.946h.97l.927-2.883.895 2.883h.96l1.41-4.242h-.912l-1.002 3.248-.928-3.248h-.82l-.97 3.248-.97-3.248h-.944l1.384 4.242zm6.088-4.839a.53.53 0 00.547-.538.53.53 0 00-.547-.539.53.53 0 00-.547.539c0 .315.24.538.547.538zm-.456 4.839h.895V7.704h-.895v4.242zm2.079-1.152c0 .77.348 1.152 1.16 1.152h.828v-.787h-.63c-.339 0-.455-.124-.455-.456V8.491h1.036v-.787H94.03V6.519h-.903v1.185h-.737v.787h.737v2.303zm4.786-3.14c-.663 0-1.069.299-1.334.663v-2.17h-.894v5.799h.894V9.8c0-.853.431-1.375 1.135-1.375.663 0 1.02.43 1.02 1.234v2.287h.894V9.585c0-1.417-.77-1.93-1.715-1.93zm4.649 4.292h.895v-5.8h-.895v5.8zm3.777.05c1.292 0 2.162-.87 2.162-2.171 0-1.292-.87-2.17-2.162-2.17-1.293 0-2.163.878-2.163 2.17 0 1.3.87 2.17 2.163 2.17zm0-.763c-.754 0-1.243-.588-1.243-1.408s.489-1.408 1.243-1.408c.754 0 1.251.588 1.251 1.408s-.497 1.409-1.251 1.409zm3.714.713h.969l.928-2.883.895 2.883h.961l1.408-4.242h-.911l-1.002 3.248-.928-3.248h-.821l-.969 3.248-.969-3.248h-.945l1.384 4.242zm7.5.05c1.052 0 1.765-.638 1.914-1.475h-.895c-.124.472-.522.746-1.069.746-.704 0-1.16-.473-1.184-1.194v-.058h3.198a2.52 2.52 0 00.025-.34c-.025-1.242-.846-2.02-2.072-2.02-1.251 0-2.088.87-2.088 2.178 0 1.301.837 2.163 2.171 2.163zm-1.201-2.635c.066-.605.555-.986 1.127-.986.621 0 1.06.356 1.135.986h-2.262zm6.059-1.657c-.696 0-1.036.282-1.251.638l-.1-.638h-.795v4.242h.895v-2.13c0-.654.257-1.275 1.052-1.275h.398v-.837h-.199zm4.817 4.292c1.086 0 1.806-.605 1.972-1.566h-.944c-.108.489-.473.803-1.019.803-.721 0-1.193-.571-1.193-1.4 0-.837.472-1.416 1.193-1.416.555 0 .911.306 1.027.803h.936c-.174-.96-.853-1.566-1.947-1.566-1.284 0-2.129.87-2.129 2.18 0 1.325.82 2.162 2.104 2.162zm4.662 0c1.293 0 2.163-.87 2.163-2.171 0-1.292-.87-2.17-2.163-2.17-1.292 0-2.162.878-2.162 2.17 0 1.3.87 2.17 2.162 2.17zm0-.763c-.754 0-1.243-.588-1.243-1.408s.489-1.408 1.243-1.408c.754 0 1.251.588 1.251 1.408s-.497 1.409-1.251 1.409zm7.762-3.579c-.696 0-1.177.307-1.45.77-.257-.546-.754-.77-1.309-.77-.638.009-1.002.29-1.243.605l-.099-.555h-.779v4.242h.895v-2.27c0-.754.381-1.251.994-1.251.588 0 .895.39.895 1.135v2.386h.903V9.651c0-.762.389-1.226 1.002-1.226.58 0 .887.39.887 1.135v2.386h.895V9.502c0-1.342-.713-1.848-1.591-1.848zm7.282 0c-.696 0-1.177.307-1.45.77-.257-.546-.754-.77-1.309-.77-.638.009-1.003.29-1.243.605l-.099-.555h-.779v4.242h.895v-2.27c0-.754.381-1.251.994-1.251.588 0 .895.39.895 1.135v2.386h.903V9.651c0-.762.389-1.226 1.002-1.226.58 0 .887.39.887 1.135v2.386h.895V9.502c0-1.342-.713-1.848-1.591-1.848zm2.857-.547a.53.53 0 00.547-.538.53.53 0 00-.547-.539.529.529 0 00-.546.539c0 .315.24.538.546.538zm-.455 4.839h.895V7.704h-.895v4.242zm1.589-1.4c.025.92.804 1.45 1.939 1.45 1.028 0 1.798-.514 1.798-1.326 0-.944-.787-1.143-1.756-1.26-.614-.066-1.019-.115-1.019-.513 0-.34.347-.555.878-.555.53 0 .895.273.944.663h.878c-.058-.87-.795-1.35-1.839-1.35-1.019-.009-1.74.513-1.74 1.317 0 .878.763 1.085 1.732 1.201.654.083 1.044.116 1.044.572 0 .34-.365.555-.92.555-.646 0-1.027-.315-1.06-.754h-.879zm4.167 0c.025.92.804 1.45 1.939 1.45 1.027 0 1.798-.514 1.798-1.326 0-.944-.787-1.143-1.757-1.26-.613-.066-1.019-.115-1.019-.513 0-.34.348-.555.879-.555.53 0 .894.273.944.663h.878c-.058-.87-.795-1.35-1.839-1.35-1.019-.009-1.74.513-1.74 1.317 0 .878.762 1.085 1.732 1.201.654.083 1.044.116 1.044.572 0 .34-.365.555-.92.555-.646 0-1.027-.315-1.061-.754h-.878zm4.886-3.439a.53.53 0 00.547-.538.53.53 0 00-.547-.539.53.53 0 00-.547.539c0 .315.24.538.547.538zm-.456 4.839h.895V7.704h-.895v4.242zm3.777.05c1.293 0 2.163-.87 2.163-2.171 0-1.292-.87-2.17-2.163-2.17-1.292 0-2.162.878-2.162 2.17 0 1.3.87 2.17 2.162 2.17zm0-.763c-.754 0-1.243-.588-1.243-1.408s.489-1.408 1.243-1.408c.754 0 1.251.588 1.251 1.408s-.497 1.409-1.251 1.409zm5.119-3.579c-.688 0-1.093.274-1.359.605l-.099-.555h-.779v4.242h.895V9.808c0-.861.423-1.383 1.135-1.383.671 0 1.011.43 1.011 1.234v2.287h.903V9.585c0-1.417-.771-1.93-1.707-1.93zm2.438 3.778c0 .332.24.564.571.564.332 0 .58-.232.58-.564 0-.331-.248-.563-.58-.563-.331 0-.571.232-.571.563z" fill="#000"/><path d="M.234 4.66h2.524v6.988h1.344V4.66h2.524V3.468H.234V4.66zm11.823 5.89c-.257 0-.386-.082-.386-.386V7.768c0-1.414-.911-2.173-2.5-2.173-1.508 0-2.513.724-2.642 1.893h1.24c.093-.526.595-.877 1.343-.877.83 0 1.309.41 1.309 1.076v.362H8.913c-1.67 0-2.559.69-2.559 1.916 0 1.11.912 1.753 2.22 1.753.97 0 1.578-.42 1.975-1.028 0 .596.28.958 1.099.958h.666V10.55h-.257zM10.42 9.194c-.012.923-.62 1.543-1.671 1.543-.69 0-1.11-.351-1.11-.853 0-.608.432-.9 1.215-.9h1.566v.21zM13 11.648h1.263v-1.52l1.075-1.12 1.764 2.64H18.6l-2.396-3.564 2.256-2.42h-1.484l-2.712 2.899V3.468h-1.262v8.18zm8.672.07c1.484 0 2.489-.9 2.699-2.08H23.11c-.175.666-.736 1.052-1.508 1.052-.993 0-1.636-.666-1.67-1.683v-.082h4.51c.023-.163.035-.327.035-.479-.035-1.753-1.192-2.851-2.921-2.851-1.765 0-2.945 1.227-2.945 3.073 0 1.835 1.18 3.05 3.062 3.05zm-1.695-3.716c.094-.853.783-1.39 1.59-1.39.876 0 1.495.502 1.6 1.39h-3.19zm13.978 2.548c-.257 0-.385-.082-.385-.386V7.768c0-1.414-.912-2.173-2.5-2.173-1.508 0-2.513.724-2.642 1.893h1.239c.093-.526.596-.877 1.344-.877.83 0 1.308.41 1.308 1.076v.362h-1.507c-1.671 0-2.56.69-2.56 1.916 0 1.11.912 1.753 2.221 1.753.97 0 1.578-.42 1.975-1.028 0 .596.28.958 1.099.958h.666V10.55h-.258zM32.32 9.194c-.011.923-.619 1.543-1.67 1.543-.69 0-1.11-.351-1.11-.853 0-.608.432-.9 1.215-.9h1.565v.21zm8.773-3.6c-.935 0-1.554.433-1.952.959l-.152-.888h-1.098v8.32h1.262v-3.178c.374.537 1.017.911 1.94.911 1.636 0 2.828-1.215 2.828-3.061 0-1.917-1.192-3.062-2.828-3.062zm-.21 5.06c-1.052 0-1.742-.829-1.742-2.02 0-1.158.69-1.964 1.742-1.964 1.051 0 1.752.806 1.752 1.987 0 1.168-.7 1.998-1.752 1.998zm6.877 1.064c1.823 0 3.05-1.227 3.05-3.061 0-1.823-1.227-3.062-3.05-3.062-1.823 0-3.05 1.239-3.05 3.062 0 1.834 1.227 3.061 3.05 3.061zm0-1.075c-1.063 0-1.753-.83-1.753-1.986 0-1.157.69-1.987 1.753-1.987 1.064 0 1.765.83 1.765 1.987 0 1.156-.701 1.986-1.765 1.986zm3.774-.97c.035 1.297 1.133 2.045 2.734 2.045 1.45 0 2.536-.724 2.536-1.87 0-1.332-1.11-1.612-2.477-1.776-.865-.093-1.438-.163-1.438-.724 0-.48.491-.783 1.239-.783.748 0 1.262.385 1.332.935H56.7c-.082-1.227-1.122-1.905-2.594-1.905-1.438-.012-2.454.724-2.454 1.858 0 1.239 1.075 1.53 2.442 1.694.923.117 1.472.164 1.472.807 0 .479-.514.783-1.297.783-.911 0-1.449-.444-1.496-1.064h-1.238zm6.89-4.85c.433 0 .772-.315.772-.759s-.339-.76-.771-.76c-.433 0-.771.316-.771.76s.338.76.77.76zm-.642 6.825h1.262V5.665h-1.262v5.983zm2.932-1.624c0 1.087.49 1.624 1.636 1.624h1.168v-1.11h-.888c-.479 0-.643-.175-.643-.643v-3.12h1.461v-1.11h-1.46V3.994h-1.274v1.67h-1.04v1.111h1.04v3.249zm4.25-5.2c.432 0 .771-.316.771-.76s-.339-.76-.771-.76c-.433 0-.771.316-.771.76s.338.76.77.76zm-.643 6.824h1.262V5.665h-1.262v5.983zm5.327.07c1.823 0 3.05-1.227 3.05-3.061 0-1.823-1.227-3.062-3.05-3.062-1.823 0-3.05 1.239-3.05 3.062 0 1.834 1.227 3.061 3.05 3.061zm0-1.075c-1.063 0-1.752-.83-1.752-1.986 0-1.157.689-1.987 1.752-1.987 1.064 0 1.765.83 1.765 1.987 0 1.156-.701 1.986-1.765 1.986zm7.22-5.048c-.97 0-1.542.385-1.916.853l-.14-.783h-1.099v5.983h1.262V8.633c0-1.215.596-1.951 1.601-1.951.947 0 1.426.607 1.426 1.74v3.226h1.274v-3.33c0-1.999-1.087-2.723-2.408-2.723z" fill="url(#paint0_linear_2_437)"/><defs><linearGradient id="paint0_linear_2_437" x1="94" y1="9.302" x2="0" y2="9.302" gradientUnits="userSpaceOnUse"><stop stop-color="#FF4343"/><stop offset=".5" stop-color="#9C0B93"/><stop offset="1" stop-color="#4C1BB7"/></linearGradient></defs></svg>