<svg width="320" height="50" viewBox="0 0 320 50" fill="none" xmlns="http://www.w3.org/2000/svg"><path d="M20.159 26.816c0-4.336-7.392-1.904-7.392-5.2 0-1.552 1.2-2.272 3.056-2.272 2.128 0 3.168.864 3.28 2.672 0 .064.064.128.128.128h.592a.138.138 0 00.128-.128c-.16-2.24-1.616-3.376-4.128-3.376-2.224 0-3.824 1.04-3.824 3.04 0 4.128 7.376 1.648 7.376 5.2 0 1.84-1.44 2.576-3.232 2.576-2.448 0-3.408-1.216-3.536-3.232a.138.138 0 00-.128-.128h-.592a.138.138 0 00-.128.128c.112 2.448 1.552 3.92 4.336 3.92 2.288 0 4.064-1.088 4.064-3.328zm7.712.272c-.064 0-.144.048-.144.128-.272 1.456-1.12 2.336-2.608 2.336-1.952 0-2.928-1.36-2.928-3.68l6.224-.016a.138.138 0 00.128-.128c-.048-2.624-1.36-4.144-3.536-4.144-2.224 0-3.616 1.792-3.616 4.32 0 2.528 1.28 4.272 3.712 4.272 1.968 0 3.088-1.152 3.392-2.96 0-.064-.048-.128-.112-.128h-.512zm-.176-1.872h-5.472c.192-1.84 1.152-3.008 2.784-3.008 1.744 0 2.672 1.344 2.688 3.008zM30.719 30a.138.138 0 00.128-.128l-.016-3.408v-1.792c.544-1.504 1.376-2.432 2.608-2.432 1.248 0 2.08.752 2.08 2.736v1.488l-.032 3.408c0 .064.064.128.128.128h.56a.138.138 0 00.128-.128l-.016-3.408v-1.568c0-2.256-1.024-3.328-2.688-3.328-1.424 0-2.336.96-2.8 1.888l.032-1.568a.138.138 0 00-.128-.128h-.544a.138.138 0 00-.128.128l.032 4.496-.032 3.488c0 .064.064.128.128.128h.56zm7.783-4.192c0-2 .832-3.616 2.688-3.616 1.664 0 2.64 1.424 2.624 3.776-.016 2.368-1.088 3.568-2.656 3.568-1.84 0-2.656-1.664-2.656-3.728zM44.422 30a.138.138 0 00.128-.128l-.032-6.576.032-4.368a.138.138 0 00-.128-.128h-.56a.138.138 0 00-.128.128l.016 4.384c-.528-1.12-1.472-1.728-2.736-1.728-2.128 0-3.296 1.936-3.296 4.304 0 2.4 1.136 4.272 3.296 4.272 1.312 0 2.256-.688 2.768-1.824l-.032 1.536c0 .064.064.128.128.128h.544zm5.634-5.328c.544-1.488 1.312-2.432 2.464-2.432 1.184 0 1.952.736 1.952 2.736v1.584l-.032 3.312c0 .064.064.128.128.128h.56a.138.138 0 00.128-.128l-.016-3.312v-1.664c0-.192 0-.368-.016-.544.528-1.296 1.264-2.112 2.336-2.112 1.184 0 1.952.736 1.952 2.736v1.584l-.032 3.312c0 .064.064.128.128.128h.56a.138.138 0 00.128-.128l-.016-3.312v-1.664c0-2.288-.96-3.328-2.544-3.328-1.296 0-2.16.88-2.656 1.888-.336-1.296-1.184-1.888-2.384-1.888-1.344 0-2.192.944-2.656 1.888l.032-1.568a.138.138 0 00-.128-.128H49.4a.138.138 0 00-.128.128l.032 4.672-.048 3.312c0 .064.064.128.128.128h.576a.138.138 0 00.128-.128l-.032-3.312v-1.888zm19.013 1.216c0-2.576-1.296-4.304-3.68-4.304-2.368 0-3.68 1.728-3.68 4.304 0 2.576 1.312 4.288 3.68 4.288 2.384 0 3.68-1.728 3.68-4.288zm-6.544 0c0-2.24.96-3.664 2.864-3.68 1.904 0 2.864 1.456 2.864 3.68 0 2.24-.944 3.664-2.864 3.664-1.904 0-2.864-1.424-2.864-3.664zM71.241 30a.138.138 0 00.128-.128l-.016-3.408v-1.792c.544-1.504 1.376-2.432 2.608-2.432 1.248 0 2.08.752 2.08 2.736v1.488l-.032 3.408c0 .064.064.128.128.128h.56a.138.138 0 00.128-.128l-.016-3.408v-1.568c0-2.256-1.024-3.328-2.688-3.328-1.424 0-2.336.96-2.8 1.888l.032-1.568a.138.138 0 00-.128-.128h-.544a.138.138 0 00-.128.128l.032 4.496-.032 3.488c0 .064.064.128.128.128h.56zm13.48-2.912c-.065 0-.145.048-.145.128-.272 1.456-1.12 2.336-2.608 2.336-1.952 0-2.928-1.36-2.928-3.68l6.224-.016a.138.138 0 00.128-.128c-.048-2.624-1.36-4.144-3.536-4.144-2.224 0-3.616 1.792-3.616 4.32 0 2.528 1.28 4.272 3.712 4.272 1.968 0 3.088-1.152 3.392-2.96 0-.064-.048-.128-.112-.128h-.512zm-.177-1.872h-5.472c.192-1.84 1.152-3.008 2.784-3.008 1.744 0 2.672 1.344 2.688 3.008zm8.09-3.328c.031-.064-.017-.128-.08-.128h-.593c-.08 0-.144.048-.176.128l-2.32 6.992-2.704-7.008a.197.197 0 00-.176-.112h-.64c-.064 0-.112.064-.08.112l3.2 8.096-.928 2.624c-.032.064.016.128.08.128h.496c.08 0 .144-.048.176-.128l3.744-10.704zm4.272 3.92c0-2 .832-3.584 2.688-3.584 1.664 0 2.64 1.392 2.624 3.744-.016 2.352-1.056 3.552-2.656 3.552-1.84 0-2.656-1.648-2.656-3.712zm5.92 4.192a.138.138 0 00.128-.128l-.048-4.144.048-3.84a.138.138 0 00-.128-.128h-.544a.138.138 0 00-.128.128l.032 1.488c-.528-1.152-1.472-1.776-2.768-1.776-2.128 0-3.296 1.92-3.296 4.288 0 2.4 1.136 4.256 3.296 4.256 1.312 0 2.256-.688 2.768-1.824l-.032 1.552c0 .064.064.128.128.128h.544zm2.624 0a.138.138 0 00.128-.128l-.016-3.408v-1.792c.544-1.504 1.376-2.432 2.608-2.432 1.248 0 2.08.752 2.08 2.736v1.488l-.032 3.408c0 .064.064.128.128.128h.56a.138.138 0 00.128-.128l-.016-3.408v-1.568c0-2.256-1.024-3.328-2.688-3.328-1.424 0-2.336.96-2.8 1.888l.032-1.568a.138.138 0 00-.128-.128h-.544a.138.138 0 00-.128.128l.032 4.496-.032 3.488c0 .064.064.128.128.128h.56zm13.197-8.112c.032-.064-.016-.128-.08-.128h-.592c-.08 0-.144.048-.176.128l-2.32 6.992-2.704-7.008a.197.197 0 00-.176-.112h-.64c-.064 0-.112.064-.08.112l3.2 8.096-.928 2.624c-.032.064.016.128.08.128h.496c.08 0 .144-.048.176-.128l3.744-10.704zm4.805 7.568c0-.064-.064-.112-.128-.096-.224.048-.528.08-.816.08-.8 0-1.136-.368-1.136-1.6v-5.424h1.952a.138.138 0 00.128-.128v-.4a.138.138 0 00-.128-.128h-1.952l.016-1.936a.138.138 0 00-.128-.128h-.56a.138.138 0 00-.128.128l.032 1.936h-.944a.138.138 0 00-.128.128v.4c0 .064.064.128.128.128h.944l-.016 5.424c0 1.744.8 2.288 1.872 2.288.288 0 .624-.064.864-.128a.156.156 0 00.128-.16v-.384zm2.069-8.768a.138.138 0 00.128-.128v-.864a.138.138 0 00-.128-.128h-.56a.138.138 0 00-.128.128v.864c0 .064.064.128.128.128h.56zm0 9.312a.138.138 0 00.128-.128l-.016-4.24.016-3.744a.138.138 0 00-.128-.128h-.56a.138.138 0 00-.128.128l.032 3.76-.032 4.224c0 .064.064.128.128.128h.56zm2.821-5.328c.544-1.488 1.312-2.432 2.464-2.432 1.184 0 1.952.736 1.952 2.736v1.584l-.032 3.312c0 .064.064.128.128.128h.56a.138.138 0 00.128-.128l-.016-3.312v-1.664c0-.192 0-.368-.016-.544.528-1.296 1.264-2.112 2.336-2.112 1.184 0 1.952.736 1.952 2.736v1.584l-.032 3.312c0 .064.064.128.128.128h.56a.138.138 0 00.128-.128l-.016-3.312v-1.664c0-2.288-.96-3.328-2.544-3.328-1.296 0-2.16.88-2.656 1.888-.336-1.296-1.184-1.888-2.384-1.888-1.344 0-2.192.944-2.656 1.888l.032-1.568a.138.138 0 00-.128-.128h-.544a.138.138 0 00-.128.128l.032 4.672-.048 3.312c0 .064.064.128.128.128h.576a.138.138 0 00.128-.128l-.032-3.312v-1.888zm18.133 2.416c-.064 0-.144.048-.144.128-.272 1.456-1.12 2.336-2.608 2.336-1.952 0-2.928-1.36-2.928-3.68l6.224-.016a.138.138 0 00.128-.128c-.048-2.624-1.36-4.144-3.536-4.144-2.224 0-3.616 1.792-3.616 4.32 0 2.528 1.28 4.272 3.712 4.272 1.968 0 3.088-1.152 3.392-2.96 0-.064-.048-.128-.112-.128h-.512zm-.176-1.872h-5.472c.192-1.84 1.152-3.008 2.784-3.008 1.744 0 2.672 1.344 2.688 3.008zm1.784 6.096c.08 0 .16-.048.192-.112l.656-1.104a.593.593 0 00.064-.24v-.896a.138.138 0 00-.128-.128h-.608a.138.138 0 00-.128.128v1.024l-.336 1.2c-.016.064.032.128.096.128h.192zm5.531-5.504c0-2 .832-3.584 2.688-3.584 1.664 0 2.64 1.392 2.624 3.744-.016 2.352-1.056 3.552-2.656 3.552-1.84 0-2.656-1.648-2.656-3.712zm5.92 4.192a.138.138 0 00.128-.128l-.048-4.144.048-3.84a.138.138 0 00-.128-.128h-.544a.138.138 0 00-.128.128l.032 1.488c-.528-1.152-1.472-1.776-2.768-1.776-2.128 0-3.296 1.92-3.296 4.288 0 2.4 1.136 4.256 3.296 4.256 1.312 0 2.256-.688 2.768-1.824l-.032 1.552c0 .064.064.128.128.128h.544zm2.624 0a.138.138 0 00.128-.128l-.016-3.408v-1.792c.544-1.504 1.376-2.432 2.608-2.432 1.248 0 2.08.752 2.08 2.736v1.488l-.032 3.408c0 .064.064.128.128.128h.56a.138.138 0 00.128-.128l-.016-3.408v-1.568c0-2.256-1.024-3.328-2.688-3.328-1.424 0-2.336.96-2.8 1.888l.032-1.568a.138.138 0 00-.128-.128h-.544a.138.138 0 00-.128.128l.032 4.496-.032 3.488c0 .064.064.128.128.128h.56zm13.198-8.112c.032-.064-.016-.128-.08-.128h-.592c-.08 0-.144.048-.176.128l-2.32 6.992-2.704-7.008a.197.197 0 00-.176-.112h-.64c-.064 0-.112.064-.08.112l3.2 8.096-.928 2.624c-.032.064.016.128.08.128h.496c.08 0 .144-.048.176-.128l3.744-10.704zM184.287 30c.08 0 .144-.048.16-.128l2.224-7.984c.016-.064-.032-.128-.096-.128h-.496a.156.156 0 00-.16.128l-1.936 7.312-2.032-7.312a.156.156 0 00-.16-.128h-.672a.156.156 0 00-.16.128l-1.904 7.344-2.08-7.344a.156.156 0 00-.16-.128h-.544c-.064 0-.112.064-.096.128l2.4 7.984c.016.08.08.128.16.128h.64c.08 0 .144-.048.16-.128l1.872-7.424 2.064 7.424c.016.08.08.128.16.128h.656zm9.084-5.024l.016 1.568-.032 3.328c0 .064.064.128.128.128h.56a.138.138 0 00.128-.128l-.016-3.344V24.96c0-2.336-1.024-3.392-2.704-3.392-1.424 0-2.32.928-2.8 1.872l.048-4.512a.138.138 0 00-.128-.128h-.56a.138.138 0 00-.128.128l.048 5.344-.048 5.6c0 .064.064.128.128.128h.56a.138.138 0 00.128-.128l-.048-5.216c.544-1.472 1.408-2.432 2.656-2.432 1.232 0 2.064.752 2.064 2.752zm8.68 2.112c-.064 0-.144.048-.144.128-.272 1.456-1.12 2.336-2.608 2.336-1.952 0-2.928-1.36-2.928-3.68l6.224-.016a.138.138 0 00.128-.128c-.048-2.624-1.36-4.144-3.536-4.144-2.224 0-3.616 1.792-3.616 4.32 0 2.528 1.28 4.272 3.712 4.272 1.968 0 3.088-1.152 3.392-2.96 0-.064-.048-.128-.112-.128h-.512zm-.176-1.872h-5.472c.192-1.84 1.152-3.008 2.784-3.008 1.744 0 2.672 1.344 2.688 3.008zM204.883 30a.138.138 0 00.128-.128l-.032-4.992c.304-1.76 1.472-2.528 2.656-2.528.24 0 .432.016.592.064.064.016.128-.032.128-.096v-.432a.172.172 0 00-.128-.16 1.997 1.997 0 00-.56-.064c-1.12 0-2.16.624-2.704 1.744l.048-1.52a.138.138 0 00-.128-.128h-.56a.138.138 0 00-.128.128l.048 3.856-.048 4.128c0 .064.064.128.128.128h.56zm10.026-2.912c-.064 0-.144.048-.144.128-.272 1.456-1.12 2.336-2.608 2.336-1.952 0-2.928-1.36-2.928-3.68l6.224-.016a.138.138 0 00.128-.128c-.048-2.624-1.36-4.144-3.536-4.144-2.224 0-3.616 1.792-3.616 4.32 0 2.528 1.28 4.272 3.712 4.272 1.968 0 3.088-1.152 3.392-2.96 0-.064-.048-.128-.112-.128h-.512zm-.176-1.872h-5.472c.192-1.84 1.152-3.008 2.784-3.008 1.744 0 2.672 1.344 2.688 3.008zm10.581 3.088l-.032 1.568c0 .064.064.128.128.128h.544a.138.138 0 00.128-.128l-.032-4.496.032-3.488a.138.138 0 00-.128-.128h-.56a.138.138 0 00-.128.128l.016 3.408v1.792c-.544 1.504-1.376 2.432-2.608 2.432-1.248 0-2.08-.752-2.08-2.736v-1.488l.032-3.408a.138.138 0 00-.128-.128h-.56a.138.138 0 00-.128.128l.016 3.408v1.568c0 2.256 1.024 3.328 2.688 3.328 1.424 0 2.336-.96 2.8-1.888zm8.855-.56c0-3.424-5.68-1.488-5.68-3.92 0-1.088.88-1.632 2.24-1.632 1.328 0 2.384.544 2.464 1.872 0 .064.064.128.128.128h.48a.138.138 0 00.128-.128c-.08-1.712-1.456-2.464-3.184-2.464-1.76 0-3.024.768-3.024 2.256 0 3.2 5.68 1.264 5.68 3.936 0 1.136-1.008 1.776-2.416 1.776-1.696 0-2.624-.752-2.672-2.368a.138.138 0 00-.128-.128h-.512a.138.138 0 00-.128.128c.048 2.016 1.36 2.96 3.424 2.96 1.792 0 3.2-.896 3.2-2.416zm2.191-7.056a.138.138 0 00.128-.128v-.864a.138.138 0 00-.128-.128h-.56a.138.138 0 00-.128.128v.864c0 .064.064.128.128.128h.56zm0 9.312a.138.138 0 00.128-.128l-.016-4.24.016-3.744a.138.138 0 00-.128-.128h-.56a.138.138 0 00-.128.128l.032 3.76-.032 4.224c0 .064.064.128.128.128h.56zm2.725 0a.138.138 0 00.128-.128l-.016-3.408v-1.792c.544-1.504 1.376-2.432 2.608-2.432 1.248 0 2.08.752 2.08 2.736v1.488l-.032 3.408c0 .064.064.128.128.128h.56a.138.138 0 00.128-.128l-.016-3.408v-1.568c0-2.256-1.024-3.328-2.688-3.328-1.424 0-2.336.96-2.8 1.888l.032-1.568a.138.138 0 00-.128-.128h-.544a.138.138 0 00-.128.128l.032 4.496-.032 3.488c0 .064.064.128.128.128h.56zm7.783-4.128c0-2.128.88-3.664 2.672-3.664 1.664 0 2.64 1.408 2.624 3.744-.016 2.32-1.056 3.392-2.544 3.408-1.856.016-2.752-1.312-2.752-3.488zm6.016 3.296l-.016-4.88.032-2.4a.138.138 0 00-.128-.128h-.528a.138.138 0 00-.128.128l.032 1.52c-.512-1.168-1.456-1.792-2.72-1.792-2.192 0-3.344 1.904-3.344 4.272 0 2.368 1.152 4.08 3.36 4.08 1.248 0 2.176-.624 2.688-1.712v.912c0 2.304-1.024 3.296-2.624 3.296-1.264 0-2.304-.544-2.464-1.856-.016-.08-.08-.128-.144-.128h-.544c-.064 0-.128.064-.112.128.144 1.76 1.568 2.496 3.28 2.48 2.08 0 3.376-1.312 3.36-3.92zm13.635-2.512c0-4.4-7.248-2.352-7.248-4.96 0-1.072.944-1.552 2.304-1.552 1.584 0 2.464.624 2.592 1.808.016.096.096.16.176.16h1.728c.08 0 .16-.08.144-.16-.288-2.336-2-3.376-4.576-3.376-2.672 0-4.288 1.248-4.288 3.328 0 4.368 7.216 2.24 7.216 5.024 0 1.248-.992 1.744-2.544 1.744-2 0-2.688-.896-2.848-2.32a.186.186 0 00-.176-.16h-1.728c-.08 0-.16.08-.16.16.128 2.592 1.984 3.872 4.864 3.872 2.736 0 4.544-1.232 4.544-3.568zm5.761 2.032c0-.08-.08-.144-.16-.112a3.239 3.239 0 01-.864.112c-.608 0-.96-.256-.96-1.088l-.016-4.4h1.856c.08 0 .16-.08.16-.16v-1.12c0-.08-.08-.16-.16-.16h-1.84l.016-1.904c0-.08-.08-.16-.16-.16h-1.632c-.08 0-.16.08-.16.16l.032 1.904h-.912c-.08 0-.16.08-.16.16v1.12c0 .08.08.16.16.16h.912l-.016 4.448c0 1.84 1.168 2.496 2.464 2.496.432 0 .896-.096 1.296-.224a.228.228 0 00.144-.208v-1.024zm8.694-2.832c0-2.608-1.456-4.288-4.048-4.288s-4.08 1.728-4.08 4.336c0 2.608 1.488 4.288 4.08 4.288s4.048-1.712 4.048-4.336zm-6.16.064c0-1.952.672-2.976 2.096-2.992 1.392 0 2.08 1.024 2.08 2.976 0 1.968-.672 2.928-2.064 2.928-1.408 0-2.112-.976-2.112-2.912zm9.182 4.08c.08 0 .16-.08.16-.16l-.032-3.344V25.6c.16-1.712 1.056-2.528 2.032-2.528.88 0 1.504.608 1.504 1.776v1.648l-.048 3.344c0 .08.08.16.16.16h1.648c.08 0 .16-.08.16-.16l-.048-3.344V24.8c0-2.08-1.088-3.232-2.816-3.232-1.232 0-2.16.624-2.688 1.392l.032-1.04c0-.08-.08-.16-.16-.16h-1.552c-.08 0-.16.08-.16.16l.032 4.208-.048 3.712c0 .08.08.16.16.16h1.664zm12.901-2.816a.19.19 0 00-.192.16c-.24 1.008-.88 1.488-1.888 1.488-1.392 0-2.096-.832-2.176-2.592h5.968c.08 0 .16-.08.16-.16-.048-2.8-1.504-4.512-4.048-4.512-2.496 0-4.016 1.728-4.016 4.336 0 2.512 1.424 4.288 4.08 4.288 2.208 0 3.552-1.28 3.792-2.848 0-.08-.064-.16-.144-.16h-1.536zm-.208-2.24h-3.984c.208-1.328.88-2.032 2.032-2.032 1.264 0 1.888.96 1.952 2.032zM308.523 30c.064 0 .112-.08.08-.128l-3.68-5.712 3.312-5.232c.032-.048-.016-.128-.08-.128h-1.904a.264.264 0 00-.24.144l-2.176 3.568-2.192-3.568a.264.264 0 00-.24-.144h-2.032c-.064 0-.112.08-.08.128l3.344 5.184-3.664 5.76c-.032.048.016.128.08.128h1.904a.264.264 0 00.24-.144l2.56-4.176 2.48 4.176a.264.264 0 00.24.144h2.048z" fill="#fff"/></svg>