<svg width="163" height="13" viewBox="0 0 163 13" fill="none" xmlns="http://www.w3.org/2000/svg"><path d="M3.458 6.633V10h1.495V6.633L8.346.9H6.669L4.212 5.06 1.82.9H.065l3.393 5.733zm7.639 3.445c2.028 0 3.393-1.365 3.393-3.406 0-2.028-1.365-3.406-3.393-3.406-2.028 0-3.393 1.378-3.393 3.406 0 2.041 1.365 3.406 3.393 3.406zm0-1.196c-1.183 0-1.95-.923-1.95-2.21s.767-2.21 1.95-2.21c1.183 0 1.963.923 1.963 2.21s-.78 2.21-1.963 2.21zm9.085-2.21c0 1.378-.65 2.184-1.716 2.184-1.027 0-1.547-.663-1.547-1.963V3.344h-1.404v3.705c0 2.275 1.209 3.029 2.626 3.029 1.027 0 1.638-.416 2.054-.923l.156.845h1.235V3.344h-1.404v3.328zm3.437-5.85c-.598 0-.988.39-.988.884 0 .546.338.832.767.832a.71.71 0 00.43-.143c.012.065.012.117.012.182 0 .455-.325.962-1.144.962v.767c1.287-.013 2.093-.728 2.093-1.989 0-.845-.455-1.495-1.17-1.495zm5.625 2.522c-1.093 0-1.625.442-1.963 1.001l-.156-1.001h-1.248V10h1.404V6.659c0-1.027.402-2.002 1.65-2.002h.624V3.344h-.311zm4.019 6.734c1.651 0 2.769-1.001 3.003-2.314h-1.404c-.195.741-.819 1.17-1.677 1.17-1.105 0-1.82-.741-1.859-1.872v-.091h5.018c.026-.182.039-.364.039-.533-.039-1.95-1.326-3.172-3.25-3.172-1.963 0-3.276 1.365-3.276 3.419 0 2.041 1.313 3.393 3.406 3.393zm-1.885-4.134c.104-.949.871-1.547 1.768-1.547.975 0 1.664.559 1.781 1.547h-3.549zm12.976-2.678c-1.079 0-1.716.429-2.132.949l-.156-.871h-1.222V10h1.404V6.646c0-1.352.663-2.171 1.781-2.171 1.053 0 1.586.676 1.586 1.937V10h1.417V6.295c0-2.223-1.209-3.029-2.678-3.029zm7.063 6.812c1.651 0 2.77-1.001 3.003-2.314h-1.404c-.195.741-.819 1.17-1.677 1.17-1.105 0-1.82-.741-1.859-1.872v-.091h5.018c.026-.182.04-.364.04-.533-.04-1.95-1.327-3.172-3.25-3.172-1.964 0-3.277 1.365-3.277 3.419 0 2.041 1.313 3.393 3.406 3.393zm-1.885-4.134c.104-.949.871-1.547 1.768-1.547.975 0 1.664.559 1.781 1.547h-3.549zm12.224 2.834c-.286 0-.429-.091-.429-.429V5.684c0-1.573-1.014-2.418-2.782-2.418-1.677 0-2.795.806-2.938 2.106h1.378c.104-.585.663-.975 1.495-.975.923 0 1.456.455 1.456 1.196v.403H58.26c-1.859 0-2.847.767-2.847 2.132 0 1.235 1.014 1.95 2.47 1.95 1.08 0 1.755-.468 2.197-1.144 0 .663.312 1.066 1.222 1.066h.741V8.778h-.286zm-1.82-1.508c-.013 1.027-.689 1.716-1.859 1.716-.767 0-1.235-.39-1.235-.949 0-.676.481-1.001 1.352-1.001h1.742v.234zm6.238-3.926c-1.092 0-1.625.442-1.963 1.001l-.156-1.001h-1.248V10h1.404V6.659c0-1.027.403-2.002 1.651-2.002h.624V3.344h-.312zM67.352 10h1.404V.9h-1.404V10zm4.704.039l-.26.65c-.208.546-.338.676-.884.676h-.988V12.6h1.508c.975 0 1.261-.481 1.677-1.56l3.016-7.696H74.63l-1.807 5.057-1.859-5.057H69.47l2.587 6.695zM83.53 3.344c-1.092 0-1.625.442-1.963 1.001l-.156-1.001h-1.248V10h1.404V6.659c0-1.027.403-2.002 1.65-2.002h.625V3.344h-.312zm4.02 6.734c1.65 0 2.768-1.001 3.002-2.314h-1.404c-.195.741-.819 1.17-1.677 1.17-1.105 0-1.82-.741-1.859-1.872v-.091h5.018c.026-.182.04-.364.04-.533-.04-1.95-1.327-3.172-3.25-3.172-1.964 0-3.277 1.365-3.277 3.419 0 2.041 1.313 3.393 3.406 3.393zm-1.886-4.134c.104-.949.871-1.547 1.768-1.547.975 0 1.664.559 1.781 1.547h-3.549zm12.224 2.834c-.286 0-.429-.091-.429-.429V5.684c0-1.573-1.014-2.418-2.782-2.418-1.677 0-2.795.806-2.938 2.106h1.378c.104-.585.663-.975 1.495-.975.923 0 1.456.455 1.456 1.196v.403H94.39c-1.859 0-2.847.767-2.847 2.132 0 1.235 1.014 1.95 2.47 1.95 1.08 0 1.755-.468 2.197-1.144 0 .663.312 1.066 1.222 1.066h.741V8.778h-.286zm-1.82-1.508c-.013 1.027-.689 1.716-1.859 1.716-.767 0-1.235-.39-1.235-.949 0-.676.481-1.001 1.352-1.001h1.742v.234zm7.877-3.003c-.429-.585-1.144-1.001-2.158-1.001-1.807 0-3.146 1.352-3.146 3.406 0 2.132 1.34 3.406 3.146 3.406 1.053 0 1.742-.494 2.171-1.079l.169 1.001h1.222V.9h-1.404v3.367zm-1.924 4.628c-1.17 0-1.937-.91-1.937-2.223 0-1.3.767-2.21 1.937-2.21s1.937.91 1.937 2.236c0 1.287-.767 2.197-1.937 2.197zm6.624 1.144l-.26.65c-.208.546-.338.676-.884.676h-.988V12.6h1.508c.975 0 1.261-.481 1.677-1.56l3.016-7.696h-1.495l-1.807 5.057-1.859-5.057h-1.495l2.587 6.695zm8.587-1.846c0 1.209.546 1.807 1.82 1.807h1.3V8.765h-.988c-.533 0-.715-.195-.715-.715V4.579h1.625V3.344h-1.625V1.485h-1.417v1.859h-1.157v1.235h1.157v3.614zm7.019 1.885c2.028 0 3.393-1.365 3.393-3.406 0-2.028-1.365-3.406-3.393-3.406-2.028 0-3.393 1.378-3.393 3.406 0 2.041 1.365 3.406 3.393 3.406zm0-1.196c-1.183 0-1.95-.923-1.95-2.21s.767-2.21 1.95-2.21c1.183 0 1.963.923 1.963 2.21s-.78 2.21-1.963 2.21zm8.329-.689c0 1.209.546 1.807 1.82 1.807h1.3V8.765h-.988c-.533 0-.715-.195-.715-.715V4.579h1.625V3.344h-1.625V1.485h-1.417v1.859h-1.157v1.235h1.157v3.614zm7.38-4.849c-1.092 0-1.625.442-1.963 1.001l-.156-1.001h-1.248V10h1.404V6.659c0-1.027.403-2.002 1.651-2.002h.624V3.344h-.312zm7.059 5.434c-.286 0-.429-.091-.429-.429V5.684c0-1.573-1.014-2.418-2.782-2.418-1.677 0-2.795.806-2.938 2.106h1.378c.104-.585.663-.975 1.495-.975.923 0 1.456.455 1.456 1.196v.403h-1.677c-1.859 0-2.847.767-2.847 2.132 0 1.235 1.014 1.95 2.47 1.95 1.079 0 1.755-.468 2.197-1.144 0 .663.312 1.066 1.222 1.066h.741V8.778h-.286zm-1.82-1.508c-.013 1.027-.689 1.716-1.859 1.716-.767 0-1.235-.39-1.235-.949 0-.676.481-1.001 1.352-1.001h1.742v.234zm7.877-3.003c-.429-.585-1.144-1.001-2.158-1.001-1.807 0-3.146 1.352-3.146 3.406 0 2.132 1.339 3.406 3.146 3.406 1.053 0 1.742-.494 2.171-1.079l.169 1.001h1.222V.9h-1.404v3.367zm-1.924 4.628c-1.17 0-1.937-.91-1.937-2.223 0-1.3.767-2.21 1.937-2.21s1.937.91 1.937 2.236c0 1.287-.767 2.197-1.937 2.197zm7.859 1.183c1.651 0 2.769-1.001 3.003-2.314h-1.404c-.195.741-.819 1.17-1.677 1.17-1.105 0-1.82-.741-1.859-1.872v-.091h5.018c.026-.182.039-.364.039-.533-.039-1.95-1.326-3.172-3.25-3.172-1.963 0-3.276 1.365-3.276 3.419 0 2.041 1.313 3.393 3.406 3.393zm-1.885-4.134c.104-.949.871-1.547 1.768-1.547.975 0 1.664.559 1.781 1.547h-3.549z" fill="#000"/></svg>