<svg width="53" height="17" viewBox="0 0 53 17" fill="none" xmlns="http://www.w3.org/2000/svg"><g filter="url(#filter0_d_5_445)"><rect x="2.999" y="3" width="47.001" height="10.156" rx="1.142" fill="url(#paint0_linear_5_445)" shape-rendering="crispEdges"/><path d="M7.356 9.578a.04.04 0 00.041-.041v-.26a.04.04 0 00-.041-.042H5.785l-.018-1.191H7.21a.04.04 0 00.04-.041v-.26a.04.04 0 00-.04-.042H5.767l.018-.977h1.534a.04.04 0 00.041-.041v-.26a.04.04 0 00-.04-.042H5.387a.04.04 0 00-.041.042l.018 1.506-.018 1.608a.04.04 0 00.04.04h1.969zm.898 0a.04.04 0 00.04-.041l-.004-.964v-.356c.092-.466.338-.712.649-.712.292 0 .497.192.497.616v.452l-.009.964a.04.04 0 00.041.04h.338a.04.04 0 00.041-.04l-.009-.964v-.47c0-.612-.301-.932-.785-.932a.913.913 0 00-.786.453l.014-.357a.04.04 0 00-.041-.04h-.324a.04.04 0 00-.041.04l.009 1.238-.014 1.032a.04.04 0 00.041.04h.343zm3.84-.817a.054.054 0 00-.051.04c-.069.343-.279.526-.626.526-.46 0-.694-.302-.707-.868h1.735a.041.041 0 00.04-.04c-.013-.782-.415-1.248-1.095-1.248-.68 0-1.1.503-1.1 1.238 0 .717.392 1.224 1.123 1.224.602 0 .959-.352 1.032-.831 0-.023-.014-.041-.037-.041h-.315zm-.056-.594h-1.315c.06-.443.283-.694.671-.694.416 0 .63.32.644.694zm1.285 1.41a.04.04 0 00.041-.04l-.004-1.233c.05-.516.393-.758.79-.758.05 0 .096.004.132.009a.034.034 0 00.041-.032v-.256a.054.054 0 00-.04-.05.896.896 0 00-.936.448l.018-.398a.041.041 0 00-.042-.04h-.338a.041.041 0 00-.04.04l.013 1.11-.014 1.16a.04.04 0 00.041.04h.338zm1.556-1.195c0-.53.21-.877.625-.895h.096c.384.031.598.37.594.927-.005.58-.256.853-.64.853-.447.005-.675-.32-.675-.885zm1.703 1.036l-.005-1.251.01-.9a.04.04 0 00-.042-.04h-.333a.041.041 0 00-.041.04l.014.325c-.156-.26-.407-.402-.735-.402-.635 0-.991.539-.991 1.205 0 .671.347 1.17 1.004 1.17.329 0 .58-.151.73-.412v.26c0 .53-.255.759-.648.759-.328 0-.561-.133-.607-.425-.005-.023-.023-.041-.046-.041h-.328c-.023 0-.041.018-.037.04.041.508.47.736 1.01.727.67 0 1.05-.38 1.045-1.055zm.951-2.461a.04.04 0 00.041-.041V6.54a.041.041 0 00-.04-.04h-.343a.04.04 0 00-.041.04v.375a.04.04 0 00.04.04h.343zm0 2.62a.04.04 0 00.041-.04l-.009-1.174.01-1.096a.041.041 0 00-.042-.04h-.342a.04.04 0 00-.041.04l.009 1.1-.01 1.17a.04.04 0 00.042.04h.342zm2.378-.282a.04.04 0 00-.041-.041h-1.31l1.273-1.672a.138.138 0 00.023-.073v-.242a.04.04 0 00-.041-.04h-1.617a.041.041 0 00-.04.04v.242c0 .023.018.041.04.041h1.147l-1.26 1.672a.138.138 0 00-.024.073v.242a.04.04 0 00.042.04h1.767a.04.04 0 00.04-.04v-.242zm2.059-.534a.054.054 0 00-.05.04c-.069.343-.279.526-.626.526-.461 0-.694-.302-.708-.868h1.735a.04.04 0 00.041-.04c-.013-.782-.415-1.248-1.095-1.248-.68 0-1.1.503-1.1 1.238 0 .717.392 1.224 1.122 1.224.603 0 .96-.352 1.032-.831 0-.023-.013-.041-.036-.041h-.315zm-.055-.594H20.6c.06-.443.283-.694.671-.694.416 0 .63.32.644.694zm3.761-.9c.01-.022-.005-.04-.027-.04h-.347c-.023 0-.046.018-.055.04l-.562 1.772-.667-1.776c-.009-.018-.032-.037-.054-.037h-.388c-.019 0-.032.019-.028.037l.923 2.32-.252.73a.03.03 0 00.028.041h.315c.023 0 .046-.018.055-.04l1.059-3.047zm2.4 1.133c0-.74-.398-1.229-1.115-1.229-.712 0-1.114.494-1.114 1.238 0 .74.402 1.224 1.114 1.224.717 0 1.114-.493 1.114-1.233zm-1.804.009c0-.59.223-.927.69-.932.456 0 .684.343.684.932s-.224.918-.685.918c-.461 0-.69-.329-.69-.918zm3.827.767l-.009.36a.04.04 0 00.041.042h.324a.04.04 0 00.042-.041l-.01-1.238.014-1.032a.04.04 0 00-.041-.04h-.347a.041.041 0 00-.041.04l.009.964v.356c-.091.466-.343.712-.648.712-.297 0-.498-.191-.498-.616V8.23l.009-.964a.041.041 0 00-.041-.04h-.343a.041.041 0 00-.04.04l.008.964v.466c0 .616.306.936.79.936.375 0 .64-.215.781-.457zm1.319.402a.04.04 0 00.041-.041l-.004-1.233c.05-.516.392-.758.79-.758.05 0 .096.004.132.009a.034.034 0 00.041-.032v-.256a.054.054 0 00-.041-.05.896.896 0 00-.936.448l.018-.398a.04.04 0 00-.041-.04h-.338a.041.041 0 00-.041.04l.014 1.11-.014 1.16a.04.04 0 00.041.04h.338zm3.48-.288c0-.018-.02-.036-.042-.027a1.18 1.18 0 01-.242.027c-.2 0-.297-.086-.297-.37V7.55h.539a.04.04 0 00.041-.04v-.243a.04.04 0 00-.041-.04h-.539l.005-.549a.041.041 0 00-.041-.04h-.338a.041.041 0 00-.041.04l.004.548h-.26a.041.041 0 00-.041.041v.242c0 .023.018.041.04.041h.261v1.38c0 .511.288.689.63.689.11 0 .229-.027.32-.055.023-.009.041-.032.041-.055V9.29zm.805.288a.04.04 0 00.041-.041l-.005-1.233c.05-.516.393-.758.79-.758.05 0 .096.004.133.009a.034.034 0 00.041-.032v-.256a.053.053 0 00-.041-.05.896.896 0 00-.936.448l.018-.398a.041.041 0 00-.041-.04h-.338a.04.04 0 00-.041.04l.014 1.11-.014 1.16a.04.04 0 00.041.04h.338zm1.56-1.201c0-.511.196-.872.62-.89h.097c.383.031.598.37.593.936-.004.593-.25.895-.657.895-.443 0-.653-.38-.653-.941zm1.667 1.2a.04.04 0 00.04-.04l-.013-1.155.014-1.115a.041.041 0 00-.041-.04h-.338a.04.04 0 00-.041.04l.009.315c-.156-.26-.407-.401-.74-.401-.621 0-.982.548-.982 1.228 0 .68.338 1.215.973 1.215.342 0 .593-.16.753-.425l-.009.338a.04.04 0 00.041.04h.334zm.932-1.2c0-.53.21-.904.663-.9.415.005.653.352.648.946-.005.598-.256.9-.657.9-.443 0-.654-.38-.654-.946zm1.667 1.2a.04.04 0 00.041-.04l-.009-1.73.01-1.384a.04.04 0 00-.042-.042h-.338a.041.041 0 00-.04.042l.004 1.15c-.16-.255-.411-.392-.735-.392-.621 0-.982.548-.982 1.228 0 .685.338 1.215.972 1.215a.832.832 0 00.75-.416l-.01.329a.04.04 0 00.041.04h.338zm.992-2.62a.04.04 0 00.042-.041V6.54a.041.041 0 00-.041-.04h-.343a.041.041 0 00-.041.04v.375a.04.04 0 00.041.04h.343zm0 2.62a.04.04 0 00.042-.04l-.01-1.174.01-1.096a.041.041 0 00-.041-.04h-.343a.041.041 0 00-.041.04l.01 1.1-.01 1.17a.04.04 0 00.041.04h.343zm.99 0a.04.04 0 00.041-.04l-.005-.964v-.356c.092-.466.338-.712.649-.712.292 0 .498.192.498.616v.452l-.01.964a.04.04 0 00.042.04h.337a.04.04 0 00.042-.04l-.01-.964v-.47c0-.612-.3-.932-.785-.932a.913.913 0 00-.785.453l.013-.357a.041.041 0 00-.04-.04h-.325a.04.04 0 00-.041.04l.009 1.238-.014 1.032a.04.04 0 00.041.04h.343zm2.456-1.195c0-.53.21-.877.625-.895h.096c.384.031.598.37.594.927-.005.58-.256.853-.64.853-.447.005-.675-.32-.675-.885zm1.703 1.036l-.005-1.251.01-.9a.04.04 0 00-.041-.04H47.3a.04.04 0 00-.04.04l.013.325c-.156-.26-.407-.402-.735-.402-.635 0-.991.539-.991 1.205 0 .671.347 1.17 1.004 1.17.33 0 .58-.151.73-.412v.26c0 .53-.255.759-.648.759-.328 0-.561-.133-.607-.425-.004-.023-.023-.041-.046-.041h-.328c-.023 0-.041.018-.037.04.041.508.47.736 1.01.727.67 0 1.05-.38 1.045-1.055z" fill="#fff"/></g><defs><linearGradient id="paint0_linear_5_445" x1="4.909" y1="8.078" x2="50.001" y2="8.078" gradientUnits="userSpaceOnUse"><stop stop-color="#078A04"/><stop offset="1" stop-color="#014C0C"/></linearGradient><filter id="filter0_d_5_445" x=".145" y=".146" width="52.709" height="15.864" filterUnits="userSpaceOnUse" color-interpolation-filters="sRGB"><feFlood flood-opacity="0" result="BackgroundImageFix"/><feColorMatrix in="SourceAlpha" values="0 0 0 0 0 0 0 0 0 0 0 0 0 0 0 0 0 0 127 0" result="hardAlpha"/><feOffset/><feGaussianBlur stdDeviation="1.427"/><feComposite in2="hardAlpha" operator="out"/><feColorMatrix values="0 0 0 0 0 0 0 0 0 0 0 0 0 0 0 0 0 0 0.16 0"/><feBlend in2="BackgroundImageFix" result="effect1_dropShadow_5_445"/><feBlend in="SourceGraphic" in2="effect1_dropShadow_5_445" result="shape"/></filter></defs></svg>