<svg width="99" height="14" viewBox="0 0 99 14" fill="none" xmlns="http://www.w3.org/2000/svg"><path d="M4.106 13.962c-1.676 0-2.788-.287-3.616-.65L0 10.404h.358l.358.689c.847 1.645 1.883 2.371 3.54 2.371 1.903 0 2.976-.956 2.976-2.524 0-1.396-.79-2.104-3.05-2.907C1.62 7.133.338 6.139.338 3.902.339 1.626 2.354 0 4.859 0c1.563 0 2.467.21 3.334.574l.47 3.022h-.376l-.339-.708C7.176 1.243 6.196.498 4.708.498c-1.563 0-2.486.956-2.486 2.313 0 1.416.754 2.047 2.9 2.793 2.826.956 4.013 2.046 4.013 4.265.018 2.429-2.298 4.093-5.03 4.093zM15.934 12.776c-.791.688-1.601 1.148-2.618 1.148-1.507 0-2.298-.689-2.298-2.334V5.24H9.624v-.363l1.488-.574 1.47-2.983h.602v3.06h2.524v.86h-2.524v6.312c0 .937.452 1.396 1.186 1.396.509 0 .848-.134 1.319-.478l.245.306zM21.226 14c-2.73 0-4.746-1.76-4.746-5.03 0-2.773 1.959-4.896 4.765-4.896 2.712 0 4.746 1.76 4.746 5.03C25.972 11.877 23.995 14 21.226 14zm-.264-9.429c-1.337 0-2.09 1.033-2.09 3.844 0 3.08.98 5.088 2.599 5.088 1.356 0 2.09-1.033 2.09-3.845 0-3.079-.96-5.087-2.599-5.087zM37.574 13.79c-.433 0-1.544-.02-2.392-.02-.829 0-1.94.02-2.41.02v-.306l.32-.058c.847-.153.998-.42.998-2.161V7.516c0-1.453-.622-2.16-1.733-2.16-.772 0-1.413.305-1.978.726v5.183c0 1.76.132 2.008.999 2.161l.32.058v.306c-.471 0-1.564-.02-2.411-.02-.848 0-1.959.02-2.41.02v-.306l.376-.058c.79-.114.942-.42.942-2.333V6.962c0-1.033-.17-1.32-.867-1.645l-.47-.23v-.21l3.276-.727.264.172v1.34c1.036-.9 1.997-1.493 3.22-1.493 1.752 0 2.675.957 2.675 2.965v4.016c0 1.951.15 2.18.96 2.334l.34.057-.019.249zM40.305 8.148v.133c.056 2.716 1.507 4.4 3.465 4.4 1.074 0 1.827-.402 2.618-1.206l.264.192C45.635 13.1 44.317 14 42.622 14c-2.487 0-4.351-1.721-4.351-4.686 0-3.194 2.373-5.221 4.652-5.221 2.524 0 3.748 1.434 3.804 4.074l-6.422-.02zm4.125-.536c-.057-2.008-.773-3.022-1.903-3.022-1.28 0-2.09 1.11-2.222 3.022h4.125zM60.495 13.79c-.339 0-2.034-.039-2.693-.039-.697 0-2.806.039-3.164.039v-.268l.602-.096c.584-.095.83-.248.83-.612 0-.306-.19-.688-.604-1.339l-2.11-3.27-2.108 2.945c-.49.689-.716 1.205-.716 1.588 0 .382.226.612.81.707l.621.096v.268c-.339 0-1.846-.038-2.523-.038-.679 0-1.752.038-2.11.038v-.287l.32-.058c.848-.152 1.639-.88 2.28-1.702l3.05-4.054-2.994-4.514c-.697-1.052-1.187-1.53-1.94-1.664l-.396-.076v-.268c.34 0 2.034.038 2.694.038.696 0 2.768-.038 3.126-.038v.268l-.603.095c-.508.077-.79.249-.79.612 0 .306.188.689.602 1.339l1.808 2.83 1.77-2.524c.471-.689.716-1.205.716-1.568 0-.364-.245-.612-.81-.708l-.621-.096v-.267c.339 0 1.845.038 2.523.038.678 0 1.752-.038 2.11-.038v.267l-.32.058c-.848.153-1.62.803-2.28 1.702l-2.73 3.634 3.315 4.934c.697 1.052 1.186 1.53 1.94 1.664l.395.077v.287zM62.002 3.251a.862.862 0 01-.396-.076.985.985 0 01-.32-.23.866.866 0 01-.207-.325 1.012 1.012 0 01-.075-.401c0-.153.018-.287.075-.402.056-.134.132-.23.207-.325a.726.726 0 01.32-.21.97.97 0 01.396-.077c.15 0 .282.019.395.076.132.058.226.134.32.21.095.096.17.211.208.326.056.134.075.268.075.402a.899.899 0 01-.075.401c-.057.134-.132.23-.207.325a1.238 1.238 0 01-.32.23 1.214 1.214 0 01-.396.076zm0-.153c.132 0 .245-.019.339-.076a.744.744 0 00.282-.191c.076-.077.132-.173.189-.287a1.1 1.1 0 000-.689.757.757 0 00-.189-.287 1.054 1.054 0 00-.282-.19A1.086 1.086 0 0062 1.3a.637.637 0 00-.338.076.744.744 0 00-.283.191 1.072 1.072 0 00-.188.287 1.1 1.1 0 000 .689c.038.114.113.21.188.287.076.076.17.153.283.19a.73.73 0 00.339.077zm-.433-.267V1.607h.527c.132 0 .245.038.32.095a.35.35 0 01.113.268.35.35 0 01-.113.268c-.075.076-.17.095-.301.095l.056-.019c.057 0 .095.02.132.038.038.02.076.058.113.115l.207.364h-.282l-.207-.402c-.02-.038-.038-.057-.057-.057-.019-.02-.056-.02-.094-.02h-.132v.479h-.282zm.244-.689h.245c.076 0 .132-.02.151-.038.038-.02.056-.077.056-.134 0-.057-.018-.115-.056-.134a.35.35 0 00-.15-.038h-.245v.344zM80.205 7.226c0-4.222-2.424-6.774-6.108-6.774-3.704 0-6.147 2.57-6.147 6.774 0 4.166 2.443 6.774 6.127 6.774 3.685 0 6.128-2.59 6.128-6.774zm-11.243 0c0-3.716 1.966-5.949 5.115-5.949 3.131 0 5.116 2.233 5.116 5.949 0 3.734-1.985 5.948-5.115 5.948-3.112 0-5.116-2.233-5.116-5.948zM82.499 13.794c.076 0 .153-.075.153-.15l-.02-3.998V7.545c.65-1.764 1.642-2.852 3.112-2.852 1.489 0 2.481.881 2.481 3.208v1.745l-.038 3.997c0 .075.077.15.153.15h.668c.077 0 .153-.074.153-.15l-.02-3.997V7.808c0-2.646-1.22-3.904-3.206-3.904-1.7 0-2.787 1.126-3.34 2.215l.037-1.84c0-.074-.076-.15-.152-.15h-.65c-.076 0-.152.076-.152.15l.038 5.274-.038 4.09c0 .075.076.15.153.15h.668zM98.198 10.378c-.076 0-.171.057-.171.15-.325 1.708-1.337 2.74-3.112 2.74-2.329 0-3.493-1.595-3.493-4.316l7.425-.019c.077 0 .153-.075.153-.15-.057-3.077-1.623-4.86-4.219-4.86-2.653 0-4.314 2.102-4.314 5.067 0 2.965 1.527 5.01 4.429 5.01 2.348 0 3.684-1.351 4.047-3.472 0-.075-.058-.15-.134-.15h-.61zm-.21-2.195H91.46c.229-2.158 1.374-3.528 3.321-3.528 2.081 0 3.188 1.576 3.207 3.528z" fill="#fff"/></svg>