<svg width="165" height="9" viewBox="0 0 165 9" fill="none" xmlns="http://www.w3.org/2000/svg"><path d="M.174 1.797h1.88V7h1V1.797h1.879V.91H.174v.887zm7.23.749c-.73 0-1.087.295-1.313.67l-.105-.67h-.835V7h.94V4.764c0-.687.27-1.34 1.104-1.34h.418v-.878h-.209zm4.724 3.636c-.191 0-.287-.06-.287-.287V4.112c0-1.053-.678-1.619-1.862-1.619-1.122 0-1.87.54-1.966 1.41h.922c.07-.392.444-.653 1-.653.618 0 .975.305.975.8v.27H9.788c-1.244 0-1.905.514-1.905 1.427 0 .827.678 1.305 1.653 1.305.722 0 1.174-.313 1.47-.765 0 .443.209.713.818.713h.496v-.818h-.192zM10.91 5.173c-.008.687-.46 1.148-1.244 1.148-.513 0-.826-.26-.826-.635 0-.452.322-.67.904-.67h1.166v.157zm5.272-2.01c-.287-.391-.766-.67-1.444-.67-1.21 0-2.106.905-2.106 2.28 0 1.427.896 2.28 2.106 2.28.704 0 1.165-.331 1.452-.723l.113.67h.818V.91h-.94v2.253zm-1.288 3.098c-.783 0-1.296-.61-1.296-1.488 0-.87.513-1.48 1.296-1.48s1.296.61 1.296 1.497c0 .862-.513 1.47-1.296 1.47zm5.26.791c1.105 0 1.853-.67 2.01-1.548h-.94c-.13.496-.548.783-1.123.783-.74 0-1.218-.496-1.244-1.253v-.061h3.358c.018-.122.027-.244.027-.357-.027-1.305-.888-2.123-2.175-2.123-1.314 0-2.193.914-2.193 2.289 0 1.365.879 2.27 2.28 2.27zm-1.262-2.766c.07-.635.583-1.036 1.183-1.036.653 0 1.114.374 1.192 1.036h-2.375zM25.55 5.79C25.55 6.6 25.915 7 26.767 7h.87v-.827h-.661c-.357 0-.479-.13-.479-.478V3.372h1.088v-.826h-1.088V1.302h-.948v1.244h-.774v.826h.774v2.419zm4.698 1.261c1.357 0 2.27-.913 2.27-2.28 0-1.356-.913-2.279-2.27-2.279s-2.27.923-2.27 2.28c0 1.366.913 2.28 2.27 2.28zm0-.8c-.792 0-1.305-.618-1.305-1.48 0-.86.513-1.478 1.305-1.478.791 0 1.314.618 1.314 1.479 0 .861-.523 1.479-1.314 1.479zm6.41-3.089c-.287-.391-.765-.67-1.444-.67-1.21 0-2.105.905-2.105 2.28 0 1.427.896 2.28 2.105 2.28.705 0 1.166-.331 1.453-.723l.113.67h.818V.91h-.94v2.253zM35.37 6.261c-.783 0-1.297-.61-1.297-1.488 0-.87.514-1.48 1.297-1.48.783 0 1.296.61 1.296 1.497 0 .862-.513 1.47-1.296 1.47zm7.217-.079c-.192 0-.287-.06-.287-.287V4.112c0-1.053-.679-1.619-1.862-1.619-1.123 0-1.87.54-1.966 1.41h.922c.07-.392.444-.653 1-.653.618 0 .975.305.975.8v.27h-1.123c-1.244 0-1.905.514-1.905 1.427 0 .827.679 1.305 1.653 1.305.722 0 1.175-.313 1.47-.765 0 .443.21.713.818.713h.496v-.818h-.191zm-1.218-1.009c-.009.687-.461 1.148-1.244 1.148-.514 0-.827-.26-.827-.635 0-.452.322-.67.905-.67h1.166v.157zm3.022 1.853l-.174.435c-.14.365-.227.452-.592.452h-.661v.827h1.009c.653 0 .844-.322 1.122-1.044l2.019-5.15h-1l-1.21 3.384-1.244-3.384h-1l1.73 4.48zm9.495-.844c-.19 0-.287-.06-.287-.287V4.112c0-1.053-.678-1.619-1.861-1.619-1.123 0-1.87.54-1.967 1.41h.923c.07-.392.443-.653 1-.653.618 0 .974.305.974.8v.27h-1.122c-1.244 0-1.905.514-1.905 1.427 0 .827.678 1.305 1.653 1.305.722 0 1.174-.313 1.47-.765 0 .443.209.713.818.713h.496v-.818h-.192zm-1.218-1.009c-.008.687-.46 1.148-1.244 1.148-.513 0-.826-.26-.826-.635 0-.452.322-.67.905-.67h1.166v.157zm1.73.357c.026.965.844 1.522 2.036 1.522 1.079 0 1.888-.54 1.888-1.392 0-.992-.827-1.2-1.844-1.322-.644-.07-1.07-.122-1.07-.54 0-.356.365-.583.922-.583.556 0 .94.288.992.697h.922c-.061-.914-.836-1.419-1.932-1.419-1.07-.008-1.827.54-1.827 1.384 0 .922.8 1.14 1.819 1.261.687.087 1.096.122 1.096.6 0 .357-.383.583-.966.583-.678 0-1.079-.33-1.113-.791h-.923zm6.73-.531c.035 1.218.949 2.053 2.462 2.053 1.34 0 2.254-.757 2.254-1.853.008-1.2-.975-1.522-1.984-1.705-.957-.165-1.583-.296-1.583-.922 0-.575.478-.87 1.165-.87.74 0 1.227.417 1.305 1.035h1c-.043-1.122-.913-1.88-2.305-1.88-1.296 0-2.166.723-2.166 1.784 0 1.21.957 1.532 1.966 1.705.966.175 1.601.314 1.601.957 0 .583-.522.905-1.244.905-.853 0-1.41-.478-1.462-1.192L61.128 5zm8.554-.226c0 .922-.435 1.461-1.148 1.461-.687 0-1.035-.443-1.035-1.313V2.546h-.94v2.48c0 1.522.81 2.026 1.758 2.026.687 0 1.096-.278 1.374-.617l.105.565h.826V2.546h-.94v2.227zm4.215-2.28c-.722 0-1.148.288-1.427.635l-.104-.582h-.818V7h.94V4.755c0-.904.443-1.452 1.191-1.452.705 0 1.062.452 1.062 1.296V7h.948V4.52c0-1.487-.809-2.027-1.792-2.027zm6.718 3.69c-.191 0-.287-.062-.287-.288V4.112c0-1.053-.678-1.619-1.862-1.619-1.122 0-1.87.54-1.966 1.41h.922c.07-.392.444-.653 1-.653.618 0 .975.305.975.8v.27h-1.122c-1.244 0-1.905.514-1.905 1.427 0 .827.678 1.305 1.653 1.305.722 0 1.174-.313 1.47-.765 0 .443.209.713.818.713h.496v-.818h-.192zm-1.218-1.01c-.009.687-.46 1.148-1.244 1.148-.513 0-.826-.26-.826-.635 0-.452.322-.67.904-.67h1.166v.157zM81.318 7h.94V5.869l.8-.835L84.372 7h1.114l-1.784-2.654 1.68-1.8h-1.106l-2.018 2.157V.91h-.94V7zm7.875 0h1.018l.974-3.028.94 3.028h1.009l1.479-4.454h-.957l-1.053 3.41-.974-3.41h-.861l-1.018 3.41-1.018-3.41h-.992L89.193 7zm6.393-5.08a.556.556 0 00.574-.566.556.556 0 00-.574-.566.556.556 0 00-.574.566c0 .33.252.565.574.565zM95.108 7h.94V2.546h-.94V7zm4.21-4.507c-.723 0-1.15.288-1.428.635l-.104-.582h-.818V7h.94V4.755c0-.904.444-1.452 1.192-1.452.704 0 1.061.452 1.061 1.296V7h.948V4.52c0-1.487-.809-2.027-1.792-2.027zm2.455 3.037c.026.965.843 1.522 2.035 1.522 1.079 0 1.888-.54 1.888-1.392 0-.992-.826-1.2-1.844-1.322-.644-.07-1.07-.122-1.07-.54 0-.356.365-.583.922-.583s.94.288.992.697h.922c-.061-.914-.835-1.419-1.931-1.419-1.071-.008-1.827.54-1.827 1.384 0 .922.8 1.14 1.818 1.261.687.087 1.096.122 1.096.6 0 .357-.383.583-.966.583-.678 0-1.078-.33-1.113-.791h-.922zm9.131-2.984c-.731 0-1.088.295-1.314.67l-.104-.67h-.836V7h.94V4.764c0-.687.27-1.34 1.105-1.34h.417v-.878h-.208zm4.724 3.636c-.192 0-.287-.06-.287-.287V4.112c0-1.053-.679-1.619-1.862-1.619-1.123 0-1.871.54-1.966 1.41h.922c.069-.392.443-.653 1-.653.618 0 .975.305.975.8v.27h-1.123c-1.244 0-1.905.514-1.905 1.427 0 .827.679 1.305 1.653 1.305.722 0 1.175-.313 1.47-.765 0 .443.209.713.818.713h.496v-.818h-.191zm-1.218-1.009c-.009.687-.461 1.148-1.244 1.148-.514 0-.827-.26-.827-.635 0-.452.322-.67.905-.67h1.166v.157zm3.931 1.88c1.14 0 1.897-.636 2.071-1.645h-.992c-.113.513-.496.844-1.07.844-.757 0-1.253-.6-1.253-1.47 0-.88.496-1.488 1.253-1.488.583 0 .957.322 1.079.844h.983c-.183-1.01-.896-1.645-2.045-1.645-1.348 0-2.235.914-2.235 2.289 0 1.391.861 2.27 2.209 2.27zm4.904 0c1.105 0 1.853-.67 2.01-1.55h-.94c-.13.497-.548.784-1.122.784-.739 0-1.218-.496-1.244-1.253v-.061h3.358c.018-.122.026-.244.026-.357-.026-1.305-.887-2.123-2.175-2.123-1.313 0-2.192.914-2.192 2.289 0 1.365.879 2.27 2.279 2.27zm-1.261-2.767c.069-.635.583-1.036 1.183-1.036.652 0 1.114.374 1.192 1.036h-2.375zm5.882-.914h.775V7h.948V3.372h1.192v-.826h-1.209v-.374c0-.305.13-.436.435-.436h.774V.91h-.896c-.861 0-1.244.418-1.244 1.218v.418h-.775v.826zm5.319 3.68c1.358 0 2.271-.913 2.271-2.28 0-1.356-.913-2.279-2.271-2.279-1.357 0-2.27.923-2.27 2.28 0 1.366.913 2.28 2.27 2.28zm0-.8c-.791 0-1.305-.618-1.305-1.48 0-.86.514-1.478 1.305-1.478.792 0 1.314.618 1.314 1.479 0 .861-.522 1.479-1.314 1.479zm5.28-3.706c-.731 0-1.088.295-1.314.67l-.104-.67h-.835V7h.939V4.764c0-.687.27-1.34 1.105-1.34h.418v-.878h-.209zM142.558 7V2.685L145.525 7h.913V.91h-.983v4.315L142.488.91h-.913V7h.983zm6.999.052c1.358 0 2.271-.913 2.271-2.28 0-1.356-.913-2.279-2.271-2.279-1.357 0-2.27.923-2.27 2.28 0 1.366.913 2.28 2.27 2.28zm0-.8c-.791 0-1.305-.618-1.305-1.48 0-.86.514-1.478 1.305-1.478.792 0 1.314.618 1.314 1.479 0 .861-.522 1.479-1.314 1.479zm2.668.209c0 .348.252.591.6.591s.609-.243.609-.591-.261-.592-.609-.592-.6.244-.6.592zm5.241-4.933c0 .322-.13.548-.443.548h-.949v.826h.992c.166 0 .296-.026.383-.078V7h.966V.91h-.949v.618zm1.852 2.566c0 1.836.983 2.958 2.401 2.958 1.418 0 2.402-1.122 2.402-2.958v-.278c0-1.766-.984-2.958-2.402-2.958-1.418 0-2.401 1.192-2.401 2.958v.278zm3.828-.035c0 1.366-.574 2.15-1.427 2.15-.852 0-1.426-.784-1.426-2.15v-.208c0-1.358.574-2.15 1.426-2.15.853 0 1.427.792 1.427 2.15v.208z" fill="url(#paint0_linear_922_17359)"/><defs><linearGradient id="paint0_linear_922_17359" x1="170" y1="3.5" x2="0" y2="3.5" gradientUnits="userSpaceOnUse"><stop stop-color="#FF4343"/><stop offset=".5" stop-color="#9C0B93"/><stop offset="1" stop-color="#4C1BB7"/></linearGradient></defs></svg>