<svg width="229" height="48" viewBox="0 0 229 48" fill="none" xmlns="http://www.w3.org/2000/svg"><path d="M7.26 15.12c2.8 0 4.46-1.54 5.06-3.22l.06 3.1h.94V7.7H7.68v1h4.6v.6c0 2.74-1.9 4.82-5 4.82-3.14 0-5.22-2.52-5.22-6.12 0-3.58 2.08-6.12 5.32-6.12 2.36 0 4 1.22 4.58 3.42h1.16C12.54 2.5 10.36.88 7.42.88 3.46.88.94 3.8.94 8c0 4.22 2.58 7.12 6.32 7.12zm13.205 0c2.22 0 3.92-1.44 4.36-3.48h-1.04c-.4 1.58-1.74 2.56-3.4 2.56-2.26 0-3.68-1.72-3.72-4.08v-.18h8.28c0-.14.02-.3.02-.42-.1-3.02-1.96-4.78-4.68-4.78-2.78 0-4.68 2.12-4.68 5.12 0 3.18 1.98 5.26 4.86 5.26zm-3.72-6.04c.16-2.06 1.7-3.44 3.56-3.44 1.98 0 3.4 1.22 3.56 3.44h-7.12zm10.84 3.56c0 1.62.66 2.36 2.38 2.36h1.48v-.94h-1.4c-1.06 0-1.44-.4-1.44-1.44V5.8h2.74v-.94h-2.74V2.02h-1.02v2.84h-1.92v.94h1.92v6.84zm14.943-7.78c-1.88 0-2.68.9-3.1 2.02l-.16-2.02h-.88V15h1.02V9.86c0-2.06.54-4.02 2.92-4.02h.74v-.98h-.54zm5.808 10.26c2.22 0 3.92-1.44 4.36-3.48h-1.04c-.4 1.58-1.74 2.56-3.4 2.56-2.26 0-3.68-1.72-3.72-4.08v-.18h8.28c0-.14.02-.3.02-.42-.1-3.02-1.96-4.78-4.68-4.78-2.78 0-4.68 2.12-4.68 5.12 0 3.18 1.98 5.26 4.86 5.26zm-3.72-6.04c.16-2.06 1.7-3.44 3.56-3.44 1.98 0 3.4 1.22 3.56 3.44h-7.12zm19.156 4.98c-.6 0-.9-.2-.9-.98V8.36c0-2.32-1.42-3.62-3.96-3.62-2.32 0-3.86 1.12-4.12 2.96h1.02c.26-1.24 1.34-2.06 3.06-2.06 1.9 0 2.98 1 2.98 2.68v.88h-3.44c-2.6 0-4 1.12-4 3.02 0 1.8 1.42 2.9 3.58 2.9 2.06 0 3.28-.94 3.9-2.2v.36c-.04 1.2.46 1.72 1.66 1.72h.6v-.94h-.38zm-1.92-3.16c0 1.94-1.38 3.34-3.78 3.34-1.62 0-2.62-.82-2.62-2.08 0-1.34 1-2.08 2.88-2.08h3.52v.82zm3.664 4.1h1.02V1h-1.02v14zm9.858-5.26v-.86h-6.46v.86h6.46zm2.777 2.9c0 1.62.66 2.36 2.38 2.36h1.48v-.94h-1.4c-1.06 0-1.44-.4-1.44-1.44V5.8h2.74v-.94h-2.74V2.02h-1.02v2.84h-1.92v.94h1.92v6.84zm5.932-9.92c.4 0 .72-.3.72-.72s-.32-.72-.72-.72c-.4 0-.72.3-.72.72s.32.72.72.72zM83.563 15h1.02V4.86h-1.02V15zM98.301 4.74c-1.86 0-3.06 1.04-3.64 2.54-.48-1.68-1.74-2.54-3.34-2.54-1.74 0-2.78 1.02-3.3 2.28l-.16-2.16h-.88V15h1.02V9.84c0-2.48 1.2-4.16 3.14-4.16 1.76 0 2.86 1.24 2.86 3.58V15h1.02V9.48c.06-2.32 1.26-3.8 3.16-3.8 1.76 0 2.82 1.18 2.82 3.48V15h1.04V9.12c0-3.06-1.62-4.38-3.74-4.38zm10.328 10.38c2.22 0 3.92-1.44 4.36-3.48h-1.04c-.4 1.58-1.74 2.56-3.4 2.56-2.26 0-3.68-1.72-3.72-4.08v-.18h8.28c0-.14.02-.3.02-.42-.1-3.02-1.96-4.78-4.68-4.78-2.78 0-4.68 2.12-4.68 5.12 0 3.18 1.98 5.26 4.86 5.26zm-3.72-6.04c.16-2.06 1.7-3.44 3.56-3.44 1.98 0 3.4 1.22 3.56 3.44h-7.12zm16.387 3.56c0 1.62.66 2.36 2.38 2.36h1.48v-.94h-1.4c-1.06 0-1.44-.4-1.44-1.44V5.8h2.74v-.94h-2.74V2.02h-1.02v2.84h-1.92v.94h1.92v6.84zm9.552-7.78c-1.88 0-2.68.9-3.1 2.02l-.16-2.02h-.88V15h1.02V9.86c0-2.06.54-4.02 2.92-4.02h.74v-.98h-.54zm10.542 9.2c-.6 0-.9-.2-.9-.98V8.36c0-2.32-1.42-3.62-3.96-3.62-2.32 0-3.86 1.12-4.12 2.96h1.02c.26-1.24 1.34-2.06 3.06-2.06 1.9 0 2.98 1 2.98 2.68v.88h-3.44c-2.6 0-4 1.12-4 3.02 0 1.8 1.42 2.9 3.58 2.9 2.06 0 3.28-.94 3.9-2.2v.36c-.04 1.2.46 1.72 1.66 1.72h.6v-.94h-.38zm-1.92-3.16c0 1.94-1.38 3.34-3.78 3.34-1.62 0-2.62-.82-2.62-2.08 0-1.34 1-2.08 2.88-2.08h3.52v.82zm11.787-3.76c-.62-1.44-1.98-2.4-3.88-2.4-2.78 0-4.78 2.12-4.78 5.18 0 3.2 2 5.2 4.78 5.2 1.9 0 3.22-1.02 3.86-2.44l.16 2.32h.88V1h-1.02v6.14zm-3.8 7.06c-2.26 0-3.82-1.76-3.82-4.28 0-2.5 1.56-4.28 3.82-4.28s3.82 1.78 3.82 4.3c0 2.5-1.56 4.26-3.82 4.26zm11.7.92c2.22 0 3.92-1.44 4.36-3.48h-1.04c-.4 1.58-1.74 2.56-3.4 2.56-2.26 0-3.68-1.72-3.72-4.08v-.18h8.28c0-.14.02-.3.02-.42-.1-3.02-1.96-4.78-4.68-4.78-2.78 0-4.68 2.12-4.68 5.12 0 3.18 1.98 5.26 4.86 5.26zm-3.72-6.04c.16-2.06 1.7-3.44 3.56-3.44 1.98 0 3.4 1.22 3.56 3.44h-7.12zm15.166 2.8c.08 2.1 1.78 3.24 4.32 3.24 2.18 0 3.94-1.1 3.94-2.9 0-2.14-1.88-2.56-4.06-2.86-1.58-.22-2.98-.4-2.98-1.82 0-1.16 1.14-1.92 2.86-1.92 1.62 0 2.78.78 2.96 2.1h1.04c-.18-1.98-1.8-2.98-4-2.98-2.26-.02-3.88 1.14-3.88 2.88 0 2.04 1.88 2.42 3.96 2.7 1.7.24 3.08.46 3.08 1.96 0 1.2-1.26 1.96-2.92 1.96-1.94 0-3.2-.9-3.28-2.36h-1.04zm10.726-9.16c.4 0 .72-.3.72-.72s-.32-.72-.72-.72c-.4 0-.72.3-.72.72s.32.72.72.72zm-.52 12.28h1.02V4.86h-1.02V15zm11.678-7.78c-.62-1.5-1.98-2.48-3.86-2.48-2.78 0-4.78 2.1-4.78 5.18 0 3.2 2 5.2 4.78 5.2 1.9 0 3.24-1 3.88-2.58v1.8c0 2.7-1.28 3.86-3.72 3.86-1.9 0-3.22-.86-3.54-2.4h-1.06c.32 2.16 2.06 3.32 4.52 3.32 3.28 0 4.82-1.56 4.82-4.74V4.86h-.88l-.16 2.36zm-3.78 6.98c-2.26 0-3.82-1.76-3.82-4.28 0-2.52 1.56-4.28 3.82-4.28s3.82 1.76 3.82 4.3c0 2.5-1.56 4.26-3.82 4.26zm11.9-9.46c-1.86 0-3.06.96-3.64 2.28l-.16-2.16h-.88V15h1.02v-5c0-2.64 1.34-4.32 3.5-4.32 1.96 0 3.14 1.28 3.14 3.68V15h1.02V9.32c0-3.2-1.7-4.58-4-4.58zm15.177 9.32c-.6 0-.9-.2-.9-.98V8.36c0-2.32-1.42-3.62-3.96-3.62-2.32 0-3.86 1.12-4.12 2.96h1.02c.26-1.24 1.34-2.06 3.06-2.06 1.9 0 2.98 1 2.98 2.68v.88h-3.44c-2.6 0-4 1.12-4 3.02 0 1.8 1.42 2.9 3.58 2.9 2.06 0 3.28-.94 3.9-2.2v.36c-.04 1.2.46 1.72 1.66 1.72h.6v-.94h-.38zm-1.92-3.16c0 1.94-1.38 3.34-3.78 3.34-1.62 0-2.62-.82-2.62-2.08 0-1.34 1-2.08 2.88-2.08h3.52v.82zm3.664 4.1h1.02V1h-1.02v14zm2.958-3.12c.08 2.1 1.78 3.24 4.32 3.24 2.18 0 3.94-1.1 3.94-2.9 0-2.14-1.88-2.56-4.06-2.86-1.58-.22-2.98-.4-2.98-1.82 0-1.16 1.14-1.92 2.86-1.92 1.62 0 2.78.78 2.96 2.1h1.04c-.18-1.98-1.8-2.98-4-2.98-2.26-.02-3.88 1.14-3.88 2.88 0 2.04 1.88 2.42 3.96 2.7 1.7.24 3.08.46 3.08 1.96 0 1.2-1.26 1.96-2.92 1.96-1.94 0-3.2-.9-3.28-2.36h-1.04zM6.1 32.74c-1.9 0-3.24 1.04-3.88 2.48V29H1.2v14h.88l.16-2.3c.6 1.46 1.96 2.42 3.86 2.42 2.78 0 4.78-2.12 4.78-5.2 0-3.18-2-5.18-4.78-5.18zm-.08 9.46c-2.26 0-3.82-1.76-3.82-4.3 0-2.48 1.56-4.26 3.82-4.26s3.82 1.78 3.82 4.28c0 2.52-1.56 4.28-3.82 4.28zm15.8-.14c-.6 0-.9-.2-.9-.98v-4.72c0-2.32-1.42-3.62-3.96-3.62-2.32 0-3.86 1.12-4.12 2.96h1.02c.26-1.24 1.34-2.06 3.06-2.06 1.9 0 2.98 1 2.98 2.68v.88h-3.44c-2.6 0-4 1.12-4 3.02 0 1.8 1.42 2.9 3.58 2.9 2.06 0 3.28-.94 3.9-2.2v.36c-.04 1.2.46 1.72 1.66 1.72h.6v-.94h-.38zM19.9 38.9c0 1.94-1.38 3.34-3.78 3.34-1.62 0-2.62-.82-2.62-2.08 0-1.34 1-2.08 2.88-2.08h3.52v.82zm3.203.98c.08 2.1 1.78 3.24 4.32 3.24 2.18 0 3.94-1.1 3.94-2.9 0-2.14-1.88-2.56-4.06-2.86-1.58-.22-2.98-.4-2.98-1.82 0-1.16 1.14-1.92 2.86-1.92 1.62 0 2.78.78 2.96 2.1h1.04c-.18-1.98-1.8-2.98-4-2.98-2.26-.02-3.88 1.14-3.88 2.88 0 2.04 1.88 2.42 3.96 2.7 1.7.24 3.08.46 3.08 1.96 0 1.2-1.26 1.96-2.92 1.96-1.94 0-3.2-.9-3.28-2.36h-1.04zm14.686 3.24c2.22 0 3.92-1.44 4.36-3.48h-1.04c-.4 1.58-1.74 2.56-3.4 2.56-2.26 0-3.68-1.72-3.72-4.08v-.18h8.28c0-.14.02-.3.02-.42-.1-3.02-1.96-4.78-4.68-4.78-2.78 0-4.68 2.12-4.68 5.12 0 3.18 1.98 5.26 4.86 5.26zm-3.72-6.04c.16-2.06 1.7-3.44 3.56-3.44 1.98 0 3.4 1.22 3.56 3.44h-7.12zm18.517-1.94c-.62-1.44-1.98-2.4-3.88-2.4-2.78 0-4.78 2.12-4.78 5.18 0 3.2 2 5.2 4.78 5.2 1.9 0 3.22-1.02 3.86-2.44l.16 2.32h.88V29h-1.02v6.14zm-3.8 7.06c-2.26 0-3.82-1.76-3.82-4.28 0-2.5 1.56-4.28 3.82-4.28s3.82 1.78 3.82 4.3c0 2.5-1.56 4.26-3.82 4.26zm17.09.92c2.86 0 4.88-2.12 4.88-5.2 0-3.06-2.02-5.18-4.88-5.18s-4.86 2.12-4.86 5.18c0 3.08 2 5.2 4.86 5.2zm0-.92c-2.26 0-3.82-1.76-3.82-4.28 0-2.5 1.56-4.28 3.82-4.28s3.82 1.78 3.82 4.28c0 2.52-1.56 4.28-3.82 4.28zm11.586-9.46c-1.86 0-3.06.96-3.64 2.28l-.16-2.16h-.88V43h1.02v-5c0-2.64 1.34-4.32 3.5-4.32 1.96 0 3.14 1.28 3.14 3.68V43h1.02v-5.68c0-3.2-1.7-4.58-4-4.58zM89.37 43l1.68-4.28h6.44L99.17 43h1.16l-5.4-14h-1.26l-5.42 14h1.12zm4.9-12.8l2.9 7.52h-5.8l2.9-7.52zm7.834 12.8h1.08V29h-1.08v14zm9.116 0h1.02V29h-1.02v14zm7.898.12c2.22 0 3.92-1.44 4.36-3.48h-1.04c-.4 1.58-1.74 2.56-3.4 2.56-2.26 0-3.68-1.72-3.72-4.08v-.18h8.28c0-.14.02-.3.02-.42-.1-3.02-1.96-4.78-4.68-4.78-2.78 0-4.68 2.12-4.68 5.12 0 3.18 1.98 5.26 4.86 5.26zm-3.72-6.04c.16-2.06 1.7-3.44 3.56-3.44 1.98 0 3.4 1.22 3.56 3.44h-7.12zm19.156 4.98c-.6 0-.9-.2-.9-.98v-4.72c0-2.32-1.42-3.62-3.96-3.62-2.32 0-3.86 1.12-4.12 2.96h1.02c.26-1.24 1.34-2.06 3.06-2.06 1.9 0 2.98 1 2.98 2.68v.88h-3.44c-2.6 0-4 1.12-4 3.02 0 1.8 1.42 2.9 3.58 2.9 2.06 0 3.28-.94 3.9-2.2v.36c-.04 1.2.46 1.72 1.66 1.72h.6v-.94h-.38zm-1.92-3.16c0 1.94-1.38 3.34-3.78 3.34-1.62 0-2.62-.82-2.62-2.08 0-1.34 1-2.08 2.88-2.08h3.52v.82zm7.804-6.04c-1.88 0-2.68.9-3.1 2.02l-.16-2.02h-.88V43h1.02v-5.14c0-2.06.54-4.02 2.92-4.02h.74v-.98h-.54zm6.731-.12c-1.86 0-3.06.96-3.64 2.28l-.16-2.16h-.88V43h1.02v-5c0-2.64 1.34-4.32 3.5-4.32 1.96 0 3.14 1.28 3.14 3.68V43h1.02v-5.68c0-3.2-1.7-4.58-4-4.58zm6.778-2.02c.4 0 .72-.3.72-.72s-.32-.72-.72-.72c-.4 0-.72.3-.72.72s.32.72.72.72zm-.52 12.28h1.02V32.86h-1.02V43zm8.098-10.26c-1.86 0-3.06.96-3.64 2.28l-.16-2.16h-.88V43h1.02v-5c0-2.64 1.34-4.32 3.5-4.32 1.96 0 3.14 1.28 3.14 3.68V43h1.02v-5.68c0-3.2-1.7-4.58-4-4.58zm14.517 2.48c-.62-1.5-1.98-2.48-3.86-2.48-2.78 0-4.78 2.1-4.78 5.18 0 3.2 2 5.2 4.78 5.2 1.9 0 3.24-1 3.88-2.58v1.8c0 2.7-1.28 3.86-3.72 3.86-1.9 0-3.22-.86-3.54-2.4h-1.06c.32 2.16 2.06 3.32 4.52 3.32 3.28 0 4.82-1.56 4.82-4.74v-9.52h-.88l-.16 2.36zm-3.78 6.98c-2.26 0-3.82-1.76-3.82-4.28 0-2.52 1.56-4.28 3.82-4.28s3.82 1.76 3.82 4.3c0 2.5-1.56 4.26-3.82 4.26zm7.099.14c0 .46.32.76.76.76s.76-.3.76-.76-.32-.74-.76-.74-.76.28-.76.74z" fill="#000"/></svg>