<svg width="99" height="28" viewBox="0 0 99 28" fill="none" xmlns="http://www.w3.org/2000/svg"><rect width="99" height="28" rx="14" fill="#000"/><path d="M18.945 15.952c.056 1.536 1.168 2.615 3.07 2.615 1.636 0 2.771-.946 2.771-2.292 0-1.513-1.302-1.936-2.57-2.147-1.168-.2-2.114-.39-2.114-1.325 0-.834.679-1.279 1.691-1.279 1.057 0 1.78.59 1.892 1.49h1.001c-.089-1.401-1.157-2.369-2.893-2.369-1.58 0-2.659.89-2.659 2.214 0 1.513 1.29 1.925 2.548 2.136 1.18.2 2.136.4 2.136 1.369 0 .845-.745 1.324-1.791 1.324-1.19 0-2.003-.69-2.08-1.736h-1.002zm7.359 1.068c0 1.002.39 1.48 1.48 1.48h.99v-.834h-.901c-.49 0-.657-.178-.657-.657V13.66h1.469v-.834h-1.469v-1.591h-.912v1.59H25.28v.835h1.024v3.36zm8.191.646c-.255 0-.367-.078-.367-.379v-2.48c0-1.325-.834-2.048-2.28-2.048-1.37 0-2.27.656-2.404 1.769h.913c.11-.579.645-.957 1.446-.957.89 0 1.413.445 1.413 1.18v.389h-1.669c-1.49 0-2.28.634-2.28 1.769 0 1.035.845 1.658 2.09 1.658.98 0 1.547-.434 1.903-.946.012.556.267.879 1.024.879h.5v-.834h-.289zm-1.28-1.48c0 .945-.656 1.602-1.79 1.602-.757 0-1.235-.378-1.235-.935 0-.645.456-.945 1.268-.945h1.758v.278zm4.897-3.36c-1.013 0-1.447.423-1.714.856l-.122-.856h-.79V18.5h.912v-2.893c0-.9.323-1.891 1.513-1.891h.457v-.89h-.256zm1.654 4.194c0 1.002.39 1.48 1.48 1.48h.99v-.834h-.901c-.49 0-.657-.178-.657-.657V13.66h1.469v-.834h-1.469v-1.591h-.912v1.59h-1.024v.835h1.024v3.36zm6.595 0c0 1.002.39 1.48 1.48 1.48h.99v-.834h-.901c-.49 0-.657-.178-.657-.657V13.66h1.469v-.834h-1.469v-1.591h-.912v1.59h-1.023v.835h1.023v3.36zm5.886-4.194c-1.012 0-1.446.423-1.713.856l-.123-.856h-.79V18.5h.913v-2.893c0-.9.323-1.891 1.513-1.891h.456v-.89h-.256zm5.87 4.84c-.257 0-.368-.078-.368-.379v-2.48c0-1.325-.834-2.048-2.28-2.048-1.37 0-2.27.656-2.404 1.769h.912c.112-.579.646-.957 1.447-.957.89 0 1.413.445 1.413 1.18v.389h-1.67c-1.49 0-2.28.634-2.28 1.769 0 1.035.846 1.658 2.092 1.658.979 0 1.546-.434 1.902-.946.011.556.267.879 1.024.879h.5v-.834h-.289zm-1.28-1.48c0 .945-.657 1.602-1.792 1.602-.756 0-1.235-.378-1.235-.935 0-.645.457-.945 1.269-.945h1.758v.278zm6.677-2.492c-.345-.546-.99-.935-1.947-.935-1.569 0-2.726 1.168-2.726 2.904 0 1.847 1.157 2.904 2.726 2.904.957 0 1.57-.456 1.947-.98l.123.913h.79v-7.788h-.913v2.982zm-1.858 4.06c-1.123 0-1.88-.856-1.88-2.091 0-1.235.757-2.092 1.88-2.092 1.113 0 1.87.868 1.87 2.114 0 1.213-.757 2.07-1.87 2.07zm4.48-5.885c.335 0 .59-.245.59-.59a.573.573 0 00-.59-.59.573.573 0 00-.589.59c0 .345.256.59.59.59zM65.67 18.5h.912v-5.674h-.912V18.5zm4.943-5.741c-.957 0-1.535.4-1.869.835l-.122-.768h-.79V18.5h.912v-2.837c0-1.28.645-2.07 1.713-2.07.99 0 1.536.623 1.536 1.803V18.5h.912v-3.16c0-1.88-1.012-2.581-2.292-2.581zm7.928 1.046c-.356-.634-.99-1.046-1.947-1.046-1.569 0-2.726 1.168-2.726 2.904 0 1.847 1.157 2.904 2.726 2.904.957 0 1.569-.4 1.947-1.046v.668c0 1.235-.645 1.79-1.836 1.79-.946 0-1.58-.4-1.736-1.112h-.934c.145 1.246 1.157 1.925 2.603 1.925 1.947 0 2.815-.935 2.815-2.57v-5.396h-.79l-.122.979zm-1.858 3.95c-1.124 0-1.88-.857-1.88-2.092s.756-2.092 1.88-2.092c1.112 0 1.869.868 1.869 2.114 0 1.213-.757 2.07-1.87 2.07z" fill="#fff"/></svg>