<svg width="582" height="111" viewBox="0 0 582 111" fill="none" xmlns="http://www.w3.org/2000/svg"><path d="M16.774 73.334c0-4.51-3.058-7.832-7.48-7.832-4.422 0-7.48 3.322-7.48 7.832s3.058 7.832 7.48 7.832c4.422 0 7.48-3.322 7.48-7.832zm-12.364 0c0-3.256 1.958-5.61 4.884-5.61s4.884 2.354 4.884 5.61c0 3.256-1.958 5.61-4.884 5.61S4.41 76.59 4.41 73.334zm20.37-3.696c-1.76 0-2.926.814-3.674 1.804l-.286-1.672h-2.068v15.664h2.376V79.45c.704 1.012 1.914 1.716 3.652 1.716 3.08 0 5.324-2.288 5.324-5.764 0-3.608-2.244-5.764-5.324-5.764zm-.396 9.526c-1.98 0-3.278-1.562-3.278-3.806 0-2.178 1.298-3.696 3.278-3.696s3.3 1.518 3.3 3.74c0 2.2-1.32 3.762-3.3 3.762zm12.97 2.002c2.794 0 4.686-1.694 5.082-3.916H40.06c-.33 1.254-1.386 1.98-2.838 1.98-1.87 0-3.08-1.254-3.146-3.168v-.154h8.492c.044-.308.066-.616.066-.902-.066-3.3-2.244-5.368-5.5-5.368-3.322 0-5.544 2.31-5.544 5.786 0 3.454 2.222 5.742 5.764 5.742zm-3.19-6.996c.176-1.606 1.474-2.618 2.992-2.618 1.65 0 2.816.946 3.014 2.618h-6.006zm16.33-4.532c-1.825 0-2.903.726-3.607 1.606l-.264-1.474h-2.068v11.264h2.376v-5.676c0-2.288 1.122-3.674 3.014-3.674 1.782 0 2.684 1.144 2.684 3.278v6.072h2.398v-6.27c0-3.762-2.046-5.126-4.532-5.126zm22.618 9.328c-.484 0-.726-.154-.726-.726v-4.51c0-2.662-1.716-4.092-4.708-4.092-2.838 0-4.73 1.364-4.972 3.564h2.332c.176-.99 1.122-1.65 2.53-1.65 1.562 0 2.464.77 2.464 2.024v.682h-2.838c-3.146 0-4.818 1.298-4.818 3.608 0 2.09 1.716 3.3 4.18 3.3 1.826 0 2.97-.792 3.718-1.936 0 1.122.528 1.804 2.068 1.804h1.254v-2.068h-.484zm-3.08-2.552c-.022 1.738-1.166 2.904-3.146 2.904-1.298 0-2.09-.66-2.09-1.606 0-1.144.814-1.694 2.288-1.694h2.948v.396zm10.004.902c.066 2.442 2.133 3.85 5.147 3.85 2.728 0 4.774-1.364 4.774-3.52 0-2.508-2.09-3.036-4.663-3.344-1.629-.176-2.706-.308-2.706-1.364 0-.902.924-1.474 2.332-1.474 1.407 0 2.376.726 2.507 1.76h2.332c-.153-2.31-2.112-3.586-4.883-3.586-2.707-.022-4.62 1.364-4.62 3.498 0 2.332 2.023 2.882 4.597 3.19 1.739.22 2.773.308 2.773 1.518 0 .902-.969 1.474-2.443 1.474-1.716 0-2.728-.836-2.816-2.002h-2.332zm17.79-7.678c-1.76 0-2.925.814-3.673 1.804l-.286-1.672h-2.068v15.664h2.376V79.45c.704 1.012 1.914 1.716 3.652 1.716 3.08 0 5.324-2.288 5.324-5.764 0-3.608-2.244-5.764-5.324-5.764zm-.395 9.526c-1.98 0-3.278-1.562-3.278-3.806 0-2.178 1.298-3.696 3.278-3.696s3.3 1.518 3.3 3.74c0 2.2-1.32 3.762-3.3 3.762zm13.322-9.394c-1.848 0-2.75.748-3.322 1.694l-.264-1.694h-2.112v11.264h2.376V75.38c0-1.738.682-3.388 2.794-3.388h1.056V69.77h-.528zm6.802 11.396c2.794 0 4.686-1.694 5.082-3.916h-2.376c-.33 1.254-1.386 1.98-2.838 1.98-1.87 0-3.08-1.254-3.146-3.168v-.154h8.492c.044-.308.066-.616.066-.902-.066-3.3-2.244-5.368-5.5-5.368-3.322 0-5.544 2.31-5.544 5.786 0 3.454 2.222 5.742 5.764 5.742zm-3.19-6.996c.176-1.606 1.474-2.618 2.992-2.618 1.65 0 2.816.946 3.014 2.618h-6.006zm20.687 4.796c-.484 0-.726-.154-.726-.726v-4.51c0-2.662-1.716-4.092-4.708-4.092-2.838 0-4.73 1.364-4.972 3.564h2.332c.176-.99 1.122-1.65 2.53-1.65 1.562 0 2.464.77 2.464 2.024v.682h-2.838c-3.146 0-4.818 1.298-4.818 3.608 0 2.09 1.716 3.3 4.18 3.3 1.826 0 2.97-.792 3.718-1.936 0 1.122.528 1.804 2.068 1.804h1.254v-2.068h-.484zm-3.08-2.552c-.022 1.738-1.166 2.904-3.146 2.904-1.298 0-2.09-.66-2.09-1.606 0-1.144.814-1.694 2.288-1.694h2.948v.396zm13.33-5.082c-.726-.99-1.936-1.694-3.652-1.694-3.058 0-5.324 2.288-5.324 5.764 0 3.608 2.266 5.764 5.324 5.764 1.782 0 2.948-.836 3.674-1.826l.286 1.694h2.068v-15.4h-2.376v5.698zm-3.256 7.832c-1.98 0-3.278-1.54-3.278-3.762 0-2.2 1.298-3.74 3.278-3.74s3.278 1.54 3.278 3.784c0 2.178-1.298 3.718-3.278 3.718zm19.611-9.526c-1.738 0-2.904.792-3.652 1.804v-5.808h-2.376v15.4h2.068l.286-1.628c.704 1.012 1.914 1.76 3.674 1.76 3.08 0 5.324-2.31 5.324-5.764 0-3.63-2.244-5.764-5.324-5.764zm-.396 9.526c-1.98 0-3.278-1.562-3.278-3.784 0-2.178 1.298-3.718 3.278-3.718s3.3 1.54 3.3 3.74c0 2.222-1.32 3.762-3.3 3.762zm12.97 2.002c2.794 0 4.686-1.694 5.082-3.916h-2.376c-.33 1.254-1.386 1.98-2.838 1.98-1.87 0-3.08-1.254-3.146-3.168v-.154h8.492c.044-.308.066-.616.066-.902-.066-3.3-2.244-5.368-5.5-5.368-3.322 0-5.544 2.31-5.544 5.786 0 3.454 2.222 5.742 5.764 5.742zm-3.19-6.996c.176-1.606 1.474-2.618 2.992-2.618 1.65 0 2.816.946 3.014 2.618h-6.006zm21.393 4.774c-.836 0-1.166-.33-1.166-1.21V71.86h2.728v-2.09h-2.728v-3.146h-2.376v3.146h-4.334v-3.146h-2.398v3.146h-1.958v2.09h1.958v6.116c0 2.046.924 3.058 3.08 3.058h1.958v-2.09h-1.474c-.858 0-1.166-.33-1.166-1.21V71.86h4.334v6.116c0 2.046.902 3.058 3.058 3.058h2.288v-2.09h-1.804zm4.538-10.758c.814 0 1.452-.594 1.452-1.43s-.638-1.43-1.452-1.43-1.452.594-1.452 1.43.638 1.43 1.452 1.43zm-1.21 12.848h2.376V69.77h-2.376v11.264zm10.645-11.396c-1.826 0-2.904.726-3.608 1.606l-.264-1.474h-2.068v11.264h2.376v-5.676c0-2.288 1.122-3.674 3.014-3.674 1.782 0 2.684 1.144 2.684 3.278v6.072h2.398v-6.27c0-3.762-2.046-5.126-4.532-5.126zm15.295 1.892c-.726-1.122-1.936-1.892-3.696-1.892-3.058 0-5.324 2.266-5.324 5.72 0 3.586 2.266 5.72 5.324 5.72 1.76 0 2.926-.726 3.674-1.848v1.254c0 2.156-1.166 3.146-3.234 3.146-1.672 0-2.772-.726-3.058-1.98h-2.42c.22 2.53 2.31 3.916 5.302 3.916 4.048 0 5.764-1.936 5.764-4.994V69.77h-2.068l-.264 1.76zm-3.3 7.546c-1.98 0-3.278-1.518-3.278-3.718 0-2.178 1.298-3.718 3.278-3.718s3.278 1.54 3.278 3.762c0 2.156-1.298 3.674-3.278 3.674zm23.878-.11c-.484 0-.726-.154-.726-.726v-4.51c0-2.662-1.716-4.092-4.708-4.092-2.838 0-4.73 1.364-4.972 3.564h2.332c.176-.99 1.122-1.65 2.53-1.65 1.562 0 2.464.77 2.464 2.024v.682h-2.838c-3.146 0-4.818 1.298-4.818 3.608 0 2.09 1.716 3.3 4.18 3.3 1.826 0 2.97-.792 3.718-1.936 0 1.122.528 1.804 2.068 1.804h1.254v-2.068h-.484zm-3.08-2.552c-.022 1.738-1.166 2.904-3.146 2.904-1.298 0-2.09-.66-2.09-1.606 0-1.144.814-1.694 2.288-1.694h2.948v.396zm9.943 4.752c2.882 0 4.796-1.606 5.236-4.158h-2.508c-.286 1.298-1.254 2.134-2.706 2.134-1.914 0-3.168-1.518-3.168-3.718 0-2.222 1.254-3.762 3.168-3.762 1.474 0 2.42.814 2.728 2.134h2.486c-.462-2.552-2.266-4.158-5.17-4.158-3.41 0-5.654 2.31-5.654 5.786 0 3.52 2.178 5.742 5.588 5.742zm12.224 0c2.882 0 4.796-1.606 5.236-4.158h-2.508c-.286 1.298-1.254 2.134-2.706 2.134-1.914 0-3.168-1.518-3.168-3.718 0-2.222 1.254-3.762 3.168-3.762 1.474 0 2.42.814 2.728 2.134h2.486c-.462-2.552-2.266-4.158-5.17-4.158-3.41 0-5.654 2.31-5.654 5.786 0 3.52 2.178 5.742 5.588 5.742zm12.379 0c3.432 0 5.742-2.31 5.742-5.764 0-3.432-2.31-5.764-5.742-5.764s-5.742 2.332-5.742 5.764c0 3.454 2.31 5.764 5.742 5.764zm0-2.024c-2.002 0-3.3-1.562-3.3-3.74s1.298-3.74 3.3-3.74 3.322 1.562 3.322 3.74-1.32 3.74-3.322 3.74zm15.374-3.74c0 2.332-1.1 3.696-2.904 3.696-1.738 0-2.618-1.122-2.618-3.322V69.77h-2.376v6.27c0 3.85 2.046 5.126 4.444 5.126 1.738 0 2.772-.704 3.476-1.562l.264 1.43h2.09V69.77h-2.376v5.632zm10.658-5.764c-1.826 0-2.904.726-3.608 1.606l-.264-1.474h-2.068v11.264h2.376v-5.676c0-2.288 1.122-3.674 3.014-3.674 1.782 0 2.684 1.144 2.684 3.278v6.072h2.398v-6.27c0-3.762-2.046-5.126-4.532-5.126zm7.507 8.338c0 2.046.924 3.058 3.08 3.058h2.2v-2.09h-1.672c-.902 0-1.21-.33-1.21-1.21V71.86h2.75v-2.09h-2.75v-3.146h-2.398v3.146h-1.958v2.09h1.958v6.116zm15.581 3.058h1.21l3.3-9.372 3.146 9.372h1.21l3.96-11.154h-1.144l-3.432 9.812-3.19-9.812h-1.034l-3.366 9.812-3.256-9.812h-1.188l3.784 11.154zm14.967-13.508c.44 0 .792-.33.792-.792a.775.775 0 00-.792-.792c-.44 0-.792.33-.792.792s.352.792.792.792zm-.572 13.508h1.122V69.88h-1.122v11.154zm4.596-2.596c0 1.782.726 2.596 2.618 2.596h1.628V80h-1.54c-1.166 0-1.584-.44-1.584-1.584v-7.502h3.014V69.88h-3.014v-3.124h-1.122v3.124h-2.112v1.034h2.112v7.524zm11.101-8.69c-2.09 0-3.388 1.166-4.026 2.772v-6.886h-1.122v15.4h1.122v-5.5c0-2.904 1.474-4.752 3.85-4.752 2.134 0 3.454 1.408 3.454 4.048v6.204h1.122v-6.248c0-3.52-1.87-5.038-4.4-5.038zm19.611 11.418c3.3 0 5.632-1.782 6.292-4.884h-1.254c-.66 2.464-2.442 3.784-5.06 3.784-3.564 0-5.808-2.794-5.808-6.732s2.288-6.732 5.852-6.732c2.574 0 4.378 1.342 5.06 3.762h1.254c-.682-3.08-3.014-4.862-6.248-4.862-4.334 0-7.15 3.212-7.15 7.832 0 4.664 2.75 7.832 7.062 7.832zm9.157-13.64c.44 0 .792-.33.792-.792a.775.775 0 00-.792-.792c-.44 0-.792.33-.792.792s.352.792.792.792zm-.572 13.508h1.122V69.88h-1.122v11.154zm4.596-2.596c0 1.782.726 2.596 2.618 2.596h1.628V80h-1.54c-1.166 0-1.584-.44-1.584-1.584v-7.502h3.014V69.88h-3.014v-3.124h-1.122v3.124h-2.112v1.034h2.112v7.524zm9.297 2.596l-.726 1.804c-.506 1.232-.704 1.562-1.848 1.562h-1.408v1.034h1.716c1.496 0 1.848-.572 2.552-2.332l5.346-13.222h-1.21l-3.806 9.702-3.872-9.702h-1.21l4.466 11.154zm13.334 0h1.188v-15.4h-1.188v15.4zm9.245-11.286c-2.046 0-3.366 1.056-4.004 2.508l-.176-2.376h-.968v11.154h1.122v-5.5c0-2.904 1.474-4.752 3.85-4.752 2.156 0 3.454 1.408 3.454 4.048v6.204h1.122v-6.248c0-3.52-1.87-5.038-4.4-5.038zm15.82 2.64c-.682-1.584-2.178-2.64-4.268-2.64-3.058 0-5.258 2.332-5.258 5.698 0 3.52 2.2 5.72 5.258 5.72 2.09 0 3.542-1.122 4.246-2.684l.176 2.552h.968v-15.4h-1.122v6.754zm-4.18 7.766c-2.486 0-4.202-1.936-4.202-4.708 0-2.75 1.716-4.708 4.202-4.708 2.486 0 4.202 1.958 4.202 4.73 0 2.75-1.716 4.686-4.202 4.686zm12.869 1.012c2.442 0 4.312-1.584 4.796-3.828h-1.144c-.44 1.738-1.914 2.816-3.74 2.816-2.486 0-4.048-1.892-4.092-4.488v-.198h9.108c0-.154.022-.33.022-.462-.11-3.322-2.156-5.258-5.148-5.258-3.058 0-5.148 2.332-5.148 5.632 0 3.498 2.178 5.786 5.346 5.786zm-4.092-6.644c.176-2.266 1.87-3.784 3.916-3.784 2.178 0 3.74 1.342 3.916 3.784h-7.832zm9.685 6.512h1.298l3.696-4.906 3.696 4.906h1.364l-4.334-5.698 4.114-5.456h-1.276l-3.52 4.62-3.476-4.62h-1.342l4.114 5.456-4.334 5.698zm18.266-2.596c0 1.782.726 2.596 2.618 2.596h1.628V80h-1.54c-1.166 0-1.584-.44-1.584-1.584v-7.502h3.014V69.88h-3.014v-3.124h-1.122v3.124h-2.112v1.034h2.112v7.524zm10.537 2.728c3.146 0 5.368-2.332 5.368-5.72 0-3.366-2.222-5.698-5.368-5.698-3.146 0-5.346 2.332-5.346 5.698 0 3.388 2.2 5.72 5.346 5.72zm0-1.012c-2.486 0-4.202-1.936-4.202-4.708 0-2.75 1.716-4.708 4.202-4.708 2.486 0 4.202 1.958 4.202 4.708 0 2.772-1.716 4.708-4.202 4.708zm16.706-7.766c-.682-1.584-2.178-2.64-4.268-2.64-3.058 0-5.258 2.332-5.258 5.698 0 3.52 2.2 5.72 5.258 5.72 2.09 0 3.542-1.122 4.246-2.684l.176 2.552h.968v-15.4h-1.122v6.754zm-4.18 7.766c-2.486 0-4.202-1.936-4.202-4.708 0-2.75 1.716-4.708 4.202-4.708 2.486 0 4.202 1.958 4.202 4.73 0 2.75-1.716 4.686-4.202 4.686zM506.81 80c-.66 0-.99-.22-.99-1.078V73.73c0-2.552-1.562-3.982-4.356-3.982-2.552 0-4.246 1.232-4.532 3.256h1.122c.286-1.364 1.474-2.266 3.366-2.266 2.09 0 3.278 1.1 3.278 2.948v.968h-3.784c-2.86 0-4.4 1.232-4.4 3.322 0 1.98 1.562 3.19 3.938 3.19 2.266 0 3.608-1.034 4.29-2.42v.396c-.044 1.32.506 1.892 1.826 1.892h.66V80h-.418zm-2.112-3.476c0 2.134-1.518 3.674-4.158 3.674-1.782 0-2.882-.902-2.882-2.288 0-1.474 1.1-2.288 3.168-2.288h3.872v.902zm7.009 4.51l-.726 1.804c-.506 1.232-.704 1.562-1.848 1.562h-1.408v1.034h1.716c1.496 0 1.848-.572 2.552-2.332l5.346-13.222h-1.21l-3.806 9.702-3.872-9.702h-1.21l4.466 11.154z" fill="#000"/><path d="M1.111 17.845h11.998v33.218h6.388V17.845h11.998V12.18H1.111v5.665zm46.163 4.777c-4.666 0-6.943 1.89-8.387 4.278l-.667-4.277h-5.333v28.44h6V36.787c0-4.388 1.721-8.554 7.054-8.554h2.666v-5.61h-1.333zm30.162 23.22c-1.223 0-1.834-.39-1.834-1.834V32.621c0-6.721-4.332-10.332-11.887-10.332-7.165 0-11.942 3.444-12.553 8.999h5.888c.444-2.5 2.833-4.166 6.388-4.166 3.943 0 6.22 1.944 6.22 5.11v1.722h-7.165c-7.943 0-12.165 3.277-12.165 9.11 0 5.277 4.333 8.332 10.554 8.332 4.61 0 7.5-2 9.388-4.888 0 2.833 1.333 4.555 5.221 4.555h3.166V45.84h-1.221zm-7.777-6.444c-.056 4.388-2.944 7.332-7.943 7.332-3.278 0-5.277-1.666-5.277-4.055 0-2.888 2.055-4.277 5.776-4.277h7.444v1zm33.657-12.832c-1.833-2.5-4.888-4.277-9.22-4.277-7.722 0-13.443 5.777-13.443 14.554 0 9.11 5.721 14.553 13.442 14.553 4.5 0 7.444-2.11 9.277-4.61l.722 4.277h5.221V12.18h-5.999v14.386zm-8.22 19.775c-5 0-8.277-3.888-8.277-9.498 0-5.555 3.277-9.443 8.276-9.443s8.277 3.888 8.277 9.554c0 5.499-3.278 9.387-8.277 9.387zm33.58 5.055c7.054 0 11.831-4.277 12.831-9.887h-5.999c-.833 3.166-3.5 4.999-7.166 4.999-4.721 0-7.776-3.166-7.943-7.999v-.389h21.441c.111-.777.167-1.555.167-2.277-.167-8.332-5.666-13.554-13.887-13.554-8.387 0-13.998 5.833-13.998 14.61 0 8.72 5.611 14.497 14.554 14.497zm-8.055-17.664c.445-4.055 3.722-6.61 7.555-6.61 4.166 0 7.11 2.388 7.61 6.61h-15.165zm42.503 9.61c0 5.166 2.333 7.72 7.777 7.72h5.555v-5.276h-4.222c-2.277 0-3.055-.834-3.055-3.055V27.899h6.944v-5.277h-6.944V14.68h-6.055v7.943h-4.943V27.9h4.943v15.443zm42.819 2.5c-1.222 0-1.833-.39-1.833-1.834V32.621c0-6.721-4.333-10.332-11.887-10.332-7.166 0-11.943 3.444-12.554 8.999h5.888c.444-2.5 2.833-4.166 6.388-4.166 3.944 0 6.221 1.944 6.221 5.11v1.722h-7.165c-7.944 0-12.165 3.277-12.165 9.11 0 5.277 4.332 8.332 10.554 8.332 4.61 0 7.499-2 9.387-4.888 0 2.833 1.333 4.555 5.222 4.555h3.166V45.84h-1.222zm-7.777-6.444c-.055 4.388-2.944 7.332-7.943 7.332-3.277 0-5.277-1.666-5.277-4.055 0-2.888 2.055-4.277 5.777-4.277h7.443v1zm9.323 11.665h6.61l7.499-10.332 7.443 10.332h6.999l-10.721-14.554 10.11-13.887h-6.61l-6.944 9.61-6.776-9.61H208.1l10.054 13.887-10.665 14.554zm47.48-13.332v-4.943h-18.886v4.943h18.886zm1.993-9.832h4.943v23.164h6.055V27.899h7.61v-5.277h-7.721v-2.388c0-1.944.833-2.777 2.777-2.777h4.944V12.18h-5.721c-5.5 0-7.944 2.666-7.944 7.776v2.666h-4.943V27.9zm36.098-5.277c-4.666 0-6.943 1.89-8.388 4.278l-.666-4.277h-5.333v28.44h5.999V36.787c0-4.388 1.722-8.554 7.055-8.554h2.666v-5.61h-1.333zm17.175 28.774c7.054 0 11.831-4.277 12.831-9.887h-5.999c-.833 3.166-3.499 4.999-7.165 4.999-4.722 0-7.777-3.166-7.944-7.999v-.389H323.4c.111-.777.166-1.555.166-2.277-.166-8.332-5.666-13.554-13.887-13.554-8.387 0-13.997 5.833-13.997 14.61 0 8.72 5.61 14.497 14.553 14.497zm-8.054-17.664c.444-4.055 3.721-6.61 7.554-6.61 4.166 0 7.11 2.388 7.61 6.61h-15.164zm39.733 17.664c7.055 0 11.832-4.277 12.832-9.887h-5.999c-.834 3.166-3.5 4.999-7.166 4.999-4.722 0-7.777-3.166-7.943-7.999v-.389h21.441c.111-.777.167-1.555.167-2.277-.167-8.332-5.666-13.554-13.887-13.554-8.388 0-13.998 5.833-13.998 14.61 0 8.72 5.61 14.497 14.553 14.497zm-8.054-17.664c.444-4.055 3.722-6.61 7.554-6.61 4.166 0 7.11 2.388 7.61 6.61H333.86z" fill="url(#paint0_linear_1247_6656)"/><defs><linearGradient id="paint0_linear_1247_6656" x1="364.661" y1="24.528" x2="0" y2="24.528" gradientUnits="userSpaceOnUse"><stop stop-color="#FF4343"/><stop offset=".5" stop-color="#9C0B93"/><stop offset="1" stop-color="#4C1BB7"/></linearGradient></defs></svg>