<svg width="188" height="21" viewBox="0 0 188 21" fill="none" xmlns="http://www.w3.org/2000/svg"><path d="M.54 3.854h5.832V20h3.105V3.854h5.832V1.1H.54v2.754zm22.439 2.322c-2.268 0-3.375.918-4.077 2.079l-.324-2.079h-2.592V20h2.916v-6.939c0-2.133.837-4.158 3.429-4.158h1.296V6.176h-.648zm14.66 11.286c-.594 0-.89-.189-.89-.891v-5.535c0-3.267-2.107-5.022-5.779-5.022-3.483 0-5.805 1.674-6.102 4.374h2.862c.216-1.215 1.377-2.025 3.105-2.025 1.917 0 3.024.945 3.024 2.484v.837h-3.483c-3.86 0-5.913 1.593-5.913 4.428 0 2.565 2.106 4.05 5.13 4.05 2.241 0 3.645-.972 4.563-2.376 0 1.377.648 2.214 2.538 2.214h1.54v-2.538h-.595zm-3.78-3.132c-.027 2.133-1.43 3.564-3.86 3.564-1.594 0-2.566-.81-2.566-1.971 0-1.404 1-2.079 2.808-2.079h3.618v.486zm16.36-6.237c-.89-1.215-2.376-2.079-4.482-2.079-3.753 0-6.534 2.808-6.534 7.074 0 4.428 2.781 7.074 6.534 7.074 2.187 0 3.618-1.026 4.51-2.241l.35 2.079h2.538V1.1H50.22v6.993zm-3.996 9.612c-2.43 0-4.023-1.89-4.023-4.617 0-2.7 1.593-4.59 4.023-4.59 2.43 0 4.023 1.89 4.023 4.644 0 2.673-1.593 4.563-4.023 4.563zm16.323 2.457c3.429 0 5.75-2.079 6.237-4.806h-2.916c-.405 1.539-1.701 2.43-3.483 2.43-2.295 0-3.78-1.539-3.861-3.888v-.189h10.422c.054-.378.08-.756.08-1.107-.08-4.05-2.753-6.588-6.75-6.588-4.076 0-6.803 2.835-6.803 7.101 0 4.239 2.727 7.047 7.074 7.047zm-3.915-8.586c.216-1.971 1.809-3.213 3.672-3.213 2.025 0 3.456 1.161 3.699 3.213H58.63zM78.588 20h3.105v-7.992h7.398V9.335h-7.398V3.854h8.964V1.1H78.588V20zm13.42-16.146h5.832V20h3.105V3.854h5.832V1.1h-14.77v2.754zm15.382 9.936c.108 3.78 2.943 6.372 7.641 6.372 4.158 0 6.993-2.349 6.993-5.751.027-3.726-3.024-4.725-6.156-5.292-2.97-.513-4.914-.918-4.914-2.862 0-1.782 1.485-2.7 3.618-2.7 2.295 0 3.807 1.296 4.05 3.213h3.105c-.135-3.483-2.835-5.832-7.155-5.832-4.023 0-6.723 2.241-6.723 5.535 0 3.753 2.97 4.752 6.102 5.292 2.997.54 4.968.972 4.968 2.97 0 1.809-1.62 2.808-3.861 2.808-2.646 0-4.374-1.485-4.536-3.699l-3.132-.054zM124.757 20h12.663v-2.754h-9.558v-5.481h7.614V9.092h-7.614V3.854h9.234V1.1h-12.339V20zm24.876-16.983c0 .999-.405 1.701-1.377 1.701h-2.943v2.565h3.078c.513 0 .918-.081 1.188-.243V20h2.997V1.1h-2.943v1.917zm5.747 7.965c0 5.697 3.051 9.18 7.452 9.18s7.452-3.483 7.452-9.18v-.864c0-5.481-3.051-9.18-7.452-9.18s-7.452 3.699-7.452 9.18v.864zm11.88-.108c0 4.239-1.782 6.669-4.428 6.669s-4.428-2.43-4.428-6.669v-.648c0-4.212 1.782-6.669 4.428-6.669s4.428 2.457 4.428 6.669v.648zm5.127.108c0 5.697 3.051 9.18 7.452 9.18s7.452-3.483 7.452-9.18v-.864c0-5.481-3.051-9.18-7.452-9.18s-7.452 3.699-7.452 9.18v.864zm11.88-.108c0 4.239-1.782 6.669-4.428 6.669s-4.428-2.43-4.428-6.669v-.648c0-4.212 1.782-6.669 4.428-6.669s4.428 2.457 4.428 6.669v.648z" fill="#000"/></svg>