<svg width="132" height="20" viewBox="0 0 132 20" fill="none" xmlns="http://www.w3.org/2000/svg"><rect x=".5" y=".5" width="131" height="19" rx="9.5" fill="#fff"/><path d="M12.248 13.5h.957v-3.366h3.168v-.88h-3.168V6.68h3.828V5.8h-4.785v7.7zm6.142-6.556c.33 0 .582-.242.582-.583a.567.567 0 00-.582-.583.567.567 0 00-.584.583c0 .341.253.583.584.583zm-.463 6.556h.902V7.89h-.902v5.61zm4.888-5.676c-.946 0-1.518.396-1.848.825l-.12-.759h-.782v5.61h.902v-2.805c0-1.265.638-2.046 1.694-2.046.98 0 1.518.616 1.518 1.782V13.5h.902v-3.124c0-1.859-1-2.552-2.266-2.552zm3.878-.88c.33 0 .583-.242.583-.583a.567.567 0 00-.583-.583.567.567 0 00-.583.583c0 .341.253.583.583.583zm-.462 6.556h.902V7.89h-.902v5.61zm1.907-1.848c.022 1.232 1.023 1.914 2.475 1.914 1.243 0 2.244-.649 2.244-1.694 0-1.243-1.023-1.485-2.3-1.639-.813-.099-1.407-.176-1.407-.792 0-.517.528-.847 1.309-.847.77 0 1.298.429 1.364 1.001h.924c-.088-1.166-1.012-1.76-2.288-1.771-1.265-.011-2.2.66-2.2 1.683 0 1.166 1 1.419 2.255 1.573.836.099 1.452.154 1.452.858 0 .517-.561.858-1.353.858-.935 0-1.518-.484-1.551-1.144h-.924zm8.47-3.828c-.946 0-1.518.462-1.848.99V5.8h-.902v7.7h.902v-2.805c0-1.265.65-2.046 1.694-2.046.968 0 1.53.616 1.53 1.782V13.5h.901v-3.124c0-1.859-1.023-2.552-2.277-2.552zm7.934 5.709l-.275.682c-.21.528-.297.66-.814.66h-.803v.825h1.078c.792 0 1-.352 1.353-1.254l2.585-6.556h-.957l-1.672 4.477L43.31 7.89h-.957l2.189 5.643zm6.135.033c1.639 0 2.783-1.166 2.783-2.871s-1.144-2.871-2.783-2.871c-1.64 0-2.783 1.166-2.783 2.871s1.144 2.871 2.783 2.871zm0-.803c-1.111 0-1.86-.869-1.86-2.068s.749-2.068 1.86-2.068c1.11 0 1.859.869 1.859 2.068s-.748 2.068-1.86 2.068zm7.744-2.068c0 1.265-.616 2.046-1.64 2.046-.934 0-1.462-.616-1.462-1.782V7.89h-.902v3.124c0 1.859.979 2.552 2.21 2.552.925 0 1.464-.396 1.794-.814l.12.748h.782V7.89h-.902v2.805zm4.727-2.805c-1 0-1.43.418-1.694.847l-.12-.847h-.782v5.61h.903v-2.86c0-.891.319-1.87 1.495-1.87h.451v-.88h-.253zm8.875 4.785c-.253 0-.363-.077-.363-.374V9.848c0-1.309-.825-2.024-2.255-2.024-1.353 0-2.244.649-2.376 1.749h.902c.11-.572.638-.946 1.43-.946.88 0 1.397.44 1.397 1.166v.385h-1.65c-1.474 0-2.255.627-2.255 1.749 0 1.023.836 1.639 2.068 1.639.968 0 1.53-.429 1.881-.935.011.55.264.869 1.012.869h.495v-.825h-.286zm-1.265-1.463c0 .935-.649 1.584-1.77 1.584-.749 0-1.222-.374-1.222-.924 0-.638.451-.935 1.254-.935h1.738v.275zm5.072-3.388c-.946 0-1.551.451-1.925.968l-.121-.902h-.781v7.81h.902v-3.058c.34.539.979.924 1.925.924 1.55 0 2.695-1.155 2.695-2.871 0-1.826-1.144-2.871-2.695-2.871zm-.088 4.939c-1.1 0-1.848-.858-1.848-2.09 0-1.199.748-2.046 1.848-2.046 1.11 0 1.859.847 1.859 2.068s-.748 2.068-1.86 2.068zm6.64-4.939c-.946 0-1.55.451-1.925.968l-.12-.902h-.782v7.81h.902v-3.058c.342.539.98.924 1.925.924 1.551 0 2.695-1.155 2.695-2.871 0-1.826-1.144-2.871-2.695-2.871zm-.088 4.939c-1.1 0-1.847-.858-1.847-2.09 0-1.199.748-2.046 1.847-2.046 1.112 0 1.86.847 1.86 2.068s-.748 2.068-1.86 2.068zm3.814.737h.902V5.8h-.902v7.7zm2.6-6.556c.33 0 .583-.242.583-.583a.567.567 0 00-.583-.583.567.567 0 00-.583.583c0 .341.253.583.583.583zm-.462 6.556h.902V7.89h-.902v5.61zm4.657.066c1.364 0 2.277-.77 2.497-1.98h-.957c-.176.715-.726 1.177-1.53 1.177-1.077 0-1.803-.836-1.803-2.057s.726-2.079 1.804-2.079c.825 0 1.375.451 1.54 1.199h.946c-.231-1.232-1.1-2.002-2.475-2.002-1.628 0-2.74 1.166-2.74 2.882 0 1.749 1.079 2.86 2.718 2.86zm8.446-.891c-.253 0-.363-.077-.363-.374V9.848c0-1.309-.825-2.024-2.255-2.024-1.352 0-2.243.649-2.375 1.749h.901c.11-.572.638-.946 1.43-.946.88 0 1.397.44 1.397 1.166v.385h-1.65c-1.474 0-2.254.627-2.254 1.749 0 1.023.835 1.639 2.067 1.639.969 0 1.53-.429 1.881-.935.011.55.264.869 1.012.869h.495v-.825h-.286zm-1.265-1.463c0 .935-.648 1.584-1.77 1.584-.748 0-1.221-.374-1.221-.924 0-.638.45-.935 1.254-.935h1.737v.275zm2.663.825c0 .99.385 1.463 1.463 1.463h.979v-.825h-.891c-.484 0-.649-.176-.649-.649V8.715h1.452V7.89h-1.452V6.317h-.902V7.89h-1.012v.825h1.012v3.322zm3.685-5.093c.33 0 .583-.242.583-.583a.567.567 0 00-.583-.583.567.567 0 00-.583.583c0 .341.253.583.583.583zm-.462 6.556h.902V7.89h-.902v5.61zm4.723.066c1.639 0 2.783-1.166 2.783-2.871s-1.144-2.871-2.783-2.871-2.783 1.166-2.783 2.871 1.144 2.871 2.783 2.871zm0-.803c-1.111 0-1.859-.869-1.859-2.068s.748-2.068 1.859-2.068 1.859.869 1.859 2.068-.748 2.068-1.859 2.068zm6.568-4.939c-.946 0-1.518.396-1.848.825l-.121-.759h-.781v5.61h.902v-2.805c0-1.265.638-2.046 1.694-2.046.979 0 1.518.616 1.518 1.782V13.5h.902v-3.124c0-1.859-1.001-2.552-2.266-2.552z" fill="#000"/></svg>