<svg width="146" height="56" viewBox="0 0 146 56" fill="none" xmlns="http://www.w3.org/2000/svg"><path d="M5.64 17h1.536L11.52 2.336 15.864 17H17.4L22.536.2h-1.344l-4.536 15.096L12.24.2h-1.32L6.384 15.296 1.896.2H.528L5.64 17zM25.126 2.264c.48 0 .864-.36.864-.864a.846.846 0 00-.863-.864c-.48 0-.864.36-.864.864s.383.864.863.864zM24.503 17h1.224V4.832h-1.224V17zm5.013-2.832c0 1.944.792 2.832 2.856 2.832h1.776v-1.128h-1.68c-1.272 0-1.728-.48-1.728-1.728V5.96h3.288V4.832H30.74V1.424h-1.224v3.408h-2.304V5.96h2.304v8.208zm12.11-9.48c-2.28 0-3.696 1.272-4.392 3.024V.2H36.01V17h1.224v-6c0-3.168 1.608-5.184 4.2-5.184 2.328 0 3.768 1.536 3.768 4.416V17h1.224v-6.816c0-3.84-2.04-5.496-4.8-5.496zm24.706 11.184c-.72 0-1.08-.24-1.08-1.176V9.032c0-2.784-1.704-4.344-4.752-4.344-2.785 0-4.633 1.344-4.944 3.552h1.224c.312-1.488 1.608-2.472 3.672-2.472 2.28 0 3.576 1.2 3.576 3.216v1.056h-4.129c-3.12 0-4.8 1.344-4.8 3.624 0 2.16 1.705 3.48 4.297 3.48 2.471 0 3.935-1.128 4.68-2.64v.432c-.048 1.44.552 2.064 1.992 2.064h.72v-1.128h-.456zm-2.304-3.792c0 2.328-1.657 4.008-4.537 4.008-1.944 0-3.144-.984-3.144-2.496 0-1.608 1.2-2.496 3.456-2.496h4.225v.984zm11.777 2.088c0 1.944.792 2.832 2.856 2.832h1.776v-1.128h-1.68c-1.272 0-1.728-.48-1.728-1.728V5.96h3.288V4.832H77.03V1.424h-1.224v3.408h-2.304V5.96h2.304v8.208zm11.462-9.336c-2.256 0-3.216 1.08-3.72 2.424l-.192-2.424H82.3V17h1.224v-6.168c0-2.472.648-4.824 3.504-4.824h.888V4.832h-.648zm11.294 5.976c0 3.192-1.584 5.208-4.104 5.208-2.256 0-3.648-1.536-3.648-4.44V4.832h-1.224v6.816c0 3.816 1.992 5.496 4.68 5.496 2.16 0 3.576-1.152 4.272-2.712L98.705 17h1.08V4.832h-1.224v5.976zm3.554 2.448c.096 2.52 2.136 3.888 5.184 3.888 2.616 0 4.728-1.32 4.728-3.48 0-2.568-2.256-3.072-4.872-3.432-1.896-.264-3.576-.48-3.576-2.184 0-1.392 1.368-2.304 3.432-2.304 1.944 0 3.336.936 3.552 2.52h1.248c-.216-2.376-2.16-3.576-4.8-3.576-2.712-.024-4.656 1.368-4.656 3.456 0 2.448 2.256 2.904 4.752 3.24 2.04.288 3.696.552 3.696 2.352 0 1.44-1.512 2.352-3.504 2.352-2.328 0-3.84-1.08-3.936-2.832h-1.248zm13.159.912c0 1.944.792 2.832 2.856 2.832h1.776v-1.128h-1.68c-1.272 0-1.728-.48-1.728-1.728V5.96h3.288V4.832h-3.288V1.424h-1.224v3.408h-2.304V5.96h2.304v8.208zm11.495 2.976c2.664 0 4.704-1.728 5.232-4.176h-1.248c-.48 1.896-2.088 3.072-4.08 3.072-2.712 0-4.416-2.064-4.464-4.896v-.216h9.936c0-.168.024-.36.024-.504-.12-3.624-2.352-5.736-5.616-5.736-3.336 0-5.616 2.544-5.616 6.144 0 3.816 2.376 6.312 5.832 6.312zm-4.464-7.248c.192-2.472 2.04-4.128 4.272-4.128 2.376 0 4.08 1.464 4.272 4.128h-8.544zm22.219-2.328c-.744-1.728-2.376-2.88-4.656-2.88-3.336 0-5.736 2.544-5.736 6.216 0 3.84 2.4 6.24 5.736 6.24 2.28 0 3.864-1.224 4.632-2.928l.192 2.784h1.056V.2h-1.224v7.368zm-4.56 8.472c-2.712 0-4.584-2.112-4.584-5.136 0-3 1.872-5.136 4.584-5.136 2.712 0 4.584 2.136 4.584 5.16 0 3-1.872 5.112-4.584 5.112zM7.32 38.688c-2.28 0-3.864 1.224-4.632 2.928l-.192-2.784H1.44V55.8h1.224v-7.608c.696 1.776 2.352 2.952 4.656 2.952 3.336 0 5.736-2.544 5.736-6.24 0-3.816-2.4-6.216-5.736-6.216zM7.224 50.04c-2.712 0-4.584-2.112-4.584-5.16 0-2.976 1.872-5.112 4.584-5.112 2.712 0 4.584 2.136 4.584 5.136 0 3.024-1.872 5.136-4.584 5.136zm13.223-11.208c-2.256 0-3.216 1.08-3.72 2.424l-.192-2.424H15.48V51h1.224v-6.168c0-2.472.648-4.824 3.504-4.824h.888v-1.176h-.648zm6.97 12.312c3.433 0 5.857-2.544 5.857-6.24 0-3.672-2.424-6.216-5.856-6.216s-5.832 2.544-5.832 6.216c0 3.696 2.4 6.24 5.832 6.24zm0-1.104c-2.711 0-4.583-2.112-4.583-5.136 0-3 1.872-5.136 4.584-5.136 2.712 0 4.584 2.136 4.584 5.136 0 3.024-1.872 5.136-4.584 5.136zm11.301.96h1.464l4.752-12.168h-1.272l-4.176 10.752-4.2-10.752h-1.32L38.718 51zm8.51-14.736c.48 0 .864-.36.864-.864a.846.846 0 00-.864-.864c-.48 0-.864.36-.864.864s.384.864.864.864zM46.604 51h1.224V38.832h-1.224V51zm14.038-9.432c-.744-1.728-2.376-2.88-4.656-2.88-3.336 0-5.736 2.544-5.736 6.216 0 3.84 2.4 6.24 5.736 6.24 2.28 0 3.864-1.224 4.632-2.928L60.81 51h1.056V34.2h-1.224v7.368zm-4.56 8.472c-2.712 0-4.584-2.112-4.584-5.136 0-3 1.872-5.136 4.584-5.136 2.712 0 4.584 2.136 4.584 5.16 0 3-1.872 5.112-4.584 5.112zm14.039 1.104c2.664 0 4.704-1.728 5.232-4.176h-1.248c-.48 1.896-2.088 3.072-4.08 3.072-2.712 0-4.416-2.064-4.464-4.896v-.216h9.936c0-.168.024-.36.024-.504-.12-3.624-2.352-5.736-5.616-5.736-3.336 0-5.616 2.544-5.616 6.144 0 3.816 2.376 6.312 5.832 6.312zm-4.464-7.248c.192-2.472 2.04-4.128 4.272-4.128 2.376 0 4.08 1.464 4.272 4.128h-8.544zm17.251-5.064c-2.256 0-3.216 1.08-3.72 2.424l-.192-2.424H77.94V51h1.224v-6.168c0-2.472.648-4.824 3.504-4.824h.888v-1.176h-.648z" fill="#000"/></svg>