<svg width="144" height="27" viewBox="0 0 144 27" fill="none" xmlns="http://www.w3.org/2000/svg"><path d="M.72 4.472h7.776V26h4.14V4.472h7.776V.8H.72v3.672zm29.918 3.096c-3.024 0-4.5 1.224-5.436 2.772l-.432-2.772h-3.456V26h3.888v-9.252c0-2.844 1.116-5.544 4.572-5.544h1.728V7.568h-.864zm19.548 15.048c-.792 0-1.188-.252-1.188-1.188v-7.38c0-4.356-2.808-6.696-7.704-6.696-4.644 0-7.74 2.232-8.136 5.832h3.816c.288-1.62 1.836-2.7 4.14-2.7 2.556 0 4.032 1.26 4.032 3.312v1.116h-4.644c-5.148 0-7.884 2.124-7.884 5.904 0 3.42 2.808 5.4 6.84 5.4 2.988 0 4.86-1.296 6.084-3.168 0 1.836.864 2.952 3.384 2.952h2.052v-3.384h-.792zm-5.04-4.176c-.036 2.844-1.908 4.752-5.148 4.752-2.124 0-3.42-1.08-3.42-2.628 0-1.872 1.332-2.772 3.744-2.772h4.824v.648zm21.813-8.316c-1.188-1.62-3.168-2.772-5.976-2.772-5.004 0-8.712 3.744-8.712 9.432 0 5.904 3.708 9.432 8.712 9.432 2.916 0 4.824-1.368 6.012-2.988L67.463 26h3.384V.8h-3.888v9.324zM61.63 22.94c-3.24 0-5.364-2.52-5.364-6.156 0-3.6 2.124-6.12 5.364-6.12 3.24 0 5.364 2.52 5.364 6.192 0 3.564-2.124 6.084-5.364 6.084zm21.763 3.276c4.572 0 7.668-2.772 8.316-6.408h-3.888c-.54 2.052-2.268 3.24-4.644 3.24-3.06 0-5.04-2.052-5.148-5.184v-.252h13.896c.072-.504.108-1.008.108-1.476-.108-5.4-3.672-8.784-9-8.784-5.436 0-9.072 3.78-9.072 9.468 0 5.652 3.636 9.396 9.432 9.396zm-5.22-11.448c.288-2.628 2.412-4.284 4.896-4.284 2.7 0 4.608 1.548 4.932 4.284h-9.828zm50.118-1.368c0-7.38-5.004-12.816-12.24-12.816-7.236 0-12.24 5.436-12.24 12.816 0 7.38 5.004 12.816 12.24 12.816 7.236 0 12.24-5.436 12.24-12.816zm-20.232 0c0-5.328 3.204-9.18 7.992-9.18s7.992 3.852 7.992 9.18c0 5.328-3.204 9.18-7.992 9.18s-7.992-3.852-7.992-9.18zm25.449-8.424c1.332 0 2.376-.972 2.376-2.34 0-1.368-1.044-2.34-2.376-2.34-1.332 0-2.376.972-2.376 2.34 0 1.368 1.044 2.34 2.376 2.34zM131.529 26h3.888V7.568h-3.888V26zm7.699 0h3.888V.8h-3.888V26z" fill="#000"/></svg>