<svg width="70" height="9" viewBox="0 0 70 9" fill="none" xmlns="http://www.w3.org/2000/svg"><path d="M3.483 7.057c1.05 0 1.731-.473 2.053-.947l.095.89h.842V3.375H3.596v.918h1.836v.161c-.057 1.07-.88 1.647-1.902 1.647-1.268 0-2.063-.994-2.063-2.413 0-1.42.814-2.413 2.072-2.413.918 0 1.552.51 1.751 1.353h1.126c-.198-1.4-1.315-2.31-2.848-2.31C1.599.319.35 1.673.35 3.689c0 2.015 1.278 3.369 3.133 3.369zm6.397 0c1.202 0 2.016-.729 2.186-1.685h-1.022c-.142.54-.596.852-1.22.852-.805 0-1.325-.54-1.354-1.363v-.066h3.653a2.78 2.78 0 00.029-.388c-.029-1.42-.966-2.31-2.366-2.31-1.43 0-2.385.995-2.385 2.49 0 1.486.956 2.47 2.48 2.47zm-1.372-3.01c.076-.69.634-1.126 1.287-1.126.71 0 1.212.407 1.297 1.126H8.508zm4.783 1.638c0 .88.398 1.315 1.325 1.315h.946v-.899h-.719c-.388 0-.52-.142-.52-.52V3.053h1.183v-.9h-1.183V.802H13.29v1.354h-.842v.899h.842v2.63zm7.567 1.372c1.24 0 2.063-.691 2.252-1.789h-1.079c-.123.559-.539.918-1.164.918-.823 0-1.362-.653-1.362-1.6 0-.955.539-1.617 1.362-1.617.634 0 1.041.35 1.174.917h1.07c-.2-1.097-.976-1.788-2.225-1.788-1.467 0-2.432.994-2.432 2.489 0 1.514.937 2.47 2.404 2.47zM23.892 7h1.023V.375h-1.023V7zm6.454-.89c-.209 0-.313-.066-.313-.312v-1.94c0-1.145-.738-1.76-2.025-1.76-1.22 0-2.035.587-2.139 1.533h1.003c.076-.426.483-.71 1.089-.71.672 0 1.06.331 1.06.87v.294H27.8c-1.354 0-2.073.559-2.073 1.552 0 .9.738 1.42 1.798 1.42.786 0 1.278-.34 1.6-.833 0 .483.227.776.89.776h.539v-.89h-.208zM29.02 5.013c-.009.747-.501 1.249-1.353 1.249-.558 0-.899-.284-.899-.691 0-.492.35-.729.984-.729h1.268v.17zm4.541-2.858c-.794 0-1.182.321-1.429.728l-.113-.728h-.909V7h1.022V4.568c0-.748.294-1.458 1.202-1.458h.455v-.955h-.228zm1.378-.682c.35 0 .625-.255.625-.615a.604.604 0 00-.625-.615.605.605 0 00-.624.615c0 .36.274.615.624.615zM34.42 7h1.022V2.155h-1.022V7zm2.374-1.315c0 .88.398 1.315 1.325 1.315h.946v-.899h-.719c-.388 0-.52-.142-.52-.52V3.053h1.182v-.9h-1.182V.802h-1.032v1.354h-.842v.899h.842v2.63zm4.322 1.343l-.19.474c-.15.397-.245.492-.643.492h-.719v.899h1.098c.71 0 .918-.35 1.22-1.136l2.196-5.602H42.99l-1.316 3.681-1.353-3.681h-1.088l1.883 4.873zM48.132 7h1.107l1.06-3.293L51.321 7h1.098l1.609-4.845h-1.041l-1.145 3.71-1.06-3.71h-.937l-1.107 3.71-1.107-3.71h-1.08L48.133 7zm8.98-4.902c-.757 0-1.221.34-1.524.757V.375h-1.022V7h1.022V4.549c0-.975.492-1.571 1.297-1.571.757 0 1.164.492 1.164 1.41V7h1.022V4.303c0-1.618-.88-2.205-1.96-2.205zm5.15 4.959c1.203 0 2.017-.729 2.187-1.685h-1.022c-.142.54-.596.852-1.22.852-.805 0-1.326-.54-1.354-1.363v-.066h3.653a2.78 2.78 0 00.028-.388c-.028-1.42-.965-2.31-2.366-2.31-1.429 0-2.385.995-2.385 2.49 0 1.486.956 2.47 2.48 2.47zm-1.371-3.01c.075-.69.634-1.126 1.287-1.126.71 0 1.211.407 1.296 1.126h-2.583zm7.025-1.95c-.786 0-1.25.313-1.552.692l-.114-.634h-.89V7h1.022V4.558c0-.984.483-1.58 1.297-1.58.767 0 1.155.492 1.155 1.41V7h1.031V4.303c0-1.618-.88-2.205-1.95-2.205z" fill="#000"/></svg>