<svg width="94" height="17" viewBox="0 0 94 17" fill="none" xmlns="http://www.w3.org/2000/svg"><path d="M.594 10.918c0 3.19 2.574 5.214 6.556 5.214 3.806 0 6.27-2.046 6.292-5.038.022-3.168-2.178-3.938-4.884-4.466-2.684-.528-3.542-.726-3.542-1.65 0-.946.836-1.386 1.936-1.386 1.364 0 2.112.77 2.2 1.804h3.938c0-3.036-2.398-4.928-6.138-4.928C3.278.468.946 2.492.946 5.286c0 3.212 2.134 4.026 4.796 4.576 2.706.55 3.63.748 3.63 1.694 0 .99-.924 1.474-2.156 1.474-1.65 0-2.596-.858-2.684-2.024l-3.938-.088zm15.417 2.156c0 1.98.77 2.926 2.926 2.926h1.958v-1.65h-1.782c-.968 0-1.298-.352-1.298-1.298V6.43h2.904V4.78h-2.904V1.634h-1.804V4.78h-2.024v1.65h2.024v6.644zM32.21 14.35c-.506 0-.726-.154-.726-.748V8.696c0-2.618-1.65-4.048-4.51-4.048-2.706 0-4.488 1.298-4.752 3.498h1.804c.22-1.144 1.276-1.892 2.86-1.892 1.76 0 2.794.88 2.794 2.332v.77h-3.3c-2.948 0-4.51 1.254-4.51 3.498 0 2.046 1.672 3.278 4.136 3.278 1.936 0 3.058-.858 3.762-1.87.022 1.1.528 1.738 2.024 1.738h.99v-1.65h-.572zm-2.53-2.926c0 1.87-1.298 3.168-3.542 3.168-1.496 0-2.442-.748-2.442-1.848 0-1.276.902-1.87 2.508-1.87h3.476v.55zm5.325 1.65c0 1.98.77 2.926 2.925 2.926h1.959v-1.65h-1.782c-.968 0-1.299-.352-1.299-1.298V6.43h2.904V4.78h-2.904V1.634h-1.803V4.78H32.98v1.65h2.024v6.644zm7.37-10.186c.66 0 1.167-.484 1.167-1.166 0-.682-.506-1.166-1.166-1.166-.66 0-1.166.484-1.166 1.166 0 .682.506 1.166 1.166 1.166zM41.452 16h1.804V4.78H41.45V16zm3.813-3.696c.044 2.464 2.046 3.828 4.95 3.828 2.486 0 4.488-1.298 4.488-3.388 0-2.486-2.046-2.97-4.598-3.278-1.628-.198-2.816-.352-2.816-1.584 0-1.034 1.056-1.694 2.618-1.694 1.54 0 2.596.858 2.728 2.002h1.848c-.176-2.332-2.024-3.52-4.576-3.542-2.53-.022-4.4 1.32-4.4 3.366 0 2.332 2.002 2.838 4.51 3.146 1.672.198 2.904.308 2.904 1.716 0 1.034-1.122 1.716-2.706 1.716-1.87 0-3.036-.968-3.102-2.288h-1.848zm12.277.77c0 1.98.77 2.926 2.926 2.926h1.958v-1.65h-1.782c-.968 0-1.298-.352-1.298-1.298V6.43h2.904V4.78h-2.904V1.634H57.54V4.78h-2.024v1.65h2.024v6.644zm7.37-10.186c.66 0 1.167-.484 1.167-1.166 0-.682-.506-1.166-1.166-1.166-.66 0-1.166.484-1.166 1.166 0 .682.506 1.166 1.166 1.166zM63.989 16h1.804V4.78h-1.804V16zm9.313.132c2.728 0 4.554-1.54 4.994-3.96h-1.914c-.352 1.43-1.452 2.354-3.058 2.354-2.156 0-3.608-1.672-3.608-4.114s1.452-4.158 3.608-4.158c1.65 0 2.75.902 3.08 2.398h1.892c-.462-2.464-2.2-4.004-4.95-4.004-3.256 0-5.478 2.332-5.478 5.764 0 3.498 2.156 5.72 5.434 5.72zm16.894-1.782c-.506 0-.726-.154-.726-.748V8.696c0-2.618-1.65-4.048-4.51-4.048-2.706 0-4.488 1.298-4.752 3.498h1.804c.22-1.144 1.276-1.892 2.86-1.892 1.76 0 2.794.88 2.794 2.332v.77h-3.3c-2.948 0-4.51 1.254-4.51 3.498 0 2.046 1.672 3.278 4.136 3.278 1.936 0 3.058-.858 3.762-1.87.022 1.1.528 1.738 2.024 1.738h.99v-1.65h-.572zm-2.53-2.926c0 1.87-1.298 3.168-3.542 3.168-1.496 0-2.442-.748-2.442-1.848 0-1.276.902-1.87 2.508-1.87h3.476v.55zM92.154 16h1.804V.6h-1.804V16z" fill="#fff"/></svg>