<svg width="101" height="15" viewBox="0 0 101 15" fill="none" xmlns="http://www.w3.org/2000/svg"><path d="M.28 14H2.5V3.7L6.7 14h1.94l4.2-10.3V14h2.22V0h-2.92l-4.4 11.02L3.26 0H.28v14zm21.744.12c2.22 0 3.92-1.44 4.36-3.48h-1.04c-.4 1.58-1.74 2.56-3.4 2.56-2.26 0-3.68-1.72-3.72-4.08v-.18h8.28c0-.14.02-.3.02-.42-.1-3.02-1.96-4.78-4.68-4.78-2.78 0-4.68 2.12-4.68 5.12 0 3.18 1.98 5.26 4.86 5.26zm-3.72-6.04c.16-2.06 1.7-3.44 3.56-3.44 1.98 0 3.4 1.22 3.56 3.44h-7.12zm19.156 4.98c-.6 0-.9-.2-.9-.98V7.36c0-2.32-1.42-3.62-3.96-3.62-2.32 0-3.86 1.12-4.12 2.96h1.02c.26-1.24 1.34-2.06 3.06-2.06 1.9 0 2.98 1 2.98 2.68v.88H32.1c-2.6 0-4 1.12-4 3.02 0 1.8 1.42 2.9 3.58 2.9 2.06 0 3.28-.94 3.9-2.2v.36c-.04 1.2.46 1.72 1.66 1.72h.6v-.94h-.38zM35.54 9.9c0 1.94-1.38 3.34-3.78 3.34-1.62 0-2.62-.82-2.62-2.08 0-1.34 1-2.08 2.88-2.08h3.52v.82zm3.204.98c.08 2.1 1.78 3.24 4.32 3.24 2.18 0 3.94-1.1 3.94-2.9 0-2.14-1.88-2.56-4.06-2.86-1.58-.22-2.98-.4-2.98-1.82 0-1.16 1.14-1.92 2.86-1.92 1.62 0 2.78.78 2.96 2.1h1.04c-.18-1.98-1.8-2.98-4-2.98-2.26-.02-3.88 1.14-3.88 2.88 0 2.04 1.88 2.42 3.96 2.7 1.7.24 3.08.46 3.08 1.96 0 1.2-1.26 1.96-2.92 1.96-1.94 0-3.2-.9-3.28-2.36h-1.04zM56.31 8.84c0 2.66-1.32 4.34-3.42 4.34-1.88 0-3.04-1.28-3.04-3.7V3.86h-1.02v5.68c0 3.18 1.66 4.58 3.9 4.58 1.8 0 2.98-.96 3.56-2.26l.14 2.14h.9V3.86h-1.02v4.98zm7.561-4.98c-1.88 0-2.68.9-3.1 2.02l-.16-2.02h-.88V14h1.02V8.86c0-2.06.54-4.02 2.92-4.02h.74v-.98h-.54zm10.542 9.2c-.6 0-.9-.2-.9-.98V7.36c0-2.32-1.42-3.62-3.96-3.62-2.32 0-3.86 1.12-4.12 2.96h1.02c.26-1.24 1.34-2.06 3.06-2.06 1.9 0 2.98 1 2.98 2.68v.88h-3.44c-2.6 0-4 1.12-4 3.02 0 1.8 1.42 2.9 3.58 2.9 2.06 0 3.28-.94 3.9-2.2v.36c-.04 1.2.46 1.72 1.66 1.72h.6v-.94h-.38zm-1.92-3.16c0 1.94-1.38 3.34-3.78 3.34-1.62 0-2.62-.82-2.62-2.08 0-1.34 1-2.08 2.88-2.08h3.52v.82zm8.564-6.16c-1.9 0-3.24 1.04-3.88 2.48V0h-1.02v14h.88l.16-2.3c.6 1.46 1.96 2.42 3.86 2.42 2.78 0 4.78-2.12 4.78-5.2 0-3.18-2-5.18-4.78-5.18zm-.08 9.46c-2.26 0-3.82-1.76-3.82-4.3 0-2.48 1.56-4.26 3.82-4.26s3.82 1.78 3.82 4.28c0 2.52-1.56 4.28-3.82 4.28zm6.88.8h1.02V0h-1.02v14zm7.897.12c2.22 0 3.92-1.44 4.36-3.48h-1.04c-.4 1.58-1.74 2.56-3.4 2.56-2.26 0-3.68-1.72-3.72-4.08v-.18h8.28c0-.14.02-.3.02-.42-.1-3.02-1.96-4.78-4.68-4.78-2.78 0-4.68 2.12-4.68 5.12 0 3.18 1.98 5.26 4.86 5.26zm-3.72-6.04c.16-2.06 1.7-3.44 3.56-3.44 1.98 0 3.4 1.22 3.56 3.44h-7.12z" fill="#fff"/></svg>