<svg width="118" height="17" viewBox="0 0 118 17" fill="none" xmlns="http://www.w3.org/2000/svg"><path d="M.44 4.032h4.158V16h4.048V4.032h4.158V.6H.44v3.432zm14.95-1.144c.66 0 1.166-.484 1.166-1.166 0-.682-.506-1.166-1.166-1.166-.66 0-1.166.484-1.166 1.166 0 .682.506 1.166 1.166 1.166zM14.466 16h1.804V4.78h-1.804V16zM31.26 4.648c-2.002 0-3.212.924-3.894 2.134-.638-1.43-1.98-2.134-3.542-2.134-1.738 0-2.684.858-3.278 1.672l-.242-1.54h-1.562V16h1.804v-5.918c0-2.244 1.122-3.784 2.97-3.784 1.716 0 2.706 1.144 2.706 3.344V16h1.804V9.994c0-2.288 1.144-3.696 3.014-3.696 1.694 0 2.662 1.144 2.662 3.344V16h1.804V9.532c0-3.542-1.914-4.884-4.246-4.884zM42.86 16.132c2.596 0 4.444-1.65 4.884-3.894h-1.826c-.374 1.452-1.606 2.288-3.19 2.288-2.134 0-3.476-1.496-3.542-3.63v-.154h8.712c.022-.264.044-.528.044-.77-.088-3.322-2.156-5.324-5.324-5.324-3.168 0-5.324 2.332-5.324 5.742 0 3.432 2.2 5.742 5.566 5.742zm-3.564-6.886c.176-1.826 1.694-3.014 3.344-3.014 1.87 0 3.19 1.078 3.366 3.014h-6.71zm9.388-2.816h2.024V16h1.804V6.43h3.168V4.78h-3.168V3.482c0-.858.33-1.232 1.232-1.232h1.936V.6h-2.046c-2.09 0-2.926.946-2.926 2.926V4.78h-2.024v1.65zm13.491-1.65c-2.002 0-2.86.836-3.388 1.694l-.242-1.694h-1.562V16h1.804v-5.72c0-1.782.638-3.74 2.992-3.74h.902V4.78h-.506zm11.605 9.57c-.506 0-.726-.154-.726-.748V8.696c0-2.618-1.65-4.048-4.51-4.048-2.706 0-4.488 1.298-4.752 3.498h1.804c.22-1.144 1.276-1.892 2.86-1.892 1.76 0 2.794.88 2.794 2.332v.77h-3.3c-2.948 0-4.51 1.254-4.51 3.498 0 2.046 1.672 3.278 4.136 3.278 1.936 0 3.058-.858 3.762-1.87.022 1.1.528 1.738 2.024 1.738h.99v-1.65h-.572zm-2.53-2.926c0 1.87-1.298 3.168-3.542 3.168-1.496 0-2.442-.748-2.442-1.848 0-1.276.902-1.87 2.508-1.87h3.476v.55zm17.007-6.776c-2.002 0-3.212.924-3.894 2.134-.638-1.43-1.98-2.134-3.542-2.134-1.738 0-2.684.858-3.278 1.672l-.242-1.54H75.74V16h1.804v-5.918c0-2.244 1.122-3.784 2.97-3.784 1.716 0 2.706 1.144 2.706 3.344V16h1.804V9.994c0-2.288 1.144-3.696 3.014-3.696 1.694 0 2.662 1.144 2.662 3.344V16h1.804V9.532c0-3.542-1.914-4.884-4.246-4.884zm11.601 11.484c2.596 0 4.444-1.65 4.884-3.894h-1.826c-.374 1.452-1.606 2.288-3.19 2.288-2.134 0-3.476-1.496-3.542-3.63v-.154h8.712c.022-.264.044-.528.044-.77-.088-3.322-2.156-5.324-5.324-5.324-3.168 0-5.324 2.332-5.324 5.742 0 3.432 2.2 5.742 5.566 5.742zm-3.564-6.886c.176-1.826 1.694-3.014 3.344-3.014 1.87 0 3.19 1.078 3.366 3.014h-6.71zm19.549-2.75c-.682-1.078-1.958-1.848-3.85-1.848-3.102 0-5.39 2.31-5.39 5.742 0 3.652 2.288 5.742 5.39 5.742 1.892 0 3.102-.902 3.85-1.936l.242 1.804h1.562V.6h-1.804v5.896zm-3.674 8.03c-2.222 0-3.718-1.694-3.718-4.136s1.496-4.136 3.718-4.136c2.2 0 3.696 1.716 3.696 4.18 0 2.398-1.496 4.092-3.696 4.092z" fill="#fff"/></svg>