<svg width="112" height="21" viewBox="0 0 112 21" fill="none" xmlns="http://www.w3.org/2000/svg"><path d="M4.202 16l.946-2.926h5.368L11.484 16h4.356L10.384.6H5.5L0 16h4.202zM7.81 4.89l1.65 4.994H6.182L7.81 4.89zM17.066 16h1.804V.6h-1.804V16zm13.12-9.284c-.705-1.254-1.959-2.068-3.85-2.068-3.103 0-5.39 2.31-5.39 5.742 0 3.652 2.287 5.742 5.39 5.742 1.891 0 3.101-.792 3.85-2.068v1.32c0 2.442-1.277 3.542-3.63 3.542-1.87 0-3.125-.792-3.433-2.2h-1.848c.286 2.464 2.288 3.806 5.148 3.806 3.85 0 5.566-1.848 5.566-5.082V4.78h-1.562l-.242 1.936zm-3.675 7.81c-2.222 0-3.718-1.694-3.718-4.136s1.496-4.136 3.718-4.136c2.2 0 3.696 1.716 3.696 4.18 0 2.398-1.496 4.092-3.696 4.092zm13.106 1.606c3.278 0 5.566-2.332 5.566-5.742s-2.288-5.742-5.566-5.742S34.05 6.98 34.05 10.39s2.288 5.742 5.566 5.742zm0-1.606c-2.222 0-3.718-1.738-3.718-4.136s1.496-4.136 3.718-4.136 3.718 1.738 3.718 4.136-1.496 4.136-3.718 4.136zM52.444 4.78c-2.003 0-2.86.836-3.389 1.694l-.242-1.694h-1.562V16h1.805v-5.72c0-1.782.638-3.74 2.992-3.74h.901V4.78h-.505zm2.993-1.892c.66 0 1.166-.484 1.166-1.166 0-.682-.506-1.166-1.166-1.166-.66 0-1.166.484-1.166 1.166 0 .682.506 1.166 1.166 1.166zM54.513 16h1.804V4.78h-1.804V16zm5.112-2.926c0 1.98.77 2.926 2.926 2.926h1.958v-1.65h-1.782c-.968 0-1.298-.352-1.298-1.298V6.43h2.904V4.78h-2.904V1.634h-1.804V4.78H57.6v1.65h2.024v6.644zm11.947-8.426c-1.892 0-3.036.924-3.696 1.98V.6h-1.804V16h1.804v-5.61c0-2.53 1.298-4.092 3.388-4.092 1.936 0 3.058 1.232 3.058 3.564V16h1.804V9.752c0-3.718-2.046-5.104-4.554-5.104zm19.371 0c-2.002 0-3.212.924-3.894 2.134-.638-1.43-1.98-2.134-3.542-2.134-1.738 0-2.684.858-3.278 1.672l-.242-1.54h-1.562V16h1.804v-5.918c0-2.244 1.122-3.784 2.97-3.784 1.716 0 2.706 1.144 2.706 3.344V16h1.804V9.994c0-2.288 1.144-3.696 3.014-3.696 1.694 0 2.662 1.144 2.662 3.344V16h1.804V9.532c0-3.542-1.914-4.884-4.246-4.884zm7.484-1.76c.66 0 1.166-.484 1.166-1.166 0-.682-.505-1.166-1.166-1.166-.66 0-1.166.484-1.166 1.166 0 .682.507 1.166 1.166 1.166zM97.503 16h1.805V4.78h-1.805V16zm9.314.132c2.728 0 4.554-1.54 4.994-3.96h-1.914c-.352 1.43-1.452 2.354-3.058 2.354-2.156 0-3.608-1.672-3.608-4.114s1.452-4.158 3.608-4.158c1.65 0 2.75.902 3.08 2.398h1.892c-.462-2.464-2.2-4.004-4.95-4.004-3.256 0-5.478 2.332-5.478 5.764 0 3.498 2.156 5.72 5.434 5.72z" fill="#fff"/></svg>