<svg width="47" height="14" viewBox="0 0 47 14" fill="none" xmlns="http://www.w3.org/2000/svg"><rect width="47" height="14" rx="7" fill="#000"/><path d="M5.757 7.53c.032.886.673 1.508 1.77 1.508.944 0 1.598-.545 1.598-1.321 0-.873-.75-1.117-1.482-1.238-.674-.116-1.22-.225-1.22-.764 0-.481.392-.738.976-.738.61 0 1.027.34 1.09.86h.578C9.016 5.029 8.4 4.47 7.4 4.47c-.911 0-1.533.514-1.533 1.277 0 .873.744 1.11 1.469 1.232.68.116 1.232.231 1.232.79 0 .487-.43.763-1.033.763-.687 0-1.155-.398-1.2-1.001h-.577zM10 8.148c0 .577.225.853.854.853h.57v-.481h-.52c-.281 0-.378-.103-.378-.379V6.21h.847v-.482h-.847V4.81H10v.918h-.59v.481H10v1.938zm4.724.372c-.148 0-.212-.045-.212-.218V6.87c0-.764-.481-1.18-1.315-1.18-.79 0-1.309.378-1.386 1.02h.526c.064-.334.372-.552.834-.552.513 0 .815.256.815.68v.224h-.962c-.86 0-1.316.366-1.316 1.02 0 .597.488.956 1.207.956.564 0 .891-.25 1.097-.545.006.32.154.507.59.507h.289v-.481h-.167zm-.738-.853c0 .545-.379.923-1.033.923-.436 0-.712-.218-.712-.539 0-.372.263-.545.731-.545h1.014v.16zm2.823-1.938c-.584 0-.834.244-.988.494l-.07-.494h-.456V9h.526V7.332c0-.52.186-1.09.873-1.09h.263v-.514h-.148zm.954 2.419c0 .577.225.853.853.853h.571v-.481h-.52c-.282 0-.378-.103-.378-.379V6.21h.847v-.482h-.847V4.81h-.526v.918h-.59v.481h.59v1.938zm3.803 0c0 .577.225.853.854.853h.57v-.481h-.52c-.281 0-.378-.103-.378-.379V6.21h.847v-.482h-.847V4.81h-.526v.918h-.59v.481h.59v1.938zm3.395-2.42c-.584 0-.835.245-.989.495l-.07-.494h-.456V9h.526V7.332c0-.52.186-1.09.873-1.09h.263v-.514h-.148zm3.384 2.792c-.148 0-.212-.045-.212-.218V6.87c0-.764-.481-1.18-1.315-1.18-.79 0-1.309.378-1.386 1.02h.526c.064-.334.372-.552.834-.552.513 0 .815.256.815.68v.224h-.962c-.86 0-1.316.366-1.316 1.02 0 .597.488.956 1.207.956.564 0 .891-.25 1.097-.545.006.32.154.507.59.507h.289v-.481h-.167zm-.738-.853c0 .545-.378.923-1.033.923-.436 0-.712-.218-.712-.539 0-.372.263-.545.731-.545h1.014v.16zm3.85-1.438c-.198-.314-.57-.539-1.122-.539-.905 0-1.572.674-1.572 1.675 0 1.065.667 1.674 1.572 1.674.552 0 .904-.263 1.123-.564l.07.526h.456V4.509h-.526v1.72zm-1.07 2.342c-.649 0-1.085-.494-1.085-1.206s.436-1.206 1.084-1.206c.642 0 1.078.5 1.078 1.219 0 .7-.436 1.193-1.078 1.193zm2.583-3.394a.33.33 0 00.34-.34.33.33 0 00-.34-.34.33.33 0 00-.34.34c0 .199.147.34.34.34zM32.7 9h.526V5.728H32.7V9zm2.851-3.31c-.552 0-.885.23-1.078.48l-.07-.442h-.456V9h.526V7.364c0-.738.372-1.193.988-1.193.571 0 .886.359.886 1.039V9h.526V7.178c0-1.084-.584-1.489-1.322-1.489zm4.572.603c-.206-.366-.571-.604-1.123-.604-.905 0-1.572.674-1.572 1.675 0 1.065.667 1.674 1.572 1.674.552 0 .905-.23 1.123-.603v.385c0 .713-.372 1.033-1.059 1.033-.545 0-.91-.23-1-.641h-.54c.084.718.668 1.11 1.502 1.11 1.122 0 1.623-.54 1.623-1.482V5.728h-.456l-.07.565zM39.05 8.57c-.648 0-1.084-.494-1.084-1.206s.436-1.206 1.084-1.206c.642 0 1.078.5 1.078 1.219 0 .7-.436 1.193-1.078 1.193z" fill="#fff"/></svg>