<svg width="159" height="68" viewBox="0 0 159 68" fill="none" xmlns="http://www.w3.org/2000/svg"><g filter="url(#filter0_d_95_225)"><rect x="10" y="10" width="138.318" height="47.318" rx="3.943" fill="url(#paint0_linear_95_225)" shape-rendering="crispEdges"/><path d="M41.111 30.899c0 1.482-.993 2.097-2.46 2.097h-2.713l.047-4.21h2.65c1.562 0 2.476.709 2.476 2.113zm-.063 7.634a.272.272 0 00.221.126h1.42c.063 0 .094-.063.063-.126l-2.887-4.511c1.657-.332 2.682-1.388 2.682-3.155 0-2.16-1.53-3.249-4.054-3.249H34.63a.141.141 0 00-.142.142l.063 5.22-.063 5.537c0 .079.063.142.142.142h1.23a.141.141 0 00.142-.142l-.047-4.37h2.366l1.687 2.603 1.041 1.783zm8.794-2.697a.185.185 0 00-.173.141c-.237 1.183-.962 1.814-2.161 1.814-1.593 0-2.398-1.04-2.445-2.996h5.994a.141.141 0 00.142-.142c-.048-2.698-1.436-4.306-3.786-4.306s-3.8 1.735-3.8 4.274c0 2.476 1.356 4.227 3.88 4.227 2.081 0 3.311-1.215 3.564-2.87 0-.08-.048-.142-.126-.142h-1.089zm-.189-2.051h-4.542c.205-1.53.977-2.397 2.318-2.397 1.435 0 2.177 1.104 2.224 2.397zm4.312.741c0-1.83.726-3.028 2.161-3.091h.332c1.324.11 2.066 1.277 2.05 3.202-.016 2.003-.883 2.95-2.208 2.95-1.546.015-2.335-1.105-2.335-3.06zm5.884 3.58l-.016-4.321.031-3.107a.141.141 0 00-.142-.142h-1.151a.141.141 0 00-.142.142l.047 1.12c-.536-.9-1.403-1.388-2.539-1.388-2.192 0-3.423 1.86-3.423 4.164 0 2.318 1.2 4.037 3.47 4.037 1.136 0 2.003-.52 2.524-1.42v.9c0 1.83-.883 2.618-2.24 2.618-1.135 0-1.94-.457-2.098-1.467-.015-.078-.078-.142-.157-.142h-1.136c-.079 0-.142.063-.126.142.142 1.751 1.625 2.54 3.486 2.508 2.318 0 3.627-1.309 3.612-3.643zm3.286-8.5a.141.141 0 00.142-.143V28.17a.141.141 0 00-.142-.142h-1.183a.141.141 0 00-.142.142v1.293c0 .08.063.142.142.142h1.183zm0 9.053a.141.141 0 00.142-.142l-.032-4.054.032-3.785a.141.141 0 00-.142-.142h-1.183a.141.141 0 00-.142.142l.031 3.801-.031 4.038c0 .079.063.142.142.142h1.183zm8.827-2.335c0-3.406-5.473-1.656-5.473-3.675 0-.899.71-1.309 1.814-1.309 1.167 0 1.956.474 2.05 1.499.016.079.08.142.158.142h1.057a.141.141 0 00.142-.142c-.127-1.688-1.499-2.477-3.391-2.477-1.925 0-3.202.82-3.202 2.382 0 3.28 5.473 1.562 5.473 3.69 0 .9-.789 1.405-1.988 1.405-1.45 0-2.224-.568-2.287-1.846a.141.141 0 00-.141-.142h-1.105a.141.141 0 00-.142.142c.063 1.893 1.467 2.84 3.628 2.84 1.94 0 3.407-.916 3.407-2.509zm5.451 1.341c0-.063-.063-.126-.141-.095a4.07 4.07 0 01-.836.095c-.694 0-1.026-.3-1.026-1.277v-4.732h1.862a.141.141 0 00.141-.142v-.836a.141.141 0 00-.141-.142H75.41l.016-1.893a.141.141 0 00-.142-.142h-1.167a.141.141 0 00-.142.142l.016 1.893h-.9a.141.141 0 00-.141.142v.836c0 .079.063.142.142.142h.899v4.763c0 1.767.993 2.382 2.177 2.382.378 0 .788-.095 1.103-.19.08-.031.142-.11.142-.189v-.757zm7.067-1.83a.185.185 0 00-.173.142c-.237 1.183-.962 1.814-2.161 1.814-1.593 0-2.398-1.04-2.445-2.996h5.994a.141.141 0 00.142-.142c-.048-2.698-1.436-4.306-3.786-4.306s-3.801 1.735-3.801 4.274c0 2.476 1.356 4.227 3.88 4.227 2.082 0 3.312-1.215 3.565-2.87 0-.08-.048-.142-.126-.142H84.48zm-.19-2.05h-4.542c.206-1.53.978-2.397 2.319-2.397 1.435 0 2.177 1.104 2.224 2.397zm4.44 4.874a.141.141 0 00.141-.142l-.015-4.259c.173-1.782 1.356-2.618 2.728-2.618.174 0 .332.016.458.032a.118.118 0 00.142-.11v-.884a.185.185 0 00-.142-.174 2.182 2.182 0 00-.473-.047c-1.136 0-2.177.552-2.76 1.593l.063-1.372a.141.141 0 00-.142-.142h-1.168a.141.141 0 00-.142.142l.048 3.833-.048 4.006c0 .079.064.142.142.142h1.168zm9.333 0a.141.141 0 00.142-.142l-.016-3.328v-1.23c.316-1.61 1.168-2.461 2.24-2.461 1.009 0 1.719.662 1.719 2.13v1.56l-.031 3.329c0 .079.063.142.142.142h1.167a.141.141 0 00.142-.142l-.032-3.328v-1.625c0-2.113-1.041-3.217-2.713-3.217-1.293 0-2.208.74-2.712 1.561l.047-1.23a.141.141 0 00-.142-.142h-1.12a.141.141 0 00-.142.142l.032 4.274-.048 3.565c0 .079.063.142.142.142h1.183zm14.744-4.07c0-2.555-1.372-4.242-3.848-4.242-2.461 0-3.848 1.703-3.848 4.274 0 2.555 1.387 4.227 3.848 4.227 2.476 0 3.848-1.703 3.848-4.259zm-6.23.032c0-2.035.773-3.202 2.382-3.218 1.577 0 2.366 1.183 2.366 3.218s-.773 3.17-2.366 3.17-2.382-1.135-2.382-3.17zm15.688 4.038a.185.185 0 00.174-.142l1.987-7.84c.016-.078-.032-.141-.11-.141h-1.041a.185.185 0 00-.174.142l-1.53 6.672-1.609-6.672a.183.183 0 00-.173-.142h-1.435a.185.185 0 00-.174.142l-1.561 6.766-1.578-6.766a.183.183 0 00-.173-.142h-1.167a.118.118 0 00-.111.142l2.114 7.839a.184.184 0 00.173.142h1.372a.185.185 0 00.174-.142l1.546-6.782 1.719 6.782a.184.184 0 00.173.142h1.404z" fill="#fff"/></g><defs><linearGradient id="paint0_linear_95_225" x1="15.619" y1="33.659" x2="148.318" y2="33.659" gradientUnits="userSpaceOnUse"><stop stop-color="#078A04"/><stop offset="1" stop-color="#014C0C"/></linearGradient><filter id="filter0_d_95_225" x=".142" y=".142" width="158.033" height="67.033" filterUnits="userSpaceOnUse" color-interpolation-filters="sRGB"><feFlood flood-opacity="0" result="BackgroundImageFix"/><feColorMatrix in="SourceAlpha" values="0 0 0 0 0 0 0 0 0 0 0 0 0 0 0 0 0 0 127 0" result="hardAlpha"/><feOffset/><feGaussianBlur stdDeviation="4.929"/><feComposite in2="hardAlpha" operator="out"/><feColorMatrix values="0 0 0 0 0 0 0 0 0 0 0 0 0 0 0 0 0 0 0.16 0"/><feBlend in2="BackgroundImageFix" result="effect1_dropShadow_95_225"/><feBlend in="SourceGraphic" in2="effect1_dropShadow_95_225" result="shape"/></filter></defs></svg>