<svg width="620" height="40" viewBox="0 0 620 40" fill="none" xmlns="http://www.w3.org/2000/svg"><path d="M17.58 31.773a.3.3 0 00.308-.308v-.616a.3.3 0 00-.308-.308H1.872l-.088-14.784h14.608a.3.3 0 00.308-.308v-.616a.3.3 0 00-.308-.308H1.784l.088-12.32h15.356a.3.3 0 00.308-.308V1.28a.3.3 0 00-.308-.308H.64a.3.3 0 00-.308.308L.42 15.273.332 31.465a.3.3 0 00.308.308h16.94zm19.824 0c.132 0 .22-.132.132-.264L29.44 19.717l6.996-10.34c.088-.132 0-.264-.132-.264h-.924c-.176 0-.396.088-.484.264l-6.292 9.24-6.38-9.24c-.088-.176-.308-.264-.484-.264h-1.056c-.132 0-.22.132-.132.264l7.172 10.34-8.052 11.792c-.088.132 0 .264.132.264h.924c.176 0 .396-.088.484-.264l7.348-10.692 7.304 10.692c.088.176.308.264.484.264h1.056zm4.16-11.616c.045-6.864 3.169-10.384 7.7-10.384 5.369 0 7.7 4.972 7.7 10.824 0 5.676-2.375 10.472-7.743 10.472-4.84 0-7.7-4.048-7.656-10.912zm16.809.22c0-6.6-3.124-11.748-8.932-11.748-3.74 0-6.424 2.156-7.788 5.544l.088-4.752a.3.3 0 00-.308-.308h-.792a.3.3 0 00-.308.308l.088 11.66-.088 17.864a.3.3 0 00.308.308h.836a.3.3 0 00.308-.308l-.088-12.056c1.408 3.476 4.048 5.324 7.744 5.324 5.808 0 8.932-5.324 8.932-11.836zm20.385 3.3c-.176 0-.308.132-.352.308-.748 4.356-3.168 7.084-7.656 7.084-5.676 0-8.536-4.048-8.536-10.56v-.44h17.292a.3.3 0 00.308-.308c-.088-7.084-3.652-11.088-9.372-11.088-5.896 0-9.68 4.928-9.68 11.836 0 6.996 3.432 11.704 9.988 11.704 5.28 0 8.14-2.992 9.02-8.228 0-.176-.088-.308-.264-.308h-.748zm-.44-4.84H62.302c.44-5.456 3.3-9.02 8.14-9.02 5.148 0 7.876 3.96 7.876 9.02zm6.085 12.936a.3.3 0 00.308-.308l-.088-14.608c.968-4.796 4.136-6.776 7.128-6.776.748 0 1.32.044 1.804.176a.24.24 0 00.308-.22V9.42a.423.423 0 00-.308-.396c-.484-.132-1.056-.176-1.672-.176-3.036 0-5.852 1.804-7.304 4.972l.132-4.4a.3.3 0 00-.308-.308h-.836a.3.3 0 00-.308.308l.088 10.56-.088 11.484a.3.3 0 00.308.308h.836zm13.454-25.74a.3.3 0 00.308-.308V3.833a.3.3 0 00-.308-.308h-.836a.3.3 0 00-.308.308v1.892a.3.3 0 00.308.308h.836zm0 25.74a.3.3 0 00.308-.308l-.044-11.836.044-10.208a.3.3 0 00-.308-.308h-.836a.3.3 0 00-.308.308l.044 10.252-.044 11.792a.3.3 0 00.308.308h.836zm21.85-8.096c-.176 0-.308.132-.352.308-.748 4.356-3.168 7.084-7.656 7.084-5.676 0-8.536-4.048-8.536-10.56v-.44h17.292a.3.3 0 00.308-.308c-.088-7.084-3.652-11.088-9.372-11.088-5.896 0-9.68 4.928-9.68 11.836 0 6.996 3.432 11.704 9.988 11.704 5.28 0 8.14-2.992 9.02-8.228 0-.176-.088-.308-.264-.308h-.748zm-.44-4.84h-16.016c.44-5.456 3.3-9.02 8.14-9.02 5.148 0 7.876 3.96 7.876 9.02zm6.085 12.936a.3.3 0 00.308-.308l-.044-9.416v-5.632c1.76-4.004 4.004-6.6 7.568-6.6 3.696 0 6.116 2.156 6.116 8.228v4.004l-.044 9.416a.3.3 0 00.308.308h.836a.3.3 0 00.308-.308l-.044-9.416v-4.224c0-6.38-2.772-9.24-7.304-9.24-4.048 0-6.556 2.904-7.788 5.588l.088-4.752a.3.3 0 00-.308-.308h-.836a.3.3 0 00-.308.308l.088 12.628-.088 9.416a.3.3 0 00.308.308h.836zm37.345-7.964c.044-.176-.088-.308-.264-.308h-.66c-.176 0-.308.132-.352.308-.396 4.532-3.3 7.26-7.964 7.26-5.588 0-8.184-4.18-8.184-10.56 0-6.38 2.64-10.692 8.228-10.692 4.224 0 6.996 2.332 7.656 6.6.044.176.176.308.352.308h.66c.176 0 .308-.132.264-.308-.44-4.62-3.564-7.744-8.932-7.744-6.38 0-9.68 4.796-9.68 11.836s3.3 11.704 9.636 11.704c5.764 0 8.844-3.564 9.24-8.404zm20.089-.132c-.176 0-.308.132-.352.308-.748 4.356-3.168 7.084-7.656 7.084-5.676 0-8.536-4.048-8.536-10.56v-.44h17.292a.3.3 0 00.308-.308c-.088-7.084-3.652-11.088-9.372-11.088-5.896 0-9.68 4.928-9.68 11.836 0 6.996 3.432 11.704 9.988 11.704 5.28 0 8.14-2.992 9.02-8.228 0-.176-.088-.308-.264-.308h-.748zm-.44-4.84H166.33c.44-5.456 3.3-9.02 8.14-9.02 5.148 0 7.876 3.96 7.876 9.02zm20.399 12.012a.24.24 0 00-.308-.22c-.616.132-1.496.176-2.2.176-2.376 0-3.256-1.1-3.256-4.796V10.3h5.456a.3.3 0 00.308-.308V9.42a.3.3 0 00-.308-.308h-5.456l.044-5.368a.3.3 0 00-.308-.308h-.836a.3.3 0 00-.308.308l.044 5.368h-2.596a.3.3 0 00-.308.308v.572a.3.3 0 00.308.308h2.596v15.708c0 4.708 1.936 6.072 4.708 6.072.704 0 1.54-.176 2.112-.264.176-.044.308-.176.308-.352v-.616zm17.981-12.804v4.004l-.044 9.416a.3.3 0 00.308.308h.836a.3.3 0 00.308-.308l-.044-9.416v-4.224c0-6.38-2.772-9.24-7.304-9.24-4.048 0-6.6 2.904-7.832 5.588l.088-12.936a.3.3 0 00-.308-.308h-.836a.3.3 0 00-.308.308l.088 14.696-.088 15.532a.3.3 0 00.308.308h.836a.3.3 0 00.308-.308l-.088-15.048c1.76-4.004 4.092-6.688 7.656-6.688 3.696 0 6.116 2.244 6.116 8.316zm22.517 5.632c-.176 0-.308.132-.352.308-.748 4.356-3.168 7.084-7.656 7.084-5.676 0-8.536-4.048-8.536-10.56v-.44h17.292a.3.3 0 00.308-.308c-.088-7.084-3.652-11.088-9.372-11.088-5.896 0-9.68 4.928-9.68 11.836 0 6.996 3.432 11.704 9.988 11.704 5.28 0 8.14-2.992 9.02-8.228 0-.176-.088-.308-.264-.308h-.748zm-.44-4.84h-16.016c.44-5.456 3.3-9.02 8.14-9.02 5.148 0 7.876 3.96 7.876 9.02zm12.875 1.32c.044-6.864 3.168-10.384 7.7-10.384 5.368 0 7.7 4.972 7.7 10.824 0 5.676-2.376 10.472-7.744 10.472-4.84 0-7.7-4.048-7.656-10.912zm16.808.22c0-6.6-3.124-11.748-8.932-11.748-3.74 0-6.424 2.156-7.788 5.544l.088-4.752a.3.3 0 00-.308-.308h-.792a.3.3 0 00-.308.308l.088 11.66-.088 17.864a.3.3 0 00.308.308h.836a.3.3 0 00.308-.308l-.088-12.056c1.408 3.476 4.048 5.324 7.744 5.324 5.808 0 8.932-5.324 8.932-11.836zm22.146.088c0-7.04-3.476-11.792-9.856-11.792s-9.856 4.752-9.856 11.792 3.476 11.748 9.856 11.748 9.856-4.708 9.856-11.748zm-18.26 0c0-6.38 2.816-10.648 8.404-10.648s8.404 4.312 8.404 10.648c0 6.336-2.772 10.604-8.404 10.604-5.588 0-8.404-4.224-8.404-10.604zm40.888 11.308a.423.423 0 00.396-.308l6.336-22.044c.044-.176-.044-.308-.22-.308h-.704a.423.423 0 00-.396.308L316.82 30.1l-6.028-20.68a.423.423 0 00-.396-.308h-.968a.423.423 0 00-.396.308l-5.588 20.768-6.292-20.768a.423.423 0 00-.396-.308h-.836a.24.24 0 00-.22.308l6.908 22.044c.044.176.22.308.396.308h.924a.423.423 0 00.396-.308l5.5-21.076 6.072 21.076c.044.176.22.308.396.308h.968zm25.799-8.096c-.176 0-.308.132-.352.308-.748 4.356-3.168 7.084-7.656 7.084-5.676 0-8.536-4.048-8.536-10.56v-.44h17.292a.3.3 0 00.308-.308c-.088-7.084-3.652-11.088-9.372-11.088-5.896 0-9.68 4.928-9.68 11.836 0 6.996 3.432 11.704 9.988 11.704 5.28 0 8.14-2.992 9.02-8.228 0-.176-.088-.308-.264-.308h-.748zm-.44-4.84h-16.016c.44-5.456 3.3-9.02 8.14-9.02 5.148 0 7.876 3.96 7.876 9.02zm6.084 12.936a.3.3 0 00.308-.308l-.088-14.608c.968-4.796 4.136-6.776 7.128-6.776.748 0 1.32.044 1.804.176a.24.24 0 00.308-.22V9.42a.423.423 0 00-.308-.396c-.484-.132-1.056-.176-1.672-.176-3.036 0-5.852 1.804-7.304 4.972l.132-4.4a.3.3 0 00-.308-.308h-.836a.3.3 0 00-.308.308l.088 10.56-.088 11.484a.3.3 0 00.308.308h.836zm37.108-11.308c0-7.04-3.476-11.792-9.856-11.792s-9.856 4.752-9.856 11.792 3.476 11.748 9.856 11.748 9.856-4.708 9.856-11.748zm-18.26 0c0-6.38 2.816-10.648 8.404-10.648s8.404 4.312 8.404 10.648c0 6.336-2.772 10.604-8.404 10.604-5.588 0-8.404-4.224-8.404-10.604zm23.789-10.208h4.972a.3.3 0 00.308-.308V9.42a.3.3 0 00-.308-.308h-4.972V6.517c0-3.608 1.232-5.148 3.344-5.148.528 0 1.1.044 1.672.22a.24.24 0 00.308-.22v-.44c0-.176-.132-.352-.264-.44-.528-.176-1.188-.264-1.892-.264-2.024.044-4.532 1.54-4.532 6.292v2.596h-3.388a.3.3 0 00-.308.308v.528a.3.3 0 00.308.308h3.388V21.3l-.044 10.164a.3.3 0 00.308.308h.836a.3.3 0 00.308-.308L391.34 21.3V10.257zm38.194 12.496c0-12.056-20.064-5.984-20.064-13.904 0-3.476 2.904-5.06 7.172-5.06 4.972 0 7.568 1.98 7.92 5.94.044.22.22.396.44.396h3.476c.22 0 .396-.176.352-.396-.66-6.336-5.016-9.284-12.056-9.284-6.82 0-11.308 3.168-11.308 8.8 0 11.748 20.064 5.544 20.064 14.036 0 4.048-3.256 5.72-7.788 5.72-6.028 0-8.228-2.816-8.624-7.436-.044-.22-.22-.396-.44-.396h-3.432a.394.394 0 00-.396.396c.308 6.996 4.928 10.736 12.76 10.736 6.996 0 11.924-3.212 11.924-9.548zM443.594 29c0-.176-.176-.352-.396-.264-.616.132-1.453.264-2.332.264-1.936 0-2.86-.836-2.86-3.564v-13.2h5.192c.22 0 .396-.176.396-.396V9.509a.394.394 0 00-.396-.396h-5.192l.044-5.28a.394.394 0 00-.396-.396h-3.256a.394.394 0 00-.396.396l.044 5.28h-2.508a.394.394 0 00-.396.396v2.332c0 .22.176.396.396.396h2.508v13.288c0 4.928 2.772 6.644 6.072 6.644 1.056 0 2.2-.264 3.08-.528.22-.088.396-.308.396-.528V29zm22.089-8.58c0-7.128-3.828-11.836-10.736-11.836-6.864 0-10.736 4.752-10.736 11.924 0 7.128 3.872 11.792 10.736 11.792 6.908 0 10.736-4.752 10.736-11.88zm-17.38.088c0-5.676 2.156-8.932 6.644-8.976 4.4 0 6.6 3.3 6.6 8.976 0 5.676-2.156 8.844-6.6 8.844-4.444 0-6.644-3.168-6.644-8.844zm23.813 11.264c.22 0 .396-.176.396-.396l-.044-9.284V18.66c.88-4.488 3.256-6.864 6.248-6.864 2.816 0 4.796 1.848 4.796 5.94v4.356l-.088 9.284c0 .22.176.396.396.396h3.256c.22 0 .396-.176.396-.396l-.088-9.284V17.56c0-5.896-2.904-8.976-7.568-8.976-3.608 0-6.16 2.068-7.568 4.356l.132-3.432a.394.394 0 00-.396-.396h-3.124a.394.394 0 00-.396.396l.088 11.924-.132 9.944c0 .22.176.396.396.396h3.3zm35.236-7.876c-.22 0-.44.176-.484.396-.66 3.3-2.684 5.06-6.028 5.06-4.444 0-6.688-2.904-6.82-8.36h16.72c.22 0 .396-.176.396-.396-.132-7.524-4.004-12.012-10.56-12.012-6.556 0-10.604 4.84-10.604 11.924 0 6.908 3.784 11.792 10.824 11.792 5.808 0 9.24-3.388 9.944-8.008 0-.22-.132-.396-.352-.396h-3.036zm-.528-5.72h-12.672c.572-4.268 2.728-6.688 6.468-6.688 4.004 0 6.072 3.08 6.204 6.688zm29.437 13.596c.176 0 .264-.176.176-.352l-10.164-15.796 9.02-14.3c.088-.176 0-.352-.176-.352h-3.784a.758.758 0 00-.616.352l-6.732 10.824-6.776-10.824a.758.758 0 00-.616-.352h-4.136c-.176 0-.264.176-.176.352l9.196 14.168-10.12 15.928c-.088.176 0 .352.176.352h3.784c.22 0 .484-.132.616-.352l7.832-12.584 7.744 12.584c.132.22.396.352.616.352h4.136zm38.193-15.356c0-9.9-5.852-16.016-14.74-16.016s-14.696 6.16-14.696 16.016c0 9.592 5.808 15.928 14.696 15.928 8.844 0 14.74-6.292 14.74-15.928zm-25.212 0c0-7.876 3.872-12.628 10.472-12.628 6.556 0 10.516 4.796 10.516 12.628s-3.96 12.54-10.516 12.54c-6.512 0-10.472-4.752-10.472-12.54zm31.714 15.356c.22 0 .396-.176.396-.396l-.044-9.284V18.66c.88-4.488 3.256-6.864 6.248-6.864 2.816 0 4.796 1.848 4.796 5.94v4.356l-.088 9.284c0 .22.176.396.396.396h3.256c.22 0 .396-.176.396-.396l-.088-9.284V17.56c0-5.896-2.904-8.976-7.568-8.976-3.608 0-6.16 2.068-7.568 4.356l.132-3.432a.394.394 0 00-.396-.396H577.7a.394.394 0 00-.396.396l.088 11.924-.132 9.944c0 .22.176.396.396.396h3.3zm35.236-7.876c-.22 0-.44.176-.484.396-.66 3.3-2.684 5.06-6.028 5.06-4.444 0-6.688-2.904-6.82-8.36h16.72c.22 0 .396-.176.396-.396-.132-7.524-4.004-12.012-10.56-12.012-6.556 0-10.604 4.84-10.604 11.924 0 6.908 3.784 11.792 10.824 11.792 5.808 0 9.24-3.388 9.944-8.008 0-.22-.132-.396-.352-.396h-3.036zm-.528-5.72h-12.672c.572-4.268 2.728-6.688 6.468-6.688 4.004 0 6.072 3.08 6.204 6.688z" fill="#fff"/></svg>