<svg width="970" height="250" viewBox="0 0 970 250" fill="none" xmlns="http://www.w3.org/2000/svg"><path d="M292.5 320.499l-81.5-104m81.5 104l108.07-203m-108.07 203l173-96.5m-173 96.5l315-37m-315 37l18.5-91.5m-100-12.5l189.57-99m-189.57 99l100 12.5m-100-12.5l281.564-334.5M211 216.499l21.71-81.93M211 216.499l-192 61.5m381.57-160.5l91.994-235.5m-91.994 235.5H477m-76.43 0l64.93 106.5m27.064-342L477 117.499m15.564-235.5L232.71 134.569m259.854-252.57L19 277.999m473.564-396L211-86.501m281.564-31.5l51.936 66-67.5 169.5m0 0l-11.5 106.5m11.5-106.5l130.5 166m-130.5-166l221.5 193.499 236-47L477 117.499zm0 0l300-204-151 29-149 175zm-11.5 106.5l142 59.5m0 0l-296.5-54.5m0 0l-292 49m292-49l-100-315.5m21.71 221.07L19 277.999m0 0l192-364.5" stroke="#604B4B" stroke-width=".4"/><path opacity=".8" d="M256.761 306.999L228.5 175.16m28.261 131.839l77.144-131.839m-77.144 131.839l237.739-171.5m-237.739 171.5L559 175.16M256.761 306.999L688 269.998m-431.239 37.001l-268.261-74.5m240-57.339h105.405m-105.405 0l-240 57.339m240-57.339L385 82m-156.5 93.16l-19-27.661m19 27.661l-165-17.661m270.405 17.661L385 82m-51.095 93.16L564.5 68.5M333.905 175.16L494.5 135.499M385 81.999l179.5-13.5M385 82l-175.5 65.5m175.5-65.5L63.5 157.5m321.5-75.5l-446.5 37m446.5-37L286-49 564.5 68.5m0 0l-70 67m70-67L559 175.16m5.5-106.66L688 269.997M564.5 68.499l216 89m-216-89l362.5-88m-362.5 88l308-97.854L709-35.5l-144.5 104zm-70 67L559 175.16m0 0l129 94.838m0 0l-699.5-37.499M688 269.998l92.5-112.499m-792 75l75-75m-75 75l-50-113.5m271 28.5l-146 10m0 0l-125-38.5m842 38.5l146.5-177m-146.5 177l120 37m26.5-214l-26.5 214m-205.5 78.5l205.5-78.5m0 0l130-166-54 328.5-76-162.5z" stroke="#fff" stroke-width=".5"/><path fill="#fff" d="M224 172h8v8h-8zM206 144h8v8h-8zM380 77.999h8v8h-8zM331 171h8v8h-8zM560 65.999h8v8h-8zM554 170.999h8v8h-8zM491 133h8v8h-8zM61 154h8v8h-8z"/></svg>