<svg width="230" height="33" viewBox="0 0 230 33" fill="none" xmlns="http://www.w3.org/2000/svg"><path d="M9.539 32.685c-3.894 0-6.476-.656-8.401-1.486L0 24.554h.831l.832 1.574c1.969 3.76 4.375 5.42 8.226 5.42 4.42 0 6.913-2.185 6.913-5.77 0-3.191-1.838-4.809-7.088-6.645C3.763 17.08.788 14.806.788 9.691.788 4.489 5.469.773 11.289.773c3.632 0 5.732.48 7.745 1.311l1.094 6.907h-.875l-.788-1.617c-1.794-3.76-4.07-5.465-7.526-5.465-3.632 0-5.776 2.186-5.776 5.29 0 3.235 1.75 4.678 6.739 6.382 6.563 2.186 9.32 4.678 9.32 9.75.043 5.551-5.339 9.354-11.683 9.354zM37.017 29.975c-1.837 1.574-3.719 2.623-6.082 2.623-3.5 0-5.338-1.574-5.338-5.333V12.75H22.36v-.83l3.457-1.312 3.413-6.82h1.4v6.995h5.863v1.967H30.63v14.426c0 2.142 1.05 3.191 2.757 3.191 1.181 0 1.969-.306 3.063-1.093l.569.7zM49.313 32.773c-6.345 0-11.027-4.022-11.027-11.498 0-6.338 4.551-11.19 11.07-11.19 6.302 0 11.027 4.021 11.027 11.496-.044 6.34-4.638 11.192-11.07 11.192zM48.7 11.22c-3.106 0-4.857 2.36-4.857 8.787 0 7.038 2.276 11.628 6.039 11.628 3.15 0 4.857-2.36 4.857-8.787 0-7.038-2.232-11.628-6.039-11.628zM87.293 32.292c-1.006 0-3.588-.044-5.557-.044-1.925 0-4.507.044-5.6.044v-.7l.743-.13c1.97-.35 2.32-.962 2.32-4.94v-8.569c0-3.322-1.445-4.94-4.026-4.94-1.794 0-3.282.7-4.595 1.661v11.847c0 4.022.307 4.59 2.32 4.94l.743.131v.7c-1.094 0-3.632-.044-5.6-.044-1.97 0-4.551.044-5.601.044v-.7l.875-.13c1.838-.263 2.188-.962 2.188-5.334v-9.443c0-2.36-.394-3.016-2.013-3.76l-1.094-.524v-.48l7.614-1.662.612.393v3.06c2.407-2.054 4.638-3.41 7.482-3.41 4.07 0 6.214 2.187 6.214 6.777v9.18c0 4.46.35 4.984 2.231 5.333l.788.132-.044.568zM93.638 19.396v.306c.131 6.207 3.5 10.054 8.051 10.054 2.494 0 4.244-.918 6.082-2.754l.612.437c-2.362 3.28-5.425 5.334-9.363 5.334-5.776 0-10.108-3.935-10.108-10.71 0-7.301 5.513-11.935 10.808-11.935 5.863 0 8.707 3.279 8.838 9.311l-14.92-.043zm9.582-1.224c-.131-4.59-1.794-6.908-4.42-6.908-2.974 0-4.856 2.536-5.162 6.908h9.582zM140.544 32.292c-.788 0-4.726-.088-6.257-.088-1.619 0-6.52.088-7.351.088v-.612l1.4-.219c1.357-.218 1.925-.568 1.925-1.399 0-.7-.437-1.573-1.4-3.06l-4.9-7.475-4.901 6.732c-1.138 1.574-1.663 2.754-1.663 3.628 0 .875.525 1.4 1.882 1.618l1.444.219v.612c-.788 0-4.288-.088-5.864-.088-1.575 0-4.069.088-4.9.088v-.656l.744-.131c1.969-.35 3.806-2.011 5.294-3.891l7.088-9.268-6.957-10.317c-1.619-2.404-2.756-3.497-4.507-3.803l-.918-.175v-.612c.787 0 4.725.088 6.257.088 1.619 0 6.432-.088 7.263-.088v.612l-1.4.219c-1.181.175-1.838.568-1.838 1.399 0 .699.438 1.573 1.4 3.06l4.201 6.47 4.113-5.77c1.094-1.575 1.663-2.755 1.663-3.586 0-.83-.569-1.398-1.882-1.617l-1.444-.219V3.44c.788 0 4.288.088 5.864.088 1.575 0 4.069-.088 4.9-.088v.612l-.744.132c-1.969.35-3.763 1.836-5.294 3.89l-6.345 8.306 7.701 11.279c1.619 2.404 2.757 3.497 4.507 3.803l.919.175v.656zM144.045 8.204c-.35 0-.657-.043-.919-.174a2.283 2.283 0 01-.744-.525 1.965 1.965 0 01-.481-.743 2.269 2.269 0 01-.175-.918c0-.35.043-.656.175-.918.131-.306.306-.525.481-.743.175-.219.481-.394.744-.481.306-.131.612-.175.919-.175.35 0 .656.044.918.175.307.13.526.306.744.48.219.22.394.481.482.744.131.306.175.612.175.918 0 .35-.044.655-.175.918-.132.306-.307.524-.482.743a2.854 2.854 0 01-.744.525 2.854 2.854 0 01-.918.174zm0-.35c.306 0 .568-.043.787-.174.263-.088.481-.262.657-.437.175-.175.306-.394.437-.656a2.46 2.46 0 00.131-.787c0-.306-.043-.568-.131-.787-.087-.262-.262-.48-.437-.656-.176-.174-.394-.306-.657-.437-.262-.087-.525-.175-.787-.175-.307 0-.569.044-.788.175-.263.088-.481.263-.656.437-.175.175-.307.394-.438.656a2.487 2.487 0 00-.131.787c0 .306.044.568.131.787.088.262.263.48.438.656.175.175.393.35.656.437.263.131.525.175.788.175zm-1.007-.611V4.445h1.225c.307 0 .569.087.744.218.175.175.263.35.263.612a.794.794 0 01-.263.612c-.175.175-.394.219-.7.219l.131-.044c.132 0 .219.044.307.088a.742.742 0 01.262.262l.482.83h-.657l-.481-.917c-.044-.088-.088-.132-.131-.132-.044-.043-.132-.043-.219-.043h-.306v1.093h-.657zm.569-1.574h.569c.175 0 .306-.044.35-.088.087-.043.131-.174.131-.306 0-.13-.044-.262-.131-.306a.828.828 0 00-.35-.087h-.569v.787zM186.335 17.289c0-9.65-5.632-15.484-14.191-15.484-8.604 0-14.28 5.876-14.28 15.484 0 9.522 5.676 15.484 14.235 15.484s14.236-5.92 14.236-15.484zm-26.121 0c0-8.493 4.568-13.597 11.885-13.597 7.273 0 11.885 5.104 11.885 13.597 0 8.535-4.612 13.596-11.885 13.596-7.228 0-11.885-5.104-11.885-13.596zM191.664 32.3c.177 0 .355-.17.355-.342l-.045-9.136v-4.804c1.508-4.032 3.814-6.52 7.229-6.52 3.459 0 5.765 2.016 5.765 7.335v3.989l-.088 9.136c0 .171.177.343.354.343h1.553c.177 0 .354-.172.354-.343l-.044-9.136v-4.203c0-6.048-2.838-8.922-7.45-8.922-3.947 0-6.475 2.574-7.761 5.061l.088-4.203c0-.172-.177-.343-.354-.343h-1.508c-.178 0-.355.171-.355.343l.089 12.052-.089 9.35c0 .172.177.344.355.344h1.552zM228.137 24.495c-.177 0-.399.128-.399.343-.754 3.903-3.104 6.262-7.228 6.262-5.411 0-8.116-3.646-8.116-9.865l17.251-.043c.178 0 .355-.172.355-.343-.133-7.034-3.77-11.11-9.801-11.11-6.164 0-10.022 4.805-10.022 11.582 0 6.776 3.547 11.452 10.288 11.452 5.455 0 8.559-3.089 9.402-7.935 0-.172-.133-.343-.31-.343h-1.42zm-.487-5.019h-15.167c.532-4.932 3.193-8.063 7.716-8.063 4.834 0 7.406 3.603 7.451 8.063z" fill="#fff"/></svg>