<svg width="501" height="16" viewBox="0 0 501 16" fill="none" xmlns="http://www.w3.org/2000/svg"><path d="M.34.95h4.08V12h.918V.95h4.08V.1H.34v.85zm13.031 2.431c-1.598 0-2.278.765-2.635 1.717L10.6 3.381h-.748V12h.867V7.631c0-1.751.459-3.417 2.482-3.417h.629v-.833h-.459zm8.96 7.82c-.51 0-.764-.17-.764-.833V6.356c0-1.972-1.207-3.077-3.366-3.077-1.973 0-3.282.952-3.503 2.516h.867c.222-1.054 1.14-1.751 2.601-1.751 1.616 0 2.534.85 2.534 2.278v.748h-2.924c-2.21 0-3.4.952-3.4 2.567 0 1.53 1.207 2.465 3.043 2.465 1.75 0 2.787-.799 3.314-1.87v.306C20.7 11.558 21.125 12 22.145 12h.51v-.799h-.324zM20.7 8.515c0 1.649-1.174 2.839-3.213 2.839-1.377 0-2.227-.697-2.227-1.768 0-1.139.85-1.768 2.447-1.768H20.7v.697zm10.02-3.196c-.528-1.224-1.684-2.04-3.299-2.04-2.363 0-4.063 1.802-4.063 4.403 0 2.72 1.7 4.42 4.063 4.42 1.615 0 2.737-.867 3.281-2.074L30.838 12h.748V.1h-.867v5.219zm-3.23 6.001c-1.922 0-3.248-1.496-3.248-3.638 0-2.125 1.326-3.638 3.247-3.638 1.921 0 3.247 1.513 3.247 3.655 0 2.125-1.326 3.621-3.247 3.621zm9.944.782c1.887 0 3.332-1.224 3.706-2.958h-.885c-.34 1.343-1.479 2.176-2.89 2.176-1.92 0-3.128-1.462-3.162-3.468v-.153h7.038c0-.119.017-.255.017-.357-.085-2.567-1.666-4.063-3.977-4.063-2.364 0-3.978 1.802-3.978 4.352 0 2.703 1.683 4.471 4.13 4.471zm-3.162-5.134c.136-1.751 1.445-2.924 3.026-2.924 1.682 0 2.89 1.037 3.026 2.924h-6.052zM46.874.95h4.08V12h.918V.95h4.08V.1h-9.078v.85zm12.723 11.152c1.887 0 3.332-1.224 3.706-2.958h-.884c-.34 1.343-1.48 2.176-2.89 2.176-1.921 0-3.128-1.462-3.162-3.468v-.153h7.038c0-.119.017-.255.017-.357-.085-2.567-1.666-4.063-3.978-4.063-2.363 0-3.978 1.802-3.978 4.352 0 2.703 1.683 4.471 4.13 4.471zm-3.162-5.134c.136-1.751 1.445-2.924 3.026-2.924 1.683 0 2.89 1.037 3.026 2.924h-6.052zm8.293 2.38c.068 1.785 1.513 2.754 3.672 2.754 1.853 0 3.349-.935 3.349-2.465 0-1.819-1.598-2.176-3.451-2.431-1.343-.187-2.533-.34-2.533-1.547 0-.986.969-1.632 2.43-1.632 1.378 0 2.364.663 2.517 1.785h.884c-.153-1.683-1.53-2.533-3.4-2.533-1.921-.017-3.298.969-3.298 2.448 0 1.734 1.598 2.057 3.366 2.295 1.445.204 2.618.391 2.618 1.666 0 1.02-1.071 1.666-2.482 1.666-1.65 0-2.72-.765-2.788-2.006h-.884zM73.403 12h.867V.1h-.867V12zm10.487-.799c-.51 0-.765-.17-.765-.833V6.356c0-1.972-1.207-3.077-3.366-3.077-1.972 0-3.28.952-3.502 2.516h.867c.221-1.054 1.14-1.751 2.601-1.751 1.615 0 2.533.85 2.533 2.278v.748h-2.924c-2.21 0-3.4.952-3.4 2.567 0 1.53 1.207 2.465 3.043 2.465 1.751 0 2.788-.799 3.315-1.87v.306c-.034 1.02.391 1.462 1.411 1.462h.51v-.799h-.323zm-1.632-2.686c0 1.649-1.173 2.839-3.213 2.839-1.377 0-2.227-.697-2.227-1.768 0-1.139.85-1.768 2.448-1.768h2.992v.697zm7.306.833c.068 1.785 1.513 2.754 3.672 2.754 1.853 0 3.349-.935 3.349-2.465 0-1.819-1.598-2.176-3.451-2.431-1.343-.187-2.533-.34-2.533-1.547 0-.986.969-1.632 2.43-1.632 1.378 0 2.364.663 2.517 1.785h.884c-.153-1.683-1.53-2.533-3.4-2.533-1.921-.017-3.298.969-3.298 2.448 0 1.734 1.598 2.057 3.366 2.295 1.445.204 2.618.391 2.618 1.666 0 1.02-1.071 1.666-2.482 1.666-1.65 0-2.72-.765-2.788-2.006h-.884zm12.653-6.069c-1.615 0-2.618.901-3.111 2.142V.1h-.867V12h.867V7.75c0-2.244 1.139-3.672 2.975-3.672 1.649 0 2.669 1.088 2.669 3.128V12h.867V7.172c0-2.72-1.445-3.893-3.4-3.893zm12.917 7.922c-.51 0-.765-.17-.765-.833V6.356c0-1.972-1.207-3.077-3.366-3.077-1.972 0-3.281.952-3.502 2.516h.867c.221-1.054 1.139-1.751 2.601-1.751 1.615 0 2.533.85 2.533 2.278v.748h-2.924c-2.21 0-3.4.952-3.4 2.567 0 1.53 1.207 2.465 3.043 2.465 1.751 0 2.788-.799 3.315-1.87v.306c-.034 1.02.391 1.462 1.411 1.462h.51v-.799h-.323zm-1.632-2.686c0 1.649-1.173 2.839-3.213 2.839-1.377 0-2.227-.697-2.227-1.768 0-1.139.85-1.768 2.448-1.768h2.992v.697zm6.634-5.134c-1.598 0-2.278.765-2.635 1.717l-.136-1.717h-.748V12h.867V7.631c0-1.751.459-3.417 2.482-3.417h.629v-.833h-.459zm4.937 8.721c1.887 0 3.332-1.224 3.706-2.958h-.884c-.34 1.343-1.479 2.176-2.89 2.176-1.921 0-3.128-1.462-3.162-3.468v-.153h7.038c0-.119.017-.255.017-.357-.085-2.567-1.666-4.063-3.978-4.063-2.363 0-3.978 1.802-3.978 4.352 0 2.703 1.683 4.471 4.131 4.471zm-3.162-5.134c.136-1.751 1.445-2.924 3.026-2.924 1.683 0 2.89 1.037 3.026 2.924h-6.052zm8.293 2.38c.068 1.785 1.513 2.754 3.672 2.754 1.853 0 3.349-.935 3.349-2.465 0-1.819-1.598-2.176-3.451-2.431-1.343-.187-2.533-.34-2.533-1.547 0-.986.969-1.632 2.431-1.632 1.377 0 2.363.663 2.516 1.785h.884c-.153-1.683-1.53-2.533-3.4-2.533-1.921-.017-3.298.969-3.298 2.448 0 1.734 1.598 2.057 3.366 2.295 1.445.204 2.618.391 2.618 1.666 0 1.02-1.071 1.666-2.482 1.666-1.649 0-2.72-.765-2.788-2.006h-.884zM145.552 12h.935l2.55-7.242L151.468 12h.935l3.06-8.619h-.884l-2.652 7.582-2.465-7.582h-.799l-2.601 7.582-2.516-7.582h-.918L145.552 12zm11.566-10.438c.34 0 .612-.255.612-.612a.599.599 0 00-.612-.612.599.599 0 00-.612.612c0 .357.272.612.612.612zM156.676 12h.867V3.381h-.867V12zm3.552-2.006c0 1.377.561 2.006 2.023 2.006h1.258v-.799h-1.19c-.901 0-1.224-.34-1.224-1.224V4.18h2.329v-.799h-2.329V.967h-.867v2.414h-1.632v.799h1.632v5.814zm8.578-6.715c-1.615 0-2.618.901-3.111 2.142V.1h-.867V12h.867V7.75c0-2.244 1.139-3.672 2.975-3.672 1.649 0 2.669 1.088 2.669 3.128V12h.867V7.172c0-2.72-1.445-3.893-3.4-3.893zm16.173 4.335c0 2.261-1.122 3.689-2.907 3.689-1.598 0-2.584-1.088-2.584-3.145V3.381h-.867v4.828c0 2.703 1.411 3.893 3.315 3.893 1.53 0 2.533-.816 3.026-1.921l.119 1.819h.765V3.381h-.867v4.233zM187.887 12h.867V.1h-.867V12zm3.551-2.006c0 1.377.561 2.006 2.023 2.006h1.258v-.799h-1.19c-.901 0-1.224-.34-1.224-1.224V4.18h2.329v-.799h-2.329V.967h-.867v2.414h-1.632v.799h1.632v5.814zm8.12-6.613c-1.598 0-2.278.765-2.635 1.717l-.136-1.717h-.748V12h.867V7.631c0-1.751.459-3.417 2.482-3.417h.629v-.833h-.459zm8.96 7.82c-.51 0-.765-.17-.765-.833V6.356c0-1.972-1.207-3.077-3.366-3.077-1.972 0-3.281.952-3.502 2.516h.867c.221-1.054 1.139-1.751 2.601-1.751 1.615 0 2.533.85 2.533 2.278v.748h-2.924c-2.21 0-3.4.952-3.4 2.567 0 1.53 1.207 2.465 3.043 2.465 1.751 0 2.788-.799 3.315-1.87v.306c-.034 1.02.391 1.462 1.411 1.462h.51v-.799h-.323zm-1.632-2.686c0 1.649-1.173 2.839-3.213 2.839-1.377 0-2.227-.697-2.227-1.768 0-1.139.85-1.768 2.448-1.768h2.992v.697zm8.588-.986v-.731h-5.491v.731h5.491zm2.03 4.471h.867V.1h-.867V12zm6.714.102c2.431 0 4.148-1.802 4.148-4.42 0-2.601-1.717-4.403-4.148-4.403-2.431 0-4.131 1.802-4.131 4.403 0 2.618 1.7 4.42 4.131 4.42zm0-.782c-1.921 0-3.247-1.496-3.247-3.638 0-2.125 1.326-3.638 3.247-3.638 1.921 0 3.247 1.513 3.247 3.638 0 2.142-1.326 3.638-3.247 3.638zm7.696.68h.935l2.55-7.242L237.83 12h.935l3.06-8.619h-.884l-2.652 7.582-2.465-7.582h-.799l-2.601 7.582-2.516-7.582h-.918L231.914 12zm19.463.102c1.955 0 3.332-1.122 3.672-2.873h-.918c-.289 1.275-1.326 2.091-2.754 2.091-1.887 0-3.196-1.479-3.196-3.621s1.292-3.655 3.196-3.655c1.445 0 2.465.816 2.771 2.108h.901c-.357-1.785-1.7-2.873-3.655-2.873-2.431 0-4.097 1.802-4.097 4.42 0 2.652 1.649 4.403 4.08 4.403zm9.165 0c2.431 0 4.148-1.802 4.148-4.42 0-2.601-1.717-4.403-4.148-4.403-2.431 0-4.131 1.802-4.131 4.403 0 2.618 1.7 4.42 4.131 4.42zm0-.782c-1.921 0-3.247-1.496-3.247-3.638 0-2.125 1.326-3.638 3.247-3.638 1.921 0 3.247 1.513 3.247 3.638 0 2.142-1.326 3.638-3.247 3.638zm15.493-8.041c-1.581 0-2.601.884-3.094 2.159-.408-1.428-1.479-2.159-2.839-2.159-1.479 0-2.363.867-2.805 1.938l-.136-1.836h-.748V12h.867V7.614c0-2.108 1.02-3.536 2.669-3.536 1.496 0 2.431 1.054 2.431 3.043V12h.867V7.308c.051-1.972 1.071-3.23 2.686-3.23 1.496 0 2.397 1.003 2.397 2.958V12h.884V7.002c0-2.601-1.377-3.723-3.179-3.723zm14.725 0c-1.581 0-2.601.884-3.094 2.159-.408-1.428-1.479-2.159-2.839-2.159-1.479 0-2.363.867-2.805 1.938l-.136-1.836h-.748V12h.867V7.614c0-2.108 1.02-3.536 2.669-3.536 1.496 0 2.431 1.054 2.431 3.043V12h.867V7.308c.051-1.972 1.071-3.23 2.686-3.23 1.496 0 2.397 1.003 2.397 2.958V12h.884V7.002c0-2.601-1.377-3.723-3.179-3.723zm5.546-1.717c.34 0 .612-.255.612-.612a.599.599 0 00-.612-.612.599.599 0 00-.612.612c0 .357.272.612.612.612zM295.864 12h.867V3.381h-.867V12zm2.514-2.652c.068 1.785 1.513 2.754 3.672 2.754 1.853 0 3.349-.935 3.349-2.465 0-1.819-1.598-2.176-3.451-2.431-1.343-.187-2.533-.34-2.533-1.547 0-.986.969-1.632 2.431-1.632 1.377 0 2.363.663 2.516 1.785h.884c-.153-1.683-1.53-2.533-3.4-2.533-1.921-.017-3.298.969-3.298 2.448 0 1.734 1.598 2.057 3.366 2.295 1.445.204 2.618.391 2.618 1.666 0 1.02-1.071 1.666-2.482 1.666-1.649 0-2.72-.765-2.788-2.006h-.884zm8.118 0c.068 1.785 1.513 2.754 3.672 2.754 1.853 0 3.349-.935 3.349-2.465 0-1.819-1.598-2.176-3.451-2.431-1.343-.187-2.533-.34-2.533-1.547 0-.986.969-1.632 2.431-1.632 1.377 0 2.363.663 2.516 1.785h.884c-.153-1.683-1.53-2.533-3.4-2.533-1.921-.017-3.298.969-3.298 2.448 0 1.734 1.598 2.057 3.366 2.295 1.445.204 2.618.391 2.618 1.666 0 1.02-1.071 1.666-2.482 1.666-1.649 0-2.72-.765-2.788-2.006h-.884zm9.117-7.786c.34 0 .612-.255.612-.612a.599.599 0 00-.612-.612.599.599 0 00-.612.612c0 .357.272.612.612.612zM315.171 12h.867V3.381h-.867V12zm6.714.102c2.431 0 4.148-1.802 4.148-4.42 0-2.601-1.717-4.403-4.148-4.403-2.431 0-4.131 1.802-4.131 4.403 0 2.618 1.7 4.42 4.131 4.42zm0-.782c-1.921 0-3.247-1.496-3.247-3.638 0-2.125 1.326-3.638 3.247-3.638 1.921 0 3.247 1.513 3.247 3.638 0 2.142-1.326 3.638-3.247 3.638zm9.848-8.041c-1.581 0-2.601.816-3.094 1.938l-.136-1.836h-.748V12h.867V7.75c0-2.244 1.139-3.672 2.975-3.672 1.666 0 2.669 1.088 2.669 3.128V12h.867V7.172c0-2.72-1.445-3.893-3.4-3.893zm4.928 6.069c.068 1.785 1.513 2.754 3.672 2.754 1.853 0 3.349-.935 3.349-2.465 0-1.819-1.598-2.176-3.451-2.431-1.343-.187-2.533-.34-2.533-1.547 0-.986.969-1.632 2.431-1.632 1.377 0 2.363.663 2.516 1.785h.884c-.153-1.683-1.53-2.533-3.4-2.533-1.921-.017-3.298.969-3.298 2.448 0 1.734 1.598 2.057 3.366 2.295 1.445.204 2.618.391 2.618 1.666 0 1.02-1.071 1.666-2.482 1.666-1.649 0-2.72-.765-2.788-2.006h-.884zm20.839 1.853c-.51 0-.765-.17-.765-.833V6.356c0-1.972-1.207-3.077-3.366-3.077-1.972 0-3.281.952-3.502 2.516h.867c.221-1.054 1.139-1.751 2.601-1.751 1.615 0 2.533.85 2.533 2.278v.748h-2.924c-2.21 0-3.4.952-3.4 2.567 0 1.53 1.207 2.465 3.043 2.465 1.751 0 2.788-.799 3.315-1.87v.306c-.034 1.02.391 1.462 1.411 1.462h.51v-.799h-.323zm-1.632-2.686c0 1.649-1.173 2.839-3.213 2.839-1.377 0-2.227-.697-2.227-1.768 0-1.139.85-1.768 2.448-1.768h2.992v.697zm3.761 1.479c0 1.377.561 2.006 2.023 2.006h1.258v-.799h-1.19c-.901 0-1.224-.34-1.224-1.224V4.18h2.329v-.799h-2.329V.967h-.867v2.414h-1.632v.799h1.632v5.814zm9.709-8.432c.34 0 .612-.255.612-.612a.599.599 0 00-.612-.612.599.599 0 00-.612.612c0 .357.272.612.612.612zM366.703 15.4h1.054c1.445 0 2.023-.629 2.023-2.006V3.381h-.867v10.03c0 .85-.323 1.19-1.19 1.19h-1.02v.799zm11.369-7.786c0 2.261-1.122 3.689-2.907 3.689-1.598 0-2.584-1.088-2.584-3.145V3.381h-.867v4.828c0 2.703 1.411 3.893 3.315 3.893 1.53 0 2.533-.816 3.026-1.921l.119 1.819h.765V3.381h-.867v4.233zm2.517 1.734c.068 1.785 1.513 2.754 3.672 2.754 1.853 0 3.349-.935 3.349-2.465 0-1.819-1.598-2.176-3.451-2.431-1.343-.187-2.533-.34-2.533-1.547 0-.986.969-1.632 2.431-1.632 1.377 0 2.363.663 2.516 1.785h.884c-.153-1.683-1.53-2.533-3.4-2.533-1.921-.017-3.298.969-3.298 2.448 0 1.734 1.598 2.057 3.366 2.295 1.445.204 2.618.391 2.618 1.666 0 1.02-1.071 1.666-2.482 1.666-1.649 0-2.72-.765-2.788-2.006h-.884zm9.321.646c0 1.377.561 2.006 2.023 2.006h1.258v-.799h-1.19c-.901 0-1.224-.34-1.224-1.224V4.18h2.329v-.799h-2.329V.967h-.867v2.414h-1.632v.799h1.632v5.814zm11.018-8.381c0 .544-.255.918-.782.918h-2.04v.799h2.04c.357 0 .612-.102.765-.289V12h.884V.1h-.867v1.513zm3.043 9.826c0 .391.272.646.646.646s.646-.255.646-.646-.272-.629-.646-.629-.646.238-.646.629zm6.536-7.327c-1.258 0-2.38.442-3.094 1.445l.323-4.641h5.899V.1h-6.698l-.425 6.647.85.034c.51-1.394 1.938-1.87 3.026-1.87 1.904 0 3.077 1.343 3.077 3.179 0 2.108-1.513 3.196-3.145 3.196-1.938 0-3.06-1.292-3.196-2.839h-.884c.136 1.972 1.564 3.638 4.08 3.638 2.142 0 4.046-1.394 4.046-4.012 0-2.312-1.547-3.961-3.859-3.961zm9.226 7.99c1.955 0 3.332-1.122 3.672-2.873h-.918c-.289 1.275-1.326 2.091-2.754 2.091-1.887 0-3.196-1.479-3.196-3.621s1.292-3.655 3.196-3.655c1.445 0 2.465.816 2.771 2.108h.901c-.357-1.785-1.7-2.873-3.655-2.873-2.431 0-4.097 1.802-4.097 4.42 0 2.652 1.649 4.403 4.08 4.403zm14.104-8.823c-1.615 0-2.737.867-3.281 2.074l-.136-1.972h-.748V15.4h.867v-5.389c.493 1.258 1.666 2.091 3.298 2.091 2.363 0 4.063-1.802 4.063-4.42 0-2.703-1.7-4.403-4.063-4.403zm-.068 8.041c-1.921 0-3.247-1.496-3.247-3.655 0-2.108 1.326-3.621 3.247-3.621 1.921 0 3.247 1.513 3.247 3.638 0 2.142-1.326 3.638-3.247 3.638zm9.656.782c1.887 0 3.332-1.224 3.706-2.958h-.884c-.34 1.343-1.479 2.176-2.89 2.176-1.921 0-3.128-1.462-3.162-3.468v-.153h7.038c0-.119.017-.255.017-.357-.085-2.567-1.666-4.063-3.978-4.063-2.363 0-3.978 1.802-3.978 4.352 0 2.703 1.683 4.471 4.131 4.471zm-3.162-5.134c.136-1.751 1.445-2.924 3.026-2.924 1.683 0 2.89 1.037 3.026 2.924h-6.052zm12.219-3.587c-1.598 0-2.278.765-2.635 1.717l-.136-1.717h-.748V12h.867V7.631c0-1.751.459-3.417 2.482-3.417h.629v-.833h-.459zm5.935 5.967c.068 1.785 1.513 2.754 3.672 2.754 1.853 0 3.349-.935 3.349-2.465 0-1.819-1.598-2.176-3.451-2.431-1.343-.187-2.533-.34-2.533-1.547 0-.986.969-1.632 2.431-1.632 1.377 0 2.363.663 2.516 1.785h.884c-.153-1.683-1.53-2.533-3.4-2.533-1.921-.017-3.298.969-3.298 2.448 0 1.734 1.598 2.057 3.366 2.295 1.445.204 2.618.391 2.618 1.666 0 1.02-1.071 1.666-2.482 1.666-1.649 0-2.72-.765-2.788-2.006h-.884zm12.653-6.069c-1.615 0-2.618.901-3.111 2.142V.1h-.867V12h.867V7.75c0-2.244 1.139-3.672 2.975-3.672 1.649 0 2.669 1.088 2.669 3.128V12h.867V7.172c0-2.72-1.445-3.893-3.4-3.893zm12.918 7.922c-.51 0-.765-.17-.765-.833V6.356c0-1.972-1.207-3.077-3.366-3.077-1.972 0-3.281.952-3.502 2.516h.867c.221-1.054 1.139-1.751 2.601-1.751 1.615 0 2.533.85 2.533 2.278v.748h-2.924c-2.21 0-3.4.952-3.4 2.567 0 1.53 1.207 2.465 3.043 2.465 1.751 0 2.788-.799 3.315-1.87v.306c-.034 1.02.391 1.462 1.411 1.462h.51v-.799h-.323zm-1.632-2.686c0 1.649-1.173 2.839-3.213 2.839-1.377 0-2.227-.697-2.227-1.768 0-1.139.85-1.768 2.448-1.768h2.992v.697zm6.633-5.134c-1.598 0-2.278.765-2.635 1.717l-.136-1.717h-.748V12h.867V7.631c0-1.751.459-3.417 2.482-3.417h.629v-.833h-.459zm4.938 8.721c1.887 0 3.332-1.224 3.706-2.958h-.884c-.34 1.343-1.479 2.176-2.89 2.176-1.921 0-3.128-1.462-3.162-3.468v-.153h7.038c0-.119.017-.255.017-.357-.085-2.567-1.666-4.063-3.978-4.063-2.363 0-3.978 1.802-3.978 4.352 0 2.703 1.683 4.471 4.131 4.471zm-3.162-5.134c.136-1.751 1.445-2.924 3.026-2.924 1.683 0 2.89 1.037 3.026 2.924h-6.052zm7.984 4.471c0 .391.272.646.646.646s.646-.255.646-.646-.272-.629-.646-.629-.646.238-.646.629z" fill="#000"/></svg>