<svg width="272" height="13" viewBox="0 0 272 13" fill="none" xmlns="http://www.w3.org/2000/svg"><path d="M11.111 10l.814-2.079h3.355L16.094 10h1.023l-2.926-7.7h-1.133L10.121 10h.99zm2.486-6.655l1.397 3.707h-2.783l1.386-3.707zM17.857 10h.901V2.3h-.902V10zm2.137 0h.902V2.3h-.902V10zm5.434-1.463c0 .99.386 1.463 1.463 1.463h.98v-.825h-.891c-.485 0-.65-.176-.65-.649V5.215h1.453V4.39H26.33V2.817h-.901V4.39h-1.012v.825h1.011v3.322zm5.82-4.147c-1 0-1.43.418-1.694.847l-.12-.847h-.782V10h.902V7.14c0-.891.32-1.87 1.496-1.87h.451v-.88h-.253zm5.803 4.785c-.253 0-.363-.077-.363-.374V6.348c0-1.309-.825-2.024-2.255-2.024-1.353 0-2.244.649-2.376 1.749h.902c.11-.572.638-.946 1.43-.946.88 0 1.397.44 1.397 1.166v.385h-1.65c-1.474 0-2.255.627-2.255 1.749 0 1.023.836 1.639 2.068 1.639.968 0 1.529-.429 1.88-.935.012.55.265.869 1.013.869h.495v-.825h-.286zm-1.265-1.463c0 .935-.65 1.584-1.771 1.584-.748 0-1.221-.374-1.221-.924 0-.638.45-.935 1.254-.935h1.738v.275zm6.602-2.464c-.341-.539-.98-.924-1.925-.924-1.551 0-2.695 1.155-2.695 2.871 0 1.826 1.144 2.871 2.695 2.871.946 0 1.55-.451 1.925-.968l.12.902h.782V2.3h-.902v2.948zM40.55 9.263c-1.111 0-1.86-.847-1.86-2.068s.749-2.068 1.86-2.068c1.1 0 1.848.858 1.848 2.09 0 1.199-.748 2.046-1.848 2.046zm4.43-5.819c.33 0 .582-.242.582-.583a.567.567 0 00-.583-.583.567.567 0 00-.583.583c0 .341.253.583.583.583zM44.517 10h.902V4.39h-.902V10zm4.888-5.676c-.946 0-1.518.396-1.848.825l-.121-.759h-.781V10h.902V7.195c0-1.265.638-2.046 1.694-2.046.979 0 1.518.616 1.518 1.782V10h.902V6.876c0-1.859-1.001-2.552-2.266-2.552zm7.838 1.034c-.352-.627-.979-1.034-1.925-1.034-1.55 0-2.695 1.155-2.695 2.871 0 1.826 1.144 2.871 2.695 2.871.946 0 1.551-.396 1.925-1.034v.66c0 1.221-.638 1.771-1.815 1.771-.935 0-1.562-.396-1.716-1.1h-.924c.143 1.232 1.144 1.903 2.574 1.903 1.925 0 2.783-.924 2.783-2.541V4.39h-.78l-.122.968zm-1.837 3.905c-1.11 0-1.859-.847-1.859-2.068s.748-2.068 1.86-2.068c1.1 0 1.847.858 1.847 2.09 0 1.199-.748 2.046-1.848 2.046zm7.309-5.819c.33 0 .583-.242.583-.583a.567.567 0 00-.583-.583.567.567 0 00-.583.583c0 .341.253.583.583.583zM62.254 10h.902V4.39h-.902V10zm4.887-5.676c-.946 0-1.518.396-1.848.825l-.12-.759h-.782V10h.902V7.195c0-1.265.638-2.046 1.694-2.046.98 0 1.518.616 1.518 1.782V10h.902V6.876c0-1.859-1-2.552-2.266-2.552zM71.893 10h1.09l2.1-5.61h-.946l-1.683 4.587L70.76 4.39h-.968L71.893 10zm6.202.066c1.639 0 2.783-1.166 2.783-2.871s-1.144-2.871-2.783-2.871c-1.64 0-2.783 1.166-2.783 2.871s1.144 2.871 2.783 2.871zm0-.803c-1.111 0-1.86-.869-1.86-2.068s.749-2.068 1.86-2.068c1.11 0 1.859.869 1.859 2.068s-.748 2.068-1.86 2.068zm3.817.737h.902V2.3h-.902V10zm3.678 0h1.089l2.1-5.61h-.945L86.15 8.977 84.457 4.39h-.968l2.1 5.61zm6.2.066c1.299 0 2.223-.825 2.443-1.947h-.913c-.187.726-.803 1.144-1.595 1.144-1.067 0-1.738-.748-1.771-1.815v-.077h4.356c.01-.132.022-.264.022-.385-.044-1.661-1.078-2.662-2.662-2.662-1.584 0-2.662 1.166-2.662 2.871 0 1.716 1.1 2.871 2.783 2.871zM90.01 6.623c.088-.913.847-1.507 1.672-1.507.935 0 1.595.539 1.683 1.507h-3.355zm5.1 1.529c.022 1.232 1.023 1.914 2.475 1.914 1.243 0 2.244-.649 2.244-1.694 0-1.243-1.023-1.485-2.3-1.639-.813-.099-1.407-.176-1.407-.792 0-.517.528-.847 1.309-.847.77 0 1.298.429 1.364 1.001h.924c-.088-1.166-1.012-1.76-2.288-1.771-1.265-.011-2.2.66-2.2 1.683 0 1.166 1 1.419 2.255 1.573.836.099 1.452.154 1.452.858 0 .517-.561.858-1.353.858-.935 0-1.518-.484-1.551-1.144h-.924zm11.195-3.762c-1.001 0-1.43.418-1.694.847l-.121-.847h-.781V10h.902V7.14c0-.891.319-1.87 1.496-1.87h.451v-.88h-.253zm1.497-.946c.33 0 .583-.242.583-.583a.567.567 0 00-.583-.583.567.567 0 00-.583.583c0 .341.253.583.583.583zM107.339 10h.902V4.39h-.902V10zm1.906-1.848c.022 1.232 1.023 1.914 2.475 1.914 1.243 0 2.244-.649 2.244-1.694 0-1.243-1.023-1.485-2.299-1.639-.814-.099-1.408-.176-1.408-.792 0-.517.528-.847 1.309-.847.77 0 1.298.429 1.364 1.001h.924c-.088-1.166-1.012-1.76-2.288-1.771-1.265-.011-2.2.66-2.2 1.683 0 1.166 1.001 1.419 2.255 1.573.836.099 1.452.154 1.452.858 0 .517-.561.858-1.353.858-.935 0-1.518-.484-1.551-1.144h-.924zM114.966 10h.902V8.526l1.133-1.166L118.86 10h1.089l-2.343-3.289 2.189-2.321h-1.111l-2.816 2.981V2.3h-.902V10zm5.215-1.848c.022 1.232 1.023 1.914 2.475 1.914 1.243 0 2.244-.649 2.244-1.694 0-1.243-1.023-1.485-2.299-1.639-.814-.099-1.408-.176-1.408-.792 0-.517.528-.847 1.309-.847.77 0 1.298.429 1.364 1.001h.924c-.088-1.166-1.012-1.76-2.288-1.771-1.265-.011-2.2.66-2.2 1.683 0 1.166 1.001 1.419 2.255 1.573.836.099 1.452.154 1.452.858 0 .517-.561.858-1.353.858-.935 0-1.518-.484-1.551-1.144h-.924zm5.524 1.298c0 .374.264.616.627.616s.627-.242.627-.616-.264-.616-.627-.616-.627.242-.627.616zm9.854.55v-.88h-3.509V2.3h-.957V10h4.466zm3.121.066c1.639 0 2.783-1.166 2.783-2.871s-1.144-2.871-2.783-2.871-2.783 1.166-2.783 2.871 1.144 2.871 2.783 2.871zm0-.803c-1.111 0-1.859-.869-1.859-2.068s.748-2.068 1.859-2.068 1.859.869 1.859 2.068-.748 2.068-1.859 2.068zm3.565-1.111c.022 1.232 1.023 1.914 2.475 1.914 1.243 0 2.244-.649 2.244-1.694 0-1.243-1.023-1.485-2.299-1.639-.814-.099-1.408-.176-1.408-.792 0-.517.528-.847 1.309-.847.77 0 1.298.429 1.364 1.001h.924c-.088-1.166-1.012-1.76-2.288-1.771-1.265-.011-2.2.66-2.2 1.683 0 1.166 1.001 1.419 2.255 1.573.836.099 1.452.154 1.452.858 0 .517-.561.858-1.353.858-.935 0-1.518-.484-1.551-1.144h-.924zm5.382 0c.022 1.232 1.023 1.914 2.475 1.914 1.243 0 2.244-.649 2.244-1.694 0-1.243-1.023-1.485-2.299-1.639-.814-.099-1.408-.176-1.408-.792 0-.517.528-.847 1.309-.847.77 0 1.298.429 1.364 1.001h.924c-.088-1.166-1.012-1.76-2.288-1.771-1.265-.011-2.2.66-2.2 1.683 0 1.166 1.001 1.419 2.255 1.573.836.099 1.452.154 1.452.858 0 .517-.561.858-1.353.858-.935 0-1.518-.484-1.551-1.144h-.924zm8.305 1.914c1.298 0 2.222-.825 2.442-1.947h-.913c-.187.726-.803 1.144-1.595 1.144-1.067 0-1.738-.748-1.771-1.815v-.077h4.356c.011-.132.022-.264.022-.385-.044-1.661-1.078-2.662-2.662-2.662-1.584 0-2.662 1.166-2.662 2.871 0 1.716 1.1 2.871 2.783 2.871zm-1.782-3.443c.088-.913.847-1.507 1.672-1.507.935 0 1.595.539 1.683 1.507h-3.355zm5.1 1.529c.022 1.232 1.023 1.914 2.475 1.914 1.243 0 2.244-.649 2.244-1.694 0-1.243-1.023-1.485-2.299-1.639-.814-.099-1.408-.176-1.408-.792 0-.517.528-.847 1.309-.847.77 0 1.298.429 1.364 1.001h.924c-.088-1.166-1.012-1.76-2.288-1.771-1.265-.011-2.2.66-2.2 1.683 0 1.166 1.001 1.419 2.255 1.573.836.099 1.452.154 1.452.858 0 .517-.561.858-1.353.858-.935 0-1.518-.484-1.551-1.144h-.924zm11.118 1.914c1.364 0 2.277-.77 2.497-1.98h-.957c-.176.715-.726 1.177-1.529 1.177-1.078 0-1.804-.836-1.804-2.057s.726-2.079 1.804-2.079c.825 0 1.375.451 1.54 1.199h.946c-.231-1.232-1.1-2.002-2.475-2.002-1.628 0-2.739 1.166-2.739 2.882 0 1.749 1.078 2.86 2.717 2.86zm8.447-.891c-.253 0-.363-.077-.363-.374V6.348c0-1.309-.825-2.024-2.255-2.024-1.353 0-2.244.649-2.376 1.749h.902c.11-.572.638-.946 1.43-.946.88 0 1.397.44 1.397 1.166v.385h-1.65c-1.474 0-2.255.627-2.255 1.749 0 1.023.836 1.639 2.068 1.639.968 0 1.529-.429 1.881-.935.011.55.264.869 1.012.869h.495v-.825h-.286zm-1.265-1.463c0 .935-.649 1.584-1.771 1.584-.748 0-1.221-.374-1.221-.924 0-.638.451-.935 1.254-.935h1.738v.275zm4.995-3.388c-.946 0-1.518.396-1.848.825l-.121-.759h-.781V10h.902V7.195c0-1.265.638-2.046 1.694-2.046.979 0 1.518.616 1.518 1.782V10h.902V6.876c0-1.859-1.001-2.552-2.266-2.552zm8.88 5.742c1.298 0 2.222-.825 2.442-1.947h-.913c-.187.726-.803 1.144-1.595 1.144-1.067 0-1.738-.748-1.771-1.815v-.077h4.356c.011-.132.022-.264.022-.385-.044-1.661-1.078-2.662-2.662-2.662-1.584 0-2.662 1.166-2.662 2.871 0 1.716 1.1 2.871 2.783 2.871zm-1.782-3.443c.088-.913.847-1.507 1.672-1.507.935 0 1.595.539 1.683 1.507h-3.355zM194.165 10h1.023l1.639-2.255L198.466 10h1.078l-2.145-2.882 2.002-2.728h-1.023l-1.507 2.079-1.485-2.079h-1.078l1.991 2.728L194.165 10zm8.301.066c1.364 0 2.277-.77 2.497-1.98h-.957c-.176.715-.726 1.177-1.529 1.177-1.078 0-1.804-.836-1.804-2.057s.726-2.079 1.804-2.079c.825 0 1.375.451 1.54 1.199h.946c-.231-1.232-1.1-2.002-2.475-2.002-1.628 0-2.739 1.166-2.739 2.882 0 1.749 1.078 2.86 2.717 2.86zm6.071 0c1.298 0 2.222-.825 2.442-1.947h-.913c-.187.726-.803 1.144-1.595 1.144-1.067 0-1.738-.748-1.771-1.815v-.077h4.356c.011-.132.022-.264.022-.385-.044-1.661-1.078-2.662-2.662-2.662-1.584 0-2.662 1.166-2.662 2.871 0 1.716 1.1 2.871 2.783 2.871zm-1.782-3.443c.088-.913.847-1.507 1.672-1.507.935 0 1.595.539 1.683 1.507h-3.355zm7.937 3.443c1.298 0 2.222-.825 2.442-1.947h-.913c-.187.726-.803 1.144-1.595 1.144-1.067 0-1.738-.748-1.771-1.815v-.077h4.356c.011-.132.022-.264.022-.385-.044-1.661-1.078-2.662-2.662-2.662-1.584 0-2.662 1.166-2.662 2.871 0 1.716 1.1 2.871 2.783 2.871zm-1.782-3.443c.088-.913.847-1.507 1.672-1.507.935 0 1.595.539 1.683 1.507h-3.355zm9.774-1.375c-.341-.539-.979-.924-1.925-.924-1.551 0-2.695 1.155-2.695 2.871 0 1.826 1.144 2.871 2.695 2.871.946 0 1.551-.451 1.925-.968l.121.902h.781V2.3h-.902v2.948zm-1.837 4.015c-1.111 0-1.859-.847-1.859-2.068s.748-2.068 1.859-2.068c1.1 0 1.848.858 1.848 2.09 0 1.199-.748 2.046-1.848 2.046zm11.269-4.015c-.341-.539-.979-.924-1.925-.924-1.551 0-2.695 1.155-2.695 2.871 0 1.826 1.144 2.871 2.695 2.871.946 0 1.551-.451 1.925-.968l.121.902h.781V2.3h-.902v2.948zm-1.837 4.015c-1.111 0-1.859-.847-1.859-2.068s.748-2.068 1.859-2.068c1.1 0 1.848.858 1.848 2.09 0 1.199-.748 2.046-1.848 2.046zm6.553.803c1.298 0 2.222-.825 2.442-1.947h-.913c-.187.726-.803 1.144-1.595 1.144-1.067 0-1.738-.748-1.771-1.815v-.077h4.356c.011-.132.022-.264.022-.385-.044-1.661-1.078-2.662-2.662-2.662-1.584 0-2.662 1.166-2.662 2.871 0 1.716 1.1 2.871 2.783 2.871zm-1.782-3.443c.088-.913.847-1.507 1.672-1.507.935 0 1.595.539 1.683 1.507h-3.355zm8.179-2.299c-.946 0-1.551.451-1.925.968l-.121-.902h-.781v7.81h.902V9.142c.341.539.979.924 1.925.924 1.551 0 2.695-1.155 2.695-2.871 0-1.826-1.144-2.871-2.695-2.871zm-.088 4.939c-1.1 0-1.848-.858-1.848-2.09 0-1.199.748-2.046 1.848-2.046 1.111 0 1.859.847 1.859 2.068s-.748 2.068-1.859 2.068zm6.399.803c1.639 0 2.783-1.166 2.783-2.871s-1.144-2.871-2.783-2.871-2.783 1.166-2.783 2.871 1.144 2.871 2.783 2.871zm0-.803c-1.111 0-1.859-.869-1.859-2.068s.748-2.068 1.859-2.068 1.859.869 1.859 2.068-.748 2.068-1.859 2.068zm3.565-1.111c.022 1.232 1.023 1.914 2.475 1.914 1.243 0 2.244-.649 2.244-1.694 0-1.243-1.023-1.485-2.299-1.639-.814-.099-1.408-.176-1.408-.792 0-.517.528-.847 1.309-.847.77 0 1.298.429 1.364 1.001h.924c-.088-1.166-1.012-1.76-2.288-1.771-1.265-.011-2.2.66-2.2 1.683 0 1.166 1.001 1.419 2.255 1.573.836.099 1.452.154 1.452.858 0 .517-.561.858-1.353.858-.935 0-1.518-.484-1.551-1.144h-.924zm6.182-4.708c.33 0 .583-.242.583-.583a.567.567 0 00-.583-.583.567.567 0 00-.583.583c0 .341.253.583.583.583zM258.825 10h.902V4.39h-.902V10zm2.556-1.463c0 .99.385 1.463 1.463 1.463h.979v-.825h-.891c-.484 0-.649-.176-.649-.649V5.215h1.452V4.39h-1.452V2.817h-.902V4.39h-1.012v.825h1.012v3.322zm2.992-.385c.022 1.232 1.023 1.914 2.475 1.914 1.243 0 2.244-.649 2.244-1.694 0-1.243-1.023-1.485-2.299-1.639-.814-.099-1.408-.176-1.408-.792 0-.517.528-.847 1.309-.847.77 0 1.298.429 1.364 1.001h.924c-.088-1.166-1.012-1.76-2.288-1.771-1.265-.011-2.2.66-2.2 1.683 0 1.166 1.001 1.419 2.255 1.573.836.099 1.452.154 1.452.858 0 .517-.561.858-1.353.858-.935 0-1.518-.484-1.551-1.144h-.924zm5.525 1.298c0 .374.264.616.627.616s.627-.242.627-.616-.264-.616-.627-.616-.627.242-.627.616z" fill="#000"/></svg>