<svg width="184" height="39" viewBox="0 0 184 39" fill="none" xmlns="http://www.w3.org/2000/svg"><path d="M.296 13h.954V2.038L5.966 13h.882l4.716-10.962V13h.954V.4h-1.224l-4.86 11.286L1.538.4H.296V13zm18.634.108c2.574 0 4.392-1.908 4.392-4.68 0-2.754-1.818-4.662-4.392-4.662-2.574 0-4.374 1.908-4.374 4.662 0 2.772 1.8 4.68 4.374 4.68zm0-.828c-2.034 0-3.438-1.584-3.438-3.852 0-2.25 1.404-3.852 3.438-3.852 2.034 0 3.438 1.602 3.438 3.852 0 2.268-1.404 3.852-3.438 3.852zm10.428-8.514c-1.674 0-2.754.864-3.276 2.052l-.144-1.944h-.792V13h.918V8.5c0-2.376 1.206-3.888 3.15-3.888 1.764 0 2.826 1.152 2.826 3.312V13h.918V7.888c0-2.88-1.53-4.122-3.6-4.122zm6.316 7.11c0 1.458.594 2.124 2.142 2.124h1.332v-.846h-1.26c-.954 0-1.296-.36-1.296-1.296V4.72h2.466v-.846h-2.466V1.318h-.918v2.556h-1.728v.846h1.728v6.156zm9.083-7.11c-1.71 0-2.772.954-3.294 2.268V.4h-.918V13h.918V8.5c0-2.376 1.206-3.888 3.15-3.888 1.746 0 2.826 1.152 2.826 3.312V13h.918V7.888c0-2.88-1.53-4.122-3.6-4.122zM50.407 13h.917V.4h-.918V13zm5.811 0l-.594 1.476c-.414 1.008-.576 1.278-1.512 1.278H52.96v.846h1.404c1.224 0 1.512-.468 2.088-1.908l4.374-10.818h-.99l-3.114 7.938-3.168-7.938h-.99L56.218 13zm14.672.108c2.07 0 3.528-1.188 3.888-3.042h-.972c-.306 1.35-1.404 2.214-2.916 2.214-1.998 0-3.384-1.566-3.384-3.834s1.368-3.87 3.384-3.87c1.53 0 2.61.864 2.934 2.232h.954c-.378-1.89-1.8-3.042-3.87-3.042-2.574 0-4.338 1.908-4.338 4.68 0 2.808 1.746 4.662 4.32 4.662zm13.7-.954c-.54 0-.81-.18-.81-.882V7.024c0-2.088-1.278-3.258-3.564-3.258-2.088 0-3.474 1.008-3.708 2.664h.918c.234-1.116 1.206-1.854 2.754-1.854 1.71 0 2.682.9 2.682 2.412v.792h-3.096c-2.34 0-3.6 1.008-3.6 2.718 0 1.62 1.278 2.61 3.222 2.61 1.854 0 2.952-.846 3.51-1.98v.324c-.036 1.08.414 1.548 1.494 1.548h.54v-.846h-.342zM82.862 9.31c0 1.746-1.242 3.006-3.402 3.006-1.458 0-2.358-.738-2.358-1.872 0-1.206.9-1.872 2.592-1.872h3.168v.738zm2.884.882c.072 1.89 1.602 2.916 3.888 2.916 1.962 0 3.546-.99 3.546-2.61 0-1.926-1.692-2.304-3.654-2.574-1.422-.198-2.682-.36-2.682-1.638 0-1.044 1.026-1.728 2.574-1.728 1.458 0 2.502.702 2.664 1.89h.936c-.162-1.782-1.62-2.682-3.6-2.682-2.034-.018-3.492 1.026-3.492 2.592 0 1.836 1.692 2.178 3.564 2.43 1.53.216 2.772.414 2.772 1.764 0 1.08-1.134 1.764-2.628 1.764-1.746 0-2.88-.81-2.952-2.124h-.936zm13.398-6.426c-1.71 0-2.772.954-3.294 2.268V.4h-.918V13h.918V8.5c0-2.376 1.206-3.888 3.15-3.888 1.746 0 2.826 1.152 2.826 3.312V13h.918V7.888c0-2.88-1.53-4.122-3.6-4.122zm14.91 0c-1.71 0-2.916.936-3.492 2.232V.4h-.918V13h.792l.144-2.07c.54 1.314 1.764 2.178 3.474 2.178 2.502 0 4.302-1.908 4.302-4.68 0-2.862-1.8-4.662-4.302-4.662zm-.072 8.514c-2.034 0-3.438-1.584-3.438-3.87 0-2.232 1.404-3.834 3.438-3.834 2.034 0 3.438 1.602 3.438 3.852 0 2.268-1.404 3.852-3.438 3.852zm14.22-.126c-.54 0-.81-.18-.81-.882V7.024c0-2.088-1.278-3.258-3.564-3.258-2.088 0-3.474 1.008-3.708 2.664h.918c.234-1.116 1.206-1.854 2.754-1.854 1.71 0 2.682.9 2.682 2.412v.792h-3.096c-2.34 0-3.6 1.008-3.6 2.718 0 1.62 1.278 2.61 3.222 2.61 1.854 0 2.952-.846 3.51-1.98v.324c-.036 1.08.414 1.548 1.494 1.548h.54v-.846h-.342zm-1.728-2.844c0 1.746-1.242 3.006-3.402 3.006-1.458 0-2.358-.738-2.358-1.872 0-1.206.9-1.872 2.592-1.872h3.168v.738zm7.135 3.798c2.07 0 3.528-1.188 3.888-3.042h-.972c-.306 1.35-1.404 2.214-2.916 2.214-1.998 0-3.384-1.566-3.384-3.834s1.368-3.87 3.384-3.87c1.53 0 2.61.864 2.934 2.232h.954c-.378-1.89-1.8-3.042-3.87-3.042-2.574 0-4.338 1.908-4.338 4.68 0 2.808 1.746 4.662 4.32 4.662zm5.672-.108h.918v-2.466l2.142-2.196L145.833 13h1.116l-3.978-5.328 3.672-3.798h-1.134l-5.31 5.472V.4h-.918V13zm15.925 0h.99l2.7-7.668L161.47 13h.99l3.24-9.126h-.936l-2.808 8.028-2.61-8.028h-.846l-2.754 8.028-2.664-8.028h-.972L155.206 13zm12.246-11.052c.36 0 .648-.27.648-.648a.634.634 0 00-.648-.648c-.36 0-.648.27-.648.648s.288.648.648.648zM166.984 13h.918V3.874h-.918V13zm3.76-2.124c0 1.458.594 2.124 2.142 2.124h1.332v-.846h-1.26c-.954 0-1.296-.36-1.296-1.296V4.72h2.466v-.846h-2.466V1.318h-.918v2.556h-1.728v.846h1.728v6.156zm9.083-7.11c-1.71 0-2.772.954-3.294 2.268V.4h-.918V13h.918V8.5c0-2.376 1.206-3.888 3.15-3.888 1.746 0 2.826 1.152 2.826 3.312V13h.918V7.888c0-2.88-1.53-4.122-3.6-4.122zm-175.535 25c-1.674 0-2.754.864-3.276 2.052l-.144-1.944H.08V38h.918v-4.5c0-2.376 1.206-3.888 3.15-3.888 1.764 0 2.826 1.152 2.826 3.312V38h.918v-5.112c0-2.88-1.53-4.122-3.6-4.122zm9.523 9.342c2.574 0 4.392-1.908 4.392-4.68 0-2.754-1.818-4.662-4.392-4.662-2.574 0-4.374 1.908-4.374 4.662 0 2.772 1.8 4.68 4.374 4.68zm0-.828c-2.034 0-3.438-1.584-3.438-3.852 0-2.25 1.404-3.852 3.438-3.852 2.034 0 3.438 1.602 3.438 3.852 0 2.268-1.404 3.852-3.438 3.852zm21.256-8.514c-1.674 0-2.754.936-3.276 2.286-.432-1.512-1.566-2.286-3.006-2.286-1.566 0-2.502.918-2.97 2.052l-.144-1.944h-.792V38h.918v-4.644c0-2.232 1.08-3.744 2.826-3.744 1.584 0 2.574 1.116 2.574 3.222V38h.918v-4.968c.054-2.088 1.134-3.42 2.844-3.42 1.584 0 2.538 1.062 2.538 3.132V38h.936v-5.292c0-2.754-1.458-3.942-3.366-3.942zm5.872-1.818c.36 0 .648-.27.648-.648a.634.634 0 00-.648-.648c-.36 0-.648.27-.648.648s.288.648.648.648zM40.474 38h.917v-9.126h-.918V38zm7.288-9.234c-1.674 0-2.754.864-3.276 2.052l-.144-1.944h-.792V38h.918v-4.5c0-2.376 1.206-3.888 3.15-3.888 1.764 0 2.826 1.152 2.826 3.312V38h.918v-5.112c0-2.88-1.53-4.122-3.6-4.122zm6.1-1.818c.36 0 .648-.27.648-.648a.634.634 0 00-.649-.648c-.36 0-.648.27-.648.648s.288.648.648.648zM53.394 38h.917v-9.126h-.917V38zm13.264-9.234c-1.674 0-2.754.936-3.276 2.286-.432-1.512-1.566-2.286-3.006-2.286-1.566 0-2.502.918-2.97 2.052l-.144-1.944h-.792V38h.918v-4.644c0-2.232 1.08-3.744 2.826-3.744 1.584 0 2.574 1.116 2.574 3.222V38h.918v-4.968c.054-2.088 1.134-3.42 2.844-3.42 1.584 0 2.538 1.062 2.538 3.132V38h.936v-5.292c0-2.754-1.458-3.942-3.366-3.942zm12.027 4.59c0 2.394-1.188 3.906-3.078 3.906-1.692 0-2.736-1.152-2.736-3.33v-5.058h-.918v5.112c0 2.862 1.494 4.122 3.51 4.122 1.62 0 2.682-.864 3.204-2.034L78.794 38h.81v-9.126h-.918v4.482zm13.267-4.59c-1.674 0-2.754.936-3.276 2.286-.431-1.512-1.566-2.286-3.006-2.286-1.566 0-2.502.918-2.97 2.052l-.143-1.944h-.793V38h.918v-4.644c0-2.232 1.08-3.744 2.826-3.744 1.585 0 2.575 1.116 2.575 3.222V38H89v-4.968c.054-2.088 1.134-3.42 2.844-3.42 1.585 0 2.538 1.062 2.538 3.132V38h.937v-5.292c0-2.754-1.458-3.942-3.366-3.942zm10.94 7.11c0 1.458.594 2.124 2.142 2.124h1.332v-.846h-1.26c-.954 0-1.296-.36-1.296-1.296V29.72h2.466v-.846h-2.466v-2.556h-.918v2.556h-1.728v.846h1.728v6.156zm8.597-7.002c-1.692 0-2.412.81-2.79 1.818l-.144-1.818h-.792V38h.918v-4.626c0-1.854.486-3.618 2.628-3.618h.666v-.882h-.486zm9.487 8.28c-.54 0-.81-.18-.81-.882v-4.248c0-2.088-1.278-3.258-3.564-3.258-2.088 0-3.474 1.008-3.708 2.664h.918c.234-1.116 1.206-1.854 2.754-1.854 1.71 0 2.682.9 2.682 2.412v.792h-3.096c-2.34 0-3.6 1.008-3.6 2.718 0 1.62 1.278 2.61 3.222 2.61 1.854 0 2.952-.846 3.51-1.98v.324c-.036 1.08.414 1.548 1.494 1.548h.54v-.846h-.342zm-1.728-2.844c0 1.746-1.242 3.006-3.402 3.006-1.458 0-2.358-.738-2.358-1.872 0-1.206.9-1.872 2.592-1.872h3.168v.738zm10.609-3.384c-.558-1.296-1.782-2.16-3.492-2.16-2.502 0-4.302 1.908-4.302 4.662 0 2.88 1.8 4.68 4.302 4.68 1.71 0 2.898-.918 3.474-2.196l.144 2.088h.792V25.4h-.918v5.526zm-3.42 6.354c-2.034 0-3.438-1.584-3.438-3.852 0-2.25 1.404-3.852 3.438-3.852 2.034 0 3.438 1.602 3.438 3.87 0 2.25-1.404 3.834-3.438 3.834zm10.529.828c1.998 0 3.528-1.296 3.924-3.132h-.936c-.36 1.422-1.566 2.304-3.06 2.304-2.034 0-3.312-1.548-3.348-3.672v-.162h7.452c0-.126.018-.27.018-.378-.09-2.718-1.764-4.302-4.212-4.302-2.502 0-4.212 1.908-4.212 4.608 0 2.862 1.782 4.734 4.374 4.734zm-3.348-5.436c.144-1.854 1.53-3.096 3.204-3.096 1.782 0 3.06 1.098 3.204 3.096h-6.408zm13.651 2.52c.072 1.89 1.602 2.916 3.888 2.916 1.962 0 3.546-.99 3.546-2.61 0-1.926-1.692-2.304-3.654-2.574-1.422-.198-2.682-.36-2.682-1.638 0-1.044 1.026-1.728 2.574-1.728 1.458 0 2.502.702 2.664 1.89h.936c-.162-1.782-1.62-2.682-3.6-2.682-2.034-.018-3.492 1.026-3.492 2.592 0 1.836 1.692 2.178 3.564 2.43 1.53.216 2.772.414 2.772 1.764 0 1.08-1.134 1.764-2.628 1.764-1.746 0-2.88-.81-2.952-2.124h-.936zm9.653-8.244c.36 0 .648-.27.648-.648a.634.634 0 00-.648-.648c-.36 0-.648.27-.648.648s.288.648.648.648zM156.455 38h.918v-9.126h-.918V38zm2.644-8.28h5.868l-6.12 7.56V38h7.596v-.846h-6.39l6.138-7.578v-.702h-7.092v.846zm12.304 8.388c1.998 0 3.528-1.296 3.924-3.132h-.936c-.36 1.422-1.566 2.304-3.06 2.304-2.034 0-3.312-1.548-3.348-3.672v-.162h7.452c0-.126.018-.27.018-.378-.09-2.718-1.764-4.302-4.212-4.302-2.502 0-4.212 1.908-4.212 4.608 0 2.862 1.782 4.734 4.374 4.734zm-3.348-5.436c.144-1.854 1.53-3.096 3.204-3.096 1.782 0 3.06 1.098 3.204 3.096h-6.408z" fill="#000"/></svg>