<svg width="299" height="45" viewBox="0 0 299 45" fill="none" xmlns="http://www.w3.org/2000/svg"><path d="M.512 15h1.134V.3H.512V15zM9.337 4.227c-1.953 0-3.213 1.008-3.822 2.394l-.168-2.268h-.924V15h1.071V9.75c0-2.772 1.407-4.536 3.675-4.536 2.058 0 3.297 1.344 3.297 3.864V15h1.071V9.036c0-3.36-1.785-4.809-4.2-4.809zm7.369 8.295c0 1.701.692 2.478 2.498 2.478h1.555v-.987h-1.47c-1.114 0-1.513-.42-1.513-1.512V5.34h2.878v-.987h-2.878V1.371h-1.07v2.982H14.69v.987h2.016v7.182zm10.029-8.169c-1.974 0-2.814.945-3.255 2.121l-.168-2.121h-.924V15h1.07V9.603c0-2.163.568-4.221 3.067-4.221h.777V4.353h-.567zm6.1 10.773c3.002 0 5.123-2.226 5.123-5.46 0-3.213-2.12-5.439-5.124-5.439-3.003 0-5.103 2.226-5.103 5.439 0 3.234 2.1 5.46 5.103 5.46zm0-.966c-2.374 0-4.012-1.848-4.012-4.494 0-2.625 1.638-4.494 4.011-4.494s4.011 1.869 4.011 4.494c0 2.646-1.638 4.494-4.01 4.494zM48.78 6.747c-.65-1.512-2.079-2.52-4.074-2.52-2.919 0-5.019 2.226-5.019 5.439 0 3.36 2.1 5.46 5.02 5.46 1.994 0 3.38-1.071 4.052-2.562L48.927 15h.924V.3h-1.07v6.447zm-3.99 7.413c-2.373 0-4.01-1.848-4.01-4.494 0-2.625 1.637-4.494 4.01-4.494 2.373 0 4.011 1.869 4.011 4.515 0 2.625-1.638 4.473-4.01 4.473zm15.308-4.578c0 2.793-1.386 4.557-3.59 4.557-1.975 0-3.193-1.344-3.193-3.885V4.353h-1.07v5.964c0 3.339 1.742 4.809 4.094 4.809 1.89 0 3.13-1.008 3.738-2.373L60.224 15h.945V4.353H60.1v5.229zm8.234 5.544c2.415 0 4.116-1.386 4.536-3.549h-1.134c-.357 1.575-1.638 2.583-3.402 2.583-2.331 0-3.948-1.827-3.948-4.473s1.596-4.515 3.948-4.515c1.785 0 3.045 1.008 3.423 2.604h1.113c-.441-2.205-2.1-3.549-4.515-3.549-3.003 0-5.061 2.226-5.061 5.46 0 3.276 2.037 5.439 5.04 5.439zm7.164-13.02a.74.74 0 00.755-.756.74.74 0 00-.755-.756.74.74 0 00-.756.756.74.74 0 00.756.756zM74.95 15h1.07V4.353h-1.07V15zm8.502-10.773c-1.953 0-3.213 1.008-3.822 2.394l-.168-2.268h-.924V15h1.071V9.75c0-2.772 1.407-4.536 3.675-4.536 2.058 0 3.297 1.344 3.297 3.864V15h1.071V9.036c0-3.36-1.785-4.809-4.2-4.809zm15.244 2.604c-.651-1.575-2.08-2.604-4.053-2.604-2.92 0-5.02 2.205-5.02 5.439 0 3.36 2.1 5.46 5.02 5.46 1.995 0 3.402-1.05 4.074-2.709v1.89c0 2.835-1.344 4.053-3.906 4.053-1.995 0-3.381-.903-3.717-2.52H89.98c.336 2.268 2.163 3.486 4.746 3.486 3.444 0 5.06-1.638 5.06-4.977V4.353h-.923l-.168 2.478zm-3.97 7.329c-2.372 0-4.01-1.848-4.01-4.494s1.638-4.494 4.01-4.494c2.374 0 4.012 1.848 4.012 4.515 0 2.625-1.638 4.473-4.011 4.473zm17.945.966c3.003 0 5.124-2.226 5.124-5.46 0-3.213-2.121-5.439-5.124-5.439-3.003 0-5.103 2.226-5.103 5.439 0 3.234 2.1 5.46 5.103 5.46zm0-.966c-2.373 0-4.011-1.848-4.011-4.494 0-2.625 1.638-4.494 4.011-4.494s4.011 1.869 4.011 4.494c0 2.646-1.638 4.494-4.011 4.494zm14.98-4.578c0 2.793-1.386 4.557-3.591 4.557-1.974 0-3.192-1.344-3.192-3.885V4.353h-1.071v5.964c0 3.339 1.743 4.809 4.095 4.809 1.89 0 3.129-1.008 3.738-2.373l.147 2.247h.945V4.353h-1.071v5.229zm7.939-5.229c-1.974 0-2.814.945-3.255 2.121l-.168-2.121h-.924V15h1.071V9.603c0-2.163.567-4.221 3.066-4.221h.777V4.353h-.567zM147.08 15h1.344l3.801-12.831L156.026 15h1.344L161.864.3h-1.176l-3.969 13.209L152.855.3H151.7l-3.969 13.209L143.804.3h-1.197L147.08 15zm20.326.126c2.331 0 4.116-1.512 4.578-3.654h-1.092c-.42 1.659-1.827 2.688-3.57 2.688-2.373 0-3.864-1.806-3.906-4.284v-.189h8.694c0-.147.021-.315.021-.441-.105-3.171-2.058-5.019-4.914-5.019-2.919 0-4.914 2.226-4.914 5.376 0 3.339 2.079 5.523 5.103 5.523zM163.5 8.784c.168-2.163 1.785-3.612 3.738-3.612 2.079 0 3.57 1.281 3.738 3.612H163.5zM174.248 15h1.071V.3h-1.071V15zm8.23.126c2.415 0 4.116-1.386 4.536-3.549h-1.134c-.357 1.575-1.638 2.583-3.402 2.583-2.331 0-3.948-1.827-3.948-4.473s1.596-4.515 3.948-4.515c1.785 0 3.045 1.008 3.423 2.604h1.113c-.441-2.205-2.1-3.549-4.515-3.549-3.003 0-5.061 2.226-5.061 5.46 0 3.276 2.037 5.439 5.04 5.439zm11.322 0c3.003 0 5.124-2.226 5.124-5.46 0-3.213-2.121-5.439-5.124-5.439-3.003 0-5.103 2.226-5.103 5.439 0 3.234 2.1 5.46 5.103 5.46zm0-.966c-2.373 0-4.011-1.848-4.011-4.494 0-2.625 1.638-4.494 4.011-4.494s4.011 1.869 4.011 4.494c0 2.646-1.638 4.494-4.011 4.494zm19.138-9.933c-1.953 0-3.213 1.092-3.822 2.667-.504-1.764-1.827-2.667-3.507-2.667-1.827 0-2.919 1.071-3.465 2.394l-.168-2.268h-.924V15h1.071V9.582c0-2.604 1.26-4.368 3.297-4.368 1.848 0 3.003 1.302 3.003 3.759V15h1.071V9.204c.063-2.436 1.323-3.99 3.318-3.99 1.848 0 2.961 1.239 2.961 3.654V15h1.092V8.826c0-3.213-1.701-4.599-3.927-4.599zm10.844 10.899c2.331 0 4.116-1.512 4.578-3.654h-1.092c-.42 1.659-1.827 2.688-3.57 2.688-2.373 0-3.864-1.806-3.906-4.284v-.189h8.694c0-.147.021-.315.021-.441-.105-3.171-2.058-5.019-4.914-5.019-2.919 0-4.914 2.226-4.914 5.376 0 3.339 2.079 5.523 5.103 5.523zm-3.906-6.342c.168-2.163 1.785-3.612 3.738-3.612 2.079 0 3.57 1.281 3.738 3.612h-7.476zM236.536 15h1.134V8.868h4.221L245.356 15h1.281l-3.57-6.342c2.163-.336 3.528-1.911 3.528-4.074 0-2.604-1.827-4.284-4.62-4.284h-5.439V15zm5.376-13.65c2.163 0 3.528 1.26 3.528 3.234 0 1.953-1.386 3.234-3.549 3.234h-4.221V1.35h4.242zm10.971 13.776c2.331 0 4.116-1.512 4.578-3.654h-1.092c-.42 1.659-1.827 2.688-3.57 2.688-2.373 0-3.864-1.806-3.906-4.284v-.189h8.694c0-.147.021-.315.021-.441-.105-3.171-2.058-5.019-4.914-5.019-2.919 0-4.914 2.226-4.914 5.376 0 3.339 2.079 5.523 5.103 5.523zm-3.906-6.342c.168-2.163 1.785-3.612 3.738-3.612 2.079 0 3.57 1.281 3.738 3.612h-7.476zm15.893-4.557c-1.995 0-3.402 1.092-4.074 2.604V.3h-1.071V15h.924l.168-2.415c.63 1.533 2.058 2.541 4.053 2.541 2.919 0 5.019-2.226 5.019-5.46 0-3.339-2.1-5.439-5.019-5.439zm-.084 9.933c-2.373 0-4.011-1.848-4.011-4.515 0-2.604 1.638-4.473 4.011-4.473s4.011 1.869 4.011 4.494c0 2.646-1.638 4.494-4.011 4.494zm16.589-.147c-.63 0-.945-.21-.945-1.029V8.028c0-2.436-1.491-3.801-4.158-3.801-2.436 0-4.053 1.176-4.326 3.108h1.071c.273-1.302 1.407-2.163 3.213-2.163 1.995 0 3.129 1.05 3.129 2.814v.924h-3.612c-2.73 0-4.2 1.176-4.2 3.171 0 1.89 1.491 3.045 3.759 3.045 2.163 0 3.444-.987 4.095-2.31v.378c-.042 1.26.483 1.806 1.743 1.806h.63v-.987h-.399zm-2.016-3.318c0 2.037-1.449 3.507-3.969 3.507-1.701 0-2.751-.861-2.751-2.184 0-1.407 1.05-2.184 3.024-2.184h3.696v.861zm4.645 1.827c0 1.701.693 2.478 2.499 2.478h1.554v-.987h-1.47c-1.113 0-1.512-.42-1.512-1.512V5.34h2.877v-.987h-2.877V1.371h-1.071v2.982h-2.016v.987h2.016v7.182zm10.059 2.604c2.331 0 4.116-1.512 4.578-3.654h-1.092c-.42 1.659-1.827 2.688-3.57 2.688-2.373 0-3.864-1.806-3.906-4.284v-.189h8.694c0-.147.021-.315.021-.441-.105-3.171-2.058-5.019-4.914-5.019-2.919 0-4.914 2.226-4.914 5.376 0 3.339 2.079 5.523 5.103 5.523zm-3.906-6.342c.168-2.163 1.785-3.612 3.738-3.612 2.079 0 3.57 1.281 3.738 3.612h-7.476zM1.625 44V31.358L10.319 44h1.071V29.3h-1.113v12.642L1.583 29.3H.512V44h1.113zm17.243.126c3.003 0 5.124-2.226 5.124-5.46 0-3.213-2.12-5.439-5.124-5.439-3.003 0-5.103 2.226-5.103 5.439 0 3.234 2.1 5.46 5.103 5.46zm0-.966c-2.373 0-4.01-1.848-4.01-4.494 0-2.625 1.637-4.494 4.01-4.494 2.373 0 4.011 1.869 4.011 4.494 0 2.646-1.638 4.494-4.01 4.494zm11.695-8.82h2.015V44h1.072v-9.66h3.192v-.987H33.65v-1.596c0-1.05.398-1.47 1.47-1.47h1.742V29.3h-1.785c-1.785 0-2.498.777-2.498 2.478v1.575h-2.017v.987zm11.725 9.786c2.331 0 4.116-1.512 4.578-3.654h-1.092c-.42 1.659-1.827 2.688-3.57 2.688-2.373 0-3.864-1.806-3.906-4.284v-.189h8.694c0-.147.021-.315.021-.441-.105-3.171-2.058-5.019-4.914-5.019-2.919 0-4.914 2.226-4.914 5.376 0 3.339 2.08 5.523 5.103 5.523zm-3.906-6.342c.168-2.163 1.785-3.612 3.738-3.612 2.08 0 3.57 1.281 3.738 3.612h-7.476zm15.452 6.342c2.331 0 4.116-1.512 4.578-3.654H57.32c-.42 1.659-1.827 2.688-3.57 2.688-2.373 0-3.864-1.806-3.906-4.284v-.189h8.694c0-.147.021-.315.021-.441-.105-3.171-2.058-5.019-4.914-5.019-2.919 0-4.914 2.226-4.914 5.376 0 3.339 2.08 5.523 5.103 5.523zm-3.906-6.342c.168-2.163 1.785-3.612 3.738-3.612 2.08 0 3.57 1.281 3.738 3.612h-7.476zm10.245 2.94c.084 2.205 1.868 3.402 4.535 3.402 2.29 0 4.138-1.155 4.138-3.045 0-2.247-1.975-2.688-4.264-3.003-1.658-.231-3.128-.42-3.128-1.911 0-1.218 1.197-2.016 3.003-2.016 1.7 0 2.919.819 3.108 2.205h1.091c-.189-2.079-1.89-3.129-4.2-3.129-2.373-.021-4.074 1.197-4.074 3.024 0 2.142 1.974 2.541 4.158 2.835 1.785.252 3.234.483 3.234 2.058 0 1.26-1.323 2.058-3.066 2.058-2.036 0-3.36-.945-3.444-2.478h-1.092zM75.33 34.34h2.016V44h1.071v-9.66h3.192v-.987h-3.192v-1.596c0-1.05.4-1.47 1.47-1.47h1.743V29.3h-1.785c-1.785 0-2.499.777-2.499 2.478v1.575h-2.016v.987zm11.726 9.786c3.003 0 5.124-2.226 5.124-5.46 0-3.213-2.121-5.439-5.124-5.439-3.003 0-5.103 2.226-5.103 5.439 0 3.234 2.1 5.46 5.103 5.46zm0-.966c-2.373 0-4.011-1.848-4.011-4.494 0-2.625 1.638-4.494 4.01-4.494 2.374 0 4.012 1.869 4.012 4.494 0 2.646-1.638 4.494-4.011 4.494zm11.599-9.807c-1.974 0-2.814.945-3.255 2.121l-.168-2.121h-.924V44h1.07v-5.397c0-2.163.568-4.221 3.067-4.221h.777v-1.029h-.567zm10.082-2.184c0 .672-.315 1.134-.966 1.134h-2.52v.987h2.52c.441 0 .756-.126.945-.357V44h1.092V29.3h-1.071v1.869zM111.803 44h9.807v-1.008h-8.295l4.893-4.41c1.701-1.533 3.213-2.94 3.213-5.166 0-2.583-1.785-4.242-4.767-4.242-2.856 0-4.704 1.848-4.704 4.62v.357h1.092v-.294c0-2.289 1.407-3.696 3.612-3.696 2.226 0 3.654 1.239 3.654 3.318 0 1.848-1.407 3.129-2.793 4.389l-5.712 5.187V44zm29.276-10.773c-1.953 0-3.213 1.092-3.822 2.667-.504-1.764-1.827-2.667-3.507-2.667-1.827 0-2.919 1.071-3.465 2.394l-.168-2.268h-.924V44h1.071v-5.418c0-2.604 1.26-4.368 3.297-4.368 1.848 0 3.003 1.302 3.003 3.759V44h1.071v-5.796c.063-2.436 1.323-3.99 3.318-3.99 1.848 0 2.961 1.239 2.961 3.654V44h1.092v-6.174c0-3.213-1.701-4.599-3.927-4.599zm10.844 10.899c3.003 0 5.124-2.226 5.124-5.46 0-3.213-2.121-5.439-5.124-5.439-3.003 0-5.103 2.226-5.103 5.439 0 3.234 2.1 5.46 5.103 5.46zm0-.966c-2.373 0-4.011-1.848-4.011-4.494 0-2.625 1.638-4.494 4.011-4.494s4.011 1.869 4.011 4.494c0 2.646-1.638 4.494-4.011 4.494zm12.166-9.933c-1.953 0-3.213 1.008-3.822 2.394l-.168-2.268h-.924V44h1.071v-5.25c0-2.772 1.407-4.536 3.675-4.536 2.058 0 3.297 1.344 3.297 3.864V44h1.071v-5.964c0-3.36-1.785-4.809-4.2-4.809zm7.368 8.295c0 1.701.693 2.478 2.499 2.478h1.554v-.987h-1.47c-1.113 0-1.512-.42-1.512-1.512V34.34h2.877v-.987h-2.877v-2.982h-1.071v2.982h-2.016v.987h2.016v7.182zm10.597-8.295c-1.995 0-3.234 1.113-3.843 2.646V29.3h-1.071V44h1.071v-5.25c0-2.772 1.407-4.536 3.675-4.536 2.037 0 3.297 1.344 3.297 3.864V44h1.071v-5.964c0-3.36-1.785-4.809-4.2-4.809zm6.108 7.497c.084 2.205 1.869 3.402 4.536 3.402 2.289 0 4.137-1.155 4.137-3.045 0-2.247-1.974-2.688-4.263-3.003-1.659-.231-3.129-.42-3.129-1.911 0-1.218 1.197-2.016 3.003-2.016 1.701 0 2.919.819 3.108 2.205h1.092c-.189-2.079-1.89-3.129-4.2-3.129-2.373-.021-4.074 1.197-4.074 3.024 0 2.142 1.974 2.541 4.158 2.835 1.785.252 3.234.483 3.234 2.058 0 1.26-1.323 2.058-3.066 2.058-2.037 0-3.36-.945-3.444-2.478h-1.092z" fill="#000"/></svg>