<svg width="127" height="40" viewBox="0 0 127 40" fill="none" xmlns="http://www.w3.org/2000/svg"><path d="M.663.95h7.514L.425 11.32V12h9.146v-.85H1.649L9.418.78V.1H.663v.85zm13.578 11.152c1.887 0 3.332-1.224 3.706-2.958h-.884c-.34 1.343-1.479 2.176-2.89 2.176-1.92 0-3.128-1.462-3.162-3.468v-.153h7.038c0-.119.017-.255.017-.357-.085-2.567-1.666-4.063-3.978-4.063-2.363 0-3.978 1.802-3.978 4.352 0 2.703 1.683 4.471 4.131 4.471zM11.08 6.968c.136-1.751 1.445-2.924 3.026-2.924 1.683 0 2.89 1.037 3.026 2.924H11.08zM23.3 3.381c-1.598 0-2.278.765-2.635 1.717l-.136-1.717h-.748V12h.867V7.631c0-1.751.459-3.417 2.482-3.417h.629v-.833h-.46zm4.937 8.721c2.431 0 4.148-1.802 4.148-4.42 0-2.601-1.717-4.403-4.148-4.403-2.43 0-4.13 1.802-4.13 4.403 0 2.618 1.7 4.42 4.13 4.42zm0-.782c-1.92 0-3.247-1.496-3.247-3.638 0-2.125 1.326-3.638 3.247-3.638 1.921 0 3.247 1.513 3.247 3.638 0 2.142-1.326 3.638-3.247 3.638zm14.21.782c1.955 0 3.332-1.122 3.672-2.873H45.2c-.29 1.275-1.326 2.091-2.754 2.091-1.887 0-3.196-1.479-3.196-3.621s1.292-3.655 3.196-3.655c1.445 0 2.465.816 2.77 2.108h.902c-.357-1.785-1.7-2.873-3.655-2.873-2.431 0-4.097 1.802-4.097 4.42 0 2.652 1.649 4.403 4.08 4.403zm9.165 0c2.431 0 4.148-1.802 4.148-4.42 0-2.601-1.717-4.403-4.148-4.403-2.43 0-4.13 1.802-4.13 4.403 0 2.618 1.7 4.42 4.13 4.42zm0-.782c-1.92 0-3.247-1.496-3.247-3.638 0-2.125 1.326-3.638 3.247-3.638 1.921 0 3.247 1.513 3.247 3.638 0 2.142-1.326 3.638-3.247 3.638zm15.493-8.041c-1.581 0-2.601.884-3.094 2.159-.408-1.428-1.48-2.159-2.84-2.159-1.478 0-2.362.867-2.804 1.938l-.136-1.836h-.748V12h.867V7.614c0-2.108 1.02-3.536 2.669-3.536 1.496 0 2.43 1.054 2.43 3.043V12h.868V7.308c.05-1.972 1.07-3.23 2.686-3.23 1.496 0 2.397 1.003 2.397 2.958V12h.884V7.002c0-2.601-1.377-3.723-3.18-3.723zm14.725 0c-1.58 0-2.6.884-3.093 2.159-.409-1.428-1.48-2.159-2.84-2.159-1.478 0-2.362.867-2.805 1.938l-.135-1.836h-.749V12h.868V7.614c0-2.108 1.02-3.536 2.668-3.536 1.497 0 2.431 1.054 2.431 3.043V12h.867V7.308c.052-1.972 1.072-3.23 2.687-3.23 1.496 0 2.397 1.003 2.397 2.958V12h.883V7.002c0-2.601-1.376-3.723-3.178-3.723zm5.546-1.717c.34 0 .612-.255.612-.612a.599.599 0 00-.612-.612.599.599 0 00-.612.612c0 .357.272.612.612.612zM86.933 12h.867V3.381h-.867V12zm2.514-2.652c.068 1.785 1.513 2.754 3.672 2.754 1.853 0 3.35-.935 3.35-2.465 0-1.819-1.599-2.176-3.452-2.431-1.343-.187-2.533-.34-2.533-1.547 0-.986.97-1.632 2.431-1.632 1.377 0 2.363.663 2.516 1.785h.884c-.153-1.683-1.53-2.533-3.4-2.533-1.92-.017-3.298.969-3.298 2.448 0 1.734 1.598 2.057 3.366 2.295 1.445.204 2.618.391 2.618 1.666 0 1.02-1.07 1.666-2.482 1.666-1.649 0-2.72-.765-2.788-2.006h-.884zm8.118 0c.069 1.785 1.514 2.754 3.673 2.754 1.853 0 3.349-.935 3.349-2.465 0-1.819-1.598-2.176-3.451-2.431-1.343-.187-2.533-.34-2.533-1.547 0-.986.969-1.632 2.431-1.632 1.377 0 2.363.663 2.516 1.785h.884c-.153-1.683-1.53-2.533-3.4-2.533-1.922-.017-3.299.969-3.299 2.448 0 1.734 1.599 2.057 3.367 2.295 1.445.204 2.618.391 2.618 1.666 0 1.02-1.071 1.666-2.482 1.666-1.65 0-2.72-.765-2.788-2.006h-.885zm9.118-7.786c.34 0 .612-.255.612-.612a.599.599 0 00-.612-.612.599.599 0 00-.612.612c0 .357.272.612.612.612zM106.241 12h.867V3.381h-.867V12zm6.713.102c2.431 0 4.148-1.802 4.148-4.42 0-2.601-1.717-4.403-4.148-4.403-2.431 0-4.131 1.802-4.131 4.403 0 2.618 1.7 4.42 4.131 4.42zm0-.782c-1.921 0-3.247-1.496-3.247-3.638 0-2.125 1.326-3.638 3.247-3.638 1.921 0 3.247 1.513 3.247 3.638 0 2.142-1.326 3.638-3.247 3.638zm9.849-8.041c-1.581 0-2.601.816-3.094 1.938l-.136-1.836h-.748V12h.867V7.75c0-2.244 1.139-3.672 2.975-3.672 1.666 0 2.669 1.088 2.669 3.128V12h.867V7.172c0-2.72-1.445-3.893-3.4-3.893zM4.828 36.102c2.431 0 4.148-1.802 4.148-4.42 0-2.601-1.717-4.403-4.148-4.403-2.431 0-4.131 1.802-4.131 4.403 0 2.618 1.7 4.42 4.131 4.42zm0-.782c-1.921 0-3.247-1.496-3.247-3.638 0-2.125 1.326-3.638 3.247-3.638 1.921 0 3.247 1.513 3.247 3.638 0 2.142-1.326 3.638-3.247 3.638zm9.849-8.041c-1.581 0-2.601.816-3.094 1.938l-.136-1.836h-.748V36h.867v-4.25c0-2.244 1.139-3.672 2.975-3.672 1.666 0 2.669 1.088 2.669 3.128V36h.867v-4.828c0-2.72-1.445-3.893-3.4-3.893zm15.29 2.584c1.377-.238 2.38-1.326 2.38-2.771 0-1.819-1.513-3.094-3.825-3.094-2.312 0-3.825 1.275-3.825 3.094 0 1.462 1.003 2.533 2.38 2.771-1.581.289-2.737 1.394-2.737 3.026 0 1.87 1.632 3.213 4.182 3.213 2.55 0 4.182-1.343 4.182-3.213 0-1.649-1.156-2.754-2.737-3.026zm-4.37-2.771c0-1.377 1.174-2.329 2.925-2.329 1.75 0 2.924.952 2.924 2.329 0 1.377-1.19 2.329-2.924 2.329s-2.924-.952-2.924-2.329zm2.925 8.245c-1.921 0-3.264-1.037-3.264-2.516 0-1.462 1.326-2.516 3.264-2.516 1.92 0 3.264 1.054 3.264 2.516 0 1.479-1.343 2.516-3.264 2.516zm5.201-2.465h6.358V36h.884v-3.128h1.955v-.816h-1.955V24.1h-.986l-6.256 7.973v.799zm6.358-7.667v6.851h-5.355l5.355-6.851zm7.097 5.542H44.22v.731h2.958v3.111h.799v-3.111h2.975v-.731h-2.975v-3.111h-.8v3.111zM57.902 36h.918v-5.491h5.134v-.85H58.82V24.95h6.154v-.85h-7.072V36zm7.781 0h1.071l3.638-5.389L74.064 36h1.088l-4.148-6.154 3.893-5.746h-1.07l-3.4 5.066-3.4-5.066h-1.089l3.91 5.814L65.683 36zm19.555-8.721c-1.615 0-2.737.867-3.281 2.074l-.136-1.972h-.748V39.4h.867v-5.389c.493 1.258 1.666 2.091 3.298 2.091 2.363 0 4.063-1.802 4.063-4.42 0-2.703-1.7-4.403-4.063-4.403zm-.068 8.041c-1.921 0-3.247-1.496-3.247-3.655 0-2.108 1.326-3.621 3.247-3.621 1.92 0 3.247 1.513 3.247 3.638 0 2.142-1.326 3.638-3.247 3.638zm13.43-.119c-.51 0-.766-.17-.766-.833v-4.012c0-1.972-1.207-3.077-3.366-3.077-1.972 0-3.28.952-3.502 2.516h.867c.221-1.054 1.14-1.751 2.601-1.751 1.615 0 2.533.85 2.533 2.278v.748h-2.924c-2.21 0-3.4.952-3.4 2.567 0 1.53 1.207 2.465 3.043 2.465 1.751 0 2.788-.799 3.315-1.87v.306c-.034 1.02.391 1.462 1.411 1.462h.51v-.799H98.6zm-1.633-2.686c0 1.649-1.173 2.839-3.213 2.839-1.377 0-2.227-.697-2.227-1.768 0-1.139.85-1.768 2.448-1.768h2.992v.697zm3.557-6.953c.34 0 .612-.255.612-.612a.599.599 0 00-.612-.612.6.6 0 00-.612.612.6.6 0 00.612.612zM100.082 36h.867v-8.619h-.867V36zm6.424-8.619c-1.598 0-2.278.765-2.635 1.717l-.136-1.717h-.748V36h.867v-4.369c0-1.751.459-3.417 2.482-3.417h.629v-.833h-.459zm1.137 5.967c.068 1.785 1.513 2.754 3.672 2.754 1.853 0 3.349-.935 3.349-2.465 0-1.819-1.598-2.176-3.451-2.431-1.343-.187-2.533-.34-2.533-1.547 0-.986.969-1.632 2.431-1.632 1.377 0 2.363.663 2.516 1.785h.884c-.153-1.683-1.53-2.533-3.4-2.533-1.921-.017-3.298.969-3.298 2.448 0 1.734 1.598 2.057 3.366 2.295 1.445.204 2.618.391 2.618 1.666 0 1.02-1.071 1.666-2.482 1.666-1.649 0-2.72-.765-2.788-2.006h-.884z" fill="#000"/></svg>