<svg width="127" height="10" viewBox="0 0 127 10" fill="none" xmlns="http://www.w3.org/2000/svg"><path d="M2.527 5.04V7.5h1.092V5.04L6.1.85H4.873L3.079 3.89 1.33.85H.048l2.479 4.19zm5.582 2.517c1.482 0 2.48-.998 2.48-2.489 0-1.482-.998-2.489-2.48-2.489S5.63 3.586 5.63 5.068c0 1.492.998 2.489 2.48 2.489zm0-.874c-.864 0-1.425-.675-1.425-1.615s.56-1.615 1.425-1.615 1.435.675 1.435 1.615-.57 1.615-1.435 1.615zm6.64-1.615c0 1.007-.476 1.596-1.255 1.596-.75 0-1.13-.484-1.13-1.434V2.635h-1.026v2.707c0 1.663.883 2.214 1.919 2.214.75 0 1.197-.304 1.5-.675l.115.618h.902V2.636h-1.026v2.432zm8.913 1.539c-.21 0-.314-.067-.314-.314V4.346c0-1.15-.74-1.767-2.033-1.767-1.225 0-2.042.589-2.147 1.539h1.007c.076-.428.485-.713 1.093-.713.674 0 1.064.333 1.064.874v.295h-1.226c-1.358 0-2.08.56-2.08 1.558 0 .903.74 1.425 1.805 1.425.788 0 1.282-.342 1.605-.836 0 .484.228.779.893.779h.542v-.893h-.21zm-1.33-1.102c-.01.75-.504 1.254-1.359 1.254-.56 0-.902-.285-.902-.694 0-.494.351-.731.988-.731h1.273v.171zm4.558-2.869c-.798 0-1.187.323-1.434.732l-.114-.732h-.912V7.5h1.026V5.059c0-.751.294-1.464 1.206-1.464h.456v-.959h-.228zm2.938 4.921c1.206 0 2.023-.732 2.194-1.691h-1.026c-.142.542-.598.855-1.225.855-.808 0-1.33-.542-1.359-1.368v-.066h3.667c.02-.133.029-.266.029-.39-.029-1.425-.97-2.318-2.375-2.318-1.435 0-2.394.997-2.394 2.498 0 1.492.96 2.48 2.489 2.48zM28.45 4.536c.076-.693.637-1.13 1.292-1.13.713 0 1.216.408 1.302 1.13H28.45zm11.364 2.071c-.21 0-.314-.067-.314-.314V4.346c0-1.15-.74-1.767-2.033-1.767-1.225 0-2.042.589-2.147 1.539h1.007c.076-.428.485-.713 1.093-.713.674 0 1.064.333 1.064.874v.295h-1.226c-1.358 0-2.08.56-2.08 1.558 0 .903.74 1.425 1.805 1.425.788 0 1.282-.342 1.605-.836 0 .484.228.779.893.779h.542v-.893h-.21zm-1.33-1.102c-.01.75-.504 1.254-1.359 1.254-.56 0-.902-.285-.902-.694 0-.494.351-.731.988-.731h1.273v.171zM40.582 7.5h1.026V.85h-1.026V7.5zm7.627-4.921c-.798 0-1.35.351-1.663.883-.294-.627-.864-.883-1.5-.883-.732.01-1.15.333-1.426.693l-.114-.636h-.893V7.5h1.026V4.897c0-.865.437-1.435 1.14-1.435.675 0 1.026.447 1.026 1.302V7.5h1.036V4.869c0-.874.446-1.406 1.15-1.406.664 0 1.016.446 1.016 1.301V7.5h1.026V4.697c0-1.538-.817-2.118-1.824-2.118zm5.016 4.978c1.482 0 2.48-.998 2.48-2.489 0-1.482-.998-2.489-2.48-2.489s-2.48 1.007-2.48 2.489c0 1.492.998 2.489 2.48 2.489zm0-.874c-.865 0-1.425-.675-1.425-1.615s.56-1.615 1.425-1.615c.864 0 1.434.675 1.434 1.615s-.57 1.615-1.434 1.615zm3.067-.788c.029 1.054.922 1.662 2.224 1.662 1.178 0 2.061-.589 2.061-1.52 0-1.083-.902-1.311-2.014-1.444-.703-.076-1.169-.133-1.169-.589 0-.39.4-.636 1.008-.636s1.026.313 1.082.76h1.008c-.067-.998-.912-1.549-2.11-1.549-1.168-.01-1.994.589-1.994 1.51 0 1.007.873 1.245 1.985 1.378.75.095 1.197.133 1.197.655 0 .39-.418.637-1.054.637-.741 0-1.178-.361-1.216-.865h-1.008zm5.432.285c0 .883.399 1.32 1.33 1.32h.95v-.902h-.722c-.39 0-.523-.143-.523-.523V3.538h1.188v-.902h-1.188V1.277h-1.035v1.359h-.846v.902h.846V6.18zm7.824-3.544c-.799 0-1.188.323-1.435.732l-.114-.732h-.912V7.5h1.026V5.059c0-.751.294-1.464 1.207-1.464h.456v-.959h-.228zm2.937 4.921c1.206 0 2.023-.732 2.194-1.691h-1.026c-.142.542-.598.855-1.225.855-.808 0-1.33-.542-1.359-1.368v-.066h3.667c.02-.133.029-.266.029-.39-.029-1.425-.97-2.318-2.375-2.318-1.435 0-2.394.997-2.394 2.498 0 1.492.96 2.48 2.489 2.48zm-1.378-3.021c.076-.693.637-1.13 1.292-1.13.713 0 1.216.408 1.302 1.13h-2.594zm8.933 2.071c-.209 0-.313-.067-.313-.314V4.346c0-1.15-.741-1.767-2.033-1.767-1.226 0-2.043.589-2.147 1.539h1.007c.076-.428.484-.713 1.092-.713.675 0 1.064.333 1.064.874v.295h-1.225c-1.359 0-2.08.56-2.08 1.558 0 .903.74 1.425 1.804 1.425.789 0 1.283-.342 1.606-.836 0 .484.228.779.893.779h.541v-.893h-.209zm-1.33-1.102c-.01.75-.503 1.254-1.358 1.254-.56 0-.903-.285-.903-.694 0-.494.352-.731.988-.731h1.273v.171zm5.757-2.194c-.314-.428-.836-.732-1.577-.732-1.32 0-2.3.988-2.3 2.489 0 1.558.98 2.489 2.3 2.489.77 0 1.273-.361 1.586-.788l.124.731h.893V.85h-1.026v2.46zM83.06 6.691c-.855 0-1.416-.665-1.416-1.624 0-.95.56-1.615 1.416-1.615.855 0 1.415.665 1.415 1.634 0 .94-.56 1.606-1.415 1.606zm4.84.837l-.19.475c-.152.399-.247.494-.646.494h-.722V9.4h1.102c.713 0 .922-.351 1.226-1.14l2.204-5.624h-1.093l-1.32 3.696-1.359-3.696h-1.092l1.89 4.893zm6.275-1.35c0 .884.399 1.321 1.33 1.321h.95v-.902h-.722c-.39 0-.523-.143-.523-.523V3.538H96.4v-.902H95.21V1.277h-1.035v1.359h-.846v.902h.846V6.18zm5.13 1.378c1.481 0 2.479-.998 2.479-2.489 0-1.482-.998-2.489-2.48-2.489s-2.48 1.007-2.48 2.489c0 1.492.998 2.489 2.48 2.489zm0-.874c-.865 0-1.426-.675-1.426-1.615s.56-1.615 1.425-1.615 1.435.675 1.435 1.615-.57 1.615-1.435 1.615zm6.086-.503c0 .883.399 1.32 1.33 1.32h.95v-.902h-.722c-.389 0-.522-.143-.522-.523V3.538h1.187v-.902h-1.187V1.277h-1.036v1.359h-.845v.902h.845V6.18zm5.393-3.544c-.798 0-1.187.323-1.434.732l-.114-.732h-.912V7.5h1.026V5.059c0-.751.294-1.464 1.206-1.464h.456v-.959h-.228zm5.159 3.971c-.209 0-.314-.067-.314-.314V4.346c0-1.15-.741-1.767-2.033-1.767-1.225 0-2.042.589-2.147 1.539h1.007c.076-.428.485-.713 1.093-.713.674 0 1.064.333 1.064.874v.295h-1.226c-1.358 0-2.08.56-2.08 1.558 0 .903.741 1.425 1.805 1.425.788 0 1.282-.342 1.605-.836 0 .484.228.779.893.779h.542v-.893h-.209zm-1.33-1.102c-.01.75-.504 1.254-1.359 1.254-.56 0-.902-.285-.902-.694 0-.494.351-.731.988-.731h1.273v.171zm5.756-2.194c-.314-.428-.836-.732-1.577-.732-1.321 0-2.299.988-2.299 2.489 0 1.558.978 2.489 2.299 2.489.769 0 1.273-.361 1.586-.788l.124.731h.893V.85h-1.026v2.46zm-1.406 3.381c-.855 0-1.416-.665-1.416-1.624 0-.95.561-1.615 1.416-1.615.855 0 1.415.665 1.415 1.634 0 .94-.56 1.606-1.415 1.606zm5.743.865c1.207 0 2.024-.732 2.195-1.691h-1.026c-.143.542-.599.855-1.226.855-.807 0-1.33-.542-1.358-1.368v-.066h3.667c.019-.133.028-.266.028-.39-.028-1.425-.969-2.318-2.375-2.318-1.434 0-2.394.997-2.394 2.498 0 1.492.96 2.48 2.489 2.48zm-1.377-3.021c.076-.693.636-1.13 1.292-1.13.712 0 1.216.408 1.301 1.13h-2.593z" fill="#000"/></svg>