<svg width="136" height="9" viewBox="0 0 136 9" fill="none" xmlns="http://www.w3.org/2000/svg"><path d="M2.926 5.651V8.5h1.265V5.651L7.062.8H5.643L3.564 4.32 1.54.8H.055l2.871 4.851zM9.39 8.566c1.715 0 2.87-1.155 2.87-2.882 0-1.716-1.155-2.882-2.87-2.882-1.716 0-2.871 1.166-2.871 2.882 0 1.727 1.155 2.882 2.87 2.882zm0-1.012c-1.001 0-1.65-.781-1.65-1.87s.649-1.87 1.65-1.87c1 0 1.66.781 1.66 1.87s-.66 1.87-1.66 1.87zm7.687-1.87c0 1.166-.55 1.848-1.452 1.848-.87 0-1.31-.561-1.31-1.661V2.868h-1.187v3.135c0 1.925 1.023 2.563 2.222 2.563.869 0 1.386-.352 1.738-.781l.132.715h1.045V2.868h-1.188v2.816zm5.207-2.816c-.924 0-1.374.374-1.66.847l-.133-.847h-1.055V8.5h1.188V5.673c0-.869.34-1.694 1.396-1.694h.529V2.868h-.264zm8.96 4.598c-.242 0-.363-.077-.363-.363V4.848c0-1.331-.858-2.046-2.354-2.046-1.42 0-2.365.682-2.486 1.782h1.166c.088-.495.56-.825 1.265-.825.78 0 1.232.385 1.232 1.012v.341h-1.42c-1.572 0-2.408.649-2.408 1.804 0 1.045.858 1.65 2.09 1.65.913 0 1.485-.396 1.859-.968 0 .561.264.902 1.034.902h.627V7.466h-.242zm-1.54-1.276c-.011.869-.583 1.452-1.573 1.452-.65 0-1.045-.33-1.045-.803 0-.572.407-.847 1.144-.847h1.474v.198zm6.29-.506c0 1.166-.55 1.848-1.452 1.848-.87 0-1.31-.561-1.31-1.661V2.868h-1.187v3.135c0 1.925 1.023 2.563 2.222 2.563.869 0 1.386-.352 1.738-.781l.132.715h1.045V2.868h-1.188v2.816zm2.798 1.287c0 1.023.462 1.529 1.54 1.529h1.1V7.455h-.836c-.451 0-.605-.165-.605-.605V3.913h1.375V2.868H39.99V1.295h-1.2v1.573h-.978v1.045h.979v3.058zm5.94 1.595c1.715 0 2.87-1.155 2.87-2.882 0-1.716-1.155-2.882-2.87-2.882-1.717 0-2.872 1.166-2.872 2.882 0 1.727 1.155 2.882 2.871 2.882zm0-1.012c-1.002 0-1.65-.781-1.65-1.87s.648-1.87 1.65-1.87c1 0 1.66.781 1.66 1.87s-.66 1.87-1.66 1.87zm10.305-4.752c-.924 0-1.562.407-1.925 1.023-.341-.726-1.001-1.023-1.738-1.023-.847.011-1.331.385-1.65.803l-.132-.737h-1.034V8.5h1.188V5.486c0-1.001.506-1.661 1.32-1.661.78 0 1.188.517 1.188 1.507V8.5h1.199V5.453c0-1.012.517-1.628 1.33-1.628.77 0 1.178.517 1.178 1.507V8.5h1.188V5.255c0-1.782-.946-2.453-2.112-2.453zm8.337 4.664c-.242 0-.363-.077-.363-.363V4.848c0-1.331-.858-2.046-2.354-2.046-1.42 0-2.365.682-2.486 1.782h1.166c.088-.495.56-.825 1.265-.825.78 0 1.232.385 1.232 1.012v.341h-1.42c-1.572 0-2.408.649-2.408 1.804 0 1.045.858 1.65 2.09 1.65.913 0 1.485-.396 1.859-.968 0 .561.264.902 1.034.902h.627V7.466h-.242zm-1.54-1.276c-.011.869-.583 1.452-1.573 1.452-.65 0-1.045-.33-1.045-.803 0-.572.407-.847 1.144-.847h1.474v.198zm2.836.781c0 1.023.462 1.529 1.54 1.529h1.1V7.455h-.836c-.451 0-.605-.165-.605-.605V3.913h1.375V2.868h-1.375V1.295h-1.2v1.573h-.978v1.045h.979v3.058zm4-4.895c.407 0 .726-.297.726-.715s-.319-.715-.726-.715-.726.297-.726.715.32.715.726.715zM68.065 8.5h1.188V2.868h-1.188V8.5zm4.938.066c1.441 0 2.398-.803 2.618-2.079h-1.254c-.143.649-.627 1.067-1.353 1.067-.957 0-1.584-.759-1.584-1.859 0-1.111.627-1.881 1.584-1.881.737 0 1.21.407 1.364 1.067h1.243c-.231-1.276-1.133-2.079-2.585-2.079-1.705 0-2.827 1.155-2.827 2.893 0 1.76 1.089 2.871 2.794 2.871zm10.62-6.49c.408 0 .727-.297.727-.715s-.32-.715-.726-.715c-.407 0-.726.297-.726.715s.319.715.726.715zm-2.672.792v-.473c0-.385.154-.55.539-.55h.836V.8h-1.001c-1.09 0-1.573.517-1.573 1.507v.561h-.98v1.045h.98V8.5h1.199V3.913h2.068V8.5h1.199V2.868H80.95zm7.27 0c-.925 0-1.376.374-1.662.847l-.132-.847h-1.056V8.5h1.188V5.673c0-.869.341-1.694 1.397-1.694h.528V2.868h-.264zm.657 3.773c.033 1.221 1.067 1.925 2.574 1.925 1.364 0 2.387-.682 2.387-1.76 0-1.254-1.045-1.518-2.332-1.672-.814-.088-1.353-.154-1.353-.682 0-.451.462-.737 1.166-.737s1.188.363 1.254.88h1.166c-.077-1.155-1.056-1.793-2.442-1.793-1.353-.011-2.31.682-2.31 1.749 0 1.166 1.012 1.441 2.3 1.595.868.11 1.385.154 1.385.759 0 .451-.484.737-1.22.737-.859 0-1.365-.418-1.409-1.001h-1.166zm6.289.33c0 1.023.462 1.529 1.54 1.529h1.1V7.455h-.836c-.451 0-.605-.165-.605-.605V3.913h1.375V2.868h-1.375V1.295h-1.2v1.573h-.978v1.045h.979v3.058zm6.822-1.111v-.979h-3.74v.979h3.74zm3.745 2.706c1.441 0 2.398-.803 2.618-2.079h-1.254c-.143.649-.627 1.067-1.353 1.067-.957 0-1.584-.759-1.584-1.859 0-1.111.627-1.881 1.584-1.881.737 0 1.21.407 1.364 1.067h1.243c-.231-1.276-1.133-2.079-2.585-2.079-1.705 0-2.827 1.155-2.827 2.893 0 1.76 1.089 2.871 2.794 2.871zm6.487-5.764c-.88 0-1.419.396-1.771.88V.8h-1.188v7.7h1.188V5.651c0-1.133.572-1.826 1.507-1.826.88 0 1.353.572 1.353 1.639V8.5h1.188V5.365c0-1.881-1.023-2.563-2.277-2.563zm5.976 5.764c1.716 0 2.871-1.155 2.871-2.882 0-1.716-1.155-2.882-2.871-2.882s-2.871 1.166-2.871 2.882c0 1.727 1.155 2.882 2.871 2.882zm0-1.012c-1.001 0-1.65-.781-1.65-1.87s.649-1.87 1.65-1.87 1.661.781 1.661 1.87-.66 1.87-1.661 1.87zm4.431-5.478c.407 0 .726-.297.726-.715s-.319-.715-.726-.715-.726.297-.726.715.319.715.726.715zm-.605 6.424h1.188V2.868h-1.188V8.5zm4.938.066c1.441 0 2.398-.803 2.618-2.079h-1.254c-.143.649-.627 1.067-1.353 1.067-.957 0-1.584-.759-1.584-1.859 0-1.111.627-1.881 1.584-1.881.737 0 1.21.407 1.364 1.067h1.243c-.231-1.276-1.133-2.079-2.585-2.079-1.705 0-2.827 1.155-2.827 2.893 0 1.76 1.089 2.871 2.794 2.871zm6.2 0c1.397 0 2.343-.847 2.541-1.958h-1.188c-.165.627-.693.99-1.419.99-.935 0-1.54-.627-1.573-1.584v-.077h4.246c.022-.154.033-.308.033-.451-.033-1.65-1.122-2.684-2.75-2.684-1.661 0-2.772 1.155-2.772 2.893 0 1.727 1.111 2.871 2.882 2.871zm-1.595-3.498c.088-.803.737-1.309 1.496-1.309.825 0 1.408.473 1.507 1.309h-3.003z" fill="#000"/></svg>