<svg width="440" height="17" viewBox="0 0 440 17" fill="none" xmlns="http://www.w3.org/2000/svg"><path d="M6.534 13.108c2.52 0 4.014-1.386 4.554-2.898l.054 2.79h.846V6.43H6.912v.9h4.14v.54c0 2.466-1.71 4.338-4.5 4.338-2.826 0-4.698-2.268-4.698-5.508 0-3.222 1.872-5.508 4.788-5.508 2.124 0 3.6 1.098 4.122 3.078h1.044C11.286 1.75 9.324.292 6.678.292 3.114.292.846 2.92.846 6.7c0 3.798 2.322 6.408 5.688 6.408zm11.885 0c1.998 0 3.528-1.296 3.924-3.132h-.936c-.36 1.422-1.566 2.304-3.06 2.304-2.034 0-3.312-1.548-3.348-3.672v-.162h7.452c0-.126.018-.27.018-.378-.09-2.718-1.764-4.302-4.212-4.302-2.502 0-4.212 1.908-4.212 4.608 0 2.862 1.782 4.734 4.374 4.734zM15.07 7.672c.144-1.854 1.53-3.096 3.204-3.096 1.782 0 3.06 1.098 3.204 3.096H15.07zm9.755 3.204c0 1.458.595 2.124 2.142 2.124H28.3v-.846h-1.26c-.953 0-1.296-.36-1.296-1.296V4.72h2.466v-.846h-2.466V1.318h-.918v2.556H23.1v.846h1.727v6.156zm10.407 0c0 1.458.594 2.124 2.142 2.124h1.332v-.846h-1.26c-.954 0-1.296-.36-1.296-1.296V4.72h2.466v-.846H36.15V1.318h-.918v2.556h-1.728v.846h1.728v6.156zm5.338-8.928c.36 0 .648-.27.648-.648a.634.634 0 00-.648-.648c-.36 0-.648.27-.648.648s.288.648.648.648zM40.103 13h.918V3.874h-.918V13zm10.51-7.002c-.557-1.35-1.781-2.232-3.473-2.232-2.502 0-4.302 1.89-4.302 4.662 0 2.88 1.8 4.68 4.302 4.68 1.71 0 2.916-.9 3.492-2.322v1.62c0 2.43-1.152 3.474-3.348 3.474-1.71 0-2.898-.774-3.186-2.16h-.954c.288 1.944 1.854 2.988 4.068 2.988 2.952 0 4.338-1.404 4.338-4.266V3.874h-.792l-.144 2.124zm-3.401 6.282c-2.034 0-3.438-1.584-3.438-3.852s1.404-3.852 3.438-3.852c2.034 0 3.438 1.584 3.438 3.87 0 2.25-1.404 3.834-3.438 3.834zM57.92 3.766c-1.71 0-2.772.954-3.294 2.268V.4h-.918V13h.918V8.5c0-2.376 1.206-3.888 3.15-3.888 1.746 0 2.826 1.152 2.826 3.312V13h.918V7.888c0-2.88-1.53-4.122-3.6-4.122zm6.333 7.11c0 1.458.594 2.124 2.142 2.124h1.332v-.846h-1.26c-.954 0-1.296-.36-1.296-1.296V4.72h2.466v-.846h-2.466V1.318h-.918v2.556h-1.728v.846h1.728v6.156zm5.284.864c-.486 0-.792.306-.792.702 0 .432.288.648.63.648.18 0 .36-.072.45-.216.126.126.162.306.162.468 0 .684-.432 1.386-1.35 1.422v.54c1.242-.054 2.016-.882 2.016-2.07 0-.828-.468-1.494-1.116-1.494zM79.962 13h1.098l3.564-9.126h-.954l-3.132 8.064-3.15-8.064h-.99L79.962 13zm13.591-.846c-.54 0-.81-.18-.81-.882V7.024c0-2.088-1.278-3.258-3.564-3.258-2.088 0-3.474 1.008-3.708 2.664h.918c.234-1.116 1.206-1.854 2.754-1.854 1.71 0 2.682.9 2.682 2.412v.792H88.73c-2.34 0-3.6 1.008-3.6 2.718 0 1.62 1.278 2.61 3.222 2.61 1.854 0 2.952-.846 3.51-1.98v.324c-.036 1.08.414 1.548 1.494 1.548h.54v-.846h-.342zM91.825 9.31c0 1.746-1.242 3.006-3.402 3.006-1.458 0-2.358-.738-2.358-1.872 0-1.206.9-1.872 2.592-1.872h3.168v.738zm7.024-5.436c-1.692 0-2.412.81-2.79 1.818l-.144-1.818h-.792V13h.918V8.374c0-1.854.486-3.618 2.628-3.618h.666v-.882h-.486zm2.314-1.926c.36 0 .648-.27.648-.648a.634.634 0 00-.648-.648c-.36 0-.648.27-.648.648s.288.648.648.648zM100.695 13h.918V3.874h-.918V13zm11.104-.846c-.54 0-.81-.18-.81-.882V7.024c0-2.088-1.278-3.258-3.564-3.258-2.088 0-3.474 1.008-3.708 2.664h.918c.234-1.116 1.206-1.854 2.754-1.854 1.71 0 2.682.9 2.682 2.412v.792h-3.096c-2.34 0-3.6 1.008-3.6 2.718 0 1.62 1.278 2.61 3.222 2.61 1.854 0 2.952-.846 3.51-1.98v.324c-.036 1.08.414 1.548 1.494 1.548h.54v-.846h-.342zm-1.728-2.844c0 1.746-1.242 3.006-3.402 3.006-1.458 0-2.358-.738-2.358-1.872 0-1.206.9-1.872 2.592-1.872h3.168v.738zm7.708-5.544c-1.71 0-2.916.936-3.492 2.232V.4h-.918V13h.792l.144-2.07c.54 1.314 1.764 2.178 3.474 2.178 2.502 0 4.302-1.908 4.302-4.68 0-2.862-1.8-4.662-4.302-4.662zm-.072 8.514c-2.034 0-3.438-1.584-3.438-3.87 0-2.232 1.404-3.834 3.438-3.834 2.034 0 3.438 1.602 3.438 3.852 0 2.268-1.404 3.852-3.438 3.852zm6.191.72h.918V.4h-.918V13zm7.109.108c1.998 0 3.528-1.296 3.924-3.132h-.936c-.36 1.422-1.566 2.304-3.06 2.304-2.034 0-3.312-1.548-3.348-3.672v-.162h7.452c0-.126.018-.27.018-.378-.09-2.718-1.764-4.302-4.212-4.302-2.502 0-4.212 1.908-4.212 4.608 0 2.862 1.782 4.734 4.374 4.734zm-3.348-5.436c.144-1.854 1.53-3.096 3.204-3.096 1.782 0 3.06 1.098 3.204 3.096h-6.408zm13.65 2.52c.072 1.89 1.602 2.916 3.888 2.916 1.962 0 3.546-.99 3.546-2.61 0-1.926-1.692-2.304-3.654-2.574-1.422-.198-2.682-.36-2.682-1.638 0-1.044 1.026-1.728 2.574-1.728 1.458 0 2.502.702 2.664 1.89h.936c-.162-1.782-1.62-2.682-3.6-2.682-2.034-.018-3.492 1.026-3.492 2.592 0 1.836 1.692 2.178 3.564 2.43 1.53.216 2.772.414 2.772 1.764 0 1.08-1.134 1.764-2.628 1.764-1.746 0-2.88-.81-2.952-2.124h-.936zm13.595-6.426c-1.71 0-2.898.918-3.474 2.196l-.144-2.088h-.792V16.6h.918v-5.706c.522 1.332 1.764 2.214 3.492 2.214 2.502 0 4.302-1.908 4.302-4.68 0-2.862-1.8-4.662-4.302-4.662zm-.072 8.514c-2.034 0-3.438-1.584-3.438-3.87 0-2.232 1.404-3.834 3.438-3.834 2.034 0 3.438 1.602 3.438 3.852 0 2.268-1.404 3.852-3.438 3.852zm9.917-8.406c-1.692 0-2.412.81-2.79 1.818l-.144-1.818h-.792V13h.918V8.374c0-1.854.486-3.618 2.628-3.618h.666v-.882h-.486zm5.228 9.234c1.998 0 3.528-1.296 3.924-3.132h-.936c-.36 1.422-1.566 2.304-3.06 2.304-2.034 0-3.312-1.548-3.348-3.672v-.162h7.452c0-.126.018-.27.018-.378-.09-2.718-1.764-4.302-4.212-4.302-2.502 0-4.212 1.908-4.212 4.608 0 2.862 1.782 4.734 4.374 4.734zm-3.348-5.436c.144-1.854 1.53-3.096 3.204-3.096 1.782 0 3.06 1.098 3.204 3.096h-6.408zm17.241 4.482c-.54 0-.81-.18-.81-.882V7.024c0-2.088-1.278-3.258-3.564-3.258-2.088 0-3.474 1.008-3.708 2.664h.918c.234-1.116 1.206-1.854 2.754-1.854 1.71 0 2.682.9 2.682 2.412v.792h-3.096c-2.34 0-3.6 1.008-3.6 2.718 0 1.62 1.278 2.61 3.222 2.61 1.854 0 2.952-.846 3.51-1.98v.324c-.036 1.08.414 1.548 1.494 1.548h.54v-.846h-.342zm-1.728-2.844c0 1.746-1.242 3.006-3.402 3.006-1.458 0-2.358-.738-2.358-1.872 0-1.206.9-1.872 2.592-1.872h3.168v.738zm10.609-3.384c-.558-1.296-1.782-2.16-3.492-2.16-2.502 0-4.302 1.908-4.302 4.662 0 2.88 1.8 4.68 4.302 4.68 1.71 0 2.898-.918 3.474-2.196l.144 2.088h.792V.4h-.918v5.526zm-3.42 6.354c-2.034 0-3.438-1.584-3.438-3.852 0-2.25 1.404-3.852 3.438-3.852 2.034 0 3.438 1.602 3.438 3.87 0 2.25-1.404 3.834-3.438 3.834zm6.083-2.088c.072 1.89 1.602 2.916 3.888 2.916 1.962 0 3.546-.99 3.546-2.61 0-1.926-1.692-2.304-3.654-2.574-1.422-.198-2.682-.36-2.682-1.638 0-1.044 1.026-1.728 2.574-1.728 1.458 0 2.502.702 2.664 1.89h.936c-.162-1.782-1.62-2.682-3.6-2.682-2.034-.018-3.492 1.026-3.492 2.592 0 1.836 1.692 2.178 3.564 2.43 1.53.216 2.772.414 2.772 1.764 0 1.08-1.134 1.764-2.628 1.764-1.746 0-2.88-.81-2.952-2.124h-.936zm18.069 2.916c2.574 0 4.392-1.908 4.392-4.68 0-2.754-1.818-4.662-4.392-4.662-2.574 0-4.374 1.908-4.374 4.662 0 2.772 1.8 4.68 4.374 4.68zm0-.828c-2.034 0-3.438-1.584-3.438-3.852 0-2.25 1.404-3.852 3.438-3.852 2.034 0 3.438 1.602 3.438 3.852 0 2.268-1.404 3.852-3.438 3.852zm10.428-8.514c-1.674 0-2.754.864-3.276 2.052l-.144-1.944h-.792V13h.918V8.5c0-2.376 1.206-3.888 3.15-3.888 1.764 0 2.826 1.152 2.826 3.312V13h.918V7.888c0-2.88-1.53-4.122-3.6-4.122zm14.515 9.342c2.574 0 4.392-1.908 4.392-4.68 0-2.754-1.818-4.662-4.392-4.662-2.574 0-4.374 1.908-4.374 4.662 0 2.772 1.8 4.68 4.374 4.68zm0-.828c-2.034 0-3.438-1.584-3.438-3.852 0-2.25 1.404-3.852 3.438-3.852 2.034 0 3.438 1.602 3.438 3.852 0 2.268-1.404 3.852-3.438 3.852zm12.841-3.924c0 2.394-1.188 3.906-3.079 3.906-1.691 0-2.735-1.152-2.735-3.33V3.874h-.918v5.112c0 2.862 1.494 4.122 3.51 4.122 1.62 0 2.682-.864 3.204-2.034l.126 1.926h.81V3.874h-.918v4.482zm6.805-4.482c-1.692 0-2.412.81-2.79 1.818l-.144-1.818h-.792V13h.918V8.374c0-1.854.486-3.618 2.628-3.618h.666v-.882h-.486zm14.149 2.052c-.558-1.296-1.782-2.16-3.492-2.16-2.502 0-4.302 1.908-4.302 4.662 0 2.88 1.8 4.68 4.302 4.68 1.71 0 2.898-.918 3.474-2.196l.144 2.088h.792V.4h-.918v5.526zm-3.42 6.354c-2.034 0-3.438-1.584-3.438-3.852 0-2.25 1.404-3.852 3.438-3.852 2.034 0 3.438 1.602 3.438 3.87 0 2.25-1.404 3.834-3.438 3.834zm10.53.828c1.998 0 3.528-1.296 3.924-3.132h-.936c-.36 1.422-1.566 2.304-3.06 2.304-2.034 0-3.312-1.548-3.348-3.672v-.162h7.452c0-.126.018-.27.018-.378-.09-2.718-1.764-4.302-4.212-4.302-2.502 0-4.212 1.908-4.212 4.608 0 2.862 1.782 4.734 4.374 4.734zm-3.348-5.436c.144-1.854 1.53-3.096 3.204-3.096 1.782 0 3.06 1.098 3.204 3.096h-6.408zm16.664-1.746c-.558-1.296-1.782-2.16-3.492-2.16-2.502 0-4.302 1.908-4.302 4.662 0 2.88 1.8 4.68 4.302 4.68 1.71 0 2.898-.918 3.474-2.196l.144 2.088h.792V.4h-.918v5.526zm-3.42 6.354c-2.034 0-3.438-1.584-3.438-3.852 0-2.25 1.404-3.852 3.438-3.852 2.034 0 3.438 1.602 3.438 3.87 0 2.25-1.404 3.834-3.438 3.834zm6.966-10.332c.36 0 .648-.27.648-.648a.634.634 0 00-.648-.648c-.36 0-.648.27-.648.648s.288.648.648.648zM295.725 13h.918V3.874h-.918V13zm7.054.108c2.07 0 3.528-1.188 3.888-3.042h-.972c-.306 1.35-1.404 2.214-2.916 2.214-1.998 0-3.384-1.566-3.384-3.834s1.368-3.87 3.384-3.87c1.53 0 2.61.864 2.934 2.232h.954c-.378-1.89-1.8-3.042-3.87-3.042-2.574 0-4.338 1.908-4.338 4.68 0 2.808 1.746 4.662 4.32 4.662zm13.7-.954c-.54 0-.81-.18-.81-.882V7.024c0-2.088-1.278-3.258-3.564-3.258-2.088 0-3.474 1.008-3.708 2.664h.918c.234-1.116 1.206-1.854 2.754-1.854 1.71 0 2.682.9 2.682 2.412v.792h-3.096c-2.34 0-3.6 1.008-3.6 2.718 0 1.62 1.278 2.61 3.222 2.61 1.854 0 2.952-.846 3.51-1.98v.324c-.036 1.08.414 1.548 1.494 1.548h.54v-.846h-.342zm-1.728-2.844c0 1.746-1.242 3.006-3.402 3.006-1.458 0-2.358-.738-2.358-1.872 0-1.206.9-1.872 2.592-1.872h3.168v.738zm3.982 1.566c0 1.458.594 2.124 2.142 2.124h1.332v-.846h-1.26c-.954 0-1.296-.36-1.296-1.296V4.72h2.466v-.846h-2.466V1.318h-.918v2.556h-1.728v.846h1.728v6.156zm8.621 2.232c1.998 0 3.528-1.296 3.924-3.132h-.936c-.36 1.422-1.566 2.304-3.06 2.304-2.034 0-3.312-1.548-3.348-3.672v-.162h7.452c0-.126.018-.27.018-.378-.09-2.718-1.764-4.302-4.212-4.302-2.502 0-4.212 1.908-4.212 4.608 0 2.862 1.782 4.734 4.374 4.734zm-3.348-5.436c.144-1.854 1.53-3.096 3.204-3.096 1.782 0 3.06 1.098 3.204 3.096h-6.408zm16.665-1.746c-.558-1.296-1.782-2.16-3.492-2.16-2.502 0-4.302 1.908-4.302 4.662 0 2.88 1.8 4.68 4.302 4.68 1.71 0 2.898-.918 3.474-2.196l.144 2.088h.792V.4h-.918v5.526zm-3.42 6.354c-2.034 0-3.438-1.584-3.438-3.852 0-2.25 1.404-3.852 3.438-3.852 2.034 0 3.438 1.602 3.438 3.87 0 2.25-1.404 3.834-3.438 3.834zm11.565.72h.972V7.186h5.436v-.9h-5.436V1.3h6.516V.4h-7.488V13zm8.239 0h1.134l3.852-5.706L365.929 13h1.152l-4.392-6.516L366.811.4h-1.134l-3.6 5.364-3.6-5.364h-1.152l4.14 6.156-4.41 6.444zm20.705-9.234c-1.71 0-2.898.918-3.474 2.196l-.144-2.088h-.792V16.6h.918v-5.706c.522 1.332 1.764 2.214 3.492 2.214 2.502 0 4.302-1.908 4.302-4.68 0-2.862-1.8-4.662-4.302-4.662zm-.072 8.514c-2.034 0-3.438-1.584-3.438-3.87 0-2.232 1.404-3.834 3.438-3.834 2.034 0 3.438 1.602 3.438 3.852 0 2.268-1.404 3.852-3.438 3.852zm6.191.72h.918V.4h-.918V13zm11.104-.846c-.54 0-.81-.18-.81-.882V7.024c0-2.088-1.278-3.258-3.564-3.258-2.088 0-3.474 1.008-3.708 2.664h.918c.234-1.116 1.206-1.854 2.754-1.854 1.71 0 2.682.9 2.682 2.412v.792h-3.096c-2.34 0-3.6 1.008-3.6 2.718 0 1.62 1.278 2.61 3.222 2.61 1.854 0 2.952-.846 3.51-1.98v.324c-.036 1.08.414 1.548 1.494 1.548h.54v-.846h-.342zm-1.728-2.844c0 1.746-1.242 3.006-3.402 3.006-1.458 0-2.358-.738-2.358-1.872 0-1.206.9-1.872 2.592-1.872h3.168v.738zm3.982 1.566c0 1.458.594 2.124 2.142 2.124h1.332v-.846h-1.26c-.954 0-1.296-.36-1.296-1.296V4.72h2.466v-.846h-2.466V1.318h-.918v2.556h-1.728v.846h1.728v6.156zm3.932-6.156h1.728V13h.918V4.72h2.736v-.846h-2.736V2.506c0-.9.342-1.26 1.26-1.26h1.494V.4h-1.53c-1.53 0-2.142.666-2.142 2.124v1.35h-1.728v.846zm10.05 8.388c2.574 0 4.392-1.908 4.392-4.68 0-2.754-1.818-4.662-4.392-4.662-2.574 0-4.374 1.908-4.374 4.662 0 2.772 1.8 4.68 4.374 4.68zm0-.828c-2.034 0-3.438-1.584-3.438-3.852 0-2.25 1.404-3.852 3.438-3.852 2.034 0 3.438 1.602 3.438 3.852 0 2.268-1.404 3.852-3.438 3.852zm9.942-8.406c-1.692 0-2.412.81-2.79 1.818l-.144-1.818h-.792V13h.918V8.374c0-1.854.486-3.618 2.628-3.618h.666v-.882h-.486zm12.035-.108c-1.674 0-2.754.936-3.276 2.286-.432-1.512-1.566-2.286-3.006-2.286-1.566 0-2.502.918-2.97 2.052l-.144-1.944h-.792V13h.918V8.356c0-2.232 1.08-3.744 2.826-3.744 1.584 0 2.574 1.116 2.574 3.222V13h.918V8.032c.054-2.088 1.134-3.42 2.844-3.42 1.584 0 2.538 1.062 2.538 3.132V13h.936V7.708c0-2.754-1.458-3.942-3.366-3.942zm5.296 8.64c0 .414.288.684.684.684.396 0 .684-.27.684-.684 0-.414-.288-.666-.684-.666-.396 0-.684.252-.684.666z" fill="#000"/></svg>