<svg width="446" height="20" viewBox="0 0 446 20" fill="none" xmlns="http://www.w3.org/2000/svg"><path d="M.449 8.931c0 4.095 1.743 6.195 5.355 6.195 3.633 0 5.397-2.1 5.397-6.195V.3h-1.134v8.694c0 3.381-1.302 5.082-4.263 5.082-2.919 0-4.221-1.701-4.221-5.082V.3H.449v8.631zm18.614-4.704c-1.995 0-3.38 1.071-4.053 2.562l-.168-2.436h-.924V19.2h1.071v-6.657c.61 1.554 2.058 2.583 4.074 2.583 2.92 0 5.02-2.226 5.02-5.46 0-3.339-2.1-5.439-5.02-5.439zm-.084 9.933c-2.373 0-4.01-1.848-4.01-4.515 0-2.604 1.637-4.473 4.01-4.473 2.373 0 4.011 1.869 4.011 4.494 0 2.646-1.638 4.494-4.01 4.494zm15.896-7.329c-.65-1.575-2.079-2.604-4.053-2.604-2.919 0-5.019 2.205-5.019 5.439 0 3.36 2.1 5.46 5.02 5.46 1.994 0 3.401-1.05 4.073-2.709v1.89c0 2.835-1.344 4.053-3.906 4.053-1.995 0-3.38-.903-3.717-2.52H26.16c.336 2.268 2.163 3.486 4.746 3.486 3.444 0 5.061-1.638 5.061-4.977V4.353h-.924l-.168 2.478zm-3.969 7.329c-2.373 0-4.01-1.848-4.01-4.494s1.637-4.494 4.01-4.494c2.373 0 4.011 1.848 4.011 4.515 0 2.625-1.638 4.473-4.01 4.473zm11.928-9.807c-1.974 0-2.814.945-3.255 2.121l-.168-2.121h-.924V15h1.07V9.603c0-2.163.568-4.221 3.067-4.221h.777V4.353h-.567zm11.068 9.66c-.63 0-.945-.21-.945-1.029V8.028c0-2.436-1.49-3.801-4.158-3.801-2.436 0-4.053 1.176-4.326 3.108h1.071c.273-1.302 1.407-2.163 3.213-2.163 1.995 0 3.13 1.05 3.13 2.814v.924h-3.613c-2.73 0-4.2 1.176-4.2 3.171 0 1.89 1.491 3.045 3.76 3.045 2.162 0 3.443-.987 4.094-2.31v.378c-.042 1.26.483 1.806 1.743 1.806h.63v-.987h-.399zm-2.016-3.318c0 2.037-1.449 3.507-3.969 3.507-1.7 0-2.75-.861-2.75-2.184 0-1.407 1.05-2.184 3.023-2.184h3.696v.861zm12.378-3.948c-.651-1.512-2.08-2.52-4.074-2.52-2.92 0-5.02 2.226-5.02 5.439 0 3.36 2.1 5.46 5.02 5.46 1.995 0 3.38-1.071 4.053-2.562L64.41 15h.924V.3h-1.071v6.447zm-3.99 7.413c-2.373 0-4.011-1.848-4.011-4.494 0-2.625 1.638-4.494 4.01-4.494 2.374 0 4.012 1.869 4.012 4.515 0 2.625-1.638 4.473-4.011 4.473zm12.284.966c2.33 0 4.116-1.512 4.578-3.654h-1.092c-.42 1.659-1.827 2.688-3.57 2.688-2.373 0-3.864-1.806-3.906-4.284v-.189h8.694c0-.147.02-.315.02-.441-.104-3.171-2.057-5.019-4.913-5.019-2.92 0-4.914 2.226-4.914 5.376 0 3.339 2.079 5.523 5.103 5.523zm-3.906-6.342c.168-2.163 1.785-3.612 3.738-3.612 2.079 0 3.57 1.281 3.738 3.612h-7.476zM88.252 15l-.693 1.722c-.483 1.176-.672 1.491-1.764 1.491H84.45v.987h1.638c1.428 0 1.764-.546 2.436-2.226l5.103-12.621h-1.155l-3.633 9.261-3.696-9.261h-1.155L88.252 15zm11.068.126c3.003 0 5.124-2.226 5.124-5.46 0-3.213-2.121-5.439-5.124-5.439-3.003 0-5.103 2.226-5.103 5.439 0 3.234 2.1 5.46 5.103 5.46zm0-.966c-2.373 0-4.01-1.848-4.01-4.494 0-2.625 1.637-4.494 4.01-4.494 2.373 0 4.011 1.869 4.011 4.494 0 2.646-1.638 4.494-4.01 4.494zm14.981-4.578c0 2.793-1.386 4.557-3.592 4.557-1.973 0-3.191-1.344-3.191-3.885V4.353h-1.071v5.964c0 3.339 1.743 4.809 4.095 4.809 1.89 0 3.129-1.008 3.738-2.373l.147 2.247h.945V4.353h-1.071v5.229zm7.939-5.229c-1.974 0-2.814.945-3.255 2.121l-.168-2.121h-.924V15h1.071V9.603c0-2.163.567-4.221 3.066-4.221h.777V4.353h-.567zm8.612 8.169c0 1.701.693 2.478 2.499 2.478h1.554v-.987h-1.47c-1.113 0-1.512-.42-1.512-1.512V5.34h2.877v-.987h-2.877V1.371h-1.071v2.982h-2.016v.987h2.016v7.182zm10.029-8.169c-1.974 0-2.814.945-3.255 2.121l-.168-2.121h-.924V15h1.071V9.603c0-2.163.567-4.221 3.066-4.221h.777V4.353h-.567zm11.069 9.66c-.63 0-.945-.21-.945-1.029V8.028c0-2.436-1.491-3.801-4.158-3.801-2.436 0-4.053 1.176-4.326 3.108h1.071c.273-1.302 1.407-2.163 3.213-2.163 1.995 0 3.129 1.05 3.129 2.814v.924h-3.612c-2.73 0-4.2 1.176-4.2 3.171 0 1.89 1.491 3.045 3.759 3.045 2.163 0 3.444-.987 4.095-2.31v.378c-.042 1.26.483 1.806 1.743 1.806h.63v-.987h-.399zm-2.016-3.318c0 2.037-1.449 3.507-3.969 3.507-1.701 0-2.751-.861-2.751-2.184 0-1.407 1.05-2.184 3.024-2.184h3.696v.861zm12.377-3.948c-.651-1.512-2.079-2.52-4.074-2.52-2.919 0-5.019 2.226-5.019 5.439 0 3.36 2.1 5.46 5.019 5.46 1.995 0 3.381-1.071 4.053-2.562l.168 2.436h.924V.3h-1.071v6.447zm-3.99 7.413c-2.373 0-4.011-1.848-4.011-4.494 0-2.625 1.638-4.494 4.011-4.494s4.011 1.869 4.011 4.515c0 2.625-1.638 4.473-4.011 4.473zm8.127-12.054a.74.74 0 00.756-.756.74.74 0 00-.756-.756.74.74 0 00-.756.756.74.74 0 00.756.756zM165.902 15h1.071V4.353h-1.071V15zm8.502-10.773c-1.953 0-3.213 1.008-3.822 2.394l-.168-2.268h-.924V15h1.071V9.75c0-2.772 1.407-4.536 3.675-4.536 2.058 0 3.297 1.344 3.297 3.864V15h1.071V9.036c0-3.36-1.785-4.809-4.2-4.809zm15.244 2.604c-.651-1.575-2.079-2.604-4.053-2.604-2.919 0-5.019 2.205-5.019 5.439 0 3.36 2.1 5.46 5.019 5.46 1.995 0 3.402-1.05 4.074-2.709v1.89c0 2.835-1.344 4.053-3.906 4.053-1.995 0-3.381-.903-3.717-2.52h-1.113c.336 2.268 2.163 3.486 4.746 3.486 3.444 0 5.061-1.638 5.061-4.977V4.353h-.924l-.168 2.478zm-3.969 7.329c-2.373 0-4.011-1.848-4.011-4.494s1.638-4.494 4.011-4.494 4.011 1.848 4.011 4.515c0 2.625-1.638 4.473-4.011 4.473zm15.823.84h1.155l3.15-8.946L208.81 15h1.155l3.78-10.647h-1.092l-3.276 9.366-3.045-9.366h-.987l-3.213 9.366-3.108-9.366h-1.134L201.502 15zm14.287-12.894a.74.74 0 00.756-.756.74.74 0 00-.756-.756.74.74 0 00-.756.756.74.74 0 00.756.756zM215.243 15h1.071V4.353h-1.071V15zm4.387-2.478c0 1.701.693 2.478 2.499 2.478h1.554v-.987h-1.47c-1.113 0-1.512-.42-1.512-1.512V5.34h2.877v-.987h-2.877V1.371h-1.071v2.982h-2.016v.987h2.016v7.182zm10.597-8.295c-1.995 0-3.234 1.113-3.843 2.646V.3h-1.071V15h1.071V9.75c0-2.772 1.407-4.536 3.675-4.536 2.037 0 3.297 1.344 3.297 3.864V15h1.071V9.036c0-3.36-1.785-4.809-4.2-4.809zM242.73 15h1.134V8.868h4.326c2.772 0 4.599-1.722 4.599-4.284S250.983.3 248.19.3h-5.46V15zm5.376-13.65c2.163 0 3.528 1.302 3.528 3.234 0 1.911-1.386 3.234-3.549 3.234h-4.221V1.35h4.242zm10.581 13.776c2.331 0 4.116-1.512 4.578-3.654h-1.092c-.42 1.659-1.827 2.688-3.57 2.688-2.373 0-3.864-1.806-3.906-4.284v-.189h8.694c0-.147.021-.315.021-.441-.105-3.171-2.058-5.019-4.914-5.019-2.919 0-4.914 2.226-4.914 5.376 0 3.339 2.079 5.523 5.103 5.523zm-3.906-6.342c.168-2.163 1.785-3.612 3.738-3.612 2.079 0 3.57 1.281 3.738 3.612h-7.476zm15.095-4.431c-1.974 0-2.814.945-3.255 2.121l-.168-2.121h-.924V15h1.071V9.603c0-2.163.567-4.221 3.066-4.221h.777V4.353h-.567zm1.284.987h2.016V15h1.071V5.34h3.192v-.987h-3.192V2.757c0-1.05.399-1.47 1.47-1.47h1.743V.3h-1.785c-1.785 0-2.499.777-2.499 2.478v1.575h-2.016v.987zm11.726 9.786c3.003 0 5.124-2.226 5.124-5.46 0-3.213-2.121-5.439-5.124-5.439-3.003 0-5.103 2.226-5.103 5.439 0 3.234 2.1 5.46 5.103 5.46zm0-.966c-2.373 0-4.011-1.848-4.011-4.494 0-2.625 1.638-4.494 4.011-4.494s4.011 1.869 4.011 4.494c0 2.646-1.638 4.494-4.011 4.494zm11.599-9.807c-1.974 0-2.814.945-3.255 2.121l-.168-2.121h-.924V15h1.071V9.603c0-2.163.567-4.221 3.066-4.221h.777V4.353h-.567zm14.04-.126c-1.953 0-3.213 1.092-3.822 2.667-.504-1.764-1.827-2.667-3.507-2.667-1.827 0-2.919 1.071-3.465 2.394l-.168-2.268h-.924V15h1.071V9.582c0-2.604 1.26-4.368 3.297-4.368 1.848 0 3.003 1.302 3.003 3.759V15h1.071V9.204c.063-2.436 1.323-3.99 3.318-3.99 1.848 0 2.961 1.239 2.961 3.654V15h1.092V8.826c0-3.213-1.701-4.599-3.927-4.599zm15.67 9.786c-.63 0-.945-.21-.945-1.029V8.028c0-2.436-1.491-3.801-4.158-3.801-2.436 0-4.053 1.176-4.326 3.108h1.071c.273-1.302 1.407-2.163 3.213-2.163 1.995 0 3.129 1.05 3.129 2.814v.924h-3.612c-2.73 0-4.2 1.176-4.2 3.171 0 1.89 1.491 3.045 3.759 3.045 2.163 0 3.444-.987 4.095-2.31v.378c-.042 1.26.483 1.806 1.743 1.806h.63v-.987h-.399zm-2.016-3.318c0 2.037-1.449 3.507-3.969 3.507-1.701 0-2.751-.861-2.751-2.184 0-1.407 1.05-2.184 3.024-2.184h3.696v.861zm8.762-6.468c-1.953 0-3.213 1.008-3.822 2.394l-.168-2.268h-.924V15h1.071V9.75c0-2.772 1.407-4.536 3.675-4.536 2.058 0 3.297 1.344 3.297 3.864V15h1.071V9.036c0-3.36-1.785-4.809-4.2-4.809zm11.047 10.899c2.415 0 4.116-1.386 4.536-3.549h-1.134c-.357 1.575-1.638 2.583-3.402 2.583-2.331 0-3.948-1.827-3.948-4.473s1.596-4.515 3.948-4.515c1.785 0 3.045 1.008 3.423 2.604h1.113c-.441-2.205-2.1-3.549-4.515-3.549-3.003 0-5.061 2.226-5.061 5.46 0 3.276 2.037 5.439 5.04 5.439zm11.322 0c2.331 0 4.116-1.512 4.578-3.654h-1.092c-.42 1.659-1.827 2.688-3.57 2.688-2.373 0-3.864-1.806-3.906-4.284v-.189h8.694c0-.147.021-.315.021-.441-.105-3.171-2.058-5.019-4.914-5.019-2.919 0-4.914 2.226-4.914 5.376 0 3.339 2.079 5.523 5.103 5.523zm-3.906-6.342c.168-2.163 1.785-3.612 3.738-3.612 2.079 0 3.57 1.281 3.738 3.612h-7.476zM366.085 15l1.764-4.494h6.762L376.375 15h1.218L371.923.3H370.6L364.909 15h1.176zm5.145-13.44l3.045 7.896h-6.09l3.045-7.896zm12.887 2.667c-1.953 0-3.213 1.008-3.822 2.394l-.168-2.268h-.924V15h1.071V9.75c0-2.772 1.407-4.536 3.675-4.536 2.058 0 3.297 1.344 3.297 3.864V15h1.071V9.036c0-3.36-1.785-4.809-4.2-4.809zm15.937 9.786c-.63 0-.945-.21-.945-1.029V8.028c0-2.436-1.491-3.801-4.158-3.801-2.436 0-4.053 1.176-4.326 3.108h1.071c.273-1.302 1.407-2.163 3.213-2.163 1.995 0 3.129 1.05 3.129 2.814v.924h-3.612c-2.73 0-4.2 1.176-4.2 3.171 0 1.89 1.491 3.045 3.759 3.045 2.163 0 3.444-.987 4.095-2.31v.378c-.042 1.26.483 1.806 1.743 1.806h.63v-.987h-.399zm-2.016-3.318c0 2.037-1.449 3.507-3.969 3.507-1.701 0-2.751-.861-2.751-2.184 0-1.407 1.05-2.184 3.024-2.184h3.696v.861zM401.885 15h1.071V.3h-1.071V15zm6.781 0l-.693 1.722c-.483 1.176-.672 1.491-1.764 1.491h-1.344v.987h1.638c1.428 0 1.764-.546 2.436-2.226l5.103-12.621h-1.155l-3.633 9.261-3.696-9.261h-1.155L408.666 15zm7.757-2.478c0 1.701.693 2.478 2.499 2.478h1.554v-.987h-1.47c-1.113 0-1.512-.42-1.512-1.512V5.34h2.877v-.987h-2.877V1.371h-1.071v2.982h-2.016v.987h2.016v7.182zm6.229-10.416a.74.74 0 00.756-.756.74.74 0 00-.756-.756.74.74 0 00-.756.756.74.74 0 00.756.756zM422.106 15h1.071V4.353h-1.071V15zm8.23.126c2.415 0 4.116-1.386 4.536-3.549h-1.134c-.357 1.575-1.638 2.583-3.402 2.583-2.331 0-3.948-1.827-3.948-4.473s1.596-4.515 3.948-4.515c1.785 0 3.045 1.008 3.423 2.604h1.113c-.441-2.205-2.1-3.549-4.515-3.549-3.003 0-5.061 2.226-5.061 5.46 0 3.276 2.037 5.439 5.04 5.439zm6.134-3.402c.084 2.205 1.869 3.402 4.536 3.402 2.289 0 4.137-1.155 4.137-3.045 0-2.247-1.974-2.688-4.263-3.003-1.659-.231-3.129-.42-3.129-1.911 0-1.218 1.197-2.016 3.003-2.016 1.701 0 2.919.819 3.108 2.205h1.092c-.189-2.079-1.89-3.129-4.2-3.129-2.373-.021-4.074 1.197-4.074 3.024 0 2.142 1.974 2.541 4.158 2.835 1.785.252 3.234.483 3.234 2.058 0 1.26-1.323 2.058-3.066 2.058-2.037 0-3.36-.945-3.444-2.478h-1.092z" fill="#000"/></svg>