<svg width="351" height="15" viewBox="0 0 351 15" fill="none" xmlns="http://www.w3.org/2000/svg"><path d="M.998 11.724h1.794V7.76h2.512c2.278 0 3.775-1.373 3.775-3.479C9.08 2.161 7.582.804 5.304.804H.998v10.92zm4.166-9.36c1.279 0 2.09.733 2.09 1.918 0 1.17-.827 1.92-2.106 1.92H2.792V2.363h2.372zm8.518 9.453c2.433 0 4.071-1.638 4.071-4.087 0-2.434-1.638-4.087-4.071-4.087-2.434 0-4.072 1.653-4.072 4.087 0 2.45 1.638 4.087 4.072 4.087zm0-1.435c-1.42 0-2.34-1.108-2.34-2.652s.92-2.652 2.34-2.652 2.355 1.108 2.355 2.652-.936 2.652-2.355 2.652zm6.993 1.342H22.5l1.747-5.43 1.685 5.43h1.81l2.651-7.988h-1.716L26.79 9.852l-1.747-6.116h-1.545l-1.825 6.116-1.825-6.116h-1.779l2.606 7.988zm14.122.093c1.981 0 3.323-1.2 3.604-2.777h-1.685c-.234.89-.983 1.405-2.013 1.405-1.326 0-2.184-.89-2.23-2.247v-.11h6.021c.031-.218.047-.436.047-.639-.047-2.34-1.591-3.806-3.9-3.806-2.356 0-3.931 1.638-3.931 4.103 0 2.449 1.575 4.071 4.087 4.071zm-2.262-4.96C32.66 5.716 33.58 5 34.657 5c1.17 0 1.996.67 2.137 1.856h-4.26zm11.408-3.12c-1.31 0-1.95.53-2.355 1.2l-.187-1.2h-1.498v7.987h1.685v-4.01c0-1.232.483-2.402 1.981-2.402h.749V3.736h-.375zm7.714 8.034l-.312.78c-.25.655-.405.81-1.06.81h-1.186v1.483h1.81c1.17 0 1.513-.577 2.012-1.872l3.619-9.236h-1.794l-2.169 6.069-2.23-6.069h-1.794l3.104 8.034zm9.145.046c2.433 0 4.071-1.638 4.071-4.087 0-2.434-1.638-4.087-4.071-4.087-2.434 0-4.072 1.653-4.072 4.087 0 2.45 1.638 4.087 4.072 4.087zm0-1.435c-1.42 0-2.34-1.108-2.34-2.652s.92-2.652 2.34-2.652 2.355 1.108 2.355 2.652-.936 2.652-2.355 2.652zM71.704 7.73c0 1.654-.78 2.62-2.06 2.62-1.232 0-1.856-.795-1.856-2.355V3.736h-1.685v4.446c0 2.73 1.451 3.635 3.151 3.635 1.233 0 1.966-.499 2.465-1.107l.187 1.014h1.482V3.736h-1.684V7.73zm7.385-3.994c-1.31 0-1.95.53-2.355 1.202l-.188-1.202H75.05v7.988h1.684v-4.01c0-1.232.484-2.402 1.982-2.402h.748V3.736h-.374zm4.89-1.341h3.37v9.329h1.794v-9.33h3.37V.805h-8.534v1.59zm12.06 9.422c1.981 0 3.323-1.2 3.604-2.777h-1.685c-.234.89-.983 1.405-2.013 1.405-1.325 0-2.183-.89-2.23-2.247v-.11h6.021c.031-.218.047-.436.047-.639-.047-2.34-1.591-3.806-3.9-3.806-2.355 0-3.931 1.638-3.931 4.103 0 2.449 1.576 4.071 4.087 4.071zm-2.262-4.96C93.902 5.716 94.822 5 95.9 5c1.17 0 1.996.67 2.137 1.856h-4.259zm6.979 2.23c.047 1.732 1.513 2.73 3.651 2.73 1.934 0 3.385-.967 3.385-2.496 0-1.778-1.482-2.153-3.307-2.37-1.155-.126-1.919-.22-1.919-.968 0-.64.655-1.045 1.653-1.045.999 0 1.685.514 1.779 1.248h1.653c-.109-1.638-1.497-2.543-3.463-2.543-1.919-.016-3.276.967-3.276 2.48 0 1.654 1.435 2.044 3.261 2.262 1.232.156 1.965.219 1.965 1.077 0 .64-.686 1.045-1.731 1.045-1.217 0-1.935-.593-1.997-1.42h-1.654zm8.342 2.637h1.684V.804h-1.684v10.92zm10.637-1.467c-.344 0-.515-.109-.515-.515V6.544c0-1.887-1.217-2.901-3.339-2.901-2.012 0-3.354.967-3.525 2.527h1.653c.125-.702.796-1.17 1.794-1.17 1.108 0 1.748.546 1.748 1.435v.484h-2.013c-2.231 0-3.416.92-3.416 2.558 0 1.482 1.217 2.34 2.964 2.34 1.295 0 2.106-.561 2.636-1.373 0 .796.375 1.28 1.467 1.28h.889v-1.467h-.343zm-2.184-1.81c-.016 1.233-.827 2.06-2.231 2.06-.921 0-1.482-.468-1.482-1.139 0-.811.577-1.201 1.622-1.201h2.091v.28zm12.35 3.37c2.543 0 4.399-1.497 4.742-3.806h-1.856c-.343 1.388-1.388 2.23-2.902 2.23-2.059 0-3.307-1.653-3.307-3.977 0-2.34 1.279-3.978 3.354-3.978 1.482 0 2.512.858 2.871 2.23h1.856C134.3 2.208 132.506.71 130.01.71c-3.229 0-5.273 2.23-5.273 5.554 0 3.354 1.982 5.553 5.164 5.553zm6.226-.093h1.794V7.106h4.275V5.562h-4.275V2.395h5.18V.804h-6.974v10.92zm12.062 0c3.416 0 5.569-2.231 5.569-5.476S151.605.804 148.189.804h-3.713v10.92h3.713zm-1.919-9.36h1.919c2.402 0 3.728 1.544 3.728 3.884s-1.326 3.916-3.728 3.916h-1.919v-7.8zm13.465 7.191c0 1.451.655 2.169 2.184 2.169h1.56v-1.482h-1.186c-.639 0-.858-.234-.858-.858V5.218h1.95V3.736h-1.95v-2.23h-1.7v2.23h-1.389v1.482h1.389v4.337zm8.856-5.819c-1.31 0-1.95.53-2.356 1.202l-.187-1.202h-1.497v7.988h1.684v-4.01c0-1.232.484-2.402 1.982-2.402h.748V3.736h-.374zm8.471 6.521c-.344 0-.515-.109-.515-.515V6.544c0-1.887-1.217-2.901-3.339-2.901-2.012 0-3.354.967-3.525 2.527h1.653c.125-.702.796-1.17 1.794-1.17 1.108 0 1.748.546 1.748 1.435v.484h-2.013c-2.231 0-3.416.92-3.416 2.558 0 1.482 1.217 2.34 2.964 2.34 1.295 0 2.106-.561 2.636-1.373 0 .796.375 1.28 1.467 1.28h.889v-1.467h-.343zm-2.184-1.81c-.016 1.233-.827 2.06-2.231 2.06-.921 0-1.482-.468-1.482-1.139 0-.811.577-1.201 1.622-1.201h2.091v.28zm9.452-3.603c-.515-.702-1.373-1.201-2.59-1.201-2.168 0-3.775 1.622-3.775 4.087 0 2.559 1.607 4.087 3.775 4.087 1.264 0 2.091-.592 2.606-1.294l.202 1.2h1.467V.804h-1.685v4.041zm-2.309 5.554c-1.404 0-2.324-1.092-2.324-2.668 0-1.56.92-2.652 2.324-2.652s2.325 1.092 2.325 2.683c0 1.545-.921 2.637-2.325 2.637zm6.498-7.785c.577 0 1.03-.42 1.03-1.014 0-.593-.453-1.014-1.03-1.014s-1.029.421-1.029 1.014.452 1.014 1.029 1.014zm-.858 9.11h1.685V3.737h-1.685v7.988zm7.549-8.08c-1.295 0-2.06.515-2.559 1.139l-.187-1.046h-1.466v7.988h1.684V7.699c0-1.623.796-2.605 2.138-2.605 1.263 0 1.903.81 1.903 2.324v4.306h1.7V7.278c0-2.668-1.451-3.635-3.213-3.635zm10.845 1.341c-.515-.795-1.373-1.341-2.621-1.341-2.168 0-3.775 1.607-3.775 4.056 0 2.543 1.607 4.056 3.775 4.056 1.248 0 2.075-.515 2.605-1.31v.889c0 1.529-.826 2.23-2.293 2.23-1.185 0-1.965-.514-2.168-1.403h-1.716c.156 1.793 1.638 2.776 3.759 2.776 2.871 0 4.088-1.372 4.088-3.54v-7.66h-1.467l-.187 1.247zm-2.34 5.351c-1.404 0-2.324-1.076-2.324-2.636 0-1.545.92-2.637 2.324-2.637s2.324 1.092 2.324 2.668c0 1.529-.92 2.605-2.324 2.605zm11.472 1.389h1.825l1.748-5.43 1.684 5.43h1.81l2.652-7.988h-1.716l-1.888 6.116-1.747-6.116h-1.544l-1.825 6.116-1.826-6.116h-1.778l2.605 7.988zm11.464-9.11c.577 0 1.029-.422 1.029-1.015s-.452-1.014-1.029-1.014-1.03.421-1.03 1.014.453 1.014 1.03 1.014zm-.858 9.11h1.685V3.736h-1.685v7.988zm3.913-2.169c0 1.451.656 2.169 2.184 2.169h1.56v-1.482h-1.185c-.64 0-.858-.234-.858-.858V5.218h1.95V3.736h-1.95v-2.23h-1.701v2.23h-1.388v1.482h1.388v4.337zm9.013-5.912c-1.248 0-2.013.561-2.512 1.248V.804h-1.685v10.92h1.685v-4.04c0-1.608.811-2.59 2.137-2.59 1.248 0 1.919.81 1.919 2.324v4.306h1.685V7.278c0-2.668-1.451-3.635-3.229-3.635zm12.543 8.174c1.981 0 3.323-1.2 3.604-2.777h-1.685c-.234.89-.983 1.405-2.012 1.405-1.326 0-2.184-.89-2.231-2.247v-.11h6.021a4.46 4.46 0 00.047-.639c-.047-2.34-1.591-3.806-3.9-3.806-2.355 0-3.931 1.638-3.931 4.103 0 2.449 1.576 4.071 4.087 4.071zM249 6.857c.125-1.14 1.045-1.857 2.122-1.857 1.17 0 1.997.67 2.137 1.856H249zm6.176 4.867h1.856l2.106-2.902 2.091 2.902h1.965l-3.011-4.088 2.84-3.9h-1.857l-1.95 2.7-1.903-2.7h-1.966l2.824 3.9-2.995 4.088zm12.14.093c2.044 0 3.401-1.139 3.713-2.948h-1.778c-.203.92-.89 1.513-1.919 1.513-1.357 0-2.247-1.076-2.247-2.636 0-1.576.89-2.668 2.247-2.668 1.045 0 1.716.577 1.934 1.513h1.763c-.328-1.81-1.607-2.948-3.666-2.948-2.418 0-4.009 1.638-4.009 4.103 0 2.496 1.544 4.071 3.962 4.071zm5.003-.093h1.684V.804h-1.684v10.92zm8.812-3.994c0 1.654-.78 2.62-2.06 2.62-1.232 0-1.856-.795-1.856-2.355V3.736h-1.685v4.446c0 2.73 1.451 3.635 3.151 3.635 1.233 0 1.966-.499 2.465-1.107l.187 1.014h1.482V3.736h-1.684V7.73zm3.001 1.357c.047 1.732 1.514 2.73 3.651 2.73 1.934 0 3.385-.967 3.385-2.496 0-1.778-1.482-2.153-3.307-2.37-1.155-.126-1.919-.22-1.919-.968 0-.64.655-1.045 1.654-1.045.998 0 1.684.514 1.778 1.248h1.654c-.11-1.638-1.498-2.543-3.464-2.543-1.918-.016-3.276.967-3.276 2.48 0 1.654 1.436 2.044 3.261 2.262 1.232.156 1.965.219 1.965 1.077 0 .64-.686 1.045-1.731 1.045-1.217 0-1.935-.593-1.997-1.42h-1.654zm9.2-6.474c.577 0 1.029-.42 1.029-1.014 0-.593-.452-1.014-1.029-1.014-.578 0-1.03.421-1.03 1.014s.452 1.014 1.03 1.014zm-.858 9.11h1.684V3.737h-1.684v7.988zm5.489 0h2.059l2.948-7.987h-1.778l-2.168 6.178-2.2-6.178h-1.81l2.949 7.988zm9.285.094c1.982 0 3.323-1.2 3.604-2.777h-1.685c-.234.89-.983 1.405-2.012 1.405-1.326 0-2.184-.89-2.231-2.247v-.11h6.022c.031-.218.046-.436.046-.639-.046-2.34-1.591-3.806-3.9-3.806-2.355 0-3.931 1.638-3.931 4.103 0 2.449 1.576 4.071 4.087 4.071zm-2.262-4.96c.125-1.14 1.046-1.857 2.122-1.857 1.17 0 1.997.67 2.137 1.856h-4.259zm11.937 2.698c0 1.451.655 2.169 2.184 2.169h1.56v-1.482h-1.185c-.64 0-.858-.234-.858-.858V5.218h1.95V3.736h-1.95v-2.23h-1.701v2.23h-1.388v1.482h1.388v4.337zm8.424 2.262c2.433 0 4.071-1.638 4.071-4.087 0-2.434-1.638-4.087-4.071-4.087-2.434 0-4.072 1.653-4.072 4.087 0 2.45 1.638 4.087 4.072 4.087zm0-1.435c-1.42 0-2.34-1.108-2.34-2.652s.92-2.652 2.34-2.652c1.419 0 2.355 1.108 2.355 2.652s-.936 2.652-2.355 2.652zm9.201 1.435c2.434 0 4.072-1.638 4.072-4.087 0-2.434-1.638-4.087-4.072-4.087-2.433 0-4.071 1.653-4.071 4.087 0 2.45 1.638 4.087 4.071 4.087zm0-1.435c-1.419 0-2.34-1.108-2.34-2.652s.921-2.652 2.34-2.652c1.42 0 2.356 1.108 2.356 2.652s-.936 2.652-2.356 2.652zm5.426 1.342h1.685V.804h-1.685v10.92zm2.994-2.637c.046 1.732 1.513 2.73 3.65 2.73 1.934 0 3.385-.967 3.385-2.496 0-1.778-1.482-2.153-3.307-2.37-1.154-.126-1.919-.22-1.919-.968 0-.64.655-1.045 1.654-1.045.998 0 1.685.514 1.778 1.248h1.654c-.109-1.638-1.498-2.543-3.463-2.543-1.919-.016-3.276.967-3.276 2.48 0 1.654 1.435 2.044 3.26 2.262 1.232.156 1.966.219 1.966 1.077 0 .64-.687 1.045-1.732 1.045-1.217 0-1.934-.593-1.997-1.42h-1.653z" fill="#000"/></svg>