<svg width="179" height="28" viewBox="0 0 179 28" fill="none" xmlns="http://www.w3.org/2000/svg"><path d="M97.372 11.238h.969l.928-2.883.895 2.883h.961l1.408-4.242h-.911l-1.003 3.248-.927-3.248h-.82l-.97 3.248-.97-3.248h-.944l1.384 4.242zm7.861-4.292c-.663 0-1.069.299-1.334.663V5.44h-.895v5.8h.895V9.091c0-.853.431-1.375 1.135-1.375.663 0 1.019.43 1.019 1.234v2.287h.895V8.877c0-1.417-.771-1.93-1.715-1.93zm4.51 4.342c1.052 0 1.764-.638 1.914-1.475h-.895c-.125.472-.522.746-1.069.746-.704 0-1.16-.472-1.185-1.193v-.058h3.198c.017-.116.025-.232.025-.34-.025-1.243-.845-2.022-2.071-2.022-1.251 0-2.088.87-2.088 2.18 0 1.3.837 2.162 2.171 2.162zm-1.202-2.635c.067-.605.555-.986 1.127-.986.622 0 1.061.357 1.135.986h-2.262zm6.151-1.707c-.688 0-1.094.274-1.359.605l-.1-.555h-.778v4.242h.894V9.101c0-.862.423-1.384 1.135-1.384.671 0 1.011.43 1.011 1.234v2.287h.903V8.877c0-1.417-.77-1.93-1.706-1.93zm6.645 4.342c1.292 0 2.162-.87 2.162-2.17 0-1.293-.87-2.172-2.162-2.172-1.293 0-2.163.879-2.163 2.171 0 1.301.87 2.17 2.163 2.17zm0-.762c-.754 0-1.243-.589-1.243-1.409 0-.82.489-1.408 1.243-1.408.754 0 1.251.588 1.251 1.408s-.497 1.409-1.251 1.409zm3.156-.44c0 .771.348 1.152 1.16 1.152h.828v-.787h-.629c-.34 0-.456-.124-.456-.456V7.783h1.036v-.787h-1.036V5.811h-.903v1.185h-.737v.787h.737v2.304zm4.786-3.14c-.662 0-1.068.299-1.334.663V5.44h-.894v5.8h.894V9.091c0-.853.431-1.375 1.136-1.375.662 0 1.019.43 1.019 1.234v2.287h.894V8.877c0-1.417-.77-1.93-1.715-1.93zm4.51 4.342c1.052 0 1.765-.638 1.914-1.475h-.895c-.124.472-.522.746-1.069.746-.704 0-1.16-.472-1.184-1.193v-.058h3.198c.016-.116.024-.232.024-.34-.024-1.243-.845-2.022-2.071-2.022-1.251 0-2.088.87-2.088 2.18 0 1.3.837 2.162 2.171 2.162zm-1.201-2.635c.066-.605.555-.986 1.126-.986.622 0 1.061.357 1.136.986h-2.262zm6.059-1.657c-.696 0-1.036.282-1.251.638l-.1-.638h-.795v4.242h.895v-2.13c0-.654.257-1.275 1.052-1.275h.398v-.837h-.199zm.495 2.842c.025.92.804 1.45 1.939 1.45 1.027 0 1.798-.514 1.798-1.326 0-.944-.787-1.143-1.756-1.26-.614-.065-1.02-.115-1.02-.513 0-.34.348-.555.879-.555.53 0 .894.274.944.663h.878c-.058-.87-.795-1.35-1.839-1.35-1.019-.009-1.74.513-1.74 1.317 0 .878.762 1.085 1.732 1.201.654.083 1.044.116 1.044.572 0 .34-.365.555-.92.555-.646 0-1.027-.315-1.06-.754h-.879zm8.497 1.45c1.086 0 1.806-.605 1.972-1.566h-.944c-.108.489-.473.804-1.019.804-.721 0-1.194-.572-1.194-1.4 0-.837.473-1.417 1.194-1.417.555 0 .911.306 1.027.803h.936c-.174-.96-.853-1.566-1.947-1.566-1.284 0-2.129.87-2.129 2.18 0 1.325.82 2.162 2.104 2.162zm6.534-.829c-.182 0-.273-.058-.273-.273V8.488c0-1.003-.646-1.542-1.773-1.542-1.069 0-1.781.514-1.872 1.343h.878c.066-.373.422-.622.953-.622.588 0 .928.29.928.763v.256h-1.069c-1.185 0-1.815.49-1.815 1.36 0 .786.647 1.242 1.574 1.242.688 0 1.119-.298 1.401-.73 0 .423.199.68.778.68h.473v-.779h-.183zm-1.159-.96c-.009.654-.44 1.093-1.185 1.093-.489 0-.787-.249-.787-.605 0-.43.306-.638.861-.638h1.111v.15zm4.066-2.553c-.688 0-1.094.274-1.359.605l-.099-.555h-.779v4.242h.895V9.101c0-.862.422-1.384 1.135-1.384.671 0 1.011.43 1.011 1.234v2.287h.903V8.877c0-1.417-.771-1.93-1.707-1.93zm2.733-1.557c-.382 0-.63.248-.63.563 0 .348.215.53.489.53a.45.45 0 00.273-.09c.008.04.008.074.008.115 0 .29-.207.613-.729.613v.49c.821-.009 1.334-.465 1.334-1.268 0-.539-.29-.953-.745-.953zm1.907 4.698c0 .77.348 1.151 1.159 1.151h.829v-.787h-.63c-.339 0-.455-.124-.455-.456V7.783h1.035v-.787h-1.035V5.811h-.903v1.185h-.738v.787h.738v2.304zm2.523.638c0 .33.24.563.572.563.331 0 .58-.232.58-.563 0-.332-.249-.564-.58-.564-.332 0-.572.232-.572.564z" fill="#000"/><path d="M.271 3.897h2.927V12h1.558V3.897h2.927V2.515H.271v1.382zm13.71 6.83c-.299 0-.448-.096-.448-.448V7.501c0-1.64-1.057-2.52-2.9-2.52-1.748 0-2.913.84-3.062 2.195h1.436c.109-.61.691-1.016 1.559-1.016.962 0 1.517.474 1.517 1.246v.42h-1.748c-1.937 0-2.967.8-2.967 2.223 0 1.287 1.057 2.032 2.574 2.032 1.125 0 1.83-.487 2.29-1.192 0 .69.326 1.111 1.274 1.111h.772v-1.274h-.298zm-1.898-1.573c-.013 1.07-.718 1.79-1.937 1.79-.8 0-1.288-.407-1.288-.99 0-.705.502-1.043 1.41-1.043h1.815v.243zM15.076 12h1.463v-1.761l1.247-1.301L19.832 12h1.734l-2.778-4.133 2.616-2.805h-1.721l-3.144 3.36V2.516h-1.463V12zm10.054.081c1.721 0 2.886-1.043 3.13-2.412h-1.463c-.203.773-.854 1.22-1.748 1.22-1.152 0-1.897-.772-1.938-1.951v-.095h5.23c.028-.19.041-.38.041-.556-.04-2.032-1.382-3.306-3.387-3.306-2.046 0-3.415 1.423-3.415 3.564 0 2.127 1.369 3.536 3.55 3.536zm-1.965-4.309c.109-.989.908-1.612 1.843-1.612 1.017 0 1.735.583 1.857 1.612h-3.7zm16.209 2.954c-.298 0-.447-.095-.447-.447V7.501c0-1.64-1.057-2.52-2.9-2.52-1.748 0-2.913.84-3.063 2.195h1.437c.108-.61.69-1.016 1.558-1.016.962 0 1.518.474 1.518 1.246v.42h-1.748c-1.938 0-2.968.8-2.968 2.223 0 1.287 1.057 2.032 2.575 2.032 1.125 0 1.83-.487 2.29-1.192 0 .69.325 1.111 1.274 1.111h.772v-1.274h-.298zm-1.897-1.572c-.014 1.07-.718 1.79-1.938 1.79-.8 0-1.287-.407-1.287-.99 0-.705.501-1.043 1.409-1.043h1.816v.243zm10.172-4.173c-1.084 0-1.803.501-2.263 1.111l-.176-1.03h-1.274v9.648h1.463v-3.686c.434.624 1.18 1.057 2.25 1.057 1.897 0 3.279-1.409 3.279-3.55 0-2.222-1.382-3.55-3.28-3.55zm-.244 5.867c-1.22 0-2.02-.962-2.02-2.344 0-1.341.8-2.276 2.02-2.276s2.032.935 2.032 2.303c0 1.355-.813 2.317-2.032 2.317zm7.975 1.233c2.113 0 3.536-1.422 3.536-3.55 0-2.114-1.422-3.55-3.536-3.55s-3.537 1.436-3.537 3.55c0 2.127 1.423 3.55 3.537 3.55zm0-1.246c-1.233 0-2.033-.962-2.033-2.304 0-1.341.8-2.303 2.033-2.303 1.233 0 2.046.962 2.046 2.303 0 1.342-.813 2.304-2.046 2.304zm4.375-1.125c.04 1.504 1.314 2.371 3.17 2.371 1.681 0 2.941-.84 2.941-2.168 0-1.544-1.287-1.87-2.872-2.06-1.003-.108-1.667-.19-1.667-.84 0-.555.57-.907 1.436-.907.867 0 1.464.447 1.545 1.084h1.436c-.094-1.423-1.3-2.209-3.008-2.209-1.666-.014-2.845.84-2.845 2.154 0 1.437 1.246 1.776 2.832 1.965 1.07.136 1.707.19 1.707.935 0 .556-.596.908-1.504.908-1.057 0-1.68-.515-1.735-1.233h-1.436zm7.99-5.623c.502 0 .895-.366.895-.881s-.393-.88-.894-.88c-.502 0-.895.365-.895.88s.393.88.895.88zM67 12h1.464V5.062H67V12zm3.4-1.883c0 1.26.569 1.883 1.897 1.883h1.355v-1.287h-1.03c-.556 0-.745-.204-.745-.746V6.35h1.694V5.062h-1.694V3.125H70.4v1.937h-1.206V6.35H70.4v3.767zm4.928-6.03c.501 0 .894-.366.894-.881s-.393-.88-.894-.88-.894.365-.894.88.393.88.894.88zM74.583 12h1.463V5.062h-1.463V12zm6.177.081c2.114 0 3.536-1.422 3.536-3.55 0-2.114-1.422-3.55-3.536-3.55s-3.537 1.436-3.537 3.55c0 2.127 1.423 3.55 3.537 3.55zm0-1.246c-1.233 0-2.033-.962-2.033-2.304 0-1.341.8-2.303 2.033-2.303 1.233 0 2.046.962 2.046 2.303 0 1.342-.813 2.304-2.046 2.304zm8.372-5.854c-1.125 0-1.789.447-2.223.99l-.162-.909h-1.274V12h1.464V8.504c0-1.41.69-2.263 1.856-2.263 1.097 0 1.653.705 1.653 2.02V12h1.477V8.138c0-2.317-1.26-3.157-2.791-3.157z" fill="url(#paint0_linear_13_478)"/><defs><linearGradient id="paint0_linear_13_478" x1="100.953" y1="9.411" x2="0" y2="9.411" gradientUnits="userSpaceOnUse"><stop stop-color="#FF4343"/><stop offset=".5" stop-color="#9C0B93"/><stop offset="1" stop-color="#4C1BB7"/></linearGradient></defs></svg>