<svg width="150" height="20" viewBox="0 0 150 20" fill="none" xmlns="http://www.w3.org/2000/svg"><path d="M4.606 4.595a7.34 7.34 0 012.297-1.647 6.604 6.604 0 012.785-.598c1.086 0 1.962.14 2.623.423.66.283 1.3.69 1.92 1.224.301.232.61.337.93.312.317-.024.59-.14.815-.35.225-.207.339-.469.339-.787 0-.15-.014-.278-.038-.388a.917.917 0 00-.152-.323 1.375 1.375 0 00-.314-.313c-.937-.765-1.87-1.315-2.799-1.647C12.086.167 10.978 0 9.688 0 8.315 0 7.044.259 5.874.773a9.665 9.665 0 00-3.075 2.135A9.908 9.908 0 00.739 6.08C.248 7.287 0 8.59 0 9.988c0 1.415.247 2.73.74 3.945a9.796 9.796 0 002.059 3.183 9.418 9.418 0 003.085 2.121c1.179.51 2.447.763 3.804.763a9.62 9.62 0 003.251-.55 10.127 10.127 0 002.899-1.622c.133-.132.233-.278.3-.437.066-.159.101-.32.101-.488 0-.366-.1-.652-.3-.862a1.14 1.14 0 00-.74-.35c-.293-.025-.59.07-.892.288a9.375 9.375 0 01-2.197 1.21 6.725 6.725 0 01-2.422.437 6.711 6.711 0 01-2.785-.588 7.208 7.208 0 01-2.297-1.636A7.586 7.586 0 013.06 12.97a7.983 7.983 0 01-.552-2.984c0-1.048.184-2.035.552-2.959a7.603 7.603 0 011.545-2.43zM21.362.25c-.368 0-.677.122-.93.362-.251.243-.376.552-.376.935v16.904c0 .366.125.673.377.924.252.248.56.375.929.375.385 0 .699-.124.94-.375a1.27 1.27 0 00.363-.924V1.547c0-.383-.122-.695-.363-.935-.241-.24-.555-.361-.94-.361zM39.96.25H26.535c-.352 0-.64.114-.867.338-.225.223-.339.512-.339.862s.114.636.34.863c.224.223.514.336.866.336h5.421v15.804c0 .367.125.674.377.925.252.248.56.374.929.374.368 0 .677-.124.93-.374a1.25 1.25 0 00.376-.925V2.647h5.397c.352 0 .639-.113.867-.337.224-.224.338-.512.338-.863 0-.35-.114-.636-.338-.862-.228-.224-.518-.334-.87-.334zM59.987.563a1.006 1.006 0 00-.753-.312c-.268 0-.493.054-.677.162a1.46 1.46 0 00-.477.46l-5.974 9.374L46.233.976a2.053 2.053 0 00-.477-.537c-.168-.123-.393-.185-.678-.185-.316 0-.598.097-.84.288a1.15 1.15 0 00-.438.75c-.052.306.032.635.252.986l6.7 10.362v5.819c0 .366.124.673.376.924.252.248.553.375.905.375.368 0 .677-.124.93-.375a1.25 1.25 0 00.376-.924v-5.824L60.09 2.272c.2-.315.285-.628.252-.935a1.31 1.31 0 00-.355-.774zM73.268.25c-.369 0-.677.122-.93.362-.251.243-.376.552-.376.935v16.904c0 .366.125.673.377.924.252.248.56.375.929.375.385 0 .699-.124.94-.375a1.27 1.27 0 00.363-.924V1.547c0-.383-.122-.695-.363-.935-.241-.24-.555-.361-.94-.361zM93.04.25c-.369 0-.678.122-.93.362-.251.243-.376.552-.376.935v13.659L80.79.726A1.265 1.265 0 0079.786.25c-.368 0-.674.121-.915.361-.244.243-.364.552-.364.935v16.904c0 .366.122.673.364.924.24.248.547.375.915.375.385 0 .7-.124.94-.375.241-.25.363-.558.363-.924V4.819l10.943 14.48c.116.149.27.262.463.337.192.076.371.114.54.114.384 0 .693-.124.928-.375.234-.25.353-.558.353-.924V1.547c0-.383-.117-.695-.353-.935-.227-.24-.539-.361-.923-.361z" fill="#fff"/><path fill-rule="evenodd" clip-rule="evenodd" d="M110.986 2.984a9.047 9.047 0 00-3.075-2.022c-1.179-.474-2.49-.711-3.929-.711h-4.543c-.369 0-.677.121-.93.361-.251.243-.376.552-.376.935v16.904c0 .366.125.673.377.924.251.248.56.375.929.375h4.543c1.439 0 2.747-.238 3.929-.712a9.078 9.078 0 003.075-2.021 9.018 9.018 0 002.007-3.097c.469-1.188.702-2.5.702-3.932 0-1.431-.233-2.738-.702-3.919a9.05 9.05 0 00-2.007-3.085zm-.729 10.86a6.899 6.899 0 01-2.547 2.647c-1.078.642-2.322.962-3.728.962h-3.237V2.547h3.237c1.406 0 2.647.315 3.728.949a6.812 6.812 0 012.547 2.622c.617 1.116.929 2.404.929 3.87 0 1.447-.309 2.733-.929 3.857z" fill="#fff"/><path d="M129.845 2.647c.384 0 .693-.108.929-.327.233-.215.352-.498.352-.848 0-.367-.116-.663-.352-.887-.233-.224-.545-.337-.929-.337h-11.347c-.368 0-.677.121-.929.361-.252.243-.376.553-.376.935v16.904c0 .366.124.673.376.924.252.248.561.375.929.375h11.347c.384 0 .693-.113.929-.337.233-.224.352-.52.352-.887 0-.35-.116-.633-.352-.849-.233-.215-.545-.326-.929-.326h-10.041v-6.236h7.204c.385 0 .694-.114.929-.337.233-.224.352-.512.352-.863 0-.35-.116-.636-.352-.862-.233-.224-.544-.337-.929-.337h-7.204V2.647h10.041zM144 9.885l5.722-7.589c.2-.299.292-.606.276-.924a1.222 1.222 0 00-.325-.798c-.2-.216-.477-.326-.829-.326-.385 0-.694.124-.929.375l-5.625 7.443-5.394-7.44c-.184-.251-.493-.375-.929-.375-.352 0-.631.116-.84.35-.208.234-.33.507-.363.825-.032.315.052.606.252.873l5.513 7.608-5.841 7.746c-.2.266-.3.56-.3.886 0 .324.1.61.3.85.201.242.493.36.878.36.352 0 .653-.124.905-.374l5.763-7.627 5.459 7.527c.132.167.279.288.439.361.159.076.346.113.566.113.368 0 .655-.115.867-.35.208-.232.322-.515.338-.849a1.342 1.342 0 00-.276-.9L144 9.885z" fill="#fff"/></svg>