<svg width="273" height="33" viewBox="0 0 273 33" fill="none" xmlns="http://www.w3.org/2000/svg"><path d="M5.715 32l2.925-7.785h12.915L24.525 32h5.535L18.315.5H12.15L.36 32h5.355zm9.36-25.92l5.04 13.725H10.08L15.075 6.08zM32.795 32h4.86V.5h-4.86V32zm36.13-23.31c-3.78 0-6.39 1.665-7.876 4.185-1.395-2.97-4.095-4.185-7.11-4.185-3.465.045-5.445 1.575-6.75 3.285l-.54-3.015h-4.23V32h4.86V19.67c0-4.095 2.07-6.795 5.4-6.795 3.195 0 4.86 2.115 4.86 6.165V32h4.905V19.535c0-4.14 2.115-6.66 5.445-6.66 3.15 0 4.815 2.115 4.815 6.165V32h4.86V18.725c0-7.29-3.87-10.035-8.64-10.035zm23.76 23.58c7.02 0 11.744-4.725 11.744-11.79 0-7.02-4.725-11.79-11.745-11.79S80.94 13.46 80.94 20.48c0 7.065 4.725 11.79 11.745 11.79zm0-4.14c-4.096 0-6.75-3.195-6.75-7.65s2.654-7.65 6.75-7.65c4.094 0 6.794 3.195 6.794 7.65s-2.7 7.65-6.795 7.65zm14.53-3.735c.135 4.995 4.365 7.875 10.53 7.875 5.58 0 9.765-2.79 9.765-7.2 0-5.13-4.275-6.21-9.54-6.84-3.33-.36-5.535-.63-5.535-2.79 0-1.845 1.89-3.015 4.77-3.015s4.86 1.485 5.13 3.6h4.77c-.315-4.725-4.32-7.335-9.99-7.335-5.535-.045-9.45 2.79-9.45 7.155 0 4.77 4.14 5.895 9.405 6.525 3.555.45 5.67.63 5.67 3.105 0 1.845-1.98 3.015-4.995 3.015-3.51 0-5.58-1.71-5.76-4.095h-4.77zm25.727 1.35c0 4.185 1.89 6.255 6.3 6.255h4.5v-4.275h-3.42c-1.845 0-2.475-.675-2.475-2.475V13.235h5.625V8.96h-5.625V2.525h-4.905V8.96h-4.005v4.275h4.005v12.51zm27.07 0c0 4.185 1.89 6.255 6.3 6.255h4.5v-4.275h-3.42c-1.845 0-2.475-.675-2.475-2.475V13.235h5.625V8.96h-5.625V2.525h-4.905V8.96h-4.005v4.275h4.005v12.51zM186.009 8.69c-3.6 0-5.805 1.62-7.245 3.6V.5h-4.86V32h4.86V20.345c0-4.635 2.34-7.47 6.165-7.47 3.6 0 5.535 2.34 5.535 6.705V32h4.86V19.175c0-7.695-4.185-10.485-9.315-10.485zm24.494 23.58c5.715 0 9.585-3.465 10.395-8.01h-4.86c-.675 2.565-2.835 4.05-5.805 4.05-3.825 0-6.3-2.565-6.435-6.48v-.315h17.37c.09-.63.135-1.26.135-1.845-.135-6.75-4.59-10.98-11.25-10.98-6.795 0-11.34 4.725-11.34 11.835 0 7.065 4.545 11.745 11.79 11.745zm-6.525-14.31c.36-3.285 3.015-5.355 6.12-5.355 3.375 0 5.76 1.935 6.165 5.355h-12.285zm32.909-9c-3.78 0-5.625 1.53-6.795 3.465l-.54-3.465h-4.32V32h4.86V20.435c0-3.555 1.395-6.93 5.715-6.93h2.16V8.96h-1.08zM250.8 32.27c5.715 0 9.585-3.465 10.395-8.01h-4.86c-.675 2.565-2.835 4.05-5.805 4.05-3.825 0-6.3-2.565-6.435-6.48v-.315h17.37c.09-.63.135-1.26.135-1.845-.135-6.75-4.59-10.98-11.25-10.98-6.795 0-11.34 4.725-11.34 11.835 0 7.065 4.545 11.745 11.79 11.745zm-6.525-14.31c.36-3.285 3.015-5.355 6.12-5.355 3.375 0 5.76 1.935 6.165 5.355h-12.285zm26.745 4.455L271.785.5h-5.22l.765 21.915h3.69zm-4.995 6.795c0 1.8 1.35 3.06 3.15 3.06 1.8 0 3.105-1.26 3.105-3.06s-1.305-3.06-3.105-3.06-3.15 1.26-3.15 3.06z" fill="#000"/></svg>