<svg width="162" height="9" viewBox="0 0 162 9" fill="none" xmlns="http://www.w3.org/2000/svg"><path d="M.21 1.721h2.268V8h1.208V1.721h2.268V.65H.21v1.071zm8.726.903c-.882 0-1.312.357-1.585.808l-.126-.808H6.217V8H7.35V5.301c0-.829.325-1.617 1.333-1.617h.504v-1.06h-.252zm5.701 4.389c-.23 0-.346-.074-.346-.346V4.514c0-1.27-.819-1.953-2.247-1.953-1.354 0-2.258.651-2.373 1.701h1.113c.084-.472.535-.787 1.207-.787.746 0 1.177.367 1.177.966v.325h-1.355c-1.502 0-2.3.62-2.3 1.722 0 .997.82 1.575 1.995 1.575.872 0 1.418-.378 1.775-.924 0 .535.252.861.987.861h.598v-.987h-.23zm-1.47-1.218c-.01.83-.556 1.386-1.501 1.386-.62 0-.998-.315-.998-.766 0-.546.389-.809 1.093-.809h1.407v.189zM19.53 3.37c-.347-.473-.924-.809-1.743-.809-1.46 0-2.541 1.092-2.541 2.751 0 1.722 1.081 2.751 2.54 2.751.851 0 1.408-.399 1.754-.872l.137.809h.987V.65H19.53v2.72zm-1.554 3.737c-.945 0-1.565-.735-1.565-1.795 0-1.05.62-1.785 1.565-1.785s1.564.735 1.564 1.806c0 1.04-.62 1.774-1.564 1.774zm6.347.956c1.334 0 2.237-.809 2.426-1.869h-1.134c-.158.599-.662.945-1.355.945-.892 0-1.47-.599-1.501-1.512v-.074h4.053a3.08 3.08 0 00.031-.43c-.031-1.575-1.07-2.562-2.625-2.562-1.585 0-2.646 1.103-2.646 2.761 0 1.649 1.06 2.741 2.751 2.741zm-1.522-3.339c.084-.767.703-1.25 1.428-1.25.787 0 1.344.452 1.438 1.25h-2.866zm10.953 3.339c1.712 0 2.961-1.008 3.192-2.562h-1.25c-.23.934-.934 1.502-1.952 1.502-1.386 0-2.226-1.114-2.226-2.678 0-1.575.86-2.678 2.257-2.678.998 0 1.69.578 1.932 1.502h1.25c-.242-1.554-1.45-2.562-3.13-2.562-2.173 0-3.548 1.501-3.548 3.738 0 2.257 1.333 3.738 3.475 3.738zm6.616 0c1.638 0 2.74-1.103 2.74-2.751 0-1.638-1.102-2.751-2.74-2.751-1.638 0-2.74 1.113-2.74 2.751 0 1.648 1.102 2.751 2.74 2.751zm0-.966c-.955 0-1.575-.746-1.575-1.785 0-1.04.62-1.785 1.575-1.785.956 0 1.586.745 1.586 1.785s-.63 1.785-1.586 1.785zm9.837-4.536c-.882 0-1.49.389-1.837.977-.326-.693-.956-.977-1.66-.977-.808.01-1.27.368-1.574.767l-.126-.704h-.987V8h1.134V5.123c0-.955.483-1.586 1.26-1.586.745 0 1.134.494 1.134 1.439V8h1.144V5.091c0-.966.494-1.554 1.27-1.554.736 0 1.124.494 1.124 1.439V8h1.134V4.902c0-1.7-.903-2.341-2.016-2.341zm9.229 0c-.882 0-1.491.389-1.838.977-.325-.693-.955-.977-1.659-.977-.808.01-1.27.368-1.575.767l-.126-.704h-.987V8h1.134V5.123c0-.955.483-1.586 1.26-1.586.746 0 1.134.494 1.134 1.439V8h1.145V5.091c0-.966.493-1.554 1.27-1.554.735 0 1.124.494 1.124 1.439V8h1.134V4.902c0-1.7-.903-2.341-2.016-2.341zm5.544 5.502c1.638 0 2.74-1.103 2.74-2.751 0-1.638-1.102-2.751-2.74-2.751-1.638 0-2.74 1.113-2.74 2.751 0 1.648 1.102 2.751 2.74 2.751zm0-.966c-.956 0-1.575-.746-1.575-1.785 0-1.04.62-1.785 1.575-1.785s1.585.745 1.585 1.785-.63 1.785-1.585 1.785zm7.737-3.728c-.347-.472-.924-.808-1.743-.808-1.46 0-2.541 1.092-2.541 2.751 0 1.722 1.081 2.751 2.54 2.751.851 0 1.408-.399 1.754-.872l.137.809h.987V.65h-1.134v2.72zm-1.554 3.738c-.945 0-1.565-.735-1.565-1.795 0-1.05.62-1.785 1.565-1.785s1.564.735 1.564 1.806c0 1.04-.62 1.774-1.564 1.774zm4.373-5.239a.67.67 0 00.693-.683.67.67 0 00-.693-.682.67.67 0 00-.693.682.67.67 0 00.693.683zM74.96 8h1.134V2.624h-1.134V8zm2.634-1.46c0 .977.44 1.46 1.47 1.46h1.05v-.997h-.798c-.43 0-.578-.158-.578-.578V3.622h1.313v-.998h-1.313V1.122h-1.144v1.502h-.935v.998h.935V6.54zm3.819-4.672a.67.67 0 00.693-.683.67.67 0 00-.693-.682.67.67 0 00-.693.682.67.67 0 00.693.683zM80.834 8h1.134V2.624h-1.134V8zm4.797.063c1.334 0 2.237-.809 2.426-1.869h-1.134c-.158.599-.662.945-1.355.945-.892 0-1.47-.599-1.501-1.512v-.074h4.053a3.08 3.08 0 00.031-.43c-.031-1.575-1.07-2.562-2.625-2.562-1.585 0-2.646 1.103-2.646 2.761 0 1.649 1.06 2.741 2.751 2.741zM84.11 4.724c.084-.767.703-1.25 1.428-1.25.787 0 1.344.452 1.438 1.25H84.11zm4.698 1.502c.031 1.165 1.018 1.837 2.456 1.837 1.302 0 2.279-.651 2.279-1.68 0-1.197-.998-1.449-2.226-1.596-.777-.084-1.291-.147-1.291-.651 0-.43.44-.704 1.112-.704.672 0 1.135.347 1.198.84h1.113c-.074-1.102-1.008-1.711-2.331-1.711-1.292-.01-2.206.651-2.206 1.67 0 1.112.966 1.375 2.195 1.522.83.105 1.323.147 1.323.724 0 .431-.462.704-1.166.704-.819 0-1.302-.399-1.344-.955h-1.112zM98.346 8h1.228l1.176-3.654L101.885 8h1.218l1.785-5.376h-1.155l-1.271 4.116-1.176-4.116h-1.039L99.018 6.74 97.79 2.624h-1.197L98.346 8zm7.715-6.132a.67.67 0 00.693-.683.67.67 0 00-.693-.682.671.671 0 00-.693.682c0 .4.305.683.693.683zM105.485 8h1.134V2.624h-1.134V8zm2.634-1.46c0 .977.441 1.46 1.47 1.46h1.05v-.997h-.798c-.431 0-.578-.158-.578-.578V3.622h1.313v-.998h-1.313V1.122h-1.144v1.502h-.935v.998h.935V6.54zm6.066-3.979c-.84 0-1.355.378-1.691.84V.65h-1.134V8h1.134V5.28c0-1.081.546-1.743 1.439-1.743.84 0 1.291.546 1.291 1.565V8h1.134V5.008c0-1.796-.976-2.447-2.173-2.447zm5.704 5.502c1.638 0 2.741-1.103 2.741-2.751 0-1.638-1.103-2.751-2.741-2.751-1.638 0-2.74 1.113-2.74 2.751 0 1.648 1.102 2.751 2.74 2.751zm0-.966c-.955 0-1.575-.746-1.575-1.785 0-1.04.62-1.785 1.575-1.785.956 0 1.586.745 1.586 1.785s-.63 1.785-1.586 1.785zm7.338-1.785c0 1.113-.525 1.764-1.386 1.764-.829 0-1.249-.535-1.249-1.585V2.623h-1.134v2.993c0 1.837.976 2.446 2.121 2.446.829 0 1.323-.336 1.659-.746l.126.683h.997V2.624h-1.134v2.688zm2.671 1.228c0 .977.441 1.46 1.47 1.46h1.05v-.997h-.798c-.43 0-.577-.158-.577-.578V3.622h1.312v-.998h-1.312V1.122h-1.145v1.502h-.934v.998h.934V6.54zm8.396 1.523c1.375 0 2.289-.767 2.499-1.985h-1.197c-.137.62-.599 1.019-1.292 1.019-.913 0-1.512-.725-1.512-1.775 0-1.06.599-1.795 1.512-1.795.704 0 1.155.389 1.302 1.018h1.187c-.221-1.217-1.082-1.984-2.468-1.984-1.627 0-2.698 1.103-2.698 2.761 0 1.68 1.039 2.741 2.667 2.741zm5.908 0c1.638 0 2.74-1.103 2.74-2.751 0-1.638-1.102-2.751-2.74-2.751-1.638 0-2.741 1.113-2.741 2.751 0 1.648 1.103 2.751 2.741 2.751zm0-.966c-.956 0-1.575-.746-1.575-1.785 0-1.04.619-1.785 1.575-1.785.955 0 1.585.745 1.585 1.785s-.63 1.785-1.585 1.785zm3.39-.872c.032 1.166 1.019 1.838 2.457 1.838 1.302 0 2.279-.651 2.279-1.68 0-1.197-.998-1.449-2.226-1.596-.777-.084-1.292-.147-1.292-.651 0-.43.441-.704 1.113-.704.672 0 1.134.347 1.197.84h1.113c-.073-1.102-1.008-1.711-2.331-1.711-1.291-.01-2.205.651-2.205 1.67 0 1.112.966 1.375 2.195 1.522.829.105 1.323.147 1.323.724 0 .431-.462.704-1.166.704-.819 0-1.302-.399-1.344-.955h-1.113zm6.003.316c0 .976.441 1.459 1.47 1.459h1.05v-.997h-.798c-.431 0-.578-.158-.578-.578V3.622h1.313v-.998h-1.313V1.122h-1.144v1.502h-.935v.998h.935V6.54zm3.01-.316c.032 1.166 1.019 1.838 2.457 1.838 1.302 0 2.279-.651 2.279-1.68 0-1.197-.998-1.449-2.226-1.596-.777-.084-1.292-.147-1.292-.651 0-.43.441-.704 1.113-.704.672 0 1.134.347 1.197.84h1.113c-.073-1.102-1.008-1.711-2.331-1.711-1.291-.01-2.205.651-2.205 1.67 0 1.112.966 1.375 2.195 1.522.829.105 1.323.147 1.323.724 0 .431-.462.704-1.166.704-.819 0-1.302-.399-1.344-.955h-1.113z" fill="#000"/></svg>