<svg width="233" height="64" viewBox="0 0 233 64" fill="none" xmlns="http://www.w3.org/2000/svg"><path d="M.08 15.1c.12 4.2 3.27 7.08 8.49 7.08 4.62 0 7.77-2.61 7.77-6.39.03-4.14-3.36-5.25-6.84-5.88-3.3-.57-5.46-1.02-5.46-3.18 0-1.98 1.65-3 4.02-3 2.55 0 4.23 1.44 4.5 3.57h3.45C15.86 3.43 12.86.82 8.06.82 3.59.82.59 3.31.59 6.97c0 4.17 3.3 5.28 6.78 5.88 3.33.6 5.52 1.08 5.52 3.3 0 2.01-1.8 3.12-4.29 3.12-2.94 0-4.86-1.65-5.04-4.11L.08 15.1zm33.007 4.08c-.66 0-.99-.21-.99-.99v-6.15c0-3.63-2.34-5.58-6.42-5.58-3.87 0-6.45 1.86-6.78 4.86h3.18c.24-1.35 1.53-2.25 3.45-2.25 2.13 0 3.36 1.05 3.36 2.76v.93h-3.87c-4.29 0-6.57 1.77-6.57 4.92 0 2.85 2.34 4.5 5.7 4.5 2.49 0 4.05-1.08 5.07-2.64 0 1.53.72 2.46 2.82 2.46h1.71v-2.82h-.66zm-4.2-3.48c-.03 2.37-1.59 3.96-4.29 3.96-1.77 0-2.85-.9-2.85-2.19 0-1.56 1.11-2.31 3.12-2.31h4.02v.54zm14.395-9.06c-2.52 0-3.75 1.02-4.53 2.31l-.36-2.31h-2.88V22h3.24v-7.71c0-2.37.93-4.62 3.81-4.62h1.44V6.64h-.72zm16.29 12.54c-.66 0-.99-.21-.99-.99v-6.15c0-3.63-2.34-5.58-6.42-5.58-3.87 0-6.45 1.86-6.78 4.86h3.18c.24-1.35 1.53-2.25 3.45-2.25 2.13 0 3.36 1.05 3.36 2.76v.93h-3.87c-4.29 0-6.57 1.77-6.57 4.92 0 2.85 2.34 4.5 5.7 4.5 2.49 0 4.05-1.08 5.07-2.64 0 1.53.72 2.46 2.82 2.46h1.71v-2.82h-.66zm-4.2-3.48c-.03 2.37-1.59 3.96-4.29 3.96-1.77 0-2.85-.9-2.85-2.19 0-1.56 1.11-2.31 3.12-2.31h4.02v.54zm13.557 6.48c3.93 0 6.54-2.19 7.14-5.67h-3.42c-.39 1.77-1.71 2.91-3.69 2.91-2.61 0-4.32-2.07-4.32-5.07 0-3.03 1.71-5.13 4.32-5.13 2.01 0 3.3 1.11 3.72 2.91h3.39c-.63-3.48-3.09-5.67-7.05-5.67-4.65 0-7.71 3.15-7.71 7.89 0 4.8 2.97 7.83 7.62 7.83zm16.91 0c3.81 0 6.39-2.31 6.93-5.34h-3.24c-.45 1.71-1.89 2.7-3.87 2.7-2.55 0-4.2-1.71-4.29-4.32v-.21h11.58c.06-.42.09-.84.09-1.23-.09-4.5-3.06-7.32-7.5-7.32-4.53 0-7.56 3.15-7.56 7.89 0 4.71 3.03 7.83 7.86 7.83zm-4.35-9.54c.24-2.19 2.01-3.57 4.08-3.57 2.25 0 3.84 1.29 4.11 3.57h-8.19zm22.269-6.18c-2.49 0-3.96.99-4.92 2.19l-.36-2.01h-2.82V22h3.24v-7.74c0-3.12 1.53-5.01 4.11-5.01 2.43 0 3.66 1.56 3.66 4.47V22h3.27v-8.55c0-5.13-2.79-6.99-6.18-6.99zm8.467 10.47c.09 3.33 2.91 5.25 7.02 5.25 3.72 0 6.51-1.86 6.51-4.8 0-3.42-2.85-4.14-6.36-4.56-2.22-.24-3.69-.42-3.69-1.86 0-1.23 1.26-2.01 3.18-2.01 1.92 0 3.24.99 3.42 2.4h3.18c-.21-3.15-2.88-4.89-6.66-4.89-3.69-.03-6.3 1.86-6.3 4.77 0 3.18 2.76 3.93 6.27 4.35 2.37.3 3.78.42 3.78 2.07 0 1.23-1.32 2.01-3.33 2.01-2.34 0-3.72-1.14-3.84-2.73h-3.18zM10.04 58.18c4.89 0 8.46-2.88 9.12-7.32h-3.57c-.66 2.67-2.67 4.29-5.58 4.29-3.96 0-6.36-3.18-6.36-7.65 0-4.5 2.46-7.65 6.45-7.65 2.85 0 4.83 1.65 5.52 4.29h3.57c-.69-4.44-4.14-7.32-8.94-7.32C4.04 36.82.11 41.11.11 47.5c0 6.45 3.81 10.68 9.93 10.68zm19.714-15.72c-2.4 0-3.87 1.08-4.83 2.4V37h-3.24v21h3.24v-7.77c0-3.09 1.56-4.98 4.11-4.98 2.4 0 3.69 1.56 3.69 4.47V58h3.24v-8.55c0-5.13-2.79-6.99-6.21-6.99zM52.95 55.18c-.66 0-.99-.21-.99-.99v-6.15c0-3.63-2.34-5.58-6.42-5.58-3.87 0-6.45 1.86-6.78 4.86h3.18c.24-1.35 1.53-2.25 3.45-2.25 2.13 0 3.36 1.05 3.36 2.76v.93h-3.87c-4.29 0-6.57 1.77-6.57 4.92 0 2.85 2.34 4.5 5.7 4.5 2.49 0 4.05-1.08 5.07-2.64 0 1.53.72 2.46 2.82 2.46h1.71v-2.82h-.66zm-4.2-3.48c-.03 2.37-1.59 3.96-4.29 3.96-1.77 0-2.85-.9-2.85-2.19 0-1.56 1.11-2.31 3.12-2.31h4.02v.54zm24.295-9.24c-2.52 0-4.26 1.11-5.25 2.79-.93-1.98-2.73-2.79-4.74-2.79-2.31.03-3.63 1.05-4.5 2.19l-.36-2.01h-2.82V58h3.24v-8.22c0-2.73 1.38-4.53 3.6-4.53 2.13 0 3.24 1.41 3.24 4.11V58h3.27v-8.31c0-2.76 1.41-4.44 3.63-4.44 2.1 0 3.21 1.41 3.21 4.11V58h3.24v-8.85c0-4.86-2.58-6.69-5.76-6.69zm16.917 0c-2.4 0-3.99 1.11-5.01 2.46l-.39-2.28h-2.82V64h3.24v-8.16c.96 1.38 2.61 2.34 4.98 2.34 4.2 0 7.26-3.12 7.26-7.86 0-4.92-3.06-7.86-7.26-7.86zm-.54 12.99c-2.7 0-4.47-2.13-4.47-5.19 0-2.97 1.77-5.04 4.47-5.04 2.7 0 4.5 2.07 4.5 5.1 0 3-1.8 5.13-4.5 5.13zm12.047-14.97c1.11 0 1.98-.81 1.98-1.95s-.87-1.95-1.98-1.95c-1.11 0-1.98.81-1.98 1.95s.87 1.95 1.98 1.95zM99.819 58h3.24V42.64h-3.24V58zm13.676.18c4.68 0 7.83-3.15 7.83-7.86 0-4.68-3.15-7.86-7.83-7.86s-7.83 3.18-7.83 7.86c0 4.71 3.15 7.86 7.83 7.86zm0-2.76c-2.73 0-4.5-2.13-4.5-5.1 0-2.97 1.77-5.1 4.5-5.1s4.53 2.13 4.53 5.1c0 2.97-1.8 5.1-4.53 5.1zm18.535-12.96c-2.49 0-3.96.99-4.92 2.19l-.36-2.01h-2.82V58h3.24v-7.74c0-3.12 1.53-5.01 4.11-5.01 2.43 0 3.66 1.56 3.66 4.47V58h3.27v-8.55c0-5.13-2.79-6.99-6.18-6.99zm8.466 10.47c.09 3.33 2.91 5.25 7.02 5.25 3.72 0 6.51-1.86 6.51-4.8 0-3.42-2.85-4.14-6.36-4.56-2.22-.24-3.69-.42-3.69-1.86 0-1.23 1.26-2.01 3.18-2.01 1.92 0 3.24.99 3.42 2.4h3.18c-.21-3.15-2.88-4.89-6.66-4.89-3.69-.03-6.3 1.86-6.3 4.77 0 3.18 2.76 3.93 6.27 4.35 2.37.3 3.78.42 3.78 2.07 0 1.23-1.32 2.01-3.33 2.01-2.34 0-3.72-1.14-3.84-2.73h-3.18zM163.283 58h14.88v-2.91h-10.17l5.58-4.65c2.55-2.13 4.44-4.08 4.44-7.2 0-3.84-2.64-6.42-7.35-6.42-4.47 0-7.35 2.91-7.35 6.9v.54h3.33v-.36c0-2.61 1.62-4.23 4.02-4.23 2.4 0 3.99 1.32 3.99 3.72 0 2.01-1.41 3.48-3.3 5.07l-8.07 6.87V58zm20.726-18.87c0 1.11-.45 1.89-1.53 1.89h-3.27v2.85h3.42c.57 0 1.02-.09 1.32-.27V58h3.33V37h-3.27v2.13zm8.426 22.77l8.52-25.8h-3.15l-8.49 25.8h3.12zm9.022-3.9h14.88v-2.91h-10.17l5.58-4.65c2.55-2.13 4.44-4.08 4.44-7.2 0-3.84-2.64-6.42-7.35-6.42-4.47 0-7.35 2.91-7.35 6.9v.54h3.33v-.36c0-2.61 1.62-4.23 4.02-4.23 2.4 0 3.99 1.32 3.99 3.72 0 2.01-1.41 3.48-3.3 5.07l-8.07 6.87V58zm16.406 0h14.88v-2.91h-10.17l5.58-4.65c2.55-2.13 4.44-4.08 4.44-7.2 0-3.84-2.64-6.42-7.35-6.42-4.47 0-7.35 2.91-7.35 6.9v.54h3.33v-.36c0-2.61 1.62-4.23 4.02-4.23 2.4 0 3.99 1.32 3.99 3.72 0 2.01-1.41 3.48-3.3 5.07l-8.07 6.87V58z" fill="#000"/></svg>