<svg width="82" height="100" viewBox="0 0 82 100" fill="none" xmlns="http://www.w3.org/2000/svg"><path d="M.64 3.864h6.912V23h3.68V3.864h6.912V.6H.64v3.264zm26.594 2.752c-2.688 0-4 1.088-4.832 2.464l-.384-2.464h-3.072V23h3.456v-8.224c0-2.528.992-4.928 4.064-4.928h1.536V6.616h-.768zm17.375 13.376c-.703 0-1.056-.224-1.056-1.056v-6.56c0-3.872-2.495-5.952-6.847-5.952-4.129 0-6.88 1.984-7.233 5.184h3.392c.256-1.44 1.633-2.4 3.68-2.4 2.273 0 3.584 1.12 3.584 2.944v.992h-4.127c-4.577 0-7.009 1.888-7.009 5.248 0 3.04 2.497 4.8 6.08 4.8 2.657 0 4.32-1.152 5.408-2.816 0 1.632.768 2.624 3.008 2.624h1.825v-3.008h-.705zm-4.48-3.712c-.032 2.528-1.695 4.224-4.575 4.224-1.889 0-3.04-.96-3.04-2.336 0-1.664 1.183-2.464 3.328-2.464h4.288v.576zm19.39-7.392c-1.056-1.44-2.816-2.464-5.312-2.464-4.448 0-7.744 3.328-7.744 8.384 0 5.248 3.296 8.384 7.744 8.384 2.592 0 4.288-1.216 5.344-2.656L59.967 23h3.008V.6h-3.456v8.288zM54.783 20.28c-2.88 0-4.768-2.24-4.768-5.472 0-3.2 1.888-5.44 4.768-5.44s4.768 2.24 4.768 5.504c0 3.168-1.888 5.408-4.768 5.408zm19.345 2.912c4.064 0 6.816-2.464 7.392-5.696h-3.456c-.48 1.824-2.016 2.88-4.128 2.88-2.72 0-4.48-1.824-4.576-4.608v-.224h12.352c.064-.448.096-.896.096-1.312-.096-4.8-3.264-7.808-8-7.808-4.832 0-8.064 3.36-8.064 8.416 0 5.024 3.232 8.352 8.384 8.352zm-4.64-10.176c.256-2.336 2.144-3.808 4.352-3.808 2.4 0 4.096 1.376 4.384 3.808h-8.736zM.64 41.864h6.912V61h3.68V41.864h6.912V38.6H.64v3.264zm24.738 19.328c4.064 0 6.816-2.464 7.392-5.696h-3.456c-.48 1.824-2.016 2.88-4.128 2.88-2.72 0-4.48-1.824-4.576-4.608v-.224h12.352c.064-.448.096-.896.096-1.312-.096-4.8-3.264-7.808-8-7.808-4.832 0-8.064 3.36-8.064 8.416 0 5.024 3.232 8.352 8.384 8.352zm-4.64-10.176c.256-2.336 2.144-3.808 4.352-3.808 2.4 0 4.096 1.376 4.384 3.808h-8.736zm14.316 4.576c.096 3.552 3.104 5.6 7.488 5.6 3.968 0 6.944-1.984 6.944-5.12 0-3.648-3.04-4.416-6.783-4.864-2.369-.256-3.937-.448-3.937-1.984 0-1.312 1.345-2.144 3.392-2.144 2.048 0 3.456 1.056 3.648 2.56H49.2c-.224-3.36-3.072-5.216-7.105-5.216-3.936-.032-6.72 1.984-6.72 5.088 0 3.392 2.944 4.192 6.688 4.64 2.529.32 4.032.448 4.032 2.208 0 1.312-1.407 2.144-3.552 2.144-2.495 0-3.968-1.216-4.096-2.912h-3.392zM52.164 61h3.457V38.6h-3.456V61zm21.82-3.008c-.703 0-1.055-.224-1.055-1.056v-6.56c0-3.872-2.496-5.952-6.849-5.952-4.127 0-6.88 1.984-7.231 5.184h3.392c.255-1.44 1.632-2.4 3.68-2.4 2.271 0 3.583 1.12 3.583 2.944v.992h-4.128c-4.576 0-7.008 1.888-7.008 5.248 0 3.04 2.496 4.8 6.08 4.8 2.657 0 4.32-1.152 5.409-2.816 0 1.632.767 2.624 3.008 2.624h1.824v-3.008h-.704zm-4.48-3.712c-.032 2.528-1.696 4.224-4.576 4.224-1.887 0-3.04-.96-3.04-2.336 0-1.664 1.184-2.464 3.328-2.464h4.288v.576zM11.776 99.192c5.216 0 9.024-3.072 9.728-7.808h-3.808c-.704 2.848-2.848 4.576-5.952 4.576-4.224 0-6.784-3.392-6.784-8.16 0-4.8 2.624-8.16 6.88-8.16 3.04 0 5.152 1.76 5.888 4.576h3.808C20.8 79.48 17.12 76.408 12 76.408c-6.624 0-10.816 4.576-10.816 11.392 0 6.88 4.064 11.392 10.592 11.392zM24.548 99h3.68v-9.472h8.768V86.36h-8.768v-6.496h10.624V76.6H24.548V99zm24.741 0c7.008 0 11.424-4.576 11.424-11.232S56.297 76.6 49.289 76.6h-7.616V99h7.616zm-3.936-19.2h3.936c4.928 0 7.648 3.168 7.648 7.968s-2.72 8.032-7.648 8.032h-3.936v-16zm17.545 13.792c.096 3.552 3.104 5.6 7.488 5.6 3.968 0 6.944-1.984 6.944-5.12 0-3.648-3.04-4.416-6.784-4.864-2.368-.256-3.936-.448-3.936-1.984 0-1.312 1.344-2.144 3.392-2.144s3.456 1.056 3.648 2.56h3.392c-.224-3.36-3.072-5.216-7.104-5.216-3.936-.032-6.72 1.984-6.72 5.088 0 3.392 2.944 4.192 6.688 4.64 2.528.32 4.032.448 4.032 2.208 0 1.312-1.408 2.144-3.552 2.144-2.496 0-3.968-1.216-4.096-2.912h-3.392z" fill="#000"/></svg>