<svg width="134" height="95" viewBox="0 0 134 95" fill="none" xmlns="http://www.w3.org/2000/svg"><path d="M3.512 15h5.103c3.423 0 5.187-1.554 5.187-4.095 0-2.1-1.365-3.213-3.318-3.507 1.638-.42 2.646-1.533 2.646-3.318C13.13 1.749 11.492.3 8.531.3H3.512V15zM8.573 1.329c2.205 0 3.423 1.071 3.423 2.814 0 1.764-1.239 2.835-3.423 2.835H4.646V1.329h3.927zm.042 6.678c2.541 0 4.011 1.029 4.011 2.961 0 1.848-1.365 3.003-4.011 3.003H4.646V8.007h3.969zm12.084 7.119c2.331 0 4.116-1.512 4.578-3.654h-1.092c-.42 1.659-1.827 2.688-3.57 2.688-2.373 0-3.864-1.806-3.906-4.284v-.189h8.694c0-.147.021-.315.021-.441-.105-3.171-2.058-5.019-4.914-5.019-2.919 0-4.914 2.226-4.914 5.376 0 3.339 2.08 5.523 5.103 5.523zm-3.906-6.342c.168-2.163 1.785-3.612 3.738-3.612 2.08 0 3.57 1.281 3.738 3.612h-7.476zM34 12.522c0 1.701.693 2.478 2.5 2.478h1.553v-.987h-1.47c-1.113 0-1.512-.42-1.512-1.512V5.34h2.877v-.987H35.07V1.371H34v2.982h-2.017v.987H34v7.182zm10.597-8.295c-1.995 0-3.234 1.113-3.843 2.646V.3h-1.071V15h1.07V9.75c0-2.772 1.408-4.536 3.676-4.536 2.037 0 3.297 1.344 3.297 3.864V15h1.07V9.036c0-3.36-1.784-4.809-4.2-4.809zm11.13 10.899c2.332 0 4.117-1.512 4.579-3.654h-1.092c-.42 1.659-1.827 2.688-3.57 2.688-2.373 0-3.864-1.806-3.906-4.284v-.189h8.694c0-.147.02-.315.02-.441-.104-3.171-2.057-5.019-4.913-5.019-2.92 0-4.914 2.226-4.914 5.376 0 3.339 2.079 5.523 5.103 5.523zm-3.905-6.342c.168-2.163 1.785-3.612 3.738-3.612 2.079 0 3.57 1.281 3.738 3.612H51.82zm28.63-4.662c-1.764 0-2.982.777-3.675 1.953-.651-1.386-1.911-1.953-3.318-1.953-1.617.021-2.541.735-3.15 1.533l-.252-1.407h-1.974V15h2.268V9.246c0-1.911.966-3.171 2.52-3.171 1.49 0 2.268.987 2.268 2.877V15h2.289V9.183c0-1.932.987-3.108 2.54-3.108 1.47 0 2.248.987 2.248 2.877V15h2.268V8.805c0-3.402-1.806-4.683-4.032-4.683zm15.916 8.904c-.462 0-.693-.147-.693-.693V8.028c0-2.541-1.638-3.906-4.494-3.906-2.71 0-4.515 1.302-4.746 3.402h2.226c.168-.945 1.07-1.575 2.415-1.575 1.49 0 2.352.735 2.352 1.932v.651h-2.71c-3.002 0-4.598 1.239-4.598 3.444 0 1.995 1.638 3.15 3.99 3.15 1.743 0 2.835-.756 3.549-1.848 0 1.071.504 1.722 1.974 1.722h1.197v-1.974h-.462zm-2.94-2.436c-.021 1.659-1.113 2.772-3.003 2.772-1.24 0-1.995-.63-1.995-1.533 0-1.092.777-1.617 2.184-1.617h2.814v.378zm4.175.861c.063 2.331 2.037 3.675 4.914 3.675 2.604 0 4.557-1.302 4.557-3.36 0-2.394-1.995-2.898-4.452-3.192-1.554-.168-2.583-.294-2.583-1.302 0-.861.882-1.407 2.226-1.407 1.344 0 2.268.693 2.394 1.68h2.226c-.147-2.205-2.016-3.423-4.662-3.423-2.583-.021-4.41 1.302-4.41 3.339 0 2.226 1.932 2.751 4.389 3.045 1.659.21 2.646.294 2.646 1.449 0 .861-.924 1.407-2.331 1.407-1.638 0-2.604-.798-2.688-1.911h-2.226zm12.006.63c0 1.953.882 2.919 2.94 2.919h2.1v-1.995h-1.596c-.861 0-1.155-.315-1.155-1.155V6.243h2.625V4.248h-2.625V1.245h-2.289v3.003h-1.869v1.995h1.869v5.838zm11.36 3.045c2.667 0 4.473-1.617 4.851-3.738h-2.268c-.315 1.197-1.323 1.89-2.709 1.89-1.785 0-2.94-1.197-3.003-3.024v-.147h8.106a6.16 6.16 0 00.063-.861c-.063-3.15-2.142-5.124-5.25-5.124-3.171 0-5.292 2.205-5.292 5.523 0 3.297 2.121 5.481 5.502 5.481zm-3.045-6.678c.168-1.533 1.407-2.499 2.856-2.499 1.575 0 2.688.903 2.877 2.499h-5.733zm15.358-4.2c-1.764 0-2.625.714-3.171 1.617l-.252-1.617h-2.016V15h2.268V9.603c0-1.659.651-3.234 2.667-3.234h1.008V4.248h-.504zM8.195 40.126c3.276 0 5.481-2.205 5.481-5.502 0-3.276-2.205-5.502-5.481-5.502s-5.481 2.226-5.481 5.502c0 3.297 2.205 5.502 5.481 5.502zm0-1.932c-1.911 0-3.15-1.491-3.15-3.57 0-2.079 1.239-3.57 3.15-3.57 1.911 0 3.171 1.491 3.171 3.57 0 2.079-1.26 3.57-3.171 3.57zm6.13-6.951h1.87V40h2.289v-8.757h2.877v-1.995h-2.92v-.903c0-.735.316-1.05 1.05-1.05h1.87V25.3h-2.163c-2.08 0-3.003 1.008-3.003 2.94v1.008h-1.87v1.995zm16.69 8.82l-.42 1.05c-.336.882-.546 1.092-1.428 1.092H27.57V44.2h2.436c1.575 0 2.037-.777 2.709-2.52l4.872-12.432h-2.415l-2.92 8.169-3.002-8.169h-2.415l4.179 10.815zm12.31.063c3.276 0 5.48-2.205 5.48-5.502 0-3.276-2.204-5.502-5.48-5.502-3.276 0-5.481 2.226-5.481 5.502 0 3.297 2.205 5.502 5.48 5.502zm0-1.932c-1.911 0-3.15-1.491-3.15-3.57 0-2.079 1.239-3.57 3.15-3.57 1.91 0 3.17 1.491 3.17 3.57 0 2.079-1.26 3.57-3.17 3.57zM58 34.624c0 2.226-1.05 3.528-2.772 3.528-1.66 0-2.5-1.071-2.5-3.171v-5.733h-2.267v5.985c0 3.675 1.953 4.893 4.242 4.893 1.659 0 2.646-.672 3.318-1.491L58.274 40h1.995V29.248H58v5.376zm9.942-5.376c-1.764 0-2.625.714-3.171 1.617l-.252-1.617h-2.016V40h2.268v-5.397c0-1.659.65-3.234 2.667-3.234h1.008v-2.121h-.504zM4.268 52.736c.777 0 1.386-.567 1.386-1.365s-.609-1.365-1.386-1.365c-.777 0-1.386.567-1.386 1.365s.609 1.365 1.386 1.365zM3.113 65h2.268V54.248H3.113V65zm10.161-10.878c-1.743 0-2.772.693-3.444 1.533l-.252-1.407H7.604V65h2.268v-5.418c0-2.184 1.071-3.507 2.877-3.507 1.701 0 2.562 1.092 2.562 3.129V65h2.29v-5.985c0-3.591-1.954-4.893-4.327-4.893zM22.11 65h2.772l3.969-10.752h-2.394l-2.92 8.316-2.96-8.316H18.14L22.11 65zm12.5.126c2.667 0 4.473-1.617 4.85-3.738h-2.267c-.315 1.197-1.323 1.89-2.71 1.89-1.784 0-2.94-1.197-3.002-3.024v-.147h8.106a6.16 6.16 0 00.063-.861c-.063-3.15-2.142-5.124-5.25-5.124-3.171 0-5.292 2.205-5.292 5.523 0 3.297 2.12 5.481 5.502 5.481zm-3.045-6.678c.168-1.533 1.407-2.499 2.856-2.499 1.575 0 2.688.903 2.877 2.499h-5.733zm9.395 3.003c.063 2.331 2.037 3.675 4.914 3.675 2.604 0 4.557-1.302 4.557-3.36 0-2.394-1.995-2.898-4.452-3.192-1.554-.168-2.583-.294-2.583-1.302 0-.861.882-1.407 2.226-1.407 1.344 0 2.268.693 2.394 1.68h2.226c-.147-2.205-2.016-3.423-4.662-3.423-2.583-.021-4.41 1.302-4.41 3.339 0 2.226 1.932 2.751 4.389 3.045 1.659.21 2.646.294 2.646 1.449 0 .861-.924 1.407-2.331 1.407-1.638 0-2.604-.798-2.688-1.911H40.96zm12.005.63c0 1.953.882 2.919 2.94 2.919h2.1v-1.995H56.41c-.86 0-1.155-.315-1.155-1.155v-5.607h2.625v-1.995h-2.625v-3.003h-2.289v3.003h-1.869v1.995h1.87v5.838zm18.852-7.959c-1.764 0-2.982.777-3.675 1.953-.651-1.386-1.911-1.953-3.318-1.953-1.617.021-2.541.735-3.15 1.533l-.252-1.407h-1.974V65h2.268v-5.754c0-1.911.966-3.171 2.52-3.171 1.491 0 2.268.987 2.268 2.877V65h2.289v-5.817c0-1.932.987-3.108 2.541-3.108 1.47 0 2.247.987 2.247 2.877V65h2.268v-6.195c0-3.402-1.806-4.683-4.032-4.683zm11.109 11.004c2.667 0 4.473-1.617 4.851-3.738h-2.268c-.315 1.197-1.323 1.89-2.709 1.89-1.785 0-2.94-1.197-3.003-3.024v-.147h8.106a6.16 6.16 0 00.063-.861c-.063-3.15-2.142-5.124-5.25-5.124-3.171 0-5.292 2.205-5.292 5.523 0 3.297 2.121 5.481 5.502 5.481zm-3.045-6.678c.168-1.533 1.407-2.499 2.856-2.499 1.575 0 2.688.903 2.877 2.499h-5.733zm15.588-4.326c-1.742 0-2.771.693-3.444 1.533l-.252-1.407H89.8V65h2.268v-5.418c0-2.184 1.072-3.507 2.878-3.507 1.7 0 2.562 1.092 2.562 3.129V65h2.288v-5.985c0-3.591-1.953-4.893-4.326-4.893zm7.166 7.959c0 1.953.882 2.919 2.94 2.919h2.1v-1.995h-1.596c-.861 0-1.155-.315-1.155-1.155v-5.607h2.625v-1.995h-2.625v-3.003h-2.289v3.003h-1.869v1.995h1.869v5.838zM3.911 77.106a.74.74 0 00.756-.756.74.74 0 00-.756-.756.74.74 0 00-.756.756.74.74 0 00.756.756zM.656 94.2h1.302c1.785 0 2.499-.777 2.499-2.478V79.353H3.386v12.39c0 1.05-.399 1.47-1.47 1.47H.656v.987zm11.02-4.074c3.003 0 5.124-2.226 5.124-5.46 0-3.213-2.121-5.439-5.124-5.439-3.003 0-5.103 2.226-5.103 5.439 0 3.234 2.1 5.46 5.103 5.46zm0-.966c-2.373 0-4.011-1.848-4.011-4.494 0-2.625 1.638-4.494 4.01-4.494 2.374 0 4.012 1.869 4.012 4.494 0 2.646-1.638 4.494-4.011 4.494zm14.98-4.578c0 2.793-1.386 4.557-3.591 4.557-1.974 0-3.192-1.344-3.192-3.885v-5.901h-1.071v5.964c0 3.339 1.743 4.809 4.095 4.809 1.89 0 3.129-1.008 3.738-2.373L26.782 90h.945V79.353h-1.071v5.229zm7.94-5.229c-1.975 0-2.815.945-3.256 2.121l-.168-2.121h-.924V90h1.071v-5.397c0-2.163.567-4.221 3.066-4.221h.777v-1.029h-.567zm7.067-.126c-1.953 0-3.213 1.008-3.822 2.394l-.168-2.268h-.924V90h1.071v-5.25c0-2.772 1.407-4.536 3.675-4.536 2.058 0 3.297 1.344 3.297 3.864V90h1.071v-5.964c0-3.36-1.785-4.809-4.2-4.809zm11.11 10.899c2.332 0 4.117-1.512 4.579-3.654H56.26c-.42 1.659-1.827 2.688-3.57 2.688-2.373 0-3.864-1.806-3.906-4.284v-.189h8.694c0-.147.02-.315.02-.441-.104-3.171-2.057-5.019-4.913-5.019-2.92 0-4.914 2.226-4.914 5.376 0 3.339 2.079 5.523 5.103 5.523zm-3.905-6.342c.168-2.163 1.785-3.612 3.738-3.612 2.079 0 3.57 1.281 3.738 3.612h-7.476zM62.356 90l-.693 1.722c-.483 1.176-.672 1.491-1.764 1.491h-1.344v.987h1.638c1.428 0 1.764-.546 2.436-2.226l5.103-12.621h-1.155l-3.633 9.261-3.696-9.261h-1.155L62.356 90z" fill="#000"/></svg>