<svg width="257" height="70" viewBox="0 0 257 70" fill="none" xmlns="http://www.w3.org/2000/svg"><path d="M1.304 26h9.576c6.084 0 9.36-2.736 9.36-7.2 0-3.6-2.304-5.364-5.292-5.832 2.628-.72 4.32-2.52 4.32-5.508C19.268 3.32 16.1.8 10.556.8H1.304V26zm9.36-21.744c2.88 0 4.464 1.368 4.464 3.6 0 2.268-1.62 3.636-4.464 3.636h-5.22V4.256h5.22zm.252 10.656c3.204 0 5.076 1.368 5.076 3.852 0 2.34-1.764 3.744-5.076 3.744H5.444v-7.596h5.472zm14.542-9.936c1.332 0 2.376-.972 2.376-2.34 0-1.368-1.044-2.34-2.376-2.34-1.332 0-2.376.972-2.376 2.34 0 1.368 1.044 2.34 2.376 2.34zM23.478 26h3.888V7.568h-3.888V26zm21.776-15.552c-1.188-1.836-3.168-3.096-6.048-3.096-5.005 0-8.713 3.708-8.713 9.36 0 5.868 3.709 9.36 8.713 9.36 2.88 0 4.787-1.188 6.011-3.024V25.1c0 3.528-1.907 5.148-5.291 5.148-2.736 0-4.537-1.188-5.005-3.24h-3.96c.36 4.14 3.78 6.408 8.677 6.408 6.623 0 9.431-3.168 9.431-8.172V7.568h-3.384l-.431 2.88zm-5.4 12.348c-3.24 0-5.364-2.484-5.364-6.084 0-3.564 2.123-6.084 5.363-6.084s5.364 2.52 5.364 6.156c0 3.528-2.123 6.012-5.364 6.012zm23.558-1.8c0 3.348 1.512 5.004 5.04 5.004h3.6v-3.42h-2.736c-1.476 0-1.98-.54-1.98-1.98v-9.612h4.5v-3.42h-4.5V2.42h-3.924v5.148h-3.204v3.42h3.204v10.008zm19.474 5.22c4.573 0 7.669-2.772 8.317-6.408h-3.889c-.54 2.052-2.267 3.24-4.643 3.24-3.06 0-5.04-2.052-5.149-5.184v-.252h13.896c.072-.504.108-1.008.108-1.476-.108-5.4-3.671-8.784-9-8.784-5.435 0-9.072 3.78-9.072 9.468 0 5.652 3.637 9.396 9.433 9.396zm-5.22-11.448c.288-2.628 2.413-4.284 4.897-4.284 2.7 0 4.608 1.548 4.931 4.284h-9.828zm25.464 11.448c4.716 0 7.848-2.628 8.568-6.804h-4.104c-.468 2.124-2.052 3.492-4.428 3.492-3.132 0-5.184-2.484-5.184-6.084 0-3.636 2.052-6.156 5.184-6.156 2.412 0 3.96 1.332 4.464 3.492h4.068c-.756-4.176-3.708-6.804-8.46-6.804-5.58 0-9.252 3.78-9.252 9.468 0 5.76 3.564 9.396 9.144 9.396zm21.228-18.864c-2.88 0-4.644 1.296-5.796 2.88V.8h-3.888V26h3.888v-9.324c0-3.708 1.872-5.976 4.932-5.976 2.88 0 4.428 1.872 4.428 5.364V26h3.888V15.74c0-6.156-3.348-8.388-7.452-8.388zm21.53 13.644c0 3.348 1.512 5.004 5.04 5.004h3.6v-3.42h-2.736c-1.476 0-1.98-.54-1.98-1.98v-9.612h4.5v-3.42h-4.5V2.42h-3.924v5.148h-3.204v3.42h3.204v10.008zm19.439 5.22c5.616 0 9.396-3.78 9.396-9.432 0-5.616-3.78-9.432-9.396-9.432-5.616 0-9.396 3.816-9.396 9.432 0 5.652 3.78 9.432 9.396 9.432zm0-3.312c-3.276 0-5.4-2.556-5.4-6.12s2.124-6.12 5.4-6.12c3.276 0 5.436 2.556 5.436 6.12s-2.16 6.12-5.436 6.12zM10.772 50.352c-2.844 0-4.752 1.296-5.976 2.952V43.8H.908V69h3.384l.468-2.664c1.152 1.656 3.132 2.88 6.012 2.88 5.04 0 8.712-3.78 8.712-9.432 0-5.94-3.672-9.432-8.712-9.432zm-.648 15.588c-3.24 0-5.364-2.556-5.364-6.192 0-3.564 2.124-6.084 5.364-6.084 3.24 0 5.4 2.52 5.4 6.12 0 3.636-2.16 6.156-5.4 6.156zm25.111-6.156c0 3.816-1.8 6.048-4.752 6.048-2.844 0-4.284-1.836-4.284-5.436v-9.828h-3.888v10.26c0 6.3 3.348 8.388 7.272 8.388 2.844 0 4.536-1.152 5.688-2.556l.432 2.34h3.42V50.568h-3.888v9.216zm16.18 9.432c4.716 0 7.848-2.628 8.568-6.804h-4.104c-.468 2.124-2.052 3.492-4.428 3.492-3.132 0-5.184-2.484-5.184-6.084 0-3.636 2.052-6.156 5.184-6.156 2.412 0 3.96 1.332 4.464 3.492h4.068c-.756-4.176-3.708-6.804-8.46-6.804-5.58 0-9.252 3.78-9.252 9.468 0 5.76 3.564 9.396 9.144 9.396zM62.959 69h3.888v-4.68l3.312-3.456L75.595 69h4.608l-7.38-10.98 6.948-7.452h-4.572l-8.352 8.928V43.8h-3.888V69zm29.668-5.004c0 3.348 1.512 5.004 5.04 5.004h3.6v-3.42h-2.736c-1.476 0-1.98-.54-1.98-1.98v-9.612h4.5v-3.42h-4.5V45.42h-3.924v5.148h-3.204v3.42h3.204v10.008zm20.797-13.644c-2.88 0-4.644 1.296-5.796 2.88V43.8h-3.888V69h3.888v-9.324c0-3.708 1.872-5.976 4.932-5.976 2.88 0 4.428 1.872 4.428 5.364V69h3.888V58.74c0-6.156-3.348-8.388-7.452-8.388zm19.595 18.864c4.572 0 7.668-2.772 8.316-6.408h-3.888c-.54 2.052-2.268 3.24-4.644 3.24-3.06 0-5.04-2.052-5.148-5.184v-.252h13.896c.072-.504.108-1.008.108-1.476-.108-5.4-3.672-8.784-9-8.784-5.436 0-9.072 3.78-9.072 9.468 0 5.652 3.636 9.396 9.432 9.396zm-5.22-11.448c.288-2.628 2.412-4.284 4.896-4.284 2.7 0 4.608 1.548 4.932 4.284h-9.828zm27.546 6.228c0 3.348 1.512 5.004 5.04 5.004h3.6v-3.42h-2.736c-1.476 0-1.98-.54-1.98-1.98v-9.612h4.5v-3.42h-4.5V45.42h-3.924v5.148h-3.204v3.42h3.204v10.008zm20.438-13.428c-3.024 0-4.5 1.224-5.436 2.772l-.432-2.772h-3.456V69h3.888v-9.252c0-2.844 1.116-5.544 4.572-5.544h1.728v-3.636h-.864zm11.131 18.648c4.572 0 7.668-2.772 8.316-6.408h-3.888c-.54 2.052-2.268 3.24-4.644 3.24-3.06 0-5.04-2.052-5.148-5.184v-.252h13.896c.072-.504.108-1.008.108-1.476-.108-5.4-3.672-8.784-9-8.784-5.436 0-9.072 3.78-9.072 9.468 0 5.652 3.636 9.396 9.432 9.396zm-5.22-11.448c.288-2.628 2.412-4.284 4.896-4.284 2.7 0 4.608 1.548 4.932 4.284h-9.828zm26.723-7.416c-2.988 0-4.752 1.188-5.904 2.628l-.432-2.412h-3.384V69h3.888v-9.288c0-3.744 1.836-6.012 4.932-6.012 2.916 0 4.392 1.872 4.392 5.364V69h3.924V58.74c0-6.156-3.348-8.388-7.416-8.388zm24.815 2.772c-1.188-1.62-3.168-2.772-5.976-2.772-5.004 0-8.712 3.744-8.712 9.432 0 5.904 3.708 9.432 8.712 9.432 2.916 0 4.824-1.368 6.012-2.988l.468 2.772h3.384V43.8h-3.888v9.324zm-5.328 12.816c-3.24 0-5.364-2.52-5.364-6.156 0-3.6 2.124-6.12 5.364-6.12 3.24 0 5.364 2.52 5.364 6.192 0 3.564-2.124 6.084-5.364 6.084zm16.112-13.896c0-2.988 1.8-5.004 4.572-5.004 2.412 0 4.032 1.44 4.032 3.492 0 1.728-.936 2.88-2.556 3.96-2.16 1.404-3.852 2.592-3.852 5.508v1.152h3.672v-.72c0-1.8 1.224-2.736 3.168-4.068 1.872-1.332 3.6-2.916 3.6-6.228 0-3.78-3.096-6.552-8.1-6.552-5.364 0-8.496 3.78-8.496 8.46h3.96zm1.656 14.76c0 1.44 1.08 2.412 2.484 2.412s2.448-.972 2.448-2.412-1.044-2.412-2.448-2.412-2.484.972-2.484 2.412z" fill="#000"/></svg>