<svg width="300" height="600" viewBox="0 0 300 600" fill="none" xmlns="http://www.w3.org/2000/svg"><path d="M38.238 108.425c0-8.954-15.264-3.932-15.264-10.738 0-3.205 2.478-4.692 6.31-4.692 4.395 0 6.542 1.784 6.773 5.518 0 .132.133.264.265.264h1.222a.284.284 0 00.265-.264c-.33-4.626-3.337-6.971-8.525-6.971-4.592 0-7.896 2.147-7.896 6.277 0 8.525 15.231 3.403 15.231 10.738 0 3.8-2.974 5.32-6.674 5.32-5.055 0-7.038-2.511-7.302-6.674a.284.284 0 00-.264-.265h-1.223a.284.284 0 00-.264.265c.231 5.055 3.205 8.094 8.954 8.094 4.725 0 8.392-2.246 8.392-6.872zm16.586.562c-.132 0-.297.099-.297.264-.562 3.007-2.313 4.824-5.386 4.824-4.03 0-6.046-2.809-6.046-7.599l12.853-.033c.132 0 .264-.133.264-.265-.099-5.418-2.808-8.557-7.302-8.557-4.592 0-7.467 3.7-7.467 8.921 0 5.22 2.643 8.821 7.666 8.821 4.063 0 6.376-2.378 7.004-6.112 0-.132-.1-.264-.231-.264h-1.058zm-.363-3.866h-11.3c.397-3.8 2.38-6.212 5.75-6.212 3.6 0 5.517 2.776 5.55 6.212zM61.367 115a.284.284 0 00.264-.264l-.033-7.038v-3.7c1.124-3.106 2.842-5.022 5.386-5.022 2.577 0 4.295 1.552 4.295 5.649v3.073l-.066 7.038c0 .132.132.264.264.264h1.157a.284.284 0 00.264-.264l-.033-7.038v-3.238c0-4.658-2.114-6.872-5.55-6.872-2.941 0-4.825 1.982-5.783 3.899l.066-3.238a.284.284 0 00-.264-.265h-1.123a.284.284 0 00-.265.265l.067 9.284-.067 7.203c0 .132.133.264.265.264h1.156zm16.733-8.656c0-4.13 1.718-7.468 5.55-7.468 3.437 0 5.452 2.941 5.42 7.798-.034 4.89-2.247 7.368-5.485 7.368-3.8 0-5.485-3.436-5.485-7.698zM90.325 115a.284.284 0 00.264-.264l-.066-13.58.066-9.02a.284.284 0 00-.264-.264h-1.157a.284.284 0 00-.264.264l.033 9.053c-1.09-2.313-3.04-3.568-5.65-3.568-4.394 0-6.806 3.998-6.806 8.888 0 4.956 2.346 8.821 6.806 8.821 2.71 0 4.659-1.42 5.716-3.766l-.066 3.172c0 .132.132.264.264.264h1.124zm12.956-11.002c1.123-3.073 2.709-5.022 5.088-5.022 2.445 0 4.031 1.519 4.031 5.649v3.271l-.066 6.84c0 .132.132.264.264.264h1.157a.284.284 0 00.264-.264l-.033-6.84v-3.436c0-.396 0-.76-.033-1.123 1.09-2.676 2.61-4.361 4.824-4.361 2.445 0 4.031 1.519 4.031 5.649v3.271l-.066 6.84c0 .132.132.264.264.264h1.156c.132 0 .265-.132.265-.264l-.033-6.84v-3.436c0-4.724-1.983-6.872-5.254-6.872-2.676 0-4.46 1.817-5.484 3.899-.694-2.677-2.445-3.9-4.923-3.9-2.776 0-4.527 1.95-5.485 3.9l.066-3.238a.284.284 0 00-.264-.265h-1.124a.284.284 0 00-.264.265l.066 9.647-.099 6.84c0 .132.132.264.264.264h1.19a.284.284 0 00.264-.264l-.066-6.84v-3.898zm39.923 2.511c0-5.32-2.676-8.888-7.599-8.888-4.89 0-7.6 3.568-7.6 8.888 0 5.319 2.71 8.854 7.6 8.854 4.923 0 7.599-3.568 7.599-8.854zm-13.514 0c0-4.626 1.983-7.566 5.915-7.6 3.931 0 5.914 3.007 5.914 7.6 0 4.625-1.95 7.566-5.914 7.566-3.932 0-5.915-2.941-5.915-7.566zM148.349 115a.284.284 0 00.264-.264l-.033-7.038v-3.7c1.123-3.106 2.842-5.022 5.386-5.022 2.577 0 4.295 1.552 4.295 5.649v3.073l-.066 7.038c0 .132.132.264.264.264h1.156c.133 0 .265-.132.265-.264l-.033-7.038v-3.238c0-4.658-2.115-6.872-5.551-6.872-2.941 0-4.824 1.982-5.782 3.899l.066-3.238a.284.284 0 00-.264-.265h-1.124a.284.284 0 00-.264.265l.066 9.284-.066 7.203c0 .132.132.264.264.264h1.157zm28.495-6.013c-.132 0-.297.099-.297.264-.562 3.007-2.313 4.824-5.386 4.824-4.031 0-6.046-2.809-6.046-7.599l12.852-.033a.285.285 0 00.265-.265c-.099-5.418-2.809-8.557-7.302-8.557-4.593 0-7.467 3.7-7.467 8.921 0 5.22 2.643 8.821 7.665 8.821 4.064 0 6.377-2.378 7.005-6.112 0-.132-.1-.264-.232-.264h-1.057zm-.363-3.866h-11.3c.396-3.8 2.379-6.212 5.749-6.212 3.601 0 5.518 2.776 5.551 6.212zm17.364-6.872c.066-.132-.033-.265-.165-.265h-1.223c-.165 0-.297.1-.363.265l-4.791 14.438-5.584-14.471a.406.406 0 00-.363-.232h-1.322c-.132 0-.231.133-.165.232l6.608 16.718-1.916 5.418c-.066.133.033.265.165.265h1.024c.166 0 .298-.099.364-.265l7.731-22.103zM22.478 149.344c0-4.13 1.718-7.401 5.55-7.401 3.437 0 5.452 2.874 5.42 7.731-.034 4.857-2.181 7.335-5.485 7.335-3.8 0-5.485-3.403-5.485-7.665zM34.703 158a.284.284 0 00.264-.264l-.099-8.558.1-7.929c0-.132-.133-.265-.265-.265h-1.124c-.132 0-.264.133-.264.265l.066 3.072c-1.09-2.378-3.04-3.667-5.716-3.667-4.394 0-6.806 3.965-6.806 8.855 0 4.956 2.346 8.788 6.806 8.788 2.71 0 4.659-1.42 5.716-3.766l-.066 3.205c0 .132.132.264.264.264h1.124zm6.08 0a.284.284 0 00.264-.264l-.033-7.038v-3.7c1.124-3.106 2.842-5.022 5.386-5.022 2.577 0 4.295 1.552 4.295 5.649v3.073l-.066 7.038c0 .132.132.264.264.264h1.157a.284.284 0 00.264-.264l-.033-7.038v-3.238c0-4.658-2.115-6.872-5.55-6.872-2.941 0-4.825 1.982-5.783 3.899l.066-3.238c0-.132-.132-.265-.264-.265h-1.123c-.133 0-.265.133-.265.265l.066 9.284-.066 7.203c0 .132.132.264.264.264h1.157zm27.913-16.751c.066-.132-.033-.265-.165-.265h-1.223c-.165 0-.297.1-.363.265l-4.791 14.438-5.584-14.471a.407.407 0 00-.363-.232h-1.322c-.132 0-.231.133-.165.232l6.608 16.718-1.916 5.418c-.066.133.033.265.165.265H60.6c.165 0 .297-.099.363-.265l7.732-22.103zm10.583 15.628c0-.133-.132-.232-.264-.199-.463.1-1.09.166-1.685.166-1.652 0-2.346-.76-2.346-3.304v-11.201h4.03a.284.284 0 00.265-.264v-.826c0-.132-.132-.265-.264-.265h-4.031l.033-3.997a.284.284 0 00-.265-.265h-1.156a.284.284 0 00-.264.265l.066 3.997h-1.95c-.132 0-.264.133-.264.265v.826c0 .132.132.264.264.264h1.95l-.033 11.201c0 3.601 1.652 4.724 3.865 4.724.595 0 1.289-.132 1.785-.264a.321.321 0 00.264-.33v-.793zm4.933-18.106a.284.284 0 00.264-.265v-1.784a.284.284 0 00-.264-.264h-1.157a.284.284 0 00-.264.264v1.784c0 .133.132.265.264.265h1.157zm0 19.229a.284.284 0 00.264-.264l-.033-8.756.033-7.731c0-.132-.132-.265-.264-.265h-1.157c-.132 0-.264.133-.264.265l.066 7.764-.066 8.723c0 .132.132.264.264.264h1.157zm6.485-11.002c1.124-3.073 2.71-5.022 5.088-5.022 2.446 0 4.031 1.519 4.031 5.649v3.271l-.066 6.84c0 .132.132.264.265.264h1.156a.284.284 0 00.264-.264l-.033-6.84v-3.436c0-.396 0-.76-.033-1.123 1.091-2.676 2.61-4.361 4.824-4.361 2.445 0 4.031 1.519 4.031 5.649v3.271l-.066 6.84c0 .132.132.264.264.264h1.157a.284.284 0 00.264-.264l-.033-6.84v-3.436c0-4.724-1.982-6.872-5.253-6.872-2.677 0-4.461 1.817-5.485 3.899-.694-2.677-2.445-3.899-4.923-3.899-2.775 0-4.526 1.949-5.485 3.899l.066-3.238c0-.132-.132-.265-.264-.265h-1.123c-.133 0-.265.133-.265.265l.066 9.647-.099 6.84c0 .132.132.264.265.264h1.19a.284.284 0 00.263-.264l-.066-6.84v-3.898zm38.106 4.989c-.132 0-.297.099-.297.264-.562 3.007-2.313 4.824-5.386 4.824-4.031 0-6.046-2.809-6.046-7.599l12.852-.033a.285.285 0 00.265-.265c-.099-5.418-2.809-8.557-7.302-8.557-4.593 0-7.467 3.7-7.467 8.921 0 5.22 2.643 8.821 7.665 8.821 4.064 0 6.377-2.378 7.005-6.112 0-.132-.1-.264-.232-.264h-1.057zm-.363-3.866h-11.3c.396-3.8 2.379-6.211 5.749-6.211 3.601 0 5.518 2.775 5.551 6.211zm4.343 12.588a.458.458 0 00.397-.231l1.354-2.28c.067-.132.133-.33.133-.495v-1.851c0-.132-.133-.264-.265-.264h-1.255c-.132 0-.265.132-.265.264v2.115l-.693 2.478c-.033.132.066.264.198.264h.396zm12.744-11.365c0-4.13 1.719-7.401 5.551-7.401 3.436 0 5.452 2.874 5.419 7.731-.033 4.857-2.181 7.335-5.485 7.335-3.799 0-5.485-3.403-5.485-7.665zM157.752 158c.132 0 .265-.132.265-.264l-.1-8.558.1-7.929c0-.132-.133-.265-.265-.265h-1.123c-.132 0-.264.133-.264.265l.066 3.072c-1.091-2.378-3.04-3.667-5.716-3.667-4.395 0-6.806 3.965-6.806 8.855 0 4.956 2.345 8.788 6.806 8.788 2.709 0 4.658-1.42 5.716-3.766l-.066 3.205c0 .132.132.264.264.264h1.123zm6.08 0c.133 0 .265-.132.265-.264l-.033-7.038v-3.7c1.123-3.106 2.841-5.022 5.385-5.022 2.577 0 4.295 1.552 4.295 5.649v3.073l-.066 7.038c0 .132.133.264.265.264h1.156a.284.284 0 00.264-.264l-.033-7.038v-3.238c0-4.658-2.114-6.872-5.55-6.872-2.941 0-4.824 1.982-5.782 3.899l.066-3.238a.285.285 0 00-.265-.265h-1.123c-.132 0-.264.133-.264.265l.066 9.284-.066 7.203c0 .132.132.264.264.264h1.156zm27.913-16.751a.181.181 0 00-.165-.265h-1.222c-.166 0-.298.1-.364.265l-4.791 14.438-5.583-14.471a.408.408 0 00-.364-.232h-1.321c-.133 0-.232.133-.166.232l6.608 16.718-1.916 5.418c-.066.133.033.265.165.265h1.024c.166 0 .298-.099.364-.265l7.731-22.103zM210.849 158a.321.321 0 00.33-.264l4.593-16.487c.033-.132-.066-.265-.198-.265h-1.025c-.165 0-.297.1-.33.265l-3.998 15.099-4.196-15.099a.322.322 0 00-.33-.265h-1.388c-.165 0-.297.1-.33.265l-3.932 15.165-4.295-15.165a.323.323 0 00-.331-.265h-1.123c-.132 0-.231.133-.198.265l4.956 16.487a.321.321 0 00.33.264h1.322a.321.321 0 00.33-.264l3.866-15.331 4.262 15.331a.321.321 0 00.33.264h1.355zm19.42-10.375l.033 3.238-.066 6.873c0 .132.132.264.264.264h1.157a.284.284 0 00.264-.264l-.033-6.906v-3.238c0-4.823-2.114-7.004-5.584-7.004-2.94 0-4.79 1.916-5.782 3.866l.099-9.318a.284.284 0 00-.264-.264h-1.156c-.132 0-.265.132-.265.264l.1 11.036-.1 11.564c0 .132.133.264.265.264h1.156a.284.284 0 00.264-.264l-.099-10.771c1.124-3.04 2.908-5.022 5.485-5.022 2.544 0 4.262 1.552 4.262 5.682zm18.584 4.362c-.132 0-.297.099-.297.264-.562 3.007-2.313 4.824-5.386 4.824-4.031 0-6.046-2.809-6.046-7.599l12.852-.033a.285.285 0 00.265-.265c-.099-5.418-2.809-8.557-7.302-8.557-4.593 0-7.467 3.7-7.467 8.921 0 5.22 2.643 8.821 7.665 8.821 4.064 0 6.377-2.378 7.005-6.112 0-.132-.099-.264-.232-.264h-1.057zm-.363-3.866h-11.3c.396-3.8 2.379-6.211 5.749-6.211 3.601 0 5.518 2.775 5.551 6.211zm6.873 9.879a.284.284 0 00.264-.264l-.066-10.309c.628-3.634 3.04-5.22 5.485-5.22.495 0 .892.033 1.222.132.132.033.264-.066.264-.198v-.892a.357.357 0 00-.264-.331c-.33-.099-.727-.132-1.156-.132-2.313 0-4.461 1.289-5.584 3.602l.099-3.139c0-.132-.132-.265-.264-.265h-1.157c-.132 0-.264.133-.264.265l.099 7.962-.099 8.525c0 .132.132.264.264.264h1.157zm21.365-6.013c-.132 0-.297.099-.297.264-.562 3.007-2.313 4.824-5.386 4.824-4.031 0-6.046-2.809-6.046-7.599l12.852-.033a.285.285 0 00.265-.265c-.099-5.418-2.809-8.557-7.302-8.557-4.593 0-7.467 3.7-7.467 8.921 0 5.22 2.643 8.821 7.665 8.821 4.064 0 6.377-2.378 7.005-6.112 0-.132-.1-.264-.232-.264h-1.057zm-.363-3.866h-11.3c.396-3.8 2.379-6.211 5.749-6.211 3.601 0 5.518 2.775 5.551 6.211zM32.753 197.498l-.066 3.238c0 .132.133.264.265.264h1.123a.284.284 0 00.264-.264l-.066-9.285.066-7.202c0-.132-.132-.265-.264-.265h-1.156c-.133 0-.265.133-.265.265l.033 7.037v3.701c-1.123 3.105-2.841 5.022-5.385 5.022-2.577 0-4.295-1.553-4.295-5.65v-3.073l.066-7.037c0-.132-.132-.265-.265-.265h-1.156c-.132 0-.264.133-.264.265l.033 7.037v3.238c0 4.659 2.114 6.872 5.55 6.872 2.941 0 4.824-1.982 5.782-3.898zm18.947-1.157c0-7.07-11.73-3.072-11.73-8.094 0-2.247 1.818-3.371 4.627-3.371 2.742 0 4.922 1.124 5.088 3.866 0 .132.132.264.264.264h.991a.284.284 0 00.265-.264c-.166-3.535-3.007-5.088-6.575-5.088-3.635 0-6.245 1.586-6.245 4.659 0 6.608 11.73 2.61 11.73 8.127 0 2.346-2.082 3.668-4.99 3.668-3.502 0-5.418-1.553-5.518-4.89a.284.284 0 00-.264-.264h-1.057a.284.284 0 00-.264.264c.099 4.163 2.808 6.112 7.07 6.112 3.7 0 6.608-1.85 6.608-4.989zm5.185-14.57a.284.284 0 00.265-.265v-1.784a.284.284 0 00-.265-.264H55.73a.284.284 0 00-.264.264v1.784c0 .133.132.265.264.265h1.156zm0 19.229a.284.284 0 00.265-.264l-.033-8.756.033-7.731c0-.132-.133-.265-.265-.265H55.73c-.132 0-.264.133-.264.265l.066 7.764-.066 8.723c0 .132.132.264.264.264h1.156zm6.288 0a.284.284 0 00.264-.264l-.033-7.038v-3.7c1.123-3.106 2.841-5.022 5.386-5.022 2.577 0 4.295 1.552 4.295 5.649v3.073l-.066 7.038c0 .132.132.264.264.264h1.156a.284.284 0 00.265-.264l-.033-7.038v-3.238c0-4.658-2.115-6.872-5.551-6.872-2.94 0-4.824 1.982-5.782 3.899l.066-3.238c0-.132-.132-.265-.264-.265h-1.124c-.132 0-.264.133-.264.265l.066 9.284-.066 7.203c0 .132.132.264.264.264h1.157zm16.733-8.524c0-4.395 1.817-7.566 5.517-7.566 3.436 0 5.452 2.907 5.419 7.731-.033 4.791-2.18 7.004-5.254 7.037-3.832.033-5.682-2.709-5.682-7.202zm12.423 6.806l-.033-10.077.066-4.956c0-.132-.132-.265-.265-.265h-1.09c-.132 0-.264.133-.264.265l.066 3.139c-1.057-2.412-3.007-3.701-5.617-3.701-4.526 0-6.905 3.932-6.905 8.822 0 4.89 2.379 8.425 6.938 8.425 2.577 0 4.494-1.289 5.55-3.535v1.883c0 4.758-2.114 6.806-5.418 6.806-2.61 0-4.757-1.123-5.088-3.832-.033-.166-.165-.265-.297-.265h-1.124c-.132 0-.264.132-.23.265.297 3.634 3.237 5.154 6.772 5.121 4.296 0 6.972-2.71 6.939-8.095zm29.477-5.187c0-9.086-14.967-4.857-14.967-10.243 0-2.213 1.95-3.205 4.758-3.205 3.271 0 5.088 1.289 5.352 3.734.033.198.199.33.364.33h3.568c.165 0 .331-.165.298-.33-.595-4.824-4.13-6.972-9.45-6.972-5.518 0-8.855 2.578-8.855 6.873 0 9.02 14.901 4.625 14.901 10.374 0 2.577-2.048 3.602-5.253 3.602-4.13 0-5.551-1.851-5.881-4.791-.033-.198-.198-.331-.363-.331h-3.569c-.165 0-.33.166-.33.331.264 5.352 4.097 7.996 10.044 7.996 5.65 0 9.383-2.545 9.383-7.368zm12.559 4.196c0-.165-.166-.298-.331-.232a6.646 6.646 0 01-1.784.232c-1.255 0-1.982-.529-1.982-2.247l-.033-9.086h3.832c.165 0 .331-.165.331-.33v-2.313c0-.165-.166-.331-.331-.331h-3.799l.033-3.931a.356.356 0 00-.331-.331h-3.37c-.165 0-.33.165-.33.331l.066 3.931h-1.883a.356.356 0 00-.331.331v2.313c0 .165.165.33.331.33h1.883l-.033 9.185c0 3.8 2.412 5.154 5.088 5.154.892 0 1.85-.198 2.676-.462a.471.471 0 00.298-.43v-2.114zm18.613-5.848c0-5.386-3.007-8.855-8.359-8.855-5.353 0-8.425 3.568-8.425 8.954 0 5.385 3.072 8.854 8.425 8.854 5.352 0 8.359-3.535 8.359-8.953zm-12.72.132c0-4.031 1.387-6.146 4.328-6.179 2.874 0 4.295 2.115 4.295 6.146 0 4.064-1.388 6.046-4.262 6.046-2.908 0-4.361-2.015-4.361-6.013zm19.62 8.425c.166 0 .331-.165.331-.33l-.066-6.906v-1.85c.33-3.535 2.18-5.22 4.196-5.22 1.817 0 3.106 1.255 3.106 3.667v3.403l-.099 6.906c0 .165.165.33.33.33h3.403c.165 0 .33-.165.33-.33l-.099-6.906v-3.502c0-4.295-2.246-6.674-5.815-6.674-2.544 0-4.46 1.288-5.55 2.874l.066-2.147c0-.165-.166-.331-.331-.331h-3.205c-.165 0-.33.166-.33.331l.066 8.689-.099 7.666c0 .165.165.33.33.33h3.436zm27.302-5.815a.392.392 0 00-.396.33c-.496 2.082-1.818 3.073-3.899 3.073-2.875 0-4.328-1.718-4.494-5.352h12.324a.356.356 0 00.331-.331c-.099-5.782-3.106-9.317-8.359-9.317-5.155 0-8.293 3.568-8.293 8.954 0 5.187 2.94 8.854 8.425 8.854 4.559 0 7.335-2.643 7.83-5.881 0-.165-.132-.33-.297-.33h-3.172zm-.429-4.626h-8.227c.429-2.742 1.817-4.196 4.196-4.196 2.61 0 3.898 1.983 4.031 4.196zM211.85 201c.132 0 .231-.165.165-.264l-7.599-11.796 6.839-10.804c.066-.099-.033-.264-.165-.264h-3.932a.544.544 0 00-.495.297l-4.494 7.368-4.526-7.368a.545.545 0 00-.496-.297h-4.196c-.132 0-.231.165-.165.264l6.905 10.705-7.566 11.895c-.066.099.033.264.165.264h3.932a.546.546 0 00.496-.297l5.286-8.624 5.121 8.624c.1.198.298.297.496.297h4.229z" fill="#fff"/></svg>