<svg width="191" height="105" viewBox="0 0 191 105" fill="none" xmlns="http://www.w3.org/2000/svg"><path d="M.088 27.66C.32 35.78 6.41 41.348 16.502 41.348c8.932 0 15.022-5.046 15.022-12.354.058-8.004-6.496-10.15-13.224-11.368-6.38-1.102-10.556-1.972-10.556-6.148 0-3.828 3.19-5.8 7.772-5.8 4.93 0 8.178 2.784 8.7 6.902h6.67C30.596 5.098 24.796.052 15.516.052c-8.642 0-14.442 4.814-14.442 11.89 0 8.062 6.38 10.208 13.108 11.368 6.438 1.16 10.672 2.088 10.672 6.38 0 3.886-3.48 6.032-8.294 6.032-5.684 0-9.396-3.19-9.744-7.946L.088 27.66zM37.396 41h6.438V11.13L56.014 41h5.626l12.18-29.87V41h6.438V.4H71.79L59.03 32.358 46.038.4h-8.642V41zm53.95 0l3.77-10.034h16.646L115.59 41h7.134L107.586.4h-7.945L84.444 41h6.903zM103.41 7.592l6.496 17.69H96.972l6.438-17.69zM126.888 41h6.67V26.268h8.932L150.32 41h7.424l-8.584-16.182c4.756-1.682 7.888-6.032 7.888-11.484C157.048 5.446 151.364.4 142.896.4h-16.008V41zm15.486-34.8c4.756 0 7.83 2.784 7.83 7.134 0 4.35-3.074 7.134-7.83 7.134h-8.816V6.2h8.816zm16.173.116h12.528V41h6.67V6.316h12.528V.4h-31.726v5.916zM.088 79.66C.32 87.78 6.41 93.348 16.502 93.348c8.932 0 15.022-5.046 15.022-12.354.058-8.004-6.496-10.15-13.224-11.368-6.38-1.102-10.556-1.972-10.556-6.148 0-3.828 3.19-5.8 7.772-5.8 4.93 0 8.178 2.784 8.7 6.902h6.67c-.29-7.482-6.09-12.528-15.37-12.528-8.642 0-14.442 4.814-14.442 11.89 0 8.062 6.38 10.208 13.108 11.368 6.438 1.16 10.672 2.088 10.672 6.38 0 3.886-3.48 6.032-8.294 6.032-5.684 0-9.396-3.19-9.744-7.946L.088 79.66zm39.86-20.532c2.146 0 3.828-1.566 3.828-3.77 0-2.204-1.682-3.77-3.828-3.77s-3.828 1.566-3.828 3.77c0 2.204 1.682 3.77 3.828 3.77zM36.758 93h6.264V63.304h-6.264V93zM71.84 67.944c-1.914-2.958-5.104-4.988-9.744-4.988-8.062 0-14.036 5.974-14.036 15.08 0 9.454 5.974 15.08 14.036 15.08 4.64 0 7.714-1.914 9.686-4.872v3.306c0 5.684-3.074 8.294-8.526 8.294-4.408 0-7.308-1.914-8.062-5.22h-6.38c.58 6.67 6.09 10.324 13.978 10.324 10.672 0 15.196-5.104 15.196-13.166V63.304h-5.452l-.696 4.64zm-8.7 19.894c-5.22 0-8.642-4.002-8.642-9.802 0-5.742 3.422-9.802 8.642-9.802 5.22 0 8.642 4.06 8.642 9.918 0 5.684-3.422 9.686-8.642 9.686zm36.63-24.882c-4.815 0-7.657 1.914-9.513 4.234l-.696-3.886H84.11V93h6.264V78.036c0-6.032 2.958-9.686 7.946-9.686 4.698 0 7.076 3.016 7.076 8.642V93h6.322V76.47c0-9.918-5.394-13.514-11.948-13.514zm44.788 24.592c-1.276 0-1.914-.406-1.914-1.914v-11.89c0-7.018-4.524-10.788-12.412-10.788-7.482 0-12.47 3.596-13.108 9.396h6.148c.464-2.61 2.958-4.35 6.67-4.35 4.118 0 6.496 2.03 6.496 5.336v1.798h-7.482c-8.294 0-12.702 3.422-12.702 9.512 0 5.51 4.524 8.7 11.02 8.7 4.814 0 7.83-2.088 9.802-5.104 0 2.958 1.392 4.756 5.452 4.756h3.306v-5.452h-1.276zm-8.12-6.728c-.058 4.582-3.074 7.656-8.294 7.656-3.422 0-5.51-1.74-5.51-4.234 0-3.016 2.146-4.466 6.032-4.466h7.772v1.044zM149.246 93h6.264V52.4h-6.264V93zm11.128-9.802c.174 6.438 5.626 10.15 13.572 10.15 7.192 0 12.586-3.596 12.586-9.28 0-6.612-5.51-8.004-12.296-8.816-4.292-.464-7.134-.812-7.134-3.596 0-2.378 2.436-3.886 6.148-3.886 3.712 0 6.264 1.914 6.612 4.64h6.148c-.406-6.09-5.568-9.454-12.876-9.454-7.134-.058-12.18 3.596-12.18 9.222 0 6.148 5.336 7.598 12.122 8.41 4.582.58 7.308.812 7.308 4.002 0 2.378-2.552 3.886-6.438 3.886-4.524 0-7.192-2.204-7.424-5.278h-6.148z" fill="#fff"/></svg>