<svg width="105" height="15" viewBox="0 0 105 15" fill="none" xmlns="http://www.w3.org/2000/svg"><path d="M.4 2.04h4.32V14h2.3V2.04h4.32V0H.4v2.04zm13.058-.32c.4 0 .72-.3.72-.72s-.32-.72-.72-.72c-.4 0-.72.3-.72.72s.32.72.72.72zM12.938 14h1.02V3.86h-1.02V14zM27.676 3.74c-1.86 0-3.06 1.04-3.64 2.54-.48-1.68-1.74-2.54-3.34-2.54-1.74 0-2.78 1.02-3.3 2.28l-.16-2.16h-.88V14h1.02V8.84c0-2.48 1.2-4.16 3.14-4.16 1.76 0 2.86 1.24 2.86 3.58V14h1.02V8.48c.06-2.32 1.26-3.8 3.16-3.8 1.76 0 2.82 1.18 2.82 3.48V14h1.04V8.12c0-3.06-1.62-4.38-3.74-4.38zm10.328 10.38c2.22 0 3.92-1.44 4.36-3.48h-1.04c-.4 1.58-1.74 2.56-3.4 2.56-2.26 0-3.68-1.72-3.72-4.08v-.18h8.28c0-.14.02-.3.02-.42-.1-3.02-1.96-4.78-4.68-4.78-2.78 0-4.68 2.12-4.68 5.12 0 3.18 1.98 5.26 4.86 5.26zm-3.72-6.04c.16-2.06 1.7-3.44 3.56-3.44 1.98 0 3.4 1.22 3.56 3.44h-7.12zm8.92-3.28h1.92V14h1.02V4.8h3.04v-.94h-3.04V2.34c0-1 .38-1.4 1.4-1.4h1.66V0h-1.7c-1.7 0-2.38.74-2.38 2.36v1.5h-1.92v.94zm11.355-.94c-1.88 0-2.68.9-3.1 2.02l-.16-2.02h-.88V14h1.02V8.86c0-2.06.54-4.02 2.92-4.02h.74v-.98h-.54zm10.541 9.2c-.6 0-.9-.2-.9-.98V7.36c0-2.32-1.42-3.62-3.96-3.62-2.32 0-3.86 1.12-4.12 2.96h1.02c.26-1.24 1.34-2.06 3.06-2.06 1.9 0 2.98 1 2.98 2.68v.88h-3.44c-2.6 0-4 1.12-4 3.02 0 1.8 1.42 2.9 3.58 2.9 2.06 0 3.28-.94 3.9-2.2v.36c-.04 1.2.46 1.72 1.66 1.72h.6v-.94h-.38zM63.18 9.9c0 1.94-1.38 3.34-3.78 3.34-1.62 0-2.62-.82-2.62-2.08 0-1.34 1-2.08 2.88-2.08h3.52v.82zm14.985-6.16c-1.86 0-3.06 1.04-3.64 2.54-.48-1.68-1.74-2.54-3.34-2.54-1.74 0-2.78 1.02-3.3 2.28l-.16-2.16h-.88V14h1.02V8.84c0-2.48 1.2-4.16 3.14-4.16 1.76 0 2.86 1.24 2.86 3.58V14h1.02V8.48c.06-2.32 1.26-3.8 3.16-3.8 1.76 0 2.82 1.18 2.82 3.48V14h1.04V8.12c0-3.06-1.62-4.38-3.74-4.38zm10.328 10.38c2.22 0 3.92-1.44 4.36-3.48h-1.04c-.4 1.58-1.74 2.56-3.4 2.56-2.26 0-3.68-1.72-3.72-4.08v-.18h8.28c0-.14.02-.3.02-.42-.1-3.02-1.96-4.78-4.68-4.78-2.78 0-4.68 2.12-4.68 5.12 0 3.18 1.98 5.26 4.86 5.26zm-3.72-6.04c.16-2.06 1.7-3.44 3.56-3.44 1.98 0 3.4 1.22 3.56 3.44h-7.12zm18.516-1.94c-.62-1.44-1.98-2.4-3.88-2.4-2.78 0-4.78 2.12-4.78 5.18 0 3.2 2 5.2 4.78 5.2 1.9 0 3.22-1.02 3.86-2.44l.16 2.32h.88V0h-1.02v6.14zm-3.8 7.06c-2.26 0-3.82-1.76-3.82-4.28 0-2.5 1.56-4.28 3.82-4.28s3.82 1.78 3.82 4.3c0 2.5-1.56 4.26-3.82 4.26z" fill="#fff"/></svg>