<svg width="98" height="19" viewBox="0 0 98 19" fill="none" xmlns="http://www.w3.org/2000/svg"><path d="M2.54 14l1.3-3.46h5.74L10.9 14h2.46L8.14 0H5.4L.16 14h2.38zM6.7 2.48l2.24 6.1H4.48l2.22-6.1zM14.716 14h1.02V0h-1.02v14zm11.678-7.78c-.62-1.5-1.98-2.48-3.86-2.48-2.78 0-4.78 2.1-4.78 5.18 0 3.2 2 5.2 4.78 5.2 1.9 0 3.24-1 3.88-2.58v1.8c0 2.7-1.28 3.86-3.72 3.86-1.9 0-3.22-.86-3.54-2.4h-1.06c.32 2.16 2.06 3.32 4.52 3.32 3.28 0 4.82-1.56 4.82-4.74V3.86h-.88l-.16 2.36zm-3.78 6.98c-2.26 0-3.82-1.76-3.82-4.28 0-2.52 1.56-4.28 3.82-4.28s3.82 1.76 3.82 4.3c0 2.5-1.56 4.26-3.82 4.26zm11.699.92c2.86 0 4.88-2.12 4.88-5.2 0-3.06-2.02-5.18-4.88-5.18s-4.86 2.12-4.86 5.18c0 3.08 2 5.2 4.86 5.2zm0-.92c-2.26 0-3.82-1.76-3.82-4.28 0-2.5 1.56-4.28 3.82-4.28s3.82 1.78 3.82 4.28c0 2.52-1.56 4.28-3.82 4.28zm11.046-9.34c-1.88 0-2.68.9-3.1 2.02l-.16-2.02h-.88V14h1.02V8.86c0-2.06.54-4.02 2.92-4.02h.74v-.98h-.54zm2.572-2.14c.4 0 .72-.3.72-.72s-.32-.72-.72-.72c-.4 0-.72.3-.72.72s.32.72.72.72zM47.41 14h1.02V3.86h-1.02V14zm4.178-2.36c0 1.62.66 2.36 2.38 2.36h1.48v-.94h-1.4c-1.06 0-1.44-.4-1.44-1.44V4.8h2.74v-.94h-2.74V1.02h-1.02v2.84h-1.92v.94h1.92v6.84zm10.092-7.9c-1.9 0-3.08 1.06-3.66 2.52V0H57v14h1.02V9c0-2.64 1.34-4.32 3.5-4.32 1.94 0 3.14 1.28 3.14 3.68V14h1.02V8.32c0-3.2-1.7-4.58-4-4.58zm17.597 0c-1.86 0-3.06 1.04-3.64 2.54-.48-1.68-1.74-2.54-3.34-2.54-1.74 0-2.78 1.02-3.3 2.28l-.16-2.16h-.88V14h1.02V8.84c0-2.48 1.2-4.16 3.14-4.16 1.76 0 2.86 1.24 2.86 3.58V14h1.02V8.48c.06-2.32 1.26-3.8 3.16-3.8 1.76 0 2.82 1.18 2.82 3.48V14h1.04V8.12c0-3.06-1.62-4.38-3.74-4.38zm6.524-2.02c.4 0 .72-.3.72-.72s-.32-.72-.72-.72c-.4 0-.72.3-.72.72s.32.72.72.72zM85.282 14h1.02V3.86h-1.02V14zm7.838.12c2.3 0 3.92-1.32 4.32-3.38h-1.08c-.34 1.5-1.56 2.46-3.24 2.46-2.22 0-3.76-1.74-3.76-4.26 0-2.52 1.52-4.3 3.76-4.3 1.7 0 2.9.96 3.26 2.48h1.06c-.42-2.1-2-3.38-4.3-3.38-2.86 0-4.82 2.12-4.82 5.2 0 3.12 1.94 5.18 4.8 5.18z" fill="#fff"/></svg>