<svg width="152" height="12" viewBox="0 0 152 12" fill="none" xmlns="http://www.w3.org/2000/svg"><path d="M4.232 9.069c1.276 0 2.104-.575 2.495-1.15L6.843 9h1.024V4.596H4.37V5.71h2.231v.196c-.069 1.299-1.07 2-2.311 2-1.542 0-2.508-1.207-2.508-2.932 0-1.725.99-2.932 2.519-2.932 1.115 0 1.886.62 2.127 1.644h1.369C7.556 1.985 6.199.881 4.335.881 1.944.881.425 2.526.425 4.975c0 2.45 1.553 4.094 3.807 4.094zm7.775 0c1.46 0 2.449-.886 2.656-2.047h-1.242c-.172.655-.724 1.035-1.483 1.035-.978 0-1.61-.655-1.645-1.656v-.08h4.439c.023-.161.035-.322.035-.472-.035-1.725-1.173-2.806-2.875-2.806-1.737 0-2.898 1.207-2.898 3.024 0 1.806 1.161 3.002 3.013 3.002zm-1.668-3.657c.092-.84.77-1.369 1.564-1.369.862 0 1.472.495 1.575 1.369H10.34zm5.812 1.99c0 1.069.483 1.598 1.61 1.598h1.15V7.907h-.874c-.471 0-.632-.172-.632-.632v-3.07h1.437V3.112h-1.437V1.467H16.15v1.645h-1.023v1.093h1.023v3.197zm9.644-4.359c-.92 0-1.53.425-1.92.943l-.15-.874h-1.081V11.3h1.242V8.172c.368.529 1 .897 1.909.897 1.61 0 2.783-1.196 2.783-3.013 0-1.886-1.173-3.013-2.783-3.013zm-.207 4.98c-1.035 0-1.714-.817-1.714-1.99 0-1.139.679-1.932 1.714-1.932s1.725.793 1.725 1.955c0 1.15-.69 1.967-1.725 1.967zm9.367-.104c-.253 0-.38-.08-.38-.38V5.183c0-1.392-.897-2.139-2.46-2.139-1.484 0-2.473.713-2.6 1.863h1.22c.091-.518.586-.862 1.322-.862.816 0 1.288.402 1.288 1.058v.356H31.86c-1.644 0-2.518.678-2.518 1.886 0 1.093.897 1.725 2.185 1.725.954 0 1.552-.414 1.943-1.012 0 .586.276.943 1.081.943h.656V7.919h-.253zm-1.61-1.334c-.012.909-.61 1.518-1.645 1.518-.678 0-1.092-.345-1.092-.84 0-.598.425-.885 1.196-.885h1.54v.207zm3.172-4.301c.425 0 .759-.31.759-.747 0-.438-.334-.748-.76-.748-.425 0-.758.31-.758.747 0 .438.333.748.759.748zM35.884 9h1.242V3.112h-1.242V9zm6.933-5.072c-.38-.517-1.012-.885-1.909-.885-1.598 0-2.783 1.196-2.783 3.013 0 1.886 1.185 3.013 2.783 3.013.932 0 1.541-.437 1.92-.955l.15.886h1.081V.95h-1.242v2.979zm-1.702 4.095c-1.035 0-1.713-.805-1.713-1.967 0-1.15.678-1.955 1.713-1.955 1.035 0 1.714.805 1.714 1.978 0 1.139-.679 1.944-1.714 1.944zm6.502-3.818h1.024V9h1.254V4.205h1.575V3.112h-1.599v-.494c0-.403.173-.575.575-.575h1.024V.95h-1.184c-1.139 0-1.645.552-1.645 1.61v.552h-1.023v1.093zm7.474-1.093c-.966 0-1.438.391-1.737.885l-.138-.885h-1.104V9h1.242V6.045c0-.909.357-1.771 1.46-1.771h.553V3.112h-.276zm3.544 5.957c1.794 0 3.002-1.208 3.002-3.013 0-1.794-1.208-3.013-3.002-3.013-1.794 0-3.001 1.219-3.001 3.013 0 1.806 1.207 3.013 3.001 3.013zm0-1.058c-1.046 0-1.725-.816-1.725-1.955 0-1.138.679-1.955 1.725-1.955 1.047 0 1.737.817 1.737 1.955 0 1.138-.69 1.955-1.737 1.955zM69.41 3.043c-.966 0-1.633.425-2.013 1.07-.356-.76-1.046-1.07-1.817-1.07-.885.011-1.391.402-1.725.84l-.138-.771h-1.08V9h1.241V5.849c0-1.046.53-1.737 1.38-1.737.817 0 1.242.541 1.242 1.576V9h1.254V5.814c0-1.058.54-1.702 1.391-1.702.805 0 1.23.541 1.23 1.576V9h1.243V5.607c0-1.863-.99-2.564-2.208-2.564zm7.978 5.991l-.23.575c-.184.483-.299.598-.782.598h-.874V11.3h1.334c.863 0 1.116-.426 1.484-1.38l2.668-6.808h-1.323l-1.598 4.473-1.645-4.473H75.1l2.288 5.922zm6.741.035c1.794 0 3.002-1.208 3.002-3.013 0-1.794-1.208-3.013-3.002-3.013-1.794 0-3.001 1.219-3.001 3.013 0 1.806 1.207 3.013 3.001 3.013zm0-1.058c-1.046 0-1.725-.816-1.725-1.955 0-1.138.679-1.955 1.725-1.955 1.047 0 1.737.817 1.737 1.955 0 1.138-.69 1.955-1.737 1.955zm8.037-1.955c0 1.219-.575 1.932-1.518 1.932-.909 0-1.369-.587-1.369-1.737V3.113h-1.242v3.277c0 2.013 1.07 2.68 2.323 2.68.909 0 1.45-.368 1.818-.817l.137.748h1.093V3.112h-1.242v2.944zm5.444-2.944c-.965 0-1.437.391-1.736.885l-.138-.885h-1.104V9h1.242V6.045c0-.909.356-1.771 1.46-1.771h.552V3.112h-.276zm8.458-.828c.426 0 .759-.31.759-.747 0-.438-.333-.748-.759-.748-.425 0-.759.31-.759.747 0 .438.334.748.759.748zm-2.794.828v-.494c0-.403.161-.575.563-.575h.874V.95h-1.046c-1.139 0-1.645.54-1.645 1.576v.586h-1.023v1.093h1.023V9h1.254V4.205h2.162V9h1.253V3.112h-3.415zm7.6 0c-.966 0-1.438.391-1.737.885l-.138-.885h-1.104V9h1.242V6.045c0-.909.357-1.771 1.461-1.771h.552V3.112h-.276zm.688 3.944c.034 1.277 1.115 2.013 2.691 2.013 1.426 0 2.495-.713 2.495-1.84 0-1.311-1.092-1.587-2.438-1.748-.851-.092-1.414-.161-1.414-.713 0-.471.483-.77 1.219-.77.736 0 1.242.379 1.311.92h1.219c-.081-1.208-1.104-1.875-2.553-1.875-1.415-.012-2.415.713-2.415 1.829 0 1.218 1.058 1.506 2.403 1.667.909.115 1.449.161 1.449.793 0 .472-.506.771-1.276.771-.897 0-1.426-.437-1.472-1.046h-1.219zm6.574.346c0 1.069.483 1.598 1.61 1.598h1.15V7.907h-.874c-.471 0-.632-.172-.632-.632v-3.07h1.437V3.112h-1.437V1.467h-1.254v1.645h-1.023v1.093h1.023v3.197zm6.918 0c0 1.069.483 1.598 1.61 1.598h1.15V7.907h-.874c-.471 0-.632-.172-.632-.632v-3.07h1.437V3.112h-1.437V1.467h-1.254v1.645h-1.023v1.093h1.023v3.197zm6.529-4.29c-.966 0-1.438.391-1.737.885l-.138-.885h-1.104V9h1.242V6.045c0-.909.357-1.771 1.461-1.771h.552V3.112h-.276zm6.244 4.807c-.253 0-.38-.08-.38-.38V5.183c0-1.392-.897-2.139-2.461-2.139-1.483 0-2.472.713-2.599 1.863h1.219c.092-.518.587-.862 1.323-.862.816 0 1.288.402 1.288 1.058v.356h-1.484c-1.644 0-2.518.678-2.518 1.886 0 1.093.897 1.725 2.185 1.725.954 0 1.552-.414 1.943-1.012 0 .586.276.943 1.081.943h.656V7.919h-.253zm-1.61-1.334c-.012.909-.61 1.518-1.645 1.518-.678 0-1.092-.345-1.092-.84 0-.598.425-.885 1.196-.885h1.541v.207zm6.968-2.656c-.379-.518-1.012-.886-1.909-.886-1.598 0-2.783 1.196-2.783 3.013 0 1.886 1.185 3.013 2.783 3.013.932 0 1.541-.437 1.921-.955l.149.886h1.081V.95h-1.242v2.979zm-1.702 4.094c-1.035 0-1.713-.805-1.713-1.967 0-1.15.678-1.955 1.713-1.955 1.035 0 1.714.805 1.714 1.978 0 1.139-.679 1.944-1.714 1.944zm6.952 1.046c1.461 0 2.45-.886 2.657-2.047h-1.242c-.173.655-.725 1.035-1.484 1.035-.977 0-1.61-.655-1.644-1.656v-.08h4.439c.023-.161.034-.322.034-.472-.034-1.725-1.173-2.806-2.875-2.806-1.736 0-2.898 1.207-2.898 3.024 0 1.806 1.162 3.002 3.013 3.002zm-1.667-3.657c.092-.84.77-1.369 1.564-1.369.862 0 1.472.495 1.575 1.369h-3.139z" fill="#000"/></svg>