<svg width="101" height="26" viewBox="0 0 101 26" fill="none" xmlns="http://www.w3.org/2000/svg"><rect width="101" height="26" rx="13" fill="#fff"/><path d="M25.688 17v-.96H21.86V8.6h-1.044V17h4.872zm3.406.072c1.416 0 2.424-.9 2.664-2.124h-.996c-.204.792-.876 1.248-1.74 1.248-1.164 0-1.896-.816-1.932-1.98v-.084h4.752c.012-.144.024-.288.024-.42-.048-1.812-1.176-2.904-2.904-2.904s-2.904 1.272-2.904 3.132c0 1.872 1.2 3.132 3.036 3.132zm-1.944-3.756c.096-.996.924-1.644 1.824-1.644 1.02 0 1.74.588 1.836 1.644h-3.66zM38.4 16.1c-.276 0-.396-.084-.396-.408v-2.676c0-1.428-.9-2.208-2.46-2.208-1.476 0-2.448.708-2.592 1.908h.984c.12-.624.696-1.032 1.56-1.032.96 0 1.524.48 1.524 1.272v.42h-1.8c-1.608 0-2.46.684-2.46 1.908 0 1.116.912 1.788 2.256 1.788 1.056 0 1.668-.468 2.052-1.02.012.6.288.948 1.104.948h.54v-.9H38.4zm-1.38-1.596c0 1.02-.708 1.728-1.932 1.728-.816 0-1.332-.408-1.332-1.008 0-.696.492-1.02 1.368-1.02h1.896v.3zm5.28-3.624c-1.091 0-1.56.456-1.847.924l-.132-.924h-.852V17h.984v-3.12c0-.972.348-2.04 1.632-2.04h.492v-.96H42.3zm4.13-.072c-1.032 0-1.656.432-2.016.9l-.132-.828h-.852V17h.984v-3.06c0-1.38.696-2.232 1.848-2.232 1.068 0 1.656.672 1.656 1.944V17h.984v-3.408c0-2.028-1.092-2.784-2.472-2.784zm13.695 0c-1.092 0-1.752.504-2.124 1.164-.348-.78-1.08-1.164-1.932-1.164-.948 0-1.464.468-1.788.912l-.132-.84h-.852V17h.984v-3.228c0-1.224.612-2.064 1.62-2.064.936 0 1.476.624 1.476 1.824V17h.984v-3.276c0-1.248.624-2.016 1.644-2.016.924 0 1.452.624 1.452 1.824V17h.984v-3.528c0-1.932-1.044-2.664-2.316-2.664zm6.328 6.264c1.788 0 3.036-1.272 3.036-3.132s-1.248-3.132-3.036-3.132-3.036 1.272-3.036 3.132 1.248 3.132 3.036 3.132zm0-.876c-1.212 0-2.028-.948-2.028-2.256 0-1.308.816-2.256 2.028-2.256 1.212 0 2.028.948 2.028 2.256 0 1.308-.816 2.256-2.028 2.256zm6.996-5.316c-1.092 0-1.56.456-1.848.924l-.132-.924h-.852V17h.984v-3.12c0-.972.348-2.04 1.632-2.04h.492v-.96h-.276zm3.598 6.192c1.416 0 2.424-.9 2.664-2.124h-.996c-.204.792-.876 1.248-1.74 1.248-1.164 0-1.896-.816-1.932-1.98v-.084h4.752c.012-.144.024-.288.024-.42-.048-1.812-1.176-2.904-2.904-2.904S74.01 12.08 74.01 13.94c0 1.872 1.2 3.132 3.036 3.132zm-1.944-3.756c.096-.996.924-1.644 1.824-1.644 1.02 0 1.74.588 1.836 1.644h-3.66z" fill="#000"/></svg>