<svg width="63" height="8" viewBox="0 0 63 8" fill="none" xmlns="http://www.w3.org/2000/svg"><path d="M2.404 1.838c.273-.28.589-.5.95-.659.359-.16.743-.239 1.15-.239.45 0 .811.056 1.084.17.274.112.538.275.794.489a.563.563 0 00.384.125.549.549 0 00.338-.14.404.404 0 00.14-.315.695.695 0 00-.016-.155.363.363 0 00-.063-.13.56.56 0 00-.13-.125A3.978 3.978 0 005.878.201C5.495.067 5.038 0 4.504 0a3.983 3.983 0 00-2.847 1.163A3.953 3.953 0 00.5 3.995c0 .566.102 1.092.306 1.578a3.907 3.907 0 002.126 2.122A4.033 4.033 0 004.504 8a4.096 4.096 0 002.542-.869.497.497 0 00.166-.37.469.469 0 00-.124-.345.478.478 0 00-.306-.14.558.558 0 00-.368.116c-.29.205-.594.367-.908.484a2.862 2.862 0 01-1.002.174c-.408 0-.791-.078-1.15-.235a3.024 3.024 0 01-1.588-1.628 3.103 3.103 0 01-.23-1.193c0-.42.077-.814.23-1.184a3.03 3.03 0 01.638-.972zM9.33.1a.546.546 0 00-.384.145.487.487 0 00-.156.374V7.38c0 .147.051.27.156.37.104.1.231.15.384.15.159 0 .289-.05.388-.15a.5.5 0 00.15-.37V.62a.497.497 0 00-.15-.374A.538.538 0 009.33.1zM17.017.1h-5.55a.498.498 0 00-.358.135.459.459 0 00-.14.345c0 .14.047.254.14.345.093.09.213.135.358.135h2.241V7.38c0 .147.052.27.156.37.104.1.232.15.384.15s.28-.05.384-.15a.492.492 0 00.156-.37V1.06h2.23a.498.498 0 00.359-.135.459.459 0 00.14-.345.46.46 0 00-.14-.345.5.5 0 00-.36-.134zM25.295.225A.423.423 0 0024.983.1a.56.56 0 00-.28.065.596.596 0 00-.197.184L22.037 4.1 19.61.39a.832.832 0 00-.198-.214.472.472 0 00-.28-.075.556.556 0 00-.347.116.457.457 0 00-.181.3c-.021.122.013.254.104.394l2.77 4.145v2.327a.523.523 0 00.53.52c.151 0 .279-.05.383-.15a.492.492 0 00.156-.37v-2.33L25.337.91a.563.563 0 00.105-.374.517.517 0 00-.147-.31zM30.784.1a.546.546 0 00-.384.145.487.487 0 00-.156.374V7.38c0 .147.052.27.156.37.104.1.232.15.384.15.16 0 .289-.05.389-.15a.5.5 0 00.15-.37V.62a.497.497 0 00-.15-.374.538.538 0 00-.389-.145zM38.956.1a.546.546 0 00-.384.145.487.487 0 00-.155.374v5.463L33.894.29a.53.53 0 00-.416-.19.525.525 0 00-.378.145.494.494 0 00-.15.374V7.38a.516.516 0 00.528.52c.16 0 .29-.05.389-.15.1-.1.15-.223.15-.37V1.928L38.54 7.72c.048.06.112.104.191.135.08.03.154.045.223.045a.51.51 0 00.384-.15.514.514 0 00.146-.37V.62a.502.502 0 00-.146-.374.513.513 0 00-.382-.145z" fill="#fff"/><path fill-rule="evenodd" clip-rule="evenodd" d="M46.374 1.193a3.749 3.749 0 00-1.271-.808A4.443 4.443 0 0043.479.1h-1.878a.546.546 0 00-.384.145.487.487 0 00-.155.374V7.38c0 .147.051.27.155.37.104.1.232.15.384.15h1.878c.595 0 1.136-.095 1.624-.285a3.76 3.76 0 001.271-.808c.36-.35.636-.762.83-1.239.194-.475.29-1 .29-1.573 0-.572-.096-1.095-.29-1.567a3.605 3.605 0 00-.83-1.235zm-.301 4.345a2.8 2.8 0 01-1.053 1.058c-.446.257-.96.385-1.54.385H42.14V1.02h1.338c.581 0 1.094.126 1.541.38.446.253.797.602 1.053 1.048.255.446.384.962.384 1.548 0 .58-.128 1.093-.384 1.543z" fill="#fff"/><path d="M54.17 1.059a.553.553 0 00.383-.13.435.435 0 00.146-.34.459.459 0 00-.146-.355.543.543 0 00-.384-.135h-4.69a.546.546 0 00-.384.145.487.487 0 00-.155.374v6.761c0 .147.051.27.155.37.104.099.232.15.384.15h4.69a.545.545 0 00.384-.135.463.463 0 00.146-.355.431.431 0 00-.146-.34.556.556 0 00-.384-.13h-4.15V4.445h2.978c.159 0 .286-.046.384-.135a.451.451 0 00.145-.345.449.449 0 00-.145-.345.543.543 0 00-.384-.135h-2.978V1.06h4.15zM60.02 3.954L62.385.918a.583.583 0 00.114-.37.483.483 0 00-.134-.318.454.454 0 00-.343-.13.51.51 0 00-.384.149l-2.325 2.978L57.083.25C57.009.15 56.88.1 56.7.1a.448.448 0 00-.347.14.561.561 0 00-.15.33.47.47 0 00.104.35l2.279 3.043L56.17 7.06a.564.564 0 00-.124.355c0 .13.041.243.124.34.083.096.204.144.363.144a.52.52 0 00.374-.15L59.29 4.7l2.256 3.01a.497.497 0 00.182.144c.066.03.143.046.234.046a.465.465 0 00.358-.14.522.522 0 00.14-.34.528.528 0 00-.114-.36L60.02 3.954z" fill="#fff"/></svg>