<svg width="121" height="28" viewBox="0 0 121 28" fill="none" xmlns="http://www.w3.org/2000/svg"><rect width="121" height="28" rx="14" fill="#000"/><path d="M19.1 15.565c.075 2.07 1.575 3.525 4.14 3.525 2.205 0 3.735-1.275 3.735-3.09 0-2.04-1.755-2.61-3.465-2.895-1.575-.27-2.85-.525-2.85-1.785 0-1.125.915-1.725 2.28-1.725 1.425 0 2.4.795 2.55 2.01h1.35c-.12-1.89-1.56-3.195-3.9-3.195-2.13 0-3.585 1.2-3.585 2.985 0 2.04 1.74 2.595 3.435 2.88 1.59.27 2.88.54 2.88 1.845 0 1.14-1.005 1.785-2.415 1.785-1.605 0-2.7-.93-2.805-2.34H19.1zm9.921 1.44c0 1.35.525 1.995 1.995 1.995h1.335v-1.125h-1.215c-.66 0-.885-.24-.885-.885v-4.515h1.98V11.35h-1.98V9.205h-1.23v2.145h-1.38v1.125h1.38v4.53zm11.044.87c-.345 0-.495-.105-.495-.51V14.02c0-1.785-1.125-2.76-3.075-2.76-1.845 0-3.06.885-3.24 2.385h1.23c.15-.78.87-1.29 1.95-1.29 1.2 0 1.905.6 1.905 1.59v.525h-2.25c-2.01 0-3.075.855-3.075 2.385 0 1.395 1.14 2.235 2.82 2.235 1.32 0 2.085-.585 2.565-1.275.015.75.36 1.185 1.38 1.185h.675v-1.125h-.39zM38.34 15.88c0 1.275-.885 2.16-2.415 2.16-1.02 0-1.665-.51-1.665-1.26 0-.87.615-1.275 1.71-1.275h2.37v.375zm6.6-4.53c-1.364 0-1.95.57-2.31 1.155l-.165-1.155H41.4V19h1.23v-3.9c0-1.215.435-2.55 2.04-2.55h.615v-1.2h-.344zm2.23 5.655c0 1.35.526 1.995 1.996 1.995H50.5v-1.125h-1.215c-.66 0-.885-.24-.885-.885v-4.515h1.98V11.35H48.4V9.205h-1.23v2.145h-1.38v1.125h1.38v4.53zm8.892 0c0 1.35.525 1.995 1.995 1.995h1.335v-1.125h-1.215c-.66 0-.885-.24-.885-.885v-4.515h1.98V11.35h-1.98V9.205h-1.23v2.145h-1.38v1.125h1.38v4.53zm7.936-5.655c-1.365 0-1.95.57-2.31 1.155l-.165-1.155h-1.065V19h1.23v-3.9c0-1.215.435-2.55 2.04-2.55h.615v-1.2h-.345zm7.913 6.525c-.345 0-.495-.105-.495-.51V14.02c0-1.785-1.125-2.76-3.075-2.76-1.845 0-3.06.885-3.24 2.385h1.23c.15-.78.87-1.29 1.95-1.29 1.2 0 1.905.6 1.905 1.59v.525h-2.25c-2.01 0-3.075.855-3.075 2.385 0 1.395 1.14 2.235 2.82 2.235 1.32 0 2.085-.585 2.565-1.275.015.75.36 1.185 1.38 1.185h.675v-1.125h-.39zm-1.725-1.995c0 1.275-.885 2.16-2.415 2.16-1.02 0-1.665-.51-1.665-1.26 0-.87.615-1.275 1.71-1.275h2.37v.375zm9.002-3.36c-.465-.735-1.335-1.26-2.625-1.26-2.115 0-3.675 1.575-3.675 3.915 0 2.49 1.56 3.915 3.675 3.915 1.29 0 2.115-.615 2.625-1.32l.165 1.23h1.065V8.5h-1.23v4.02zm-2.505 5.475c-1.515 0-2.535-1.155-2.535-2.82 0-1.665 1.02-2.82 2.535-2.82 1.5 0 2.52 1.17 2.52 2.85 0 1.635-1.02 2.79-2.52 2.79zm6.04-7.935c.45 0 .796-.33.796-.795a.773.773 0 00-.795-.795c-.45 0-.795.33-.795.795s.345.795.795.795zm-.63 8.94h1.23v-7.65h-1.23V19zm6.666-7.74c-1.29 0-2.07.54-2.52 1.125l-.165-1.035h-1.065V19h1.23v-3.825c0-1.725.87-2.79 2.31-2.79 1.335 0 2.07.84 2.07 2.43V19h1.23v-4.26c0-2.535-1.365-3.48-3.09-3.48zm10.688 1.41c-.48-.855-1.335-1.41-2.625-1.41-2.115 0-3.675 1.575-3.675 3.915 0 2.49 1.56 3.915 3.675 3.915 1.29 0 2.115-.54 2.625-1.41v.9c0 1.665-.87 2.415-2.475 2.415-1.275 0-2.13-.54-2.34-1.5h-1.26c.195 1.68 1.56 2.595 3.51 2.595 2.625 0 3.795-1.26 3.795-3.465V11.35h-1.065l-.165 1.32zm-2.505 5.325c-1.515 0-2.535-1.155-2.535-2.82 0-1.665 1.02-2.82 2.535-2.82 1.5 0 2.52 1.17 2.52 2.85 0 1.635-1.02 2.79-2.52 2.79z" fill="#fff"/></svg>