<svg width="300" height="65" viewBox="0 0 300 65" fill="none" xmlns="http://www.w3.org/2000/svg"><path fill="#fff" d="M0 0h300v65H0z"/><path d="M10.108 8.564h4.26L10.696 15.5h1.872l3.696-7.284V7.1h-6.156v1.464zm5.591 5.136h4.116v1.8h1.692v-1.8h1.164v-1.44h-1.164V7.1h-2.1L15.7 12.272V13.7zm4.116-4.884v3.444h-2.46l2.46-3.444zm3.461.288c0 1.2.936 2.076 2.208 2.076 1.26 0 2.196-.876 2.196-2.076 0-1.2-.936-2.076-2.196-2.076-1.272 0-2.208.876-2.208 2.076zM26.3 15.5l5.76-8.4h-1.668l-5.76 8.4H26.3zm.012-6.396c0 .492-.36.852-.828.852-.48 0-.84-.36-.84-.852 0-.48.36-.852.84-.852.468 0 .828.372.828.852zm2.7 4.392c0 1.2.936 2.076 2.196 2.076 1.272 0 2.196-.876 2.196-2.076 0-1.2-.924-2.076-2.196-2.076-1.26 0-2.196.876-2.196 2.076zm3.036 0c0 .492-.36.852-.84.852-.468 0-.828-.36-.828-.852 0-.48.36-.852.828-.852.48 0 .84.372.84.852zm8.4 2.076c1.968 0 3.252-1.248 3.252-3.156 0-1.896-1.284-3.156-3.252-3.156-1.968 0-3.252 1.26-3.252 3.156 0 1.896 1.284 3.156 3.252 3.156zm0-1.38c-.948 0-1.524-.732-1.524-1.776s.576-1.776 1.524-1.776c.948 0 1.536.732 1.536 1.776s-.588 1.776-1.536 1.776zm3.584-3.432h1.02v4.74h1.691v-4.74h1.548V9.332h-1.583v-.288c0-.348.168-.504.504-.504h1.08V7.1h-1.38c-1.248 0-1.86.636-1.86 1.776v.456h-1.02v1.428zm11.344-1.428c-.96 0-1.44.372-1.776.924l-.156-.924h-1.536V15.5H53.6v-3.024c0-.936.384-1.608 1.392-1.608h.672V9.332h-.288zm3.893 6.24c1.644 0 2.712-.96 2.904-2.16h-1.668c-.144.576-.624.876-1.308.876-.852 0-1.416-.528-1.452-1.404V12.8h4.476c.036-.192.048-.396.048-.576-.024-1.812-1.272-2.964-3.12-2.964-1.908 0-3.168 1.248-3.168 3.168 0 1.908 1.236 3.144 3.288 3.144zm-1.488-3.876c.096-.732.648-1.176 1.38-1.176.768 0 1.284.42 1.404 1.176H57.78zm5.833 2.04c0 1.176.588 1.764 1.764 1.764h1.38v-1.428h-.84c-.444 0-.612-.18-.612-.612v-2.7h1.416V9.332h-1.416V7.604h-1.692v1.728h-1.02v1.428h1.02v2.976zm9.772.336c-.264 0-.396-.06-.396-.384v-2.184c0-1.476-.996-2.244-2.724-2.244-1.632 0-2.736.792-2.856 1.992h1.632c.072-.456.516-.756 1.176-.756.708 0 1.104.36 1.104.912v.3h-1.224c-1.848 0-2.832.744-2.832 2.052 0 1.176.96 1.812 2.292 1.812.96 0 1.584-.396 2.016-1.08-.012.588.264 1.008 1.14 1.008h.864v-1.428h-.192zm-2.064-1.116c-.012.84-.552 1.392-1.44 1.392-.564 0-.912-.276-.912-.708 0-.516.408-.804 1.116-.804h1.236v.12zm3.763-4.284c.552 0 .984-.408.984-.948 0-.552-.433-.96-.984-.96-.552 0-.984.408-.984.96 0 .54.431.948.984.948zm-.852 6.828h1.703V9.332h-1.704V15.5zm2.87 0h1.693V7.1h-1.692v8.4zm6.7-6.828c.552 0 .984-.408.984-.948 0-.552-.432-.96-.984-.96s-.984.408-.984.96c0 .54.432.948.984.948zm-.852 6.828h1.704V9.332h-1.704V15.5zm6.411-6.24c-.948 0-1.512.36-1.908.84l-.156-.768h-1.476V15.5h1.692v-3.156c0-1.068.504-1.692 1.38-1.692.852 0 1.248.552 1.248 1.596V15.5h1.692v-3.42c0-2.112-1.14-2.82-2.472-2.82zm4.877 6.24h2.1l2.22-6.168h-1.776l-1.464 4.44-1.488-4.44H92.02l2.22 6.168zm7.639.072c1.644 0 2.712-.96 2.904-2.16h-1.668c-.144.576-.624.876-1.308.876-.852 0-1.416-.528-1.452-1.404V12.8h4.476c.036-.192.048-.396.048-.576-.024-1.812-1.272-2.964-3.12-2.964-1.908 0-3.168 1.248-3.168 3.168 0 1.908 1.236 3.144 3.288 3.144zm-1.488-3.876c.096-.732.648-1.176 1.38-1.176.768 0 1.284.42 1.404 1.176h-2.784zm5.078 1.752c.072 1.32 1.236 2.124 2.952 2.124 1.656 0 2.808-.78 2.808-2.004 0-1.392-1.176-1.716-2.592-1.86-.888-.108-1.416-.156-1.416-.624 0-.396.432-.636 1.092-.636.684 0 1.152.3 1.2.792h1.62c-.084-1.26-1.224-1.992-2.88-1.992-1.584-.012-2.652.792-2.652 2.016 0 1.272 1.116 1.596 2.556 1.764.996.132 1.416.168 1.416.672 0 .432-.432.66-1.14.66-.828 0-1.296-.372-1.356-.912h-1.608zm7.095.288c0 1.176.588 1.764 1.764 1.764h1.38v-1.428h-.84c-.444 0-.612-.18-.612-.612v-2.7h1.416V9.332h-1.416V7.604h-1.692v1.728h-1.02v1.428h1.02v2.976zm6.846 1.836c1.968 0 3.252-1.248 3.252-3.156 0-1.896-1.284-3.156-3.252-3.156-1.968 0-3.252 1.26-3.252 3.156 0 1.896 1.284 3.156 3.252 3.156zm0-1.38c-.948 0-1.524-.732-1.524-1.776s.576-1.776 1.524-1.776c.948 0 1.536.732 1.536 1.776s-.588 1.776-1.536 1.776zm7.651-4.86c-.96 0-1.44.372-1.776.924l-.156-.924h-1.536V15.5h1.692v-3.024c0-.936.384-1.608 1.392-1.608h.672V9.332h-.288zm9.9 4.74c-.264 0-.396-.06-.396-.384v-2.184c0-1.476-.996-2.244-2.724-2.244-1.632 0-2.736.792-2.856 1.992h1.632c.072-.456.516-.756 1.176-.756.708 0 1.104.36 1.104.912v.3h-1.224c-1.848 0-2.832.744-2.832 2.052 0 1.176.96 1.812 2.292 1.812.96 0 1.584-.396 2.016-1.08-.012.588.264 1.008 1.14 1.008h.864v-1.428h-.192zm-2.064-1.116c-.012.84-.552 1.392-1.44 1.392-.564 0-.912-.276-.912-.708 0-.516.408-.804 1.116-.804h1.236v.12zm5.791 2.616c1.68 0 2.796-.924 3.036-2.4h-1.776c-.12.624-.564 1.02-1.224 1.02-.888 0-1.452-.72-1.452-1.776 0-1.044.564-1.776 1.452-1.776.66 0 1.08.384 1.224.996h1.764c-.24-1.464-1.284-2.376-2.964-2.376-1.956 0-3.204 1.248-3.204 3.156 0 1.944 1.188 3.156 3.144 3.156zm6.832 0c1.68 0 2.796-.924 3.036-2.4h-1.776c-.12.624-.564 1.02-1.224 1.02-.888 0-1.452-.72-1.452-1.776 0-1.044.564-1.776 1.452-1.776.66 0 1.08.384 1.224.996h1.764c-.24-1.464-1.284-2.376-2.964-2.376-1.956 0-3.204 1.248-3.204 3.156 0 1.944 1.188 3.156 3.144 3.156zm6.94 0c1.968 0 3.252-1.248 3.252-3.156 0-1.896-1.284-3.156-3.252-3.156-1.968 0-3.252 1.26-3.252 3.156 0 1.896 1.284 3.156 3.252 3.156zm0-1.38c-.948 0-1.524-.732-1.524-1.776s.576-1.776 1.524-1.776c.948 0 1.536.732 1.536 1.776s-.588 1.776-1.536 1.776zm8.3-1.776c0 1.14-.492 1.752-1.332 1.752-.84 0-1.2-.54-1.2-1.644V9.332h-1.692v3.42c0 2.184 1.176 2.82 2.448 2.82.876 0 1.416-.336 1.812-.816l.156.744h1.5V9.332h-1.692v3.084zm6.408-3.156c-.948 0-1.512.36-1.908.84l-.156-.768h-1.476V15.5h1.692v-3.156c0-1.068.504-1.692 1.38-1.692.852 0 1.248.552 1.248 1.596V15.5h1.692v-3.42c0-2.112-1.14-2.82-2.472-2.82zm3.982 4.476c0 1.176.588 1.764 1.764 1.764h1.38v-1.428h-.84c-.444 0-.612-.18-.612-.612v-2.7h1.416V9.332h-1.416V7.604h-1.692v1.728h-1.02v1.428h1.02v2.976zm3.639-.288c.072 1.32 1.236 2.124 2.952 2.124 1.656 0 2.808-.78 2.808-2.004 0-1.392-1.176-1.716-2.592-1.86-.888-.108-1.416-.156-1.416-.624 0-.396.432-.636 1.092-.636.684 0 1.152.3 1.2.792h1.62c-.084-1.26-1.224-1.992-2.88-1.992-1.584-.012-2.652.792-2.652 2.016 0 1.272 1.116 1.596 2.556 1.764.996.132 1.416.168 1.416.672 0 .432-.432.66-1.14.66-.828 0-1.296-.372-1.356-.912h-1.608zm9.628 2.052h1.692V7.1h-1.692v8.4zm5.883.072c1.968 0 3.252-1.248 3.252-3.156 0-1.896-1.284-3.156-3.252-3.156-1.968 0-3.252 1.26-3.252 3.156 0 1.896 1.284 3.156 3.252 3.156zm0-1.38c-.948 0-1.524-.732-1.524-1.776s.576-1.776 1.524-1.776c.948 0 1.536.732 1.536 1.776s-.588 1.776-1.536 1.776zm3.849-.744c.072 1.32 1.236 2.124 2.952 2.124 1.656 0 2.808-.78 2.808-2.004 0-1.392-1.176-1.716-2.592-1.86-.888-.108-1.416-.156-1.416-.624 0-.396.432-.636 1.092-.636.684 0 1.152.3 1.2.792h1.62c-.084-1.26-1.224-1.992-2.88-1.992-1.584-.012-2.652.792-2.652 2.016 0 1.272 1.116 1.596 2.556 1.764.996.132 1.416.168 1.416.672 0 .432-.432.66-1.14.66-.828 0-1.296-.372-1.356-.912h-1.608zm9.699 2.124c1.644 0 2.712-.96 2.904-2.16h-1.668c-.144.576-.624.876-1.308.876-.852 0-1.416-.528-1.452-1.404V12.8h4.476c.036-.192.048-.396.048-.576-.024-1.812-1.272-2.964-3.12-2.964-1.908 0-3.168 1.248-3.168 3.168 0 1.908 1.236 3.144 3.288 3.144zm-1.488-3.876c.096-.732.648-1.176 1.38-1.176.768 0 1.284.42 1.404 1.176h-2.784zm15.769-2.436c-.936 0-1.656.384-2.088 1.044-.384-.78-1.092-1.056-1.848-1.044-.9.012-1.44.36-1.812.84l-.156-.768h-1.476V15.5h1.692v-3.36c0-.924.48-1.488 1.212-1.488.744 0 1.08.48 1.08 1.404V15.5h1.692v-3.372c0-.936.492-1.476 1.224-1.476s1.068.48 1.068 1.404V15.5h1.692v-3.54c0-1.98-1.008-2.7-2.28-2.7zm6.331 6.312c1.968 0 3.252-1.248 3.252-3.156 0-1.896-1.284-3.156-3.252-3.156-1.968 0-3.252 1.26-3.252 3.156 0 1.896 1.284 3.156 3.252 3.156zm0-1.38c-.948 0-1.524-.732-1.524-1.776s.576-1.776 1.524-1.776c.948 0 1.536.732 1.536 1.776s-.588 1.776-1.536 1.776zm7.724-4.932c-.948 0-1.512.36-1.908.84l-.156-.768h-1.476V15.5h1.692v-3.156c0-1.068.504-1.692 1.38-1.692.852 0 1.248.552 1.248 1.596V15.5h1.692v-3.42c0-2.112-1.14-2.82-2.472-2.82zm6.562 6.312c1.644 0 2.712-.96 2.904-2.16h-1.668c-.144.576-.624.876-1.308.876-.852 0-1.416-.528-1.452-1.404V12.8h4.476c.036-.192.048-.396.048-.576-.024-1.812-1.272-2.964-3.12-2.964-1.908 0-3.168 1.248-3.168 3.168 0 1.908 1.236 3.144 3.288 3.144zm-1.488-3.876c.096-.732.648-1.176 1.38-1.176.768 0 1.284.42 1.404 1.176h-2.784zm6.896 3.84l-.156.408c-.168.42-.312.528-.744.528h-.936V17.9h1.644c.96 0 1.272-.504 1.656-1.524l2.736-7.044h-1.812l-1.464 4.392-1.5-4.392h-1.8l2.376 6.204zm9.179-.036h1.8l1.104-3.72 1.08 3.72h1.8l2.028-6.168h-1.728l-1.26 4.356-1.128-4.356h-1.524l-1.164 4.344-1.236-4.344h-1.788l2.016 6.168zm11.92-6.24c-.876 0-1.428.348-1.824.828V7.1h-1.692v8.4h1.692v-3.168c0-1.056.516-1.68 1.38-1.68.84 0 1.248.564 1.248 1.572V15.5h1.692v-3.42c0-2.088-1.128-2.82-2.496-2.82zm6.587 6.312c1.644 0 2.712-.96 2.904-2.16h-1.668c-.144.576-.624.876-1.308.876-.852 0-1.416-.528-1.452-1.404V12.8h4.476c.036-.192.048-.396.048-.576-.024-1.812-1.272-2.964-3.12-2.964-1.908 0-3.168 1.248-3.168 3.168 0 1.908 1.236 3.144 3.288 3.144zm-1.488-3.876c.096-.732.648-1.176 1.38-1.176.768 0 1.284.42 1.404 1.176h-2.784zm8.953-2.436c-.948 0-1.512.36-1.908.84l-.156-.768h-1.476V15.5h1.692v-3.156c0-1.068.504-1.692 1.38-1.692.852 0 1.248.552 1.248 1.596V15.5h1.692v-3.42c0-2.112-1.14-2.82-2.472-2.82zM11.032 27.736c0 1.176.588 1.764 1.764 1.764h1.38v-1.428h-.84c-.444 0-.612-.18-.612-.612v-2.7h1.416v-1.428h-1.416v-1.728h-1.692v1.728h-1.02v1.428h1.02v2.976zm7.395-4.404c-.96 0-1.44.372-1.776.924l-.156-.924H14.96V29.5h1.692v-3.024c0-.936.384-1.608 1.392-1.608h.672v-1.536h-.288zm6.771 4.74c-.264 0-.396-.06-.396-.384v-2.184c0-1.476-.995-2.244-2.724-2.244-1.631 0-2.735.792-2.855 1.992h1.632c.072-.456.515-.756 1.175-.756.708 0 1.104.36 1.104.912v.3H21.91c-1.848 0-2.832.744-2.832 2.052 0 1.176.96 1.812 2.293 1.812.96 0 1.584-.396 2.016-1.08-.012.588.264 1.008 1.14 1.008h.863v-1.428h-.192zm-2.064-1.116c-.012.84-.552 1.392-1.44 1.392-.563 0-.912-.276-.912-.708 0-.516.409-.804 1.116-.804h1.236v.12zm7.364-2.856c-.396-.504-1.008-.84-1.86-.84-1.644 0-2.856 1.236-2.856 3.144 0 1.956 1.212 3.168 2.868 3.168.888 0 1.488-.396 1.896-.924l.168.852h1.476v-8.4h-1.692v3zm-1.476 4.092c-.924 0-1.512-.72-1.512-1.776s.588-1.776 1.512-1.776 1.5.732 1.5 1.788c0 1.044-.576 1.764-1.5 1.764zm5.2-5.52c.551 0 .983-.408.983-.948 0-.552-.432-.96-.984-.96s-.984.408-.984.96c0 .54.432.948.984.948zm-.853 6.828h1.704v-6.168H33.37V29.5zm6.411-6.24c-.948 0-1.512.36-1.908.84l-.156-.768H36.24V29.5h1.692v-3.156c0-1.068.504-1.692 1.38-1.692.852 0 1.248.552 1.248 1.596V29.5h1.692v-3.42c0-2.112-1.14-2.82-2.472-2.82zm8.075.924c-.408-.54-1.032-.936-1.92-.936-1.645 0-2.857 1.224-2.857 3.108 0 1.908 1.212 3.12 2.868 3.108.864 0 1.477-.336 1.885-.852v.648c0 .96-.565 1.428-1.513 1.428-.78 0-1.247-.336-1.404-.924h-1.703c.084 1.428 1.26 2.208 2.976 2.208 2.364 0 3.3-1.128 3.3-2.652v-5.988h-1.489l-.143.852zm-1.536 3.924c-.925 0-1.513-.708-1.513-1.74s.589-1.752 1.513-1.752c.923 0 1.5.732 1.5 1.764 0 1.02-.577 1.728-1.5 1.728zm11.128 1.464c2.052 0 3.504-1.248 3.708-3.072h-1.812c-.216.936-.888 1.548-1.908 1.548-1.356 0-2.16-1.14-2.16-2.748 0-1.62.816-2.748 2.184-2.748.996 0 1.668.612 1.884 1.548h1.824c-.216-1.824-1.62-3.072-3.612-3.072-2.544 0-4.116 1.692-4.116 4.272s1.512 4.272 4.008 4.272zm4.73-.072h1.8v-3.408h3.072v-1.476h-3.072v-1.968h3.744V21.1h-5.544v8.4zm9.587 0c2.616 0 4.356-1.752 4.356-4.212 0-2.472-1.74-4.188-4.356-4.188h-3.06v8.4h3.06zm-1.26-6.9h1.26c1.608 0 2.508 1.08 2.508 2.688 0 1.596-.9 2.712-2.508 2.712h-1.26v-5.4zm6.288 4.848c.072 1.32 1.236 2.124 2.952 2.124 1.656 0 2.808-.78 2.808-2.004 0-1.392-1.176-1.716-2.592-1.86-.888-.108-1.416-.156-1.416-.624 0-.396.432-.636 1.092-.636.684 0 1.152.3 1.2.792h1.62c-.084-1.26-1.224-1.992-2.88-1.992-1.584-.012-2.652.792-2.652 2.016 0 1.272 1.116 1.596 2.556 1.764.996.132 1.416.168 1.416.672 0 .432-.432.66-1.14.66-.828 0-1.296-.372-1.356-.912h-1.608zM87.848 29.5h1.8l1.104-3.72 1.08 3.72h1.8l2.028-6.168h-1.728l-1.26 4.356-1.128-4.356H90.02l-1.164 4.344-1.236-4.344h-1.788l2.016 6.168zm9.256-6.828c.552 0 .984-.408.984-.948 0-.552-.432-.96-.984-.96s-.984.408-.984.96c0 .54.432.948.984.948zm-.852 6.828h1.704v-6.168h-1.704V29.5zm3.315-1.764c0 1.176.588 1.764 1.764 1.764h1.38v-1.428h-.84c-.444 0-.612-.18-.612-.612v-2.7h1.416v-1.428h-1.416v-1.728h-1.692v1.728h-1.02v1.428h1.02v2.976zm7.443-4.476c-.876 0-1.428.348-1.824.828V21.1h-1.692v8.4h1.692v-3.168c0-1.056.516-1.68 1.38-1.68.84 0 1.248.564 1.248 1.572V29.5h1.692v-3.42c0-2.088-1.128-2.82-2.496-2.82zm6.983 4.476c0 1.176.588 1.764 1.764 1.764h1.38v-1.428h-.84c-.444 0-.612-.18-.612-.612v-2.7h1.416v-1.428h-1.416v-1.728h-1.692v1.728h-1.02v1.428h1.02v2.976zm7.443-4.476c-.876 0-1.428.348-1.824.828V21.1h-1.692v8.4h1.692v-3.168c0-1.056.516-1.68 1.38-1.68.84 0 1.248.564 1.248 1.572V29.5h1.692v-3.42c0-2.088-1.128-2.82-2.496-2.82zm4.414-.588c.552 0 .984-.408.984-.948 0-.552-.432-.96-.984-.96s-.984.408-.984.96c0 .54.432.948.984.948zm-.852 6.828h1.704v-6.168h-1.704V29.5zm2.583-2.052c.072 1.32 1.236 2.124 2.952 2.124 1.656 0 2.808-.78 2.808-2.004 0-1.392-1.176-1.716-2.592-1.86-.888-.108-1.416-.156-1.416-.624 0-.396.432-.636 1.092-.636.684 0 1.152.3 1.2.792h1.62c-.084-1.26-1.224-1.992-2.88-1.992-1.584-.012-2.652.792-2.652 2.016 0 1.272 1.116 1.596 2.556 1.764.996.132 1.416.168 1.416.672 0 .432-.432.66-1.14.66-.828 0-1.296-.372-1.356-.912h-1.608zm13.168-4.188c-.876 0-1.5.396-1.896.924l-.168-.852h-1.476V31.9h1.692v-3.18c.396.504 1.008.852 1.86.852 1.656 0 2.856-1.224 2.856-3.144 0-1.944-1.2-3.18-2.868-3.168zm-.372 4.932c-.924 0-1.5-.732-1.5-1.788 0-1.044.576-1.764 1.5-1.764s1.524.72 1.524 1.764c0 1.056-.6 1.788-1.524 1.788zm7.648-4.86c-.96 0-1.44.372-1.776.924l-.156-.924h-1.536V29.5h1.692v-3.024c0-.936.384-1.608 1.392-1.608h.672v-1.536h-.288zm3.856 6.24c1.968 0 3.252-1.248 3.252-3.156 0-1.896-1.284-3.156-3.252-3.156-1.968 0-3.252 1.26-3.252 3.156 0 1.896 1.284 3.156 3.252 3.156zm0-1.38c-.948 0-1.524-.732-1.524-1.776s.576-1.776 1.524-1.776c.948 0 1.536.732 1.536 1.776s-.588 1.776-1.536 1.776zm5.511 1.308h2.1l2.22-6.168h-1.776l-1.464 4.44-1.488-4.44h-1.812l2.22 6.168zm5.736-6.828c.552 0 .984-.408.984-.948 0-.552-.432-.96-.984-.96s-.984.408-.984.96c0 .54.432.948.984.948zm-.852 6.828h1.704v-6.168h-1.704V29.5zm7.347-5.4c-.396-.504-1.008-.84-1.86-.84-1.644 0-2.856 1.236-2.856 3.144 0 1.956 1.212 3.168 2.868 3.168.888 0 1.488-.396 1.896-.924l.168.852h1.476v-8.4h-1.692v3zm-1.476 4.092c-.924 0-1.512-.72-1.512-1.776s.588-1.776 1.512-1.776 1.5.732 1.5 1.788c0 1.044-.576 1.764-1.5 1.764zm7.395 1.38c1.644 0 2.712-.96 2.904-2.16h-1.668c-.144.576-.624.876-1.308.876-.852 0-1.416-.528-1.452-1.404V26.8h4.476c.036-.192.048-.396.048-.576-.024-1.812-1.272-2.964-3.12-2.964-1.908 0-3.168 1.248-3.168 3.168 0 1.908 1.236 3.144 3.288 3.144zm-1.488-3.876c.096-.732.648-1.176 1.38-1.176.768 0 1.284.42 1.404 1.176h-2.784zm8.881-2.364c-.96 0-1.44.372-1.776.924l-.156-.924h-1.536V29.5h1.692v-3.024c0-.936.384-1.608 1.392-1.608h.672v-1.536h-.288zm.232 5.244c0 .576.432.996 1.02.996.576 0 1.02-.42 1.02-.996 0-.588-.444-1.008-1.02-1.008-.588 0-1.02.42-1.02 1.008zm8.761-2.184V29.5h1.044v-3.108l3.168-5.292h-1.176l-2.508 4.164-2.472-4.164h-1.224l3.168 5.292zm6.767 3.18c1.788 0 3.036-1.272 3.036-3.132s-1.248-3.132-3.036-3.132-3.036 1.272-3.036 3.132 1.248 3.132 3.036 3.132zm0-.876c-1.212 0-2.028-.948-2.028-2.256 0-1.308.816-2.256 2.028-2.256 1.212 0 2.028.948 2.028 2.256 0 1.308-.816 2.256-2.028 2.256zm8.449-2.256c0 1.38-.672 2.232-1.789 2.232-1.019 0-1.595-.672-1.595-1.944V23.38h-.984v3.408c0 2.028 1.068 2.784 2.412 2.784 1.008 0 1.596-.432 1.956-.888l.132.816h.852v-6.12h-.984v3.06zm5.214 1.044c.024 1.344 1.116 2.088 2.7 2.088 1.356 0 2.448-.708 2.448-1.848 0-1.356-1.116-1.62-2.508-1.788-.888-.108-1.536-.192-1.536-.864 0-.564.576-.924 1.428-.924.84 0 1.416.468 1.488 1.092h1.008c-.096-1.272-1.104-1.92-2.496-1.932-1.38-.012-2.4.72-2.4 1.836 0 1.272 1.092 1.548 2.46 1.716.912.108 1.584.168 1.584.936 0 .564-.612.936-1.476.936-1.02 0-1.656-.528-1.692-1.248h-1.008zm9.24-4.176c-1.032 0-1.656.504-2.016 1.08V21.1h-.984v8.4h.984v-3.06c0-1.38.708-2.232 1.848-2.232 1.056 0 1.668.672 1.668 1.944V29.5h.984v-3.408c0-2.028-1.116-2.784-2.484-2.784zm6.488 6.264c1.788 0 3.036-1.272 3.036-3.132s-1.248-3.132-3.036-3.132-3.036 1.272-3.036 3.132 1.248 3.132 3.036 3.132zm0-.876c-1.212 0-2.028-.948-2.028-2.256 0-1.308.816-2.256 2.028-2.256 1.212 0 2.028.948 2.028 2.256 0 1.308-.816 2.256-2.028 2.256zm8.448-2.256c0 1.38-.672 2.232-1.788 2.232-1.02 0-1.596-.672-1.596-1.944V23.38h-.984v3.408c0 2.028 1.068 2.784 2.412 2.784 1.008 0 1.596-.432 1.956-.888l.132.816h.852v-6.12h-.984v3.06zm2.326 3.06h.984v-8.4h-.984v8.4zm7.156-5.184c-.372-.588-1.068-1.008-2.1-1.008-1.692 0-2.94 1.26-2.94 3.132 0 1.992 1.248 3.132 2.94 3.132 1.032 0 1.692-.492 2.1-1.056l.132.984H247v-8.4h-.984v3.216zm-2.004 4.38c-1.212 0-2.028-.924-2.028-2.256 0-1.332.816-2.256 2.028-2.256 1.2 0 2.016.936 2.016 2.28 0 1.308-.816 2.232-2.016 2.232zM13.42 43.572c1.488 0 2.484-.84 2.724-2.16H15.1c-.192.78-.792 1.284-1.668 1.284-1.176 0-1.968-.912-1.968-2.244 0-1.332.792-2.268 1.968-2.268.9 0 1.5.492 1.68 1.308h1.032c-.252-1.344-1.2-2.184-2.7-2.184-1.776 0-2.988 1.272-2.988 3.144 0 1.908 1.176 3.12 2.964 3.12zm6.623 0c1.788 0 3.036-1.272 3.036-3.132s-1.248-3.132-3.036-3.132-3.036 1.272-3.036 3.132 1.248 3.132 3.036 3.132zm0-.876c-1.212 0-2.028-.948-2.028-2.256 0-1.308.816-2.256 2.028-2.256 1.212 0 2.028.948 2.028 2.256 0 1.308-.816 2.256-2.028 2.256zm7.164-5.388c-1.032 0-1.656.432-2.016.9l-.132-.828h-.852v6.12h.984v-3.06c0-1.38.696-2.232 1.848-2.232 1.068 0 1.656.672 1.656 1.944V43.5h.984v-3.408c0-2.028-1.092-2.784-2.472-2.784zm3.475 4.176c.024 1.344 1.116 2.088 2.7 2.088 1.356 0 2.448-.708 2.448-1.848 0-1.356-1.116-1.62-2.508-1.788-.888-.108-1.536-.192-1.536-.864 0-.564.576-.924 1.428-.924.84 0 1.416.468 1.488 1.092h1.008c-.096-1.272-1.104-1.92-2.496-1.932-1.38-.012-2.4.72-2.4 1.836 0 1.272 1.092 1.548 2.46 1.716.912.108 1.584.168 1.584.936 0 .564-.612.936-1.476.936-1.02 0-1.656-.528-1.692-1.248h-1.008zm6.744-5.136c.36 0 .636-.264.636-.636a.618.618 0 00-.636-.636.618.618 0 00-.636.636c0 .372.276.636.636.636zm-.504 7.152h.984v-6.12h-.984v6.12zm7.156-5.184c-.372-.588-1.068-1.008-2.1-1.008-1.692 0-2.94 1.26-2.94 3.132 0 1.992 1.248 3.132 2.94 3.132 1.032 0 1.692-.492 2.1-1.056l.132.984h.852v-8.4h-.984v3.216zm-2.004 4.38c-1.212 0-2.028-.924-2.028-2.256 0-1.332.816-2.256 2.028-2.256 1.2 0 2.016.936 2.016 2.28 0 1.308-.816 2.232-2.016 2.232zm7.148.876c1.416 0 2.425-.9 2.664-2.124h-.995c-.204.792-.877 1.248-1.74 1.248-1.165 0-1.897-.816-1.933-1.98v-.084h4.752c.013-.144.025-.288.025-.42-.048-1.812-1.176-2.904-2.904-2.904-1.729 0-2.904 1.272-2.904 3.132 0 1.872 1.2 3.132 3.035 3.132zm-1.944-3.756c.096-.996.925-1.644 1.825-1.644 1.02 0 1.74.588 1.835 1.644h-3.66zm8.671-2.436c-1.092 0-1.56.456-1.848.924l-.132-.924h-.852v6.12h.984v-3.12c0-.972.348-2.04 1.632-2.04h.492v-.96h-.276zm5.674 6.12h1.08l1.536-4.548 1.476 4.548h1.08l2.04-6.12h-.996l-1.596 4.98-1.524-4.98h-.912l-1.608 4.98-1.524-4.98h-1.032l1.98 6.12zm10.983-6.192c-1.032 0-1.656.504-2.016 1.08V35.1h-.984v8.4h.984v-3.06c0-1.38.708-2.232 1.848-2.232 1.056 0 1.668.672 1.668 1.944V43.5h.984v-3.408c0-2.028-1.116-2.784-2.484-2.784zm6.488 6.264c1.416 0 2.424-.9 2.664-2.124h-.996c-.204.792-.876 1.248-1.74 1.248-1.164 0-1.896-.816-1.932-1.98v-.084h4.752c.012-.144.024-.288.024-.42-.048-1.812-1.176-2.904-2.904-2.904s-2.904 1.272-2.904 3.132c0 1.872 1.2 3.132 3.036 3.132zm-1.944-3.756c.096-.996.924-1.644 1.824-1.644 1.02 0 1.74.588 1.836 1.644h-3.66zm6.224 2.088c0 1.08.42 1.596 1.596 1.596h1.068v-.9h-.972c-.528 0-.708-.192-.708-.708V38.28h1.584v-.9h-1.584v-1.716h-.984v1.716H82.27v.9h1.104v3.624zm6.517-4.596c-1.032 0-1.656.504-2.016 1.08V35.1h-.984v8.4h.984v-3.06c0-1.38.708-2.232 1.848-2.232 1.056 0 1.668.672 1.668 1.944V43.5h.984v-3.408c0-2.028-1.116-2.784-2.484-2.784zm6.488 6.264c1.416 0 2.424-.9 2.664-2.124h-.996c-.204.792-.876 1.248-1.74 1.248-1.164 0-1.896-.816-1.932-1.98v-.084h4.752c.012-.144.024-.288.024-.42-.048-1.812-1.176-2.904-2.904-2.904s-2.904 1.272-2.904 3.132c0 1.872 1.2 3.132 3.036 3.132zm-1.944-3.756c.096-.996.924-1.644 1.824-1.644 1.02 0 1.74.588 1.836 1.644h-3.66zm8.671-2.436c-1.092 0-1.56.456-1.848.924l-.132-.924h-.852v6.12h.984v-3.12c0-.972.348-2.04 1.632-2.04h.492v-.96h-.276zm6.045 6.156l-.3.744c-.228.576-.324.72-.888.72h-.876v.9h1.176c.864 0 1.092-.384 1.476-1.368l2.82-7.152h-1.044l-1.824 4.884-1.884-4.884h-1.044l2.388 6.156zm6.693.036c1.788 0 3.036-1.272 3.036-3.132s-1.248-3.132-3.036-3.132-3.036 1.272-3.036 3.132 1.248 3.132 3.036 3.132zm0-.876c-1.212 0-2.028-.948-2.028-2.256 0-1.308.816-2.256 2.028-2.256 1.212 0 2.028.948 2.028 2.256 0 1.308-.816 2.256-2.028 2.256zm8.448-2.256c0 1.38-.672 2.232-1.788 2.232-1.02 0-1.596-.672-1.596-1.944V37.38h-.984v3.408c0 2.028 1.068 2.784 2.412 2.784 1.008 0 1.596-.432 1.956-.888l.132.816h.852v-6.12h-.984v3.06zm8.214 3.132c1.488 0 2.484-.84 2.724-2.16h-1.044c-.192.78-.792 1.284-1.668 1.284-1.176 0-1.968-.912-1.968-2.244 0-1.332.792-2.268 1.968-2.268.9 0 1.5.492 1.68 1.308h1.032c-.252-1.344-1.2-2.184-2.7-2.184-1.776 0-2.988 1.272-2.988 3.144 0 1.908 1.176 3.12 2.964 3.12zm9.215-.972c-.276 0-.396-.084-.396-.408v-2.676c0-1.428-.9-2.208-2.46-2.208-1.476 0-2.448.708-2.592 1.908h.984c.12-.624.696-1.032 1.56-1.032.96 0 1.524.48 1.524 1.272v.42h-1.8c-1.608 0-2.46.684-2.46 1.908 0 1.116.912 1.788 2.256 1.788 1.056 0 1.668-.468 2.052-1.02.012.6.288.948 1.104.948h.54v-.9h-.312zm-1.38-1.596c0 1.02-.708 1.728-1.932 1.728-.816 0-1.332-.408-1.332-1.008 0-.696.492-1.02 1.368-1.02h1.896v.3zm5.448-3.696c-1.032 0-1.656.432-2.016.9l-.132-.828h-.852v6.12h.984v-3.06c0-1.38.696-2.232 1.848-2.232 1.068 0 1.656.672 1.656 1.944V43.5h.984v-3.408c0-2.028-1.092-2.784-2.472-2.784zm12.279 5.292c-.276 0-.396-.084-.396-.408v-2.676c0-1.428-.9-2.208-2.46-2.208-1.476 0-2.448.708-2.592 1.908h.984c.12-.624.696-1.032 1.56-1.032.96 0 1.524.48 1.524 1.272v.42h-1.8c-1.608 0-2.46.684-2.46 1.908 0 1.116.912 1.788 2.256 1.788 1.056 0 1.668-.468 2.052-1.02.012.6.288.948 1.104.948h.54v-.9h-.312zm-1.38-1.596c0 1.02-.708 1.728-1.932 1.728-.816 0-1.332-.408-1.332-1.008 0-.696.492-1.02 1.368-1.02h1.896v.3zM165.701 36v-.9h-1.128c-1.14 0-1.596.516-1.596 1.596v.684h-2.4v-.708c0-.468.18-.672.672-.672h.948v-.9h-1.008c-1.14 0-1.596.516-1.596 1.596v.684h-1.104v.9h1.104v5.22h.984v-5.22h2.4v5.22h.984v-5.22h1.728v-.9h-1.728v-.708c0-.468.18-.672.672-.672h1.068zm3.252 7.572c1.788 0 3.036-1.272 3.036-3.132s-1.248-3.132-3.036-3.132-3.036 1.272-3.036 3.132 1.248 3.132 3.036 3.132zm0-.876c-1.212 0-2.028-.948-2.028-2.256 0-1.308.816-2.256 2.028-2.256 1.212 0 2.028.948 2.028 2.256 0 1.308-.816 2.256-2.028 2.256zm6.996-5.316c-1.092 0-1.56.456-1.848.924l-.132-.924h-.852v6.12h.984v-3.12c0-.972.348-2.04 1.632-2.04h.492v-.96h-.276zm5.602.936c-.372-.588-1.068-1.008-2.1-1.008-1.692 0-2.94 1.26-2.94 3.132 0 1.992 1.248 3.132 2.94 3.132 1.032 0 1.692-.492 2.1-1.056l.132.984h.852v-8.4h-.984v3.216zm-2.004 4.38c-1.212 0-2.028-.924-2.028-2.256 0-1.332.816-2.256 2.028-2.256 1.2 0 2.016.936 2.016 2.28 0 1.308-.816 2.232-2.016 2.232zm7.925-.792c0 1.08.42 1.596 1.596 1.596h1.068v-.9h-.972c-.528 0-.708-.192-.708-.708V38.28h1.584v-.9h-1.584v-1.716h-.984v1.716h-1.104v.9h1.104v3.624zm6.184 1.668c1.788 0 3.036-1.272 3.036-3.132s-1.248-3.132-3.036-3.132-3.036 1.272-3.036 3.132 1.248 3.132 3.036 3.132zm0-.876c-1.212 0-2.028-.948-2.028-2.256 0-1.308.816-2.256 2.028-2.256 1.212 0 2.028.948 2.028 2.256 0 1.308-.816 2.256-2.028 2.256zm7.761-.792c0 1.08.42 1.596 1.596 1.596h1.068v-.9h-.972c-.528 0-.708-.192-.708-.708V38.28h1.584v-.9h-1.584v-1.716h-.984v1.716h-1.104v.9h1.104v3.624zm8.835.696c-.276 0-.396-.084-.396-.408v-2.676c0-1.428-.9-2.208-2.46-2.208-1.476 0-2.448.708-2.592 1.908h.984c.12-.624.696-1.032 1.56-1.032.96 0 1.524.48 1.524 1.272v.42h-1.8c-1.608 0-2.46.684-2.46 1.908 0 1.116.912 1.788 2.256 1.788 1.056 0 1.668-.468 2.052-1.02.012.6.288.948 1.104.948h.54v-.9h-.312zm-1.38-1.596c0 1.02-.708 1.728-1.932 1.728-.816 0-1.332-.408-1.332-1.008 0-.696.492-1.02 1.368-1.02h1.896v.3zm2.448 2.496h.984v-1.608l1.236-1.272 2.028 2.88h1.188l-2.556-3.588 2.388-2.532h-1.212l-3.072 3.252V35.1h-.984v8.4zm8.598.072c1.416 0 2.424-.9 2.664-2.124h-.996c-.204.792-.876 1.248-1.74 1.248-1.164 0-1.896-.816-1.932-1.98v-.084h4.752c.012-.144.024-.288.024-.42-.048-1.812-1.176-2.904-2.904-2.904s-2.904 1.272-2.904 3.132c0 1.872 1.2 3.132 3.036 3.132zm-1.944-3.756c.096-.996.924-1.644 1.824-1.644 1.02 0 1.74.588 1.836 1.644h-3.66zm9.435 2.088c0 1.08.42 1.596 1.596 1.596h1.068v-.9h-.972c-.528 0-.708-.192-.708-.708V38.28h1.584v-.9h-1.584v-1.716h-.984v1.716h-1.104v.9h1.104v3.624zm6.517-4.596c-1.032 0-1.656.504-2.016 1.08V35.1h-.984v8.4h.984v-3.06c0-1.38.708-2.232 1.848-2.232 1.056 0 1.668.672 1.668 1.944V43.5h.984v-3.408c0-2.028-1.116-2.784-2.484-2.784zm6.488 6.264c1.416 0 2.424-.9 2.664-2.124h-.996c-.204.792-.876 1.248-1.74 1.248-1.164 0-1.896-.816-1.932-1.98v-.084h4.752c.012-.144.024-.288.024-.42-.048-1.812-1.176-2.904-2.904-2.904s-2.904 1.272-2.904 3.132c0 1.872 1.2 3.132 3.036 3.132zm-1.944-3.756c.096-.996.924-1.644 1.824-1.644 1.02 0 1.74.588 1.836 1.644h-3.66zm11.979-2.508c-1.032 0-1.656.504-2.016 1.08V35.1h-.984v8.4h.984v-3.06c0-1.38.708-2.232 1.848-2.232 1.056 0 1.668.672 1.668 1.944V43.5h.984v-3.408c0-2.028-1.116-2.784-2.484-2.784zm4.243-.96c.36 0 .636-.264.636-.636a.618.618 0 00-.636-.636.618.618 0 00-.636.636c0 .372.276.636.636.636zm-.504 7.152h.984v-6.12h-.984v6.12zm7.156-5.064c-.384-.684-1.068-1.128-2.1-1.128-1.692 0-2.94 1.26-2.94 3.132 0 1.992 1.248 3.132 2.94 3.132 1.032 0 1.692-.432 2.1-1.128v.72c0 1.332-.696 1.932-1.98 1.932-1.02 0-1.704-.432-1.872-1.2h-1.008c.156 1.344 1.248 2.076 2.808 2.076 2.1 0 3.036-1.008 3.036-2.772v-5.82h-.852l-.132 1.056zm-2.004 4.26c-1.212 0-2.028-.924-2.028-2.256 0-1.332.816-2.256 2.028-2.256 1.2 0 2.016.936 2.016 2.28 0 1.308-.816 2.232-2.016 2.232zm7.328-5.388c-1.032 0-1.656.504-2.016 1.08V35.1h-.984v8.4h.984v-3.06c0-1.38.708-2.232 1.848-2.232 1.056 0 1.668.672 1.668 1.944V43.5h.984v-3.408c0-2.028-1.116-2.784-2.484-2.784zM13.504 51.38c-1.092 0-1.56.456-1.848.924l-.132-.924h-.852v6.12h.984v-3.12c0-.972.348-2.04 1.632-2.04h.492v-.96h-.276zm1.633-1.032c.36 0 .636-.264.636-.636a.618.618 0 00-.636-.636.618.618 0 00-.636.636c0 .372.276.636.636.636zm-.504 7.152h.984v-6.12h-.984v6.12zm2.08-2.016c.024 1.344 1.116 2.088 2.7 2.088 1.356 0 2.448-.708 2.448-1.848 0-1.356-1.116-1.62-2.508-1.788-.888-.108-1.536-.192-1.536-.864 0-.564.576-.924 1.428-.924.84 0 1.416.468 1.488 1.092h1.008c-.096-1.272-1.104-1.92-2.496-1.932-1.38-.012-2.4.72-2.4 1.836 0 1.272 1.092 1.548 2.46 1.716.912.108 1.584.168 1.584.936 0 .564-.612.936-1.476.936-1.02 0-1.656-.528-1.692-1.248h-1.008zm6.24 2.016h.984v-1.608l1.236-1.272 2.028 2.88h1.188l-2.556-3.588 2.388-2.532H27.01l-3.072 3.252V49.1h-.984v8.4zm12.09.072c1.788 0 3.036-1.272 3.036-3.132s-1.248-3.132-3.036-3.132-3.036 1.272-3.036 3.132 1.248 3.132 3.036 3.132zm0-.876c-1.212 0-2.028-.948-2.028-2.256 0-1.308.816-2.256 2.028-2.256 1.212 0 2.028.948 2.028 2.256 0 1.308-.816 2.256-2.028 2.256zm3.446-4.416h1.104v5.22h.984v-5.22h1.728v-.9h-1.728v-.708c0-.468.18-.672.672-.672h1.056v-.9h-1.116c-1.14 0-1.596.516-1.596 1.596v.684h-1.104v.9zm7.667 5.22h.984v-8.4h-.984v8.4zm5.152.072c1.788 0 3.036-1.272 3.036-3.132s-1.248-3.132-3.036-3.132-3.036 1.272-3.036 3.132 1.248 3.132 3.036 3.132zm0-.876c-1.212 0-2.028-.948-2.028-2.256 0-1.308.816-2.256 2.028-2.256 1.212 0 2.028.948 2.028 2.256 0 1.308-.816 2.256-2.028 2.256zm3.89-1.212c.023 1.344 1.115 2.088 2.7 2.088 1.355 0 2.447-.708 2.447-1.848 0-1.356-1.116-1.62-2.508-1.788-.888-.108-1.536-.192-1.536-.864 0-.564.576-.924 1.428-.924.84 0 1.416.468 1.488 1.092h1.008c-.096-1.272-1.104-1.92-2.496-1.932-1.38-.012-2.4.72-2.4 1.836 0 1.272 1.092 1.548 2.46 1.716.912.108 1.584.168 1.584.936 0 .564-.612.936-1.476.936-1.02 0-1.656-.528-1.692-1.248h-1.008zm6.744-5.136c.36 0 .636-.264.636-.636a.618.618 0 00-.636-.636.618.618 0 00-.636.636c0 .372.276.636.636.636zm-.504 7.152h.984v-6.12h-.984v6.12zm5.332-6.192c-1.032 0-1.656.432-2.016.9l-.132-.828h-.852v6.12h.984v-3.06c0-1.38.696-2.232 1.848-2.232 1.068 0 1.656.672 1.656 1.944V57.5h.984v-3.408c0-2.028-1.092-2.784-2.472-2.784zm8.55 1.128c-.384-.684-1.068-1.128-2.1-1.128-1.692 0-2.94 1.26-2.94 3.132 0 1.992 1.248 3.132 2.94 3.132 1.032 0 1.692-.432 2.1-1.128v.72c0 1.332-.696 1.932-1.98 1.932-1.02 0-1.704-.432-1.872-1.2H70.46c.156 1.344 1.248 2.076 2.808 2.076 2.1 0 3.036-1.008 3.036-2.772v-5.82h-.852l-.132 1.056zm-2.004 4.26c-1.212 0-2.028-.924-2.028-2.256 0-1.332.816-2.256 2.028-2.256 1.2 0 2.016.936 2.016 2.28 0 1.308-.816 2.232-2.016 2.232zm9.245.84l-.3.744c-.228.576-.324.72-.888.72h-.876v.9h1.176c.864 0 1.092-.384 1.476-1.368l2.82-7.152h-1.044l-1.824 4.884-1.884-4.884h-1.044l2.388 6.156zm6.693.036c1.788 0 3.036-1.272 3.036-3.132s-1.248-3.132-3.036-3.132-3.036 1.272-3.036 3.132 1.248 3.132 3.036 3.132zm0-.876c-1.212 0-2.028-.948-2.028-2.256 0-1.308.816-2.256 2.028-2.256 1.212 0 2.028.948 2.028 2.256 0 1.308-.816 2.256-2.028 2.256zm8.448-2.256c0 1.38-.672 2.232-1.788 2.232-1.02 0-1.596-.672-1.596-1.944V51.38h-.984v3.408c0 2.028 1.068 2.784 2.412 2.784 1.008 0 1.596-.432 1.956-.888l.132.816h.852v-6.12h-.984v3.06zm5.157-3.06c-1.092 0-1.56.456-1.848.924l-.132-.924h-.852v6.12h.984v-3.12c0-.972.348-2.04 1.632-2.04h.492v-.96h-.276zm11.098-.072c-1.092 0-1.752.504-2.124 1.164-.348-.78-1.08-1.164-1.932-1.164-.948 0-1.464.468-1.788.912l-.132-.84h-.852v6.12h.984v-3.228c0-1.224.612-2.064 1.62-2.064.936 0 1.476.624 1.476 1.824V57.5h.984v-3.276c0-1.248.624-2.016 1.644-2.016.924 0 1.452.624 1.452 1.824V57.5h.984v-3.528c0-1.932-1.044-2.664-2.316-2.664zm6.328 6.264c1.788 0 3.036-1.272 3.036-3.132s-1.248-3.132-3.036-3.132-3.036 1.272-3.036 3.132 1.248 3.132 3.036 3.132zm0-.876c-1.212 0-2.028-.948-2.028-2.256 0-1.308.816-2.256 2.028-2.256 1.212 0 2.028.948 2.028 2.256 0 1.308-.816 2.256-2.028 2.256zm7.164-5.388c-1.032 0-1.656.432-2.016.9l-.132-.828h-.852v6.12h.984v-3.06c0-1.38.696-2.232 1.848-2.232 1.068 0 1.656.672 1.656 1.944V57.5h.984v-3.408c0-2.028-1.092-2.784-2.472-2.784zm6.477 6.264c1.416 0 2.424-.9 2.664-2.124h-.996c-.204.792-.876 1.248-1.74 1.248-1.164 0-1.896-.816-1.932-1.98v-.084h4.752c.012-.144.024-.288.024-.42-.048-1.812-1.176-2.904-2.904-2.904s-2.904 1.272-2.904 3.132c0 1.872 1.2 3.132 3.036 3.132zm-1.944-3.756c.096-.996.924-1.644 1.824-1.644 1.02 0 1.74.588 1.836 1.644h-3.66zm7.345 3.72l-.3.744c-.228.576-.324.72-.888.72h-.876v.9h1.176c.864 0 1.092-.384 1.476-1.368l2.82-7.152h-1.044l-1.824 4.884-1.884-4.884h-1.044l2.388 6.156zm3.448-.636c0 .408.288.672.684.672.396 0 .684-.264.684-.672 0-.408-.288-.672-.684-.672-.396 0-.684.264-.684.672z" fill="#000"/></svg>