<svg width="257" height="21" viewBox="0 0 257 21" fill="none" xmlns="http://www.w3.org/2000/svg"><path d="M.792 20h3.22v-7.112H8.52c4.088 0 6.776-2.464 6.776-6.244C15.296 2.836 12.608.4 8.52.4H.792V20zM8.268 3.2c2.296 0 3.752 1.316 3.752 3.444 0 2.1-1.484 3.444-3.78 3.444H4.012V3.2h4.256zm15.289 16.968c4.368 0 7.308-2.94 7.308-7.336 0-4.368-2.94-7.336-7.308-7.336s-7.308 2.968-7.308 7.336c0 4.396 2.94 7.336 7.308 7.336zm0-2.576c-2.548 0-4.2-1.988-4.2-4.76s1.652-4.76 4.2-4.76 4.228 1.988 4.228 4.76-1.68 4.76-4.228 4.76zM36.108 20h3.276l3.136-9.744L45.544 20h3.248l4.76-14.336h-3.08L47.084 16.64 43.948 5.664h-2.772L37.9 16.64 34.624 5.664h-3.192L36.108 20zm25.348.168c3.556 0 5.964-2.156 6.468-4.984H64.9c-.42 1.596-1.764 2.52-3.612 2.52-2.38 0-3.92-1.596-4.004-4.032v-.196h10.808c.056-.392.084-.784.084-1.148-.084-4.2-2.856-6.832-7-6.832-4.228 0-7.056 2.94-7.056 7.364 0 4.396 2.828 7.308 7.336 7.308zm-4.06-8.904c.224-2.044 1.876-3.332 3.808-3.332 2.1 0 3.584 1.204 3.836 3.332h-7.644zm20.477-5.6c-2.352 0-3.5.952-4.228 2.156l-.336-2.156H70.62V20h3.024v-7.196c0-2.212.868-4.312 3.556-4.312h1.344V5.664h-.672zm22.805 11.704c-.616 0-.924-.196-.924-.924v-5.74c0-3.388-2.184-5.208-5.992-5.208-3.612 0-6.02 1.736-6.328 4.536h2.968c.224-1.26 1.428-2.1 3.22-2.1 1.988 0 3.136.98 3.136 2.576v.868h-3.612c-4.004 0-6.132 1.652-6.132 4.592 0 2.66 2.184 4.2 5.32 4.2 2.324 0 3.78-1.008 4.732-2.464 0 1.428.672 2.296 2.632 2.296h1.596v-2.632h-.616zm-3.92-3.248c-.028 2.212-1.484 3.696-4.004 3.696-1.652 0-2.66-.84-2.66-2.044 0-1.456 1.036-2.156 2.912-2.156h3.752v.504zM110.5 5.496c-2.324 0-3.696.924-4.592 2.044l-.336-1.876h-2.632V20h3.024v-7.224c0-2.912 1.428-4.676 3.836-4.676 2.268 0 3.416 1.456 3.416 4.172V20h3.052v-7.98c0-4.788-2.604-6.524-5.768-6.524zm19.301 2.156c-.924-1.26-2.464-2.156-4.648-2.156-3.892 0-6.776 2.912-6.776 7.336 0 4.592 2.884 7.336 6.776 7.336 2.268 0 3.752-1.064 4.676-2.324l.364 2.156h2.632V.4h-3.024v7.252zm-4.144 9.968c-2.52 0-4.172-1.96-4.172-4.788 0-2.8 1.652-4.76 4.172-4.76 2.52 0 4.172 1.96 4.172 4.816 0 2.772-1.652 4.732-4.172 4.732zM143.253 20h3.22v-7.112h4.508c4.088 0 6.776-2.464 6.776-6.244 0-3.808-2.688-6.244-6.776-6.244h-7.728V20zm7.476-16.8c2.296 0 3.752 1.316 3.752 3.444 0 2.1-1.484 3.444-3.78 3.444h-4.228V3.2h4.256zm16.448 2.464c-2.352 0-3.5.952-4.228 2.156l-.336-2.156h-2.688V20h3.024v-7.196c0-2.212.868-4.312 3.556-4.312h1.344V5.664h-.672zm8.658 14.504c3.556 0 5.964-2.156 6.468-4.984h-3.024c-.42 1.596-1.764 2.52-3.612 2.52-2.38 0-3.92-1.596-4.004-4.032v-.196h10.808c.056-.392.084-.784.084-1.148-.084-4.2-2.856-6.832-7-6.832-4.228 0-7.056 2.94-7.056 7.364 0 4.396 2.828 7.308 7.336 7.308zm-4.06-8.904c.224-2.044 1.876-3.332 3.808-3.332 2.1 0 3.584 1.204 3.836 3.332h-7.644zm19.805 8.904c3.668 0 6.104-2.044 6.664-5.292h-3.192c-.364 1.652-1.596 2.716-3.444 2.716-2.436 0-4.032-1.932-4.032-4.732 0-2.828 1.596-4.788 4.032-4.788 1.876 0 3.08 1.036 3.472 2.716h3.164c-.588-3.248-2.884-5.292-6.58-5.292-4.34 0-7.196 2.94-7.196 7.364 0 4.48 2.772 7.308 7.112 7.308zm10.518-16.52c1.036 0 1.848-.756 1.848-1.82s-.812-1.82-1.848-1.82-1.848.756-1.848 1.82.812 1.82 1.848 1.82zM200.558 20h3.024V5.664h-3.024V20zm5.373-4.732c.084 3.108 2.716 4.9 6.552 4.9 3.472 0 6.076-1.736 6.076-4.48 0-3.192-2.66-3.864-5.936-4.256-2.072-.224-3.445-.392-3.445-1.736 0-1.148 1.177-1.876 2.969-1.876 1.792 0 3.024.924 3.192 2.24h2.968c-.196-2.94-2.688-4.564-6.216-4.564-3.444-.028-5.88 1.736-5.88 4.452 0 2.968 2.576 3.668 5.851 4.06 2.213.28 3.529.392 3.529 1.932 0 1.148-1.232 1.876-3.108 1.876-2.184 0-3.472-1.064-3.584-2.548h-2.968zm16.511-11.62c1.036 0 1.848-.756 1.848-1.82s-.812-1.82-1.848-1.82-1.848.756-1.848 1.82.812 1.82 1.848 1.82zM220.902 20h3.024V5.664h-3.024V20zm12.764.168c4.368 0 7.308-2.94 7.308-7.336 0-4.368-2.94-7.336-7.308-7.336s-7.308 2.968-7.308 7.336c0 4.396 2.94 7.336 7.308 7.336zm0-2.576c-2.548 0-4.2-1.988-4.2-4.76s1.652-4.76 4.2-4.76 4.228 1.988 4.228 4.76-1.68 4.76-4.228 4.76zm17.3-12.096c-2.324 0-3.696.924-4.592 2.044l-.336-1.876h-2.632V20h3.024v-7.224c0-2.912 1.428-4.676 3.836-4.676 2.268 0 3.416 1.456 3.416 4.172V20h3.052v-7.98c0-4.788-2.604-6.524-5.768-6.524z" fill="#000"/></svg>