<svg width="261" height="36" viewBox="0 0 261 36" fill="none" xmlns="http://www.w3.org/2000/svg"><path d="M4.432 12c3.008 0 5.632-1.776 5.632-5.6C10.064 2.736 7.616.8 4.4.8H.864A.143.143 0 00.72.944l.064 5.312-.064 5.6c0 .08.064.144.144.144h3.568zM2.208 6.224c0-1.008.048-4.208.048-4.224h2.24C6.72 2 8.528 3.44 8.528 6.4c0 3.104-1.984 4.4-3.968 4.4H2.256c0-.016-.048-3.536-.048-4.576zm10.949-3.408c.08 0 .144-.064.144-.144V1.36a.143.143 0 00-.144-.144h-1.2a.143.143 0 00-.144.144v1.312c0 .08.064.144.144.144h1.2zm0 9.184c.08 0 .144-.064.144-.144l-.032-4.112.032-3.84a.143.143 0 00-.144-.144h-1.2a.143.143 0 00-.144.144l.032 3.856-.032 4.096c0 .08.064.144.144.144h1.2zm8.954-2.368c0-3.456-5.552-1.68-5.552-3.728 0-.912.72-1.328 1.84-1.328 1.184 0 1.984.48 2.08 1.52.016.08.08.144.16.144h1.072c.08 0 .144-.064.144-.144-.128-1.712-1.52-2.512-3.44-2.512-1.952 0-3.248.832-3.248 2.416 0 3.328 5.552 1.584 5.552 3.744 0 .912-.8 1.424-2.016 1.424-1.472 0-2.256-.576-2.32-1.872a.143.143 0 00-.144-.144h-1.12a.143.143 0 00-.144.144c.064 1.92 1.488 2.88 3.68 2.88 1.968 0 3.456-.928 3.456-2.544zM30.9 9.04c.016-.08-.048-.144-.128-.144H29.7c-.08 0-.144.064-.16.144-.144 1.328-.976 2.08-2.208 2.08-1.616-.016-2.384-1.136-2.384-3.232 0-2.048.768-3.232 2.384-3.232 1.104 0 1.904.608 2.128 1.808.016.08.08.144.16.144h1.056c.08 0 .144-.064.128-.144-.176-1.728-1.424-2.896-3.472-2.896-2.496 0-3.888 1.744-3.888 4.336 0 2.592 1.392 4.288 3.856 4.288 2.128 0 3.44-1.328 3.6-3.152zm9.102-1.168c0-2.592-1.392-4.304-3.904-4.304-2.496 0-3.904 1.728-3.904 4.336 0 2.592 1.408 4.288 3.904 4.288 2.512 0 3.904-1.728 3.904-4.32zm-6.32.032c0-2.064.784-3.248 2.416-3.264 1.6 0 2.4 1.2 2.4 3.264s-.784 3.216-2.4 3.216c-1.616 0-2.416-1.152-2.416-3.216zm14.605-4.016c.016-.064-.016-.128-.096-.128h-1.12c-.08 0-.16.064-.192.144l-2.384 6.88-2.32-6.88c-.032-.08-.112-.144-.192-.144h-1.296c-.064 0-.112.064-.096.128l2.944 8c.032.064.112.128.192.128h1.472c.08 0 .16-.064.192-.128l2.896-8zM55.2 9.136c-.08 0-.16.064-.177.144-.24 1.2-.976 1.84-2.192 1.84-1.616 0-2.431-1.056-2.48-3.04h6.08c.08 0 .145-.064.145-.144-.048-2.736-1.456-4.368-3.84-4.368s-3.856 1.76-3.856 4.336c0 2.512 1.375 4.288 3.935 4.288 2.113 0 3.36-1.232 3.617-2.912 0-.08-.049-.144-.129-.144H55.2zm-.193-2.08H50.4c.208-1.552.992-2.432 2.352-2.432 1.456 0 2.207 1.12 2.255 2.432zM59.51 12c.08 0 .144-.064.144-.144l-.016-4.32c.176-1.808 1.376-2.656 2.768-2.656.176 0 .336.016.464.032a.12.12 0 00.144-.112v-.896c0-.08-.064-.16-.144-.176a2.217 2.217 0 00-.48-.048c-1.152 0-2.208.56-2.8 1.616l.064-1.392a.143.143 0 00-.144-.144h-1.184a.143.143 0 00-.144.144l.048 3.888-.048 4.064c0 .08.064.144.144.144h1.184zm13.58-5.104l.016 1.792-.048 3.168c0 .08.064.144.144.144h1.216c.08 0 .144-.064.144-.144l-.048-3.184.016-1.664c.016-2.368-1.056-3.44-2.8-3.44-1.28 0-2.16.672-2.672 1.52L69.09.944A.143.143 0 0068.946.8h-1.168a.143.143 0 00-.144.144l.048 5.376-.048 5.536c0 .08.064.144.144.144h1.168c.08 0 .144-.064.144-.144l-.048-4.8c.352-1.472 1.264-2.336 2.336-2.336.992 0 1.712.64 1.712 2.176zm10.83.976c0-2.592-1.392-4.304-3.904-4.304-2.496 0-3.904 1.728-3.904 4.336 0 2.592 1.408 4.288 3.904 4.288 2.512 0 3.904-1.728 3.904-4.32zm-6.32.032c0-2.064.784-3.248 2.416-3.264 1.6 0 2.4 1.2 2.4 3.264s-.784 3.216-2.4 3.216c-1.616 0-2.416-1.152-2.416-3.216zM93.514 12c.08 0 .16-.064.176-.144l2.016-7.952c.016-.08-.032-.144-.112-.144h-1.056c-.08 0-.16.064-.176.144l-1.552 6.768-1.632-6.768a.187.187 0 00-.176-.144h-1.456c-.08 0-.16.064-.176.144l-1.584 6.864-1.6-6.864a.187.187 0 00-.176-.144h-1.184a.12.12 0 00-.112.144l2.144 7.952c.016.08.096.144.176.144h1.392c.08 0 .16-.064.176-.144l1.568-6.88 1.744 6.88c.016.08.096.144.176.144h1.424zm16.244-3.392c0-4.432-7.184-2.496-7.184-4.88 0-.928.832-1.328 1.984-1.328 1.344 0 2.16.544 2.304 1.536.016.112.096.176.208.176h2.192c.096 0 .16-.08.16-.176-.352-2.368-2.16-3.376-4.768-3.376-2.864 0-4.496 1.312-4.496 3.408 0 4.448 7.152 2.448 7.152 4.976 0 1.056-.8 1.488-2.256 1.488-1.824 0-2.4-.8-2.56-2.032-.016-.096-.096-.176-.192-.176h-2.192a.178.178 0 00-.176.176c.128 2.624 2.144 3.856 5.072 3.856s4.752-1.28 4.752-3.648zm6.395 1.84c0-.08-.08-.144-.176-.128-.24.064-.528.128-.896.128-.528 0-.88-.224-.88-.928l-.016-4.064h1.808c.096 0 .176-.08.176-.176V3.936a.178.178 0 00-.176-.176h-1.792l.016-1.888a.178.178 0 00-.176-.176h-2.08a.178.178 0 00-.176.176l.016 1.888h-.88a.178.178 0 00-.176.176V5.28c0 .096.08.176.176.176h.896l-.016 4.128c0 1.872 1.328 2.576 2.72 2.576.496 0 1.008-.112 1.472-.256a.29.29 0 00.16-.24v-1.216zm9.37-2.592c0-2.624-1.52-4.304-4.208-4.304s-4.24 1.728-4.24 4.352c0 2.624 1.552 4.304 4.24 4.304s4.208-1.728 4.208-4.352zm-6 .064c0-1.856.56-2.752 1.776-2.768 1.184 0 1.76.896 1.76 2.752 0 1.888-.56 2.704-1.744 2.704-1.2 0-1.792-.832-1.792-2.688zm9.688 4.08c.096 0 .176-.08.176-.176l-.032-3.328v-.608c0-1.76.928-2.56 1.792-2.56.72 0 1.264.576 1.264 1.472v1.696l-.048 3.328c0 .096.08.176.176.176h2.08c.096 0 .176-.08.176-.176l-.048-3.328V6.768c0-2.016-1.12-3.2-2.864-3.2-1.152 0-2.096.512-2.656 1.232l.032-.864c.016-.096-.064-.176-.16-.176h-1.968a.178.178 0 00-.176.176l.032 4.112-.064 3.776c0 .096.08.176.176.176h2.112zm13.006-2.784a.206.206 0 00-.208.176c-.224.864-.8 1.216-1.6 1.216-1.152 0-1.76-.688-1.856-2.24h5.856c.096 0 .176-.08.176-.176-.064-2.864-1.552-4.64-4.256-4.64-2.624 0-4.192 1.728-4.192 4.352 0 2.496 1.488 4.304 4.24 4.304 2.288 0 3.728-1.312 3.952-2.816.016-.096-.064-.176-.16-.176h-1.952zm-.224-2.368h-3.376c.192-1.136.768-1.712 1.728-1.712 1.056 0 1.552.832 1.648 1.712zM154.989 12c.08 0 .128-.08.08-.144l-3.664-5.664 3.328-5.248c.048-.064 0-.144-.08-.144h-2.416a.356.356 0 00-.272.144l-1.92 3.264L148.173.96a.33.33 0 00-.272-.16h-2.592c-.08 0-.128.08-.08.144l3.36 5.168-3.632 5.744c-.048.064 0 .144.08.144h2.416a.356.356 0 00.272-.144l2.256-3.84 2.144 3.824c.048.096.144.16.256.16h2.608zm11.838-2.96c.016-.08-.048-.144-.128-.144h-1.072c-.08 0-.144.064-.16.144-.144 1.328-.976 2.08-2.208 2.08-1.616-.016-2.384-1.136-2.384-3.232 0-2.048.768-3.232 2.384-3.232 1.104 0 1.904.608 2.128 1.808.016.08.08.144.16.144h1.056c.08 0 .144-.064.128-.144-.176-1.728-1.424-2.896-3.472-2.896-2.496 0-3.888 1.744-3.888 4.336 0 2.592 1.392 4.288 3.856 4.288 2.128 0 3.44-1.328 3.6-3.152zm9.102-1.168c0-2.592-1.392-4.304-3.904-4.304-2.496 0-3.904 1.728-3.904 4.336 0 2.592 1.408 4.288 3.904 4.288 2.512 0 3.904-1.728 3.904-4.32zm-6.32.032c0-2.064.784-3.248 2.416-3.264 1.6 0 2.4 1.2 2.4 3.264s-.784 3.216-2.4 3.216c-1.616 0-2.416-1.152-2.416-3.216zm13.411 2.688l-.032 1.264c0 .08.064.144.144.144h1.136c.08 0 .144-.064.144-.144l-.032-4.336.048-3.616a.143.143 0 00-.144-.144h-1.216a.143.143 0 00-.144.144l.032 3.376v1.248c-.32 1.632-1.2 2.496-2.272 2.496-1.04 0-1.744-.672-1.744-2.16V7.28l.032-3.376a.143.143 0 00-.144-.144h-1.2a.143.143 0 00-.144.144l.032 3.376v1.632c0 2.16 1.072 3.28 2.768 3.28 1.312 0 2.24-.752 2.736-1.6zM187.721 12c.08 0 .144-.064.144-.144l-.064-5.536.064-5.376a.143.143 0 00-.144-.144h-1.184a.143.143 0 00-.144.144l.064 5.392-.064 5.52c0 .08.064.144.144.144h1.184zm3.323-4.208c0-1.856.736-3.168 2.32-3.152 1.456.016 2.288 1.232 2.272 3.312-.016 2.096-.896 3.152-2.304 3.152-1.552 0-2.288-1.328-2.288-3.312zm5.84 4.208c.08 0 .144-.064.144-.144l-.032-6.064.032-4.848a.143.143 0 00-.144-.144H195.7a.143.143 0 00-.144.144l.016 4.032c-.56-.896-1.44-1.376-2.576-1.376-2.176 0-3.44 1.92-3.44 4.304 0 2.4 1.184 4.256 3.408 4.256 1.184 0 2.08-.544 2.624-1.456l-.032 1.152c0 .08.064.144.144.144h1.184zm10.977-5.104l.016 1.792-.048 3.168c0 .08.064.144.144.144h1.216c.08 0 .144-.064.144-.144l-.048-3.184.016-1.664c.016-2.368-1.056-3.44-2.8-3.44-1.28 0-2.16.672-2.672 1.52l.032-4.144a.143.143 0 00-.144-.144h-1.168a.143.143 0 00-.144.144l.048 5.376-.048 5.536c0 .08.064.144.144.144h1.168c.08 0 .144-.064.144-.144l-.048-4.8c.352-1.472 1.264-2.336 2.336-2.336.992 0 1.712.64 1.712 2.176zm9.325 2.24c-.08 0-.16.064-.176.144-.24 1.2-.976 1.84-2.192 1.84-1.616 0-2.432-1.056-2.48-3.04h6.08c.08 0 .144-.064.144-.144-.048-2.736-1.456-4.368-3.84-4.368s-3.856 1.76-3.856 4.336c0 2.512 1.376 4.288 3.936 4.288 2.112 0 3.36-1.232 3.616-2.912 0-.08-.048-.144-.128-.144h-1.104zm-.192-2.08h-4.608c.208-1.552.992-2.432 2.352-2.432 1.456 0 2.208 1.12 2.256 2.432zM221.577 12c.08 0 .144-.064.144-.144l-.064-5.536.064-5.376a.143.143 0 00-.144-.144h-1.184a.143.143 0 00-.144.144l.064 5.392-.064 5.52c0 .08.064.144.144.144h1.184zm3.499-4.192c.016-2.064.896-3.136 2.304-3.136 1.568 0 2.304 1.328 2.304 3.296 0 1.84-.736 3.12-2.336 3.12-1.456 0-2.288-1.2-2.272-3.28zm6.08.048c0-2.4-1.184-4.256-3.408-4.256-1.184 0-2.08.56-2.624 1.488l.032-1.184a.143.143 0 00-.144-.144h-1.184a.143.143 0 00-.144.144l.048 4.512-.048 6.16c0 .08.064.144.144.144h1.216c.08 0 .144-.064.144-.144l-.032-3.808c.544.912 1.424 1.392 2.576 1.392 2.176 0 3.424-1.92 3.424-4.304zm11.64-3.952c.032-.08-.016-.144-.096-.144h-1.216c-.08 0-.16.064-.192.144l-1.968 6.208-2.336-6.224c-.032-.064-.112-.128-.192-.128h-1.36c-.064 0-.112.064-.096.128l3.232 8.128-.88 2.56c-.032.08.032.144.096.144h1.104c.08 0 .16-.064.192-.144l3.712-10.672zm8.407 3.968c0-2.592-1.392-4.304-3.904-4.304-2.496 0-3.904 1.728-3.904 4.336 0 2.592 1.408 4.288 3.904 4.288 2.512 0 3.904-1.728 3.904-4.32zm-6.32.032c0-2.064.784-3.248 2.416-3.264 1.6 0 2.4 1.2 2.4 3.264s-.784 3.216-2.4 3.216c-1.616 0-2.416-1.152-2.416-3.216zm13.411 2.688l-.032 1.264c0 .08.064.144.144.144h1.136c.08 0 .144-.064.144-.144l-.032-4.336.048-3.616a.143.143 0 00-.144-.144h-1.216a.143.143 0 00-.144.144l.032 3.376v1.248c-.32 1.632-1.2 2.496-2.272 2.496-1.04 0-1.744-.672-1.744-2.16V7.28l.032-3.376a.143.143 0 00-.144-.144h-1.2a.143.143 0 00-.144.144l.032 3.376v1.632c0 2.16 1.072 3.28 2.768 3.28 1.312 0 2.24-.752 2.736-1.6zm-253.51 21.4c0-.064-.064-.128-.144-.096a4.136 4.136 0 01-.848.096c-.704 0-1.04-.304-1.04-1.296v-4.8H4.64c.08 0 .144-.064.144-.144v-.848a.143.143 0 00-.144-.144H2.752l.016-1.92a.143.143 0 00-.144-.144H1.44a.143.143 0 00-.144.144l.016 1.92H.4a.143.143 0 00-.144.144v.848c0 .08.064.144.144.144h.912v4.832c0 1.792 1.008 2.416 2.208 2.416.384 0 .8-.096 1.12-.192.08-.032.144-.112.144-.192v-.768zM7.608 33c.08 0 .144-.064.144-.144l-.016-4.32c.176-1.808 1.376-2.656 2.768-2.656.176 0 .336.016.464.032a.12.12 0 00.144-.112v-.896c0-.08-.064-.16-.144-.176a2.217 2.217 0 00-.48-.048c-1.152 0-2.208.56-2.8 1.616l.064-1.392a.143.143 0 00-.144-.144H6.424a.143.143 0 00-.144.144l.048 3.888-.048 4.064c0 .08.064.144.144.144h1.184zm5.465-4.208c0-1.792.688-3.056 2.176-3.12h.336c1.344.112 2.096 1.296 2.08 3.28-.016 2.08-.88 3.136-2.304 3.136-1.552 0-2.288-1.328-2.288-3.296zM18.913 33c.08 0 .144-.064.144-.144l-.048-4.048.048-3.904a.143.143 0 00-.144-.144H17.73a.143.143 0 00-.144.144l.032 1.104c-.544-.912-1.424-1.408-2.592-1.408-2.176 0-3.44 1.92-3.44 4.304 0 2.384 1.184 4.256 3.408 4.256 1.2 0 2.08-.56 2.64-1.488l-.032 1.184c0 .08.064.144.144.144h1.168zm3.413 0c.08 0 .144-.064.144-.144l-.016-3.376v-1.248c.32-1.632 1.184-2.496 2.272-2.496 1.024 0 1.744.672 1.744 2.16v1.584l-.032 3.376c0 .08.064.144.144.144h1.184c.08 0 .144-.064.144-.144l-.032-3.376v-1.648c0-2.144-1.056-3.264-2.752-3.264-1.312 0-2.24.752-2.752 1.584l.048-1.248a.143.143 0 00-.144-.144h-1.136a.143.143 0 00-.144.144l.032 4.336-.048 3.616c0 .08.064.144.144.144h1.2zm14.253-2.368c0-3.456-5.552-1.68-5.552-3.728 0-.912.72-1.328 1.84-1.328 1.184 0 1.984.48 2.08 1.52.016.08.08.144.16.144h1.072c.08 0 .144-.064.144-.144-.128-1.712-1.52-2.512-3.44-2.512-1.952 0-3.248.832-3.248 2.416 0 3.328 5.552 1.584 5.552 3.744 0 .912-.8 1.424-2.016 1.424-1.472 0-2.256-.576-2.32-1.872a.143.143 0 00-.144-.144h-1.12a.143.143 0 00-.144.144c.064 1.92 1.488 2.88 3.68 2.88 1.968 0 3.456-.928 3.456-2.544zm3.028-6.816c.08 0 .144-.064.144-.144V22.36a.143.143 0 00-.144-.144h-1.2a.143.143 0 00-.144.144v1.312c0 .08.064.144.144.144h1.2zm0 9.184c.08 0 .144-.064.144-.144l-.032-4.112.032-3.84a.143.143 0 00-.144-.144h-1.2a.143.143 0 00-.144.144l.032 3.856-.032 4.096c0 .08.064.144.144.144h1.2zm6.267-1.008c0-.064-.064-.128-.144-.096a4.136 4.136 0 01-.848.096c-.704 0-1.04-.304-1.04-1.296v-4.8h1.888c.08 0 .144-.064.144-.144v-.848a.143.143 0 00-.144-.144h-1.888l.016-1.92a.143.143 0 00-.144-.144H42.53a.143.143 0 00-.144.144l.016 1.92h-.912a.143.143 0 00-.144.144v.848c0 .08.064.144.144.144h.912v4.832c0 1.792 1.008 2.416 2.208 2.416.384 0 .8-.096 1.12-.192.08-.032.144-.112.144-.192v-.768zm2.92-8.176c.08 0 .144-.064.144-.144V22.36a.143.143 0 00-.144-.144h-1.2a.143.143 0 00-.144.144v1.312c0 .08.064.144.144.144h1.2zm0 9.184c.08 0 .144-.064.144-.144l-.032-4.112.032-3.84a.143.143 0 00-.144-.144h-1.2a.143.143 0 00-.144.144l.032 3.856-.032 4.096c0 .08.064.144.144.144h1.2zm9.658-4.128c0-2.592-1.392-4.304-3.904-4.304-2.496 0-3.904 1.728-3.904 4.336 0 2.592 1.408 4.288 3.904 4.288 2.512 0 3.904-1.728 3.904-4.32zm-6.32.032c0-2.064.784-3.248 2.416-3.264 1.6 0 2.4 1.2 2.4 3.264s-.784 3.216-2.4 3.216c-1.616 0-2.416-1.152-2.416-3.216zm9.3 4.096c.08 0 .143-.064.143-.144l-.016-3.376v-1.248c.32-1.632 1.184-2.496 2.273-2.496 1.024 0 1.744.672 1.744 2.16v1.584l-.032 3.376c0 .08.064.144.144.144h1.183c.08 0 .145-.064.145-.144l-.032-3.376v-1.648c0-2.144-1.056-3.264-2.752-3.264-1.313 0-2.24.752-2.752 1.584l.048-1.248a.143.143 0 00-.145-.144h-1.136a.143.143 0 00-.144.144l.032 4.336-.047 3.616c0 .08.063.144.143.144h1.2zm14.939-1.008c0-.064-.064-.128-.144-.096a4.136 4.136 0 01-.848.096c-.704 0-1.04-.304-1.04-1.296v-4.8h1.888c.08 0 .144-.064.144-.144v-.848a.143.143 0 00-.144-.144h-1.888l.016-1.92a.143.143 0 00-.144-.144h-1.184a.143.143 0 00-.144.144l.016 1.92h-.912a.143.143 0 00-.144.144v.848c0 .08.064.144.144.144h.912v4.832c0 1.792 1.008 2.416 2.208 2.416.384 0 .8-.096 1.12-.192.08-.032.144-.112.144-.192v-.768zm8.672-3.12c0-2.592-1.392-4.304-3.904-4.304-2.495 0-3.903 1.728-3.903 4.336 0 2.592 1.407 4.288 3.903 4.288 2.513 0 3.904-1.728 3.904-4.32zm-6.32.032c0-2.064.784-3.248 2.416-3.264 1.6 0 2.4 1.2 2.4 3.264s-.784 3.216-2.4 3.216c-1.615 0-2.415-1.152-2.415-3.216zm12.358-.112c0-1.792.688-3.056 2.176-3.12h.336c1.344.112 2.096 1.296 2.08 3.28-.016 2.08-.88 3.136-2.304 3.136-1.552 0-2.288-1.328-2.288-3.296zM96.921 33c.08 0 .144-.064.144-.144l-.048-4.048.048-3.904a.143.143 0 00-.144-.144h-1.184a.143.143 0 00-.144.144l.032 1.104c-.544-.912-1.424-1.408-2.592-1.408-2.176 0-3.44 1.92-3.44 4.304 0 2.384 1.184 4.256 3.408 4.256 1.2 0 2.08-.56 2.64-1.488l-.032 1.184c0 .08.064.144.144.144h1.168zm7.649 0c.096 0 .176-.08.176-.176l-.08-5.424.08-5.424a.178.178 0 00-.176-.176h-2.048a.178.178 0 00-.176.176l.08 5.424-.08 5.424c0 .096.08.176.176.176h2.048zm10.093-4.144c0-2.624-1.52-4.304-4.208-4.304s-4.24 1.728-4.24 4.352c0 2.624 1.552 4.304 4.24 4.304s4.208-1.728 4.208-4.352zm-6 .064c0-1.856.56-2.752 1.776-2.768 1.184 0 1.76.896 1.76 2.752 0 1.888-.56 2.704-1.744 2.704-1.2 0-1.792-.832-1.792-2.688zM124.998 33c.096 0 .192-.08.208-.176l1.744-7.888c.016-.096-.048-.176-.144-.176h-1.872a.221.221 0 00-.208.176l-.96 5.952-1.088-5.952a.221.221 0 00-.208-.176h-2.544a.221.221 0 00-.208.176l-1.136 6.096-.912-6.096a.221.221 0 00-.208-.176h-2.08c-.08 0-.16.08-.144.176l1.776 7.888a.221.221 0 00.208.176h2.464c.096 0 .192-.08.208-.176l1.12-6.064 1.296 6.064a.221.221 0 00.208.176h2.48zm6.777-3.776c.096 0 .176-.08.176-.176v-1.312a.178.178 0 00-.176-.176h-3.888a.178.178 0 00-.176.176v1.312c0 .096.08.176.176.176h3.888zm9.33.784c.016-.096-.064-.176-.16-.176h-1.92c-.096 0-.176.08-.192.176-.112 1.056-.72 1.616-1.52 1.6-1.2-.016-1.792-.832-1.792-2.72 0-1.824.576-2.704 1.792-2.72.672 0 1.264.448 1.44 1.344a.206.206 0 00.208.176h1.872c.096 0 .176-.08.16-.176-.208-1.776-1.568-2.96-3.68-2.96-2.688 0-4.256 1.728-4.256 4.352 0 2.624 1.568 4.304 4.208 4.304 2.144 0 3.648-1.344 3.84-3.2zm3.602-1.232c0-1.696.624-2.608 1.84-2.576 1.136.016 1.776.976 1.76 2.736-.032 1.744-.64 2.624-1.808 2.624-1.152.016-1.792-.928-1.792-2.784zm5.76 4.224c.096 0 .176-.08.176-.176l-.064-3.936.064-3.952a.178.178 0 00-.176-.176h-2.08c-.096 0-.176.08-.16.176l.032.72c-.56-.688-1.36-1.056-2.384-1.056-2.24 0-3.616 1.92-3.616 4.304 0 2.4 1.232 4.256 3.568 4.256 1.04 0 1.856-.416 2.432-1.12l-.032.784c0 .096.08.176.176.176h2.064zm3.989 0c.096 0 .176-.08.176-.176l-.016-3.488c0-1.888 1.248-2.832 2.944-2.832.08 0 .192 0 .272.016.096 0 .176-.064.176-.16v-1.424a.221.221 0 00-.176-.208 2.387 2.387 0 00-.336-.032c-1.2 0-2.304.48-2.944 1.456l.048-1.216c.016-.096-.064-.176-.16-.176h-2.048a.178.178 0 00-.176.176l.064 3.936-.064 3.952c0 .096.08.176.176.176h2.064zm13.143-4.144c0-2.4-1.232-4.256-3.568-4.256-1.024 0-1.84.4-2.416 1.088l.032-3.712a.178.178 0 00-.176-.176h-2.08a.178.178 0 00-.176.176l.064 5.424-.064 5.424c0 .096.08.176.176.176h2.08c.096 0 .176-.08.16-.176l-.032-.704c.56.672 1.36 1.04 2.384 1.04 2.24 0 3.616-1.92 3.616-4.304zm-6.048-.064c.016-1.696.64-2.56 1.808-2.56 1.152-.016 1.792.912 1.792 2.72 0 1.664-.624 2.608-1.84 2.576-1.152-.016-1.776-.976-1.76-2.736zm15.717.064c0-2.624-1.52-4.304-4.208-4.304s-4.24 1.728-4.24 4.352c0 2.624 1.552 4.304 4.24 4.304s4.208-1.728 4.208-4.352zm-6 .064c0-1.856.56-2.752 1.776-2.768 1.184 0 1.76.896 1.76 2.752 0 1.888-.56 2.704-1.744 2.704-1.2 0-1.792-.832-1.792-2.688zm9.688 4.08c.096 0 .176-.08.176-.176l-.032-3.328v-.608c0-1.76.928-2.56 1.791-2.56.721 0 1.265.576 1.265 1.472v1.696l-.048 3.328c0 .096.08.176.176.176h2.08c.096 0 .176-.08.176-.176l-.048-3.328v-1.728c0-2.016-1.12-3.2-2.864-3.2-1.152 0-2.096.512-2.656 1.232l.032-.864c.016-.096-.064-.176-.16-.176h-1.968a.178.178 0 00-.176.176l.032 4.112-.064 3.776c0 .096.08.176.176.176h2.112zm16.614-2.784a.206.206 0 00-.208.176c-.224.864-.8 1.216-1.6 1.216-1.152 0-1.76-.688-1.856-2.24h5.856c.096 0 .176-.08.176-.176-.064-2.864-1.552-4.64-4.256-4.64-2.624 0-4.192 1.728-4.192 4.352 0 2.496 1.488 4.304 4.24 4.304 2.288 0 3.728-1.312 3.952-2.816.016-.096-.064-.176-.16-.176h-1.952zm-.224-2.368h-3.376c.192-1.136.768-1.712 1.728-1.712 1.056 0 1.552.832 1.648 1.712zm11.801 2.16c.016-.096-.064-.176-.16-.176h-1.92c-.096 0-.176.08-.192.176-.112 1.056-.72 1.616-1.52 1.6-1.2-.016-1.792-.832-1.792-2.72 0-1.824.576-2.704 1.792-2.72.672 0 1.264.448 1.44 1.344a.206.206 0 00.208.176h1.872c.096 0 .176-.08.16-.176-.208-1.776-1.568-2.96-3.68-2.96-2.688 0-4.256 1.728-4.256 4.352 0 2.624 1.568 4.304 4.208 4.304 2.144 0 3.648-1.344 3.84-3.2zm9.602-1.152c0-2.624-1.52-4.304-4.208-4.304s-4.24 1.728-4.24 4.352c0 2.624 1.552 4.304 4.24 4.304s4.208-1.728 4.208-4.352zm-6 .064c0-1.856.56-2.752 1.776-2.768 1.184 0 1.76.896 1.76 2.752 0 1.888-.56 2.704-1.744 2.704-1.2 0-1.792-.832-1.792-2.688zm9.688 4.08c.096 0 .176-.08.176-.176l-.032-3.328v-.608c0-1.76.928-2.56 1.792-2.56.72 0 1.264.576 1.264 1.472v1.696l-.048 3.328c0 .096.08.176.176.176h2.08c.096 0 .176-.08.176-.176l-.048-3.328v-1.728c0-2.016-1.12-3.2-2.864-3.2-1.152 0-2.096.512-2.656 1.232l.032-.864c.016-.096-.064-.176-.16-.176h-1.968a.178.178 0 00-.176.176l.032 4.112-.064 3.776c0 .096.08.176.176.176h2.112zm15.373-4.144c0-2.624-1.52-4.304-4.208-4.304s-4.24 1.728-4.24 4.352c0 2.624 1.552 4.304 4.24 4.304s4.208-1.728 4.208-4.352zm-6 .064c0-1.856.56-2.752 1.776-2.768 1.184 0 1.76.896 1.76 2.752 0 1.888-.56 2.704-1.744 2.704-1.2 0-1.792-.832-1.792-2.688zm9.816-.032c0-1.68.784-2.56 1.456-2.56.672 0 1.072.48 1.072 1.472v2.24l-.064 2.784c0 .096.08.176.176.176h2.112c.096 0 .176-.08.176-.176l-.064-2.784v-1.152c0-1.68.8-2.56 1.456-2.56.656 0 1.072.48 1.072 1.472v2.24l-.064 2.784c0 .096.08.176.176.176h2.112c.096 0 .176-.08.176-.176l-.048-2.784v-2.272c0-2.192-.96-3.2-2.624-3.2-.976 0-1.808.304-2.512 1.552-.384-1.056-1.2-1.552-2.352-1.552-1.056 0-1.792.432-2.368 1.232l.032-.864c.016-.096-.064-.176-.16-.176h-1.984a.178.178 0 00-.176.176l.032 5.104-.064 2.784c0 .096.08.176.176.176h2.144c.096 0 .176-.08.176-.176l-.064-2.784v-1.152zm18.781-3.968c.032-.08-.016-.16-.112-.16h-2.08c-.096 0-.192.08-.224.176l-1.472 5.104-1.776-5.12c-.032-.096-.144-.16-.24-.16h-2.352c-.08 0-.144.08-.112.16l3.296 8.16-.848 2.48c-.032.08.032.16.112.16h1.936a.28.28 0 00.24-.16l3.632-10.64z" fill="#fff"/></svg>