<svg width="144" height="12" viewBox="0 0 144 12" fill="none" xmlns="http://www.w3.org/2000/svg"><path d="M.3 2.03h3.24V11h1.725V2.03h3.24V.5H.3v1.53zm12.466 1.29c-1.26 0-1.875.51-2.265 1.155l-.18-1.155H8.88V11h1.62V7.145c0-1.185.465-2.31 1.905-2.31h.72V3.32h-.36zm8.145 6.27c-.33 0-.495-.105-.495-.495V6.02c0-1.815-1.17-2.79-3.21-2.79-1.935 0-3.225.93-3.39 2.43h1.59c.12-.675.765-1.125 1.725-1.125 1.065 0 1.68.525 1.68 1.38v.465h-1.935c-2.145 0-3.285.885-3.285 2.46 0 1.425 1.17 2.25 2.85 2.25 1.245 0 2.025-.54 2.535-1.32 0 .765.36 1.23 1.41 1.23h.855V9.59h-.33zm-2.1-1.74c-.015 1.185-.795 1.98-2.145 1.98-.885 0-1.425-.45-1.425-1.095 0-.78.555-1.155 1.56-1.155h2.01v.27zm9.088-3.465c-.495-.675-1.32-1.155-2.49-1.155-2.084 0-3.63 1.56-3.63 3.93 0 2.46 1.546 3.93 3.63 3.93 1.216 0 2.01-.57 2.506-1.245L28.11 11h1.41V.5H27.9v3.885zm-2.22 5.34c-1.35 0-2.234-1.05-2.234-2.565 0-1.5.884-2.55 2.235-2.55 1.35 0 2.235 1.05 2.235 2.58 0 1.485-.886 2.535-2.235 2.535zm9.069 1.365c1.905 0 3.195-1.155 3.465-2.67h-1.62c-.225.855-.945 1.35-1.935 1.35-1.275 0-2.1-.855-2.145-2.16v-.105h5.79a4.4 4.4 0 00.045-.615c-.045-2.25-1.53-3.66-3.75-3.66-2.265 0-3.78 1.575-3.78 3.945 0 2.355 1.515 3.915 3.93 3.915zm-2.175-4.77c.12-1.095 1.005-1.785 2.04-1.785 1.125 0 1.92.645 2.055 1.785h-4.095zM43.6 6.5c0 2.985 1.41 4.59 4.125 4.59 2.73 0 4.155-1.605 4.155-4.59v-6h-1.725v6.09c0 1.95-.75 2.97-2.43 2.97-1.65 0-2.4-1.02-2.4-2.97V.5H43.6v6zm9.718 1.05c.06 2.1 1.635 3.54 4.245 3.54 2.31 0 3.885-1.305 3.885-3.195.015-2.07-1.68-2.625-3.42-2.94-1.65-.285-2.73-.51-2.73-1.59 0-.99.825-1.5 2.01-1.5 1.275 0 2.115.72 2.25 1.785h1.725C61.208 1.715 59.708.41 57.308.41c-2.235 0-3.735 1.245-3.735 3.075 0 2.085 1.65 2.64 3.39 2.94 1.665.3 2.76.54 2.76 1.65 0 1.005-.9 1.56-2.145 1.56-1.47 0-2.43-.825-2.52-2.055l-1.74-.03zm12.992.915c.045 1.665 1.455 2.625 3.51 2.625 1.86 0 3.255-.93 3.255-2.4 0-1.71-1.425-2.07-3.18-2.28-1.11-.12-1.845-.21-1.845-.93 0-.615.63-1.005 1.59-1.005.96 0 1.62.495 1.71 1.2h1.59C72.835 4.1 71.5 3.23 69.61 3.23c-1.845-.015-3.15.93-3.15 2.385 0 1.59 1.38 1.965 3.135 2.175 1.185.15 1.89.21 1.89 1.035 0 .615-.66 1.005-1.665 1.005-1.17 0-1.86-.57-1.92-1.365h-1.59zM78.365 3.23c-1.2 0-1.935.54-2.415 1.2V.5h-1.62V11h1.62V7.115c0-1.545.78-2.49 2.055-2.49 1.2 0 1.845.78 1.845 2.235V11h1.62V6.725c0-2.565-1.395-3.495-3.105-3.495zm11.598 6.36c-.33 0-.495-.105-.495-.495V6.02c0-1.815-1.17-2.79-3.21-2.79-1.935 0-3.225.93-3.39 2.43h1.59c.12-.675.765-1.125 1.725-1.125 1.065 0 1.68.525 1.68 1.38v.465h-1.935c-2.145 0-3.285.885-3.285 2.46 0 1.425 1.17 2.25 2.85 2.25 1.245 0 2.025-.54 2.535-1.32 0 .765.36 1.23 1.41 1.23h.855V9.59h-.33zm-2.1-1.74c-.015 1.185-.795 1.98-2.145 1.98-.885 0-1.425-.45-1.425-1.095 0-.78.555-1.155 1.56-1.155h2.01v.27zm7.198-4.53c-1.26 0-1.875.51-2.265 1.155l-.18-1.155h-1.44V11h1.62V7.145c0-1.185.465-2.31 1.905-2.31h.72V3.32h-.36zm4.638 7.77c1.905 0 3.195-1.155 3.465-2.67h-1.62c-.225.855-.945 1.35-1.935 1.35-1.275 0-2.1-.855-2.145-2.16v-.105h5.79a4.4 4.4 0 00.045-.615c-.045-2.25-1.53-3.66-3.75-3.66-2.265 0-3.78 1.575-3.78 3.945 0 2.355 1.515 3.915 3.93 3.915zm-2.175-4.77c.12-1.095 1.005-1.785 2.04-1.785 1.125 0 1.92.645 2.055 1.785h-4.095zm15.647 4.77c2.445 0 4.23-1.44 4.56-3.66h-1.785c-.33 1.335-1.335 2.145-2.79 2.145-1.98 0-3.18-1.59-3.18-3.825 0-2.25 1.23-3.825 3.225-3.825 1.425 0 2.415.825 2.76 2.145h1.785c-.345-2.22-2.07-3.66-4.47-3.66-3.105 0-5.07 2.145-5.07 5.34 0 3.225 1.905 5.34 4.965 5.34zm5.987-.09h1.725V6.56h4.11V5.075h-4.11V2.03h4.98V.5h-6.705V11zm11.598 0c3.285 0 5.355-2.145 5.355-5.265 0-3.12-2.07-5.235-5.355-5.235h-3.57V11h3.57zm-1.845-9h1.845c2.31 0 3.585 1.485 3.585 3.735S133.066 9.5 130.756 9.5h-1.845V2zm8.224 6.465c.045 1.665 1.455 2.625 3.51 2.625 1.86 0 3.255-.93 3.255-2.4 0-1.71-1.425-2.07-3.18-2.28-1.11-.12-1.845-.21-1.845-.93 0-.615.63-1.005 1.59-1.005.96 0 1.62.495 1.71 1.2h1.59c-.105-1.575-1.44-2.445-3.33-2.445-1.845-.015-3.15.93-3.15 2.385 0 1.59 1.38 1.965 3.135 2.175 1.185.15 1.89.21 1.89 1.035 0 .615-.66 1.005-1.665 1.005-1.17 0-1.86-.57-1.92-1.365h-1.59z" fill="#000"/></svg>