<svg width="171" height="20" viewBox="0 0 171 20" fill="none" xmlns="http://www.w3.org/2000/svg"><rect x="1" y=".574" width="169" height="19" rx="9.5" fill="#fff"/><circle cx="14.549" cy="10.074" r="3.985" fill="#4FC706"/><path d="M21.406 13.574h1.614V11.68h.867l.903 1.894h1.771l-1.113-2.288c.552-.36.912-.973.912-1.727 0-1.29-.956-2.122-2.367-2.122h-2.587v6.137zm2.455-4.822c.526 0 .85.307.85.807s-.324.806-.85.806h-.841V8.752h.841zm3.273 4.822h4.33v-1.368h-2.717v-1.07h2.095v-1.28h-2.095V8.806h2.621V7.437h-4.234v6.137zm5.077 0h1.613V11.68h.964c1.394 0 2.323-.833 2.323-2.121 0-1.29-.93-2.122-2.323-2.122h-2.577v6.137zm2.428-4.822c.508 0 .833.307.833.807s-.325.806-.833.806h-.815V8.752h.815zm9.106 1.753c0-1.78-1.253-3.12-3.103-3.12-1.85 0-3.104 1.34-3.104 3.12s1.254 3.121 3.104 3.121 3.103-1.341 3.103-3.12zm-4.559 0c0-1.025.562-1.788 1.456-1.788.894 0 1.455.763 1.455 1.788 0 1.026-.561 1.789-1.455 1.789-.895 0-1.456-.763-1.456-1.789zm5.267 3.069h1.613V11.68h.868l.903 1.894h1.77l-1.112-2.288c.552-.36.911-.973.911-1.727 0-1.29-.955-2.122-2.367-2.122h-2.586v6.137zm2.455-4.822c.526 0 .85.307.85.807s-.324.806-.85.806h-.842V8.752h.842zm2.743.053h1.657v4.769h1.613v-4.77h1.657V7.438h-4.927v1.368zm5.053 2.744c0 1.27 1.025 2.077 2.612 2.077 1.517 0 2.499-.815 2.507-2.007.01-1.263-.867-1.57-1.946-1.78-1.07-.21-1.411-.29-1.411-.657 0-.377.333-.553.771-.553.544 0 .842.307.877.72h1.57c0-1.21-.956-1.965-2.447-1.965-1.464 0-2.393.807-2.393 1.92 0 1.28.85 1.605 1.911 1.824 1.078.219 1.447.298 1.447.675 0 .394-.369.587-.86.587-.657 0-1.034-.342-1.07-.806l-1.568-.035zm8.21 2.025h.762V10.89h2.525v-.701h-2.524V8.138h3.05v-.7h-3.813v6.136zm6.33-4.471c-.798 0-1.14.333-1.35.675l-.097-.675h-.622v4.47h.719v-2.279c0-.71.254-1.49 1.192-1.49h.36v-.701h-.202zm1.193-.754a.452.452 0 00.464-.465.452.452 0 00-.464-.464.451.451 0 00-.465.464c0 .272.202.465.465.465zm-.369 5.225h.72V9.103h-.72v4.47zm5.228-3.787c-.271-.43-.78-.737-1.534-.737-1.236 0-2.148.92-2.148 2.288 0 1.456.912 2.288 2.148 2.288.754 0 1.236-.36 1.534-.771l.097.719h.622V7.437h-.719v2.35zm-1.464 3.2c-.885 0-1.481-.676-1.481-1.649s.596-1.648 1.481-1.648c.877 0 1.473.684 1.473 1.666 0 .955-.596 1.63-1.473 1.63zm7.116-.07c-.201 0-.29-.062-.29-.299v-1.955c0-1.043-.657-1.613-1.796-1.613-1.078 0-1.789.517-1.894 1.394h.719c.088-.456.508-.754 1.14-.754.701 0 1.113.35 1.113.93v.306h-1.315c-1.175 0-1.797.5-1.797 1.394 0 .815.666 1.306 1.648 1.306.772 0 1.219-.342 1.5-.745.008.438.21.693.806.693h.394v-.658h-.228zM79.94 11.75c0 .745-.517 1.263-1.411 1.263-.596 0-.974-.298-.974-.737 0-.508.36-.745 1-.745h1.385v.22zm2.924 1.85l-.22.544c-.166.42-.236.526-.648.526h-.64v.657h.859c.631 0 .798-.28 1.078-1l2.06-5.224h-.762l-1.333 3.568-1.376-3.568h-.763l1.745 4.497zm5.425-.026h.745v-4.84l2.034 4.84h.675l2.034-4.84v4.84h.745V7.437h-.947l-2.147 5.093-2.174-5.093h-.965v6.137zm11.271-.658c-.201 0-.289-.061-.289-.298v-1.955c0-1.043-.657-1.613-1.797-1.613-1.079 0-1.789.517-1.894 1.394h.72c.087-.456.508-.754 1.139-.754.701 0 1.113.35 1.113.93v.306h-1.315c-1.175 0-1.797.5-1.797 1.394 0 .815.666 1.306 1.648 1.306.772 0 1.219-.342 1.5-.745.008.438.21.693.806.693h.394v-.658h-.228zm-1.008-1.166c0 .745-.517 1.263-1.411 1.263-.597 0-.973-.298-.973-.737 0-.508.359-.745.999-.745h1.385v.22zm2.924 1.85l-.22.544c-.166.42-.236.526-.648.526h-.64v.657h.859c.631 0 .798-.28 1.078-1l2.06-5.224h-.762l-1.333 3.568-1.376-3.568h-.763l1.745 4.497zm7.503-4.138c-.57 0-1.096.14-1.473.588l.14-1.938h2.999v-.675h-3.674l-.201 3.49.71.017c.263-.728 1.017-.833 1.394-.833.85 0 1.385.587 1.385 1.42 0 .947-.675 1.43-1.394 1.43-.886 0-1.42-.588-1.49-1.298h-.728c.061 1.07.85 1.955 2.218 1.955 1.148 0 2.148-.737 2.148-2.096 0-1.218-.833-2.06-2.034-2.06zm7.978 1.92v-.605h-2.919v.605h2.919zm3.605 1.227c.386.632 1.009 1.017 1.859 1.017 1.262 0 2.13-.876 2.13-2.06 0-1.254-.85-2.051-2.06-2.051-.824 0-1.438.403-1.709 1.008-.035.079-.044.131-.053.167-.009-.15-.009-.21-.009-.299 0-1.385.588-2.358 1.657-2.358.745 0 1.184.421 1.324 1.043h.736c-.149-1.025-.911-1.692-2.025-1.692-1.464 0-2.332 1.219-2.332 3.148 0 .806.176 1.543.482 2.077zm3.253-1.043c0 .824-.552 1.412-1.403 1.412-.841 0-1.402-.57-1.402-1.394 0-.842.578-1.42 1.429-1.42.85 0 1.376.587 1.376 1.402zm5.521 1.35c-.202 0-.289-.061-.289-.298v-1.955c0-1.043-.658-1.613-1.797-1.613-1.079 0-1.789.517-1.894 1.394h.719c.088-.456.508-.754 1.14-.754.701 0 1.113.35 1.113.93v.306h-1.315c-1.175 0-1.797.5-1.797 1.394 0 .815.666 1.306 1.648 1.306.771 0 1.218-.342 1.499-.745.009.438.21.693.807.693h.394v-.658h-.228zm-1.008-1.166c0 .745-.517 1.263-1.411 1.263-.597 0-.974-.298-.974-.737 0-.508.36-.745 1-.745h1.385v.22zm6.777-2.7c-.798 0-1.28.368-1.552.85-.254-.57-.789-.85-1.411-.85-.693 0-1.07.342-1.306.666l-.097-.613h-.622v4.47h.719v-2.357c0-.895.447-1.508 1.183-1.508.684 0 1.078.456 1.078 1.332v2.534h.719V11.18c0-.911.456-1.472 1.201-1.472.675 0 1.061.456 1.061 1.332v2.534h.719v-2.578c0-1.411-.763-1.946-1.692-1.946zm5.303 4.524l.649-1.657h2.673l.649 1.657h.816l-2.332-6.137h-.903l-2.341 6.137h.789zm1.981-5.304l1.114 2.954h-2.218l1.104-2.954zm3.5 5.304h4.024v-.702h-3.261v-2.069h2.621v-.7h-2.621V8.137h3.147v-.7h-3.91v6.136zm4.634-2.008c.044 1.21.921 2.06 2.42 2.06 1.289 0 2.183-.745 2.183-1.806 0-1.192-1.026-1.525-2.025-1.692-.921-.157-1.666-.306-1.666-1.043 0-.657.535-1.008 1.333-1.008.832 0 1.402.465 1.49 1.175h.789c-.07-1.105-.912-1.868-2.279-1.868-1.245 0-2.096.702-2.096 1.745 0 1.192 1.017 1.517 2.008 1.683.929.158 1.683.316 1.683 1.079 0 .666-.587 1.043-1.411 1.043-.938 0-1.578-.544-1.64-1.368h-.789zm4.885-3.428h1.99v5.436h.762V8.138h1.99v-.7h-4.742v.7z" fill="#000"/><rect x="1" y=".574" width="169" height="19" rx="9.5" stroke="#000" stroke-width=".797" stroke-miterlimit="0" stroke-linejoin="bevel"/></svg>