<svg width="252" height="15" viewBox="0 0 252 15" fill="none" xmlns="http://www.w3.org/2000/svg"><path d="M3.36 11.5h2.16l2.256-8.24 2.288 8.24h2.144L15.424.3h-1.888l-2.4 8.864L8.704.3H6.96L4.464 9.164 2.08.284.176.3 3.36 11.5zm13.946-9.344c.592 0 1.056-.432 1.056-1.04 0-.608-.464-1.04-1.056-1.04-.592 0-1.056.432-1.056 1.04 0 .608.464 1.04 1.056 1.04zm-.88 9.344h1.728V3.308h-1.728V11.5zm3.422 0h1.728V.3h-1.728v11.2zm3.422 0h1.728V.3H23.27v11.2zm12.555.096c2.608 0 4.512-1.536 4.864-3.904h-1.904c-.351 1.424-1.423 2.288-2.975 2.288-2.113 0-3.393-1.696-3.393-4.08 0-2.4 1.313-4.08 3.44-4.08 1.52 0 2.577.88 2.944 2.288h1.904C40.339 1.74 38.498.204 35.938.204c-3.313 0-5.409 2.288-5.409 5.696 0 3.44 2.033 5.696 5.296 5.696zM46.34 3.212c-1.28 0-2.063.576-2.575 1.28V.3h-1.729v11.2h1.729V7.356c0-1.648.831-2.656 2.191-2.656 1.28 0 1.968.832 1.968 2.384V11.5h1.728V6.94c0-2.736-1.488-3.728-3.312-3.728zm5.764-1.056c.592 0 1.056-.432 1.056-1.04 0-.608-.464-1.04-1.056-1.04-.592 0-1.056.432-1.056 1.04 0 .608.464 1.04 1.056 1.04zm-.88 9.344h1.728V3.308h-1.728V11.5zm7.742-8.288c-1.328 0-2.112.528-2.624 1.168l-.192-1.072h-1.504V11.5h1.728V7.372c0-1.664.816-2.672 2.192-2.672 1.296 0 1.952.832 1.952 2.384V11.5h1.744V6.94c0-2.736-1.488-3.728-3.296-3.728zM71.32 9.996c-.352 0-.528-.112-.528-.528v-3.28c0-1.936-1.248-2.976-3.424-2.976-2.064 0-3.44.992-3.616 2.592h1.696c.128-.72.816-1.2 1.84-1.2 1.136 0 1.792.56 1.792 1.472v.496h-2.064c-2.288 0-3.504.944-3.504 2.624 0 1.52 1.248 2.4 3.04 2.4 1.328 0 2.16-.576 2.704-1.408 0 .816.384 1.312 1.504 1.312h.912V9.996h-.352zM69.08 8.14c-.016 1.264-.848 2.112-2.288 2.112-.944 0-1.52-.48-1.52-1.168 0-.832.592-1.232 1.664-1.232h2.144v.288zM73.023.204c-.736 0-1.216.48-1.216 1.088 0 .672.416 1.024.944 1.024a.873.873 0 00.528-.176c.016.08.016.144.016.224 0 .56-.4 1.184-1.408 1.184v.944c1.584-.016 2.576-.896 2.576-2.448 0-1.04-.56-1.84-1.44-1.84zm2.16 8.592c.048 1.776 1.552 2.8 3.744 2.8 1.984 0 3.472-.992 3.472-2.56 0-1.824-1.52-2.208-3.392-2.432-1.184-.128-1.968-.224-1.968-.992 0-.656.672-1.072 1.697-1.072 1.023 0 1.727.528 1.823 1.28h1.697c-.112-1.68-1.537-2.608-3.552-2.608-1.968-.016-3.36.992-3.36 2.544 0 1.696 1.472 2.096 3.344 2.32 1.263.16 2.016.224 2.016 1.104 0 .656-.704 1.072-1.776 1.072-1.248 0-1.984-.608-2.049-1.456h-1.696zm16.793-5.488c-1.344 0-2 .544-2.416 1.232l-.192-1.232h-1.536V11.5h1.728V7.388c0-1.264.496-2.464 2.032-2.464h.768V3.308h-.384zm4.948 8.288c2.031 0 3.408-1.232 3.696-2.848h-1.729c-.24.912-1.008 1.44-2.064 1.44-1.36 0-2.24-.912-2.287-2.304v-.112h6.176c.032-.224.048-.448.048-.656-.048-2.4-1.632-3.904-4-3.904-2.416 0-4.032 1.68-4.032 4.208 0 2.512 1.615 4.176 4.192 4.176zm-2.32-5.088c.127-1.168 1.072-1.904 2.175-1.904 1.2 0 2.049.688 2.193 1.904h-4.368zm11.429 5.088c2.496 0 4.176-1.68 4.176-4.192 0-2.496-1.68-4.192-4.176-4.192-2.496 0-4.176 1.696-4.176 4.192 0 2.512 1.68 4.192 4.176 4.192zm0-1.472c-1.456 0-2.4-1.136-2.4-2.72 0-1.584.944-2.72 2.4-2.72s2.416 1.136 2.416 2.72c0 1.584-.96 2.72-2.416 2.72zm9.949-6.912c-1.28 0-2.128.592-2.672 1.312l-.208-1.216h-1.504V14.7h1.728v-4.352c.512.736 1.392 1.248 2.656 1.248 2.24 0 3.872-1.664 3.872-4.192 0-2.624-1.632-4.192-3.872-4.192zm-.288 6.928c-1.44 0-2.384-1.136-2.384-2.768 0-1.584.944-2.688 2.384-2.688s2.4 1.104 2.4 2.72c0 1.6-.96 2.736-2.4 2.736zm9.433 1.456c2.032 0 3.408-1.232 3.696-2.848h-1.728c-.24.912-1.008 1.44-2.064 1.44-1.36 0-2.24-.912-2.288-2.304v-.112h6.176c.032-.224.048-.448.048-.656-.048-2.4-1.632-3.904-4-3.904-2.416 0-4.032 1.68-4.032 4.208 0 2.512 1.616 4.176 4.192 4.176zm-2.32-5.088c.128-1.168 1.072-1.904 2.176-1.904 1.2 0 2.048.688 2.192 1.904h-4.368zm11.877-3.296c-1.328 0-2.112.528-2.624 1.168l-.192-1.072h-1.504V11.5h1.728V7.372c0-1.664.816-2.672 2.192-2.672 1.296 0 1.952.832 1.952 2.384V11.5h1.744V6.94c0-2.736-1.488-3.728-3.296-3.728zm5.747-1.056c.592 0 1.056-.432 1.056-1.04 0-.608-.464-1.04-1.056-1.04-.592 0-1.056.432-1.056 1.04 0 .608.464 1.04 1.056 1.04zm-.88 9.344h1.728V3.308h-1.728V11.5zm7.742-8.288c-1.328 0-2.112.528-2.624 1.168l-.192-1.072h-1.504V11.5h1.728V7.372c0-1.664.816-2.672 2.192-2.672 1.296 0 1.952.832 1.952 2.384V11.5h1.744V6.94c0-2.736-1.488-3.728-3.296-3.728zm11.124 1.376c-.528-.816-1.408-1.376-2.688-1.376-2.224 0-3.872 1.648-3.872 4.16 0 2.608 1.648 4.16 3.872 4.16 1.28 0 2.128-.528 2.672-1.344v.912c0 1.568-.848 2.288-2.352 2.288-1.216 0-2.016-.528-2.224-1.44h-1.76c.16 1.84 1.68 2.848 3.856 2.848 2.944 0 4.192-1.408 4.192-3.632V3.308h-1.504l-.192 1.28zm-2.401 5.488c-1.439 0-2.383-1.104-2.383-2.704 0-1.584.944-2.704 2.383-2.704 1.441 0 2.385 1.12 2.385 2.736 0 1.568-.944 2.672-2.385 2.672zm9.527-1.28c.048 1.776 1.552 2.8 3.744 2.8 1.984 0 3.472-.992 3.472-2.56 0-1.824-1.52-2.208-3.392-2.432-1.184-.128-1.968-.224-1.968-.992 0-.656.672-1.072 1.696-1.072s1.728.528 1.824 1.28h1.696c-.112-1.68-1.536-2.608-3.552-2.608-1.968-.016-3.36.992-3.36 2.544 0 1.696 1.472 2.096 3.344 2.32 1.264.16 2.016.224 2.016 1.104 0 .656-.704 1.072-1.776 1.072-1.248 0-1.984-.608-2.048-1.456h-1.696zm12.939-5.584c-1.28 0-2.128.592-2.672 1.312l-.208-1.216h-1.504V14.7h1.728v-4.352c.512.736 1.392 1.248 2.656 1.248 2.24 0 3.872-1.664 3.872-4.192 0-2.624-1.632-4.192-3.872-4.192zm-.288 6.928c-1.44 0-2.384-1.136-2.384-2.768 0-1.584.944-2.688 2.384-2.688s2.4 1.104 2.4 2.72c0 1.6-.96 2.736-2.4 2.736zm11.161-2.736c0 1.696-.8 2.688-2.112 2.688-1.264 0-1.904-.816-1.904-2.416V3.308h-1.728v4.56c0 2.8 1.488 3.728 3.232 3.728 1.264 0 2.016-.512 2.528-1.136l.192 1.04h1.52V3.308h-1.728v4.096zm7.575-4.096c-1.344 0-2 .544-2.416 1.232l-.192-1.232h-1.536V11.5h1.728V7.388c0-1.264.496-2.464 2.032-2.464h.768V3.308h-.384zm6.727 8.192l1.04-2.768h4.592l1.056 2.768h1.968L208.137.3h-2.192l-4.192 11.2h1.904zm3.328-9.216l1.792 4.88h-3.568l1.776-4.88zm10.685.928c-1.28 0-2.128.592-2.672 1.312l-.209-1.216h-1.503V14.7h1.728v-4.352c.512.736 1.392 1.248 2.656 1.248 2.24 0 3.872-1.664 3.872-4.192 0-2.624-1.632-4.192-3.872-4.192zm-.288 6.928c-1.44 0-2.384-1.136-2.384-2.768 0-1.584.944-2.688 2.384-2.688s2.4 1.104 2.4 2.72c0 1.6-.96 2.736-2.4 2.736zm9.928-6.928c-1.28 0-2.128.592-2.672 1.312l-.208-1.216h-1.504V14.7h1.728v-4.352c.512.736 1.392 1.248 2.656 1.248 2.24 0 3.872-1.664 3.872-4.192 0-2.624-1.632-4.192-3.872-4.192zm-.288 6.928c-1.44 0-2.384-1.136-2.384-2.768 0-1.584.944-2.688 2.384-2.688s2.4 1.104 2.4 2.72c0 1.6-.96 2.736-2.4 2.736zm5.545 1.36h1.728V.3h-1.728v11.2zm7.31.096c2.032 0 3.408-1.232 3.696-2.848h-1.728c-.24.912-1.008 1.44-2.064 1.44-1.36 0-2.24-.912-2.288-2.304v-.112h6.176c.032-.224.048-.448.048-.656-.048-2.4-1.632-3.904-4-3.904-2.416 0-4.032 1.68-4.032 4.208 0 2.512 1.616 4.176 4.192 4.176zm-2.32-5.088c.128-1.168 1.072-1.904 2.176-1.904 1.2 0 2.048.688 2.192 1.904h-4.368zm8.417-2.544c0-1.328.8-2.224 2.032-2.224 1.072 0 1.792.64 1.792 1.552 0 .768-.416 1.28-1.136 1.76-.96.624-1.712 1.152-1.712 2.448v.512h1.632v-.32c0-.8.544-1.216 1.408-1.808.832-.592 1.6-1.296 1.6-2.768 0-1.68-1.376-2.912-3.6-2.912-2.384 0-3.776 1.68-3.776 3.76h1.76zm.736 6.56c0 .64.48 1.072 1.104 1.072.624 0 1.088-.432 1.088-1.072 0-.64-.464-1.072-1.088-1.072-.624 0-1.104.432-1.104 1.072z" fill="#000"/></svg>