<svg width="143" height="32" viewBox="0 0 143 32" fill="none" xmlns="http://www.w3.org/2000/svg"><path d="M4.53 11c3.285 0 5.355-2.145 5.355-5.265C9.885 2.615 7.815.5 4.53.5H.96V11h3.57zM2.685 2H4.53c2.31 0 3.585 1.485 3.585 3.735S6.84 9.5 4.53 9.5H2.685V2zm9.38.24c.554 0 .99-.405.99-.975s-.436-.975-.99-.975c-.556 0-.99.405-.99.975s.434.975.99.975zM11.238 11h1.62V3.32h-1.62V11zm2.878-2.535c.045 1.665 1.455 2.625 3.51 2.625 1.86 0 3.255-.93 3.255-2.4 0-1.71-1.425-2.07-3.18-2.28-1.11-.12-1.845-.21-1.845-.93 0-.615.63-1.005 1.59-1.005.96 0 1.62.495 1.71 1.2h1.59c-.105-1.575-1.44-2.445-3.33-2.445-1.845-.015-3.15.93-3.15 2.385 0 1.59 1.38 1.965 3.135 2.175 1.185.15 1.89.21 1.89 1.035 0 .615-.66 1.005-1.665 1.005-1.17 0-1.86-.57-1.92-1.365h-1.59zm11.546 2.625c1.965 0 3.27-1.095 3.57-2.835h-1.71c-.195.885-.855 1.455-1.845 1.455-1.305 0-2.16-1.035-2.16-2.535 0-1.515.855-2.565 2.16-2.565 1.005 0 1.65.555 1.86 1.455h1.695c-.315-1.74-1.545-2.835-3.525-2.835-2.325 0-3.855 1.575-3.855 3.945 0 2.4 1.485 3.915 3.81 3.915zm8.44 0c2.34 0 3.915-1.575 3.915-3.93 0-2.34-1.575-3.93-3.915-3.93s-3.915 1.59-3.915 3.93c0 2.355 1.575 3.93 3.915 3.93zm0-1.38c-1.365 0-2.25-1.065-2.25-2.55 0-1.485.885-2.55 2.25-2.55s2.265 1.065 2.265 2.55c0 1.485-.9 2.55-2.265 2.55zM41.039 11h1.98l2.835-7.68h-1.71l-2.085 5.94-2.115-5.94h-1.74L41.039 11zm8.928.09c1.905 0 3.195-1.155 3.465-2.67h-1.62c-.225.855-.945 1.35-1.935 1.35-1.275 0-2.1-.855-2.145-2.16v-.105h5.79a4.4 4.4 0 00.045-.615c-.045-2.25-1.53-3.66-3.75-3.66-2.265 0-3.78 1.575-3.78 3.945 0 2.355 1.515 3.915 3.93 3.915zm-2.175-4.77c.12-1.095 1.005-1.785 2.04-1.785 1.125 0 1.92.645 2.055 1.785h-4.095zm10.97-3c-1.26 0-1.875.51-2.265 1.155l-.18-1.155h-1.44V11h1.62V7.145c0-1.185.465-2.31 1.905-2.31h.72V3.32h-.36zm8.827 7.77c2.34 0 3.915-1.575 3.915-3.93 0-2.34-1.575-3.93-3.915-3.93s-3.915 1.59-3.915 3.93c0 2.355 1.575 3.93 3.915 3.93zm0-1.38c-1.365 0-2.25-1.065-2.25-2.55 0-1.485.885-2.55 2.25-2.55s2.265 1.065 2.265 2.55c0 1.485-.9 2.55-2.265 2.55zm9.328-6.48c-1.2 0-1.995.555-2.505 1.23l-.195-1.14h-1.41V14h1.62V9.92c.48.69 1.305 1.17 2.49 1.17 2.1 0 3.63-1.56 3.63-3.93 0-2.46-1.53-3.93-3.63-3.93zm-.27 6.495c-1.35 0-2.235-1.065-2.235-2.595 0-1.485.885-2.52 2.235-2.52 1.35 0 2.25 1.035 2.25 2.55 0 1.5-.9 2.565-2.25 2.565zm9.308-6.495c-1.2 0-1.995.555-2.505 1.23l-.195-1.14h-1.41V14h1.62V9.92c.48.69 1.305 1.17 2.49 1.17 2.1 0 3.63-1.56 3.63-3.93 0-2.46-1.53-3.93-3.63-3.93zm-.27 6.495c-1.35 0-2.235-1.065-2.235-2.595 0-1.485.885-2.52 2.235-2.52 1.35 0 2.25 1.035 2.25 2.55 0 1.5-.9 2.565-2.25 2.565zm8.828 1.365c2.34 0 3.915-1.575 3.915-3.93 0-2.34-1.575-3.93-3.915-3.93s-3.915 1.59-3.915 3.93c0 2.355 1.575 3.93 3.915 3.93zm0-1.38c-1.365 0-2.25-1.065-2.25-2.55 0-1.485.885-2.55 2.25-2.55s2.265 1.065 2.265 2.55c0 1.485-.9 2.55-2.265 2.55zm9.103-6.39c-1.26 0-1.875.51-2.265 1.155l-.18-1.155h-1.44V11h1.62V7.145c0-1.185.465-2.31 1.905-2.31h.72V3.32h-.36zm2.192 5.595c0 1.395.63 2.085 2.1 2.085h1.5V9.575h-1.14c-.615 0-.825-.225-.825-.825V4.745h1.875V3.32h-1.875V1.175h-1.635V3.32h-1.335v1.425h1.335v4.17zm9.896-1.755c0 1.59-.75 2.52-1.98 2.52-1.185 0-1.785-.765-1.785-2.265V3.32h-1.62v4.275c0 2.625 1.395 3.495 3.03 3.495 1.185 0 1.89-.48 2.37-1.065l.18.975h1.425V3.32h-1.62v3.84zm7.266-3.93c-1.245 0-1.98.495-2.46 1.095l-.18-1.005h-1.41V11h1.62V7.13c0-1.56.765-2.505 2.055-2.505 1.215 0 1.83.78 1.83 2.235V11h1.635V6.725c0-2.565-1.395-3.495-3.09-3.495zm5.388-.99c.555 0 .99-.405.99-.975s-.435-.975-.99-.975c-.555 0-.99.405-.99.975s.435.975.99.975zm-.825 8.76h1.62V3.32h-1.62V11zm3.763-2.085c0 1.395.63 2.085 2.1 2.085h1.5V9.575h-1.14c-.615 0-.825-.225-.825-.825V4.745h1.875V3.32h-1.875V1.175h-1.635V3.32h-1.335v1.425h1.335v4.17zm6.851 2.13l-.3.75c-.24.63-.39.78-1.02.78h-1.14V14h1.74c1.125 0 1.455-.555 1.935-1.8l3.48-8.88h-1.725l-2.085 5.835-2.145-5.835h-1.725l2.985 7.725zM1.62 20.24c.555 0 .99-.405.99-.975s-.435-.975-.99-.975c-.555 0-.99.405-.99.975s.435.975.99.975zM.795 29h1.62v-7.68H.795V29zm7.258-7.77c-1.245 0-1.98.495-2.46 1.095l-.18-1.005h-1.41V29h1.62v-3.87c0-1.56.765-2.505 2.055-2.505 1.215 0 1.83.78 1.83 2.235V29h1.635v-4.275c0-2.565-1.395-3.495-3.09-3.495zm9.226-.99c.555 0 .99-.405.99-.975s-.435-.975-.99-.975c-.555 0-.99.405-.99.975s.435.975.99.975zM16.454 29h1.62v-7.68h-1.62V29zm7.093-7.68c-1.26 0-1.875.51-2.265 1.155l-.18-1.155h-1.44V29h1.62v-3.855c0-1.185.465-2.31 1.905-2.31h.72V21.32h-.36zm4.623 7.77c2.34 0 3.915-1.575 3.915-3.93 0-2.34-1.575-3.93-3.915-3.93s-3.915 1.59-3.915 3.93c0 2.355 1.575 3.93 3.915 3.93zm0-1.38c-1.365 0-2.25-1.065-2.25-2.55 0-1.485.885-2.55 2.25-2.55s2.265 1.065 2.265 2.55c0 1.485-.9 2.55-2.265 2.55zm9.268-6.48c-1.245 0-1.98.495-2.46 1.095l-.18-1.005h-1.41V29h1.62v-3.87c0-1.56.765-2.505 2.055-2.505 1.215 0 1.83.78 1.83 2.235V29h1.635v-4.275c0-2.565-1.395-3.495-3.09-3.495zm12.03 7.86c2.34 0 3.916-1.575 3.916-3.93 0-2.34-1.575-3.93-3.915-3.93s-3.915 1.59-3.915 3.93c0 2.355 1.575 3.93 3.915 3.93zm0-1.38c-1.364 0-2.25-1.065-2.25-2.55 0-1.485.886-2.55 2.25-2.55 1.366 0 2.266 1.065 2.266 2.55 0 1.485-.9 2.55-2.265 2.55zm9.104-6.39c-1.26 0-1.875.51-2.265 1.155l-.18-1.155h-1.44V29h1.62v-3.855c0-1.185.465-2.31 1.905-2.31h.72V21.32h-.36zm4.637 7.77c1.906 0 3.195-1.155 3.465-2.67h-1.62c-.225.855-.945 1.35-1.934 1.35-1.276 0-2.1-.855-2.145-2.16v-.105h5.79a4.4 4.4 0 00.044-.615c-.044-2.25-1.53-3.66-3.75-3.66-2.264 0-3.78 1.575-3.78 3.945 0 2.355 1.515 3.915 3.93 3.915zm-2.175-4.77c.12-1.095 1.005-1.785 2.04-1.785 1.126 0 1.92.645 2.055 1.785h-4.095zM74.028 29h1.98l2.835-7.68h-1.71l-2.085 5.94-2.115-5.94h-1.74L74.027 29zm8.914.09c2.34 0 3.915-1.575 3.915-3.93 0-2.34-1.575-3.93-3.915-3.93s-3.915 1.59-3.915 3.93c0 2.355 1.575 3.93 3.915 3.93zm0-1.38c-1.365 0-2.25-1.065-2.25-2.55 0-1.485.885-2.55 2.25-2.55s2.265 1.065 2.265 2.55c0 1.485-.9 2.55-2.265 2.55zM88.158 29h1.62V18.5h-1.62V29zm10.228-1.41c-.33 0-.495-.105-.495-.495V24.02c0-1.815-1.17-2.79-3.21-2.79-1.935 0-3.225.93-3.39 2.43h1.59c.12-.675.765-1.125 1.725-1.125 1.065 0 1.68.525 1.68 1.38v.465h-1.935c-2.145 0-3.285.885-3.285 2.46 0 1.425 1.17 2.25 2.85 2.25 1.245 0 2.025-.54 2.535-1.32 0 .765.36 1.23 1.41 1.23h.855v-1.41h-.33zm-2.1-1.74c-.015 1.185-.795 1.98-2.145 1.98-.885 0-1.425-.45-1.425-1.095 0-.78.555-1.155 1.56-1.155h2.01v.27zm3.868 1.065c0 1.395.63 2.085 2.1 2.085h1.5v-1.425h-1.14c-.615 0-.825-.225-.825-.825v-4.005h1.875V21.32h-1.875v-2.145h-1.635v2.145h-1.335v1.425h1.335v4.17zm5.455-6.675c.555 0 .99-.405.99-.975s-.435-.975-.99-.975c-.555 0-.99.405-.99.975s.435.975.99.975zm-.825 8.76h1.62v-7.68h-1.62V29zm3.208 0h1.62V18.5h-1.62V29zm4.033-8.76c.555 0 .99-.405.99-.975s-.435-.975-.99-.975c-.555 0-.99.405-.99.975s.435.975.99.975zM111.2 29h1.62v-7.68h-1.62V29zm3.763-2.085c0 1.395.63 2.085 2.1 2.085h1.5v-1.425h-1.14c-.615 0-.825-.225-.825-.825v-4.005h1.875V21.32h-1.875v-2.145h-1.635v2.145h-1.335v1.425h1.335v4.17zm6.851 2.13l-.3.75c-.24.63-.39.78-1.02.78h-1.14V32h1.74c1.125 0 1.455-.555 1.935-1.8l3.48-8.88h-1.725l-2.085 5.835-2.145-5.835h-1.725l2.985 7.725z" fill="#000"/></svg>