<svg width="157" height="8" viewBox="0 0 157 8" fill="none" xmlns="http://www.w3.org/2000/svg"><path d="M.541 6.214H4.51v-.863H1.514V3.634H3.9v-.837H1.514V1.155h2.894V.292H.54v5.922zm4.226 0h1.007l1.142-1.573 1.133 1.573h1.066L7.482 3.998l1.54-2.115H8.015L6.958 3.346 5.926 1.883H4.86L6.39 3.998 4.767 6.214zm5.165-1.176c0 .787.355 1.176 1.184 1.176h.846v-.803h-.643c-.347 0-.465-.127-.465-.466V2.687h1.057v-.804h-1.057V.673h-.922v1.21h-.753v.804h.753v2.351zm4.576 1.227c1.074 0 1.802-.651 1.954-1.506h-.913c-.127.482-.533.762-1.092.762-.719 0-1.184-.483-1.21-1.219v-.059h3.266c.017-.118.025-.237.025-.347-.025-1.269-.863-2.064-2.115-2.064-1.277 0-2.132.888-2.132 2.225 0 1.328.855 2.208 2.217 2.208zm-1.227-2.69c.068-.618.567-1.007 1.15-1.007.635 0 1.084.364 1.16 1.007h-2.31zm6.28-1.743c-.702 0-1.117.28-1.387.618l-.102-.567h-.795v4.331h.914V4.032c0-.88.431-1.413 1.159-1.413.685 0 1.032.44 1.032 1.26v2.335h.922v-2.41c0-1.447-.787-1.972-1.743-1.972zm5.831.652c-.279-.381-.744-.652-1.404-.652-1.176 0-2.047.88-2.047 2.217 0 1.387.871 2.216 2.047 2.216.685 0 1.134-.321 1.413-.702l.11.651h.795V.292h-.914v2.192zM24.14 5.495c-.76 0-1.26-.592-1.26-1.446 0-.846.5-1.439 1.26-1.439.762 0 1.261.593 1.261 1.456 0 .837-.5 1.43-1.26 1.43zm5.115.77c1.074 0 1.802-.651 1.954-1.506h-.914c-.127.482-.533.762-1.091.762-.72 0-1.184-.483-1.21-1.219v-.059h3.266c.017-.118.025-.237.025-.347-.025-1.269-.863-2.064-2.115-2.064-1.277 0-2.132.888-2.132 2.225 0 1.328.855 2.208 2.217 2.208zm-1.227-2.69c.068-.618.567-1.007 1.15-1.007.635 0 1.083.364 1.16 1.007h-2.31zm7.287-1.091c-.28-.381-.745-.652-1.405-.652-1.176 0-2.047.88-2.047 2.217 0 1.387.871 2.216 2.047 2.216.686 0 1.134-.321 1.413-.702l.11.651h.795V.292h-.913v2.192zm-1.252 3.011c-.762 0-1.261-.592-1.261-1.446 0-.846.5-1.439 1.26-1.439.762 0 1.261.593 1.261 1.456 0 .837-.5 1.43-1.26 1.43zm7.498-3.663c-.677 0-1.091.305-1.362.677V.292h-.913v5.922h.913v-2.19c0-.872.44-1.405 1.16-1.405.676 0 1.04.44 1.04 1.26v2.335h.913v-2.41c0-1.447-.786-1.972-1.75-1.972zm4.596 4.433c1.32 0 2.209-.888 2.209-2.216 0-1.32-.889-2.217-2.209-2.217S43.95 2.73 43.95 4.05c0 1.328.888 2.216 2.207 2.216zm0-.778c-.77 0-1.268-.6-1.268-1.438s.499-1.439 1.268-1.439c.77 0 1.278.601 1.278 1.439 0 .837-.508 1.438-1.278 1.438zm5.913-1.438c0 .896-.423 1.42-1.117 1.42-.669 0-1.007-.43-1.007-1.277v-2.31h-.913v2.412c0 1.48.786 1.971 1.708 1.971.669 0 1.066-.27 1.337-.6l.101.55h.804V1.882h-.913v2.166zm4.005-2.166c-.711 0-1.058.288-1.278.651l-.101-.651h-.813v4.331h.914V4.04c0-.668.262-1.303 1.075-1.303h.406v-.854h-.203zm.506 2.902c.025.939.82 1.48 1.98 1.48 1.048 0 1.835-.524 1.835-1.354 0-.964-.804-1.167-1.793-1.285-.627-.068-1.041-.119-1.041-.525 0-.347.355-.567.897-.567.541 0 .913.28.964.677h.897c-.06-.888-.812-1.379-1.878-1.379-1.04-.008-1.777.525-1.777 1.345 0 .897.779 1.108 1.768 1.227.669.085 1.066.118 1.066.584 0 .346-.372.566-.939.566-.66 0-1.049-.321-1.083-.77h-.896zm7 .253c0 .787.356 1.176 1.185 1.176h.846v-.803h-.643c-.347 0-.465-.127-.465-.466V2.687h1.057v-.804h-1.057V.673h-.922v1.21h-.753v.804h.753v2.351zm4.803-3.155c-.71 0-1.057.288-1.277.651l-.102-.651h-.812v4.331h.914V4.04c0-.668.262-1.303 1.074-1.303h.406v-.854h-.203zm4.594 3.536c-.186 0-.28-.06-.28-.28V3.407c0-1.024-.66-1.574-1.81-1.574-1.091 0-1.819.525-1.912 1.37h.897c.068-.38.431-.634.973-.634.6 0 .947.296.947.778v.263h-1.091c-1.21 0-1.853.499-1.853 1.387 0 .804.66 1.269 1.608 1.269.702 0 1.142-.304 1.43-.744 0 .431.202.693.795.693h.482V5.42h-.186zm-1.185-.981c-.008.668-.448 1.116-1.21 1.116-.498 0-.803-.253-.803-.617 0-.44.313-.652.88-.652h1.133v.153zm5.126-1.954c-.279-.381-.744-.652-1.404-.652-1.176 0-2.047.88-2.047 2.217 0 1.387.871 2.216 2.047 2.216.685 0 1.134-.321 1.413-.702l.11.651h.795V.292h-.914v2.192zm-1.252 3.011c-.761 0-1.26-.592-1.26-1.446 0-.846.499-1.439 1.26-1.439.762 0 1.26.593 1.26 1.456 0 .837-.498 1.43-1.26 1.43zm3.524-4.221a.54.54 0 00.558-.55.54.54 0 00-.558-.55.54.54 0 00-.558.55c0 .321.245.55.558.55zm-.465 4.94h.913V1.883h-.913v4.331zm4.093-4.382c-.702 0-1.117.28-1.387.618l-.102-.567h-.795v4.331h.914V4.032c0-.88.431-1.413 1.159-1.413.685 0 1.032.44 1.032 1.26v2.335h.922v-2.41c0-1.447-.787-1.972-1.743-1.972zm5.882.728c-.28-.432-.745-.728-1.422-.728-1.176 0-2.047.871-2.047 2.2 0 1.379.871 2.2 2.047 2.2.677 0 1.126-.28 1.413-.711v.482c0 .829-.448 1.21-1.243 1.21-.643 0-1.066-.28-1.176-.762h-.931c.085.973.888 1.506 2.039 1.506 1.556 0 2.216-.744 2.216-1.92V1.883h-.795l-.102.677zM87.43 5.46c-.76 0-1.26-.583-1.26-1.43 0-.837.5-1.429 1.26-1.429.762 0 1.261.592 1.261 1.447 0 .829-.499 1.412-1.26 1.412zm7.178.804c1.21 0 2.064-.897 2.064-2.2 0-1.294-.854-2.19-2.064-2.19s-2.056.896-2.056 2.19c0 1.303.846 2.2 2.056 2.2zm0-.39c-.956 0-1.616-.744-1.616-1.81 0-1.057.66-1.81 1.616-1.81.956 0 1.616.753 1.616 1.81 0 1.066-.66 1.81-1.616 1.81zm4.9-4c-.786 0-1.293.406-1.539.964l-.067-.914h-.373v4.29h.432V4.098c0-1.116.566-1.827 1.48-1.827.829 0 1.328.541 1.328 1.557v2.385h.432V3.812c0-1.354-.719-1.938-1.692-1.938zM103.98.698h3.578l-3.003 5.515h.482l3.004-5.6V.292h-4.061V.7zm4.428 2.69c0 1.734.855 2.876 2.141 2.876 1.269 0 2.131-1.142 2.131-2.876v-.271c0-1.683-.862-2.876-2.131-2.876-1.286 0-2.141 1.193-2.141 2.876v.27zm3.824-.017c0 1.506-.668 2.487-1.683 2.487-1.024 0-1.692-.981-1.692-2.487v-.237c0-1.506.668-2.487 1.692-2.487 1.015 0 1.683.981 1.683 2.487v.237zm2.881.228h-1.472v.364h1.472v1.548h.398V3.964h1.48V3.6h-1.48V2.052h-.398V3.6zm5.312.17c0 1.65.702 2.495 2.157 2.495 1.463 0 2.174-.846 2.174-2.496V.292h-.457v3.503c0 1.362-.524 2.047-1.717 2.047-1.176 0-1.701-.685-1.701-2.047V.292h-.456V3.77zm5.307.625c.059 1.117.871 1.87 2.2 1.87 1.243 0 2.064-.677 2.064-1.675 0-1.125-.998-1.413-1.98-1.582-.905-.152-1.692-.304-1.692-1.15 0-.77.601-1.202 1.532-1.202.888 0 1.497.5 1.598 1.27h.466c-.085-1.016-.855-1.684-2.064-1.684-1.202 0-1.989.634-1.989 1.64 0 1.126.965 1.38 1.912 1.54.931.161 1.76.347 1.76 1.21 0 .762-.643 1.219-1.599 1.219-.998 0-1.675-.576-1.734-1.456h-.474zm7.252.5c.034.888.753 1.37 1.827 1.37.922 0 1.667-.465 1.667-1.227 0-.905-.795-1.082-1.718-1.21-.668-.092-1.26-.169-1.26-.77 0-.49.482-.811 1.21-.811.685 0 1.176.33 1.252.888h.44c-.076-.838-.762-1.26-1.692-1.26-.956-.009-1.641.482-1.641 1.218 0 .863.795 1.023 1.675 1.142.719.101 1.302.194 1.302.829 0 .507-.533.829-1.235.829-.82 0-1.353-.38-1.387-.998h-.44zm4.638.321c0 .685.28.998 1.007.998h.626v-.397h-.592c-.448 0-.609-.17-.609-.61V2.324h1.159v-.398h-1.159V.724h-.432v1.201h-.812v.398h.812v2.893zm4.052 1.049c1.21 0 2.065-.897 2.065-2.2 0-1.294-.855-2.19-2.065-2.19-1.209 0-2.055.896-2.055 2.19 0 1.303.846 2.2 2.055 2.2zm0-.39c-.956 0-1.615-.744-1.615-1.81 0-1.057.659-1.81 1.615-1.81s1.616.753 1.616 1.81c0 1.066-.66 1.81-1.616 1.81zm4.791.39c.973 0 1.659-.558 1.828-1.43h-.457c-.144.635-.66 1.04-1.371 1.04-.939 0-1.59-.735-1.59-1.801 0-1.066.643-1.819 1.59-1.819.72 0 1.227.406 1.379 1.05h.449c-.178-.89-.846-1.43-1.819-1.43-1.21 0-2.039.896-2.039 2.199 0 1.32.821 2.191 2.03 2.191zm2.666-.05h.432v-1.16l1.007-1.032 1.641 2.191h.524l-1.869-2.504 1.725-1.785h-.533l-2.495 2.572V.292h-.432v5.922zm3.879-1.32c.034.888.753 1.37 1.827 1.37.922 0 1.667-.465 1.667-1.227 0-.905-.796-1.082-1.718-1.21-.668-.092-1.26-.169-1.26-.77 0-.49.482-.811 1.21-.811.685 0 1.175.33 1.252.888h.439c-.076-.838-.761-1.26-1.691-1.26-.956-.009-1.642.482-1.642 1.218 0 .863.796 1.023 1.675 1.142.719.101 1.303.194 1.303.829 0 .507-.533.829-1.235.829-.821 0-1.354-.38-1.387-.998h-.44z" fill="#000"/></svg>