<svg width="99" height="56" viewBox="0 0 99 56" fill="none" xmlns="http://www.w3.org/2000/svg"><path d="M.556 15.1c.12 4.2 3.27 7.08 8.49 7.08 4.62 0 7.77-2.61 7.77-6.39.03-4.14-3.36-5.25-6.84-5.88-3.3-.57-5.46-1.02-5.46-3.18 0-1.98 1.65-3 4.02-3 2.55 0 4.23 1.44 4.5 3.57h3.45c-.15-3.87-3.15-6.48-7.95-6.48-4.47 0-7.47 2.49-7.47 6.15 0 4.17 3.3 5.28 6.78 5.88 3.33.6 5.52 1.08 5.52 3.3 0 2.01-1.8 3.12-4.29 3.12-2.94 0-4.86-1.65-5.04-4.11l-3.48-.06zM19.853 22h3.33V6.55l6.3 15.45h2.91l6.3-15.45V22h3.33V1h-4.38l-6.6 16.53L24.323 1h-4.47v21zm27.905 0l1.95-5.19h8.61l1.98 5.19h3.69l-7.83-21h-4.11l-7.86 21h3.57zm6.24-17.28l3.36 9.15h-6.69l3.33-9.15zM66.142 22h3.45v-7.62h4.62l4.05 7.62h3.84l-4.44-8.37c2.46-.87 4.08-3.12 4.08-5.94 0-4.08-2.94-6.69-7.32-6.69h-8.28v21zm8.01-18c2.46 0 4.05 1.44 4.05 3.69s-1.59 3.69-4.05 3.69h-4.56V4h4.56zm8.365.06h6.48V22h3.45V4.06h6.48V1h-16.41v3.06zM1.361 42.1c.12 4.2 3.27 7.08 8.49 7.08 4.62 0 7.77-2.61 7.77-6.39.03-4.14-3.36-5.25-6.84-5.88-3.3-.57-5.46-1.02-5.46-3.18 0-1.98 1.65-3 4.02-3 2.55 0 4.23 1.44 4.5 3.57h3.45c-.15-3.87-3.15-6.48-7.95-6.48-4.47 0-7.47 2.49-7.47 6.15 0 4.17 3.3 5.28 6.78 5.88 3.33.6 5.52 1.08 5.52 3.3 0 2.01-1.8 3.12-4.29 3.12-2.94 0-4.86-1.65-5.04-4.11l-3.48-.06zm20.617-10.62c1.11 0 1.98-.81 1.98-1.95s-.87-1.95-1.98-1.95c-1.11 0-1.98.81-1.98 1.95s.87 1.95 1.98 1.95zM20.328 49h3.24V33.64h-3.24V49zm18.146-12.96c-.99-1.53-2.64-2.58-5.04-2.58-4.17 0-7.26 3.09-7.26 7.8 0 4.89 3.09 7.8 7.26 7.8 2.4 0 3.99-.99 5.01-2.52v1.71c0 2.94-1.59 4.29-4.41 4.29-2.28 0-3.78-.99-4.17-2.7h-3.3c.3 3.45 3.15 5.34 7.23 5.34 5.52 0 7.86-2.64 7.86-6.81V33.64h-2.82l-.36 2.4zm-4.5 10.29c-2.7 0-4.47-2.07-4.47-5.07 0-2.97 1.77-5.07 4.47-5.07 2.7 0 4.47 2.1 4.47 5.13 0 2.94-1.77 5.01-4.47 5.01zm18.947-12.87c-2.49 0-3.96.99-4.92 2.19l-.36-2.01h-2.82V49h3.24v-7.74c0-3.12 1.53-5.01 4.11-5.01 2.43 0 3.66 1.56 3.66 4.47V49h3.27v-8.55c0-5.13-2.79-6.99-6.18-6.99zm23.166 12.72c-.66 0-.99-.21-.99-.99v-6.15c0-3.63-2.34-5.58-6.42-5.58-3.87 0-6.45 1.86-6.78 4.86h3.18c.24-1.35 1.53-2.25 3.45-2.25 2.13 0 3.36 1.05 3.36 2.76v.93h-3.87c-4.29 0-6.57 1.77-6.57 4.92 0 2.85 2.34 4.5 5.7 4.5 2.49 0 4.05-1.08 5.07-2.64 0 1.53.72 2.46 2.82 2.46h1.71v-2.82h-.66zm-4.2-3.48c-.03 2.37-1.59 3.96-4.29 3.96-1.77 0-2.85-.9-2.85-2.19 0-1.56 1.11-2.31 3.12-2.31h4.02v.54zm6.625 6.3h3.24V28h-3.24v21zm5.756-5.07c.09 3.33 2.91 5.25 7.02 5.25 3.72 0 6.51-1.86 6.51-4.8 0-3.42-2.85-4.14-6.36-4.56-2.22-.24-3.69-.42-3.69-1.86 0-1.23 1.26-2.01 3.18-2.01 1.92 0 3.24.99 3.42 2.4h3.18c-.21-3.15-2.88-4.89-6.66-4.89-3.69-.03-6.3 1.86-6.3 4.77 0 3.18 2.76 3.93 6.27 4.35 2.37.3 3.78.42 3.78 2.07 0 1.23-1.32 2.01-3.33 2.01-2.34 0-3.72-1.14-3.84-2.73h-3.18z" fill="#fff"/></svg>