<svg width="470" height="24" viewBox="0 0 470 24" fill="none" xmlns="http://www.w3.org/2000/svg"><path d="M.64 3.864h6.912V23h3.68V3.864h6.912V.6H.64v3.264zm26.594 2.752c-2.688 0-4 1.088-4.832 2.464l-.384-2.464h-3.072V23h3.456v-8.224c0-2.528.992-4.928 4.064-4.928h1.536V6.616h-.768zm17.375 13.376c-.703 0-1.056-.224-1.056-1.056v-6.56c0-3.872-2.495-5.952-6.847-5.952-4.129 0-6.88 1.984-7.233 5.184h3.392c.256-1.44 1.633-2.4 3.68-2.4 2.273 0 3.584 1.12 3.584 2.944v.992h-4.127c-4.577 0-7.009 1.888-7.009 5.248 0 3.04 2.497 4.8 6.08 4.8 2.657 0 4.32-1.152 5.408-2.816 0 1.632.768 2.624 3.008 2.624h1.825v-3.008h-.705zm-4.48-3.712c-.032 2.528-1.695 4.224-4.575 4.224-1.889 0-3.04-.96-3.04-2.336 0-1.664 1.183-2.464 3.328-2.464h4.288v.576zm19.39-7.392c-1.056-1.44-2.816-2.464-5.312-2.464-4.448 0-7.744 3.328-7.744 8.384 0 5.248 3.296 8.384 7.744 8.384 2.592 0 4.288-1.216 5.344-2.656L59.967 23h3.008V.6h-3.456v8.288zM54.783 20.28c-2.88 0-4.768-2.24-4.768-5.472 0-3.2 1.888-5.44 4.768-5.44s4.768 2.24 4.768 5.504c0 3.168-1.888 5.408-4.768 5.408zm19.345 2.912c4.064 0 6.816-2.464 7.392-5.696h-3.456c-.48 1.824-2.016 2.88-4.128 2.88-2.72 0-4.48-1.824-4.576-4.608v-.224h12.352c.064-.448.096-.896.096-1.312-.096-4.8-3.264-7.808-8-7.808-4.832 0-8.064 3.36-8.064 8.416 0 5.024 3.232 8.352 8.384 8.352zm-4.64-10.176c.256-2.336 2.144-3.808 4.352-3.808 2.4 0 4.096 1.376 4.384 3.808h-8.736zm35.046-1.664c2.08-.48 3.872-2.368 3.872-4.992 0-3.488-3.008-5.952-7.808-5.952-4.768 0-7.776 2.464-7.776 5.952 0 2.72 1.792 4.512 3.84 5.024-2.4.544-4.448 2.4-4.448 5.504 0 3.712 3.104 6.304 8.384 6.304s8.416-2.592 8.416-6.304c0-3.168-2.08-5.024-4.48-5.536zm-3.936-8.192c2.56 0 4.224 1.344 4.224 3.296 0 1.984-1.664 3.328-4.224 3.328-2.528 0-4.192-1.344-4.192-3.328 0-1.952 1.664-3.296 4.192-3.296zm0 17.312c-2.816 0-4.768-1.6-4.768-3.776 0-2.176 1.952-3.744 4.768-3.744 2.848 0 4.8 1.568 4.8 3.744s-1.952 3.776-4.8 3.776zm9.943-2.656h11.424V23h3.488v-5.184h3.392v-3.072h-3.392V.6h-4.16l-10.752 14.208v3.008zm11.424-13.344v10.272h-7.776l7.776-10.272zM139.423 23h3.68v-9.472h8.768V10.36h-8.768V3.864h10.624V.6h-14.304V23zm15.493 0h4.16l5.504-8.608L170.052 23h4.384l-7.456-11.616L173.988.6h-4.16l-5.12 7.968L159.684.6h-4.352l7.008 10.944L154.916 23zm30.132 0h3.68v-8.128h5.152c4.672 0 7.744-2.816 7.744-7.136 0-4.352-3.072-7.136-7.744-7.136h-8.832V23zm8.544-19.2c2.624 0 4.288 1.504 4.288 3.936 0 2.4-1.696 3.936-4.32 3.936h-4.832V3.8h4.864zm24.518 16.192c-.704 0-1.056-.224-1.056-1.056v-6.56c0-3.872-2.496-5.952-6.848-5.952-4.128 0-6.88 1.984-7.232 5.184h3.392c.256-1.44 1.632-2.4 3.68-2.4 2.272 0 3.584 1.12 3.584 2.944v.992h-4.128c-4.576 0-7.009 1.888-7.009 5.248 0 3.04 2.497 4.8 6.081 4.8 2.656 0 4.32-1.152 5.408-2.816 0 1.632.768 2.624 3.008 2.624h1.824v-3.008h-.704zm-4.48-3.712c-.032 2.528-1.696 4.224-4.576 4.224-1.888 0-3.04-.96-3.04-2.336 0-1.664 1.184-2.464 3.328-2.464h4.288v.576zm8.826-11.968c1.184 0 2.112-.864 2.112-2.08 0-1.216-.928-2.08-2.112-2.08-1.184 0-2.112.864-2.112 2.08 0 1.216.928 2.08 2.112 2.08zM220.696 23h3.456V6.616h-3.456V23zm15.132-16.384c-2.688 0-4 1.088-4.832 2.464l-.384-2.464h-3.072V23h3.456v-8.224c0-2.528.992-4.928 4.064-4.928h1.536V6.616h-.768zm1.914 10.976c.096 3.552 3.104 5.6 7.488 5.6 3.968 0 6.944-1.984 6.944-5.12 0-3.648-3.04-4.416-6.784-4.864-2.368-.256-3.936-.448-3.936-1.984 0-1.312 1.344-2.144 3.392-2.144s3.456 1.056 3.648 2.56h3.392c-.224-3.36-3.072-5.216-7.104-5.216-3.936-.032-6.72 1.984-6.72 5.088 0 3.392 2.944 4.192 6.688 4.64 2.528.32 4.032.448 4.032 2.208 0 1.312-1.408 2.144-3.552 2.144-2.496 0-3.968-1.216-4.096-2.912h-3.392zM268.064 23h4.32l4.512-16.48L281.472 23h4.288L292.192.6h-3.776l-4.8 17.728L278.752.6h-3.488l-4.992 17.728-4.768-17.76-3.808.032 6.368 22.4zm27.892-18.688c1.184 0 2.112-.864 2.112-2.08 0-1.216-.928-2.08-2.112-2.08-1.184 0-2.112.864-2.112 2.08 0 1.216.928 2.08 2.112 2.08zM294.196 23h3.456V6.616h-3.456V23zm8.028-4.448c0 2.976 1.344 4.448 4.48 4.448h3.2v-3.04h-2.432c-1.312 0-1.76-.48-1.76-1.76V9.656h4v-3.04h-4V2.04h-3.488v4.576h-2.848v3.04h2.848v8.896zM320.71 6.424c-2.56 0-4.128 1.152-5.152 2.56V.6h-3.456V23h3.456v-8.288c0-3.296 1.664-5.312 4.384-5.312 2.56 0 3.936 1.664 3.936 4.768V23h3.456v-9.12c0-5.472-2.976-7.456-6.624-7.456zm17.386 16.768c4.992 0 8.352-3.36 8.352-8.384 0-4.992-3.36-8.384-8.352-8.384-4.992 0-8.352 3.392-8.352 8.384 0 5.024 3.36 8.384 8.352 8.384zm0-2.944c-2.912 0-4.8-2.272-4.8-5.44 0-3.168 1.888-5.44 4.8-5.44s4.832 2.272 4.832 5.44c0 3.168-1.92 5.44-4.832 5.44zm22.363-5.44c0 3.392-1.6 5.376-4.224 5.376-2.528 0-3.808-1.632-3.808-4.832V6.616h-3.456v9.12c0 5.6 2.976 7.456 6.464 7.456 2.528 0 4.032-1.024 5.056-2.272l.384 2.08h3.04V6.616h-3.456v8.192zm8.14 3.744c0 2.976 1.344 4.448 4.48 4.448h3.2v-3.04h-2.432c-1.312 0-1.76-.48-1.76-1.76V9.656h4v-3.04h-4V2.04h-3.488v4.576h-2.848v3.04h2.848v8.896zm28.146 4.64c5.216 0 9.024-3.072 9.728-7.808h-3.808c-.704 2.848-2.848 4.576-5.952 4.576-4.224 0-6.784-3.392-6.784-8.16 0-4.8 2.624-8.16 6.88-8.16 3.04 0 5.152 1.76 5.888 4.576h3.808c-.736-4.736-4.416-7.808-9.536-7.808-6.624 0-10.816 4.576-10.816 11.392 0 6.88 4.064 11.392 10.592 11.392zm20.164 0c4.992 0 8.352-3.36 8.352-8.384 0-4.992-3.36-8.384-8.352-8.384-4.992 0-8.352 3.392-8.352 8.384 0 5.024 3.36 8.384 8.352 8.384zm0-2.944c-2.912 0-4.8-2.272-4.8-5.44 0-3.168 1.888-5.44 4.8-5.44s4.832 2.272 4.832 5.44c0 3.168-1.92 5.44-4.832 5.44zm10.333-2.656c.096 3.552 3.104 5.6 7.488 5.6 3.968 0 6.944-1.984 6.944-5.12 0-3.648-3.04-4.416-6.784-4.864-2.368-.256-3.936-.448-3.936-1.984 0-1.312 1.344-2.144 3.392-2.144s3.456 1.056 3.648 2.56h3.392c-.224-3.36-3.072-5.216-7.104-5.216-3.936-.032-6.72 1.984-6.72 5.088 0 3.392 2.944 4.192 6.688 4.64 2.528.32 4.032.448 4.032 2.208 0 1.312-1.408 2.144-3.552 2.144-2.496 0-3.968-1.216-4.096-2.912h-3.392zm18.294.96c0 2.976 1.344 4.448 4.48 4.448h3.2v-3.04h-2.432c-1.312 0-1.76-.48-1.76-1.76V9.656h4v-3.04h-4V2.04h-3.488v4.576h-2.848v3.04h2.848v8.896zm9.175-.96c.096 3.552 3.104 5.6 7.488 5.6 3.968 0 6.944-1.984 6.944-5.12 0-3.648-3.04-4.416-6.784-4.864-2.368-.256-3.936-.448-3.936-1.984 0-1.312 1.344-2.144 3.392-2.144s3.456 1.056 3.648 2.56h3.392c-.224-3.36-3.072-5.216-7.104-5.216-3.936-.032-6.72 1.984-6.72 5.088 0 3.392 2.944 4.192 6.688 4.64 2.528.32 4.032.448 4.032 2.208 0 1.312-1.408 2.144-3.552 2.144-2.496 0-3.968-1.216-4.096-2.912h-3.392z" fill="#000"/></svg>