<svg width="234" height="10" viewBox="0 0 234 10" fill="none" xmlns="http://www.w3.org/2000/svg"><path d="M2.76 7.5c2.22 0 3.52-1.38 3.52-3.5 0-2.13-1.3-3.5-3.52-3.5H.72v7h2.04zM1.26 1h1.5c1.91 0 2.97 1.16 2.97 3 0 1.83-1.06 3-2.97 3h-1.5V1zm6.358.36c.2 0 .36-.15.36-.36s-.16-.36-.36-.36c-.2 0-.36.15-.36.36s.16.36.36.36zm-.26 6.14h.51V2.43h-.51V7.5zm1.479-1.56c.04 1.05.89 1.62 2.16 1.62 1.09 0 1.97-.55 1.97-1.45 0-1.07-.94-1.28-2.03-1.43-.79-.11-1.49-.2-1.49-.91 0-.58.57-.96 1.43-.96.81 0 1.39.39 1.48 1.05h.52c-.09-.99-.9-1.49-2-1.49-1.13-.01-1.94.57-1.94 1.44 0 1.02.94 1.21 1.98 1.35.85.12 1.54.23 1.54.98 0 .6-.63.98-1.46.98-.97 0-1.6-.45-1.64-1.18h-.52zm7.313 1.62c1.15 0 1.96-.66 2.16-1.69h-.54c-.17.75-.78 1.23-1.62 1.23-1.11 0-1.88-.87-1.88-2.13 0-1.26.76-2.15 1.88-2.15.85 0 1.45.48 1.63 1.24h.53c-.21-1.05-1-1.69-2.15-1.69-1.43 0-2.41 1.06-2.41 2.6 0 1.56.97 2.59 2.4 2.59zm5.391 0c1.43 0 2.44-1.06 2.44-2.6 0-1.53-1.01-2.59-2.44-2.59s-2.43 1.06-2.43 2.59c0 1.54 1 2.6 2.43 2.6zm0-.46c-1.13 0-1.91-.88-1.91-2.14 0-1.25.78-2.14 1.91-2.14s1.91.89 1.91 2.14c0 1.26-.78 2.14-1.91 2.14zm4.709.4h.61l1.98-5.07h-.53l-1.74 4.48-1.75-4.48h-.55l1.98 5.07zm5.31.06c1.11 0 1.96-.72 2.18-1.74h-.52c-.2.79-.87 1.28-1.7 1.28-1.13 0-1.84-.86-1.86-2.04v-.09h4.14c0-.07.01-.15.01-.21-.05-1.51-.98-2.39-2.34-2.39-1.39 0-2.34 1.06-2.34 2.56 0 1.59.99 2.63 2.43 2.63zM29.7 4.54c.08-1.03.85-1.72 1.78-1.72.99 0 1.7.61 1.78 1.72H29.7zm7.189-2.11c-.94 0-1.34.45-1.55 1.01l-.08-1.01h-.44V7.5h.51V4.93c0-1.03.27-2.01 1.46-2.01h.37v-.49h-.27zm6.06-.06c-.95 0-1.54.53-1.83 1.26V.5h-.51v7h.51V5c0-1.32.67-2.16 1.75-2.16.97 0 1.57.64 1.57 1.84V7.5h.51V4.66c0-1.6-.85-2.29-2-2.29zm5.301 5.19c1.43 0 2.44-1.06 2.44-2.6 0-1.53-1.01-2.59-2.44-2.59s-2.43 1.06-2.43 2.59c0 1.54 1 2.6 2.43 2.6zm0-.46c-1.13 0-1.91-.88-1.91-2.14 0-1.25.78-2.14 1.91-2.14s1.91.89 1.91 2.14c0 1.26-.78 2.14-1.91 2.14zm4.527.4h.55l1.5-4.26 1.43 4.26h.55l1.8-5.07h-.52l-1.56 4.46-1.45-4.46h-.47l-1.53 4.46-1.48-4.46h-.54l1.72 5.07zm10.469 0h.55l1.5-4.26 1.43 4.26h.55l1.8-5.07h-.52l-1.56 4.46-1.45-4.46h-.47l-1.53 4.46-1.48-4.46h-.54l1.72 5.07zm8.627.06c1.11 0 1.96-.72 2.18-1.74h-.52c-.2.79-.87 1.28-1.7 1.28-1.13 0-1.84-.86-1.86-2.04v-.09h4.14c0-.07.01-.15.01-.21-.05-1.51-.98-2.39-2.34-2.39-1.39 0-2.34 1.06-2.34 2.56 0 1.59.99 2.63 2.43 2.63zm-1.86-3.02c.08-1.03.85-1.72 1.78-1.72.99 0 1.7.61 1.78 1.72h-3.56zm10.264-2.17c-.95 0-1.62.52-1.94 1.24V.5h-.51v7h.44l.08-1.15c.3.73.98 1.21 1.93 1.21 1.39 0 2.39-1.06 2.39-2.6 0-1.59-1-2.59-2.39-2.59zm-.04 4.73c-1.13 0-1.91-.88-1.91-2.15 0-1.24.78-2.13 1.91-2.13s1.91.89 1.91 2.14c0 1.26-.78 2.14-1.91 2.14zm7.9-.07c-.3 0-.45-.1-.45-.49V4.18c0-1.16-.71-1.81-1.98-1.81-1.16 0-1.93.56-2.06 1.48h.51c.13-.62.67-1.03 1.53-1.03.95 0 1.49.5 1.49 1.34v.44h-1.72c-1.3 0-2 .56-2 1.51 0 .9.71 1.45 1.79 1.45 1.03 0 1.64-.47 1.95-1.1v.18c-.02.6.23.86.83.86h.3v-.47h-.19zm-.96-1.58c0 .97-.69 1.67-1.89 1.67-.81 0-1.31-.41-1.31-1.04 0-.67.5-1.04 1.44-1.04h1.76v.41zm3.963 2.11c1.15 0 1.96-.66 2.16-1.69h-.54c-.17.75-.78 1.23-1.62 1.23-1.11 0-1.88-.87-1.88-2.13 0-1.26.76-2.15 1.88-2.15.85 0 1.45.48 1.63 1.24h.53c-.21-1.05-1-1.69-2.15-1.69-1.43 0-2.41 1.06-2.41 2.6 0 1.56.97 2.59 2.4 2.59zm3.151-.06h.51V6.13l1.19-1.22 1.94 2.59h.62l-2.21-2.96 2.04-2.11h-.63l-2.95 3.04V.5h-.51v7zm7.388-1.56c.04 1.05.89 1.62 2.16 1.62 1.09 0 1.97-.55 1.97-1.45 0-1.07-.94-1.28-2.03-1.43-.79-.11-1.49-.2-1.49-.91 0-.58.57-.96 1.43-.96.81 0 1.39.39 1.48 1.05h.52c-.09-.99-.9-1.49-2-1.49-1.13-.01-1.94.57-1.94 1.44 0 1.02.94 1.21 1.98 1.35.85.12 1.54.23 1.54.98 0 .6-.63.98-1.46.98-.97 0-1.6-.45-1.64-1.18h-.52zm8.783-1.02c0 1.33-.66 2.17-1.71 2.17-.94 0-1.52-.64-1.52-1.85V2.43h-.51v2.84c0 1.59.83 2.29 1.95 2.29.9 0 1.49-.48 1.78-1.13l.07 1.07h.45V2.43h-.51v2.49zm3.92 2.64c1.15 0 1.96-.66 2.16-1.69h-.54c-.17.75-.78 1.23-1.62 1.23-1.11 0-1.88-.87-1.88-2.13 0-1.26.76-2.15 1.88-2.15.85 0 1.45.48 1.63 1.24h.53c-.21-1.05-1-1.69-2.15-1.69-1.43 0-2.41 1.06-2.41 2.6 0 1.56.97 2.59 2.4 2.59zm5.362 0c1.15 0 1.96-.66 2.16-1.69h-.54c-.17.75-.78 1.23-1.62 1.23-1.11 0-1.88-.87-1.88-2.13 0-1.26.76-2.15 1.88-2.15.85 0 1.45.48 1.63 1.24h.53c-.21-1.05-1-1.69-2.15-1.69-1.43 0-2.41 1.06-2.41 2.6 0 1.56.97 2.59 2.4 2.59zm5.391 0c1.11 0 1.96-.72 2.18-1.74h-.52c-.2.79-.87 1.28-1.7 1.28-1.13 0-1.84-.86-1.86-2.04v-.09h4.14c0-.07.01-.15.01-.21-.05-1.51-.98-2.39-2.34-2.39-1.39 0-2.34 1.06-2.34 2.56 0 1.59.99 2.63 2.43 2.63zm-1.86-3.02c.08-1.03.85-1.72 1.78-1.72.99 0 1.7.61 1.78 1.72h-3.56zm4.878 1.4c.04 1.05.89 1.62 2.16 1.62 1.09 0 1.97-.55 1.97-1.45 0-1.07-.94-1.28-2.03-1.43-.79-.11-1.49-.2-1.49-.91 0-.58.57-.96 1.43-.96.81 0 1.39.39 1.48 1.05h.52c-.09-.99-.9-1.49-2-1.49-1.13-.01-1.94.57-1.94 1.44 0 1.02.94 1.21 1.98 1.35.85.12 1.54.23 1.54.98 0 .6-.63.98-1.46.98-.97 0-1.6-.45-1.64-1.18h-.52zm4.776 0c.04 1.05.89 1.62 2.16 1.62 1.09 0 1.97-.55 1.97-1.45 0-1.07-.94-1.28-2.03-1.43-.79-.11-1.49-.2-1.49-.91 0-.58.57-.96 1.43-.96.81 0 1.39.39 1.48 1.05h.52c-.09-.99-.9-1.49-2-1.49-1.13-.01-1.94.57-1.94 1.44 0 1.02.94 1.21 1.98 1.35.85.12 1.54.23 1.54.98 0 .6-.63.98-1.46.98-.97 0-1.6-.45-1.64-1.18h-.52zm4.955 1.23c0 .23.16.38.38.38s.38-.15.38-.38-.16-.37-.38-.37-.38.14-.38.37zM142.075 1h2.4v6.5h.54V1h2.4V.5h-5.34V1zm7.665 1.43c-.94 0-1.34.45-1.55 1.01l-.08-1.01h-.44V7.5h.51V4.93c0-1.03.27-2.01 1.46-2.01h.37v-.49h-.27zm5.271 4.6c-.3 0-.45-.1-.45-.49V4.18c0-1.16-.71-1.81-1.98-1.81-1.16 0-1.93.56-2.06 1.48h.51c.13-.62.67-1.03 1.53-1.03.95 0 1.49.5 1.49 1.34v.44h-1.72c-1.3 0-2 .56-2 1.51 0 .9.71 1.45 1.79 1.45 1.03 0 1.64-.47 1.95-1.1v.18c-.02.6.23.86.83.86h.3v-.47h-.19zm-.96-1.58c0 .97-.69 1.67-1.89 1.67-.81 0-1.31-.41-1.31-1.04 0-.67.5-1.04 1.44-1.04h1.76v.41zm5.894-1.88c-.31-.72-.99-1.2-1.94-1.2-1.39 0-2.39 1.06-2.39 2.59 0 1.6 1 2.6 2.39 2.6.95 0 1.61-.51 1.93-1.22l.08 1.16h.44v-7h-.51v3.07zm-1.9 3.53c-1.13 0-1.91-.88-1.91-2.14 0-1.25.78-2.14 1.91-2.14s1.91.89 1.91 2.15c0 1.25-.78 2.13-1.91 2.13zm5.85.46c1.11 0 1.96-.72 2.18-1.74h-.52c-.2.79-.87 1.28-1.7 1.28-1.13 0-1.84-.86-1.86-2.04v-.09h4.14c0-.07.01-.15.01-.21-.05-1.51-.98-2.39-2.34-2.39-1.39 0-2.34 1.06-2.34 2.56 0 1.59.99 2.63 2.43 2.63zm-1.86-3.02c.08-1.03.85-1.72 1.78-1.72.99 0 1.7.61 1.78 1.72h-3.56zm9.043 2.96h.55l1.5-4.26 1.43 4.26h.55l1.8-5.07h-.52l-1.56 4.46-1.45-4.46h-.47l-1.53 4.46-1.48-4.46h-.54l1.72 5.07zm6.803-6.14c.2 0 .36-.15.36-.36s-.16-.36-.36-.36c-.2 0-.36.15-.36.36s.16.36.36.36zm-.26 6.14h.51V2.43h-.51V7.5zm2.089-1.18c0 .81.33 1.18 1.19 1.18h.74v-.47h-.7c-.53 0-.72-.2-.72-.72V2.9h1.37v-.47h-1.37V1.01h-.51v1.42h-.96v.47h.96v3.42zm5.046-3.95c-.95 0-1.54.53-1.83 1.26V.5h-.51v7h.51V5c0-1.32.67-2.16 1.75-2.16.97 0 1.57.64 1.57 1.84V7.5h.51V4.66c0-1.6-.85-2.29-2-2.29zm8.914 5.19c1.5 0 2.56-.81 2.86-2.22h-.57c-.3 1.12-1.11 1.72-2.3 1.72-1.62 0-2.64-1.27-2.64-3.06s1.04-3.06 2.66-3.06c1.17 0 1.99.61 2.3 1.71h.57c-.31-1.4-1.37-2.21-2.84-2.21-1.97 0-3.25 1.46-3.25 3.56 0 2.12 1.25 3.56 3.21 3.56zm4.163-6.2c.2 0 .36-.15.36-.36s-.16-.36-.36-.36c-.2 0-.36.15-.36.36s.16.36.36.36zm-.26 6.14h.51V2.43h-.51V7.5zm2.089-1.18c0 .81.33 1.18 1.19 1.18h.74v-.47h-.7c-.53 0-.72-.2-.72-.72V2.9h1.37v-.47h-1.37V1.01h-.51v1.42h-.96v.47h.96v3.42zm4.226 1.18l-.33.82c-.23.56-.32.71-.84.71h-.64v.47h.78c.68 0 .84-.26 1.16-1.06l2.43-6.01h-.55l-1.73 4.41-1.76-4.41h-.55l2.03 5.07zm6.061 0h.54v-7h-.54v7zm4.202-5.13c-.93 0-1.53.48-1.82 1.14l-.08-1.08h-.44V7.5h.51V5c0-1.32.67-2.16 1.75-2.16.98 0 1.57.64 1.57 1.84V7.5h.51V4.66c0-1.6-.85-2.29-2-2.29zm7.191 1.2c-.31-.72-.99-1.2-1.94-1.2-1.39 0-2.39 1.06-2.39 2.59 0 1.6 1 2.6 2.39 2.6.95 0 1.61-.51 1.93-1.22l.08 1.16h.44v-7h-.51v3.07zm-1.9 3.53c-1.13 0-1.91-.88-1.91-2.14 0-1.25.78-2.14 1.91-2.14s1.91.89 1.91 2.15c0 1.25-.78 2.13-1.91 2.13zm5.849.46c1.11 0 1.96-.72 2.18-1.74h-.52c-.2.79-.87 1.28-1.7 1.28-1.13 0-1.84-.86-1.86-2.04v-.09h4.14c0-.07.01-.15.01-.21-.05-1.51-.98-2.39-2.34-2.39-1.39 0-2.34 1.06-2.34 2.56 0 1.59.99 2.63 2.43 2.63zm-1.86-3.02c.08-1.03.85-1.72 1.78-1.72.99 0 1.7.61 1.78 1.72h-3.56zm4.402 2.96h.59l1.68-2.23 1.68 2.23h.62l-1.97-2.59 1.87-2.48h-.58l-1.6 2.1-1.58-2.1h-.61l1.87 2.48-1.97 2.59zm5.148-.33c0 .23.16.38.38.38s.38-.15.38-.38-.16-.37-.38-.37-.38.14-.38.37z" fill="#000"/></svg>