<svg width="100" height="177" viewBox="0 0 100 177" fill="none" xmlns="http://www.w3.org/2000/svg"><path d="M3.778 13.623c-.383 0-.807-.055-1.272-.164a4.657 4.657 0 01-1.176-.438l-.068-2.023.875-.055.465 1.409c.182.118.396.214.643.287.255.064.496.095.724.095.41 0 .72-.086.93-.26a.843.843 0 00.328-.697c0-.319-.096-.574-.287-.765a2.3 2.3 0 00-.725-.492c-.3-.137-.62-.27-.957-.397a6.692 6.692 0 01-.957-.478 2.435 2.435 0 01-.738-.725c-.182-.3-.274-.68-.274-1.135 0-.492.137-.92.41-1.285.283-.374.675-.66 1.176-.861.51-.21 1.099-.315 1.764-.315.21 0 .433.014.67.041.246.028.483.073.71.137.229.055.43.118.602.191l.15 1.996-.86.055-.438-1.34a2.086 2.086 0 00-.97-.218c-.374 0-.684.095-.93.287-.237.182-.356.442-.356.779 0 .3.096.551.287.752.192.191.438.36.739.506.3.136.62.273.957.41.346.137.67.3.97.492.31.182.56.415.752.697.192.283.287.643.287 1.08 0 .465-.145.885-.437 1.258-.283.365-.684.652-1.203.862-.51.21-1.108.314-1.791.314zm8.9-1.271a1.817 1.817 0 01-.752.943 2.181 2.181 0 01-1.203.342c-.629 0-1.148-.183-1.559-.547-.4-.374-.601-.93-.601-1.668l.04-3.049h-.956v-.424l2.338-1.86h.424l-.028 1.929-.027 3.24c0 .383.091.66.273.834.183.164.438.246.766.246.173 0 .342-.032.506-.096.164-.073.305-.164.424-.273l.355.383zM9.684 8.373v-.861h2.611v.861H9.684zm6.467 5.236c-.638 0-1.199-.127-1.682-.382a2.942 2.942 0 01-1.135-1.08 3.068 3.068 0 01-.41-1.587c0-.674.155-1.248.465-1.722.31-.474.716-.834 1.217-1.08a3.582 3.582 0 011.6-.37c.601 0 1.13.128 1.585.383a2.68 2.68 0 011.08 1.08c.265.456.397.98.397 1.573a3.162 3.162 0 01-1.545 2.761 3.012 3.012 0 01-1.572.424zm.137-.875c.227 0 .419-.072.574-.218.164-.146.287-.36.369-.643a3.31 3.31 0 00.137-1.012c0-.784-.128-1.422-.383-1.914-.246-.492-.579-.738-.998-.738-.347 0-.62.178-.82.533-.201.347-.301.82-.301 1.422 0 .483.059.92.177 1.313.128.391.297.701.506.93.219.218.465.327.739.327zm3.718.766l-.04-.629.847-.232c.009-.037.018-.119.027-.246.01-.128.018-.288.028-.479.009-.2.013-.415.013-.643l.014-1.039c0-.282-.01-.528-.027-.738a6.038 6.038 0 00-.096-.656l-.875-.192v-.615l2.406-.615.37.232-.083.807.041.014c.283-.365.593-.634.93-.807a2.317 2.317 0 011.094-.273c.392 0 .738.095 1.039.287.31.191.556.474.738.847.182.365.273.807.273 1.327v1.408c0 .31.005.601.014.875.01.264.027.433.055.506l.848.232-.042.629H24.15l-.041-.629.78-.232c.017-.082.031-.196.04-.342.01-.155.014-.324.014-.506.009-.182.013-.356.013-.52v-1.148c0-.346-.054-.624-.164-.834a1.022 1.022 0 00-.984-.629c-.228 0-.442.05-.643.15-.191.1-.364.247-.52.438v2.01c0 .31.006.601.015.875.018.264.036.433.054.506l.834.232-.04.629h-3.5zm11.307.11c-.593 0-1.121-.133-1.586-.397a2.924 2.924 0 01-1.08-1.08 3.106 3.106 0 01-.383-1.545c0-.638.146-1.194.438-1.668.291-.483.67-.861 1.134-1.135.474-.273.98-.405 1.518-.396.802 0 1.422.25 1.86.752.437.492.656 1.134.656 1.927v.329h-4.02v-.711h2.68l-.205.328v-.465c0-.429-.096-.77-.288-1.026-.19-.255-.455-.382-.793-.382-.227 0-.432.063-.615.191-.182.128-.328.324-.437.588-.1.255-.15.579-.15.97v.288c0 .638.168 1.153.505 1.545.347.392.807.587 1.381.587.31 0 .592-.054.848-.164.255-.118.501-.314.738-.587l.424.382c-.255.547-.615.962-1.08 1.244-.465.283-.98.424-1.545.424zm8.394-.11l-.04-.684.847-.218c.018-.046.032-.169.041-.37.018-.2.032-.45.041-.751.01-.301.014-.63.014-.985v-2.01c0-.364-.005-.697-.014-.998-.009-.31-.023-.56-.04-.752-.01-.2-.024-.323-.042-.369l-.848-.205.041-.683h3.664l.041.683-.86.205c-.01.046-.024.173-.042.383-.018.21-.032.47-.04.78-.01.31-.015.628-.015.956v2.01c0 .32.005.634.014.943.01.301.023.561.041.78.018.21.032.337.041.383l.861.218-.04.684h-3.665zm-4.894 0l-.041-.684.861-.218c.018-.046.032-.164.041-.356.018-.191.032-.437.041-.738.01-.31.014-.647.014-1.012v-2.01c0-.373-.005-.715-.014-1.025-.009-.31-.023-.56-.04-.752-.01-.2-.024-.314-.042-.342l-.861-.205.04-.683h3.651l.041.683-.847.205a1.863 1.863 0 00-.055.37c-.01.19-.018.441-.027.751v3.993c.009.3.018.551.027.752.018.2.036.323.055.369l.847.218-.04.684h-3.651zm2.447-3.582v-1.04c.219.028.47.046.752.056.292.009.652.013 1.08.013.428 0 .784-.004 1.067-.013.282-.01.533-.028.752-.055v1.039c-.192-.01-.429-.018-.711-.027a17.946 17.946 0 00-1.108-.028c-.456 0-.83.01-1.12.028-.284.009-.52.018-.712.027zm10.158 3.691c-.592 0-1.12-.132-1.586-.396a2.924 2.924 0 01-1.08-1.08 3.107 3.107 0 01-.383-1.545c0-.638.146-1.194.438-1.668.292-.483.67-.861 1.135-1.135.474-.273.98-.405 1.517-.396.802 0 1.422.25 1.86.752.437.492.656 1.134.656 1.927v.329h-4.02v-.711h2.68l-.205.328v-.465c0-.429-.096-.77-.287-1.026-.191-.255-.456-.382-.793-.382-.228 0-.433.063-.615.191-.183.128-.328.324-.438.588-.1.255-.15.579-.15.97v.288c0 .638.169 1.153.506 1.545.346.392.806.587 1.38.587.31 0 .593-.054.848-.164.255-.118.502-.314.739-.587l.423.382c-.255.547-.615.962-1.08 1.244-.465.283-.98.424-1.545.424zm8.176.069l-.369-.205.014-.889-.041-.014c-.228.392-.483.67-.766.834a1.798 1.798 0 01-.875.233c-.483 0-.93-.123-1.34-.37a2.73 2.73 0 01-.984-1.025c-.246-.446-.37-.961-.37-1.545 0-.51.096-.966.288-1.367.191-.41.446-.756.765-1.039.32-.292.675-.51 1.067-.656a3.246 3.246 0 011.203-.233c.173 0 .35.019.533.055.182.027.333.073.451.137 0-.173-.004-.365-.013-.574 0-.22-.005-.433-.014-.643 0-.219-.005-.415-.014-.588a4.5 4.5 0 00-.013-.41l-1.012-.15-.027-.588 2.584-.67.382.232c-.027.565-.054 1.09-.082 1.572-.027.474-.04.976-.04 1.504l-.014 3.172c0 .447.013.811.04 1.094.028.283.05.524.069.725l.902.19v.589l-2.324.629zm-1.38-1.354c.145 0 .31-.045.491-.136.192-.092.356-.242.493-.452V8.687a.984.984 0 00-.452-.355 1.33 1.33 0 00-.52-.11c-.428 0-.783.178-1.066.534-.273.355-.41.843-.41 1.463 0 .674.142 1.194.424 1.558.292.365.638.547 1.04.547zm7.15 4.293c-.966 0-1.723-.132-2.27-.396-.538-.265-.806-.63-.806-1.094 0-.3.159-.583.478-.848.328-.255.77-.46 1.326-.615l.588.055a1.917 1.917 0 00-.52.533c-.127.2-.19.41-.19.629 0 .31.127.547.382.71.264.174.647.26 1.148.26.493 0 .903-.109 1.23-.328.329-.21.493-.473.493-.793 0-.227-.082-.4-.246-.52-.164-.108-.447-.181-.848-.218l-1.736-.15-.123-.069c-.465 0-.825-.09-1.08-.273-.255-.173-.383-.401-.383-.684 0-.291.141-.56.424-.806.291-.255.688-.456 1.19-.602l.218.233a.96.96 0 00-.246.218.334.334 0 00-.096.22c0 .108.032.19.096.245a.65.65 0 00.3.11l2.12.205c.674.064 1.176.241 1.504.533.328.291.492.674.492 1.148 0 .429-.15.816-.451 1.162-.292.347-.702.62-1.23.82-.52.21-1.108.315-1.764.315zm.054-4.73c-.547 0-1.03-.091-1.449-.274a2.335 2.335 0 01-.957-.779 2.026 2.026 0 01-.342-1.162c0-.447.123-.843.37-1.19a2.54 2.54 0 01.998-.82c.428-.2.906-.3 1.435-.3.52 0 .98.104 1.38.314.411.2.735.474.972.82s.355.738.355 1.176c0 .428-.118.811-.355 1.148-.237.328-.561.588-.971.78-.41.191-.889.287-1.436.287zm.11-.793a.766.766 0 00.67-.37c.164-.255.246-.596.246-1.025 0-.465-.091-.838-.274-1.12-.173-.283-.41-.425-.71-.425-.274 0-.497.132-.67.397-.174.264-.26.615-.26 1.053 0 .446.09.806.273 1.08.182.273.424.41.725.41zm3.404-2.475l-1.846-.178-.41-.642 2.256-.274V8.62zm3.637 4.99c-.593 0-1.121-.132-1.586-.396a2.924 2.924 0 01-1.08-1.08 3.107 3.107 0 01-.383-1.545c0-.638.146-1.194.437-1.668.292-.483.67-.861 1.135-1.135.474-.273.98-.405 1.518-.396.802 0 1.422.25 1.86.752.437.492.655 1.134.655 1.927v.329h-4.02v-.711h2.68l-.205.328v-.465c0-.429-.095-.77-.287-1.026-.191-.255-.455-.382-.793-.382-.228 0-.433.063-.615.191s-.328.324-.437.588c-.1.255-.15.579-.15.97v.288c0 .638.168 1.153.505 1.545.347.392.807.587 1.381.587.31 0 .592-.054.848-.164.255-.118.5-.314.738-.587l.424.382c-.255.547-.615.962-1.08 1.244-.465.283-.98.424-1.545.424zM5.679 28.352a1.817 1.817 0 01-.753.943 2.181 2.181 0 01-1.203.342c-.629 0-1.148-.183-1.559-.547-.4-.374-.601-.93-.601-1.668l.04-3.049H.648v-.424l2.338-1.86h.424l-.028 1.929-.027 3.24c0 .383.091.66.273.834.183.164.438.246.766.246.173 0 .342-.032.506-.096.164-.073.305-.164.424-.273l.355.383zm-2.995-3.979v-.861h2.611v.861H2.684zM5.897 29.5l-.041-.629.847-.232a1.88 1.88 0 00.028-.246c.009-.137.018-.301.027-.493.01-.2.014-.41.014-.628l.014-1.026c0-.273-.01-.515-.028-.724a6.47 6.47 0 00-.096-.684l-.875-.192v-.615l2.366-.615.355.232-.055 1.08.042.014c.264-.51.528-.857.792-1.039.274-.182.552-.273.834-.273.247 0 .46.068.643.205.191.136.287.35.287.642 0 .292-.1.52-.3.684-.201.164-.434.246-.698.246-.219 0-.415-.036-.588-.11a2.296 2.296 0 01-.574-.423l.383.04a2.385 2.385 0 00-.725.916l.014 1.08c.009.338.014.643.014.917.009.264.018.488.027.67.009.173.018.287.027.342l1.19.205-.041.656H5.897zm7.629.11c-.42 0-.784-.092-1.094-.274a2.107 2.107 0 01-.697-.656c-.155-.256-.233-.497-.233-.725 0-.328.1-.601.301-.82.21-.228.529-.406.957-.533l2.147-.63v-.492a.85.85 0 00-.192-.533 1.352 1.352 0 00-.478-.424c-.2-.109-.415-.164-.643-.164-.146 0-.25.037-.314.11-.055.064-.091.196-.11.396l-.068.834c-.456.091-.83.078-1.121-.04-.283-.128-.424-.333-.424-.616 0-.173.091-.35.273-.533.183-.183.406-.351.67-.506.274-.164.552-.3.834-.41.283-.119.529-.187.739-.205.81 0 1.453.187 1.927.56.474.365.716.857.725 1.477l-.041 1.9c0 .255.005.456.014.602.018.146.045.264.082.355l.902.164v.575l-.889.382a4.356 4.356 0 01-.45.15 1.54 1.54 0 01-.397.055c-.356 0-.606-.182-.752-.547l-.233-.628.287.068c-.282.346-.574.62-.875.82-.291.192-.574.287-.847.287zm.697-1.231c.128 0 .25-.023.37-.069.118-.054.227-.132.327-.232v-1.34l-.93.178c-.227.027-.391.096-.492.205a.662.662 0 00-.136.438c0 .21.082.4.246.574a.864.864 0 00.615.246zm3.815 1.121l-.041-.629.847-.232c.01-.037.018-.119.027-.246a14.217 14.217 0 00.041-1.121l.014-1.04c0-.282-.009-.528-.027-.738a5.99 5.99 0 00-.096-.656l-.875-.192v-.615l2.406-.615.37.232-.082.807.04.014c.283-.365.593-.634.93-.807.347-.182.711-.273 1.094-.273.392 0 .738.095 1.039.287.31.191.556.474.738.847.182.365.274.807.274 1.327v1.408c0 .31.004.601.013.875.01.264.028.433.055.506l.848.232-.041.629H22.18l-.041-.629.78-.232c.018-.082.031-.196.04-.342.01-.155.014-.324.014-.506.01-.182.014-.355.014-.52v-1.148c0-.346-.055-.624-.164-.834a1.021 1.021 0 00-.985-.629c-.228 0-.442.05-.642.15-.192.1-.365.247-.52.438v2.01c0 .31.005.601.014.875.018.264.036.433.054.506l.834.232-.04.629h-3.5zm10.445.11c-.383 0-.761-.042-1.135-.124a4.026 4.026 0 01-.943-.341l-.069-1.6h.875l.287.984c.347.2.707.301 1.08.301.283 0 .497-.055.643-.164a.57.57 0 00.219-.465c0-.2-.082-.373-.246-.52-.155-.145-.479-.31-.971-.492-.674-.246-1.144-.515-1.408-.806-.265-.292-.397-.656-.397-1.094 0-.374.114-.702.342-.984.228-.292.547-.515.957-.67.41-.164.884-.246 1.422-.246.292 0 .588.027.889.082.3.054.547.127.738.218l.164 1.586h-.875l-.3-.97a1.073 1.073 0 00-.342-.123 1.344 1.344 0 00-.37-.055c-.273 0-.496.06-.67.178a.56.56 0 00-.246.478c0 .219.1.401.301.547.2.146.565.328 1.094.547.601.246 1.03.51 1.285.793.255.273.383.615.383 1.025 0 .575-.25 1.04-.752 1.395-.501.346-1.153.52-1.955.52zm7.11-.11h-3.76l-.042-.629.848-.232a7.4 7.4 0 00.014-.438c.009-.146.013-.305.013-.478v-.643-1.012l-.013-1.695v-1.285c0-.602.114-1.14.342-1.613.227-.474.537-.844.93-1.108.391-.273.838-.41 1.339-.41.456 0 .83.096 1.121.287.3.182.451.424.451.725 0 .191-.059.337-.177.437-.11.1-.265.15-.465.15-.256 0-.52-.113-.793-.341l-.78-.725.588.082c-.264 0-.47.164-.615.492-.137.32-.205.789-.205 1.409v1.039l.027.861.014 1.668c0 .456.01.92.027 1.395.019.474.037.875.055 1.203l1.121.232-.04.629zm-3.925-5.113v-.63l.985-.273.806.041h2.393v.862h-4.184zm7.971 5.222c-.638 0-1.199-.127-1.682-.382a2.943 2.943 0 01-1.134-1.08 3.07 3.07 0 01-.41-1.586c0-.675.154-1.25.464-1.723.31-.474.716-.834 1.217-1.08a3.582 3.582 0 011.6-.37c.601 0 1.13.128 1.586.383.465.256.825.616 1.08 1.08.264.456.396.98.396 1.573a3.163 3.163 0 01-1.545 2.762 3.012 3.012 0 01-1.572.423zm.137-.875c.228 0 .419-.073.574-.218.164-.146.287-.36.37-.643a3.31 3.31 0 00.136-1.012c0-.784-.128-1.422-.383-1.914-.246-.492-.579-.738-.998-.738-.346 0-.62.178-.82.533-.2.346-.301.82-.301 1.422 0 .483.06.92.178 1.313.127.392.296.701.506.93.218.218.464.327.738.327zm3.732.766l-.04-.629.847-.232c.009-.037.018-.119.027-.246.01-.137.018-.301.028-.493.009-.2.013-.41.013-.628l.014-1.026c0-.273-.01-.515-.027-.724a6.454 6.454 0 00-.096-.684l-.875-.192v-.615l2.365-.615.355.232-.054 1.08.04.014c.265-.51.53-.857.794-1.039.273-.182.551-.273.834-.273.246 0 .46.068.642.205.192.136.288.35.288.642 0 .292-.1.52-.301.684-.2.164-.433.246-.698.246-.218 0-.414-.036-.587-.11a2.298 2.298 0 01-.575-.423l.383.04a2.387 2.387 0 00-.725.916l.014 1.08c.01.338.014.643.014.917.009.264.018.488.027.67.01.173.018.287.028.342l1.189.205-.041.656h-3.883zm5.606 0l-.041-.629.847-.232c.01-.037.018-.119.028-.246.009-.137.018-.301.027-.493.01-.191.014-.4.014-.628l.013-1.026a7.892 7.892 0 00-.123-1.408l-.875-.192v-.615l2.407-.615.369.232-.082.793.04.014c.292-.374.598-.642.917-.807.319-.173.651-.26.998-.26.355 0 .683.092.984.274.31.173.56.442.752.807.191.355.287.816.287 1.38l.027 1.409c0 .3.005.588.014.861.01.274.028.447.055.52l.738.232-.04.629h-3.241l-.041-.629.697-.232c.018-.082.032-.196.041-.342a8.58 8.58 0 00.014-.506c.009-.182.014-.355.014-.52l-.014-1.285c0-.328-.05-.588-.15-.779a.837.837 0 00-.383-.424 1.153 1.153 0 00-.547-.123c-.2 0-.401.055-.602.164-.2.1-.369.242-.506.424v2.01c0 .3.005.588.014.861.018.274.036.447.055.52l.752.232-.041.629h-3.418zm8.025 0l-.041-.629.711-.232c.018-.082.032-.196.041-.342.01-.155.014-.324.014-.506.009-.182.013-.355.013-.52l-.027-1.162c0-.355-.05-.638-.15-.847a.95.95 0 00-.41-.451c-.174-.1-.365-.15-.575-.15-.228 0-.446.05-.656.15-.2.09-.37.232-.506.423l-.396-.52c.328-.437.674-.765 1.039-.983a2.27 2.27 0 011.203-.342c.428 0 .806.1 1.135.3.337.192.597.47.779.834.182.365.273.803.273 1.313l.028 1.422c0 .3.004.588.013.861.018.274.037.447.055.52l.848.232-.041.629h-3.35zm6.22.11c-.382 0-.76-.042-1.134-.124a4.027 4.027 0 01-.943-.341l-.069-1.6h.875l.287.984c.347.2.707.301 1.08.301.283 0 .497-.055.643-.164a.57.57 0 00.219-.465c0-.2-.082-.373-.246-.52-.155-.145-.479-.31-.971-.492-.675-.246-1.144-.515-1.408-.806-.265-.292-.397-.656-.397-1.094 0-.374.114-.702.342-.984.228-.292.547-.515.957-.67.41-.164.884-.246 1.422-.246.292 0 .588.027.889.082.3.054.546.127.738.218l.164 1.586h-.875l-.3-.97a1.072 1.072 0 00-.343-.123 1.344 1.344 0 00-.369-.055c-.273 0-.497.06-.67.178a.56.56 0 00-.246.478c0 .219.1.401.301.547.2.146.565.328 1.094.547.601.246 1.03.51 1.285.793.255.273.383.615.383 1.025 0 .575-.25 1.04-.752 1.395-.501.346-1.153.52-1.955.52zM.853 45.5l-.041-.629.848-.232c.009-.037.018-.119.027-.246.009-.137.018-.301.027-.493.01-.191.014-.4.014-.628l.014-1.026a7.963 7.963 0 00-.123-1.408l-.875-.191v-.616l2.406-.615.369.232-.082.793.04.014c.293-.374.598-.642.917-.807.319-.173.652-.26.998-.26.355 0 .684.092.984.274.31.173.56.442.752.807.192.355.287.816.287 1.38l.028 1.409c0 .3.004.588.013.861.01.274.028.447.055.52l.738.232-.04.629h-3.24l-.042-.629.697-.232c.019-.082.032-.196.041-.342a8.66 8.66 0 00.014-.506c.01-.182.014-.355.014-.52l-.014-1.285c0-.328-.05-.588-.15-.779a.837.837 0 00-.383-.424 1.153 1.153 0 00-.547-.123c-.2 0-.401.055-.602.164-.2.1-.369.242-.505.424v2.01c0 .3.004.588.013.861.018.274.037.447.055.52l.752.232-.041.629H.852zm8.025 0l-.04-.629.71-.232c.018-.082.032-.196.041-.342a8.66 8.66 0 00.014-.506c.009-.182.014-.355.014-.52l-.028-1.162c0-.355-.05-.638-.15-.847a.95.95 0 00-.41-.452c-.173-.1-.365-.15-.575-.15-.227 0-.446.05-.656.15-.2.092-.369.233-.506.424l-.396-.52c.328-.437.674-.765 1.039-.983a2.27 2.27 0 011.203-.342c.428 0 .807.1 1.135.3.337.192.597.47.78.834.181.365.273.802.273 1.313l.027 1.422c0 .3.005.588.014.861.018.274.036.447.054.52l.848.232-.041.629h-3.35zm7.082.11c-.592 0-1.12-.133-1.586-.397a2.925 2.925 0 01-1.08-1.08 3.107 3.107 0 01-.382-1.545c0-.638.145-1.194.437-1.668a3.22 3.22 0 011.135-1.135c.474-.273.98-.405 1.517-.396.802 0 1.422.25 1.86.752.437.492.656 1.134.656 1.927v.329h-4.02v-.712h2.68l-.205.329v-.465c0-.429-.096-.77-.287-1.026-.191-.255-.456-.382-.793-.382-.228 0-.433.063-.615.191s-.328.324-.438.588c-.1.255-.15.579-.15.97v.288c0 .638.168 1.153.506 1.545.346.392.806.587 1.38.587.31 0 .593-.054.848-.163.255-.119.502-.315.738-.588l.424.382c-.255.547-.615.962-1.08 1.244-.465.283-.98.424-1.545.424zm3.254-.11l-.04-.629.847-.232c.009-.037.018-.119.027-.246.01-.137.018-.301.028-.493.009-.2.013-.41.013-.628l.014-1.026c0-.273-.01-.515-.027-.724a6.454 6.454 0 00-.096-.684l-.875-.191v-.616l2.365-.615.356.232-.055 1.08.04.014c.265-.51.53-.857.794-1.039.273-.182.551-.273.834-.273.246 0 .46.068.642.205.192.137.288.35.288.642 0 .292-.1.52-.301.684-.2.164-.433.246-.698.246-.218 0-.414-.036-.587-.11a2.295 2.295 0 01-.575-.423l.383.04a2.383 2.383 0 00-.725.916l.014 1.08c.01.338.014.643.014.917.01.264.018.488.027.67.01.173.018.287.028.342l1.19.205-.042.656h-3.883zm8.504.11a3.279 3.279 0 01-1.558-.37 3.064 3.064 0 01-1.108-1.053 2.944 2.944 0 01-.41-1.544c0-.575.146-1.108.438-1.6a3.311 3.311 0 011.203-1.203c.51-.3 1.098-.451 1.763-.451.401 0 .761.054 1.08.164.32.1.575.246.766.437.191.192.287.406.287.643 0 .228-.073.4-.219.52a.784.784 0 01-.506.163c-.173 0-.328-.032-.464-.095a2.418 2.418 0 01-.451-.315l-.999-.875.698.164a1.112 1.112 0 00-.793.11c-.255.136-.465.364-.63.683-.163.31-.245.702-.245 1.176 0 .702.168 1.23.506 1.586.346.355.77.533 1.271.533.255 0 .506-.055.752-.164.255-.118.501-.319.738-.601l.438.396c-.255.556-.615.98-1.08 1.271a2.75 2.75 0 01-1.477.424zm2.926-.11l-.041-.629.848-.232c.009-.1.018-.274.027-.52.018-.255.032-.547.04-.875.01-.328.015-.647.015-.957v-1.722c0-.31-.005-.62-.014-.93 0-.32-.005-.62-.014-.903 0-.291-.004-.556-.013-.792a7.005 7.005 0 00-.041-.575l-1.012-.137-.027-.587 2.584-.67.382.232-.054.82a149.704 149.704 0 00-.055 1.955c-.01.402-.018.89-.027 1.463l.04.014c.283-.355.593-.62.93-.793a2.237 2.237 0 011.08-.273c.392 0 .739.095 1.04.287.31.191.555.474.738.847.182.365.273.807.273 1.327v1.408c0 .31.005.601.014.875.018.264.036.433.054.506l.848.232-.04.629h-3.419l-.04-.629.765-.232c.018-.082.032-.196.04-.342.01-.155.014-.324.014-.506.01-.182.014-.355.014-.52v-1.148c0-.346-.054-.624-.164-.834a1.022 1.022 0 00-.984-.629c-.219 0-.429.05-.63.15-.2.1-.377.247-.532.438v2.01c0 .337.004.633.013.889.018.255.037.419.055.492l.82.232-.04.629h-3.487zm10.35.11c-.42 0-.784-.092-1.094-.274a2.107 2.107 0 01-.697-.656c-.155-.255-.233-.497-.233-.725 0-.328.1-.602.3-.82.21-.228.53-.406.958-.533l2.146-.63v-.492a.85.85 0 00-.191-.533 1.352 1.352 0 00-.479-.424c-.2-.109-.414-.164-.642-.164-.146 0-.25.037-.315.11-.054.064-.09.196-.109.396l-.068.834c-.456.091-.83.078-1.121-.04-.283-.128-.424-.334-.424-.616 0-.173.09-.35.273-.533.183-.182.406-.351.67-.506.274-.164.552-.3.834-.41a2.53 2.53 0 01.738-.205c.812 0 1.454.186 1.928.56.474.365.716.857.725 1.477l-.041 1.9c0 .255.004.456.013.602.019.146.046.264.082.355l.903.164v.575l-.889.382a4.356 4.356 0 01-.451.15 1.54 1.54 0 01-.396.055c-.356 0-.607-.182-.752-.547l-.233-.628.287.068c-.282.346-.574.62-.875.82-.292.192-.574.287-.847.287zm.697-1.231c.127 0 .25-.023.369-.069.118-.054.228-.132.328-.232v-1.34l-.93.178c-.227.027-.392.096-.492.205a.662.662 0 00-.137.438c0 .21.082.4.247.574a.864.864 0 00.615.246zm3.814 1.121l-.04-.629.847-.232c.009-.037.018-.119.027-.246.01-.128.018-.288.028-.479.009-.2.013-.415.013-.642l.014-1.04c0-.282-.01-.528-.027-.738a5.99 5.99 0 00-.096-.656l-.875-.191v-.616l2.406-.615.37.232-.083.807.041.014c.283-.365.593-.634.93-.807.346-.182.71-.273 1.094-.273.392 0 .738.095 1.039.287.31.191.556.474.738.847.182.365.273.807.273 1.327v1.408c0 .31.005.601.014.875.01.264.028.433.055.506l.848.232-.041.629h-3.432l-.041-.629.78-.232c.017-.082.031-.196.04-.342a8.58 8.58 0 00.014-.506c.009-.182.014-.355.014-.52v-1.148c0-.346-.055-.624-.165-.834a1.022 1.022 0 00-.984-.629c-.228 0-.442.05-.642.15-.192.1-.365.247-.52.438v2.01c0 .31.005.601.014.875.018.264.036.433.054.506l.834.232-.04.629h-3.5zm12.975.178l-.37-.205.014-.889-.04-.014c-.228.392-.484.67-.766.834a1.798 1.798 0 01-.875.233c-.483 0-.93-.123-1.34-.37a2.73 2.73 0 01-.984-1.025c-.247-.446-.37-.961-.37-1.545 0-.51.096-.966.288-1.367.19-.41.446-.756.765-1.039.32-.292.675-.51 1.067-.656a3.244 3.244 0 011.203-.233c.173 0 .35.019.533.055.182.027.333.073.451.137 0-.173-.005-.365-.014-.575 0-.218-.004-.432-.013-.642 0-.219-.005-.415-.014-.588a4.51 4.51 0 00-.014-.41l-1.011-.15-.028-.588 2.584-.67.383.232c-.027.565-.055 1.09-.082 1.572a26.11 26.11 0 00-.04 1.504l-.015 3.172c0 .447.014.811.041 1.094.028.282.05.524.069.724l.902.192v.588l-2.324.629zm-1.381-1.354c.146 0 .31-.045.492-.136.192-.092.356-.242.492-.452v-3.048a.983.983 0 00-.45-.356 1.33 1.33 0 00-.52-.11c-.429 0-.784.178-1.067.534-.273.355-.41.843-.41 1.463 0 .674.141 1.194.424 1.558.292.365.638.547 1.039.547zm4.047 1.176l-.041-.643.916-.218c.009-.037.018-.119.027-.246.01-.137.019-.301.028-.493.009-.191.013-.4.013-.628l.014-1.026c0-.273-.01-.52-.027-.738a5.915 5.915 0 00-.096-.67l-.916-.191v-.616l2.515-.615.37.232c-.028.292-.05.588-.069.89-.009.29-.013.623-.013.997v1.723c0 .3.004.588.013.861.019.274.037.447.055.52l.916.218-.041.643h-3.664zm1.846-7.205c-.365 0-.652-.11-.862-.328a1.119 1.119 0 01-.314-.78c0-.291.105-.546.314-.765.21-.228.497-.342.862-.342.364 0 .647.114.847.342a1.147 1.147 0 010 1.545c-.2.218-.483.328-.847.328zm4.675 7.314c-.382 0-.76-.04-1.134-.123a4.026 4.026 0 01-.944-.341l-.068-1.6h.875l.287.984c.346.2.706.301 1.08.301.283 0 .497-.055.643-.164a.57.57 0 00.218-.465c0-.2-.082-.373-.246-.52-.155-.145-.478-.31-.97-.491-.675-.247-1.144-.515-1.409-.807-.264-.292-.396-.656-.396-1.094 0-.374.114-.702.342-.984.228-.292.547-.515.957-.67.41-.164.884-.246 1.422-.246.291 0 .588.027.888.082.301.054.547.127.739.219l.164 1.585h-.875l-.301-.97a1.073 1.073 0 00-.342-.123 1.344 1.344 0 00-.37-.055c-.272 0-.496.06-.669.178a.56.56 0 00-.246.478c0 .219.1.401.3.547.201.146.566.328 1.094.547.602.246 1.03.51 1.286.793.255.273.382.615.382 1.025 0 .575-.25 1.04-.752 1.395-.5.346-1.152.52-1.955.52zm3.24-.109l-.04-.643.916-.218c.009-.037.018-.119.027-.246.01-.137.018-.301.027-.493.01-.191.014-.4.014-.628l.014-1.026c0-.273-.01-.52-.028-.738a5.915 5.915 0 00-.095-.67l-.916-.191v-.616l2.515-.615.37.232c-.028.292-.05.588-.069.89-.01.29-.014.623-.014.997v1.723c0 .3.005.588.014.861.018.274.036.447.055.52l.916.218-.041.643h-3.664zm1.846-7.205c-.364 0-.651-.11-.861-.328a1.12 1.12 0 01-.315-.78c0-.291.105-.546.315-.765.21-.228.497-.342.861-.342.365 0 .648.114.848.342.2.219.3.474.3.766 0 .291-.1.55-.3.779-.2.218-.483.328-.848.328zm2.27 7.205l-.041-.629.848-.232c.009-.037.018-.119.027-.246a14.217 14.217 0 00.041-1.121l.014-1.04c0-.282-.01-.528-.028-.738a6.04 6.04 0 00-.096-.656l-.875-.191v-.616l2.407-.615.369.232-.082.807.04.014c.283-.365.593-.634.93-.807a2.317 2.317 0 011.094-.273c.392 0 .739.095 1.04.287.31.191.555.474.738.847.182.365.273.807.273 1.327v1.408c0 .31.005.601.014.875.009.264.027.433.054.506l.848.232-.04.629h-3.433l-.04-.629.779-.232c.018-.082.032-.196.04-.342.01-.155.014-.324.014-.506.01-.182.014-.355.014-.52v-1.148c0-.346-.055-.624-.164-.834a1.023 1.023 0 00-.41-.479 1.08 1.08 0 00-.574-.15c-.228 0-.442.05-.643.15-.191.1-.365.247-.52.438v2.01c0 .31.005.601.014.875.018.264.037.433.055.506l.834.232-.041.629h-3.5zm11.088 3.117c-.966 0-1.723-.132-2.27-.396-.538-.265-.806-.63-.806-1.094 0-.3.16-.583.478-.848.328-.255.77-.46 1.326-.615l.588.055a1.918 1.918 0 00-.52.533c-.127.2-.19.41-.19.629 0 .31.127.547.382.71.264.174.647.26 1.148.26.493 0 .903-.109 1.23-.328.33-.21.493-.474.493-.793 0-.227-.082-.4-.246-.52-.164-.108-.447-.181-.848-.218l-1.736-.15-.123-.069c-.465 0-.825-.09-1.08-.273-.255-.173-.383-.401-.383-.684 0-.291.141-.56.424-.806.292-.255.688-.456 1.19-.602l.218.233a.96.96 0 00-.246.218.334.334 0 00-.096.22c0 .108.032.19.096.245a.65.65 0 00.3.11l2.12.205c.674.063 1.176.241 1.504.533.328.292.492.674.492 1.148 0 .429-.15.816-.451 1.162-.292.347-.702.62-1.23.82-.52.21-1.108.315-1.764.315zm.054-4.73c-.546 0-1.03-.091-1.449-.274a2.335 2.335 0 01-.957-.779 2.026 2.026 0 01-.342-1.162c0-.447.123-.843.37-1.19a2.54 2.54 0 01.998-.82c.428-.2.906-.3 1.435-.3.52 0 .98.104 1.381.314.41.2.734.474.97.82.238.346.356.738.356 1.176 0 .428-.118.811-.355 1.148-.237.328-.56.588-.971.78-.41.191-.889.287-1.436.287zm.11-.793a.766.766 0 00.67-.37c.164-.255.246-.596.246-1.025 0-.465-.091-.838-.274-1.12-.173-.283-.41-.425-.71-.425-.274 0-.497.132-.67.397-.174.264-.26.615-.26 1.052 0 .447.09.807.273 1.08.182.274.424.41.725.41zm3.404-2.475l-1.846-.178-.41-.642 2.256-.274v1.094zM1.936 69.5v-9.87h5.992v.546H2.524v4.046H7.62v.546H2.524v4.186h5.404v.546H1.936zm10.518.112c-.635 0-1.185-.145-1.652-.434-.466-.29-.826-.705-1.078-1.246-.252-.541-.378-1.185-.378-1.932 0-.756.126-1.4.378-1.932.262-.541.626-.957 1.092-1.246.467-.29 1.013-.434 1.638-.434.663 0 1.227.173 1.694.518.476.345.789.821.938 1.428h-.168l.14-1.834h.574l-.084.77c-.018.252-.028.5-.028.742V69.5h-.588v-1.834h.154c-.15.607-.462 1.083-.938 1.428-.476.345-1.04.518-1.694.518zm0-.546c.765 0 1.372-.261 1.82-.784.448-.532.672-1.293.672-2.282 0-.99-.224-1.745-.672-2.268-.448-.532-1.054-.798-1.82-.798-.765 0-1.377.266-1.834.798-.448.523-.672 1.279-.672 2.268 0 .99.224 1.75.672 2.282.458.523 1.069.784 1.834.784zm7.714.546c-.522 0-1.017-.08-1.484-.238-.457-.168-.83-.397-1.12-.686l.294-.462c.336.29.7.504 1.092.644.392.13.808.196 1.246.196.635 0 1.12-.121 1.456-.364.336-.243.504-.574.504-.994 0-.327-.107-.588-.322-.784-.214-.205-.569-.36-1.064-.462l-1.218-.266c-.597-.14-1.04-.364-1.33-.672-.289-.308-.434-.69-.434-1.148 0-.383.098-.723.294-1.022.206-.299.495-.532.868-.7.383-.177.831-.266 1.344-.266.495 0 .948.084 1.358.252.42.168.756.401 1.008.7l-.308.462a2.724 2.724 0 00-.938-.644 2.791 2.791 0 00-1.12-.224c-.606 0-1.073.13-1.4.392-.317.261-.476.607-.476 1.036 0 .327.098.593.294.798.206.205.528.36.966.462l1.218.28c.635.15 1.106.369 1.414.658.308.28.462.653.462 1.12 0 .392-.107.733-.322 1.022-.214.29-.518.513-.91.672-.392.159-.849.238-1.372.238zm4.178 3.066l-.14-.546c.439-.103.798-.233 1.078-.392.29-.15.532-.345.728-.588.196-.243.374-.546.532-.91l.364-.84-.014.294-3.052-7.196h.672l2.814 6.776h-.322l2.772-6.776h.672l-3.262 7.756a5.04 5.04 0 01-.546 1.008c-.196.28-.41.513-.644.7a2.79 2.79 0 01-.756.448 4.8 4.8 0 01-.896.266zm13.798-3.066c-.635 0-1.186-.145-1.652-.434-.467-.29-.826-.705-1.078-1.246-.252-.541-.378-1.185-.378-1.932 0-.756.126-1.4.378-1.932.261-.541.625-.957 1.092-1.246.466-.29 1.012-.434 1.638-.434.662 0 1.227.173 1.694.518.476.345.788.821.938 1.428h-.168l.14-1.834h.574l-.084.77c-.019.252-.028.5-.028.742V69.5h-.588v-1.834h.154c-.15.607-.462 1.083-.938 1.428-.476.345-1.041.518-1.694.518zm0-.546c.765 0 1.372-.261 1.82-.784.448-.532.672-1.293.672-2.282 0-.99-.224-1.745-.672-2.268-.448-.532-1.055-.798-1.82-.798-.766 0-1.377.266-1.834.798-.448.523-.672 1.279-.672 2.268 0 .99.224 1.75.672 2.282.457.523 1.068.784 1.834.784zm8.232.546c-.654 0-1.218-.145-1.694-.434a2.959 2.959 0 01-1.106-1.274c-.252-.55-.378-1.204-.378-1.96s.13-1.4.392-1.932c.261-.532.63-.933 1.106-1.204.476-.28 1.036-.42 1.68-.42.438 0 .858.089 1.26.266.41.168.751.406 1.022.714l-.294.448a2.833 2.833 0 00-.966-.672 2.74 2.74 0 00-1.036-.21c-.803 0-1.433.261-1.89.784-.448.513-.672 1.26-.672 2.24 0 .99.224 1.755.672 2.296.457.541 1.087.812 1.89.812a2.84 2.84 0 001.008-.196c.354-.14.686-.369.994-.686l.294.448c-.28.317-.63.56-1.05.728-.41.168-.822.252-1.232.252zm6.685 0c-.653 0-1.218-.145-1.694-.434a2.96 2.96 0 01-1.106-1.274c-.252-.55-.378-1.204-.378-1.96s.131-1.4.392-1.932c.262-.532.63-.933 1.106-1.204.476-.28 1.036-.42 1.68-.42.439 0 .859.089 1.26.266.411.168.752.406 1.022.714l-.294.448a2.83 2.83 0 00-.966-.672c-.345-.14-.69-.21-1.036-.21-.802 0-1.432.261-1.89.784-.448.513-.672 1.26-.672 2.24 0 .99.224 1.755.672 2.296.458.541 1.088.812 1.89.812.327 0 .663-.065 1.008-.196.355-.14.686-.369.994-.686l.294.448c-.28.317-.63.56-1.05.728-.41.168-.821.252-1.232.252zm6.868 0c-1.027 0-1.843-.313-2.45-.938-.607-.635-.91-1.517-.91-2.646 0-.747.135-1.39.406-1.932.27-.541.648-.961 1.134-1.26.494-.299 1.06-.448 1.694-.448.607 0 1.12.13 1.54.392.43.252.756.62.98 1.106.233.476.35 1.045.35 1.708v.378h-5.726v-.532h5.418l-.238.182c0-.84-.196-1.498-.588-1.974-.392-.485-.976-.728-1.75-.728-.822 0-1.465.28-1.932.84-.457.56-.686 1.293-.686 2.198v.07c0 .99.242 1.745.728 2.268.485.513 1.162.77 2.03.77.438 0 .85-.07 1.232-.21.383-.14.751-.378 1.106-.714l.294.462c-.29.317-.672.565-1.148.742-.476.177-.97.266-1.484.266zm6.874 0c-.523 0-1.017-.08-1.484-.238-.457-.168-.83-.397-1.12-.686l.294-.462c.336.29.7.504 1.092.644.392.13.807.196 1.246.196.635 0 1.12-.121 1.456-.364.336-.243.504-.574.504-.994 0-.327-.107-.588-.322-.784-.215-.205-.57-.36-1.064-.462l-1.218-.266c-.597-.14-1.04-.364-1.33-.672-.29-.308-.434-.69-.434-1.148 0-.383.098-.723.294-1.022.205-.299.495-.532.868-.7.383-.177.83-.266 1.344-.266.495 0 .947.084 1.358.252.42.168.756.401 1.008.7l-.308.462a2.725 2.725 0 00-.938-.644 2.792 2.792 0 00-1.12-.224c-.607 0-1.073.13-1.4.392-.317.261-.476.607-.476 1.036 0 .327.098.593.294.798.205.205.527.36.966.462l1.218.28c.635.15 1.106.369 1.414.658.308.28.462.653.462 1.12 0 .392-.107.733-.322 1.022-.215.29-.518.513-.91.672-.392.159-.85.238-1.372.238zm6.89 0c-.522 0-1.017-.08-1.483-.238-.458-.168-.831-.397-1.12-.686l.294-.462c.336.29.7.504 1.092.644.392.13.807.196 1.246.196.634 0 1.12-.121 1.456-.364.336-.243.504-.574.504-.994 0-.327-.108-.588-.322-.784-.215-.205-.57-.36-1.064-.462l-1.218-.266c-.598-.14-1.041-.364-1.33-.672-.29-.308-.434-.69-.434-1.148 0-.383.098-.723.294-1.022.205-.299.494-.532.868-.7.382-.177.83-.266 1.344-.266.494 0 .947.084 1.358.252.42.168.756.401 1.008.7l-.308.462a2.725 2.725 0 00-.938-.644 2.792 2.792 0 00-1.12-.224c-.607 0-1.074.13-1.4.392-.318.261-.476.607-.476 1.036 0 .327.098.593.294.798.205.205.527.36.966.462l1.218.28c.634.15 1.106.369 1.414.658.308.28.462.653.462 1.12 0 .392-.108.733-.322 1.022-.215.29-.518.513-.91.672-.392.159-.85.238-1.372.238zm-69.839 18c-.569 0-1.008-.177-1.316-.532-.298-.364-.448-.915-.448-1.652v-4.424H.69V80.5h1.4v-2.002l.588-.224V80.5h2.128v.504H2.678v4.298c0 .616.094 1.064.28 1.344.196.28.51.42.938.42.187 0 .355-.019.504-.056.15-.037.276-.08.378-.126v.56a1.673 1.673 0 01-.42.112 2.32 2.32 0 01-.504.056zm5.06 0c-.635 0-1.186-.145-1.653-.434-.466-.29-.826-.705-1.078-1.246-.252-.541-.378-1.185-.378-1.932 0-.747.126-1.39.378-1.932.252-.541.612-.957 1.078-1.246.467-.29 1.018-.434 1.652-.434.635 0 1.185.145 1.652.434.467.29.826.705 1.078 1.246.261.541.392 1.185.392 1.932 0 .747-.13 1.39-.392 1.932-.252.541-.611.957-1.078 1.246-.466.29-1.017.434-1.652.434zm0-.546c.765 0 1.376-.261 1.833-.784.457-.532.686-1.293.686-2.282 0-.99-.229-1.745-.686-2.268-.457-.532-1.068-.798-1.834-.798-.765 0-1.376.266-1.834.798-.448.523-.672 1.279-.672 2.268 0 .99.224 1.75.672 2.282.458.523 1.069.784 1.834.784zm11.685.546c-.672 0-1.24-.173-1.707-.518-.467-.345-.78-.821-.939-1.428h.155V87.5h-.588V77.196h.588v5.138h-.155c.16-.607.472-1.083.939-1.428.466-.345 1.035-.518 1.707-.518.635 0 1.181.145 1.639.434.466.29.826.705 1.078 1.246.252.532.378 1.176.378 1.932 0 .747-.131 1.39-.392 1.932-.253.541-.612.957-1.078 1.246-.458.29-1 .434-1.625.434zm-.014-.546c.766 0 1.372-.261 1.82-.784.458-.532.686-1.293.686-2.282 0-.99-.228-1.745-.686-2.268-.448-.532-1.054-.798-1.82-.798-.765 0-1.372.266-1.82.798-.448.523-.672 1.279-.672 2.268 0 .99.224 1.75.672 2.282.448.523 1.055.784 1.82.784zm5.097.434v-7h.588v7h-.588zm-.154-8.834v-.882h.896v.882h-.896zm5.806 8.946c-.625 0-1.17-.145-1.638-.434-.457-.29-.812-.705-1.064-1.246s-.378-1.185-.378-1.932c0-.756.126-1.4.378-1.932.252-.541.607-.957 1.064-1.246.467-.29 1.013-.434 1.638-.434.663 0 1.232.173 1.708.518.476.345.794.821.952 1.428h-.154v-5.138h.588V87.5h-.588v-1.834h.154c-.158.607-.476 1.083-.952 1.428s-1.045.518-1.708.518zm.014-.546c.756 0 1.363-.261 1.82-.784.458-.532.686-1.293.686-2.282 0-.99-.228-1.745-.686-2.268-.457-.532-1.064-.798-1.82-.798-.765 0-1.372.266-1.82.798-.448.523-.672 1.279-.672 2.268 0 .99.224 1.75.672 2.282.448.523 1.055.784 1.82.784zm7.729.546c-.523 0-1.018-.08-1.484-.238-.458-.168-.831-.397-1.12-.686l.294-.462c.335.29.7.504 1.091.644.393.13.808.196 1.247.196.634 0 1.12-.121 1.456-.364.336-.243.504-.574.504-.994 0-.327-.108-.588-.322-.784-.215-.205-.57-.36-1.065-.462l-1.217-.266c-.598-.14-1.041-.364-1.33-.672-.29-.308-.434-.69-.434-1.148 0-.383.097-.723.293-1.022.206-.299.495-.532.868-.7.383-.177.831-.266 1.345-.266.494 0 .947.084 1.357.252.42.168.756.401 1.008.7l-.307.462a2.724 2.724 0 00-.939-.644 2.791 2.791 0 00-1.12-.224c-.606 0-1.073.13-1.4.392-.317.261-.475.607-.475 1.036 0 .327.098.593.294.798.205.205.527.36.965.462l1.218.28c.635.15 1.106.369 1.414.658.308.28.462.653.462 1.12 0 .392-.107.733-.322 1.022-.214.29-.517.513-.91.672-.392.159-.849.238-1.371.238zm16.018 0a7.71 7.71 0 01-1.176-.812 8.866 8.866 0 01-.84-.84h.182a3.866 3.866 0 01-1.414 1.218c-.57.29-1.2.434-1.89.434-.635 0-1.176-.098-1.624-.294-.448-.196-.788-.467-1.022-.812-.233-.355-.35-.77-.35-1.246 0-.644.187-1.19.56-1.638.373-.457.92-.933 1.638-1.428l.448-.308-.07.112c-.466-.523-.803-.966-1.008-1.33a2.278 2.278 0 01-.308-1.134c0-.401.089-.751.266-1.05.187-.299.444-.532.77-.7.336-.177.728-.266 1.176-.266.56 0 1.032.168 1.414.504.392.327.588.78.588 1.358 0 .317-.065.616-.196.896-.13.28-.354.57-.672.868-.317.29-.765.62-1.344.994l.028-.182 2.94 3.304h-.154c.243-.392.434-.887.574-1.484.15-.607.229-1.25.238-1.932h.574a9.227 9.227 0 01-.294 2.17 6.722 6.722 0 01-.714 1.722l-.028-.252c.224.261.518.55.882.868.364.308.752.574 1.162.798l-.336.462zm-5.152-.546c.644 0 1.214-.13 1.708-.392a3.64 3.64 0 001.26-1.162v.252l-3.136-3.486h.196l-.462.322c-.457.317-.83.611-1.12.882a2.8 2.8 0 00-.644.812c-.13.27-.196.588-.196.952 0 .57.2 1.017.602 1.344.41.317 1.008.476 1.792.476zm.49-9.002c-.485 0-.877.135-1.176.406-.298.27-.448.63-.448 1.078 0 .224.038.434.112.63.075.187.2.401.378.644.187.233.439.532.756.896l-.21.056c.71-.467 1.223-.873 1.54-1.218.318-.355.476-.728.476-1.12 0-.41-.13-.742-.392-.994-.261-.252-.607-.378-1.036-.378zm12.156 9.548c-.635 0-1.185-.145-1.652-.434-.467-.29-.826-.705-1.078-1.246-.252-.541-.378-1.185-.378-1.932 0-.747.126-1.39.378-1.932.252-.541.611-.957 1.078-1.246.467-.29 1.017-.434 1.652-.434s1.185.145 1.652.434c.467.29.826.705 1.078 1.246.261.541.392 1.185.392 1.932 0 .747-.13 1.39-.392 1.932-.252.541-.611.957-1.078 1.246-.467.29-1.017.434-1.652.434zm0-.546c.765 0 1.377-.261 1.834-.784.457-.532.686-1.293.686-2.282 0-.99-.229-1.745-.686-2.268-.457-.532-1.069-.798-1.834-.798-.765 0-1.377.266-1.834.798-.448.523-.672 1.279-.672 2.268 0 .99.224 1.75.672 2.282.457.523 1.069.784 1.834.784zm5.318.434v-6.496h-1.4V80.5h1.54l-.14.154v-1.246c0-.719.173-1.274.518-1.666.355-.401.854-.602 1.498-.602.159 0 .327.019.504.056.177.028.317.065.42.112v.56a2.153 2.153 0 00-.392-.126 2.197 2.197 0 00-.504-.056c-.327 0-.602.07-.826.21-.215.14-.373.345-.476.616-.103.261-.154.593-.154.994v1.19l-.112-.196h2.17v.504h-2.058V87.5h-.588zm4.21 0v-6.496h-1.4V80.5h1.54l-.14.154v-1.246c0-.719.173-1.274.519-1.666.355-.401.854-.602 1.498-.602.159 0 .326.019.504.056.177.028.317.065.42.112v.56a2.15 2.15 0 00-.392-.126 2.196 2.196 0 00-.504-.056c-.327 0-.602.07-.826.21a1.23 1.23 0 00-.476.616c-.103.261-.154.593-.154.994v1.19l-.112-.196h2.17v.504h-2.058V87.5h-.588zm6.747.112c-1.026 0-1.843-.313-2.45-.938-.606-.635-.91-1.517-.91-2.646 0-.747.136-1.39.406-1.932.271-.541.65-.961 1.134-1.26.495-.299 1.06-.448 1.694-.448.607 0 1.12.13 1.54.392.43.252.756.62.98 1.106.234.476.35 1.045.35 1.708v.378h-5.726v-.532H81.3l-.238.182c0-.84-.196-1.498-.588-1.974-.392-.485-.975-.728-1.75-.728-.82 0-1.465.28-1.932.84-.457.56-.686 1.293-.686 2.198v.07c0 .99.243 1.745.728 2.268.486.513 1.162.77 2.03.77.44 0 .85-.07 1.232-.21.383-.14.752-.378 1.106-.714l.294.462c-.289.317-.672.565-1.148.742-.476.177-.97.266-1.484.266zm4.663-.112v-5.404c0-.261-.01-.527-.028-.798-.01-.27-.028-.537-.056-.798h.574l.084 1.526-.126.014c.093-.373.261-.681.504-.924.252-.243.536-.425.854-.546a2.763 2.763 0 011.288-.168c.112.01.214.028.308.056l-.028.546a1.504 1.504 0 00-.308-.056 3.737 3.737 0 00-.336-.014c-.43 0-.808.112-1.134.336a2.289 2.289 0 00-.742.812c-.178.317-.266.63-.266.938v4.48h-.588zm6.846.112c-.522 0-1.017-.08-1.484-.238-.457-.168-.83-.397-1.12-.686l.294-.462c.336.29.7.504 1.092.644.392.13.808.196 1.246.196.635 0 1.12-.121 1.456-.364.336-.243.504-.574.504-.994 0-.327-.107-.588-.322-.784-.214-.205-.569-.36-1.064-.462l-1.218-.266c-.597-.14-1.04-.364-1.33-.672-.289-.308-.434-.69-.434-1.148 0-.383.098-.723.294-1.022.206-.299.495-.532.868-.7.383-.177.831-.266 1.344-.266.495 0 .948.084 1.358.252.42.168.756.401 1.008.7l-.308.462a2.725 2.725 0 00-.938-.644 2.792 2.792 0 00-1.12-.224c-.606 0-1.073.13-1.4.392-.317.261-.476.607-.476 1.036 0 .327.098.593.294.798.206.205.528.36.966.462l1.218.28c.635.15 1.106.369 1.414.658.308.28.462.653.462 1.12 0 .392-.107.733-.322 1.022-.214.29-.518.513-.91.672-.392.159-.849.238-1.372.238zM3.63 105.5l-2.464-7h.658l2.338 6.804h-.378L6.22 98.5h.742l2.394 6.804h-.378l2.367-6.804h.643l-2.478 7h-.7l-2.422-6.874h.42L4.344 105.5H3.63zm10.184 0v-7h.588v7h-.588zm-.154-8.834v-.882h.896v.882h-.896zm5.247 8.946c-.57 0-1.008-.177-1.316-.532-.298-.364-.448-.915-.448-1.652v-4.424h-1.4V98.5h1.4v-2.002l.588-.224V98.5h2.128v.504h-2.128v4.298c0 .616.094 1.064.28 1.344.196.28.509.42.938.42a2.098 2.098 0 00.882-.182v.56a1.658 1.658 0 01-.42.112 2.338 2.338 0 01-.504.056zm2.495-.112V95.196h.588v4.998h-.168c.187-.597.518-1.045.994-1.344.476-.308 1.027-.462 1.652-.462.85 0 1.475.22 1.876.658.411.439.616 1.097.616 1.974v4.48h-.588v-4.424c0-.747-.149-1.288-.448-1.624-.298-.345-.784-.518-1.456-.518-.746 0-1.348.229-1.806.686-.448.457-.672 1.064-.672 1.82v4.06h-.588zm11.485 0v-5.488c0-.243-.014-.49-.042-.742a23.666 23.666 0 00-.07-.77h.574l.126 1.68h-.168c.196-.588.522-1.031.98-1.33.466-.308 1.012-.462 1.638-.462.83 0 1.456.215 1.876.644.429.43.644 1.101.644 2.016v4.452h-.588v-4.396c0-.756-.154-1.307-.462-1.652-.308-.345-.794-.518-1.456-.518-.756 0-1.358.229-1.806.686-.439.457-.658 1.073-.658 1.848v4.032h-.588zm10.616.112c-.635 0-1.185-.145-1.652-.434-.467-.289-.826-.705-1.078-1.246-.252-.541-.378-1.185-.378-1.932 0-.747.126-1.391.378-1.932.252-.541.611-.957 1.078-1.246.467-.29 1.017-.434 1.652-.434s1.185.145 1.652.434c.467.29.826.705 1.078 1.246.261.541.392 1.185.392 1.932 0 .747-.13 1.391-.392 1.932-.252.541-.611.957-1.078 1.246-.467.289-1.017.434-1.652.434zm0-.546c.765 0 1.377-.261 1.834-.784.457-.532.686-1.293.686-2.282 0-.989-.229-1.745-.686-2.268-.457-.532-1.069-.798-1.834-.798-.765 0-1.377.266-1.834.798-.448.523-.672 1.279-.672 2.268 0 .989.224 1.75.672 2.282.457.523 1.069.784 1.834.784zM3.994 123.612a4.57 4.57 0 01-1.484-.238c-.457-.168-.83-.397-1.12-.686l.294-.462c.336.289.7.504 1.092.644.392.131.808.196 1.246.196.635 0 1.12-.121 1.456-.364.336-.243.504-.574.504-.994 0-.327-.107-.588-.322-.784-.214-.205-.569-.359-1.064-.462l-1.218-.266c-.597-.14-1.04-.364-1.33-.672-.289-.308-.434-.691-.434-1.148 0-.383.098-.723.294-1.022.206-.299.495-.532.868-.7.383-.177.831-.266 1.344-.266.495 0 .948.084 1.358.252.42.168.756.401 1.008.7l-.308.462a2.73 2.73 0 00-.938-.644 2.797 2.797 0 00-1.12-.224c-.606 0-1.073.131-1.4.392-.317.261-.476.607-.476 1.036 0 .327.098.593.294.798.206.205.528.359.966.462l1.218.28c.635.149 1.106.369 1.414.658.308.28.462.653.462 1.12 0 .392-.107.733-.322 1.022-.214.289-.518.513-.91.672-.392.159-.849.238-1.372.238zm7.34 0c-.636 0-1.186-.145-1.653-.434-.467-.289-.826-.705-1.078-1.246-.252-.541-.378-1.185-.378-1.932 0-.747.126-1.391.378-1.932.252-.541.611-.957 1.078-1.246.467-.289 1.017-.434 1.652-.434s1.185.145 1.652.434c.467.289.826.705 1.078 1.246.261.541.392 1.185.392 1.932 0 .747-.13 1.391-.392 1.932-.252.541-.611.957-1.078 1.246-.467.289-1.017.434-1.652.434zm0-.546c.764 0 1.376-.261 1.833-.784.457-.532.686-1.293.686-2.282 0-.989-.229-1.745-.686-2.268-.457-.532-1.069-.798-1.834-.798-.765 0-1.377.266-1.834.798-.448.523-.672 1.279-.672 2.268 0 .989.224 1.75.672 2.282.457.523 1.069.784 1.834.784zm5.317.434v-6.496h-1.4v-.504h1.54l-.14.154v-1.246c0-.719.173-1.274.518-1.666.355-.401.854-.602 1.498-.602.159 0 .327.019.504.056.177.028.317.065.42.112v.56a2.105 2.105 0 00-.392-.126 2.213 2.213 0 00-.504-.056c-.327 0-.602.07-.826.21-.215.14-.373.345-.476.616-.103.261-.154.593-.154.994v1.19l-.112-.196h2.17v.504h-2.058v6.496h-.588zm5.838.112c-.57 0-1.008-.177-1.316-.532-.298-.364-.448-.915-.448-1.652v-4.424h-1.4v-.504h1.4v-2.002l.588-.224v2.226h2.128v.504h-2.128v4.298c0 .616.094 1.064.28 1.344.196.28.509.42.938.42a2.1 2.1 0 00.882-.182v.56a1.66 1.66 0 01-.42.112 2.338 2.338 0 01-.504.056zm4.384-.112l-2.464-7h.658l2.338 6.804h-.378l2.436-6.804h.742l2.394 6.804h-.378l2.366-6.804h.644l-2.478 7h-.7l-2.422-6.874h.42l-2.464 6.874h-.714zm12.679.112c-.635 0-1.185-.145-1.652-.434-.467-.289-.826-.705-1.078-1.246-.252-.541-.378-1.185-.378-1.932 0-.756.126-1.4.378-1.932.261-.541.625-.957 1.092-1.246.466-.289 1.012-.434 1.638-.434.663 0 1.227.173 1.694.518.476.345.788.821.938 1.428h-.168l.14-1.834h.574l-.084.77a10.02 10.02 0 00-.028.742v5.488h-.588v-1.834h.154c-.15.607-.462 1.083-.938 1.428-.476.345-1.04.518-1.694.518zm0-.546c.765 0 1.372-.261 1.82-.784.448-.532.672-1.293.672-2.282 0-.989-.224-1.745-.672-2.268-.448-.532-1.055-.798-1.82-.798-.766 0-1.377.266-1.834.798-.448.523-.672 1.279-.672 2.268 0 .989.224 1.75.672 2.282.457.523 1.068.784 1.834.784zm5.502.434v-5.404c0-.261-.01-.527-.028-.798-.01-.271-.028-.537-.056-.798h.574l.084 1.526-.126.014c.093-.373.261-.681.504-.924.252-.243.537-.425.854-.546a2.769 2.769 0 011.288-.168c.112.009.215.028.308.056l-.028.546a1.486 1.486 0 00-.308-.056 3.855 3.855 0 00-.336-.014c-.43 0-.807.112-1.134.336a2.287 2.287 0 00-.742.812c-.177.317-.266.63-.266.938v4.48h-.588zm7.547.112c-1.027 0-1.844-.313-2.45-.938-.607-.635-.91-1.517-.91-2.646 0-.747.135-1.391.406-1.932a3.04 3.04 0 011.134-1.26c.494-.299 1.06-.448 1.694-.448.606 0 1.12.131 1.54.392.43.252.756.621.98 1.106.233.476.35 1.045.35 1.708v.378h-5.726v-.532h5.418l-.238.182c0-.84-.196-1.498-.588-1.974-.392-.485-.976-.728-1.75-.728-.822 0-1.466.28-1.932.84-.458.56-.686 1.293-.686 2.198v.07c0 .989.242 1.745.728 2.268.485.513 1.162.77 2.03.77.438 0 .85-.07 1.232-.21.382-.14.751-.378 1.106-.714l.294.462c-.29.317-.672.565-1.148.742-.476.177-.97.266-1.484.266zm10.234 0c-.57 0-1.008-.177-1.316-.532-.299-.364-.448-.915-.448-1.652v-4.424h-1.4v-.504h1.4v-2.002l.588-.224v2.226h2.128v.504h-2.128v4.298c0 .616.093 1.064.28 1.344.196.28.509.42.938.42a2.1 2.1 0 00.882-.182v.56a1.66 1.66 0 01-.42.112 2.338 2.338 0 01-.504.056zm5.059 0c-.635 0-1.186-.145-1.652-.434-.467-.289-.826-.705-1.078-1.246-.252-.541-.378-1.185-.378-1.932 0-.747.126-1.391.378-1.932.252-.541.611-.957 1.078-1.246.466-.289 1.017-.434 1.652-.434.634 0 1.185.145 1.652.434.466.289.826.705 1.078 1.246.261.541.392 1.185.392 1.932 0 .747-.131 1.391-.392 1.932-.252.541-.612.957-1.078 1.246-.467.289-1.018.434-1.652.434zm0-.546c.765 0 1.376-.261 1.834-.784.457-.532.686-1.293.686-2.282 0-.989-.229-1.745-.686-2.268-.458-.532-1.069-.798-1.834-.798-.766 0-1.377.266-1.834.798-.448.523-.672 1.279-.672 2.268 0 .989.224 1.75.672 2.282.457.523 1.068.784 1.834.784zm-63.48 18.546c-.625 0-1.17-.145-1.638-.434-.457-.289-.812-.705-1.064-1.246s-.378-1.185-.378-1.932c0-.756.126-1.4.378-1.932.252-.541.607-.957 1.064-1.246.467-.289 1.013-.434 1.638-.434.663 0 1.232.173 1.708.518.476.345.794.821.952 1.428H6.92v-5.138h.588V141.5H6.92v-1.834h.154c-.158.607-.476 1.083-.952 1.428s-1.045.518-1.708.518zm.014-.546c.756 0 1.363-.261 1.82-.784.458-.532.686-1.293.686-2.282 0-.989-.228-1.745-.686-2.268-.457-.532-1.064-.798-1.82-.798-.765 0-1.372.266-1.82.798-.448.523-.672 1.279-.672 2.268 0 .989.224 1.75.672 2.282.448.523 1.055.784 1.82.784zm8.177.546c-.635 0-1.186-.145-1.652-.434-.467-.289-.826-.705-1.078-1.246-.252-.541-.378-1.185-.378-1.932 0-.747.126-1.391.378-1.932.252-.541.61-.957 1.078-1.246.466-.289 1.017-.434 1.652-.434.634 0 1.185.145 1.652.434.466.289.826.705 1.078 1.246.26.541.392 1.185.392 1.932 0 .747-.131 1.391-.392 1.932-.252.541-.612.957-1.078 1.246-.467.289-1.018.434-1.652.434zm0-.546c.765 0 1.376-.261 1.834-.784.457-.532.686-1.293.686-2.282 0-.989-.23-1.745-.686-2.268-.458-.532-1.07-.798-1.834-.798-.766 0-1.377.266-1.834.798-.448.523-.672 1.279-.672 2.268 0 .989.224 1.75.672 2.282.457.523 1.068.784 1.834.784zm6.857.434l-2.463-7h.658l2.337 6.804h-.378l2.436-6.804h.742l2.395 6.804h-.378l2.366-6.804h.643l-2.477 7h-.7l-2.422-6.874h.42l-2.464 6.874h-.715zm10.184 0v-5.488c0-.243-.014-.49-.042-.742a23.315 23.315 0 00-.07-.77h.574l.126 1.68h-.168c.196-.588.523-1.031.98-1.33.467-.308 1.013-.462 1.638-.462.831 0 1.456.215 1.876.644.43.429.644 1.101.644 2.016v4.452h-.588v-4.396c0-.756-.154-1.307-.462-1.652-.308-.345-.793-.518-1.456-.518-.756 0-1.358.229-1.806.686-.438.457-.658 1.073-.658 1.848v4.032h-.588zm7.985 0v-10.304h.588V141.5h-.588zm5.68.112c-.634 0-1.185-.145-1.651-.434-.467-.289-.826-.705-1.078-1.246-.252-.541-.378-1.185-.378-1.932 0-.747.126-1.391.378-1.932.252-.541.611-.957 1.078-1.246.466-.289 1.017-.434 1.652-.434.634 0 1.185.145 1.652.434.466.289.826.705 1.078 1.246.261.541.392 1.185.392 1.932 0 .747-.131 1.391-.392 1.932-.252.541-.612.957-1.078 1.246-.467.289-1.018.434-1.652.434zm0-.546c.766 0 1.377-.261 1.835-.784.457-.532.686-1.293.686-2.282 0-.989-.229-1.745-.686-2.268-.458-.532-1.069-.798-1.834-.798-.766 0-1.377.266-1.834.798-.448.523-.672 1.279-.672 2.268 0 .989.224 1.75.672 2.282.457.523 1.068.784 1.834.784zm7.739.546c-.635 0-1.185-.145-1.652-.434-.467-.289-.826-.705-1.078-1.246-.252-.541-.378-1.185-.378-1.932 0-.756.126-1.4.378-1.932.261-.541.625-.957 1.092-1.246.467-.289 1.013-.434 1.638-.434.663 0 1.227.173 1.694.518.476.345.789.821.938 1.428h-.168l.14-1.834h.574l-.084.77a10.02 10.02 0 00-.028.742v5.488h-.588v-1.834h.154c-.15.607-.462 1.083-.938 1.428-.476.345-1.04.518-1.694.518zm0-.546c.765 0 1.372-.261 1.82-.784.448-.532.672-1.293.672-2.282 0-.989-.224-1.745-.672-2.268-.448-.532-1.055-.798-1.82-.798-.765 0-1.377.266-1.834.798-.448.523-.672 1.279-.672 2.268 0 .989.224 1.75.672 2.282.457.523 1.069.784 1.834.784zm8.134.546c-.625 0-1.171-.145-1.638-.434-.457-.289-.812-.705-1.064-1.246s-.378-1.185-.378-1.932c0-.756.126-1.4.378-1.932.252-.541.607-.957 1.064-1.246.467-.289 1.013-.434 1.638-.434.663 0 1.232.173 1.708.518.476.345.793.821.952 1.428h-.154v-5.138h.588V141.5h-.588v-1.834h.154c-.159.607-.476 1.083-.952 1.428s-1.045.518-1.708.518zm.014-.546c.756 0 1.363-.261 1.82-.784.457-.532.686-1.293.686-2.282 0-.989-.229-1.745-.686-2.268-.457-.532-1.064-.798-1.82-.798-.765 0-1.372.266-1.82.798-.448.523-.672 1.279-.672 2.268 0 .989.224 1.75.672 2.282.448.523 1.055.784 1.82.784zm5.306.434v-.98h.966v.98h-.966zM2.262 164.31c-.3 0-.568-.038-.804-.116a1.918 1.918 0 01-.619-.333l.159-.349c.123.091.247.169.37.232.127.06.263.106.407.138.145.028.307.042.487.042.314 0 .547-.058.698-.174a.559.559 0 00.228-.466.469.469 0 00-.159-.381c-.106-.088-.29-.158-.555-.211l-.556-.111c-.342-.071-.597-.185-.767-.344-.165-.159-.248-.374-.248-.645 0-.222.056-.416.169-.582.116-.166.279-.295.487-.386.208-.092.45-.138.724-.138.265 0 .506.041.725.122.218.077.405.192.56.344l-.153.338a1.54 1.54 0 00-.524-.317 1.749 1.749 0 00-.613-.101c-.29 0-.518.064-.688.191a.597.597 0 00-.248.508.53.53 0 00.158.407c.106.095.28.167.524.217l.56.111c.36.074.625.185.794.333.17.148.254.356.254.624a.917.917 0 01-.17.545c-.109.159-.266.282-.47.37a1.839 1.839 0 01-.73.132zm2.962 0c-.26 0-.46-.074-.597-.222-.138-.151-.206-.379-.206-.682v-1.465h-.519v-.333h.519v-.725l.428-.122v.847h.762v.333h-.762v1.417c0 .212.035.363.106.455.074.088.183.132.328.132a.974.974 0 00.18-.015c.052-.015.1-.03.142-.048v.36a.72.72 0 01-.18.047.98.98 0 01-.2.021zm1.972 0c-.254 0-.476-.054-.667-.164a1.127 1.127 0 01-.433-.476 1.648 1.648 0 01-.154-.735c0-.285.052-.531.154-.735.102-.205.247-.361.433-.471.19-.113.413-.169.667-.169.257 0 .48.056.666.169.19.11.337.266.44.471.105.204.158.45.158.735 0 .282-.053.527-.159.735a1.117 1.117 0 01-.439.476 1.29 1.29 0 01-.666.164zm0-.349c.254 0 .455-.086.603-.259.148-.176.222-.432.222-.767 0-.338-.076-.594-.227-.767a.74.74 0 00-.598-.264.74.74 0 00-.598.264c-.148.173-.222.429-.222.767 0 .335.074.591.222.767a.746.746 0 00.598.259zm1.932.302v-2.042c0-.099-.005-.199-.016-.301a8.499 8.499 0 00-.026-.312h.412l.053.581h-.063a.911.911 0 01.37-.465c.173-.109.372-.164.598-.164.313 0 .55.085.708.254.163.166.244.428.244.788v1.661h-.429v-1.635c0-.25-.05-.432-.153-.544-.099-.117-.254-.175-.466-.175-.246 0-.442.076-.587.227-.144.152-.217.355-.217.609v1.518h-.428zm4.279.047c-.416 0-.744-.12-.984-.359-.24-.244-.36-.58-.36-1.011 0-.278.053-.52.159-.724.106-.208.254-.369.444-.482.19-.116.41-.174.656-.174.243 0 .448.051.614.153a.996.996 0 01.38.439c.088.187.133.409.133.667v.158H12.39v-.269h1.777l-.09.068c0-.282-.063-.502-.19-.661-.127-.158-.316-.238-.566-.238-.264 0-.47.094-.619.281-.148.183-.222.432-.222.745v.048c0 .331.081.584.243.756.166.17.397.254.693.254.159 0 .307-.023.444-.069.142-.049.276-.128.402-.238l.149.302a1.193 1.193 0 01-.445.264c-.176.06-.363.09-.56.09zm1.745-.047v-3.729h.439v1.65h2.248v-1.65h.433v3.729h-.433v-1.703H15.59v1.703h-.44zm5.181.047c-.416 0-.744-.12-.984-.359-.24-.244-.36-.58-.36-1.011 0-.278.054-.52.16-.724.105-.208.253-.369.444-.482.19-.116.409-.174.656-.174.243 0 .447.051.613.153a.996.996 0 01.381.439c.088.187.132.409.132.667v.158h-2.057v-.269h1.777l-.09.068c0-.282-.063-.502-.19-.661-.127-.158-.316-.238-.566-.238-.265 0-.471.094-.62.281-.147.183-.221.432-.221.745v.048c0 .331.08.584.243.756.166.17.397.254.693.254.159 0 .307-.023.444-.069a1.23 1.23 0 00.402-.238l.148.302a1.193 1.193 0 01-.444.264c-.176.06-.363.09-.56.09zm2.703 0c-.233 0-.438-.054-.614-.164a1.129 1.129 0 01-.412-.476 1.727 1.727 0 01-.143-.735c0-.289.047-.536.143-.74.098-.205.236-.362.412-.471.177-.109.381-.164.614-.164.24 0 .446.06.619.18.176.12.294.282.354.486h-.064v-1.856h.429v3.893h-.423v-.635h.058a.863.863 0 01-.35.502c-.175.12-.383.18-.623.18zm.09-.349c.25 0 .451-.086.603-.259.151-.176.227-.432.227-.767 0-.338-.076-.594-.227-.767a.756.756 0 00-.603-.264.756.756 0 00-.603.264c-.148.173-.223.429-.223.767 0 .335.075.591.223.767a.762.762 0 00.603.259zm3.245 1.481c-.229 0-.44-.028-.635-.084a1.619 1.619 0 01-.523-.26l.127-.322c.11.077.217.139.322.185.106.046.216.079.328.1.113.025.233.037.36.037.26 0 .458-.068.592-.206.134-.137.201-.333.201-.587v-.777h.053a.867.867 0 01-.349.497c-.176.12-.382.18-.619.18-.243 0-.455-.053-.634-.159a1.114 1.114 0 01-.413-.46 1.643 1.643 0 01-.143-.709c0-.268.048-.501.143-.698.099-.198.236-.349.413-.455.18-.109.391-.164.634-.164.24 0 .446.06.62.18.175.12.292.285.348.497l-.053-.053.048-.576h.418a4.39 4.39 0 00-.043.613v2.026c0 .395-.102.693-.306.894-.201.201-.497.301-.889.301zm-.063-1.587c.257 0 .46-.084.608-.253.148-.173.222-.415.222-.725s-.074-.55-.222-.719c-.148-.17-.35-.254-.608-.254a.774.774 0 00-.609.254c-.151.169-.227.409-.227.719s.076.552.227.725a.777.777 0 00.609.253zm3.26.455c-.415 0-.743-.12-.983-.359-.24-.244-.36-.58-.36-1.011 0-.278.053-.52.159-.724.106-.208.254-.369.444-.482.19-.116.41-.174.656-.174.243 0 .448.051.614.153a.995.995 0 01.38.439c.089.187.133.409.133.667v.158h-2.058v-.269h1.777l-.09.068c0-.282-.063-.502-.19-.661-.127-.158-.316-.238-.566-.238-.264 0-.47.094-.619.281-.148.183-.222.432-.222.745v.048c0 .331.081.584.243.756.166.17.397.254.693.254.159 0 .307-.023.445-.069.14-.049.275-.128.401-.238l.149.302a1.192 1.192 0 01-.445.264c-.176.06-.363.09-.56.09zm3.077-.047v-2.655h.429v2.655h-.429zm-.053-3.258v-.482h.53v.482h-.53zm2.197 3.305c-.212 0-.41-.028-.592-.084a1.276 1.276 0 01-.455-.249l.148-.301c.13.102.271.178.423.227.155.049.316.074.481.074.212 0 .37-.037.476-.111a.369.369 0 00.164-.317.303.303 0 00-.105-.244c-.068-.063-.179-.112-.334-.148l-.492-.1c-.225-.05-.395-.132-.507-.249a.637.637 0 01-.17-.455c0-.155.04-.291.122-.407.081-.12.2-.213.354-.28.156-.071.337-.106.545-.106.194 0 .372.03.534.09.166.056.304.139.413.248l-.153.297a1.011 1.011 0 00-.365-.228 1.126 1.126 0 00-.418-.079c-.208 0-.365.042-.471.127a.39.39 0 00-.153.322c0 .103.031.187.095.254.067.064.17.111.307.143l.491.101c.24.053.418.135.535.248.12.11.18.258.18.445a.686.686 0 01-.133.417.837.837 0 01-.37.27 1.438 1.438 0 01-.55.095zm4.13 0c-.236 0-.443-.054-.619-.164a1.128 1.128 0 01-.412-.476 1.727 1.727 0 01-.143-.735c0-.289.047-.536.143-.74.098-.205.236-.362.412-.471.176-.109.383-.164.619-.164.24 0 .446.062.619.185.176.12.293.284.349.492h-.064l.059-.629h.412l-.032.312a4.39 4.39 0 00-.01.301v2.042h-.429v-.624h.059a.838.838 0 01-.35.491c-.176.12-.38.18-.613.18zm.085-.349c.254 0 .455-.086.603-.259.148-.176.222-.432.222-.767 0-.338-.074-.594-.222-.767a.747.747 0 00-.603-.264.757.757 0 00-.603.264c-.149.173-.223.429-.223.767 0 .335.075.591.223.767a.762.762 0 00.603.259zm3.455 1.444v-3.184c0-.099-.005-.199-.016-.301a8.327 8.327 0 00-.026-.312h.413l.058.629h-.064a.85.85 0 01.344-.492c.173-.123.38-.185.619-.185.24 0 .446.055.619.164.176.109.314.266.412.471.099.204.148.451.148.74 0 .286-.049.531-.148.735a1.094 1.094 0 01-.407.476c-.176.11-.384.164-.624.164-.236 0-.44-.06-.614-.18a.846.846 0 01-.343-.491h.058v1.766h-.429zm1.243-1.444c.254 0 .455-.086.603-.259.152-.176.228-.432.228-.767 0-.338-.076-.594-.228-.767a.747.747 0 00-.603-.264.756.756 0 00-.603.264c-.148.173-.222.429-.222.767 0 .335.074.591.222.767a.762.762 0 00.603.259zm1.918.302v-2.015c0-.106-.003-.214-.01-.323a4.517 4.517 0 00-.021-.317H46l.053.645-.074.005a.874.874 0 01.185-.391.919.919 0 01.688-.307c.053 0 .098.002.137.005a.422.422 0 01.116.027l-.005.38a.624.624 0 00-.148-.031.913.913 0 00-.148-.011.743.743 0 00-.407.111.75.75 0 00-.344.656v1.566h-.434zm2.99.047c-.253 0-.475-.054-.666-.164a1.127 1.127 0 01-.433-.476 1.648 1.648 0 01-.154-.735c0-.285.051-.531.154-.735.102-.205.246-.361.433-.471a1.28 1.28 0 01.667-.169c.257 0 .48.056.666.169.19.11.337.266.44.471.105.204.158.45.158.735 0 .282-.053.527-.159.735a1.117 1.117 0 01-.439.476 1.29 1.29 0 01-.666.164zm0-.349c.255 0 .456-.086.604-.259.148-.176.222-.432.222-.767 0-.338-.076-.594-.227-.767a.74.74 0 00-.598-.264c-.25 0-.45.088-.598.264-.148.173-.222.429-.222.767 0 .335.074.591.222.767a.746.746 0 00.598.259zm2.938.349c-.233 0-.437-.054-.614-.164a1.129 1.129 0 01-.412-.476 1.727 1.727 0 01-.143-.735c0-.289.047-.536.143-.74.099-.205.236-.362.412-.471.177-.109.381-.164.614-.164.24 0 .446.06.619.18.176.12.294.282.354.486h-.063v-1.856h.428v3.893h-.423v-.635h.058a.863.863 0 01-.349.502c-.176.12-.384.18-.624.18zm.09-.349c.25 0 .451-.086.603-.259.151-.176.227-.432.227-.767 0-.338-.076-.594-.227-.767a.756.756 0 00-.603-.264.756.756 0 00-.603.264c-.148.173-.222.429-.222.767 0 .335.074.591.222.767a.762.762 0 00.603.259zm3.013.349c-.314 0-.552-.086-.715-.259-.158-.173-.237-.437-.237-.793v-1.65h.428v1.639c0 .244.05.423.148.54.099.113.252.169.46.169.233 0 .42-.076.56-.227.142-.152.212-.355.212-.609v-1.512h.429v2.655h-.418v-.598h.069a.946.946 0 01-.36.476.983.983 0 01-.576.169zm3.232 0c-.26 0-.488-.056-.682-.169a1.152 1.152 0 01-.445-.481 1.664 1.664 0 01-.153-.741c0-.289.053-.534.159-.735.105-.204.254-.36.444-.465a1.39 1.39 0 01.677-.159c.17 0 .333.03.492.09.162.06.296.144.402.254l-.154.307a1.03 1.03 0 00-.349-.228.985.985 0 00-.364-.074c-.275 0-.489.086-.64.259-.152.173-.228.425-.228.757 0 .327.076.581.227.761.152.18.366.27.64.27a1.027 1.027 0 00.715-.296l.153.301c-.11.113-.245.199-.407.259-.163.06-.325.09-.487.09zm2.444 0c-.26 0-.46-.074-.597-.222-.138-.151-.207-.379-.207-.682v-1.465h-.518v-.333h.518v-.725l.429-.122v.847h.761v.333h-.761v1.417c0 .212.035.363.105.455.075.088.184.132.328.132a.973.973 0 00.18-.015c.053-.015.1-.03.143-.048v.36a.72.72 0 01-.18.047.98.98 0 01-.2.021zm3.62 0c-.24 0-.446-.06-.619-.18a.896.896 0 01-.349-.502h.058v.635h-.423v-3.893h.428v1.856h-.063a.875.875 0 01.35-.486c.172-.12.378-.18.618-.18s.446.056.619.169c.176.11.312.266.407.471.099.204.148.45.148.735 0 .286-.05.531-.148.735a1.129 1.129 0 01-.412.476c-.173.11-.378.164-.614.164zm-.09-.349c.25 0 .451-.086.603-.259.152-.173.227-.428.227-.767 0-.338-.075-.594-.227-.767a.756.756 0 00-.603-.264.756.756 0 00-.603.264c-.148.173-.222.429-.222.767 0 .335.074.591.222.767a.762.762 0 00.603.259zm1.787 1.502l-.1-.354c.165-.039.302-.085.412-.138a.775.775 0 00.28-.201c.074-.084.138-.19.19-.317l.138-.312-.01.18-1.159-2.713h.465l.958 2.332h-.138l.947-2.332h.45l-1.227 2.877c-.071.169-.149.31-.233.423a1.22 1.22 0 01-.275.28 1.152 1.152 0 01-.318.175 2.269 2.269 0 01-.38.1zm5.558-1.153c-.3 0-.567-.038-.803-.116a1.918 1.918 0 01-.62-.333l.16-.349c.123.091.246.169.37.232.127.06.262.106.407.138.145.028.307.042.487.042.313 0 .546-.058.698-.174a.559.559 0 00.227-.466.469.469 0 00-.159-.381c-.105-.088-.29-.158-.555-.211l-.555-.111c-.342-.071-.598-.185-.767-.344-.166-.159-.249-.374-.249-.645 0-.222.057-.416.17-.582.116-.166.278-.295.486-.386.208-.092.45-.138.725-.138.264 0 .506.041.724.122.219.077.406.192.56.344l-.152.338a1.54 1.54 0 00-.524-.317 1.749 1.749 0 00-.614-.101c-.289 0-.518.064-.687.191a.597.597 0 00-.249.508.53.53 0 00.159.407c.106.095.28.167.523.217l.561.111c.36.074.624.185.793.333.17.148.254.356.254.624a.917.917 0 01-.169.545c-.11.159-.266.282-.47.37a1.839 1.839 0 01-.73.132zm2.963 0c-.261 0-.46-.074-.598-.222-.137-.151-.206-.379-.206-.682v-1.465h-.518v-.333h.518v-.725l.428-.122v.847h.762v.333h-.762v1.417c0 .212.036.363.106.455.074.088.184.132.328.132a.975.975 0 00.18-.015c.053-.015.1-.03.143-.048v.36a.72.72 0 01-.18.047.98.98 0 01-.201.021zm1.971 0c-.254 0-.476-.054-.666-.164a1.128 1.128 0 01-.434-.476 1.65 1.65 0 01-.153-.735c0-.285.051-.531.153-.735.102-.205.247-.361.434-.471.19-.113.412-.169.666-.169.258 0 .48.056.667.169.19.11.337.266.439.471.106.204.158.45.158.735 0 .282-.052.527-.158.735a1.117 1.117 0 01-.44.476 1.29 1.29 0 01-.666.164zm0-.349c.254 0 .455-.086.603-.259.148-.176.222-.432.222-.767 0-.338-.075-.594-.227-.767a.741.741 0 00-.598-.264.74.74 0 00-.597.264c-.148.173-.222.429-.222.767 0 .335.074.591.222.767a.746.746 0 00.597.259zm1.933.302v-2.042c0-.099-.006-.199-.016-.301a8.773 8.773 0 00-.027-.312h.413l.053.581h-.064a.911.911 0 01.37-.465c.173-.109.372-.164.598-.164.314 0 .55.085.709.254.162.166.243.428.243.788v1.661h-.428v-1.635c0-.25-.051-.432-.154-.544-.098-.117-.254-.175-.465-.175-.247 0-.443.076-.587.227-.145.152-.217.355-.217.609v1.518h-.428zm4.278.047c-.416 0-.744-.12-.984-.359-.24-.244-.36-.58-.36-1.011 0-.278.053-.52.16-.724.105-.208.253-.369.444-.482.19-.116.409-.174.656-.174.243 0 .447.051.613.153a.994.994 0 01.38.439c.089.187.133.409.133.667v.158h-2.057v-.269h1.777l-.09.068c0-.282-.064-.502-.19-.661-.127-.158-.316-.238-.566-.238-.265 0-.471.094-.62.281-.147.183-.222.432-.222.745v.048c0 .331.082.584.244.756.165.17.396.254.693.254.158 0 .306-.023.444-.069a1.23 1.23 0 00.402-.238l.148.302a1.193 1.193 0 01-.444.264c-.177.06-.363.09-.56.09zm1.327-.047l1.487-1.989v.164l-1.418-1.904h.519l1.163 1.592h-.137l1.153-1.592h.523l-1.422 1.904v-.164l1.486 1.989h-.519l-1.243-1.688h.17l-1.243 1.688h-.519zm-82.628 7v-3.729h2.327v.36H1.485v1.306h1.771v.36H1.485v1.703h-.44zm2.922 0v-2.655h.428v2.655h-.428zm-.053-3.258v-.482h.529v.482h-.529zm1.313 3.258v-2.042c0-.099-.005-.199-.016-.301a8.477 8.477 0 00-.026-.312h.412l.053.581h-.063a.911.911 0 01.37-.465c.173-.109.372-.164.598-.164.314 0 .55.085.709.254.162.166.243.428.243.788v1.661h-.429v-1.635c0-.25-.05-.432-.153-.544-.099-.117-.254-.175-.465-.175-.247 0-.443.076-.587.227-.145.152-.217.355-.217.609v1.518h-.429zm4.11.047c-.237 0-.443-.054-.62-.164a1.128 1.128 0 01-.412-.476 1.727 1.727 0 01-.143-.735c0-.289.048-.536.143-.74.099-.205.237-.362.413-.471.176-.109.382-.164.619-.164.24 0 .446.062.618.185.177.12.293.284.35.492h-.064l.058-.629h.413l-.032.312c-.007.102-.01.202-.01.301v2.042h-.429v-.624h.058a.838.838 0 01-.349.491c-.176.12-.38.18-.613.18zm.084-.349c.254 0 .455-.086.603-.259.148-.176.222-.432.222-.767 0-.338-.074-.594-.222-.767a.747.747 0 00-.603-.264.756.756 0 00-.603.264c-.148.173-.222.429-.222.767 0 .335.074.591.222.767a.762.762 0 00.603.259zm2.077.302v-2.042c0-.099-.005-.199-.016-.301a8.542 8.542 0 00-.027-.312h.413l.053.581h-.064a.911.911 0 01.37-.465c.174-.109.373-.164.598-.164.314 0 .55.085.71.254.161.166.242.428.242.788v1.661h-.428v-1.635c0-.25-.051-.432-.153-.544-.099-.117-.254-.175-.466-.175-.247 0-.442.076-.587.227-.144.152-.217.355-.217.609v1.518H11.5zm4.215.047c-.26 0-.488-.056-.682-.169a1.152 1.152 0 01-.445-.481 1.664 1.664 0 01-.153-.741c0-.289.053-.534.159-.735.105-.204.254-.36.444-.465a1.39 1.39 0 01.677-.159c.17 0 .333.03.492.09.162.06.296.144.402.254l-.154.307a1.03 1.03 0 00-.349-.228.985.985 0 00-.364-.074c-.276 0-.489.086-.64.259-.152.173-.228.425-.228.757 0 .327.076.581.228.761.151.18.364.27.64.27a1.027 1.027 0 00.713-.296l.154.301c-.11.113-.245.199-.407.259-.163.06-.325.09-.487.09zm1.503-.047v-2.655h.428v2.655h-.428zm-.053-3.258v-.482h.529v.482h-.53zm2.323 3.305c-.236 0-.442-.054-.618-.164a1.129 1.129 0 01-.413-.476 1.727 1.727 0 01-.143-.735c0-.289.048-.536.143-.74.099-.205.236-.362.413-.471.176-.109.382-.164.618-.164.24 0 .446.062.62.185.175.12.292.284.348.492h-.063l.058-.629h.413l-.032.312c-.007.102-.01.202-.01.301v2.042h-.43v-.624h.059a.838.838 0 01-.35.491c-.175.12-.38.18-.613.18zm.085-.349c.254 0 .455-.086.603-.259.148-.176.222-.432.222-.767 0-.338-.074-.594-.222-.767a.747.747 0 00-.603-.264.756.756 0 00-.603.264c-.148.173-.222.429-.222.767 0 .335.074.591.222.767a.762.762 0 00.603.259zm2.077.302v-3.893h.428v3.893h-.428zm2.687 0v-3.729h.439v3.729h-.44zm1.32 0v-2.042c0-.099-.005-.199-.015-.301a8.544 8.544 0 00-.026-.312h.412l.053.581h-.064a.911.911 0 01.37-.465c.174-.109.373-.164.598-.164.314 0 .55.085.71.254.161.166.242.428.242.788v1.661h-.428v-1.635c0-.25-.051-.432-.153-.544-.1-.117-.254-.175-.466-.175-.247 0-.442.076-.587.227-.145.152-.217.355-.217.609v1.518h-.428zm4.216.047c-.261 0-.488-.056-.682-.169a1.152 1.152 0 01-.445-.481 1.664 1.664 0 01-.153-.741c0-.289.053-.534.159-.735.105-.204.253-.36.444-.465a1.39 1.39 0 01.677-.159c.17 0 .333.03.492.09.162.06.296.144.402.254l-.154.307a1.03 1.03 0 00-.349-.228.985.985 0 00-.365-.074c-.275 0-.488.086-.64.259-.151.173-.227.425-.227.757 0 .327.076.581.227.761.152.18.365.27.64.27a1.027 1.027 0 00.714-.296l.154.301c-.11.113-.245.199-.407.259-.163.06-.325.09-.487.09zm1.47-.047v-.54h.54v.54h-.54zm2.25-1.312v-.28h2.67v.28h-2.67zm4.514 1.312v-3.729h2.327v.36h-1.888v1.306h1.772v.36h-1.772v1.703h-.439zm4.506.047c-.374 0-.691-.077-.952-.232a1.55 1.55 0 01-.603-.662c-.137-.285-.206-.625-.206-1.02s.069-.734.206-1.016c.141-.286.342-.506.603-.661.261-.155.578-.233.952-.233.265 0 .5.041.709.122.208.081.39.199.545.354l-.164.349a1.798 1.798 0 00-.503-.322 1.469 1.469 0 00-.582-.106c-.426 0-.75.132-.973.397-.222.264-.333.636-.333 1.116 0 .479.111.853.333 1.121.222.264.547.397.973.397.223 0 .416-.034.582-.101.166-.07.333-.181.503-.333l.164.354c-.155.152-.337.27-.545.355a1.942 1.942 0 01-.709.121zm1.997-.047v-3.729h.381l1.497 3.38h-.153l1.496-3.38h.381v3.729h-.402V168.1h.159l-1.412 3.163h-.291l-1.418-3.163h.159v3.163h-.397zm5.914 0v-3.729h1.238c.413 0 .762.072 1.047.217.286.141.503.351.65.629.149.275.223.614.223 1.016 0 .398-.074.737-.222 1.015-.148.279-.365.49-.65.635-.286.144-.635.217-1.048.217h-1.238zm.44-.376h.766c.508 0 .885-.123 1.132-.37.247-.25.37-.624.37-1.121 0-.501-.123-.875-.37-1.122-.247-.247-.624-.37-1.132-.37h-.767v2.983zm3.464.376v-2.655h.429v2.655h-.429zm-.053-3.258v-.482h.53v.482h-.53zm2.096 3.258l-1.137-2.655h.466l.952 2.337h-.143l.962-2.337h.445l-1.137 2.655h-.408zm2.027 0v-2.655h.429v2.655h-.429zm-.053-3.258v-.482h.53v.482h-.53zm2.197 3.305c-.212 0-.409-.028-.592-.084a1.276 1.276 0 01-.455-.249l.148-.301c.13.102.271.178.423.227.155.049.316.074.481.074.212 0 .37-.037.476-.111a.369.369 0 00.164-.317.303.303 0 00-.105-.244c-.067-.063-.179-.112-.334-.148l-.492-.1c-.225-.05-.395-.132-.507-.249a.637.637 0 01-.17-.455c0-.155.04-.291.122-.407.081-.12.2-.213.354-.28.155-.071.337-.106.545-.106.194 0 .372.03.534.09.166.056.304.139.413.248l-.153.297a1.011 1.011 0 00-.365-.228 1.126 1.126 0 00-.418-.079c-.208 0-.365.042-.471.127a.39.39 0 00-.153.322c0 .103.031.187.095.254.067.064.17.111.307.143l.492.101c.24.053.417.135.534.248.12.11.18.258.18.445a.685.685 0 01-.133.417.836.836 0 01-.37.27 1.438 1.438 0 01-.55.095zm1.74-.047v-2.655h.43v2.655h-.43zm-.052-3.258v-.482h.529v.482h-.53zm2.402 3.305c-.253 0-.475-.054-.666-.164a1.127 1.127 0 01-.434-.476 1.648 1.648 0 01-.153-.735c0-.285.051-.531.153-.735.103-.205.247-.361.434-.471a1.28 1.28 0 01.666-.169c.258 0 .48.056.667.169.19.11.337.266.439.471.106.204.159.45.159.735 0 .282-.053.527-.159.735a1.117 1.117 0 01-.439.476 1.29 1.29 0 01-.666.164zm0-.349c.254 0 .455-.086.604-.259.148-.176.222-.432.222-.767 0-.338-.076-.594-.228-.767a.74.74 0 00-.597-.264c-.25 0-.45.088-.598.264-.148.173-.222.429-.222.767 0 .335.074.591.222.767a.746.746 0 00.597.259zm1.933.302v-2.042c0-.099-.006-.199-.016-.301a8.542 8.542 0 00-.027-.312h.413l.053.581h-.064a.912.912 0 01.37-.465c.173-.109.373-.164.598-.164.314 0 .55.085.709.254.162.166.243.428.243.788v1.661h-.428v-1.635c0-.25-.051-.432-.153-.544-.1-.117-.254-.175-.466-.175-.247 0-.442.076-.587.227-.145.152-.217.355-.217.609v1.518h-.428z" fill="#000"/></svg>