<svg width="210" height="27" viewBox="0 0 210 27" fill="none" xmlns="http://www.w3.org/2000/svg"><path d="M4.572 26l2.34-6.228h10.332L19.62 26h4.428L14.652.8H9.72L.288 26h4.284zM12.06 5.264l4.032 10.98H8.064l3.996-10.98zM26.236 26h3.888V.8h-3.888V26zM55.14 7.352c-3.024 0-5.112 1.332-6.3 3.348-1.116-2.376-3.276-3.348-5.688-3.348-2.772.036-4.356 1.26-5.4 2.628l-.432-2.412h-3.384V26h3.888v-9.864c0-3.276 1.656-5.436 4.32-5.436 2.556 0 3.888 1.692 3.888 4.932V26h3.924v-9.972c0-3.312 1.692-5.328 4.356-5.328 2.52 0 3.852 1.692 3.852 4.932V26h3.888V15.38c0-5.832-3.096-8.028-6.912-8.028zm19.008 18.864c5.616 0 9.396-3.78 9.396-9.432 0-5.616-3.78-9.432-9.396-9.432-5.616 0-9.396 3.816-9.396 9.432 0 5.652 3.78 9.432 9.396 9.432zm0-3.312c-3.276 0-5.4-2.556-5.4-6.12s2.124-6.12 5.4-6.12c3.276 0 5.436 2.556 5.436 6.12s-2.16 6.12-5.436 6.12zm11.625-2.988c.108 3.996 3.492 6.3 8.424 6.3 4.464 0 7.812-2.232 7.812-5.76 0-4.104-3.42-4.968-7.632-5.472-2.664-.288-4.428-.504-4.428-2.232 0-1.476 1.512-2.412 3.816-2.412s3.888 1.188 4.104 2.88h3.816c-.252-3.78-3.456-5.868-7.992-5.868-4.428-.036-7.56 2.232-7.56 5.724 0 3.816 3.312 4.716 7.524 5.22 2.844.36 4.536.504 4.536 2.484 0 1.476-1.584 2.412-3.996 2.412-2.808 0-4.464-1.368-4.608-3.276h-3.816zm20.581 1.08c0 3.348 1.512 5.004 5.04 5.004h3.6v-3.42h-2.736c-1.476 0-1.98-.54-1.98-1.98v-9.612h4.5v-3.42h-4.5V2.42h-3.924v5.148h-3.204v3.42h3.204v10.008zm21.657 0c0 3.348 1.512 5.004 5.04 5.004h3.6v-3.42h-2.736c-1.476 0-1.98-.54-1.98-1.98v-9.612h4.5v-3.42h-4.5V2.42h-3.924v5.148h-3.204v3.42h3.204v10.008zm20.797-13.644c-2.88 0-4.644 1.296-5.796 2.88V.8h-3.888V26h3.888v-9.324c0-3.708 1.872-5.976 4.932-5.976 2.88 0 4.428 1.872 4.428 5.364V26h3.888V15.74c0-6.156-3.348-8.388-7.452-8.388zm19.595 18.864c4.572 0 7.668-2.772 8.316-6.408h-3.888c-.54 2.052-2.268 3.24-4.644 3.24-3.06 0-5.04-2.052-5.148-5.184v-.252h13.896c.072-.504.108-1.008.108-1.476-.108-5.4-3.672-8.784-9-8.784-5.436 0-9.072 3.78-9.072 9.468 0 5.652 3.636 9.396 9.432 9.396zm-5.22-11.448c.288-2.628 2.412-4.284 4.896-4.284 2.7 0 4.608 1.548 4.932 4.284h-9.828zm26.327-7.2c-3.024 0-4.5 1.224-5.436 2.772l-.432-2.772h-3.456V26h3.888v-9.252c0-2.844 1.116-5.544 4.572-5.544h1.728V7.568h-.864zm11.131 18.648c4.572 0 7.668-2.772 8.316-6.408h-3.888c-.54 2.052-2.268 3.24-4.644 3.24-3.06 0-5.04-2.052-5.148-5.184v-.252h13.896c.072-.504.108-1.008.108-1.476-.108-5.4-3.672-8.784-9-8.784-5.436 0-9.072 3.78-9.072 9.468 0 5.652 3.636 9.396 9.432 9.396zm-5.22-11.448c.288-2.628 2.412-4.284 4.896-4.284 2.7 0 4.608 1.548 4.932 4.284h-9.828z" fill="#000"/></svg>