<svg width="58" height="21" viewBox="0 0 58 21" fill="none" xmlns="http://www.w3.org/2000/svg"><path d="M13.112 20c.14 0 .28-.14.28-.28v-2.128c0-.14-.14-.28-.28-.28H3.648l-.14-6.356h8.624c.14 0 .28-.14.28-.28V8.548c0-.14-.14-.28-.28-.28H3.508l.14-5.18h9.24c.14 0 .28-.14.28-.28V.68c0-.14-.14-.28-.28-.28H.4C.26.4.12.54.12.68l.14 9.38-.14 9.66c0 .14.14.28.28.28h12.712zm10.056 0c.14 0 .28-.14.28-.28l-.196-9.492.14-7.14h5.376c.14 0 .28-.14.28-.28V.68c0-.14-.14-.28-.28-.28h-14.28c-.14 0-.28.14-.28.28v2.128c0 .14.14.28.28.28h5.376l.14 7.14-.196 9.492c0 .14.14.28.28.28h3.08zm10.47 0c.14 0 .28-.14.28-.28l-.14-7.896h8.568c.14 0 .28-.14.28-.28V9.416c0-.14-.14-.28-.28-.28h-8.568l.14-6.048h8.848c.14 0 .28-.14.28-.28V.68c0-.14-.14-.28-.28-.28H30.67c-.14 0-.28.14-.28.28l.14 9.52-.14 9.52c0 .14.14.28.28.28h2.968zm23.405-4.284c0-6.104-9.576-3.164-9.576-6.272 0-1.4 1.064-2.016 2.716-2.016 1.876 0 2.94.812 3.192 2.268.028.168.14.28.308.28h2.576c.14 0 .28-.14.252-.28-.224-2.968-2.716-4.452-6.272-4.452-3.668 0-5.992 1.54-5.992 4.452 0 5.936 9.576 3.108 9.576 6.3 0 1.344-1.148 2.1-3.052 2.1-2.24 0-3.472-.84-3.584-2.716a.28.28 0 00-.28-.28H44.19c-.14 0-.28.14-.28.28.14 3.248 2.8 4.956 6.748 4.956 3.64 0 6.384-1.68 6.384-4.62z" fill="#fff"/></svg>