<svg width="132" height="33" viewBox="0 0 132 33" fill="none" xmlns="http://www.w3.org/2000/svg"><path d="M1.008 10h.756V5.478h4.228v-.7H1.764V.9h5.068V.2H1.008V10zm7.346-8.596c.28 0 .504-.21.504-.504a.493.493 0 00-.504-.504c-.28 0-.504.21-.504.504 0 .294.224.504.504.504zM7.99 10h.714V2.902H7.99V10zm5.669-7.182c-1.302 0-2.142.672-2.548 1.596l-.112-1.512h-.616V10h.714V6.5c0-1.848.938-3.024 2.45-3.024 1.372 0 2.198.896 2.198 2.576V10h.714V6.024c0-2.24-1.19-3.206-2.8-3.206zm4.744-1.414c.28 0 .504-.21.504-.504a.493.493 0 00-.504-.504c-.28 0-.504.21-.504.504 0 .294.224.504.504.504zM18.04 10h.714V2.902h-.714V10zm2.07-2.184c.057 1.47 1.247 2.268 3.025 2.268 1.526 0 2.758-.77 2.758-2.03 0-1.498-1.316-1.792-2.842-2.002-1.106-.154-2.086-.28-2.086-1.274 0-.812.798-1.344 2.002-1.344 1.134 0 1.946.546 2.072 1.47h.728c-.126-1.386-1.26-2.086-2.8-2.086-1.582-.014-2.716.798-2.716 2.016 0 1.428 1.316 1.694 2.772 1.89 1.19.168 2.156.322 2.156 1.372 0 .84-.882 1.372-2.044 1.372-1.358 0-2.24-.63-2.296-1.652h-.728zM30.53 2.818c-1.33 0-2.156.742-2.562 1.764V.2h-.714V10h.714V6.5c0-1.848.938-3.024 2.45-3.024 1.358 0 2.198.896 2.198 2.576V10h.714V6.024c0-2.24-1.19-3.206-2.8-3.206zM40.825 10l-.462 1.148c-.322.784-.448.994-1.176.994h-.896v.658h1.092c.952 0 1.176-.364 1.624-1.484l3.402-8.414h-.77l-2.422 6.174-2.464-6.174h-.77L40.825 10zm7.38.084c2.002 0 3.416-1.484 3.416-3.64 0-2.142-1.415-3.626-3.416-3.626-2.002 0-3.402 1.484-3.402 3.626 0 2.156 1.4 3.64 3.402 3.64zm0-.644c-1.582 0-2.674-1.232-2.674-2.996 0-1.75 1.092-2.996 2.674-2.996 1.581 0 2.674 1.246 2.674 2.996 0 1.764-1.093 2.996-2.674 2.996zm9.986-3.052c0 1.862-.924 3.038-2.394 3.038-1.316 0-2.128-.896-2.128-2.59V2.902h-.714v3.976c0 2.226 1.162 3.206 2.73 3.206 1.26 0 2.086-.672 2.492-1.582L58.275 10h.63V2.902h-.714v3.486zm5.293-3.486c-1.316 0-1.876.63-2.17 1.414l-.112-1.414h-.616V10h.714V6.402c0-1.442.378-2.814 2.044-2.814h.518v-.686h-.378zm9.521 7.182c2.1 0 3.585-1.134 4.005-3.108h-.799c-.42 1.568-1.553 2.408-3.22 2.408-2.267 0-3.695-1.778-3.695-4.284S70.75.816 73.019.816c1.638 0 2.786.854 3.22 2.394h.798C76.603 1.25 75.12.116 73.061.116c-2.758 0-4.55 2.044-4.55 4.984 0 2.968 1.75 4.984 4.495 4.984zm5.828-8.68c.28 0 .504-.21.504-.504a.493.493 0 00-.504-.504c-.28 0-.504.21-.504.504 0 .294.224.504.504.504zM78.469 10h.714V2.902h-.714V10zm2.925-1.652c0 1.134.462 1.652 1.665 1.652h1.037v-.658h-.98c-.742 0-1.008-.28-1.008-1.008V3.56h1.917v-.658h-1.918V.914h-.713v1.988h-1.345v.658h1.344v4.788zM87.31 10l-.462 1.148c-.322.784-.448.994-1.176.994h-.896v.658h1.092c.952 0 1.176-.364 1.624-1.484l3.402-8.414h-.77l-2.422 6.174-2.464-6.174h-.77L87.31 10zm8.485 0h.756V.2h-.756V10zm5.883-7.182c-1.301 0-2.141.672-2.547 1.596l-.112-1.512h-.617V10h.715V6.5c0-1.848.938-3.024 2.45-3.024 1.372 0 2.198.896 2.198 2.576V10h.714V6.024c0-2.24-1.19-3.206-2.801-3.206zm10.067 1.68c-.434-1.008-1.386-1.68-2.716-1.68-1.946 0-3.346 1.484-3.346 3.626 0 2.24 1.4 3.64 3.346 3.64 1.33 0 2.254-.714 2.702-1.708l.112 1.624h.616V.2h-.714v4.298zm-2.66 4.942c-1.582 0-2.674-1.232-2.674-2.996 0-1.75 1.092-2.996 2.674-2.996 1.582 0 2.674 1.246 2.674 3.01 0 1.75-1.092 2.982-2.674 2.982zm8.19.644c1.554 0 2.744-1.008 3.052-2.436h-.728c-.28 1.106-1.218 1.792-2.38 1.792-1.582 0-2.576-1.204-2.604-2.856v-.126h5.796c0-.098.014-.21.014-.294-.07-2.114-1.372-3.346-3.276-3.346-1.946 0-3.276 1.484-3.276 3.584 0 2.226 1.386 3.682 3.402 3.682zm-2.604-4.228c.112-1.442 1.19-2.408 2.492-2.408 1.386 0 2.38.854 2.492 2.408h-4.984zM120.834 10h.826l2.352-3.122L126.364 10h.868l-2.758-3.626 2.618-3.472h-.812l-2.24 2.94-2.212-2.94h-.854l2.618 3.472L120.834 10zM7.084 29.342c-.42 0-.63-.14-.63-.686v-3.304c0-1.624-.994-2.534-2.772-2.534-1.624 0-2.702.784-2.884 2.072h.714c.182-.868.938-1.442 2.142-1.442 1.33 0 2.086.7 2.086 1.876v.616H3.332c-1.82 0-2.8.784-2.8 2.114 0 1.26.994 2.03 2.506 2.03 1.442 0 2.296-.658 2.73-1.54v.252C5.74 29.636 6.09 30 6.93 30h.42v-.658h-.266zM5.74 27.13c0 1.358-.966 2.338-2.646 2.338-1.134 0-1.834-.574-1.834-1.456 0-.938.7-1.456 2.016-1.456H5.74v.574zm5.995-4.312c-1.33 0-2.254.714-2.702 1.708l-.112-1.624h-.616V32.8h.714v-4.438c.406 1.036 1.372 1.722 2.716 1.722 1.946 0 3.346-1.484 3.346-3.64 0-2.226-1.4-3.626-3.346-3.626zm-.056 6.622c-1.582 0-2.674-1.232-2.674-3.01 0-1.736 1.092-2.982 2.674-2.982 1.582 0 2.674 1.246 2.674 2.996 0 1.764-1.092 2.996-2.674 2.996zm8.245-6.622c-1.33 0-2.254.714-2.702 1.708l-.112-1.624h-.616V32.8h.714v-4.438c.406 1.036 1.372 1.722 2.716 1.722 1.946 0 3.346-1.484 3.346-3.64 0-2.226-1.4-3.626-3.346-3.626zm-.056 6.622c-1.582 0-2.674-1.232-2.674-3.01 0-1.736 1.092-2.982 2.674-2.982 1.582 0 2.674 1.246 2.674 2.996 0 1.764-1.092 2.996-2.674 2.996zm4.816.56h.714v-9.8h-.714V30zm2.756-8.596c.28 0 .504-.21.504-.504a.493.493 0 00-.504-.504c-.28 0-.504.21-.504.504 0 .294.224.504.504.504zM27.076 30h.714v-7.098h-.714V30zm5.487.084c1.61 0 2.744-.924 3.024-2.366h-.756c-.238 1.05-1.092 1.722-2.268 1.722-1.554 0-2.632-1.218-2.632-2.982 0-1.764 1.064-3.01 2.632-3.01 1.19 0 2.03.672 2.282 1.736h.742c-.294-1.47-1.4-2.366-3.01-2.366-2.002 0-3.374 1.484-3.374 3.64 0 2.184 1.358 3.626 3.36 3.626zm10.656-.742c-.42 0-.63-.14-.63-.686v-3.304c0-1.624-.994-2.534-2.772-2.534-1.624 0-2.702.784-2.884 2.072h.714c.182-.868.938-1.442 2.142-1.442 1.33 0 2.086.7 2.086 1.876v.616h-2.408c-1.82 0-2.8.784-2.8 2.114 0 1.26.994 2.03 2.506 2.03 1.442 0 2.296-.658 2.73-1.54v.252c-.028.84.322 1.204 1.162 1.204h.42v-.658h-.266zm-1.344-2.212c0 1.358-.966 2.338-2.646 2.338-1.134 0-1.834-.574-1.834-1.456 0-.938.7-1.456 2.016-1.456h2.464v.574zm3.097 1.218c0 1.134.462 1.652 1.666 1.652h1.036v-.658h-.98c-.742 0-1.008-.28-1.008-1.008V23.56h1.918v-.658h-1.918v-1.988h-.714v1.988h-1.344v.658h1.344v4.788zm4.152-6.944c.28 0 .504-.21.504-.504a.493.493 0 00-.504-.504c-.28 0-.504.21-.504.504 0 .294.224.504.504.504zM48.76 30h.714v-7.098h-.714V30zm5.529.084c2.002 0 3.416-1.484 3.416-3.64 0-2.142-1.414-3.626-3.416-3.626-2.003 0-3.403 1.484-3.403 3.626 0 2.156 1.4 3.64 3.402 3.64zm0-.644c-1.583 0-2.675-1.232-2.675-2.996 0-1.75 1.093-2.996 2.675-2.996 1.581 0 2.673 1.246 2.673 2.996 0 1.764-1.092 2.996-2.674 2.996zm8.11-6.622c-1.302 0-2.142.672-2.548 1.596l-.112-1.512h-.616V30h.714v-3.5c0-1.848.938-3.024 2.45-3.024 1.372 0 2.198.896 2.198 2.576V30h.714v-3.976c0-2.24-1.19-3.206-2.8-3.206zm8.518-1.414c.28 0 .504-.21.504-.504a.493.493 0 00-.504-.504c-.28 0-.504.21-.504.504 0 .294.224.504.504.504zM70.553 30h.714v-7.098h-.714V30zm5.669-7.182c-1.302 0-2.142.672-2.548 1.596l-.113-1.512h-.616V30h.715v-3.5c0-1.848.938-3.024 2.45-3.024 1.371 0 2.198.896 2.198 2.576V30h.713v-3.976c0-2.24-1.19-3.206-2.8-3.206zm16.077 0c-1.302 0-2.142.728-2.548 1.778-.336-1.176-1.218-1.778-2.338-1.778-1.218 0-1.946.714-2.31 1.596l-.112-1.512h-.616V30h.714v-3.612c0-1.736.84-2.912 2.198-2.912 1.232 0 2.002.868 2.002 2.506V30h.714v-3.864c.042-1.624.882-2.66 2.212-2.66 1.232 0 1.974.826 1.974 2.436V30h.728v-4.116c0-2.142-1.134-3.066-2.618-3.066zm4.567-1.414c.28 0 .504-.21.504-.504a.493.493 0 00-.504-.504c-.28 0-.504.21-.504.504 0 .294.224.504.504.504zM96.502 30h.714v-7.098h-.714V30zm5.669-7.182c-1.302 0-2.142.672-2.548 1.596l-.112-1.512h-.616V30h.714v-3.5c0-1.848.938-3.024 2.45-3.024 1.372 0 2.198.896 2.198 2.576V30h.714v-3.976c0-2.24-1.19-3.206-2.8-3.206zm9.532 3.57c0 1.862-.924 3.038-2.394 3.038-1.316 0-2.128-.896-2.128-2.59v-3.934h-.714v3.976c0 2.226 1.162 3.206 2.73 3.206 1.26 0 2.086-.672 2.492-1.582l.098 1.498h.63v-7.098h-.714v3.486zm2.94 1.96c0 1.134.462 1.652 1.666 1.652h1.036v-.658h-.98c-.742 0-1.008-.28-1.008-1.008V23.56h1.918v-.658h-1.918v-1.988h-.714v1.988h-1.344v.658h1.344v4.788zm6.706 1.736c1.554 0 2.744-1.008 3.052-2.436h-.728c-.28 1.106-1.218 1.792-2.38 1.792-1.582 0-2.576-1.204-2.604-2.856v-.126h5.796c0-.098.014-.21.014-.294-.07-2.114-1.372-3.346-3.276-3.346-1.946 0-3.276 1.484-3.276 3.584 0 2.226 1.386 3.682 3.402 3.682zm-2.604-4.228c.112-1.442 1.19-2.408 2.492-2.408 1.386 0 2.38.854 2.492 2.408h-4.984zm6.83 1.96c.056 1.47 1.246 2.268 3.024 2.268 1.526 0 2.758-.77 2.758-2.03 0-1.498-1.316-1.792-2.842-2.002-1.106-.154-2.086-.28-2.086-1.274 0-.812.798-1.344 2.002-1.344 1.134 0 1.946.546 2.072 1.47h.728c-.126-1.386-1.26-2.086-2.8-2.086-1.582-.014-2.716.798-2.716 2.016 0 1.428 1.316 1.694 2.772 1.89 1.19.168 2.156.322 2.156 1.372 0 .84-.882 1.372-2.044 1.372-1.358 0-2.24-.63-2.296-1.652h-.728z" fill="#000"/></svg>