<svg width="103" height="27" viewBox="0 0 103 27" fill="none" xmlns="http://www.w3.org/2000/svg"><rect y=".5" width="103" height="26" rx="13" fill="#000"/><path d="M11.884 18.5h1.131v-3.978h3.744v-1.04h-3.744V10.44h4.524V9.4h-5.655v9.1zm7.258-7.748a.67.67 0 00.69-.689.67.67 0 00-.69-.689.67.67 0 00-.689.689.67.67 0 00.69.689zm-.546 7.748h1.066v-6.63h-1.066v6.63zm5.776-6.708c-1.117 0-1.794.468-2.183.975l-.143-.897h-.924v6.63h1.067v-3.315c0-1.495.753-2.418 2.002-2.418 1.157 0 1.794.728 1.794 2.106V18.5h1.066v-3.692c0-2.197-1.183-3.016-2.678-3.016zm9.188 1.092c-.404-.637-1.157-1.092-2.276-1.092-1.832 0-3.184 1.365-3.184 3.393 0 2.158 1.351 3.393 3.184 3.393 1.119 0 1.834-.533 2.276-1.144l.142 1.066h.924V9.4H33.56v3.484zm-2.172 4.745c-1.313 0-2.197-1.001-2.197-2.444s.885-2.444 2.198-2.444c1.3 0 2.183 1.014 2.183 2.47 0 1.417-.884 2.418-2.184 2.418zm11.147.949c1.937 0 3.289-1.378 3.289-3.393 0-2.015-1.352-3.393-3.289-3.393s-3.289 1.378-3.289 3.393c0 2.015 1.352 3.393 3.289 3.393zm0-.949c-1.313 0-2.197-1.027-2.197-2.444s.884-2.444 2.197-2.444c1.313 0 2.197 1.027 2.197 2.444s-.884 2.444-2.197 2.444zm9.152-2.444c0 1.495-.728 2.418-1.937 2.418-1.105 0-1.729-.728-1.729-2.106V11.87h-1.066v3.692c0 2.197 1.157 3.016 2.613 3.016 1.092 0 1.73-.468 2.12-.962l.142.884h.923v-6.63h-1.066v3.315zm3.039 1.586c0 1.17.455 1.729 1.729 1.729h1.157v-.975h-1.053c-.572 0-.767-.208-.767-.767v-3.913h1.716v-.975h-1.716v-1.859h-1.066v1.859H53.53v.975h1.196v3.926zm14.609-4.979c-1.183 0-1.898.546-2.301 1.261-.377-.845-1.17-1.261-2.093-1.261-1.027 0-1.586.507-1.937.988l-.143-.91h-.923v6.63h1.066v-3.497c0-1.326.663-2.236 1.755-2.236 1.014 0 1.599.676 1.599 1.976V18.5h1.066v-3.549c0-1.352.676-2.184 1.781-2.184 1.001 0 1.573.676 1.573 1.976V18.5h1.066v-3.822c0-2.093-1.131-2.886-2.509-2.886zm6.855 6.786c1.937 0 3.29-1.378 3.29-3.393 0-2.015-1.353-3.393-3.29-3.393s-3.289 1.378-3.289 3.393c0 2.015 1.352 3.393 3.29 3.393zm0-.949c-1.313 0-2.197-1.027-2.197-2.444s.884-2.444 2.197-2.444c1.313 0 2.197 1.027 2.197 2.444s-.884 2.444-2.197 2.444zm7.58-5.759c-1.183 0-1.69.494-2.002 1.001l-.143-1.001h-.923v6.63h1.066v-3.38c0-1.053.377-2.21 1.768-2.21h.533v-1.04h-.3zm3.897 6.708c1.534 0 2.626-.975 2.886-2.301h-1.08c-.22.858-.948 1.352-1.884 1.352-1.261 0-2.054-.884-2.093-2.145v-.091h5.148c.013-.156.026-.312.026-.455-.052-1.963-1.274-3.146-3.146-3.146-1.872 0-3.146 1.378-3.146 3.393 0 2.028 1.3 3.393 3.289 3.393zm-2.106-4.069c.104-1.079 1-1.781 1.976-1.781 1.105 0 1.885.637 1.989 1.781H85.56z" fill="#fff"/></svg>