<svg width="247" height="20" viewBox="0 0 247 20" fill="none" xmlns="http://www.w3.org/2000/svg"><path d="M.28 15h2.3V8.92h6.5V15h2.3V1h-2.3v5.88h-6.5V1H.28v14zM14.812 3.32c.74 0 1.32-.54 1.32-1.3s-.58-1.3-1.32-1.3c-.74 0-1.32.54-1.32 1.3s.58 1.3 1.32 1.3zM13.712 15h2.16V4.76h-2.16V15zM25.81 6.36c-.66-1.02-1.76-1.72-3.36-1.72-2.78 0-4.84 2.06-4.84 5.2 0 3.26 2.06 5.2 4.84 5.2 1.6 0 2.66-.66 3.34-1.68v1.14c0 1.96-1.06 2.86-2.94 2.86-1.52 0-2.52-.66-2.78-1.8h-2.2c.2 2.3 2.1 3.56 4.82 3.56 3.68 0 5.24-1.76 5.24-4.54V4.76h-1.88l-.24 1.6zm-3 6.86c-1.8 0-2.98-1.38-2.98-3.38 0-1.98 1.18-3.38 2.98-3.38s2.98 1.4 2.98 3.42c0 1.96-1.18 3.34-2.98 3.34zm12.61-8.58c-1.6 0-2.58.72-3.22 1.6V1h-2.16v14h2.16V9.82c0-2.06 1.04-3.32 2.74-3.32 1.6 0 2.46 1.04 2.46 2.98V15h2.16V9.3c0-3.42-1.86-4.66-4.14-4.66zm10.887 10.48c2.54 0 4.26-1.54 4.62-3.56h-2.16c-.3 1.14-1.26 1.8-2.58 1.8-1.7 0-2.8-1.14-2.86-2.88v-.14h7.72c.04-.28.06-.56.06-.82-.06-3-2.04-4.88-5-4.88-3.02 0-5.04 2.1-5.04 5.26 0 3.14 2.02 5.22 5.24 5.22zm-2.9-6.36c.16-1.46 1.34-2.38 2.72-2.38 1.5 0 2.56.86 2.74 2.38h-5.46zm14.626-4c-1.68 0-2.5.68-3.02 1.54l-.24-1.54h-1.92V15h2.16V9.86c0-1.58.62-3.08 2.54-3.08h.96V4.76h-.48zM64.963 15h2.16V1h-2.16v14zm9.137.12c2.54 0 4.26-1.54 4.62-3.56h-2.16c-.3 1.14-1.26 1.8-2.58 1.8-1.7 0-2.8-1.14-2.86-2.88v-.14h7.72c.04-.28.06-.56.06-.82-.06-3-2.04-4.88-5-4.88-3.02 0-5.04 2.1-5.04 5.26 0 3.14 2.02 5.22 5.24 5.22zm-2.9-6.36c.16-1.46 1.34-2.38 2.72-2.38 1.5 0 2.56.86 2.74 2.38H71.2zM82.937 15h2.64l3.78-10.24h-2.28l-2.78 7.92-2.82-7.92h-2.32L82.937 15zm11.905.12c2.54 0 4.26-1.54 4.62-3.56h-2.16c-.3 1.14-1.26 1.8-2.58 1.8-1.7 0-2.8-1.14-2.86-2.88v-.14h7.72c.04-.28.06-.56.06-.82-.06-3-2.04-4.88-5-4.88-3.02 0-5.04 2.1-5.04 5.26 0 3.14 2.02 5.22 5.24 5.22zm-2.9-6.36c.16-1.46 1.34-2.38 2.72-2.38 1.5 0 2.56.86 2.74 2.38h-5.46zm14.626-4c-1.68 0-2.5.68-3.02 1.54l-.24-1.54h-1.92V15h2.16V9.86c0-1.58.62-3.08 2.54-3.08h.96V4.76h-.48zm10.86 8.36c-.44 0-.66-.14-.66-.66v-4.1c0-2.42-1.56-3.72-4.28-3.72-2.58 0-4.3 1.24-4.52 3.24h2.12c.16-.9 1.02-1.5 2.3-1.5 1.42 0 2.24.7 2.24 1.84v.62h-2.58c-2.86 0-4.38 1.18-4.38 3.28 0 1.9 1.56 3 3.8 3 1.66 0 2.7-.72 3.38-1.76 0 1.02.48 1.64 1.88 1.64h1.14v-1.88h-.44zm-2.8-2.32c-.02 1.58-1.06 2.64-2.86 2.64-1.18 0-1.9-.6-1.9-1.46 0-1.04.74-1.54 2.08-1.54h2.68v.36zm12.236-4.44c-.66-1.02-1.76-1.72-3.36-1.72-2.78 0-4.84 2.06-4.84 5.2 0 3.26 2.06 5.2 4.84 5.2 1.6 0 2.66-.66 3.34-1.68v1.14c0 1.96-1.06 2.86-2.94 2.86-1.52 0-2.52-.66-2.78-1.8h-2.2c.2 2.3 2.1 3.56 4.82 3.56 3.68 0 5.24-1.76 5.24-4.54V4.76h-1.88l-.24 1.6zm-3 6.86c-1.8 0-2.98-1.38-2.98-3.38 0-1.98 1.18-3.38 2.98-3.38s2.98 1.4 2.98 3.42c0 1.96-1.18 3.34-2.98 3.34zm12.091 1.9c2.54 0 4.26-1.54 4.62-3.56h-2.16c-.3 1.14-1.26 1.8-2.58 1.8-1.7 0-2.8-1.14-2.86-2.88v-.14h7.72c.04-.28.06-.56.06-.82-.06-3-2.04-4.88-5-4.88-3.02 0-5.04 2.1-5.04 5.26 0 3.14 2.02 5.22 5.24 5.22zm-2.9-6.36c.16-1.46 1.34-2.38 2.72-2.38 1.5 0 2.56.86 2.74 2.38h-5.46zm8.621 5c0 .8.58 1.36 1.38 1.36.8 0 1.4-.56 1.4-1.36s-.6-1.36-1.4-1.36c-.8 0-1.38.56-1.38 1.36zm18.33 1.24v-2.04h-6.02V1h-2.3v14h8.32zm5.851.12c3.12 0 5.22-2.1 5.22-5.24 0-3.12-2.1-5.24-5.22-5.24-3.12 0-5.22 2.12-5.22 5.24 0 3.14 2.1 5.24 5.22 5.24zm0-1.84c-1.82 0-3-1.42-3-3.4s1.18-3.4 3-3.4 3.02 1.42 3.02 3.4-1.2 3.4-3.02 3.4zm8.965 1.72h2.34l2.24-6.96 2.16 6.96h2.32l3.4-10.24h-2.2l-2.42 7.84-2.24-7.84h-1.98l-2.34 7.84-2.34-7.84h-2.28l3.34 10.24zm18.106.12c2.54 0 4.26-1.54 4.62-3.56h-2.16c-.3 1.14-1.26 1.8-2.58 1.8-1.7 0-2.8-1.14-2.86-2.88v-.14h7.72c.04-.28.06-.56.06-.82-.06-3-2.04-4.88-5-4.88-3.02 0-5.04 2.1-5.04 5.26 0 3.14 2.02 5.22 5.24 5.22zm-2.9-6.36c.16-1.46 1.34-2.38 2.72-2.38 1.5 0 2.56.86 2.74 2.38h-5.46zm14.626-4c-1.68 0-2.5.68-3.02 1.54l-.24-1.54h-1.92V15h2.16V9.86c0-1.58.62-3.08 2.54-3.08h.96V4.76h-.48zm12.109 0c-1.68 0-2.5.68-3.02 1.54l-.24-1.54h-1.92V15h2.16V9.86c0-1.58.62-3.08 2.54-3.08h.96V4.76h-.48zm2.913-1.44c.74 0 1.32-.54 1.32-1.3s-.58-1.3-1.32-1.3c-.74 0-1.32.54-1.32 1.3s.58 1.3 1.32 1.3zm-1.1 11.68h2.16V4.76h-2.16V15zm3.837-3.38c.06 2.22 1.94 3.5 4.68 3.5 2.48 0 4.34-1.24 4.34-3.2 0-2.28-1.9-2.76-4.24-3.04-1.48-.16-2.46-.28-2.46-1.24 0-.82.84-1.34 2.12-1.34 1.28 0 2.16.66 2.28 1.6h2.12c-.14-2.1-1.92-3.26-4.44-3.26-2.46-.02-4.2 1.24-4.2 3.18 0 2.12 1.84 2.62 4.18 2.9 1.58.2 2.52.28 2.52 1.38 0 .82-.88 1.34-2.22 1.34-1.56 0-2.48-.76-2.56-1.82h-2.12zM233.107 15h2.16v-2.6l1.84-1.92 3.02 4.52h2.56l-4.1-6.1 3.86-4.14h-2.54l-4.64 4.96V1h-2.16v14zm10.425-1.24c0 .8.58 1.36 1.38 1.36.8 0 1.4-.56 1.4-1.36s-.6-1.36-1.4-1.36c-.8 0-1.38.56-1.38 1.36z" fill="#000"/></svg>