<svg width="117" height="21" viewBox="0 0 117 21" fill="none" xmlns="http://www.w3.org/2000/svg"><path d="M4.289 16.013l-.43 1.073c-.343.902-.558 1.116-1.46 1.116H.77v2.04h2.49c1.61 0 2.081-.795 2.768-2.576l4.98-12.708H8.54l-2.984 8.35-3.07-8.35H.018l4.272 11.055zm12.583.064c3.349 0 5.602-2.254 5.602-5.624 0-3.349-2.253-5.624-5.602-5.624s-5.603 2.275-5.603 5.624c0 3.37 2.254 5.624 5.603 5.624zm0-1.975c-1.954 0-3.22-1.524-3.22-3.65 0-2.124 1.266-3.648 3.22-3.648 1.953 0 3.241 1.524 3.241 3.649s-1.288 3.65-3.241 3.65zm15.001-3.65c0 2.276-1.073 3.607-2.833 3.607-1.696 0-2.555-1.095-2.555-3.241v-5.86h-2.318v6.117c0 3.757 1.996 5.002 4.336 5.002 1.696 0 2.705-.687 3.392-1.524l.257 1.395h2.04V4.958h-2.319v5.495zm10.163-5.494c-1.803 0-2.683.73-3.241 1.653l-.258-1.653h-2.06v10.99h2.318v-5.517c0-1.695.665-3.305 2.726-3.305h1.03V4.958h-.515zm8.231 8.006c0 1.997.902 2.984 3.006 2.984h2.146V13.91h-1.631c-.88 0-1.18-.322-1.18-1.18V6.996h2.683v-2.04h-2.684V1.889h-2.34v3.07h-1.91v2.039h1.91v5.967zm12.187-8.006c-1.803 0-2.683.73-3.242 1.653l-.257-1.653h-2.06v10.99h2.317v-5.517c0-1.695.666-3.305 2.727-3.305h1.03V4.958h-.515zM74.11 13.93c-.473 0-.709-.15-.709-.709v-4.4c0-2.598-1.674-3.993-4.593-3.993-2.77 0-4.616 1.33-4.852 3.477h2.276c.171-.966 1.094-1.61 2.468-1.61 1.524 0 2.404.752 2.404 1.975v.666h-2.769c-3.07 0-4.7 1.266-4.7 3.52 0 2.04 1.674 3.22 4.078 3.22 1.782 0 2.898-.773 3.628-1.889 0 1.095.515 1.76 2.017 1.76h1.224V13.93h-.472zm-3.006-2.49c-.021 1.695-1.137 2.833-3.07 2.833-1.266 0-2.038-.644-2.038-1.567 0-1.116.794-1.653 2.232-1.653h2.876v.386zm13.007-4.96c-.708-.965-1.889-1.652-3.563-1.652-2.984 0-5.195 2.232-5.195 5.624 0 3.52 2.211 5.624 5.195 5.624 1.739 0 2.876-.816 3.585-1.782l.279 1.653h2.017V.922h-2.318v5.56zm-3.177 7.643c-1.932 0-3.198-1.503-3.198-3.671 0-2.147 1.266-3.65 3.198-3.65s3.199 1.503 3.199 3.693c0 2.125-1.267 3.628-3.199 3.628zm8.942-10.712c.794 0 1.416-.58 1.416-1.395 0-.816-.622-1.396-1.416-1.396-.795 0-1.417.58-1.417 1.396 0 .815.622 1.395 1.417 1.395zm-1.181 12.536h2.318V4.958h-2.318v10.99zm10.387-11.12c-1.782 0-2.834.71-3.52 1.568l-.258-1.438h-2.018v10.99h2.318V10.41c0-2.232 1.095-3.585 2.941-3.585 1.739 0 2.619 1.116 2.619 3.199v5.924h2.34V9.83c0-3.67-1.997-5.001-4.422-5.001zm14.923 1.847c-.708-1.095-1.889-1.846-3.606-1.846-2.984 0-5.195 2.21-5.195 5.581 0 3.499 2.211 5.581 5.195 5.581 1.717 0 2.855-.708 3.585-1.803v1.224c0 2.103-1.138 3.07-3.156 3.07-1.631 0-2.704-.71-2.983-1.933h-2.362c.215 2.469 2.254 3.821 5.174 3.821 3.949 0 5.624-1.889 5.624-4.873V4.958h-2.018l-.258 1.718zm-3.219 7.363c-1.932 0-3.199-1.481-3.199-3.628 0-2.125 1.267-3.628 3.199-3.628 1.931 0 3.198 1.503 3.198 3.67 0 2.105-1.267 3.586-3.198 3.586z" fill="#000"/></svg>