<svg width="151" height="111" viewBox="0 0 151 111" fill="none" xmlns="http://www.w3.org/2000/svg"><path d="M2.225 86.68h2.703V94h.608v-7.32H8.24v-.564H2.225v.563zm8.633 1.61c-1.058 0-1.509.507-1.745 1.137l-.09-1.137h-.496V94h.574v-2.894c0-1.16.305-2.264 1.645-2.264h.416v-.552h-.304zm5.937 5.18c-.338 0-.507-.112-.507-.551V90.26c0-1.307-.8-2.039-2.23-2.039-1.306 0-2.174.631-2.32 1.667h.574c.147-.698.755-1.16 1.723-1.16 1.07 0 1.678.563 1.678 1.51v.495h-1.937c-1.464 0-2.252.63-2.252 1.7 0 1.014.8 1.634 2.016 1.634 1.16 0 1.847-.53 2.196-1.24v.203c-.023.676.26.969.935.969h.338v-.53h-.214zm-1.082-1.779c0 1.093-.777 1.881-2.128 1.881-.912 0-1.476-.462-1.476-1.171 0-.755.564-1.172 1.622-1.172h1.982v.462zm6.639-2.117c-.35-.811-1.115-1.352-2.185-1.352-1.566 0-2.692 1.194-2.692 2.917 0 1.802 1.126 2.929 2.692 2.929 1.07 0 1.813-.575 2.173-1.374L22.43 94h.496v-7.884h-.574v3.458zm-2.14 3.975c-1.273 0-2.151-.99-2.151-2.41 0-1.407.878-2.41 2.15-2.41 1.273 0 2.152 1.002 2.152 2.422 0 1.407-.879 2.398-2.151 2.398zm6.588.519c1.25 0 2.207-.811 2.455-1.96h-.585c-.226.89-.98 1.441-1.915 1.441-1.273 0-2.072-.968-2.095-2.297v-.101h4.663c0-.08.011-.17.011-.237-.056-1.7-1.104-2.692-2.636-2.692-1.565 0-2.635 1.194-2.635 2.884 0 1.79 1.115 2.962 2.737 2.962zm-2.095-3.402c.09-1.16.957-1.937 2.005-1.937 1.115 0 1.915.687 2.005 1.937h-4.01zM34.89 94h.62l1.69-4.798L38.81 94h.62l2.026-5.71h-.585l-1.757 5.023-1.633-5.023h-.53l-1.723 5.023-1.667-5.023h-.608L34.89 94zm7.663-6.915a.397.397 0 00.405-.406.397.397 0 00-.405-.405.397.397 0 00-.406.405c0 .237.18.406.406.406zM42.26 94h.574v-5.71h-.574V94zm2.353-1.329c0 .912.371 1.329 1.34 1.329h.833v-.53h-.788c-.597 0-.811-.225-.811-.81v-3.84h1.543v-.53h-1.543v-1.6h-.574v1.6H43.53v.53h1.082v3.851zm5.683-4.449c-1.07 0-1.735.597-2.061 1.42v-3.526h-.575V94h.575v-2.816c0-1.486.754-2.432 1.97-2.432 1.093 0 1.769.72 1.769 2.072V94h.574v-3.199c0-1.802-.957-2.579-2.252-2.579zm9.06 5.846c1.294 0 2.207-.744 2.432-1.904h-.608c-.192.845-.879 1.385-1.825 1.385-1.25 0-2.117-.98-2.117-2.398 0-1.42.856-2.422 2.117-2.422.957 0 1.633.54 1.836 1.397h.597c-.237-1.183-1.126-1.904-2.422-1.904-1.61 0-2.714 1.194-2.714 2.929 0 1.757 1.093 2.917 2.703 2.917zm6.071 0c1.61 0 2.748-1.194 2.748-2.929 0-1.723-1.137-2.917-2.748-2.917-1.61 0-2.737 1.194-2.737 2.917 0 1.735 1.127 2.929 2.737 2.929zm0-.519c-1.273 0-2.151-.99-2.151-2.41 0-1.407.878-2.41 2.151-2.41 1.273 0 2.151 1.002 2.151 2.41 0 1.42-.878 2.41-2.15 2.41zm6.525-5.327c-1.047 0-1.723.54-2.05 1.284l-.09-1.216h-.495V94h.574v-2.816c0-1.486.754-2.432 1.97-2.432 1.105 0 1.77.72 1.77 2.072V94h.573v-3.199c0-1.802-.957-2.579-2.252-2.579zm4.526.068v-.856c0-.563.214-.788.788-.788h.823v-.53h-.845c-.957 0-1.34.417-1.34 1.33v.844h-1.081v.53h1.08V94h.575v-5.18h2.444V94h.575v-5.71h-3.019zm2.737-2.016a.397.397 0 00-.406.405c0 .237.18.406.406.406a.39.39 0 00.405-.406.39.39 0 00-.405-.405zm6.29 3.3c-.348-.811-1.114-1.352-2.184-1.352-1.566 0-2.692 1.194-2.692 2.917 0 1.802 1.126 2.929 2.692 2.929 1.07 0 1.813-.575 2.174-1.374l.09 1.306h.495v-7.884h-.574v3.458zm-2.14 3.975c-1.272 0-2.15-.99-2.15-2.41 0-1.407.878-2.41 2.15-2.41 1.274 0 2.152 1.002 2.152 2.422 0 1.407-.878 2.398-2.151 2.398zm6.59.519c1.25 0 2.207-.811 2.454-1.96h-.585c-.225.89-.98 1.441-1.915 1.441-1.273 0-2.072-.968-2.095-2.297v-.101h4.663c0-.08.011-.17.011-.237-.056-1.7-1.103-2.692-2.635-2.692-1.566 0-2.636 1.194-2.636 2.884 0 1.79 1.115 2.962 2.737 2.962zm-2.096-3.402c.09-1.16.958-1.937 2.005-1.937 1.115 0 1.915.687 2.005 1.937h-4.01zm8.4-2.444c-1.047 0-1.723.54-2.05 1.284l-.09-1.216h-.495V94h.574v-2.816c0-1.486.755-2.432 1.97-2.432 1.105 0 1.77.72 1.77 2.072V94h.573v-3.199c0-1.802-.957-2.579-2.252-2.579zm5.925 5.846c1.295 0 2.207-.744 2.433-1.904h-.609c-.191.845-.878 1.385-1.824 1.385-1.25 0-2.118-.98-2.118-2.398 0-1.42.856-2.422 2.118-2.422.957 0 1.633.54 1.836 1.397h.597c-.237-1.183-1.127-1.904-2.422-1.904-1.61 0-2.714 1.194-2.714 2.929 0 1.757 1.092 2.917 2.703 2.917zm6.072 0c1.25 0 2.207-.811 2.455-1.96h-.586c-.225.89-.979 1.441-1.914 1.441-1.273 0-2.073-.968-2.095-2.297v-.101h4.663c0-.08.011-.17.011-.237-.056-1.7-1.104-2.692-2.636-2.692-1.565 0-2.635 1.194-2.635 2.884 0 1.79 1.115 2.962 2.737 2.962zm-2.095-3.402c.09-1.16.957-1.937 2.005-1.937 1.115 0 1.914.687 2.004 1.937h-4.009zM4.061 108h.62l1.689-4.798L7.98 108h.62l2.027-5.71h-.586l-1.756 5.023-1.634-5.023h-.529L4.4 107.313l-1.667-5.023h-.608L4.06 108zm7.662-6.915a.397.397 0 00.406-.406.397.397 0 00-.405-.405.397.397 0 00-.406.405c0 .237.18.406.405.406zM11.431 108h.574v-5.71h-.574V108zm2.352-1.329c0 .912.372 1.329 1.34 1.329h.834v-.529h-.788c-.597 0-.811-.226-.811-.811v-3.841H15.9v-.529h-1.543v-1.599h-.575v1.599h-1.08v.529h1.08v3.852zm5.684-4.449c-1.07 0-1.735.597-2.062 1.419v-3.525h-.574V108h.574v-2.816c0-1.486.755-2.432 1.971-2.432 1.093 0 1.769.72 1.769 2.072V108h.574v-3.199c0-1.802-.957-2.579-2.253-2.579zm10.039 5.846c1.69 0 2.883-.913 3.22-2.501h-.641c-.338 1.262-1.25 1.937-2.59 1.937-1.825 0-2.974-1.43-2.974-3.446s1.171-3.446 2.996-3.446c1.318 0 2.241.687 2.59 1.926h.642c-.349-1.577-1.543-2.489-3.198-2.489-2.219 0-3.66 1.644-3.66 4.009 0 2.388 1.407 4.01 3.615 4.01zm4.688-6.983a.397.397 0 00.405-.406.397.397 0 00-.405-.405.397.397 0 00-.406.405c0 .237.18.406.406.406zM33.9 108h.574v-5.71h-.574V108zm2.353-1.329c0 .912.371 1.329 1.34 1.329h.833v-.529h-.788c-.597 0-.811-.226-.811-.811v-3.841h1.543v-.529h-1.543v-1.599h-.574v1.599h-1.082v.529h1.082v3.852zm4.76 1.329l-.373.924c-.259.63-.36.799-.946.799h-.72v.53h.878c.766 0 .946-.293 1.307-1.194l2.736-6.769h-.62l-1.948 4.967-1.982-4.967h-.62l2.287 5.71zm6.825 0h.608v-7.884h-.608V108zm4.733-5.778c-1.047 0-1.723.541-2.05 1.284l-.09-1.216h-.495V108h.574v-2.816c0-1.486.755-2.432 1.971-2.432 1.104 0 1.769.72 1.769 2.072V108h.574v-3.199c0-1.802-.957-2.579-2.253-2.579zm8.099 1.352c-.35-.811-1.115-1.352-2.185-1.352-1.566 0-2.692 1.194-2.692 2.917 0 1.802 1.126 2.929 2.692 2.929 1.07 0 1.813-.575 2.174-1.374l.09 1.306h.495v-7.884h-.574v3.458zm-2.14 3.975c-1.273 0-2.151-.991-2.151-2.41 0-1.408.878-2.41 2.151-2.41 1.273 0 2.151 1.002 2.151 2.422 0 1.407-.878 2.398-2.151 2.398zm6.588.519c1.25 0 2.208-.811 2.455-1.96h-.585c-.226.89-.98 1.441-1.915 1.441-1.273 0-2.072-.968-2.095-2.297v-.101h4.663c0-.079.011-.169.011-.237-.056-1.701-1.104-2.692-2.635-2.692-1.566 0-2.636 1.194-2.636 2.884 0 1.79 1.115 2.962 2.737 2.962zm-2.095-3.402c.09-1.16.958-1.937 2.005-1.937 1.115 0 1.915.687 2.005 1.937h-4.01zM67.982 108h.665l1.892-2.512L72.431 108h.698l-2.218-2.917 2.106-2.793h-.653l-1.802 2.365-1.78-2.365h-.687l2.106 2.793L67.982 108zm5.798-.372c0 .259.18.428.428.428a.408.408 0 00.428-.428c0-.259-.18-.416-.428-.416-.247 0-.428.157-.428.416zM2.562 61h1.647l1.72-6.282L7.673 61h1.635l2.452-8.54h-1.44L8.49 59.22 6.637 52.46h-1.33l-1.902 6.758-1.818-6.77-1.452.012L2.562 61zm13.244-6.32c-.976 0-1.574.44-1.964.977V52.46h-1.318V61h1.318v-3.16c0-1.256.634-2.025 1.67-2.025.977 0 1.501.635 1.501 1.818V61h1.318v-3.477c0-2.086-1.135-2.842-2.525-2.842zm9.432 5.173c-.268 0-.402-.085-.402-.402V56.95c0-1.476-.952-2.27-2.611-2.27-1.574 0-2.623.757-2.757 1.977h1.293c.098-.549.622-.915 1.403-.915.866 0 1.366.427 1.366 1.123v.378h-1.573c-1.745 0-2.672.72-2.672 2 0 1.16.951 1.83 2.318 1.83 1.012 0 1.647-.439 2.061-1.073 0 .622.293 1 1.147 1h.695v-1.147h-.268zm-1.708-1.415c-.012.964-.646 1.61-1.744 1.61-.72 0-1.16-.366-1.16-.89 0-.634.452-.94 1.27-.94h1.634v.22zm3.145.866c0 1.135.513 1.696 1.708 1.696h1.22v-1.159h-.927c-.5 0-.67-.183-.67-.67v-3.258h1.524v-1.159h-1.525V53.01h-1.33v1.744H25.59v1.159h1.085v3.391zm10.181-4.623c-1.012 0-1.61.402-2 .89l-.147-.817h-1.146V61h1.317v-3.147c0-1.27.622-2.038 1.671-2.038.989 0 1.489.635 1.489 1.818V61h1.33v-3.477c0-2.086-1.135-2.842-2.514-2.842zm6.628 6.392c1.55 0 2.599-.94 2.818-2.171h-1.317c-.183.695-.769 1.098-1.574 1.098-1.037 0-1.708-.696-1.744-1.757v-.085h4.709a3.58 3.58 0 00.036-.5c-.036-1.83-1.244-2.977-3.05-2.977-1.842 0-3.074 1.28-3.074 3.208 0 1.915 1.232 3.184 3.196 3.184zm-1.769-3.88c.098-.89.818-1.45 1.66-1.45.914 0 1.561.524 1.67 1.45h-3.33zM46.545 61h1.451l1.647-2.269L51.278 61h1.537l-2.354-3.196 2.22-3.05h-1.452l-1.525 2.11-1.488-2.11H46.68l2.208 3.05L46.545 61zm7.447-1.696c0 1.135.513 1.696 1.708 1.696h1.22v-1.159h-.927c-.5 0-.67-.183-.67-.67v-3.258h1.524v-1.159h-1.525V53.01h-1.33v1.744h-1.085v1.159h1.086v3.391zm6.253-3.391h1.086V61h1.33v-5.087h1.671v-1.159h-1.696v-.524c0-.427.183-.61.61-.61h1.086v-1.16h-1.256c-1.208 0-1.745.586-1.745 1.709v.585h-1.086v1.159zm7.459 5.16c1.903 0 3.184-1.28 3.184-3.196 0-1.903-1.281-3.196-3.184-3.196-1.903 0-3.184 1.293-3.184 3.196 0 1.915 1.28 3.196 3.184 3.196zm0-1.122c-1.11 0-1.83-.866-1.83-2.074 0-1.208.72-2.074 1.83-2.074s1.842.866 1.842 2.074c0 1.208-.732 2.074-1.842 2.074zm7.403-5.197c-1.025 0-1.525.415-1.843.94l-.146-.94h-1.171V61h1.317v-3.135c0-.964.379-1.879 1.55-1.879h.585v-1.232h-.293zm3.958 4.184c.036 1.354 1.183 2.135 2.854 2.135 1.513 0 2.648-.756 2.648-1.952 0-1.39-1.16-1.683-2.587-1.854-.902-.098-1.5-.17-1.5-.756 0-.5.512-.818 1.293-.818.78 0 1.318.403 1.39.976h1.294c-.086-1.28-1.171-1.988-2.708-1.988-1.5-.012-2.562.756-2.562 1.94 0 1.293 1.122 1.598 2.55 1.768.963.122 1.537.171 1.537.842 0 .5-.537.817-1.355.817-.951 0-1.512-.463-1.561-1.11h-1.293zm6.974.366c0 1.135.512 1.696 1.708 1.696h1.22v-1.159h-.927c-.5 0-.671-.183-.671-.67v-3.258h1.525v-1.159h-1.525V53.01h-1.33v1.744h-1.086v1.159h1.086v3.391zm6.6 1.77c1.549 0 2.598-.94 2.817-2.172H94.14c-.183.695-.769 1.098-1.574 1.098-1.037 0-1.708-.696-1.745-1.757v-.085h4.71a3.58 3.58 0 00.036-.5c-.037-1.83-1.244-2.977-3.05-2.977-1.842 0-3.074 1.28-3.074 3.208 0 1.915 1.232 3.184 3.196 3.184zm-1.77-3.88c.098-.89.818-1.452 1.66-1.452.914 0 1.56.525 1.67 1.452h-3.33zm8.922-2.44c-1.025 0-1.525.415-1.842.94l-.147-.94h-1.17V61h1.317v-3.135c0-.964.378-1.879 1.549-1.879h.585v-1.232h-.292zM100.896 61h1.318v-8.54h-1.318V61zm3.28-7.124c.451 0 .805-.33.805-.793 0-.464-.354-.793-.805-.793-.451 0-.805.33-.805.793s.354.793.805.793zM103.505 61h1.318v-6.246h-1.318V61zm5.903-6.32c-1.013 0-1.611.403-2.001.891l-.146-.817h-1.147V61h1.318v-3.147c0-1.27.622-2.038 1.671-2.038.988 0 1.488.635 1.488 1.818V61h1.33v-3.477c0-2.086-1.135-2.842-2.513-2.842zm8.481 1.05c-.403-.622-1.074-1.05-2.05-1.05-1.695 0-2.952 1.257-2.952 3.173 0 1.988 1.257 3.171 2.952 3.171.976 0 1.623-.402 2.038-1.024v.695c0 1.196-.647 1.745-1.794 1.745-.927 0-1.537-.403-1.695-1.098h-1.342c.122 1.403 1.281 2.171 2.94 2.171 2.244 0 3.196-1.073 3.196-2.77v-5.989h-1.147l-.146.976zm-1.83 4.184c-1.098 0-1.818-.842-1.818-2.061 0-1.208.72-2.062 1.818-2.062s1.818.854 1.818 2.086c0 1.195-.72 2.037-1.818 2.037zm5.02-.488c-.561 0-.927.366-.927.83 0 .524.317.78.72.78a.658.658 0 00.403-.121c.012.048.012.11.012.158 0 .427-.305.903-1.074.915v.708c1.208-.012 1.964-.683 1.964-1.867 0-.78-.427-1.403-1.098-1.403zM.781 75h1.403v-3.61h3.342V70.18H2.184v-2.476h4.05V66.46H.78V75zm6.063-7.295h2.635V75h1.403v-7.295h2.635V66.46H6.844v1.244zm6.95 4.49c.049 1.707 1.33 2.878 3.452 2.878 1.879 0 3.16-1.061 3.16-2.598.012-1.684-1.366-2.135-2.782-2.391-1.341-.232-2.22-.415-2.22-1.293 0-.805.671-1.22 1.635-1.22 1.037 0 1.72.585 1.83 1.451h1.403c-.061-1.573-1.281-2.635-3.233-2.635C15.22 66.387 14 67.4 14 68.888c0 1.696 1.342 2.147 2.757 2.391 1.354.244 2.245.44 2.245 1.342 0 .818-.732 1.269-1.745 1.269-1.195 0-1.976-.671-2.05-1.671l-1.414-.025zM21.64 75h5.721v-1.244h-4.318v-2.477h3.44v-1.207h-3.44v-2.367h4.172V66.46H21.64V75zm15.57-1.147c-.268 0-.403-.085-.403-.402V70.95c0-1.476-.951-2.27-2.61-2.27-1.574 0-2.623.757-2.757 1.977h1.293c.097-.549.622-.915 1.403-.915.866 0 1.366.427 1.366 1.123v.378h-1.574c-1.744 0-2.671.72-2.671 2 0 1.16.951 1.83 2.318 1.83 1.012 0 1.646-.439 2.061-1.073 0 .622.293 1 1.147 1h.695v-1.147h-.268zm-1.708-1.415c-.012.964-.647 1.61-1.745 1.61-.72 0-1.158-.365-1.158-.89 0-.634.451-.94 1.268-.94h1.635v.22zm5.988-3.757c-1.013 0-1.61.402-2.001.89l-.146-.817h-1.147V75h1.317v-3.147c0-1.27.623-2.038 1.672-2.038.988 0 1.488.635 1.488 1.818V75h1.33v-3.477c0-2.086-1.135-2.842-2.513-2.842zm8.409.94c-.403-.55-1.074-.94-2.025-.94-1.696 0-2.953 1.269-2.953 3.196 0 2 1.257 3.196 2.953 3.196.988 0 1.634-.463 2.037-1.012l.159.939h1.146v-8.54H49.9v3.16zm-1.806 4.342c-1.098 0-1.818-.854-1.818-2.086 0-1.22.72-2.074 1.818-2.074s1.818.854 1.818 2.098c0 1.208-.72 2.062-1.818 2.062zm12.302-4.233c-.403-.622-1.074-1.05-2.05-1.05-1.695 0-2.952 1.257-2.952 3.173 0 1.988 1.257 3.171 2.952 3.171.976 0 1.623-.402 2.038-1.024v.695c0 1.196-.647 1.745-1.794 1.745-.927 0-1.537-.403-1.695-1.098h-1.342c.122 1.403 1.28 2.171 2.94 2.171 2.244 0 3.196-1.074 3.196-2.77v-5.989h-1.147l-.146.976zm-1.83 4.184c-1.098 0-1.818-.841-1.818-2.061 0-1.208.72-2.062 1.818-2.062s1.818.854 1.818 2.086c0 1.196-.72 2.037-1.818 2.037zm5.081-6.038c.452 0 .805-.33.805-.793 0-.464-.353-.793-.805-.793-.451 0-.805.33-.805.793s.354.793.805.793zM62.977 75h1.317v-6.246h-1.318V75zm2.608 0h1.318v-8.54h-1.318V75zm3.06-1.696c0 1.135.513 1.696 1.709 1.696h1.22v-1.159h-.928c-.5 0-.67-.183-.67-.67v-3.258H71.5v-1.159h-1.525V67.01h-1.33v1.744H67.56v1.159h1.086v3.391zm3.498-.366c.037 1.355 1.183 2.135 2.855 2.135 1.512 0 2.647-.756 2.647-1.952 0-1.39-1.159-1.683-2.586-1.854-.903-.097-1.5-.17-1.5-.756 0-.5.512-.818 1.292-.818.781 0 1.318.403 1.391.976h1.293c-.085-1.28-1.17-1.988-2.708-1.988-1.5-.012-2.562.756-2.562 1.94 0 1.293 1.123 1.598 2.55 1.768.963.122 1.537.171 1.537.842 0 .5-.537.818-1.354.818-.952 0-1.513-.464-1.562-1.11h-1.293zm7.262-3.684c0-1.012.61-1.696 1.55-1.696.817 0 1.366.488 1.366 1.184 0 .585-.317.976-.866 1.342-.732.475-1.305.878-1.305 1.866v.39h1.244v-.243c0-.61.415-.927 1.073-1.379.635-.451 1.22-.988 1.22-2.11 0-1.281-1.049-2.22-2.745-2.22-1.817 0-2.878 1.28-2.878 2.866h1.341zm.562 5.002c0 .488.365.817.841.817s.83-.33.83-.817c0-.488-.354-.817-.83-.817s-.841.329-.841.817z" fill="#000"/><path d="M1.443 20h2.594v-5.729h3.474L10.556 20h2.887l-3.339-6.293c1.85-.654 3.068-2.345 3.068-4.465 0-3.068-2.21-5.03-5.503-5.03H1.443V20zM7.466 6.467c1.849 0 3.044 1.083 3.044 2.775 0 1.691-1.195 2.774-3.044 2.774H4.037V6.467h3.429zm9.022.361c.835 0 1.489-.609 1.489-1.466s-.654-1.466-1.489-1.466c-.834 0-1.488.61-1.488 1.466 0 .857.654 1.466 1.488 1.466zM15.248 20h2.436V8.452h-2.436V20zm4.327-3.812c.068 2.504 2.188 3.947 5.278 3.947 2.797 0 4.894-1.398 4.894-3.608 0-2.572-2.142-3.113-4.781-3.429-1.67-.18-2.774-.315-2.774-1.398 0-.925.947-1.511 2.39-1.511 1.444 0 2.436.744 2.572 1.804h2.39c-.157-2.368-2.165-3.676-5.007-3.676-2.774-.023-4.736 1.398-4.736 3.586 0 2.39 2.075 2.955 4.714 3.27 1.782.226 2.842.316 2.842 1.557 0 .924-.993 1.51-2.504 1.51-1.76 0-2.797-.856-2.887-2.052h-2.39zm18.127-7.871c-1.804 0-2.91.812-3.631 1.804v-5.91h-2.436V20h2.436v-5.842c0-2.323 1.173-3.744 3.09-3.744 1.804 0 2.774 1.173 2.774 3.361V20h2.436v-6.428c0-3.857-2.098-5.255-4.669-5.255zm8.125-1.489c.834 0 1.488-.609 1.488-1.466s-.654-1.466-1.488-1.466c-.835 0-1.489.61-1.489 1.466 0 .857.654 1.466 1.489 1.466zM44.587 20h2.435V8.452h-2.436V20zm10.21-5.188c.09 3.158 2.459 5.323 6.383 5.323 3.474 0 5.842-1.962 5.842-4.804.022-3.112-2.526-3.947-5.143-4.42-2.48-.429-4.104-.767-4.104-2.391 0-1.489 1.24-2.256 3.022-2.256 1.917 0 3.18 1.083 3.383 2.684h2.594c-.113-2.91-2.368-4.871-5.977-4.871-3.36 0-5.616 1.872-5.616 4.623 0 3.135 2.48 3.97 5.097 4.42 2.504.452 4.15.813 4.15 2.482 0 1.511-1.353 2.346-3.225 2.346-2.21 0-3.654-1.241-3.79-3.09l-2.616-.046zm22.177-.586c0 2.39-1.128 3.79-2.978 3.79-1.781 0-2.683-1.151-2.683-3.406V8.451h-2.436v6.428c0 3.947 2.097 5.255 4.556 5.255 1.781 0 2.841-.721 3.563-1.601l.27 1.466h2.143V8.452h-2.435v5.774zM87.9 8.316c-1.872 0-2.978.745-3.7 1.647l-.27-1.51h-2.12V20h2.436v-5.82c0-2.345 1.15-3.766 3.09-3.766 1.827 0 2.752 1.173 2.752 3.361V20h2.458v-6.428c0-3.857-2.098-5.255-4.646-5.255zm17.417 9.564c-.496 0-.745-.158-.745-.744v-4.624c0-2.73-1.759-4.195-4.826-4.195-2.91 0-4.85 1.398-5.098 3.654h2.391c.18-1.015 1.15-1.692 2.594-1.692 1.601 0 2.526.79 2.526 2.075v.7h-2.91c-3.225 0-4.939 1.33-4.939 3.698 0 2.143 1.76 3.383 4.285 3.383 1.872 0 3.045-.812 3.812-1.985 0 1.15.541 1.85 2.12 1.85h1.286v-2.12h-.496zm-3.158-2.616c-.022 1.781-1.195 2.977-3.225 2.977-1.33 0-2.143-.677-2.143-1.647 0-1.173.835-1.736 2.346-1.736h3.022v.406zM107.14 20h2.436v-2.932l2.075-2.165L115.056 20h2.887l-4.623-6.88 4.353-4.668h-2.865l-5.232 5.594V4.212h-2.436V20zM7.375 31.317c-1.781 0-2.977.812-3.744 1.85v-5.955H1.195V43h2.12l.294-1.669c.721 1.037 1.962 1.804 3.766 1.804 3.158 0 5.459-2.368 5.459-5.909 0-3.721-2.301-5.91-5.459-5.91zm-.406 9.766c-2.03 0-3.36-1.602-3.36-3.88 0-2.232 1.33-3.811 3.36-3.811s3.383 1.579 3.383 3.834c0 2.278-1.353 3.857-3.383 3.857zm13.297 2.052c2.865 0 4.804-1.736 5.21-4.014H23.04c-.338 1.285-1.42 2.03-2.91 2.03-1.916 0-3.157-1.286-3.224-3.248v-.158h8.706c.045-.316.067-.632.067-.925-.067-3.383-2.3-5.503-5.638-5.503-3.406 0-5.684 2.368-5.684 5.932 0 3.54 2.278 5.886 5.91 5.886zm-3.27-7.172c.18-1.647 1.51-2.684 3.067-2.684 1.692 0 2.887.97 3.09 2.684h-6.157zm15.953 7.172c2.954 0 4.917-1.646 5.368-4.262h-2.572c-.293 1.33-1.285 2.187-2.774 2.187-1.962 0-3.248-1.556-3.248-3.811 0-2.278 1.286-3.857 3.248-3.857 1.511 0 2.481.834 2.797 2.188h2.549c-.474-2.617-2.323-4.263-5.3-4.263-3.497 0-5.797 2.368-5.797 5.932 0 3.608 2.233 5.886 5.729 5.886zm12.69 0c3.519 0 5.887-2.368 5.887-5.909 0-3.518-2.368-5.91-5.887-5.91-3.518 0-5.886 2.392-5.886 5.91 0 3.541 2.368 5.91 5.886 5.91zm0-2.075c-2.052 0-3.383-1.601-3.383-3.834s1.33-3.834 3.383-3.834 3.406 1.601 3.406 3.834-1.353 3.834-3.406 3.834zm21.13-9.743c-1.894 0-3.202.834-3.947 2.097-.699-1.488-2.052-2.097-3.563-2.097-1.737.022-2.73.79-3.383 1.646l-.271-1.51h-2.12V43h2.436v-6.18c0-2.052 1.037-3.406 2.706-3.406 1.602 0 2.436 1.06 2.436 3.09V43h2.459v-6.248c0-2.075 1.06-3.338 2.729-3.338 1.578 0 2.413 1.06 2.413 3.09V43H71.1v-6.654c0-3.653-1.94-5.03-4.33-5.03zm11.932 11.818c2.864 0 4.804-1.736 5.21-4.014h-2.436c-.338 1.285-1.421 2.03-2.91 2.03-1.917 0-3.157-1.286-3.225-3.248v-.158h8.706c.045-.316.068-.632.068-.925-.068-3.383-2.3-5.503-5.639-5.503-3.406 0-5.684 2.368-5.684 5.932 0 3.54 2.278 5.886 5.91 5.886zm-3.27-7.172c.18-1.647 1.51-2.684 3.067-2.684 1.691 0 2.887.97 3.09 2.684H75.43zm10.09 3.225c.067 2.504 2.188 3.947 5.278 3.947 2.796 0 4.894-1.398 4.894-3.608 0-2.572-2.143-3.113-4.782-3.429-1.669-.18-2.774-.315-2.774-1.398 0-.925.947-1.511 2.39-1.511 1.444 0 2.437.744 2.572 1.804h2.39c-.157-2.368-2.164-3.676-5.006-3.676-2.775-.023-4.737 1.398-4.737 3.586 0 2.39 2.075 2.955 4.714 3.27 1.782.226 2.842.316 2.842 1.557 0 .924-.992 1.51-2.504 1.51-1.759 0-2.796-.856-2.886-2.052H85.52zM103.599 43h2.594v-5.729h3.631c3.293 0 5.459-1.985 5.459-5.03 0-3.067-2.166-5.03-5.459-5.03h-6.225V43zm6.022-13.533c1.85 0 3.023 1.06 3.023 2.775 0 1.691-1.196 2.774-3.045 2.774h-3.406v-5.549h3.428zM117.277 43h2.504V31.384L124.517 43h2.188l4.737-11.616V43h2.503V27.212h-3.293l-4.962 12.427-5.052-12.427h-3.361V43z" fill="url(#paint0_linear_918_12853)"/><defs><linearGradient id="paint0_linear_918_12853" x1="151" y1="23" x2="0" y2="23" gradientUnits="userSpaceOnUse"><stop stop-color="#FF4343"/><stop offset=".5" stop-color="#9C0B93"/><stop offset="1" stop-color="#4C1BB7"/></linearGradient></defs></svg>