<svg width="299" height="19" viewBox="0 0 299 19" fill="none" xmlns="http://www.w3.org/2000/svg"><path d="M9.2 18.15c4.075 0 7.05-2.4 7.6-6.1h-2.975c-.55 2.225-2.225 3.575-4.65 3.575-3.3 0-5.3-2.65-5.3-6.375 0-3.75 2.05-6.375 5.375-6.375 2.375 0 4.025 1.375 4.6 3.575h2.975c-.575-3.7-3.45-6.1-7.45-6.1C4.2.35.925 3.925.925 9.25c0 5.375 3.175 8.9 8.275 8.9zm16.428-13.1c-2 0-3.225.9-4.025 2V.5h-2.7V18h2.7v-6.475c0-2.575 1.3-4.15 3.425-4.15 2 0 3.075 1.3 3.075 3.725V18h2.7v-7.125c0-4.275-2.325-5.825-5.175-5.825zm13.583 13.1c3.9 0 6.525-2.625 6.525-6.55 0-3.9-2.625-6.55-6.525-6.55-3.9 0-6.525 2.65-6.525 6.55 0 3.925 2.625 6.55 6.525 6.55zm0-2.3c-2.275 0-3.75-1.775-3.75-4.25s1.475-4.25 3.75-4.25 3.775 1.775 3.775 4.25-1.5 4.25-3.775 4.25zm14.746 2.3c3.9 0 6.525-2.625 6.525-6.55 0-3.9-2.625-6.55-6.525-6.55-3.9 0-6.525 2.65-6.525 6.55 0 3.925 2.625 6.55 6.525 6.55zm0-2.3c-2.275 0-3.75-1.775-3.75-4.25s1.475-4.25 3.75-4.25 3.775 1.775 3.775 4.25-1.5 4.25-3.775 4.25zm8.073-2.075c.075 2.775 2.425 4.375 5.85 4.375 3.1 0 5.425-1.55 5.425-4 0-2.85-2.375-3.45-5.3-3.8-1.85-.2-3.075-.35-3.075-1.55 0-1.025 1.05-1.675 2.65-1.675 1.6 0 2.7.825 2.85 2h2.65c-.175-2.625-2.4-4.075-5.55-4.075-3.075-.025-5.25 1.55-5.25 3.975 0 2.65 2.3 3.275 5.225 3.625 1.975.25 3.15.35 3.15 1.725 0 1.025-1.1 1.675-2.775 1.675-1.95 0-3.1-.95-3.2-2.275h-2.65zm19.442 4.375c3.175 0 5.325-1.925 5.775-4.45h-2.7c-.375 1.425-1.575 2.25-3.225 2.25-2.125 0-3.5-1.425-3.575-3.6v-.175h9.65c.05-.35.075-.7.075-1.025-.075-3.75-2.55-6.1-6.25-6.1-3.775 0-6.3 2.625-6.3 6.575 0 3.925 2.525 6.525 6.55 6.525zm-3.625-7.95c.2-1.825 1.675-2.975 3.4-2.975 1.875 0 3.2 1.075 3.425 2.975h-6.825zm19.13 4.325c0 2.325 1.05 3.475 3.5 3.475h2.5v-2.375h-1.9c-1.025 0-1.375-.375-1.375-1.375V7.575h3.125V5.2h-3.125V1.625h-2.725V5.2h-2.225v2.375h2.225v6.95zm14.442-9.475c-2 0-3.225.9-4.025 2V.5h-2.7V18h2.7v-6.475c0-2.575 1.3-4.15 3.425-4.15 2 0 3.075 1.3 3.075 3.725V18h2.7v-7.125c0-4.275-2.325-5.825-5.175-5.825zm13.608 13.1c3.175 0 5.325-1.925 5.775-4.45h-2.7c-.375 1.425-1.575 2.25-3.225 2.25-2.125 0-3.5-1.425-3.575-3.6v-.175h9.65c.05-.35.075-.7.075-1.025-.075-3.75-2.55-6.1-6.25-6.1-3.775 0-6.3 2.625-6.3 6.575 0 3.925 2.525 6.525 6.55 6.525zm-3.625-7.95c.2-1.825 1.675-2.975 3.4-2.975 1.875 0 3.2 1.075 3.425 2.975h-6.825zm26.079 7.95c2.775 0 4.575-1.25 5.425-2.5l.25 2.35h2.225V8.425h-7.6v2.425h4.85v.425c-.15 2.825-2.325 4.35-5.025 4.35-3.35 0-5.45-2.625-5.45-6.375s2.15-6.375 5.475-6.375c2.425 0 4.1 1.35 4.625 3.575h2.975c-.525-3.7-3.475-6.1-7.525-6.1-5.2 0-8.5 3.575-8.5 8.9s3.375 8.9 8.275 8.9zm16.876 0c3.9 0 6.525-2.625 6.525-6.55 0-3.9-2.625-6.55-6.525-6.55-3.9 0-6.525 2.65-6.525 6.55 0 3.925 2.625 6.55 6.525 6.55zm0-2.3c-2.275 0-3.75-1.775-3.75-4.25s1.475-4.25 3.75-4.25 3.775 1.775 3.775 4.25-1.5 4.25-3.775 4.25zm8.697 2.15h2.7V.5h-2.7V18zm15.071-11.025c-.825-1.125-2.2-1.925-4.15-1.925-3.475 0-6.05 2.6-6.05 6.55 0 4.1 2.575 6.55 6.05 6.55 2.025 0 3.35-.95 4.175-2.075l.325 1.925h2.35V.5h-2.7v6.475zm-3.7 8.9c-2.25 0-3.725-1.75-3.725-4.275 0-2.5 1.475-4.25 3.725-4.25s3.725 1.75 3.725 4.3c0 2.475-1.475 4.225-3.725 4.225zm14.885-2.1c.075 2.775 2.425 4.375 5.85 4.375 3.1 0 5.425-1.55 5.425-4 0-2.85-2.375-3.45-5.3-3.8-1.85-.2-3.075-.35-3.075-1.55 0-1.025 1.05-1.675 2.65-1.675 1.6 0 2.7.825 2.85 2h2.65c-.175-2.625-2.4-4.075-5.55-4.075-3.075-.025-5.25 1.55-5.25 3.975 0 2.65 2.3 3.275 5.225 3.625 1.975.25 3.15.35 3.15 1.725 0 1.025-1.1 1.675-2.775 1.675-1.95 0-3.1-.95-3.2-2.275h-2.65zm14.293.75c0 2.325 1.05 3.475 3.5 3.475h2.5v-2.375h-1.9c-1.025 0-1.375-.375-1.375-1.375V7.575h3.125V5.2h-3.125V1.625h-2.725V5.2h-2.225v2.375h2.225v6.95zm19.271 1.125c-.55 0-.825-.175-.825-.825V9.7c0-3.025-1.95-4.65-5.35-4.65-3.225 0-5.375 1.55-5.65 4.05h2.65c.2-1.125 1.275-1.875 2.875-1.875 1.775 0 2.8.875 2.8 2.3v.775h-3.225c-3.575 0-5.475 1.475-5.475 4.1 0 2.375 1.95 3.75 4.75 3.75 2.075 0 3.375-.9 4.225-2.2 0 1.275.6 2.05 2.35 2.05h1.425v-2.35h-.55zm-3.5-2.9c-.025 1.975-1.325 3.3-3.575 3.3-1.475 0-2.375-.75-2.375-1.825 0-1.3.925-1.925 2.6-1.925h3.35v.45zm12.27-7.7c-2.075 0-3.3.825-4.1 1.825l-.3-1.675h-2.35V18h2.7v-6.45c0-2.6 1.275-4.175 3.425-4.175 2.025 0 3.05 1.3 3.05 3.725V18h2.725v-7.125c0-4.275-2.325-5.825-5.15-5.825zm17.233 1.925c-.825-1.125-2.2-1.925-4.15-1.925-3.475 0-6.05 2.6-6.05 6.55 0 4.1 2.575 6.55 6.05 6.55 2.025 0 3.35-.95 4.175-2.075l.325 1.925h2.35V.5h-2.7v6.475zm-3.7 8.9c-2.25 0-3.725-1.75-3.725-4.275 0-2.5 1.475-4.25 3.725-4.25s3.725 1.75 3.725 4.3c0 2.475-1.475 4.225-3.725 4.225zm20.739-.225c-.55 0-.825-.175-.825-.825V9.7c0-3.025-1.95-4.65-5.35-4.65-3.225 0-5.375 1.55-5.65 4.05h2.65c.2-1.125 1.275-1.875 2.875-1.875 1.775 0 2.8.875 2.8 2.3v.775h-3.225c-3.575 0-5.475 1.475-5.475 4.1 0 2.375 1.95 3.75 4.75 3.75 2.075 0 3.375-.9 4.225-2.2 0 1.275.6 2.05 2.35 2.05h1.425v-2.35h-.55zm-3.5-2.9c-.025 1.975-1.325 3.3-3.575 3.3-1.475 0-2.375-.75-2.375-1.825 0-1.3.925-1.925 2.6-1.925h3.35v.45zm11.995-7.55c-2.1 0-3.125.85-3.775 1.925l-.3-1.925h-2.4V18h2.7v-6.425c0-1.975.775-3.85 3.175-3.85h1.2V5.2h-.6zm11.38 1.775c-.825-1.125-2.2-1.925-4.15-1.925-3.475 0-6.05 2.6-6.05 6.55 0 4.1 2.575 6.55 6.05 6.55 2.025 0 3.35-.95 4.175-2.075l.325 1.925h2.35V.5h-2.7v6.475zm-3.7 8.9c-2.25 0-3.725-1.75-3.725-4.275 0-2.5 1.475-4.25 3.725-4.25s3.725 1.75 3.725 4.3c0 2.475-1.475 4.225-3.725 4.225z" fill="#000"/></svg>