<svg width="100" height="34" viewBox="0 0 100 34" fill="none" xmlns="http://www.w3.org/2000/svg"><rect width="100" height="34" rx="17" fill="#000"/><path d="M18.953 18.409c.056 1.561 1.188 2.659 3.123 2.659 1.664 0 2.818-.962 2.818-2.331 0-1.54-1.324-1.97-2.614-2.184-1.189-.204-2.15-.397-2.15-1.347 0-.849.69-1.302 1.72-1.302 1.075 0 1.81.6 1.924 1.517h1.018c-.09-1.426-1.177-2.41-2.942-2.41-1.607 0-2.705.905-2.705 2.251 0 1.54 1.313 1.958 2.592 2.173 1.2.204 2.172.408 2.172 1.392 0 .86-.758 1.347-1.822 1.347-1.21 0-2.037-.702-2.116-1.765h-1.018zm7.485 1.086c0 1.018.396 1.505 1.505 1.505h1.007v-.849h-.917c-.498 0-.667-.18-.667-.667v-3.407h1.494v-.849h-1.494V13.61h-.928v1.619h-1.041v.848h1.04v3.418zm8.332.656c-.26 0-.374-.079-.374-.384v-2.524c0-1.347-.849-2.082-2.32-2.082-1.392 0-2.308.667-2.444 1.799h.928c.113-.588.656-.973 1.471-.973.905 0 1.437.452 1.437 1.2v.395h-1.697c-1.517 0-2.32.645-2.32 1.8 0 1.052.86 1.686 2.127 1.686.996 0 1.573-.442 1.936-.962.01.566.271.894 1.04.894h.51v-.849h-.294zm-1.302-1.505c0 .962-.668 1.63-1.822 1.63-.77 0-1.256-.385-1.256-.95 0-.657.464-.963 1.29-.963h1.788v.283zm4.98-3.418c-1.03 0-1.471.43-1.743.872l-.124-.872h-.804V21h.928v-2.942c0-.917.328-1.924 1.54-1.924h.463v-.905h-.26zm1.683 4.267c0 1.018.396 1.505 1.505 1.505h1.007v-.849h-.917c-.498 0-.667-.18-.667-.667v-3.407h1.493v-.849H41.06V13.61h-.928v1.619h-1.042v.848h1.042v3.418zm6.708 0c0 1.018.396 1.505 1.505 1.505h1.007v-.849h-.916c-.498 0-.668-.18-.668-.667v-3.407h1.494v-.849h-1.494V13.61h-.928v1.619h-1.041v.848h1.04v3.418zm5.987-4.267c-1.03 0-1.471.43-1.743.872l-.124-.872h-.804V21h.928v-2.942c0-.917.328-1.924 1.54-1.924h.463v-.905h-.26zm5.97 4.923c-.26 0-.374-.079-.374-.384v-2.524c0-1.347-.849-2.082-2.32-2.082-1.392 0-2.308.667-2.444 1.799h.928c.113-.588.656-.973 1.47-.973.906 0 1.438.452 1.438 1.2v.395h-1.697c-1.517 0-2.32.645-2.32 1.8 0 1.052.86 1.686 2.127 1.686.996 0 1.573-.442 1.935-.962.012.566.272.894 1.041.894h.51v-.849h-.295zm-1.302-1.505c0 .962-.668 1.63-1.822 1.63-.77 0-1.256-.385-1.256-.95 0-.657.464-.963 1.29-.963h1.788v.283zm6.792-2.535c-.35-.554-1.007-.95-1.98-.95-1.596 0-2.773 1.188-2.773 2.953 0 1.879 1.177 2.954 2.773 2.954.973 0 1.595-.464 1.98-.996l.125.928h.803v-7.922h-.928v3.033zm-1.89 4.13c-1.143 0-1.912-.87-1.912-2.127 0-1.256.77-2.127 1.912-2.127 1.132 0 1.901.882 1.901 2.15 0 1.233-.769 2.105-1.9 2.105zm4.558-5.986c.34 0 .6-.249.6-.6 0-.35-.26-.6-.6-.6-.34 0-.6.25-.6.6 0 .351.26.6.6.6zM66.478 21h.928v-5.771h-.928V21zm5.029-5.84c-.974 0-1.562.408-1.901.85l-.125-.782h-.803V21h.928v-2.886c0-1.301.656-2.105 1.742-2.105 1.007 0 1.562.634 1.562 1.834V21h.928v-3.214c0-1.913-1.03-2.625-2.331-2.625zm8.063 1.064c-.362-.645-1.007-1.063-1.98-1.063-1.596 0-2.773 1.188-2.773 2.953 0 1.879 1.177 2.954 2.773 2.954.973 0 1.596-.408 1.98-1.064v.68c0 1.255-.656 1.821-1.867 1.821-.962 0-1.607-.407-1.765-1.131h-.95c.146 1.267 1.176 1.957 2.647 1.957 1.98 0 2.863-.95 2.863-2.614V15.23h-.803l-.125.995zm-1.89 4.018c-1.143 0-1.912-.872-1.912-2.128 0-1.256.77-2.127 1.912-2.127 1.132 0 1.902.882 1.902 2.15 0 1.233-.77 2.105-1.901 2.105z" fill="#fff"/></svg>