<svg width="124" height="12" viewBox="0 0 124 12" fill="none" xmlns="http://www.w3.org/2000/svg"><path d="M.24 1.824h2.592V9h1.38V1.824h2.592V.6H.24v1.224zm9.973 1.032c-1.008 0-1.5.408-1.812.924l-.144-.924H7.105V9H8.4V5.916c0-.948.372-1.848 1.524-1.848h.576V2.856h-.288zm6.516 5.016c-.264 0-.396-.084-.396-.396v-2.46c0-1.452-.936-2.232-2.568-2.232-1.548 0-2.58.744-2.712 1.944h1.272c.096-.54.612-.9 1.38-.9.852 0 1.344.42 1.344 1.104v.372H13.5c-1.716 0-2.628.708-2.628 1.968 0 1.14.936 1.8 2.28 1.8.996 0 1.62-.432 2.028-1.056 0 .612.288.984 1.128.984h.684V7.872h-.264zm-1.68-1.392c-.012.948-.636 1.584-1.716 1.584-.708 0-1.14-.36-1.14-.876 0-.624.444-.924 1.248-.924h1.608v.216zm7.27-2.772c-.395-.54-1.055-.924-1.991-.924-1.668 0-2.904 1.248-2.904 3.144 0 1.968 1.236 3.144 2.904 3.144.972 0 1.608-.456 2.004-.996l.156.924h1.128V.6H22.32v3.108zM20.545 7.98c-1.08 0-1.788-.84-1.788-2.052 0-1.2.708-2.04 1.788-2.04s1.788.84 1.788 2.064c0 1.188-.708 2.028-1.788 2.028zm7.254 1.092c1.524 0 2.556-.924 2.772-2.136h-1.296c-.18.684-.756 1.08-1.548 1.08-1.02 0-1.68-.684-1.716-1.728v-.084h4.632a3.52 3.52 0 00.036-.492c-.036-1.8-1.224-2.928-3-2.928-1.812 0-3.024 1.26-3.024 3.156 0 1.884 1.212 3.132 3.144 3.132zm-1.74-3.816c.096-.876.804-1.428 1.632-1.428.9 0 1.536.516 1.644 1.428h-3.276zm5.893 2.196c-.552 0-.912.36-.912.816 0 .516.312.768.708.768a.645.645 0 00.396-.12c.012.048.012.108.012.156 0 .42-.3.888-1.056.9v.696c1.188-.012 1.932-.672 1.932-1.836 0-.768-.42-1.38-1.08-1.38zm5.814-5.46c.444 0 .792-.324.792-.78s-.348-.78-.792-.78c-.444 0-.792.324-.792.78s.348.78.792.78zM37.105 9H38.4V2.856h-1.296V9zm9.634-6.216c-1.008 0-1.704.444-2.1 1.116-.372-.792-1.092-1.116-1.896-1.116-.924.012-1.452.42-1.8.876l-.144-.804h-1.128V9h1.296V5.712c0-1.092.552-1.812 1.44-1.812.852 0 1.296.564 1.296 1.644V9h1.308V5.676c0-1.104.564-1.776 1.452-1.776.84 0 1.284.564 1.284 1.644V9h1.296V5.46c0-1.944-1.032-2.676-2.304-2.676zm6.767 0c-.96 0-1.596.444-2.004.984l-.156-.912h-1.128V11.4h1.296V8.136c.384.552 1.044.936 1.992.936 1.68 0 2.904-1.248 2.904-3.144 0-1.968-1.224-3.144-2.904-3.144zM53.29 7.98c-1.08 0-1.788-.852-1.788-2.076 0-1.188.708-2.016 1.788-2.016s1.8.828 1.8 2.04c0 1.2-.72 2.052-1.8 2.052zm7.267-5.124c-1.009 0-1.5.408-1.813.924l-.144-.924H57.45V9h1.296V5.916c0-.948.372-1.848 1.524-1.848h.575V2.856h-.288zm3.698 6.216c1.872 0 3.132-1.26 3.132-3.144 0-1.872-1.26-3.144-3.132-3.144s-3.132 1.272-3.132 3.144c0 1.884 1.26 3.144 3.132 3.144zm0-1.104c-1.092 0-1.8-.852-1.8-2.04 0-1.188.708-2.04 1.8-2.04s1.812.852 1.812 2.04c0 1.188-.72 2.04-1.812 2.04zM69.804 9h1.584l2.268-6.144h-1.368L70.62 7.608l-1.692-4.752h-1.392L69.804 9zm7.142.072c1.525 0 2.556-.924 2.773-2.136h-1.296c-.18.684-.757 1.08-1.549 1.08-1.02 0-1.68-.684-1.715-1.728v-.084h4.631a3.52 3.52 0 00.036-.492c-.035-1.8-1.223-2.928-3-2.928-1.811 0-3.023 1.26-3.023 3.156 0 1.884 1.212 3.132 3.144 3.132zm-1.74-3.816c.096-.876.804-1.428 1.632-1.428.9 0 1.537.516 1.645 1.428h-3.276zM81.1 7.452c-.552 0-.912.36-.912.816 0 .516.312.768.708.768a.645.645 0 00.396-.12c.012.048.012.108.012.156 0 .42-.3.888-1.056.9v.696c1.188-.012 1.932-.672 1.932-1.836 0-.768-.42-1.38-1.08-1.38zm8.262-4.596c-1.008 0-1.5.408-1.812.924l-.144-.924h-1.152V9h1.296V5.916c0-.948.372-1.848 1.524-1.848h.576V2.856h-.288zm3.71 6.216c1.525 0 2.556-.924 2.773-2.136h-1.296c-.18.684-.757 1.08-1.549 1.08-1.02 0-1.68-.684-1.715-1.728v-.084h4.631a3.52 3.52 0 00.036-.492c-.035-1.8-1.223-2.928-3-2.928-1.811 0-3.023 1.26-3.023 3.156 0 1.884 1.212 3.132 3.144 3.132zm-1.74-3.816c.096-.876.804-1.428 1.632-1.428.9 0 1.537.516 1.645 1.428h-3.276zm8.956-2.472c-.96 0-1.596.444-2.004.984l-.156-.912H97V11.4h1.296V8.136c.384.552 1.044.936 1.992.936 1.68 0 2.904-1.248 2.904-3.144 0-1.968-1.224-3.144-2.904-3.144zm-.216 5.196c-1.08 0-1.788-.852-1.788-2.076 0-1.188.708-2.016 1.788-2.016s1.8.828 1.8 2.04c0 1.2-.72 2.052-1.8 2.052zm7.075 1.092c1.524 0 2.556-.924 2.772-2.136h-1.296c-.18.684-.756 1.08-1.548 1.08-1.02 0-1.68-.684-1.716-1.728v-.084h4.632a3.52 3.52 0 00.036-.492c-.036-1.8-1.224-2.928-3-2.928-1.812 0-3.024 1.26-3.024 3.156 0 1.884 1.212 3.132 3.144 3.132zm-1.74-3.816c.096-.876.804-1.428 1.632-1.428.9 0 1.536.516 1.644 1.428h-3.276zm11.284 2.616c-.264 0-.396-.084-.396-.396v-2.46c0-1.452-.936-2.232-2.568-2.232-1.548 0-2.58.744-2.712 1.944h1.272c.096-.54.612-.9 1.38-.9.852 0 1.344.42 1.344 1.104v.372h-1.548c-1.716 0-2.629.708-2.629 1.968 0 1.14.937 1.8 2.281 1.8.996 0 1.62-.432 2.028-1.056 0 .612.288.984 1.128.984h.684V7.872h-.264zm-1.68-1.392c-.012.948-.636 1.584-1.716 1.584-.708 0-1.14-.36-1.14-.876 0-.624.444-.924 1.248-.924h1.608v.216zm3.093.852c0 1.116.504 1.668 1.68 1.668h1.2V7.86h-.912c-.492 0-.66-.18-.66-.66V3.996h1.5v-1.14h-1.5V1.14h-1.308v1.716h-1.068v1.14h1.068v3.336zm3.655.924c0 .48.348.816.828.816s.84-.336.84-.816c0-.48-.36-.816-.84-.816s-.828.336-.828.816z" fill="#000"/></svg>