<svg width="104" height="20" viewBox="0 0 104 20" fill="none" xmlns="http://www.w3.org/2000/svg"><rect width="104" height="20" rx="10" fill="#000"/><path d="M14.512 10.608c0 1.6.728 2.44 2.128 2.44 1.4 0 2.144-.84 2.144-2.44V7.4h-.696v3.248c0 1.16-.464 1.76-1.448 1.76-.968 0-1.432-.6-1.432-1.76V7.4h-.696v3.208zm7.289-1.736a1.65 1.65 0 00-1.4.704l-.088-.656h-.568v5.68h.656v-2.224c.248.392.712.672 1.4.672 1.128 0 1.96-.84 1.96-2.088 0-1.328-.832-2.088-1.96-2.088zm-.064 3.592c-.8 0-1.344-.624-1.344-1.52 0-.872.544-1.488 1.344-1.488.808 0 1.352.616 1.352 1.504s-.544 1.504-1.352 1.504zm5.99-2.84c-.256-.456-.712-.752-1.4-.752-1.129 0-1.96.84-1.96 2.088 0 1.328.831 2.088 1.96 2.088.688 0 1.127-.288 1.4-.752v.48c0 .888-.465 1.288-1.32 1.288-.68 0-1.137-.288-1.248-.8h-.672c.104.896.832 1.384 1.872 1.384 1.4 0 2.023-.672 2.023-1.848V8.92h-.568l-.087.704zm-1.337 2.84c-.808 0-1.352-.616-1.352-1.504s.544-1.504 1.352-1.504c.8 0 1.345.624 1.345 1.52 0 .872-.544 1.488-1.345 1.488zm4.774-3.544c-.728 0-1.04.304-1.232.616l-.088-.616h-.568V13h.656v-2.08c0-.648.232-1.36 1.088-1.36h.328v-.64h-.184zm4.22 3.48c-.184 0-.264-.056-.264-.272v-1.784c0-.952-.6-1.472-1.64-1.472-.984 0-1.632.472-1.728 1.272h.656c.08-.416.464-.688 1.04-.688.64 0 1.016.32 1.016.848v.28h-1.2c-1.072 0-1.64.456-1.64 1.272 0 .744.608 1.192 1.504 1.192.704 0 1.112-.312 1.368-.68.008.4.192.632.736.632h.36v-.6h-.208zm-.92-1.064c0 .68-.472 1.152-1.288 1.152-.544 0-.888-.272-.888-.672 0-.464.328-.68.912-.68h1.264v.2zm4.802-1.792c-.248-.392-.712-.672-1.4-.672-1.128 0-1.96.84-1.96 2.088 0 1.328.832 2.088 1.96 2.088a1.65 1.65 0 001.4-.704l.088.656h.568V7.4h-.656v2.144zm-1.336 2.92c-.808 0-1.352-.616-1.352-1.504s.544-1.504 1.352-1.504c.8 0 1.344.624 1.344 1.52 0 .872-.544 1.488-1.344 1.488zm4.765.584c.944 0 1.616-.6 1.776-1.416h-.664c-.136.528-.584.832-1.16.832-.776 0-1.264-.544-1.288-1.32v-.056h3.168c.008-.096.016-.192.016-.28-.032-1.208-.784-1.936-1.936-1.936s-1.936.848-1.936 2.088c0 1.248.8 2.088 2.024 2.088zM41.4 10.544a1.208 1.208 0 011.216-1.096c.68 0 1.16.392 1.224 1.096H41.4zm7.17 2.48l-.2.496c-.151.384-.215.48-.591.48h-.584v.6h.783c.577 0 .729-.256.985-.912l1.88-4.768h-.697l-1.216 3.256-1.256-3.256h-.696l1.593 4.104zm4.462.024c1.192 0 2.024-.848 2.024-2.088 0-1.24-.832-2.088-2.024-2.088-1.192 0-2.024.848-2.024 2.088 0 1.24.832 2.088 2.024 2.088zm0-.584c-.808 0-1.352-.632-1.352-1.504s.544-1.504 1.352-1.504 1.352.632 1.352 1.504-.544 1.504-1.352 1.504zm5.632-1.504c0 .92-.448 1.488-1.192 1.488-.68 0-1.064-.448-1.064-1.296V8.92h-.656v2.272c0 1.352.712 1.856 1.608 1.856.672 0 1.064-.288 1.304-.592l.088.544h.568V8.92h-.656v2.04zm3.439-2.04c-.728 0-1.04.304-1.232.616l-.088-.616h-.568V13h.656v-2.08c0-.648.232-1.36 1.088-1.36h.328v-.64h-.184zm3.15 3.016c0 .72.28 1.064 1.064 1.064h.712v-.6h-.648c-.352 0-.472-.128-.472-.472V9.52h1.056v-.6h-1.056V7.776h-.656V8.92h-.736v.6h.736v2.416zm4.232-3.016c-.728 0-1.04.304-1.232.616l-.088-.616h-.568V13h.656v-2.08c0-.648.232-1.36 1.088-1.36h.328v-.64h-.184zm4.22 3.48c-.184 0-.264-.056-.264-.272v-1.784c0-.952-.6-1.472-1.64-1.472-.984 0-1.632.472-1.728 1.272h.656c.08-.416.464-.688 1.04-.688.64 0 1.016.32 1.016.848v.28h-1.2c-1.072 0-1.64.456-1.64 1.272 0 .744.608 1.192 1.504 1.192.704 0 1.112-.312 1.368-.68.008.4.192.632.736.632h.36v-.6h-.208zm-.92-1.064c0 .68-.472 1.152-1.288 1.152-.544 0-.888-.272-.888-.672 0-.464.328-.68.912-.68h1.264v.2zm4.802-1.792c-.248-.392-.712-.672-1.4-.672-1.128 0-1.96.84-1.96 2.088 0 1.328.832 2.088 1.96 2.088a1.65 1.65 0 001.4-.704l.088.656h.568V7.4h-.656v2.144zm-1.336 2.92c-.808 0-1.352-.616-1.352-1.504s.544-1.504 1.352-1.504c.8 0 1.344.624 1.344 1.52 0 .872-.544 1.488-1.344 1.488zm3.222-4.232c.24 0 .424-.176.424-.424a.412.412 0 00-.424-.424.412.412 0 00-.424.424c0 .248.183.424.424.424zM79.135 13h.656V8.92h-.656V13zm3.555-4.128c-.688 0-1.104.288-1.344.6l-.088-.552h-.568V13h.656v-2.04c0-.92.464-1.488 1.232-1.488.712 0 1.104.448 1.104 1.296V13h.656v-2.272c0-1.352-.728-1.856-1.648-1.856zm5.7.752c-.255-.456-.711-.752-1.4-.752-1.127 0-1.96.84-1.96 2.088 0 1.328.833 2.088 1.96 2.088.689 0 1.129-.288 1.4-.752v.48c0 .888-.463 1.288-1.32 1.288-.68 0-1.135-.288-1.247-.8h-.672c.104.896.832 1.384 1.872 1.384 1.4 0 2.024-.672 2.024-1.848V8.92h-.568l-.088.704zm-1.335 2.84c-.808 0-1.352-.616-1.352-1.504s.544-1.504 1.352-1.504c.8 0 1.344.624 1.344 1.52 0 .872-.544 1.488-1.344 1.488z" fill="#fff"/></svg>