<svg width="152" height="24" viewBox="0 0 152 24" fill="none" xmlns="http://www.w3.org/2000/svg"><path d="M.22.85h2.64V8h.594V.85h2.64V.3H.22v.55zm8.432 1.573c-1.034 0-1.474.495-1.705 1.111l-.088-1.111h-.484V8h.56V5.173c0-1.133.298-2.211 1.607-2.211h.407v-.539h-.297zm5.798 5.06c-.33 0-.495-.11-.495-.539V4.348c0-1.276-.781-1.991-2.178-1.991-1.276 0-2.123.616-2.266 1.628h.56c.144-.682.738-1.133 1.684-1.133 1.045 0 1.639.55 1.639 1.474v.484h-1.892c-1.43 0-2.2.616-2.2 1.661 0 .99.78 1.595 1.969 1.595 1.133 0 1.804-.517 2.145-1.21v.198c-.022.66.253.946.913.946h.33v-.517h-.21zm-1.056-1.738c0 1.067-.76 1.837-2.08 1.837-.89 0-1.44-.451-1.44-1.144 0-.737.55-1.144 1.584-1.144h1.936v.451zm6.483-2.068c-.34-.792-1.089-1.32-2.134-1.32-1.529 0-2.629 1.166-2.629 2.849 0 1.76 1.1 2.86 2.63 2.86 1.044 0 1.77-.561 2.122-1.342L19.954 8h.484V.3h-.56v3.377zm-2.09 3.883c-1.243 0-2.1-.968-2.1-2.354 0-1.375.857-2.354 2.1-2.354s2.101.979 2.101 2.365c0 1.375-.858 2.343-2.1 2.343zm6.435.506c1.22 0 2.156-.792 2.398-1.914h-.572c-.22.869-.957 1.408-1.87 1.408-1.243 0-2.024-.946-2.046-2.244v-.099h4.554c0-.077.01-.165.01-.231-.054-1.661-1.077-2.629-2.573-2.629-1.53 0-2.574 1.166-2.574 2.816 0 1.749 1.089 2.893 2.673 2.893zm-2.046-3.322c.088-1.133.935-1.892 1.958-1.892 1.089 0 1.87.671 1.958 1.892h-3.916zM32.123 8h.605l1.65-4.686L35.951 8h.605l1.98-5.577h-.572l-1.716 4.906-1.595-4.906h-.517l-1.683 4.906-1.628-4.906h-.594L32.123 8zm7.484-6.754c.22 0 .396-.165.396-.396a.388.388 0 00-.396-.396.388.388 0 00-.396.396c0 .231.176.396.396.396zM39.321 8h.561V2.423h-.56V8zm2.298-1.298c0 .891.363 1.298 1.309 1.298h.814v-.517h-.77c-.583 0-.792-.22-.792-.792V2.94h1.507v-.517H42.18V.861h-.561v1.562h-1.056v.517h1.056v3.762zm5.55-4.345c-1.044 0-1.694.583-2.012 1.386V.3h-.561V8h.56V5.25c0-1.452.738-2.376 1.925-2.376 1.067 0 1.727.704 1.727 2.024V8h.562V4.876c0-1.76-.935-2.519-2.2-2.519zm9.806 5.709c1.65 0 2.816-.891 3.146-2.442h-.627c-.33 1.232-1.221 1.892-2.53 1.892-1.782 0-2.904-1.397-2.904-3.366S55.204.784 56.986.784c1.287 0 2.189.671 2.53 1.881h.627c-.341-1.54-1.507-2.431-3.124-2.431-2.167 0-3.575 1.606-3.575 3.916 0 2.332 1.375 3.916 3.53 3.916zm4.578-6.82c.22 0 .396-.165.396-.396a.388.388 0 00-.396-.396.388.388 0 00-.396.396c0 .231.176.396.396.396zM61.267 8h.561V2.423h-.56V8zm2.298-1.298c0 .891.363 1.298 1.31 1.298h.813v-.517h-.77c-.583 0-.792-.22-.792-.792V2.94h1.507v-.517h-1.507V.861h-.56v1.562h-1.057v.517h1.056v3.762zM68.214 8l-.363.902c-.253.616-.352.781-.924.781h-.704v.517h.858c.748 0 .924-.286 1.276-1.166l2.673-6.611h-.605l-1.903 4.851-1.936-4.851h-.605L68.214 8zm6.667 0h.594V.3h-.594V8zm4.623-5.643c-1.023 0-1.684.528-2.003 1.254l-.088-1.188h-.483V8h.56V5.25c0-1.452.738-2.376 1.925-2.376 1.078 0 1.727.704 1.727 2.024V8h.562V4.876c0-1.76-.935-2.519-2.2-2.519zm7.91 1.32c-.342-.792-1.09-1.32-2.135-1.32-1.529 0-2.629 1.166-2.629 2.849 0 1.76 1.1 2.86 2.63 2.86 1.044 0 1.77-.561 2.122-1.342L87.49 8h.484V.3h-.56v3.377zm-2.09 3.883c-1.244 0-2.102-.968-2.102-2.354 0-1.375.858-2.354 2.101-2.354 1.243 0 2.101.979 2.101 2.365 0 1.375-.858 2.343-2.1 2.343zm6.434.506c1.22 0 2.156-.792 2.398-1.914h-.572c-.22.869-.957 1.408-1.87 1.408-1.243 0-2.024-.946-2.046-2.244v-.099h4.554c0-.077.01-.165.01-.231-.054-1.661-1.077-2.629-2.573-2.629-1.53 0-2.574 1.166-2.574 2.816 0 1.749 1.089 2.893 2.673 2.893zm-2.046-3.322c.088-1.133.935-1.892 1.958-1.892 1.089 0 1.87.671 1.958 1.892h-3.916zM94.554 8h.65l1.847-2.453L98.9 8h.682l-2.167-2.849 2.057-2.728h-.638l-1.76 2.31-1.738-2.31h-.67l2.056 2.728L94.554 8zm13.621-.517c-.33 0-.495-.11-.495-.539V4.348c0-1.276-.781-1.991-2.178-1.991-1.276 0-2.123.616-2.266 1.628h.561c.143-.682.737-1.133 1.683-1.133 1.045 0 1.639.55 1.639 1.474v.484h-1.892c-1.43 0-2.2.616-2.2 1.661 0 .99.781 1.595 1.969 1.595 1.133 0 1.804-.517 2.145-1.21v.198c-.022.66.253.946.913.946h.33v-.517h-.209zm-1.056-1.738c0 1.067-.759 1.837-2.079 1.837-.891 0-1.441-.451-1.441-1.144 0-.737.55-1.144 1.584-1.144h1.936v.451zm4.59-3.388c-1.023 0-1.683.528-2.002 1.254l-.088-1.188h-.484V8h.561V5.25c0-1.452.737-2.376 1.925-2.376 1.078 0 1.727.704 1.727 2.024V8h.561V4.876c0-1.76-.935-2.519-2.2-2.519zm7.909 1.32c-.341-.792-1.089-1.32-2.134-1.32-1.529 0-2.629 1.166-2.629 2.849 0 1.76 1.1 2.86 2.629 2.86 1.045 0 1.771-.561 2.123-1.342L119.695 8h.484V.3h-.561v3.377zm-2.09 3.883c-1.243 0-2.101-.968-2.101-2.354 0-1.375.858-2.354 2.101-2.354 1.243 0 2.101.979 2.101 2.365 0 1.375-.858 2.343-2.101 2.343zM5.214 18.677c-.341-.792-1.089-1.32-2.134-1.32-1.529 0-2.629 1.166-2.629 2.849 0 1.76 1.1 2.86 2.629 2.86 1.045 0 1.771-.561 2.123-1.342L5.291 23h.484v-7.7h-.561v3.377zm-2.09 3.883c-1.243 0-2.101-.968-2.101-2.354 0-1.375.858-2.354 2.101-2.354 1.243 0 2.101.979 2.101 2.365 0 1.375-.858 2.343-2.101 2.343zm4.257-6.314c.22 0 .396-.165.396-.396a.388.388 0 00-.396-.396.388.388 0 00-.396.396c0 .231.176.396.396.396zM7.095 23h.56v-5.577h-.56V23zm1.626-1.716c.044 1.155.98 1.782 2.377 1.782 1.198 0 2.166-.605 2.166-1.595 0-1.177-1.034-1.408-2.232-1.573-.87-.121-1.64-.22-1.64-1.001 0-.638.628-1.056 1.574-1.056.89 0 1.529.429 1.628 1.155h.572c-.1-1.089-.99-1.639-2.2-1.639-1.244-.011-2.135.627-2.135 1.584 0 1.122 1.034 1.331 2.178 1.485.935.132 1.694.253 1.694 1.078 0 .66-.692 1.078-1.605 1.078-1.068 0-1.76-.495-1.805-1.298h-.572zm8.045 1.782c1.265 0 2.156-.726 2.376-1.859h-.594c-.187.825-.858 1.353-1.782 1.353-1.221 0-2.068-.957-2.068-2.343 0-1.386.836-2.365 2.068-2.365.935 0 1.595.528 1.793 1.364h.583c-.231-1.155-1.1-1.859-2.365-1.859-1.573 0-2.651 1.166-2.651 2.86 0 1.716 1.067 2.849 2.64 2.849zm5.93 0c1.573 0 2.684-1.166 2.684-2.86 0-1.683-1.11-2.849-2.684-2.849-1.573 0-2.673 1.166-2.673 2.849 0 1.694 1.1 2.86 2.673 2.86zm0-.506c-1.243 0-2.1-.968-2.1-2.354 0-1.375.857-2.354 2.1-2.354s2.101.979 2.101 2.354c0 1.386-.858 2.354-2.1 2.354zm5.18.44h.67l2.179-5.577h-.583l-1.914 4.928-1.925-4.928h-.605L27.876 23zm5.842.066c1.22 0 2.156-.792 2.398-1.914h-.572c-.22.869-.957 1.408-1.87 1.408-1.243 0-2.024-.946-2.046-2.244v-.099h4.554c0-.077.01-.165.01-.231-.054-1.661-1.077-2.629-2.573-2.629-1.53 0-2.574 1.166-2.574 2.816 0 1.749 1.089 2.893 2.673 2.893zm-2.046-3.322c.088-1.133.935-1.892 1.958-1.892 1.089 0 1.87.671 1.958 1.892h-3.916zm7.907-2.321c-1.034 0-1.474.495-1.705 1.111l-.088-1.111h-.484V23h.56v-2.827c0-1.133.298-2.211 1.607-2.211h.407v-.539h-.297zm6.667-.066c-1.045 0-1.694.583-2.013 1.386V15.3h-.561V23h.56v-2.75c0-1.452.738-2.376 1.926-2.376 1.067 0 1.727.704 1.727 2.024V23h.56v-3.124c0-1.76-.934-2.519-2.2-2.519zm5.83 5.709c1.573 0 2.684-1.166 2.684-2.86 0-1.683-1.11-2.849-2.684-2.849-1.573 0-2.673 1.166-2.673 2.849 0 1.694 1.1 2.86 2.673 2.86zm0-.506c-1.243 0-2.1-.968-2.1-2.354 0-1.375.857-2.354 2.1-2.354s2.101.979 2.101 2.354c0 1.386-.858 2.354-2.1 2.354zm4.98.44h.605l1.65-4.686L60.884 23h.605l1.98-5.577h-.572l-1.716 4.906-1.595-4.906h-.517l-1.683 4.906-1.628-4.906h-.594L57.056 23zm11.516 0h.605l1.65-4.686L72.4 23h.605l1.98-5.577h-.572l-1.716 4.906-1.595-4.906h-.517l-1.683 4.906-1.628-4.906h-.594L68.572 23zm9.49.066c1.22 0 2.156-.792 2.398-1.914h-.572c-.22.869-.958 1.408-1.87 1.408-1.243 0-2.025-.946-2.046-2.244v-.099h4.553c0-.077.011-.165.011-.231-.055-1.661-1.078-2.629-2.573-2.629-1.53 0-2.575 1.166-2.575 2.816 0 1.749 1.09 2.893 2.673 2.893zm-2.046-3.322c.087-1.133.934-1.892 1.957-1.892 1.09 0 1.87.671 1.959 1.892h-3.916zm11.29-2.387c-1.046 0-1.783.572-2.135 1.364V15.3h-.56V23h.483l.088-1.265c.33.803 1.078 1.331 2.123 1.331 1.53 0 2.63-1.166 2.63-2.86 0-1.749-1.1-2.849-2.63-2.849zm-.045 5.203c-1.243 0-2.1-.968-2.1-2.365 0-1.364.857-2.343 2.1-2.343s2.101.979 2.101 2.354c0 1.386-.858 2.354-2.1 2.354zm8.69-.077c-.33 0-.495-.11-.495-.539v-2.596c0-1.276-.781-1.991-2.178-1.991-1.276 0-2.123.616-2.266 1.628h.56c.144-.682.738-1.133 1.684-1.133 1.045 0 1.639.55 1.639 1.474v.484h-1.892c-1.43 0-2.2.616-2.2 1.661 0 .99.78 1.595 1.969 1.595 1.133 0 1.804-.517 2.145-1.21v.198c-.022.66.253.946.913.946h.33v-.517h-.21zm-1.056-1.738c0 1.067-.76 1.837-2.08 1.837-.89 0-1.44-.451-1.44-1.144 0-.737.55-1.144 1.584-1.144h1.936v.451zm4.36 2.321c1.265 0 2.156-.726 2.376-1.859h-.594c-.187.825-.858 1.353-1.782 1.353-1.22 0-2.068-.957-2.068-2.343 0-1.386.836-2.365 2.068-2.365.935 0 1.595.528 1.793 1.364h.583c-.231-1.155-1.1-1.859-2.365-1.859-1.573 0-2.65 1.166-2.65 2.86 0 1.716 1.066 2.849 2.64 2.849zm3.467-.066h.561v-1.507l1.309-1.342L106.726 23h.682l-2.431-3.256 2.244-2.321h-.693l-3.245 3.344V15.3h-.561V23zm8.125-1.716c.044 1.155.979 1.782 2.376 1.782 1.199 0 2.167-.605 2.167-1.595 0-1.177-1.034-1.408-2.233-1.573-.869-.121-1.639-.22-1.639-1.001 0-.638.627-1.056 1.573-1.056.891 0 1.529.429 1.628 1.155h.572c-.099-1.089-.99-1.639-2.2-1.639-1.243-.011-2.134.627-2.134 1.584 0 1.122 1.034 1.331 2.178 1.485.935.132 1.694.253 1.694 1.078 0 .66-.693 1.078-1.606 1.078-1.067 0-1.76-.495-1.804-1.298h-.572zm9.662-1.122c0 1.463-.726 2.387-1.881 2.387-1.034 0-1.672-.704-1.672-2.035v-3.091h-.561v3.124c0 1.749.913 2.519 2.145 2.519.99 0 1.639-.528 1.958-1.243l.077 1.177h.495v-5.577h-.561v2.739zm4.312 2.904c1.265 0 2.156-.726 2.376-1.859h-.594c-.187.825-.858 1.353-1.782 1.353-1.221 0-2.068-.957-2.068-2.343 0-1.386.836-2.365 2.068-2.365.935 0 1.595.528 1.793 1.364h.583c-.231-1.155-1.1-1.859-2.365-1.859-1.573 0-2.651 1.166-2.651 2.86 0 1.716 1.067 2.849 2.64 2.849zm5.898 0c1.265 0 2.156-.726 2.376-1.859h-.594c-.187.825-.858 1.353-1.782 1.353-1.221 0-2.068-.957-2.068-2.343 0-1.386.836-2.365 2.068-2.365.935 0 1.595.528 1.793 1.364h.583c-.231-1.155-1.1-1.859-2.365-1.859-1.573 0-2.651 1.166-2.651 2.86 0 1.716 1.067 2.849 2.64 2.849zm5.93 0c1.221 0 2.156-.792 2.398-1.914h-.572c-.22.869-.957 1.408-1.87 1.408-1.243 0-2.024-.946-2.046-2.244v-.099h4.554c0-.077.011-.165.011-.231-.055-1.661-1.078-2.629-2.574-2.629-1.529 0-2.574 1.166-2.574 2.816 0 1.749 1.089 2.893 2.673 2.893zm-2.046-3.322c.088-1.133.935-1.892 1.958-1.892 1.089 0 1.87.671 1.958 1.892h-3.916zm5.367 1.54c.044 1.155.979 1.782 2.376 1.782 1.199 0 2.167-.605 2.167-1.595 0-1.177-1.034-1.408-2.233-1.573-.869-.121-1.639-.22-1.639-1.001 0-.638.627-1.056 1.573-1.056.891 0 1.529.429 1.628 1.155h.572c-.099-1.089-.99-1.639-2.2-1.639-1.243-.011-2.134.627-2.134 1.584 0 1.122 1.034 1.331 2.178 1.485.935.132 1.694.253 1.694 1.078 0 .66-.693 1.078-1.606 1.078-1.067 0-1.76-.495-1.804-1.298h-.572zm5.252 0c.044 1.155.979 1.782 2.376 1.782 1.199 0 2.167-.605 2.167-1.595 0-1.177-1.034-1.408-2.233-1.573-.869-.121-1.639-.22-1.639-1.001 0-.638.627-1.056 1.573-1.056.891 0 1.529.429 1.628 1.155h.572c-.099-1.089-.99-1.639-2.2-1.639-1.243-.011-2.134.627-2.134 1.584 0 1.122 1.034 1.331 2.178 1.485.935.132 1.694.253 1.694 1.078 0 .66-.693 1.078-1.606 1.078-1.067 0-1.76-.495-1.804-1.298h-.572zm5.451 1.353c0 .253.176.418.418.418a.398.398 0 00.418-.418c0-.253-.176-.407-.418-.407s-.418.154-.418.407z" fill="#000"/></svg>