<svg width="156" height="54" viewBox="0 0 156 54" fill="none" xmlns="http://www.w3.org/2000/svg"><path d="M1.664 19h2.99V.8h-2.99V19zM14.72 5.532c-2.158 0-3.432.858-4.264 1.898l-.312-1.742H7.7V19h2.808v-6.708c0-2.704 1.326-4.342 3.562-4.342 2.106 0 3.172 1.352 3.172 3.874V19h2.834v-7.41c0-4.446-2.418-6.058-5.356-6.058zM25.66 19h3.431l4.914-13.312h-2.964l-3.614 10.296-3.666-10.296h-3.016L25.66 19zm15.476.156c3.301 0 5.537-2.002 6.005-4.628h-2.807c-.39 1.482-1.639 2.34-3.355 2.34-2.21 0-3.64-1.482-3.718-3.744v-.182h10.036c.053-.364.079-.728.079-1.066-.078-3.9-2.652-6.344-6.5-6.344-3.926 0-6.552 2.73-6.552 6.838 0 4.082 2.626 6.786 6.812 6.786zm-3.77-8.268c.208-1.898 1.742-3.094 3.535-3.094 1.95 0 3.328 1.118 3.563 3.094h-7.099zm11.631 3.718c.078 2.886 2.522 4.55 6.084 4.55 3.224 0 5.642-1.612 5.642-4.16 0-2.964-2.47-3.588-5.512-3.952-1.924-.208-3.198-.364-3.198-1.612 0-1.066 1.092-1.742 2.756-1.742 1.664 0 2.808.858 2.964 2.08h2.756c-.182-2.73-2.496-4.238-5.772-4.238-3.198-.026-5.46 1.612-5.46 4.134 0 2.756 2.392 3.406 5.434 3.77 2.054.26 3.276.364 3.276 1.794 0 1.066-1.144 1.742-2.886 1.742-2.028 0-3.224-.988-3.328-2.366h-2.756zm14.864.78c0 2.418 1.093 3.614 3.64 3.614h2.6v-2.47h-1.975c-1.067 0-1.43-.39-1.43-1.43V8.158h3.25v-2.47h-3.25V1.97h-2.834v3.718h-2.315v2.47h2.315v7.228zm14.066 3.77c3.301 0 5.537-2.002 6.005-4.628h-2.808c-.39 1.482-1.637 2.34-3.353 2.34-2.21 0-3.64-1.482-3.719-3.744v-.182h10.036c.053-.364.079-.728.079-1.066-.079-3.9-2.653-6.344-6.5-6.344-3.927 0-6.552 2.73-6.552 6.838 0 4.082 2.626 6.786 6.812 6.786zm-3.77-8.268c.208-1.898 1.742-3.094 3.535-3.094 1.95 0 3.329 1.118 3.563 3.094h-7.099zM96.55 7.534c-.858-1.17-2.288-2.002-4.316-2.002-3.614 0-6.292 2.704-6.292 6.812 0 4.264 2.678 6.812 6.292 6.812 2.106 0 3.484-.988 4.342-2.158L96.915 19h2.444V.8H96.55v6.734zm-3.848 9.256c-2.34 0-3.874-1.82-3.874-4.446 0-2.6 1.534-4.42 3.874-4.42s3.874 1.82 3.874 4.472c0 2.574-1.534 4.394-3.874 4.394zm17.482-12.974c.962 0 1.716-.702 1.716-1.69s-.754-1.69-1.716-1.69-1.716.702-1.716 1.69.754 1.69 1.716 1.69zM108.755 19h2.808V5.688h-2.808V19zm12.581-13.468c-2.158 0-3.432.858-4.264 1.898l-.313-1.742h-2.443V19h2.808v-6.708c0-2.704 1.326-4.342 3.562-4.342 2.106 0 3.172 1.352 3.172 3.874V19h2.834v-7.41c0-4.446-2.418-6.058-5.356-6.058zM5.226 48.078l-.52 1.3C4.29 50.47 4.03 50.73 2.938 50.73H.962v2.47h3.016c1.95 0 2.522-.962 3.354-3.12l6.032-15.392h-2.99L6.76 44.802 3.042 34.688H.052l5.174 13.39zm15.24.078c4.057 0 6.787-2.73 6.787-6.812 0-4.056-2.73-6.812-6.786-6.812-4.056 0-6.786 2.756-6.786 6.812 0 4.082 2.73 6.812 6.786 6.812zm0-2.392c-2.365 0-3.9-1.846-3.9-4.42s1.535-4.42 3.9-4.42c2.367 0 3.927 1.846 3.927 4.42s-1.56 4.42-3.926 4.42zm18.17-4.42c0 2.756-1.3 4.368-3.431 4.368-2.054 0-3.094-1.326-3.094-3.926v-7.098h-2.808v7.41c0 4.55 2.418 6.058 5.252 6.058 2.054 0 3.276-.832 4.108-1.846l.312 1.69h2.47V34.688h-2.808v6.656zm12.31-6.656c-2.184 0-3.25.884-3.926 2.002l-.312-2.002h-2.496V48h2.808v-6.682c0-2.054.806-4.004 3.302-4.004h1.248v-2.626h-.624zm8.436 8.918c.078 2.886 2.522 4.55 6.084 4.55 3.224 0 5.642-1.612 5.642-4.16 0-2.964-2.47-3.588-5.512-3.952-1.924-.208-3.198-.364-3.198-1.612 0-1.066 1.092-1.742 2.756-1.742 1.664 0 2.808.858 2.964 2.08h2.756c-.182-2.73-2.496-4.238-5.772-4.238-3.198-.026-5.46 1.612-5.46 4.134 0 2.756 2.392 3.406 5.434 3.77 2.054.26 3.276.364 3.276 1.794 0 1.066-1.144 1.742-2.886 1.742-2.028 0-3.224-.988-3.328-2.366h-2.756zm23.028-2.262c0 2.756-1.3 4.368-3.432 4.368-2.054 0-3.094-1.326-3.094-3.926v-7.098h-2.808v7.41c0 4.55 2.418 6.058 5.252 6.058 2.054 0 3.276-.832 4.108-1.846l.312 1.69h2.47V34.688H82.41v6.656zm11.685 6.812c3.406 0 5.668-1.898 6.188-4.914h-2.964c-.338 1.534-1.482 2.522-3.198 2.522-2.262 0-3.744-1.794-3.744-4.394 0-2.626 1.482-4.446 3.744-4.446 1.742 0 2.86.962 3.224 2.522h2.938c-.546-3.016-2.678-4.914-6.11-4.914-4.03 0-6.682 2.73-6.682 6.838 0 4.16 2.574 6.786 6.604 6.786zm14.448 0c3.406 0 5.668-1.898 6.188-4.914h-2.964c-.338 1.534-1.482 2.522-3.198 2.522-2.262 0-3.744-1.794-3.744-4.394 0-2.626 1.482-4.446 3.744-4.446 1.742 0 2.86.962 3.224 2.522h2.938c-.546-3.016-2.678-4.914-6.11-4.914-4.03 0-6.682 2.73-6.682 6.838 0 4.16 2.574 6.786 6.604 6.786zm14.655 0c3.302 0 5.538-2.002 6.006-4.628h-2.808c-.39 1.482-1.638 2.34-3.354 2.34-2.21 0-3.64-1.482-3.718-3.744v-.182h10.036c.052-.364.078-.728.078-1.066-.078-3.9-2.652-6.344-6.5-6.344-3.926 0-6.552 2.73-6.552 6.838 0 4.082 2.626 6.786 6.812 6.786zm-3.77-8.268c.208-1.898 1.742-3.094 3.536-3.094 1.95 0 3.328 1.118 3.562 3.094h-7.098zm11.632 3.718c.078 2.886 2.522 4.55 6.084 4.55 3.224 0 5.642-1.612 5.642-4.16 0-2.964-2.47-3.588-5.512-3.952-1.924-.208-3.198-.364-3.198-1.612 0-1.066 1.092-1.742 2.756-1.742 1.664 0 2.808.858 2.964 2.08h2.756c-.182-2.73-2.496-4.238-5.772-4.238-3.198-.026-5.46 1.612-5.46 4.134 0 2.756 2.392 3.406 5.434 3.77 2.054.26 3.276.364 3.276 1.794 0 1.066-1.144 1.742-2.886 1.742-2.028 0-3.224-.988-3.328-2.366h-2.756zm13.076 0c.078 2.886 2.522 4.55 6.084 4.55 3.224 0 5.642-1.612 5.642-4.16 0-2.964-2.47-3.588-5.512-3.952-1.924-.208-3.198-.364-3.198-1.612 0-1.066 1.092-1.742 2.756-1.742 1.664 0 2.808.858 2.964 2.08h2.756c-.182-2.73-2.496-4.238-5.772-4.238-3.198-.026-5.46 1.612-5.46 4.134 0 2.756 2.392 3.406 5.434 3.77 2.054.26 3.276.364 3.276 1.794 0 1.066-1.144 1.742-2.886 1.742-2.028 0-3.224-.988-3.328-2.366h-2.756z" fill="#000"/></svg>