<svg width="159" height="29" viewBox="0 0 159 29" fill="none" xmlns="http://www.w3.org/2000/svg"><path d="M3.312 9c2.664 0 4.224-1.656 4.224-4.2 0-2.556-1.56-4.2-4.224-4.2H.864V9h2.448zm-1.8-7.8h1.8c2.292 0 3.564 1.392 3.564 3.6 0 2.196-1.272 3.6-3.564 3.6h-1.8V1.2zm7.63.432c.24 0 .431-.18.431-.432a.423.423 0 00-.432-.432c-.24 0-.432.18-.432.432s.192.432.432.432zM8.828 9h.612V2.916H8.83V9zm1.775-1.872c.048 1.26 1.068 1.944 2.592 1.944 1.308 0 2.364-.66 2.364-1.74 0-1.284-1.128-1.536-2.436-1.716-.948-.132-1.788-.24-1.788-1.092 0-.696.684-1.152 1.716-1.152.972 0 1.668.468 1.776 1.26h.624c-.108-1.188-1.08-1.788-2.4-1.788-1.356-.012-2.328.684-2.328 1.728 0 1.224 1.128 1.452 2.376 1.62 1.02.144 1.848.276 1.848 1.176 0 .72-.756 1.176-1.752 1.176-1.164 0-1.92-.54-1.968-1.416h-.624zm8.776 1.944c1.38 0 2.352-.792 2.592-2.028h-.648c-.204.9-.936 1.476-1.944 1.476-1.332 0-2.256-1.044-2.256-2.556s.912-2.58 2.256-2.58c1.02 0 1.74.576 1.956 1.488h.636c-.252-1.26-1.2-2.028-2.58-2.028-1.716 0-2.892 1.272-2.892 3.12 0 1.872 1.164 3.108 2.88 3.108zm6.47 0c1.715 0 2.927-1.272 2.927-3.12 0-1.836-1.212-3.108-2.928-3.108s-2.916 1.272-2.916 3.108c0 1.848 1.2 3.12 2.916 3.12zm0-.552c-1.357 0-2.293-1.056-2.293-2.568 0-1.5.936-2.568 2.292-2.568 1.356 0 2.292 1.068 2.292 2.568 0 1.512-.936 2.568-2.292 2.568zM31.5 9h.732l2.376-6.084h-.636l-2.088 5.376-2.1-5.376h-.66L31.5 9zm6.373.072c1.332 0 2.352-.864 2.616-2.088h-.624c-.24.948-1.044 1.536-2.04 1.536-1.356 0-2.208-1.032-2.232-2.448v-.108h4.968c0-.084.012-.18.012-.252-.06-1.812-1.176-2.868-2.808-2.868-1.668 0-2.808 1.272-2.808 3.072 0 1.908 1.188 3.156 2.916 3.156zM35.64 5.448c.096-1.236 1.02-2.064 2.136-2.064 1.188 0 2.04.732 2.136 2.064H35.64zm8.626-2.532c-1.129 0-1.609.54-1.86 1.212l-.096-1.212h-.529V9h.613V5.916c0-1.236.323-2.412 1.752-2.412h.444v-.588h-.325zm7.273-.072c-1.14 0-1.848.636-2.196 1.512V.6h-.612V9h.612V6c0-1.584.804-2.592 2.1-2.592 1.164 0 1.884.768 1.884 2.208V9h.612V5.592c0-1.92-1.02-2.748-2.4-2.748zm6.36 6.228c1.716 0 2.928-1.272 2.928-3.12 0-1.836-1.212-3.108-2.928-3.108s-2.916 1.272-2.916 3.108c0 1.848 1.2 3.12 2.916 3.12zm0-.552c-1.356 0-2.292-1.056-2.292-2.568 0-1.5.936-2.568 2.292-2.568 1.356 0 2.292 1.068 2.292 2.568 0 1.512-.936 2.568-2.292 2.568zm5.433.48h.66l1.8-5.112L67.509 9h.66l2.16-6.084h-.624l-1.872 5.352-1.74-5.352h-.564l-1.836 5.352-1.776-5.352h-.648L63.333 9zm12.562 0h.66l1.8-5.112L80.071 9h.66l2.16-6.084h-.624l-1.872 5.352-1.74-5.352h-.564l-1.836 5.352-1.776-5.352h-.648L75.895 9zm10.353.072c1.332 0 2.352-.864 2.616-2.088h-.624C88 7.932 87.196 8.52 86.2 8.52c-1.356 0-2.208-1.032-2.232-2.448v-.108h4.968c0-.084.012-.18.012-.252-.06-1.812-1.176-2.868-2.808-2.868-1.668 0-2.808 1.272-2.808 3.072 0 1.908 1.188 3.156 2.916 3.156zm-2.232-3.624c.096-1.236 1.02-2.064 2.136-2.064 1.188 0 2.04.732 2.136 2.064h-4.272zm12.316-2.604c-1.14 0-1.944.624-2.328 1.488V.6h-.612V9h.528l.096-1.38c.36.876 1.176 1.452 2.316 1.452C98 9.072 99.2 7.8 99.2 5.952c0-1.908-1.2-3.108-2.868-3.108zm-.048 5.676c-1.356 0-2.292-1.056-2.292-2.58 0-1.488.936-2.556 2.292-2.556 1.356 0 2.292 1.068 2.292 2.568 0 1.512-.936 2.568-2.292 2.568zm9.479-.084c-.36 0-.54-.12-.54-.588V5.016c0-1.392-.852-2.172-2.376-2.172-1.392 0-2.316.672-2.472 1.776h.612c.156-.744.804-1.236 1.836-1.236 1.14 0 1.788.6 1.788 1.608v.528h-2.064c-1.56 0-2.4.672-2.4 1.812 0 1.08.852 1.74 2.148 1.74 1.236 0 1.968-.564 2.34-1.32v.216c-.024.72.276 1.032.996 1.032h.36v-.564h-.228zm-1.152-1.896c0 1.164-.828 2.004-2.268 2.004-.972 0-1.572-.492-1.572-1.248 0-.804.6-1.248 1.728-1.248h2.112v.492zm4.757 2.532c1.38 0 2.352-.792 2.592-2.028h-.648c-.204.9-.936 1.476-1.944 1.476-1.332 0-2.256-1.044-2.256-2.556s.912-2.58 2.256-2.58c1.02 0 1.74.576 1.956 1.488h.636c-.252-1.26-1.2-2.028-2.58-2.028-1.716 0-2.892 1.272-2.892 3.12 0 1.872 1.164 3.108 2.88 3.108zM113.15 9h.612V7.356l1.428-1.464L117.518 9h.744l-2.652-3.552 2.448-2.532h-.756l-3.54 3.648V.6h-.612V9zM.444 24.128c.048 1.26 1.068 1.944 2.592 1.944 1.308 0 2.364-.66 2.364-1.74 0-1.284-1.128-1.536-2.436-1.716-.948-.132-1.788-.24-1.788-1.092 0-.696.684-1.152 1.716-1.152.972 0 1.668.468 1.776 1.26h.624c-.108-1.188-1.08-1.788-2.4-1.788-1.356-.012-2.328.684-2.328 1.728 0 1.224 1.128 1.452 2.376 1.62 1.02.144 1.848.276 1.848 1.176 0 .72-.756 1.176-1.752 1.176-1.164 0-1.92-.54-1.968-1.416H.444zm10.54-1.224c0 1.596-.792 2.604-2.052 2.604-1.128 0-1.824-.768-1.824-2.22v-3.372h-.612v3.408c0 1.908.996 2.748 2.34 2.748 1.08 0 1.788-.576 2.136-1.356L11.056 26h.54v-6.084h-.612v2.988zm4.704 3.168c1.38 0 2.352-.792 2.592-2.028h-.648c-.204.9-.936 1.476-1.944 1.476-1.332 0-2.256-1.044-2.256-2.556s.912-2.58 2.256-2.58c1.02 0 1.74.576 1.956 1.488h.636c-.252-1.26-1.2-2.028-2.58-2.028-1.716 0-2.892 1.272-2.892 3.12 0 1.872 1.164 3.108 2.88 3.108zm6.434 0c1.38 0 2.352-.792 2.592-2.028h-.648c-.204.9-.936 1.476-1.944 1.476-1.332 0-2.256-1.044-2.256-2.556s.912-2.58 2.256-2.58c1.02 0 1.74.576 1.956 1.488h.636c-.252-1.26-1.2-2.028-2.58-2.028-1.716 0-2.892 1.272-2.892 3.12 0 1.872 1.164 3.108 2.88 3.108zm6.47 0c1.332 0 2.352-.864 2.616-2.088h-.624c-.24.948-1.044 1.536-2.04 1.536-1.356 0-2.208-1.032-2.232-2.448v-.108h4.968c0-.084.012-.18.012-.252-.06-1.812-1.176-2.868-2.808-2.868-1.668 0-2.808 1.272-2.808 3.072 0 1.908 1.188 3.156 2.916 3.156zm-2.232-3.624c.096-1.236 1.02-2.064 2.136-2.064 1.188 0 2.04.732 2.136 2.064H26.36zm5.854 1.68c.047 1.26 1.068 1.944 2.592 1.944 1.308 0 2.364-.66 2.364-1.74 0-1.284-1.129-1.536-2.437-1.716-.947-.132-1.787-.24-1.787-1.092 0-.696.684-1.152 1.715-1.152.972 0 1.669.468 1.776 1.26h.625c-.108-1.188-1.08-1.788-2.4-1.788-1.356-.012-2.328.684-2.328 1.728 0 1.224 1.127 1.452 2.375 1.62 1.02.144 1.848.276 1.848 1.176 0 .72-.756 1.176-1.752 1.176-1.163 0-1.92-.54-1.968-1.416h-.623zm5.73 0c.048 1.26 1.068 1.944 2.592 1.944 1.308 0 2.364-.66 2.364-1.74 0-1.284-1.128-1.536-2.436-1.716-.948-.132-1.788-.24-1.788-1.092 0-.696.684-1.152 1.716-1.152.972 0 1.668.468 1.776 1.26h.624c-.108-1.188-1.08-1.788-2.4-1.788-1.356-.012-2.328.684-2.328 1.728 0 1.224 1.128 1.452 2.376 1.62 1.02.144 1.848.276 1.848 1.176 0 .72-.756 1.176-1.752 1.176-1.164 0-1.92-.54-1.968-1.416h-.624zm5.946 1.476c0 .276.192.456.456.456s.456-.18.456-.456-.192-.444-.456-.444-.456.168-.456.444zm5.03-7.404h2.88V26h.648v-7.8h2.88v-.6H48.92v.6zm9.198 1.716c-1.128 0-1.608.54-1.86 1.212l-.096-1.212h-.528V26h.612v-3.084c0-1.236.324-2.412 1.752-2.412h.444v-.588h-.324zm6.325 5.52c-.36 0-.54-.12-.54-.588v-2.832c0-1.392-.852-2.172-2.376-2.172-1.392 0-2.316.672-2.472 1.776h.612c.156-.744.804-1.236 1.836-1.236 1.14 0 1.788.6 1.788 1.608v.528h-2.064c-1.56 0-2.4.672-2.4 1.812 0 1.08.852 1.74 2.148 1.74 1.236 0 1.968-.564 2.34-1.32v.216c-.024.72.276 1.032.996 1.032h.36v-.564h-.228zm-1.152-1.896c0 1.164-.828 2.004-2.268 2.004-.972 0-1.572-.492-1.572-1.248 0-.804.6-1.248 1.728-1.248h2.112v.492zm7.073-2.256c-.372-.864-1.188-1.44-2.328-1.44-1.668 0-2.868 1.272-2.868 3.108 0 1.92 1.2 3.12 2.868 3.12 1.14 0 1.932-.612 2.316-1.464L70.448 26h.528v-8.4h-.612v3.684zm-2.28 4.236c-1.356 0-2.292-1.056-2.292-2.568 0-1.5.936-2.568 2.292-2.568 1.356 0 2.292 1.068 2.292 2.58 0 1.5-.936 2.556-2.292 2.556zm7.02.552c1.331 0 2.351-.864 2.615-2.088h-.624c-.24.948-1.044 1.536-2.04 1.536-1.356 0-2.208-1.032-2.232-2.448v-.108h4.968c0-.084.012-.18.012-.252-.06-1.812-1.176-2.868-2.808-2.868-1.668 0-2.808 1.272-2.808 3.072 0 1.908 1.188 3.156 2.916 3.156zm-2.233-3.624c.096-1.236 1.02-2.064 2.136-2.064 1.188 0 2.04.732 2.136 2.064h-4.272zM83.723 26h.66l1.8-5.112L87.9 26h.66l2.16-6.084h-.624l-1.872 5.352-1.74-5.352h-.564l-1.836 5.352-1.776-5.352h-.648L83.723 26zm8.165-7.368c.24 0 .431-.18.431-.432a.423.423 0 00-.431-.432c-.24 0-.433.18-.433.432s.192.432.433.432zM91.575 26h.612v-6.084h-.611V26zm2.507-1.416c0 .972.396 1.416 1.428 1.416h.888v-.564h-.84c-.636 0-.864-.24-.864-.864V20.48h1.644v-.564h-1.644v-1.704h-.612v1.704H92.93v.564h1.152v4.104zm6.055-4.74c-1.14 0-1.848.636-2.196 1.512V17.6h-.612V26h.612v-3c0-1.584.804-2.592 2.1-2.592 1.164 0 1.884.768 1.884 2.208V26h.612v-3.408c0-1.92-1.02-2.748-2.4-2.748zm10.697 6.228c1.8 0 3.072-.972 3.432-2.664h-.684c-.36 1.344-1.332 2.064-2.76 2.064-1.944 0-3.168-1.524-3.168-3.672s1.248-3.672 3.192-3.672c1.404 0 2.388.732 2.76 2.052h.684c-.372-1.68-1.644-2.652-3.408-2.652-2.364 0-3.9 1.752-3.9 4.272 0 2.544 1.5 4.272 3.852 4.272zm4.995-7.44c.24 0 .432-.18.432-.432a.423.423 0 00-.432-.432c-.24 0-.432.18-.432.432s.192.432.432.432zM115.517 26h.612v-6.084h-.612V26zm2.507-1.416c0 .972.396 1.416 1.428 1.416h.888v-.564h-.84c-.636 0-.864-.24-.864-.864V20.48h1.644v-.564h-1.644v-1.704h-.612v1.704h-1.152v.564h1.152v4.104zM123.095 26l-.396.984c-.276.672-.384.852-1.008.852h-.768v.564h.936c.816 0 1.008-.312 1.392-1.272l2.916-7.212h-.66l-2.076 5.292-2.112-5.292h-.66L123.095 26zm7.273 0h.648v-8.4h-.648V26zm5.043-6.156c-1.116 0-1.836.576-2.184 1.368l-.096-1.296h-.528V26h.612v-3c0-1.584.804-2.592 2.1-2.592 1.176 0 1.884.768 1.884 2.208V26h.612v-3.408c0-1.92-1.02-2.748-2.4-2.748zm8.629 1.44c-.372-.864-1.188-1.44-2.328-1.44-1.668 0-2.868 1.272-2.868 3.108 0 1.92 1.2 3.12 2.868 3.12 1.14 0 1.932-.612 2.316-1.464l.096 1.392h.528v-8.4h-.612v3.684zm-2.28 4.236c-1.356 0-2.292-1.056-2.292-2.568 0-1.5.936-2.568 2.292-2.568 1.356 0 2.292 1.068 2.292 2.58 0 1.5-.936 2.556-2.292 2.556zm7.019.552c1.332 0 2.352-.864 2.616-2.088h-.624c-.24.948-1.044 1.536-2.04 1.536-1.356 0-2.208-1.032-2.232-2.448v-.108h4.968c0-.084.012-.18.012-.252-.06-1.812-1.176-2.868-2.808-2.868-1.668 0-2.808 1.272-2.808 3.072 0 1.908 1.188 3.156 2.916 3.156zm-2.232-3.624c.096-1.236 1.02-2.064 2.136-2.064 1.188 0 2.04.732 2.136 2.064h-4.272zM151.83 26h.708l2.016-2.676L156.57 26h.744l-2.364-3.108 2.244-2.976h-.696l-1.92 2.52-1.896-2.52h-.732l2.244 2.976L151.83 26zm6.177-.396c0 .276.192.456.456.456s.456-.18.456-.456-.192-.444-.456-.444-.456.168-.456.444z" fill="#000"/></svg>