<svg width="137" height="151" viewBox="0 0 137 151" fill="none" xmlns="http://www.w3.org/2000/svg"><path d="M7.512 93.395c-.386 0-.58-.129-.58-.63v-3.038c0-1.493-.913-2.33-2.547-2.33-1.493 0-2.484.721-2.651 1.906h.656c.167-.798.862-1.326 1.969-1.326 1.223 0 1.918.644 1.918 1.724v.567H4.063c-1.673 0-2.574.72-2.574 1.943 0 1.158.914 1.866 2.304 1.866 1.325 0 2.11-.605 2.51-1.415v.231C6.276 93.665 6.597 94 7.37 94h.387v-.605h-.245zm-1.235-2.033c0 1.248-.888 2.149-2.433 2.149-1.042 0-1.686-.528-1.686-1.338 0-.863.644-1.339 1.854-1.339h2.265v.528zm2.846 1.12c0 1.042.425 1.518 1.532 1.518h.952v-.605h-.9c-.683 0-.927-.257-.927-.926v-4.39h1.763v-.604H9.78v-1.827h-.657v1.827H7.888v.605h1.235v4.401zM16.911 94v-7.748L22.24 94h.657v-9.009h-.683v7.748l-5.328-7.748h-.656V94h.682zm12.42-3.32c0 1.711-.849 2.792-2.2 2.792-1.21 0-1.956-.823-1.956-2.38v-3.617h-.656v3.655c0 2.046 1.068 2.947 2.51 2.947 1.157 0 1.917-.617 2.29-1.454l.09 1.377h.58v-6.525h-.657v3.205zm9.487-3.282c-1.197 0-1.97.67-2.343 1.634-.309-1.08-1.12-1.634-2.149-1.634-1.12 0-1.789.656-2.123 1.467l-.103-1.39h-.567V94h.657v-3.32c0-1.596.772-2.677 2.02-2.677 1.133 0 1.84.798 1.84 2.303V94h.657v-3.552c.039-1.493.81-2.445 2.033-2.445 1.133 0 1.815.759 1.815 2.239V94h.67v-3.784c0-1.969-1.043-2.818-2.407-2.818zm7.016 0c-1.222 0-2.085.67-2.496 1.596V84.99h-.657V94h.567l.102-1.48c.387.94 1.262 1.557 2.484 1.557 1.79 0 3.076-1.364 3.076-3.346 0-2.046-1.287-3.333-3.076-3.333zm-.051 6.087c-1.454 0-2.458-1.132-2.458-2.767 0-1.596 1.004-2.741 2.458-2.741 1.454 0 2.458 1.145 2.458 2.754 0 1.622-1.004 2.754-2.458 2.754zm7.31.592c1.428 0 2.522-.926 2.805-2.24h-.67c-.257 1.018-1.119 1.648-2.187 1.648-1.454 0-2.368-1.107-2.394-2.625v-.116h5.328c0-.09.013-.193.013-.27-.064-1.944-1.261-3.076-3.011-3.076-1.79 0-3.012 1.364-3.012 3.294 0 2.047 1.274 3.385 3.127 3.385zm-2.394-3.886c.102-1.326 1.093-2.214 2.29-2.214 1.275 0 2.188.785 2.291 2.214H50.7zm9.25-2.716c-1.21 0-1.724.58-1.994 1.3l-.103-1.3h-.567V94h.657v-3.308c0-1.325.347-2.586 1.879-2.586h.476v-.63h-.348zm6.18-1.338c0 .411-.194.695-.593.695h-1.544v.605h1.544c.27 0 .463-.078.58-.22V94h.668v-9.009h-.656v1.146zm2.225 3.564c0 2.639 1.3 4.376 3.256 4.376 1.93 0 3.243-1.737 3.243-4.376v-.411c0-2.561-1.312-4.376-3.243-4.376-1.956 0-3.256 1.815-3.256 4.376v.411zm5.817-.025c0 2.29-1.016 3.784-2.56 3.784-1.558 0-2.575-1.493-2.575-3.784v-.36c0-2.291 1.017-3.784 2.574-3.784 1.545 0 2.561 1.493 2.561 3.783v.36zM81.29 94h.708l1.93-5.483L85.768 94h.708l2.317-6.525h-.67l-2.007 5.74-1.866-5.74h-.605l-1.97 5.74-1.904-5.74h-.695L81.29 94zm8.756-7.902a.453.453 0 00.463-.463.453.453 0 00-.463-.464.453.453 0 00-.464.464c0 .27.206.463.464.463zM89.71 94h.656v-6.525h-.656V94zm2.688-1.519c0 1.043.425 1.519 1.532 1.519h.952v-.605h-.9c-.683 0-.927-.257-.927-.926v-4.39h1.763v-.604h-1.763v-1.827h-.657v1.827h-1.235v.605h1.235v4.401zm6.494-5.083c-1.222 0-1.982.682-2.355 1.621v-4.028h-.656V94h.656v-3.217c0-1.7.862-2.78 2.252-2.78 1.249 0 2.021.823 2.021 2.368V94h.656v-3.655c0-2.06-1.094-2.947-2.574-2.947zm-89.837 15c-1.196 0-1.969.669-2.342 1.634-.309-1.081-1.12-1.634-2.15-1.634-1.119 0-1.788.656-2.123 1.467l-.103-1.39h-.566V109h.657v-3.32c0-1.596.772-2.677 2.02-2.677 1.133 0 1.84.798 1.84 2.303V109h.657v-3.552c.038-1.493.81-2.445 2.033-2.445 1.133 0 1.815.759 1.815 2.239V109h.67v-3.784c0-1.969-1.043-2.818-2.408-2.818zm9.604 5.997c-.386 0-.58-.129-.58-.63v-3.038c0-1.493-.913-2.329-2.547-2.329-1.493 0-2.484.721-2.652 1.905h.657c.167-.798.862-1.326 1.969-1.326 1.223 0 1.917.643 1.917 1.725v.566h-2.213c-1.673 0-2.574.72-2.574 1.943 0 1.158.914 1.866 2.304 1.866 1.325 0 2.11-.605 2.51-1.415v.231c-.027.772.295 1.107 1.067 1.107h.386v-.605h-.244zm-1.236-2.033c0 1.248-.888 2.149-2.432 2.149-1.042 0-1.686-.528-1.686-1.338 0-.863.644-1.339 1.853-1.339h2.265v.528zm5.022-3.887c-1.21 0-1.724.579-1.995 1.3l-.102-1.3h-.567V109h.657v-3.308c0-1.325.347-2.586 1.879-2.586h.476v-.631h-.348zm1.32 6.525h.657v-1.763l1.531-1.57L28.451 109h.798l-2.844-3.809 2.625-2.716h-.81l-3.797 3.912v-6.396h-.657V109zm8.89.077c1.43 0 2.523-.926 2.806-2.239h-.669c-.257 1.017-1.12 1.647-2.188 1.647-1.454 0-2.368-1.107-2.394-2.625v-.116h5.328c0-.09.013-.193.013-.27-.064-1.944-1.26-3.076-3.011-3.076-1.79 0-3.012 1.364-3.012 3.294 0 2.047 1.274 3.385 3.128 3.385zm-2.393-3.886c.103-1.326 1.094-2.214 2.29-2.214 1.275 0 2.189.785 2.291 2.214h-4.581zm6.975 2.29c0 1.043.425 1.519 1.532 1.519h.952v-.605h-.9c-.683 0-.928-.257-.928-.926v-4.389h1.764v-.605h-1.764v-1.827h-.656v1.827h-1.235v.605h1.235v4.401zm7.212-1.866v-.553h-4.157v.553h4.157zM45.987 109h.656v-9.009h-.656V109zm5.082.077c1.428 0 2.522-.926 2.805-2.239h-.669c-.257 1.017-1.12 1.647-2.188 1.647-1.454 0-2.368-1.107-2.393-2.625v-.116h5.328c0-.09.013-.193.013-.27-.065-1.944-1.262-3.076-3.012-3.076-1.789 0-3.012 1.364-3.012 3.294 0 2.047 1.275 3.385 3.128 3.385zm-2.394-3.886c.103-1.326 1.094-2.214 2.29-2.214 1.275 0 2.189.785 2.292 2.214h-4.582zm12.327 3.204c-.386 0-.58-.129-.58-.63v-3.038c0-1.493-.913-2.329-2.548-2.329-1.492 0-2.483.721-2.65 1.905h.656c.167-.798.862-1.326 1.969-1.326 1.222 0 1.917.643 1.917 1.725v.566h-2.213c-1.673 0-2.574.72-2.574 1.943 0 1.158.913 1.866 2.303 1.866 1.326 0 2.111-.605 2.51-1.415v.231c-.026.772.296 1.107 1.068 1.107h.386v-.605h-.244zm-1.236-2.033c0 1.248-.888 2.149-2.432 2.149-1.043 0-1.686-.528-1.686-1.338 0-.863.643-1.339 1.853-1.339h2.265v.528zm7.586-2.42c-.4-.926-1.275-1.544-2.497-1.544-1.79 0-3.076 1.364-3.076 3.333 0 2.059 1.287 3.346 3.076 3.346 1.222 0 2.072-.656 2.484-1.57l.103 1.493h.566v-9.009h-.656v3.951zm-2.446 4.543c-1.454 0-2.458-1.132-2.458-2.754 0-1.609 1.004-2.754 2.458-2.754 1.455 0 2.458 1.145 2.458 2.767 0 1.609-1.003 2.741-2.458 2.741zm4.98-7.387a.453.453 0 00.464-.463.454.454 0 00-.464-.464.454.454 0 00-.463.464c0 .27.206.463.463.463zM69.552 109h.656v-6.525h-.656V109zm5.21-6.602c-1.196 0-1.968.618-2.342 1.467l-.103-1.39h-.566V109h.656v-3.217c0-1.699.863-2.78 2.253-2.78 1.261 0 2.02.823 2.02 2.368V109h.657v-3.655c0-2.059-1.094-2.947-2.574-2.947zm9.343 1.596c-.4-.966-1.275-1.596-2.484-1.596-1.79 0-3.076 1.351-3.076 3.333 0 2.059 1.287 3.346 3.076 3.346 1.222 0 2.085-.643 2.496-1.66v1.158c0 1.738-.823 2.484-2.393 2.484-1.223 0-2.072-.553-2.278-1.544h-.682c.206 1.39 1.325 2.136 2.908 2.136 2.11 0 3.102-1.004 3.102-3.05v-6.126h-.567l-.102 1.519zm-2.433 4.491c-1.454 0-2.458-1.132-2.458-2.754 0-1.621 1.004-2.754 2.458-2.754 1.454 0 2.458 1.133 2.458 2.767 0 1.609-1.004 2.741-2.458 2.741zM1.476 121.992c.052 1.352 1.146 2.085 2.78 2.085 1.403 0 2.535-.708 2.535-1.866 0-1.377-1.21-1.647-2.612-1.84-1.017-.142-1.918-.258-1.918-1.171 0-.747.734-1.236 1.84-1.236 1.043 0 1.79.502 1.905 1.351h.67c-.116-1.274-1.159-1.917-2.574-1.917-1.455-.013-2.497.733-2.497 1.853 0 1.313 1.21 1.557 2.548 1.737 1.094.155 1.982.296 1.982 1.262 0 .772-.81 1.261-1.879 1.261-1.248 0-2.06-.579-2.11-1.519h-.67zm9.72-4.594c-1.222 0-2.071.656-2.483 1.57l-.103-1.493h-.566v9.099H8.7v-4.08c.373.953 1.261 1.583 2.497 1.583 1.789 0 3.076-1.364 3.076-3.346 0-2.046-1.287-3.333-3.076-3.333zm-.05 6.087c-1.455 0-2.459-1.132-2.459-2.767 0-1.596 1.004-2.741 2.458-2.741 1.455 0 2.458 1.145 2.458 2.754 0 1.622-1.003 2.754-2.458 2.754zm7.09-6.01c-1.21 0-1.725.579-1.995 1.3l-.103-1.3h-.566V124h.656v-3.308c0-1.325.348-2.586 1.88-2.586h.475v-.631h-.347zm3.738 6.602c1.428 0 2.522-.926 2.805-2.239h-.669c-.257 1.017-1.12 1.647-2.188 1.647-1.454 0-2.368-1.107-2.393-2.625v-.116h5.328c0-.09.012-.193.012-.27-.064-1.944-1.26-3.076-3.011-3.076-1.789 0-3.012 1.364-3.012 3.294 0 2.047 1.275 3.385 3.128 3.385zm-2.394-3.886c.103-1.326 1.094-2.214 2.29-2.214 1.275 0 2.189.785 2.292 2.214H19.58zm12.327 3.204c-.386 0-.58-.129-.58-.63v-3.038c0-1.493-.913-2.329-2.548-2.329-1.492 0-2.483.721-2.65 1.905h.655c.168-.798.863-1.326 1.97-1.326 1.222 0 1.917.643 1.917 1.725v.566h-2.213c-1.673 0-2.574.72-2.574 1.943 0 1.158.913 1.866 2.303 1.866 1.326 0 2.111-.605 2.51-1.415v.231c-.026.772.296 1.107 1.068 1.107h.386v-.605h-.244zm-1.236-2.033c0 1.248-.888 2.149-2.432 2.149-1.043 0-1.686-.528-1.686-1.338 0-.863.643-1.339 1.853-1.339h2.265v.528zm7.586-2.42c-.4-.926-1.275-1.544-2.497-1.544-1.79 0-3.076 1.364-3.076 3.333 0 2.059 1.287 3.346 3.076 3.346 1.222 0 2.072-.656 2.484-1.57l.103 1.493h.566v-9.009h-.656v3.951zm-2.446 4.543c-1.454 0-2.458-1.132-2.458-2.754 0-1.609 1.004-2.754 2.458-2.754 1.455 0 2.458 1.145 2.458 2.767 0 1.609-1.003 2.741-2.458 2.741zm4.35-1.493c.051 1.352 1.145 2.085 2.78 2.085 1.402 0 2.535-.708 2.535-1.866 0-1.377-1.21-1.647-2.613-1.84-1.016-.142-1.917-.258-1.917-1.171 0-.747.733-1.236 1.84-1.236 1.043 0 1.789.502 1.905 1.351h.669c-.116-1.274-1.158-1.917-2.574-1.917-1.454-.013-2.497.733-2.497 1.853 0 1.313 1.21 1.557 2.549 1.737 1.093.155 1.981.296 1.981 1.262 0 .772-.81 1.261-1.879 1.261-1.248 0-2.059-.579-2.11-1.519h-.67zm12.919 2.085c1.84 0 3.14-1.364 3.14-3.346 0-1.969-1.3-3.333-3.14-3.333s-3.128 1.364-3.128 3.333c0 1.982 1.287 3.346 3.128 3.346zm0-.592c-1.454 0-2.458-1.132-2.458-2.754 0-1.609 1.004-2.754 2.458-2.754 1.454 0 2.458 1.145 2.458 2.754 0 1.622-1.004 2.754-2.458 2.754zm7.456-6.087c-1.197 0-1.97.618-2.343 1.467l-.103-1.39h-.566V124h.657v-3.217c0-1.699.862-2.78 2.252-2.78 1.26 0 2.02.823 2.02 2.368V124h.657v-3.655c0-2.059-1.094-2.947-2.574-2.947zm11.459 6.679c1.428 0 2.355-.643 2.793-1.287l.128 1.21h1.146v-4.929h-3.913v1.248h2.497v.219c-.077 1.454-1.197 2.239-2.587 2.239-1.724 0-2.805-1.351-2.805-3.281 0-1.931 1.106-3.282 2.818-3.282 1.248 0 2.11.695 2.381 1.84h1.531c-.27-1.905-1.788-3.14-3.873-3.14-2.677 0-4.376 1.84-4.376 4.582 0 2.741 1.737 4.581 4.26 4.581zM77.71 124h3.423c2.175 0 3.346-.978 3.346-2.574 0-1.287-.824-1.918-1.892-2.085.94-.257 1.545-.901 1.545-1.969 0-1.48-1.133-2.381-3.115-2.381H77.71V124zm3.346-7.773c1.03 0 1.596.489 1.596 1.287 0 .81-.58 1.3-1.596 1.3H79.19v-2.587h1.866zm.09 3.809c1.145 0 1.814.489 1.814 1.377 0 .837-.63 1.339-1.814 1.339H79.19v-2.716h1.956zM85.778 124h1.48v-3.269h2.072c1.88 0 3.115-1.132 3.115-2.87 0-1.75-1.236-2.87-3.115-2.87h-3.552V124zm3.437-7.722c1.055 0 1.724.605 1.724 1.583 0 .965-.682 1.583-1.737 1.583h-1.944v-3.166h1.957zm11.046 1.055c-1.03 0-1.712.477-2.15 1.056l-.167-.978h-1.21v9.163h1.39v-3.501c.412.592 1.12 1.004 2.137 1.004 1.801 0 3.114-1.338 3.114-3.372 0-2.11-1.313-3.372-3.114-3.372zm-.232 5.573c-1.158 0-1.918-.914-1.918-2.226 0-1.274.76-2.162 1.918-2.162s1.93.888 1.93 2.187c0 1.287-.772 2.201-1.93 2.201zm10.483-.116c-.283 0-.425-.09-.425-.424v-2.639c0-1.557-1.004-2.394-2.754-2.394-1.66 0-2.767.798-2.908 2.085h1.364c.103-.579.656-.965 1.48-.965.913 0 1.441.451 1.441 1.184v.399h-1.66c-1.84 0-2.819.759-2.819 2.111 0 1.222 1.004 1.93 2.446 1.93 1.068 0 1.737-.463 2.175-1.132 0 .656.309 1.055 1.209 1.055h.734v-1.21h-.283zm-1.802-1.493c-.013 1.017-.682 1.699-1.84 1.699-.76 0-1.223-.386-1.223-.939 0-.67.476-.991 1.339-.991h1.724v.231zm3.55-4.813c.476 0 .849-.347.849-.836s-.373-.837-.849-.837-.849.348-.849.837.373.836.849.836zm-.708 7.516h1.39v-6.589h-1.39V124zm6.086-6.589c-1.081 0-1.609.437-1.944.991l-.154-.991h-1.235V124h1.389v-3.308c0-1.016.399-1.981 1.635-1.981h.618v-1.3h-.309zm.77 4.414c.038 1.429 1.248 2.252 3.011 2.252 1.596 0 2.793-.798 2.793-2.059 0-1.467-1.223-1.776-2.728-1.956-.953-.103-1.583-.18-1.583-.798 0-.528.54-.862 1.364-.862.823 0 1.39.424 1.467 1.029h1.364c-.09-1.351-1.235-2.098-2.857-2.098-1.583-.012-2.703.798-2.703 2.047 0 1.364 1.184 1.686 2.69 1.866 1.017.129 1.622.18 1.622.888 0 .528-.567.862-1.429.862-1.004 0-1.596-.489-1.647-1.171h-1.364zM7.705 137.79c-.283 0-.425-.09-.425-.424v-2.639c0-1.557-1.003-2.394-2.754-2.394-1.66 0-2.767.798-2.908 2.085h1.364c.103-.579.656-.965 1.48-.965.914 0 1.441.451 1.441 1.184v.399h-1.66c-1.84 0-2.818.759-2.818 2.111 0 1.222 1.004 1.93 2.445 1.93 1.068 0 1.737-.463 2.175-1.132 0 .656.309 1.055 1.21 1.055h.733v-1.21h-.283zm-1.802-1.493c-.013 1.017-.682 1.699-1.84 1.699-.76 0-1.223-.386-1.223-.939 0-.67.477-.991 1.339-.991h1.724v.231zm6.317-3.964c-1.068 0-1.699.425-2.11.94l-.155-.862h-1.21V139h1.39v-3.32c0-1.339.657-2.15 1.763-2.15 1.043 0 1.57.67 1.57 1.918V139h1.403v-3.668c0-2.201-1.197-2.999-2.65-2.999zm8.871.991c-.424-.579-1.132-.991-2.136-.991-1.789 0-3.114 1.339-3.114 3.372 0 2.111 1.325 3.372 3.114 3.372 1.043 0 1.725-.489 2.15-1.068l.167.991h1.21v-9.009h-1.39v3.333zm-1.904 4.582c-1.159 0-1.918-.901-1.918-2.201 0-1.287.76-2.187 1.918-2.187s1.917.9 1.917 2.213c0 1.274-.759 2.175-1.917 2.175zm8.422-.695c0 1.197.54 1.789 1.801 1.789h1.287v-1.223h-.978c-.527 0-.708-.193-.708-.707v-3.437h1.61v-1.222h-1.61v-1.841H27.61v1.841h-1.146v1.222h1.146v3.578zm7.434-4.878c-1.03 0-1.66.464-2.072 1.03v-3.372h-1.39V139h1.39v-3.333c0-1.326.67-2.137 1.764-2.137 1.03 0 1.583.67 1.583 1.918V139h1.39v-3.668c0-2.201-1.197-2.999-2.664-2.999zm7.006 6.744c1.634 0 2.74-.991 2.973-2.291h-1.39c-.194.734-.811 1.159-1.66 1.159-1.095 0-1.802-.734-1.841-1.854v-.09h4.968c.026-.18.038-.36.038-.527-.038-1.931-1.312-3.141-3.217-3.141-1.943 0-3.243 1.352-3.243 3.385 0 2.021 1.3 3.359 3.372 3.359zm-1.867-4.092c.103-.94.863-1.532 1.75-1.532.966 0 1.648.554 1.764 1.532h-3.514zm9.462.154c0 2.561 1.21 3.938 3.54 3.938 2.341 0 3.564-1.377 3.564-3.938v-5.148h-1.48v5.225c0 1.673-.644 2.549-2.085 2.549-1.416 0-2.059-.876-2.059-2.549v-5.225h-1.48v5.148zM58.342 139h1.48v-2.381l1.557-1.75L64.212 139H66l-3.552-5.225 3.307-3.784h-1.802l-4.13 4.646v-4.646h-1.48V139zm13.077-8.095c0 .476-.193.811-.657.811H69.36v1.222h1.468c.244 0 .437-.038.566-.115V139h1.428v-9.009H71.42v.914zm2.739 3.797c0 2.715 1.454 4.375 3.552 4.375s3.552-1.66 3.552-4.375v-.412c0-2.613-1.454-4.376-3.552-4.376s-3.552 1.763-3.552 4.376v.412zm5.663-.052c0 2.021-.85 3.179-2.111 3.179-1.261 0-2.11-1.158-2.11-3.179v-.309c0-2.008.849-3.179 2.11-3.179s2.11 1.171 2.11 3.179v.309zm2.443.052c0 2.715 1.455 4.375 3.552 4.375 2.098 0 3.552-1.66 3.552-4.375v-.412c0-2.613-1.454-4.376-3.552-4.376-2.097 0-3.552 1.763-3.552 4.376v.412zm5.663-.052c0 2.021-.85 3.179-2.11 3.179-1.262 0-2.111-1.158-2.111-3.179v-.309c0-2.008.85-3.179 2.11-3.179 1.262 0 2.111 1.171 2.111 3.179v.309zm2.637 3.925c0 .296.206.489.489.489.283 0 .489-.193.489-.489s-.206-.476-.49-.476c-.282 0-.488.18-.488.476zM.314 65.607h3.393V75h1.806v-9.393h3.393v-1.602H.314v1.602zm13.054 1.351c-1.32 0-1.964.534-2.372 1.21l-.189-1.21H9.3V75h1.697v-4.037c0-1.24.487-2.418 1.995-2.418h.754v-1.587h-.377zm8.528 6.566c-.345 0-.518-.11-.518-.519v-3.22c0-1.9-1.225-2.921-3.361-2.921-2.027 0-3.377.974-3.55 2.544h1.665c.125-.707.8-1.178 1.806-1.178 1.115 0 1.76.55 1.76 1.445v.487H17.67c-2.246 0-3.44.927-3.44 2.576 0 1.492 1.225 2.356 2.984 2.356 1.304 0 2.12-.565 2.655-1.382 0 .801.377 1.288 1.476 1.288h.896v-1.476h-.346zm-2.199-1.822c-.015 1.24-.832 2.073-2.246 2.073-.927 0-1.492-.471-1.492-1.147 0-.817.581-1.21 1.634-1.21h2.104v.284zm9.517-3.629c-.518-.707-1.382-1.21-2.607-1.21-2.183 0-3.801 1.634-3.801 4.116 0 2.576 1.618 4.115 3.801 4.115 1.272 0 2.105-.597 2.623-1.303L29.434 75h1.477V64.005h-1.697v4.068zm-2.324 5.592c-1.414 0-2.34-1.1-2.34-2.686 0-1.57.926-2.67 2.34-2.67 1.413 0 2.34 1.1 2.34 2.701 0 1.555-.927 2.655-2.34 2.655zm9.495 1.43c1.995 0 3.346-1.21 3.629-2.797h-1.697c-.236.896-.99 1.414-2.026 1.414-1.335 0-2.199-.895-2.246-2.262v-.11h6.063c.031-.22.047-.44.047-.644-.047-2.356-1.602-3.832-3.927-3.832-2.372 0-3.958 1.649-3.958 4.13 0 2.467 1.586 4.1 4.115 4.1zm-2.277-4.996c.125-1.146 1.052-1.869 2.136-1.869 1.178 0 2.01.676 2.152 1.87h-4.288zm12.018 2.718c0 1.46.66 2.183 2.2 2.183h1.57v-1.492h-1.194c-.644 0-.864-.236-.864-.864V68.45h1.964v-1.492h-1.964v-2.246h-1.712v2.246h-1.398v1.492h1.398v4.367zm9.074-5.953c-1.257 0-2.026.565-2.529 1.256v-4.115h-1.696V75h1.696v-4.068c0-1.618.817-2.607 2.152-2.607 1.257 0 1.932.816 1.932 2.34V75h1.696v-4.477c0-2.685-1.46-3.66-3.25-3.66zm8.55 8.23c1.994 0 3.345-1.21 3.628-2.796H65.68c-.235.896-.99 1.414-2.026 1.414-1.335 0-2.199-.895-2.246-2.262v-.11h6.063c.032-.22.047-.44.047-.644-.047-2.356-1.602-3.832-3.927-3.832-2.371 0-3.958 1.649-3.958 4.13 0 2.467 1.587 4.1 4.115 4.1zM61.471 70.1c.126-1.146 1.052-1.869 2.136-1.869 1.178 0 2.01.676 2.152 1.87h-4.288zm15.678-3.235c-1.303 0-2.073.518-2.576 1.146l-.188-1.052h-1.477V75h1.697v-4.052c0-1.634.8-2.623 2.152-2.623 1.272 0 1.916.816 1.916 2.34V75h1.712v-4.477c0-2.685-1.46-3.66-3.236-3.66zm8.534 8.23c1.995 0 3.346-1.21 3.628-2.796h-1.696c-.236.896-.99 1.414-2.026 1.414-1.335 0-2.2-.895-2.246-2.262v-.11h6.063c.03-.22.047-.44.047-.644-.047-2.356-1.602-3.832-3.927-3.832-2.372 0-3.958 1.649-3.958 4.13 0 2.467 1.586 4.1 4.115 4.1zM83.406 70.1c.126-1.146 1.053-1.869 2.137-1.869 1.178 0 2.01.676 2.151 1.87h-4.288zM92.402 75h1.838L96 69.534 97.695 75h1.822l2.67-8.042h-1.728l-1.9 6.157-1.76-6.157h-1.555l-1.837 6.157-1.838-6.157h-1.79L92.401 75zm18.514.094c1.995 0 3.346-1.21 3.629-2.796h-1.697c-.235.896-.989 1.414-2.026 1.414-1.335 0-2.199-.895-2.246-2.262v-.11h6.063c.031-.22.047-.44.047-.644-.047-2.356-1.602-3.832-3.927-3.832-2.372 0-3.958 1.649-3.958 4.13 0 2.467 1.586 4.1 4.115 4.1zm-2.277-4.995c.125-1.146 1.052-1.869 2.136-1.869 1.178 0 2.01.676 2.152 1.87h-4.288zm11.486-3.14c-1.319 0-1.963.533-2.371 1.209l-.189-1.21h-1.508V75h1.697v-4.037c0-1.24.487-2.418 1.994-2.418h.754v-1.587h-.377zm8.529 6.565c-.346 0-.518-.11-.518-.519v-3.22c0-1.9-1.225-2.921-3.362-2.921-2.026 0-3.377.974-3.549 2.544h1.665c.125-.707.801-1.178 1.806-1.178 1.115 0 1.759.55 1.759 1.445v.487h-2.026c-2.246 0-3.44.927-3.44 2.576 0 1.492 1.225 2.356 2.984 2.356 1.304 0 2.121-.565 2.655-1.382 0 .801.377 1.288 1.476 1.288H129v-1.476h-.346zm-2.199-1.822c-.016 1.24-.832 2.073-2.246 2.073-.927 0-1.492-.471-1.492-1.147 0-.817.581-1.21 1.633-1.21h2.105v.284z" fill="#000"/><path d="M1.444 21h2.594v-5.73H7.51L10.556 21h2.888l-3.339-6.293c1.85-.655 3.068-2.346 3.068-4.466 0-3.068-2.21-5.03-5.504-5.03H1.444V21zM7.466 7.466c1.85 0 3.045 1.083 3.045 2.775 0 1.691-1.195 2.774-3.045 2.774H4.038V7.466h3.428zm9.024.36c.835 0 1.489-.608 1.489-1.465 0-.857-.654-1.466-1.489-1.466-.835 0-1.489.609-1.489 1.466s.654 1.466 1.489 1.466zM15.25 21h2.436V9.451h-2.437V21zm4.327-3.812c.068 2.504 2.188 3.947 5.278 3.947 2.797 0 4.895-1.398 4.895-3.609 0-2.571-2.143-3.112-4.782-3.428-1.669-.18-2.774-.316-2.774-1.399 0-.925.947-1.511 2.39-1.511 1.444 0 2.437.744 2.572 1.804h2.391c-.158-2.368-2.165-3.676-5.007-3.676-2.775-.023-4.737 1.398-4.737 3.586 0 2.391 2.075 2.955 4.714 3.27 1.782.226 2.842.317 2.842 1.557 0 .925-.992 1.512-2.504 1.512-1.759 0-2.797-.858-2.887-2.053h-2.39zm18.129-7.872c-1.805 0-2.91.812-3.632 1.804V5.21h-2.436V21h2.436v-5.842c0-2.323 1.173-3.745 3.09-3.745 1.805 0 2.775 1.173 2.775 3.361V21h2.436v-6.429c0-3.857-2.098-5.255-4.67-5.255zm8.125-1.49c.835 0 1.489-.608 1.489-1.465 0-.857-.654-1.466-1.489-1.466-.834 0-1.489.609-1.489 1.466s.655 1.466 1.49 1.466zM44.591 21h2.436V9.451H44.59V21zm10.212-5.188c.09 3.158 2.458 5.323 6.383 5.323 3.474 0 5.842-1.962 5.842-4.804.023-3.113-2.526-3.948-5.143-4.421-2.48-.429-4.105-.767-4.105-2.391 0-1.49 1.24-2.256 3.023-2.256 1.917 0 3.18 1.083 3.383 2.684h2.594c-.113-2.91-2.368-4.872-5.977-4.872-3.361 0-5.617 1.872-5.617 4.624 0 3.136 2.481 3.97 5.098 4.421 2.504.451 4.15.812 4.15 2.482 0 1.51-1.353 2.345-3.225 2.345-2.21 0-3.655-1.24-3.79-3.09l-2.616-.045zm22.178-.586c0 2.39-1.128 3.789-2.977 3.789-1.782 0-2.685-1.15-2.685-3.406V9.451h-2.436v6.429c0 3.947 2.098 5.255 4.557 5.255 1.782 0 2.842-.722 3.564-1.601l.27 1.466h2.143V9.451h-2.436v5.774zm10.927-5.91c-1.872 0-2.977.744-3.7 1.646l-.27-1.511h-2.12V21h2.436v-5.82c0-2.345 1.15-3.767 3.09-3.767 1.827 0 2.752 1.173 2.752 3.361V21h2.459v-6.429c0-3.857-2.098-5.255-4.647-5.255zm17.419 9.564c-.496 0-.744-.158-.744-.745v-4.624c0-2.73-1.76-4.195-4.828-4.195-2.91 0-4.85 1.398-5.097 3.654h2.39c.181-1.015 1.151-1.692 2.595-1.692 1.601 0 2.526.79 2.526 2.075v.7h-2.91c-3.225 0-4.94 1.33-4.94 3.699 0 2.143 1.76 3.383 4.286 3.383 1.872 0 3.045-.812 3.812-1.985 0 1.15.541 1.85 2.12 1.85h1.286v-2.12h-.496zm-3.158-2.617c-.023 1.782-1.196 2.978-3.226 2.978-1.33 0-2.142-.677-2.142-1.647 0-1.173.834-1.737 2.345-1.737h3.023v.406zM107.15 21h2.436v-2.932l2.075-2.166L115.068 21h2.887l-4.624-6.88 4.353-4.669h-2.865l-5.233 5.594V5.21h-2.436V21zM7.376 34.316c-1.782 0-2.977.812-3.744 1.85V30.21H1.195V46h2.12l.294-1.67c.722 1.038 1.962 1.805 3.767 1.805 3.158 0 5.459-2.368 5.459-5.91 0-3.721-2.301-5.91-5.459-5.91zm-.406 9.767c-2.03 0-3.36-1.602-3.36-3.88 0-2.233 1.33-3.812 3.36-3.812s3.384 1.579 3.384 3.834c0 2.279-1.354 3.858-3.384 3.858zm13.298 2.052c2.865 0 4.805-1.736 5.21-4.015h-2.436c-.338 1.286-1.42 2.03-2.91 2.03-1.917 0-3.157-1.285-3.225-3.248v-.158h8.707a6.62 6.62 0 00.068-.925c-.068-3.383-2.301-5.503-5.64-5.503-3.406 0-5.684 2.368-5.684 5.932 0 3.541 2.278 5.887 5.91 5.887zm-3.27-7.173c.18-1.646 1.51-2.684 3.067-2.684 1.692 0 2.887.97 3.09 2.684h-6.158zm15.954 7.173c2.955 0 4.917-1.646 5.368-4.263H35.75c-.293 1.331-1.286 2.188-2.775 2.188-1.962 0-3.248-1.556-3.248-3.812 0-2.278 1.286-3.857 3.248-3.857 1.512 0 2.482.834 2.798 2.188h2.548c-.473-2.617-2.323-4.263-5.3-4.263-3.497 0-5.798 2.368-5.798 5.932 0 3.61 2.234 5.887 5.73 5.887zm12.692 0c3.519 0 5.887-2.368 5.887-5.91 0-3.518-2.368-5.91-5.887-5.91-3.52 0-5.887 2.392-5.887 5.91 0 3.542 2.368 5.91 5.887 5.91zm0-2.075c-2.053 0-3.384-1.601-3.384-3.835 0-2.233 1.331-3.834 3.384-3.834 2.052 0 3.406 1.601 3.406 3.834 0 2.234-1.354 3.835-3.406 3.835zm21.132-9.744c-1.895 0-3.203.834-3.948 2.097-.699-1.488-2.052-2.097-3.564-2.097-1.736.022-2.729.79-3.383 1.646l-.27-1.511H53.49V46h2.436v-6.18c0-2.053 1.038-3.407 2.707-3.407 1.601 0 2.436 1.06 2.436 3.09V46h2.459v-6.248c0-2.075 1.06-3.339 2.729-3.339 1.579 0 2.414 1.06 2.414 3.09V46h2.436v-6.654c0-3.654-1.94-5.03-4.331-5.03zm11.932 11.82c2.865 0 4.805-1.738 5.21-4.016h-2.435c-.339 1.286-1.421 2.03-2.91 2.03-1.917 0-3.158-1.285-3.226-3.248v-.158h8.707a6.62 6.62 0 00.068-.925c-.068-3.383-2.3-5.503-5.64-5.503-3.405 0-5.684 2.368-5.684 5.932 0 3.541 2.279 5.887 5.91 5.887zm-3.27-7.174c.18-1.646 1.51-2.684 3.067-2.684 1.692 0 2.888.97 3.09 2.684h-6.157zm10.091 3.226c.068 2.504 2.188 3.947 5.278 3.947 2.797 0 4.895-1.398 4.895-3.609 0-2.571-2.143-3.113-4.782-3.428-1.67-.18-2.774-.316-2.774-1.399 0-.925.947-1.511 2.39-1.511 1.444 0 2.437.744 2.572 1.804H95.5c-.158-2.368-2.165-3.676-5.007-3.676-2.775-.023-4.737 1.398-4.737 3.586 0 2.391 2.075 2.955 4.714 3.27 1.782.226 2.842.317 2.842 1.557 0 .925-.992 1.512-2.504 1.512-1.76 0-2.797-.858-2.887-2.053h-2.391zM103.609 46h2.594v-5.73h3.632c3.293 0 5.459-1.984 5.459-5.03 0-3.067-2.166-5.03-5.459-5.03h-6.226V46zm6.023-13.534c1.85 0 3.023 1.06 3.023 2.774 0 1.692-1.196 2.775-3.046 2.775h-3.406v-5.549h3.429zM117.289 46h2.504V34.383L124.529 46h2.188l4.737-11.617V46h2.504V30.21h-3.293l-4.963 12.43-5.052-12.43h-3.361V46z" fill="url(#paint0_linear_907_251)"/><defs><linearGradient id="paint0_linear_907_251" x1="137" y1="22.5" x2="0" y2="22.5" gradientUnits="userSpaceOnUse"><stop stop-color="#FF4343"/><stop offset=".5" stop-color="#9C0B93"/><stop offset="1" stop-color="#4C1BB7"/></linearGradient></defs></svg>