<svg width="265" height="12" viewBox="0 0 265 12" fill="none" xmlns="http://www.w3.org/2000/svg"><path d="M.3 2.03h3.24V11h1.725V2.03h3.24V.5H.3v1.53zm12.466 1.29c-1.26 0-1.875.51-2.265 1.155l-.18-1.155H8.88V11h1.62V7.145c0-1.185.465-2.31 1.905-2.31h.72V3.32h-.36zm8.145 6.27c-.33 0-.495-.105-.495-.495V6.02c0-1.815-1.17-2.79-3.21-2.79-1.935 0-3.225.93-3.39 2.43h1.59c.12-.675.765-1.125 1.725-1.125 1.065 0 1.68.525 1.68 1.38v.465h-1.935c-2.145 0-3.285.885-3.285 2.46 0 1.425 1.17 2.25 2.85 2.25 1.245 0 2.025-.54 2.535-1.32 0 .765.36 1.23 1.41 1.23h.855V9.59h-.33zm-2.1-1.74c-.015 1.185-.795 1.98-2.145 1.98-.885 0-1.425-.45-1.425-1.095 0-.78.555-1.155 1.56-1.155h2.01v.27zm9.088-3.465c-.495-.675-1.32-1.155-2.49-1.155-2.084 0-3.63 1.56-3.63 3.93 0 2.46 1.546 3.93 3.63 3.93 1.216 0 2.01-.57 2.506-1.245L28.11 11h1.41V.5H27.9v3.885zm-2.22 5.34c-1.35 0-2.234-1.05-2.234-2.565 0-1.5.884-2.55 2.235-2.55 1.35 0 2.235 1.05 2.235 2.58 0 1.485-.886 2.535-2.235 2.535zm9.069 1.365c1.905 0 3.195-1.155 3.465-2.67h-1.62c-.225.855-.945 1.35-1.935 1.35-1.275 0-2.1-.855-2.145-2.16v-.105h5.79a4.4 4.4 0 00.045-.615c-.045-2.25-1.53-3.66-3.75-3.66-2.265 0-3.78 1.575-3.78 3.945 0 2.355 1.515 3.915 3.93 3.915zm-2.175-4.77c.12-1.095 1.005-1.785 2.04-1.785 1.125 0 1.92.645 2.055 1.785h-4.095zM44.17 9.395c.705 1.065 1.8 1.695 3.255 1.695 2.235 0 3.765-1.47 3.765-3.54 0-2.13-1.455-3.54-3.54-3.54-1.26 0-2.25.6-2.73 1.515-.06.105-.075.195-.105.255-.015-.195-.015-.285-.015-.405 0-2.175.9-3.585 2.52-3.585 1.125 0 1.83.615 2.055 1.59h1.65C50.77 1.535 49.36.41 47.425.41c-2.565 0-4.14 2.01-4.14 5.415 0 1.41.33 2.655.885 3.57zm5.355-1.845c0 1.275-.84 2.175-2.115 2.175-1.275 0-2.13-.885-2.13-2.16 0-1.305.885-2.19 2.16-2.19 1.29 0 2.085.9 2.085 2.175zm8.304-2.01c1.005-.27 1.755-1.035 1.755-2.325 0-1.68-1.38-2.805-3.645-2.805-2.16 0-3.675 1.305-3.69 3.195h1.62c.03-1.095.885-1.815 2.07-1.815 1.095 0 1.95.57 1.95 1.53 0 .96-.69 1.65-2.07 1.65h-.87v1.38h.96c1.455 0 2.22.63 2.22 1.605 0 1.08-.915 1.755-2.1 1.755-1.335 0-2.31-.735-2.34-2.025h-1.635c0 2.16 1.515 3.405 3.885 3.405s3.885-1.23 3.885-3.03c0-1.575-.96-2.31-1.995-2.52zm3.137.45c0 3.165 1.695 5.1 4.14 5.1 2.445 0 4.14-1.935 4.14-5.1v-.48c0-3.045-1.695-5.1-4.14-5.1-2.445 0-4.14 2.055-4.14 5.1v.48zm6.6-.06c0 2.355-.99 3.705-2.46 3.705s-2.46-1.35-2.46-3.705v-.36c0-2.34.99-3.705 2.46-3.705s2.46 1.365 2.46 3.705v.36zm2.848.06c0 3.165 1.695 5.1 4.14 5.1 2.445 0 4.14-1.935 4.14-5.1v-.48c0-3.045-1.695-5.1-4.14-5.1-2.445 0-4.14 2.055-4.14 5.1v.48zm6.6-.06c0 2.355-.99 3.705-2.46 3.705s-2.46-1.35-2.46-3.705v-.36c0-2.34.99-3.705 2.46-3.705s2.46 1.365 2.46 3.705v.36zm6.641 1.62c.06 2.1 1.635 3.54 4.245 3.54 2.31 0 3.885-1.305 3.885-3.195.015-2.07-1.68-2.625-3.42-2.94-1.65-.285-2.73-.51-2.73-1.59 0-.99.825-1.5 2.01-1.5 1.275 0 2.115.72 2.25 1.785h1.725C91.545 1.715 90.045.41 87.645.41c-2.235 0-3.735 1.245-3.735 3.075 0 2.085 1.65 2.64 3.39 2.94 1.665.3 2.76.54 2.76 1.65 0 1.005-.9 1.56-2.145 1.56-1.47 0-2.43-.825-2.52-2.055l-1.74-.03zm13.519-4.32c-1.2 0-1.935.54-2.415 1.2V.5h-1.62V11h1.62V7.115c0-1.545.78-2.49 2.055-2.49 1.2 0 1.845.78 1.845 2.235V11h1.62V6.725c0-2.565-1.395-3.495-3.105-3.495zm11.598 6.36c-.33 0-.495-.105-.495-.495V6.02c0-1.815-1.17-2.79-3.21-2.79-1.935 0-3.225.93-3.39 2.43h1.59c.12-.675.765-1.125 1.725-1.125 1.065 0 1.68.525 1.68 1.38v.465h-1.935c-2.145 0-3.285.885-3.285 2.46 0 1.425 1.17 2.25 2.85 2.25 1.245 0 2.025-.54 2.535-1.32 0 .765.36 1.23 1.41 1.23h.855V9.59h-.33zm-2.1-1.74c-.015 1.185-.795 1.98-2.145 1.98-.885 0-1.425-.45-1.425-1.095 0-.78.555-1.155 1.56-1.155h2.01v.27zm7.197-4.53c-1.26 0-1.875.51-2.265 1.155l-.18-1.155h-1.44V11h1.62V7.145c0-1.185.465-2.31 1.905-2.31h.72V3.32h-.36zm4.638 7.77c1.905 0 3.195-1.155 3.465-2.67h-1.62c-.225.855-.945 1.35-1.935 1.35-1.275 0-2.1-.855-2.145-2.16v-.105h5.79a4.4 4.4 0 00.045-.615c-.045-2.25-1.53-3.66-3.75-3.66-2.265 0-3.78 1.575-3.78 3.945 0 2.355 1.515 3.915 3.93 3.915zm-2.175-4.77c.12-1.095 1.005-1.785 2.04-1.785 1.125 0 1.92.645 2.055 1.785h-4.095zm15.648 4.77c2.445 0 4.23-1.44 4.56-3.66h-1.785c-.33 1.335-1.335 2.145-2.79 2.145-1.98 0-3.18-1.59-3.18-3.825 0-2.25 1.23-3.825 3.225-3.825 1.425 0 2.415.825 2.76 2.145h1.785c-.345-2.22-2.07-3.66-4.47-3.66-3.105 0-5.07 2.145-5.07 5.34 0 3.225 1.905 5.34 4.965 5.34zm5.987-.09h1.725V6.56h4.11V5.075h-4.11V2.03h4.98V.5h-6.705V11zm11.597 0c3.285 0 5.355-2.145 5.355-5.265 0-3.12-2.07-5.235-5.355-5.235h-3.57V11h3.57zm-1.845-9h1.845c2.31 0 3.585 1.485 3.585 3.735S151.874 9.5 149.564 9.5h-1.845V2zm8.225 6.465c.045 1.665 1.455 2.625 3.51 2.625 1.86 0 3.255-.93 3.255-2.4 0-1.71-1.425-2.07-3.18-2.28-1.11-.12-1.845-.21-1.845-.93 0-.615.63-1.005 1.59-1.005.96 0 1.62.495 1.71 1.2h1.59c-.105-1.575-1.44-2.445-3.33-2.445-1.845-.015-3.15.93-3.15 2.385 0 1.59 1.38 1.965 3.135 2.175 1.185.15 1.89.21 1.89 1.035 0 .615-.66 1.005-1.665 1.005-1.17 0-1.86-.57-1.92-1.365h-1.59zM170.157 11h2.025l2.115-7.725L176.442 11h2.01L181.467.5h-1.77l-2.25 8.31-2.28-8.31h-1.635l-2.34 8.31-2.235-8.325-1.785.015 2.985 10.5zm13.074-8.76c.555 0 .99-.405.99-.975s-.435-.975-.99-.975c-.555 0-.99.405-.99.975s.435.975.99.975zm-.825 8.76h1.62V3.32h-1.62V11zm3.763-2.085c0 1.395.63 2.085 2.1 2.085h1.5V9.575h-1.14c-.615 0-.825-.225-.825-.825V4.745h1.875V3.32h-1.875V1.175h-1.635V3.32h-1.335v1.425h1.335v4.17zm8.666-5.685c-1.2 0-1.935.54-2.415 1.2V.5h-1.62V11h1.62V7.115c0-1.545.78-2.49 2.055-2.49 1.2 0 1.845.78 1.845 2.235V11h1.62V6.725c0-2.565-1.395-3.495-3.105-3.495zm8.15 7.86c2.34 0 3.915-1.575 3.915-3.93 0-2.34-1.575-3.93-3.915-3.93s-3.915 1.59-3.915 3.93c0 2.355 1.575 3.93 3.915 3.93zm0-1.38c-1.365 0-2.25-1.065-2.25-2.55 0-1.485.885-2.55 2.25-2.55s2.265 1.065 2.265 2.55c0 1.485-.9 2.55-2.265 2.55zm10.482-2.55c0 1.59-.75 2.52-1.98 2.52-1.185 0-1.785-.765-1.785-2.265V3.32h-1.62v4.275c0 2.625 1.395 3.495 3.03 3.495 1.185 0 1.89-.48 2.37-1.065l.18.975h1.425V3.32h-1.62v3.84zm3.816 1.755c0 1.395.63 2.085 2.1 2.085h1.5V9.575h-1.14c-.615 0-.825-.225-.825-.825V4.745h1.875V3.32h-1.875V1.175h-1.635V3.32h-1.335v1.425h1.335v4.17zm13.193 2.175c2.445 0 4.23-1.44 4.56-3.66h-1.785c-.33 1.335-1.335 2.145-2.79 2.145-1.98 0-3.18-1.59-3.18-3.825 0-2.25 1.23-3.825 3.225-3.825 1.425 0 2.415.825 2.76 2.145h1.785c-.345-2.22-2.07-3.66-4.47-3.66-3.105 0-5.07 2.145-5.07 5.34 0 3.225 1.905 5.34 4.965 5.34zm9.452 0c2.34 0 3.915-1.575 3.915-3.93 0-2.34-1.575-3.93-3.915-3.93s-3.915 1.59-3.915 3.93c0 2.355 1.575 3.93 3.915 3.93zm0-1.38c-1.365 0-2.25-1.065-2.25-2.55 0-1.485.885-2.55 2.25-2.55s2.265 1.065 2.265 2.55c0 1.485-.9 2.55-2.265 2.55zm4.844-1.245c.045 1.665 1.455 2.625 3.51 2.625 1.86 0 3.255-.93 3.255-2.4 0-1.71-1.425-2.07-3.18-2.28-1.11-.12-1.845-.21-1.845-.93 0-.615.63-1.005 1.59-1.005.96 0 1.62.495 1.71 1.2h1.59c-.105-1.575-1.44-2.445-3.33-2.445-1.845-.015-3.15.93-3.15 2.385 0 1.59 1.38 1.965 3.135 2.175 1.185.15 1.89.21 1.89 1.035 0 .615-.66 1.005-1.665 1.005-1.17 0-1.86-.57-1.92-1.365h-1.59zm8.575.45c0 1.395.63 2.085 2.1 2.085h1.5V9.575h-1.14c-.615 0-.825-.225-.825-.825V4.745h1.875V3.32h-1.875V1.175h-1.635V3.32h-1.335v1.425h1.335v4.17zm4.301-.45c.045 1.665 1.455 2.625 3.51 2.625 1.86 0 3.255-.93 3.255-2.4 0-1.71-1.425-2.07-3.18-2.28-1.11-.12-1.845-.21-1.845-.93 0-.615.63-1.005 1.59-1.005.96 0 1.62.495 1.71 1.2h1.59c-.105-1.575-1.44-2.445-3.33-2.445-1.845-.015-3.15.93-3.15 2.385 0 1.59 1.38 1.965 3.135 2.175 1.185.15 1.89.21 1.89 1.035 0 .615-.66 1.005-1.665 1.005-1.17 0-1.86-.57-1.92-1.365h-1.59z" fill="#000"/></svg>