<svg width="243" height="13" viewBox="0 0 243 13" fill="none" xmlns="http://www.w3.org/2000/svg"><path d="M.896 10H4.62c2.366 0 3.64-1.064 3.64-2.8 0-1.4-.896-2.086-2.058-2.268 1.022-.28 1.68-.98 1.68-2.142C7.882 1.18 6.65.2 4.494.2H.896V10zm3.64-8.456c1.12 0 1.736.532 1.736 1.4 0 .882-.63 1.414-1.736 1.414h-2.03V1.544h2.03zm.098 4.144c1.246 0 1.974.532 1.974 1.498 0 .91-.686 1.456-1.974 1.456H2.506V5.688h2.128zm11.437 2.996c-.308 0-.462-.098-.462-.462v-2.87c0-1.694-1.092-2.604-2.996-2.604-1.806 0-3.01.868-3.164 2.268h1.484c.112-.63.714-1.05 1.61-1.05.994 0 1.568.49 1.568 1.288v.434h-1.806c-2.002 0-3.066.826-3.066 2.296 0 1.33 1.092 2.1 2.66 2.1 1.162 0 1.89-.504 2.366-1.232 0 .714.336 1.148 1.316 1.148h.798V8.684h-.308zm-1.96-1.624c-.014 1.106-.742 1.848-2.002 1.848-.826 0-1.33-.42-1.33-1.022 0-.728.518-1.078 1.456-1.078h1.876v.252zM17.203 10h1.512V.2h-1.512V10zm9.546-1.316c-.308 0-.462-.098-.462-.462v-2.87c0-1.694-1.092-2.604-2.996-2.604-1.806 0-3.01.868-3.164 2.268h1.484c.112-.63.714-1.05 1.61-1.05.994 0 1.568.49 1.568 1.288v.434h-1.806c-2.002 0-3.066.826-3.066 2.296 0 1.33 1.092 2.1 2.66 2.1 1.162 0 1.89-.504 2.366-1.232 0 .714.336 1.148 1.316 1.148h.798V8.684h-.308zM24.79 7.06c-.014 1.106-.742 1.848-2.002 1.848-.826 0-1.33-.42-1.33-1.022 0-.728.518-1.078 1.456-1.078h1.876v.252zm6.872-4.312c-1.162 0-1.848.462-2.296 1.022l-.168-.938H27.88V10h1.512V6.388c0-1.456.714-2.338 1.918-2.338 1.134 0 1.708.728 1.708 2.086V10h1.526V6.01c0-2.394-1.302-3.262-2.884-3.262zm7.494 7.336c1.834 0 3.052-1.022 3.332-2.646h-1.596c-.182.826-.798 1.358-1.722 1.358-1.218 0-2.016-.966-2.016-2.366 0-1.414.798-2.394 2.016-2.394.938 0 1.54.518 1.736 1.358h1.582c-.294-1.624-1.442-2.646-3.29-2.646-2.17 0-3.598 1.47-3.598 3.682 0 2.24 1.386 3.654 3.556 3.654zm7.891 0c1.778 0 2.982-1.078 3.234-2.492h-1.512c-.21.798-.882 1.26-1.806 1.26-1.19 0-1.96-.798-2.002-2.016v-.098h5.404c.028-.196.042-.392.042-.574-.042-2.1-1.428-3.416-3.5-3.416-2.114 0-3.528 1.47-3.528 3.682 0 2.198 1.414 3.654 3.668 3.654zm-2.03-4.452c.112-1.022.938-1.666 1.904-1.666 1.05 0 1.792.602 1.918 1.666h-3.822zm10.965-3.808c.518 0 .924-.378.924-.91s-.406-.91-.924-.91-.924.378-.924.91.406.91.924.91zM55.21 10h1.512V2.832H55.21V10zm2.686-2.366c.042 1.554 1.358 2.45 3.276 2.45 1.736 0 3.038-.868 3.038-2.24 0-1.596-1.33-1.932-2.968-2.128-1.036-.112-1.722-.196-1.722-.868 0-.574.588-.938 1.484-.938s1.512.462 1.596 1.12h1.484c-.098-1.47-1.344-2.282-3.108-2.282-1.722-.014-2.94.868-2.94 2.226 0 1.484 1.288 1.834 2.926 2.03 1.106.14 1.764.196 1.764.966 0 .574-.616.938-1.554.938-1.092 0-1.736-.532-1.792-1.274h-1.484zM68.965 10h1.512V8.18l1.288-1.344L73.879 10h1.792L72.8 5.73l2.702-2.898h-1.778l-3.248 3.472V.2h-1.512V10zm10.388.084c1.778 0 2.982-1.078 3.234-2.492h-1.512c-.21.798-.882 1.26-1.806 1.26-1.19 0-1.96-.798-2.002-2.016v-.098h5.404c.028-.196.042-.392.042-.574-.042-2.1-1.428-3.416-3.5-3.416-2.114 0-3.528 1.47-3.528 3.682 0 2.198 1.414 3.654 3.668 3.654zm-2.03-4.452c.112-1.022.938-1.666 1.904-1.666 1.05 0 1.792.602 1.918 1.666h-3.822zm8.356 4.41l-.28.7c-.224.588-.364.728-.952.728h-1.064v1.33h1.624c1.05 0 1.358-.518 1.806-1.68l3.248-8.288h-1.61l-1.946 5.446-2.002-5.446h-1.61l2.786 7.21zm9.247-1.988c0 1.302.588 1.946 1.96 1.946h1.4V8.67h-1.064c-.574 0-.77-.21-.77-.77V4.162h1.75v-1.33h-1.75V.83h-1.526v2.002H93.68v1.33h1.246v3.892zm7.559 2.03c2.184 0 3.654-1.47 3.654-3.668 0-2.184-1.47-3.668-3.654-3.668s-3.653 1.484-3.653 3.668c0 2.198 1.469 3.668 3.653 3.668zm0-1.288c-1.274 0-2.1-.994-2.1-2.38s.826-2.38 2.1-2.38 2.114.994 2.114 2.38-.84 2.38-2.114 2.38zm10.524 1.246l-.28.7c-.224.588-.364.728-.952.728h-1.064v1.33h1.624c1.05 0 1.358-.518 1.806-1.68l3.248-8.288h-1.61l-1.946 5.446-2.002-5.446h-1.61l2.786 7.21zm8.207.042c2.184 0 3.654-1.47 3.654-3.668 0-2.184-1.47-3.668-3.654-3.668s-3.654 1.484-3.654 3.668c0 2.198 1.47 3.668 3.654 3.668zm0-1.288c-1.274 0-2.1-.994-2.1-2.38s.826-2.38 2.1-2.38 2.114.994 2.114 2.38-.84 2.38-2.114 2.38zM131 6.416c0 1.484-.7 2.352-1.848 2.352-1.106 0-1.666-.714-1.666-2.114V2.832h-1.512v3.99c0 2.45 1.302 3.262 2.828 3.262 1.106 0 1.764-.448 2.212-.994l.168.91h1.33V2.832H131v3.584zm6.628-3.584c-1.176 0-1.75.476-2.114 1.078l-.168-1.078h-1.344V10h1.512V6.402c0-1.106.434-2.156 1.778-2.156h.672V2.832h-.336zm5.368 5.222c0 1.302.588 1.946 1.96 1.946h1.4V8.67h-1.064c-.574 0-.77-.21-.77-.77V4.162h1.75v-1.33h-1.75V.83h-1.526v2.002h-1.246v1.33h1.246v3.892zm7.948-5.222c-1.176 0-1.75.476-2.114 1.078l-.168-1.078h-1.344V10h1.512V6.402c0-1.106.434-2.156 1.778-2.156h.672V2.832h-.336zm7.602 5.852c-.308 0-.462-.098-.462-.462v-2.87c0-1.694-1.092-2.604-2.996-2.604-1.806 0-3.01.868-3.164 2.268h1.484c.112-.63.714-1.05 1.61-1.05.994 0 1.568.49 1.568 1.288v.434h-1.806c-2.002 0-3.066.826-3.066 2.296 0 1.33 1.092 2.1 2.66 2.1 1.162 0 1.89-.504 2.366-1.232 0 .714.336 1.148 1.316 1.148h.798V8.684h-.308zm-1.96-1.624c-.014 1.106-.742 1.848-2.002 1.848-.826 0-1.33-.42-1.33-1.022 0-.728.518-1.078 1.456-1.078h1.876v.252zm8.483-3.234c-.462-.63-1.232-1.078-2.324-1.078-1.946 0-3.388 1.456-3.388 3.668 0 2.296 1.442 3.668 3.388 3.668 1.134 0 1.876-.532 2.338-1.162l.182 1.078h1.316V.2h-1.512v3.626zm-2.072 4.984c-1.26 0-2.086-.98-2.086-2.394 0-1.4.826-2.38 2.086-2.38 1.26 0 2.086.98 2.086 2.408 0 1.386-.826 2.366-2.086 2.366zm5.831-6.986c.518 0 .924-.378.924-.91s-.406-.91-.924-.91-.924.378-.924.91.406.91.924.91zm-.77 8.176h1.512V2.832h-1.512V10zm6.775-7.252c-1.162 0-1.848.462-2.296 1.022l-.168-.938h-1.316V10h1.512V6.388c0-1.456.714-2.338 1.918-2.338 1.134 0 1.708.728 1.708 2.086V10h1.526V6.01c0-2.394-1.302-3.262-2.884-3.262zm9.733 1.204c-.462-.714-1.232-1.204-2.352-1.204-1.946 0-3.388 1.442-3.388 3.64 0 2.282 1.442 3.64 3.388 3.64 1.12 0 1.862-.462 2.338-1.176v.798c0 1.372-.742 2.002-2.058 2.002-1.064 0-1.764-.462-1.946-1.26h-1.54c.14 1.61 1.47 2.492 3.374 2.492 2.576 0 3.668-1.232 3.668-3.178V2.832h-1.316l-.168 1.12zm-2.1 4.802c-1.26 0-2.086-.966-2.086-2.366 0-1.386.826-2.366 2.086-2.366 1.26 0 2.086.98 2.086 2.394 0 1.372-.826 2.338-2.086 2.338zm8.335-1.12c.042 1.554 1.358 2.45 3.276 2.45 1.736 0 3.038-.868 3.038-2.24 0-1.596-1.33-1.932-2.968-2.128-1.036-.112-1.722-.196-1.722-.868 0-.574.588-.938 1.484-.938s1.512.462 1.596 1.12h1.484c-.098-1.47-1.344-2.282-3.108-2.282-1.722-.014-2.94.868-2.94 2.226 0 1.484 1.288 1.834 2.926 2.03 1.106.14 1.764.196 1.764.966 0 .574-.616.938-1.554.938-1.092 0-1.736-.532-1.792-1.274h-1.484zm12.4-1.218c0 1.484-.7 2.352-1.848 2.352-1.106 0-1.666-.714-1.666-2.114V2.832h-1.512v3.99c0 2.45 1.302 3.262 2.828 3.262 1.106 0 1.764-.448 2.212-.994l.168.91h1.33V2.832h-1.512v3.584zm6.292 3.668c1.834 0 3.052-1.022 3.332-2.646h-1.596c-.182.826-.798 1.358-1.722 1.358-1.218 0-2.016-.966-2.016-2.366 0-1.414.798-2.394 2.016-2.394.938 0 1.54.518 1.736 1.358h1.582c-.294-1.624-1.442-2.646-3.29-2.646-2.17 0-3.598 1.47-3.598 3.682 0 2.24 1.386 3.654 3.556 3.654zm7.779 0c1.834 0 3.052-1.022 3.332-2.646h-1.596c-.182.826-.798 1.358-1.722 1.358-1.218 0-2.016-.966-2.016-2.366 0-1.414.798-2.394 2.016-2.394.938 0 1.54.518 1.736 1.358h1.582c-.294-1.624-1.442-2.646-3.29-2.646-2.17 0-3.598 1.47-3.598 3.682 0 2.24 1.386 3.654 3.556 3.654zm7.892 0c1.778 0 2.982-1.078 3.234-2.492h-1.512c-.21.798-.882 1.26-1.806 1.26-1.19 0-1.96-.798-2.002-2.016v-.098h5.404c.028-.196.042-.392.042-.574-.042-2.1-1.428-3.416-3.5-3.416-2.114 0-3.528 1.47-3.528 3.682 0 2.198 1.414 3.654 3.668 3.654zm-2.03-4.452c.112-1.022.938-1.666 1.904-1.666 1.05 0 1.792.602 1.918 1.666h-3.822zm6.263 2.002c.042 1.554 1.358 2.45 3.276 2.45 1.736 0 3.038-.868 3.038-2.24 0-1.596-1.33-1.932-2.968-2.128-1.036-.112-1.722-.196-1.722-.868 0-.574.588-.938 1.484-.938s1.512.462 1.596 1.12h1.484c-.098-1.47-1.344-2.282-3.108-2.282-1.722-.014-2.94.868-2.94 2.226 0 1.484 1.288 1.834 2.926 2.03 1.106.14 1.764.196 1.764.966 0 .574-.616.938-1.554.938-1.092 0-1.736-.532-1.792-1.274h-1.484zm7.041 0c.042 1.554 1.358 2.45 3.276 2.45 1.736 0 3.038-.868 3.038-2.24 0-1.596-1.33-1.932-2.968-2.128-1.036-.112-1.722-.196-1.722-.868 0-.574.588-.938 1.484-.938s1.512.462 1.596 1.12h1.484c-.098-1.47-1.344-2.282-3.108-2.282-1.722-.014-2.94.868-2.94 2.226 0 1.484 1.288 1.834 2.926 2.03 1.106.14 1.764.196 1.764.966 0 .574-.616.938-1.554.938-1.092 0-1.736-.532-1.792-1.274h-1.484z" fill="#000"/></svg>