<svg width="134" height="33" viewBox="0 0 134 33" fill="none" xmlns="http://www.w3.org/2000/svg"><rect width="134" height="33" rx="16.5" fill="#000"/><path d="M22.38 11.22h4.313V23h1.653V11.22h4.313V9.7H22.38v1.52zm15.243 2.09c-1.729 0-2.47.722-2.926 1.463l-.209-1.463H33.14V23h1.558v-4.94c0-1.539.551-3.23 2.584-3.23h.78v-1.52h-.438zm10.023 8.265c-.437 0-.627-.133-.627-.646v-4.237c0-2.261-1.425-3.496-3.895-3.496-2.337 0-3.876 1.121-4.104 3.021h1.558c.19-.988 1.102-1.634 2.47-1.634 1.52 0 2.413.76 2.413 2.014v.665h-2.85c-2.546 0-3.895 1.083-3.895 3.021 0 1.767 1.444 2.831 3.572 2.831 1.672 0 2.64-.741 3.249-1.615.019.95.456 1.501 1.748 1.501h.855v-1.425h-.494zm-2.185-2.527c0 1.615-1.121 2.736-3.06 2.736-1.291 0-2.108-.646-2.108-1.596 0-1.102.779-1.615 2.166-1.615h3.002v.475zm11.403-4.256c-.589-.931-1.69-1.596-3.325-1.596-2.679 0-4.655 1.995-4.655 4.959 0 3.154 1.976 4.959 4.655 4.959 1.634 0 2.68-.779 3.325-1.672l.21 1.558h1.348V9.7h-1.558v5.092zm-3.173 6.935c-1.919 0-3.21-1.463-3.21-3.572s1.291-3.572 3.21-3.572c1.9 0 3.192 1.482 3.192 3.61 0 2.071-1.292 3.534-3.192 3.534zm11.319 1.387c2.241 0 3.837-1.425 4.218-3.363H67.65c-.323 1.254-1.387 1.976-2.755 1.976-1.842 0-3.001-1.292-3.058-3.135v-.133h7.523c.02-.228.038-.456.038-.665-.075-2.869-1.861-4.598-4.597-4.598-2.736 0-4.599 2.014-4.599 4.959 0 2.964 1.9 4.959 4.808 4.959zm-3.079-5.947c.153-1.577 1.464-2.603 2.889-2.603 1.615 0 2.755.931 2.907 2.603H61.93zM80.9 13.196c-1.634 0-2.622.684-3.192 1.425l-.209-1.311h-1.349V23h1.558v-4.845c0-2.185 1.102-3.534 2.926-3.534 1.691 0 2.622 1.064 2.622 3.078V23h1.558v-5.396c0-3.211-1.729-4.408-3.914-4.408zm10.254 9.918c2.831 0 4.807-2.014 4.807-4.959s-1.976-4.959-4.807-4.959c-2.831 0-4.807 2.014-4.807 4.959s1.976 4.959 4.807 4.959zm0-1.387c-1.919 0-3.211-1.501-3.211-3.572s1.292-3.572 3.211-3.572c1.919 0 3.211 1.501 3.211 3.572s-1.292 3.572-3.211 3.572zM99.654 23h1.71l2.432-7.201L106.133 23h1.71l3.23-9.69h-1.577l-2.527 7.885-2.413-7.885h-1.444l-2.546 7.885-2.413-7.885H96.52L99.654 23z" fill="#fff"/></svg>