<svg width="97" height="13" viewBox="0 0 97 13" fill="none" xmlns="http://www.w3.org/2000/svg"><path d="M2.032 12l1.04-2.768h4.592L8.72 12h1.968L6.512.8H4.32L.128 12h1.904zM5.36 2.784l1.792 4.88H3.584l1.776-4.88zM11.66 12h1.729V.8H11.66V12zm12.846-8.288c-1.344 0-2.272.592-2.8 1.488-.496-1.056-1.456-1.488-2.528-1.488-1.232.016-1.936.56-2.4 1.168l-.192-1.072h-1.504V12h1.728V7.616c0-1.456.736-2.416 1.92-2.416 1.136 0 1.728.752 1.728 2.192V12h1.744V7.568c0-1.472.752-2.368 1.936-2.368 1.12 0 1.712.752 1.712 2.192V12h1.728V7.28c0-2.592-1.376-3.568-3.072-3.568zm8.448 8.384c2.496 0 4.176-1.68 4.176-4.192 0-2.496-1.68-4.192-4.176-4.192-2.496 0-4.176 1.696-4.176 4.192 0 2.512 1.68 4.192 4.176 4.192zm0-1.472c-1.456 0-2.4-1.136-2.4-2.72 0-1.584.944-2.72 2.4-2.72s2.416 1.136 2.416 2.72c0 1.584-.96 2.72-2.416 2.72zm5.167-1.328c.048 1.776 1.552 2.8 3.744 2.8 1.984 0 3.472-.992 3.472-2.56 0-1.824-1.52-2.208-3.392-2.432-1.184-.128-1.968-.224-1.968-.992 0-.656.672-1.072 1.696-1.072s1.728.528 1.824 1.28h1.696c-.112-1.68-1.536-2.608-3.552-2.608-1.968-.016-3.36.992-3.36 2.544 0 1.696 1.472 2.096 3.344 2.32 1.264.16 2.016.224 2.016 1.104 0 .656-.704 1.072-1.776 1.072-1.248 0-1.984-.608-2.048-1.456h-1.696zm9.147.48c0 1.488.672 2.224 2.24 2.224h1.6v-1.52h-1.216c-.656 0-.88-.24-.88-.88V5.328h2v-1.52h-2V1.52h-1.744v2.288h-1.424v1.52h1.424v4.448zm9.625 0c0 1.488.672 2.224 2.24 2.224h1.6v-1.52h-1.216c-.656 0-.88-.24-.88-.88V5.328h2v-1.52h-2V1.52h-1.744v2.288H55.47v1.52h1.424v4.448zm9.243-6.064c-1.28 0-2.064.576-2.576 1.28V.8h-1.728V12h1.728V7.856c0-1.648.832-2.656 2.192-2.656 1.28 0 1.968.832 1.968 2.384V12h1.728V7.44c0-2.736-1.488-3.728-3.312-3.728zm8.71 8.384c2.031 0 3.407-1.232 3.695-2.848h-1.728c-.24.912-1.008 1.44-2.064 1.44-1.36 0-2.24-.912-2.288-2.304v-.112h6.176c.032-.224.048-.448.048-.656-.048-2.4-1.632-3.904-4-3.904-2.416 0-4.032 1.68-4.032 4.208 0 2.512 1.616 4.176 4.192 4.176zm-2.32-5.088c.127-1.168 1.071-1.904 2.175-1.904 1.2 0 2.048.688 2.192 1.904h-4.368zm11.7-3.2c-1.344 0-2 .544-2.416 1.232l-.192-1.232h-1.536V12h1.728V7.888c0-1.264.496-2.464 2.032-2.464h.768V3.808h-.384zm4.948 8.288c2.031 0 3.407-1.232 3.695-2.848h-1.728c-.24.912-1.008 1.44-2.064 1.44-1.36 0-2.24-.912-2.287-2.304v-.112h6.175c.032-.224.048-.448.048-.656-.047-2.4-1.632-3.904-4-3.904-2.416 0-4.032 1.68-4.032 4.208 0 2.512 1.617 4.176 4.193 4.176zm-2.32-5.088c.127-1.168 1.072-1.904 2.175-1.904 1.2 0 2.049.688 2.193 1.904h-4.368zm9.508 1.584L96.635.8h-1.857l.272 7.792h1.313zm-1.775 2.416c0 .64.48 1.088 1.12 1.088.64 0 1.104-.448 1.104-1.088 0-.64-.465-1.088-1.105-1.088-.64 0-1.12.448-1.12 1.088z" fill="#000"/></svg>