<svg width="91" height="11" viewBox="0 0 91 11" fill="none" xmlns="http://www.w3.org/2000/svg"><path d="M1.905 10.5l.975-2.595h4.305l.99 2.595h1.845L6.105 0H4.05L.12 10.5h1.785zm3.12-8.64l1.68 4.575H3.36L5.025 1.86zm5.907 8.64h1.62V0h-1.62v10.5zm12.043-7.77c-1.26 0-2.13.555-2.625 1.395-.465-.99-1.365-1.395-2.37-1.395-1.155.015-1.815.525-2.25 1.095l-.18-1.005h-1.41v7.68h1.62V6.39c0-1.365.69-2.265 1.8-2.265 1.065 0 1.62.705 1.62 2.055v4.32h1.635V6.345c0-1.38.705-2.22 1.815-2.22 1.05 0 1.605.705 1.605 2.055v4.32h1.62V6.075c0-2.43-1.29-3.345-2.88-3.345zm7.92 7.86c2.34 0 3.915-1.575 3.915-3.93 0-2.34-1.575-3.93-3.915-3.93S26.98 4.32 26.98 6.66c0 2.355 1.575 3.93 3.915 3.93zm0-1.38c-1.365 0-2.25-1.065-2.25-2.55 0-1.485.885-2.55 2.25-2.55s2.265 1.065 2.265 2.55c0 1.485-.9 2.55-2.265 2.55zm4.843-1.245c.045 1.665 1.455 2.625 3.51 2.625 1.86 0 3.255-.93 3.255-2.4 0-1.71-1.425-2.07-3.18-2.28-1.11-.12-1.845-.21-1.845-.93 0-.615.63-1.005 1.59-1.005.96 0 1.62.495 1.71 1.2h1.59c-.105-1.575-1.44-2.445-3.33-2.445-1.845-.015-3.15.93-3.15 2.385 0 1.59 1.38 1.965 3.135 2.175 1.185.15 1.89.21 1.89 1.035 0 .615-.66 1.005-1.665 1.005-1.17 0-1.86-.57-1.92-1.365h-1.59zm8.576.45c0 1.395.63 2.085 2.1 2.085h1.5V9.075h-1.14c-.615 0-.825-.225-.825-.825V4.245h1.875V2.82h-1.875V.675h-1.635V2.82h-1.335v1.425h1.335v4.17zm9.023 0c0 1.395.63 2.085 2.1 2.085h1.5V9.075h-1.14c-.615 0-.825-.225-.825-.825V4.245h1.875V2.82h-1.875V.675h-1.635V2.82h-1.335v1.425h1.335v4.17zm8.666-5.685c-1.2 0-1.935.54-2.415 1.2V0h-1.62v10.5h1.62V6.615c0-1.545.78-2.49 2.055-2.49 1.2 0 1.845.78 1.845 2.235v4.14h1.62V6.225c0-2.565-1.395-3.495-3.105-3.495zm8.165 7.86c1.904 0 3.194-1.155 3.464-2.67h-1.62c-.225.855-.945 1.35-1.934 1.35-1.276 0-2.1-.855-2.145-2.16v-.105h5.79a4.4 4.4 0 00.044-.615c-.044-2.25-1.53-3.66-3.75-3.66-2.264 0-3.78 1.575-3.78 3.945 0 2.355 1.516 3.915 3.93 3.915zm-2.175-4.77c.12-1.095 1.005-1.785 2.04-1.785 1.124 0 1.92.645 2.055 1.785h-4.095zm10.97-3c-1.26 0-1.876.51-2.266 1.155l-.18-1.155h-1.44v7.68h1.62V6.645c0-1.185.465-2.31 1.905-2.31h.72V2.82h-.36zm4.637 7.77c1.905 0 3.195-1.155 3.465-2.67h-1.62c-.225.855-.945 1.35-1.935 1.35-1.275 0-2.1-.855-2.145-2.16v-.105h5.79a4.4 4.4 0 00.045-.615c-.045-2.25-1.53-3.66-3.75-3.66-2.265 0-3.78 1.575-3.78 3.945 0 2.355 1.515 3.915 3.93 3.915zm-2.175-4.77c.12-1.095 1.005-1.785 2.04-1.785 1.125 0 1.92.645 2.055 1.785h-4.095zm8.915 1.485L90.595 0h-1.74l.255 7.305h1.23zM88.675 9.57c0 .6.45 1.02 1.05 1.02.6 0 1.035-.42 1.035-1.02 0-.6-.435-1.02-1.035-1.02-.6 0-1.05.42-1.05 1.02z" fill="#000"/></svg>