<svg width="266" height="153" viewBox="0 0 266 153" fill="none" xmlns="http://www.w3.org/2000/svg"><path d="M15.7 98.95c0-3.71-2.515-6.444-6.154-6.444-3.638 0-6.154 2.733-6.154 6.444 0 3.71 2.516 6.443 6.154 6.443 3.639 0 6.154-2.733 6.154-6.443zm-10.172 0c0-2.68 1.611-4.616 4.018-4.616 2.408 0 4.019 1.937 4.019 4.616 0 2.678-1.611 4.615-4.019 4.615-2.407 0-4.018-1.937-4.018-4.615zm16.76-3.041c-1.449 0-2.408.67-3.023 1.484l-.236-1.376h-1.701v12.888h1.955v-4.924c.579.833 1.574 1.412 3.004 1.412 2.534 0 4.38-1.882 4.38-4.742 0-2.968-1.846-4.742-4.38-4.742zm-.327 7.837c-1.629 0-2.696-1.285-2.696-3.131 0-1.792 1.067-3.041 2.696-3.041 1.63 0 2.715 1.249 2.715 3.077 0 1.81-1.086 3.095-2.715 3.095zm10.671 1.647c2.299 0 3.855-1.393 4.181-3.222h-1.955c-.271 1.032-1.14 1.629-2.335 1.629-1.538 0-2.534-1.031-2.588-2.606v-.127h6.987c.036-.253.054-.506.054-.742-.054-2.715-1.846-4.416-4.525-4.416-2.733 0-4.561 1.9-4.561 4.76 0 2.842 1.828 4.724 4.742 4.724zm-2.624-5.756c.144-1.32 1.212-2.153 2.461-2.153 1.358 0 2.317.778 2.48 2.153h-4.941zm13.435-3.728c-1.502 0-2.389.597-2.968 1.321l-.217-1.213h-1.702v9.268h1.955v-4.67c0-1.883.923-3.023 2.48-3.023 1.466 0 2.208.941 2.208 2.697v4.996h1.973v-5.159c0-3.095-1.683-4.217-3.729-4.217zm18.609 7.674c-.399 0-.598-.126-.598-.597v-3.71c0-2.19-1.412-3.367-3.873-3.367-2.335 0-3.892 1.122-4.09 2.932h1.918c.145-.814.923-1.357 2.081-1.357 1.285 0 2.028.633 2.028 1.665v.56h-2.335c-2.589 0-3.964 1.069-3.964 2.969 0 1.72 1.412 2.715 3.439 2.715 1.502 0 2.443-.651 3.059-1.593 0 .924.434 1.485 1.701 1.485h1.032v-1.702h-.398zm-2.534-2.099c-.019 1.43-.96 2.389-2.589 2.389-1.068 0-1.72-.543-1.72-1.321 0-.942.67-1.394 1.883-1.394h2.426v.326zm8.23.742c.054 2.009 1.755 3.167 4.235 3.167 2.244 0 3.927-1.122 3.927-2.896 0-2.063-1.719-2.498-3.837-2.751-1.34-.145-2.226-.253-2.226-1.122 0-.742.76-1.213 1.919-1.213 1.158 0 1.954.597 2.063 1.448h1.919c-.127-1.9-1.738-2.95-4.019-2.95-2.226-.018-3.8 1.122-3.8 2.878 0 1.918 1.665 2.371 3.782 2.624 1.43.181 2.28.254 2.28 1.249 0 .742-.796 1.213-2.008 1.213-1.412 0-2.245-.688-2.317-1.647h-1.919zm14.637-6.317c-1.448 0-2.407.67-3.023 1.484l-.235-1.376h-1.702v12.888h1.955v-4.924c.58.833 1.575 1.412 3.005 1.412 2.534 0 4.38-1.882 4.38-4.742 0-2.968-1.846-4.742-4.38-4.742zm-.326 7.837c-1.629 0-2.697-1.285-2.697-3.131 0-1.792 1.068-3.041 2.697-3.041s2.715 1.249 2.715 3.077c0 1.81-1.086 3.095-2.715 3.095zm10.96-7.729c-1.52 0-2.262.616-2.733 1.394l-.217-1.394h-1.738v9.268h1.955v-4.652c0-1.43.561-2.787 2.299-2.787h.869v-1.829h-.435zm5.597 9.376c2.298 0 3.855-1.393 4.181-3.222h-1.955c-.271 1.032-1.14 1.629-2.335 1.629-1.538 0-2.534-1.031-2.588-2.606v-.127h6.986c.037-.253.055-.506.055-.742-.055-2.715-1.846-4.416-4.525-4.416-2.733 0-4.561 1.9-4.561 4.76 0 2.842 1.828 4.724 4.742 4.724zm-2.625-5.756c.145-1.32 1.213-2.153 2.462-2.153 1.357 0 2.317.778 2.48 2.153h-4.942zm17.02 3.946c-.398 0-.597-.126-.597-.597v-3.71c0-2.19-1.412-3.367-3.874-3.367-2.335 0-3.891 1.122-4.09 2.932h1.918c.145-.814.923-1.357 2.082-1.357 1.285 0 2.027.633 2.027 1.665v.56h-2.335c-2.588 0-3.964 1.069-3.964 2.969 0 1.72 1.412 2.715 3.439 2.715 1.502 0 2.444-.651 3.059-1.593 0 .924.434 1.485 1.701 1.485h1.032v-1.702h-.398zm-2.534-2.099c-.018 1.43-.959 2.389-2.588 2.389-1.068 0-1.72-.543-1.72-1.321 0-.942.67-1.394 1.882-1.394h2.426v.326zm10.967-4.181c-.597-.815-1.593-1.394-3.005-1.394-2.515 0-4.38 1.882-4.38 4.742 0 2.968 1.865 4.742 4.38 4.742 1.467 0 2.426-.688 3.023-1.502l.235 1.394h1.702v-12.67h-1.955v4.688zm-2.679 6.443c-1.629 0-2.697-1.267-2.697-3.095 0-1.81 1.068-3.077 2.697-3.077s2.697 1.267 2.697 3.113c0 1.792-1.068 3.059-2.697 3.059zm16.135-7.837c-1.43 0-2.39.651-3.005 1.484v-4.778h-1.955v12.67h1.702l.235-1.34c.579.833 1.575 1.448 3.023 1.448 2.534 0 4.38-1.9 4.38-4.742 0-2.986-1.846-4.742-4.38-4.742zm-.326 7.837c-1.629 0-2.697-1.285-2.697-3.113 0-1.792 1.068-3.059 2.697-3.059s2.715 1.267 2.715 3.077c0 1.828-1.086 3.095-2.715 3.095zm10.67 1.647c2.299 0 3.856-1.393 4.182-3.222h-1.955c-.272 1.032-1.141 1.629-2.335 1.629-1.539 0-2.534-1.031-2.588-2.606v-.127h6.986c.036-.253.054-.506.054-.742-.054-2.715-1.846-4.416-4.525-4.416-2.733 0-4.561 1.9-4.561 4.76 0 2.842 1.828 4.724 4.742 4.724zm-2.624-5.756c.145-1.32 1.213-2.153 2.462-2.153 1.357 0 2.316.778 2.479 2.153h-4.941zm17.6 3.928c-.687 0-.959-.271-.959-.995v-4.833h2.245v-1.72h-2.245V93.43h-1.955v2.588h-3.565V93.43h-1.973v2.588h-1.611v1.72h1.611v5.032c0 1.683.76 2.516 2.534 2.516h1.611v-1.72H154.7c-.706 0-.959-.271-.959-.995v-4.833h3.565v5.032c0 1.683.742 2.516 2.516 2.516h1.883v-1.72h-1.485zm3.734-8.85c.67 0 1.195-.49 1.195-1.177 0-.688-.525-1.177-1.195-1.177s-1.195.489-1.195 1.177c0 .688.525 1.176 1.195 1.176zm-.995 10.57h1.954v-9.268h-1.954v9.268zm8.758-9.376c-1.503 0-2.39.597-2.969 1.321l-.217-1.213h-1.701v9.268h1.954v-4.67c0-1.883.923-3.023 2.48-3.023 1.466 0 2.208.941 2.208 2.697v4.996h1.973v-5.159c0-3.095-1.683-4.217-3.728-4.217zm12.583 1.556c-.597-.923-1.593-1.556-3.041-1.556-2.516 0-4.38 1.864-4.38 4.706 0 2.95 1.864 4.706 4.38 4.706 1.448 0 2.407-.597 3.023-1.521v1.032c0 1.774-.959 2.588-2.661 2.588-1.375 0-2.28-.597-2.516-1.629h-1.991c.181 2.082 1.901 3.222 4.362 3.222 3.331 0 4.743-1.593 4.743-4.108v-8.888h-1.702l-.217 1.448zm-2.715 6.209c-1.629 0-2.697-1.249-2.697-3.059 0-1.792 1.068-3.06 2.697-3.06s2.697 1.268 2.697 3.096c0 1.774-1.068 3.023-2.697 3.023zm19.646-.091c-.399 0-.598-.126-.598-.597v-3.71c0-2.19-1.411-3.367-3.873-3.367-2.335 0-3.892 1.122-4.091 2.932h1.919c.145-.814.923-1.357 2.081-1.357 1.286 0 2.028.633 2.028 1.665v.56h-2.335c-2.589 0-3.964 1.069-3.964 2.969 0 1.72 1.412 2.715 3.439 2.715 1.502 0 2.443-.651 3.059-1.593 0 .924.434 1.485 1.701 1.485h1.032v-1.702h-.398zm-2.534-2.099c-.018 1.43-.96 2.389-2.589 2.389-1.068 0-1.719-.543-1.719-1.321 0-.942.67-1.394 1.882-1.394h2.426v.326zm8.179 3.909c2.372 0 3.946-1.321 4.308-3.421h-2.063c-.235 1.068-1.032 1.756-2.226 1.756-1.575 0-2.607-1.249-2.607-3.059 0-1.828 1.032-3.095 2.607-3.095 1.212 0 1.991.67 2.244 1.756h2.045c-.38-2.1-1.864-3.421-4.253-3.421-2.806 0-4.652 1.9-4.652 4.76 0 2.896 1.792 4.724 4.597 4.724zm10.058 0c2.371 0 3.946-1.321 4.308-3.421h-2.064c-.235 1.068-1.031 1.756-2.226 1.756-1.575 0-2.606-1.249-2.606-3.059 0-1.828 1.031-3.095 2.606-3.095 1.213 0 1.991.67 2.244 1.756h2.046c-.38-2.1-1.865-3.421-4.254-3.421-2.805 0-4.651 1.9-4.651 4.76 0 2.896 1.791 4.724 4.597 4.724zm10.184 0c2.824 0 4.724-1.9 4.724-4.742 0-2.824-1.9-4.742-4.724-4.742-2.823 0-4.724 1.918-4.724 4.742 0 2.842 1.901 4.742 4.724 4.742zm0-1.665c-1.647 0-2.715-1.285-2.715-3.077s1.068-3.077 2.715-3.077c1.647 0 2.733 1.285 2.733 3.077s-1.086 3.077-2.733 3.077zm12.649-3.077c0 1.919-.905 3.041-2.389 3.041-1.43 0-2.154-.923-2.154-2.733v-4.942h-1.955v5.159c0 3.167 1.684 4.217 3.657 4.217 1.429 0 2.28-.579 2.859-1.285l.218 1.177h1.719v-9.268h-1.955v4.634zm8.768-4.742c-1.502 0-2.389.597-2.968 1.321l-.217-1.213h-1.702v9.268h1.955v-4.67c0-1.883.923-3.023 2.48-3.023 1.466 0 2.208.941 2.208 2.697v4.996h1.973v-5.159c0-3.095-1.683-4.217-3.729-4.217zm6.177 6.86c0 1.683.76 2.516 2.534 2.516h1.81v-1.72h-1.376c-.742 0-.996-.271-.996-.995v-4.833h2.263v-1.72h-2.263V93.43h-1.972v2.588h-1.611v1.72h1.611v5.032zM6.035 127.285h.996l2.715-7.711 2.588 7.711h.995l3.258-9.177h-.94l-2.825 8.073-2.624-8.073h-.85l-2.77 8.073-2.679-8.073h-.977l3.113 9.177zm12.314-11.114a.637.637 0 00.652-.651c0-.38-.29-.652-.652-.652a.638.638 0 00-.651.652c0 .38.29.651.651.651zm-.47 11.114h.923v-9.177h-.923v9.177zm3.78-2.136c0 1.466.598 2.136 2.155 2.136h1.339v-.851h-1.267c-.96 0-1.303-.362-1.303-1.303v-6.172h2.48v-.851h-2.48v-2.57h-.923v2.57h-1.738v.851h1.738v6.19zm9.134-7.15c-1.72 0-2.787.96-3.312 2.281v-5.665h-.924v12.67h.924v-4.525c0-2.39 1.212-3.91 3.167-3.91 1.756 0 2.842 1.158 2.842 3.33v5.105h.923v-5.141c0-2.896-1.539-4.145-3.62-4.145zm16.134 9.394c2.715 0 4.633-1.466 5.176-4.018h-1.031c-.543 2.027-2.01 3.113-4.163 3.113-2.932 0-4.779-2.298-4.779-5.538s1.883-5.539 4.815-5.539c2.118 0 3.602 1.104 4.163 3.095h1.032c-.561-2.534-2.48-4-5.14-4-3.566 0-5.883 2.643-5.883 6.444 0 3.837 2.262 6.443 5.81 6.443zm7.534-11.222a.637.637 0 00.651-.651c0-.38-.29-.652-.651-.652a.638.638 0 00-.652.652c0 .38.29.651.652.651zm-.47 11.114h.922v-9.177h-.923v9.177zm3.78-2.136c0 1.466.598 2.136 2.154 2.136h1.34v-.851h-1.267c-.96 0-1.303-.362-1.303-1.303v-6.172h2.48v-.851h-2.48v-2.57h-.924v2.57h-1.737v.851h1.737v6.19zm7.65 2.136l-.598 1.484c-.416 1.013-.58 1.285-1.52 1.285h-1.159v.851h1.412c1.23 0 1.52-.471 2.1-1.919l4.398-10.878h-.996l-3.13 7.982-3.186-7.982h-.996l3.674 9.177zm10.97 0h.977v-12.67h-.977v12.67zm7.606-9.286c-1.683 0-2.77.869-3.294 2.064l-.145-1.955h-.796v9.177h.923v-4.525c0-2.39 1.212-3.91 3.167-3.91 1.774 0 2.842 1.158 2.842 3.33v5.105h.923v-5.141c0-2.896-1.538-4.145-3.62-4.145zm13.015 2.172c-.561-1.303-1.792-2.172-3.511-2.172-2.516 0-4.326 1.919-4.326 4.688 0 2.896 1.81 4.706 4.326 4.706 1.72 0 2.914-.923 3.493-2.208l.145 2.1h.796v-12.67h-.923v5.556zm-3.439 6.39c-2.045 0-3.457-1.593-3.457-3.874 0-2.262 1.412-3.873 3.457-3.873s3.457 1.611 3.457 3.891c0 2.263-1.412 3.856-3.457 3.856zm10.588.832c2.009 0 3.547-1.303 3.946-3.149h-.942c-.362 1.43-1.574 2.317-3.077 2.317-2.045 0-3.33-1.557-3.366-3.693v-.163h7.493c0-.126.018-.271.018-.38-.09-2.733-1.773-4.326-4.235-4.326-2.516 0-4.236 1.919-4.236 4.634 0 2.878 1.792 4.76 4.399 4.76zm-3.367-5.466c.145-1.864 1.539-3.113 3.222-3.113 1.792 0 3.077 1.104 3.222 3.113h-6.444zm7.968 5.358h1.068l3.041-4.037 3.041 4.037h1.122l-3.566-4.688 3.385-4.489h-1.05l-2.896 3.801-2.86-3.801h-1.104l3.385 4.489-3.566 4.688zm15.028-2.136c0 1.466.598 2.136 2.154 2.136h1.34v-.851h-1.267c-.96 0-1.304-.362-1.304-1.303v-6.172h2.48v-.851h-2.48v-2.57h-.923v2.57h-1.737v.851h1.737v6.19zm8.67 2.244c2.588 0 4.416-1.918 4.416-4.706 0-2.769-1.828-4.688-4.416-4.688-2.589 0-4.399 1.919-4.399 4.688 0 2.788 1.81 4.706 4.399 4.706zm0-.832c-2.046 0-3.457-1.593-3.457-3.874 0-2.262 1.411-3.873 3.457-3.873 2.045 0 3.457 1.611 3.457 3.873 0 2.281-1.412 3.874-3.457 3.874zm13.744-6.39c-.561-1.303-1.792-2.172-3.512-2.172-2.516 0-4.326 1.919-4.326 4.688 0 2.896 1.81 4.706 4.326 4.706 1.72 0 2.914-.923 3.494-2.208l.144 2.1h.797v-12.67h-.923v5.556zm-3.439 6.39c-2.046 0-3.457-1.593-3.457-3.874 0-2.262 1.411-3.873 3.457-3.873 2.045 0 3.457 1.611 3.457 3.891 0 2.263-1.412 3.856-3.457 3.856zm14.606-.127c-.543 0-.815-.181-.815-.887v-4.272c0-2.099-1.285-3.276-3.584-3.276-2.099 0-3.493 1.014-3.728 2.679h.923c.235-1.122 1.213-1.864 2.769-1.864 1.72 0 2.697.905 2.697 2.425v.797h-3.113c-2.353 0-3.62 1.013-3.62 2.733 0 1.629 1.285 2.624 3.24 2.624 1.864 0 2.968-.85 3.529-1.991v.326c-.036 1.086.417 1.557 1.503 1.557h.543v-.851h-.344zm-1.738-2.86c0 1.756-1.249 3.023-3.421 3.023-1.466 0-2.371-.742-2.371-1.883 0-1.212.905-1.882 2.607-1.882h3.185v.742zm5.767 3.711l-.598 1.484c-.416 1.013-.579 1.285-1.52 1.285h-1.158v.851h1.411c1.231 0 1.521-.471 2.1-1.919l4.398-10.878h-.995l-3.131 7.982-3.186-7.982h-.996l3.675 9.177z" fill="#000"/><path d="M.778 10.054h8.397v23.249h4.47V10.054h8.398V6.09H.778v3.965zm32.309 3.344c-3.266 0-4.86 1.322-5.87 2.993l-.467-2.993h-3.732v19.905h4.198V23.31c0-3.071 1.206-5.987 4.938-5.987h1.866v-3.926h-.933zm21.11 16.25c-.856 0-1.283-.272-1.283-1.283v-7.97c0-4.704-3.033-7.23-8.32-7.23-5.015 0-8.359 2.41-8.786 6.297h4.12c.312-1.749 1.983-2.915 4.472-2.915 2.76 0 4.354 1.36 4.354 3.576v1.206h-5.015c-5.56 0-8.514 2.293-8.514 6.375 0 3.694 3.032 5.832 7.386 5.832 3.227 0 5.249-1.4 6.57-3.421 0 1.983.934 3.188 3.655 3.188h2.216v-3.655h-.855zm-5.443-4.51c-.04 3.072-2.06 5.132-5.56 5.132-2.293 0-3.693-1.166-3.693-2.838 0-2.021 1.439-2.993 4.043-2.993h5.21v.7zm23.556-8.98c-1.283-1.75-3.42-2.994-6.453-2.994-5.404 0-9.409 4.044-9.409 10.186 0 6.376 4.005 10.186 9.409 10.186 3.149 0 5.21-1.477 6.492-3.227l.506 2.994h3.654V6.089H72.31v10.069zm-5.754 13.84c-3.498 0-5.792-2.721-5.792-6.648 0-3.888 2.293-6.609 5.792-6.609 3.5 0 5.793 2.721 5.793 6.687 0 3.849-2.294 6.57-5.793 6.57zm16.194-19.4c1.439 0 2.566-1.05 2.566-2.527S84.19 5.544 82.75 5.544c-1.438 0-2.566 1.05-2.566 2.527 0 1.478 1.128 2.527 2.566 2.527zm-2.138 22.705h4.199V13.398h-4.199v19.905zm18.812-20.139c-3.227 0-5.132 1.283-6.376 2.838l-.467-2.604h-3.654v19.905h4.198v-10.03c0-4.044 1.983-6.493 5.326-6.493 3.15 0 4.744 2.022 4.744 5.793v10.73h4.237v-11.08c0-6.648-3.615-9.059-8.008-9.059zm27.028 3.344c-1.283-1.983-3.422-3.344-6.532-3.344-5.404 0-9.408 4.005-9.408 10.108 0 6.337 4.004 10.108 9.408 10.108 3.11 0 5.171-1.282 6.493-3.265v2.216c0 3.81-2.061 5.56-5.715 5.56-2.955 0-4.899-1.284-5.404-3.5h-4.277c.389 4.471 4.082 6.92 9.37 6.92 7.153 0 10.186-3.42 10.186-8.825V13.398h-3.655l-.466 3.11zm-5.832 13.335c-3.499 0-5.793-2.683-5.793-6.57 0-3.85 2.294-6.57 5.793-6.57s5.793 2.72 5.793 6.647c0 3.81-2.294 6.493-5.793 6.493zM6.648 72.303h4.549l4.354-13.53 4.199 13.53h4.51l6.608-19.905h-4.276l-4.704 15.24-4.354-15.24h-3.85l-4.548 15.24-4.548-15.24H.156l6.492 19.905zm28.569-22.704c1.438 0 2.566-1.05 2.566-2.527 0-1.478-1.128-2.528-2.566-2.528s-2.566 1.05-2.566 2.528c0 1.477 1.127 2.526 2.566 2.526zm-2.138 22.704h4.198V52.398H33.08v19.905zm9.753-5.404c0 3.615 1.633 5.404 5.443 5.404h3.887v-3.694h-2.954c-1.594 0-2.139-.583-2.139-2.138v-10.38h4.86v-3.693h-4.86v-5.56h-4.237v5.56h-3.46v3.693h3.46v10.808zm22.46-14.735c-3.111 0-5.016 1.4-6.26 3.11V45.09h-4.199v27.214h4.199v-10.07c0-4.004 2.022-6.453 5.326-6.453 3.11 0 4.782 2.022 4.782 5.793v10.73h4.199v-11.08c0-6.648-3.616-9.059-8.048-9.059zm21.122 20.372c6.064 0 10.147-4.082 10.147-10.186 0-6.065-4.083-10.186-10.147-10.186-6.065 0-10.147 4.121-10.147 10.186 0 6.104 4.082 10.186 10.147 10.186zm0-3.577c-3.538 0-5.832-2.76-5.832-6.609s2.294-6.609 5.832-6.609c3.537 0 5.87 2.76 5.87 6.61 0 3.848-2.333 6.608-5.87 6.608zm27.169-6.609c0 4.121-1.944 6.532-5.132 6.532-3.071 0-4.627-1.983-4.627-5.87V52.397h-4.198v11.08c0 6.803 3.615 9.058 7.853 9.058 3.071 0 4.898-1.244 6.143-2.76l.466 2.527h3.693V52.398h-4.198v9.952zm9.888 4.549c0 3.615 1.633 5.404 5.443 5.404h3.888v-3.694h-2.955c-1.594 0-2.138-.583-2.138-2.138v-10.38h4.86v-3.693h-4.86v-5.56h-4.238v5.56h-3.46v3.693h3.46v10.808zm23.387 0c0 3.615 1.633 5.404 5.443 5.404h3.888v-3.694h-2.955c-1.594 0-2.138-.583-2.138-2.138v-10.38h4.86v-3.693h-4.86v-5.56h-4.238v5.56h-3.46v3.693h3.46v10.808zm22.46-14.735c-3.11 0-5.015 1.4-6.259 3.11V45.09h-4.199v27.214h4.199v-10.07c0-4.004 2.021-6.453 5.326-6.453 3.11 0 4.782 2.022 4.782 5.793v10.73h4.199v-11.08c0-6.648-3.616-9.059-8.048-9.059zm21.161 20.372c4.938 0 8.281-2.993 8.981-6.92h-4.199c-.583 2.216-2.449 3.499-5.015 3.499-3.305 0-5.443-2.216-5.559-5.598v-.273h15.006c.078-.544.117-1.088.117-1.594-.117-5.831-3.966-9.486-9.72-9.486-5.87 0-9.797 4.082-9.797 10.225 0 6.104 3.927 10.147 10.186 10.147zm-5.637-12.363c.311-2.838 2.605-4.626 5.287-4.626 2.916 0 4.977 1.671 5.327 4.626h-10.614zM214.59 66.9c0 3.615 1.633 5.404 5.443 5.404h3.887v-3.694h-2.954c-1.594 0-2.139-.583-2.139-2.138v-10.38h4.86v-3.693h-4.86v-5.56h-4.237v5.56h-3.46v3.693h3.46v10.808zm29.968 1.75c-.855 0-1.283-.273-1.283-1.284v-7.97c0-4.704-3.032-7.23-8.32-7.23-5.015 0-8.358 2.41-8.786 6.297h4.121c.311-1.749 1.983-2.915 4.471-2.915 2.76 0 4.354 1.36 4.354 3.576v1.206H234.1c-5.559 0-8.514 2.293-8.514 6.375 0 3.694 3.032 5.832 7.387 5.832 3.226 0 5.248-1.4 6.57-3.421 0 1.983.933 3.188 3.654 3.188h2.216v-3.655h-.855zm-5.443-4.51c-.039 3.07-2.06 5.131-5.559 5.131-2.294 0-3.694-1.166-3.694-2.838 0-2.021 1.439-2.993 4.044-2.993h5.209v.7zm6.525 8.164h4.626l5.249-7.231 5.209 7.23h4.899l-7.504-10.185 7.076-9.72h-4.626l-4.86 6.726-4.743-6.725h-4.898l7.036 9.719-7.464 10.186z" fill="url(#paint0_linear_1248_7032)"/><defs><linearGradient id="paint0_linear_1248_7032" x1="266" y1="31.627" x2="0" y2="31.627" gradientUnits="userSpaceOnUse"><stop stop-color="#FF4343"/><stop offset=".5" stop-color="#9C0B93"/><stop offset="1" stop-color="#4C1BB7"/></linearGradient></defs></svg>