<svg width="243" height="57" viewBox="0 0 243 57" fill="none" xmlns="http://www.w3.org/2000/svg"><path d="M.32 1.6h3.84V12h.864V1.6h3.84V.8H.32v.8zm14.997 6.272c0 2.128-1.056 3.472-2.736 3.472-1.504 0-2.432-1.024-2.432-2.96V3.888h-.816v4.544c0 2.544 1.328 3.664 3.12 3.664 1.44 0 2.384-.768 2.848-1.808L15.413 12h.72V3.888h-.816v3.984zm6.049-3.984c-1.504 0-2.144.72-2.48 1.616l-.128-1.616h-.704V12h.816V7.888c0-1.648.432-3.216 2.336-3.216h.592v-.784h-.432zm5.385-.096c-1.488 0-2.448.768-2.912 1.824l-.128-1.728h-.704V12h.816V8c0-2.112 1.072-3.456 2.8-3.456 1.568 0 2.512 1.024 2.512 2.944V12h.816V7.456c0-2.56-1.36-3.664-3.2-3.664zM38.5 12l-.528 1.312c-.368.896-.512 1.136-1.344 1.136h-1.024v.752h1.248c1.088 0 1.344-.416 1.856-1.696l3.888-9.616h-.88l-2.768 7.056-2.816-7.056h-.88L38.501 12zm8.434.096c2.288 0 3.904-1.696 3.904-4.16 0-2.448-1.616-4.144-3.904-4.144s-3.888 1.696-3.888 4.144c0 2.464 1.6 4.16 3.888 4.16zm0-.736c-1.808 0-3.056-1.408-3.056-3.424 0-2 1.248-3.424 3.056-3.424s3.056 1.424 3.056 3.424c0 2.016-1.248 3.424-3.056 3.424zm11.413-3.488c0 2.128-1.056 3.472-2.736 3.472-1.504 0-2.432-1.024-2.432-2.96V3.888h-.816v4.544c0 2.544 1.328 3.664 3.12 3.664 1.44 0 2.384-.768 2.848-1.808L58.444 12h.72V3.888h-.816v3.984zm6.049-3.984c-1.504 0-2.144.72-2.48 1.616l-.128-1.616h-.704V12h.816V7.888c0-1.648.432-3.216 2.336-3.216h.592v-.784h-.432zm6.562 6.224c0 1.296.528 1.888 1.904 1.888h1.184v-.752h-1.12c-.848 0-1.152-.32-1.152-1.152V4.64h2.192v-.752h-2.192V1.616h-.816v2.272h-1.536v.752h1.536v5.472zM78.6 3.888c-1.504 0-2.144.72-2.48 1.616l-.128-1.616h-.704V12h.816V7.888c0-1.648.432-3.216 2.336-3.216h.592v-.784H78.6zm8.434 7.36c-.48 0-.72-.16-.72-.784V6.688c0-1.856-1.136-2.896-3.168-2.896-1.856 0-3.088.896-3.296 2.368h.816c.208-.992 1.072-1.648 2.448-1.648 1.52 0 2.383.8 2.383 2.144v.704h-2.751c-2.08 0-3.2.896-3.2 2.416 0 1.44 1.135 2.32 2.863 2.32 1.648 0 2.624-.752 3.12-1.76v.288c-.031.96.368 1.376 1.329 1.376h.48v-.752h-.304zM85.496 8.72c0 1.552-1.103 2.672-3.023 2.672-1.297 0-2.097-.656-2.097-1.664 0-1.072.8-1.664 2.305-1.664h2.816v.656zm9.43-3.008c-.495-1.152-1.583-1.92-3.103-1.92C89.6 3.792 88 5.488 88 7.936c0 2.56 1.6 4.16 3.824 4.16 1.52 0 2.576-.816 3.088-1.952L95.04 12h.704V.8h-.816v4.912zm-3.04 5.648c-1.807 0-3.055-1.408-3.055-3.424 0-2 1.248-3.424 3.056-3.424s3.056 1.424 3.056 3.44c0 2-1.248 3.408-3.056 3.408zm6.192-9.184c.32 0 .576-.24.576-.576a.564.564 0 00-.576-.576c-.32 0-.576.24-.576.576 0 .336.256.576.576.576zM97.663 12h.816V3.888h-.816V12zm6.478-8.208c-1.487 0-2.447.768-2.911 1.824l-.128-1.728h-.704V12h.816V8c0-2.112 1.072-3.456 2.8-3.456 1.568 0 2.512 1.024 2.512 2.944V12h.816V7.456c0-2.56-1.36-3.664-3.201-3.664zm11.615 1.984c-.496-1.2-1.584-1.984-3.088-1.984-2.224 0-3.824 1.68-3.824 4.144 0 2.56 1.6 4.16 3.824 4.16 1.52 0 2.592-.8 3.104-2.064v1.44c0 2.16-1.024 3.088-2.976 3.088-1.52 0-2.576-.688-2.832-1.92h-.848c.256 1.728 1.648 2.656 3.616 2.656 2.624 0 3.856-1.248 3.856-3.792V3.888h-.704l-.128 1.888zm-3.024 5.584c-1.808 0-3.056-1.408-3.056-3.424s1.248-3.424 3.056-3.424 3.056 1.408 3.056 3.44c0 2-1.248 3.408-3.056 3.408zm15.975-3.488c0 2.128-1.056 3.472-2.736 3.472-1.504 0-2.432-1.024-2.432-2.96V3.888h-.816v4.544c0 2.544 1.328 3.664 3.12 3.664 1.44 0 2.384-.768 2.848-1.808l.112 1.712h.72V3.888h-.816v3.984zm6.657-4.08c-1.52 0-2.576.816-3.088 1.952l-.128-1.856h-.704V15.2h.816v-5.072c.464 1.184 1.568 1.968 3.104 1.968 2.224 0 3.824-1.696 3.824-4.16 0-2.544-1.6-4.144-3.824-4.144zm-.064 7.568c-1.808 0-3.056-1.408-3.056-3.44 0-1.984 1.248-3.408 3.056-3.408s3.056 1.424 3.056 3.424c0 2.016-1.248 3.424-3.056 3.424zm11.784.64h.88l2.4-6.816L152.652 12h.88l2.88-8.112h-.832l-2.496 7.136-2.32-7.136h-.752l-2.448 7.136-2.368-7.136h-.864L147.084 12zm10.886-9.824c.32 0 .576-.24.576-.576a.564.564 0 00-.576-.576c-.32 0-.576.24-.576.576 0 .336.256.576.576.576zM157.554 12h.816V3.888h-.816V12zm3.342-1.888c0 1.296.528 1.888 1.904 1.888h1.184v-.752h-1.12c-.848 0-1.152-.32-1.152-1.152V4.64h2.192v-.752h-2.192V1.616h-.816v2.272h-1.536v.752h1.536v5.472zm8.074-6.32c-1.52 0-2.464.848-2.928 2.016V.8h-.816V12h.816V8c0-2.112 1.072-3.456 2.8-3.456 1.552 0 2.512 1.024 2.512 2.944V12h.816V7.456c0-2.56-1.36-3.664-3.2-3.664zm8.966 5.712c.064 1.68 1.424 2.592 3.456 2.592 1.744 0 3.152-.88 3.152-2.32 0-1.712-1.504-2.048-3.248-2.288-1.264-.176-2.384-.32-2.384-1.456 0-.928.912-1.536 2.288-1.536 1.296 0 2.224.624 2.368 1.68h.832c-.144-1.584-1.44-2.384-3.2-2.384-1.808-.016-3.104.912-3.104 2.304 0 1.632 1.504 1.936 3.168 2.16 1.36.192 2.464.368 2.464 1.568 0 .96-1.008 1.568-2.336 1.568-1.552 0-2.56-.72-2.624-1.888h-.832zm12.085-5.712c-1.52 0-2.576.816-3.088 1.952l-.128-1.856h-.704V15.2h.816v-5.072c.464 1.184 1.568 1.968 3.104 1.968 2.224 0 3.824-1.696 3.824-4.16 0-2.544-1.6-4.144-3.824-4.144zm-.064 7.568c-1.808 0-3.056-1.408-3.056-3.44 0-1.984 1.248-3.408 3.056-3.408s3.056 1.424 3.056 3.424c0 2.016-1.248 3.424-3.056 3.424zm8.815-7.472c-1.504 0-2.144.72-2.48 1.616l-.128-1.616h-.704V12h.816V7.888c0-1.648.432-3.216 2.336-3.216h.592v-.784h-.432zm4.647 8.208c1.776 0 3.136-1.152 3.488-2.784h-.832c-.32 1.264-1.392 2.048-2.72 2.048-1.808 0-2.944-1.376-2.976-3.264v-.144h6.624c0-.112.016-.24.016-.336-.08-2.416-1.568-3.824-3.744-3.824-2.224 0-3.744 1.696-3.744 4.096 0 2.544 1.584 4.208 3.888 4.208zm-2.976-4.832c.128-1.648 1.36-2.752 2.848-2.752 1.584 0 2.72.976 2.848 2.752h-5.696zm15.325 3.984c-.48 0-.72-.16-.72-.784V6.688c0-1.856-1.136-2.896-3.168-2.896-1.856 0-3.088.896-3.296 2.368h.816c.208-.992 1.072-1.648 2.448-1.648 1.52 0 2.384.8 2.384 2.144v.704h-2.752c-2.08 0-3.2.896-3.2 2.416 0 1.44 1.136 2.32 2.864 2.32 1.648 0 2.624-.752 3.12-1.76v.288c-.032.96.368 1.376 1.328 1.376h.48v-.752h-.304zm-1.536-2.528c0 1.552-1.104 2.672-3.024 2.672-1.296 0-2.096-.656-2.096-1.664 0-1.072.8-1.664 2.304-1.664h2.816v.656zm9.43-3.008c-.496-1.152-1.584-1.92-3.104-1.92-2.224 0-3.824 1.696-3.824 4.144 0 2.56 1.6 4.16 3.824 4.16 1.52 0 2.576-.816 3.088-1.952l.128 1.856h.704V.8h-.816v4.912zm-3.04 5.648c-1.808 0-3.056-1.408-3.056-3.424 0-2 1.248-3.424 3.056-3.424s3.056 1.424 3.056 3.44c0 2-1.248 3.408-3.056 3.408zm5.408-1.856c.064 1.68 1.424 2.592 3.456 2.592 1.744 0 3.152-.88 3.152-2.32 0-1.712-1.504-2.048-3.248-2.288-1.264-.176-2.384-.32-2.384-1.456 0-.928.912-1.536 2.288-1.536 1.296 0 2.224.624 2.368 1.68h.832c-.144-1.584-1.44-2.384-3.2-2.384-1.808-.016-3.104.912-3.104 2.304 0 1.632 1.504 1.936 3.168 2.16 1.36.192 2.464.368 2.464 1.568 0 .96-1.008 1.568-2.336 1.568-1.552 0-2.56-.72-2.624-1.888h-.832zM.032 26.64h1.536V34h.816v-7.36h2.432v-.752H2.384v-1.216c0-.8.304-1.12 1.12-1.12h1.328V22.8h-1.36c-1.36 0-1.904.592-1.904 1.888v1.2H.032v.752zm9.084-.752c-1.504 0-2.144.72-2.48 1.616l-.128-1.616h-.704V34h.816v-4.112c0-1.648.432-3.216 2.336-3.216h.592v-.784h-.432zm4.647 8.208c2.288 0 3.904-1.696 3.904-4.16 0-2.448-1.616-4.144-3.904-4.144s-3.888 1.696-3.888 4.144c0 2.464 1.6 4.16 3.888 4.16zm0-.736c-1.808 0-3.056-1.408-3.056-3.424 0-2 1.248-3.424 3.056-3.424s3.056 1.424 3.056 3.424c0 2.016-1.248 3.424-3.056 3.424zm14.581-7.568c-1.488 0-2.448.832-2.912 2.032-.384-1.344-1.392-2.032-2.672-2.032-1.392 0-2.224.816-2.64 1.824l-.128-1.728h-.704V34h.816v-4.128c0-1.984.96-3.328 2.512-3.328 1.408 0 2.288.992 2.288 2.864V34h.816v-4.416c.048-1.856 1.008-3.04 2.528-3.04 1.408 0 2.256.944 2.256 2.784V34h.832v-4.704c0-2.448-1.296-3.504-2.992-3.504zm8.924 2.864c0 3.28 1.616 5.44 4.048 5.44 2.4 0 4.032-2.16 4.032-5.44v-.512c0-3.184-1.632-5.44-4.032-5.44-2.432 0-4.048 2.256-4.048 5.44v.512zm7.232-.032c0 2.848-1.264 4.704-3.184 4.704-1.936 0-3.2-1.856-3.2-4.704v-.448c0-2.848 1.264-4.704 3.2-4.704 1.92 0 3.184 1.856 3.184 4.704v.448zm1.676 4.848c0 .368.256.608.608.608s.608-.24.608-.608-.256-.592-.608-.592-.608.224-.608.592zm2.045-4.816c0 3.28 1.616 5.44 4.048 5.44 2.4 0 4.032-2.16 4.032-5.44v-.512c0-3.184-1.632-5.44-4.032-5.44-2.432 0-4.048 2.256-4.048 5.44v.512zm7.232-.032c0 2.848-1.264 4.704-3.184 4.704-1.936 0-3.2-1.856-3.2-4.704v-.448c0-2.848 1.264-4.704 3.2-4.704 1.92 0 3.184 1.856 3.184 4.704v.448zm10.802-2.832c-1.52 0-2.576.816-3.088 1.952l-.128-1.856h-.704V37.2h.816v-5.072c.464 1.184 1.568 1.968 3.104 1.968 2.224 0 3.824-1.696 3.824-4.16 0-2.544-1.6-4.144-3.824-4.144zm-.064 7.568c-1.808 0-3.056-1.408-3.056-3.44 0-1.984 1.248-3.408 3.056-3.408s3.056 1.424 3.056 3.424c0 2.016-1.248 3.424-3.056 3.424zm5.92-9.184c.32 0 .575-.24.575-.576a.564.564 0 00-.576-.576c-.32 0-.576.24-.576.576 0 .336.256.576.576.576zM71.693 34h.816v-8.112h-.816V34zm6.655-8.208c-1.52 0-2.576.816-3.088 1.952l-.128-1.856h-.704V37.2h.816v-5.072c.464 1.184 1.568 1.968 3.104 1.968 2.224 0 3.824-1.696 3.824-4.16 0-2.544-1.6-4.144-3.824-4.144zm-.064 7.568c-1.808 0-3.056-1.408-3.056-3.44 0-1.984 1.248-3.408 3.056-3.408s3.056 1.424 3.056 3.424c0 2.016-1.248 3.424-3.056 3.424zm5.12-1.856c.064 1.68 1.424 2.592 3.456 2.592 1.743 0 3.151-.88 3.151-2.32 0-1.712-1.504-2.048-3.248-2.288-1.263-.176-2.383-.32-2.383-1.456 0-.928.912-1.536 2.287-1.536 1.296 0 2.224.624 2.368 1.68h.832c-.143-1.584-1.44-2.384-3.2-2.384-1.808-.016-3.104.912-3.104 2.304 0 1.632 1.505 1.936 3.169 2.16 1.36.192 2.463.368 2.463 1.568 0 .96-1.007 1.568-2.335 1.568-1.553 0-2.56-.72-2.624-1.888h-.832zm19.613 1.744c-.48 0-.72-.16-.72-.784v-3.776c0-1.856-1.136-2.896-3.168-2.896-1.856 0-3.088.896-3.296 2.368h.816c.208-.992 1.072-1.648 2.448-1.648 1.52 0 2.384.8 2.384 2.144v.704H98.73c-2.08 0-3.2.896-3.2 2.416 0 1.44 1.136 2.32 2.864 2.32 1.648 0 2.624-.752 3.12-1.76v.288c-.032.96.368 1.376 1.328 1.376h.48v-.752h-.304zm-1.536-2.528c0 1.552-1.104 2.672-3.024 2.672-1.296 0-2.096-.656-2.096-1.664 0-1.072.8-1.664 2.304-1.664h2.816v.656zm6.675-4.928c-1.488 0-2.448.768-2.912 1.824l-.128-1.728h-.704V34h.816v-4c0-2.112 1.072-3.456 2.8-3.456 1.568 0 2.512 1.024 2.512 2.944V34h.816v-4.544c0-2.56-1.36-3.664-3.2-3.664zm11.505 1.92c-.496-1.152-1.584-1.92-3.104-1.92-2.224 0-3.824 1.696-3.824 4.144 0 2.56 1.6 4.16 3.824 4.16 1.52 0 2.576-.816 3.088-1.952l.128 1.856h.704V22.8h-.816v4.912zm-3.04 5.648c-1.808 0-3.056-1.408-3.056-3.424 0-2 1.248-3.424 3.056-3.424s3.056 1.424 3.056 3.44c0 2-1.248 3.408-3.056 3.408zm9.16-6.72h1.536V34h.816v-7.36h2.432v-.752h-2.432v-1.216c0-.8.304-1.12 1.12-1.12h1.328V22.8h-1.36c-1.36 0-1.904.592-1.904 1.888v1.2h-1.536v.752zm8.934 7.456c2.288 0 3.904-1.696 3.904-4.16 0-2.448-1.616-4.144-3.904-4.144s-3.888 1.696-3.888 4.144c0 2.464 1.6 4.16 3.888 4.16zm0-.736c-1.808 0-3.056-1.408-3.056-3.424 0-2 1.248-3.424 3.056-3.424s3.056 1.424 3.056 3.424c0 2.016-1.248 3.424-3.056 3.424zm8.837-7.472c-1.504 0-2.144.72-2.48 1.616l-.128-1.616h-.704V34h.816v-4.112c0-1.648.432-3.216 2.336-3.216h.592v-.784h-.432zm13.09 7.36c-.48 0-.72-.16-.72-.784v-3.776c0-1.856-1.136-2.896-3.168-2.896-1.856 0-3.088.896-3.296 2.368h.816c.208-.992 1.072-1.648 2.448-1.648 1.52 0 2.384.8 2.384 2.144v.704h-2.752c-2.08 0-3.2.896-3.2 2.416 0 1.44 1.136 2.32 2.864 2.32 1.648 0 2.624-.752 3.12-1.76v.288c-.032.96.368 1.376 1.328 1.376h.48v-.752h-.304zm-1.536-2.528c0 1.552-1.104 2.672-3.024 2.672-1.296 0-2.096-.656-2.096-1.664 0-1.072.8-1.664 2.304-1.664h2.816v.656zm7.244 3.28h.816V22.8h-.816V34zm3.15-9.824c.32 0 .576-.24.576-.576a.564.564 0 00-.576-.576c-.32 0-.576.24-.576.576 0 .336.256.576.576.576zM165.085 34h.816v-8.112h-.816V34zm11.79-8.208c-1.488 0-2.448.832-2.912 2.032-.384-1.344-1.392-2.032-2.672-2.032-1.392 0-2.224.816-2.64 1.824l-.128-1.728h-.704V34h.816v-4.128c0-1.984.96-3.328 2.512-3.328 1.408 0 2.288.992 2.288 2.864V34h.816v-4.416c.048-1.856 1.008-3.04 2.528-3.04 1.408 0 2.256.944 2.256 2.784V34h.832v-4.704c0-2.448-1.296-3.504-2.992-3.504zm5.22-1.616c.32 0 .576-.24.576-.576a.564.564 0 00-.576-.576c-.32 0-.576.24-.576.576 0 .336.256.576.576.576zM181.679 34h.816v-8.112h-.816V34zm3.342-1.888c0 1.296.528 1.888 1.904 1.888h1.184v-.752h-1.12c-.848 0-1.152-.32-1.152-1.152V26.64h2.192v-.752h-2.192v-2.272h-.816v2.272h-1.536v.752h1.536v5.472zm7.664 1.984c1.776 0 3.136-1.152 3.488-2.784h-.832c-.32 1.264-1.392 2.048-2.72 2.048-1.808 0-2.944-1.376-2.976-3.264v-.144h6.624c0-.112.016-.24.016-.336-.08-2.416-1.568-3.824-3.744-3.824-2.224 0-3.744 1.696-3.744 4.096 0 2.544 1.584 4.208 3.888 4.208zm-2.976-4.832c.128-1.648 1.36-2.752 2.848-2.752 1.584 0 2.72.976 2.848 2.752h-5.696zm14.813-1.552c-.496-1.152-1.584-1.92-3.104-1.92-2.224 0-3.824 1.696-3.824 4.144 0 2.56 1.6 4.16 3.824 4.16 1.52 0 2.576-.816 3.088-1.952l.128 1.856h.704V22.8h-.816v4.912zm-3.04 5.648c-1.808 0-3.056-1.408-3.056-3.424 0-2 1.248-3.424 3.056-3.424s3.056 1.424 3.056 3.44c0 2-1.248 3.408-3.056 3.408zm10.695-1.248c0 1.296.528 1.888 1.904 1.888h1.184v-.752h-1.12c-.848 0-1.152-.32-1.152-1.152V26.64h2.192v-.752h-2.192v-2.272h-.816v2.272h-1.536v.752h1.536v5.472zm4.746-7.936c.32 0 .576-.24.576-.576a.564.564 0 00-.576-.576c-.32 0-.576.24-.576.576 0 .336.256.576.576.576zM216.507 34h.816v-8.112h-.816V34zm11.79-8.208c-1.488 0-2.448.832-2.912 2.032-.384-1.344-1.392-2.032-2.672-2.032-1.392 0-2.224.816-2.64 1.824l-.128-1.728h-.704V34h.816v-4.128c0-1.984.96-3.328 2.512-3.328 1.408 0 2.288.992 2.288 2.864V34h.816v-4.416c.048-1.856 1.008-3.04 2.528-3.04 1.408 0 2.256.944 2.256 2.784V34h.832v-4.704c0-2.448-1.296-3.504-2.992-3.504zm8.263 8.304c1.776 0 3.136-1.152 3.488-2.784h-.832c-.32 1.264-1.392 2.048-2.72 2.048-1.808 0-2.944-1.376-2.976-3.264v-.144h6.624c0-.112.016-.24.016-.336-.08-2.416-1.568-3.824-3.744-3.824-2.224 0-3.744 1.696-3.744 4.096 0 2.544 1.584 4.208 3.888 4.208zm-2.976-4.832c.128-1.648 1.36-2.752 2.848-2.752 1.584 0 2.72.976 2.848 2.752h-5.696zm7.946 3.616c-.432 0-.704.272-.704.624 0 .384.256.576.56.576.16 0 .32-.064.4-.192.112.112.144.272.144.416 0 .608-.384 1.232-1.2 1.264v.48c1.104-.048 1.792-.784 1.792-1.84 0-.736-.416-1.328-.992-1.328zM.576 48.64h5.216l-5.44 6.72V56h6.752v-.752h-5.68l5.456-6.736v-.624H.576v.752zm10.937 7.456c1.776 0 3.136-1.152 3.488-2.784h-.832c-.32 1.264-1.392 2.048-2.72 2.048-1.808 0-2.944-1.376-2.976-3.264v-.144h6.624c0-.112.016-.24.016-.336-.08-2.416-1.568-3.824-3.744-3.824-2.224 0-3.744 1.696-3.744 4.096 0 2.544 1.584 4.208 3.888 4.208zm-2.976-4.832c.128-1.648 1.36-2.752 2.848-2.752 1.584 0 2.72.976 2.848 2.752H8.537zm11.5-3.376c-1.503 0-2.143.72-2.48 1.616l-.127-1.616h-.704V56h.816v-4.112c0-1.648.432-3.216 2.336-3.216h.592v-.784h-.432zm4.648 8.208c2.288 0 3.904-1.696 3.904-4.16 0-2.448-1.616-4.144-3.904-4.144s-3.888 1.696-3.888 4.144c0 2.464 1.6 4.16 3.888 4.16zm0-.736c-1.808 0-3.056-1.408-3.056-3.424 0-2 1.248-3.424 3.056-3.424s3.056 1.424 3.056 3.424c0 2.016-1.248 3.424-3.056 3.424zm13.374.736c1.84 0 3.136-1.056 3.456-2.704h-.864c-.273 1.2-1.248 1.968-2.593 1.968-1.776 0-3.008-1.392-3.008-3.408s1.217-3.44 3.009-3.44c1.36 0 2.32.768 2.608 1.984h.847c-.336-1.68-1.6-2.704-3.44-2.704-2.288 0-3.855 1.696-3.855 4.16 0 2.496 1.551 4.144 3.84 4.144zm8.626 0c2.288 0 3.904-1.696 3.904-4.16 0-2.448-1.616-4.144-3.904-4.144s-3.888 1.696-3.888 4.144c0 2.464 1.6 4.16 3.888 4.16zm0-.736c-1.808 0-3.056-1.408-3.056-3.424 0-2 1.248-3.424 3.056-3.424s3.056 1.424 3.056 3.424c0 2.016-1.248 3.424-3.056 3.424zm14.581-7.568c-1.488 0-2.448.832-2.912 2.032-.384-1.344-1.392-2.032-2.672-2.032-1.392 0-2.224.816-2.64 1.824l-.128-1.728h-.704V56h.816v-4.128c0-1.984.96-3.328 2.512-3.328 1.408 0 2.288.992 2.288 2.864V56h.816v-4.416c.048-1.856 1.008-3.04 2.528-3.04 1.408 0 2.256.944 2.256 2.784V56h.832v-4.704c0-2.448-1.296-3.504-2.992-3.504zm13.86 0c-1.489 0-2.449.832-2.913 2.032-.384-1.344-1.392-2.032-2.672-2.032-1.392 0-2.224.816-2.64 1.824l-.128-1.728h-.704V56h.816v-4.128c0-1.984.96-3.328 2.512-3.328 1.408 0 2.288.992 2.288 2.864V56h.816v-4.416c.048-1.856 1.008-3.04 2.528-3.04 1.408 0 2.256.944 2.256 2.784V56h.832v-4.704c0-2.448-1.296-3.504-2.992-3.504zm5.219-1.616c.32 0 .576-.24.576-.576a.564.564 0 00-.576-.576c-.32 0-.576.24-.576.576 0 .336.256.576.576.576zM79.929 56h.816v-8.112h-.816V56zm2.366-2.496c.064 1.68 1.424 2.592 3.456 2.592 1.744 0 3.152-.88 3.152-2.32 0-1.712-1.504-2.048-3.248-2.288-1.264-.176-2.384-.32-2.384-1.456 0-.928.912-1.536 2.288-1.536 1.296 0 2.224.624 2.368 1.68h.832c-.144-1.584-1.44-2.384-3.2-2.384-1.808-.016-3.104.912-3.104 2.304 0 1.632 1.504 1.936 3.168 2.16 1.36.192 2.464.368 2.464 1.568 0 .96-1.008 1.568-2.336 1.568-1.552 0-2.56-.72-2.624-1.888h-.832zm7.64 0c.065 1.68 1.425 2.592 3.457 2.592 1.744 0 3.152-.88 3.152-2.32 0-1.712-1.504-2.048-3.248-2.288-1.264-.176-2.384-.32-2.384-1.456 0-.928.912-1.536 2.288-1.536 1.296 0 2.224.624 2.368 1.68h.832c-.144-1.584-1.44-2.384-3.2-2.384-1.808-.016-3.104.912-3.104 2.304 0 1.632 1.504 1.936 3.168 2.16 1.36.192 2.464.368 2.464 1.568 0 .96-1.008 1.568-2.336 1.568-1.552 0-2.56-.72-2.624-1.888h-.832zm8.582-7.328c.32 0 .576-.24.576-.576a.564.564 0 00-.576-.576c-.32 0-.576.24-.576.576 0 .336.256.576.576.576zM98.1 56h.816v-8.112H98.1V56zm6.318.096c2.288 0 3.904-1.696 3.904-4.16 0-2.448-1.616-4.144-3.904-4.144s-3.888 1.696-3.888 4.144c0 2.464 1.6 4.16 3.888 4.16zm0-.736c-1.808 0-3.056-1.408-3.056-3.424 0-2 1.248-3.424 3.056-3.424s3.056 1.424 3.056 3.424c0 2.016-1.248 3.424-3.056 3.424zm9.269-7.568c-1.488 0-2.448.768-2.912 1.824l-.128-1.728h-.704V56h.816v-4c0-2.112 1.072-3.456 2.8-3.456 1.568 0 2.512 1.024 2.512 2.944V56h.816v-4.544c0-2.56-1.36-3.664-3.2-3.664zm4.638 5.712c.064 1.68 1.424 2.592 3.456 2.592 1.744 0 3.152-.88 3.152-2.32 0-1.712-1.504-2.048-3.248-2.288-1.264-.176-2.384-.32-2.384-1.456 0-.928.912-1.536 2.288-1.536 1.296 0 2.224.624 2.368 1.68h.832c-.144-1.584-1.44-2.384-3.2-2.384-1.808-.016-3.104.912-3.104 2.304 0 1.632 1.504 1.936 3.168 2.16 1.36.192 2.464.368 2.464 1.568 0 .96-1.008 1.568-2.336 1.568-1.552 0-2.56-.72-2.624-1.888h-.832zm7.929 1.968c0 .368.256.608.608.608s.608-.24.608-.608-.256-.592-.608-.592-.608.224-.608.592zm6.06-9.36l-2 .864.032-2.192h-.592l.032 2.192-1.984-.864-.24.56 2.048.784-1.408 1.68.432.4 1.408-1.744 1.408 1.744.448-.4-1.392-1.664 2.032-.784-.224-.576z" fill="#000"/></svg>