<svg width="226" height="56" viewBox="0 0 226 56" fill="none" xmlns="http://www.w3.org/2000/svg"><path d="M5.46 19h3.51l3.666-13.39L16.354 19h3.484L25.064.8h-3.068l-3.9 14.404L14.144.8H11.31L7.254 15.204 3.38.774.286.8 5.46 19zm26.357.156c3.302 0 5.538-2.002 6.006-4.628h-2.808c-.39 1.482-1.638 2.34-3.354 2.34-2.21 0-3.64-1.482-3.718-3.744v-.182H37.98c.052-.364.078-.728.078-1.066-.078-3.9-2.652-6.344-6.5-6.344-3.926 0-6.552 2.73-6.552 6.838 0 4.082 2.626 6.786 6.812 6.786zm-3.77-8.268c.208-1.898 1.742-3.094 3.536-3.094 1.95 0 3.328 1.118 3.562 3.094h-7.098zm29.099-3.12c-.858-1.326-2.288-2.236-4.368-2.236-3.614 0-6.292 2.678-6.292 6.76 0 4.238 2.678 6.76 6.292 6.76 2.08 0 3.458-.858 4.342-2.184v1.482c0 2.548-1.378 3.718-3.822 3.718-1.976 0-3.276-.858-3.614-2.34h-2.86c.26 2.99 2.73 4.628 6.266 4.628 4.784 0 6.812-2.288 6.812-5.902V5.688h-2.444l-.312 2.08zm-3.9 8.918c-2.34 0-3.874-1.794-3.874-4.394 0-2.574 1.534-4.394 3.874-4.394s3.874 1.82 3.874 4.446c0 2.548-1.534 4.342-3.874 4.342zm15.692 2.47c4.056 0 6.786-2.73 6.786-6.812 0-4.056-2.73-6.812-6.786-6.812-4.056 0-6.786 2.756-6.786 6.812 0 4.082 2.73 6.812 6.786 6.812zm0-2.392c-2.366 0-3.9-1.846-3.9-4.42s1.534-4.42 3.9-4.42c2.366 0 3.926 1.846 3.926 4.42s-1.56 4.42-3.926 4.42zm16.658-1.378c0 2.418 1.092 3.614 3.64 3.614h2.6v-2.47H89.86c-1.066 0-1.43-.39-1.43-1.43V8.158h3.25v-2.47h-3.25V1.97h-2.834v3.718h-2.314v2.47h2.314v7.228zm14.039 3.77c4.056 0 6.786-2.73 6.786-6.812 0-4.056-2.73-6.812-6.786-6.812-4.056 0-6.786 2.756-6.786 6.812 0 4.082 2.73 6.812 6.786 6.812zm0-2.392c-2.366 0-3.9-1.846-3.9-4.42s1.534-4.42 3.9-4.42c2.366 0 3.926 1.846 3.926 4.42s-1.56 4.42-3.926 4.42zm15.202-8.606h7.124l-7.436 8.84V19h11.544v-2.47h-7.774l7.436-8.84V5.688h-10.894v2.47zm18.898 10.998c3.302 0 5.538-2.002 6.006-4.628h-2.808c-.39 1.482-1.638 2.34-3.354 2.34-2.21 0-3.64-1.482-3.718-3.744v-.182h10.036c.052-.364.078-.728.078-1.066-.078-3.9-2.652-6.344-6.5-6.344-3.926 0-6.552 2.73-6.552 6.838 0 4.082 2.626 6.786 6.812 6.786zm-3.77-8.268c.208-1.898 1.742-3.094 3.536-3.094 1.95 0 3.328 1.118 3.562 3.094h-7.098zm19.014-5.2c-2.184 0-3.25.884-3.926 2.002l-.312-2.002h-2.496V19h2.808v-6.682c0-2.054.806-4.004 3.302-4.004h1.248V5.688h-.624zm8.013 13.468c4.056 0 6.786-2.73 6.786-6.812 0-4.056-2.73-6.812-6.786-6.812-4.056 0-6.786 2.756-6.786 6.812 0 4.082 2.73 6.812 6.786 6.812zm0-2.392c-2.366 0-3.9-1.846-3.9-4.42s1.534-4.42 3.9-4.42c2.366 0 3.926 1.846 3.926 4.42s-1.56 4.42-3.926 4.42zm9.532-1.118c-1.196 0-1.976.78-1.976 1.768 0 1.118.676 1.664 1.534 1.664.312 0 .624-.078.858-.26.026.104.026.234.026.338 0 .91-.65 1.924-2.288 1.95v1.508c2.574-.026 4.186-1.456 4.186-3.978 0-1.664-.91-2.99-2.34-2.99zM.806 45.606c.078 2.886 2.522 4.55 6.084 4.55 3.224 0 5.642-1.612 5.642-4.16 0-2.964-2.47-3.588-5.512-3.952-1.924-.208-3.198-.364-3.198-1.612 0-1.066 1.092-1.742 2.756-1.742 1.664 0 2.808.858 2.964 2.08h2.756c-.182-2.73-2.496-4.238-5.772-4.238-3.198-.026-5.46 1.612-5.46 4.134 0 2.756 2.392 3.406 5.434 3.77 2.054.26 3.276.364 3.276 1.794 0 1.066-1.144 1.742-2.886 1.742-2.028 0-3.224-.988-3.328-2.366H.806zM21 50.156c4.056 0 6.786-2.73 6.786-6.812 0-4.056-2.73-6.812-6.786-6.812-4.056 0-6.786 2.756-6.786 6.812 0 4.082 2.73 6.812 6.786 6.812zm0-2.392c-2.366 0-3.9-1.846-3.9-4.42s1.534-4.42 3.9-4.42c2.366 0 3.926 1.846 3.926 4.42s-1.56 4.42-3.926 4.42zm19.544 2.314l-.52 1.3c-.416 1.092-.676 1.352-1.768 1.352H36.28v2.47h3.016c1.95 0 2.522-.962 3.354-3.12l6.032-15.392h-2.99l-3.614 10.114-3.718-10.114h-2.99l5.174 13.39zm15.241.078c4.056 0 6.786-2.73 6.786-6.812 0-4.056-2.73-6.812-6.786-6.812-4.056 0-6.786 2.756-6.786 6.812 0 4.082 2.73 6.812 6.786 6.812zm0-2.392c-2.366 0-3.9-1.846-3.9-4.42s1.534-4.42 3.9-4.42c2.366 0 3.926 1.846 3.926 4.42s-1.56 4.42-3.926 4.42zm18.17-4.42c0 2.756-1.3 4.368-3.432 4.368-2.054 0-3.094-1.326-3.094-3.926v-7.098h-2.808v7.41c0 4.55 2.418 6.058 5.252 6.058 2.054 0 3.276-.832 4.108-1.846l.312 1.69h2.47V36.688h-2.808v6.656zm18.338 6.812c3.406 0 5.668-1.898 6.188-4.914h-2.964c-.338 1.534-1.482 2.522-3.198 2.522-2.262 0-3.744-1.794-3.744-4.394 0-2.626 1.482-4.446 3.744-4.446 1.742 0 2.86.962 3.224 2.522h2.938c-.546-3.016-2.678-4.914-6.11-4.914-4.03 0-6.682 2.73-6.682 6.838 0 4.16 2.574 6.786 6.604 6.786zm20.505-2.6c-.572 0-.858-.182-.858-.858v-5.33c0-3.146-2.028-4.836-5.564-4.836-3.354 0-5.59 1.612-5.876 4.212h2.756c.208-1.17 1.326-1.95 2.99-1.95 1.846 0 2.912.91 2.912 2.392v.806h-3.354c-3.718 0-5.694 1.534-5.694 4.264 0 2.47 2.028 3.9 4.94 3.9 2.158 0 3.51-.936 4.394-2.288 0 1.326.624 2.132 2.444 2.132h1.482v-2.444h-.572zm-3.64-3.016c-.026 2.054-1.378 3.432-3.718 3.432-1.534 0-2.47-.78-2.47-1.898 0-1.352.962-2.002 2.704-2.002h3.484v.468zm12.761-8.008c-2.158 0-3.432.858-4.264 1.898l-.312-1.742h-2.444V50h2.808v-6.708c0-2.704 1.326-4.342 3.562-4.342 2.106 0 3.172 1.352 3.172 3.874V50h2.834v-7.41c0-4.446-2.418-6.058-5.356-6.058zm24.729 2.236c-.858-1.326-2.288-2.236-4.368-2.236-3.614 0-6.292 2.678-6.292 6.76 0 4.238 2.678 6.76 6.292 6.76 2.08 0 3.458-.858 4.342-2.184v1.482c0 2.548-1.378 3.718-3.822 3.718-1.976 0-3.276-.858-3.614-2.34h-2.86c.26 2.99 2.73 4.628 6.266 4.628 4.784 0 6.812-2.288 6.812-5.902V36.688h-2.444l-.312 2.08zm-3.9 8.918c-2.34 0-3.874-1.794-3.874-4.394 0-2.574 1.534-4.394 3.874-4.394s3.874 1.82 3.874 4.446c0 2.548-1.534 4.342-3.874 4.342zm15.692 2.47c4.056 0 6.786-2.73 6.786-6.812 0-4.056-2.73-6.812-6.786-6.812-4.056 0-6.786 2.756-6.786 6.812 0 4.082 2.73 6.812 6.786 6.812zm0-2.392c-2.366 0-3.9-1.846-3.9-4.42s1.534-4.42 3.9-4.42c2.366 0 3.926 1.846 3.926 4.42s-1.56 4.42-3.926 4.42zm16.658-1.378c0 2.418 1.092 3.614 3.64 3.614h2.6v-2.47h-1.976c-1.066 0-1.43-.39-1.43-1.43v-6.942h3.25v-2.47h-3.25V32.97h-2.834v3.718h-2.314v2.47h2.314v7.228zm14.039 3.77c4.056 0 6.786-2.73 6.786-6.812 0-4.056-2.73-6.812-6.786-6.812-4.056 0-6.786 2.756-6.786 6.812 0 4.082 2.73 6.812 6.786 6.812zm0-2.392c-2.366 0-3.9-1.846-3.9-4.42s1.534-4.42 3.9-4.42c2.366 0 3.926 1.846 3.926 4.42s-1.56 4.42-3.926 4.42zm18.634-14.118c0 .962-.39 1.638-1.326 1.638h-2.834v2.47h2.964c.494 0 .884-.078 1.144-.234V50h2.886V31.8h-2.834v1.846zm8.836 0c0 .962-.39 1.638-1.326 1.638h-2.834v2.47h2.964c.494 0 .884-.078 1.144-.234V50h2.886V31.8h-2.834v1.846zm5.638 14.742c0 1.04.754 1.768 1.794 1.768s1.82-.728 1.82-1.768-.78-1.768-1.82-1.768-1.794.728-1.794 1.768z" fill="#000"/></svg>