<svg width="320" height="19" viewBox="0 0 320 19" fill="none" xmlns="http://www.w3.org/2000/svg"><path fill="#fff" d="M0 1h320v18H0z"/><path stroke="#7F7F7F" d="M0 .5h320"/><path d="M3.054 5.532h2.13L3.348 9h.936l1.848-3.642V4.8H3.054v.732zm5.595 1.284c.414-.108.732-.408.732-.918 0-.69-.564-1.134-1.512-1.134-.918 0-1.554.534-1.566 1.32h.846c.012-.39.3-.642.708-.642.36 0 .648.18.648.522 0 .33-.234.564-.696.564h-.366v.69h.414c.486 0 .732.21.732.54 0 .378-.306.6-.696.6-.456 0-.792-.252-.804-.726H6.23c0 .9.63 1.404 1.62 1.404.99 0 1.614-.498 1.614-1.224 0-.612-.366-.906-.816-.996zM9.89 5.802c0 .6.468 1.038 1.104 1.038.63 0 1.098-.438 1.098-1.038 0-.6-.468-1.038-1.098-1.038-.636 0-1.104.438-1.104 1.038zM11.402 9l2.88-4.2h-.834L10.568 9h.834zm.006-3.198a.41.41 0 01-.414.426c-.24 0-.42-.18-.42-.426 0-.24.18-.426.42-.426.234 0 .414.186.414.426zm1.35 2.196c0 .6.468 1.038 1.098 1.038.636 0 1.098-.438 1.098-1.038 0-.6-.462-1.038-1.098-1.038-.63 0-1.098.438-1.098 1.038zm1.518 0c0 .246-.18.426-.42.426a.41.41 0 01-.414-.426c0-.24.18-.426.414-.426.24 0 .42.186.42.426zm4.2 1.038c.984 0 1.626-.624 1.626-1.578 0-.948-.642-1.578-1.626-1.578-.984 0-1.626.63-1.626 1.578 0 .948.642 1.578 1.626 1.578zm0-.69c-.474 0-.762-.366-.762-.888s.288-.888.762-.888c.474 0 .768.366.768.888s-.294.888-.768.888zm1.792-1.716h.51V9h.846V6.63h.774v-.714h-.792v-.144c0-.174.084-.252.252-.252h.54V4.8h-.69c-.624 0-.93.318-.93.888v.228h-.51v.714zm5.672-.714c-.48 0-.72.186-.888.462l-.078-.462h-.768V9h.846V7.488c0-.468.192-.804.696-.804h.336v-.768h-.144zm1.946 3.12c.822 0 1.356-.48 1.452-1.08h-.834c-.072.288-.312.438-.654.438-.426 0-.708-.264-.726-.702V7.65h2.238c.018-.096.024-.198.024-.288-.012-.906-.636-1.482-1.56-1.482-.954 0-1.584.624-1.584 1.584 0 .954.618 1.572 1.644 1.572zm-.744-1.938c.048-.366.324-.588.69-.588.384 0 .642.21.702.588h-1.392zm2.917 1.02c0 .588.294.882.882.882h.69v-.714h-.42c-.222 0-.306-.09-.306-.306V6.63h.708v-.714h-.708v-.864h-.846v.864h-.51v.714h.51v1.488zm4.886.168c-.132 0-.198-.03-.198-.192V7.002c0-.738-.498-1.122-1.362-1.122-.816 0-1.368.396-1.428.996h.816c.036-.228.258-.378.588-.378.354 0 .552.18.552.456v.15H33.3c-.924 0-1.416.372-1.416 1.026 0 .588.48.906 1.146.906.48 0 .792-.198 1.008-.54-.006.294.132.504.57.504h.432v-.714h-.096zm-1.032-.558c-.006.42-.276.696-.72.696-.282 0-.456-.138-.456-.354 0-.258.204-.402.558-.402h.618v.06zm1.881-2.142a.477.477 0 100-.954.477.477 0 100 .954zM35.368 9h.852V5.916h-.852V9zm1.436 0h.846V4.8h-.846V9zm3.35-3.414a.477.477 0 100-.954.477.477 0 100 .954zM39.728 9h.852V5.916h-.852V9zm3.205-3.12c-.474 0-.756.18-.954.42l-.078-.384h-.738V9h.846V7.422c0-.534.252-.846.69-.846.426 0 .624.276.624.798V9h.846V7.29c0-1.056-.57-1.41-1.236-1.41zM45.372 9h1.05l1.11-3.084h-.888l-.732 2.22-.744-2.22h-.906L45.372 9zm3.819.036c.822 0 1.356-.48 1.452-1.08h-.834c-.072.288-.312.438-.654.438-.426 0-.708-.264-.726-.702V7.65h2.238c.018-.096.024-.198.024-.288-.012-.906-.636-1.482-1.56-1.482-.954 0-1.584.624-1.584 1.584 0 .954.618 1.572 1.644 1.572zm-.744-1.938c.048-.366.324-.588.69-.588.384 0 .642.21.702.588h-1.392zm2.539.876c.036.66.618 1.062 1.476 1.062.828 0 1.404-.39 1.404-1.002 0-.696-.588-.858-1.296-.93-.444-.054-.708-.078-.708-.312 0-.198.216-.318.546-.318.342 0 .576.15.6.396h.81c-.042-.63-.612-.996-1.44-.996-.792-.006-1.326.396-1.326 1.008 0 .636.558.798 1.278.882.498.066.708.084.708.336 0 .216-.216.33-.57.33-.414 0-.648-.186-.678-.456h-.804zm3.548.144c0 .588.294.882.882.882h.69v-.714h-.42c-.222 0-.306-.09-.306-.306V6.63h.708v-.714h-.708v-.864h-.846v.864h-.51v.714h.51v1.488zm3.422.918c.984 0 1.626-.624 1.626-1.578 0-.948-.642-1.578-1.626-1.578-.984 0-1.626.63-1.626 1.578 0 .948.642 1.578 1.626 1.578zm0-.69c-.474 0-.762-.366-.762-.888s.288-.888.762-.888c.474 0 .768.366.768.888s-.294.888-.768.888zm3.826-2.43c-.48 0-.72.186-.888.462l-.078-.462h-.768V9h.846V7.488c0-.468.192-.804.696-.804h.336v-.768h-.144zm4.95 2.37c-.132 0-.198-.03-.198-.192V7.002c0-.738-.498-1.122-1.362-1.122-.816 0-1.368.396-1.428.996h.816c.036-.228.258-.378.588-.378.354 0 .552.18.552.456v.15h-.612c-.924 0-1.416.372-1.416 1.026 0 .588.48.906 1.146.906.48 0 .792-.198 1.008-.54-.006.294.132.504.57.504h.432v-.714h-.096zM65.7 7.728c-.006.42-.276.696-.72.696-.282 0-.456-.138-.456-.354 0-.258.204-.402.558-.402h.618v.06zm2.896 1.308c.84 0 1.398-.462 1.518-1.2h-.888c-.06.312-.282.51-.612.51-.444 0-.726-.36-.726-.888 0-.522.282-.888.726-.888.33 0 .54.192.612.498h.882c-.12-.732-.642-1.188-1.482-1.188-.978 0-1.602.624-1.602 1.578 0 .972.594 1.578 1.572 1.578zm3.416 0c.84 0 1.398-.462 1.518-1.2h-.888c-.06.312-.282.51-.612.51-.444 0-.726-.36-.726-.888 0-.522.282-.888.726-.888.33 0 .54.192.612.498h.882c-.12-.732-.642-1.188-1.482-1.188-.978 0-1.602.624-1.602 1.578 0 .972.594 1.578 1.572 1.578zm3.47 0c.984 0 1.626-.624 1.626-1.578 0-.948-.642-1.578-1.626-1.578-.984 0-1.626.63-1.626 1.578 0 .948.642 1.578 1.626 1.578zm0-.69c-.474 0-.762-.366-.762-.888s.288-.888.762-.888c.474 0 .768.366.768.888s-.294.888-.768.888zm4.15-.888c0 .57-.247.876-.667.876-.42 0-.6-.27-.6-.822V5.916h-.846v1.71c0 1.092.588 1.41 1.224 1.41.438 0 .708-.168.906-.408l.078.372h.75V5.916h-.846v1.542zm3.203-1.578c-.473 0-.755.18-.953.42l-.079-.384h-.737V9h.846V7.422c0-.534.251-.846.69-.846.425 0 .623.276.623.798V9h.847V7.29c0-1.056-.57-1.41-1.237-1.41zm1.992 2.238c0 .588.294.882.882.882h.69v-.714h-.42c-.222 0-.306-.09-.306-.306V6.63h.707v-.714h-.707v-.864h-.847v.864h-.51v.714h.51v1.488zm1.82-.144c.035.66.617 1.062 1.475 1.062.828 0 1.404-.39 1.404-1.002 0-.696-.588-.858-1.296-.93-.444-.054-.708-.078-.708-.312 0-.198.216-.318.546-.318.342 0 .576.15.6.396h.81c-.042-.63-.612-.996-1.44-.996-.792-.006-1.326.396-1.326 1.008 0 .636.558.798 1.278.882.498.066.708.084.708.336 0 .216-.216.33-.57.33-.414 0-.648-.186-.678-.456h-.804zM91.46 9h.846V4.8h-.846V9zm2.942.036c.984 0 1.626-.624 1.626-1.578 0-.948-.642-1.578-1.626-1.578-.984 0-1.626.63-1.626 1.578 0 .948.642 1.578 1.626 1.578zm0-.69c-.474 0-.762-.366-.762-.888s.288-.888.762-.888c.474 0 .768.366.768.888s-.294.888-.768.888zm1.924-.372c.036.66.618 1.062 1.476 1.062.828 0 1.404-.39 1.404-1.002 0-.696-.588-.858-1.296-.93-.444-.054-.708-.078-.708-.312 0-.198.216-.318.546-.318.342 0 .576.15.6.396h.81c-.042-.63-.612-.996-1.44-.996-.792-.006-1.326.396-1.326 1.008 0 .636.558.798 1.278.882.498.066.708.084.708.336 0 .216-.216.33-.57.33-.414 0-.648-.186-.678-.456h-.804zm4.849 1.062c.822 0 1.356-.48 1.452-1.08h-.834c-.072.288-.312.438-.654.438-.426 0-.708-.264-.726-.702V7.65h2.238c.018-.096.024-.198.024-.288-.012-.906-.636-1.482-1.56-1.482-.954 0-1.584.624-1.584 1.584 0 .954.618 1.572 1.644 1.572zm-.744-1.938c.048-.366.324-.588.69-.588.384 0 .642.21.702.588h-1.392zm7.885-1.218c-.468 0-.828.192-1.044.522-.192-.39-.546-.528-.924-.522-.45.006-.72.18-.906.42l-.078-.384h-.738V9h.846V7.32c0-.462.24-.744.606-.744.372 0 .54.24.54.702V9h.846V7.314c0-.468.246-.738.612-.738s.534.24.534.702V9h.846V7.23c0-.99-.504-1.35-1.14-1.35zm3.166 3.156c.984 0 1.626-.624 1.626-1.578 0-.948-.642-1.578-1.626-1.578-.984 0-1.626.63-1.626 1.578 0 .948.642 1.578 1.626 1.578zm0-.69c-.474 0-.762-.366-.762-.888s.288-.888.762-.888c.474 0 .768.366.768.888s-.294.888-.768.888zm3.861-2.466c-.474 0-.756.18-.954.42l-.078-.384h-.738V9h.846V7.422c0-.534.252-.846.69-.846.426 0 .624.276.624.798V9h.846V7.29c0-1.056-.57-1.41-1.236-1.41zm3.282 3.156c.822 0 1.356-.48 1.452-1.08h-.834c-.072.288-.312.438-.654.438-.426 0-.708-.264-.726-.702V7.65h2.238c.018-.096.024-.198.024-.288-.012-.906-.636-1.482-1.56-1.482-.954 0-1.584.624-1.584 1.584 0 .954.618 1.572 1.644 1.572zm-.744-1.938c.048-.366.324-.588.69-.588.384 0 .642.21.702.588h-1.392zm3.447 1.92l-.078.204c-.084.21-.156.264-.372.264h-.468v.714h.822c.48 0 .636-.252.828-.762l1.368-3.522h-.906l-.732 2.196-.75-2.196h-.9l1.188 3.102zm4.59-.018h.9l.552-1.86.54 1.86h.9l1.014-3.084h-.864l-.63 2.178-.564-2.178h-.762l-.582 2.172-.618-2.172h-.894L125.918 9zm5.96-3.12c-.438 0-.714.174-.912.414V4.8h-.846V9h.846V7.416c0-.528.258-.84.69-.84.42 0 .624.282.624.786V9h.846V7.29c0-1.044-.564-1.41-1.248-1.41zm3.294 3.156c.822 0 1.356-.48 1.452-1.08h-.834c-.072.288-.312.438-.654.438-.426 0-.708-.264-.726-.702V7.65h2.238c.018-.096.024-.198.024-.288-.012-.906-.636-1.482-1.56-1.482-.954 0-1.584.624-1.584 1.584 0 .954.618 1.572 1.644 1.572zm-.744-1.938c.048-.366.324-.588.69-.588.384 0 .642.21.702.588h-1.392zm4.476-1.218c-.474 0-.756.18-.954.42l-.078-.384h-.738V9h.846V7.422c0-.534.252-.846.69-.846.426 0 .624.276.624.798V9h.846V7.29c0-1.056-.57-1.41-1.236-1.41zm3.479 2.238c0 .588.294.882.882.882h.69v-.714h-.42c-.222 0-.306-.09-.306-.306V6.63h.708v-.714h-.708v-.864h-.846v.864h-.51v.714h.51v1.488zm3.698-2.202c-.48 0-.72.186-.888.462l-.078-.462h-.768V9h.846V7.488c0-.468.192-.804.696-.804h.336v-.768h-.144zm3.385 2.37c-.132 0-.198-.03-.198-.192V7.002c0-.738-.498-1.122-1.362-1.122-.816 0-1.368.396-1.428.996h.816c.036-.228.258-.378.588-.378.354 0 .552.18.552.456v.15h-.612c-.924 0-1.416.372-1.416 1.026 0 .588.48.906 1.146.906.48 0 .792-.198 1.008-.54-.006.294.132.504.57.504h.432v-.714h-.096zm-1.032-.558c-.006.42-.276.696-.72.696-.282 0-.456-.138-.456-.354 0-.258.204-.402.558-.402h.618v.06zm3.682-1.428c-.198-.252-.504-.42-.93-.42-.822 0-1.428.618-1.428 1.572 0 .978.606 1.584 1.434 1.584.444 0 .744-.198.948-.462l.084.426h.738V4.8h-.846v1.5zm-.738 2.046c-.462 0-.756-.36-.756-.888s.294-.888.756-.888.75.366.75.894c0 .522-.288.882-.75.882zm2.6-2.76a.477.477 0 100-.954.477.477 0 100 .954zM153.552 9h.852V5.916h-.852V9zm3.205-3.12c-.474 0-.756.18-.954.42l-.078-.384h-.738V9h.846V7.422c0-.534.252-.846.69-.846.426 0 .624.276.624.798V9h.846V7.29c0-1.056-.57-1.41-1.236-1.41zm4.037.462a1.154 1.154 0 00-.96-.468c-.822 0-1.428.612-1.428 1.554 0 .954.606 1.56 1.434 1.554.432 0 .738-.168.942-.426v.324c0 .48-.282.714-.756.714-.39 0-.624-.168-.702-.462h-.852c.042.714.63 1.104 1.488 1.104 1.182 0 1.65-.564 1.65-1.326V5.916h-.744l-.072.426zm-.768 1.962c-.462 0-.756-.354-.756-.87s.294-.876.756-.876.75.366.75.882c0 .51-.288.864-.75.864zm5.565.732c1.026 0 1.752-.624 1.854-1.536h-.906c-.108.468-.444.774-.954.774-.678 0-1.08-.57-1.08-1.374 0-.81.408-1.374 1.092-1.374.498 0 .834.306.942.774h.912c-.108-.912-.81-1.536-1.806-1.536-1.272 0-2.058.846-2.058 2.136s.756 2.136 2.004 2.136zM167.956 9h.9V7.296h1.536v-.738h-1.536v-.984h1.872V4.8h-2.772V9zm4.793 0c1.308 0 2.178-.876 2.178-2.106 0-1.236-.87-2.094-2.178-2.094h-1.53V9h1.53zm-.63-3.45h.63c.804 0 1.254.54 1.254 1.344 0 .798-.45 1.356-1.254 1.356h-.63v-2.7zm3.144 2.424c.036.66.618 1.062 1.476 1.062.828 0 1.404-.39 1.404-1.002 0-.696-.588-.858-1.296-.93-.444-.054-.708-.078-.708-.312 0-.198.216-.318.546-.318.342 0 .576.15.6.396h.81c-.042-.63-.612-.996-1.44-.996-.792-.006-1.326.396-1.326 1.008 0 .636.558.798 1.278.882.498.066.708.084.708.336 0 .216-.216.33-.57.33-.414 0-.648-.186-.678-.456h-.804zM180.791 9h.9l.552-1.86.54 1.86h.9l1.014-3.084h-.864l-.63 2.178-.564-2.178h-.762l-.582 2.172-.618-2.172h-.894L180.791 9zm4.628-3.414a.477.477 0 100-.954.477.477 0 100 .954zM184.993 9h.852V5.916h-.852V9zm1.658-.882c0 .588.294.882.882.882h.69v-.714h-.42c-.222 0-.306-.09-.306-.306V6.63h.708v-.714h-.708v-.864h-.846v.864h-.51v.714h.51v1.488zm3.721-2.238c-.438 0-.714.174-.912.414V4.8h-.846V9h.846V7.416c0-.528.258-.84.69-.84.42 0 .624.282.624.786V9h.846V7.29c0-1.044-.564-1.41-1.248-1.41zm3.492 2.238c0 .588.294.882.882.882h.69v-.714h-.42c-.222 0-.306-.09-.306-.306V6.63h.708v-.714h-.708v-.864h-.846v.864h-.51v.714h.51v1.488zm3.721-2.238c-.438 0-.714.174-.912.414V4.8h-.846V9h.846V7.416c0-.528.258-.84.69-.84.42 0 .624.282.624.786V9h.846V7.29c0-1.044-.564-1.41-1.248-1.41zm2.207-.294a.477.477 0 100-.954.477.477 0 100 .954zM199.366 9h.852V5.916h-.852V9zm1.292-1.026c.036.66.618 1.062 1.476 1.062.828 0 1.404-.39 1.404-1.002 0-.696-.588-.858-1.296-.93-.444-.054-.708-.078-.708-.312 0-.198.216-.318.546-.318.342 0 .576.15.6.396h.81c-.042-.63-.612-.996-1.44-.996-.792-.006-1.326.396-1.326 1.008 0 .636.558.798 1.278.882.498.066.708.084.708.336 0 .216-.216.33-.57.33-.414 0-.648-.186-.678-.456h-.804zm6.584-2.094c-.438 0-.75.198-.948.462l-.084-.426h-.738V10.2h.846V8.61c.198.252.504.426.93.426.828 0 1.428-.612 1.428-1.572 0-.972-.6-1.59-1.434-1.584zm-.186 2.466c-.462 0-.75-.366-.75-.894 0-.522.288-.882.75-.882s.762.36.762.882c0 .528-.3.894-.762.894zm3.824-2.43c-.48 0-.72.186-.888.462l-.078-.462h-.768V9h.846V7.488c0-.468.192-.804.696-.804h.336v-.768h-.144zm1.928 3.12c.984 0 1.626-.624 1.626-1.578 0-.948-.642-1.578-1.626-1.578-.984 0-1.626.63-1.626 1.578 0 .948.642 1.578 1.626 1.578zm0-.69c-.474 0-.762-.366-.762-.888s.288-.888.762-.888c.474 0 .768.366.768.888s-.294.888-.768.888zm2.755.654h1.05l1.11-3.084h-.888l-.732 2.22-.744-2.22h-.906L215.563 9zm2.868-3.414a.477.477 0 100-.954.477.477 0 100 .954zM218.005 9h.852V5.916h-.852V9zm3.673-2.7c-.198-.252-.504-.42-.93-.42-.822 0-1.428.618-1.428 1.572 0 .978.606 1.584 1.434 1.584.444 0 .744-.198.948-.462l.084.426h.738V4.8h-.846v1.5zm-.738 2.046c-.462 0-.756-.36-.756-.888s.294-.888.756-.888.75.366.75.894c0 .522-.288.882-.75.882zm3.698.69c.822 0 1.356-.48 1.452-1.08h-.834c-.072.288-.312.438-.654.438-.426 0-.708-.264-.726-.702V7.65h2.238c.018-.096.024-.198.024-.288-.012-.906-.636-1.482-1.56-1.482-.954 0-1.584.624-1.584 1.584 0 .954.618 1.572 1.644 1.572zm-.744-1.938c.048-.366.324-.588.69-.588.384 0 .642.21.702.588h-1.392zm4.441-1.182c-.48 0-.72.186-.888.462l-.078-.462h-.768V9h.846V7.488c0-.468.192-.804.696-.804h.336v-.768h-.144zm.116 2.622c0 .288.216.498.51.498.288 0 .51-.21.51-.498a.494.494 0 00-.51-.504.49.49 0 00-.51.504zm4.38-1.092V9h.522V7.446l1.584-2.646h-.588l-1.254 2.082-1.236-2.082h-.612l1.584 2.646zm3.384 1.59c.894 0 1.518-.636 1.518-1.566s-.624-1.566-1.518-1.566-1.518.636-1.518 1.566.624 1.566 1.518 1.566zm0-.438c-.606 0-1.014-.474-1.014-1.128 0-.654.408-1.128 1.014-1.128.606 0 1.014.474 1.014 1.128 0 .654-.408 1.128-1.014 1.128zm4.224-1.128c0 .69-.336 1.116-.894 1.116-.51 0-.798-.336-.798-.972V5.94h-.492v1.704c0 1.014.534 1.392 1.206 1.392.504 0 .798-.216.978-.444l.066.408h.426V5.94h-.492v1.53zm2.607.522c.012.672.558 1.044 1.35 1.044.678 0 1.224-.354 1.224-.924 0-.678-.558-.81-1.254-.894-.444-.054-.768-.096-.768-.432 0-.282.288-.462.714-.462.42 0 .708.234.744.546h.504c-.048-.636-.552-.96-1.248-.966-.69-.006-1.2.36-1.2.918 0 .636.546.774 1.23.858.456.054.792.084.792.468 0 .282-.306.468-.738.468-.51 0-.828-.264-.846-.624h-.504zm4.62-2.088c-.516 0-.828.252-1.008.54V4.8h-.492V9h.492V7.47c0-.69.354-1.116.924-1.116.528 0 .834.336.834.972V9h.492V7.296c0-1.014-.558-1.392-1.242-1.392zm3.244 3.132c.894 0 1.518-.636 1.518-1.566s-.624-1.566-1.518-1.566-1.518.636-1.518 1.566.624 1.566 1.518 1.566zm0-.438c-.606 0-1.014-.474-1.014-1.128 0-.654.408-1.128 1.014-1.128.606 0 1.014.474 1.014 1.128 0 .654-.408 1.128-1.014 1.128zm4.224-1.128c0 .69-.336 1.116-.894 1.116-.51 0-.798-.336-.798-.972V5.94h-.492v1.704c0 1.014.534 1.392 1.206 1.392.504 0 .798-.216.978-.444L255.2 9h.426V5.94h-.492v1.53zM256.297 9h.492V4.8h-.492V9zm3.578-2.592c-.186-.294-.534-.504-1.05-.504-.846 0-1.47.63-1.47 1.566 0 .996.624 1.566 1.47 1.566.516 0 .846-.246 1.05-.528l.066.492h.426V4.8h-.492v1.608zm-1.002 2.19c-.606 0-1.014-.462-1.014-1.128 0-.666.408-1.128 1.014-1.128.6 0 1.008.468 1.008 1.14 0 .654-.408 1.116-1.008 1.116zm5.108.438c.744 0 1.242-.42 1.362-1.08h-.522c-.096.39-.396.642-.834.642-.588 0-.984-.456-.984-1.122 0-.666.396-1.134.984-1.134.45 0 .75.246.84.654h.516c-.126-.672-.6-1.092-1.35-1.092-.888 0-1.494.636-1.494 1.572 0 .954.588 1.56 1.482 1.56zm3.312 0c.894 0 1.518-.636 1.518-1.566s-.624-1.566-1.518-1.566-1.518.636-1.518 1.566.624 1.566 1.518 1.566zm0-.438c-.606 0-1.014-.474-1.014-1.128 0-.654.408-1.128 1.014-1.128.606 0 1.014.474 1.014 1.128 0 .654-.408 1.128-1.014 1.128zm3.582-2.694c-.516 0-.828.216-1.008.45l-.066-.414h-.426V9h.492V7.47c0-.69.348-1.116.924-1.116.534 0 .828.336.828.972V9h.492V7.296c0-1.014-.546-1.392-1.236-1.392zm1.737 2.088c.012.672.558 1.044 1.35 1.044.678 0 1.224-.354 1.224-.924 0-.678-.558-.81-1.254-.894-.444-.054-.768-.096-.768-.432 0-.282.288-.462.714-.462.42 0 .708.234.744.546h.504c-.048-.636-.552-.96-1.248-.966-.69-.006-1.2.36-1.2.918 0 .636.546.774 1.23.858.456.054.792.084.792.468 0 .282-.306.468-.738.468-.51 0-.828-.264-.846-.624h-.504zm3.372-2.568c.18 0 .318-.132.318-.318a.309.309 0 00-.318-.318.309.309 0 00-.318.318c0 .186.138.318.318.318zM275.732 9h.492V5.94h-.492V9zm3.579-2.592c-.186-.294-.534-.504-1.05-.504-.846 0-1.47.63-1.47 1.566 0 .996.624 1.566 1.47 1.566.516 0 .846-.246 1.05-.528l.066.492h.426V4.8h-.492v1.608zm-1.002 2.19c-.606 0-1.014-.462-1.014-1.128 0-.666.408-1.128 1.014-1.128.6 0 1.008.468 1.008 1.14 0 .654-.408 1.116-1.008 1.116zm3.574.438c.708 0 1.212-.45 1.332-1.062h-.498c-.102.396-.438.624-.87.624-.582 0-.948-.408-.966-.99v-.042h2.376c.006-.072.012-.144.012-.21-.024-.906-.588-1.452-1.452-1.452s-1.452.636-1.452 1.566c0 .936.6 1.566 1.518 1.566zm-.972-1.878a.906.906 0 01.912-.822c.51 0 .87.294.918.822h-1.83zm4.335-1.218c-.546 0-.78.228-.924.462l-.066-.462h-.426V9h.492V7.44c0-.486.174-1.02.816-1.02h.246v-.48h-.138zM288.083 9h.54l.768-2.274.738 2.274h.54l1.02-3.06h-.498l-.798 2.49-.762-2.49h-.456l-.804 2.49-.762-2.49h-.516l.99 3.06zm5.491-3.096c-.516 0-.828.252-1.008.54V4.8h-.492V9h.492V7.47c0-.69.354-1.116.924-1.116.528 0 .834.336.834.972V9h.492V7.296c0-1.014-.558-1.392-1.242-1.392zm3.244 3.132c.708 0 1.212-.45 1.332-1.062h-.498c-.102.396-.438.624-.87.624-.582 0-.948-.408-.966-.99v-.042h2.376c.006-.072.012-.144.012-.21-.024-.906-.588-1.452-1.452-1.452S295.3 6.54 295.3 7.47c0 .936.6 1.566 1.518 1.566zm-.972-1.878a.906.906 0 01.912-.822c.51 0 .87.294.918.822h-1.83zm3.113 1.044c0 .54.21.798.798.798h.534v-.45h-.486c-.264 0-.354-.096-.354-.354V6.39h.792v-.45h-.792v-.858h-.492v.858h-.552v.45h.552v1.812zm3.258-2.298c-.516 0-.828.252-1.008.54V4.8h-.492V9h.492V7.47c0-.69.354-1.116.924-1.116.528 0 .834.336.834.972V9h.492V7.296c0-1.014-.558-1.392-1.242-1.392zm3.244 3.132c.708 0 1.212-.45 1.332-1.062h-.498c-.102.396-.438.624-.87.624-.582 0-.948-.408-.966-.99v-.042h2.376c.006-.072.012-.144.012-.21-.024-.906-.588-1.452-1.452-1.452s-1.452.636-1.452 1.566c0 .936.6 1.566 1.518 1.566zm-.972-1.878a.906.906 0 01.912-.822c.51 0 .87.294.918.822h-1.83zm4.335-1.218c-.546 0-.78.228-.924.462l-.066-.462h-.426V9h.492V7.44c0-.486.174-1.02.816-1.02h.246v-.48h-.138zM4.224 16.018l-.15.372c-.114.288-.162.36-.444.36h-.438v.45h.588c.432 0 .546-.192.738-.684l1.41-3.576h-.522l-.912 2.442-.942-2.442H3.03l1.194 3.078zm3.346.018c.894 0 1.518-.636 1.518-1.566s-.624-1.566-1.518-1.566-1.518.636-1.518 1.566.624 1.566 1.518 1.566zm0-.438c-.606 0-1.014-.474-1.014-1.128 0-.654.408-1.128 1.014-1.128.606 0 1.014.474 1.014 1.128 0 .654-.408 1.128-1.014 1.128zm4.224-1.128c0 .69-.336 1.116-.894 1.116-.51 0-.798-.336-.798-.972V12.94H9.61v1.704c0 1.014.534 1.392 1.206 1.392.504 0 .798-.216.978-.444l.066.408h.426v-3.06h-.492v1.53zm4.107 1.566c.744 0 1.242-.42 1.362-1.08h-.522c-.096.39-.396.642-.834.642-.588 0-.984-.456-.984-1.122 0-.666.396-1.134.984-1.134.45 0 .75.246.84.654h.516c-.126-.672-.6-1.092-1.35-1.092-.888 0-1.494.636-1.494 1.572 0 .954.588 1.56 1.482 1.56zm4.608-.486c-.138 0-.198-.042-.198-.204v-1.338c0-.714-.45-1.104-1.23-1.104-.738 0-1.224.354-1.296.954h.492c.06-.312.348-.516.78-.516.48 0 .762.24.762.636v.21h-.9c-.804 0-1.23.342-1.23.954 0 .558.456.894 1.128.894.528 0 .834-.234 1.026-.51.006.3.144.474.552.474h.27v-.45h-.156zm-.69-.798c0 .51-.354.864-.966.864-.408 0-.666-.204-.666-.504 0-.348.246-.51.684-.51h.948v.15zm2.724-1.848c-.516 0-.828.216-1.008.45l-.066-.414h-.426V16h.492v-1.53c0-.69.348-1.116.924-1.116.534 0 .828.336.828.972V16h.492v-1.704c0-1.014-.546-1.392-1.236-1.392zm6.14 2.646c-.138 0-.198-.042-.198-.204v-1.338c0-.714-.45-1.104-1.23-1.104-.738 0-1.224.354-1.296.954h.492c.06-.312.348-.516.78-.516.48 0 .762.24.762.636v.21h-.9c-.804 0-1.23.342-1.23.954 0 .558.456.894 1.128.894.528 0 .834-.234 1.026-.51.006.3.144.474.552.474h.27v-.45h-.156zm-.69-.798c0 .51-.354.864-.966.864-.408 0-.666-.204-.666-.504 0-.348.246-.51.684-.51h.948v.15zm4.506-2.502v-.45h-.564c-.57 0-.798.258-.798.798v.342h-1.2v-.354c0-.234.09-.336.336-.336h.474v-.45h-.504c-.57 0-.798.258-.798.798v.342h-.552v.45h.552V16h.492v-2.61h1.2V16h.492v-2.61h.864v-.45h-.864v-.354c0-.234.09-.336.336-.336h.534zm1.626 3.786c.894 0 1.518-.636 1.518-1.566s-.624-1.566-1.518-1.566-1.518.636-1.518 1.566.624 1.566 1.518 1.566zm0-.438c-.606 0-1.014-.474-1.014-1.128 0-.654.408-1.128 1.014-1.128.606 0 1.014.474 1.014 1.128 0 .654-.408 1.128-1.014 1.128zm3.498-2.658c-.546 0-.78.228-.924.462l-.066-.462h-.426V16h.492v-1.56c0-.486.174-1.02.816-1.02h.246v-.48h-.138zm2.8.468c-.185-.294-.533-.504-1.05-.504-.845 0-1.47.63-1.47 1.566 0 .996.625 1.566 1.47 1.566.517 0 .847-.246 1.05-.528l.067.492h.426v-4.2h-.492v1.608zm-1.001 2.19c-.606 0-1.014-.462-1.014-1.128 0-.666.408-1.128 1.014-1.128.6 0 1.008.468 1.008 1.14 0 .654-.408 1.116-1.008 1.116zm3.962-.396c0 .54.21.798.798.798h.534v-.45h-.486c-.264 0-.354-.096-.354-.354V13.39h.792v-.45h-.792v-.858h-.492v.858h-.552v.45h.552v1.812zm3.093.834c.894 0 1.518-.636 1.518-1.566s-.624-1.566-1.518-1.566-1.518.636-1.518 1.566.623 1.566 1.517 1.566zm0-.438c-.606 0-1.014-.474-1.014-1.128 0-.654.407-1.128 1.014-1.128.606 0 1.014.474 1.014 1.128 0 .654-.408 1.128-1.014 1.128zm3.88-.396c0 .54.21.798.798.798h.534v-.45h-.486c-.264 0-.354-.096-.354-.354V13.39h.792v-.45h-.792v-.858h-.492v.858h-.552v.45h.552v1.812zm4.417.348c-.138 0-.198-.042-.198-.204v-1.338c0-.714-.45-1.104-1.23-1.104-.738 0-1.224.354-1.296.954h.492c.06-.312.348-.516.78-.516.48 0 .762.24.762.636v.21h-.9c-.804 0-1.23.342-1.23.954 0 .558.456.894 1.128.894.528 0 .834-.234 1.026-.51.006.3.144.474.552.474h.27v-.45h-.156zm-.69-.798c0 .51-.354.864-.966.864-.408 0-.666-.204-.666-.504 0-.348.246-.51.684-.51h.948v.15zM55.31 16h.492v-.804l.618-.636L57.433 16h.594l-1.278-1.794 1.194-1.266h-.606L55.8 14.566V11.8h-.492V16zm4.298.036c.708 0 1.212-.45 1.332-1.062h-.498c-.102.396-.438.624-.87.624-.582 0-.948-.408-.966-.99v-.042h2.376c.006-.072.012-.144.012-.21-.024-.906-.588-1.452-1.452-1.452s-1.452.636-1.452 1.566c0 .936.6 1.566 1.518 1.566zm-.972-1.878a.906.906 0 01.912-.822c.51 0 .87.294.918.822h-1.83zm4.718 1.044c0 .54.21.798.798.798h.534v-.45H64.2c-.264 0-.354-.096-.354-.354V13.39h.792v-.45h-.792v-.858h-.492v.858h-.552v.45h.552v1.812zm3.258-2.298c-.516 0-.828.252-1.008.54V11.8h-.492V16h.492v-1.53c0-.69.354-1.116.924-1.116.528 0 .834.336.834.972V16h.492v-1.704c0-1.014-.558-1.392-1.242-1.392zm3.244 3.132c.708 0 1.212-.45 1.332-1.062h-.498c-.102.396-.438.624-.87.624-.582 0-.948-.408-.966-.99v-.042h2.376c.006-.072.012-.144.012-.21-.024-.906-.588-1.452-1.452-1.452s-1.452.636-1.452 1.566c0 .936.6 1.566 1.518 1.566zm-.972-1.878a.906.906 0 01.912-.822c.51 0 .87.294.918.822h-1.83zm5.99-1.254c-.516 0-.828.252-1.008.54V11.8h-.492V16h.492v-1.53c0-.69.354-1.116.924-1.116.528 0 .834.336.834.972V16h.492v-1.704c0-1.014-.558-1.392-1.242-1.392zm2.121-.48c.18 0 .318-.132.318-.318a.309.309 0 00-.318-.318.309.309 0 00-.318.318c0 .186.138.318.318.318zM76.742 16h.492v-3.06h-.492V16zm3.578-2.532c-.192-.342-.534-.564-1.05-.564-.846 0-1.47.63-1.47 1.566 0 .996.624 1.566 1.47 1.566.516 0 .846-.216 1.05-.564v.36c0 .666-.348.966-.99.966-.51 0-.852-.216-.936-.6h-.504c.078.672.624 1.038 1.404 1.038 1.05 0 1.518-.504 1.518-1.386v-2.91h-.426l-.066.528zm-1.002 2.13c-.606 0-1.014-.462-1.014-1.128 0-.666.408-1.128 1.014-1.128.6 0 1.008.468 1.008 1.14 0 .654-.408 1.116-1.008 1.116zm3.665-2.694c-.517 0-.829.252-1.008.54V11.8h-.492V16h.492v-1.53c0-.69.354-1.116.924-1.116.528 0 .834.336.834.972V16h.492v-1.704c0-1.014-.558-1.392-1.242-1.392zm4.855.036c-.546 0-.78.228-.924.462l-.066-.462h-.426V16h.492v-1.56c0-.486.174-1.02.816-1.02h.246v-.48h-.138zm.816-.516c.18 0 .318-.132.318-.318a.309.309 0 00-.318-.318.309.309 0 00-.318.318c0 .186.138.318.318.318zM88.402 16h.492v-3.06h-.492V16zm1.04-1.008c.012.672.558 1.044 1.35 1.044.678 0 1.224-.354 1.224-.924 0-.678-.558-.81-1.254-.894-.444-.054-.768-.096-.768-.432 0-.282.288-.462.714-.462.42 0 .708.234.744.546h.504c-.048-.636-.552-.96-1.248-.966-.69-.006-1.2.36-1.2.918 0 .636.546.774 1.23.858.456.054.792.084.792.468 0 .282-.306.468-.738.468-.51 0-.828-.264-.846-.624h-.504zM92.562 16h.493v-.804l.618-.636L94.687 16h.594l-1.278-1.794 1.194-1.266h-.606l-1.536 1.626V11.8h-.492V16zm6.045.036c.894 0 1.518-.636 1.518-1.566s-.624-1.566-1.518-1.566-1.518.636-1.518 1.566.624 1.566 1.518 1.566zm0-.438c-.606 0-1.014-.474-1.014-1.128 0-.654.408-1.128 1.014-1.128.606 0 1.014.474 1.014 1.128 0 .654-.408 1.128-1.014 1.128zm1.723-2.208h.552V16h.492v-2.61h.864v-.45h-.864v-.354c0-.234.09-.336.336-.336h.528v-.45h-.558c-.57 0-.798.258-.798.798v.342h-.552v.45zm3.834 2.61h.492v-4.2h-.492V16zm2.576.036c.894 0 1.518-.636 1.518-1.566s-.624-1.566-1.518-1.566-1.518.636-1.518 1.566.624 1.566 1.518 1.566zm0-.438c-.606 0-1.014-.474-1.014-1.128 0-.654.408-1.128 1.014-1.128.606 0 1.014.474 1.014 1.128 0 .654-.408 1.128-1.014 1.128zm1.945-.606c.012.672.558 1.044 1.35 1.044.678 0 1.224-.354 1.224-.924 0-.678-.558-.81-1.254-.894-.444-.054-.768-.096-.768-.432 0-.282.288-.462.714-.462.42 0 .708.234.744.546h.504c-.048-.636-.552-.96-1.248-.966-.69-.006-1.2.36-1.2.918 0 .636.546.774 1.23.858.456.054.792.084.792.468 0 .282-.306.468-.738.468-.51 0-.828-.264-.846-.624h-.504zm3.372-2.568c.18 0 .318-.132.318-.318a.309.309 0 00-.318-.318.309.309 0 00-.318.318c0 .186.138.318.318.318zM111.805 16h.492v-3.06h-.492V16zm2.666-3.096c-.516 0-.828.216-1.008.45l-.066-.414h-.426V16h.492v-1.53c0-.69.348-1.116.924-1.116.534 0 .828.336.828.972V16h.492v-1.704c0-1.014-.546-1.392-1.236-1.392zm4.275.564c-.192-.342-.534-.564-1.05-.564-.846 0-1.47.63-1.47 1.566 0 .996.624 1.566 1.47 1.566.516 0 .846-.216 1.05-.564v.36c0 .666-.348.966-.99.966-.51 0-.852-.216-.936-.6h-.504c.078.672.624 1.038 1.404 1.038 1.05 0 1.518-.504 1.518-1.386v-2.91h-.426l-.066.528zm-1.002 2.13c-.606 0-1.014-.462-1.014-1.128 0-.666.408-1.128 1.014-1.128.6 0 1.008.468 1.008 1.14 0 .654-.408 1.116-1.008 1.116zm4.623.42l-.15.372c-.114.288-.162.36-.444.36h-.438v.45h.588c.432 0 .546-.192.738-.684l1.41-3.576h-.522l-.912 2.442-.942-2.442h-.522l1.194 3.078zm3.346.018c.894 0 1.518-.636 1.518-1.566s-.624-1.566-1.518-1.566-1.518.636-1.518 1.566.624 1.566 1.518 1.566zm0-.438c-.606 0-1.014-.474-1.014-1.128 0-.654.408-1.128 1.014-1.128.606 0 1.014.474 1.014 1.128 0 .654-.408 1.128-1.014 1.128zm4.224-1.128c0 .69-.336 1.116-.894 1.116-.51 0-.798-.336-.798-.972V12.94h-.492v1.704c0 1.014.534 1.392 1.206 1.392.504 0 .798-.216.978-.444l.066.408h.426v-3.06h-.492v1.53zm2.579-1.53c-.546 0-.78.228-.924.462l-.066-.462h-.426V16h.492v-1.56c0-.486.174-1.02.816-1.02h.246v-.48h-.138zm5.548-.036c-.546 0-.876.252-1.062.582-.174-.39-.54-.582-.966-.582-.474 0-.732.234-.894.456l-.066-.42h-.426V16h.492v-1.614c0-.612.306-1.032.81-1.032.468 0 .738.312.738.912V16h.492v-1.638c0-.624.312-1.008.822-1.008.462 0 .726.312.726.912V16h.492v-1.764c0-.966-.522-1.332-1.158-1.332zm3.164 3.132c.894 0 1.518-.636 1.518-1.566s-.624-1.566-1.518-1.566-1.518.636-1.518 1.566.624 1.566 1.518 1.566zm0-.438c-.606 0-1.014-.474-1.014-1.128 0-.654.408-1.128 1.014-1.128.606 0 1.014.474 1.014 1.128 0 .654-.408 1.128-1.014 1.128zm3.583-2.694c-.516 0-.828.216-1.008.45l-.066-.414h-.426V16h.492v-1.53c0-.69.348-1.116.924-1.116.534 0 .828.336.828.972V16h.492v-1.704c0-1.014-.546-1.392-1.236-1.392zm3.238 3.132c.708 0 1.212-.45 1.332-1.062h-.498c-.102.396-.438.624-.87.624-.582 0-.948-.408-.966-.99v-.042h2.376c.006-.072.012-.144.012-.21-.024-.906-.588-1.452-1.452-1.452s-1.452.636-1.452 1.566c0 .936.6 1.566 1.518 1.566zm-.972-1.878a.906.906 0 01.912-.822c.51 0 .87.294.918.822h-1.83zm3.672 1.86l-.15.372c-.114.288-.162.36-.444.36h-.438v.45h.588c.432 0 .546-.192.738-.684l1.41-3.576h-.522l-.912 2.442-.942-2.442h-.522l1.194 3.078z" fill="#000"/></svg>