<svg width="266" height="116" viewBox="0 0 266 116" fill="none" xmlns="http://www.w3.org/2000/svg"><path d="M15.7 61.923c0-3.71-2.515-6.444-6.154-6.444-3.638 0-6.154 2.733-6.154 6.444 0 3.71 2.516 6.444 6.154 6.444 3.639 0 6.154-2.734 6.154-6.444zm-10.172 0c0-2.679 1.611-4.616 4.018-4.616 2.408 0 4.019 1.937 4.019 4.616 0 2.679-1.611 4.615-4.019 4.615-2.407 0-4.018-1.936-4.018-4.615zm16.76-3.04c-1.449 0-2.408.669-3.023 1.483l-.236-1.375h-1.701v12.887h1.955v-4.923c.579.832 1.574 1.412 3.004 1.412 2.534 0 4.38-1.883 4.38-4.743 0-2.968-1.846-4.742-4.38-4.742zm-.327 7.836c-1.629 0-2.696-1.285-2.696-3.13 0-1.793 1.067-3.042 2.696-3.042 1.63 0 2.715 1.25 2.715 3.077 0 1.81-1.086 3.095-2.715 3.095zm10.671 1.648c2.299 0 3.855-1.394 4.181-3.222h-1.955c-.271 1.032-1.14 1.629-2.335 1.629-1.538 0-2.534-1.032-2.588-2.607v-.126h6.987a5.31 5.31 0 00.054-.742c-.054-2.715-1.846-4.417-4.525-4.417-2.733 0-4.561 1.9-4.561 4.76 0 2.842 1.828 4.725 4.742 4.725zm-2.624-5.756c.144-1.322 1.212-2.154 2.461-2.154 1.358 0 2.317.778 2.48 2.154h-4.941zm13.435-3.729c-1.502 0-2.389.598-2.968 1.322l-.217-1.213h-1.702v9.267h1.955v-4.67c0-1.882.923-3.023 2.48-3.023 1.466 0 2.208.942 2.208 2.697v4.996h1.973V63.1c0-3.096-1.683-4.218-3.729-4.218zm18.609 7.675c-.399 0-.598-.127-.598-.598v-3.71c0-2.19-1.412-3.367-3.873-3.367-2.335 0-3.892 1.122-4.09 2.932h1.918c.145-.814.923-1.357 2.081-1.357 1.285 0 2.028.633 2.028 1.665v.561h-2.335c-2.589 0-3.964 1.068-3.964 2.969 0 1.72 1.412 2.715 3.439 2.715 1.502 0 2.443-.652 3.059-1.593 0 .923.434 1.484 1.701 1.484h1.032v-1.701h-.398zm-2.534-2.1c-.019 1.43-.96 2.39-2.589 2.39-1.068 0-1.72-.544-1.72-1.322 0-.941.67-1.394 1.883-1.394h2.426v.326zm8.23.742c.054 2.01 1.755 3.168 4.235 3.168 2.244 0 3.927-1.123 3.927-2.896 0-2.064-1.719-2.498-3.837-2.752-1.34-.144-2.226-.253-2.226-1.122 0-.742.76-1.212 1.919-1.212 1.158 0 1.954.597 2.063 1.448h1.919c-.127-1.901-1.738-2.95-4.019-2.95-2.226-.019-3.8 1.121-3.8 2.877 0 1.919 1.665 2.371 3.782 2.625 1.43.18 2.28.253 2.28 1.248 0 .743-.796 1.213-2.008 1.213-1.412 0-2.245-.688-2.317-1.647h-1.919zm14.637-6.317c-1.448 0-2.407.67-3.023 1.484l-.235-1.375h-1.702v12.887h1.955v-4.923c.58.832 1.575 1.412 3.005 1.412 2.534 0 4.38-1.883 4.38-4.743 0-2.968-1.846-4.742-4.38-4.742zm-.326 7.837c-1.629 0-2.697-1.285-2.697-3.13 0-1.793 1.068-3.042 2.697-3.042s2.715 1.25 2.715 3.077c0 1.81-1.086 3.095-2.715 3.095zm10.96-7.728c-1.52 0-2.262.615-2.733 1.394l-.217-1.394h-1.738v9.267h1.955v-4.652c0-1.43.561-2.787 2.299-2.787h.869V58.99h-.435zm5.597 9.376c2.298 0 3.855-1.394 4.181-3.222h-1.955c-.271 1.032-1.14 1.629-2.335 1.629-1.538 0-2.534-1.032-2.588-2.607v-.126h6.986c.037-.254.055-.507.055-.742-.055-2.715-1.846-4.417-4.525-4.417-2.733 0-4.561 1.9-4.561 4.76 0 2.842 1.828 4.725 4.742 4.725zM95.99 62.61c.145-1.322 1.213-2.154 2.462-2.154 1.357 0 2.317.778 2.48 2.154h-4.942zm17.02 3.946c-.398 0-.597-.127-.597-.598v-3.71c0-2.19-1.412-3.367-3.874-3.367-2.335 0-3.891 1.122-4.09 2.932h1.918c.145-.814.923-1.357 2.082-1.357 1.285 0 2.027.633 2.027 1.665v.561h-2.335c-2.588 0-3.964 1.068-3.964 2.969 0 1.72 1.412 2.715 3.439 2.715 1.502 0 2.444-.652 3.059-1.593 0 .923.434 1.484 1.701 1.484h1.032v-1.701h-.398zm-2.534-2.1c-.018 1.43-.959 2.39-2.588 2.39-1.068 0-1.72-.544-1.72-1.322 0-.941.67-1.394 1.882-1.394h2.426v.326zm10.967-4.181c-.597-.815-1.593-1.394-3.005-1.394-2.515 0-4.38 1.883-4.38 4.742 0 2.969 1.865 4.743 4.38 4.743 1.467 0 2.426-.688 3.023-1.503l.235 1.394h1.702v-12.67h-1.955v4.688zm-2.679 6.443c-1.629 0-2.697-1.266-2.697-3.095 0-1.81 1.068-3.077 2.697-3.077s2.697 1.267 2.697 3.114c0 1.791-1.068 3.058-2.697 3.058zm16.135-7.837c-1.43 0-2.39.652-3.005 1.484v-4.778h-1.955v12.67h1.702l.235-1.34c.579.833 1.575 1.449 3.023 1.449 2.534 0 4.38-1.9 4.38-4.743 0-2.986-1.846-4.742-4.38-4.742zm-.326 7.837c-1.629 0-2.697-1.285-2.697-3.113 0-1.792 1.068-3.059 2.697-3.059s2.715 1.267 2.715 3.077c0 1.828-1.086 3.095-2.715 3.095zm10.67 1.648c2.299 0 3.856-1.394 4.182-3.222h-1.955c-.272 1.032-1.141 1.629-2.335 1.629-1.539 0-2.534-1.032-2.588-2.607v-.126h6.986a5.34 5.34 0 00.054-.742c-.054-2.715-1.846-4.417-4.525-4.417-2.733 0-4.561 1.9-4.561 4.76 0 2.842 1.828 4.725 4.742 4.725zm-2.624-5.756c.145-1.322 1.213-2.154 2.462-2.154 1.357 0 2.316.778 2.479 2.154h-4.941zm17.6 3.928c-.687 0-.959-.272-.959-.996V60.71h2.245v-1.72h-2.245v-2.587h-1.955v2.588h-3.565v-2.588h-1.973v2.588h-1.611v1.72h1.611v5.031c0 1.683.76 2.516 2.534 2.516h1.611v-1.72H154.7c-.706 0-.959-.271-.959-.995V60.71h3.565v5.032c0 1.683.742 2.516 2.516 2.516h1.883v-1.72h-1.485zm3.734-8.851c.67 0 1.195-.49 1.195-1.177 0-.688-.525-1.176-1.195-1.176s-1.195.488-1.195 1.176.525 1.177 1.195 1.177zm-.995 10.57h1.954v-9.267h-1.954v9.267zm8.758-9.376c-1.503 0-2.39.598-2.969 1.322l-.217-1.213h-1.701v9.267h1.954v-4.67c0-1.882.923-3.023 2.48-3.023 1.466 0 2.208.942 2.208 2.697v4.996h1.973V63.1c0-3.096-1.683-4.218-3.728-4.218zM184.3 60.44c-.597-.923-1.593-1.557-3.041-1.557-2.516 0-4.38 1.864-4.38 4.706 0 2.95 1.864 4.706 4.38 4.706 1.448 0 2.407-.597 3.023-1.52v1.031c0 1.774-.959 2.589-2.661 2.589-1.375 0-2.28-.598-2.516-1.63h-1.991c.181 2.082 1.901 3.223 4.362 3.223 3.331 0 4.743-1.593 4.743-4.11v-8.886h-1.702l-.217 1.448zm-2.715 6.208c-1.629 0-2.697-1.249-2.697-3.059 0-1.792 1.068-3.059 2.697-3.059s2.697 1.267 2.697 3.095c0 1.774-1.068 3.023-2.697 3.023zm19.646-.09c-.399 0-.598-.127-.598-.598v-3.71c0-2.19-1.411-3.367-3.873-3.367-2.335 0-3.892 1.122-4.091 2.932h1.919c.145-.814.923-1.357 2.081-1.357 1.286 0 2.028.633 2.028 1.665v.561h-2.335c-2.589 0-3.964 1.068-3.964 2.969 0 1.72 1.412 2.715 3.439 2.715 1.502 0 2.443-.652 3.059-1.593 0 .923.434 1.484 1.701 1.484h1.032v-1.701h-.398zm-2.534-2.1c-.018 1.43-.96 2.39-2.589 2.39-1.068 0-1.719-.544-1.719-1.322 0-.941.67-1.394 1.882-1.394h2.426v.326zm8.179 3.91c2.372 0 3.946-1.322 4.308-3.421h-2.063c-.235 1.068-1.032 1.755-2.226 1.755-1.575 0-2.607-1.248-2.607-3.058 0-1.829 1.032-3.096 2.607-3.096 1.212 0 1.991.67 2.244 1.756h2.045c-.38-2.1-1.864-3.42-4.253-3.42-2.806 0-4.652 1.9-4.652 4.76 0 2.895 1.792 4.724 4.597 4.724zm10.058 0c2.371 0 3.946-1.322 4.308-3.421h-2.064c-.235 1.068-1.031 1.755-2.226 1.755-1.575 0-2.606-1.248-2.606-3.058 0-1.829 1.031-3.096 2.606-3.096 1.213 0 1.991.67 2.244 1.756h2.046c-.38-2.1-1.865-3.42-4.254-3.42-2.805 0-4.651 1.9-4.651 4.76 0 2.895 1.791 4.724 4.597 4.724zm10.184 0c2.824 0 4.724-1.9 4.724-4.743 0-2.823-1.9-4.742-4.724-4.742-2.823 0-4.724 1.919-4.724 4.742 0 2.842 1.901 4.743 4.724 4.743zm0-1.666c-1.647 0-2.715-1.285-2.715-3.077 0-1.791 1.068-3.077 2.715-3.077 1.647 0 2.733 1.286 2.733 3.077 0 1.792-1.086 3.077-2.733 3.077zm12.649-3.077c0 1.919-.905 3.041-2.389 3.041-1.43 0-2.154-.923-2.154-2.733v-4.941h-1.955v5.158c0 3.168 1.684 4.218 3.657 4.218 1.429 0 2.28-.58 2.859-1.285l.218 1.176h1.719v-9.267h-1.955v4.633zm8.768-4.742c-1.502 0-2.389.598-2.968 1.322l-.217-1.213h-1.702v9.267h1.955v-4.67c0-1.882.923-3.023 2.48-3.023 1.466 0 2.208.942 2.208 2.697v4.996h1.973V63.1c0-3.096-1.683-4.218-3.729-4.218zm6.177 6.86c0 1.683.76 2.516 2.534 2.516h1.81v-1.72h-1.376c-.742 0-.996-.271-.996-.995V60.71h2.263v-1.72h-2.263v-2.587h-1.972v2.588h-1.611v1.72h1.611v5.031zM6.035 90.258h.996l2.715-7.71 2.588 7.71h.995l3.258-9.177h-.94l-2.825 8.073-2.624-8.073h-.85l-2.77 8.073L3.9 81.08h-.977l3.113 9.177zM18.35 79.145a.638.638 0 00.652-.652c0-.38-.29-.652-.652-.652a.638.638 0 00-.651.652c0 .38.29.652.651.652zm-.47 11.113h.923v-9.177h-.923v9.177zm3.78-2.136c0 1.466.598 2.136 2.155 2.136h1.339v-.85h-1.267c-.96 0-1.303-.363-1.303-1.304v-6.172h2.48v-.85h-2.48v-2.57h-.923v2.57h-1.738v.85h1.738v6.19zm9.134-7.15c-1.72 0-2.787.96-3.312 2.281v-5.665h-.924v12.67h.924v-4.525c0-2.39 1.212-3.91 3.167-3.91 1.756 0 2.842 1.159 2.842 3.33v5.105h.923v-5.14c0-2.896-1.539-4.145-3.62-4.145zm16.134 9.395c2.715 0 4.633-1.467 5.176-4.019h-1.031c-.543 2.028-2.01 3.114-4.163 3.114-2.932 0-4.779-2.3-4.779-5.539 0-3.24 1.883-5.539 4.815-5.539 2.118 0 3.602 1.105 4.163 3.096h1.032c-.561-2.535-2.48-4-5.14-4-3.566 0-5.883 2.642-5.883 6.443 0 3.837 2.262 6.444 5.81 6.444zm7.534-11.222a.638.638 0 00.651-.652c0-.38-.29-.652-.651-.652a.638.638 0 00-.652.652c0 .38.29.652.652.652zm-.47 11.113h.922v-9.177h-.923v9.177zm3.78-2.136c0 1.466.598 2.136 2.154 2.136h1.34v-.85h-1.267c-.96 0-1.303-.363-1.303-1.304v-6.172h2.48v-.85h-2.48v-2.57h-.924v2.57h-1.737v.85h1.737v6.19zm7.65 2.136l-.598 1.484c-.416 1.014-.58 1.285-1.52 1.285h-1.159v.851h1.412c1.23 0 1.52-.47 2.1-1.919l4.398-10.878h-.996l-3.13 7.982-3.186-7.982h-.996l3.674 9.177zm10.97 0h.977v-12.67h-.977v12.67zm7.606-9.285c-1.683 0-2.77.868-3.294 2.063l-.145-1.955h-.796v9.177h.923v-4.525c0-2.39 1.212-3.91 3.167-3.91 1.774 0 2.842 1.159 2.842 3.33v5.105h.923v-5.14c0-2.896-1.538-4.145-3.62-4.145zm13.015 2.172c-.561-1.303-1.792-2.172-3.511-2.172-2.516 0-4.326 1.918-4.326 4.688 0 2.896 1.81 4.706 4.326 4.706 1.72 0 2.914-.924 3.493-2.209l.145 2.1h.796v-12.67h-.923v5.557zm-3.439 6.389c-2.045 0-3.457-1.593-3.457-3.873 0-2.263 1.412-3.874 3.457-3.874s3.457 1.611 3.457 3.892c0 2.262-1.412 3.855-3.457 3.855zm10.588.833c2.009 0 3.547-1.304 3.946-3.15h-.942c-.362 1.43-1.574 2.317-3.077 2.317-2.045 0-3.33-1.557-3.366-3.692v-.163h7.493c0-.127.018-.272.018-.38-.09-2.734-1.773-4.326-4.235-4.326-2.516 0-4.236 1.918-4.236 4.633 0 2.878 1.792 4.76 4.399 4.76zm-3.367-5.467c.145-1.864 1.539-3.113 3.222-3.113 1.792 0 3.077 1.104 3.222 3.113h-6.444zm7.968 5.358h1.068l3.041-4.036 3.041 4.036h1.122l-3.566-4.688 3.385-4.489h-1.05l-2.896 3.801-2.86-3.8h-1.104l3.385 4.488-3.566 4.688zm15.028-2.136c0 1.466.598 2.136 2.154 2.136h1.34v-.85h-1.267c-.96 0-1.304-.363-1.304-1.304v-6.172h2.48v-.85h-2.48v-2.57h-.923v2.57h-1.737v.85h1.737v6.19zm8.67 2.245c2.588 0 4.416-1.919 4.416-4.706 0-2.77-1.828-4.688-4.416-4.688-2.589 0-4.399 1.918-4.399 4.688 0 2.787 1.81 4.706 4.399 4.706zm0-.833c-2.046 0-3.457-1.593-3.457-3.873 0-2.263 1.411-3.874 3.457-3.874 2.045 0 3.457 1.611 3.457 3.874 0 2.28-1.412 3.873-3.457 3.873zm13.744-6.39c-.561-1.303-1.792-2.171-3.512-2.171-2.516 0-4.326 1.918-4.326 4.688 0 2.896 1.81 4.706 4.326 4.706 1.72 0 2.914-.924 3.494-2.209l.144 2.1h.797v-12.67h-.923v5.557zm-3.439 6.39c-2.046 0-3.457-1.593-3.457-3.873 0-2.263 1.411-3.874 3.457-3.874 2.045 0 3.457 1.611 3.457 3.892 0 2.262-1.412 3.855-3.457 3.855zm14.606-.127c-.543 0-.815-.18-.815-.887V84.25c0-2.1-1.285-3.276-3.584-3.276-2.099 0-3.493 1.013-3.728 2.678h.923c.235-1.122 1.213-1.864 2.769-1.864 1.72 0 2.697.905 2.697 2.426v.796h-3.113c-2.353 0-3.62 1.014-3.62 2.733 0 1.63 1.285 2.625 3.24 2.625 1.864 0 2.968-.851 3.529-1.991v.325c-.036 1.086.417 1.557 1.503 1.557h.543v-.85h-.344zm-1.738-2.86c0 1.756-1.249 3.023-3.421 3.023-1.466 0-2.371-.742-2.371-1.882 0-1.213.905-1.883 2.607-1.883h3.185v.742zm5.767 3.711l-.598 1.484c-.416 1.014-.579 1.285-1.52 1.285h-1.158v.851h1.411c1.231 0 1.521-.47 2.1-1.919l4.398-10.878h-.995l-3.131 7.982-3.186-7.982h-.996l3.675 9.177z" fill="#000"/><path d="M.818 10.858h8.829v24.445h4.7V10.858h8.83v-4.17H.817v4.17zm33.971 3.516c-3.434 0-5.11 1.39-6.172 3.147l-.491-3.147h-3.924v20.929h4.415V24.797c0-3.229 1.267-6.295 5.191-6.295h1.962v-4.128h-.981zM56.985 31.46c-.9 0-1.35-.286-1.35-1.349v-8.38c0-4.946-3.188-7.603-8.747-7.603-5.273 0-8.789 2.535-9.238 6.622h4.333c.327-1.839 2.085-3.065 4.7-3.065 2.903 0 4.579 1.43 4.579 3.76v1.268h-5.273c-5.846 0-8.952 2.411-8.952 6.703 0 3.884 3.188 6.132 7.766 6.132 3.393 0 5.519-1.472 6.909-3.597 0 2.085.98 3.352 3.842 3.352h2.33V31.46h-.9zm-5.723-4.742c-.041 3.23-2.167 5.396-5.846 5.396-2.411 0-3.883-1.226-3.883-2.984 0-2.125 1.513-3.147 4.251-3.147h5.478v.735zm24.768-9.442c-1.349-1.84-3.597-3.148-6.785-3.148-5.682 0-9.893 4.252-9.893 10.71 0 6.704 4.21 10.71 9.893 10.71 3.31 0 5.477-1.553 6.826-3.393l.532 3.148h3.842V6.689H76.03v10.587zm-6.05 14.552c-3.678 0-6.09-2.861-6.09-6.99 0-4.088 2.412-6.949 6.09-6.949 3.68 0 6.091 2.861 6.091 7.031 0 4.047-2.412 6.908-6.09 6.908zm24.712 3.72c5.192 0 8.707-3.148 9.443-7.276H99.72c-.613 2.33-2.575 3.679-5.273 3.679-3.475 0-5.723-2.33-5.845-5.887v-.286h15.778c.082-.572.123-1.144.123-1.676-.123-6.131-4.17-9.974-10.22-9.974-6.172 0-10.3 4.293-10.3 10.751 0 6.418 4.128 10.669 10.71 10.669zm-5.927-12.999c.327-2.984 2.739-4.864 5.56-4.864 3.065 0 5.232 1.757 5.6 4.864h-11.16zm31.278 7.072c0 3.801 1.717 5.682 5.723 5.682h4.088v-3.884h-3.107c-1.676 0-2.248-.613-2.248-2.248V18.257h5.109v-3.883h-5.109V8.528h-4.456v5.846h-3.638v3.883h3.638v11.364zm31.51 1.84c-.899 0-1.349-.287-1.349-1.35v-8.38c0-4.946-3.188-7.603-8.748-7.603-5.273 0-8.788 2.535-9.238 6.622h4.333c.327-1.839 2.085-3.065 4.701-3.065 2.902 0 4.578 1.43 4.578 3.76v1.268h-5.273c-5.845 0-8.952 2.411-8.952 6.703 0 3.884 3.188 6.132 7.767 6.132 3.392 0 5.518-1.472 6.908-3.597 0 2.085.981 3.352 3.842 3.352h2.33V31.46h-.899zm-5.723-4.742c-.041 3.229-2.166 5.395-5.845 5.395-2.412 0-3.884-1.226-3.884-2.984 0-2.125 1.513-3.147 4.252-3.147h5.477v.735zm6.861 8.584h4.864l5.518-7.603 5.478 7.603h5.15l-7.889-10.71 7.44-10.22h-4.865l-5.109 7.072-4.987-7.071h-5.151l7.399 10.219-7.848 10.71zm34.94-9.81v-3.639h-13.898v3.638h13.898zm1.467-7.236h3.638v17.046h4.455V18.257h5.601v-3.883h-5.682v-1.758c0-1.43.613-2.044 2.044-2.044h3.638V6.69h-4.211c-4.047 0-5.845 1.962-5.845 5.723v1.962h-3.638v3.883zm26.564-3.883c-3.433 0-5.109 1.39-6.172 3.147l-.491-3.147h-3.924v20.929h4.415V24.797c0-3.229 1.267-6.295 5.191-6.295h1.963v-4.128h-.982zm12.639 21.174c5.192 0 8.707-3.148 9.443-7.276h-4.415c-.613 2.33-2.575 3.679-5.273 3.679-3.474 0-5.723-2.33-5.845-5.887v-.286h15.778c.082-.572.123-1.144.123-1.676-.123-6.131-4.169-9.974-10.219-9.974-6.173 0-10.301 4.293-10.301 10.751 0 6.418 4.128 10.669 10.709 10.669zm-5.927-12.999c.327-2.984 2.739-4.864 5.56-4.864 3.065 0 5.232 1.757 5.6 4.864h-11.16zm29.24 12.999c5.192 0 8.707-3.148 9.443-7.276h-4.415c-.613 2.33-2.575 3.679-5.273 3.679-3.475 0-5.723-2.33-5.845-5.887v-.286h15.778c.082-.572.123-1.144.123-1.676-.123-6.131-4.17-9.974-10.22-9.974-6.172 0-10.301 4.293-10.301 10.751 0 6.418 4.129 10.669 10.71 10.669zm-5.927-12.999c.327-2.984 2.739-4.864 5.559-4.864 3.066 0 5.233 1.757 5.601 4.864h-11.16z" fill="url(#paint0_linear_1247_6630)"/><defs><linearGradient id="paint0_linear_1247_6630" x1="266" y1="31.64" x2="0" y2="31.64" gradientUnits="userSpaceOnUse"><stop stop-color="#FF4343"/><stop offset=".5" stop-color="#9C0B93"/><stop offset="1" stop-color="#4C1BB7"/></linearGradient></defs></svg>