<svg width="133" height="43" viewBox="0 0 133 43" fill="none" xmlns="http://www.w3.org/2000/svg"><rect x=".161" y=".484" width="132" height="42" rx="21" fill="#000"/><path d="M24.023 17.264h4.108v11.22h1.575v-11.22h4.108v-1.448h-9.79v1.448zm14.519 1.99c-1.647 0-2.353.688-2.787 1.394l-.2-1.393h-1.284v9.229h1.484v-4.705c0-1.466.525-3.077 2.461-3.077h.742v-1.448h-.416zm9.546 7.873c-.416 0-.597-.127-.597-.616v-4.035c0-2.154-1.358-3.33-3.71-3.33-2.226 0-3.692 1.068-3.91 2.877h1.485c.18-.94 1.05-1.556 2.352-1.556 1.448 0 2.299.724 2.299 1.918v.634h-2.715c-2.425 0-3.71 1.031-3.71 2.877 0 1.683 1.376 2.697 3.402 2.697 1.593 0 2.516-.706 3.095-1.539.018.905.434 1.43 1.665 1.43h.814v-1.357h-.47zm-2.081-2.407c0 1.538-1.068 2.606-2.914 2.606-1.23 0-2.009-.616-2.009-1.52 0-1.05.742-1.539 2.063-1.539h2.86v.453zm10.861-4.054c-.561-.887-1.61-1.52-3.167-1.52-2.552 0-4.434 1.9-4.434 4.723 0 3.004 1.882 4.724 4.434 4.724 1.556 0 2.552-.742 3.167-1.593l.2 1.484h1.284V15.816h-1.484v4.85zm-3.022 6.605c-1.828 0-3.058-1.393-3.058-3.402 0-2.009 1.23-3.402 3.058-3.402 1.81 0 3.04 1.412 3.04 3.438 0 1.973-1.23 3.366-3.04 3.366zm10.78 1.322c2.136 0 3.656-1.358 4.018-3.204h-1.502c-.308 1.195-1.322 1.882-2.624 1.882-1.756 0-2.86-1.23-2.914-2.986v-.126h7.166c.018-.217.037-.435.037-.634-.073-2.732-1.774-4.38-4.38-4.38s-4.38 1.92-4.38 4.724c0 2.823 1.81 4.724 4.58 4.724zm-2.932-5.665c.145-1.502 1.394-2.48 2.751-2.48 1.538 0 2.624.888 2.769 2.48h-5.52zm18.066-3.782c-1.556 0-2.497.651-3.04 1.357l-.199-1.248h-1.285v9.229h1.484v-4.615c0-2.08 1.05-3.366 2.787-3.366 1.61 0 2.497 1.014 2.497 2.932v5.049h1.484v-5.14c0-3.058-1.647-4.198-3.728-4.198zm9.767 9.447c2.696 0 4.578-1.919 4.578-4.724s-1.882-4.723-4.578-4.723c-2.697 0-4.579 1.918-4.579 4.723 0 2.805 1.883 4.724 4.579 4.724zm0-1.322c-1.828 0-3.058-1.43-3.058-3.402 0-1.972 1.23-3.402 3.058-3.402 1.828 0 3.058 1.43 3.058 3.402 0 1.973-1.23 3.402-3.058 3.402zm8.097 1.213h1.629l2.316-6.859 2.226 6.859h1.629l3.076-9.23h-1.502l-2.407 7.51-2.298-7.51h-1.375l-2.425 7.51-2.299-7.51h-1.556l2.986 9.23z" fill="#fff"/></svg>