<svg width="229" height="33" viewBox="0 0 229 33" fill="none" xmlns="http://www.w3.org/2000/svg"><path d="M9.507 32.834c-3.86 0-6.42-.656-8.328-1.486L.052 24.703h.824l.824 1.574c1.952 3.76 4.337 5.42 8.154 5.42 4.381 0 6.854-2.185 6.854-5.77 0-3.191-1.822-4.809-7.027-6.645C3.78 17.228.832 14.954.832 9.84c0-5.202 4.641-8.918 10.41-8.918 3.6 0 5.683.48 7.678 1.311l1.084 6.907h-.867l-.781-1.617c-1.778-3.76-4.034-5.465-7.46-5.465-3.6 0-5.726 2.186-5.726 5.29 0 3.235 1.735 4.677 6.68 6.382 6.506 2.186 9.239 4.678 9.239 9.75.043 5.551-5.292 9.354-11.582 9.354zM36.747 30.124c-1.822 1.574-3.687 2.623-6.029 2.623-3.47 0-5.292-1.574-5.292-5.334V12.9h-3.21v-.83l3.427-1.312 3.383-6.82h1.388v6.995h5.813V12.9h-5.813v14.426c0 2.142 1.041 3.191 2.733 3.191 1.171 0 1.952-.306 3.036-1.093l.564.7zM48.936 32.922c-6.29 0-10.931-4.022-10.931-11.498 0-6.338 4.511-11.19 10.974-11.19 6.246 0 10.93 4.021 10.93 11.496-.043 6.34-4.597 11.192-10.973 11.192zm-.608-21.552c-3.08 0-4.814 2.36-4.814 8.787 0 7.038 2.255 11.628 5.985 11.628 3.124 0 4.815-2.36 4.815-8.787 0-7.038-2.212-11.628-5.986-11.628zM86.585 32.44c-.997 0-3.556-.043-5.508-.043-1.909 0-4.468.044-5.552.044v-.7l.737-.13c1.952-.35 2.3-.963 2.3-4.94v-8.569c0-3.322-1.432-4.94-3.992-4.94-1.778 0-3.253.7-4.554 1.661V26.67c0 4.022.304 4.59 2.299 4.94l.737.131v.7c-1.084 0-3.6-.044-5.552-.044-1.952 0-4.51.044-5.552.044v-.7l.868-.13c1.822-.263 2.169-.963 2.169-5.334v-9.443c0-2.36-.39-3.016-1.996-3.76l-1.084-.524v-.48l7.547-1.662.608.394v3.06c2.385-2.055 4.597-3.41 7.417-3.41 4.034 0 6.159 2.185 6.159 6.776v9.18c0 4.459.347 4.984 2.212 5.333l.78.131-.043.569zM92.875 19.545v.306c.13 6.207 3.47 10.054 7.981 10.054 2.472 0 4.207-.918 6.029-2.754l.608.437c-2.343 3.279-5.379 5.334-9.283 5.334-5.725 0-10.02-3.935-10.02-10.71 0-7.301 5.466-11.935 10.714-11.935 5.812 0 8.632 3.279 8.762 9.311l-14.791-.043zm9.499-1.224c-.13-4.59-1.778-6.908-4.38-6.908-2.95 0-4.815 2.536-5.119 6.908h9.499zM139.373 32.44c-.78 0-4.684-.087-6.202-.087-1.605 0-6.463.088-7.287.088v-.612l1.388-.219c1.344-.218 1.908-.568 1.908-1.399 0-.7-.434-1.573-1.388-3.06l-4.858-7.475-4.858 6.732c-1.128 1.574-1.648 2.754-1.648 3.628 0 .875.52 1.4 1.865 1.618l1.431.218v.612c-.78 0-4.25-.087-5.812-.087-1.561 0-4.034.087-4.858.087v-.655l.737-.131c1.952-.35 3.774-2.011 5.249-3.891l7.027-9.268-6.897-10.317c-1.605-2.404-2.733-3.497-4.468-3.803l-.911-.175v-.612c.781 0 4.685.088 6.203.088 1.605 0 6.376-.088 7.2-.088v.612l-1.388.219c-1.171.175-1.821.568-1.821 1.399 0 .699.433 1.573 1.388 3.06l4.164 6.47 4.077-5.77c1.084-1.575 1.648-2.755 1.648-3.586 0-.83-.564-1.398-1.865-1.617l-1.431-.219v-.612c.78 0 4.251.088 5.812.088 1.562 0 4.034-.088 4.858-.088V4.2l-.737.132c-1.952.35-3.731 1.836-5.249 3.89l-6.289 8.306 7.634 11.279c1.605 2.404 2.733 3.497 4.468 3.803l.91.175v.656zM142.844 8.353c-.347 0-.651-.043-.911-.174a2.268 2.268 0 01-.738-.525 1.978 1.978 0 01-.477-.743 2.3 2.3 0 01-.173-.918c0-.35.043-.656.173-.918.13-.306.304-.525.477-.743.174-.22.477-.394.738-.481.303-.131.607-.175.911-.175.347 0 .65.043.91.175.304.13.521.306.738.48.217.22.39.481.477.744a2.3 2.3 0 01.173.918c0 .35-.043.655-.173.918-.13.306-.304.524-.477.743a2.842 2.842 0 01-.738.525 2.81 2.81 0 01-.91.174zm0-.35c.303 0 .563-.043.78-.174.261-.088.477-.263.651-.437.173-.175.304-.394.434-.656.086-.262.13-.525.13-.787 0-.306-.044-.568-.13-.787-.087-.262-.261-.48-.434-.656-.174-.174-.39-.306-.651-.437-.26-.087-.52-.175-.78-.175-.304 0-.564.044-.781.175-.26.088-.477.263-.651.437-.173.175-.303.394-.434.656-.086.262-.13.525-.13.787 0 .306.044.568.13.787.087.262.261.48.434.656.174.174.391.35.651.437.26.13.52.175.781.175zm-.998-.611V4.594h1.214c.304 0 .564.087.738.218.173.175.26.35.26.612a.798.798 0 01-.26.612c-.174.175-.391.219-.694.219l.13-.044c.13 0 .217.044.304.088a.747.747 0 01.26.262l.477.83h-.651l-.477-.917c-.043-.088-.087-.132-.13-.132-.043-.043-.13-.043-.217-.043h-.303v1.093h-.651zm.564-1.574h.564c.173 0 .303-.044.347-.088.086-.043.13-.174.13-.306 0-.13-.044-.262-.13-.306a.814.814 0 00-.347-.087h-.564v.787zM184.766 17.438c0-9.65-5.583-15.484-14.068-15.484-8.528 0-14.156 5.876-14.156 15.484 0 9.522 5.628 15.484 14.112 15.484 8.485 0 14.112-5.92 14.112-15.484zm-25.894 0c0-8.493 4.528-13.597 11.782-13.597 7.21 0 11.782 5.104 11.782 13.597 0 8.535-4.572 13.597-11.782 13.597-7.166 0-11.782-5.105-11.782-13.597zM190.049 32.45c.176 0 .352-.172.352-.343l-.044-9.136v-4.804c1.494-4.032 3.78-6.52 7.165-6.52 3.429 0 5.715 2.016 5.715 7.335v3.989l-.087 9.136c0 .171.175.343.351.343h1.539c.176 0 .352-.172.352-.343l-.044-9.136v-4.204c0-6.047-2.814-8.921-7.386-8.921-3.913 0-6.418 2.573-7.693 5.061l.088-4.203c0-.172-.176-.343-.352-.343h-1.495c-.176 0-.351.171-.351.343l.087 12.052-.087 9.35c0 .172.175.344.351.344h1.539zM226.205 24.644c-.176 0-.396.128-.396.343-.747 3.903-3.077 6.262-7.165 6.262-5.364 0-8.045-3.646-8.045-9.865l17.101-.043c.176 0 .352-.172.352-.343-.132-7.034-3.737-11.11-9.716-11.11-6.111 0-9.935 4.805-9.935 11.582 0 6.777 3.517 11.452 10.199 11.452 5.407 0 8.484-3.088 9.32-7.935 0-.172-.132-.343-.308-.343h-1.407zm-.483-5.019h-15.035c.527-4.932 3.165-8.063 7.649-8.063 4.792 0 7.342 3.603 7.386 8.063z" fill="#fff"/></svg>