<svg width="108" height="16" viewBox="0 0 108 16" fill="none" xmlns="http://www.w3.org/2000/svg"><path d="M4.48 15.902c-1.83 0-3.042-.307-3.946-.696L0 12.09h.39l.39.738c.925 1.762 2.055 2.54 3.863 2.54 2.076 0 3.247-1.024 3.247-2.704 0-1.496-.863-2.254-3.329-3.115C1.767 8.587.37 7.52.37 5.124.37 2.685 2.568.944 5.3.944c1.706 0 2.692.225 3.638.614l.513 3.238h-.41l-.37-.758C7.828 2.275 6.76 1.476 5.137 1.476c-1.706 0-2.713 1.025-2.713 2.48 0 1.516.822 2.192 3.165 2.991 3.082 1.025 4.376 2.193 4.376 4.57.02 2.603-2.507 4.385-5.486 4.385zM17.382 14.632c-.863.738-1.746 1.23-2.856 1.23-1.643 0-2.506-.738-2.506-2.5V6.557H10.5v-.39l1.622-.614 1.603-3.197h.657v3.279h2.754v.922h-2.754v6.762c0 1.004.494 1.496 1.295 1.496.555 0 .924-.143 1.438-.512l.267.328zM23.156 15.943c-2.98 0-5.178-1.885-5.178-5.389 0-2.971 2.137-5.246 5.198-5.246 2.959 0 5.178 1.885 5.178 5.39-.02 2.97-2.178 5.245-5.198 5.245zm-.288-10.102c-1.459 0-2.28 1.106-2.28 4.119 0 3.299 1.068 5.45 2.835 5.45 1.48 0 2.28-1.106 2.28-4.118 0-3.3-1.047-5.451-2.835-5.451zM40.99 15.718c-.473 0-1.685-.02-2.61-.02-.904 0-2.116.02-2.63.02v-.328l.35-.062c.924-.163 1.089-.45 1.089-2.315V8.997c0-1.558-.678-2.316-1.89-2.316-.843 0-1.541.328-2.158.779v5.553c0 1.885.144 2.152 1.09 2.316l.348.061v.328c-.513 0-1.705-.02-2.63-.02-.924 0-2.136.02-2.63.02v-.328l.411-.062c.863-.122 1.028-.45 1.028-2.5V8.402c0-1.106-.185-1.414-.945-1.762l-.514-.246V6.17l3.575-.779.288.184V7.01c1.13-.963 2.178-1.598 3.513-1.598 1.91 0 2.918 1.024 2.918 3.176v4.303c0 2.09.164 2.336 1.047 2.5l.37.061-.02.267zM43.969 9.673v.143c.062 2.91 1.644 4.713 3.78 4.713 1.172 0 1.993-.43 2.856-1.29l.288.204c-1.11 1.537-2.548 2.5-4.397 2.5-2.712 0-4.746-1.844-4.746-5.02 0-3.422 2.589-5.594 5.075-5.594 2.753 0 4.089 1.536 4.15 4.364l-7.006-.02zm4.5-.574c-.062-2.152-.843-3.238-2.075-3.238-1.398 0-2.281 1.189-2.425 3.238h4.5zM65.995 15.718c-.37 0-2.22-.041-2.939-.041-.76 0-3.06.04-3.451.04v-.286l.657-.102c.637-.103.904-.267.904-.656 0-.328-.205-.738-.657-1.435l-2.301-3.504-2.302 3.156c-.534.738-.78 1.291-.78 1.7 0 .41.246.657.883.759l.678.102v.287c-.37 0-2.013-.04-2.753-.04-.74 0-1.91.04-2.301.04v-.307l.35-.061c.924-.164 1.787-.943 2.485-1.824L57.797 9.2 54.53 4.365c-.76-1.127-1.295-1.639-2.117-1.782l-.43-.082v-.287c.369 0 2.218.04 2.937.04.76 0 3.02-.04 3.41-.04V2.5l-.657.102c-.554.082-.863.267-.863.656 0 .328.206.738.658 1.434l1.972 3.033 1.932-2.705c.513-.738.78-1.29.78-1.68 0-.39-.267-.656-.883-.758l-.678-.103v-.287c.37 0 2.014.041 2.753.041.74 0 1.91-.04 2.301-.04v.286l-.349.062c-.925.164-1.767.86-2.486 1.823L59.83 8.26l3.617 5.287c.76 1.127 1.294 1.64 2.116 1.783l.432.082v.307zM67.638 4.427a.955.955 0 01-.431-.082 1.073 1.073 0 01-.35-.246.925.925 0 01-.225-.348 1.067 1.067 0 01-.083-.43c0-.165.02-.308.083-.431.061-.143.143-.246.226-.348a.793.793 0 01.349-.226c.144-.061.288-.082.431-.082.165 0 .308.02.432.082.144.062.246.144.35.226a.926.926 0 01.225.348c.062.143.082.287.082.43 0 .164-.02.308-.082.43a1.46 1.46 0 01-.226.349 1.351 1.351 0 01-.35.246 1.346 1.346 0 01-.43.082zm0-.164c.144 0 .267-.02.37-.082a.814.814 0 00.308-.205 1.15 1.15 0 00.206-.307c.04-.123.061-.246.061-.37a.99.99 0 00-.061-.368.811.811 0 00-.206-.307 1.153 1.153 0 00-.308-.205 1.203 1.203 0 00-.37-.082.705.705 0 00-.37.082.813.813 0 00-.308.205 1.15 1.15 0 00-.205.307 1.157 1.157 0 000 .738.81.81 0 00.205.307.813.813 0 00.309.205.807.807 0 00.37.082zm-.472-.287V2.665h.575c.144 0 .267.04.35.102a.372.372 0 01.123.287.372.372 0 01-.124.287c-.082.082-.185.102-.328.102l.061-.02c.062 0 .103.02.144.04.041.021.082.062.123.124l.226.39h-.308l-.226-.431c-.02-.041-.04-.062-.061-.062-.021-.02-.062-.02-.103-.02h-.144v.512h-.308zm.267-.738h.267c.082 0 .144-.02.164-.04.041-.021.062-.083.062-.144 0-.062-.02-.123-.062-.143a.388.388 0 00-.164-.041h-.267v.368zM87.496 8.685c0-4.523-2.644-7.258-6.663-7.258-4.04 0-6.706 2.755-6.706 7.258 0 4.464 2.666 7.258 6.685 7.258s6.684-2.774 6.684-7.258zm-12.265 0c0-3.98 2.145-6.373 5.58-6.373 3.416 0 5.582 2.392 5.582 6.373 0 4.001-2.166 6.374-5.581 6.374-3.394 0-5.581-2.393-5.581-6.374zM89.999 15.722c.083 0 .166-.08.166-.16l-.02-4.283V9.027c.708-1.89 1.79-3.056 3.394-3.056 1.624 0 2.707.945 2.707 3.438v1.87l-.042 4.282c0 .08.084.161.167.161h.729c.083 0 .166-.08.166-.16l-.02-4.283v-1.97c0-2.835-1.333-4.182-3.499-4.182-1.853 0-3.04 1.206-3.644 2.372l.041-1.97c0-.08-.083-.161-.166-.161h-.708c-.083 0-.167.08-.167.16l.042 5.65-.042 4.383c0 .08.084.161.167.161h.729zM107.125 12.063c-.083 0-.187.06-.187.16-.354 1.83-1.458 2.936-3.394 2.936-2.541 0-3.811-1.709-3.811-4.624l8.1-.02c.084 0 .167-.08.167-.161-.062-3.297-1.77-5.207-4.602-5.207-2.895 0-4.706 2.251-4.706 5.428s1.666 5.368 4.831 5.368c2.561 0 4.019-1.447 4.415-3.72 0-.08-.063-.16-.146-.16h-.667zm-.229-2.352h-7.121c.249-2.313 1.499-3.78 3.623-3.78 2.27 0 3.478 1.689 3.498 3.78z" fill="#fff"/></svg>