<svg width="122" height="37" viewBox="0 0 122 37" fill="none" xmlns="http://www.w3.org/2000/svg"><g filter="url(#filter0_d_5_372)"><rect x="7.052" y="6.922" width="108" height="23.016" rx="2.623" fill="url(#paint0_linear_5_372)" shape-rendering="crispEdges"/><path d="M17.059 20.93a.094.094 0 00.094-.095v-.598a.094.094 0 00-.094-.094h-3.61l-.042-2.739h3.316a.094.094 0 00.095-.094v-.598a.094.094 0 00-.095-.095h-3.316l.042-2.246h3.526a.094.094 0 00.094-.094v-.598a.094.094 0 00-.094-.095h-4.439a.094.094 0 00-.094.095l.042 3.463-.042 3.693c0 .053.042.095.094.095h4.523zm2.063 0a.094.094 0 00.094-.095l-.01-2.214v-.818c.21-1.07.776-1.637 1.49-1.637.671 0 1.144.44 1.144 1.416v1.04l-.021 2.213c0 .053.042.095.094.095h.777a.094.094 0 00.094-.095l-.02-2.214v-1.08c0-1.407-.693-2.141-1.806-2.141-.86 0-1.469.493-1.805 1.039l.032-.819a.094.094 0 00-.095-.094h-.745a.094.094 0 00-.094.094l.02 2.844-.03 2.371c0 .053.041.095.094.095h.787zm8.823-1.878a.123.123 0 00-.115.094c-.158.787-.64 1.207-1.438 1.207-1.06 0-1.595-.693-1.627-1.994h3.988a.094.094 0 00.094-.095c-.031-1.794-.955-2.864-2.518-2.864-1.564 0-2.529 1.154-2.529 2.844 0 1.647.902 2.812 2.581 2.812 1.386 0 2.204-.808 2.372-1.91 0-.053-.032-.095-.084-.095h-.724zm-.126-1.365h-3.022c.136-1.018.65-1.595 1.543-1.595.954 0 1.448.735 1.48 1.595zm2.953 3.243a.094.094 0 00.095-.095l-.011-2.833c.115-1.186.902-1.742 1.815-1.742.116 0 .22.01.305.021a.078.078 0 00.094-.073v-.588a.123.123 0 00-.094-.115 1.452 1.452 0 00-.315-.032c-.756 0-1.448.367-1.836 1.06l.041-.913a.094.094 0 00-.094-.094h-.776a.094.094 0 00-.095.094l.032 2.55-.032 2.665c0 .053.042.095.095.095h.776zm3.574-2.75c0-1.217.483-2.014 1.438-2.056h.22c.882.073 1.375.85 1.364 2.13-.01 1.333-.587 1.962-1.469 1.962-1.028.01-1.553-.734-1.553-2.035zm3.914 2.383l-.01-2.876.02-2.067a.094.094 0 00-.094-.094h-.766a.094.094 0 00-.094.094l.031.745c-.357-.598-.934-.923-1.69-.923-1.458 0-2.276 1.238-2.276 2.77 0 1.543.797 2.686 2.308 2.686.756 0 1.333-.346 1.68-.944v.598c0 1.217-.588 1.742-1.49 1.742-.756 0-1.291-.304-1.396-.976-.011-.052-.053-.094-.105-.094h-.756c-.052 0-.094.042-.084.094.095 1.165 1.08 1.69 2.32 1.669 1.542 0 2.413-.871 2.402-2.424zm2.186-5.656a.094.094 0 00.095-.095v-.86a.094.094 0 00-.095-.095h-.787a.094.094 0 00-.094.095v.86c0 .053.042.095.094.095h.787zm0 6.023a.094.094 0 00.095-.095l-.021-2.696.02-2.519a.094.094 0 00-.094-.094h-.787a.094.094 0 00-.094.094l.021 2.53-.021 2.685c0 .053.042.095.094.095h.787zm5.464-.65a.094.094 0 00-.094-.095h-3.012l2.928-3.84a.317.317 0 00.052-.169v-.556a.094.094 0 00-.094-.094h-3.715a.094.094 0 00-.095.094v.556c0 .053.042.095.095.095h2.634l-2.896 3.84a.318.318 0 00-.053.168v.556c0 .053.042.095.095.095h4.06a.094.094 0 00.095-.095v-.556zm4.731-1.229a.123.123 0 00-.115.095c-.158.787-.64 1.207-1.438 1.207-1.06 0-1.595-.693-1.626-1.994h3.987a.094.094 0 00.095-.095c-.032-1.794-.955-2.864-2.519-2.864-1.563 0-2.529 1.154-2.529 2.844 0 1.647.903 2.812 2.582 2.812 1.385 0 2.203-.808 2.371-1.91 0-.053-.031-.095-.084-.095h-.724zm-.126-1.364h-3.022c.137-1.018.65-1.595 1.543-1.595.955 0 1.448.735 1.48 1.595zm8.643-2.067c.021-.052-.01-.094-.063-.094h-.797c-.053 0-.105.042-.126.094l-1.291 4.072-1.532-4.082c-.021-.042-.074-.084-.126-.084h-.892c-.042 0-.074.042-.063.084l2.12 5.33-.577 1.68a.068.068 0 00.063.094h.724c.052 0 .105-.042.126-.095l2.434-6.999zm5.514 2.603c0-1.7-.913-2.823-2.56-2.823-1.638 0-2.561 1.133-2.561 2.844 0 1.7.923 2.812 2.56 2.812 1.648 0 2.56-1.134 2.56-2.834zm-4.145.02c0-1.353.514-2.13 1.584-2.14 1.05 0 1.574.787 1.574 2.14 0 1.354-.514 2.11-1.574 2.11s-1.584-.756-1.584-2.11zm8.795 1.763l-.02.83c0 .052.041.094.094.094h.745a.094.094 0 00.094-.095l-.02-2.843.03-2.372a.094.094 0 00-.094-.094h-.797a.094.094 0 00-.095.094l.021 2.214v.819c-.21 1.07-.787 1.637-1.49 1.637-.682 0-1.144-.441-1.144-1.417v-1.039l.022-2.214a.094.094 0 00-.095-.094h-.787a.094.094 0 00-.094.094l.02 2.214v1.07c0 1.417.704 2.152 1.816 2.152.86 0 1.47-.493 1.794-1.05zm3.031.924a.094.094 0 00.095-.095l-.011-2.833c.115-1.186.902-1.742 1.815-1.742.116 0 .22.01.305.021a.078.078 0 00.094-.073v-.588a.123.123 0 00-.094-.115 1.454 1.454 0 00-.315-.032c-.756 0-1.448.367-1.837 1.06l.043-.913a.094.094 0 00-.095-.094h-.776a.094.094 0 00-.095.094l.031 2.55-.03 2.665c0 .053.041.095.093.095h.777zm7.995-.661c0-.042-.042-.084-.095-.063a2.71 2.71 0 01-.556.063c-.462 0-.682-.2-.682-.85V16.27h1.238a.094.094 0 00.095-.095v-.556a.094.094 0 00-.095-.094h-1.238l.01-1.26a.094.094 0 00-.094-.094h-.776a.094.094 0 00-.095.095l.01 1.259h-.597a.094.094 0 00-.095.094v.556c0 .053.042.095.095.095h.598v3.169c0 1.175.66 1.584 1.448 1.584.252 0 .524-.063.734-.126.053-.02.095-.073.095-.125v-.504zm1.852.66a.094.094 0 00.094-.094l-.01-2.833c.115-1.186.902-1.742 1.815-1.742.115 0 .22.01.304.021a.078.078 0 00.095-.073v-.588a.123.123 0 00-.095-.115 1.452 1.452 0 00-.315-.032c-.755 0-1.448.367-1.836 1.06l.042-.913a.094.094 0 00-.094-.094h-.777a.094.094 0 00-.094.094l.031 2.55-.031 2.665c0 .053.042.095.094.095h.777zm3.584-2.759c0-1.175.451-2.004 1.427-2.046h.22c.882.073 1.375.85 1.365 2.151-.01 1.364-.577 2.057-1.511 2.057-1.018 0-1.5-.871-1.5-2.162zm3.83 2.76a.094.094 0 00.095-.095l-.032-2.654.032-2.56a.094.094 0 00-.095-.095h-.776a.094.094 0 00-.095.094l.021.724c-.356-.598-.933-.923-1.7-.923-1.427 0-2.256 1.259-2.256 2.823 0 1.563.777 2.79 2.235 2.79.787 0 1.365-.366 1.732-.975l-.021.776c0 .053.042.095.094.095h.766zm2.144-2.76c0-1.217.483-2.078 1.522-2.067.955.01 1.5.808 1.49 2.172-.01 1.375-.588 2.067-1.511 2.067-1.018 0-1.5-.87-1.5-2.172zm3.83 2.76a.094.094 0 00.095-.095l-.021-3.977.02-3.18a.094.094 0 00-.094-.094h-.776a.094.094 0 00-.095.095l.01 2.644c-.367-.587-.944-.902-1.689-.902-1.427 0-2.256 1.259-2.256 2.823 0 1.574.777 2.79 2.235 2.79.777 0 1.365-.356 1.721-.954l-.02.755c0 .053.041.095.094.095h.776zm2.28-6.023a.094.094 0 00.095-.095v-.86a.094.094 0 00-.094-.095h-.787a.094.094 0 00-.095.095v.86c0 .053.042.095.095.095h.787zm0 6.023a.094.094 0 00.095-.095l-.021-2.696.02-2.519a.094.094 0 00-.094-.094h-.786a.094.094 0 00-.095.094l.021 2.53-.021 2.685c0 .053.042.095.095.095h.787zm2.274 0a.094.094 0 00.094-.095l-.01-2.214v-.818c.21-1.07.776-1.637 1.49-1.637.672 0 1.144.44 1.144 1.416v1.04l-.021 2.213c0 .053.042.095.094.095h.777a.094.094 0 00.094-.095l-.021-2.214v-1.08c0-1.407-.692-2.141-1.805-2.141-.86 0-1.469.493-1.804 1.039l.031-.819a.094.094 0 00-.094-.094h-.746a.094.094 0 00-.094.094l.021 2.844-.031 2.371c0 .053.041.095.094.095h.787zm5.644-2.75c0-1.217.482-2.014 1.437-2.056h.221c.881.073 1.374.85 1.364 2.13-.011 1.333-.588 1.962-1.469 1.962-1.029.01-1.553-.734-1.553-2.035zm3.914 2.383l-.011-2.876.021-2.067a.094.094 0 00-.094-.094h-.766a.094.094 0 00-.095.094l.032.745c-.357-.598-.934-.923-1.69-.923-1.458 0-2.277 1.238-2.277 2.77 0 1.543.798 2.686 2.309 2.686.755 0 1.332-.346 1.679-.944v.598c0 1.217-.588 1.742-1.49 1.742-.756 0-1.291-.304-1.396-.976-.011-.052-.052-.094-.105-.094h-.755c-.053 0-.095.042-.084.094.094 1.165 1.08 1.69 2.319 1.669 1.542 0 2.413-.871 2.403-2.424z" fill="#fff"/></g><defs><linearGradient id="paint0_linear_5_372" x1="11.439" y1="18.43" x2="115.052" y2="18.43" gradientUnits="userSpaceOnUse"><stop stop-color="#078A04"/><stop offset="1" stop-color="#014C0C"/></linearGradient><filter id="filter0_d_5_372" x=".493" y=".363" width="121.117" height="36.133" filterUnits="userSpaceOnUse" color-interpolation-filters="sRGB"><feFlood flood-opacity="0" result="BackgroundImageFix"/><feColorMatrix in="SourceAlpha" values="0 0 0 0 0 0 0 0 0 0 0 0 0 0 0 0 0 0 127 0" result="hardAlpha"/><feOffset/><feGaussianBlur stdDeviation="3.279"/><feComposite in2="hardAlpha" operator="out"/><feColorMatrix values="0 0 0 0 0 0 0 0 0 0 0 0 0 0 0 0 0 0 0.16 0"/><feBlend in2="BackgroundImageFix" result="effect1_dropShadow_5_372"/><feBlend in="SourceGraphic" in2="effect1_dropShadow_5_372" result="shape"/></filter></defs></svg>