<svg width="334" height="18" viewBox="0 0 334 18" fill="none" xmlns="http://www.w3.org/2000/svg"><path d="M3.071 17V5.592L10.914 17h2.415V.9H10.73v11.408L2.887.9H.472V17h2.599zm18.504.138c3.588 0 6.003-2.415 6.003-6.026 0-3.588-2.415-6.026-6.003-6.026s-6.003 2.438-6.003 6.026c0 3.611 2.415 6.026 6.003 6.026zm0-2.116c-2.093 0-3.45-1.633-3.45-3.91s1.357-3.91 3.45-3.91 3.473 1.633 3.473 3.91-1.38 3.91-3.473 3.91zm19.451 2.116c3.588 0 6.003-2.415 6.003-6.026 0-3.588-2.415-6.026-6.003-6.026s-6.003 2.438-6.003 6.026c0 3.611 2.415 6.026 6.003 6.026zm0-2.116c-2.093 0-3.45-1.633-3.45-3.91s1.357-3.91 3.45-3.91 3.473 1.633 3.473 3.91-1.38 3.91-3.473 3.91zm14.21-9.936c-1.908 0-3.035.759-3.771 1.679l-.276-1.541h-2.162V17h2.484v-5.934c0-2.392 1.173-3.841 3.15-3.841 1.864 0 2.807 1.196 2.807 3.427V17h2.507v-6.555c0-3.933-2.14-5.359-4.738-5.359zm12.497 12.052c2.92 0 4.899-1.771 5.313-4.094h-2.484c-.345 1.311-1.45 2.07-2.967 2.07-1.955 0-3.22-1.311-3.29-3.312v-.161h8.879c.046-.322.069-.644.069-.943-.07-3.45-2.346-5.612-5.75-5.612-3.473 0-5.796 2.415-5.796 6.049 0 3.611 2.323 6.003 6.026 6.003zm-3.335-7.314c.184-1.679 1.54-2.737 3.128-2.737 1.725 0 2.944.989 3.15 2.737h-6.278zm22.153 7.314c3.013 0 5.014-1.679 5.474-4.347h-2.622c-.3 1.357-1.311 2.231-2.83 2.231-2 0-3.311-1.587-3.311-3.887 0-2.323 1.31-3.933 3.312-3.933 1.54 0 2.53.851 2.852 2.231h2.599c-.483-2.668-2.37-4.347-5.405-4.347-3.565 0-5.911 2.415-5.911 6.049 0 3.68 2.277 6.003 5.842 6.003zm18.139-2.3c-.506 0-.759-.161-.759-.759V9.364c0-2.783-1.794-4.278-4.922-4.278-2.967 0-4.945 1.426-5.198 3.726h2.438c.184-1.035 1.173-1.725 2.645-1.725 1.633 0 2.576.805 2.576 2.116v.713h-2.967c-3.289 0-5.037 1.357-5.037 3.772 0 2.185 1.794 3.45 4.37 3.45 1.909 0 3.105-.828 3.887-2.024 0 1.173.552 1.886 2.162 1.886h1.311v-2.162h-.506zm-3.22-2.668c-.023 1.817-1.219 3.036-3.289 3.036-1.357 0-2.185-.69-2.185-1.679 0-1.196.851-1.771 2.392-1.771h3.082v.414zm11.289-7.084c-1.909 0-3.036.759-3.772 1.679l-.276-1.541h-2.162V17h2.484v-5.934c0-2.392 1.173-3.841 3.151-3.841 1.863 0 2.806 1.196 2.806 3.427V17h2.507v-6.555c0-3.933-2.139-5.359-4.738-5.359zm11.686 2.323h2.047V17h2.507V7.409h3.151V5.224h-3.197v-.989c0-.805.345-1.15 1.15-1.15h2.047V.9h-2.369c-2.277 0-3.289 1.104-3.289 3.22v1.104h-2.047v2.185zm14.062 9.729c3.588 0 6.003-2.415 6.003-6.026 0-3.588-2.415-6.026-6.003-6.026s-6.003 2.438-6.003 6.026c0 3.611 2.415 6.026 6.003 6.026zm0-2.116c-2.093 0-3.45-1.633-3.45-3.91s1.357-3.91 3.45-3.91 3.473 1.633 3.473 3.91-1.38 3.91-3.473 3.91zm13.957-9.798c-1.932 0-2.875.782-3.473 1.771l-.276-1.771h-2.208V17h2.484v-5.911c0-1.817.713-3.542 2.921-3.542h1.104V5.224h-.552zm7.112 11.914c2.921 0 4.899-1.771 5.313-4.094h-2.484c-.345 1.311-1.449 2.07-2.967 2.07-1.955 0-3.22-1.311-3.289-3.312v-.161h8.878c.046-.322.069-.644.069-.943-.069-3.45-2.346-5.612-5.75-5.612-3.473 0-5.796 2.415-5.796 6.049 0 3.611 2.323 6.003 6.026 6.003zm-3.335-7.314c.184-1.679 1.541-2.737 3.128-2.737 1.725 0 2.944.989 3.151 2.737h-6.279zm10.289 3.289c.069 2.553 2.231 4.025 5.382 4.025 2.852 0 4.991-1.426 4.991-3.68 0-2.622-2.185-3.174-4.876-3.496-1.702-.184-2.829-.322-2.829-1.426 0-.943.966-1.541 2.438-1.541 1.472 0 2.484.759 2.622 1.84h2.438c-.161-2.415-2.208-3.749-5.106-3.749-2.829-.023-4.83 1.426-4.83 3.657 0 2.438 2.116 3.013 4.807 3.335 1.817.23 2.898.322 2.898 1.587 0 .943-1.012 1.541-2.553 1.541-1.794 0-2.852-.874-2.944-2.093h-2.438zm17.887 4.025c2.921 0 4.899-1.771 5.313-4.094h-2.484c-.345 1.311-1.449 2.07-2.967 2.07-1.955 0-3.22-1.311-3.289-3.312v-.161h8.878c.046-.322.069-.644.069-.943-.069-3.45-2.346-5.612-5.75-5.612-3.473 0-5.796 2.415-5.796 6.049 0 3.611 2.323 6.003 6.026 6.003zm-3.335-7.314c.184-1.679 1.541-2.737 3.128-2.737 1.725 0 2.944.989 3.151 2.737h-6.279zm16.453 7.314c2.921 0 4.899-1.771 5.313-4.094h-2.484c-.345 1.311-1.449 2.07-2.967 2.07-1.955 0-3.22-1.311-3.289-3.312v-.161h8.878c.046-.322.069-.644.069-.943-.069-3.45-2.346-5.612-5.75-5.612-3.473 0-5.796 2.415-5.796 6.049 0 3.611 2.323 6.003 6.026 6.003zM194.2 9.824c.184-1.679 1.541-2.737 3.128-2.737 1.725 0 2.944.989 3.151 2.737H194.2zm23.05-4.738c-1.817 0-3.036.828-3.818 1.886V.9h-2.484V17h2.162l.299-1.702c.736 1.058 2.001 1.84 3.841 1.84 3.22 0 5.566-2.415 5.566-6.026 0-3.795-2.346-6.026-5.566-6.026zm-.414 9.959c-2.07 0-3.427-1.633-3.427-3.956 0-2.277 1.357-3.887 3.427-3.887 2.07 0 3.45 1.61 3.45 3.91 0 2.323-1.38 3.933-3.45 3.933zm18.734-.207c-.506 0-.759-.161-.759-.759V9.364c0-2.783-1.794-4.278-4.922-4.278-2.967 0-4.945 1.426-5.198 3.726h2.438c.184-1.035 1.173-1.725 2.645-1.725 1.633 0 2.576.805 2.576 2.116v.713h-2.967c-3.289 0-5.037 1.357-5.037 3.772 0 2.185 1.794 3.45 4.37 3.45 1.909 0 3.105-.828 3.887-2.024 0 1.173.552 1.886 2.162 1.886h1.311v-2.162h-.506zm-3.22-2.668c-.023 1.817-1.219 3.036-3.289 3.036-1.357 0-2.185-.69-2.185-1.679 0-1.196.851-1.771 2.392-1.771h3.082v.414zm10.394 4.968c3.013 0 5.014-1.679 5.474-4.347h-2.622c-.299 1.357-1.311 2.231-2.829 2.231-2.001 0-3.312-1.587-3.312-3.887 0-2.323 1.311-3.933 3.312-3.933 1.541 0 2.53.851 2.852 2.231h2.599c-.483-2.668-2.369-4.347-5.405-4.347-3.565 0-5.911 2.415-5.911 6.049 0 3.68 2.277 6.003 5.842 6.003zm7.375-.138h2.484v-2.99l2.116-2.208L258.192 17h2.944l-4.715-7.015 4.439-4.761h-2.921l-5.336 5.704V.9h-2.484V17zm17.598-3.887c.069 2.553 2.231 4.025 5.382 4.025 2.852 0 4.991-1.426 4.991-3.68 0-2.622-2.185-3.174-4.876-3.496-1.702-.184-2.829-.322-2.829-1.426 0-.943.966-1.541 2.438-1.541 1.472 0 2.484.759 2.622 1.84h2.438c-.161-2.415-2.208-3.749-5.106-3.749-2.829-.023-4.83 1.426-4.83 3.657 0 2.438 2.116 3.013 4.807 3.335 1.817.23 2.898.322 2.898 1.587 0 .943-1.012 1.541-2.553 1.541-1.794 0-2.852-.874-2.944-2.093h-2.438zM282.414 17h2.691l2.576-8.004L290.165 17h2.668l3.91-11.776h-2.53l-2.783 9.016-2.576-9.016h-2.277l-2.691 9.016-2.691-9.016h-2.622L282.414 17zm25.907-2.162c-.506 0-.759-.161-.759-.759V9.364c0-2.783-1.794-4.278-4.922-4.278-2.967 0-4.945 1.426-5.198 3.726h2.438c.184-1.035 1.173-1.725 2.645-1.725 1.633 0 2.576.805 2.576 2.116v.713h-2.967c-3.289 0-5.037 1.357-5.037 3.772 0 2.185 1.794 3.45 4.37 3.45 1.909 0 3.105-.828 3.887-2.024 0 1.173.552 1.886 2.162 1.886h1.311v-2.162h-.506zm-3.22-2.668c-.023 1.817-1.219 3.036-3.289 3.036-1.357 0-2.185-.69-2.185-1.679 0-1.196.851-1.771 2.392-1.771h3.082v.414zm11.289-7.084c-1.909 0-3.036.759-3.772 1.679l-.276-1.541h-2.162V17h2.484v-5.934c0-2.392 1.173-3.841 3.151-3.841 1.863 0 2.806 1.196 2.806 3.427V17h2.507v-6.555c0-3.933-2.139-5.359-4.738-5.359zm6.491 8.027c.069 2.553 2.231 4.025 5.382 4.025 2.852 0 4.991-1.426 4.991-3.68 0-2.622-2.185-3.174-4.876-3.496-1.702-.184-2.829-.322-2.829-1.426 0-.943.966-1.541 2.438-1.541 1.472 0 2.484.759 2.622 1.84h2.438c-.161-2.415-2.208-3.749-5.106-3.749-2.829-.023-4.83 1.426-4.83 3.657 0 2.438 2.116 3.013 4.807 3.335 1.817.23 2.898.322 2.898 1.587 0 .943-1.012 1.541-2.553 1.541-1.794 0-2.852-.874-2.944-2.093h-2.438z" fill="#000"/></svg>