<svg width="252" height="10" viewBox="0 0 252 10" fill="none" xmlns="http://www.w3.org/2000/svg"><path d="M.2 1.5h2.4V8h.54V1.5h2.4V1H.2v.5zm7.665 1.43c-.94 0-1.34.45-1.55 1.01l-.08-1.01h-.44V8h.51V5.43c0-1.03.27-2.01 1.46-2.01h.37v-.49h-.27zm5.271 4.6c-.3 0-.45-.1-.45-.49V4.68c0-1.16-.71-1.81-1.98-1.81-1.16 0-1.93.56-2.06 1.48h.51c.13-.62.67-1.03 1.53-1.03.95 0 1.49.5 1.49 1.34v.44h-1.72c-1.3 0-2 .56-2 1.51 0 .9.71 1.45 1.79 1.45 1.03 0 1.64-.47 1.95-1.1v.18c-.02.6.23.86.83.86h.3v-.47h-.19zm-.96-1.58c0 .97-.69 1.67-1.89 1.67-.81 0-1.31-.41-1.31-1.04 0-.67.5-1.04 1.44-1.04h1.76v.41zm5.894-1.88c-.31-.72-.99-1.2-1.94-1.2-1.39 0-2.39 1.06-2.39 2.59 0 1.6 1 2.6 2.39 2.6.95 0 1.61-.51 1.93-1.22L18.14 8h.44V1h-.51v3.07zm-1.9 3.53c-1.13 0-1.91-.88-1.91-2.14 0-1.25.78-2.14 1.91-2.14s1.91.89 1.91 2.15c0 1.25-.78 2.13-1.91 2.13zm5.85.46c1.11 0 1.96-.72 2.18-1.74h-.52c-.2.79-.87 1.28-1.7 1.28-1.13 0-1.84-.86-1.86-2.04v-.09h4.14c0-.07.01-.15.01-.21-.05-1.51-.98-2.39-2.34-2.39-1.39 0-2.34 1.06-2.34 2.56 0 1.59.99 2.63 2.43 2.63zm-1.86-3.02c.08-1.03.85-1.72 1.78-1.72.99 0 1.7.61 1.78 1.72h-3.56zm7.353 1.12h3.74V8h.52V6.16h1.15v-.48h-1.15V1h-.58l-3.68 4.69v.47zm3.74-4.51v4.03h-3.15l3.15-4.03zm2.409 5.65c-.27 0-.44.17-.44.39 0 .24.16.36.35.36.1 0 .2-.04.25-.12.07.07.09.17.09.26 0 .38-.24.77-.75.79v.3c.69-.03 1.12-.49 1.12-1.15 0-.46-.26-.83-.62-.83zm3.575-3.94c-.74 0-1.4.26-1.82.85l.19-2.73h3.47V1h-3.94l-.25 3.91.5.02c.3-.82 1.14-1.1 1.78-1.1 1.12 0 1.81.79 1.81 1.87 0 1.24-.89 1.88-1.85 1.88-1.14 0-1.8-.76-1.88-1.67h-.52c.08 1.16.92 2.14 2.4 2.14 1.26 0 2.38-.82 2.38-2.36 0-1.36-.91-2.33-2.27-2.33zm3.096 1.3c0 2.05 1.01 3.4 2.53 3.4 1.5 0 2.52-1.35 2.52-3.4v-.32c0-1.99-1.02-3.4-2.52-3.4-1.52 0-2.53 1.41-2.53 3.4v.32zm4.52-.02c0 1.78-.79 2.94-1.99 2.94-1.21 0-2-1.16-2-2.94v-.28c0-1.78.79-2.94 2-2.94 1.2 0 1.99 1.16 1.99 2.94v.28zm1.486.02c0 2.05 1.01 3.4 2.53 3.4 1.5 0 2.52-1.35 2.52-3.4v-.32c0-1.99-1.02-3.4-2.52-3.4-1.52 0-2.53 1.41-2.53 3.4v.32zm4.52-.02c0 1.78-.79 2.94-1.99 2.94-1.21 0-2-1.16-2-2.94v-.28c0-1.78.79-2.94 2-2.94 1.2 0 1.99 1.16 1.99 2.94v.28zm3.406.27h-1.74v.43h1.74v1.83h.47V5.34h1.75v-.43h-1.75V3.08h-.47v1.83zm11.849-2.04c-.93 0-1.53.52-1.82 1.27-.24-.84-.87-1.27-1.67-1.27-.87 0-1.39.51-1.65 1.14l-.08-1.08h-.44V8h.51V5.42c0-1.24.6-2.08 1.57-2.08.88 0 1.43.62 1.43 1.79V8h.51V5.24c.03-1.16.63-1.9 1.58-1.9.88 0 1.41.59 1.41 1.74V8h.52V5.06c0-1.53-.81-2.19-1.87-2.19zm7.462 4.66c-.3 0-.45-.1-.45-.49V4.68c0-1.16-.71-1.81-1.98-1.81-1.16 0-1.93.56-2.06 1.48h.51c.13-.62.67-1.03 1.53-1.03.95 0 1.49.5 1.49 1.34v.44h-1.72c-1.3 0-2 .56-2 1.51 0 .9.71 1.45 1.79 1.45 1.03 0 1.64-.47 1.95-1.1v.18c-.02.6.23.86.83.86h.3v-.47h-.19zm-.96-1.58c0 .97-.69 1.67-1.89 1.67-.81 0-1.31-.41-1.31-1.04 0-.67.5-1.04 1.44-1.04h1.76v.41zm3.902-3.02c-.94 0-1.34.45-1.55 1.01l-.08-1.01h-.44V8h.51V5.43c0-1.03.27-2.01 1.46-2.01h.37v-.49h-.27zM77.543 8h.51V6.63l1.19-1.22L81.183 8h.62l-2.21-2.96 2.04-2.11h-.63l-2.95 3.04V1h-.51v7zm6.908.06c1.11 0 1.96-.72 2.18-1.74h-.52c-.2.79-.87 1.28-1.7 1.28-1.13 0-1.84-.86-1.86-2.04v-.09h4.14c0-.07.01-.15.01-.21-.05-1.51-.98-2.39-2.34-2.39-1.39 0-2.34 1.06-2.34 2.56 0 1.59.99 2.63 2.43 2.63zm-1.86-3.02c.08-1.03.85-1.72 1.78-1.72.99 0 1.7.61 1.78 1.72h-3.56zm5.42 1.78c0 .81.33 1.18 1.19 1.18h.74v-.47h-.7c-.53 0-.72-.2-.72-.72V3.4h1.37v-.47h-1.37V1.51h-.51v1.42h-.96v.47h.96v3.42zm2.476-.38c.04 1.05.89 1.62 2.16 1.62 1.09 0 1.97-.55 1.97-1.45 0-1.07-.94-1.28-2.03-1.43-.79-.11-1.49-.2-1.49-.91 0-.58.57-.96 1.43-.96.81 0 1.39.39 1.48 1.05h.52c-.09-.99-.9-1.49-2-1.49-1.13-.01-1.94.57-1.94 1.44 0 1.02.94 1.21 1.98 1.35.85.12 1.54.23 1.54.98 0 .6-.63.98-1.46.98-.97 0-1.6-.45-1.64-1.18h-.52zM99.516 8h.55l1.5-4.26 1.43 4.26h.55l1.8-5.07h-.52l-1.56 4.46-1.45-4.46h-.47l-1.53 4.46-1.48-4.46h-.54L99.516 8zm6.803-6.14c.2 0 .36-.15.36-.36s-.16-.36-.36-.36c-.2 0-.36.15-.36.36s.16.36.36.36zm-.26 6.14h.51V2.93h-.51V8zm2.089-1.18c0 .81.33 1.18 1.19 1.18h.74v-.47h-.7c-.53 0-.72-.2-.72-.72V3.4h1.37v-.47h-1.37V1.51h-.51v1.42h-.96v.47h.96v3.42zm5.046-3.95c-.95 0-1.54.53-1.83 1.26V1h-.51v7h.51V5.5c0-1.32.67-2.16 1.75-2.16.97 0 1.57.64 1.57 1.84V8h.51V5.16c0-1.6-.85-2.29-2-2.29zm5.604 3.57c.04 1.05.89 1.62 2.16 1.62 1.09 0 1.97-.55 1.97-1.45 0-1.07-.94-1.28-2.03-1.43-.79-.11-1.49-.2-1.49-.91 0-.58.57-.96 1.43-.96.81 0 1.39.39 1.48 1.05h.52c-.09-.99-.9-1.49-2-1.49-1.13-.01-1.94.57-1.94 1.44 0 1.02.94 1.21 1.98 1.35.85.12 1.54.23 1.54.98 0 .6-.63.98-1.46.98-.97 0-1.6-.45-1.64-1.18h-.52zm7.343 1.62c1.11 0 1.96-.72 2.18-1.74h-.52c-.2.79-.87 1.28-1.7 1.28-1.13 0-1.84-.86-1.86-2.04v-.09h4.14c0-.07.01-.15.01-.21-.05-1.51-.98-2.39-2.34-2.39-1.39 0-2.34 1.06-2.34 2.56 0 1.59.99 2.63 2.43 2.63zm-1.86-3.02c.08-1.03.85-1.72 1.78-1.72.99 0 1.7.61 1.78 1.72h-3.56zm7.328 3.02c1.15 0 1.96-.66 2.16-1.69h-.54c-.17.75-.78 1.23-1.62 1.23-1.11 0-1.88-.87-1.88-2.13 0-1.26.76-2.15 1.88-2.15.85 0 1.45.48 1.63 1.24h.53c-.21-1.05-1-1.69-2.15-1.69-1.43 0-2.41 1.06-2.41 2.6 0 1.56.97 2.59 2.4 2.59zm6.831-2.64c0 1.33-.66 2.17-1.71 2.17-.94 0-1.52-.64-1.52-1.85V2.93h-.51v2.84c0 1.59.83 2.29 1.95 2.29.9 0 1.49-.48 1.78-1.13L138.5 8h.45V2.93h-.51v2.49zm3.781-2.49c-.94 0-1.34.45-1.55 1.01l-.08-1.01h-.44V8h.51V5.43c0-1.03.27-2.01 1.46-2.01h.37v-.49h-.27zm2.904 5.13c1.11 0 1.96-.72 2.18-1.74h-.52c-.2.79-.87 1.28-1.7 1.28-1.13 0-1.84-.86-1.86-2.04v-.09h4.14c0-.07.01-.15.01-.21-.05-1.51-.98-2.39-2.34-2.39-1.39 0-2.34 1.06-2.34 2.56 0 1.59.99 2.63 2.43 2.63zm-1.86-3.02c.08-1.03.85-1.72 1.78-1.72.99 0 1.7.61 1.78 1.72h-3.56zm11.954-.97c-.31-.72-.99-1.2-1.94-1.2-1.39 0-2.39 1.06-2.39 2.59 0 1.6 1 2.6 2.39 2.6.95 0 1.61-.51 1.93-1.22l.08 1.16h.44V1h-.51v3.07zm-1.9 3.53c-1.13 0-1.91-.88-1.91-2.14 0-1.25.78-2.14 1.91-2.14s1.91.89 1.91 2.15c0 1.25-.78 2.13-1.91 2.13zm5.849.46c1.11 0 1.96-.72 2.18-1.74h-.52c-.2.79-.87 1.28-1.7 1.28-1.13 0-1.84-.86-1.86-2.04v-.09h4.14c0-.07.01-.15.01-.21-.05-1.51-.98-2.39-2.34-2.39-1.39 0-2.34 1.06-2.34 2.56 0 1.59.99 2.63 2.43 2.63zm-1.86-3.02c.08-1.03.85-1.72 1.78-1.72.99 0 1.7.61 1.78 1.72h-3.56zm7.568-2.17c-.95 0-1.61.51-1.93 1.22l-.08-1.16h-.44V10h.51V6.83c.29.74.98 1.23 1.94 1.23 1.39 0 2.39-1.06 2.39-2.6 0-1.59-1-2.59-2.39-2.59zm-.04 4.73c-1.13 0-1.91-.88-1.91-2.15 0-1.24.78-2.13 1.91-2.13s1.91.89 1.91 2.14c0 1.26-.78 2.14-1.91 2.14zm5.68.46c1.43 0 2.44-1.06 2.44-2.6 0-1.53-1.01-2.59-2.44-2.59s-2.43 1.06-2.43 2.59c0 1.54 1 2.6 2.43 2.6zm0-.46c-1.13 0-1.91-.88-1.91-2.14 0-1.25.78-2.14 1.91-2.14s1.91.89 1.91 2.14c0 1.26-.78 2.14-1.91 2.14zm3.213-1.16c.04 1.05.89 1.62 2.16 1.62 1.09 0 1.97-.55 1.97-1.45 0-1.07-.94-1.28-2.03-1.43-.79-.11-1.49-.2-1.49-.91 0-.58.57-.96 1.43-.96.81 0 1.39.39 1.48 1.05h.52c-.09-.99-.9-1.49-2-1.49-1.13-.01-1.94.57-1.94 1.44 0 1.02.94 1.21 1.98 1.35.85.12 1.54.23 1.54.98 0 .6-.63.98-1.46.98-.97 0-1.6-.45-1.64-1.18h-.52zm5.363-4.58c.2 0 .36-.15.36-.36s-.16-.36-.36-.36c-.2 0-.36.15-.36.36s.16.36.36.36zm-.26 6.14h.51V2.93h-.51V8zm2.089-1.18c0 .81.33 1.18 1.19 1.18h.74v-.47h-.7c-.53 0-.72-.2-.72-.72V3.4h1.37v-.47h-1.37V1.51h-.51v1.42h-.96v.47h.96v3.42zm2.476-.38c.04 1.05.89 1.62 2.16 1.62 1.09 0 1.97-.55 1.97-1.45 0-1.07-.94-1.28-2.03-1.43-.79-.11-1.49-.2-1.49-.91 0-.58.57-.96 1.43-.96.81 0 1.39.39 1.48 1.05h.52c-.09-.99-.9-1.49-2-1.49-1.13-.01-1.94.57-1.94 1.44 0 1.02.94 1.21 1.98 1.35.85.12 1.54.23 1.54.98 0 .6-.63.98-1.46.98-.97 0-1.6-.45-1.64-1.18h-.52zm13.269 1.1c-.28 0-.48-.06-.69-.32l-.5-.58 1.59-2.42h-.54l-1.36 2.05-1.56-1.83-.06-.07c1.34-.56 1.82-1.2 1.82-1.98 0-.83-.65-1.45-1.53-1.45-1.04 0-1.81.69-1.81 1.61 0 .64.22 1.04.76 1.7-1.22.52-1.71 1.24-1.71 2.03 0 1.15.91 1.78 2.05 1.78.78 0 1.46-.35 2.03-1.02l.49.58c.24.29.57.38.95.38h.7v-.46h-.63zm-2.87-6.16c.62 0 1.05.43 1.05 1.02 0 .68-.47 1.17-1.57 1.65-.51-.61-.72-.96-.72-1.51 0-.67.51-1.16 1.24-1.16zm-.66 6.22c-.88 0-1.54-.5-1.54-1.36 0-.73.41-1.18 1.45-1.68l.15.17 1.66 1.96c-.47.59-1.06.91-1.72.91zm9.114.4h.55l1.5-4.26L205.73 8h.55l1.8-5.07h-.52L206 7.39l-1.45-4.46h-.47l-1.53 4.46-1.48-4.46h-.54L202.25 8zm6.803-6.14c.2 0 .36-.15.36-.36s-.16-.36-.36-.36c-.2 0-.36.15-.36.36s.16.36.36.36zm-.26 6.14h.51V2.93h-.51V8zm2.089-1.18c0 .81.33 1.18 1.19 1.18h.74v-.47h-.7c-.53 0-.72-.2-.72-.72V3.4h1.37v-.47h-1.37V1.51h-.51v1.42h-.96v.47h.96v3.42zm5.046-3.95c-.95 0-1.54.53-1.83 1.26V1h-.51v7h.51V5.5c0-1.32.67-2.16 1.75-2.16.97 0 1.57.64 1.57 1.84V8h.51V5.16c0-1.6-.85-2.29-2-2.29zm7.201 1.2c-.31-.72-.99-1.2-1.94-1.2-1.39 0-2.39 1.06-2.39 2.59 0 1.6 1 2.6 2.39 2.6.95 0 1.61-.51 1.93-1.22l.08 1.16h.44V1h-.51v3.07zm-1.9 3.53c-1.13 0-1.91-.88-1.91-2.14 0-1.25.78-2.14 1.91-2.14s1.91.89 1.91 2.15c0 1.25-.78 2.13-1.91 2.13zm5.679-4.67c-.94 0-1.34.45-1.55 1.01l-.08-1.01h-.44V8h.51V5.43c0-1.03.27-2.01 1.46-2.01h.37v-.49h-.27zm5.271 4.6c-.3 0-.45-.1-.45-.49V4.68c0-1.16-.71-1.81-1.98-1.81-1.16 0-1.93.56-2.06 1.48h.51c.13-.62.67-1.03 1.53-1.03.95 0 1.49.5 1.49 1.34v.44h-1.72c-1.3 0-2 .56-2 1.51 0 .9.71 1.45 1.79 1.45 1.03 0 1.64-.47 1.95-1.1v.18c-.02.6.23.86.83.86h.3v-.47h-.19zm-.96-1.58c0 .97-.69 1.67-1.89 1.67-.81 0-1.31-.41-1.31-1.04 0-.67.5-1.04 1.44-1.04h1.76v.41zM234.164 8h.55l1.5-4.26 1.43 4.26h.55l1.8-5.07h-.52l-1.56 4.46-1.45-4.46h-.47l-1.53 4.46-1.48-4.46h-.54l1.72 5.07zm10.837-.47c-.3 0-.45-.1-.45-.49V4.68c0-1.16-.71-1.81-1.98-1.81-1.16 0-1.93.56-2.06 1.48h.51c.13-.62.67-1.03 1.53-1.03.95 0 1.49.5 1.49 1.34v.44h-1.72c-1.3 0-2 .56-2 1.51 0 .9.71 1.45 1.79 1.45 1.03 0 1.64-.47 1.95-1.1v.18c-.02.6.23.86.83.86h.3v-.47h-.19zm-.96-1.58c0 .97-.69 1.67-1.89 1.67-.81 0-1.31-.41-1.31-1.04 0-.67.5-1.04 1.44-1.04h1.76v.41zM245.873 8h.51V1h-.51v7zm1.479-1.56c.04 1.05.89 1.62 2.16 1.62 1.09 0 1.97-.55 1.97-1.45 0-1.07-.94-1.28-2.03-1.43-.79-.11-1.49-.2-1.49-.91 0-.58.57-.96 1.43-.96.81 0 1.39.39 1.48 1.05h.52c-.09-.99-.9-1.49-2-1.49-1.13-.01-1.94.57-1.94 1.44 0 1.02.94 1.21 1.98 1.35.85.12 1.54.23 1.54.98 0 .6-.63.98-1.46.98-.97 0-1.6-.45-1.64-1.18h-.52z" fill="#000"/></svg>