<svg width="114" height="23" viewBox="0 0 114 23" fill="none" xmlns="http://www.w3.org/2000/svg"><rect y=".5" width="114" height="22" rx="11" fill="#000"/><path d="M18.68 15.5h.87v-3.06h2.88v-.8h-2.88V9.3h3.48v-.8h-4.35v7zm8.47-2.55c0 1.15-.56 1.86-1.49 1.86-.85 0-1.33-.56-1.33-1.62V10.4h-.82v2.84c0 1.69.89 2.32 2.01 2.32.84 0 1.33-.36 1.63-.74l.11.68h.71v-5.1h-.82v2.55zm4.437-2.61c-.86 0-1.38.36-1.68.75l-.11-.69h-.71v5.1h.82v-2.55c0-1.15.58-1.86 1.54-1.86.89 0 1.38.56 1.38 1.62v2.79h.82v-2.84c0-1.69-.91-2.32-2.06-2.32zm7.067.84c-.31-.49-.89-.84-1.75-.84-1.41 0-2.45 1.05-2.45 2.61 0 1.66 1.04 2.61 2.45 2.61.86 0 1.41-.41 1.75-.88l.11.82h.71v-7h-.82v2.68zm-1.67 3.65c-1.01 0-1.69-.77-1.69-1.88 0-1.11.68-1.88 1.69-1.88 1 0 1.68.78 1.68 1.9 0 1.09-.68 1.86-1.68 1.86zm11.914-4.49c-.91 0-1.46.42-1.77.97-.29-.65-.9-.97-1.61-.97-.79 0-1.22.39-1.49.76l-.11-.7h-.71v5.1h.82v-2.69c0-1.02.51-1.72 1.35-1.72.78 0 1.23.52 1.23 1.52v2.89h.82v-2.73c0-1.04.52-1.68 1.37-1.68.77 0 1.21.52 1.21 1.52v2.89h.82v-2.94c0-1.61-.87-2.22-1.93-2.22zm4.277 5.19l-.25.62c-.19.48-.27.6-.74.6h-.73v.75h.98c.72 0 .91-.32 1.23-1.14l2.35-5.96h-.87l-1.52 4.07-1.57-4.07h-.87l1.99 5.13zm10.579-.78c-.23 0-.33-.07-.33-.34v-2.23c0-1.19-.75-1.84-2.05-1.84-1.23 0-2.04.59-2.16 1.59h.82c.1-.52.58-.86 1.3-.86.8 0 1.27.4 1.27 1.06v.35h-1.5c-1.34 0-2.05.57-2.05 1.59 0 .93.76 1.49 1.88 1.49.88 0 1.39-.39 1.71-.85.01.5.24.79.92.79h.45v-.75h-.26zm-1.15-1.33c0 .85-.59 1.44-1.61 1.44-.68 0-1.11-.34-1.11-.84 0-.58.41-.85 1.14-.85h1.58v.25zm4.271 2.14c1.24 0 2.07-.7 2.27-1.8h-.87c-.16.65-.66 1.07-1.39 1.07-.98 0-1.64-.76-1.64-1.87s.66-1.89 1.64-1.89c.75 0 1.25.41 1.4 1.09h.86c-.21-1.12-1-1.82-2.25-1.82-1.48 0-2.49 1.06-2.49 2.62 0 1.59.98 2.6 2.47 2.6zm5.46 0c1.24 0 2.07-.7 2.27-1.8h-.87c-.16.65-.66 1.07-1.39 1.07-.98 0-1.64-.76-1.64-1.87s.66-1.89 1.64-1.89c.75 0 1.25.41 1.4 1.09h.86c-.21-1.12-1-1.82-2.25-1.82-1.48 0-2.49 1.06-2.49 2.62 0 1.59.98 2.6 2.47 2.6zm5.518 0c1.49 0 2.53-1.06 2.53-2.61 0-1.55-1.04-2.61-2.53-2.61-1.49 0-2.53 1.06-2.53 2.61 0 1.55 1.04 2.61 2.53 2.61zm0-.73c-1.01 0-1.69-.79-1.69-1.88 0-1.09.68-1.88 1.69-1.88 1.01 0 1.69.79 1.69 1.88 0 1.09-.68 1.88-1.69 1.88zm7.04-1.88c0 1.15-.56 1.86-1.49 1.86-.85 0-1.33-.56-1.33-1.62V10.4h-.82v2.84c0 1.69.89 2.32 2.01 2.32.84 0 1.33-.36 1.63-.74l.11.68h.71v-5.1h-.82v2.55zm4.439-2.61c-.86 0-1.38.36-1.68.75l-.11-.69h-.71v5.1h.82v-2.55c0-1.15.58-1.86 1.54-1.86.89 0 1.38.56 1.38 1.62v2.79h.82v-2.84c0-1.69-.91-2.32-2.06-2.32zm3.485 3.83c0 .9.35 1.33 1.33 1.33h.89v-.75h-.81c-.44 0-.59-.16-.59-.59v-3.01h1.32v-.75h-1.32V8.97h-.82v1.43h-.92v.75h.92v3.02z" fill="#fff"/></svg>