<svg width="106" height="27" viewBox="0 0 106 27" fill="none" xmlns="http://www.w3.org/2000/svg"><path d="M4.2 5.164c-1.32-.228-2.184-.408-2.184-1.272 0-.792.66-1.2 1.608-1.2 1.02 0 1.692.576 1.8 1.428h1.38c-.048-1.356-.972-2.316-2.484-2.544V.304H3.156v1.248C1.632 1.708.636 2.656.636 3.988c0 1.668 1.32 2.112 2.712 2.352 1.332.24 2.208.432 2.208 1.32 0 .804-.72 1.248-1.716 1.248-1.176 0-1.944-.66-2.016-1.644L.432 7.24c.048 1.488 1.044 2.568 2.724 2.784v1.26H4.32v-1.236c1.572-.168 2.616-1.164 2.616-2.532.012-1.656-1.344-2.1-2.736-2.352zm3.65.828c0 2.532 1.357 4.08 3.313 4.08 1.956 0 3.312-1.548 3.312-4.08v-.384c0-2.436-1.356-4.08-3.312-4.08-1.956 0-3.312 1.644-3.312 4.08v.384zm5.28-.048c0 1.884-.791 2.964-1.967 2.964-1.176 0-1.968-1.08-1.968-2.964v-.288c0-1.872.792-2.964 1.968-2.964s1.968 1.092 1.968 2.964v.288zm8.338 4.128c1.572 0 2.616-.876 2.856-2.268h-1.368c-.156.708-.684 1.164-1.476 1.164-1.044 0-1.728-.828-1.728-2.028 0-1.212.684-2.052 1.728-2.052.804 0 1.32.444 1.488 1.164h1.356c-.252-1.392-1.236-2.268-2.82-2.268-1.86 0-3.084 1.26-3.084 3.156 0 1.92 1.188 3.132 3.048 3.132zm6.752 0c1.872 0 3.132-1.26 3.132-3.144 0-1.872-1.26-3.144-3.132-3.144s-3.132 1.272-3.132 3.144c0 1.884 1.26 3.144 3.132 3.144zm0-1.104c-1.092 0-1.8-.852-1.8-2.04 0-1.188.708-2.04 1.8-2.04s1.812.852 1.812 2.04c0 1.188-.72 2.04-1.812 2.04zm11.242-5.184c-1.008 0-1.704.444-2.1 1.116-.372-.792-1.092-1.116-1.896-1.116-.924.012-1.452.42-1.8.876l-.144-.804h-1.128V10h1.296V6.712c0-1.092.552-1.812 1.44-1.812.852 0 1.296.564 1.296 1.644V10h1.308V6.676c0-1.104.564-1.776 1.452-1.776.84 0 1.284.564 1.284 1.644V10h1.296V6.46c0-1.944-1.032-2.676-2.304-2.676zm10.547 0c-1.008 0-1.704.444-2.1 1.116-.372-.792-1.092-1.116-1.896-1.116-.924.012-1.452.42-1.8.876l-.144-.804H42.94V10h1.296V6.712c0-1.092.552-1.812 1.44-1.812.852 0 1.296.564 1.296 1.644V10h1.308V6.676c0-1.104.564-1.776 1.452-1.776.84 0 1.284.564 1.284 1.644V10h1.296V6.46c0-1.944-1.032-2.676-2.304-2.676zm4.139-.792c.444 0 .792-.324.792-.78s-.348-.78-.792-.78c-.444 0-.792.324-.792.78s.348.78.792.78zM53.488 10h1.296V3.856h-1.296V10zm2.302-2.028c.036 1.332 1.164 2.1 2.808 2.1 1.488 0 2.604-.744 2.604-1.92 0-1.368-1.14-1.656-2.544-1.824-.888-.096-1.476-.168-1.476-.744 0-.492.504-.804 1.272-.804s1.296.396 1.368.96h1.272c-.084-1.26-1.152-1.956-2.664-1.956-1.476-.012-2.52.744-2.52 1.908 0 1.272 1.104 1.572 2.508 1.74.948.12 1.512.168 1.512.828 0 .492-.528.804-1.332.804-.936 0-1.488-.456-1.536-1.092H55.79zm6.035 0c.036 1.332 1.164 2.1 2.808 2.1 1.488 0 2.604-.744 2.604-1.92 0-1.368-1.14-1.656-2.544-1.824-.888-.096-1.476-.168-1.476-.744 0-.492.504-.804 1.272-.804s1.296.396 1.368.96h1.272c-.084-1.26-1.152-1.956-2.664-1.956-1.476-.012-2.52.744-2.52 1.908 0 1.272 1.104 1.572 2.508 1.74.948.12 1.512.168 1.512.828 0 .492-.528.804-1.332.804-.936 0-1.488-.456-1.536-1.092h-1.272zm7.076-4.98c.445 0 .793-.324.793-.78s-.349-.78-.793-.78c-.444 0-.791.324-.791.78s.347.78.791.78zM68.242 10h1.296V3.856h-1.296V10zm5.47.072c1.873 0 3.133-1.26 3.133-3.144 0-1.872-1.26-3.144-3.132-3.144S70.58 5.056 70.58 6.928c0 1.884 1.26 3.144 3.132 3.144zm0-1.104c-1.091 0-1.8-.852-1.8-2.04 0-1.188.709-2.04 1.8-2.04 1.093 0 1.813.852 1.813 2.04 0 1.188-.72 2.04-1.812 2.04zm7.415-5.184c-.996 0-1.584.396-1.968.876l-.144-.804h-1.128V10h1.296V6.904c0-1.248.612-2.004 1.644-2.004.972 0 1.464.624 1.464 1.788V10h1.308V6.58c0-2.052-1.116-2.796-2.472-2.796zM3.54 24.072c1.872 0 3.132-1.26 3.132-3.144 0-1.872-1.26-3.144-3.132-3.144S.408 19.056.408 20.928c0 1.884 1.26 3.144 3.132 3.144zm0-1.104c-1.092 0-1.8-.852-1.8-2.04 0-1.188.708-2.04 1.8-2.04s1.812.852 1.812 2.04c0 1.188-.72 2.04-1.812 2.04zm7.414-5.184c-.996 0-1.584.396-1.968.876l-.144-.804H7.714V24H9.01v-3.096c0-1.248.612-2.004 1.644-2.004.972 0 1.464.624 1.464 1.788V24h1.308v-3.42c0-2.052-1.116-2.796-2.472-2.796zm13.79 0c-1.009 0-1.705.444-2.1 1.116-.373-.792-1.093-1.116-1.897-1.116-.924.012-1.452.42-1.8.876l-.144-.804h-1.128V24h1.296v-3.288c0-1.092.552-1.812 1.44-1.812.852 0 1.296.564 1.296 1.644V24h1.308v-3.324c0-1.104.564-1.776 1.452-1.776.84 0 1.284.564 1.284 1.644V24h1.296v-3.54c0-1.944-1.032-2.676-2.304-2.676zm9.094 5.088c-.264 0-.396-.084-.396-.396v-2.46c0-1.452-.936-2.232-2.568-2.232-1.548 0-2.58.744-2.712 1.944h1.272c.096-.54.612-.9 1.38-.9.852 0 1.344.42 1.344 1.104v.372H30.61c-1.716 0-2.628.708-2.628 1.968 0 1.14.936 1.8 2.28 1.8.996 0 1.62-.432 2.028-1.056 0 .612.288.984 1.128.984h.684v-1.128h-.264zm-1.68-1.392c-.012.948-.636 1.584-1.716 1.584-.708 0-1.14-.36-1.14-.876 0-.624.444-.924 1.248-.924h1.608v.216zm3.37-4.488c.444 0 .792-.324.792-.78s-.348-.78-.792-.78c-.444 0-.792.324-.792.78s.348.78.792.78zM33.536 26.4h.96c1.152 0 1.68-.612 1.68-1.716v-6.828H34.88v6.732c0 .468-.192.672-.648.672h-.696v1.14zm6.813-2.328c1.872 0 3.132-1.26 3.132-3.144 0-1.872-1.26-3.144-3.132-3.144s-3.132 1.272-3.132 3.144c0 1.884 1.26 3.144 3.132 3.144zm0-1.104c-1.092 0-1.8-.852-1.8-2.04 0-1.188.708-2.04 1.8-2.04s1.812.852 1.812 2.04c0 1.188-.72 2.04-1.812 2.04zm7.282-5.112c-1.008 0-1.5.408-1.812.924l-.144-.924h-1.152V24h1.296v-3.084c0-.948.372-1.848 1.524-1.848h.576v-1.212h-.288zm4.241 2.544c0 2.388 1.128 3.672 3.3 3.672 2.184 0 3.324-1.284 3.324-3.672v-4.8h-1.38v4.872c0 1.56-.6 2.376-1.944 2.376-1.32 0-1.92-.816-1.92-2.376V15.6h-1.38v4.8zm7.775.84c.048 1.68 1.308 2.832 3.396 2.832 1.848 0 3.108-1.044 3.108-2.556.012-1.656-1.344-2.1-2.736-2.352-1.32-.228-2.184-.408-2.184-1.272 0-.792.66-1.2 1.608-1.2 1.02 0 1.692.576 1.8 1.428h1.38c-.06-1.548-1.26-2.592-3.18-2.592-1.788 0-2.988.996-2.988 2.46 0 1.668 1.32 2.112 2.712 2.352 1.332.24 2.208.432 2.208 1.32 0 .804-.72 1.248-1.716 1.248-1.176 0-1.944-.66-2.016-1.644l-1.392-.024zm10.393.732c.036 1.332 1.164 2.1 2.808 2.1 1.488 0 2.604-.744 2.604-1.92 0-1.368-1.14-1.656-2.544-1.824-.888-.096-1.476-.168-1.476-.744 0-.492.504-.804 1.272-.804s1.296.396 1.368.96h1.272c-.084-1.26-1.152-1.956-2.664-1.956-1.476-.012-2.52.744-2.52 1.908 0 1.272 1.104 1.572 2.508 1.74.948.12 1.512.168 1.512.828 0 .492-.528.804-1.332.804-.936 0-1.488-.456-1.536-1.092H70.04zm9.644-4.188c-.96 0-1.548.432-1.932.96V15.6h-1.296V24h1.296v-3.108c0-1.236.624-1.992 1.644-1.992.96 0 1.476.624 1.476 1.788V24h1.296v-3.42c0-2.052-1.116-2.796-2.484-2.796zm9.279 5.088c-.264 0-.396-.084-.396-.396v-2.46c0-1.452-.936-2.232-2.568-2.232-1.548 0-2.58.744-2.712 1.944h1.272c.096-.54.612-.9 1.38-.9.852 0 1.344.42 1.344 1.104v.372h-1.548c-1.716 0-2.628.708-2.628 1.968 0 1.14.936 1.8 2.28 1.8.996 0 1.62-.432 2.028-1.056 0 .612.288.984 1.128.984h.684v-1.128h-.264zm-1.68-1.392c-.012.948-.636 1.584-1.716 1.584-.708 0-1.14-.36-1.14-.876 0-.624.444-.924 1.248-.924h1.608v.216zm5.758-3.624c-1.008 0-1.5.408-1.812.924l-.144-.924h-1.152V24h1.296v-3.084c0-.948.372-1.848 1.524-1.848h.576v-1.212h-.288zm3.71 6.216c1.524 0 2.556-.924 2.772-2.136h-1.296c-.18.684-.756 1.08-1.548 1.08-1.02 0-1.68-.684-1.716-1.728v-.084h4.632a3.52 3.52 0 00.036-.492c-.036-1.8-1.224-2.928-3-2.928-1.812 0-3.024 1.26-3.024 3.156 0 1.884 1.212 3.132 3.144 3.132zm-1.74-3.816c.096-.876.804-1.428 1.632-1.428.9 0 1.536.516 1.644 1.428h-3.276zm5.369 1.716c.036 1.332 1.164 2.1 2.808 2.1 1.488 0 2.604-.744 2.604-1.92 0-1.368-1.14-1.656-2.544-1.824-.888-.096-1.476-.168-1.476-.744 0-.492.504-.804 1.272-.804s1.296.396 1.368.96h1.272c-.084-1.26-1.152-1.956-2.664-1.956-1.476-.012-2.52.744-2.52 1.908 0 1.272 1.104 1.572 2.508 1.74.948.12 1.512.168 1.512.828 0 .492-.528.804-1.332.804-.936 0-1.488-.456-1.536-1.092h-1.272z" fill="#000"/></svg>