<svg width="120" height="46" viewBox="0 0 120 46" fill="none" xmlns="http://www.w3.org/2000/svg"><path d="M.237 1.31h2.84V9h.638V1.31h2.84V.717H.237v.591zM9.307 3c-1.113 0-1.586.533-1.835 1.195l-.094-1.195h-.521V9h.603V5.96c0-1.22.32-2.379 1.728-2.379h.438v-.58h-.32zm6.236 5.443c-.355 0-.533-.118-.533-.58V5.072c0-1.373-.84-2.142-2.342-2.142-1.373 0-2.284.663-2.438 1.751h.604c.153-.733.792-1.218 1.81-1.218 1.124 0 1.763.591 1.763 1.585v.52h-2.035c-1.538 0-2.367.663-2.367 1.787 0 1.065.84 1.716 2.118 1.716 1.219 0 1.94-.556 2.307-1.302v.213c-.023.71.273 1.018.982 1.018h.355v-.556h-.224zm-1.136-1.87c0 1.148-.817 1.976-2.236 1.976-.959 0-1.55-.485-1.55-1.23 0-.793.591-1.23 1.703-1.23h2.083v.484zM21.38 4.35c-.366-.852-1.171-1.42-2.295-1.42-1.645 0-2.828 1.254-2.828 3.065 0 1.893 1.183 3.076 2.828 3.076 1.124 0 1.905-.603 2.284-1.443L21.463 9h.52V.718h-.603V4.35zm-2.248 4.177c-1.337 0-2.26-1.041-2.26-2.532 0-1.48.923-2.532 2.26-2.532 1.337 0 2.26 1.053 2.26 2.544 0 1.479-.923 2.52-2.26 2.52zm6.921.544c1.314 0 2.32-.852 2.58-2.059h-.615c-.237.935-1.03 1.515-2.012 1.515-1.337 0-2.177-1.018-2.2-2.414v-.106h4.898c0-.083.012-.178.012-.249-.06-1.787-1.16-2.828-2.769-2.828-1.645 0-2.769 1.254-2.769 3.03 0 1.88 1.172 3.111 2.875 3.111zm-2.2-3.573c.095-1.219 1.005-2.035 2.106-2.035 1.171 0 2.011.721 2.106 2.035h-4.212zm8.771-4.189h2.84V9h.639V1.31h2.84V.717h-6.319v.591zm8.855 7.762c1.313 0 2.319-.852 2.58-2.059h-.616c-.237.935-1.03 1.515-2.011 1.515-1.337 0-2.177-1.018-2.201-2.414v-.106h4.898c0-.083.012-.178.012-.249-.059-1.787-1.16-2.828-2.768-2.828-1.645 0-2.77 1.254-2.77 3.03 0 1.88 1.172 3.111 2.876 3.111zm-2.2-3.573c.094-1.219 1.005-2.035 2.105-2.035 1.172 0 2.012.721 2.106 2.035h-4.212zm5.771 1.656c.047 1.243 1.053 1.917 2.556 1.917 1.29 0 2.33-.65 2.33-1.716 0-1.266-1.111-1.514-2.401-1.692-.935-.13-1.763-.236-1.763-1.076 0-.687.674-1.136 1.692-1.136.958 0 1.645.461 1.751 1.242h.615c-.106-1.171-1.065-1.763-2.366-1.763-1.337-.012-2.295.675-2.295 1.704 0 1.207 1.112 1.432 2.342 1.597 1.006.142 1.822.272 1.822 1.16 0 .71-.745 1.16-1.727 1.16-1.148 0-1.893-.533-1.94-1.397h-.616zM51.088 9h.603V.718h-.603V9zm7.3-.556c-.356 0-.533-.118-.533-.58V5.072c0-1.373-.84-2.142-2.343-2.142-1.373 0-2.284.663-2.437 1.751h.603c.154-.733.793-1.218 1.81-1.218 1.124 0 1.763.591 1.763 1.585v.52h-2.035c-1.538 0-2.366.663-2.366 1.787 0 1.065.84 1.716 2.118 1.716 1.218 0 1.94-.556 2.307-1.302v.213c-.024.71.272 1.018.982 1.018h.355v-.556h-.225zm-1.137-1.87c0 1.148-.816 1.976-2.236 1.976-.958 0-1.55-.485-1.55-1.23 0-.793.592-1.23 1.704-1.23h2.082v.484zm5.085.58c.047 1.243 1.053 1.917 2.556 1.917 1.29 0 2.33-.65 2.33-1.716 0-1.266-1.112-1.514-2.401-1.692-.935-.13-1.763-.236-1.763-1.076 0-.687.674-1.136 1.692-1.136.958 0 1.644.461 1.75 1.242h.616C67.01 3.522 66.051 2.93 64.75 2.93c-1.337-.012-2.296.675-2.296 1.704 0 1.207 1.112 1.432 2.343 1.597 1.006.142 1.822.272 1.822 1.16 0 .71-.745 1.16-1.727 1.16-1.148 0-1.893-.533-1.94-1.397h-.616zm8.806-4.224c-1.124 0-1.822.627-2.165 1.491V.718h-.603V9h.603V6.042c0-1.562.793-2.556 2.07-2.556 1.148 0 1.858.758 1.858 2.177V9h.604V5.64c0-1.893-1.006-2.71-2.367-2.71zm8.991 5.514c-.355 0-.532-.118-.532-.58V5.072c0-1.373-.84-2.142-2.343-2.142-1.373 0-2.284.663-2.438 1.751h.604c.154-.733.793-1.218 1.81-1.218 1.124 0 1.763.591 1.763 1.585v.52h-2.035c-1.538 0-2.366.663-2.366 1.787 0 1.065.84 1.716 2.117 1.716 1.22 0 1.941-.556 2.308-1.302v.213c-.024.71.272 1.018.982 1.018h.355v-.556h-.225zm-1.136-1.87c0 1.148-.816 1.976-2.236 1.976-.959 0-1.55-.485-1.55-1.23 0-.793.591-1.23 1.704-1.23h2.082v.484zm4.617-3.573c-1.112 0-1.586.533-1.834 1.195l-.095-1.195h-.52V9h.603V5.96c0-1.22.32-2.379 1.728-2.379h.437v-.58h-.319zm3.436 6.07c1.314 0 2.32-.852 2.58-2.059h-.615c-.237.935-1.03 1.515-2.012 1.515-1.337 0-2.177-1.018-2.2-2.414v-.106H89.7c0-.083.012-.178.012-.249-.06-1.787-1.16-2.828-2.77-2.828-1.644 0-2.768 1.254-2.768 3.03 0 1.88 1.172 3.111 2.875 3.111zm-2.2-3.573c.094-1.219 1.005-2.035 2.106-2.035 1.171 0 2.011.721 2.106 2.035H84.85zm5.772 1.656c.047 1.243 1.053 1.917 2.555 1.917 1.29 0 2.331-.65 2.331-1.716 0-1.266-1.112-1.514-2.402-1.692-.934-.13-1.763-.236-1.763-1.076 0-.687.675-1.136 1.692-1.136.959 0 1.645.461 1.751 1.242h.616c-.107-1.171-1.065-1.763-2.367-1.763-1.337-.012-2.295.675-2.295 1.704 0 1.207 1.112 1.432 2.343 1.597 1.005.142 1.822.272 1.822 1.16 0 .71-.746 1.16-1.728 1.16-1.147 0-1.893-.533-1.94-1.397h-.615zM101.304 9h.651l1.774-5.04L105.421 9h.651l2.13-5.999h-.615l-1.846 5.277-1.716-5.277h-.556l-1.81 5.277-1.751-5.277h-.64L101.305 9zm8.05-7.265a.417.417 0 00.426-.426.417.417 0 00-.426-.426.417.417 0 00-.426.426c0 .249.189.426.426.426zM109.046 9h.603V3.001h-.603V9zm2.472-1.396c0 .958.39 1.396 1.408 1.396h.875v-.556h-.828c-.627 0-.852-.237-.852-.852V3.557h1.621v-.556h-1.621v-1.68h-.603v1.68h-1.136v.556h1.136v4.047zm5.97-4.674c-1.124 0-1.822.627-2.165 1.491V.718h-.604V9h.604V6.042c0-1.562.793-2.556 2.07-2.556 1.148 0 1.858.758 1.858 2.177V9h.603V5.64c0-1.893-1.005-2.71-2.366-2.71zM5.064 22.947c0 1.574-.78 2.568-2.023 2.568-1.112 0-1.799-.757-1.799-2.189v-3.325H.64v3.36c0 1.882.982 2.71 2.307 2.71 1.065 0 1.763-.568 2.106-1.337L5.135 26h.533v-5.999h-.604v2.946zM7.088 26h.603v-8.282h-.603V26zm2.472-1.396c0 .958.39 1.396 1.408 1.396h.875v-.556h-.828c-.627 0-.852-.237-.852-.852v-4.035h1.621v-.556h-1.62v-1.68H9.56v1.68H8.424v.556H9.56v4.047zM15.21 20c-1.112 0-1.585.533-1.833 1.195l-.095-1.195h-.52V26h.603v-3.04c0-1.22.32-2.379 1.727-2.379h.438v-.58h-.32zm6.237 5.443c-.355 0-.532-.118-.532-.58v-2.792c0-1.373-.84-2.142-2.343-2.142-1.373 0-2.284.663-2.438 1.751h.604c.154-.733.793-1.218 1.81-1.218 1.124 0 1.763.591 1.763 1.585v.52h-2.035c-1.538 0-2.366.663-2.366 1.787 0 1.065.84 1.716 2.118 1.716 1.218 0 1.94-.556 2.307-1.302v.214c-.024.71.272 1.017.982 1.017h.355v-.556h-.225zm-1.136-1.87c0 1.148-.816 1.976-2.236 1.976-.958 0-1.55-.485-1.55-1.23 0-.793.592-1.23 1.704-1.23h2.082v.485zm5.978-.686v-.509h-3.822v.51h3.822zM27.7 26h.604v-8.282H27.7V26zm4.673.071c1.692 0 2.887-1.254 2.887-3.076 0-1.81-1.195-3.065-2.887-3.065s-2.875 1.254-2.875 3.065c0 1.822 1.183 3.076 2.875 3.076zm0-.544c-1.337 0-2.26-1.042-2.26-2.532 0-1.48.923-2.532 2.26-2.532 1.337 0 2.26 1.053 2.26 2.532 0 1.49-.923 2.532-2.26 2.532zM37.73 26h.651l1.775-5.04L41.848 26h.65l2.13-5.999h-.615l-1.846 5.277-1.715-5.277h-.556l-1.81 5.277-1.752-5.277h-.639L37.73 26zm13.547.071c1.36 0 2.319-.78 2.555-2h-.639c-.2.888-.923 1.456-1.916 1.456-1.314 0-2.225-1.03-2.225-2.52 0-1.491.9-2.544 2.224-2.544 1.006 0 1.716.568 1.93 1.467h.626c-.248-1.242-1.183-2-2.544-2-1.692 0-2.851 1.254-2.851 3.076 0 1.846 1.148 3.065 2.84 3.065zm6.378 0c1.692 0 2.887-1.254 2.887-3.076 0-1.81-1.195-3.065-2.887-3.065-1.691 0-2.875 1.254-2.875 3.065 0 1.822 1.184 3.076 2.875 3.076zm0-.544c-1.337 0-2.26-1.042-2.26-2.532 0-1.48.923-2.532 2.26-2.532 1.337 0 2.26 1.053 2.26 2.532 0 1.49-.923 2.532-2.26 2.532zm10.783-5.597c-1.1 0-1.81.616-2.153 1.503-.284-.994-1.03-1.503-1.976-1.503-1.03 0-1.645.604-1.952 1.35L62.262 20h-.52V26h.603v-3.053c0-1.467.71-2.46 1.858-2.46 1.04 0 1.691.733 1.691 2.117V26h.604v-3.266c.035-1.372.745-2.248 1.87-2.248 1.04 0 1.668.698 1.668 2.06V26h.615v-3.479c0-1.81-.959-2.59-2.213-2.59zm10.25 0c-1.101 0-1.811.616-2.154 1.503-.284-.994-1.03-1.503-1.976-1.503-1.03 0-1.645.604-1.952 1.35L72.51 20h-.52V26h.603v-3.053c0-1.467.71-2.46 1.857-2.46 1.042 0 1.692.733 1.692 2.117V26h.604v-3.266c.035-1.372.745-2.248 1.87-2.248 1.04 0 1.668.698 1.668 2.06V26h.615v-3.479c0-1.81-.959-2.59-2.213-2.59zm3.859-1.195a.417.417 0 00.426-.426.417.417 0 00-.426-.426.417.417 0 00-.426.426c0 .249.19.426.426.426zM82.239 26h.604v-5.999h-.604V26zm1.75-1.846c.048 1.243 1.053 1.917 2.556 1.917 1.29 0 2.33-.65 2.33-1.716 0-1.266-1.111-1.514-2.401-1.692-.935-.13-1.763-.236-1.763-1.076 0-.687.674-1.136 1.692-1.136.958 0 1.645.461 1.751 1.242h.615c-.106-1.171-1.065-1.763-2.366-1.763-1.337-.012-2.295.675-2.295 1.704 0 1.207 1.112 1.432 2.342 1.597 1.006.142 1.822.272 1.822 1.16 0 .71-.745 1.16-1.727 1.16-1.148 0-1.893-.533-1.94-1.397h-.616zm5.65 0c.048 1.243 1.053 1.917 2.556 1.917 1.29 0 2.331-.65 2.331-1.716 0-1.266-1.112-1.514-2.402-1.692-.935-.13-1.763-.236-1.763-1.076 0-.687.675-1.136 1.692-1.136.959 0 1.645.461 1.751 1.242h.616c-.107-1.171-1.065-1.763-2.367-1.763-1.337-.012-2.295.675-2.295 1.704 0 1.207 1.112 1.432 2.343 1.597 1.005.142 1.822.272 1.822 1.16 0 .71-.746 1.16-1.728 1.16-1.147 0-1.893-.533-1.94-1.397h-.615zm6.346-5.419a.417.417 0 00.426-.426.417.417 0 00-.426-.426.417.417 0 00-.426.426c0 .249.19.426.426.426zM95.677 26h.604v-5.999h-.604V26zm4.673.071c1.692 0 2.887-1.254 2.887-3.076 0-1.81-1.195-3.065-2.887-3.065s-2.875 1.254-2.875 3.065c0 1.822 1.183 3.076 2.875 3.076zm0-.544c-1.337 0-2.26-1.042-2.26-2.532 0-1.48.923-2.532 2.26-2.532 1.337 0 2.26 1.053 2.26 2.532 0 1.49-.923 2.532-2.26 2.532zm6.854-5.597c-1.1 0-1.81.568-2.153 1.35L104.956 20h-.52V26h.603v-2.958c0-1.562.793-2.556 2.071-2.556 1.159 0 1.857.758 1.857 2.177V26h.604v-3.36c0-1.893-1.006-2.71-2.367-2.71zm3.43 4.224c.048 1.243 1.053 1.917 2.556 1.917 1.29 0 2.331-.65 2.331-1.716 0-1.266-1.112-1.514-2.402-1.692-.935-.13-1.763-.236-1.763-1.076 0-.687.674-1.136 1.692-1.136.958 0 1.645.461 1.751 1.242h.615c-.106-1.171-1.065-1.763-2.366-1.763-1.337-.012-2.295.675-2.295 1.704 0 1.207 1.112 1.432 2.342 1.597 1.006.142 1.822.272 1.822 1.16 0 .71-.745 1.16-1.727 1.16-1.148 0-1.893-.533-1.941-1.397h-.615zM5.987 42.444c-.355 0-.532-.118-.532-.58v-2.792c0-1.373-.84-2.142-2.343-2.142-1.373 0-2.284.663-2.438 1.751h.604c.154-.733.793-1.218 1.81-1.218 1.124 0 1.763.591 1.763 1.585v.52H2.816c-1.538 0-2.366.663-2.366 1.787 0 1.065.84 1.716 2.118 1.716 1.218 0 1.94-.556 2.307-1.301v.212c-.024.71.272 1.018.982 1.018h.355v-.556h-.225zm-1.136-1.87c0 1.148-.816 1.976-2.236 1.976-.959 0-1.55-.485-1.55-1.23 0-.793.591-1.23 1.704-1.23H4.85v.484zm2.617 1.03c0 .958.39 1.396 1.408 1.396h.876v-.556h-.828c-.627 0-.852-.237-.852-.852v-4.035h1.62v-.556h-1.62v-1.68h-.604v1.68H6.332v.556h1.136v4.047zm6.758-5.869a.417.417 0 00.426-.426.417.417 0 00-.426-.426.417.417 0 00-.426.426c0 .249.19.426.426.426zm-1.834 9.631h.734c1.005 0 1.408-.437 1.408-1.396v-6.969h-.604v6.981c0 .592-.225.828-.828.828h-.71v.556zm7.913-5.419c0 1.574-.781 2.568-2.024 2.568-1.112 0-1.798-.757-1.798-2.189v-3.325h-.604v3.36c0 1.882.982 2.71 2.308 2.71 1.065 0 1.763-.568 2.106-1.337L20.376 43h.532v-5.999h-.603v2.946zm1.752 1.207c.047 1.243 1.053 1.917 2.555 1.917 1.29 0 2.331-.65 2.331-1.716 0-1.266-1.112-1.514-2.402-1.692-.934-.13-1.763-.236-1.763-1.076 0-.687.675-1.136 1.692-1.136.959 0 1.645.461 1.751 1.242h.616c-.107-1.171-1.065-1.763-2.367-1.763-1.337-.012-2.295.675-2.295 1.704 0 1.207 1.112 1.432 2.342 1.597 1.006.142 1.823.273 1.823 1.16 0 .71-.746 1.16-1.728 1.16-1.147 0-1.893-.533-1.94-1.397h-.616zm6.487.45c0 .958.39 1.396 1.408 1.396h.875v-.556H30c-.627 0-.852-.237-.852-.852v-4.035h1.621v-.556h-1.62v-1.68h-.604v1.68h-1.136v.556h1.136v4.047zm7.669-5.833c0 .378-.178.639-.545.639h-1.42v.556h1.42c.249 0 .426-.071.533-.201V43h.615v-8.282h-.603v1.053zm2.117 6.838c0 .273.19.45.45.45s.45-.177.45-.45c0-.272-.19-.437-.45-.437s-.45.165-.45.438zm4.55-5.099c-.876 0-1.657.308-2.154 1.006l.225-3.23h4.106v-.568h-4.662l-.296 4.626.592.024c.355-.97 1.348-1.302 2.106-1.302 1.325 0 2.141.935 2.141 2.213 0 1.467-1.053 2.224-2.189 2.224-1.348 0-2.13-.9-2.224-1.976h-.615c.094 1.373 1.088 2.532 2.84 2.532 1.49 0 2.815-.97 2.815-2.792 0-1.61-1.076-2.757-2.685-2.757zm6.42 5.561c1.361 0 2.32-.78 2.556-2h-.639c-.2.888-.922 1.456-1.916 1.456-1.314 0-2.225-1.03-2.225-2.52 0-1.491.9-2.544 2.225-2.544 1.005 0 1.715.568 1.928 1.467h.627c-.248-1.242-1.183-2-2.544-2-1.691 0-2.851 1.254-2.851 3.077 0 1.845 1.148 3.064 2.84 3.064zm9.817-6.14c-1.124 0-1.905.603-2.283 1.443L56.739 37h-.52v8.365h.603v-3.75c.343.875 1.16 1.455 2.295 1.455 1.645 0 2.828-1.254 2.828-3.076 0-1.882-1.183-3.065-2.828-3.065zm-.047 5.596c-1.337 0-2.26-1.041-2.26-2.544 0-1.467.923-2.52 2.26-2.52 1.337 0 2.26 1.053 2.26 2.532 0 1.49-.923 2.532-2.26 2.532zm6.72.544c1.313 0 2.319-.852 2.58-2.059h-.616c-.237.935-1.03 1.515-2.011 1.515-1.337 0-2.177-1.018-2.201-2.414v-.106h4.898c0-.083.012-.178.012-.249-.06-1.787-1.16-2.828-2.769-2.828-1.644 0-2.768 1.254-2.768 3.03 0 1.88 1.171 3.111 2.875 3.111zm-2.2-3.573c.094-1.219 1.005-2.035 2.105-2.035 1.172 0 2.012.721 2.106 2.035H63.59zM72.093 37c-1.112 0-1.585.533-1.834 1.195l-.095-1.195h-.52V43h.603v-3.04c0-1.22.32-2.379 1.728-2.379h.438v-.58h-.32zm4.13 4.153c.048 1.243 1.054 1.917 2.556 1.917 1.29 0 2.331-.65 2.331-1.716 0-1.266-1.112-1.514-2.402-1.692-.934-.13-1.763-.236-1.763-1.076 0-.687.675-1.136 1.692-1.136.959 0 1.645.461 1.751 1.242h.616c-.107-1.171-1.065-1.763-2.367-1.763-1.337-.012-2.295.675-2.295 1.704 0 1.207 1.112 1.432 2.343 1.597 1.005.142 1.822.273 1.822 1.16 0 .71-.746 1.16-1.728 1.16-1.148 0-1.893-.533-1.94-1.397h-.615zm8.807-4.224c-1.124 0-1.822.627-2.165 1.491v-3.703h-.604V43h.604v-2.958c0-1.562.793-2.556 2.07-2.556 1.148 0 1.858.758 1.858 2.177V43h.603v-3.36c0-1.893-1.005-2.71-2.366-2.71zm8.99 5.514c-.354 0-.532-.118-.532-.58v-2.792c0-1.373-.84-2.142-2.343-2.142-1.372 0-2.283.663-2.437 1.751h.603c.154-.733.793-1.218 1.81-1.218 1.125 0 1.764.591 1.764 1.585v.52H90.85c-1.538 0-2.367.663-2.367 1.787 0 1.065.84 1.716 2.118 1.716 1.219 0 1.94-.556 2.307-1.301v.212c-.023.71.273 1.018.982 1.018h.355v-.556h-.224zm-1.135-1.87c0 1.148-.817 1.976-2.236 1.976-.959 0-1.55-.485-1.55-1.23 0-.793.591-1.23 1.703-1.23h2.083v.484zm4.617-3.573c-1.113 0-1.586.533-1.834 1.195l-.095-1.195h-.52V43h.603v-3.04c0-1.22.32-2.379 1.727-2.379h.438v-.58h-.32zm3.436 6.07c1.313 0 2.319-.852 2.579-2.059h-.615c-.236.935-1.029 1.515-2.011 1.515-1.337 0-2.177-1.018-2.201-2.414v-.106h4.898c0-.083.012-.178.012-.249-.059-1.787-1.159-2.828-2.768-2.828-1.645 0-2.77 1.254-2.77 3.03 0 1.88 1.172 3.111 2.876 3.111zm-2.2-3.573c.094-1.219 1.005-2.035 2.105-2.035 1.172 0 2.012.721 2.106 2.035h-4.212zm5.556 3.111c0 .273.19.45.45.45s.45-.177.45-.45c0-.272-.19-.437-.45-.437s-.45.165-.45.438z" fill="#000"/></svg>