<svg width="144" height="11" viewBox="0 0 144 11" fill="none" xmlns="http://www.w3.org/2000/svg"><path d="M.22 1.422h2.376V8h1.265V1.422h2.376V.3H.22v1.122zm9.142.946c-.924 0-1.375.374-1.661.847l-.132-.847H6.513V8H7.7V5.173c0-.869.34-1.694 1.397-1.694h.528V2.368h-.264zm5.973 4.598c-.243 0-.364-.077-.364-.363V4.348c0-1.331-.857-2.046-2.354-2.046-1.419 0-2.365.682-2.486 1.782h1.166c.088-.495.561-.825 1.265-.825.782 0 1.232.385 1.232 1.012v.341h-1.418c-1.573 0-2.41.649-2.41 1.804 0 1.045.859 1.65 2.09 1.65.914 0 1.486-.396 1.86-.968 0 .561.264.902 1.034.902h.627V6.966h-.242zm-1.54-1.276c-.011.869-.584 1.452-1.573 1.452-.65 0-1.045-.33-1.045-.803 0-.572.407-.847 1.143-.847h1.474v.198zm6.665-2.541c-.363-.495-.968-.847-1.826-.847-1.53 0-2.662 1.144-2.662 2.882 0 1.804 1.133 2.882 2.662 2.882.89 0 1.474-.418 1.837-.913l.143.847h1.034V.3H20.46v2.849zm-1.628 3.916c-.99 0-1.64-.77-1.64-1.881 0-1.1.65-1.87 1.64-1.87.99 0 1.639.77 1.639 1.892 0 1.089-.65 1.859-1.64 1.859zm6.65 1.001c1.397 0 2.343-.847 2.54-1.958h-1.187c-.165.627-.693.99-1.42.99-.934 0-1.54-.627-1.572-1.584v-.077h4.246c.022-.154.033-.308.033-.451-.033-1.65-1.122-2.684-2.75-2.684-1.661 0-2.772 1.155-2.772 2.893 0 1.727 1.11 2.871 2.882 2.871zm-1.595-3.498c.088-.803.737-1.309 1.496-1.309.825 0 1.408.473 1.507 1.309h-3.003zM33.623 8h1.486l1.55-5.665L38.233 8h1.474l2.21-7.7H40.62l-1.65 6.094L37.297.3h-1.2l-1.715 6.094-1.64-6.105L31.434.3l2.19 7.7zm9.588-6.424c.407 0 .726-.297.726-.715s-.319-.715-.726-.715-.726.297-.726.715.32.715.726.715zM42.606 8h1.188V2.368h-1.188V8zm2.76-1.529c0 1.023.462 1.529 1.54 1.529h1.1V6.955h-.836c-.451 0-.605-.165-.605-.605V3.413h1.375V2.368h-1.375V.795h-1.199v1.573h-.979v1.045h.979v3.058zm6.355-4.169c-.88 0-1.42.396-1.771.88V.3h-1.188V8h1.188V5.151c0-1.133.572-1.826 1.507-1.826.88 0 1.353.572 1.353 1.639V8h1.188V4.865c0-1.881-1.023-2.563-2.277-2.563zm5.976 5.764c1.716 0 2.871-1.155 2.871-2.882 0-1.716-1.155-2.882-2.87-2.882-1.717 0-2.872 1.166-2.872 2.882 0 1.727 1.155 2.882 2.871 2.882zm0-1.012c-1 0-1.65-.781-1.65-1.87s.65-1.87 1.65-1.87c1.001 0 1.661.781 1.661 1.87s-.66 1.87-1.66 1.87zm7.687-1.87c0 1.166-.55 1.848-1.452 1.848-.869 0-1.309-.561-1.309-1.661V2.368h-1.188v3.135c0 1.925 1.023 2.563 2.222 2.563.87 0 1.386-.352 1.738-.781l.132.715h1.045V2.368h-1.188v2.816zm2.798 1.287c0 1.023.462 1.529 1.54 1.529h1.1V6.955h-.836c-.45 0-.605-.165-.605-.605V3.413h1.375V2.368h-1.375V.795h-1.199v1.573h-.979v1.045h.98v3.058zm5.848-5.049h2.376V8h1.265V1.422h2.376V.3H74.03v1.122zm9.141.946c-.924 0-1.375.374-1.66.847l-.133-.847h-1.056V8h1.188V5.173c0-.869.341-1.694 1.397-1.694h.528V2.368h-.264zm5.973 4.598c-.242 0-.363-.077-.363-.363V4.348c0-1.331-.858-2.046-2.354-2.046-1.419 0-2.365.682-2.486 1.782h1.166c.088-.495.561-.825 1.265-.825.781 0 1.232.385 1.232 1.012v.341h-1.419c-1.573 0-2.409.649-2.409 1.804 0 1.045.858 1.65 2.09 1.65.913 0 1.485-.396 1.86-.968 0 .561.263.902 1.033.902h.627V6.966h-.242zm-1.54-1.276c-.01.869-.583 1.452-1.573 1.452-.649 0-1.045-.33-1.045-.803 0-.572.407-.847 1.144-.847h1.474v.198zm6.665-2.541c-.363-.495-.968-.847-1.826-.847-1.529 0-2.662 1.144-2.662 2.882 0 1.804 1.133 2.882 2.662 2.882.891 0 1.474-.418 1.837-.913l.143.847h1.034V.3H94.27v2.849zm-1.628 3.916c-.99 0-1.639-.77-1.639-1.881 0-1.1.65-1.87 1.64-1.87.99 0 1.638.77 1.638 1.892 0 1.089-.649 1.859-1.639 1.859zm4.582-5.489c.407 0 .726-.297.726-.715s-.319-.715-.726-.715-.726.297-.726.715.32.715.726.715zM96.618 8h1.188V2.368h-1.188V8zm5.323-5.698c-.913 0-1.452.363-1.804.803l-.132-.737h-1.034V8h1.188V5.162c0-1.144.561-1.837 1.507-1.837.891 0 1.342.572 1.342 1.639V8h1.199V4.865c0-1.881-1.023-2.563-2.266-2.563zm7.647.946c-.363-.561-.968-.946-1.848-.946-1.529 0-2.662 1.133-2.662 2.86 0 1.793 1.133 2.86 2.662 2.86.88 0 1.463-.363 1.837-.924v.627c0 1.078-.583 1.573-1.617 1.573-.836 0-1.386-.363-1.529-.99h-1.21c.11 1.265 1.155 1.958 2.651 1.958 2.024 0 2.882-.968 2.882-2.497V2.368h-1.034l-.132.88zm-1.65 3.773c-.99 0-1.639-.759-1.639-1.859 0-1.089.649-1.859 1.639-1.859s1.639.77 1.639 1.881c0 1.078-.649 1.837-1.639 1.837zm10.256 1.045c1.793 0 3.102-1.056 3.344-2.684h-1.309c-.242.979-.979 1.573-2.046 1.573-1.452 0-2.332-1.166-2.332-2.805 0-1.65.902-2.805 2.365-2.805 1.045 0 1.771.605 2.024 1.573h1.309c-.253-1.628-1.518-2.684-3.278-2.684-2.277 0-3.718 1.573-3.718 3.916 0 2.365 1.397 3.916 3.641 3.916zm6.932 0c1.716 0 2.871-1.155 2.871-2.882 0-1.716-1.155-2.882-2.871-2.882s-2.871 1.166-2.871 2.882c0 1.727 1.155 2.882 2.871 2.882zm0-1.012c-1.001 0-1.65-.781-1.65-1.87s.649-1.87 1.65-1.87 1.661.781 1.661 1.87-.66 1.87-1.661 1.87zm3.552-.913c.033 1.221 1.067 1.925 2.574 1.925 1.364 0 2.387-.682 2.387-1.76 0-1.254-1.045-1.518-2.332-1.672-.814-.088-1.353-.154-1.353-.682 0-.451.462-.737 1.166-.737s1.188.363 1.254.88h1.166c-.077-1.155-1.056-1.793-2.442-1.793-1.353-.011-2.31.682-2.31 1.749 0 1.166 1.012 1.441 2.299 1.595.869.11 1.386.154 1.386.759 0 .451-.484.737-1.221.737-.858 0-1.364-.418-1.408-1.001h-1.166zm6.289.33c0 1.023.462 1.529 1.54 1.529h1.1V6.955h-.836c-.451 0-.605-.165-.605-.605V3.413h1.375V2.368h-1.375V.795h-1.199v1.573h-.979v1.045h.979v3.058zm3.153-.33c.033 1.221 1.067 1.925 2.574 1.925 1.364 0 2.387-.682 2.387-1.76 0-1.254-1.045-1.518-2.332-1.672-.814-.088-1.353-.154-1.353-.682 0-.451.462-.737 1.166-.737s1.188.363 1.254.88h1.166c-.077-1.155-1.056-1.793-2.442-1.793-1.353-.011-2.31.682-2.31 1.749 0 1.166 1.012 1.441 2.299 1.595.869.11 1.386.154 1.386.759 0 .451-.484.737-1.221.737-.858 0-1.364-.418-1.408-1.001h-1.166z" fill="#000"/></svg>