<svg width="172" height="14" viewBox="0 0 172 14" fill="none" xmlns="http://www.w3.org/2000/svg"><path d="M.338 2.883h3.655V13h1.945V2.883h3.655V1.157H.338v1.726zm14.06 1.455c-1.42 0-2.114.575-2.554 1.303l-.203-1.303h-1.624V13h1.827V8.652c0-1.336.524-2.605 2.148-2.605h.812v-1.71h-.406zm9.187 7.072c-.373 0-.559-.119-.559-.559V7.383c0-2.047-1.32-3.147-3.62-3.147-2.183 0-3.637 1.05-3.824 2.741h1.794c.135-.761.862-1.269 1.945-1.269 1.201 0 1.895.592 1.895 1.557v.524h-2.182c-2.42 0-3.705.998-3.705 2.775 0 1.607 1.32 2.537 3.214 2.537 1.404 0 2.284-.609 2.86-1.488 0 .863.405 1.387 1.59 1.387h.964v-1.59h-.372zm-2.369-1.963c-.017 1.337-.897 2.233-2.42 2.233-.997 0-1.606-.507-1.606-1.235 0-.88.626-1.302 1.76-1.302h2.266v.304zM31.467 5.54c-.558-.761-1.489-1.303-2.808-1.303-2.352 0-4.094 1.76-4.094 4.433 0 2.774 1.742 4.432 4.094 4.432 1.37 0 2.267-.642 2.825-1.404l.22 1.303h1.59V1.157h-1.827V5.54zm-2.504 6.023c-1.522 0-2.52-1.184-2.52-2.893 0-1.692.998-2.876 2.52-2.876 1.523 0 2.521 1.184 2.521 2.91 0 1.675-.998 2.859-2.52 2.859zm10.228 1.54c2.148 0 3.603-1.303 3.908-3.012h-1.827c-.254.964-1.066 1.523-2.183 1.523-1.438 0-2.368-.965-2.419-2.436v-.119h6.53c.034-.237.051-.474.051-.694-.05-2.537-1.725-4.128-4.23-4.128-2.554 0-4.263 1.777-4.263 4.45 0 2.656 1.71 4.415 4.433 4.415zm-2.453-5.38c.135-1.235 1.133-2.014 2.3-2.014 1.27 0 2.166.728 2.319 2.014h-4.62zM51.053 13h1.98l1.895-5.888L56.755 13h1.962l2.876-8.662h-1.86l-2.048 6.632-1.895-6.632h-1.674l-1.98 6.632-1.98-6.632h-1.928L51.053 13zm12.433-9.88c.626 0 1.116-.457 1.116-1.1s-.49-1.1-1.116-1.1c-.626 0-1.117.457-1.117 1.1s.49 1.1 1.117 1.1zm-.93 9.88h1.826V4.338h-1.827V13zm4.243-2.352c0 1.574.711 2.352 2.369 2.352h1.692v-1.607h-1.286c-.694 0-.93-.254-.93-.93V5.944h2.114V4.338h-2.114v-2.42h-1.845v2.42h-1.505v1.607h1.505v4.703zm9.774-6.412c-1.353 0-2.182.61-2.724 1.354V1.157h-1.827V13h1.827V8.618c0-1.742.88-2.808 2.318-2.808 1.353 0 2.081.88 2.081 2.52V13h1.827V8.178c0-2.893-1.573-3.942-3.502-3.942zm13.468 8.865c2.216 0 3.688-1.235 4.027-3.197h-1.929c-.22.998-.964 1.641-2.08 1.641-1.473 0-2.437-1.167-2.437-2.86 0-1.708.964-2.892 2.436-2.892 1.134 0 1.861.626 2.098 1.64h1.912c-.355-1.962-1.743-3.197-3.976-3.197-2.622 0-4.348 1.777-4.348 4.45 0 2.707 1.675 4.415 4.297 4.415zm9.52 0c2.639 0 4.415-1.776 4.415-4.432 0-2.64-1.776-4.433-4.416-4.433-2.639 0-4.415 1.794-4.415 4.433 0 2.656 1.776 4.432 4.415 4.432zm0-1.556c-1.54 0-2.538-1.201-2.538-2.876 0-1.675.998-2.876 2.537-2.876 1.54 0 2.555 1.201 2.555 2.876 0 1.675-1.015 2.876-2.555 2.876zm10.452-7.309c-1.404 0-2.233.559-2.774 1.235l-.203-1.133h-1.591V13h1.827V8.635c0-1.76.863-2.825 2.318-2.825 1.371 0 2.064.88 2.064 2.52V13h1.844V8.178c0-2.893-1.573-3.942-3.485-3.942zm11.728-1.116c.626 0 1.117-.457 1.117-1.1s-.491-1.1-1.117-1.1-1.116.457-1.116 1.1.49 1.1 1.116 1.1zm-4.111 1.218V3.61c0-.592.237-.845.829-.845h1.286V1.157h-1.54c-1.675 0-2.419.795-2.419 2.318v.863h-1.506v1.607h1.506V13h1.844V5.945h3.181V13h1.844V4.338h-5.025zm13.38 1.201c-.559-.761-1.489-1.303-2.809-1.303-2.351 0-4.094 1.76-4.094 4.433 0 2.774 1.743 4.432 4.094 4.432 1.371 0 2.267-.642 2.826-1.404l.22 1.303h1.59V1.157h-1.827V5.54zm-2.504 6.023c-1.523 0-2.521-1.184-2.521-2.893 0-1.692.998-2.876 2.521-2.876s2.521 1.184 2.521 2.91c0 1.675-.998 2.859-2.521 2.859zm10.228 1.54c2.148 0 3.603-1.303 3.908-3.012h-1.828c-.253.964-1.065 1.523-2.182 1.523-1.438 0-2.368-.965-2.419-2.436v-.119h6.53a4.94 4.94 0 00.051-.694c-.051-2.537-1.726-4.128-4.23-4.128-2.554 0-4.263 1.777-4.263 4.45 0 2.656 1.709 4.415 4.433 4.415zm-2.454-5.38c.136-1.235 1.134-2.014 2.301-2.014 1.269 0 2.166.728 2.318 2.014h-4.619zm12.559-3.486c-1.404 0-2.233.559-2.775 1.235l-.203-1.133h-1.59V13h1.827V8.635c0-1.76.863-2.825 2.318-2.825 1.37 0 2.064.88 2.064 2.52V13h1.844V8.178c0-2.893-1.573-3.942-3.485-3.942zm9.056 8.865c2.217 0 3.689-1.235 4.027-3.197h-1.929c-.22.998-.964 1.641-2.081 1.641-1.472 0-2.436-1.167-2.436-2.86 0-1.708.964-2.892 2.436-2.892 1.134 0 1.861.626 2.098 1.64h1.912c-.355-1.962-1.743-3.197-3.976-3.197-2.622 0-4.348 1.777-4.348 4.45 0 2.707 1.675 4.415 4.297 4.415zm9.537 0c2.148 0 3.603-1.302 3.908-3.01h-1.828c-.253.963-1.065 1.522-2.182 1.522-1.438 0-2.369-.965-2.419-2.436v-.119h6.53a4.94 4.94 0 00.051-.694c-.051-2.537-1.726-4.128-4.23-4.128-2.554 0-4.263 1.777-4.263 4.45 0 2.656 1.709 4.415 4.433 4.415zm-2.454-5.38c.136-1.234 1.134-2.013 2.301-2.013 1.269 0 2.166.728 2.318 2.014h-4.619z" fill="url(#paint0_linear_1072_177)"/><defs><linearGradient id="paint0_linear_1072_177" x1="210" y1="5" x2="0" y2="5" gradientUnits="userSpaceOnUse"><stop stop-color="#FF4343"/><stop offset=".5" stop-color="#9C0B93"/><stop offset="1" stop-color="#4C1BB7"/></linearGradient></defs></svg>