<svg width="160" height="600" viewBox="0 0 160 600" fill="none" xmlns="http://www.w3.org/2000/svg"><path d="M18.78 117a.191.191 0 00.179-.178l-.067-7.471.044-6.937h4.358c.09 0 .178-.088.178-.177v-.623a.191.191 0 00-.178-.178H13.4a.191.191 0 00-.178.178v.623c0 .089.09.177.178.177h4.358l.067 6.937-.067 7.471c0 .089.089.178.178.178h.845zm5.578 0a.191.191 0 00.178-.178l-.045-6.937c.423-2.446 2.046-3.513 3.691-3.513.334 0 .6.022.823.089.089.022.178-.044.178-.133v-.601c0-.111-.09-.2-.178-.222a2.764 2.764 0 00-.778-.089c-1.557 0-3.002.867-3.758 2.424l.067-2.113a.191.191 0 00-.178-.178h-.778a.191.191 0 00-.178.178l.067 5.359-.067 5.736c0 .089.089.178.178.178h.778zm6.462-5.825c0-2.78 1.156-4.981 3.736-4.981 2.312 0 3.668 1.935 3.646 5.203-.022 3.268-1.468 4.936-3.69 4.936-2.558 0-3.692-2.29-3.692-5.158zM39.047 117a.191.191 0 00.178-.178l-.067-5.758.067-5.337a.191.191 0 00-.178-.178h-.756a.191.191 0 00-.178.178l.044 2.068c-.733-1.601-2.045-2.468-3.846-2.468-2.957 0-4.58 2.668-4.58 5.959 0 3.335 1.578 5.914 4.58 5.914 1.823 0 3.135-.956 3.846-2.535l-.044 2.157c0 .089.089.178.178.178h.756zm4.092 0a.191.191 0 00.177-.178l-.022-4.736v-2.49c.756-2.09 1.912-3.38 3.624-3.38 1.735 0 2.89 1.045 2.89 3.803v2.067l-.044 4.736c0 .089.09.178.178.178h.778a.191.191 0 00.178-.178l-.022-4.736v-2.179c0-3.135-1.423-4.624-3.735-4.624-1.98 0-3.247 1.334-3.891 2.623l.044-2.179a.191.191 0 00-.178-.178h-.756a.191.191 0 00-.178.178l.045 6.248-.045 4.847c0 .089.09.178.178.178h.779zm19.33-3.135c0-4.758-7.892-2.068-7.892-5.447 0-1.512 1.223-2.268 3.112-2.268 1.846 0 3.313.756 3.425 2.601 0 .089.088.178.177.178h.667a.191.191 0 00.178-.178c-.11-2.379-2.023-3.424-4.424-3.424-2.446 0-4.203 1.067-4.203 3.135 0 4.447 7.894 1.757 7.894 5.47 0 1.578-1.401 2.468-3.358 2.468-2.357 0-3.646-1.045-3.713-3.291a.191.191 0 00-.178-.178h-.711a.191.191 0 00-.178.178c.067 2.802 1.89 4.113 4.758 4.113 2.49 0 4.447-1.245 4.447-3.357zm3.446-2.713c.022-3.29 1.49-4.98 3.69-4.98 2.557 0 3.691 2.312 3.691 5.203 0 2.757-1.156 4.98-3.713 4.98-2.334 0-3.69-1.934-3.668-5.203zm8.493.089c0-3.335-1.6-5.936-4.58-5.936-1.801 0-3.135.978-3.869 2.557l.045-2.135a.191.191 0 00-.178-.178h-.756a.191.191 0 00-.178.178l.067 6.004-.067 8.871c0 .089.089.178.178.178h.8a.191.191 0 00.178-.178l-.067-5.803c.734 1.578 2.046 2.423 3.825 2.423 2.957 0 4.602-2.69 4.602-5.981zm3.135-.066c0-2.78 1.156-4.981 3.735-4.981 2.313 0 3.669 1.935 3.647 5.203-.022 3.268-1.468 4.936-3.691 4.936-2.557 0-3.69-2.29-3.69-5.158zM85.77 117a.191.191 0 00.178-.178l-.067-5.758.067-5.337a.191.191 0 00-.178-.178h-.756a.191.191 0 00-.178.178l.044 2.068c-.733-1.601-2.045-2.468-3.846-2.468-2.957 0-4.58 2.668-4.58 5.959 0 3.335 1.578 5.914 4.58 5.914 1.823 0 3.135-.956 3.846-2.535l-.044 2.157c0 .089.089.178.178.178h.756zm4.07 0a.191.191 0 00.177-.178l-.044-6.937c.422-2.446 2.045-3.513 3.69-3.513.334 0 .6.022.823.089.089.022.178-.044.178-.133v-.601c0-.111-.09-.2-.178-.222a2.764 2.764 0 00-.778-.089c-1.557 0-3.002.867-3.758 2.424l.067-2.113a.191.191 0 00-.178-.178h-.778a.191.191 0 00-.178.178l.067 5.359-.067 5.736c0 .089.089.178.178.178h.778zm14.377-4.047c-.089 0-.2.067-.2.178-.378 2.024-1.557 3.246-3.625 3.246-2.712 0-4.068-1.889-4.068-5.113l8.649-.023c.089 0 .178-.089.178-.177-.067-3.647-1.89-5.759-4.914-5.759-3.09 0-5.025 2.49-5.025 6.003s1.779 5.937 5.158 5.937c2.735 0 4.291-1.601 4.714-4.114 0-.089-.067-.178-.156-.178h-.711zm-.245-2.601h-7.604c.267-2.557 1.6-4.18 3.869-4.18 2.423 0 3.713 1.868 3.735 4.18zM108.62 117c.088 0 .177-.089.177-.178l-.022-4.736v-2.49c.756-2.09 1.912-3.38 3.624-3.38 1.735 0 2.891 1.045 2.891 3.803v2.067l-.045 4.736c0 .089.089.178.178.178h.778a.191.191 0 00.178-.178l-.022-4.736v-2.179c0-3.135-1.423-4.624-3.735-4.624-1.979 0-3.246 1.334-3.891 2.623l.044-2.179a.191.191 0 00-.178-.178h-.756a.191.191 0 00-.178.178l.045 6.248-.045 4.847c0 .089.089.178.178.178h.779zm15.419-.756c0-.089-.089-.156-.178-.133a5.817 5.817 0 01-1.134.111c-1.112 0-1.579-.512-1.579-2.224v-7.537h2.713a.191.191 0 00.178-.178v-.556a.191.191 0 00-.178-.178h-2.713l.023-2.69a.191.191 0 00-.178-.178h-.779c-.088 0-.177.089-.177.178l.044 2.69h-1.312a.191.191 0 00-.178.178v.556c0 .089.089.178.178.178h1.312l-.022 7.537c0 2.424 1.112 3.18 2.601 3.18.4 0 .867-.089 1.201-.178a.216.216 0 00.178-.222v-.534zm-99.833 25.62c.022-.111-.089-.222-.2-.222h-2.068a.259.259 0 00-.244.222c-.178 1.646-1.179 2.535-2.602 2.513-1.956-.022-2.89-1.334-2.89-4.091 0-2.668.933-4.091 2.89-4.091 1.245 0 2.201.711 2.468 2.156a.264.264 0 00.267.223h2.045c.112 0 .223-.111.2-.223-.266-2.423-2.09-4.068-4.98-4.068-3.602 0-5.647 2.401-5.647 6.025 0 3.624 2.045 5.959 5.603 5.959 2.957 0 4.913-1.846 5.158-4.403zm4.48 4.136c.112 0 .223-.111.223-.222l-.044-5.359c.133-2.579 1.823-3.824 3.98-3.824.178 0 .355 0 .511.022.111 0 .222-.089.222-.2v-1.645a.285.285 0 00-.222-.267 4.73 4.73 0 00-.556-.044c-1.645 0-3.157.711-4.002 2.112l.089-1.801c0-.111-.111-.223-.222-.223h-2.246c-.111 0-.222.112-.222.223l.089 5.447-.09 5.559c0 .111.112.222.223.222h2.268zm16.94-5.759c0-3.624-2.024-5.958-5.625-5.958-3.602 0-5.67 2.401-5.67 6.025 0 3.624 2.068 5.959 5.67 5.959 3.601 0 5.625-2.379 5.625-6.026zm-8.56.089c0-2.712.933-4.135 2.912-4.157 1.935 0 2.89 1.423 2.89 4.135 0 2.735-.933 4.069-2.867 4.069-1.957 0-2.935-1.356-2.935-4.047zm20.567 2.268c0-4.847-7.604-2.512-7.604-4.98 0-1.112.845-1.601 2.157-1.601 1.49 0 2.334.645 2.534 1.801.023.133.111.222.245.222h2.045c.112 0 .223-.111.2-.222-.177-2.357-2.156-3.535-4.98-3.535-2.912 0-4.758 1.223-4.758 3.535 0 4.713 7.604 2.468 7.604 5.003 0 1.067-.912 1.667-2.423 1.667-1.78 0-2.758-.667-2.846-2.157a.223.223 0 00-.223-.222h-2.156c-.112 0-.223.111-.223.222.111 2.58 2.224 3.936 5.359 3.936 2.89 0 5.069-1.334 5.069-3.669zm12.158 0c0-4.847-7.604-2.512-7.604-4.98 0-1.112.845-1.601 2.157-1.601 1.49 0 2.335.645 2.535 1.801.022.133.11.222.244.222h2.046c.111 0 .222-.111.2-.222-.178-2.357-2.157-3.535-4.98-3.535-2.913 0-4.759 1.223-4.759 3.535 0 4.713 7.604 2.468 7.604 5.003 0 1.067-.911 1.667-2.423 1.667-1.779 0-2.757-.667-2.846-2.157a.223.223 0 00-.222-.222h-2.157a.239.239 0 00-.222.222c.11 2.58 2.223 3.936 5.358 3.936 2.89 0 5.07-1.334 5.07-3.669zm6.627-2.045c.11 0 .222-.112.222-.223v-1.556a.239.239 0 00-.222-.222h-5.003a.239.239 0 00-.222.222v1.556c0 .111.11.223.222.223h5.003zm13.174-.312c0-3.335-1.69-5.914-4.847-5.914-1.512 0-2.69.645-3.49 1.734l.022-5.403a.239.239 0 00-.223-.222h-2.268c-.11 0-.222.111-.222.222l.089 7.227-.09 7.893c0 .111.112.222.223.222h2.268a.239.239 0 00.222-.222l-.044-1.245c.778 1.111 1.934 1.689 3.446 1.689 3.069 0 4.914-2.668 4.914-5.981zm-8.427-.089c.023-2.579 1.068-3.891 2.846-3.891 1.89-.022 2.846 1.512 2.846 4.114 0 2.423-.956 3.957-2.89 3.913-1.823-.022-2.824-1.49-2.802-4.136zm21.496.089c0-3.624-2.023-5.958-5.625-5.958s-5.67 2.401-5.67 6.025c0 3.624 2.068 5.959 5.67 5.959s5.625-2.379 5.625-6.026zm-8.56.089c0-2.712.934-4.135 2.913-4.157 1.934 0 2.89 1.423 2.89 4.135 0 2.735-.933 4.069-2.868 4.069-1.957 0-2.935-1.356-2.935-4.047zm13.137 5.67c.111 0 .223-.111.223-.222l-.045-5.359c.134-2.579 1.823-3.824 3.98-3.824.178 0 .356 0 .511.022.112 0 .223-.089.223-.2v-1.645a.285.285 0 00-.223-.267 4.715 4.715 0 00-.555-.044c-1.646 0-3.158.711-4.003 2.112l.089-1.801c0-.111-.111-.223-.222-.223h-2.246c-.111 0-.222.112-.222.223l.089 5.447-.089 5.559c0 .111.111.222.222.222h2.268zm8.379-5.848c0-2.468.934-4.002 2.89-3.957 1.801.022 2.824 1.512 2.802 4.18-.022 2.646-1.067 3.98-2.868 3.98-1.868 0-2.824-1.557-2.824-4.203zm8.049 5.848a.239.239 0 00.222-.222l-.044-7.938.044-7.182a.239.239 0 00-.222-.222h-2.268a.239.239 0 00-.222.222l.044 5.314c-.778-1.067-1.957-1.645-3.446-1.645-3.069 0-4.892 2.668-4.892 5.981 0 3.335 1.668 5.914 4.847 5.914 1.534 0 2.713-.667 3.513-1.778l-.066 1.334c0 .111.111.222.222.222h2.268zm10.935-3.913a.264.264 0 00-.267.222c-.334 1.401-1.223 2.068-2.624 2.068-1.934 0-2.913-1.156-3.024-3.602h8.294a.239.239 0 00.222-.222c-.067-3.891-2.09-6.27-5.625-6.27-3.469 0-5.581 2.401-5.581 6.025 0 3.491 1.979 5.959 5.67 5.959 3.068 0 4.936-1.779 5.269-3.958 0-.111-.089-.222-.2-.222h-2.134zm-.289-3.113h-5.537c.289-1.845 1.223-2.824 2.824-2.824 1.756 0 2.624 1.334 2.713 2.824zm7.426 7.026a.239.239 0 00.222-.222l-.045-5.359c.134-2.579 1.824-3.824 3.98-3.824.178 0 .356 0 .512.022.111 0 .222-.089.222-.2v-1.645a.285.285 0 00-.222-.267 4.732 4.732 0 00-.556-.044c-1.645 0-3.157.711-4.002 2.112l.089-1.801c0-.111-.112-.223-.223-.223h-2.245c-.111 0-.223.112-.223.223l.089 5.447-.089 5.559c0 .111.112.222.223.222h2.268zM15.046 169.152c.022-3.29 1.49-4.98 3.69-4.98 2.557 0 3.691 2.312 3.691 5.203 0 2.757-1.156 4.98-3.713 4.98-2.334 0-3.69-1.934-3.668-5.203zm8.493.089c0-3.335-1.6-5.936-4.58-5.936-1.801 0-3.135.978-3.869 2.557l.044-2.135a.191.191 0 00-.177-.178H14.2a.191.191 0 00-.178.178l.066 6.004-.066 8.871c0 .089.089.178.178.178h.8a.191.191 0 00.178-.178l-.067-5.803c.734 1.578 2.046 2.423 3.824 2.423 2.958 0 4.603-2.69 4.603-5.981zm3.135-.066c0-2.78 1.156-4.981 3.735-4.981 2.313 0 3.669 1.935 3.647 5.203-.023 3.268-1.468 4.936-3.691 4.936-2.557 0-3.691-2.29-3.691-5.158zM34.901 175a.191.191 0 00.177-.178l-.066-5.758.066-5.337a.191.191 0 00-.177-.178h-.756a.191.191 0 00-.178.178l.044 2.068c-.733-1.601-2.045-2.468-3.846-2.468-2.957 0-4.58 2.668-4.58 5.959 0 3.335 1.578 5.914 4.58 5.914 1.823 0 3.135-.956 3.846-2.535l-.044 2.157c0 .089.089.178.178.178h.756zm11.628-11.273c.045-.089-.022-.178-.11-.178h-.823c-.111 0-.2.067-.245.178l-3.224 9.717-3.757-9.739a.274.274 0 00-.245-.156h-.89c-.088 0-.155.089-.11.156l4.446 11.251-1.29 3.646c-.044.089.023.178.112.178h.69c.11 0 .2-.067.244-.178l5.203-14.875zm3.148 3.869c.756-2.068 1.823-3.38 3.424-3.38 1.646 0 2.713 1.023 2.713 3.803v2.201l-.045 4.602c0 .089.09.178.178.178h.778a.191.191 0 00.178-.178l-.022-4.602v-2.313c0-.266 0-.511-.022-.756.733-1.801 1.756-2.935 3.246-2.935 1.645 0 2.713 1.023 2.713 3.803v2.201l-.045 4.602c0 .089.089.178.178.178h.778a.191.191 0 00.178-.178l-.022-4.602v-2.313c0-3.179-1.334-4.624-3.535-4.624-1.801 0-3.002 1.223-3.691 2.623-.467-1.801-1.646-2.623-3.313-2.623-1.868 0-3.046 1.311-3.691 2.623l.044-2.179a.191.191 0 00-.177-.178h-.756a.191.191 0 00-.178.178l.044 6.493-.066 4.602c0 .089.088.178.177.178h.8a.191.191 0 00.179-.178l-.045-4.602v-2.624zm25.643 3.357c-.089 0-.2.067-.2.178-.378 2.024-1.556 3.246-3.624 3.246-2.713 0-4.069-1.889-4.069-5.113l8.65-.023c.088 0 .177-.089.177-.177-.067-3.647-1.89-5.759-4.914-5.759-3.09 0-5.025 2.49-5.025 6.003s1.78 5.937 5.159 5.937c2.734 0 4.29-1.601 4.713-4.114 0-.089-.066-.178-.155-.178h-.712zm-.244-2.601h-7.604c.266-2.557 1.6-4.18 3.868-4.18 2.424 0 3.713 1.868 3.736 4.18zM79.723 175a.191.191 0 00.178-.178l-.022-4.736v-2.49c.756-2.09 1.912-3.38 3.624-3.38 1.734 0 2.89 1.045 2.89 3.803v2.067l-.044 4.736c0 .089.089.178.178.178h.778a.191.191 0 00.178-.178l-.023-4.736v-2.179c0-3.135-1.422-4.624-3.735-4.624-1.979 0-3.246 1.334-3.89 2.623l.044-2.179a.191.191 0 00-.178-.178h-.756a.191.191 0 00-.178.178l.044 6.248-.044 4.847c0 .089.089.178.178.178h.778zm15.42-.756a.142.142 0 00-.179-.133 5.818 5.818 0 01-1.134.111c-1.111 0-1.578-.512-1.578-2.224v-7.537h2.712a.191.191 0 00.178-.178v-.556a.191.191 0 00-.178-.178h-2.712l.022-2.69a.191.191 0 00-.178-.178h-.778a.191.191 0 00-.178.178l.045 2.69h-1.312a.191.191 0 00-.178.178v.556c0 .089.089.178.178.178h1.312l-.023 7.537c0 2.424 1.112 3.18 2.602 3.18.4 0 .867-.089 1.2-.178a.216.216 0 00.178-.222v-.534zm10.772-2.379c0-4.758-7.893-2.068-7.893-5.447 0-1.512 1.223-2.268 3.112-2.268 1.846 0 3.313.756 3.425 2.601 0 .089.088.178.177.178h.667a.191.191 0 00.178-.178c-.111-2.379-2.023-3.424-4.424-3.424-2.446 0-4.203 1.067-4.203 3.135 0 4.447 7.894 1.757 7.894 5.47 0 1.578-1.401 2.468-3.358 2.468-2.357 0-3.646-1.045-3.713-3.291a.191.191 0 00-.178-.178h-.711a.191.191 0 00-.178.178c.067 2.802 1.89 4.113 4.758 4.113 2.49 0 4.447-1.245 4.447-3.357z" fill="#fff"/></svg>