<svg width="202" height="29" viewBox="0 0 202 29" fill="none" xmlns="http://www.w3.org/2000/svg"><path d="M9.113 5.45c0-2.691-1.742-4.628-4.251-4.628C2.366.822.611 2.759.611 5.45s1.755 4.628 4.251 4.628c2.509 0 4.251-1.937 4.251-4.628zm-7.774 0c0-2.327 1.443-3.978 3.523-3.978 2.093 0 3.536 1.651 3.536 3.978S6.955 9.428 4.862 9.428c-2.08 0-3.523-1.651-3.523-3.978zm13.962 1.196c0 1.729-.858 2.821-2.223 2.821-1.222 0-1.976-.832-1.976-2.405V3.409h-.663v3.692c0 2.067 1.08 2.977 2.535 2.977 1.17 0 1.937-.624 2.314-1.469L15.38 10h.585V3.409h-.663v3.237zm4.915-3.237c-1.222 0-1.742.585-2.015 1.313l-.104-1.313h-.572V10h.663V6.659c0-1.339.351-2.613 1.898-2.613h.481v-.637h-.35zm7.88-.078c-1.21 0-1.99.624-2.367 1.482l-.104-1.404h-.572V10h.663V6.75c0-1.716.871-2.808 2.275-2.808 1.274 0 2.041.832 2.041 2.392V10h.663V6.308c0-2.08-1.105-2.977-2.6-2.977zm6.877 6.747c1.443 0 2.548-.936 2.834-2.262h-.676c-.26 1.027-1.13 1.664-2.21 1.664-1.469 0-2.392-1.118-2.418-2.652v-.117h5.382c0-.091.013-.195.013-.273-.065-1.963-1.274-3.107-3.042-3.107-1.807 0-3.042 1.378-3.042 3.328 0 2.067 1.287 3.419 3.16 3.419zm-2.418-3.926c.104-1.339 1.105-2.236 2.314-2.236 1.287 0 2.21.793 2.314 2.236h-4.628zM40.605 10h.715l1.95-5.538L45.129 10h.715l2.34-6.591h-.676L45.48 9.207l-1.885-5.798h-.611l-1.99 5.798-1.923-5.798h-.702L40.605 10zm14.285 0h.832l2.353-7.943L60.428 10h.832L64.042.9h-.728l-2.457 8.177L58.465.9h-.715l-2.457 8.177L52.862.9h-.741L54.89 10zm12.583.078c1.443 0 2.548-.936 2.834-2.262h-.676c-.26 1.027-1.13 1.664-2.21 1.664-1.469 0-2.392-1.118-2.418-2.652v-.117h5.382c0-.091.013-.195.013-.273-.065-1.963-1.274-3.107-3.042-3.107-1.807 0-3.042 1.378-3.042 3.328 0 2.067 1.287 3.419 3.16 3.419zm-2.418-3.926c.104-1.339 1.105-2.236 2.314-2.236 1.287 0 2.21.793 2.314 2.236h-4.628zM71.71 10h.663V.9h-.663V10zm5.094.078c1.495 0 2.548-.858 2.808-2.197h-.702c-.22.975-1.014 1.599-2.106 1.599-1.443 0-2.444-1.131-2.444-2.769 0-1.638.988-2.795 2.444-2.795 1.105 0 1.885.624 2.12 1.612h.688c-.273-1.365-1.3-2.197-2.795-2.197-1.859 0-3.133 1.378-3.133 3.38 0 2.028 1.261 3.367 3.12 3.367zm7.01 0c1.858 0 3.171-1.378 3.171-3.38 0-1.989-1.313-3.367-3.172-3.367-1.859 0-3.159 1.378-3.159 3.367 0 2.002 1.3 3.38 3.16 3.38zm0-.598c-1.47 0-2.484-1.144-2.484-2.782 0-1.625 1.014-2.782 2.483-2.782 1.47 0 2.483 1.157 2.483 2.782 0 1.638-1.014 2.782-2.483 2.782zm11.846-6.149c-1.209 0-1.989.676-2.366 1.651-.312-1.092-1.13-1.651-2.17-1.651-1.132 0-1.808.663-2.145 1.482l-.104-1.404h-.572V10h.662V6.646c0-1.612.78-2.704 2.041-2.704 1.145 0 1.86.806 1.86 2.327V10h.663V6.412c.038-1.508.819-2.47 2.053-2.47 1.144 0 1.834.767 1.834 2.262V10h.675V6.178c0-1.989-1.053-2.847-2.43-2.847zm6.714 6.747c1.443 0 2.548-.936 2.834-2.262h-.676c-.26 1.027-1.131 1.664-2.21 1.664-1.469 0-2.392-1.118-2.418-2.652v-.117h5.382c0-.091.013-.195.013-.273-.065-1.963-1.274-3.107-3.042-3.107-1.807 0-3.042 1.378-3.042 3.328 0 2.067 1.287 3.419 3.159 3.419zm-2.418-3.926c.104-1.339 1.105-2.236 2.314-2.236 1.287 0 2.21.793 2.314 2.236h-4.628zM110.268 10h.702V6.204h2.613L115.728 10h.793l-2.21-3.926c1.339-.208 2.184-1.183 2.184-2.522 0-1.612-1.131-2.652-2.86-2.652h-3.367V10zm3.328-8.45c1.339 0 2.184.78 2.184 2.002 0 1.209-.858 2.002-2.197 2.002h-2.613V1.55h2.626zm6.791 8.528c1.443 0 2.548-.936 2.834-2.262h-.676c-.26 1.027-1.131 1.664-2.21 1.664-1.469 0-2.392-1.118-2.418-2.652v-.117h5.382c0-.091.013-.195.013-.273-.065-1.963-1.274-3.107-3.042-3.107-1.807 0-3.042 1.378-3.042 3.328 0 2.067 1.287 3.419 3.159 3.419zm-2.418-3.926c.104-1.339 1.105-2.236 2.314-2.236 1.287 0 2.21.793 2.314 2.236h-4.628zm9.839-2.821c-1.235 0-2.106.676-2.522 1.612V.9h-.663V10h.572l.104-1.495c.39.949 1.274 1.573 2.509 1.573 1.807 0 3.107-1.378 3.107-3.38 0-2.067-1.3-3.367-3.107-3.367zm-.052 6.149c-1.469 0-2.483-1.144-2.483-2.795 0-1.612 1.014-2.769 2.483-2.769s2.483 1.157 2.483 2.782c0 1.638-1.014 2.782-2.483 2.782zm10.269-.091c-.39 0-.585-.13-.585-.637V5.684c0-1.508-.923-2.353-2.574-2.353-1.508 0-2.509.728-2.678 1.924h.663c.169-.806.871-1.339 1.989-1.339 1.235 0 1.937.65 1.937 1.742v.572h-2.236c-1.69 0-2.6.728-2.6 1.963 0 1.17.923 1.885 2.327 1.885 1.339 0 2.132-.611 2.535-1.43v.234c-.026.78.299 1.118 1.079 1.118h.39v-.611h-.247zm-1.248-2.054c0 1.261-.897 2.171-2.457 2.171-1.053 0-1.703-.533-1.703-1.352 0-.871.65-1.352 1.872-1.352h2.288v.533zm2.876 1.131c0 1.053.429 1.534 1.547 1.534h.962v-.611h-.91c-.689 0-.936-.26-.936-.936V4.02h1.781v-.611h-1.781V1.563h-.663v1.846h-1.248v.611h1.248v4.446zm6.227 1.612c1.443 0 2.548-.936 2.834-2.262h-.676c-.26 1.027-1.131 1.664-2.21 1.664-1.469 0-2.392-1.118-2.418-2.652v-.117h5.382c0-.091.013-.195.013-.273-.065-1.963-1.274-3.107-3.042-3.107-1.807 0-3.042 1.378-3.042 3.328 0 2.067 1.287 3.419 3.159 3.419zm-2.418-3.926c.104-1.339 1.105-2.236 2.314-2.236 1.287 0 2.21.793 2.314 2.236h-4.628zM.897 22.243c0 2.535 1.079 3.835 3.315 3.835 2.249 0 3.341-1.3 3.341-3.835V16.9h-.702v5.382c0 2.093-.806 3.146-2.639 3.146-1.807 0-2.613-1.053-2.613-3.146V16.9H.897v5.343zm11.523-2.912c-1.235 0-2.093.663-2.509 1.586l-.104-1.508h-.572V28.6h.663v-4.121c.377.962 1.274 1.599 2.522 1.599 1.807 0 3.107-1.378 3.107-3.38 0-2.067-1.3-3.367-3.107-3.367zm-.052 6.149c-1.469 0-2.483-1.144-2.483-2.795 0-1.612 1.014-2.769 2.483-2.769 1.47 0 2.483 1.157 2.483 2.782 0 1.638-1.014 2.782-2.483 2.782zm8.47-1.014c0 1.053.428 1.534 1.546 1.534h.962v-.611h-.91c-.689 0-.936-.26-.936-.936V20.02h1.782v-.611H21.5v-1.846h-.663v1.846H19.59v.611h1.247v4.446zm6.226 1.612c1.86 0 3.172-1.378 3.172-3.38 0-1.989-1.313-3.367-3.172-3.367-1.859 0-3.159 1.378-3.159 3.367 0 2.002 1.3 3.38 3.16 3.38zm0-.598c-1.469 0-2.483-1.144-2.483-2.782 0-1.625 1.014-2.782 2.483-2.782 1.47 0 2.483 1.157 2.483 2.782 0 1.638-1.014 2.782-2.483 2.782zm14.363-1.976c0-1.729-1.534-2.171-3.042-2.431-1.39-.234-2.6-.468-2.6-1.768 0-1.183.923-1.846 2.353-1.846 1.365 0 2.301.767 2.457 1.95h.715c-.117-1.43-1.13-2.418-2.743-2.574v-1.339h-.624v1.326c-1.742.065-2.86 1.027-2.86 2.522 0 1.729 1.482 2.119 2.938 2.366 1.43.247 2.704.533 2.704 1.859 0 1.17-.988 1.872-2.457 1.872-1.534 0-2.574-.884-2.665-2.236h-.728c.091 1.625 1.21 2.756 3.068 2.86v1.326h.624v-1.326c1.73-.104 2.86-1.118 2.86-2.561zm2.791-5.447c0 .416-.195.702-.598.702h-1.56v.611h1.56c.273 0 .468-.078.585-.221V26h.676v-9.1h-.663v1.157zM46.116 26h6.07v-.624h-5.134l3.029-2.73c1.053-.949 1.989-1.82 1.989-3.198 0-1.599-1.105-2.626-2.951-2.626-1.768 0-2.912 1.144-2.912 2.86v.221h.676v-.182c0-1.417.87-2.288 2.236-2.288 1.378 0 2.262.767 2.262 2.054 0 1.144-.871 1.937-1.73 2.717l-3.535 3.211V26zm7.534-.91c-.351 0-.572.221-.572.507 0 .312.208.468.455.468.13 0 .26-.052.325-.156a.469.469 0 01.117.338c0 .494-.312 1.001-.975 1.027v.39c.897-.039 1.456-.637 1.456-1.495 0-.598-.338-1.079-.806-1.079zm1.31-3.432c0 2.665 1.313 4.42 3.289 4.42 1.95 0 3.276-1.755 3.276-4.42v-.416c0-2.587-1.326-4.42-3.276-4.42-1.976 0-3.29 1.833-3.29 4.42v.416zm5.876-.026c0 2.314-1.027 3.822-2.587 3.822-1.573 0-2.6-1.508-2.6-3.822v-.364c0-2.314 1.027-3.822 2.6-3.822 1.56 0 2.587 1.508 2.587 3.822v.364zm1.932.026c0 2.665 1.313 4.42 3.289 4.42 1.95 0 3.276-1.755 3.276-4.42v-.416c0-2.587-1.326-4.42-3.276-4.42-1.976 0-3.29 1.833-3.29 4.42v.416zm5.876-.026c0 2.314-1.027 3.822-2.587 3.822-1.573 0-2.6-1.508-2.6-3.822v-.364c0-2.314 1.027-3.822 2.6-3.822 1.56 0 2.587 1.508 2.587 3.822v.364zm1.931.026c0 2.665 1.313 4.42 3.29 4.42 1.95 0 3.275-1.755 3.275-4.42v-.416c0-2.587-1.326-4.42-3.276-4.42-1.976 0-3.289 1.833-3.289 4.42v.416zm5.876-.026c0 2.314-1.027 3.822-2.587 3.822-1.573 0-2.6-1.508-2.6-3.822v-.364c0-2.314 1.027-3.822 2.6-3.822 1.56 0 2.587 1.508 2.587 3.822v.364zm8.465 4.446c1.495 0 2.548-.858 2.808-2.197h-.702c-.221.975-1.014 1.599-2.106 1.599-1.443 0-2.444-1.131-2.444-2.769 0-1.638.988-2.795 2.444-2.795 1.105 0 1.885.624 2.119 1.612h.689c-.273-1.365-1.3-2.197-2.795-2.197-1.86 0-3.133 1.378-3.133 3.38 0 2.028 1.26 3.367 3.12 3.367zm9.894-.689c-.39 0-.585-.13-.585-.637v-3.068c0-1.508-.923-2.353-2.574-2.353-1.508 0-2.509.728-2.678 1.924h.663c.17-.806.871-1.339 1.99-1.339 1.234 0 1.936.65 1.936 1.742v.572h-2.236c-1.69 0-2.6.728-2.6 1.963 0 1.17.923 1.885 2.327 1.885 1.34 0 2.132-.611 2.535-1.43v.234c-.026.78.3 1.118 1.08 1.118h.39v-.611h-.248zm-1.248-2.054c0 1.261-.897 2.171-2.457 2.171-1.053 0-1.703-.533-1.703-1.352 0-.871.65-1.352 1.872-1.352h2.288v.533zm2.083.637c.052 1.365 1.157 2.106 2.808 2.106 1.417 0 2.561-.715 2.561-1.885 0-1.391-1.222-1.664-2.639-1.859-1.027-.143-1.937-.26-1.937-1.183 0-.754.741-1.248 1.86-1.248 1.052 0 1.806.507 1.923 1.365h.676c-.117-1.287-1.17-1.937-2.6-1.937-1.469-.013-2.522.741-2.522 1.872 0 1.326 1.222 1.573 2.574 1.755 1.105.156 2.002.299 2.002 1.274 0 .78-.819 1.274-1.898 1.274-1.26 0-2.08-.585-2.132-1.534h-.676zm9.676-4.641c-1.235 0-2.002.689-2.379 1.638V16.9h-.663V26h.663v-3.25c0-1.716.871-2.808 2.275-2.808 1.261 0 2.041.832 2.041 2.392V26h.663v-3.692c0-2.08-1.105-2.977-2.6-2.977zm13.72 3.25v-.559h-6.058v.559h6.058zm8.179-3.25c-1.209 0-1.989.624-2.366 1.482l-.104-1.404h-.572V26h.663v-3.25c0-1.716.871-2.808 2.275-2.808 1.274 0 2.041.832 2.041 2.392V26h.663v-3.692c0-2.08-1.105-2.977-2.6-2.977zm6.878 6.747c1.859 0 3.172-1.378 3.172-3.38 0-1.989-1.313-3.367-3.172-3.367-1.859 0-3.159 1.378-3.159 3.367 0 2.002 1.3 3.38 3.159 3.38zm0-.598c-1.469 0-2.483-1.144-2.483-2.782 0-1.625 1.014-2.782 2.483-2.782s2.483 1.157 2.483 2.782c0 1.638-1.014 2.782-2.483 2.782zm15.352-6.149c-1.209 0-1.989.676-2.366 1.651-.312-1.092-1.131-1.651-2.171-1.651-1.131 0-1.807.663-2.145 1.482l-.104-1.404h-.572V26h.663v-3.354c0-1.612.78-2.704 2.041-2.704 1.144 0 1.859.806 1.859 2.327V26h.663v-3.588c.039-1.508.819-2.47 2.054-2.47 1.144 0 1.833.767 1.833 2.262V26h.676v-3.822c0-1.989-1.053-2.847-2.431-2.847zm4.24-1.313c.26 0 .468-.195.468-.468a.458.458 0 00-.468-.468.458.458 0 00-.468.468c0 .273.208.468.468.468zM153.352 26h.663v-6.591h-.663V26zm5.264-6.669c-1.209 0-1.989.624-2.366 1.482l-.104-1.404h-.572V26h.663v-3.25c0-1.716.871-2.808 2.275-2.808 1.274 0 2.041.832 2.041 2.392V26h.663v-3.692c0-2.08-1.105-2.977-2.6-2.977zm4.405-1.313c.26 0 .468-.195.468-.468a.458.458 0 00-.468-.468.458.458 0 00-.468.468c0 .273.208.468.468.468zM162.683 26h.663v-6.591h-.663V26zm9.58-6.669c-1.209 0-1.989.676-2.366 1.651-.312-1.092-1.131-1.651-2.171-1.651-1.131 0-1.807.663-2.145 1.482l-.104-1.404h-.572V26h.663v-3.354c0-1.612.78-2.704 2.041-2.704 1.144 0 1.859.806 1.859 2.327V26h.663v-3.588c.039-1.508.819-2.47 2.054-2.47 1.144 0 1.833.767 1.833 2.262V26h.676v-3.822c0-1.989-1.053-2.847-2.431-2.847zm8.687 3.315c0 1.729-.858 2.821-2.223 2.821-1.222 0-1.976-.832-1.976-2.405v-3.653h-.663v3.692c0 2.067 1.079 2.977 2.535 2.977 1.17 0 1.937-.624 2.314-1.469l.091 1.391h.585v-6.591h-.663v3.237zm9.582-3.315c-1.209 0-1.989.676-2.366 1.651-.312-1.092-1.131-1.651-2.171-1.651-1.131 0-1.807.663-2.145 1.482l-.104-1.404h-.572V26h.663v-3.354c0-1.612.78-2.704 2.041-2.704 1.144 0 1.859.806 1.859 2.327V26h.663v-3.588c.039-1.508.819-2.47 2.054-2.47 1.144 0 1.833.767 1.833 2.262V26h.676v-3.822c0-1.989-1.053-2.847-2.431-2.847zm3.603 4.641c.052 1.365 1.157 2.106 2.808 2.106 1.417 0 2.561-.715 2.561-1.885 0-1.391-1.222-1.664-2.639-1.859-1.027-.143-1.937-.26-1.937-1.183 0-.754.741-1.248 1.859-1.248 1.053 0 1.807.507 1.924 1.365h.676c-.117-1.287-1.17-1.937-2.6-1.937-1.469-.013-2.522.741-2.522 1.872 0 1.326 1.222 1.573 2.574 1.755 1.105.156 2.002.299 2.002 1.274 0 .78-.819 1.274-1.898 1.274-1.261 0-2.08-.585-2.132-1.534h-.676zm6.442 1.599a.47.47 0 00.494.494.47.47 0 00.494-.494c0-.299-.208-.481-.494-.481-.286 0-.494.182-.494.481z" fill="#000"/></svg>