<svg width="183" height="33" viewBox="0 0 183 33" fill="none" xmlns="http://www.w3.org/2000/svg"><rect width="183" height="33" rx="16.5" fill="#000"/><path d="M23.224 22h1.566v-5.508h5.184v-1.44H24.79V10.84h6.264V9.4h-7.83V22zm15.245-4.59c0 2.07-1.008 3.348-2.682 3.348-1.53 0-2.394-1.008-2.394-2.916V12.82h-1.476v5.112c0 3.042 1.602 4.176 3.618 4.176 1.512 0 2.394-.648 2.934-1.332L38.667 22h1.278v-9.18H38.47v4.59zm7.988-4.698c-1.548 0-2.484.648-3.024 1.35l-.198-1.242h-1.278V22h1.476v-4.59c0-2.07 1.044-3.348 2.772-3.348 1.602 0 2.484 1.008 2.484 2.916V22h1.476v-5.112c0-3.042-1.638-4.176-3.708-4.176zm12.72 1.512c-.557-.882-1.601-1.512-3.15-1.512-2.537 0-4.41 1.89-4.41 4.698 0 2.988 1.873 4.698 4.41 4.698 1.549 0 2.539-.738 3.15-1.584L59.377 22h1.278V9.4h-1.476v4.824zm-3.005 6.57c-1.818 0-3.042-1.386-3.042-3.384s1.224-3.384 3.042-3.384c1.8 0 3.024 1.404 3.024 3.42 0 1.962-1.224 3.348-3.024 3.348zm21.445-8.082c-1.638 0-2.628.756-3.186 1.746-.522-1.17-1.62-1.746-2.898-1.746-1.422 0-2.196.702-2.682 1.368l-.198-1.26h-1.278V22h1.476v-4.842c0-1.836.918-3.096 2.43-3.096 1.404 0 2.214.936 2.214 2.736V22h1.476v-4.914c0-1.872.936-3.024 2.466-3.024 1.386 0 2.178.936 2.178 2.736V22h1.476v-5.292c0-2.898-1.566-3.996-3.474-3.996zm7.698 9.342l-.45 1.116c-.342.864-.486 1.08-1.332 1.08h-1.314v1.35h1.764c1.296 0 1.638-.576 2.214-2.052l4.23-10.728H88.86l-2.736 7.326-2.826-7.326h-1.566l3.582 9.234zm19.041-1.404c-.414 0-.594-.126-.594-.612v-4.014c0-2.142-1.35-3.312-3.69-3.312-2.213 0-3.672 1.062-3.888 2.862h1.477c.18-.936 1.043-1.548 2.339-1.548 1.44 0 2.286.72 2.286 1.908v.63h-2.7c-2.412 0-3.69 1.026-3.69 2.862 0 1.674 1.368 2.682 3.385 2.682 1.583 0 2.501-.702 3.077-1.53.018.9.432 1.422 1.656 1.422h.81v-1.35h-.468zm-2.07-2.394c0 1.53-1.062 2.592-2.898 2.592-1.224 0-1.998-.612-1.998-1.512 0-1.044.739-1.53 2.052-1.53h2.844v.45zm7.69 3.852c2.232 0 3.726-1.26 4.086-3.24h-1.566c-.288 1.17-1.188 1.926-2.502 1.926-1.764 0-2.952-1.368-2.952-3.366s1.188-3.402 2.952-3.402c1.35 0 2.25.738 2.52 1.962h1.548c-.378-2.016-1.8-3.276-4.05-3.276-2.664 0-4.482 1.908-4.482 4.716 0 2.862 1.764 4.68 4.446 4.68zm9.826 0c2.232 0 3.726-1.26 4.086-3.24h-1.566c-.288 1.17-1.188 1.926-2.502 1.926-1.764 0-2.952-1.368-2.952-3.366s1.188-3.402 2.952-3.402c1.35 0 2.25.738 2.52 1.962h1.548c-.378-2.016-1.8-3.276-4.05-3.276-2.664 0-4.482 1.908-4.482 4.716 0 2.862 1.764 4.68 4.446 4.68zm9.934 0c2.682 0 4.554-1.908 4.554-4.698 0-2.79-1.872-4.698-4.554-4.698-2.682 0-4.554 1.908-4.554 4.698 0 2.79 1.872 4.698 4.554 4.698zm0-1.314c-1.818 0-3.042-1.422-3.042-3.384s1.224-3.384 3.042-3.384c1.818 0 3.042 1.422 3.042 3.384s-1.224 3.384-3.042 3.384zm12.673-3.384c0 2.07-1.008 3.348-2.682 3.348-1.53 0-2.394-1.008-2.394-2.916V12.82h-1.476v5.112c0 3.042 1.602 4.176 3.618 4.176 1.512 0 2.394-.648 2.934-1.332l.198 1.224h1.278v-9.18h-1.476v4.59zm7.988-4.698c-1.548 0-2.484.648-3.024 1.35l-.198-1.242h-1.278V22h1.476v-4.59c0-2.07 1.044-3.348 2.772-3.348 1.602 0 2.484 1.008 2.484 2.916V22h1.476v-5.112c0-3.042-1.638-4.176-3.708-4.176zm6.274 6.894c0 1.62.63 2.394 2.394 2.394h1.602v-1.35h-1.458c-.792 0-1.062-.288-1.062-1.062V14.17h2.376v-1.35h-2.376v-2.574h-1.476v2.574h-1.656v1.35h1.656v5.436z" fill="#fff"/></svg>