<svg width="195" height="68" viewBox="0 0 195 68" fill="none" xmlns="http://www.w3.org/2000/svg"><path d="M.24 25h4.025v-8.89H9.9c5.11 0 8.47-3.08 8.47-7.805C18.37 3.545 15.01.5 9.9.5H.24V25zM9.585 4c2.87 0 4.69 1.645 4.69 4.305 0 2.625-1.855 4.305-4.725 4.305H4.265V4h5.32zm26.816 17.71c-.77 0-1.155-.245-1.155-1.155V13.38c0-4.235-2.73-6.51-7.49-6.51-4.515 0-7.525 2.17-7.91 5.67h3.71c.28-1.575 1.785-2.625 4.025-2.625 2.485 0 3.92 1.225 3.92 3.22v1.085h-4.515c-5.005 0-7.665 2.065-7.665 5.74 0 3.325 2.73 5.25 6.65 5.25 2.905 0 4.725-1.26 5.915-3.08 0 1.785.84 2.87 3.29 2.87h1.995v-3.29h-.77zm-4.9-4.06c-.035 2.765-1.855 4.62-5.005 4.62-2.065 0-3.325-1.05-3.325-2.555 0-1.82 1.295-2.695 3.64-2.695h4.69v.63zm12.157 7.455l-.7 1.75c-.56 1.47-.91 1.82-2.38 1.82h-2.66V32h4.06c2.625 0 3.395-1.295 4.515-4.2l8.12-20.72h-4.025l-4.865 13.615L40.718 7.08h-4.025l6.965 18.025zm21.227-9.94h3.08c.105 2.31-.805 4.62-2.52 6.475V25h18.48v-3.535l-14.28-.07c1.575-1.715 2.485-4.27 2.205-6.23h6.755V12.19H71.5c-.35-1.4-.805-2.73-.805-3.99 0-2.695 1.89-4.48 4.62-4.48 2.94 0 4.515 1.785 4.865 4.655h3.815C83.61 3.335 80.425.29 75.14.29c-4.62 0-8.295 3.115-8.295 7.665 0 1.54.42 2.8.77 4.235h-2.73v2.975zm21.74-1.855c0 7.385 3.956 11.9 9.66 11.9 5.706 0 9.661-4.515 9.661-11.9v-1.12c0-7.105-3.955-11.9-9.66-11.9s-9.66 4.795-9.66 11.9v1.12zm15.401-.14c0 5.495-2.31 8.645-5.74 8.645s-5.74-3.15-5.74-8.645v-.84c0-5.46 2.31-8.645 5.74-8.645s5.74 3.185 5.74 8.645v.84zm24.561 12.04c5.46 0 9.135-3.675 9.135-9.17 0-5.46-3.675-9.17-9.135-9.17s-9.135 3.71-9.135 9.17c0 5.495 3.675 9.17 9.135 9.17zm0-3.22c-3.185 0-5.25-2.485-5.25-5.95 0-3.465 2.065-5.95 5.25-5.95s5.285 2.485 5.285 5.95c0 3.465-2.1 5.95-5.285 5.95zm21.624-15.12c-2.905 0-4.62 1.155-5.74 2.555l-.42-2.345h-3.29V25h3.78v-9.03c0-3.64 1.785-5.845 4.795-5.845 2.835 0 4.27 1.82 4.27 5.215V25h3.815v-9.975c0-5.985-3.255-8.155-7.21-8.155zM.24 67h4.025V56.64h9.59v-3.465h-9.59V46.07h11.62V42.5H.24V67zm25.517.21c5.46 0 9.135-3.675 9.135-9.17 0-5.46-3.675-9.17-9.135-9.17s-9.135 3.71-9.135 9.17c0 5.495 3.675 9.17 9.135 9.17zm0-3.22c-3.185 0-5.25-2.485-5.25-5.95 0-3.465 2.065-5.95 5.25-5.95s5.285 2.485 5.285 5.95c0 3.465-2.1 5.95-5.285 5.95zm21.24-14.91c-2.94 0-4.376 1.19-5.286 2.695l-.42-2.695h-3.36V67h3.78v-8.995c0-2.765 1.085-5.39 4.445-5.39h1.68V49.08h-.84zm10.821 18.13c4.445 0 7.455-2.695 8.085-6.23h-3.78c-.525 1.995-2.205 3.15-4.515 3.15-2.975 0-4.9-1.995-5.005-5.04v-.245h13.51c.07-.49.105-.98.105-1.435-.105-5.25-3.57-8.54-8.75-8.54-5.285 0-8.82 3.675-8.82 9.205 0 5.495 3.535 9.135 9.17 9.135zm-5.075-11.13c.28-2.555 2.345-4.165 4.76-4.165 2.625 0 4.48 1.505 4.795 4.165h-9.555zM66.599 67h4.165l4.725-6.51 4.69 6.51h4.41l-6.755-9.17 6.37-8.75h-4.165l-4.375 6.055-4.27-6.055h-4.41l6.335 8.75-6.72 9.17zm30.083-4.865c0 3.255 1.47 4.865 4.9 4.865h3.5v-3.325h-2.66c-1.435 0-1.925-.525-1.925-1.925v-9.345h4.375V49.08h-4.375v-5.005h-3.815v5.005h-3.115v3.325h3.115v9.73zm19.87-13.055c-2.94 0-4.375 1.19-5.285 2.695l-.42-2.695h-3.36V67h3.78v-8.995c0-2.765 1.085-5.39 4.445-5.39h1.68V49.08h-.84zm19.004 14.63c-.77 0-1.155-.245-1.155-1.155V55.38c0-4.235-2.73-6.51-7.49-6.51-4.515 0-7.525 2.17-7.91 5.67h3.71c.28-1.575 1.785-2.625 4.025-2.625 2.485 0 3.92 1.225 3.92 3.22v1.085h-4.515c-5.005 0-7.665 2.065-7.665 5.74 0 3.325 2.73 5.25 6.65 5.25 2.905 0 4.725-1.26 5.915-3.08 0 1.785.84 2.87 3.29 2.87h1.995v-3.29h-.77zm-4.9-4.06c-.035 2.765-1.855 4.62-5.005 4.62-2.065 0-3.325-1.05-3.325-2.555 0-1.82 1.295-2.695 3.64-2.695h4.69v.63zm21.208-8.085c-1.155-1.575-3.08-2.695-5.81-2.695-4.865 0-8.47 3.64-8.47 9.17 0 5.74 3.605 9.17 8.47 9.17 2.835 0 4.69-1.33 5.845-2.905l.455 2.695h3.29V42.5h-3.78v9.065zm-5.18 12.46c-3.15 0-5.215-2.45-5.215-5.985 0-3.5 2.065-5.95 5.215-5.95s5.215 2.45 5.215 6.02c0 3.465-2.065 5.915-5.215 5.915zm21.158 3.185c4.445 0 7.455-2.695 8.085-6.23h-3.78c-.525 1.995-2.205 3.15-4.515 3.15-2.975 0-4.9-1.995-5.005-5.04v-.245h13.51c.07-.49.105-.98.105-1.435-.105-5.25-3.57-8.54-8.75-8.54-5.285 0-8.82 3.675-8.82 9.205 0 5.495 3.535 9.135 9.17 9.135zm-5.075-11.13c.28-2.555 2.345-4.165 4.76-4.165 2.625 0 4.48 1.505 4.795 4.165h-9.555zm15.659 5.005c.105 3.885 3.395 6.125 8.19 6.125 4.34 0 7.595-2.17 7.595-5.6 0-3.99-3.325-4.83-7.42-5.32-2.59-.28-4.305-.49-4.305-2.17 0-1.435 1.47-2.345 3.71-2.345s3.78 1.155 3.99 2.8h3.71c-.245-3.675-3.36-5.705-7.77-5.705-4.305-.035-7.35 2.17-7.35 5.565 0 3.71 3.22 4.585 7.315 5.075 2.765.35 4.41.49 4.41 2.415 0 1.435-1.54 2.345-3.885 2.345-2.73 0-4.34-1.33-4.48-3.185h-3.71z" fill="#000"/></svg>