<svg width="120" height="28" viewBox="0 0 120 28" fill="none" xmlns="http://www.w3.org/2000/svg"><rect width="120" height="28" rx="14" fill="#000"/><path d="M29.11 19v-1.2h-4.785V8.5H23.02V19h6.09zm4.257.09c1.77 0 3.03-1.125 3.33-2.655h-1.245c-.255.99-1.095 1.56-2.175 1.56-1.455 0-2.37-1.02-2.415-2.475v-.105h5.94c.015-.18.03-.36.03-.525-.06-2.265-1.47-3.63-3.63-3.63s-3.63 1.59-3.63 3.915c0 2.34 1.5 3.915 3.795 3.915zm-2.43-4.695c.12-1.245 1.155-2.055 2.28-2.055 1.275 0 2.175.735 2.295 2.055h-4.575zm14.064 3.48c-.345 0-.495-.105-.495-.51V14.02c0-1.785-1.126-2.76-3.075-2.76-1.845 0-3.06.885-3.24 2.385h1.23c.15-.78.87-1.29 1.95-1.29 1.2 0 1.904.6 1.904 1.59v.525h-2.25c-2.01 0-3.075.855-3.075 2.385 0 1.395 1.14 2.235 2.82 2.235 1.32 0 2.085-.585 2.566-1.275.014.75.36 1.185 1.38 1.185h.675v-1.125H45zm-1.725-1.995c0 1.275-.886 2.16-2.416 2.16-1.02 0-1.664-.51-1.664-1.26 0-.87.614-1.275 1.71-1.275h2.37v.375zm6.6-4.53c-1.365 0-1.95.57-2.31 1.155l-.165-1.155h-1.065V19h1.23v-3.9c0-1.215.435-2.55 2.04-2.55h.615v-1.2h-.345zm5.161-.09c-1.29 0-2.07.54-2.52 1.125l-.165-1.035h-1.065V19h1.23v-3.825c0-1.725.87-2.79 2.31-2.79 1.335 0 2.07.84 2.07 2.43V19h1.23v-4.26c0-2.535-1.365-3.48-3.09-3.48zm17.12 0c-1.366 0-2.19.63-2.656 1.455-.435-.975-1.35-1.455-2.415-1.455-1.185 0-1.83.585-2.235 1.14l-.165-1.05h-1.065V19h1.23v-4.035c0-1.53.765-2.58 2.025-2.58 1.17 0 1.845.78 1.845 2.28V19h1.23v-4.095c0-1.56.78-2.52 2.055-2.52 1.155 0 1.815.78 1.815 2.28V19h1.23v-4.41c0-2.415-1.305-3.33-2.895-3.33zm7.91 7.83c2.234 0 3.794-1.59 3.794-3.915s-1.56-3.915-3.795-3.915-3.795 1.59-3.795 3.915 1.56 3.915 3.795 3.915zm0-1.095c-1.516 0-2.536-1.185-2.536-2.82 0-1.635 1.02-2.82 2.535-2.82 1.515 0 2.535 1.185 2.535 2.82 0 1.635-1.02 2.82-2.535 2.82zm8.745-6.645c-1.365 0-1.95.57-2.31 1.155l-.165-1.155h-1.065V19h1.23v-3.9c0-1.215.435-2.55 2.04-2.55h.615v-1.2h-.345zm4.496 7.74c1.77 0 3.03-1.125 3.33-2.655h-1.245c-.255.99-1.095 1.56-2.175 1.56-1.455 0-2.37-1.02-2.415-2.475v-.105h5.94c.015-.18.03-.36.03-.525-.06-2.265-1.47-3.63-3.63-3.63s-3.63 1.59-3.63 3.915c0 2.34 1.5 3.915 3.795 3.915zm-2.43-4.695c.12-1.245 1.155-2.055 2.28-2.055 1.275 0 2.175.735 2.295 2.055h-4.575z" fill="#fff"/></svg>