<svg width="145" height="45" viewBox="0 0 145 45" fill="none" xmlns="http://www.w3.org/2000/svg"><path d="M.42 2.442h4.536V15h2.415V2.442h4.536V.3H.42v2.142zm17.452 1.806c-1.764 0-2.625.714-3.17 1.617l-.253-1.617h-2.016V15h2.268V9.603c0-1.659.651-3.234 2.667-3.234h1.008V4.248h-.504zm11.403 8.778c-.462 0-.693-.147-.693-.693V8.028c0-2.541-1.638-3.906-4.494-3.906-2.709 0-4.515 1.302-4.746 3.402h2.226c.168-.945 1.071-1.575 2.415-1.575 1.491 0 2.352.735 2.352 1.932v.651h-2.709c-3.003 0-4.599 1.239-4.599 3.444 0 1.995 1.638 3.15 3.99 3.15 1.743 0 2.835-.756 3.549-1.848 0 1.071.504 1.722 1.974 1.722h1.197v-1.974h-.462zm-2.94-2.436c-.021 1.659-1.113 2.772-3.003 2.772-1.239 0-1.995-.63-1.995-1.533 0-1.092.777-1.617 2.184-1.617h2.814v.378zm12.724-4.851c-.693-.945-1.848-1.617-3.486-1.617-2.919 0-5.082 2.184-5.082 5.502 0 3.444 2.163 5.502 5.082 5.502 1.701 0 2.814-.798 3.507-1.743L39.353 15h1.974V.3H39.06v5.439zm-3.108 7.476c-1.89 0-3.129-1.47-3.129-3.591 0-2.1 1.24-3.57 3.13-3.57s3.128 1.47 3.128 3.612c0 2.079-1.239 3.549-3.129 3.549zm12.696 1.911c2.667 0 4.473-1.617 4.85-3.738H51.23c-.315 1.197-1.323 1.89-2.71 1.89-1.784 0-2.94-1.197-3.002-3.024v-.147h8.106a6.16 6.16 0 00.063-.861c-.063-3.15-2.142-5.124-5.25-5.124-3.171 0-5.292 2.205-5.292 5.523 0 3.297 2.12 5.481 5.502 5.481zm-3.045-6.678c.168-1.533 1.407-2.499 2.856-2.499 1.575 0 2.688.903 2.877 2.499h-5.733zm10.312 3.843c-.966 0-1.596.63-1.596 1.428 0 .903.546 1.344 1.239 1.344.252 0 .504-.063.693-.21.021.084.021.189.021.273 0 .735-.525 1.554-1.848 1.575v1.218c2.079-.021 3.381-1.176 3.381-3.213 0-1.344-.735-2.415-1.89-2.415zM65.164 15h2.415V.3h-2.415V15zM82.41 4.122c-1.764 0-2.982.777-3.675 1.953-.651-1.386-1.911-1.953-3.318-1.953-1.617.021-2.541.735-3.15 1.533l-.252-1.407H70.04V15h2.268V9.246c0-1.911.966-3.171 2.52-3.171 1.49 0 2.268.987 2.268 2.877V15h2.289V9.183c0-1.932.987-3.108 2.54-3.108 1.47 0 2.248.987 2.248 2.877V15h2.268V8.805c0-3.402-1.806-4.683-4.032-4.683zm11.842 0c-1.68 0-2.793.777-3.507 1.722l-.273-1.596h-1.974V19.2h2.268v-5.712c.672.966 1.827 1.638 3.486 1.638 2.94 0 5.082-2.184 5.082-5.502 0-3.444-2.142-5.502-5.082-5.502zm-.378 9.093c-1.89 0-3.13-1.491-3.13-3.633 0-2.079 1.24-3.528 3.13-3.528s3.15 1.449 3.15 3.57c0 2.1-1.26 3.591-3.15 3.591zm12.716-8.967c-1.764 0-2.625.714-3.171 1.617l-.252-1.617h-2.016V15h2.268V9.603c0-1.659.651-3.234 2.667-3.234h1.008V4.248h-.504zm6.472 10.878c3.276 0 5.481-2.205 5.481-5.502 0-3.276-2.205-5.502-5.481-5.502s-5.481 2.226-5.481 5.502c0 3.297 2.205 5.502 5.481 5.502zm0-1.932c-1.911 0-3.15-1.491-3.15-3.57 0-2.079 1.239-3.57 3.15-3.57 1.911 0 3.171 1.491 3.171 3.57 0 2.079-1.26 3.57-3.171 3.57zM122.772 15h2.772l3.969-10.752h-2.394l-2.919 8.316-2.961-8.316h-2.436L122.772 15zm12.5.126c2.667 0 4.473-1.617 4.851-3.738h-2.268c-.315 1.197-1.323 1.89-2.709 1.89-1.785 0-2.94-1.197-3.003-3.024v-.147h8.106a6.16 6.16 0 00.063-.861c-.063-3.15-2.142-5.124-5.25-5.124-3.171 0-5.292 2.205-5.292 5.523 0 3.297 2.121 5.481 5.502 5.481zm-3.045-6.678c.168-1.533 1.407-2.499 2.856-2.499 1.575 0 2.688.903 2.877 2.499h-5.733zm10.312 3.843c-.966 0-1.596.63-1.596 1.428 0 .903.546 1.344 1.239 1.344.252 0 .504-.063.693-.21.021.084.021.189.021.273 0 .735-.525 1.554-1.848 1.575v1.218c2.079-.021 3.381-1.176 3.381-3.213 0-1.344-.735-2.415-1.89-2.415zM1.344 40h2.415v-5.334h3.234L9.828 40h2.688l-3.108-5.859c1.722-.609 2.856-2.184 2.856-4.158 0-2.856-2.058-4.683-5.124-4.683H1.344V40zm5.607-12.6c1.722 0 2.835 1.008 2.835 2.583 0 1.575-1.113 2.583-2.835 2.583H3.759V27.4h3.192zm11.836 12.726c2.667 0 4.473-1.617 4.851-3.738H21.37c-.315 1.197-1.323 1.89-2.709 1.89-1.785 0-2.94-1.197-3.003-3.024v-.147h8.106a6.16 6.16 0 00.063-.861c-.063-3.15-2.142-5.124-5.25-5.124-3.17 0-5.292 2.205-5.292 5.523 0 3.297 2.121 5.481 5.502 5.481zm-3.045-6.678c.168-1.533 1.407-2.499 2.856-2.499 1.575 0 2.688.903 2.877 2.499h-5.733zm15.673-4.326c-1.68 0-2.793.777-3.507 1.722l-.273-1.596H25.66V44.2h2.268v-5.712c.672.966 1.827 1.638 3.486 1.638 2.94 0 5.082-2.184 5.082-5.502 0-3.444-2.142-5.502-5.082-5.502zm-.378 9.093c-1.89 0-3.13-1.491-3.13-3.633 0-2.079 1.24-3.528 3.13-3.528s3.15 1.449 3.15 3.57c0 2.1-1.26 3.591-3.15 3.591zm12.38 1.911c2.667 0 4.473-1.617 4.851-3.738H46c-.315 1.197-1.323 1.89-2.709 1.89-1.785 0-2.94-1.197-3.003-3.024v-.147h8.106a6.16 6.16 0 00.063-.861c-.063-3.15-2.142-5.124-5.25-5.124-3.17 0-5.292 2.205-5.292 5.523 0 3.297 2.121 5.481 5.502 5.481zm-3.045-6.678c.168-1.533 1.407-2.499 2.856-2.499 1.575 0 2.688.903 2.877 2.499h-5.733zm19.747 4.578c-.462 0-.693-.147-.693-.693v-4.305c0-2.541-1.638-3.906-4.494-3.906-2.71 0-4.515 1.302-4.746 3.402h2.226c.168-.945 1.07-1.575 2.415-1.575 1.49 0 2.352.735 2.352 1.932v.651h-2.71c-3.002 0-4.598 1.239-4.598 3.444 0 1.995 1.638 3.15 3.99 3.15 1.743 0 2.835-.756 3.549-1.848 0 1.071.504 1.722 1.974 1.722h1.197v-1.974h-.462zm-2.94-2.436c-.021 1.659-1.113 2.772-3.003 2.772-1.24 0-1.995-.63-1.995-1.533 0-1.092.777-1.617 2.184-1.617h2.814v.378zm5.414 1.491c0 1.953.882 2.919 2.94 2.919h2.1v-1.995h-1.596c-.86 0-1.155-.315-1.155-1.155v-5.607h2.625v-1.995h-2.625v-3.003h-2.289v3.003h-1.869v1.995h1.87v5.838zm6.396 1.617c0 .84.609 1.428 1.449 1.428.84 0 1.47-.588 1.47-1.428s-.63-1.428-1.47-1.428-1.45.588-1.45 1.428zm4.696 0c0 .84.61 1.428 1.45 1.428s1.47-.588 1.47-1.428-.63-1.428-1.47-1.428-1.45.588-1.45 1.428zm4.697 0c0 .84.608 1.428 1.448 1.428s1.47-.588 1.47-1.428-.63-1.428-1.47-1.428-1.448.588-1.448 1.428z" fill="#000"/></svg>