<svg width="130" height="119" viewBox="0 0 130 119" fill="none" xmlns="http://www.w3.org/2000/svg"><path d="M9.51 84.07c0-2.433-1.65-4.225-4.035-4.225-2.386 0-4.036 1.792-4.036 4.225 0 2.434 1.65 4.226 4.036 4.226 2.386 0 4.036-1.792 4.036-4.226zm-6.67 0c0-1.756 1.056-3.026 2.635-3.026 1.579 0 2.635 1.27 2.635 3.026 0 1.757-1.056 3.027-2.635 3.027-1.579 0-2.635-1.27-2.635-3.027zm10.99-1.994c-.95 0-1.579.44-1.982.974l-.155-.903h-1.115V90.6h1.282V87.37c.38.546 1.032.926 1.97.926 1.662 0 2.873-1.235 2.873-3.11 0-1.947-1.211-3.11-2.873-3.11zm-.214 5.14c-1.068 0-1.768-.843-1.768-2.054 0-1.175.7-1.994 1.768-1.994 1.069 0 1.78.82 1.78 2.018 0 1.187-.711 2.03-1.78 2.03zm6.998 1.08c1.508 0 2.528-.914 2.742-2.113h-1.282c-.178.677-.748 1.068-1.531 1.068-1.01 0-1.662-.676-1.698-1.709v-.083h4.582a3.49 3.49 0 00.036-.487c-.036-1.78-1.211-2.896-2.968-2.896-1.792 0-2.99 1.247-2.99 3.122 0 1.864 1.198 3.098 3.109 3.098zm-1.721-3.775c.095-.866.795-1.412 1.614-1.412.89 0 1.52.51 1.626 1.412h-3.24zm8.811-2.445c-.985 0-1.567.392-1.947.867l-.142-.796h-1.116v6.078h1.282v-3.063c0-1.234.605-1.982 1.626-1.982.962 0 1.448.617 1.448 1.769v3.276h1.294v-3.383c0-2.03-1.104-2.766-2.445-2.766zm12.203 5.033c-.261 0-.392-.083-.392-.392v-2.433c0-1.436-.926-2.208-2.54-2.208-1.531 0-2.552.736-2.682 1.923h1.258c.095-.534.605-.89 1.365-.89.843 0 1.33.415 1.33 1.092v.368h-1.532c-1.697 0-2.6.7-2.6 1.947 0 1.127.926 1.78 2.256 1.78.985 0 1.602-.427 2.006-1.045 0 .606.285.974 1.116.974h.676v-1.116h-.261zm-1.662-1.377c-.012.938-.629 1.567-1.697 1.567-.7 0-1.128-.356-1.128-.867 0-.617.44-.914 1.235-.914h1.59v.214zm5.397.487c.036 1.317 1.151 2.077 2.778 2.077 1.471 0 2.575-.736 2.575-1.9 0-1.352-1.127-1.637-2.516-1.803-.878-.095-1.46-.167-1.46-.736 0-.487.499-.796 1.258-.796.76 0 1.282.392 1.353.95h1.259c-.084-1.246-1.14-1.935-2.636-1.935-1.46-.012-2.492.736-2.492 1.888 0 1.258 1.092 1.554 2.48 1.72.938.12 1.496.167 1.496.82 0 .486-.522.795-1.317.795-.926 0-1.472-.451-1.52-1.08h-1.258zm9.6-4.143c-.95 0-1.58.44-1.983.974l-.154-.903h-1.116V90.6h1.282V87.37c.38.546 1.032.926 1.97.926 1.662 0 2.873-1.235 2.873-3.11 0-1.947-1.211-3.11-2.873-3.11zm-.214 5.14c-1.069 0-1.77-.843-1.77-2.054 0-1.175.701-1.994 1.77-1.994 1.068 0 1.78.82 1.78 2.018 0 1.187-.712 2.03-1.78 2.03zm7.187-5.069c-.997 0-1.484.404-1.792.914l-.143-.914h-1.14v6.078h1.283v-3.05c0-.938.368-1.829 1.507-1.829h.57v-1.199h-.285zm3.67 6.149c1.508 0 2.528-.914 2.742-2.113h-1.282c-.178.677-.748 1.068-1.531 1.068-1.009 0-1.662-.676-1.697-1.709v-.083h4.581c.024-.166.036-.332.036-.487-.036-1.78-1.21-2.896-2.968-2.896-1.792 0-2.99 1.247-2.99 3.122 0 1.864 1.198 3.098 3.11 3.098zm-1.721-3.775c.095-.866.795-1.412 1.614-1.412.89 0 1.52.51 1.626 1.412h-3.24zm11.161 2.588c-.26 0-.392-.083-.392-.392v-2.433c0-1.436-.925-2.208-2.54-2.208-1.53 0-2.552.736-2.682 1.923h1.258c.095-.534.605-.89 1.365-.89.843 0 1.33.415 1.33 1.092v.368h-1.532c-1.697 0-2.6.7-2.6 1.947 0 1.127.927 1.78 2.256 1.78.985 0 1.603-.427 2.006-1.045 0 .606.285.974 1.116.974h.676v-1.116h-.26zm-1.662-1.377c-.011.938-.629 1.567-1.697 1.567-.7 0-1.127-.356-1.127-.867 0-.617.439-.914 1.234-.914h1.59v.214zm7.193-2.742c-.392-.534-1.045-.914-1.97-.914-1.65 0-2.873 1.235-2.873 3.11 0 1.947 1.222 3.11 2.872 3.11.962 0 1.59-.451 1.983-.985l.154.914h1.115v-8.31h-1.281v3.075zm-1.757 4.226c-1.068 0-1.769-.831-1.769-2.03 0-1.187.7-2.018 1.769-2.018 1.068 0 1.769.831 1.769 2.042 0 1.175-.7 2.006-1.77 2.006zM4.88 96.076c-.937 0-1.566.428-1.97.974v-3.134H1.629v8.309h1.116l.154-.879c.38.546 1.033.95 1.982.95 1.662 0 2.873-1.246 2.873-3.11 0-1.958-1.21-3.11-2.873-3.11zm-.213 5.14c-1.069 0-1.769-.843-1.769-2.042 0-1.175.7-2.006 1.769-2.006 1.068 0 1.78.831 1.78 2.018 0 1.199-.712 2.03-1.78 2.03zm6.997 1.08c1.508 0 2.529-.914 2.742-2.113h-1.282c-.178.677-.747 1.068-1.53 1.068-1.01 0-1.663-.676-1.698-1.709v-.083h4.582a3.49 3.49 0 00.035-.487c-.035-1.78-1.21-2.896-2.967-2.896-1.793 0-2.991 1.247-2.991 3.122 0 1.863 1.198 3.098 3.11 3.098zm-1.72-3.775c.094-.866.795-1.412 1.614-1.412.89 0 1.519.51 1.626 1.412h-3.24zm11.541 2.576c-.45 0-.629-.178-.629-.653v-3.169h1.472v-1.128h-1.472V94.45h-1.282v1.697h-2.338V94.45h-1.294v1.697h-1.056v1.128h1.056v3.3c0 1.104.499 1.65 1.662 1.65h1.056v-1.128h-.795c-.463 0-.629-.178-.629-.653v-3.169h2.338v3.3c0 1.104.487 1.65 1.65 1.65h1.235v-1.128h-.974zm2.449-5.804c.439 0 .783-.32.783-.772 0-.45-.344-.771-.783-.771-.44 0-.784.32-.784.771s.345.772.784.772zm-.653 6.932h1.282v-6.078h-1.282v6.078zm5.743-6.149c-.985 0-1.566.392-1.946.867l-.143-.796h-1.115v6.078h1.281v-3.063c0-1.234.606-1.982 1.627-1.982.961 0 1.448.617 1.448 1.769v3.276h1.294v-3.383c0-2.03-1.104-2.766-2.446-2.766zm8.252 1.021c-.391-.605-1.044-1.02-1.994-1.02-1.65 0-2.872 1.222-2.872 3.085 0 1.935 1.222 3.086 2.872 3.086.95 0 1.579-.391 1.983-.997v.677c0 1.163-.63 1.697-1.745 1.697-.902 0-1.496-.391-1.65-1.068h-1.306c.119 1.365 1.247 2.113 2.86 2.113 2.185 0 3.11-1.045 3.11-2.695v-5.828H37.42l-.143.95zm-1.78 4.071c-1.068 0-1.769-.819-1.769-2.006 0-1.175.7-2.006 1.769-2.006 1.068 0 1.769.831 1.769 2.03 0 1.163-.7 1.982-1.769 1.982zm12.883-.059c-.26 0-.391-.083-.391-.392v-2.433c0-1.436-.926-2.208-2.54-2.208-1.532 0-2.552.736-2.683 1.923h1.258c.095-.534.605-.89 1.365-.89.843 0 1.33.415 1.33 1.092v.368h-1.532c-1.697 0-2.6.7-2.6 1.946 0 1.128.927 1.781 2.256 1.781.985 0 1.603-.427 2.006-1.045 0 .606.285.974 1.116.974h.676v-1.116h-.26zm-1.661-1.377c-.012.938-.63 1.567-1.698 1.567-.7 0-1.127-.356-1.127-.867 0-.617.439-.914 1.234-.914h1.59v.214zm5.364 2.564c1.555 0 2.587-.867 2.825-2.243h-1.353c-.155.7-.677 1.151-1.46 1.151-1.033 0-1.71-.819-1.71-2.006 0-1.199.677-2.03 1.71-2.03.795 0 1.305.44 1.471 1.152h1.342c-.25-1.377-1.223-2.244-2.79-2.244-1.84 0-3.05 1.247-3.05 3.122 0 1.899 1.175 3.098 3.015 3.098zm6.595 0c1.555 0 2.588-.867 2.825-2.243H60.15c-.154.7-.676 1.151-1.46 1.151-1.032 0-1.71-.819-1.71-2.006 0-1.199.678-2.03 1.71-2.03.795 0 1.306.44 1.472 1.152h1.341c-.249-1.377-1.222-2.244-2.79-2.244-1.839 0-3.05 1.247-3.05 3.122 0 1.899 1.176 3.098 3.015 3.098zm6.679 0c1.852 0 3.098-1.246 3.098-3.11 0-1.852-1.246-3.11-3.098-3.11-1.852 0-3.098 1.258-3.098 3.11 0 1.864 1.246 3.11 3.098 3.11zm0-1.092c-1.08 0-1.78-.843-1.78-2.018 0-1.175.7-2.018 1.78-2.018s1.792.843 1.792 2.018c0 1.175-.712 2.018-1.792 2.018zm8.295-2.018c0 1.258-.594 1.994-1.567 1.994-.938 0-1.412-.605-1.412-1.792v-3.24H69.39v3.382c0 2.077 1.104 2.766 2.397 2.766.938 0 1.496-.38 1.876-.843l.142.772h1.128v-6.078h-1.282v3.04zm5.75-3.11c-.985 0-1.567.392-1.947.867l-.142-.796h-1.116v6.078h1.282v-3.063c0-1.234.606-1.982 1.626-1.982.962 0 1.448.617 1.448 1.769v3.276h1.294v-3.383c0-2.03-1.104-2.766-2.445-2.766zm4.05 4.499c0 1.104.499 1.65 1.662 1.65h1.187v-1.128h-.902c-.487 0-.653-.178-.653-.653v-3.169h1.484v-1.128h-1.484V94.45h-1.294v1.697h-1.056v1.128h1.056v3.3zm8.407 1.65h.653l1.78-5.057 1.697 5.057h.653l2.137-6.018h-.617L96.31 101.5l-1.721-5.294h-.558l-1.816 5.294-1.757-5.294h-.64l2.04 6.018zm8.075-7.288a.418.418 0 00.428-.428c0-.249-.19-.427-.428-.427a.418.418 0 00-.427.427c0 .25.19.428.427.428zm-.308 7.288h.605v-6.018h-.605v6.018zm2.479-1.401c0 .962.392 1.401 1.413 1.401h.878v-.558h-.831c-.629 0-.854-.238-.854-.855v-4.047h1.626v-.558h-1.626V94.52h-.606v1.686h-1.139v.558h1.139v4.059zm5.99-4.689c-1.128 0-1.828.63-2.173 1.496v-3.715h-.605v8.309h.605v-2.968c0-1.567.796-2.564 2.078-2.564 1.151 0 1.863.76 1.863 2.184v3.348h.605v-3.371c0-1.9-1.008-2.719-2.373-2.719zM5.368 116.296c1.78 0 3.039-.962 3.395-2.635h-.677c-.356 1.329-1.317 2.041-2.73 2.041-1.923 0-3.133-1.507-3.133-3.632 0-2.124 1.234-3.632 3.157-3.632 1.389 0 2.362.724 2.73 2.03h.677c-.368-1.662-1.627-2.623-3.371-2.623-2.339 0-3.858 1.733-3.858 4.225 0 2.517 1.484 4.226 3.81 4.226zm4.94-7.359a.418.418 0 00.428-.428.418.418 0 00-.427-.427.418.418 0 00-.428.427c0 .25.19.428.428.428zM10 116.225h.605v-6.018H10v6.018zm2.48-1.401c0 .962.391 1.401 1.412 1.401h.879v-.558h-.831c-.63 0-.855-.238-.855-.855v-4.047h1.626v-.558h-1.626v-1.686h-.605v1.686h-1.14v.558h1.14v4.059zm5.016 1.401l-.392.973c-.273.665-.38.843-.997.843h-.76v.558h.926c.807 0 .997-.309 1.377-1.259l2.884-7.133h-.652l-2.054 5.234-2.089-5.234h-.653l2.41 6.018zm7.194 0h.64v-8.309h-.64v8.309zm4.988-6.089c-1.104 0-1.816.569-2.16 1.353l-.095-1.282H26.9v6.018h.605v-2.968c0-1.567.795-2.564 2.077-2.564 1.163 0 1.864.76 1.864 2.184v3.348h.605v-3.371c0-1.899-1.009-2.718-2.374-2.718zm8.535 1.424c-.368-.855-1.175-1.424-2.303-1.424-1.65 0-2.836 1.258-2.836 3.074 0 1.899 1.187 3.086 2.836 3.086 1.128 0 1.911-.605 2.291-1.448l.095 1.377h.522v-8.309h-.605v3.644zm-2.255 4.19c-1.341 0-2.267-1.045-2.267-2.54 0-1.484.926-2.54 2.267-2.54 1.341 0 2.267 1.056 2.267 2.552 0 1.483-.926 2.528-2.267 2.528zm6.943.546c1.318 0 2.327-.855 2.588-2.065h-.617c-.238.937-1.033 1.519-2.018 1.519-1.342 0-2.184-1.021-2.208-2.422v-.106h4.914c0-.083.012-.178.012-.25-.06-1.792-1.163-2.836-2.778-2.836-1.65 0-2.777 1.258-2.777 3.038 0 1.887 1.175 3.122 2.884 3.122zm-2.208-3.585c.095-1.222 1.01-2.041 2.113-2.041 1.175 0 2.018.724 2.113 2.041h-4.226zm5.226 3.514h.7l1.994-2.647 1.994 2.647h.736l-2.338-3.075 2.22-2.943h-.689l-1.9 2.492-1.875-2.492h-.724l2.22 2.943-2.338 3.075zm9.855-1.401c0 .962.392 1.401 1.412 1.401h.879v-.558h-.831c-.63 0-.855-.238-.855-.855v-4.047h1.626v-.558H56.38v-1.686h-.605v1.686h-1.14v.558h1.14v4.059zm5.685 1.472c1.697 0 2.896-1.258 2.896-3.086 0-1.816-1.199-3.074-2.896-3.074-1.697 0-2.884 1.258-2.884 3.074 0 1.828 1.187 3.086 2.884 3.086zm0-.546c-1.341 0-2.267-1.045-2.267-2.54 0-1.484.926-2.54 2.267-2.54 1.341 0 2.267 1.056 2.267 2.54 0 1.495-.926 2.54-2.267 2.54zm9.013-4.19c-.368-.855-1.175-1.424-2.302-1.424-1.65 0-2.837 1.258-2.837 3.074 0 1.899 1.187 3.086 2.837 3.086 1.127 0 1.91-.605 2.29-1.448l.095 1.377h.523v-8.309h-.606v3.644zm-2.255 4.19c-1.341 0-2.267-1.045-2.267-2.54 0-1.484.926-2.54 2.267-2.54 1.341 0 2.267 1.056 2.267 2.552 0 1.483-.926 2.528-2.267 2.528zm9.578-.083c-.356 0-.534-.119-.534-.582v-2.801c0-1.377-.843-2.148-2.35-2.148-1.377 0-2.29.664-2.445 1.756h.605c.154-.736.796-1.222 1.816-1.222 1.128 0 1.769.593 1.769 1.59v.522h-2.042c-1.543 0-2.374.665-2.374 1.793 0 1.068.843 1.721 2.125 1.721 1.223 0 1.947-.558 2.315-1.306v.214c-.024.712.273 1.021.985 1.021h.356v-.558h-.226zm-1.14-1.876c0 1.152-.818 1.983-2.243 1.983-.96 0-1.554-.487-1.554-1.235 0-.795.593-1.234 1.709-1.234h2.089v.486zm3.783 2.434l-.392.973c-.273.665-.38.843-.997.843h-.76v.558h.926c.807 0 .997-.309 1.377-1.259l2.884-7.133h-.653l-2.053 5.234-2.09-5.234h-.652l2.41 6.018z" fill="#000"/><path d="M.48 7.008h5.174v14.325h2.755V7.008h5.174V4.564H.479v2.444zm19.908 2.06c-2.012 0-2.995.814-3.617 1.845l-.288-1.845h-2.3v12.265h2.588v-6.156c0-1.893.742-3.69 3.042-3.69h1.15v-2.42h-.575zM33.396 19.08c-.527 0-.79-.167-.79-.79V13.38c0-2.899-1.87-4.456-5.127-4.456-3.09 0-5.15 1.485-5.414 3.881h2.539c.192-1.078 1.222-1.797 2.755-1.797 1.7 0 2.683.839 2.683 2.204v.743h-3.09c-3.426 0-5.247 1.413-5.247 3.929 0 2.276 1.869 3.593 4.552 3.593 1.988 0 3.234-.862 4.048-2.108 0 1.222.575 1.964 2.252 1.964h1.366v-2.252h-.527zm-3.354-2.778c-.024 1.892-1.27 3.162-3.426 3.162-1.413 0-2.276-.719-2.276-1.749 0-1.246.887-1.845 2.492-1.845h3.21v.432zm14.515-5.534c-.79-1.078-2.108-1.845-3.976-1.845-3.33 0-5.798 2.492-5.798 6.277 0 3.928 2.468 6.276 5.798 6.276 1.94 0 3.21-.91 4-1.988l.312 1.844h2.252V4.564h-2.588v6.205zm-3.545 8.528c-2.156 0-3.57-1.677-3.57-4.096 0-2.396 1.414-4.073 3.57-4.073 2.156 0 3.57 1.677 3.57 4.12 0 2.372-1.414 4.05-3.57 4.05zM50.99 7.343c.887 0 1.582-.647 1.582-1.557 0-.91-.695-1.557-1.582-1.557-.886 0-1.58.647-1.58 1.557 0 .91.694 1.557 1.58 1.557zm-1.317 13.99h2.587V9.068h-2.587v12.265zM61.264 8.924c-1.988 0-3.162.79-3.928 1.749l-.288-1.605h-2.252v12.265h2.588v-6.18c0-2.492 1.221-4.001 3.282-4.001 1.94 0 2.922 1.246 2.922 3.57v6.611H66.2v-6.827c0-4.097-2.227-5.582-4.935-5.582zm16.655 2.06c-.79-1.221-2.108-2.06-4.025-2.06-3.33 0-5.797 2.468-5.797 6.229 0 3.905 2.468 6.228 5.797 6.228 1.917 0 3.187-.79 4.001-2.012v1.365c0 2.348-1.27 3.426-3.521 3.426-1.821 0-3.019-.79-3.33-2.156h-2.635c.24 2.755 2.515 4.264 5.773 4.264 4.408 0 6.276-2.108 6.276-5.438V9.068h-2.251l-.288 1.916zm-3.593 8.217c-2.156 0-3.57-1.653-3.57-4.048 0-2.372 1.414-4.049 3.57-4.049 2.156 0 3.57 1.677 3.57 4.097 0 2.347-1.414 4-3.57 4zM4.096 45.333H6.9l2.683-8.336 2.588 8.336h2.778l4.073-12.265h-2.635l-2.899 9.39-2.683-9.39H8.433l-2.803 9.39-2.803-9.39H.096l4 12.265zm17.605-13.99c.886 0 1.58-.647 1.58-1.557 0-.91-.694-1.557-1.58-1.557-.887 0-1.582.647-1.582 1.557 0 .91.695 1.557 1.582 1.557zm-1.318 13.99h2.587V33.068h-2.587v12.265zm6.01-3.33c0 2.228 1.006 3.33 3.354 3.33h2.395v-2.276h-1.82c-.983 0-1.318-.359-1.318-1.317v-6.396h2.994v-2.276h-2.994v-3.426h-2.611v3.426H24.26v2.276h2.132v6.66zm13.84-9.079c-1.917 0-3.091.863-3.858 1.917v-6.277h-2.587v16.77h2.587v-6.205c0-2.468 1.246-3.977 3.282-3.977 1.917 0 2.947 1.246 2.947 3.57v6.611h2.587v-6.827c0-4.097-2.228-5.582-4.959-5.582zm13.015 12.553c3.737 0 6.252-2.515 6.252-6.276 0-3.737-2.515-6.277-6.252-6.277-3.737 0-6.253 2.54-6.253 6.277 0 3.76 2.516 6.276 6.253 6.276zm0-2.204c-2.18 0-3.594-1.7-3.594-4.072s1.414-4.073 3.594-4.073c2.18 0 3.617 1.701 3.617 4.073 0 2.371-1.437 4.072-3.617 4.072zm16.741-4.072c0 2.539-1.198 4.024-3.162 4.024-1.892 0-2.85-1.221-2.85-3.617v-6.54h-2.588v6.827c0 4.193 2.228 5.582 4.84 5.582 1.892 0 3.018-.766 3.784-1.7l.288 1.556h2.275V33.068H69.99V39.2zm6.094 2.803c0 2.227 1.006 3.33 3.354 3.33h2.395v-2.277h-1.82c-.983 0-1.318-.359-1.318-1.317v-6.396h2.994v-2.276h-2.994v-3.426h-2.611v3.426H73.95v2.276h2.132v6.66zm-73.927 24c0 2.227 1.006 3.33 3.354 3.33h2.395v-2.276h-1.82c-.982 0-1.318-.36-1.318-1.318v-6.396h2.995v-2.276H4.767v-3.426H2.156v3.426H.024v2.276h2.132v6.66zm13.84-9.08c-1.917 0-3.09.863-3.857 1.917v-6.277H9.55v16.77h2.588v-6.205c0-2.468 1.245-3.977 3.282-3.977 1.916 0 2.946 1.246 2.946 3.57v6.611h2.587v-6.827c0-4.097-2.227-5.582-4.959-5.582zm13.039 12.553c3.042 0 5.103-1.845 5.534-4.264h-2.587c-.36 1.365-1.51 2.156-3.09 2.156-2.037 0-3.354-1.365-3.426-3.45v-.167h9.247a7.03 7.03 0 00.072-.983c-.072-3.593-2.444-5.845-5.99-5.845-3.617 0-6.036 2.516-6.036 6.3 0 3.762 2.42 6.253 6.276 6.253zm-3.474-7.618c.192-1.749 1.605-2.85 3.258-2.85 1.797 0 3.067 1.03 3.282 2.85h-6.54zm18.33 4.145c0 2.227 1.007 3.33 3.355 3.33h2.395v-2.276h-1.82c-.982 0-1.318-.36-1.318-1.318v-6.396h2.995v-2.276h-2.995v-3.426h-2.611v3.426H41.76v2.276h2.132v6.66zm18.467 1.078c-.527 0-.79-.168-.79-.791V61.38c0-2.899-1.869-4.456-5.127-4.456-3.09 0-5.15 1.485-5.414 3.881h2.54c.191-1.078 1.221-1.797 2.754-1.797 1.701 0 2.683.839 2.683 2.204v.743h-3.09c-3.426 0-5.246 1.413-5.246 3.929 0 2.275 1.868 3.593 4.551 3.593 1.989 0 3.234-.862 4.049-2.108 0 1.222.575 1.964 2.252 1.964h1.365v-2.251h-.527zm-3.354-2.78c-.024 1.893-1.27 3.163-3.425 3.163-1.414 0-2.276-.719-2.276-1.749 0-1.246.886-1.845 2.491-1.845h3.21v.432zm4.02 5.031h2.852l3.234-4.456 3.21 4.456h3.018l-4.623-6.276 4.36-5.99h-2.851l-2.995 4.145-2.922-4.144h-3.019l4.336 5.989-4.6 6.276z" fill="url(#paint0_linear_1248_7126)"/><defs><linearGradient id="paint0_linear_1248_7126" x1="100" y1="42.116" x2="0" y2="42.116" gradientUnits="userSpaceOnUse"><stop stop-color="#FF4343"/><stop offset=".5" stop-color="#9C0B93"/><stop offset="1" stop-color="#4C1BB7"/></linearGradient></defs></svg>