<svg width="307" height="15" viewBox="0 0 307 15" fill="none" xmlns="http://www.w3.org/2000/svg"><path d="M3.525 11.5h.96L7.2 2.335 9.915 11.5h.96L14.085 1h-.84l-2.835 9.435L7.65 1h-.825L3.99 10.435 1.185 1H.33l3.195 10.5zm12.18-9.21c.3 0 .54-.225.54-.54 0-.315-.24-.54-.54-.54-.3 0-.54.225-.54.54 0 .315.24.54.54.54zm-.39 9.21h.764V3.895h-.765V11.5zm3.133-1.77c0 1.215.494 1.77 1.785 1.77h1.11v-.705h-1.05c-.796 0-1.08-.3-1.08-1.08V4.6h2.054v-.705h-2.055v-2.13h-.764v2.13h-1.44V4.6h1.44v5.13zm7.568-5.925c-1.425 0-2.31.795-2.745 1.89V1h-.765v10.5h.765V7.75c0-1.98 1.005-3.24 2.625-3.24 1.455 0 2.355.96 2.355 2.76v4.23h.765V7.24c0-2.4-1.275-3.435-3-3.435zm12.111 7.785c1.665 0 2.94-1.08 3.27-2.61h-.78c-.3 1.185-1.305 1.92-2.55 1.92-1.695 0-2.76-1.29-2.79-3.06v-.135h6.21c0-.105.015-.225.015-.315-.075-2.265-1.47-3.585-3.51-3.585-2.085 0-3.51 1.59-3.51 3.84 0 2.385 1.485 3.945 3.645 3.945zm-2.79-4.53c.12-1.545 1.275-2.58 2.67-2.58 1.485 0 2.55.915 2.67 2.58h-5.34zm6.604 4.44h.885l2.52-3.345 2.52 3.345h.93L45.84 7.615l2.805-3.72h-.87l-2.4 3.15-2.37-3.15h-.915l2.805 3.72L41.94 11.5zm8.513-1.77c0 1.215.495 1.77 1.785 1.77h1.11v-.705H52.3c-.795 0-1.08-.3-1.08-1.08V4.6h2.055v-.705H51.22v-2.13h-.765v2.13h-1.44V4.6h1.44v5.13zm7.185 1.86c1.665 0 2.94-1.08 3.27-2.61h-.78c-.3 1.185-1.305 1.92-2.55 1.92-1.695 0-2.76-1.29-2.79-3.06v-.135h6.21c0-.105.015-.225.015-.315-.075-2.265-1.47-3.585-3.51-3.585-2.085 0-3.51 1.59-3.51 3.84 0 2.385 1.485 3.945 3.645 3.945zm-2.79-4.53c.12-1.545 1.275-2.58 2.67-2.58 1.485 0 2.55.915 2.67 2.58h-5.34zm11.187-3.255c-1.395 0-2.295.72-2.73 1.71l-.12-1.62h-.66V11.5h.765V7.75c0-1.98 1.005-3.24 2.625-3.24 1.47 0 2.355.96 2.355 2.76v4.23h.765V7.24c0-2.4-1.275-3.435-3-3.435zm10.786 1.8c-.465-1.08-1.485-1.8-2.91-1.8-2.085 0-3.585 1.59-3.585 3.885 0 2.4 1.5 3.9 3.585 3.9 1.425 0 2.415-.765 2.895-1.83l.12 1.74h.66V1h-.765v4.605zm-2.85 5.295c-1.695 0-2.865-1.32-2.865-3.21 0-1.875 1.17-3.21 2.865-3.21 1.695 0 2.865 1.335 2.865 3.225 0 1.875-1.17 3.195-2.865 3.195zm8.774.69c1.665 0 2.94-1.08 3.27-2.61h-.78c-.3 1.185-1.305 1.92-2.55 1.92-1.695 0-2.76-1.29-2.79-3.06v-.135h6.21c0-.105.015-.225.015-.315-.075-2.265-1.47-3.585-3.51-3.585-2.085 0-3.51 1.59-3.51 3.84 0 2.385 1.485 3.945 3.645 3.945zm-2.79-4.53c.12-1.545 1.275-2.58 2.67-2.58 1.485 0 2.55.915 2.67 2.58h-5.34zm13.887-1.455c-.465-1.08-1.485-1.8-2.91-1.8-2.085 0-3.585 1.59-3.585 3.885 0 2.4 1.5 3.9 3.585 3.9 1.425 0 2.415-.765 2.895-1.83l.12 1.74h.66V1h-.765v4.605zm-2.85 5.295c-1.695 0-2.865-1.32-2.865-3.21 0-1.875 1.17-3.21 2.865-3.21 1.695 0 2.865 1.335 2.865 3.225 0 1.875-1.17 3.195-2.865 3.195zm12.968-7.095c-1.425 0-2.31.795-2.745 1.89V1h-.765v10.5h.765V7.75c0-1.98 1.005-3.24 2.625-3.24 1.455 0 2.355.96 2.355 2.76v4.23h.765V7.24c0-2.4-1.275-3.435-3-3.435zm7.95 7.785c2.145 0 3.66-1.59 3.66-3.9 0-2.295-1.515-3.885-3.66-3.885-2.145 0-3.645 1.59-3.645 3.885 0 2.31 1.5 3.9 3.645 3.9zm0-.69c-1.695 0-2.865-1.32-2.865-3.21 0-1.875 1.17-3.21 2.865-3.21 1.695 0 2.865 1.335 2.865 3.21 0 1.89-1.17 3.21-2.865 3.21zm10.7-3.27c0 1.995-.99 3.255-2.565 3.255-1.41 0-2.28-.96-2.28-2.775V3.895h-.765v4.26c0 2.385 1.245 3.435 2.925 3.435 1.35 0 2.235-.72 2.67-1.695l.105 1.605h.675V3.895h-.765V7.63zm5.671-3.735c-1.41 0-2.01.675-2.325 1.515l-.12-1.515h-.66V11.5h.765V7.645c0-1.545.405-3.015 2.19-3.015h.555v-.735h-.405zm1.003 5.265c.06 1.575 1.335 2.43 3.24 2.43 1.635 0 2.955-.825 2.955-2.175 0-1.605-1.41-1.92-3.045-2.145-1.185-.165-2.235-.3-2.235-1.365 0-.87.855-1.44 2.145-1.44 1.215 0 2.085.585 2.22 1.575h.78c-.135-1.485-1.35-2.235-3-2.235-1.695-.015-2.91.855-2.91 2.16 0 1.53 1.41 1.815 2.97 2.025 1.275.18 2.31.345 2.31 1.47 0 .9-.945 1.47-2.19 1.47-1.455 0-2.4-.675-2.46-1.77h-.78zm15.058 2.43c2.145 0 3.66-1.59 3.66-3.9 0-2.295-1.515-3.885-3.66-3.885-2.145 0-3.645 1.59-3.645 3.885 0 2.31 1.5 3.9 3.645 3.9zm0-.69c-1.695 0-2.865-1.32-2.865-3.21 0-1.875 1.17-3.21 2.865-3.21 1.695 0 2.865 1.335 2.865 3.21 0 1.89-1.17 3.21-2.865 3.21zm8.69-7.095c-1.395 0-2.295.72-2.73 1.71l-.12-1.62h-.66V11.5h.765V7.75c0-1.98 1.005-3.24 2.625-3.24 1.47 0 2.355.96 2.355 2.76v4.23h.765V7.24c0-2.4-1.275-3.435-3-3.435zm17.226 0c-1.395 0-2.295.78-2.73 1.905-.36-1.26-1.305-1.905-2.505-1.905-1.305 0-2.085.765-2.475 1.71l-.12-1.62h-.66V11.5h.765V7.63c0-1.86.9-3.12 2.355-3.12 1.32 0 2.145.93 2.145 2.685V11.5h.765V7.36c.045-1.74.945-2.85 2.37-2.85 1.32 0 2.115.885 2.115 2.61v4.38h.78V7.09c0-2.295-1.215-3.285-2.805-3.285zm11.193 6.99c-.45 0-.675-.15-.675-.735V6.52c0-1.74-1.065-2.715-2.97-2.715-1.74 0-2.895.84-3.09 2.22h.765c.195-.93 1.005-1.545 2.295-1.545 1.425 0 2.235.75 2.235 2.01v.66h-2.58c-1.95 0-3 .84-3 2.265 0 1.35 1.065 2.175 2.685 2.175 1.545 0 2.46-.705 2.925-1.65v.27c-.03.9.345 1.29 1.245 1.29h.45v-.705h-.285zm-1.44-2.37c0 1.455-1.035 2.505-2.835 2.505-1.215 0-1.965-.615-1.965-1.56 0-1.005.75-1.56 2.16-1.56h2.64v.615zm3.213-6.135c.3 0 .54-.225.54-.54 0-.315-.24-.54-.54-.54-.3 0-.54.225-.54.54 0 .315.24.54.54.54zM180.9 14.5h.93c1.275 0 1.785-.555 1.785-1.77V3.895h-.765v8.85c0 .75-.285 1.05-1.05 1.05h-.9v.705zm7.872-2.91c2.145 0 3.66-1.59 3.66-3.9 0-2.295-1.515-3.885-3.66-3.885-2.145 0-3.645 1.59-3.645 3.885 0 2.31 1.5 3.9 3.645 3.9zm0-.69c-1.695 0-2.865-1.32-2.865-3.21 0-1.875 1.17-3.21 2.865-3.21 1.695 0 2.865 1.335 2.865 3.21 0 1.89-1.17 3.21-2.865 3.21zm8.285-7.005c-1.41 0-2.01.675-2.325 1.515l-.12-1.515h-.66V11.5h.765V7.645c0-1.545.405-3.015 2.19-3.015h.555v-.735h-.405zm5.716 3.27c0 2.925 1.245 4.425 3.825 4.425 2.595 0 3.855-1.5 3.855-4.425V1h-.81v6.21c0 2.415-.93 3.63-3.045 3.63-2.085 0-3.015-1.215-3.015-3.63V1h-.81v6.165zm9.411 1.11c.105 1.98 1.545 3.315 3.9 3.315 2.205 0 3.66-1.2 3.66-2.97 0-1.995-1.77-2.505-3.51-2.805-1.605-.27-3-.54-3-2.04 0-1.365 1.065-2.13 2.715-2.13 1.575 0 2.655.885 2.835 2.25h.825c-.15-1.8-1.515-2.985-3.66-2.985-2.13 0-3.525 1.125-3.525 2.91 0 1.995 1.71 2.445 3.39 2.73 1.65.285 3.12.615 3.12 2.145 0 1.35-1.14 2.16-2.835 2.16-1.77 0-2.97-1.02-3.075-2.58h-.84zm12.858.885c.06 1.575 1.335 2.43 3.24 2.43 1.635 0 2.955-.825 2.955-2.175 0-1.605-1.41-1.92-3.045-2.145-1.185-.165-2.235-.3-2.235-1.365 0-.87.855-1.44 2.145-1.44 1.215 0 2.085.585 2.22 1.575h.78c-.135-1.485-1.35-2.235-3-2.235-1.695-.015-2.91.855-2.91 2.16 0 1.53 1.41 1.815 2.97 2.025 1.275.18 2.31.345 2.31 1.47 0 .9-.945 1.47-2.19 1.47-1.455 0-2.4-.675-2.46-1.77h-.78zm11.165-5.355c-1.425 0-2.31.795-2.745 1.89V1h-.765v10.5h.765V7.75c0-1.98 1.005-3.24 2.625-3.24 1.455 0 2.355.96 2.355 2.76v4.23h.765V7.24c0-2.4-1.275-3.435-3-3.435zm11.398 6.99c-.45 0-.675-.15-.675-.735V6.52c0-1.74-1.065-2.715-2.97-2.715-1.74 0-2.895.84-3.09 2.22h.765c.195-.93 1.005-1.545 2.295-1.545 1.425 0 2.235.75 2.235 2.01v.66h-2.58c-1.95 0-3 .84-3 2.265 0 1.35 1.065 2.175 2.685 2.175 1.545 0 2.46-.705 2.925-1.65v.27c-.03.9.345 1.29 1.245 1.29h.45v-.705h-.285zm-1.44-2.37c0 1.455-1.035 2.505-2.835 2.505-1.215 0-1.965-.615-1.965-1.56 0-1.005.75-1.56 2.16-1.56h2.64v.615zm5.853-4.53c-1.41 0-2.01.675-2.325 1.515l-.12-1.515h-.66V11.5h.765V7.645c0-1.545.405-3.015 2.19-3.015h.555v-.735h-.405zm4.356 7.695c1.665 0 2.94-1.08 3.27-2.61h-.78c-.3 1.185-1.305 1.92-2.55 1.92-1.695 0-2.76-1.29-2.79-3.06v-.135h6.21c0-.105.015-.225.015-.315-.075-2.265-1.47-3.585-3.51-3.585-2.085 0-3.51 1.59-3.51 3.84 0 2.385 1.485 3.945 3.645 3.945zm-2.79-4.53c.12-1.545 1.275-2.58 2.67-2.58 1.485 0 2.55.915 2.67 2.58h-5.34zm7.318 2.1c.06 1.575 1.335 2.43 3.24 2.43 1.635 0 2.955-.825 2.955-2.175 0-1.605-1.41-1.92-3.045-2.145-1.185-.165-2.235-.3-2.235-1.365 0-.87.855-1.44 2.145-1.44 1.215 0 2.085.585 2.22 1.575h.78c-.135-1.485-1.35-2.235-3-2.235-1.695-.015-2.91.855-2.91 2.16 0 1.53 1.41 1.815 2.97 2.025 1.275.18 2.31.345 2.31 1.47 0 .9-.945 1.47-2.19 1.47-1.455 0-2.4-.675-2.46-1.77h-.78zm16.317 2.43c2.25 0 3.84-1.215 4.29-3.33h-.855c-.45 1.68-1.665 2.58-3.45 2.58-2.43 0-3.96-1.905-3.96-4.59 0-2.685 1.56-4.59 3.99-4.59 1.755 0 2.985.915 3.45 2.565h.855c-.465-2.1-2.055-3.315-4.26-3.315-2.955 0-4.875 2.19-4.875 5.34 0 3.18 1.875 5.34 4.815 5.34zm6.034-.09h.81V6.655h4.53v-.75h-4.53V1.75h5.43V1h-6.24v10.5zm10.721 0c3.33 0 5.28-2.07 5.28-5.25 0-3.195-1.95-5.25-5.28-5.25h-3.06v10.5h3.06zm-2.25-9.75h2.25c2.865 0 4.455 1.74 4.455 4.5 0 2.745-1.59 4.5-4.455 4.5h-2.25v-9zm8.802 7.41c.06 1.575 1.335 2.43 3.24 2.43 1.635 0 2.955-.825 2.955-2.175 0-1.605-1.41-1.92-3.045-2.145-1.185-.165-2.235-.3-2.235-1.365 0-.87.855-1.44 2.145-1.44 1.215 0 2.085.585 2.22 1.575h.78c-.135-1.485-1.35-2.235-3-2.235-1.695-.015-2.91.855-2.91 2.16 0 1.53 1.41 1.815 2.97 2.025 1.275.18 2.31.345 2.31 1.47 0 .9-.945 1.47-2.19 1.47-1.455 0-2.4-.675-2.46-1.77h-.78z" fill="#000"/></svg>