<svg width="110" height="27" viewBox="0 0 110 27" fill="none" xmlns="http://www.w3.org/2000/svg"><rect y=".5" width="110" height="26" rx="13" fill="#000"/><path d="M28.162 18.5v-1.04h-4.147V9.4h-1.131v9.1h5.278zm3.69.078c1.533 0 2.625-.975 2.885-2.301h-1.079c-.22.858-.949 1.352-1.885 1.352-1.26 0-2.054-.884-2.093-2.145v-.091h5.148c.013-.156.026-.312.026-.455-.052-1.963-1.274-3.146-3.146-3.146-1.872 0-3.146 1.378-3.146 3.393 0 2.028 1.3 3.393 3.29 3.393zm-2.107-4.069c.104-1.079 1.001-1.781 1.976-1.781 1.105 0 1.885.637 1.99 1.781h-3.966zm12.189 3.016c-.3 0-.43-.091-.43-.442v-2.899c0-1.547-.974-2.392-2.664-2.392-1.6 0-2.652.767-2.808 2.067h1.066c.13-.676.754-1.118 1.69-1.118 1.04 0 1.65.52 1.65 1.378v.455h-1.95c-1.741 0-2.664.741-2.664 2.067 0 1.209.988 1.937 2.444 1.937 1.144 0 1.807-.507 2.223-1.105.013.65.312 1.027 1.196 1.027h.585v-.975h-.338zm-1.495-1.729c0 1.105-.767 1.872-2.093 1.872-.884 0-1.443-.442-1.443-1.092 0-.754.533-1.105 1.482-1.105h2.054v.325zm5.72-3.926c-1.183 0-1.69.494-2.002 1.001l-.143-1.001h-.923v6.63h1.066v-3.38c0-1.053.377-2.21 1.768-2.21h.533v-1.04h-.299zm4.473-.078c-1.118 0-1.794.468-2.184.975l-.143-.897h-.923v6.63h1.066v-3.315c0-1.495.754-2.418 2.002-2.418 1.157 0 1.794.728 1.794 2.106V18.5h1.066v-3.692c0-2.197-1.183-3.016-2.678-3.016zm14.837 0c-1.183 0-1.898.546-2.301 1.261-.377-.845-1.17-1.261-2.093-1.261-1.027 0-1.586.507-1.937.988l-.143-.91h-.923v6.63h1.066v-3.497c0-1.326.663-2.236 1.755-2.236 1.014 0 1.599.676 1.599 1.976V18.5h1.066v-3.549c0-1.352.676-2.184 1.78-2.184 1.002 0 1.574.676 1.574 1.976V18.5h1.066v-3.822c0-2.093-1.131-2.886-2.51-2.886zm6.855 6.786c1.937 0 3.289-1.378 3.289-3.393 0-2.015-1.352-3.393-3.289-3.393s-3.289 1.378-3.289 3.393c0 2.015 1.352 3.393 3.289 3.393zm0-.949c-1.313 0-2.197-1.027-2.197-2.444s.884-2.444 2.197-2.444c1.313 0 2.197 1.027 2.197 2.444s-.884 2.444-2.197 2.444zm7.58-5.759c-1.184 0-1.69.494-2.003 1.001l-.143-1.001h-.923v6.63h1.066v-3.38c0-1.053.377-2.21 1.768-2.21h.533v-1.04h-.299zm3.897 6.708c1.534 0 2.626-.975 2.886-2.301h-1.08c-.22.858-.948 1.352-1.884 1.352-1.261 0-2.054-.884-2.093-2.145v-.091h5.148c.013-.156.026-.312.026-.455-.052-1.963-1.274-3.146-3.146-3.146-1.872 0-3.146 1.378-3.146 3.393 0 2.028 1.3 3.393 3.289 3.393zm-2.106-4.069c.104-1.079 1-1.781 1.976-1.781 1.105 0 1.885.637 1.989 1.781h-3.965z" fill="#fff"/></svg>