<svg width="236" height="15" viewBox="0 0 236 15" fill="none" xmlns="http://www.w3.org/2000/svg"><path d="M1 11.5V1.868L7.624 11.5h.816V.3h-.848v9.632L.968.3H.152v11.2H1zm13.138.096c2.288 0 3.904-1.696 3.904-4.16 0-2.448-1.616-4.144-3.904-4.144S10.25 4.988 10.25 7.436c0 2.464 1.6 4.16 3.888 4.16zm0-.736c-1.808 0-3.056-1.408-3.056-3.424 0-2 1.248-3.424 3.056-3.424s3.056 1.424 3.056 3.424c0 2.016-1.248 3.424-3.056 3.424zm13.374.736c1.84 0 3.136-1.056 3.456-2.704h-.864c-.272 1.2-1.248 1.968-2.592 1.968-1.776 0-3.008-1.392-3.008-3.408s1.216-3.44 3.008-3.44c1.36 0 2.32.768 2.608 1.984h.848c-.336-1.68-1.6-2.704-3.44-2.704-2.288 0-3.856 1.696-3.856 4.16 0 2.496 1.552 4.144 3.84 4.144zm8.626 0c2.288 0 3.904-1.696 3.904-4.16 0-2.448-1.616-4.144-3.904-4.144S32.25 4.988 32.25 7.436c0 2.464 1.6 4.16 3.888 4.16zm0-.736c-1.808 0-3.056-1.408-3.056-3.424 0-2 1.248-3.424 3.056-3.424s3.056 1.424 3.056 3.424c0 2.016-1.248 3.424-3.056 3.424zm14.581-7.568c-1.488 0-2.448.832-2.912 2.032-.384-1.344-1.392-2.032-2.672-2.032-1.392 0-2.224.816-2.64 1.824l-.128-1.728h-.704V11.5h.816V7.372c0-1.984.96-3.328 2.512-3.328 1.408 0 2.288.992 2.288 2.864V11.5h.816V7.084c.048-1.856 1.008-3.04 2.528-3.04 1.408 0 2.256.944 2.256 2.784V11.5h.832V6.796c0-2.448-1.296-3.504-2.992-3.504zm13.86 0c-1.488 0-2.448.832-2.912 2.032-.385-1.344-1.392-2.032-2.672-2.032-1.392 0-2.224.816-2.64 1.824l-.128-1.728h-.704V11.5h.816V7.372c0-1.984.96-3.328 2.511-3.328 1.408 0 2.288.992 2.288 2.864V11.5h.817V7.084c.047-1.856 1.008-3.04 2.528-3.04 1.407 0 2.255.944 2.255 2.784V11.5h.832V6.796c0-2.448-1.295-3.504-2.991-3.504zm5.219-1.616c.32 0 .576-.24.576-.576a.564.564 0 00-.576-.576c-.32 0-.576.24-.576.576 0 .336.256.576.576.576zm-.416 9.824h.816V3.388h-.816V11.5zm2.366-2.496c.064 1.68 1.424 2.592 3.456 2.592 1.744 0 3.152-.88 3.152-2.32 0-1.712-1.504-2.048-3.248-2.288-1.264-.176-2.384-.32-2.384-1.456 0-.928.912-1.536 2.288-1.536 1.296 0 2.224.624 2.368 1.68h.832c-.144-1.584-1.44-2.384-3.2-2.384-1.808-.016-3.104.912-3.104 2.304 0 1.632 1.504 1.936 3.168 2.16 1.36.192 2.464.368 2.464 1.568 0 .96-1.008 1.568-2.336 1.568-1.552 0-2.56-.72-2.624-1.888h-.832zm7.64 0c.065 1.68 1.425 2.592 3.457 2.592 1.744 0 3.152-.88 3.152-2.32 0-1.712-1.504-2.048-3.248-2.288-1.264-.176-2.384-.32-2.384-1.456 0-.928.912-1.536 2.288-1.536 1.296 0 2.224.624 2.368 1.68h.832c-.144-1.584-1.44-2.384-3.2-2.384-1.808-.016-3.104.912-3.104 2.304 0 1.632 1.504 1.936 3.168 2.16 1.36.192 2.464.368 2.464 1.568 0 .96-1.008 1.568-2.336 1.568-1.552 0-2.56-.72-2.624-1.888h-.832zm8.582-7.328c.32 0 .576-.24.576-.576a.564.564 0 00-.576-.576c-.32 0-.576.24-.576.576 0 .336.256.576.576.576zm-.416 9.824h.816V3.388h-.816V11.5zm6.318.096c2.288 0 3.904-1.696 3.904-4.16 0-2.448-1.616-4.144-3.904-4.144s-3.888 1.696-3.888 4.144c0 2.464 1.6 4.16 3.888 4.16zm0-.736c-1.808 0-3.056-1.408-3.056-3.424 0-2 1.248-3.424 3.056-3.424s3.056 1.424 3.056 3.424c0 2.016-1.248 3.424-3.056 3.424zm9.269-7.568c-1.487 0-2.447.768-2.911 1.824l-.128-1.728h-.705V11.5h.817v-4c0-2.112 1.072-3.456 2.8-3.456 1.568 0 2.512 1.024 2.512 2.944V11.5h.816V6.956c0-2.56-1.36-3.664-3.201-3.664zm12.903 8.304c2.288 0 3.904-1.696 3.904-4.16 0-2.448-1.616-4.144-3.904-4.144s-3.888 1.696-3.888 4.144c0 2.464 1.6 4.16 3.888 4.16zm0-.736c-1.808 0-3.056-1.408-3.056-3.424 0-2 1.248-3.424 3.056-3.424s3.056 1.424 3.056 3.424c0 2.016-1.248 3.424-3.056 3.424zm9.269-7.568c-1.488 0-2.448.768-2.912 1.824l-.128-1.728h-.704V11.5h.816v-4c0-2.112 1.072-3.456 2.8-3.456 1.568 0 2.512 1.024 2.512 2.944V11.5h.816V6.956c0-2.56-1.36-3.664-3.2-3.664zm9.927 6.32c0 1.296.528 1.888 1.904 1.888h1.184v-.752h-1.12c-.848 0-1.152-.32-1.152-1.152V4.14h2.192v-.752h-2.192V1.116h-.816v2.272h-1.536v.752h1.536v5.472zm7.663 1.984c2.288 0 3.904-1.696 3.904-4.16 0-2.448-1.616-4.144-3.904-4.144s-3.888 1.696-3.888 4.144c0 2.464 1.6 4.16 3.888 4.16zm0-.736c-1.808 0-3.056-1.408-3.056-3.424 0-2 1.248-3.424 3.056-3.424s3.056 1.424 3.056 3.424c0 2.016-1.248 3.424-3.056 3.424zm9.446-7.568c-1.52 0-2.576.816-3.088 1.952l-.128-1.856h-.704V14.7h.816V9.628c.464 1.184 1.568 1.968 3.104 1.968 2.224 0 3.824-1.696 3.824-4.16 0-2.544-1.6-4.144-3.824-4.144zm-.064 7.568c-1.808 0-3.056-1.408-3.056-3.44 0-1.984 1.248-3.408 3.056-3.408s3.056 1.424 3.056 3.424c0 2.016-1.248 3.424-3.056 3.424zm10.424-1.248c0 1.296.528 1.888 1.904 1.888h1.184v-.752h-1.12c-.848 0-1.152-.32-1.152-1.152V4.14h2.192v-.752h-2.192V1.116h-.816v2.272h-1.536v.752h1.536v5.472zm7.663 1.984c1.776 0 3.136-1.152 3.488-2.784h-.832c-.32 1.264-1.392 2.048-2.72 2.048-1.808 0-2.944-1.376-2.976-3.264v-.144h6.624c0-.112.016-.24.016-.336-.08-2.416-1.568-3.824-3.744-3.824-2.224 0-3.744 1.696-3.744 4.096 0 2.544 1.584 4.208 3.888 4.208zm-2.976-4.832c.128-1.648 1.36-2.752 2.848-2.752 1.584 0 2.72.976 2.848 2.752h-5.696zm11.725 4.832c1.84 0 3.136-1.056 3.456-2.704h-.864c-.272 1.2-1.248 1.968-2.592 1.968-1.776 0-3.008-1.392-3.008-3.408s1.216-3.44 3.008-3.44c1.36 0 2.32.768 2.608 1.984h.848c-.336-1.68-1.6-2.704-3.44-2.704-2.288 0-3.856 1.696-3.856 4.16 0 2.496 1.552 4.144 3.84 4.144zm8.786-8.304c-1.52 0-2.464.848-2.928 2.016V.3h-.816v11.2h.816v-4c0-2.112 1.072-3.456 2.8-3.456 1.552 0 2.512 1.024 2.512 2.944V11.5h.816V6.956c0-2.56-1.36-3.664-3.2-3.664zm14.262 8.304c2.4 0 4.096-1.296 4.576-3.552h-.912c-.48 1.792-1.776 2.752-3.68 2.752-2.592 0-4.224-2.032-4.224-4.896s1.664-4.896 4.256-4.896c1.872 0 3.184.976 3.68 2.736h.912c-.496-2.24-2.192-3.536-4.544-3.536-3.152 0-5.2 2.336-5.2 5.696 0 3.392 2 5.696 5.136 5.696zm6.436-.096h.864V6.332h4.832v-.8h-4.832V1.1h5.792V.3h-6.656v11.2zm11.436 0c3.552 0 5.632-2.208 5.632-5.6 0-3.408-2.08-5.6-5.632-5.6h-3.264v11.2h3.264zm-2.4-10.4h2.4c3.056 0 4.752 1.856 4.752 4.8 0 2.928-1.696 4.8-4.752 4.8h-2.4V1.1zm9.533 6.96c.112 2.112 1.648 3.536 4.16 3.536 2.352 0 3.904-1.28 3.904-3.168 0-2.128-1.888-2.672-3.744-2.992-1.712-.288-3.2-.576-3.2-2.176 0-1.456 1.136-2.272 2.896-2.272 1.68 0 2.832.944 3.024 2.4h.88c-.16-1.92-1.616-3.184-3.904-3.184-2.272 0-3.76 1.2-3.76 3.104 0 2.128 1.824 2.608 3.616 2.912 1.76.304 3.328.656 3.328 2.288 0 1.44-1.216 2.304-3.024 2.304-1.888 0-3.168-1.088-3.28-2.752h-.896z" fill="#000"/></svg>