<svg width="140" height="27" viewBox="0 0 140 27" fill="none" xmlns="http://www.w3.org/2000/svg"><rect width="140" height="27" rx="13.5" fill="#000"/><path d="M16.452 19h1.218v-4.284h4.032v-1.12H17.67V10.32h4.872V9.2h-6.09V19zm11.857-3.57c0 1.61-.784 2.604-2.086 2.604-1.19 0-1.862-.784-1.862-2.268V11.86h-1.148v3.976c0 2.366 1.246 3.248 2.814 3.248 1.176 0 1.862-.504 2.282-1.036l.154.952h.994v-7.14H28.31v3.57zm6.213-3.654c-1.204 0-1.932.504-2.352 1.05l-.154-.966h-.994V19h1.148v-3.57c0-1.61.812-2.604 2.156-2.604 1.246 0 1.932.784 1.932 2.268V19h1.148v-3.976c0-2.366-1.274-3.248-2.884-3.248zm9.894 1.176c-.434-.686-1.246-1.176-2.45-1.176-1.974 0-3.43 1.47-3.43 3.654 0 2.324 1.456 3.654 3.43 3.654 1.204 0 1.974-.574 2.45-1.232L44.57 19h.994V9.2h-1.148v3.752zm-2.338 5.11c-1.414 0-2.366-1.078-2.366-2.632s.952-2.632 2.366-2.632c1.4 0 2.352 1.092 2.352 2.66 0 1.526-.952 2.604-2.352 2.604zm16.68-6.286c-1.274 0-2.044.588-2.478 1.358-.406-.91-1.26-1.358-2.254-1.358-1.106 0-1.708.546-2.086 1.064l-.154-.98h-.994V19h1.148v-3.766c0-1.428.714-2.408 1.89-2.408 1.092 0 1.722.728 1.722 2.128V19H56.7v-3.822c0-1.456.728-2.352 1.918-2.352 1.078 0 1.694.728 1.694 2.128V19h1.148v-4.116c0-2.254-1.218-3.108-2.702-3.108zm5.987 7.266l-.35.868c-.266.672-.378.84-1.036.84h-1.022v1.05h1.372c1.008 0 1.274-.448 1.722-1.596l3.29-8.344h-1.218l-2.128 5.698-2.198-5.698h-1.218l2.786 7.182zm14.81-1.092c-.322 0-.462-.098-.462-.476v-3.122c0-1.666-1.05-2.576-2.87-2.576-1.722 0-2.856.826-3.024 2.226h1.148c.14-.728.812-1.204 1.82-1.204 1.12 0 1.778.56 1.778 1.484v.49h-2.1c-1.876 0-2.87.798-2.87 2.226 0 1.302 1.064 2.086 2.632 2.086 1.232 0 1.946-.546 2.394-1.19.014.7.336 1.106 1.288 1.106h.63v-1.05h-.364zm-1.61-1.862c0 1.19-.826 2.016-2.254 2.016-.952 0-1.554-.476-1.554-1.176 0-.812.574-1.19 1.596-1.19h2.212v.35zm5.98 2.996c1.737 0 2.898-.98 3.178-2.52h-1.218c-.224.91-.924 1.498-1.946 1.498-1.371 0-2.295-1.064-2.295-2.618 0-1.554.923-2.646 2.295-2.646 1.05 0 1.75.574 1.96 1.526h1.204c-.293-1.568-1.4-2.548-3.15-2.548-2.072 0-3.486 1.484-3.486 3.668 0 2.226 1.373 3.64 3.459 3.64zm7.643 0c1.736 0 2.898-.98 3.178-2.52h-1.218c-.224.91-.924 1.498-1.946 1.498-1.372 0-2.296-1.064-2.296-2.618 0-1.554.924-2.646 2.296-2.646 1.05 0 1.75.574 1.96 1.526h1.204c-.294-1.568-1.4-2.548-3.15-2.548-2.072 0-3.486 1.484-3.486 3.668 0 2.226 1.372 3.64 3.458 3.64zm7.727 0c2.086 0 3.542-1.484 3.542-3.654s-1.456-3.654-3.542-3.654-3.542 1.484-3.542 3.654 1.456 3.654 3.542 3.654zm0-1.022c-1.414 0-2.366-1.106-2.366-2.632s.952-2.632 2.366-2.632c1.414 0 2.366 1.106 2.366 2.632s-.952 2.632-2.366 2.632zm9.856-2.632c0 1.61-.784 2.604-2.086 2.604-1.19 0-1.862-.784-1.862-2.268V11.86h-1.148v3.976c0 2.366 1.246 3.248 2.814 3.248 1.176 0 1.862-.504 2.282-1.036l.154.952h.994v-7.14h-1.148v3.57zm6.213-3.654c-1.204 0-1.932.504-2.352 1.05l-.154-.966h-.994V19h1.148v-3.57c0-1.61.812-2.604 2.156-2.604 1.246 0 1.932.784 1.932 2.268V19h1.148v-3.976c0-2.366-1.274-3.248-2.884-3.248zm4.88 5.362c0 1.26.49 1.862 1.862 1.862h1.246v-1.05h-1.134c-.616 0-.826-.224-.826-.826V12.91h1.848v-1.05h-1.848V9.858h-1.148v2.002h-1.288v1.05h1.288v4.228z" fill="#fff"/></svg>