<svg width="627" height="92" viewBox="0 0 627 92" fill="none" xmlns="http://www.w3.org/2000/svg"><path d="M.325 63.432h3.902V74h.878V63.432h3.902v-.813H.325v.813zm12.463 2.325c-1.528 0-2.179.731-2.52 1.642l-.13-1.642h-.716V74h.83v-4.178c0-1.675.438-3.268 2.373-3.268h.602v-.797h-.44zm8.57 7.479c-.488 0-.732-.163-.732-.797v-3.837c0-1.886-1.155-2.943-3.22-2.943-1.885 0-3.137.91-3.349 2.407h.83c.211-1.008 1.089-1.675 2.487-1.675 1.545 0 2.423.813 2.423 2.179v.715H17c-2.113 0-3.252.91-3.252 2.455 0 1.463 1.155 2.358 2.91 2.358 1.675 0 2.667-.765 3.171-1.789v.293c-.032.975.374 1.398 1.35 1.398h.487v-.764h-.308zm-1.561-2.569c0 1.577-1.122 2.715-3.073 2.715-1.317 0-2.13-.666-2.13-1.69 0-1.09.813-1.692 2.341-1.692h2.862v.667zm9.582-3.057c-.504-1.17-1.61-1.95-3.154-1.95-2.26 0-3.886 1.723-3.886 4.21 0 2.602 1.626 4.228 3.886 4.228 1.545 0 2.618-.83 3.138-1.984l.13 1.886h.716V62.619h-.83v4.991zm-3.089 5.74c-1.837 0-3.105-1.431-3.105-3.48 0-2.032 1.268-3.479 3.105-3.479s3.106 1.447 3.106 3.496c0 2.032-1.269 3.463-3.106 3.463zm9.51.748c1.806 0 3.188-1.171 3.545-2.83H38.5c-.325 1.285-1.415 2.082-2.764 2.082-1.837 0-2.992-1.399-3.024-3.317v-.146h6.73c0-.114.017-.244.017-.342-.081-2.455-1.593-3.886-3.805-3.886-2.26 0-3.804 1.724-3.804 4.162 0 2.586 1.61 4.277 3.95 4.277zm-3.023-4.91c.13-1.675 1.382-2.797 2.894-2.797 1.61 0 2.764.992 2.894 2.796h-5.788zm16.345 4.91c1.805 0 3.187-1.171 3.544-2.83h-.845c-.325 1.285-1.414 2.082-2.764 2.082-1.837 0-2.992-1.399-3.024-3.317v-.146h6.731c0-.114.016-.244.016-.342-.081-2.455-1.593-3.886-3.804-3.886-2.26 0-3.805 1.724-3.805 4.162 0 2.586 1.61 4.277 3.951 4.277zm-3.024-4.91c.13-1.675 1.382-2.797 2.894-2.797 1.61 0 2.764.992 2.894 2.796h-5.788zm15.572 4.048c-.487 0-.731-.163-.731-.797v-3.837c0-1.886-1.154-2.943-3.22-2.943-1.885 0-3.137.91-3.349 2.407h.83c.211-1.008 1.089-1.675 2.487-1.675 1.545 0 2.423.813 2.423 2.179v.715h-2.797c-2.113 0-3.252.91-3.252 2.455 0 1.463 1.155 2.358 2.91 2.358 1.675 0 2.667-.765 3.171-1.789v.293c-.032.975.374 1.398 1.35 1.398h.487v-.764h-.309zm-1.56-2.569c0 1.577-1.122 2.715-3.073 2.715-1.317 0-2.13-.666-2.13-1.69 0-1.09.813-1.692 2.341-1.692h2.862v.667zm6.344-4.91c-1.528 0-2.179.731-2.52 1.642l-.13-1.642h-.716V74h.83v-4.178c0-1.675.438-3.268 2.373-3.268h.602v-.797h-.44zm5.472-.098c-1.512 0-2.488.78-2.96 1.854l-.13-1.756h-.715V74h.83v-4.065c0-2.146 1.089-3.511 2.845-3.511 1.593 0 2.552 1.04 2.552 2.991V74h.83v-4.617c0-2.602-1.382-3.724-3.252-3.724zm5.51-1.642a.573.573 0 00.585-.585.573.573 0 00-.585-.585.573.573 0 00-.586.585c0 .341.26.585.586.585zM77.013 74h.83v-8.243h-.83V74zm6.583-8.34c-1.512 0-2.488.78-2.96 1.853l-.13-1.756h-.715V74h.83v-4.065c0-2.146 1.089-3.511 2.845-3.511 1.593 0 2.553 1.04 2.553 2.991V74h.829v-4.617c0-2.602-1.382-3.724-3.252-3.724zm11.802 2.015c-.504-1.219-1.61-2.016-3.138-2.016-2.26 0-3.886 1.707-3.886 4.211 0 2.602 1.626 4.228 3.886 4.228 1.544 0 2.634-.813 3.154-2.098v1.463c0 2.195-1.04 3.138-3.024 3.138-1.545 0-2.618-.699-2.878-1.95h-.862c.26 1.755 1.675 2.698 3.675 2.698 2.666 0 3.918-1.268 3.918-3.853v-7.74h-.715l-.13 1.92zm-3.073 5.675c-1.838 0-3.106-1.431-3.106-3.48 0-2.048 1.269-3.479 3.106-3.479s3.105 1.43 3.105 3.496c0 2.032-1.268 3.463-3.105 3.463zm5.495-1.886c.065 1.707 1.447 2.634 3.511 2.634 1.773 0 3.203-.895 3.203-2.358 0-1.74-1.528-2.081-3.3-2.325-1.285-.179-2.423-.325-2.423-1.48 0-.942.927-1.56 2.325-1.56 1.317 0 2.26.634 2.407 1.707h.845c-.146-1.61-1.463-2.423-3.252-2.423-1.837-.016-3.154.927-3.154 2.342 0 1.658 1.528 1.967 3.219 2.194 1.382.196 2.504.374 2.504 1.594 0 .975-1.024 1.593-2.374 1.593-1.577 0-2.601-.732-2.666-1.918h-.846zm19.93 1.772c-.488 0-.732-.163-.732-.797v-3.837c0-1.886-1.154-2.943-3.219-2.943-1.886 0-3.138.91-3.349 2.407h.829c.211-1.008 1.089-1.675 2.487-1.675 1.545 0 2.423.813 2.423 2.179v.715h-2.796c-2.114 0-3.252.91-3.252 2.455 0 1.463 1.154 2.358 2.91 2.358 1.675 0 2.667-.765 3.171-1.789v.293c-.033.975.373 1.398 1.349 1.398h.488v-.764h-.309zm-1.561-2.569c0 1.577-1.122 2.715-3.073 2.715-1.317 0-2.13-.666-2.13-1.69 0-1.09.813-1.692 2.342-1.692h2.861v.667zm2.605.797c.065 1.707 1.447 2.634 3.512 2.634 1.772 0 3.202-.895 3.202-2.358 0-1.74-1.528-2.081-3.3-2.325-1.284-.179-2.423-.325-2.423-1.48 0-.942.927-1.56 2.325-1.56 1.317 0 2.26.634 2.407 1.707h.845c-.146-1.61-1.463-2.423-3.252-2.423-1.837-.016-3.154.927-3.154 2.342 0 1.658 1.529 1.967 3.219 2.194 1.382.196 2.504.374 2.504 1.594 0 .975-1.024 1.593-2.373 1.593-1.578 0-2.602-.732-2.667-1.918h-.845zm13.297.618c0 1.316.536 1.918 1.934 1.918h1.203v-.764h-1.138c-.861 0-1.17-.325-1.17-1.17V66.52h2.227v-.764h-2.227v-2.309h-.829v2.309h-1.561v.764h1.561v5.56zm8.203-6.423c-1.544 0-2.503.862-2.975 2.049v-5.089h-.829V74h.829v-4.065c0-2.146 1.09-3.511 2.845-3.511 1.578 0 2.553 1.04 2.553 2.991V74h.829v-4.617c0-2.602-1.382-3.724-3.252-3.724zm8.618 8.439c1.805 0 3.187-1.171 3.545-2.83h-.846c-.325 1.285-1.414 2.082-2.764 2.082-1.837 0-2.991-1.399-3.024-3.317v-.146h6.731c0-.114.016-.244.016-.342-.081-2.455-1.593-3.886-3.804-3.886-2.26 0-3.805 1.724-3.805 4.162 0 2.586 1.61 4.277 3.951 4.277zm-3.024-4.91c.13-1.675 1.382-2.797 2.894-2.797 1.61 0 2.764.992 2.894 2.796h-5.788zM156.331 74l-.536 1.333c-.374.91-.521 1.155-1.366 1.155h-1.041v.764h1.269c1.105 0 1.365-.423 1.886-1.724l3.95-9.771h-.894l-2.812 7.17-2.862-7.17h-.894l3.3 8.243zm13.464-8.34c-1.545 0-2.504.861-2.975 2.048v-5.089h-.83V74h.83v-4.065c0-2.146 1.089-3.511 2.845-3.511 1.577 0 2.552 1.04 2.552 2.991V74h.83v-4.617c0-2.602-1.382-3.724-3.252-3.724zm12.354 7.576c-.488 0-.732-.163-.732-.797v-3.837c0-1.886-1.154-2.943-3.219-2.943-1.886 0-3.138.91-3.349 2.407h.829c.211-1.008 1.089-1.675 2.488-1.675 1.544 0 2.422.813 2.422 2.179v.715h-2.796c-2.114 0-3.252.91-3.252 2.455 0 1.463 1.154 2.358 2.91 2.358 1.675 0 2.667-.765 3.171-1.789v.293c-.033.975.374 1.398 1.349 1.398h.488v-.764h-.309zm-1.561-2.569c0 1.577-1.122 2.715-3.073 2.715-1.317 0-2.13-.666-2.13-1.69 0-1.09.813-1.692 2.342-1.692h2.861v.667zm6.962-5.008c-1.544 0-2.617.83-3.138 1.984l-.13-1.886h-.715v11.495h.829v-5.154c.471 1.203 1.593 2 3.154 2 2.26 0 3.886-1.724 3.886-4.228 0-2.585-1.626-4.21-3.886-4.21zm-.065 7.69c-1.837 0-3.105-1.43-3.105-3.495 0-2.016 1.268-3.463 3.105-3.463s3.105 1.447 3.105 3.48c0 2.048-1.268 3.479-3.105 3.479zm9.576-7.69c-1.545 0-2.618.83-3.138 1.984l-.13-1.886h-.716v11.495h.83v-5.154c.471 1.203 1.593 2 3.154 2 2.26 0 3.886-1.724 3.886-4.228 0-2.585-1.626-4.21-3.886-4.21zm-.065 7.69c-1.837 0-3.106-1.43-3.106-3.495 0-2.016 1.269-3.463 3.106-3.463s3.105 1.447 3.105 3.48c0 2.048-1.268 3.479-3.105 3.479zm9.234.749c1.805 0 3.187-1.171 3.544-2.83h-.845c-.325 1.285-1.415 2.082-2.764 2.082-1.837 0-2.992-1.399-3.024-3.317v-.146h6.731c0-.114.016-.244.016-.342-.081-2.455-1.593-3.886-3.804-3.886-2.26 0-3.805 1.724-3.805 4.162 0 2.586 1.61 4.277 3.951 4.277zm-3.024-4.91c.13-1.675 1.382-2.797 2.894-2.797 1.609 0 2.764.992 2.894 2.796h-5.788zm12.126-3.529c-1.512 0-2.488.78-2.959 1.854l-.131-1.756h-.715V74h.829v-4.065c0-2.146 1.09-3.511 2.846-3.511 1.593 0 2.552 1.04 2.552 2.991V74h.829v-4.617c0-2.602-1.382-3.724-3.251-3.724zM226.8 74h.895l2.438-6.926L232.458 74h.895l2.926-8.243h-.845l-2.537 7.251-2.357-7.251h-.764l-2.488 7.251-2.406-7.251h-.878L226.8 74zm11.062-9.983a.573.573 0 00.585-.585.573.573 0 00-.585-.585.573.573 0 00-.585.585c0 .341.26.585.585.585zM237.439 74h.829v-8.243h-.829V74zm3.397-1.918c0 1.316.536 1.918 1.934 1.918h1.203v-.764h-1.138c-.861 0-1.17-.325-1.17-1.17V66.52h2.227v-.764h-2.227v-2.309h-.829v2.309h-1.561v.764h1.561v5.56zm8.204-6.423c-1.545 0-2.504.862-2.976 2.049v-5.089h-.829V74h.829v-4.065c0-2.146 1.09-3.511 2.845-3.511 1.578 0 2.553 1.04 2.553 2.991V74h.829v-4.617c0-2.602-1.382-3.724-3.251-3.724zm13.321 8.439c2.065 0 3.464-1.252 3.756-2.894h-1.756c-.244.926-1.024 1.463-2.097 1.463-1.382 0-2.276-.927-2.325-2.341v-.114h6.276c.032-.228.049-.456.049-.667-.049-2.439-1.659-3.967-4.065-3.967-2.455 0-4.097 1.707-4.097 4.276 0 2.553 1.642 4.244 4.259 4.244zm-2.357-5.17c.13-1.188 1.089-1.935 2.211-1.935 1.22 0 2.081.699 2.228 1.934h-4.439zM266.44 74h1.935l2.195-3.024L272.749 74h2.048l-3.138-4.26 2.959-4.064h-1.934l-2.033 2.812-1.983-2.812h-2.049l2.943 4.064L266.44 74zm9.926-2.26c0 1.512.683 2.26 2.277 2.26h1.625v-1.545h-1.235c-.667 0-.894-.243-.894-.894v-4.34h2.032v-1.545h-2.032V63.35h-1.773v2.325h-1.447v1.544h1.447v4.52zm8.796 2.358c2.064 0 3.463-1.252 3.755-2.894h-1.756c-.243.926-1.024 1.463-2.097 1.463-1.382 0-2.276-.927-2.325-2.341v-.114h6.276c.032-.228.049-.456.049-.667-.049-2.439-1.659-3.967-4.065-3.967-2.455 0-4.097 1.707-4.097 4.276 0 2.553 1.642 4.244 4.26 4.244zm-2.358-5.17c.13-1.188 1.089-1.935 2.211-1.935 1.22 0 2.081.699 2.228 1.934h-4.439zm12.069-3.35c-1.349 0-2.146.537-2.666 1.187l-.195-1.09h-1.529V74h1.756v-4.195c0-1.69.829-2.715 2.228-2.715 1.317 0 1.983.846 1.983 2.423V74h1.772v-4.634c0-2.78-1.512-3.788-3.349-3.788zm11.207 1.252c-.536-.732-1.43-1.252-2.699-1.252-2.26 0-3.934 1.691-3.934 4.26 0 2.666 1.674 4.26 3.934 4.26 1.317 0 2.179-.618 2.716-1.35l.211 1.252h1.528V62.619h-1.756v4.211zm-2.406 5.788c-1.463 0-2.423-1.138-2.423-2.78 0-1.626.96-2.764 2.423-2.764s2.423 1.138 2.423 2.796c0 1.61-.96 2.748-2.423 2.748zm9.829 1.48c2.065 0 3.463-1.252 3.756-2.894h-1.756c-.244.926-1.025 1.463-2.098 1.463-1.382 0-2.276-.927-2.325-2.341v-.114h6.276a4.7 4.7 0 00.049-.667c-.049-2.439-1.658-3.967-4.065-3.967-2.455 0-4.097 1.707-4.097 4.276 0 2.553 1.642 4.244 4.26 4.244zm-2.358-5.17c.131-1.188 1.09-1.935 2.212-1.935 1.219 0 2.081.699 2.227 1.934h-4.439zm14.004-2.098c-.536-.732-1.431-1.252-2.699-1.252-2.26 0-3.934 1.691-3.934 4.26 0 2.666 1.674 4.26 3.934 4.26 1.317 0 2.179-.618 2.715-1.35l.212 1.252h1.528V62.619h-1.756v4.211zm-2.406 5.788c-1.463 0-2.423-1.138-2.423-2.78 0-1.626.96-2.764 2.423-2.764s2.422 1.138 2.422 2.796c0 1.61-.959 2.748-2.422 2.748zm14.411-7.04c-1.3 0-2.097.585-2.617 1.3V62.62h-1.756V74h1.756v-4.211c0-1.675.845-2.699 2.227-2.699 1.301 0 2 .846 2 2.423V74h1.756v-4.634c0-2.78-1.512-3.788-3.366-3.788zm8.834 8.52c2.536 0 4.243-1.708 4.243-4.26 0-2.536-1.707-4.26-4.243-4.26-2.536 0-4.244 1.724-4.244 4.26 0 2.552 1.708 4.26 4.244 4.26zm0-1.496c-1.48 0-2.439-1.155-2.439-2.764 0-1.61.959-2.764 2.439-2.764 1.479 0 2.455 1.154 2.455 2.764 0 1.61-.976 2.764-2.455 2.764zm11.362-2.764c0 1.723-.813 2.731-2.146 2.731-1.284 0-1.935-.829-1.935-2.455v-4.438h-1.756v4.633c0 2.846 1.512 3.789 3.285 3.789 1.284 0 2.048-.52 2.568-1.155l.195 1.057h1.545v-8.324h-1.756v4.162zm7.697-4.162c-1.365 0-2.032.552-2.455 1.251l-.195-1.251h-1.561V74h1.756v-4.178c0-1.285.504-2.504 2.065-2.504h.781v-1.642h-.391zm.973 5.576c.049 1.805 1.577 2.846 3.804 2.846 2.017 0 3.529-1.008 3.529-2.602 0-1.853-1.545-2.243-3.447-2.471-1.203-.13-2-.228-2-1.008 0-.667.683-1.09 1.723-1.09 1.041 0 1.756.537 1.854 1.301h1.723c-.114-1.707-1.561-2.65-3.609-2.65-2-.016-3.414 1.008-3.414 2.585 0 1.724 1.495 2.13 3.398 2.358 1.284.162 2.048.227 2.048 1.121 0 .667-.715 1.09-1.805 1.09-1.268 0-2.016-.618-2.081-1.48h-1.723zm13.455.488c0 1.512.683 2.26 2.276 2.26h1.626v-1.545h-1.236c-.666 0-.894-.243-.894-.894v-4.34h2.032v-1.545h-2.032V63.35h-1.772v2.325h-1.447v1.544h1.447v4.52zm9.23-6.064c-1.366 0-2.032.552-2.455 1.251l-.195-1.251h-1.561V74h1.756v-4.178c0-1.285.504-2.504 2.065-2.504h.78v-1.642h-.39zm8.828 6.796c-.358 0-.537-.114-.537-.537v-3.333c0-1.967-1.268-3.024-3.479-3.024-2.097 0-3.495 1.008-3.674 2.634h1.723c.13-.732.829-1.22 1.87-1.22 1.154 0 1.821.57 1.821 1.496v.504h-2.098c-2.324 0-3.56.96-3.56 2.667 0 1.544 1.268 2.439 3.089 2.439 1.349 0 2.195-.586 2.748-1.431 0 .829.39 1.333 1.528 1.333h.927v-1.528h-.358zm-2.276-1.886c-.016 1.284-.862 2.146-2.325 2.146-.959 0-1.545-.488-1.545-1.187 0-.846.602-1.252 1.691-1.252h2.179v.293zm9.851-3.756c-.536-.732-1.431-1.252-2.699-1.252-2.26 0-3.934 1.691-3.934 4.26 0 2.666 1.674 4.26 3.934 4.26 1.317 0 2.179-.618 2.716-1.35l.211 1.252h1.528V62.619h-1.756v4.211zm-2.406 5.788c-1.463 0-2.423-1.138-2.423-2.78 0-1.626.96-2.764 2.423-2.764s2.423 1.138 2.423 2.796c0 1.61-.96 2.748-2.423 2.748zm6.772-8.113c.602 0 1.073-.439 1.073-1.057 0-.618-.471-1.057-1.073-1.057-.601 0-1.073.44-1.073 1.057 0 .618.472 1.057 1.073 1.057zM408.58 74h1.756v-8.324h-1.756V74zm7.867-8.422c-1.349 0-2.146.537-2.666 1.187l-.195-1.09h-1.529V74h1.756v-4.195c0-1.69.829-2.715 2.228-2.715 1.317 0 1.983.846 1.983 2.423V74h1.772v-4.634c0-2.78-1.512-3.788-3.349-3.788zm11.303 1.398c-.536-.829-1.43-1.398-2.731-1.398-2.26 0-3.935 1.675-3.935 4.227 0 2.65 1.675 4.227 3.935 4.227 1.301 0 2.162-.536 2.715-1.365v.927c0 1.593-.862 2.325-2.39 2.325-1.236 0-2.049-.537-2.26-1.464h-1.788c.162 1.87 1.707 2.894 3.918 2.894 2.992 0 4.26-1.43 4.26-3.69v-7.983h-1.529l-.195 1.3zm-2.438 5.577c-1.464 0-2.423-1.122-2.423-2.748 0-1.61.959-2.747 2.423-2.747 1.463 0 2.422 1.138 2.422 2.78 0 1.593-.959 2.715-2.422 2.715zm14.357-6.894c-1.545 0-2.634.846-3.154 2.016V62.62h-.829V74h.715l.13-1.87c.488 1.187 1.593 1.968 3.138 1.968 2.26 0 3.886-1.724 3.886-4.228 0-2.585-1.626-4.21-3.886-4.21zm-.065 7.69c-1.837 0-3.105-1.43-3.105-3.495 0-2.016 1.268-3.463 3.105-3.463s3.105 1.447 3.105 3.48c0 2.048-1.268 3.479-3.105 3.479zm7.714.651l-.536 1.333c-.374.91-.521 1.155-1.366 1.155h-1.041v.764h1.269c1.105 0 1.365-.423 1.886-1.724l3.95-9.771h-.894l-2.812 7.17-2.862-7.17h-.894l3.3 8.243zm14.667.098c2.439 0 4.162-1.317 4.65-3.61h-.927c-.488 1.821-1.804 2.797-3.739 2.797-2.634 0-4.293-2.065-4.293-4.975 0-2.91 1.691-4.976 4.325-4.976 1.903 0 3.236.992 3.74 2.78h.926c-.504-2.276-2.227-3.593-4.617-3.593-3.203 0-5.284 2.374-5.284 5.788 0 3.447 2.032 5.789 5.219 5.789zm6.768-10.08a.573.573 0 00.585-.586.573.573 0 00-.585-.585.573.573 0 00-.586.585c0 .341.26.585.586.585zM468.33 74h.829v-8.243h-.829V74zm3.396-1.918c0 1.316.537 1.918 1.935 1.918h1.203v-.764h-1.138c-.862 0-1.171-.325-1.171-1.17V66.52h2.228v-.764h-2.228v-2.309h-.829v2.309h-1.561v.764h1.561v5.56zM478.597 74l-.537 1.333c-.374.91-.52 1.155-1.365 1.155h-1.041v.764h1.268c1.106 0 1.366-.423 1.886-1.724l3.951-9.771h-.894l-2.813 7.17-2.861-7.17h-.895L478.597 74zm9.854 0h.878V62.619h-.878V74zm6.833-8.34c-1.512 0-2.488.78-2.959 1.853l-.13-1.756h-.716V74h.829v-4.065c0-2.146 1.09-3.511 2.846-3.511 1.593 0 2.552 1.04 2.552 2.991V74h.829v-4.617c0-2.602-1.382-3.724-3.251-3.724zm11.691 1.95c-.504-1.17-1.61-1.95-3.155-1.95-2.259 0-3.885 1.723-3.885 4.21 0 2.602 1.626 4.228 3.885 4.228 1.545 0 2.618-.83 3.138-1.984l.13 1.886h.716V62.619h-.829v4.991zm-3.09 5.74c-1.837 0-3.105-1.431-3.105-3.48 0-2.032 1.268-3.479 3.105-3.479 1.838 0 3.106 1.447 3.106 3.496 0 2.032-1.268 3.463-3.106 3.463zm9.511.748c1.805 0 3.187-1.171 3.544-2.83h-.845c-.325 1.285-1.414 2.082-2.764 2.082-1.837 0-2.991-1.399-3.024-3.317v-.146h6.731c0-.114.016-.244.016-.342-.081-2.455-1.593-3.886-3.804-3.886-2.26 0-3.805 1.724-3.805 4.162 0 2.586 1.61 4.277 3.951 4.277zm-3.024-4.91c.13-1.675 1.382-2.797 2.894-2.797 1.61 0 2.764.992 2.894 2.796h-5.788zM517.529 74h.96l2.731-3.626L523.952 74h1.008l-3.203-4.211 3.04-4.032h-.943l-2.601 3.414-2.569-3.414h-.992l3.04 4.032L517.529 74zm8.37-.537c0 .374.26.618.618.618s.618-.244.618-.618c0-.373-.26-.601-.618-.601s-.618.228-.618.602zM332.606 43h3.152l3.017-9.374L341.684 43h3.124l4.58-13.792h-2.963l-3.26 10.56-3.017-10.56h-2.666l-3.152 10.56-3.151-10.56h-3.071L332.606 43zm25.559-13.953c-2.155 0-3.475.97-4.337 2.155v-7.058h-2.909V43h2.909v-6.977c0-2.774 1.401-4.471 3.691-4.471 2.154 0 3.313 1.4 3.313 4.014V43h2.909v-7.677c0-4.606-2.505-6.276-5.576-6.276zm14.662 14.115c3.421 0 5.738-2.075 6.222-4.795h-2.909c-.404 1.535-1.697 2.424-3.475 2.424-2.289 0-3.771-1.535-3.852-3.879v-.188h10.398c.054-.377.081-.755.081-1.105-.081-4.04-2.748-6.572-6.734-6.572-4.068 0-6.788 2.828-6.788 7.084 0 4.23 2.72 7.03 7.057 7.03zm-3.906-8.566c.216-1.967 1.805-3.206 3.664-3.206 2.02 0 3.447 1.159 3.69 3.206h-7.354zm19.996-5.55c-2.236 0-3.556.89-4.418 1.967l-.323-1.805h-2.532V43h2.909v-6.95c0-2.801 1.374-4.498 3.69-4.498 2.182 0 3.286 1.4 3.286 4.014V43h2.937v-7.677c0-4.606-2.506-6.276-5.549-6.276zm21.605 14.116c4.202 0 7.03-2.829 7.03-7.058 0-4.202-2.828-7.057-7.03-7.057s-7.031 2.855-7.031 7.057c0 4.23 2.829 7.058 7.031 7.058zm0-2.479c-2.451 0-4.041-1.912-4.041-4.579 0-2.666 1.59-4.579 4.041-4.579 2.451 0 4.067 1.913 4.067 4.58 0 2.666-1.616 4.578-4.067 4.578zm10.261-1.427c0 2.505 1.131 3.744 3.771 3.744h2.694v-2.559h-2.047c-1.105 0-1.482-.404-1.482-1.482v-7.192h3.367v-2.559h-3.367v-3.851h-2.936v3.851h-2.397v2.56h2.397v7.488zm15.561-10.21c-2.154 0-3.474.97-4.336 2.156v-7.058h-2.91V43h2.91v-6.977c0-2.774 1.4-4.471 3.69-4.471 2.155 0 3.313 1.4 3.313 4.014V43h2.909v-7.677c0-4.606-2.505-6.276-5.576-6.276zm14.662 14.116c3.421 0 5.738-2.075 6.223-4.795h-2.909c-.404 1.535-1.697 2.424-3.475 2.424-2.29 0-3.771-1.535-3.852-3.879v-.188h10.397c.054-.377.081-.755.081-1.105-.081-4.04-2.747-6.572-6.734-6.572-4.067 0-6.788 2.828-6.788 7.084 0 4.23 2.721 7.03 7.057 7.03zm-3.905-8.566c.215-1.967 1.804-3.206 3.663-3.206 2.02 0 3.448 1.159 3.69 3.206h-7.353zm19.699-5.388c-2.263 0-3.367.916-4.068 2.075l-.323-2.075h-2.586V43h2.909v-6.923c0-2.128.835-4.148 3.421-4.148h1.293v-2.72h-.646zm1.611 9.24c.081 2.99 2.613 4.714 6.303 4.714 3.34 0 5.845-1.67 5.845-4.31 0-3.071-2.558-3.717-5.71-4.095-1.993-.215-3.313-.377-3.313-1.67 0-1.104 1.131-1.804 2.855-1.804s2.909.889 3.071 2.154h2.855c-.189-2.828-2.586-4.39-5.98-4.39-3.313-.027-5.657 1.67-5.657 4.283 0 2.855 2.479 3.528 5.63 3.906 2.128.269 3.394.377 3.394 1.858 0 1.105-1.185 1.805-2.99 1.805-2.101 0-3.34-1.024-3.448-2.451h-2.855zm27.625 4.714c3.529 0 5.872-1.967 6.411-5.091h-3.071c-.35 1.589-1.535 2.612-3.313 2.612-2.343 0-3.879-1.858-3.879-4.552 0-2.72 1.536-4.606 3.879-4.606 1.805 0 2.963.997 3.34 2.613h3.044c-.566-3.125-2.774-5.091-6.33-5.091-4.175 0-6.923 2.828-6.923 7.084 0 4.31 2.667 7.03 6.842 7.03zm21.244-2.694c-.593 0-.889-.189-.889-.889v-5.522c0-3.26-2.101-5.01-5.764-5.01-3.475 0-5.792 1.67-6.088 4.364h2.855c.216-1.213 1.374-2.02 3.098-2.02 1.912 0 3.017.942 3.017 2.477v.835h-3.475c-3.852 0-5.899 1.59-5.899 4.418 0 2.56 2.101 4.04 5.118 4.04 2.236 0 3.636-.97 4.552-2.37 0 1.374.647 2.209 2.532 2.209h1.536v-2.532h-.593zm-3.771-3.125c-.027 2.128-1.428 3.556-3.852 3.556-1.589 0-2.559-.808-2.559-1.966 0-1.401.997-2.075 2.801-2.075h3.61v.485zm13.221-8.296c-2.236 0-3.555.889-4.417 1.966l-.324-1.805h-2.532V43h2.909v-6.95c0-2.801 1.374-4.498 3.691-4.498 2.182 0 3.286 1.4 3.286 4.014V43h2.936v-7.677c0-4.606-2.505-6.276-5.549-6.276zm8.884-5.064c-1.239 0-2.047.808-2.047 1.831 0 1.132.7 1.724 1.589 1.724.323 0 .647-.107.889-.296.027.135.027.242.027.377 0 .943-.674 1.994-2.371 1.994v1.589c2.667-.027 4.337-1.509 4.337-4.122 0-1.75-.943-3.097-2.424-3.097zm6.2 15.273c0 2.505 1.131 3.744 3.771 3.744h2.694v-2.559h-2.048c-1.104 0-1.481-.404-1.481-1.482v-7.192h3.367v-2.559h-3.367v-3.851h-2.936v3.851h-2.398v2.56h2.398v7.488zm8.204 2.074c0 1.077.781 1.832 1.858 1.832 1.078 0 1.886-.755 1.886-1.832 0-1.078-.808-1.832-1.886-1.832-1.077 0-1.858.755-1.858 1.832z" fill="#000"/><path d="M.924 15.375h9.978V43h5.313V15.375h9.978v-4.712H.923v4.712zM47.66 38.658c-1.016 0-1.524-.324-1.524-1.525v-9.47c0-5.59-3.603-8.592-9.886-8.592-5.959 0-9.932 2.864-10.44 7.483h4.897c.37-2.078 2.356-3.464 5.312-3.464 3.28 0 5.174 1.617 5.174 4.25v1.432h-5.959c-6.606 0-10.117 2.725-10.117 7.576 0 4.388 3.604 6.93 8.777 6.93 3.835 0 6.237-1.664 7.807-4.066 0 2.356 1.109 3.788 4.343 3.788h2.633v-4.342H47.66zm-6.467-5.359c-.046 3.65-2.448 6.098-6.606 6.098-2.725 0-4.388-1.386-4.388-3.372 0-2.403 1.709-3.557 4.804-3.557h6.19v.831zM51.395 43h4.99v-6.005l4.25-4.435L67.61 43h5.913l-9.47-14.09 8.916-9.562h-5.867L56.384 30.805V10.663h-4.989V43zm34.278.277c5.867 0 9.84-3.557 10.671-8.223h-4.989c-.693 2.634-2.91 4.158-5.959 4.158-3.926 0-6.467-2.633-6.606-6.652v-.324h17.832a13.55 13.55 0 00.138-1.893c-.138-6.93-4.712-11.272-11.549-11.272-6.975 0-11.64 4.85-11.64 12.15 0 7.252 4.665 12.056 12.102 12.056zm-6.698-14.69c.37-3.372 3.095-5.497 6.283-5.497 3.464 0 5.913 1.986 6.328 5.497H78.975zm55.257 10.07c-1.016 0-1.524-.323-1.524-1.524v-9.47c0-5.59-3.603-8.592-9.886-8.592-5.959 0-9.932 2.864-10.44 7.483h4.897c.369-2.078 2.356-3.464 5.312-3.464 3.28 0 5.174 1.617 5.174 4.25v1.432h-5.959c-6.606 0-10.117 2.725-10.117 7.576 0 4.388 3.603 6.93 8.777 6.93 3.834 0 6.237-1.664 7.807-4.066 0 2.356 1.109 3.788 4.343 3.788h2.633v-4.342h-1.017zm-6.467-5.358c-.046 3.65-2.448 6.098-6.606 6.098-2.725 0-4.388-1.386-4.388-3.372 0-2.403 1.709-3.557 4.804-3.557h6.19v.831zm34.678-14.228c-3.695 0-6.144 1.71-7.714 3.788l-.601-3.51h-4.342v32.89h4.989V39.674c1.478 2.125 4.019 3.603 7.668 3.603 6.468 0 11.18-4.804 11.18-12.103 0-7.576-4.712-12.103-11.18-12.103zm-.831 20.002c-4.158 0-6.883-3.28-6.883-7.991 0-4.574 2.725-7.761 6.883-7.761 4.157 0 6.929 3.187 6.929 7.853 0 4.62-2.772 7.9-6.929 7.9zm27.187 4.204c7.207 0 12.057-4.85 12.057-12.103 0-7.206-4.85-12.103-12.057-12.103-7.206 0-12.057 4.897-12.057 12.103 0 7.253 4.851 12.103 12.057 12.103zm0-4.25c-4.203 0-6.929-3.28-6.929-7.853s2.726-7.853 6.929-7.853c4.204 0 6.976 3.28 6.976 7.853s-2.772 7.853-6.976 7.853zm14.918-3.834c.138 5.128 4.48 8.084 10.809 8.084 5.728 0 10.025-2.864 10.025-7.391 0-5.266-4.389-6.375-9.794-7.022-3.418-.37-5.682-.646-5.682-2.864 0-1.894 1.94-3.095 4.897-3.095 2.956 0 4.989 1.524 5.266 3.696h4.897c-.324-4.85-4.435-7.53-10.256-7.53-5.682-.046-9.701 2.864-9.701 7.345 0 4.897 4.25 6.052 9.655 6.698 3.65.462 5.821.647 5.821 3.188 0 1.894-2.033 3.095-5.128 3.095-3.603 0-5.728-1.756-5.913-4.204h-4.896zm27.241-19.171c1.709 0 3.049-1.247 3.049-3.003 0-1.755-1.34-3.002-3.049-3.002-1.71 0-3.049 1.247-3.049 3.002 0 1.756 1.339 3.003 3.049 3.003zM228.417 43h4.989V19.348h-4.989V43zm11.589-6.421c0 4.296 1.94 6.421 6.467 6.421h4.62v-4.389h-3.511c-1.894 0-2.541-.692-2.541-2.54V23.737h5.774v-4.389h-5.774v-6.606h-5.035v6.606h-4.112v4.389h4.112v12.842zm16.801-20.557c1.709 0 3.049-1.247 3.049-3.003 0-1.755-1.34-3.002-3.049-3.002-1.709 0-3.049 1.247-3.049 3.002 0 1.756 1.34 3.003 3.049 3.003zM254.266 43h4.989V19.348h-4.989V43zm21.059.277c7.207 0 12.057-4.85 12.057-12.103 0-7.206-4.85-12.103-12.057-12.103-7.206 0-12.057 4.897-12.057 12.103 0 7.253 4.851 12.103 12.057 12.103zm0-4.25c-4.204 0-6.929-3.28-6.929-7.853s2.725-7.853 6.929-7.853c4.204 0 6.976 3.28 6.976 7.853s-2.772 7.853-6.976 7.853zm28.542-19.956c-3.835 0-6.098 1.524-7.576 3.372l-.555-3.095h-4.342V43h4.989V31.082c0-4.805 2.356-7.715 6.329-7.715 3.742 0 5.636 2.402 5.636 6.883V43h5.035V29.834c0-7.899-4.296-10.763-9.516-10.763z" fill="url(#paint0_linear_19_18749)"/><defs><linearGradient id="paint0_linear_19_18749" x1="344" y1="28.5" x2="0" y2="28.5" gradientUnits="userSpaceOnUse"><stop stop-color="#FF4343"/><stop offset=".5" stop-color="#9C0B93"/><stop offset="1" stop-color="#4C1BB7"/></linearGradient></defs></svg>