<svg width="390" height="26" viewBox="0 0 390 26" fill="none" xmlns="http://www.w3.org/2000/svg"><path d="M7.14 25h4.59l4.794-17.51L21.386 25h4.556l6.834-23.8h-4.012l-5.1 18.836L18.496 1.2H14.79L9.486 20.036 4.42 1.166.374 1.2 7.14 25zM44.051 7.388c-2.72 0-4.386 1.224-5.474 2.72V1.2h-3.671V25h3.672v-8.806c0-3.502 1.767-5.644 4.657-5.644 2.72 0 4.182 1.768 4.182 5.066V25h3.672v-9.69c0-5.814-3.161-7.922-7.038-7.922zm18.473 17.816c5.304 0 8.874-3.57 8.874-8.908 0-5.304-3.57-8.908-8.874-8.908s-8.874 3.604-8.874 8.908c0 5.338 3.57 8.908 8.874 8.908zm0-3.128c-3.094 0-5.1-2.414-5.1-5.78s2.006-5.78 5.1-5.78 5.134 2.414 5.134 5.78-2.04 5.78-5.134 5.78zM87.062 25h3.978l3.808-11.832L98.52 25h3.944l5.78-17.408h-3.74L100.39 20.92 96.582 7.592h-3.366L89.238 20.92 85.26 7.592h-3.876L87.062 25zm24.985-19.856c1.258 0 2.244-.918 2.244-2.21 0-1.292-.986-2.21-2.244-2.21-1.258 0-2.244.918-2.244 2.21 0 1.292.986 2.21 2.244 2.21zM110.177 25h3.672V7.592h-3.672V25zm7.271 0h3.672V1.2h-3.672V25zm7.272 0h3.672V1.2h-3.672V25zm25.287-17.612c-2.686 0-4.488 1.224-5.644 2.788V1.2h-3.672V25h3.196l.442-2.516c1.088 1.564 2.958 2.72 5.678 2.72 4.76 0 8.228-3.57 8.228-8.908 0-5.61-3.468-8.908-8.228-8.908zm-.612 14.722c-3.06 0-5.066-2.414-5.066-5.848 0-3.366 2.006-5.746 5.066-5.746s5.1 2.38 5.1 5.78c0 3.434-2.04 5.814-5.1 5.814zm20.044 3.094c4.318 0 7.242-2.618 7.854-6.052h-3.672c-.51 1.938-2.142 3.06-4.386 3.06-2.89 0-4.76-1.938-4.862-4.896v-.238h13.124c.068-.476.102-.952.102-1.394-.102-5.1-3.468-8.296-8.5-8.296-5.134 0-8.568 3.57-8.568 8.942 0 5.338 3.434 8.874 8.908 8.874zm-4.93-10.812c.272-2.482 2.278-4.046 4.624-4.046 2.55 0 4.352 1.462 4.658 4.046h-9.282zm26.016 5.882c0 3.162 1.428 4.726 4.76 4.726h3.4v-3.23h-2.584c-1.394 0-1.87-.51-1.87-1.87v-9.078h4.25v-3.23h-4.25V2.73h-3.706v4.862h-3.026v3.23h3.026v9.452zm19.642-12.886c-2.72 0-4.386 1.224-5.474 2.72V1.2h-3.672V25h3.672v-8.806c0-3.502 1.768-5.644 4.658-5.644 2.72 0 4.182 1.768 4.182 5.066V25h3.672v-9.69c0-5.814-3.162-7.922-7.038-7.922zm18.506 17.816c4.318 0 7.242-2.618 7.854-6.052h-3.672c-.51 1.938-2.142 3.06-4.386 3.06-2.89 0-4.76-1.938-4.862-4.896v-.238h13.124c.068-.476.102-.952.102-1.394-.102-5.1-3.468-8.296-8.5-8.296-5.134 0-8.568 3.57-8.568 8.942 0 5.338 3.434 8.874 8.908 8.874zm-4.93-10.812c.272-2.482 2.278-4.046 4.624-4.046 2.55 0 4.352 1.462 4.658 4.046h-9.282zm33.938-7.004c-2.822 0-4.488 1.122-5.576 2.482l-.408-2.278h-3.196V25h3.672v-8.772c0-3.536 1.734-5.678 4.658-5.678 2.754 0 4.148 1.768 4.148 5.066V25h3.706v-9.69c0-5.814-3.162-7.922-7.004-7.922zm18.473 17.816c4.318 0 7.242-2.618 7.854-6.052h-3.672c-.51 1.938-2.142 3.06-4.386 3.06-2.89 0-4.76-1.938-4.862-4.896v-.238h13.124c.068-.476.102-.952.102-1.394-.102-5.1-3.468-8.296-8.5-8.296-5.134 0-8.568 3.57-8.568 8.942 0 5.338 3.434 8.874 8.908 8.874zm-4.93-10.812c.272-2.482 2.278-4.046 4.624-4.046 2.55 0 4.352 1.462 4.658 4.046h-9.282zM284.684 25h4.046l4.59-6.324L297.876 25h4.284l-6.562-8.908 6.188-8.5h-4.046l-4.25 5.882-4.148-5.882h-4.284l6.154 8.5L284.684 25zm20.757-4.726c0 3.162 1.428 4.726 4.76 4.726h3.4v-3.23h-2.584c-1.394 0-1.87-.51-1.87-1.87v-9.078h4.25v-3.23h-4.25V2.73h-3.706v4.862h-3.026v3.23h3.026v9.452zM325.01 25h3.91v-8.636h5.474c4.964 0 8.228-2.992 8.228-7.582 0-4.624-3.264-7.582-8.228-7.582h-9.384V25zm9.078-20.4c2.788 0 4.556 1.598 4.556 4.182 0 2.55-1.802 4.182-4.59 4.182h-5.134V4.6h5.168zM345.629 25h3.774V7.49l7.14 17.51h3.298l7.14-17.51V25h3.774V1.2h-4.964l-7.48 18.734L350.695 1.2h-5.066V25zm32.035-16.014c0-2.822 1.7-4.726 4.318-4.726 2.278 0 3.808 1.36 3.808 3.298 0 1.632-.884 2.72-2.414 3.74-2.04 1.326-3.638 2.448-3.638 5.202v1.088h3.468v-.68c0-1.7 1.156-2.584 2.992-3.842 1.768-1.258 3.4-2.754 3.4-5.882 0-3.57-2.924-6.188-7.65-6.188-5.066 0-8.024 3.57-8.024 7.99h3.74zm1.564 13.94c0 1.36 1.02 2.278 2.346 2.278s2.312-.918 2.312-2.278c0-1.36-.986-2.278-2.312-2.278-1.326 0-2.346.918-2.346 2.278z" fill="#000"/></svg>