<svg width="437" height="38" viewBox="0 0 437 38" fill="none" xmlns="http://www.w3.org/2000/svg"><path d="M.32 1.6h3.84V12h.864V1.6h3.84V.8H.32v.8zm12.264 2.288c-1.503 0-2.143.72-2.48 1.616l-.127-1.616h-.704V12h.816V7.888c0-1.648.431-3.216 2.335-3.216h.593v-.784h-.432zm8.434 7.36c-.48 0-.72-.16-.72-.784V6.688c0-1.856-1.136-2.896-3.168-2.896-1.856 0-3.088.896-3.296 2.368h.816c.208-.992 1.072-1.648 2.448-1.648 1.52 0 2.384.8 2.384 2.144v.704H16.73c-2.08 0-3.2.896-3.2 2.416 0 1.44 1.136 2.32 2.864 2.32 1.648 0 2.624-.752 3.12-1.76v.288c-.032.96.368 1.376 1.328 1.376h.48v-.752h-.304zM19.482 8.72c0 1.552-1.104 2.672-3.024 2.672-1.296 0-2.096-.656-2.096-1.664 0-1.072.8-1.664 2.304-1.664h2.816v.656zm9.43-3.008c-.496-1.152-1.584-1.92-3.104-1.92-2.224 0-3.824 1.696-3.824 4.144 0 2.56 1.6 4.16 3.824 4.16 1.52 0 2.576-.816 3.088-1.952L29.024 12h.704V.8h-.816v4.912zm-3.04 5.648c-1.808 0-3.056-1.408-3.056-3.424 0-2 1.248-3.424 3.056-3.424s3.056 1.424 3.056 3.44c0 2-1.248 3.408-3.056 3.408zm9.36.736c1.776 0 3.136-1.152 3.487-2.784h-.831c-.32 1.264-1.392 2.048-2.72 2.048-1.809 0-2.944-1.376-2.977-3.264v-.144h6.624c0-.112.017-.24.017-.336-.08-2.416-1.569-3.824-3.745-3.824-2.224 0-3.744 1.696-3.744 4.096 0 2.544 1.585 4.208 3.888 4.208zm-2.977-4.832c.128-1.648 1.36-2.752 2.848-2.752 1.584 0 2.72.976 2.849 2.752h-5.697zm13.11 2.848c0 1.296.528 1.888 1.904 1.888h1.184v-.752h-1.12c-.848 0-1.152-.32-1.152-1.152V4.64h2.192v-.752H46.18V1.616h-.816v2.272h-1.536v.752h1.536v5.472zm8.073-6.32c-1.52 0-2.464.848-2.928 2.016V.8h-.816V12h.816V8c0-2.112 1.072-3.456 2.8-3.456 1.552 0 2.512 1.024 2.512 2.944V12h.816V7.456c0-2.56-1.36-3.664-3.2-3.664zm8.481 8.304c1.776 0 3.136-1.152 3.488-2.784h-.832c-.32 1.264-1.392 2.048-2.72 2.048-1.808 0-2.944-1.376-2.976-3.264v-.144h6.624c0-.112.016-.24.016-.336-.08-2.416-1.568-3.824-3.744-3.824-2.224 0-3.744 1.696-3.744 4.096 0 2.544 1.584 4.208 3.888 4.208zm-2.976-4.832c.128-1.648 1.36-2.752 2.848-2.752 1.584 0 2.72.976 2.848 2.752h-5.696zM71.444 12h.816V.8h-.816V12zm6.319.096c1.776 0 3.136-1.152 3.488-2.784h-.832c-.32 1.264-1.392 2.048-2.72 2.048-1.808 0-2.944-1.376-2.976-3.264v-.144h6.624c0-.112.016-.24.016-.336-.08-2.416-1.568-3.824-3.744-3.824-2.224 0-3.744 1.696-3.744 4.096 0 2.544 1.584 4.208 3.888 4.208zm-2.976-4.832c.128-1.648 1.36-2.752 2.848-2.752 1.584 0 2.72.976 2.848 2.752h-5.696zm15.325 3.984c-.48 0-.72-.16-.72-.784V6.688c0-1.856-1.136-2.896-3.168-2.896-1.856 0-3.088.896-3.296 2.368h.816c.208-.992 1.072-1.648 2.448-1.648 1.52 0 2.384.8 2.384 2.144v.704h-2.752c-2.08 0-3.2.896-3.2 2.416 0 1.44 1.136 2.32 2.864 2.32 1.648 0 2.624-.752 3.12-1.76v.288c-.032.96.368 1.376 1.328 1.376h.48v-.752h-.304zM88.576 8.72c0 1.552-1.104 2.672-3.024 2.672-1.296 0-2.096-.656-2.096-1.664 0-1.072.8-1.664 2.304-1.664h2.816v.656zm9.43-3.008c-.496-1.152-1.584-1.92-3.104-1.92-2.224 0-3.824 1.696-3.824 4.144 0 2.56 1.6 4.16 3.824 4.16 1.52 0 2.576-.816 3.088-1.952L98.118 12h.704V.8h-.816v4.912zm-3.04 5.648c-1.808 0-3.056-1.408-3.056-3.424 0-2 1.248-3.424 3.056-3.424s3.056 1.424 3.056 3.44c0 2-1.248 3.408-3.056 3.408zm9.359.736c1.776 0 3.136-1.152 3.488-2.784h-.832c-.32 1.264-1.392 2.048-2.72 2.048-1.808 0-2.944-1.376-2.976-3.264v-.144h6.624c0-.112.016-.24.016-.336-.08-2.416-1.568-3.824-3.744-3.824-2.224 0-3.744 1.696-3.744 4.096 0 2.544 1.584 4.208 3.888 4.208zm-2.976-4.832c.128-1.648 1.36-2.752 2.848-2.752 1.584 0 2.72.976 2.848 2.752h-5.696zm11.501-3.376c-1.504 0-2.144.72-2.48 1.616l-.128-1.616h-.704V12h.816V7.888c0-1.648.432-3.216 2.336-3.216h.592v-.784h-.432zm1.07 5.616c.064 1.68 1.424 2.592 3.456 2.592 1.744 0 3.152-.88 3.152-2.32 0-1.712-1.504-2.048-3.248-2.288-1.264-.176-2.384-.32-2.384-1.456 0-.928.912-1.536 2.288-1.536 1.296 0 2.224.624 2.368 1.68h.832c-.144-1.584-1.44-2.384-3.2-2.384-1.808-.016-3.104.912-3.104 2.304 0 1.632 1.504 1.936 3.168 2.16 1.36.192 2.464.368 2.464 1.568 0 .96-1.008 1.568-2.336 1.568-1.552 0-2.56-.72-2.624-1.888h-.832zm11.909-5.712c-1.52 0-2.464.848-2.928 2.016V.8h-.816V12h.816V8c0-2.112 1.072-3.456 2.8-3.456 1.552 0 2.512 1.024 2.512 2.944V12h.816V7.456c0-2.56-1.36-3.664-3.2-3.664zm5.438-1.616c.32 0 .576-.24.576-.576a.564.564 0 00-.576-.576c-.32 0-.576.24-.576.576 0 .336.256.576.576.576zM130.851 12h.816V3.888h-.816V12zm6.654-8.208c-1.52 0-2.576.816-3.088 1.952l-.128-1.856h-.704V15.2h.816v-5.072c.464 1.184 1.568 1.968 3.104 1.968 2.224 0 3.824-1.696 3.824-4.16 0-2.544-1.6-4.144-3.824-4.144zm-.064 7.568c-1.808 0-3.056-1.408-3.056-3.44 0-1.984 1.248-3.408 3.056-3.408s3.056 1.424 3.056 3.424c0 2.016-1.248 3.424-3.056 3.424zm13.128-7.472c-1.504 0-2.144.72-2.48 1.616l-.128-1.616h-.704V12h.816V7.888c0-1.648.432-3.216 2.336-3.216h.592v-.784h-.432zm8.433 7.36c-.48 0-.72-.16-.72-.784V6.688c0-1.856-1.136-2.896-3.168-2.896-1.856 0-3.088.896-3.296 2.368h.816c.208-.992 1.072-1.648 2.448-1.648 1.52 0 2.384.8 2.384 2.144v.704h-2.752c-2.08 0-3.2.896-3.2 2.416 0 1.44 1.136 2.32 2.864 2.32 1.648 0 2.624-.752 3.12-1.76v.288c-.032.96.368 1.376 1.328 1.376h.48v-.752h-.304zm-1.536-2.528c0 1.552-1.104 2.672-3.024 2.672-1.296 0-2.096-.656-2.096-1.664 0-1.072.8-1.664 2.304-1.664h2.816v.656zm6.343 3.376c1.84 0 3.136-1.056 3.456-2.704h-.864c-.272 1.2-1.248 1.968-2.592 1.968-1.776 0-3.008-1.392-3.008-3.408s1.216-3.44 3.008-3.44c1.36 0 2.32.768 2.608 1.984h.848c-.336-1.68-1.6-2.704-3.44-2.704-2.288 0-3.856 1.696-3.856 4.16 0 2.496 1.552 4.144 3.84 4.144zm8.626 0c1.776 0 3.136-1.152 3.488-2.784h-.832c-.32 1.264-1.392 2.048-2.72 2.048-1.808 0-2.944-1.376-2.976-3.264v-.144h6.624c0-.112.016-.24.016-.336-.08-2.416-1.568-3.824-3.744-3.824-2.224 0-3.744 1.696-3.744 4.096 0 2.544 1.584 4.208 3.888 4.208zm-2.976-4.832c.128-1.648 1.36-2.752 2.848-2.752 1.584 0 2.72.976 2.848 2.752h-5.696zM184.312 12h.976l3.168-8.112h-.848l-2.784 7.168-2.8-7.168h-.88L184.312 12zm8.498.096c2.288 0 3.904-1.696 3.904-4.16 0-2.448-1.616-4.144-3.904-4.144s-3.888 1.696-3.888 4.144c0 2.464 1.6 4.16 3.888 4.16zm0-.736c-1.808 0-3.056-1.408-3.056-3.424 0-2 1.248-3.424 3.056-3.424s3.056 1.424 3.056 3.424c0 2.016-1.248 3.424-3.056 3.424zm5.525.64h.816V.8h-.816V12zm9.87-.752c-.48 0-.72-.16-.72-.784V6.688c0-1.856-1.136-2.896-3.168-2.896-1.856 0-3.088.896-3.296 2.368h.816c.208-.992 1.072-1.648 2.448-1.648 1.52 0 2.384.8 2.384 2.144v.704h-2.752c-2.08 0-3.2.896-3.2 2.416 0 1.44 1.136 2.32 2.864 2.32 1.648 0 2.624-.752 3.12-1.76v.288c-.032.96.368 1.376 1.328 1.376h.48v-.752h-.304zm-1.536-2.528c0 1.552-1.104 2.672-3.024 2.672-1.296 0-2.096-.656-2.096-1.664 0-1.072.8-1.664 2.304-1.664h2.816v.656zm3.54 1.392c0 1.296.528 1.888 1.904 1.888h1.184v-.752h-1.12c-.848 0-1.152-.32-1.152-1.152V4.64h2.192v-.752h-2.192V1.616h-.816v2.272h-1.536v.752h1.536v5.472zm4.745-7.936c.32 0 .576-.24.576-.576a.564.564 0 00-.576-.576c-.32 0-.576.24-.576.576 0 .336.256.576.576.576zM214.538 12h.816V3.888h-.816V12zm2.735 0h.816V.8h-.816V12zm3.15-9.824c.32 0 .576-.24.576-.576a.564.564 0 00-.576-.576c-.32 0-.576.24-.576.576 0 .336.256.576.576.576zM220.007 12h.816V3.888h-.816V12zm3.342-1.888c0 1.296.528 1.888 1.904 1.888h1.184v-.752h-1.12c-.848 0-1.152-.32-1.152-1.152V4.64h2.192v-.752h-2.192V1.616h-.816v2.272h-1.536v.752h1.536v5.472zM230.111 12l-.528 1.312c-.368.896-.512 1.136-1.344 1.136h-1.024v.752h1.248c1.088 0 1.344-.416 1.856-1.696l3.888-9.616h-.88l-2.768 7.056-2.816-7.056h-.88L230.111 12zm11.473 0h.88l2.4-6.816L247.152 12h.88l2.88-8.112h-.832l-2.496 7.136-2.32-7.136h-.752l-2.448 7.136-2.368-7.136h-.864L241.584 12zm10.886-9.824c.32 0 .576-.24.576-.576a.564.564 0 00-.576-.576c-.32 0-.576.24-.576.576 0 .336.256.576.576.576zM252.054 12h.816V3.888h-.816V12zm3.342-1.888c0 1.296.528 1.888 1.904 1.888h1.184v-.752h-1.12c-.848 0-1.152-.32-1.152-1.152V4.64h2.192v-.752h-2.192V1.616h-.816v2.272h-1.536v.752h1.536v5.472zm8.074-6.32c-1.52 0-2.464.848-2.928 2.016V.8h-.816V12h.816V8c0-2.112 1.072-3.456 2.8-3.456 1.552 0 2.512 1.024 2.512 2.944V12h.816V7.456c0-2.56-1.36-3.664-3.2-3.664zm18.39 0c-1.488 0-2.448.832-2.912 2.032-.384-1.344-1.392-2.032-2.672-2.032-1.392 0-2.224.816-2.64 1.824l-.128-1.728h-.704V12h.816V7.872c0-1.984.96-3.328 2.512-3.328 1.408 0 2.288.992 2.288 2.864V12h.816V7.584c.048-1.856 1.008-3.04 2.528-3.04 1.408 0 2.256.944 2.256 2.784V12h.832V7.296c0-2.448-1.296-3.504-2.992-3.504zm11.939 7.456c-.48 0-.72-.16-.72-.784V6.688c0-1.856-1.136-2.896-3.168-2.896-1.856 0-3.088.896-3.296 2.368h.816c.208-.992 1.072-1.648 2.448-1.648 1.52 0 2.384.8 2.384 2.144v.704h-2.752c-2.08 0-3.2.896-3.2 2.416 0 1.44 1.136 2.32 2.864 2.32 1.648 0 2.624-.752 3.12-1.76v.288c-.032.96.368 1.376 1.328 1.376h.48v-.752h-.304zm-1.536-2.528c0 1.552-1.104 2.672-3.024 2.672-1.296 0-2.096-.656-2.096-1.664 0-1.072.8-1.664 2.304-1.664h2.816v.656zm6.243-4.832c-1.504 0-2.144.72-2.48 1.616l-.128-1.616h-.704V12h.816V7.888c0-1.648.432-3.216 2.336-3.216h.592v-.784h-.432zM300.148 12h.816V9.808l1.904-1.952L305.972 12h.992l-3.536-4.736 3.264-3.376h-1.008l-4.72 4.864V.8h-.816V12zm11.052.096c1.776 0 3.136-1.152 3.488-2.784h-.832c-.32 1.264-1.392 2.048-2.72 2.048-1.808 0-2.944-1.376-2.976-3.264v-.144h6.624c0-.112.016-.24.016-.336-.08-2.416-1.568-3.824-3.744-3.824-2.224 0-3.744 1.696-3.744 4.096 0 2.544 1.584 4.208 3.888 4.208zm-2.976-4.832c.128-1.648 1.36-2.752 2.848-2.752 1.584 0 2.72.976 2.848 2.752h-5.696zm8.672 2.848c0 1.296.528 1.888 1.904 1.888h1.184v-.752h-1.12c-.848 0-1.152-.32-1.152-1.152V4.64h2.192v-.752h-2.192V1.616h-.816v2.272h-1.536v.752h1.536v5.472zm8.966-2.32v-.688h-5.168v.688h5.168zM327.773 12h.816V.8h-.816V12zm6.318.096c1.776 0 3.136-1.152 3.488-2.784h-.832c-.32 1.264-1.392 2.048-2.72 2.048-1.808 0-2.944-1.376-2.976-3.264v-.144h6.624c0-.112.016-.24.016-.336-.08-2.416-1.568-3.824-3.744-3.824-2.224 0-3.744 1.696-3.744 4.096 0 2.544 1.584 4.208 3.888 4.208zm-2.976-4.832c.128-1.648 1.36-2.752 2.848-2.752 1.584 0 2.72.976 2.848 2.752h-5.696zm15.325 3.984c-.48 0-.72-.16-.72-.784V6.688c0-1.856-1.136-2.896-3.168-2.896-1.856 0-3.088.896-3.296 2.368h.816c.208-.992 1.072-1.648 2.448-1.648 1.52 0 2.384.8 2.384 2.144v.704h-2.752c-2.08 0-3.2.896-3.2 2.416 0 1.44 1.136 2.32 2.864 2.32 1.648 0 2.624-.752 3.12-1.76v.288c-.032.96.368 1.376 1.328 1.376h.48v-.752h-.304zm-1.536-2.528c0 1.552-1.104 2.672-3.024 2.672-1.296 0-2.096-.656-2.096-1.664 0-1.072.8-1.664 2.304-1.664h2.816v.656zm9.43-3.008c-.496-1.152-1.584-1.92-3.104-1.92-2.224 0-3.824 1.696-3.824 4.144 0 2.56 1.6 4.16 3.824 4.16 1.52 0 2.576-.816 3.088-1.952l.128 1.856h.704V.8h-.816v4.912zm-3.04 5.648c-1.808 0-3.056-1.408-3.056-3.424 0-2 1.248-3.424 3.056-3.424s3.056 1.424 3.056 3.44c0 2-1.248 3.408-3.056 3.408zm6.191-9.184c.32 0 .576-.24.576-.576a.564.564 0 00-.576-.576c-.32 0-.576.24-.576.576 0 .336.256.576.576.576zM357.069 12h.816V3.888h-.816V12zm6.479-8.208c-1.488 0-2.448.768-2.912 1.824l-.128-1.728h-.704V12h.816V8c0-2.112 1.072-3.456 2.8-3.456 1.568 0 2.512 1.024 2.512 2.944V12h.816V7.456c0-2.56-1.36-3.664-3.2-3.664zm11.614 1.984c-.496-1.2-1.584-1.984-3.088-1.984-2.224 0-3.824 1.68-3.824 4.144 0 2.56 1.6 4.16 3.824 4.16 1.52 0 2.592-.8 3.104-2.064v1.44c0 2.16-1.024 3.088-2.976 3.088-1.52 0-2.576-.688-2.832-1.92h-.848c.256 1.728 1.648 2.656 3.616 2.656 2.624 0 3.856-1.248 3.856-3.792V3.888h-.704l-.128 1.888zm-3.024 5.584c-1.808 0-3.056-1.408-3.056-3.424s1.248-3.424 3.056-3.424 3.056 1.408 3.056 3.44c0 2-1.248 3.408-3.056 3.408zm9.72-1.856c.064 1.68 1.424 2.592 3.456 2.592 1.744 0 3.152-.88 3.152-2.32 0-1.712-1.504-2.048-3.248-2.288-1.264-.176-2.384-.32-2.384-1.456 0-.928.912-1.536 2.288-1.536 1.296 0 2.224.624 2.368 1.68h.832c-.144-1.584-1.44-2.384-3.2-2.384-1.808-.016-3.104.912-3.104 2.304 0 1.632 1.504 1.936 3.168 2.16 1.36.192 2.464.368 2.464 1.568 0 .96-1.008 1.568-2.336 1.568-1.552 0-2.56-.72-2.624-1.888h-.832zm12.085-5.712c-1.52 0-2.576.816-3.088 1.952l-.128-1.856h-.704V15.2h.816v-5.072c.464 1.184 1.568 1.968 3.104 1.968 2.224 0 3.824-1.696 3.824-4.16 0-2.544-1.6-4.144-3.824-4.144zm-.064 7.568c-1.808 0-3.056-1.408-3.056-3.44 0-1.984 1.248-3.408 3.056-3.408s3.056 1.424 3.056 3.424c0 2.016-1.248 3.424-3.056 3.424zm8.815-7.472c-1.504 0-2.144.72-2.48 1.616l-.128-1.616h-.704V12h.816V7.888c0-1.648.432-3.216 2.336-3.216h.592v-.784h-.432zm4.647 8.208c1.776 0 3.136-1.152 3.488-2.784h-.832c-.32 1.264-1.392 2.048-2.72 2.048-1.808 0-2.944-1.376-2.976-3.264v-.144h6.624c0-.112.016-.24.016-.336-.08-2.416-1.568-3.824-3.744-3.824-2.224 0-3.744 1.696-3.744 4.096 0 2.544 1.584 4.208 3.888 4.208zm-2.976-4.832c.128-1.648 1.36-2.752 2.848-2.752 1.584 0 2.72.976 2.848 2.752h-5.696zm15.325 3.984c-.48 0-.72-.16-.72-.784V6.688c0-1.856-1.136-2.896-3.168-2.896-1.856 0-3.088.896-3.296 2.368h.816c.208-.992 1.072-1.648 2.448-1.648 1.52 0 2.384.8 2.384 2.144v.704h-2.752c-2.08 0-3.2.896-3.2 2.416 0 1.44 1.136 2.32 2.864 2.32 1.648 0 2.624-.752 3.12-1.76v.288c-.032.96.368 1.376 1.328 1.376h.48v-.752h-.304zm-1.536-2.528c0 1.552-1.104 2.672-3.024 2.672-1.296 0-2.096-.656-2.096-1.664 0-1.072.8-1.664 2.304-1.664h2.816v.656zm9.43-3.008c-.496-1.152-1.584-1.92-3.104-1.92-2.224 0-3.824 1.696-3.824 4.144 0 2.56 1.6 4.16 3.824 4.16 1.52 0 2.576-.816 3.088-1.952l.128 1.856h.704V.8h-.816v4.912zm-3.04 5.648c-1.808 0-3.056-1.408-3.056-3.424 0-2 1.248-3.424 3.056-3.424s3.056 1.424 3.056 3.44c0 2-1.248 3.408-3.056 3.408zm5.407-1.856c.064 1.68 1.424 2.592 3.456 2.592 1.744 0 3.152-.88 3.152-2.32 0-1.712-1.504-2.048-3.248-2.288-1.264-.176-2.384-.32-2.384-1.456 0-.928.912-1.536 2.288-1.536 1.296 0 2.224.624 2.368 1.68h.832c-.144-1.584-1.44-2.384-3.2-2.384-1.808-.016-3.104.912-3.104 2.304 0 1.632 1.504 1.936 3.168 2.16 1.36.192 2.464.368 2.464 1.568 0 .96-1.008 1.568-2.336 1.568-1.552 0-2.56-.72-2.624-1.888h-.832zM4.544 34.096c2.288 0 3.904-1.696 3.904-4.16 0-2.448-1.616-4.144-3.904-4.144S.656 27.488.656 29.936c0 2.464 1.6 4.16 3.888 4.16zm0-.736c-1.808 0-3.056-1.408-3.056-3.424 0-2 1.248-3.424 3.056-3.424S7.6 27.936 7.6 29.936c0 2.016-1.248 3.424-3.056 3.424zm9.27-7.568c-1.489 0-2.449.768-2.913 1.824l-.128-1.728h-.704V34h.816v-4c0-2.112 1.072-3.456 2.8-3.456 1.568 0 2.512 1.024 2.512 2.944V34h.816v-4.544c0-2.56-1.36-3.664-3.2-3.664zm14.166 8.304c2.24 0 3.568-1.232 4.048-2.576l.048 2.48h.752v-5.84h-4.512v.8h3.68v.48c0 2.192-1.52 3.856-4 3.856-2.512 0-4.176-2.016-4.176-4.896 0-2.864 1.664-4.896 4.256-4.896 1.888 0 3.2.976 3.664 2.736h.928c-.464-2.24-2.208-3.536-4.56-3.536-3.168 0-5.184 2.336-5.184 5.696 0 3.376 2.064 5.696 5.056 5.696zM35.152 34h3.888c2.608 0 3.952-1.184 3.952-3.12 0-1.6-1.04-2.448-2.528-2.672 1.248-.32 2.016-1.168 2.016-2.528 0-1.776-1.248-2.88-3.504-2.88h-3.824V34zm3.856-10.416c1.68 0 2.608.816 2.608 2.144 0 1.344-.944 2.16-2.608 2.16h-2.992v-4.304h2.992zm.032 5.088c1.936 0 3.056.784 3.056 2.256 0 1.408-1.04 2.288-3.056 2.288h-3.024v-4.544h3.024zM44.855 34h.864v-4.672h3.296c2.112 0 3.504-1.312 3.504-3.264 0-1.952-1.376-3.264-3.504-3.264h-4.16V34zm4.096-10.4c1.648 0 2.688.992 2.688 2.464 0 1.456-1.056 2.464-2.704 2.464H45.72V23.6h3.232zm13.163 2.192c-1.52 0-2.576.816-3.088 1.952l-.128-1.856h-.704V37.2h.816v-5.072c.464 1.184 1.568 1.968 3.104 1.968 2.224 0 3.824-1.696 3.824-4.16 0-2.544-1.6-4.144-3.824-4.144zm-.064 7.568c-1.808 0-3.056-1.408-3.056-3.44 0-1.984 1.248-3.408 3.056-3.408s3.056 1.424 3.056 3.424c0 2.016-1.248 3.424-3.056 3.424zm12.64-.112c-.48 0-.72-.16-.72-.784v-3.776c0-1.856-1.136-2.896-3.168-2.896-1.856 0-3.088.896-3.296 2.368h.816c.208-.992 1.072-1.648 2.448-1.648 1.52 0 2.384.8 2.384 2.144v.704h-2.752c-2.08 0-3.2.896-3.2 2.416 0 1.44 1.136 2.32 2.864 2.32 1.648 0 2.624-.752 3.12-1.76v.288c-.032.96.368 1.376 1.328 1.376h.48v-.752h-.304zm-1.536-2.528c0 1.552-1.104 2.672-3.024 2.672-1.296 0-2.096-.656-2.096-1.664 0-1.072.8-1.664 2.304-1.664h2.816v.656zm3.347-6.544c.32 0 .576-.24.576-.576a.564.564 0 00-.576-.576c-.32 0-.576.24-.576.576 0 .336.256.576.576.576zM76.085 34h.816v-8.112h-.816V34zm6.046-8.112c-1.504 0-2.144.72-2.48 1.616l-.128-1.616h-.704V34h.816v-4.112c0-1.648.432-3.216 2.336-3.216h.592v-.784h-.432zm1.07 5.616c.064 1.68 1.424 2.592 3.456 2.592 1.744 0 3.152-.88 3.152-2.32 0-1.712-1.504-2.048-3.248-2.288-1.264-.176-2.384-.32-2.384-1.456 0-.928.912-1.536 2.288-1.536 1.296 0 2.224.624 2.368 1.68h.832c-.144-1.584-1.44-2.384-3.2-2.384-1.808-.016-3.104.912-3.104 2.304 0 1.632 1.504 1.936 3.168 2.16 1.36.192 2.464.368 2.464 1.568 0 .96-1.008 1.568-2.336 1.568-1.552 0-2.56-.72-2.624-1.888h-.832zm19.614 1.744c-.48 0-.72-.16-.72-.784v-3.776c0-1.856-1.136-2.896-3.168-2.896-1.856 0-3.088.896-3.296 2.368h.816c.208-.992 1.072-1.648 2.448-1.648 1.52 0 2.384.8 2.384 2.144v.704h-2.752c-2.08 0-3.2.896-3.2 2.416 0 1.44 1.136 2.32 2.864 2.32 1.648 0 2.624-.752 3.12-1.76v.288c-.032.96.368 1.376 1.328 1.376h.48v-.752h-.304zm-1.536-2.528c0 1.552-1.104 2.672-3.024 2.672-1.296 0-2.096-.656-2.096-1.664 0-1.072.8-1.664 2.304-1.664h2.816v.656zm6.675-4.928c-1.488 0-2.448.768-2.912 1.824l-.128-1.728h-.704V34h.816v-4c0-2.112 1.072-3.456 2.8-3.456 1.568 0 2.512 1.024 2.512 2.944V34h.816v-4.544c0-2.56-1.36-3.664-3.2-3.664zm11.505 1.92c-.496-1.152-1.584-1.92-3.104-1.92-2.224 0-3.824 1.696-3.824 4.144 0 2.56 1.6 4.16 3.824 4.16 1.52 0 2.576-.816 3.088-1.952l.128 1.856h.704V22.8h-.816v4.912zm-3.04 5.648c-1.808 0-3.056-1.408-3.056-3.424 0-2 1.248-3.424 3.056-3.424s3.056 1.424 3.056 3.44c0 2-1.248 3.408-3.056 3.408zm10.696-1.248c0 1.296.528 1.888 1.904 1.888h1.184v-.752h-1.12c-.848 0-1.152-.32-1.152-1.152V26.64h2.192v-.752h-2.192v-2.272h-.816v2.272h-1.536v.752h1.536v5.472zm8.073-6.32c-1.52 0-2.464.848-2.928 2.016V22.8h-.816V34h.816v-4c0-2.112 1.072-3.456 2.8-3.456 1.552 0 2.512 1.024 2.512 2.944V34h.816v-4.544c0-2.56-1.36-3.664-3.2-3.664zm8.481 8.304c1.776 0 3.136-1.152 3.488-2.784h-.832c-.32 1.264-1.392 2.048-2.72 2.048-1.808 0-2.944-1.376-2.976-3.264v-.144h6.624c0-.112.016-.24.016-.336-.08-2.416-1.568-3.824-3.744-3.824-2.224 0-3.744 1.696-3.744 4.096 0 2.544 1.584 4.208 3.888 4.208zm-2.976-4.832c.128-1.648 1.36-2.752 2.848-2.752 1.584 0 2.72.976 2.848 2.752h-5.696zM153.386 34h.864v-5.168h4.832v-.8h-4.832V23.6h5.792v-.8h-6.656V34zm7.387-10.4h3.84V34h.864V23.6h3.84v-.8h-8.544v.8zm9.057 6.96c.112 2.112 1.648 3.536 4.16 3.536 2.352 0 3.904-1.28 3.904-3.168 0-2.128-1.888-2.672-3.744-2.992-1.712-.288-3.2-.576-3.2-2.176 0-1.456 1.136-2.272 2.896-2.272 1.68 0 2.832.944 3.024 2.4h.88c-.16-1.92-1.616-3.184-3.904-3.184-2.272 0-3.76 1.2-3.76 3.104 0 2.128 1.824 2.608 3.616 2.912 1.76.304 3.328.656 3.328 2.288 0 1.44-1.216 2.304-3.024 2.304-1.888 0-3.168-1.088-3.28-2.752h-.896zm9.963 3.44h7.104v-.8h-6.24v-4.528h5.056v-.8h-5.056V23.6h6.032v-.8h-6.896V34zm14.583-9.776c0 .512-.24.864-.736.864h-1.92v.752h1.92c.336 0 .576-.096.72-.272V34h.832V22.8h-.816v1.424zm2.767 4.432c0 3.28 1.616 5.44 4.048 5.44 2.4 0 4.032-2.16 4.032-5.44v-.512c0-3.184-1.632-5.44-4.032-5.44-2.432 0-4.048 2.256-4.048 5.44v.512zm7.232-.032c0 2.848-1.264 4.704-3.184 4.704-1.936 0-3.2-1.856-3.2-4.704v-.448c0-2.848 1.264-4.704 3.2-4.704 1.92 0 3.184 1.856 3.184 4.704v.448zm2.377.032c0 3.28 1.616 5.44 4.048 5.44 2.4 0 4.032-2.16 4.032-5.44v-.512c0-3.184-1.632-5.44-4.032-5.44-2.432 0-4.048 2.256-4.048 5.44v.512zm7.232-.032c0 2.848-1.264 4.704-3.184 4.704-1.936 0-3.2-1.856-3.2-4.704v-.448c0-2.848 1.264-4.704 3.2-4.704 1.92 0 3.184 1.856 3.184 4.704v.448zm1.677 4.848c0 .368.256.608.608.608s.608-.24.608-.608-.256-.592-.608-.592-.608.224-.608.592z" fill="#000"/></svg>