<svg width="529" height="20" viewBox="0 0 529 20" fill="none" xmlns="http://www.w3.org/2000/svg"><path d="M.42 1.35h5.04V15h1.134V1.35h5.04V.3H.42v1.05zm16.097 3.003c-1.974 0-2.814.945-3.255 2.121l-.168-2.121h-.924V15h1.071V9.603c0-2.163.567-4.221 3.066-4.221h.777V4.353h-.567zm11.069 9.66c-.63 0-.945-.21-.945-1.029V8.028c0-2.436-1.491-3.801-4.158-3.801-2.436 0-4.053 1.176-4.326 3.108h1.071c.273-1.302 1.407-2.163 3.213-2.163 1.995 0 3.129 1.05 3.129 2.814v.924h-3.612c-2.73 0-4.2 1.176-4.2 3.171 0 1.89 1.491 3.045 3.759 3.045 2.163 0 3.444-.987 4.095-2.31v.378c-.042 1.26.483 1.806 1.743 1.806h.63v-.987h-.399zm-2.016-3.318c0 2.037-1.449 3.507-3.969 3.507-1.701 0-2.751-.861-2.751-2.184 0-1.407 1.05-2.184 3.024-2.184h3.696v.861zm12.377-3.948c-.65-1.512-2.079-2.52-4.074-2.52-2.919 0-5.019 2.226-5.019 5.439 0 3.36 2.1 5.46 5.02 5.46 1.994 0 3.38-1.071 4.052-2.562L38.094 15h.924V.3h-1.07v6.447zm-3.99 7.413c-2.373 0-4.01-1.848-4.01-4.494 0-2.625 1.637-4.494 4.01-4.494 2.373 0 4.011 1.869 4.011 4.515 0 2.625-1.638 4.473-4.01 4.473zm12.284.966c2.331 0 4.116-1.512 4.578-3.654h-1.092c-.42 1.659-1.827 2.688-3.57 2.688-2.373 0-3.864-1.806-3.906-4.284v-.189h8.694c0-.147.021-.315.021-.441-.105-3.171-2.058-5.019-4.914-5.019-2.919 0-4.914 2.226-4.914 5.376 0 3.339 2.08 5.523 5.103 5.523zm-3.906-6.342c.168-2.163 1.785-3.612 3.738-3.612 2.08 0 3.57 1.281 3.738 3.612h-7.476zm15.442 2.352h7.854V15h1.092v-3.864h2.415v-1.008h-2.415V.3h-1.218l-7.728 9.849v.987zm7.854-9.471v8.463h-6.615l6.615-8.463zM70.69 13.53c-.567 0-.924.357-.924.819 0 .504.336.756.735.756.21 0 .42-.084.525-.252.147.147.19.357.19.546 0 .798-.505 1.617-1.576 1.659v.63c1.45-.063 2.352-1.029 2.352-2.415 0-.966-.546-1.743-1.302-1.743zm7.508-8.274c-1.554 0-2.94.546-3.822 1.785l.399-5.733h7.287V.3h-8.274l-.525 8.211 1.05.042c.63-1.722 2.394-2.31 3.738-2.31 2.352 0 3.8 1.659 3.8 3.927 0 2.604-1.868 3.948-3.884 3.948-2.394 0-3.78-1.596-3.948-3.507h-1.092c.168 2.436 1.932 4.494 5.04 4.494 2.646 0 4.998-1.722 4.998-4.956 0-2.856-1.911-4.893-4.767-4.893zm6.503 2.73c0 4.305 2.121 7.14 5.313 7.14 3.15 0 5.292-2.835 5.292-7.14v-.672c0-4.179-2.142-7.14-5.292-7.14-3.192 0-5.313 2.961-5.313 7.14v.672zm9.492-.042c0 3.738-1.659 6.174-4.179 6.174-2.54 0-4.2-2.436-4.2-6.174v-.588c0-3.738 1.66-6.174 4.2-6.174 2.52 0 4.18 2.436 4.18 6.174v.588zm3.12.042c0 4.305 2.122 7.14 5.314 7.14 3.15 0 5.292-2.835 5.292-7.14v-.672c0-4.179-2.142-7.14-5.292-7.14-3.192 0-5.313 2.961-5.313 7.14v.672zm9.493-.042c0 3.738-1.659 6.174-4.179 6.174-2.541 0-4.2-2.436-4.2-6.174v-.588c0-3.738 1.659-6.174 4.2-6.174 2.52 0 4.179 2.436 4.179 6.174v.588zm7.152.567h-3.654v.903h3.654v3.843h.987V9.414h3.675v-.903h-3.675V4.668h-.987v3.843zm24.881-4.284c-1.953 0-3.213 1.092-3.822 2.667-.504-1.764-1.827-2.667-3.507-2.667-1.827 0-2.919 1.071-3.465 2.394l-.168-2.268h-.924V15h1.071V9.582c0-2.604 1.26-4.368 3.297-4.368 1.848 0 3.003 1.302 3.003 3.759V15h1.071V9.204c.063-2.436 1.323-3.99 3.318-3.99 1.848 0 2.961 1.239 2.961 3.654V15h1.092V8.826c0-3.213-1.701-4.599-3.927-4.599zm15.671 9.786c-.63 0-.945-.21-.945-1.029V8.028c0-2.436-1.491-3.801-4.158-3.801-2.436 0-4.053 1.176-4.326 3.108h1.071c.273-1.302 1.407-2.163 3.213-2.163 1.995 0 3.129 1.05 3.129 2.814v.924h-3.612c-2.73 0-4.2 1.176-4.2 3.171 0 1.89 1.491 3.045 3.759 3.045 2.163 0 3.444-.987 4.095-2.31v.378c-.042 1.26.483 1.806 1.743 1.806h.63v-.987h-.399zm-2.016-3.318c0 2.037-1.449 3.507-3.969 3.507-1.701 0-2.751-.861-2.751-2.184 0-1.407 1.05-2.184 3.024-2.184h3.696v.861zm8.194-6.342c-1.974 0-2.814.945-3.255 2.121l-.168-2.121h-.924V15h1.071V9.603c0-2.163.567-4.221 3.066-4.221h.777V4.353h-.567zM162.841 15h1.071v-2.877l2.499-2.562L170.485 15h1.302l-4.641-6.216 4.284-4.431h-1.323l-6.195 6.384V.3h-1.071V15zm14.507.126c2.331 0 4.116-1.512 4.578-3.654h-1.092c-.42 1.659-1.827 2.688-3.57 2.688-2.373 0-3.864-1.806-3.906-4.284v-.189h8.694c0-.147.021-.315.021-.441-.105-3.171-2.058-5.019-4.914-5.019-2.919 0-4.914 2.226-4.914 5.376 0 3.339 2.079 5.523 5.103 5.523zm-3.906-6.342c.168-2.163 1.785-3.612 3.738-3.612 2.079 0 3.57 1.281 3.738 3.612h-7.476zm11.382 3.738c0 1.701.693 2.478 2.499 2.478h1.554v-.987h-1.47c-1.113 0-1.512-.42-1.512-1.512V5.34h2.877v-.987h-2.877V1.371h-1.071v2.982h-2.016v.987h2.016v7.182zm5.199-.798c.084 2.205 1.869 3.402 4.536 3.402 2.289 0 4.137-1.155 4.137-3.045 0-2.247-1.974-2.688-4.263-3.003-1.659-.231-3.129-.42-3.129-1.911 0-1.218 1.197-2.016 3.003-2.016 1.701 0 2.919.819 3.108 2.205h1.092c-.189-2.079-1.89-3.129-4.2-3.129-2.373-.021-4.074 1.197-4.074 3.024 0 2.142 1.974 2.541 4.158 2.835 1.785.252 3.234.483 3.234 2.058 0 1.26-1.323 2.058-3.066 2.058-2.037 0-3.36-.945-3.444-2.478h-1.092zM208.983 15h1.155l3.15-8.946L216.291 15h1.155l3.78-10.647h-1.092l-3.276 9.366-3.045-9.366h-.987l-3.213 9.366-3.108-9.366h-1.134L208.983 15zM223.27 2.106a.74.74 0 00.756-.756.74.74 0 00-.756-.756.74.74 0 00-.756.756.74.74 0 00.756.756zM222.724 15h1.071V4.353h-1.071V15zm4.387-2.478c0 1.701.693 2.478 2.499 2.478h1.554v-.987h-1.47c-1.113 0-1.512-.42-1.512-1.512V5.34h2.877v-.987h-2.877V1.371h-1.071v2.982h-2.016v.987h2.016v7.182zm10.596-8.295c-1.995 0-3.234 1.113-3.843 2.646V.3h-1.071V15h1.071V9.75c0-2.772 1.407-4.536 3.675-4.536 2.037 0 3.297 1.344 3.297 3.864V15h1.071V9.036c0-3.36-1.785-4.809-4.2-4.809zm11.768 7.497c.084 2.205 1.869 3.402 4.536 3.402 2.289 0 4.137-1.155 4.137-3.045 0-2.247-1.974-2.688-4.263-3.003-1.659-.231-3.129-.42-3.129-1.911 0-1.218 1.197-2.016 3.003-2.016 1.701 0 2.919.819 3.108 2.205h1.092c-.189-2.079-1.89-3.129-4.2-3.129-2.373-.021-4.074 1.197-4.074 3.024 0 2.142 1.974 2.541 4.158 2.835 1.785.252 3.234.483 3.234 2.058 0 1.26-1.323 2.058-3.066 2.058-2.037 0-3.36-.945-3.444-2.478h-1.092zm15.421 3.402c2.331 0 4.116-1.512 4.578-3.654h-1.092c-.42 1.659-1.827 2.688-3.57 2.688-2.373 0-3.864-1.806-3.906-4.284v-.189h8.694c0-.147.021-.315.021-.441-.105-3.171-2.058-5.019-4.914-5.019-2.919 0-4.914 2.226-4.914 5.376 0 3.339 2.079 5.523 5.103 5.523zm-3.906-6.342c.168-2.163 1.785-3.612 3.738-3.612 2.079 0 3.57 1.281 3.738 3.612h-7.476zm15.389 6.342c2.415 0 4.116-1.386 4.536-3.549h-1.134c-.357 1.575-1.638 2.583-3.402 2.583-2.331 0-3.948-1.827-3.948-4.473s1.596-4.515 3.948-4.515c1.785 0 3.045 1.008 3.423 2.604h1.113c-.441-2.205-2.1-3.549-4.515-3.549-3.003 0-5.061 2.226-5.061 5.46 0 3.276 2.037 5.439 5.04 5.439zm14.345-5.544c0 2.793-1.386 4.557-3.591 4.557-1.974 0-3.192-1.344-3.192-3.885V4.353h-1.071v5.964c0 3.339 1.743 4.809 4.095 4.809 1.89 0 3.129-1.008 3.738-2.373L290.85 15h.945V4.353h-1.071v5.229zm7.94-5.229c-1.974 0-2.814.945-3.255 2.121l-.168-2.121h-.924V15h1.071V9.603c0-2.163.567-4.221 3.066-4.221h.777V4.353h-.567zm6.099 10.773c2.331 0 4.116-1.512 4.578-3.654h-1.092c-.42 1.659-1.827 2.688-3.57 2.688-2.373 0-3.864-1.806-3.906-4.284v-.189h8.694c0-.147.021-.315.021-.441-.105-3.171-2.058-5.019-4.914-5.019-2.919 0-4.914 2.226-4.914 5.376 0 3.339 2.079 5.523 5.103 5.523zm-3.906-6.342c.168-2.163 1.785-3.612 3.738-3.612 2.079 0 3.57 1.281 3.738 3.612h-7.476zm25.102-2.037c-.651-1.512-2.079-2.52-4.074-2.52-2.919 0-5.019 2.226-5.019 5.439 0 3.36 2.1 5.46 5.019 5.46 1.995 0 3.381-1.071 4.053-2.562l.168 2.436h.924V.3h-1.071v6.447zm-3.99 7.413c-2.373 0-4.011-1.848-4.011-4.494 0-2.625 1.638-4.494 4.011-4.494s4.011 1.869 4.011 4.515c0 2.625-1.638 4.473-4.011 4.473zm12.284.966c2.331 0 4.116-1.512 4.578-3.654h-1.092c-.42 1.659-1.827 2.688-3.57 2.688-2.373 0-3.864-1.806-3.906-4.284v-.189h8.694c0-.147.021-.315.021-.441-.105-3.171-2.058-5.019-4.914-5.019-2.919 0-4.914 2.226-4.914 5.376 0 3.339 2.079 5.523 5.103 5.523zm-3.906-6.342c.168-2.163 1.785-3.612 3.738-3.612 2.079 0 3.57 1.281 3.738 3.612h-7.476zm15.893-4.557c-1.995 0-3.381 1.071-4.053 2.562l-.168-2.436h-.924V19.2h1.071v-6.657c.609 1.554 2.058 2.583 4.074 2.583 2.919 0 5.019-2.226 5.019-5.46 0-3.339-2.1-5.439-5.019-5.439zm-.084 9.933c-2.373 0-4.011-1.848-4.011-4.515 0-2.604 1.638-4.473 4.011-4.473s4.011 1.869 4.011 4.494c0 2.646-1.638 4.494-4.011 4.494zm11.927.966c3.003 0 5.124-2.226 5.124-5.46 0-3.213-2.121-5.439-5.124-5.439-3.003 0-5.103 2.226-5.103 5.439 0 3.234 2.1 5.46 5.103 5.46zm0-.966c-2.373 0-4.011-1.848-4.011-4.494 0-2.625 1.638-4.494 4.011-4.494s4.011 1.869 4.011 4.494c0 2.646-1.638 4.494-4.011 4.494zm6.749-2.436c.084 2.205 1.869 3.402 4.536 3.402 2.289 0 4.137-1.155 4.137-3.045 0-2.247-1.974-2.688-4.263-3.003-1.659-.231-3.129-.42-3.129-1.911 0-1.218 1.197-2.016 3.003-2.016 1.701 0 2.919.819 3.108 2.205h1.092c-.189-2.079-1.89-3.129-4.2-3.129-2.373-.021-4.074 1.197-4.074 3.024 0 2.142 1.974 2.541 4.158 2.835 1.785.252 3.234.483 3.234 2.058 0 1.26-1.323 2.058-3.066 2.058-2.037 0-3.36-.945-3.444-2.478h-1.092zm11.262-9.618a.74.74 0 00.756-.756.74.74 0 00-.756-.756.74.74 0 00-.756.756.74.74 0 00.756.756zM375.548 15h1.071V4.353h-1.071V15zm4.387-2.478c0 1.701.693 2.478 2.499 2.478h1.554v-.987h-1.47c-1.113 0-1.512-.42-1.512-1.512V5.34h2.877v-.987h-2.877V1.371h-1.071v2.982h-2.016v.987h2.016v7.182zm5.199-.798c.084 2.205 1.869 3.402 4.536 3.402 2.289 0 4.137-1.155 4.137-3.045 0-2.247-1.974-2.688-4.263-3.003-1.659-.231-3.129-.42-3.129-1.911 0-1.218 1.197-2.016 3.003-2.016 1.701 0 2.919.819 3.108 2.205h1.092c-.189-2.079-1.89-3.129-4.2-3.129-2.373-.021-4.074 1.197-4.074 3.024 0 2.142 1.974 2.541 4.158 2.835 1.785.252 3.234.483 3.234 2.058 0 1.26-1.323 2.058-3.066 2.058-2.037 0-3.36-.945-3.444-2.478h-1.092zm27.864 2.31c-.588 0-1.008-.126-1.449-.672l-1.05-1.218 3.339-5.082h-1.134l-2.856 4.305-3.276-3.843-.126-.147c2.814-1.176 3.822-2.52 3.822-4.158 0-1.743-1.365-3.045-3.213-3.045-2.184 0-3.801 1.449-3.801 3.381 0 1.344.462 2.184 1.596 3.57-2.562 1.092-3.591 2.604-3.591 4.263 0 2.415 1.911 3.738 4.305 3.738 1.638 0 3.066-.735 4.263-2.142l1.029 1.218c.504.609 1.197.798 1.995.798h1.47v-.966h-1.323zm-6.027-12.936c1.302 0 2.205.903 2.205 2.142 0 1.428-.987 2.457-3.297 3.465-1.071-1.281-1.512-2.016-1.512-3.171 0-1.407 1.071-2.436 2.604-2.436zm-1.386 13.062c-1.848 0-3.234-1.05-3.234-2.856 0-1.533.861-2.478 3.045-3.528l.315.357 3.486 4.116c-.987 1.239-2.226 1.911-3.612 1.911zm19.14.84h1.155l3.15-8.946L432.033 15h1.155l3.78-10.647h-1.092l-3.276 9.366-3.045-9.366h-.987l-3.213 9.366-3.108-9.366h-1.134L424.725 15zm14.287-12.894a.74.74 0 00.756-.756.74.74 0 00-.756-.756.74.74 0 00-.756.756.74.74 0 00.756.756zM438.466 15h1.071V4.353h-1.071V15zm4.387-2.478c0 1.701.693 2.478 2.499 2.478h1.554v-.987h-1.47c-1.113 0-1.512-.42-1.512-1.512V5.34h2.877v-.987h-2.877V1.371h-1.071v2.982h-2.016v.987h2.016v7.182zm10.596-8.295c-1.995 0-3.234 1.113-3.843 2.646V.3h-1.071V15h1.071V9.75c0-2.772 1.407-4.536 3.675-4.536 2.037 0 3.297 1.344 3.297 3.864V15h1.071V9.036c0-3.36-1.785-4.809-4.2-4.809zm15.121 2.52c-.651-1.512-2.079-2.52-4.074-2.52-2.919 0-5.019 2.226-5.019 5.439 0 3.36 2.1 5.46 5.019 5.46 1.995 0 3.381-1.071 4.053-2.562l.168 2.436h.924V.3h-1.071v6.447zm-3.99 7.413c-2.373 0-4.011-1.848-4.011-4.494 0-2.625 1.638-4.494 4.011-4.494s4.011 1.869 4.011 4.515c0 2.625-1.638 4.473-4.011 4.473zm11.927-9.807c-1.974 0-2.814.945-3.255 2.121l-.168-2.121h-.924V15h1.071V9.603c0-2.163.567-4.221 3.066-4.221h.777V4.353h-.567zm11.069 9.66c-.63 0-.945-.21-.945-1.029V8.028c0-2.436-1.491-3.801-4.158-3.801-2.436 0-4.053 1.176-4.326 3.108h1.071c.273-1.302 1.407-2.163 3.213-2.163 1.995 0 3.129 1.05 3.129 2.814v.924h-3.612c-2.73 0-4.2 1.176-4.2 3.171 0 1.89 1.491 3.045 3.759 3.045 2.163 0 3.444-.987 4.095-2.31v.378c-.042 1.26.483 1.806 1.743 1.806h.63v-.987h-.399zm-2.016-3.318c0 2.037-1.449 3.507-3.969 3.507-1.701 0-2.751-.861-2.751-2.184 0-1.407 1.05-2.184 3.024-2.184h3.696v.861zM491.744 15h1.155l3.15-8.946L499.052 15h1.155l3.78-10.647h-1.092l-3.276 9.366-3.045-9.366h-.987l-3.213 9.366-3.108-9.366h-1.134L491.744 15zm22.759-.987c-.63 0-.945-.21-.945-1.029V8.028c0-2.436-1.491-3.801-4.158-3.801-2.436 0-4.053 1.176-4.326 3.108h1.071c.273-1.302 1.407-2.163 3.213-2.163 1.995 0 3.129 1.05 3.129 2.814v.924h-3.612c-2.73 0-4.2 1.176-4.2 3.171 0 1.89 1.491 3.045 3.759 3.045 2.163 0 3.444-.987 4.095-2.31v.378c-.042 1.26.483 1.806 1.743 1.806h.63v-.987h-.399zm-2.016-3.318c0 2.037-1.449 3.507-3.969 3.507-1.701 0-2.751-.861-2.751-2.184 0-1.407 1.05-2.184 3.024-2.184h3.696v.861zM516.334 15h1.071V.3h-1.071V15zm3.106-3.276c.084 2.205 1.869 3.402 4.536 3.402 2.289 0 4.137-1.155 4.137-3.045 0-2.247-1.974-2.688-4.263-3.003-1.659-.231-3.129-.42-3.129-1.911 0-1.218 1.197-2.016 3.003-2.016 1.701 0 2.919.819 3.108 2.205h1.092c-.189-2.079-1.89-3.129-4.2-3.129-2.373-.021-4.074 1.197-4.074 3.024 0 2.142 1.974 2.541 4.158 2.835 1.785.252 3.234.483 3.234 2.058 0 1.26-1.323 2.058-3.066 2.058-2.037 0-3.36-.945-3.444-2.478h-1.092z" fill="#000"/></svg>