<svg width="176" height="35" viewBox="0 0 176 35" fill="none" xmlns="http://www.w3.org/2000/svg"><path d="M15.293.675C7.723.72 1.78 4.018 1.78 11.309c0 6.362 5.294 8.08 12.677 9.845 5.34 1.347 6.27 1.533 6.27 3.39 0 1.486-1.58 2.136-3.39 2.136-4.133 0-8.824-1.207-13.05-3.575l-3.9 6.501c4.457 2.972 9.937 4.551 15.974 4.551 8.36 0 13.607-3.808 13.607-10.727 0-6.64-5.433-8.498-13.05-10.542-5.061-1.254-5.665-1.672-5.665-2.693 0-1.486 1.44-2.136 3.111-2.136 3.205 0 7.57 1.114 11.285 3.018l3.669-6.734C25.51 2.022 20.494.675 15.293.675zm28.42 32.971V1.186h-8.73v32.46h8.73zm15.374-7.848V1.14h-8.73v32.507h24.658v-7.848H59.087zm37.26 7.848L108.794 1.14H98.344l-7.708 22.244-7.57-22.244H72.618l12.306 32.507h11.424zm43.474-24.659V1.14h-26.609v32.507H140.1v-7.848h-18.158v-4.876h16.625v-7.43h-16.625V8.987h17.879zm5.227-7.801v32.46h8.73v-9.891H158.979l6.316 9.891h10.077l-7.291-11.052c4.505-1.533 6.409-4.83 6.409-10.124 0-7.94-4.226-11.284-14.814-11.284h-14.628zm8.73 7.848h6.316c3.854 0 5.294 1.207 5.294 3.993 0 2.833-1.44 3.994-5.294 3.994h-6.316V9.034z" fill="#09B45B"/></svg>