<svg width="138" height="155" viewBox="0 0 138 155" fill="none" xmlns="http://www.w3.org/2000/svg"><path d="M5.012 101.1c3.079 0 4.882-1.914 4.882-4.854 0-2.955-1.803-4.855-4.882-4.855h-2.83v9.709h2.83zm-2.08-9.015h2.08c2.649 0 4.119 1.609 4.119 4.16 0 2.539-1.47 4.161-4.12 4.161h-2.08v-8.321zm8.817.499c.278 0 .5-.208.5-.5 0-.29-.222-.499-.5-.499-.277 0-.5.208-.5.5 0 .29.223.499.5.499zm-.36 8.516h.707v-7.032h-.707v7.032zm2.05-2.164c.056 1.457 1.235 2.247 2.997 2.247 1.512 0 2.732-.763 2.732-2.011 0-1.484-1.304-1.775-2.816-1.983-1.095-.153-2.066-.278-2.066-1.262 0-.805.79-1.332 1.983-1.332 1.124 0 1.928.54 2.053 1.456h.721c-.125-1.373-1.248-2.066-2.774-2.066-1.567-.014-2.69.79-2.69 1.997 0 1.415 1.303 1.678 2.746 1.872 1.179.167 2.136.32 2.136 1.36 0 .832-.874 1.359-2.025 1.359-1.346 0-2.22-.624-2.275-1.637h-.721zm10.144 2.247c1.595 0 2.718-.915 2.996-2.344h-.75c-.235 1.04-1.081 1.706-2.246 1.706-1.54 0-2.608-1.207-2.608-2.954 0-1.748 1.054-2.982 2.608-2.982 1.179 0 2.011.666 2.26 1.72h.736c-.291-1.457-1.387-2.344-2.982-2.344-1.984 0-3.343 1.47-3.343 3.606 0 2.163 1.345 3.592 3.329 3.592zm7.478 0c1.983 0 3.384-1.47 3.384-3.606 0-2.122-1.401-3.592-3.384-3.592-1.984 0-3.37 1.47-3.37 3.592 0 2.136 1.386 3.606 3.37 3.606zm0-.638c-1.568 0-2.65-1.22-2.65-2.968 0-1.734 1.082-2.968 2.65-2.968 1.567 0 2.649 1.234 2.649 2.968 0 1.748-1.082 2.968-2.65 2.968zm6.53.555h.846l2.746-7.032h-.735l-2.413 6.214-2.427-6.214h-.763l2.746 7.032zm7.366.083c1.54 0 2.719-.999 3.024-2.413h-.721c-.278 1.096-1.207 1.775-2.358 1.775-1.568 0-2.552-1.193-2.58-2.83v-.124h5.742c0-.097.014-.208.014-.291-.07-2.095-1.36-3.315-3.245-3.315-1.928 0-3.246 1.47-3.246 3.55 0 2.206 1.373 3.648 3.37 3.648zm-2.58-4.189c.111-1.428 1.18-2.385 2.47-2.385 1.372 0 2.357.846 2.468 2.386h-4.938zm9.97-2.926c-1.304 0-1.858.624-2.15 1.4l-.11-1.4h-.61v7.032h.707v-3.565c0-1.428.374-2.787 2.024-2.787h.514v-.68h-.375zm11.347 6.38c-.416 0-.624-.139-.624-.68v-3.273c0-1.609-.985-2.51-2.746-2.51-1.61 0-2.677.776-2.857 2.052h.707c.18-.86.93-1.428 2.122-1.428 1.318 0 2.066.693 2.066 1.858v.61h-2.385c-1.803 0-2.774.777-2.774 2.095 0 1.248.985 2.011 2.483 2.011 1.428 0 2.274-.652 2.704-1.526v.25c-.028.832.32 1.193 1.151 1.193h.417v-.652h-.264zm-1.332-2.191c0 1.345-.957 2.316-2.62 2.316-1.124 0-1.818-.569-1.818-1.443 0-.929.694-1.442 1.997-1.442h2.441v.569zm9.678-4.272c-1.318 0-2.247.721-2.69 1.72V91.39h-.708v9.709h.61l.111-1.595c.416 1.012 1.36 1.678 2.677 1.678 1.928 0 3.315-1.47 3.315-3.606 0-2.205-1.387-3.592-3.315-3.592zm-.056 6.56c-1.567 0-2.649-1.22-2.649-2.982 0-1.72 1.082-2.954 2.65-2.954 1.567 0 2.648 1.234 2.648 2.968 0 1.748-1.081 2.968-2.649 2.968zm7.878.638c1.54 0 2.718-.999 3.023-2.413h-.72c-.278 1.096-1.208 1.775-2.359 1.775-1.567 0-2.552-1.193-2.58-2.83v-.124h5.743c0-.097.014-.208.014-.291-.07-2.095-1.36-3.315-3.246-3.315-1.928 0-3.245 1.47-3.245 3.55 0 2.206 1.373 3.648 3.37 3.648zm-2.58-4.189c.111-1.428 1.179-2.385 2.469-2.385 1.373 0 2.358.846 2.469 2.386h-4.938zm12.94 3.454c-.707 0-.97-.277-.97-.999v-4.73h1.872v-.651H89.25v-1.97h-.707v1.97h-3.037v-1.97h-.708v1.97h-1.331v.652h1.331v4.743c0 1.124.458 1.637 1.65 1.637h.875v-.652h-.846c-.708 0-.971-.277-.971-.999v-4.73h3.037v4.744c0 1.124.444 1.637 1.637 1.637h1.068v-.652h-1.027zm5.013.735c1.54 0 2.718-.999 3.023-2.413h-.72c-.278 1.096-1.207 1.775-2.358 1.775-1.568 0-2.553-1.193-2.58-2.83v-.124h5.742c0-.097.014-.208.014-.291-.07-2.095-1.36-3.315-3.246-3.315-1.928 0-3.245 1.47-3.245 3.55 0 2.206 1.373 3.648 3.37 3.648zm-2.58-4.189c.111-1.428 1.18-2.385 2.469-2.385 1.373 0 2.358.846 2.469 2.386h-4.938zm9.97-2.926c-1.304 0-1.859.624-2.15 1.4l-.111-1.4h-.61v7.032h.707v-3.565c0-1.428.375-2.787 2.025-2.787h.513v-.68h-.374zM3.722 118.1h.763l2.08-5.909 1.983 5.909h.763l2.497-7.032h-.722l-2.163 6.186-2.011-6.186H6.26l-2.122 6.186-2.053-6.186h-.749l2.386 7.032zm15.03-.652c-.415 0-.623-.139-.623-.68v-3.273c0-1.609-.985-2.51-2.747-2.51-1.608 0-2.676.776-2.857 2.052h.708c.18-.859.929-1.428 2.122-1.428 1.317 0 2.066.693 2.066 1.858v.611h-2.385c-1.803 0-2.774.776-2.774 2.094 0 1.248.985 2.011 2.482 2.011 1.43 0 2.275-.652 2.705-1.526v.25c-.028.832.32 1.193 1.151 1.193h.416v-.652h-.263zm-1.33-2.191c0 1.345-.958 2.316-2.622 2.316-1.123 0-1.817-.569-1.817-1.443 0-.929.694-1.442 1.997-1.442h2.441v.569zm4.418 2.843l-.457 1.137c-.32.777-.444.985-1.165.985h-.888v.652h1.082c.943 0 1.165-.361 1.609-1.47l3.37-8.336h-.763l-2.4 6.116-2.44-6.116h-.763l2.815 7.032zm8.767-1.637c0 1.124.458 1.637 1.65 1.637h1.027v-.652h-.97c-.736 0-1-.277-1-.999v-4.729h1.9v-.652h-1.9v-1.97h-.707v1.97h-1.331v.652h1.331v4.743zm6.643 1.72c1.984 0 3.385-1.47 3.385-3.606 0-2.122-1.401-3.592-3.385-3.592-1.983 0-3.37 1.47-3.37 3.592 0 2.136 1.387 3.606 3.37 3.606zm0-.638c-1.567 0-2.649-1.22-2.649-2.968 0-1.734 1.082-2.968 2.65-2.968 1.567 0 2.649 1.234 2.649 2.968 0 1.748-1.082 2.968-2.65 2.968zm9.056-1.082c0 1.124.457 1.637 1.65 1.637h1.026v-.652h-.97c-.736 0-1-.277-1-.999v-4.729h1.901v-.652h-1.9v-1.97h-.707v1.97h-1.332v.652h1.332v4.743zm6.623-5.395c-1.303 0-1.858.624-2.15 1.401l-.11-1.401h-.61v7.032h.707v-3.565c0-1.428.374-2.787 2.025-2.787h.513v-.68h-.375zm7.311 6.38c-.416 0-.624-.139-.624-.68v-3.273c0-1.609-.985-2.51-2.746-2.51-1.61 0-2.677.776-2.857 2.052h.707c.18-.859.93-1.428 2.122-1.428 1.318 0 2.067.693 2.067 1.858v.611h-2.386c-1.803 0-2.774.776-2.774 2.094 0 1.248.985 2.011 2.483 2.011 1.428 0 2.274-.652 2.704-1.526v.25c-.027.832.32 1.193 1.151 1.193h.417v-.652h-.264zm-1.331-2.191c0 1.345-.957 2.316-2.622 2.316-1.123 0-1.817-.569-1.817-1.443 0-.929.694-1.442 1.998-1.442h2.44v.569zm8.174-2.608c-.43-.999-1.373-1.664-2.69-1.664-1.928 0-3.315 1.47-3.315 3.592 0 2.219 1.387 3.606 3.314 3.606 1.318 0 2.234-.707 2.677-1.692l.111 1.609h.61v-9.709h-.707v4.258zm-2.635 4.896c-1.567 0-2.65-1.22-2.65-2.968 0-1.734 1.083-2.968 2.65-2.968s2.65 1.234 2.65 2.982c0 1.734-1.083 2.954-2.65 2.954zm8.113.638c1.54 0 2.719-.999 3.024-2.413h-.721c-.278 1.095-1.207 1.775-2.358 1.775-1.567 0-2.552-1.193-2.58-2.829v-.125h5.742c0-.097.014-.208.014-.291-.07-2.095-1.36-3.315-3.246-3.315-1.928 0-3.245 1.47-3.245 3.55 0 2.206 1.373 3.648 3.37 3.648zm-2.58-4.189c.111-1.428 1.18-2.385 2.47-2.385 1.372 0 2.357.846 2.468 2.385h-4.938zM2.182 135.1h.75v-4.48H7.12v-.694H2.93v-3.841h5.021v-.694h-5.77v9.709zm6.014 0l1.165-2.968h4.466l1.165 2.968h.805l-3.745-9.709h-.874L7.42 135.1h.776zm3.398-8.877l2.011 5.215H9.583l2.011-5.215zm5.582 8.877l1.165-2.968h4.466l1.166 2.968h.804l-3.745-9.709h-.874L16.4 135.1h.776zm3.399-8.877l2.01 5.215h-4.022l2.012-5.215zm6.167 8.877v-8.35l5.742 8.35h.708v-9.709h-.735v8.35l-5.742-8.35h-.708v9.709h.735zm12.485.083c1.941 0 3.092-1.068 3.509-2.233l.041 2.15h.652v-5.063h-3.911v.694h3.19v.416c0 1.9-1.318 3.343-3.468 3.343-2.177 0-3.62-1.748-3.62-4.245 0-2.482 1.443-4.244 3.69-4.244 1.636 0 2.774.846 3.176 2.372h.804c-.402-1.942-1.914-3.065-3.953-3.065-2.746 0-4.493 2.025-4.493 4.937 0 2.927 1.789 4.938 4.383 4.938zm9.47-2.247c.055 1.457 1.234 2.247 2.995 2.247 1.512 0 2.733-.763 2.733-2.011 0-1.484-1.304-1.775-2.816-1.983-1.096-.153-2.066-.278-2.066-1.263 0-.804.79-1.331 1.983-1.331 1.123 0 1.928.541 2.053 1.456h.72c-.124-1.373-1.247-2.066-2.773-2.066-1.567-.014-2.69.79-2.69 1.997 0 1.415 1.303 1.678 2.745 1.872 1.18.167 2.136.319 2.136 1.36 0 .832-.873 1.359-2.025 1.359-1.345 0-2.219-.624-2.274-1.637h-.721zm10.323-4.951c-1.318 0-2.136.735-2.538 1.747v-4.341h-.708v9.709h.708v-3.468c0-1.83.929-2.995 2.427-2.995 1.345 0 2.177.887 2.177 2.552v3.911h.708v-3.939c0-2.219-1.18-3.176-2.774-3.176zm10.539 6.463c-.416 0-.624-.139-.624-.68v-3.273c0-1.609-.985-2.51-2.747-2.51-1.609 0-2.676.776-2.857 2.052h.708c.18-.859.929-1.428 2.122-1.428 1.317 0 2.066.693 2.066 1.858v.611h-2.385c-1.803 0-2.774.776-2.774 2.094 0 1.248.984 2.011 2.482 2.011 1.429 0 2.275-.652 2.705-1.526v.25c-.028.832.319 1.193 1.151 1.193h.416v-.652h-.263zm-1.332-2.191c0 1.345-.957 2.316-2.621 2.316-1.123 0-1.817-.569-1.817-1.443 0-.929.694-1.442 1.997-1.442h2.441v.569zm5.412-4.189c-1.303 0-1.858.624-2.15 1.401l-.11-1.401h-.61v7.032h.707v-3.565c0-1.428.374-2.787 2.025-2.787h.513v-.68h-.375zm4.029 7.115c1.54 0 2.718-.999 3.023-2.413h-.721c-.278 1.095-1.207 1.775-2.358 1.775-1.567 0-2.552-1.193-2.58-2.829v-.125h5.742c0-.097.014-.208.014-.291-.07-2.095-1.359-3.315-3.245-3.315-1.928 0-3.246 1.47-3.246 3.55 0 2.206 1.373 3.648 3.37 3.648zm-2.58-4.189c.11-1.428 1.179-2.385 2.469-2.385 1.373 0 2.358.846 2.468 2.385h-4.937zm6.766 1.942c.055 1.457 1.234 2.247 2.996 2.247 1.512 0 2.732-.763 2.732-2.011 0-1.484-1.304-1.775-2.816-1.983-1.095-.153-2.066-.278-2.066-1.263 0-.804.79-1.331 1.983-1.331 1.124 0 1.928.541 2.053 1.456h.721c-.125-1.373-1.248-2.066-2.774-2.066-1.567-.014-2.69.79-2.69 1.997 0 1.415 1.303 1.678 2.746 1.872 1.179.167 2.136.319 2.136 1.36 0 .832-.874 1.359-2.025 1.359-1.346 0-2.22-.624-2.275-1.637h-.721zm12.522 2.164h.763l2.08-5.909 1.984 5.909h.762l2.497-7.032h-.721l-2.164 6.186-2.011-6.186h-.652l-2.122 6.186-2.053-6.186h-.749l2.386 7.032zm9.436-8.516a.489.489 0 00.499-.499c0-.292-.222-.5-.499-.5a.489.489 0 00-.499.5c0 .291.222.499.499.499zm-.361 8.516h.708v-7.032h-.708v7.032zm2.898-1.637c0 1.124.458 1.637 1.65 1.637h1.027v-.652h-.971c-.735 0-.999-.277-.999-.999v-4.729h1.9v-.652h-1.9v-1.97h-.707v1.97h-1.332v.652h1.332v4.743zm6.998-5.478c-1.317 0-2.136.735-2.538 1.747v-4.341h-.707v9.709h.707v-3.468c0-1.83.929-2.995 2.427-2.995 1.346 0 2.178.887 2.178 2.552v3.911h.707v-3.939c0-2.219-1.179-3.176-2.774-3.176zM6.287 152.183c2.081 0 3.551-1.123 3.967-3.079h-.79c-.416 1.553-1.54 2.386-3.19 2.386-2.247 0-3.662-1.762-3.662-4.245 0-2.482 1.443-4.244 3.69-4.244 1.622 0 2.76.846 3.19 2.372h.79c-.43-1.942-1.9-3.065-3.939-3.065-2.732 0-4.508 2.025-4.508 4.937 0 2.941 1.734 4.938 4.453 4.938zm5.774-8.599c.277 0 .499-.208.499-.499 0-.292-.222-.5-.5-.5-.277 0-.499.208-.499.5 0 .291.222.499.5.499zm-.36 8.516h.707v-7.032H11.7v7.032zm2.896-1.637c0 1.124.458 1.637 1.651 1.637h1.026v-.652h-.97c-.736 0-1-.277-1-.999v-4.729h1.901v-.652h-1.9v-1.97h-.707v1.97h-1.332v.652h1.332v4.743zm5.862 1.637L20 153.237c-.319.777-.444.985-1.165.985h-.888v.652h1.082c.943 0 1.165-.361 1.609-1.47l3.37-8.336h-.762l-2.4 6.116-2.441-6.116h-.763l2.816 7.032zm8.406 0h.749v-9.709h-.749v9.709zm5.829-7.115c-1.29 0-2.122.665-2.525 1.581l-.11-1.498h-.61v7.032h.707v-3.468c0-1.83.929-2.995 2.427-2.995 1.359 0 2.177.887 2.177 2.552v3.911h.708v-3.939c0-2.219-1.18-3.176-2.774-3.176zm9.973 1.664c-.43-.999-1.373-1.664-2.69-1.664-1.929 0-3.316 1.47-3.316 3.592 0 2.219 1.387 3.606 3.315 3.606 1.318 0 2.233-.707 2.677-1.692l.111 1.609h.61v-9.709h-.707v4.258zm-2.635 4.896c-1.568 0-2.65-1.22-2.65-2.968 0-1.734 1.082-2.968 2.65-2.968 1.567 0 2.649 1.234 2.649 2.982 0 1.734-1.082 2.954-2.65 2.954zm8.113.638c1.54 0 2.718-.999 3.023-2.413h-.72c-.278 1.095-1.207 1.775-2.359 1.775-1.567 0-2.552-1.193-2.58-2.829v-.125h5.743c0-.097.014-.208.014-.291-.07-2.095-1.36-3.315-3.246-3.315-1.928 0-3.245 1.47-3.245 3.55 0 2.206 1.373 3.648 3.37 3.648zm-2.58-4.189c.111-1.428 1.179-2.385 2.469-2.385 1.373 0 2.358.846 2.469 2.385h-4.938zm6.106 4.106h.818l2.33-3.093 2.33 3.093h.86l-2.732-3.592 2.594-3.44h-.805l-2.219 2.913-2.191-2.913h-.846l2.593 3.44-2.732 3.592zm7.14-.458c0 .319.222.527.527.527a.502.502 0 00.527-.527c0-.319-.222-.513-.527-.513-.305 0-.527.194-.527.513zM3.001 15l1.024-2.724h4.52L9.583 15h1.937L7.41 3.977H5.253L1.127 15h1.874zm3.276-9.07l1.764 4.802H4.529L6.277 5.93zm6.2 9.07h1.702V3.977h-1.701V15zm3.369 0h1.7V3.977h-1.7V15zm7.98-2.189c0 1.465.661 2.189 2.204 2.189h1.575v-1.496h-1.197c-.645 0-.866-.236-.866-.866V8.433h1.969V6.937h-1.969V4.685h-1.716v2.252h-1.402v1.496h1.402v4.378zm9.097-5.968c-1.26 0-2.031.567-2.535 1.26V3.977h-1.701V15h1.7v-4.079c0-1.622.82-2.614 2.158-2.614 1.26 0 1.937.82 1.937 2.347V15h1.7v-4.488c0-2.693-1.464-3.67-3.259-3.67zm8.572 8.252c2 0 3.354-1.213 3.638-2.804h-1.701c-.236.898-.992 1.418-2.032 1.418-1.338 0-2.204-.898-2.252-2.268v-.11h6.079a4.62 4.62 0 00.047-.646c-.047-2.362-1.606-3.842-3.937-3.842-2.378 0-3.968 1.653-3.968 4.141 0 2.473 1.59 4.11 4.126 4.11zm-2.284-5.008c.126-1.15 1.056-1.874 2.142-1.874 1.181 0 2.016.677 2.157 1.874h-4.299zm15.782-3.244c-1.244 0-2.078.567-2.614 1.291V3.977h-1.7V15h1.48l.204-1.165c.504.724 1.37 1.26 2.63 1.26 2.205 0 3.811-1.654 3.811-4.126 0-2.599-1.606-4.126-3.81-4.126zm-.283 6.818c-1.418 0-2.347-1.118-2.347-2.708 0-1.56.93-2.662 2.347-2.662 1.417 0 2.362 1.103 2.362 2.678 0 1.59-.945 2.692-2.362 2.692zm6.323-7.858c.583 0 1.04-.425 1.04-1.023 0-.599-.457-1.024-1.04-1.024s-1.04.425-1.04 1.024c0 .598.457 1.023 1.04 1.023zM60.167 15h1.7V6.937h-1.7V15zm9.525-6.803c-.52-.803-1.385-1.354-2.645-1.354-2.19 0-3.811 1.622-3.811 4.094 0 2.567 1.622 4.095 3.81 4.095 1.26 0 2.095-.52 2.63-1.323v.897c0 1.544-.834 2.252-2.314 2.252-1.197 0-1.985-.52-2.19-1.417h-1.731c.157 1.81 1.653 2.803 3.795 2.803 2.897 0 4.126-1.386 4.126-3.575V6.937h-1.48l-.19 1.26zm-2.362 5.402c-1.417 0-2.346-1.087-2.346-2.662 0-1.559.929-2.661 2.346-2.661s2.347 1.102 2.347 2.693c0 1.543-.93 2.63-2.347 2.63zM2.42 30.81c0 1.465.661 2.189 2.204 2.189h1.575v-1.496H5.001c-.645 0-.866-.236-.866-.866v-4.205h1.969v-1.496H4.135v-2.252H2.42v2.252H1.017v1.496H2.42v4.378zm8.518 2.283c2 0 3.355-1.212 3.638-2.803h-1.7c-.237.898-.993 1.418-2.032 1.418-1.339 0-2.205-.898-2.252-2.268v-.11h6.079a4.62 4.62 0 00.047-.646c-.047-2.362-1.606-3.842-3.937-3.842-2.378 0-3.968 1.653-3.968 4.141 0 2.473 1.59 4.11 4.125 4.11zm-2.283-5.007c.126-1.15 1.055-1.874 2.142-1.874 1.18 0 2.016.677 2.157 1.874H8.654zm11.139 5.007c2.063 0 3.433-1.15 3.748-2.976h-1.796c-.204.93-.897 1.528-1.937 1.528-1.37 0-2.267-1.087-2.267-2.662 0-1.59.897-2.693 2.267-2.693 1.055 0 1.733.583 1.953 1.528h1.78c-.331-1.827-1.622-2.976-3.701-2.976-2.441 0-4.047 1.653-4.047 4.141 0 2.52 1.559 4.11 4 4.11zm9.285-8.251c-1.26 0-2.031.567-2.535 1.26v-4.126h-1.7V33h1.7v-4.079c0-1.622.819-2.614 2.158-2.614 1.26 0 1.936.82 1.936 2.347V33h1.701v-4.488c0-2.693-1.464-3.67-3.26-3.67zm8.49 5.496c.047 1.748 1.527 2.755 3.685 2.755 1.952 0 3.417-.976 3.417-2.52 0-1.794-1.496-2.172-3.339-2.393-1.165-.126-1.937-.22-1.937-.976 0-.646.662-1.055 1.67-1.055s1.7.52 1.795 1.26h1.67c-.111-1.654-1.513-2.567-3.497-2.567-1.937-.016-3.307.976-3.307 2.504 0 1.669 1.449 2.063 3.291 2.283 1.245.158 1.985.22 1.985 1.087 0 .645-.693 1.055-1.748 1.055-1.229 0-1.953-.599-2.016-1.433h-1.67zm12.656-5.496c-1.26 0-2.031.567-2.535 1.26v-4.126h-1.701V33h1.7v-4.079c0-1.622.82-2.614 2.158-2.614 1.26 0 1.937.82 1.937 2.347V33h1.7v-4.488c0-2.693-1.464-3.67-3.259-3.67zm12.177 6.677c-.347 0-.52-.11-.52-.52v-3.228c0-1.906-1.228-2.93-3.37-2.93-2.032 0-3.386.977-3.56 2.552h1.67c.126-.709.803-1.181 1.811-1.181 1.118 0 1.764.55 1.764 1.448v.489h-2.032c-2.252 0-3.448.929-3.448 2.582 0 1.496 1.228 2.362 2.992 2.362 1.307 0 2.126-.566 2.661-1.385 0 .803.378 1.291 1.48 1.291h.898v-1.48h-.346zm-2.205-1.827c-.016 1.244-.835 2.079-2.252 2.079-.93 0-1.496-.473-1.496-1.15 0-.819.583-1.212 1.638-1.212h2.11v.283zm7.556-4.756c-1.323 0-1.968.536-2.378 1.213l-.189-1.213h-1.512V33h1.701v-4.047c0-1.244.488-2.425 2-2.425h.756v-1.59h-.378zm4.87 8.157c2 0 3.353-1.212 3.637-2.803h-1.7c-.237.898-.993 1.418-2.032 1.418-1.339 0-2.205-.898-2.252-2.268v-.11h6.078a4.62 4.62 0 00.048-.646c-.048-2.362-1.607-3.842-3.937-3.842-2.378 0-3.969 1.653-3.969 4.141 0 2.473 1.59 4.11 4.126 4.11zm-2.284-5.007c.126-1.15 1.055-1.874 2.141-1.874 1.181 0 2.016.677 2.158 1.874h-4.3zm7.045 2.252c.047 1.748 1.528 2.755 3.685 2.755 1.953 0 3.417-.976 3.417-2.52 0-1.794-1.496-2.172-3.338-2.393-1.166-.126-1.937-.22-1.937-.976 0-.646.661-1.055 1.669-1.055s1.7.52 1.795 1.26h1.67c-.11-1.654-1.512-2.567-3.496-2.567-1.938-.016-3.308.976-3.308 2.504 0 1.669 1.45 2.063 3.292 2.283 1.244.158 1.984.22 1.984 1.087 0 .645-.693 1.055-1.748 1.055-1.228 0-1.953-.599-2.016-1.433h-1.669zm8.155 1.685c0 .63.457 1.07 1.087 1.07.63 0 1.102-.44 1.102-1.07 0-.63-.472-1.071-1.102-1.071-.63 0-1.087.44-1.087 1.07z" fill="#000"/><path d="M7.865 58.271c3.479 0 6.02-2.049 6.489-5.208h-2.54c-.47 1.9-1.9 3.052-3.97 3.052-2.819 0-4.526-2.262-4.526-5.443 0-3.202 1.75-5.443 4.59-5.443 2.027 0 3.436 1.174 3.927 3.052h2.54c-.49-3.159-2.946-5.208-6.361-5.208-4.419 0-7.215 3.052-7.215 7.6 0 4.588 2.71 7.598 7.066 7.598zm13.45 0c3.33 0 5.572-2.241 5.572-5.592 0-3.33-2.242-5.593-5.572-5.593s-5.571 2.263-5.571 5.593c0 3.35 2.241 5.592 5.571 5.592zm0-1.964c-1.942 0-3.202-1.515-3.202-3.628 0-2.114 1.26-3.63 3.202-3.63 1.943 0 3.223 1.516 3.223 3.63 0 2.113-1.28 3.628-3.223 3.628zm19.998-9.221c-1.793 0-3.031.79-3.736 1.985-.661-1.409-1.942-1.985-3.372-1.985-1.644.021-2.583.747-3.202 1.558l-.256-1.43H28.74v10.93h2.306v-5.85c0-1.942.982-3.223 2.561-3.223 1.516 0 2.306 1.003 2.306 2.925v6.147h2.326V52.23c0-1.963 1.004-3.159 2.583-3.159 1.494 0 2.284 1.003 2.284 2.925v6.147h2.306v-6.297c0-3.458-1.836-4.76-4.099-4.76zm18.761 0c-1.793 0-3.03.79-3.735 1.985-.662-1.409-1.943-1.985-3.373-1.985-1.644.021-2.583.747-3.202 1.558l-.256-1.43h-2.007v10.93h2.306v-5.85c0-1.942.982-3.223 2.561-3.223 1.516 0 2.306 1.003 2.306 2.925v6.147H57V52.23c0-1.963 1.003-3.159 2.582-3.159 1.495 0 2.284 1.003 2.284 2.925v6.147h2.306v-6.297c0-3.458-1.836-4.76-4.099-4.76zm7.363-1.409c.79 0 1.409-.576 1.409-1.387 0-.812-.62-1.388-1.41-1.388-.79 0-1.408.576-1.408 1.388 0 .81.619 1.387 1.409 1.387zm-1.174 12.466h2.305V47.214h-2.305v10.93zm4.095-3.607c.064 2.37 2.07 3.735 4.995 3.735 2.647 0 4.632-1.323 4.632-3.415 0-2.434-2.028-2.946-4.525-3.245-1.58-.17-2.626-.298-2.626-1.323 0-.875.897-1.43 2.263-1.43 1.366 0 2.306.704 2.434 1.707h2.262c-.15-2.241-2.049-3.48-4.739-3.48-2.625-.02-4.482 1.324-4.482 3.395 0 2.263 1.964 2.796 4.461 3.095 1.686.214 2.69.299 2.69 1.473 0 .875-.94 1.43-2.37 1.43-1.665 0-2.647-.81-2.732-1.942h-2.263zm10.736 0c.064 2.37 2.07 3.735 4.995 3.735 2.647 0 4.632-1.323 4.632-3.415 0-2.434-2.028-2.946-4.526-3.245-1.58-.17-2.625-.298-2.625-1.323 0-.875.897-1.43 2.263-1.43 1.366 0 2.305.704 2.433 1.707h2.263c-.15-2.241-2.05-3.48-4.739-3.48-2.626-.02-4.483 1.324-4.483 3.395 0 2.263 1.964 2.796 4.462 3.095 1.686.214 2.69.299 2.69 1.473 0 .875-.94 1.43-2.37 1.43-1.665 0-2.647-.81-2.733-1.942h-2.262zm12.588-8.859c.79 0 1.408-.576 1.408-1.387 0-.812-.619-1.388-1.409-1.388s-1.408.576-1.408 1.388c0 .81.619 1.387 1.409 1.387zm-1.175 12.466h2.306V47.214h-2.306v10.93zm9.731.128c3.33 0 5.572-2.241 5.572-5.592 0-3.33-2.242-5.593-5.572-5.593s-5.57 2.263-5.57 5.593c0 3.35 2.24 5.592 5.57 5.592zm0-1.964c-1.942 0-3.201-1.515-3.201-3.628 0-2.114 1.259-3.63 3.201-3.63 1.943 0 3.224 1.516 3.224 3.63 0 2.113-1.281 3.628-3.224 3.628zm13.189-9.221c-1.772 0-2.818.704-3.501 1.558l-.256-1.43h-2.006v10.93h2.305v-5.508c0-2.22 1.089-3.565 2.924-3.565 1.729 0 2.605 1.11 2.605 3.18v5.892h2.326V52.06c0-3.65-1.985-4.974-4.397-4.974zM.031 68.242h1.9v8.901h2.326v-8.901h2.924v-2.028H4.214v-.918c0-.747.32-1.067 1.068-1.067h1.9V62.2h-2.2c-2.112 0-3.052 1.025-3.052 2.988v1.025H.03v2.028zm13.872-2.028c-1.793 0-2.669.726-3.224 1.644l-.256-1.644H8.374v10.93h2.305v-5.487c0-1.686.662-3.287 2.711-3.287h1.025v-2.156h-.512zm6.6 11.057c2.71 0 4.546-1.643 4.93-3.8h-2.305c-.32 1.217-1.345 1.922-2.753 1.922-1.815 0-2.989-1.217-3.053-3.074v-.15h8.24c.042-.298.064-.597.064-.875-.064-3.201-2.178-5.208-5.337-5.208-3.223 0-5.379 2.241-5.379 5.614 0 3.351 2.156 5.571 5.593 5.571zm-3.096-6.788c.171-1.558 1.43-2.54 2.904-2.54 1.6 0 2.732.918 2.924 2.54h-5.828zm15.27 6.788c2.71 0 4.546-1.643 4.93-3.8h-2.305c-.32 1.217-1.345 1.922-2.753 1.922-1.815 0-2.989-1.217-3.053-3.074v-.15h8.24c.042-.298.064-.597.064-.875-.064-3.201-2.178-5.208-5.337-5.208-3.223 0-5.379 2.241-5.379 5.614 0 3.351 2.156 5.571 5.593 5.571zm-3.096-6.788c.171-1.558 1.43-2.54 2.903-2.54 1.602 0 2.733.918 2.925 2.54H29.58zm9.202 5.337c0 .854.619 1.451 1.473 1.451.854 0 1.494-.597 1.494-1.451 0-.854-.64-1.452-1.494-1.452s-1.473.598-1.473 1.452zm9.744-11.442h4.611v12.765h2.455V64.378h4.61v-2.177H48.527v2.177zm21.597 10.759c-.47 0-.704-.15-.704-.705v-4.376c0-2.583-1.666-3.97-4.569-3.97-2.753 0-4.589 1.323-4.824 3.458h2.263c.17-.96 1.089-1.6 2.455-1.6 1.515 0 2.39.746 2.39 1.963v.662h-2.753c-3.053 0-4.675 1.259-4.675 3.5 0 2.028 1.665 3.202 4.056 3.202 1.771 0 2.881-.768 3.607-1.878 0 1.088.513 1.75 2.007 1.75h1.217v-2.006h-.47zm-2.989-2.477c-.02 1.687-1.13 2.818-3.052 2.818-1.26 0-2.028-.64-2.028-1.558 0-1.11.79-1.644 2.22-1.644h2.86v.385zm3.583 4.483h2.54l2.882-3.97 2.86 3.97h2.69l-4.12-5.593 3.885-5.336h-2.54l-2.668 3.693-2.605-3.693h-2.69l3.864 5.337-4.098 5.592zm16.448-8.901h1.9v8.901h2.326v-8.901h2.925v-2.028H91.35v-.918c0-.747.32-1.067 1.067-1.067h1.9V62.2h-2.199c-2.113 0-3.052 1.025-3.052 2.988v1.025h-1.9v2.028zm13.872-2.028c-1.793 0-2.668.726-3.223 1.644l-.257-1.644H95.51v10.93h2.306v-5.487c0-1.686.661-3.287 2.711-3.287h1.024v-2.156h-.512zm6.6 11.057c2.711 0 4.547-1.643 4.931-3.8h-2.305c-.321 1.217-1.345 1.922-2.754 1.922-1.815 0-2.989-1.217-3.053-3.074v-.15h8.24c.043-.298.064-.597.064-.875-.064-3.201-2.177-5.208-5.336-5.208-3.224 0-5.38 2.241-5.38 5.614 0 3.351 2.156 5.571 5.593 5.571zm-3.095-6.788c.171-1.558 1.43-2.54 2.903-2.54 1.601 0 2.732.918 2.924 2.54h-5.827zm15.269 6.788c2.711 0 4.547-1.643 4.931-3.8h-2.306c-.32 1.217-1.344 1.922-2.753 1.922-1.815 0-2.989-1.217-3.053-3.074v-.15h8.24c.043-.298.064-.597.064-.875-.064-3.201-2.177-5.208-5.337-5.208-3.223 0-5.379 2.241-5.379 5.614 0 3.351 2.156 5.571 5.593 5.571zm-3.095-6.788c.17-1.558 1.43-2.54 2.903-2.54 1.601 0 2.732.918 2.924 2.54h-5.827zm9.201 5.337c0 .854.619 1.451 1.473 1.451.854 0 1.494-.597 1.494-1.451 0-.854-.64-1.452-1.494-1.452s-1.473.598-1.473 1.452z" fill="url(#paint0_linear_101_61)"/><defs><linearGradient id="paint0_linear_101_61" x1="132.985" y1="57.664" x2=".009" y2="57.664" gradientUnits="userSpaceOnUse"><stop stop-color="#FF4343"/><stop offset=".5" stop-color="#9C0B93"/><stop offset="1" stop-color="#4C1BB7"/></linearGradient></defs></svg>