<svg width="125" height="21" viewBox="0 0 125 21" fill="none" xmlns="http://www.w3.org/2000/svg"><path d="M9.812.72c-4.554.029-8.13 2.012-8.13 6.398 0 3.827 3.185 4.861 7.627 5.922 3.213.81 3.772.922 3.772 2.04 0 .894-.95 1.285-2.04 1.285-2.486 0-5.308-.726-7.85-2.151L.844 18.125c2.682 1.788 5.979 2.738 9.61 2.738 5.03 0 8.186-2.291 8.186-6.454 0-3.995-3.269-5.112-7.85-6.341-3.045-.754-3.408-1.006-3.408-1.62 0-.894.866-1.286 1.871-1.286 1.928 0 4.554.671 6.789 1.816l2.207-4.05C15.958 1.53 12.94.72 9.812.72zm30.339 19.835V1h-5.28v7.375h-7.962V1h-5.252v19.555h5.252v-7.459h7.962v7.46h5.28zm25.078 0L57.434 1h-6.9l-7.71 19.555h6.285l1.258-3.408h7.319l1.257 3.408h6.286zm-13.494-7.598l2.263-6.09 2.263 6.09h-4.526zm16.137-11.93v19.528h5.252v-5.95h3.128l3.8 5.95h6.062l-4.386-6.648c2.71-.922 3.855-2.906 3.855-6.09 0-4.778-2.542-6.79-8.911-6.79h-8.8zm5.252 4.722h3.799c2.319 0 3.185.727 3.185 2.403 0 1.704-.866 2.402-3.185 2.402h-3.8V5.75zm31.653-.028V1H88.769v19.555h16.175v-4.72H94.021V12.9h10.002V8.43H94.021v-2.71h10.756zm11.106-5c-4.554.028-8.13 2.011-8.13 6.397 0 3.827 3.185 4.861 7.627 5.922 3.213.81 3.771.922 3.771 2.04 0 .894-.949 1.285-2.039 1.285-2.486 0-5.308-.726-7.85-2.151l-2.347 3.911c2.682 1.788 5.979 2.738 9.61 2.738 5.029 0 8.186-2.291 8.186-6.454 0-3.995-3.269-5.112-7.85-6.341-3.045-.754-3.409-1.006-3.409-1.62 0-.894.866-1.286 1.872-1.286 1.928 0 4.554.671 6.789 1.816l2.207-4.05C122.029 1.53 119.012.72 115.883.72z" fill="#09B45B"/></svg>