<svg width="228" height="82" viewBox="0 0 228 82" fill="none" xmlns="http://www.w3.org/2000/svg"><path d="M2.432 28h4.37V1.4h-4.37V28zM21.514 8.316c-3.154 0-5.016 1.254-6.232 2.774l-.456-2.546h-3.572V28h4.104v-9.804c0-3.952 1.938-6.346 5.206-6.346 3.078 0 4.636 1.976 4.636 5.662V28h4.142V17.17c0-6.498-3.534-8.854-7.828-8.854zM37.502 28h5.016L49.7 8.544h-4.332l-5.282 15.048-5.358-15.048H30.32L37.502 28zm22.619.228c4.826 0 8.094-2.926 8.778-6.764h-4.104c-.57 2.166-2.394 3.42-4.902 3.42-3.23 0-5.32-2.166-5.434-5.472v-.266h14.668c.076-.532.114-1.064.114-1.558-.114-5.7-3.876-9.272-9.5-9.272-5.738 0-9.576 3.99-9.576 9.994 0 5.966 3.838 9.918 9.956 9.918zm-5.51-12.084c.304-2.774 2.546-4.522 5.168-4.522 2.85 0 4.864 1.634 5.206 4.522H54.611zm17 5.434c.115 4.218 3.687 6.65 8.893 6.65 4.712 0 8.246-2.356 8.246-6.08 0-4.332-3.61-5.244-8.056-5.776-2.812-.304-4.674-.532-4.674-2.356 0-1.558 1.596-2.546 4.028-2.546 2.432 0 4.104 1.254 4.332 3.04h4.028c-.266-3.99-3.648-6.194-8.436-6.194-4.674-.038-7.98 2.356-7.98 6.042 0 4.028 3.496 4.978 7.942 5.51 3.002.38 4.788.532 4.788 2.622 0 1.558-1.672 2.546-4.218 2.546-2.964 0-4.712-1.444-4.864-3.458h-4.028zm21.725 1.14c0 3.534 1.596 5.282 5.32 5.282h3.8v-3.61h-2.888c-1.558 0-2.09-.57-2.09-2.09V12.154h4.75v-3.61h-4.75V3.11h-4.142v5.434h-3.382v3.61h3.382v10.564zm20.557 5.51c4.826 0 8.094-2.926 8.778-6.764h-4.104c-.57 2.166-2.394 3.42-4.902 3.42-3.23 0-5.32-2.166-5.434-5.472v-.266h14.668c.076-.532.114-1.064.114-1.558-.114-5.7-3.876-9.272-9.5-9.272-5.738 0-9.576 3.99-9.576 9.994 0 5.966 3.838 9.918 9.956 9.918zm-5.51-12.084c.304-2.774 2.546-4.522 5.168-4.522 2.85 0 4.864 1.634 5.206 4.522h-10.374zm32.729-4.902c-1.254-1.71-3.344-2.926-6.308-2.926-5.282 0-9.196 3.952-9.196 9.956 0 6.232 3.914 9.956 9.196 9.956 3.078 0 5.092-1.444 6.346-3.154l.494 2.926h3.572V1.4h-4.104v9.842zm-5.624 13.528c-3.42 0-5.662-2.66-5.662-6.498 0-3.8 2.242-6.46 5.662-6.46s5.662 2.66 5.662 6.536c0 3.762-2.242 6.422-5.662 6.422zM161.04 5.808c1.406 0 2.508-1.026 2.508-2.47 0-1.444-1.102-2.47-2.508-2.47s-2.508 1.026-2.508 2.47c0 1.444 1.102 2.47 2.508 2.47zM158.95 28h4.104V8.544h-4.104V28zm18.387-19.684c-3.154 0-5.016 1.254-6.232 2.774l-.457-2.546h-3.571V28h4.104v-9.804c0-3.952 1.938-6.346 5.206-6.346 3.078 0 4.636 1.976 4.636 5.662V28h4.142V17.17c0-6.498-3.534-8.854-7.828-8.854zM7.638 74.114l-.76 1.9C6.27 77.61 5.89 77.99 4.294 77.99H1.406v3.61h4.408c2.85 0 3.686-1.406 4.902-4.56l8.816-22.496h-4.37L9.88 69.326 4.446 54.544H.076l7.562 19.57zm22.275.114c5.928 0 9.918-3.99 9.918-9.956 0-5.928-3.99-9.956-9.918-9.956-5.928 0-9.918 4.028-9.918 9.956 0 5.966 3.99 9.956 9.918 9.956zm0-3.496c-3.458 0-5.7-2.698-5.7-6.46s2.242-6.46 5.7-6.46 5.738 2.698 5.738 6.46-2.28 6.46-5.738 6.46zm26.556-6.46c0 4.028-1.9 6.384-5.016 6.384-3.002 0-4.522-1.938-4.522-5.738V54.544h-4.104v10.83c0 6.65 3.534 8.854 7.676 8.854 3.002 0 4.788-1.216 6.004-2.698l.456 2.47h3.61V54.544H56.47v9.728zm17.99-9.728c-3.192 0-4.75 1.292-5.737 2.926l-.456-2.926h-3.648V74h4.104v-9.766c0-3.002 1.178-5.852 4.826-5.852h1.823v-3.838h-.911zm12.33 13.034c.114 4.218 3.686 6.65 8.892 6.65 4.712 0 8.246-2.356 8.246-6.08 0-4.332-3.61-5.244-8.056-5.776-2.812-.304-4.674-.532-4.674-2.356 0-1.558 1.596-2.546 4.028-2.546 2.432 0 4.104 1.254 4.332 3.04h4.028c-.266-3.99-3.648-6.194-8.436-6.194-4.674-.038-7.98 2.356-7.98 6.042 0 4.028 3.496 4.978 7.942 5.51 3.002.38 4.788.532 4.788 2.622 0 1.558-1.672 2.546-4.218 2.546-2.964 0-4.712-1.444-4.864-3.458H86.79zm33.657-3.306c0 4.028-1.9 6.384-5.016 6.384-3.002 0-4.522-1.938-4.522-5.738V54.544h-4.104v10.83c0 6.65 3.534 8.854 7.676 8.854 3.002 0 4.788-1.216 6.004-2.698l.456 2.47h3.61V54.544h-4.104v9.728zm17.078 9.956c4.978 0 8.284-2.774 9.044-7.182h-4.332c-.494 2.242-2.166 3.686-4.674 3.686-3.306 0-5.472-2.622-5.472-6.422 0-3.838 2.166-6.498 5.472-6.498 2.546 0 4.18 1.406 4.712 3.686h4.294c-.798-4.408-3.914-7.182-8.93-7.182-5.89 0-9.766 3.99-9.766 9.994 0 6.08 3.762 9.918 9.652 9.918zm21.115 0c4.978 0 8.284-2.774 9.044-7.182h-4.332c-.494 2.242-2.166 3.686-4.674 3.686-3.306 0-5.472-2.622-5.472-6.422 0-3.838 2.166-6.498 5.472-6.498 2.546 0 4.18 1.406 4.712 3.686h4.294c-.798-4.408-3.914-7.182-8.93-7.182-5.89 0-9.766 3.99-9.766 9.994 0 6.08 3.762 9.918 9.652 9.918zm21.42 0c4.826 0 8.094-2.926 8.778-6.764h-4.104c-.57 2.166-2.394 3.42-4.902 3.42-3.23 0-5.32-2.166-5.434-5.472v-.266h14.668c.076-.532.114-1.064.114-1.558-.114-5.7-3.876-9.272-9.5-9.272-5.738 0-9.576 3.99-9.576 9.994 0 5.966 3.838 9.918 9.956 9.918zm-5.51-12.084c.304-2.774 2.546-4.522 5.168-4.522 2.85 0 4.864 1.634 5.206 4.522h-10.374zm17 5.434c.114 4.218 3.686 6.65 8.892 6.65 4.712 0 8.246-2.356 8.246-6.08 0-4.332-3.61-5.244-8.056-5.776-2.812-.304-4.674-.532-4.674-2.356 0-1.558 1.596-2.546 4.028-2.546 2.432 0 4.104 1.254 4.332 3.04h4.028c-.266-3.99-3.648-6.194-8.436-6.194-4.674-.038-7.98 2.356-7.98 6.042 0 4.028 3.496 4.978 7.942 5.51 3.002.38 4.788.532 4.788 2.622 0 1.558-1.672 2.546-4.218 2.546-2.964 0-4.712-1.444-4.864-3.458h-4.028zm19.111 0c.114 4.218 3.686 6.65 8.892 6.65 4.712 0 8.246-2.356 8.246-6.08 0-4.332-3.61-5.244-8.056-5.776-2.812-.304-4.674-.532-4.674-2.356 0-1.558 1.596-2.546 4.028-2.546 2.432 0 4.104 1.254 4.332 3.04h4.028c-.266-3.99-3.648-6.194-8.436-6.194-4.674-.038-7.98 2.356-7.98 6.042 0 4.028 3.496 4.978 7.942 5.51 3.002.38 4.788.532 4.788 2.622 0 1.558-1.672 2.546-4.218 2.546-2.964 0-4.712-1.444-4.864-3.458h-4.028z" fill="#000"/></svg>