<svg width="167" height="117" viewBox="0 0 167 117" fill="none" xmlns="http://www.w3.org/2000/svg"><path d="M2.62 76.137h2.943v7.97h.662v-7.97h2.943v-.613H2.62v.613zm9.4 1.753c-1.153 0-1.644.552-1.902 1.239l-.098-1.239h-.54v6.218h.626v-3.152c0-1.263.331-2.465 1.79-2.465h.454v-.6h-.33zm6.463 5.641c-.368 0-.552-.123-.552-.6v-2.895c0-1.422-.87-2.22-2.428-2.22-1.423 0-2.367.688-2.526 1.816h.625c.16-.76.822-1.263 1.876-1.263 1.165 0 1.827.613 1.827 1.643v.54h-2.109c-1.594 0-2.452.686-2.452 1.851 0 1.104.87 1.778 2.195 1.778 1.263 0 2.01-.576 2.391-1.349v.22c-.024.737.282 1.055 1.018 1.055h.368v-.576h-.233zm-1.178-1.937c0 1.19-.846 2.047-2.317 2.047-.993 0-1.606-.502-1.606-1.275 0-.821.613-1.275 1.765-1.275h2.158v.503zm7.228-2.306c-.38-.883-1.214-1.471-2.379-1.471-1.704 0-2.93 1.3-2.93 3.176 0 1.962 1.226 3.188 2.93 3.188 1.165 0 1.974-.625 2.367-1.496l.098 1.422h.54v-8.583h-.626v3.764zm-2.33 4.329c-1.386 0-2.342-1.08-2.342-2.624 0-1.533.956-2.624 2.342-2.624 1.386 0 2.342 1.091 2.342 2.636 0 1.533-.956 2.612-2.342 2.612zm7.173.564c1.361 0 2.404-.883 2.674-2.134h-.638c-.245.97-1.067 1.57-2.085 1.57-1.386 0-2.256-1.055-2.28-2.502v-.11h5.076c0-.086.012-.184.012-.257-.061-1.852-1.201-2.931-2.87-2.931-1.704 0-2.869 1.3-2.869 3.139 0 1.95 1.214 3.225 2.98 3.225zm-2.28-3.703c.098-1.263 1.042-2.11 2.182-2.11 1.214 0 2.085.749 2.183 2.11h-4.366zm12.327 3.703c1.362 0 2.404-.883 2.674-2.134h-.638c-.245.97-1.067 1.57-2.085 1.57-1.385 0-2.256-1.055-2.28-2.502v-.11h5.076c0-.086.012-.184.012-.257-.06-1.852-1.201-2.931-2.869-2.931-1.705 0-2.87 1.3-2.87 3.139 0 1.95 1.215 3.225 2.98 3.225zm-2.28-3.703c.098-1.263 1.042-2.11 2.182-2.11 1.214 0 2.085.749 2.183 2.11h-4.365zm11.745 3.053c-.368 0-.552-.123-.552-.6v-2.895c0-1.422-.87-2.22-2.428-2.22-1.422 0-2.367.688-2.526 1.816h.625c.16-.76.822-1.263 1.876-1.263 1.165 0 1.828.613 1.828 1.643v.54H45.6c-1.594 0-2.452.686-2.452 1.851 0 1.104.87 1.778 2.195 1.778 1.263 0 2.01-.576 2.391-1.349v.22c-.024.737.282 1.055 1.018 1.055h.368v-.576h-.233zm-1.177-1.937c0 1.19-.847 2.047-2.318 2.047-.993 0-1.607-.502-1.607-1.275 0-.821.614-1.275 1.766-1.275h2.159v.503zm4.784-3.704c-1.152 0-1.643.552-1.9 1.239l-.098-1.239h-.54v6.218h.626v-3.152c0-1.263.33-2.465 1.79-2.465h.454v-.6h-.332zm4.128-.073c-1.14 0-1.877.588-2.232 1.398l-.098-1.325h-.54v6.218h.626v-3.066c0-1.619.821-2.649 2.146-2.649 1.201 0 1.925.785 1.925 2.256v3.459h.625v-3.483c0-1.962-1.042-2.808-2.452-2.808zm4.155-1.239a.432.432 0 00.442-.441.432.432 0 00-.442-.442.432.432 0 00-.441.442c0 .257.196.441.441.441zm-.319 7.53h.626V77.89h-.626v6.218zm4.965-6.291c-1.14 0-1.876.588-2.231 1.398l-.098-1.325h-.54v6.218h.625v-3.066c0-1.619.822-2.649 2.146-2.649 1.202 0 1.926.785 1.926 2.256v3.459h.625v-3.483c0-1.962-1.042-2.808-2.453-2.808zm8.902 1.52c-.38-.92-1.214-1.52-2.367-1.52-1.705 0-2.93 1.287-2.93 3.176 0 1.962 1.225 3.188 2.93 3.188 1.165 0 1.986-.613 2.379-1.582v1.104c0 1.655-.785 2.367-2.281 2.367-1.165 0-1.974-.528-2.17-1.472h-.65c.196 1.324 1.263 2.036 2.77 2.036 2.012 0 2.956-.957 2.956-2.907V77.89h-.54l-.097 1.447zm-2.318 4.28c-1.386 0-2.342-1.08-2.342-2.624 0-1.545.956-2.624 2.342-2.624 1.386 0 2.342 1.079 2.342 2.636 0 1.533-.956 2.612-2.342 2.612zm4.144-1.422c.05 1.287 1.092 1.986 2.649 1.986 1.337 0 2.416-.674 2.416-1.778 0-1.312-1.153-1.57-2.49-1.754-.968-.134-1.827-.245-1.827-1.115 0-.712.7-1.178 1.754-1.178.993 0 1.704.479 1.815 1.288h.637c-.11-1.214-1.103-1.827-2.452-1.827-1.386-.012-2.38.699-2.38 1.766 0 1.25 1.153 1.483 2.429 1.655 1.042.147 1.888.282 1.888 1.202 0 .736-.772 1.201-1.79 1.201-1.19 0-1.962-.551-2.011-1.447h-.638zm15.032 1.336c-.368 0-.552-.123-.552-.6v-2.895c0-1.422-.87-2.22-2.428-2.22-1.422 0-2.366.688-2.526 1.816h.626c.16-.76.821-1.263 1.876-1.263 1.165 0 1.827.613 1.827 1.643v.54h-2.11c-1.593 0-2.452.686-2.452 1.851 0 1.104.87 1.778 2.195 1.778 1.263 0 2.011-.576 2.391-1.349v.22c-.024.737.282 1.055 1.018 1.055h.368v-.576h-.233zm-1.177-1.937c0 1.19-.846 2.047-2.318 2.047-.993 0-1.606-.502-1.606-1.275 0-.821.613-1.275 1.766-1.275h2.158v.503zm1.965.6c.049 1.288 1.09 1.987 2.648 1.987 1.337 0 2.416-.674 2.416-1.778 0-1.312-1.153-1.57-2.49-1.754-.968-.134-1.827-.245-1.827-1.115 0-.712.7-1.178 1.754-1.178.993 0 1.704.479 1.815 1.288h.638c-.11-1.214-1.104-1.827-2.453-1.827-1.386-.012-2.379.699-2.379 1.766 0 1.25 1.153 1.483 2.428 1.655 1.042.147 1.888.282 1.888 1.202 0 .736-.772 1.201-1.79 1.201-1.19 0-1.962-.551-2.01-1.447h-.638zM102 82.66c0 .994.405 1.448 1.46 1.448h.907v-.577h-.858c-.65 0-.883-.245-.883-.883v-4.181h1.68v-.577h-1.68v-1.74H102v1.74h-1.177v.577H102v4.194zm6.188-4.843c-1.165 0-1.889.65-2.244 1.545v-3.838h-.626v8.584h.626v-3.066c0-1.619.821-2.649 2.146-2.649 1.189 0 1.925.785 1.925 2.256v3.459h.625v-3.483c0-1.962-1.042-2.808-2.452-2.808zm6.5 6.364c1.361 0 2.403-.883 2.673-2.134h-.638c-.245.97-1.067 1.57-2.084 1.57-1.386 0-2.257-1.055-2.281-2.502v-.11h5.076c0-.086.013-.184.013-.257-.062-1.852-1.202-2.931-2.87-2.931-1.704 0-2.869 1.3-2.869 3.139 0 1.95 1.214 3.225 2.98 3.225zm-2.281-3.703c.098-1.263 1.042-2.11 2.182-2.11 1.214 0 2.085.749 2.183 2.11h-4.365zm7.876 3.63l-.404 1.005c-.282.687-.393.87-1.03.87h-.785v.577h.956c.834 0 1.03-.319 1.423-1.3l2.979-7.37h-.674l-2.121 5.408-2.159-5.408h-.674l2.489 6.218zM5.98 92.817c-1.165 0-1.889.65-2.245 1.545v-3.838H3.11v8.584h.625v-3.066c0-1.619.822-2.649 2.146-2.649 1.19 0 1.926.785 1.926 2.256v3.459h.625v-3.483c0-1.962-1.042-2.808-2.452-2.808zm9.317 5.714c-.368 0-.552-.123-.552-.6v-2.895c0-1.422-.87-2.22-2.427-2.22-1.423 0-2.367.688-2.527 1.816h.626c.16-.76.821-1.263 1.876-1.263 1.165 0 1.827.613 1.827 1.643v.54h-2.11c-1.593 0-2.452.686-2.452 1.851 0 1.104.871 1.778 2.195 1.778 1.264 0 2.011-.576 2.392-1.349v.22c-.025.737.282 1.055 1.017 1.055h.368v-.576h-.233zm-1.177-1.937c0 1.19-.846 2.047-2.317 2.047-.994 0-1.607-.502-1.607-1.275 0-.821.613-1.275 1.766-1.275h2.158v.503zm5.251-3.777c-1.165 0-1.974.625-2.367 1.496l-.098-1.423h-.54v8.67h.626v-3.887c.356.907 1.202 1.508 2.379 1.508 1.705 0 2.93-1.3 2.93-3.188 0-1.95-1.225-3.176-2.93-3.176zm-.05 5.8c-1.385 0-2.341-1.08-2.341-2.636 0-1.521.956-2.612 2.342-2.612 1.386 0 2.342 1.091 2.342 2.624 0 1.545-.956 2.624-2.342 2.624zm7.223-5.8c-1.165 0-1.974.625-2.367 1.496l-.098-1.423h-.54v8.67h.626v-3.887c.356.907 1.202 1.508 2.38 1.508 1.704 0 2.93-1.3 2.93-3.188 0-1.95-1.226-3.176-2.93-3.176zm-.049 5.8c-1.386 0-2.342-1.08-2.342-2.636 0-1.521.956-2.612 2.342-2.612 1.386 0 2.342 1.091 2.342 2.624 0 1.545-.956 2.624-2.342 2.624zm6.965.564c1.36 0 2.403-.883 2.673-2.134h-.638c-.245.97-1.066 1.57-2.084 1.57-1.386 0-2.257-1.055-2.281-2.502v-.11h5.077c0-.086.012-.184.012-.257-.062-1.852-1.202-2.931-2.87-2.931-1.704 0-2.87 1.3-2.87 3.139 0 1.95 1.215 3.225 2.98 3.225zm-2.281-3.703c.098-1.263 1.042-2.11 2.183-2.11 1.214 0 2.084.749 2.182 2.11H31.18zm9.145-2.661c-1.14 0-1.876.588-2.231 1.398l-.099-1.325h-.539v6.218h.625v-3.066c0-1.619.822-2.649 2.146-2.649 1.202 0 1.925.785 1.925 2.256v3.459h.626v-3.483c0-1.962-1.042-2.808-2.453-2.808zm8.65 6.29h.675l1.84-5.223 1.753 5.224h.674l2.208-6.218h-.638l-1.913 5.47-1.778-5.47h-.576l-1.877 5.47-1.814-5.47h-.663l2.11 6.218zm8.343-7.529a.432.432 0 00.442-.441.432.432 0 00-.442-.442.432.432 0 00-.441.442c0 .257.196.441.441.441zm-.319 7.53h.626V92.89h-.626v6.218zm2.562-1.448c0 .994.405 1.448 1.46 1.448h.907v-.577h-.859c-.65 0-.883-.245-.883-.883v-4.181h1.68v-.577h-1.68v-1.74h-.625v1.74h-1.177v.577h1.177v4.194zm6.188-4.843c-1.165 0-1.889.65-2.244 1.545v-3.838h-.626v8.584h.626v-3.066c0-1.619.821-2.649 2.146-2.649 1.19 0 1.925.785 1.925 2.256v3.459h.625v-3.483c0-1.962-1.042-2.808-2.452-2.808zm10.047 6.364c1.558 0 2.612-.944 2.833-2.183h-1.324c-.184.7-.773 1.104-1.582 1.104-1.042 0-1.717-.699-1.754-1.766v-.086h4.734c.024-.171.037-.343.037-.502-.037-1.84-1.251-2.993-3.066-2.993-1.852 0-3.09 1.288-3.09 3.226 0 1.925 1.238 3.2 3.213 3.2zm-1.778-3.9c.099-.895.822-1.459 1.668-1.459.92 0 1.57.528 1.68 1.46h-3.347zm4.855 3.826h1.46l1.655-2.28 1.643 2.28h1.545l-2.367-3.212 2.232-3.066h-1.46l-1.532 2.122-1.496-2.122h-1.545l2.22 3.066-2.355 3.213zm7.486-1.704c0 1.14.515 1.704 1.717 1.704h1.226v-1.164h-.932c-.502 0-.674-.184-.674-.675v-3.274h1.533v-1.165h-1.533v-1.753h-1.337v1.753h-1.091v1.165h1.091v3.409zm6.634 1.778c1.557 0 2.612-.944 2.833-2.183H94.5c-.184.7-.772 1.104-1.582 1.104-1.042 0-1.716-.699-1.753-1.766v-.086h4.733c.025-.171.037-.343.037-.502-.037-1.84-1.25-2.993-3.066-2.993-1.851 0-3.09 1.288-3.09 3.226 0 1.925 1.239 3.2 3.213 3.2zm-1.778-3.9c.098-.895.822-1.459 1.668-1.459.92 0 1.57.528 1.68 1.46h-3.348zm9.103-2.526c-1.018 0-1.62.405-2.011.896l-.148-.822h-1.152v6.279h1.324v-3.164c0-1.276.625-2.048 1.68-2.048.993 0 1.496.638 1.496 1.827v3.385h1.337v-3.495c0-2.097-1.141-2.858-2.526-2.858zm8.452.945c-.404-.552-1.079-.945-2.035-.945-1.705 0-2.968 1.276-2.968 3.213 0 2.011 1.263 3.213 2.968 3.213.993 0 1.643-.466 2.048-1.018l.159.945h1.153v-8.584h-1.325V93.7zm-1.815 4.365c-1.103 0-1.827-.858-1.827-2.097 0-1.226.724-2.084 1.827-2.084 1.104 0 1.828.858 1.828 2.109 0 1.214-.724 2.072-1.828 2.072zm7.414 1.116c1.557 0 2.612-.944 2.832-2.183h-1.324c-.184.7-.773 1.104-1.582 1.104-1.042 0-1.717-.699-1.753-1.766v-.086h4.733a3.68 3.68 0 00.037-.502c-.037-1.84-1.251-2.993-3.066-2.993-1.852 0-3.09 1.288-3.09 3.226 0 1.925 1.238 3.2 3.213 3.2zm-1.778-3.9c.098-.895.821-1.459 1.667-1.459.92 0 1.57.528 1.68 1.46h-3.347zm10.562-1.581c-.405-.552-1.08-.945-2.036-.945-1.705 0-2.968 1.276-2.968 3.213 0 2.011 1.263 3.213 2.968 3.213.993 0 1.643-.466 2.048-1.018l.159.945h1.153v-8.584h-1.324V93.7zm-1.815 4.365c-1.104 0-1.827-.858-1.827-2.097 0-1.226.723-2.084 1.827-2.084 1.103 0 1.827.858 1.827 2.109 0 1.214-.724 2.072-1.827 2.072zM3.478 112.403c0 1.14.515 1.704 1.717 1.704H6.42v-1.164h-.932c-.503 0-.674-.184-.674-.675v-3.274h1.532v-1.165H4.815v-1.754H3.478v1.754H2.387v1.165h1.091v3.409zm6.962-4.574c-1.03 0-1.533.417-1.852.944l-.147-.944H7.263v6.278h1.325v-3.151c0-.969.38-1.888 1.557-1.888h.589v-1.239h-.294zm6.658 5.126c-.27 0-.405-.086-.405-.405v-2.514c0-1.483-.956-2.281-2.624-2.281-1.582 0-2.636.761-2.771 1.987h1.3c.098-.552.625-.92 1.41-.92.87 0 1.373.43 1.373 1.128v.381H13.8c-1.753 0-2.685.723-2.685 2.011 0 1.165.956 1.839 2.33 1.839 1.017 0 1.655-.441 2.072-1.079 0 .625.294 1.005 1.153 1.005h.699v-1.152h-.27zm-1.717-1.423c-.012.969-.65 1.619-1.753 1.619-.724 0-1.165-.368-1.165-.895 0-.638.453-.944 1.275-.944h1.643v.22zm7.43-2.832c-.404-.552-1.079-.945-2.035-.945-1.705 0-2.968 1.276-2.968 3.213 0 2.011 1.263 3.213 2.968 3.213.993 0 1.643-.466 2.048-1.018l.159.944h1.153v-8.583H22.81v3.176zm-1.815 4.365c-1.103 0-1.827-.858-1.827-2.097 0-1.226.724-2.084 1.827-2.084 1.104 0 1.828.858 1.828 2.109 0 1.214-.724 2.072-1.828 2.072zm5.108-6.119c.454 0 .81-.331.81-.797s-.356-.797-.81-.797c-.453 0-.809.331-.809.797s.356.797.81.797zm-.674 7.161h1.324v-6.278H25.43v6.278zm5.933-6.352c-1.017 0-1.618.405-2.01.896l-.148-.822h-1.153v6.278h1.325v-3.163c0-1.276.625-2.048 1.68-2.048.993 0 1.496.638 1.496 1.827v3.384h1.336v-3.494c0-2.097-1.14-2.858-2.526-2.858zm8.526 1.055c-.405-.625-1.08-1.055-2.06-1.055-1.705 0-2.968 1.264-2.968 3.189 0 1.999 1.263 3.188 2.967 3.188.981 0 1.631-.405 2.048-1.03v.699c0 1.202-.65 1.753-1.802 1.753-.932 0-1.545-.404-1.705-1.103H35.02c.123 1.41 1.288 2.183 2.956 2.183 2.256 0 3.212-1.08 3.212-2.784v-6.021h-1.152l-.148.981zm-1.84 4.206c-1.103 0-1.827-.846-1.827-2.072 0-1.214.724-2.073 1.827-2.073 1.104 0 1.827.859 1.827 2.097 0 1.202-.723 2.048-1.827 2.048zm10.87-5.261c-.981 0-1.582.442-1.975.981v-3.212H45.62v8.583h1.324v-3.176c0-1.263.638-2.035 1.68-2.035.981 0 1.509.638 1.509 1.827v3.384h1.324v-3.494c0-2.097-1.14-2.858-2.538-2.858zm6.662 6.426c1.913 0 3.2-1.288 3.2-3.213 0-1.913-1.287-3.213-3.2-3.213-1.913 0-3.2 1.3-3.2 3.213 0 1.925 1.287 3.213 3.2 3.213zm0-1.128c-1.116 0-1.84-.871-1.84-2.085s.724-2.084 1.84-2.084 1.852.87 1.852 2.084-.736 2.085-1.852 2.085zm8.57-2.085c0 1.3-.613 2.06-1.619 2.06-.969 0-1.46-.625-1.46-1.851v-3.348h-1.324v3.495c0 2.146 1.14 2.857 2.477 2.857.97 0 1.546-.392 1.938-.871l.147.797h1.165v-6.278h-1.324v3.139zm5.805-3.139c-1.03 0-1.533.417-1.851.944l-.148-.944H66.78v6.278h1.325v-3.151c0-.969.38-1.888 1.557-1.888h.589v-1.239h-.295zm.734 4.206c.037 1.361 1.19 2.146 2.87 2.146 1.52 0 2.66-.76 2.66-1.962 0-1.398-1.165-1.692-2.6-1.864-.907-.098-1.508-.172-1.508-.76 0-.503.515-.822 1.3-.822s1.325.405 1.398.981h1.3c-.086-1.287-1.177-1.999-2.722-1.999-1.509-.012-2.576.761-2.576 1.95 0 1.3 1.129 1.607 2.563 1.778.97.123 1.545.172 1.545.846 0 .503-.54.822-1.36.822-.957 0-1.521-.466-1.57-1.116h-1.3zm6.569 1.668c0 .282.196.466.466.466s.466-.184.466-.466c0-.282-.196-.454-.466-.454s-.466.172-.466.454zM7.015 13.082c1.513 0 2.494-.682 2.957-1.363L10.108 13h1.213V7.78H7.18v1.322h2.643v.232c-.081 1.54-1.267 2.371-2.739 2.371-1.826 0-2.97-1.43-2.97-3.475 0-2.044 1.171-3.475 2.984-3.475 1.322 0 2.235.736 2.52 1.949h1.623c-.287-2.017-1.895-3.325-4.102-3.325-2.835 0-4.634 1.949-4.634 4.851 0 2.903 1.84 4.852 4.511 4.852zm9.213 0c1.73 0 2.903-1.05 3.148-2.426h-1.472c-.204.777-.858 1.226-1.758 1.226-1.158 0-1.908-.776-1.949-1.962v-.095h5.26c.028-.191.042-.382.042-.559-.041-2.044-1.39-3.325-3.407-3.325-2.058 0-3.434 1.43-3.434 3.584 0 2.14 1.376 3.557 3.57 3.557zm-1.976-4.334c.109-.995.913-1.622 1.853-1.622 1.022 0 1.745.586 1.867 1.622h-3.72zm6.888 2.358c0 1.267.572 1.894 1.907 1.894h1.363v-1.295h-1.036c-.558 0-.75-.204-.75-.75V7.318h1.704V6.023h-1.703v-1.95H21.14v1.95h-1.213v1.294h1.213v3.789zm10.896 1.976c1.785 0 2.97-.995 3.243-2.576h-1.554c-.177.804-.776 1.322-1.676 1.322-1.185 0-1.962-.94-1.962-2.303 0-1.376.777-2.33 1.962-2.33.913 0 1.5.504 1.69 1.321h1.54c-.286-1.58-1.404-2.575-3.202-2.575-2.113 0-3.503 1.43-3.503 3.584 0 2.18 1.35 3.557 3.462 3.557zm4.37-.082h1.471V3.46h-1.471V13zm9.292-1.281c-.3 0-.45-.095-.45-.45V8.476c0-1.65-1.063-2.535-2.916-2.535-1.758 0-2.93.845-3.08 2.208h1.444c.11-.614.696-1.023 1.568-1.023.967 0 1.526.477 1.526 1.254v.423h-1.758c-1.949 0-2.984.804-2.984 2.235 0 1.294 1.063 2.044 2.589 2.044 1.13 0 1.84-.49 2.303-1.2 0 .696.327 1.118 1.28 1.118h.778v-1.281h-.3zm-1.908-1.58c-.014 1.076-.722 1.798-1.949 1.798-.804 0-1.294-.409-1.294-.995 0-.708.504-1.05 1.417-1.05h1.826v.246zm6.539-4.116c-1.145 0-1.703.463-2.058 1.049l-.163-1.05h-1.309V13h1.472V9.498c0-1.077.423-2.099 1.73-2.099h.655V6.023h-.327zm1.984-.982c.505 0 .9-.368.9-.885 0-.518-.395-.886-.9-.886-.504 0-.9.368-.9.886 0 .517.396.885.9.885zM51.563 13h1.473V6.023h-1.472V13zm3.42-1.894c0 1.267.572 1.894 1.907 1.894h1.363v-1.295h-1.035c-.56 0-.75-.204-.75-.75V7.318h1.703V6.023h-1.703v-1.95h-1.486v1.95H53.77v1.294h1.212v3.789zm6.223 1.935l-.272.681c-.218.573-.354.709-.927.709h-1.036v1.295h1.581c1.022 0 1.322-.505 1.758-1.636l3.162-8.067h-1.567l-1.895 5.3-1.948-5.3h-1.568l2.712 7.018zM71.311 13h1.594l1.527-4.742L75.904 13h1.58l2.317-6.977h-1.499l-1.649 5.342-1.526-5.342h-1.35l-1.594 5.342-1.594-5.342h-1.554L71.311 13zm12.93-7.06c-1.09 0-1.757.491-2.193 1.091v-3.57h-1.472V13h1.472V9.47c0-1.403.708-2.262 1.867-2.262 1.09 0 1.676.709 1.676 2.03V13h1.472V9.116c0-2.33-1.268-3.175-2.821-3.175zm7.418 7.142c1.731 0 2.903-1.05 3.148-2.426h-1.471c-.205.777-.859 1.226-1.758 1.226-1.159 0-1.908-.776-1.95-1.962v-.095h5.261c.028-.191.041-.382.041-.559-.04-2.044-1.39-3.325-3.407-3.325-2.058 0-3.434 1.43-3.434 3.584 0 2.14 1.376 3.557 3.57 3.557zm-1.976-4.334c.11-.995.913-1.622 1.854-1.622 1.022 0 1.744.586 1.867 1.622h-3.72zM99.8 5.941c-1.13 0-1.798.45-2.235.995l-.163-.913H96.12V13h1.472V9.484c0-1.417.695-2.276 1.867-2.276 1.104 0 1.662.709 1.662 2.03V13h1.486V9.116c0-2.33-1.268-3.175-2.808-3.175z" fill="#000"/><path d="M2.246 38.564c0 2.32 1.048 3.469 3.494 3.469h2.496v-2.371H6.339c-1.023 0-1.373-.374-1.373-1.373v-6.663h3.12v-2.371h-3.12v-3.569h-2.72v3.569H.025v2.37h2.221v6.939zm14.168-9.309c-2.096 0-3.12.849-3.768 1.922l-.3-1.922H9.95v12.778h2.696v-6.414c0-1.972.773-3.843 3.17-3.843h1.197v-2.521h-.599zm13.551 10.432c-.549 0-.823-.175-.823-.824v-5.116c0-3.02-1.947-4.642-5.341-4.642-3.22 0-5.366 1.548-5.64 4.043h2.645c.2-1.123 1.273-1.872 2.87-1.872 1.772 0 2.795.874 2.795 2.296v.774h-3.22c-3.568 0-5.465 1.473-5.465 4.093 0 2.371 1.947 3.744 4.742 3.744 2.072 0 3.37-.899 4.218-2.197 0 1.273.599 2.047 2.346 2.047h1.422v-2.346h-.549zm-3.494-2.895c-.025 1.971-1.322 3.294-3.569 3.294-1.472 0-2.37-.748-2.37-1.822 0-1.297.923-1.921 2.595-1.921h3.344v.449zm15.122-5.765c-.824-1.123-2.196-1.922-4.143-1.922-3.469 0-6.04 2.596-6.04 6.539 0 4.093 2.571 6.539 6.04 6.539 2.022 0 3.344-.949 4.168-2.072l.325 1.922h2.345v-17.47h-2.695v6.464zM37.9 39.91c-2.246 0-3.718-1.746-3.718-4.267 0-2.496 1.472-4.243 3.719-4.243 2.246 0 3.718 1.747 3.718 4.293 0 2.47-1.472 4.217-3.718 4.217zm10.396-12.453c.923 0 1.647-.674 1.647-1.622 0-.948-.724-1.622-1.647-1.622-.924 0-1.647.674-1.647 1.622 0 .948.723 1.622 1.647 1.622zm-1.373 14.575h2.696V29.255h-2.696v12.778zm12.076-12.928c-2.071 0-3.294.824-4.093 1.822l-.3-1.672H52.26v12.778h2.695v-6.439c0-2.596 1.273-4.168 3.42-4.168 2.02 0 3.044 1.298 3.044 3.719v6.888h2.72V34.92c0-4.267-2.32-5.815-5.141-5.815zm17.35 2.147c-.823-1.273-2.196-2.147-4.192-2.147-3.47 0-6.04 2.57-6.04 6.489 0 4.068 2.57 6.489 6.04 6.489 1.996 0 3.319-.824 4.167-2.097v1.423c0 2.446-1.322 3.569-3.668 3.569-1.897 0-3.145-.824-3.47-2.246h-2.744c.25 2.87 2.62 4.442 6.014 4.442 4.592 0 6.539-2.196 6.539-5.665V29.255h-2.346l-.3 1.997zm-3.743 8.56c-2.246 0-3.719-1.722-3.719-4.218 0-2.47 1.473-4.218 3.719-4.218 2.246 0 3.718 1.747 3.718 4.268 0 2.446-1.472 4.168-3.718 4.168zM87.19 27.109h5.39v14.924h2.87V27.109h5.391v-2.546H87.19v2.546zm19.293 15.074c3.169 0 5.316-1.922 5.765-4.443h-2.695c-.375 1.423-1.573 2.246-3.22 2.246-2.121 0-3.494-1.422-3.569-3.593v-.175h9.634c.05-.35.074-.699.074-1.023-.074-3.744-2.545-6.09-6.239-6.09-3.768 0-6.289 2.62-6.289 6.564 0 3.918 2.521 6.514 6.539 6.514zm-3.619-7.937c.2-1.822 1.672-2.97 3.394-2.97 1.872 0 3.195 1.074 3.419 2.97h-6.813zm11.165 3.57c.075 2.77 2.421 4.367 5.84 4.367 3.095 0 5.416-1.548 5.416-3.993 0-2.846-2.371-3.444-5.291-3.794-1.847-.2-3.07-.35-3.07-1.547 0-1.023 1.049-1.672 2.646-1.672s2.695.823 2.845 1.996h2.645c-.174-2.62-2.396-4.068-5.54-4.068-3.07-.025-5.241 1.548-5.241 3.968 0 2.646 2.296 3.27 5.216 3.62 1.971.249 3.144.349 3.144 1.721 0 1.023-1.098 1.672-2.77 1.672-1.946 0-3.094-.948-3.194-2.27h-2.646zm13.345 4.217h2.695v-17.47h-2.695v17.47zm17.017-2.346c-.549 0-.824-.175-.824-.824v-5.116c0-3.02-1.946-4.642-5.341-4.642-3.219 0-5.365 1.548-5.64 4.043h2.646c.199-1.123 1.272-1.872 2.87-1.872 1.772 0 2.795.874 2.795 2.296v.774h-3.22c-3.568 0-5.465 1.473-5.465 4.093 0 2.371 1.946 3.744 4.742 3.744 2.071 0 3.369-.899 4.217-2.197 0 1.273.599 2.047 2.346 2.047h1.423v-2.346h-.549zm-3.494-2.895c-.025 1.971-1.323 3.294-3.569 3.294-1.472 0-2.371-.748-2.371-1.822 0-1.297.923-1.921 2.596-1.921h3.344v.449zM.774 59.815c.075 2.77 2.42 4.368 5.84 4.368 3.094 0 5.415-1.548 5.415-3.994 0-2.845-2.37-3.444-5.29-3.793-1.847-.2-3.07-.35-3.07-1.547 0-1.023 1.048-1.672 2.645-1.672S9.01 54 9.16 55.173h2.646c-.175-2.62-2.396-4.068-5.54-4.068-3.07-.025-5.242 1.548-5.242 3.968 0 2.646 2.296 3.27 5.216 3.62 1.972.249 3.145.349 3.145 1.721 0 1.023-1.098 1.672-2.77 1.672-1.947 0-3.095-.948-3.195-2.27H.774zm20.057-8.71c-1.996 0-3.22.899-4.018 1.997v-6.539h-2.695v17.47h2.695v-6.464c0-2.57 1.298-4.143 3.42-4.143 1.996 0 3.069 1.298 3.069 3.719v6.888h2.695V56.92c0-4.267-2.32-5.815-5.166-5.815zm19.297 10.582c-.549 0-.823-.175-.823-.824v-5.116c0-3.02-1.947-4.642-5.341-4.642-3.22 0-5.366 1.548-5.64 4.043h2.645c.2-1.123 1.273-1.872 2.87-1.872 1.772 0 2.795.874 2.795 2.296v.774h-3.22c-3.568 0-5.465 1.473-5.465 4.093 0 2.371 1.947 3.744 4.742 3.744 2.072 0 3.37-.899 4.218-2.197 0 1.273.599 2.047 2.346 2.047h1.422v-2.346h-.549zm-3.494-2.895c-.025 1.971-1.322 3.294-3.569 3.294-1.472 0-2.37-.748-2.37-1.822 0-1.297.923-1.921 2.595-1.921h3.344v.449zm11.975-7.537c-2.096 0-3.12.848-3.768 1.922l-.3-1.922h-2.396v12.778h2.696v-6.414c0-1.972.773-3.843 3.17-3.843h1.197v-2.521h-.599zm7.717 12.928c3.17 0 5.316-1.922 5.765-4.443h-2.696c-.374 1.423-1.572 2.246-3.219 2.246-2.121 0-3.494-1.422-3.569-3.593v-.175h9.633c.05-.35.075-.699.075-1.023-.075-3.744-2.545-6.09-6.239-6.09-3.768 0-6.289 2.62-6.289 6.564 0 3.918 2.52 6.514 6.539 6.514zm-3.619-7.937c.2-1.822 1.672-2.97 3.394-2.97 1.872 0 3.195 1.074 3.42 2.97h-6.814zm26.034 7.937c4.068 0 7.038-2.396 7.587-6.09h-2.97c-.549 2.221-2.221 3.569-4.642 3.569-3.294 0-5.29-2.645-5.29-6.364 0-3.744 2.046-6.364 5.365-6.364 2.37 0 4.018 1.373 4.592 3.569h2.97c-.574-3.694-3.444-6.09-7.437-6.09-5.166 0-8.435 3.57-8.435 8.885 0 5.366 3.169 8.885 8.26 8.885zm9.961-.15h2.87v-7.387h6.838v-2.471h-6.838v-5.066h8.286v-2.546H88.702v17.47zm19.295 0c5.466 0 8.91-3.569 8.91-8.76 0-5.19-3.444-8.71-8.91-8.71h-5.939v17.47h5.939zm-3.069-14.974h3.069c3.844 0 5.965 2.47 5.965 6.214s-2.121 6.264-5.965 6.264h-3.069V49.06zm13.683 10.756c.075 2.77 2.421 4.368 5.84 4.368 3.095 0 5.416-1.548 5.416-3.994 0-2.845-2.371-3.444-5.291-3.793-1.847-.2-3.07-.35-3.07-1.547 0-1.023 1.048-1.672 2.646-1.672 1.597 0 2.695.823 2.845 1.996h2.645c-.175-2.62-2.396-4.068-5.54-4.068-3.07-.025-5.241 1.548-5.241 3.968 0 2.646 2.296 3.27 5.216 3.62 1.971.249 3.144.349 3.144 1.721 0 1.023-1.098 1.672-2.77 1.672-1.947 0-3.095-.948-3.194-2.27h-2.646z" fill="url(#paint0_linear_1_247)"/><defs><linearGradient id="paint0_linear_1_247" x1="167" y1="47.07" x2="0" y2="47.07" gradientUnits="userSpaceOnUse"><stop stop-color="#FF4343"/><stop offset=".5" stop-color="#9C0B93"/><stop offset="1" stop-color="#4C1BB7"/></linearGradient></defs></svg>