<svg width="234" height="19" viewBox="0 0 234 19" fill="none" xmlns="http://www.w3.org/2000/svg"><path d="M.684 10.13c.076 2.66 2.071 4.484 5.377 4.484 2.926 0 4.921-1.653 4.921-4.047.019-2.622-2.128-3.325-4.332-3.724-2.09-.361-3.458-.646-3.458-2.014 0-1.254 1.045-1.9 2.546-1.9 1.615 0 2.679.912 2.85 2.261h2.185c-.095-2.451-1.995-4.104-5.035-4.104-2.831 0-4.731 1.577-4.731 3.895 0 2.641 2.09 3.344 4.294 3.724 2.109.38 3.496.684 3.496 2.09 0 1.273-1.14 1.976-2.717 1.976-1.862 0-3.078-1.045-3.192-2.603L.684 10.13zm20.904 2.584c-.418 0-.627-.133-.627-.627V8.192c0-2.299-1.481-3.534-4.066-3.534-2.45 0-4.085 1.178-4.293 3.078h2.014c.152-.855.969-1.425 2.184-1.425 1.35 0 2.128.665 2.128 1.748v.589h-2.45c-2.718 0-4.162 1.121-4.162 3.116 0 1.805 1.482 2.85 3.61 2.85 1.577 0 2.565-.684 3.211-1.672 0 .969.456 1.558 1.787 1.558h1.082v-1.786h-.418zm-2.66-2.204c-.018 1.501-1.006 2.508-2.716 2.508-1.121 0-1.806-.57-1.806-1.387 0-.988.704-1.463 1.976-1.463h2.546v.342zm9.117-5.738c-1.596 0-2.375.646-2.869 1.463l-.228-1.463h-1.824V14.5h2.052V9.617c0-1.501.59-2.926 2.413-2.926h.912V4.772h-.456zm10.317 7.942c-.418 0-.627-.133-.627-.627V8.192c0-2.299-1.482-3.534-4.066-3.534-2.451 0-4.085 1.178-4.294 3.078h2.014c.152-.855.969-1.425 2.185-1.425 1.349 0 2.128.665 2.128 1.748v.589H33.25c-2.717 0-4.161 1.121-4.161 3.116 0 1.805 1.482 2.85 3.61 2.85 1.577 0 2.565-.684 3.21-1.672 0 .969.457 1.558 1.787 1.558h1.083v-1.786h-.418zm-2.66-2.204c-.02 1.501-1.007 2.508-2.717 2.508-1.121 0-1.805-.57-1.805-1.387 0-.988.703-1.463 1.976-1.463h2.546v.342zm8.586 4.104c2.49 0 4.142-1.387 4.522-3.591h-2.166c-.247 1.121-1.083 1.843-2.337 1.843-1.653 0-2.736-1.311-2.736-3.211 0-1.919 1.083-3.249 2.736-3.249 1.273 0 2.09.703 2.356 1.843h2.147c-.399-2.204-1.957-3.591-4.465-3.591-2.945 0-4.883 1.995-4.883 4.997 0 3.04 1.881 4.959 4.826 4.959zm10.71 0c2.413 0 4.047-1.463 4.389-3.382h-2.052c-.285 1.083-1.197 1.71-2.451 1.71-1.615 0-2.66-1.083-2.717-2.736v-.133h7.334c.038-.266.057-.532.057-.779-.057-2.85-1.938-4.636-4.75-4.636-2.869 0-4.788 1.995-4.788 4.997 0 2.983 1.919 4.959 4.978 4.959zm-2.755-6.042c.152-1.387 1.273-2.261 2.584-2.261 1.425 0 2.432.817 2.603 2.261h-5.187zm14.104-3.914c-1.577 0-2.508.627-3.116 1.387l-.228-1.273h-1.786V14.5h2.052V9.598c0-1.976.969-3.173 2.603-3.173 1.539 0 2.318.988 2.318 2.831V14.5h2.071V9.085c0-3.249-1.767-4.427-3.914-4.427zm5.362 6.631c.057 2.109 1.843 3.325 4.446 3.325 2.356 0 4.123-1.178 4.123-3.04 0-2.166-1.805-2.622-4.028-2.888-1.406-.152-2.337-.266-2.337-1.178 0-.779.798-1.273 2.014-1.273 1.216 0 2.052.627 2.166 1.52h2.014c-.133-1.995-1.824-3.097-4.218-3.097-2.337-.019-3.99 1.178-3.99 3.021 0 2.014 1.748 2.489 3.971 2.755 1.501.19 2.394.266 2.394 1.311 0 .779-.836 1.273-2.109 1.273-1.482 0-2.356-.722-2.432-1.729H71.71zm21.006 3.325c3.097 0 5.358-1.824 5.776-4.636H96.23c-.418 1.691-1.691 2.717-3.534 2.717-2.508 0-4.028-2.014-4.028-4.845 0-2.85 1.558-4.845 4.085-4.845 1.805 0 3.059 1.045 3.496 2.717h2.26c-.436-2.812-2.621-4.636-5.661-4.636-3.933 0-6.422 2.717-6.422 6.764 0 4.085 2.413 6.764 6.289 6.764zM105.2 4.658c-1.52 0-2.451.684-3.059 1.52V1.2h-2.052v13.3h2.052V9.579c0-1.957.988-3.154 2.603-3.154 1.52 0 2.337.988 2.337 2.831V14.5h2.052V9.085c0-3.249-1.767-4.427-3.933-4.427zm14.691 8.056c-.418 0-.627-.133-.627-.627V8.192c0-2.299-1.482-3.534-4.066-3.534-2.451 0-4.085 1.178-4.294 3.078h2.014c.152-.855.969-1.425 2.185-1.425 1.349 0 2.128.665 2.128 1.748v.589h-2.451c-2.717 0-4.161 1.121-4.161 3.116 0 1.805 1.482 2.85 3.61 2.85 1.577 0 2.565-.684 3.211-1.672 0 .969.456 1.558 1.786 1.558h1.083v-1.786h-.418zm-2.66-2.204c-.019 1.501-1.007 2.508-2.717 2.508-1.121 0-1.805-.57-1.805-1.387 0-.988.703-1.463 1.976-1.463h2.546v.342zm15.387-5.852c-1.596 0-2.698.703-3.325 1.767-.589-1.254-1.729-1.767-3.002-1.767-1.463.019-2.299.665-2.85 1.387l-.228-1.273h-1.786V14.5h2.052V9.294c0-1.729.874-2.869 2.28-2.869 1.349 0 2.052.893 2.052 2.603V14.5h2.071V9.237c0-1.748.893-2.812 2.299-2.812 1.33 0 2.033.893 2.033 2.603V14.5h2.052V8.895c0-3.078-1.634-4.237-3.648-4.237zm10.714 0c-1.52 0-2.527.703-3.173 1.558l-.247-1.444h-1.786V18.3h2.052v-5.168c.608.874 1.653 1.482 3.154 1.482 2.66 0 4.598-1.976 4.598-4.978 0-3.116-1.938-4.978-4.598-4.978zm-.342 8.227c-1.71 0-2.831-1.349-2.831-3.287 0-1.881 1.121-3.192 2.831-3.192s2.85 1.311 2.85 3.23c0 1.9-1.14 3.249-2.85 3.249zm7.629-9.481c.703 0 1.254-.513 1.254-1.235 0-.722-.551-1.235-1.254-1.235s-1.254.513-1.254 1.235c0 .722.551 1.235 1.254 1.235zM149.574 14.5h2.052V4.772h-2.052V14.5zm8.662.114c2.964 0 4.959-1.995 4.959-4.978 0-2.964-1.995-4.978-4.959-4.978-2.964 0-4.959 2.014-4.959 4.978 0 2.983 1.995 4.978 4.959 4.978zm0-1.748c-1.729 0-2.85-1.349-2.85-3.23s1.121-3.23 2.85-3.23 2.869 1.349 2.869 3.23-1.14 3.23-2.869 3.23zm11.739-8.208c-1.577 0-2.508.627-3.116 1.387l-.228-1.273h-1.786V14.5h2.052V9.598c0-1.976.969-3.173 2.603-3.173 1.539 0 2.318.988 2.318 2.831V14.5h2.071V9.085c0-3.249-1.767-4.427-3.914-4.427zm5.362 6.631c.057 2.109 1.843 3.325 4.446 3.325 2.356 0 4.123-1.178 4.123-3.04 0-2.166-1.805-2.622-4.028-2.888-1.406-.152-2.337-.266-2.337-1.178 0-.779.798-1.273 2.014-1.273 1.216 0 2.052.627 2.166 1.52h2.014c-.133-1.995-1.824-3.097-4.218-3.097-2.337-.019-3.99 1.178-3.99 3.021 0 2.014 1.748 2.489 3.971 2.755 1.501.19 2.394.266 2.394 1.311 0 .779-.836 1.273-2.109 1.273-1.482 0-2.356-.722-2.432-1.729h-2.014zm14.432 3.211h9.424v-1.843h-6.441l3.534-2.945c1.615-1.349 2.812-2.584 2.812-4.56 0-2.432-1.672-4.066-4.655-4.066-2.831 0-4.655 1.843-4.655 4.37v.342h2.109V5.57c0-1.653 1.026-2.679 2.546-2.679 1.52 0 2.527.836 2.527 2.356 0 1.273-.893 2.204-2.09 3.211l-5.111 4.351V14.5zm13.126-11.951c0 .703-.285 1.197-.969 1.197h-2.071v1.805h2.166c.361 0 .646-.057.836-.171v9.12h2.109V1.2h-2.071v1.349zm5.336 14.421L213.627.63h-1.995l-5.377 16.34h1.976zm5.714-2.47h9.424v-1.843h-6.441l3.534-2.945c1.615-1.349 2.812-2.584 2.812-4.56 0-2.432-1.672-4.066-4.655-4.066-2.831 0-4.655 1.843-4.655 4.37v.342h2.109V5.57c0-1.653 1.026-2.679 2.546-2.679 1.52 0 2.527.836 2.527 2.356 0 1.273-.893 2.204-2.09 3.211l-5.111 4.351V14.5zm10.391 0h9.424v-1.843h-6.441l3.534-2.945c1.615-1.349 2.812-2.584 2.812-4.56 0-2.432-1.672-4.066-4.655-4.066-2.831 0-4.655 1.843-4.655 4.37v.342h2.109V5.57c0-1.653 1.026-2.679 2.546-2.679 1.52 0 2.527.836 2.527 2.356 0 1.273-.893 2.204-2.09 3.211l-5.111 4.351V14.5z" fill="#000"/></svg>