<svg width="107" height="57" viewBox="0 0 107 57" fill="none" xmlns="http://www.w3.org/2000/svg"><path d="M.736 8.56c.112 2.112 1.648 3.536 4.16 3.536 2.352 0 3.904-1.28 3.904-3.168 0-2.128-1.888-2.672-3.744-2.992-1.712-.288-3.2-.576-3.2-2.176 0-1.456 1.136-2.272 2.896-2.272 1.68 0 2.832.944 3.024 2.4h.88C8.496 1.968 7.04.704 4.752.704c-2.272 0-3.76 1.2-3.76 3.104 0 2.128 1.824 2.608 3.616 2.912 1.76.304 3.328.656 3.328 2.288 0 1.44-1.216 2.304-3.024 2.304-1.888 0-3.168-1.088-3.28-2.752H.736zm10.379 1.552c0 1.296.528 1.888 1.904 1.888h1.184v-.752h-1.12c-.848 0-1.152-.32-1.152-1.152V4.64h2.192v-.752H11.93V1.616h-.816v2.272H9.579v.752h1.536v5.472zm11.293 1.136c-.48 0-.72-.16-.72-.784V6.688c0-1.856-1.136-2.896-3.168-2.896-1.855 0-3.088.896-3.295 2.368h.816c.207-.992 1.072-1.648 2.447-1.648 1.52 0 2.384.8 2.384 2.144v.704H18.12c-2.08 0-3.2.896-3.2 2.416 0 1.44 1.136 2.32 2.865 2.32 1.648 0 2.623-.752 3.12-1.76v.288c-.033.96.367 1.376 1.328 1.376h.48v-.752h-.305zM20.872 8.72c0 1.552-1.104 2.672-3.023 2.672-1.297 0-2.097-.656-2.097-1.664 0-1.072.8-1.664 2.304-1.664h2.816v.656zm6.244-4.832c-1.504 0-2.144.72-2.48 1.616l-.128-1.616h-.704V12h.816V7.888c0-1.648.432-3.216 2.336-3.216h.592v-.784h-.432zm2.468 6.224c0 1.296.528 1.888 1.904 1.888h1.184v-.752h-1.12c-.848 0-1.152-.32-1.152-1.152V4.64h2.192v-.752H30.4V1.616h-.816v2.272h-1.536v.752h1.536v5.472zm9.25 0c0 1.296.528 1.888 1.904 1.888h1.184v-.752h-1.12c-.848 0-1.152-.32-1.152-1.152V4.64h2.192v-.752H39.65V1.616h-.816v2.272h-1.536v.752h1.536v5.472zm7.641-6.224c-1.504 0-2.144.72-2.48 1.616l-.128-1.616h-.704V12h.816V7.888c0-1.648.432-3.216 2.336-3.216h.592v-.784h-.432zm8.433 7.36c-.48 0-.72-.16-.72-.784V6.688c0-1.856-1.136-2.896-3.168-2.896-1.856 0-3.088.896-3.296 2.368h.817c.208-.992 1.072-1.648 2.448-1.648 1.52 0 2.384.8 2.384 2.144v.704H50.62c-2.08 0-3.2.896-3.2 2.416 0 1.44 1.136 2.32 2.864 2.32 1.648 0 2.623-.752 3.12-1.76v.288c-.032.96.367 1.376 1.328 1.376h.48v-.752h-.305zM53.373 8.72c0 1.552-1.104 2.672-3.024 2.672-1.296 0-2.096-.656-2.096-1.664 0-1.072.8-1.664 2.303-1.664h2.817v.656zm9.43-3.008c-.496-1.152-1.584-1.92-3.104-1.92-2.224 0-3.824 1.696-3.824 4.144 0 2.56 1.6 4.16 3.824 4.16 1.52 0 2.576-.816 3.088-1.952L62.915 12h.704V.8h-.816v4.912zm-3.04 5.648c-1.808 0-3.056-1.408-3.056-3.424 0-2 1.248-3.424 3.056-3.424s3.056 1.424 3.056 3.44c0 2-1.248 3.408-3.056 3.408zm6.191-9.184c.32 0 .576-.24.576-.576a.564.564 0 00-.576-.576c-.32 0-.576.24-.576.576 0 .336.256.576.576.576zM65.538 12h.816V3.888h-.816V12zm6.478-8.208c-1.488 0-2.448.768-2.912 1.824l-.127-1.728h-.705V12h.816V8c0-2.112 1.073-3.456 2.8-3.456 1.569 0 2.512 1.024 2.512 2.944V12h.816V7.456c0-2.56-1.36-3.664-3.2-3.664zM83.63 5.776c-.495-1.2-1.584-1.984-3.087-1.984-2.225 0-3.825 1.68-3.825 4.144 0 2.56 1.6 4.16 3.825 4.16 1.52 0 2.591-.8 3.103-2.064v1.44c0 2.16-1.023 3.088-2.975 3.088-1.52 0-2.577-.688-2.833-1.92h-.847c.255 1.728 1.647 2.656 3.615 2.656 2.625 0 3.857-1.248 3.857-3.792V3.888h-.704l-.129 1.888zm-3.023 5.584c-1.808 0-3.056-1.408-3.056-3.424s1.248-3.424 3.055-3.424c1.809 0 3.056 1.408 3.056 3.44 0 2-1.248 3.408-3.056 3.408zm13.671.736c2.288 0 3.904-1.696 3.904-4.16 0-2.448-1.616-4.144-3.904-4.144S90.39 5.488 90.39 7.936c0 2.464 1.6 4.16 3.888 4.16zm0-.736c-1.808 0-3.056-1.408-3.056-3.424 0-2 1.248-3.424 3.056-3.424s3.056 1.424 3.056 3.424c0 2.016-1.248 3.424-3.056 3.424zm9.27-7.568c-1.488 0-2.448.768-2.912 1.824l-.128-1.728h-.704V12h.816V8c0-2.112 1.072-3.456 2.8-3.456 1.568 0 2.512 1.024 2.512 2.944V12h.816V7.456c0-2.56-1.36-3.664-3.2-3.664zM2.688 24.224c0 .512-.24.864-.736.864H.032v.752h1.92c.336 0 .576-.096.72-.272V34h.832V22.8h-.816v1.424zm7.871 3.968c1.264-.256 2.097-1.152 2.097-2.608 0-1.712-1.36-2.88-3.537-2.88-2.127 0-3.663 1.232-3.68 3.152h.832c.016-1.472 1.2-2.4 2.849-2.4 1.6 0 2.688.864 2.688 2.16 0 1.312-.944 2.304-2.8 2.304h-.88v.72h.928c1.952 0 3.056.8 3.056 2.24 0 1.456-1.28 2.464-3.008 2.464-1.808 0-3.088-.976-3.088-2.624h-.832c0 2.112 1.535 3.376 3.872 3.376 2.336 0 3.904-1.312 3.904-3.168 0-1.744-1.105-2.544-2.4-2.736zm3.971 4.688c-.432 0-.704.272-.704.624 0 .384.256.576.56.576.16 0 .32-.064.4-.192.112.112.144.272.144.416 0 .608-.384 1.232-1.2 1.264v.48c1.104-.048 1.792-.784 1.792-1.84 0-.736-.416-1.328-.992-1.328zm1.613-4.224c0 3.28 1.616 5.44 4.048 5.44 2.4 0 4.032-2.16 4.032-5.44v-.512c0-3.184-1.632-5.44-4.032-5.44-2.432 0-4.048 2.256-4.048 5.44v.512zm7.232-.032c0 2.848-1.264 4.704-3.184 4.704-1.936 0-3.2-1.856-3.2-4.704v-.448c0-2.848 1.264-4.704 3.2-4.704 1.92 0 3.184 1.856 3.184 4.704v.448zm2.377.032c0 3.28 1.616 5.44 4.048 5.44 2.4 0 4.032-2.16 4.032-5.44v-.512c0-3.184-1.632-5.44-4.032-5.44-2.432 0-4.048 2.256-4.048 5.44v.512zm7.232-.032c0 2.848-1.264 4.704-3.184 4.704-1.936 0-3.2-1.856-3.2-4.704v-.448c0-2.848 1.264-4.704 3.2-4.704 1.92 0 3.184 1.856 3.184 4.704v.448zm2.378.032c0 3.28 1.616 5.44 4.048 5.44 2.4 0 4.032-2.16 4.032-5.44v-.512c0-3.184-1.632-5.44-4.032-5.44-2.432 0-4.048 2.256-4.048 5.44v.512zm7.232-.032c0 2.848-1.264 4.704-3.184 4.704-1.936 0-3.2-1.856-3.2-4.704v-.448c0-2.848 1.264-4.704 3.2-4.704 1.92 0 3.184 1.856 3.184 4.704v.448zm5.45.432h-2.785v.688h2.784v2.928h.752v-2.928h2.8v-.688h-2.8v-2.928h-.752v2.928zm16.508-1.28c-.496-1.2-1.584-1.984-3.088-1.984-2.224 0-3.824 1.68-3.824 4.144 0 2.56 1.6 4.16 3.824 4.16 1.52 0 2.592-.8 3.104-2.064v1.44c0 2.16-1.024 3.088-2.976 3.088-1.52 0-2.576-.688-2.832-1.92h-.848c.256 1.728 1.648 2.656 3.616 2.656 2.624 0 3.856-1.248 3.856-3.792v-7.616h-.704l-.128 1.888zm-3.024 5.584c-1.808 0-3.056-1.408-3.056-3.424s1.248-3.424 3.056-3.424 3.056 1.408 3.056 3.44c0 2-1.248 3.408-3.056 3.408zm5.776.64h.816V22.8h-.816V34zm6.318.096c2.288 0 3.904-1.696 3.904-4.16 0-2.448-1.616-4.144-3.904-4.144s-3.888 1.696-3.888 4.144c0 2.464 1.6 4.16 3.888 4.16zm0-.736c-1.808 0-3.056-1.408-3.056-3.424 0-2 1.248-3.424 3.056-3.424s3.056 1.424 3.056 3.424c0 2.016-1.248 3.424-3.056 3.424zm9.445-7.568c-1.52 0-2.591.832-3.103 1.984V22.8h-.817V34h.704l.129-1.84c.48 1.168 1.567 1.936 3.087 1.936 2.225 0 3.825-1.696 3.825-4.16 0-2.544-1.6-4.144-3.825-4.144zm-.063 7.568c-1.809 0-3.056-1.408-3.056-3.44 0-1.984 1.248-3.408 3.056-3.408 1.807 0 3.055 1.424 3.055 3.424 0 2.016-1.248 3.424-3.055 3.424zm12.639-.112c-.48 0-.72-.16-.72-.784v-3.776c0-1.856-1.136-2.896-3.168-2.896-1.856 0-3.088.896-3.296 2.368h.816c.208-.992 1.072-1.648 2.448-1.648 1.52 0 2.384.8 2.384 2.144v.704h-2.752c-2.08 0-3.2.896-3.2 2.416 0 1.44 1.136 2.32 2.864 2.32 1.648 0 2.624-.752 3.12-1.76v.288c-.032.96.368 1.376 1.328 1.376h.48v-.752h-.304zm-1.536-2.528c0 1.552-1.104 2.672-3.024 2.672-1.296 0-2.096-.656-2.096-1.664 0-1.072.8-1.664 2.304-1.664h2.816v.656zM97.038 34h.816V22.8h-.816V34zM10.016 47.792c-1.488 0-2.448.832-2.912 2.032-.384-1.344-1.392-2.032-2.672-2.032-1.392 0-2.224.816-2.64 1.824l-.128-1.728H.96V56h.816v-4.128c0-1.984.96-3.328 2.512-3.328 1.408 0 2.288.992 2.288 2.864V56h.816v-4.416c.048-1.856 1.008-3.04 2.528-3.04 1.408 0 2.256.944 2.256 2.784V56h.832v-4.704c0-2.448-1.296-3.504-2.992-3.504zm11.94 7.456c-.48 0-.72-.16-.72-.784v-3.776c0-1.856-1.137-2.896-3.169-2.896-1.856 0-3.088.896-3.296 2.368h.816c.208-.992 1.072-1.648 2.448-1.648 1.52 0 2.384.8 2.384 2.144v.704h-2.752c-2.08 0-3.2.896-3.2 2.416 0 1.44 1.136 2.32 2.864 2.32 1.648 0 2.624-.752 3.12-1.76v.288c-.032.96.368 1.376 1.328 1.376h.48v-.752h-.304zm-1.537-2.528c0 1.552-1.104 2.672-3.024 2.672-1.296 0-2.096-.656-2.096-1.664 0-1.072.8-1.664 2.304-1.664h2.816v.656zm6.244-4.832c-1.504 0-2.144.72-2.48 1.616l-.128-1.616h-.704V56h.816v-4.112c0-1.648.432-3.216 2.336-3.216h.592v-.784h-.432zM28.303 56h.817v-2.192l1.904-1.952L34.128 56h.992l-3.536-4.736 3.264-3.376H33.84l-4.72 4.864V44.8h-.816V56zm11.053.096c1.776 0 3.136-1.152 3.488-2.784h-.831c-.32 1.264-1.392 2.048-2.72 2.048-1.809 0-2.944-1.376-2.977-3.264v-.144h6.624c0-.112.017-.24.017-.336-.08-2.416-1.569-3.824-3.745-3.824-2.224 0-3.744 1.696-3.744 4.096 0 2.544 1.584 4.208 3.888 4.208zm-2.976-4.832c.128-1.648 1.36-2.752 2.848-2.752 1.584 0 2.72.976 2.849 2.752H36.38zm8.672 2.848c0 1.296.528 1.888 1.904 1.888h1.184v-.752h-1.12c-.848 0-1.152-.32-1.152-1.152V48.64h2.192v-.752h-2.192v-2.272h-.816v2.272h-1.536v.752h1.536v5.472zm3.962-.608c.064 1.68 1.424 2.592 3.456 2.592 1.744 0 3.152-.88 3.152-2.32 0-1.712-1.504-2.048-3.248-2.288-1.264-.176-2.384-.32-2.384-1.456 0-.928.912-1.536 2.288-1.536 1.296 0 2.224.624 2.368 1.68h.832c-.144-1.584-1.44-2.384-3.2-2.384-1.808-.016-3.104.912-3.104 2.304 0 1.632 1.504 1.936 3.168 2.16 1.36.192 2.464.368 2.464 1.568 0 .96-1.008 1.568-2.336 1.568-1.552 0-2.56-.72-2.624-1.888h-.832z" fill="#000"/></svg>