<svg width="90" height="27" viewBox="0 0 90 27" fill="none" xmlns="http://www.w3.org/2000/svg"><rect x=".072" y=".625" width="89" height="26" rx="13" fill="#123B63"/><path d="M16.83 17.625V9.907h.909v6.93h3.897v.788H16.83zm8.255.099c-.861 0-1.54-.248-2.036-.744-.496-.504-.745-1.201-.745-2.091 0-.577.11-1.077.329-1.5.219-.43.525-.763.92-.996.394-.241.846-.362 1.357-.362.503 0 .927.106 1.27.318.343.211.606.514.788.908.183.387.274.847.274 1.38v.328h-4.259v-.558h3.679l-.186.142c0-.584-.132-1.04-.395-1.368-.262-.329-.653-.493-1.171-.493-.547 0-.974.194-1.28.58-.307.38-.46.894-.46 1.544v.099c0 .686.167 1.207.503 1.565.343.35.82.526 1.434.526.328 0 .635-.048.92-.143.291-.102.569-.266.832-.493l.306.625c-.24.233-.547.416-.92.547a3.58 3.58 0 01-1.16.186zm5.605 0c-.49 0-.916-.113-1.281-.34a2.352 2.352 0 01-.854-.985c-.197-.423-.296-.93-.296-1.521 0-.599.099-1.11.296-1.533.204-.423.489-.748.854-.974.365-.227.792-.34 1.28-.34.497 0 .924.128 1.282.383.365.249.605.588.722 1.018h-.131l.12-1.302h.854l-.066.646c-.014.211-.021.42-.021.624v4.225h-.887v-1.291h.12c-.117.43-.357.77-.722 1.018a2.204 2.204 0 01-1.27.372zm.175-.723c.525 0 .941-.178 1.248-.536.306-.365.46-.894.46-1.587 0-.701-.154-1.23-.46-1.588-.307-.365-.723-.547-1.248-.547-.518 0-.934.182-1.248.547-.307.358-.46.887-.46 1.588 0 .693.153 1.222.46 1.587.314.358.73.537 1.248.537zm4.276.624v-4.17c0-.22-.007-.442-.022-.668a9.296 9.296 0 00-.044-.657h.854l.11 1.335-.153.011c.072-.328.2-.598.383-.81.182-.212.398-.368.646-.47.248-.11.507-.165.777-.165.11 0 .204.004.285.011a.831.831 0 01.24.055l-.01.788a1.287 1.287 0 00-.307-.066 1.885 1.885 0 00-.307-.021c-.32 0-.602.076-.843.23-.233.153-.412.35-.536.59-.117.242-.175.497-.175.767v3.24h-.898zm4 0V13.4c0-.205-.012-.413-.034-.624a17.731 17.731 0 00-.054-.646h.853l.11 1.204h-.131c.16-.423.416-.744.766-.963.357-.227.77-.34 1.237-.34.65 0 1.139.175 1.467.526.336.343.504.886.504 1.63v3.438h-.887v-3.382c0-.518-.106-.894-.318-1.128-.204-.24-.525-.361-.963-.361-.511 0-.916.157-1.215.47-.3.314-.45.734-.45 1.26v3.141h-.886zm9.268 0V13.4c0-.205-.01-.413-.033-.624a17.733 17.733 0 00-.054-.646h.854l.11 1.204h-.132c.146-.416.376-.737.69-.963.32-.227.707-.34 1.16-.34.46 0 .832.11 1.117.329.291.219.488.558.59 1.018h-.163c.138-.416.383-.745.733-.986.35-.24.759-.36 1.226-.36.606 0 1.062.174 1.369.525.306.343.46.886.46 1.63v3.438h-.887v-3.382c0-.518-.092-.894-.274-1.128-.183-.24-.474-.361-.876-.361-.46 0-.825.16-1.095.482-.262.313-.394.737-.394 1.27v3.12h-.887v-3.383c0-.518-.09-.894-.273-1.128-.183-.24-.475-.361-.876-.361-.46 0-.821.16-1.084.482-.263.313-.394.737-.394 1.27v3.12h-.887zm11.867.099c-.526 0-.986-.113-1.38-.34A2.35 2.35 0 0158 16.4c-.212-.43-.318-.938-.318-1.521 0-.591.106-1.099.318-1.522.211-.423.51-.748.897-.974.394-.234.854-.35 1.38-.35.532 0 .992.116 1.38.35.393.226.696.55.908.974.219.423.328.93.328 1.522 0 .583-.11 1.09-.328 1.521a2.328 2.328 0 01-.909.986c-.387.226-.846.339-1.38.339zm0-.723c.525 0 .941-.178 1.248-.536.306-.365.46-.894.46-1.587 0-.701-.157-1.23-.471-1.588-.307-.365-.72-.547-1.237-.547-.519 0-.93.182-1.237.547-.307.358-.46.887-.46 1.588 0 .693.153 1.222.46 1.587.306.358.718.537 1.237.537zm3.977.624v-4.17c0-.22-.007-.442-.022-.668a9.296 9.296 0 00-.044-.657h.854l.11 1.335-.154.011c.073-.328.201-.598.383-.81.183-.212.398-.368.646-.47.249-.11.508-.165.778-.165.11 0 .204.004.284.011a.831.831 0 01.241.055l-.01.788a1.286 1.286 0 00-.307-.066 1.886 1.886 0 00-.307-.021c-.321 0-.602.076-.843.23-.233.153-.412.35-.536.59-.117.242-.175.497-.175.767v3.24h-.898zm6.376.099c-.861 0-1.54-.248-2.036-.744-.496-.504-.745-1.201-.745-2.091 0-.577.11-1.077.329-1.5.219-.43.525-.763.92-.996.394-.241.846-.362 1.357-.362.504 0 .927.106 1.27.318.343.211.606.514.788.908.183.387.274.847.274 1.38v.328h-4.259v-.558h3.678l-.186.142c0-.584-.131-1.04-.394-1.368-.263-.329-.653-.493-1.171-.493-.547 0-.974.194-1.281.58-.306.38-.46.894-.46 1.544v.099c0 .686.168 1.207.504 1.565.343.35.82.526 1.434.526.328 0 .635-.048.92-.143.291-.102.569-.266.832-.493l.306.625c-.24.233-.547.416-.92.547a3.58 3.58 0 01-1.16.186z" fill="#fff"/></svg>