<svg width="440" height="38" viewBox="0 0 440 38" fill="none" xmlns="http://www.w3.org/2000/svg"><path d="M4.957 22.012c-.56 0-1.18-.08-1.86-.24-.666-.16-1.24-.373-1.72-.64l-.1-2.96 1.28-.08.68 2.06c.267.174.58.313.94.42.374.093.727.14 1.06.14.6 0 1.053-.127 1.36-.38.32-.253.48-.593.48-1.02 0-.466-.14-.84-.42-1.12-.267-.28-.62-.52-1.06-.72-.44-.2-.906-.393-1.4-.58-.493-.2-.96-.433-1.4-.7-.44-.28-.8-.633-1.08-1.06-.266-.44-.4-.992-.4-1.659 0-.72.2-1.346.6-1.88.414-.546.987-.966 1.72-1.26.747-.306 1.607-.46 2.58-.46.307 0 .633.02.98.06.36.04.707.107 1.04.2.333.08.626.174.88.28l.22 2.92-1.26.08-.64-1.96c-.413-.213-.887-.32-1.42-.32-.546 0-1 .14-1.36.42-.346.267-.52.647-.52 1.14 0 .44.14.807.42 1.1.28.28.64.527 1.08.74.44.2.907.4 1.4.6.507.2.98.44 1.42.72.453.266.82.606 1.1 1.02.28.413.42.94.42 1.58 0 .68-.214 1.293-.64 1.84-.414.532-1 .952-1.76 1.259-.747.307-1.62.46-2.62.46zm13.018-1.86a2.658 2.658 0 01-1.1 1.38c-.52.333-1.106.5-1.76.5-.919 0-1.679-.267-2.279-.8-.586-.547-.88-1.36-.88-2.44l.06-4.459h-1.4v-.62l3.42-2.72h.62l-.04 2.82-.04 4.74c0 .56.133.966.4 1.22.266.24.64.36 1.12.36.253 0 .5-.047.74-.14.24-.107.446-.24.62-.4l.52.56zm-4.379-5.819v-1.26h3.82v1.26h-3.82zm9.459 7.659c-.933 0-1.753-.187-2.46-.56a4.303 4.303 0 01-1.66-1.58c-.4-.68-.6-1.453-.6-2.32 0-.986.227-1.826.68-2.52a4.42 4.42 0 011.78-1.579 5.24 5.24 0 012.34-.54c.88 0 1.653.187 2.32.56.68.373 1.206.9 1.58 1.58.386.666.58 1.433.58 2.3 0 .88-.207 1.673-.62 2.38a4.552 4.552 0 01-1.64 1.659c-.694.413-1.46.62-2.3.62zm.2-1.28c.333 0 .613-.107.84-.32.24-.213.42-.526.54-.94.133-.413.2-.906.2-1.48 0-1.146-.187-2.08-.56-2.8-.36-.72-.847-1.079-1.46-1.079-.507 0-.907.26-1.2.78-.293.507-.44 1.2-.44 2.08 0 .706.087 1.346.26 1.92.187.573.433 1.026.74 1.36.32.32.68.48 1.08.48zm5.439 1.12l-.06-.92 1.24-.34a2.73 2.73 0 00.04-.36c.013-.186.026-.42.04-.7.013-.293.02-.606.02-.94l.02-1.52c0-.413-.014-.773-.04-1.08a8.751 8.751 0 00-.14-.96l-1.28-.28v-.899l3.52-.9.54.34-.12 1.18.06.02c.413-.533.866-.927 1.36-1.18.506-.266 1.04-.4 1.599-.4.573 0 1.08.14 1.52.42.453.28.813.693 1.08 1.24.266.533.4 1.18.4 1.94v2.06c0 .453.006.88.02 1.28.013.386.04.632.08.74l1.24.339-.06.92h-5.02l-.06-.92 1.14-.34c.027-.12.047-.287.06-.5.013-.226.02-.473.02-.74.013-.266.02-.52.02-.76v-1.68c0-.506-.08-.913-.24-1.22-.147-.32-.347-.553-.6-.7-.24-.146-.52-.22-.84-.22-.333 0-.646.074-.94.22-.28.148-.533.36-.76.64v2.94c0 .454.007.88.02 1.28.027.387.054.633.08.74l1.22.34-.06.92h-5.119zm16.538.16c-.867 0-1.64-.193-2.32-.58a4.276 4.276 0 01-1.58-1.58c-.373-.666-.56-1.42-.56-2.26 0-.933.214-1.746.64-2.44.427-.706.98-1.259 1.66-1.659a4.221 4.221 0 012.22-.58c1.173 0 2.08.367 2.72 1.1.64.72.96 1.66.96 2.82v.48h-5.88v-1.04h3.92l-.3.48v-.68c0-.627-.14-1.127-.42-1.5-.28-.373-.667-.56-1.16-.56-.334 0-.633.093-.9.28-.267.187-.48.473-.64.86-.147.373-.22.846-.22 1.42v.42c0 .933.247 1.686.74 2.26.506.572 1.18.86 2.02.86.453 0 .866-.08 1.24-.24.373-.174.733-.46 1.08-.86l.62.56c-.374.8-.9 1.406-1.58 1.819-.68.413-1.434.62-2.26.62zm12.278-.16l-.06-1 1.24-.32c.027-.067.047-.247.06-.54.026-.293.047-.66.06-1.1.013-.44.02-.92.02-1.44v-2.94c0-.532-.007-1.019-.02-1.459a17.48 17.48 0 00-.06-1.1c-.014-.293-.033-.473-.06-.54l-1.24-.3.06-1h5.36l.06 1-1.26.3a7.75 7.75 0 00-.06.56c-.027.307-.047.687-.06 1.14-.014.453-.02.92-.02 1.4v2.94c0 .466.006.926.02 1.38.013.44.033.82.06 1.14.026.306.046.492.06.56l1.26.319-.06 1h-5.36zm-7.159 0l-.06-1 1.26-.32c.026-.067.046-.24.06-.52.027-.28.047-.64.06-1.08.013-.453.02-.946.02-1.48v-2.94c0-.546-.007-1.046-.02-1.499-.014-.453-.033-.82-.06-1.1-.014-.293-.033-.46-.06-.5l-1.26-.3.06-1h5.34l.06 1-1.24.3c-.027.067-.054.247-.08.54-.014.28-.027.647-.04 1.1v5.84c.013.44.026.806.04 1.1.026.293.053.472.08.54l1.24.319-.06 1h-5.34zm3.58-5.24v-1.52c.32.04.686.068 1.1.08.426.014.953.02 1.58.02.626 0 1.146-.006 1.559-.02.413-.012.78-.04 1.1-.08v1.52c-.28-.013-.627-.026-1.04-.04-.413-.026-.953-.04-1.62-.04-.666 0-1.213.014-1.64.04-.413.014-.76.027-1.04.04zm14.857 5.4c-.866 0-1.64-.193-2.32-.58a4.277 4.277 0 01-1.579-1.58c-.373-.666-.56-1.42-.56-2.26 0-.933.213-1.746.64-2.44.427-.706.98-1.259 1.66-1.659a4.221 4.221 0 012.22-.58c1.173 0 2.08.367 2.719 1.1.64.72.96 1.66.96 2.82v.48h-5.88v-1.04h3.92l-.3.48v-.68c0-.627-.14-1.127-.42-1.5-.28-.373-.666-.56-1.16-.56-.333 0-.633.093-.9.28-.266.187-.48.473-.64.86-.146.373-.22.846-.22 1.42v.42c0 .933.247 1.686.74 2.26.507.572 1.18.86 2.02.86.454 0 .867-.08 1.24-.24.373-.174.733-.46 1.08-.86l.62.56c-.373.8-.9 1.406-1.58 1.819-.68.413-1.433.62-2.26.62zm11.959.1l-.54-.3.02-1.3-.06-.02c-.334.573-.707.98-1.12 1.22-.413.227-.84.34-1.28.34a3.74 3.74 0 01-1.96-.54c-.6-.36-1.08-.86-1.44-1.5-.36-.653-.54-1.406-.54-2.26 0-.746.14-1.413.42-2 .28-.6.654-1.106 1.12-1.519a4.75 4.75 0 011.56-.96 4.748 4.748 0 011.76-.34c.253 0 .513.027.78.08.267.04.487.107.66.2 0-.253-.007-.533-.02-.84 0-.32-.007-.633-.02-.94 0-.32-.007-.606-.02-.86 0-.266-.007-.466-.02-.6l-1.48-.22-.04-.86 3.78-.98.56.34c-.04.827-.08 1.594-.12 2.3a38.26 38.26 0 00-.06 2.2l-.02 4.64c0 .653.02 1.186.06 1.6.04.413.073.766.1 1.06l1.32.28v.859l-3.4.92zm-2.02-1.98c.213 0 .453-.066.72-.2.28-.133.52-.353.72-.66v-4.46a1.438 1.438 0 00-.66-.519 1.944 1.944 0 00-.76-.16c-.627 0-1.147.26-1.56.78-.4.52-.6 1.233-.6 2.14 0 .986.207 1.746.62 2.28.427.533.933.8 1.52.8zm10.459 6.28c-1.414 0-2.52-.194-3.32-.58-.787-.387-1.18-.92-1.18-1.6 0-.44.233-.854.7-1.24.48-.373 1.127-.674 1.94-.9l.86.08c-.32.226-.574.486-.76.78-.187.293-.28.6-.28.92 0 .453.186.8.56 1.04.386.253.946.38 1.68.38.72 0 1.32-.16 1.8-.48.48-.307.72-.694.72-1.16 0-.334-.12-.587-.36-.76-.24-.16-.654-.267-1.24-.32l-2.54-.22-.18-.1c-.68 0-1.207-.133-1.58-.4-.373-.253-.56-.587-.56-1 0-.427.207-.82.62-1.18.427-.373 1.007-.666 1.74-.88l.32.34c-.147.094-.267.2-.36.32a.488.488 0 00-.14.32c0 .16.046.28.14.36.106.08.253.134.44.16l3.1.3c.986.093 1.719.353 2.199.78.48.427.72.986.72 1.68 0 .626-.22 1.193-.66 1.7-.427.506-1.027.906-1.8 1.2-.76.306-1.62.46-2.58.46zm.08-6.92c-.8 0-1.507-.133-2.12-.4-.6-.28-1.067-.66-1.4-1.14-.333-.493-.5-1.06-.5-1.7 0-.653.18-1.232.54-1.74.36-.506.847-.906 1.46-1.199.626-.293 1.326-.44 2.1-.44.76 0 1.433.154 2.02.46.6.293 1.073.693 1.42 1.2.346.507.519 1.08.519 1.72a2.85 2.85 0 01-.52 1.68c-.346.48-.82.86-1.42 1.14-.6.28-1.3.42-2.1.42zm.16-1.16c.413 0 .74-.18.98-.54.24-.373.36-.873.36-1.5 0-.68-.134-1.226-.4-1.64-.254-.412-.6-.619-1.04-.619-.4 0-.727.193-.98.58-.254.386-.38.9-.38 1.54 0 .653.133 1.18.4 1.58.266.4.62.6 1.06.6zm4.979-3.62l-2.7-.26-.6-.939 3.3-.4v1.6zm5.32 7.3c-.867 0-1.64-.193-2.32-.58a4.278 4.278 0 01-1.58-1.58c-.374-.666-.56-1.42-.56-2.26 0-.933.213-1.746.64-2.44.426-.706.98-1.259 1.66-1.659a4.221 4.221 0 012.22-.58c1.172 0 2.079.367 2.719 1.1.64.72.96 1.66.96 2.82v.48h-5.88v-1.04h3.92l-.3.48v-.68c0-.627-.14-1.127-.42-1.5-.28-.373-.667-.56-1.16-.56-.333 0-.633.093-.9.28-.266.187-.48.473-.64.86-.146.373-.22.846-.22 1.42v.42c0 .933.247 1.686.74 2.26.507.572 1.18.86 2.02.86.453 0 .867-.08 1.24-.24.373-.174.733-.46 1.08-.86l.62.56c-.374.8-.9 1.406-1.58 1.819-.68.413-1.433.62-2.26.62zm8.738-.16l-.04-.74 1.34-.28a1.35 1.35 0 00.02-.28c.013-.133.026-.346.04-.64.013-.293.02-.7.02-1.22v-1.32c0-.546-.014-1.046-.04-1.5-.027-.453-.06-.806-.1-1.06l-1.34-.28v-.659l2.84-.74.299.28c-.04.413-.073.82-.1 1.22-.013.4-.02.867-.02 1.4v2.52c0 .613.007 1.12.02 1.52.027.4.054.652.08.76l1.34.279-.04.74h-4.319zm2.16-10.979c-.334 0-.627-.113-.88-.34a1.11 1.11 0 01-.36-.84c0-.333.12-.613.36-.84.253-.226.546-.34.88-.34a1.163 1.163 0 011.199 1.18 1.163 1.163 0 01-1.199 1.18zm6.579 11.139c-.494 0-.987-.053-1.48-.16a5.324 5.324 0 01-1.26-.46l-.1-2.14h.98l.4 1.44c.466.32 1 .48 1.6.48.453 0 .82-.107 1.099-.32a1.1 1.1 0 00.42-.9c0-.346-.126-.646-.38-.9-.253-.266-.746-.553-1.479-.86-.947-.413-1.613-.806-2-1.18-.387-.386-.58-.88-.58-1.48 0-.48.14-.9.42-1.259.293-.373.693-.66 1.2-.86.506-.213 1.093-.32 1.76-.32.373 0 .753.034 1.139.1.387.067.707.153.96.26l.22 2.08h-.94l-.48-1.36a1.563 1.563 0 00-.479-.18 2.18 2.18 0 00-.6-.08c-.467 0-.84.113-1.12.34-.28.213-.42.493-.42.84 0 .4.153.726.46.98.306.24.846.54 1.62.9.879.4 1.493.793 1.839 1.18.347.386.52.853.52 1.4 0 .72-.313 1.312-.94 1.779-.626.453-1.419.68-2.379.68zm8.417-.16l-.069-1.055 1.422-.39c.015-.06.031-.198.046-.413.015-.229.031-.504.046-.825.015-.321.023-.673.023-1.055l.023-1.72c0-.305-.008-.58-.023-.825a13.938 13.938 0 00-.184-1.536l-1.467-.322V12.66l4.036-1.031.619.39-.138 1.33.069.022c.489-.626 1.001-1.077 1.536-1.352a3.462 3.462 0 011.674-.436c.596 0 1.147.153 1.651.458.52.29.94.742 1.261 1.353.322.596.482 1.368.482 2.316l.046 2.362c0 .505.008.986.023 1.445.015.459.046.749.092.871l1.238.39-.069 1.055h-5.435l-.068-1.055 1.169-.39a3.81 3.81 0 00.069-.573c.015-.26.023-.543.023-.849.015-.305.023-.596.023-.87l-.023-2.156c0-.55-.084-.986-.252-1.307-.153-.337-.367-.574-.642-.711a1.936 1.936 0 00-.918-.207c-.336 0-.672.092-1.009.275a2.376 2.376 0 00-.848.711v3.371c0 .505.007.986.023 1.445.03.459.061.749.092.871l1.261.39-.069 1.055h-5.733zm13.461 0l-.069-1.055 1.192-.39a3.81 3.81 0 00.069-.573c.015-.26.023-.543.023-.849.015-.305.023-.596.023-.87l-.046-1.95c0-.596-.084-1.07-.252-1.422-.168-.351-.398-.604-.688-.756a1.89 1.89 0 00-.963-.253c-.382 0-.749.084-1.101.253-.336.152-.619.39-.848.71l-.665-.87c.55-.735 1.131-1.285 1.742-1.652a3.812 3.812 0 012.018-.573c.719 0 1.353.168 1.904.504a3.224 3.224 0 011.307 1.399c.305.612.458 1.345.458 2.201l.046 2.385c0 .505.008.986.023 1.445.031.459.061.749.092.871l1.422.39-.069 1.055h-5.618zm11.878.183c-.994 0-1.88-.221-2.66-.665a4.913 4.913 0 01-1.812-1.811c-.428-.765-.642-1.628-.642-2.591 0-1.07.245-2.003.734-2.798a5.406 5.406 0 011.903-1.903 4.844 4.844 0 012.546-.665c1.345 0 2.385.42 3.118 1.261.734.825 1.101 1.903 1.101 3.233v.55h-6.742v-1.192h4.495l-.344.55v-.78c0-.718-.161-1.29-.482-1.719-.321-.428-.764-.642-1.33-.642-.382 0-.726.107-1.032.321-.305.214-.55.543-.733.986-.169.428-.253.97-.253 1.628v.482c0 1.07.283 1.933.849 2.59.581.658 1.353.987 2.316.987.52 0 .993-.092 1.422-.275.428-.199.84-.528 1.238-.986l.711.642c-.428.917-1.032 1.613-1.812 2.087-.78.473-1.643.71-2.591.71zm5.457-.183l-.068-1.055 1.421-.39c.016-.06.031-.198.046-.413.016-.229.031-.504.046-.825.015-.336.023-.688.023-1.055l.023-1.72c0-.458-.015-.863-.046-1.215-.03-.367-.084-.75-.16-1.147l-1.468-.32v-1.033l3.967-1.031.596.39-.091 1.811.068.023c.444-.856.887-1.437 1.33-1.743.459-.306.925-.458 1.399-.458.413 0 .772.114 1.078.344.321.229.481.588.481 1.077 0 .49-.168.872-.504 1.147a1.792 1.792 0 01-1.17.413c-.366 0-.695-.062-.986-.184-.29-.137-.611-.374-.963-.71l.642.068a3.736 3.736 0 00-.665.642 4.01 4.01 0 00-.55.894l.023 1.812c.015.566.023 1.078.023 1.536.015.444.03.818.046 1.124.015.29.03.482.046.573l1.995.344-.069 1.1h-6.513zm14.264.183c-.964 0-1.835-.206-2.615-.619a5.141 5.141 0 01-1.857-1.765c-.459-.765-.688-1.629-.688-2.592 0-.963.245-1.857.734-2.683a5.552 5.552 0 012.018-2.018c.856-.504 1.842-.756 2.958-.756.672 0 1.276.091 1.811.275.535.168.964.413 1.285.734.321.32.481.68.481 1.078 0 .382-.122.672-.367.87-.229.184-.512.276-.848.276-.291 0-.551-.053-.78-.16a4.077 4.077 0 01-.757-.528l-1.674-1.468 1.17.276c-.443-.107-.887-.046-1.33.183-.428.23-.78.612-1.055 1.147-.275.52-.413 1.177-.413 1.972 0 1.177.283 2.064.849 2.66a2.863 2.863 0 002.132.894c.428 0 .849-.092 1.262-.275.428-.199.84-.535 1.238-1.01l.734.666c-.428.932-1.032 1.643-1.812 2.133-.764.473-1.59.71-2.476.71zm4.907-.183l-.069-1.055 1.422-.39c.015-.168.03-.458.046-.871.03-.428.053-.917.068-1.468.016-.55.023-1.085.023-1.605v-2.89c0-.519-.007-1.039-.023-1.559 0-.534-.007-1.039-.023-1.513 0-.49-.007-.932-.023-1.33a11.915 11.915 0 00-.068-.963l-1.697-.23-.046-.985 4.334-1.124.642.39c-.031.474-.061.932-.092 1.376a333.276 333.276 0 00-.137 5.733l.068.022c.474-.596.994-1.04 1.56-1.33a3.748 3.748 0 011.811-.458c.658 0 1.239.16 1.743.481.52.321.933.795 1.238 1.422.306.612.459 1.353.459 2.224v2.362c0 .52.008 1.01.023 1.468.03.443.061.726.092.848l1.421.39-.069 1.055h-5.732l-.069-1.055 1.284-.39a3.81 3.81 0 00.069-.573c.015-.26.023-.543.023-.849.015-.305.023-.596.023-.87v-1.927c0-.581-.092-1.047-.275-1.399-.169-.367-.398-.634-.688-.802a1.813 1.813 0 00-.963-.253c-.367 0-.719.084-1.055.253a2.702 2.702 0 00-.895.733v3.371c0 .566.008 1.063.023 1.49.031.429.061.704.092.826l1.376.39-.069 1.055h-5.847zm17.358.183c-.703 0-1.314-.152-1.834-.458-.504-.306-.894-.673-1.169-1.1-.26-.429-.39-.834-.39-1.216 0-.55.168-1.01.504-1.376.352-.382.887-.68 1.605-.894l3.601-1.055v-.826c0-.32-.108-.619-.322-.894a2.262 2.262 0 00-.802-.711 2.218 2.218 0 00-1.078-.275c-.244 0-.42.061-.527.183-.092.107-.153.329-.184.665l-.114 1.4c-.765.152-1.392.129-1.881-.07-.474-.214-.711-.558-.711-1.032 0-.29.153-.588.459-.894.306-.306.68-.588 1.124-.848a9.118 9.118 0 011.398-.688c.474-.199.887-.314 1.239-.344 1.36 0 2.438.313 3.233.94.795.611 1.2 1.437 1.215 2.476l-.068 3.188c0 .428.007.764.022 1.009.031.244.077.443.138.596l1.513.275v.963l-1.49.642a7.222 7.222 0 01-.757.253 2.574 2.574 0 01-.665.091c-.596 0-1.016-.305-1.261-.917l-.39-1.055.482.115c-.474.58-.963 1.04-1.468 1.376-.489.32-.963.481-1.422.481zm1.17-2.063c.214 0 .42-.039.619-.115.199-.092.382-.222.55-.39V17.2l-1.559.298c-.382.046-.657.16-.825.344-.153.183-.23.428-.23.734 0 .351.138.672.413.963a1.45 1.45 0 001.032.413zm6.398 1.88l-.069-1.055 1.422-.39c.015-.06.03-.198.045-.413.016-.213.031-.481.046-.802a22.8 22.8 0 00.023-1.078l.023-1.743c0-.473-.015-.886-.046-1.238-.03-.351-.084-.718-.16-1.1l-1.468-.322V12.66l4.036-1.031.619.39-.137 1.352.068.023c.474-.611.994-1.062 1.56-1.353a3.883 3.883 0 011.834-.458c.658 0 1.238.16 1.743.481.52.321.932.795 1.238 1.422.306.612.459 1.353.459 2.224v2.362c0 .52.008 1.01.023 1.468.015.443.046.726.092.848l1.421.39-.069 1.055h-5.755l-.069-1.055 1.307-.39a3.81 3.81 0 00.069-.573c.015-.26.023-.543.023-.849.015-.305.023-.596.023-.87v-1.927c0-.581-.092-1.047-.275-1.399-.169-.367-.398-.634-.688-.802a1.815 1.815 0 00-.964-.253c-.382 0-.741.084-1.077.253a2.797 2.797 0 00-.872.733v3.371c0 .52.008 1.01.023 1.468.031.443.061.726.092.848l1.399.39-.069 1.055h-5.87zm21.761.298l-.619-.344.023-1.49-.069-.023c-.382.657-.81 1.123-1.284 1.398-.474.26-.963.39-1.468.39-.81 0-1.559-.206-2.247-.619a4.582 4.582 0 01-1.651-1.72c-.413-.749-.619-1.613-.619-2.59 0-.857.161-1.621.482-2.294a5.274 5.274 0 011.284-1.743 5.448 5.448 0 011.788-1.1c.658-.26 1.33-.39 2.018-.39.291 0 .589.03.895.091.305.046.558.123.756.23 0-.29-.007-.612-.023-.963 0-.367-.007-.726-.023-1.078 0-.367-.007-.696-.022-.986 0-.306-.008-.535-.023-.688l-1.697-.252-.046-.986 4.334-1.124.642.39c-.046.948-.092 1.827-.138 2.637a43.748 43.748 0 00-.069 2.522l-.022 5.32c0 .75.022 1.36.068 1.835.046.474.084.879.115 1.215l1.513.321v.986l-3.898 1.055zm-2.316-2.27c.245 0 .52-.077.826-.23.321-.152.596-.405.825-.756V13.76c-.214-.29-.466-.489-.757-.596a2.225 2.225 0 00-.871-.183c-.718 0-1.315.298-1.789.894-.458.596-.687 1.414-.687 2.453 0 1.132.236 2.003.71 2.615.49.611 1.07.917 1.743.917zm6.788 1.972l-.069-1.078 1.536-.367c.016-.06.031-.198.046-.413.015-.229.031-.504.046-.825.015-.321.023-.673.023-1.055l.023-1.72c0-.458-.015-.871-.046-1.238a9.906 9.906 0 00-.161-1.123l-1.536-.322V12.66l4.219-1.031.62.39c-.046.489-.085.986-.115 1.49a55.11 55.11 0 00-.023 1.674v2.89c0 .504.008.985.023 1.444.03.459.061.749.092.871l1.536.367-.069 1.078h-6.145zm3.095-12.085c-.611 0-1.093-.183-1.444-.55-.352-.382-.528-.818-.528-1.307 0-.49.176-.917.528-1.284.351-.382.833-.574 1.444-.574.612 0 1.086.192 1.422.574.336.367.505.795.505 1.284 0 .49-.169.925-.505 1.307-.336.367-.81.55-1.422.55zm7.843 12.268a8.859 8.859 0 01-1.904-.206c-.626-.153-1.154-.344-1.582-.573l-.114-2.683h1.467l.482 1.65a3.568 3.568 0 001.811.505c.474 0 .833-.091 1.078-.275a.955.955 0 00.367-.78c0-.336-.138-.626-.413-.87-.26-.245-.802-.52-1.628-.826-1.131-.413-1.918-.864-2.362-1.353-.443-.49-.665-1.101-.665-1.835 0-.627.191-1.177.573-1.65.383-.49.918-.865 1.606-1.124.688-.276 1.482-.413 2.384-.413.49 0 .986.046 1.491.137.504.092.917.214 1.238.367l.275 2.66h-1.467l-.505-1.628a1.798 1.798 0 00-.573-.206 2.247 2.247 0 00-.619-.092c-.459 0-.833.1-1.124.298a.94.94 0 00-.412.803c0 .367.168.672.504.917.336.245.948.55 1.835.917 1.008.413 1.727.856 2.155 1.33.428.459.642 1.032.642 1.72 0 .963-.42 1.743-1.261 2.339-.841.58-1.934.871-3.279.871zm5.434-.183l-.068-1.078 1.536-.367c.015-.06.031-.198.046-.413.015-.229.03-.504.046-.825.015-.321.023-.673.023-1.055l.023-1.72c0-.458-.016-.871-.046-1.238a9.906 9.906 0 00-.161-1.123l-1.536-.322V12.66l4.219-1.031.619.39c-.046.489-.084.986-.114 1.49a52.03 52.03 0 00-.023 1.674v2.89c0 .504.007.985.023 1.444.03.459.061.749.091.871l1.537.367-.069 1.078h-6.146zm3.096-12.085c-.611 0-1.093-.183-1.445-.55-.351-.382-.527-.818-.527-1.307 0-.49.176-.917.527-1.284.352-.382.834-.574 1.445-.574.612 0 1.085.192 1.422.574.336.367.504.795.504 1.284 0 .49-.168.925-.504 1.307-.337.367-.81.55-1.422.55zm3.807 12.085l-.069-1.055 1.422-.39c.015-.06.03-.198.045-.413.016-.213.031-.481.046-.802a22.8 22.8 0 00.023-1.078l.023-1.743c0-.473-.015-.886-.046-1.238-.03-.351-.084-.718-.16-1.1l-1.468-.322V12.66l4.036-1.031.619.39-.137 1.352.068.023c.474-.611.994-1.062 1.56-1.353a3.883 3.883 0 011.834-.458c.658 0 1.238.16 1.743.481.52.321.932.795 1.238 1.422.306.612.459 1.353.459 2.224v2.362c0 .52.007 1.01.023 1.468.015.443.046.726.091.848l1.422.39-.069 1.055h-5.755l-.069-1.055 1.307-.39c.031-.137.053-.328.069-.573.015-.26.023-.543.023-.849.015-.305.023-.596.023-.87v-1.927c0-.581-.092-1.047-.276-1.399-.168-.367-.397-.634-.687-.802a1.815 1.815 0 00-.964-.253c-.382 0-.741.084-1.077.253a2.797 2.797 0 00-.872.733v3.371c0 .52.008 1.01.023 1.468.031.443.061.726.092.848l1.399.39-.069 1.055h-5.87zm18.597 5.228c-1.621 0-2.89-.221-3.807-.665-.902-.443-1.353-1.055-1.353-1.834 0-.505.268-.979.803-1.422.55-.428 1.292-.772 2.224-1.032l.986.092c-.367.26-.657.558-.871.894a1.936 1.936 0 00-.321 1.055c0 .52.214.917.642 1.192.443.29 1.085.436 1.926.436.825 0 1.513-.183 2.064-.55.55-.352.825-.795.825-1.33 0-.383-.137-.673-.413-.872-.275-.183-.749-.305-1.421-.367l-2.912-.252-.207-.114c-.779 0-1.383-.153-1.811-.46-.428-.29-.642-.672-.642-1.146 0-.489.237-.94.71-1.353.49-.428 1.155-.764 1.995-1.009l.367.39a1.61 1.61 0 00-.412.367.561.561 0 00-.161.367c0 .184.054.321.161.413.122.092.29.153.504.183l3.554.344c1.132.107 1.972.405 2.523.895.55.489.825 1.13.825 1.926 0 .718-.252 1.368-.756 1.949-.49.58-1.178 1.04-2.064 1.376-.872.351-1.858.527-2.958.527zm.091-7.934c-.917 0-1.727-.153-2.43-.459-.688-.32-1.223-.756-1.605-1.307-.383-.565-.574-1.215-.574-1.949 0-.749.207-1.414.619-1.995.413-.58.971-1.04 1.674-1.376.719-.336 1.521-.504 2.408-.504.871 0 1.643.176 2.316.527.688.337 1.231.795 1.628 1.376.398.581.596 1.239.596 1.972 0 .719-.198 1.36-.596 1.926-.397.55-.94.986-1.628 1.308-.688.32-1.49.481-2.408.481zm.184-1.33c.474 0 .848-.206 1.123-.62.276-.427.413-1 .413-1.719 0-.78-.153-1.406-.458-1.88-.291-.474-.688-.711-1.193-.711-.458 0-.833.222-1.123.665-.291.443-.436 1.032-.436 1.766 0 .749.153 1.352.458 1.811.306.459.711.688 1.216.688zm5.71-4.15l-3.096-.299-.688-1.077 3.784-.459v1.835zm1.203 11.705l-.299-.58c.533-.24.939-.533 1.219-.88.294-.333.44-.726.44-1.18 0-.2-.04-.366-.12-.5a1.354 1.354 0 00-.26-.36l-.32-.28a1.884 1.884 0 01-.28-.359 1.312 1.312 0 01-.1-.54c0-.28.107-.527.32-.74.227-.226.514-.34.86-.34.24 0 .46.067.66.2.213.133.38.333.5.6.133.267.2.607.2 1.02 0 .533-.12 1.06-.36 1.58-.227.52-.553.986-.98 1.4-.426.413-.92.733-1.48.96zm11.579-3.36c-.493 0-.987-.052-1.48-.16a5.324 5.324 0 01-1.26-.459l-.1-2.14h.98l.4 1.44c.467.32 1 .48 1.6.48.453 0 .82-.107 1.1-.32a1.1 1.1 0 00.42-.9c0-.346-.127-.646-.38-.9-.254-.266-.747-.553-1.48-.86-.947-.413-1.613-.806-2-1.18-.386-.386-.58-.88-.58-1.48 0-.48.14-.9.42-1.259.293-.373.693-.66 1.2-.86.507-.213 1.093-.32 1.76-.32.373 0 .753.034 1.14.1.386.067.706.153.959.26l.22 2.08h-.939l-.48-1.36a1.579 1.579 0 00-.48-.18 2.18 2.18 0 00-.6-.08c-.467 0-.84.113-1.12.34-.28.213-.42.493-.42.84 0 .4.153.726.46.98.307.24.846.54 1.62.9.88.4 1.493.793 1.839 1.18.347.386.52.853.52 1.4 0 .72-.313 1.312-.939 1.779-.627.453-1.42.68-2.38.68zm4.659-.16l-.04-.739 1.34-.28a1.35 1.35 0 00.02-.28c.013-.133.027-.346.04-.64.013-.293.02-.7.02-1.22v-1.32c0-.546-.013-1.046-.04-1.5-.027-.453-.06-.806-.1-1.06l-1.34-.28v-.659l2.84-.74.3.28c-.04.413-.074.82-.1 1.22-.014.4-.02.867-.02 1.4v2.52c0 .613.006 1.12.02 1.52.026.4.053.652.08.76l1.34.279-.04.74h-4.32zm2.16-10.978a1.28 1.28 0 01-.88-.34 1.11 1.11 0 01-.36-.84c0-.333.12-.613.36-.84a1.28 1.28 0 01.88-.34 1.166 1.166 0 011.2 1.18 1.166 1.166 0 01-1.2 1.18zm3.299 10.979l-.04-.72 1.24-.3c.014-.093.02-.213.02-.36.014-.147.027-.36.04-.64.014-.28.02-.66.02-1.14l.02-1.56c.014-.28.007-.566-.02-.86a13.33 13.33 0 00-.06-.82 9.607 9.607 0 00-.08-.64l-1.28-.28v-.659l2.68-.74.34.32-.1 1.08.06.02c.413-.52.84-.893 1.28-1.12.453-.227.913-.34 1.38-.34.466 0 .92.127 1.359.38.44.253.8.64 1.08 1.16.294.52.44 1.186.44 2l.02 2.12c0 .48.007.912.02 1.3.027.372.06.632.1.78l1.2.299-.06.72h-3.899l-.06-.72 1.099-.3a7.141 7.141 0 00.06-1c.014-.253.02-.566.02-.94l-.02-2.2c0-.573-.093-1.033-.279-1.38-.174-.346-.407-.6-.7-.76a1.936 1.936 0 00-.94-.239c-.414 0-.8.1-1.16.3-.36.2-.68.513-.96.94v3c0 .613.007 1.112.02 1.5.027.372.053.632.08.78l1.18.299-.06.72h-4.04zm11.279 0l-.06-.72 1.14-.3c.013-.107.02-.24.02-.4.013-.16.026-.36.04-.6.013-.253.02-.566.02-.94v-2.18c0-.586-.1-1.053-.3-1.4-.2-.346-.454-.6-.76-.76a1.857 1.857 0 00-.9-.239 2.45 2.45 0 00-1.26.34c-.386.227-.733.573-1.04 1.04l-.38-.74c.467-.64.96-1.107 1.48-1.4a3.32 3.32 0 011.68-.46c.56 0 1.066.133 1.52.4.453.267.813.653 1.08 1.16.266.507.399 1.12.399 1.84v2.26c0 .48.007.912.02 1.3.027.372.054.632.08.78l1.24.299-.04.72h-3.979zm5.119 4.4l-.04-.72 1.24-.3v-.36a20.286 20.286 0 00.06-1.6c.013-.374.02-.807.02-1.3l.04-4.94c0-.4-.02-.806-.06-1.22-.027-.412-.06-.746-.1-1l-1.28-.28v-.659l2.68-.74.34.32-.1 1.1h.06c.373-.48.78-.84 1.22-1.08.453-.253.939-.38 1.459-.38.734 0 1.38.187 1.94.56.573.36 1.02.86 1.34 1.5.333.626.5 1.353.5 2.18 0 .88-.2 1.673-.6 2.38a4.51 4.51 0 01-1.64 1.679c-.68.4-1.453.6-2.32.6-.319 0-.653-.033-.999-.1a6.499 6.499 0 01-.92-.24v1.5c0 .506.006.933.02 1.28l.06.8 1.64.26-.04.76h-4.52zm4.819-5.24c.534 0 1-.127 1.4-.38.414-.253.734-.627.96-1.12.24-.493.367-1.093.38-1.8.013-.64-.093-1.206-.32-1.7a2.668 2.668 0 00-.92-1.16 2.155 2.155 0 00-1.34-.44c-.413 0-.799.1-1.159.3-.36.188-.687.467-.98.84v4.84c.266.2.573.353.92.46.346.107.7.16 1.059.16zm5.9.84l-.04-.74 1.299-.28a4.76 4.76 0 00.06-.66c.014-.306.02-.713.02-1.22.014-.506.02-1.126.02-1.86v-2.5c0-.506-.006-1.026-.02-1.559 0-.533-.006-1.033-.02-1.5 0-.48-.006-.886-.02-1.22a6.82 6.82 0 00-.02-.68l-1.479-.2-.04-.64 2.859-.82.38.28-.04 1.68-.04 1.86v2.46l-.02 3.22c0 .786.007 1.5.02 2.14.027.626.054 1.032.08 1.22l1.3.279-.04.74h-4.259zm5.359 0l-.04-.74 1.34-.28a1.35 1.35 0 00.02-.28c.013-.133.026-.346.04-.64.013-.293.02-.7.02-1.22v-1.32c0-.546-.014-1.046-.04-1.5-.027-.453-.06-.806-.1-1.06l-1.34-.28v-.659l2.84-.74.299.28c-.04.413-.073.82-.099 1.22-.014.4-.02.867-.02 1.4v2.52c0 .613.006 1.12.02 1.52.026.4.053.652.079.76l1.34.279-.04.74h-4.319zm2.16-10.979c-.334 0-.627-.113-.88-.34a1.11 1.11 0 01-.36-.84c0-.333.12-.613.36-.84.253-.226.546-.34.88-.34a1.163 1.163 0 011.199 1.18 1.163 1.163 0 01-1.199 1.18zm3.319 10.979l-.04-.72 1.24-.3c.013-.147.02-.333.02-.56.013-.226.02-.533.02-.92V12.513c0-1.026.207-1.88.62-2.56a4.096 4.096 0 011.68-1.56 5.147 5.147 0 012.299-.52c.867 0 1.56.174 2.08.52.52.334.78.72.78 1.16 0 .254-.073.454-.22.6-.147.147-.353.22-.62.22a1.51 1.51 0 01-.6-.12c-.173-.093-.38-.266-.62-.52l-1.32-1.32 1.12.34a3.093 3.093 0 00-1.779.16 2.772 2.772 0 00-1.36 1.12c-.347.534-.52 1.234-.52 2.1v6.76a118.266 118.266 0 00.08 1.92l1.34.299-.06.72h-4.14zm5.439 0l-.04-.74 1.34-.28a8.545 8.545 0 00.06-1.08c.014-.266.02-.62.02-1.06v-1.76c0-.706-.013-1.26-.04-1.66-.026-.413-.053-.74-.08-.979h-6.899v-.66l1.44-.36 1.04.02h4.579c.253 0 .513-.007.78-.02l.8-.04-.04 1.26c-.013.413-.02.926-.02 1.54v3.58c.013.306.027.56.04.76.027.2.047.352.06.46l1.34.279-.06.74h-4.32zm9.799.16c-.773 0-1.473-.173-2.1-.52a3.94 3.94 0 01-1.479-1.48c-.36-.653-.54-1.42-.54-2.3 0-.946.193-1.766.58-2.46.386-.692.893-1.226 1.519-1.599a3.646 3.646 0 012.02-.56c1.04.013 1.853.36 2.44 1.04.586.68.88 1.64.88 2.88v.36h-6.14v-.88h4.82l-.22.26v-.42c0-.773-.174-1.367-.52-1.78-.347-.413-.82-.62-1.42-.62-.373 0-.733.113-1.08.34-.346.213-.626.547-.84 1-.213.44-.32 1-.32 1.68v.24c0 1.093.267 1.946.8 2.56.547.612 1.247.92 2.1.92.467 0 .887-.094 1.26-.28.373-.188.733-.488 1.08-.9l.5.46c-.374.692-.847 1.212-1.42 1.559a3.75 3.75 0 01-1.92.5zm11.698.06l-.3-.26.02-1.3-.06-.02c-.399.56-.813.953-1.239 1.18-.414.227-.854.34-1.32.34-.76 0-1.44-.173-2.04-.52a3.944 3.944 0 01-1.4-1.48c-.346-.626-.52-1.346-.52-2.16 0-.706.12-1.353.36-1.94a4.51 4.51 0 012.42-2.479 4.199 4.199 0 011.66-.34c.373 0 .753.047 1.14.14.386.093.713.24.979.44 0-.24-.006-.553-.02-.94 0-.386-.006-.786-.02-1.2 0-.426-.006-.8-.02-1.12 0-.333-.006-.56-.02-.68l-1.559-.28-.04-.66 2.939-.82.36.28a143.963 143.963 0 00-.08 4.82l-.02 4.6c0 .68.014 1.266.04 1.76.04.48.067.82.08 1.02l1.28.32v.659l-2.62.64zm-2.399-1.4c.386 0 .746-.08 1.08-.24.333-.173.673-.473 1.019-.9v-4.3c-.253-.452-.573-.772-.959-.959a2.65 2.65 0 00-1.16-.28c-.84 0-1.5.313-1.98.94-.467.613-.7 1.413-.7 2.4 0 1.053.26 1.873.78 2.46.533.586 1.173.88 1.92.88zm7.859 1.38c-.36 0-.66-.113-.9-.34-.24-.24-.36-.533-.36-.88 0-.24.053-.447.16-.62.106-.186.253-.333.44-.44.2-.107.42-.16.66-.16.36 0 .66.12.9.36.239.227.359.513.359.86s-.12.64-.359.88c-.24.227-.54.34-.9.34zM2.946 35.806c-.475 0-.9-.061-1.275-.184a3.012 3.012 0 01-.982-.529l.252-.554c.196.146.391.269.587.37.201.095.417.167.646.218.23.044.487.067.772.067.498 0 .867-.093 1.107-.277.24-.185.361-.43.361-.739 0-.262-.084-.464-.252-.603-.167-.14-.46-.252-.88-.336l-.881-.176c-.543-.112-.948-.294-1.217-.546-.263-.251-.394-.593-.394-1.023 0-.353.09-.66.268-.923.185-.263.442-.467.772-.613.33-.145.713-.218 1.15-.218.419 0 .802.065 1.149.193.347.123.643.305.89.546l-.244.537a2.454 2.454 0 00-.83-.504 2.774 2.774 0 00-.974-.16c-.458 0-.822.101-1.09.303a.95.95 0 00-.395.805c0 .274.084.49.252.646.168.151.445.266.83.344l.89.176c.57.118.99.294 1.258.529.269.235.403.565.403.99 0 .324-.09.612-.269.864a1.69 1.69 0 01-.746.587c-.325.14-.71.21-1.158.21zm4.699 0c-.414 0-.73-.117-.948-.352-.218-.24-.327-.602-.327-1.083v-2.324h-.822v-.528h.822v-1.15l.68-.192v1.342h1.208v.529H7.049v2.248c0 .336.056.576.168.721.118.14.291.21.52.21.107 0 .202-.008.286-.025.083-.022.159-.047.226-.075v.57a1.168 1.168 0 01-.285.076 1.542 1.542 0 01-.319.033zm3.127 0c-.403 0-.755-.087-1.057-.26a1.801 1.801 0 01-.688-.755c-.162-.33-.243-.719-.243-1.166 0-.453.08-.842.243-1.166.162-.325.392-.574.688-.747a2.035 2.035 0 011.057-.268c.409 0 .76.089 1.057.268.302.173.534.422.697.747.167.324.251.713.251 1.166 0 .447-.084.836-.251 1.166a1.784 1.784 0 01-.697.755c-.296.173-.649.26-1.057.26zm0-.554c.403 0 .722-.137.957-.41.235-.28.352-.686.352-1.217 0-.537-.12-.943-.36-1.217-.236-.28-.552-.42-.949-.42-.397 0-.713.14-.948.42-.235.274-.352.68-.352 1.217 0 .531.117.937.352 1.216.235.274.551.411.948.411zm3.065.479v-3.239a4.64 4.64 0 00-.025-.478 13.59 13.59 0 00-.042-.495h.654l.084.923h-.1c.122-.325.318-.57.587-.738.274-.174.59-.26.948-.26.498 0 .872.134 1.124.402.257.263.386.68.386 1.25v2.635h-.68v-2.593c0-.397-.08-.685-.243-.864-.157-.184-.403-.277-.738-.277-.392 0-.702.12-.932.361-.229.24-.344.562-.344.965v2.408h-.68zm6.787.075c-.66 0-1.18-.19-1.56-.57-.381-.386-.571-.92-.571-1.603 0-.442.084-.825.251-1.15.168-.33.403-.584.705-.763a1.955 1.955 0 011.04-.276c.386 0 .71.08.974.243.262.162.464.394.604.696.14.297.21.649.21 1.057v.252h-3.264v-.428h2.819l-.143.11c0-.448-.1-.798-.302-1.05-.201-.251-.5-.377-.898-.377-.419 0-.746.148-.981.445-.235.29-.352.685-.352 1.182v.076c0 .526.128.926.385 1.2.263.268.63.402 1.1.402.251 0 .486-.036.704-.109.224-.078.437-.204.638-.377l.235.478c-.185.179-.42.319-.705.42-.28.095-.576.142-.89.142zm2.768-.075v-5.915h.696v2.618h3.566v-2.618h.688v5.915h-.688v-2.702h-3.566v2.702h-.696zm8.219.075c-.66 0-1.18-.19-1.56-.57-.381-.386-.571-.92-.571-1.603 0-.442.084-.825.251-1.15.168-.33.403-.584.705-.763a1.955 1.955 0 011.04-.276c.386 0 .71.08.974.243.263.162.464.394.604.696.14.297.21.649.21 1.057v.252H30v-.428h2.819l-.143.11c0-.448-.1-.798-.302-1.05-.201-.251-.5-.377-.898-.377-.419 0-.746.148-.981.445-.235.29-.353.685-.353 1.182v.076c0 .526.13.926.386 1.2.263.268.63.402 1.1.402.251 0 .486-.036.704-.109a1.98 1.98 0 00.638-.377l.235.478c-.185.179-.42.319-.705.42-.28.095-.576.142-.89.142zm4.287 0c-.37 0-.694-.087-.974-.26a1.803 1.803 0 01-.654-.755c-.151-.324-.227-.713-.227-1.166 0-.459.076-.85.227-1.175.156-.324.375-.573.654-.746.28-.174.604-.26.974-.26.38 0 .707.095.981.285.28.19.467.447.562.772h-.1v-2.945h.68v6.175h-.672v-1.007h.092c-.09.336-.274.601-.553.797-.28.19-.61.285-.99.285zm.142-.554c.397 0 .716-.137.956-.41.241-.28.361-.686.361-1.217 0-.537-.12-.943-.36-1.217-.241-.28-.56-.42-.957-.42-.397 0-.716.14-.956.42-.235.274-.353.68-.353 1.217 0 .531.118.937.353 1.216.24.274.559.411.956.411zm5.148 2.35c-.363 0-.699-.045-1.007-.135a2.562 2.562 0 01-.83-.41l.201-.513c.173.123.344.221.512.294.168.073.341.126.52.16.18.039.37.058.57.058.414 0 .728-.109.94-.327.213-.218.32-.529.32-.931v-1.233h.083c-.09.33-.274.592-.554.788-.28.19-.607.285-.981.285a1.95 1.95 0 01-1.007-.251 1.767 1.767 0 01-.655-.73c-.15-.319-.226-.694-.226-1.124 0-.426.075-.795.226-1.108a1.71 1.71 0 01.655-.721 1.9 1.9 0 011.007-.26c.38 0 .707.095.981.285.28.19.465.453.554.788l-.084-.084.076-.914h.662a7.05 7.05 0 00-.067.973v3.214c0 .626-.162 1.099-.486 1.417-.32.32-.789.479-1.41.479zm-.1-2.517c.408 0 .73-.135.964-.403.235-.274.353-.657.353-1.15 0-.492-.118-.872-.353-1.14-.235-.269-.556-.403-.965-.403-.402 0-.724.134-.964.402-.24.269-.361.65-.361 1.142 0 .492.12.875.36 1.149.241.268.563.403.965.403zm5.172.721c-.66 0-1.18-.19-1.56-.57-.38-.386-.57-.92-.57-1.603 0-.442.083-.825.25-1.15.169-.33.403-.584.706-.763a1.956 1.956 0 011.04-.276c.386 0 .71.08.973.243.263.162.464.394.604.696.14.297.21.649.21 1.057v.252h-3.264v-.428h2.82l-.143.11c0-.448-.101-.798-.302-1.05-.202-.251-.501-.377-.898-.377-.42 0-.747.148-.982.445-.235.29-.352.685-.352 1.182v.076c0 .526.128.926.386 1.2.263.268.63.402 1.099.402.252 0 .486-.036.705-.109a1.98 1.98 0 00.637-.377l.235.478c-.184.179-.42.319-.705.42-.28.095-.576.142-.889.142zm4.88-.075v-4.212h.68v4.212h-.68zm-.084-5.169V29.8h.84v.764h-.84zm3.485 5.244a3.18 3.18 0 01-.94-.134 2.028 2.028 0 01-.722-.394l.235-.479c.207.163.431.283.672.361.246.079.5.118.763.118.336 0 .587-.06.755-.177a.585.585 0 00.26-.503.48.48 0 00-.168-.386c-.106-.1-.282-.179-.528-.235l-.78-.16c-.358-.078-.627-.209-.806-.394a1.011 1.011 0 01-.268-.721c0-.246.064-.462.193-.646.128-.19.316-.338.562-.445.246-.112.534-.168.864-.168.307 0 .59.048.847.143.263.09.481.221.655.394l-.244.47a1.603 1.603 0 00-.579-.36 1.789 1.789 0 00-.662-.126c-.33 0-.58.067-.747.201a.62.62 0 00-.243.512c0 .162.05.296.15.403.107.1.27.176.487.226l.78.16c.38.083.663.215.848.394.19.173.285.408.285.705 0 .251-.07.472-.21.662a1.34 1.34 0 01-.587.428c-.246.1-.537.151-.872.151zm6.55 0c-.374 0-.701-.087-.981-.26a1.803 1.803 0 01-.654-.755c-.151-.324-.227-.713-.227-1.166 0-.459.076-.85.227-1.175.156-.324.374-.573.654-.746.28-.174.607-.26.982-.26.38 0 .707.097.981.293.28.19.465.45.554.78h-.1l.092-.998h.654l-.05.495a6.942 6.942 0 00-.017.478v3.239h-.68v-.99h.093c-.09.33-.275.59-.554.78-.28.19-.604.285-.973.285zm.135-.554c.403 0 .721-.137.956-.41.235-.28.353-.686.353-1.217 0-.537-.118-.943-.353-1.217-.235-.28-.553-.42-.956-.42-.397 0-.716.14-.957.42-.234.274-.352.68-.352 1.217 0 .531.117.937.352 1.216.241.274.56.411.957.411zm5.481 2.29v-5.05a4.64 4.64 0 00-.025-.478 13.82 13.82 0 00-.042-.495h.655l.092.998h-.1c.089-.33.27-.59.545-.78.274-.196.6-.293.981-.293.38 0 .708.086.982.26.28.173.498.422.654.746.157.325.235.716.235 1.175 0 .453-.078.842-.235 1.166a1.747 1.747 0 01-.646.755c-.28.173-.61.26-.99.26-.374 0-.699-.095-.973-.285a1.349 1.349 0 01-.545-.78h.092v2.802h-.68zm1.972-2.29c.403 0 .721-.137.956-.41.24-.28.361-.686.361-1.217 0-.537-.12-.943-.36-1.217-.236-.28-.554-.42-.957-.42-.397 0-.716.14-.957.42-.234.274-.352.68-.352 1.217 0 .531.118.937.352 1.216.241.274.56.411.957.411zm3.042.479v-3.197c0-.168-.005-.338-.017-.512a7.179 7.179 0 00-.033-.503h.654l.084 1.023-.117.009c.056-.252.153-.459.293-.62.14-.163.305-.283.495-.362a1.46 1.46 0 01.596-.125c.084 0 .157.002.218.008.067.005.129.02.185.042l-.009.604a.984.984 0 00-.235-.05 1.444 1.444 0 00-.234-.017c-.247 0-.462.059-.647.176a1.184 1.184 0 00-.41.453c-.09.185-.135.38-.135.587v2.484h-.688zm4.744.075c-.403 0-.755-.087-1.057-.26a1.8 1.8 0 01-.688-.755c-.162-.33-.243-.719-.243-1.166 0-.453.08-.842.243-1.166.162-.325.391-.574.688-.747a2.035 2.035 0 011.057-.268c.408 0 .76.089 1.057.268.302.173.534.422.696.747.168.324.252.713.252 1.166 0 .447-.084.836-.252 1.166a1.784 1.784 0 01-.696.755c-.296.173-.649.26-1.057.26zm0-.554c.403 0 .721-.137.956-.41.235-.28.353-.686.353-1.217 0-.537-.12-.943-.361-1.217-.235-.28-.55-.42-.948-.42-.397 0-.713.14-.948.42-.235.274-.352.68-.352 1.217 0 .531.117.937.352 1.216.235.274.55.411.948.411zm4.659.554c-.37 0-.694-.087-.974-.26a1.803 1.803 0 01-.654-.755c-.15-.324-.226-.713-.226-1.166 0-.459.075-.85.226-1.175.157-.324.375-.573.654-.746.28-.174.605-.26.974-.26.38 0 .707.095.981.285.28.19.467.447.563.772h-.101v-2.945h.68v6.175h-.672v-1.007h.093c-.09.336-.275.601-.554.797-.28.19-.61.285-.99.285zm.142-.554c.397 0 .716-.137.957-.41.24-.28.36-.686.36-1.217 0-.537-.12-.943-.36-1.217-.24-.28-.56-.42-.957-.42-.397 0-.716.14-.956.42-.235.274-.352.68-.352 1.217 0 .531.117.937.352 1.216.24.274.56.411.956.411zm4.78.554c-.499 0-.876-.137-1.133-.41-.252-.275-.378-.694-.378-1.26V31.52h.68v2.6c0 .387.078.672.235.857.156.179.4.268.73.268.369 0 .665-.12.889-.36.224-.241.335-.563.335-.965v-2.4h.68v4.212h-.663v-.948h.11a1.503 1.503 0 01-.571.755 1.56 1.56 0 01-.915.268zm5.127 0c-.414 0-.775-.09-1.083-.268a1.827 1.827 0 01-.704-.764c-.162-.33-.244-.721-.244-1.174 0-.459.084-.848.252-1.166a1.73 1.73 0 01.705-.739 2.208 2.208 0 011.074-.252c.268 0 .528.048.78.143.257.095.47.23.638.403l-.244.486a1.659 1.659 0 00-.553-.36 1.549 1.549 0 00-.58-.118c-.436 0-.774.137-1.014.411-.241.274-.361.674-.361 1.2 0 .52.12.923.36 1.208.241.285.58.428 1.016.428a1.635 1.635 0 001.132-.47l.244.478a1.708 1.708 0 01-.646.411 2.213 2.213 0 01-.772.143zm3.877 0c-.414 0-.73-.117-.948-.352-.218-.24-.328-.602-.328-1.083v-2.324h-.822v-.528h.823v-1.15l.68-.192v1.342h1.207v.529h-1.208v2.248c0 .336.056.576.168.721.117.14.29.21.52.21.106 0 .201-.008.285-.025.084-.022.16-.047.227-.075v.57a1.168 1.168 0 01-.285.076 1.543 1.543 0 01-.32.033zm5.741 0c-.38 0-.707-.095-.981-.285a1.427 1.427 0 01-.554-.797h.092v1.007h-.67v-6.175h.679V32.5h-.101c.095-.325.28-.582.554-.772a1.68 1.68 0 01.981-.285c.381 0 .708.089.982.268.28.173.495.422.646.747.157.324.235.713.235 1.166 0 .453-.078.842-.235 1.166a1.81 1.81 0 01-.654.755c-.274.173-.599.26-.974.26zm-.142-.554c.397 0 .716-.137.956-.41.241-.275.361-.68.361-1.217s-.12-.943-.361-1.217c-.24-.28-.559-.42-.956-.42-.397 0-.716.14-.957.42-.235.274-.352.68-.352 1.217 0 .531.117.937.352 1.216.24.274.56.411.957.411zm2.834 2.383l-.16-.562c.263-.062.481-.134.655-.218.179-.078.327-.185.444-.319.118-.134.218-.302.302-.503l.218-.495-.016.285-1.838-4.304h.739l1.518 3.7h-.218l1.502-3.7h.713l-1.947 4.564a3.048 3.048 0 01-.369.671 1.93 1.93 0 01-.436.445c-.151.117-.319.21-.503.277-.185.067-.386.12-.604.16zm8.817-1.829c-.475 0-.9-.061-1.275-.184a3.015 3.015 0 01-.982-.529l.252-.554a4.3 4.3 0 00.587.37c.202.095.417.167.646.218.23.044.487.067.772.067.498 0 .867-.093 1.108-.277.24-.185.36-.43.36-.739 0-.262-.083-.464-.251-.603-.168-.14-.462-.252-.881-.336l-.881-.176c-.543-.112-.948-.294-1.217-.546-.263-.251-.394-.593-.394-1.023 0-.353.09-.66.268-.923a1.81 1.81 0 01.772-.613c.33-.145.713-.218 1.15-.218.419 0 .802.065 1.149.193a2.4 2.4 0 01.889.546l-.243.537a2.46 2.46 0 00-.83-.504 2.78 2.78 0 00-.974-.16c-.458 0-.822.101-1.09.303a.95.95 0 00-.395.805c0 .274.084.49.252.646.168.151.445.266.831.344l.889.176c.57.118.99.294 1.258.529.269.235.403.565.403.99 0 .324-.089.612-.268.864a1.697 1.697 0 01-.747.587c-.324.14-.71.21-1.158.21zm4.699 0c-.414 0-.73-.117-.948-.352-.218-.24-.327-.602-.327-1.083v-2.324h-.822v-.528h.822v-1.15l.68-.192v1.342h1.208v.529h-1.208v2.248c0 .336.056.576.167.721.118.14.291.21.521.21.106 0 .201-.008.285-.025.084-.022.159-.047.226-.075v.57a1.16 1.16 0 01-.285.076 1.537 1.537 0 01-.319.033zm3.127 0c-.402 0-.755-.087-1.057-.26a1.809 1.809 0 01-.688-.755c-.162-.33-.243-.719-.243-1.166 0-.453.081-.842.243-1.166.163-.325.392-.574.688-.747a2.037 2.037 0 011.057-.268c.409 0 .761.089 1.057.268.303.173.535.422.697.747.168.324.252.713.252 1.166 0 .447-.084.836-.252 1.166a1.778 1.778 0 01-.697.755c-.296.173-.648.26-1.057.26zm0-.554c.403 0 .722-.137.957-.41.235-.28.352-.686.352-1.217 0-.537-.12-.943-.361-1.217-.234-.28-.551-.42-.948-.42-.397 0-.713.14-.948.42-.235.274-.352.68-.352 1.217 0 .531.117.937.352 1.216.235.274.551.411.948.411zm3.065.479v-3.239c0-.156-.008-.316-.025-.478a12.75 12.75 0 00-.042-.495h.654l.084.923h-.1c.123-.325.318-.57.587-.738.274-.174.59-.26.948-.26.498 0 .872.134 1.124.402.257.263.386.68.386 1.25v2.635h-.679v-2.593c0-.397-.082-.685-.244-.864-.156-.184-.403-.277-.738-.277-.392 0-.702.12-.931.361-.23.24-.344.562-.344.965v2.408h-.68zm6.787.075c-.66 0-1.18-.19-1.561-.57-.38-.386-.57-.92-.57-1.603 0-.442.084-.825.252-1.15a1.82 1.82 0 01.704-.763 1.956 1.956 0 011.041-.276c.386 0 .71.08.973.243.263.162.464.394.604.696.14.297.21.649.21 1.057v.252h-3.264v-.428h2.819l-.143.11c0-.448-.1-.798-.302-1.05-.201-.251-.5-.377-.897-.377-.42 0-.747.148-.982.445-.235.29-.352.685-.352 1.182v.076c0 .526.128.926.386 1.2.263.268.629.402 1.099.402.251 0 .486-.036.704-.109.224-.078.437-.204.638-.377l.235.478c-.185.179-.42.319-.705.42a2.74 2.74 0 01-.889.142zm2.105-.075l2.358-3.155v.26l-2.249-3.02h.823l1.845 2.525h-.218l1.829-2.525h.831l-2.257 3.02v-.26l2.357 3.155h-.822l-1.971-2.677h.268l-1.972 2.677h-.822zm8.324 0v-5.915h3.691v.57h-2.995v2.073h2.811v.57h-2.811v2.702h-.696zm4.635 0v-4.212h.68v4.212h-.68zm-.084-5.169V29.8h.839v.764h-.839zm2.083 5.169v-3.239c0-.156-.008-.316-.025-.478a12.75 12.75 0 00-.042-.495h.655l.084.923h-.101c.123-.325.319-.57.587-.738.274-.174.59-.26.948-.26.498 0 .873.134 1.124.402.258.263.386.68.386 1.25v2.635h-.679v-2.593c0-.397-.081-.685-.243-.864-.157-.184-.403-.277-.739-.277-.391 0-.702.12-.931.361-.229.24-.344.562-.344.965v2.408h-.68zm6.519.075c-.375 0-.702-.087-.982-.26a1.795 1.795 0 01-.654-.755c-.151-.324-.227-.713-.227-1.166 0-.459.076-.85.227-1.175.156-.324.374-.573.654-.746.28-.174.607-.26.982-.26.38 0 .707.097.981.293.28.19.465.45.554.78h-.101l.093-.998h.654l-.05.495a7.072 7.072 0 00-.017.478v3.239h-.68v-.99h.093c-.09.33-.274.59-.554.78a1.69 1.69 0 01-.973.285zm.134-.554c.403 0 .722-.137.956-.41.235-.28.353-.686.353-1.217 0-.537-.118-.943-.353-1.217-.234-.28-.553-.42-.956-.42-.397 0-.716.14-.956.42-.235.274-.353.68-.353 1.217 0 .531.118.937.353 1.216.24.274.559.411.956.411zm3.294.479v-3.239c0-.156-.008-.316-.025-.478a12.75 12.75 0 00-.042-.495h.654l.084.923h-.101a1.44 1.44 0 01.588-.738c.274-.174.59-.26.948-.26.498 0 .872.134 1.124.402.257.263.386.68.386 1.25v2.635h-.68v-2.593c0-.397-.081-.685-.243-.864-.157-.184-.403-.277-.738-.277-.392 0-.702.12-.932.361-.229.24-.344.562-.344.965v2.408h-.679zm6.686.075c-.414 0-.775-.09-1.082-.268a1.83 1.83 0 01-.705-.764c-.162-.33-.243-.721-.243-1.174 0-.459.084-.848.251-1.166.168-.325.403-.571.705-.739a2.21 2.21 0 011.074-.252c.269 0 .529.048.78.143.258.095.47.23.638.403l-.243.486a1.665 1.665 0 00-.554-.36 1.551 1.551 0 00-.579-.118c-.436 0-.775.137-1.015.411-.241.274-.361.674-.361 1.2 0 .52.12.923.361 1.208.24.285.579.428 1.015.428a1.636 1.636 0 001.133-.47l.243.478a1.706 1.706 0 01-.646.411 2.214 2.214 0 01-.772.143zm2.384-.075v-4.212h.679v4.212h-.679zm-.084-5.169V29.8h.839v.764h-.839zm3.685 5.244c-.374 0-.702-.087-.981-.26a1.804 1.804 0 01-.655-.755c-.151-.324-.226-.713-.226-1.166 0-.459.075-.85.226-1.175.157-.324.375-.573.655-.746.279-.174.607-.26.981-.26.381 0 .708.097.982.293.28.19.464.45.554.78h-.101l.092-.998h.655l-.051.495a7.063 7.063 0 00-.016.478v3.239h-.68v-.99h.092c-.089.33-.274.59-.553.78-.28.19-.605.285-.974.285zm.135-.554c.402 0 .721-.137.956-.41.235-.28.352-.686.352-1.217 0-.537-.117-.943-.352-1.217-.235-.28-.554-.42-.956-.42-.398 0-.716.14-.957.42-.235.274-.352.68-.352 1.217 0 .531.117.937.352 1.216.241.274.559.411.957.411zm3.293.479v-6.175h.68v6.175h-.68zm4.263 0v-5.915h.696v5.915h-.696zm2.095 0v-3.239c0-.156-.008-.316-.025-.478a12.75 12.75 0 00-.042-.495h.655l.084.923h-.101c.123-.325.319-.57.587-.738.274-.174.59-.26.948-.26.498 0 .873.134 1.124.402.258.263.386.68.386 1.25v2.635h-.679v-2.593c0-.397-.081-.685-.244-.864-.156-.184-.402-.277-.738-.277-.391 0-.702.12-.931.361-.229.24-.344.562-.344.965v2.408h-.68zm6.687.075c-.414 0-.775-.09-1.083-.268a1.82 1.82 0 01-.704-.764c-.163-.33-.244-.721-.244-1.174 0-.459.084-.848.252-1.166.168-.325.403-.571.705-.739a2.205 2.205 0 011.074-.252c.268 0 .528.048.78.143.257.095.47.23.637.403l-.243.486a1.655 1.655 0 00-.554-.36 1.543 1.543 0 00-.579-.118c-.436 0-.774.137-1.015.411-.24.274-.36.674-.36 1.2 0 .52.12.923.36 1.208.241.285.579.428 1.015.428a1.636 1.636 0 001.133-.47l.243.478a1.698 1.698 0 01-.646.411 2.208 2.208 0 01-.771.143zm2.331-.075v-.856h.856v.856h-.856zm3.568-2.081v-.445h4.237v.445h-4.237zm7.162 2.08v-5.914h3.691v.57h-2.995v2.073h2.811v.57h-2.811v2.702h-.696zm7.147.076c-.593 0-1.096-.123-1.51-.369a2.445 2.445 0 01-.956-1.049c-.219-.453-.328-.992-.328-1.619 0-.626.109-1.163.328-1.61.223-.454.542-.803.956-1.05.414-.246.917-.369 1.51-.369.42 0 .794.065 1.124.193.33.129.618.316.865.562l-.261.554a2.842 2.842 0 00-.797-.512 2.336 2.336 0 00-.922-.167c-.677 0-1.192.21-1.544.629-.353.42-.529 1.01-.529 1.77s.176 1.354.529 1.779c.352.42.867.629 1.544.629.352 0 .66-.053.922-.16.263-.111.529-.288.797-.528l.261.562c-.247.24-.535.428-.865.562-.33.129-.704.193-1.124.193zm3.168-.075v-5.915h.604l2.374 5.36h-.243l2.374-5.36h.605v5.915h-.638v-5.017h.252l-2.24 5.017h-.462l-2.248-5.017h.251v5.017h-.629zm9.381 0v-5.915h1.963c.655 0 1.208.114 1.661.344.454.224.797.556 1.032.998.235.436.353.973.353 1.611 0 .632-.118 1.169-.353 1.61a2.328 2.328 0 01-1.032 1.008c-.453.229-1.006.344-1.661.344h-1.963zm.696-.596h1.217c.805 0 1.404-.196 1.795-.587.392-.397.588-.99.588-1.779 0-.794-.196-1.387-.588-1.779-.391-.391-.99-.587-1.795-.587h-1.217v4.732zm5.496.596v-4.212h.68v4.212h-.68zm-.084-5.169V29.8h.839v.764h-.839zm3.325 5.169l-1.804-4.212h.739l1.51 3.708h-.227l1.527-3.708h.705l-1.804 4.212h-.646zm3.216 0v-4.212h.679v4.212h-.679zm-.084-5.169V29.8h.839v.764h-.839zm3.484 5.244a3.18 3.18 0 01-.94-.134 2.022 2.022 0 01-.721-.394l.235-.479c.206.163.43.283.671.361.246.079.5.118.763.118.336 0 .587-.06.755-.177a.583.583 0 00.26-.503.482.482 0 00-.167-.386c-.107-.1-.283-.179-.529-.235l-.78-.16c-.358-.078-.627-.209-.806-.394a1.01 1.01 0 01-.268-.721c0-.246.064-.462.193-.646.128-.19.316-.338.562-.445a2.07 2.07 0 01.864-.168c.308 0 .59.048.847.143.263.09.481.221.655.394l-.243.47a1.607 1.607 0 00-.579-.36 1.793 1.793 0 00-.663-.126c-.33 0-.579.067-.747.201a.62.62 0 00-.243.512c0 .162.05.296.151.403.106.1.268.176.486.226l.781.16c.38.083.663.215.847.394.19.173.285.408.285.705 0 .251-.07.472-.209.662-.14.185-.336.328-.588.428-.246.1-.537.151-.872.151zm2.761-.075v-4.212h.679v4.212h-.679zm-.084-5.169V29.8h.839v.764h-.839zm3.811 5.244c-.402 0-.755-.087-1.057-.26a1.803 1.803 0 01-.688-.755c-.162-.33-.243-.719-.243-1.166 0-.453.081-.842.243-1.166.162-.325.392-.574.688-.747a2.037 2.037 0 011.057-.268c.409 0 .761.089 1.057.268.302.173.535.422.697.747.168.324.251.713.251 1.166 0 .447-.083.836-.251 1.166a1.785 1.785 0 01-.697.755c-.296.173-.648.26-1.057.26zm0-.554c.403 0 .722-.137.957-.41.235-.28.352-.686.352-1.217 0-.537-.12-.943-.361-1.217-.235-.28-.551-.42-.948-.42-.397 0-.713.14-.948.42-.235.274-.352.68-.352 1.217 0 .531.117.937.352 1.216.235.274.551.411.948.411zm3.065.479v-3.239c0-.156-.008-.316-.025-.478a12.75 12.75 0 00-.042-.495h.654l.084.923h-.101c.124-.325.319-.57.588-.738.274-.174.59-.26.948-.26.498 0 .872.134 1.124.402.257.263.386.68.386 1.25v2.635h-.68v-2.593c0-.397-.081-.685-.243-.864-.157-.184-.403-.277-.738-.277-.392 0-.702.12-.931.361-.23.24-.344.562-.344.965v2.408h-.68z" fill="#000"/></svg>