<svg width="49" height="16" viewBox="0 0 49 16" fill="none" xmlns="http://www.w3.org/2000/svg"><rect y=".375" width="49" height="15" rx="7.5" fill="#000"/><path d="M5.768 8.339c.034.925.704 1.576 1.851 1.576.986 0 1.67-.57 1.67-1.382 0-.912-.785-1.166-1.55-1.294-.703-.12-1.273-.235-1.273-.798 0-.503.409-.771 1.019-.771.637 0 1.073.355 1.14.899h.604C9.175 5.724 8.53 5.14 7.485 5.14c-.952 0-1.603.537-1.603 1.335 0 .912.778 1.16 1.536 1.287.71.12 1.288.242 1.288.825 0 .51-.45.798-1.08.798-.718 0-1.207-.416-1.254-1.046h-.604zm4.436.644c0 .603.234.892.892.892h.597v-.503h-.544c-.295 0-.395-.108-.395-.396V6.957h.885v-.502h-.885v-.96h-.55v.96h-.617v.502h.617v2.026zm4.937.389c-.154 0-.221-.047-.221-.228V7.648c0-.798-.503-1.234-1.375-1.234-.825 0-1.368.396-1.448 1.067h.55c.066-.35.388-.577.871-.577.537 0 .852.268.852.71v.235h-1.006c-.899 0-1.375.383-1.375 1.067 0 .623.51.999 1.261.999.59 0 .932-.262 1.147-.57.006.335.16.53.617.53h.302v-.503h-.175zm-.771-.892c0 .57-.396.965-1.08.965-.456 0-.744-.228-.744-.563 0-.389.275-.57.764-.57h1.06v.168zm2.95-2.025c-.61 0-.87.254-1.032.516l-.074-.516h-.476v3.42h.55V8.13c0-.543.195-1.14.912-1.14h.275v-.536h-.154zm.998 2.528c0 .603.235.892.892.892h.597v-.503h-.543c-.296 0-.396-.108-.396-.396V6.957h.885v-.502h-.885v-.96h-.55v.96h-.617v.502h.617v2.026zm3.975 0c0 .603.235.892.892.892h.597v-.503h-.543c-.295 0-.396-.108-.396-.396V6.957h.885v-.502h-.885v-.96h-.55v.96h-.617v.502h.617v2.026zm3.548-2.528c-.61 0-.872.254-1.033.516l-.073-.516h-.476v3.42h.55V8.13c0-.543.194-1.14.911-1.14h.275v-.536h-.154zm3.538 2.917c-.155 0-.222-.047-.222-.228V7.648c0-.798-.503-1.234-1.375-1.234-.824 0-1.367.396-1.448 1.067h.55c.067-.35.389-.577.872-.577.536 0 .851.268.851.71v.235h-1.005c-.9 0-1.375.383-1.375 1.067 0 .623.51.999 1.26.999.59 0 .933-.262 1.147-.57.007.335.161.53.617.53h.302v-.503h-.174zm-.772-.892c0 .57-.395.965-1.08.965-.455 0-.744-.228-.744-.563 0-.389.275-.57.765-.57h1.06v.168zm4.025-1.502c-.208-.329-.597-.564-1.173-.564-.946 0-1.643.704-1.643 1.75 0 1.114.697 1.75 1.643 1.75.576 0 .945-.274 1.173-.59l.074.55h.476V5.18h-.55v1.798zm-1.12 2.447c-.677 0-1.133-.516-1.133-1.26 0-.745.456-1.261 1.133-1.261.671 0 1.127.523 1.127 1.274 0 .731-.456 1.247-1.127 1.247zm2.7-3.547a.345.345 0 00.356-.356.345.345 0 00-.355-.355.345.345 0 00-.355.355c0 .208.154.356.355.356zm-.28 3.997h.55v-3.42h-.55v3.42zm2.979-3.46c-.577 0-.925.24-1.127.502l-.073-.462h-.477v3.42h.55v-1.71c0-.772.39-1.248 1.033-1.248.597 0 .926.376.926 1.087v1.87h.55V7.97c0-1.133-.61-1.556-1.382-1.556zm4.779.63c-.215-.383-.597-.63-1.174-.63-.946 0-1.643.703-1.643 1.75 0 1.113.697 1.75 1.643 1.75.577 0 .946-.242 1.174-.63v.402c0 .744-.39 1.08-1.107 1.08-.57 0-.952-.242-1.046-.671h-.563c.087.751.697 1.16 1.569 1.16 1.173 0 1.696-.563 1.696-1.549V6.455h-.476l-.073.59zm-1.12 2.38c-.678 0-1.134-.516-1.134-1.26 0-.745.456-1.261 1.134-1.261.67 0 1.126.523 1.126 1.274 0 .731-.456 1.247-1.126 1.247z" fill="#fff"/></svg>