<svg width="329" height="23" viewBox="0 0 329 23" fill="none" xmlns="http://www.w3.org/2000/svg"><path d="M9.2 18.15c2.775 0 4.575-1.25 5.425-2.5l.25 2.35H17.1V8.425H9.5v2.425h4.85v.425c-.15 2.825-2.325 4.35-5.025 4.35-3.35 0-5.45-2.625-5.45-6.375s2.15-6.375 5.475-6.375c2.425 0 4.1 1.35 4.625 3.575h2.975c-.525-3.7-3.475-6.1-7.525-6.1-5.2 0-8.5 3.575-8.5 8.9s3.375 8.9 8.275 8.9zm16.901 0c3.175 0 5.325-1.925 5.775-4.45h-2.7c-.375 1.425-1.575 2.25-3.225 2.25-2.125 0-3.5-1.425-3.575-3.6v-.175h9.65c.05-.35.075-.7.075-1.025-.075-3.75-2.55-6.1-6.25-6.1-3.775 0-6.3 2.625-6.3 6.575 0 3.925 2.525 6.525 6.55 6.525zm-3.625-7.95c.2-1.825 1.675-2.975 3.4-2.975 1.875 0 3.2 1.075 3.425 2.975h-6.825zm12.635 4.325c0 2.325 1.05 3.475 3.5 3.475h2.5v-2.375h-1.9c-1.025 0-1.375-.375-1.375-1.375V7.575h3.125V5.2h-3.125V1.625h-2.725V5.2h-2.225v2.375h2.225v6.95zM56.075 5.05c-2 0-3.325.925-4.175 2.05l-.325-1.9h-2.35V23h2.7v-6.8c.8 1.15 2.175 1.95 4.15 1.95 3.5 0 6.05-2.6 6.05-6.55 0-4.1-2.55-6.55-6.05-6.55zm-.45 10.825c-2.25 0-3.725-1.775-3.725-4.325 0-2.475 1.475-4.2 3.725-4.2s3.75 1.725 3.75 4.25c0 2.5-1.5 4.275-3.75 4.275zm20.364-.225c-.55 0-.825-.175-.825-.825V9.7c0-3.025-1.95-4.65-5.35-4.65-3.225 0-5.375 1.55-5.65 4.05h2.65c.2-1.125 1.275-1.875 2.875-1.875 1.775 0 2.8.875 2.8 2.3v.775h-3.225c-3.575 0-5.475 1.475-5.475 4.1 0 2.375 1.95 3.75 4.75 3.75 2.075 0 3.375-.9 4.225-2.2 0 1.275.6 2.05 2.35 2.05h1.425v-2.35h-.55zm-3.5-2.9c-.025 1.975-1.325 3.3-3.575 3.3-1.475 0-2.375-.75-2.375-1.825 0-1.3.925-1.925 2.6-1.925h3.35v.45zm6.896-9.35c.925 0 1.65-.675 1.65-1.625S80.31.15 79.385.15c-.925 0-1.65.675-1.65 1.625S78.46 3.4 79.385 3.4zM78.01 18h2.7V5.2h-2.7V18zM93.08 6.975c-.825-1.125-2.2-1.925-4.15-1.925-3.475 0-6.05 2.6-6.05 6.55 0 4.1 2.575 6.55 6.05 6.55 2.025 0 3.35-.95 4.175-2.075L93.431 18h2.35V.5h-2.7v6.475zm-3.7 8.9c-2.25 0-3.725-1.75-3.725-4.275 0-2.5 1.475-4.25 3.725-4.25s3.725 1.75 3.725 4.3c0 2.475-1.475 4.225-3.725 4.225zm14.135-8.3h2.225V18h2.725V7.575h3.425V5.2h-3.475V4.125c0-.875.375-1.25 1.25-1.25h2.225V.5h-2.575c-2.475 0-3.575 1.2-3.575 3.5v1.2h-2.225v2.375zM119.763 5.2c-2.1 0-3.125.85-3.775 1.925l-.3-1.925h-2.4V18h2.7v-6.425c0-1.975.775-3.85 3.175-3.85h1.2V5.2h-.6zm7.705 12.95c3.9 0 6.525-2.625 6.525-6.55 0-3.9-2.625-6.55-6.525-6.55-3.9 0-6.525 2.65-6.525 6.55 0 3.925 2.625 6.55 6.525 6.55zm0-2.3c-2.275 0-3.75-1.775-3.75-4.25s1.475-4.25 3.75-4.25 3.775 1.775 3.775 4.25-1.5 4.25-3.775 4.25zm23.421-10.8c-2.1 0-3.55.925-4.375 2.325-.775-1.65-2.275-2.325-3.95-2.325-1.925.025-3.025.875-3.75 1.825l-.3-1.675h-2.35V18h2.7v-6.85c0-2.275 1.15-3.775 3-3.775 1.775 0 2.7 1.175 2.7 3.425V18h2.725v-6.925c0-2.3 1.175-3.7 3.025-3.7 1.75 0 2.675 1.175 2.675 3.425V18h2.7v-7.375c0-4.05-2.15-5.575-4.8-5.575zm17.344 13.025l-.5 1.25c-.4 1.05-.65 1.3-1.7 1.3h-1.9V23h2.9c1.875 0 2.425-.925 3.225-3l5.8-14.8h-2.875l-3.475 9.725-3.575-9.725h-2.875l4.975 12.875zm14.655.075c3.9 0 6.525-2.625 6.525-6.55 0-3.9-2.625-6.55-6.525-6.55-3.9 0-6.525 2.65-6.525 6.55 0 3.925 2.625 6.55 6.525 6.55zm0-2.3c-2.275 0-3.75-1.775-3.75-4.25s1.475-4.25 3.75-4.25 3.775 1.775 3.775 4.25-1.5 4.25-3.775 4.25zm17.471-4.25c0 2.65-1.25 4.2-3.3 4.2-1.975 0-2.975-1.275-2.975-3.775V5.2h-2.7v7.125c0 4.375 2.325 5.825 5.05 5.825 1.975 0 3.15-.8 3.95-1.775l.3 1.625h2.375V5.2h-2.7v6.4zm11.836-6.4c-2.1 0-3.125.85-3.775 1.925l-.3-1.925h-2.4V18h2.7v-6.425c0-1.975.775-3.85 3.175-3.85h1.2V5.2h-.6zm18.386-1.8c.925 0 1.65-.675 1.65-1.625S231.506.15 230.581.15c-.925 0-1.65.675-1.65 1.625s.725 1.625 1.65 1.625zm-6.075 1.8V4.125c0-.875.35-1.25 1.225-1.25h1.9V.5h-2.275c-2.475 0-3.575 1.175-3.575 3.425V5.2h-2.225v2.375h2.225V18h2.725V7.575h4.7V18h2.725V5.2h-7.425zm16.522 0c-2.1 0-3.125.85-3.775 1.925l-.3-1.925h-2.4V18h2.7v-6.425c0-1.975.775-3.85 3.175-3.85h1.2V5.2h-.6zm1.495 8.575c.075 2.775 2.425 4.375 5.85 4.375 3.1 0 5.425-1.55 5.425-4 0-2.85-2.375-3.45-5.3-3.8-1.85-.2-3.075-.35-3.075-1.55 0-1.025 1.05-1.675 2.65-1.675 1.6 0 2.7.825 2.85 2h2.65c-.175-2.625-2.4-4.075-5.55-4.075-3.075-.025-5.25 1.55-5.25 3.975 0 2.65 2.3 3.275 5.225 3.625 1.975.25 3.15.35 3.15 1.725 0 1.025-1.1 1.675-2.775 1.675-1.95 0-3.1-.95-3.2-2.275h-2.65zm14.292.75c0 2.325 1.05 3.475 3.5 3.475h2.5v-2.375h-1.9c-1.025 0-1.375-.375-1.375-1.375V7.575h3.125V5.2h-3.125V1.625h-2.725V5.2h-2.225v2.375h2.225v6.95zm15.039 0c0 2.325 1.05 3.475 3.5 3.475h2.5v-2.375h-1.9c-1.025 0-1.375-.375-1.375-1.375V7.575h3.125V5.2h-3.125V1.625h-2.725V5.2h-2.225v2.375h2.225v6.95zM286.047 5.2c-2.1 0-3.125.85-3.775 1.925l-.3-1.925h-2.4V18h2.7v-6.425c0-1.975.775-3.85 3.175-3.85h1.2V5.2h-.6zm13.575 10.45c-.55 0-.825-.175-.825-.825V9.7c0-3.025-1.95-4.65-5.35-4.65-3.225 0-5.375 1.55-5.65 4.05h2.65c.2-1.125 1.275-1.875 2.875-1.875 1.775 0 2.8.875 2.8 2.3v.775h-3.225c-3.575 0-5.475 1.475-5.475 4.1 0 2.375 1.95 3.75 4.75 3.75 2.075 0 3.375-.9 4.225-2.2 0 1.275.6 2.05 2.35 2.05h1.425v-2.35h-.55zm-3.5-2.9c-.025 1.975-1.325 3.3-3.575 3.3-1.475 0-2.375-.75-2.375-1.825 0-1.3.925-1.925 2.6-1.925h3.35v.45zm15.148-5.775c-.825-1.125-2.2-1.925-4.15-1.925-3.475 0-6.05 2.6-6.05 6.55 0 4.1 2.575 6.55 6.05 6.55 2.025 0 3.35-.95 4.175-2.075L311.62 18h2.35V.5h-2.7v6.475zm-3.7 8.9c-2.25 0-3.725-1.75-3.725-4.275 0-2.5 1.475-4.25 3.725-4.25s3.725 1.75 3.725 4.3c0 2.475-1.475 4.225-3.725 4.225zm15.113 2.275c3.175 0 5.325-1.925 5.775-4.45h-2.7c-.375 1.425-1.575 2.25-3.225 2.25-2.125 0-3.5-1.425-3.575-3.6v-.175h9.65c.05-.35.075-.7.075-1.025-.075-3.75-2.55-6.1-6.25-6.1-3.775 0-6.3 2.625-6.3 6.575 0 3.925 2.525 6.525 6.55 6.525zm-3.625-7.95c.2-1.825 1.675-2.975 3.4-2.975 1.875 0 3.2 1.075 3.425 2.975h-6.825z" fill="#000"/></svg>