<svg width="85" height="17" viewBox="0 0 85 17" fill="none" xmlns="http://www.w3.org/2000/svg"><rect y=".5" width="85" height="16" rx="8" fill="#000"/><path d="M10.476 11.5h.609V9.358h2.016v-.56h-2.016V7.16h2.436V6.6h-3.045v4.9zm3.908-4.172a.36.36 0 00.371-.371.36.36 0 00-.37-.371.36.36 0 00-.372.371.36.36 0 00.371.371zM14.09 11.5h.574V7.93h-.574v3.57zm3.11-3.612c-.601 0-.965.252-1.175.525l-.077-.483h-.497v3.57h.574V9.715c0-.805.406-1.302 1.078-1.302.623 0 .966.392.966 1.134V11.5h.574V9.512c0-1.183-.637-1.624-1.442-1.624zm2.468-.56a.36.36 0 00.371-.371.36.36 0 00-.37-.371.36.36 0 00-.372.371.36.36 0 00.371.371zm-.294 4.172h.574V7.93h-.574v3.57zm1.214-1.176c.014.784.65 1.218 1.575 1.218.79 0 1.428-.413 1.428-1.078 0-.791-.651-.945-1.463-1.043-.518-.063-.896-.112-.896-.504 0-.329.336-.539.833-.539.49 0 .826.273.868.637h.588c-.056-.742-.644-1.12-1.456-1.127-.805-.007-1.4.42-1.4 1.071 0 .742.637.903 1.435 1.001.532.063.924.098.924.546 0 .329-.357.546-.861.546-.595 0-.966-.308-.987-.728h-.588zm5.39-2.436c-.602 0-.966.294-1.176.63V6.6h-.574v4.9h.574V9.715c0-.805.413-1.302 1.078-1.302.616 0 .973.392.973 1.134V11.5h.574V9.512c0-1.183-.651-1.624-1.45-1.624zm7.996 0c-.637 0-1.022.294-1.24.679-.202-.455-.63-.679-1.126-.679a1.21 1.21 0 00-1.043.532l-.077-.49h-.497v3.57h.574V9.617c0-.714.357-1.204.945-1.204.546 0 .86.364.86 1.064V11.5h.575V9.589c0-.728.364-1.176.959-1.176.539 0 .847.364.847 1.064V11.5h.574V9.442c0-1.127-.61-1.554-1.351-1.554zm2.993 3.633l-.175.434c-.133.336-.189.42-.518.42h-.51v.525h.685c.504 0 .637-.224.861-.798l1.645-4.172h-.609l-1.064 2.849-1.099-2.849h-.609l1.393 3.591zm7.405-.546c-.16 0-.23-.049-.23-.238V9.176c0-.833-.526-1.288-1.436-1.288-.86 0-1.428.413-1.512 1.113h.574c.07-.364.406-.602.91-.602.56 0 .89.28.89.742v.245h-1.05c-.939 0-1.436.399-1.436 1.113 0 .651.532 1.043 1.316 1.043.616 0 .973-.273 1.197-.595.007.35.168.553.644.553h.315v-.525h-.182zm-.805-.931c0 .595-.413 1.008-1.127 1.008-.476 0-.777-.238-.777-.588 0-.406.287-.595.798-.595h1.106v.175zm3.227-2.156c-.601 0-.986.287-1.224.616l-.078-.574h-.496v4.97h.573v-1.946c.217.343.623.588 1.225.588.988 0 1.716-.735 1.716-1.827 0-1.162-.728-1.827-1.715-1.827zm-.055 3.143c-.7 0-1.176-.546-1.176-1.33 0-.763.475-1.302 1.175-1.302.708 0 1.184.539 1.184 1.316s-.476 1.316-1.183 1.316zm4.225-3.143c-.602 0-.987.287-1.225.616l-.077-.574h-.497v4.97h.574v-1.946c.217.343.623.588 1.225.588.987 0 1.715-.735 1.715-1.827 0-1.162-.728-1.827-1.715-1.827zm-.056 3.143c-.7 0-1.176-.546-1.176-1.33 0-.763.476-1.302 1.176-1.302.707 0 1.183.539 1.183 1.316s-.476 1.316-1.183 1.316zm2.427.469h.574V6.6h-.574v4.9zm1.655-4.172a.36.36 0 00.37-.371.36.36 0 00-.37-.371.36.36 0 00-.371.371.36.36 0 00.37.371zm-.294 4.172h.574V7.93h-.574v3.57zm2.963.042c.868 0 1.45-.49 1.59-1.26h-.61c-.112.455-.462.749-.973.749-.686 0-1.148-.532-1.148-1.309 0-.777.462-1.323 1.148-1.323.525 0 .875.287.98.763h.602c-.147-.784-.7-1.274-1.575-1.274-1.036 0-1.743.742-1.743 1.834 0 1.113.686 1.82 1.73 1.82zm5.375-.567c-.16 0-.23-.049-.23-.238V9.176c0-.833-.526-1.288-1.436-1.288-.86 0-1.428.413-1.512 1.113h.574c.07-.364.406-.602.91-.602.56 0 .89.28.89.742v.245h-1.05c-.939 0-1.436.399-1.436 1.113 0 .651.532 1.043 1.316 1.043.616 0 .973-.273 1.197-.595.007.35.168.553.644.553h.315v-.525h-.182zm-.805-.931c0 .595-.413 1.008-1.127 1.008-.476 0-.777-.238-.777-.588 0-.406.287-.595.798-.595h1.106v.175zm1.695.525c0 .63.245.931.93.931h.624v-.525h-.567c-.308 0-.413-.112-.413-.413V8.455h.924V7.93h-.924V6.929h-.574V7.93h-.644v.525h.644v2.114zm2.345-3.241a.36.36 0 00.371-.371.36.36 0 00-.371-.371.36.36 0 00-.371.371.36.36 0 00.371.371zm-.294 4.172h.574V7.93h-.574v3.57zm3.005.042c1.043 0 1.771-.742 1.771-1.827s-.728-1.827-1.77-1.827c-1.044 0-1.772.742-1.772 1.827s.728 1.827 1.771 1.827zm0-.511c-.707 0-1.183-.553-1.183-1.316s.476-1.316 1.183-1.316c.707 0 1.183.553 1.183 1.316s-.476 1.316-1.183 1.316zm4.18-3.143c-.602 0-.966.252-1.176.525l-.077-.483h-.497v3.57h.574V9.715c0-.805.406-1.302 1.078-1.302.623 0 .966.392.966 1.134V11.5h.574V9.512c0-1.183-.637-1.624-1.442-1.624z" fill="#fff"/></svg>