<svg width="169" height="16" viewBox="0 0 169 16" fill="none" xmlns="http://www.w3.org/2000/svg"><path d="M3.995 12h1.088L8.16 1.613 11.237 12h1.088L15.963.1h-.952l-3.213 10.693L8.67.1h-.935L4.522 10.793 1.343.1H.374L3.995 12zM17.798 1.562c.34 0 .612-.255.612-.612a.599.599 0 00-.612-.612.599.599 0 00-.612.612c0 .357.272.612.612.612zM17.356 12h.867V3.381h-.867V12zm3.551-2.006c0 1.377.561 2.006 2.023 2.006h1.258v-.799h-1.19c-.9 0-1.224-.34-1.224-1.224V4.18h2.33v-.799h-2.33V.967h-.867v2.414h-1.632v.799h1.632v5.814zm8.578-6.715c-1.615 0-2.618.901-3.11 2.142V.1h-.868V12h.867V7.75c0-2.244 1.14-3.672 2.975-3.672 1.65 0 2.67 1.088 2.67 3.128V12h.866V7.172c0-2.72-1.445-3.893-3.4-3.893zm17.5 7.922c-.51 0-.765-.17-.765-.833V6.356c0-1.972-1.207-3.077-3.366-3.077-1.972 0-3.281.952-3.502 2.516h.867c.22-1.054 1.139-1.751 2.6-1.751 1.616 0 2.534.85 2.534 2.278v.748h-2.924c-2.21 0-3.4.952-3.4 2.567 0 1.53 1.207 2.465 3.043 2.465 1.75 0 2.788-.799 3.315-1.87v.306c-.034 1.02.39 1.462 1.41 1.462h.51v-.799h-.322zm-1.632-2.686c0 1.649-1.173 2.839-3.213 2.839-1.377 0-2.227-.697-2.227-1.768 0-1.139.85-1.768 2.448-1.768h2.992v.697zm8.342 1.479c0 1.377.561 2.006 2.023 2.006h1.258v-.799h-1.19c-.9 0-1.224-.34-1.224-1.224V4.18h2.33v-.799h-2.33V.967h-.867v2.414h-1.632v.799h1.632v5.814zm8.12-6.613c-1.599 0-2.279.765-2.636 1.717l-.136-1.717h-.748V12h.867V7.631c0-1.751.46-3.417 2.482-3.417h.63v-.833h-.46zm8 4.233c0 2.261-1.123 3.689-2.908 3.689-1.598 0-2.584-1.088-2.584-3.145V3.381h-.867v4.828c0 2.703 1.411 3.893 3.315 3.893 1.53 0 2.533-.816 3.026-1.921l.12 1.819h.764V3.381h-.867v4.233zm2.516 1.734c.068 1.785 1.513 2.754 3.672 2.754 1.853 0 3.35-.935 3.35-2.465 0-1.819-1.599-2.176-3.452-2.431-1.343-.187-2.533-.34-2.533-1.547 0-.986.97-1.632 2.431-1.632 1.377 0 2.363.663 2.516 1.785h.884c-.153-1.683-1.53-2.533-3.4-2.533-1.92-.017-3.298.969-3.298 2.448 0 1.734 1.598 2.057 3.366 2.295 1.445.204 2.618.391 2.618 1.666 0 1.02-1.07 1.666-2.482 1.666-1.649 0-2.72-.765-2.788-2.006h-.884zm9.321.646c0 1.377.561 2.006 2.023 2.006h1.258v-.799h-1.19c-.9 0-1.224-.34-1.224-1.224V4.18h2.33v-.799h-2.33V.967h-.867v2.414H80.02v.799h1.632v5.814zm8.143 2.108c1.887 0 3.332-1.224 3.706-2.958h-.884c-.34 1.343-1.48 2.176-2.89 2.176-1.921 0-3.128-1.462-3.162-3.468v-.153h7.038c0-.119.017-.255.017-.357-.085-2.567-1.666-4.063-3.978-4.063-2.363 0-3.978 1.802-3.978 4.352 0 2.703 1.683 4.471 4.13 4.471zm-3.162-5.134c.136-1.751 1.445-2.924 3.026-2.924 1.683 0 2.89 1.037 3.026 2.924h-6.052zm15.738-1.649c-.527-1.224-1.683-2.04-3.297-2.04-2.364 0-4.064 1.802-4.064 4.403 0 2.72 1.7 4.42 4.063 4.42 1.615 0 2.737-.867 3.281-2.074L102.49 12h.748V.1h-.867v5.219zm-3.23 6.001c-1.92 0-3.247-1.496-3.247-3.638 0-2.125 1.326-3.638 3.247-3.638 1.921 0 3.247 1.513 3.247 3.655 0 2.125-1.326 3.621-3.247 3.621zm14.884-8.041c-1.615 0-2.737.867-3.281 2.074l-.136-1.972h-.748V15.4h.867v-5.389c.493 1.258 1.666 2.091 3.298 2.091 2.363 0 4.063-1.802 4.063-4.42 0-2.703-1.7-4.403-4.063-4.403zm-.068 8.041c-1.921 0-3.247-1.496-3.247-3.655 0-2.108 1.326-3.621 3.247-3.621 1.921 0 3.247 1.513 3.247 3.638 0 2.142-1.326 3.638-3.247 3.638zm9.366-7.939c-1.598 0-2.278.765-2.635 1.717l-.136-1.717h-.748V12h.867V7.631c0-1.751.459-3.417 2.482-3.417h.629v-.833h-.459zm4.938 8.721c2.431 0 4.148-1.802 4.148-4.42 0-2.601-1.717-4.403-4.148-4.403-2.431 0-4.131 1.802-4.131 4.403 0 2.618 1.7 4.42 4.131 4.42zm0-.782c-1.921 0-3.247-1.496-3.247-3.638 0-2.125 1.326-3.638 3.247-3.638 1.921 0 3.247 1.513 3.247 3.638 0 2.142-1.326 3.638-3.247 3.638zm8.004.68h1.037l3.366-8.619h-.901l-2.958 7.616-2.975-7.616h-.935L136.265 12zm6.028-10.438c.34 0 .612-.255.612-.612a.599.599 0 00-.612-.612.599.599 0 00-.612.612c0 .357.272.612.612.612zM141.851 12h.867V3.381h-.867V12zm9.943-6.681c-.527-1.224-1.683-2.04-3.298-2.04-2.363 0-4.063 1.802-4.063 4.403 0 2.72 1.7 4.42 4.063 4.42 1.615 0 2.737-.867 3.281-2.074l.136 1.972h.748V.1h-.867v5.219zm-3.23 6.001c-1.921 0-3.247-1.496-3.247-3.638 0-2.125 1.326-3.638 3.247-3.638 1.921 0 3.247 1.513 3.247 3.655 0 2.125-1.326 3.621-3.247 3.621zm9.945.782c1.887 0 3.332-1.224 3.706-2.958h-.884c-.34 1.343-1.479 2.176-2.89 2.176-1.921 0-3.128-1.462-3.162-3.468v-.153h7.038c0-.119.017-.255.017-.357-.085-2.567-1.666-4.063-3.978-4.063-2.363 0-3.978 1.802-3.978 4.352 0 2.703 1.683 4.471 4.131 4.471zm-3.162-5.134c.136-1.751 1.445-2.924 3.026-2.924 1.683 0 2.89 1.037 3.026 2.924h-6.052zm12.219-3.587c-1.598 0-2.278.765-2.635 1.717l-.136-1.717h-.748V12h.867V7.631c0-1.751.459-3.417 2.482-3.417h.629v-.833h-.459z" fill="#000"/></svg>