<svg width="197" height="19" viewBox="0 0 197 19" fill="none" xmlns="http://www.w3.org/2000/svg"><path d="M.5 3.05h5.4V18h2.875V3.05h5.4V.5H.5v2.55zM21.277 5.2c-2.1 0-3.125.85-3.775 1.925l-.3-1.925h-2.4V18h2.7v-6.425c0-1.975.775-3.85 3.175-3.85h1.2V5.2h-.6zM34.85 15.65c-.55 0-.825-.175-.825-.825V9.7c0-3.025-1.95-4.65-5.35-4.65-3.225 0-5.375 1.55-5.65 4.05h2.65c.2-1.125 1.275-1.875 2.875-1.875 1.775 0 2.8.875 2.8 2.3v.775h-3.225c-3.575 0-5.475 1.475-5.475 4.1 0 2.375 1.95 3.75 4.75 3.75 2.075 0 3.375-.9 4.225-2.2 0 1.275.6 2.05 2.35 2.05h1.425v-2.35h-.55zm-3.5-2.9c-.025 1.975-1.325 3.3-3.575 3.3-1.475 0-2.375-.75-2.375-1.825 0-1.3.925-1.925 2.6-1.925h3.35v.45zM46.5 6.975c-.825-1.125-2.2-1.925-4.15-1.925-3.475 0-6.05 2.6-6.05 6.55 0 4.1 2.575 6.55 6.05 6.55 2.025 0 3.35-.95 4.175-2.075L46.85 18h2.35V.5h-2.7v6.475zm-3.7 8.9c-2.25 0-3.725-1.75-3.725-4.275 0-2.5 1.475-4.25 3.725-4.25s3.725 1.75 3.725 4.3c0 2.475-1.475 4.225-3.725 4.225zm15.114 2.275c3.175 0 5.325-1.925 5.775-4.45h-2.7c-.375 1.425-1.575 2.25-3.225 2.25-2.125 0-3.5-1.425-3.575-3.6v-.175h9.65c.05-.35.075-.7.075-1.025-.075-3.75-2.55-6.1-6.25-6.1-3.775 0-6.3 2.625-6.3 6.575 0 3.925 2.525 6.525 6.55 6.525zm-3.625-7.95c.2-1.825 1.675-2.975 3.4-2.975 1.875 0 3.2 1.075 3.425 2.975h-6.825zm17.379-7.15h5.4V18h2.875V3.05h5.4V.5H71.667v2.55zm19.327 15.1c3.175 0 5.325-1.925 5.775-4.45h-2.7c-.375 1.425-1.575 2.25-3.225 2.25-2.125 0-3.5-1.425-3.575-3.6v-.175h9.65c.05-.35.075-.7.075-1.025-.075-3.75-2.55-6.1-6.25-6.1-3.775 0-6.3 2.625-6.3 6.575 0 3.925 2.525 6.525 6.55 6.525zm-3.625-7.95c.2-1.825 1.675-2.975 3.4-2.975 1.875 0 3.2 1.075 3.425 2.975h-6.825zm11.184 3.575c.075 2.775 2.425 4.375 5.85 4.375 3.1 0 5.425-1.55 5.425-4 0-2.85-2.375-3.45-5.3-3.8-1.85-.2-3.075-.35-3.075-1.55 0-1.025 1.05-1.675 2.65-1.675 1.6 0 2.7.825 2.85 2h2.65c-.175-2.625-2.4-4.075-5.55-4.075-3.075-.025-5.25 1.55-5.25 3.975 0 2.65 2.3 3.275 5.225 3.625 1.975.25 3.15.35 3.15 1.725 0 1.025-1.1 1.675-2.775 1.675-1.95 0-3.1-.95-3.2-2.275h-2.65zM111.921 18h2.7V.5h-2.7V18zm17.046-2.35c-.55 0-.825-.175-.825-.825V9.7c0-3.025-1.95-4.65-5.35-4.65-3.225 0-5.375 1.55-5.65 4.05h2.65c.2-1.125 1.275-1.875 2.875-1.875 1.775 0 2.8.875 2.8 2.3v.775h-3.225c-3.575 0-5.475 1.475-5.475 4.1 0 2.375 1.95 3.75 4.75 3.75 2.075 0 3.375-.9 4.225-2.2 0 1.275.6 2.05 2.35 2.05h1.425v-2.35h-.55zm-3.5-2.9c-.025 1.975-1.325 3.3-3.575 3.3-1.475 0-2.375-.75-2.375-1.825 0-1.3.925-1.925 2.6-1.925h3.35v.45zm19.793 5.4c4.075 0 7.05-2.4 7.6-6.1h-2.975c-.55 2.225-2.225 3.575-4.65 3.575-3.3 0-5.3-2.65-5.3-6.375 0-3.75 2.05-6.375 5.375-6.375 2.375 0 4.025 1.375 4.6 3.575h2.975c-.575-3.7-3.45-6.1-7.45-6.1-5.175 0-8.45 3.575-8.45 8.9 0 5.375 3.175 8.9 8.275 8.9zm9.978-.15h2.875v-7.4h6.85V8.125h-6.85V3.05h8.3V.5h-11.175V18zm19.329 0c5.475 0 8.925-3.575 8.925-8.775S180.042.5 174.567.5h-5.95V18h5.95zm-3.075-15h3.075c3.85 0 5.975 2.475 5.975 6.225 0 3.75-2.125 6.275-5.975 6.275h-3.075V3zm13.707 10.775c.075 2.775 2.425 4.375 5.85 4.375 3.1 0 5.425-1.55 5.425-4 0-2.85-2.375-3.45-5.3-3.8-1.85-.2-3.075-.35-3.075-1.55 0-1.025 1.05-1.675 2.65-1.675 1.6 0 2.7.825 2.85 2h2.65c-.175-2.625-2.4-4.075-5.55-4.075-3.075-.025-5.25 1.55-5.25 3.975 0 2.65 2.3 3.275 5.225 3.625 1.975.25 3.15.35 3.15 1.725 0 1.025-1.1 1.675-2.775 1.675-1.95 0-3.1-.95-3.2-2.275h-2.65z" fill="#000"/></svg>