<svg width="272" height="22" viewBox="0 0 272 22" fill="none" xmlns="http://www.w3.org/2000/svg"><path d="M8.464 17.138c3.749 0 6.486-2.208 6.992-5.612h-2.737c-.506 2.047-2.047 3.289-4.278 3.289-3.036 0-4.876-2.438-4.876-5.865 0-3.45 1.886-5.865 4.945-5.865 2.185 0 3.703 1.265 4.232 3.289h2.737C14.95 2.97 12.305.762 8.625.762 3.864.762.851 4.051.851 8.95c0 4.945 2.921 8.188 7.613 8.188zM23.578 5.086c-1.84 0-2.967.828-3.703 1.84V.9H17.39V17h2.484v-5.957c0-2.369 1.196-3.818 3.15-3.818 1.84 0 2.83 1.196 2.83 3.427V17h2.484v-6.555c0-3.933-2.14-5.359-4.761-5.359zm12.496 12.052c3.588 0 6.003-2.415 6.003-6.026 0-3.588-2.415-6.026-6.003-6.026s-6.003 2.438-6.003 6.026c0 3.611 2.415 6.026 6.003 6.026zm0-2.116c-2.093 0-3.45-1.633-3.45-3.91s1.357-3.91 3.45-3.91 3.473 1.633 3.473 3.91-1.38 3.91-3.473 3.91zm13.567 2.116c3.587 0 6.003-2.415 6.003-6.026 0-3.588-2.416-6.026-6.003-6.026-3.588 0-6.003 2.438-6.003 6.026 0 3.611 2.415 6.026 6.003 6.026zm0-2.116c-2.093 0-3.45-1.633-3.45-3.91s1.356-3.91 3.45-3.91c2.093 0 3.473 1.633 3.473 3.91s-1.38 3.91-3.473 3.91zm7.427-1.909c.069 2.553 2.23 4.025 5.382 4.025 2.852 0 4.99-1.426 4.99-3.68 0-2.622-2.184-3.174-4.875-3.496-1.703-.184-2.83-.322-2.83-1.426 0-.943.967-1.541 2.438-1.541 1.472 0 2.484.759 2.623 1.84h2.438c-.161-2.415-2.209-3.749-5.106-3.749-2.83-.023-4.83 1.426-4.83 3.657 0 2.438 2.115 3.013 4.806 3.335 1.818.23 2.898.322 2.898 1.587 0 .943-1.011 1.541-2.552 1.541-1.794 0-2.853-.874-2.945-2.093h-2.438zm17.886 4.025c2.922 0 4.9-1.771 5.314-4.094h-2.484c-.346 1.311-1.45 2.07-2.968 2.07-1.954 0-3.22-1.311-3.288-3.312v-.161h8.877c.046-.322.07-.644.07-.943-.07-3.45-2.346-5.612-5.75-5.612-3.474 0-5.796 2.415-5.796 6.049 0 3.611 2.322 6.003 6.025 6.003zM71.62 9.824c.183-1.679 1.54-2.737 3.127-2.737 1.725 0 2.945.989 3.151 2.737H71.62zm17 7.176h2.645v-4.255l2.783-3.128L99.108 17h3.197l-6.348-9.338L101.868.9h-3.22l-7.383 8.303V.9H88.62V17zm21.096-11.914c-1.909 0-3.036.759-3.772 1.679l-.276-1.541h-2.162V17h2.484v-5.934c0-2.392 1.173-3.841 3.151-3.841 1.863 0 2.806 1.196 2.806 3.427V17h2.507v-6.555c0-3.933-2.139-5.359-4.738-5.359zm12.473 12.052c3.588 0 6.003-2.415 6.003-6.026 0-3.588-2.415-6.026-6.003-6.026s-6.003 2.438-6.003 6.026c0 3.611 2.415 6.026 6.003 6.026zm0-2.116c-2.093 0-3.45-1.633-3.45-3.91s1.357-3.91 3.45-3.91 3.473 1.633 3.473 3.91-1.38 3.91-3.473 3.91zm13.406 2.116c3.013 0 5.014-1.679 5.474-4.347h-2.622c-.299 1.357-1.311 2.231-2.829 2.231-2.001 0-3.312-1.587-3.312-3.887 0-2.323 1.311-3.933 3.312-3.933 1.541 0 2.53.851 2.852 2.231h2.599c-.483-2.668-2.369-4.347-5.405-4.347-3.565 0-5.911 2.415-5.911 6.049 0 3.68 2.277 6.003 5.842 6.003zM142.97 17h2.484v-2.99l2.116-2.208L151.043 17h2.944l-4.715-7.015 4.439-4.761h-2.921l-5.336 5.704V.9h-2.484V17zm17.044.138c3.588 0 6.003-2.415 6.003-6.026 0-3.588-2.415-6.026-6.003-6.026s-6.003 2.438-6.003 6.026c0 3.611 2.415 6.026 6.003 6.026zm0-2.116c-2.093 0-3.45-1.633-3.45-3.91s1.357-3.91 3.45-3.91 3.473 1.633 3.473 3.91-1.38 3.91-3.473 3.91zm16.073-3.91c0 2.438-1.15 3.864-3.036 3.864-1.817 0-2.737-1.173-2.737-3.473V5.224h-2.484v6.555c0 4.025 2.139 5.359 4.646 5.359 1.817 0 2.898-.736 3.634-1.633l.276 1.495h2.185V5.224h-2.484v5.888zm5.85 2.691c0 2.139.966 3.197 3.22 3.197h2.3v-2.185h-1.748c-.943 0-1.265-.345-1.265-1.265V7.409h2.875V5.224h-2.875V1.935h-2.507v3.289h-2.047v2.185h2.047v6.394zm18.551 3.335c3.588 0 6.003-2.415 6.003-6.026 0-3.588-2.415-6.026-6.003-6.026s-6.003 2.438-6.003 6.026c0 3.611 2.415 6.026 6.003 6.026zm0-2.116c-2.093 0-3.45-1.633-3.45-3.91s1.357-3.91 3.45-3.91 3.473 1.633 3.473 3.91-1.38 3.91-3.473 3.91zm14.303-9.936c-1.84 0-3.059.851-3.841 1.886l-.299-1.748h-2.162V21.6h2.484v-6.256c.736 1.058 2.001 1.794 3.818 1.794 3.22 0 5.566-2.392 5.566-6.026 0-3.772-2.346-6.026-5.566-6.026zm-.414 9.959c-2.07 0-3.427-1.633-3.427-3.979 0-2.277 1.357-3.864 3.427-3.864 2.07 0 3.45 1.587 3.45 3.91 0 2.3-1.38 3.933-3.45 3.933zm8.731-1.242c0 2.139.966 3.197 3.22 3.197h2.3v-2.185h-1.748c-.943 0-1.265-.345-1.265-1.265V7.409h2.875V5.224h-2.875V1.935h-2.507v3.289h-2.047v2.185h2.047v6.394zm8.365-10.235c.851 0 1.518-.621 1.518-1.495 0-.874-.667-1.495-1.518-1.495s-1.518.621-1.518 1.495c0 .874.667 1.495 1.518 1.495zM230.208 17h2.484V5.224h-2.484V17zm10.485.138c3.588 0 6.003-2.415 6.003-6.026 0-3.588-2.415-6.026-6.003-6.026s-6.003 2.438-6.003 6.026c0 3.611 2.415 6.026 6.003 6.026zm0-2.116c-2.093 0-3.45-1.633-3.45-3.91s1.357-3.91 3.45-3.91 3.473 1.633 3.473 3.91-1.38 3.91-3.473 3.91zm14.211-9.936c-1.909 0-3.036.759-3.772 1.679l-.276-1.541h-2.162V17h2.484v-5.934c0-2.392 1.173-3.841 3.151-3.841 1.863 0 2.806 1.196 2.806 3.427V17h2.507v-6.555c0-3.933-2.139-5.359-4.738-5.359zm6.491 8.027c.069 2.553 2.231 4.025 5.382 4.025 2.852 0 4.991-1.426 4.991-3.68 0-2.622-2.185-3.174-4.876-3.496-1.702-.184-2.829-.322-2.829-1.426 0-.943.966-1.541 2.438-1.541 1.472 0 2.484.759 2.622 1.84h2.438c-.161-2.415-2.208-3.749-5.106-3.749-2.829-.023-4.83 1.426-4.83 3.657 0 2.438 2.116 3.013 4.807 3.335 1.817.23 2.898.322 2.898 1.587 0 .943-1.012 1.541-2.553 1.541-1.794 0-2.852-.874-2.944-2.093h-2.438z" fill="#000"/></svg>