<svg width="140" height="17" viewBox="0 0 140 17" fill="none" xmlns="http://www.w3.org/2000/svg"><path d="M2.921 16.5l1.495-3.979h6.601l1.518 3.979h2.829L9.361.4H6.21L.184 16.5h2.737zM7.705 3.252l2.576 7.015H5.152l2.553-7.015zM16.762 16.5h2.484V.4h-2.484v16.1zM35.228 4.586c-1.932 0-3.266.851-4.025 2.139-.713-1.518-2.093-2.139-3.634-2.139-1.771.023-2.783.805-3.45 1.679l-.276-1.541H21.68V16.5h2.484v-6.302c0-2.093 1.058-3.473 2.76-3.473 1.633 0 2.484 1.081 2.484 3.151V16.5h2.507v-6.371c0-2.116 1.08-3.404 2.783-3.404 1.61 0 2.46 1.081 2.46 3.151V16.5h2.485V9.715c0-3.726-1.978-5.129-4.416-5.129zm12.144 12.052c3.588 0 6.003-2.415 6.003-6.026 0-3.588-2.415-6.026-6.003-6.026s-6.003 2.438-6.003 6.026c0 3.611 2.415 6.026 6.003 6.026zm0-2.116c-2.093 0-3.45-1.633-3.45-3.91s1.357-3.91 3.45-3.91 3.473 1.633 3.473 3.91-1.38 3.91-3.473 3.91zm7.427-1.909c.069 2.553 2.23 4.025 5.382 4.025 2.852 0 4.99-1.426 4.99-3.68 0-2.622-2.184-3.174-4.875-3.496-1.702-.184-2.83-.322-2.83-1.426 0-.943.967-1.541 2.439-1.541s2.484.759 2.622 1.84h2.438c-.161-2.415-2.208-3.749-5.106-3.749-2.83-.023-4.83 1.426-4.83 3.657 0 2.438 2.116 3.013 4.807 3.335 1.817.23 2.898.322 2.898 1.587 0 .943-1.012 1.541-2.553 1.541-1.794 0-2.852-.874-2.944-2.093h-2.438zm13.149.69c0 2.139.966 3.197 3.22 3.197h2.3v-2.185H71.72c-.943 0-1.265-.345-1.265-1.265V6.909h2.875V4.724h-2.875V1.435h-2.507v3.289H65.9v2.185h2.047v6.394zm13.836 0c0 2.139.966 3.197 3.22 3.197h2.3v-2.185h-1.748c-.943 0-1.265-.345-1.265-1.265V6.909h2.875V4.724H84.29V1.435h-2.507v3.289h-2.047v2.185h2.047v6.394zM95.07 4.586c-1.84 0-2.967.828-3.703 1.84V.4h-2.484v16.1h2.484v-5.957c0-2.369 1.196-3.818 3.151-3.818 1.84 0 2.829 1.196 2.829 3.427V16.5h2.484V9.945c0-3.933-2.139-5.359-4.761-5.359zm12.519 12.052c2.921 0 4.899-1.771 5.313-4.094h-2.484c-.345 1.311-1.449 2.07-2.967 2.07-1.955 0-3.22-1.311-3.289-3.312v-.161h8.878c.046-.322.069-.644.069-.943-.069-3.45-2.346-5.612-5.75-5.612-3.473 0-5.796 2.415-5.796 6.049 0 3.611 2.323 6.003 6.026 6.003zm-3.335-7.314c.184-1.679 1.541-2.737 3.128-2.737 1.725 0 2.944.989 3.151 2.737h-6.279zm16.82-4.6c-1.932 0-2.875.782-3.473 1.771l-.276-1.771h-2.208V16.5h2.484v-5.911c0-1.817.713-3.542 2.921-3.542h1.104V4.724h-.552zm7.112 11.914c2.921 0 4.899-1.771 5.313-4.094h-2.484c-.345 1.311-1.449 2.07-2.967 2.07-1.955 0-3.22-1.311-3.289-3.312v-.161h8.878c.046-.322.069-.644.069-.943-.069-3.45-2.346-5.612-5.75-5.612-3.473 0-5.796 2.415-5.796 6.049 0 3.611 2.323 6.003 6.026 6.003zm-3.335-7.314c.184-1.679 1.541-2.737 3.128-2.737 1.725 0 2.944.989 3.151 2.737h-6.279zm13.669 2.277L138.912.4h-2.668l.391 11.201h1.886zm-2.553 3.473c0 .92.69 1.564 1.61 1.564.92 0 1.587-.644 1.587-1.564s-.667-1.564-1.587-1.564c-.92 0-1.61.644-1.61 1.564z" fill="#000"/></svg>