<svg width="115" height="15" viewBox="0 0 115 15" fill="none" xmlns="http://www.w3.org/2000/svg"><path d="M2.413 14l1.235-3.287h5.453L10.355 14h2.337L7.733.7H5.13L.152 14h2.261zM6.365 3.056l2.128 5.795H4.256l2.109-5.795zM13.847 14h2.052V.7h-2.052V14zM29.1 4.158c-1.596 0-2.698.703-3.325 1.767-.589-1.254-1.729-1.767-3.002-1.767-1.463.019-2.299.665-2.85 1.387l-.228-1.273H17.91V14h2.052V8.794c0-1.729.874-2.869 2.28-2.869 1.35 0 2.052.893 2.052 2.603V14h2.071V8.737c0-1.748.893-2.812 2.3-2.812 1.33 0 2.032.893 2.032 2.603V14h2.052V8.395c0-3.078-1.634-4.237-3.648-4.237zm10.032 9.956c2.964 0 4.96-1.995 4.96-4.978 0-2.964-1.996-4.978-4.96-4.978s-4.959 2.014-4.959 4.978c0 2.983 1.995 4.978 4.96 4.978zm0-1.748c-1.729 0-2.85-1.349-2.85-3.23s1.121-3.23 2.85-3.23c1.73 0 2.87 1.349 2.87 3.23s-1.14 3.23-2.87 3.23zm6.136-1.577c.057 2.109 1.843 3.325 4.446 3.325 2.356 0 4.123-1.178 4.123-3.04 0-2.166-1.805-2.622-4.028-2.888-1.406-.152-2.337-.266-2.337-1.178 0-.779.798-1.273 2.014-1.273 1.216 0 2.052.627 2.166 1.52h2.014c-.133-1.995-1.824-3.097-4.218-3.097-2.337-.019-3.99 1.178-3.99 3.021 0 2.014 1.748 2.489 3.97 2.755 1.502.19 2.395.266 2.395 1.311 0 .779-.836 1.273-2.11 1.273-1.481 0-2.355-.722-2.431-1.729h-2.014zm10.862.57c0 1.767.798 2.641 2.66 2.641h1.9v-1.805h-1.444c-.78 0-1.045-.285-1.045-1.045V6.077h2.375V4.272h-2.375V1.555H56.13v2.717H54.44v1.805h1.69v5.282zm11.43 0c0 1.767.798 2.641 2.66 2.641h1.9v-1.805h-1.444c-.78 0-1.045-.285-1.045-1.045V6.077h2.375V4.272h-2.375V1.555H67.56v2.717H65.87v1.805h1.69v5.282zm10.976-7.201c-1.52 0-2.451.684-3.06 1.52V.7h-2.051V14h2.052V9.079c0-1.957.988-3.154 2.603-3.154 1.52 0 2.337.988 2.337 2.831V14h2.052V8.585c0-3.249-1.767-4.427-3.933-4.427zm10.342 9.956c2.413 0 4.047-1.463 4.389-3.382h-2.052c-.285 1.083-1.197 1.71-2.451 1.71-1.615 0-2.66-1.083-2.717-2.736v-.133h7.334c.038-.266.057-.532.057-.779-.057-2.85-1.938-4.636-4.75-4.636-2.87 0-4.788 1.995-4.788 4.997 0 2.983 1.919 4.959 4.978 4.959zm-2.755-6.042c.152-1.387 1.273-2.261 2.584-2.261 1.425 0 2.432.817 2.603 2.261h-5.187zm13.895-3.8c-1.596 0-2.375.646-2.87 1.463l-.227-1.463h-1.824V14h2.052V9.117c0-1.501.589-2.926 2.413-2.926h.912V4.272h-.456zm5.875 9.842c2.413 0 4.047-1.463 4.389-3.382h-2.052c-.285 1.083-1.197 1.71-2.451 1.71-1.615 0-2.66-1.083-2.717-2.736v-.133h7.334c.038-.266.057-.532.057-.779-.057-2.85-1.938-4.636-4.75-4.636-2.869 0-4.788 1.995-4.788 4.997 0 2.983 1.919 4.959 4.978 4.959zm-2.755-6.042c.152-1.387 1.273-2.261 2.584-2.261 1.425 0 2.432.817 2.603 2.261h-5.187zm11.291 1.881L114.753.7h-2.204l.323 9.253h1.558zm-2.109 2.869c0 .76.57 1.292 1.33 1.292.76 0 1.311-.532 1.311-1.292s-.551-1.292-1.311-1.292c-.76 0-1.33.532-1.33 1.292z" fill="#000"/></svg>