<svg width="82" height="16" viewBox="0 0 82 16" fill="none" xmlns="http://www.w3.org/2000/svg"><rect width="82" height="16" rx="8" fill="#000"/><path d="M10.544 11h.696V8.552h2.304v-.64H11.24V6.04h2.784V5.4h-3.48V11zm6.776-2.04c0 .92-.448 1.488-1.192 1.488-.68 0-1.064-.448-1.064-1.296V6.92h-.656v2.272c0 1.352.712 1.856 1.608 1.856.672 0 1.064-.288 1.304-.592l.088.544h.568V6.92h-.656v2.04zm3.55-2.088c-.688 0-1.104.288-1.344.6l-.088-.552h-.568V11h.656V8.96c0-.92.464-1.488 1.232-1.488.712 0 1.104.448 1.104 1.296V11h.656V8.728c0-1.352-.728-1.856-1.648-1.856zm5.653.672c-.248-.392-.712-.672-1.4-.672-1.128 0-1.96.84-1.96 2.088 0 1.328.832 2.088 1.96 2.088a1.65 1.65 0 001.4-.704l.088.656h.568V5.4h-.656v2.144zm-1.336 2.92c-.808 0-1.352-.616-1.352-1.504s.544-1.504 1.352-1.504c.8 0 1.344.624 1.344 1.52 0 .872-.544 1.488-1.344 1.488zm9.532-3.592c-.728 0-1.168.336-1.416.776-.232-.52-.72-.776-1.288-.776-.632 0-.976.312-1.192.608l-.088-.56h-.568V11h.656V8.848c0-.816.408-1.376 1.08-1.376.624 0 .984.416.984 1.216V11h.656V8.816c0-.832.416-1.344 1.096-1.344.616 0 .968.416.968 1.216V11h.656V8.648c0-1.288-.696-1.776-1.544-1.776zm3.42 4.152l-.2.496c-.151.384-.215.48-.591.48h-.584v.6h.784c.576 0 .728-.256.984-.912l1.88-4.768h-.696L38.5 10.176 37.244 6.92h-.696l1.592 4.104zm8.464-.624c-.184 0-.264-.056-.264-.272V8.344c0-.952-.6-1.472-1.64-1.472-.984 0-1.632.472-1.728 1.272h.656c.08-.416.464-.688 1.04-.688.64 0 1.016.32 1.016.848v.28h-1.2c-1.072 0-1.64.456-1.64 1.272 0 .744.608 1.192 1.504 1.192.704 0 1.112-.312 1.368-.68.008.4.192.632.736.632h.36v-.6h-.208zm-.92-1.064c0 .68-.472 1.152-1.288 1.152-.544 0-.888-.272-.888-.672 0-.464.328-.68.912-.68h1.264v.2zm3.417 1.712c.992 0 1.656-.56 1.816-1.44h-.696c-.128.52-.528.856-1.112.856-.784 0-1.312-.608-1.312-1.496s.528-1.512 1.312-1.512c.6 0 1 .328 1.12.872h.688c-.168-.896-.8-1.456-1.8-1.456-1.184 0-1.992.848-1.992 2.096 0 1.272.784 2.08 1.976 2.08zm4.367 0c.992 0 1.657-.56 1.816-1.44h-.696c-.128.52-.528.856-1.112.856-.784 0-1.312-.608-1.312-1.496s.529-1.512 1.313-1.512c.6 0 1 .328 1.12.872h.688c-.169-.896-.8-1.456-1.8-1.456-1.184 0-1.992.848-1.992 2.096 0 1.272.784 2.08 1.976 2.08zm4.416 0c1.192 0 2.024-.848 2.024-2.088 0-1.24-.832-2.088-2.024-2.088-1.192 0-2.024.848-2.024 2.088 0 1.24.832 2.088 2.024 2.088zm0-.584c-.808 0-1.352-.632-1.352-1.504s.544-1.504 1.352-1.504 1.352.632 1.352 1.504-.544 1.504-1.352 1.504zm5.632-1.504c0 .92-.448 1.488-1.192 1.488-.68 0-1.064-.448-1.064-1.296V6.92h-.656v2.272c0 1.352.712 1.856 1.608 1.856.672 0 1.064-.288 1.304-.592l.088.544h.568V6.92h-.656v2.04zm3.55-2.088c-.688 0-1.104.288-1.344.6l-.088-.552h-.568V11h.656V8.96c0-.92.464-1.488 1.232-1.488.712 0 1.104.448 1.104 1.296V11h.656V8.728c0-1.352-.728-1.856-1.648-1.856zm2.789 3.064c0 .72.28 1.064 1.064 1.064h.712v-.6h-.648c-.352 0-.472-.128-.472-.472V7.52h1.056v-.6H70.51V5.776h-.656V6.92h-.736v.6h.736v2.416z" fill="#fff"/></svg>