<svg width="8662" height="6496" viewBox="0 0 8662 6496" fill="none" xmlns="http://www.w3.org/2000/svg"><path d="M0 0v6496h8662V0H0zm4773.08 3589.96c-21.73 0-130.39-2.12-172.65-2.12-44.67 0-179.89 2.12-202.83 2.12v-14.81l38.63-5.29c37.43-5.29 53.13-13.76 53.13-33.86 0-16.93-12.08-38.08-38.64-74.05l-135.22-180.91-135.22 162.92c-31.39 38.09-45.88 66.65-45.88 87.81 0 21.16 14.49 33.85 51.92 39.14l39.84 5.29v14.82c-21.73 0-118.32-2.12-161.78-2.12-43.47 0-112.29 2.12-135.23 2.12v-15.87l20.53-3.18c54.33-8.46 105.04-48.66 146.09-94.16l195.58-224.28-319.62-404.42c-44.67-58.19-76.06-84.64-124.35-92.04l-25.36-4.24v-14.81c21.73 0 130.39 2.12 172.65 2.12 44.67 0 177.48-2.12 200.42-2.12v14.81l-38.64 5.29c-32.59 4.23-50.7 13.76-50.7 33.86 0 16.92 139.73 192.83 166.29 228.8l115.9 156.58 244.93-308.15c30.18-38.09 45.88-66.65 45.88-86.75 0-20.11-15.7-33.86-51.92-39.15l-39.84-5.29v-14.81c21.73 0 118.32 2.12 161.78 2.12 43.47 0 112.28-2.12 135.22-2.12v14.81l-20.52 3.18c-54.33 8.46-103.83 44.43-146.09 94.15l-306.5 369.51 212.49 272.95c44.67 58.19 76.06 84.64 124.36 92.05l25.35 4.23v15.87z" fill="#fff"/></svg>