<svg width="1256" height="1041" viewBox="0 0 1256 1041" fill="none" xmlns="http://www.w3.org/2000/svg"><path d="M0 0v1040.5h1255.5V0H0zm1020.08 953.957c-21.733 0-130.393-2.116-172.649-2.116-44.672 0-179.893 2.116-202.832 2.116v-14.811l38.635-5.29c37.427-5.29 53.122-13.753 53.122-33.854 0-16.927-12.073-38.086-38.635-74.056l-135.22-180.909L427.28 807.96c-31.391 38.087-45.88 66.651-45.88 87.81 0 21.159 14.489 33.854 51.916 39.144l39.842 5.29v14.811c-21.732 0-118.319-2.116-161.783-2.116-43.463 0-112.282 2.116-135.221 2.116v-15.869l20.525-3.174c54.33-8.464 105.038-48.666 146.087-94.157L538.354 617.53 218.731 213.106c-44.671-58.187-76.062-84.635-124.355-92.041l-25.353-4.232v-14.811c21.732 0 130.391 2.116 172.647 2.116 44.672 0 177.478-2.116 200.417-2.116v14.811l-38.634 5.29c-32.598 4.232-50.707 13.753-50.707 33.854 0 16.927 139.729 192.834 166.291 228.804L634.94 541.358l244.928-308.15c30.183-38.087 45.878-66.651 45.878-86.752s-15.695-33.854-51.915-39.144l-39.842-5.29V87.211c21.732 0 118.318 2.116 161.782 2.116 43.459 0 112.279-2.116 135.219-2.116v14.811l-20.52 3.174c-54.33 8.464-103.83 44.434-146.089 94.157L657.88 568.865l212.49 272.95c44.671 58.187 76.062 84.635 124.356 92.041l25.354 4.232v15.869z" fill="#fff"/></svg>