<svg width="266" height="213" viewBox="0 0 266 213" fill="none" xmlns="http://www.w3.org/2000/svg"><path d="M9.256 28.279c-1.58 0-3.04-.195-4.379-.586-1.32-.409-2.454-.967-3.402-1.673l1.115-2.817c.633.446 1.293.827 1.98 1.143.689.298 1.423.53 2.204.698.78.148 1.608.223 2.482.223 1.469 0 2.529-.242 3.18-.725.65-.484.976-1.116.976-1.897 0-.688-.224-1.208-.67-1.561-.446-.372-1.246-.68-2.398-.92l-3.152-.642c-1.803-.372-3.151-.995-4.044-1.869-.892-.874-1.338-2.045-1.338-3.514 0-1.227.325-2.296.976-3.207.65-.911 1.561-1.618 2.733-2.12 1.171-.502 2.538-.753 4.1-.753 1.394 0 2.686.205 3.876.614 1.19.39 2.185.957 2.984 1.701l-1.115 2.677a8 8 0 00-2.622-1.478c-.948-.335-2.008-.502-3.18-.502-1.32 0-2.351.26-3.095.781-.725.502-1.088 1.2-1.088 2.092 0 .688.223 1.236.67 1.645.465.41 1.245.725 2.342.949l3.124.613c1.86.372 3.235.986 4.128 1.84.892.837 1.338 1.972 1.338 3.403 0 1.172-.316 2.204-.948 3.096-.632.874-1.525 1.562-2.677 2.064-1.153.483-2.52.725-4.1.725zm16.724 0c-1.674 0-2.938-.437-3.793-1.31-.856-.875-1.283-2.186-1.283-3.933v-6.498h-2.705v-2.622h2.705v-3.598l3.486-.892v4.49h3.765v2.622H24.39v6.275c0 .966.186 1.645.558 2.036.372.39.883.585 1.534.585.353 0 .65-.028.892-.084.26-.055.512-.13.753-.223v2.761c-.316.13-.67.224-1.06.28a5.537 5.537 0 01-1.087.11zm10.766 0c-1.45 0-2.706-.298-3.765-.893a6.274 6.274 0 01-2.483-2.537c-.576-1.098-.864-2.399-.864-3.905 0-1.506.288-2.798.864-3.877a6.274 6.274 0 012.483-2.537c1.06-.595 2.314-.893 3.765-.893 1.45 0 2.705.297 3.765.893a6.05 6.05 0 012.482 2.537c.595 1.079.892 2.371.892 3.877 0 1.506-.297 2.808-.892 3.905a6.05 6.05 0 01-2.482 2.537c-1.06.595-2.315.893-3.765.893zm0-2.677c1.097 0 1.97-.382 2.621-1.144.651-.78.976-1.952.976-3.514 0-1.562-.325-2.724-.976-3.486-.65-.762-1.524-1.144-2.621-1.144s-1.971.381-2.622 1.144c-.65.762-.976 1.924-.976 3.486 0 1.562.325 2.733.976 3.514.65.762 1.525 1.144 2.622 1.144zM46.892 28V17.43a28.159 28.159 0 00-.223-3.514h3.374l.28 2.789h-.336c.447-.986 1.107-1.739 1.98-2.26.874-.538 1.888-.808 3.04-.808 1.655 0 2.9.465 3.738 1.394.836.93 1.255 2.38 1.255 4.351V28h-3.486v-8.45c0-1.135-.224-1.943-.67-2.427-.428-.502-1.078-.753-1.952-.753-1.079 0-1.934.335-2.566 1.004-.632.67-.948 1.562-.948 2.678V28h-3.486zm23.609.279c-2.361 0-4.211-.65-5.55-1.952-1.339-1.302-2.008-3.087-2.008-5.355 0-1.469.288-2.752.865-3.849.576-1.097 1.375-1.952 2.398-2.566 1.041-.613 2.25-.92 3.626-.92 1.357 0 2.491.288 3.402.865.911.576 1.6 1.385 2.064 2.426.483 1.041.725 2.259.725 3.653v.92H65.76v-1.84h7.781l-.474.39c0-1.3-.279-2.296-.837-2.984-.539-.688-1.33-1.032-2.37-1.032-1.153 0-2.046.41-2.678 1.228-.613.818-.92 1.961-.92 3.43v.363c0 1.524.372 2.668 1.115 3.43.763.744 1.832 1.116 3.208 1.116.8 0 1.543-.103 2.23-.307a6.533 6.533 0 002.009-1.06l1.032 2.343c-.67.539-1.469.957-2.399 1.255a9.645 9.645 0 01-2.956.446zM79.254 28V8.338h3.598v8.2H92.92v-8.2h3.598V28H92.92v-8.478H82.852V28h-3.598zm28.124.279c-2.361 0-4.211-.65-5.55-1.952-1.339-1.302-2.008-3.087-2.008-5.355 0-1.469.288-2.752.865-3.849.576-1.097 1.376-1.952 2.398-2.566 1.041-.613 2.25-.92 3.626-.92 1.357 0 2.491.288 3.402.865.911.576 1.599 1.385 2.064 2.426.483 1.041.725 2.259.725 3.653v.92h-10.263v-1.84h7.781l-.474.39c0-1.3-.279-2.296-.837-2.984-.539-.688-1.329-1.032-2.37-1.032-1.153 0-2.046.41-2.678 1.228-.613.818-.92 1.961-.92 3.43v.363c0 1.524.372 2.668 1.115 3.43.763.744 1.832 1.116 3.208 1.116.799 0 1.543-.103 2.231-.307a6.536 6.536 0 002.008-1.06l1.032 2.343c-.67.539-1.469.957-2.399 1.255a9.641 9.641 0 01-2.956.446zm13.941 0c-1.228 0-2.315-.288-3.263-.865-.93-.595-1.655-1.44-2.176-2.538-.52-1.097-.781-2.407-.781-3.932s.261-2.826.781-3.904c.521-1.097 1.246-1.934 2.176-2.51.948-.595 2.035-.893 3.263-.893 1.171 0 2.203.288 3.095.865.911.557 1.516 1.32 1.813 2.286h-.362V7.473h3.486V28h-3.431v-2.984h.335c-.298 1.004-.902 1.803-1.813 2.398-.892.577-1.933.865-3.123.865zm.976-2.677c1.097 0 1.98-.382 2.649-1.144.67-.78 1.004-1.952 1.004-3.514 0-1.562-.334-2.724-1.004-3.486-.669-.762-1.552-1.144-2.649-1.144s-1.99.381-2.678 1.144c-.669.762-1.004 1.924-1.004 3.486 0 1.562.335 2.733 1.004 3.514.688.762 1.581 1.144 2.678 1.144zm17.378 8.645c-1.302 0-2.482-.14-3.542-.418a8.71 8.71 0 01-2.789-1.283l.753-2.51a8.935 8.935 0 001.673.864 9.81 9.81 0 001.785.503 10.44 10.44 0 001.869.167c1.301 0 2.268-.326 2.9-.976.651-.633.977-1.544.977-2.733v-3.375h.278c-.297.967-.901 1.738-1.812 2.315-.893.576-1.925.864-3.096.864-1.264 0-2.371-.279-3.319-.836-.929-.577-1.655-1.395-2.175-2.455-.521-1.06-.781-2.305-.781-3.737 0-1.431.26-2.668.781-3.709.52-1.06 1.246-1.869 2.175-2.426.948-.577 2.055-.865 3.319-.865 1.19 0 2.222.288 3.096.865.892.557 1.487 1.32 1.785 2.286l-.251-.167.278-2.705h3.375a28.315 28.315 0 00-.223 3.514v10.012c0 2.213-.604 3.895-1.813 5.048-1.19 1.171-2.937 1.757-5.243 1.757zm-.056-9.259c1.116 0 1.999-.372 2.65-1.116.669-.762 1.004-1.84 1.004-3.235 0-1.394-.335-2.463-1.004-3.207-.651-.744-1.534-1.116-2.65-1.116-1.134 0-2.036.372-2.705 1.116-.669.744-1.004 1.813-1.004 3.207 0 1.395.335 2.473 1.004 3.235.669.744 1.571 1.116 2.705 1.116zm17.684 3.29c-2.361 0-4.211-.65-5.55-1.951-1.339-1.302-2.008-3.087-2.008-5.355 0-1.469.288-2.752.865-3.849.576-1.097 1.375-1.952 2.398-2.566 1.041-.613 2.25-.92 3.626-.92 1.357 0 2.491.288 3.402.865.911.576 1.599 1.385 2.064 2.426.483 1.041.725 2.259.725 3.653v.92H152.56v-1.84h7.781l-.474.39c0-1.3-.279-2.296-.837-2.984-.539-.688-1.329-1.032-2.37-1.032-1.153 0-2.046.41-2.678 1.228-.613.818-.92 1.961-.92 3.43v.363c0 1.524.372 2.668 1.115 3.43.763.744 1.832 1.116 3.208 1.116.799 0 1.543-.103 2.231-.307a6.536 6.536 0 002.008-1.06l1.032 2.343c-.67.539-1.469.957-2.399 1.255a9.641 9.641 0 01-2.956.446zM173.305 28V14.055h1.172V28h-1.172zm-.306-17.598V8.645h1.784v1.757h-1.784zm10.731 17.821a9.123 9.123 0 01-2.957-.474c-.911-.335-1.654-.79-2.231-1.367l.586-.92a6.844 6.844 0 002.175 1.283c.781.26 1.608.39 2.482.39 1.265 0 2.231-.241 2.901-.725.669-.483 1.004-1.143 1.004-1.98 0-.65-.214-1.171-.642-1.562-.427-.409-1.134-.715-2.119-.92l-2.427-.53c-1.19-.279-2.073-.725-2.649-1.339-.576-.613-.865-1.375-.865-2.287 0-.762.196-1.44.586-2.035.409-.595.985-1.06 1.729-1.395.762-.353 1.655-.53 2.678-.53.985 0 1.887.168 2.705.502.837.335 1.506.8 2.008 1.395l-.614.92a5.416 5.416 0 00-1.868-1.283 5.561 5.561 0 00-2.231-.446c-1.209 0-2.139.26-2.789.78-.633.521-.949 1.21-.949 2.065 0 .65.196 1.18.586 1.59.409.408 1.051.715 1.924.92l2.427.558c1.264.297 2.203.734 2.817 1.31.613.558.92 1.302.92 2.231 0 .781-.214 1.46-.641 2.036-.428.577-1.032 1.023-1.813 1.339-.781.316-1.692.474-2.733.474zM2.116 63V52.43a28.166 28.166 0 00-.223-3.514h3.375l.279 2.789h-.335c.39-.967.985-1.72 1.785-2.26.818-.538 1.785-.808 2.9-.808 1.116 0 2.036.27 2.761.809.744.52 1.265 1.339 1.562 2.454h-.446a4.838 4.838 0 011.924-2.37c.893-.596 1.915-.893 3.068-.893 1.58 0 2.761.465 3.542 1.395.781.93 1.172 2.38 1.172 4.35V63h-3.487v-8.478c0-1.116-.186-1.915-.557-2.399-.372-.502-.967-.753-1.785-.753-.967 0-1.73.344-2.287 1.032-.558.67-.837 1.58-.837 2.733V63h-3.486v-8.478c0-1.116-.186-1.915-.558-2.399-.372-.502-.967-.753-1.785-.753-.967 0-1.729.344-2.287 1.032-.539.67-.809 1.58-.809 2.733V63H2.116zm31.89.279c-2.362 0-4.212-.65-5.55-1.952-1.34-1.302-2.009-3.087-2.009-5.355 0-1.469.288-2.752.865-3.849.576-1.097 1.376-1.952 2.398-2.566 1.042-.613 2.25-.92 3.626-.92 1.357 0 2.491.288 3.403.865.91.576 1.598 1.385 2.063 2.426.484 1.041.725 2.259.725 3.654v.92H29.264v-1.84h7.781l-.474.39c0-1.302-.279-2.297-.837-2.985-.539-.688-1.329-1.032-2.37-1.032-1.153 0-2.045.41-2.677 1.228-.614.818-.92 1.961-.92 3.43v.363c0 1.524.371 2.668 1.115 3.43.762.744 1.831 1.116 3.207 1.116.8 0 1.543-.103 2.231-.307a6.532 6.532 0 002.008-1.06l1.032 2.343c-.67.539-1.469.957-2.398 1.255a9.645 9.645 0 01-2.957.446zM42.451 63V52.514c0-.595-.019-1.2-.056-1.813a18.234 18.234 0 00-.14-1.785h3.375l.39 3.849h-.557c.186-.93.492-1.702.92-2.315.446-.614.985-1.07 1.618-1.367a4.787 4.787 0 012.063-.446c.335 0 .605.019.81.056.204.018.408.065.613.14L51.46 51.9a3.842 3.842 0 00-.92-.279 6.237 6.237 0 00-.92-.056c-.8 0-1.479.168-2.037.502a3.2 3.2 0 00-1.227 1.395c-.26.595-.39 1.273-.39 2.036V63h-3.514zm17.229.279c-1.45 0-2.724-.298-3.821-.893a6.226 6.226 0 01-2.51-2.538c-.595-1.115-.893-2.435-.893-3.96 0-1.524.298-2.826.893-3.904a6.27 6.27 0 012.538-2.482c1.078-.577 2.342-.865 3.793-.865.93 0 1.831.149 2.705.446.892.28 1.617.688 2.175 1.227l-1.06 2.427a4.866 4.866 0 00-1.7-1.032 4.922 4.922 0 00-1.814-.363c-1.245 0-2.221.39-2.928 1.172-.688.78-1.032 1.915-1.032 3.402 0 1.488.344 2.631 1.032 3.43.707.8 1.683 1.2 2.928 1.2a5.21 5.21 0 001.785-.335 5.155 5.155 0 001.73-1.032l1.06 2.399c-.577.539-1.311.957-2.204 1.255a8.256 8.256 0 01-2.677.446zM67.264 63V42.474h3.486v9.259h-.39c.427-1.004 1.087-1.767 1.98-2.287.892-.54 1.915-.809 3.068-.809 1.673 0 2.919.474 3.737 1.422.818.93 1.227 2.352 1.227 4.267V63h-3.486v-8.506c0-1.097-.214-1.887-.642-2.37-.409-.503-1.069-.754-1.98-.754-1.06 0-1.915.335-2.566 1.004-.632.65-.948 1.525-.948 2.622V63h-3.486zm22.243.279c-1.227 0-2.306-.288-3.235-.865-.93-.595-1.655-1.44-2.176-2.538-.52-1.097-.78-2.407-.78-3.932s.26-2.826.78-3.905c.52-1.096 1.246-1.933 2.176-2.51.93-.595 2.008-.892 3.235-.892 1.19 0 2.23.297 3.123.892.911.577 1.516 1.358 1.813 2.343h-.307l.307-2.956h3.347l-.168 1.757c-.037.595-.055 1.18-.055 1.757V63h-3.459l-.027-2.9h.334c-.297.966-.902 1.738-1.813 2.314-.91.577-1.943.865-3.095.865zm.976-2.678c1.097 0 1.98-.38 2.65-1.143.669-.78 1.003-1.952 1.003-3.514 0-1.562-.334-2.724-1.004-3.486-.669-.762-1.552-1.144-2.65-1.144-1.096 0-1.98.382-2.649 1.144-.669.762-1.004 1.924-1.004 3.486 0 1.562.326 2.733.977 3.514.669.762 1.561 1.144 2.677 1.144zM101.363 63V52.43a28.315 28.315 0 00-.223-3.514h3.374l.279 2.789h-.334c.446-.986 1.106-1.739 1.98-2.26.874-.538 1.887-.808 3.04-.808 1.654 0 2.9.465 3.737 1.395.837.93 1.255 2.38 1.255 4.35V63h-3.486v-8.45c0-1.135-.223-1.943-.67-2.427-.427-.502-1.078-.753-1.952-.753-1.078 0-1.934.335-2.566 1.004-.632.67-.948 1.562-.948 2.678V63h-3.486zm22.271.279c-1.228 0-2.315-.288-3.263-.865-.93-.595-1.655-1.44-2.176-2.538-.52-1.097-.781-2.407-.781-3.932s.261-2.826.781-3.905c.521-1.096 1.246-1.933 2.176-2.51.948-.595 2.035-.892 3.263-.892 1.171 0 2.203.288 3.095.865.911.557 1.516 1.32 1.813 2.286h-.362v-9.314h3.486V63h-3.431v-2.984h.335c-.297 1.004-.902 1.803-1.813 2.398-.892.577-1.933.865-3.123.865zm.976-2.678c1.097 0 1.98-.38 2.649-1.143.67-.78 1.004-1.952 1.004-3.514 0-1.562-.334-2.724-1.004-3.486-.669-.762-1.552-1.144-2.649-1.144s-1.99.382-2.678 1.144c-.669.762-1.004 1.924-1.004 3.486 0 1.562.335 2.733 1.004 3.514.688.762 1.581 1.144 2.678 1.144zM135.462 63V48.916h3.486V63h-3.486zm-.195-16.734v-3.402h3.876v3.402h-3.876zm12.487 17.013c-1.209 0-2.324-.14-3.347-.418-1.004-.298-1.85-.707-2.538-1.228l.976-2.342a8.518 8.518 0 002.343 1.115c.855.26 1.72.39 2.594.39.929 0 1.617-.157 2.064-.473.464-.316.697-.744.697-1.283 0-.428-.149-.763-.446-1.004-.279-.26-.735-.456-1.367-.586l-2.789-.53c-1.19-.26-2.101-.706-2.733-1.339-.614-.632-.92-1.46-.92-2.482 0-.874.232-1.645.697-2.314.483-.67 1.162-1.19 2.036-1.562.892-.39 1.933-.586 3.123-.586 1.042 0 2.018.14 2.929.418.929.28 1.71.698 2.342 1.255l-1.004 2.26a6.587 6.587 0 00-1.98-1.088 6.561 6.561 0 00-2.175-.39c-.967 0-1.673.176-2.12.53-.446.334-.669.77-.669 1.31 0 .409.13.753.39 1.032.279.26.707.455 1.283.586l2.789.53c1.246.241 2.185.669 2.817 1.282.651.595.976 1.413.976 2.455 0 .93-.251 1.729-.753 2.398-.502.67-1.199 1.18-2.091 1.534-.893.353-1.934.53-3.124.53zm8.952-.279V48.916h3.486V63h-3.486zm-.196-16.734v-3.402h3.877v3.402h-3.877zM163.978 63V52.43a28.315 28.315 0 00-.223-3.514h3.374l.279 2.789h-.335c.447-.986 1.107-1.739 1.98-2.26.874-.538 1.888-.808 3.04-.808 1.655 0 2.901.465 3.738 1.395.836.93 1.255 2.38 1.255 4.35V63h-3.487v-8.45c0-1.135-.223-1.943-.669-2.427-.428-.502-1.078-.753-1.952-.753-1.079 0-1.934.335-2.566 1.004-.632.67-.948 1.562-.948 2.678V63h-3.486zm23.33 6.247c-1.301 0-2.482-.14-3.542-.418a8.71 8.71 0 01-2.789-1.283l.753-2.51a8.913 8.913 0 001.674.864c.576.224 1.171.39 1.785.502a10.42 10.42 0 001.868.168c1.302 0 2.268-.325 2.901-.976.65-.632.976-1.543.976-2.733v-3.375h.279c-.298.967-.902 1.738-1.813 2.315-.893.576-1.925.864-3.096.864-1.264 0-2.37-.279-3.319-.836-.929-.577-1.654-1.395-2.175-2.455-.521-1.06-.781-2.305-.781-3.737 0-1.431.26-2.668.781-3.709.521-1.06 1.246-1.869 2.175-2.426.949-.577 2.055-.865 3.319-.865 1.19 0 2.222.288 3.096.865.892.557 1.487 1.32 1.785 2.286l-.251-.167.279-2.705h3.374a28.315 28.315 0 00-.223 3.514v10.012c0 2.213-.604 3.895-1.813 5.048-1.19 1.172-2.937 1.757-5.243 1.757zm-.056-9.259c1.116 0 1.999-.372 2.65-1.116.669-.762 1.004-1.84 1.004-3.235 0-1.394-.335-2.463-1.004-3.207-.651-.744-1.534-1.116-2.65-1.116-1.134 0-2.036.372-2.705 1.116-.669.744-1.004 1.813-1.004 3.207 0 1.395.335 2.473 1.004 3.235.669.744 1.571 1.116 2.705 1.116zm11.911 6.191l-1.06-.808c.502-.521.828-1.014.976-1.478.168-.447.251-.902.251-1.367l.502.474h-1.84v-2.845h2.844v2.008c0 .744-.12 1.441-.362 2.092-.242.67-.679 1.31-1.311 1.924zM7.025 98.223a9.12 9.12 0 01-2.956-.474c-.911-.335-1.655-.79-2.232-1.367l.586-.92a6.85 6.85 0 002.175 1.283c.781.26 1.609.39 2.483.39 1.264 0 2.23-.241 2.9-.725.67-.483 1.004-1.143 1.004-1.98 0-.65-.214-1.171-.641-1.562-.428-.409-1.135-.715-2.12-.92l-2.426-.53c-1.19-.279-2.073-.725-2.65-1.339-.576-.613-.864-1.375-.864-2.286 0-.763.195-1.441.585-2.036.41-.595.986-1.06 1.73-1.395.762-.353 1.654-.53 2.677-.53.985 0 1.887.168 2.705.502.837.335 1.506.8 2.008 1.395l-.613.92a5.426 5.426 0 00-1.869-1.283 5.56 5.56 0 00-2.231-.446c-1.209 0-2.138.26-2.79.78-.631.521-.947 1.21-.947 2.065 0 .65.195 1.18.585 1.59.41.408 1.05.715 1.925.92l2.426.557c1.264.298 2.203.735 2.817 1.311.614.558.92 1.302.92 2.231 0 .781-.214 1.46-.641 2.036-.428.577-1.032 1.023-1.813 1.339-.78.316-1.692.474-2.733.474zM16.4 98V84.055h1.171V98h-1.171zm-.307-17.598v-1.757h1.785v1.757h-1.785zM22.474 98V87.067c0-.483-.027-.976-.083-1.478a46.68 46.68 0 00-.14-1.534h1.144l.25 3.347h-.334c.353-1.153.939-2.036 1.757-2.65.818-.613 1.813-.92 2.984-.92 1.227 0 2.213.298 2.957.893.743.576 1.227 1.478 1.45 2.705h-.39c.315-1.097.91-1.97 1.784-2.622.893-.65 1.962-.976 3.207-.976 1.488 0 2.622.428 3.403 1.283.78.855 1.171 2.194 1.171 4.016V98h-1.171v-8.757c0-1.506-.27-2.603-.809-3.291-.539-.688-1.413-1.032-2.621-1.032-1.358 0-2.436.456-3.236 1.367-.78.91-1.17 2.138-1.17 3.68V98h-1.172v-8.757c0-1.506-.27-2.603-.809-3.291-.54-.688-1.413-1.032-2.622-1.032-1.357 0-2.426.456-3.207 1.367-.78.91-1.171 2.138-1.171 3.68V98h-1.172zm23.995 6.024V87.067c0-.483-.028-.976-.084-1.478a46.955 46.955 0 00-.14-1.534h1.144l.28 3.654h-.335c.316-1.209.93-2.157 1.84-2.845.93-.688 2.064-1.032 3.403-1.032 1.264 0 2.352.288 3.263.865.93.576 1.645 1.404 2.147 2.482.52 1.06.781 2.343.781 3.849 0 1.487-.25 2.77-.753 3.848-.502 1.079-1.218 1.906-2.147 2.483-.93.576-2.027.864-3.291.864-1.339 0-2.473-.344-3.403-1.032-.91-.688-1.524-1.636-1.84-2.844h.306v9.677H46.47zm6.108-6.889c1.524 0 2.733-.52 3.625-1.561.911-1.06 1.367-2.575 1.367-4.546s-.456-3.477-1.367-4.518c-.892-1.06-2.1-1.59-3.625-1.59s-2.733.53-3.626 1.59c-.892 1.04-1.339 2.547-1.339 4.518 0 1.97.447 3.486 1.34 4.546.892 1.04 2.1 1.561 3.625 1.561zM62.729 98V77.474H63.9V98h-1.171zm6.073 0V84.055h1.172V98h-1.172zm-.307-17.598v-1.757h1.785v1.757h-1.785zM75.433 98V85.06h-2.788v-1.005h3.067l-.279.307V81.88c0-1.432.344-2.538 1.032-3.319.707-.8 1.702-1.2 2.985-1.2.316 0 .65.038 1.004.112.353.056.632.13.836.224v1.115a4.29 4.29 0 00-.78-.25 4.371 4.371 0 00-1.005-.112c-.985 0-1.72.306-2.203.92-.465.614-.697 1.515-.697 2.705v2.37l-.223-.39h8.283V98h-1.172V85.06h-6.888V98h-1.172zm7.726-17.598v-1.757h1.813v1.757h-1.813zm12.17 17.821c-2.046 0-3.673-.623-4.881-1.868-1.209-1.265-1.813-3.022-1.813-5.272 0-1.487.27-2.77.808-3.848.54-1.079 1.293-1.915 2.26-2.51.985-.595 2.11-.893 3.374-.893 1.209 0 2.231.26 3.068.781.855.502 1.506 1.237 1.952 2.203.465.949.697 2.083.697 3.403v.753H89.388v-1.06h10.793l-.474.363c0-1.674-.39-2.985-1.172-3.933-.78-.966-1.942-1.45-3.486-1.45-1.636 0-2.919.558-3.848 1.673-.911 1.116-1.367 2.576-1.367 4.379v.14c0 1.97.483 3.476 1.45 4.517.967 1.023 2.315 1.534 4.044 1.534.874 0 1.692-.139 2.454-.418.763-.279 1.497-.753 2.204-1.422l.585.92c-.576.632-1.338 1.125-2.287 1.478a8.399 8.399 0 01-2.956.53zm14.53 0c-1.246 0-2.333-.288-3.263-.864-.911-.577-1.618-1.404-2.12-2.483-.502-1.078-.753-2.36-.753-3.848 0-1.506.251-2.79.753-3.849.502-1.078 1.209-1.906 2.12-2.482.93-.577 2.017-.865 3.263-.865 1.32 0 2.454.344 3.402 1.032.949.688 1.581 1.636 1.897 2.845h-.307V77.473h1.171V98h-1.171v-3.653h.307c-.316 1.208-.948 2.156-1.897 2.844-.948.688-2.082 1.032-3.402 1.032zm.028-1.088c1.506 0 2.714-.52 3.625-1.561.911-1.06 1.367-2.575 1.367-4.546s-.456-3.477-1.367-4.518c-.911-1.06-2.119-1.59-3.625-1.59-1.525 0-2.733.53-3.626 1.59-.892 1.04-1.338 2.547-1.338 4.518 0 1.97.446 3.486 1.338 4.546.893 1.04 2.101 1.561 3.626 1.561zm10.57.865v-1.952h1.924V98h-1.924zM4.581 128.535a3.072 3.072 0 01-1.498-.378 3.037 3.037 0 01-1.102-1.07 2.821 2.821 0 01-.412-1.498c0-.504.127-.982.379-1.432.263-.449.62-.811 1.07-1.086.46-.285.982-.428 1.563-.428.538 0 1.032.132 1.481.395.45.253.812.598 1.087 1.037.285.439.427.944.427 1.514 0 .538-.137 1.032-.411 1.482a2.907 2.907 0 01-1.086 1.069c-.45.264-.95.395-1.498.395zm13.616 1.597c-.933 0-1.745-.121-2.436-.362a5.973 5.973 0 01-1.86-1.087l.346-.592c.406.318.795.581 1.168.79.373.197.78.345 1.218.444.45.088.966.132 1.547.132 1.075 0 1.887-.214 2.436-.642.56-.439.84-1.02.84-1.744 0-.615-.198-1.087-.593-1.416-.384-.329-1.048-.587-1.992-.773l-1.629-.33c-1.064-.219-1.854-.565-2.37-1.036-.515-.472-.773-1.125-.773-1.959 0-.658.17-1.234.51-1.728.34-.494.812-.878 1.415-1.152.604-.274 1.306-.411 2.107-.411.812 0 1.552.126 2.222.378a4.6 4.6 0 011.728 1.136l-.33.592c-.537-.515-1.091-.883-1.662-1.102-.57-.22-1.223-.33-1.958-.33-1.01 0-1.816.236-2.42.708-.592.472-.888 1.108-.888 1.909 0 .648.192 1.152.576 1.514.384.351 1.004.615 1.86.79l1.645.329c1.141.231 1.97.565 2.485 1.004.527.428.79 1.048.79 1.86 0 .604-.159 1.141-.477 1.613-.318.461-.779.823-1.382 1.086-.593.252-1.3.379-2.123.379zm8.648 0c-.67 0-1.185-.209-1.547-.626-.351-.428-.527-1.075-.527-1.942v-5.2h-1.645v-.593h1.645v-2.353l.692-.264v2.617h2.501v.593h-2.501v5.052c0 .724.11 1.251.329 1.58.23.329.598.494 1.102.494.22 0 .417-.022.593-.066.176-.044.324-.093.444-.148v.658c-.12.055-.285.099-.494.132a2.717 2.717 0 01-.592.066zm2.9-.132v-6.353c0-.307-.01-.62-.033-.938a13.035 13.035 0 00-.066-.938h.675l.099 1.794-.148.016c.11-.438.307-.8.592-1.086a2.97 2.97 0 011.004-.642 3.26 3.26 0 011.514-.197c.132.011.253.033.363.066l-.033.642a1.768 1.768 0 00-.363-.066 4.362 4.362 0 00-.394-.017c-.505 0-.95.132-1.334.395a2.697 2.697 0 00-.872.955c-.208.373-.313.74-.313 1.103V130h-.69zm8.872.132c-1.207 0-2.167-.368-2.88-1.103-.713-.746-1.07-1.783-1.07-3.111 0-.877.16-1.634.477-2.271a3.569 3.569 0 011.333-1.481c.582-.351 1.246-.527 1.992-.527.713 0 1.316.154 1.81.461.505.297.889.73 1.152 1.3.274.56.412 1.229.412 2.008v.445H35.11v-.626h6.37l-.28.214c0-.987-.23-1.761-.691-2.32-.461-.571-1.147-.856-2.058-.856-.965 0-1.722.329-2.27.987-.538.659-.807 1.52-.807 2.584v.082c0 1.163.285 2.052.855 2.667.571.603 1.367.905 2.387.905.516 0 .998-.082 1.448-.247.45-.165.883-.444 1.3-.839l.346.543c-.34.373-.79.663-1.35.872a4.968 4.968 0 01-1.744.313zm8.608 0c-.747 0-1.394-.17-1.943-.511-.548-.34-.97-.828-1.267-1.464-.296-.637-.444-1.394-.444-2.271 0-.889.148-1.646.444-2.272.307-.636.735-1.124 1.284-1.464.549-.34 1.19-.511 1.925-.511.78 0 1.443.203 1.992.609.56.406.927.966 1.103 1.679h-.198l.165-2.156h.674c-.032.307-.065.609-.098.905-.022.297-.033.587-.033.873V130h-.691v-2.156h.18c-.175.713-.542 1.273-1.102 1.679-.56.406-1.223.609-1.992.609zm0-.642c.9 0 1.612-.307 2.139-.922.527-.625.79-1.519.79-2.682s-.263-2.052-.79-2.667c-.527-.625-1.24-.938-2.14-.938-.9 0-1.618.313-2.155.938-.527.615-.79 1.504-.79 2.667 0 1.163.263 2.057.79 2.682.537.615 1.256.922 2.155.922zm6.5.51v-6.451c0-.286-.016-.576-.049-.873a27.64 27.64 0 00-.082-.905h.675l.148 1.975h-.198c.209-.68.554-1.201 1.037-1.563.483-.363 1.07-.544 1.761-.544.724 0 1.306.176 1.744.527.44.34.725.872.856 1.597h-.23a2.857 2.857 0 011.053-1.548c.527-.384 1.158-.576 1.893-.576.878 0 1.547.253 2.008.758.46.504.691 1.294.691 2.369V130h-.691v-5.168c0-.888-.16-1.536-.477-1.942-.319-.406-.834-.609-1.548-.609-.8 0-1.437.269-1.909.807-.46.537-.69 1.261-.69 2.172V130h-.692v-5.168c0-.888-.16-1.536-.477-1.942-.319-.406-.834-.609-1.547-.609-.801 0-1.432.269-1.893.807-.46.537-.691 1.261-.691 2.172V130h-.692zm14.16 0v-12.113h.691V130h-.691zm3.584 0v-8.229h.691V130h-.691zm-.181-10.385v-1.037h1.053v1.037h-1.053zM75.053 130v-6.451c0-.286-.016-.576-.05-.873a27.92 27.92 0 00-.082-.905h.675l.148 1.975h-.197c.23-.691.614-1.212 1.152-1.563.548-.363 1.19-.544 1.925-.544.977 0 1.712.253 2.206.758.504.504.757 1.294.757 2.369V130h-.691v-5.168c0-.888-.181-1.536-.543-1.942-.363-.406-.933-.609-1.712-.609-.889 0-1.597.269-2.123.807-.516.537-.774 1.261-.774 2.172V130h-.69zm12.776.132c-1.206 0-2.166-.368-2.88-1.103-.713-.746-1.07-1.783-1.07-3.111 0-.877.16-1.634.478-2.271a3.569 3.569 0 011.333-1.481c.581-.351 1.245-.527 1.991-.527.713 0 1.317.154 1.81.461.505.297.89.73 1.153 1.3.274.56.411 1.229.411 2.008v.445h-6.731v-.626h6.37l-.28.214c0-.987-.231-1.761-.692-2.32-.46-.571-1.146-.856-2.057-.856-.966 0-1.723.329-2.271.987-.538.659-.807 1.52-.807 2.584v.082c0 1.163.285 2.052.856 2.667.57.603 1.366.905 2.386.905.516 0 .999-.082 1.449-.247.45-.165.883-.444 1.3-.839l.346.543c-.34.373-.79.663-1.35.872a4.968 4.968 0 01-1.745.313zm9.3-5.942c0-1.228.197-2.282.592-3.159.406-.889.987-1.569 1.744-2.041.768-.483 1.695-.724 2.782-.724 1.053 0 1.964.241 2.732.724.768.472 1.36 1.152 1.777 2.041.417.877.626 1.925.626 3.143 0 1.229-.214 2.288-.642 3.176-.417.889-1.01 1.575-1.778 2.058-.768.482-1.673.724-2.715.724-1.076 0-1.997-.242-2.765-.724-.757-.483-1.339-1.169-1.745-2.058-.406-.888-.609-1.942-.609-3.16zm.74 0c0 1.657.373 2.952 1.12 3.884.745.922 1.831 1.383 3.258 1.383 1.371 0 2.446-.461 3.225-1.383.779-.921 1.169-2.216 1.169-3.884 0-1.667-.39-2.957-1.169-3.867-.768-.922-1.843-1.383-3.225-1.383-1.427 0-2.513.461-3.259 1.383-.746.91-1.12 2.2-1.12 3.867zm12.044 5.81v-6.353c0-.307-.011-.62-.033-.938a12.977 12.977 0 00-.066-.938h.675l.098 1.794-.148.016c.11-.438.307-.8.593-1.086a2.968 2.968 0 011.004-.642 3.258 3.258 0 011.514-.197c.131.011.252.033.362.066l-.033.642a1.779 1.779 0 00-.362-.066 4.377 4.377 0 00-.395-.017c-.505 0-.949.132-1.333.395a2.704 2.704 0 00-.873.955c-.208.373-.312.74-.312 1.103V130h-.691zm5.561 0v-8.229h.691V130h-.691zm-.181-10.385v-1.037h1.054v1.037h-1.054zm7.221 14.055c-.669 0-1.3-.099-1.892-.296a4.813 4.813 0 01-1.58-.856l.329-.56c.362.264.702.472 1.02.626.319.153.648.263.988.329a5.38 5.38 0 001.152.115c.856 0 1.503-.236 1.942-.707.45-.461.675-1.125.675-1.992v-2.814h.181c-.176.724-.549 1.289-1.119 1.695-.56.406-1.229.609-2.008.609-.757 0-1.416-.165-1.975-.494a3.457 3.457 0 01-1.284-1.432c-.296-.614-.444-1.338-.444-2.172 0-.834.148-1.553.444-2.156.307-.614.735-1.086 1.284-1.415.559-.34 1.218-.511 1.975-.511.779 0 1.448.203 2.008.609.57.406.943.977 1.119 1.712l-.181-.214.148-1.975h.675l-.099.905c-.022.297-.033.587-.033.873v6.665c0 1.141-.28 2.002-.839 2.584-.56.581-1.388.872-2.486.872zm-.329-4.493c.911 0 1.63-.302 2.156-.905.538-.614.807-1.465.807-2.551s-.269-1.931-.807-2.535c-.526-.603-1.245-.905-2.156-.905-.91 0-1.635.302-2.172.905-.538.604-.807 1.449-.807 2.535s.269 1.937.807 2.551c.537.603 1.262.905 2.172.905zm6.533.823v-8.229h.691V130h-.691zm-.181-10.385v-1.037h1.053v1.037h-1.053zM132.302 130v-6.451c0-.286-.017-.576-.05-.873a27.628 27.628 0 00-.082-.905h.675l.148 1.975h-.198c.231-.691.615-1.212 1.152-1.563.549-.363 1.191-.544 1.926-.544.977 0 1.712.253 2.205.758.505.504.757 1.294.757 2.369V130h-.691v-5.168c0-.888-.181-1.536-.543-1.942-.362-.406-.933-.609-1.712-.609-.888 0-1.596.269-2.123.807-.515.537-.773 1.261-.773 2.172V130h-.691zm12.48.132c-.746 0-1.394-.17-1.942-.511-.549-.34-.971-.828-1.267-1.464-.297-.637-.445-1.394-.445-2.271 0-.889.148-1.646.445-2.272.307-.636.735-1.124 1.283-1.464.549-.34 1.191-.511 1.926-.511.779 0 1.443.203 1.991.609.56.406.927.966 1.103 1.679h-.198l.165-2.156h.675l-.099.905c-.022.297-.033.587-.033.873V130h-.691v-2.156h.181c-.176.713-.543 1.273-1.103 1.679-.559.406-1.223.609-1.991.609zm0-.642c.9 0 1.613-.307 2.139-.922.527-.625.79-1.519.79-2.682s-.263-2.052-.79-2.667c-.526-.625-1.239-.938-2.139-.938-.9 0-1.619.313-2.156.938-.527.615-.79 1.504-.79 2.667 0 1.163.263 2.057.79 2.682.537.615 1.256.922 2.156.922zm8.904.642c-.67 0-1.185-.209-1.547-.626-.352-.428-.527-1.075-.527-1.942v-5.2h-1.646v-.593h1.646v-2.353l.691-.264v2.617h2.502v.593h-2.502v5.052c0 .724.11 1.251.329 1.58.231.329.598.494 1.103.494.219 0 .417-.022.592-.066.176-.044.324-.093.445-.148v.658a1.964 1.964 0 01-.494.132 2.713 2.713 0 01-.592.066zm2.933-.132v-8.229h.691V130h-.691zm-.181-10.385v-1.037h1.053v1.037h-1.053zm6.859 10.517c-.746 0-1.394-.17-1.942-.511-.549-.34-.971-.828-1.267-1.464-.297-.637-.445-1.394-.445-2.271 0-.878.148-1.635.445-2.272.296-.636.718-1.124 1.267-1.464.548-.34 1.196-.511 1.942-.511s1.393.171 1.942.511c.548.34.971.828 1.267 1.464.307.637.461 1.394.461 2.272 0 .877-.154 1.634-.461 2.271-.296.636-.719 1.124-1.267 1.464-.549.341-1.196.511-1.942.511zm0-.642c.899 0 1.618-.307 2.156-.922.537-.625.806-1.519.806-2.682s-.269-2.052-.806-2.667c-.538-.625-1.257-.938-2.156-.938-.9 0-1.619.313-2.156.938-.527.615-.79 1.504-.79 2.667 0 1.163.263 2.057.79 2.682.537.615 1.256.922 2.156.922zm6.003.51v-6.451c0-.286-.017-.576-.05-.873a27.628 27.628 0 00-.082-.905h.675l.148 1.975h-.198c.231-.691.615-1.212 1.152-1.563.549-.363 1.191-.544 1.926-.544.976 0 1.711.253 2.205.758.505.504.757 1.294.757 2.369V130h-.691v-5.168c0-.888-.181-1.536-.543-1.942-.362-.406-.933-.609-1.712-.609-.888 0-1.596.269-2.123.807-.515.537-.773 1.261-.773 2.172V130h-.691zM4.581 149.535a3.072 3.072 0 01-1.498-.378 3.037 3.037 0 01-1.102-1.07 2.821 2.821 0 01-.412-1.498c0-.504.127-.982.379-1.432.263-.449.62-.811 1.07-1.086.46-.285.982-.428 1.563-.428.538 0 1.032.132 1.481.395.45.253.812.598 1.087 1.037.285.439.427.944.427 1.514 0 .538-.137 1.032-.411 1.482a2.907 2.907 0 01-1.086 1.069c-.45.264-.95.395-1.498.395zM13.605 151l4.987-11.603h.674L24.352 151h-.757l-1.465-3.357.379.148h-7.193l.461-.148L14.346 151h-.741zm5.3-10.681l-2.947 6.929-.362-.099h6.633l-.264.099-3.028-6.929h-.033zm10.313 10.813c-.954 0-1.678-.258-2.172-.774-.494-.516-.74-1.306-.74-2.37v-5.217h.69v5.151c0 .889.182 1.542.544 1.959.362.406.921.609 1.678.609.845 0 1.52-.269 2.025-.807.505-.548.757-1.272.757-2.172v-4.74h.691V151h-.675v-2.008h.198c-.22.68-.598 1.207-1.136 1.58-.526.373-1.146.56-1.86.56zm8.765 0c-.67 0-1.185-.209-1.547-.626-.351-.428-.527-1.075-.527-1.942v-5.2h-1.645v-.593h1.645v-2.353l.691-.264v2.617h2.502v.593H36.6v5.052c0 .724.11 1.251.33 1.58.23.329.598.494 1.102.494.22 0 .417-.022.593-.066.175-.044.324-.093.444-.148v.658c-.12.055-.285.099-.494.132a2.717 2.717 0 01-.592.066zm5.947 0c-.746 0-1.394-.17-1.942-.511-.549-.34-.971-.828-1.267-1.464-.297-.637-.445-1.394-.445-2.271 0-.878.148-1.635.444-2.272.297-.636.72-1.124 1.268-1.464.548-.34 1.196-.511 1.942-.511s1.393.171 1.942.511c.548.34.97.828 1.267 1.464.307.637.46 1.394.46 2.272 0 .877-.153 1.634-.46 2.271-.296.636-.719 1.124-1.267 1.464-.549.341-1.196.511-1.942.511zm0-.642c.9 0 1.618-.307 2.156-.922.537-.625.806-1.519.806-2.682s-.269-2.052-.806-2.667c-.538-.625-1.257-.938-2.156-.938-.9 0-1.619.313-2.156.938-.527.615-.79 1.504-.79 2.667 0 1.163.263 2.057.79 2.682.537.615 1.256.922 2.156.922zm6.002.51v-6.451c0-.286-.016-.576-.049-.873a27.64 27.64 0 00-.082-.905h.675l.148 1.975h-.198c.209-.68.554-1.201 1.037-1.563.483-.363 1.07-.544 1.761-.544.724 0 1.306.176 1.745.527.438.34.724.872.855 1.597h-.23a2.857 2.857 0 011.053-1.548c.527-.384 1.158-.576 1.893-.576.878 0 1.547.253 2.008.758.46.504.691 1.294.691 2.369V151h-.691v-5.168c0-.888-.16-1.536-.477-1.942-.319-.406-.834-.609-1.548-.609-.8 0-1.437.269-1.909.807-.46.537-.69 1.261-.69 2.172V151h-.692v-5.168c0-.888-.16-1.536-.477-1.942-.319-.406-.834-.609-1.547-.609-.801 0-1.432.269-1.893.807-.46.537-.691 1.261-.691 2.172V151h-.692zm17.254.132c-.746 0-1.393-.17-1.942-.511-.549-.34-.971-.828-1.267-1.464-.296-.637-.445-1.394-.445-2.271 0-.889.149-1.646.445-2.272.307-.636.735-1.124 1.283-1.464.549-.34 1.19-.511 1.926-.511.779 0 1.443.203 1.991.609.56.406.927.966 1.103 1.679h-.197l.164-2.156h.675l-.099.905c-.022.297-.033.587-.033.873V151H70.1v-2.156h.181c-.175.713-.543 1.273-1.103 1.679-.56.406-1.223.609-1.991.609zm0-.642c.9 0 1.613-.307 2.14-.922.526-.625.79-1.519.79-2.682s-.264-2.052-.79-2.667c-.527-.625-1.24-.938-2.14-.938-.9 0-1.618.313-2.156.938-.527.615-.79 1.504-.79 2.667 0 1.163.263 2.057.79 2.682.538.615 1.256.922 2.156.922zm8.904.642c-.67 0-1.185-.209-1.547-.626-.351-.428-.527-1.075-.527-1.942v-5.2H72.37v-.593h1.646v-2.353l.691-.264v2.617h2.502v.593h-2.502v5.052c0 .724.11 1.251.33 1.58.23.329.597.494 1.102.494.22 0 .417-.022.593-.066.175-.044.323-.093.444-.148v.658c-.12.055-.285.099-.494.132a2.717 2.717 0 01-.592.066zm6.243 0c-1.207 0-2.167-.368-2.88-1.103-.713-.746-1.07-1.783-1.07-3.111 0-.877.159-1.634.477-2.271a3.57 3.57 0 011.333-1.481c.582-.351 1.246-.527 1.992-.527.713 0 1.316.154 1.81.461.505.297.889.73 1.152 1.3.274.56.411 1.229.411 2.008v.445h-6.73v-.626h6.368l-.28.214c0-.987-.23-1.761-.69-2.32-.461-.571-1.147-.856-2.058-.856-.965 0-1.722.329-2.27.987-.539.659-.807 1.52-.807 2.584v.082c0 1.163.285 2.052.855 2.667.571.603 1.366.905 2.387.905.516 0 .998-.082 1.448-.247.45-.165.883-.444 1.3-.839l.346.543c-.34.373-.79.663-1.35.872a4.967 4.967 0 01-1.744.313zm9.299-5.942c0-1.228.197-2.282.592-3.159.406-.889.988-1.569 1.745-2.041.768-.483 1.695-.724 2.781-.724 1.053 0 1.964.241 2.732.724.768.472 1.361 1.152 1.777 2.041.417.877.626 1.925.626 3.143 0 1.229-.214 2.288-.642 3.176-.417.889-1.009 1.575-1.777 2.058-.768.482-1.674.724-2.716.724-1.075 0-1.997-.242-2.765-.724-.757-.483-1.338-1.169-1.744-2.058-.406-.888-.61-1.942-.61-3.16zm.74 0c0 1.657.373 2.952 1.12 3.884.745.922 1.832 1.383 3.258 1.383 1.371 0 2.447-.461 3.226-1.383.779-.921 1.168-2.216 1.168-3.884 0-1.667-.389-2.957-1.168-3.867-.768-.922-1.844-1.383-3.226-1.383-1.426 0-2.513.461-3.259 1.383-.746.91-1.119 2.2-1.119 3.867zm12.406 5.81v-7.636h-1.646v-.593h1.811l-.165.181v-1.465c0-.844.203-1.497.609-1.958.417-.472 1.004-.708 1.761-.708.186 0 .384.022.592.066.209.033.373.077.494.132v.658a2.534 2.534 0 00-.461-.148 2.57 2.57 0 00-.592-.066c-.384 0-.708.082-.971.247a1.446 1.446 0 00-.56.724c-.12.307-.181.697-.181 1.169v1.399l-.131-.231h2.551v.593h-2.42V151h-.691zm4.95 0v-7.636h-1.646v-.593h1.811l-.165.181v-1.465c0-.844.203-1.497.609-1.958.417-.472 1.004-.708 1.761-.708.187 0 .384.022.593.066.208.033.373.077.493.132v.658a2.508 2.508 0 00-.461-.148 2.57 2.57 0 00-.592-.066c-.384 0-.708.082-.971.247a1.451 1.451 0 00-.56.724c-.12.307-.181.697-.181 1.169v1.399l-.131-.231h2.551v.593h-2.42V151h-.691zm7.931.132c-1.207 0-2.167-.368-2.88-1.103-.713-.746-1.07-1.783-1.07-3.111 0-.877.159-1.634.478-2.271a3.565 3.565 0 011.333-1.481c.581-.351 1.245-.527 1.991-.527.713 0 1.317.154 1.81.461.505.297.889.73 1.152 1.3.275.56.412 1.229.412 2.008v.445h-6.731v-.626h6.369l-.28.214c0-.987-.23-1.761-.691-2.32-.461-.571-1.147-.856-2.057-.856-.966 0-1.723.329-2.272.987-.537.659-.806 1.52-.806 2.584v.082c0 1.163.285 2.052.856 2.667.57.603 1.366.905 2.386.905.516 0 .999-.082 1.448-.247.45-.165.884-.444 1.301-.839l.345.543c-.34.373-.79.663-1.349.872a4.97 4.97 0 01-1.745.313zm5.481-.132v-6.353c0-.307-.011-.62-.033-.938a12.977 12.977 0 00-.066-.938h.675l.099 1.794-.149.016c.11-.438.308-.8.593-1.086a2.968 2.968 0 011.004-.642 3.258 3.258 0 011.514-.197c.132.011.252.033.362.066l-.033.642a1.766 1.766 0 00-.362-.066 4.36 4.36 0 00-.395-.017c-.505 0-.949.132-1.333.395a2.692 2.692 0 00-.872.955c-.209.373-.313.74-.313 1.103V151h-.691zm9.824 0v-11.603h.609l5.003 11.323h-.461l5.02-11.323h.592V151h-.641v-10.928h.395L138.642 151h-.576l-4.855-10.944h.395V151h-.642zm16.897.132c-.747 0-1.394-.17-1.942-.511-.549-.34-.971-.828-1.268-1.464-.296-.637-.444-1.394-.444-2.271 0-.889.148-1.646.444-2.272.308-.636.735-1.124 1.284-1.464.549-.34 1.19-.511 1.926-.511.779 0 1.442.203 1.991.609.56.406.927.966 1.103 1.679h-.198l.165-2.156h.674c-.032.307-.065.609-.098.905-.022.297-.033.587-.033.873V151h-.691v-2.156h.181c-.176.713-.543 1.273-1.103 1.679-.56.406-1.223.609-1.991.609zm0-.642c.899 0 1.612-.307 2.139-.922.527-.625.79-1.519.79-2.682s-.263-2.052-.79-2.667c-.527-.625-1.24-.938-2.139-.938-.9 0-1.619.313-2.156.938-.527.615-.79 1.504-.79 2.667 0 1.163.263 2.057.79 2.682.537.615 1.256.922 2.156.922zm6.501.51v-6.451c0-.286-.017-.576-.05-.873a27.628 27.628 0 00-.082-.905h.675l.148 1.975h-.198c.231-.691.615-1.212 1.152-1.563.549-.363 1.191-.544 1.926-.544.976 0 1.711.253 2.205.758.505.504.757 1.294.757 2.369V151h-.691v-5.168c0-.888-.181-1.536-.543-1.942-.362-.406-.933-.609-1.712-.609-.888 0-1.596.269-2.123.807-.515.537-.773 1.261-.773 2.172V151h-.691zm12.48.132c-.746 0-1.394-.17-1.942-.511-.549-.34-.971-.828-1.268-1.464-.296-.637-.444-1.394-.444-2.271 0-.889.148-1.646.444-2.272.308-.636.736-1.124 1.284-1.464.549-.34 1.191-.511 1.926-.511.779 0 1.442.203 1.991.609.56.406.927.966 1.103 1.679h-.198l.165-2.156h.675l-.099.905c-.022.297-.033.587-.033.873V151h-.691v-2.156h.181c-.176.713-.543 1.273-1.103 1.679-.56.406-1.223.609-1.991.609zm0-.642c.899 0 1.613-.307 2.139-.922.527-.625.79-1.519.79-2.682s-.263-2.052-.79-2.667c-.526-.625-1.24-.938-2.139-.938-.9 0-1.619.313-2.156.938-.527.615-.79 1.504-.79 2.667 0 1.163.263 2.057.79 2.682.537.615 1.256.922 2.156.922zm9.957 4.18c-.67 0-1.3-.099-1.893-.296a4.823 4.823 0 01-1.58-.856l.329-.56c.362.264.702.472 1.021.626.318.153.647.263.987.329a5.38 5.38 0 001.152.115c.856 0 1.503-.236 1.942-.707.45-.461.675-1.125.675-1.992v-2.814h.181c-.176.724-.549 1.289-1.119 1.695-.56.406-1.229.609-2.008.609-.757 0-1.415-.165-1.975-.494a3.47 3.47 0 01-1.284-1.432c-.296-.614-.444-1.338-.444-2.172 0-.834.148-1.553.444-2.156.308-.614.736-1.086 1.284-1.415.56-.34 1.218-.511 1.975-.511.779 0 1.448.203 2.008.609.57.406.943.977 1.119 1.712l-.181-.214.148-1.975h.675l-.099.905c-.022.297-.033.587-.033.873v6.665c0 1.141-.28 2.002-.839 2.584-.56.581-1.388.872-2.485.872zm-.329-4.493c.91 0 1.629-.302 2.156-.905.537-.614.806-1.465.806-2.551s-.269-1.931-.806-2.535c-.527-.603-1.246-.905-2.156-.905-.911 0-1.635.302-2.173.905-.537.604-.806 1.449-.806 2.535s.269 1.937.806 2.551c.538.603 1.262.905 2.173.905zm9.922.955c-1.207 0-2.167-.368-2.88-1.103-.713-.746-1.07-1.783-1.07-3.111 0-.877.159-1.634.478-2.271a3.565 3.565 0 011.333-1.481c.581-.351 1.245-.527 1.991-.527.713 0 1.317.154 1.81.461.505.297.889.73 1.152 1.3.275.56.412 1.229.412 2.008v.445h-6.731v-.626h6.369l-.28.214c0-.987-.23-1.761-.691-2.32-.461-.571-1.147-.856-2.057-.856-.966 0-1.723.329-2.272.987-.537.659-.806 1.52-.806 2.584v.082c0 1.163.285 2.052.856 2.667.57.603 1.366.905 2.386.905.516 0 .999-.082 1.448-.247.45-.165.884-.444 1.301-.839l.345.543c-.34.373-.79.663-1.349.872a4.97 4.97 0 01-1.745.313zm5.514-.132v-6.451c0-.286-.017-.576-.05-.873a27.628 27.628 0 00-.082-.905h.675l.148 1.975h-.197c.208-.68.554-1.201 1.036-1.563.483-.363 1.07-.544 1.761-.544.724 0 1.306.176 1.745.527.439.34.724.872.856 1.597h-.231a2.858 2.858 0 011.054-1.548c.526-.384 1.157-.576 1.892-.576.878 0 1.547.253 2.008.758.461.504.691 1.294.691 2.369V151h-.691v-5.168c0-.888-.159-1.536-.477-1.942-.318-.406-.834-.609-1.547-.609-.801 0-1.438.269-1.909.807-.461.537-.692 1.261-.692 2.172V151h-.691v-5.168c0-.888-.159-1.536-.477-1.942-.318-.406-.834-.609-1.547-.609-.801 0-1.432.269-1.893.807-.461.537-.691 1.261-.691 2.172V151h-.691zm17.55.132c-1.207 0-2.167-.368-2.881-1.103-.713-.746-1.069-1.783-1.069-3.111 0-.877.159-1.634.477-2.271a3.571 3.571 0 011.333-1.481c.582-.351 1.245-.527 1.991-.527.714 0 1.317.154 1.811.461.505.297.889.73 1.152 1.3.274.56.411 1.229.411 2.008v.445h-6.731v-.626h6.369l-.28.214c0-.987-.23-1.761-.691-2.32-.461-.571-1.146-.856-2.057-.856-.966 0-1.723.329-2.271.987-.538.659-.807 1.52-.807 2.584v.082c0 1.163.286 2.052.856 2.667.571.603 1.366.905 2.387.905.515 0 .998-.082 1.448-.247.45-.165.883-.444 1.3-.839l.346.543c-.34.373-.79.663-1.35.872a4.964 4.964 0 01-1.744.313zm5.513-.132v-6.451c0-.286-.016-.576-.049-.873-.022-.296-.05-.598-.082-.905h.674l.148 1.975h-.197c.23-.691.614-1.212 1.152-1.563.549-.363 1.19-.544 1.926-.544.976 0 1.711.253 2.205.758.505.504.757 1.294.757 2.369V151h-.691v-5.168c0-.888-.181-1.536-.543-1.942-.362-.406-.933-.609-1.712-.609-.889 0-1.596.269-2.123.807-.516.537-.774 1.261-.774 2.172V151h-.691zm11.789.132c-.669 0-1.185-.209-1.547-.626-.351-.428-.527-1.075-.527-1.942v-5.2h-1.645v-.593h1.645v-2.353l.692-.264v2.617h2.501v.593h-2.501v5.052c0 .724.109 1.251.329 1.58.23.329.598.494 1.102.494.22 0 .417-.022.593-.066.175-.044.324-.093.444-.148v.658c-.12.055-.285.099-.493.132a2.722 2.722 0 01-.593.066zM4.581 170.535a3.072 3.072 0 01-1.498-.378 3.037 3.037 0 01-1.102-1.07 2.821 2.821 0 01-.412-1.498c0-.504.127-.982.379-1.432.263-.449.62-.811 1.07-1.086.46-.285.982-.428 1.563-.428.538 0 1.032.132 1.481.395.45.253.812.598 1.087 1.037.285.439.427.944.427 1.514 0 .538-.137 1.032-.411 1.482a2.907 2.907 0 01-1.086 1.069c-.45.264-.95.395-1.498.395zM14.641 172v-11.603h.692V172h-.691zm3.742 0v-6.451c0-.286-.016-.576-.05-.873a27.92 27.92 0 00-.082-.905h.675l.148 1.975h-.197c.23-.691.614-1.212 1.152-1.563.548-.363 1.19-.544 1.925-.544.977 0 1.712.253 2.206.758.504.504.757 1.294.757 2.369V172h-.691v-5.168c0-.888-.181-1.536-.543-1.942-.363-.406-.933-.609-1.712-.609-.889 0-1.597.269-2.123.807-.516.537-.774 1.261-.774 2.172V172h-.69zm11.789.132c-.67 0-1.185-.209-1.547-.626-.351-.428-.527-1.075-.527-1.942v-5.2h-1.645v-.593h1.645v-2.353l.692-.264v2.617h2.501v.593H28.79v5.052c0 .724.11 1.251.33 1.58.23.329.598.494 1.102.494.22 0 .417-.022.593-.066.175-.044.323-.093.444-.148v.658c-.12.055-.285.099-.494.132a2.716 2.716 0 01-.592.066zm6.243 0c-1.207 0-2.167-.368-2.88-1.103-.713-.746-1.07-1.783-1.07-3.111 0-.877.16-1.634.477-2.271a3.569 3.569 0 011.334-1.481c.581-.351 1.245-.527 1.99-.527.714 0 1.318.154 1.811.461.505.297.889.73 1.152 1.3.275.56.412 1.229.412 2.008v.445H32.91v-.626h6.369l-.28.214c0-.987-.23-1.761-.691-2.32-.461-.571-1.147-.856-2.058-.856-.965 0-1.722.329-2.27.987-.538.659-.807 1.52-.807 2.584v.082c0 1.163.285 2.052.856 2.667.57.603 1.366.905 2.386.905.516 0 .998-.082 1.448-.247.45-.165.883-.444 1.3-.839l.346.543c-.34.373-.79.663-1.35.872a4.968 4.968 0 01-1.744.313zm8.97 3.538c-.67 0-1.3-.099-1.893-.296a4.816 4.816 0 01-1.58-.856l.33-.56c.361.264.702.472 1.02.626.318.153.647.263.987.329.351.077.735.115 1.152.115.856 0 1.503-.236 1.942-.707.45-.461.675-1.125.675-1.992v-2.814h.181c-.175.724-.549 1.289-1.12 1.695-.559.406-1.228.609-2.007.609-.757 0-1.415-.165-1.975-.494a3.46 3.46 0 01-1.284-1.432c-.296-.614-.444-1.338-.444-2.172 0-.834.148-1.553.444-2.156.308-.614.735-1.086 1.284-1.415.56-.34 1.218-.511 1.975-.511.779 0 1.448.203 2.008.609.57.406.944.977 1.119 1.712l-.181-.214.148-1.975h.675l-.099.905c-.022.297-.033.587-.033.873v6.665c0 1.141-.28 2.002-.84 2.584-.559.581-1.387.872-2.484.872zm-.33-4.493c.911 0 1.63-.302 2.157-.905.537-.614.806-1.465.806-2.551s-.269-1.931-.806-2.535c-.527-.603-1.246-.905-2.156-.905-.911 0-1.635.302-2.173.905-.538.604-.806 1.449-.806 2.535s.269 1.937.806 2.551c.538.603 1.262.905 2.173.905zm6.5.823v-6.353c0-.307-.011-.62-.033-.938a13.035 13.035 0 00-.066-.938h.675l.099 1.794-.148.016c.11-.438.307-.8.592-1.086a2.97 2.97 0 011.004-.642 3.261 3.261 0 011.514-.197c.132.011.252.033.362.066l-.033.642a1.767 1.767 0 00-.362-.066 4.36 4.36 0 00-.395-.017c-.505 0-.949.132-1.333.395a2.696 2.696 0 00-.872.955c-.209.373-.313.74-.313 1.103V172h-.691zm8.575.132c-.746 0-1.393-.17-1.942-.511-.548-.34-.97-.828-1.267-1.464-.296-.637-.444-1.394-.444-2.271 0-.889.148-1.646.444-2.272.307-.636.735-1.124 1.284-1.464.548-.34 1.19-.511 1.925-.511.78 0 1.443.203 1.992.609.56.406.927.966 1.102 1.679h-.197l.164-2.156h.675l-.099.905c-.021.297-.032.587-.032.873V172h-.692v-2.156h.181c-.175.713-.543 1.273-1.102 1.679-.56.406-1.224.609-1.992.609zm0-.642c.9 0 1.613-.307 2.14-.922.526-.625.79-1.519.79-2.682s-.264-2.052-.79-2.667c-.527-.625-1.24-.938-2.14-.938-.9 0-1.618.313-2.156.938-.526.615-.79 1.504-.79 2.667 0 1.163.264 2.057.79 2.682.538.615 1.257.922 2.156.922zm8.904.642c-.67 0-1.185-.209-1.547-.626-.351-.428-.526-1.075-.526-1.942v-5.2h-1.646v-.593h1.645v-2.353l.692-.264v2.617h2.501v.593h-2.501v5.052c0 .724.11 1.251.329 1.58.23.329.598.494 1.103.494.219 0 .416-.022.592-.066.176-.044.324-.093.444-.148v.658c-.12.055-.285.099-.493.132a2.717 2.717 0 01-.593.066zm6.243 0c-1.207 0-2.167-.368-2.88-1.103-.713-.746-1.07-1.783-1.07-3.111 0-.877.16-1.634.478-2.271a3.569 3.569 0 011.333-1.481c.581-.351 1.245-.527 1.991-.527.713 0 1.317.154 1.81.461.505.297.89.73 1.153 1.3.274.56.41 1.229.41 2.008v.445h-6.73v-.626h6.369l-.28.214c0-.987-.23-1.761-.691-2.32-.461-.571-1.147-.856-2.057-.856-.966 0-1.723.329-2.272.987-.537.659-.806 1.52-.806 2.584v.082c0 1.163.285 2.052.856 2.667.57.603 1.366.905 2.386.905.516 0 .999-.082 1.448-.247.45-.165.884-.444 1.3-.839l.346.543c-.34.373-.79.663-1.35.872a4.968 4.968 0 01-1.744.313zm8.575 0c-.735 0-1.377-.17-1.926-.511-.537-.34-.954-.828-1.25-1.464-.297-.637-.445-1.394-.445-2.271 0-.889.148-1.646.445-2.272.296-.636.713-1.124 1.25-1.464.549-.34 1.19-.511 1.926-.511.779 0 1.448.203 2.008.609.56.406.932.966 1.119 1.679h-.181v-6.04h.691V172h-.691v-2.156h.18c-.186.713-.559 1.273-1.118 1.679-.56.406-1.23.609-2.008.609zm.016-.642c.89 0 1.602-.307 2.14-.922.538-.625.806-1.519.806-2.682s-.268-2.052-.806-2.667c-.538-.625-1.25-.938-2.14-.938-.9 0-1.612.313-2.14.938-.526.615-.79 1.504-.79 2.667 0 1.163.264 2.057.79 2.682.528.615 1.24.922 2.14.922zm13.66.51v-10.961h-4.312v-.642h9.316v.642H98.22V172h-.692zm8.833.132c-1.207 0-2.167-.368-2.881-1.103-.713-.746-1.069-1.783-1.069-3.111 0-.877.159-1.634.477-2.271a3.565 3.565 0 011.333-1.481c.582-.351 1.245-.527 1.991-.527.714 0 1.317.154 1.811.461.504.297.888.73 1.152 1.3.274.56.411 1.229.411 2.008v.445h-6.731v-.626h6.369l-.28.214c0-.987-.23-1.761-.691-2.32-.461-.571-1.146-.856-2.057-.856-.966 0-1.723.329-2.271.987-.538.659-.807 1.52-.807 2.584v.082c0 1.163.286 2.052.856 2.667.571.603 1.366.905 2.387.905.515 0 .998-.082 1.448-.247.45-.165.883-.444 1.3-.839l.346.543c-.341.373-.79.663-1.35.872a4.969 4.969 0 01-1.744.313zm8.689 0c-.768 0-1.431-.17-1.991-.511-.559-.351-.993-.85-1.3-1.497-.296-.648-.444-1.416-.444-2.304 0-.889.153-1.646.46-2.271.308-.626.741-1.098 1.301-1.416.559-.329 1.217-.494 1.974-.494.516 0 1.01.105 1.482.313.482.198.883.477 1.201.839l-.346.527a3.333 3.333 0 00-1.135-.79 3.232 3.232 0 00-1.218-.247c-.944 0-1.684.308-2.222.922-.526.603-.79 1.481-.79 2.633 0 1.163.264 2.063.79 2.699.538.637 1.278.955 2.222.955a3.33 3.33 0 001.185-.231 3.336 3.336 0 001.168-.806l.346.527a3.2 3.2 0 01-1.234.855 3.795 3.795 0 01-1.449.297zm4.844-.132v-12.113h.691v5.876h-.197c.219-.703.609-1.229 1.168-1.58.56-.363 1.207-.544 1.942-.544.999 0 1.734.258 2.206.774.482.516.724 1.289.724 2.321V172h-.691v-5.201c0-.877-.176-1.514-.527-1.909-.351-.406-.922-.609-1.712-.609-.877 0-1.585.269-2.123.807-.526.537-.79 1.251-.79 2.139V172h-.691zm9.386 0v-6.451c0-.286-.016-.576-.049-.873a27.67 27.67 0 00-.083-.905h.675l.148 1.975h-.197c.23-.691.614-1.212 1.152-1.563.549-.363 1.19-.544 1.925-.544.977 0 1.712.253 2.206.758.505.504.757 1.294.757 2.369V172h-.691v-5.168c0-.888-.181-1.536-.543-1.942-.363-.406-.933-.609-1.712-.609-.889 0-1.596.269-2.123.807-.516.537-.774 1.261-.774 2.172V172h-.691zm12.48.132c-.746 0-1.393-.17-1.942-.511-.548-.34-.971-.828-1.267-1.464-.296-.637-.444-1.394-.444-2.271 0-.878.148-1.635.444-2.272.296-.636.719-1.124 1.267-1.464.549-.34 1.196-.511 1.942-.511s1.394.171 1.942.511c.549.34.971.828 1.268 1.464.307.637.46 1.394.46 2.272 0 .877-.153 1.634-.46 2.271-.297.636-.719 1.124-1.268 1.464-.548.341-1.196.511-1.942.511zm0-.642c.9 0 1.619-.307 2.156-.922.538-.625.807-1.519.807-2.682s-.269-2.052-.807-2.667c-.537-.625-1.256-.938-2.156-.938-.899 0-1.618.313-2.156.938-.526.615-.79 1.504-.79 2.667 0 1.163.264 2.057.79 2.682.538.615 1.257.922 2.156.922zm6.003.51v-12.113h.691V172h-.691zm6.678.132c-.746 0-1.393-.17-1.942-.511-.549-.34-.971-.828-1.267-1.464-.296-.637-.445-1.394-.445-2.271 0-.878.149-1.635.445-2.272.296-.636.718-1.124 1.267-1.464.549-.34 1.196-.511 1.942-.511s1.394.171 1.942.511c.549.34.971.828 1.267 1.464.308.637.461 1.394.461 2.272 0 .877-.153 1.634-.461 2.271-.296.636-.718 1.124-1.267 1.464-.548.341-1.196.511-1.942.511zm0-.642c.9 0 1.618-.307 2.156-.922.538-.625.807-1.519.807-2.682s-.269-2.052-.807-2.667c-.538-.625-1.256-.938-2.156-.938-.9 0-1.618.313-2.156.938-.527.615-.79 1.504-.79 2.667 0 1.163.263 2.057.79 2.682.538.615 1.256.922 2.156.922zm9.459 4.18c-.669 0-1.3-.099-1.893-.296a4.823 4.823 0 01-1.58-.856l.33-.56c.362.264.702.472 1.02.626.318.153.647.263.987.329a5.38 5.38 0 001.152.115c.856 0 1.504-.236 1.942-.707.45-.461.675-1.125.675-1.992v-2.814h.181c-.175.724-.548 1.289-1.119 1.695-.559.406-1.229.609-2.008.609-.757 0-1.415-.165-1.975-.494a3.462 3.462 0 01-1.283-1.432c-.297-.614-.445-1.338-.445-2.172 0-.834.148-1.553.445-2.156.307-.614.735-1.086 1.283-1.415.56-.34 1.218-.511 1.975-.511.779 0 1.449.203 2.008.609.571.406.944.977 1.119 1.712l-.181-.214.148-1.975h.675l-.099.905c-.022.297-.033.587-.033.873v6.665c0 1.141-.279 2.002-.839 2.584-.559.581-1.388.872-2.485.872zm-.329-4.493c.91 0 1.629-.302 2.156-.905.537-.614.806-1.465.806-2.551s-.269-1.931-.806-2.535c-.527-.603-1.246-.905-2.156-.905-.911 0-1.635.302-2.173.905-.537.604-.806 1.449-.806 2.535s.269 1.937.806 2.551c.538.603 1.262.905 2.173.905zm6.071 4.559l-.164-.642c.515-.121.938-.274 1.267-.461.34-.175.625-.406.856-.691.23-.285.439-.642.625-1.07l.428-.987-.016.345-3.588-8.459h.79l3.308 7.966h-.379l3.259-7.966h.79l-3.835 9.118a5.885 5.885 0 01-.642 1.185c-.23.329-.482.603-.757.823a3.267 3.267 0 01-.888.526c-.319.132-.67.236-1.054.313zM2.64 201.075c-.47 0-.89-.061-1.262-.183a2.985 2.985 0 01-.971-.523l.249-.548c.194.144.388.266.581.365.2.094.413.166.64.216.227.044.481.067.764.067.492 0 .858-.092 1.096-.274a.876.876 0 00.357-.731c0-.26-.083-.46-.25-.598-.165-.138-.456-.249-.871-.332l-.872-.175c-.537-.11-.938-.29-1.204-.539-.26-.249-.39-.587-.39-1.013 0-.349.088-.654.265-.914a1.79 1.79 0 01.764-.606 2.798 2.798 0 011.138-.216c.415 0 .794.064 1.137.191.344.122.637.302.88.54l-.24.531a2.441 2.441 0 00-.822-.498 2.75 2.75 0 00-.963-.158c-.454 0-.814.1-1.08.299a.94.94 0 00-.39.797c0 .272.083.485.249.64.166.149.44.263.822.34l.88.175c.565.116.98.29 1.246.523.265.232.398.559.398.98 0 .321-.088.606-.265.855a1.671 1.671 0 01-.74.581c-.32.139-.703.208-1.145.208zm4.651 0c-.41 0-.722-.117-.938-.349-.216-.238-.324-.595-.324-1.071v-2.3h-.813v-.523h.813v-1.138l.673-.191v1.329h1.196v.523H6.702v2.225c0 .332.055.57.166.714.116.139.288.208.515.208.105 0 .2-.009.282-.025.083-.022.158-.047.224-.075v.565a1.184 1.184 0 01-.282.075c-.105.022-.21.033-.316.033zm3.095 0c-.398 0-.747-.086-1.046-.258a1.781 1.781 0 01-.68-.747c-.161-.327-.241-.711-.241-1.154 0-.449.08-.833.24-1.154.16-.322.388-.568.681-.74a2.015 2.015 0 011.046-.265c.405 0 .753.088 1.047.265.299.172.528.418.689.74.166.321.25.705.25 1.154 0 .443-.084.827-.25 1.154-.16.321-.39.57-.69.747-.293.172-.641.258-1.046.258zm0-.548c.4 0 .715-.136.947-.407.233-.277.349-.678.349-1.204 0-.532-.12-.933-.357-1.204-.233-.277-.545-.415-.938-.415-.394 0-.706.138-.939.415-.232.271-.349.672-.349 1.204 0 .526.117.927.35 1.204.232.271.544.407.938.407zm3.034.473v-3.205a4.62 4.62 0 00-.025-.474 13.408 13.408 0 00-.042-.489h.648l.083.913h-.1c.122-.321.316-.565.582-.731.271-.171.584-.257.938-.257.493 0 .864.133 1.113.398.254.261.382.673.382 1.238V201h-.673v-2.566c0-.393-.08-.678-.24-.855-.156-.183-.4-.274-.731-.274-.388 0-.695.119-.922.357-.227.238-.34.556-.34.955V201h-.673zm6.717.075c-.653 0-1.168-.188-1.544-.565-.377-.382-.565-.911-.565-1.586 0-.437.083-.816.249-1.138.166-.326.398-.578.697-.755a1.932 1.932 0 011.03-.274c.382 0 .703.08.963.241.26.16.46.39.598.689.139.293.208.642.208 1.046v.249h-3.23v-.423h2.79l-.141.108c0-.443-.1-.789-.3-1.038-.199-.249-.495-.374-.888-.374-.415 0-.739.147-.971.44-.233.288-.35.678-.35 1.171v.075c0 .52.128.916.383 1.187.26.266.623.399 1.088.399.249 0 .481-.036.697-.108.222-.078.432-.202.631-.374l.233.473a1.882 1.882 0 01-.698.416c-.277.094-.57.141-.88.141zm2.74-.075v-5.854h.689v2.591h3.53v-2.591h.68V201h-.68v-2.674h-3.53V201h-.69zm8.134.075c-.653 0-1.168-.188-1.544-.565-.377-.382-.565-.911-.565-1.586 0-.437.083-.816.25-1.138a1.81 1.81 0 01.697-.755 1.932 1.932 0 011.03-.274c.381 0 .703.08.963.241.26.16.46.39.598.689.138.293.207.642.207 1.046v.249h-3.23v-.423h2.79l-.141.108c0-.443-.1-.789-.299-1.038-.2-.249-.495-.374-.889-.374-.415 0-.738.147-.971.44-.233.288-.349.678-.349 1.171v.075c0 .52.128.916.382 1.187.26.266.623.399 1.088.399.25 0 .482-.036.698-.108.22-.078.431-.202.63-.374l.233.473a1.882 1.882 0 01-.697.416c-.277.094-.57.141-.88.141zm4.243 0c-.365 0-.686-.086-.963-.258a1.783 1.783 0 01-.648-.747c-.15-.321-.224-.706-.224-1.154 0-.454.075-.842.224-1.163a1.73 1.73 0 01.648-.739c.277-.171.598-.257.963-.257.377 0 .7.094.972.282.276.188.462.443.556.764h-.1v-2.915h.673V201h-.664v-.996h.091a1.357 1.357 0 01-.548.788 1.695 1.695 0 01-.98.283zm.141-.548c.393 0 .709-.136.947-.407.238-.277.357-.678.357-1.204 0-.532-.119-.933-.357-1.204-.238-.277-.554-.415-.947-.415-.393 0-.708.138-.946.415-.233.271-.35.672-.35 1.204 0 .526.117.927.35 1.204.238.271.553.407.946.407zm5.096 2.325c-.36 0-.692-.045-.997-.133a2.542 2.542 0 01-.822-.407l.2-.507c.17.122.34.219.506.291.166.072.337.125.515.158.177.039.365.058.564.058.41 0 .72-.108.93-.324.21-.216.316-.523.316-.922v-1.22h.083a1.357 1.357 0 01-.548.78 1.68 1.68 0 01-.972.283 1.93 1.93 0 01-.996-.249 1.752 1.752 0 01-.648-.723c-.15-.315-.224-.686-.224-1.113 0-.42.075-.786.224-1.096.155-.31.371-.548.648-.714.282-.171.614-.257.996-.257.377 0 .7.094.972.282.277.188.46.449.548.781l-.083-.083.075-.905h.656a6.974 6.974 0 00-.067.963v3.18c0 .62-.16 1.088-.481 1.403-.316.316-.781.474-1.395.474zm-.1-2.491c.404 0 .722-.133.955-.399.232-.271.349-.65.349-1.138 0-.487-.117-.863-.35-1.129-.232-.266-.55-.398-.954-.398-.399 0-.717.132-.955.398s-.357.642-.357 1.129c0 .488.119.867.357 1.138.238.266.556.399.955.399zm5.12.714c-.654 0-1.169-.188-1.545-.565-.376-.382-.565-.911-.565-1.586 0-.437.083-.816.25-1.138.165-.326.398-.578.697-.755a1.932 1.932 0 011.03-.274c.382 0 .703.08.963.241.26.16.46.39.598.689.138.293.207.642.207 1.046v.249h-3.23v-.423h2.79l-.14.108c0-.443-.1-.789-.3-1.038-.2-.249-.495-.374-.888-.374-.416 0-.74.147-.972.44-.232.288-.349.678-.349 1.171v.075c0 .52.128.916.382 1.187.26.266.623.399 1.088.399.25 0 .482-.036.698-.108.221-.078.431-.202.63-.374l.233.473a1.882 1.882 0 01-.697.416c-.277.094-.57.141-.88.141zm4.83-.075v-4.168h.672V201h-.672zm-.083-5.115v-.756h.83v.756h-.83zm3.448 5.19c-.332 0-.642-.045-.93-.133a2.006 2.006 0 01-.714-.39l.232-.474c.205.161.427.28.665.357.243.078.495.117.755.117.333 0 .582-.059.748-.175a.58.58 0 00.257-.498.474.474 0 00-.166-.382c-.105-.1-.28-.177-.523-.232l-.772-.158c-.355-.078-.62-.208-.797-.391a1 1 0 01-.266-.714c0-.243.063-.456.19-.639.128-.188.314-.335.557-.44.244-.111.529-.166.855-.166.305 0 .584.047.84.141.26.089.475.219.647.39l-.241.465a1.602 1.602 0 00-.573-.357 1.771 1.771 0 00-.656-.124c-.327 0-.573.066-.739.199a.613.613 0 00-.24.506c0 .161.049.294.149.399.105.1.265.174.481.224l.772.158c.377.083.657.213.84.39.187.172.282.404.282.698 0 .249-.07.468-.208.656a1.325 1.325 0 01-.581.423c-.244.1-.532.15-.864.15zm6.484 0c-.371 0-.695-.086-.972-.258a1.783 1.783 0 01-.647-.747c-.15-.321-.224-.706-.224-1.154 0-.454.074-.842.224-1.163a1.73 1.73 0 01.647-.739c.277-.171.601-.257.972-.257.376 0 .7.097.971.29.277.189.46.446.548.773h-.1l.092-.988h.648l-.05.489a6.891 6.891 0 00-.017.474V201h-.672v-.98h.091a1.321 1.321 0 01-.548.772 1.666 1.666 0 01-.963.283zm.133-.548c.398 0 .714-.136.946-.407.233-.277.35-.678.35-1.204 0-.532-.117-.933-.35-1.204-.232-.277-.548-.415-.946-.415-.393 0-.709.138-.947.415-.232.271-.349.672-.349 1.204 0 .526.117.927.35 1.204.237.271.553.407.946.407zm5.425 2.267v-4.999c0-.155-.008-.313-.025-.474a13.188 13.188 0 00-.041-.489h.647l.092.988h-.1c.089-.327.269-.584.54-.773.271-.193.595-.29.971-.29.377 0 .7.086.972.257.277.172.492.418.647.739.156.321.233.709.233 1.163 0 .448-.078.833-.233 1.154-.149.321-.362.57-.639.747a1.818 1.818 0 01-.98.258c-.37 0-.692-.094-.963-.283a1.332 1.332 0 01-.54-.772h.092v2.774h-.673zm1.951-2.267c.399 0 .715-.136.947-.407.238-.277.357-.678.357-1.204 0-.532-.119-.933-.357-1.204-.232-.277-.548-.415-.947-.415-.393 0-.708.138-.946.415-.233.271-.349.672-.349 1.204 0 .526.116.927.349 1.204.238.271.553.407.946.407zm3.011.473v-3.164a7.89 7.89 0 00-.016-.506 7.052 7.052 0 00-.033-.498h.647l.083 1.013-.116.008c.055-.249.152-.454.29-.615.14-.16.303-.279.49-.357.189-.083.385-.124.59-.124.083 0 .155.003.216.008a.617.617 0 01.183.042l-.008.597a.979.979 0 00-.233-.049 1.434 1.434 0 00-.233-.017c-.243 0-.456.058-.639.174a1.176 1.176 0 00-.407.449 1.316 1.316 0 00-.133.581V201h-.68zm4.696.075c-.399 0-.748-.086-1.047-.258a1.781 1.781 0 01-.68-.747c-.161-.327-.241-.711-.241-1.154 0-.449.08-.833.24-1.154.161-.322.388-.568.681-.74a2.015 2.015 0 011.047-.265c.404 0 .752.088 1.046.265.299.172.529.418.69.74.165.321.248.705.248 1.154 0 .443-.083.827-.249 1.154-.16.321-.39.57-.69.747-.292.172-.641.258-1.045.258zm0-.548c.398 0 .714-.136.946-.407.233-.277.349-.678.349-1.204 0-.532-.119-.933-.357-1.204-.233-.277-.545-.415-.938-.415-.393 0-.706.138-.939.415-.232.271-.349.672-.349 1.204 0 .526.117.927.35 1.204.232.271.545.407.938.407zm4.61.548c-.365 0-.686-.086-.963-.258a1.783 1.783 0 01-.647-.747c-.15-.321-.225-.706-.225-1.154 0-.454.075-.842.225-1.163a1.73 1.73 0 01.647-.739c.277-.171.598-.257.964-.257.376 0 .7.094.971.282.277.188.462.443.556.764h-.1v-2.915h.673V201h-.664v-.996h.091a1.357 1.357 0 01-.548.788 1.695 1.695 0 01-.98.283zm.142-.548c.393 0 .708-.136.946-.407.238-.277.357-.678.357-1.204 0-.532-.119-.933-.357-1.204-.238-.277-.553-.415-.946-.415-.393 0-.709.138-.947.415-.232.271-.349.672-.349 1.204 0 .526.117.927.35 1.204.237.271.553.407.946.407zm4.73.548c-.493 0-.867-.136-1.121-.407-.25-.271-.374-.687-.374-1.246v-2.59h.673v2.574c0 .382.077.664.232.847.155.177.396.265.722.265.366 0 .66-.119.88-.357.222-.238.333-.556.333-.955v-2.374h.672V201h-.656v-.938h.108c-.116.321-.304.57-.564.747a1.546 1.546 0 01-.905.266zm5.075 0c-.41 0-.767-.089-1.072-.266a1.806 1.806 0 01-.697-.756c-.16-.326-.241-.714-.241-1.162 0-.454.083-.839.25-1.154.165-.321.398-.565.697-.731a2.186 2.186 0 011.063-.249c.265 0 .523.047.772.141.254.094.465.227.63.399l-.24.481a1.659 1.659 0 00-1.121-.473c-.432 0-.767.135-1.005.407-.238.271-.357.667-.357 1.187 0 .515.12.914.357 1.196.238.282.573.423 1.005.423a1.616 1.616 0 001.121-.465l.24.474a1.703 1.703 0 01-.639.407c-.254.094-.509.141-.763.141zm3.837 0c-.41 0-.723-.117-.938-.349-.216-.238-.324-.595-.324-1.071v-2.3h-.814v-.523h.814v-1.138l.672-.191v1.329h1.196v.523H93.21v2.225c0 .332.056.57.166.714.117.139.288.208.515.208.105 0 .2-.009.282-.025.084-.022.158-.047.225-.075v.565a1.185 1.185 0 01-.283.075c-.105.022-.21.033-.315.033zm5.683 0c-.377 0-.7-.094-.972-.283a1.408 1.408 0 01-.548-.788h.091V201h-.664v-6.112h.672v2.915h-.1c.095-.321.278-.576.549-.764.271-.188.595-.282.972-.282.376 0 .7.088.971.265.277.172.49.418.639.74.155.321.233.705.233 1.154 0 .448-.078.833-.233 1.154a1.78 1.78 0 01-.647.747 1.763 1.763 0 01-.963.258zm-.142-.548c.393 0 .709-.136.947-.407.238-.271.357-.673.357-1.204 0-.532-.119-.933-.357-1.204-.238-.277-.554-.415-.947-.415-.393 0-.708.138-.946.415-.233.271-.35.672-.35 1.204 0 .526.117.927.35 1.204.238.271.553.407.946.407zm2.805 2.358l-.158-.556a3.16 3.16 0 00.648-.216c.177-.078.324-.183.44-.316.116-.133.216-.299.299-.498l.216-.49-.017.282-1.818-4.259h.731l1.503 3.661h-.216l1.486-3.661h.706l-1.927 4.517c-.11.265-.232.487-.365.664a1.925 1.925 0 01-.432.44 1.8 1.8 0 01-.498.274 3.596 3.596 0 01-.598.158zm8.727-1.81c-.47 0-.891-.061-1.262-.183a2.973 2.973 0 01-.971-.523l.249-.548c.193.144.387.266.581.365.199.094.412.166.639.216.227.044.482.067.764.067.493 0 .858-.092 1.096-.274a.876.876 0 00.357-.731c0-.26-.083-.46-.249-.598-.166-.138-.456-.249-.872-.332l-.871-.175c-.537-.11-.939-.29-1.205-.539-.26-.249-.39-.587-.39-1.013 0-.349.089-.654.266-.914a1.79 1.79 0 01.764-.606 2.796 2.796 0 011.137-.216c.416 0 .795.064 1.138.191.343.122.637.302.88.54l-.24.531a2.451 2.451 0 00-.823-.498 2.747 2.747 0 00-.963-.158c-.454 0-.814.1-1.079.299a.942.942 0 00-.391.797c0 .272.083.485.25.64.166.149.44.263.822.34l.88.175c.564.116.98.29 1.245.523.266.232.399.559.399.98 0 .321-.089.606-.266.855a1.668 1.668 0 01-.739.581c-.321.139-.703.208-1.146.208zm4.651 0c-.409 0-.722-.117-.938-.349-.216-.238-.324-.595-.324-1.071v-2.3h-.814v-.523h.814v-1.138l.673-.191v1.329h1.195v.523h-1.195v2.225c0 .332.055.57.166.714.116.139.288.208.515.208.105 0 .199-.009.282-.025.083-.022.158-.047.224-.075v.565a1.184 1.184 0 01-.282.075 1.542 1.542 0 01-.316.033zm3.095 0c-.398 0-.747-.086-1.046-.258a1.787 1.787 0 01-.681-.747c-.161-.327-.241-.711-.241-1.154 0-.449.08-.833.241-1.154.161-.322.388-.568.681-.74a2.015 2.015 0 011.046-.265c.404 0 .753.088 1.046.265.299.172.529.418.69.74.166.321.249.705.249 1.154 0 .443-.083.827-.249 1.154-.161.321-.391.57-.69.747-.293.172-.642.258-1.046.258zm0-.548c.399 0 .714-.136.947-.407.232-.277.349-.678.349-1.204 0-.532-.119-.933-.357-1.204-.233-.277-.546-.415-.939-.415-.393 0-.706.138-.938.415-.233.271-.349.672-.349 1.204 0 .526.116.927.349 1.204.232.271.545.407.938.407zm3.033.473v-3.205c0-.155-.008-.313-.024-.474a14.612 14.612 0 00-.042-.489h.648l.083.913h-.1c.122-.321.316-.565.581-.731.272-.171.584-.257.939-.257.492 0 .863.133 1.112.398.255.261.382.673.382 1.238V201h-.672v-2.566c0-.393-.08-.678-.241-.855-.155-.183-.399-.274-.731-.274-.387 0-.694.119-.921.357-.227.238-.341.556-.341.955V201h-.673zm6.718.075c-.654 0-1.168-.188-1.545-.565-.376-.382-.564-.911-.564-1.586 0-.437.083-.816.249-1.138.166-.326.398-.578.697-.755a1.932 1.932 0 011.03-.274c.382 0 .703.08.963.241.26.16.46.39.598.689.138.293.208.642.208 1.046v.249h-3.231v-.423h2.79l-.141.108c0-.443-.099-.789-.299-1.038-.199-.249-.495-.374-.888-.374-.415 0-.739.147-.972.44-.232.288-.348.678-.348 1.171v.075c0 .52.127.916.382 1.187.26.266.622.399 1.087.399.249 0 .482-.036.698-.108.221-.078.432-.202.631-.374l.232.473a1.877 1.877 0 01-.697.416c-.277.094-.57.141-.88.141zm2.083-.075l2.334-3.122v.257l-2.226-2.989h.814l1.827 2.499h-.216l1.81-2.499h.822l-2.233 2.989v-.257l2.333 3.122h-.814l-1.951-2.649h.266L131.267 201h-.814zm8.239 0v-5.854h3.653v.565h-2.964v2.051h2.782v.564h-2.782V201h-.689zm4.588 0v-4.168h.672V201h-.672zm-.083-5.115v-.756h.83v.756h-.83zm2.061 5.115v-3.205a4.51 4.51 0 00-.025-.474 14.637 14.637 0 00-.041-.489h.647l.083.913h-.099c.122-.321.315-.565.581-.731.271-.171.584-.257.938-.257.493 0 .864.133 1.113.398.255.261.382.673.382 1.238V201h-.672v-2.566c0-.393-.081-.678-.241-.855-.155-.183-.399-.274-.731-.274-.388 0-.695.119-.922.357-.227.238-.34.556-.34.955V201h-.673zm6.452.075c-.371 0-.695-.086-.972-.258a1.782 1.782 0 01-.648-.747c-.149-.321-.224-.706-.224-1.154 0-.454.075-.842.224-1.163a1.73 1.73 0 01.648-.739c.277-.171.601-.257.972-.257.376 0 .7.097.971.29.277.189.46.446.548.773h-.099l.091-.988h.648l-.05.489a6.959 6.959 0 00-.017.474V201h-.672v-.98h.091a1.322 1.322 0 01-.548.772 1.667 1.667 0 01-.963.283zm.133-.548c.398 0 .714-.136.946-.407.233-.277.349-.678.349-1.204 0-.532-.116-.933-.349-1.204-.232-.277-.548-.415-.946-.415-.394 0-.709.138-.947.415-.233.271-.349.672-.349 1.204 0 .526.116.927.349 1.204.238.271.553.407.947.407zm3.26.473v-3.205c0-.155-.009-.313-.025-.474a12.37 12.37 0 00-.042-.489h.648l.083.913h-.1a1.43 1.43 0 01.582-.731c.271-.171.584-.257.938-.257.493 0 .864.133 1.113.398.254.261.382.673.382 1.238V201h-.673v-2.566c0-.393-.08-.678-.241-.855-.155-.183-.398-.274-.731-.274-.387 0-.694.119-.921.357-.227.238-.341.556-.341.955V201h-.672zm6.617.075c-.409 0-.766-.089-1.071-.266a1.804 1.804 0 01-.697-.756c-.161-.326-.241-.714-.241-1.162 0-.454.083-.839.249-1.154.166-.321.398-.565.697-.731a2.188 2.188 0 011.063-.249c.266 0 .523.047.773.141.254.094.465.227.631.399l-.241.481a1.66 1.66 0 00-1.121-.473c-.432 0-.767.135-1.005.407-.238.271-.357.667-.357 1.187 0 .515.119.914.357 1.196.238.282.573.423 1.005.423.182 0 .371-.036.564-.108.2-.072.385-.191.557-.357l.241.474a1.706 1.706 0 01-.64.407 2.19 2.19 0 01-.764.141zm2.36-.075v-4.168h.672V201h-.672zm-.084-5.115v-.756h.831v.756h-.831zm3.648 5.19c-.371 0-.695-.086-.971-.258a1.782 1.782 0 01-.648-.747c-.15-.321-.224-.706-.224-1.154 0-.454.074-.842.224-1.163a1.73 1.73 0 01.648-.739c.276-.171.6-.257.971-.257.377 0 .7.097.972.29.276.189.459.446.548.773h-.1l.091-.988h.648l-.05.489a6.95 6.95 0 00-.016.474V201h-.673v-.98h.091a1.318 1.318 0 01-.548.772 1.662 1.662 0 01-.963.283zm.133-.548c.399 0 .714-.136.947-.407.232-.277.348-.678.348-1.204 0-.532-.116-.933-.348-1.204-.233-.277-.548-.415-.947-.415-.393 0-.709.138-.947.415-.232.271-.348.672-.348 1.204 0 .526.116.927.348 1.204.238.271.554.407.947.407zm3.26.473v-6.112h.673V201h-.673zm4.219 0v-5.854h.689V201h-.689zm2.074 0v-3.205a4.51 4.51 0 00-.025-.474 12.37 12.37 0 00-.042-.489h.648l.083.913h-.1a1.43 1.43 0 01.582-.731c.271-.171.584-.257.938-.257.493 0 .864.133 1.113.398.254.261.382.673.382 1.238V201h-.673v-2.566c0-.393-.08-.678-.241-.855-.155-.183-.398-.274-.73-.274-.388 0-.695.119-.922.357-.227.238-.341.556-.341.955V201h-.672zm6.617.075c-.409 0-.766-.089-1.071-.266a1.804 1.804 0 01-.697-.756c-.161-.326-.241-.714-.241-1.162 0-.454.083-.839.249-1.154.166-.321.399-.565.698-.731a2.181 2.181 0 011.062-.249c.266 0 .524.047.773.141.254.094.465.227.631.399l-.241.481a1.66 1.66 0 00-1.121-.473c-.432 0-.767.135-1.005.407-.238.271-.357.667-.357 1.187 0 .515.119.914.357 1.196.238.282.573.423 1.005.423a1.618 1.618 0 001.121-.465l.241.474a1.706 1.706 0 01-.64.407 2.19 2.19 0 01-.764.141zm2.308-.075v-.847h.847V201h-.847zm3.531-2.059v-.44h4.194v.44h-4.194zm7.089 2.059v-5.854h3.653v.565h-2.964v2.051h2.782v.564h-2.782V201h-.689zm7.074.075c-.587 0-1.085-.122-1.495-.366a2.421 2.421 0 01-.947-1.038c-.215-.448-.323-.982-.323-1.602 0-.62.108-1.152.323-1.595.222-.448.537-.794.947-1.038.41-.243.908-.365 1.495-.365.415 0 .786.064 1.112.191.327.127.612.313.856.556l-.258.549a2.789 2.789 0 00-.789-.507 2.31 2.31 0 00-.913-.166c-.67 0-1.179.207-1.528.623-.349.415-.523.999-.523 1.752s.174 1.339.523 1.76c.349.415.858.623 1.528.623.349 0 .653-.053.913-.158.261-.111.524-.285.789-.523l.258.556a2.633 2.633 0 01-.856.557 3.047 3.047 0 01-1.112.191zm3.135-.075v-5.854h.598l2.35 5.306h-.241l2.35-5.306h.598V201h-.631v-4.966h.249L210.14 201h-.457l-2.225-4.966h.249V201h-.623zm9.285 0v-5.854h1.943c.648 0 1.196.113 1.644.34.449.222.789.551 1.022.988.232.432.348.964.348 1.595 0 .625-.116 1.157-.348 1.594-.233.437-.573.77-1.022.997-.448.227-.996.34-1.644.34h-1.943zm.689-.59h1.204c.797 0 1.39-.193 1.777-.581.388-.393.582-.98.582-1.76 0-.786-.194-1.373-.582-1.761-.387-.387-.98-.581-1.777-.581h-1.204v4.683zm5.44.59v-4.168h.672V201h-.672zm-.083-5.115v-.756h.83v.756h-.83zm3.29 5.115l-1.785-4.168h.731l1.494 3.67h-.224l1.512-3.67h.697L226.345 201h-.64zm3.183 0v-4.168h.672V201h-.672zm-.083-5.115v-.756h.83v.756h-.83zm3.448 5.19c-.332 0-.642-.045-.93-.133a2.002 2.002 0 01-.714-.39l.232-.474c.205.161.427.28.665.357.243.078.495.117.755.117.333 0 .582-.059.748-.175a.58.58 0 00.257-.498.474.474 0 00-.166-.382c-.105-.1-.279-.177-.523-.232l-.772-.158c-.355-.078-.62-.208-.797-.391a.996.996 0 01-.266-.714c0-.243.063-.456.191-.639.127-.188.313-.335.556-.44.244-.111.529-.166.855-.166.305 0 .584.047.839.141.26.089.476.219.648.39l-.241.465a1.6 1.6 0 00-.573-.357 1.77 1.77 0 00-.656-.124c-.327 0-.573.066-.739.199a.612.612 0 00-.241.506c0 .161.05.294.15.399.105.1.265.174.481.224l.773.158c.376.083.656.213.838.39.188.172.283.404.283.698 0 .249-.07.468-.208.656a1.323 1.323 0 01-.581.423c-.244.1-.532.15-.864.15zm2.733-.075v-4.168h.672V201h-.672zm-.083-5.115v-.756h.83v.756h-.83zm3.772 5.19a2.06 2.06 0 01-1.046-.258 1.774 1.774 0 01-.681-.747c-.161-.327-.241-.711-.241-1.154 0-.449.08-.833.241-1.154.16-.322.387-.568.681-.74a2.013 2.013 0 011.046-.265c.404 0 .753.088 1.046.265.299.172.529.418.69.74.166.321.249.705.249 1.154 0 .443-.083.827-.249 1.154-.161.321-.391.57-.69.747-.293.172-.642.258-1.046.258zm0-.548c.399 0 .714-.136.947-.407.232-.277.348-.678.348-1.204 0-.532-.119-.933-.357-1.204-.232-.277-.545-.415-.938-.415-.393 0-.706.138-.938.415-.233.271-.349.672-.349 1.204 0 .526.116.927.349 1.204.232.271.545.407.938.407zm3.033.473v-3.205a4.51 4.51 0 00-.025-.474 14.637 14.637 0 00-.041-.489h.648l.083.913h-.1c.122-.321.316-.565.581-.731.271-.171.584-.257.939-.257.492 0 .863.133 1.112.398.255.261.382.673.382 1.238V201h-.672v-2.566c0-.393-.081-.678-.241-.855-.155-.183-.399-.274-.731-.274-.387 0-.695.119-.922.357-.227.238-.34.556-.34.955V201h-.673z" fill="#000"/></svg>