<svg width="116" height="34" viewBox="0 0 116 34" fill="none" xmlns="http://www.w3.org/2000/svg"><rect x=".22" width="115" height="34" rx="17" fill="#123B63"/><path d="M22.92 22.119c-.75 0-1.419-.097-2.009-.29a4.745 4.745 0 01-1.546-.833l.397-.872c.308.229.616.423.924.581.317.15.657.265 1.018.344.36.07.766.105 1.215.105.784 0 1.365-.145 1.744-.436.379-.29.568-.678.568-1.162 0-.414-.132-.731-.396-.951-.264-.22-.727-.397-1.387-.529L22.06 17.8c-.854-.176-1.492-.463-1.915-.859-.414-.396-.621-.934-.621-1.612 0-.555.14-1.039.423-1.453.29-.414.695-.735 1.215-.964.52-.23 1.123-.344 1.81-.344.66 0 1.264.101 1.81.304.546.194 1.013.48 1.4.859l-.383.845a3.864 3.864 0 00-1.308-.792 4.37 4.37 0 00-1.532-.252c-.722 0-1.295.16-1.718.476-.414.308-.62.731-.62 1.268 0 .432.132.771.396 1.018.264.238.7.418 1.308.541l1.4.278c.898.185 1.559.462 1.982.832.422.37.634.89.634 1.56 0 .51-.141.963-.423 1.36-.273.396-.665.704-1.176.925-.51.22-1.118.33-1.823.33zm7.399 0c-.652 0-1.15-.185-1.493-.555-.344-.379-.515-.947-.515-1.704V16.2h-1.295v-.832h1.295v-1.81l1.07-.304v2.114h1.902v.832h-1.902v3.54c0 .53.088.908.264 1.137.185.22.458.33.82.33.166 0 .316-.013.448-.04a2.82 2.82 0 00.357-.118v.898a1.846 1.846 0 01-.45.12 2.433 2.433 0 01-.501.052zm4.79 0c-.59 0-1.105-.137-1.545-.41a2.838 2.838 0 01-1.03-1.189c-.239-.51-.358-1.123-.358-1.836 0-.722.12-1.339.357-1.85a2.75 2.75 0 011.03-1.175c.441-.274.956-.41 1.546-.41.6 0 1.114.154 1.546.462.44.3.731.71.872 1.229h-.159l.146-1.572h1.03l-.079.78c-.018.255-.026.506-.026.752V22h-1.07v-1.559h.145c-.141.52-.432.93-.872 1.229-.44.3-.951.449-1.533.449zm.212-.872c.634 0 1.136-.216 1.506-.647.37-.44.555-1.08.555-1.916 0-.846-.185-1.484-.555-1.916-.37-.44-.872-.66-1.506-.66-.626 0-1.128.22-1.506.66-.37.432-.555 1.07-.555 1.916 0 .837.185 1.475.555 1.916.378.431.88.647 1.506.647zm5.16.753v-5.034c0-.264-.009-.532-.026-.805a11.228 11.228 0 00-.053-.793h1.03l.133 1.612-.185.013c.088-.396.242-.722.462-.978.22-.255.48-.445.78-.568a2.3 2.3 0 01.937-.198c.133 0 .247.004.344.013a1 1 0 01.29.066l-.013.951a1.55 1.55 0 00-.37-.079 2.279 2.279 0 00-.37-.026c-.387 0-.726.092-1.017.277a1.864 1.864 0 00-.647.714c-.141.29-.212.599-.212.924V22h-1.083zm7.526.119c-.652 0-1.15-.185-1.493-.555-.343-.379-.515-.947-.515-1.704V16.2h-1.295v-.832H46v-1.81l1.07-.304v2.114h1.902v.832H47.07v3.54c0 .53.088.908.264 1.137.185.22.458.33.82.33.167 0 .316-.013.449-.04a2.82 2.82 0 00.356-.118v.898a1.846 1.846 0 01-.449.12 2.434 2.434 0 01-.502.052zm8.064 0c-.652 0-1.15-.185-1.493-.555-.344-.379-.516-.947-.516-1.704V16.2h-1.294v-.832h1.294v-1.81l1.07-.304v2.114h1.903v.832h-1.902v3.54c0 .53.088.908.264 1.137.185.22.458.33.819.33.167 0 .317-.013.45-.04a2.82 2.82 0 00.356-.118v.898a1.845 1.845 0 01-.45.12 2.433 2.433 0 01-.501.052zM58.31 22v-5.034c0-.264-.008-.532-.026-.805a11.229 11.229 0 00-.053-.793h1.03l.133 1.612-.185.013c.088-.396.242-.722.462-.978.22-.255.48-.445.78-.568a2.3 2.3 0 01.938-.198c.132 0 .246.004.343.013a1 1 0 01.29.066l-.013.951a1.55 1.55 0 00-.37-.079 2.278 2.278 0 00-.37-.026c-.387 0-.726.092-1.017.277a1.864 1.864 0 00-.647.714c-.14.29-.211.599-.211.924V22H58.31zm7.285.119c-.59 0-1.105-.137-1.546-.41a2.838 2.838 0 01-1.03-1.189c-.238-.51-.357-1.123-.357-1.836 0-.722.12-1.339.357-1.85a2.75 2.75 0 011.03-1.175c.44-.274.956-.41 1.546-.41.599 0 1.114.154 1.546.462.44.3.73.71.872 1.229h-.159l.146-1.572h1.03l-.08.78c-.017.255-.026.506-.026.752V22h-1.07v-1.559h.146c-.141.52-.432.93-.872 1.229-.44.3-.952.449-1.533.449zm.212-.872c.634 0 1.136-.216 1.506-.647.37-.44.554-1.08.554-1.916 0-.846-.184-1.484-.554-1.916-.37-.44-.872-.66-1.506-.66-.626 0-1.128.22-1.507.66-.37.432-.555 1.07-.555 1.916 0 .837.185 1.475.555 1.916.38.431.881.647 1.507.647zm7.696.872c-.58 0-1.092-.137-1.532-.41a2.838 2.838 0 01-1.03-1.189c-.238-.51-.357-1.123-.357-1.836 0-.722.119-1.339.357-1.85a2.75 2.75 0 011.03-1.175c.44-.274.951-.41 1.532-.41.6 0 1.115.15 1.546.45.44.299.736.704.885 1.215h-.158v-4.638h1.07V22H75.79v-1.585h.145c-.14.528-.431.947-.871 1.255-.44.3-.96.449-1.56.449zm.225-.872c.626 0 1.127-.216 1.506-.647.379-.44.568-1.08.568-1.916 0-.846-.189-1.484-.568-1.916-.379-.44-.88-.66-1.506-.66-.625 0-1.127.22-1.506.66-.37.432-.555 1.07-.555 1.916 0 .837.185 1.475.555 1.916.379.431.88.647 1.506.647zm5.187.753v-6.632h1.07V22h-1.07zm-.132-8.138V12.66h1.321v1.202h-1.321zM82.064 22v-5.1c0-.246-.013-.497-.04-.753a21.43 21.43 0 00-.066-.78h1.03l.133 1.454h-.159c.194-.51.502-.898.925-1.163.432-.272.93-.409 1.493-.409.784 0 1.374.211 1.77.634.406.414.608 1.07.608 1.969V22h-1.07v-4.082c0-.626-.128-1.08-.383-1.361-.247-.29-.634-.436-1.163-.436-.616 0-1.105.19-1.466.568-.361.379-.542.885-.542 1.52V22h-1.07zm10.66 2.946c-.572 0-1.1-.07-1.585-.211a4.042 4.042 0 01-1.307-.648l.317-.805c.273.193.541.347.805.462.265.114.538.198.82.25.281.063.58.093.898.093.652 0 1.145-.171 1.48-.515.334-.343.502-.832.502-1.466v-1.942h.132c-.141.52-.432.933-.872 1.241-.44.3-.956.45-1.546.45-.608 0-1.136-.132-1.585-.397a2.78 2.78 0 01-1.03-1.15c-.239-.501-.358-1.091-.358-1.77 0-.669.12-1.25.357-1.743.247-.494.59-.872 1.03-1.137.45-.272.978-.409 1.586-.409.599 0 1.114.15 1.546.45.44.299.73.713.872 1.241l-.132-.132.119-1.44h1.043a11.118 11.118 0 00-.105 1.532v5.06c0 .987-.256 1.731-.767 2.233-.502.502-1.242.753-2.22.753zm-.158-3.963c.643 0 1.15-.212 1.52-.634.37-.432.554-1.035.554-1.81 0-.775-.184-1.374-.554-1.797-.37-.423-.877-.634-1.52-.634-.634 0-1.14.211-1.52.634-.378.423-.567 1.022-.567 1.797 0 .775.19 1.378.568 1.81.379.422.885.634 1.52.634z" fill="#fff"/></svg>