<svg width="136" height="57" viewBox="0 0 136 57" fill="none" xmlns="http://www.w3.org/2000/svg"><path d="M1.08 11h.81V6.155h4.53v-.75H1.89V1.25h5.43V.5H1.08V11zm12.576-3.87c0 1.995-.99 3.255-2.565 3.255-1.41 0-2.28-.96-2.28-2.775V3.395h-.765v4.26c0 2.385 1.245 3.435 2.925 3.435 1.35 0 2.235-.72 2.67-1.695L13.746 11h.675V3.395h-.765V7.13zm6.076-3.825c-1.395 0-2.295.72-2.73 1.71l-.12-1.62h-.66V11h.765V7.25c0-1.98 1.005-3.24 2.625-3.24 1.47 0 2.355.96 2.355 2.76V11h.765V6.74c0-2.4-1.275-3.435-3-3.435zm10.786 1.8c-.465-1.08-1.485-1.8-2.91-1.8-2.085 0-3.585 1.59-3.585 3.885 0 2.4 1.5 3.9 3.585 3.9 1.425 0 2.415-.765 2.895-1.83l.12 1.74h.66V.5h-.765v4.605zm-2.85 5.295c-1.695 0-2.865-1.32-2.865-3.21 0-1.875 1.17-3.21 2.865-3.21 1.695 0 2.865 1.335 2.865 3.225 0 1.875-1.17 3.195-2.865 3.195zm11.738.6l-.495 1.23c-.345.84-.48 1.065-1.26 1.065h-.96V14h1.17c1.02 0 1.26-.39 1.74-1.59l3.645-9.015h-.825l-2.595 6.615-2.64-6.615h-.825L39.406 11zm7.906.09c2.145 0 3.66-1.59 3.66-3.9 0-2.295-1.515-3.885-3.66-3.885-2.145 0-3.645 1.59-3.645 3.885 0 2.31 1.5 3.9 3.645 3.9zm0-.69c-1.695 0-2.865-1.32-2.865-3.21 0-1.875 1.17-3.21 2.865-3.21 1.695 0 2.865 1.335 2.865 3.21 0 1.89-1.17 3.21-2.865 3.21zm10.7-3.27c0 1.995-.99 3.255-2.565 3.255-1.41 0-2.28-.96-2.28-2.775V3.395h-.765v4.26c0 2.385 1.245 3.435 2.925 3.435 1.35 0 2.235-.72 2.67-1.695L58.102 11h.675V3.395h-.765V7.13zm5.67-3.735c-1.41 0-2.01.675-2.324 1.515l-.12-1.515h-.66V11h.765V7.145c0-1.545.405-3.015 2.19-3.015h.555v-.735h-.405zm12.272 6.9c-.45 0-.675-.15-.675-.735V6.02c0-1.74-1.065-2.715-2.97-2.715-1.74 0-2.895.84-3.09 2.22h.765c.195-.93 1.005-1.545 2.295-1.545 1.425 0 2.235.75 2.235 2.01v.66h-2.58c-1.95 0-3 .84-3 2.265 0 1.35 1.065 2.175 2.685 2.175 1.545 0 2.46-.705 2.925-1.65v.27c-.03.9.345 1.29 1.245 1.29h.45v-.705h-.285zm-1.44-2.37c0 1.455-1.035 2.505-2.835 2.505-1.215 0-1.965-.615-1.965-1.56 0-1.005.75-1.56 2.16-1.56h2.64v.615zm5.946 3.165c1.725 0 2.94-.99 3.24-2.535h-.81c-.255 1.125-1.17 1.845-2.43 1.845-1.665 0-2.82-1.305-2.82-3.195s1.14-3.225 2.82-3.225c1.275 0 2.175.72 2.445 1.86h.795c-.315-1.575-1.5-2.535-3.225-2.535-2.145 0-3.615 1.59-3.615 3.9 0 2.34 1.455 3.885 3.6 3.885zm8.042 0c1.725 0 2.94-.99 3.24-2.535h-.81c-.255 1.125-1.17 1.845-2.43 1.845-1.665 0-2.82-1.305-2.82-3.195s1.14-3.225 2.82-3.225c1.275 0 2.175.72 2.445 1.86h.795c-.315-1.575-1.5-2.535-3.225-2.535-2.145 0-3.615 1.59-3.615 3.9 0 2.34 1.455 3.885 3.6 3.885zm8.087 0c2.145 0 3.66-1.59 3.66-3.9 0-2.295-1.515-3.885-3.66-3.885-2.145 0-3.645 1.59-3.645 3.885 0 2.31 1.5 3.9 3.645 3.9zm0-.69c-1.695 0-2.865-1.32-2.865-3.21 0-1.875 1.17-3.21 2.865-3.21 1.695 0 2.865 1.335 2.865 3.21 0 1.89-1.17 3.21-2.865 3.21zm10.7-3.27c0 1.995-.99 3.255-2.565 3.255-1.41 0-2.28-.96-2.28-2.775V3.395h-.765v4.26c0 2.385 1.245 3.435 2.925 3.435 1.35 0 2.235-.72 2.67-1.695l.105 1.605h.675V3.395h-.765V7.13zm6.076-3.825c-1.395 0-2.295.72-2.73 1.71l-.12-1.62h-.66V11h.765V7.25c0-1.98 1.005-3.24 2.625-3.24 1.47 0 2.355.96 2.355 2.76V11h.765V6.74c0-2.4-1.275-3.435-3-3.435zm5.263 5.925c0 1.215.495 1.77 1.785 1.77h1.11v-.705h-1.05c-.795 0-1.08-.3-1.08-1.08V4.1h2.055v-.705h-2.055v-2.13h-.765v2.13h-1.44V4.1h1.44v5.13zm16.307 1.08c-.42 0-.72-.09-1.035-.48l-.75-.87 2.385-3.63h-.81l-2.04 3.075-2.34-2.745-.09-.105c2.01-.84 2.73-1.8 2.73-2.97 0-1.245-.975-2.175-2.295-2.175-1.56 0-2.715 1.035-2.715 2.415 0 .96.33 1.56 1.14 2.55-1.83.78-2.565 1.86-2.565 3.045 0 1.725 1.365 2.67 3.075 2.67 1.17 0 2.19-.525 3.045-1.53l.735.87c.36.435.855.57 1.425.57h1.05v-.69h-.945zm-4.305-9.24c.93 0 1.575.645 1.575 1.53 0 1.02-.705 1.755-2.355 2.475-.765-.915-1.08-1.44-1.08-2.265 0-1.005.765-1.74 1.86-1.74zm-.99 9.33c-1.32 0-2.31-.75-2.31-2.04 0-1.095.615-1.77 2.175-2.52l.225.255 2.49 2.94c-.705.885-1.59 1.365-2.58 1.365zM.555 29.66c.06 1.575 1.335 2.43 3.24 2.43 1.635 0 2.955-.825 2.955-2.175 0-1.605-1.41-1.92-3.045-2.145-1.185-.165-2.235-.3-2.235-1.365 0-.87.855-1.44 2.145-1.44 1.215 0 2.085.585 2.22 1.575h.78c-.135-1.485-1.35-2.235-3-2.235-1.695-.015-2.91.855-2.91 2.16 0 1.53 1.41 1.815 2.97 2.025 1.275.18 2.31.345 2.31 1.47 0 .9-.945 1.47-2.19 1.47-1.455 0-2.4-.675-2.46-1.77h-.78zm8.225.57c0 1.215.495 1.77 1.785 1.77h1.11v-.705h-1.05c-.795 0-1.08-.3-1.08-1.08V25.1H11.6v-.705H9.545v-2.13H8.78v2.13H7.34v.705h1.44v5.13zm10.587 1.065c-.45 0-.675-.15-.675-.735v-3.54c0-1.74-1.065-2.715-2.97-2.715-1.74 0-2.895.84-3.09 2.22h.765c.195-.93 1.005-1.545 2.295-1.545 1.425 0 2.235.75 2.235 2.01v.66h-2.58c-1.95 0-3 .84-3 2.265 0 1.35 1.065 2.175 2.685 2.175 1.545 0 2.46-.705 2.925-1.65v.27c-.03.9.345 1.29 1.245 1.29h.45v-.705h-.285zm-1.44-2.37c0 1.455-1.035 2.505-2.835 2.505-1.215 0-1.965-.615-1.965-1.56 0-1.005.75-1.56 2.16-1.56h2.64v.615zm5.853-4.53c-1.41 0-2.01.675-2.325 1.515l-.12-1.515h-.66V32h.765v-3.855c0-1.545.405-3.015 2.19-3.015h.555v-.735h-.405zm2.314 5.835c0 1.215.495 1.77 1.785 1.77h1.11v-.705h-1.05c-.795 0-1.08-.3-1.08-1.08V25.1h2.055v-.705h-2.055v-2.13h-.765v2.13h-1.44v.705h1.44v5.13zm8.672 0c0 1.215.495 1.77 1.785 1.77h1.11v-.705h-1.05c-.795 0-1.08-.3-1.08-1.08V25.1h2.055v-.705H35.53v-2.13h-.765v2.13h-1.44v.705h1.44v5.13zm7.164-5.835c-1.41 0-2.01.675-2.325 1.515l-.12-1.515h-.66V32h.765v-3.855c0-1.545.405-3.015 2.19-3.015h.555v-.735h-.405zm7.906 6.9c-.45 0-.675-.15-.675-.735v-3.54c0-1.74-1.065-2.715-2.97-2.715-1.74 0-2.895.84-3.09 2.22h.765c.195-.93 1.005-1.545 2.295-1.545 1.425 0 2.235.75 2.235 2.01v.66h-2.58c-1.95 0-3 .84-3 2.265 0 1.35 1.065 2.175 2.685 2.175 1.545 0 2.46-.705 2.925-1.65v.27c-.03.9.345 1.29 1.245 1.29h.45v-.705h-.285zm-1.44-2.37c0 1.455-1.035 2.505-2.835 2.505-1.215 0-1.965-.615-1.965-1.56 0-1.005.75-1.56 2.16-1.56h2.64v.615zm8.841-2.82c-.465-1.08-1.485-1.8-2.91-1.8-2.085 0-3.585 1.59-3.585 3.885 0 2.4 1.5 3.9 3.585 3.9 1.425 0 2.415-.765 2.895-1.83l.12 1.74h.66V21.5h-.765v4.605zm-2.85 5.295c-1.695 0-2.865-1.32-2.865-3.21 0-1.875 1.17-3.21 2.865-3.21 1.695 0 2.865 1.335 2.865 3.225 0 1.875-1.17 3.195-2.865 3.195zm5.804-8.61c.3 0 .54-.225.54-.54 0-.315-.24-.54-.54-.54-.3 0-.54.225-.54.54 0 .315.24.54.54.54zm-.39 9.21h.765v-7.605h-.765V32zm6.074-7.695c-1.395 0-2.295.72-2.73 1.71l-.12-1.62h-.66V32h.765v-3.75c0-1.98 1.005-3.24 2.625-3.24 1.47 0 2.355.96 2.355 2.76V32h.765v-4.26c0-2.4-1.275-3.435-3-3.435zm10.888 1.86c-.465-1.125-1.485-1.86-2.895-1.86-2.085 0-3.585 1.575-3.585 3.885 0 2.4 1.5 3.9 3.585 3.9 1.425 0 2.43-.75 2.91-1.935v1.35c0 2.025-.96 2.895-2.79 2.895-1.425 0-2.415-.645-2.655-1.8h-.795c.24 1.62 1.545 2.49 3.39 2.49 2.46 0 3.615-1.17 3.615-3.555v-7.14h-.66l-.12 1.77zM73.928 31.4c-1.695 0-2.865-1.32-2.865-3.21s1.17-3.21 2.865-3.21c1.695 0 2.865 1.32 2.865 3.225 0 1.875-1.17 3.195-2.865 3.195zm11.077-8.565c0 .48-.225.81-.69.81h-1.8v.705h1.8c.315 0 .54-.09.675-.255V32h.78V21.5h-.765v1.335zm2.085 6.405h5.61V32h.78v-2.76h1.725v-.72H93.48V21.5h-.87l-5.52 7.035v.705zm5.61-6.765v6.045h-4.725l4.725-6.045zm3.613 8.475c-.405 0-.66.255-.66.585 0 .36.24.54.525.54.15 0 .3-.06.375-.18.105.105.135.255.135.39 0 .57-.36 1.155-1.125 1.185v.45c1.035-.045 1.68-.735 1.68-1.725 0-.69-.39-1.245-.93-1.245zm1.511-3.96c0 3.075 1.516 5.1 3.795 5.1 2.25 0 3.78-2.025 3.78-5.1v-.48c0-2.985-1.53-5.1-3.78-5.1-2.28 0-3.794 2.115-3.794 5.1v.48zm6.78-.03c0 2.67-1.185 4.41-2.985 4.41-1.814 0-3-1.74-3-4.41v-.42c0-2.67 1.186-4.41 3-4.41 1.8 0 2.985 1.74 2.985 4.41v.42zm2.229.03c0 3.075 1.515 5.1 3.795 5.1 2.25 0 3.78-2.025 3.78-5.1v-.48c0-2.985-1.53-5.1-3.78-5.1-2.28 0-3.795 2.115-3.795 5.1v.48zm6.78-.03c0 2.67-1.185 4.41-2.985 4.41-1.815 0-3-1.74-3-4.41v-.42c0-2.67 1.185-4.41 3-4.41 1.8 0 2.985 1.74 2.985 4.41v.42zm2.229.03c0 3.075 1.515 5.1 3.795 5.1 2.25 0 3.78-2.025 3.78-5.1v-.48c0-2.985-1.53-5.1-3.78-5.1-2.28 0-3.795 2.115-3.795 5.1v.48zm6.78-.03c0 2.67-1.185 4.41-2.985 4.41-1.815 0-3-1.74-3-4.41v-.42c0-2.67 1.185-4.41 3-4.41 1.8 0 2.985 1.74 2.985 4.41v.42zM7.095 47.165c-.465-1.125-1.485-1.86-2.895-1.86-2.085 0-3.585 1.575-3.585 3.885 0 2.4 1.5 3.9 3.585 3.9 1.425 0 2.43-.75 2.91-1.935v1.35c0 2.025-.96 2.895-2.79 2.895-1.425 0-2.415-.645-2.655-1.8H.87c.24 1.62 1.545 2.49 3.39 2.49 2.46 0 3.615-1.17 3.615-3.555v-7.14h-.66l-.12 1.77zM4.26 52.4c-1.695 0-2.865-1.32-2.865-3.21s1.17-3.21 2.865-3.21c1.695 0 2.865 1.32 2.865 3.225 0 1.875-1.17 3.195-2.865 3.195zm5.414.6h.765V42.5h-.765V53zm5.924.09c2.145 0 3.66-1.59 3.66-3.9 0-2.295-1.515-3.885-3.66-3.885-2.145 0-3.645 1.59-3.645 3.885 0 2.31 1.5 3.9 3.645 3.9zm0-.69c-1.695 0-2.865-1.32-2.865-3.21 0-1.875 1.17-3.21 2.865-3.21 1.695 0 2.865 1.335 2.865 3.21 0 1.89-1.17 3.21-2.865 3.21zm8.855-7.095c-1.425 0-2.43.78-2.91 1.86V42.5h-.765V53h.66l.12-1.725c.45 1.095 1.47 1.815 2.895 1.815 2.085 0 3.585-1.59 3.585-3.9 0-2.385-1.5-3.885-3.585-3.885zm-.06 7.095c-1.695 0-2.865-1.32-2.865-3.225 0-1.86 1.17-3.195 2.865-3.195 1.695 0 2.865 1.335 2.865 3.21 0 1.89-1.17 3.21-2.865 3.21zm11.85-.105c-.45 0-.676-.15-.676-.735v-3.54c0-1.74-1.065-2.715-2.97-2.715-1.74 0-2.895.84-3.09 2.22h.765c.195-.93 1.005-1.545 2.295-1.545 1.425 0 2.235.75 2.235 2.01v.66h-2.58c-1.95 0-3 .84-3 2.265 0 1.35 1.065 2.175 2.685 2.175 1.545 0 2.46-.705 2.925-1.65v.27c-.03.9.345 1.29 1.245 1.29h.45v-.705h-.285zm-1.44-2.37c0 1.455-1.036 2.505-2.836 2.505-1.215 0-1.965-.615-1.965-1.56 0-1.005.75-1.56 2.16-1.56h2.64v.615zM37.55 53h.765V42.5h-.765V53zm15.097-7.695c-1.395 0-2.295.78-2.73 1.905-.36-1.26-1.305-1.905-2.505-1.905-1.305 0-2.085.765-2.475 1.71l-.12-1.62h-.66V53h.765v-3.87c0-1.86.9-3.12 2.355-3.12 1.32 0 2.145.93 2.145 2.685V53h.765v-4.14c.045-1.74.945-2.85 2.37-2.85 1.32 0 2.115.885 2.115 2.61V53h.78v-4.41c0-2.295-1.215-3.285-2.805-3.285zm11.193 6.99c-.45 0-.675-.15-.675-.735v-3.54c0-1.74-1.065-2.715-2.97-2.715-1.74 0-2.895.84-3.09 2.22h.765c.195-.93 1.005-1.545 2.295-1.545 1.425 0 2.235.75 2.235 2.01v.66h-2.58c-1.95 0-3 .84-3 2.265 0 1.35 1.065 2.175 2.685 2.175 1.545 0 2.46-.705 2.925-1.65v.27c-.03.9.345 1.29 1.245 1.29h.45v-.705h-.285zm-1.44-2.37c0 1.455-1.035 2.505-2.835 2.505-1.215 0-1.965-.615-1.965-1.56 0-1.005.75-1.56 2.16-1.56h2.64v.615zm5.853-4.53c-1.41 0-2.01.675-2.325 1.515l-.12-1.515h-.66V53h.765v-3.855c0-1.545.405-3.015 2.19-3.015h.555v-.735h-.405zM69.792 53h.765v-2.055l1.785-1.83L75.252 53h.93l-3.315-4.44 3.06-3.165h-.945l-4.425 4.56V42.5h-.765V53zm10.362.09c1.665 0 2.94-1.08 3.27-2.61h-.78c-.3 1.185-1.305 1.92-2.55 1.92-1.695 0-2.76-1.29-2.79-3.06v-.135h6.21c0-.105.015-.225.015-.315-.075-2.265-1.47-3.585-3.51-3.585-2.085 0-3.51 1.59-3.51 3.84 0 2.385 1.485 3.945 3.645 3.945zm-2.79-4.53c.12-1.545 1.275-2.58 2.67-2.58 1.485 0 2.55.915 2.67 2.58h-5.34zm8.13 2.67c0 1.215.494 1.77 1.784 1.77h1.11v-.705h-1.05c-.795 0-1.08-.3-1.08-1.08V46.1h2.055v-.705h-2.055v-2.13h-.765v2.13h-1.44v.705h1.44v5.13zm3.713-.57c.06 1.575 1.335 2.43 3.24 2.43 1.635 0 2.955-.825 2.955-2.175 0-1.605-1.41-1.92-3.045-2.145-1.185-.165-2.235-.3-2.235-1.365 0-.87.855-1.44 2.145-1.44 1.215 0 2.085.585 2.22 1.575h.78c-.135-1.485-1.35-2.235-3-2.235-1.695-.015-2.91.855-2.91 2.16 0 1.53 1.41 1.815 2.97 2.025 1.275.18 2.31.345 2.31 1.47 0 .9-.945 1.47-2.19 1.47-1.455 0-2.4-.675-2.46-1.77h-.78z" fill="#000"/></svg>