<svg width="461" height="19" viewBox="0 0 461 19" fill="none" xmlns="http://www.w3.org/2000/svg"><path d="M.4 2h4.8v13h1.08V2h4.8V1H.4v1zm15.33 2.86c-1.88 0-2.68.9-3.1 2.02l-.16-2.02h-.88V15h1.02V9.86c0-2.06.54-4.02 2.92-4.02h.74v-.98h-.54zm10.542 9.2c-.6 0-.9-.2-.9-.98V8.36c0-2.32-1.42-3.62-3.96-3.62-2.32 0-3.86 1.12-4.12 2.96h1.02c.26-1.24 1.34-2.06 3.06-2.06 1.9 0 2.98 1 2.98 2.68v.88h-3.44c-2.6 0-4 1.12-4 3.02 0 1.8 1.42 2.9 3.58 2.9 2.06 0 3.28-.94 3.9-2.2v.36c-.04 1.2.46 1.72 1.66 1.72h.6v-.94h-.38zm-1.92-3.16c0 1.94-1.38 3.34-3.78 3.34-1.62 0-2.62-.82-2.62-2.08 0-1.34 1-2.08 2.88-2.08h3.52v.82zM36.14 7.14c-.62-1.44-1.98-2.4-3.88-2.4-2.78 0-4.78 2.12-4.78 5.18 0 3.2 2 5.2 4.78 5.2 1.9 0 3.22-1.02 3.86-2.44l.16 2.32h.88V1h-1.02v6.14zm-3.8 7.06c-2.26 0-3.82-1.76-3.82-4.28 0-2.5 1.56-4.28 3.82-4.28s3.82 1.78 3.82 4.3c0 2.5-1.56 4.26-3.82 4.26zm11.7.92c2.22 0 3.92-1.44 4.36-3.48h-1.04c-.4 1.58-1.74 2.56-3.4 2.56-2.26 0-3.68-1.72-3.72-4.08v-.18h8.28c0-.14.02-.3.02-.42-.1-3.02-1.96-4.78-4.68-4.78-2.78 0-4.68 2.12-4.68 5.12 0 3.18 1.98 5.26 4.86 5.26zm-3.72-6.04c.16-2.06 1.7-3.44 3.56-3.44 1.98 0 3.4 1.22 3.56 3.44h-7.12zM58.405 15h1.1l3-8.52 2.86 8.52h1.1l3.6-10.14h-1.04l-3.12 8.92-2.9-8.92h-.94l-3.06 8.92-2.96-8.92h-1.08L58.406 15zM72.013 2.72c.4 0 .72-.3.72-.72s-.32-.72-.72-.72c-.4 0-.72.3-.72.72s.32.72.72.72zM71.493 15h1.02V4.86h-1.02V15zm4.178-2.36c0 1.62.66 2.36 2.38 2.36h1.48v-.94h-1.4c-1.06 0-1.44-.4-1.44-1.44V5.8h2.74v-.94h-2.74V2.02h-1.02v2.84h-1.92v.94h1.92v6.84zm10.092-7.9c-1.9 0-3.08 1.06-3.66 2.52V1h-1.02v14h1.02v-5c0-2.64 1.34-4.32 3.5-4.32 1.94 0 3.14 1.28 3.14 3.68V15h1.02V9.32c0-3.2-1.7-4.58-4-4.58zm16.147 10.38c2.22 0 3.92-1.44 4.36-3.48h-1.04c-.4 1.58-1.74 2.56-3.4 2.56-2.26 0-3.68-1.72-3.72-4.08v-.18h8.28c0-.14.02-.3.02-.42-.1-3.02-1.96-4.78-4.68-4.78-2.78 0-4.68 2.12-4.68 5.12 0 3.18 1.98 5.26 4.86 5.26zm-3.72-6.04c.16-2.06 1.7-3.44 3.56-3.44 1.98 0 3.4 1.22 3.56 3.44h-7.12zm8.805 5.92h1.18l3.36-4.46 3.36 4.46h1.24l-3.94-5.18 3.74-4.96h-1.16l-3.2 4.2-3.16-4.2h-1.22l3.74 4.96-3.94 5.18zm11.352-2.36c0 1.62.66 2.36 2.38 2.36h1.48v-.94h-1.4c-1.06 0-1.44-.4-1.44-1.44V5.8h2.74v-.94h-2.74V2.02h-1.02v2.84h-1.92v.94h1.92v6.84zm9.579 2.48c2.22 0 3.92-1.44 4.36-3.48h-1.04c-.4 1.58-1.74 2.56-3.4 2.56-2.26 0-3.68-1.72-3.72-4.08v-.18h8.28c0-.14.02-.3.02-.42-.1-3.02-1.96-4.78-4.68-4.78-2.78 0-4.68 2.12-4.68 5.12 0 3.18 1.98 5.26 4.86 5.26zm-3.72-6.04c.16-2.06 1.7-3.44 3.56-3.44 1.98 0 3.4 1.22 3.56 3.44h-7.12zm14.916-4.34c-1.86 0-3.06.96-3.64 2.28l-.16-2.16h-.88V15h1.02v-5c0-2.64 1.34-4.32 3.5-4.32 1.96 0 3.14 1.28 3.14 3.68V15h1.02V9.32c0-3.2-1.7-4.58-4-4.58zm14.381 2.4c-.62-1.44-1.98-2.4-3.88-2.4-2.78 0-4.78 2.12-4.78 5.18 0 3.2 2 5.2 4.78 5.2 1.9 0 3.22-1.02 3.86-2.44l.16 2.32h.88V1h-1.02v6.14zm-3.8 7.06c-2.26 0-3.82-1.76-3.82-4.28 0-2.5 1.56-4.28 3.82-4.28s3.82 1.78 3.82 4.3c0 2.5-1.56 4.26-3.82 4.26zm11.7.92c2.22 0 3.92-1.44 4.36-3.48h-1.04c-.4 1.58-1.74 2.56-3.4 2.56-2.26 0-3.68-1.72-3.72-4.08v-.18h8.28c0-.14.02-.3.02-.42-.1-3.02-1.96-4.78-4.68-4.78-2.78 0-4.68 2.12-4.68 5.12 0 3.18 1.98 5.26 4.86 5.26zm-3.72-6.04c.16-2.06 1.7-3.44 3.56-3.44 1.98 0 3.4 1.22 3.56 3.44h-7.12zm18.516-1.94c-.62-1.44-1.98-2.4-3.88-2.4-2.78 0-4.78 2.12-4.78 5.18 0 3.2 2 5.2 4.78 5.2 1.9 0 3.22-1.02 3.86-2.44l.16 2.32h.88V1h-1.02v6.14zm-3.8 7.06c-2.26 0-3.82-1.76-3.82-4.28 0-2.5 1.56-4.28 3.82-4.28s3.82 1.78 3.82 4.3c0 2.5-1.56 4.26-3.82 4.26zm17.29-9.46c-1.9 0-3.08 1.06-3.66 2.52V1h-1.02v14h1.02v-5c0-2.64 1.34-4.32 3.5-4.32 1.94 0 3.14 1.28 3.14 3.68V15h1.02V9.32c0-3.2-1.7-4.58-4-4.58zm10.6 10.38c2.86 0 4.88-2.12 4.88-5.2 0-3.06-2.02-5.18-4.88-5.18s-4.86 2.12-4.86 5.18c0 3.08 2 5.2 4.86 5.2zm0-.92c-2.26 0-3.82-1.76-3.82-4.28 0-2.5 1.56-4.28 3.82-4.28s3.82 1.78 3.82 4.28c0 2.52-1.56 4.28-3.82 4.28zm14.267-4.36c0 2.66-1.32 4.34-3.42 4.34-1.88 0-3.04-1.28-3.04-3.7V4.86h-1.02v5.68c0 3.18 1.66 4.58 3.9 4.58 1.8 0 2.98-.96 3.56-2.26l.14 2.14h.9V4.86h-1.02v4.98zm7.561-4.98c-1.88 0-2.68.9-3.1 2.02l-.16-2.02h-.88V15h1.02V9.86c0-2.06.54-4.02 2.92-4.02h.74v-.98h-.54zm1.338 7.02c.08 2.1 1.78 3.24 4.32 3.24 2.18 0 3.94-1.1 3.94-2.9 0-2.14-1.88-2.56-4.06-2.86-1.58-.22-2.98-.4-2.98-1.82 0-1.16 1.14-1.92 2.86-1.92 1.62 0 2.78.78 2.96 2.1h1.04c-.18-1.98-1.8-2.98-4-2.98-2.26-.02-3.88 1.14-3.88 2.88 0 2.04 1.88 2.42 3.96 2.7 1.7.24 3.08.46 3.08 1.96 0 1.2-1.26 1.96-2.92 1.96-1.94 0-3.2-.9-3.28-2.36h-1.04zm20.077 3.24c2.86 0 4.88-2.12 4.88-5.2 0-3.06-2.02-5.18-4.88-5.18s-4.86 2.12-4.86 5.18c0 3.08 2 5.2 4.86 5.2zm0-.92c-2.26 0-3.82-1.76-3.82-4.28 0-2.5 1.56-4.28 3.82-4.28s3.82 1.78 3.82 4.28c0 2.52-1.56 4.28-3.82 4.28zm11.586-9.46c-1.86 0-3.06.96-3.64 2.28l-.16-2.16h-.88V15h1.02v-5c0-2.64 1.34-4.32 3.5-4.32 1.96 0 3.14 1.28 3.14 3.68V15h1.02V9.32c0-3.2-1.7-4.58-4-4.58zm22.968 0c-1.86 0-3.06 1.04-3.64 2.54-.48-1.68-1.74-2.54-3.34-2.54-1.74 0-2.78 1.02-3.3 2.28l-.16-2.16h-.88V15h1.02V9.84c0-2.48 1.2-4.16 3.14-4.16 1.76 0 2.86 1.24 2.86 3.58V15h1.02V9.48c.06-2.32 1.26-3.8 3.16-3.8 1.76 0 2.82 1.18 2.82 3.48V15h1.04V9.12c0-3.06-1.62-4.38-3.74-4.38zm14.925 9.32c-.6 0-.9-.2-.9-.98V8.36c0-2.32-1.42-3.62-3.96-3.62-2.32 0-3.86 1.12-4.12 2.96h1.02c.26-1.24 1.34-2.06 3.06-2.06 1.9 0 2.98 1 2.98 2.68v.88h-3.44c-2.6 0-4 1.12-4 3.02 0 1.8 1.42 2.9 3.58 2.9 2.06 0 3.28-.94 3.9-2.2v.36c-.04 1.2.46 1.72 1.66 1.72h.6v-.94h-.38zm-1.92-3.16c0 1.94-1.38 3.34-3.78 3.34-1.62 0-2.62-.82-2.62-2.08 0-1.34 1-2.08 2.88-2.08h3.52v.82zm4.284-8.18c.4 0 .72-.3.72-.72s-.32-.72-.72-.72c-.4 0-.72.3-.72.72s.32.72.72.72zm-3.1 16.28h1.24c1.7 0 2.38-.74 2.38-2.36V4.86h-1.02v11.8c0 1-.38 1.4-1.4 1.4h-1.2V19zm10.495-3.88c2.86 0 4.88-2.12 4.88-5.2 0-3.06-2.02-5.18-4.88-5.18s-4.86 2.12-4.86 5.18c0 3.08 2 5.2 4.86 5.2zm0-.92c-2.26 0-3.82-1.76-3.82-4.28 0-2.5 1.56-4.28 3.82-4.28s3.82 1.78 3.82 4.28c0 2.52-1.56 4.28-3.82 4.28zm11.047-9.34c-1.88 0-2.68.9-3.1 2.02l-.16-2.02h-.88V15h1.02V9.86c0-2.06.54-4.02 2.92-4.02h.74v-.98h-.54zm7.622 4.36c0 3.9 1.66 5.9 5.1 5.9 3.46 0 5.14-2 5.14-5.9V1h-1.08v8.28c0 3.22-1.24 4.84-4.06 4.84-2.78 0-4.02-1.62-4.02-4.84V1h-1.08v8.22zm12.547 1.48c.14 2.64 2.06 4.42 5.2 4.42 2.94 0 4.88-1.6 4.88-3.96 0-2.66-2.36-3.34-4.68-3.74-2.14-.36-4-.72-4-2.72 0-1.82 1.42-2.84 3.62-2.84 2.1 0 3.54 1.18 3.78 3h1.1c-.2-2.4-2.02-3.98-4.88-3.98-2.84 0-4.7 1.5-4.7 3.88 0 2.66 2.28 3.26 4.52 3.64 2.2.38 4.16.82 4.16 2.86 0 1.8-1.52 2.88-3.78 2.88-2.36 0-3.96-1.36-4.1-3.44h-1.12zm17.145 1.18c.08 2.1 1.78 3.24 4.32 3.24 2.18 0 3.94-1.1 3.94-2.9 0-2.14-1.88-2.56-4.06-2.86-1.58-.22-2.98-.4-2.98-1.82 0-1.16 1.14-1.92 2.86-1.92 1.62 0 2.78.78 2.96 2.1h1.04c-.18-1.98-1.8-2.98-4-2.98-2.26-.02-3.88 1.14-3.88 2.88 0 2.04 1.88 2.42 3.96 2.7 1.7.24 3.08.46 3.08 1.96 0 1.2-1.26 1.96-2.92 1.96-1.94 0-3.2-.9-3.28-2.36h-1.04zm14.886-7.14c-1.9 0-3.08 1.06-3.66 2.52V1h-1.02v14h1.02v-5c0-2.64 1.34-4.32 3.5-4.32 1.94 0 3.14 1.28 3.14 3.68V15h1.02V9.32c0-3.2-1.7-4.58-4-4.58zm15.197 9.32c-.6 0-.9-.2-.9-.98V8.36c0-2.32-1.42-3.62-3.96-3.62-2.32 0-3.86 1.12-4.12 2.96h1.02c.26-1.24 1.34-2.06 3.06-2.06 1.9 0 2.98 1 2.98 2.68v.88h-3.44c-2.6 0-4 1.12-4 3.02 0 1.8 1.42 2.9 3.58 2.9 2.06 0 3.28-.94 3.9-2.2v.36c-.04 1.2.46 1.72 1.66 1.72h.6v-.94h-.38zm-1.92-3.16c0 1.94-1.38 3.34-3.78 3.34-1.62 0-2.62-.82-2.62-2.08 0-1.34 1-2.08 2.88-2.08h3.52v.82zm7.804-6.04c-1.88 0-2.68.9-3.1 2.02l-.16-2.02h-.88V15h1.02V9.86c0-2.06.54-4.02 2.92-4.02h.74v-.98h-.54zm5.809 10.26c2.22 0 3.92-1.44 4.36-3.48h-1.04c-.4 1.58-1.74 2.56-3.4 2.56-2.26 0-3.68-1.72-3.72-4.08v-.18h8.28c0-.14.02-.3.02-.42-.1-3.02-1.96-4.78-4.68-4.78-2.78 0-4.68 2.12-4.68 5.12 0 3.18 1.98 5.26 4.86 5.26zm-3.72-6.04c.16-2.06 1.7-3.44 3.56-3.44 1.98 0 3.4 1.22 3.56 3.44h-7.12zm9.756 2.8c.08 2.1 1.78 3.24 4.32 3.24 2.18 0 3.94-1.1 3.94-2.9 0-2.14-1.88-2.56-4.06-2.86-1.58-.22-2.98-.4-2.98-1.82 0-1.16 1.14-1.92 2.86-1.92 1.62 0 2.78.78 2.96 2.1h1.04c-.18-1.98-1.8-2.98-4-2.98-2.26-.02-3.88 1.14-3.88 2.88 0 2.04 1.88 2.42 3.96 2.7 1.7.24 3.08.46 3.08 1.96 0 1.2-1.26 1.96-2.92 1.96-1.94 0-3.2-.9-3.28-2.36h-1.04zm21.757 3.24c3 0 5.12-1.62 5.72-4.44h-1.14c-.6 2.24-2.22 3.44-4.6 3.44-3.24 0-5.28-2.54-5.28-6.12s2.08-6.12 5.32-6.12c2.34 0 3.98 1.22 4.6 3.42h1.14c-.62-2.8-2.74-4.42-5.68-4.42-3.94 0-6.5 2.92-6.5 7.12 0 4.24 2.5 7.12 6.42 7.12zm8.045-.12h1.08V8.54h6.04v-1h-6.04V2h7.24V1h-8.32v14zm14.295 0c4.44 0 7.04-2.76 7.04-7 0-4.26-2.6-7-7.04-7h-4.08v14h4.08zm-3-13h3c3.82 0 5.94 2.32 5.94 6 0 3.66-2.12 6-5.94 6h-3V2zm11.735 9.88c.08 2.1 1.78 3.24 4.32 3.24 2.18 0 3.94-1.1 3.94-2.9 0-2.14-1.88-2.56-4.06-2.86-1.58-.22-2.98-.4-2.98-1.82 0-1.16 1.14-1.92 2.86-1.92 1.62 0 2.78.78 2.96 2.1h1.04c-.18-1.98-1.8-2.98-4-2.98-2.26-.02-3.88 1.14-3.88 2.88 0 2.04 1.88 2.42 3.96 2.7 1.7.24 3.08.46 3.08 1.96 0 1.2-1.26 1.96-2.92 1.96-1.94 0-3.2-.9-3.28-2.36h-1.04z" fill="#000"/></svg>