<svg width="349" height="22" viewBox="0 0 349 22" fill="none" xmlns="http://www.w3.org/2000/svg"><path d="M.48 1.4h5.76V17h1.296V1.4h5.76V.2H.48v1.2zm18.397 3.432c-2.256 0-3.216 1.08-3.72 2.424l-.192-2.424h-1.056V17h1.224v-6.168c0-2.472.648-4.824 3.504-4.824h.888V4.832h-.648zm12.65 11.04c-.72 0-1.08-.24-1.08-1.176V9.032c0-2.784-1.704-4.344-4.752-4.344-2.784 0-4.632 1.344-4.944 3.552h1.224c.312-1.488 1.608-2.472 3.672-2.472 2.28 0 3.576 1.2 3.576 3.216v1.056h-4.128c-3.12 0-4.8 1.344-4.8 3.624 0 2.16 1.704 3.48 4.296 3.48 2.472 0 3.936-1.128 4.68-2.64v.432c-.048 1.44.552 2.064 1.992 2.064h.72v-1.128h-.456zm-2.304-3.792c0 2.328-1.656 4.008-4.536 4.008-1.944 0-3.144-.984-3.144-2.496 0-1.608 1.2-2.496 3.456-2.496h4.224v.984zm14.145-4.512c-.744-1.728-2.376-2.88-4.656-2.88-3.336 0-5.736 2.544-5.736 6.216 0 3.84 2.4 6.24 5.736 6.24 2.28 0 3.864-1.224 4.632-2.928L43.536 17h1.056V.2h-1.224v7.368zm-4.56 8.472c-2.712 0-4.584-2.112-4.584-5.136 0-3 1.872-5.136 4.584-5.136 2.712 0 4.584 2.136 4.584 5.16 0 3-1.872 5.112-4.584 5.112zm14.04 1.104c2.663 0 4.703-1.728 5.231-4.176h-1.248c-.48 1.896-2.088 3.072-4.08 3.072-2.712 0-4.416-2.064-4.464-4.896v-.216h9.936c0-.168.024-.36.024-.504-.12-3.624-2.352-5.736-5.616-5.736-3.336 0-5.616 2.544-5.616 6.144 0 3.816 2.376 6.312 5.832 6.312zm-4.465-7.248c.192-2.472 2.04-4.128 4.272-4.128 2.376 0 4.08 1.464 4.272 4.128h-8.544zM70.783 17l-.792 1.968c-.552 1.344-.768 1.704-2.016 1.704H66.44V21.8h1.872c1.632 0 2.016-.624 2.784-2.544l5.832-14.424h-1.32l-4.152 10.584-4.224-10.584h-1.32L70.783 17zm12.65.144c3.432 0 5.856-2.544 5.856-6.24 0-3.672-2.424-6.216-5.856-6.216s-5.832 2.544-5.832 6.216c0 3.696 2.4 6.24 5.832 6.24zm0-1.104c-2.712 0-4.584-2.112-4.584-5.136 0-3 1.872-5.136 4.584-5.136 2.712 0 4.584 2.136 4.584 5.136 0 3.024-1.872 5.136-4.584 5.136zm17.12-5.232c0 3.192-1.584 5.208-4.104 5.208-2.256 0-3.648-1.536-3.648-4.44V4.832h-1.224v6.816c0 3.816 1.992 5.496 4.68 5.496 2.16 0 3.576-1.152 4.272-2.712l.168 2.568h1.08V4.832h-1.224v5.976zm9.074-5.976c-2.256 0-3.216 1.08-3.72 2.424l-.192-2.424h-1.056V17h1.224v-6.168c0-2.472.648-4.824 3.504-4.824h.888V4.832h-.648zm7.538 1.128h2.304V17h1.224V5.96h3.648V4.832h-3.648V3.008c0-1.2.456-1.68 1.68-1.68h1.992V.2h-2.04c-2.04 0-2.856.888-2.856 2.832v1.8h-2.304V5.96zm18.94 9.912c-.72 0-1.08-.24-1.08-1.176V9.032c0-2.784-1.704-4.344-4.752-4.344-2.784 0-4.632 1.344-4.944 3.552h1.224c.312-1.488 1.608-2.472 3.672-2.472 2.28 0 3.576 1.2 3.576 3.216v1.056h-4.128c-3.12 0-4.8 1.344-4.8 3.624 0 2.16 1.704 3.48 4.296 3.48 2.472 0 3.936-1.128 4.68-2.64v.432c-.048 1.44.552 2.064 1.992 2.064h.72v-1.128h-.456zm-2.304-3.792c0 2.328-1.656 4.008-4.536 4.008-1.944 0-3.144-.984-3.144-2.496 0-1.608 1.2-2.496 3.456-2.496h4.224v.984zm7.526 4.92h1.464l4.752-12.168h-1.272l-4.176 10.752-4.2-10.752h-1.32L141.327 17zm12.747.144c3.432 0 5.856-2.544 5.856-6.24 0-3.672-2.424-6.216-5.856-6.216s-5.832 2.544-5.832 6.216c0 3.696 2.4 6.24 5.832 6.24zm0-1.104c-2.712 0-4.584-2.112-4.584-5.136 0-3 1.872-5.136 4.584-5.136 2.712 0 4.584 2.136 4.584 5.136 0 3.024-1.872 5.136-4.584 5.136zm17.12-5.232c0 3.192-1.584 5.208-4.104 5.208-2.256 0-3.648-1.536-3.648-4.44V4.832h-1.224v6.816c0 3.816 1.992 5.496 4.68 5.496 2.16 0 3.576-1.152 4.272-2.712l.168 2.568h1.08V4.832h-1.224v5.976zm9.073-5.976c-2.256 0-3.216 1.08-3.72 2.424l-.192-2.424h-1.056V17h1.224v-6.168c0-2.472.648-4.824 3.504-4.824h.888V4.832h-.648zm3.086-2.568c.48 0 .864-.36.864-.864a.846.846 0 00-.864-.864c-.48 0-.864.36-.864.864s.384.864.864.864zM182.729 17h1.224V4.832h-1.224V17zm5.014-2.832c0 1.944.792 2.832 2.856 2.832h1.776v-1.128h-1.68c-1.272 0-1.728-.48-1.728-1.728V5.96h3.288V4.832h-3.288V1.424h-1.224v3.408h-2.304V5.96h2.304v8.208zm11.495 2.976c2.664 0 4.704-1.728 5.232-4.176h-1.248c-.48 1.896-2.088 3.072-4.08 3.072-2.712 0-4.416-2.064-4.464-4.896v-.216h9.936c0-.168.024-.36.024-.504-.12-3.624-2.352-5.736-5.616-5.736-3.336 0-5.616 2.544-5.616 6.144 0 3.816 2.376 6.312 5.832 6.312zm-4.464-7.248c.192-2.472 2.04-4.128 4.272-4.128 2.376 0 4.08 1.464 4.272 4.128h-8.544zm19.664 4.272c0 1.944.792 2.832 2.856 2.832h1.776v-1.128h-1.68c-1.272 0-1.728-.48-1.728-1.728V5.96h3.288V4.832h-3.288V1.424h-1.224v3.408h-2.304V5.96h2.304v8.208zm11.495 2.976c2.664 0 4.704-1.728 5.232-4.176h-1.248c-.48 1.896-2.088 3.072-4.08 3.072-2.712 0-4.416-2.064-4.464-4.896v-.216h9.936c0-.168.024-.36.024-.504-.12-3.624-2.352-5.736-5.616-5.736-3.336 0-5.616 2.544-5.616 6.144 0 3.816 2.376 6.312 5.832 6.312zm-4.464-7.248c.192-2.472 2.04-4.128 4.272-4.128 2.376 0 4.08 1.464 4.272 4.128h-8.544zm17.588 7.248c2.76 0 4.704-1.584 5.184-4.056h-1.296c-.408 1.8-1.872 2.952-3.888 2.952-2.664 0-4.512-2.088-4.512-5.112s1.824-5.16 4.512-5.16c2.04 0 3.48 1.152 3.912 2.976h1.272c-.504-2.52-2.4-4.056-5.16-4.056-3.432 0-5.784 2.544-5.784 6.24 0 3.744 2.328 6.216 5.76 6.216zm13.179-12.456c-2.28 0-3.696 1.272-4.392 3.024V.2h-1.224V17h1.224v-6c0-3.168 1.608-5.184 4.2-5.184 2.328 0 3.768 1.536 3.768 4.416V17h1.224v-6.816c0-3.84-2.04-5.496-4.8-5.496zm27.585 0c-2.232 0-3.672 1.248-4.368 3.048-.576-2.016-2.088-3.048-4.008-3.048-2.088 0-3.336 1.224-3.96 2.736l-.192-2.592h-1.056V17h1.224v-6.192c0-2.976 1.44-4.992 3.768-4.992 2.112 0 3.432 1.488 3.432 4.296V17h1.224v-6.624c.072-2.784 1.512-4.56 3.792-4.56 2.112 0 3.384 1.416 3.384 4.176V17h1.248V9.944c0-3.672-1.944-5.256-4.488-5.256zm17.909 11.184c-.72 0-1.08-.24-1.08-1.176V9.032c0-2.784-1.704-4.344-4.752-4.344-2.784 0-4.632 1.344-4.944 3.552h1.224c.312-1.488 1.608-2.472 3.672-2.472 2.28 0 3.576 1.2 3.576 3.216v1.056h-4.128c-3.12 0-4.8 1.344-4.8 3.624 0 2.16 1.704 3.48 4.296 3.48 2.472 0 3.936-1.128 4.68-2.64v.432c-.048 1.44.552 2.064 1.992 2.064h.72v-1.128h-.456zm-2.304-3.792c0 2.328-1.656 4.008-4.536 4.008-1.944 0-3.144-.984-3.144-2.496 0-1.608 1.2-2.496 3.456-2.496h4.224v.984zm9.365-7.248c-2.256 0-3.216 1.08-3.72 2.424l-.192-2.424h-1.056V17h1.224v-6.168c0-2.472.648-4.824 3.504-4.824h.888V4.832h-.648zM307.253 17h1.224v-3.288l2.856-2.928L315.989 17h1.488l-5.304-7.104 4.896-5.064h-1.512l-7.08 7.296V.2h-1.224V17zm16.579.144c2.664 0 4.704-1.728 5.232-4.176h-1.248c-.48 1.896-2.088 3.072-4.08 3.072-2.712 0-4.416-2.064-4.464-4.896v-.216h9.936c0-.168.024-.36.024-.504-.12-3.624-2.352-5.736-5.616-5.736-3.336 0-5.616 2.544-5.616 6.144 0 3.816 2.376 6.312 5.832 6.312zm-4.464-7.248c.192-2.472 2.04-4.128 4.272-4.128 2.376 0 4.08 1.464 4.272 4.128h-8.544zm13.007 4.272c0 1.944.792 2.832 2.856 2.832h1.776v-1.128h-1.68c-1.272 0-1.728-.48-1.728-1.728V5.96h3.288V4.832h-3.288V1.424h-1.224v3.408h-2.304V5.96h2.304v8.208zm5.943-.912c.096 2.52 2.136 3.888 5.184 3.888 2.616 0 4.728-1.32 4.728-3.48 0-2.568-2.256-3.072-4.872-3.432-1.896-.264-3.576-.48-3.576-2.184 0-1.392 1.368-2.304 3.432-2.304 1.944 0 3.336.936 3.552 2.52h1.248c-.216-2.376-2.16-3.576-4.8-3.576-2.712-.024-4.656 1.368-4.656 3.456 0 2.448 2.256 2.904 4.752 3.24 2.04.288 3.696.552 3.696 2.352 0 1.44-1.512 2.352-3.504 2.352-2.328 0-3.84-1.08-3.936-2.832h-1.248z" fill="#000"/></svg>