<svg width="600" height="91" viewBox="0 0 600 91" fill="none" xmlns="http://www.w3.org/2000/svg"><path d="M3.332 59.21h3.984V70h.896V59.21h3.984v-.83H3.332v.83zm12.724 2.374c-1.56 0-2.224.747-2.573 1.676l-.132-1.676h-.73V70h.846v-4.266c0-1.71.448-3.337 2.423-3.337h.615v-.813h-.449zm8.75 7.636c-.498 0-.747-.166-.747-.814V64.49c0-1.926-1.179-3.005-3.287-3.005-1.925 0-3.204.93-3.42 2.457h.847c.216-1.03 1.112-1.71 2.54-1.71 1.577 0 2.473.83 2.473 2.225v.73h-2.855c-2.158 0-3.32.93-3.32 2.507 0 1.494 1.179 2.407 2.972 2.407 1.71 0 2.722-.78 3.237-1.826v.298c-.034.996.381 1.428 1.377 1.428h.498v-.78h-.315zm-1.594-2.623c0 1.61-1.145 2.772-3.137 2.772-1.345 0-2.175-.68-2.175-1.726 0-1.112.83-1.727 2.39-1.727h2.922v.681zm9.784-3.12c-.514-1.196-1.643-1.993-3.22-1.993-2.308 0-3.968 1.76-3.968 4.3 0 2.656 1.66 4.316 3.968 4.316 1.577 0 2.673-.847 3.204-2.026L33.113 70h.73V58.38h-.847v5.096zm-3.154 5.859c-1.875 0-3.17-1.46-3.17-3.552 0-2.075 1.294-3.553 3.17-3.553s3.17 1.478 3.17 3.57c0 2.074-1.294 3.535-3.17 3.535zm9.71.764c1.843 0 3.254-1.196 3.62-2.889h-.864c-.332 1.312-1.444 2.125-2.822 2.125-1.875 0-3.054-1.428-3.087-3.386v-.15h6.872c0-.116.017-.249.017-.348-.083-2.507-1.627-3.968-3.885-3.968-2.307 0-3.884 1.76-3.884 4.25 0 2.64 1.643 4.366 4.034 4.366zm-3.087-5.014c.133-1.71 1.411-2.855 2.955-2.855 1.643 0 2.822 1.013 2.955 2.855h-5.91zm13.12.117c0 3.237 1.377 4.897 4.233 4.897 2.872 0 4.266-1.66 4.266-4.897V58.38h-.897v6.872c0 2.673-1.029 4.018-3.37 4.018-2.307 0-3.336-1.345-3.336-4.018V58.38h-.896v6.823zm10.414 1.228c.116 2.191 1.71 3.669 4.316 3.669 2.44 0 4.05-1.328 4.05-3.287 0-2.208-1.958-2.772-3.884-3.104-1.776-.3-3.32-.598-3.32-2.258 0-1.51 1.179-2.357 3.005-2.357 1.743 0 2.938.98 3.137 2.49h.913c-.166-1.992-1.676-3.304-4.05-3.304-2.357 0-3.901 1.245-3.901 3.22 0 2.209 1.892 2.707 3.751 3.022 1.826.315 3.453.68 3.453 2.374 0 1.494-1.261 2.39-3.137 2.39-1.959 0-3.287-1.129-3.403-2.855h-.93zm15.243 1.61c0 1.345.547 1.959 1.975 1.959h1.228v-.78h-1.162c-.88 0-1.195-.332-1.195-1.195v-5.661h2.274v-.78h-2.274v-2.357h-.846v2.357h-1.594v.78h1.594v5.677zm7.95 2.059c1.843 0 3.254-1.196 3.62-2.889h-.864c-.332 1.312-1.444 2.125-2.822 2.125-1.876 0-3.054-1.428-3.088-3.386v-.15h6.873c0-.116.016-.249.016-.348-.083-2.507-1.626-3.968-3.884-3.968-2.307 0-3.884 1.76-3.884 4.25 0 2.64 1.643 4.366 4.033 4.366zm-3.087-5.014c.133-1.71 1.41-2.855 2.955-2.855 1.643 0 2.822 1.013 2.954 2.855h-5.91zM92.269 70.1c1.91 0 3.254-1.096 3.586-2.806h-.896c-.282 1.245-1.295 2.042-2.69 2.042-1.842 0-3.12-1.444-3.12-3.536 0-2.091 1.261-3.569 3.12-3.569 1.411 0 2.407.797 2.706 2.059h.88c-.349-1.743-1.66-2.806-3.569-2.806-2.374 0-4 1.76-4 4.316 0 2.59 1.61 4.3 3.983 4.3zm9.116-8.616c-1.577 0-2.556.88-3.038 2.092V58.38h-.846V70h.846v-4.15c0-2.191 1.113-3.586 2.905-3.586 1.61 0 2.606 1.063 2.606 3.055V70h.847v-4.714c0-2.656-1.411-3.802-3.32-3.802zm13.403 8.616c1.842 0 3.253-1.196 3.618-2.889h-.863c-.332 1.312-1.444 2.125-2.822 2.125-1.876 0-3.054-1.428-3.087-3.386v-.15h6.872c0-.116.017-.249.017-.348-.083-2.507-1.627-3.968-3.885-3.968-2.307 0-3.884 1.76-3.884 4.25 0 2.64 1.643 4.366 4.034 4.366zm-3.088-5.014c.133-1.71 1.411-2.855 2.955-2.855 1.643 0 2.822 1.013 2.955 2.855h-5.91zm15.9 4.134c-.498 0-.747-.166-.747-.814V64.49c0-1.926-1.179-3.005-3.287-3.005-1.926 0-3.204.93-3.42 2.457h.847c.216-1.03 1.112-1.71 2.54-1.71 1.577 0 2.473.83 2.473 2.225v.73h-2.855c-2.158 0-3.32.93-3.32 2.507 0 1.494 1.178 2.407 2.971 2.407 1.71 0 2.723-.78 3.237-1.826v.298c-.033.996.382 1.428 1.378 1.428h.498v-.78h-.315zm-1.594-2.623c0 1.61-1.145 2.772-3.137 2.772-1.345 0-2.175-.68-2.175-1.726 0-1.112.83-1.727 2.39-1.727h2.922v.681zm6.477-5.013c-1.56 0-2.224.747-2.573 1.676l-.132-1.676h-.731V70h.847v-4.266c0-1.71.448-3.337 2.423-3.337h.615v-.813h-.449zm5.587-.1c-1.543 0-2.539.797-3.021 1.893l-.133-1.793h-.73V70h.847v-4.15c0-2.191 1.112-3.586 2.905-3.586 1.626 0 2.606 1.063 2.606 3.055V70h.846v-4.714c0-2.656-1.411-3.802-3.32-3.802zm5.626-1.676a.584.584 0 00.597-.598.584.584 0 00-.597-.598.585.585 0 00-.598.598c0 .349.266.598.598.598zM143.264 70h.847v-8.416h-.847V70zm6.721-8.516c-1.543 0-2.539.797-3.021 1.893l-.133-1.793h-.73V70h.847v-4.15c0-2.191 1.112-3.586 2.905-3.586 1.626 0 2.606 1.063 2.606 3.055V70h.846v-4.714c0-2.656-1.411-3.802-3.32-3.802zm12.05 2.059c-.515-1.245-1.643-2.059-3.204-2.059-2.307 0-3.967 1.743-3.967 4.3 0 2.656 1.66 4.316 3.967 4.316 1.577 0 2.689-.83 3.221-2.142v1.494c0 2.241-1.063 3.204-3.088 3.204-1.577 0-2.673-.714-2.938-1.992h-.88c.266 1.793 1.71 2.756 3.752 2.756 2.722 0 4-1.295 4-3.935v-7.901h-.73l-.133 1.959zm-3.137 5.793c-1.876 0-3.171-1.46-3.171-3.552s1.295-3.553 3.171-3.553c1.875 0 3.17 1.461 3.17 3.57 0 2.074-1.295 3.535-3.17 3.535zm5.61-1.926c.066 1.743 1.477 2.69 3.585 2.69 1.81 0 3.271-.913 3.271-2.407 0-1.777-1.561-2.125-3.37-2.374-1.312-.183-2.474-.332-2.474-1.51 0-.964.947-1.594 2.374-1.594 1.345 0 2.308.647 2.457 1.743h.863c-.149-1.644-1.494-2.474-3.32-2.474-1.876-.016-3.22.946-3.22 2.39 0 1.694 1.56 2.01 3.287 2.242 1.411.199 2.556.381 2.556 1.626 0 .996-1.046 1.627-2.424 1.627-1.61 0-2.656-.747-2.722-1.959h-.863zM179.495 70h.913l2.49-7.072L185.272 70h.913l2.988-8.416h-.864l-2.589 7.403-2.407-7.403h-.78l-2.54 7.403-2.457-7.403h-.896L179.495 70zm11.294-10.192a.584.584 0 00.597-.598.584.584 0 00-.597-.598.585.585 0 00-.598.598c0 .349.266.598.598.598zM190.357 70h.847v-8.416h-.847V70zm3.468-1.959c0 1.345.547 1.959 1.975 1.959h1.228v-.78h-1.162c-.879 0-1.195-.332-1.195-1.195v-5.661h2.274v-.78h-2.274v-2.357h-.846v2.357h-1.594v.78h1.594v5.677zm8.376-6.557c-1.577 0-2.556.88-3.038 2.092V58.38h-.846V70h.846v-4.15c0-2.191 1.112-3.586 2.905-3.586 1.61 0 2.606 1.063 2.606 3.055V70h.847v-4.714c0-2.656-1.411-3.802-3.32-3.802zm13.402 8.616c1.843 0 3.254-1.196 3.619-2.889h-.863c-.332 1.312-1.444 2.125-2.822 2.125-1.876 0-3.054-1.428-3.088-3.386v-.15h6.873c0-.116.016-.249.016-.348-.083-2.507-1.626-3.968-3.884-3.968-2.307 0-3.884 1.76-3.884 4.25 0 2.64 1.643 4.366 4.033 4.366zm-3.087-5.014c.133-1.71 1.411-2.855 2.955-2.855 1.643 0 2.822 1.013 2.954 2.855h-5.909zM219.824 70h.979l2.789-3.702L226.381 70h1.029l-3.27-4.3 3.104-4.116h-.963l-2.656 3.486-2.623-3.486h-1.012l3.104 4.117-3.27 4.299zm9.422-1.959c0 1.345.547 1.959 1.975 1.959h1.228v-.78h-1.162c-.879 0-1.195-.332-1.195-1.195v-5.661h2.274v-.78h-2.274v-2.357h-.846v2.357h-1.594v.78h1.594v5.677zm7.95 2.059c1.843 0 3.254-1.196 3.619-2.889h-.863c-.332 1.312-1.444 2.125-2.822 2.125-1.876 0-3.054-1.428-3.088-3.386v-.15h6.873c0-.116.016-.249.016-.348-.083-2.507-1.626-3.968-3.884-3.968-2.307 0-3.884 1.76-3.884 4.25 0 2.64 1.643 4.366 4.033 4.366zm-3.087-5.014c.133-1.71 1.411-2.855 2.955-2.855 1.643 0 2.822 1.013 2.954 2.855h-5.909zm12.38-3.602c-1.544 0-2.54.797-3.021 1.893l-.133-1.793h-.73V70h.846v-4.15c0-2.191 1.113-3.586 2.905-3.586 1.627 0 2.607 1.063 2.607 3.055V70h.846v-4.714c0-2.656-1.411-3.802-3.32-3.802zm11.937 1.992c-.515-1.195-1.644-1.992-3.221-1.992-2.307 0-3.967 1.76-3.967 4.3 0 2.656 1.66 4.316 3.967 4.316 1.577 0 2.673-.847 3.204-2.026l.133 1.926h.73V58.38h-.846v5.096zm-3.154 5.86c-1.876 0-3.171-1.46-3.171-3.552 0-2.075 1.295-3.553 3.171-3.553 1.875 0 3.17 1.478 3.17 3.57 0 2.074-1.295 3.535-3.17 3.535zm9.71.764c1.843 0 3.254-1.196 3.619-2.889h-.863c-.332 1.312-1.445 2.125-2.822 2.125-1.876 0-3.055-1.428-3.088-3.386v-.15h6.872c0-.116.017-.249.017-.348-.083-2.507-1.627-3.968-3.884-3.968-2.308 0-3.885 1.76-3.885 4.25 0 2.64 1.644 4.366 4.034 4.366zm-3.088-5.014c.133-1.71 1.411-2.855 2.955-2.855 1.644 0 2.822 1.013 2.955 2.855h-5.91zm15.369-1.61c-.515-1.195-1.644-1.992-3.221-1.992-2.307 0-3.967 1.76-3.967 4.3 0 2.656 1.66 4.316 3.967 4.316 1.577 0 2.673-.847 3.204-2.026l.133 1.926h.73V58.38h-.846v5.096zm-3.154 5.86c-1.876 0-3.171-1.46-3.171-3.552 0-2.075 1.295-3.553 3.171-3.553s3.17 1.478 3.17 3.57c0 2.074-1.294 3.535-3.17 3.535zm14.35-7.852c-1.577 0-2.556.88-3.037 2.092V58.38h-.847V70h.847v-4.15c0-2.191 1.112-3.586 2.905-3.586 1.61 0 2.606 1.063 2.606 3.055V70h.846v-4.714c0-2.656-1.411-3.802-3.32-3.802zm8.799 8.616c2.374 0 4.05-1.76 4.05-4.316 0-2.54-1.676-4.3-4.05-4.3-2.374 0-4.034 1.76-4.034 4.3 0 2.556 1.66 4.316 4.034 4.316zm0-.764c-1.876 0-3.171-1.46-3.171-3.552 0-2.075 1.295-3.553 3.171-3.553s3.171 1.478 3.171 3.553c0 2.091-1.295 3.552-3.171 3.552zm11.841-3.619c0 2.208-1.095 3.602-2.838 3.602-1.561 0-2.523-1.062-2.523-3.07v-4.665h-.847v4.714c0 2.64 1.378 3.802 3.237 3.802 1.494 0 2.473-.797 2.955-1.876l.116 1.776h.747v-8.416h-.847v4.133zm6.276-4.133c-1.56 0-2.224.747-2.573 1.676l-.133-1.676h-.73V70h.847v-4.266c0-1.71.448-3.337 2.423-3.337h.614v-.813h-.448zm1.11 5.826c.067 1.743 1.478 2.69 3.586 2.69 1.809 0 3.27-.913 3.27-2.407 0-1.777-1.56-2.125-3.37-2.374-1.311-.183-2.473-.332-2.473-1.51 0-.964.946-1.594 2.374-1.594 1.344 0 2.307.647 2.456 1.743h.864c-.15-1.644-1.494-2.474-3.32-2.474-1.876-.016-3.221.946-3.221 2.39 0 1.694 1.561 2.01 3.287 2.242 1.411.199 2.556.381 2.556 1.626 0 .996-1.045 1.627-2.423 1.627-1.61 0-2.656-.747-2.723-1.959h-.863zm20.349 1.81c-.498 0-.747-.166-.747-.814V64.49c0-1.926-1.178-3.005-3.287-3.005-1.925 0-3.203.93-3.419 2.457h.846c.216-1.03 1.113-1.71 2.54-1.71 1.577 0 2.474.83 2.474 2.225v.73h-2.856c-2.158 0-3.32.93-3.32 2.507 0 1.494 1.179 2.407 2.972 2.407 1.71 0 2.722-.78 3.237-1.826v.298c-.033.996.382 1.428 1.378 1.428h.498v-.78h-.316zm-1.593-2.623c0 1.61-1.146 2.772-3.138 2.772-1.344 0-2.174-.68-2.174-1.726 0-1.112.83-1.727 2.39-1.727h2.922v.681zm6.925-5.113c-1.544 0-2.54.797-3.021 1.893l-.133-1.793h-.73V70h.846v-4.15c0-2.191 1.113-3.586 2.905-3.586 1.627 0 2.607 1.063 2.607 3.055V70h.846v-4.714c0-2.656-1.411-3.802-3.32-3.802zm11.937 1.992c-.515-1.195-1.644-1.992-3.221-1.992-2.307 0-3.967 1.76-3.967 4.3 0 2.656 1.66 4.316 3.967 4.316 1.577 0 2.673-.847 3.204-2.026l.133 1.926h.73V58.38h-.846v5.096zm-3.154 5.86c-1.876 0-3.171-1.46-3.171-3.552 0-2.075 1.295-3.553 3.171-3.553 1.875 0 3.17 1.478 3.17 3.57 0 2.074-1.295 3.535-3.17 3.535zm15.28-6.026c-1.826-.315-3.021-.564-3.021-1.76 0-1.095.913-1.66 2.224-1.66 1.411 0 2.341.797 2.49 1.976h1.909c-.066-1.876-1.345-3.204-3.436-3.52v-1.759h-1.61v1.727c-2.109.215-3.486 1.527-3.486 3.37 0 2.307 1.826 2.921 3.751 3.253 1.843.332 3.055.598 3.055 1.826 0 1.112-.996 1.726-2.374 1.726-1.627 0-2.689-.913-2.789-2.274l-1.926-.033c.067 2.058 1.445 3.552 3.769 3.851v1.743h1.61v-1.71c2.174-.232 3.619-1.61 3.619-3.502.016-2.291-1.86-2.905-3.785-3.254zm5.05 1.146c0 3.502 1.876 5.644 4.582 5.644 2.705 0 4.581-2.142 4.581-5.644v-.532c0-3.37-1.876-5.644-4.581-5.644-2.706 0-4.582 2.275-4.582 5.644v.532zm7.304-.067c0 2.606-1.096 4.1-2.722 4.1-1.627 0-2.723-1.494-2.723-4.1v-.398c0-2.59 1.096-4.1 2.723-4.1 1.626 0 2.722 1.51 2.722 4.1v.398zm11.533 5.71c2.174 0 3.619-1.211 3.951-3.137h-1.893c-.216.98-.946 1.61-2.042 1.61-1.444 0-2.39-1.145-2.39-2.805 0-1.677.946-2.839 2.39-2.839 1.113 0 1.826.615 2.059 1.61h1.876c-.349-1.925-1.71-3.137-3.901-3.137-2.573 0-4.267 1.743-4.267 4.366 0 2.656 1.644 4.333 4.217 4.333zm9.34 0c2.59 0 4.333-1.742 4.333-4.349 0-2.59-1.743-4.349-4.333-4.349s-4.333 1.76-4.333 4.35c0 2.606 1.743 4.349 4.333 4.349zm0-1.527c-1.511 0-2.49-1.178-2.49-2.822 0-1.643.979-2.822 2.49-2.822 1.511 0 2.507 1.179 2.507 2.822 0 1.644-.996 2.822-2.507 2.822zm15.552-7.17c-1.395 0-2.358.613-2.905 1.543-.515-1.096-1.511-1.544-2.623-1.544-1.278.017-2.009.581-2.49 1.212l-.199-1.112h-1.561V70h1.793v-4.548c0-1.511.764-2.507 1.992-2.507 1.179 0 1.793.78 1.793 2.274V70h1.809v-4.598c0-1.527.78-2.457 2.009-2.457 1.162 0 1.776.78 1.776 2.274V70h1.793v-4.897c0-2.69-1.428-3.702-3.187-3.702zm14.589 0c-1.394 0-2.357.613-2.905 1.543-.514-1.096-1.51-1.544-2.622-1.544-1.279.017-2.009.581-2.49 1.212l-.2-1.112h-1.56V70h1.793v-4.548c0-1.511.763-2.507 1.992-2.507 1.178 0 1.793.78 1.793 2.274V70h1.809v-4.598c0-1.527.78-2.457 2.009-2.457 1.162 0 1.776.78 1.776 2.274V70h1.793v-4.897c0-2.69-1.428-3.702-3.188-3.702zm5.726-1.096c.614 0 1.095-.449 1.095-1.08 0-.63-.481-1.078-1.095-1.078s-1.096.448-1.096 1.079c0 .63.482 1.079 1.096 1.079zM434.41 70h1.793v-8.5h-1.793V70zm3.185-2.805c.05 1.842 1.61 2.905 3.884 2.905 2.059 0 3.602-1.03 3.602-2.656 0-1.893-1.577-2.291-3.519-2.524-1.228-.132-2.042-.232-2.042-1.029 0-.68.698-1.112 1.76-1.112s1.793.548 1.892 1.328h1.76c-.116-1.743-1.594-2.706-3.685-2.706-2.042-.016-3.486 1.03-3.486 2.64 0 1.76 1.527 2.174 3.469 2.407 1.312.166 2.092.232 2.092 1.145 0 .68-.731 1.112-1.843 1.112-1.295 0-2.058-.63-2.125-1.51h-1.759zm8.349 0c.049 1.842 1.61 2.905 3.884 2.905 2.058 0 3.602-1.03 3.602-2.656 0-1.893-1.577-2.291-3.519-2.524-1.228-.132-2.042-.232-2.042-1.029 0-.68.697-1.112 1.76-1.112 1.062 0 1.793.548 1.892 1.328h1.76c-.116-1.743-1.594-2.706-3.685-2.706-2.042-.016-3.486 1.03-3.486 2.64 0 1.76 1.527 2.174 3.469 2.407 1.311.166 2.092.232 2.092 1.145 0 .68-.731 1.112-1.843 1.112-1.295 0-2.058-.63-2.125-1.51h-1.759zm9.788-6.89c.615 0 1.096-.448 1.096-1.078 0-.631-.481-1.08-1.096-1.08-.614 0-1.095.449-1.095 1.08 0 .63.481 1.079 1.095 1.079zM454.819 70h1.793v-8.5h-1.793V70zm7.568.1c2.589 0 4.332-1.743 4.332-4.35 0-2.59-1.743-4.349-4.332-4.349-2.59 0-4.333 1.76-4.333 4.35 0 2.606 1.743 4.349 4.333 4.349zm0-1.528c-1.511 0-2.49-1.178-2.49-2.822 0-1.643.979-2.822 2.49-2.822 1.51 0 2.506 1.179 2.506 2.822 0 1.644-.996 2.822-2.506 2.822zm10.256-7.17c-1.378 0-2.191.547-2.722 1.211l-.2-1.112h-1.56V70h1.793v-4.283c0-1.726.846-2.772 2.274-2.772 1.345 0 2.025.863 2.025 2.473V70h1.81v-4.731c0-2.839-1.544-3.868-3.42-3.868zm4.685 5.793c.05 1.842 1.61 2.905 3.884 2.905 2.059 0 3.602-1.03 3.602-2.656 0-1.893-1.577-2.291-3.519-2.524-1.228-.132-2.042-.232-2.042-1.029 0-.68.698-1.112 1.76-1.112s1.793.548 1.892 1.328h1.76c-.116-1.743-1.594-2.706-3.685-2.706-2.042-.016-3.486 1.03-3.486 2.64 0 1.76 1.527 2.174 3.469 2.407 1.312.166 2.092.232 2.092 1.145 0 .68-.731 1.112-1.843 1.112-1.295 0-2.058-.63-2.125-1.51h-1.759zm8.892 2.257c0 .382.266.631.631.631s.631-.249.631-.63c0-.383-.266-.615-.631-.615s-.631.232-.631.614zM305.093 39h2.801l2.681-8.33L313.16 39h2.776l4.07-12.256h-2.633l-2.897 9.384-2.681-9.384h-2.369l-2.801 9.384-2.8-9.384h-2.729L305.093 39zm22.712-12.4c-1.914 0-3.087.862-3.853 1.916v-6.272h-2.585V39h2.585v-6.2c0-2.465 1.244-3.973 3.279-3.973 1.915 0 2.944 1.245 2.944 3.567V39h2.585v-6.822c0-4.093-2.226-5.577-4.955-5.577zm13.03 12.544c3.039 0 5.098-1.843 5.529-4.261h-2.585c-.359 1.364-1.508 2.154-3.088 2.154-2.035 0-3.351-1.364-3.423-3.447v-.167h9.239c.048-.335.072-.67.072-.982-.072-3.59-2.441-5.84-5.984-5.84-3.614 0-6.032 2.513-6.032 6.295 0 3.758 2.418 6.248 6.272 6.248zm-3.471-7.612c.191-1.748 1.603-2.849 3.255-2.849 1.795 0 3.064 1.03 3.279 2.849h-6.534zm17.768-4.931c-1.987 0-3.159.79-3.925 1.747l-.288-1.604h-2.25V39h2.585v-6.176c0-2.49 1.221-3.997 3.28-3.997 1.939 0 2.92 1.245 2.92 3.567V39h2.609v-6.822c0-4.093-2.226-5.577-4.931-5.577zm19.199 12.543c3.734 0 6.248-2.514 6.248-6.272 0-3.734-2.514-6.271-6.248-6.271-3.734 0-6.247 2.537-6.247 6.271 0 3.758 2.513 6.272 6.247 6.272zm0-2.203c-2.178 0-3.59-1.7-3.59-4.069 0-2.37 1.412-4.069 3.59-4.069s3.615 1.7 3.615 4.07c0 2.369-1.437 4.068-3.615 4.068zm9.119-1.268c0 2.226 1.005 3.327 3.351 3.327h2.393v-2.274h-1.819c-.981 0-1.316-.359-1.316-1.316v-6.392h2.992v-2.274h-2.992v-3.422h-2.609v3.422h-2.131v2.274h2.131v6.655zm13.828-9.072c-1.915 0-3.088.861-3.854 1.915v-6.272h-2.585V39h2.585v-6.2c0-2.465 1.245-3.973 3.279-3.973 1.915 0 2.945 1.245 2.945 3.567V39h2.585v-6.822c0-4.093-2.226-5.577-4.955-5.577zm13.029 12.543c3.04 0 5.098-1.843 5.529-4.261h-2.585c-.359 1.364-1.508 2.154-3.088 2.154-2.034 0-3.351-1.364-3.423-3.447v-.167h9.24c.048-.335.072-.67.072-.982-.072-3.59-2.442-5.84-5.984-5.84-3.615 0-6.033 2.513-6.033 6.295 0 3.758 2.418 6.248 6.272 6.248zm-3.471-7.612c.192-1.748 1.604-2.849 3.255-2.849 1.796 0 3.064 1.03 3.28 2.849h-6.535zm17.505-4.788c-2.01 0-2.992.814-3.614 1.844l-.287-1.844h-2.298V39h2.585v-6.152c0-1.89.742-3.686 3.04-3.686h1.149v-2.418h-.575zm1.432 8.21c.072 2.658 2.322 4.19 5.601 4.19 2.968 0 5.195-1.484 5.195-3.83 0-2.729-2.274-3.303-5.075-3.639-1.771-.191-2.944-.335-2.944-1.484 0-.981 1.005-1.603 2.537-1.603s2.585.79 2.729 1.915h2.537c-.167-2.514-2.298-3.902-5.314-3.902-2.944-.024-5.027 1.484-5.027 3.806 0 2.537 2.203 3.135 5.003 3.47 1.891.24 3.016.336 3.016 1.652 0 .982-1.053 1.604-2.657 1.604-1.867 0-2.968-.91-3.064-2.178h-2.537zm24.548 4.19c3.136 0 5.219-1.748 5.697-4.524h-2.728c-.312 1.412-1.365 2.321-2.945 2.321-2.082 0-3.446-1.651-3.446-4.045 0-2.417 1.364-4.093 3.446-4.093 1.604 0 2.633.886 2.969 2.322h2.704c-.502-2.777-2.465-4.524-5.625-4.524-3.71 0-6.151 2.513-6.151 6.295 0 3.83 2.369 6.248 6.079 6.248zm18.878-2.394c-.526 0-.789-.168-.789-.79v-4.907c0-2.896-1.868-4.452-5.123-4.452-3.088 0-5.146 1.484-5.41 3.878h2.538c.191-1.078 1.22-1.796 2.752-1.796 1.7 0 2.681.838 2.681 2.203v.742h-3.088c-3.422 0-5.242 1.412-5.242 3.925 0 2.274 1.867 3.59 4.548 3.59 1.987 0 3.232-.861 4.046-2.106 0 1.221.574 1.963 2.25 1.963h1.364v-2.25h-.527zm-3.351-2.777c-.024 1.891-1.268 3.16-3.423 3.16-1.412 0-2.274-.718-2.274-1.747 0-1.245.886-1.844 2.49-1.844h3.207v.431zm11.749-7.372c-1.987 0-3.16.79-3.926 1.747l-.287-1.604h-2.25V39h2.585v-6.176c0-2.49 1.221-3.997 3.28-3.997 1.939 0 2.92 1.245 2.92 3.567V39h2.609v-6.822c0-4.093-2.226-5.577-4.931-5.577zm8.78 1.747l.527-4.476c.119-.981-.359-1.747-1.436-1.747-1.054 0-1.556.766-1.437 1.747l.527 4.476h1.819zm4.156 7.325c0 2.226 1.006 3.327 3.351 3.327h2.394v-2.274h-1.819c-.981 0-1.317-.359-1.317-1.316v-6.392h2.993v-2.274h-2.993v-3.422h-2.609v3.422h-2.13v2.274h2.13v6.655z" fill="#000"/><path d="M.844 13.767h9.114V39h4.852V13.767h9.115V9.463H.844v4.304zm42.69 21.267c-.928 0-1.392-.296-1.392-1.393v-8.65c0-5.105-3.291-7.848-9.03-7.848-5.443 0-9.072 2.616-9.536 6.835h4.473c.338-1.898 2.152-3.164 4.852-3.164 2.996 0 4.726 1.477 4.726 3.882v1.308h-5.443c-6.034 0-9.24 2.49-9.24 6.92 0 4.008 3.29 6.33 8.016 6.33 3.503 0 5.697-1.52 7.131-3.714 0 2.152 1.013 3.46 3.967 3.46h2.405v-3.966h-.928zm-5.907-4.895c-.042 3.333-2.236 5.57-6.034 5.57-2.49 0-4.008-1.266-4.008-3.08 0-2.195 1.561-3.25 4.388-3.25h5.654v.76zM46.945 39h4.557v-5.485l3.882-4.051L61.756 39h5.4l-8.65-12.87 8.144-8.734h-5.359L51.502 27.86V9.463h-4.557V39zm31.31.253c5.359 0 8.988-3.249 9.747-7.51h-4.557c-.633 2.405-2.658 3.797-5.443 3.797-3.587 0-5.907-2.405-6.034-6.076v-.295h16.287c.085-.591.127-1.182.127-1.73-.127-6.33-4.304-10.296-10.549-10.296-6.371 0-10.633 4.43-10.633 11.097 0 6.625 4.261 11.013 11.055 11.013zm-6.118-13.418c.337-3.08 2.827-5.021 5.738-5.021 3.165 0 5.401 1.814 5.781 5.021h-11.52zm50.472 9.199c-.928 0-1.392-.296-1.392-1.393v-8.65c0-5.105-3.291-7.848-9.03-7.848-5.443 0-9.072 2.616-9.536 6.835h4.473c.337-1.898 2.152-3.164 4.852-3.164 2.996 0 4.726 1.477 4.726 3.882v1.308h-5.443c-6.034 0-9.241 2.49-9.241 6.92 0 4.008 3.291 6.33 8.017 6.33 3.502 0 5.697-1.52 7.131-3.714 0 2.152 1.013 3.46 3.967 3.46h2.405v-3.966h-.929zm-5.907-4.895c-.042 3.333-2.236 5.57-6.034 5.57-2.489 0-4.008-1.266-4.008-3.08 0-2.195 1.561-3.25 4.388-3.25h5.654v.76zm31.675-12.996c-3.375 0-5.612 1.561-7.046 3.46l-.549-3.207h-3.966V47.44h4.557V35.962c1.35 1.94 3.671 3.291 7.004 3.291 5.908 0 10.212-4.388 10.212-11.055 0-6.92-4.304-11.055-10.212-11.055zm-.759 18.27c-3.798 0-6.287-2.995-6.287-7.3 0-4.177 2.489-7.088 6.287-7.088s6.329 2.911 6.329 7.173c0 4.22-2.531 7.215-6.329 7.215zm24.833 3.84c6.583 0 11.013-4.43 11.013-11.055 0-6.582-4.43-11.055-11.013-11.055-6.582 0-11.012 4.473-11.012 11.055 0 6.625 4.43 11.055 11.012 11.055zm0-3.882c-3.839 0-6.329-2.996-6.329-7.173s2.49-7.173 6.329-7.173c3.84 0 6.372 2.996 6.372 7.173s-2.532 7.173-6.372 7.173zm13.626-3.502c.126 4.684 4.093 7.384 9.874 7.384 5.232 0 9.156-2.616 9.156-6.751 0-4.81-4.009-5.823-8.945-6.414-3.123-.337-5.19-.59-5.19-2.616 0-1.73 1.772-2.827 4.472-2.827 2.701 0 4.557 1.393 4.81 3.376h4.473c-.295-4.43-4.051-6.878-9.367-6.878-5.19-.042-8.861 2.616-8.861 6.709 0 4.473 3.882 5.527 8.819 6.118 3.333.422 5.316.591 5.316 2.912 0 1.73-1.856 2.827-4.683 2.827-3.292 0-5.233-1.604-5.401-3.84h-4.473zm24.882-17.511c1.561 0 2.785-1.14 2.785-2.743s-1.224-2.742-2.785-2.742c-1.561 0-2.785 1.139-2.785 2.742 0 1.604 1.224 2.743 2.785 2.743zM208.638 39h4.558V17.396h-4.558V39zm10.586-5.865c0 3.924 1.772 5.865 5.907 5.865h4.22v-4.008h-3.207c-1.73 0-2.321-.633-2.321-2.321V21.405h5.275v-4.009h-5.275v-6.034h-4.599v6.034h-3.756v4.009h3.756v11.73zm15.346-18.777c1.562 0 2.785-1.14 2.785-2.743s-1.223-2.742-2.785-2.742c-1.561 0-2.784 1.139-2.784 2.742 0 1.604 1.223 2.743 2.784 2.743zM232.25 39h4.557V17.396h-4.557V39zm19.235.253c6.583 0 11.013-4.43 11.013-11.055 0-6.582-4.43-11.055-11.013-11.055-6.582 0-11.013 4.473-11.013 11.055 0 6.625 4.431 11.055 11.013 11.055zm0-3.882c-3.84 0-6.329-2.996-6.329-7.173s2.489-7.173 6.329-7.173 6.372 2.996 6.372 7.173-2.532 7.173-6.372 7.173zm26.07-18.228c-3.502 0-5.57 1.392-6.92 3.08l-.506-2.827h-3.967V39h4.557V28.114c0-4.389 2.152-7.047 5.781-7.047 3.418 0 5.148 2.194 5.148 6.287V39h4.599V26.974c0-7.215-3.924-9.831-8.692-9.831z" fill="url(#paint0_linear_2_381)"/><defs><linearGradient id="paint0_linear_2_381" x1="301" y1="28.5" x2="0" y2="28.5" gradientUnits="userSpaceOnUse"><stop stop-color="#FF4343"/><stop offset=".5" stop-color="#9C0B93"/><stop offset="1" stop-color="#4C1BB7"/></linearGradient></defs></svg>