<svg width="138" height="121" viewBox="0 0 138 121" fill="none" xmlns="http://www.w3.org/2000/svg"><path d="M15.774 8.3c0-4.51-3.058-7.832-7.48-7.832C3.872.468.814 3.79.814 8.3s3.058 7.832 7.48 7.832c4.422 0 7.48-3.322 7.48-7.832zM3.41 8.3c0-3.256 1.958-5.61 4.884-5.61s4.884 2.354 4.884 5.61c0 3.256-1.958 5.61-4.884 5.61S3.41 11.556 3.41 8.3zm29.522-5.148c.814 0 1.452-.594 1.452-1.43s-.638-1.43-1.452-1.43-1.452.594-1.452 1.43.638 1.43 1.452 1.43zm-5.368 1.584V3.79c0-.77.33-1.1 1.1-1.1h1.65V.6h-1.98c-2.178 0-3.146 1.034-3.146 3.014v1.122h-4.224V3.79c0-.77.308-1.1 1.078-1.1h1.672V.6h-2.002c-2.178 0-3.146 1.034-3.146 3.014v1.122h-1.958v2.09h1.958V16h2.398V6.826h4.224V16h2.376V6.826h4.158V16h2.376V4.736h-6.534zm14.028 11.396c2.882 0 4.796-1.606 5.236-4.158H44.32c-.286 1.298-1.254 2.134-2.706 2.134-1.914 0-3.168-1.518-3.168-3.718 0-2.222 1.254-3.762 3.168-3.762 1.474 0 2.42.814 2.728 2.134h2.486c-.462-2.552-2.266-4.158-5.17-4.158-3.41 0-5.654 2.31-5.654 5.786 0 3.52 2.178 5.742 5.588 5.742zm8.264-12.98c.814 0 1.453-.594 1.453-1.43S50.67.292 49.855.292c-.814 0-1.452.594-1.452 1.43s.638 1.43 1.452 1.43zM48.646 16h2.377V4.736h-2.377V16zm15.002-2.068c-.485 0-.727-.154-.727-.726v-4.51c0-2.662-1.715-4.092-4.707-4.092-2.838 0-4.73 1.364-4.972 3.564h2.332c.175-.99 1.122-1.65 2.53-1.65 1.562 0 2.464.77 2.464 2.024v.682H57.73c-3.146 0-4.819 1.298-4.819 3.608 0 2.09 1.716 3.3 4.18 3.3 1.826 0 2.97-.792 3.718-1.936 0 1.122.529 1.804 2.069 1.804h1.254v-2.068h-.485zm-3.08-2.552c-.023 1.738-1.166 2.904-3.146 2.904-1.298 0-2.09-.66-2.09-1.606 0-1.144.813-1.694 2.288-1.694h2.948v.396zM65.425 16h2.376V.6h-2.376V16zM.44 28.844h4.752V42h2.53V28.844h4.752V26.6H.44v2.244zm18.283 1.892c-1.848 0-2.75.748-3.322 1.694l-.264-1.694h-2.112V42h2.376v-5.654c0-1.738.682-3.388 2.794-3.388h1.056v-2.222h-.528zm11.946 9.196c-.484 0-.726-.154-.726-.726v-4.51c0-2.662-1.716-4.092-4.708-4.092-2.838 0-4.73 1.364-4.972 3.564h2.332c.176-.99 1.122-1.65 2.53-1.65 1.562 0 2.464.77 2.464 2.024v.682h-2.838c-3.146 0-4.818 1.298-4.818 3.608 0 2.09 1.716 3.3 4.18 3.3 1.826 0 2.97-.792 3.718-1.936 0 1.122.528 1.804 2.068 1.804h1.254v-2.068h-.484zm-3.08-2.552c-.022 1.738-1.166 2.904-3.146 2.904-1.298 0-2.09-.66-2.09-1.606 0-1.144.814-1.694 2.288-1.694h2.948v.396zm13.33-5.082c-.726-.99-1.936-1.694-3.652-1.694-3.058 0-5.324 2.288-5.324 5.764 0 3.608 2.266 5.764 5.324 5.764 1.782 0 2.948-.836 3.674-1.826L41.227 42h2.068V26.6H40.92v5.698zm-3.256 7.832c-1.98 0-3.278-1.54-3.278-3.762 0-2.2 1.298-3.74 3.278-3.74s3.278 1.54 3.278 3.784c0 2.178-1.298 3.718-3.278 3.718zm9.164-10.978c.814 0 1.452-.594 1.452-1.43s-.638-1.43-1.452-1.43-1.452.594-1.452 1.43.638 1.43 1.452 1.43zM45.617 42h2.376V30.736h-2.376V42zm10.645-11.396c-1.826 0-2.904.726-3.608 1.606l-.264-1.474h-2.068V42h2.376v-5.676c0-2.288 1.122-3.674 3.014-3.674 1.782 0 2.684 1.144 2.684 3.278V42h2.398v-6.27c0-3.762-2.046-5.126-4.532-5.126zm15.295 1.892c-.726-1.122-1.936-1.892-3.696-1.892-3.058 0-5.324 2.266-5.324 5.72 0 3.586 2.266 5.72 5.324 5.72 1.76 0 2.926-.726 3.674-1.848v1.254c0 2.156-1.166 3.146-3.234 3.146-1.672 0-2.772-.726-3.058-1.98h-2.42c.22 2.53 2.31 3.916 5.302 3.916 4.048 0 5.764-1.936 5.764-4.994V30.736h-2.068l-.264 1.76zm-3.3 7.546c-1.98 0-3.278-1.518-3.278-3.718 0-2.178 1.298-3.718 3.278-3.718s3.278 1.54 3.278 3.762c0 2.156-1.298 3.674-3.278 3.674zM1.408 68h2.53v-5.588H7.48c3.212 0 5.324-1.936 5.324-4.906 0-2.992-2.112-4.906-5.324-4.906H1.408V68zm5.874-13.2c1.804 0 2.948 1.034 2.948 2.706 0 1.65-1.166 2.706-2.97 2.706H3.938V54.8h3.344zm16.856 11.132c-.484 0-.726-.154-.726-.726v-4.51c0-2.662-1.716-4.092-4.708-4.092-2.838 0-4.73 1.364-4.972 3.564h2.332c.176-.99 1.122-1.65 2.53-1.65 1.562 0 2.464.77 2.464 2.024v.682H18.22c-3.146 0-4.818 1.298-4.818 3.608 0 2.09 1.716 3.3 4.18 3.3 1.826 0 2.97-.792 3.718-1.936 0 1.122.528 1.804 2.068 1.804h1.254v-2.068h-.484zm-3.08-2.552c-.022 1.738-1.166 2.904-3.146 2.904-1.298 0-2.09-.66-2.09-1.606 0-1.144.814-1.694 2.288-1.694h2.948v.396zm10.556-6.644c-1.848 0-2.75.748-3.322 1.694l-.264-1.694h-2.112V68h2.376v-5.654c0-1.738.682-3.388 2.794-3.388h1.056v-2.222h-.528zm3.216 8.206c0 2.046.924 3.058 3.08 3.058h2.2v-2.09h-1.672c-.902 0-1.21-.33-1.21-1.21v-5.874h2.75v-2.09h-2.75V53.59H34.83v3.146h-1.958v2.09h1.958v6.116zm12.731-8.338c-1.826 0-2.904.726-3.608 1.606l-.264-1.474h-2.068V68h2.376v-5.676c0-2.288 1.122-3.674 3.014-3.674 1.782 0 2.684 1.144 2.684 3.278V68h2.398v-6.27c0-3.762-2.046-5.126-4.532-5.126zm11.953 11.528c2.794 0 4.686-1.694 5.082-3.916H62.22c-.33 1.254-1.386 1.98-2.838 1.98-1.87 0-3.08-1.254-3.146-3.168v-.154h8.492c.044-.308.066-.616.066-.902-.066-3.3-2.244-5.368-5.5-5.368-3.322 0-5.544 2.31-5.544 5.786 0 3.454 2.222 5.742 5.764 5.742zm-3.19-6.996c.176-1.606 1.474-2.618 2.992-2.618 1.65 0 2.816.946 3.014 2.618h-6.006zm16.089-4.4c-1.848 0-2.75.748-3.322 1.694l-.264-1.694h-2.112V68h2.376v-5.654c0-1.738.682-3.388 2.794-3.388h1.056v-2.222h-.528zM6.49 94.132c3.432 0 5.742-2.31 5.742-5.764 0-3.432-2.31-5.764-5.742-5.764S.748 84.936.748 88.368c0 3.454 2.31 5.764 5.742 5.764zm0-2.024c-2.002 0-3.3-1.562-3.3-3.74s1.298-3.74 3.3-3.74 3.322 1.562 3.322 3.74-1.32 3.74-3.322 3.74zm6.423-7.282h1.958V94h2.398v-9.174h3.014v-2.09h-3.058v-.946c0-.77.33-1.1 1.1-1.1h1.958V78.6h-2.266c-2.178 0-3.146 1.056-3.146 3.08v1.056h-1.958v2.09zm15.042 6.116c0 2.046.924 3.058 3.08 3.058h2.2v-2.09h-1.672c-.902 0-1.21-.33-1.21-1.21v-5.874h2.75v-2.09h-2.75V79.59h-2.398v3.146h-1.958v2.09h1.958v6.116zm12.71-8.338c-1.76 0-2.839.792-3.543 1.76V78.6h-2.376V94h2.376v-5.698c0-2.266 1.144-3.652 3.014-3.652 1.76 0 2.706 1.144 2.706 3.278V94h2.376v-6.27c0-3.762-2.046-5.126-4.554-5.126zm11.974 11.528c2.794 0 4.686-1.694 5.082-3.916h-2.376c-.33 1.254-1.386 1.98-2.838 1.98-1.87 0-3.08-1.254-3.146-3.168v-.154h8.492c.044-.308.066-.616.066-.902-.066-3.3-2.244-5.368-5.5-5.368-3.322 0-5.544 2.31-5.544 5.786 0 3.454 2.222 5.742 5.764 5.742zm-3.19-6.996c.176-1.606 1.474-2.618 2.992-2.618 1.65 0 2.816.946 3.014 2.618h-6.006zm15.646 1.804c.088 3.08 2.398 5.192 6.226 5.192 3.388 0 5.698-1.914 5.698-4.686.022-3.036-2.464-3.85-5.016-4.312-2.42-.418-4.004-.748-4.004-2.332 0-1.452 1.21-2.2 2.948-2.2 1.87 0 3.102 1.056 3.3 2.618h2.53c-.11-2.838-2.31-4.752-5.83-4.752-3.278 0-5.478 1.826-5.478 4.51 0 3.058 2.42 3.872 4.972 4.312 2.442.44 4.048.792 4.048 2.42 0 1.474-1.32 2.288-3.146 2.288-2.156 0-3.564-1.21-3.696-3.014l-2.552-.044zm17.014 5.126l-.44 1.1c-.352.924-.572 1.144-1.495 1.144H78.5v2.09h2.552c1.65 0 2.135-.814 2.838-2.64l5.105-13.024h-2.53l-3.058 8.558-3.147-8.558h-2.53l4.379 11.33zm16.13-9.768c-.725-.99-1.935-1.694-3.651-1.694-3.058 0-5.324 2.288-5.324 5.764 0 3.608 2.266 5.764 5.324 5.764 1.782 0 2.948-.836 3.674-1.826L98.548 94h2.068V78.6H98.24v5.698zm-3.255 7.832c-1.98 0-3.278-1.54-3.278-3.762 0-2.2 1.298-3.74 3.278-3.74s3.278 1.54 3.278 3.784c0 2.178-1.298 3.718-3.278 3.718zm13.893-9.526c-1.826 0-2.904.726-3.608 1.606l-.264-1.474h-2.068V94h2.376v-5.676c0-2.288 1.122-3.674 3.014-3.674 1.782 0 2.684 1.144 2.684 3.278V94h2.398v-6.27c0-3.762-2.046-5.126-4.532-5.126zm11.953 11.528c2.794 0 4.686-1.694 5.082-3.916h-2.376c-.33 1.254-1.386 1.98-2.838 1.98-1.87 0-3.08-1.254-3.146-3.168v-.154h8.492c.044-.308.066-.616.066-.902-.066-3.3-2.244-5.368-5.5-5.368-3.322 0-5.544 2.31-5.544 5.786 0 3.454 2.222 5.742 5.764 5.742zm-3.19-6.996c.176-1.606 1.474-2.618 2.992-2.618 1.65 0 2.816.946 3.014 2.618h-6.006zm13.132 6.93l-.44 1.1c-.352.924-.572 1.144-1.496 1.144h-1.672v2.09h2.552c1.65 0 2.134-.814 2.838-2.64l5.104-13.024h-2.53l-3.058 8.558-3.146-8.558h-2.53l4.378 11.33zM1.408 120h2.53v-5.588h3.388l2.97 5.588h2.816l-3.256-6.138c1.804-.638 2.992-2.288 2.992-4.356 0-2.992-2.156-4.906-5.368-4.906H1.408V120zm5.874-13.2c1.804 0 2.97 1.056 2.97 2.706s-1.166 2.706-2.97 2.706H3.938V106.8h3.344zm12.378 13.332c3.432 0 5.742-2.31 5.742-5.764 0-3.432-2.31-5.764-5.742-5.764s-5.742 2.332-5.742 5.764c0 3.454 2.31 5.764 5.742 5.764zm0-2.024c-2.002 0-3.3-1.562-3.3-3.74s1.298-3.74 3.3-3.74 3.322 1.562 3.322 3.74-1.32 3.74-3.322 3.74zm12.976 2.024c3.432 0 5.742-2.31 5.742-5.764 0-3.432-2.31-5.764-5.742-5.764s-5.742 2.332-5.742 5.764c0 3.454 2.31 5.764 5.742 5.764zm0-2.024c-2.002 0-3.3-1.562-3.3-3.74s1.299-3.74 3.3-3.74c2.002 0 3.322 1.562 3.322 3.74s-1.32 3.74-3.322 3.74zm7.105-1.826c.066 2.442 2.134 3.85 5.148 3.85 2.728 0 4.774-1.364 4.774-3.52 0-2.508-2.09-3.036-4.664-3.344-1.628-.176-2.706-.308-2.706-1.364 0-.902.924-1.474 2.332-1.474s2.376.726 2.508 1.76h2.332c-.154-2.31-2.112-3.586-4.884-3.586-2.706-.022-4.62 1.364-4.62 3.498 0 2.332 2.024 2.882 4.598 3.19 1.738.22 2.772.308 2.772 1.518 0 .902-.968 1.474-2.442 1.474-1.716 0-2.728-.836-2.816-2.002H39.74zm12.577.66c0 2.046.924 3.058 3.08 3.058h2.2v-2.09h-1.672c-.902 0-1.21-.33-1.21-1.21v-5.874h2.75v-2.09h-2.75v-3.146h-2.398v3.146H50.36v2.09h1.958v6.116zm11.901 3.19c2.794 0 4.686-1.694 5.082-3.916h-2.376c-.33 1.254-1.386 1.98-2.838 1.98-1.87 0-3.08-1.254-3.146-3.168v-.154h8.492c.044-.308.066-.616.066-.902-.066-3.3-2.244-5.368-5.5-5.368-3.322 0-5.544 2.31-5.544 5.786 0 3.454 2.222 5.742 5.764 5.742zm-3.19-6.996c.176-1.606 1.474-2.618 2.992-2.618 1.65 0 2.816.946 3.014 2.618h-6.006zm16.089-4.4c-1.848 0-2.75.748-3.322 1.694l-.264-1.694H71.42V120h2.376v-5.654c0-1.738.682-3.388 2.794-3.388h1.056v-2.222h-.528zm1.316 7.546c.066 2.442 2.134 3.85 5.148 3.85 2.728 0 4.774-1.364 4.774-3.52 0-2.508-2.09-3.036-4.664-3.344-1.628-.176-2.706-.308-2.706-1.364 0-.902.924-1.474 2.332-1.474s2.376.726 2.508 1.76h2.332c-.154-2.31-2.112-3.586-4.884-3.586-2.706-.022-4.62 1.364-4.62 3.498 0 2.332 2.024 2.882 4.598 3.19 1.738.22 2.772.308 2.772 1.518 0 .902-.968 1.474-2.442 1.474-1.716 0-2.728-.836-2.816-2.002h-2.332z" fill="#000"/></svg>