<svg width="668" height="19" viewBox="0 0 668 19" fill="none" xmlns="http://www.w3.org/2000/svg"><path d="M5.648 18c4.512 0 8.448-2.664 8.448-8.4 0-5.496-3.672-8.4-8.496-8.4H.296a.215.215 0 00-.216.216l.096 7.968-.096 8.4c0 .12.096.216.216.216h5.352zM2.312 9.336c0-1.512.072-6.312.072-6.336h3.36c3.336 0 6.048 2.16 6.048 6.6 0 4.656-2.976 6.6-5.952 6.6H2.384c0-.024-.072-5.304-.072-6.864zm16.423-5.112c.12 0 .216-.096.216-.216V2.04a.215.215 0 00-.216-.216h-1.8a.215.215 0 00-.216.216v1.968c0 .12.096.216.216.216h1.8zm0 13.776c.12 0 .216-.096.216-.216l-.048-6.168.048-5.76a.215.215 0 00-.216-.216h-1.8a.215.215 0 00-.216.216l.048 5.784-.048 6.144c0 .12.096.216.216.216h1.8zm13.432-3.552c0-5.184-8.328-2.52-8.328-5.592 0-1.368 1.08-1.992 2.76-1.992 1.776 0 2.976.72 3.12 2.28.024.12.12.216.24.216h1.608c.12 0 .216-.096.216-.216-.192-2.568-2.28-3.768-5.16-3.768-2.928 0-4.872 1.248-4.872 3.624 0 4.992 8.328 2.376 8.328 5.616 0 1.368-1.2 2.136-3.024 2.136-2.208 0-3.384-.864-3.48-2.808a.215.215 0 00-.216-.216h-1.68a.215.215 0 00-.216.216c.096 2.88 2.232 4.32 5.52 4.32 2.952 0 5.184-1.392 5.184-3.816zm13.183-.888c.024-.12-.072-.216-.192-.216H43.55c-.12 0-.216.096-.24.216-.216 1.992-1.464 3.12-3.312 3.12-2.424-.024-3.576-1.704-3.576-4.848 0-3.072 1.152-4.848 3.576-4.848 1.656 0 2.856.912 3.192 2.712.024.12.12.216.24.216h1.584c.12 0 .216-.096.192-.216-.264-2.592-2.136-4.344-5.208-4.344-3.744 0-5.832 2.616-5.832 6.504 0 3.888 2.088 6.432 5.784 6.432 3.192 0 5.16-1.992 5.4-4.728zm13.652-1.752c0-3.888-2.088-6.456-5.856-6.456-3.744 0-5.856 2.592-5.856 6.504 0 3.888 2.112 6.432 5.856 6.432 3.768 0 5.856-2.592 5.856-6.48zm-9.48.048c0-3.096 1.176-4.872 3.624-4.896 2.4 0 3.6 1.8 3.6 4.896s-1.176 4.824-3.6 4.824c-2.424 0-3.624-1.728-3.624-4.824zM71.43 5.832c.024-.096-.024-.192-.144-.192h-1.68c-.12 0-.24.096-.288.216l-3.576 10.32-3.48-10.32c-.048-.12-.168-.216-.288-.216H60.03c-.096 0-.168.096-.144.192l4.416 12c.048.096.168.192.288.192h2.208c.12 0 .24-.096.288-.192l4.344-12zm10.37 7.872c-.12 0-.24.096-.265.216-.36 1.8-1.464 2.76-3.288 2.76-2.424 0-3.648-1.584-3.72-4.56h9.12c.12 0 .216-.096.216-.216-.072-4.104-2.184-6.552-5.76-6.552-3.576 0-5.784 2.64-5.784 6.504 0 3.768 2.064 6.432 5.904 6.432 3.168 0 5.04-1.848 5.424-4.368 0-.12-.072-.216-.192-.216H81.8zm-.289-3.12H74.6c.312-2.328 1.488-3.648 3.528-3.648 2.184 0 3.312 1.68 3.384 3.648zM88.265 18c.12 0 .216-.096.216-.216l-.024-6.48c.264-2.712 2.064-3.984 4.152-3.984.264 0 .504.024.696.048a.18.18 0 00.216-.168V5.856c0-.12-.096-.24-.216-.264a3.325 3.325 0 00-.72-.072c-1.728 0-3.312.84-4.2 2.424l.096-2.088a.215.215 0 00-.216-.216H86.49a.215.215 0 00-.216.216l.072 5.832-.072 6.096c0 .12.096.216.216.216h1.776zm25.195-4.92c0-6.576-10.944-3.264-10.944-7.584 0-1.896 1.584-2.76 3.912-2.76 2.712 0 4.128 1.08 4.32 3.24.024.12.12.216.24.216h1.896c.12 0 .216-.096.192-.216-.36-3.456-2.736-5.064-6.576-5.064-3.72 0-6.168 1.728-6.168 4.8 0 6.408 10.944 3.024 10.944 7.656 0 2.208-1.776 3.12-4.248 3.12-3.288 0-4.488-1.536-4.704-4.056-.024-.12-.12-.216-.24-.216h-1.872a.215.215 0 00-.216.216c.168 3.816 2.688 5.856 6.96 5.856 3.816 0 6.504-1.752 6.504-5.208zm8.628 3.408c0-.096-.096-.192-.216-.144a6.203 6.203 0 01-1.272.144c-1.056 0-1.56-.456-1.56-1.944v-7.2h2.832c.12 0 .216-.096.216-.216V5.856a.215.215 0 00-.216-.216h-2.832l.024-2.88a.215.215 0 00-.216-.216h-1.776a.215.215 0 00-.216.216l.024 2.88h-1.368a.215.215 0 00-.216.216v1.272c0 .12.096.216.216.216h1.368v7.248c0 2.688 1.512 3.624 3.312 3.624.576 0 1.2-.144 1.68-.288.12-.048.216-.168.216-.288v-1.152zm13.009-4.68c0-3.888-2.088-6.456-5.856-6.456-3.744 0-5.856 2.592-5.856 6.504 0 3.888 2.112 6.432 5.856 6.432 3.768 0 5.856-2.592 5.856-6.48zm-9.48.048c0-3.096 1.176-4.872 3.624-4.896 2.4 0 3.6 1.8 3.6 4.896s-1.176 4.824-3.6 4.824c-2.424 0-3.624-1.728-3.624-4.824zM139.566 18c.12 0 .216-.096.216-.216l-.024-5.064v-1.872c.48-2.448 1.776-3.744 3.408-3.744 1.536 0 2.616 1.008 2.616 3.24v2.376l-.048 5.064c0 .12.096.216.216.216h1.776c.12 0 .216-.096.216-.216l-.048-5.064v-2.472c0-3.216-1.584-4.896-4.128-4.896-1.968 0-3.36 1.128-4.128 2.376l.072-1.872a.215.215 0 00-.216-.216h-1.704a.215.215 0 00-.216.216l.048 6.504-.072 5.424c0 .12.096.216.216.216h1.8zm20.18-4.296c-.12 0-.24.096-.264.216-.36 1.8-1.464 2.76-3.288 2.76-2.424 0-3.648-1.584-3.72-4.56h9.12c.12 0 .216-.096.216-.216-.072-4.104-2.184-6.552-5.76-6.552-3.576 0-5.784 2.64-5.784 6.504 0 3.768 2.064 6.432 5.904 6.432 3.168 0 5.04-1.848 5.424-4.368 0-.12-.072-.216-.192-.216h-1.656zm-.288-3.12h-6.912c.312-2.328 1.488-3.648 3.528-3.648 2.184 0 3.312 1.68 3.384 3.648zM176.474 18c.096 0 .144-.096.096-.192l-5.544-8.616 4.92-7.8c.048-.096 0-.192-.096-.192h-2.064a.414.414 0 00-.336.192l-3.672 5.904-3.696-5.904a.414.414 0 00-.336-.192h-2.256c-.096 0-.144.096-.096.192l5.016 7.728-5.52 8.688c-.048.096 0 .192.096.192h2.064c.12 0 .264-.072.336-.192l4.272-6.864 4.224 6.864c.072.12.216.192.336.192h2.256zm2.262-11.928c.12 0 .264-.072.336-.192l1.344-2.04a.885.885 0 00.12-.408V1.416a.215.215 0 00-.216-.216h-1.752a.215.215 0 00-.216.216v2.256l-.6 2.184a.18.18 0 00.168.216h.816zm13.426 8.376c0-5.184-8.328-2.52-8.328-5.592 0-1.368 1.08-1.992 2.76-1.992 1.776 0 2.976.72 3.12 2.28.024.12.12.216.24.216h1.608c.12 0 .216-.096.216-.216-.192-2.568-2.28-3.768-5.16-3.768-2.928 0-4.872 1.248-4.872 3.624 0 4.992 8.328 2.376 8.328 5.616 0 1.368-1.2 2.136-3.024 2.136-2.208 0-3.384-.864-3.48-2.808a.215.215 0 00-.216-.216h-1.68a.215.215 0 00-.216.216c.096 2.88 2.232 4.32 5.52 4.32 2.952 0 5.184-1.392 5.184-3.816zm11.089-7.128h2.688c.12 0 .216-.096.216-.216V5.856a.215.215 0 00-.216-.216h-2.688v-.912c0-1.56.6-2.16 1.584-2.16.408 0 .792.048 1.128.144a.18.18 0 00.216-.168V1.32c0-.12-.096-.24-.216-.264a8.07 8.07 0 00-1.608-.168c-1.584 0-3.24.96-3.24 3.672v1.08h-1.728a.215.215 0 00-.216.216v1.248c0 .12.096.216.216.216h1.728v5.112l-.072 5.352c0 .12.096.216.216.216h1.848c.12 0 .216-.096.216-.216l-.072-5.352V7.32zm13.399 8.568l-.048 1.896c0 .12.096.216.216.216h1.704c.12 0 .216-.096.216-.216l-.048-6.504.072-5.424a.215.215 0 00-.216-.216h-1.824a.215.215 0 00-.216.216l.048 5.064v1.872c-.48 2.448-1.8 3.744-3.408 3.744-1.56 0-2.616-1.008-2.616-3.24V10.92l.048-5.064a.215.215 0 00-.216-.216h-1.8a.215.215 0 00-.216.216l.048 5.064v2.448c0 3.24 1.608 4.92 4.152 4.92 1.968 0 3.36-1.128 4.104-2.4zM223.701 18c.12 0 .216-.096.216-.216l-.096-8.304.096-8.064a.215.215 0 00-.216-.216h-1.776a.215.215 0 00-.216.216l.096 8.088-.096 8.28c0 .12.096.216.216.216h1.776zm5.273 0c.12 0 .216-.096.216-.216l-.096-8.304.096-8.064a.215.215 0 00-.216-.216h-1.776a.215.215 0 00-.216.216l.096 8.088-.096 8.28c0 .12.096.216.216.216h1.776zm18.611-3.552c0-5.184-8.328-2.52-8.328-5.592 0-1.368 1.08-1.992 2.76-1.992 1.776 0 2.976.72 3.12 2.28.024.12.12.216.24.216h1.608c.12 0 .216-.096.216-.216-.192-2.568-2.28-3.768-5.16-3.768-2.928 0-4.872 1.248-4.872 3.624 0 4.992 8.328 2.376 8.328 5.616 0 1.368-1.2 2.136-3.024 2.136-2.208 0-3.384-.864-3.48-2.808a.215.215 0 00-.216-.216h-1.68a.215.215 0 00-.216.216c.096 2.88 2.232 4.32 5.52 4.32 2.952 0 5.184-1.392 5.184-3.816zm10.615 1.44l-.048 1.896c0 .12.096.216.216.216h1.704c.12 0 .216-.096.216-.216l-.048-6.504.072-5.424a.215.215 0 00-.216-.216h-1.824a.215.215 0 00-.216.216l.048 5.064v1.872c-.48 2.448-1.8 3.744-3.408 3.744-1.56 0-2.616-1.008-2.616-3.24V10.92l.048-5.064a.215.215 0 00-.216-.216h-1.8a.215.215 0 00-.216.216l.048 5.064v2.448c0 3.24 1.608 4.92 4.152 4.92 1.968 0 3.36-1.128 4.104-2.4zm7.075-11.664c.12 0 .216-.096.216-.216V2.04a.215.215 0 00-.216-.216h-1.8a.215.215 0 00-.216.216v1.968c0 .12.096.216.216.216h1.8zm0 13.776c.12 0 .216-.096.216-.216l-.048-6.168.048-5.76a.215.215 0 00-.216-.216h-1.8a.215.215 0 00-.216.216l.048 5.784-.048 6.144c0 .12.096.216.216.216h1.8zm9.4-1.512c0-.096-.096-.192-.216-.144a6.203 6.203 0 01-1.272.144c-1.056 0-1.56-.456-1.56-1.944v-7.2h2.832c.12 0 .216-.096.216-.216V5.856a.215.215 0 00-.216-.216h-2.832l.024-2.88a.215.215 0 00-.216-.216h-1.776a.215.215 0 00-.216.216l.024 2.88h-1.368a.215.215 0 00-.216.216v1.272c0 .12.096.216.216.216h1.368v7.248c0 2.688 1.512 3.624 3.312 3.624.576 0 1.2-.144 1.68-.288.12-.048.216-.168.216-.288v-1.152zm10.753-2.784c-.12 0-.24.096-.264.216-.36 1.8-1.464 2.76-3.288 2.76-2.424 0-3.648-1.584-3.72-4.56h9.12c.12 0 .216-.096.216-.216-.072-4.104-2.184-6.552-5.76-6.552-3.576 0-5.784 2.64-5.784 6.504 0 3.768 2.064 6.432 5.904 6.432 3.168 0 5.04-1.848 5.424-4.368 0-.12-.072-.216-.192-.216h-1.656zm-.288-3.12h-6.912c.312-2.328 1.488-3.648 3.528-3.648 2.184 0 3.312 1.68 3.384 3.648zm20.894 1.224c0-3.888-2.088-6.456-5.856-6.456-3.744 0-5.856 2.592-5.856 6.504 0 3.888 2.112 6.432 5.856 6.432 3.768 0 5.856-2.592 5.856-6.48zm-9.48.048c0-3.096 1.176-4.872 3.624-4.896 2.4 0 3.6 1.8 3.6 4.896s-1.176 4.824-3.6 4.824c-2.424 0-3.624-1.728-3.624-4.824zm14.803-4.536h2.688c.12 0 .216-.096.216-.216V5.856a.215.215 0 00-.216-.216h-2.688v-.912c0-1.56.6-2.16 1.584-2.16.408 0 .792.048 1.128.144a.18.18 0 00.216-.168V1.32c0-.12-.096-.24-.216-.264a8.07 8.07 0 00-1.608-.168c-1.584 0-3.24.96-3.24 3.672v1.08h-1.728a.215.215 0 00-.216.216v1.248c0 .12.096.216.216.216h1.728v5.112l-.072 5.352c0 .12.096.216.216.216h1.848c.12 0 .216-.096.216-.216l-.072-5.352V7.32zm20.888 6.24c.024-.12-.072-.216-.192-.216h-1.608c-.12 0-.216.096-.24.216-.216 1.992-1.464 3.12-3.312 3.12-2.424-.024-3.576-1.704-3.576-4.848 0-3.072 1.152-4.848 3.576-4.848 1.656 0 2.856.912 3.192 2.712.024.12.12.216.24.216h1.584c.12 0 .216-.096.192-.216-.264-2.592-2.136-4.344-5.208-4.344-3.744 0-5.832 2.616-5.832 6.504 0 3.888 2.088 6.432 5.784 6.432 3.192 0 5.16-1.992 5.4-4.728zm13.652-1.752c0-3.888-2.088-6.456-5.856-6.456-3.744 0-5.856 2.592-5.856 6.504 0 3.888 2.112 6.432 5.856 6.432 3.768 0 5.856-2.592 5.856-6.48zm-9.48.048c0-3.096 1.176-4.872 3.624-4.896 2.4 0 3.6 1.8 3.6 4.896s-1.176 4.824-3.6 4.824c-2.424 0-3.624-1.728-3.624-4.824zm22.064 2.592c0-5.184-8.328-2.52-8.328-5.592 0-1.368 1.08-1.992 2.76-1.992 1.776 0 2.976.72 3.12 2.28.024.12.12.216.24.216h1.608c.12 0 .216-.096.216-.216-.192-2.568-2.28-3.768-5.16-3.768-2.928 0-4.872 1.248-4.872 3.624 0 4.992 8.328 2.376 8.328 5.616 0 1.368-1.2 2.136-3.024 2.136-2.208 0-3.384-.864-3.48-2.808a.215.215 0 00-.216-.216h-1.68a.215.215 0 00-.216.216c.096 2.88 2.232 4.32 5.52 4.32 2.952 0 5.184-1.392 5.184-3.816zm8.295 2.04c0-.096-.096-.192-.216-.144a6.203 6.203 0 01-1.272.144c-1.056 0-1.56-.456-1.56-1.944v-7.2h2.832c.12 0 .216-.096.216-.216V5.856a.215.215 0 00-.216-.216h-2.832l.024-2.88a.215.215 0 00-.216-.216h-1.776a.215.215 0 00-.216.216l.024 2.88H360.2a.215.215 0 00-.216.216v1.272c0 .12.096.216.216.216h1.368v7.248c0 2.688 1.512 3.624 3.312 3.624.576 0 1.2-.144 1.68-.288.12-.048.216-.168.216-.288v-1.152zm5.866-4.656c.12 0 .216-.096.216-.216v-1.272a.215.215 0 00-.216-.216h-4.944a.215.215 0 00-.216.216v1.272c0 .12.096.216.216.216h4.944zm11.659 1.872c-.12 0-.24.096-.264.216-.36 1.8-1.464 2.76-3.288 2.76-2.424 0-3.648-1.584-3.72-4.56h9.12c.12 0 .216-.096.216-.216-.072-4.104-2.184-6.552-5.76-6.552-3.576 0-5.784 2.64-5.784 6.504 0 3.768 2.064 6.432 5.904 6.432 3.168 0 5.04-1.848 5.424-4.368 0-.12-.072-.216-.192-.216h-1.656zm-.288-3.12h-6.912c.312-2.328 1.488-3.648 3.528-3.648 2.184 0 3.312 1.68 3.384 3.648zm7.657-3.264h2.688c.12 0 .216-.096.216-.216V5.856a.215.215 0 00-.216-.216h-2.688v-.912c0-1.56.6-2.16 1.584-2.16.408 0 .792.048 1.128.144a.18.18 0 00.216-.168V1.32c0-.12-.096-.24-.216-.264a8.07 8.07 0 00-1.608-.168c-1.584 0-3.24.96-3.24 3.672v1.08h-1.728a.215.215 0 00-.216.216v1.248c0 .12.096.216.216.216h1.728v5.112l-.072 5.352c0 .12.096.216.216.216h1.848c.12 0 .216-.096.216-.216l-.072-5.352V7.32zm8.718 0h2.688c.12 0 .216-.096.216-.216V5.856a.215.215 0 00-.216-.216h-2.688v-.912c0-1.56.6-2.16 1.584-2.16.408 0 .792.048 1.128.144a.18.18 0 00.216-.168V1.32c0-.12-.096-.24-.216-.264a8.07 8.07 0 00-1.608-.168c-1.584 0-3.24.96-3.24 3.672v1.08h-1.728a.215.215 0 00-.216.216v1.248c0 .12.096.216.216.216h1.728v5.112l-.072 5.352c0 .12.096.216.216.216h1.848c.12 0 .216-.096.216-.216l-.072-5.352V7.32zm13.348 6.384c-.12 0-.24.096-.264.216-.36 1.8-1.464 2.76-3.288 2.76-2.424 0-3.648-1.584-3.72-4.56h9.12c.12 0 .216-.096.216-.216-.072-4.104-2.184-6.552-5.76-6.552-3.576 0-5.784 2.64-5.784 6.504 0 3.768 2.064 6.432 5.904 6.432 3.168 0 5.04-1.848 5.424-4.368 0-.12-.072-.216-.192-.216h-1.656zm-.288-3.12h-6.912c.312-2.328 1.488-3.648 3.528-3.648 2.184 0 3.312 1.68 3.384 3.648zm15.538 2.976c.024-.12-.072-.216-.192-.216h-1.608c-.12 0-.216.096-.24.216-.216 1.992-1.464 3.12-3.312 3.12-2.424-.024-3.576-1.704-3.576-4.848 0-3.072 1.152-4.848 3.576-4.848 1.656 0 2.856.912 3.192 2.712.024.12.12.216.24.216h1.584c.12 0 .216-.096.192-.216-.264-2.592-2.136-4.344-5.208-4.344-3.744 0-5.832 2.616-5.832 6.504 0 3.888 2.088 6.432 5.784 6.432 3.192 0 5.16-1.992 5.4-4.728zm8.33 2.928c0-.096-.096-.192-.216-.144a6.203 6.203 0 01-1.272.144c-1.056 0-1.56-.456-1.56-1.944v-7.2h2.832c.12 0 .216-.096.216-.216V5.856a.215.215 0 00-.216-.216h-2.832l.024-2.88a.215.215 0 00-.216-.216H432.3a.215.215 0 00-.216.216l.024 2.88h-1.368a.215.215 0 00-.216.216v1.272c0 .12.096.216.216.216h1.368v7.248c0 2.688 1.512 3.624 3.312 3.624.576 0 1.2-.144 1.68-.288.12-.048.216-.168.216-.288v-1.152zm4.38-12.264c.12 0 .216-.096.216-.216V2.04a.215.215 0 00-.216-.216h-1.8a.215.215 0 00-.216.216v1.968c0 .12.096.216.216.216h1.8zm0 13.776c.12 0 .216-.096.216-.216l-.048-6.168.048-5.76a.215.215 0 00-.216-.216h-1.8a.215.215 0 00-.216.216l.048 5.784-.048 6.144c0 .12.096.216.216.216h1.8zm13.768-12.168c.024-.096-.024-.192-.144-.192h-1.68c-.12 0-.24.096-.288.216l-3.576 10.32-3.48-10.32c-.048-.12-.168-.216-.288-.216h-1.944c-.096 0-.168.096-.144.192l4.416 12c.048.096.168.192.288.192h2.208c.12 0 .24-.096.288-.192l4.344-12zm10.369 7.872c-.12 0-.24.096-.264.216-.36 1.8-1.464 2.76-3.288 2.76-2.424 0-3.648-1.584-3.72-4.56h9.12c.12 0 .216-.096.216-.216-.072-4.104-2.184-6.552-5.76-6.552-3.576 0-5.784 2.64-5.784 6.504 0 3.768 2.064 6.432 5.904 6.432 3.168 0 5.04-1.848 5.424-4.368 0-.12-.072-.216-.192-.216h-1.656zm-.288-3.12h-6.912c.312-2.328 1.488-3.648 3.528-3.648 2.184 0 3.312 1.68 3.384 3.648zm21.743 2.928c.024-.144-.096-.264-.24-.264h-2.88c-.144 0-.264.12-.288.264-.168 1.584-1.08 2.424-2.28 2.4-1.8-.024-2.688-1.248-2.688-4.08 0-2.736.864-4.056 2.688-4.08 1.008 0 1.896.672 2.16 2.016a.309.309 0 00.312.264h2.808c.144 0 .264-.12.24-.264-.312-2.664-2.352-4.44-5.52-4.44-4.032 0-6.384 2.592-6.384 6.528 0 3.936 2.352 6.456 6.312 6.456 3.216 0 5.472-2.016 5.76-4.8zm5.404-1.848c0-2.544.936-3.912 2.76-3.864 1.704.024 2.664 1.464 2.64 4.104-.048 2.616-.96 3.936-2.712 3.936-1.728.024-2.688-1.392-2.688-4.176zm8.64 6.336c.144 0 .264-.12.264-.264l-.096-5.904.096-5.928a.266.266 0 00-.264-.264h-3.12c-.144 0-.264.12-.24.264l.048 1.08c-.84-1.032-2.04-1.584-3.576-1.584-3.36 0-5.424 2.88-5.424 6.456 0 3.6 1.848 6.384 5.352 6.384 1.56 0 2.784-.624 3.648-1.68l-.048 1.176c0 .144.12.264.264.264h3.096zm5.983 0c.144 0 .264-.12.264-.264l-.024-5.232c0-2.832 1.872-4.248 4.416-4.248.12 0 .288 0 .408.024.144 0 .264-.096.264-.24V5.904a.332.332 0 00-.264-.312 3.58 3.58 0 00-.504-.048c-1.8 0-3.456.72-4.416 2.184l.072-1.824c.024-.144-.096-.264-.24-.264h-3.072a.266.266 0 00-.264.264l.096 5.904-.096 5.928c0 .144.12.264.264.264h3.096zm19.715-6.216c0-3.6-1.848-6.384-5.352-6.384-1.536 0-2.76.6-3.624 1.632l.048-5.568a.266.266 0 00-.264-.264h-3.12a.266.266 0 00-.264.264l.096 8.136-.096 8.136c0 .144.12.264.264.264h3.12c.144 0 .264-.12.24-.264l-.048-1.056c.84 1.008 2.04 1.56 3.576 1.56 3.36 0 5.424-2.88 5.424-6.456zm-9.072-.096c.024-2.544.96-3.84 2.712-3.84 1.728-.024 2.688 1.368 2.688 4.08 0 2.496-.936 3.912-2.76 3.864-1.728-.024-2.664-1.464-2.64-4.104zm23.575.096c0-3.936-2.28-6.456-6.312-6.456s-6.36 2.592-6.36 6.528c0 3.936 2.328 6.456 6.36 6.456s6.312-2.592 6.312-6.528zm-9 .096c0-2.784.84-4.128 2.664-4.152 1.776 0 2.64 1.344 2.64 4.128 0 2.832-.84 4.056-2.616 4.056-1.8 0-2.688-1.248-2.688-4.032zM547.064 18c.144 0 .264-.12.264-.264l-.048-4.992v-.912c0-2.64 1.392-3.84 2.688-3.84 1.08 0 1.896.864 1.896 2.208v2.544l-.072 4.992c0 .144.12.264.264.264h3.12c.144 0 .264-.12.264-.264l-.072-4.992v-2.592c0-3.024-1.68-4.8-4.296-4.8-1.728 0-3.144.768-3.984 1.848l.048-1.296c.024-.144-.096-.264-.24-.264h-2.952a.266.266 0 00-.264.264l.048 6.168-.096 5.664c0 .144.12.264.264.264h3.168zm27.82-3.768c0-5.256-8.088-2.856-8.088-5.208 0-1.056.744-1.488 1.92-1.488 1.44 0 2.112.624 2.304 1.656.048.168.168.264.336.264h2.808c.144 0 .264-.12.24-.264-.24-2.568-2.424-3.84-5.64-3.84-3.336 0-5.4 1.368-5.4 3.936 0 5.184 8.088 2.904 8.088 5.256 0 .96-.768 1.512-2.184 1.512-1.68 0-2.568-.6-2.688-1.944a.266.266 0 00-.264-.264h-2.976a.266.266 0 00-.264.264c.144 2.736 2.568 4.176 6.072 4.176 3.288 0 5.736-1.464 5.736-4.056zm14.481-2.448c0-3.936-2.28-6.456-6.312-6.456s-6.36 2.592-6.36 6.528c0 3.936 2.328 6.456 6.36 6.456s6.312-2.592 6.312-6.528zm-9 .096c0-2.784.84-4.128 2.664-4.152 1.776 0 2.64 1.344 2.64 4.128 0 2.832-.84 4.056-2.616 4.056-1.8 0-2.688-1.248-2.688-4.032zM594.896 18c.144 0 .264-.12.264-.264l-.12-8.136.12-8.136a.266.266 0 00-.264-.264h-3.072a.266.266 0 00-.264.264l.12 8.136-.12 8.136c0 .144.12.264.264.264h3.072zm11.011-1.56l-.048 1.296c-.024.144.096.264.24.264h2.952c.144 0 .264-.12.264-.264l-.048-6.168.096-5.664a.266.266 0 00-.264-.264h-3.168a.266.266 0 00-.264.264l.048 4.992v.912c0 2.64-1.392 3.84-2.688 3.84-1.08 0-1.896-.864-1.896-2.208v-2.544l.072-4.992a.266.266 0 00-.264-.264h-3.12a.266.266 0 00-.264.264l.072 4.992v2.592c0 3.024 1.68 4.8 4.296 4.8 1.728 0 3.144-.768 3.984-1.848zm13.484-.768c0-.12-.12-.216-.264-.192-.36.096-.792.192-1.344.192-.792 0-1.32-.336-1.32-1.392l-.024-6.096h2.712c.144 0 .264-.12.264-.264V5.904a.266.266 0 00-.264-.264h-2.688l.024-2.832a.266.266 0 00-.264-.264h-3.12a.266.266 0 00-.264.264l.024 2.832h-1.32a.266.266 0 00-.264.264V7.92c0 .144.12.264.264.264h1.344l-.024 6.192c0 2.808 1.992 3.864 4.08 3.864.744 0 1.512-.168 2.208-.384a.436.436 0 00.24-.36v-1.824zm5.504-11.232c.144 0 .264-.12.264-.264V1.464a.266.266 0 00-.264-.264h-3.12a.266.266 0 00-.264.264v2.712c0 .144.12.264.264.264h3.12zm.024 13.56c.144 0 .264-.12.264-.264l-.096-5.904.096-5.928a.266.266 0 00-.264-.264h-3.168a.266.266 0 00-.264.264l.096 5.928-.096 5.904c0 .144.12.264.264.264h3.168zm15.113-6.216c0-3.936-2.28-6.456-6.312-6.456s-6.36 2.592-6.36 6.528c0 3.936 2.328 6.456 6.36 6.456s6.312-2.592 6.312-6.528zm-9 .096c0-2.784.84-4.128 2.664-4.152 1.776 0 2.64 1.344 2.64 4.128 0 2.832-.84 4.056-2.616 4.056-1.8 0-2.688-1.248-2.688-4.032zM645.564 18c.144 0 .264-.12.264-.264l-.048-4.992v-.912c0-2.64 1.392-3.84 2.688-3.84 1.08 0 1.896.864 1.896 2.208v2.544l-.072 4.992c0 .144.12.264.264.264h3.12c.144 0 .264-.12.264-.264l-.072-4.992v-2.592c0-3.024-1.68-4.8-4.296-4.8-1.728 0-3.144.768-3.984 1.848l.048-1.296c.024-.144-.096-.264-.24-.264h-2.952a.266.266 0 00-.264.264l.048 6.168-.096 5.664c0 .144.12.264.264.264h3.168zm22.172-3.768c0-5.256-8.088-2.856-8.088-5.208 0-1.056.744-1.488 1.92-1.488 1.44 0 2.112.624 2.304 1.656.048.168.168.264.336.264h2.808c.144 0 .264-.12.24-.264-.24-2.568-2.424-3.84-5.64-3.84-3.336 0-5.4 1.368-5.4 3.936 0 5.184 8.088 2.904 8.088 5.256 0 .96-.768 1.512-2.184 1.512-1.68 0-2.568-.6-2.688-1.944a.266.266 0 00-.264-.264h-2.976a.266.266 0 00-.264.264c.144 2.736 2.568 4.176 6.072 4.176 3.288 0 5.736-1.464 5.736-4.056z" fill="#fff"/></svg>