<svg width="480" height="29" viewBox="0 0 480 29" fill="none" xmlns="http://www.w3.org/2000/svg"><path d="M6.51 22h4.185l4.371-15.965L19.499 22h4.154L29.884.3h-3.658l-4.65 17.174L16.864.3h-3.379L8.649 17.474 4.03.269.341.3 6.51 22zm31.426.186c3.937 0 6.603-2.387 7.16-5.518H41.75c-.465 1.767-1.953 2.79-4 2.79-2.634 0-4.34-1.767-4.432-4.464v-.217h11.966c.062-.434.093-.868.093-1.271-.093-4.65-3.162-7.564-7.75-7.564-4.681 0-7.812 3.255-7.812 8.153 0 4.867 3.13 8.091 8.122 8.091zm-4.495-9.858c.248-2.263 2.077-3.689 4.216-3.689 2.325 0 3.968 1.333 4.247 3.689H33.44zm34.694-3.72c-1.023-1.581-2.728-2.666-5.208-2.666-4.309 0-7.502 3.193-7.502 8.06 0 5.053 3.193 8.06 7.502 8.06 2.48 0 4.123-1.023 5.177-2.604v1.767c0 3.038-1.643 4.433-4.557 4.433-2.356 0-3.906-1.023-4.309-2.79h-3.41c.31 3.565 3.255 5.518 7.471 5.518 5.704 0 8.122-2.728 8.122-7.037V6.128h-2.914l-.372 2.48zm-4.65 10.633c-2.79 0-4.619-2.139-4.619-5.239 0-3.069 1.83-5.239 4.62-5.239s4.618 2.17 4.618 5.301c0 3.038-1.829 5.177-4.619 5.177zm18.71 2.945c4.836 0 8.09-3.255 8.09-8.122 0-4.836-3.254-8.122-8.09-8.122s-8.091 3.286-8.091 8.122c0 4.867 3.255 8.122 8.09 8.122zm0-2.852c-2.821 0-4.65-2.201-4.65-5.27 0-3.069 1.829-5.27 4.65-5.27 2.82 0 4.68 2.201 4.68 5.27 0 3.069-1.86 5.27-4.68 5.27zm19.862-1.643c0 2.883 1.302 4.309 4.34 4.309h3.1v-2.945h-2.356c-1.271 0-1.705-.465-1.705-1.705V9.073h3.875V6.128h-3.875V1.695h-3.379v4.433h-2.76v2.945h2.76v8.618zm16.738 4.495c4.836 0 8.091-3.255 8.091-8.122 0-4.836-3.255-8.122-8.091-8.122-4.836 0-8.091 3.286-8.091 8.122 0 4.867 3.255 8.122 8.091 8.122zm0-2.852c-2.821 0-4.65-2.201-4.65-5.27 0-3.069 1.829-5.27 4.65-5.27 2.821 0 4.681 2.201 4.681 5.27 0 3.069-1.86 5.27-4.681 5.27zm18.126-10.261h8.494l-8.866 10.54V22h13.764v-2.945h-9.269l8.866-10.54V6.128h-12.989v2.945zm22.532 13.113c3.937 0 6.603-2.387 7.161-5.518h-3.348c-.465 1.767-1.953 2.79-3.999 2.79-2.635 0-4.34-1.767-4.433-4.464v-.217H166.8c.062-.434.093-.868.093-1.271-.093-4.65-3.162-7.564-7.75-7.564-4.681 0-7.812 3.255-7.812 8.153 0 4.867 3.131 8.091 8.122 8.091zm-4.495-9.858c.248-2.263 2.077-3.689 4.216-3.689 2.325 0 3.968 1.333 4.247 3.689h-8.463zm22.671-6.2c-2.604 0-3.875 1.054-4.681 2.387l-.372-2.387H169.6V22h3.348v-7.967c0-2.449.961-4.774 3.937-4.774h1.488V6.128h-.744zm9.554 16.058c4.836 0 8.091-3.255 8.091-8.122 0-4.836-3.255-8.122-8.091-8.122-4.836 0-8.091 3.286-8.091 8.122 0 4.867 3.255 8.122 8.091 8.122zm0-2.852c-2.821 0-4.65-2.201-4.65-5.27 0-3.069 1.829-5.27 4.65-5.27 2.821 0 4.681 2.201 4.681 5.27 0 3.069-1.86 5.27-4.681 5.27zm11.364-1.333c-1.426 0-2.356.93-2.356 2.108 0 1.333.806 1.984 1.829 1.984.372 0 .744-.093 1.023-.31.031.124.031.279.031.403 0 1.085-.775 2.294-2.728 2.325v1.798c3.069-.031 4.991-1.736 4.991-4.743 0-1.984-1.085-3.565-2.79-3.565zm12.633-1.24c.093 3.441 3.007 5.425 7.254 5.425 3.844 0 6.727-1.922 6.727-4.96 0-3.534-2.945-4.278-6.572-4.712-2.294-.248-3.813-.434-3.813-1.922 0-1.271 1.302-2.077 3.286-2.077s3.348 1.023 3.534 2.48h3.286c-.217-3.255-2.976-5.053-6.882-5.053-3.813-.031-6.51 1.922-6.51 4.929 0 3.286 2.852 4.061 6.479 4.495 2.449.31 3.906.434 3.906 2.139 0 1.271-1.364 2.077-3.441 2.077-2.418 0-3.844-1.178-3.968-2.821h-3.286zm24.077 5.425c4.836 0 8.091-3.255 8.091-8.122 0-4.836-3.255-8.122-8.091-8.122-4.836 0-8.091 3.286-8.091 8.122 0 4.867 3.255 8.122 8.091 8.122zm0-2.852c-2.821 0-4.65-2.201-4.65-5.27 0-3.069 1.829-5.27 4.65-5.27 2.821 0 4.681 2.201 4.681 5.27 0 3.069-1.86 5.27-4.681 5.27zm23.303 2.759l-.62 1.55c-.496 1.302-.806 1.612-2.108 1.612h-2.356V28.2h3.596c2.325 0 3.007-1.147 3.999-3.72l7.192-18.352h-3.565l-4.309 12.059-4.433-12.059h-3.565l6.169 15.965zm18.172.093c4.836 0 8.091-3.255 8.091-8.122 0-4.836-3.255-8.122-8.091-8.122-4.836 0-8.091 3.286-8.091 8.122 0 4.867 3.255 8.122 8.091 8.122zm0-2.852c-2.821 0-4.65-2.201-4.65-5.27 0-3.069 1.829-5.27 4.65-5.27 2.821 0 4.681 2.201 4.681 5.27 0 3.069-1.86 5.27-4.681 5.27zm21.664-5.27c0 3.286-1.55 5.208-4.092 5.208-2.449 0-3.689-1.581-3.689-4.681V6.128h-3.348v8.835c0 5.425 2.883 7.223 6.262 7.223 2.449 0 3.906-.992 4.898-2.201l.372 2.015h2.945V6.128h-3.348v7.936zm21.864 8.122c4.061 0 6.758-2.263 7.378-5.859h-3.534c-.403 1.829-1.767 3.007-3.813 3.007-2.697 0-4.464-2.139-4.464-5.239 0-3.131 1.767-5.301 4.464-5.301 2.077 0 3.41 1.147 3.844 3.007h3.503c-.651-3.596-3.193-5.859-7.285-5.859-4.805 0-7.967 3.255-7.967 8.153 0 4.96 3.069 8.091 7.874 8.091zm24.449-3.1c-.682 0-1.023-.217-1.023-1.023v-6.355c0-3.751-2.418-5.766-6.634-5.766-3.999 0-6.665 1.922-7.006 5.022h3.286c.248-1.395 1.581-2.325 3.565-2.325 2.201 0 3.472 1.085 3.472 2.852v.961h-3.999c-4.433 0-6.789 1.829-6.789 5.084 0 2.945 2.418 4.65 5.89 4.65 2.573 0 4.185-1.116 5.239-2.728 0 1.581.744 2.542 2.914 2.542h1.767v-2.914h-.682zm-4.34-3.596c-.031 2.449-1.643 4.092-4.433 4.092-1.829 0-2.945-.93-2.945-2.263 0-1.612 1.147-2.387 3.224-2.387h4.154v.558zm15.215-9.548c-2.573 0-4.092 1.023-5.084 2.263l-.372-2.077h-2.914V22h3.348v-7.998c0-3.224 1.581-5.177 4.247-5.177 2.511 0 3.782 1.612 3.782 4.619V22h3.379v-8.835c0-5.301-2.883-7.223-6.386-7.223zm29.484 2.666c-1.023-1.581-2.728-2.666-5.208-2.666-4.309 0-7.502 3.193-7.502 8.06 0 5.053 3.193 8.06 7.502 8.06 2.48 0 4.123-1.023 5.177-2.604v1.767c0 3.038-1.643 4.433-4.557 4.433-2.356 0-3.906-1.023-4.309-2.79h-3.41c.31 3.565 3.255 5.518 7.471 5.518 5.704 0 8.122-2.728 8.122-7.037V6.128h-2.914l-.372 2.48zm-4.65 10.633c-2.79 0-4.619-2.139-4.619-5.239 0-3.069 1.829-5.239 4.619-5.239s4.619 2.17 4.619 5.301c0 3.038-1.829 5.177-4.619 5.177zm18.709 2.945c4.836 0 8.091-3.255 8.091-8.122 0-4.836-3.255-8.122-8.091-8.122-4.836 0-8.091 3.286-8.091 8.122 0 4.867 3.255 8.122 8.091 8.122zm0-2.852c-2.821 0-4.65-2.201-4.65-5.27 0-3.069 1.829-5.27 4.65-5.27 2.821 0 4.681 2.201 4.681 5.27 0 3.069-1.86 5.27-4.681 5.27zm19.862-1.643c0 2.883 1.302 4.309 4.34 4.309h3.1v-2.945h-2.356c-1.271 0-1.705-.465-1.705-1.705V9.073h3.875V6.128h-3.875V1.695h-3.379v4.433h-2.759v2.945h2.759v8.618zm16.739 4.495c4.836 0 8.091-3.255 8.091-8.122 0-4.836-3.255-8.122-8.091-8.122-4.836 0-8.091 3.286-8.091 8.122 0 4.867 3.255 8.122 8.091 8.122zm0-2.852c-2.821 0-4.65-2.201-4.65-5.27 0-3.069 1.829-5.27 4.65-5.27 2.821 0 4.681 2.201 4.681 5.27 0 3.069-1.86 5.27-4.681 5.27zm22.218-16.833c0 1.147-.465 1.953-1.581 1.953h-3.379v2.945h3.534c.589 0 1.054-.093 1.364-.279V22h3.441V.3h-3.379v2.201zm10.535 0c0 1.147-.465 1.953-1.581 1.953h-3.379v2.945h3.534c.589 0 1.054-.093 1.364-.279V22h3.441V.3h-3.379v2.201zm6.722 17.577c0 1.24.899 2.108 2.139 2.108 1.24 0 2.17-.868 2.17-2.108 0-1.24-.93-2.108-2.17-2.108-1.24 0-2.139.868-2.139 2.108z" fill="#000"/></svg>