<svg width="236" height="20" viewBox="0 0 236 20" fill="none" xmlns="http://www.w3.org/2000/svg"><path d="M.28 15h9.38v-2.04H2.58V8.9h5.64V6.92H2.58V3.04h6.84V1H.28v14zm11.05 0h2.16V1h-2.16v14zm9.137.12c2.54 0 4.26-1.54 4.62-3.56h-2.16c-.3 1.14-1.26 1.8-2.58 1.8-1.7 0-2.8-1.14-2.86-2.88v-.14h7.72c.04-.28.06-.56.06-.82-.06-3-2.04-4.88-5-4.88-3.02 0-5.04 2.1-5.04 5.26 0 3.14 2.02 5.22 5.24 5.22zm-2.9-6.36c.16-1.46 1.34-2.38 2.72-2.38 1.5 0 2.56.86 2.74 2.38h-5.46zM29.304 15h2.64l3.78-10.24h-2.28l-2.78 7.92-2.82-7.92h-2.32L29.304 15zm16.327-1.88c-.44 0-.66-.14-.66-.66v-4.1c0-2.42-1.56-3.72-4.28-3.72-2.58 0-4.3 1.24-4.52 3.24h2.12c.16-.9 1.02-1.5 2.3-1.5 1.42 0 2.24.7 2.24 1.84v.62h-2.58c-2.86 0-4.38 1.18-4.38 3.28 0 1.9 1.56 3 3.8 3 1.66 0 2.7-.72 3.38-1.76 0 1.02.48 1.64 1.88 1.64h1.14v-1.88h-.44zm-2.8-2.32c-.02 1.58-1.06 2.64-2.86 2.64-1.18 0-1.9-.6-1.9-1.46 0-1.04.74-1.54 2.08-1.54h2.68v.36zm5.156 1.42c0 1.86.84 2.78 2.8 2.78h2v-1.9h-1.52c-.82 0-1.1-.3-1.1-1.1V6.66h2.5v-1.9h-2.5V1.9h-2.18v2.86h-1.78v1.9h1.78v5.56zm10.82 2.9c2.54 0 4.26-1.54 4.62-3.56h-2.16c-.3 1.14-1.26 1.8-2.58 1.8-1.7 0-2.8-1.14-2.86-2.88v-.14h7.72c.04-.28.06-.56.06-.82-.06-3-2.04-4.88-5-4.88-3.02 0-5.04 2.1-5.04 5.26 0 3.14 2.02 5.22 5.24 5.22zm-2.9-6.36c.16-1.46 1.34-2.38 2.72-2.38 1.5 0 2.56.86 2.74 2.38h-5.46zm17.523 6.3l-.4 1c-.32.84-.52 1.04-1.36 1.04h-1.52V19h2.32c1.5 0 1.94-.74 2.58-2.4l4.64-11.84h-2.3l-2.78 7.78-2.86-7.78h-2.3l3.98 10.3zm11.724.06c3.12 0 5.22-2.1 5.22-5.24 0-3.12-2.1-5.24-5.22-5.24-3.12 0-5.22 2.12-5.22 5.24 0 3.14 2.1 5.24 5.22 5.24zm0-1.84c-1.82 0-3-1.42-3-3.4s1.18-3.4 3-3.4 3.02 1.42 3.02 3.4-1.2 3.4-3.02 3.4zm13.977-3.4c0 2.12-1 3.36-2.64 3.36-1.58 0-2.38-1.02-2.38-3.02V4.76h-2.16v5.7c0 3.5 1.86 4.66 4.04 4.66 1.58 0 2.52-.64 3.16-1.42l.24 1.3h1.9V4.76h-2.16v5.12zm9.468-5.12c-1.68 0-2.5.68-3.02 1.54l-.24-1.54h-1.92V15h2.16V9.86c0-1.58.62-3.08 2.54-3.08h.96V4.76h-.48zm7.67 7.46c0 1.86.84 2.78 2.8 2.78h2v-1.9h-1.52c-.82 0-1.1-.3-1.1-1.1V6.66h2.5v-1.9h-2.5V1.9h-2.18v2.86h-1.78v1.9h1.78v5.56zm11.354-7.46c-1.68 0-2.5.68-3.02 1.54l-.24-1.54h-1.92V15h2.16V9.86c0-1.58.62-3.08 2.54-3.08h.96V4.76h-.48zm10.86 8.36c-.44 0-.66-.14-.66-.66v-4.1c0-2.42-1.56-3.72-4.28-3.72-2.58 0-4.3 1.24-4.52 3.24h2.12c.16-.9 1.02-1.5 2.3-1.5 1.42 0 2.24.7 2.24 1.84v.62h-2.58c-2.86 0-4.381 1.18-4.381 3.28 0 1.9 1.561 3 3.801 3 1.66 0 2.7-.72 3.38-1.76 0 1.02.48 1.64 1.88 1.64h1.14v-1.88h-.44zm-2.8-2.32c-.02 1.58-1.06 2.64-2.86 2.64-1.18 0-1.9-.6-1.9-1.46 0-1.04.74-1.54 2.08-1.54h2.68v.36zm12.118-4.62c-.66-.9-1.76-1.54-3.32-1.54-2.78 0-4.84 2.08-4.84 5.24 0 3.28 2.06 5.24 4.84 5.24 1.62 0 2.68-.76 3.34-1.66l.26 1.54h1.88V1h-2.16v5.18zm-2.96 7.12c-1.8 0-2.98-1.4-2.98-3.42 0-2 1.18-3.4 2.98-3.4s2.98 1.4 2.98 3.44c0 1.98-1.18 3.38-2.98 3.38zm8.331-9.98c.74 0 1.32-.54 1.32-1.3s-.58-1.3-1.32-1.3c-.74 0-1.32.54-1.32 1.3s.58 1.3 1.32 1.3zm-1.1 11.68h2.16V4.76h-2.16V15zm9.677-10.36c-1.66 0-2.64.66-3.28 1.46l-.24-1.34h-1.88V15h2.16V9.84c0-2.08 1.02-3.34 2.74-3.34 1.62 0 2.44 1.04 2.44 2.98V15h2.18V9.3c0-3.42-1.86-4.66-4.12-4.66zm13.904 1.72c-.66-1.02-1.76-1.72-3.36-1.72-2.78 0-4.84 2.06-4.84 5.2 0 3.26 2.06 5.2 4.84 5.2 1.6 0 2.66-.66 3.34-1.68v1.14c0 1.96-1.06 2.86-2.94 2.86-1.52 0-2.52-.66-2.78-1.8h-2.2c.2 2.3 2.1 3.56 4.82 3.56 3.68 0 5.24-1.76 5.24-4.54V4.76h-1.88l-.24 1.6zm-3 6.86c-1.8 0-2.98-1.38-2.98-3.38 0-1.98 1.18-3.38 2.98-3.38s2.98 1.4 2.98 3.42c0 1.96-1.18 3.34-2.98 3.34zm13.088-1c0 1.86.84 2.78 2.8 2.78h2v-1.9h-1.52c-.82 0-1.1-.3-1.1-1.1V6.66h2.5v-1.9h-2.5V1.9h-2.18v2.86h-1.78v1.9h1.78v5.56zm10.8 2.9c3.12 0 5.22-2.1 5.22-5.24 0-3.12-2.1-5.24-5.22-5.24-3.12 0-5.22 2.12-5.22 5.24 0 3.14 2.1 5.24 5.22 5.24zm0-1.84c-1.82 0-3-1.42-3-3.4s1.18-3.4 3-3.4 3.02 1.42 3.02 3.4-1.2 3.4-3.02 3.4zm14.737-7.1c-.66-.9-1.76-1.54-3.32-1.54-2.78 0-4.84 2.08-4.84 5.24 0 3.28 2.06 5.24 4.84 5.24 1.62 0 2.68-.76 3.34-1.66l.26 1.54h1.88V1h-2.16v5.18zm-2.961 7.12c-1.799 0-2.979-1.4-2.979-3.42 0-2 1.18-3.4 2.979-3.4 1.801 0 2.981 1.4 2.981 3.44 0 1.98-1.18 3.38-2.981 3.38zm16.591-.18c-.44 0-.66-.14-.66-.66v-4.1c0-2.42-1.56-3.72-4.28-3.72-2.58 0-4.3 1.24-4.52 3.24h2.12c.16-.9 1.02-1.5 2.3-1.5 1.42 0 2.24.7 2.24 1.84v.62h-2.58c-2.86 0-4.38 1.18-4.38 3.28 0 1.9 1.56 3 3.8 3 1.66 0 2.7-.72 3.38-1.76 0 1.02.48 1.64 1.88 1.64h1.14v-1.88h-.44zm-2.8-2.32c-.02 1.58-1.06 2.64-2.86 2.64-1.18 0-1.9-.6-1.9-1.46 0-1.04.74-1.54 2.08-1.54h2.68v.36zm6.947 4.26l-.4 1c-.32.84-.52 1.04-1.36 1.04h-1.52V19h2.32c1.5 0 1.94-.74 2.58-2.4l4.64-11.84h-2.3l-2.78 7.78-2.86-7.78h-2.3l3.98 10.3z" fill="#000"/></svg>