<svg width="138" height="16" viewBox="0 0 138 16" fill="none" xmlns="http://www.w3.org/2000/svg"><path d="M0 12h1.797V1.06H0V12zm12.833-8.095c-1.313 0-2.219.578-2.735 1.453-.484-1.031-1.422-1.453-2.469-1.453-1.203.015-1.89.547-2.344 1.14L5.097 4H3.628V12h1.688V7.718c0-1.422.719-2.36 1.875-2.36 1.11 0 1.688.735 1.688 2.141V12h1.704V7.671c0-1.438.734-2.313 1.89-2.313 1.095 0 1.673.735 1.673 2.141V12h1.688V7.39c0-2.532-1.344-3.485-3-3.485zm13.735 0c-1.312 0-2.219.578-2.735 1.453-.484-1.031-1.422-1.453-2.469-1.453-1.203.015-1.89.547-2.344 1.14L18.833 4h-1.47V12h1.688V7.718c0-1.422.72-2.36 1.876-2.36 1.11 0 1.688.735 1.688 2.141V12h1.703V7.671c0-1.438.734-2.313 1.89-2.313 1.095 0 1.673.735 1.673 2.141V12h1.688V7.39c0-2.532-1.344-3.485-3-3.485zm8.267 8.189c1.985 0 3.33-1.204 3.61-2.782h-1.687c-.235.89-.985 1.407-2.016 1.407-1.329 0-2.188-.891-2.235-2.25v-.11h6.032c.032-.219.047-.438.047-.641-.047-2.344-1.594-3.813-3.907-3.813-2.36 0-3.938 1.64-3.938 4.11 0 2.454 1.578 4.079 4.094 4.079zm-2.266-4.97c.125-1.14 1.047-1.86 2.126-1.86 1.172 0 2 .672 2.14 1.86H32.57zM44 4c-1.314 0-1.954.531-2.36 1.203l-.188-1.203h-1.5V12h1.687V7.984c0-1.235.485-2.407 1.985-2.407h.75V3.999h-.375zm.934 5.36c.047 1.735 1.516 2.735 3.657 2.735 1.938 0 3.391-.97 3.391-2.5 0-1.782-1.485-2.157-3.313-2.376-1.156-.125-1.922-.219-1.922-.969 0-.64.656-1.047 1.656-1.047 1 0 1.688.516 1.782 1.25h1.657c-.11-1.64-1.5-2.547-3.47-2.547-1.922-.016-3.282.969-3.282 2.485 0 1.656 1.438 2.047 3.267 2.266 1.234.156 1.969.218 1.969 1.078 0 .64-.688 1.047-1.735 1.047-1.22 0-1.938-.594-2-1.422h-1.657zm12.154 2.735c1.984 0 3.328-1.204 3.61-2.782h-1.688c-.235.89-.985 1.407-2.016 1.407-1.329 0-2.188-.891-2.235-2.25v-.11h6.032c.032-.219.047-.438.047-.641-.047-2.344-1.594-3.813-3.907-3.813-2.36 0-3.938 1.64-3.938 4.11 0 2.454 1.579 4.079 4.095 4.079zm-2.266-4.97c.125-1.14 1.047-1.86 2.125-1.86 1.172 0 2 .672 2.141 1.86h-4.266zm13.692 4.923l-.312.781c-.25.657-.407.813-1.063.813H65.95v1.485h1.813c1.172 0 1.516-.579 2.016-1.876L73.405 4h-1.798l-2.172 6.079-2.235-6.08h-1.797l3.11 8.049zm9.16.047c2.439 0 4.08-1.641 4.08-4.095 0-2.438-1.641-4.094-4.08-4.094-2.437 0-4.078 1.656-4.078 4.094 0 2.454 1.641 4.095 4.079 4.095zm0-1.438c-1.421 0-2.343-1.11-2.343-2.657s.922-2.656 2.344-2.656c1.422 0 2.36 1.11 2.36 2.656 0 1.547-.938 2.657-2.36 2.657zm10.922-2.657c0 1.657-.781 2.626-2.063 2.626-1.234 0-1.86-.797-1.86-2.36V3.999h-1.687v4.454c0 2.734 1.453 3.64 3.157 3.64 1.234 0 1.969-.5 2.469-1.109L88.798 12h1.485V3.999h-1.688v4zm7.399-4c-1.313 0-1.954.531-2.36 1.203l-.188-1.203h-1.5V12h1.688V7.984c0-1.235.484-2.407 1.985-2.407h.75V3.999h-.375zm.935 5.36c.047 1.735 1.516 2.735 3.657 2.735 1.937 0 3.391-.97 3.391-2.5 0-1.782-1.485-2.157-3.313-2.376-1.157-.125-1.922-.219-1.922-.969 0-.64.656-1.047 1.656-1.047 1 0 1.688.516 1.782 1.25h1.656c-.109-1.64-1.5-2.547-3.469-2.547-1.922-.016-3.282.969-3.282 2.485 0 1.656 1.438 2.047 3.266 2.266 1.235.156 1.969.218 1.969 1.078 0 .64-.687 1.047-1.734 1.047-1.22 0-1.938-.594-2-1.422h-1.657zm12.153 2.735c1.985 0 3.329-1.204 3.61-2.782h-1.687c-.235.89-.985 1.407-2.016 1.407-1.329 0-2.188-.891-2.235-2.25v-.11h6.032c.031-.219.047-.438.047-.641-.047-2.344-1.594-3.813-3.907-3.813-2.36 0-3.938 1.64-3.938 4.11 0 2.454 1.578 4.079 4.094 4.079zm-2.266-4.97c.125-1.14 1.047-1.86 2.126-1.86 1.172 0 2 .672 2.141 1.86h-4.267zM114.197 12h1.688V1.06h-1.688V12zm2.53-6.517h1.391V12h1.703V5.483h2.141V4h-2.172v-.672c0-.547.235-.782.781-.782h1.391V1.061h-1.609c-1.547 0-2.235.75-2.235 2.187v.75h-1.391v1.485zm10.966-2.61c.579 0 1.032-.422 1.032-1.015 0-.594-.453-1.016-1.032-1.016-.578 0-1.031.422-1.031 1.016 0 .593.453 1.015 1.031 1.015zM126.834 12h1.688V3.999h-1.688V12zm7.562-8.095c-1.297 0-2.063.516-2.563 1.14L131.645 4h-1.469V12h1.688V7.968c0-1.625.797-2.61 2.141-2.61 1.266 0 1.907.813 1.907 2.329V12h1.703V7.546c0-2.672-1.453-3.641-3.219-3.641z" fill="#000"/></svg>