<svg width="137" height="25" viewBox="0 0 137 25" fill="none" xmlns="http://www.w3.org/2000/svg"><rect y=".5" width="137" height="24" rx="12" fill="#000"/><path d="M22.816 16.5h1.044v-3.672h3.456v-.96H23.86V9.06h4.176V8.1h-5.22v8.4zm10.163-3.06c0 1.38-.672 2.232-1.788 2.232-1.02 0-1.596-.672-1.596-1.944V10.38h-.984v3.408c0 2.028 1.068 2.784 2.412 2.784 1.008 0 1.596-.432 1.956-.888l.132.816h.852v-6.12h-.984v3.06zm5.326-3.132c-1.032 0-1.656.432-2.016.9l-.132-.828h-.852v6.12h.984v-3.06c0-1.38.696-2.232 1.848-2.232 1.068 0 1.656.672 1.656 1.944V16.5h.984v-3.408c0-2.028-1.092-2.784-2.472-2.784zm8.48 1.008c-.372-.588-1.068-1.008-2.1-1.008-1.692 0-2.94 1.26-2.94 3.132 0 1.992 1.248 3.132 2.94 3.132 1.032 0 1.692-.492 2.1-1.056l.132.984h.852V8.1h-.984v3.216zm-2.004 4.38c-1.212 0-2.028-.924-2.028-2.256 0-1.332.816-2.256 2.028-2.256 1.2 0 2.016.936 2.016 2.28 0 1.308-.816 2.232-2.016 2.232zm14.297-5.388c-1.092 0-1.752.504-2.124 1.164-.348-.78-1.08-1.164-1.932-1.164-.948 0-1.464.468-1.788.912l-.132-.84h-.852v6.12h.984v-3.228c0-1.224.612-2.064 1.62-2.064.936 0 1.476.624 1.476 1.824V16.5h.984v-3.276c0-1.248.624-2.016 1.644-2.016.924 0 1.452.624 1.452 1.824V16.5h.984v-3.528c0-1.932-1.044-2.664-2.316-2.664zm5.132 6.228l-.3.744c-.228.576-.324.72-.888.72h-.876v.9h1.176c.864 0 1.092-.384 1.476-1.368l2.82-7.152h-1.044l-1.824 4.884-1.884-4.884h-1.044l2.388 6.156zm12.694-.936c-.276 0-.396-.084-.396-.408v-2.676c0-1.428-.9-2.208-2.46-2.208-1.476 0-2.448.708-2.592 1.908h.984c.12-.624.696-1.032 1.56-1.032.96 0 1.524.48 1.524 1.272v.42h-1.8c-1.608 0-2.46.684-2.46 1.908 0 1.116.912 1.788 2.256 1.788 1.056 0 1.668-.468 2.052-1.02.012.6.288.948 1.104.948h.54v-.9h-.312zm-1.38-1.596c0 1.02-.708 1.728-1.932 1.728-.816 0-1.332-.408-1.332-1.008 0-.696.492-1.02 1.368-1.02h1.896v.3zm5.126 2.568c1.488 0 2.484-.84 2.724-2.16h-1.043c-.193.78-.793 1.284-1.669 1.284-1.175 0-1.968-.912-1.968-2.244 0-1.332.793-2.268 1.968-2.268.9 0 1.5.492 1.68 1.308h1.032c-.251-1.344-1.2-2.184-2.7-2.184-1.776 0-2.988 1.272-2.988 3.144 0 1.908 1.176 3.12 2.964 3.12zm6.551 0c1.488 0 2.484-.84 2.724-2.16h-1.044c-.192.78-.792 1.284-1.668 1.284-1.176 0-1.968-.912-1.968-2.244 0-1.332.792-2.268 1.968-2.268.9 0 1.5.492 1.68 1.308h1.032c-.252-1.344-1.2-2.184-2.7-2.184-1.776 0-2.988 1.272-2.988 3.144 0 1.908 1.176 3.12 2.964 3.12zm6.623 0c1.788 0 3.036-1.272 3.036-3.132s-1.248-3.132-3.036-3.132-3.036 1.272-3.036 3.132 1.248 3.132 3.036 3.132zm0-.876c-1.212 0-2.028-.948-2.028-2.256 0-1.308.816-2.256 2.028-2.256 1.212 0 2.028.948 2.028 2.256 0 1.308-.816 2.256-2.028 2.256zm8.448-2.256c0 1.38-.672 2.232-1.788 2.232-1.02 0-1.596-.672-1.596-1.944V10.38h-.984v3.408c0 2.028 1.068 2.784 2.412 2.784 1.008 0 1.596-.432 1.956-.888l.132.816h.852v-6.12h-.984v3.06zm5.326-3.132c-1.032 0-1.656.432-2.016.9l-.132-.828h-.852v6.12h.984v-3.06c0-1.38.696-2.232 1.848-2.232 1.068 0 1.656.672 1.656 1.944V16.5h.984v-3.408c0-2.028-1.092-2.784-2.472-2.784zm4.182 4.596c0 1.08.42 1.596 1.596 1.596h1.068v-.9h-.972c-.528 0-.708-.192-.708-.708V11.28h1.584v-.9h-1.584V8.664h-.984v1.716h-1.104v.9h1.104v3.624z" fill="#fff"/></svg>