<svg width="225" height="9" viewBox="0 0 225 9" fill="none" xmlns="http://www.w3.org/2000/svg"><path d="M.414 4.565c.063 1.188.927 1.989 2.34 1.989 1.323 0 2.196-.72 2.196-1.782 0-1.197-1.062-1.503-2.106-1.683-.963-.162-1.8-.324-1.8-1.224 0-.819.639-1.278 1.629-1.278.945 0 1.593.531 1.701 1.35h.495C4.779.857 3.96.146 2.673.146 1.395.146.558.821.558 1.892c0 1.197 1.026 1.467 2.034 1.638.99.171 1.872.369 1.872 1.287 0 .81-.684 1.296-1.701 1.296-1.062 0-1.782-.612-1.845-1.548H.414zm5.838.873c0 .729.297 1.062 1.071 1.062h.666v-.423h-.63c-.477 0-.648-.18-.648-.648V2.36h1.233v-.423H6.711V.659h-.459v1.278h-.864v.423h.864v3.078zm6.353.639c-.27 0-.405-.09-.405-.441V3.512c0-1.044-.64-1.629-1.782-1.629-1.044 0-1.737.504-1.854 1.332h.459c.117-.558.603-.927 1.377-.927.855 0 1.34.45 1.34 1.206v.396h-1.547c-1.17 0-1.8.504-1.8 1.359 0 .81.639 1.305 1.61 1.305.928 0 1.477-.423 1.756-.99v.162c-.018.54.207.774.747.774h.27v-.423h-.171zm-.864-1.422c0 .873-.621 1.503-1.701 1.503-.73 0-1.18-.369-1.18-.936 0-.603.45-.936 1.297-.936h1.584v.369zm3.512-2.718c-.846 0-1.206.405-1.395.909l-.072-.909h-.396V6.5h.459V4.187c0-.927.243-1.809 1.314-1.809h.333v-.441h-.243zm1.388 3.501c0 .729.297 1.062 1.07 1.062h.667v-.423h-.63c-.477 0-.648-.18-.648-.648V2.36h1.233v-.423H17.1V.659h-.46v1.278h-.863v.423h.864v3.078zm5.203 0c0 .729.297 1.062 1.07 1.062h.667v-.423h-.63c-.477 0-.648-.18-.648-.648V2.36h1.233v-.423h-1.233V.659h-.46v1.278h-.863v.423h.864v3.078zm4.298-3.501c-.846 0-1.206.405-1.395.909l-.072-.909h-.396V6.5h.46V4.187c0-.927.242-1.809 1.313-1.809h.333v-.441h-.243zm4.744 4.14c-.27 0-.405-.09-.405-.441V3.512c0-1.044-.639-1.629-1.782-1.629-1.044 0-1.737.504-1.854 1.332h.459c.117-.558.603-.927 1.377-.927.855 0 1.341.45 1.341 1.206v.396h-1.548c-1.17 0-1.8.504-1.8 1.359 0 .81.639 1.305 1.611 1.305.927 0 1.476-.423 1.755-.99v.162c-.018.54.207.774.747.774h.27v-.423h-.171zm-.864-1.422c0 .873-.621 1.503-1.701 1.503-.729 0-1.179-.369-1.179-.936 0-.603.45-.936 1.296-.936h1.584v.369zm5.305-1.692c-.28-.648-.892-1.08-1.746-1.08-1.252 0-2.152.954-2.152 2.331 0 1.44.9 2.34 2.152 2.34.854 0 1.448-.459 1.736-1.098L35.39 6.5h.396V.2h-.458v2.763zm-1.71 3.177c-1.017 0-1.72-.792-1.72-1.926 0-1.125.703-1.926 1.72-1.926s1.719.801 1.719 1.935c0 1.125-.703 1.917-1.72 1.917zM37.099.974c.18 0 .324-.135.324-.324A.317.317 0 0037.1.326a.317.317 0 00-.324.324c0 .189.144.324.324.324zM36.865 6.5h.46V1.937h-.46V6.5zm3.644-4.617c-.837 0-1.377.432-1.638 1.026l-.072-.972h-.396V6.5h.46V4.25c0-1.188.602-1.944 1.574-1.944.882 0 1.413.576 1.413 1.656V6.5h.46V3.944c0-1.44-.766-2.061-1.8-2.061zm6.533 1.116c-.279-.675-.89-1.116-1.737-1.116-1.25 0-2.15.945-2.15 2.331 0 1.44.9 2.34 2.15 2.34.855 0 1.458-.45 1.746-1.161v.81c0 1.215-.576 1.737-1.674 1.737-.855 0-1.449-.387-1.593-1.08h-.477c.144.972.927 1.494 2.034 1.494 1.476 0 2.17-.702 2.17-2.133V1.937h-.397l-.072 1.062zm-1.7 3.141c-1.018 0-1.72-.792-1.72-1.926s.702-1.926 1.72-1.926c1.016 0 1.718.792 1.718 1.935 0 1.125-.702 1.917-1.719 1.917zm6.646-5.139c0 .288-.135.486-.414.486h-1.08v.423h1.08c.189 0 .324-.054.405-.153V6.5h.468V.2h-.46v.801zM53.3 6.5h4.203v-.432H53.95l2.097-1.89c.73-.657 1.377-1.26 1.377-2.214 0-1.107-.765-1.818-2.043-1.818-1.224 0-2.016.792-2.016 1.98v.153h.468v-.126c0-.981.603-1.584 1.548-1.584.954 0 1.566.531 1.566 1.422 0 .792-.603 1.341-1.197 1.881l-2.448 2.223V6.5zm5.216-.63c-.243 0-.396.153-.396.351 0 .216.144.324.315.324.09 0 .18-.036.225-.108a.325.325 0 01.081.234c0 .342-.216.693-.675.711v.27c.621-.027 1.008-.441 1.008-1.035 0-.414-.234-.747-.558-.747zm.907-2.376c0 1.845.91 3.06 2.277 3.06 1.35 0 2.268-1.215 2.268-3.06v-.288c0-1.791-.918-3.06-2.268-3.06-1.368 0-2.277 1.269-2.277 3.06v.288zm4.068-.018c0 1.602-.71 2.646-1.79 2.646-1.09 0-1.8-1.044-1.8-2.646v-.252c0-1.602.71-2.646 1.8-2.646 1.08 0 1.79 1.044 1.79 2.646v.252zm1.337.018c0 1.845.91 3.06 2.278 3.06 1.35 0 2.267-1.215 2.267-3.06v-.288c0-1.791-.917-3.06-2.267-3.06-1.368 0-2.278 1.269-2.278 3.06v.288zm4.069-.018c0 1.602-.712 2.646-1.791 2.646-1.09 0-1.8-1.044-1.8-2.646v-.252c0-1.602.71-2.646 1.8-2.646 1.08 0 1.79 1.044 1.79 2.646v.252zm1.337.018c0 1.845.909 3.06 2.277 3.06 1.35 0 2.268-1.215 2.268-3.06v-.288c0-1.791-.918-3.06-2.268-3.06-1.368 0-2.277 1.269-2.277 3.06v.288zm4.068-.018c0 1.602-.711 2.646-1.791 2.646-1.09 0-1.8-1.044-1.8-2.646v-.252c0-1.602.71-2.646 1.8-2.646 1.08 0 1.79 1.044 1.79 2.646v.252zm3.065.243h-1.566v.387h1.566v1.647h.423V4.106h1.575v-.387h-1.575V2.072h-.423v1.647zm10.663-1.836c-.837 0-1.377.468-1.638 1.143-.216-.756-.782-1.143-1.502-1.143-.784 0-1.252.459-1.486 1.026l-.072-.972h-.395V6.5h.459V4.178c0-1.116.54-1.872 1.412-1.872.793 0 1.288.558 1.288 1.611V6.5h.459V4.016c.026-1.044.567-1.71 1.422-1.71.791 0 1.269.531 1.269 1.566V6.5h.468V3.854c0-1.377-.73-1.971-1.684-1.971zm6.716 4.194c-.27 0-.405-.09-.405-.441V3.512c0-1.044-.639-1.629-1.782-1.629-1.044 0-1.737.504-1.854 1.332h.46c.116-.558.602-.927 1.376-.927.855 0 1.341.45 1.341 1.206v.396h-1.548c-1.17 0-1.8.504-1.8 1.359 0 .81.64 1.305 1.611 1.305.927 0 1.476-.423 1.755-.99v.162c-.018.54.207.774.747.774h.27v-.423h-.17zm-.864-1.422c0 .873-.62 1.503-1.7 1.503-.73 0-1.18-.369-1.18-.936 0-.603.45-.936 1.296-.936h1.584v.369zm3.512-2.718c-.846 0-1.206.405-1.395.909l-.072-.909h-.396V6.5h.46V4.187c0-.927.242-1.809 1.313-1.809h.333v-.441h-.243zm.923 4.563h.46V5.267l1.07-1.098 1.746 2.331h.558l-1.989-2.664 1.836-1.899h-.567l-2.655 2.736V.2h-.459v6.3zm6.217.054c.999 0 1.764-.648 1.962-1.566h-.468c-.18.711-.783 1.152-1.53 1.152-1.017 0-1.656-.774-1.674-1.836v-.081h3.726c0-.063.009-.135.009-.189-.045-1.359-.882-2.151-2.106-2.151-1.251 0-2.106.954-2.106 2.304 0 1.431.891 2.367 2.187 2.367zm-1.674-2.718c.072-.927.765-1.548 1.602-1.548.891 0 1.53.549 1.602 1.548h-3.204zm4.878 1.602c0 .729.297 1.062 1.071 1.062h.666v-.423h-.63c-.477 0-.648-.18-.648-.648V2.36h1.233v-.423h-1.233V.659h-.459v1.278h-.864v.423h.864v3.078zm2.229-.342c.036.945.801 1.458 1.944 1.458.981 0 1.773-.495 1.773-1.305 0-.963-.846-1.152-1.827-1.287-.711-.099-1.341-.18-1.341-.819 0-.522.513-.864 1.287-.864.729 0 1.251.351 1.332.945h.468c-.081-.891-.81-1.341-1.8-1.341-1.017-.009-1.746.513-1.746 1.296 0 .918.846 1.089 1.782 1.215.765.108 1.386.207 1.386.882 0 .54-.567.882-1.314.882-.873 0-1.44-.405-1.476-1.062h-.468zm11.941.99c-.252 0-.432-.054-.621-.288l-.45-.522 1.431-2.178h-.486l-1.224 1.845-1.404-1.647-.054-.063c1.206-.504 1.638-1.08 1.638-1.782 0-.747-.585-1.305-1.377-1.305-.936 0-1.629.621-1.629 1.449 0 .576.198.936.684 1.53-1.098.468-1.539 1.116-1.539 1.827 0 1.035.819 1.602 1.845 1.602.702 0 1.314-.315 1.827-.918l.441.522c.216.261.513.342.855.342h.63v-.414h-.567zM119.326.542c.558 0 .945.387.945.918 0 .612-.423 1.053-1.413 1.485-.459-.549-.648-.864-.648-1.359 0-.603.459-1.044 1.116-1.044zm-.594 5.598c-.792 0-1.386-.45-1.386-1.224 0-.657.369-1.062 1.305-1.512l.135.153 1.494 1.764c-.423.531-.954.819-1.548.819zm10.813-3.141c-.279-.675-.891-1.116-1.737-1.116-1.251 0-2.151.945-2.151 2.331 0 1.44.9 2.34 2.151 2.34.855 0 1.458-.45 1.746-1.161v.81c0 1.215-.576 1.737-1.674 1.737-.855 0-1.449-.387-1.593-1.08h-.477c.144.972.927 1.494 2.034 1.494 1.476 0 2.169-.702 2.169-2.133V1.937h-.396l-.072 1.062zm-1.701 3.141c-1.017 0-1.719-.792-1.719-1.926s.702-1.926 1.719-1.926c1.017 0 1.719.792 1.719 1.935 0 1.125-.702 1.917-1.719 1.917zm5.265.414c.999 0 1.764-.648 1.962-1.566h-.468c-.18.711-.783 1.152-1.53 1.152-1.017 0-1.656-.774-1.674-1.836v-.081h3.726c0-.063.009-.135.009-.189-.045-1.359-.882-2.151-2.106-2.151-1.251 0-2.106.954-2.106 2.304 0 1.431.891 2.367 2.187 2.367zm-1.674-2.718c.072-.927.765-1.548 1.602-1.548.891 0 1.53.549 1.602 1.548h-3.204zm4.878 1.602c0 .729.297 1.062 1.071 1.062h.666v-.423h-.63c-.477 0-.648-.18-.648-.648V2.36h1.233v-.423h-1.233V.659h-.459v1.278h-.864v.423h.864v3.078zm9.955-3.555c-.837 0-1.377.468-1.638 1.143-.216-.756-.783-1.143-1.503-1.143-.783 0-1.251.459-1.485 1.026l-.072-.972h-.396V6.5h.459V4.178c0-1.116.54-1.872 1.413-1.872.792 0 1.287.558 1.287 1.611V6.5h.459V4.016c.027-1.044.567-1.71 1.422-1.71.792 0 1.269.531 1.269 1.566V6.5h.468V3.854c0-1.377-.729-1.971-1.683-1.971zm4.647 4.671c1.287 0 2.196-.954 2.196-2.34 0-1.377-.909-2.331-2.196-2.331-1.287 0-2.187.954-2.187 2.331 0 1.386.9 2.34 2.187 2.34zm0-.414c-1.017 0-1.719-.792-1.719-1.926 0-1.125.702-1.926 1.719-1.926 1.017 0 1.719.801 1.719 1.926 0 1.134-.702 1.926-1.719 1.926zm5.214-4.257c-.837 0-1.377.432-1.638 1.026l-.072-.972h-.396V6.5h.459V4.25c0-1.188.603-1.944 1.575-1.944.882 0 1.413.576 1.413 1.656V6.5h.459V3.944c0-1.44-.765-2.061-1.8-2.061zm3.158 3.555c0 .729.297 1.062 1.071 1.062h.666v-.423h-.63c-.477 0-.648-.18-.648-.648V2.36h1.233v-.423h-1.233V.659h-.459v1.278h-.864v.423h.864v3.078zm4.542-3.555c-.855 0-1.386.477-1.647 1.134V.2h-.459v6.3h.459V4.25c0-1.188.603-1.944 1.575-1.944.873 0 1.413.576 1.413 1.656V6.5h.459V3.944c0-1.44-.765-2.061-1.8-2.061zm2.824 4.617h.459V.2h-.459v6.3zm2.906 0l-.297.738c-.207.504-.288.639-.756.639h-.576V8.3h.702c.612 0 .756-.234 1.044-.954l2.187-5.409h-.495l-1.557 3.969-1.584-3.969h-.495l1.827 4.563zm7.336.054c1.035 0 1.764-.594 1.944-1.521h-.486c-.153.675-.702 1.107-1.458 1.107-.999 0-1.692-.783-1.692-1.917s.684-1.935 1.692-1.935c.765 0 1.305.432 1.467 1.116h.477c-.189-.945-.9-1.521-1.935-1.521-1.287 0-2.169.954-2.169 2.34 0 1.404.873 2.331 2.16 2.331zm6.85-.477c-.27 0-.405-.09-.405-.441V3.512c0-1.044-.639-1.629-1.782-1.629-1.044 0-1.737.504-1.854 1.332h.459c.117-.558.603-.927 1.377-.927.855 0 1.341.45 1.341 1.206v.396h-1.548c-1.17 0-1.8.504-1.8 1.359 0 .81.639 1.305 1.611 1.305.927 0 1.476-.423 1.755-.99v.162c-.018.54.207.774.747.774h.27v-.423h-.171zm-.864-1.422c0 .873-.621 1.503-1.701 1.503-.729 0-1.179-.369-1.179-.936 0-.603.45-.936 1.296-.936h1.584v.369zm1.442.441c.036.945.801 1.458 1.944 1.458.981 0 1.773-.495 1.773-1.305 0-.963-.846-1.152-1.827-1.287-.711-.099-1.341-.18-1.341-.819 0-.522.513-.864 1.287-.864.729 0 1.251.351 1.332.945h.468c-.081-.891-.81-1.341-1.8-1.341-1.017-.009-1.746.513-1.746 1.296 0 .918.846 1.089 1.782 1.215.765.108 1.386.207 1.386.882 0 .54-.567.882-1.314.882-.873 0-1.44-.405-1.476-1.062h-.468zm6.699-3.213c-.855 0-1.386.477-1.647 1.134V.2h-.459v6.3h.459V4.25c0-1.188.603-1.944 1.575-1.944.873 0 1.413.576 1.413 1.656V6.5h.459V3.944c0-1.44-.765-2.061-1.8-2.061zm7.113.054c-.846 0-1.206.405-1.395.909l-.072-.909h-.396V6.5h.459V4.187c0-.927.243-1.809 1.314-1.809h.333v-.441h-.243zm2.614 4.617c.999 0 1.764-.648 1.962-1.566h-.468c-.18.711-.783 1.152-1.53 1.152-1.017 0-1.656-.774-1.674-1.836v-.081h3.726c0-.063.009-.135.009-.189-.045-1.359-.882-2.151-2.106-2.151-1.251 0-2.106.954-2.106 2.304 0 1.431.891 2.367 2.187 2.367zm-1.674-2.718c.072-.927.765-1.548 1.602-1.548.891 0 1.53.549 1.602 1.548h-3.204zm6.812-1.953c-.855 0-1.458.468-1.746 1.116V.2h-.459v6.3h.396l.072-1.035c.27.657.882 1.089 1.737 1.089 1.251 0 2.151-.954 2.151-2.34 0-1.431-.9-2.331-2.151-2.331zm-.036 4.257c-1.017 0-1.719-.792-1.719-1.935 0-1.116.702-1.917 1.719-1.917 1.017 0 1.719.801 1.719 1.926 0 1.134-.702 1.926-1.719 1.926zm7.109-.063c-.27 0-.405-.09-.405-.441V3.512c0-1.044-.639-1.629-1.782-1.629-1.044 0-1.737.504-1.854 1.332h.459c.117-.558.603-.927 1.377-.927.855 0 1.341.45 1.341 1.206v.396h-1.548c-1.17 0-1.8.504-1.8 1.359 0 .81.639 1.305 1.611 1.305.927 0 1.476-.423 1.755-.99v.162c-.018.54.207.774.747.774h.27v-.423h-.171zm-.864-1.422c0 .873-.621 1.503-1.701 1.503-.729 0-1.179-.369-1.179-.936 0-.603.45-.936 1.296-.936h1.584v.369zm1.991.783c0 .729.297 1.062 1.071 1.062h.666v-.423h-.63c-.477 0-.648-.18-.648-.648V2.36h1.233v-.423h-1.233V.659h-.459v1.278h-.864v.423h.864v3.078zm4.311 1.116c.999 0 1.764-.648 1.962-1.566h-.468c-.18.711-.783 1.152-1.53 1.152-1.017 0-1.656-.774-1.674-1.836v-.081h3.726c0-.063.009-.135.009-.189-.045-1.359-.882-2.151-2.106-2.151-1.251 0-2.106.954-2.106 2.304 0 1.431.891 2.367 2.187 2.367zm-1.674-2.718c.072-.927.765-1.548 1.602-1.548.891 0 1.53.549 1.602 1.548h-3.204zm4.39 1.26c.036.945.801 1.458 1.944 1.458.981 0 1.773-.495 1.773-1.305 0-.963-.846-1.152-1.827-1.287-.711-.099-1.341-.18-1.341-.819 0-.522.513-.864 1.287-.864.729 0 1.251.351 1.332.945h.468c-.081-.891-.81-1.341-1.8-1.341-1.017-.009-1.746.513-1.746 1.296 0 .918.846 1.089 1.782 1.215.765.108 1.386.207 1.386.882 0 .54-.567.882-1.314.882-.873 0-1.44-.405-1.476-1.062h-.468z" fill="#000"/></svg>