<svg width="223" height="65" viewBox="0 0 223 65" fill="none" xmlns="http://www.w3.org/2000/svg"><path d="M.66 4.266h7.128V24h3.795V4.266h7.128V.9H.66v3.366zm27.425 2.838c-2.772 0-4.125 1.122-4.983 2.541l-.396-2.541h-3.168V24h3.564v-8.481c0-2.607 1.023-5.082 4.191-5.082h1.584V7.104h-.792zm17.919 13.794c-.726 0-1.09-.231-1.09-1.089v-6.765c0-3.993-2.574-6.138-7.062-6.138-4.256 0-7.094 2.046-7.457 5.346h3.497c.264-1.485 1.683-2.475 3.795-2.475 2.344 0 3.697 1.155 3.697 3.036v1.023h-4.258c-4.718 0-7.226 1.947-7.226 5.412 0 3.135 2.574 4.95 6.27 4.95 2.738 0 4.454-1.188 5.576-2.904 0 1.683.792 2.706 3.102 2.706h1.882v-3.102h-.726zm-4.62-3.828c-.034 2.607-1.75 4.356-4.72 4.356-1.947 0-3.135-.99-3.135-2.409 0-1.716 1.221-2.541 3.432-2.541h4.422v.594zm19.995-7.623c-1.089-1.485-2.904-2.541-5.478-2.541-4.587 0-7.986 3.432-7.986 8.646 0 5.412 3.399 8.646 7.986 8.646 2.673 0 4.422-1.254 5.511-2.739L61.841 24h3.102V.9h-3.564v8.547zm-4.884 11.748c-2.97 0-4.917-2.31-4.917-5.643 0-3.3 1.947-5.61 4.917-5.61 2.97 0 4.917 2.31 4.917 5.676 0 3.267-1.947 5.577-4.917 5.577zm19.95 3.003c4.19 0 7.029-2.541 7.623-5.874h-3.564c-.495 1.881-2.08 2.97-4.257 2.97-2.805 0-4.62-1.881-4.72-4.752v-.231h12.739c.066-.462.099-.924.099-1.353-.1-4.95-3.366-8.052-8.25-8.052-4.983 0-8.316 3.465-8.316 8.679 0 5.181 3.333 8.613 8.646 8.613zM71.66 13.704c.264-2.409 2.21-3.927 4.488-3.927 2.475 0 4.224 1.419 4.52 3.927H71.66zM1.98 54.1c0 6.567 3.102 10.098 9.075 10.098 6.006 0 9.141-3.531 9.141-10.098V40.9h-3.795v13.398c0 4.29-1.65 6.534-5.346 6.534-3.63 0-5.28-2.244-5.28-6.534V40.9H1.98v13.2zm21.38 2.31c.132 4.62 3.597 7.788 9.339 7.788 5.082 0 8.547-2.871 8.547-7.029.033-4.554-3.696-5.775-7.524-6.468-3.63-.627-6.006-1.122-6.006-3.498 0-2.178 1.815-3.3 4.422-3.3 2.805 0 4.653 1.584 4.95 3.927h3.795c-.165-4.257-3.465-7.128-8.745-7.128-4.917 0-8.217 2.739-8.217 6.765 0 4.587 3.63 5.808 7.458 6.468 3.663.66 6.072 1.188 6.072 3.63 0 2.211-1.98 3.432-4.72 3.432-3.233 0-5.345-1.815-5.543-4.521l-3.828-.066zm28.581 2.013c.099 3.663 3.201 5.775 7.722 5.775 4.092 0 7.161-2.046 7.161-5.28 0-3.762-3.135-4.554-6.996-5.016-2.442-.264-4.059-.462-4.059-2.046 0-1.353 1.386-2.211 3.498-2.211s3.564 1.089 3.762 2.64h3.498c-.231-3.465-3.168-5.379-7.326-5.379-4.059-.033-6.93 2.046-6.93 5.247 0 3.498 3.036 4.323 6.897 4.785 2.607.33 4.158.462 4.158 2.277 0 1.353-1.452 2.211-3.663 2.211-2.574 0-4.092-1.254-4.224-3.003h-3.498zm26.522-11.517c-2.64 0-4.257 1.188-5.313 2.64V40.9h-3.564V64h3.564v-8.547c0-3.399 1.716-5.478 4.52-5.478 2.64 0 4.06 1.716 4.06 4.917V64h3.564v-9.405c0-5.643-3.07-7.689-6.831-7.689zm25.516 13.992c-.726 0-1.089-.231-1.089-1.089v-6.765c0-3.993-2.574-6.138-7.062-6.138-4.257 0-7.095 2.046-7.458 5.346h3.498c.264-1.485 1.683-2.475 3.795-2.475 2.343 0 3.696 1.155 3.696 3.036v1.023h-4.257c-4.719 0-7.227 1.947-7.227 5.412 0 3.135 2.574 4.95 6.27 4.95 2.74 0 4.455-1.188 5.577-2.904 0 1.683.792 2.706 3.102 2.706h1.881v-3.102h-.726zm-4.62-3.828c-.033 2.607-1.749 4.356-4.719 4.356-1.947 0-3.135-.99-3.135-2.409 0-1.716 1.221-2.541 3.432-2.541h4.422v.594zm15.834-9.966c-2.772 0-4.125 1.122-4.983 2.541l-.396-2.541h-3.168V64h3.564v-8.481c0-2.607 1.023-5.082 4.191-5.082h1.584v-3.333h-.792zm10.204 17.094c4.191 0 7.029-2.541 7.623-5.874h-3.564c-.495 1.881-2.079 2.97-4.257 2.97-2.805 0-4.62-1.881-4.719-4.752v-.231h12.738c.066-.462.099-.924.099-1.353-.099-4.95-3.366-8.052-8.25-8.052-4.983 0-8.316 3.465-8.316 8.679 0 5.181 3.333 8.613 8.646 8.613zm-4.785-10.494c.264-2.409 2.211-3.927 4.488-3.927 2.475 0 4.224 1.419 4.521 3.927h-9.009zm34.425 10.494c5.379 0 9.306-3.168 10.032-8.052h-3.927c-.726 2.937-2.937 4.719-6.138 4.719-4.356 0-6.996-3.498-6.996-8.415 0-4.95 2.706-8.415 7.095-8.415 3.135 0 5.313 1.815 6.072 4.719h3.927c-.759-4.884-4.554-8.052-9.834-8.052-6.831 0-11.154 4.719-11.154 11.748 0 7.095 4.191 11.748 10.923 11.748zM168.208 64h3.795v-9.768h9.042v-3.267h-9.042v-6.699h10.956V40.9h-14.751V64zm25.514 0c7.227 0 11.781-4.719 11.781-11.583S200.949 40.9 193.722 40.9h-7.854V64h7.854zm-4.059-19.8h4.059c5.082 0 7.887 3.267 7.887 8.217 0 4.95-2.805 8.283-7.887 8.283h-4.059V44.2zm18.093 14.223c.099 3.663 3.201 5.775 7.722 5.775 4.092 0 7.161-2.046 7.161-5.28 0-3.762-3.135-4.554-6.996-5.016-2.442-.264-4.059-.462-4.059-2.046 0-1.353 1.386-2.211 3.498-2.211s3.564 1.089 3.762 2.64h3.498c-.231-3.465-3.168-5.379-7.326-5.379-4.059-.033-6.93 2.046-6.93 5.247 0 3.498 3.036 4.323 6.897 4.785 2.607.33 4.158.462 4.158 2.277 0 1.353-1.452 2.211-3.663 2.211-2.574 0-4.092-1.254-4.224-3.003h-3.498z" fill="#000"/></svg>