<svg width="372" height="64" viewBox="0 0 372 64" fill="none" xmlns="http://www.w3.org/2000/svg"><path d="M.76 37h4.218v-.475H1.273v-2.688h3.002v-.475H1.273v-2.537h3.582v-.475H.76V37zm4.56 0h.56l1.596-2.118L9.072 37h.589l-1.872-2.46 1.777-2.356h-.551l-1.52 1.995-1.501-1.995h-.58l1.777 2.356L5.319 37zm6.898.057c1.093 0 1.862-.627 2.052-1.605h-.513c-.161.712-.74 1.168-1.539 1.168-1.054 0-1.786-.826-1.786-2.023s.722-2.043 1.786-2.043c.808 0 1.378.456 1.549 1.178h.503c-.2-.997-.95-1.605-2.042-1.605-1.359 0-2.29 1.007-2.29 2.47 0 1.482.922 2.46 2.28 2.46zM15.212 37h.484v-6.65h-.484V37zm5.12-2.45c0 1.263-.628 2.06-1.625 2.06-.893 0-1.444-.607-1.444-1.757v-2.67h-.485v2.699c0 1.51.789 2.175 1.853 2.175.855 0 1.415-.456 1.69-1.073L20.389 37h.428v-4.816h-.485v2.365zm1.406.968c.038.998.846 1.54 2.052 1.54 1.036 0 1.872-.523 1.872-1.378 0-1.017-.893-1.216-1.929-1.359-.75-.104-1.416-.19-1.416-.864 0-.551.542-.912 1.359-.912.77 0 1.32.37 1.406.997h.494c-.085-.94-.855-1.415-1.9-1.415-1.073-.01-1.843.541-1.843 1.368 0 .969.893 1.15 1.881 1.282.808.114 1.463.219 1.463.931 0 .57-.599.931-1.387.931-.921 0-1.52-.427-1.558-1.12h-.494zm5.095-4.35c.19 0 .342-.143.342-.343 0-.2-.152-.342-.342-.342a.335.335 0 00-.342.342c0 .2.152.342.342.342zM26.586 37h.484v-4.816h-.484V37zm3.02 0h.58l1.88-4.816h-.503L29.91 36.44l-1.663-4.256h-.522L29.605 37zm5.045.057c1.055 0 1.862-.684 2.071-1.653h-.494c-.19.75-.826 1.216-1.615 1.216-1.073 0-1.748-.817-1.767-1.938v-.085h3.933c0-.067.01-.143.01-.2-.048-1.434-.931-2.27-2.223-2.27-1.32 0-2.223 1.007-2.223 2.432 0 1.51.94 2.498 2.308 2.498zm-1.767-2.869c.076-.978.808-1.634 1.691-1.634.94 0 1.615.58 1.691 1.634h-3.382zm7.784 1.691c0 .77.314 1.121 1.13 1.121h.704v-.446h-.665c-.504 0-.684-.19-.684-.684v-3.24h1.301v-.446h-1.301v-1.35h-.485v1.35h-.912v.446h.912v3.25zm4.55 1.178c1.359 0 2.318-1.007 2.318-2.47 0-1.453-.96-2.46-2.318-2.46s-2.308 1.007-2.308 2.46c0 1.463.95 2.47 2.308 2.47zm0-.437c-1.073 0-1.814-.836-1.814-2.033 0-1.187.74-2.033 1.814-2.033s1.815.846 1.815 2.033c0 1.197-.741 2.033-1.815 2.033zm8.767.437c1.425 0 2.432-.77 2.718-2.109h-.542c-.285 1.064-1.055 1.634-2.185 1.634-1.539 0-2.508-1.206-2.508-2.907 0-1.7.988-2.907 2.527-2.907 1.111 0 1.89.58 2.185 1.625h.541c-.294-1.33-1.301-2.1-2.697-2.1-1.872 0-3.088 1.387-3.088 3.382 0 2.014 1.188 3.382 3.05 3.382zm3.955-5.89c.19 0 .342-.142.342-.342 0-.2-.152-.342-.342-.342a.335.335 0 00-.342.342c0 .2.152.342.342.342zM57.693 37h.484v-4.816h-.484V37zm1.984-1.12c0 .769.314 1.12 1.13 1.12h.704v-.446h-.665c-.504 0-.684-.19-.684-.684v-3.24h1.301v-.446h-1.301v-1.35h-.485v1.35h-.912v.446h.912v3.25zM63.692 37l-.313.78c-.219.531-.304.674-.798.674h-.609v.446h.742c.645 0 .797-.247 1.102-1.007l2.308-5.71h-.522l-1.644 4.19-1.672-4.19h-.523L63.693 37zm5.758 0h.513v-6.65h-.513V37zm3.992-4.873c-.883 0-1.453.456-1.729 1.083l-.076-1.026h-.418V37h.485v-2.375c0-1.254.636-2.052 1.662-2.052.931 0 1.492.608 1.492 1.748v2.68h.484v-2.699c0-1.52-.807-2.175-1.9-2.175zm6.831 1.14c-.294-.684-.94-1.14-1.843-1.14-1.32 0-2.27 1.007-2.27 2.46 0 1.52.95 2.47 2.27 2.47.903 0 1.53-.484 1.834-1.159L80.34 37h.418v-6.65h-.485v2.917zm-1.805 3.353c-1.073 0-1.814-.836-1.814-2.033 0-1.187.74-2.033 1.814-2.033s1.815.846 1.815 2.043c0 1.187-.741 2.023-1.815 2.023zm5.557.437c1.055 0 1.862-.684 2.071-1.653h-.494c-.19.75-.826 1.216-1.615 1.216-1.073 0-1.748-.817-1.767-1.938v-.085h3.933c0-.067.01-.143.01-.2-.048-1.434-.931-2.27-2.223-2.27-1.32 0-2.223 1.007-2.223 2.432 0 1.51.94 2.498 2.308 2.498zm-1.767-2.869c.076-.978.808-1.634 1.691-1.634.94 0 1.615.58 1.691 1.634h-3.382zM86.441 37H87l1.596-2.118L90.193 37h.589l-1.871-2.46 1.776-2.356h-.551l-1.52 1.995-1.501-1.995h-.58l1.777 2.356L86.441 37zm5.147-.665c-.257 0-.418.162-.418.37 0 .229.152.343.332.343.095 0 .19-.038.238-.114a.343.343 0 01.085.247c0 .36-.228.731-.712.75v.285c.655-.028 1.064-.465 1.064-1.092 0-.437-.247-.789-.59-.789zm7.6-1.786c0 1.264-.626 2.062-1.624 2.062-.893 0-1.444-.608-1.444-1.758v-2.67h-.484v2.699c0 1.51.788 2.175 1.852 2.175.855 0 1.416-.456 1.691-1.073L99.246 37h.427v-4.816h-.484v2.365zm1.407.97c.038.997.846 1.538 2.052 1.538 1.036 0 1.872-.522 1.872-1.377 0-1.017-.893-1.216-1.929-1.359-.75-.104-1.415-.19-1.415-.864 0-.551.541-.912 1.358-.912.77 0 1.321.37 1.406.997h.494c-.085-.94-.855-1.415-1.9-1.415-1.073-.01-1.843.541-1.843 1.368 0 .969.893 1.15 1.881 1.282.808.114 1.463.219 1.463.931 0 .57-.598.931-1.387.931-.921 0-1.52-.427-1.558-1.12h-.494zm6.976 1.538c1.055 0 1.862-.684 2.071-1.653h-.494c-.19.75-.826 1.216-1.615 1.216-1.073 0-1.748-.817-1.767-1.938v-.085h3.933c0-.067.01-.143.01-.2-.048-1.434-.931-2.27-2.223-2.27-1.321 0-2.223 1.007-2.223 2.432 0 1.51.94 2.498 2.308 2.498zm-1.767-2.869c.076-.978.808-1.634 1.691-1.634.941 0 1.615.58 1.691 1.634h-3.382zM113.265 37h1.092v-2.413h1.53c1.387 0 2.299-.836 2.299-2.118 0-1.292-.912-2.119-2.299-2.119h-2.622V37zm2.536-5.7c.779 0 1.273.447 1.273 1.169 0 .712-.503 1.168-1.282 1.168h-1.435V31.3h1.444zm5.197 5.757c1.207 0 2.024-.731 2.195-1.69h-1.026c-.143.54-.599.854-1.226.854-.807 0-1.33-.541-1.358-1.368v-.066h3.667c.019-.133.028-.266.028-.39-.028-1.425-.969-2.318-2.375-2.318-1.434 0-2.394.998-2.394 2.499 0 1.491.96 2.48 2.489 2.48zm-1.377-3.02c.076-.694.636-1.131 1.292-1.131.712 0 1.216.408 1.301 1.13h-2.593zm6.947-1.9c-.798 0-1.187.322-1.434.73l-.114-.73h-.912V37h1.026V34.56c0-.75.294-1.463 1.206-1.463h.456v-.96h-.228zm.571.902h.846V37h1.035V33.04h1.302v-.903h-1.321v-.408c0-.333.143-.475.475-.475h.846v-.903h-.979c-.94 0-1.358.456-1.358 1.33v.456h-.846v.903zm5.808 4.018c1.482 0 2.48-.997 2.48-2.489 0-1.482-.998-2.489-2.48-2.489s-2.479 1.007-2.479 2.49c0 1.49.997 2.488 2.479 2.488zm0-.874c-.864 0-1.425-.674-1.425-1.615 0-.94.561-1.615 1.425-1.615.865 0 1.435.675 1.435 1.615s-.57 1.615-1.435 1.615zm5.765-4.047c-.798 0-1.187.323-1.434.732l-.114-.732h-.912V37h1.026V34.56c0-.75.294-1.463 1.206-1.463h.456v-.96h-.228zm6.457-.057c-.798 0-1.349.352-1.663.884-.294-.627-.864-.884-1.501-.884-.731.01-1.149.333-1.425.694l-.114-.637h-.893V37h1.026v-2.603c0-.864.437-1.434 1.14-1.434.675 0 1.026.446 1.026 1.301V37h1.036V34.37c0-.874.446-1.406 1.149-1.406.665 0 1.017.446 1.017 1.301V37h1.026v-2.802c0-1.54-.817-2.119-1.824-2.119zm7.2 4.028c-.209 0-.314-.066-.314-.313v-1.948c0-1.15-.741-1.767-2.033-1.767-1.225 0-2.042.59-2.147 1.54h1.007c.076-.428.485-.713 1.093-.713.674 0 1.064.332 1.064.874v.294h-1.226c-1.358 0-2.08.56-2.08 1.558 0 .903.741 1.425 1.805 1.425.788 0 1.282-.342 1.605-.836 0 .485.228.78.893.78h.542v-.894h-.209zm-1.33-1.102c-.01.75-.504 1.254-1.359 1.254-.56 0-.902-.285-.902-.693 0-.494.351-.732.988-.732h1.273v.171zm4.663-2.926c-.789 0-1.254.314-1.558.694l-.114-.637h-.893V37h1.026v-2.45c0-.989.484-1.587 1.301-1.587.77 0 1.159.494 1.159 1.415V37h1.036v-2.707c0-1.625-.884-2.214-1.957-2.214zm5.085 4.978c1.245 0 2.071-.693 2.261-1.795h-1.083c-.123.56-.541.921-1.168.921-.827 0-1.368-.655-1.368-1.605 0-.96.541-1.625 1.368-1.625.636 0 1.045.352 1.178.922h1.073c-.199-1.102-.978-1.796-2.232-1.796-1.473 0-2.442.998-2.442 2.499 0 1.52.941 2.48 2.413 2.48zm5.355 0c1.206 0 2.023-.731 2.194-1.69h-1.026c-.142.54-.598.854-1.225.854-.808 0-1.33-.541-1.359-1.368v-.066h3.667a2.79 2.79 0 00.029-.39c-.029-1.425-.969-2.318-2.375-2.318-1.435 0-2.394.998-2.394 2.499 0 1.491.959 2.48 2.489 2.48zm-1.378-3.02c.076-.694.637-1.131 1.292-1.131.713 0 1.216.408 1.302 1.13h-2.594zM172.385 37l.617-1.643h2.727l.627 1.643h1.168l-2.479-6.65h-1.302L171.254 37h1.131zm1.976-5.472l1.064 2.898h-2.119l1.055-2.898zm6.306.551c-.789 0-1.254.314-1.558.694l-.114-.637h-.893V37h1.026v-2.45c0-.989.484-1.587 1.301-1.587.77 0 1.159.494 1.159 1.415V37h1.036v-2.707c0-1.625-.884-2.214-1.957-2.214zm7.336 4.028c-.209 0-.314-.066-.314-.313v-1.948c0-1.15-.741-1.767-2.033-1.767-1.225 0-2.042.59-2.147 1.54h1.007c.076-.428.485-.713 1.093-.713.674 0 1.064.332 1.064.874v.294h-1.226c-1.358 0-2.08.56-2.08 1.558 0 .903.741 1.425 1.805 1.425.788 0 1.282-.342 1.605-.836 0 .485.228.78.893.78h.542v-.894h-.209zm-1.33-1.102c-.01.75-.504 1.254-1.359 1.254-.56 0-.902-.285-.902-.693 0-.494.351-.732.988-.732h1.273v.171zM188.771 37h1.026v-6.65h-1.026V37zm3.438.029l-.19.475c-.152.399-.247.494-.646.494h-.722v.902h1.102c.712 0 .921-.351 1.225-1.14l2.204-5.624h-1.092l-1.321 3.696-1.358-3.696h-1.093l1.891 4.893zm3.946-1.35c0 .884.399 1.321 1.33 1.321h.95v-.902h-.722c-.39 0-.523-.143-.523-.523V33.04h1.188v-.903h-1.188v-1.358h-1.035v1.358h-.846v.903h.846v2.64zm3.455-4.227a.607.607 0 00.627-.617.607.607 0 00-.627-.618.607.607 0 00-.627.618c0 .36.275.617.627.617zM199.087 37h1.026v-4.864h-1.026V37zm4.264.057c1.245 0 2.071-.693 2.261-1.795h-1.083c-.123.56-.541.921-1.168.921-.827 0-1.368-.655-1.368-1.605 0-.96.541-1.625 1.368-1.625.636 0 1.045.352 1.178.922h1.073c-.199-1.102-.978-1.796-2.232-1.796-1.473 0-2.442.998-2.442 2.499 0 1.52.941 2.48 2.413 2.48zm2.838-1.662c.028 1.054.921 1.662 2.223 1.662 1.178 0 2.061-.589 2.061-1.52 0-1.083-.902-1.31-2.014-1.444-.703-.076-1.168-.133-1.168-.589 0-.39.399-.636 1.007-.636.608 0 1.026.313 1.083.76h1.007c-.067-.998-.912-1.549-2.109-1.549-1.169-.01-1.995.59-1.995 1.51 0 1.008.874 1.245 1.985 1.378.751.095 1.197.133 1.197.656 0 .39-.418.636-1.054.636-.741 0-1.178-.36-1.216-.864h-1.007zm8.067.484c0 .77.314 1.121 1.131 1.121h.703v-.446h-.665c-.504 0-.684-.19-.684-.684v-3.24h1.301v-.446h-1.301v-1.35h-.485v1.35h-.912v.446h.912v3.25zm4.551 1.178c1.358 0 2.318-1.007 2.318-2.47 0-1.453-.96-2.46-2.318-2.46-1.359 0-2.309 1.007-2.309 2.46 0 1.463.95 2.47 2.309 2.47zm0-.437c-1.074 0-1.815-.836-1.815-2.033 0-1.187.741-2.033 1.815-2.033 1.073 0 1.814.846 1.814 2.033 0 1.197-.741 2.033-1.814 2.033zm11.218-4.493c-.884 0-1.454.494-1.729 1.206-.228-.798-.827-1.206-1.587-1.206-.826 0-1.32.484-1.567 1.083l-.076-1.026h-.418V37h.484v-2.45c0-1.179.57-1.977 1.492-1.977.836 0 1.358.59 1.358 1.7V37h.485v-2.622c.028-1.102.598-1.805 1.501-1.805.836 0 1.339.56 1.339 1.653V37h.494v-2.793c0-1.453-.769-2.08-1.776-2.08zm7.089 4.427c-.285 0-.428-.095-.428-.466v-2.242c0-1.102-.674-1.72-1.881-1.72-1.102 0-1.833.533-1.957 1.407h.485c.123-.59.636-.979 1.453-.979.903 0 1.416.475 1.416 1.273v.418h-1.634c-1.235 0-1.9.532-1.9 1.435 0 .855.674 1.377 1.7 1.377.979 0 1.558-.446 1.853-1.045v.171c-.019.57.218.817.788.817h.285v-.446h-.18zm-.912-1.501c0 .921-.656 1.586-1.796 1.586-.769 0-1.244-.39-1.244-.988 0-.636.475-.988 1.368-.988h1.672v.39zm1.74 1.947h.485V35.7l1.13-1.16L241.4 37h.589l-2.099-2.812 1.938-2.004h-.599l-2.802 2.888V30.35h-.485V37zm6.563.057c1.054 0 1.862-.684 2.071-1.653h-.494c-.19.75-.827 1.216-1.615 1.216-1.074 0-1.748-.817-1.767-1.938v-.085h3.933c0-.067.009-.143.009-.2-.047-1.434-.931-2.27-2.223-2.27-1.32 0-2.223 1.007-2.223 2.432 0 1.51.941 2.498 2.309 2.498zm-1.767-2.869c.076-.978.807-1.634 1.691-1.634.94 0 1.615.58 1.691 1.634h-3.382zm7.784 1.691c0 .77.313 1.121 1.13 1.121h.703v-.446h-.665c-.503 0-.684-.19-.684-.684v-3.24h1.302v-.446h-1.302v-1.35h-.484v1.35h-.912v.446h.912v3.25zm2.817-4.712c.19 0 .342-.142.342-.342 0-.2-.152-.342-.342-.342a.335.335 0 00-.342.342c0 .2.152.342.342.342zM253.092 37h.485v-4.816h-.485V37zm7.001-4.873c-.884 0-1.454.494-1.729 1.206-.228-.798-.827-1.206-1.587-1.206-.826 0-1.32.484-1.567 1.083l-.076-1.026h-.418V37h.484v-2.45c0-1.179.57-1.977 1.492-1.977.836 0 1.358.59 1.358 1.7V37h.485v-2.622c.028-1.102.598-1.805 1.501-1.805.836 0 1.339.56 1.339 1.653V37h.494v-2.793c0-1.453-.769-2.08-1.776-2.08zm4.906 4.93c1.054 0 1.862-.684 2.071-1.653h-.494c-.19.75-.827 1.216-1.615 1.216-1.074 0-1.748-.817-1.767-1.938v-.085h3.933c0-.067.009-.143.009-.2-.047-1.434-.931-2.27-2.223-2.27-1.32 0-2.223 1.007-2.223 2.432 0 1.51.941 2.498 2.309 2.498zm-1.767-2.869c.076-.978.807-1.634 1.691-1.634.94 0 1.615.58 1.691 1.634h-3.382zM268.094 37h.484v-6.65h-.484V37zm3.067 0l-.313.78c-.219.531-.304.674-.798.674h-.608v.446h.741c.646 0 .798-.247 1.102-1.007l2.308-5.71h-.522l-1.644 4.19-1.672-4.19h-.522L271.161 37zm2.903-.665c-.257 0-.418.162-.418.37 0 .229.152.343.332.343.095 0 .19-.038.238-.114a.344.344 0 01.085.247c0 .36-.228.731-.712.75v.285c.655-.028 1.064-.465 1.064-1.092 0-.437-.247-.789-.589-.789zm6.233.722c1.054 0 1.862-.684 2.071-1.653h-.494c-.19.75-.827 1.216-1.615 1.216-1.074 0-1.748-.817-1.767-1.938v-.085h3.933c0-.067.009-.143.009-.2-.047-1.434-.931-2.27-2.223-2.27-1.32 0-2.223 1.007-2.223 2.432 0 1.51.941 2.498 2.309 2.498zm-1.767-2.869c.076-.978.807-1.634 1.691-1.634.94 0 1.615.58 1.691 1.634h-3.382zm9.633-3.391v-.447h-.817c-.798 0-1.121.352-1.121 1.121v.713h-2.062v-.722c0-.475.181-.665.665-.665h.694v-.447h-.713c-.807 0-1.13.352-1.13 1.121v.713h-.912v.446h.912V37h.484v-4.37h2.062V37h.484v-4.37h1.444v-.446h-1.444v-.722c0-.475.181-.665.665-.665h.789zm2.469 6.26c1.054 0 1.862-.684 2.071-1.653h-.494c-.19.75-.827 1.216-1.615 1.216-1.074 0-1.748-.817-1.767-1.938v-.085h3.933c0-.067.009-.143.009-.2-.047-1.434-.931-2.27-2.223-2.27-1.32 0-2.223 1.007-2.223 2.432 0 1.51.941 2.498 2.309 2.498zm-1.767-2.869c.076-.978.807-1.634 1.691-1.634.94 0 1.615.58 1.691 1.634h-3.382zm6.961 2.87c1.093 0 1.862-.628 2.052-1.606h-.513c-.161.712-.741 1.168-1.539 1.168-1.054 0-1.786-.826-1.786-2.023s.722-2.043 1.786-2.043c.808 0 1.378.456 1.549 1.178h.503c-.199-.997-.95-1.605-2.042-1.605-1.359 0-2.29 1.007-2.29 2.47 0 1.482.922 2.46 2.28 2.46zm3.355-1.179c0 .77.314 1.121 1.131 1.121h.703v-.446h-.665c-.504 0-.684-.19-.684-.684v-3.24h1.301v-.446h-1.301v-1.35h-.485v1.35h-.912v.446h.912v3.25zm2.818-4.712c.19 0 .342-.142.342-.342 0-.2-.152-.342-.342-.342a.335.335 0 00-.342.342c0 .2.152.342.342.342zM301.752 37h.484v-4.816h-.484V37zm3.02 0h.579l1.881-4.816h-.503l-1.653 4.256-1.663-4.256h-.522L304.772 37zm5.045.057c1.055 0 1.862-.684 2.071-1.653h-.494c-.19.75-.826 1.216-1.615 1.216-1.073 0-1.748-.817-1.767-1.938v-.085h3.933c0-.067.01-.143.01-.2-.048-1.434-.931-2.27-2.223-2.27-1.321 0-2.223 1.007-2.223 2.432 0 1.51.94 2.498 2.308 2.498zm-1.767-2.869c.076-.978.808-1.634 1.691-1.634.941 0 1.615.58 1.691 1.634h-3.382zm7.784 1.691c0 .77.314 1.121 1.131 1.121h.703v-.446h-.665c-.504 0-.684-.19-.684-.684v-3.24h1.301v-.446h-1.301v-1.35h-.485v1.35h-.912v.446h.912v3.25zm4.537-3.695c-.893 0-1.273.427-1.472.96l-.076-.96h-.418V37h.484V34.56c0-.979.257-1.91 1.387-1.91h.352v-.465h-.257zm5.008 4.37c-.285 0-.428-.095-.428-.466v-2.242c0-1.102-.674-1.72-1.881-1.72-1.102 0-1.833.533-1.957 1.407h.485c.123-.59.636-.979 1.453-.979.903 0 1.416.475 1.416 1.273v.418h-1.634c-1.235 0-1.9.532-1.9 1.435 0 .855.674 1.377 1.7 1.377.979 0 1.558-.446 1.853-1.045v.171c-.019.57.218.817.788.817h.285v-.446h-.18zm-.912-1.501c0 .921-.656 1.586-1.796 1.586-.769 0-1.244-.39-1.244-.988 0-.636.475-.988 1.368-.988h1.672v.39zm5.599-1.786c-.295-.684-.941-1.14-1.843-1.14-1.321 0-2.271 1.007-2.271 2.46 0 1.52.95 2.47 2.271 2.47.902 0 1.529-.484 1.833-1.159l.076 1.102h.418v-6.65h-.484v2.917zm-1.805 3.353c-1.074 0-1.815-.836-1.815-2.033 0-1.187.741-2.033 1.815-2.033 1.073 0 1.814.846 1.814 2.043 0 1.187-.741 2.023-1.814 2.023zm5.557.437c1.054 0 1.862-.684 2.071-1.653h-.494c-.19.75-.827 1.216-1.615 1.216-1.074 0-1.748-.817-1.767-1.938v-.085h3.933c0-.067.009-.143.009-.2-.047-1.434-.931-2.27-2.223-2.27-1.32 0-2.223 1.007-2.223 2.432 0 1.51.941 2.498 2.309 2.498zm-1.767-2.869c.076-.978.807-1.634 1.691-1.634.94 0 1.615.58 1.691 1.634h-3.382zm4.634 1.33c.038.998.846 1.54 2.052 1.54 1.036 0 1.872-.523 1.872-1.378 0-1.017-.893-1.216-1.929-1.359-.75-.104-1.415-.19-1.415-.864 0-.551.541-.912 1.358-.912.77 0 1.321.37 1.406.997h.494c-.085-.94-.855-1.415-1.9-1.415-1.073-.01-1.843.541-1.843 1.368 0 .969.893 1.15 1.881 1.282.808.114 1.463.219 1.463.931 0 .57-.598.931-1.387.931-.921 0-1.52-.427-1.558-1.12h-.494zm4.708 1.169c0 .218.152.36.361.36a.344.344 0 00.361-.36c0-.219-.152-.352-.361-.352s-.361.133-.361.352zM1.918 15.56c0 2.79 1.319 4.291 3.857 4.291 2.553 0 3.886-1.5 3.886-4.292V9.95H8.048v5.694c0 1.824-.702 2.778-2.273 2.778-1.542 0-2.244-.954-2.244-2.778V9.95H1.918v5.61zM15.031 12.5c-1.164 0-1.851.463-2.3 1.024l-.168-.94h-1.319v7.182h1.515v-3.619c0-1.458.715-2.342 1.921-2.342 1.137 0 1.712.73 1.712 2.09v3.871h1.529V15.77c0-2.399-1.305-3.269-2.89-3.269zm9.669 1.08c-.463-.63-1.235-1.08-2.328-1.08-1.95 0-3.395 1.46-3.395 3.675 0 2.3 1.445 3.675 3.395 3.675 1.136 0 1.879-.533 2.342-1.164l.182 1.08h1.319V9.95H24.7v3.632zm-2.076 4.994c-1.262 0-2.09-.982-2.09-2.399 0-1.402.828-2.384 2.09-2.384s2.09.982 2.09 2.412c0 1.389-.828 2.37-2.09 2.37zm8.48 1.276c1.78 0 2.987-1.08 3.24-2.496h-1.515c-.21.8-.884 1.262-1.81 1.262-1.192 0-1.963-.8-2.005-2.02V16.5h5.414c.028-.196.042-.393.042-.575-.042-2.104-1.43-3.423-3.507-3.423-2.118 0-3.534 1.473-3.534 3.69 0 2.201 1.416 3.66 3.675 3.66zm-2.034-4.46c.112-1.024.94-1.67 1.907-1.67 1.052 0 1.796.604 1.922 1.67h-3.83zm10.258-2.805c-1.179 0-1.754.476-2.119 1.08l-.168-1.08h-1.346v7.181h1.514v-3.605c0-1.108.435-2.16 1.782-2.16h.673v-1.416h-.337zm.839 4.81c.042 1.558 1.36 2.455 3.282 2.455 1.74 0 3.044-.87 3.044-2.244 0-1.599-1.333-1.936-2.974-2.132-1.038-.112-1.725-.196-1.725-.87 0-.575.589-.94 1.487-.94.897 0 1.514.464 1.599 1.123h1.486c-.098-1.473-1.346-2.287-3.114-2.287-1.725-.014-2.945.87-2.945 2.23 0 1.487 1.29 1.838 2.931 2.034 1.108.14 1.768.197 1.768.968 0 .575-.617.94-1.557.94-1.094 0-1.74-.533-1.796-1.276h-1.486zm8.018.421c0 1.305.59 1.95 1.964 1.95h1.403v-1.332h-1.066c-.575 0-.772-.21-.772-.772v-3.745h1.754v-1.332h-1.754V10.58h-1.529v2.006h-1.248v1.332h1.248v3.9zm10.813.632c-.309 0-.463-.099-.463-.463V15.11c0-1.697-1.094-2.609-3.002-2.609-1.81 0-3.016.87-3.17 2.273h1.487c.112-.631.715-1.052 1.613-1.052.996 0 1.571.49 1.571 1.29v.435h-1.81c-2.005 0-3.071.828-3.071 2.3 0 1.333 1.094 2.104 2.665 2.104 1.164 0 1.893-.505 2.37-1.234 0 .715.337 1.15 1.319 1.15h.8V18.45h-.31zm-1.964-1.627c-.014 1.108-.743 1.851-2.006 1.851-.827 0-1.332-.42-1.332-1.024 0-.73.519-1.08 1.459-1.08h1.879v.253zm6.885-4.32c-1.164 0-1.852.462-2.3 1.023l-.169-.94h-1.319v7.182h1.515v-3.619c0-1.458.716-2.342 1.922-2.342 1.136 0 1.711.73 1.711 2.09v3.871h1.53V15.77c0-2.399-1.305-3.269-2.89-3.269zm9.668 1.08c-.463-.632-1.234-1.08-2.328-1.08-1.95 0-3.394 1.458-3.394 3.674 0 2.3 1.444 3.675 3.394 3.675 1.136 0 1.88-.533 2.342-1.164l.183 1.08h1.318V9.95h-1.515v3.632zm-2.076 4.993c-1.262 0-2.09-.982-2.09-2.399 0-1.402.828-2.384 2.09-2.384 1.263 0 2.09.982 2.09 2.412 0 1.389-.827 2.37-2.09 2.37zm10.316 1.192h1.64l1.572-4.881 1.514 4.881h1.627l2.385-7.181h-1.543l-1.697 5.498-1.571-5.498h-1.389l-1.64 5.498-1.642-5.498h-1.599l2.343 7.181zm13.309-7.266c-1.123 0-1.81.505-2.259 1.123V9.948h-1.514v9.818h1.514v-3.633c0-1.444.73-2.328 1.922-2.328 1.122 0 1.725.73 1.725 2.09v3.871h1.515V15.77c0-2.399-1.304-3.269-2.903-3.269zm7.634 7.35c1.782 0 2.988-1.08 3.241-2.496h-1.515c-.211.8-.884 1.262-1.81 1.262-1.192 0-1.963-.8-2.005-2.02V16.5h5.414c.028-.196.042-.393.042-.575-.042-2.104-1.431-3.423-3.507-3.423-2.118 0-3.534 1.473-3.534 3.69 0 2.201 1.416 3.66 3.674 3.66zm-2.033-4.46c.112-1.024.939-1.67 1.907-1.67 1.052 0 1.796.604 1.922 1.67h-3.829zm10.412-2.89c-1.165 0-1.852.463-2.301 1.024l-.168-.94h-1.318v7.182h1.514v-3.619c0-1.458.716-2.342 1.922-2.342 1.136 0 1.711.73 1.711 2.09v3.871h1.529V15.77c0-2.399-1.304-3.269-2.889-3.269zm8.375 5.316c0 1.305.589 1.95 1.963 1.95h1.403v-1.332h-1.066c-.575 0-.771-.21-.771-.772v-3.745h1.753v-1.332h-1.753V10.58h-1.529v2.006h-1.249v1.332h1.249v3.9zm7.573 2.034c2.189 0 3.661-1.473 3.661-3.675 0-2.188-1.472-3.675-3.661-3.675-2.188 0-3.66 1.487-3.66 3.675 0 2.203 1.472 3.675 3.66 3.675zm0-1.29c-1.276 0-2.104-.996-2.104-2.385 0-1.388.828-2.384 2.104-2.384 1.277 0 2.118.996 2.118 2.384 0 1.389-.841 2.385-2.118 2.385z" fill="#000"/><path d="M150.79 9.12c-1.804 0-3.05.795-3.759 1.998-.666-1.417-1.954-1.997-3.394-1.997-1.654.021-2.599.751-3.222 1.568l-.257-1.44h-2.02v10.998h2.32v-5.885c0-1.955.988-3.244 2.578-3.244 1.525 0 2.32 1.01 2.32 2.943v6.186h2.341v-5.95c0-1.976 1.01-3.179 2.599-3.179 1.504 0 2.299 1.01 2.299 2.943v6.186h2.32v-6.336c0-3.48-1.848-4.79-4.125-4.79zm16.28 9.108c-.472 0-.709-.15-.709-.709v-4.403c0-2.6-1.675-3.995-4.596-3.995-2.771 0-4.619 1.331-4.855 3.48h2.277c.172-.967 1.096-1.612 2.47-1.612 1.525 0 2.406.752 2.406 1.977v.666h-2.771c-3.072 0-4.704 1.267-4.704 3.522 0 2.04 1.675 3.222 4.081 3.222 1.783 0 2.9-.773 3.63-1.89 0 1.095.516 1.761 2.02 1.761h1.224v-2.019h-.473zm-3.007-2.492c-.021 1.697-1.138 2.836-3.072 2.836-1.267 0-2.04-.645-2.04-1.568 0-1.117.795-1.654 2.234-1.654h2.878v.386zm4.744 4.511h2.319v-2.792l1.977-2.062 3.243 4.854h2.75l-4.404-6.551 4.146-4.447h-2.728l-4.984 5.328V5.21h-2.319v15.036zm15.938.13c2.728 0 4.576-1.655 4.962-3.824h-2.32c-.322 1.224-1.353 1.933-2.771 1.933-1.825 0-3.007-1.224-3.071-3.093v-.15h8.291a6.3 6.3 0 00.065-.881c-.065-3.222-2.191-5.241-5.37-5.241-3.244 0-5.413 2.255-5.413 5.649 0 3.372 2.169 5.606 5.627 5.606zm-3.114-6.831c.172-1.569 1.439-2.557 2.921-2.557 1.611 0 2.75.924 2.943 2.556h-5.864zm18.82 6.766l-.429 1.074c-.344.902-.559 1.117-1.461 1.117h-1.633v2.04h2.492c1.611 0 2.084-.794 2.771-2.577l4.983-12.717h-2.47l-2.986 8.356-3.071-8.356h-2.47l4.274 11.063zm12.592.064c3.35 0 5.606-2.255 5.606-5.628 0-3.35-2.256-5.627-5.606-5.627-3.351 0-5.607 2.277-5.607 5.627 0 3.373 2.256 5.628 5.607 5.628zm0-1.976c-1.955 0-3.222-1.525-3.222-3.652 0-2.126 1.267-3.651 3.222-3.651 1.954 0 3.243 1.525 3.243 3.651 0 2.127-1.289 3.652-3.243 3.652zm15.011-3.652c0 2.277-1.074 3.61-2.835 3.61-1.697 0-2.557-1.096-2.557-3.244V9.249h-2.32v6.122c0 3.76 1.998 5.005 4.339 5.005 1.697 0 2.707-.687 3.394-1.525l.258 1.396h2.041V9.25h-2.32v5.5zm10.169-5.499c-1.804 0-2.685.73-3.243 1.654l-.258-1.654h-2.062v10.998h2.32v-5.52c0-1.697.666-3.308 2.728-3.308h1.031v-2.17h-.516zm20.094-.128c-1.804 0-3.05.794-3.759 1.997-.666-1.417-1.954-1.997-3.394-1.997-1.654.021-2.599.751-3.222 1.568l-.257-1.44h-2.019v10.998h2.319v-5.885c0-1.955.988-3.244 2.578-3.244 1.525 0 2.32 1.01 2.32 2.943v6.186h2.341v-5.95c0-1.976 1.01-3.179 2.599-3.179 1.504 0 2.299 1.01 2.299 2.943v6.186h2.32v-6.336c0-3.48-1.848-4.79-4.125-4.79zm11.342 11.255c3.351 0 5.606-2.255 5.606-5.628 0-3.35-2.255-5.627-5.606-5.627s-5.606 2.277-5.606 5.627c0 3.373 2.255 5.628 5.606 5.628zm0-1.976c-1.955 0-3.222-1.525-3.222-3.652 0-2.126 1.267-3.651 3.222-3.651s3.243 1.525 3.243 3.651c0 2.127-1.288 3.652-3.243 3.652zm9.933 1.847h2.835l4.06-10.998h-2.449l-2.986 8.507-3.029-8.507h-2.491l4.06 10.998zm12.785.13c2.728 0 4.576-1.655 4.962-3.824h-2.32c-.322 1.224-1.353 1.933-2.771 1.933-1.825 0-3.007-1.224-3.071-3.093v-.15h8.291a6.3 6.3 0 00.065-.881c-.065-3.222-2.191-5.241-5.37-5.241-3.244 0-5.414 2.255-5.414 5.649 0 3.372 2.17 5.606 5.628 5.606zm-3.114-6.831c.172-1.569 1.439-2.557 2.921-2.557 1.611 0 2.749.924 2.943 2.556h-5.864zm9.259 5.37c0 .859.623 1.46 1.482 1.46s1.504-.601 1.504-1.46c0-.86-.645-1.461-1.504-1.461s-1.482.601-1.482 1.46z" fill="url(#paint0_linear_101_79)"/><defs><linearGradient id="paint0_linear_101_79" x1="309.493" y1="14.311" x2="137" y2="14.311" gradientUnits="userSpaceOnUse"><stop stop-color="#FF4343"/><stop offset=".5" stop-color="#9C0B93"/><stop offset="1" stop-color="#4C1BB7"/></linearGradient></defs></svg>