<svg width="94" height="13" viewBox="0 0 94 13" fill="none" xmlns="http://www.w3.org/2000/svg"><path d="M3.356 3.257a4.55 4.55 0 011.424-.988 4.21 4.21 0 011.727-.359c.673 0 1.216.084 1.626.254.41.17.806.414 1.19.734.187.14.378.202.577.188a.823.823 0 00.505-.21.606.606 0 00.21-.473c0-.09-.008-.166-.023-.233a.543.543 0 00-.094-.194.838.838 0 00-.195-.187c-.581-.46-1.16-.79-1.735-.988C7.993.6 7.306.5 6.507.5c-.852 0-1.64.155-2.365.464A5.929 5.929 0 00.959 4.148 5.966 5.966 0 00.5 6.493c0 .849.153 1.638.459 2.367a5.862 5.862 0 003.19 3.182 6.05 6.05 0 002.358.458c.705 0 1.377-.11 2.015-.33a6.341 6.341 0 001.798-.973.825.825 0 00.186-.262.744.744 0 00.062-.293c0-.22-.062-.391-.186-.517a.716.716 0 00-.459-.21c-.181-.015-.366.041-.552.172-.435.31-.89.552-1.363.726a4.291 4.291 0 01-1.501.262 4.279 4.279 0 01-1.727-.352 4.472 4.472 0 01-1.424-.982 4.536 4.536 0 01-.958-1.46 4.654 4.654 0 01-.343-1.79c0-.629.115-1.22.343-1.775.229-.553.548-1.04.958-1.459zM13.744.65a.818.818 0 00-.576.217.73.73 0 00-.233.561V11.57c0 .22.077.405.233.555a.804.804 0 00.576.225.787.787 0 00.583-.225.75.75 0 00.225-.555V1.428a.745.745 0 00-.225-.56.807.807 0 00-.583-.218zM25.276.65H16.95a.747.747 0 00-.537.203.688.688 0 00-.21.517c0 .21.07.382.21.518.139.134.319.202.537.202h3.361v9.482c0 .22.077.404.234.555a.804.804 0 00.576.224c.228 0 .42-.074.576-.224a.738.738 0 00.233-.555V2.088h3.346a.747.747 0 00.538-.202.688.688 0 00.21-.518.69.69 0 00-.21-.517.75.75 0 00-.54-.2zM37.692.838a.634.634 0 00-.467-.188.84.84 0 00-.42.098.892.892 0 00-.295.276l-3.704 5.624-3.642-5.563a1.245 1.245 0 00-.295-.321.707.707 0 00-.42-.112.834.834 0 00-.521.173.686.686 0 00-.272.45c-.032.184.02.381.156.592l4.154 6.217v3.491c0 .22.077.404.233.555a.785.785 0 00.562.225c.228 0 .42-.075.576-.225a.738.738 0 00.233-.555V8.081l4.186-6.218a.844.844 0 00.156-.56.775.775 0 00-.22-.465zM45.926.65a.819.819 0 00-.576.217.73.73 0 00-.233.561V11.57c0 .22.077.405.233.555a.805.805 0 00.576.225.786.786 0 00.583-.225.75.75 0 00.225-.555V1.428a.745.745 0 00-.225-.56.807.807 0 00-.583-.218zM58.185.65a.818.818 0 00-.577.217.73.73 0 00-.233.561v8.195L50.591.935a.795.795 0 00-.623-.284.787.787 0 00-.568.216.742.742 0 00-.225.561V11.57c0 .22.075.405.225.555.15.149.339.225.568.225a.786.786 0 00.582-.225.756.756 0 00.225-.555V3.391l6.785 8.689a.666.666 0 00.287.202c.12.045.23.068.334.068.239 0 .43-.075.576-.225a.771.771 0 00.219-.555V1.428a.753.753 0 00-.219-.56c-.14-.145-.334-.217-.572-.217z" fill="#fff"/><path fill-rule="evenodd" clip-rule="evenodd" d="M69.311 2.29a5.625 5.625 0 00-1.907-1.213C66.674.793 65.861.65 64.97.65h-2.817a.819.819 0 00-.576.217.73.73 0 00-.233.561V11.57c0 .22.077.405.233.555a.805.805 0 00.576.225h2.817c.892 0 1.703-.143 2.436-.427a5.642 5.642 0 001.906-1.213 5.39 5.39 0 001.245-1.858c.29-.713.435-1.5.435-2.36 0-.858-.145-1.642-.435-2.35A5.409 5.409 0 0069.31 2.29zm-.452 6.517a4.199 4.199 0 01-1.579 1.588c-.668.385-1.44.577-2.311.577h-2.007V2.028h2.007c.872 0 1.641.19 2.311.57a4.15 4.15 0 011.58 1.573c.382.67.575 1.442.575 2.322 0 .868-.191 1.64-.576 2.314z" fill="#fff"/><path d="M81.004 2.088c.238 0 .43-.065.576-.196.144-.13.218-.299.218-.51a.688.688 0 00-.218-.531c-.145-.134-.338-.202-.576-.202h-7.035a.818.818 0 00-.576.216.73.73 0 00-.234.562v10.142c0 .22.078.404.234.554a.804.804 0 00.576.225h7.035c.238 0 .43-.068.576-.202a.694.694 0 00.218-.532c0-.21-.072-.38-.218-.51-.145-.129-.338-.195-.576-.195h-6.225V7.167h4.466c.239 0 .43-.068.576-.202a.677.677 0 00.219-.518.674.674 0 00-.219-.517c-.144-.134-.337-.202-.576-.202h-4.466v-3.64h6.225zM89.78 6.431l3.547-4.553a.877.877 0 00.172-.555.724.724 0 00-.202-.479c-.124-.129-.295-.195-.514-.195a.766.766 0 00-.576.225L88.72 5.34 85.376.875C85.262.725 85.07.65 84.8.65a.672.672 0 00-.521.21.842.842 0 00-.225.495c-.02.19.032.364.156.524l3.418 4.565-3.621 4.648a.845.845 0 00-.187.532c0 .194.063.365.187.509.124.146.305.217.544.217a.779.779 0 00.561-.225l3.573-4.576 3.385 4.516c.082.1.173.173.272.217.099.045.215.068.35.068.229 0 .407-.07.538-.21.13-.14.2-.31.21-.51a.791.791 0 00-.171-.54L89.78 6.43z" fill="#fff"/></svg>