<svg width="91" height="24" viewBox="0 0 91 24" fill="none" xmlns="http://www.w3.org/2000/svg"><rect x=".517" y=".871" width="90" height="23" rx="11.5" fill="#000"/><path d="M21.906 16.37v-.909h-3.627V8.413h-.989v7.958h4.616zm3.226.069c1.342 0 2.297-.853 2.524-2.012h-.943c-.194.75-.83 1.182-1.649 1.182-1.103 0-1.796-.773-1.83-1.876v-.08h4.502c.011-.136.023-.272.023-.397-.046-1.717-1.115-2.752-2.752-2.752-1.637 0-2.751 1.206-2.751 2.968 0 1.773 1.137 2.967 2.876 2.967zm-1.841-3.559c.09-.943.875-1.557 1.728-1.557.966 0 1.648.557 1.74 1.557H23.29zm10.659 2.638c-.262 0-.376-.08-.376-.386v-2.536c0-1.353-.852-2.092-2.33-2.092-1.398 0-2.32.671-2.456 1.808h.933c.113-.591.659-.978 1.477-.978.91 0 1.444.455 1.444 1.205v.398h-1.705c-1.524 0-2.33.648-2.33 1.808 0 1.057.863 1.694 2.137 1.694 1 0 1.58-.443 1.944-.966.011.568.273.898 1.046.898h.511v-.853h-.295zm-1.308-1.512c0 .966-.67 1.637-1.83 1.637-.773 0-1.262-.386-1.262-.955 0-.66.466-.966 1.296-.966h1.796v.284zm5.003-3.433c-1.035 0-1.478.432-1.75.875l-.126-.875h-.807v5.798h.932v-2.956c0-.921.33-1.933 1.546-1.933h.467v-.91h-.262zm3.912-.069c-.978 0-1.57.41-1.91.853l-.125-.784h-.807v5.798h.932v-2.9c0-1.307.66-2.114 1.75-2.114 1.012 0 1.57.637 1.57 1.842v3.172h.932v-3.229c0-1.921-1.035-2.638-2.342-2.638zm12.975 0c-1.035 0-1.66.478-2.013 1.103-.33-.739-1.023-1.103-1.83-1.103-.898 0-1.387.444-1.694.864l-.125-.795h-.807v5.798h.932v-3.058c0-1.16.58-1.956 1.535-1.956.886 0 1.398.591 1.398 1.728v3.286h.932v-3.104c0-1.182.592-1.91 1.558-1.91.875 0 1.376.591 1.376 1.728v3.286h.932v-3.343c0-1.83-.99-2.524-2.194-2.524zm5.995 5.935c1.694 0 2.876-1.205 2.876-2.967s-1.182-2.968-2.876-2.968-2.877 1.206-2.877 2.968 1.183 2.967 2.877 2.967zm0-.83c-1.149 0-1.922-.898-1.922-2.137 0-1.24.773-2.138 1.922-2.138 1.148 0 1.921.899 1.921 2.138 0 1.239-.773 2.137-1.921 2.137zm6.628-5.036c-1.034 0-1.478.432-1.75.875l-.126-.875h-.807v5.798h.932v-2.956c0-.921.33-1.933 1.546-1.933h.466v-.91h-.26zm3.408 5.866c1.342 0 2.297-.853 2.524-2.012h-.944c-.193.75-.83 1.182-1.648 1.182-1.103 0-1.796-.773-1.83-1.876v-.08h4.502c.011-.136.022-.272.022-.397-.045-1.717-1.114-2.752-2.75-2.752-1.638 0-2.752 1.206-2.752 2.968 0 1.773 1.137 2.967 2.876 2.967zm-1.841-3.559c.09-.943.875-1.557 1.728-1.557.966 0 1.648.557 1.739 1.557h-3.467z" fill="#fff"/></svg>