<svg width="106" height="13" viewBox="0 0 106 13" fill="none" xmlns="http://www.w3.org/2000/svg"><path d="M20.817 8.074l.505-1.288H23.4l.504 1.288h.634l-1.813-4.77h-.702l-1.819 4.77h.613zm1.54-4.122l.866 2.296h-1.724l.858-2.296zm2.639 4.122h.558v-4.77h-.558v4.77zm1.324 0h.558v-4.77h-.558v4.77zm3.366-.906c0 .613.239.906.906.906h.607v-.51h-.552c-.3 0-.402-.11-.402-.403v-2.05h.9v-.512h-.9v-.974h-.559v.974h-.627v.511h.627v2.058zm3.605-2.569c-.62 0-.886.26-1.05.525l-.074-.525h-.484v3.475h.559V6.303c0-.552.197-1.159.926-1.159h.28V4.6h-.157zm3.594 2.964c-.157 0-.225-.048-.225-.232V5.812c0-.81-.51-1.254-1.396-1.254-.839 0-1.39.402-1.472 1.084h.558c.069-.355.396-.586.886-.586.545 0 .866.272.866.722v.238H35.08c-.913 0-1.397.389-1.397 1.084 0 .633.518 1.015 1.28 1.015.6 0 .948-.266 1.166-.58.007.342.163.54.627.54h.306v-.512h-.177zm-.783-.906c0 .58-.402.981-1.097.981-.464 0-.757-.232-.757-.572 0-.395.28-.58.777-.58h1.077v.17zM40.19 5.13c-.211-.334-.606-.573-1.192-.573-.961 0-1.67.716-1.67 1.779 0 1.13.709 1.778 1.67 1.778.586 0 .96-.28 1.192-.6l.075.56h.484v-4.77h-.559V5.13zm-1.138 2.487c-.688 0-1.151-.525-1.151-1.281 0-.757.463-1.281 1.151-1.281.681 0 1.145.531 1.145 1.294 0 .743-.464 1.268-1.145 1.268zm2.744-3.605a.35.35 0 00.361-.36.35.35 0 00-.361-.362.35.35 0 00-.361.361.35.35 0 00.361.361zm-.286 4.061h.559V4.6h-.56v3.475zm3.027-3.516c-.586 0-.94.246-1.144.511l-.075-.47h-.484v3.475h.559V6.337c0-.784.395-1.268 1.049-1.268.606 0 .94.382.94 1.104v1.901h.559V6.14c0-1.151-.62-1.58-1.404-1.58zm4.856.64c-.219-.388-.607-.64-1.193-.64-.96 0-1.67.716-1.67 1.779 0 1.13.71 1.778 1.67 1.778.586 0 .96-.245 1.193-.64v.408c0 .757-.396 1.097-1.125 1.097-.579 0-.967-.245-1.063-.681h-.572c.088.763.709 1.179 1.594 1.179 1.193 0 1.724-.573 1.724-1.574V4.599h-.484l-.075.6zm-1.138 2.42c-.689 0-1.152-.525-1.152-1.281 0-.757.463-1.281 1.152-1.281.681 0 1.144.531 1.144 1.294 0 .743-.463 1.268-1.144 1.268zm4.527-3.605a.35.35 0 00.36-.36.35.35 0 00-.36-.362.351.351 0 00-.361.361c0 .211.156.361.36.361zm-.286 4.061h.558V4.6h-.558v3.475zm3.027-3.516c-.586 0-.94.246-1.145.511l-.075-.47h-.483v3.475h.559V6.337c0-.784.395-1.268 1.049-1.268.606 0 .94.382.94 1.104v1.901h.559V6.14c0-1.151-.62-1.58-1.404-1.58zm2.944 3.516h.674L60.444 4.6h-.586L58.815 7.44l-1.05-2.84h-.599l1.302 3.474zm3.84.041c1.016 0 1.725-.722 1.725-1.778s-.709-1.779-1.724-1.779c-1.015 0-1.724.723-1.724 1.779s.709 1.778 1.724 1.778zm0-.497c-.687 0-1.15-.539-1.15-1.281 0-.743.463-1.281 1.15-1.281.689 0 1.152.538 1.152 1.28 0 .743-.463 1.282-1.151 1.282zm2.365.456h.56v-4.77h-.56v4.77zm2.278 0h.675L68.927 4.6h-.586L67.3 7.44l-1.05-2.84h-.599l1.301 3.474zm3.842.041c.804 0 1.376-.511 1.512-1.206h-.565c-.116.45-.498.709-.988.709-.661 0-1.077-.464-1.097-1.125v-.047h2.698a2.97 2.97 0 00.014-.239c-.028-1.029-.668-1.649-1.65-1.649-.98 0-1.648.723-1.648 1.779 0 1.063.681 1.778 1.724 1.778zm-1.104-2.133a1.029 1.029 0 011.036-.933c.579 0 .988.334 1.042.933h-2.078zm3.159.947c.013.764.633 1.186 1.533 1.186.77 0 1.39-.402 1.39-1.05 0-.77-.634-.92-1.424-1.015-.504-.06-.872-.109-.872-.49 0-.32.327-.525.81-.525.477 0 .805.266.845.62h.573c-.055-.722-.627-1.09-1.418-1.097-.783-.007-1.362.41-1.362 1.043 0 .722.62.879 1.397.974.517.061.899.096.899.532 0 .32-.347.531-.838.531-.58 0-.94-.3-.96-.709h-.573zm6.934-2.33c-.62 0-.885.26-1.049.525l-.075-.525h-.484v3.475h.56V6.303c0-.552.197-1.159.926-1.159h.28V4.6h-.158zm.928-.586a.35.35 0 00.36-.36.35.35 0 00-.36-.362.351.351 0 00-.362.361c0 .211.157.361.362.361zm-.287 4.061h.56V4.6h-.56v3.475zm1.181-1.145c.014.764.634 1.186 1.534 1.186.77 0 1.39-.402 1.39-1.05 0-.77-.634-.92-1.425-1.015-.504-.06-.872-.109-.872-.49 0-.32.327-.525.811-.525.477 0 .804.266.845.62h.572c-.054-.722-.627-1.09-1.417-1.097-.783-.007-1.363.41-1.363 1.043 0 .722.62.879 1.397.974.518.061.9.096.9.532 0 .32-.348.531-.838.531-.58 0-.94-.3-.961-.709h-.573zm3.544 1.145h.559v-.913l.701-.722 1.152 1.635h.674l-1.451-2.037 1.356-1.438h-.688l-1.744 1.847V3.305h-.56v4.77zm3.412-.34c0 .231.163.381.388.381s.388-.15.388-.382c0-.231-.163-.381-.388-.381s-.388.15-.388.381z" fill="#000"/></svg>