<svg width="728" height="90" viewBox="0 0 728 90" fill="none" xmlns="http://www.w3.org/2000/svg"><path d="M460.924 54c.14 0 .28-.14.28-.28l-.112-9.1.112-9.94c0-.14-.14-.28-.28-.28h-2.744a.462.462 0 00-.42.252c-.868 1.372-2.268 2.464-4.004 3.136a.399.399 0 00-.252.364v2.212c0 .14.14.252.28.196 1.512-.476 2.856-1.176 3.92-2.184l.056 6.776-.084 8.568c0 .14.14.28.28.28h2.968zm18.02-7.224c0-.14-.14-.28-.28-.28h-1.848V34.68c0-.14-.14-.28-.28-.28h-4.06a.585.585 0 00-.448.224l-7.42 11.312a.839.839 0 00-.168.504v2.464c0 .14.14.28.28.28h8.652v4.536c0 .14.14.28.28.28h2.884c.14 0 .28-.14.28-.28v-4.536h1.848c.14 0 .28-.14.28-.28v-2.128zm-5.572-.28h-6.048l6.16-9.548-.112 3.752v5.796zm22.618-2.24c0-6.776-2.94-10.248-7.42-10.248-4.508 0-7.42 3.528-7.42 10.22 0 6.496 2.94 10.164 7.42 10.164s7.42-3.64 7.42-10.136zm-11.312 0c0-5.124 1.372-7.448 3.892-7.448 2.464 0 3.892 2.38 3.892 7.448 0 5.04-1.428 7.336-3.892 7.336-2.436 0-3.892-2.324-3.892-7.336zm26.94-.952c0-.14-.14-.28-.28-.28h-4.844v-5.432c0-.14-.14-.28-.28-.28h-2.072c-.14 0-.28.14-.28.28v5.432h-4.844c-.14 0-.28.14-.28.28v2.1c0 .14.14.28.28.28h4.844v5.404c0 .14.14.28.28.28h2.072c.14 0 .28-.14.28-.28v-5.404h4.844c.14 0 .28-.14.28-.28v-2.1zm21.444 5.6c.028-.112-.084-.224-.196-.224h-.868c-.112 0-.224.112-.252.224-.224 2.716-1.988 4.312-4.676 4.312-3.36-.028-4.9-2.464-4.9-6.384 0-3.92 1.568-6.44 4.9-6.44 2.464 0 4.144 1.316 4.536 3.864.028.14.14.224.252.224h.84c.112 0 .224-.112.196-.224-.308-2.996-2.352-4.984-5.824-4.984-4.144 0-6.328 3.052-6.328 7.56 0 4.508 2.184 7.476 6.3 7.476 3.696 0 5.768-2.268 6.02-5.404zm12.47 2.128l-.056 2.744a.24.24 0 00.224.224h.952a.24.24 0 00.224-.224l-.056-7.868.056-6.104a.24.24 0 00-.224-.224h-.98a.24.24 0 00-.224.224l.028 5.964v3.136c-.952 2.632-2.408 4.256-4.564 4.256-2.184 0-3.64-1.316-3.64-4.788v-2.604l.056-5.964a.24.24 0 00-.224-.224h-.98a.24.24 0 00-.224.224l.028 5.964v2.744c0 3.948 1.792 5.824 4.704 5.824 2.492 0 4.088-1.68 4.9-3.304zM551.816 54a.24.24 0 00.224-.224l-.056-8.736c.532-3.08 2.576-4.424 4.648-4.424.42 0 .756.028 1.036.112.112.028.224-.056.224-.168v-.756a.301.301 0 00-.224-.28c-.28-.084-.616-.112-.98-.112-1.96 0-3.78 1.092-4.732 3.052l.084-2.66a.24.24 0 00-.224-.224h-.98a.24.24 0 00-.224.224l.084 6.748-.084 7.224a.24.24 0 00.224.224h.98zm9.952 0a.24.24 0 00.224-.224l-.056-8.736c.532-3.08 2.576-4.424 4.648-4.424.42 0 .756.028 1.036.112.112.028.224-.056.224-.168v-.756a.301.301 0 00-.224-.28c-.28-.084-.616-.112-.98-.112-1.96 0-3.78 1.092-4.732 3.052l.084-2.66a.24.24 0 00-.224-.224h-.98a.24.24 0 00-.224.224l.084 6.748-.084 7.224a.24.24 0 00.224.224h.98zm18.107-5.096c-.112 0-.252.084-.252.224-.476 2.548-1.96 4.088-4.564 4.088-3.416 0-5.124-2.38-5.124-6.44l10.892-.028a.24.24 0 00.224-.224c-.084-4.592-2.38-7.252-6.188-7.252-3.892 0-6.328 3.136-6.328 7.56 0 4.424 2.24 7.476 6.496 7.476 3.444 0 5.404-2.016 5.936-5.18 0-.112-.084-.224-.196-.224h-.896zm-.308-3.276h-9.576c.336-3.22 2.016-5.264 4.872-5.264 3.052 0 4.676 2.352 4.704 5.264zM585.419 54a.24.24 0 00.224-.224l-.028-5.964v-3.136c.952-2.632 2.408-4.256 4.564-4.256 2.184 0 3.64 1.316 3.64 4.788v2.604l-.056 5.964a.24.24 0 00.224.224h.98a.24.24 0 00.224-.224l-.028-5.964v-2.744c0-3.948-1.792-5.824-4.704-5.824-2.492 0-4.088 1.68-4.9 3.304l.056-2.744a.24.24 0 00-.224-.224h-.952a.24.24 0 00-.224.224l.056 7.868-.056 6.104a.24.24 0 00.224.224h.98zm25.129-5.096c.028-.112-.084-.224-.196-.224h-.868c-.112 0-.224.112-.252.224-.224 2.716-1.988 4.312-4.676 4.312-3.36-.028-4.9-2.464-4.9-6.384 0-3.92 1.568-6.44 4.9-6.44 2.464 0 4.144 1.316 4.536 3.864.028.14.14.224.252.224h.84c.112 0 .224-.112.196-.224-.308-2.996-2.352-4.984-5.824-4.984-4.144 0-6.328 3.052-6.328 7.56 0 4.508 2.184 7.476 6.3 7.476 3.696 0 5.768-2.268 6.02-5.404zm4.294-11.2a.24.24 0 00.224-.224v-1.512a.24.24 0 00-.224-.224h-.98a.24.24 0 00-.224.224v1.512a.24.24 0 00.224.224h.98zm0 16.296a.24.24 0 00.224-.224l-.028-7.42.028-6.552a.24.24 0 00-.224-.224h-.98a.24.24 0 00-.224.224l.056 6.58-.056 7.392a.24.24 0 00.224.224h.98zm14.876-5.096c-.112 0-.252.084-.252.224-.476 2.548-1.96 4.088-4.564 4.088-3.416 0-5.124-2.38-5.124-6.44l10.892-.028a.24.24 0 00.224-.224c-.084-4.592-2.38-7.252-6.188-7.252-3.892 0-6.328 3.136-6.328 7.56 0 4.424 2.24 7.476 6.496 7.476 3.444 0 5.404-2.016 5.936-5.18 0-.112-.084-.224-.196-.224h-.896zm-.308-3.276h-9.576c.336-3.22 2.016-5.264 4.872-5.264 3.052 0 4.676 2.352 4.704 5.264zm15.542 4.424c0-5.992-9.94-2.604-9.94-6.86 0-1.904 1.54-2.856 3.92-2.856 2.324 0 4.172.952 4.312 3.276a.24.24 0 00.224.224h.84a.24.24 0 00.224-.224c-.14-2.996-2.548-4.312-5.572-4.312-3.08 0-5.292 1.344-5.292 3.948 0 5.6 9.94 2.212 9.94 6.888 0 1.988-1.764 3.108-4.228 3.108-2.968 0-4.592-1.316-4.676-4.144a.24.24 0 00-.224-.224h-.896a.24.24 0 00-.224.224c.084 3.528 2.38 5.18 5.992 5.18 3.136 0 5.6-1.568 5.6-4.228zM229.924 54c.14 0 .28-.14.28-.28l-.112-9.1.112-9.94c0-.14-.14-.28-.28-.28h-2.744a.462.462 0 00-.42.252c-.868 1.372-2.268 2.464-4.004 3.136a.399.399 0 00-.252.364v2.212c0 .14.14.252.28.196 1.512-.476 2.856-1.176 3.92-2.184l.056 6.776-.084 8.568c0 .14.14.28.28.28h2.968zM248 48.484c0-2.296-1.344-4.088-3.836-4.872 2.1-.868 3.248-2.436 3.22-4.312-.056-3.36-2.464-5.264-6.58-5.264-4.088 0-6.524 1.904-6.552 5.264-.028 1.932 1.092 3.5 3.164 4.312-2.464.784-3.78 2.576-3.78 4.872 0 3.696 3.108 5.852 7.168 5.852 4.088 0 7.196-2.156 7.196-5.852zm-10.444-8.876c.028-1.96 1.288-3.164 3.248-3.164 1.96 0 3.248 1.204 3.248 3.164 0 1.708-1.232 3.024-3.248 3.024-1.988 0-3.248-1.26-3.248-3.024zm-.56 8.764c0-2.128 1.456-3.472 3.808-3.5 2.352.028 3.808 1.372 3.808 3.5.028 2.044-1.512 3.556-3.808 3.556-2.268 0-3.836-1.512-3.808-3.556zm28.295-4.116c0-6.776-2.94-10.248-7.42-10.248-4.508 0-7.42 3.528-7.42 10.22 0 6.496 2.94 10.164 7.42 10.164s7.42-3.64 7.42-10.136zm-11.312 0c0-5.124 1.372-7.448 3.892-7.448 2.464 0 3.892 2.38 3.892 7.448 0 5.04-1.428 7.336-3.892 7.336-2.436 0-3.892-2.324-3.892-7.336zm26.94-.952c0-.14-.14-.28-.28-.28h-4.844v-5.432c0-.14-.14-.28-.28-.28h-2.072c-.14 0-.28.14-.28.28v5.432h-4.844c-.14 0-.28.14-.28.28v2.1c0 .14.14.28.28.28h4.844v5.404c0 .14.14.28.28.28h2.072c.14 0 .28-.14.28-.28v-5.404h4.844c.14 0 .28-.14.28-.28v-2.1zm21.444 5.6c.028-.112-.084-.224-.196-.224h-.868c-.112 0-.224.112-.252.224-.224 2.716-1.988 4.312-4.676 4.312-3.36-.028-4.9-2.464-4.9-6.384 0-3.92 1.568-6.44 4.9-6.44 2.464 0 4.144 1.316 4.536 3.864.028.14.14.224.252.224h.84c.112 0 .224-.112.196-.224-.308-2.996-2.352-4.984-5.824-4.984-4.144 0-6.328 3.052-6.328 7.56 0 4.508 2.184 7.476 6.3 7.476 3.696 0 5.768-2.268 6.02-5.404zm15.27-2.1c0-4.508-2.268-7.532-6.44-7.532-4.144 0-6.44 3.024-6.44 7.532s2.296 7.504 6.44 7.504c4.172 0 6.44-3.024 6.44-7.504zm-11.452 0c0-3.92 1.68-6.412 5.012-6.44 3.332 0 5.012 2.548 5.012 6.44 0 3.92-1.652 6.412-5.012 6.412-3.332 0-5.012-2.492-5.012-6.412zm24.1 4.228l-.056 2.744a.24.24 0 00.224.224h.952a.24.24 0 00.224-.224l-.056-7.868.056-6.104a.24.24 0 00-.224-.224h-.98a.24.24 0 00-.224.224l.028 5.964v3.136c-.952 2.632-2.408 4.256-4.564 4.256-2.184 0-3.64-1.316-3.64-4.788v-2.604l.056-5.964a.24.24 0 00-.224-.224h-.98a.24.24 0 00-.224.224l.028 5.964v2.744c0 3.948 1.792 5.824 4.704 5.824 2.492 0 4.088-1.68 4.9-3.304zM336.593 54a.24.24 0 00.224-.224l-.028-5.964v-3.136c.952-2.632 2.408-4.256 4.564-4.256 2.184 0 3.64 1.316 3.64 4.788v2.604l-.056 5.964a.24.24 0 00.224.224h.98a.24.24 0 00.224-.224l-.028-5.964v-2.744c0-3.948-1.792-5.824-4.704-5.824-2.492 0-4.088 1.68-4.9 3.304l.056-2.744a.24.24 0 00-.224-.224h-.952a.24.24 0 00-.224.224l.056 7.868-.056 6.104a.24.24 0 00.224.224h.98zm19.418-.952c0-.112-.112-.196-.224-.168-.392.084-.924.14-1.428.14-1.4 0-1.988-.644-1.988-2.8v-9.492h3.416a.24.24 0 00.224-.224v-.7a.24.24 0 00-.224-.224h-3.416l.028-3.388a.24.24 0 00-.224-.224h-.98a.24.24 0 00-.224.224l.056 3.388h-1.652a.24.24 0 00-.224.224v.7a.24.24 0 00.224.224h1.652l-.028 9.492c0 3.052 1.4 4.004 3.276 4.004.504 0 1.092-.112 1.512-.224a.273.273 0 00.224-.28v-.672zm4.04.952a.24.24 0 00.224-.224l-.056-8.736c.532-3.08 2.576-4.424 4.648-4.424.42 0 .756.028 1.036.112.112.028.224-.056.224-.168v-.756a.301.301 0 00-.224-.28c-.28-.084-.616-.112-.98-.112-1.96 0-3.78 1.092-4.732 3.052l.084-2.66a.24.24 0 00-.224-.224h-.98a.24.24 0 00-.224.224l.084 6.748-.084 7.224a.24.24 0 00.224.224h.98zm10.092-16.296a.24.24 0 00.224-.224v-1.512a.24.24 0 00-.224-.224h-.98a.24.24 0 00-.224.224v1.512a.24.24 0 00.224.224h.98zm0 16.296a.24.24 0 00.224-.224l-.028-7.42.028-6.552a.24.24 0 00-.224-.224h-.98a.24.24 0 00-.224.224l.056 6.58-.056 7.392a.24.24 0 00.224.224h.98zm14.877-5.096c-.112 0-.252.084-.252.224-.476 2.548-1.96 4.088-4.564 4.088-3.416 0-5.124-2.38-5.124-6.44l10.892-.028a.24.24 0 00.224-.224c-.084-4.592-2.38-7.252-6.188-7.252-3.892 0-6.328 3.136-6.328 7.56 0 4.424 2.24 7.476 6.496 7.476 3.444 0 5.404-2.016 5.936-5.18 0-.112-.084-.224-.196-.224h-.896zm-.308-3.276h-9.576c.336-3.22 2.016-5.264 4.872-5.264 3.052 0 4.676 2.352 4.704 5.264zm15.542 4.424c0-5.992-9.94-2.604-9.94-6.86 0-1.904 1.54-2.856 3.92-2.856 2.324 0 4.172.952 4.312 3.276a.24.24 0 00.224.224h.84a.24.24 0 00.224-.224c-.14-2.996-2.548-4.312-5.572-4.312-3.08 0-5.292 1.344-5.292 3.948 0 5.6 9.94 2.212 9.94 6.888 0 1.988-1.764 3.108-4.228 3.108-2.968 0-4.592-1.316-4.676-4.144a.24.24 0 00-.224-.224h-.896a.24.24 0 00-.224.224c.084 3.528 2.38 5.18 5.992 5.18 3.136 0 5.6-1.568 5.6-4.228z" fill="#fff"/></svg>