<svg width="120" height="29" viewBox="0 0 120 29" fill="none" xmlns="http://www.w3.org/2000/svg"><rect width="120" height="29" rx="14.5" fill="#000"/><path d="M16.14 16.336c.08 2.208 1.68 3.76 4.416 3.76 2.352 0 3.984-1.36 3.984-3.296 0-2.176-1.872-2.784-3.696-3.088-1.68-.288-3.04-.56-3.04-1.904 0-1.2.976-1.84 2.432-1.84 1.52 0 2.56.848 2.72 2.144h1.44c-.128-2.016-1.664-3.408-4.16-3.408-2.272 0-3.824 1.28-3.824 3.184 0 2.176 1.856 2.768 3.664 3.072 1.696.288 3.072.576 3.072 1.968 0 1.216-1.072 1.904-2.576 1.904-1.712 0-2.88-.992-2.992-2.496h-1.44zm10.583 1.536c0 1.44.56 2.128 2.128 2.128h1.424v-1.2h-1.296c-.704 0-.944-.256-.944-.944V13.04h2.112v-1.2h-2.112V9.552h-1.312v2.288H25.25v1.2h1.472v4.832zm11.78.928c-.368 0-.528-.112-.528-.544v-3.568c0-1.904-1.2-2.944-3.28-2.944-1.968 0-3.264.944-3.456 2.544h1.312c.16-.832.928-1.376 2.08-1.376 1.28 0 2.032.64 2.032 1.696v.56h-2.4c-2.144 0-3.28.912-3.28 2.544 0 1.488 1.216 2.384 3.008 2.384 1.408 0 2.224-.624 2.736-1.36.016.8.384 1.264 1.472 1.264h.72v-1.2h-.416zm-1.84-2.128c0 1.36-.944 2.304-2.576 2.304-1.088 0-1.776-.544-1.776-1.344 0-.928.656-1.36 1.824-1.36h2.528v.4zm7.04-4.832c-1.456 0-2.08.608-2.464 1.232l-.176-1.232h-1.136V20h1.312v-4.16c0-1.296.464-2.72 2.176-2.72h.656v-1.28h-.368zm2.38 6.032c0 1.44.56 2.128 2.127 2.128h1.424v-1.2h-1.296c-.704 0-.944-.256-.944-.944V13.04h2.112v-1.2h-2.112V9.552h-1.312v2.288H44.61v1.2h1.472v4.832zm9.483 0c0 1.44.56 2.128 2.128 2.128h1.424v-1.2h-1.296c-.704 0-.944-.256-.944-.944V13.04h2.112v-1.2H56.88V9.552h-1.313v2.288h-1.472v1.2h1.472v4.832zm8.465-6.032c-1.456 0-2.08.608-2.464 1.232l-.176-1.232h-1.136V20h1.312v-4.16c0-1.296.464-2.72 2.176-2.72h.656v-1.28h-.368zm8.44 6.96c-.368 0-.528-.112-.528-.544v-3.568c0-1.904-1.2-2.944-3.28-2.944-1.968 0-3.264.944-3.456 2.544h1.312c.16-.832.928-1.376 2.08-1.376 1.28 0 2.032.64 2.032 1.696v.56h-2.4c-2.144 0-3.28.912-3.28 2.544 0 1.488 1.216 2.384 3.008 2.384 1.408 0 2.224-.624 2.736-1.36.016.8.384 1.264 1.472 1.264h.72v-1.2h-.416zm-1.84-2.128c0 1.36-.944 2.304-2.576 2.304-1.088 0-1.776-.544-1.776-1.344 0-.928.656-1.36 1.824-1.36h2.528v.4zm9.603-3.584c-.496-.784-1.424-1.344-2.8-1.344-2.256 0-3.92 1.68-3.92 4.176 0 2.656 1.664 4.176 3.92 4.176 1.376 0 2.256-.656 2.8-1.408L80.41 20h1.136V8.8h-1.312v4.288zm-2.672 5.84c-1.616 0-2.704-1.232-2.704-3.008s1.088-3.008 2.704-3.008c1.6 0 2.688 1.248 2.688 3.04 0 1.744-1.088 2.976-2.688 2.976zm6.444-8.464c.48 0 .847-.352.847-.848a.824.824 0 00-.847-.848.824.824 0 00-.849.848c0 .496.368.848.849.848zM83.334 20h1.311v-8.16h-1.311V20zm7.109-8.256c-1.376 0-2.208.576-2.688 1.2l-.176-1.104h-1.136V20h1.312v-4.08c0-1.84.928-2.976 2.464-2.976 1.424 0 2.208.896 2.208 2.592V20h1.312v-4.544c0-2.704-1.456-3.712-3.296-3.712zm11.401 1.504c-.512-.912-1.424-1.504-2.8-1.504-2.256 0-3.92 1.68-3.92 4.176 0 2.656 1.664 4.176 3.92 4.176 1.376 0 2.256-.576 2.8-1.504v.96c0 1.776-.928 2.576-2.64 2.576-1.36 0-2.272-.576-2.496-1.6h-1.344c.208 1.792 1.664 2.768 3.744 2.768 2.8 0 4.048-1.344 4.048-3.696v-7.76h-1.136l-.176 1.408zm-2.672 5.68c-1.616 0-2.704-1.232-2.704-3.008s1.088-3.008 2.704-3.008c1.6 0 2.688 1.248 2.688 3.04 0 1.744-1.088 2.976-2.688 2.976z" fill="#fff"/></svg>