<svg width="221" height="69" viewBox="0 0 221 69" fill="none" xmlns="http://www.w3.org/2000/svg"><path d="M6.498 26.93h4.446L15.2 13.708l4.104 13.224h4.408l6.46-19.456h-4.18L21.394 22.37 17.138 7.475h-3.762L8.93 22.37 4.484 7.475H.152L6.498 26.93zM42.554 7.248c-3.04 0-4.902 1.368-6.118 3.04V.33h-4.104v26.6h4.104v-9.842c0-3.914 1.976-6.308 5.206-6.308 3.04 0 4.674 1.976 4.674 5.662V26.93h4.104V16.1c0-6.498-3.534-8.854-7.866-8.854zm20.684 19.912c4.826 0 8.094-2.926 8.778-6.764h-4.104c-.57 2.166-2.394 3.42-4.902 3.42-3.23 0-5.32-2.166-5.434-5.472v-.266h14.668c.076-.532.114-1.064.114-1.558-.114-5.7-3.876-9.272-9.5-9.272-5.738 0-9.576 3.99-9.576 9.994 0 5.966 3.838 9.918 9.956 9.918zm-5.51-12.084c.304-2.774 2.546-4.522 5.168-4.522 2.85 0 4.864 1.634 5.206 4.522H57.728zm28.208-7.828c-3.154 0-5.016 1.254-6.232 2.774l-.456-2.546h-3.572V26.93h4.104v-9.804c0-3.952 1.938-6.346 5.206-6.346 3.078 0 4.636 1.976 4.636 5.662V26.93h4.142V16.1c0-6.498-3.534-8.854-7.828-8.854zM3.42 55.649c0 3.534 1.596 5.282 5.32 5.282h3.8v-3.61H9.652c-1.558 0-2.09-.57-2.09-2.09V45.085h4.75v-3.61h-4.75V36.04H3.42v5.434H.038v3.61H3.42v10.564zm21.573-14.174c-3.192 0-4.75 1.292-5.738 2.926l-.456-2.926H15.15V60.93h4.104v-9.766c0-3.002 1.178-5.852 4.826-5.852h1.824v-3.838h-.912zm20.633 15.884c-.836 0-1.254-.266-1.254-1.254v-7.79c0-4.598-2.964-7.068-8.132-7.068-4.902 0-8.17 2.356-8.588 6.156h4.028c.304-1.71 1.938-2.85 4.37-2.85 2.698 0 4.256 1.33 4.256 3.496v1.178h-4.902c-5.434 0-8.322 2.242-8.322 6.232 0 3.61 2.964 5.7 7.22 5.7 3.154 0 5.13-1.368 6.422-3.344 0 1.938.912 3.116 3.572 3.116h2.166v-3.572h-.836zm-5.32-4.408c-.038 3.002-2.014 5.016-5.434 5.016-2.242 0-3.61-1.14-3.61-2.774 0-1.976 1.406-2.926 3.952-2.926h5.092v.684zm23.025-8.778c-1.254-1.71-3.344-2.926-6.308-2.926-5.282 0-9.196 3.952-9.196 9.956 0 6.232 3.914 9.956 9.196 9.956 3.078 0 5.092-1.444 6.346-3.154l.494 2.926h3.572v-26.6h-4.104v9.842zM57.707 57.7c-3.42 0-5.662-2.66-5.662-6.498 0-3.8 2.242-6.46 5.662-6.46s5.662 2.66 5.662 6.536c0 3.762-2.242 6.422-5.662 6.422zm15.829-18.962c1.406 0 2.508-1.026 2.508-2.47 0-1.444-1.102-2.47-2.508-2.47s-2.508 1.026-2.508 2.47c0 1.444 1.102 2.47 2.508 2.47zm-2.09 22.192h4.104V41.475h-4.104V60.93zm18.387-19.684c-3.154 0-5.016 1.254-6.232 2.774l-.456-2.546h-3.572V60.93h4.104v-9.804c0-3.952 1.938-6.346 5.206-6.346 3.078 0 4.636 1.976 4.636 5.662V60.93h4.142V50.1c0-6.498-3.534-8.854-7.828-8.854zm26.418 3.268c-1.254-1.938-3.344-3.268-6.384-3.268-5.282 0-9.196 3.914-9.196 9.88 0 6.194 3.914 9.88 9.196 9.88 3.04 0 5.054-1.254 6.346-3.192v2.166c0 3.724-2.014 5.434-5.586 5.434-2.888 0-4.788-1.254-5.282-3.42h-4.18c.38 4.37 3.99 6.764 9.158 6.764 6.992 0 9.956-3.344 9.956-8.626V41.475h-3.572l-.456 3.04zm-5.7 13.034c-3.42 0-5.662-2.622-5.662-6.422 0-3.762 2.242-6.422 5.662-6.422s5.662 2.66 5.662 6.498c0 3.724-2.242 6.346-5.662 6.346zm23.879 3.382h4.218V41.36l7.98 19.57h3.686l7.98-19.57v19.57h4.218v-26.6h-5.548l-8.36 20.938-8.512-20.938h-5.662v26.6zm41.769.228c4.826 0 8.094-2.926 8.778-6.764h-4.104c-.57 2.166-2.394 3.42-4.902 3.42-3.23 0-5.32-2.166-5.434-5.472v-.266h14.668c.076-.532.114-1.064.114-1.558-.114-5.7-3.876-9.272-9.5-9.272-5.738 0-9.576 3.99-9.576 9.994 0 5.966 3.838 9.918 9.956 9.918zm-5.51-12.084c.304-2.774 2.546-4.522 5.168-4.522 2.85 0 4.864 1.634 5.206 4.522h-10.374zm19.206 6.574c0 3.534 1.596 5.282 5.32 5.282h3.8v-3.61h-2.888c-1.558 0-2.09-.57-2.09-2.09V45.085h4.75v-3.61h-4.75V36.04h-4.142v5.434h-3.382v3.61h3.382v10.564zm29.292 1.71c-.836 0-1.254-.266-1.254-1.254v-7.79c0-4.598-2.964-7.068-8.132-7.068-4.902 0-8.17 2.356-8.588 6.156h4.028c.304-1.71 1.938-2.85 4.37-2.85 2.698 0 4.256 1.33 4.256 3.496v1.178h-4.902c-5.434 0-8.322 2.242-8.322 6.232 0 3.61 2.964 5.7 7.22 5.7 3.154 0 5.13-1.368 6.422-3.344 0 1.938.912 3.116 3.572 3.116h2.166v-3.572h-.836zm-5.32-4.408c-.038 3.002-2.014 5.016-5.434 5.016-2.242 0-3.61-1.14-3.61-2.774 0-1.976 1.406-2.926 3.952-2.926h5.092v.684z" fill="url(#paint0_linear_42_1166)"/><defs><linearGradient id="paint0_linear_42_1166" x1="234" y1="20.931" x2="0" y2="20.931" gradientUnits="userSpaceOnUse"><stop stop-color="#FF4343"/><stop offset=".5" stop-color="#9C0B93"/><stop offset="1" stop-color="#4C1BB7"/></linearGradient></defs></svg>