<svg width="139" height="151" viewBox="0 0 139 151" fill="none" xmlns="http://www.w3.org/2000/svg"><path d="M3.899 108.718h.79l2.232-7.536 2.233 7.536h.79l2.639-8.634h-.69l-2.332 7.759-2.27-7.759h-.678l-2.332 7.759-2.307-7.759h-.703l2.628 8.634zm11.94.074c1.369 0 2.417-.888 2.689-2.146h-.642c-.246.975-1.073 1.579-2.097 1.579-1.393 0-2.27-1.061-2.294-2.516v-.111h5.107c0-.087.012-.185.012-.259-.062-1.863-1.209-2.949-2.886-2.949-1.715 0-2.887 1.308-2.887 3.158 0 1.962 1.222 3.244 2.998 3.244zm-2.295-3.725c.1-1.27 1.049-2.121 2.196-2.121 1.221 0 2.097.752 2.196 2.121h-4.392zm14.733-1.147c-.383-.925-1.221-1.53-2.38-1.53-1.715 0-2.949 1.296-2.949 3.195 0 1.974 1.234 3.207 2.948 3.207 1.172 0 1.998-.616 2.393-1.591v1.11c0 1.666-.79 2.381-2.294 2.381-1.172 0-1.986-.53-2.184-1.48h-.653c.197 1.332 1.27 2.048 2.788 2.048 2.023 0 2.972-.963 2.972-2.924v-5.872h-.542l-.1 1.456zm-2.331 4.305c-1.394 0-2.357-1.085-2.357-2.64 0-1.554.963-2.639 2.357-2.639 1.393 0 2.356 1.085 2.356 2.652 0 1.542-.963 2.627-2.356 2.627zm4.773-7.08a.435.435 0 00.444-.445.435.435 0 00-.444-.444.435.435 0 00-.444.444c0 .26.197.445.444.445zm-.32 7.573h.628v-6.254h-.629v6.254zm3.92 0h.753l2.442-6.254h-.653l-2.147 5.527-2.158-5.527h-.679l2.442 6.254zm6.552.074c1.37 0 2.418-.888 2.689-2.146h-.642c-.246.975-1.073 1.579-2.096 1.579-1.394 0-2.27-1.061-2.295-2.516v-.111h5.107c0-.087.012-.185.012-.259-.061-1.863-1.209-2.949-2.886-2.949-1.715 0-2.887 1.308-2.887 3.158 0 1.962 1.222 3.244 2.998 3.244zm-2.294-3.725c.098-1.27 1.048-2.121 2.195-2.121 1.221 0 2.097.752 2.196 2.121h-4.392zm11.513 3.651l-.408 1.012c-.283.691-.394.876-1.036.876h-.79v.58h.963c.839 0 1.036-.321 1.43-1.308l2.998-7.414h-.678l-2.134 5.44-2.171-5.44h-.679l2.505 6.254zm6.501.074c1.764 0 3.01-1.307 3.01-3.207 0-1.887-1.246-3.195-3.01-3.195-1.764 0-2.997 1.308-2.997 3.195 0 1.9 1.233 3.207 2.997 3.207zm0-.567c-1.394 0-2.356-1.085-2.356-2.64 0-1.542.962-2.639 2.356-2.639s2.356 1.097 2.356 2.639c0 1.555-.962 2.64-2.356 2.64zm8.8-2.689c0 1.641-.815 2.677-2.11 2.677-1.16 0-1.875-.79-1.875-2.282v-3.467h-.629v3.504c0 1.961 1.024 2.824 2.405 2.824 1.11 0 1.838-.592 2.196-1.393l.087 1.319h.555v-6.254h-.63v3.072zm5.903 1.727c0 .999.407 1.455 1.468 1.455h.913v-.579h-.864c-.654 0-.888-.247-.888-.888v-4.207h1.69v-.58h-1.69v-1.751h-.629v1.751H70.11v.58h1.184v4.219zm6.224-4.873c-1.171 0-1.9.654-2.257 1.555v-3.861h-.63v8.634h.63v-3.083c0-1.629.827-2.665 2.159-2.665 1.196 0 1.936.79 1.936 2.27v3.478h.63v-3.503c0-1.973-1.049-2.825-2.468-2.825zm6.539 6.402c1.369 0 2.417-.888 2.689-2.146h-.642c-.246.975-1.073 1.579-2.097 1.579-1.394 0-2.27-1.061-2.294-2.516v-.111h5.107c0-.087.012-.185.012-.259-.062-1.863-1.209-2.949-2.886-2.949-1.715 0-2.887 1.308-2.887 3.158 0 1.962 1.221 3.244 2.998 3.244zm-2.295-3.725c.099-1.27 1.049-2.121 2.196-2.121 1.221 0 2.097.752 2.196 2.121h-4.392zM5.034 117.329c-.987 0-1.64.456-2.06 1.011l-.16-.937h-1.16v8.783h1.332v-3.356c.395.568 1.073.962 2.048.962 1.727 0 2.985-1.282 2.985-3.231 0-2.023-1.258-3.232-2.985-3.232zm-.222 5.341c-1.11 0-1.838-.876-1.838-2.134 0-1.221.727-2.072 1.838-2.072 1.11 0 1.85.851 1.85 2.097 0 1.233-.74 2.109-1.85 2.109zm4.274 1.048h1.332v-8.634H9.086v8.634zm8.411-1.159c-.271 0-.407-.086-.407-.407v-2.529c0-1.492-.962-2.294-2.64-2.294-1.59 0-2.652.765-2.787 1.998h1.307c.099-.555.63-.925 1.419-.925.876 0 1.381.432 1.381 1.135v.382h-1.59c-1.765 0-2.702.728-2.702 2.023 0 1.172.962 1.85 2.343 1.85 1.024 0 1.666-.444 2.085-1.085 0 .629.296 1.011 1.16 1.011h.703v-1.159h-.272zm-1.727-1.431c-.012.975-.653 1.628-1.763 1.628-.728 0-1.172-.37-1.172-.9 0-.642.456-.95 1.282-.95h1.653v.222zm3.18.876c0 1.147.519 1.714 1.728 1.714h1.233v-1.171h-.937c-.506 0-.679-.185-.679-.679v-3.293h1.542v-1.172h-1.542v-1.764h-1.344v1.764h-1.098v1.172h1.098v3.429zm3.3-3.429h1.098v5.143h1.344v-5.143h1.69v-1.172h-1.714v-.531c0-.431.185-.616.616-.616h1.098v-1.172h-1.27c-1.221 0-1.764.592-1.764 1.727v.592H22.25v1.172zm7.541 5.217c1.925 0 3.22-1.295 3.22-3.231 0-1.925-1.295-3.232-3.22-3.232-1.924 0-3.219 1.307-3.219 3.232 0 1.936 1.295 3.231 3.22 3.231zm0-1.134c-1.122 0-1.85-.876-1.85-2.097 0-1.222.728-2.097 1.85-2.097 1.123 0 1.863.875 1.863 2.097 0 1.221-.74 2.097-1.863 2.097zm7.486-5.255c-1.036 0-1.542.419-1.863.95l-.148-.95h-1.184v6.315h1.332v-3.17c0-.974.383-1.899 1.567-1.899h.592v-1.246h-.296zm8.383-.074c-1.036 0-1.751.456-2.158 1.147-.383-.814-1.123-1.147-1.95-1.147-.95.012-1.492.431-1.85.9l-.148-.826h-1.16v6.315h1.333v-3.379c0-1.123.568-1.863 1.48-1.863.876 0 1.332.58 1.332 1.69v3.552h1.345v-3.416c0-1.135.58-1.826 1.493-1.826.863 0 1.32.58 1.32 1.69v3.552h1.332v-3.638c0-1.999-1.061-2.751-2.369-2.751zm4.193 4.798c-.567 0-.937.37-.937.839 0 .53.32.789.728.789a.665.665 0 00.407-.123.702.702 0 01.012.16c0 .432-.309.913-1.086.926v.715c1.222-.012 1.986-.691 1.986-1.887 0-.79-.431-1.419-1.11-1.419zm5.977-5.612c.456 0 .814-.333.814-.802 0-.469-.358-.802-.814-.802-.457 0-.815.333-.815.802 0 .469.358.802.815.802zm-.679 7.203h1.332v-6.315h-1.332v6.315zm5.969-6.389c-1.024 0-1.628.407-2.023.9l-.148-.826h-1.16v6.315h1.332v-3.182c0-1.283.63-2.06 1.69-2.06 1 0 1.505.641 1.505 1.838v3.404h1.345v-3.515c0-2.109-1.147-2.874-2.541-2.874zm3.481 4.305c.037 1.369 1.197 2.158 2.887 2.158 1.53 0 2.676-.764 2.676-1.973 0-1.406-1.171-1.702-2.615-1.875-.913-.099-1.517-.173-1.517-.765 0-.506.518-.826 1.308-.826.789 0 1.332.407 1.406.986h1.307c-.086-1.295-1.184-2.01-2.738-2.01-1.517-.013-2.59.765-2.59 1.961 0 1.308 1.134 1.616 2.578 1.789.974.123 1.554.172 1.554.851 0 .506-.543.826-1.37.826-.962 0-1.529-.468-1.578-1.122H64.6zm7.274-5.119c.457 0 .814-.333.814-.802 0-.469-.357-.802-.814-.802-.456 0-.814.333-.814.802 0 .469.358.802.814.802zm-.678 7.203h1.332v-6.315h-1.332v6.315zm7.461-5.328c-.407-.63-1.085-1.061-2.072-1.061-1.715 0-2.986 1.27-2.986 3.207 0 2.011 1.271 3.207 2.986 3.207.987 0 1.64-.407 2.06-1.036v.703c0 1.209-.654 1.764-1.814 1.764-.937 0-1.554-.407-1.714-1.11H73.76c.123 1.418 1.295 2.196 2.973 2.196 2.27 0 3.232-1.086 3.232-2.801v-6.056h-1.16l-.148.987zm-1.85 4.231c-1.11 0-1.838-.852-1.838-2.085 0-1.221.728-2.085 1.838-2.085s1.838.864 1.838 2.11c0 1.208-.728 2.06-1.838 2.06zm7.778-5.292c-.987 0-1.592.444-1.986.987v-3.232h-1.333v8.634H82.6v-3.194c0-1.271.641-2.048 1.69-2.048.986 0 1.517.641 1.517 1.838v3.404h1.332v-3.515c0-2.109-1.147-2.874-2.553-2.874zm4.221 4.675c0 1.147.518 1.714 1.727 1.714h1.233v-1.171h-.937c-.506 0-.678-.185-.678-.679v-3.293h1.541v-1.172h-1.541v-1.764h-1.345v1.764h-1.098v1.172h1.098v3.429zm14.242.58c-.284 0-.481-.05-.716-.309l-.382-.419 1.863-2.8h-1.32l-1.295 1.973-1.58-1.714c1.567-.642 2.024-1.456 2.024-2.356 0-1.123-.95-1.949-2.196-1.949-1.468 0-2.553.913-2.553 2.134 0 .728.172 1.196.764 1.936-1.394.617-1.862 1.567-1.862 2.418-.013 1.517 1.258 2.294 2.874 2.294.913 0 1.677-.32 2.381-.986l.333.37c.382.431.9.542 1.48.542h1.024v-1.134h-.839zm-3.676-6.563c.592 0 .974.407.974.975 0 .629-.419 1.159-1.406 1.579-.505-.58-.715-.913-.715-1.468 0-.629.469-1.086 1.147-1.086zm-.641 6.674c-.926 0-1.567-.481-1.567-1.333 0-.666.284-1.134 1.122-1.566l.025.025 2.023 2.208c-.48.431-.999.666-1.603.666zM2.11 137.004c0 1.147.518 1.714 1.727 1.714h1.234v-1.171h-.938c-.506 0-.678-.185-.678-.679v-3.293h1.542v-1.172H3.455v-1.764H2.11v1.764H1.012v1.172H2.11v3.429zm6.66 1.788c1.925 0 3.22-1.295 3.22-3.231 0-1.925-1.295-3.232-3.22-3.232-1.924 0-3.219 1.307-3.219 3.232 0 1.936 1.295 3.231 3.22 3.231zm0-1.134c-1.122 0-1.85-.876-1.85-2.097 0-1.222.728-2.097 1.85-2.097 1.123 0 1.863.875 1.863 2.097 0 1.221-.74 2.097-1.862 2.097zm7.277 1.134c1.924 0 3.22-1.295 3.22-3.231 0-1.925-1.296-3.232-3.22-3.232-1.925 0-3.22 1.307-3.22 3.232 0 1.936 1.295 3.231 3.22 3.231zm0-1.134c-1.123 0-1.85-.876-1.85-2.097 0-1.222.727-2.097 1.85-2.097 1.122 0 1.862.875 1.862 2.097 0 1.221-.74 2.097-1.862 2.097zm4.29 1.06h1.333v-8.634h-1.333v8.634zm2.367-2.084c.037 1.369 1.197 2.158 2.887 2.158 1.53 0 2.676-.764 2.676-1.973 0-1.406-1.171-1.702-2.615-1.875-.912-.099-1.517-.173-1.517-.765 0-.506.518-.826 1.308-.826s1.332.407 1.406.986h1.308c-.087-1.295-1.185-2.01-2.739-2.01-1.517-.013-2.59.765-2.59 1.961 0 1.308 1.134 1.616 2.578 1.789.974.123 1.554.172 1.554.851 0 .506-.543.826-1.37.826-.961 0-1.529-.468-1.578-1.122h-1.308zm10.476.629c0 .999.407 1.455 1.468 1.455h.912v-.579h-.863c-.654 0-.888-.247-.888-.888v-4.207h1.69v-.58h-1.69v-1.751h-.63v1.751h-1.183v.58h1.184v4.219zm5.908 1.529c1.764 0 3.01-1.307 3.01-3.207 0-1.887-1.246-3.195-3.01-3.195-1.764 0-2.998 1.308-2.998 3.195 0 1.9 1.234 3.207 2.998 3.207zm0-.567c-1.394 0-2.356-1.085-2.356-2.64 0-1.542.962-2.639 2.356-2.639s2.356 1.097 2.356 2.639c0 1.555-.962 2.64-2.356 2.64zm10.471-5.835c-1.172 0-1.9.654-2.257 1.555v-3.861h-.63v8.634h.63v-3.083c0-1.629.826-2.665 2.158-2.665 1.197 0 1.937.79 1.937 2.27v3.478h.63v-3.503c0-1.973-1.05-2.825-2.468-2.825zm6.538 6.402c1.37 0 2.418-.888 2.69-2.146h-.642c-.247.975-1.073 1.579-2.097 1.579-1.394 0-2.27-1.061-2.294-2.516v-.111h5.106c0-.087.013-.185.013-.259-.062-1.863-1.21-2.949-2.887-2.949-1.714 0-2.886 1.308-2.886 3.158 0 1.962 1.221 3.244 2.997 3.244zm-2.294-3.725c.099-1.27 1.048-2.121 2.196-2.121 1.22 0 2.097.752 2.195 2.121h-4.391zm6.313 3.651h.63v-8.634h-.63v8.634zm5.13-6.328c-1.171 0-1.985.63-2.38 1.505l-.099-1.431h-.543v8.722h.63v-3.911c.357.913 1.208 1.517 2.392 1.517 1.715 0 2.949-1.307 2.949-3.207 0-1.961-1.234-3.195-2.948-3.195zm-.049 5.835c-1.394 0-2.356-1.085-2.356-2.652 0-1.53.962-2.627 2.356-2.627s2.356 1.097 2.356 2.639c0 1.555-.962 2.64-2.356 2.64zm9.443.493l-.407 1.012c-.284.691-.395.876-1.037.876h-.789v.58h.962c.839 0 1.036-.321 1.431-1.308l2.998-7.414h-.679l-2.134 5.44-2.17-5.44h-.68l2.505 6.254zm6.501.074c1.764 0 3.01-1.307 3.01-3.207 0-1.887-1.246-3.195-3.01-3.195-1.764 0-2.997 1.308-2.997 3.195 0 1.9 1.233 3.207 2.997 3.207zm0-.567c-1.394 0-2.356-1.085-2.356-2.64 0-1.542.963-2.639 2.356-2.639 1.394 0 2.356 1.097 2.356 2.639 0 1.555-.962 2.64-2.356 2.64zm8.8-2.689c0 1.641-.814 2.677-2.11 2.677-1.16 0-1.875-.79-1.875-2.282v-3.467h-.629v3.504c0 1.961 1.024 2.824 2.406 2.824 1.11 0 1.838-.592 2.195-1.393l.087 1.319h.555v-6.254h-.63v3.072zm5.15 1.258c.05 1.295 1.099 1.998 2.665 1.998 1.345 0 2.43-.678 2.43-1.788 0-1.32-1.16-1.579-2.504-1.764-.974-.136-1.838-.247-1.838-1.123 0-.715.703-1.184 1.764-1.184 1 0 1.715.481 1.826 1.295h.641c-.11-1.221-1.11-1.838-2.467-1.838-1.394-.012-2.393.704-2.393 1.777 0 1.258 1.16 1.492 2.443 1.665 1.048.148 1.9.284 1.9 1.209 0 .74-.778 1.209-1.802 1.209-1.196 0-1.973-.555-2.023-1.456h-.641zm9.059 1.998c1.764 0 3.01-1.307 3.01-3.207 0-1.887-1.246-3.195-3.01-3.195-1.764 0-2.998 1.308-2.998 3.195 0 1.9 1.234 3.207 2.998 3.207zm0-.567c-1.394 0-2.356-1.085-2.356-2.64 0-1.542.962-2.639 2.356-2.639s2.356 1.097 2.356 2.639c0 1.555-.962 2.64-2.356 2.64zm4.26.493h.629v-8.634h-.629v8.634zm3.921 0h.752l2.443-6.254h-.654l-2.146 5.527-2.159-5.527h-.678l2.442 6.254zm6.551.074c1.37 0 2.418-.888 2.689-2.146h-.641c-.247.975-1.073 1.579-2.097 1.579-1.394 0-2.27-1.061-2.294-2.516v-.111h5.106c0-.087.013-.185.013-.259-.062-1.863-1.209-2.949-2.887-2.949-1.714 0-2.886 1.308-2.886 3.158 0 1.962 1.221 3.244 2.997 3.244zm-2.294-3.725c.099-1.27 1.048-2.121 2.196-2.121 1.221 0 2.097.752 2.195 2.121h-4.391zm9.959-3.922a.435.435 0 00.444-.445.435.435 0 00-.444-.444.434.434 0 00-.444.444c0 .26.197.445.444.445zm-.321 7.573h.629v-6.254h-.629v6.254zm2.577-1.455c0 .999.407 1.455 1.468 1.455h.913v-.579h-.864c-.654 0-.888-.247-.888-.888v-4.207h1.69v-.58h-1.69v-1.751h-.629v1.751h-1.184v.58h1.184v4.219zm3.288 1.048c0 .284.197.469.469.469a.446.446 0 00.468-.469c0-.283-.197-.456-.468-.456-.272 0-.469.173-.469.456zM5.14 74.889c1.895 0 3.154-1.056 3.443-2.734H6.934c-.188.853-.825 1.403-1.78 1.403-1.258 0-2.082-.999-2.082-2.445 0-1.461.824-2.474 2.083-2.474.969 0 1.59.535 1.793 1.403h1.635c-.304-1.678-1.49-2.734-3.4-2.734-2.242 0-3.717 1.52-3.717 3.805 0 2.314 1.432 3.776 3.674 3.776zm11.41-1.447c-.32 0-.478-.101-.478-.477v-2.966c0-1.75-1.129-2.69-3.096-2.69-1.866 0-3.11.896-3.27 2.343h1.534c.116-.651.738-1.085 1.664-1.085 1.027 0 1.62.506 1.62 1.33v.45h-1.866c-2.069 0-3.168.853-3.168 2.372 0 1.374 1.128 2.17 2.748 2.17 1.2 0 1.953-.521 2.445-1.273 0 .737.347 1.186 1.36 1.186h.824v-1.36h-.318zm-2.026-1.678c-.015 1.143-.767 1.91-2.069 1.91-.853 0-1.374-.435-1.374-1.057 0-.752.535-1.114 1.504-1.114h1.939v.26zm7.1-4.456c-1.2 0-1.91.478-2.372 1.056l-.174-.969h-1.36v7.407h1.563v-3.733c0-1.504.738-2.415 1.982-2.415 1.171 0 1.764.752 1.764 2.155v3.993h1.577v-4.123c0-2.474-1.345-3.37-2.98-3.37zm12.066 0c-1.143 0-1.91.521-2.401 1.187v-3.82h-1.563v10.127h1.36l.188-1.07c.463.665 1.259 1.157 2.416 1.157 2.025 0 3.5-1.52 3.5-3.79 0-2.387-1.475-3.79-3.5-3.79zm-.26 6.264c-1.302 0-2.156-1.027-2.156-2.488 0-1.432.854-2.445 2.156-2.445s2.17 1.013 2.17 2.46c0 1.46-.868 2.473-2.17 2.473zm8.528 1.317c1.837 0 3.081-1.114 3.342-2.575h-1.563c-.217.824-.911 1.302-1.866 1.302-1.23 0-2.025-.825-2.068-2.084v-.1h5.584a4.25 4.25 0 00.043-.594c-.044-2.17-1.476-3.53-3.617-3.53-2.184 0-3.645 1.52-3.645 3.805 0 2.271 1.461 3.776 3.79 3.776zm-2.098-4.6c.116-1.057.97-1.722 1.968-1.722 1.085 0 1.851.622 1.982 1.721h-3.95zm17.304 3.153c-.318 0-.477-.101-.477-.477v-2.966c0-1.75-1.128-2.69-3.096-2.69-1.866 0-3.11.896-3.27 2.343h1.534c.116-.651.738-1.085 1.664-1.085 1.027 0 1.62.506 1.62 1.33v.45h-1.866c-2.069 0-3.168.853-3.168 2.372 0 1.374 1.128 2.17 2.748 2.17 1.201 0 1.953-.521 2.445-1.273 0 .737.347 1.186 1.36 1.186h.825v-1.36h-.319zm-2.025-1.678c-.014 1.143-.767 1.91-2.069 1.91-.853 0-1.374-.435-1.374-1.057 0-.752.535-1.114 1.505-1.114h1.938v.26zM66 67.308c-1.158 0-1.924.536-2.416 1.187l-.188-1.1h-1.36v10.3h1.562V73.76c.463.666 1.259 1.129 2.402 1.129 2.025 0 3.5-1.505 3.5-3.79 0-2.373-1.475-3.79-3.5-3.79zm-.26 6.264c-1.303 0-2.156-1.027-2.156-2.502 0-1.433.853-2.43 2.155-2.43 1.302 0 2.17.997 2.17 2.459 0 1.446-.868 2.473-2.17 2.473zm10.09-2.474c0 1.534-.723 2.43-1.91 2.43-1.142 0-1.721-.737-1.721-2.184v-3.949h-1.562v4.123c0 2.532 1.345 3.37 2.922 3.37 1.143 0 1.822-.462 2.285-1.026l.174.94h1.374v-7.407H75.83V71.1zm2.827-2.329h3.964l-4.138 4.919v1.114h6.423v-1.375H80.58l4.137-4.918v-1.114h-6.061v1.374zm7.064 0h3.963l-4.137 4.919v1.114h6.423v-1.375h-4.325l4.137-4.918v-1.114H85.72v1.374zm7.338 6.033h1.562V64.675h-1.562v10.127zm6.609.087c1.837 0 3.081-1.114 3.342-2.575h-1.563c-.217.824-.911 1.302-1.866 1.302-1.23 0-2.025-.825-2.068-2.084v-.1h5.583c.029-.203.044-.406.044-.594-.044-2.17-1.476-3.53-3.617-3.53-2.184 0-3.645 1.52-3.645 3.805 0 2.271 1.461 3.776 3.79 3.776zm-2.098-4.6c.116-1.057.97-1.722 1.968-1.722 1.085 0 1.851.622 1.982 1.721h-3.95zM2.276 88.79c0 1.345.607 2.01 2.025 2.01h1.447v-1.374h-1.1c-.593 0-.795-.217-.795-.795v-3.863H5.66v-1.374H3.853v-2.069H2.276v2.07H.988v1.373h1.288v4.022zm7.811 2.098c2.257 0 3.776-1.52 3.776-3.79 0-2.257-1.52-3.79-3.776-3.79-2.257 0-3.776 1.533-3.776 3.79 0 2.27 1.52 3.79 3.776 3.79zm0-1.331c-1.316 0-2.17-1.027-2.17-2.46 0-1.432.854-2.459 2.17-2.459 1.316 0 2.184 1.027 2.184 2.46 0 1.432-.868 2.459-2.184 2.459zm9.268-.767c0 1.345.608 2.01 2.026 2.01h1.446v-1.374h-1.099c-.593 0-.796-.217-.796-.795v-3.863h1.809v-1.374h-1.809v-2.069h-1.576v2.07h-1.288v1.373h1.287v4.022zm8.213-5.396c-1.215 0-1.808.492-2.184 1.114l-.174-1.114h-1.389v7.407h1.563v-3.718c0-1.143.448-2.228 1.837-2.228h.694v-1.46h-.347zm7.855 6.047c-.318 0-.477-.101-.477-.477v-2.966c0-1.75-1.129-2.69-3.096-2.69-1.866 0-3.11.896-3.27 2.343h1.534c.116-.651.738-1.085 1.663-1.085 1.027 0 1.62.506 1.62 1.33v.45h-1.865c-2.07 0-3.169.853-3.169 2.372 0 1.374 1.129 2.17 2.749 2.17 1.2 0 1.953-.521 2.445-1.273 0 .737.347 1.186 1.36 1.186h.824v-1.36h-.318zm-2.025-1.678c-.015 1.143-.767 1.91-2.07 1.91-.853 0-1.373-.435-1.373-1.057 0-.752.535-1.114 1.504-1.114h1.939v.26zm8.765-3.342c-.477-.65-1.273-1.114-2.401-1.114-2.011 0-3.501 1.505-3.501 3.79 0 2.373 1.49 3.79 3.5 3.79 1.172 0 1.939-.55 2.416-1.2l.188 1.114h1.36V80.675h-1.562v3.747zm-2.141 5.15c-1.302 0-2.155-1.013-2.155-2.474 0-1.446.853-2.459 2.155-2.459 1.302 0 2.155 1.013 2.155 2.488 0 1.433-.853 2.445-2.155 2.445zm8.745 1.317c1.837 0 3.081-1.114 3.342-2.575h-1.562c-.217.824-.912 1.302-1.866 1.302-1.23 0-2.026-.825-2.07-2.084v-.1h5.585c.029-.203.043-.406.043-.594-.043-2.17-1.475-3.53-3.616-3.53-2.185 0-3.646 1.52-3.646 3.805 0 2.271 1.461 3.776 3.79 3.776zm-2.097-4.6c.115-1.057.969-1.722 1.967-1.722 1.085 0 1.852.622 1.982 1.721h-3.95z" fill="#000"/><path d="M2.79 15.59c0 5.936 2.804 9.127 8.203 9.127 5.43 0 8.263-3.191 8.263-9.128V3.657h-3.43v12.111c0 3.878-1.492 5.907-4.833 5.907-3.281 0-4.773-2.029-4.773-5.907V3.658H2.79v11.931zm19.326 2.087c.12 4.177 3.252 7.04 8.442 7.04 4.594 0 7.726-2.595 7.726-6.354.03-4.116-3.34-5.22-6.8-5.846-3.282-.567-5.43-1.014-5.43-3.162 0-1.97 1.64-2.983 3.997-2.983 2.536 0 4.206 1.432 4.475 3.55h3.43c-.149-3.849-3.132-6.444-7.905-6.444-4.445 0-7.428 2.476-7.428 6.115 0 4.147 3.282 5.25 6.742 5.847 3.311.597 5.489 1.074 5.489 3.281 0 2-1.79 3.103-4.266 3.103-2.923 0-4.832-1.64-5.011-4.087l-3.46-.06zm27.596 2.715c0 2.774 1.253 4.146 4.177 4.146h2.983v-2.833h-2.267c-1.224 0-1.641-.448-1.641-1.641v-7.965h3.729V9.265h-3.73V5h-3.25v4.266h-2.656V12.1h2.655v8.293zm16.137 4.325c3.789 0 6.354-2.296 6.891-5.31H69.52c-.448 1.701-1.88 2.685-3.849 2.685-2.535 0-4.176-1.7-4.265-4.295v-.209h11.514c.06-.418.09-.835.09-1.223-.09-4.475-3.043-7.279-7.458-7.279-4.504 0-7.517 3.133-7.517 7.846 0 4.683 3.013 7.785 7.815 7.785zm-4.325-9.486c.239-2.177 1.999-3.55 4.057-3.55 2.237 0 3.818 1.283 4.087 3.55h-8.144zm21.1 9.486c3.907 0 6.502-2.177 7.1-5.637h-3.401c-.388 1.76-1.7 2.893-3.67 2.893-2.595 0-4.295-2.058-4.295-5.041 0-3.013 1.7-5.101 4.295-5.101 1.999 0 3.282 1.103 3.7 2.893h3.37c-.626-3.46-3.072-5.638-7.01-5.638-4.624 0-7.666 3.133-7.666 7.846 0 4.773 2.953 7.785 7.577 7.785zm17.589-15.63c-2.386 0-3.848 1.073-4.802 2.386V3.657h-3.222v20.881h3.222v-7.726c0-3.072 1.551-4.952 4.087-4.952 2.386 0 3.669 1.552 3.669 4.445v8.233h3.221v-8.501c0-5.101-2.774-6.95-6.175-6.95zM9.83 51.716c3.788 0 6.354-2.297 6.89-5.31H13.5c-.447 1.701-1.88 2.685-3.848 2.685-2.536 0-4.176-1.7-4.266-4.295v-.209H16.9c.06-.418.09-.835.09-1.223-.09-4.475-3.044-7.279-7.458-7.279-4.505 0-7.518 3.133-7.518 7.846 0 4.683 3.013 7.785 7.816 7.785zm-4.326-9.486c.24-2.177 2-3.55 4.057-3.55 2.238 0 3.819 1.283 4.087 3.55H5.504zm28.05 6.503c-.656 0-.984-.208-.984-.984v-6.115c0-3.61-2.327-5.549-6.384-5.549-3.848 0-6.413 1.85-6.741 4.833h3.162c.238-1.343 1.521-2.237 3.43-2.237 2.118 0 3.341 1.044 3.341 2.744v.925H25.53c-4.266 0-6.533 1.76-6.533 4.892 0 2.834 2.327 4.474 5.668 4.474 2.476 0 4.027-1.073 5.041-2.625 0 1.522.716 2.447 2.804 2.447h1.7v-2.805h-.656zm-4.176-3.46c-.03 2.357-1.58 3.938-4.266 3.938-1.76 0-2.833-.895-2.833-2.178 0-1.551 1.103-2.297 3.102-2.297h3.997v.537zm14.314-9.009c-2.506 0-3.73 1.014-4.505 2.297l-.358-2.297h-2.863v15.273h3.221v-7.666c0-2.357.925-4.594 3.789-4.594h1.432v-3.013h-.716zm10.757-.179c-2.476 0-3.938.985-4.892 2.178l-.358-1.999h-2.804v15.273h3.221v-7.696c0-3.102 1.522-4.981 4.087-4.981 2.416 0 3.64 1.55 3.64 4.444v8.233h3.25v-8.501c0-5.101-2.773-6.95-6.144-6.95zm10.716-1.969c1.103 0 1.968-.805 1.968-1.938 0-1.134-.865-1.94-1.968-1.94-1.104 0-1.97.806-1.97 1.94 0 1.133.866 1.938 1.97 1.938zM63.524 51.54h3.222V36.264h-3.222v15.273zm14.434-15.453c-2.476 0-3.938.985-4.892 2.178l-.358-1.999h-2.804v15.273h3.221v-7.696c0-3.102 1.522-4.981 4.087-4.981 2.416 0 3.64 1.55 3.64 4.444v8.233h3.25v-8.501c0-5.101-2.773-6.95-6.144-6.95zm20.739 2.566c-.985-1.522-2.626-2.566-5.012-2.566-4.146 0-7.219 3.073-7.219 7.756 0 4.863 3.073 7.756 7.219 7.756 2.386 0 3.968-.984 4.982-2.506v1.7c0 2.924-1.581 4.267-4.385 4.267-2.267 0-3.759-.985-4.147-2.685h-3.281c.298 3.43 3.132 5.31 7.189 5.31 5.489 0 7.816-2.625 7.816-6.772V36.265h-2.804l-.358 2.387zm-4.475 10.231c-2.685 0-4.445-2.058-4.445-5.04 0-2.954 1.76-5.042 4.445-5.042 2.685 0 4.445 2.088 4.445 5.1 0 2.924-1.76 4.982-4.445 4.982zm10.129-2.386c.089 3.311 2.893 5.22 6.98 5.22 3.699 0 6.473-1.849 6.473-4.772 0-3.401-2.834-4.117-6.324-4.535-2.207-.238-3.669-.417-3.669-1.85 0-1.222 1.253-1.998 3.162-1.998s3.222.985 3.401 2.387h3.162c-.209-3.133-2.864-4.863-6.623-4.863-3.669-.03-6.264 1.85-6.264 4.743 0 3.162 2.744 3.908 6.234 4.326 2.357.298 3.759.417 3.759 2.058 0 1.223-1.312 1.999-3.311 1.999-2.327 0-3.699-1.134-3.818-2.715h-3.162z" fill="url(#paint0_linear_6_16)"/><defs><linearGradient id="paint0_linear_6_16" x1="129.024" y1="18.939" x2="1" y2="18.939" gradientUnits="userSpaceOnUse"><stop stop-color="#FF4343"/><stop offset=".5" stop-color="#9C0B93"/><stop offset="1" stop-color="#4C1BB7"/></linearGradient></defs></svg>