<svg width="130" height="64" viewBox="0 0 130 64" fill="none" xmlns="http://www.w3.org/2000/svg"><path d="M.4 3.04h4.32V15h2.3V3.04h4.32V1H.4v2.04zm16.621 1.72c-1.68 0-2.5.68-3.02 1.54l-.24-1.54h-1.92V15h2.16V9.86c0-1.58.62-3.08 2.54-3.08h.96V4.76h-.48zm10.86 8.36c-.44 0-.66-.14-.66-.66v-4.1c0-2.42-1.56-3.72-4.28-3.72-2.58 0-4.3 1.24-4.52 3.24h2.12c.16-.9 1.02-1.5 2.3-1.5 1.42 0 2.24.7 2.24 1.84v.62H22.5c-2.86 0-4.38 1.18-4.38 3.28 0 1.9 1.56 3 3.8 3 1.66 0 2.7-.72 3.38-1.76 0 1.02.48 1.64 1.88 1.64h1.14v-1.88h-.44zm-2.8-2.32c-.02 1.58-1.06 2.64-2.86 2.64-1.18 0-1.9-.6-1.9-1.46 0-1.04.74-1.54 2.08-1.54h2.68v.36zm12.118-4.62c-.66-.9-1.76-1.54-3.32-1.54-2.78 0-4.84 2.08-4.84 5.24 0 3.28 2.06 5.24 4.84 5.24 1.62 0 2.68-.76 3.34-1.66l.26 1.54h1.88V1H37.2v5.18zm-2.96 7.12c-1.8 0-2.98-1.4-2.98-3.42 0-2 1.18-3.4 2.98-3.4s2.98 1.4 2.98 3.44c0 1.98-1.18 3.38-2.98 3.38zm12.091 1.82c2.54 0 4.26-1.54 4.62-3.56h-2.16c-.3 1.14-1.26 1.8-2.58 1.8-1.7 0-2.8-1.14-2.86-2.88v-.14h7.72c.04-.28.06-.56.06-.82-.06-3-2.04-4.88-5-4.88-3.02 0-5.04 2.1-5.04 5.26 0 3.14 2.02 5.22 5.24 5.22zm-2.9-6.36c.16-1.46 1.34-2.38 2.72-2.38 1.5 0 2.56.86 2.74 2.38h-5.46zm21.904-1.04c1.3-.3 2.42-1.48 2.42-3.12 0-2.18-1.88-3.72-4.88-3.72-2.98 0-4.86 1.54-4.86 3.72 0 1.7 1.12 2.82 2.4 3.14-1.5.34-2.78 1.5-2.78 3.44 0 2.32 1.94 3.94 5.24 3.94 3.3 0 5.26-1.62 5.26-3.94 0-1.98-1.3-3.14-2.8-3.46zm-2.46-5.12c1.6 0 2.64.84 2.64 2.06 0 1.24-1.04 2.08-2.64 2.08-1.58 0-2.62-.84-2.62-2.08 0-1.22 1.04-2.06 2.62-2.06zm0 10.82c-1.76 0-2.98-1-2.98-2.36 0-1.36 1.22-2.34 2.98-2.34 1.78 0 3 .98 3 2.34 0 1.36-1.22 2.36-3 2.36zm6.214-1.66h7.14V15h2.18v-3.24h2.12V9.84h-2.12V1h-2.6l-6.72 8.88v1.88zm7.14-8.34v6.42h-4.86l4.86-6.42zM1.28 39h2.3v-5.92h5.48V31.1H3.58v-4.06h6.64V25H1.28v14zm9.683 0h2.6l3.44-5.38 3.42 5.38h2.74l-4.66-7.26 4.38-6.74h-2.6l-3.2 4.98-3.14-4.98h-2.72l4.38 6.84-4.64 7.16zm18.833 0h2.3v-5.08h3.22c2.92 0 4.84-1.76 4.84-4.46 0-2.72-1.92-4.46-4.84-4.46h-5.52v14zm5.34-12c1.64 0 2.68.94 2.68 2.46 0 1.5-1.06 2.46-2.7 2.46h-3.02V27h3.04zm15.323 10.12c-.44 0-.66-.14-.66-.66v-4.1c0-2.42-1.56-3.72-4.28-3.72-2.58 0-4.3 1.24-4.52 3.24h2.12c.16-.9 1.02-1.5 2.3-1.5 1.42 0 2.24.7 2.24 1.84v.62h-2.58c-2.86 0-4.38 1.18-4.38 3.28 0 1.9 1.56 3 3.8 3 1.66 0 2.7-.72 3.38-1.76 0 1.02.48 1.64 1.88 1.64h1.14v-1.88h-.44zm-2.8-2.32c-.02 1.58-1.06 2.64-2.86 2.64-1.18 0-1.9-.6-1.9-1.46 0-1.04.74-1.54 2.08-1.54h2.68v.36zm5.517-7.48c.74 0 1.32-.54 1.32-1.3s-.58-1.3-1.32-1.3c-.74 0-1.32.54-1.32 1.3s.58 1.3 1.32 1.3zM52.076 39h2.16V28.76h-2.16V39zm9.457-10.24c-1.68 0-2.5.68-3.02 1.54l-.24-1.54h-1.92V39h2.16v-5.14c0-1.58.62-3.08 2.54-3.08h.96v-2.02h-.48zm1.196 6.86c.06 2.22 1.94 3.5 4.68 3.5 2.48 0 4.34-1.24 4.34-3.2 0-2.28-1.9-2.76-4.24-3.04-1.48-.16-2.46-.28-2.46-1.24 0-.82.84-1.34 2.12-1.34 1.28 0 2.16.66 2.28 1.6h2.12c-.14-2.1-1.92-3.26-4.44-3.26-2.46-.02-4.2 1.24-4.2 3.18 0 2.12 1.84 2.62 4.18 2.9 1.58.2 2.52.28 2.52 1.38 0 .82-.88 1.34-2.22 1.34-1.56 0-2.48-.76-2.56-1.82h-2.12zM4.2 63h2.7l2.82-10.3L12.58 63h2.68l4.02-14h-2.36l-3 11.08L10.88 49H8.7L5.58 60.08 2.6 48.98.22 49 4.2 63zm17.433-11.68c.74 0 1.32-.54 1.32-1.3s-.58-1.3-1.32-1.3c-.74 0-1.32.54-1.32 1.3s.58 1.3 1.32 1.3zM20.533 63h2.16V52.76h-2.16V63zm5.017-2.78c0 1.86.84 2.78 2.8 2.78h2v-1.9h-1.52c-.82 0-1.1-.3-1.1-1.1v-5.34h2.5v-1.9h-2.5V49.9h-2.18v2.86h-1.78v1.9h1.78v5.56zm11.554-7.58c-1.6 0-2.58.72-3.22 1.6V49h-2.16v14h2.16v-5.18c0-2.06 1.04-3.32 2.74-3.32 1.6 0 2.46 1.04 2.46 2.98V63h2.16v-5.7c0-3.42-1.86-4.66-4.14-4.66zM47.97 63.12c3.12 0 5.22-2.1 5.22-5.24 0-3.12-2.1-5.24-5.22-5.24-3.12 0-5.22 2.12-5.22 5.24 0 3.14 2.1 5.24 5.22 5.24zm0-1.84c-1.82 0-3-1.42-3-3.4s1.18-3.4 3-3.4 3.02 1.42 3.02 3.4-1.2 3.4-3.02 3.4zm13.977-3.4c0 2.12-1 3.36-2.64 3.36-1.58 0-2.38-1.02-2.38-3.02v-5.46h-2.16v5.7c0 3.5 1.86 4.66 4.04 4.66 1.58 0 2.52-.64 3.16-1.42l.24 1.3h1.9V52.76h-2.16v5.12zm5.087 2.34c0 1.86.84 2.78 2.8 2.78h2v-1.9h-1.52c-.82 0-1.1-.3-1.1-1.1v-5.34h2.5v-1.9h-2.5V49.9h-2.18v2.86h-1.78v1.9h1.78v5.56zm17.592 2.9c3.26 0 5.64-1.92 6.08-4.88h-2.38c-.44 1.78-1.78 2.86-3.72 2.86-2.64 0-4.24-2.12-4.24-5.1 0-3 1.64-5.1 4.3-5.1 1.9 0 3.22 1.1 3.68 2.86h2.38c-.46-2.96-2.76-4.88-5.96-4.88-4.14 0-6.76 2.86-6.76 7.12 0 4.3 2.54 7.12 6.62 7.12zm12.602 0c3.12 0 5.22-2.1 5.22-5.24 0-3.12-2.1-5.24-5.22-5.24-3.12 0-5.22 2.12-5.22 5.24 0 3.14 2.1 5.24 5.22 5.24zm0-1.84c-1.82 0-3-1.42-3-3.4s1.18-3.4 3-3.4 3.02 1.42 3.02 3.4-1.2 3.4-3.02 3.4zm6.458-1.66c.06 2.22 1.94 3.5 4.68 3.5 2.48 0 4.34-1.24 4.34-3.2 0-2.28-1.9-2.76-4.24-3.04-1.48-.16-2.46-.28-2.46-1.24 0-.82.84-1.34 2.12-1.34 1.28 0 2.16.66 2.28 1.6h2.12c-.14-2.1-1.92-3.26-4.44-3.26-2.46-.02-4.2 1.24-4.2 3.18 0 2.12 1.84 2.62 4.18 2.9 1.58.2 2.52.28 2.52 1.38 0 .82-.88 1.34-2.22 1.34-1.56 0-2.48-.76-2.56-1.82h-2.12zm11.434.6c0 1.86.84 2.78 2.8 2.78h2v-1.9h-1.52c-.82 0-1.1-.3-1.1-1.1v-5.34h2.5v-1.9h-2.5V49.9h-2.18v2.86h-1.78v1.9h1.78v5.56zm5.734-.6c.06 2.22 1.94 3.5 4.68 3.5 2.48 0 4.34-1.24 4.34-3.2 0-2.28-1.9-2.76-4.24-3.04-1.48-.16-2.46-.28-2.46-1.24 0-.82.84-1.34 2.12-1.34 1.28 0 2.16.66 2.28 1.6h2.12c-.14-2.1-1.92-3.26-4.44-3.26-2.46-.02-4.2 1.24-4.2 3.18 0 2.12 1.84 2.62 4.18 2.9 1.58.2 2.52.28 2.52 1.38 0 .82-.88 1.34-2.22 1.34-1.56 0-2.48-.76-2.56-1.82h-2.12z" fill="#000"/></svg>