<svg width="134" height="147" viewBox="0 0 134 147" fill="none" xmlns="http://www.w3.org/2000/svg"><path d="M1.441 95.87H4.53v8.364h.695v-8.365h3.089v-.643H1.44v.643zm9.865 1.84c-1.21 0-1.724.579-1.995 1.3l-.103-1.3h-.566v6.524h.656v-3.307c0-1.326.348-2.587 1.88-2.587h.476v-.63h-.348zm6.784 5.92c-.387 0-.58-.129-.58-.631v-3.037c0-1.493-.913-2.33-2.548-2.33-1.493 0-2.484.721-2.65 1.905h.655c.168-.798.863-1.326 1.97-1.326 1.222 0 1.917.644 1.917 1.725v.566h-2.213c-1.674 0-2.574.721-2.574 1.944 0 1.158.913 1.866 2.303 1.866 1.326 0 2.11-.605 2.51-1.416v.232c-.026.772.296 1.106 1.068 1.106h.386v-.604h-.244zm-1.236-2.034c0 1.248-.888 2.149-2.432 2.149-1.043 0-1.686-.527-1.686-1.338 0-.862.643-1.339 1.853-1.339h2.265v.528zm7.585-2.42c-.399-.926-1.274-1.544-2.496-1.544-1.79 0-3.076 1.364-3.076 3.334 0 2.059 1.287 3.346 3.076 3.346 1.222 0 2.072-.657 2.483-1.57l.104 1.492h.566v-9.008h-.657v3.95zm-2.445 4.544c-1.454 0-2.458-1.133-2.458-2.754 0-1.61 1.004-2.755 2.458-2.755 1.454 0 2.458 1.146 2.458 2.767 0 1.609-1.004 2.742-2.458 2.742zm7.528.592c1.429 0 2.523-.927 2.806-2.24h-.67c-.257 1.017-1.119 1.648-2.187 1.648-1.454 0-2.368-1.107-2.394-2.626v-.116h5.328c0-.09.013-.193.013-.27-.064-1.943-1.261-3.076-3.011-3.076-1.79 0-3.012 1.364-3.012 3.295 0 2.046 1.274 3.385 3.127 3.385zm-2.393-3.887c.103-1.326 1.094-2.214 2.29-2.214 1.274 0 2.188.785 2.291 2.214H27.13zm12.938 3.887c1.428 0 2.523-.927 2.806-2.24h-.67c-.257 1.017-1.12 1.648-2.188 1.648-1.454 0-2.367-1.107-2.393-2.626v-.116h5.328c0-.09.013-.193.013-.27-.065-1.943-1.261-3.076-3.012-3.076-1.789 0-3.011 1.364-3.011 3.295 0 2.046 1.274 3.385 3.127 3.385zm-2.394-3.887c.103-1.326 1.094-2.214 2.291-2.214 1.274 0 2.188.785 2.29 2.214h-4.58zM50 103.63c-.386 0-.58-.129-.58-.631v-3.037c0-1.493-.913-2.33-2.547-2.33-1.493 0-2.484.721-2.652 1.905h.657c.167-.798.862-1.326 1.969-1.326 1.222 0 1.917.644 1.917 1.725v.566h-2.213c-1.673 0-2.574.721-2.574 1.944 0 1.158.914 1.866 2.304 1.866 1.325 0 2.11-.605 2.51-1.416v.232c-.027.772.295 1.106 1.067 1.106h.386v-.604H50zm-1.236-2.034c0 1.248-.888 2.149-2.432 2.149-1.042 0-1.686-.527-1.686-1.338 0-.862.644-1.339 1.853-1.339h2.265v.528zm5.022-3.886c-1.21 0-1.724.579-1.995 1.3l-.103-1.3h-.566v6.524h.657v-3.307c0-1.326.347-2.587 1.878-2.587h.477v-.63h-.348zm4.332-.078c-1.197 0-1.97.618-2.343 1.467l-.102-1.39h-.567v6.525h.657v-3.217c0-1.699.862-2.78 2.252-2.78 1.261 0 2.02.824 2.02 2.368v3.629h.657v-3.655c0-2.059-1.094-2.947-2.574-2.947zm4.361-1.3a.453.453 0 00.463-.463.453.453 0 00-.463-.463.453.453 0 00-.463.463c0 .27.206.463.463.463zm-.335 7.902h.657V97.71h-.657v6.524zm5.211-6.602c-1.197 0-1.969.618-2.342 1.467l-.103-1.39h-.566v6.525H65v-3.217c0-1.699.862-2.78 2.252-2.78 1.262 0 2.02.824 2.02 2.368v3.629h.657v-3.655c0-2.059-1.094-2.947-2.574-2.947zm9.342 1.596c-.399-.965-1.274-1.596-2.484-1.596-1.789 0-3.076 1.352-3.076 3.334 0 2.059 1.287 3.346 3.076 3.346 1.223 0 2.085-.644 2.497-1.661v1.159c0 1.737-.824 2.484-2.394 2.484-1.222 0-2.072-.554-2.278-1.545h-.682c.206 1.39 1.326 2.137 2.909 2.137 2.11 0 3.101-1.004 3.101-3.051V97.71H76.8l-.103 1.518zm-2.432 4.492c-1.455 0-2.458-1.133-2.458-2.754 0-1.622 1.003-2.755 2.458-2.755 1.454 0 2.458 1.133 2.458 2.767 0 1.609-1.004 2.742-2.458 2.742zm4.35-1.493c.05 1.351 1.145 2.085 2.779 2.085 1.403 0 2.535-.708 2.535-1.866 0-1.378-1.21-1.648-2.612-1.841-1.017-.141-1.918-.257-1.918-1.171 0-.746.734-1.236 1.84-1.236 1.043 0 1.79.502 1.905 1.352h.67c-.116-1.274-1.159-1.918-2.574-1.918-1.455-.013-2.497.734-2.497 1.853 0 1.313 1.21 1.558 2.548 1.738 1.094.154 1.982.296 1.982 1.261 0 .772-.81 1.261-1.879 1.261-1.248 0-2.06-.579-2.11-1.518h-.67zm15.775 1.403c-.386 0-.579-.129-.579-.631v-3.037c0-1.493-.914-2.33-2.548-2.33-1.493 0-2.484.721-2.651 1.905h.656c.168-.798.862-1.326 1.97-1.326 1.222 0 1.917.644 1.917 1.725v.566H90.94c-1.673 0-2.574.721-2.574 1.944 0 1.158.914 1.866 2.304 1.866 1.325 0 2.11-.605 2.51-1.416v.232c-.026.772.296 1.106 1.068 1.106h.386v-.604h-.245zm-1.235-2.034c0 1.248-.888 2.149-2.433 2.149-1.042 0-1.685-.527-1.685-1.338 0-.862.643-1.339 1.853-1.339h2.265v.528zm2.062.631c.051 1.351 1.145 2.085 2.78 2.085 1.402 0 2.535-.708 2.535-1.866 0-1.378-1.21-1.648-2.613-1.841-1.016-.141-1.917-.257-1.917-1.171 0-.746.733-1.236 1.84-1.236 1.042 0 1.789.502 1.905 1.352h.669c-.116-1.274-1.158-1.918-2.574-1.918-1.454-.013-2.497.734-2.497 1.853 0 1.313 1.21 1.558 2.549 1.738 1.093.154 1.981.296 1.981 1.261 0 .772-.81 1.261-1.879 1.261-1.248 0-2.059-.579-2.11-1.518h-.67zm10.525.489c0 1.042.425 1.518 1.531 1.518h.953v-.604h-.901c-.682 0-.927-.258-.927-.927v-4.389h1.763v-.604h-1.763v-1.828h-.656v1.828h-1.236v.604h1.236v4.402zm6.494-5.084c-1.223 0-1.982.682-2.355 1.622v-4.028h-.657v9.008h.657v-3.217c0-1.699.862-2.78 2.252-2.78 1.248 0 2.02.824 2.02 2.368v3.629h.657v-3.655c0-2.059-1.094-2.947-2.574-2.947zm6.821 6.68c1.429 0 2.523-.927 2.806-2.24h-.669c-.258 1.017-1.12 1.648-2.188 1.648-1.454 0-2.368-1.107-2.394-2.626v-.116h5.328c0-.09.013-.193.013-.27-.064-1.943-1.261-3.076-3.012-3.076-1.788 0-3.011 1.364-3.011 3.295 0 2.046 1.274 3.385 3.127 3.385zm-2.393-3.887c.102-1.326 1.093-2.214 2.29-2.214 1.274 0 2.188.785 2.291 2.214h-4.581zm8.266 3.809l-.425 1.056c-.296.72-.412.913-1.081.913h-.823v.605h1.003c.876 0 1.081-.334 1.493-1.364l3.128-7.734h-.708l-2.227 5.675-2.265-5.675h-.708l2.613 6.524zM4.967 112.632c-1.222 0-1.982.682-2.355 1.622v-4.028h-.656v9.008h.656v-3.217c0-1.699.863-2.78 2.252-2.78 1.249 0 2.021.824 2.021 2.368v3.629h.656v-3.655c0-2.059-1.094-2.947-2.574-2.947zm9.78 5.998c-.387 0-.58-.129-.58-.631v-3.037c0-1.493-.913-2.33-2.548-2.33-1.493 0-2.484.721-2.651 1.905h.656c.168-.798.863-1.326 1.97-1.326 1.222 0 1.917.644 1.917 1.725v.566h-2.214c-1.673 0-2.574.721-2.574 1.944 0 1.158.914 1.866 2.304 1.866 1.326 0 2.11-.605 2.51-1.416v.232c-.026.772.296 1.106 1.068 1.106h.386v-.604h-.245zm-1.236-2.034c0 1.248-.888 2.149-2.432 2.149-1.043 0-1.686-.527-1.686-1.338 0-.862.643-1.339 1.853-1.339h2.265v.528zm5.51-3.964c-1.222 0-2.071.657-2.483 1.57l-.103-1.493h-.566v9.099h.656v-4.079c.373.952 1.261 1.583 2.497 1.583 1.789 0 3.076-1.365 3.076-3.346 0-2.047-1.287-3.334-3.076-3.334zm-.05 6.088c-1.455 0-2.459-1.133-2.459-2.767 0-1.596 1.004-2.742 2.458-2.742 1.455 0 2.459 1.146 2.459 2.755 0 1.621-1.004 2.754-2.459 2.754zm7.58-6.088c-1.223 0-2.073.657-2.485 1.57l-.103-1.493h-.566v9.099h.656v-4.079c.374.952 1.262 1.583 2.497 1.583 1.789 0 3.076-1.365 3.076-3.346 0-2.047-1.287-3.334-3.076-3.334zm-.052 6.088c-1.455 0-2.458-1.133-2.458-2.767 0-1.596 1.003-2.742 2.458-2.742 1.454 0 2.458 1.146 2.458 2.755 0 1.621-1.004 2.754-2.458 2.754zm7.31.592c1.428 0 2.522-.927 2.805-2.24h-.67c-.257 1.017-1.12 1.648-2.187 1.648-1.455 0-2.368-1.107-2.394-2.626v-.116h5.328c0-.09.013-.193.013-.27-.065-1.943-1.261-3.076-3.012-3.076-1.789 0-3.011 1.364-3.011 3.295 0 2.046 1.274 3.385 3.127 3.385zm-2.395-3.887c.103-1.326 1.094-2.214 2.291-2.214 1.274 0 2.188.785 2.291 2.214h-4.582zm9.599-2.793c-1.197 0-1.97.618-2.343 1.467l-.103-1.39h-.566v6.525h.657v-3.217c0-1.699.862-2.78 2.252-2.78 1.26 0 2.02.824 2.02 2.368v3.629h.657v-3.655c0-2.059-1.094-2.947-2.574-2.947zm9.078 6.602h.708l1.93-5.482 1.84 5.482h.709l2.316-6.525h-.67l-2.007 5.74-1.866-5.74h-.605l-1.969 5.74-1.905-5.74h-.695l2.214 6.525zm8.756-7.902a.453.453 0 00.463-.463.453.453 0 00-.463-.463.453.453 0 00-.464.463c0 .27.206.463.464.463zm-.335 7.902h.657v-6.525h-.657v6.525zm2.689-1.518c0 1.042.424 1.518 1.531 1.518h.953v-.604h-.901c-.682 0-.927-.258-.927-.927v-4.389h1.763v-.605h-1.763v-1.827h-.656v1.827h-1.236v.605h1.236v4.402zm6.494-5.084c-1.223 0-1.982.682-2.355 1.622v-4.028h-.657v9.008h.656v-3.217c0-1.699.863-2.78 2.253-2.78 1.248 0 2.02.824 2.02 2.368v3.629h.657v-3.655c0-2.059-1.094-2.947-2.574-2.947zm10.545 6.68c1.634 0 2.741-.991 2.973-2.291h-1.39c-.193.733-.811 1.158-1.66 1.158-1.094 0-1.802-.733-1.84-1.853v-.09h4.967c.026-.18.039-.361.039-.528-.039-1.93-1.313-3.14-3.218-3.14-1.943 0-3.243 1.351-3.243 3.385 0 2.02 1.3 3.359 3.372 3.359zm-1.866-4.093c.103-.939.862-1.531 1.75-1.531.965 0 1.647.553 1.763 1.531h-3.513zm5.095 4.015H83l1.737-2.393 1.725 2.393h1.622l-2.484-3.371 2.342-3.218h-1.531l-1.61 2.227-1.57-2.227h-1.62l2.328 3.218-2.47 3.371zm7.857-1.788c0 1.196.54 1.788 1.801 1.788h1.287v-1.222h-.978c-.527 0-.708-.193-.708-.708v-3.436h1.61v-1.223h-1.61v-1.84h-1.402v1.84H88.18v1.223h1.146v3.578zm6.962 1.866c1.634 0 2.74-.991 2.972-2.291h-1.39c-.193.733-.81 1.158-1.66 1.158-1.094 0-1.801-.733-1.84-1.853v-.09h4.968c.025-.18.038-.361.038-.528-.038-1.93-1.312-3.14-3.217-3.14-1.943 0-3.243 1.351-3.243 3.385 0 2.02 1.3 3.359 3.372 3.359zm-1.867-4.093c.103-.939.863-1.531 1.75-1.531.966 0 1.648.553 1.764 1.531H94.42zm9.554-2.651c-1.068 0-1.699.425-2.111.939l-.154-.862h-1.21v6.589h1.39v-3.32c0-1.338.656-2.149 1.763-2.149 1.043 0 1.57.669 1.57 1.917v3.552h1.403v-3.667c0-2.201-1.197-2.999-2.651-2.999zm8.871.991c-.425-.579-1.132-.991-2.136-.991-1.789 0-3.115 1.338-3.115 3.372 0 2.11 1.326 3.372 3.115 3.372 1.042 0 1.724-.489 2.149-1.069l.167.991h1.21v-9.008h-1.39v3.333zm-1.905 4.581c-1.158 0-1.917-.9-1.917-2.2 0-1.287.759-2.188 1.917-2.188 1.159 0 1.918.901 1.918 2.214 0 1.274-.759 2.174-1.918 2.174zm7.781 1.172c1.634 0 2.741-.991 2.972-2.291h-1.389c-.193.733-.811 1.158-1.661 1.158-1.094 0-1.801-.733-1.84-1.853v-.09h4.968c.025-.18.038-.361.038-.528-.038-1.93-1.312-3.14-3.217-3.14-1.943 0-3.243 1.351-3.243 3.385 0 2.02 1.3 3.359 3.372 3.359zm-1.867-4.093c.103-.939.863-1.531 1.751-1.531.965 0 1.647.553 1.763 1.531h-3.514zm11.085-1.66c-.424-.579-1.132-.991-2.136-.991-1.789 0-3.115 1.338-3.115 3.372 0 2.11 1.326 3.372 3.115 3.372 1.042 0 1.724-.489 2.149-1.069l.167.991h1.21v-9.008h-1.39v3.333zm-1.904 4.581c-1.159 0-1.918-.9-1.918-2.2 0-1.287.759-2.188 1.918-2.188 1.158 0 1.917.901 1.917 2.214 0 1.274-.759 2.174-1.917 2.174zM2.342 132.446c0 1.196.54 1.788 1.802 1.788H5.43v-1.222h-.978c-.528 0-.708-.193-.708-.708v-3.436h1.609v-1.223h-1.61v-1.84H2.343v1.84H1.197v1.223h1.145v3.578zm7.306-4.801c-1.08 0-1.609.438-1.943.991l-.155-.991H6.315v6.589h1.39v-3.307c0-1.017.399-1.982 1.634-1.982h.618v-1.3h-.309zm6.988 5.38c-.283 0-.424-.09-.424-.425v-2.638c0-1.558-1.004-2.394-2.755-2.394-1.66 0-2.767.798-2.908 2.085h1.364c.103-.579.656-.965 1.48-.965.914 0 1.441.45 1.441 1.184v.399h-1.66c-1.84 0-2.818.759-2.818 2.11 0 1.223 1.004 1.931 2.445 1.931 1.068 0 1.737-.464 2.175-1.133 0 .656.309 1.055 1.21 1.055h.733v-1.209h-.283zm-1.802-1.493c-.012 1.016-.682 1.699-1.84 1.699-.76 0-1.223-.387-1.223-.94 0-.669.477-.991 1.339-.991h1.724v.232zm7.799-2.973c-.425-.579-1.133-.991-2.137-.991-1.789 0-3.114 1.338-3.114 3.372 0 2.11 1.325 3.372 3.114 3.372 1.043 0 1.725-.489 2.15-1.069l.167.991h1.21v-9.008h-1.39v3.333zm-1.905 4.581c-1.159 0-1.918-.9-1.918-2.2 0-1.287.76-2.188 1.918-2.188s1.917.901 1.917 2.214c0 1.274-.759 2.174-1.917 2.174zm5.36-6.422c.477 0 .85-.347.85-.836s-.373-.837-.85-.837c-.476 0-.849.348-.849.837s.373.836.85.836zm-.707 7.516h1.39v-6.589h-1.39v6.589zm6.227-6.666c-1.068 0-1.699.425-2.11.939l-.155-.862h-1.21v6.589h1.39v-3.32c0-1.338.656-2.149 1.763-2.149 1.043 0 1.57.669 1.57 1.917v3.552h1.403v-3.667c0-2.201-1.197-2.999-2.651-2.999zm8.947 1.107c-.425-.657-1.132-1.107-2.162-1.107-1.789 0-3.114 1.325-3.114 3.346 0 2.098 1.325 3.346 3.114 3.346 1.03 0 1.712-.425 2.15-1.081v.734c0 1.261-.683 1.84-1.893 1.84-.978 0-1.621-.425-1.788-1.158h-1.416c.129 1.48 1.351 2.291 3.102 2.291 2.367 0 3.371-1.133 3.371-2.922v-6.319h-1.21l-.154 1.03zm-1.93 4.414c-1.159 0-1.918-.888-1.918-2.175 0-1.274.76-2.175 1.918-2.175s1.917.901 1.917 2.201c0 1.261-.759 2.149-1.917 2.149zm11.407-5.521c-1.03 0-1.66.463-2.072 1.029v-3.371h-1.39v9.008h1.39v-3.333c0-1.325.67-2.136 1.764-2.136 1.03 0 1.583.669 1.583 1.917v3.552h1.39v-3.667c0-2.201-1.198-2.999-2.665-2.999zm6.993 6.744c2.007 0 3.359-1.352 3.359-3.372 0-2.008-1.352-3.372-3.36-3.372-2.007 0-3.358 1.364-3.358 3.372 0 2.02 1.351 3.372 3.359 3.372zm0-1.184c-1.172 0-1.93-.914-1.93-2.188s.758-2.188 1.93-2.188c1.17 0 1.943.914 1.943 2.188s-.772 2.188-1.943 2.188zm8.994-2.188c0 1.364-.644 2.162-1.7 2.162-1.016 0-1.53-.656-1.53-1.943v-3.514h-1.39v3.668c0 2.252 1.196 2.999 2.599 2.999 1.017 0 1.622-.412 2.033-.914l.155.836h1.222v-6.589h-1.39v3.295zm6.092-3.295c-1.08 0-1.608.438-1.943.991l-.154-.991h-1.236v6.589h1.39v-3.307c0-1.017.4-1.982 1.635-1.982h.617v-1.3h-.309zm.77 4.414c.039 1.429 1.249 2.253 3.012 2.253 1.596 0 2.793-.798 2.793-2.06 0-1.467-1.223-1.776-2.729-1.956-.952-.103-1.583-.18-1.583-.798 0-.527.54-.862 1.364-.862.824 0 1.39.425 1.468 1.03h1.364c-.09-1.352-1.236-2.098-2.857-2.098-1.583-.013-2.703.798-2.703 2.046 0 1.364 1.184 1.686 2.69 1.866 1.016.129 1.621.18 1.621.888 0 .528-.566.863-1.428.863-1.004 0-1.596-.489-1.647-1.172H72.88zm6.895 1.751c0 .296.206.489.489.489.283 0 .489-.193.489-.489s-.206-.476-.49-.476c-.282 0-.488.18-.488.476zM6.979 15.095c1.748 0 2.882-.788 3.417-1.575l.158 1.48h1.401V8.969H7.168v1.527h3.055v.268c-.095 1.78-1.465 2.74-3.165 2.74-2.11 0-3.433-1.653-3.433-4.016 0-2.362 1.354-4.015 3.448-4.015 1.528 0 2.583.85 2.914 2.252h1.874c-.331-2.331-2.19-3.843-4.74-3.843-3.276 0-5.355 2.252-5.355 5.606 0 3.355 2.126 5.607 5.213 5.607zm10.646 0c2 0 3.354-1.213 3.638-2.804h-1.701c-.236.898-.992 1.418-2.031 1.418-1.339 0-2.205-.898-2.252-2.268v-.11h6.078a4.62 4.62 0 00.047-.646c-.047-2.362-1.606-3.842-3.936-3.842-2.378 0-3.969 1.653-3.969 4.141 0 2.473 1.59 4.11 4.126 4.11zm-2.283-5.008c.126-1.15 1.055-1.874 2.141-1.874 1.181 0 2.016.677 2.158 1.874h-4.3zM23.3 12.81c0 1.465.661 2.189 2.204 2.189h1.575v-1.496h-1.197c-.645 0-.866-.236-.866-.866V8.433h1.969V6.937h-1.969V4.685h-1.716v2.252h-1.402v1.496h1.402v4.378zm12.59 2.284c2.064 0 3.434-1.15 3.749-2.977h-1.795c-.205.93-.898 1.528-1.937 1.528-1.37 0-2.268-1.087-2.268-2.662 0-1.59.898-2.693 2.268-2.693 1.055 0 1.732.583 1.952 1.528h1.78c-.33-1.827-1.622-2.976-3.7-2.976-2.442 0-4.048 1.653-4.048 4.141 0 2.52 1.559 4.11 4 4.11zm5.05-.095h1.701V3.977h-1.7V15zm10.738-1.48c-.346 0-.52-.11-.52-.52V9.772c0-1.906-1.227-2.93-3.37-2.93-2.03 0-3.385.977-3.558 2.552h1.67c.125-.709.802-1.181 1.81-1.181 1.118 0 1.764.55 1.764 1.449v.488h-2.032c-2.252 0-3.448.929-3.448 2.582 0 1.496 1.228 2.363 2.992 2.363 1.307 0 2.126-.567 2.661-1.386 0 .803.378 1.291 1.48 1.291h.898v-1.48h-.347zm-2.204-1.827c-.016 1.244-.835 2.079-2.252 2.079-.93 0-1.496-.473-1.496-1.15 0-.819.583-1.213 1.638-1.213h2.11v.284zm7.556-4.756c-1.323 0-1.968.536-2.378 1.213l-.189-1.213h-1.512V15h1.701v-4.047c0-1.244.488-2.425 2-2.425h.756v-1.59h-.378zm2.293-1.134c.583 0 1.04-.425 1.04-1.023 0-.599-.457-1.024-1.04-1.024s-1.04.425-1.04 1.024c0 .598.457 1.023 1.04 1.023zM58.458 15h1.7V6.937h-1.7V15zm3.95-2.189c0 1.465.662 2.189 2.205 2.189h1.575v-1.496H64.99c-.646 0-.866-.236-.866-.866V8.433h1.968V6.937h-1.968V4.685h-1.717v2.252h-1.401v1.496h1.401v4.378zm7.192 2.236l-.314.788c-.252.661-.41.819-1.071.819h-1.197v1.495h1.827c1.18 0 1.527-.582 2.031-1.89l3.653-9.322h-1.81l-2.19 6.126-2.251-6.126h-1.811l3.133 8.11zM81.278 15h1.843l1.763-5.48L86.584 15h1.827l2.677-8.063h-1.732L87.45 13.11l-1.764-6.173h-1.559l-1.842 6.173-1.843-6.173h-1.795L81.277 15zM96.22 6.843c-1.26 0-2.031.567-2.535 1.26V3.977h-1.7V15h1.7v-4.079c0-1.622.819-2.614 2.157-2.614 1.26 0 1.937.82 1.937 2.347V15h1.701v-4.488c0-2.693-1.464-3.67-3.26-3.67zm8.572 8.252c2 0 3.354-1.213 3.638-2.804h-1.701c-.236.898-.992 1.418-2.031 1.418-1.339 0-2.205-.898-2.252-2.268v-.11h6.078a4.55 4.55 0 00.048-.646c-.048-2.362-1.607-3.842-3.937-3.842-2.378 0-3.969 1.653-3.969 4.141 0 2.473 1.591 4.11 4.126 4.11zm-2.283-5.008c.126-1.15 1.055-1.874 2.141-1.874 1.181 0 2.016.677 2.158 1.874h-4.299zm11.689-3.244c-1.307 0-2.078.52-2.582 1.15l-.189-1.056h-1.481V15h1.701v-4.063c0-1.638.803-2.63 2.158-2.63 1.275 0 1.921.82 1.921 2.347V15h1.716v-4.488c0-2.693-1.464-3.67-3.244-3.67z" fill="#000"/><path d="M2.858 47.147c0 2.943 1.33 4.4 4.431 4.4h3.165v-3.008H8.05c-1.298 0-1.741-.475-1.741-1.74v-8.452h3.956V35.34H6.308v-4.526h-3.45v4.526H.04v3.007h2.817v8.8zM20.826 35.34c-2.658 0-3.956 1.076-4.779 2.437l-.38-2.438H12.63v16.206h3.418v-8.134c0-2.5.981-4.875 4.02-4.875h1.52V35.34h-.76zm17.187 13.23c-.697 0-1.045-.222-1.045-1.045v-6.488c0-3.83-2.469-5.887-6.773-5.887-4.083 0-6.805 1.962-7.153 5.127h3.355c.253-1.424 1.614-2.374 3.64-2.374 2.247 0 3.545 1.108 3.545 2.912v.981h-4.083c-4.527 0-6.932 1.868-6.932 5.191 0 3.007 2.469 4.748 6.014 4.748 2.627 0 4.273-1.14 5.349-2.785 0 1.614.76 2.595 2.975 2.595h1.804v-2.975h-.696zm-4.431-3.672c-.032 2.5-1.678 4.178-4.527 4.178-1.867 0-3.006-.95-3.006-2.31 0-1.646 1.17-2.438 3.291-2.438h4.242v.57zm19.178-7.311c-1.044-1.425-2.785-2.438-5.254-2.438-4.4 0-7.66 3.292-7.66 8.293 0 5.191 3.26 8.293 7.66 8.293 2.564 0 4.241-1.203 5.286-2.627l.411 2.437h2.975V29.39H52.76v8.198zm-4.684 11.268c-2.849 0-4.717-2.216-4.717-5.413 0-3.165 1.868-5.38 4.717-5.38 2.848 0 4.716 2.215 4.716 5.444 0 3.133-1.868 5.349-4.716 5.349zM61.26 33.062c1.17 0 2.089-.855 2.089-2.058 0-1.203-.918-2.057-2.09-2.057-1.17 0-2.088.854-2.088 2.057 0 1.203.918 2.058 2.089 2.058zm-1.741 18.484h3.418V35.34H59.52v16.206zm15.315-16.395c-2.627 0-4.178 1.044-5.19 2.31l-.38-2.12h-2.976v16.205h3.419V43.38c0-3.292 1.614-5.286 4.336-5.286 2.564 0 3.861 1.646 3.861 4.716v8.736h3.45v-9.02c0-5.413-2.943-7.376-6.52-7.376zm22.005 2.722c-1.045-1.615-2.785-2.722-5.317-2.722-4.4 0-7.66 3.26-7.66 8.229 0 5.16 3.26 8.23 7.66 8.23 2.532 0 4.21-1.045 5.285-2.66v1.805c0 3.102-1.677 4.526-4.653 4.526-2.405 0-3.988-1.044-4.4-2.849h-3.48c.316 3.64 3.323 5.634 7.627 5.634 5.824 0 8.293-2.785 8.293-7.185v-15.54h-2.975l-.38 2.532zM92.09 48.729c-2.848 0-4.716-2.184-4.716-5.349 0-3.134 1.868-5.35 4.716-5.35 2.849 0 4.716 2.216 4.716 5.413 0 3.102-1.867 5.286-4.716 5.286zM.642 60.62H7.48v18.927h3.64V60.618h6.837V57.39H.642v3.228zm24.47 19.117c4.019 0 6.74-2.437 7.31-5.634h-3.418c-.475 1.804-1.994 2.849-4.083 2.849-2.69 0-4.431-1.804-4.526-4.558v-.222h12.218c.063-.443.095-.886.095-1.297-.095-4.748-3.229-7.723-7.913-7.723-4.78 0-7.977 3.323-7.977 8.324 0 4.97 3.197 8.261 8.293 8.261zm-4.59-10.065c.253-2.31 2.12-3.767 4.304-3.767 2.374 0 4.052 1.361 4.337 3.767h-8.641zm14.16 4.526c.095 3.513 3.07 5.539 7.407 5.539 3.924 0 6.868-1.962 6.868-5.064 0-3.608-3.007-4.368-6.71-4.811-2.342-.254-3.893-.443-3.893-1.963 0-1.297 1.329-2.12 3.355-2.12 2.025 0 3.418 1.044 3.608 2.532h3.355c-.221-3.324-3.038-5.16-7.027-5.16C37.752 63.12 35 65.114 35 68.183c0 3.355 2.911 4.146 6.615 4.59 2.5.316 3.988.443 3.988 2.184 0 1.297-1.393 2.12-3.513 2.12-2.47 0-3.925-1.203-4.052-2.88h-3.355zm16.924 5.35h3.418V57.39h-3.418v22.156zm21.582-2.976c-.696 0-1.044-.222-1.044-1.045v-6.488c0-3.83-2.47-5.887-6.774-5.887-4.083 0-6.805 1.962-7.153 5.127h3.355c.253-1.424 1.614-2.374 3.64-2.374 2.247 0 3.545 1.108 3.545 2.912v.981h-4.083c-4.526 0-6.932 1.868-6.932 5.191 0 3.007 2.47 4.748 6.014 4.748 2.627 0 4.273-1.14 5.35-2.785 0 1.614.759 2.595 2.974 2.595h1.805v-2.975h-.697zm-4.431-3.672c-.032 2.5-1.678 4.178-4.526 4.178-1.868 0-3.007-.95-3.007-2.31 0-1.646 1.171-2.438 3.292-2.438h4.241v.57zm6.673 4.685c0 1.266.918 2.152 2.184 2.152s2.216-.886 2.216-2.152-.95-2.153-2.216-2.153c-1.266 0-2.184.887-2.184 2.153z" fill="url(#paint0_linear_1_278)"/><defs><linearGradient id="paint0_linear_1_278" x1="107" y1="55.811" x2=".009" y2="55.811" gradientUnits="userSpaceOnUse"><stop stop-color="#FF4343"/><stop offset=".5" stop-color="#9C0B93"/><stop offset="1" stop-color="#4C1BB7"/></linearGradient></defs></svg>