<svg width="142" height="21" viewBox="0 0 142 21" fill="none" xmlns="http://www.w3.org/2000/svg"><path d="M4.895 14.303v-.826H1.601V7.074H.702v7.229h4.193zm2.931.062c1.539 0 2.613-1.095 2.613-2.695 0-1.601-1.074-2.696-2.613-2.696S5.213 10.07 5.213 11.67c0 1.6 1.074 2.695 2.613 2.695zm0-.754c-1.043 0-1.745-.816-1.745-1.941 0-1.126.702-1.942 1.745-1.942 1.043 0 1.745.816 1.745 1.942 0 1.125-.702 1.941-1.745 1.941zm3.347-1.043c.02 1.157.96 1.797 2.323 1.797 1.167 0 2.107-.61 2.107-1.59 0-1.167-.96-1.395-2.158-1.54-.764-.092-1.322-.164-1.322-.743 0-.485.496-.795 1.229-.795.723 0 1.218.403 1.28.94h.868c-.083-1.095-.95-1.653-2.148-1.663-1.188-.01-2.066.62-2.066 1.58 0 1.095.94 1.332 2.117 1.477.785.093 1.364.145 1.364.806 0 .485-.527.805-1.27.805-.878 0-1.426-.454-1.457-1.074h-.867zm5.053 0c.02 1.157.96 1.797 2.323 1.797 1.167 0 2.107-.61 2.107-1.59 0-1.167-.96-1.395-2.159-1.54-.764-.092-1.321-.164-1.321-.743 0-.485.495-.795 1.229-.795.723 0 1.218.403 1.28.94h.868c-.083-1.095-.95-1.653-2.148-1.663-1.188-.01-2.066.62-2.066 1.58 0 1.095.94 1.332 2.117 1.477.785.093 1.363.145 1.363.806 0 .485-.526.805-1.27.805-.878 0-1.425-.454-1.456-1.074h-.867zm7.797 1.797c1.218 0 2.086-.774 2.293-1.828h-.858c-.175.682-.754 1.074-1.497 1.074-1.002 0-1.632-.702-1.663-1.704v-.072h4.09c.01-.124.02-.248.02-.362-.04-1.56-1.012-2.499-2.499-2.499S21.41 10.07 21.41 11.67c0 1.61 1.033 2.695 2.613 2.695zm-1.673-3.232c.082-.858.795-1.415 1.57-1.415.877 0 1.497.506 1.58 1.415h-3.15zm4.788 1.435c.02 1.157.96 1.797 2.323 1.797 1.167 0 2.107-.61 2.107-1.59 0-1.167-.96-1.395-2.158-1.54-.765-.092-1.322-.164-1.322-.743 0-.485.496-.795 1.229-.795.723 0 1.218.403 1.28.94h.868c-.083-1.095-.95-1.653-2.148-1.663-1.188-.01-2.066.62-2.066 1.58 0 1.095.94 1.332 2.117 1.477.785.093 1.364.145 1.364.806 0 .485-.527.805-1.27.805-.878 0-1.426-.454-1.457-1.074h-.867zm10.438 1.797c1.28 0 2.138-.723 2.344-1.859h-.898c-.166.671-.682 1.105-1.436 1.105-1.012 0-1.693-.785-1.693-1.931s.681-1.952 1.693-1.952c.775 0 1.291.424 1.446 1.126h.888c-.217-1.157-1.032-1.88-2.323-1.88-1.529 0-2.572 1.095-2.572 2.706 0 1.642 1.012 2.685 2.55 2.685zm7.93-.837c-.237 0-.34-.072-.34-.35v-2.304c0-1.229-.775-1.9-2.118-1.9-1.27 0-2.106.61-2.23 1.642h.846c.104-.537.6-.888 1.343-.888.826 0 1.312.413 1.312 1.095v.361h-1.55c-1.383 0-2.117.589-2.117 1.642 0 .96.785 1.539 1.942 1.539.909 0 1.435-.403 1.766-.878.01.517.248.816.95.816h.465v-.775h-.269zm-1.187-1.373c0 .878-.61 1.487-1.663 1.487-.702 0-1.146-.351-1.146-.867 0-.6.423-.878 1.177-.878h1.632v.258zm4.689-3.18c-.889 0-1.426.37-1.735.774l-.114-.713h-.733v5.267h.847V11.67c0-1.188.599-1.921 1.59-1.921.92 0 1.425.578 1.425 1.673v2.881h.847V11.37c0-1.745-.94-2.396-2.127-2.396zm8.336 5.39c1.22 0 2.087-.774 2.293-1.828h-.857c-.176.682-.754 1.074-1.498 1.074-1.001 0-1.631-.702-1.662-1.704v-.072h4.09c.01-.124.02-.248.02-.362-.041-1.56-1.012-2.499-2.5-2.499-1.486 0-2.498 1.095-2.498 2.696 0 1.61 1.032 2.695 2.612 2.695zm-1.673-3.232c.083-.858.796-1.415 1.57-1.415.878 0 1.498.506 1.58 1.415h-3.15zm4.246 3.17h.96l1.539-2.117 1.539 2.117h1.012l-2.014-2.706 1.88-2.56h-.96l-1.416 1.951-1.394-1.952h-1.012l1.87 2.561-2.004 2.706zm7.794.062c1.28 0 2.137-.723 2.344-1.859h-.899c-.165.671-.681 1.105-1.435 1.105-1.012 0-1.694-.785-1.694-1.931s.682-1.952 1.694-1.952c.775 0 1.29.424 1.446 1.126h.888c-.217-1.157-1.033-1.88-2.324-1.88-1.528 0-2.571 1.095-2.571 2.706 0 1.642 1.012 2.685 2.55 2.685zm5.7 0c1.218 0 2.085-.774 2.292-1.828h-.857c-.176.682-.754 1.074-1.498 1.074-1.001 0-1.632-.702-1.662-1.704v-.072h4.09c.01-.124.02-.248.02-.362-.042-1.56-1.012-2.499-2.5-2.499-1.487 0-2.499 1.095-2.499 2.696 0 1.61 1.033 2.695 2.613 2.695zm-1.674-3.232c.083-.858.795-1.415 1.57-1.415.878 0 1.497.506 1.58 1.415h-3.15zm7.452 3.232c1.219 0 2.086-.774 2.293-1.828h-.858c-.175.682-.753 1.074-1.497 1.074-1.002 0-1.632-.702-1.663-1.704v-.072h4.09c.01-.124.02-.248.02-.362-.04-1.56-1.011-2.499-2.499-2.499-1.487 0-2.499 1.095-2.499 2.696 0 1.61 1.033 2.695 2.613 2.695zm-1.673-3.232c.083-.858.795-1.415 1.57-1.415.878 0 1.497.506 1.58 1.415h-3.15zm9.176-1.291c-.32-.506-.919-.868-1.807-.868-1.456 0-2.53 1.085-2.53 2.696 0 1.714 1.074 2.695 2.53 2.695.888 0 1.456-.423 1.807-.909l.114.847h.733v-7.23h-.847v2.769zm-1.724 3.77c-1.043 0-1.745-.796-1.745-1.942 0-1.147.702-1.942 1.745-1.942 1.033 0 1.735.806 1.735 1.962 0 1.126-.702 1.921-1.735 1.921zm10.58-3.77c-.32-.506-.92-.868-1.808-.868-1.456 0-2.53 1.085-2.53 2.696 0 1.714 1.074 2.695 2.53 2.695.888 0 1.456-.423 1.807-.909l.114.847h.733v-7.23h-.847v2.769zm-1.725 3.77c-1.043 0-1.746-.796-1.746-1.942 0-1.147.703-1.942 1.746-1.942 1.032 0 1.735.806 1.735 1.962 0 1.126-.703 1.921-1.735 1.921zm6.152.753c1.218 0 2.086-.774 2.292-1.828h-.857c-.175.682-.754 1.074-1.497 1.074-1.002 0-1.632-.702-1.663-1.704v-.072h4.09c.01-.124.02-.248.02-.362-.041-1.56-1.012-2.499-2.499-2.499s-2.5 1.095-2.5 2.696c0 1.61 1.034 2.695 2.614 2.695zm-1.673-3.232c.082-.858.795-1.415 1.57-1.415.877 0 1.497.506 1.579 1.415h-3.15zm7.679-2.159c-.888 0-1.456.424-1.808.909l-.113-.847h-.733v7.333h.846v-2.871c.321.506.92.867 1.808.867 1.456 0 2.53-1.084 2.53-2.695 0-1.715-1.074-2.696-2.53-2.696zm-.083 4.637c-1.033 0-1.735-.805-1.735-1.962 0-1.126.702-1.92 1.735-1.92 1.043 0 1.745.794 1.745 1.94 0 1.147-.702 1.942-1.745 1.942zm6.008.754c1.538 0 2.612-1.095 2.612-2.695 0-1.601-1.074-2.696-2.612-2.696-1.539 0-2.613 1.095-2.613 2.696 0 1.6 1.074 2.695 2.613 2.695zm0-.754c-1.044 0-1.746-.816-1.746-1.941 0-1.126.702-1.942 1.746-1.942 1.043 0 1.745.816 1.745 1.942 0 1.125-.702 1.941-1.745 1.941zm3.346-1.043c.021 1.157.961 1.797 2.324 1.797 1.167 0 2.107-.61 2.107-1.59 0-1.167-.961-1.395-2.159-1.54-.764-.092-1.322-.164-1.322-.743 0-.485.496-.795 1.229-.795.723 0 1.219.403 1.281.94h.867c-.082-1.095-.95-1.653-2.148-1.663-1.187-.01-2.065.62-2.065 1.58 0 1.095.94 1.332 2.117 1.477.785.093 1.363.145 1.363.806 0 .485-.526.805-1.27.805-.878 0-1.425-.454-1.456-1.074h-.868zm5.805-4.42a.532.532 0 00.547-.547.532.532 0 00-.547-.548.532.532 0 00-.548.548c0 .32.238.547.548.547zm-.434 6.155h.847V9.036h-.847v5.267zm2.399-1.373c0 .929.362 1.373 1.374 1.373h.919v-.775h-.837c-.454 0-.609-.165-.609-.609V9.811h1.363v-.775h-1.363V7.56h-.847v1.477h-.95v.775h.95v3.119zm2.81-.362c.02 1.157.96 1.797 2.323 1.797 1.167 0 2.107-.61 2.107-1.59 0-1.167-.96-1.395-2.158-1.54-.764-.092-1.322-.164-1.322-.743 0-.485.496-.795 1.229-.795.723 0 1.218.403 1.28.94h.868c-.083-1.095-.95-1.653-2.148-1.663-1.188-.01-2.066.62-2.066 1.58 0 1.095.94 1.332 2.117 1.477.785.093 1.364.145 1.364.806 0 .485-.527.805-1.271.805-.877 0-1.425-.454-1.456-1.074h-.867zm5.186 1.219c0 .35.248.578.589.578.341 0 .589-.227.589-.578 0-.352-.248-.579-.589-.579-.341 0-.589.227-.589.579z" fill="#000"/></svg>