<svg width="416" height="18" viewBox="0 0 416 18" fill="none" xmlns="http://www.w3.org/2000/svg"><path d="M.482 9.915c.133 2.508 1.957 4.199 4.94 4.199 2.793 0 4.636-1.52 4.636-3.762 0-2.527-2.242-3.173-4.446-3.553-2.033-.342-3.8-.684-3.8-2.584 0-1.73 1.35-2.698 3.44-2.698 1.994 0 3.362 1.12 3.59 2.85h1.045C9.697 2.087 7.968.586 5.251.586 2.553.586.786 2.01.786 4.272c0 2.527 2.166 3.097 4.294 3.458 2.09.36 3.952.779 3.952 2.717 0 1.71-1.444 2.736-3.59 2.736-2.243 0-3.763-1.292-3.896-3.268H.482zm15.859 4.199c2.109 0 3.724-1.368 4.142-3.306h-.988c-.38 1.5-1.653 2.432-3.23 2.432-2.147 0-3.496-1.634-3.534-3.876v-.171h7.866c0-.133.019-.285.019-.4-.095-2.868-1.862-4.54-4.446-4.54-2.641 0-4.446 2.014-4.446 4.864 0 3.02 1.881 4.997 4.617 4.997zm-3.534-5.738c.152-1.957 1.615-3.268 3.382-3.268 1.881 0 3.23 1.159 3.382 3.268h-6.764zm10.218-6.042a.67.67 0 00.684-.684.67.67 0 00-.684-.684.67.67 0 00-.684.684.67.67 0 00.684.684zM22.531 14h.97V4.367h-.97V14zm2.791-8.74h6.194l-6.46 7.98V14h8.018v-.893H26.33l6.48-8v-.74h-7.487v.893zm12.988 8.854c2.109 0 3.724-1.368 4.142-3.306h-.988c-.38 1.5-1.653 2.432-3.23 2.432-2.147 0-3.496-1.634-3.534-3.876v-.171h7.866c0-.133.019-.285.019-.4-.095-2.868-1.862-4.54-4.446-4.54-2.641 0-4.446 2.014-4.446 4.864 0 3.02 1.88 4.997 4.617 4.997zm-3.534-5.738c.152-1.957 1.615-3.268 3.382-3.268 1.88 0 3.23 1.159 3.382 3.268h-6.764zm19.101 5.738c2.717 0 4.636-2.014 4.636-4.94 0-2.907-1.919-4.921-4.636-4.921s-4.617 2.014-4.617 4.92c0 2.927 1.9 4.94 4.617 4.94zm0-.874c-2.147 0-3.629-1.672-3.629-4.066 0-2.375 1.482-4.066 3.63-4.066 2.146 0 3.628 1.69 3.628 4.066 0 2.394-1.482 4.066-3.629 4.066zm11.008-8.987c-1.768 0-2.908.912-3.459 2.166l-.151-2.052h-.837V14h.97V9.25c0-2.508 1.273-4.104 3.325-4.104 1.861 0 2.983 1.216 2.983 3.496V14h.969V8.604c0-3.04-1.615-4.351-3.8-4.351zm15.321 9.86c2.11 0 3.724-1.367 4.142-3.305h-.988c-.38 1.5-1.653 2.432-3.23 2.432-2.147 0-3.496-1.634-3.534-3.876v-.171h7.866c0-.133.02-.285.02-.4-.096-2.868-1.863-4.54-4.447-4.54-2.64 0-4.446 2.014-4.446 4.864 0 3.02 1.881 4.997 4.617 4.997zm-3.534-5.737c.152-1.957 1.615-3.268 3.382-3.268 1.881 0 3.23 1.159 3.382 3.268h-6.764zm18.199 4.73c-.57 0-.855-.19-.855-.93V7.692c0-2.204-1.35-3.44-3.763-3.44-2.204 0-3.666 1.065-3.913 2.813h.968c.247-1.178 1.273-1.957 2.907-1.957 1.805 0 2.831.95 2.831 2.546v.836h-3.268c-2.47 0-3.8 1.064-3.8 2.869 0 1.71 1.35 2.755 3.401 2.755 1.957 0 3.117-.893 3.706-2.09v.342c-.038 1.14.437 1.634 1.577 1.634h.57v-.893h-.361zm-1.825-3.001c0 1.843-1.31 3.173-3.59 3.173-1.54 0-2.49-.78-2.49-1.976 0-1.273.95-1.976 2.737-1.976h3.343v.779zm7.414-5.738c-1.786 0-2.546.855-2.945 1.919l-.152-1.92h-.836V14h.97V9.117c0-1.957.512-3.82 2.773-3.82h.703v-.93h-.513zm6.395-.114c-1.767 0-2.907.912-3.458 2.166l-.152-2.052h-.836V14h.969V9.25c0-2.508 1.273-4.104 3.325-4.104 1.862 0 2.983 1.216 2.983 3.496V14h.969V8.604c0-3.04-1.615-4.351-3.8-4.351zm6.439-1.92a.67.67 0 00.684-.683.67.67 0 00-.684-.684.67.67 0 00-.684.684.67.67 0 00.684.684zM112.8 14h.969V4.367h-.969V14zm7.693-9.747c-1.767 0-2.907.912-3.458 2.166l-.152-2.052h-.836V14h.969V9.25c0-2.508 1.273-4.104 3.325-4.104 1.862 0 2.983 1.216 2.983 3.496V14h.969V8.604c0-3.04-1.615-4.351-3.8-4.351zm13.792 2.356c-.589-1.425-1.881-2.356-3.667-2.356-2.641 0-4.541 1.995-4.541 4.92 0 3.04 1.9 4.94 4.541 4.94 1.805 0 3.078-.95 3.686-2.45v1.71c0 2.565-1.216 3.667-3.534 3.667-1.805 0-3.059-.817-3.363-2.28H126.4c.304 2.052 1.957 3.154 4.294 3.154 3.116 0 4.579-1.482 4.579-4.503V4.367h-.836l-.152 2.242zm-3.591 6.63c-2.147 0-3.629-1.671-3.629-4.065s1.482-4.066 3.629-4.066c2.147 0 3.629 1.672 3.629 4.085 0 2.375-1.482 4.047-3.629 4.047zm6.421-2.203c.076 1.995 1.691 3.078 4.104 3.078 2.071 0 3.743-1.045 3.743-2.755 0-2.033-1.786-2.432-3.857-2.717-1.501-.21-2.831-.38-2.831-1.73 0-1.101 1.083-1.823 2.717-1.823 1.539 0 2.641.74 2.812 1.995h.988c-.171-1.881-1.71-2.831-3.8-2.831-2.147-.02-3.686 1.083-3.686 2.736 0 1.938 1.786 2.299 3.762 2.565 1.615.228 2.926.437 2.926 1.862 0 1.14-1.197 1.862-2.774 1.862-1.843 0-3.04-.855-3.116-2.242h-.988zm15.311-8.702a.67.67 0 00.684-.684.67.67 0 00-.684-.684.67.67 0 00-.684.684.67.67 0 00.684.684zM151.932 14h.969V4.367h-.969V14zm7.693-9.747c-1.767 0-2.907.912-3.458 2.166l-.152-2.052h-.836V14h.969V9.25c0-2.508 1.273-4.104 3.325-4.104 1.862 0 2.983 1.216 2.983 3.496V14h.969V8.604c0-3.04-1.615-4.351-3.8-4.351zm14.998.114c-1.786 0-2.546.855-2.945 1.919l-.152-1.92h-.836V14h.969V9.117c0-1.957.513-3.82 2.774-3.82h.703v-.93h-.513zm5.519 9.747c2.109 0 3.724-1.368 4.142-3.306h-.988c-.38 1.5-1.653 2.432-3.23 2.432-2.147 0-3.496-1.634-3.534-3.876v-.171h7.866c0-.133.019-.285.019-.4-.095-2.868-1.862-4.54-4.446-4.54-2.641 0-4.446 2.014-4.446 4.864 0 3.02 1.881 4.997 4.617 4.997zm-3.534-5.738c.152-1.957 1.615-3.268 3.382-3.268 1.881 0 3.23 1.159 3.382 3.268h-6.764zm18.198 4.73c-.57 0-.855-.19-.855-.93V7.692c0-2.204-1.349-3.44-3.762-3.44-2.204 0-3.667 1.065-3.914 2.813h.969c.247-1.178 1.273-1.957 2.907-1.957 1.805 0 2.831.95 2.831 2.546v.836h-3.268c-2.47 0-3.8 1.064-3.8 2.869 0 1.71 1.349 2.755 3.401 2.755 1.957 0 3.116-.893 3.705-2.09v.342c-.038 1.14.437 1.634 1.577 1.634h.57v-.893h-.361zm-1.824-3.001c0 1.843-1.311 3.173-3.591 3.173-1.539 0-2.489-.78-2.489-1.976 0-1.273.95-1.976 2.736-1.976h3.344v.779zM196.463 14h.969V.7h-.969V14zm9.09-2.242c0 1.539.627 2.242 2.261 2.242h1.406v-.893h-1.33c-1.007 0-1.368-.38-1.368-1.368v-6.48h2.603v-.892h-2.603V1.669h-.969v2.698h-1.824v.893h1.824v6.498zm5.635-9.424a.67.67 0 00.684-.684.67.67 0 00-.684-.684.67.67 0 00-.684.684.67.67 0 00.684.684zM210.694 14h.969V4.367h-.969V14zm14.001-9.747c-1.767 0-2.907.988-3.458 2.413-.456-1.596-1.653-2.413-3.173-2.413-1.653 0-2.641.969-3.135 2.166l-.152-2.052h-.836V14h.969V9.098c0-2.356 1.14-3.952 2.983-3.952 1.672 0 2.717 1.178 2.717 3.4V14h.969V8.756c.057-2.204 1.197-3.61 3.002-3.61 1.672 0 2.679 1.12 2.679 3.306V14h.988V8.414c0-2.907-1.539-4.161-3.553-4.161zm9.812 9.86c2.109 0 3.724-1.367 4.142-3.305h-.988c-.38 1.5-1.653 2.432-3.23 2.432-2.147 0-3.496-1.634-3.534-3.876v-.171h7.866c0-.133.019-.285.019-.4-.095-2.868-1.862-4.54-4.446-4.54-2.641 0-4.446 2.014-4.446 4.864 0 3.02 1.881 4.997 4.617 4.997zm-3.534-5.737c.152-1.957 1.615-3.268 3.382-3.268 1.881 0 3.23 1.159 3.382 3.268h-6.764zM248.155 14h1.045l2.85-8.094L254.767 14h1.045l3.42-9.633h-.988l-2.964 8.474-2.755-8.474h-.893l-2.907 8.474-2.812-8.474h-1.026L248.155 14zm12.927-11.666a.67.67 0 00.684-.684.67.67 0 00-.684-.684.67.67 0 00-.684.684.67.67 0 00.684.684zM260.588 14h.969V4.367h-.969V14zm3.969-2.242c0 1.539.627 2.242 2.261 2.242h1.406v-.893h-1.33c-1.007 0-1.368-.38-1.368-1.368v-6.48h2.603v-.892h-2.603V1.669h-.969v2.698h-1.824v.893h1.824v6.498zm9.587-7.505c-1.805 0-2.926 1.007-3.477 2.394V.7h-.969V14h.969V9.25c0-2.508 1.273-4.104 3.325-4.104 1.843 0 2.983 1.216 2.983 3.496V14h.969V8.604c0-3.04-1.615-4.351-3.8-4.351zm15.341 9.86c2.109 0 3.724-1.367 4.142-3.305h-.988c-.38 1.5-1.653 2.432-3.23 2.432-2.147 0-3.496-1.634-3.534-3.876v-.171h7.866c0-.133.019-.285.019-.4-.095-2.868-1.862-4.54-4.446-4.54-2.641 0-4.446 2.014-4.446 4.864 0 3.02 1.881 4.997 4.617 4.997zm-3.534-5.737c.152-1.957 1.615-3.268 3.382-3.268 1.881 0 3.23 1.159 3.382 3.268h-6.764zM294.315 14h1.121l3.192-4.237L301.82 14h1.178l-3.743-4.921 3.553-4.712h-1.102l-3.04 3.99-3.002-3.99h-1.159l3.553 4.712-3.743 4.92zm10.784-2.242c0 1.539.627 2.242 2.261 2.242h1.406v-.893h-1.33c-1.007 0-1.368-.38-1.368-1.368v-6.48h2.603v-.892h-2.603V1.669h-.969v2.698h-1.824v.893h1.824v6.498zm9.1 2.356c2.109 0 3.724-1.368 4.142-3.306h-.988c-.38 1.5-1.653 2.432-3.23 2.432-2.147 0-3.496-1.634-3.534-3.876v-.171h7.866c0-.133.019-.285.019-.4-.095-2.868-1.862-4.54-4.446-4.54-2.641 0-4.446 2.014-4.446 4.864 0 3.02 1.881 4.997 4.617 4.997zm-3.534-5.738c.152-1.957 1.615-3.268 3.382-3.268 1.881 0 3.23 1.159 3.382 3.268h-6.764zm14.171-4.123c-1.767 0-2.907.912-3.458 2.166l-.152-2.052h-.836V14h.969V9.25c0-2.508 1.273-4.104 3.325-4.104 1.862 0 2.983 1.216 2.983 3.496V14h.969V8.604c0-3.04-1.615-4.351-3.8-4.351zm13.662 2.28c-.589-1.368-1.881-2.28-3.686-2.28-2.641 0-4.541 2.014-4.541 4.92 0 3.04 1.9 4.94 4.541 4.94 1.805 0 3.059-.968 3.667-2.317l.152 2.204h.836V.7h-.969v5.833zm-3.61 6.707c-2.147 0-3.629-1.672-3.629-4.066 0-2.375 1.482-4.066 3.629-4.066 2.147 0 3.629 1.69 3.629 4.085 0 2.375-1.482 4.047-3.629 4.047zm11.114.874c2.109 0 3.724-1.368 4.142-3.306h-.988c-.38 1.5-1.653 2.432-3.23 2.432-2.147 0-3.496-1.634-3.534-3.876v-.171h7.866c0-.133.019-.285.019-.4-.095-2.868-1.862-4.54-4.446-4.54-2.641 0-4.446 2.014-4.446 4.864 0 3.02 1.881 4.997 4.617 4.997zm-3.534-5.738c.152-1.957 1.615-3.268 3.382-3.268 1.881 0 3.23 1.159 3.382 3.268h-6.764zm17.59-1.843c-.589-1.368-1.881-2.28-3.686-2.28-2.641 0-4.541 2.014-4.541 4.92 0 3.04 1.9 4.94 4.541 4.94 1.805 0 3.059-.968 3.667-2.317l.152 2.204h.836V.7h-.969v5.833zm-3.61 6.707c-2.147 0-3.629-1.672-3.629-4.066 0-2.375 1.482-4.066 3.629-4.066 2.147 0 3.629 1.69 3.629 4.085 0 2.375-1.482 4.047-3.629 4.047zm16.426-8.987c-1.805 0-2.926 1.007-3.477 2.394V.7h-.969V14h.969V9.25c0-2.508 1.273-4.104 3.325-4.104 1.843 0 2.983 1.216 2.983 3.496V14h.969V8.604c0-3.04-1.615-4.351-3.8-4.351zm10.071 9.86c2.717 0 4.636-2.013 4.636-4.94 0-2.906-1.919-4.92-4.636-4.92s-4.617 2.014-4.617 4.92c0 2.927 1.9 4.94 4.617 4.94zm0-.873c-2.147 0-3.629-1.672-3.629-4.066 0-2.375 1.482-4.066 3.629-4.066 2.147 0 3.629 1.69 3.629 4.066 0 2.394-1.482 4.066-3.629 4.066zm13.553-4.142c0 2.527-1.254 4.123-3.249 4.123-1.786 0-2.888-1.216-2.888-3.515v-5.34h-.969v5.397c0 3.02 1.577 4.35 3.705 4.35 1.71 0 2.831-.911 3.382-2.146l.133 2.033h.855V4.367h-.969v4.73zm7.183-4.731c-1.786 0-2.546.855-2.945 1.919l-.152-1.92h-.836V14h.969V9.117c0-1.957.513-3.82 2.774-3.82h.703v-.93h-.513zm1.271 6.669c.076 1.995 1.691 3.078 4.104 3.078 2.071 0 3.743-1.045 3.743-2.755 0-2.033-1.786-2.432-3.857-2.717-1.501-.21-2.831-.38-2.831-1.73 0-1.101 1.083-1.823 2.717-1.823 1.539 0 2.641.74 2.812 1.995h.988c-.171-1.881-1.71-2.831-3.8-2.831-2.147-.02-3.686 1.083-3.686 2.736 0 1.938 1.786 2.299 3.762 2.565 1.615.228 2.926.437 2.926 1.862 0 1.14-1.197 1.862-2.774 1.862-1.843 0-3.04-.855-3.116-2.242h-.988zm9.415 2.337c0 .437.304.722.722.722s.722-.285.722-.722-.304-.703-.722-.703-.722.266-.722.703z" fill="#000"/></svg>