<svg width="448" height="18" viewBox="0 0 448 18" fill="none" xmlns="http://www.w3.org/2000/svg"><path d="M.385 1.482h4.622V14h1.04V1.482h4.622V.519H.385v.963zm14.763 2.754c-1.81 0-2.581.867-2.986 1.945l-.154-1.945h-.847V14h.982V9.05c0-1.983.52-3.87 2.812-3.87h.712v-.944h-.52zm10.15 8.859c-.577 0-.866-.193-.866-.944V7.606c0-2.234-1.368-3.486-3.813-3.486-2.234 0-3.717 1.079-3.968 2.85h.983c.25-1.193 1.29-1.983 2.946-1.983 1.83 0 2.87.963 2.87 2.58v.848h-3.313c-2.503 0-3.852 1.079-3.852 2.908 0 1.733 1.368 2.793 3.448 2.793 1.983 0 3.158-.906 3.755-2.119v.347C23.45 13.499 23.931 14 25.087 14h.577v-.905h-.366zm-1.848-3.043c0 1.868-1.33 3.216-3.64 3.216-1.56 0-2.523-.79-2.523-2.003 0-1.29.963-2.003 2.773-2.003h3.39v.79zm11.35-3.62c-.597-1.387-1.906-2.312-3.736-2.312-2.677 0-4.603 2.042-4.603 4.988 0 3.082 1.926 5.008 4.603 5.008 1.83 0 3.1-.983 3.717-2.35L34.935 14h.848V.519H34.8v5.912zm-3.659 6.798c-2.176 0-3.678-1.695-3.678-4.122 0-2.407 1.502-4.121 3.678-4.121 2.177 0 3.679 1.714 3.679 4.14 0 2.408-1.502 4.103-3.679 4.103zm11.266.886c2.138 0 3.774-1.387 4.198-3.351h-1.001c-.386 1.521-1.676 2.465-3.274 2.465-2.176 0-3.544-1.657-3.582-3.93v-.172h7.973c0-.135.019-.29.019-.405-.096-2.908-1.887-4.603-4.507-4.603-2.676 0-4.506 2.042-4.506 4.93 0 3.063 1.907 5.066 4.68 5.066zm-3.582-5.817c.154-1.983 1.637-3.312 3.428-3.312 1.906 0 3.274 1.175 3.428 3.312h-6.856zm15.779 3.428c0 1.56.635 2.273 2.292 2.273h1.425v-.905h-1.348c-1.021 0-1.387-.385-1.387-1.387V5.141h2.639v-.905h-2.639V1.5h-.982v2.735h-1.849v.905h1.849v6.586zm9.224 2.389c2.138 0 3.775-1.387 4.198-3.351h-1c-.386 1.521-1.676 2.465-3.275 2.465-2.176 0-3.543-1.657-3.582-3.93v-.172h7.973c0-.135.02-.29.02-.405-.097-2.908-1.888-4.603-4.507-4.603-2.677 0-4.507 2.042-4.507 4.93 0 3.063 1.907 5.066 4.68 5.066zm-3.582-5.817c.154-1.983 1.637-3.312 3.428-3.312 1.907 0 3.274 1.175 3.428 3.312h-6.856zm14.113 5.817c2.215 0 3.775-1.271 4.16-3.255h-1.04c-.328 1.444-1.502 2.369-3.12 2.369-2.138 0-3.62-1.676-3.62-4.102 0-2.427 1.463-4.141 3.62-4.141 1.637 0 2.792.924 3.139 2.388h1.02c-.404-2.022-1.925-3.255-4.14-3.255-2.754 0-4.641 2.042-4.641 5.008 0 3.004 1.868 4.988 4.622 4.988zM84.934 4.12c-1.83 0-2.965 1.021-3.524 2.427V.519h-.982V14h.982V9.185c0-2.542 1.29-4.16 3.37-4.16 1.868 0 3.024 1.233 3.024 3.544V14h.982V8.53c0-3.08-1.637-4.41-3.852-4.41zm15.549 9.996c2.138 0 3.775-1.387 4.199-3.351h-1.002c-.385 1.521-1.675 2.465-3.274 2.465-2.176 0-3.543-1.657-3.582-3.93v-.172h7.973c0-.135.02-.29.02-.405-.097-2.908-1.888-4.603-4.507-4.603-2.677 0-4.507 2.042-4.507 4.93 0 3.063 1.907 5.066 4.68 5.066zm-3.582-5.817c.154-1.983 1.637-3.312 3.428-3.312 1.907 0 3.274 1.175 3.428 3.312h-6.856zm18.446 4.796c-.578 0-.866-.193-.866-.944V7.606c0-2.234-1.368-3.486-3.814-3.486-2.234 0-3.717 1.079-3.967 2.85h.982c.251-1.193 1.291-1.983 2.947-1.983 1.829 0 2.869.963 2.869 2.58v.848h-3.312c-2.504 0-3.852 1.079-3.852 2.908 0 1.733 1.368 2.793 3.447 2.793 1.984 0 3.159-.906 3.756-2.119v.347c-.039 1.155.443 1.656 1.598 1.656h.578v-.905h-.366zm-1.849-3.043c0 1.868-1.328 3.216-3.639 3.216-1.56 0-2.523-.79-2.523-2.003 0-1.29.963-2.003 2.773-2.003h3.389v.79zm7.515-5.816c-1.81 0-2.581.867-2.985 1.945l-.154-1.945h-.847V14h.982V9.05c0-1.983.52-3.87 2.812-3.87h.712v-.944h-.52zm6.482-.116c-1.791 0-2.947.925-3.505 2.196l-.154-2.08h-.848V14h.983V9.185c0-2.542 1.29-4.16 3.37-4.16 1.887 0 3.024 1.233 3.024 3.544V14h.982V8.53c0-3.08-1.637-4.41-3.852-4.41zm6.526-1.945a.68.68 0 00.694-.693.68.68 0 00-.694-.693.678.678 0 00-.693.693c0 .404.308.693.693.693zm-.5 11.825h.982V4.236h-.982V14zm7.797-9.88c-1.791 0-2.946.925-3.505 2.196l-.154-2.08h-.847V14h.982V9.185c0-2.542 1.29-4.16 3.37-4.16 1.888 0 3.024 1.233 3.024 3.544V14h.982V8.53c0-3.08-1.637-4.41-3.852-4.41zm13.98 2.388c-.597-1.444-1.907-2.388-3.717-2.388-2.677 0-4.603 2.023-4.603 4.988 0 3.082 1.926 5.008 4.603 5.008 1.829 0 3.12-.963 3.736-2.485v1.733c0 2.6-1.233 3.717-3.582 3.717-1.83 0-3.101-.828-3.409-2.31h-1.021c.308 2.08 1.984 3.196 4.353 3.196 3.158 0 4.641-1.502 4.641-4.564V4.236h-.847l-.154 2.272zm-3.64 6.722c-2.177 0-3.679-1.695-3.679-4.122 0-2.426 1.502-4.121 3.679-4.121 2.176 0 3.678 1.695 3.678 4.14 0 2.408-1.502 4.103-3.678 4.103zm6.508-2.234c.077 2.022 1.714 3.12 4.16 3.12 2.099 0 3.794-1.06 3.794-2.793 0-2.06-1.81-2.465-3.909-2.754-1.522-.212-2.87-.385-2.87-1.752 0-1.117 1.098-1.85 2.754-1.85 1.56 0 2.677.752 2.85 2.023h1.002c-.174-1.907-1.733-2.87-3.852-2.87-2.176-.019-3.736 1.098-3.736 2.774 0 1.964 1.81 2.33 3.813 2.6 1.637.23 2.966.442 2.966 1.887 0 1.155-1.213 1.887-2.812 1.887-1.868 0-3.081-.867-3.158-2.272h-1.002zm15.52-8.82a.678.678 0 00.693-.694.678.678 0 00-.693-.693.679.679 0 00-.694.693c0 .404.308.693.694.693zM173.185 14h.982V4.236h-.982V14zm7.798-9.88c-1.791 0-2.947.925-3.505 2.196l-.154-2.08h-.848V14h.982V9.185c0-2.542 1.291-4.16 3.371-4.16 1.887 0 3.023 1.233 3.023 3.544V14h.982V8.53c0-3.08-1.637-4.41-3.851-4.41zm15.202.116c-1.81 0-2.58.867-2.985 1.945l-.154-1.945h-.847V14h.982V9.05c0-1.983.52-3.87 2.812-3.87h.712v-.944h-.52zm5.594 9.88c2.138 0 3.775-1.387 4.198-3.351h-1.001c-.385 1.521-1.676 2.465-3.274 2.465-2.176 0-3.544-1.657-3.582-3.93v-.172h7.973c0-.135.019-.29.019-.405-.096-2.908-1.887-4.603-4.506-4.603-2.677 0-4.507 2.042-4.507 4.93 0 3.063 1.907 5.066 4.68 5.066zm-3.582-5.817c.154-1.983 1.637-3.312 3.428-3.312 1.906 0 3.274 1.175 3.428 3.312h-6.856zm18.446 4.796c-.578 0-.867-.193-.867-.944V7.606c0-2.234-1.367-3.486-3.813-3.486-2.234 0-3.717 1.079-3.967 2.85h.982c.25-1.193 1.29-1.983 2.946-1.983 1.83 0 2.87.963 2.87 2.58v.848h-3.313c-2.503 0-3.851 1.079-3.851 2.908 0 1.733 1.367 2.793 3.447 2.793 1.984 0 3.158-.906 3.755-2.119v.347c-.038 1.155.443 1.656 1.599 1.656h.578v-.905h-.366zm-1.849-3.043c0 1.868-1.329 3.216-3.64 3.216-1.56 0-2.523-.79-2.523-2.003 0-1.29.963-2.003 2.773-2.003h3.39v.79zM218.322 14h.982V.519h-.982V14zm9.214-2.273c0 1.56.636 2.273 2.292 2.273h1.425v-.905h-1.348c-1.021 0-1.387-.385-1.387-1.387V5.141h2.639v-.905h-2.639V1.5h-.982v2.735h-1.849v.905h1.849v6.586zm5.712-9.552a.678.678 0 00.693-.693.678.678 0 00-.693-.693.678.678 0 00-.693.693c0 .404.308.693.693.693zM232.747 14h.982V4.236h-.982V14zm14.192-9.88c-1.791 0-2.947 1.002-3.505 2.446-.462-1.618-1.676-2.446-3.216-2.446-1.676 0-2.677.983-3.178 2.196l-.154-2.08h-.847V14h.982V9.031c0-2.388 1.155-4.005 3.023-4.005 1.695 0 2.754 1.194 2.754 3.447V14h.982V8.685c.058-2.234 1.214-3.66 3.043-3.66 1.695 0 2.716 1.137 2.716 3.351V14h1.001V8.338c0-2.947-1.56-4.218-3.601-4.218zm9.945 9.996c2.138 0 3.775-1.387 4.198-3.351h-1.001c-.385 1.521-1.676 2.465-3.274 2.465-2.176 0-3.544-1.657-3.582-3.93v-.172h7.973c0-.135.019-.29.019-.405-.096-2.908-1.887-4.603-4.506-4.603-2.677 0-4.507 2.042-4.507 4.93 0 3.063 1.907 5.066 4.68 5.066zm-3.582-5.817c.154-1.983 1.637-3.312 3.428-3.312 1.906 0 3.274 1.175 3.428 3.312h-6.856zM270.718 14h1.059l2.889-8.204L277.42 14h1.059l3.467-9.764h-1.002l-3.004 8.59-2.792-8.59h-.906l-2.946 8.59-2.85-8.59h-1.04L270.718 14zm13.103-11.825a.678.678 0 00.693-.693.678.678 0 00-.693-.693.679.679 0 00-.694.693c0 .404.308.693.694.693zM283.32 14h.982V4.236h-.982V14zm4.023-2.273c0 1.56.635 2.273 2.292 2.273h1.425v-.905h-1.348c-1.021 0-1.387-.385-1.387-1.387V5.141h2.638v-.905h-2.638V1.5h-.982v2.735h-1.849v.905h1.849v6.586zm9.718-7.607c-1.83 0-2.966 1.021-3.525 2.427V.519h-.982V14h.982V9.185c0-2.542 1.291-4.16 3.371-4.16 1.868 0 3.023 1.233 3.023 3.544V14h.982V8.53c0-3.08-1.637-4.41-3.851-4.41zm15.78 9.996c2.446 0 4.102-1.483 4.448-3.428h-2.079c-.289 1.097-1.214 1.733-2.485 1.733-1.637 0-2.696-1.098-2.754-2.773v-.135h7.434c.039-.27.058-.54.058-.79-.058-2.889-1.965-4.699-4.815-4.699-2.908 0-4.853 2.022-4.853 5.065 0 3.024 1.945 5.027 5.046 5.027zm-2.793-6.125c.154-1.406 1.291-2.291 2.619-2.291 1.445 0 2.466.828 2.639 2.291h-5.258zM317.672 14h2.292l2.6-3.582L325.145 14h2.426l-3.717-5.046 3.505-4.814h-2.291L322.66 7.47l-2.349-3.331h-2.427l3.486 4.814L317.672 14zm11.758-2.677c0 1.791.809 2.677 2.696 2.677h1.926v-1.83h-1.464c-.789 0-1.059-.288-1.059-1.059V5.97h2.407V4.14h-2.407V1.387h-2.099V4.14h-1.714v1.83h1.714v5.353zm10.418 2.793c2.446 0 4.102-1.483 4.449-3.428h-2.08c-.289 1.097-1.214 1.733-2.485 1.733-1.637 0-2.696-1.098-2.754-2.773v-.135h7.434c.039-.27.058-.54.058-.79-.058-2.889-1.964-4.699-4.815-4.699-2.908 0-4.853 2.022-4.853 5.065 0 3.024 1.945 5.027 5.046 5.027zm-2.793-6.125c.154-1.406 1.291-2.291 2.62-2.291 1.444 0 2.465.828 2.638 2.291h-5.258zm14.296-3.967c-1.598 0-2.542.636-3.158 1.406l-.231-1.29h-1.811V14h2.08V9.031c0-2.003.983-3.216 2.639-3.216 1.56 0 2.349 1.002 2.349 2.87V14h2.1V8.511c0-3.293-1.792-4.487-3.968-4.487zm13.275 1.483c-.635-.867-1.694-1.483-3.197-1.483-2.676 0-4.66 2.003-4.66 5.046 0 3.158 1.984 5.046 4.66 5.046 1.56 0 2.581-.732 3.217-1.599l.25 1.483h1.81V.519h-2.08v4.988zm-2.85 6.856c-1.733 0-2.869-1.348-2.869-3.293 0-1.926 1.136-3.274 2.869-3.274 1.733 0 2.87 1.348 2.87 3.312 0 1.907-1.137 3.255-2.87 3.255zm11.643 1.753c2.446 0 4.102-1.483 4.448-3.428h-2.079c-.289 1.097-1.214 1.733-2.485 1.733-1.637 0-2.696-1.098-2.754-2.773v-.135h7.434c.039-.27.058-.54.058-.79-.058-2.889-1.965-4.699-4.815-4.699-2.908 0-4.853 2.022-4.853 5.065 0 3.024 1.945 5.027 5.046 5.027zm-2.793-6.125c.154-1.406 1.291-2.291 2.619-2.291 1.445 0 2.465.828 2.639 2.291h-5.258zm16.588-2.484c-.636-.867-1.695-1.483-3.197-1.483-2.677 0-4.661 2.003-4.661 5.046 0 3.158 1.984 5.046 4.661 5.046 1.56 0 2.581-.732 3.216-1.599l.25 1.483h1.811V.519h-2.08v4.988zm-2.85 6.856c-1.734 0-2.87-1.348-2.87-3.293 0-1.926 1.136-3.274 2.87-3.274 1.733 0 2.869 1.348 2.869 3.312 0 1.907-1.136 3.255-2.869 3.255zm17.07-8.339c-1.54 0-2.484.693-3.1 1.54V.52h-2.08V14h2.08V9.012c0-1.984 1.001-3.197 2.638-3.197 1.541 0 2.369 1.002 2.369 2.87V14h2.08V8.511c0-3.293-1.791-4.487-3.987-4.487zm10.464 10.092c3.004 0 5.026-2.023 5.026-5.046 0-3.005-2.022-5.046-5.026-5.046-3.005 0-5.027 2.041-5.027 5.046 0 3.023 2.022 5.046 5.027 5.046zm0-1.772c-1.753 0-2.889-1.368-2.889-3.274 0-1.907 1.136-3.274 2.889-3.274 1.752 0 2.908 1.367 2.908 3.274 0 1.906-1.156 3.274-2.908 3.274zm13.458-3.274c0 2.041-.962 3.235-2.542 3.235-1.521 0-2.291-.982-2.291-2.908V4.14h-2.08v5.488c0 3.37 1.791 4.488 3.89 4.488 1.521 0 2.426-.617 3.043-1.368l.231 1.252h1.829V4.14h-2.08v4.93zm9.118-4.93c-1.618 0-2.407.654-2.908 1.483l-.231-1.483h-1.849V14h2.08V9.05c0-1.52.597-2.965 2.446-2.965h.924V4.14h-.462zm1.152 6.605c.058 2.138 1.868 3.37 4.507 3.37 2.388 0 4.179-1.194 4.179-3.08 0-2.196-1.83-2.659-4.083-2.928-1.425-.154-2.369-.27-2.369-1.194 0-.79.809-1.29 2.042-1.29 1.232 0 2.079.635 2.195 1.54h2.041c-.134-2.022-1.848-3.139-4.275-3.139-2.369-.02-4.044 1.194-4.044 3.062 0 2.042 1.772 2.523 4.025 2.793 1.521.192 2.426.27 2.426 1.329 0 .79-.847 1.29-2.137 1.29-1.503 0-2.388-.732-2.465-1.753h-2.042zm10.317 2.62c0 .442.308.731.732.731.423 0 .731-.289.731-.732s-.308-.712-.731-.712c-.424 0-.732.27-.732.713z" fill="#000"/></svg>