<svg width="294" height="12" viewBox="0 0 294 12" fill="none" xmlns="http://www.w3.org/2000/svg"><path d="M.864 9.5H1.5V2.192L4.644 9.5h.588l3.144-7.308V9.5h.636V1.1h-.816l-3.24 7.524L1.692 1.1H.864v8.4zm15.087-.564c-.36 0-.54-.12-.54-.588V5.516c0-1.392-.852-2.172-2.376-2.172-1.392 0-2.316.672-2.472 1.776h.612c.156-.744.804-1.236 1.836-1.236 1.14 0 1.788.6 1.788 1.608v.528h-2.064c-1.56 0-2.4.672-2.4 1.812 0 1.08.852 1.74 2.148 1.74 1.236 0 1.968-.564 2.34-1.32v.216c-.024.72.276 1.032.996 1.032h.36v-.564h-.228zM14.799 7.04c0 1.164-.828 2.004-2.268 2.004-.972 0-1.572-.492-1.572-1.248 0-.804.6-1.248 1.728-1.248h2.112v.492zm2.57-4.908c.24 0 .432-.18.432-.432a.423.423 0 00-.432-.432c-.24 0-.432.18-.432.432s.192.432.432.432zM15.51 11.9h.744c1.02 0 1.428-.444 1.428-1.416V3.416h-.612v7.08c0 .6-.228.84-.84.84h-.72v.564zm6.297-2.328c1.716 0 2.928-1.272 2.928-3.12 0-1.836-1.212-3.108-2.928-3.108S18.89 4.616 18.89 6.452c0 1.848 1.2 3.12 2.916 3.12zm0-.552c-1.356 0-2.292-1.056-2.292-2.568 0-1.5.936-2.568 2.292-2.568 1.356 0 2.292 1.068 2.292 2.568 0 1.512-.936 2.568-2.292 2.568zm6.628-5.604c-1.128 0-1.608.54-1.86 1.212l-.096-1.212h-.527V9.5h.611V6.416c0-1.236.325-2.412 1.752-2.412h.445v-.588h-.325zm.803 4.212c.048 1.26 1.068 1.944 2.592 1.944 1.308 0 2.364-.66 2.364-1.74 0-1.284-1.128-1.536-2.436-1.716-.948-.132-1.788-.24-1.788-1.092 0-.696.684-1.152 1.716-1.152.972 0 1.668.468 1.776 1.26h.624c-.108-1.188-1.08-1.788-2.4-1.788-1.356-.012-2.328.684-2.328 1.728 0 1.224 1.128 1.452 2.376 1.62 1.02.144 1.848.276 1.848 1.176 0 .72-.756 1.176-1.752 1.176-1.164 0-1.92-.54-1.968-1.416h-.624zm8.662-3.648h1.152V9.5h.612V3.98h1.824v-.564h-1.824v-.912c0-.6.228-.84.84-.84h.996V1.1h-1.02c-1.02 0-1.428.444-1.428 1.416v.9h-1.152v.564zm6.813-.564c-1.128 0-1.608.54-1.86 1.212l-.096-1.212h-.528V9.5h.612V6.416c0-1.236.324-2.412 1.752-2.412h.444v-.588h-.324zm3.485 6.156c1.716 0 2.928-1.272 2.928-3.12 0-1.836-1.212-3.108-2.928-3.108s-2.916 1.272-2.916 3.108c0 1.848 1.2 3.12 2.916 3.12zm0-.552c-1.356 0-2.292-1.056-2.292-2.568 0-1.5.936-2.568 2.292-2.568 1.356 0 2.292 1.068 2.292 2.568 0 1.512-.936 2.568-2.292 2.568zm10.936-5.676c-1.116 0-1.836.624-2.184 1.524-.288-1.008-1.044-1.524-2.004-1.524-1.044 0-1.668.612-1.98 1.368l-.096-1.296h-.528V9.5h.612V6.404c0-1.488.72-2.496 1.884-2.496 1.056 0 1.716.744 1.716 2.148V9.5h.612V6.188c.036-1.392.756-2.28 1.896-2.28 1.056 0 1.692.708 1.692 2.088V9.5h.624V5.972c0-1.836-.972-2.628-2.244-2.628zm6.693 2.148c0 2.46 1.212 4.08 3.036 4.08 1.8 0 3.024-1.62 3.024-4.08v-.384c0-2.388-1.224-4.08-3.024-4.08-1.824 0-3.036 1.692-3.036 4.08v.384zm5.424-.024c0 2.136-.948 3.528-2.388 3.528-1.452 0-2.4-1.392-2.4-3.528v-.336c0-2.136.948-3.528 2.4-3.528 1.44 0 2.388 1.392 2.388 3.528v.336zm1.257 3.636c0 .276.192.456.456.456s.456-.18.456-.456-.192-.444-.456-.444-.456.168-.456.444zm4.614-5.172c-.887 0-1.68.312-2.183 1.02l.227-3.276h4.164V1.1h-4.727l-.3 4.692.6.024c.36-.984 1.367-1.32 2.135-1.32 1.344 0 2.172.948 2.172 2.244 0 1.488-1.068 2.256-2.22 2.256-1.368 0-2.16-.912-2.255-2.004h-.624c.096 1.392 1.103 2.568 2.88 2.568 1.511 0 2.856-.984 2.856-2.832 0-1.632-1.093-2.796-2.725-2.796zm6.8-.588c-1.14 0-1.931.612-2.315 1.464l-.096-1.392h-.528V11.9h.612V8.096c.348.888 1.176 1.476 2.328 1.476 1.668 0 2.868-1.272 2.868-3.12 0-1.908-1.2-3.108-2.868-3.108zm-.047 5.676c-1.356 0-2.292-1.056-2.292-2.58 0-1.488.936-2.556 2.292-2.556 1.356 0 2.292 1.068 2.292 2.568 0 1.512-.936 2.568-2.292 2.568zm4.49-.936c0 .972.395 1.416 1.427 1.416h.889v-.564h-.84c-.636 0-.865-.24-.865-.864V3.98h1.645v-.564h-1.645V1.712h-.611v1.704H87.21v.564h1.153v4.104zm2.97-.456c.049 1.26 1.069 1.944 2.593 1.944 1.308 0 2.364-.66 2.364-1.74 0-1.284-1.128-1.536-2.436-1.716-.948-.132-1.788-.24-1.788-1.092 0-.696.684-1.152 1.716-1.152.972 0 1.668.468 1.776 1.26h.624c-.108-1.188-1.08-1.788-2.4-1.788-1.356-.012-2.328.684-2.328 1.728 0 1.224 1.128 1.452 2.376 1.62 1.02.144 1.848.276 1.848 1.176 0 .72-.756 1.176-1.752 1.176-1.164 0-1.92-.54-1.968-1.416h-.624zM102.17 9.5h.66l1.8-5.112 1.716 5.112h.66l2.16-6.084h-.624l-1.872 5.352-1.74-5.352h-.564l-1.836 5.352-1.776-5.352h-.648l2.064 6.084zm8.164-7.368c.24 0 .432-.18.432-.432a.423.423 0 00-.432-.432c-.24 0-.432.18-.432.432s.192.432.432.432zm-.312 7.368h.612V3.416h-.612V9.5zm2.507-1.416c0 .972.396 1.416 1.428 1.416h.888v-.564h-.84c-.636 0-.864-.24-.864-.864V3.98h1.644v-.564h-1.644V1.712h-.612v1.704h-1.152v.564h1.152v4.104zm6.055-4.74c-1.14 0-1.848.636-2.196 1.512V1.1h-.612v8.4h.612v-3c0-1.584.804-2.592 2.1-2.592 1.164 0 1.884.768 1.884 2.208V9.5h.612V6.092c0-1.92-1.02-2.748-2.4-2.748zm7 6.156h.612V1.1h-.612v8.4zm4.739.072c1.716 0 2.928-1.272 2.928-3.12 0-1.836-1.212-3.108-2.928-3.108s-2.916 1.272-2.916 3.108c0 1.848 1.2 3.12 2.916 3.12zm0-.552c-1.356 0-2.292-1.056-2.292-2.568 0-1.5.936-2.568 2.292-2.568 1.356 0 2.292 1.068 2.292 2.568 0 1.512-.936 2.568-2.292 2.568zm5.433.48h.66l1.8-5.112 1.716 5.112h.66l2.16-6.084h-.624l-1.872 5.352-1.74-5.352h-.564l-1.836 5.352-1.776-5.352h-.648l2.064 6.084zm10.352.072c1.332 0 2.352-.864 2.616-2.088h-.624c-.24.948-1.044 1.536-2.04 1.536-1.356 0-2.208-1.032-2.232-2.448v-.108h4.968c0-.084.012-.18.012-.252-.06-1.812-1.176-2.868-2.808-2.868-1.668 0-2.808 1.272-2.808 3.072 0 1.908 1.188 3.156 2.916 3.156zm-2.232-3.624c.096-1.236 1.02-2.064 2.136-2.064 1.188 0 2.04.732 2.136 2.064h-4.272zm8.626-2.532c-1.128 0-1.608.54-1.86 1.212l-.096-1.212h-.528V9.5h.612V6.416c0-1.236.324-2.412 1.752-2.412h.444v-.588h-.324zm11.257-.072c-1.116 0-1.836.624-2.184 1.524-.288-1.008-1.044-1.524-2.004-1.524-1.044 0-1.668.612-1.98 1.368l-.096-1.296h-.528V9.5h.612V6.404c0-1.488.72-2.496 1.884-2.496 1.056 0 1.716.744 1.716 2.148V9.5h.612V6.188c.036-1.392.756-2.28 1.896-2.28 1.056 0 1.692.708 1.692 2.088V9.5h.624V5.972c0-1.836-.972-2.628-2.244-2.628zm8.955 5.592c-.36 0-.54-.12-.54-.588V5.516c0-1.392-.852-2.172-2.376-2.172-1.392 0-2.316.672-2.472 1.776h.612c.156-.744.804-1.236 1.836-1.236 1.14 0 1.788.6 1.788 1.608v.528h-2.064c-1.56 0-2.4.672-2.4 1.812 0 1.08.852 1.74 2.148 1.74 1.236 0 1.968-.564 2.34-1.32v.216c-.024.72.276 1.032.996 1.032h.36v-.564h-.228zm-1.152-1.896c0 1.164-.828 2.004-2.268 2.004-.972 0-1.572-.492-1.572-1.248 0-.804.6-1.248 1.728-1.248h2.112v.492zm4.682-3.624c-1.128 0-1.608.54-1.86 1.212l-.096-1.212h-.528V9.5h.612V6.416c0-1.236.324-2.412 1.752-2.412h.444v-.588h-.324zm5.753 1.416c-.372-.9-1.188-1.488-2.316-1.488-1.668 0-2.868 1.26-2.868 3.108 0 1.92 1.2 3.12 2.868 3.12 1.14 0 1.944-.6 2.328-1.548v1.08c0 1.62-.768 2.316-2.232 2.316-1.14 0-1.932-.516-2.124-1.44h-.636c.192 1.296 1.236 1.992 2.712 1.992 1.968 0 2.892-.936 2.892-2.844V3.416h-.528l-.096 1.416zm-2.268 4.188c-1.356 0-2.292-1.056-2.292-2.568s.936-2.568 2.292-2.568c1.356 0 2.292 1.056 2.292 2.58 0 1.5-.936 2.556-2.292 2.556zm4.644-6.888c.24 0 .432-.18.432-.432a.423.423 0 00-.432-.432c-.24 0-.432.18-.432.432s.192.432.432.432zM184.06 9.5h.612V3.416h-.612V9.5zm4.859-6.156c-1.116 0-1.836.576-2.184 1.368l-.096-1.296h-.528V9.5h.612v-3c0-1.584.804-2.592 2.1-2.592 1.176 0 1.884.768 1.884 2.208V9.5h.612V6.092c0-1.92-1.02-2.748-2.4-2.748zm13.553 5.604c-.336 0-.576-.072-.828-.384l-.6-.696 1.908-2.904h-.648l-1.632 2.46-1.872-2.196-.072-.084c1.608-.672 2.184-1.44 2.184-2.376 0-.996-.78-1.74-1.836-1.74-1.248 0-2.172.828-2.172 1.932 0 .768.264 1.248.912 2.04-1.464.624-2.052 1.488-2.052 2.436 0 1.38 1.092 2.136 2.46 2.136.936 0 1.752-.42 2.436-1.224l.587.696c.289.348.685.456 1.141.456h.84v-.552h-.756zm-3.444-7.392c.744 0 1.26.516 1.26 1.224 0 .816-.564 1.404-1.884 1.98-.612-.732-.864-1.152-.864-1.812 0-.804.612-1.392 1.488-1.392zm-.792 7.464c-1.056 0-1.848-.6-1.848-1.632 0-.876.492-1.416 1.74-2.016l.18.204 1.992 2.352c-.564.708-1.272 1.092-2.064 1.092zm8.993.48h5.604v-.576h-4.74l2.796-2.52c.972-.876 1.836-1.68 1.836-2.952 0-1.476-1.02-2.424-2.724-2.424-1.632 0-2.688 1.056-2.688 2.64v.204h.624v-.168c0-1.308.804-2.112 2.064-2.112 1.272 0 2.088.708 2.088 1.896 0 1.056-.804 1.788-1.596 2.508l-3.264 2.964v.54zm5.951-2.208h4.488V9.5h.624V7.292h1.38v-.576h-1.38V1.1h-.696l-4.416 5.628v.564zm4.488-5.412v4.836h-3.78l3.78-4.836zm2.839 9.18L223.903.74h-.612l-3.396 10.32h.612zm6.931-7.128c-.888 0-1.68.312-2.184 1.02l.228-3.276h4.164V1.1h-4.728l-.3 4.692.6.024c.36-.984 1.368-1.32 2.136-1.32 1.344 0 2.172.948 2.172 2.244 0 1.488-1.068 2.256-2.22 2.256-1.368 0-2.16-.912-2.256-2.004h-.624c.096 1.392 1.104 2.568 2.88 2.568 1.512 0 2.856-.984 2.856-2.832 0-1.632-1.092-2.796-2.724-2.796zm7.095 5.568h.612V1.1h-.612v8.4zm2.362-7.368c.24 0 .432-.18.432-.432a.423.423 0 00-.432-.432c-.24 0-.432.18-.432.432s.192.432.432.432zm-.312 7.368h.612V3.416h-.612V9.5zm3.815 0h.732l2.376-6.084h-.636l-2.088 5.376-2.1-5.376h-.66l2.376 6.084zm6.373.072c1.332 0 2.352-.864 2.616-2.088h-.624c-.24.948-1.044 1.536-2.04 1.536-1.356 0-2.208-1.032-2.232-2.448v-.108h4.968c0-.084.012-.18.012-.252-.06-1.812-1.176-2.868-2.808-2.868-1.668 0-2.808 1.272-2.808 3.072 0 1.908 1.188 3.156 2.916 3.156zm-2.232-3.624c.096-1.236 1.02-2.064 2.136-2.064 1.188 0 2.04.732 2.136 2.064h-4.272zm9.1 1.68c.048 1.26 1.068 1.944 2.592 1.944 1.308 0 2.364-.66 2.364-1.74 0-1.284-1.128-1.536-2.436-1.716-.948-.132-1.788-.24-1.788-1.092 0-.696.684-1.152 1.716-1.152.972 0 1.668.468 1.776 1.26h.624c-.108-1.188-1.08-1.788-2.4-1.788-1.356-.012-2.328.684-2.328 1.728 0 1.224 1.128 1.452 2.376 1.62 1.02.144 1.848.276 1.848 1.176 0 .72-.756 1.176-1.752 1.176-1.164 0-1.92-.54-1.968-1.416h-.624zm10.54-1.224c0 1.596-.792 2.604-2.052 2.604-1.128 0-1.824-.768-1.824-2.22V3.416h-.612v3.408c0 1.908.996 2.748 2.34 2.748 1.08 0 1.788-.576 2.136-1.356l.084 1.284h.54V3.416h-.612v2.988zm4.993-3.06c-1.14 0-1.932.612-2.316 1.464l-.096-1.392h-.528V11.9h.612V8.096c.348.888 1.176 1.476 2.328 1.476 1.668 0 2.868-1.272 2.868-3.12 0-1.908-1.2-3.108-2.868-3.108zm-.048 5.676c-1.356 0-2.292-1.056-2.292-2.58 0-1.488.936-2.556 2.292-2.556 1.356 0 2.292 1.068 2.292 2.568 0 1.512-.936 2.568-2.292 2.568zm7.067-5.676c-1.14 0-1.932.612-2.316 1.464l-.096-1.392h-.528V11.9h.612V8.096c.348.888 1.176 1.476 2.328 1.476 1.668 0 2.868-1.272 2.868-3.12 0-1.908-1.2-3.108-2.868-3.108zm-.048 5.676c-1.356 0-2.292-1.056-2.292-2.58 0-1.488.936-2.556 2.292-2.556 1.356 0 2.292 1.068 2.292 2.568 0 1.512-.936 2.568-2.292 2.568zm6.816.552c1.716 0 2.928-1.272 2.928-3.12 0-1.836-1.212-3.108-2.928-3.108s-2.916 1.272-2.916 3.108c0 1.848 1.2 3.12 2.916 3.12zm0-.552c-1.356 0-2.292-1.056-2.292-2.568 0-1.5.936-2.568 2.292-2.568 1.356 0 2.292 1.068 2.292 2.568 0 1.512-.936 2.568-2.292 2.568zm6.628-5.604c-1.128 0-1.608.54-1.86 1.212l-.096-1.212h-.528V9.5h.612V6.416c0-1.236.324-2.412 1.752-2.412h.444v-.588h-.324zm1.851 4.668c0 .972.396 1.416 1.428 1.416h.888v-.564h-.84c-.636 0-.864-.24-.864-.864V3.98h1.644v-.564h-1.644V1.712h-.612v1.704h-1.152v.564h1.152v4.104z" fill="#000"/></svg>