<svg width="109" height="11" viewBox="0 0 109 11" fill="none" xmlns="http://www.w3.org/2000/svg"><path d="M2.585 8.5h.704L5.28 1.779 7.271 8.5h.704L10.329.8h-.616L7.634 7.719 5.61.8h-.605L2.926 7.719.869.8H.242l2.343 7.7zm8.931-6.754c.22 0 .396-.165.396-.396a.388.388 0 00-.396-.396.388.388 0 00-.396.396c0 .231.176.396.396.396zM11.23 8.5h.561V2.923h-.56V8.5zm2.298-1.298c0 .891.363 1.298 1.31 1.298h.813v-.517h-.77c-.583 0-.792-.22-.792-.792V3.44h1.507v-.517H14.09V1.361h-.56v1.562h-1.057v.517h1.056v3.762zm5.55-4.345c-1.044 0-1.693.583-2.012 1.386V.8h-.561v7.7h.56V5.75c0-1.452.738-2.376 1.926-2.376 1.067 0 1.727.704 1.727 2.024V8.5h.56V5.376c0-1.76-.934-2.519-2.2-2.519zm11.324 5.126c-.33 0-.495-.11-.495-.539V4.848c0-1.276-.781-1.991-2.178-1.991-1.276 0-2.123.616-2.266 1.628h.56c.144-.682.738-1.133 1.684-1.133 1.045 0 1.639.55 1.639 1.474v.484h-1.892c-1.43 0-2.2.616-2.2 1.661 0 .99.78 1.595 1.969 1.595 1.133 0 1.804-.517 2.145-1.21v.198c-.022.66.253.946.913.946h.33v-.517h-.21zm-1.056-1.738c0 1.067-.76 1.837-2.08 1.837-.89 0-1.44-.451-1.44-1.144 0-.737.55-1.144 1.584-1.144h1.936v.451zm5.398.957c0 .891.363 1.298 1.309 1.298h.814v-.517h-.77c-.583 0-.792-.22-.792-.792V3.44h1.507v-.517h-1.507V1.361h-.561v1.562h-1.056v.517h1.056v3.762zm5.254-4.279c-1.034 0-1.474.495-1.706 1.111l-.087-1.111h-.484V8.5h.56V5.673c0-1.133.297-2.211 1.607-2.211h.407v-.539h-.297zm5.176 2.739c0 1.463-.726 2.387-1.881 2.387-1.034 0-1.672-.704-1.672-2.035V2.923h-.561v3.124c0 1.749.913 2.519 2.145 2.519.99 0 1.639-.528 1.958-1.243L45.24 8.5h.495V2.923h-.561v2.739zm1.629 1.122c.044 1.155.979 1.782 2.376 1.782 1.198 0 2.166-.605 2.166-1.595 0-1.177-1.033-1.408-2.233-1.573-.869-.121-1.639-.22-1.639-1.001 0-.638.627-1.056 1.574-1.056.89 0 1.529.429 1.628 1.155h.572c-.1-1.089-.99-1.639-2.2-1.639-1.243-.011-2.134.627-2.134 1.584 0 1.122 1.034 1.331 2.178 1.485.934.132 1.694.253 1.694 1.078 0 .66-.693 1.078-1.606 1.078-1.068 0-1.76-.495-1.805-1.298h-.572zm6.03.418c0 .891.364 1.298 1.31 1.298h.814v-.517h-.77c-.583 0-.792-.22-.792-.792V3.44h1.507v-.517h-1.507V1.361h-.561v1.562h-1.056v.517h1.056v3.762zm5.27 1.364c1.22 0 2.155-.792 2.398-1.914h-.572c-.22.869-.958 1.408-1.87 1.408-1.243 0-2.024-.946-2.046-2.244v-.099h4.553c0-.077.011-.165.011-.231-.054-1.661-1.078-2.629-2.573-2.629-1.53 0-2.575 1.166-2.575 2.816 0 1.749 1.09 2.893 2.673 2.893zm-2.047-3.322c.089-1.133.936-1.892 1.959-1.892 1.088 0 1.87.671 1.957 1.892h-3.916zM66.24 4.177c-.34-.792-1.089-1.32-2.134-1.32-1.529 0-2.629 1.166-2.629 2.849 0 1.76 1.1 2.86 2.63 2.86 1.044 0 1.77-.561 2.122-1.342l.088 1.276h.484V.8h-.56v3.377zM64.15 8.06c-1.243 0-2.1-.968-2.1-2.354 0-1.375.857-2.354 2.1-2.354s2.101.979 2.101 2.365c0 1.375-.858 2.343-2.1 2.343zm9.63-5.203c-1.044 0-1.77.561-2.122 1.342l-.088-1.276h-.484V10.7h.56V7.213c.32.814 1.079 1.353 2.135 1.353 1.529 0 2.629-1.166 2.629-2.86 0-1.749-1.1-2.849-2.63-2.849zm-.043 5.203c-1.243 0-2.101-.968-2.101-2.365 0-1.364.858-2.343 2.1-2.343 1.244 0 2.102.979 2.102 2.354 0 1.386-.858 2.354-2.101 2.354zm6.06-5.137c-1.034 0-1.474.495-1.705 1.111l-.088-1.111h-.484V8.5h.561V5.673c0-1.133.297-2.211 1.606-2.211h.407v-.539h-.297zm3.195 5.643c1.573 0 2.684-1.166 2.684-2.86 0-1.683-1.11-2.849-2.684-2.849-1.573 0-2.673 1.166-2.673 2.849 0 1.694 1.1 2.86 2.673 2.86zm0-.506c-1.243 0-2.1-.968-2.1-2.354 0-1.375.857-2.354 2.1-2.354s2.101.979 2.101 2.354c0 1.386-.858 2.354-2.1 2.354zm5.18.44h.67l2.178-5.577h-.582l-1.915 4.928L86.6 2.923h-.606L88.171 8.5zm3.9-6.754c.22 0 .396-.165.396-.396a.388.388 0 00-.396-.396.388.388 0 00-.396.396c0 .231.176.396.396.396zM91.786 8.5h.561V2.923h-.561V8.5zm6.434-4.323c-.341-.792-1.09-1.32-2.134-1.32-1.53 0-2.63 1.166-2.63 2.849 0 1.76 1.1 2.86 2.63 2.86 1.045 0 1.77-.561 2.123-1.342l.088 1.276h.484V.8h-.561v3.377zM96.13 8.06c-1.243 0-2.101-.968-2.101-2.354 0-1.375.858-2.354 2.1-2.354 1.244 0 2.102.979 2.102 2.365 0 1.375-.858 2.343-2.101 2.343zm6.434.506c1.221 0 2.156-.792 2.398-1.914h-.572c-.22.869-.957 1.408-1.87 1.408-1.243 0-2.024-.946-2.046-2.244v-.099h4.554c0-.077.011-.165.011-.231-.055-1.661-1.078-2.629-2.574-2.629-1.529 0-2.574 1.166-2.574 2.816 0 1.749 1.089 2.893 2.673 2.893zm-2.046-3.322c.088-1.133.935-1.892 1.958-1.892 1.089 0 1.87.671 1.958 1.892h-3.916zm7.907-2.321c-1.034 0-1.474.495-1.705 1.111l-.088-1.111h-.484V8.5h.561V5.673c0-1.133.297-2.211 1.606-2.211h.407v-.539h-.297z" fill="#000"/></svg>