<svg width="602" height="111" viewBox="0 0 602 111" fill="none" xmlns="http://www.w3.org/2000/svg"><path d="M1.781 71.674c0 3.315 1.411 5.015 4.335 5.015 2.941 0 4.369-1.7 4.369-5.015v-6.987h-.918v7.038c0 2.737-1.054 4.114-3.451 4.114-2.363 0-3.417-1.377-3.417-4.114v-7.038h-.918v6.987zm10.513 2.26c.068 1.786 1.513 2.755 3.672 2.755 1.853 0 3.349-.935 3.349-2.465 0-1.82-1.598-2.176-3.451-2.431-1.343-.187-2.533-.34-2.533-1.547 0-.986.969-1.632 2.43-1.632 1.378 0 2.364.663 2.517 1.785h.884c-.153-1.683-1.53-2.533-3.4-2.533-1.921-.017-3.298.969-3.298 2.448 0 1.734 1.598 2.057 3.366 2.295 1.445.204 2.618.39 2.618 1.666 0 1.02-1.071 1.666-2.482 1.666-1.65 0-2.72-.765-2.788-2.006h-.884zm12.483 2.755c1.887 0 3.332-1.224 3.706-2.958h-.884c-.34 1.343-1.48 2.176-2.89 2.176-1.921 0-3.128-1.462-3.162-3.468v-.153h7.038c0-.12.017-.255.017-.357-.085-2.567-1.666-4.063-3.978-4.063-2.363 0-3.978 1.802-3.978 4.352 0 2.703 1.683 4.47 4.13 4.47zm-3.162-5.134c.136-1.751 1.445-2.924 3.026-2.924 1.683 0 2.89 1.037 3.026 2.924h-6.052zm18.518 5.134c2.771 0 4.794-1.632 5.168-4.148h-2.023c-.373 1.513-1.512 2.43-3.161 2.43-2.244 0-3.604-1.801-3.604-4.334 0-2.55 1.394-4.335 3.654-4.335 1.615 0 2.737.935 3.128 2.43h2.023c-.39-2.515-2.346-4.147-5.066-4.147-3.519 0-5.745 2.43-5.745 6.052 0 3.655 2.159 6.052 5.627 6.052zm7.534-10.03c.629 0 1.122-.46 1.122-1.105 0-.646-.493-1.105-1.122-1.105-.63 0-1.122.459-1.122 1.105 0 .646.493 1.105 1.122 1.105zm-.935 9.928h1.836v-8.704h-1.836v8.704zm4.264-2.363c0 1.58.714 2.363 2.38 2.363h1.7v-1.615h-1.292c-.697 0-.935-.255-.935-.935v-4.54h2.125v-1.614H52.85v-2.431h-1.853v2.43h-1.513v1.616h1.513v4.726zm7.764 2.414l-.34.85c-.272.714-.442.884-1.156.884h-1.292v1.615h1.972c1.275 0 1.65-.63 2.193-2.04l3.944-10.064h-1.955l-2.363 6.613-2.43-6.613h-1.956l3.383 8.755zm10.787-.051h1.955v-11.9h-1.955v11.9zm8.536-8.806c-1.41 0-2.244.56-2.788 1.24l-.204-1.138h-1.598v8.704h1.836V72.2c0-1.768.867-2.84 2.33-2.84 1.376 0 2.073.885 2.073 2.534v4.692h1.853v-4.845c0-2.907-1.58-3.961-3.502-3.961zm11.719 1.309c-.561-.765-1.496-1.31-2.822-1.31-2.363 0-4.114 1.769-4.114 4.455 0 2.788 1.75 4.454 4.114 4.454 1.377 0 2.278-.646 2.839-1.411l.22 1.309h1.599v-11.9h-1.836v4.403zm-2.516 6.052c-1.53 0-2.533-1.19-2.533-2.907 0-1.7 1.003-2.89 2.533-2.89s2.533 1.19 2.533 2.924c0 1.683-1.003 2.873-2.533 2.873zm10.277 1.547c2.159 0 3.621-1.31 3.927-3.026h-1.836c-.255.969-1.071 1.53-2.193 1.53-1.445 0-2.38-.97-2.431-2.448v-.12h6.562c.034-.237.051-.475.051-.696-.051-2.55-1.734-4.148-4.25-4.148-2.567 0-4.284 1.785-4.284 4.47 0 2.67 1.717 4.438 4.454 4.438zm-2.465-5.406c.136-1.241 1.139-2.023 2.312-2.023 1.275 0 2.176.73 2.329 2.023h-4.641zm6.73 5.304h2.023l2.295-3.162 2.278 3.162h2.142l-3.281-4.454 3.094-4.25h-2.023l-2.125 2.94-2.074-2.94h-2.142l3.077 4.25-3.264 4.454zm10.109-11.985c-.459 0-.748.272-.748.663 0 .408.272.612.595.612.17 0 .34-.068.425-.204.119.119.153.272.153.442 0 .646-.408 1.309-1.275 1.343v.51c1.173-.051 1.904-.833 1.904-1.955 0-.782-.442-1.411-1.054-1.411zm2.058 9.333c.068 1.785 1.513 2.754 3.672 2.754 1.853 0 3.349-.935 3.349-2.465 0-1.82-1.598-2.176-3.451-2.431-1.343-.187-2.533-.34-2.533-1.547 0-.986.969-1.632 2.431-1.632 1.377 0 2.363.663 2.516 1.785h.884c-.153-1.683-1.53-2.533-3.4-2.533-1.921-.017-3.298.969-3.298 2.448 0 1.734 1.598 2.057 3.366 2.295 1.445.204 2.618.39 2.618 1.666 0 1.02-1.071 1.666-2.482 1.666-1.649 0-2.72-.765-2.788-2.006h-.884zm13.903.646c0 1.377.561 2.006 2.023 2.006h1.258v-.8h-1.19c-.901 0-1.224-.34-1.224-1.223v-5.797h2.329v-.8h-2.329v-2.413h-.867v2.414h-1.632v.799h1.632v5.814zm8.142 2.108c2.431 0 4.148-1.802 4.148-4.42 0-2.601-1.717-4.403-4.148-4.403-2.431 0-4.131 1.802-4.131 4.403 0 2.618 1.7 4.42 4.131 4.42zm0-.782c-1.921 0-3.247-1.496-3.247-3.638 0-2.125 1.326-3.638 3.247-3.638 1.921 0 3.247 1.513 3.247 3.638 0 2.142-1.326 3.638-3.247 3.638zm9.679.782c2.431 0 4.148-1.802 4.148-4.42 0-2.601-1.717-4.403-4.148-4.403-2.431 0-4.131 1.802-4.131 4.403 0 2.618 1.7 4.42 4.131 4.42zm0-.782c-1.921 0-3.247-1.496-3.247-3.638 0-2.125 1.326-3.638 3.247-3.638 1.921 0 3.247 1.513 3.247 3.638 0 2.142-1.326 3.638-3.247 3.638zm5.871.68h.867v-11.9h-.867v11.9zm2.514-2.652c.068 1.785 1.513 2.754 3.672 2.754 1.853 0 3.349-.935 3.349-2.465 0-1.82-1.598-2.176-3.451-2.431-1.343-.187-2.533-.34-2.533-1.547 0-.986.969-1.632 2.431-1.632 1.377 0 2.363.663 2.516 1.785h.884c-.153-1.683-1.53-2.533-3.4-2.533-1.921-.017-3.298.969-3.298 2.448 0 1.734 1.598 2.057 3.366 2.295 1.445.204 2.618.39 2.618 1.666 0 1.02-1.071 1.666-2.482 1.666-1.649 0-2.72-.765-2.788-2.006h-.884zm13.903.646c0 1.377.561 2.006 2.023 2.006h1.258v-.8h-1.19c-.901 0-1.224-.34-1.224-1.223v-5.797h2.329v-.8h-2.329v-2.413h-.867v2.414h-1.632v.799h1.632v5.814zm8.143 2.108c2.431 0 4.148-1.802 4.148-4.42 0-2.601-1.717-4.403-4.148-4.403-2.431 0-4.131 1.802-4.131 4.403 0 2.618 1.7 4.42 4.131 4.42zm0-.782c-1.921 0-3.247-1.496-3.247-3.638 0-2.125 1.326-3.638 3.247-3.638 1.921 0 3.247 1.513 3.247 3.638 0 2.142-1.326 3.638-3.247 3.638zm13.972-7.94c-1.598 0-2.278.766-2.635 1.718l-.136-1.717h-.748v8.619h.867v-4.37c0-1.75.459-3.416 2.482-3.416h.629v-.833h-.459zm4.937 8.722c1.887 0 3.332-1.224 3.706-2.958h-.884c-.34 1.343-1.479 2.176-2.89 2.176-1.921 0-3.128-1.462-3.162-3.468v-.153h7.038c0-.12.017-.255.017-.357-.085-2.567-1.666-4.063-3.978-4.063-2.363 0-3.978 1.802-3.978 4.352 0 2.703 1.683 4.47 4.131 4.47zm-3.162-5.134c.136-1.751 1.445-2.924 3.026-2.924 1.683 0 2.89 1.037 3.026 2.924h-6.052zm8.293 2.38c.068 1.785 1.513 2.754 3.672 2.754 1.853 0 3.349-.935 3.349-2.465 0-1.82-1.598-2.176-3.451-2.431-1.343-.187-2.533-.34-2.533-1.547 0-.986.969-1.632 2.431-1.632 1.377 0 2.363.663 2.516 1.785h.884c-.153-1.683-1.53-2.533-3.4-2.533-1.921-.017-3.298.969-3.298 2.448 0 1.734 1.598 2.057 3.366 2.295 1.445.204 2.618.39 2.618 1.666 0 1.02-1.071 1.666-2.482 1.666-1.649 0-2.72-.765-2.788-2.006h-.884zm9.321.646c0 1.377.561 2.006 2.023 2.006h1.258v-.8h-1.19c-.901 0-1.224-.34-1.224-1.223v-5.797h2.329v-.8h-2.329v-2.413h-.867v2.414h-1.632v.799h1.632v5.814zm8.143 2.108c2.431 0 4.148-1.802 4.148-4.42 0-2.601-1.717-4.403-4.148-4.403-2.431 0-4.131 1.802-4.131 4.403 0 2.618 1.7 4.42 4.131 4.42zm0-.782c-1.921 0-3.247-1.496-3.247-3.638 0-2.125 1.326-3.638 3.247-3.638 1.921 0 3.247 1.513 3.247 3.638 0 2.142-1.326 3.638-3.247 3.638zm9.389-7.94c-1.598 0-2.278.766-2.635 1.718l-.136-1.717h-.748v8.619h.867v-4.37c0-1.75.459-3.416 2.482-3.416h.629v-.833h-.459zm4.938 8.722c1.887 0 3.332-1.224 3.706-2.958h-.884c-.34 1.343-1.479 2.176-2.89 2.176-1.921 0-3.128-1.462-3.162-3.468v-.153h7.038c0-.12.017-.255.017-.357-.085-2.567-1.666-4.063-3.978-4.063-2.363 0-3.978 1.802-3.978 4.352 0 2.703 1.683 4.47 4.131 4.47zm-3.162-5.134c.136-1.751 1.445-2.924 3.026-2.924 1.683 0 2.89 1.037 3.026 2.924h-6.052zm15.867 5.032l-.561 1.394c-.391.952-.544 1.207-1.428 1.207h-1.088v.799h1.326c1.156 0 1.428-.442 1.972-1.802l4.131-10.217h-.935l-2.941 7.497-2.992-7.497h-.935l3.451 8.619zm8.96.102c2.431 0 4.148-1.802 4.148-4.42 0-2.601-1.717-4.403-4.148-4.403-2.431 0-4.131 1.802-4.131 4.403 0 2.618 1.7 4.42 4.131 4.42zm0-.782c-1.921 0-3.247-1.496-3.247-3.638 0-2.125 1.326-3.638 3.247-3.638 1.921 0 3.247 1.513 3.247 3.638 0 2.142-1.326 3.638-3.247 3.638zm12.127-3.706c0 2.26-1.122 3.689-2.907 3.689-1.598 0-2.584-1.088-2.584-3.145v-4.777h-.867v4.828c0 2.703 1.411 3.893 3.315 3.893 1.53 0 2.533-.816 3.026-1.921l.119 1.819h.765v-8.62h-.867v4.234zm6.427-4.233c-1.598 0-2.278.765-2.635 1.717l-.136-1.717h-.748v8.619h.867v-4.37c0-1.75.459-3.416 2.482-3.416h.629v-.833h-.459zm10.082 8.72c1.955 0 3.332-1.121 3.672-2.872h-.918c-.289 1.275-1.326 2.09-2.754 2.09-1.887 0-3.196-1.478-3.196-3.62 0-2.142 1.292-3.655 3.196-3.655 1.445 0 2.465.816 2.771 2.108h.901c-.357-1.785-1.7-2.873-3.655-2.873-2.431 0-4.097 1.802-4.097 4.42 0 2.652 1.649 4.403 4.08 4.403zm9.166 0c2.431 0 4.148-1.801 4.148-4.42 0-2.6-1.717-4.402-4.148-4.402-2.431 0-4.131 1.802-4.131 4.403 0 2.618 1.7 4.42 4.131 4.42zm0-.781c-1.921 0-3.247-1.496-3.247-3.638 0-2.125 1.326-3.638 3.247-3.638 1.921 0 3.247 1.513 3.247 3.638 0 2.142-1.326 3.638-3.247 3.638zm15.492-8.041c-1.581 0-2.601.884-3.094 2.159-.408-1.428-1.479-2.16-2.839-2.16-1.479 0-2.363.868-2.805 1.939l-.136-1.836h-.748v8.619h.867V72.2c0-2.108 1.02-3.536 2.669-3.536 1.496 0 2.431 1.054 2.431 3.043v4.879h.867v-4.692c.051-1.972 1.071-3.23 2.686-3.23 1.496 0 2.397 1.003 2.397 2.958v4.964h.884v-4.998c0-2.601-1.377-3.723-3.179-3.723zm9.269 0c-1.615 0-2.737.867-3.281 2.074l-.136-1.972h-.748v12.019h.867v-5.39c.493 1.259 1.666 2.092 3.298 2.092 2.363 0 4.063-1.802 4.063-4.42 0-2.703-1.7-4.403-4.063-4.403zm-.068 8.04c-1.921 0-3.247-1.495-3.247-3.654 0-2.108 1.326-3.621 3.247-3.621 1.921 0 3.247 1.513 3.247 3.638 0 2.142-1.326 3.638-3.247 3.638zm9.655.783c2.431 0 4.148-1.802 4.148-4.42 0-2.601-1.717-4.403-4.148-4.403-2.431 0-4.131 1.802-4.131 4.403 0 2.618 1.7 4.42 4.131 4.42zm0-.782c-1.921 0-3.247-1.496-3.247-3.638 0-2.125 1.326-3.638 3.247-3.638 1.921 0 3.247 1.513 3.247 3.638 0 2.142-1.326 3.638-3.247 3.638zm5.463-1.972c.068 1.785 1.513 2.754 3.672 2.754 1.853 0 3.349-.935 3.349-2.465 0-1.82-1.598-2.176-3.451-2.431-1.343-.187-2.533-.34-2.533-1.547 0-.986.969-1.632 2.431-1.632 1.377 0 2.363.663 2.516 1.785h.884c-.153-1.683-1.53-2.533-3.4-2.533-1.921-.017-3.298.969-3.298 2.448 0 1.734 1.598 2.057 3.366 2.295 1.445.204 2.618.39 2.618 1.666 0 1.02-1.071 1.666-2.482 1.666-1.649 0-2.72-.765-2.788-2.006h-.884zm14.932-1.734c0 2.26-1.122 3.689-2.907 3.689-1.598 0-2.584-1.088-2.584-3.145v-4.777h-.867v4.828c0 2.703 1.411 3.893 3.315 3.893 1.53 0 2.533-.816 3.026-1.921l.119 1.819h.765v-8.62h-.867v4.234zm6.427-4.233c-1.598 0-2.278.765-2.635 1.717l-.136-1.717h-.748v8.619h.867v-4.37c0-1.75.459-3.416 2.482-3.416h.629v-.833h-.459zm4.937 8.72c1.887 0 3.332-1.223 3.706-2.957h-.884c-.34 1.343-1.479 2.176-2.89 2.176-1.921 0-3.128-1.462-3.162-3.468v-.153h7.038c0-.12.017-.255.017-.357-.085-2.567-1.666-4.063-3.978-4.063-2.363 0-3.978 1.802-3.978 4.352 0 2.703 1.683 4.47 4.131 4.47zm-3.162-5.133c.136-1.751 1.445-2.924 3.026-2.924 1.683 0 2.89 1.037 3.026 2.924h-6.052zm20.865 4.233c-.51 0-.765-.17-.765-.833v-4.012c0-1.972-1.207-3.077-3.366-3.077-1.972 0-3.281.952-3.502 2.516h.867c.221-1.054 1.139-1.751 2.601-1.751 1.615 0 2.533.85 2.533 2.278v.748h-2.924c-2.21 0-3.4.952-3.4 2.567 0 1.53 1.207 2.465 3.043 2.465 1.751 0 2.788-.8 3.315-1.87v.306c-.034 1.02.391 1.462 1.411 1.462h.51v-.8h-.323zm-1.632-2.686c0 1.649-1.173 2.839-3.213 2.839-1.377 0-2.227-.697-2.227-1.768 0-1.14.85-1.768 2.448-1.768h2.992v.697zm7.092-5.236c-1.581 0-2.601.816-3.094 1.938l-.136-1.836h-.748v8.619h.867v-4.25c0-2.244 1.139-3.672 2.975-3.672 1.666 0 2.669 1.088 2.669 3.128v4.794h.867v-4.828c0-2.72-1.445-3.893-3.4-3.893zm12.224 2.04c-.527-1.224-1.683-2.04-3.298-2.04-2.363 0-4.063 1.802-4.063 4.403 0 2.72 1.7 4.42 4.063 4.42 1.615 0 2.737-.867 3.281-2.074l.136 1.972h.748v-11.9h-.867v5.219zm-3.23 6c-1.921 0-3.247-1.495-3.247-3.637 0-2.125 1.326-3.638 3.247-3.638 1.921 0 3.247 1.513 3.247 3.655 0 2.125-1.326 3.62-3.247 3.62zm11.365-1.325c0 1.377.561 2.006 2.023 2.006h1.258v-.8h-1.19c-.901 0-1.224-.34-1.224-1.223v-5.797h2.329v-.8h-2.329v-2.413h-.867v2.414h-1.632v.799h1.632v5.814zm8.119-6.613c-1.598 0-2.278.765-2.635 1.717l-.136-1.717h-.748v8.619h.867v-4.37c0-1.75.459-3.416 2.482-3.416h.629v-.833h-.459zm8.96 7.82c-.51 0-.765-.17-.765-.833v-4.012c0-1.972-1.207-3.077-3.366-3.077-1.972 0-3.281.952-3.502 2.516h.867c.221-1.054 1.139-1.751 2.601-1.751 1.615 0 2.533.85 2.533 2.278v.748H413.6c-2.21 0-3.4.952-3.4 2.567 0 1.53 1.207 2.465 3.043 2.465 1.751 0 2.788-.8 3.315-1.87v.306c-.034 1.02.391 1.462 1.411 1.462h.51v-.8h-.323zm-1.632-2.686c0 1.649-1.173 2.839-3.213 2.839-1.377 0-2.227-.697-2.227-1.768 0-1.14.85-1.768 2.448-1.768h2.992v.697zm10.02-3.196c-.527-1.224-1.683-2.04-3.298-2.04-2.363 0-4.063 1.802-4.063 4.403 0 2.72 1.7 4.42 4.063 4.42 1.615 0 2.737-.867 3.281-2.074l.136 1.972h.748v-11.9h-.867v5.219zm-3.23 6c-1.921 0-3.247-1.495-3.247-3.637 0-2.125 1.326-3.638 3.247-3.638 1.921 0 3.247 1.513 3.247 3.655 0 2.125-1.326 3.62-3.247 3.62zm9.944.783c1.887 0 3.332-1.224 3.706-2.958h-.884c-.34 1.343-1.479 2.176-2.89 2.176-1.921 0-3.128-1.462-3.162-3.468v-.153h7.038c0-.12.017-.255.017-.357-.085-2.567-1.666-4.063-3.978-4.063-2.363 0-3.978 1.802-3.978 4.352 0 2.703 1.683 4.47 4.131 4.47zm-3.162-5.134c.136-1.751 1.445-2.924 3.026-2.924 1.683 0 2.89 1.037 3.026 2.924h-6.052zm17.091 5.134c1.887 0 3.332-1.224 3.706-2.958h-.884c-.34 1.343-1.479 2.176-2.89 2.176-1.921 0-3.128-1.462-3.162-3.468v-.153h7.038c0-.12.017-.255.017-.357-.085-2.567-1.666-4.063-3.978-4.063-2.363 0-3.978 1.802-3.978 4.352 0 2.703 1.683 4.47 4.131 4.47zm-3.162-5.134c.136-1.751 1.445-2.924 3.026-2.924 1.683 0 2.89 1.037 3.026 2.924h-6.052zm14.705-3.587v-1.292c0-.85.323-1.19 1.19-1.19h1.241v-.8h-1.292c-1.428 0-2.006.63-2.006 2.007v1.275h-3.757v-1.292c0-.85.323-1.19 1.19-1.19h1.241v-.8h-1.275c-1.445 0-2.023.63-2.023 2.007v1.275h-1.632v.799h1.632v7.82h.867v-7.82h3.757v7.82h.867v-7.82h3.689v7.82h.867v-8.62h-4.556zm4.131-3.043a.599.599 0 00-.612.612c0 .357.272.612.612.612.34 0 .612-.255.612-.612a.599.599 0 00-.612-.612zm6.222 11.764c1.955 0 3.332-1.122 3.672-2.873h-.918c-.289 1.275-1.326 2.09-2.754 2.09-1.887 0-3.196-1.478-3.196-3.62 0-2.142 1.292-3.655 3.196-3.655 1.445 0 2.465.816 2.771 2.108h.901c-.357-1.785-1.7-2.873-3.655-2.873-2.431 0-4.097 1.802-4.097 4.42 0 2.652 1.649 4.403 4.08 4.403zm5.799-10.54c.34 0 .612-.255.612-.612a.599.599 0 00-.612-.612.599.599 0 00-.612.612c0 .357.272.612.612.612zm-.442 10.438h.867v-8.62h-.867v8.62zm6.714.102c1.887 0 3.332-1.224 3.706-2.958h-.884c-.34 1.343-1.479 2.176-2.89 2.176-1.921 0-3.128-1.462-3.162-3.468v-.153h7.038c0-.12.017-.255.017-.357-.085-2.567-1.666-4.063-3.978-4.063-2.363 0-3.978 1.802-3.978 4.352 0 2.703 1.683 4.47 4.131 4.47zm-3.162-5.134c.136-1.751 1.445-2.924 3.026-2.924 1.683 0 2.89 1.037 3.026 2.924h-6.052zm12.678-3.69c-1.581 0-2.601.817-3.094 1.939l-.136-1.836h-.748v8.619h.867v-4.25c0-2.244 1.139-3.672 2.975-3.672 1.666 0 2.669 1.088 2.669 3.128v4.794h.867v-4.828c0-2.72-1.445-3.893-3.4-3.893zm5.965 6.716c0 1.377.561 2.006 2.023 2.006h1.258v-.8h-1.19c-.901 0-1.224-.34-1.224-1.223v-5.797h2.329v-.8h-2.329v-2.413h-.867v2.414h-1.632v.799h1.632v5.814zm4.6 2.006h.867v-11.9h-.867v11.9zm5.49 0l-.561 1.394c-.391.952-.544 1.207-1.428 1.207h-1.088v.799h1.326c1.156 0 1.428-.442 1.972-1.802l4.131-10.217h-.935l-2.941 7.497-2.992-7.497h-.935l3.451 8.619zm4.735-.561c0 .39.272.646.646.646s.646-.255.646-.646-.272-.63-.646-.63-.646.239-.646.63zM7.222 48.177h3.97l7.05-20.14h-3.424l-5.61 16.17-5.554-16.17H.144l7.078 20.14zm18.04.173c4.49 0 7.51-3.021 7.51-7.539 0-4.488-3.02-7.538-7.51-7.538-4.488 0-7.509 3.05-7.509 7.538 0 4.518 3.021 7.539 7.51 7.539zm0-2.647c-2.618 0-4.315-2.043-4.315-4.892 0-2.848 1.697-4.891 4.316-4.891 2.618 0 4.344 2.043 4.344 4.891 0 2.849-1.726 4.892-4.344 4.892zm10.009 2.474h3.107v-20.14h-3.107v20.14zm19.62-2.705c-.634 0-.95-.2-.95-.949v-5.898c0-3.482-2.245-5.352-6.158-5.352-3.711 0-6.186 1.784-6.502 4.661h3.05c.23-1.295 1.467-2.158 3.308-2.158 2.043 0 3.223 1.007 3.223 2.647v.892H47.15c-4.114 0-6.3 1.698-6.3 4.719 0 2.733 2.243 4.316 5.466 4.316 2.388 0 3.884-1.036 4.862-2.532 0 1.467.691 2.36 2.705 2.36h1.64v-2.706h-.633zm-4.03-3.337c-.028 2.273-1.524 3.798-4.113 3.798-1.698 0-2.734-.863-2.734-2.1 0-1.497 1.065-2.216 2.992-2.216h3.856v.518zm7.42 2.043c0 2.676 1.208 4 4.028 4h2.877v-2.734h-2.187c-1.18 0-1.582-.432-1.582-1.583V36.18h3.596v-2.733h-3.596V29.33H58.28v4.115h-2.56v2.733h2.56v7.999zm10.464-12.804c1.065 0 1.899-.777 1.899-1.87 0-1.094-.834-1.87-1.899-1.87s-1.899.776-1.899 1.87c0 1.093.834 1.87 1.899 1.87zm-1.583 16.803h3.108V33.446h-3.108v14.731zm6.154 0h3.108v-20.14h-3.108v20.14zm7.736-16.803c1.065 0 1.9-.777 1.9-1.87 0-1.094-.835-1.87-1.9-1.87s-1.899.776-1.899 1.87c0 1.093.834 1.87 1.9 1.87zM79.47 48.177h3.107V33.446H79.47v14.731zm7.218-4c0 2.677 1.208 4 4.028 4h2.877v-2.733h-2.187c-1.18 0-1.582-.432-1.582-1.583V36.18h3.597v-2.733h-3.597V29.33h-3.136v4.115h-2.561v2.733h2.56v7.999zm13.14 4.087l-.575 1.438c-.46 1.209-.748 1.496-1.957 1.496H95.11v2.734h3.338c2.158 0 2.791-1.065 3.712-3.453l6.675-17.033h-3.309l-3.999 11.192-4.115-11.192h-3.308l5.725 14.818zm24.701.086c3.769 0 6.273-2.1 6.848-5.438h-3.28c-.374 1.697-1.64 2.79-3.539 2.79-2.503 0-4.143-1.985-4.143-4.862 0-2.906 1.64-4.92 4.143-4.92 1.928 0 3.165 1.065 3.568 2.791h3.251c-.604-3.338-2.964-5.438-6.762-5.438-4.459 0-7.394 3.021-7.394 7.567 0 4.604 2.848 7.51 7.308 7.51zm22.692-2.878c-.633 0-.949-.2-.949-.949v-5.898c0-3.482-2.245-5.352-6.158-5.352-3.711 0-6.186 1.784-6.502 4.661h3.05c.23-1.295 1.467-2.158 3.308-2.158 2.043 0 3.223 1.007 3.223 2.647v.892h-3.712c-4.114 0-6.301 1.698-6.301 4.719 0 2.733 2.244 4.316 5.467 4.316 2.388 0 3.884-1.036 4.862-2.532 0 1.467.691 2.36 2.705 2.36h1.64v-2.706h-.633zm-4.028-3.337c-.029 2.273-1.525 3.798-4.115 3.798-1.697 0-2.733-.863-2.733-2.1 0-1.497 1.065-2.216 2.992-2.216h3.856v.518zm14.122-8.862c-2.388 0-3.798.95-4.718 2.1l-.346-1.927h-2.704v14.731h3.107v-7.423c0-2.992 1.468-4.805 3.942-4.805 2.331 0 3.51 1.496 3.51 4.287v7.941h3.136v-8.2c0-4.92-2.675-6.704-5.927-6.704zm16.115 14.904h3.108v-3.74l2.647-2.762 4.344 6.502h3.683l-5.898-8.776 5.553-5.955h-3.654l-6.675 7.135V28.036h-3.108v20.141zm23.054-14.904c-2.388 0-3.798.95-4.718 2.1l-.346-1.927h-2.704v14.731h3.107v-7.423c0-2.992 1.468-4.805 3.942-4.805 2.331 0 3.51 1.496 3.51 4.287v7.941h3.136v-8.2c0-4.92-2.675-6.704-5.927-6.704zm15.604 15.077c4.489 0 7.51-3.021 7.51-7.539 0-4.488-3.021-7.538-7.51-7.538-4.488 0-7.51 3.05-7.51 7.538 0 4.518 3.022 7.539 7.51 7.539zm0-2.647c-2.618 0-4.316-2.043-4.316-4.892 0-2.848 1.698-4.891 4.316-4.891s4.345 2.043 4.345 4.891c0 2.849-1.727 4.892-4.345 4.892zm16.77 2.647c3.769 0 6.272-2.1 6.848-5.438h-3.28c-.374 1.697-1.64 2.79-3.539 2.79-2.503 0-4.143-1.985-4.143-4.862 0-2.906 1.64-4.92 4.143-4.92 1.928 0 3.165 1.065 3.568 2.791h3.251c-.604-3.338-2.964-5.438-6.762-5.438-4.459 0-7.394 3.021-7.394 7.567 0 4.604 2.848 7.51 7.308 7.51zm9.226-.173h3.108v-3.74l2.647-2.762 4.345 6.502h3.682l-5.898-8.776 5.553-5.955h-3.654l-6.675 7.135V28.036h-3.108v20.141zm26.906.087l-.576 1.438c-.46 1.209-.748 1.496-1.956 1.496h-2.187v2.734h3.338c2.158 0 2.791-1.065 3.712-3.453l6.675-17.033h-3.309l-3.999 11.192-4.115-11.192h-3.309l5.726 14.818zm16.866.086c4.489 0 7.51-3.021 7.51-7.539 0-4.488-3.021-7.538-7.51-7.538-4.488 0-7.51 3.05-7.51 7.538 0 4.518 3.022 7.539 7.51 7.539zm0-2.647c-2.618 0-4.316-2.043-4.316-4.892 0-2.848 1.698-4.891 4.316-4.891s4.345 2.043 4.345 4.891c0 2.849-1.727 4.892-4.345 4.892zm20.108-4.892c0 3.05-1.439 4.834-3.798 4.834-2.273 0-3.424-1.467-3.424-4.345v-7.854h-3.108v8.2c0 5.035 2.676 6.704 5.812 6.704 2.273 0 3.626-.92 4.546-2.043l.346 1.87h2.733V33.446h-3.107v7.365zm20.494 7.539c4.489 0 7.51-3.021 7.51-7.539 0-4.488-3.021-7.538-7.51-7.538-4.488 0-7.51 3.05-7.51 7.538 0 4.518 3.022 7.539 7.51 7.539zm0-2.647c-2.618 0-4.316-2.043-4.316-4.892 0-2.848 1.698-4.891 4.316-4.891s4.345 2.043 4.345 4.891c0 2.849-1.727 4.892-4.345 4.892zm26.584-14.933v-2.734h-2.963c-2.849 0-4.115 1.353-4.115 3.942v1.468h-5.409v-1.238c0-1.007.403-1.438 1.41-1.438h2.186v-2.734h-2.618c-2.848 0-4.114 1.353-4.114 3.942v1.468h-2.561v2.733h2.561v11.998h3.136V36.18h5.409v11.998h3.108V36.18h3.97v-2.733h-3.97v-1.238c0-1.007.431-1.438 1.438-1.438h2.532z" fill="#000"/><path d="M377.955 22.245c-4.062 0-6.787 1.851-8.535 4.216V12.887h-5.553V48.88h4.833l.669-3.805c1.645 2.365 4.473 4.113 8.586 4.113 7.199 0 12.443-5.398 12.443-13.47 0-8.484-5.244-13.472-12.443-13.472zm-.925 22.263c-4.628 0-7.661-3.65-7.661-8.843 0-5.09 3.033-8.69 7.661-8.69 4.627 0 7.712 3.6 7.712 8.741 0 5.193-3.085 8.792-7.712 8.792zm41.881-.462c-1.132 0-1.697-.36-1.697-1.697v-10.54c0-6.222-4.011-9.564-11.003-9.564-6.633 0-11.055 3.188-11.62 8.33h5.45c.411-2.314 2.622-3.857 5.913-3.857 3.65 0 5.758 1.8 5.758 4.73v1.595h-6.632c-7.353 0-11.261 3.033-11.261 8.432 0 4.884 4.011 7.712 9.769 7.712 4.268 0 6.942-1.85 8.69-4.524 0 2.622 1.234 4.216 4.833 4.216h2.931v-4.833h-1.131zm-7.199-5.965c-.051 4.062-2.725 6.787-7.352 6.787-3.034 0-4.885-1.542-4.885-3.753 0-2.674 1.903-3.96 5.347-3.96h6.89v.926zm11.355 10.798h5.553V12.887h-5.553V48.88zm35.059-4.833c-1.131 0-1.697-.36-1.697-1.697v-10.54c0-6.222-4.01-9.564-11.003-9.564-6.633 0-11.055 3.188-11.62 8.33h5.45c.411-2.314 2.622-3.857 5.913-3.857 3.65 0 5.759 1.8 5.759 4.73v1.595h-6.633c-7.353 0-11.26 3.033-11.26 8.432 0 4.884 4.01 7.712 9.769 7.712 4.267 0 6.941-1.85 8.689-4.524 0 2.622 1.234 4.216 4.833 4.216h2.931v-4.833h-1.131zm-7.198-5.965c-.052 4.062-2.726 6.787-7.353 6.787-3.034 0-4.885-1.542-4.885-3.753 0-2.674 1.903-3.96 5.348-3.96h6.89v.926zm25.236-15.836c-4.267 0-6.787 1.697-8.432 3.753l-.617-3.444h-4.833v26.325h5.553V35.613c0-5.347 2.622-8.586 7.044-8.586 4.165 0 6.273 2.674 6.273 7.66V48.88h5.604V34.225c0-8.792-4.782-11.98-10.592-11.98zm27.524 26.942c6.736 0 11.209-3.753 12.237-9.717h-5.861c-.668 3.033-2.931 4.987-6.324 4.987-4.474 0-7.404-3.548-7.404-8.69 0-5.192 2.93-8.792 7.404-8.792 3.445 0 5.656 1.903 6.375 4.988h5.81c-1.079-5.965-5.295-9.718-12.082-9.718-7.97 0-13.215 5.399-13.215 13.523 0 8.226 5.091 13.42 13.06 13.42zm28.982 0c6.53 0 10.952-3.959 11.877-9.152h-5.553c-.771 2.931-3.239 4.628-6.632 4.628-4.371 0-7.199-2.931-7.353-7.404v-.36h19.847c.103-.72.154-1.44.154-2.108-.154-7.713-5.244-12.546-12.854-12.546-7.764 0-12.957 5.399-12.957 13.523 0 8.072 5.193 13.42 13.471 13.42zm-7.455-16.35c.411-3.754 3.445-6.119 6.992-6.119 3.857 0 6.582 2.211 7.044 6.119h-14.036zm22.163 12.854c0 2.057 1.491 3.496 3.548 3.496s3.599-1.44 3.599-3.496c0-2.057-1.542-3.496-3.599-3.496-2.057 0-3.548 1.44-3.548 3.496z" fill="url(#paint0_linear_1023_139)"/><defs><linearGradient id="paint0_linear_1023_139" x1="602" y1="24.494" x2="361.142" y2="24.494" gradientUnits="userSpaceOnUse"><stop stop-color="#FF4343"/><stop offset=".5" stop-color="#9C0B93"/><stop offset="1" stop-color="#4C1BB7"/></linearGradient></defs></svg>