<svg width="130" height="24" viewBox="0 0 130 24" fill="none" xmlns="http://www.w3.org/2000/svg"><path d="M1.212 16l.888-2.268h3.66L6.648 16h1.116L4.572 7.6H3.336L.132 16h1.08zm2.712-7.26l1.524 4.044H2.412L3.924 8.74zM8.57 16h.984V7.6H8.57V16zm2.332 0h.985V7.6h-.985V16zm5.93-1.596c0 1.08.42 1.596 1.595 1.596h1.068v-.9h-.972c-.528 0-.708-.192-.708-.708V10.78H19.4v-.9h-1.584V8.164h-.984V9.88h-1.104v.9h1.104v3.624zM23.18 9.88c-1.092 0-1.56.456-1.848.924L21.2 9.88h-.852V16h.984v-3.12c0-.972.348-2.04 1.632-2.04h.492v-.96h-.276zm6.33 5.22c-.276 0-.396-.084-.396-.408v-2.676c0-1.428-.9-2.208-2.46-2.208-1.476 0-2.448.708-2.592 1.908h.984c.12-.624.696-1.032 1.56-1.032.96 0 1.524.48 1.524 1.272v.42h-1.8c-1.608 0-2.46.684-2.46 1.908 0 1.116.912 1.788 2.256 1.788 1.056 0 1.668-.468 2.052-1.02.012.6.288.948 1.104.948h.54v-.9h-.312zm-1.38-1.596c0 1.02-.708 1.728-1.932 1.728-.816 0-1.332-.408-1.332-1.008 0-.696.492-1.02 1.368-1.02h1.896v.3zm7.202-2.688c-.372-.588-1.068-1.008-2.1-1.008-1.692 0-2.94 1.26-2.94 3.132 0 1.992 1.248 3.132 2.94 3.132 1.032 0 1.692-.492 2.1-1.056l.132.984h.852V7.6h-.984v3.216zm-2.004 4.38c-1.212 0-2.028-.924-2.028-2.256 0-1.332.816-2.256 2.028-2.256 1.2 0 2.016.936 2.016 2.28 0 1.308-.816 2.232-2.016 2.232zm4.832-6.348c.36 0 .636-.264.636-.636a.618.618 0 00-.636-.636.618.618 0 00-.636.636c0 .372.276.636.636.636zM37.656 16h.984V9.88h-.984V16zm5.332-6.192c-1.032 0-1.656.432-2.016.9l-.132-.828h-.852V16h.984v-3.06c0-1.38.696-2.232 1.848-2.232 1.068 0 1.656.672 1.656 1.944V16h.984v-3.408c0-2.028-1.092-2.784-2.472-2.784zm8.551 1.128c-.384-.684-1.068-1.128-2.1-1.128-1.692 0-2.94 1.26-2.94 3.132 0 1.992 1.248 3.132 2.94 3.132 1.032 0 1.692-.432 2.1-1.128v.72c0 1.332-.696 1.932-1.98 1.932-1.02 0-1.704-.432-1.872-1.2h-1.008c.156 1.344 1.248 2.076 2.808 2.076 2.1 0 3.036-1.008 3.036-2.772V9.88h-.852l-.132 1.056zm-2.004 4.26c-1.212 0-2.028-.924-2.028-2.256 0-1.332.816-2.256 2.028-2.256 1.2 0 2.016.936 2.016 2.28 0 1.308-.816 2.232-2.016 2.232zm7.973-6.348c.36 0 .636-.264.636-.636a.618.618 0 00-.636-.636.618.618 0 00-.636.636c0 .372.276.636.636.636zM57.004 16h.984V9.88h-.984V16zm5.332-6.192c-1.032 0-1.656.432-2.016.9l-.132-.828h-.852V16h.984v-3.06c0-1.38.696-2.232 1.848-2.232 1.068 0 1.656.672 1.656 1.944V16h.984v-3.408c0-2.028-1.092-2.784-2.472-2.784zM67.52 16h1.188L71 9.88h-1.032l-1.836 5.004-1.848-5.004h-1.056L67.52 16zm6.765.072c1.788 0 3.036-1.272 3.036-3.132s-1.248-3.132-3.036-3.132-3.036 1.272-3.036 3.132 1.248 3.132 3.036 3.132zm0-.876c-1.212 0-2.028-.948-2.028-2.256 0-1.308.816-2.256 2.028-2.256 1.212 0 2.028.948 2.028 2.256 0 1.308-.816 2.256-2.028 2.256zm4.164.804h.984V7.6h-.984V16zm4.012 0h1.188l2.292-6.12H84.91l-1.836 5.004-1.848-5.004H80.17L82.461 16zm6.765.072c1.416 0 2.424-.9 2.664-2.124h-.996c-.204.792-.876 1.248-1.74 1.248-1.164 0-1.896-.816-1.932-1.98v-.084h4.752c.012-.144.024-.288.024-.42-.048-1.812-1.176-2.904-2.904-2.904S86.19 11.08 86.19 12.94c0 1.872 1.2 3.132 3.036 3.132zm-1.944-3.756c.096-.996.924-1.644 1.824-1.644 1.02 0 1.74.588 1.836 1.644h-3.66zm5.564 1.668c.024 1.344 1.116 2.088 2.7 2.088 1.356 0 2.448-.708 2.448-1.848 0-1.356-1.116-1.62-2.508-1.788-.888-.108-1.536-.192-1.536-.864 0-.564.576-.924 1.428-.924.84 0 1.416.468 1.488 1.092h1.008c-.096-1.272-1.104-1.92-2.496-1.932-1.38-.012-2.4.72-2.4 1.836 0 1.272 1.092 1.548 2.46 1.716.912.108 1.584.168 1.584.936 0 .564-.612.936-1.476.936-1.02 0-1.656-.528-1.692-1.248h-1.008zm12.213-4.104c-1.092 0-1.56.456-1.848.924l-.132-.924h-.852V16h.984v-3.12c0-.972.348-2.04 1.632-2.04h.492v-.96h-.276zm1.633-1.032c.36 0 .636-.264.636-.636a.618.618 0 00-.636-.636.618.618 0 00-.636.636c0 .372.276.636.636.636zM106.188 16h.984V9.88h-.984V16zm2.08-2.016c.024 1.344 1.116 2.088 2.7 2.088 1.356 0 2.448-.708 2.448-1.848 0-1.356-1.116-1.62-2.508-1.788-.888-.108-1.536-.192-1.536-.864 0-.564.576-.924 1.428-.924.84 0 1.416.468 1.488 1.092h1.008c-.096-1.272-1.104-1.92-2.496-1.932-1.38-.012-2.4.72-2.4 1.836 0 1.272 1.092 1.548 2.46 1.716.912.108 1.584.168 1.584.936 0 .564-.612.936-1.476.936-1.02 0-1.656-.528-1.692-1.248h-1.008zm6.24 2.016h.984v-1.608l1.236-1.272 2.028 2.88h1.188l-2.556-3.588 2.388-2.532h-1.212l-3.072 3.252V7.6h-.984V16z" fill="#000"/></svg>