<svg width="192" height="14" viewBox="0 0 192 14" fill="none" xmlns="http://www.w3.org/2000/svg"><path d="M.235 3.96h2.543V11h1.354V3.96h2.543V2.759H.235v1.2zm11.912 5.933c-.26 0-.389-.082-.389-.388V7.09c0-1.424-.918-2.19-2.519-2.19-1.519 0-2.531.73-2.66 1.908h1.247c.094-.53.6-.883 1.354-.883.836 0 1.319.412 1.319 1.083v.365h-1.52c-1.683 0-2.577.694-2.577 1.93 0 1.12.918 1.767 2.237 1.767.977 0 1.589-.424 1.99-1.036 0 .6.282.965 1.106.965h.67V9.893h-.258zm-1.648-1.365c-.012.93-.624 1.554-1.684 1.554-.695 0-1.118-.354-1.118-.86 0-.612.435-.906 1.224-.906H10.5v.212zm2.6 2.472h1.271V9.47l1.083-1.13L17.231 11h1.507l-2.414-3.59 2.273-2.438H17.1l-2.731 2.92V2.759h-1.271V11zm8.735.07c1.496 0 2.508-.906 2.72-2.095h-1.271c-.177.671-.742 1.06-1.52 1.06-1 0-1.647-.671-1.683-1.696v-.082h4.545c.023-.165.035-.33.035-.483-.035-1.766-1.2-2.873-2.943-2.873-1.778 0-2.967 1.237-2.967 3.097 0 1.848 1.19 3.073 3.084 3.073zm-1.707-3.743c.095-.86.79-1.401 1.602-1.401.883 0 1.507.506 1.613 1.4h-3.215zM34.21 9.893c-.259 0-.388-.082-.388-.388V7.09c0-1.424-.919-2.19-2.52-2.19-1.518 0-2.531.73-2.66 1.908h1.248c.094-.53.6-.883 1.353-.883.836 0 1.319.412 1.319 1.083v.365h-1.519c-1.683 0-2.578.694-2.578 1.93 0 1.12.918 1.767 2.237 1.767.977 0 1.59-.424 1.99-1.036 0 .6.282.965 1.106.965h.671V9.893h-.259zm-1.648-1.365c-.012.93-.624 1.554-1.684 1.554-.694 0-1.118-.354-1.118-.86 0-.612.436-.906 1.224-.906h1.578v.212zm9.32 2.543c1.92 0 3.32-1.13 3.58-2.873H44.06c-.26 1.048-1.048 1.684-2.19 1.684-1.554 0-2.496-1.248-2.496-3.003 0-1.766.965-3.002 2.531-3.002 1.119 0 1.896.648 2.166 1.684h1.401c-.27-1.743-1.624-2.873-3.508-2.873-2.437 0-3.98 1.684-3.98 4.191 0 2.532 1.496 4.192 3.898 4.192zm4.7-.071h1.354V7.515h3.225V6.35h-3.225V3.96h3.908V2.759h-5.262V11zm9.102 0c2.579 0 4.203-1.684 4.203-4.132 0-2.45-1.624-4.11-4.203-4.11h-2.802V11h2.802zm-1.448-7.064h1.448c1.813 0 2.814 1.166 2.814 2.932s-1 2.955-2.814 2.955h-1.448V3.936zm12.952.965c-.942 0-1.565.436-1.966.966l-.153-.895h-1.107v8.383h1.272v-3.203c.377.542 1.024.919 1.954.919 1.649 0 2.85-1.225 2.85-3.085 0-1.93-1.201-3.085-2.85-3.085zM66.976 10c-1.06 0-1.754-.836-1.754-2.036 0-1.166.695-1.978 1.755-1.978s1.766.812 1.766 2.001c0 1.177-.707 2.013-1.766 2.013zm6.93 1.072c1.836 0 3.072-1.237 3.072-3.085 0-1.837-1.236-3.085-3.072-3.085-1.837 0-3.073 1.248-3.073 3.085 0 1.848 1.236 3.085 3.073 3.085zm0-1.083c-1.072 0-1.767-.836-1.767-2.002 0-1.165.695-2.001 1.767-2.001 1.07 0 1.777.836 1.777 2.001 0 1.166-.706 2.002-1.778 2.002zm3.801-.978c.036 1.307 1.142 2.06 2.755 2.06 1.46 0 2.555-.73 2.555-1.883 0-1.342-1.118-1.625-2.496-1.79-.871-.094-1.448-.164-1.448-.73 0-.482.494-.788 1.248-.788.753 0 1.271.388 1.342.942h1.248c-.082-1.237-1.13-1.92-2.614-1.92-1.448-.011-2.472.73-2.472 1.872 0 1.248 1.083 1.543 2.46 1.708.93.117 1.484.164 1.484.812 0 .483-.518.789-1.307.789-.918 0-1.46-.448-1.507-1.072h-1.248zm6.943-4.886c.435 0 .777-.317.777-.765 0-.447-.342-.765-.777-.765-.436 0-.777.318-.777.765 0 .448.341.765.777.765zM84.002 11h1.272V4.972h-1.272V11zm2.954-1.636c0 1.094.494 1.636 1.648 1.636h1.177V9.882h-.894c-.483 0-.648-.177-.648-.648V6.091h1.472V4.972h-1.472V3.29h-1.283v1.683h-1.048v1.119h1.048v3.273zm4.282-5.24c.435 0 .777-.317.777-.765 0-.447-.342-.765-.777-.765-.436 0-.777.318-.777.765 0 .448.341.765.777.765zM90.59 11h1.272V4.972H90.59V11zm5.367.07c1.837 0 3.073-1.236 3.073-3.084 0-1.837-1.236-3.085-3.073-3.085-1.836 0-3.072 1.248-3.072 3.085 0 1.848 1.236 3.085 3.072 3.085zm0-1.082c-1.071 0-1.766-.836-1.766-2.002 0-1.165.695-2.001 1.766-2.001 1.072 0 1.778.836 1.778 2.001 0 1.166-.706 2.002-1.778 2.002zm7.274-5.087c-.977 0-1.554.389-1.931.86l-.141-.789h-1.106V11h1.271V7.963c0-1.225.6-1.967 1.613-1.967.954 0 1.436.613 1.436 1.755V11h1.284V7.645c0-2.014-1.095-2.744-2.426-2.744z" fill="url(#paint0_linear_42_837)"/><path d="M112.632 11h1.116l1.069-3.32 1.03 3.32h1.107l1.622-4.885h-1.05l-1.154 3.74-1.069-3.74h-.944l-1.117 3.74-1.116-3.74h-1.088L112.632 11zm9.053-4.942c-.764 0-1.231.343-1.536.763v-2.5h-1.031V11h1.031V8.529c0-.983.496-1.584 1.307-1.584.763 0 1.173.496 1.173 1.422V11h1.031V8.28c0-1.63-.888-2.222-1.975-2.222zm5.193 5c1.212 0 2.033-.735 2.204-1.7h-1.03c-.143.545-.601.86-1.231.86-.811 0-1.336-.544-1.364-1.374v-.067h3.682c.02-.134.029-.267.029-.391-.029-1.431-.973-2.328-2.385-2.328-1.441 0-2.405 1.001-2.405 2.509 0 1.498.964 2.49 2.5 2.49zm-1.383-3.035c.076-.696.639-1.135 1.297-1.135.716 0 1.222.41 1.308 1.135h-2.605zm7.082-1.965c-.792 0-1.259.314-1.564.696l-.115-.64h-.897V11h1.031V8.538c0-.992.486-1.593 1.307-1.593.773 0 1.164.496 1.164 1.422V11h1.04V8.28c0-1.63-.888-2.222-1.966-2.222zm7.653 5c1.489 0 2.49-1.003 2.49-2.5 0-1.489-1.001-2.5-2.49-2.5-1.488 0-2.49 1.011-2.49 2.5 0 1.497 1.002 2.5 2.49 2.5zm0-.878c-.868 0-1.431-.678-1.431-1.623 0-.944.563-1.622 1.431-1.622.868 0 1.441.678 1.441 1.622 0 .945-.573 1.623-1.441 1.623zm3.635-.506c0 .887.401 1.326 1.336 1.326h.954v-.906h-.725c-.392 0-.525-.144-.525-.525V7.02h1.192v-.906h-1.192V4.75h-1.04v1.365h-.849v.906h.849v2.653zm5.512-3.616c-.763 0-1.231.343-1.536.763v-2.5h-1.031V11h1.031V8.529c0-.983.496-1.584 1.307-1.584.763 0 1.173.496 1.173 1.422V11h1.031V8.28c0-1.63-.887-2.222-1.975-2.222zm5.193 5c1.212 0 2.033-.735 2.204-1.7h-1.03c-.143.545-.601.86-1.231.86-.811 0-1.336-.544-1.364-1.374v-.067h3.683c.019-.134.028-.267.028-.391-.028-1.431-.973-2.328-2.385-2.328-1.441 0-2.405 1.001-2.405 2.509 0 1.498.964 2.49 2.5 2.49zm-1.383-3.035c.076-.696.639-1.135 1.297-1.135.716 0 1.222.41 1.308 1.135h-2.605zm6.977-1.908c-.801 0-1.192.324-1.44.735l-.115-.735h-.916V11h1.031V8.548c0-.754.295-1.47 1.211-1.47h.458v-.963h-.229zm.571 3.273c.029 1.059.926 1.67 2.233 1.67 1.183 0 2.07-.592 2.07-1.527 0-1.088-.906-1.317-2.022-1.45-.707-.077-1.174-.134-1.174-.592 0-.391.401-.64 1.011-.64.611 0 1.031.315 1.088.764h1.011c-.066-1.002-.916-1.555-2.118-1.555-1.173-.01-2.003.591-2.003 1.517 0 1.011.877 1.25 1.994 1.383.753.096 1.202.134 1.202.659 0 .39-.42.639-1.059.639-.744 0-1.183-.363-1.221-.868h-1.012zm9.785 1.67c1.25 0 2.08-.697 2.271-1.804h-1.088c-.124.563-.544.926-1.173.926-.83 0-1.374-.659-1.374-1.613 0-.964.544-1.632 1.374-1.632.639 0 1.049.353 1.183.926h1.078c-.2-1.107-.983-1.803-2.242-1.803-1.479 0-2.452 1.001-2.452 2.509 0 1.527.944 2.49 2.423 2.49zm7.525-.955c-.21 0-.315-.067-.315-.315V7.832c0-1.154-.744-1.774-2.042-1.774-1.23 0-2.051.591-2.156 1.545h1.011c.077-.429.487-.715 1.098-.715.677 0 1.068.334 1.068.878v.295h-1.231c-1.364 0-2.089.563-2.089 1.565 0 .907.744 1.431 1.813 1.431.792 0 1.288-.343 1.612-.84 0 .487.229.783.897.783h.544v-.897h-.21zm-1.336-1.107c-.009.754-.505 1.26-1.364 1.26-.563 0-.907-.286-.907-.697 0-.496.354-.734.993-.734h1.278v.171zm4.683-2.938c-.792 0-1.259.314-1.564.696l-.115-.64h-.897V11h1.031V8.538c0-.992.486-1.593 1.307-1.593.773 0 1.164.496 1.164 1.422V11h1.04V8.28c0-1.63-.887-2.222-1.966-2.222zm3.147-1.794c-.439 0-.725.286-.725.649 0 .4.248.61.563.61a.522.522 0 00.315-.105c.009.048.009.086.009.134 0 .334-.238.706-.839.706v.563c.944-.01 1.536-.534 1.536-1.46 0-.62-.334-1.097-.859-1.097zm2.196 5.41c0 .887.401 1.326 1.336 1.326h.954v-.906h-.725c-.391 0-.525-.144-.525-.525V7.02h1.193v-.906h-1.193V4.75h-1.04v1.365h-.849v.906h.849v2.653zm2.906.734c0 .382.277.65.658.65.382 0 .668-.268.668-.65 0-.381-.286-.648-.668-.648-.381 0-.658.267-.658.648z" fill="#000"/><defs><linearGradient id="paint0_linear_42_837" x1="107" y1="6.5" x2="0" y2="6.5" gradientUnits="userSpaceOnUse"><stop stop-color="#FF4343"/><stop offset=".5" stop-color="#9C0B93"/><stop offset="1" stop-color="#4C1BB7"/></linearGradient></defs></svg>