<svg width="56" height="14" viewBox="0 0 56 14" fill="none" xmlns="http://www.w3.org/2000/svg"><rect width="56" height="14" rx="7" fill="#000"/><path d="M11.144 5.028h1.638V9.5h.627V5.028h1.638V4.45h-3.903v.577zm5.787.793c-.656 0-.937.274-1.11.556l-.08-.556h-.512V9.5h.591V7.625c0-.585.21-1.227.982-1.227h.295v-.577h-.166zm3.805 3.138c-.166 0-.238-.05-.238-.245V7.105c0-.858-.54-1.327-1.479-1.327-.887 0-1.471.426-1.557 1.147h.591c.072-.375.418-.62.938-.62.577 0 .916.288.916.764v.253h-1.082c-.967 0-1.479.41-1.479 1.147 0 .67.548 1.074 1.356 1.074.635 0 1.003-.281 1.234-.613.007.36.173.57.663.57h.325v-.541h-.188zm-.83-.96c0 .614-.425 1.04-1.16 1.04-.491 0-.801-.246-.801-.607 0-.418.296-.613.822-.613h1.14V8zm4.33-1.615c-.224-.354-.642-.606-1.262-.606-1.017 0-1.768.757-1.768 1.883 0 1.197.75 1.882 1.768 1.882.62 0 1.017-.295 1.262-.634l.08.591h.512V4.45h-.592v1.934zm-1.205 2.633c-.728 0-1.219-.556-1.219-1.356 0-.801.49-1.356 1.22-1.356.72 0 1.211.562 1.211 1.37 0 .786-.49 1.342-1.212 1.342zm4.297.526c.852 0 1.457-.54 1.602-1.276h-.599c-.123.476-.526.75-1.046.75-.7 0-1.14-.49-1.161-1.19v-.051h2.856a3.1 3.1 0 00.015-.252c-.03-1.09-.707-1.746-1.746-1.746-1.039 0-1.746.765-1.746 1.883 0 1.125.722 1.882 1.825 1.882zM26.16 7.286a1.09 1.09 0 011.096-.989c.613 0 1.046.354 1.104.989h-2.2zm7.2-1.508c-.62 0-.995.26-1.211.54l-.08-.497h-.512V9.5h.592V7.66c0-.829.418-1.341 1.11-1.341.643 0 .996.404.996 1.168V9.5h.592V7.451c0-1.219-.657-1.673-1.486-1.673zm3.894 3.765c1.075 0 1.825-.764 1.825-1.882 0-1.118-.75-1.883-1.825-1.883s-1.825.765-1.825 1.883c0 1.118.75 1.882 1.825 1.882zm0-.526c-.729 0-1.22-.57-1.22-1.356 0-.787.491-1.356 1.22-1.356.728 0 1.219.57 1.219 1.356 0 .786-.49 1.356-1.22 1.356zm3.227.483h.65l.923-2.734.887 2.734h.65l1.225-3.679h-.598l-.96 2.994-.916-2.994h-.548l-.967 2.994-.916-2.994h-.62l1.19 3.679z" fill="#fff"/></svg>