<svg width="99" height="24" viewBox="0 0 99 24" fill="none" xmlns="http://www.w3.org/2000/svg"><rect x=".287" y=".117" width="97.887" height="23.766" rx="11.883" fill="#fff"/><path d="M22.29 15.566c1.738 0 3.014-.99 3.3-2.585h-1.012c-.286 1.078-1.111 1.705-2.3 1.705-1.616 0-2.606-1.265-2.606-3.036 0-1.782 1.034-3.036 2.65-3.036 1.156 0 1.97.638 2.267 1.705H25.6c-.286-1.595-1.53-2.585-3.234-2.585-2.233 0-3.674 1.584-3.674 3.916 0 2.354 1.386 3.916 3.597 3.916zm4.323-.066h.902V7.8h-.902v7.7zm7.099-.825c-.253 0-.363-.077-.363-.374v-2.453c0-1.309-.825-2.024-2.255-2.024-1.353 0-2.244.649-2.376 1.749h.902c.11-.572.638-.946 1.43-.946.88 0 1.397.44 1.397 1.166v.385h-1.65c-1.474 0-2.255.627-2.255 1.749 0 1.023.836 1.639 2.068 1.639.968 0 1.529-.429 1.881-.935.011.55.264.869 1.012.869h.495v-.825h-.286zm-1.265-1.463c0 .935-.649 1.584-1.771 1.584-.748 0-1.221-.374-1.221-.924 0-.638.451-.935 1.254-.935h1.738v.275zm2.706-4.268c.33 0 .583-.242.583-.583a.567.567 0 00-.583-.583.567.567 0 00-.583.583c0 .341.253.583.583.583zm-.462 6.556h.902V9.89h-.902v5.61zm8.397-5.676c-1 0-1.606.462-1.947 1.067-.319-.715-.99-1.067-1.77-1.067-.87 0-1.343.429-1.64.836l-.12-.77h-.782v5.61h.902v-2.959c0-1.122.561-1.892 1.485-1.892.858 0 1.353.572 1.353 1.672V15.5h.902v-3.003c0-1.144.572-1.848 1.507-1.848.847 0 1.331.572 1.331 1.672V15.5h.902v-3.234c0-1.771-.957-2.442-2.123-2.442zm8.986 0c-.946 0-1.55.451-1.925.968V7.8h-.902v7.7h.781l.121-.858c.341.539.98.924 1.925.924 1.551 0 2.695-1.155 2.695-2.871 0-1.826-1.144-2.871-2.695-2.871zm-.088 4.939c-1.1 0-1.848-.858-1.848-2.09 0-1.199.748-2.046 1.848-2.046 1.111 0 1.86.847 1.86 2.068s-.749 2.068-1.86 2.068zm6.399.803c1.639 0 2.783-1.166 2.783-2.871s-1.144-2.871-2.783-2.871c-1.64 0-2.783 1.166-2.783 2.871s1.144 2.871 2.783 2.871zm0-.803c-1.111 0-1.86-.869-1.86-2.068s.749-2.068 1.86-2.068c1.11 0 1.859.869 1.859 2.068s-.748 2.068-1.86 2.068zm6.567-4.939c-.946 0-1.518.396-1.848.825l-.12-.759h-.782v5.61h.902v-2.805c0-1.265.638-2.046 1.694-2.046.98 0 1.518.616 1.518 1.782V15.5h.902v-3.124c0-1.859-1-2.552-2.266-2.552zm7.343 2.871c0 1.265-.616 2.046-1.639 2.046-.935 0-1.463-.616-1.463-1.782V9.89h-.902v3.124c0 1.859.98 2.552 2.211 2.552.924 0 1.463-.396 1.793-.814l.121.748h.781V9.89h-.902v2.805zm1.9.957c.023 1.232 1.024 1.914 2.476 1.914 1.243 0 2.244-.649 2.244-1.694 0-1.243-1.023-1.485-2.3-1.639-.813-.099-1.407-.176-1.407-.792 0-.517.528-.847 1.309-.847.77 0 1.298.429 1.364 1.001h.924c-.088-1.166-1.012-1.76-2.288-1.771-1.265-.011-2.2.66-2.2 1.683 0 1.166 1 1.419 2.255 1.573.836.099 1.452.154 1.452.858 0 .517-.561.858-1.353.858-.935 0-1.518-.484-1.551-1.144h-.924z" fill="#000"/></svg>