<svg width="92" height="31" viewBox="0 0 92 31" fill="none" xmlns="http://www.w3.org/2000/svg"><path d="M.286 2.449h3.089V11h1.644V2.449h3.09V.99H.285v1.459zm11.884 1.23c-1.201 0-1.787.486-2.16 1.1l-.17-1.1H8.465V11h1.545V7.325c0-1.13.443-2.202 1.816-2.202h.686V3.678h-.343zm7.765 5.977c-.315 0-.472-.1-.472-.472V6.252c0-1.73-1.115-2.66-3.06-2.66-1.845 0-3.075.887-3.232 2.317h1.516c.114-.643.73-1.072 1.644-1.072 1.016 0 1.602.5 1.602 1.315v.444h-1.845c-2.045 0-3.132.843-3.132 2.345 0 1.358 1.116 2.145 2.718 2.145 1.186 0 1.93-.515 2.416-1.259 0 .73.343 1.173 1.344 1.173h.816V9.656h-.315zm-2.002-1.659c-.014 1.13-.758 1.888-2.045 1.888-.844 0-1.358-.43-1.358-1.044 0-.744.529-1.101 1.487-1.101h1.916v.257zm8.665-3.303c-.472-.644-1.259-1.101-2.374-1.101-1.988 0-3.46 1.487-3.46 3.746 0 2.345 1.472 3.747 3.46 3.747 1.158 0 1.916-.544 2.388-1.187L26.798 11h1.344V.99h-1.544v3.704zm-2.117 5.09c-1.287 0-2.13-1-2.13-2.445 0-1.43.843-2.43 2.13-2.43s2.13 1 2.13 2.459c0 1.415-.843 2.416-2.13 2.416zm8.645 1.302c1.816 0 3.046-1.101 3.303-2.546h-1.544c-.215.816-.9 1.287-1.845 1.287-1.215 0-2.002-.815-2.045-2.059v-.1h5.52c.029-.2.043-.4.043-.586-.043-2.145-1.459-3.49-3.575-3.49-2.16 0-3.603 1.502-3.603 3.762 0 2.245 1.444 3.732 3.746 3.732zm-2.073-4.548c.114-1.043.958-1.701 1.944-1.701 1.073 0 1.83.615 1.96 1.701h-3.904zm10.512.172c0 2.846 1.345 4.376 3.933 4.376 2.603 0 3.961-1.53 3.961-4.376V.99h-1.644v5.806c0 1.859-.715 2.831-2.317 2.831-1.573 0-2.288-.972-2.288-2.831V.99h-1.645v5.72zm9.265 1.001c.057 2.002 1.559 3.375 4.047 3.375 2.202 0 3.704-1.244 3.704-3.046.014-1.973-1.602-2.503-3.26-2.803-1.574-.272-2.603-.486-2.603-1.516 0-.944.786-1.43 1.916-1.43 1.215 0 2.016.687 2.145 1.702h1.644c-.071-1.845-1.501-3.089-3.79-3.089-2.13 0-3.56 1.187-3.56 2.932 0 1.987 1.573 2.517 3.232 2.802 1.587.287 2.631.515 2.631 1.573 0 .959-.858 1.488-2.045 1.488-1.401 0-2.316-.787-2.402-1.96l-1.659-.028zM64.06 9.012c0 1.33.6 1.988 2.002 1.988h1.43V9.642h-1.087c-.586 0-.786-.215-.786-.787V5.037h1.787V3.678h-1.787V1.633h-1.559v2.045h-1.273v1.359h1.273v3.975zm7.736 2.074c1.816 0 3.046-1.101 3.303-2.546h-1.544c-.215.816-.901 1.287-1.845 1.287-1.216 0-2.002-.815-2.045-2.059v-.1h5.52c.028-.2.043-.4.043-.586-.043-2.145-1.459-3.49-3.575-3.49-2.16 0-3.604 1.502-3.604 3.762 0 2.245 1.444 3.732 3.747 3.732zM69.72 6.538c.115-1.043.958-1.701 1.945-1.701 1.073 0 1.83.615 1.96 1.701H69.72zm10.115 4.548c1.873 0 3.117-1.044 3.403-2.703h-1.63c-.186.844-.815 1.387-1.759 1.387-1.244 0-2.06-.986-2.06-2.416 0-1.445.816-2.446 2.06-2.446.958 0 1.573.53 1.773 1.387h1.616c-.3-1.659-1.473-2.702-3.36-2.702-2.217 0-3.675 1.501-3.675 3.76 0 2.289 1.415 3.733 3.632 3.733zm8.432-7.493c-1.144 0-1.845.514-2.302 1.144V.99H84.42V11h1.545V7.296c0-1.473.743-2.373 1.959-2.373 1.144 0 1.759.743 1.759 2.13V11h1.544V6.925c0-2.446-1.33-3.332-2.96-3.332zM4.233 28.086c1.816 0 3.046-1.101 3.303-2.546H5.992c-.215.816-.901 1.287-1.845 1.287-1.216 0-2.002-.815-2.045-2.059v-.1h5.52c.029-.2.043-.4.043-.586-.043-2.145-1.459-3.49-3.575-3.49-2.16 0-3.604 1.502-3.604 3.762 0 2.245 1.445 3.732 3.747 3.732zm-2.074-4.548c.115-1.044.958-1.701 1.945-1.701 1.073 0 1.83.615 1.96 1.701H2.158zm13.447 3.118c-.315 0-.472-.1-.472-.472v-2.932c0-1.73-1.116-2.66-3.06-2.66-1.845 0-3.075.887-3.232 2.317h1.516c.114-.643.729-1.072 1.644-1.072 1.015 0 1.602.5 1.602 1.315v.444h-1.845c-2.045 0-3.132.843-3.132 2.345 0 1.358 1.116 2.145 2.717 2.145 1.187 0 1.93-.515 2.417-1.259 0 .73.343 1.173 1.344 1.173h.815v-1.344h-.314zm-2.002-1.659c-.014 1.13-.758 1.888-2.045 1.888-.844 0-1.359-.43-1.359-1.044 0-.744.53-1.101 1.488-1.101h1.916v.257zm6.861-4.319c-1.2 0-1.787.487-2.159 1.101l-.172-1.1h-1.372V28h1.544v-3.675c0-1.13.443-2.202 1.816-2.202h.686v-1.445h-.343zm5.157-.085c-1.187 0-1.888.471-2.345 1.044l-.172-.959h-1.344V28h1.544v-3.69c0-1.487.73-2.387 1.96-2.387 1.158 0 1.744.743 1.744 2.13V28h1.559v-4.076c0-2.445-1.33-3.331-2.946-3.331zm5.137-.944c.529 0 .944-.386.944-.93 0-.543-.415-.93-.944-.93-.53 0-.944.387-.944.93 0 .544.415.93.944.93zM29.972 28h1.545v-7.322h-1.545V28zm6.92-7.407c-1.187 0-1.888.471-2.346 1.044l-.171-.959H33.03V28h1.544v-3.69c0-1.487.73-2.387 1.96-2.387 1.158 0 1.744.743 1.744 2.13V28h1.558v-4.076c0-2.445-1.33-3.331-2.945-3.331zm9.941 1.23c-.472-.73-1.258-1.23-2.402-1.23-1.988 0-3.46 1.473-3.46 3.718 0 2.33 1.472 3.718 3.46 3.718 1.144 0 1.902-.472 2.388-1.202v.815c0 1.402-.758 2.045-2.102 2.045-1.087 0-1.802-.472-1.988-1.287h-1.573c.143 1.645 1.502 2.546 3.447 2.546 2.63 0 3.746-1.259 3.746-3.246v-7.022h-1.344l-.172 1.144zm-2.145 4.904c-1.287 0-2.13-.986-2.13-2.416 0-1.416.843-2.417 2.13-2.417s2.131 1 2.131 2.445c0 1.402-.844 2.388-2.13 2.388zm4.856-1.144c.043 1.588 1.387 2.503 3.346 2.503 1.773 0 3.103-.887 3.103-2.288 0-1.63-1.358-1.974-3.032-2.174-1.058-.114-1.758-.2-1.758-.886 0-.587.6-.959 1.515-.959.915 0 1.545.472 1.63 1.145h1.516c-.1-1.502-1.372-2.331-3.174-2.331-1.76-.015-3.003.886-3.003 2.273 0 1.516 1.315 1.874 2.988 2.074 1.13.143 1.802.2 1.802.986 0 .587-.629.959-1.587.959-1.115 0-1.773-.544-1.83-1.302h-1.516zM60.849 28h1.544V17.99h-1.544V28zm3.844-8.351c.53 0 .944-.386.944-.93 0-.543-.415-.93-.944-.93-.529 0-.943.387-.943.93 0 .544.414.93.943.93zM63.907 28h1.544v-7.322h-1.544V28zm5.032 0h1.887l2.703-7.322h-1.63l-1.988 5.663-2.016-5.663h-1.66L68.94 28zm8.512.086c1.816 0 3.045-1.101 3.303-2.546h-1.545c-.214.816-.9 1.287-1.844 1.287-1.216 0-2.002-.815-2.045-2.059v-.1h5.52c.028-.2.042-.4.042-.586-.042-2.145-1.458-3.49-3.575-3.49-2.159 0-3.603 1.502-3.603 3.762 0 2.245 1.444 3.732 3.747 3.732zm-2.074-4.548c.114-1.044.958-1.701 1.945-1.701 1.072 0 1.83.615 1.959 1.701h-3.904z" fill="#000"/></svg>