<svg width="368" height="19" viewBox="0 0 368 19" fill="none" xmlns="http://www.w3.org/2000/svg"><path d="M.28 15H2.5V4.7L6.7 15h1.94l4.2-10.3V15h2.22V1h-2.92l-4.4 11.02L3.26 1H.28v14zm26.484-1.88c-.44 0-.66-.14-.66-.66v-4.1c0-2.42-1.56-3.72-4.28-3.72-2.58 0-4.3 1.24-4.52 3.24h2.12c.16-.9 1.02-1.5 2.3-1.5 1.42 0 2.24.7 2.24 1.84v.62h-2.58c-2.86 0-4.38 1.18-4.38 3.28 0 1.9 1.56 3 3.8 3 1.66 0 2.7-.72 3.38-1.76 0 1.02.48 1.64 1.88 1.64h1.14v-1.88h-.44zm-2.8-2.32c-.02 1.58-1.06 2.64-2.86 2.64-1.18 0-1.9-.6-1.9-1.46 0-1.04.74-1.54 2.08-1.54h2.68v.36zm3.976.82c.06 2.22 1.94 3.5 4.68 3.5 2.48 0 4.34-1.24 4.34-3.2 0-2.28-1.9-2.76-4.24-3.04-1.48-.16-2.46-.28-2.46-1.24 0-.82.84-1.34 2.12-1.34 1.28 0 2.16.66 2.28 1.6h2.12c-.14-2.1-1.92-3.26-4.44-3.26-2.46-.02-4.2 1.24-4.2 3.18 0 2.12 1.84 2.62 4.18 2.9 1.58.2 2.52.28 2.52 1.38 0 .82-.88 1.34-2.22 1.34-1.56 0-2.48-.76-2.56-1.82h-2.12zm11.434.6c0 1.86.84 2.78 2.8 2.78h2v-1.9h-1.52c-.82 0-1.1-.3-1.1-1.1V6.66h2.5v-1.9h-2.5V1.9h-2.18v2.86h-1.78v1.9h1.78v5.56zm10.82 2.9c2.54 0 4.26-1.54 4.62-3.56h-2.16c-.3 1.14-1.26 1.8-2.58 1.8-1.7 0-2.8-1.14-2.86-2.88v-.14h7.72c.04-.28.06-.56.06-.82-.06-3-2.04-4.88-5-4.88-3.02 0-5.04 2.1-5.04 5.26 0 3.14 2.02 5.22 5.24 5.22zm-2.9-6.36c.16-1.46 1.34-2.38 2.72-2.38 1.5 0 2.56.86 2.74 2.38h-5.46zm14.626-4c-1.68 0-2.5.68-3.02 1.54l-.24-1.54h-1.92V15h2.16V9.86c0-1.58.62-3.08 2.54-3.08h.96V4.76h-.48zm7.67 7.46c0 1.86.84 2.78 2.8 2.78h2v-1.9h-1.52c-.82 0-1.1-.3-1.1-1.1V6.66h2.5v-1.9h-2.5V1.9h-2.18v2.86h-1.78v1.9h1.78v5.56zm11.553-7.58c-1.6 0-2.58.72-3.22 1.6V1h-2.16v14h2.16V9.82c0-2.06 1.04-3.32 2.74-3.32 1.6 0 2.46 1.04 2.46 2.98V15h2.16V9.3c0-3.42-1.86-4.66-4.14-4.66zM92.03 15.12c2.54 0 4.26-1.54 4.62-3.56h-2.16c-.3 1.14-1.26 1.8-2.58 1.8-1.7 0-2.8-1.14-2.86-2.88v-.14h7.72c.04-.28.06-.56.06-.82-.06-3-2.04-4.88-5-4.88-3.02 0-5.04 2.1-5.04 5.26 0 3.14 2.02 5.22 5.24 5.22zm-2.9-6.36c.16-1.46 1.34-2.38 2.72-2.38 1.5 0 2.56.86 2.74 2.38h-5.46zm26.344-4.12c-1.68 0-2.84.74-3.5 1.86-.62-1.32-1.82-1.86-3.16-1.86-1.54.02-2.42.7-3 1.46l-.24-1.34h-1.88V15h2.16V9.52c0-1.82.92-3.02 2.4-3.02 1.42 0 2.16.94 2.16 2.74V15h2.18V9.46c0-1.84.94-2.96 2.42-2.96 1.4 0 2.14.94 2.14 2.74V15h2.16V9.1c0-3.24-1.72-4.46-3.84-4.46zm15.158 8.48c-.44 0-.66-.14-.66-.66v-4.1c0-2.42-1.56-3.72-4.28-3.72-2.58 0-4.3 1.24-4.52 3.24h2.12c.16-.9 1.02-1.5 2.3-1.5 1.42 0 2.24.7 2.24 1.84v.62h-2.58c-2.86 0-4.38 1.18-4.38 3.28 0 1.9 1.56 3 3.8 3 1.66 0 2.7-.72 3.38-1.76 0 1.02.48 1.64 1.88 1.64h1.14v-1.88h-.44zm-2.8-2.32c-.02 1.58-1.06 2.64-2.86 2.64-1.18 0-1.9-.6-1.9-1.46 0-1.04.74-1.54 2.08-1.54h2.68v.36zm9.597-6.04c-1.68 0-2.5.68-3.02 1.54l-.24-1.54h-1.92V15h2.16V9.86c0-1.58.62-3.08 2.54-3.08h.96V4.76h-.48zM139.24 15h2.16v-2.6l1.84-1.92 3.02 4.52h2.56l-4.1-6.1 3.86-4.14h-2.54l-4.64 4.96V1h-2.16v14zm14.84.12c2.54 0 4.26-1.54 4.62-3.56h-2.16c-.3 1.14-1.26 1.8-2.58 1.8-1.7 0-2.8-1.14-2.86-2.88v-.14h7.72c.04-.28.06-.56.06-.82-.06-3-2.04-4.88-5-4.88-3.02 0-5.04 2.1-5.04 5.26 0 3.14 2.02 5.22 5.24 5.22zm-2.9-6.36c.16-1.46 1.34-2.38 2.72-2.38 1.5 0 2.56.86 2.74 2.38h-5.46zm10.108 3.46c0 1.86.84 2.78 2.8 2.78h2v-1.9h-1.52c-.82 0-1.1-.3-1.1-1.1V6.66h2.5v-1.9h-2.5V1.9h-2.18v2.86h-1.78v1.9h1.78v5.56zm10.252-5.56h1.78V15h2.18V6.66h2.74v-1.9h-2.78V3.9c0-.7.3-1 1-1h1.78V1h-2.06c-1.98 0-2.86.96-2.86 2.8v.96h-1.78v1.9zm12.227 8.46c3.12 0 5.22-2.1 5.22-5.24 0-3.12-2.1-5.24-5.22-5.24-3.12 0-5.22 2.12-5.22 5.24 0 3.14 2.1 5.24 5.22 5.24zm0-1.84c-1.82 0-3-1.42-3-3.4s1.18-3.4 3-3.4 3.02 1.42 3.02 3.4-1.2 3.4-3.02 3.4zm12.137-8.52c-1.68 0-2.5.68-3.02 1.54l-.24-1.54h-1.92V15h2.16V9.86c0-1.58.62-3.08 2.54-3.08h.96V4.76h-.48zm6.024 10.36c2.62 0 4.36-1.46 4.76-3.78h-2.28c-.26 1.18-1.14 1.94-2.46 1.94-1.74 0-2.88-1.38-2.88-3.38 0-2.02 1.14-3.42 2.88-3.42 1.34 0 2.2.74 2.48 1.94h2.26c-.42-2.32-2.06-3.78-4.7-3.78-3.1 0-5.14 2.1-5.14 5.26 0 3.2 1.98 5.22 5.08 5.22zm11.273 0c2.54 0 4.26-1.54 4.62-3.56h-2.16c-.3 1.14-1.26 1.8-2.58 1.8-1.7 0-2.8-1.14-2.86-2.88v-.14h7.72c.04-.28.06-.56.06-.82-.06-3-2.04-4.88-5-4.88-3.02 0-5.04 2.1-5.04 5.26 0 3.14 2.02 5.22 5.24 5.22zm-2.9-6.36c.16-1.46 1.34-2.38 2.72-2.38 1.5 0 2.56.86 2.74 2.38h-5.46zm8.948 2.86c.06 2.22 1.94 3.5 4.68 3.5 2.48 0 4.34-1.24 4.34-3.2 0-2.28-1.9-2.76-4.24-3.04-1.48-.16-2.46-.28-2.46-1.24 0-.82.84-1.34 2.12-1.34 1.28 0 2.16.66 2.28 1.6h2.12c-.14-2.1-1.92-3.26-4.44-3.26-2.46-.02-4.2 1.24-4.2 3.18 0 2.12 1.84 2.62 4.18 2.9 1.58.2 2.52.28 2.52 1.38 0 .82-.88 1.34-2.22 1.34-1.56 0-2.48-.76-2.56-1.82h-2.12zM237.42 15h2.34L242 8.04l2.16 6.96h2.32l3.4-10.24h-2.2l-2.42 7.84-2.24-7.84h-1.98l-2.34 7.84-2.34-7.84h-2.28L237.42 15zm14.697-11.68c.74 0 1.32-.54 1.32-1.3s-.58-1.3-1.32-1.3c-.74 0-1.32.54-1.32 1.3s.58 1.3 1.32 1.3zm-1.1 11.68h2.16V4.76h-2.16V15zm5.017-2.78c0 1.86.84 2.78 2.8 2.78h2v-1.9h-1.52c-.82 0-1.1-.3-1.1-1.1V6.66h2.5v-1.9h-2.5V1.9h-2.18v2.86h-1.78v1.9h1.78v5.56zm11.554-7.58c-1.6 0-2.58.72-3.22 1.6V1h-2.16v14h2.16V9.82c0-2.06 1.04-3.32 2.74-3.32 1.6 0 2.46 1.04 2.46 2.98V15h2.16V9.3c0-3.42-1.86-4.66-4.14-4.66zm17.522 10.48c3.26 0 5.64-1.92 6.08-4.88h-2.38c-.44 1.78-1.78 2.86-3.72 2.86-2.64 0-4.24-2.12-4.24-5.1 0-3 1.64-5.1 4.3-5.1 1.9 0 3.22 1.1 3.68 2.86h2.38c-.46-2.96-2.76-4.88-5.96-4.88-4.14 0-6.76 2.86-6.76 7.12 0 4.3 2.54 7.12 6.62 7.12zm8.863-11.8c.74 0 1.32-.54 1.32-1.3s-.58-1.3-1.32-1.3c-.74 0-1.32.54-1.32 1.3s.58 1.3 1.32 1.3zm-1.1 11.68h2.16V4.76h-2.16V15zm5.017-2.78c0 1.86.84 2.78 2.8 2.78h2v-1.9h-1.52c-.82 0-1.1-.3-1.1-1.1V6.66h2.5v-1.9h-2.5V1.9h-2.18v2.86h-1.78v1.9h1.78v5.56zm9.134 2.84l-.4 1c-.32.84-.52 1.04-1.36 1.04h-1.52V19h2.32c1.5 0 1.94-.74 2.58-2.4l4.64-11.84h-2.3l-2.78 7.78-2.86-7.78h-2.3l3.98 10.3zm12.69-.06h2.3V1h-2.3v14zm10.043-10.36c-1.66 0-2.64.66-3.28 1.46l-.24-1.34h-1.88V15h2.16V9.84c0-2.08 1.02-3.34 2.74-3.34 1.62 0 2.44 1.04 2.44 2.98V15h2.18V9.3c0-3.42-1.86-4.66-4.12-4.66zm13.786 1.54c-.66-.9-1.76-1.54-3.32-1.54-2.78 0-4.84 2.08-4.84 5.24 0 3.28 2.06 5.24 4.84 5.24 1.62 0 2.68-.76 3.34-1.66l.26 1.54h1.88V1h-2.16v5.18zm-2.96 7.12c-1.8 0-2.98-1.4-2.98-3.42 0-2 1.18-3.4 2.98-3.4s2.98 1.4 2.98 3.44c0 1.98-1.18 3.38-2.98 3.38zm12.091 1.82c2.54 0 4.26-1.54 4.62-3.56h-2.16c-.3 1.14-1.26 1.8-2.58 1.8-1.7 0-2.8-1.14-2.86-2.88v-.14h7.72c.04-.28.06-.56.06-.82-.06-3-2.04-4.88-5-4.88-3.02 0-5.04 2.1-5.04 5.26 0 3.14 2.02 5.22 5.24 5.22zm-2.9-6.36c.16-1.46 1.34-2.38 2.72-2.38 1.5 0 2.56.86 2.74 2.38h-5.46zm7.917 6.24h2.38l2.7-3.72 2.68 3.72h2.52l-3.86-5.24 3.64-5h-2.38l-2.5 3.46-2.44-3.46h-2.52l3.62 5-3.84 5.24z" fill="#000"/></svg>