<svg width="60" height="21" viewBox="0 0 60 21" fill="none" xmlns="http://www.w3.org/2000/svg"><path d="M40.24 8.193h-3.067C36.332 3.44 32.81.555 27.486.555c-5.985 0-9.854 3.953-9.854 10.06 0 6.107 3.749 9.972 9.854 9.94 4.977 0 8.507-2.712 9.557-7.156h2.078l.635-1.738h-2.437a14.026 14.026 0 00.037-1.737h2.28l.605-1.737v.006zm-8.578 3.474h-3.27l-.634 1.737h3.729c-.42 2.602-1.547 4.402-3.88 4.402-3.083 0-4.292-3.236-4.292-7.245 0-4.01.967-7.216 4.082-7.245 2.448 0 3.714 2.022 4.133 4.88h-2.652l-.606 1.737h3.404c.006.207.012.415.012.628 0 .378-.009.748-.026 1.109v-.003zM.707 20.078h5.35v-6.796h9.098V8.881H6.057V5.645h10.065v-4.64H.707v19.073zM55.114 13.43c2.388-1.018 3.958-2.966 3.958-5.869v-.06c0-1.856-.574-3.352-1.693-4.432-1.297-1.288-3.355-2.064-6.286-2.064h-9.127v19.073h5.35v-5.78h2.356l3.87 5.78h6.165L55.11 13.43h.003zm-1.392-5.542c0 1.408-1.056 2.275-2.87 2.275h-3.539V5.554h3.507c1.814 0 2.902.779 2.902 2.275v.06z" fill="#fff"/></svg>