<svg width="260" height="20" viewBox="0 0 260 20" fill="none" xmlns="http://www.w3.org/2000/svg"><path d="M.344 15h2.415V9.666h3.234L8.828 15h2.688L8.408 9.141c1.722-.609 2.856-2.184 2.856-4.158C11.264 2.127 9.206.3 6.14.3H.344V15zM5.951 2.4c1.722 0 2.835 1.008 2.835 2.583 0 1.575-1.113 2.583-2.835 2.583H2.759V2.4h3.192zm11.836 12.726c2.667 0 4.473-1.617 4.851-3.738H20.37c-.315 1.197-1.323 1.89-2.709 1.89-1.785 0-2.94-1.197-3.003-3.024v-.147h8.106a6.16 6.16 0 00.063-.861c-.063-3.15-2.142-5.124-5.25-5.124-3.17 0-5.292 2.205-5.292 5.523 0 3.297 2.121 5.481 5.502 5.481zm-3.045-6.678c.168-1.533 1.407-2.499 2.856-2.499 1.575 0 2.688.903 2.877 2.499h-5.733zm19.747 4.578c-.462 0-.693-.147-.693-.693V8.028c0-2.541-1.638-3.906-4.494-3.906-2.71 0-4.515 1.302-4.746 3.402h2.226c.168-.945 1.07-1.575 2.415-1.575 1.49 0 2.352.735 2.352 1.932v.651h-2.71c-3.002 0-4.598 1.239-4.598 3.444 0 1.995 1.638 3.15 3.99 3.15 1.743 0 2.835-.756 3.549-1.848 0 1.071.504 1.722 1.974 1.722h1.197v-1.974h-.462zm-2.94-2.436c-.021 1.659-1.113 2.772-3.003 2.772-1.24 0-1.995-.63-1.995-1.533 0-1.092.777-1.617 2.184-1.617h2.814v.378zm12.724-4.851c-.693-.945-1.848-1.617-3.486-1.617-2.919 0-5.082 2.184-5.082 5.502 0 3.444 2.163 5.502 5.082 5.502 1.701 0 2.814-.798 3.507-1.743L44.567 15h1.974V.3h-2.268v5.439zm-3.108 7.476c-1.89 0-3.129-1.47-3.129-3.591 0-2.1 1.24-3.57 3.13-3.57s3.128 1.47 3.128 3.612c0 2.079-1.239 3.549-3.129 3.549zm10.7 1.848l-.42 1.05c-.336.882-.545 1.092-1.428 1.092h-1.596V19.2h2.437c1.575 0 2.037-.777 2.709-2.52l4.871-12.432h-2.415l-2.919 8.169-3.002-8.169h-2.415l4.178 10.815zm12.002-8.82h1.869V15h2.289V6.243h2.877V4.248h-2.92v-.903c0-.735.316-1.05 1.05-1.05h1.87V.3h-2.163c-2.08 0-3.003 1.008-3.003 2.94v1.008h-1.87v1.995zm12.839 8.883c3.276 0 5.48-2.205 5.48-5.502 0-3.276-2.204-5.502-5.48-5.502-3.276 0-5.481 2.226-5.481 5.502 0 3.297 2.205 5.502 5.48 5.502zm0-1.932c-1.911 0-3.15-1.491-3.15-3.57 0-2.079 1.239-3.57 3.15-3.57 1.91 0 3.17 1.491 3.17 3.57 0 2.079-1.26 3.57-3.17 3.57zm12.743-8.946c-1.763 0-2.624.714-3.17 1.617l-.252-1.617H84.01V15h2.268V9.603c0-1.659.651-3.234 2.667-3.234h1.009V4.248h-.504zm8.053 7.833c0 1.953.882 2.919 2.94 2.919h2.1v-1.995h-1.596c-.861 0-1.155-.315-1.155-1.155V6.243h2.625V4.248h-2.625V1.245h-2.289v3.003h-1.869v1.995h1.87v5.838zm12.132-7.959c-1.68 0-2.709.756-3.381 1.68V.3h-2.268V15h2.268V9.561c0-2.163 1.092-3.486 2.877-3.486 1.68 0 2.583 1.092 2.583 3.129V15h2.268V9.015c0-3.591-1.953-4.893-4.347-4.893zm11.431 11.004c2.667 0 4.473-1.617 4.851-3.738h-2.268c-.315 1.197-1.323 1.89-2.709 1.89-1.785 0-2.94-1.197-3.003-3.024v-.147h8.106a6.16 6.16 0 00.063-.861c-.063-3.15-2.142-5.124-5.25-5.124-3.171 0-5.292 2.205-5.292 5.523 0 3.297 2.121 5.481 5.502 5.481zm-3.045-6.678c.168-1.533 1.407-2.499 2.856-2.499 1.575 0 2.688.903 2.877 2.499h-5.733zm20.73-4.2c-1.764 0-2.625.714-3.171 1.617l-.252-1.617h-2.016V15h2.268V9.603c0-1.659.651-3.234 2.667-3.234h1.008V4.248h-.504zm6.493 10.878c2.667 0 4.473-1.617 4.851-3.738h-2.268c-.315 1.197-1.323 1.89-2.709 1.89-1.785 0-2.94-1.197-3.003-3.024v-.147h8.106a6.16 6.16 0 00.063-.861c-.063-3.15-2.142-5.124-5.25-5.124-3.171 0-5.292 2.205-5.292 5.523 0 3.297 2.121 5.481 5.502 5.481zm-3.045-6.678c.168-1.533 1.407-2.499 2.856-2.499 1.575 0 2.688.903 2.877 2.499h-5.733zm19.747 4.578c-.462 0-.693-.147-.693-.693V8.028c0-2.541-1.638-3.906-4.494-3.906-2.709 0-4.515 1.302-4.746 3.402h2.226c.168-.945 1.071-1.575 2.415-1.575 1.491 0 2.352.735 2.352 1.932v.651h-2.709c-3.003 0-4.599 1.239-4.599 3.444 0 1.995 1.638 3.15 3.99 3.15 1.743 0 2.835-.756 3.549-1.848 0 1.071.504 1.722 1.974 1.722h1.197v-1.974h-.462zm-2.94-2.436c-.021 1.659-1.113 2.772-3.003 2.772-1.239 0-1.995-.63-1.995-1.533 0-1.092.777-1.617 2.184-1.617h2.814v.378zm4.637 4.41h2.268V.3h-2.268V15zm22.234-10.878c-1.764 0-2.982.777-3.675 1.953-.651-1.386-1.911-1.953-3.318-1.953-1.617.021-2.541.735-3.15 1.533l-.252-1.407h-1.974V15h2.268V9.246c0-1.911.966-3.171 2.52-3.171 1.491 0 2.268.987 2.268 2.877V15h2.289V9.183c0-1.932.987-3.108 2.541-3.108 1.47 0 2.247.987 2.247 2.877V15h2.268V8.805c0-3.402-1.806-4.683-4.032-4.683zm15.916 8.904c-.462 0-.693-.147-.693-.693V8.028c0-2.541-1.638-3.906-4.494-3.906-2.709 0-4.515 1.302-4.746 3.402h2.226c.168-.945 1.071-1.575 2.415-1.575 1.491 0 2.352.735 2.352 1.932v.651h-2.709c-3.003 0-4.599 1.239-4.599 3.444 0 1.995 1.638 3.15 3.99 3.15 1.743 0 2.835-.756 3.549-1.848 0 1.071.504 1.722 1.974 1.722h1.197v-1.974h-.462zm-2.94-2.436c-.021 1.659-1.113 2.772-3.003 2.772-1.239 0-1.995-.63-1.995-1.533 0-1.092.777-1.617 2.184-1.617h2.814v.378zm10.076-6.342c-1.764 0-2.625.714-3.171 1.617l-.252-1.617h-2.016V15h2.268V9.603c0-1.659.651-3.234 2.667-3.234h1.008V4.248h-.504zM210.831 15h2.268v-2.73l1.932-2.016L218.202 15h2.688l-4.305-6.405 4.053-4.347h-2.667l-4.872 5.208V.3h-2.268V15zm15.582.126c2.667 0 4.473-1.617 4.851-3.738h-2.268c-.315 1.197-1.323 1.89-2.709 1.89-1.785 0-2.94-1.197-3.003-3.024v-.147h8.106a6.16 6.16 0 00.063-.861c-.063-3.15-2.142-5.124-5.25-5.124-3.171 0-5.292 2.205-5.292 5.523 0 3.297 2.121 5.481 5.502 5.481zm-3.045-6.678c.168-1.533 1.407-2.499 2.856-2.499 1.575 0 2.688.903 2.877 2.499h-5.733zm10.614 3.633c0 1.953.882 2.919 2.94 2.919h2.1v-1.995h-1.596c-.861 0-1.155-.315-1.155-1.155V6.243h2.625V4.248h-2.625V1.245h-2.289v3.003h-1.869v1.995h1.869v5.838zm6.021-.63c.063 2.331 2.037 3.675 4.914 3.675 2.604 0 4.557-1.302 4.557-3.36 0-2.394-1.995-2.898-4.452-3.192-1.554-.168-2.583-.294-2.583-1.302 0-.861.882-1.407 2.226-1.407 1.344 0 2.268.693 2.394 1.68h2.226c-.147-2.205-2.016-3.423-4.662-3.423-2.583-.021-4.41 1.302-4.41 3.339 0 2.226 1.932 2.751 4.389 3.045 1.659.21 2.646.294 2.646 1.449 0 .861-.924 1.407-2.331 1.407-1.638 0-2.604-.798-2.688-1.911h-2.226zm12.501-6.342c0-1.743 1.05-2.919 2.667-2.919 1.407 0 2.352.84 2.352 2.037 0 1.008-.546 1.68-1.491 2.31-1.26.819-2.247 1.512-2.247 3.213v.672h2.142v-.42c0-1.05.714-1.596 1.848-2.373 1.092-.777 2.1-1.701 2.1-3.633 0-2.205-1.806-3.822-4.725-3.822-3.129 0-4.956 2.205-4.956 4.935h2.31zm.966 8.61c0 .84.63 1.407 1.449 1.407.819 0 1.428-.567 1.428-1.407 0-.84-.609-1.407-1.428-1.407s-1.449.567-1.449 1.407z" fill="#000"/></svg>