<svg width="139" height="164" viewBox="0 0 139 164" fill="none" xmlns="http://www.w3.org/2000/svg"><path d="M1.214 85.436h2.88v7.8h.648v-7.8h2.88v-.6H1.214v.6zm9.198 1.716c-1.128 0-1.608.54-1.86 1.212l-.096-1.212h-.528v6.084h.612v-3.084c0-1.236.324-2.412 1.752-2.412h.444v-.588h-.324zm6.325 5.52c-.36 0-.54-.12-.54-.588v-2.832c0-1.392-.852-2.172-2.376-2.172-1.392 0-2.316.672-2.472 1.776h.612c.156-.744.804-1.236 1.836-1.236 1.14 0 1.788.6 1.788 1.608v.528h-2.064c-1.56 0-2.4.672-2.4 1.812 0 1.08.852 1.74 2.148 1.74 1.236 0 1.968-.564 2.34-1.32v.216c-.024.72.276 1.032.996 1.032h.36v-.564h-.228zm-1.152-1.896c0 1.164-.828 2.004-2.268 2.004-.972 0-1.572-.492-1.572-1.248 0-.804.6-1.248 1.728-1.248h2.112v.492zm7.073-2.256c-.372-.864-1.188-1.44-2.328-1.44-1.668 0-2.868 1.272-2.868 3.108 0 1.92 1.2 3.12 2.868 3.12 1.14 0 1.932-.612 2.316-1.464l.096 1.392h.528v-8.4h-.612v3.684zm-2.28 4.236c-1.356 0-2.292-1.056-2.292-2.568 0-1.5.936-2.568 2.292-2.568 1.356 0 2.292 1.068 2.292 2.58 0 1.5-.936 2.556-2.292 2.556zm7.02.552c1.332 0 2.352-.864 2.616-2.088h-.624c-.24.948-1.044 1.536-2.04 1.536-1.356 0-2.208-1.032-2.232-2.448V90.2h4.968c0-.084.012-.18.012-.252-.06-1.812-1.176-2.868-2.808-2.868-1.668 0-2.808 1.272-2.808 3.072 0 1.908 1.188 3.156 2.916 3.156zm-2.232-3.624c.096-1.236 1.02-2.064 2.136-2.064 1.188 0 2.04.732 2.136 2.064h-4.272zm9.832 2.136c0 .972.396 1.416 1.428 1.416h.888v-.564h-.84c-.636 0-.864-.24-.864-.864v-4.092h1.644v-.564H35.61v-1.704h-.612v1.704h-1.152v.564h1.152v4.104zm5.747 1.488c1.332 0 2.352-.864 2.616-2.088h-.624c-.24.948-1.044 1.536-2.04 1.536-1.356 0-2.208-1.032-2.232-2.448V90.2h4.968c0-.084.012-.18.012-.252-.06-1.812-1.176-2.868-2.808-2.868-1.668 0-2.808 1.272-2.808 3.072 0 1.908 1.188 3.156 2.916 3.156zm-2.232-3.624c.096-1.236 1.02-2.064 2.136-2.064 1.188 0 2.04.732 2.136 2.064h-4.272zm8.794 3.624c1.38 0 2.352-.792 2.592-2.028h-.648c-.204.9-.936 1.476-1.944 1.476-1.332 0-2.256-1.044-2.256-2.556s.912-2.58 2.256-2.58c1.02 0 1.74.576 1.956 1.488h.636c-.252-1.26-1.2-2.028-2.58-2.028-1.716 0-2.892 1.272-2.892 3.12 0 1.872 1.164 3.108 2.88 3.108zm6.59-6.228c-1.14 0-1.849.636-2.197 1.512v-3.756h-.611v8.4h.611v-3c0-1.584.804-2.592 2.1-2.592 1.165 0 1.885.768 1.885 2.208v3.384h.611v-3.408c0-1.92-1.02-2.748-2.4-2.748zm9.688 6.228c1.332 0 2.352-.864 2.616-2.088h-.624c-.24.948-1.044 1.536-2.04 1.536-1.356 0-2.208-1.032-2.232-2.448V90.2h4.968c0-.084.012-.18.012-.252-.06-1.812-1.176-2.868-2.808-2.868-1.668 0-2.808 1.272-2.808 3.072 0 1.908 1.188 3.156 2.916 3.156zm-2.232-3.624c.096-1.236 1.02-2.064 2.136-2.064 1.188 0 2.04.732 2.136 2.064h-4.272zm11.494 2.988c-.36 0-.54-.12-.54-.588v-2.832c0-1.392-.852-2.172-2.376-2.172-1.392 0-2.316.672-2.472 1.776h.612c.156-.744.804-1.236 1.836-1.236 1.14 0 1.788.6 1.788 1.608v.528H69.63c-1.56 0-2.4.672-2.4 1.812 0 1.08.852 1.74 2.148 1.74 1.236 0 1.968-.564 2.34-1.32v.216c-.024.72.276 1.032.996 1.032h.36v-.564h-.228zm-1.152-1.896c0 1.164-.828 2.004-2.268 2.004-.972 0-1.572-.492-1.572-1.248 0-.804.6-1.248 1.728-1.248h2.112v.492zm4.682-3.624c-1.128 0-1.608.54-1.86 1.212l-.096-1.212h-.528v6.084h.612v-3.084c0-1.236.324-2.412 1.752-2.412h.444v-.588h-.324zm4.039-.072c-1.116 0-1.836.576-2.184 1.368l-.096-1.296h-.528v6.084h.612v-3c0-1.584.804-2.592 2.1-2.592 1.176 0 1.884.768 1.884 2.208v3.384h.612v-3.408c0-1.92-1.02-2.748-2.4-2.748zm4.067-1.212c.24 0 .431-.18.431-.432a.423.423 0 00-.431-.432c-.24 0-.433.18-.433.432s.193.432.433.432zm-.313 7.368h.612v-6.084h-.611v6.084zm4.86-6.156c-1.117 0-1.837.576-2.185 1.368l-.096-1.296h-.528v6.084h.612v-3c0-1.584.804-2.592 2.1-2.592 1.176 0 1.884.768 1.884 2.208v3.384h.612v-3.408c0-1.92-1.02-2.748-2.4-2.748zm8.71 1.488c-.372-.9-1.188-1.488-2.316-1.488-1.668 0-2.868 1.26-2.868 3.108 0 1.92 1.2 3.12 2.868 3.12 1.14 0 1.944-.6 2.328-1.548v1.08c0 1.62-.768 2.316-2.232 2.316-1.14 0-1.932-.516-2.124-1.44h-.636c.192 1.296 1.236 1.992 2.712 1.992 1.968 0 2.892-.936 2.892-2.844v-5.712h-.528l-.096 1.416zm-2.268 4.188c-1.356 0-2.292-1.056-2.292-2.568s.936-2.568 2.292-2.568c1.356 0 2.292 1.056 2.292 2.58 0 1.5-.936 2.556-2.292 2.556zm4.055-1.392c.048 1.26 1.068 1.944 2.592 1.944 1.308 0 2.364-.66 2.364-1.74 0-1.284-1.128-1.536-2.436-1.716-.948-.132-1.788-.24-1.788-1.092 0-.696.684-1.152 1.716-1.152.972 0 1.668.468 1.776 1.26h.624c-.108-1.188-1.08-1.788-2.4-1.788-1.356-.012-2.328.684-2.328 1.728 0 1.224 1.128 1.452 2.376 1.62 1.02.144 1.848.276 1.848 1.176 0 .72-.756 1.176-1.752 1.176-1.164 0-1.92-.54-1.968-1.416h-.624zm14.71 1.308c-.36 0-.54-.12-.54-.588v-2.832c0-1.392-.852-2.172-2.376-2.172-1.392 0-2.316.672-2.472 1.776h.612c.156-.744.804-1.236 1.836-1.236 1.14 0 1.788.6 1.788 1.608v.528h-2.064c-1.56 0-2.4.672-2.4 1.812 0 1.08.852 1.74 2.148 1.74 1.236 0 1.968-.564 2.34-1.32v.216c-.024.72.276 1.032.996 1.032h.36v-.564h-.228zm-1.152-1.896c0 1.164-.828 2.004-2.268 2.004-.972 0-1.572-.492-1.572-1.248 0-.804.6-1.248 1.728-1.248h2.112v.492zm1.923.588c.048 1.26 1.068 1.944 2.592 1.944 1.308 0 2.364-.66 2.364-1.74 0-1.284-1.128-1.536-2.436-1.716-.948-.132-1.788-.24-1.788-1.092 0-.696.684-1.152 1.716-1.152.972 0 1.668.468 1.776 1.26h.624c-.108-1.188-1.08-1.788-2.4-1.788-1.356-.012-2.328.684-2.328 1.728 0 1.224 1.128 1.452 2.376 1.62 1.02.144 1.848.276 1.848 1.176 0 .72-.756 1.176-1.752 1.176-1.164 0-1.92-.54-1.968-1.416h-.624zm-113.59 15c.048 1.26 1.068 1.944 2.592 1.944 1.308 0 2.364-.66 2.364-1.74 0-1.284-1.128-1.536-2.436-1.716-.948-.132-1.788-.24-1.788-1.092 0-.696.684-1.152 1.716-1.152.972 0 1.668.468 1.776 1.26h.624c-.108-1.188-1.08-1.788-2.4-1.788-1.356-.012-2.328.684-2.328 1.728 0 1.224 1.128 1.452 2.376 1.62 1.02.144 1.848.276 1.848 1.176 0 .72-.756 1.176-1.752 1.176-1.164 0-1.92-.54-1.968-1.416h-.624zm8.812 1.944c1.716 0 2.928-1.272 2.928-3.12 0-1.836-1.212-3.108-2.928-3.108s-2.916 1.272-2.916 3.108c0 1.848 1.2 3.12 2.916 3.12zm0-.552c-1.356 0-2.292-1.056-2.292-2.568 0-1.5.936-2.568 2.292-2.568 1.356 0 2.292 1.068 2.292 2.568 0 1.512-.936 2.568-2.292 2.568zm6.832.552c1.716 0 2.928-1.272 2.928-3.12 0-1.836-1.212-3.108-2.928-3.108s-2.916 1.272-2.916 3.108c0 1.848 1.2 3.12 2.916 3.12zm0-.552c-1.356 0-2.292-1.056-2.292-2.568 0-1.5.936-2.568 2.292-2.568 1.356 0 2.292 1.068 2.292 2.568 0 1.512-.936 2.568-2.292 2.568zm6.952-5.676c-1.116 0-1.836.576-2.184 1.368l-.096-1.296h-.528v6.084h.612v-3c0-1.584.804-2.592 2.1-2.592 1.176 0 1.884.768 1.884 2.208v3.384h.612v-3.408c0-1.92-1.02-2.748-2.4-2.748zm12.34 5.592c-.36 0-.54-.12-.54-.588v-2.832c0-1.392-.851-2.172-2.375-2.172-1.392 0-2.316.672-2.472 1.776h.612c.156-.744.804-1.236 1.836-1.236 1.14 0 1.788.6 1.788 1.608v.528h-2.064c-1.56 0-2.4.672-2.4 1.812 0 1.08.852 1.74 2.148 1.74 1.236 0 1.968-.564 2.34-1.32v.216c-.024.72.276 1.032.996 1.032h.36v-.564h-.228zm-1.151-1.896c0 1.164-.828 2.004-2.268 2.004-.972 0-1.572-.492-1.572-1.248 0-.804.6-1.248 1.728-1.248h2.112v.492zm1.922.588c.048 1.26 1.068 1.944 2.592 1.944 1.308 0 2.364-.66 2.364-1.74 0-1.284-1.128-1.536-2.436-1.716-.948-.132-1.788-.24-1.788-1.092 0-.696.684-1.152 1.716-1.152.972 0 1.668.468 1.776 1.26h.624c-.108-1.188-1.08-1.788-2.4-1.788-1.356-.012-2.328.684-2.328 1.728 0 1.224 1.128 1.452 2.376 1.62 1.02.144 1.848.276 1.848 1.176 0 .72-.756 1.176-1.752 1.176-1.164 0-1.92-.54-1.968-1.416h-.624zm9.814.456c0 .972.396 1.416 1.428 1.416h.888v-.564h-.84c-.636 0-.864-.24-.864-.864v-4.092h1.644v-.564h-1.644v-1.704h-.612v1.704h-1.152v.564h1.152v4.104zm6.055-4.74c-1.14 0-1.848.636-2.196 1.512v-3.756h-.612v8.4h.612v-3c0-1.584.804-2.592 2.1-2.592 1.164 0 1.884.768 1.884 2.208v3.384h.612v-3.408c0-1.92-1.02-2.748-2.4-2.748zm6.36 6.228c1.333 0 2.353-.864 2.617-2.088h-.624c-.24.948-1.044 1.536-2.04 1.536-1.356 0-2.208-1.032-2.232-2.448v-.108h4.968c0-.084.012-.18.012-.252-.06-1.812-1.176-2.868-2.808-2.868-1.668 0-2.808 1.272-2.808 3.072 0 1.908 1.188 3.156 2.916 3.156zm-2.231-3.624c.096-1.236 1.02-2.064 2.136-2.064 1.188 0 2.04.732 2.136 2.064h-4.272zm7.708 3.552l-.397.984c-.275.672-.383.852-1.008.852h-.768v.564h.936c.816 0 1.009-.312 1.393-1.272l2.916-7.212h-.66l-2.076 5.292-2.113-5.292h-.66l2.437 6.084zm12.48-.564c-.36 0-.54-.12-.54-.588v-2.832c0-1.392-.851-2.172-2.375-2.172-1.392 0-2.316.672-2.472 1.776h.612c.156-.744.804-1.236 1.836-1.236 1.14 0 1.788.6 1.788 1.608v.528h-2.064c-1.56 0-2.4.672-2.4 1.812 0 1.08.852 1.74 2.148 1.74 1.236 0 1.968-.564 2.34-1.32v.216c-.024.72.276 1.032.996 1.032h.36v-.564h-.228zm-1.151-1.896c0 1.164-.828 2.004-2.268 2.004-.972 0-1.572-.492-1.572-1.248 0-.804.6-1.248 1.728-1.248h2.112v.492zm4.682-3.624c-1.128 0-1.608.54-1.86 1.212l-.096-1.212h-.528v6.084h.612v-3.084c0-1.236.324-2.412 1.752-2.412h.444v-.588h-.324zm3.485 6.156c1.332 0 2.352-.864 2.616-2.088h-.624c-.24.948-1.044 1.536-2.04 1.536-1.356 0-2.208-1.032-2.232-2.448v-.108h4.968c0-.084.012-.18.012-.252-.06-1.812-1.176-2.868-2.808-2.868-1.668 0-2.808 1.272-2.808 3.072 0 1.908 1.188 3.156 2.916 3.156zm-2.232-3.624c.096-1.236 1.02-2.064 2.136-2.064 1.188 0 2.04.732 2.136 2.064h-4.272zM4.178 117.152c-1.128 0-1.608.54-1.86 1.212l-.096-1.212h-.528v6.084h.612v-3.084c0-1.236.324-2.412 1.752-2.412h.444v-.588h-.324zm3.485 6.156c1.332 0 2.352-.864 2.616-2.088h-.624c-.24.948-1.044 1.536-2.04 1.536-1.356 0-2.208-1.032-2.232-2.448v-.108h4.968c0-.084.012-.18.012-.252-.06-1.812-1.176-2.868-2.808-2.868-1.668 0-2.808 1.272-2.808 3.072 0 1.908 1.188 3.156 2.916 3.156zm-2.232-3.624c.096-1.236 1.02-2.064 2.136-2.064 1.188 0 2.04.732 2.136 2.064H5.431zm6.142 3.552h.612v-8.4h-.612v8.4zm4.739.072c1.332 0 2.352-.864 2.616-2.088h-.624c-.24.948-1.044 1.536-2.04 1.536-1.356 0-2.208-1.032-2.232-2.448v-.108H19c0-.084.012-.18.012-.252-.06-1.812-1.176-2.868-2.808-2.868-1.668 0-2.808 1.272-2.808 3.072 0 1.908 1.188 3.156 2.916 3.156zm-2.232-3.624c.096-1.236 1.02-2.064 2.136-2.064 1.188 0 2.04.732 2.136 2.064H14.08zm11.493 2.988c-.36 0-.54-.12-.54-.588v-2.832c0-1.392-.852-2.172-2.376-2.172-1.392 0-2.316.672-2.472 1.776h.612c.156-.744.804-1.236 1.836-1.236 1.14 0 1.788.6 1.788 1.608v.528h-2.064c-1.56 0-2.4.672-2.4 1.812 0 1.08.852 1.74 2.148 1.74 1.236 0 1.968-.564 2.34-1.32v.216c-.024.72.276 1.032.996 1.032h.36v-.564h-.228zm-1.152-1.896c0 1.164-.828 2.004-2.268 2.004-.972 0-1.572-.492-1.572-1.248 0-.804.6-1.248 1.728-1.248h2.112v.492zm1.923.588c.048 1.26 1.068 1.944 2.592 1.944 1.308 0 2.364-.66 2.364-1.74 0-1.284-1.128-1.536-2.436-1.716-.948-.132-1.788-.24-1.788-1.092 0-.696.684-1.152 1.716-1.152.972 0 1.668.468 1.776 1.26h.624c-.108-1.188-1.08-1.788-2.4-1.788-1.356-.012-2.328.684-2.328 1.728 0 1.224 1.128 1.452 2.376 1.62 1.02.144 1.848.276 1.848 1.176 0 .72-.756 1.176-1.752 1.176-1.164 0-1.92-.54-1.968-1.416h-.624zm8.811 1.944c1.332 0 2.352-.864 2.616-2.088h-.624c-.24.948-1.044 1.536-2.04 1.536-1.356 0-2.208-1.032-2.232-2.448v-.108h4.968c0-.084.012-.18.012-.252-.06-1.812-1.176-2.868-2.808-2.868-1.668 0-2.808 1.272-2.808 3.072 0 1.908 1.188 3.156 2.916 3.156zm-2.232-3.624c.096-1.236 1.02-2.064 2.136-2.064 1.188 0 2.04.732 2.136 2.064h-4.272zm11.11-1.164c-.372-.864-1.188-1.44-2.328-1.44-1.668 0-2.868 1.272-2.868 3.108 0 1.92 1.2 3.12 2.868 3.12 1.14 0 1.932-.612 2.316-1.464l.096 1.392h.528v-8.4h-.612v3.684zm-2.28 4.236c-1.356 0-2.292-1.056-2.292-2.568 0-1.5.936-2.568 2.292-2.568 1.356 0 2.292 1.068 2.292 2.58 0 1.5-.936 2.556-2.292 2.556zm9.042.48h.66l1.8-5.112 1.716 5.112h.66l2.16-6.084h-.624l-1.872 5.352-1.74-5.352h-.564l-1.836 5.352-1.776-5.352h-.648l2.064 6.084zm8.164-7.368c.24 0 .432-.18.432-.432a.423.423 0 00-.432-.432c-.24 0-.432.18-.432.432s.192.432.432.432zm-.312 7.368h.612v-6.084h-.612v6.084zm2.507-1.416c0 .972.396 1.416 1.428 1.416h.888v-.564h-.84c-.636 0-.864-.24-.864-.864v-4.092h1.644v-.564h-1.644v-1.704h-.612v1.704h-1.152v.564h1.152v4.104zm6.055-4.74c-1.14 0-1.848.636-2.196 1.512v-3.756h-.612v8.4h.612v-3c0-1.584.804-2.592 2.1-2.592 1.164 0 1.884.768 1.884 2.208v3.384h.612v-3.408c0-1.92-1.02-2.748-2.4-2.748zm9.833 6.228c1.524 0 2.556-.924 2.772-2.136h-1.296c-.18.684-.756 1.08-1.548 1.08-1.02 0-1.68-.684-1.716-1.728v-.084h4.632a3.52 3.52 0 00.036-.492c-.036-1.8-1.224-2.928-3-2.928-1.812 0-3.024 1.26-3.024 3.156 0 1.884 1.212 3.132 3.144 3.132zm-1.74-3.816c.096-.876.804-1.428 1.632-1.428.9 0 1.536.516 1.644 1.428h-3.276zm4.75 3.744h1.428l1.62-2.232 1.608 2.232h1.512l-2.316-3.144 2.184-3H84.66l-1.5 2.076-1.464-2.076h-1.512l2.172 3-2.304 3.144zm7.326-1.668c0 1.116.504 1.668 1.68 1.668h1.2v-1.14h-.912c-.492 0-.66-.18-.66-.66v-3.204h1.5v-1.14h-1.5v-1.716h-1.308v1.716H86.31v1.14h1.068v3.336zm6.492 1.74c1.524 0 2.556-.924 2.772-2.136h-1.296c-.18.684-.756 1.08-1.548 1.08-1.02 0-1.68-.684-1.716-1.728v-.084h4.632a3.52 3.52 0 00.036-.492c-.036-1.8-1.224-2.928-3-2.928-1.812 0-3.024 1.26-3.024 3.156 0 1.884 1.212 3.132 3.144 3.132zm-1.74-3.816c.096-.876.804-1.428 1.632-1.428.9 0 1.536.516 1.644 1.428H92.13zm8.907-2.472c-.996 0-1.584.396-1.968.876l-.144-.804h-1.127v6.144h1.296v-3.096c0-1.248.612-2.004 1.643-2.004.972 0 1.464.624 1.464 1.788v3.312h1.308v-3.42c0-2.052-1.116-2.796-2.472-2.796zm8.272.924c-.396-.54-1.056-.924-1.992-.924-1.668 0-2.904 1.248-2.904 3.144 0 1.968 1.236 3.144 2.904 3.144.972 0 1.608-.456 2.004-.996l.156.924h1.128v-8.4h-1.296v3.108zm-1.776 4.272c-1.08 0-1.788-.84-1.788-2.052 0-1.2.708-2.04 1.788-2.04s1.788.84 1.788 2.064c0 1.188-.708 2.028-1.788 2.028zm7.255 1.092c1.524 0 2.556-.924 2.772-2.136h-1.296c-.18.684-.756 1.08-1.548 1.08-1.02 0-1.68-.684-1.716-1.728v-.084h4.632a3.52 3.52 0 00.036-.492c-.036-1.8-1.224-2.928-3-2.928-1.812 0-3.024 1.26-3.024 3.156 0 1.884 1.212 3.132 3.144 3.132zm-1.74-3.816c.096-.876.804-1.428 1.632-1.428.9 0 1.536.516 1.644 1.428h-3.276zm10.335-1.548c-.396-.54-1.056-.924-1.992-.924-1.668 0-2.904 1.248-2.904 3.144 0 1.968 1.236 3.144 2.904 3.144.972 0 1.608-.456 2.004-.996l.156.924h1.128v-8.4h-1.296v3.108zm-1.776 4.272c-1.08 0-1.788-.84-1.788-2.052 0-1.2.708-2.04 1.788-2.04s1.788.84 1.788 2.064c0 1.188-.708 2.028-1.788 2.028zM2.054 136.568c0 1.116.504 1.668 1.68 1.668h1.2v-1.14h-.912c-.492 0-.66-.18-.66-.66v-3.204h1.5v-1.14h-1.5v-1.716H2.054v1.716H.986v1.14h1.068v3.336zm6.812-4.476c-1.008 0-1.5.408-1.812.924l-.144-.924H5.758v6.144h1.296v-3.084c0-.948.372-1.848 1.524-1.848h.576v-1.212h-.288zm6.516 5.016c-.264 0-.396-.084-.396-.396v-2.46c0-1.452-.936-2.232-2.568-2.232-1.548 0-2.58.744-2.712 1.944h1.272c.096-.54.612-.9 1.38-.9.852 0 1.344.42 1.344 1.104v.372h-1.548c-1.716 0-2.628.708-2.628 1.968 0 1.14.936 1.8 2.28 1.8.996 0 1.62-.432 2.028-1.056 0 .612.288.984 1.128.984h.684v-1.128h-.264zm-1.68-1.392c-.012.948-.636 1.584-1.716 1.584-.708 0-1.14-.36-1.14-.876 0-.624.444-.924 1.248-.924h1.608v.216zm7.271-2.772c-.396-.54-1.056-.924-1.992-.924-1.668 0-2.904 1.248-2.904 3.144 0 1.968 1.236 3.144 2.904 3.144.972 0 1.608-.456 2.004-.996l.156.924h1.128v-8.4h-1.296v3.108zm-1.776 4.272c-1.08 0-1.788-.84-1.788-2.052 0-1.2.708-2.04 1.788-2.04s1.788.84 1.788 2.064c0 1.188-.708 2.028-1.788 2.028zm4.999-5.988c.444 0 .792-.324.792-.78s-.348-.78-.792-.78c-.444 0-.792.324-.792.78s.348.78.792.78zm-.66 7.008h1.296v-6.144h-1.296v6.144zm5.806-6.216c-.996 0-1.584.396-1.968.876l-.144-.804h-1.128v6.144h1.296v-3.096c0-1.248.612-2.004 1.644-2.004.972 0 1.464.624 1.464 1.788v3.312h1.308v-3.42c0-2.052-1.116-2.796-2.472-2.796zm8.343 1.032c-.396-.612-1.056-1.032-2.016-1.032-1.668 0-2.904 1.236-2.904 3.12 0 1.956 1.236 3.12 2.904 3.12.96 0 1.596-.396 2.004-1.008v.684c0 1.176-.636 1.716-1.764 1.716-.912 0-1.512-.396-1.668-1.08h-1.32c.12 1.38 1.26 2.136 2.892 2.136 2.208 0 3.144-1.056 3.144-2.724v-5.892h-1.128l-.144.96zm-1.8 4.116c-1.08 0-1.788-.828-1.788-2.028 0-1.188.708-2.028 1.788-2.028s1.788.84 1.788 2.052c0 1.176-.708 2.004-1.788 2.004zm10.637-5.148c-.96 0-1.548.432-1.932.96v-3.144h-1.296v8.4h1.296v-3.108c0-1.236.624-1.992 1.644-1.992.96 0 1.476.624 1.476 1.788v3.312h1.296v-3.42c0-2.052-1.116-2.796-2.484-2.796zm6.52 6.288c1.871 0 3.131-1.26 3.131-3.144 0-1.872-1.26-3.144-3.132-3.144s-3.132 1.272-3.132 3.144c0 1.884 1.26 3.144 3.132 3.144zm0-1.104c-1.093 0-1.8-.852-1.8-2.04 0-1.188.707-2.04 1.8-2.04 1.091 0 1.811.852 1.811 2.04 0 1.188-.72 2.04-1.812 2.04zm8.385-2.04c0 1.272-.6 2.016-1.584 2.016-.948 0-1.428-.612-1.428-1.812v-3.276H57.12v3.42c0 2.1 1.116 2.796 2.424 2.796.948 0 1.512-.384 1.896-.852l.144.78h1.14v-6.144h-1.296v3.072zm5.682-3.072c-1.008 0-1.5.408-1.812.924l-.144-.924H64v6.144h1.296v-3.084c0-.948.372-1.848 1.524-1.848h.576v-1.212h-.288zm.717 4.116c.036 1.332 1.164 2.1 2.808 2.1 1.488 0 2.604-.744 2.604-1.92 0-1.368-1.14-1.656-2.544-1.824-.888-.096-1.476-.168-1.476-.744 0-.492.504-.804 1.272-.804s1.296.396 1.368.96h1.272c-.084-1.26-1.152-1.956-2.664-1.956-1.476-.012-2.52.744-2.52 1.908 0 1.272 1.104 1.572 2.508 1.74.948.12 1.512.168 1.512.828 0 .492-.528.804-1.332.804-.936 0-1.488-.456-1.536-1.092h-1.272zm6.753 1.188c-.324 0-.528.204-.528.468 0 .288.192.432.42.432.12 0 .24-.048.3-.144a.433.433 0 01.108.312c0 .456-.288.924-.9.948v.36c.828-.036 1.344-.588 1.344-1.38 0-.552-.312-.996-.744-.996zm7.873.912c1.332 0 2.352-.864 2.616-2.088h-.624c-.24.948-1.044 1.536-2.04 1.536-1.356 0-2.208-1.032-2.232-2.448v-.108h4.968c0-.084.012-.18.012-.252-.06-1.812-1.176-2.868-2.808-2.868-1.668 0-2.808 1.272-2.808 3.072 0 1.908 1.188 3.156 2.916 3.156zm-2.232-3.624c.096-1.236 1.02-2.064 2.136-2.064 1.188 0 2.04.732 2.136 2.064H80.22zm5.283 3.552h.708l2.016-2.676 2.016 2.676h.744l-2.364-3.108 2.244-2.976h-.696l-1.92 2.52-1.896-2.52h-.732l2.244 2.976-2.364 3.108zm8.714.072c1.38 0 2.352-.792 2.592-2.028h-.648c-.204.9-.936 1.476-1.944 1.476-1.332 0-2.256-1.044-2.256-2.556s.912-2.58 2.256-2.58c1.02 0 1.74.576 1.956 1.488h.636c-.252-1.26-1.2-2.028-2.58-2.028-1.716 0-2.892 1.272-2.892 3.12 0 1.872 1.164 3.108 2.88 3.108zm3.782-.072h.612v-8.4h-.612v8.4zm6.466-3.096c0 1.596-.792 2.604-2.052 2.604-1.128 0-1.824-.768-1.824-2.22v-3.372h-.612v3.408c0 1.908.996 2.748 2.34 2.748 1.08 0 1.788-.576 2.136-1.356l.084 1.284h.54v-6.084h-.612v2.988zm1.777 1.224c.048 1.26 1.068 1.944 2.592 1.944 1.308 0 2.364-.66 2.364-1.74 0-1.284-1.128-1.536-2.436-1.716-.948-.132-1.788-.24-1.788-1.092 0-.696.684-1.152 1.716-1.152.972 0 1.668.468 1.776 1.26h.624c-.108-1.188-1.08-1.788-2.4-1.788-1.356-.012-2.328.684-2.328 1.728 0 1.224 1.128 1.452 2.376 1.62 1.02.144 1.848.276 1.848 1.176 0 .72-.756 1.176-1.752 1.176-1.164 0-1.92-.54-1.968-1.416h-.624zm6.436-5.496c.24 0 .432-.18.432-.432a.423.423 0 00-.432-.432c-.24 0-.432.18-.432.432s.192.432.432.432zm-.312 7.368h.612v-6.084h-.612v6.084zm3.815 0h.732l2.376-6.084h-.636l-2.088 5.376-2.1-5.376h-.66l2.376 6.084zm6.373.072c1.332 0 2.352-.864 2.616-2.088h-.624c-.24.948-1.044 1.536-2.04 1.536-1.356 0-2.208-1.032-2.232-2.448v-.108h4.968c0-.084.012-.18.012-.252-.06-1.812-1.176-2.868-2.808-2.868-1.668 0-2.808 1.272-2.808 3.072 0 1.908 1.188 3.156 2.916 3.156zm-2.232-3.624c.096-1.236 1.02-2.064 2.136-2.064 1.188 0 2.04.732 2.136 2.064h-4.272zM2.15 151.82c0 .972.396 1.416 1.428 1.416h.888v-.564h-.84c-.636 0-.864-.24-.864-.864v-4.092h1.644v-.564H2.762v-1.704H2.15v1.704H.998v.564H2.15v4.104zm5.748 1.488c1.716 0 2.928-1.272 2.928-3.12 0-1.836-1.212-3.108-2.928-3.108s-2.916 1.272-2.916 3.108c0 1.848 1.2 3.12 2.916 3.12zm0-.552c-1.356 0-2.292-1.056-2.292-2.568 0-1.5.936-2.568 2.292-2.568 1.356 0 2.292 1.068 2.292 2.568 0 1.512-.936 2.568-2.292 2.568zm11.074.552c1.8 0 3.072-.972 3.432-2.664h-.684c-.36 1.344-1.332 2.064-2.76 2.064-1.944 0-3.168-1.524-3.168-3.672s1.248-3.672 3.192-3.672c1.404 0 2.388.732 2.76 2.052h.684c-.372-1.68-1.644-2.652-3.408-2.652-2.364 0-3.9 1.752-3.9 4.272 0 2.544 1.5 4.272 3.852 4.272zm4.995-7.44c.24 0 .432-.18.432-.432a.423.423 0 00-.432-.432c-.24 0-.432.18-.432.432s.192.432.432.432zm-.312 7.368h.612v-6.084h-.612v6.084zm2.507-1.416c0 .972.396 1.416 1.428 1.416h.888v-.564h-.84c-.636 0-.864-.24-.864-.864v-4.092h1.644v-.564h-1.644v-1.704h-.612v1.704H25.01v.564h1.152v4.104zm5.07 1.416l-.395.984c-.276.672-.384.852-1.008.852h-.768v.564h.936c.816 0 1.008-.312 1.392-1.272l2.916-7.212h-.66l-2.076 5.292-2.112-5.292h-.66l2.436 6.084zm7.274 0h.648v-8.4h-.648v8.4zm5.043-6.156c-1.116 0-1.836.576-2.184 1.368l-.096-1.296h-.528v6.084h.612v-3c0-1.584.804-2.592 2.1-2.592 1.176 0 1.884.768 1.884 2.208v3.384h.612v-3.408c0-1.92-1.02-2.748-2.4-2.748zm8.629 1.44c-.372-.864-1.188-1.44-2.328-1.44-1.668 0-2.868 1.272-2.868 3.108 0 1.92 1.2 3.12 2.868 3.12 1.14 0 1.932-.612 2.316-1.464l.096 1.392h.528v-8.4h-.612v3.684zm-2.28 4.236c-1.356 0-2.292-1.056-2.292-2.568 0-1.5.936-2.568 2.292-2.568 1.356 0 2.292 1.068 2.292 2.58 0 1.5-.936 2.556-2.292 2.556zm7.02.552c1.331 0 2.351-.864 2.615-2.088h-.624c-.24.948-1.044 1.536-2.04 1.536-1.356 0-2.208-1.032-2.232-2.448v-.108h4.968c0-.084.012-.18.012-.252-.06-1.812-1.176-2.868-2.808-2.868-1.668 0-2.808 1.272-2.808 3.072 0 1.908 1.188 3.156 2.916 3.156zm-2.233-3.624c.096-1.236 1.02-2.064 2.136-2.064 1.188 0 2.04.732 2.136 2.064h-4.272zm5.283 3.552h.708l2.016-2.676 2.016 2.676h.744l-2.364-3.108 2.244-2.976h-.696l-1.92 2.52-1.896-2.52h-.732l2.244 2.976-2.364 3.108zm6.177-.396c0 .276.192.456.456.456s.456-.18.456-.456-.192-.444-.456-.444-.456.168-.456.444zM3.619 73.16h1.81l1.731-5.383 1.67 5.382h1.795l2.63-7.919h-1.702L9.68 71.303 7.95 65.24H6.418l-1.81 6.063L2.8 65.24H1.036l2.583 7.92zm14.675-8.012c-1.238 0-1.995.556-2.49 1.237v-4.052h-1.67v10.826h1.67v-4.006c0-1.593.804-2.567 2.118-2.567 1.238 0 1.903.804 1.903 2.305v4.268h1.67v-4.408c0-2.644-1.438-3.603-3.201-3.603zm8.418 8.104c1.964 0 3.294-1.191 3.573-2.753h-1.67c-.233.882-.975 1.392-1.996 1.392-1.314 0-2.165-.882-2.211-2.227v-.109h5.97c.03-.216.046-.433.046-.634-.046-2.32-1.578-3.773-3.867-3.773-2.335 0-3.897 1.624-3.897 4.067 0 2.428 1.562 4.037 4.052 4.037zm-2.242-4.918c.123-1.13 1.036-1.84 2.103-1.84 1.16 0 1.98.664 2.119 1.84h-4.223zm11.48-3.186c-1.284 0-2.041.51-2.536 1.129l-.186-1.037h-1.454v7.92h1.67v-3.991c0-1.609.79-2.583 2.12-2.583 1.252 0 1.886.804 1.886 2.305v4.268h1.686v-4.408c0-2.644-1.438-3.603-3.186-3.603zm12.405 8.104c2.413 0 4.037-1.624 4.037-4.052 0-2.413-1.624-4.052-4.037-4.052-2.412 0-4.036 1.64-4.036 4.052 0 2.428 1.623 4.052 4.036 4.052zm0-1.423c-1.407 0-2.32-1.098-2.32-2.63 0-1.53.913-2.629 2.32-2.629 1.408 0 2.336 1.099 2.336 2.63 0 1.53-.928 2.629-2.336 2.629zm5.892-.82c0 1.439.65 2.15 2.165 2.15h1.547v-1.47h-1.176c-.634 0-.85-.231-.85-.85v-4.13h1.933V65.24h-1.933V63.03h-1.686v2.211H52.87v1.47h1.377v4.3zm8.935-5.861c-1.238 0-1.995.556-2.49 1.237v-4.052h-1.67v10.826h1.67v-4.006c0-1.593.804-2.567 2.118-2.567 1.238 0 1.903.804 1.903 2.305v4.268h1.67v-4.408c0-2.644-1.438-3.603-3.201-3.603zm8.418 8.104c1.964 0 3.294-1.191 3.573-2.753h-1.67c-.233.882-.975 1.392-1.996 1.392-1.314 0-2.165-.882-2.211-2.227v-.109h5.97c.03-.216.046-.433.046-.634-.046-2.32-1.578-3.773-3.867-3.773-2.335 0-3.897 1.624-3.897 4.067 0 2.428 1.562 4.037 4.052 4.037zm-2.242-4.918c.123-1.13 1.036-1.84 2.103-1.84 1.16 0 1.98.664 2.119 1.84h-4.222zm11.31-3.094c-1.3 0-1.933.526-2.335 1.191l-.186-1.19h-1.485v7.918h1.67v-3.975c0-1.221.48-2.382 1.965-2.382h.742V65.24h-.371zm.925 5.305c.047 1.717 1.5 2.707 3.62 2.707 1.917 0 3.355-.959 3.355-2.475 0-1.763-1.469-2.134-3.278-2.35-1.145-.124-1.903-.217-1.903-.96 0-.633.65-1.036 1.64-1.036.99 0 1.67.51 1.763 1.238h1.64c-.109-1.624-1.486-2.521-3.434-2.521-1.903-.016-3.248.959-3.248 2.459 0 1.64 1.423 2.026 3.232 2.242 1.222.155 1.949.217 1.949 1.067 0 .635-.68 1.037-1.717 1.037-1.206 0-1.918-.588-1.98-1.408h-1.639zm15.861 2.707c2.027 0 3.372-1.13 3.681-2.923h-1.763c-.2.912-.881 1.5-1.902 1.5-1.346 0-2.227-1.067-2.227-2.614 0-1.562.882-2.645 2.227-2.645 1.036 0 1.701.573 1.918 1.5h1.747c-.324-1.793-1.593-2.922-3.634-2.922-2.397 0-3.975 1.624-3.975 4.067 0 2.475 1.531 4.037 3.928 4.037zm12.198-1.547c-.34 0-.51-.108-.51-.51v-3.17c0-1.872-1.207-2.877-3.31-2.877-1.995 0-3.325.959-3.495 2.505h1.639c.124-.696.789-1.16 1.779-1.16 1.098 0 1.732.541 1.732 1.423v.48h-1.995c-2.212 0-3.387.912-3.387 2.536 0 1.47 1.206 2.32 2.938 2.32 1.284 0 2.088-.557 2.614-1.361 0 .789.371 1.268 1.454 1.268h.881v-1.454h-.34zm-2.165-1.794c-.016 1.222-.82 2.042-2.212 2.042-.912 0-1.469-.464-1.469-1.13 0-.803.572-1.19 1.608-1.19h2.073v.278zm7.591-4.763c-1.284 0-2.041.51-2.536 1.129l-.186-1.037h-1.454v7.92h1.671v-3.991c0-1.609.788-2.583 2.118-2.583 1.253 0 1.887.804 1.887 2.305v4.268h1.686v-4.408c0-2.644-1.438-3.603-3.186-3.603zm5.101-2.908c-.712 0-1.176.464-1.176 1.052 0 .65.403.99.913.99a.841.841 0 00.51-.17c.016.077.016.139.016.216 0 .541-.387 1.144-1.361 1.144v.913c1.531-.016 2.49-.866 2.49-2.366 0-1.006-.542-1.779-1.392-1.779zm3.56 8.77c0 1.438.649 2.15 2.165 2.15h1.546v-1.47h-1.175c-.634 0-.851-.232-.851-.85v-4.13h1.934v-1.47h-1.934V63.03h-1.685v2.211h-1.377v1.47h1.377v4.3zm4.71 1.19c0 .619.448 1.052 1.067 1.052s1.083-.433 1.083-1.052c0-.618-.464-1.052-1.083-1.052s-1.067.434-1.067 1.052z" fill="#000"/><path d="M1.585 6.516H7.9V24h3.362V6.516h6.316V3.534H1.585v2.982zm29.58 14.736c-.643 0-.964-.205-.964-.965v-5.994c0-3.537-2.281-5.438-6.257-5.438-3.772 0-6.286 1.813-6.608 4.736h3.1c.233-1.315 1.49-2.192 3.361-2.192 2.076 0 3.275 1.023 3.275 2.69v.906h-3.771c-4.181 0-6.403 1.725-6.403 4.795 0 2.777 2.28 4.385 5.555 4.385 2.426 0 3.947-1.052 4.94-2.573 0 1.492.702 2.398 2.749 2.398h1.667v-2.748h-.644zm-4.093-3.392c-.03 2.31-1.55 3.86-4.18 3.86-1.726 0-2.778-.878-2.778-2.135 0-1.52 1.081-2.251 3.04-2.251h3.918v.526zM33.53 24h3.157v-3.8l2.69-2.808L43.791 24h3.742l-5.993-8.917 5.642-6.052H43.47l-6.783 7.25V3.534H33.53V24zm21.694.175c3.713 0 6.228-2.25 6.754-5.204H58.82c-.44 1.667-1.843 2.631-3.772 2.631-2.485 0-4.093-1.666-4.181-4.21v-.204h11.286c.058-.41.087-.819.087-1.199-.087-4.386-2.982-7.134-7.31-7.134-4.414 0-7.367 3.07-7.367 7.69 0 4.59 2.953 7.63 7.66 7.63zm-4.24-9.297c.235-2.134 1.96-3.48 3.977-3.48 2.193 0 3.742 1.258 4.006 3.48h-7.982zm34.974 6.374c-.643 0-.965-.205-.965-.965v-5.994c0-3.537-2.28-5.438-6.257-5.438-3.772 0-6.286 1.813-6.608 4.736h3.1c.233-1.315 1.49-2.192 3.362-2.192 2.076 0 3.275 1.023 3.275 2.69v.906h-3.772c-4.181 0-6.403 1.725-6.403 4.795 0 2.777 2.28 4.385 5.555 4.385 2.427 0 3.947-1.052 4.941-2.573 0 1.492.702 2.398 2.748 2.398H86.6v-2.748h-.643zm-4.093-3.392c-.03 2.31-1.55 3.86-4.181 3.86-1.726 0-2.778-.878-2.778-2.135 0-1.52 1.082-2.251 3.04-2.251h3.919v.526zM10.56 34.855c-2.34 0-3.889 1.082-4.883 2.398l-.38-2.222H2.55v20.816h3.157v-7.952c.936 1.345 2.544 2.28 4.854 2.28 4.093 0 7.075-3.04 7.075-7.66 0-4.795-2.982-7.66-7.075-7.66zm-.527 12.66c-2.631 0-4.356-2.076-4.356-5.058 0-2.895 1.725-4.912 4.356-4.912 2.632 0 4.386 2.017 4.386 4.97 0 2.924-1.754 5-4.386 5zm17.208 2.66c4.56 0 7.63-3.07 7.63-7.66 0-4.56-3.07-7.66-7.63-7.66-4.561 0-7.631 3.1-7.631 7.66 0 4.59 3.07 7.66 7.63 7.66zm0-2.69c-2.661 0-4.386-2.075-4.386-4.97 0-2.894 1.725-4.97 4.386-4.97 2.66 0 4.414 2.076 4.414 4.97 0 2.895-1.754 4.97-4.414 4.97zm9.44-2.426c.088 3.245 2.837 5.116 6.842 5.116 3.626 0 6.345-1.812 6.345-4.677 0-3.334-2.778-4.035-6.199-4.445-2.163-.233-3.596-.409-3.596-1.812 0-1.2 1.228-1.96 3.1-1.96 1.87 0 3.157.966 3.333 2.34h3.099c-.205-3.07-2.807-4.766-6.491-4.766-3.596-.03-6.14 1.813-6.14 4.649 0 3.099 2.69 3.83 6.11 4.24 2.31.292 3.685.409 3.685 2.017 0 1.198-1.287 1.958-3.246 1.958-2.28 0-3.625-1.11-3.742-2.66h-3.1zm17.242-12.134c1.082 0 1.93-.789 1.93-1.9 0-1.111-.848-1.9-1.93-1.9-1.082 0-1.93.789-1.93 1.9 0 1.111.848 1.9 1.93 1.9zM52.316 50h3.157V35.03h-3.157V50zm7.334-4.064c0 2.72 1.228 4.064 4.094 4.064h2.923v-2.778h-2.222c-1.198 0-1.608-.438-1.608-1.608v-7.806h3.655v-2.777h-3.655V30.85H59.65v4.18h-2.602v2.778h2.602v8.128zm10.634-13.01c1.082 0 1.93-.79 1.93-1.901s-.848-1.9-1.93-1.9c-1.082 0-1.93.789-1.93 1.9 0 1.111.848 1.9 1.93 1.9zM68.676 50h3.158V35.03h-3.158V50zm13.328.175c4.561 0 7.631-3.07 7.631-7.66 0-4.56-3.07-7.66-7.63-7.66-4.562 0-7.631 3.1-7.631 7.66 0 4.59 3.07 7.66 7.63 7.66zm0-2.69c-2.66 0-4.385-2.075-4.385-4.97 0-2.894 1.725-4.97 4.385-4.97 2.661 0 4.415 2.076 4.415 4.97 0 2.895-1.754 4.97-4.415 4.97zm18.064-12.63c-2.426 0-3.859.965-4.794 2.134l-.351-1.958h-2.749V50h3.158v-7.543c0-3.04 1.491-4.883 4.006-4.883 2.368 0 3.567 1.52 3.567 4.357V50h3.186v-8.333c0-5-2.719-6.812-6.023-6.812z" fill="url(#paint0_linear_6_16)"/><defs><linearGradient id="paint0_linear_6_16" x1="115" y1="15.041" x2="1" y2="15.041" gradientUnits="userSpaceOnUse"><stop stop-color="#FF4343"/><stop offset=".5" stop-color="#9C0B93"/><stop offset="1" stop-color="#4C1BB7"/></linearGradient></defs></svg>