<svg width="255" height="10" viewBox="0 0 255 10" fill="none" xmlns="http://www.w3.org/2000/svg"><path d="M.69 4.11c0 1.95.83 2.95 2.55 2.95 1.73 0 2.57-1 2.57-2.95V0h-.54v4.14c0 1.61-.62 2.42-2.03 2.42-1.39 0-2.01-.81-2.01-2.42V0H.69v4.11zm8.864-2.24c-.95 0-1.61.51-1.93 1.22l-.08-1.16h-.44V9h.51V5.83c.29.74.98 1.23 1.94 1.23 1.39 0 2.39-1.06 2.39-2.6 0-1.59-1-2.59-2.39-2.59zm-.04 4.73c-1.13 0-1.91-.88-1.91-2.15 0-1.24.78-2.13 1.91-2.13s1.91.89 1.91 2.14c0 1.26-.78 2.14-1.91 2.14zm7.57-3.49c-.31-.75-.99-1.24-1.93-1.24-1.39 0-2.39 1.05-2.39 2.59 0 1.6 1 2.6 2.39 2.6.95 0 1.62-.5 1.94-1.29v.9c0 1.35-.64 1.93-1.86 1.93-.95 0-1.61-.43-1.77-1.2h-.53c.16 1.08 1.03 1.66 2.26 1.66 1.64 0 2.41-.78 2.41-2.37V1.93h-.44l-.08 1.18zm-1.89 3.49c-1.13 0-1.91-.88-1.91-2.14 0-1.26.78-2.14 1.91-2.14s1.91.88 1.91 2.15c0 1.25-.78 2.13-1.91 2.13zm5.68-4.67c-.94 0-1.34.45-1.55 1.01l-.08-1.01h-.44V7h.51V4.43c0-1.03.27-2.01 1.46-2.01h.37v-.49h-.27zm5.27 4.6c-.3 0-.45-.1-.45-.49V3.68c0-1.16-.71-1.81-1.98-1.81-1.16 0-1.93.56-2.06 1.48h.51c.13-.62.67-1.03 1.53-1.03.95 0 1.49.5 1.49 1.34v.44h-1.72c-1.3 0-2 .56-2 1.51 0 .9.71 1.45 1.79 1.45 1.03 0 1.64-.47 1.95-1.1v.18c-.02.6.23.86.83.86h.3v-.47h-.19zm-.96-1.58c0 .97-.69 1.67-1.89 1.67-.81 0-1.31-.41-1.31-1.04 0-.67.5-1.04 1.44-1.04h1.76v.41zm5.894-1.88c-.31-.72-.99-1.2-1.94-1.2-1.39 0-2.39 1.06-2.39 2.59 0 1.6 1 2.6 2.39 2.6.95 0 1.61-.51 1.93-1.22l.08 1.16h.44V0h-.51v3.07zm-1.9 3.53c-1.13 0-1.91-.88-1.91-2.14 0-1.25.78-2.14 1.91-2.14s1.91.89 1.91 2.15c0 1.25-.78 2.13-1.91 2.13zm5.85.46c1.11 0 1.96-.72 2.18-1.74h-.52c-.2.79-.87 1.28-1.7 1.28-1.13 0-1.84-.86-1.86-2.04v-.09h4.14c0-.07.01-.15.01-.21-.05-1.51-.98-2.39-2.34-2.39-1.39 0-2.34 1.06-2.34 2.56 0 1.59.99 2.63 2.43 2.63zm-1.86-3.02c.08-1.03.85-1.72 1.78-1.72.99 0 1.7.61 1.78 1.72h-3.56zM42.5 7l-.33.82c-.23.56-.32.71-.84.71h-.64V9h.78c.68 0 .84-.26 1.16-1.06l2.43-6.01h-.55l-1.73 4.41-1.76-4.41h-.55L42.5 7zm5.27.06c1.43 0 2.44-1.06 2.44-2.6 0-1.53-1.01-2.59-2.44-2.59s-2.43 1.06-2.43 2.59c0 1.54 1 2.6 2.43 2.6zm0-.46c-1.13 0-1.91-.88-1.91-2.14 0-1.25.78-2.14 1.91-2.14s1.91.89 1.91 2.14c0 1.26-.78 2.14-1.91 2.14zm7.134-2.18c0 1.33-.66 2.17-1.71 2.17-.94 0-1.52-.64-1.52-1.85V1.93h-.51v2.84c0 1.59.83 2.29 1.95 2.29.9 0 1.49-.48 1.78-1.13l.07 1.07h.45V1.93h-.51v2.49zm3.78-2.49c-.94 0-1.34.45-1.55 1.01l-.08-1.01h-.44V7h.51V4.43c0-1.03.27-2.01 1.46-2.01h.37v-.49h-.27zm4.102 3.89c0 .81.33 1.18 1.19 1.18h.74v-.47h-.7c-.53 0-.72-.2-.72-.72V2.4h1.37v-.47h-1.37V.51h-.51v1.42h-.96v.47h.96v3.42zm4.776-3.89c-.94 0-1.34.45-1.55 1.01l-.08-1.01h-.44V7h.51V4.43c0-1.03.27-2.01 1.46-2.01h.37v-.49h-.27zm5.27 4.6c-.3 0-.45-.1-.45-.49V3.68c0-1.16-.71-1.81-1.98-1.81-1.16 0-1.93.56-2.06 1.48h.51c.13-.62.67-1.03 1.53-1.03.95 0 1.49.5 1.49 1.34v.44h-1.72c-1.3 0-2 .56-2 1.51 0 .9.71 1.45 1.79 1.45 1.03 0 1.64-.47 1.95-1.1v.18c-.02.6.23.86.83.86h.3v-.47h-.19zm-.96-1.58c0 .97-.69 1.67-1.89 1.67-.81 0-1.31-.41-1.31-1.04 0-.67.5-1.04 1.44-1.04h1.76v.41zm5.894-1.88c-.31-.72-.99-1.2-1.94-1.2-1.39 0-2.39 1.06-2.39 2.59 0 1.6 1 2.6 2.39 2.6.95 0 1.61-.51 1.93-1.22l.08 1.16h.44V0h-.51v3.07zm-1.9 3.53c-1.13 0-1.91-.88-1.91-2.14 0-1.25.78-2.14 1.91-2.14s1.91.89 1.91 2.15c0 1.25-.78 2.13-1.91 2.13zm3.87-5.74c.2 0 .36-.15.36-.36s-.16-.36-.36-.36c-.2 0-.36.15-.36.36s.16.36.36.36zM79.477 7h.51V1.93h-.51V7zm4.049-5.13c-.93 0-1.53.48-1.82 1.14l-.08-1.08h-.44V7h.51V4.5c0-1.32.67-2.16 1.75-2.16.98 0 1.57.64 1.57 1.84V7h.51V4.16c0-1.6-.85-2.29-2-2.29zm7.259 1.24c-.31-.75-.99-1.24-1.93-1.24-1.39 0-2.39 1.05-2.39 2.59 0 1.6 1 2.6 2.39 2.6.95 0 1.62-.5 1.94-1.29v.9c0 1.35-.64 1.93-1.86 1.93-.95 0-1.61-.43-1.77-1.2h-.53c.16 1.08 1.03 1.66 2.26 1.66 1.64 0 2.41-.78 2.41-2.37V1.93h-.44l-.08 1.18zm-1.89 3.49c-1.13 0-1.91-.88-1.91-2.14 0-1.26.78-2.14 1.91-2.14s1.91.88 1.91 2.15c0 1.25-.78 2.13-1.91 2.13zm7.535.4h.55l1.5-4.26L99.91 7h.55l1.8-5.07h-.52l-1.56 4.46-1.45-4.46h-.47l-1.53 4.46-1.48-4.46h-.54L96.43 7zm6.803-6.14c.2 0 .36-.15.36-.36s-.16-.36-.36-.36c-.2 0-.36.15-.36.36s.16.36.36.36zm-.26 6.14h.51V1.93h-.51V7zm2.089-1.18c0 .81.33 1.18 1.19 1.18h.74v-.47h-.7c-.53 0-.72-.2-.72-.72V2.4h1.37v-.47h-1.37V.51h-.51v1.42h-.96v.47h.96v3.42zm5.046-3.95c-.95 0-1.54.53-1.83 1.26V0h-.51v7h.51V4.5c0-1.32.67-2.16 1.75-2.16.97 0 1.57.64 1.57 1.84V7h.51V4.16c0-1.6-.85-2.29-2-2.29zm8.074 5.19c1.11 0 1.96-.72 2.18-1.74h-.52c-.2.79-.87 1.28-1.7 1.28-1.13 0-1.84-.86-1.86-2.04v-.09h4.14c0-.07.01-.15.01-.21-.05-1.51-.98-2.39-2.34-2.39-1.39 0-2.34 1.06-2.34 2.56 0 1.59.99 2.63 2.43 2.63zm-1.86-3.02c.08-1.03.85-1.72 1.78-1.72.99 0 1.7.61 1.78 1.72h-3.56zM120.724 7h.59l1.68-2.23 1.68 2.23h.62l-1.97-2.59 1.87-2.48h-.58l-1.6 2.1-1.58-2.1h-.61l1.87 2.48-1.97 2.59zm7.262.06c1.15 0 1.96-.66 2.16-1.69h-.54c-.17.75-.78 1.23-1.62 1.23-1.11 0-1.88-.87-1.88-2.13 0-1.26.76-2.15 1.88-2.15.85 0 1.45.48 1.63 1.24h.53c-.21-1.05-1-1.69-2.15-1.69-1.43 0-2.41 1.06-2.41 2.6 0 1.56.97 2.59 2.4 2.59zm3.151-.06h.51V0h-.51v7zm5.389-2.58c0 1.33-.66 2.17-1.71 2.17-.94 0-1.52-.64-1.52-1.85V1.93h-.51v2.84c0 1.59.83 2.29 1.95 2.29.9 0 1.49-.48 1.78-1.13l.07 1.07h.45V1.93h-.51v2.49zm1.481 1.02c.04 1.05.89 1.62 2.16 1.62 1.09 0 1.97-.55 1.97-1.45 0-1.07-.94-1.28-2.03-1.43-.79-.11-1.49-.2-1.49-.91 0-.58.57-.96 1.43-.96.81 0 1.39.39 1.48 1.05h.52c-.09-.99-.9-1.49-2-1.49-1.13-.01-1.94.57-1.94 1.44 0 1.02.94 1.21 1.98 1.35.85.12 1.54.23 1.54.98 0 .6-.63.98-1.46.98-.97 0-1.6-.45-1.64-1.18h-.52zM143.37.86c.2 0 .36-.15.36-.36s-.16-.36-.36-.36c-.2 0-.36.15-.36.36s.16.36.36.36zM143.11 7h.51V1.93h-.51V7zm3.179 0h.61l1.98-5.07h-.53l-1.74 4.48-1.75-4.48h-.55l1.98 5.07zm5.311.06c1.11 0 1.96-.72 2.18-1.74h-.52c-.2.79-.87 1.28-1.7 1.28-1.13 0-1.84-.86-1.86-2.04v-.09h4.14c0-.07.01-.15.01-.21-.05-1.51-.98-2.39-2.34-2.39-1.39 0-2.34 1.06-2.34 2.56 0 1.59.99 2.63 2.43 2.63zm-1.86-3.02c.08-1.03.85-1.72 1.78-1.72.99 0 1.7.61 1.78 1.72h-3.56zM157.673 7h.54V4.08h2.06c1.32 0 2.19-.82 2.19-2.04 0-1.22-.86-2.04-2.19-2.04h-2.6v7zm2.56-6.5c1.03 0 1.68.62 1.68 1.54 0 .91-.66 1.54-1.69 1.54h-2.01V.5h2.02zm5.039 6.56c1.11 0 1.96-.72 2.18-1.74h-.52c-.2.79-.87 1.28-1.7 1.28-1.13 0-1.84-.86-1.86-2.04v-.09h4.14c0-.07.01-.15.01-.21-.05-1.51-.98-2.39-2.34-2.39-1.39 0-2.34 1.06-2.34 2.56 0 1.59.99 2.63 2.43 2.63zm-1.86-3.02c.08-1.03.85-1.72 1.78-1.72.99 0 1.7.61 1.78 1.72h-3.56zm7.188-2.11c-.94 0-1.34.45-1.55 1.01l-.08-1.01h-.44V7h.51V4.43c0-1.03.27-2.01 1.46-2.01h.37v-.49h-.27zm.611.47h.96V7h.51V2.4h1.52v-.47h-1.52v-.76c0-.5.19-.7.7-.7h.83V0h-.85c-.85 0-1.19.37-1.19 1.18v.75h-.96v.47zm5.584 4.66c1.43 0 2.44-1.06 2.44-2.6 0-1.53-1.01-2.59-2.44-2.59s-2.43 1.06-2.43 2.59c0 1.54 1 2.6 2.43 2.6zm0-.46c-1.13 0-1.91-.88-1.91-2.14 0-1.25.78-2.14 1.91-2.14s1.91.89 1.91 2.14c0 1.26-.78 2.14-1.91 2.14zm5.523-4.67c-.94 0-1.34.45-1.55 1.01l-.08-1.01h-.44V7h.51V4.43c0-1.03.27-2.01 1.46-2.01h.37v-.49h-.27zm6.686-.06c-.93 0-1.53.52-1.82 1.27-.24-.84-.87-1.27-1.67-1.27-.87 0-1.39.51-1.65 1.14l-.08-1.08h-.44V7h.51V4.42c0-1.24.6-2.08 1.57-2.08.88 0 1.43.62 1.43 1.79V7h.51V4.24c.03-1.16.63-1.9 1.58-1.9.88 0 1.41.59 1.41 1.74V7h.52V4.06c0-1.53-.81-2.19-1.87-2.19zm7.462 4.66c-.3 0-.45-.1-.45-.49V3.68c0-1.16-.71-1.81-1.98-1.81-1.16 0-1.93.56-2.06 1.48h.51c.13-.62.67-1.03 1.53-1.03.95 0 1.49.5 1.49 1.34v.44h-1.72c-1.3 0-2 .56-2 1.51 0 .9.71 1.45 1.79 1.45 1.03 0 1.64-.47 1.95-1.1v.18c-.02.6.23.86.83.86h.3v-.47h-.19zm-.96-1.58c0 .97-.69 1.67-1.89 1.67-.81 0-1.31-.41-1.31-1.04 0-.67.5-1.04 1.44-1.04h1.76v.41zm4.172-3.08c-.93 0-1.53.48-1.82 1.14l-.08-1.08h-.44V7h.51V4.5c0-1.32.67-2.16 1.75-2.16.98 0 1.57.64 1.57 1.84V7h.51V4.16c0-1.6-.85-2.29-2-2.29zm5.261 5.19c1.15 0 1.96-.66 2.16-1.69h-.54c-.17.75-.78 1.23-1.62 1.23-1.11 0-1.88-.87-1.88-2.13 0-1.26.76-2.15 1.88-2.15.85 0 1.45.48 1.63 1.24h.53c-.21-1.05-1-1.69-2.15-1.69-1.43 0-2.41 1.06-2.41 2.6 0 1.56.97 2.59 2.4 2.59zm5.391 0c1.11 0 1.96-.72 2.18-1.74h-.52c-.2.79-.87 1.28-1.7 1.28-1.13 0-1.84-.86-1.86-2.04v-.09h4.14c0-.07.01-.15.01-.21-.05-1.51-.98-2.39-2.34-2.39-1.39 0-2.34 1.06-2.34 2.56 0 1.59.99 2.63 2.43 2.63zm-1.86-3.02c.08-1.03.85-1.72 1.78-1.72.99 0 1.7.61 1.78 1.72h-3.56zM216.414 7l.84-2.14h3.22l.84 2.14h.58l-2.7-7h-.63l-2.71 7h.56zm2.45-6.4l1.45 3.76h-2.9l1.45-3.76zm6.137 1.27c-.93 0-1.53.48-1.82 1.14l-.08-1.08h-.44V7h.51V4.5c0-1.32.67-2.16 1.75-2.16.98 0 1.57.64 1.57 1.84V7h.51V4.16c0-1.6-.85-2.29-2-2.29zm7.588 4.66c-.3 0-.45-.1-.45-.49V3.68c0-1.16-.71-1.81-1.98-1.81-1.16 0-1.93.56-2.06 1.48h.51c.13-.62.67-1.03 1.53-1.03.95 0 1.49.5 1.49 1.34v.44h-1.72c-1.3 0-2 .56-2 1.51 0 .9.71 1.45 1.79 1.45 1.03 0 1.64-.47 1.95-1.1v.18c-.02.6.23.86.83.86h.3v-.47h-.19zm-.96-1.58c0 .97-.69 1.67-1.89 1.67-.81 0-1.31-.41-1.31-1.04 0-.67.5-1.04 1.44-1.04h1.76v.41zM233.461 7h.51V0h-.51v7zm3.229 0l-.33.82c-.23.56-.32.71-.84.71h-.64V9h.78c.68 0 .84-.26 1.16-1.06l2.43-6.01h-.55l-1.73 4.41-1.76-4.41h-.55L236.69 7zm3.694-1.18c0 .81.33 1.18 1.19 1.18h.74v-.47h-.7c-.53 0-.72-.2-.72-.72V2.4h1.37v-.47h-1.37V.51h-.51v1.42h-.96v.47h.96v3.42zM243.35.86c.2 0 .36-.15.36-.36s-.16-.36-.36-.36c-.2 0-.36.15-.36.36s.16.36.36.36zM243.09 7h.51V1.93h-.51V7zm3.919.06c1.15 0 1.96-.66 2.16-1.69h-.54c-.17.75-.78 1.23-1.62 1.23-1.11 0-1.88-.87-1.88-2.13 0-1.26.76-2.15 1.88-2.15.85 0 1.45.48 1.63 1.24h.53c-.21-1.05-1-1.69-2.15-1.69-1.43 0-2.41 1.06-2.41 2.6 0 1.56.97 2.59 2.4 2.59zm2.922-1.62c.04 1.05.89 1.62 2.16 1.62 1.09 0 1.97-.55 1.97-1.45 0-1.07-.94-1.28-2.03-1.43-.79-.11-1.49-.2-1.49-.91 0-.58.57-.96 1.43-.96.81 0 1.39.39 1.48 1.05h.52c-.09-.99-.9-1.49-2-1.49-1.13-.01-1.94.57-1.94 1.44 0 1.02.94 1.21 1.98 1.35.85.12 1.54.23 1.54.98 0 .6-.63.98-1.46.98-.97 0-1.6-.45-1.64-1.18h-.52z" fill="#000"/></svg>