<svg width="120" height="50" viewBox="0 0 120 50" fill="none" xmlns="http://www.w3.org/2000/svg"><path d="M3.792 13v-.64H1.24V7.4H.544V13h3.248zm2.27.048c1.192 0 2.024-.848 2.024-2.088 0-1.24-.832-2.088-2.024-2.088-1.192 0-2.024.848-2.024 2.088 0 1.24.832 2.088 2.024 2.088zm0-.584c-.808 0-1.352-.632-1.352-1.504s.544-1.504 1.352-1.504 1.352.632 1.352 1.504-.544 1.504-1.352 1.504zm2.593-.808c.016.896.744 1.392 1.8 1.392.904 0 1.632-.472 1.632-1.232 0-.904-.744-1.08-1.672-1.192-.592-.072-1.024-.128-1.024-.576 0-.376.384-.616.952-.616.56 0 .944.312.992.728h.672c-.064-.848-.736-1.28-1.664-1.288-.92-.008-1.6.48-1.6 1.224 0 .848.728 1.032 1.64 1.144.608.072 1.056.112 1.056.624 0 .376-.408.624-.984.624-.68 0-1.104-.352-1.128-.832h-.672zm3.914 0c.016.896.744 1.392 1.8 1.392.904 0 1.632-.472 1.632-1.232 0-.904-.744-1.08-1.672-1.192-.592-.072-1.024-.128-1.024-.576 0-.376.384-.616.952-.616.56 0 .944.312.992.728h.672c-.064-.848-.736-1.28-1.664-1.288-.92-.008-1.6.48-1.6 1.224 0 .848.728 1.032 1.64 1.144.608.072 1.056.112 1.056.624 0 .376-.408.624-.984.624-.68 0-1.104-.352-1.128-.832h-.672zm6.04 1.392c.944 0 1.616-.6 1.776-1.416h-.664c-.136.528-.584.832-1.16.832-.776 0-1.264-.544-1.288-1.32v-.056h3.168c.008-.096.016-.192.016-.28-.032-1.208-.784-1.936-1.936-1.936s-1.936.848-1.936 2.088c0 1.248.8 2.088 2.024 2.088zm-1.296-2.504a1.208 1.208 0 011.216-1.096c.68 0 1.16.392 1.224 1.096h-2.44zm3.71 1.112c.015.896.743 1.392 1.8 1.392.903 0 1.631-.472 1.631-1.232 0-.904-.744-1.08-1.672-1.192-.592-.072-1.024-.128-1.024-.576 0-.376.384-.616.952-.616.56 0 .944.312.992.728h.672c-.064-.848-.736-1.28-1.664-1.288-.92-.008-1.6.48-1.6 1.224 0 .848.728 1.032 1.64 1.144.608.072 1.056.112 1.056.624 0 .376-.408.624-.984.624-.68 0-1.104-.352-1.128-.832h-.672zm8.085 1.392c.992 0 1.656-.56 1.816-1.44h-.696c-.128.52-.528.856-1.112.856-.784 0-1.312-.608-1.312-1.496s.528-1.512 1.312-1.512c.6 0 1 .328 1.12.872h.688c-.168-.896-.8-1.456-1.8-1.456-1.184 0-1.992.848-1.992 2.096 0 1.272.784 2.08 1.976 2.08zm6.143-.648c-.184 0-.264-.056-.264-.272v-1.784c0-.952-.6-1.472-1.64-1.472-.984 0-1.632.472-1.728 1.272h.656c.08-.416.464-.688 1.04-.688.64 0 1.016.32 1.016.848v.28h-1.2c-1.072 0-1.64.456-1.64 1.272 0 .744.608 1.192 1.504 1.192.704 0 1.112-.312 1.368-.68.008.4.192.632.736.632h.36v-.6h-.208zm-.92-1.064c0 .68-.472 1.152-1.288 1.152-.544 0-.888-.272-.888-.672 0-.464.328-.68.912-.68h1.264v.2zm3.633-2.464c-.688 0-1.104.288-1.344.6l-.088-.552h-.568V13h.656v-2.04c0-.92.464-1.488 1.232-1.488.712 0 1.104.448 1.104 1.296V13h.656v-2.272c0-1.352-.728-1.856-1.648-1.856zm6.458 4.176c.944 0 1.616-.6 1.776-1.416h-.664c-.136.528-.584.832-1.16.832-.776 0-1.264-.544-1.288-1.32v-.056h3.168c.008-.096.016-.192.016-.28-.032-1.208-.784-1.936-1.936-1.936s-1.936.848-1.936 2.088c0 1.248.8 2.088 2.024 2.088zm-1.296-2.504a1.208 1.208 0 011.216-1.096c.68 0 1.16.392 1.224 1.096h-2.44zM46.414 13h.744l1.192-1.64L49.542 13h.784l-1.56-2.096 1.456-1.984h-.744l-1.096 1.512-1.08-1.512h-.784l1.448 1.984L46.414 13zm6.038.048c.992 0 1.656-.56 1.816-1.44h-.696c-.128.52-.528.856-1.112.856-.784 0-1.312-.608-1.312-1.496s.528-1.512 1.312-1.512c.6 0 1 .328 1.12.872h.688c-.168-.896-.8-1.456-1.8-1.456-1.184 0-1.992.848-1.992 2.096 0 1.272.784 2.08 1.976 2.08zm4.415 0c.944 0 1.616-.6 1.776-1.416h-.664c-.136.528-.584.832-1.16.832-.776 0-1.264-.544-1.288-1.32v-.056H58.7c.008-.096.016-.192.016-.28-.032-1.208-.784-1.936-1.936-1.936s-1.936.848-1.936 2.088c0 1.248.8 2.088 2.024 2.088zm-1.296-2.504a1.208 1.208 0 011.216-1.096c.68 0 1.16.392 1.224 1.096h-2.44zm5.773 2.504c.944 0 1.616-.6 1.776-1.416h-.664c-.136.528-.584.832-1.16.832-.776 0-1.264-.544-1.288-1.32v-.056h3.168c.008-.096.016-.192.016-.28-.032-1.208-.784-1.936-1.936-1.936s-1.936.848-1.936 2.088c0 1.248.8 2.088 2.024 2.088zm-1.296-2.504a1.208 1.208 0 011.216-1.096c.68 0 1.16.392 1.224 1.096h-2.44zm7.108-1c-.248-.392-.712-.672-1.4-.672-1.128 0-1.96.84-1.96 2.088 0 1.328.832 2.088 1.96 2.088a1.65 1.65 0 001.4-.704l.088.656h.568V7.4h-.656v2.144zm-1.336 2.92c-.808 0-1.352-.616-1.352-1.504s.544-1.504 1.352-1.504c.8 0 1.344.624 1.344 1.52 0 .872-.544 1.488-1.344 1.488zm8.196-2.92c-.248-.392-.712-.672-1.4-.672-1.128 0-1.96.84-1.96 2.088 0 1.328.832 2.088 1.96 2.088a1.65 1.65 0 001.4-.704l.088.656h.568V7.4h-.656v2.144zm-1.336 2.92c-.808 0-1.352-.616-1.352-1.504s.544-1.504 1.352-1.504c.8 0 1.344.624 1.344 1.52 0 .872-.544 1.488-1.344 1.488zm4.765.584c.944 0 1.616-.6 1.776-1.416h-.664c-.136.528-.584.832-1.16.832-.776 0-1.264-.544-1.288-1.32v-.056h3.168c.008-.096.016-.192.016-.28-.032-1.208-.784-1.936-1.936-1.936s-1.936.848-1.936 2.088c0 1.248.8 2.088 2.024 2.088zm-1.296-2.504a1.208 1.208 0 011.216-1.096c.68 0 1.16.392 1.224 1.096h-2.44zm5.949-1.672a1.65 1.65 0 00-1.4.704l-.088-.656h-.568v5.68h.656v-2.224c.248.392.712.672 1.4.672 1.128 0 1.96-.84 1.96-2.088 0-1.328-.832-2.088-1.96-2.088zm-.064 3.592c-.8 0-1.344-.624-1.344-1.52 0-.872.544-1.488 1.344-1.488.808 0 1.352.616 1.352 1.504s-.544 1.504-1.352 1.504zm4.653.584c1.192 0 2.024-.848 2.024-2.088 0-1.24-.832-2.088-2.024-2.088-1.192 0-2.024.848-2.024 2.088 0 1.24.832 2.088 2.024 2.088zm0-.584c-.808 0-1.352-.632-1.352-1.504s.544-1.504 1.352-1.504 1.352.632 1.352 1.504-.544 1.504-1.352 1.504zm2.593-.808c.016.896.744 1.392 1.8 1.392.904 0 1.632-.472 1.632-1.232 0-.904-.744-1.08-1.672-1.192-.592-.072-1.024-.128-1.024-.576 0-.376.384-.616.952-.616.56 0 .944.312.992.728h.672c-.064-.848-.736-1.28-1.664-1.288-.92-.008-1.6.48-1.6 1.224 0 .848.728 1.032 1.64 1.144.608.072 1.056.112 1.056.624 0 .376-.408.624-.984.624-.68 0-1.104-.352-1.128-.832h-.672zm4.496-3.424c.24 0 .424-.176.424-.424a.412.412 0 00-.424-.424.412.412 0 00-.424.424c0 .248.184.424.424.424zM93.44 13h.656V8.92h-.656V13zm1.859-1.064c0 .72.28 1.064 1.064 1.064h.712v-.6h-.648c-.352 0-.472-.128-.472-.472V9.52h1.056v-.6h-1.056V7.776h-.656V8.92h-.736v.6h.736v2.416zm2.176-.28c.016.896.744 1.392 1.8 1.392.904 0 1.632-.472 1.632-1.232 0-.904-.744-1.08-1.672-1.192-.592-.072-1.024-.128-1.024-.576 0-.376.384-.616.952-.616.56 0 .944.312.992.728h.672c-.064-.848-.736-1.28-1.664-1.288-.92-.008-1.6.48-1.6 1.224 0 .848.728 1.032 1.64 1.144.608.072 1.056.112 1.056.624 0 .376-.408.624-.984.624-.68 0-1.104-.352-1.128-.832h-.672zm4.018.944c0 .272.192.448.456.448s.456-.176.456-.448-.192-.448-.456-.448-.456.176-.456.448zM.16 18.04h1.816V23h.696v-4.96h1.816v-.64H.16v.64zm6.936.832c-.688 0-1.104.336-1.344.72V17.4h-.656V23h.656v-2.04c0-.92.472-1.488 1.232-1.488.704 0 1.112.448 1.112 1.296V23h.656v-2.272c0-1.352-.744-1.856-1.656-1.856zm2.829-.64c.24 0 .424-.176.424-.424a.412.412 0 00-.424-.424.412.412 0 00-.424.424c0 .248.184.424.424.424zM9.589 23h.656v-4.08h-.656V23zm1.386-1.344c.016.896.744 1.392 1.8 1.392.904 0 1.632-.472 1.632-1.232 0-.904-.744-1.08-1.672-1.192-.592-.072-1.024-.128-1.024-.576 0-.376.384-.616.952-.616.56 0 .944.312.992.728h.672c-.064-.848-.736-1.28-1.664-1.288-.92-.008-1.6.48-1.6 1.224 0 .848.728 1.032 1.64 1.144.608.072 1.056.112 1.056.624 0 .376-.408.624-.984.624-.68 0-1.104-.352-1.128-.832h-.672zm9.862.744c-.184 0-.264-.056-.264-.272v-1.784c0-.952-.6-1.472-1.64-1.472-.984 0-1.632.472-1.728 1.272h.656c.08-.416.464-.688 1.04-.688.64 0 1.016.32 1.016.848v.28h-1.2c-1.072 0-1.64.456-1.64 1.272 0 .744.608 1.192 1.504 1.192.704 0 1.112-.312 1.368-.68.008.4.192.632.736.632h.36v-.6h-.208zm-.92-1.064c0 .68-.472 1.152-1.288 1.152-.544 0-.888-.272-.888-.672 0-.464.328-.68.912-.68h1.264v.2zm4.802-1.792c-.248-.392-.712-.672-1.4-.672-1.128 0-1.96.84-1.96 2.088 0 1.328.832 2.088 1.96 2.088a1.65 1.65 0 001.4-.704l.088.656h.568v-5.6h-.656v2.144zm-1.336 2.92c-.808 0-1.352-.616-1.352-1.504s.544-1.504 1.352-1.504c.8 0 1.344.624 1.344 1.52 0 .872-.544 1.488-1.344 1.488zm4.005.536h.792l1.528-4.08h-.688l-1.224 3.336-1.232-3.336h-.704L27.388 23zm4.51.048c.944 0 1.616-.6 1.776-1.416h-.664c-.136.528-.584.832-1.16.832-.776 0-1.264-.544-1.288-1.32v-.056h3.168c.008-.096.016-.192.016-.28-.032-1.208-.784-1.936-1.936-1.936s-1.936.848-1.936 2.088c0 1.248.8 2.088 2.024 2.088zm-1.296-2.504a1.208 1.208 0 011.216-1.096c.68 0 1.16.392 1.224 1.096h-2.44zm5.78-1.624c-.727 0-1.04.304-1.231.616l-.088-.616h-.568V23h.656v-2.08c0-.648.232-1.36 1.088-1.36h.328v-.64h-.184zm1.19 3.016c0 .72.28 1.064 1.064 1.064h.712v-.6H38.7c-.352 0-.472-.128-.472-.472V19.52h1.056v-.6h-1.056v-1.144h-.656v1.144h-.736v.6h.736v2.416zm2.68-3.704c.24 0 .425-.176.425-.424a.412.412 0 00-.424-.424.412.412 0 00-.424.424c0 .248.184.424.424.424zM39.918 23h.656v-4.08h-.656V23zm1.386-1.344c.016.896.744 1.392 1.8 1.392.904 0 1.632-.472 1.632-1.232 0-.904-.744-1.08-1.672-1.192-.592-.072-1.024-.128-1.024-.576 0-.376.384-.616.952-.616.56 0 .944.312.992.728h.672c-.064-.848-.736-1.28-1.664-1.288-.92-.008-1.6.48-1.6 1.224 0 .848.728 1.032 1.64 1.144.608.072 1.056.112 1.056.624 0 .376-.408.624-.984.624-.68 0-1.104-.352-1.128-.832h-.672zm6.04 1.392c.945 0 1.617-.6 1.777-1.416h-.664c-.136.528-.584.832-1.16.832-.776 0-1.264-.544-1.288-1.32v-.056h3.168c.008-.096.016-.192.016-.28-.032-1.208-.784-1.936-1.936-1.936s-1.936.848-1.936 2.088c0 1.248.8 2.088 2.024 2.088zm-1.295-2.504a1.208 1.208 0 011.216-1.096c.68 0 1.16.392 1.224 1.096h-2.44zm8.444-1.672c-.728 0-1.168.336-1.416.776-.232-.52-.72-.776-1.288-.776-.632 0-.976.312-1.192.608l-.088-.56h-.568V23h.656v-2.152c0-.816.408-1.376 1.08-1.376.624 0 .984.416.984 1.216V23h.656v-2.184c0-.832.416-1.344 1.096-1.344.616 0 .968.416.968 1.216V23h.656v-2.352c0-1.288-.696-1.776-1.544-1.776zm4.219 4.176c.944 0 1.616-.6 1.776-1.416h-.664c-.136.528-.584.832-1.16.832-.776 0-1.264-.544-1.288-1.32v-.056h3.168c.008-.096.016-.192.016-.28-.032-1.208-.784-1.936-1.936-1.936s-1.936.848-1.936 2.088c0 1.248.8 2.088 2.024 2.088zm-1.296-2.504a1.208 1.208 0 011.216-1.096c.68 0 1.16.392 1.224 1.096h-2.44zm5.892-1.672c-.688 0-1.104.288-1.344.6l-.088-.552h-.568V23h.656v-2.04c0-.92.464-1.488 1.232-1.488.712 0 1.104.448 1.104 1.296V23h.656v-2.272c0-1.352-.728-1.856-1.648-1.856zm2.789 3.064c0 .72.28 1.064 1.064 1.064h.712v-.6h-.648c-.352 0-.472-.128-.472-.472V19.52h1.056v-.6h-1.056v-1.144h-.656v1.144h-.736v.6h.736v2.416zm6.438-3.064c-.688 0-1.104.336-1.344.72V17.4h-.656V23h.656v-2.04c0-.92.472-1.488 1.232-1.488.704 0 1.112.448 1.112 1.296V23h.656v-2.272c0-1.352-.744-1.856-1.656-1.856zm6.1 3.528c-.184 0-.264-.056-.264-.272v-1.784c0-.952-.6-1.472-1.64-1.472-.984 0-1.632.472-1.728 1.272h.656c.08-.416.464-.688 1.04-.688.64 0 1.016.32 1.016.848v.28h-1.2c-1.072 0-1.64.456-1.64 1.272 0 .744.608 1.192 1.504 1.192.704 0 1.112-.312 1.368-.68.008.4.192.632.736.632h.36v-.6h-.208zm-.92-1.064c0 .68-.472 1.152-1.288 1.152-.544 0-.888-.272-.888-.672 0-.464.328-.68.912-.68h1.264v.2zm1.464.32c.016.896.744 1.392 1.8 1.392.904 0 1.632-.472 1.632-1.232 0-.904-.744-1.08-1.672-1.192-.592-.072-1.024-.128-1.024-.576 0-.376.384-.616.952-.616.56 0 .944.312.992.728h.672c-.064-.848-.736-1.28-1.664-1.288-.92-.008-1.6.48-1.6 1.224 0 .848.728 1.032 1.64 1.144.608.072 1.056.112 1.056.624 0 .376-.408.624-.984.624-.68 0-1.104-.352-1.128-.832h-.672zm8.254-2.784c-.688 0-1.104.288-1.344.6L86 18.92h-.568V23h.656v-2.04c0-.92.464-1.488 1.232-1.488.712 0 1.104.448 1.104 1.296V23h.656v-2.272c0-1.352-.728-1.856-1.648-1.856zm4.318 4.176c1.192 0 2.024-.848 2.024-2.088 0-1.24-.832-2.088-2.024-2.088-1.192 0-2.024.848-2.024 2.088 0 1.24.832 2.088 2.024 2.088zm0-.584c-.808 0-1.352-.632-1.352-1.504s.544-1.504 1.352-1.504 1.352.632 1.352 1.504-.544 1.504-1.352 1.504zm3.033-.528c0 .72.28 1.064 1.064 1.064h.712v-.6h-.648c-.352 0-.472-.128-.472-.472V19.52h1.056v-.6H95.44v-1.144h-.656v1.144h-.736v.6h.736v2.416zM2.504 28.872a1.65 1.65 0 00-1.4.704V27.4H.448V33h.568l.088-.624c.248.392.712.672 1.4.672 1.128 0 1.96-.84 1.96-2.088 0-1.328-.832-2.088-1.96-2.088zm-.064 3.592c-.8 0-1.344-.624-1.344-1.52 0-.872.544-1.488 1.344-1.488.808 0 1.352.616 1.352 1.504s-.544 1.504-1.352 1.504zm4.654.584c.944 0 1.616-.6 1.776-1.416h-.664c-.136.528-.584.832-1.16.832-.776 0-1.264-.544-1.288-1.32v-.056h3.168c.008-.096.016-.192.016-.28-.032-1.208-.784-1.936-1.936-1.936S5.07 29.72 5.07 30.96c0 1.248.8 2.088 2.024 2.088zm-1.296-2.504a1.208 1.208 0 011.216-1.096c.68 0 1.16.392 1.224 1.096h-2.44zm5.772 2.504c.944 0 1.616-.6 1.776-1.416h-.664c-.136.528-.584.832-1.16.832-.776 0-1.264-.544-1.288-1.32v-.056h3.168c.008-.096.016-.192.016-.28-.032-1.208-.784-1.936-1.936-1.936s-1.936.848-1.936 2.088c0 1.248.8 2.088 2.024 2.088zm-1.296-2.504a1.208 1.208 0 011.216-1.096c.68 0 1.16.392 1.224 1.096h-2.44zm5.893-1.672c-.688 0-1.104.288-1.344.6l-.088-.552h-.568V33h.656v-2.04c0-.92.464-1.488 1.232-1.488.712 0 1.104.448 1.104 1.296V33h.656v-2.272c0-1.352-.728-1.856-1.648-1.856zm6.466.048c-.728 0-1.04.304-1.232.616l-.088-.616h-.568V33h.656v-2.08c0-.648.232-1.36 1.088-1.36h.328v-.64h-.184zm2.398 4.128c.944 0 1.616-.6 1.776-1.416h-.664c-.136.528-.584.832-1.16.832-.776 0-1.264-.544-1.288-1.32v-.056h3.168c.008-.096.016-.192.016-.28-.032-1.208-.784-1.936-1.936-1.936s-1.936.848-1.936 2.088c0 1.248.8 2.088 2.024 2.088zm-1.296-2.504a1.208 1.208 0 011.216-1.096c.68 0 1.16.392 1.224 1.096h-2.44zM28.568 33h.792l1.528-4.08H30.2l-1.224 3.336-1.232-3.336h-.704L28.568 33zm3.146-4.768c.24 0 .424-.176.424-.424a.412.412 0 00-.424-.424.412.412 0 00-.424.424c0 .248.184.424.424.424zM31.378 33h.656v-4.08h-.656V33zm3.434.048c.944 0 1.616-.6 1.776-1.416h-.664c-.136.528-.584.832-1.16.832-.776 0-1.264-.544-1.288-1.32v-.056h3.168c.008-.096.016-.192.016-.28-.032-1.208-.784-1.936-1.936-1.936s-1.936.848-1.936 2.088c0 1.248.8 2.088 2.024 2.088zm-1.296-2.504a1.208 1.208 0 011.216-1.096c.68 0 1.16.392 1.224 1.096h-2.44zM38.212 33h.72l1.024-3.032L40.94 33h.72l1.36-4.08h-.664l-1.064 3.32-1.016-3.32h-.608l-1.072 3.32-1.016-3.32h-.688l1.32 4.08zm7.07.048c.943 0 1.615-.6 1.775-1.416h-.664c-.136.528-.584.832-1.16.832-.776 0-1.264-.544-1.288-1.32v-.056h3.168c.008-.096.016-.192.016-.28-.032-1.208-.784-1.936-1.936-1.936s-1.936.848-1.936 2.088c0 1.248.8 2.088 2.024 2.088zm-1.297-2.504a1.208 1.208 0 011.216-1.096c.68 0 1.16.392 1.224 1.096h-2.44zm7.109-1c-.248-.392-.712-.672-1.4-.672-1.128 0-1.96.84-1.96 2.088 0 1.328.832 2.088 1.96 2.088a1.65 1.65 0 001.4-.704l.088.656h.568v-5.6h-.656v2.144zm-1.336 2.92c-.808 0-1.352-.616-1.352-1.504s.544-1.504 1.352-1.504c.8 0 1.344.624 1.344 1.52 0 .872-.544 1.488-1.344 1.488zm7.035-3.592a1.65 1.65 0 00-1.4.704V27.4h-.656V33h.568l.088-.624c.248.392.712.672 1.4.672 1.128 0 1.96-.84 1.96-2.088 0-1.328-.832-2.088-1.96-2.088zm-.064 3.592c-.8 0-1.344-.624-1.344-1.52 0-.872.544-1.488 1.344-1.488.808 0 1.352.616 1.352 1.504s-.544 1.504-1.352 1.504zm3.778.56l-.2.496c-.152.384-.216.48-.592.48h-.584v.6h.784c.576 0 .728-.256.984-.912l1.88-4.768h-.696l-1.216 3.256-1.256-3.256h-.696l1.592 4.104zm5.16-1.088c0 .72.28 1.064 1.063 1.064h.712v-.6h-.648c-.352 0-.472-.128-.472-.472V29.52h1.056v-.6h-1.056v-1.144h-.656v1.144h-.736v.6h.736v2.416zm4.343-3.064c-.688 0-1.104.336-1.344.72V27.4h-.656V33h.656v-2.04c0-.92.472-1.488 1.233-1.488.704 0 1.111.448 1.111 1.296V33h.656v-2.272c0-1.352-.743-1.856-1.656-1.856zm4.326 4.176c.944 0 1.616-.6 1.776-1.416h-.664c-.136.528-.584.832-1.16.832-.776 0-1.264-.544-1.288-1.32v-.056h3.168c.008-.096.016-.192.016-.28-.032-1.208-.784-1.936-1.936-1.936s-1.936.848-1.936 2.088c0 1.248.8 2.088 2.024 2.088zm-1.296-2.504a1.208 1.208 0 011.216-1.096c.68 0 1.16.392 1.224 1.096h-2.44zM79.122 33h.68v-4.416L81.658 33h.616l1.856-4.416V33h.68v-5.6h-.864l-1.96 4.648-1.984-4.648h-.88V33zm8.558.048c1.192 0 2.024-.848 2.024-2.088 0-1.24-.832-2.088-2.024-2.088-1.192 0-2.024.848-2.024 2.088 0 1.24.832 2.088 2.024 2.088zm0-.584c-.808 0-1.352-.632-1.352-1.504s.544-1.504 1.352-1.504 1.352.632 1.352 1.504-.544 1.504-1.352 1.504zm4.776-3.592c-.688 0-1.104.288-1.344.6l-.088-.552h-.568V33h.656v-2.04c0-.92.464-1.488 1.232-1.488.712 0 1.104.448 1.104 1.296V33h.656v-2.272c0-1.352-.728-1.856-1.648-1.856zm4.317 4.176c.944 0 1.616-.6 1.776-1.416h-.664c-.136.528-.584.832-1.16.832-.776 0-1.264-.544-1.288-1.32v-.056h3.168c.008-.096.016-.192.016-.28-.032-1.208-.784-1.936-1.936-1.936s-1.936.848-1.936 2.088c0 1.248.8 2.088 2.024 2.088zm-1.296-2.504a1.208 1.208 0 011.216-1.096c.68 0 1.16.392 1.224 1.096h-2.44zm4.15 1.392c0 .72.28 1.064 1.064 1.064h.712v-.6h-.648c-.352 0-.472-.128-.472-.472V29.52h1.056v-.6h-1.056v-1.144h-.656v1.144h-.736v.6h.736v2.416zm5.89.464c-.184 0-.264-.056-.264-.272v-1.784c0-.952-.6-1.472-1.64-1.472-.984 0-1.632.472-1.728 1.272h.656c.08-.416.464-.688 1.04-.688.64 0 1.016.32 1.016.848v.28h-1.2c-1.072 0-1.64.456-1.64 1.272 0 .744.608 1.192 1.504 1.192.704 0 1.112-.312 1.368-.68.008.4.192.632.736.632h.36v-.6h-.208zm-.92-1.064c0 .68-.472 1.152-1.288 1.152-.544 0-.888-.272-.888-.672 0-.464.328-.68.912-.68h1.264v.2zm3.52-2.416c-.728 0-1.04.304-1.232.616l-.088-.616h-.568V33h.656v-2.08c0-.648.232-1.36 1.088-1.36h.328v-.64h-.184zm1.968 4.104l-.2.496c-.152.384-.216.48-.592.48h-.584v.6h.784c.576 0 .728-.256.984-.912l1.88-4.768h-.696l-1.216 3.256-1.256-3.256h-.696l1.592 4.104zM.808 43l.592-1.512h2.44L4.432 43h.744l-2.128-5.6h-.824L.088 43h.72zm1.808-4.84l1.016 2.696H1.608l1.008-2.696zm5.82 2.8c0 .92-.447 1.488-1.191 1.488-.68 0-1.064-.448-1.064-1.296V38.92h-.656v2.272c0 1.352.712 1.856 1.608 1.856.672 0 1.064-.288 1.304-.592l.088.544h.568v-4.08h-.656v2.04zm1.87.976c0 .72.28 1.064 1.065 1.064h.712v-.6h-.648c-.352 0-.472-.128-.472-.472V39.52h1.056v-.6h-1.056v-1.144h-.656v1.144H9.57v.6h.736v2.416zm4.345-3.064c-.688 0-1.104.336-1.344.72V37.4h-.656V43h.656v-2.04c0-.92.472-1.488 1.232-1.488.704 0 1.112.448 1.112 1.296V43h.656v-2.272c0-1.352-.744-1.856-1.656-1.856zm4.325 4.176c1.192 0 2.024-.848 2.024-2.088 0-1.24-.832-2.088-2.024-2.088-1.192 0-2.024.848-2.024 2.088 0 1.24.832 2.088 2.024 2.088zm0-.584c-.808 0-1.352-.632-1.352-1.504s.544-1.504 1.352-1.504 1.352.632 1.352 1.504-.544 1.504-1.352 1.504zm4.665-3.544c-.728 0-1.04.304-1.232.616l-.088-.616h-.568V43h.656v-2.08c0-.648.232-1.36 1.088-1.36h.328v-.64h-.184zm1.088-.688c.24 0 .424-.176.424-.424a.412.412 0 00-.424-.424.412.412 0 00-.424.424c0 .248.184.424.424.424zM24.393 43h.656v-4.08h-.656V43zm1.859-1.064c0 .72.28 1.064 1.064 1.064h.712v-.6h-.648c-.352 0-.472-.128-.472-.472V39.52h1.056v-.6h-1.056v-1.144h-.656v1.144h-.736v.6h.736v2.416zm3.528 1.088l-.2.496c-.152.384-.216.48-.592.48h-.584v.6h.784c.576 0 .728-.256.984-.912l1.88-4.768h-.696l-1.216 3.256-1.256-3.256h-.696l1.592 4.104zm6.736.024c1.192 0 2.023-.848 2.023-2.088 0-1.24-.831-2.088-2.023-2.088-1.192 0-2.024.848-2.024 2.088 0 1.24.832 2.088 2.024 2.088zm0-.584c-.808 0-1.352-.632-1.352-1.504s.544-1.504 1.352-1.504 1.352.632 1.352 1.504-.544 1.504-1.352 1.504zm2.297-2.944h.736V43h.656v-3.48h1.152v-.6h-1.152v-.472c0-.312.12-.448.448-.448h.704v-.6h-.744c-.76 0-1.064.344-1.064 1.064v.456h-.736v.6zm4.984 1.648c.04 1.104.84 1.88 2.208 1.88 1.176 0 1.992-.68 1.992-1.648 0-1.088-.936-1.392-1.848-1.544-.84-.144-1.52-.28-1.52-.952 0-.6.488-.92 1.216-.92.76 0 1.28.424 1.36 1.072h.72c-.064-1.008-.832-1.704-2.08-1.704-1.136 0-1.912.64-1.912 1.592 0 1.088.928 1.384 1.832 1.536.848.144 1.536.288 1.536.984 0 .608-.536.952-1.288.952-.856 0-1.44-.496-1.496-1.248h-.72zm5.323-2.936c.24 0 .424-.176.424-.424a.412.412 0 00-.424-.424.412.412 0 00-.424.424c0 .248.184.424.424.424zM48.784 43h.656v-4.08h-.656V43zm3.555-4.128c-.688 0-1.104.288-1.344.6l-.088-.552h-.568V43h.656v-2.04c0-.92.464-1.488 1.232-1.488.712 0 1.104.448 1.104 1.296V43h.656v-2.272c0-1.352-.728-1.856-1.648-1.856zm5.7.752c-.256-.456-.712-.752-1.4-.752-1.128 0-1.96.84-1.96 2.088 0 1.328.832 2.088 1.96 2.088.688 0 1.128-.288 1.4-.752v.48c0 .888-.464 1.288-1.32 1.288-.68 0-1.136-.288-1.248-.8h-.672c.104.896.832 1.384 1.872 1.384 1.4 0 2.024-.672 2.024-1.848v-3.88h-.568l-.088.704zm-1.336 2.84c-.808 0-1.352-.616-1.352-1.504s.544-1.504 1.352-1.504c.8 0 1.344.624 1.344 1.52 0 .872-.544 1.488-1.344 1.488zm6.494-.064c-.184 0-.264-.056-.264-.272v-1.784c0-.952-.6-1.472-1.64-1.472-.984 0-1.632.472-1.728 1.272h.656c.08-.416.464-.688 1.04-.688.64 0 1.016.32 1.016.848v.28h-1.2c-1.072 0-1.64.456-1.64 1.272 0 .744.608 1.192 1.504 1.192.704 0 1.112-.312 1.368-.68.008.4.192.632.736.632h.36v-.6h-.208zm-.92-1.064c0 .68-.472 1.152-1.288 1.152-.544 0-.888-.272-.888-.672 0-.464.328-.68.912-.68h1.264v.2zm3.688-2.464a1.65 1.65 0 00-1.4.704l-.088-.656h-.568v5.68h.656v-2.224c.248.392.712.672 1.4.672 1.128 0 1.96-.84 1.96-2.088 0-1.328-.832-2.088-1.96-2.088zm-.064 3.592c-.8 0-1.344-.624-1.344-1.52 0-.872.544-1.488 1.344-1.488.808 0 1.352.616 1.352 1.504s-.544 1.504-1.352 1.504zm4.654.584c1.192 0 2.024-.848 2.024-2.088 0-1.24-.832-2.088-2.024-2.088-1.192 0-2.024.848-2.024 2.088 0 1.24.832 2.088 2.024 2.088zm0-.584c-.808 0-1.352-.632-1.352-1.504s.544-1.504 1.352-1.504 1.352.632 1.352 1.504-.544 1.504-1.352 1.504zm4.664-3.544c-.728 0-1.04.304-1.232.616l-.088-.616h-.568V43h.656v-2.08c0-.648.232-1.36 1.088-1.36h.328v-.64h-.184zm2.398 4.128c.944 0 1.616-.6 1.776-1.416h-.664c-.136.528-.584.832-1.16.832-.776 0-1.264-.544-1.288-1.32v-.056h3.168c.008-.096.016-.192.016-.28-.032-1.208-.784-1.936-1.936-1.936s-1.936.848-1.936 2.088c0 1.248.8 2.088 2.024 2.088zm-1.296-2.504a1.208 1.208 0 011.216-1.096c.68 0 1.16.392 1.224 1.096h-2.44zm3.547 2.056c0 .272.192.448.456.448s.456-.176.456-.448-.192-.448-.456-.448-.456.176-.456.448z" fill="#000"/></svg>