<svg width="131" height="91" viewBox="0 0 131 91" fill="none" xmlns="http://www.w3.org/2000/svg"><path d="M.42 2.442h4.536V15h2.415V2.442h4.536V.3H.42v2.142zm17.452 1.806c-1.764 0-2.625.714-3.17 1.617l-.253-1.617h-2.016V15h2.268V9.603c0-1.659.651-3.234 2.667-3.234h1.008V4.248h-.504zm11.403 8.778c-.462 0-.693-.147-.693-.693V8.028c0-2.541-1.638-3.906-4.494-3.906-2.709 0-4.515 1.302-4.746 3.402h2.226c.168-.945 1.071-1.575 2.415-1.575 1.491 0 2.352.735 2.352 1.932v.651h-2.709c-3.003 0-4.599 1.239-4.599 3.444 0 1.995 1.638 3.15 3.99 3.15 1.743 0 2.835-.756 3.549-1.848 0 1.071.504 1.722 1.974 1.722h1.197v-1.974h-.462zm-2.94-2.436c-.021 1.659-1.113 2.772-3.003 2.772-1.239 0-1.995-.63-1.995-1.533 0-1.092.777-1.617 2.184-1.617h2.814v.378zm12.724-4.851c-.693-.945-1.848-1.617-3.486-1.617-2.919 0-5.082 2.184-5.082 5.502 0 3.444 2.163 5.502 5.082 5.502 1.701 0 2.814-.798 3.507-1.743L39.353 15h1.974V.3H39.06v5.439zm-3.108 7.476c-1.89 0-3.129-1.47-3.129-3.591 0-2.1 1.24-3.57 3.13-3.57s3.128 1.47 3.128 3.612c0 2.079-1.239 3.549-3.129 3.549zm12.696 1.911c2.667 0 4.473-1.617 4.85-3.738H51.23c-.315 1.197-1.323 1.89-2.71 1.89-1.784 0-2.94-1.197-3.002-3.024v-.147h8.106a6.16 6.16 0 00.063-.861c-.063-3.15-2.142-5.124-5.25-5.124-3.171 0-5.292 2.205-5.292 5.523 0 3.297 2.12 5.481 5.502 5.481zm-3.045-6.678c.168-1.533 1.407-2.499 2.856-2.499 1.575 0 2.688.903 2.877 2.499h-5.733zm16.068 3.633c0 1.953.882 2.919 2.94 2.919h2.1v-1.995h-1.596c-.86 0-1.155-.315-1.155-1.155V6.243h2.625V4.248H63.96V1.245H61.67v3.003h-1.869v1.995h1.87v5.838zm11.36 3.045c2.668 0 4.474-1.617 4.852-3.738h-2.269c-.314 1.197-1.323 1.89-2.709 1.89-1.784 0-2.94-1.197-3.002-3.024v-.147h8.105a6.16 6.16 0 00.063-.861c-.063-3.15-2.141-5.124-5.25-5.124-3.17 0-5.291 2.205-5.291 5.523 0 3.297 2.12 5.481 5.502 5.481zm-3.044-6.678c.167-1.533 1.406-2.499 2.855-2.499 1.576 0 2.689.903 2.878 2.499h-5.733zm14.853 6.678c2.751 0 4.578-1.533 4.998-3.969h-2.394c-.273 1.239-1.197 2.037-2.583 2.037-1.827 0-3.024-1.449-3.024-3.549 0-2.121 1.197-3.591 3.024-3.591 1.407 0 2.31.777 2.604 2.037h2.373c-.441-2.436-2.163-3.969-4.935-3.969-3.255 0-5.397 2.205-5.397 5.523 0 3.36 2.079 5.481 5.334 5.481zM97.222 4.122c-1.68 0-2.709.756-3.381 1.68V.3h-2.268V15h2.268V9.561c0-2.163 1.092-3.486 2.877-3.486 1.68 0 2.583 1.092 2.583 3.129V15h2.268V9.015c0-3.591-1.953-4.893-4.347-4.893zM6.216 40.126c2.667 0 4.473-1.617 4.851-3.738H8.799c-.315 1.197-1.323 1.89-2.709 1.89-1.785 0-2.94-1.197-3.003-3.024v-.147h8.106a6.16 6.16 0 00.063-.861c-.063-3.15-2.142-5.124-5.25-5.124-3.171 0-5.292 2.205-5.292 5.523 0 3.297 2.121 5.481 5.502 5.481zm-3.045-6.678c.168-1.533 1.407-2.499 2.856-2.499 1.575 0 2.688.903 2.877 2.499H3.171zm19.747 4.578c-.462 0-.693-.147-.693-.693v-4.305c0-2.541-1.638-3.906-4.494-3.906-2.71 0-4.515 1.302-4.746 3.402h2.226c.168-.945 1.07-1.575 2.415-1.575 1.49 0 2.352.735 2.352 1.932v.651h-2.71c-3.002 0-4.598 1.239-4.598 3.444 0 1.995 1.638 3.15 3.99 3.15 1.743 0 2.835-.756 3.549-1.848 0 1.071.504 1.722 1.974 1.722h1.197v-1.974h-.462zm-2.94-2.436c-.021 1.659-1.113 2.772-3.003 2.772-1.24 0-1.995-.63-1.995-1.533 0-1.092.777-1.617 2.184-1.617h2.814v.378zm10.076-6.342c-1.764 0-2.625.714-3.171 1.617l-.252-1.617h-2.016V40h2.268v-5.397c0-1.659.651-3.234 2.667-3.234h1.008v-2.121h-.504zm7.573-.126c-1.743 0-2.772.693-3.444 1.533l-.252-1.407h-1.974V40h2.268v-5.418c0-2.184 1.07-3.507 2.877-3.507 1.7 0 2.562 1.092 2.562 3.129V40h2.289v-5.985c0-3.591-1.953-4.893-4.326-4.893zm7.543-1.386c.777 0 1.386-.567 1.386-1.365s-.609-1.365-1.386-1.365c-.777 0-1.386.567-1.386 1.365s.61 1.365 1.386 1.365zM44.015 40h2.268V29.248h-2.268V40zm10.162-10.878c-1.743 0-2.772.693-3.444 1.533l-.252-1.407h-1.974V40h2.268v-5.418c0-2.184 1.07-3.507 2.877-3.507 1.7 0 2.562 1.092 2.562 3.129V40h2.289v-5.985c0-3.591-1.953-4.893-4.326-4.893zm14.6 1.806c-.694-1.071-1.849-1.806-3.529-1.806-2.919 0-5.082 2.163-5.082 5.46 0 3.423 2.163 5.46 5.082 5.46 1.68 0 2.793-.693 3.507-1.764v1.197c0 2.058-1.113 3.003-3.087 3.003-1.596 0-2.646-.693-2.919-1.89h-2.31c.21 2.415 2.205 3.738 5.061 3.738 3.864 0 5.502-1.848 5.502-4.767V29.248h-1.974l-.252 1.68zm-3.15 7.203c-1.89 0-3.13-1.449-3.13-3.549 0-2.079 1.24-3.549 3.13-3.549s3.128 1.47 3.128 3.591c0 2.058-1.239 3.507-3.129 3.507zm7.13-1.68c.063 2.331 2.036 3.675 4.913 3.675 2.605 0 4.558-1.302 4.558-3.36 0-2.394-1.995-2.898-4.453-3.192-1.553-.168-2.583-.294-2.583-1.302 0-.861.883-1.407 2.227-1.407 1.344 0 2.267.693 2.394 1.68h2.225c-.147-2.205-2.016-3.423-4.662-3.423-2.583-.021-4.41 1.302-4.41 3.339 0 2.226 1.933 2.751 4.39 3.045 1.659.21 2.645.294 2.645 1.449 0 .861-.924 1.407-2.33 1.407-1.639 0-2.605-.798-2.689-1.911h-2.225zm17.756-8.715c.777 0 1.386-.567 1.386-1.365s-.609-1.365-1.386-1.365c-.777 0-1.386.567-1.386 1.365s.61 1.365 1.386 1.365zM89.358 40h2.268V29.248h-2.268V40zM99.52 29.122c-1.743 0-2.772.693-3.444 1.533l-.252-1.407H93.85V40h2.268v-5.418c0-2.184 1.071-3.507 2.877-3.507 1.701 0 2.562 1.092 2.562 3.129V40h2.289v-5.985c0-3.591-1.953-4.893-4.326-4.893zM6.552 54.248c-1.764 0-2.625.714-3.171 1.617l-.252-1.617H1.113V65h2.268v-5.397c0-1.659.651-3.234 2.667-3.234h1.008v-2.121h-.504zm6.493 10.878c2.667 0 4.473-1.617 4.851-3.738h-2.268c-.315 1.197-1.323 1.89-2.709 1.89-1.785 0-2.94-1.197-3.003-3.024v-.147h8.106a6.16 6.16 0 00.063-.861c-.063-3.15-2.142-5.124-5.25-5.124-3.17 0-5.292 2.205-5.292 5.523 0 3.297 2.121 5.481 5.502 5.481zM10 58.448c.168-1.533 1.407-2.499 2.856-2.499 1.575 0 2.688.903 2.877 2.499H10zm19.747 4.578c-.462 0-.693-.147-.693-.693v-4.305c0-2.541-1.638-3.906-4.494-3.906-2.71 0-4.515 1.302-4.746 3.402h2.226c.168-.945 1.07-1.575 2.415-1.575 1.49 0 2.352.735 2.352 1.932v.651h-2.71c-3.002 0-4.598 1.239-4.598 3.444 0 1.995 1.638 3.15 3.99 3.15 1.743 0 2.835-.756 3.549-1.848 0 1.071.504 1.722 1.974 1.722h1.197v-1.974h-.462zm-2.94-2.436c-.021 1.659-1.113 2.772-3.003 2.772-1.24 0-1.995-.63-1.995-1.533 0-1.092.777-1.617 2.184-1.617h2.814v.378zM31.444 65h2.268V50.3h-2.268V65zm11.505-5.04v-1.869h-7.14v1.869h7.14zm2.664 2.121c0 1.953.882 2.919 2.94 2.919h2.1v-1.995h-1.596c-.861 0-1.155-.315-1.155-1.155v-5.607h2.625v-1.995h-2.625v-3.003h-2.29v3.003h-1.868v1.995h1.869v5.838zm7.637-9.345c.777 0 1.386-.567 1.386-1.365s-.609-1.365-1.386-1.365c-.777 0-1.386.567-1.386 1.365s.61 1.365 1.386 1.365zM52.095 65h2.268V54.248h-2.268V65zm16.86-10.878c-1.763 0-2.981.777-3.674 1.953-.651-1.386-1.911-1.953-3.318-1.953-1.617.021-2.541.735-3.15 1.533l-.252-1.407h-1.974V65h2.268v-5.754c0-1.911.966-3.171 2.52-3.171 1.49 0 2.268.987 2.268 2.877V65h2.289v-5.817c0-1.932.987-3.108 2.54-3.108 1.47 0 2.248.987 2.248 2.877V65h2.268v-6.195c0-3.402-1.806-4.683-4.032-4.683zm11.11 11.004c2.667 0 4.473-1.617 4.85-3.738h-2.267c-.315 1.197-1.323 1.89-2.71 1.89-1.784 0-2.94-1.197-3.002-3.024v-.147h8.106a6.16 6.16 0 00.063-.861c-.063-3.15-2.142-5.124-5.25-5.124-3.171 0-5.292 2.205-5.292 5.523 0 3.297 2.12 5.481 5.502 5.481zm-3.045-6.678c.168-1.533 1.407-2.499 2.856-2.499 1.575 0 2.688.903 2.877 2.499H77.02zm25.119 4.578c-.462 0-.693-.147-.693-.693v-4.305c0-2.541-1.638-3.906-4.494-3.906-2.709 0-4.515 1.302-4.746 3.402h2.226c.168-.945 1.071-1.575 2.415-1.575 1.491 0 2.352.735 2.352 1.932v.651H96.49c-3.003 0-4.599 1.239-4.599 3.444 0 1.995 1.638 3.15 3.99 3.15 1.743 0 2.835-.756 3.55-1.848 0 1.071.503 1.722 1.973 1.722h1.197v-1.974h-.462zm-2.94-2.436c-.02 1.659-1.113 2.772-3.003 2.772-1.239 0-1.995-.63-1.995-1.533 0-1.092.777-1.617 2.184-1.617H99.2v.378zm4.176.861c.063 2.331 2.037 3.675 4.914 3.675 2.604 0 4.557-1.302 4.557-3.36 0-2.394-1.995-2.898-4.452-3.192-1.554-.168-2.583-.294-2.583-1.302 0-.861.882-1.407 2.226-1.407 1.344 0 2.268.693 2.394 1.68h2.226c-.147-2.205-2.016-3.423-4.662-3.423-2.583-.021-4.41 1.302-4.41 3.339 0 2.226 1.932 2.751 4.389 3.045 1.659.21 2.646.294 2.646 1.449 0 .861-.924 1.407-2.331 1.407-1.638 0-2.604-.798-2.688-1.911h-2.226zM14.532 87.858c-.441 0-.735-.126-1.008-.399.987-1.26 1.533-2.94 1.533-4.809 0-4.305-2.919-7.476-7.14-7.476S.777 78.345.777 82.65s2.919 7.476 7.14 7.476c1.596 0 3.003-.441 4.137-1.239l.063.084c.525.693 1.071 1.029 2.268 1.029h1.428v-2.142h-1.281zm-6.615.147c-2.793 0-4.662-2.247-4.662-5.355 0-3.108 1.869-5.355 4.662-5.355s4.662 2.247 4.662 5.355c0 1.05-.21 2.016-.609 2.814l-.441-.567c-.504-.672-.987-1.029-2.079-1.029H7.875v2.1h1.302c.504 0 .819.231 1.176.714l.315.42c-.735.567-1.68.903-2.751.903zm11.504-11.214c0 .777-.315 1.323-1.071 1.323h-2.29v1.995h2.395c.399 0 .714-.063.924-.189V90h2.33V75.3h-2.288v1.491zm11.291.945c.777 0 1.386-.567 1.386-1.365s-.609-1.365-1.386-1.365c-.777 0-1.386.567-1.386 1.365s.61 1.365 1.386 1.365zM29.557 90h2.268V79.248h-2.268V90zm4.03-3.549c.063 2.331 2.036 3.675 4.913 3.675 2.605 0 4.557-1.302 4.557-3.36 0-2.394-1.995-2.898-4.452-3.192-1.553-.168-2.582-.294-2.582-1.302 0-.861.881-1.407 2.225-1.407 1.345 0 2.269.693 2.395 1.68h2.225c-.147-2.205-2.016-3.423-4.662-3.423-2.583-.021-4.41 1.302-4.41 3.339 0 2.226 1.932 2.751 4.39 3.045 1.658.21 2.645.294 2.645 1.449 0 .861-.924 1.407-2.33 1.407-1.639 0-2.604-.798-2.688-1.911h-2.227zm22.04-7.203c-1.764 0-2.625.714-3.17 1.617l-.253-1.617h-2.016V90h2.268v-5.397c0-1.659.651-3.234 2.667-3.234h1.008v-2.121h-.504zm6.493 10.878c2.667 0 4.473-1.617 4.851-3.738h-2.268c-.315 1.197-1.323 1.89-2.709 1.89-1.785 0-2.94-1.197-3.003-3.024v-.147h8.106a6.16 6.16 0 00.063-.861c-.063-3.15-2.142-5.124-5.25-5.124-3.17 0-5.292 2.205-5.292 5.523 0 3.297 2.121 5.481 5.502 5.481zm-3.045-6.678c.168-1.533 1.407-2.499 2.856-2.499 1.575 0 2.688.903 2.877 2.499h-5.733zM68.994 90h2.268V75.3h-2.268V90zm9.594.126c2.667 0 4.473-1.617 4.851-3.738h-2.268c-.315 1.197-1.323 1.89-2.709 1.89-1.785 0-2.94-1.197-3.003-3.024v-.147h8.106a6.16 6.16 0 00.063-.861c-.063-3.15-2.142-5.124-5.25-5.124-3.17 0-5.292 2.205-5.292 5.523 0 3.297 2.121 5.481 5.502 5.481zm-3.045-6.678c.168-1.533 1.407-2.499 2.856-2.499 1.575 0 2.688.903 2.877 2.499h-5.733zm19.747 4.578c-.462 0-.693-.147-.693-.693v-4.305c0-2.541-1.638-3.906-4.494-3.906-2.71 0-4.515 1.302-4.746 3.402h2.226c.168-.945 1.07-1.575 2.415-1.575 1.49 0 2.352.735 2.352 1.932v.651h-2.71c-3.002 0-4.598 1.239-4.598 3.444 0 1.995 1.638 3.15 3.99 3.15 1.743 0 2.835-.756 3.549-1.848 0 1.071.504 1.722 1.974 1.722h1.197v-1.974h-.462zm-2.94-2.436c-.021 1.659-1.113 2.772-3.003 2.772-1.24 0-1.995-.63-1.995-1.533 0-1.092.777-1.617 2.184-1.617h2.814v.378zm4.175.861c.063 2.331 2.037 3.675 4.914 3.675 2.604 0 4.557-1.302 4.557-3.36 0-2.394-1.995-2.898-4.452-3.192-1.554-.168-2.583-.294-2.583-1.302 0-.861.882-1.407 2.226-1.407 1.344 0 2.268.693 2.394 1.68h2.226c-.147-2.205-2.016-3.423-4.662-3.423-2.583-.021-4.41 1.302-4.41 3.339 0 2.226 1.932 2.751 4.389 3.045 1.659.21 2.646.294 2.646 1.449 0 .861-.924 1.407-2.331 1.407-1.638 0-2.604-.798-2.688-1.911h-2.226zm16.332 3.675c2.667 0 4.473-1.617 4.851-3.738h-2.268c-.315 1.197-1.323 1.89-2.709 1.89-1.785 0-2.94-1.197-3.003-3.024v-.147h8.106a6.16 6.16 0 00.063-.861c-.063-3.15-2.142-5.124-5.25-5.124-3.171 0-5.292 2.205-5.292 5.523 0 3.297 2.121 5.481 5.502 5.481zm-3.045-6.678c.168-1.533 1.407-2.499 2.856-2.499 1.575 0 2.688.903 2.877 2.499h-5.733zm18.087-2.709c-.693-.945-1.848-1.617-3.486-1.617-2.919 0-5.082 2.184-5.082 5.502 0 3.444 2.163 5.502 5.082 5.502 1.701 0 2.814-.798 3.507-1.743l.273 1.617h1.974V75.3h-2.268v5.439zm-3.108 7.476c-1.89 0-3.129-1.47-3.129-3.591 0-2.1 1.239-3.57 3.129-3.57s3.129 1.47 3.129 3.612c0 2.079-1.239 3.549-3.129 3.549z" fill="#000"/></svg>