<svg width="63" height="19" viewBox="0 0 63 19" fill="none" xmlns="http://www.w3.org/2000/svg"><rect y=".5" width="63" height="18" rx="9" fill="#000"/><path d="M10.16 7.54h1.816v4.96h.696V7.54h1.816V6.9H10.16v.64zm6.418.88c-.728 0-1.04.304-1.232.616l-.088-.616h-.568v4.08h.656v-2.08c0-.648.232-1.36 1.088-1.36h.328v-.64h-.184zm4.22 3.48c-.184 0-.264-.056-.264-.272V9.844c0-.952-.6-1.472-1.64-1.472-.984 0-1.632.472-1.728 1.272h.656c.08-.416.464-.688 1.04-.688.64 0 1.016.32 1.016.848v.28h-1.2c-1.072 0-1.64.456-1.64 1.272 0 .744.608 1.192 1.504 1.192.704 0 1.112-.312 1.368-.68.008.4.192.632.736.632h.36v-.6h-.208zm-.92-1.064c0 .68-.472 1.152-1.288 1.152-.544 0-.888-.272-.888-.672 0-.464.328-.68.912-.68h1.264v.2zm4.802-1.792c-.248-.392-.712-.672-1.4-.672-1.128 0-1.96.84-1.96 2.088 0 1.328.832 2.088 1.96 2.088a1.65 1.65 0 001.4-.704l.088.656h.568V6.9h-.656v2.144zm-1.336 2.92c-.808 0-1.352-.616-1.352-1.504s.544-1.504 1.352-1.504c.8 0 1.344.624 1.344 1.52 0 .872-.544 1.488-1.344 1.488zm4.765.584c.944 0 1.616-.6 1.776-1.416h-.664c-.136.528-.584.832-1.16.832-.776 0-1.264-.544-1.288-1.32v-.056h3.168c.008-.096.016-.192.016-.28-.032-1.208-.784-1.936-1.936-1.936s-1.936.848-1.936 2.088c0 1.248.8 2.088 2.024 2.088zm-1.296-2.504a1.208 1.208 0 011.216-1.096c.68 0 1.16.392 1.224 1.096h-2.44zm6.29 1.392c0 .72.28 1.064 1.065 1.064h.712v-.6h-.648c-.352 0-.472-.128-.472-.472V9.02h1.056v-.6H33.76V7.276h-.656V8.42h-.736v.6h.736v2.416zm4.123 1.112c1.192 0 2.024-.848 2.024-2.088 0-1.24-.832-2.088-2.024-2.088-1.192 0-2.024.848-2.024 2.088 0 1.24.832 2.088 2.024 2.088zm0-.584c-.808 0-1.352-.632-1.352-1.504s.544-1.504 1.352-1.504 1.352.632 1.352 1.504-.544 1.504-1.352 1.504zm5.993-2.92c-.248-.392-.712-.672-1.4-.672-1.128 0-1.96.84-1.96 2.088 0 1.328.832 2.088 1.96 2.088a1.65 1.65 0 001.4-.704l.088.656h.568V6.9h-.656v2.144zm-1.336 2.92c-.808 0-1.352-.616-1.352-1.504s.544-1.504 1.352-1.504c.8 0 1.344.624 1.344 1.52 0 .872-.544 1.488-1.344 1.488zm6.493-.064c-.184 0-.264-.056-.264-.272V9.844c0-.952-.6-1.472-1.64-1.472-.984 0-1.632.472-1.728 1.272h.656c.08-.416.464-.688 1.04-.688.64 0 1.016.32 1.016.848v.28h-1.2c-1.072 0-1.64.456-1.64 1.272 0 .744.608 1.192 1.504 1.192.704 0 1.112-.312 1.368-.68.008.4.192.632.736.632h.36v-.6h-.208zm-.92-1.064c0 .68-.472 1.152-1.288 1.152-.544 0-.888-.272-.888-.672 0-.464.328-.68.912-.68h1.264v.2zm2.668 1.688l-.2.496c-.152.384-.216.48-.592.48h-.584v.6h.784c.576 0 .728-.256.984-.912l1.88-4.768H51.7l-1.216 3.256-1.256-3.256h-.696l1.592 4.104z" fill="#fff"/></svg>