<svg width="183" height="13" viewBox="0 0 183 13" fill="none" xmlns="http://www.w3.org/2000/svg"><path d="M.26 1.726h2.808V9.5h1.495V1.726h2.808V.4H.26v1.326zm13.153 6.552c-.286 0-.43-.091-.43-.429V5.184c0-1.573-1.013-2.418-2.781-2.418-1.677 0-2.795.806-2.938 2.106h1.378c.104-.585.663-.975 1.495-.975.923 0 1.456.455 1.456 1.196v.403H9.916c-1.86 0-2.847.767-2.847 2.132 0 1.235 1.014 1.95 2.47 1.95 1.079 0 1.755-.468 2.197-1.144 0 .663.312 1.066 1.222 1.066h.74V8.278h-.285zm-1.82-1.508c-.013 1.027-.69 1.716-1.86 1.716-.766 0-1.234-.39-1.234-.949 0-.676.48-1.001 1.352-1.001h1.742v.234zm6.432-4.004c-1.04 0-1.729.481-2.17 1.066l-.17-.988h-1.222V12.1h1.404V8.564c.416.598 1.131 1.014 2.158 1.014 1.82 0 3.146-1.352 3.146-3.406 0-2.132-1.326-3.406-3.146-3.406zm-.234 5.629c-1.17 0-1.937-.923-1.937-2.249 0-1.287.767-2.184 1.937-2.184s1.95.897 1.95 2.21c0 1.3-.78 2.223-1.95 2.223zm8.547-6.487c.48 0 .858-.351.858-.845s-.377-.845-.858-.845-.858.351-.858.845.377.845.858.845zM25.623 9.5h1.404V2.844h-1.404V9.5zm6.29-6.734c-1.08 0-1.716.429-2.132.949l-.156-.871h-1.222V9.5h1.404V6.146c0-1.352.663-2.171 1.78-2.171 1.054 0 1.587.676 1.587 1.937V9.5h1.417V5.795c0-2.223-1.21-3.029-2.678-3.029zm4.436 4.927c0 1.209.546 1.807 1.82 1.807h1.3V8.265h-.988c-.533 0-.715-.195-.715-.715V4.079h1.625V2.844h-1.625V.985h-1.417v1.859h-1.157v1.235h1.157v3.614zm7.02 1.885c2.027 0 3.392-1.365 3.392-3.406 0-2.028-1.365-3.406-3.393-3.406-2.028 0-3.393 1.378-3.393 3.406 0 2.041 1.365 3.406 3.393 3.406zm0-1.196c-1.184 0-1.95-.923-1.95-2.21s.766-2.21 1.95-2.21c1.182 0 1.962.923 1.962 2.21s-.78 2.21-1.963 2.21zm8.328-.689c0 1.209.546 1.807 1.82 1.807h1.3V8.265h-.988c-.533 0-.715-.195-.715-.715V4.079h1.625V2.844h-1.625V.985h-1.417v1.859H50.54v1.235h1.157v3.614zm7.033 1.885c1.65 0 2.769-1.001 3.003-2.314h-1.404c-.195.741-.82 1.17-1.677 1.17-1.105 0-1.82-.741-1.86-1.872v-.091h5.019c.026-.182.039-.364.039-.533-.04-1.95-1.326-3.172-3.25-3.172-1.963 0-3.276 1.365-3.276 3.419 0 2.041 1.313 3.393 3.406 3.393zm-1.885-4.134c.104-.949.87-1.547 1.768-1.547.975 0 1.664.559 1.78 1.547h-3.548zm9.195 4.134c1.703 0 2.834-.949 3.094-2.457h-1.482c-.17.767-.741 1.261-1.6 1.261-1.13 0-1.871-.897-1.871-2.197 0-1.313.74-2.223 1.872-2.223.87 0 1.43.481 1.612 1.261h1.469c-.273-1.508-1.34-2.457-3.055-2.457-2.015 0-3.341 1.365-3.341 3.419 0 2.08 1.287 3.393 3.302 3.393zm7.665-6.812c-1.04 0-1.677.468-2.093 1.04V.4H70.21v9.1h1.403V6.133c0-1.339.677-2.158 1.782-2.158 1.04 0 1.599.676 1.599 1.937V9.5h1.404V5.795c0-2.223-1.21-3.029-2.692-3.029zM84.16 9.578c1.65 0 2.768-1.001 3.002-2.314h-1.404c-.195.741-.819 1.17-1.677 1.17-1.105 0-1.82-.741-1.858-1.872v-.091h5.018c.026-.182.038-.364.038-.533-.038-1.95-1.326-3.172-3.25-3.172-1.963 0-3.276 1.365-3.276 3.419 0 2.041 1.314 3.393 3.407 3.393zm-1.886-4.134c.105-.949.871-1.547 1.769-1.547.974 0 1.663.559 1.78 1.547h-3.549zm12.225 2.834c-.286 0-.43-.091-.43-.429V5.184c0-1.573-1.013-2.418-2.781-2.418-1.677 0-2.795.806-2.938 2.106h1.378c.104-.585.663-.975 1.495-.975.923 0 1.456.455 1.456 1.196v.403H91c-1.86 0-2.847.767-2.847 2.132 0 1.235 1.014 1.95 2.47 1.95 1.079 0 1.755-.468 2.197-1.144 0 .663.312 1.066 1.222 1.066h.74V8.278h-.285zm-1.82-1.508c-.013 1.027-.69 1.716-1.86 1.716-.766 0-1.234-.39-1.234-.949 0-.676.48-1.001 1.352-1.001h1.742v.234zm6.237-3.926c-1.092 0-1.625.442-1.963 1.001l-.156-1.001h-1.248V9.5h1.404V6.159c0-1.027.403-2.002 1.651-2.002h.624V2.844h-.312zm4.688-.078c-1.079 0-1.716.429-2.132.949l-.156-.871h-1.222V9.5h1.404V6.146c0-1.352.663-2.171 1.781-2.171 1.053 0 1.586.676 1.586 1.937V9.5h1.417V5.795c0-2.223-1.209-3.029-2.678-3.029zm4.67-.858c.481 0 .858-.351.858-.845s-.377-.845-.858-.845-.858.351-.858.845.377.845.858.845zm-.715 7.592h1.404V2.844h-1.404V9.5zm6.29-6.734c-1.079 0-1.716.429-2.132.949l-.156-.871h-1.222V9.5h1.404V6.146c0-1.352.663-2.171 1.781-2.171 1.053 0 1.586.676 1.586 1.937V9.5h1.417V5.795c0-2.223-1.209-3.029-2.678-3.029zm9.038 1.118c-.429-.663-1.144-1.118-2.184-1.118-1.807 0-3.146 1.339-3.146 3.38 0 2.119 1.339 3.38 3.146 3.38 1.04 0 1.729-.429 2.171-1.092v.741c0 1.274-.689 1.859-1.911 1.859-.988 0-1.638-.429-1.807-1.17h-1.43c.13 1.495 1.365 2.314 3.133 2.314 2.392 0 3.406-1.144 3.406-2.951V2.844h-1.222l-.156 1.04zm-1.95 4.459c-1.17 0-1.937-.897-1.937-2.197 0-1.287.767-2.197 1.937-2.197s1.937.91 1.937 2.223c0 1.274-.767 2.171-1.937 2.171zm4.414-1.04c.039 1.443 1.261 2.275 3.042 2.275 1.612 0 2.821-.806 2.821-2.08 0-1.482-1.235-1.794-2.756-1.976-.962-.104-1.599-.182-1.599-.806 0-.533.546-.871 1.378-.871.832 0 1.404.429 1.482 1.04h1.378c-.091-1.365-1.248-2.119-2.886-2.119-1.599-.013-2.73.806-2.73 2.067 0 1.378 1.196 1.703 2.717 1.885 1.027.13 1.638.182 1.638.897 0 .533-.572.871-1.443.871-1.014 0-1.612-.494-1.664-1.183h-1.378zM137.421 9.5h1.716l2.457-6.656h-1.482l-1.807 5.148-1.833-5.148h-1.508l2.457 6.656zm7.726.078c2.028 0 3.393-1.365 3.393-3.406 0-2.028-1.365-3.406-3.393-3.406-2.028 0-3.393 1.378-3.393 3.406 0 2.041 1.365 3.406 3.393 3.406zm0-1.196c-1.183 0-1.95-.923-1.95-2.21s.767-2.21 1.95-2.21c1.183 0 1.963.923 1.963 2.21s-.78 2.21-1.963 2.21zm4.521 1.118h1.404V.4h-1.404v9.1zm8.865-1.222c-.286 0-.429-.091-.429-.429V5.184c0-1.573-1.014-2.418-2.782-2.418-1.677 0-2.795.806-2.938 2.106h1.378c.104-.585.663-.975 1.495-.975.923 0 1.456.455 1.456 1.196v.403h-1.677c-1.859 0-2.847.767-2.847 2.132 0 1.235 1.014 1.95 2.47 1.95 1.079 0 1.755-.468 2.197-1.144 0 .663.312 1.066 1.222 1.066h.741V8.278h-.286zm-1.82-1.508c-.013 1.027-.689 1.716-1.859 1.716-.767 0-1.235-.39-1.235-.949 0-.676.481-1.001 1.352-1.001h1.742v.234zm3.352.923c0 1.209.546 1.807 1.82 1.807h1.3V8.265h-.988c-.533 0-.715-.195-.715-.715V4.079h1.625V2.844h-1.625V.985h-1.417v1.859h-1.157v1.235h1.157v3.614zm4.728-5.785c.481 0 .858-.351.858-.845s-.377-.845-.858-.845-.858.351-.858.845.377.845.858.845zm-.715 7.592h1.404V2.844h-1.404V9.5zm2.78 0h1.404V.4h-1.404v9.1zm3.495-7.592c.481 0 .858-.351.858-.845s-.377-.845-.858-.845-.858.351-.858.845.377.845.858.845zm-.715 7.592h1.404V2.844h-1.404V9.5zm3.261-1.807c0 1.209.546 1.807 1.82 1.807h1.3V8.265h-.988c-.533 0-.715-.195-.715-.715V4.079h1.625V2.844h-1.625V.985h-1.417v1.859h-1.157v1.235h1.157v3.614zm5.938 1.846l-.26.65c-.208.546-.338.676-.884.676h-.988V12.1h1.508c.975 0 1.261-.481 1.677-1.56l3.016-7.696h-1.495l-1.807 5.057-1.859-5.057h-1.495l2.587 6.695z" fill="#000"/></svg>