<svg width="258" height="11" viewBox="0 0 258 11" fill="none" xmlns="http://www.w3.org/2000/svg"><path d="M.759 4.821c0 2.145.913 3.245 2.805 3.245 1.903 0 2.827-1.1 2.827-3.245V.3h-.594v4.554c0 1.771-.682 2.662-2.233 2.662-1.529 0-2.211-.891-2.211-2.662V.3H.759v4.521zm6.901.814c.077 1.452 1.133 2.431 2.86 2.431 1.617 0 2.684-.88 2.684-2.178 0-1.463-1.298-1.837-2.574-2.057-1.177-.198-2.2-.396-2.2-1.496 0-1.001.781-1.562 1.991-1.562 1.155 0 1.947.649 2.08 1.65h.604c-.11-1.32-1.11-2.189-2.684-2.189-1.562 0-2.585.825-2.585 2.134 0 1.463 1.254 1.793 2.486 2.002 1.21.209 2.288.451 2.288 1.573 0 .99-.836 1.584-2.079 1.584-1.298 0-2.178-.748-2.255-1.892H7.66zm9.43.649c.044 1.155.979 1.782 2.376 1.782 1.199 0 2.167-.605 2.167-1.595 0-1.177-1.034-1.408-2.233-1.573-.87-.121-1.64-.22-1.64-1.001 0-.638.628-1.056 1.574-1.056.89 0 1.529.429 1.628 1.155h.572c-.1-1.089-.99-1.639-2.2-1.639-1.243-.011-2.134.627-2.134 1.584 0 1.122 1.034 1.331 2.178 1.485.935.132 1.694.253 1.694 1.078 0 .66-.693 1.078-1.606 1.078-1.067 0-1.76-.495-1.804-1.298h-.572zm8.187-3.927c-1.045 0-1.694.583-2.013 1.386V.3h-.561V8h.561V5.25c0-1.452.737-2.376 1.925-2.376 1.067 0 1.727.704 1.727 2.024V8h.561V4.876c0-1.76-.935-2.519-2.2-2.519zm8.358 5.126c-.33 0-.495-.11-.495-.539V4.348c0-1.276-.78-1.991-2.178-1.991-1.276 0-2.123.616-2.266 1.628h.561c.143-.682.737-1.133 1.683-1.133 1.045 0 1.64.55 1.64 1.474v.484h-1.893c-1.43 0-2.2.616-2.2 1.661 0 .99.781 1.595 1.97 1.595 1.132 0 1.803-.517 2.144-1.21v.198c-.022.66.253.946.913.946h.33v-.517h-.209zM32.58 5.745c0 1.067-.759 1.837-2.079 1.837-.89 0-1.44-.451-1.44-1.144 0-.737.55-1.144 1.583-1.144h1.936v.451zm4.293-3.322c-1.034 0-1.474.495-1.705 1.111l-.088-1.111h-.484V8h.56V5.173c0-1.133.298-2.211 1.607-2.211h.407v-.539h-.297zm3.194 5.643c1.221 0 2.156-.792 2.398-1.914h-.572c-.22.869-.957 1.408-1.87 1.408-1.243 0-2.024-.946-2.046-2.244v-.099h4.554c0-.077.011-.165.011-.231-.055-1.661-1.078-2.629-2.574-2.629-1.529 0-2.574 1.166-2.574 2.816 0 1.749 1.09 2.893 2.673 2.893zM38.02 4.744c.088-1.133.935-1.892 1.958-1.892 1.09 0 1.87.671 1.958 1.892H38.02zm11.983 3.322c1.65 0 2.816-.891 3.146-2.442h-.627c-.33 1.232-1.22 1.892-2.53 1.892-1.782 0-2.904-1.397-2.904-3.366S48.232.784 50.014.784c1.287 0 2.19.671 2.53 1.881h.627c-.34-1.54-1.507-2.431-3.124-2.431-2.167 0-3.575 1.606-3.575 3.916 0 2.332 1.375 3.916 3.531 3.916zM54.428 8h.594V4.447h3.322v-.55h-3.322V.85h3.982V.3h-4.576V8zm7.862 0c2.442 0 3.872-1.518 3.872-3.85 0-2.343-1.43-3.85-3.872-3.85h-2.244V8h2.244zM60.64.85h1.65c2.1 0 3.267 1.276 3.267 3.3 0 2.013-1.166 3.3-3.267 3.3h-1.65V.85zm6.454 5.434c.044 1.155.98 1.782 2.377 1.782 1.198 0 2.166-.605 2.166-1.595 0-1.177-1.034-1.408-2.233-1.573-.868-.121-1.638-.22-1.638-1.001 0-.638.626-1.056 1.572-1.056.892 0 1.53.429 1.629 1.155h.572c-.1-1.089-.99-1.639-2.2-1.639-1.243-.011-2.135.627-2.135 1.584 0 1.122 1.035 1.331 2.178 1.485.935.132 1.694.253 1.694 1.078 0 .66-.692 1.078-1.605 1.078-1.068 0-1.76-.495-1.805-1.298h-.572zm7.94-3.344h1.057V8h.56V2.94h1.673v-.517h-1.672v-.836c0-.55.209-.77.77-.77h.913V.3H77.4c-.935 0-1.31.407-1.31 1.298v.825h-1.055v.517zm6.246-.517c-1.034 0-1.474.495-1.705 1.111l-.088-1.111h-.484V8h.56V5.173c0-1.133.298-2.211 1.607-2.211h.407v-.539h-.297zm3.195 5.643c1.573 0 2.684-1.166 2.684-2.86 0-1.683-1.111-2.849-2.684-2.849-1.573 0-2.673 1.166-2.673 2.849 0 1.694 1.1 2.86 2.673 2.86zm0-.506c-1.243 0-2.101-.968-2.101-2.354 0-1.375.858-2.354 2.1-2.354 1.244 0 2.102.979 2.102 2.354 0 1.386-.858 2.354-2.101 2.354zm10.024-5.203c-1.023 0-1.683.572-2.002 1.397-.264-.924-.957-1.397-1.837-1.397-.957 0-1.529.561-1.815 1.254l-.088-1.188h-.484V8h.561V5.162c0-1.364.66-2.288 1.727-2.288.968 0 1.573.682 1.573 1.969V8h.561V4.964c.033-1.276.693-2.09 1.738-2.09.968 0 1.551.649 1.551 1.914V8h.572V4.766c0-1.683-.89-2.409-2.057-2.409zm7.455-1.078c0 .352-.165.594-.506.594h-1.32v.517h1.32c.231 0 .396-.066.495-.187V8h.572V.3h-.561v.979zm1.969 6.358c0 .253.176.418.418.418a.398.398 0 00.418-.418c0-.253-.176-.407-.418-.407s-.418.154-.418.407zm4.23-4.741c-.814 0-1.54.286-2.002.935l.209-3.003h3.817V.3h-4.334l-.275 4.301.55.022c.33-.902 1.254-1.21 1.958-1.21 1.232 0 1.991.869 1.991 2.057 0 1.364-.979 2.068-2.035 2.068-1.254 0-1.98-.836-2.068-1.837h-.572c.088 1.276 1.012 2.354 2.64 2.354 1.386 0 2.618-.902 2.618-2.596 0-1.496-1.001-2.563-2.497-2.563zm8.934 5.17c1.265 0 2.156-.726 2.376-1.859h-.594c-.187.825-.858 1.353-1.782 1.353-1.221 0-2.068-.957-2.068-2.343 0-1.386.836-2.365 2.068-2.365.935 0 1.595.528 1.793 1.364h.583c-.231-1.155-1.1-1.859-2.365-1.859-1.573 0-2.651 1.166-2.651 2.86 0 1.716 1.067 2.849 2.64 2.849zm5.931 0c1.221 0 2.156-.792 2.398-1.914h-.572c-.22.869-.957 1.408-1.87 1.408-1.243 0-2.024-.946-2.046-2.244v-.099h4.554c0-.077.011-.165.011-.231-.055-1.661-1.078-2.629-2.574-2.629-1.529 0-2.574 1.166-2.574 2.816 0 1.749 1.089 2.893 2.673 2.893zm-2.046-3.322c.088-1.133.935-1.892 1.958-1.892 1.089 0 1.87.671 1.958 1.892h-3.916zm8.203-2.387c-1.023 0-1.683.528-2.002 1.254l-.088-1.188h-.484V8h.561V5.25c0-1.452.737-2.376 1.925-2.376 1.078 0 1.727.704 1.727 2.024V8h.561V4.876c0-1.76-.935-2.519-2.2-2.519zm3.86 4.345c0 .891.363 1.298 1.309 1.298h.814v-.517h-.77c-.583 0-.792-.22-.792-.792V2.94h1.507v-.517h-1.507V.861h-.561v1.562h-1.056v.517h1.056v3.762zm2.724-.418c.044 1.155.979 1.782 2.376 1.782 1.199 0 2.167-.605 2.167-1.595 0-1.177-1.034-1.408-2.233-1.573-.869-.121-1.639-.22-1.639-1.001 0-.638.627-1.056 1.573-1.056.891 0 1.529.429 1.628 1.155h.572c-.099-1.089-.99-1.639-2.2-1.639-1.243-.011-2.134.627-2.134 1.584 0 1.122 1.034 1.331 2.178 1.485.935.132 1.694.253 1.694 1.078 0 .66-.693 1.078-1.606 1.078-1.067 0-1.76-.495-1.804-1.298h-.572zm14.595 1.21c-.308 0-.528-.066-.759-.352l-.55-.638 1.749-2.662h-.594l-1.496 2.255-1.716-2.013-.066-.077c1.474-.616 2.002-1.32 2.002-2.178 0-.913-.715-1.595-1.683-1.595-1.144 0-1.991.759-1.991 1.771 0 .704.242 1.144.836 1.87-1.342.572-1.881 1.364-1.881 2.233 0 1.265 1.001 1.958 2.255 1.958.858 0 1.606-.385 2.233-1.122l.539.638c.264.319.627.418 1.045.418h.77v-.506h-.693zM147.197.718c.682 0 1.155.473 1.155 1.122 0 .748-.517 1.287-1.727 1.815-.561-.671-.792-1.056-.792-1.661 0-.737.561-1.276 1.364-1.276zm-.726 6.842c-.968 0-1.694-.55-1.694-1.496 0-.803.451-1.298 1.595-1.848l.165.187 1.826 2.156c-.517.649-1.166 1.001-1.892 1.001zm14.898-5.203c-1.023 0-1.683.572-2.002 1.397-.264-.924-.957-1.397-1.837-1.397-.957 0-1.529.561-1.815 1.254l-.088-1.188h-.484V8h.561V5.162c0-1.364.66-2.288 1.727-2.288.968 0 1.573.682 1.573 1.969V8h.561V4.964c.033-1.276.693-2.09 1.738-2.09.968 0 1.551.649 1.551 1.914V8h.572V4.766c0-1.683-.891-2.409-2.057-2.409zm5.681 5.709c1.573 0 2.684-1.166 2.684-2.86 0-1.683-1.111-2.849-2.684-2.849-1.573 0-2.673 1.166-2.673 2.849 0 1.694 1.1 2.86 2.673 2.86zm0-.506c-1.243 0-2.101-.968-2.101-2.354 0-1.375.858-2.354 2.101-2.354 1.243 0 2.101.979 2.101 2.354 0 1.386-.858 2.354-2.101 2.354zm6.372-5.203c-1.023 0-1.683.528-2.002 1.254l-.088-1.188h-.484V8h.561V5.25c0-1.452.737-2.376 1.925-2.376 1.078 0 1.727.704 1.727 2.024V8h.561V4.876c0-1.76-.935-2.519-2.2-2.519zm3.86 4.345c0 .891.363 1.298 1.309 1.298h.814v-.517h-.77c-.583 0-.792-.22-.792-.792V2.94h1.507v-.517h-1.507V.861h-.561v1.562h-1.056v.517h1.056v3.762zm5.551-4.345c-1.045 0-1.694.583-2.013 1.386V.3h-.561V8h.561V5.25c0-1.452.737-2.376 1.925-2.376 1.067 0 1.727.704 1.727 2.024V8h.561V4.876c0-1.76-.935-2.519-2.2-2.519zM186.285 8h.561V.3h-.561V8zm3.552 0l-.363.902c-.253.616-.352.781-.924.781h-.704v.517h.858c.748 0 .924-.286 1.276-1.166l2.673-6.611h-.605l-1.903 4.851-1.936-4.851h-.605L189.837 8zm8.966.066c1.265 0 2.156-.726 2.376-1.859h-.594c-.187.825-.858 1.353-1.782 1.353-1.221 0-2.068-.957-2.068-2.343 0-1.386.836-2.365 2.068-2.365.935 0 1.595.528 1.793 1.364h.583c-.231-1.155-1.1-1.859-2.365-1.859-1.573 0-2.651 1.166-2.651 2.86 0 1.716 1.067 2.849 2.64 2.849zm8.372-.583c-.33 0-.495-.11-.495-.539V4.348c0-1.276-.781-1.991-2.178-1.991-1.276 0-2.123.616-2.266 1.628h.561c.143-.682.737-1.133 1.683-1.133 1.045 0 1.639.55 1.639 1.474v.484h-1.892c-1.43 0-2.2.616-2.2 1.661 0 .99.781 1.595 1.969 1.595 1.133 0 1.804-.517 2.145-1.21v.198c-.022.66.253.946.913.946h.33v-.517h-.209zm-1.056-1.738c0 1.067-.759 1.837-2.079 1.837-.891 0-1.441-.451-1.441-1.144 0-.737.55-1.144 1.584-1.144h1.936v.451zm1.763.539c.044 1.155.979 1.782 2.376 1.782 1.199 0 2.167-.605 2.167-1.595 0-1.177-1.034-1.408-2.233-1.573-.869-.121-1.639-.22-1.639-1.001 0-.638.627-1.056 1.573-1.056.891 0 1.529.429 1.628 1.155h.572c-.099-1.089-.99-1.639-2.2-1.639-1.243-.011-2.134.627-2.134 1.584 0 1.122 1.034 1.331 2.178 1.485.935.132 1.694.253 1.694 1.078 0 .66-.693 1.078-1.606 1.078-1.067 0-1.76-.495-1.804-1.298h-.572zm8.187-3.927c-1.045 0-1.694.583-2.013 1.386V.3h-.561V8h.561V5.25c0-1.452.737-2.376 1.925-2.376 1.067 0 1.727.704 1.727 2.024V8h.561V4.876c0-1.76-.935-2.519-2.2-2.519zm8.694.066c-1.034 0-1.474.495-1.705 1.111l-.088-1.111h-.484V8h.561V5.173c0-1.133.297-2.211 1.606-2.211h.407v-.539h-.297zm3.195 5.643c1.221 0 2.156-.792 2.398-1.914h-.572c-.22.869-.957 1.408-1.87 1.408-1.243 0-2.024-.946-2.046-2.244v-.099h4.554c0-.077.011-.165.011-.231-.055-1.661-1.078-2.629-2.574-2.629-1.529 0-2.574 1.166-2.574 2.816 0 1.749 1.089 2.893 2.673 2.893zm-2.046-3.322c.088-1.133.935-1.892 1.958-1.892 1.089 0 1.87.671 1.958 1.892h-3.916zm8.325-2.387c-1.045 0-1.782.572-2.134 1.364V.3h-.561V8h.484l.088-1.265c.33.803 1.078 1.331 2.123 1.331 1.529 0 2.629-1.166 2.629-2.86 0-1.749-1.1-2.849-2.629-2.849zm-.044 5.203c-1.243 0-2.101-.968-2.101-2.365 0-1.364.858-2.343 2.101-2.343 1.243 0 2.101.979 2.101 2.354 0 1.386-.858 2.354-2.101 2.354zm8.689-.077c-.33 0-.495-.11-.495-.539V4.348c0-1.276-.781-1.991-2.178-1.991-1.276 0-2.123.616-2.266 1.628h.561c.143-.682.737-1.133 1.683-1.133 1.045 0 1.639.55 1.639 1.474v.484h-1.892c-1.43 0-2.2.616-2.2 1.661 0 .99.781 1.595 1.969 1.595 1.133 0 1.804-.517 2.145-1.21v.198c-.022.66.253.946.913.946h.33v-.517h-.209zm-1.056-1.738c0 1.067-.759 1.837-2.079 1.837-.891 0-1.441-.451-1.441-1.144 0-.737.55-1.144 1.584-1.144h1.936v.451zm2.434.957c0 .891.363 1.298 1.309 1.298h.814v-.517h-.77c-.583 0-.792-.22-.792-.792V2.94h1.507v-.517h-1.507V.861h-.561v1.562h-1.056v.517h1.056v3.762zm5.268 1.364c1.221 0 2.156-.792 2.398-1.914h-.572c-.22.869-.957 1.408-1.87 1.408-1.243 0-2.024-.946-2.046-2.244v-.099h4.554c0-.077.011-.165.011-.231-.055-1.661-1.078-2.629-2.574-2.629-1.529 0-2.574 1.166-2.574 2.816 0 1.749 1.089 2.893 2.673 2.893zm-2.046-3.322c.088-1.133.935-1.892 1.958-1.892 1.089 0 1.87.671 1.958 1.892h-3.916zm5.366 1.54c.044 1.155.979 1.782 2.376 1.782 1.199 0 2.167-.605 2.167-1.595 0-1.177-1.034-1.408-2.233-1.573-.869-.121-1.639-.22-1.639-1.001 0-.638.627-1.056 1.573-1.056.891 0 1.529.429 1.628 1.155h.572c-.099-1.089-.99-1.639-2.2-1.639-1.243-.011-2.134.627-2.134 1.584 0 1.122 1.034 1.331 2.178 1.485.935.132 1.694.253 1.694 1.078 0 .66-.693 1.078-1.606 1.078-1.067 0-1.76-.495-1.804-1.298h-.572z" fill="#000"/></svg>