<svg width="970" height="250" viewBox="0 0 970 250" fill="none" xmlns="http://www.w3.org/2000/svg"><path d="M526.603 158a.44.44 0 00.41-.41l-.164-13.325.164-14.555a.44.44 0 00-.41-.41h-4.018a.676.676 0 00-.615.369c-1.271 2.009-3.321 3.608-5.863 4.592a.584.584 0 00-.369.533v3.239c0 .205.205.369.41.287 2.214-.697 4.182-1.722 5.74-3.198l.082 9.922-.123 12.546c0 .205.205.41.41.41h4.346zm26.387-10.578a.44.44 0 00-.41-.41h-2.706V129.71a.44.44 0 00-.41-.41h-5.945a.856.856 0 00-.656.328l-10.865 16.564a1.228 1.228 0 00-.246.738v3.608c0 .205.205.41.41.41h12.669v6.642c0 .205.205.41.41.41h4.223a.44.44 0 00.41-.41v-6.642h2.706a.44.44 0 00.41-.41v-3.116zm-8.159-.41h-8.856l9.02-13.981-.164 5.494v8.487zm33.119-3.28c0-9.922-4.305-15.006-10.865-15.006-6.601 0-10.865 5.166-10.865 14.965 0 9.512 4.305 14.883 10.865 14.883 6.56 0 10.865-5.33 10.865-14.842zm-16.564 0c0-7.503 2.009-10.906 5.699-10.906 3.608 0 5.699 3.485 5.699 10.906 0 7.38-2.091 10.742-5.699 10.742-3.567 0-5.699-3.403-5.699-10.742zm39.447-1.394a.44.44 0 00-.41-.41h-7.093v-7.954a.44.44 0 00-.41-.41h-3.034a.44.44 0 00-.41.41v7.954h-7.093a.44.44 0 00-.41.41v3.075c0 .205.205.41.41.41h7.093v7.913c0 .205.205.41.41.41h3.034a.44.44 0 00.41-.41v-7.913h7.093a.44.44 0 00.41-.41v-3.075zm31.401 8.2c.041-.164-.123-.328-.287-.328h-1.271c-.164 0-.328.164-.369.328-.328 3.977-2.911 6.314-6.847 6.314-4.92-.041-7.175-3.608-7.175-9.348s2.296-9.43 7.175-9.43c3.608 0 6.068 1.927 6.642 5.658.041.205.205.328.369.328h1.23c.164 0 .328-.164.287-.328-.451-4.387-3.444-7.298-8.528-7.298-6.068 0-9.266 4.469-9.266 11.07s3.198 10.947 9.225 10.947c5.412 0 8.446-3.321 8.815-7.913zm18.259 3.116l-.082 4.018c0 .164.164.328.328.328h1.394a.353.353 0 00.328-.328l-.082-11.521.082-8.938a.353.353 0 00-.328-.328h-1.435a.353.353 0 00-.328.328l.041 8.733v4.592c-1.394 3.854-3.526 6.232-6.683 6.232-3.198 0-5.33-1.927-5.33-7.011v-3.813l.082-8.733a.353.353 0 00-.328-.328h-1.435a.353.353 0 00-.328.328l.041 8.733v4.018c0 5.781 2.624 8.528 6.888 8.528 3.649 0 5.986-2.46 7.175-4.838zm9.202 4.346a.353.353 0 00.328-.328l-.082-12.792c.779-4.51 3.772-6.478 6.806-6.478.615 0 1.107.041 1.517.164.164.041.328-.082.328-.246v-1.107a.441.441 0 00-.328-.41c-.41-.123-.902-.164-1.435-.164-2.87 0-5.535 1.599-6.929 4.469l.123-3.895a.353.353 0 00-.328-.328h-1.435a.353.353 0 00-.328.328l.123 9.881-.123 10.578c0 .164.164.328.328.328h1.435zm14.573 0a.353.353 0 00.328-.328l-.082-12.792c.779-4.51 3.772-6.478 6.806-6.478.615 0 1.107.041 1.517.164.164.041.328-.082.328-.246v-1.107a.441.441 0 00-.328-.41c-.41-.123-.902-.164-1.435-.164-2.87 0-5.535 1.599-6.929 4.469l.123-3.895a.353.353 0 00-.328-.328h-1.435a.353.353 0 00-.328.328l.123 9.881-.123 10.578c0 .164.164.328.328.328h1.435zm26.513-7.462c-.164 0-.369.123-.369.328-.697 3.731-2.87 5.986-6.683 5.986-5.002 0-7.503-3.485-7.503-9.43l15.949-.041a.353.353 0 00.328-.328c-.123-6.724-3.485-10.619-9.061-10.619-5.699 0-9.266 4.592-9.266 11.07 0 6.478 3.28 10.947 9.512 10.947 5.043 0 7.913-2.952 8.692-7.585 0-.164-.123-.328-.287-.328h-1.312zm-.451-4.797h-14.022c.492-4.715 2.952-7.708 7.134-7.708 4.469 0 6.847 3.444 6.888 7.708zM708.9 158a.353.353 0 00.328-.328l-.041-8.733v-4.592c1.394-3.854 3.526-6.232 6.683-6.232 3.198 0 5.33 1.927 5.33 7.011v3.813l-.082 8.733c0 .164.164.328.328.328h1.435a.353.353 0 00.328-.328l-.041-8.733v-4.018c0-5.781-2.624-8.528-6.888-8.528-3.649 0-5.986 2.46-7.175 4.838l.082-4.018a.353.353 0 00-.328-.328h-1.394a.353.353 0 00-.328.328l.082 11.521-.082 8.938c0 .164.164.328.328.328h1.435zm36.795-7.462c.041-.164-.123-.328-.287-.328h-1.271c-.164 0-.328.164-.369.328-.328 3.977-2.911 6.314-6.847 6.314-4.92-.041-7.175-3.608-7.175-9.348s2.296-9.43 7.175-9.43c3.608 0 6.068 1.927 6.642 5.658.041.205.205.328.369.328h1.23c.164 0 .328-.164.287-.328-.451-4.387-3.444-7.298-8.528-7.298-6.068 0-9.266 4.469-9.266 11.07s3.198 10.947 9.225 10.947c5.412 0 8.446-3.321 8.815-7.913zm6.287-16.4a.353.353 0 00.328-.328v-2.214a.353.353 0 00-.328-.328h-1.435a.353.353 0 00-.328.328v2.214c0 .164.164.328.328.328h1.435zm0 23.862a.353.353 0 00.328-.328l-.041-10.865.041-9.594a.353.353 0 00-.328-.328h-1.435a.353.353 0 00-.328.328l.082 9.635-.082 10.824c0 .164.164.328.328.328h1.435zm21.783-7.462c-.164 0-.369.123-.369.328-.697 3.731-2.87 5.986-6.683 5.986-5.002 0-7.503-3.485-7.503-9.43l15.949-.041a.353.353 0 00.328-.328c-.123-6.724-3.485-10.619-9.061-10.619-5.699 0-9.266 4.592-9.266 11.07 0 6.478 3.28 10.947 9.512 10.947 5.043 0 7.913-2.952 8.692-7.585 0-.164-.123-.328-.287-.328h-1.312zm-.451-4.797h-14.022c.492-4.715 2.952-7.708 7.134-7.708 4.469 0 6.847 3.444 6.888 7.708zm22.758 6.478c0-8.774-14.555-3.813-14.555-10.045 0-2.788 2.255-4.182 5.74-4.182 3.403 0 6.109 1.394 6.314 4.797 0 .164.164.328.328.328h1.23a.353.353 0 00.328-.328c-.205-4.387-3.731-6.314-8.159-6.314-4.51 0-7.749 1.968-7.749 5.781 0 8.2 14.555 3.239 14.555 10.086 0 2.911-2.583 4.551-6.191 4.551-4.346 0-6.724-1.927-6.847-6.068a.353.353 0 00-.328-.328h-1.312a.353.353 0 00-.328.328c.123 5.166 3.485 7.585 8.774 7.585 4.592 0 8.2-2.296 8.2-6.191zM183.603 158a.44.44 0 00.41-.41l-.164-13.325.164-14.555a.44.44 0 00-.41-.41h-4.018a.676.676 0 00-.615.369c-1.271 2.009-3.321 3.608-5.863 4.592a.584.584 0 00-.369.533v3.239c0 .205.205.369.41.287 2.214-.697 4.182-1.722 5.74-3.198l.082 9.922-.123 12.546c0 .205.205.41.41.41h4.346zm26.469-8.077c0-3.362-1.968-5.986-5.617-7.134 3.075-1.271 4.756-3.567 4.715-6.314-.082-4.92-3.608-7.708-9.635-7.708-5.986 0-9.553 2.788-9.594 7.708-.041 2.829 1.599 5.125 4.633 6.314-3.608 1.148-5.535 3.772-5.535 7.134 0 5.412 4.551 8.569 10.496 8.569 5.986 0 10.537-3.157 10.537-8.569zm-15.293-12.997c.041-2.87 1.886-4.633 4.756-4.633s4.756 1.763 4.756 4.633c0 2.501-1.804 4.428-4.756 4.428-2.911 0-4.756-1.845-4.756-4.428zm-.82 12.833c0-3.116 2.132-5.084 5.576-5.125 3.444.041 5.576 2.009 5.576 5.125.041 2.993-2.214 5.207-5.576 5.207-3.321 0-5.617-2.214-5.576-5.207zm41.431-6.027c0-9.922-4.305-15.006-10.865-15.006-6.601 0-10.865 5.166-10.865 14.965 0 9.512 4.305 14.883 10.865 14.883 6.56 0 10.865-5.33 10.865-14.842zm-16.564 0c0-7.503 2.009-10.906 5.699-10.906 3.608 0 5.699 3.485 5.699 10.906 0 7.38-2.091 10.742-5.699 10.742-3.567 0-5.699-3.403-5.699-10.742zm39.448-1.394a.44.44 0 00-.41-.41h-7.093v-7.954a.44.44 0 00-.41-.41h-3.034a.44.44 0 00-.41.41v7.954h-7.093a.44.44 0 00-.41.41v3.075c0 .205.205.41.41.41h7.093v7.913c0 .205.205.41.41.41h3.034a.44.44 0 00.41-.41v-7.913h7.093a.44.44 0 00.41-.41v-3.075zm31.4 8.2c.041-.164-.123-.328-.287-.328h-1.271c-.164 0-.328.164-.369.328-.328 3.977-2.911 6.314-6.847 6.314-4.92-.041-7.175-3.608-7.175-9.348s2.296-9.43 7.175-9.43c3.608 0 6.068 1.927 6.642 5.658.041.205.205.328.369.328h1.23c.164 0 .328-.164.287-.328-.451-4.387-3.444-7.298-8.528-7.298-6.068 0-9.266 4.469-9.266 11.07s3.198 10.947 9.225 10.947c5.412 0 8.446-3.321 8.815-7.913zm22.36-3.075c0-6.601-3.321-11.029-9.43-11.029-6.068 0-9.43 4.428-9.43 11.029s3.362 10.988 9.43 10.988c6.109 0 9.43-4.428 9.43-10.988zm-16.769 0c0-5.74 2.46-9.389 7.339-9.43 4.879 0 7.339 3.731 7.339 9.43 0 5.74-2.419 9.389-7.339 9.389-4.879 0-7.339-3.649-7.339-9.389zm35.289 6.191l-.082 4.018c0 .164.164.328.328.328h1.394a.353.353 0 00.328-.328l-.082-11.521.082-8.938a.353.353 0 00-.328-.328h-1.435a.353.353 0 00-.328.328l.041 8.733v4.592c-1.394 3.854-3.526 6.232-6.683 6.232-3.198 0-5.33-1.927-5.33-7.011v-3.813l.082-8.733a.353.353 0 00-.328-.328h-1.435a.353.353 0 00-.328.328l.041 8.733v4.018c0 5.781 2.624 8.528 6.888 8.528 3.649 0 5.986-2.46 7.175-4.838zm9.243 4.346a.353.353 0 00.328-.328l-.041-8.733v-4.592c1.394-3.854 3.526-6.232 6.683-6.232 3.198 0 5.33 1.927 5.33 7.011v3.813l-.082 8.733c0 .164.164.328.328.328h1.435a.353.353 0 00.328-.328l-.041-8.733v-4.018c0-5.781-2.624-8.528-6.888-8.528-3.649 0-5.986 2.46-7.175 4.838l.082-4.018a.353.353 0 00-.328-.328h-1.394a.353.353 0 00-.328.328l.082 11.521-.082 8.938c0 .164.164.328.328.328h1.435zm28.433-1.394c0-.164-.164-.287-.328-.246-.574.123-1.353.205-2.091.205-2.05 0-2.911-.943-2.911-4.1v-13.899h5.002a.353.353 0 00.328-.328v-1.025a.353.353 0 00-.328-.328H362.9l.041-4.961a.353.353 0 00-.328-.328h-1.435a.353.353 0 00-.328.328l.082 4.961h-2.419a.353.353 0 00-.328.328v1.025c0 .164.164.328.328.328h2.419l-.041 13.899c0 4.469 2.05 5.863 4.797 5.863.738 0 1.599-.164 2.214-.328a.4.4 0 00.328-.41v-.984zm5.917 1.394a.353.353 0 00.328-.328l-.082-12.792c.779-4.51 3.772-6.478 6.806-6.478.615 0 1.107.041 1.517.164.164.041.328-.082.328-.246v-1.107a.441.441 0 00-.328-.41c-.41-.123-.902-.164-1.435-.164-2.87 0-5.535 1.599-6.929 4.469l.123-3.895a.353.353 0 00-.328-.328h-1.435a.353.353 0 00-.328.328l.123 9.881-.123 10.578c0 .164.164.328.328.328h1.435zm14.777-23.862a.353.353 0 00.328-.328v-2.214a.353.353 0 00-.328-.328h-1.435a.353.353 0 00-.328.328v2.214c0 .164.164.328.328.328h1.435zm0 23.862a.353.353 0 00.328-.328l-.041-10.865.041-9.594a.353.353 0 00-.328-.328h-1.435a.353.353 0 00-.328.328l.082 9.635-.082 10.824c0 .164.164.328.328.328h1.435zm21.783-7.462c-.164 0-.369.123-.369.328-.697 3.731-2.87 5.986-6.683 5.986-5.002 0-7.503-3.485-7.503-9.43l15.949-.041a.353.353 0 00.328-.328c-.123-6.724-3.485-10.619-9.061-10.619-5.699 0-9.266 4.592-9.266 11.07 0 6.478 3.28 10.947 9.512 10.947 5.043 0 7.913-2.952 8.692-7.585 0-.164-.123-.328-.287-.328h-1.312zm-.451-4.797h-14.022c.492-4.715 2.952-7.708 7.134-7.708 4.469 0 6.847 3.444 6.888 7.708zm22.758 6.478c0-8.774-14.555-3.813-14.555-10.045 0-2.788 2.255-4.182 5.74-4.182 3.403 0 6.109 1.394 6.314 4.797 0 .164.164.328.328.328h1.23a.353.353 0 00.328-.328c-.205-4.387-3.731-6.314-8.159-6.314-4.51 0-7.749 1.968-7.749 5.781 0 8.2 14.555 3.239 14.555 10.086 0 2.911-2.583 4.551-6.191 4.551-4.346 0-6.724-1.927-6.847-6.068a.353.353 0 00-.328-.328h-1.312a.353.353 0 00-.328.328c.123 5.166 3.485 7.585 8.774 7.585 4.592 0 8.2-2.296 8.2-6.191z" fill="#fff"/></svg>