<svg width="970" height="250" viewBox="0 0 970 250" fill="none" xmlns="http://www.w3.org/2000/svg"><path d="M99.632 149.841c0-11.111-18.942-4.879-18.942-13.325 0-3.977 3.075-5.822 7.831-5.822 5.453 0 8.118 2.214 8.405 6.847 0 .164.164.328.328.328h1.517a.353.353 0 00.328-.328c-.41-5.74-4.141-8.651-10.578-8.651-5.699 0-9.799 2.665-9.799 7.79 0 10.578 18.901 4.223 18.901 13.325 0 4.715-3.69 6.601-8.282 6.601-6.273 0-8.733-3.116-9.061-8.282a.353.353 0 00-.328-.328h-1.517a.353.353 0 00-.328.328c.287 6.273 3.977 10.045 11.111 10.045 5.863 0 10.414-2.788 10.414-8.528zm20.582.697c-.164 0-.369.123-.369.328-.697 3.731-2.87 5.986-6.683 5.986-5.002 0-7.503-3.485-7.503-9.43l15.949-.041a.353.353 0 00.328-.328c-.123-6.724-3.485-10.619-9.061-10.619-5.699 0-9.266 4.592-9.266 11.07 0 6.478 3.28 10.947 9.512 10.947 5.043 0 7.913-2.952 8.692-7.585 0-.164-.123-.328-.287-.328h-1.312zm-.451-4.797h-14.022c.492-4.715 2.952-7.708 7.134-7.708 4.469 0 6.847 3.444 6.888 7.708zm8.57 12.259a.353.353 0 00.328-.328l-.041-8.733v-4.592c1.394-3.854 3.526-6.232 6.683-6.232 3.198 0 5.33 1.927 5.33 7.011v3.813l-.082 8.733c0 .164.164.328.328.328h1.435a.353.353 0 00.328-.328l-.041-8.733v-4.018c0-5.781-2.624-8.528-6.888-8.528-3.649 0-5.986 2.46-7.175 4.838l.082-4.018a.353.353 0 00-.328-.328h-1.394a.353.353 0 00-.328.328l.082 11.521-.082 8.938c0 .164.164.328.328.328h1.435zm20.765-10.742c0-5.125 2.132-9.266 6.888-9.266 4.264 0 6.765 3.649 6.724 9.676-.041 6.068-2.788 9.143-6.806 9.143-4.715 0-6.806-4.264-6.806-9.553zM164.268 158a.353.353 0 00.328-.328l-.082-16.851.082-11.193a.353.353 0 00-.328-.328h-1.435a.353.353 0 00-.328.328l.041 11.234c-1.353-2.87-3.772-4.428-7.011-4.428-5.453 0-8.446 4.961-8.446 11.029 0 6.15 2.911 10.947 8.446 10.947 3.362 0 5.781-1.763 7.093-4.674l-.082 3.936c0 .164.164.328.328.328h1.394zm16.077-13.653c1.394-3.813 3.362-6.232 6.314-6.232 3.034 0 5.002 1.886 5.002 7.011v4.059l-.082 8.487c0 .164.164.328.328.328h1.435a.353.353 0 00.328-.328l-.041-8.487v-4.264c0-.492 0-.943-.041-1.394 1.353-3.321 3.239-5.412 5.986-5.412 3.034 0 5.002 1.886 5.002 7.011v4.059l-.082 8.487c0 .164.164.328.328.328h1.435a.353.353 0 00.328-.328l-.041-8.487v-4.264c0-5.863-2.46-8.528-6.519-8.528-3.321 0-5.535 2.255-6.806 4.838-.861-3.321-3.034-4.838-6.109-4.838-3.444 0-5.617 2.419-6.806 4.838l.082-4.018a.353.353 0 00-.328-.328h-1.394a.353.353 0 00-.328.328l.082 11.972-.123 8.487c0 .164.164.328.328.328h1.476a.353.353 0 00.328-.328l-.082-8.487v-4.838zm49.541 3.116c0-6.601-3.321-11.029-9.43-11.029-6.068 0-9.43 4.428-9.43 11.029s3.362 10.988 9.43 10.988c6.109 0 9.43-4.428 9.43-10.988zm-16.769 0c0-5.74 2.46-9.389 7.339-9.43 4.879 0 7.339 3.731 7.339 9.43 0 5.74-2.419 9.389-7.339 9.389-4.879 0-7.339-3.649-7.339-9.389zM236.271 158a.353.353 0 00.328-.328l-.041-8.733v-4.592c1.394-3.854 3.526-6.232 6.683-6.232 3.198 0 5.33 1.927 5.33 7.011v3.813l-.082 8.733c0 .164.164.328.328.328h1.435a.353.353 0 00.328-.328l-.041-8.733v-4.018c0-5.781-2.624-8.528-6.888-8.528-3.649 0-5.986 2.46-7.175 4.838l.082-4.018a.353.353 0 00-.328-.328h-1.394a.353.353 0 00-.328.328l.082 11.521-.082 8.938c0 .164.164.328.328.328h1.435zm35.36-7.462c-.164 0-.369.123-.369.328-.697 3.731-2.87 5.986-6.683 5.986-5.002 0-7.503-3.485-7.503-9.43l15.949-.041a.353.353 0 00.328-.328c-.123-6.724-3.485-10.619-9.061-10.619-5.699 0-9.266 4.592-9.266 11.07 0 6.478 3.28 10.947 9.512 10.947 5.043 0 7.913-2.952 8.692-7.585 0-.164-.123-.328-.287-.328h-1.312zm-.451-4.797h-14.022c.492-4.715 2.952-7.708 7.134-7.708 4.469 0 6.847 3.444 6.888 7.708zm21.548-8.528c.082-.164-.041-.328-.205-.328h-1.517c-.205 0-.369.123-.451.328l-5.945 17.917-6.929-17.958a.504.504 0 00-.451-.287h-1.64c-.164 0-.287.164-.205.287l8.2 20.746-2.378 6.724c-.082.164.041.328.205.328h1.271c.205 0 .369-.123.451-.328l9.594-27.429zm12.589 10.045c0-5.125 2.132-9.184 6.888-9.184 4.264 0 6.765 3.567 6.724 9.594-.041 6.027-2.706 9.102-6.806 9.102-4.715 0-6.806-4.223-6.806-9.512zM320.487 158a.353.353 0 00.328-.328l-.123-10.619.123-9.84a.353.353 0 00-.328-.328h-1.394a.353.353 0 00-.328.328l.082 3.813c-1.353-2.952-3.772-4.551-7.093-4.551-5.453 0-8.446 4.92-8.446 10.988 0 6.15 2.911 10.906 8.446 10.906 3.362 0 5.781-1.763 7.093-4.674l-.082 3.977c0 .164.164.328.328.328h1.394zm7.545 0a.353.353 0 00.328-.328l-.041-8.733v-4.592c1.394-3.854 3.526-6.232 6.683-6.232 3.198 0 5.33 1.927 5.33 7.011v3.813l-.082 8.733c0 .164.164.328.328.328h1.435a.353.353 0 00.328-.328l-.041-8.733v-4.018c0-5.781-2.624-8.528-6.888-8.528-3.649 0-5.986 2.46-7.175 4.838l.082-4.018a.353.353 0 00-.328-.328h-1.394a.353.353 0 00-.328.328l.082 11.521-.082 8.938c0 .164.164.328.328.328h1.435zm34.638-20.787c.082-.164-.041-.328-.205-.328h-1.517c-.205 0-.369.123-.451.328l-5.945 17.917-6.929-17.958a.504.504 0 00-.451-.287h-1.64c-.164 0-.287.164-.205.287l8.2 20.746-2.378 6.724c-.082.164.041.328.205.328h1.271c.205 0 .369-.123.451-.328l9.594-27.429zm13.133 19.393c0-.164-.164-.287-.328-.246-.574.123-1.353.205-2.091.205-2.05 0-2.911-.943-2.911-4.1v-13.899h5.002a.353.353 0 00.328-.328v-1.025a.353.353 0 00-.328-.328h-5.002l.041-4.961a.353.353 0 00-.328-.328h-1.435a.353.353 0 00-.328.328l.082 4.961h-2.419a.353.353 0 00-.328.328v1.025c0 .164.164.328.328.328h2.419l-.041 13.899c0 4.469 2.05 5.863 4.797 5.863.738 0 1.599-.164 2.214-.328a.4.4 0 00.328-.41v-.984zm6.121-22.468a.353.353 0 00.328-.328v-2.214a.353.353 0 00-.328-.328h-1.435a.353.353 0 00-.328.328v2.214c0 .164.164.328.328.328h1.435zm0 23.862a.353.353 0 00.328-.328l-.041-10.865.041-9.594a.353.353 0 00-.328-.328h-1.435a.353.353 0 00-.328.328l.082 9.635-.082 10.824c0 .164.164.328.328.328h1.435zm8.048-13.653c1.394-3.813 3.362-6.232 6.314-6.232 3.034 0 5.002 1.886 5.002 7.011v4.059l-.082 8.487c0 .164.164.328.328.328h1.435a.353.353 0 00.328-.328l-.041-8.487v-4.264c0-.492 0-.943-.041-1.394 1.353-3.321 3.239-5.412 5.986-5.412 3.034 0 5.002 1.886 5.002 7.011v4.059l-.082 8.487c0 .164.164.328.328.328h1.435a.353.353 0 00.328-.328l-.041-8.487v-4.264c0-5.863-2.46-8.528-6.519-8.528-3.321 0-5.535 2.255-6.806 4.838-.861-3.321-3.034-4.838-6.109-4.838-3.444 0-5.617 2.419-6.806 4.838l.082-4.018a.353.353 0 00-.328-.328h-1.394a.353.353 0 00-.328.328l.082 11.972-.123 8.487c0 .164.164.328.328.328h1.476a.353.353 0 00.328-.328l-.082-8.487v-4.838zm47.286 6.191c-.164 0-.369.123-.369.328-.697 3.731-2.87 5.986-6.683 5.986-5.002 0-7.503-3.485-7.503-9.43l15.949-.041a.353.353 0 00.328-.328c-.123-6.724-3.485-10.619-9.061-10.619-5.699 0-9.266 4.592-9.266 11.07 0 6.478 3.28 10.947 9.512 10.947 5.043 0 7.913-2.952 8.692-7.585 0-.164-.123-.328-.287-.328h-1.312zm-.451-4.797h-14.022c.492-4.715 2.952-7.708 7.134-7.708 4.469 0 6.847 3.444 6.888 7.708zm5.39 15.621c.205 0 .41-.123.492-.287l1.681-2.829a1.52 1.52 0 00.164-.615v-2.296a.353.353 0 00-.328-.328h-1.558a.353.353 0 00-.328.328v2.624l-.861 3.075c-.041.164.082.328.246.328h.492zm15.815-14.104c0-5.125 2.132-9.184 6.888-9.184 4.264 0 6.765 3.567 6.724 9.594-.041 6.027-2.706 9.102-6.806 9.102-4.715 0-6.806-4.223-6.806-9.512zM473.182 158a.353.353 0 00.328-.328l-.123-10.619.123-9.84a.353.353 0 00-.328-.328h-1.394a.353.353 0 00-.328.328l.082 3.813c-1.353-2.952-3.772-4.551-7.093-4.551-5.453 0-8.446 4.92-8.446 10.988 0 6.15 2.911 10.906 8.446 10.906 3.362 0 5.781-1.763 7.093-4.674l-.082 3.977c0 .164.164.328.328.328h1.394zm7.545 0a.353.353 0 00.328-.328l-.041-8.733v-4.592c1.394-3.854 3.526-6.232 6.683-6.232 3.198 0 5.33 1.927 5.33 7.011v3.813l-.082 8.733c0 .164.164.328.328.328h1.435a.353.353 0 00.328-.328l-.041-8.733v-4.018c0-5.781-2.624-8.528-6.888-8.528-3.649 0-5.986 2.46-7.175 4.838l.082-4.018a.353.353 0 00-.328-.328h-1.394a.353.353 0 00-.328.328l.082 11.521-.082 8.938c0 .164.164.328.328.328h1.435zm34.637-20.787c.082-.164-.041-.328-.205-.328h-1.517c-.205 0-.369.123-.451.328l-5.945 17.917-6.929-17.958a.504.504 0 00-.451-.287h-1.64c-.164 0-.287.164-.205.287l8.2 20.746-2.378 6.724c-.082.164.041.328.205.328h1.271c.205 0 .369-.123.451-.328l9.594-27.429zM539.07 158a.4.4 0 00.41-.328l5.699-20.459c.041-.164-.082-.328-.246-.328h-1.271a.4.4 0 00-.41.328l-4.961 18.737-5.207-18.737a.4.4 0 00-.41-.328h-1.722a.4.4 0 00-.41.328l-4.879 18.819-5.33-18.819a.4.4 0 00-.41-.328h-1.394c-.164 0-.287.164-.246.328l6.15 20.459a.4.4 0 00.41.328h1.64a.4.4 0 00.41-.328l4.797-19.024 5.289 19.024a.4.4 0 00.41.328h1.681zm24.099-12.874l.041 4.018-.082 8.528c0 .164.164.328.328.328h1.435a.353.353 0 00.328-.328l-.041-8.569v-4.018c0-5.986-2.624-8.692-6.929-8.692-3.649 0-5.945 2.378-7.175 4.797l.123-11.562a.353.353 0 00-.328-.328h-1.435a.353.353 0 00-.328.328l.123 13.694-.123 14.35c0 .164.164.328.328.328h1.435a.353.353 0 00.328-.328l-.123-13.366c1.394-3.772 3.608-6.232 6.806-6.232 3.157 0 5.289 1.927 5.289 7.052zm23.062 5.412c-.164 0-.369.123-.369.328-.697 3.731-2.87 5.986-6.683 5.986-5.002 0-7.503-3.485-7.503-9.43l15.949-.041a.353.353 0 00.328-.328c-.123-6.724-3.485-10.619-9.061-10.619-5.699 0-9.266 4.592-9.266 11.07 0 6.478 3.28 10.947 9.512 10.947 5.043 0 7.913-2.952 8.692-7.585 0-.164-.123-.328-.287-.328h-1.312zm-.451-4.797h-14.022c.492-4.715 2.952-7.708 7.134-7.708 4.469 0 6.847 3.444 6.888 7.708zM594.309 158a.353.353 0 00.328-.328l-.082-12.792c.779-4.51 3.772-6.478 6.806-6.478.615 0 1.107.041 1.517.164.164.041.328-.082.328-.246v-1.107a.441.441 0 00-.328-.41c-.41-.123-.902-.164-1.435-.164-2.87 0-5.535 1.599-6.929 4.469l.123-3.895a.353.353 0 00-.328-.328h-1.435a.353.353 0 00-.328.328l.123 9.881-.123 10.578c0 .164.164.328.328.328h1.435zm26.512-7.462c-.164 0-.369.123-.369.328-.697 3.731-2.87 5.986-6.683 5.986-5.002 0-7.503-3.485-7.503-9.43l15.949-.041a.353.353 0 00.328-.328c-.123-6.724-3.485-10.619-9.061-10.619-5.699 0-9.266 4.592-9.266 11.07 0 6.478 3.28 10.947 9.512 10.947 5.043 0 7.913-2.952 8.692-7.585 0-.164-.123-.328-.287-.328h-1.312zm-.451-4.797h-14.022c.492-4.715 2.952-7.708 7.134-7.708 4.469 0 6.847 3.444 6.888 7.708zm28.752 7.913l-.082 4.018c0 .164.164.328.328.328h1.394a.353.353 0 00.328-.328l-.082-11.521.082-8.938a.353.353 0 00-.328-.328h-1.435a.353.353 0 00-.328.328l.041 8.733v4.592c-1.394 3.854-3.526 6.232-6.683 6.232-3.198 0-5.33-1.927-5.33-7.011v-3.813l.082-8.733a.353.353 0 00-.328-.328h-1.435a.353.353 0 00-.328.328l.041 8.733v4.018c0 5.781 2.624 8.528 6.888 8.528 3.649 0 5.986-2.46 7.175-4.838zm23.512-1.435c0-8.774-14.555-3.813-14.555-10.045 0-2.788 2.255-4.182 5.74-4.182 3.403 0 6.109 1.394 6.314 4.797 0 .164.164.328.328.328h1.23a.353.353 0 00.328-.328c-.205-4.387-3.731-6.314-8.159-6.314-4.51 0-7.749 1.968-7.749 5.781 0 8.2 14.555 3.239 14.555 10.086 0 2.911-2.583 4.551-6.191 4.551-4.346 0-6.724-1.927-6.847-6.068a.353.353 0 00-.328-.328h-1.312a.353.353 0 00-.328.328c.123 5.166 3.485 7.585 8.774 7.585 4.592 0 8.2-2.296 8.2-6.191zm6.434-18.081a.353.353 0 00.328-.328v-2.214a.353.353 0 00-.328-.328h-1.435a.353.353 0 00-.328.328v2.214c0 .164.164.328.328.328h1.435zm0 23.862a.353.353 0 00.328-.328l-.041-10.865.041-9.594a.353.353 0 00-.328-.328h-1.435a.353.353 0 00-.328.328l.082 9.635-.082 10.824c0 .164.164.328.328.328h1.435zm7.802 0a.353.353 0 00.328-.328l-.041-8.733v-4.592c1.394-3.854 3.526-6.232 6.683-6.232 3.198 0 5.33 1.927 5.33 7.011v3.813l-.082 8.733c0 .164.164.328.328.328h1.435a.353.353 0 00.328-.328l-.041-8.733v-4.018c0-5.781-2.624-8.528-6.888-8.528-3.649 0-5.986 2.46-7.175 4.838l.082-4.018a.353.353 0 00-.328-.328h-1.394a.353.353 0 00-.328.328l.082 11.521-.082 8.938c0 .164.164.328.328.328h1.435zm20.764-10.578c0-5.453 2.255-9.389 6.847-9.389 4.264 0 6.765 3.608 6.724 9.594-.041 5.945-2.706 8.692-6.519 8.733-4.756.041-7.052-3.362-7.052-8.938zm15.416 8.446l-.041-12.505.082-6.15a.353.353 0 00-.328-.328h-1.353a.353.353 0 00-.328.328l.082 3.895c-1.312-2.993-3.731-4.592-6.97-4.592-5.617 0-8.569 4.879-8.569 10.947s2.952 10.455 8.61 10.455c3.198 0 5.576-1.599 6.888-4.387v2.337c0 5.904-2.624 8.446-6.724 8.446-3.239 0-5.904-1.394-6.314-4.756-.041-.205-.205-.328-.369-.328h-1.394c-.164 0-.328.164-.287.328.369 4.51 4.018 6.396 8.405 6.355 5.33 0 8.651-3.362 8.61-10.045zm36.58-6.437c0-11.275-18.573-6.027-18.573-12.71 0-2.747 2.419-3.977 5.904-3.977 4.059 0 6.314 1.599 6.642 4.633.041.246.246.41.451.41h4.428c.205 0 .41-.205.369-.41-.738-5.986-5.125-8.651-11.726-8.651-6.847 0-10.988 3.198-10.988 8.528 0 11.193 18.491 5.74 18.491 12.874 0 3.198-2.542 4.469-6.519 4.469-5.125 0-6.888-2.296-7.298-5.945a.477.477 0 00-.451-.41h-4.428a.44.44 0 00-.41.41c.328 6.642 5.084 9.922 12.464 9.922 7.011 0 11.644-3.157 11.644-9.143zm15.584 5.207c0-.205-.205-.369-.41-.287a8.3 8.3 0 01-2.214.287c-1.558 0-2.46-.656-2.46-2.788l-.041-11.275h4.756a.44.44 0 00.41-.41v-2.87a.44.44 0 00-.41-.41h-4.715l.041-4.879a.44.44 0 00-.41-.41h-4.182a.44.44 0 00-.41.41l.082 4.879h-2.337a.44.44 0 00-.41.41v2.87c0 .205.205.41.41.41h2.337l-.041 11.398c0 4.715 2.993 6.396 6.314 6.396 1.107 0 2.296-.246 3.321-.574a.584.584 0 00.369-.533v-2.624zm23.097-7.257c0-6.683-3.731-10.988-10.373-10.988-6.642 0-10.455 4.428-10.455 11.111 0 6.683 3.813 10.988 10.455 10.988 6.642 0 10.373-4.387 10.373-11.111zm-15.785.164c0-5.002 1.722-7.626 5.371-7.667 3.567 0 5.33 2.624 5.33 7.626 0 5.043-1.722 7.503-5.289 7.503-3.608 0-5.412-2.501-5.412-7.462zM806.874 158a.44.44 0 00.41-.41l-.082-8.569v-2.296c.41-4.387 2.706-6.478 5.207-6.478 2.255 0 3.854 1.558 3.854 4.551v4.223l-.123 8.569c0 .205.205.41.41.41h4.223a.44.44 0 00.41-.41l-.123-8.569v-4.346c0-5.33-2.788-8.282-7.216-8.282-3.157 0-5.535 1.599-6.888 3.567l.082-2.665a.44.44 0 00-.41-.41h-3.977a.44.44 0 00-.41.41l.082 10.783-.123 9.512c0 .205.205.41.41.41h4.264zm33.879-7.216a.487.487 0 00-.492.41c-.615 2.583-2.255 3.813-4.838 3.813-3.567 0-5.371-2.132-5.576-6.642h15.293a.44.44 0 00.41-.41c-.123-7.175-3.854-11.562-10.373-11.562-6.396 0-10.291 4.428-10.291 11.111 0 6.437 3.649 10.988 10.455 10.988 5.658 0 9.102-3.28 9.717-7.298 0-.205-.164-.41-.369-.41h-3.936zm-.533-5.74h-10.209c.533-3.403 2.255-5.207 5.207-5.207 3.239 0 4.838 2.46 5.002 5.207zM871.367 158c.164 0 .287-.205.205-.328l-9.43-14.637 8.487-13.407c.082-.123-.041-.328-.205-.328h-4.879a.676.676 0 00-.615.369l-5.576 9.143-5.617-9.143a.676.676 0 00-.615-.369h-5.207c-.164 0-.287.205-.205.328l8.569 13.284-9.389 14.76c-.082.123.041.328.205.328h4.879a.676.676 0 00.615-.369l6.56-10.701 6.355 10.701a.676.676 0 00.615.369h5.248z" fill="#fff"/></svg>