<svg width="218" height="14" viewBox="0 0 218 14" fill="none" xmlns="http://www.w3.org/2000/svg"><path d="M.585 1.25h6.63L.375 10.4v.6h8.07v-.75h-6.99L8.31 1.1V.5H.585v.75zm11.98 9.84c1.666 0 2.94-1.08 3.27-2.61h-.78c-.3 1.185-1.304 1.92-2.55 1.92-1.694 0-2.76-1.29-2.79-3.06v-.135h6.21c0-.105.016-.225.016-.315-.075-2.265-1.47-3.585-3.51-3.585-2.085 0-3.51 1.59-3.51 3.84 0 2.385 1.485 3.945 3.645 3.945zm-2.79-4.53c.12-1.545 1.276-2.58 2.67-2.58 1.486 0 2.55.915 2.67 2.58h-5.34zm10.783-3.165c-1.41 0-2.01.675-2.325 1.515l-.12-1.515h-.66V11h.765V7.145c0-1.545.405-3.015 2.19-3.015h.555v-.735h-.405zm4.356 7.695c2.145 0 3.66-1.59 3.66-3.9 0-2.295-1.515-3.885-3.66-3.885-2.145 0-3.645 1.59-3.645 3.885 0 2.31 1.5 3.9 3.645 3.9zm0-.69c-1.695 0-2.865-1.32-2.865-3.21 0-1.875 1.17-3.21 2.865-3.21 1.695 0 2.865 1.335 2.865 3.21 0 1.89-1.17 3.21-2.865 3.21zm12.538.69c1.725 0 2.94-.99 3.24-2.535h-.81c-.255 1.125-1.17 1.845-2.43 1.845-1.665 0-2.82-1.305-2.82-3.195s1.14-3.225 2.82-3.225c1.275 0 2.175.72 2.445 1.86h.795c-.315-1.575-1.5-2.535-3.225-2.535-2.145 0-3.615 1.59-3.615 3.9 0 2.34 1.455 3.885 3.6 3.885zm8.087 0c2.145 0 3.66-1.59 3.66-3.9 0-2.295-1.515-3.885-3.66-3.885-2.145 0-3.645 1.59-3.645 3.885 0 2.31 1.5 3.9 3.645 3.9zm0-.69c-1.695 0-2.865-1.32-2.865-3.21 0-1.875 1.17-3.21 2.865-3.21 1.695 0 2.865 1.335 2.865 3.21 0 1.89-1.17 3.21-2.865 3.21zm13.67-7.095c-1.395 0-2.295.78-2.73 1.905-.36-1.26-1.305-1.905-2.505-1.905-1.305 0-2.085.765-2.475 1.71l-.12-1.62h-.66V11h.765V7.13c0-1.86.9-3.12 2.355-3.12 1.32 0 2.145.93 2.145 2.685V11h.765V6.86c.045-1.74.945-2.85 2.37-2.85 1.32 0 2.115.885 2.115 2.61V11h.78V6.59c0-2.295-1.215-3.285-2.805-3.285zm12.993 0c-1.394 0-2.294.78-2.73 1.905-.36-1.26-1.304-1.905-2.504-1.905-1.306 0-2.086.765-2.475 1.71l-.12-1.62h-.66V11h.765V7.13c0-1.86.9-3.12 2.355-3.12 1.32 0 2.145.93 2.145 2.685V11h.765V6.86c.044-1.74.945-2.85 2.37-2.85 1.32 0 2.115.885 2.115 2.61V11h.78V6.59c0-2.295-1.215-3.285-2.805-3.285zm4.894-1.515c.3 0 .54-.225.54-.54 0-.315-.24-.54-.54-.54-.3 0-.54.225-.54.54 0 .315.24.54.54.54zm-.39 9.21h.765V3.395h-.765V11zm2.218-2.34c.06 1.575 1.335 2.43 3.24 2.43 1.635 0 2.955-.825 2.955-2.175 0-1.605-1.41-1.92-3.045-2.145-1.185-.165-2.235-.3-2.235-1.365 0-.87.855-1.44 2.145-1.44 1.215 0 2.085.585 2.22 1.575h.78c-.135-1.485-1.35-2.235-3-2.235-1.695-.015-2.91.855-2.91 2.16 0 1.53 1.41 1.815 2.97 2.025 1.275.18 2.31.345 2.31 1.47 0 .9-.945 1.47-2.19 1.47-1.455 0-2.4-.675-2.46-1.77h-.78zm7.163 0c.06 1.575 1.335 2.43 3.24 2.43 1.635 0 2.955-.825 2.955-2.175 0-1.605-1.41-1.92-3.045-2.145-1.185-.165-2.235-.3-2.235-1.365 0-.87.855-1.44 2.145-1.44 1.215 0 2.085.585 2.22 1.575h.78c-.135-1.485-1.35-2.235-3-2.235-1.695-.015-2.91.855-2.91 2.16 0 1.53 1.41 1.815 2.97 2.025 1.275.18 2.31.345 2.31 1.47 0 .9-.945 1.47-2.19 1.47-1.455 0-2.4-.675-2.46-1.77h-.78zm8.045-6.87c.3 0 .54-.225.54-.54 0-.315-.24-.54-.54-.54-.3 0-.54.225-.54.54 0 .315.24.54.54.54zm-.39 9.21h.765V3.395h-.765V11zm5.923.09c2.145 0 3.66-1.59 3.66-3.9 0-2.295-1.515-3.885-3.66-3.885-2.145 0-3.645 1.59-3.645 3.885 0 2.31 1.5 3.9 3.645 3.9zm0-.69c-1.695 0-2.865-1.32-2.865-3.21 0-1.875 1.17-3.21 2.865-3.21 1.695 0 2.865 1.335 2.865 3.21 0 1.89-1.17 3.21-2.865 3.21zm8.69-7.095c-1.395 0-2.295.72-2.73 1.71l-.12-1.62h-.66V11h.765V7.25c0-1.98 1.005-3.24 2.625-3.24 1.47 0 2.355.96 2.355 2.76V11h.765V6.74c0-2.4-1.275-3.435-3-3.435zm12.096 7.785c2.145 0 3.66-1.59 3.66-3.9 0-2.295-1.515-3.885-3.66-3.885-2.145 0-3.645 1.59-3.645 3.885 0 2.31 1.5 3.9 3.645 3.9zm0-.69c-1.695 0-2.865-1.32-2.865-3.21 0-1.875 1.17-3.21 2.865-3.21 1.695 0 2.865 1.335 2.865 3.21 0 1.89-1.17 3.21-2.865 3.21zm8.69-7.095c-1.395 0-2.295.72-2.73 1.71l-.12-1.62h-.66V11h.765V7.25c0-1.98 1.005-3.24 2.625-3.24 1.47 0 2.355.96 2.355 2.76V11h.765V6.74c0-2.4-1.275-3.435-3-3.435zm13.492 2.28c1.215-.21 2.1-1.17 2.1-2.445 0-1.605-1.335-2.73-3.375-2.73s-3.375 1.125-3.375 2.73c0 1.29.885 2.235 2.1 2.445-1.395.255-2.415 1.23-2.415 2.67 0 1.65 1.44 2.835 3.69 2.835s3.69-1.185 3.69-2.835c0-1.455-1.02-2.43-2.415-2.67zm-3.855-2.445c0-1.215 1.035-2.055 2.58-2.055 1.545 0 2.58.84 2.58 2.055 0 1.215-1.05 2.055-2.58 2.055s-2.58-.84-2.58-2.055zm2.58 7.275c-1.695 0-2.88-.915-2.88-2.22 0-1.29 1.17-2.22 2.88-2.22 1.695 0 2.88.93 2.88 2.22 0 1.305-1.185 2.22-2.88 2.22zm5.099-4.425c0 3.075 1.515 5.1 3.795 5.1 2.25 0 3.78-2.025 3.78-5.1v-.48c0-2.985-1.53-5.1-3.78-5.1-2.28 0-3.795 2.115-3.795 5.1v.48zm6.78-.03c0 2.67-1.185 4.41-2.985 4.41-1.815 0-3-1.74-3-4.41v-.42c0-2.67 1.185-4.41 3-4.41 1.8 0 2.985 1.74 2.985 4.41v.42zm5.109.405h-2.61v.645h2.61v2.745h.705V7.01h2.625v-.645h-2.625V3.62h-.705v2.745zM167.809 11h.81V6.155h4.53v-.75h-4.53V1.25h5.43V.5h-6.24V11zm6.866 0h.945l3.21-4.755L182.07 11h.96l-3.66-5.43L182.805.5h-.945l-3 4.47-3-4.47h-.96l3.45 5.13-3.675 5.37zm17.254-7.695c-1.425 0-2.415.765-2.895 1.83l-.12-1.74h-.66V14h.765V9.245c.435 1.11 1.47 1.845 2.91 1.845 2.085 0 3.585-1.59 3.585-3.9 0-2.385-1.5-3.885-3.585-3.885zm-.06 7.095c-1.695 0-2.865-1.32-2.865-3.225 0-1.86 1.17-3.195 2.865-3.195 1.695 0 2.865 1.335 2.865 3.21 0 1.89-1.17 3.21-2.865 3.21zm11.849-.105c-.45 0-.675-.15-.675-.735V6.02c0-1.74-1.065-2.715-2.97-2.715-1.74 0-2.895.84-3.09 2.22h.765c.195-.93 1.005-1.545 2.295-1.545 1.425 0 2.235.75 2.235 2.01v.66h-2.58c-1.95 0-3 .84-3 2.265 0 1.35 1.065 2.175 2.685 2.175 1.545 0 2.46-.705 2.925-1.65v.27c-.03.9.345 1.29 1.245 1.29h.45v-.705h-.285zm-1.44-2.37c0 1.455-1.035 2.505-2.835 2.505-1.215 0-1.965-.615-1.965-1.56 0-1.005.75-1.56 2.16-1.56h2.64v.615zm3.138-6.135c.3 0 .54-.225.54-.54 0-.315-.24-.54-.54-.54-.3 0-.54.225-.54.54 0 .315.24.54.54.54zm-.39 9.21h.765V3.395h-.765V11zm5.668-7.605c-1.41 0-2.01.675-2.325 1.515l-.12-1.515h-.66V11h.765V7.145c0-1.545.405-3.015 2.19-3.015h.555v-.735h-.405zm1.004 5.265c.06 1.575 1.335 2.43 3.24 2.43 1.635 0 2.955-.825 2.955-2.175 0-1.605-1.41-1.92-3.045-2.145-1.185-.165-2.235-.3-2.235-1.365 0-.87.855-1.44 2.145-1.44 1.215 0 2.085.585 2.22 1.575h.78c-.135-1.485-1.35-2.235-3-2.235-1.695-.015-2.91.855-2.91 2.16 0 1.53 1.41 1.815 2.97 2.025 1.275.18 2.31.345 2.31 1.47 0 .9-.945 1.47-2.19 1.47-1.455 0-2.4-.675-2.46-1.77h-.78z" fill="#000"/></svg>