<svg width="516" height="39" viewBox="0 0 516 39" fill="none" xmlns="http://www.w3.org/2000/svg"><path d="M.688 30H11.86c7.098 0 10.92-3.192 10.92-8.4 0-4.2-2.688-6.258-6.174-6.804 3.066-.84 5.04-2.94 5.04-6.426C21.646 3.54 17.95.6 11.482.6H.688V30zm10.92-25.368c3.36 0 5.208 1.596 5.208 4.2 0 2.646-1.89 4.242-5.208 4.242h-6.09V4.632h6.09zm.294 12.432c3.738 0 5.922 1.596 5.922 4.494 0 2.73-2.058 4.368-5.922 4.368H5.518v-8.862h6.384zM28.868 5.472c1.554 0 2.772-1.134 2.772-2.73S30.422.012 28.868.012c-1.554 0-2.772 1.134-2.772 2.73s1.218 2.73 2.772 2.73zM26.558 30h4.536V8.496h-4.536V30zm25.404-18.144c-1.386-2.142-3.696-3.612-7.056-3.612-5.837 0-10.163 4.326-10.163 10.92 0 6.846 4.325 10.92 10.163 10.92 3.36 0 5.587-1.386 7.014-3.528v2.394c0 4.116-2.226 6.006-6.174 6.006-3.192 0-5.291-1.386-5.838-3.78h-4.62c.42 4.83 4.41 7.476 10.123 7.476 7.727 0 11.003-3.696 11.003-9.534V8.496h-3.947l-.505 3.36zm-6.3 14.406c-3.78 0-6.258-2.898-6.258-7.098 0-4.158 2.478-7.098 6.258-7.098s6.258 2.94 6.258 7.182c0 4.116-2.477 7.014-6.258 7.014zm27.485-2.1c0 3.906 1.764 5.838 5.88 5.838h4.2v-3.99h-3.192c-1.722 0-2.31-.63-2.31-2.31V12.486h5.25v-3.99h-5.25V2.49h-4.578v6.006H69.41v3.99h3.738v11.676zm22.72 6.09c5.335 0 8.947-3.234 9.703-7.476h-4.536c-.63 2.394-2.647 3.78-5.419 3.78-3.57 0-5.88-2.394-6.005-6.048v-.294h16.212c.084-.588.126-1.176.126-1.722-.126-6.3-4.284-10.248-10.5-10.248-6.342 0-10.584 4.41-10.584 11.046 0 6.594 4.242 10.962 11.004 10.962zm-6.09-13.356c.337-3.066 2.814-4.998 5.713-4.998 3.15 0 5.376 1.806 5.754 4.998H89.778zm29.708 13.356c5.502 0 9.156-3.066 9.996-7.938h-4.788c-.546 2.478-2.394 4.074-5.166 4.074-3.654 0-6.048-2.898-6.048-7.098 0-4.242 2.394-7.182 6.048-7.182 2.814 0 4.62 1.554 5.208 4.074h4.746c-.882-4.872-4.326-7.938-9.87-7.938-6.51 0-10.794 4.41-10.794 11.046 0 6.72 4.158 10.962 10.668 10.962zm24.766-22.008c-3.36 0-5.418 1.512-6.762 3.36V.6h-4.536V30h4.536V19.122c0-4.326 2.184-6.972 5.754-6.972 3.36 0 5.166 2.184 5.166 6.258V30h4.536V18.03c0-7.182-3.906-9.786-8.694-9.786zm25.119 15.918c0 3.906 1.764 5.838 5.88 5.838h4.2v-3.99h-3.192c-1.722 0-2.31-.63-2.31-2.31V12.486h5.25v-3.99h-5.25V2.49h-4.578v6.006h-3.738v3.99h3.738v11.676zm22.678 6.09c6.552 0 10.962-4.41 10.962-11.004 0-6.552-4.41-11.004-10.962-11.004s-10.962 4.452-10.962 11.004c0 6.594 4.41 11.004 10.962 11.004zm0-3.864c-3.822 0-6.3-2.982-6.3-7.14 0-4.158 2.478-7.14 6.3-7.14 3.822 0 6.342 2.982 6.342 7.14 0 4.158-2.52 7.14-6.342 7.14zm36.864-18.144c-3.318 0-5.544 1.512-6.972 3.444V.6h-4.536V30h3.948l.546-3.108c1.344 1.932 3.654 3.36 7.014 3.36 5.88 0 10.164-4.41 10.164-11.004 0-6.93-4.284-11.004-10.164-11.004zm-.756 18.186c-3.78 0-6.258-2.982-6.258-7.224 0-4.158 2.478-7.098 6.258-7.098s6.3 2.94 6.3 7.14c0 4.242-2.52 7.182-6.3 7.182zm29.296-7.182c0 4.452-2.1 7.056-5.544 7.056-3.318 0-4.998-2.142-4.998-6.342V8.496h-4.536v11.97c0 7.35 3.906 9.786 8.484 9.786 3.318 0 5.292-1.344 6.636-2.982l.504 2.73h3.99V8.496h-4.536v10.752zm18.876 11.004c5.502 0 9.156-3.066 9.996-7.938h-4.788c-.546 2.478-2.394 4.074-5.166 4.074-3.654 0-6.048-2.898-6.048-7.098 0-4.242 2.394-7.182 6.048-7.182 2.814 0 4.62 1.554 5.208 4.074h4.746c-.882-4.872-4.326-7.938-9.87-7.938-6.51 0-10.794 4.41-10.794 11.046 0 6.72 4.158 10.962 10.668 10.962zM289.796 30h4.536v-5.46l3.864-4.032L304.538 30h5.376l-8.61-12.81 8.106-8.694h-5.334l-9.744 10.416V.6h-4.536V30zm34.613-5.838c0 3.906 1.764 5.838 5.88 5.838h4.2v-3.99h-3.192c-1.722 0-2.31-.63-2.31-2.31V12.486h5.25v-3.99h-5.25V2.49h-4.578v6.006h-3.738v3.99h3.738v11.676zm24.263-15.918c-3.36 0-5.418 1.512-6.762 3.36V.6h-4.536V30h4.536V19.122c0-4.326 2.184-6.972 5.754-6.972 3.36 0 5.166 2.184 5.166 6.258V30h4.536V18.03c0-7.182-3.906-9.786-8.694-9.786zm22.862 22.008c5.334 0 8.946-3.234 9.702-7.476H376.7c-.63 2.394-2.646 3.78-5.418 3.78-3.57 0-5.88-2.394-6.006-6.048v-.294h16.212c.084-.588.126-1.176.126-1.722-.126-6.3-4.284-10.248-10.5-10.248-6.342 0-10.584 4.41-10.584 11.046 0 6.594 4.242 10.962 11.004 10.962zm-6.09-13.356c.336-3.066 2.814-4.998 5.712-4.998 3.15 0 5.376 1.806 5.754 4.998h-11.466zm32.137 7.266c0 3.906 1.764 5.838 5.88 5.838h4.2v-3.99h-3.192c-1.722 0-2.31-.63-2.31-2.31V12.486h5.25v-3.99h-5.25V2.49h-4.578v6.006h-3.738v3.99h3.738v11.676zm23.843-15.666c-3.528 0-5.25 1.428-6.342 3.234l-.504-3.234h-4.032V30h4.536V19.206c0-3.318 1.302-6.468 5.334-6.468h2.016V8.496h-1.008zm12.987 21.756c5.334 0 8.946-3.234 9.702-7.476h-4.536c-.63 2.394-2.646 3.78-5.418 3.78-3.57 0-5.88-2.394-6.006-6.048v-.294h16.212c.084-.588.126-1.176.126-1.722-.126-6.3-4.284-10.248-10.5-10.248-6.342 0-10.584 4.41-10.584 11.046 0 6.594 4.242 10.962 11.004 10.962zm-6.09-13.356c.336-3.066 2.814-4.998 5.712-4.998 3.15 0 5.376 1.806 5.754 4.998h-11.466zm31.177-8.652c-3.486 0-5.544 1.386-6.888 3.066l-.504-2.814h-3.948V30h4.536V19.164c0-4.368 2.142-7.014 5.754-7.014 3.402 0 5.124 2.184 5.124 6.258V30h4.578V18.03c0-7.182-3.906-9.786-8.652-9.786zm28.951 3.234c-1.386-1.89-3.696-3.234-6.972-3.234-5.838 0-10.164 4.368-10.164 11.004 0 6.888 4.326 11.004 10.164 11.004 3.402 0 5.628-1.596 7.014-3.486l.546 3.234h3.948V.6h-4.536v10.878zm-6.216 14.952c-3.78 0-6.258-2.94-6.258-7.182 0-4.2 2.478-7.14 6.258-7.14s6.258 2.94 6.258 7.224c0 4.158-2.478 7.098-6.258 7.098zm18.796-16.212c0-3.486 2.1-5.838 5.334-5.838 2.814 0 4.704 1.68 4.704 4.074 0 2.016-1.092 3.36-2.982 4.62-2.52 1.638-4.494 3.024-4.494 6.426v1.344h4.284v-.84c0-2.1 1.428-3.192 3.696-4.746 2.184-1.554 4.2-3.402 4.2-7.266 0-4.41-3.612-7.644-9.45-7.644-6.258 0-9.912 4.41-9.912 9.87h4.62zm1.932 17.22c0 1.68 1.26 2.814 2.898 2.814 1.638 0 2.856-1.134 2.856-2.814 0-1.68-1.218-2.814-2.856-2.814s-2.898 1.134-2.898 2.814z" fill="#000"/></svg>