<svg width="311" height="47" viewBox="0 0 311 47" fill="none" xmlns="http://www.w3.org/2000/svg"><path d="M14.02 8c0-4.14-2.68-7.12-6.54-7.12C3.64.88.94 3.86.94 8c0 4.14 2.7 7.12 6.54 7.12 3.86 0 6.54-2.98 6.54-7.12zM2.06 8c0-3.58 2.22-6.12 5.42-6.12 3.22 0 5.44 2.54 5.44 6.12s-2.22 6.12-5.44 6.12c-3.2 0-5.42-2.54-5.42-6.12zm21.48 1.84c0 2.66-1.32 4.34-3.42 4.34-1.88 0-3.04-1.28-3.04-3.7V4.86h-1.02v5.68c0 3.18 1.66 4.58 3.9 4.58 1.8 0 2.98-.96 3.56-2.26l.14 2.14h.9V4.86h-1.02v4.98zm7.562-4.98c-1.88 0-2.68.9-3.1 2.02l-.16-2.02h-.88V15h1.02V9.86c0-2.06.54-4.02 2.92-4.02h.74v-.98h-.54zm12.122-.12c-1.86 0-3.06.96-3.64 2.28l-.16-2.16h-.88V15h1.02v-5c0-2.64 1.34-4.32 3.5-4.32 1.96 0 3.14 1.28 3.14 3.68V15h1.02V9.32c0-3.2-1.7-4.58-4-4.58zm10.581 10.38c2.22 0 3.92-1.44 4.36-3.48h-1.04c-.4 1.58-1.74 2.56-3.4 2.56-2.26 0-3.68-1.72-3.72-4.08v-.18h8.28c0-.14.02-.3.02-.42-.1-3.02-1.96-4.78-4.68-4.78-2.78 0-4.68 2.12-4.68 5.12 0 3.18 1.98 5.26 4.86 5.26zm-3.72-6.04c.16-2.06 1.7-3.44 3.56-3.44 1.98 0 3.4 1.22 3.56 3.44h-7.12zM62.469 15h1.1l3-8.52 2.86 8.52h1.1l3.6-10.14h-1.04l-3.12 8.92-2.9-8.92h-.94l-3.06 8.92-2.96-8.92h-1.08L62.469 15zm21.977 0h1.28l3.62-12.22L92.966 15h1.28l4.28-14h-1.12l-3.78 12.58L89.946 1h-1.1l-3.78 12.58L81.326 1h-1.14l4.26 14zm19.359.12c2.22 0 3.92-1.44 4.36-3.48h-1.04c-.4 1.58-1.74 2.56-3.4 2.56-2.26 0-3.68-1.72-3.72-4.08v-.18h8.28c0-.14.02-.3.02-.42-.1-3.02-1.96-4.78-4.68-4.78-2.78 0-4.68 2.12-4.68 5.12 0 3.18 1.98 5.26 4.86 5.26zm-3.72-6.04c.16-2.06 1.7-3.44 3.56-3.44 1.98 0 3.4 1.22 3.56 3.44h-7.12zM110.321 15h1.02V1h-1.02v14zm7.838.12c2.3 0 3.92-1.32 4.32-3.38h-1.08c-.34 1.5-1.56 2.46-3.24 2.46-2.22 0-3.76-1.74-3.76-4.26 0-2.52 1.52-4.3 3.76-4.3 1.7 0 2.9.96 3.26 2.48h1.06c-.42-2.1-2-3.38-4.3-3.38-2.86 0-4.82 2.12-4.82 5.2 0 3.12 1.94 5.18 4.8 5.18zm10.783 0c2.86 0 4.88-2.12 4.88-5.2 0-3.06-2.02-5.18-4.88-5.18s-4.86 2.12-4.86 5.18c0 3.08 2 5.2 4.86 5.2zm0-.92c-2.26 0-3.82-1.76-3.82-4.28 0-2.5 1.56-4.28 3.82-4.28s3.82 1.78 3.82 4.28c0 2.52-1.56 4.28-3.82 4.28zm18.226-9.46c-1.86 0-3.06 1.04-3.64 2.54-.48-1.68-1.74-2.54-3.34-2.54-1.74 0-2.78 1.02-3.3 2.28l-.16-2.16h-.88V15h1.02V9.84c0-2.48 1.2-4.16 3.14-4.16 1.76 0 2.86 1.24 2.86 3.58V15h1.02V9.48c.06-2.32 1.26-3.8 3.16-3.8 1.76 0 2.82 1.18 2.82 3.48V15h1.04V9.12c0-3.06-1.62-4.38-3.74-4.38zm10.328 10.38c2.22 0 3.92-1.44 4.36-3.48h-1.04c-.4 1.58-1.74 2.56-3.4 2.56-2.26 0-3.68-1.72-3.72-4.08v-.18h8.28c0-.14.02-.3.02-.42-.1-3.02-1.96-4.78-4.68-4.78-2.78 0-4.68 2.12-4.68 5.12 0 3.18 1.98 5.26 4.86 5.26zm-3.72-6.04c.16-2.06 1.7-3.44 3.56-3.44 1.98 0 3.4 1.22 3.56 3.44h-7.12zM169.643 15h1.08V9.16h4.02l3.3 5.84h1.22l-3.4-6.04c2.06-.32 3.36-1.82 3.36-3.88 0-2.48-1.74-4.08-4.4-4.08h-5.18v14zm5.12-13c2.06 0 3.36 1.2 3.36 3.08 0 1.86-1.32 3.08-3.38 3.08h-4.02V2h4.04zm10.448 13.12c2.22 0 3.92-1.44 4.36-3.48h-1.04c-.4 1.58-1.74 2.56-3.4 2.56-2.26 0-3.68-1.72-3.72-4.08v-.18h8.28c0-.14.02-.3.02-.42-.1-3.02-1.96-4.78-4.68-4.78-2.78 0-4.68 2.12-4.68 5.12 0 3.18 1.98 5.26 4.86 5.26zm-3.72-6.04c.16-2.06 1.7-3.44 3.56-3.44 1.98 0 3.4 1.22 3.56 3.44h-7.12zm15.136-4.34c-1.9 0-3.24 1.04-3.88 2.48V1h-1.02v14h.88l.16-2.3c.6 1.46 1.96 2.42 3.86 2.42 2.78 0 4.78-2.12 4.78-5.2 0-3.18-2-5.18-4.78-5.18zm-.08 9.46c-2.26 0-3.82-1.76-3.82-4.3 0-2.48 1.56-4.26 3.82-4.26s3.82 1.78 3.82 4.28c0 2.52-1.56 4.28-3.82 4.28zm15.8-.14c-.6 0-.9-.2-.9-.98V8.36c0-2.32-1.42-3.62-3.96-3.62-2.32 0-3.86 1.12-4.12 2.96h1.02c.26-1.24 1.34-2.06 3.06-2.06 1.9 0 2.98 1 2.98 2.68v.88h-3.44c-2.6 0-4 1.12-4 3.02 0 1.8 1.42 2.9 3.58 2.9 2.06 0 3.28-.94 3.9-2.2v.36c-.04 1.2.46 1.72 1.66 1.72h.6v-.94h-.38zm-1.92-3.16c0 1.94-1.38 3.34-3.78 3.34-1.62 0-2.62-.82-2.62-2.08 0-1.34 1-2.08 2.88-2.08h3.52v.82zm4.424 1.74c0 1.62.66 2.36 2.38 2.36h1.48v-.94h-1.4c-1.06 0-1.44-.4-1.44-1.44V5.8h2.74v-.94h-2.74V2.02h-1.02v2.84h-1.92v.94h1.92v6.84zm9.579 2.48c2.22 0 3.92-1.44 4.36-3.48h-1.04c-.4 1.58-1.74 2.56-3.4 2.56-2.26 0-3.68-1.72-3.72-4.08v-.18h8.28c0-.14.02-.3.02-.42-.1-3.02-1.96-4.78-4.68-4.78-2.78 0-4.68 2.12-4.68 5.12 0 3.18 1.98 5.26 4.86 5.26zm-3.72-6.04c.16-2.06 1.7-3.44 3.56-3.44 1.98 0 3.4 1.22 3.56 3.44h-7.12zM1.38 37.22c0 3.9 1.66 5.9 5.1 5.9 3.46 0 5.14-2 5.14-5.9V29h-1.08v8.28c0 3.22-1.24 4.84-4.06 4.84-2.78 0-4.02-1.62-4.02-4.84V29H1.38v8.22zm17.728-4.48c-1.9 0-3.22 1.02-3.86 2.44l-.16-2.32h-.88V47h1.02v-6.34c.58 1.48 1.96 2.46 3.88 2.46 2.78 0 4.78-2.12 4.78-5.2 0-3.18-2-5.18-4.78-5.18zm-.08 9.46c-2.26 0-3.82-1.76-3.82-4.3 0-2.48 1.56-4.26 3.82-4.26s3.82 1.78 3.82 4.28c0 2.52-1.56 4.28-3.82 4.28zm13.03-1.56c0 1.62.66 2.36 2.38 2.36h1.48v-.94h-1.4c-1.06 0-1.44-.4-1.44-1.44V33.8h2.74v-.94h-2.74v-2.84h-1.02v2.84h-1.92v.94h1.92v6.84zm9.579 2.48c2.86 0 4.88-2.12 4.88-5.2 0-3.06-2.02-5.18-4.88-5.18s-4.86 2.12-4.86 5.18c0 3.08 2 5.2 4.86 5.2zm0-.92c-2.26 0-3.82-1.76-3.82-4.28 0-2.5 1.56-4.28 3.82-4.28s3.82 1.78 3.82 4.28c0 2.52-1.56 4.28-3.82 4.28zm22.097-3.04c0-2.66-2.36-3.34-4.68-3.74-2.14-.36-4-.72-4-2.72 0-1.82 1.42-2.84 3.62-2.84 2.1 0 3.54 1.18 3.78 3h1.1c-.18-2.2-1.74-3.72-4.22-3.96v-2.06h-.96v2.04c-2.68.1-4.4 1.58-4.4 3.88 0 2.66 2.28 3.26 4.52 3.64 2.2.38 4.16.82 4.16 2.86 0 1.8-1.52 2.88-3.78 2.88-2.36 0-3.96-1.36-4.1-3.44h-1.12c.14 2.5 1.86 4.24 4.72 4.4v2.04h.96V43.1c2.66-.16 4.4-1.72 4.4-3.94zm4.294-8.38c0 .64-.3 1.08-.92 1.08h-2.4v.94h2.4c.42 0 .72-.12.9-.34V43h1.04V29h-1.02v1.78zM70.948 43h9.34v-.96h-7.9l4.66-4.2c1.62-1.46 3.06-2.8 3.06-4.92 0-2.46-1.7-4.04-4.54-4.04-2.72 0-4.48 1.76-4.48 4.4v.34h1.04v-.28c0-2.18 1.34-3.52 3.44-3.52 2.12 0 3.48 1.18 3.48 3.16 0 1.76-1.34 2.98-2.66 4.18l-5.44 4.94v.9zm11.59-1.4c-.54 0-.88.34-.88.78 0 .48.32.72.7.72.2 0 .4-.08.5-.24.14.14.18.34.18.52 0 .76-.48 1.54-1.5 1.58v.6c1.38-.06 2.24-.98 2.24-2.3 0-.92-.52-1.66-1.24-1.66zm2.016-5.28c0 4.1 2.02 6.8 5.06 6.8 3 0 5.04-2.7 5.04-6.8v-.64c0-3.98-2.04-6.8-5.04-6.8-3.04 0-5.06 2.82-5.06 6.8v.64zm9.04-.04c0 3.56-1.58 5.88-3.98 5.88-2.42 0-4-2.32-4-5.88v-.56c0-3.56 1.58-5.88 4-5.88 2.4 0 3.98 2.32 3.98 5.88v.56zm2.972.04c0 4.1 2.02 6.8 5.059 6.8 3 0 5.04-2.7 5.04-6.8v-.64c0-3.98-2.04-6.8-5.04-6.8-3.04 0-5.06 2.82-5.06 6.8v.64zm9.039-.04c0 3.56-1.58 5.88-3.98 5.88-2.42 0-4-2.32-4-5.88v-.56c0-3.56 1.58-5.88 4-5.88 2.4 0 3.98 2.32 3.98 5.88v.56zm2.972.04c0 4.1 2.02 6.8 5.06 6.8 3 0 5.04-2.7 5.04-6.8v-.64c0-3.98-2.04-6.8-5.04-6.8-3.04 0-5.06 2.82-5.06 6.8v.64zm9.04-.04c0 3.56-1.58 5.88-3.98 5.88-2.42 0-4-2.32-4-5.88v-.56c0-3.56 1.58-5.88 4-5.88 2.4 0 3.98 2.32 3.98 5.88v.56zm13.023 6.84c2.3 0 3.92-1.32 4.32-3.38h-1.08c-.34 1.5-1.56 2.46-3.24 2.46-2.22 0-3.76-1.74-3.76-4.26 0-2.52 1.52-4.3 3.76-4.3 1.7 0 2.9.96 3.26 2.48h1.06c-.42-2.1-2-3.38-4.3-3.38-2.86 0-4.82 2.12-4.82 5.2 0 3.12 1.94 5.18 4.8 5.18zm15.222-1.06c-.6 0-.9-.2-.9-.98v-4.72c0-2.32-1.42-3.62-3.96-3.62-2.32 0-3.86 1.12-4.12 2.96h1.02c.26-1.24 1.34-2.06 3.06-2.06 1.9 0 2.98 1 2.98 2.68v.88h-3.44c-2.6 0-4 1.12-4 3.02 0 1.8 1.42 2.9 3.58 2.9 2.06 0 3.28-.94 3.9-2.2v.36c-.04 1.2.46 1.72 1.66 1.72h.6v-.94h-.38zm-1.92-3.16c0 1.94-1.38 3.34-3.78 3.34-1.62 0-2.62-.82-2.62-2.08 0-1.34 1-2.08 2.88-2.08h3.52v.82zm3.204.98c.08 2.1 1.78 3.24 4.32 3.24 2.18 0 3.94-1.1 3.94-2.9 0-2.14-1.88-2.56-4.06-2.86-1.58-.22-2.98-.4-2.98-1.82 0-1.16 1.14-1.92 2.86-1.92 1.62 0 2.78.78 2.96 2.1h1.04c-.18-1.98-1.8-2.98-4-2.98-2.26-.02-3.88 1.14-3.88 2.88 0 2.04 1.88 2.42 3.96 2.7 1.7.24 3.08.46 3.08 1.96 0 1.2-1.26 1.96-2.92 1.96-1.94 0-3.2-.9-3.28-2.36h-1.04zm14.886-7.14c-1.9 0-3.08 1.06-3.66 2.52V29h-1.02v14h1.02v-5c0-2.64 1.34-4.32 3.5-4.32 1.94 0 3.14 1.28 3.14 3.68V43h1.02v-5.68c0-3.2-1.7-4.58-4-4.58zm21.108 5v-.86h-9.32v.86h9.32zm12.584-5c-1.86 0-3.06.96-3.64 2.28l-.16-2.16h-.88V43h1.02v-5c0-2.64 1.34-4.32 3.5-4.32 1.96 0 3.14 1.28 3.14 3.68V43h1.02v-5.68c0-3.2-1.7-4.58-4-4.58zm10.581 10.38c2.86 0 4.88-2.12 4.88-5.2 0-3.06-2.02-5.18-4.88-5.18s-4.86 2.12-4.86 5.18c0 3.08 2 5.2 4.86 5.2zm0-.92c-2.26 0-3.82-1.76-3.82-4.28 0-2.5 1.56-4.28 3.82-4.28s3.82 1.78 3.82 4.28c0 2.52-1.56 4.28-3.82 4.28zm23.617-9.46c-1.86 0-3.06 1.04-3.64 2.54-.48-1.68-1.74-2.54-3.34-2.54-1.74 0-2.78 1.02-3.3 2.28l-.16-2.16h-.88V43h1.02v-5.16c0-2.48 1.2-4.16 3.14-4.16 1.76 0 2.86 1.24 2.86 3.58V43h1.02v-5.52c.06-2.32 1.26-3.8 3.16-3.8 1.76 0 2.82 1.18 2.82 3.48V43h1.04v-5.88c0-3.06-1.62-4.38-3.74-4.38zm6.525-2.02c.4 0 .72-.3.72-.72s-.32-.72-.72-.72c-.4 0-.72.3-.72.72s.32.72.72.72zm-.52 12.28h1.02V32.86h-1.02V43zm8.098-10.26c-1.86 0-3.06.96-3.64 2.28l-.16-2.16h-.88V43h1.02v-5c0-2.64 1.34-4.32 3.5-4.32 1.96 0 3.14 1.28 3.14 3.68V43h1.02v-5.68c0-3.2-1.7-4.58-4-4.58zm6.777-2.02c.4 0 .72-.3.72-.72s-.32-.72-.72-.72c-.4 0-.72.3-.72.72s.32.72.72.72zm-.52 12.28h1.02V32.86h-1.02V43zm14.738-10.26c-1.86 0-3.06 1.04-3.64 2.54-.48-1.68-1.74-2.54-3.34-2.54-1.74 0-2.78 1.02-3.3 2.28l-.16-2.16h-.88V43h1.02v-5.16c0-2.48 1.2-4.16 3.14-4.16 1.76 0 2.86 1.24 2.86 3.58V43h1.02v-5.52c.06-2.32 1.26-3.8 3.16-3.8 1.76 0 2.82 1.18 2.82 3.48V43h1.04v-5.88c0-3.06-1.62-4.38-3.74-4.38zm13.364 5.1c0 2.66-1.32 4.34-3.42 4.34-1.88 0-3.04-1.28-3.04-3.7v-5.62h-1.02v5.68c0 3.18 1.66 4.58 3.9 4.58 1.8 0 2.98-.96 3.56-2.26l.14 2.14h.9V32.86h-1.02v4.98zm14.741-5.1c-1.86 0-3.06 1.04-3.64 2.54-.48-1.68-1.74-2.54-3.34-2.54-1.74 0-2.78 1.02-3.3 2.28l-.16-2.16h-.88V43h1.02v-5.16c0-2.48 1.2-4.16 3.14-4.16 1.76 0 2.86 1.24 2.86 3.58V43h1.02v-5.52c.06-2.32 1.26-3.8 3.16-3.8 1.76 0 2.82 1.18 2.82 3.48V43h1.04v-5.88c0-3.06-1.62-4.38-3.74-4.38zm5.545 7.14c.08 2.1 1.78 3.24 4.32 3.24 2.18 0 3.94-1.1 3.94-2.9 0-2.14-1.88-2.56-4.06-2.86-1.58-.22-2.98-.4-2.98-1.82 0-1.16 1.14-1.92 2.86-1.92 1.62 0 2.78.78 2.96 2.1h1.04c-.18-1.98-1.8-2.98-4-2.98-2.26-.02-3.88 1.14-3.88 2.88 0 2.04 1.88 2.42 3.96 2.7 1.7.24 3.08.46 3.08 1.96 0 1.2-1.26 1.96-2.92 1.96-1.94 0-3.2-.9-3.28-2.36h-1.04zm9.91 2.46c0 .46.32.76.76.76s.76-.3.76-.76-.32-.74-.76-.74-.76.28-.76.74z" fill="#000"/></svg>