<svg width="503" height="32" viewBox="0 0 503 32" fill="none" xmlns="http://www.w3.org/2000/svg"><path d="M.816 31H5.7V8.34L14.94 31h4.268l9.24-22.66V31h4.884V.2h-6.424l-9.68 24.244L7.372.2H.816V31zm58.264-4.136c-.968 0-1.452-.308-1.452-1.452v-9.02c0-5.324-3.432-8.184-9.416-8.184-5.676 0-9.46 2.728-9.944 7.128h4.664c.352-1.98 2.244-3.3 5.06-3.3 3.124 0 4.928 1.54 4.928 4.048v1.364h-5.676c-6.292 0-9.636 2.596-9.636 7.216 0 4.18 3.432 6.6 8.36 6.6 3.652 0 5.94-1.584 7.436-3.872 0 2.244 1.056 3.608 4.136 3.608h2.508v-4.136h-.968zm-6.16-5.104c-.044 3.476-2.332 5.808-6.292 5.808-2.596 0-4.18-1.32-4.18-3.212 0-2.288 1.628-3.388 4.576-3.388h5.896v.792zm8.749 1.804c.132 4.884 4.268 7.7 10.296 7.7 5.456 0 9.548-2.728 9.548-7.04 0-5.016-4.18-6.072-9.328-6.688-3.256-.352-5.412-.616-5.412-2.728 0-1.804 1.848-2.948 4.664-2.948s4.752 1.452 5.016 3.52h4.664c-.308-4.62-4.224-7.172-9.768-7.172-5.412-.044-9.24 2.728-9.24 6.996 0 4.664 4.048 5.764 9.196 6.38 3.476.44 5.544.616 5.544 3.036 0 1.804-1.936 2.948-4.884 2.948-3.432 0-5.456-1.672-5.632-4.004h-4.664zm25.154 1.32c0 4.092 1.848 6.116 6.16 6.116h4.4v-4.18H94.04c-1.804 0-2.42-.66-2.42-2.42V12.652h5.5v-4.18h-5.5V2.18h-4.796v6.292h-3.916v4.18h3.916v12.232zm23.803 6.38c5.588 0 9.372-3.388 10.164-7.832h-4.752c-.66 2.508-2.772 3.96-5.676 3.96-3.74 0-6.16-2.508-6.292-6.336v-.308h16.984c.088-.616.132-1.232.132-1.804-.132-6.6-4.488-10.736-11-10.736-6.644 0-11.088 4.62-11.088 11.572 0 6.908 4.444 11.484 11.528 11.484zm-6.38-13.992c.352-3.212 2.948-5.236 5.984-5.236 3.3 0 5.632 1.892 6.028 5.236h-12.012zm32.177-8.8c-3.696 0-5.5 1.496-6.644 3.388l-.528-3.388h-4.224V31h4.752V19.692c0-3.476 1.364-6.776 5.588-6.776h2.112V8.472h-1.056zm16.873 16.412c0 4.092 1.848 6.116 6.16 6.116h4.4v-4.18h-3.344c-1.804 0-2.42-.66-2.42-2.42V12.652h5.5v-4.18h-5.5V2.18h-4.796v6.292h-3.916v4.18h3.916v12.232zm25.419-16.676c-3.52 0-5.676 1.584-7.084 3.52V.2h-4.752V31h4.752V19.604c0-4.532 2.288-7.304 6.028-7.304 3.52 0 5.412 2.288 5.412 6.556V31h4.752V18.46c0-7.524-4.092-10.252-9.108-10.252zm23.95 23.056c5.588 0 9.372-3.388 10.164-7.832h-4.752c-.66 2.508-2.772 3.96-5.676 3.96-3.74 0-6.16-2.508-6.292-6.336v-.308h16.984c.088-.616.132-1.232.132-1.804-.132-6.6-4.488-10.736-11-10.736-6.644 0-11.088 4.62-11.088 11.572 0 6.908 4.444 11.484 11.528 11.484zm-6.38-13.992c.352-3.212 2.948-5.236 5.984-5.236 3.3 0 5.632 1.892 6.028 5.236h-12.012zm57.955-9.064c-3.696 0-6.248 1.628-7.7 4.092-1.364-2.904-4.004-4.092-6.952-4.092-3.388.044-5.324 1.54-6.6 3.212l-.528-2.948h-4.136V31h4.752V18.944c0-4.004 2.024-6.644 5.28-6.644 3.124 0 4.752 2.068 4.752 6.028V31h4.796V18.812c0-4.048 2.068-6.512 5.324-6.512 3.08 0 4.708 2.068 4.708 6.028V31h4.752V18.02c0-7.128-3.784-9.812-8.448-9.812zm33.348 18.656c-.968 0-1.452-.308-1.452-1.452v-9.02c0-5.324-3.432-8.184-9.416-8.184-5.676 0-9.46 2.728-9.944 7.128h4.664c.352-1.98 2.244-3.3 5.06-3.3 3.124 0 4.928 1.54 4.928 4.048v1.364h-5.676c-6.292 0-9.636 2.596-9.636 7.216 0 4.18 3.432 6.6 8.36 6.6 3.652 0 5.94-1.584 7.436-3.872 0 2.244 1.056 3.608 4.136 3.608h2.508v-4.136h-.968zm-6.16-5.104c-.044 3.476-2.332 5.808-6.292 5.808-2.596 0-4.18-1.32-4.18-3.212 0-2.288 1.628-3.388 4.576-3.388h5.896v.792zm21.113-13.288c-3.696 0-5.5 1.496-6.644 3.388l-.528-3.388h-4.224V31h4.752V19.692c0-3.476 1.364-6.776 5.588-6.776h2.112V8.472h-1.056zM306.527 31h4.752v-5.72l4.048-4.224L321.971 31h5.632l-9.02-13.42 8.492-9.108h-5.588l-10.208 10.912V.2h-4.752V31zm32.649.264c5.588 0 9.372-3.388 10.164-7.832h-4.752c-.66 2.508-2.772 3.96-5.676 3.96-3.74 0-6.16-2.508-6.292-6.336v-.308h16.984c.088-.616.132-1.232.132-1.804-.132-6.6-4.488-10.736-11-10.736-6.644 0-11.088 4.62-11.088 11.572 0 6.908 4.444 11.484 11.528 11.484zm-6.38-13.992c.352-3.212 2.948-5.236 5.984-5.236 3.3 0 5.632 1.892 6.028 5.236h-12.012zm22.238 7.612c0 4.092 1.848 6.116 6.16 6.116h4.4v-4.18h-3.344c-1.804 0-2.42-.66-2.42-2.42V12.652h5.5v-4.18h-5.5V2.18h-4.796v6.292h-3.916v4.18h3.916v12.232zm22.553-12.232h3.916V31h4.796V12.652h6.028v-4.18h-6.116V6.58c0-1.54.66-2.2 2.2-2.2h3.916V.2h-4.532c-4.356 0-6.292 2.112-6.292 6.16v2.112h-3.916v4.18zm26.901 18.612c6.864 0 11.484-4.62 11.484-11.528 0-6.864-4.62-11.528-11.484-11.528s-11.484 4.664-11.484 11.528c0 6.908 4.62 11.528 11.484 11.528zm0-4.048c-4.004 0-6.6-3.124-6.6-7.48s2.596-7.48 6.6-7.48 6.644 3.124 6.644 7.48-2.64 7.48-6.644 7.48zm26.701-18.744c-3.696 0-5.5 1.496-6.644 3.388l-.528-3.388h-4.224V31h4.752V19.692c0-3.476 1.364-6.776 5.588-6.776h2.112V8.472h-1.056zm13.253 22.792c5.764 0 9.592-3.212 10.472-8.316h-5.016c-.572 2.596-2.508 4.268-5.412 4.268-3.828 0-6.336-3.036-6.336-7.436 0-4.444 2.508-7.524 6.336-7.524 2.948 0 4.84 1.628 5.456 4.268h4.972c-.924-5.104-4.532-8.316-10.34-8.316-6.82 0-11.308 4.62-11.308 11.572 0 7.04 4.356 11.484 11.176 11.484zm24.801 0c5.588 0 9.372-3.388 10.164-7.832h-4.752c-.66 2.508-2.772 3.96-5.676 3.96-3.74 0-6.16-2.508-6.292-6.336v-.308h16.984c.088-.616.132-1.232.132-1.804-.132-6.6-4.488-10.736-11-10.736-6.644 0-11.088 4.62-11.088 11.572 0 6.908 4.444 11.484 11.528 11.484zm-6.38-13.992c.352-3.212 2.948-5.236 5.984-5.236 3.3 0 5.632 1.892 6.028 5.236h-12.012zm19.685 6.292c.132 4.884 4.268 7.7 10.296 7.7 5.456 0 9.548-2.728 9.548-7.04 0-5.016-4.18-6.072-9.328-6.688-3.256-.352-5.412-.616-5.412-2.728 0-1.804 1.848-2.948 4.664-2.948s4.752 1.452 5.016 3.52h4.664c-.308-4.62-4.224-7.172-9.768-7.172-5.412-.044-9.24 2.728-9.24 6.996 0 4.664 4.048 5.764 9.196 6.38 3.476.44 5.544.616 5.544 3.036 0 1.804-1.936 2.948-4.884 2.948-3.432 0-5.456-1.672-5.632-4.004h-4.664z" fill="#000"/></svg>