<svg width="161" height="11" viewBox="0 0 161 11" fill="none" xmlns="http://www.w3.org/2000/svg"><path d="M.28 1.628h3.024V10h1.61V1.628h3.024V.2H.28v1.428zm11.635 1.204c-1.176 0-1.75.476-2.114 1.078l-.168-1.078H8.289V10H9.8V6.402c0-1.106.434-2.156 1.778-2.156h.672V2.832h-.336zm7.602 5.852c-.308 0-.462-.098-.462-.462v-2.87c0-1.694-1.092-2.604-2.996-2.604-1.806 0-3.01.868-3.164 2.268h1.484c.112-.63.714-1.05 1.61-1.05.994 0 1.568.49 1.568 1.288v.434H15.75c-2.002 0-3.066.826-3.066 2.296 0 1.33 1.092 2.1 2.66 2.1 1.162 0 1.89-.504 2.366-1.232 0 .714.336 1.148 1.316 1.148h.798V8.684h-.308zm-1.96-1.624c-.014 1.106-.742 1.848-2.002 1.848-.826 0-1.33-.42-1.33-1.022 0-.728.518-1.078 1.456-1.078h1.876v.252zm8.483-3.234c-.462-.63-1.232-1.078-2.324-1.078-1.946 0-3.388 1.456-3.388 3.668 0 2.296 1.442 3.668 3.388 3.668 1.134 0 1.876-.532 2.338-1.162L26.236 10h1.316V.2H26.04v3.626zM23.968 8.81c-1.26 0-2.086-.98-2.086-2.394 0-1.4.826-2.38 2.086-2.38 1.26 0 2.086.98 2.086 2.408 0 1.386-.826 2.366-2.086 2.366zm8.463 1.274c1.778 0 2.982-1.078 3.234-2.492h-1.512c-.21.798-.882 1.26-1.806 1.26-1.19 0-1.96-.798-2.002-2.016v-.098h5.404c.028-.196.042-.392.042-.574-.042-2.1-1.428-3.416-3.5-3.416-2.114 0-3.528 1.47-3.528 3.682 0 2.198 1.414 3.654 3.668 3.654zm-2.03-4.452c.112-1.022.938-1.666 1.904-1.666 1.05 0 1.792.602 1.918 1.666h-3.822zM41.631 10l.91-2.422h4.019L47.483 10h1.723L45.55.2h-1.918L39.965 10h1.666zm2.913-8.064l1.568 4.27h-3.123l1.555-4.27zm10.18 4.48c0 1.484-.7 2.352-1.848 2.352-1.106 0-1.666-.714-1.666-2.114V2.832h-1.512v3.99c0 2.45 1.302 3.262 2.828 3.262 1.106 0 1.764-.448 2.212-.994l.168.91h1.33V2.832h-1.512v3.584zm2.694 1.218c.042 1.554 1.358 2.45 3.276 2.45 1.736 0 3.038-.868 3.038-2.24 0-1.596-1.33-1.932-2.968-2.128-1.036-.112-1.722-.196-1.722-.868 0-.574.588-.938 1.484-.938s1.512.462 1.596 1.12h1.484c-.098-1.47-1.344-2.282-3.108-2.282-1.722-.014-2.94.868-2.94 2.226 0 1.484 1.288 1.834 2.926 2.03 1.106.14 1.764.196 1.764.966 0 .574-.616.938-1.554.938-1.092 0-1.736-.532-1.792-1.274h-1.484zm7.041 0c.042 1.554 1.358 2.45 3.276 2.45 1.736 0 3.038-.868 3.038-2.24 0-1.596-1.33-1.932-2.968-2.128-1.036-.112-1.722-.196-1.722-.868 0-.574.588-.938 1.484-.938s1.512.462 1.596 1.12h1.484c-.098-1.47-1.344-2.282-3.108-2.282-1.722-.014-2.94.868-2.94 2.226 0 1.484 1.288 1.834 2.926 2.03 1.106.14 1.764.196 1.764.966 0 .574-.616.938-1.554.938-1.092 0-1.736-.532-1.792-1.274H64.46zm8.256-5.81c.518 0 .924-.378.924-.91s-.406-.91-.924-.91-.924.378-.924.91.406.91.924.91zM71.945 10h1.512V2.832h-1.512V10zm6.396.084c1.778 0 2.982-1.078 3.234-2.492h-1.512c-.21.798-.882 1.26-1.806 1.26-1.19 0-1.96-.798-2.002-2.016v-.098h5.404c.028-.196.042-.392.042-.574-.042-2.1-1.428-3.416-3.5-3.416-2.114 0-3.528 1.47-3.528 3.682 0 2.198 1.414 3.654 3.668 3.654zm-2.03-4.452c.112-1.022.938-1.666 1.904-1.666 1.05 0 1.792.602 1.918 1.666h-3.822zm9.957 1.148c.056 1.96 1.526 3.304 3.962 3.304 2.156 0 3.626-1.218 3.626-2.982.014-1.932-1.568-2.45-3.192-2.744-1.54-.266-2.548-.476-2.548-1.484 0-.924.77-1.4 1.876-1.4 1.19 0 1.974.672 2.1 1.666h1.61c-.07-1.806-1.47-3.024-3.71-3.024-2.086 0-3.486 1.162-3.486 2.87 0 1.946 1.54 2.464 3.164 2.744 1.554.28 2.576.504 2.576 1.54 0 .938-.84 1.456-2.002 1.456-1.372 0-2.268-.77-2.352-1.918l-1.624-.028zm12.617-4.032c-1.12 0-1.806.504-2.254 1.12V.2h-1.512V10h1.512V6.374c0-1.442.728-2.324 1.918-2.324 1.12 0 1.722.728 1.722 2.086V10h1.512V6.01c0-2.394-1.302-3.262-2.898-3.262zm10.825 5.936c-.308 0-.462-.098-.462-.462v-2.87c0-1.694-1.092-2.604-2.996-2.604-1.806 0-3.01.868-3.164 2.268h1.484c.112-.63.714-1.05 1.61-1.05.994 0 1.568.49 1.568 1.288v.434h-1.806c-2.002 0-3.066.826-3.066 2.296 0 1.33 1.092 2.1 2.66 2.1 1.162 0 1.89-.504 2.366-1.232 0 .714.336 1.148 1.316 1.148h.798V8.684h-.308zm-1.96-1.624c-.014 1.106-.742 1.848-2.002 1.848-.826 0-1.33-.42-1.33-1.022 0-.728.518-1.078 1.456-1.078h1.876v.252zm6.718-4.228c-1.176 0-1.75.476-2.114 1.078l-.168-1.078h-1.344V10h1.512V6.402c0-1.106.434-2.156 1.778-2.156h.672V2.832h-.336zm4.328 7.252c1.778 0 2.982-1.078 3.234-2.492h-1.512c-.21.798-.882 1.26-1.806 1.26-1.19 0-1.96-.798-2.002-2.016v-.098h5.404c.028-.196.042-.392.042-.574-.042-2.1-1.428-3.416-3.5-3.416-2.114 0-3.528 1.47-3.528 3.682 0 2.198 1.414 3.654 3.668 3.654zm-2.03-4.452c.112-1.022.938-1.666 1.904-1.666 1.05 0 1.792.602 1.918 1.666h-3.822zm14.605 4.452c2.282 0 3.948-1.344 4.256-3.416h-1.666c-.308 1.246-1.246 2.002-2.604 2.002-1.848 0-2.968-1.484-2.968-3.57 0-2.1 1.148-3.57 3.01-3.57 1.33 0 2.254.77 2.576 2.002h1.666c-.322-2.072-1.932-3.416-4.172-3.416-2.898 0-4.732 2.002-4.732 4.984 0 3.01 1.778 4.984 4.634 4.984zm5.588-.084h1.61V5.856h3.836V4.47h-3.836V1.628h4.648V.2h-6.258V10zm10.824 0c3.066 0 4.998-2.002 4.998-4.914S150.849.2 147.783.2h-3.332V10h3.332zm-1.722-8.4h1.722c2.156 0 3.346 1.386 3.346 3.486 0 2.1-1.19 3.514-3.346 3.514h-1.722v-7zm7.676 6.034c.042 1.554 1.358 2.45 3.276 2.45 1.736 0 3.038-.868 3.038-2.24 0-1.596-1.33-1.932-2.968-2.128-1.036-.112-1.722-.196-1.722-.868 0-.574.588-.938 1.484-.938s1.512.462 1.596 1.12h1.484c-.098-1.47-1.344-2.282-3.108-2.282-1.722-.014-2.94.868-2.94 2.226 0 1.484 1.288 1.834 2.926 2.03 1.106.14 1.764.196 1.764.966 0 .574-.616.938-1.554.938-1.092 0-1.736-.532-1.792-1.274h-1.484z" fill="#000"/></svg>