<svg width="56" height="18" viewBox="0 0 56 18" fill="none" xmlns="http://www.w3.org/2000/svg"><rect y=".901" width="56" height="17" rx="8.5" fill="#000"/><path d="M7.3 10.182c.038 1.036.789 1.764 2.072 1.764 1.104 0 1.87-.638 1.87-1.547 0-1.02-.879-1.306-1.735-1.449-.788-.135-1.426-.262-1.426-.893 0-.563.458-.863 1.141-.863.713 0 1.201.398 1.276 1.006h.676c-.06-.946-.78-1.6-1.952-1.6-1.066 0-1.794.601-1.794 1.495 0 1.02.87 1.298 1.72 1.441.795.135 1.44.27 1.44.923 0 .571-.502.894-1.208.894-.803 0-1.352-.466-1.404-1.171H7.3zm4.966.72c0 .676.262.999.998.999h.668v-.563h-.608c-.33 0-.443-.12-.443-.443v-2.26h.991v-.563h-.99V7h-.616v1.073h-.69v.563h.69v2.267zm5.527.436c-.173 0-.248-.053-.248-.255V9.407c0-.893-.563-1.38-1.539-1.38-.923 0-1.531.442-1.621 1.193H15c.075-.39.436-.646.976-.646.6 0 .954.3.954.796v.263h-1.127c-1.006 0-1.539.428-1.539 1.193 0 .698.571 1.119 1.412 1.119.66 0 1.043-.293 1.283-.638.008.375.18.593.691.593h.338v-.563h-.195zm-.863-.999c0 .638-.443 1.081-1.21 1.081-.51 0-.832-.255-.832-.63 0-.436.307-.638.855-.638h1.187v.187zm3.303-2.267c-.683 0-.976.285-1.156.578l-.083-.578h-.533v3.829h.616V9.949c0-.608.218-1.276 1.02-1.276h.309v-.6h-.173zm1.116 2.83c0 .676.263.999.999.999h.668v-.563h-.608c-.33 0-.443-.12-.443-.443v-2.26h.99v-.563h-.99V7h-.616v1.073h-.69v.563h.69v2.267zm4.45 0c0 .676.263.999.999.999h.668v-.563h-.608c-.33 0-.443-.12-.443-.443v-2.26h.99v-.563h-.99V7h-.616v1.073h-.69v.563h.69v2.267zm3.972-2.83c-.683 0-.976.285-1.156.578l-.083-.578H28v3.829h.616V9.949c0-.608.218-1.276 1.02-1.276h.309v-.6h-.173zm3.96 3.266c-.173 0-.248-.053-.248-.255V9.407c0-.893-.563-1.38-1.539-1.38-.923 0-1.531.442-1.621 1.193h.615c.075-.39.436-.646.976-.646.6 0 .954.3.954.796v.263h-1.126c-1.006 0-1.54.428-1.54 1.193 0 .698.571 1.119 1.412 1.119.66 0 1.043-.293 1.284-.638.007.375.18.593.69.593h.338v-.563h-.195zm-.863-.999c0 .638-.443 1.081-1.209 1.081-.51 0-.833-.255-.833-.63 0-.436.308-.638.855-.638h1.187v.187zm4.505-1.681c-.232-.368-.668-.63-1.313-.63-1.059 0-1.84.787-1.84 1.958 0 1.247.781 1.96 1.84 1.96a1.55 1.55 0 001.313-.66l.083.615h.533V6.646h-.616v2.012zm-1.253 2.74c-.759 0-1.27-.578-1.27-1.412 0-.833.511-1.41 1.27-1.41.75 0 1.26.585 1.26 1.425 0 .819-.51 1.397-1.26 1.397zm3.023-3.971a.387.387 0 00.398-.398.387.387 0 00-.398-.398.387.387 0 00-.398.398c0 .232.173.398.398.398zm-.316 4.474h.616V8.072h-.615v3.829zm3.336-3.874c-.645 0-1.036.27-1.261.563l-.083-.518h-.533v3.829h.616V9.986c0-.863.435-1.396 1.156-1.396.668 0 1.036.42 1.036 1.216v2.095h.616V9.769c0-1.269-.683-1.742-1.547-1.742zm5.35.706c-.24-.428-.669-.706-1.314-.706-1.059 0-1.84.788-1.84 1.96 0 1.246.781 1.959 1.84 1.959.645 0 1.058-.27 1.314-.706v.45c0 .834-.436 1.21-1.24 1.21-.637 0-1.065-.271-1.17-.751h-.63c.097.84.78 1.298 1.756 1.298 1.313 0 1.9-.63 1.9-1.734v-3.64h-.534l-.082.66zm-1.254 2.665c-.758 0-1.269-.578-1.269-1.412 0-.833.51-1.41 1.269-1.41.75 0 1.261.585 1.261 1.425 0 .819-.51 1.397-1.261 1.397z" fill="#fff"/></svg>