<svg width="231" height="46" viewBox="0 0 231 46" fill="none" xmlns="http://www.w3.org/2000/svg"><path d="M7.036 10.114c-.425 0-.637-.142-.637-.694V6.08c0-1.64-1.005-2.56-2.802-2.56-1.642 0-2.731.792-2.915 2.094h.721c.184-.878.949-1.458 2.166-1.458 1.344 0 2.108.708 2.108 1.896v.623H3.243c-1.84 0-2.83.792-2.83 2.137 0 1.274 1.005 2.052 2.533 2.052 1.458 0 2.32-.665 2.76-1.557v.255c-.029.849.325 1.217 1.174 1.217h.425v-.665h-.27zM5.677 7.878c0 1.373-.976 2.363-2.674 2.363-1.147 0-1.854-.58-1.854-1.472 0-.948.707-1.471 2.038-1.471h2.49v.58zm5.904-4.359c-1.316 0-2.165.68-2.575 1.614l-.114-1.529H8.27v7.175h.721V7.24c0-1.868.949-3.057 2.477-3.057 1.387 0 2.222.906 2.222 2.604v3.99h.721V6.76c0-2.264-1.203-3.24-2.83-3.24zm10.176 1.698C21.318 4.2 20.356 3.52 19.01 3.52c-1.967 0-3.382 1.5-3.382 3.665 0 2.265 1.415 3.68 3.382 3.68 1.345 0 2.279-.722 2.732-1.727l.113 1.642h.622V.873h-.721v4.344zm-2.69 4.996c-1.598 0-2.702-1.245-2.702-3.029 0-1.768 1.104-3.028 2.703-3.028 1.599 0 2.703 1.26 2.703 3.043 0 1.769-1.104 3.014-2.703 3.014zm12.39-6.694c-1.344 0-2.292.736-2.745 1.755V.873h-.722v9.906h.623l.113-1.628c.425 1.034 1.387 1.713 2.731 1.713 1.967 0 3.382-1.5 3.382-3.68 0-2.25-1.415-3.665-3.382-3.665zm-.056 6.694c-1.6 0-2.703-1.245-2.703-3.043 0-1.754 1.104-3.014 2.703-3.014 1.599 0 2.702 1.26 2.702 3.028 0 1.784-1.103 3.029-2.702 3.029zm4.867.566h.722V.873h-.722v9.906zm5.588.085c2.024 0 3.453-1.5 3.453-3.68 0-2.165-1.429-3.665-3.453-3.665-2.023 0-3.438 1.5-3.438 3.665 0 2.18 1.415 3.68 3.438 3.68zm0-.651c-1.599 0-2.703-1.245-2.703-3.029 0-1.768 1.104-3.028 2.703-3.028 1.6 0 2.703 1.26 2.703 3.028 0 1.784-1.103 3.029-2.703 3.029zm8.015.65c1.627 0 2.773-.933 3.056-2.39h-.764c-.24 1.06-1.104 1.74-2.292 1.74-1.571 0-2.66-1.231-2.66-3.014 0-1.783 1.075-3.043 2.66-3.043 1.203 0 2.052.68 2.306 1.755h.75c-.297-1.486-1.415-2.392-3.042-2.392-2.024 0-3.41 1.5-3.41 3.68 0 2.207 1.372 3.665 3.396 3.665zm4.46-.084h.72V8.84l1.685-1.726 2.745 3.665h.878L57.23 6.59l2.887-2.986h-.891l-4.175 4.302V.873h-.722v9.906zm13.948.085c2.024 0 3.453-1.5 3.453-3.68 0-2.165-1.429-3.665-3.453-3.665-2.023 0-3.438 1.5-3.438 3.665 0 2.18 1.415 3.68 3.438 3.68zm0-.651c-1.599 0-2.703-1.245-2.703-3.029 0-1.768 1.104-3.028 2.703-3.028 1.6 0 2.703 1.26 2.703 3.028 0 1.784-1.104 3.029-2.703 3.029zm10.095-3.085c0 1.882-.934 3.07-2.42 3.07-1.33 0-2.15-.905-2.15-2.617V3.604h-.723v4.02c0 2.25 1.175 3.24 2.76 3.24 1.274 0 2.108-.68 2.519-1.6l.099 1.515h.637V3.604h-.722v3.524zm2.972 1.981c0 1.146.467 1.67 1.684 1.67h1.047v-.665h-.99c-.75 0-1.02-.283-1.02-1.02V4.27h1.94v-.665h-1.94v-2.01h-.72v2.01h-1.36v.665h1.36v4.84zm8.181 0c0 1.146.467 1.67 1.684 1.67h1.048v-.665h-.991c-.75 0-1.019-.283-1.019-1.02V4.27h1.939v-.665h-1.939v-2.01h-.722v2.01H88.17v.665h1.358v4.84zm7.141-5.59c-1.344 0-2.18.75-2.59 1.783V.873h-.721v9.906h.721V7.24c0-1.868.948-3.057 2.477-3.057 1.372 0 2.222.906 2.222 2.604v3.99h.721V6.76c0-2.264-1.203-3.24-2.83-3.24zm7.501 7.345c1.571 0 2.773-1.02 3.085-2.463h-.736c-.283 1.118-1.231 1.812-2.406 1.812-1.599 0-2.604-1.217-2.632-2.887v-.127h5.859c0-.1.014-.213.014-.298-.071-2.136-1.387-3.382-3.312-3.382-1.967 0-3.311 1.5-3.311 3.623 0 2.25 1.401 3.722 3.439 3.722zm-2.632-4.274c.113-1.457 1.202-2.434 2.519-2.434 1.4 0 2.405.863 2.518 2.434h-5.037zm14.368-3.07c-1.316 0-2.165.679-2.576 1.613l-.113-1.529h-.623v7.175h.722V7.24c0-1.868.948-3.057 2.477-3.057 1.386 0 2.221.906 2.221 2.604v3.99h.722V6.76c0-2.264-1.203-3.24-2.83-3.24zm7.487 7.344c2.023 0 3.453-1.5 3.453-3.68 0-2.165-1.43-3.665-3.453-3.665-2.024 0-3.439 1.5-3.439 3.665 0 2.18 1.415 3.68 3.439 3.68zm0-.651c-1.599 0-2.703-1.245-2.703-3.029 0-1.768 1.104-3.028 2.703-3.028 1.599 0 2.703 1.26 2.703 3.028 0 1.784-1.104 3.029-2.703 3.029zm5.255-8.123a.498.498 0 00.509-.51.498.498 0 00-.509-.509.5.5 0 00-.51.51.5.5 0 00.51.509zm-.368 8.689H129V3.604h-.721v7.175zm2.093-2.208c.056 1.486 1.259 2.293 3.056 2.293 1.543 0 2.788-.779 2.788-2.052 0-1.514-1.33-1.812-2.873-2.024-1.118-.155-2.108-.283-2.108-1.288 0-.82.806-1.358 2.023-1.358 1.147 0 1.967.552 2.095 1.486h.736c-.128-1.401-1.274-2.109-2.831-2.109-1.599-.014-2.745.807-2.745 2.038 0 1.443 1.33 1.712 2.802 1.91 1.203.17 2.179.326 2.179 1.387 0 .85-.891 1.387-2.066 1.387-1.372 0-2.264-.637-2.321-1.67h-.735zm10.391 2.293c1.571 0 2.774-1.02 3.085-2.463h-.736c-.283 1.118-1.231 1.812-2.406 1.812-1.599 0-2.604-1.217-2.632-2.887v-.127h5.859c0-.1.014-.213.014-.298-.071-2.136-1.387-3.382-3.311-3.382-1.967 0-3.312 1.5-3.312 3.623 0 2.25 1.401 3.722 3.439 3.722zm-2.632-4.274c.113-1.457 1.203-2.434 2.519-2.434 1.401 0 2.405.863 2.519 2.434h-5.038zm12.797 4.189h.779l2.122-6.029 2.024 6.029h.778l2.547-7.175h-.735l-2.208 6.312-2.052-6.312h-.665l-2.165 6.312-2.095-6.312h-.764l2.434 7.175zm9.628-8.689a.498.498 0 00.509-.51.498.498 0 00-.509-.509.5.5 0 00-.51.51.5.5 0 00.51.509zm-.368 8.689h.722V3.604h-.722v7.175zm2.956-1.67c0 1.146.467 1.67 1.684 1.67h1.047v-.665h-.99c-.75 0-1.019-.283-1.019-1.02V4.27h1.939v-.665h-1.939v-2.01h-.722v2.01h-1.358v.665h1.358v4.84zm7.141-5.59c-1.345 0-2.18.75-2.59 1.783V.873h-.722v9.906h.722V7.24c0-1.868.948-3.057 2.477-3.057 1.372 0 2.221.906 2.221 2.604v3.99h.722V6.76c0-2.264-1.203-3.24-2.83-3.24zm11.722 0c-1.344 0-2.278.722-2.731 1.727l-.113-1.642h-.623V13.61h.722V9.123c.41 1.047 1.387 1.74 2.745 1.74 1.967 0 3.383-1.5 3.383-3.679 0-2.25-1.416-3.665-3.383-3.665zm-.056 6.694c-1.599 0-2.703-1.245-2.703-3.043 0-1.754 1.104-3.014 2.703-3.014 1.599 0 2.703 1.26 2.703 3.028 0 1.784-1.104 3.029-2.703 3.029zm8.037.65c2.024 0 3.453-1.5 3.453-3.679 0-2.165-1.429-3.665-3.453-3.665-2.023 0-3.439 1.5-3.439 3.665 0 2.18 1.416 3.68 3.439 3.68zm0-.65c-1.599 0-2.703-1.245-2.703-3.029 0-1.768 1.104-3.028 2.703-3.028 1.599 0 2.703 1.26 2.703 3.028 0 1.784-1.104 3.029-2.703 3.029zm6.407.566h.778l2.123-6.029 2.023 6.029h.778l2.548-7.175h-.736l-2.208 6.312-2.052-6.312h-.665l-2.165 6.312-2.094-6.312h-.764l2.434 7.175zm12.208.085c1.571 0 2.774-1.02 3.085-2.463h-.736c-.283 1.118-1.231 1.812-2.406 1.812-1.599 0-2.603-1.217-2.632-2.887v-.127h5.859c0-.1.014-.213.014-.298-.071-2.136-1.387-3.382-3.311-3.382-1.967 0-3.312 1.5-3.312 3.623 0 2.25 1.401 3.722 3.439 3.722zm-2.632-4.274c.113-1.457 1.203-2.434 2.519-2.434 1.401 0 2.406.863 2.519 2.434h-5.038zm10.172-2.986c-1.33 0-1.896.637-2.194 1.43l-.113-1.43h-.622v7.175h.721V7.142c0-1.458.382-2.844 2.066-2.844h.524v-.694h-.382zm.866.665h1.358v6.51h.722v-6.51h2.151v-.665h-2.151V2.53c0-.708.269-.99.99-.99h1.175V.872h-1.203c-1.203 0-1.684.524-1.684 1.67v1.061h-1.358v.665zm10.312 2.859c0 1.882-.934 3.07-2.42 3.07-1.33 0-2.151-.905-2.151-2.617V3.604h-.722v4.02c0 2.25 1.175 3.24 2.76 3.24 1.274 0 2.108-.68 2.519-1.6l.099 1.515h.637V3.604h-.722v3.524zm2.421 3.65h.722V.874h-.722v9.906zM6.582 21.219c-.438-1.02-1.4-1.699-2.745-1.699-1.967 0-3.382 1.5-3.382 3.666 0 2.264 1.415 3.679 3.382 3.679 1.345 0 2.279-.722 2.732-1.727l.113 1.642h.623v-9.906h-.722v4.344zm-2.688 4.995c-1.599 0-2.703-1.245-2.703-3.029 0-1.768 1.104-3.028 2.703-3.028 1.6 0 2.703 1.26 2.703 3.043 0 1.768-1.104 3.014-2.703 3.014zm11.42-.1c-.425 0-.637-.14-.637-.693v-3.34c0-1.64-1.005-2.56-2.802-2.56-1.642 0-2.731.792-2.915 2.094h.721c.184-.878.949-1.458 2.166-1.458 1.344 0 2.108.708 2.108 1.896v.623h-2.434c-1.84 0-2.83.793-2.83 2.137 0 1.273 1.005 2.052 2.533 2.052 1.457 0 2.32-.665 2.76-1.557v.255c-.029.849.325 1.217 1.174 1.217h.424v-.665h-.269zm-1.359-2.235c0 1.372-.976 2.363-2.675 2.363-1.146 0-1.853-.58-1.853-1.472 0-.948.707-1.471 2.037-1.471h2.491v.58zm3.13 1.231c0 1.146.467 1.67 1.684 1.67h1.048v-.665h-.991c-.75 0-1.019-.283-1.019-1.02V20.27h1.939v-.665h-1.939v-2.01h-.722v2.01h-1.358v.665h1.358v4.84zm9.989 1.005c-.425 0-.637-.142-.637-.694v-3.34c0-1.64-1.005-2.56-2.802-2.56-1.641 0-2.73.792-2.915 2.094h.722c.184-.878.948-1.458 2.165-1.458 1.344 0 2.108.708 2.108 1.896v.623h-2.433c-1.84 0-2.83.793-2.83 2.137 0 1.273 1.004 2.052 2.532 2.052 1.458 0 2.321-.665 2.76-1.557v.255c-.029.849.325 1.217 1.174 1.217h.425v-.665h-.269zm-1.359-2.236c0 1.372-.976 2.363-2.674 2.363-1.146 0-1.854-.58-1.854-1.472 0-.948.708-1.471 2.038-1.471h2.49v.58zm2.508 2.434c0 .325.227.538.538.538a.512.512 0 00.538-.538c0-.326-.227-.524-.538-.524-.311 0-.538.198-.538.524zm6.554.467h1.627v-3.595h2.279c2.066 0 3.424-1.245 3.424-3.155 0-1.925-1.358-3.156-3.424-3.156h-3.906v9.906zm3.778-8.49c1.16 0 1.897.664 1.897 1.74 0 1.061-.75 1.74-1.91 1.74h-2.138v-3.48h2.151zm7.741 8.575c1.798 0 3.015-1.09 3.27-2.52h-1.529c-.212.807-.892 1.274-1.825 1.274-1.203 0-1.982-.806-2.024-2.037v-.1h5.462c.029-.198.043-.396.043-.58-.043-2.122-1.444-3.453-3.538-3.453-2.137 0-3.566 1.486-3.566 3.722 0 2.222 1.43 3.694 3.707 3.694zm-2.051-4.5c.113-1.033.948-1.684 1.924-1.684 1.061 0 1.811.608 1.939 1.684h-3.863zm10.349-2.83c-1.19 0-1.77.48-2.137 1.09l-.17-1.09h-1.359v7.245h1.529v-3.637c0-1.118.438-2.18 1.797-2.18h.68v-1.429h-.34zm.85 1.344h1.26v5.9h1.542v-5.9h1.938v-1.345h-1.966v-.608c0-.495.212-.708.707-.708h1.26v-1.344h-1.458c-1.401 0-2.024.68-2.024 1.981v.68h-1.26v1.344zm8.652 5.986c2.207 0 3.693-1.486 3.693-3.708 0-2.207-1.486-3.707-3.693-3.707-2.208 0-3.694 1.5-3.694 3.707 0 2.222 1.486 3.708 3.694 3.708zm0-1.302c-1.288 0-2.123-1.005-2.123-2.406 0-1.4.835-2.406 2.123-2.406 1.287 0 2.136 1.005 2.136 2.406 0 1.401-.849 2.406-2.136 2.406zm8.587-6.029c-1.188 0-1.769.482-2.137 1.09l-.17-1.09h-1.358v7.246h1.528v-3.637c0-1.118.44-2.18 1.798-2.18h.679v-1.429h-.34zm9.618-.085c-1.19 0-2.01.524-2.477 1.317-.439-.934-1.288-1.317-2.236-1.317-1.09.015-1.712.496-2.122 1.034l-.17-.949h-1.33v7.246h1.528V22.9c0-1.287.65-2.136 1.698-2.136 1.005 0 1.528.665 1.528 1.938v4.076h1.543v-3.92c0-1.302.665-2.094 1.712-2.094.99 0 1.514.665 1.514 1.938v4.076h1.529v-4.175c0-2.292-1.217-3.155-2.717-3.155zm10.725 6c-.311 0-.467-.098-.467-.466V22.08c0-1.713-1.104-2.633-3.028-2.633-1.826 0-3.043.878-3.199 2.293h1.5c.114-.637.722-1.061 1.628-1.061 1.005 0 1.585.495 1.585 1.302v.438h-1.826c-2.023 0-3.099.835-3.099 2.321 0 1.345 1.104 2.123 2.689 2.123 1.174 0 1.91-.51 2.391-1.245 0 .721.34 1.16 1.33 1.16h.807v-1.33h-.311zm-1.981-1.64c-.014 1.117-.75 1.867-2.024 1.867-.835 0-1.344-.425-1.344-1.033 0-.736.523-1.09 1.471-1.09h1.897v.255zm6.945-4.36c-1.174 0-1.867.468-2.32 1.034l-.17-.949h-1.33v7.246h1.528v-3.651c0-1.472.722-2.363 1.939-2.363 1.146 0 1.726.735 1.726 2.108v3.906h1.543v-4.033c0-2.42-1.316-3.297-2.916-3.297zm7.576 7.416c1.854 0 3.085-1.033 3.368-2.675h-1.613c-.184.835-.807 1.373-1.741 1.373-1.231 0-2.038-.977-2.038-2.392 0-1.429.807-2.42 2.038-2.42.948 0 1.557.524 1.755 1.373h1.599c-.297-1.641-1.458-2.675-3.326-2.675-2.193 0-3.637 1.486-3.637 3.722 0 2.264 1.401 3.694 3.595 3.694zm7.976 0c1.798 0 3.015-1.09 3.269-2.52h-1.528c-.212.807-.892 1.274-1.826 1.274-1.202 0-1.981-.806-2.023-2.037v-.1h5.462a4.05 4.05 0 00.043-.58c-.043-2.122-1.444-3.453-3.538-3.453-2.137 0-3.566 1.486-3.566 3.722 0 2.222 1.429 3.694 3.707 3.694zm-2.052-4.5c.114-1.033.949-1.684 1.925-1.684 1.061 0 1.811.608 1.939 1.684h-3.864zm11.352 4.415l.92-2.448h4.061l.934 2.448h1.741l-3.694-9.906h-1.938l-3.708 9.906h1.684zm2.944-8.151l1.585 4.316h-3.156l1.571-4.316zm9.393.82c-1.175 0-1.868.468-2.321 1.034l-.17-.949h-1.33v7.246h1.528v-3.651c0-1.472.722-2.363 1.939-2.363 1.146 0 1.727.735 1.727 2.108v3.906h1.542v-4.033c0-2.42-1.316-3.297-2.915-3.297zm10.928 6c-.312 0-.467-.098-.467-.466V22.08c0-1.713-1.104-2.633-3.029-2.633-1.825 0-3.042.878-3.198 2.293h1.5c.113-.637.722-1.061 1.628-1.061 1.004 0 1.585.495 1.585 1.302v.438H142.3c-2.024 0-3.099.835-3.099 2.321 0 1.345 1.104 2.123 2.689 2.123 1.174 0 1.91-.51 2.391-1.245 0 .721.34 1.16 1.33 1.16h.807v-1.33h-.311zm-1.981-1.64c-.015 1.117-.75 1.867-2.024 1.867-.835 0-1.344-.425-1.344-1.033 0-.736.523-1.09 1.471-1.09h1.897v.255zm3.125 2.97h1.528v-9.905h-1.528v9.906zm5.12.043l-.283.708c-.226.594-.368.736-.962.736h-1.075v1.344h1.641c1.062 0 1.373-.524 1.826-1.698l3.283-8.378h-1.628l-1.967 5.505-2.023-5.505h-1.628l2.816 7.288zm5.878-2.01c0 1.317.595 1.968 1.982 1.968h1.415v-1.345h-1.076c-.58 0-.778-.212-.778-.778v-3.778h1.769v-1.345h-1.769V17.51h-1.543v2.023h-1.259v1.345h1.259v3.934zm5.147-6.296c.524 0 .934-.383.934-.92 0-.538-.41-.92-.934-.92-.523 0-.934.382-.934.92s.411.92.934.92zm-.778 8.264h1.528v-7.246h-1.528v7.246zm6.352.085c1.854 0 3.085-1.033 3.368-2.675h-1.613c-.184.835-.807 1.373-1.741 1.373-1.231 0-2.038-.977-2.038-2.392 0-1.429.807-2.42 2.038-2.42.948 0 1.557.524 1.755 1.373h1.599c-.297-1.641-1.458-2.675-3.326-2.675-2.193 0-3.636 1.486-3.636 3.722 0 2.264 1.4 3.694 3.594 3.694zm4.226-2.477c.043 1.571 1.373 2.477 3.312 2.477 1.755 0 3.071-.878 3.071-2.264 0-1.614-1.345-1.953-3-2.151-1.048-.114-1.741-.199-1.741-.878 0-.58.594-.948 1.5-.948s1.528.467 1.613 1.132h1.5c-.099-1.486-1.358-2.306-3.141-2.306-1.741-.015-2.972.877-2.972 2.25 0 1.5 1.302 1.853 2.957 2.051 1.118.142 1.784.199 1.784.977 0 .58-.623.948-1.571.948-1.104 0-1.755-.538-1.812-1.288h-1.5zm7.963 1.401c-.382 0-.622.24-.622.552 0 .34.226.51.495.51.141 0 .283-.057.354-.17.099.099.127.24.127.368 0 .538-.34 1.09-1.061 1.118v.424c.976-.042 1.585-.693 1.585-1.627 0-.651-.368-1.175-.878-1.175zM3.894 42.864c1.57 0 2.774-1.02 3.085-2.462h-.736c-.283 1.117-1.231 1.81-2.406 1.81-1.599 0-2.603-1.216-2.632-2.886v-.127h5.859c0-.1.014-.213.014-.298-.07-2.136-1.387-3.382-3.311-3.382-1.967 0-3.312 1.5-3.312 3.623 0 2.25 1.401 3.722 3.44 3.722zM1.262 38.59c.113-1.458 1.203-2.434 2.519-2.434 1.4 0 2.406.863 2.519 2.434H1.262zm6.23 4.189h.835l2.377-3.156 2.377 3.156h.878l-2.788-3.665 2.646-3.51h-.82l-2.265 2.972-2.236-2.972h-.863l2.647 3.51-2.788 3.665zm10.276.085c1.627 0 2.773-.934 3.057-2.392h-.765c-.24 1.062-1.103 1.74-2.292 1.74-1.57 0-2.66-1.23-2.66-3.013s1.075-3.043 2.66-3.043c1.203 0 2.052.68 2.307 1.755h.75c-.298-1.486-1.416-2.392-3.043-2.392-2.024 0-3.41 1.5-3.41 3.68 0 2.207 1.372 3.665 3.396 3.665zm4.46-.085h.721v-9.906h-.722v9.906zm7.625-3.651c0 1.882-.934 3.07-2.42 3.07-1.33 0-2.15-.905-2.15-2.617v-3.977h-.722v4.02c0 2.25 1.174 3.24 2.76 3.24 1.273 0 2.108-.68 2.518-1.6l.1 1.515h.636v-7.175h-.721v3.524zm2.096 1.443c.056 1.486 1.26 2.293 3.056 2.293 1.543 0 2.788-.778 2.788-2.052 0-1.514-1.33-1.811-2.873-2.024-1.117-.155-2.108-.283-2.108-1.287 0-.821.807-1.36 2.024-1.36 1.146 0 1.967.553 2.094 1.487h.736c-.127-1.401-1.274-2.109-2.83-2.109-1.6-.014-2.746.807-2.746 2.038 0 1.444 1.33 1.712 2.802 1.91 1.203.17 2.18.326 2.18 1.387 0 .85-.892 1.387-2.067 1.387-1.372 0-2.264-.637-2.32-1.67h-.736zm7.59-6.481c.282 0 .509-.212.509-.51a.499.499 0 00-.51-.509.499.499 0 00-.51.51c0 .297.227.509.51.509zm-.369 8.689h.722v-7.175h-.722v7.175zm4.499 0h.863l2.802-7.175h-.75l-2.462 6.34-2.477-6.34h-.778l2.802 7.175zm7.516.085c1.57 0 2.773-1.02 3.084-2.462h-.735c-.283 1.117-1.231 1.81-2.406 1.81-1.6 0-2.604-1.216-2.632-2.886v-.127h5.858c0-.1.015-.213.015-.298-.071-2.136-1.387-3.382-3.312-3.382-1.967 0-3.311 1.5-3.311 3.623 0 2.25 1.4 3.722 3.439 3.722zm-2.633-4.274c.114-1.458 1.203-2.434 2.52-2.434 1.4 0 2.405.863 2.518 2.434h-5.038zm11.595 2.519c0 1.146.467 1.67 1.684 1.67h1.047v-.665h-.99c-.75 0-1.02-.283-1.02-1.02V36.27h1.94v-.665h-1.94v-2.01h-.721v2.01h-1.358v.665h1.358v4.84zm6.778 1.755c2.024 0 3.453-1.5 3.453-3.68 0-2.165-1.43-3.665-3.453-3.665-2.024 0-3.439 1.5-3.439 3.666 0 2.179 1.415 3.679 3.439 3.679zm0-.651c-1.6 0-2.703-1.245-2.703-3.029 0-1.768 1.104-3.028 2.703-3.028 1.6 0 2.703 1.26 2.703 3.029 0 1.782-1.104 3.028-2.703 3.028zm13.06.65c2.122 0 3.622-1.145 4.047-3.14h-.807c-.424 1.584-1.57 2.433-3.254 2.433-2.293 0-3.736-1.797-3.736-4.33 0-2.533 1.471-4.33 3.764-4.33 1.656 0 2.816.863 3.255 2.42h.806c-.438-1.982-1.938-3.128-4.019-3.128-2.787 0-4.599 2.066-4.599 5.038 0 3 1.77 5.038 4.543 5.038zm5.89-8.773c.283 0 .51-.212.51-.51a.499.499 0 00-.51-.509.499.499 0 00-.51.51c0 .297.227.509.51.509zm-.368 8.689h.722v-7.175h-.722v7.175zm2.956-1.67c0 1.146.467 1.67 1.684 1.67h1.047v-.665h-.99c-.75 0-1.019-.283-1.019-1.02V36.27h1.939v-.665h-1.939v-2.01h-.722v2.01h-1.358v.665h1.358v4.84zm5.98 1.67l-.466 1.16c-.326.793-.453 1.005-1.19 1.005h-.905v.665h1.104c.962 0 1.189-.368 1.641-1.5l3.44-8.505h-.78l-2.447 6.24-2.49-6.24h-.78l2.874 7.175zm8.577 0h.765v-9.906h-.765v9.906zm5.947-7.26c-1.316 0-2.165.68-2.575 1.614l-.113-1.529h-.623v7.175h.722V39.24c0-1.868.948-3.057 2.476-3.057 1.387 0 2.222.906 2.222 2.604v3.99h.722V38.76c0-2.264-1.203-3.24-2.831-3.24zm10.176 1.698c-.439-1.018-1.401-1.698-2.745-1.698-1.967 0-3.382 1.5-3.382 3.666 0 2.264 1.415 3.679 3.382 3.679 1.344 0 2.278-.722 2.731-1.727l.113 1.642h.623v-9.906h-.722v4.344zm-2.689 4.996c-1.599 0-2.703-1.245-2.703-3.029 0-1.768 1.104-3.028 2.703-3.028 1.599 0 2.703 1.26 2.703 3.043 0 1.769-1.104 3.014-2.703 3.014zm8.278.65c1.571 0 2.774-1.018 3.085-2.462h-.736c-.283 1.118-1.231 1.812-2.405 1.812-1.599 0-2.604-1.217-2.633-2.887v-.127h5.859c0-.1.014-.213.014-.298-.071-2.136-1.387-3.382-3.311-3.382-1.967 0-3.312 1.5-3.312 3.623 0 2.25 1.401 3.722 3.439 3.722zM122.1 38.59c.113-1.458 1.203-2.434 2.519-2.434 1.401 0 2.406.863 2.519 2.434H122.1zm6.23 4.189h.835l2.377-3.156 2.378 3.156h.877l-2.788-3.665 2.646-3.51h-.82l-2.265 2.972-2.235-2.972h-.864l2.647 3.51-2.788 3.665zm7.285-.467c0 .325.226.538.538.538a.512.512 0 00.537-.538c0-.326-.226-.524-.537-.524-.312 0-.538.198-.538.524z" fill="#000"/></svg>