<svg width="231" height="46" viewBox="0 0 231 46" fill="none" xmlns="http://www.w3.org/2000/svg"><path d="M7.084 10.113c-.424 0-.637-.141-.637-.693V6.08c0-1.641-1.004-2.561-2.801-2.561-1.642 0-2.732.792-2.916 2.094h.722c.184-.877.948-1.457 2.165-1.457 1.345 0 2.109.707 2.109 1.896v.623H3.292c-1.84 0-2.83.792-2.83 2.136 0 1.274 1.004 2.052 2.533 2.052 1.457 0 2.32-.665 2.76-1.556v.254c-.03.85.325 1.217 1.174 1.217h.424v-.665h-.269zM5.726 7.877c0 1.373-.977 2.364-2.675 2.364-1.146 0-1.854-.58-1.854-1.472 0-.948.708-1.472 2.038-1.472h2.49v.58zM11.63 3.52c-1.316 0-2.165.68-2.576 1.613l-.113-1.528h-.623v7.175h.722V7.24c0-1.868.948-3.057 2.477-3.057 1.386 0 2.221.906 2.221 2.604v3.99h.722V6.76c0-2.265-1.203-3.241-2.83-3.241zm10.175 1.698c-.438-1.019-1.4-1.698-2.745-1.698-1.967 0-3.382 1.5-3.382 3.665 0 2.264 1.415 3.68 3.382 3.68 1.344 0 2.278-.722 2.731-1.727l.113 1.641h.623V.873h-.722v4.344zm-2.688 4.995c-1.6 0-2.703-1.245-2.703-3.028 0-1.769 1.103-3.028 2.703-3.028 1.599 0 2.703 1.26 2.703 3.042 0 1.77-1.104 3.014-2.703 3.014zM31.506 3.52c-1.345 0-2.293.736-2.745 1.755V.873h-.722v9.905h.622l.114-1.627c.424 1.033 1.387 1.712 2.73 1.712 1.968 0 3.383-1.5 3.383-3.679 0-2.25-1.415-3.665-3.382-3.665zm-.057 6.693c-1.599 0-2.703-1.245-2.703-3.042 0-1.755 1.104-3.014 2.703-3.014 1.6 0 2.703 1.26 2.703 3.028 0 1.783-1.104 3.028-2.703 3.028zm4.868.566h.721V.873h-.721v9.905zm5.588.085c2.024 0 3.453-1.5 3.453-3.679 0-2.165-1.43-3.665-3.453-3.665-2.024 0-3.439 1.5-3.439 3.665 0 2.18 1.415 3.68 3.439 3.68zm0-.65c-1.6 0-2.703-1.246-2.703-3.029 0-1.769 1.104-3.028 2.703-3.028 1.6 0 2.703 1.26 2.703 3.028 0 1.783-1.104 3.028-2.703 3.028zm8.014.65c1.628 0 2.774-.934 3.057-2.391h-.764c-.24 1.061-1.104 1.74-2.293 1.74-1.57 0-2.66-1.23-2.66-3.014 0-1.783 1.075-3.042 2.66-3.042 1.203 0 2.052.679 2.307 1.754h.75c-.297-1.485-1.415-2.391-3.042-2.391-2.024 0-3.41 1.5-3.41 3.68 0 2.207 1.372 3.664 3.395 3.664zm4.46-.085h.722V8.84l1.684-1.727 2.745 3.665h.877L57.28 6.59l2.887-2.986h-.892l-4.174 4.302V.873h-.722v9.905zm13.949.085c2.024 0 3.453-1.5 3.453-3.679 0-2.165-1.43-3.665-3.453-3.665-2.024 0-3.439 1.5-3.439 3.665 0 2.18 1.415 3.68 3.439 3.68zm0-.65c-1.6 0-2.703-1.246-2.703-3.029 0-1.769 1.104-3.028 2.703-3.028 1.6 0 2.703 1.26 2.703 3.028 0 1.783-1.104 3.028-2.703 3.028zm10.095-3.086c0 1.883-.934 3.071-2.42 3.071-1.33 0-2.151-.905-2.151-2.618V3.604h-.722v4.019c0 2.25 1.175 3.24 2.76 3.24 1.273 0 2.108-.679 2.518-1.599l.1 1.514h.636V3.604h-.721v3.523zm2.972 1.982c0 1.146.467 1.67 1.684 1.67h1.047v-.666h-.99c-.75 0-1.02-.283-1.02-1.019V4.27h1.94v-.665h-1.94v-2.01h-.721v2.01h-1.359v.665h1.359v4.84zm8.181 0c0 1.146.467 1.67 1.684 1.67h1.047v-.666h-.99c-.75 0-1.02-.283-1.02-1.019V4.27h1.94v-.665h-1.94v-2.01h-.72v2.01h-1.36v.665h1.36v4.84zm7.14-5.59c-1.344 0-2.179.75-2.589 1.783V.872h-.722v9.906h.722V7.241c0-1.868.948-3.057 2.477-3.057 1.372 0 2.221.906 2.221 2.604v3.99h.722V6.76c0-2.265-1.203-3.241-2.83-3.241zm7.501 7.344c1.571 0 2.774-1.019 3.085-2.462h-.736c-.283 1.118-1.231 1.811-2.405 1.811-1.599 0-2.604-1.217-2.632-2.886v-.128h5.858c0-.099.014-.212.014-.297-.07-2.137-1.386-3.382-3.311-3.382-1.967 0-3.311 1.5-3.311 3.623 0 2.25 1.401 3.721 3.438 3.721zm-2.632-4.273c.113-1.458 1.203-2.434 2.519-2.434 1.401 0 2.406.863 2.519 2.434h-5.038zm14.368-3.071c-1.316 0-2.165.68-2.575 1.613l-.113-1.528h-.623v7.175h.722V7.24c0-1.868.948-3.057 2.476-3.057 1.387 0 2.222.906 2.222 2.604v3.99h.722V6.76c0-2.265-1.203-3.241-2.831-3.241zm7.487 7.344c2.024 0 3.453-1.5 3.453-3.679 0-2.165-1.429-3.665-3.453-3.665-2.023 0-3.438 1.5-3.438 3.665 0 2.18 1.415 3.68 3.438 3.68zm0-.65c-1.599 0-2.703-1.246-2.703-3.029 0-1.769 1.104-3.028 2.703-3.028 1.599 0 2.703 1.26 2.703 3.028 0 1.783-1.104 3.028-2.703 3.028zm5.255-8.123a.5.5 0 00.51-.51.5.5 0 00-.51-.51.498.498 0 00-.509.51c0 .297.226.51.509.51zm-.368 8.688h.722V3.604h-.722v7.174zm2.093-2.207c.057 1.486 1.26 2.292 3.057 2.292 1.542 0 2.788-.778 2.788-2.052 0-1.514-1.331-1.81-2.873-2.023-1.118-.156-2.109-.283-2.109-1.288 0-.82.807-1.358 2.024-1.358 1.146 0 1.967.551 2.094 1.485h.736c-.127-1.4-1.273-2.108-2.83-2.108-1.599-.014-2.745.807-2.745 2.038 0 1.443 1.33 1.712 2.802 1.91 1.203.17 2.179.326 2.179 1.387 0 .849-.892 1.387-2.066 1.387-1.373 0-2.264-.637-2.321-1.67h-.736zm10.392 2.292c1.57 0 2.773-1.019 3.084-2.462h-.735c-.283 1.118-1.232 1.811-2.406 1.811-1.599 0-2.604-1.217-2.632-2.886v-.128h5.858c0-.099.015-.212.015-.297-.071-2.137-1.387-3.382-3.312-3.382-1.967 0-3.311 1.5-3.311 3.623 0 2.25 1.401 3.721 3.439 3.721zm-2.633-4.273c.114-1.458 1.203-2.434 2.519-2.434 1.401 0 2.406.863 2.519 2.434h-5.038zm12.798 4.188h.778l2.123-6.028 2.023 6.028h.779l2.547-7.174h-.736l-2.207 6.311-2.052-6.311h-.665l-2.166 6.311-2.094-6.311h-.764l2.434 7.174zm9.628-8.688a.498.498 0 00.509-.51.498.498 0 00-.509-.51.5.5 0 00-.51.51.5.5 0 00.51.51zm-.368 8.688h.721V3.604h-.721v7.174zm2.956-1.67c0 1.147.467 1.67 1.684 1.67h1.047v-.665h-.991c-.75 0-1.018-.283-1.018-1.019V4.27h1.938v-.665h-1.938v-2.01h-.722v2.01h-1.359v.665h1.359v4.84zm7.14-5.59c-1.344 0-2.179.75-2.589 1.784V.872h-.722v9.906h.722V7.241c0-1.868.948-3.057 2.476-3.057 1.373 0 2.222.906 2.222 2.604v3.99h.722V6.76c0-2.265-1.203-3.241-2.831-3.241zm11.723 0c-1.344 0-2.278.723-2.731 1.727l-.113-1.641h-.623v10.005h.722V9.123c.41 1.047 1.387 1.74 2.745 1.74 1.967 0 3.382-1.5 3.382-3.679 0-2.25-1.415-3.665-3.382-3.665zm-.057 6.694c-1.599 0-2.702-1.245-2.702-3.042 0-1.755 1.103-3.014 2.702-3.014 1.6 0 2.703 1.26 2.703 3.028 0 1.783-1.103 3.028-2.703 3.028zm8.038.651c2.023 0 3.453-1.5 3.453-3.679 0-2.165-1.43-3.665-3.453-3.665-2.024 0-3.439 1.5-3.439 3.665 0 2.18 1.415 3.68 3.439 3.68zm0-.65c-1.599 0-2.703-1.246-2.703-3.029 0-1.769 1.104-3.028 2.703-3.028 1.599 0 2.703 1.26 2.703 3.028 0 1.783-1.104 3.028-2.703 3.028zm6.406.566h.779l2.122-6.029 2.024 6.028h.778l2.547-7.174h-.736l-2.207 6.311-2.052-6.311h-.665l-2.165 6.311-2.095-6.311h-.764l2.434 7.174zm12.209.084c1.57 0 2.773-1.019 3.085-2.462h-.736c-.283 1.118-1.231 1.811-2.406 1.811-1.599 0-2.604-1.217-2.632-2.886v-.128h5.859c0-.099.014-.212.014-.297-.071-2.137-1.387-3.382-3.312-3.382-1.967 0-3.311 1.5-3.311 3.623 0 2.25 1.401 3.721 3.439 3.721zM206.02 6.59c.113-1.458 1.202-2.434 2.519-2.434 1.4 0 2.405.863 2.518 2.434h-5.037zm10.172-2.986c-1.331 0-1.897.637-2.194 1.43l-.113-1.43h-.623v7.175h.722V7.141c0-1.458.382-2.845 2.066-2.845h.524v-.693h-.382zm.865.665h1.359v6.51h.721v-6.51h2.151v-.665h-2.151V2.528c0-.707.269-.99.991-.99h1.175V.873H220.1c-1.203 0-1.684.523-1.684 1.67v1.06h-1.359v.666zm10.313 2.858c0 1.883-.934 3.071-2.42 3.071-1.33 0-2.151-.905-2.151-2.618V3.604h-.722v4.019c0 2.25 1.175 3.24 2.76 3.24 1.273 0 2.108-.679 2.519-1.599l.099 1.514h.636V3.604h-.721v3.523zm2.42 3.651h.722V.873h-.722v9.905zM6.631 21.218c-.438-1.019-1.4-1.698-2.745-1.698-1.967 0-3.382 1.5-3.382 3.665 0 2.264 1.415 3.68 3.382 3.68 1.344 0 2.278-.722 2.731-1.727l.114 1.642h.622v-9.906h-.722v4.344zm-2.688 4.995c-1.6 0-2.703-1.245-2.703-3.028 0-1.769 1.104-3.028 2.703-3.028 1.599 0 2.703 1.26 2.703 3.042 0 1.77-1.104 3.014-2.703 3.014zm11.42-.099c-.425 0-.638-.141-.638-.693v-3.34c0-1.641-1.004-2.561-2.802-2.561-1.641 0-2.73.792-2.915 2.094h.722c.184-.877.948-1.457 2.165-1.457 1.345 0 2.109.707 2.109 1.896v.623H11.57c-1.84 0-2.83.792-2.83 2.136 0 1.274 1.004 2.052 2.533 2.052 1.457 0 2.32-.665 2.759-1.556v.255c-.028.848.325 1.216 1.175 1.216h.424v-.665h-.269zm-1.36-2.235c0 1.372-.976 2.363-2.674 2.363-1.146 0-1.854-.58-1.854-1.472 0-.948.708-1.472 2.038-1.472h2.49v.58zm3.131 1.23c0 1.147.467 1.67 1.684 1.67h1.047v-.665h-.99c-.75 0-1.02-.283-1.02-1.018v-4.826h1.94v-.665h-1.94v-2.01h-.721v2.01h-1.359v.665h1.359v4.84zm9.989 1.005c-.425 0-.637-.141-.637-.693v-3.34c0-1.641-1.005-2.561-2.802-2.561-1.642 0-2.731.792-2.915 2.094h.721c.184-.877.949-1.457 2.166-1.457 1.344 0 2.108.707 2.108 1.896v.623H23.33c-1.84 0-2.83.792-2.83 2.136 0 1.274 1.005 2.052 2.533 2.052 1.457 0 2.32-.665 2.76-1.556v.255c-.029.848.325 1.216 1.174 1.216h.425v-.665h-.27zm-1.359-2.235c0 1.372-.976 2.363-2.674 2.363-1.147 0-1.854-.58-1.854-1.472 0-.948.707-1.472 2.037-1.472h2.491v.58zm2.508 2.433c0 .326.226.538.538.538a.512.512 0 00.537-.538c0-.325-.226-.523-.538-.523-.31 0-.537.198-.537.523zm6.553.468h1.628v-3.595h2.278c2.066 0 3.425-1.245 3.425-3.156 0-1.924-1.359-3.155-3.425-3.155h-3.906v9.905zm3.779-8.491c1.16 0 1.896.665 1.896 1.74 0 1.062-.75 1.74-1.91 1.74h-2.137v-3.48h2.15zm7.741 8.575c1.797 0 3.014-1.09 3.269-2.518h-1.528c-.213.806-.892 1.273-1.826 1.273-1.203 0-1.981-.806-2.023-2.038v-.099h5.462c.028-.198.042-.396.042-.58-.042-2.123-1.443-3.453-3.537-3.453-2.137 0-3.566 1.486-3.566 3.722 0 2.222 1.429 3.693 3.707 3.693zm-2.052-4.5c.113-1.033.948-1.684 1.925-1.684 1.061 0 1.811.609 1.938 1.684h-3.863zm10.35-2.83c-1.19 0-1.77.481-2.138 1.09l-.17-1.09h-1.358v7.245h1.528v-3.636c0-1.118.439-2.18 1.797-2.18h.68v-1.429h-.34zm.85 1.344h1.259v5.902h1.542v-5.902h1.94v-1.344h-1.968v-.609c0-.495.212-.707.708-.707h1.26v-1.344h-1.458c-1.401 0-2.024.679-2.024 1.98v.68h-1.26v1.344zm8.651 5.986c2.208 0 3.694-1.485 3.694-3.707 0-2.208-1.486-3.708-3.694-3.708-2.207 0-3.693 1.5-3.693 3.708 0 2.222 1.486 3.707 3.693 3.707zm0-1.302c-1.287 0-2.122-1.004-2.122-2.405 0-1.401.835-2.406 2.122-2.406 1.288 0 2.137 1.005 2.137 2.406 0 1.4-.849 2.405-2.137 2.405zm8.588-6.028c-1.189 0-1.769.481-2.137 1.09l-.17-1.09h-1.358v7.245h1.528v-3.636c0-1.118.439-2.18 1.797-2.18h.68v-1.429h-.34zm9.617-.085c-1.189 0-2.01.524-2.476 1.316-.439-.934-1.288-1.316-2.236-1.316-1.09.014-1.712.495-2.123 1.033l-.17-.948h-1.33v7.245h1.529v-3.877c0-1.288.65-2.137 1.698-2.137 1.004 0 1.528.665 1.528 1.939v4.076h1.542v-3.92c0-1.302.665-2.095 1.713-2.095.99 0 1.514.665 1.514 1.939v4.076h1.528v-4.175c0-2.293-1.217-3.156-2.717-3.156zm10.725 6c-.31 0-.466-.099-.466-.467v-2.9c0-1.713-1.104-2.633-3.029-2.633-1.825 0-3.042.878-3.198 2.293h1.5c.113-.637.722-1.062 1.627-1.062 1.005 0 1.585.496 1.585 1.302v.439h-1.825c-2.024 0-3.1.835-3.1 2.32 0 1.345 1.104 2.123 2.69 2.123 1.174 0 1.91-.51 2.391-1.245 0 .722.34 1.16 1.33 1.16h.807v-1.33h-.311zm-1.98-1.641c-.015 1.118-.75 1.868-2.024 1.868-.835 0-1.345-.425-1.345-1.033 0-.736.524-1.09 1.472-1.09h1.896v.255zm6.945-4.359c-1.174 0-1.868.467-2.32 1.033l-.17-.948h-1.33v7.245h1.528v-3.65c0-1.472.721-2.364 1.938-2.364 1.147 0 1.727.736 1.727 2.109v3.905h1.542v-4.033c0-2.42-1.316-3.297-2.915-3.297zm7.575 7.415c1.854 0 3.085-1.033 3.368-2.674h-1.613c-.184.835-.806 1.372-1.74 1.372-1.232 0-2.038-.976-2.038-2.391 0-1.43.806-2.42 2.038-2.42.948 0 1.556.524 1.754 1.373h1.599c-.297-1.642-1.457-2.675-3.325-2.675-2.194 0-3.637 1.486-3.637 3.722 0 2.264 1.401 3.693 3.594 3.693zm7.977 0c1.797 0 3.014-1.09 3.269-2.518h-1.528c-.213.806-.892 1.273-1.826 1.273-1.203 0-1.981-.806-2.024-2.038v-.099h5.463c.028-.198.042-.396.042-.58-.042-2.123-1.443-3.453-3.538-3.453-2.136 0-3.566 1.486-3.566 3.722 0 2.222 1.43 3.693 3.708 3.693zm-2.052-4.5c.113-1.033.948-1.684 1.925-1.684 1.061 0 1.811.609 1.938 1.684h-3.863zm11.352 4.416l.92-2.449h4.061l.934 2.449h1.741l-3.694-9.906h-1.939l-3.707 9.905h1.684zm2.943-8.152l1.585 4.317h-3.156l1.571-4.317zm9.394.821c-1.175 0-1.868.467-2.321 1.033l-.17-.948h-1.33v7.245h1.528v-3.65c0-1.472.722-2.364 1.939-2.364 1.146 0 1.726.736 1.726 2.109v3.905h1.543v-4.033c0-2.42-1.316-3.297-2.915-3.297zm10.927 6c-.311 0-.467-.099-.467-.467v-2.9c0-1.713-1.103-2.633-3.028-2.633-1.825 0-3.042.878-3.198 2.293h1.5c.113-.637.722-1.062 1.627-1.062 1.005 0 1.585.496 1.585 1.302v.439h-1.825c-2.024 0-3.099.835-3.099 2.32 0 1.345 1.103 2.123 2.688 2.123 1.175 0 1.911-.51 2.392-1.245 0 .722.34 1.16 1.33 1.16h.807v-1.33h-.312zm-1.981-1.641c-.014 1.118-.75 1.868-2.023 1.868-.835 0-1.345-.425-1.345-1.033 0-.736.524-1.09 1.472-1.09h1.896v.255zm3.125 2.972h1.529v-9.906h-1.529v9.905zm5.121.042l-.283.707c-.226.595-.368.736-.962.736h-1.076v1.345h1.642c1.061 0 1.372-.524 1.825-1.698l3.283-8.378h-1.627l-1.967 5.505-2.024-5.505h-1.627l2.816 7.288zm5.878-2.01c0 1.317.594 1.968 1.981 1.968h1.415v-1.345h-1.075c-.58 0-.778-.212-.778-.778v-3.779h1.768v-1.344h-1.768v-2.024h-1.543v2.024h-1.259v1.344h1.259v3.934zm5.147-6.297c.523 0 .934-.382.934-.92 0-.537-.411-.92-.934-.92-.524 0-.934.383-.934.92 0 .538.41.92.934.92zm-.778 8.265h1.528v-7.246h-1.528v7.245zm6.352.084c1.853 0 3.085-1.033 3.368-2.674h-1.614c-.184.835-.806 1.372-1.74 1.372-1.231 0-2.038-.976-2.038-2.391 0-1.43.807-2.42 2.038-2.42.948 0 1.556.524 1.754 1.373h1.6c-.298-1.642-1.458-2.675-3.326-2.675-2.193 0-3.637 1.486-3.637 3.722 0 2.264 1.401 3.693 3.595 3.693zm4.226-2.476c.042 1.57 1.373 2.476 3.311 2.476 1.755 0 3.071-.877 3.071-2.264 0-1.613-1.344-1.953-3-2.15-1.047-.114-1.74-.199-1.74-.878 0-.58.594-.948 1.5-.948.905 0 1.528.467 1.613 1.132h1.5c-.099-1.486-1.359-2.307-3.142-2.307-1.74-.014-2.971.878-2.971 2.25 0 1.5 1.301 1.854 2.957 2.052 1.118.142 1.783.198 1.783.977 0 .58-.622.948-1.571.948-1.103 0-1.754-.538-1.811-1.288h-1.5zm7.963 1.4c-.382 0-.623.242-.623.553 0 .34.227.51.495.51.142 0 .284-.057.354-.17.099.099.128.24.128.367 0 .538-.34 1.09-1.062 1.118v.425c.977-.043 1.585-.694 1.585-1.628 0-.65-.368-1.174-.877-1.174zM3.943 42.864c1.57 0 2.773-1.019 3.085-2.462h-.736c-.283 1.118-1.231 1.811-2.406 1.811-1.599 0-2.604-1.217-2.632-2.886v-.128h5.859c0-.099.014-.212.014-.297-.071-2.137-1.387-3.382-3.312-3.382-1.967 0-3.311 1.5-3.311 3.623 0 2.25 1.4 3.721 3.439 3.721zM1.31 38.59c.113-1.458 1.202-2.434 2.518-2.434 1.401 0 2.406.863 2.52 2.434H1.31zm6.23 4.188h.834l2.378-3.155 2.377 3.156h.877l-2.787-3.666 2.646-3.51h-.82l-2.265 2.973-2.236-2.972h-.863l2.646 3.51-2.788 3.665zm10.276.085c1.627 0 2.773-.934 3.056-2.391h-.764c-.24 1.061-1.104 1.74-2.293 1.74-1.57 0-2.66-1.23-2.66-3.014 0-1.783 1.076-3.042 2.66-3.042 1.203 0 2.053.679 2.307 1.755h.75c-.297-1.486-1.415-2.392-3.042-2.392-2.024 0-3.41 1.5-3.41 3.68 0 2.207 1.372 3.664 3.396 3.664zm4.46-.084h.72v-9.906h-.72v9.906zm7.625-3.652c0 1.883-.934 3.071-2.42 3.071-1.33 0-2.15-.905-2.15-2.618v-3.976h-.722v4.019c0 2.25 1.174 3.24 2.76 3.24 1.273 0 2.108-.679 2.518-1.599l.099 1.514h.637v-7.174h-.722v3.523zm2.095 1.444c.057 1.486 1.26 2.292 3.057 2.292 1.542 0 2.788-.778 2.788-2.051 0-1.515-1.33-1.812-2.873-2.024-1.118-.156-2.108-.283-2.108-1.288 0-.82.806-1.358 2.023-1.358 1.147 0 1.967.551 2.095 1.485h.736c-.128-1.4-1.274-2.108-2.83-2.108-1.6-.014-2.746.806-2.746 2.038 0 1.443 1.33 1.712 2.802 1.91 1.203.17 2.18.326 2.18 1.387 0 .849-.892 1.387-2.067 1.387-1.373 0-2.264-.637-2.32-1.67h-.737zm7.59-6.481c.283 0 .51-.213.51-.51a.499.499 0 00-.51-.51.499.499 0 00-.51.51c0 .297.227.51.51.51zm-.368 8.688h.721v-7.174h-.721v7.175zm4.498 0h.864l2.802-7.174h-.75l-2.463 6.34-2.476-6.34h-.779l2.803 7.175zm7.516.085c1.571 0 2.774-1.019 3.085-2.462h-.736c-.283 1.118-1.23 1.811-2.405 1.811-1.6 0-2.604-1.217-2.633-2.886v-.128h5.86c0-.099.013-.212.013-.297-.07-2.137-1.387-3.382-3.311-3.382-1.967 0-3.312 1.5-3.312 3.623 0 2.25 1.401 3.721 3.44 3.721zm-2.632-4.273c.113-1.458 1.203-2.434 2.519-2.434 1.401 0 2.406.863 2.519 2.434H48.6zm11.595 2.519c0 1.146.467 1.67 1.684 1.67h1.047v-.666h-.99c-.75 0-1.02-.283-1.02-1.019V36.27h1.94v-.665h-1.94v-2.01h-.721v2.01h-1.359v.665h1.359v4.84zm6.778 1.754c2.023 0 3.453-1.5 3.453-3.679 0-2.165-1.43-3.665-3.453-3.665-2.024 0-3.44 1.5-3.44 3.665 0 2.18 1.416 3.68 3.44 3.68zm0-.65c-1.6 0-2.703-1.246-2.703-3.029 0-1.769 1.104-3.028 2.703-3.028 1.599 0 2.703 1.26 2.703 3.028 0 1.783-1.104 3.028-2.703 3.028zm13.06.65c2.122 0 3.622-1.146 4.047-3.141h-.807c-.424 1.585-1.57 2.434-3.255 2.434-2.292 0-3.736-1.797-3.736-4.33 0-2.534 1.472-4.33 3.764-4.33 1.656 0 2.817.862 3.255 2.42h.807c-.439-1.982-1.939-3.128-4.019-3.128-2.788 0-4.6 2.066-4.6 5.038 0 3 1.77 5.037 4.543 5.037zm5.89-8.773c.283 0 .51-.213.51-.51a.499.499 0 00-.51-.51.499.499 0 00-.51.51c0 .297.227.51.51.51zm-.368 8.688h.722v-7.174h-.722v7.175zm2.956-1.67c0 1.147.467 1.67 1.684 1.67h1.047v-.665h-.99c-.75 0-1.02-.283-1.02-1.019V36.27h1.94v-.665h-1.94v-2.01h-.721v2.01h-1.359v.665h1.359v4.84zm5.98 1.67l-.467 1.16c-.325.793-.453 1.006-1.189 1.006h-.905v.665h1.104c.962 0 1.188-.368 1.641-1.5l3.439-8.505h-.778l-2.449 6.24-2.49-6.24h-.778l2.872 7.175zm8.577 0h.764v-9.905h-.764v9.906zm5.947-7.26c-1.316 0-2.165.68-2.575 1.614l-.114-1.528h-.622v7.175h.721V39.24c0-1.868.949-3.057 2.477-3.057 1.387 0 2.222.906 2.222 2.604v3.99h.721V38.76c0-2.265-1.203-3.241-2.83-3.241zm10.176 1.699c-.439-1.019-1.401-1.698-2.746-1.698-1.967 0-3.382 1.5-3.382 3.665 0 2.264 1.415 3.68 3.382 3.68 1.345 0 2.279-.722 2.732-1.727l.113 1.642h.622v-9.906h-.721v4.344zm-2.689 4.995c-1.599 0-2.703-1.245-2.703-3.028 0-1.769 1.104-3.028 2.703-3.028 1.599 0 2.703 1.26 2.703 3.042 0 1.77-1.104 3.014-2.703 3.014zm8.278.651c1.571 0 2.774-1.019 3.085-2.462h-.736c-.283 1.118-1.231 1.811-2.406 1.811-1.599 0-2.604-1.217-2.632-2.886v-.128h5.859c0-.099.014-.212.014-.297-.071-2.137-1.387-3.382-3.311-3.382-1.968 0-3.312 1.5-3.312 3.623 0 2.25 1.401 3.721 3.439 3.721zm-2.632-4.273c.113-1.458 1.203-2.434 2.519-2.434 1.401 0 2.405.863 2.519 2.434h-5.038zm6.229 4.188h.835l2.378-3.155 2.377 3.156h.878l-2.788-3.666 2.646-3.51h-.821l-2.264 2.973-2.236-2.972h-.863l2.646 3.51-2.788 3.665zm7.285-.466c0 .325.227.537.538.537a.512.512 0 00.538-.537c0-.326-.226-.524-.538-.524-.311 0-.538.198-.538.524z" fill="#000"/></svg>