<svg width="71" height="12" viewBox="0 0 71 12" fill="none" xmlns="http://www.w3.org/2000/svg"><path d="M2.755 9.377l-.258.646c-.207.543-.336.672-.88.672H.637v1.228h1.499c.969 0 1.253-.478 1.667-1.551L6.8 2.72H5.314L3.518 7.748 1.669 2.721H.183l2.572 6.656zm7.576.039c2.016 0 3.373-1.357 3.373-3.387 0-2.016-1.357-3.386-3.373-3.386S6.958 4.013 6.958 6.03c0 2.03 1.357 3.387 3.373 3.387zm0-1.19c-1.176 0-1.939-.917-1.939-2.197 0-1.279.763-2.197 1.939-2.197 1.176 0 1.951.918 1.951 2.197 0 1.28-.775 2.198-1.951 2.198zm9.032-2.197c0 1.37-.646 2.172-1.706 2.172-1.021 0-1.538-.66-1.538-1.952V2.721h-1.396v3.683c0 2.262 1.202 3.012 2.61 3.012 1.022 0 1.629-.414 2.043-.918l.155.84h1.227V2.721h-1.395v3.308zm6.118-3.308c-1.085 0-1.615.44-1.951.995l-.155-.995h-1.241v6.617h1.396V6.017c0-1.021.4-1.99 1.641-1.99h.62V2.72h-.31zm4.956 4.82c0 1.203.543 1.797 1.81 1.797h1.292V8.11h-.982c-.53 0-.711-.194-.711-.71V3.948h1.615V2.72h-1.615V.873h-1.409V2.72h-1.15v1.228h1.15v3.593zm7.337-4.82c-1.086 0-1.615.44-1.951.995l-.156-.995h-1.24v6.617h1.396V6.017c0-1.021.4-1.99 1.64-1.99h.621V2.72h-.31zm7.017 5.402c-.284 0-.426-.09-.426-.426v-2.65c0-1.564-1.008-2.404-2.766-2.404-1.667 0-2.778.802-2.92 2.094h1.37c.103-.581.659-.97 1.486-.97.917 0 1.447.453 1.447 1.19v.4h-1.667c-1.848 0-2.83.763-2.83 2.12 0 1.228 1.008 1.939 2.455 1.939 1.073 0 1.745-.466 2.184-1.138 0 .66.31 1.06 1.215 1.06h.737V8.123h-.285zm-1.809-1.499c-.013 1.021-.685 1.706-1.848 1.706-.762 0-1.228-.388-1.228-.944 0-.672.479-.995 1.344-.995h1.732v.233zm7.831-2.985c-.426-.582-1.137-.996-2.145-.996-1.797 0-3.128 1.345-3.128 3.386 0 2.12 1.331 3.387 3.128 3.387 1.047 0 1.732-.492 2.158-1.073l.168.995h1.215V.291h-1.396V3.64zm-1.913 4.6c-1.163 0-1.925-.904-1.925-2.21 0-1.292.762-2.197 1.925-2.197s1.926.905 1.926 2.223c0 1.28-.763 2.184-1.926 2.184zm5.384-6.449c.478 0 .853-.348.853-.84 0-.49-.375-.84-.853-.84s-.853.35-.853.84c0 .492.375.84.853.84zm-.711 7.548h1.396V2.721h-1.396v6.617zm6.253-6.695c-1.072 0-1.706.427-2.12.944l-.154-.866h-1.215v6.617h1.396V6.004c0-1.344.659-2.159 1.77-2.159 1.047 0 1.577.672 1.577 1.926v3.567h1.409V5.655c0-2.21-1.202-3.012-2.663-3.012zm8.985 1.112c-.426-.66-1.137-1.112-2.171-1.112-1.796 0-3.128 1.332-3.128 3.36 0 2.107 1.332 3.36 3.128 3.36 1.034 0 1.719-.426 2.158-1.085v.737c0 1.266-.685 1.848-1.9 1.848-.982 0-1.628-.426-1.796-1.163H63.68c.13 1.486 1.357 2.3 3.115 2.3 2.378 0 3.386-1.137 3.386-2.933V2.72h-1.215l-.155 1.034zm-1.938 4.433c-1.163 0-1.926-.892-1.926-2.184 0-1.28.763-2.184 1.926-2.184 1.163 0 1.925.904 1.925 2.21 0 1.266-.762 2.158-1.925 2.158z" fill="#000"/></svg>