<svg width="378" height="17" viewBox="0 0 378 17" fill="none" xmlns="http://www.w3.org/2000/svg"><path d="M.152 13h2.07V8.428h2.772L7.424 13h2.304L7.064 7.978c1.476-.522 2.448-1.872 2.448-3.564C9.512 1.966 7.748.4 5.12.4H.152V13zM4.958 2.2c1.476 0 2.43.864 2.43 2.214s-.954 2.214-2.43 2.214H2.222V2.2h2.736zm10.145 10.908c2.286 0 3.834-1.386 4.158-3.204h-1.944c-.27 1.026-1.134 1.62-2.322 1.62-1.53 0-2.52-1.026-2.574-2.592v-.126h6.948a5.28 5.28 0 00.054-.738c-.054-2.7-1.836-4.392-4.5-4.392-2.718 0-4.536 1.89-4.536 4.734 0 2.826 1.818 4.698 4.716 4.698zm-2.61-5.724c.144-1.314 1.206-2.142 2.448-2.142 1.35 0 2.304.774 2.466 2.142h-4.914zm12.732 5.724c2.358 0 3.924-1.314 4.284-3.402h-2.052c-.234 1.062-1.026 1.746-2.214 1.746-1.566 0-2.592-1.242-2.592-3.042 0-1.818 1.026-3.078 2.592-3.078 1.206 0 1.98.666 2.232 1.746h2.034c-.378-2.088-1.854-3.402-4.23-3.402-2.79 0-4.626 1.89-4.626 4.734 0 2.88 1.782 4.698 4.572 4.698zm10.614-9.432c-1.44 0-2.322.648-2.898 1.44V.4h-1.944V13h1.944V8.338c0-1.854.936-2.988 2.466-2.988 1.44 0 2.214.936 2.214 2.682V13h1.944V7.87c0-3.078-1.674-4.194-3.726-4.194zm13.918 7.632c-.396 0-.594-.126-.594-.594v-3.69c0-2.178-1.404-3.348-3.852-3.348-2.322 0-3.87 1.116-4.068 2.916h1.908c.144-.81.918-1.35 2.07-1.35 1.278 0 2.016.63 2.016 1.656v.558h-2.322c-2.574 0-3.942 1.062-3.942 2.952 0 1.71 1.404 2.7 3.42 2.7 1.494 0 2.43-.648 3.042-1.584 0 .918.432 1.476 1.692 1.476h1.026v-1.692h-.396zm-2.52-2.088c-.018 1.422-.954 2.376-2.574 2.376-1.062 0-1.71-.54-1.71-1.314 0-.936.666-1.386 1.872-1.386h2.412v.324zm8.637-5.436c-1.512 0-2.25.612-2.718 1.386l-.216-1.386h-1.728V13h1.944V8.374c0-1.422.558-2.772 2.286-2.772h.864V3.784h-.432zm8.23 1.44c-.595-.918-1.585-1.548-3.025-1.548-2.502 0-4.356 1.854-4.356 4.68 0 2.934 1.854 4.68 4.356 4.68 1.44 0 2.394-.594 3.006-1.512v1.026c0 1.764-.954 2.574-2.646 2.574-1.368 0-2.268-.594-2.502-1.62h-1.98c.18 2.07 1.89 3.204 4.338 3.204 3.312 0 4.716-1.584 4.716-4.086V3.784H64.32l-.216 1.44zm-2.7 6.174c-1.62 0-2.683-1.242-2.683-3.042 0-1.782 1.062-3.042 2.682-3.042 1.62 0 2.682 1.26 2.682 3.078 0 1.764-1.062 3.006-2.682 3.006zm10.881 1.71c2.286 0 3.834-1.386 4.158-3.204h-1.944c-.27 1.026-1.134 1.62-2.322 1.62-1.53 0-2.52-1.026-2.574-2.592v-.126h6.948a5.28 5.28 0 00.054-.738c-.054-2.7-1.836-4.392-4.5-4.392-2.718 0-4.536 1.89-4.536 4.734 0 2.826 1.818 4.698 4.716 4.698zm-2.61-5.724c.144-1.314 1.206-2.142 2.448-2.142 1.35 0 2.304.774 2.466 2.142h-4.914zm15.771 5.67l-.36.9c-.288.756-.468.936-1.224.936h-1.368v1.71h2.088c1.35 0 1.746-.666 2.322-2.16L91.08 3.784h-2.07l-2.502 7.002-2.574-7.002h-2.07l3.582 9.27zm10.552.054c2.807 0 4.698-1.89 4.698-4.716 0-2.808-1.89-4.716-4.698-4.716-2.809 0-4.699 1.908-4.699 4.716 0 2.826 1.89 4.716 4.698 4.716zm0-1.656c-1.639 0-2.7-1.278-2.7-3.06s1.061-3.06 2.7-3.06c1.637 0 2.718 1.278 2.718 3.06s-1.08 3.06-2.718 3.06zm12.579-3.06c0 1.908-.9 3.024-2.376 3.024-1.422 0-2.142-.918-2.142-2.718V3.784h-1.944v5.13c0 3.15 1.674 4.194 3.636 4.194 1.422 0 2.268-.576 2.844-1.278l.216 1.17h1.71V3.784h-1.944v4.608zm8.521-4.608c-1.512 0-2.25.612-2.718 1.386l-.216-1.386h-1.728V13h1.944V8.374c0-1.422.558-2.772 2.286-2.772h.864V3.784h-.432zm11.169-.108c-1.44 0-2.394.666-3.006 1.476l-.234-1.368h-1.692V16.6h1.944v-4.896c.576.828 1.566 1.404 2.988 1.404 2.52 0 4.356-1.872 4.356-4.716 0-2.952-1.836-4.716-4.356-4.716zm-.324 7.794c-1.62 0-2.682-1.278-2.682-3.114 0-1.782 1.062-3.024 2.682-3.024 1.62 0 2.7 1.242 2.7 3.06 0 1.8-1.08 3.078-2.7 3.078zm10.594 1.638c2.808 0 4.698-1.89 4.698-4.716 0-2.808-1.89-4.716-4.698-4.716-2.808 0-4.698 1.908-4.698 4.716 0 2.826 1.89 4.716 4.698 4.716zm0-1.656c-1.638 0-2.7-1.278-2.7-3.06s1.062-3.06 2.7-3.06c1.638 0 2.718 1.278 2.718 3.06s-1.08 3.06-2.718 3.06zm10.923-7.668c-1.512 0-2.25.612-2.718 1.386l-.216-1.386h-1.728V13h1.944V8.374c0-1.422.558-2.772 2.286-2.772h.864V3.784h-.432zm2.631 6.714c0 1.674.756 2.502 2.52 2.502h1.8v-1.71h-1.368c-.738 0-.99-.27-.99-.99V5.494h2.25v-1.71h-2.25V1.21h-1.962v2.574h-1.602v1.71h1.602v5.004zm4.814-5.004h1.602V13h1.962V5.494h2.466v-1.71h-2.502V3.01c0-.63.27-.9.9-.9h1.602V.4h-1.854c-1.782 0-2.574.864-2.574 2.52v.864h-1.602v1.71zm11.005 7.614c2.808 0 4.698-1.89 4.698-4.716 0-2.808-1.89-4.716-4.698-4.716-2.808 0-4.698 1.908-4.698 4.716 0 2.826 1.89 4.716 4.698 4.716zm0-1.656c-1.638 0-2.7-1.278-2.7-3.06s1.062-3.06 2.7-3.06c1.638 0 2.718 1.278 2.718 3.06s-1.08 3.06-2.718 3.06zM174.171 13h1.944V.4h-1.944V13zm4.839-10.512c.666 0 1.188-.486 1.188-1.17 0-.684-.522-1.17-1.188-1.17-.666 0-1.188.486-1.188 1.17 0 .684.522 1.17 1.188 1.17zM178.02 13h1.944V3.784h-1.944V13zm8.206.108c2.808 0 4.698-1.89 4.698-4.716 0-2.808-1.89-4.716-4.698-4.716-2.808 0-4.698 1.908-4.698 4.716 0 2.826 1.89 4.716 4.698 4.716zm0-1.656c-1.638 0-2.7-1.278-2.7-3.06s1.062-3.06 2.7-3.06c1.638 0 2.718 1.278 2.718 3.06s-1.08 3.06-2.718 3.06zM199.217 13h2.106l2.016-6.264L205.283 13h2.088l3.06-9.216h-1.98l-2.178 7.056-2.016-7.056h-1.782l-2.106 7.056-2.106-7.056h-2.052L199.217 13zm13.227-10.512c.666 0 1.188-.486 1.188-1.17 0-.684-.522-1.17-1.188-1.17-.666 0-1.188.486-1.188 1.17 0 .684.522 1.17 1.188 1.17zM211.454 13h1.944V3.784h-1.944V13zm4.516-2.502c0 1.674.756 2.502 2.52 2.502h1.8v-1.71h-1.368c-.738 0-.99-.27-.99-.99V5.494h2.25v-1.71h-2.25V1.21h-1.962v2.574h-1.602v1.71h1.602v5.004zm10.398-6.822c-1.44 0-2.322.648-2.898 1.44V.4h-1.944V13h1.944V8.338c0-1.854.936-2.988 2.466-2.988 1.44 0 2.214.936 2.214 2.682V13h1.944V7.87c0-3.078-1.674-4.194-3.726-4.194zm14.474 9.432c2.286 0 3.834-1.386 4.158-3.204h-1.944c-.27 1.026-1.134 1.62-2.322 1.62-1.53 0-2.52-1.026-2.574-2.592v-.126h6.948a5.28 5.28 0 00.054-.738c-.054-2.7-1.836-4.392-4.5-4.392-2.718 0-4.536 1.89-4.536 4.734 0 2.826 1.818 4.698 4.716 4.698zm-2.61-5.724c.144-1.314 1.206-2.142 2.448-2.142 1.35 0 2.304.774 2.466 2.142h-4.914zm16.925 3.924c-.396 0-.594-.126-.594-.594v-3.69c0-2.178-1.404-3.348-3.852-3.348-2.322 0-3.87 1.116-4.068 2.916h1.908c.144-.81.918-1.35 2.07-1.35 1.278 0 2.016.63 2.016 1.656v.558h-2.322c-2.574 0-3.942 1.062-3.942 2.952 0 1.71 1.404 2.7 3.42 2.7 1.494 0 2.43-.648 3.042-1.584 0 .918.432 1.476 1.692 1.476h1.026v-1.692h-.396zm-2.52-2.088c-.018 1.422-.954 2.376-2.574 2.376-1.062 0-1.71-.54-1.71-1.314 0-.936.666-1.386 1.872-1.386h2.412v.324zm8.637-5.436c-1.512 0-2.25.612-2.718 1.386l-.216-1.386h-1.728V13h1.944V8.374c0-1.422.558-2.772 2.286-2.772h.864V3.784h-.432zm6.491-.108c-1.494 0-2.376.594-2.952 1.314l-.216-1.206h-1.692V13h1.944V8.356c0-1.872.918-3.006 2.466-3.006 1.458 0 2.196.936 2.196 2.682V13h1.962V7.87c0-3.078-1.674-4.194-3.708-4.194zm6.466-1.188c.666 0 1.188-.486 1.188-1.17 0-.684-.522-1.17-1.188-1.17-.666 0-1.188.486-1.188 1.17 0 .684.522 1.17 1.188 1.17zM273.241 13h1.944V3.784h-1.944V13zm8.71-9.324c-1.494 0-2.376.594-2.952 1.314l-.216-1.206h-1.692V13h1.944V8.356c0-1.872.918-3.006 2.466-3.006 1.458 0 2.196.936 2.196 2.682V13h1.962V7.87c0-3.078-1.674-4.194-3.708-4.194zm12.514 1.548c-.594-.918-1.584-1.548-3.024-1.548-2.502 0-4.356 1.854-4.356 4.68 0 2.934 1.854 4.68 4.356 4.68 1.44 0 2.394-.594 3.006-1.512v1.026c0 1.764-.954 2.574-2.646 2.574-1.368 0-2.268-.594-2.502-1.62h-1.98c.18 2.07 1.89 3.204 4.338 3.204 3.312 0 4.716-1.584 4.716-4.086V3.784h-1.692l-.216 1.44zm-2.7 6.174c-1.62 0-2.682-1.242-2.682-3.042 0-1.782 1.062-3.042 2.682-3.042 1.62 0 2.682 1.26 2.682 3.078 0 1.764-1.062 3.006-2.682 3.006zm6.111-1.44c.054 1.998 1.746 3.15 4.212 3.15 2.232 0 3.906-1.116 3.906-2.88 0-2.052-1.71-2.484-3.816-2.736-1.332-.144-2.214-.252-2.214-1.116 0-.738.756-1.206 1.908-1.206s1.944.594 2.052 1.44h1.908c-.126-1.89-1.728-2.934-3.996-2.934-2.214-.018-3.78 1.116-3.78 2.862 0 1.908 1.656 2.358 3.762 2.61 1.422.18 2.268.252 2.268 1.242 0 .738-.792 1.206-1.998 1.206-1.404 0-2.232-.684-2.304-1.638h-1.908zM314.59 13h2.376l3.402-9.216h-2.052l-2.502 7.128-2.538-7.128h-2.088L314.59 13zm10.697.108c2.808 0 4.698-1.89 4.698-4.716 0-2.808-1.89-4.716-4.698-4.716-2.808 0-4.698 1.908-4.698 4.716 0 2.826 1.89 4.716 4.698 4.716zm0-1.656c-1.638 0-2.7-1.278-2.7-3.06s1.062-3.06 2.7-3.06c1.638 0 2.718 1.278 2.718 3.06s-1.08 3.06-2.718 3.06zM331.548 13h1.944V.4h-1.944V13zm12.273-1.692c-.396 0-.594-.126-.594-.594v-3.69c0-2.178-1.404-3.348-3.852-3.348-2.322 0-3.87 1.116-4.068 2.916h1.908c.144-.81.918-1.35 2.07-1.35 1.278 0 2.016.63 2.016 1.656v.558h-2.322c-2.574 0-3.942 1.062-3.942 2.952 0 1.71 1.404 2.7 3.42 2.7 1.494 0 2.43-.648 3.042-1.584 0 .918.432 1.476 1.692 1.476h1.026v-1.692h-.396zm-2.52-2.088c-.018 1.422-.954 2.376-2.574 2.376-1.062 0-1.71-.54-1.71-1.314 0-.936.666-1.386 1.872-1.386h2.412v.324zm4.641 1.278c0 1.674.756 2.502 2.52 2.502h1.8v-1.71h-1.368c-.738 0-.99-.27-.99-.99V5.494h2.25v-1.71h-2.25V1.21h-1.962v2.574h-1.602v1.71h1.602v5.004zm6.547-8.01c.666 0 1.188-.486 1.188-1.17 0-.684-.522-1.17-1.188-1.17-.666 0-1.188.486-1.188 1.17 0 .684.522 1.17 1.188 1.17zM351.499 13h1.944V3.784h-1.944V13zm3.85 0h1.944V.4h-1.944V13zm4.839-10.512c.666 0 1.188-.486 1.188-1.17 0-.684-.522-1.17-1.188-1.17-.666 0-1.188.486-1.188 1.17 0 .684.522 1.17 1.188 1.17zM359.198 13h1.944V3.784h-1.944V13zm4.516-2.502c0 1.674.756 2.502 2.52 2.502h1.8v-1.71h-1.368c-.738 0-.99-.27-.99-.99V5.494h2.25v-1.71h-2.25V1.21h-1.962v2.574h-1.602v1.71h1.602v5.004zm8.22 2.556l-.36.9c-.288.756-.468.936-1.224.936h-1.368v1.71h2.088c1.35 0 1.746-.666 2.322-2.16l4.176-10.656h-2.07l-2.502 7.002-2.574-7.002h-2.07l3.582 9.27z" fill="#000"/></svg>