<svg width="242" height="14" viewBox="0 0 242 14" fill="none" xmlns="http://www.w3.org/2000/svg"><path d="M.612 9.09c.068 2.38 1.853 4.012 4.811 4.012 2.618 0 4.403-1.479 4.403-3.621.017-2.346-1.904-2.975-3.876-3.332-1.87-.323-3.094-.578-3.094-1.802 0-1.122.935-1.7 2.278-1.7 1.445 0 2.397.816 2.55 2.023h1.955C9.554 2.477 7.854.998 5.134.998 2.601.998.901 2.409.901 4.483c0 2.363 1.87 2.992 3.842 3.332 1.887.34 3.128.612 3.128 1.87 0 1.139-1.02 1.768-2.431 1.768-1.666 0-2.754-.935-2.856-2.329L.612 9.09zm20.761-4.896c-1.428 0-2.414.629-2.975 1.581-.527-1.122-1.547-1.581-2.686-1.581-1.309.017-2.057.595-2.55 1.241l-.204-1.139H11.36V13h1.836V8.342c0-1.547.782-2.567 2.04-2.567 1.207 0 1.836.799 1.836 2.329V13h1.853V8.291c0-1.564.799-2.516 2.057-2.516 1.19 0 1.819.799 1.819 2.329V13h1.836V7.985c0-2.754-1.462-3.791-3.264-3.791zm12.884 7.208c-.374 0-.56-.119-.56-.561V7.356c0-2.057-1.327-3.162-3.639-3.162-2.193 0-3.655 1.054-3.842 2.754h1.802c.136-.765.867-1.275 1.955-1.275 1.207 0 1.904.595 1.904 1.564v.527h-2.193c-2.43 0-3.723 1.003-3.723 2.788 0 1.615 1.326 2.55 3.23 2.55 1.411 0 2.295-.612 2.873-1.496 0 .867.408 1.394 1.598 1.394h.97v-1.598h-.375zm-2.38-1.972c-.017 1.343-.9 2.244-2.43 2.244-1.004 0-1.616-.51-1.616-1.241 0-.884.63-1.309 1.768-1.309h2.278v.306zm8.158-5.134c-1.428 0-2.125.578-2.567 1.309l-.205-1.309h-1.631V13h1.836V8.631c0-1.343.526-2.618 2.158-2.618h.817V4.296h-.408zm2.484 6.341c0 1.581.714 2.363 2.38 2.363h1.7v-1.615h-1.292c-.697 0-.935-.255-.935-.935V5.911h2.125V4.296h-2.125V1.865H42.52v2.431h-1.513v1.615h1.513v4.726zm10.227 0c0 1.581.714 2.363 2.38 2.363h1.7v-1.615h-1.292c-.697 0-.935-.255-.935-.935V5.911h2.125V4.296h-2.125V1.865h-1.853v2.431h-1.513v1.615h1.513v4.726zm9.65-6.341c-1.427 0-2.124.578-2.566 1.309l-.204-1.309h-1.632V13h1.836V8.631c0-1.343.527-2.618 2.159-2.618h.816V4.296h-.408zm9.231 7.106c-.373 0-.56-.119-.56-.561V7.356c0-2.057-1.326-3.162-3.638-3.162-2.194 0-3.656 1.054-3.843 2.754h1.802c.136-.765.867-1.275 1.956-1.275 1.207 0 1.904.595 1.904 1.564v.527h-2.194c-2.43 0-3.723 1.003-3.723 2.788 0 1.615 1.326 2.55 3.23 2.55 1.411 0 2.295-.612 2.873-1.496 0 .867.409 1.394 1.599 1.394H72v-1.598h-.374zm-2.38-1.972c-.016 1.343-.9 2.244-2.43 2.244-1.003 0-1.615-.51-1.615-1.241 0-.884.629-1.309 1.767-1.309h2.279v.306zm10.301-3.927c-.56-.765-1.496-1.309-2.822-1.309-2.363 0-4.114 1.768-4.114 4.454 0 2.788 1.751 4.454 4.114 4.454 1.377 0 2.278-.646 2.84-1.411l.22 1.309h1.598V1.1h-1.836v4.403zm-2.516 6.052c-1.53 0-2.533-1.19-2.533-2.907 0-1.7 1.003-2.89 2.533-2.89s2.533 1.19 2.533 2.924c0 1.683-1.003 2.873-2.533 2.873zm10.277 1.547c2.16 0 3.621-1.309 3.927-3.026H89.4c-.255.969-1.07 1.53-2.193 1.53-1.445 0-2.38-.969-2.43-2.448v-.119h6.561c.034-.238.051-.476.051-.697-.05-2.55-1.734-4.148-4.25-4.148-2.567 0-4.284 1.785-4.284 4.471 0 2.669 1.717 4.437 4.454 4.437zm-2.465-5.406c.136-1.241 1.14-2.023 2.312-2.023 1.275 0 2.176.731 2.33 2.023h-4.642zm12.433-3.4c-1.428 0-2.125.578-2.567 1.309l-.204-1.309h-1.632V13h1.836V8.631c0-1.343.527-2.618 2.159-2.618h.816V4.296h-.408zm1.017 5.831c.05 1.887 1.649 2.975 3.978 2.975 2.108 0 3.689-1.054 3.689-2.72 0-1.938-1.615-2.346-3.604-2.584-1.258-.136-2.091-.238-2.091-1.054 0-.697.714-1.139 1.802-1.139s1.836.561 1.938 1.36h1.802c-.119-1.785-1.632-2.771-3.774-2.771-2.091-.017-3.57 1.054-3.57 2.703 0 1.802 1.564 2.227 3.553 2.465 1.343.17 2.142.238 2.142 1.173 0 .697-.748 1.139-1.887 1.139-1.326 0-2.108-.646-2.176-1.547h-1.802zm18.029-5.933c-1.411 0-2.244.561-2.788 1.241l-.204-1.139h-1.598V13h1.836V8.614c0-1.768.867-2.839 2.329-2.839 1.377 0 2.074.884 2.074 2.533V13h1.853V8.155c0-2.907-1.581-3.961-3.502-3.961zm9.236 8.908c2.159 0 3.621-1.309 3.927-3.026h-1.836c-.255.969-1.071 1.53-2.193 1.53-1.445 0-2.38-.969-2.431-2.448v-.119h6.562c.034-.238.051-.476.051-.697-.051-2.55-1.734-4.148-4.25-4.148-2.567 0-4.284 1.785-4.284 4.471 0 2.669 1.717 4.437 4.454 4.437zm-2.465-5.406c.136-1.241 1.139-2.023 2.312-2.023 1.275 0 2.176.731 2.329 2.023h-4.641zm12.161 5.406c2.159 0 3.621-1.309 3.927-3.026h-1.836c-.255.969-1.071 1.53-2.193 1.53-1.445 0-2.38-.969-2.431-2.448v-.119h6.562c.034-.238.051-.476.051-.697-.051-2.55-1.734-4.148-4.25-4.148-2.567 0-4.284 1.785-4.284 4.471 0 2.669 1.717 4.437 4.454 4.437zm-2.465-5.406c.136-1.241 1.139-2.023 2.312-2.023 1.275 0 2.176.731 2.329 2.023h-4.641zm14.642-2.193c-.561-.765-1.496-1.309-2.822-1.309-2.363 0-4.114 1.768-4.114 4.454 0 2.788 1.751 4.454 4.114 4.454 1.377 0 2.278-.646 2.839-1.411L147.67 13h1.598V1.1h-1.836v4.403zm-2.516 6.052c-1.53 0-2.533-1.19-2.533-2.907 0-1.7 1.003-2.89 2.533-2.89s2.533 1.19 2.533 2.924c0 1.683-1.003 2.873-2.533 2.873zm10.122-1.428c.051 1.887 1.649 2.975 3.978 2.975 2.108 0 3.689-1.054 3.689-2.72 0-1.938-1.615-2.346-3.604-2.584-1.258-.136-2.091-.238-2.091-1.054 0-.697.714-1.139 1.802-1.139s1.836.561 1.938 1.36h1.802c-.119-1.785-1.632-2.771-3.774-2.771-2.091-.017-3.57 1.054-3.57 2.703 0 1.802 1.564 2.227 3.553 2.465 1.343.17 2.142.238 2.142 1.173 0 .697-.748 1.139-1.887 1.139-1.326 0-2.108-.646-2.176-1.547h-1.802zm19.103-5.933c-1.428 0-2.414.629-2.975 1.581-.527-1.122-1.547-1.581-2.686-1.581-1.309.017-2.057.595-2.55 1.241l-.204-1.139h-1.598V13h1.836V8.342c0-1.547.782-2.567 2.04-2.567 1.207 0 1.836.799 1.836 2.329V13h1.853V8.291c0-1.564.799-2.516 2.057-2.516 1.19 0 1.819.799 1.819 2.329V13h1.836V7.985c0-2.754-1.462-3.791-3.264-3.791zm12.884 7.208c-.374 0-.561-.119-.561-.561V7.356c0-2.057-1.326-3.162-3.638-3.162-2.193 0-3.655 1.054-3.842 2.754h1.802c.136-.765.867-1.275 1.955-1.275 1.207 0 1.904.595 1.904 1.564v.527h-2.193c-2.431 0-3.723 1.003-3.723 2.788 0 1.615 1.326 2.55 3.23 2.55 1.411 0 2.295-.612 2.873-1.496 0 .867.408 1.394 1.598 1.394h.969v-1.598h-.374zm-2.38-1.972c-.017 1.343-.901 2.244-2.431 2.244-1.003 0-1.615-.51-1.615-1.241 0-.884.629-1.309 1.768-1.309h2.278v.306zm8.157-5.134c-1.428 0-2.125.578-2.567 1.309l-.204-1.309h-1.632V13h1.836V8.631c0-1.343.527-2.618 2.159-2.618h.816V4.296h-.408zm2.485 6.341c0 1.581.714 2.363 2.38 2.363h1.7v-1.615h-1.292c-.697 0-.935-.255-.935-.935V5.911h2.125V4.296h-2.125V1.865h-1.853v2.431h-1.513v1.615h1.513v4.726zm10.226 0c0 1.581.714 2.363 2.38 2.363h1.7v-1.615h-1.292c-.697 0-.935-.255-.935-.935V5.911h2.125V4.296h-2.125V1.865h-1.853v2.431H204v1.615h1.513v4.726zm9.197 2.465c2.159 0 3.621-1.309 3.927-3.026h-1.836c-.255.969-1.071 1.53-2.193 1.53-1.445 0-2.38-.969-2.431-2.448v-.119h6.562c.034-.238.051-.476.051-.697-.051-2.55-1.734-4.148-4.25-4.148-2.567 0-4.284 1.785-4.284 4.471 0 2.669 1.717 4.437 4.454 4.437zm-2.465-5.406c.136-1.241 1.139-2.023 2.312-2.023 1.275 0 2.176.731 2.329 2.023h-4.641zm12.024 5.406c2.227 0 3.706-1.241 4.046-3.213h-1.938c-.221 1.003-.969 1.649-2.091 1.649-1.479 0-2.448-1.173-2.448-2.873 0-1.717.969-2.907 2.448-2.907 1.139 0 1.87.629 2.108 1.649h1.921c-.357-1.972-1.751-3.213-3.995-3.213-2.635 0-4.369 1.785-4.369 4.471 0 2.72 1.683 4.437 4.318 4.437zm10.024-8.908c-1.36 0-2.193.612-2.737 1.36V1.1h-1.836V13h1.836V8.597c0-1.751.884-2.822 2.329-2.822 1.36 0 2.091.884 2.091 2.533V13h1.836V8.155c0-2.907-1.581-3.961-3.519-3.961zm5.019 7.752c0 .68.493 1.156 1.173 1.156s1.19-.476 1.19-1.156c0-.68-.51-1.156-1.19-1.156-.68 0-1.173.476-1.173 1.156z" fill="#000"/></svg>