<svg width="181" height="71" viewBox="0 0 181 71" fill="none" xmlns="http://www.w3.org/2000/svg"><path d="M11.144 24.198c5.379 0 9.306-3.168 10.032-8.052h-3.927c-.726 2.937-2.937 4.719-6.138 4.719-4.356 0-6.996-3.498-6.996-8.415 0-4.95 2.706-8.415 7.095-8.415 3.135 0 5.313 1.815 6.072 4.719h3.927C20.45 3.87 16.655.702 11.375.702 4.544.702.221 5.421.221 12.45c0 7.095 4.191 11.748 10.923 11.748zm20.794 0c5.148 0 8.613-3.465 8.613-8.646 0-5.148-3.465-8.646-8.613-8.646s-8.613 3.498-8.613 8.646c0 5.181 3.465 8.646 8.613 8.646zm0-3.036c-3.003 0-4.95-2.343-4.95-5.61 0-3.267 1.947-5.61 4.95-5.61s4.983 2.343 4.983 5.61c0 3.267-1.98 5.61-4.983 5.61zM62.854 6.906c-2.772 0-4.686 1.221-5.775 3.069-1.023-2.178-3.003-3.069-5.214-3.069-2.541.033-3.993 1.155-4.95 2.409l-.396-2.211h-3.102V24h3.564v-9.042c0-3.003 1.518-4.983 3.96-4.983 2.343 0 3.564 1.551 3.564 4.521V24h3.597v-9.141c0-3.036 1.551-4.884 3.993-4.884 2.31 0 3.531 1.551 3.531 4.521V24h3.564v-9.735c0-5.346-2.838-7.359-6.336-7.359zm18.609 0c-2.64 0-4.39 1.221-5.511 2.706l-.43-2.508h-3.101V30.6h3.564v-8.976c1.056 1.518 2.87 2.574 5.478 2.574 4.62 0 7.986-3.432 7.986-8.646 0-5.412-3.366-8.646-7.986-8.646zm-.594 14.289c-2.97 0-4.917-2.343-4.917-5.709 0-3.267 1.947-5.544 4.917-5.544 2.97 0 4.95 2.277 4.95 5.61 0 3.3-1.98 5.643-4.95 5.643zm19.455 3.003c4.191 0 7.029-2.541 7.623-5.874h-3.564c-.495 1.881-2.079 2.97-4.257 2.97-2.805 0-4.62-1.881-4.72-4.752v-.231h12.739c.066-.462.099-.924.099-1.353-.099-4.95-3.366-8.052-8.25-8.052-4.983 0-8.316 3.465-8.316 8.679 0 5.181 3.333 8.613 8.646 8.613zm-4.785-10.494c.264-2.409 2.21-3.927 4.488-3.927 2.475 0 4.224 1.419 4.521 3.927h-9.01zm16.678 5.709c0 3.069 1.386 4.587 4.62 4.587h3.3v-3.135h-2.508c-1.353 0-1.815-.495-1.815-1.815v-8.811h4.125V7.104h-4.125V2.385h-3.597v4.719h-2.937v3.135h2.937v9.174zm12.002-14.685c1.221 0 2.178-.891 2.178-2.145S125.44.438 124.219.438s-2.178.891-2.178 2.145.957 2.145 2.178 2.145zM122.404 24h3.564V7.104h-3.564V24zm8.279-4.587c0 3.069 1.386 4.587 4.62 4.587h3.3v-3.135h-2.508c-1.353 0-1.815-.495-1.815-1.815v-8.811h4.125V7.104h-4.125V2.385h-3.597v4.719h-2.937v3.135h2.937v9.174zm12.002-14.685c1.221 0 2.178-.891 2.178-2.145s-.957-2.145-2.178-2.145-2.178.891-2.178 2.145.957 2.145 2.178 2.145zM140.87 24h3.564V7.104h-3.564V24zm11.612 0h4.356l6.237-16.896h-3.762l-4.587 13.068-4.653-13.068h-3.828L152.482 24zm19.642.198c4.191 0 7.029-2.541 7.623-5.874h-3.564c-.495 1.881-2.079 2.97-4.257 2.97-2.805 0-4.62-1.881-4.719-4.752v-.231h12.738c.066-.462.099-.924.099-1.353-.099-4.95-3.366-8.052-8.25-8.052-4.983 0-8.316 3.465-8.316 8.679 0 5.181 3.333 8.613 8.646 8.613zm-4.785-10.494c.264-2.409 2.211-3.927 4.488-3.927 2.475 0 4.224 1.419 4.521 3.927h-9.009zM8.735 64.198c5.148 0 8.613-3.465 8.613-8.646 0-5.148-3.465-8.646-8.613-8.646S.122 50.404.122 55.552c0 5.181 3.465 8.646 8.613 8.646zm0-3.036c-3.003 0-4.95-2.343-4.95-5.61 0-3.267 1.947-5.61 4.95-5.61s4.983 2.343 4.983 5.61c0 3.267-1.98 5.61-4.983 5.61zm13.294-16.434c1.22 0 2.178-.891 2.178-2.145s-.957-2.145-2.178-2.145-2.178.891-2.178 2.145.957 2.145 2.178 2.145zM20.214 64h3.564V47.104h-3.564V64zm7.058 0h3.564V40.9h-3.564V64zm14.774-5.577c.1 3.663 3.201 5.775 7.722 5.775 4.092 0 7.161-2.046 7.161-5.28 0-3.762-3.135-4.554-6.996-5.016-2.442-.264-4.059-.462-4.059-2.046 0-1.353 1.386-2.211 3.498-2.211s3.564 1.089 3.762 2.64h3.498c-.23-3.465-3.168-5.379-7.326-5.379-4.059-.033-6.93 2.046-6.93 5.247 0 3.498 3.036 4.323 6.897 4.785 2.607.33 4.158.462 4.158 2.277 0 1.353-1.452 2.211-3.663 2.211-2.574 0-4.092-1.254-4.224-3.003h-3.498zm26.687-11.517c-2.64 0-4.389 1.221-5.51 2.706l-.43-2.508h-3.102V70.6h3.564v-8.976c1.056 1.518 2.871 2.574 5.478 2.574 4.62 0 7.986-3.432 7.986-8.646 0-5.412-3.366-8.646-7.986-8.646zm-.594 14.289c-2.97 0-4.917-2.343-4.917-5.709 0-3.267 1.947-5.544 4.917-5.544 2.97 0 4.95 2.277 4.95 5.61 0 3.3-1.98 5.643-4.95 5.643zm19.983-14.091c-2.772 0-4.125 1.122-4.983 2.541l-.396-2.541h-3.168V64h3.564v-8.481c0-2.607 1.023-5.082 4.191-5.082h1.584v-3.333h-.792zm10.204 17.094c4.191 0 7.029-2.541 7.623-5.874h-3.564c-.495 1.881-2.079 2.97-4.257 2.97-2.805 0-4.62-1.881-4.72-4.752v-.231h12.739c.066-.462.099-.924.099-1.353-.099-4.95-3.366-8.052-8.25-8.052-4.983 0-8.316 3.465-8.316 8.679 0 5.181 3.333 8.613 8.646 8.613zM93.54 53.704c.264-2.409 2.21-3.927 4.488-3.927 2.475 0 4.224 1.419 4.521 3.927h-9.01zm31.03 7.194c-.726 0-1.089-.231-1.089-1.089v-6.765c0-3.993-2.574-6.138-7.062-6.138-4.257 0-7.095 2.046-7.458 5.346h3.498c.264-1.485 1.683-2.475 3.795-2.475 2.343 0 3.696 1.155 3.696 3.036v1.023h-4.257c-4.719 0-7.227 1.947-7.227 5.412 0 3.135 2.574 4.95 6.27 4.95 2.739 0 4.455-1.188 5.577-2.904 0 1.683.792 2.706 3.102 2.706h1.881v-3.102h-.726zm-4.62-3.828c-.033 2.607-1.749 4.356-4.719 4.356-1.947 0-3.135-.99-3.135-2.409 0-1.716 1.221-2.541 3.432-2.541h4.422v.594zm19.995-7.623c-1.089-1.485-2.904-2.541-5.478-2.541-4.587 0-7.986 3.432-7.986 8.646 0 5.412 3.399 8.646 7.986 8.646 2.673 0 4.422-1.254 5.511-2.739l.429 2.541h3.102V40.9h-3.564v8.547zm-4.884 11.748c-2.97 0-4.917-2.31-4.917-5.643 0-3.3 1.947-5.61 4.917-5.61 2.97 0 4.917 2.31 4.917 5.676 0 3.267-1.947 5.577-4.917 5.577zm11.205-2.772c.099 3.663 3.201 5.775 7.722 5.775 4.092 0 7.161-2.046 7.161-5.28 0-3.762-3.135-4.554-6.996-5.016-2.442-.264-4.059-.462-4.059-2.046 0-1.353 1.386-2.211 3.498-2.211s3.564 1.089 3.762 2.64h3.498c-.231-3.465-3.168-5.379-7.326-5.379-4.059-.033-6.93 2.046-6.93 5.247 0 3.498 3.036 4.323 6.897 4.785 2.607.33 4.158.462 4.158 2.277 0 1.353-1.452 2.211-3.663 2.211-2.574 0-4.092-1.254-4.224-3.003h-3.498z" fill="#000"/></svg>