<svg width="62" height="17" viewBox="0 0 62 17" fill="none" xmlns="http://www.w3.org/2000/svg"><rect x=".833" width="61" height="17" rx="8.5" fill="#000"/><path d="M10.633 9.286c.037 1.033.786 1.759 2.065 1.759 1.1 0 1.863-.636 1.863-1.542 0-1.017-.875-1.302-1.728-1.444-.786-.134-1.422-.262-1.422-.89 0-.561.457-.86 1.137-.86.711 0 1.198.396 1.272 1.002h.674c-.06-.943-.778-1.594-1.946-1.594-1.062 0-1.788.599-1.788 1.49 0 1.017.868 1.294 1.714 1.436.793.135 1.436.27 1.436.92 0 .569-.501.89-1.204.89-.801 0-1.347-.463-1.4-1.167h-.673zm4.95.719c0 .673.261.995.994.995h.666v-.561h-.606c-.329 0-.441-.12-.441-.442V7.745h.987v-.561h-.987v-1.07h-.614v1.07h-.688v.561h.688v2.26zm5.508.434c-.172 0-.247-.053-.247-.255V8.516c0-.89-.56-1.377-1.534-1.377-.92 0-1.526.441-1.616 1.19h.614c.075-.39.434-.644.973-.644.598 0 .95.3.95.793v.262h-1.123c-1.002 0-1.534.427-1.534 1.19 0 .696.57 1.115 1.407 1.115.659 0 1.04-.292 1.28-.636.007.374.18.591.688.591h.337v-.561h-.195zm-.86-.995c0 .636-.442 1.077-1.205 1.077-.509 0-.83-.254-.83-.628 0-.434.306-.637.852-.637h1.183v.188zm3.293-2.26c-.681 0-.973.284-1.153.576l-.082-.576h-.531V11h.613V9.054c0-.606.217-1.272 1.018-1.272h.307v-.598h-.172zm1.112 2.82c0 .674.262.996.995.996h.666v-.561h-.606c-.329 0-.441-.12-.441-.442V7.745h.988v-.561h-.988v-1.07h-.614v1.07h-.688v.561h.688v2.26zm4.436 0c0 .674.262.996.995.996h.666v-.561h-.606c-.33 0-.442-.12-.442-.442V7.745h.988v-.561h-.988v-1.07h-.613v1.07h-.689v.561h.689v2.26zm3.959-2.82c-.681 0-.973.284-1.153.576l-.082-.576h-.531V11h.613V9.054c0-.606.217-1.272 1.018-1.272h.307v-.598h-.172zm3.947 3.255c-.172 0-.247-.053-.247-.255V8.516c0-.89-.561-1.377-1.534-1.377-.92 0-1.527.441-1.616 1.19h.613c.075-.39.434-.644.973-.644.599 0 .95.3.95.793v.262h-1.122c-1.003 0-1.534.427-1.534 1.19 0 .696.569 1.115 1.407 1.115.658 0 1.04-.292 1.28-.636.007.374.179.591.688.591h.336v-.561h-.194zm-.86-.995c0 .636-.442 1.077-1.205 1.077-.51 0-.831-.254-.831-.628 0-.434.307-.637.853-.637h1.182v.188zm4.49-1.677c-.232-.366-.666-.628-1.31-.628-1.054 0-1.832.786-1.832 1.953 0 1.242.778 1.953 1.833 1.953.643 0 1.055-.307 1.31-.659l.082.614h.531V5.762h-.614v2.005zm-1.25 2.732c-.755 0-1.264-.577-1.264-1.407 0-.83.509-1.407 1.265-1.407.748 0 1.257.584 1.257 1.422 0 .815-.509 1.392-1.257 1.392zm3.014-3.959a.385.385 0 00.397-.396.385.385 0 00-.397-.397.385.385 0 00-.396.397c0 .232.172.396.396.396zM42.058 11h.614V7.184h-.614V11zm3.325-3.861c-.644 0-1.033.27-1.257.561l-.083-.516h-.53V11h.613V9.092c0-.86.434-1.392 1.152-1.392.666 0 1.033.42 1.033 1.212V11h.613V8.875c0-1.265-.68-1.736-1.541-1.736zm5.332.703c-.24-.426-.666-.703-1.31-.703-1.055 0-1.833.786-1.833 1.953 0 1.242.778 1.953 1.833 1.953.644 0 1.055-.27 1.31-.704v.45c0 .83-.434 1.204-1.235 1.204-.636 0-1.063-.27-1.167-.748h-.629c.097.838.778 1.294 1.751 1.294 1.31 0 1.893-.628 1.893-1.728v-3.63h-.531l-.082.66zm-1.25 2.657c-.756 0-1.265-.577-1.265-1.407 0-.83.51-1.407 1.265-1.407.748 0 1.257.584 1.257 1.422 0 .815-.509 1.392-1.257 1.392z" fill="#fff"/></svg>