<svg width="207" height="44" viewBox="0 0 207 44" fill="none" xmlns="http://www.w3.org/2000/svg"><path d="M.248 1.23v17.178h4.62v-4.89h2.948c5.112 0 7.544-1.893 7.544-6.095s-2.31-6.192-7.593-6.192H.247zm4.62 3.982h2.727c2.064 0 2.949.761 2.949 2.383 0 1.647-.91 2.36-2.949 2.36H4.868V5.211zm27.458.147V1.206h-14.08v17.202h14.228v-4.153h-9.608v-2.58h8.797V7.742h-8.797V5.359h9.46zm2.766-4.128v17.177h4.62v-5.235h2.752l3.342 5.235h5.333l-3.858-5.849c2.383-.81 3.39-2.555 3.39-5.357 0-4.202-2.236-5.971-7.838-5.971h-7.74zm4.62 4.153h3.342c2.04 0 2.801.639 2.801 2.113 0 1.499-.762 2.113-2.801 2.113h-3.342V5.384zm27.302-.025V1.206h-13.54v17.202h4.62v-5.972h8.134V8.504h-8.134V5.36h8.92zM78.301.985c-5.087 0-9.216 3.956-9.216 8.846 0 4.866 4.129 8.822 9.216 8.822 5.086 0 9.215-3.956 9.215-8.822 0-4.89-4.129-8.846-9.215-8.846zm0 4.325c2.58 0 4.398 2.015 4.398 4.521 0 2.482-1.818 4.497-4.398 4.497-2.58 0-4.374-2.015-4.374-4.497 0-2.506 1.793-4.521 4.374-4.521zm12.273-4.08v17.178h4.62v-5.235h2.752l3.342 5.235h5.333l-3.858-5.849c2.383-.81 3.391-2.555 3.391-5.357 0-4.202-2.236-5.971-7.84-5.971h-7.74zm4.62 4.154h3.342c2.04 0 2.801.639 2.801 2.113 0 1.499-.761 2.113-2.801 2.113h-3.342V5.384zm34.699 13.024V1.206h-6.07l-4.472 7.397-4.448-7.397h-6.07v17.202h4.546V7.398l5.185 8.749h1.573l5.185-8.748v11.009h4.571zm22.046 0l-6.856-17.202h-6.07l-6.782 17.202h5.529l1.106-2.998h6.438l1.106 2.998h5.529zm-11.869-6.684l1.99-5.357 1.991 5.357h-3.981zm30.314 6.684V1.206h-4.546v9.608l-6.93-9.608h-4.792v17.202h4.546V8.824l6.93 9.584h4.792zM182.35.985c-5.013 0-9.067 3.956-9.067 8.846 0 4.866 4.054 8.822 9.067 8.822 3.072 0 5.775-1.474 7.397-3.76l-4.006-2.26a4.108 4.108 0 01-3.366 1.695c-2.507 0-4.252-2.015-4.252-4.497 0-2.506 1.745-4.521 4.252-4.521 1.425 0 2.604.663 3.366 1.696l4.006-2.261c-1.622-2.286-4.325-3.76-7.397-3.76zm24.126 4.374V1.206h-14.081v17.202h14.228v-4.153h-9.608v-2.58h8.798V7.742h-8.798V5.359h9.461zM46.794 43.408l-6.856-17.202h-6.07l-6.782 17.202h5.529l1.106-2.998h6.438l1.106 2.998h5.529zm-11.87-6.684l1.991-5.357 1.99 5.357h-3.98zm30.315 6.684V26.206h-4.546v9.608l-6.93-9.608h-4.792v17.202h4.546v-9.584l6.93 9.584h4.792zm21.918 0l-6.855-17.202h-6.07L67.45 43.408h5.529l1.105-2.998h6.439l1.105 2.998h5.53zM75.29 36.724l1.99-5.357 1.99 5.357h-3.98zm18.813 2.53V26.207h-4.62v17.202h13.049v-4.153h-8.429zm17.963-1.744l6.856-11.304h-5.48l-3.661 6.414-3.637-6.414h-5.529l6.831 11.353v5.849h4.62V37.51zm22.656-7.347v-3.957H120.1v3.957h4.988v13.245h4.645V30.163h4.988zm6.944 13.245V26.23h-4.62v17.177h4.62zm12.116-17.423c-5.013 0-9.067 3.956-9.067 8.846 0 4.866 4.054 8.822 9.067 8.822 3.072 0 5.775-1.474 7.397-3.76l-4.006-2.26a4.108 4.108 0 01-3.366 1.695c-2.507 0-4.251-2.015-4.251-4.497 0-2.506 1.744-4.521 4.251-4.521 1.425 0 2.604.663 3.366 1.695l4.006-2.26c-1.622-2.286-4.325-3.76-7.397-3.76zm17.049-.025c-4.006.025-7.151 1.77-7.151 5.628 0 3.366 2.801 4.276 6.709 5.21 2.826.712 3.317.81 3.317 1.793 0 .786-.836 1.13-1.794 1.13-2.187 0-4.669-.638-6.905-1.892l-2.064 3.44c2.359 1.573 5.259 2.409 8.453 2.409 4.423 0 7.2-2.015 7.2-5.677 0-3.514-2.875-4.496-6.905-5.578-2.679-.663-2.998-.884-2.998-1.425 0-.786.762-1.13 1.646-1.13 1.696 0 4.006.59 5.972 1.597l1.941-3.563c-2.015-1.229-4.669-1.942-7.421-1.942z" fill="#09B45B"/></svg>