<svg width="128" height="24" viewBox="0 0 128 24" fill="none" xmlns="http://www.w3.org/2000/svg"><path d="M.64 3.864h6.912V23h3.68V3.864h6.912V.6H.64v3.264zm26.594 2.752c-2.688 0-4 1.088-4.832 2.464l-.384-2.464h-3.072V23h3.456v-8.224c0-2.528.992-4.928 4.064-4.928h1.536V6.616h-.768zm17.375 13.376c-.703 0-1.056-.224-1.056-1.056v-6.56c0-3.872-2.495-5.952-6.847-5.952-4.129 0-6.88 1.984-7.233 5.184h3.392c.256-1.44 1.633-2.4 3.68-2.4 2.273 0 3.584 1.12 3.584 2.944v.992h-4.127c-4.577 0-7.009 1.888-7.009 5.248 0 3.04 2.497 4.8 6.08 4.8 2.657 0 4.32-1.152 5.408-2.816 0 1.632.768 2.624 3.008 2.624h1.825v-3.008h-.705zm-4.48-3.712c-.032 2.528-1.695 4.224-4.575 4.224-1.889 0-3.04-.96-3.04-2.336 0-1.664 1.183-2.464 3.328-2.464h4.288v.576zm19.39-7.392c-1.056-1.44-2.816-2.464-5.312-2.464-4.448 0-7.744 3.328-7.744 8.384 0 5.248 3.296 8.384 7.744 8.384 2.592 0 4.288-1.216 5.344-2.656L59.967 23h3.008V.6h-3.456v8.288zM54.783 20.28c-2.88 0-4.768-2.24-4.768-5.472 0-3.2 1.888-5.44 4.768-5.44s4.768 2.24 4.768 5.504c0 3.168-1.888 5.408-4.768 5.408zm19.345 2.912c4.064 0 6.816-2.464 7.392-5.696h-3.456c-.48 1.824-2.016 2.88-4.128 2.88-2.72 0-4.48-1.824-4.576-4.608v-.224h12.352c.064-.448.096-.896.096-1.312-.096-4.8-3.264-7.808-8-7.808-4.832 0-8.064 3.36-8.064 8.416 0 5.024 3.232 8.352 8.384 8.352zm-4.64-10.176c.256-2.336 2.144-3.808 4.352-3.808 2.4 0 4.096 1.376 4.384 3.808h-8.736zm44.55-1.216c0-6.56-4.448-11.392-10.88-11.392S92.278 5.24 92.278 11.8s4.448 11.392 10.88 11.392 10.88-4.832 10.88-11.392zm-17.984 0c0-4.736 2.848-8.16 7.104-8.16s7.104 3.424 7.104 8.16c0 4.736-2.848 8.16-7.104 8.16s-7.104-3.424-7.104-8.16zm22.621-7.488c1.184 0 2.112-.864 2.112-2.08 0-1.216-.928-2.08-2.112-2.08-1.184 0-2.112.864-2.112 2.08 0 1.216.928 2.08 2.112 2.08zM116.915 23h3.456V6.616h-3.456V23zm6.844 0h3.456V.6h-3.456V23z" fill="#000"/></svg>