<svg width="95" height="36" viewBox="0 0 95 36" fill="none" xmlns="http://www.w3.org/2000/svg"><path d="M18.501 22c.07 0 .126-.056.126-.126v-.798a.125.125 0 00-.126-.126h-4.326l-.042-4.144.042-4.48a.125.125 0 00-.126-.126h-1.078a.125.125 0 00-.126.126l.056 4.55-.056 4.998c0 .07.056.126.126.126h5.53zm6.196-2.506c-.07 0-.14.056-.154.126-.21 1.05-.854 1.61-1.918 1.61-1.414 0-2.128-.924-2.17-2.66h5.32c.07 0 .126-.056.126-.126-.042-2.394-1.274-3.822-3.36-3.822s-3.374 1.54-3.374 3.794c0 2.198 1.204 3.752 3.444 3.752 1.848 0 2.94-1.078 3.164-2.548 0-.07-.042-.126-.112-.126h-.966zm-.168-1.82h-4.032c.182-1.358.868-2.128 2.058-2.128 1.274 0 1.932.98 1.974 2.128zm3.842.644c0-1.568.602-2.674 1.904-2.73h.294c1.176.098 1.834 1.134 1.82 2.87-.014 1.82-.77 2.744-2.016 2.744-1.358 0-2.002-1.162-2.002-2.884zM33.481 22c.07 0 .126-.056.126-.126l-.042-3.542.042-3.416a.125.125 0 00-.126-.126h-1.036a.125.125 0 00-.126.126l.028.966c-.476-.798-1.246-1.232-2.268-1.232-1.904 0-3.01 1.68-3.01 3.766 0 2.086 1.036 3.724 2.982 3.724 1.05 0 1.82-.49 2.31-1.302l-.028 1.036c0 .07.056.126.126.126h1.022zm2.958 0c.07 0 .126-.056.126-.126l-.014-3.78c.154-1.582 1.204-2.324 2.422-2.324.154 0 .294.014.406.028a.105.105 0 00.126-.098v-.784c0-.07-.056-.14-.126-.154a1.94 1.94 0 00-.42-.042c-1.008 0-1.932.49-2.45 1.414l.056-1.218a.125.125 0 00-.126-.126h-1.036a.125.125 0 00-.126.126l.042 3.402-.042 3.556c0 .07.056.126.126.126h1.036zm5.47 0c.07 0 .125-.056.125-.126l-.014-2.954v-1.092c.28-1.428 1.036-2.184 1.988-2.184.896 0 1.526.588 1.526 1.89v1.386l-.028 2.954c0 .07.056.126.126.126h1.036c.07 0 .126-.056.126-.126l-.028-2.954v-1.442c0-1.876-.924-2.856-2.408-2.856-1.148 0-1.96.658-2.408 1.386l.042-1.092a.125.125 0 00-.126-.126h-.994a.125.125 0 00-.126.126l.028 3.794-.042 3.164c0 .07.056.126.126.126h1.05zm10.788-4.172c.28-1.386.951-2.184 1.791-2.184.855 0 1.386.546 1.386 1.89v1.652l-.028 2.688c0 .07.057.126.127.126h1.05c.07 0 .125-.056.125-.126l-.028-2.688V17.52c.309-1.19.953-1.876 1.723-1.876.84 0 1.385.546 1.385 1.89v1.652l-.041 2.688c0 .07.056.126.126.126h1.063c.07 0 .127-.056.127-.126l-.029-2.688v-1.708c0-1.96-.84-2.856-2.253-2.856-1.022 0-1.764.532-2.268 1.512-.323-1.036-1.05-1.512-2.087-1.512-1.078 0-1.777.63-2.225 1.386l.041-1.092a.125.125 0 00-.126-.126h-1.008a.125.125 0 00-.126.126l.029 4.27-.043 2.688c0 .07.056.126.127.126h1.078c.07 0 .126-.056.126-.126l-.042-2.688v-1.358zm16.995.56c0-2.268-1.218-3.766-3.416-3.766-2.184 0-3.416 1.512-3.416 3.794 0 2.268 1.232 3.752 3.416 3.752 2.198 0 3.416-1.512 3.416-3.78zm-5.53.028c0-1.806.686-2.842 2.114-2.856 1.4 0 2.1 1.05 2.1 2.856 0 1.806-.686 2.814-2.1 2.814-1.414 0-2.114-1.008-2.114-2.814zM72.27 22c.07 0 .127-.056.127-.126l-.015-3.78c.154-1.582 1.204-2.324 2.422-2.324.154 0 .294.014.406.028a.105.105 0 00.127-.098v-.784c0-.07-.056-.14-.127-.154a1.94 1.94 0 00-.42-.042c-1.008 0-1.931.49-2.45 1.414l.056-1.218a.125.125 0 00-.126-.126h-1.035a.125.125 0 00-.126.126l.041 3.402-.041 3.556c0 .07.056.126.126.126h1.035zm9.01-2.506c-.07 0-.14.056-.153.126-.21 1.05-.854 1.61-1.918 1.61-1.414 0-2.128-.924-2.17-2.66h5.32c.07 0 .126-.056.126-.126-.042-2.394-1.274-3.822-3.36-3.822s-3.374 1.54-3.374 3.794c0 2.198 1.204 3.752 3.444 3.752 1.848 0 2.94-1.078 3.164-2.548 0-.07-.042-.126-.112-.126h-.966zm-.167-1.82H77.08c.182-1.358.868-2.128 2.058-2.128 1.274 0 1.932.98 1.974 2.128z" fill="#fff"/><rect x=".5" y=".5" width="94" height="35" rx="3.5" stroke="#fff"/></svg>