<svg width="353" height="38" viewBox="0 0 353 38" fill="none" xmlns="http://www.w3.org/2000/svg"><path d="M.02 6.502h11.016V37h5.865V6.502h11.016V1.3H.02v5.202zm42.384 4.386c-4.284 0-6.375 1.734-7.7 3.927l-.613-3.927h-4.896V37h5.508V23.893c0-4.029 1.581-7.854 6.477-7.854h2.448v-5.151h-1.224zm27.692 21.318c-1.122 0-1.683-.357-1.683-1.683V20.068c0-6.171-3.978-9.486-10.914-9.486-6.579 0-10.965 3.162-11.526 8.262h5.406c.408-2.295 2.601-3.825 5.865-3.825 3.621 0 5.712 1.785 5.712 4.692v1.581h-6.579c-7.293 0-11.169 3.009-11.169 8.364 0 4.845 3.978 7.65 9.69 7.65 4.233 0 6.885-1.836 8.62-4.488 0 2.601 1.223 4.182 4.793 4.182h2.907v-4.794h-1.122zm-7.14-5.916c-.05 4.029-2.703 6.732-7.293 6.732-3.009 0-4.845-1.53-4.845-3.723 0-2.652 1.887-3.927 5.304-3.927h6.834v.918zm30.902-11.781c-1.683-2.295-4.488-3.927-8.466-3.927-7.089 0-12.342 5.304-12.342 13.362 0 8.364 5.253 13.362 12.342 13.362 4.131 0 6.834-1.938 8.517-4.233L94.572 37h4.794V1.3h-5.508v13.209zM86.31 32.665c-4.59 0-7.599-3.57-7.599-8.721 0-5.1 3.01-8.67 7.6-8.67s7.598 3.57 7.598 8.772c0 5.049-3.009 8.619-7.599 8.619zm30.832 4.641c6.477 0 10.863-3.927 11.781-9.078h-5.508c-.765 2.907-3.213 4.59-6.579 4.59-4.335 0-7.14-2.907-7.293-7.344v-.357h19.686c.102-.714.153-1.428.153-2.091-.153-7.65-5.202-12.444-12.75-12.444-7.701 0-12.852 5.355-12.852 13.413 0 8.007 5.151 13.311 13.362 13.311zm-7.395-16.218c.408-3.723 3.417-6.069 6.936-6.069 3.825 0 6.528 2.193 6.987 6.069h-13.923zM147.445 37h5.865V21.904h13.974v-5.049H153.31V6.502h16.932V1.3h-22.797V37zm25.347-30.498h11.016V37h5.865V6.502h11.016V1.3h-27.897v5.202zm29.056 18.768c.204 7.14 5.559 12.036 14.433 12.036 7.854 0 13.209-4.437 13.209-10.863.051-7.038-5.712-8.925-11.628-9.996-5.61-.969-9.282-1.734-9.282-5.406 0-3.366 2.805-5.1 6.834-5.1 4.335 0 7.191 2.448 7.65 6.069h5.865C228.674 5.431 223.574.994 215.414.994c-7.599 0-12.699 4.233-12.699 10.455 0 7.089 5.61 8.976 11.526 9.996 5.661 1.02 9.384 1.836 9.384 5.61 0 3.417-3.06 5.304-7.293 5.304-4.998 0-8.262-2.805-8.568-6.987l-5.916-.102zM234.653 37h23.919v-5.202h-18.054V21.445H254.9v-5.049h-14.382V6.502h17.442V1.3h-23.307V37zm46.988-32.079c0 1.887-.765 3.213-2.601 3.213h-5.559v4.845h5.814c.969 0 1.734-.153 2.244-.459V37h5.661V1.3h-5.559v3.621zm10.855 15.045c0 10.761 5.763 17.34 14.076 17.34s14.076-6.579 14.076-17.34v-1.632c0-10.353-5.763-17.34-14.076-17.34s-14.076 6.987-14.076 17.34v1.632zm22.44-.204c0 8.007-3.366 12.597-8.364 12.597-4.998 0-8.364-4.59-8.364-12.597v-1.224c0-7.956 3.366-12.597 8.364-12.597 4.998 0 8.364 4.641 8.364 12.597v1.224zm9.684.204c0 10.761 5.763 17.34 14.076 17.34s14.076-6.579 14.076-17.34v-1.632c0-10.353-5.763-17.34-14.076-17.34s-14.076 6.987-14.076 17.34v1.632zm22.44-.204c0 8.007-3.366 12.597-8.364 12.597-4.998 0-8.364-4.59-8.364-12.597v-1.224c0-7.956 3.366-12.597 8.364-12.597 4.998 0 8.364 4.641 8.364 12.597v1.224z" fill="#000"/></svg>