<svg width="517" height="31" viewBox="0 0 517 31" fill="none" xmlns="http://www.w3.org/2000/svg"><path d="M22.997 13.134c0-7.65-4.522-12.376-11.39-12.376S.25 5.518.25 13.134c0 7.412 4.488 12.308 11.356 12.308 6.834 0 11.39-4.862 11.39-12.308zm-19.482 0c0-6.086 2.992-9.758 8.092-9.758 5.066 0 8.126 3.706 8.126 9.758s-3.06 9.69-8.126 9.69c-5.032 0-8.092-3.672-8.092-9.69zm27.94-3.264h3.808c.17 0 .306-.136.306-.306V7.796a.305.305 0 00-.306-.306h-3.808V6.198c0-2.21.85-3.06 2.244-3.06.578 0 1.122.068 1.598.204a.254.254 0 00.306-.238V1.37c0-.17-.136-.34-.306-.374A11.434 11.434 0 0033.02.758c-2.244 0-4.59 1.36-4.59 5.202v1.53h-2.448a.305.305 0 00-.306.306v1.768c0 .17.136.306.306.306h2.448v7.242l-.102 7.582c0 .17.136.306.306.306h2.618c.17 0 .306-.136.306-.306l-.102-7.582V9.87zm12.35 0h3.808c.17 0 .306-.136.306-.306V7.796a.305.305 0 00-.306-.306h-3.808V6.198c0-2.21.85-3.06 2.244-3.06.578 0 1.122.068 1.598.204a.254.254 0 00.306-.238V1.37c0-.17-.136-.34-.306-.374A11.434 11.434 0 0045.37.758c-2.244 0-4.59 1.36-4.59 5.202v1.53h-2.448a.305.305 0 00-.306.306v1.768c0 .17.136.306.306.306h2.448v7.242l-.102 7.582c0 .17.136.306.306.306h2.618c.17 0 .306-.136.306-.306l-.102-7.582V9.87zm21.573 10.098c0-7.344-11.798-3.57-11.798-7.922 0-1.938 1.53-2.822 3.91-2.822 2.516 0 4.216 1.02 4.42 3.23.034.17.17.306.34.306h2.278c.17 0 .306-.136.306-.306-.272-3.638-3.23-5.338-7.31-5.338-4.148 0-6.902 1.768-6.902 5.134 0 7.072 11.798 3.366 11.798 7.956 0 1.938-1.7 3.026-4.284 3.026-3.128 0-4.794-1.224-4.93-3.978a.305.305 0 00-.306-.306h-2.38a.305.305 0 00-.306.306c.136 4.08 3.162 6.12 7.82 6.12 4.182 0 7.344-1.972 7.344-5.406zm16.262-1.054c-.17 0-.34.136-.374.306-.51 2.55-2.074 3.91-4.658 3.91-3.434 0-5.168-2.244-5.27-6.46h12.92c.17 0 .306-.136.306-.306-.102-5.814-3.094-9.282-8.16-9.282-5.066 0-8.194 3.74-8.194 9.214 0 5.338 2.924 9.112 8.364 9.112 4.488 0 7.14-2.618 7.684-6.188 0-.17-.102-.306-.272-.306H81.64zm-.408-4.42H71.44c.442-3.298 2.108-5.168 4.998-5.168 3.094 0 4.692 2.38 4.794 5.168zm15.088 8.364c0-.136-.136-.272-.306-.204a8.788 8.788 0 01-1.802.204c-1.496 0-2.21-.646-2.21-2.754v-10.2h4.012c.17 0 .306-.136.306-.306V7.796a.305.305 0 00-.306-.306h-4.012l.034-4.08a.305.305 0 00-.306-.306h-2.516a.305.305 0 00-.306.306l.034 4.08h-1.938a.305.305 0 00-.306.306v1.802c0 .17.136.306.306.306h1.938v10.268c0 3.808 2.142 5.134 4.692 5.134.816 0 1.7-.204 2.38-.408.17-.068.306-.238.306-.408v-1.632zM121.02 7.796c.068-.17-.034-.306-.204-.306h-2.584c-.17 0-.34.136-.408.306l-4.182 13.192-4.964-13.226c-.068-.136-.238-.272-.408-.272h-2.89c-.136 0-.238.136-.204.272l6.868 17.272-1.87 5.44c-.068.17.068.306.204.306h2.346c.17 0 .34-.136.408-.306l7.888-22.678zm17.864 8.432c0-5.508-2.958-9.146-8.296-9.146-5.304 0-8.296 3.672-8.296 9.214 0 5.508 2.992 9.112 8.296 9.112 5.338 0 8.296-3.672 8.296-9.18zm-13.43.068c0-4.386 1.666-6.902 5.134-6.936 3.4 0 5.1 2.55 5.1 6.936s-1.666 6.834-5.1 6.834c-3.434 0-5.134-2.448-5.134-6.834zm28.499 5.712l-.068 2.686c0 .17.136.306.306.306h2.414c.17 0 .306-.136.306-.306l-.068-9.214.102-7.684a.305.305 0 00-.306-.306h-2.584a.305.305 0 00-.306.306l.068 7.174v2.652c-.68 3.468-2.55 5.304-4.828 5.304-2.21 0-3.706-1.428-3.706-4.59V14.97l.068-7.174a.305.305 0 00-.306-.306h-2.55a.305.305 0 00-.306.306l.068 7.174v3.468c0 4.59 2.278 6.97 5.882 6.97 2.788 0 4.76-1.598 5.814-3.4zm9.82 2.992c.17 0 .306-.136.306-.306l-.034-9.18c.374-3.842 2.924-5.644 5.882-5.644.374 0 .714.034.986.068a.254.254 0 00.306-.238V7.796c0-.17-.136-.34-.306-.374a4.71 4.71 0 00-1.02-.102c-2.448 0-4.692 1.19-5.95 3.434l.136-2.958a.305.305 0 00-.306-.306h-2.516a.305.305 0 00-.306.306l.102 8.262-.102 8.636c0 .17.136.306.306.306h2.516zm39.126-8.432c.034-.204-.102-.374-.306-.374h-4.42a.47.47 0 00-.442.374c-.646 3.196-2.448 4.964-5.746 4.964-4.046 0-6.358-3.06-6.358-8.364s2.244-8.5 6.392-8.5c3.06 0 4.93 1.598 5.644 4.42a.438.438 0 00.442.374h4.318c.204 0 .34-.17.306-.374-1.394-6.29-5.542-8.398-10.642-8.398-7.174 0-11.798 4.93-11.798 12.512 0 7.242 4.522 12.308 11.832 12.308 5.576 0 9.452-2.482 10.778-8.942zm26.495-3.4c0-7.684-4.794-12.478-12.036-12.478-7.31 0-12.002 4.896-12.002 12.478 0 7.276 4.726 12.342 12.002 12.342 7.276 0 12.036-5.066 12.036-12.342zm-18.7 0c0-5.304 2.312-8.5 6.664-8.5s6.698 3.298 6.698 8.5-2.38 8.364-6.664 8.364-6.698-3.196-6.698-8.364zM248.338 25c.204 0 .374-.17.374-.374v-3.094a.377.377 0 00-.374-.374h-11.356v-.408c0-4.556 11.73-4.046 11.73-12.852-.136-4.454-2.822-7.14-8.126-7.14-5.474.034-8.262 2.992-8.296 8.126 0 .204.17.374.374.374h3.978c.204 0 .374-.17.374-.374.102-2.856 1.462-4.386 3.57-4.42 2.21-.034 3.434 1.326 3.332 3.604 0 4.998-11.764 4.114-11.764 13.6v2.958c0 .204.17.374.374.374h15.81zm23.824-5.916a.438.438 0 00-.442.374c-.476 1.836-1.7 2.584-3.4 2.584-2.448 0-3.74-1.462-3.944-4.76h12.444c.204 0 .374-.17.374-.374-.136-6.086-3.298-9.86-9.044-9.86-5.576 0-8.908 3.672-8.908 9.248 0 5.304 3.162 9.146 9.01 9.146 4.862 0 7.922-2.788 8.398-5.984.034-.204-.136-.374-.34-.374h-4.148zm-.476-5.032h-7.174c.408-2.414 1.632-3.638 3.672-3.638 2.244 0 3.298 1.768 3.502 3.638zm13.516 2.21c0-3.57 1.666-5.44 3.094-5.44s2.278 1.02 2.278 3.128v4.76l-.136 5.916c0 .204.17.374.374.374h4.488c.204 0 .374-.17.374-.374l-.136-5.916v-2.448c0-3.57 1.7-5.44 3.094-5.44s2.278 1.02 2.278 3.128v4.76l-.136 5.916c0 .204.17.374.374.374h4.488c.204 0 .374-.17.374-.374l-.102-5.916v-4.828c0-4.658-2.04-6.8-5.576-6.8-2.074 0-3.842.646-5.338 3.298-.816-2.244-2.55-3.298-4.998-3.298-2.244 0-3.808.918-5.032 2.618l.068-1.836c.034-.204-.136-.374-.34-.374h-4.216a.377.377 0 00-.374.374l.068 10.846-.136 5.916c0 .204.17.374.374.374h4.556c.204 0 .374-.17.374-.374l-.136-5.916v-2.448zm28.98-10.472c.204 0 .374-.17.374-.374V1.574a.377.377 0 00-.374-.374h-4.42a.377.377 0 00-.374.374v3.842c0 .204.17.374.374.374h4.42zm.034 19.21c.204 0 .374-.17.374-.374l-.136-8.364.136-8.398a.377.377 0 00-.374-.374h-4.488a.377.377 0 00-.374.374l.136 8.398-.136 8.364c0 .204.17.374.374.374h4.488zm20.153-5.338c0-7.446-11.458-4.046-11.458-7.378 0-1.496 1.054-2.108 2.72-2.108 2.04 0 2.992.884 3.264 2.346.068.238.238.374.476.374h3.978c.204 0 .374-.17.34-.374-.34-3.638-3.434-5.44-7.99-5.44-4.726 0-7.65 1.938-7.65 5.576 0 7.344 11.458 4.114 11.458 7.446 0 1.36-1.088 2.142-3.094 2.142-2.38 0-3.638-.85-3.808-2.754a.377.377 0 00-.374-.374h-4.216a.377.377 0 00-.374.374c.204 3.876 3.638 5.916 8.602 5.916 4.658 0 8.126-2.074 8.126-5.746zm19.257 0c0-7.446-11.458-4.046-11.458-7.378 0-1.496 1.054-2.108 2.72-2.108 2.04 0 2.992.884 3.264 2.346.068.238.238.374.476.374h3.978c.204 0 .374-.17.34-.374-.34-3.638-3.434-5.44-7.99-5.44-4.726 0-7.65 1.938-7.65 5.576 0 7.344 11.458 4.114 11.458 7.446 0 1.36-1.088 2.142-3.094 2.142-2.38 0-3.638-.85-3.808-2.754a.377.377 0 00-.374-.374h-4.216a.377.377 0 00-.374.374c.204 3.876 3.638 5.916 8.602 5.916 4.658 0 8.126-2.074 8.126-5.746zm7.9-13.872c.204 0 .374-.17.374-.374V1.574a.377.377 0 00-.374-.374h-4.42a.377.377 0 00-.374.374v3.842c0 .204.17.374.374.374h4.42zM361.56 25c.204 0 .374-.17.374-.374l-.136-8.364.136-8.398a.377.377 0 00-.374-.374h-4.488a.377.377 0 00-.374.374l.136 8.398-.136 8.364c0 .204.17.374.374.374h4.488zm21.411-8.806c0-5.576-3.23-9.146-8.942-9.146s-9.01 3.672-9.01 9.248c0 5.576 3.298 9.146 9.01 9.146s8.942-3.672 8.942-9.248zm-12.75.136c0-3.944 1.19-5.848 3.774-5.882 2.516 0 3.74 1.904 3.74 5.848 0 4.012-1.19 5.746-3.706 5.746-2.55 0-3.808-1.768-3.808-5.712zM390.807 25c.204 0 .374-.17.374-.374l-.068-7.072v-1.292c0-3.74 1.972-5.44 3.808-5.44 1.53 0 2.686 1.224 2.686 3.128v3.604l-.102 7.072c0 .204.17.374.374.374h4.42c.204 0 .374-.17.374-.374l-.102-7.072v-3.672c0-4.284-2.38-6.8-6.086-6.8-2.448 0-4.454 1.088-5.644 2.618l.068-1.836c.034-.204-.136-.374-.34-.374h-4.182a.377.377 0 00-.374.374l.068 8.738-.136 8.024c0 .204.17.374.374.374h4.488zm31.411-5.338c0-7.446-11.458-4.046-11.458-7.378 0-1.496 1.054-2.108 2.72-2.108 2.04 0 2.992.884 3.264 2.346.068.238.238.374.476.374h3.978c.204 0 .374-.17.34-.374-.34-3.638-3.434-5.44-7.99-5.44-4.726 0-7.65 1.938-7.65 5.576 0 7.344 11.458 4.114 11.458 7.446 0 1.36-1.088 2.142-3.094 2.142-2.38 0-3.638-.85-3.808-2.754a.377.377 0 00-.374-.374h-4.216a.377.377 0 00-.374.374c.204 3.876 3.638 5.916 8.602 5.916 4.658 0 8.126-2.074 8.126-5.746zm19.287 3.196c0-.136-.136-.272-.306-.204a8.788 8.788 0 01-1.802.204c-1.496 0-2.21-.646-2.21-2.754v-10.2h4.012c.17 0 .306-.136.306-.306V7.796a.305.305 0 00-.306-.306h-4.012l.034-4.08a.305.305 0 00-.306-.306h-2.516a.305.305 0 00-.306.306l.034 4.08h-1.938a.305.305 0 00-.306.306v1.802c0 .17.136.306.306.306h1.938v10.268c0 3.808 2.142 5.134 4.692 5.134.816 0 1.7-.204 2.38-.408.17-.068.306-.238.306-.408v-1.632zm18.429-6.63c0-5.508-2.958-9.146-8.296-9.146-5.304 0-8.296 3.672-8.296 9.214 0 5.508 2.992 9.112 8.296 9.112 5.338 0 8.296-3.672 8.296-9.18zm-13.43.068c0-4.386 1.666-6.902 5.134-6.936 3.4 0 5.1 2.55 5.1 6.936s-1.666 6.834-5.1 6.834c-3.434 0-5.134-2.448-5.134-6.834zm19.455-.238c0-3.944 1.564-6.732 4.93-6.698 3.094.034 4.862 2.618 4.828 7.038-.034 4.454-1.904 6.698-4.896 6.698-3.298 0-4.862-2.822-4.862-7.038zM478.369 25c.17 0 .306-.136.306-.306l-.068-12.886.068-10.302a.305.305 0 00-.306-.306h-2.516a.305.305 0 00-.306.306l.034 8.568c-1.19-1.904-3.06-2.924-5.474-2.924-4.624 0-7.31 4.08-7.31 9.146 0 5.1 2.516 9.044 7.242 9.044 2.516 0 4.42-1.156 5.576-3.094l-.068 2.448c0 .17.136.306.306.306h2.516zm6.946-8.942c0-3.808 1.462-6.494 4.624-6.63h.714c2.856.238 4.454 2.754 4.42 6.97-.034 4.42-1.87 6.664-4.896 6.664-3.298 0-4.862-2.822-4.862-7.004zM497.725 25c.17 0 .306-.136.306-.306l-.102-8.602.102-8.296a.305.305 0 00-.306-.306h-2.516a.305.305 0 00-.306.306l.068 2.346c-1.156-1.938-3.026-2.992-5.508-2.992-4.624 0-7.31 4.08-7.31 9.146 0 5.066 2.516 9.044 7.242 9.044 2.55 0 4.42-1.19 5.61-3.162l-.068 2.516c0 .17.136.306.306.306h2.482zm18.88-17.204c.068-.17-.034-.306-.204-.306h-2.584c-.17 0-.34.136-.408.306l-4.182 13.192-4.964-13.226c-.068-.136-.238-.272-.408-.272h-2.89c-.136 0-.238.136-.204.272l6.868 17.272-1.87 5.44c-.068.17.068.306.204.306h2.346c.17 0 .34-.136.408-.306l7.888-22.678z" fill="#fff"/></svg>