<svg width="59" height="16" viewBox="0 0 59 16" fill="none" xmlns="http://www.w3.org/2000/svg"><rect width="59" height="16" rx="8" fill="#000"/><path d="M12.792 11v-.64H10.24V5.4h-.696V11h3.248zm2.27.048c.944 0 1.616-.6 1.776-1.416h-.664c-.136.528-.584.832-1.16.832-.776 0-1.264-.544-1.288-1.32v-.056h3.168c.008-.096.016-.192.016-.28-.032-1.208-.784-1.936-1.936-1.936s-1.936.848-1.936 2.088c0 1.248.8 2.088 2.024 2.088zm-1.296-2.504a1.208 1.208 0 011.216-1.096c.68 0 1.16.392 1.224 1.096h-2.44zm7.5 1.856c-.183 0-.263-.056-.263-.272V8.344c0-.952-.6-1.472-1.64-1.472-.984 0-1.632.472-1.728 1.272h.656c.08-.416.464-.688 1.04-.688.64 0 1.016.32 1.016.848v.28h-1.2c-1.072 0-1.64.456-1.64 1.272 0 .744.608 1.192 1.504 1.192.704 0 1.112-.312 1.368-.68.008.4.192.632.736.632h.36v-.6h-.208zm-.92-1.064c0 .68-.471 1.152-1.287 1.152-.544 0-.888-.272-.888-.672 0-.464.328-.68.912-.68h1.264v.2zm3.521-2.416c-.728 0-1.04.304-1.232.616l-.088-.616h-.568V11h.656V8.92c0-.648.232-1.36 1.088-1.36h.328v-.64h-.184zm2.753-.048c-.688 0-1.104.288-1.344.6l-.088-.552h-.568V11h.656V8.96c0-.92.464-1.488 1.232-1.488.712 0 1.104.448 1.104 1.296V11h.656V8.728c0-1.352-.728-1.856-1.648-1.856zM31.294 11h.68V6.584L33.83 11h.616l1.856-4.416V11h.68V5.4h-.864l-1.96 4.648L32.174 5.4h-.88V11zm8.557.048c1.192 0 2.024-.848 2.024-2.088 0-1.24-.832-2.088-2.024-2.088-1.192 0-2.024.848-2.024 2.088 0 1.24.832 2.088 2.024 2.088zm0-.584c-.808 0-1.352-.632-1.352-1.504s.544-1.504 1.352-1.504 1.352.632 1.352 1.504-.544 1.504-1.352 1.504zm4.665-3.544c-.728 0-1.04.304-1.232.616l-.088-.616h-.568V11h.656V8.92c0-.648.232-1.36 1.088-1.36h.328v-.64h-.184zm2.398 4.128c.944 0 1.616-.6 1.776-1.416h-.664c-.136.528-.584.832-1.16.832-.776 0-1.264-.544-1.288-1.32v-.056h3.168c.008-.096.016-.192.016-.28-.032-1.208-.784-1.936-1.936-1.936S44.89 7.72 44.89 8.96c0 1.248.8 2.088 2.024 2.088zm-1.296-2.504a1.208 1.208 0 011.216-1.096c.68 0 1.16.392 1.224 1.096h-2.44z" fill="#fff"/></svg>