<svg width="132" height="91" viewBox="0 0 132 91" fill="none" xmlns="http://www.w3.org/2000/svg"><path d="M.28.9h3.36V10h.756V.9h3.36V.2H.28v.7zm10.731 2.002c-1.316 0-1.876.63-2.17 1.414L8.73 2.902h-.616V10h.714V6.402c0-1.442.378-2.814 2.044-2.814h.518v-.686h-.378zm7.38 6.44c-.42 0-.63-.14-.63-.686V5.352c0-1.624-.994-2.534-2.772-2.534-1.624 0-2.702.784-2.884 2.072h.714c.182-.868.938-1.442 2.142-1.442 1.33 0 2.086.7 2.086 1.876v.616h-2.408c-1.82 0-2.8.784-2.8 2.114 0 1.26.994 2.03 2.506 2.03 1.442 0 2.296-.658 2.73-1.54v.252c-.028.84.322 1.204 1.162 1.204h.42v-.658h-.266zM17.047 7.13c0 1.358-.966 2.338-2.646 2.338-1.134 0-1.834-.574-1.834-1.456 0-.938.7-1.456 2.016-1.456h2.464v.574zm8.251-2.632c-.434-1.008-1.386-1.68-2.716-1.68-1.946 0-3.346 1.484-3.346 3.626 0 2.24 1.4 3.64 3.346 3.64 1.33 0 2.254-.714 2.702-1.708L25.396 10h.616V.2h-.714v4.298zm-2.66 4.942c-1.582 0-2.674-1.232-2.674-2.996 0-1.75 1.092-2.996 2.674-2.996 1.582 0 2.674 1.246 2.674 3.01 0 1.75-1.092 2.982-2.674 2.982zm8.19.644c1.554 0 2.744-1.008 3.052-2.436h-.728c-.28 1.106-1.218 1.792-2.38 1.792-1.582 0-2.576-1.204-2.604-2.856v-.126h5.796c0-.098.014-.21.014-.294-.07-2.114-1.372-3.346-3.276-3.346-1.946 0-3.276 1.484-3.276 3.584 0 2.226 1.386 3.682 3.402 3.682zm-2.604-4.228c.112-1.442 1.19-2.408 2.492-2.408 1.386 0 2.38.854 2.492 2.408h-4.984zm11.47 2.492c0 1.134.462 1.652 1.666 1.652h1.036v-.658h-.98c-.742 0-1.008-.28-1.008-1.008V3.56h1.918v-.658h-1.918V.914h-.714v1.988H38.35v.658h1.344v4.788zm7.065-5.53c-1.33 0-2.156.742-2.562 1.764V.2h-.714V10h.714V6.5c0-1.848.938-3.024 2.45-3.024 1.358 0 2.198.896 2.198 2.576V10h.714V6.024c0-2.24-1.19-3.206-2.8-3.206zm7.42 7.266c1.554 0 2.744-1.008 3.052-2.436h-.728c-.28 1.106-1.218 1.792-2.38 1.792-1.582 0-2.576-1.204-2.604-2.856v-.126h5.796c0-.098.014-.21.014-.294-.07-2.114-1.372-3.346-3.276-3.346-1.946 0-3.276 1.484-3.276 3.584 0 2.226 1.386 3.682 3.402 3.682zm-2.604-4.228c.112-1.442 1.19-2.408 2.492-2.408 1.386 0 2.38.854 2.492 2.408h-4.984zM62.514 10h.714V.2h-.714V10zm5.528.084c1.554 0 2.744-1.008 3.052-2.436h-.728c-.28 1.106-1.218 1.792-2.38 1.792-1.582 0-2.576-1.204-2.604-2.856v-.126h5.796c0-.098.014-.21.014-.294-.07-2.114-1.372-3.346-3.276-3.346-1.946 0-3.276 1.484-3.276 3.584 0 2.226 1.386 3.682 3.402 3.682zm-2.604-4.228c.112-1.442 1.19-2.408 2.492-2.408 1.386 0 2.38.854 2.492 2.408h-4.984zm13.41 3.486c-.42 0-.63-.14-.63-.686V5.352c0-1.624-.994-2.534-2.772-2.534-1.624 0-2.702.784-2.884 2.072h.714c.182-.868.938-1.442 2.142-1.442 1.33 0 2.086.7 2.086 1.876v.616h-2.408c-1.82 0-2.8.784-2.8 2.114 0 1.26.994 2.03 2.506 2.03 1.442 0 2.296-.658 2.73-1.54v.252c-.028.84.322 1.204 1.162 1.204h.42v-.658h-.266zM77.504 7.13c0 1.358-.966 2.338-2.646 2.338-1.134 0-1.834-.574-1.834-1.456 0-.938.7-1.456 2.016-1.456h2.464v.574zm8.251-2.632c-.434-1.008-1.386-1.68-2.716-1.68-1.946 0-3.346 1.484-3.346 3.626 0 2.24 1.4 3.64 3.346 3.64 1.33 0 2.254-.714 2.702-1.708L85.853 10h.616V.2h-.714v4.298zm-2.66 4.942c-1.582 0-2.674-1.232-2.674-2.996 0-1.75 1.092-2.996 2.674-2.996 1.582 0 2.674 1.246 2.674 3.01 0 1.75-1.092 2.982-2.674 2.982zm8.19.644c1.554 0 2.744-1.008 3.052-2.436h-.728c-.28 1.106-1.218 1.792-2.38 1.792-1.582 0-2.576-1.204-2.604-2.856v-.126h5.796c0-.098.014-.21.014-.294-.07-2.114-1.372-3.346-3.276-3.346-1.946 0-3.276 1.484-3.276 3.584 0 2.226 1.386 3.682 3.402 3.682zM88.68 5.856c.112-1.442 1.19-2.408 2.492-2.408 1.386 0 2.38.854 2.492 2.408H88.68zm10.063-2.954c-1.316 0-1.876.63-2.17 1.414l-.112-1.414h-.616V10h.714V6.402c0-1.442.378-2.814 2.044-2.814h.518v-.686h-.378zm.936 4.914c.056 1.47 1.246 2.268 3.024 2.268 1.526 0 2.758-.77 2.758-2.03 0-1.498-1.316-1.792-2.842-2.002-1.106-.154-2.086-.28-2.086-1.274 0-.812.798-1.344 2.002-1.344 1.134 0 1.946.546 2.072 1.47h.728c-.126-1.386-1.26-2.086-2.8-2.086-1.582-.014-2.716.798-2.716 2.016 0 1.428 1.316 1.694 2.772 1.89 1.19.168 2.156.322 2.156 1.372 0 .84-.882 1.372-2.044 1.372-1.358 0-2.24-.63-2.296-1.652h-.728zm10.42-4.998c-1.33 0-2.156.742-2.562 1.764V.2h-.714V10h.714V6.5c0-1.848.938-3.024 2.45-3.024 1.358 0 2.198.896 2.198 2.576V10h.714V6.024c0-2.24-1.19-3.206-2.8-3.206zm4.758-1.414c.28 0 .504-.21.504-.504a.493.493 0 00-.504-.504c-.28 0-.504.21-.504.504 0 .294.224.504.504.504zM114.494 10h.714V2.902h-.714V10zm5.823-7.182c-1.33 0-2.254.714-2.702 1.708l-.112-1.624h-.616V12.8h.714V8.362c.406 1.036 1.372 1.722 2.716 1.722 1.946 0 3.346-1.484 3.346-3.64 0-2.226-1.4-3.626-3.346-3.626zm-.056 6.622c-1.582 0-2.674-1.232-2.674-3.01 0-1.736 1.092-2.982 2.674-2.982 1.582 0 2.674 1.246 2.674 2.996 0 1.764-1.092 2.996-2.674 2.996zM3.738 22.902c-1.316 0-1.876.63-2.17 1.414l-.112-1.414H.84V30h.714v-3.598c0-1.442.378-2.814 2.044-2.814h.518v-.686h-.378zm7.38 6.44c-.42 0-.63-.14-.63-.686v-3.304c0-1.624-.995-2.534-2.773-2.534-1.624 0-2.702.784-2.884 2.072h.714c.182-.868.938-1.442 2.142-1.442 1.33 0 2.086.7 2.086 1.876v.616H7.365c-1.82 0-2.8.784-2.8 2.114 0 1.26.994 2.03 2.506 2.03 1.442 0 2.296-.658 2.73-1.54v.252c-.028.84.322 1.204 1.162 1.204h.42v-.658h-.266zM9.772 27.13c0 1.358-.966 2.338-2.646 2.338-1.134 0-1.834-.574-1.834-1.456 0-.938.7-1.456 2.016-1.456h2.464v.574zm5.55 2.954c1.61 0 2.744-.924 3.024-2.366h-.756c-.238 1.05-1.092 1.722-2.268 1.722-1.554 0-2.632-1.218-2.632-2.982 0-1.764 1.064-3.01 2.632-3.01 1.19 0 2.03.672 2.282 1.736h.742c-.294-1.47-1.4-2.366-3.01-2.366-2.002 0-3.374 1.484-3.374 3.64 0 2.184 1.358 3.626 3.36 3.626zm7.547 0c1.554 0 2.744-1.008 3.052-2.436h-.727c-.28 1.106-1.218 1.792-2.38 1.792-1.582 0-2.577-1.204-2.605-2.856v-.126h5.796c0-.098.014-.21.014-.294-.07-2.114-1.372-3.346-3.276-3.346-1.945 0-3.276 1.484-3.276 3.584 0 2.226 1.387 3.682 3.402 3.682zm-2.604-4.228c.113-1.442 1.19-2.408 2.493-2.408 1.386 0 2.38.854 2.491 2.408h-4.983zM33.264 30h.854l2.772-7.098h-.742l-2.436 6.272-2.45-6.272h-.77L33.263 30zm7.436.084c2.002 0 3.416-1.484 3.416-3.64 0-2.142-1.414-3.626-3.416-3.626s-3.402 1.484-3.402 3.626c0 2.156 1.4 3.64 3.402 3.64zm0-.644c-1.582 0-2.674-1.232-2.674-2.996 0-1.75 1.092-2.996 2.674-2.996 1.582 0 2.674 1.246 2.674 2.996 0 1.764-1.092 2.996-2.674 2.996zm4.834.56h.714v-9.8h-.714V30zm8.637-.658c-.42 0-.63-.14-.63-.686v-3.304c0-1.624-.994-2.534-2.772-2.534-1.624 0-2.702.784-2.884 2.072h.714c.182-.868.938-1.442 2.142-1.442 1.33 0 2.086.7 2.086 1.876v.616h-2.408c-1.82 0-2.8.784-2.8 2.114 0 1.26.994 2.03 2.506 2.03 1.442 0 2.296-.658 2.73-1.54v.252c-.028.84.322 1.204 1.162 1.204h.42v-.658h-.266zm-1.344-2.212c0 1.358-.966 2.338-2.646 2.338-1.134 0-1.834-.574-1.834-1.456 0-.938.7-1.456 2.016-1.456h2.464v.574zm3.097 1.218c0 1.134.462 1.652 1.666 1.652h1.036v-.658h-.98c-.742 0-1.008-.28-1.008-1.008V23.56h1.918v-.658h-1.918v-1.988h-.714v1.988h-1.344v.658h1.344v4.788zm4.152-6.944c.28 0 .504-.21.504-.504a.493.493 0 00-.504-.504c-.28 0-.504.21-.504.504 0 .294.224.504.504.504zM59.711 30h.714v-7.098h-.714V30zm2.393 0h.714v-9.8h-.714V30zm2.756-8.596c.28 0 .504-.21.504-.504a.493.493 0 00-.504-.504c-.28 0-.504.21-.504.504 0 .294.224.504.504.504zM64.496 30h.714v-7.098h-.714V30zm2.925-1.652c0 1.134.462 1.652 1.666 1.652h1.036v-.658h-.98c-.742 0-1.008-.28-1.008-1.008V23.56h1.918v-.658h-1.918v-1.988h-.714v1.988h-1.344v.658h1.344v4.788zM73.337 30l-.462 1.148c-.322.784-.448.994-1.176.994h-.896v.658h1.092c.952 0 1.176-.364 1.624-1.484l3.402-8.414h-.77l-2.422 6.174-2.464-6.174h-.77L73.337 30zm10.04 0h.77l2.1-5.964L88.248 30h.77l2.52-7.098h-.728l-2.185 6.244-2.03-6.244h-.657l-2.142 6.244-2.072-6.244h-.756L83.376 30zm9.524-8.596c.28 0 .504-.21.504-.504a.493.493 0 00-.504-.504c-.28 0-.504.21-.504.504 0 .294.224.504.504.504zM92.537 30h.714v-7.098h-.714V30zm2.925-1.652c0 1.134.462 1.652 1.666 1.652h1.036v-.658h-.98c-.742 0-1.008-.28-1.008-1.008V23.56h1.918v-.658h-1.918v-1.988h-.714v1.988h-1.344v.658h1.344v4.788zm7.064-5.53c-1.33 0-2.156.742-2.562 1.764V20.2h-.714V30h.714v-3.5c0-1.848.938-3.024 2.45-3.024 1.358 0 2.198.896 2.198 2.576V30h.714v-3.976c0-2.24-1.19-3.206-2.8-3.206zm-93.762 20c-1.302 0-2.142.728-2.548 1.778-.336-1.176-1.218-1.778-2.338-1.778-1.218 0-1.946.714-2.31 1.596l-.112-1.512H.84V50h.714v-3.612c0-1.736.84-2.912 2.198-2.912 1.232 0 2.002.868 2.002 2.506V50h.714v-3.864c.042-1.624.882-2.66 2.212-2.66 1.232 0 1.974.826 1.974 2.436V50h.728v-4.116c0-2.142-1.134-3.066-2.618-3.066zm10.447 6.524c-.42 0-.63-.14-.63-.686v-3.304c0-1.624-.994-2.534-2.772-2.534-1.624 0-2.702.784-2.884 2.072h.714c.182-.868.938-1.442 2.142-1.442 1.33 0 2.086.7 2.086 1.876v.616h-2.408c-1.82 0-2.8.784-2.8 2.114 0 1.26.994 2.03 2.506 2.03 1.442 0 2.296-.658 2.73-1.54v.252c-.028.84.322 1.204 1.162 1.204h.42v-.658h-.266zm-1.344-2.212c0 1.358-.966 2.338-2.646 2.338-1.134 0-1.834-.574-1.834-1.456 0-.938.7-1.456 2.016-1.456h2.464v.574zm5.463-4.228c-1.316 0-1.876.63-2.17 1.414l-.112-1.414h-.616V50h.714v-3.598c0-1.442.378-2.814 2.044-2.814h.518v-.686h-.378zM24.766 50h.714v-1.918l1.666-1.708L29.862 50h.868l-3.094-4.144 2.856-2.954h-.882l-4.13 4.256V40.2h-.714V50zm9.67.084c1.555 0 2.745-1.008 3.053-2.436h-.728c-.28 1.106-1.218 1.792-2.38 1.792-1.582 0-2.576-1.204-2.604-2.856v-.126h5.796c0-.098.014-.21.014-.294-.07-2.114-1.372-3.346-3.276-3.346-1.946 0-3.276 1.484-3.276 3.584 0 2.226 1.386 3.682 3.402 3.682zm-2.603-4.228c.112-1.442 1.19-2.408 2.492-2.408 1.386 0 2.38.854 2.492 2.408h-4.984zm7.588 2.492c0 1.134.462 1.652 1.666 1.652h1.036v-.658h-.98c-.742 0-1.008-.28-1.008-1.008V43.56h1.918v-.658h-1.918v-1.988h-.714v1.988h-1.344v.658h1.344v4.788zm7.845-2.03v-.602h-4.522v.602h4.522zM48.938 50h.714v-9.8h-.714V50zm5.528.084c1.554 0 2.744-1.008 3.052-2.436h-.728c-.28 1.106-1.218 1.792-2.38 1.792-1.582 0-2.576-1.204-2.604-2.856v-.126h5.796c0-.098.014-.21.014-.294-.07-2.114-1.372-3.346-3.276-3.346-1.946 0-3.276 1.484-3.276 3.584 0 2.226 1.386 3.682 3.402 3.682zm-2.604-4.228c.112-1.442 1.19-2.408 2.492-2.408 1.386 0 2.38.854 2.492 2.408h-4.984zm13.41 3.486c-.42 0-.63-.14-.63-.686v-3.304c0-1.624-.994-2.534-2.772-2.534-1.624 0-2.703.784-2.884 2.072h.714c.181-.868.938-1.442 2.142-1.442 1.33 0 2.086.7 2.086 1.876v.616H61.52c-1.82 0-2.8.784-2.8 2.114 0 1.26.994 2.03 2.505 2.03 1.442 0 2.297-.658 2.73-1.54v.252c-.027.84.323 1.204 1.163 1.204h.42v-.658h-.266zm-1.345-2.212c0 1.358-.965 2.338-2.645 2.338-1.134 0-1.834-.574-1.834-1.456 0-.938.7-1.456 2.016-1.456h2.464v.574zm8.252-2.632c-.434-1.008-1.386-1.68-2.716-1.68-1.946 0-3.346 1.484-3.346 3.626 0 2.24 1.4 3.64 3.346 3.64 1.33 0 2.254-.714 2.702-1.708L72.277 50h.616v-9.8h-.714v4.298zm-2.66 4.942c-1.582 0-2.674-1.232-2.674-2.996 0-1.75 1.092-2.996 2.674-2.996 1.582 0 2.674 1.246 2.674 3.01 0 1.75-1.092 2.982-2.674 2.982zm5.417-8.036c.28 0 .504-.21.504-.504a.493.493 0 00-.504-.504c-.28 0-.504.21-.504.504 0 .294.224.504.504.504zM74.572 50h.714v-7.098h-.714V50zm5.669-7.182c-1.302 0-2.142.672-2.548 1.596l-.112-1.512h-.616V50h.714v-3.5c0-1.848.938-3.024 2.45-3.024 1.372 0 2.198.896 2.198 2.576V50h.714v-3.976c0-2.24-1.19-3.206-2.8-3.206zm10.162 1.736c-.434-1.05-1.386-1.736-2.702-1.736-1.946 0-3.346 1.47-3.346 3.626 0 2.24 1.4 3.64 3.346 3.64 1.33 0 2.268-.7 2.716-1.806v1.26c0 1.89-.896 2.702-2.604 2.702-1.33 0-2.254-.602-2.478-1.68h-.742c.224 1.512 1.442 2.324 3.164 2.324 2.296 0 3.374-1.092 3.374-3.318v-6.664h-.616l-.112 1.652zm-2.646 4.886c-1.582 0-2.674-1.232-2.674-2.996s1.092-2.996 2.674-2.996c1.582 0 2.674 1.232 2.674 3.01 0 1.75-1.092 2.982-2.674 2.982zM.518 67.816c.056 1.47 1.246 2.268 3.024 2.268 1.526 0 2.758-.77 2.758-2.03 0-1.498-1.316-1.792-2.842-2.002-1.106-.154-2.086-.28-2.086-1.274 0-.812.798-1.344 2.002-1.344 1.134 0 1.946.546 2.072 1.47h.728c-.126-1.386-1.26-2.086-2.8-2.086-1.582-.014-2.716.798-2.716 2.016 0 1.428 1.316 1.694 2.772 1.89 1.19.168 2.156.322 2.156 1.372 0 .84-.882 1.372-2.044 1.372-1.358 0-2.24-.63-2.296-1.652H.518zm10.574-4.998c-1.33 0-2.254.714-2.702 1.708l-.112-1.624h-.616V72.8h.714v-4.438c.406 1.036 1.372 1.722 2.716 1.722 1.946 0 3.346-1.484 3.346-3.64 0-2.226-1.4-3.626-3.346-3.626zm-.056 6.622c-1.582 0-2.674-1.232-2.674-3.01 0-1.736 1.092-2.982 2.674-2.982 1.582 0 2.674 1.246 2.674 2.996 0 1.764-1.092 2.996-2.674 2.996zm7.714-6.538c-1.316 0-1.876.63-2.17 1.414l-.112-1.414h-.616V70h.714v-3.598c0-1.442.378-2.814 2.044-2.814h.518v-.686h-.378zm4.066 7.182c1.554 0 2.744-1.008 3.052-2.436h-.728c-.28 1.106-1.218 1.792-2.38 1.792-1.582 0-2.576-1.204-2.604-2.856v-.126h5.796c0-.098.014-.21.014-.294-.07-2.114-1.372-3.346-3.276-3.346-1.946 0-3.276 1.484-3.276 3.584 0 2.226 1.386 3.682 3.402 3.682zm-2.604-4.228c.112-1.442 1.19-2.408 2.492-2.408 1.386 0 2.38.854 2.492 2.408h-4.984zm13.41 3.486c-.42 0-.63-.14-.63-.686v-3.304c0-1.624-.995-2.534-2.773-2.534-1.624 0-2.702.784-2.884 2.072h.714c.182-.868.938-1.442 2.142-1.442 1.33 0 2.086.7 2.086 1.876v.616H29.87c-1.82 0-2.8.784-2.8 2.114 0 1.26.994 2.03 2.506 2.03 1.442 0 2.296-.658 2.73-1.54v.252c-.028.84.322 1.204 1.162 1.204h.42v-.658h-.266zm-1.345-2.212c0 1.358-.966 2.338-2.646 2.338-1.134 0-1.834-.574-1.834-1.456 0-.938.7-1.456 2.016-1.456h2.464v.574zm8.252-2.632c-.434-1.008-1.386-1.68-2.716-1.68-1.946 0-3.346 1.484-3.346 3.626 0 2.24 1.4 3.64 3.346 3.64 1.33 0 2.254-.714 2.702-1.708L40.627 70h.616v-9.8h-.714v4.298zm-2.66 4.942c-1.582 0-2.674-1.232-2.674-2.996 0-1.75 1.092-2.996 2.674-2.996 1.582 0 2.674 1.246 2.674 3.01 0 1.75-1.092 2.982-2.674 2.982zm4.731-1.624c.056 1.47 1.246 2.268 3.024 2.268 1.526 0 2.758-.77 2.758-2.03 0-1.498-1.316-1.792-2.842-2.002-1.106-.154-2.086-.28-2.086-1.274 0-.812.798-1.344 2.002-1.344 1.134 0 1.946.546 2.072 1.47h.728c-.126-1.386-1.26-2.086-2.8-2.086-1.582-.014-2.716.798-2.716 2.016 0 1.428 1.316 1.694 2.772 1.89 1.19.168 2.156.322 2.156 1.372 0 .84-.882 1.372-2.044 1.372-1.358 0-2.24-.63-2.296-1.652H42.6zm14.054 2.268c2.002 0 3.416-1.484 3.416-3.64 0-2.142-1.414-3.626-3.416-3.626s-3.402 1.484-3.402 3.626c0 2.156 1.4 3.64 3.402 3.64zm0-.644c-1.582 0-2.674-1.232-2.674-2.996 0-1.75 1.092-2.996 2.674-2.996 1.582 0 2.674 1.246 2.674 2.996 0 1.764-1.092 2.996-2.674 2.996zm8.11-6.622c-1.302 0-2.142.672-2.548 1.596l-.112-1.512h-.616V70h.714v-3.5c0-1.848.938-3.024 2.45-3.024 1.372 0 2.198.896 2.198 2.576V70h.714v-3.976c0-2.24-1.19-3.206-2.8-3.206zm12.396 7.266c1.96 0 3.122-1.078 3.542-2.254l.042 2.17h.658v-5.11h-3.948v.7h3.22v.42c0 1.918-1.33 3.374-3.5 3.374-2.198 0-3.654-1.764-3.654-4.284 0-2.506 1.456-4.284 3.724-4.284 1.652 0 2.8.854 3.206 2.394h.812c-.406-1.96-1.932-3.094-3.99-3.094-2.772 0-4.536 2.044-4.536 4.984 0 2.954 1.806 4.984 4.424 4.984zM83.436 70h3.402c2.282 0 3.458-1.036 3.458-2.73 0-1.4-.91-2.142-2.212-2.338 1.092-.28 1.764-1.022 1.764-2.212 0-1.554-1.092-2.52-3.066-2.52h-3.346V70zm3.374-9.114c1.47 0 2.282.714 2.282 1.876 0 1.176-.826 1.89-2.282 1.89h-2.618v-3.766h2.618zm.028 4.452c1.694 0 2.674.686 2.674 1.974 0 1.232-.91 2.002-2.674 2.002h-2.646v-3.976h2.646zM91.926 70h.756v-4.088h2.884c1.848 0 3.066-1.148 3.066-2.856S97.428 60.2 95.566 60.2h-3.64V70zm3.584-9.1c1.442 0 2.352.868 2.352 2.156 0 1.274-.924 2.156-2.366 2.156h-2.814V60.9h2.828zm11.518 1.918c-1.33 0-2.254.714-2.702 1.708l-.112-1.624h-.616V72.8h.714v-4.438c.406 1.036 1.372 1.722 2.716 1.722 1.946 0 3.346-1.484 3.346-3.64 0-2.226-1.4-3.626-3.346-3.626zm-.056 6.622c-1.582 0-2.674-1.232-2.674-3.01 0-1.736 1.092-2.982 2.674-2.982 1.582 0 2.674 1.246 2.674 2.996 0 1.764-1.092 2.996-2.674 2.996zm11.059-.098c-.42 0-.63-.14-.63-.686v-3.304c0-1.624-.994-2.534-2.772-2.534-1.624 0-2.702.784-2.884 2.072h.714c.182-.868.938-1.442 2.142-1.442 1.33 0 2.086.7 2.086 1.876v.616h-2.408c-1.82 0-2.8.784-2.8 2.114 0 1.26.994 2.03 2.506 2.03 1.442 0 2.296-.658 2.73-1.54v.252c-.028.84.322 1.204 1.162 1.204h.42v-.658h-.266zm-1.344-2.212c0 1.358-.966 2.338-2.646 2.338-1.134 0-1.834-.574-1.834-1.456 0-.938.7-1.456 2.016-1.456h2.464v.574zm2.929-5.726c.28 0 .504-.21.504-.504a.493.493 0 00-.504-.504c-.28 0-.504.21-.504.504 0 .294.224.504.504.504zM119.252 70h.714v-7.098h-.714V70zm5.291-7.098c-1.316 0-1.876.63-2.17 1.414l-.112-1.414h-.616V70h.714v-3.598c0-1.442.378-2.814 2.044-2.814h.518v-.686h-.378zm.936 4.914c.056 1.47 1.246 2.268 3.024 2.268 1.526 0 2.758-.77 2.758-2.03 0-1.498-1.316-1.792-2.842-2.002-1.106-.154-2.086-.28-2.086-1.274 0-.812.798-1.344 2.002-1.344 1.134 0 1.946.546 2.072 1.47h.728c-.126-1.386-1.26-2.086-2.8-2.086-1.582-.014-2.716.798-2.716 2.016 0 1.428 1.316 1.694 2.772 1.89 1.19.168 2.156.322 2.156 1.372 0 .84-.882 1.372-2.044 1.372-1.358 0-2.24-.63-2.296-1.652h-.728zM7.084 89.342c-.42 0-.63-.14-.63-.686v-3.304c0-1.624-.994-2.534-2.772-2.534-1.624 0-2.702.784-2.884 2.072h.714c.182-.868.938-1.442 2.142-1.442 1.33 0 2.086.7 2.086 1.876v.616H3.332c-1.82 0-2.8.784-2.8 2.114 0 1.26.994 2.03 2.506 2.03 1.442 0 2.296-.658 2.73-1.54v.252C5.74 89.636 6.09 90 6.93 90h.42v-.658h-.266zM5.74 87.13c0 1.358-.966 2.338-2.646 2.338-1.134 0-1.834-.574-1.834-1.456 0-.938.7-1.456 2.016-1.456H5.74v.574zm5.84-4.312c-1.301 0-2.141.672-2.547 1.596l-.112-1.512h-.616V90h.714v-3.5c0-1.848.938-3.024 2.45-3.024 1.372 0 2.198.896 2.198 2.576V90h.714v-3.976c0-2.24-1.19-3.206-2.8-3.206zm10.068 1.68c-.434-1.008-1.386-1.68-2.716-1.68-1.946 0-3.346 1.484-3.346 3.626 0 2.24 1.4 3.64 3.346 3.64 1.33 0 2.254-.714 2.702-1.708L21.746 90h.616v-9.8h-.714v4.298zm-2.66 4.942c-1.582 0-2.674-1.232-2.674-2.996 0-1.75 1.092-2.996 2.674-2.996 1.582 0 2.674 1.246 2.674 3.01 0 1.75-1.092 2.982-2.674 2.982zm9.359-1.092c0 1.134.462 1.652 1.666 1.652h1.036v-.658h-.98c-.742 0-1.008-.28-1.008-1.008V83.56h1.918v-.658H29.06v-1.988h-.714v1.988h-1.344v.658h1.344v4.788zm7.064-5.53c-1.33 0-2.156.742-2.562 1.764V80.2h-.714V90h.714v-3.5c0-1.848.938-3.024 2.45-3.024 1.358 0 2.198.896 2.198 2.576V90h.714v-3.976c0-2.24-1.19-3.206-2.8-3.206zm7.42 7.266c1.554 0 2.744-1.008 3.052-2.436h-.727c-.28 1.106-1.218 1.792-2.38 1.792-1.583 0-2.577-1.204-2.605-2.856v-.126h5.797c0-.098.013-.21.013-.294-.07-2.114-1.372-3.346-3.276-3.346-1.945 0-3.276 1.484-3.276 3.584 0 2.226 1.386 3.682 3.402 3.682zm-2.604-4.228c.113-1.442 1.19-2.408 2.492-2.408 1.386 0 2.38.854 2.492 2.408h-4.983zM51.334 90h.756v-4.522h4.228v-.7H52.09V80.9h5.068v-.7h-5.824V90zm6.464-9.1h3.36V90h.756v-9.1h3.36v-.7h-7.476v.7zm7.924 6.09c.098 1.848 1.442 3.094 3.64 3.094 2.058 0 3.416-1.12 3.416-2.772 0-1.862-1.652-2.338-3.276-2.618-1.498-.252-2.8-.504-2.8-1.904 0-1.274.994-1.988 2.534-1.988 1.47 0 2.478.826 2.646 2.1h.77c-.14-1.68-1.414-2.786-3.416-2.786-1.988 0-3.29 1.05-3.29 2.716 0 1.862 1.596 2.282 3.164 2.548 1.54.266 2.912.574 2.912 2.002 0 1.26-1.064 2.016-2.646 2.016-1.652 0-2.772-.952-2.87-2.408h-.784zM74.44 90h6.216v-.7h-5.46v-3.962h4.424v-.7h-4.424V80.9h5.278v-.7H74.44V90zm12.76-8.554c0 .448-.21.756-.644.756h-1.68v.658h1.68c.294 0 .504-.084.63-.238V90h.728v-9.8H87.2v1.246zm2.421 3.878c0 2.87 1.414 4.76 3.542 4.76 2.1 0 3.528-1.89 3.528-4.76v-.448c0-2.786-1.428-4.76-3.528-4.76-2.128 0-3.542 1.974-3.542 4.76v.448zm6.328-.028c0 2.492-1.106 4.116-2.786 4.116-1.694 0-2.8-1.624-2.8-4.116v-.392c0-2.492 1.106-4.116 2.8-4.116 1.68 0 2.786 1.624 2.786 4.116v.392zm2.08.028c0 2.87 1.414 4.76 3.542 4.76 2.1 0 3.528-1.89 3.528-4.76v-.448c0-2.786-1.428-4.76-3.528-4.76-2.128 0-3.542 1.974-3.542 4.76v.448zm6.328-.028c0 2.492-1.106 4.116-2.786 4.116-1.694 0-2.8-1.624-2.8-4.116v-.392c0-2.492 1.106-4.116 2.8-4.116 1.68 0 2.786 1.624 2.786 4.116v.392zm1.467 4.242c0 .322.224.532.532.532.308 0 .532-.21.532-.532 0-.322-.224-.518-.532-.518-.308 0-.532.196-.532.518z" fill="#000"/></svg>