<svg width="54" height="11" viewBox="0 0 54 11" fill="none" xmlns="http://www.w3.org/2000/svg"><path d="M1.397 8l.715-1.903h3.157L5.995 8h1.353L4.477.3H2.97L.088 8h1.309zm2.288-6.336l1.232 3.355H2.464l1.221-3.355zM8.094 8h.56V.3h-.56V8zm6.423-4.279c-.341-.825-1.09-1.364-2.123-1.364-1.53 0-2.63 1.155-2.63 2.849 0 1.76 1.1 2.86 2.63 2.86 1.044 0 1.781-.55 2.133-1.419v.99c0 1.485-.704 2.123-2.045 2.123-1.045 0-1.771-.473-1.947-1.32H9.95c.176 1.188 1.133 1.826 2.486 1.826 1.805 0 2.652-.858 2.652-2.607V2.423h-.485l-.087 1.298zm-2.08 3.839c-1.242 0-2.1-.968-2.1-2.354 0-1.386.857-2.354 2.1-2.354 1.244 0 2.102.968 2.102 2.365 0 1.375-.858 2.343-2.101 2.343zm6.435.506c1.573 0 2.684-1.166 2.684-2.86 0-1.683-1.111-2.849-2.684-2.849-1.573 0-2.673 1.166-2.673 2.849 0 1.694 1.1 2.86 2.673 2.86zm0-.506c-1.243 0-2.101-.968-2.101-2.354 0-1.375.858-2.354 2.101-2.354 1.243 0 2.101.979 2.101 2.354 0 1.386-.858 2.354-2.101 2.354zm6.076-5.137c-1.034 0-1.474.495-1.705 1.111l-.088-1.111h-.484V8h.56V5.173c0-1.133.298-2.211 1.607-2.211h.407v-.539h-.297zm1.414-1.177c.22 0 .396-.165.396-.396a.388.388 0 00-.396-.396.388.388 0 00-.396.396c0 .231.176.396.396.396zM26.076 8h.561V2.423h-.561V8zm2.298-1.298c0 .891.363 1.298 1.309 1.298h.814v-.517h-.77c-.583 0-.792-.22-.792-.792V2.94h1.507v-.517h-1.507V.861h-.561v1.562h-1.056v.517h1.056v3.762zm5.55-4.345c-1.045 0-1.694.583-2.013 1.386V.3h-.56V8h.56V5.25c0-1.452.737-2.376 1.925-2.376 1.067 0 1.727.704 1.727 2.024V8h.561V4.876c0-1.76-.935-2.519-2.2-2.519zm9.679 0c-1.023 0-1.683.572-2.002 1.397-.264-.924-.957-1.397-1.837-1.397-.957 0-1.53.561-1.815 1.254l-.088-1.188h-.484V8h.56V5.162c0-1.364.66-2.288 1.728-2.288.968 0 1.573.682 1.573 1.969V8h.56V4.964c.034-1.276.694-2.09 1.739-2.09.968 0 1.55.649 1.55 1.914V8h.573V4.766c0-1.683-.891-2.409-2.057-2.409zm3.588-1.111c.22 0 .396-.165.396-.396a.388.388 0 00-.396-.396.388.388 0 00-.396.396c0 .231.176.396.396.396zM46.905 8h.561V2.423h-.56V8zm4.311.066c1.265 0 2.156-.726 2.376-1.859h-.594c-.187.825-.858 1.353-1.782 1.353-1.221 0-2.068-.957-2.068-2.343 0-1.386.836-2.365 2.068-2.365.935 0 1.595.528 1.793 1.364h.583c-.231-1.155-1.1-1.859-2.365-1.859-1.573 0-2.651 1.166-2.651 2.86 0 1.716 1.067 2.849 2.64 2.849z" fill="#fff"/></svg>