<svg width="92" height="70" viewBox="0 0 92 70" fill="none" xmlns="http://www.w3.org/2000/svg"><path d="M7.728 15.126c3.423 0 5.922-2.016 6.384-5.124h-2.499c-.462 1.869-1.869 3.003-3.906 3.003-2.772 0-4.452-2.226-4.452-5.355 0-3.15 1.722-5.355 4.515-5.355 1.995 0 3.381 1.155 3.864 3.003h2.499C13.65 2.19 11.235.174 7.875.174 3.528.174.777 3.177.777 7.65c0 4.515 2.667 7.476 6.951 7.476zm13.8-11.004c-1.68 0-2.71.756-3.381 1.68V.3h-2.268V15h2.268V9.561c0-2.163 1.092-3.486 2.877-3.486 1.68 0 2.583 1.092 2.583 3.129V15h2.268V9.015c0-3.591-1.953-4.893-4.347-4.893zm11.41 11.004c3.275 0 5.48-2.205 5.48-5.502 0-3.276-2.205-5.502-5.48-5.502-3.277 0-5.482 2.226-5.482 5.502 0 3.297 2.205 5.502 5.481 5.502zm0-1.932c-1.912 0-3.15-1.491-3.15-3.57 0-2.079 1.238-3.57 3.15-3.57 1.91 0 3.17 1.491 3.17 3.57 0 2.079-1.26 3.57-3.17 3.57zm12.386 1.932c3.276 0 5.48-2.205 5.48-5.502 0-3.276-2.204-5.502-5.48-5.502-3.276 0-5.481 2.226-5.481 5.502 0 3.297 2.205 5.502 5.48 5.502zm0-1.932c-1.911 0-3.15-1.491-3.15-3.57 0-2.079 1.239-3.57 3.15-3.57 1.91 0 3.17 1.491 3.17 3.57 0 2.079-1.26 3.57-3.17 3.57zm6.781-1.743c.063 2.331 2.037 3.675 4.914 3.675 2.604 0 4.557-1.302 4.557-3.36 0-2.394-1.995-2.898-4.452-3.192-1.554-.168-2.583-.294-2.583-1.302 0-.861.882-1.407 2.226-1.407 1.344 0 2.268.693 2.394 1.68h2.226c-.147-2.205-2.016-3.423-4.662-3.423-2.583-.021-4.41 1.302-4.41 3.339 0 2.226 1.932 2.751 4.39 3.045 1.658.21 2.645.294 2.645 1.449 0 .861-.924 1.407-2.33 1.407-1.639 0-2.605-.798-2.689-1.911h-2.226zm16.332 3.675c2.667 0 4.473-1.617 4.85-3.738H71.02c-.315 1.197-1.323 1.89-2.71 1.89-1.784 0-2.94-1.197-3.002-3.024v-.147h8.106a6.16 6.16 0 00.063-.861c-.063-3.15-2.142-5.124-5.25-5.124-3.171 0-5.292 2.205-5.292 5.523 0 3.297 2.12 5.481 5.502 5.481zm-3.045-6.678c.168-1.533 1.407-2.499 2.856-2.499 1.575 0 2.688.903 2.877 2.499h-5.733zM1.344 40h2.415v-3.885L6.3 33.259 10.92 40h2.919l-5.796-8.526L13.44 25.3H10.5l-6.741 7.581V25.3H1.344V40zm19.261-10.878c-1.743 0-2.772.693-3.444 1.533l-.252-1.407h-1.974V40h2.268v-5.418c0-2.184 1.071-3.507 2.877-3.507 1.701 0 2.562 1.092 2.562 3.129V40h2.29v-5.985c0-3.591-1.954-4.893-4.327-4.893zm11.389 11.004c3.276 0 5.48-2.205 5.48-5.502 0-3.276-2.204-5.502-5.48-5.502-3.276 0-5.481 2.226-5.481 5.502 0 3.297 2.205 5.502 5.48 5.502zm0-1.932c-1.911 0-3.15-1.491-3.15-3.57 0-2.079 1.239-3.57 3.15-3.57 1.91 0 3.17 1.491 3.17 3.57 0 2.079-1.26 3.57-3.17 3.57zm12.24 1.932c2.75 0 4.578-1.533 4.997-3.969h-2.394c-.273 1.239-1.197 2.037-2.583 2.037-1.826 0-3.023-1.449-3.023-3.549 0-2.121 1.197-3.591 3.023-3.591 1.407 0 2.31.777 2.605 2.037h2.372c-.44-2.436-2.163-3.969-4.934-3.969-3.255 0-5.397 2.205-5.397 5.523 0 3.36 2.078 5.481 5.334 5.481zM50.966 40h2.269v-2.73l1.931-2.016L58.34 40h2.688l-4.306-6.405 4.054-4.347h-2.667l-4.872 5.208V25.3h-2.268V40zm15.562.126c3.276 0 5.481-2.205 5.481-5.502 0-3.276-2.205-5.502-5.481-5.502s-5.481 2.226-5.481 5.502c0 3.297 2.205 5.502 5.481 5.502zm0-1.932c-1.911 0-3.15-1.491-3.15-3.57 0-2.079 1.239-3.57 3.15-3.57 1.911 0 3.171 1.491 3.171 3.57 0 2.079-1.26 3.57-3.171 3.57zm14.676-3.57c0 2.226-1.05 3.528-2.772 3.528-1.66 0-2.5-1.071-2.5-3.171v-5.733h-2.267v5.985c0 3.675 1.953 4.893 4.242 4.893 1.659 0 2.646-.672 3.318-1.491L81.478 40h1.995V29.248h-2.268v5.376zm5.341 2.457c0 1.953.882 2.919 2.94 2.919h2.1v-1.995H89.99c-.86 0-1.155-.315-1.155-1.155v-5.607h2.625v-1.995h-2.625v-3.003h-2.289v3.003h-1.869v1.995h1.87v5.838zM6.195 65.126c3.276 0 5.481-2.205 5.481-5.502 0-3.276-2.205-5.502-5.481-5.502S.714 56.348.714 59.624c0 3.297 2.205 5.502 5.481 5.502zm0-1.932c-1.911 0-3.15-1.491-3.15-3.57 0-2.079 1.239-3.57 3.15-3.57 1.911 0 3.171 1.491 3.171 3.57 0 2.079-1.26 3.57-3.171 3.57zm13.059-9.072c-1.68 0-2.793.777-3.507 1.722l-.273-1.596H13.5V69.2h2.268v-5.712c.672.966 1.827 1.638 3.486 1.638 2.94 0 5.082-2.184 5.082-5.502 0-3.444-2.142-5.502-5.082-5.502zm-.378 9.093c-1.89 0-3.13-1.491-3.13-3.633 0-2.079 1.24-3.528 3.13-3.528s3.15 1.449 3.15 3.57c0 2.1-1.26 3.591-3.15 3.591zm7.972-1.134c0 1.953.882 2.919 2.94 2.919h2.1v-1.995h-1.596c-.861 0-1.155-.315-1.155-1.155v-5.607h2.625v-1.995h-2.625v-3.003h-2.289v3.003h-1.869v1.995h1.869v5.838zm7.638-9.345c.777 0 1.386-.567 1.386-1.365s-.61-1.365-1.386-1.365c-.777 0-1.386.567-1.386 1.365s.609 1.365 1.386 1.365zM33.33 65h2.268V54.248H33.33V65zm9.573.126c3.276 0 5.481-2.205 5.481-5.502 0-3.276-2.205-5.502-5.481-5.502s-5.481 2.226-5.481 5.502c0 3.297 2.205 5.502 5.481 5.502zm0-1.932c-1.911 0-3.15-1.491-3.15-3.57 0-2.079 1.239-3.57 3.15-3.57 1.911 0 3.171 1.491 3.171 3.57 0 2.079-1.26 3.57-3.171 3.57zm12.975-9.072c-1.743 0-2.772.693-3.444 1.533l-.252-1.407h-1.974V65h2.268v-5.418c0-2.184 1.07-3.507 2.877-3.507 1.7 0 2.562 1.092 2.562 3.129V65h2.289v-5.985c0-3.591-1.953-4.893-4.326-4.893zm5.926 7.329c.063 2.331 2.037 3.675 4.914 3.675 2.604 0 4.557-1.302 4.557-3.36 0-2.394-1.995-2.898-4.452-3.192-1.554-.168-2.583-.294-2.583-1.302 0-.861.882-1.407 2.226-1.407 1.344 0 2.268.693 2.394 1.68h2.226c-.147-2.205-2.016-3.423-4.662-3.423-2.583-.021-4.41 1.302-4.41 3.339 0 2.226 1.932 2.751 4.39 3.045 1.658.21 2.645.294 2.645 1.449 0 .861-.924 1.407-2.33 1.407-1.639 0-2.605-.798-2.689-1.911h-2.226z" fill="#000"/></svg>