<svg width="184" height="28" viewBox="0 0 184 28" fill="none" xmlns="http://www.w3.org/2000/svg"><rect width="184" height="28" rx="14" fill="#000"/><path d="M23.02 19h1.305v-4.59h4.32v-1.2h-4.32V9.7h5.22V8.5H23.02V19zm8.375-8.94c.45 0 .795-.33.795-.795a.773.773 0 00-.795-.795c-.45 0-.795.33-.795.795s.345.795.795.795zm-.63 8.94h1.23v-7.65h-1.23V19zm6.665-7.74c-1.29 0-2.07.54-2.52 1.125l-.165-1.035H33.68V19h1.23v-3.825c0-1.725.87-2.79 2.31-2.79 1.335 0 2.07.84 2.07 2.43V19h1.23v-4.26c0-2.535-1.365-3.48-3.09-3.48zm5.288-1.2c.45 0 .795-.33.795-.795a.773.773 0 00-.795-.795c-.45 0-.795.33-.795.795s.345.795.795.795zm-.63 8.94h1.23v-7.65h-1.23V19zm2.6-2.52c.03 1.68 1.395 2.61 3.375 2.61 1.695 0 3.06-.885 3.06-2.31 0-1.695-1.395-2.025-3.135-2.235-1.11-.135-1.92-.24-1.92-1.08 0-.705.72-1.155 1.785-1.155 1.05 0 1.77.585 1.86 1.365h1.26c-.12-1.59-1.38-2.4-3.12-2.415-1.725-.015-3 .9-3 2.295 0 1.59 1.365 1.935 3.075 2.145 1.14.135 1.98.21 1.98 1.17 0 .705-.765 1.17-1.845 1.17-1.275 0-2.07-.66-2.115-1.56h-1.26zm11.55-5.22c-1.29 0-2.07.63-2.52 1.35V8.5h-1.23V19h1.23v-3.825c0-1.725.885-2.79 2.31-2.79 1.32 0 2.085.84 2.085 2.43V19h1.23v-4.26c0-2.535-1.395-3.48-3.105-3.48zm17.134 0c-1.365 0-2.19.63-2.655 1.455-.435-.975-1.35-1.455-2.415-1.455-1.185 0-1.83.585-2.235 1.14l-.165-1.05h-1.065V19h1.23v-4.035c0-1.53.765-2.58 2.025-2.58 1.17 0 1.845.78 1.845 2.28V19h1.23v-4.095c0-1.56.78-2.52 2.055-2.52 1.155 0 1.815.78 1.815 2.28V19h1.23v-4.41c0-2.415-1.305-3.33-2.895-3.33zm6.415 7.785l-.375.93c-.285.72-.405.9-1.11.9h-1.095V22h1.47c1.08 0 1.365-.48 1.845-1.71l3.525-8.94h-1.305l-2.28 6.105-2.355-6.105h-1.305l2.985 7.695zm15.868-1.17c-.345 0-.495-.105-.495-.51V14.02c0-1.785-1.125-2.76-3.075-2.76-1.845 0-3.06.885-3.24 2.385h1.23c.15-.78.87-1.29 1.95-1.29 1.2 0 1.905.6 1.905 1.59v.525h-2.25c-2.01 0-3.075.855-3.075 2.385 0 1.395 1.14 2.235 2.82 2.235 1.32 0 2.085-.585 2.565-1.275.015.75.36 1.185 1.38 1.185h.675v-1.125h-.39zM93.93 15.88c0 1.275-.885 2.16-2.415 2.16-1.02 0-1.665-.51-1.665-1.26 0-.87.615-1.275 1.71-1.275h2.37v.375zm6.915-4.62c-1.29 0-2.115.615-2.625 1.32l-.165-1.23H96.99V22h1.23v-4.17c.465.735 1.335 1.26 2.625 1.26 2.115 0 3.675-1.575 3.675-3.915 0-2.49-1.56-3.915-3.675-3.915zm-.12 6.735c-1.5 0-2.52-1.17-2.52-2.85 0-1.635 1.02-2.79 2.52-2.79 1.515 0 2.535 1.155 2.535 2.82 0 1.665-1.02 2.82-2.535 2.82zm9.056-6.735c-1.29 0-2.115.615-2.625 1.32l-.165-1.23h-1.065V22h1.23v-4.17c.465.735 1.335 1.26 2.625 1.26 2.115 0 3.675-1.575 3.675-3.915 0-2.49-1.56-3.915-3.675-3.915zm-.12 6.735c-1.5 0-2.52-1.17-2.52-2.85 0-1.635 1.02-2.79 2.52-2.79 1.515 0 2.535 1.155 2.535 2.82 0 1.665-1.02 2.82-2.535 2.82zm5.2 1.005h1.23V8.5h-1.23V19zm3.546-8.94c.45 0 .795-.33.795-.795a.773.773 0 00-.795-.795c-.45 0-.795.33-.795.795s.345.795.795.795zm-.63 8.94h1.23v-7.65h-1.23V19zm6.35.09c1.86 0 3.105-1.05 3.405-2.7h-1.305c-.24.975-.99 1.605-2.085 1.605-1.47 0-2.46-1.14-2.46-2.805 0-1.665.99-2.835 2.46-2.835 1.125 0 1.875.615 2.1 1.635h1.29c-.315-1.68-1.5-2.73-3.375-2.73-2.22 0-3.735 1.59-3.735 3.93 0 2.385 1.47 3.9 3.705 3.9zm11.518-1.215c-.345 0-.495-.105-.495-.51V14.02c0-1.785-1.125-2.76-3.075-2.76-1.845 0-3.06.885-3.24 2.385h1.23c.15-.78.87-1.29 1.95-1.29 1.2 0 1.905.6 1.905 1.59v.525h-2.25c-2.01 0-3.075.855-3.075 2.385 0 1.395 1.14 2.235 2.82 2.235 1.32 0 2.085-.585 2.565-1.275.015.75.36 1.185 1.38 1.185h.675v-1.125h-.39zm-1.725-1.995c0 1.275-.885 2.16-2.415 2.16-1.02 0-1.665-.51-1.665-1.26 0-.87.615-1.275 1.71-1.275h2.37v.375zm3.631 1.125c0 1.35.525 1.995 1.995 1.995h1.335v-1.125h-1.215c-.66 0-.885-.24-.885-.885v-4.515h1.98V11.35h-1.98V9.205h-1.23v2.145h-1.38v1.125h1.38v4.53zm5.025-6.945c.45 0 .795-.33.795-.795a.773.773 0 00-.795-.795c-.45 0-.795.33-.795.795s.345.795.795.795zm-.63 8.94h1.23v-7.65h-1.23V19zm6.44.09c2.235 0 3.795-1.59 3.795-3.915s-1.56-3.915-3.795-3.915-3.795 1.59-3.795 3.915 1.56 3.915 3.795 3.915zm0-1.095c-1.515 0-2.535-1.185-2.535-2.82 0-1.635 1.02-2.82 2.535-2.82 1.515 0 2.535 1.185 2.535 2.82 0 1.635-1.02 2.82-2.535 2.82zm8.956-6.735c-1.29 0-2.07.54-2.52 1.125l-.165-1.035h-1.065V19h1.23v-3.825c0-1.725.87-2.79 2.31-2.79 1.335 0 2.07.84 2.07 2.43V19h1.23v-4.26c0-2.535-1.365-3.48-3.09-3.48z" fill="#fff"/></svg>