<svg width="120" height="30" viewBox="0 0 120 30" fill="none" xmlns="http://www.w3.org/2000/svg"><rect y=".5" width="120" height="29" rx="14.5" fill="#000"/><path d="M22.32 10.58h3.632v9.92h1.392v-9.92h3.632V9.3H22.32v1.28zm12.836 1.76c-1.456 0-2.08.608-2.464 1.232l-.176-1.232H31.38v8.16h1.312v-4.16c0-1.296.464-2.72 2.176-2.72h.656v-1.28h-.368zm8.44 6.96c-.368 0-.528-.112-.528-.544v-3.568c0-1.904-1.2-2.944-3.28-2.944-1.968 0-3.264.944-3.456 2.544h1.312c.16-.832.928-1.376 2.08-1.376 1.28 0 2.032.64 2.032 1.696v.56h-2.4c-2.144 0-3.28.912-3.28 2.544 0 1.488 1.216 2.384 3.008 2.384 1.408 0 2.224-.624 2.736-1.36.016.8.384 1.264 1.472 1.264h.72v-1.2h-.416zm-1.84-2.128c0 1.36-.944 2.304-2.576 2.304-1.088 0-1.776-.544-1.776-1.344 0-.928.656-1.36 1.824-1.36h2.528v.4zm9.603-3.584c-.496-.784-1.424-1.344-2.8-1.344-2.256 0-3.92 1.68-3.92 4.176 0 2.656 1.664 4.176 3.92 4.176 1.376 0 2.256-.656 2.8-1.408l.176 1.312h1.136V9.3H51.36v4.288zm-2.672 5.84c-1.616 0-2.704-1.232-2.704-3.008s1.088-3.008 2.704-3.008c1.6 0 2.688 1.248 2.688 3.04 0 1.744-1.088 2.976-2.688 2.976zm9.532 1.168c1.887 0 3.231-1.2 3.551-2.832h-1.328c-.272 1.056-1.167 1.664-2.32 1.664-1.551 0-2.528-1.088-2.575-2.64v-.112h6.336c.015-.192.031-.384.031-.56-.064-2.416-1.568-3.872-3.872-3.872-2.303 0-3.872 1.696-3.872 4.176 0 2.496 1.6 4.176 4.048 4.176zm-2.593-5.008c.129-1.328 1.233-2.192 2.433-2.192 1.36 0 2.32.784 2.448 2.192h-4.88zM71.6 12.244c-1.376 0-2.208.576-2.688 1.2l-.176-1.104H67.6v8.16h1.312v-4.08c0-1.84.928-2.976 2.464-2.976 1.424 0 2.208.896 2.208 2.592V20.5h1.312v-4.544c0-2.704-1.456-3.712-3.296-3.712zm8.635 8.352c2.384 0 4.048-1.696 4.048-4.176 0-2.48-1.664-4.176-4.048-4.176-2.384 0-4.048 1.696-4.048 4.176 0 2.48 1.664 4.176 4.048 4.176zm0-1.168c-1.616 0-2.704-1.264-2.704-3.008s1.088-3.008 2.704-3.008 2.704 1.264 2.704 3.008-1.088 3.008-2.704 3.008zm7.159 1.072h1.44l2.048-6.064 1.968 6.064h1.44l2.72-8.16h-1.328l-2.128 6.64-2.032-6.64h-1.216l-2.144 6.64-2.032-6.64h-1.376l2.64 8.16z" fill="#fff"/></svg>