<svg width="284" height="32" viewBox="0 0 284 32" fill="none" xmlns="http://www.w3.org/2000/svg"><path d="M5.688 13v-.96H1.86V4.6H.816V13h4.872zm3.406.072c1.788 0 3.036-1.272 3.036-3.132s-1.248-3.132-3.036-3.132S6.058 8.08 6.058 9.94s1.248 3.132 3.036 3.132zm0-.876c-1.212 0-2.028-.948-2.028-2.256 0-1.308.816-2.256 2.028-2.256 1.212 0 2.028.948 2.028 2.256 0 1.308-.816 2.256-2.028 2.256zm3.889-1.212c.024 1.344 1.115 2.088 2.7 2.088 1.355 0 2.448-.708 2.448-1.848 0-1.356-1.116-1.62-2.508-1.788-.888-.108-1.537-.192-1.537-.864 0-.564.576-.924 1.428-.924.84 0 1.416.468 1.489 1.092h1.008c-.096-1.272-1.104-1.92-2.496-1.932-1.38-.012-2.4.72-2.4 1.836 0 1.272 1.091 1.548 2.46 1.716.912.108 1.584.168 1.584.936 0 .564-.612.936-1.476.936-1.02 0-1.656-.528-1.692-1.248h-1.008zm5.87 0c.025 1.344 1.117 2.088 2.7 2.088 1.357 0 2.449-.708 2.449-1.848 0-1.356-1.116-1.62-2.508-1.788-.888-.108-1.536-.192-1.536-.864 0-.564.576-.924 1.428-.924.84 0 1.416.468 1.488 1.092h1.008c-.096-1.272-1.104-1.92-2.496-1.932-1.38-.012-2.4.72-2.4 1.836 0 1.272 1.092 1.548 2.46 1.716.912.108 1.584.168 1.584.936 0 .564-.612.936-1.476.936-1.02 0-1.656-.528-1.692-1.248h-1.008zm9.06 2.088c1.417 0 2.425-.9 2.665-2.124h-.996c-.204.792-.876 1.248-1.74 1.248-1.164 0-1.896-.816-1.932-1.98v-.084h4.752c.012-.144.024-.288.024-.42-.048-1.812-1.176-2.904-2.904-2.904S24.878 8.08 24.878 9.94c0 1.872 1.2 3.132 3.036 3.132zM25.97 9.316c.096-.996.924-1.644 1.824-1.644 1.02 0 1.74.588 1.836 1.644h-3.66zm5.563 1.668c.024 1.344 1.116 2.088 2.7 2.088 1.356 0 2.448-.708 2.448-1.848 0-1.356-1.116-1.62-2.508-1.788-.888-.108-1.536-.192-1.536-.864 0-.564.576-.924 1.428-.924.84 0 1.416.468 1.488 1.092h1.008c-.096-1.272-1.104-1.92-2.496-1.932-1.38-.012-2.4.72-2.4 1.836 0 1.272 1.092 1.548 2.46 1.716.912.108 1.584.168 1.584.936 0 .564-.612.936-1.476.936-1.02 0-1.656-.528-1.692-1.248h-1.008zm12.13 2.088c1.487 0 2.483-.84 2.723-2.16h-1.044c-.192.78-.792 1.284-1.668 1.284-1.176 0-1.968-.912-1.968-2.244 0-1.332.792-2.268 1.968-2.268.9 0 1.5.492 1.68 1.308h1.032c-.252-1.344-1.2-2.184-2.7-2.184-1.776 0-2.988 1.272-2.988 3.144 0 1.908 1.176 3.12 2.964 3.12zm9.214-.972c-.276 0-.396-.084-.396-.408V9.016c0-1.428-.9-2.208-2.46-2.208-1.476 0-2.448.708-2.592 1.908h.984c.12-.624.696-1.032 1.56-1.032.96 0 1.524.48 1.524 1.272v.42h-1.8c-1.608 0-2.46.684-2.46 1.908 0 1.116.912 1.788 2.256 1.788 1.056 0 1.668-.468 2.052-1.02.012.6.288.948 1.104.948h.54v-.9h-.312zm-1.38-1.596c0 1.02-.708 1.728-1.932 1.728-.816 0-1.332-.408-1.332-1.008 0-.696.492-1.02 1.368-1.02h1.896v.3zm5.448-3.696c-1.032 0-1.656.432-2.016.9l-.132-.828h-.852V13h.984V9.94c0-1.38.696-2.232 1.848-2.232 1.068 0 1.656.672 1.656 1.944V13h.984V9.592c0-2.028-1.092-2.784-2.472-2.784zM3.492 27.072c1.416 0 2.424-.9 2.664-2.124H5.16c-.204.792-.876 1.248-1.74 1.248-1.164 0-1.896-.816-1.932-1.98v-.084H6.24c.012-.144.024-.288.024-.42-.048-1.812-1.176-2.904-2.904-2.904S.456 22.08.456 23.94c0 1.872 1.2 3.132 3.036 3.132zm-1.944-3.756c.096-.996.924-1.644 1.824-1.644 1.02 0 1.74.588 1.836 1.644h-3.66zM6.481 27h1.116l1.788-2.46L11.173 27h1.176l-2.34-3.144 2.184-2.976h-1.116l-1.644 2.268-1.62-2.268H6.637l2.172 2.976L6.481 27zm9.056.072c1.488 0 2.484-.84 2.724-2.16h-1.044c-.192.78-.792 1.284-1.668 1.284-1.176 0-1.968-.912-1.968-2.244 0-1.332.792-2.268 1.968-2.268.9 0 1.5.492 1.68 1.308h1.032c-.252-1.344-1.2-2.184-2.7-2.184-1.776 0-2.988 1.272-2.988 3.144 0 1.908 1.176 3.12 2.964 3.12zm6.623 0c1.416 0 2.424-.9 2.664-2.124h-.996c-.204.792-.876 1.248-1.74 1.248-1.164 0-1.896-.816-1.932-1.98v-.084h4.752c.012-.144.024-.288.024-.42-.048-1.812-1.176-2.904-2.904-2.904s-2.904 1.272-2.904 3.132c0 1.872 1.2 3.132 3.036 3.132zm-1.944-3.756c.096-.996.924-1.644 1.824-1.644 1.02 0 1.74.588 1.836 1.644h-3.66zm8.659 3.756c1.416 0 2.424-.9 2.664-2.124h-.996c-.204.792-.876 1.248-1.74 1.248-1.164 0-1.896-.816-1.932-1.98v-.084h4.752c.012-.144.024-.288.024-.42-.048-1.812-1.176-2.904-2.904-2.904s-2.904 1.272-2.904 3.132c0 1.872 1.2 3.132 3.036 3.132zm-1.944-3.756c.096-.996.924-1.644 1.824-1.644 1.02 0 1.74.588 1.836 1.644h-3.66zm10.663-1.5c-.372-.588-1.068-1.008-2.1-1.008-1.692 0-2.94 1.26-2.94 3.132 0 1.992 1.248 3.132 2.94 3.132 1.032 0 1.692-.492 2.1-1.056l.132.984h.852v-8.4h-.984v3.216zm-2.004 4.38c-1.212 0-2.028-.924-2.028-2.256 0-1.332.816-2.256 2.028-2.256 1.2 0 2.016.936 2.016 2.28 0 1.308-.816 2.232-2.016 2.232zm12.293-4.38c-.372-.588-1.068-1.008-2.1-1.008-1.692 0-2.94 1.26-2.94 3.132 0 1.992 1.248 3.132 2.94 3.132 1.032 0 1.692-.492 2.1-1.056l.132.984h.852v-8.4h-.984v3.216zm-2.004 4.38c-1.212 0-2.028-.924-2.028-2.256 0-1.332.816-2.256 2.028-2.256 1.2 0 2.016.936 2.016 2.28 0 1.308-.816 2.232-2.016 2.232zm7.148.876c1.416 0 2.424-.9 2.664-2.124h-.996c-.204.792-.876 1.248-1.74 1.248-1.164 0-1.896-.816-1.932-1.98v-.084h4.752c.012-.144.024-.288.024-.42-.048-1.812-1.176-2.904-2.904-2.904s-2.904 1.272-2.904 3.132c0 1.872 1.2 3.132 3.036 3.132zm-1.944-3.756c.096-.996.924-1.644 1.824-1.644 1.02 0 1.74.588 1.836 1.644h-3.66zm8.923-2.508c-1.032 0-1.692.492-2.1 1.056l-.132-.984h-.852v8.52h.984v-3.336c.372.588 1.068 1.008 2.1 1.008 1.692 0 2.94-1.26 2.94-3.132 0-1.992-1.248-3.132-2.94-3.132zm-.096 5.388c-1.2 0-2.016-.936-2.016-2.28 0-1.308.816-2.232 2.016-2.232 1.212 0 2.028.924 2.028 2.256 0 1.332-.816 2.256-2.028 2.256zm6.98.876c1.788 0 3.036-1.272 3.036-3.132s-1.248-3.132-3.036-3.132-3.036 1.272-3.036 3.132 1.248 3.132 3.036 3.132zm0-.876c-1.212 0-2.028-.948-2.028-2.256 0-1.308.816-2.256 2.028-2.256 1.212 0 2.028.948 2.028 2.256 0 1.308-.816 2.256-2.028 2.256zm3.89-1.212c.023 1.344 1.115 2.088 2.7 2.088 1.355 0 2.447-.708 2.447-1.848 0-1.356-1.116-1.62-2.508-1.788-.888-.108-1.536-.192-1.536-.864 0-.564.576-.924 1.428-.924.84 0 1.416.468 1.488 1.092h1.008c-.096-1.272-1.104-1.92-2.496-1.932-1.38-.012-2.4.72-2.4 1.836 0 1.272 1.092 1.548 2.46 1.716.912.108 1.584.168 1.584.936 0 .564-.612.936-1.476.936-1.02 0-1.656-.528-1.692-1.248H70.78zm6.744-5.136c.36 0 .636-.264.636-.636a.618.618 0 00-.636-.636.618.618 0 00-.636.636c0 .372.276.636.636.636zM77.02 27h.984v-6.12h-.984V27zm2.788-1.596c0 1.08.42 1.596 1.596 1.596h1.068v-.9H81.5c-.528 0-.708-.192-.708-.708V21.78h1.584v-.9h-1.584v-1.716h-.984v1.716h-1.104v.9h1.104v3.624zm3.264-.42c.024 1.344 1.116 2.088 2.7 2.088 1.356 0 2.448-.708 2.448-1.848 0-1.356-1.116-1.62-2.508-1.788-.888-.108-1.536-.192-1.536-.864 0-.564.576-.924 1.428-.924.84 0 1.416.468 1.488 1.092H88.1c-.096-1.272-1.104-1.92-2.496-1.932-1.38-.012-2.4.72-2.4 1.836 0 1.272 1.092 1.548 2.46 1.716.912.108 1.584.168 1.584.936 0 .564-.612.936-1.476.936-1.02 0-1.656-.528-1.692-1.248h-1.008zM89.1 26.4c0 .408.288.672.684.672.396 0 .684-.264.684-.672 0-.408-.288-.672-.684-.672-.396 0-.684.264-.684.672z" fill="#000"/></svg>