<svg width="250" height="38" viewBox="0 0 250 38" fill="none" xmlns="http://www.w3.org/2000/svg"><path d="M.91 10.498c.139 2.612 2.038 4.373 5.145 4.373 2.908 0 4.828-1.583 4.828-3.918 0-2.631-2.335-3.304-4.63-3.7-2.118-.356-3.958-.712-3.958-2.69 0-1.801 1.405-2.81 3.582-2.81 2.077 0 3.502 1.167 3.74 2.968h1.087C10.507 2.346 8.706.783 5.877.783c-2.81 0-4.65 1.484-4.65 3.839 0 2.631 2.255 3.225 4.471 3.6 2.177.377 4.116.812 4.116 2.83 0 1.781-1.504 2.85-3.74 2.85-2.334 0-3.917-1.346-4.056-3.404H.91zm16.515 4.373c2.197 0 3.879-1.425 4.314-3.443H20.71c-.396 1.563-1.721 2.533-3.364 2.533-2.236 0-3.64-1.702-3.68-4.036v-.179h8.192c0-.138.02-.296.02-.415-.1-2.988-1.94-4.729-4.63-4.729-2.75 0-4.63 2.097-4.63 5.065 0 3.146 1.958 5.204 4.807 5.204zm-3.68-5.975c.159-2.038 1.682-3.404 3.522-3.404 1.959 0 3.364 1.207 3.522 3.404h-7.044zm10.641-6.292a.697.697 0 00.713-.713.697.697 0 00-.713-.712.697.697 0 00-.712.712c0 .416.317.713.712.713zm-.514 12.148h1.009V4.721h-1.01v10.031zm2.907-9.101h6.45l-6.727 8.31v.791h8.35v-.93h-7.025l6.747-8.33v-.771H26.78v.93zm13.524 9.22c2.197 0 3.879-1.425 4.314-3.443h-1.029c-.396 1.563-1.721 2.533-3.364 2.533-2.236 0-3.64-1.702-3.68-4.036v-.179h8.192c0-.138.02-.296.02-.415-.1-2.988-1.94-4.729-4.63-4.729-2.751 0-4.63 2.097-4.63 5.065 0 3.146 1.958 5.204 4.807 5.204zm-3.68-5.975c.158-2.038 1.682-3.404 3.522-3.404 1.959 0 3.364 1.207 3.522 3.404h-7.044zm19.892 5.975c2.83 0 4.828-2.097 4.828-5.144 0-3.028-1.999-5.125-4.828-5.125-2.83 0-4.808 2.097-4.808 5.125 0 3.047 1.979 5.144 4.808 5.144zm0-.91c-2.236 0-3.78-1.741-3.78-4.234 0-2.474 1.544-4.235 3.78-4.235 2.236 0 3.78 1.761 3.78 4.235 0 2.493-1.544 4.234-3.78 4.234zm11.463-9.359c-1.84 0-3.027.95-3.601 2.256l-.158-2.137h-.871v10.031h1.01V9.806c0-2.612 1.325-4.274 3.462-4.274 1.939 0 3.106 1.266 3.106 3.64v5.58h1.01V9.133c0-3.166-1.683-4.531-3.958-4.531zm15.956 10.27c2.196 0 3.878-1.425 4.313-3.444h-1.029c-.395 1.563-1.721 2.533-3.363 2.533-2.236 0-3.64-1.702-3.68-4.036v-.179h8.191c0-.138.02-.296.02-.415-.1-2.988-1.94-4.729-4.63-4.729-2.75 0-4.63 2.097-4.63 5.065 0 3.146 1.959 5.204 4.808 5.204zm-3.68-5.976c.158-2.038 1.681-3.404 3.522-3.404 1.958 0 3.363 1.207 3.522 3.404h-7.044zm18.951 4.926c-.593 0-.89-.197-.89-.97V8.184c0-2.295-1.405-3.581-3.918-3.581-2.295 0-3.819 1.108-4.076 2.928h1.01c.256-1.226 1.325-2.038 3.026-2.038 1.88 0 2.949.99 2.949 2.652v.87h-3.404c-2.572 0-3.957 1.108-3.957 2.988 0 1.78 1.405 2.87 3.542 2.87 2.038 0 3.245-.93 3.858-2.177v.356c-.04 1.187.455 1.701 1.642 1.701h.594v-.93h-.376zm-1.9-3.126c0 1.92-1.365 3.305-3.739 3.305-1.603 0-2.592-.812-2.592-2.058 0-1.326.99-2.058 2.85-2.058h3.482v.811zm7.721-5.975c-1.86 0-2.651.89-3.067 1.998l-.158-1.998h-.87v10.031h1.009V9.667c0-2.038.534-3.977 2.888-3.977h.733v-.97h-.535zm6.66-.119c-1.84 0-3.028.95-3.601 2.256l-.159-2.137h-.87v10.031h1.009V9.806c0-2.612 1.326-4.274 3.463-4.274 1.939 0 3.106 1.266 3.106 3.64v5.58h1.009V9.133c0-3.166-1.682-4.531-3.957-4.531zm6.705-1.998a.697.697 0 00.712-.713.697.697 0 00-.712-.712.697.697 0 00-.712.712c0 .416.316.713.712.713zm-.515 12.148h1.01V4.721h-1.01v10.031zm8.012-10.15c-1.84 0-3.027.95-3.601 2.256l-.158-2.137h-.871v10.031h1.009V9.806c0-2.612 1.326-4.274 3.463-4.274 1.939 0 3.106 1.266 3.106 3.64v5.58h1.009V9.133c0-3.166-1.682-4.531-3.957-4.531zm14.362 2.454c-.613-1.484-1.959-2.454-3.818-2.454-2.751 0-4.729 2.078-4.729 5.125 0 3.165 1.978 5.144 4.729 5.144 1.879 0 3.205-.99 3.838-2.552v1.78c0 2.672-1.266 3.82-3.68 3.82-1.88 0-3.186-.852-3.502-2.375h-1.049c.317 2.137 2.038 3.284 4.472 3.284 3.245 0 4.768-1.543 4.768-4.689V4.721h-.87l-.159 2.335zm-3.739 6.905c-2.236 0-3.779-1.741-3.779-4.234s1.543-4.235 3.779-4.235c2.236 0 3.779 1.742 3.779 4.254 0 2.474-1.543 4.215-3.779 4.215zm6.687-2.295c.079 2.077 1.761 3.205 4.274 3.205 2.156 0 3.897-1.088 3.897-2.869 0-2.117-1.859-2.533-4.016-2.83-1.563-.217-2.948-.395-2.948-1.8 0-1.148 1.128-1.9 2.829-1.9 1.603 0 2.75.772 2.929 2.078h1.028c-.178-1.959-1.78-2.948-3.957-2.948-2.236-.02-3.838 1.128-3.838 2.85 0 2.017 1.86 2.393 3.917 2.67 1.682.238 3.047.456 3.047 1.94 0 1.187-1.246 1.939-2.888 1.939-1.92 0-3.166-.89-3.245-2.335h-1.029zm15.944-9.062a.698.698 0 00.713-.713.698.698 0 00-.713-.712.697.697 0 00-.712.712c0 .416.317.713.712.713zm-.514 12.148h1.009V4.721h-1.009v10.031zm8.011-10.15c-1.84 0-3.027.95-3.601 2.256l-.158-2.137h-.871v10.031h1.009V9.806c0-2.612 1.326-4.274 3.463-4.274 1.939 0 3.106 1.266 3.106 3.64v5.58h1.01V9.133c0-3.166-1.682-4.531-3.958-4.531zm15.62.119c-1.86 0-2.652.89-3.067 1.998l-.158-1.998h-.871v10.031h1.009V9.667c0-2.038.534-3.977 2.889-3.977h.732v-.97h-.534zm5.746 10.15c2.197 0 3.879-1.425 4.314-3.443h-1.029c-.396 1.563-1.721 2.533-3.364 2.533-2.236 0-3.64-1.702-3.68-4.036v-.179h8.192c0-.138.019-.296.019-.415-.099-2.988-1.939-4.729-4.63-4.729-2.75 0-4.63 2.097-4.63 5.065 0 3.146 1.959 5.204 4.808 5.204zm-3.68-5.975c.159-2.038 1.682-3.404 3.522-3.404 1.959 0 3.364 1.207 3.522 3.404h-7.044zm18.952 4.926c-.594 0-.891-.197-.891-.97V8.184c0-2.295-1.405-3.581-3.917-3.581-2.296 0-3.819 1.108-4.076 2.928h1.009c.257-1.226 1.325-2.038 3.027-2.038 1.88 0 2.948.99 2.948 2.652v.87h-3.403c-2.572 0-3.957 1.108-3.957 2.988 0 1.78 1.405 2.87 3.541 2.87 2.038 0 3.245-.93 3.859-2.177v.356c-.04 1.187.455 1.701 1.642 1.701h.594v-.93h-.376zm-1.9-3.126c0 1.92-1.365 3.305-3.739 3.305-1.603 0-2.592-.812-2.592-2.058 0-1.326.989-2.058 2.849-2.058h3.482v.811zm3.625 4.056h1.009V.902h-1.009v13.85zm9.467-2.334c0 1.602.652 2.334 2.354 2.334h1.464v-.93h-1.385c-1.048 0-1.424-.395-1.424-1.424V5.65h2.71v-.93h-2.71V1.91h-1.009v2.81h-1.9v.93h1.9v6.767zm5.868-9.814a.697.697 0 00.712-.713.697.697 0 00-.712-.712.697.697 0 00-.712.712c0 .416.316.713.712.713zm-.514 12.148h1.009V4.721h-1.009v10.031zm14.58-10.15c-1.84 0-3.027 1.029-3.601 2.513-.475-1.662-1.721-2.513-3.304-2.513-1.722 0-2.751 1.01-3.265 2.256l-.158-2.137h-.871v10.031h1.009V9.648c0-2.454 1.187-4.116 3.107-4.116 1.741 0 2.829 1.227 2.829 3.542v5.678h1.009v-5.46c.06-2.296 1.247-3.76 3.126-3.76 1.742 0 2.79 1.167 2.79 3.443v5.777h1.029V8.935c0-3.027-1.603-4.333-3.7-4.333zm10.218 10.27c2.196 0 3.878-1.425 4.313-3.444h-1.029c-.395 1.563-1.721 2.533-3.363 2.533-2.236 0-3.641-1.702-3.681-4.036v-.179h8.192c0-.138.02-.296.02-.415-.099-2.988-1.939-4.729-4.63-4.729-2.751 0-4.63 2.097-4.63 5.065 0 3.146 1.959 5.204 4.808 5.204zm-3.681-5.976c.159-2.038 1.682-3.404 3.522-3.404 1.959 0 3.364 1.207 3.522 3.404h-7.044zM3.62 37.752h1.09l2.967-8.429 2.83 8.43h1.088l3.561-10.032h-1.029l-3.086 8.824-2.87-8.824h-.93l-3.027 8.824-2.928-8.824H.218L3.62 37.752zm13.462-12.148a.697.697 0 00.713-.713.697.697 0 00-.713-.712.697.697 0 00-.712.712c0 .416.317.713.712.713zm-.514 12.148h1.01V27.721h-1.01v10.031zm4.133-2.334c0 1.602.653 2.334 2.355 2.334h1.464v-.93h-1.385c-1.049 0-1.425-.395-1.425-1.424V28.65h2.711v-.93h-2.71v-2.81H20.7v2.81h-1.9v.93h1.9v6.767zm9.984-7.816c-1.88 0-3.047 1.049-3.62 2.493v-6.193h-1.01v13.85h1.01v-4.946c0-2.612 1.325-4.274 3.462-4.274 1.92 0 3.107 1.266 3.107 3.64v5.58h1.009v-5.619c0-3.166-1.682-4.531-3.958-4.531zm15.976 10.27c2.196 0 3.878-1.425 4.313-3.444h-1.029c-.396 1.563-1.721 2.533-3.364 2.533-2.235 0-3.64-1.702-3.68-4.036v-.179h8.192c0-.138.02-.296.02-.415-.1-2.988-1.94-4.729-4.63-4.729-2.75 0-4.63 2.097-4.63 5.065 0 3.146 1.958 5.204 4.808 5.204zm-3.68-5.976c.158-2.038 1.681-3.404 3.521-3.404 1.96 0 3.364 1.207 3.522 3.404H42.98zm8.71 5.856h1.167l3.324-4.412 3.324 4.412h1.227l-3.898-5.124 3.7-4.907h-1.147l-3.166 4.155-3.126-4.155h-1.207l3.7 4.907-3.898 5.124zm11.23-2.334c0 1.602.653 2.334 2.355 2.334h1.464v-.93h-1.385c-1.049 0-1.425-.395-1.425-1.424V28.65h2.711v-.93h-2.71v-2.81h-1.01v2.81h-1.9v.93h1.9v6.767zm9.477 2.453c2.197 0 3.878-1.425 4.314-3.443h-1.03c-.395 1.563-1.72 2.533-3.363 2.533-2.236 0-3.64-1.702-3.68-4.036v-.179h8.191c0-.138.02-.296.02-.415-.099-2.988-1.939-4.729-4.63-4.729-2.75 0-4.63 2.097-4.63 5.065 0 3.146 1.959 5.204 4.808 5.204zm-3.68-5.975c.158-2.038 1.682-3.404 3.522-3.404 1.959 0 3.364 1.207 3.522 3.404h-7.044zm14.757-4.294c-1.84 0-3.027.95-3.601 2.256l-.159-2.137h-.87v10.031h1.009v-4.946c0-2.612 1.326-4.274 3.463-4.274 1.939 0 3.106 1.266 3.106 3.64v5.58h1.01v-5.619c0-3.166-1.683-4.531-3.958-4.531zm14.227 2.374c-.613-1.424-1.958-2.374-3.838-2.374-2.75 0-4.73 2.097-4.73 5.125 0 3.166 1.98 5.144 4.73 5.144 1.88 0 3.185-1.009 3.819-2.414l.158 2.295h.87v-13.85h-1.009v6.074zm-3.759 6.985c-2.236 0-3.78-1.741-3.78-4.234 0-2.474 1.544-4.235 3.78-4.235 2.236 0 3.78 1.761 3.78 4.254 0 2.474-1.544 4.215-3.78 4.215zm11.574.91c2.197 0 3.878-1.425 4.314-3.443h-1.029c-.396 1.563-1.722 2.533-3.364 2.533-2.236 0-3.641-1.702-3.68-4.036v-.179h8.191c0-.138.02-.296.02-.415-.099-2.988-1.939-4.729-4.63-4.729-2.75 0-4.63 2.097-4.63 5.065 0 3.146 1.959 5.204 4.808 5.204zm-3.68-5.975c.158-2.038 1.682-3.404 3.522-3.404 1.959 0 3.364 1.207 3.522 3.404h-7.044zm18.318-1.92c-.613-1.424-1.959-2.374-3.838-2.374-2.751 0-4.729 2.097-4.729 5.125 0 3.166 1.978 5.144 4.729 5.144 1.879 0 3.185-1.009 3.818-2.414l.159 2.295h.87v-13.85h-1.009v6.074zm-3.759 6.985c-2.236 0-3.779-1.741-3.779-4.234 0-2.474 1.543-4.235 3.779-4.235 2.236 0 3.779 1.761 3.779 4.254 0 2.474-1.543 4.215-3.779 4.215zm17.105-9.359c-1.88 0-3.047 1.049-3.621 2.493v-6.193h-1.009v13.85h1.009v-4.946c0-2.612 1.326-4.274 3.463-4.274 1.919 0 3.106 1.266 3.106 3.64v5.58h1.009v-5.619c0-3.166-1.682-4.531-3.957-4.531zm10.488 10.27c2.829 0 4.827-2.098 4.827-5.145 0-3.028-1.998-5.125-4.827-5.125-2.83 0-4.809 2.097-4.809 5.125 0 3.047 1.979 5.144 4.809 5.144zm0-.911c-2.236 0-3.78-1.741-3.78-4.234 0-2.474 1.544-4.235 3.78-4.235 2.235 0 3.779 1.761 3.779 4.235 0 2.493-1.544 4.234-3.779 4.234zm14.114-4.313c0 2.631-1.306 4.293-3.384 4.293-1.86 0-3.007-1.266-3.007-3.66v-5.56h-1.009v5.619c0 3.146 1.642 4.531 3.858 4.531 1.781 0 2.948-.95 3.522-2.236l.139 2.117h.89V27.721h-1.009v4.927zm7.48-4.927c-1.86 0-2.651.89-3.067 1.998l-.158-1.998h-.87v10.031h1.009v-5.085c0-2.038.534-3.977 2.889-3.977h.732v-.97h-.535zm1.324 6.945c.079 2.077 1.761 3.205 4.273 3.205 2.157 0 3.898-1.088 3.898-2.869 0-2.117-1.86-2.533-4.016-2.83-1.563-.217-2.948-.395-2.948-1.8 0-1.148 1.127-1.9 2.829-1.9 1.603 0 2.75.772 2.928 2.078h1.029c-.178-1.959-1.781-2.948-3.957-2.948-2.236-.02-3.839 1.128-3.839 2.85 0 2.017 1.86 2.393 3.918 2.67 1.682.238 3.047.456 3.047 1.94 0 1.187-1.246 1.939-2.889 1.939-1.919 0-3.165-.89-3.245-2.335h-1.028zm9.804 2.433c0 .456.317.752.752.752s.752-.297.752-.752-.317-.732-.752-.732-.752.277-.752.732z" fill="#000"/></svg>