<svg width="189" height="12" viewBox="0 0 189 12" fill="none" xmlns="http://www.w3.org/2000/svg"><path d="M2.52 9.268h1.62l1.692-6.18 1.716 6.18h1.608l2.412-8.4h-1.416l-1.8 6.648L6.528.868H5.22L3.348 7.516 1.56.856.132.868l2.388 8.4zM12.98 2.26c.444 0 .792-.324.792-.78S13.424.7 12.98.7c-.444 0-.792.324-.792.78s.348.78.792.78zm-.66 7.008h1.296V3.124H12.32v6.144zm2.566 0h1.296v-8.4h-1.296v8.4zm2.566 0h1.296v-8.4h-1.296v8.4zm9.417.072c1.956 0 3.384-1.152 3.648-2.928H29.09c-.264 1.068-1.068 1.716-2.232 1.716-1.584 0-2.544-1.272-2.544-3.06 0-1.8.984-3.06 2.58-3.06 1.14 0 1.932.66 2.208 1.716h1.428C30.253 1.948 28.873.796 26.953.796c-2.484 0-4.056 1.716-4.056 4.272 0 2.58 1.524 4.272 3.972 4.272zm7.886-6.288c-.96 0-1.548.432-1.932.96V.868h-1.296v8.4h1.296V6.16c0-1.236.624-1.992 1.644-1.992.96 0 1.476.624 1.476 1.788v3.312h1.296v-3.42c0-2.052-1.116-2.796-2.484-2.796zm4.322-.792c.444 0 .792-.324.792-.78S39.521.7 39.077.7c-.444 0-.792.324-.792.78s.348.78.792.78zm-.66 7.008h1.296V3.124h-1.296v6.144zm5.807-6.216c-.996 0-1.584.396-1.968.876l-.144-.804h-1.128v6.144h1.296V6.172c0-1.248.612-2.004 1.644-2.004.972 0 1.464.624 1.464 1.788v3.312h1.308v-3.42c0-2.052-1.116-2.796-2.472-2.796zM53.49 8.14c-.264 0-.396-.084-.396-.396v-2.46c0-1.452-.936-2.232-2.568-2.232-1.548 0-2.58.744-2.712 1.944h1.272c.096-.54.612-.9 1.38-.9.852 0 1.344.42 1.344 1.104v.372h-1.548c-1.716 0-2.628.708-2.628 1.968 0 1.14.936 1.8 2.28 1.8.996 0 1.62-.432 2.028-1.056 0 .612.288.984 1.128.984h.684V8.14h-.264zm-1.68-1.392c-.012.948-.636 1.584-1.716 1.584-.708 0-1.14-.36-1.14-.876 0-.624.444-.924 1.248-.924h1.608v.216zM54.767.796c-.552 0-.912.36-.912.816 0 .504.312.768.708.768a.655.655 0 00.396-.132c.012.06.012.108.012.168 0 .42-.3.888-1.056.888v.708c1.188-.012 1.932-.672 1.932-1.836 0-.78-.42-1.38-1.08-1.38zm1.62 6.444c.037 1.332 1.165 2.1 2.809 2.1 1.488 0 2.604-.744 2.604-1.92 0-1.368-1.14-1.656-2.544-1.824-.888-.096-1.476-.168-1.476-.744 0-.492.504-.804 1.272-.804s1.296.396 1.368.96h1.272c-.084-1.26-1.152-1.956-2.664-1.956-1.476-.012-2.52.744-2.52 1.908 0 1.272 1.104 1.572 2.508 1.74.948.12 1.512.168 1.512.828 0 .492-.528.804-1.332.804-.936 0-1.488-.456-1.536-1.092h-1.272zm12.595-4.116c-1.008 0-1.5.408-1.812.924l-.144-.924h-1.152v6.144h1.296V6.184c0-.948.372-1.848 1.524-1.848h.576V3.124h-.288zm3.71 6.216c1.525 0 2.557-.924 2.773-2.136h-1.296c-.18.684-.756 1.08-1.548 1.08-1.02 0-1.68-.684-1.716-1.728v-.084h4.632a3.52 3.52 0 00.036-.492c-.036-1.8-1.224-2.928-3-2.928-1.812 0-3.024 1.26-3.024 3.156 0 1.884 1.212 3.132 3.144 3.132zm-1.74-3.816c.097-.876.805-1.428 1.633-1.428.9 0 1.536.516 1.644 1.428h-3.276zm8.572 3.816c1.872 0 3.132-1.26 3.132-3.144 0-1.872-1.26-3.144-3.132-3.144s-3.132 1.272-3.132 3.144c0 1.884 1.26 3.144 3.132 3.144zm0-1.104c-1.092 0-1.8-.852-1.8-2.04 0-1.188.708-2.04 1.8-2.04s1.812.852 1.812 2.04c0 1.188-.72 2.04-1.812 2.04zm7.463-5.184c-.96 0-1.596.444-2.004.984l-.157-.912H83.7v8.544h1.296V8.404c.383.552 1.043.936 1.992.936 1.68 0 2.904-1.248 2.904-3.144 0-1.968-1.225-3.144-2.904-3.144zm-.216 5.196c-1.08 0-1.788-.852-1.788-2.076 0-1.188.707-2.016 1.787-2.016s1.8.828 1.8 2.04c0 1.2-.72 2.052-1.8 2.052zm7.074 1.092c1.524 0 2.556-.924 2.772-2.136h-1.296c-.18.684-.756 1.08-1.548 1.08-1.02 0-1.68-.684-1.716-1.728v-.084h4.632a3.52 3.52 0 00.036-.492c-.036-1.8-1.224-2.928-3-2.928-1.812 0-3.024 1.26-3.024 3.156 0 1.884 1.212 3.132 3.144 3.132zm-1.74-3.816c.096-.876.804-1.428 1.632-1.428.9 0 1.536.516 1.644 1.428h-3.276zm8.908-2.472c-.996 0-1.584.396-1.968.876l-.144-.804h-1.128v6.144h1.296V6.172c0-1.248.612-2.004 1.644-2.004.972 0 1.464.624 1.464 1.788v3.312h1.308v-3.42c0-2.052-1.116-2.796-2.472-2.796zm4.31-.792c.444 0 .792-.324.792-.78s-.348-.78-.792-.78c-.444 0-.792.324-.792.78s.348.78.792.78zm-.66 7.008h1.296V3.124h-1.296v6.144zm5.807-6.216c-.996 0-1.584.396-1.968.876l-.144-.804h-1.128v6.144h1.296V6.172c0-1.248.612-2.004 1.644-2.004.972 0 1.464.624 1.464 1.788v3.312h1.308v-3.42c0-2.052-1.116-2.796-2.472-2.796zm8.342 1.032c-.396-.612-1.056-1.032-2.016-1.032-1.668 0-2.904 1.236-2.904 3.12 0 1.956 1.236 3.12 2.904 3.12.96 0 1.596-.396 2.004-1.008v.684c0 1.176-.636 1.716-1.764 1.716-.912 0-1.512-.396-1.668-1.08h-1.32c.12 1.38 1.26 2.136 2.892 2.136 2.208 0 3.144-1.056 3.144-2.724V3.124h-1.128l-.144.96zm-1.8 4.116c-1.08 0-1.788-.828-1.788-2.028 0-1.188.708-2.028 1.788-2.028s1.788.84 1.788 2.052c0 1.176-.708 2.004-1.788 2.004zm7.145-.96c.036 1.332 1.164 2.1 2.808 2.1 1.488 0 2.604-.744 2.604-1.92 0-1.368-1.14-1.656-2.544-1.824-.888-.096-1.476-.168-1.476-.744 0-.492.504-.804 1.272-.804s1.296.396 1.368.96h1.272c-.084-1.26-1.152-1.956-2.664-1.956-1.476-.012-2.52.744-2.52 1.908 0 1.272 1.104 1.572 2.508 1.74.948.12 1.512.168 1.512.828 0 .492-.528.804-1.332.804-.936 0-1.488-.456-1.536-1.092h-1.272zm9.705-4.188c-.96 0-1.596.444-2.004.984l-.157-.912h-1.127v8.544h1.296V8.404c.384.552 1.044.936 1.992.936 1.68 0 2.904-1.248 2.904-3.144 0-1.968-1.224-3.144-2.904-3.144zm-.216 5.196c-1.08 0-1.788-.852-1.788-2.076 0-1.188.708-2.016 1.788-2.016s1.8.828 1.8 2.04c0 1.2-.72 2.052-1.8 2.052zm8.37-2.052c0 1.272-.6 2.016-1.584 2.016-.948 0-1.428-.612-1.428-1.812V3.124h-1.296v3.42c0 2.1 1.116 2.796 2.424 2.796.948 0 1.512-.384 1.896-.852l.144.78h1.14V3.124h-1.296v3.072zm5.681-3.072c-1.008 0-1.5.408-1.812.924l-.144-.924h-1.152v6.144h1.296V6.184c0-.948.372-1.848 1.524-1.848h.576V3.124h-.288zm5.046 6.144l.78-2.076h3.444l.792 2.076h1.476l-3.132-8.4h-1.644l-3.144 8.4h1.428zm2.496-6.912l1.344 3.66h-2.676l1.332-3.66zm8.013.696c-.96 0-1.596.444-2.004.984l-.156-.912h-1.128v8.544h1.296V8.404c.384.552 1.044.936 1.992.936 1.68 0 2.904-1.248 2.904-3.144 0-1.968-1.224-3.144-2.904-3.144zm-.216 5.196c-1.08 0-1.788-.852-1.788-2.076 0-1.188.708-2.016 1.788-2.016s1.8.828 1.8 2.04c0 1.2-.72 2.052-1.8 2.052zm7.447-5.196c-.96 0-1.596.444-2.004.984l-.156-.912h-1.128v8.544h1.296V8.404c.384.552 1.044.936 1.992.936 1.68 0 2.904-1.248 2.904-3.144 0-1.968-1.224-3.144-2.904-3.144zm-.216 5.196c-1.08 0-1.788-.852-1.788-2.076 0-1.188.708-2.016 1.788-2.016s1.8.828 1.8 2.04c0 1.2-.72 2.052-1.8 2.052zm4.158 1.02h1.296v-8.4h-1.296v8.4zm5.482.072c1.524 0 2.556-.924 2.772-2.136h-1.296c-.18.684-.756 1.08-1.548 1.08-1.02 0-1.68-.684-1.716-1.728v-.084h4.632a3.52 3.52 0 00.036-.492c-.036-1.8-1.224-2.928-3-2.928-1.812 0-3.024 1.26-3.024 3.156 0 1.884 1.212 3.132 3.144 3.132zm-1.74-3.816c.096-.876.804-1.428 1.632-1.428.9 0 1.536.516 1.644 1.428h-3.276zm6.314-1.908c0-.996.6-1.668 1.524-1.668.804 0 1.344.48 1.344 1.164 0 .576-.312.96-.852 1.32-.72.468-1.284.864-1.284 1.836v.384h1.224v-.24c0-.6.408-.912 1.056-1.356.624-.444 1.2-.972 1.2-2.076 0-1.26-1.032-2.184-2.7-2.184-1.788 0-2.832 1.26-2.832 2.82h1.32zm.552 4.92c0 .48.36.804.828.804.468 0 .816-.324.816-.804 0-.48-.348-.804-.816-.804-.468 0-.828.324-.828.804z" fill="#000"/></svg>