<svg width="59" height="18" viewBox="0 0 59 18" fill="none" xmlns="http://www.w3.org/2000/svg"><rect y=".5" width="59" height="17" rx="8.5" fill="#000"/><path d="M11.65 6.863h1.697V11.5h.65V6.863h1.699v-.598H11.65v.598zm6 .823c-.68 0-.973.284-1.152.576l-.082-.576h-.531V11.5h.613V9.555c0-.605.217-1.27 1.017-1.27h.307v-.6h-.172zm3.945 3.253c-.172 0-.247-.052-.247-.254V9.017c0-.89-.56-1.376-1.533-1.376-.92 0-1.526.441-1.616 1.189h.614c.074-.389.433-.643.972-.643.598 0 .95.299.95.793v.261h-1.122c-1.002 0-1.533.427-1.533 1.19 0 .695.568 1.114 1.406 1.114.658 0 1.04-.292 1.279-.636.007.374.18.591.688.591h.336v-.56h-.194zm-.86-.995c0 .636-.441 1.077-1.204 1.077-.509 0-.83-.254-.83-.628 0-.434.306-.636.852-.636h1.182v.187zm4.488-1.675c-.232-.366-.665-.628-1.308-.628-1.055 0-1.833.785-1.833 1.952 0 1.241.778 1.952 1.833 1.952.643 0 1.054-.307 1.308-.658l.083.613h.53V6.265h-.613v2.004zM23.974 11c-.755 0-1.264-.576-1.264-1.406s.509-1.406 1.264-1.406c.748 0 1.257.583 1.257 1.42 0 .816-.509 1.392-1.257 1.392zm4.456.546c.882 0 1.51-.561 1.66-1.324h-.62c-.128.494-.547.778-1.085.778-.726 0-1.182-.509-1.204-1.234v-.052h2.961c.008-.09.015-.18.015-.262-.03-1.13-.733-1.81-1.81-1.81s-1.81.793-1.81 1.952c0 1.167.748 1.952 1.893 1.952zm-1.212-2.341a1.13 1.13 0 011.137-1.025c.636 0 1.084.367 1.144 1.025h-2.281zm7.466-1.563c-.643 0-1.032.27-1.256.56l-.083-.515h-.53V11.5h.613V9.593c0-.86.433-1.391 1.151-1.391.666 0 1.032.419 1.032 1.211V11.5h.614V9.376c0-1.264-.68-1.735-1.54-1.735zm4.036 3.904c1.115 0 1.892-.793 1.892-1.952 0-1.16-.777-1.952-1.892-1.952-1.114 0-1.892.793-1.892 1.952 0 1.16.778 1.952 1.892 1.952zm0-.546c-.755 0-1.264-.59-1.264-1.406 0-.815.509-1.406 1.264-1.406.756 0 1.264.59 1.264 1.406 0 .815-.508 1.406-1.264 1.406zm3.347.501h.673l.957-2.834.92 2.834h.673l1.271-3.814h-.62l-.995 3.104-.95-3.104h-.568l-1.002 3.104-.95-3.104h-.643l1.234 3.814z" fill="#fff"/></svg>