<svg width="100" height="14" viewBox="0 0 100 14" fill="none" xmlns="http://www.w3.org/2000/svg"><path d="M3.07 3.373c.441-.469.95-.838 1.532-1.106.58-.267 1.2-.401 1.857-.401.724 0 1.307.094 1.748.284.44.19.867.463 1.28.821.201.156.407.226.62.21a.868.868 0 00.544-.235.69.69 0 00.226-.528c0-.102-.01-.187-.026-.261a.62.62 0 00-.1-.217.918.918 0 00-.21-.21C9.916 1.216 9.294.848 8.675.625 8.057.401 7.318.289 6.459.289c-.916 0-1.763.173-2.543.519a6.442 6.442 0 00-2.05 1.432A6.654 6.654 0 00.493 4.37 6.908 6.908 0 000 6.991c0 .95.164 1.832.493 2.648a6.578 6.578 0 001.373 2.136A6.276 6.276 0 003.923 13.2c.786.341 1.63.511 2.536.511.758 0 1.48-.123 2.167-.369a6.741 6.741 0 001.933-1.088.863.863 0 00.267-.62c0-.247-.067-.439-.2-.58a.758.758 0 00-.493-.235c-.196-.016-.394.047-.595.194a6.241 6.241 0 01-1.465.812 4.457 4.457 0 01-1.614.293c-.66 0-1.277-.132-1.857-.394a4.808 4.808 0 01-1.532-1.098 5.096 5.096 0 01-1.03-1.634 5.39 5.39 0 01-.368-2.002c0-.704.123-1.366.369-1.986a5.107 5.107 0 011.03-1.631zM14.241.457a.861.861 0 00-.62.242.833.833 0 00-.25.628v11.345c0 .245.083.452.25.62a.847.847 0 00.62.251.828.828 0 00.627-.251.856.856 0 00.242-.62V1.326a.851.851 0 00-.242-.628.849.849 0 00-.627-.242zM26.64.457h-8.95a.786.786 0 00-.579.226.786.786 0 00-.225.579c0 .235.076.427.225.579.15.15.343.226.578.226h3.614v10.606c0 .246.084.453.252.62a.847.847 0 00.619.252.84.84 0 00.62-.251.842.842 0 00.25-.62V2.063h3.598a.786.786 0 00.578-.225.786.786 0 00.226-.579.789.789 0 00-.226-.579.789.789 0 00-.58-.224zM39.992.667a.669.669 0 00-.503-.21.874.874 0 00-.451.108.976.976 0 00-.318.31l-3.983 6.29L30.822.945a1.376 1.376 0 00-.318-.36c-.112-.084-.262-.125-.452-.125-.211 0-.399.065-.56.193a.774.774 0 00-.292.503c-.034.206.021.427.168.662l4.466 6.955v3.905c0 .246.083.452.252.62a.827.827 0 00.603.252.84.84 0 00.62-.252.842.842 0 00.25-.62V8.768l4.501-6.954a.973.973 0 00.168-.628.882.882 0 00-.236-.52zM48.845.457a.861.861 0 00-.62.242.833.833 0 00-.25.628v11.345c0 .245.083.452.25.62a.847.847 0 00.62.251.828.828 0 00.627-.251.856.856 0 00.242-.62V1.326a.851.851 0 00-.242-.628.849.849 0 00-.627-.242zM62.026.457a.86.86 0 00-.619.242.833.833 0 00-.251.628v9.167L53.86.775a.841.841 0 00-.67-.318.829.829 0 00-.61.242.847.847 0 00-.243.628v11.345c0 .245.082.452.242.62.161.166.365.251.61.251a.828.828 0 00.628-.251.863.863 0 00.242-.62v-9.15l7.295 9.72c.077.099.18.175.308.225.129.051.248.076.36.076a.807.807 0 00.62-.251.88.88 0 00.234-.62V1.326c0-.257-.078-.467-.235-.628-.151-.16-.36-.242-.616-.242z" fill="#fff"/><path fill-rule="evenodd" clip-rule="evenodd" d="M73.99 2.291A6.024 6.024 0 0071.94.934c-.785-.318-1.66-.477-2.618-.477h-3.03a.86.86 0 00-.619.242.833.833 0 00-.251.628v11.345c0 .245.083.452.251.62a.847.847 0 00.62.251h3.028c.96 0 1.832-.159 2.62-.477a6.042 6.042 0 002.05-1.357 6.05 6.05 0 001.338-2.078c.312-.798.468-1.679.468-2.639 0-.96-.156-1.838-.468-2.63a6.07 6.07 0 00-1.339-2.071zm-.486 7.29a4.61 4.61 0 01-1.697 1.776c-.72.43-1.548.645-2.486.645h-2.158V1.998h2.159c.937 0 1.764.212 2.485.637a4.555 4.555 0 011.697 1.76c.412.748.62 1.613.62 2.597 0 .971-.206 1.834-.62 2.588z" fill="#fff"/><path d="M86.563 2.065c.257 0 .462-.073.62-.219a.743.743 0 00.234-.57.785.785 0 00-.234-.595c-.156-.15-.364-.226-.62-.226h-7.564a.861.861 0 00-.62.242.833.833 0 00-.25.628V12.67c0 .246.082.452.25.62a.847.847 0 00.62.251h7.564c.257 0 .462-.076.62-.226a.792.792 0 00.234-.595.737.737 0 00-.234-.57c-.156-.144-.364-.218-.62-.218h-6.694V7.746h4.803c.257 0 .462-.076.62-.226a.772.772 0 00.234-.579.768.768 0 00-.234-.579c-.156-.15-.364-.226-.62-.226H79.87V2.065h6.693zM96 6.923l3.815-5.093c.133-.201.195-.407.184-.62a.826.826 0 00-.217-.536c-.134-.145-.318-.219-.553-.219a.807.807 0 00-.62.251L94.86 5.702 91.264.708c-.123-.168-.328-.251-.62-.251a.708.708 0 00-.56.235.96.96 0 00-.241.553.812.812 0 00.168.586l3.675 5.107-3.894 5.198a.969.969 0 00-.2.595c0 .217.067.409.2.57.134.163.329.242.585.242a.82.82 0 00.604-.251l3.841-5.119 3.64 5.052a.807.807 0 00.292.242c.107.05.231.076.378.076.245 0 .437-.078.578-.235a.893.893 0 00.226-.57.91.91 0 00-.185-.604L96 6.924z" fill="#fff"/></svg>