<svg width="357" height="13" viewBox="0 0 357 13" fill="none" xmlns="http://www.w3.org/2000/svg"><path d="M5.667 8l.488-1.247h2.013L8.656 8h.614L7.515 3.38h-.68L5.073 8h.594zm1.491-3.993l.838 2.224h-1.67l.832-2.224zM9.714 8h.54V3.38h-.54V8zm1.282 0h.542V3.38h-.542V8zm3.261-.878c0 .594.231.878.878.878h.587v-.495h-.534c-.29 0-.39-.106-.39-.39V5.13h.871v-.495h-.87V3.69h-.542v.944h-.607v.495h.607v1.993zm3.492-2.488c-.6 0-.858.25-1.016.508l-.073-.508h-.469V8h.542V6.284c0-.535.19-1.122.897-1.122h.27v-.528h-.151zm3.481 2.871c-.151 0-.217-.046-.217-.224V5.809c0-.786-.495-1.215-1.353-1.215-.812 0-1.347.39-1.426 1.05h.541c.066-.343.383-.568.858-.568.528 0 .838.264.838.7v.23h-.99c-.884 0-1.353.377-1.353 1.05 0 .614.502.984 1.241.984.581 0 .918-.258 1.129-.561.006.33.158.521.607.521h.297v-.495h-.172zm-.759-.878c0 .561-.389.95-1.062.95-.449 0-.733-.224-.733-.554 0-.383.27-.56.753-.56h1.042v.164zm3.962-1.478c-.205-.324-.588-.555-1.155-.555-.931 0-1.617.693-1.617 1.723 0 1.096.686 1.723 1.617 1.723.567 0 .93-.271 1.155-.581l.072.541h.469V3.38h-.541v1.769zM23.33 7.558c-.666 0-1.115-.508-1.115-1.241 0-.733.449-1.24 1.115-1.24.66 0 1.11.514 1.11 1.253 0 .72-.45 1.228-1.11 1.228zm2.658-3.492a.34.34 0 00.35-.35.34.34 0 00-.35-.35.34.34 0 00-.35.35c0 .205.152.35.35.35zM25.711 8h.541V4.634h-.541V8zm2.933-3.406c-.568 0-.911.238-1.11.495l-.072-.455h-.468V8h.54V6.317c0-.759.384-1.228 1.017-1.228.588 0 .911.37.911 1.07V8h.541V6.126c0-1.116-.6-1.532-1.36-1.532zm4.702.62c-.21-.375-.587-.62-1.155-.62-.93 0-1.617.693-1.617 1.723 0 1.096.687 1.723 1.617 1.723.568 0 .931-.238 1.155-.62v.395c0 .733-.382 1.063-1.089 1.063-.56 0-.937-.238-1.03-.66h-.554c.086.739.687 1.142 1.545 1.142 1.155 0 1.67-.555 1.67-1.525V4.634h-.469l-.073.58zm-1.102 2.344c-.666 0-1.115-.508-1.115-1.241 0-.733.449-1.24 1.115-1.24.66 0 1.109.514 1.109 1.253 0 .72-.449 1.228-1.109 1.228zm4.385-3.492a.34.34 0 00.35-.35.34.34 0 00-.35-.35.34.34 0 00-.35.35c0 .205.152.35.35.35zM36.352 8h.541V4.634h-.54V8zm2.933-3.406c-.568 0-.911.238-1.109.495l-.073-.455h-.468V8h.541V6.317c0-.759.383-1.228 1.016-1.228.588 0 .911.37.911 1.07V8h.541V6.126c0-1.116-.6-1.532-1.36-1.532zM42.136 8h.653l1.261-3.366h-.568l-1.01 2.752-1.016-2.752h-.58L42.135 8zm3.72.04c.984 0 1.67-.7 1.67-1.723 0-1.023-.686-1.723-1.67-1.723-.983 0-1.67.7-1.67 1.723 0 1.023.687 1.723 1.67 1.723zm0-.482c-.666 0-1.115-.522-1.115-1.241 0-.72.45-1.24 1.116-1.24.666 0 1.115.52 1.115 1.24s-.449 1.24-1.115 1.24zM48.148 8h.541V3.38h-.54V8zm2.207 0h.653l1.26-3.366H51.7l-1.01 2.752-1.016-2.752h-.58L50.353 8zm3.72.04c.78 0 1.334-.495 1.466-1.169h-.548c-.112.436-.482.687-.957.687-.64 0-1.043-.449-1.063-1.09v-.045h2.614c.007-.08.013-.159.013-.231-.026-.997-.647-1.598-1.597-1.598s-1.597.7-1.597 1.723c0 1.03.66 1.723 1.67 1.723zm-1.069-2.066a.996.996 0 011.003-.904c.561 0 .957.323 1.01.904h-2.013zm3.06.917c.013.74.614 1.149 1.485 1.149.746 0 1.347-.39 1.347-1.017 0-.746-.614-.89-1.38-.983-.488-.06-.845-.106-.845-.475 0-.31.317-.509.786-.509.462 0 .779.258.818.601h.555c-.053-.7-.608-1.056-1.373-1.063-.76-.006-1.32.396-1.32 1.01 0 .7.6.852 1.353.944.501.06.871.092.871.515 0 .31-.337.515-.812.515-.56 0-.91-.29-.93-.687h-.555zm6.717-2.257c-.6 0-.858.25-1.016.508l-.073-.508h-.468V8h.54V6.284c0-.535.192-1.122.898-1.122h.271v-.528h-.152zm.898-.568a.34.34 0 00.35-.35.34.34 0 00-.35-.35.34.34 0 00-.35.35c0 .205.152.35.35.35zM63.403 8h.541V4.634h-.54V8zm1.144-1.109c.013.74.614 1.149 1.485 1.149.746 0 1.347-.39 1.347-1.017 0-.746-.614-.89-1.38-.983-.488-.06-.845-.106-.845-.475 0-.31.317-.509.786-.509.462 0 .779.258.818.601h.555c-.053-.7-.608-1.056-1.373-1.063-.76-.006-1.32.396-1.32 1.01 0 .7.6.852 1.353.944.501.06.871.092.871.515 0 .31-.337.515-.812.515-.56 0-.91-.29-.93-.687h-.555zM67.98 8h.542v-.884l.68-.7L70.315 8h.653l-1.406-1.973 1.314-1.393h-.667l-1.69 1.789V3.38h-.54V8zm3.305-.33c0 .224.159.37.376.37.218 0 .377-.146.377-.37s-.159-.37-.377-.37c-.217 0-.376.146-.376.37zm3.233.33h3.03v-.528H75.09V5.914h1.973v-.528h-1.973V3.908h2.37V3.38h-2.944V8zm5.244-3.406c-.567 0-.91.238-1.108.495l-.073-.455h-.469V8h.542V6.317c0-.759.382-1.228 1.016-1.228.587 0 .91.37.91 1.07V8h.542V6.126c0-1.116-.6-1.532-1.36-1.532zm1.911 2.297c.014.74.614 1.149 1.485 1.149.746 0 1.347-.39 1.347-1.017 0-.746-.614-.89-1.38-.983-.488-.06-.844-.106-.844-.475 0-.31.316-.509.785-.509.462 0 .779.258.818.601h.555c-.053-.7-.607-1.056-1.373-1.063-.759-.006-1.32.396-1.32 1.01 0 .7.6.852 1.353.944.502.06.871.092.871.515 0 .31-.336.515-.812.515-.56 0-.91-.29-.93-.687h-.555zm5.789-.574c0 .759-.37 1.228-.984 1.228-.56 0-.877-.37-.877-1.07V4.634h-.542v1.874c0 1.116.588 1.532 1.327 1.532.554 0 .878-.238 1.076-.489l.072.449h.469V4.634h-.541v1.683zm2.836-1.683c-.6 0-.858.25-1.016.508l-.073-.508h-.468V8h.54V6.284c0-.535.192-1.122.898-1.122h.271v-.528h-.152zm1.979 3.406c.779 0 1.333-.495 1.465-1.169h-.548c-.112.436-.481.687-.957.687-.64 0-1.043-.449-1.062-1.09v-.045h2.613c.007-.08.013-.159.013-.231-.026-.997-.646-1.598-1.597-1.598-.95 0-1.597.7-1.597 1.723 0 1.03.66 1.723 1.67 1.723zm-1.07-2.066a.996.996 0 011.004-.904c.56 0 .957.323 1.01.904h-2.013zm5.916 2.046l-.165.409c-.125.317-.178.396-.488.396h-.482v.495h.647c.475 0 .6-.211.812-.752l1.55-3.934h-.574L97.42 7.32l-1.036-2.686h-.574l1.313 3.386zm3.681.02c.983 0 1.67-.7 1.67-1.723 0-1.023-.687-1.723-1.67-1.723-.983 0-1.67.7-1.67 1.723 0 1.023.687 1.723 1.67 1.723zm0-.482c-.667 0-1.115-.522-1.115-1.241 0-.72.448-1.24 1.115-1.24s1.115.52 1.115 1.24-.448 1.24-1.115 1.24zm4.647-1.241c0 .759-.37 1.228-.984 1.228-.561 0-.878-.37-.878-1.07V4.634h-.541v1.874c0 1.116.588 1.532 1.327 1.532.554 0 .878-.238 1.076-.489l.072.449h.469V4.634h-.541v1.683zm5.362 0c0 .759-.369 1.228-.983 1.228-.561 0-.878-.37-.878-1.07V4.634h-.541v1.874c0 1.116.587 1.532 1.326 1.532.555 0 .878-.238 1.076-.489l.073.449h.468V4.634h-.541v1.683zm2.929-1.723c-.568 0-.911.238-1.109.495l-.072-.455h-.469V8h.541V6.317c0-.759.383-1.228 1.017-1.228.587 0 .91.37.91 1.07V8h.542V6.126c0-1.116-.601-1.532-1.36-1.532zm4.664.555c-.204-.324-.587-.555-1.155-.555-.93 0-1.617.693-1.617 1.723 0 1.096.687 1.723 1.617 1.723.568 0 .931-.271 1.155-.581l.073.541h.468V3.38h-.541v1.769zm-1.102 2.409c-.667 0-1.115-.508-1.115-1.241 0-.733.448-1.24 1.115-1.24.66 0 1.109.514 1.109 1.253 0 .72-.449 1.228-1.109 1.228zm3.932.482c.778 0 1.333-.495 1.465-1.169h-.548c-.112.436-.482.687-.957.687-.64 0-1.043-.449-1.063-1.09v-.045h2.614c.007-.08.013-.159.013-.231-.026-.997-.647-1.598-1.597-1.598s-1.597.7-1.597 1.723c0 1.03.66 1.723 1.67 1.723zm-1.07-2.066a.997.997 0 011.004-.904c.561 0 .957.323 1.009.904h-2.013zm4.769-1.34c-.6 0-.858.25-1.016.508l-.073-.508h-.468V8h.541V6.284c0-.535.191-1.122.898-1.122h.27v-.528h-.152zm.412 2.257c.013.74.614 1.149 1.485 1.149.746 0 1.346-.39 1.346-1.017 0-.746-.614-.89-1.379-.983-.489-.06-.845-.106-.845-.475 0-.31.317-.509.785-.509.462 0 .779.258.819.601h.554c-.053-.7-.607-1.056-1.373-1.063-.759-.006-1.32.396-1.32 1.01 0 .7.601.852 1.353.944.502.06.872.092.872.515 0 .31-.337.515-.812.515-.561 0-.911-.29-.931-.687h-.554zm3.683.231c0 .594.231.878.878.878h.587v-.495h-.535c-.29 0-.389-.106-.389-.39V5.13h.871v-.495h-.871V3.69h-.541v.944h-.607v.495h.607v1.993zm4.859.383c-.152 0-.218-.046-.218-.224V5.809c0-.786-.495-1.215-1.353-1.215-.812 0-1.346.39-1.425 1.05h.541c.066-.343.383-.568.858-.568.528 0 .838.264.838.7v.23h-.99c-.884 0-1.353.377-1.353 1.05 0 .614.502.984 1.241.984.581 0 .917-.258 1.128-.561.007.33.159.521.608.521h.297v-.495h-.172zm-.759-.878c0 .561-.389.95-1.063.95-.448 0-.732-.224-.732-.554 0-.383.27-.56.752-.56h1.043v.164zm2.997-2.033c-.568 0-.911.238-1.109.495l-.073-.455h-.468V8h.541V6.317c0-.759.383-1.228 1.016-1.228.588 0 .911.37.911 1.07V8h.541V6.126c0-1.116-.6-1.532-1.359-1.532zm4.664.555c-.205-.324-.588-.555-1.155-.555-.931 0-1.617.693-1.617 1.723 0 1.096.686 1.723 1.617 1.723.567 0 .93-.271 1.155-.581l.072.541h.469V3.38h-.541v1.769zm-1.102 2.409c-.667 0-1.116-.508-1.116-1.241 0-.733.449-1.24 1.116-1.24.66 0 1.108.514 1.108 1.253 0 .72-.448 1.228-1.108 1.228zm4.358-.436c0 .594.231.878.878.878h.588v-.495h-.535c-.29 0-.389-.106-.389-.39V5.13h.871v-.495h-.871V3.69h-.542v.944h-.607v.495h.607v1.993zm3.585-2.528c-.568 0-.911.278-1.109.594V3.38h-.541V8h.541V6.317c0-.759.389-1.228 1.016-1.228.581 0 .918.37.918 1.07V8h.541V6.126c0-1.116-.614-1.532-1.366-1.532zm3.568 3.446c.983 0 1.67-.7 1.67-1.723 0-1.023-.687-1.723-1.67-1.723-.983 0-1.67.7-1.67 1.723 0 1.023.687 1.723 1.67 1.723zm0-.482c-.667 0-1.115-.522-1.115-1.241 0-.72.448-1.24 1.115-1.24s1.115.52 1.115 1.24-.448 1.24-1.115 1.24zm2.139-.667c.013.74.614 1.149 1.485 1.149.746 0 1.346-.39 1.346-1.017 0-.746-.614-.89-1.379-.983-.489-.06-.845-.106-.845-.475 0-.31.317-.509.785-.509.462 0 .779.258.819.601h.554c-.053-.7-.607-1.056-1.373-1.063-.759-.006-1.32.396-1.32 1.01 0 .7.601.852 1.353.944.502.06.872.092.872.515 0 .31-.337.515-.812.515-.561 0-.911-.29-.931-.687h-.554zm4.983 1.149c.779 0 1.333-.495 1.465-1.169h-.548c-.112.436-.481.687-.957.687-.64 0-1.042-.449-1.062-1.09v-.045h2.613c.007-.08.014-.159.014-.231-.027-.997-.647-1.598-1.598-1.598-.95 0-1.597.7-1.597 1.723 0 1.03.66 1.723 1.67 1.723zm-1.069-2.066a.996.996 0 011.003-.904c.561 0 .957.323 1.01.904h-2.013zm6.496-1.34c-.601 0-.858.25-1.016.508l-.073-.508h-.469V8h.542V6.284c0-.535.191-1.122.897-1.122h.271v-.528h-.152zm.898-.568a.34.34 0 00.35-.35.34.34 0 00-.35-.35.34.34 0 00-.35.35c0 .205.152.35.35.35zM164.369 8h.541V4.634h-.541V8zm1.144-1.109c.013.74.614 1.149 1.485 1.149.746 0 1.346-.39 1.346-1.017 0-.746-.613-.89-1.379-.983-.488-.06-.845-.106-.845-.475 0-.31.317-.509.786-.509.462 0 .778.258.818.601h.554c-.052-.7-.607-1.056-1.372-1.063-.759-.006-1.32.396-1.32 1.01 0 .7.6.852 1.353.944.501.06.871.092.871.515 0 .31-.337.515-.812.515-.561 0-.911-.29-.931-.687h-.554zM168.945 8h.541v-.884l.68-.7L171.282 8h.653l-1.406-1.973 1.314-1.393h-.667l-1.69 1.789V3.38h-.541V8zm3.129-1.109c.014.74.614 1.149 1.485 1.149.746 0 1.347-.39 1.347-1.017 0-.746-.614-.89-1.38-.983-.488-.06-.844-.106-.844-.475 0-.31.316-.509.785-.509.462 0 .779.258.818.601h.555c-.053-.7-.607-1.056-1.373-1.063-.759-.006-1.32.396-1.32 1.01 0 .7.601.852 1.353.944.502.06.871.092.871.515 0 .31-.336.515-.812.515-.561 0-.91-.29-.93-.687h-.555zm6.856-2.297c-.568 0-.931.271-1.155.581V3.38h-.541V8h.468l.073-.515c.205.324.587.555 1.155.555.931 0 1.617-.693 1.617-1.723 0-1.096-.686-1.723-1.617-1.723zm-.053 2.964c-.66 0-1.109-.515-1.109-1.254 0-.72.449-1.228 1.109-1.228.667 0 1.116.508 1.116 1.241 0 .733-.449 1.24-1.116 1.24zm3.839.482c.779 0 1.334-.495 1.466-1.169h-.548c-.112.436-.482.687-.957.687-.64 0-1.043-.449-1.063-1.09v-.045h2.614c.006-.08.013-.159.013-.231-.026-.997-.647-1.598-1.597-1.598-.951 0-1.597.7-1.597 1.723 0 1.03.66 1.723 1.669 1.723zm-1.069-2.066a.996.996 0 011.003-.904c.561 0 .957.323 1.01.904h-2.013zm2.817-.845h.607V8h.541V5.129h.95v-.495h-.95v-.39c0-.257.099-.369.37-.369h.58V3.38h-.613c-.627 0-.878.284-.878.878v.376h-.607v.495zm3.886 2.91c.983 0 1.669-.699 1.669-1.722 0-1.023-.686-1.723-1.669-1.723-.984 0-1.67.7-1.67 1.723 0 1.023.686 1.723 1.67 1.723zm0-.481c-.667 0-1.116-.522-1.116-1.241 0-.72.449-1.24 1.116-1.24.666 0 1.115.52 1.115 1.24s-.449 1.24-1.115 1.24zm3.848-2.924c-.601 0-.858.25-1.017.508l-.072-.508h-.469V8h.541V6.284c0-.535.192-1.122.898-1.122h.271v-.528h-.152zm1.978 3.406c.779 0 1.333-.495 1.465-1.169h-.547c-.113.436-.482.687-.957.687-.641 0-1.043-.449-1.063-1.09v-.045h2.614c.006-.08.013-.159.013-.231-.027-.997-.647-1.598-1.597-1.598-.951 0-1.598.7-1.598 1.723 0 1.03.66 1.723 1.67 1.723zm-1.069-2.066a.996.996 0 011.003-.904c.561 0 .957.323 1.01.904h-2.013zm5.19 1.148c0 .594.231.878.877.878h.588v-.495h-.535c-.29 0-.389-.106-.389-.39V5.13h.871v-.495h-.871V3.69h-.541v.944h-.608v.495h.608v1.993zm3.491-2.488c-.6 0-.858.25-1.016.508l-.073-.508h-.468V8h.541V6.284c0-.535.191-1.122.898-1.122h.27v-.528h-.152zm3.482 2.871c-.152 0-.218-.046-.218-.224V5.809c0-.786-.495-1.215-1.353-1.215-.812 0-1.346.39-1.426 1.05h.542c.066-.343.382-.568.858-.568.528 0 .838.264.838.7v.23h-.99c-.885 0-1.353.377-1.353 1.05 0 .614.501.984 1.241.984.58 0 .917-.258 1.128-.561.007.33.159.521.607.521h.297v-.495h-.171zm-.759-.878c0 .561-.39.95-1.063.95-.449 0-.732-.224-.732-.554 0-.383.27-.56.752-.56h1.043v.164zm3.961-1.478c-.205-.324-.587-.555-1.155-.555-.931 0-1.617.693-1.617 1.723 0 1.096.686 1.723 1.617 1.723.568 0 .931-.271 1.155-.581l.073.541h.468V3.38h-.541v1.769zm-1.102 2.409c-.667 0-1.116-.508-1.116-1.241 0-.733.449-1.24 1.116-1.24.66 0 1.109.514 1.109 1.253 0 .72-.449 1.228-1.109 1.228zm2.658-3.492a.34.34 0 00.349-.35.34.34 0 00-.349-.35.34.34 0 00-.35.35c0 .205.152.35.35.35zM209.75 8h.542V4.634h-.542V8zm2.933-3.406c-.568 0-.911.238-1.109.495l-.072-.455h-.469V8h.541V6.317c0-.759.383-1.228 1.017-1.228.587 0 .91.37.91 1.07V8h.542V6.126c0-1.116-.601-1.532-1.36-1.532zm4.703.62c-.211-.375-.588-.62-1.155-.62-.931 0-1.617.693-1.617 1.723 0 1.096.686 1.723 1.617 1.723.567 0 .93-.238 1.155-.62v.395c0 .733-.383 1.063-1.089 1.063-.561 0-.937-.238-1.03-.66h-.554c.086.739.686 1.142 1.544 1.142 1.155 0 1.67-.555 1.67-1.525V4.634h-.469l-.072.58zm-1.102 2.344c-.667 0-1.116-.508-1.116-1.241 0-.733.449-1.24 1.116-1.24.66 0 1.108.514 1.108 1.253 0 .72-.448 1.228-1.108 1.228zm2.314.112c0 .224.159.37.377.37.217 0 .376-.146.376-.37s-.159-.37-.376-.37c-.218 0-.377.146-.377.37zm5.127-3.802l-.772.357.02-.852h-.377l.014.845-.766-.35-.152.37.805.297-.554.653.284.264.548-.693.554.693.29-.264-.547-.646.805-.297-.152-.377zm.91 4.132h.574V5.98h1.901v-.528h-1.901V3.908h2.297V3.38h-2.871V8zm4.765-3.366c-.601 0-.858.25-1.016.508l-.073-.508h-.469V8h.542V6.284c0-.535.191-1.122.897-1.122h.271v-.528h-.152zm1.979 3.406c.983 0 1.669-.7 1.669-1.723 0-1.023-.686-1.723-1.669-1.723-.984 0-1.67.7-1.67 1.723 0 1.023.686 1.723 1.67 1.723zm0-.482c-.667 0-1.116-.522-1.116-1.241 0-.72.449-1.24 1.116-1.24.666 0 1.115.52 1.115 1.24s-.449 1.24-1.115 1.24zm6.045-2.964c-.6 0-.963.278-1.168.64-.191-.428-.594-.64-1.062-.64-.522 0-.806.258-.984.502l-.072-.462h-.469V8h.541V6.225c0-.674.337-1.136.891-1.136.515 0 .812.344.812 1.004V8h.541V6.198c0-.686.343-1.109.904-1.109.509 0 .799.344.799 1.004V8h.541V6.06c0-1.063-.574-1.466-1.274-1.466zm4.428-.712c0 .23-.105.396-.323.396h-.752v.495h.745c.146 0 .251-.027.317-.086V8h.555V3.38h-.542v.502zM245.245 8l.489-1.247h2.013L248.235 8h.614l-1.756-4.62h-.679L244.651 8h.594zm1.492-3.993l.838 2.224h-1.67l.832-2.224zm4.252.587c-.568 0-.931.271-1.155.581l-.073-.541h-.469V9.32h.542V7.485c.204.324.587.555 1.155.555.93 0 1.617-.693 1.617-1.723 0-1.096-.687-1.723-1.617-1.723zm-.053 2.964c-.66 0-1.109-.515-1.109-1.254 0-.72.449-1.228 1.109-1.228.666 0 1.115.508 1.115 1.241 0 .733-.449 1.24-1.115 1.24zm3.846-2.924c-.601 0-.858.25-1.017.508l-.072-.508h-.469V8h.541V6.284c0-.535.192-1.122.898-1.122h.27v-.528h-.151zm.898-.568a.34.34 0 00.35-.35.34.34 0 00-.35-.35.34.34 0 00-.35.35c0 .205.152.35.35.35zM255.403 8h.541V4.634h-.541V8zm1.282 0h.541V3.38h-.541V8zm1.527-.693c-.277 0-.436.165-.436.383 0 .237.152.356.35.356a.335.335 0 00.225-.079c.006.026.006.053.006.086 0 .224-.132.521-.554.528v.31c.581-.013.93-.35.93-.91 0-.364-.198-.674-.521-.674zm4.355.733c.818 0 1.366-.462 1.498-1.188h-.574c-.106.429-.436.706-.918.706-.647 0-1.082-.502-1.082-1.234 0-.733.435-1.248 1.082-1.248.495 0 .825.27.924.72h.568c-.139-.74-.66-1.202-1.485-1.202-.977 0-1.644.7-1.644 1.73 0 1.049.647 1.716 1.631 1.716zm3.642 0c.983 0 1.67-.7 1.67-1.723 0-1.023-.687-1.723-1.67-1.723-.983 0-1.67.7-1.67 1.723 0 1.023.687 1.723 1.67 1.723zm0-.482c-.667 0-1.115-.522-1.115-1.241 0-.72.448-1.24 1.115-1.24s1.115.52 1.115 1.24-.448 1.24-1.115 1.24zm6.046-2.964c-.601 0-.964.278-1.168.64-.192-.428-.594-.64-1.063-.64a1.14 1.14 0 00-.983.502l-.073-.462h-.469V8h.542V6.225c0-.674.336-1.136.891-1.136.514 0 .811.344.811 1.004V8h.542V6.198c0-.686.343-1.109.904-1.109.508 0 .798.344.798 1.004V8h.542V6.06c0-1.063-.575-1.466-1.274-1.466zm5.723 0c-.6 0-.963.278-1.168.64-.191-.428-.594-.64-1.062-.64-.522 0-.806.258-.984.502l-.072-.462h-.469V8h.541V6.225c0-.674.337-1.136.891-1.136.515 0 .812.344.812 1.004V8h.541V6.198c0-.686.343-1.109.904-1.109.509 0 .799.344.799 1.004V8h.541V6.06c0-1.063-.574-1.466-1.274-1.466zm2.246-.528a.34.34 0 00.349-.35.34.34 0 00-.349-.35.34.34 0 00-.35.35c0 .205.152.35.35.35zM279.946 8h.542V4.634h-.542V8zm1.144-1.109c.014.74.614 1.149 1.485 1.149.746 0 1.347-.39 1.347-1.017 0-.746-.614-.89-1.38-.983-.488-.06-.844-.106-.844-.475 0-.31.316-.509.785-.509.462 0 .779.258.818.601h.555c-.053-.7-.607-1.056-1.373-1.063-.759-.006-1.32.396-1.32 1.01 0 .7.601.852 1.353.944.502.06.871.092.871.515 0 .31-.336.515-.812.515-.561 0-.91-.29-.93-.687h-.555zm3.229 0c.014.74.614 1.149 1.485 1.149.746 0 1.347-.39 1.347-1.017 0-.746-.614-.89-1.38-.983-.488-.06-.844-.106-.844-.475 0-.31.316-.509.785-.509.462 0 .779.258.818.601h.555c-.053-.7-.607-1.056-1.373-1.063-.759-.006-1.32.396-1.32 1.01 0 .7.601.852 1.353.944.502.06.871.092.871.515 0 .31-.336.515-.812.515-.561 0-.91-.29-.93-.687h-.555zm3.71-2.825a.34.34 0 00.35-.35.34.34 0 00-.35-.35.34.34 0 00-.35.35c0 .205.152.35.35.35zM287.752 8h.541V4.634h-.541V8zm2.833.04c.984 0 1.67-.7 1.67-1.723 0-1.023-.686-1.723-1.67-1.723-.983 0-1.67.7-1.67 1.723 0 1.023.687 1.723 1.67 1.723zm0-.482c-.666 0-1.115-.522-1.115-1.241 0-.72.449-1.24 1.115-1.24.667 0 1.116.52 1.116 1.24s-.449 1.24-1.116 1.24zm3.941-2.964c-.568 0-.911.238-1.109.495l-.073-.455h-.468V8h.541V6.317c0-.759.383-1.228 1.016-1.228.588 0 .911.37.911 1.07V8h.541V6.126c0-1.116-.6-1.532-1.359-1.532zm1.911 2.297c.013.74.613 1.149 1.485 1.149.745 0 1.346-.39 1.346-1.017 0-.746-.614-.89-1.379-.983-.489-.06-.845-.106-.845-.475 0-.31.317-.509.785-.509.462 0 .779.258.819.601h.554c-.053-.7-.607-1.056-1.373-1.063-.759-.006-1.32.396-1.32 1.01 0 .7.601.852 1.353.944.502.06.871.092.871.515 0 .31-.336.515-.811.515-.561 0-.911-.29-.931-.687h-.554zm5.021 0c.013.74.613 1.149 1.485 1.149.745 0 1.346-.39 1.346-1.017 0-.746-.614-.89-1.379-.983-.489-.06-.845-.106-.845-.475 0-.31.317-.509.785-.509.462 0 .779.258.819.601h.554c-.053-.7-.607-1.056-1.373-1.063-.759-.006-1.32.396-1.32 1.01 0 .7.601.852 1.353.944.502.06.871.092.871.515 0 .31-.336.515-.811.515-.561 0-.911-.29-.931-.687h-.554zm3.683.231c0 .594.231.878.877.878h.588v-.495h-.535c-.29 0-.389-.106-.389-.39V5.13h.871v-.495h-.871V3.69h-.541v.944h-.608v.495h.608v1.993zm4.859.383c-.152 0-.218-.046-.218-.224V5.809c0-.786-.495-1.215-1.353-1.215-.812 0-1.346.39-1.426 1.05h.542c.066-.343.382-.568.858-.568.528 0 .838.264.838.7v.23h-.99c-.885 0-1.353.377-1.353 1.05 0 .614.501.984 1.241.984.58 0 .917-.258 1.128-.561.007.33.159.521.607.521h.297v-.495H310zm-.759-.878c0 .561-.39.95-1.063.95-.449 0-.732-.224-.732-.554 0-.383.27-.56.752-.56h1.043v.164zm2.904-1.993c-.601 0-.858.25-1.016.508l-.073-.508h-.469V8h.542V6.284c0-.535.191-1.122.897-1.122h.271v-.528h-.152zm.981 2.488c0 .594.231.878.878.878h.587v-.495h-.534c-.291 0-.39-.106-.39-.39V5.13h.872v-.495h-.872V3.69h-.541v.944h-.607v.495h.607v1.993zm3.305-1.993h.608V8h.541V5.129h.95v-.495h-.95v-.39c0-.257.099-.369.369-.369h.581V3.38h-.614c-.627 0-.877.284-.877.878v.376h-.608v.495zm4.048-.495c-.601 0-.858.25-1.017.508l-.072-.508h-.469V8h.541V6.284c0-.535.192-1.122.898-1.122h.271v-.528h-.152zm1.978 3.406c.984 0 1.67-.7 1.67-1.723 0-1.023-.686-1.723-1.67-1.723-.983 0-1.669.7-1.669 1.723 0 1.023.686 1.723 1.669 1.723zm0-.482c-.666 0-1.115-.522-1.115-1.241 0-.72.449-1.24 1.115-1.24.667 0 1.116.52 1.116 1.24s-.449 1.24-1.116 1.24zm6.046-2.964c-.6 0-.963.278-1.168.64-.191-.428-.594-.64-1.063-.64a1.14 1.14 0 00-.983.502l-.073-.462h-.468V8h.541V6.225c0-.674.337-1.136.891-1.136.515 0 .812.344.812 1.004V8h.541V6.198c0-.686.343-1.109.904-1.109.508 0 .799.344.799 1.004V8h.541V6.06c0-1.063-.574-1.466-1.274-1.466zm3.748 1.433c0 1.32.601 2.013 1.756 2.013s1.769-.693 1.769-2.013V3.38h-.575v2.68c0 .957-.382 1.452-1.194 1.452-.799 0-1.182-.495-1.182-1.452V3.38h-.574v2.647zm4.212.462c.033.91.693 1.55 1.821 1.55.971 0 1.644-.56 1.644-1.359 0-.898-.772-1.148-1.525-1.274-.693-.119-1.254-.23-1.254-.785 0-.495.403-.76 1.003-.76.627 0 1.056.35 1.122.885h.594c-.052-.831-.686-1.406-1.716-1.406-.937 0-1.577.528-1.577 1.314 0 .897.766 1.142 1.511 1.267.7.119 1.268.238 1.268.812 0 .501-.443.785-1.063.785-.706 0-1.188-.409-1.234-1.03h-.594zM342.135 8c1.445 0 2.323-.93 2.323-2.31 0-1.386-.878-2.31-2.323-2.31h-1.478V8h1.478zm-.904-4.092h.904c1.122 0 1.736.7 1.736 1.782 0 1.076-.614 1.782-1.736 1.782h-.904V3.908zm7.23 2.772c0-.898-.772-1.148-1.524-1.274-.693-.119-1.254-.23-1.254-.785 0-.495.402-.76 1.003-.76.627 0 1.056.35 1.122.885h.594c-.046-.739-.548-1.274-1.379-1.386v-.693h-.502v.68c-.845.06-1.412.568-1.412 1.307 0 .897.765 1.142 1.511 1.267.7.119 1.267.238 1.267.812 0 .501-.442.785-1.062.785-.707 0-1.188-.409-1.235-1.03h-.594c.033.826.581 1.433 1.525 1.538v.68h.502v-.673c.858-.073 1.438-.614 1.438-1.353zm2.914-1.082c.442-.12.746-.456.746-1.037 0-.726-.601-1.22-1.551-1.22-.911 0-1.545.56-1.551 1.372h.547c.007-.528.429-.878 1.01-.878.555 0 .977.29.977.76 0 .468-.343.811-1.03.811h-.363v.482h.396c.72 0 1.116.31 1.116.792 0 .528-.462.865-1.063.865-.653 0-1.128-.363-1.135-.97h-.548c0 .917.647 1.465 1.65 1.465s1.663-.535 1.663-1.32c0-.707-.442-1.043-.864-1.122zm1.279 2.072c0 .224.159.37.377.37.217 0 .376-.146.376-.37s-.159-.37-.376-.37c-.218 0-.377.146-.377.37z" fill="#000"/></svg>