<svg width="164" height="26" viewBox="0 0 164 26" fill="none" xmlns="http://www.w3.org/2000/svg"><path d="M2.124 9V3.048L6.216 9h1.26V.6H6.12v5.952L2.028.6H.768V9h1.356zm9.666.072c1.524 0 2.556-.924 2.772-2.136h-1.296c-.18.684-.756 1.08-1.548 1.08-1.02 0-1.68-.684-1.716-1.728v-.084h4.632a3.52 3.52 0 00.036-.492c-.036-1.8-1.224-2.928-3-2.928-1.812 0-3.024 1.26-3.024 3.156 0 1.884 1.212 3.132 3.144 3.132zm-1.74-3.816c.096-.876.804-1.428 1.632-1.428.9 0 1.536.516 1.644 1.428H10.05zM16.923 9h1.404l1.344-4.176L20.967 9h1.392l2.04-6.144h-1.32L21.627 7.56l-1.344-4.704h-1.188L17.691 7.56l-1.404-4.704H14.92L16.923 9zm11.36 0h1.38V5.952h1.849L33.132 9h1.536l-1.776-3.348c.984-.348 1.632-1.248 1.632-2.376C34.524 1.644 33.348.6 31.596.6h-3.312V9zm3.205-7.2c.984 0 1.62.576 1.62 1.476s-.636 1.476-1.62 1.476h-1.824V1.8h1.824zm9.545 6.072c-.264 0-.396-.084-.396-.396v-2.46c0-1.452-.936-2.232-2.568-2.232-1.548 0-2.58.744-2.712 1.944h1.272c.096-.54.612-.9 1.38-.9.852 0 1.344.42 1.344 1.104v.372h-1.548c-1.716 0-2.628.708-2.628 1.968 0 1.14.936 1.8 2.28 1.8.996 0 1.62-.432 2.028-1.056 0 .612.288.984 1.128.984h.684V7.872h-.264zm-1.68-1.392c-.012.948-.636 1.584-1.716 1.584-.708 0-1.14-.36-1.14-.876 0-.624.444-.924 1.248-.924h1.608v.216zM43.232 9h1.404l1.344-4.176L47.276 9h1.392l2.04-6.144h-1.32L47.936 7.56l-1.344-4.704h-1.188L44 7.56l-1.404-4.704h-1.368L43.232 9zm11.36 0h1.38V5.448h3.288V4.26h-3.288V1.824h3.984V.6h-5.364V9zm5.81 0h1.56l2.064-3.228L66.078 9h1.644l-2.796-4.356L67.554.6h-1.56l-1.92 2.988L62.19.6h-1.632l2.628 4.104L60.402 9zm16.784-1.128c-.264 0-.396-.084-.396-.396v-2.46c0-1.452-.936-2.232-2.568-2.232-1.548 0-2.58.744-2.712 1.944h1.272c.096-.54.612-.9 1.38-.9.852 0 1.344.42 1.344 1.104v.372h-1.548c-1.716 0-2.628.708-2.628 1.968 0 1.14.936 1.8 2.28 1.8.996 0 1.62-.432 2.028-1.056 0 .612.288.984 1.128.984h.684V7.872h-.264zm-1.68-1.392c-.012.948-.636 1.584-1.716 1.584-.708 0-1.14-.36-1.14-.876 0-.624.444-.924 1.248-.924h1.608v.216zm5.423 2.592c1.572 0 2.616-.876 2.856-2.268h-1.368c-.156.708-.684 1.164-1.476 1.164-1.044 0-1.728-.828-1.728-2.028 0-1.212.684-2.052 1.728-2.052.804 0 1.32.444 1.488 1.164h1.356c-.252-1.392-1.236-2.268-2.82-2.268-1.86 0-3.084 1.26-3.084 3.156 0 1.92 1.188 3.132 3.048 3.132zm6.668 0c1.572 0 2.616-.876 2.856-2.268h-1.368c-.156.708-.684 1.164-1.476 1.164-1.044 0-1.728-.828-1.728-2.028 0-1.212.684-2.052 1.728-2.052.804 0 1.32.444 1.488 1.164h1.356c-.252-1.392-1.236-2.268-2.82-2.268-1.86 0-3.084 1.26-3.084 3.156 0 1.92 1.188 3.132 3.048 3.132zm6.752 0c1.872 0 3.132-1.26 3.132-3.144 0-1.872-1.26-3.144-3.132-3.144s-3.132 1.272-3.132 3.144c0 1.884 1.26 3.144 3.132 3.144zm0-1.104c-1.092 0-1.8-.852-1.8-2.04 0-1.188.708-2.04 1.8-2.04s1.812.852 1.812 2.04c0 1.188-.72 2.04-1.812 2.04zm8.386-2.04c0 1.272-.6 2.016-1.584 2.016-.948 0-1.428-.612-1.428-1.812V2.856h-1.296v3.42c0 2.1 1.116 2.796 2.424 2.796.948 0 1.512-.384 1.896-.852l.144.78h1.14V2.856h-1.296v3.072zm5.813-3.144c-.996 0-1.584.396-1.968.876l-.144-.804h-1.128V9h1.296V5.904c0-1.248.612-2.004 1.644-2.004.972 0 1.464.624 1.464 1.788V9h1.308V5.58c0-2.052-1.116-2.796-2.472-2.796zm4.095 4.548c0 1.116.503 1.668 1.68 1.668h1.2V7.86h-.912c-.492 0-.66-.18-.66-.66V3.996h1.5v-1.14h-1.5V1.14h-1.308v1.716h-1.068v1.14h1.068v3.336zm3.654.924c0 .48.348.816.828.816s.84-.336.84-.816c0-.48-.36-.816-.84-.816s-.828.336-.828.816zM.432 15.812h4.572L.3 22.052V23h6.72v-1.212H2.184l4.704-6.24V14.6H.432v1.212zm10.14 7.26c1.524 0 2.556-.924 2.772-2.136h-1.296c-.18.684-.757 1.08-1.549 1.08-1.02 0-1.68-.684-1.715-1.728v-.084h4.631a3.52 3.52 0 00.037-.492c-.037-1.8-1.225-2.928-3-2.928-1.812 0-3.024 1.26-3.024 3.156 0 1.884 1.212 3.132 3.144 3.132zm-1.74-3.816c.096-.876.804-1.428 1.631-1.428.9 0 1.537.516 1.645 1.428H8.832zm8.775-2.4c-1.008 0-1.5.408-1.812.924l-.144-.924H14.5V23h1.296v-3.084c0-.948.372-1.848 1.524-1.848h.576v-1.212h-.288zm3.699 6.216c1.872 0 3.132-1.26 3.132-3.144 0-1.872-1.26-3.144-3.132-3.144s-3.132 1.272-3.132 3.144c0 1.884 1.26 3.144 3.132 3.144zm0-1.104c-1.092 0-1.8-.852-1.8-2.04 0-1.188.708-2.04 1.8-2.04s1.812.852 1.812 2.04c0 1.188-.72 2.04-1.812 2.04zm10.532-5.184c-.96 0-1.596.444-2.004.984l-.156-.912H28.55V25.4h1.296v-3.264c.384.552 1.044.936 1.992.936 1.68 0 2.904-1.248 2.904-3.144 0-1.968-1.224-3.144-2.904-3.144zm-.216 5.196c-1.08 0-1.788-.852-1.788-2.076 0-1.188.708-2.016 1.788-2.016s1.8.828 1.8 2.04c0 1.2-.72 2.052-1.8 2.052zm4.819-5.988c.444 0 .791-.324.791-.78s-.347-.78-.791-.78c-.445 0-.793.324-.793.78s.348.78.792.78zM35.78 23h1.296v-6.144H35.78V23zm5.854-6.216c-.96 0-1.596.444-2.004.984l-.156-.912h-1.128V25.4h1.296v-3.264c.384.552 1.044.936 1.992.936 1.68 0 2.904-1.248 2.904-3.144 0-1.968-1.224-3.144-2.904-3.144zm-.216 5.196c-1.08 0-1.788-.852-1.788-2.076 0-1.188.708-2.016 1.788-2.016s1.8.828 1.8 2.04c0 1.2-.72 2.052-1.8 2.052zm3.86-1.008c.035 1.332 1.163 2.1 2.807 2.1 1.488 0 2.604-.744 2.604-1.92 0-1.368-1.14-1.656-2.544-1.824-.888-.096-1.476-.168-1.476-.744 0-.492.504-.804 1.272-.804s1.296.396 1.368.96h1.272c-.084-1.26-1.152-1.956-2.664-1.956-1.476-.012-2.52.744-2.52 1.908 0 1.272 1.104 1.572 2.508 1.74.948.12 1.512.168 1.512.828 0 .492-.528.804-1.332.804-.936 0-1.488-.456-1.536-1.092h-1.272zm6.214 1.284c0 .48.348.816.828.816s.84-.336.84-.816c0-.48-.36-.816-.84-.816s-.828.336-.828.816zm5.67-6.444h4.572l-4.704 6.24V23h6.72v-1.212h-4.837l4.704-6.24V14.6h-6.456v1.212zm10.139 7.26c1.524 0 2.556-.924 2.772-2.136h-1.296c-.18.684-.756 1.08-1.548 1.08-1.02 0-1.68-.684-1.716-1.728v-.084h4.632a3.52 3.52 0 00.036-.492c-.036-1.8-1.224-2.928-3-2.928-1.812 0-3.024 1.26-3.024 3.156 0 1.884 1.212 3.132 3.144 3.132zm-1.74-3.816c.096-.876.804-1.428 1.632-1.428.9 0 1.536.516 1.644 1.428h-3.276zm8.776-2.4c-1.008 0-1.5.408-1.812.924l-.144-.924H71.23V23h1.296v-3.084c0-.948.372-1.848 1.524-1.848h.576v-1.212h-.288zm3.698 6.216c1.872 0 3.132-1.26 3.132-3.144 0-1.872-1.26-3.144-3.132-3.144s-3.132 1.272-3.132 3.144c0 1.884 1.26 3.144 3.132 3.144zm0-1.104c-1.092 0-1.8-.852-1.8-2.04 0-1.188.708-2.04 1.8-2.04s1.812.852 1.812 2.04c0 1.188-.72 2.04-1.812 2.04zM88.1 23.072c1.573 0 2.617-.876 2.857-2.268h-1.368c-.156.708-.684 1.164-1.477 1.164-1.043 0-1.727-.828-1.727-2.028 0-1.212.683-2.052 1.727-2.052.805 0 1.32.444 1.489 1.164h1.356c-.252-1.392-1.236-2.268-2.82-2.268-1.86 0-3.085 1.26-3.085 3.156 0 1.92 1.188 3.132 3.048 3.132zm6.753 0c1.872 0 3.132-1.26 3.132-3.144 0-1.872-1.26-3.144-3.132-3.144s-3.132 1.272-3.132 3.144c0 1.884 1.26 3.144 3.132 3.144zm0-1.104c-1.093 0-1.8-.852-1.8-2.04 0-1.188.707-2.04 1.8-2.04 1.092 0 1.812.852 1.812 2.04 0 1.188-.72 2.04-1.813 2.04zm11.242-5.184c-1.008 0-1.704.444-2.1 1.116-.372-.792-1.092-1.116-1.896-1.116-.924.012-1.452.42-1.8.876l-.144-.804h-1.128V23h1.296v-3.288c0-1.092.552-1.812 1.44-1.812.852 0 1.296.564 1.296 1.644V23h1.308v-3.324c0-1.104.564-1.776 1.452-1.776.84 0 1.284.564 1.284 1.644V23h1.296v-3.54c0-1.944-1.032-2.676-2.304-2.676zm10.547 0c-1.008 0-1.704.444-2.1 1.116-.372-.792-1.092-1.116-1.896-1.116-.924.012-1.452.42-1.8.876l-.145-.804h-1.127V23h1.296v-3.288c0-1.092.552-1.812 1.44-1.812.852 0 1.296.564 1.296 1.644V23h1.308v-3.324c0-1.104.564-1.776 1.452-1.776.84 0 1.284.564 1.284 1.644V23h1.296v-3.54c0-1.944-1.032-2.676-2.304-2.676zm4.138-.792c.444 0 .792-.324.792-.78s-.348-.78-.792-.78c-.444 0-.792.324-.792.78s.348.78.792.78zM120.12 23h1.296v-6.144h-1.296V23zm2.303-2.028c.036 1.332 1.164 2.1 2.808 2.1 1.488 0 2.604-.744 2.604-1.92 0-1.368-1.14-1.656-2.544-1.824-.888-.096-1.476-.168-1.476-.744 0-.492.504-.804 1.272-.804s1.296.396 1.368.96h1.272c-.084-1.26-1.152-1.956-2.664-1.956-1.476-.012-2.52.744-2.52 1.908 0 1.272 1.104 1.572 2.508 1.74.948.12 1.512.168 1.512.828 0 .492-.528.804-1.332.804-.936 0-1.488-.456-1.536-1.092h-1.272zm6.035 0c.036 1.332 1.164 2.1 2.808 2.1 1.488 0 2.604-.744 2.604-1.92 0-1.368-1.14-1.656-2.544-1.824-.888-.096-1.476-.168-1.476-.744 0-.492.504-.804 1.272-.804s1.296.396 1.368.96h1.272c-.084-1.26-1.152-1.956-2.664-1.956-1.476-.012-2.52.744-2.52 1.908 0 1.272 1.104 1.572 2.508 1.74.948.12 1.512.168 1.512.828 0 .492-.528.804-1.332.804-.936 0-1.488-.456-1.536-1.092h-1.272zm7.076-4.98c.444 0 .792-.324.792-.78s-.348-.78-.792-.78c-.444 0-.792.324-.792.78s.348.78.792.78zm-.66 7.008h1.296v-6.144h-1.296V23zm5.471.072c1.872 0 3.132-1.26 3.132-3.144 0-1.872-1.26-3.144-3.132-3.144s-3.132 1.272-3.132 3.144c0 1.884 1.26 3.144 3.132 3.144zm0-1.104c-1.092 0-1.8-.852-1.8-2.04 0-1.188.708-2.04 1.8-2.04s1.812.852 1.812 2.04c0 1.188-.72 2.04-1.812 2.04zm7.414-5.184c-.996 0-1.584.396-1.968.876l-.144-.804h-1.128V23h1.296v-3.096c0-1.248.612-2.004 1.644-2.004.972 0 1.464.624 1.464 1.788V23h1.308v-3.42c0-2.052-1.116-2.796-2.472-2.796zm3.386 4.188c.036 1.332 1.164 2.1 2.808 2.1 1.488 0 2.604-.744 2.604-1.92 0-1.368-1.14-1.656-2.544-1.824-.888-.096-1.476-.168-1.476-.744 0-.492.504-.804 1.272-.804s1.296.396 1.368.96h1.272c-.084-1.26-1.152-1.956-2.664-1.956-1.476-.012-2.52.744-2.52 1.908 0 1.272 1.104 1.572 2.508 1.74.948.12 1.512.168 1.512.828 0 .492-.528.804-1.332.804-.936 0-1.488-.456-1.536-1.092h-1.272zm6.215 1.284c0 .48.348.816.828.816s.84-.336.84-.816c0-.48-.36-.816-.84-.816s-.828.336-.828.816zm5.315-6.828l-1.32.636.036-1.476h-.888l.036 1.464-1.308-.624-.36.84 1.416.528-.984 1.116.684.6.948-1.248.96 1.26.696-.6-.984-1.116 1.428-.528-.36-.852z" fill="#000"/></svg>