<svg width="73" height="10" viewBox="0 0 73 10" fill="none" xmlns="http://www.w3.org/2000/svg"><path d="M2.241 2.236c.322-.34.694-.607 1.118-.801a3.214 3.214 0 011.356-.291c.529 0 .954.068 1.276.206.322.137.633.335.935.595a.636.636 0 00.85-.018.499.499 0 00.164-.383.872.872 0 00-.019-.19.447.447 0 00-.073-.157.67.67 0 00-.153-.152c-.457-.372-.91-.64-1.362-.801C5.882.081 5.343 0 4.715 0c-.669 0-1.287.126-1.857.376-.57.25-1.069.599-1.496 1.04A4.822 4.822 0 00.36 2.958 4.98 4.98 0 000 4.86c0 .688.12 1.328.36 1.92.24.591.573 1.108 1.002 1.549a4.615 4.615 0 003.353 1.403c.554 0 1.081-.089 1.582-.267a4.93 4.93 0 001.41-.79.622.622 0 00.195-.45.582.582 0 00-.145-.42.555.555 0 00-.36-.17.642.642 0 00-.434.14c-.342.25-.699.448-1.07.59-.37.141-.763.212-1.178.212-.481 0-.932-.096-1.356-.286a3.51 3.51 0 01-1.118-.796A3.692 3.692 0 011.49 6.31a3.885 3.885 0 01-.27-1.452c0-.51.09-.99.27-1.44a3.7 3.7 0 01.751-1.183zM10.396.122a.63.63 0 00-.452.176.602.602 0 00-.183.455v8.226a.62.62 0 00.636.632c.186 0 .34-.06.457-.182a.619.619 0 00.176-.45V.753a.615.615 0 00-.176-.455.622.622 0 00-.458-.176zM19.448.122h-6.535a.576.576 0 00-.422.164.568.568 0 00-.165.42c0 .17.056.31.165.42.11.108.25.163.422.163h2.639v7.692a.62.62 0 00.636.632c.178 0 .329-.06.451-.183a.608.608 0 00.184-.45V1.289h2.626a.576.576 0 00.422-.164.568.568 0 00.165-.42.57.57 0 00-.165-.42.578.578 0 00-.423-.162zM29.194.274a.49.49 0 00-.367-.152c-.13 0-.24.026-.33.079a.71.71 0 00-.231.224l-2.908 4.562L22.5.475a.998.998 0 00-.232-.261.542.542 0 00-.33-.09.64.64 0 00-.409.14.56.56 0 00-.213.364c-.025.15.016.31.123.48l3.26 5.043v2.832c0 .179.06.328.183.45.123.12.27.182.44.182.18 0 .33-.06.453-.182a.609.609 0 00.183-.45V6.15l3.286-5.043a.701.701 0 00.123-.455.638.638 0 00-.173-.377zM35.657.122a.63.63 0 00-.452.176.602.602 0 00-.183.455v8.226a.62.62 0 00.635.632c.187 0 .34-.06.458-.182a.618.618 0 00.176-.45V.753a.615.615 0 00-.176-.455.622.622 0 00-.458-.176zM45.28.122a.63.63 0 00-.453.176.602.602 0 00-.183.455V7.4L39.319.353a.616.616 0 00-.49-.23.607.607 0 00-.445.175.612.612 0 00-.177.455v8.226c0 .179.06.328.177.45.117.12.266.182.445.182.188 0 .34-.06.458-.182a.624.624 0 00.177-.45V2.345l5.325 7.047a.524.524 0 00.225.164.72.72 0 00.263.055.59.59 0 00.452-.182.636.636 0 00.171-.45V.753a.622.622 0 00-.171-.455.593.593 0 00-.45-.176z" fill="#000"/><path fill-rule="evenodd" clip-rule="evenodd" d="M54.013 1.452a4.4 4.4 0 00-1.496-.984 5.081 5.081 0 00-1.912-.346h-2.211c-.18 0-.33.06-.453.176a.602.602 0 00-.183.455v8.226a.62.62 0 00.636.632h2.21c.7 0 1.338-.115 1.913-.346a4.413 4.413 0 001.496-.984c.423-.424.749-.927.977-1.507a5.178 5.178 0 00.341-1.913c0-.697-.113-1.333-.341-1.907a4.4 4.4 0 00-.977-1.502zm-.355 5.286a3.354 3.354 0 01-1.24 1.288c-.524.312-1.129.468-1.813.468h-1.576V1.24h1.576c.684 0 1.288.153 1.814.461.525.308.939.733 1.24 1.276.3.543.452 1.17.452 1.884 0 .704-.15 1.33-.453 1.877z" fill="#000"/><path d="M63.191 1.288a.638.638 0 00.452-.159.538.538 0 00.172-.413.567.567 0 00-.172-.431.627.627 0 00-.452-.164h-5.522a.63.63 0 00-.452.175.602.602 0 00-.183.456v8.226a.62.62 0 00.635.632h5.522a.63.63 0 00.452-.164.572.572 0 00.172-.431.533.533 0 00-.172-.414.641.641 0 00-.452-.158h-4.886V5.408h3.506a.63.63 0 00.452-.164.558.558 0 00.171-.42c0-.17-.056-.31-.171-.42a.627.627 0 00-.452-.164h-3.506V1.288h4.886zM70.08 4.81l2.785-3.693a.727.727 0 00.134-.45.597.597 0 00-.158-.388.525.525 0 00-.404-.158.59.59 0 00-.452.182l-2.737 3.623L66.623.304c-.09-.122-.24-.182-.452-.182a.519.519 0 00-.409.17.693.693 0 00-.177.402.586.586 0 00.123.425L68.39 4.82l-2.843 3.77a.7.7 0 00-.146.431c0 .158.049.297.146.414.098.118.24.175.428.175a.6.6 0 00.44-.182l2.804-3.712 2.657 3.664c.065.08.136.14.214.175a.637.637 0 00.275.055c.18 0 .32-.056.422-.17a.645.645 0 00.165-.413.656.656 0 00-.135-.438L70.08 4.81z" fill="#000"/></svg>