<svg width="189" height="48" viewBox="0 0 189 48" fill="none" xmlns="http://www.w3.org/2000/svg"><path d="M7.36 15.12c3 0 5.12-1.62 5.72-4.44h-1.14c-.6 2.24-2.22 3.44-4.6 3.44-3.24 0-5.28-2.54-5.28-6.12s2.08-6.12 5.32-6.12c2.34 0 3.98 1.22 4.6 3.42h1.14C12.5 2.5 10.38.88 7.44.88 3.5.88.94 3.8.94 8c0 4.24 2.5 7.12 6.42 7.12zm16.725-1.06c-.6 0-.9-.2-.9-.98V8.36c0-2.32-1.42-3.62-3.96-3.62-2.32 0-3.86 1.12-4.12 2.96h1.02c.26-1.24 1.34-2.06 3.06-2.06 1.9 0 2.98 1 2.98 2.68v.88h-3.44c-2.6 0-4 1.12-4 3.02 0 1.8 1.42 2.9 3.58 2.9 2.06 0 3.28-.94 3.9-2.2v.36c-.04 1.2.46 1.72 1.66 1.72h.6v-.94h-.38zm-1.92-3.16c0 1.94-1.38 3.34-3.78 3.34-1.62 0-2.62-.82-2.62-2.08 0-1.34 1-2.08 2.88-2.08h3.52v.82zm8.344-6.16c-1.86 0-3.06.96-3.64 2.28l-.16-2.16h-.88V15h1.02v-5c0-2.64 1.34-4.32 3.5-4.32 1.96 0 3.14 1.28 3.14 3.68V15h1.02V9.32c0-3.2-1.7-4.58-4-4.58zm11.368 5.96c.14 2.64 2.06 4.42 5.2 4.42 2.94 0 4.88-1.6 4.88-3.96 0-2.66-2.36-3.34-4.68-3.74-2.14-.36-4-.72-4-2.72 0-1.82 1.42-2.84 3.62-2.84 2.1 0 3.54 1.18 3.78 3h1.1c-.2-2.4-2.02-3.98-4.88-3.98-2.84 0-4.7 1.5-4.7 3.88 0 2.66 2.28 3.26 4.52 3.64 2.2.38 4.16.82 4.16 2.86 0 1.8-1.52 2.88-3.78 2.88-2.36 0-3.96-1.36-4.1-3.44h-1.12zm12.734-7.98c.4 0 .72-.3.72-.72s-.32-.72-.72-.72c-.4 0-.72.3-.72.72s.32.72.72.72zM54.09 15h1.02V4.86h-1.02V15zm3.418 0h1.02V1h-1.02v14zm3.938-12.28c.4 0 .72-.3.72-.72s-.32-.72-.72-.72c-.4 0-.72.3-.72.72s.32.72.72.72zM60.927 15h1.02V4.86h-1.02V15zm7.837.12c2.3 0 3.92-1.32 4.32-3.38h-1.08c-.34 1.5-1.56 2.46-3.24 2.46-2.22 0-3.76-1.74-3.76-4.26 0-2.52 1.52-4.3 3.76-4.3 1.7 0 2.9.96 3.26 2.48h1.06c-.42-2.1-2-3.38-4.3-3.38-2.86 0-4.82 2.12-4.82 5.2 0 3.12 1.94 5.18 4.8 5.18zm10.783 0c2.86 0 4.88-2.12 4.88-5.2 0-3.06-2.02-5.18-4.88-5.18s-4.86 2.12-4.86 5.18c0 3.08 2 5.2 4.86 5.2zm0-.92c-2.26 0-3.82-1.76-3.82-4.28 0-2.5 1.56-4.28 3.82-4.28s3.82 1.78 3.82 4.28c0 2.52-1.56 4.28-3.82 4.28zm11.587-9.46c-1.86 0-3.06.96-3.64 2.28l-.16-2.16h-.88V15h1.02v-5c0-2.64 1.34-4.32 3.5-4.32 1.96 0 3.14 1.28 3.14 3.68V15h1.02V9.32c0-3.2-1.7-4.58-4-4.58zM107.002 15h1.3l5.22-14h-1.12l-4.74 12.7-4.74-12.7h-1.16l5.24 14zm15.696-.94c-.6 0-.9-.2-.9-.98V8.36c0-2.32-1.42-3.62-3.96-3.62-2.32 0-3.86 1.12-4.12 2.96h1.02c.26-1.24 1.34-2.06 3.06-2.06 1.9 0 2.98 1 2.98 2.68v.88h-3.44c-2.6 0-4 1.12-4 3.02 0 1.8 1.42 2.9 3.58 2.9 2.06 0 3.28-.94 3.9-2.2v.36c-.04 1.2.46 1.72 1.66 1.72h.6v-.94h-.38zm-1.92-3.16c0 1.94-1.38 3.34-3.78 3.34-1.62 0-2.62-.82-2.62-2.08 0-1.34 1-2.08 2.88-2.08h3.52v.82zm3.664 4.1h1.02V1h-1.02v14zm3.418 0h1.02V1h-1.02v14zm7.898.12c2.22 0 3.92-1.44 4.36-3.48h-1.04c-.4 1.58-1.74 2.56-3.4 2.56-2.26 0-3.68-1.72-3.72-4.08v-.18h8.28c0-.14.02-.3.02-.42-.1-3.02-1.96-4.78-4.68-4.78-2.78 0-4.68 2.12-4.68 5.12 0 3.18 1.98 5.26 4.86 5.26zm-3.72-6.04c.16-2.06 1.7-3.44 3.56-3.44 1.98 0 3.4 1.22 3.56 3.44h-7.12zM144.885 15l-.66 1.64c-.46 1.12-.64 1.42-1.68 1.42h-1.28V19h1.56c1.36 0 1.68-.52 2.32-2.12l4.86-12.02h-1.1l-3.46 8.82-3.52-8.82h-1.1l4.06 10.14zm16.021-10.14c-1.88 0-2.68.9-3.1 2.02l-.16-2.02h-.88V15h1.02V9.86c0-2.06.54-4.02 2.92-4.02h.74v-.98h-.54zm10.542 9.2c-.6 0-.9-.2-.9-.98V8.36c0-2.32-1.42-3.62-3.96-3.62-2.32 0-3.86 1.12-4.12 2.96h1.02c.26-1.24 1.34-2.06 3.06-2.06 1.9 0 2.98 1 2.98 2.68v.88h-3.44c-2.6 0-4 1.12-4 3.02 0 1.8 1.42 2.9 3.58 2.9 2.06 0 3.28-.94 3.9-2.2v.36c-.04 1.2.46 1.72 1.66 1.72h.6v-.94h-.38zm-1.92-3.16c0 1.94-1.38 3.34-3.78 3.34-1.62 0-2.62-.82-2.62-2.08 0-1.34 1-2.08 2.88-2.08h3.52v.82zm3.664 4.1h1.02V1h-1.02v14zm3.418 0h1.02V1h-1.02v14zm6.458 0l-.66 1.64c-.46 1.12-.64 1.42-1.68 1.42h-1.28V19h1.56c1.36 0 1.68-.52 2.32-2.12l4.86-12.02h-1.1l-3.46 8.82-3.52-8.82h-1.1l4.06 10.14zM10.12 42.06c-.6 0-.9-.2-.9-.98v-4.72c0-2.32-1.42-3.62-3.96-3.62-2.32 0-3.86 1.12-4.12 2.96h1.02c.26-1.24 1.34-2.06 3.06-2.06 1.9 0 2.98 1 2.98 2.68v.88H4.76c-2.6 0-4 1.12-4 3.02 0 1.8 1.42 2.9 3.58 2.9 2.06 0 3.28-.94 3.9-2.2v.36C8.2 42.48 8.7 43 9.9 43h.6v-.94h-.38zM8.2 38.9c0 1.94-1.38 3.34-3.78 3.34-1.62 0-2.62-.82-2.62-2.08 0-1.34 1-2.08 2.88-2.08H8.2v.82zm8.344-6.16c-1.9 0-3.08 1.06-3.66 2.52V29h-1.02v14h1.02v-5c0-2.64 1.34-4.32 3.5-4.32 1.94 0 3.14 1.28 3.14 3.68V43h1.02v-5.68c0-3.2-1.7-4.58-4-4.58zm10.6 10.38c2.22 0 3.92-1.44 4.36-3.48h-1.04c-.4 1.58-1.74 2.56-3.4 2.56-2.26 0-3.68-1.72-3.72-4.08v-.18h8.28c0-.14.02-.3.02-.42-.1-3.02-1.96-4.78-4.68-4.78-2.78 0-4.68 2.12-4.68 5.12 0 3.18 1.98 5.26 4.86 5.26zm-3.72-6.04c.16-2.06 1.7-3.44 3.56-3.44 1.98 0 3.4 1.22 3.56 3.44h-7.12zm19.157 4.98c-.6 0-.9-.2-.9-.98v-4.72c0-2.32-1.42-3.62-3.96-3.62-2.32 0-3.86 1.12-4.12 2.96h1.02c.26-1.24 1.34-2.06 3.06-2.06 1.9 0 2.98 1 2.98 2.68v.88h-3.44c-2.6 0-4 1.12-4 3.02 0 1.8 1.42 2.9 3.58 2.9 2.06 0 3.28-.94 3.9-2.2v.36c-.04 1.2.46 1.72 1.66 1.72h.6v-.94h-.38zm-1.92-3.16c0 1.94-1.38 3.34-3.78 3.34-1.62 0-2.62-.82-2.62-2.08 0-1.34 1-2.08 2.88-2.08h3.52v.82zm11.788-3.76c-.62-1.44-1.98-2.4-3.88-2.4-2.78 0-4.78 2.12-4.78 5.18 0 3.2 2 5.2 4.78 5.2 1.9 0 3.22-1.02 3.86-2.44l.16 2.32h.88V29h-1.02v6.14zm-3.8 7.06c-2.26 0-3.82-1.76-3.82-4.28 0-2.5 1.56-4.28 3.82-4.28s3.82 1.78 3.82 4.3c0 2.5-1.56 4.26-3.82 4.26zm17.09.92c2.86 0 4.88-2.12 4.88-5.2 0-3.06-2.02-5.18-4.88-5.18s-4.86 2.12-4.86 5.18c0 3.08 2 5.2 4.86 5.2zm0-.92c-2.26 0-3.82-1.76-3.82-4.28 0-2.5 1.56-4.28 3.82-4.28s3.82 1.78 3.82 4.28c0 2.52-1.56 4.28-3.82 4.28zm5.59-8.4h1.92V43h1.02v-9.2h3.04v-.94h-3.04v-1.52c0-1 .38-1.4 1.4-1.4h1.66V29h-1.7c-1.7 0-2.38.74-2.38 2.36v1.5h-1.92v.94zm17.085 9.32c2.22 0 3.92-1.44 4.36-3.48h-1.04c-.4 1.58-1.74 2.56-3.4 2.56-2.26 0-3.68-1.72-3.72-4.08v-.18h8.28c0-.14.02-.3.02-.42-.1-3.02-1.96-4.78-4.68-4.78-2.78 0-4.68 2.12-4.68 5.12 0 3.18 1.98 5.26 4.86 5.26zm-3.72-6.04c.16-2.06 1.7-3.44 3.56-3.44 1.98 0 3.4 1.22 3.56 3.44h-7.12zm19.156 4.98c-.6 0-.9-.2-.9-.98v-4.72c0-2.32-1.42-3.62-3.96-3.62-2.32 0-3.86 1.12-4.12 2.96h1.02c.26-1.24 1.34-2.06 3.06-2.06 1.9 0 2.98 1 2.98 2.68v.88h-3.44c-2.6 0-4 1.12-4 3.02 0 1.8 1.42 2.9 3.58 2.9 2.06 0 3.28-.94 3.9-2.2v.36c-.04 1.2.46 1.72 1.66 1.72h.6v-.94h-.38zm-1.92-3.16c0 1.94-1.38 3.34-3.78 3.34-1.62 0-2.62-.82-2.62-2.08 0-1.34 1-2.08 2.88-2.08h3.52v.82zm7.805-6.04c-1.88 0-2.68.9-3.1 2.02l-.16-2.02h-.88V43h1.02v-5.14c0-2.06.54-4.02 2.92-4.02h.74v-.98h-.54zm6.731-.12c-1.86 0-3.06.96-3.64 2.28l-.16-2.16h-.88V43h1.02v-5c0-2.64 1.34-4.32 3.5-4.32 1.96 0 3.14 1.28 3.14 3.68V43h1.02v-5.68c0-3.2-1.7-4.58-4-4.58zm6.777-2.02c.4 0 .72-.3.72-.72s-.32-.72-.72-.72c-.4 0-.72.3-.72.72s.32.72.72.72zm-.52 12.28h1.02V32.86h-1.02V43zm8.098-10.26c-1.86 0-3.06.96-3.64 2.28l-.16-2.16h-.88V43h1.02v-5c0-2.64 1.34-4.32 3.5-4.32 1.96 0 3.14 1.28 3.14 3.68V43h1.02v-5.68c0-3.2-1.7-4.58-4-4.58zm14.518 2.48c-.62-1.5-1.98-2.48-3.86-2.48-2.78 0-4.78 2.1-4.78 5.18 0 3.2 2 5.2 4.78 5.2 1.9 0 3.24-1 3.88-2.58v1.8c0 2.7-1.28 3.86-3.72 3.86-1.9 0-3.22-.86-3.54-2.4h-1.06c.32 2.16 2.06 3.32 4.52 3.32 3.28 0 4.82-1.56 4.82-4.74v-9.52h-.88l-.16 2.36zm-3.78 6.98c-2.26 0-3.82-1.76-3.82-4.28 0-2.52 1.56-4.28 3.82-4.28s3.82 1.76 3.82 4.3c0 2.5-1.56 4.26-3.82 4.26zm6.759-2.32c.08 2.1 1.78 3.24 4.32 3.24 2.18 0 3.94-1.1 3.94-2.9 0-2.14-1.88-2.56-4.06-2.86-1.58-.22-2.98-.4-2.98-1.82 0-1.16 1.14-1.92 2.86-1.92 1.62 0 2.78.78 2.96 2.1h1.04c-.18-1.98-1.8-2.98-4-2.98-2.26-.02-3.88 1.14-3.88 2.88 0 2.04 1.88 2.42 3.96 2.7 1.7.24 3.08.46 3.08 1.96 0 1.2-1.26 1.96-2.92 1.96-1.94 0-3.2-.9-3.28-2.36h-1.04zm10.554-6.6c0-2.04 1.3-3.44 3.28-3.44 1.74 0 2.94 1.08 2.94 2.54 0 1.28-.66 2.02-1.56 2.7-1.06.8-2.14 1.46-2.14 3.02v.8h.96v-.7c0-1.24.94-1.82 1.96-2.58.98-.74 1.84-1.66 1.84-3.34 0-1.94-1.58-3.4-4.02-3.4-2.64 0-4.3 1.9-4.3 4.4h1.04zm2.26 9.06c0 .46.32.76.76.76s.76-.3.76-.76-.32-.74-.76-.74-.76.28-.76.74z" fill="#000"/></svg>