<svg width="194" height="66" viewBox="0 0 194 66" fill="none" xmlns="http://www.w3.org/2000/svg"><path d="M0 0h174c11.046 0 20 8.954 20 20v46H0V0z" fill="#fff"/><rect x="33" y="8" width="128" height="24" rx="12" fill="#000"/><path d="M59.428 24.072c1.896 0 3.288-1.08 3.6-2.82h-1.104c-.312 1.176-1.212 1.86-2.508 1.86-1.764 0-2.844-1.38-2.844-3.312 0-1.944 1.128-3.312 2.892-3.312 1.26 0 2.148.696 2.472 1.86h1.104c-.312-1.74-1.668-2.82-3.528-2.82-2.436 0-4.008 1.728-4.008 4.272 0 2.568 1.512 4.272 3.924 4.272zm7.549-6.192c-1.092 0-1.56.456-1.848.924l-.132-.924h-.852V24h.984v-3.12c0-.972.348-2.04 1.632-2.04h.492v-.96h-.276zm3.597 6.192c1.416 0 2.424-.9 2.664-2.124h-.996c-.204.792-.876 1.248-1.74 1.248-1.164 0-1.896-.816-1.932-1.98v-.084h4.752c.012-.144.024-.288.024-.42-.048-1.812-1.176-2.904-2.904-2.904s-2.904 1.272-2.904 3.132c0 1.872 1.2 3.132 3.036 3.132zm-1.944-3.756c.096-.996.924-1.644 1.824-1.644 1.02 0 1.74.588 1.836 1.644h-3.66zM79.88 23.1c-.275 0-.395-.084-.395-.408v-2.676c0-1.428-.9-2.208-2.46-2.208-1.476 0-2.448.708-2.592 1.908h.984c.12-.624.696-1.032 1.56-1.032.96 0 1.524.48 1.524 1.272v.42h-1.8c-1.608 0-2.46.684-2.46 1.908 0 1.116.912 1.788 2.256 1.788 1.056 0 1.668-.468 2.052-1.02.012.6.288.948 1.104.948h.54v-.9h-.312zm-1.38-1.596c0 1.02-.707 1.728-1.931 1.728-.816 0-1.332-.408-1.332-1.008 0-.696.492-1.02 1.368-1.02H78.5v.3zm2.905.9c0 1.08.42 1.596 1.596 1.596h1.068v-.9h-.972c-.528 0-.708-.192-.708-.708V18.78h1.584v-.9H82.39v-1.716h-.984v1.716h-1.104v.9h1.104v3.624zm6.185 1.668c1.416 0 2.424-.9 2.664-2.124h-.996c-.204.792-.876 1.248-1.74 1.248-1.164 0-1.896-.816-1.932-1.98v-.084h4.752c.012-.144.024-.288.024-.42-.048-1.812-1.176-2.904-2.904-2.904s-2.904 1.272-2.904 3.132c0 1.872 1.2 3.132 3.036 3.132zm-1.944-3.756c.096-.996.924-1.644 1.824-1.644 1.02 0 1.74.588 1.836 1.644h-3.66zM95.166 24l.887-2.268h3.66l.888 2.268h1.116l-3.192-8.4H97.29L94.085 24h1.08zm2.711-7.26l1.524 4.044h-3.036l1.512-4.044zm7.125 7.332c1.488 0 2.484-.84 2.724-2.16h-1.044c-.192.78-.792 1.284-1.668 1.284-1.176 0-1.968-.912-1.968-2.244 0-1.332.792-2.268 1.968-2.268.9 0 1.5.492 1.68 1.308h1.032c-.252-1.344-1.2-2.184-2.7-2.184-1.776 0-2.988 1.272-2.988 3.144 0 1.908 1.176 3.12 2.964 3.12zm6.551 0c1.488 0 2.484-.84 2.724-2.16h-1.044c-.192.78-.792 1.284-1.668 1.284-1.176 0-1.968-.912-1.968-2.244 0-1.332.792-2.268 1.968-2.268.9 0 1.5.492 1.68 1.308h1.032c-.252-1.344-1.2-2.184-2.7-2.184-1.776 0-2.988 1.272-2.988 3.144 0 1.908 1.176 3.12 2.964 3.12zm6.623 0c1.788 0 3.036-1.272 3.036-3.132s-1.248-3.132-3.036-3.132-3.036 1.272-3.036 3.132 1.248 3.132 3.036 3.132zm0-.876c-1.212 0-2.028-.948-2.028-2.256 0-1.308.816-2.256 2.028-2.256 1.212 0 2.028.948 2.028 2.256 0 1.308-.816 2.256-2.028 2.256zm8.448-2.256c0 1.38-.672 2.232-1.788 2.232-1.02 0-1.596-.672-1.596-1.944V17.88h-.984v3.408c0 2.028 1.068 2.784 2.412 2.784 1.008 0 1.596-.432 1.956-.888l.132.816h.852v-6.12h-.984v3.06zm5.325-3.132c-1.032 0-1.656.432-2.016.9l-.132-.828h-.852V24h.984v-3.06c0-1.38.696-2.232 1.848-2.232 1.068 0 1.656.672 1.656 1.944V24h.984v-3.408c0-2.028-1.092-2.784-2.472-2.784zm4.183 4.596c0 1.08.42 1.596 1.596 1.596h1.068v-.9h-.972c-.528 0-.708-.192-.708-.708V18.78h1.584v-.9h-1.584v-1.716h-.984v1.716h-1.104v.9h1.104v3.624z" fill="#fff"/><path d="M55.355 59v-.56h-2.233V54.1h-.61V59h2.843zm1.986.042c1.043 0 1.771-.742 1.771-1.827s-.728-1.827-1.77-1.827c-1.044 0-1.772.742-1.772 1.827s.728 1.827 1.771 1.827zm0-.511c-.707 0-1.183-.553-1.183-1.316s.476-1.316 1.183-1.316c.707 0 1.183.553 1.183 1.316s-.476 1.316-1.183 1.316zm2.269-.707c.014.784.65 1.218 1.575 1.218.79 0 1.428-.413 1.428-1.078 0-.791-.651-.945-1.463-1.043-.518-.063-.896-.112-.896-.504 0-.329.336-.539.833-.539.49 0 .826.273.868.637h.588c-.056-.742-.644-1.12-1.456-1.127-.805-.007-1.4.42-1.4 1.071 0 .742.637.903 1.435 1.001.532.063.924.098.924.546 0 .329-.357.546-.861.546-.595 0-.966-.308-.987-.728h-.588zm3.425 0c.014.784.65 1.218 1.575 1.218.79 0 1.428-.413 1.428-1.078 0-.791-.651-.945-1.463-1.043-.518-.063-.896-.112-.896-.504 0-.329.336-.539.833-.539.49 0 .826.273.868.637h.588c-.056-.742-.644-1.12-1.456-1.127-.805-.007-1.4.42-1.4 1.071 0 .742.637.903 1.435 1.001.532.063.924.098.924.546 0 .329-.357.546-.861.546-.595 0-.966-.308-.987-.728h-.588zm5.285 1.218c.826 0 1.414-.525 1.554-1.239h-.581c-.12.462-.511.728-1.015.728-.68 0-1.106-.476-1.127-1.155v-.049h2.772c.007-.084.014-.168.014-.245-.028-1.057-.686-1.694-1.694-1.694s-1.694.742-1.694 1.827c0 1.092.7 1.827 1.77 1.827zm-1.134-2.191a1.057 1.057 0 011.064-.959c.595 0 1.015.343 1.07.959h-2.134zm3.245.973c.014.784.651 1.218 1.575 1.218.791 0 1.428-.413 1.428-1.078 0-.791-.651-.945-1.463-1.043-.518-.063-.896-.112-.896-.504 0-.329.336-.539.833-.539.49 0 .826.273.868.637h.588c-.056-.742-.644-1.12-1.456-1.127-.805-.007-1.4.42-1.4 1.071 0 .742.637.903 1.435 1.001.532.063.924.098.924.546 0 .329-.357.546-.861.546-.595 0-.966-.308-.987-.728h-.588zm7.075 1.218c.868 0 1.45-.49 1.59-1.26h-.61c-.112.455-.462.749-.973.749-.686 0-1.148-.532-1.148-1.309 0-.777.462-1.323 1.148-1.323.525 0 .875.287.98.763h.602c-.147-.784-.7-1.274-1.575-1.274-1.036 0-1.743.742-1.743 1.834 0 1.113.686 1.82 1.73 1.82zm5.376-.567c-.162 0-.232-.049-.232-.238v-1.561c0-.833-.525-1.288-1.434-1.288-.861 0-1.428.413-1.512 1.113h.574c.07-.364.405-.602.91-.602.56 0 .888.28.888.742v.245h-1.05c-.938 0-1.434.399-1.434 1.113 0 .651.532 1.043 1.316 1.043.615 0 .972-.273 1.197-.595.007.35.167.553.644.553h.315v-.525h-.182zm-.806-.931c0 .595-.412 1.008-1.126 1.008-.477 0-.778-.238-.778-.588 0-.406.288-.595.799-.595h1.105v.175zm3.179-2.156c-.602 0-.966.252-1.176.525l-.077-.483h-.497V59h.574v-1.785c0-.805.406-1.302 1.078-1.302.623 0 .966.392.966 1.134V59h.574v-1.988c0-1.183-.637-1.624-1.442-1.624zm5.65 3.654c.827 0 1.415-.525 1.555-1.239h-.581c-.12.462-.511.728-1.015.728-.68 0-1.106-.476-1.127-1.155v-.049h2.772c.007-.084.014-.168.014-.245-.028-1.057-.686-1.694-1.694-1.694s-1.694.742-1.694 1.827c0 1.092.7 1.827 1.77 1.827zm-1.133-2.191a1.057 1.057 0 011.064-.959c.595 0 1.015.343 1.07.959h-2.134zM92.649 59h.651l1.043-1.435L95.386 59h.686l-1.365-1.834 1.274-1.736h-.65l-.96 1.323-.945-1.323h-.686l1.267 1.736L92.65 59zm5.283.042c.868 0 1.449-.49 1.589-1.26h-.609c-.112.455-.462.749-.973.749-.686 0-1.148-.532-1.148-1.309 0-.777.462-1.323 1.148-1.323.525 0 .875.287.98.763h.602c-.147-.784-.7-1.274-1.575-1.274-1.036 0-1.743.742-1.743 1.834 0 1.113.686 1.82 1.729 1.82zm3.863 0c.826 0 1.414-.525 1.554-1.239h-.581c-.119.462-.511.728-1.015.728-.679 0-1.106-.476-1.127-1.155v-.049h2.772c.007-.084.014-.168.014-.245-.028-1.057-.686-1.694-1.694-1.694s-1.694.742-1.694 1.827c0 1.092.7 1.827 1.771 1.827zm-1.134-2.191a1.057 1.057 0 011.064-.959c.595 0 1.015.343 1.071.959h-2.135zm5.051 2.191c.826 0 1.414-.525 1.554-1.239h-.581c-.119.462-.511.728-1.015.728-.679 0-1.106-.476-1.127-1.155v-.049h2.772c.007-.084.014-.168.014-.245-.028-1.057-.686-1.694-1.694-1.694s-1.694.742-1.694 1.827c0 1.092.7 1.827 1.771 1.827zm-1.134-2.191a1.057 1.057 0 011.064-.959c.595 0 1.015.343 1.071.959h-2.135zm6.22-.875c-.217-.343-.623-.588-1.225-.588-.987 0-1.715.735-1.715 1.827 0 1.162.728 1.827 1.715 1.827.602 0 .987-.287 1.225-.616l.077.574h.497v-4.9h-.574v1.876zm-1.169 2.555c-.707 0-1.183-.539-1.183-1.316s.476-1.316 1.183-1.316c.7 0 1.176.546 1.176 1.33 0 .763-.476 1.302-1.176 1.302zm7.171-2.555c-.217-.343-.623-.588-1.225-.588-.987 0-1.715.735-1.715 1.827 0 1.162.728 1.827 1.715 1.827.602 0 .987-.287 1.225-.616l.077.574h.497v-4.9h-.574v1.876zm-1.169 2.555c-.707 0-1.183-.539-1.183-1.316s.476-1.316 1.183-1.316c.7 0 1.176.546 1.176 1.33 0 .763-.476 1.302-1.176 1.302zm4.17.511c.826 0 1.414-.525 1.554-1.239h-.581c-.119.462-.511.728-1.015.728-.679 0-1.106-.476-1.127-1.155v-.049h2.772c.007-.084.014-.168.014-.245-.028-1.057-.686-1.694-1.694-1.694s-1.694.742-1.694 1.827c0 1.092.7 1.827 1.771 1.827zm-1.134-2.191a1.057 1.057 0 011.064-.959c.595 0 1.015.343 1.071.959h-2.135zm5.205-1.463c-.602 0-.987.287-1.225.616l-.077-.574h-.497v4.97h.574v-1.946c.217.343.623.588 1.225.588.987 0 1.715-.735 1.715-1.827 0-1.162-.728-1.827-1.715-1.827zm-.056 3.143c-.7 0-1.176-.546-1.176-1.33 0-.763.476-1.302 1.176-1.302.707 0 1.183.539 1.183 1.316s-.476 1.316-1.183 1.316zm4.072.511c1.043 0 1.771-.742 1.771-1.827s-.728-1.827-1.771-1.827-1.771.742-1.771 1.827.728 1.827 1.771 1.827zm0-.511c-.707 0-1.183-.553-1.183-1.316s.476-1.316 1.183-1.316c.707 0 1.183.553 1.183 1.316s-.476 1.316-1.183 1.316zm2.269-.707c.014.784.651 1.218 1.575 1.218.791 0 1.428-.413 1.428-1.078 0-.791-.651-.945-1.463-1.043-.518-.063-.896-.112-.896-.504 0-.329.336-.539.833-.539.49 0 .826.273.868.637h.588c-.056-.742-.644-1.12-1.456-1.127-.805-.007-1.4.42-1.4 1.071 0 .742.637.903 1.435 1.001.532.063.924.098.924.546 0 .329-.357.546-.861.546-.595 0-.966-.308-.987-.728h-.588zm3.934-2.996a.36.36 0 00.371-.371.36.36 0 00-.371-.371.36.36 0 00-.371.371.36.36 0 00.371.371zM133.797 59h.574v-3.57h-.574V59zm1.626-.931c0 .63.245.931.931.931h.623v-.525h-.567c-.308 0-.413-.112-.413-.413v-2.107h.924v-.525h-.924v-1.001h-.574v1.001h-.644v.525h.644v2.114zm1.905-.245c.014.784.651 1.218 1.575 1.218.791 0 1.428-.413 1.428-1.078 0-.791-.651-.945-1.463-1.043-.518-.063-.896-.112-.896-.504 0-.329.336-.539.833-.539.49 0 .826.273.868.637h.588c-.056-.742-.644-1.12-1.456-1.127-.805-.007-1.4.42-1.4 1.071 0 .742.637.903 1.435 1.001.532.063.924.098.924.546 0 .329-.357.546-.861.546-.595 0-.966-.308-.987-.728h-.588zm3.515.826c0 .238.168.392.399.392s.399-.154.399-.392c0-.238-.168-.392-.399-.392s-.399.154-.399.392z" fill="#000"/></svg>