<svg width="202" height="33" viewBox="0 0 202 33" fill="none" xmlns="http://www.w3.org/2000/svg"><path d="M12.305 23.332c-1.618 0-2.69-.28-3.49-.634l-.473-2.837h.345l.346.672c.818 1.605 1.818 2.314 3.418 2.314 1.836 0 2.873-.933 2.873-2.463 0-1.363-.764-2.053-2.946-2.837-2.473-.877-3.709-1.848-3.709-4.031 0-2.184 1.945-3.807 4.364-3.807 1.509 0 2.382.205 3.218.56l.454 2.948h-.363l-.327-.69c-.746-1.605-1.691-2.333-3.128-2.333-1.509 0-2.4.933-2.4 2.258s.727 1.997 2.8 2.725c2.728.933 3.873 1.997 3.873 4.162.018 2.37-2.218 3.994-4.855 3.994zM23.724 22.175c-.764.672-1.546 1.12-2.528 1.12-1.454 0-2.218-.672-2.218-2.277v-6.196h-1.345v-.354l1.436-.56 1.418-2.912h.582v2.986h2.436v.84H21.07v6.159c0 .914.436 1.362 1.146 1.362.49 0 .818-.13 1.272-.466l.237.298zM28.833 23.37c-2.637 0-4.582-1.717-4.582-4.909 0-2.706 1.89-4.777 4.6-4.777 2.709 0 4.582 1.717 4.582 4.908-.018 2.706-1.927 4.778-4.6 4.778zm-.255-9.201c-1.29 0-2.018 1.008-2.018 3.751 0 3.005.946 4.965 2.51 4.965 1.308 0 2.017-1.008 2.017-3.752 0-3.004-.927-4.964-2.509-4.964zM44.614 23.165c-.418 0-1.49-.02-2.309-.02-.818 0-1.872.02-2.327.02v-.299l.31-.056c.817-.15.963-.41.963-2.109v-3.658c0-1.418-.6-2.109-1.673-2.109-.745 0-1.364.299-1.909.71V20.7c0 1.717.127 1.96.964 2.109l.309.056v.299c-.455 0-1.51-.02-2.328-.02-.818 0-1.89.02-2.327.02v-.299l.364-.056c.763-.112.909-.41.909-2.277v-4.031c0-1.008-.164-1.288-.836-1.605l-.455-.224v-.205l3.164-.71.254.168v1.307c1-.877 1.928-1.456 3.11-1.456 1.69 0 2.581.933 2.581 2.893v3.92c0 1.903.146 2.127.927 2.276l.328.056v.243h-.019zM47.25 17.659v.13c.055 2.65 1.455 4.293 3.346 4.293 1.037 0 1.764-.392 2.528-1.176l.254.187c-.982 1.4-2.254 2.277-3.89 2.277-2.4 0-4.2-1.68-4.2-4.573 0-3.116 2.29-5.095 4.49-5.095 2.437 0 3.618 1.4 3.673 3.976h-6.2v-.019zm3.983-.523c-.055-1.96-.746-2.948-1.837-2.948-1.236 0-2.018 1.082-2.145 2.948h3.982zM66.742 23.165c-.328 0-1.964-.038-2.6-.038-.673 0-2.71.038-3.055.038v-.262l.582-.093c.564-.093.8-.243.8-.597 0-.299-.182-.672-.582-1.307l-2.036-3.191-2.036 2.874c-.473.672-.691 1.176-.691 1.55 0 .372.218.596.781.69l.6.093v.261c-.327 0-1.781-.037-2.436-.037s-1.69.037-2.036.037v-.28l.309-.056c.818-.149 1.582-.858 2.2-1.66l2.945-3.957-2.89-4.405c-.673-1.026-1.146-1.493-1.873-1.623l-.382-.075v-.261c.327 0 1.963.037 2.6.037.672 0 2.672-.037 3.018-.037v.26l-.582.094c-.49.075-.764.243-.764.597 0 .299.182.672.582 1.307l1.746 2.762 1.709-2.464c.454-.671.69-1.175.69-1.53 0-.354-.236-.597-.781-.69l-.6-.094v-.261c.327 0 1.782.037 2.436.037.655 0 1.691-.037 2.037-.037v.261l-.31.056c-.818.15-1.563.784-2.2 1.661l-2.636 3.546 3.2 4.815c.673 1.027 1.146 1.493 1.873 1.624l.382.075v.28zM68.196 12.881a.825.825 0 01-.382-.074.952.952 0 01-.308-.224.844.844 0 01-.2-.318.996.996 0 01-.073-.392c0-.149.018-.28.072-.391a1.33 1.33 0 01.2-.318.7.7 0 01.31-.205.928.928 0 01.381-.075c.146 0 .273.019.382.075.127.056.218.13.31.205.09.094.163.206.2.318.054.13.072.26.072.391 0 .15-.018.28-.073.392-.054.131-.127.224-.2.318-.09.093-.2.168-.309.224-.109.037-.236.074-.382.074zm0-.15a.61.61 0 00.328-.074.72.72 0 00.272-.186c.073-.075.128-.168.182-.28a1.084 1.084 0 000-.672.74.74 0 00-.182-.28 1.018 1.018 0 00-.272-.187c-.11-.037-.219-.074-.328-.074a.61.61 0 00-.327.074.718.718 0 00-.273.187 1.046 1.046 0 00-.181.28 1.084 1.084 0 000 .672c.036.112.109.205.181.28.073.074.164.149.273.186.11.056.218.075.327.075zm-.418-.26v-1.195h.51a.51.51 0 01.308.094c.073.074.11.149.11.26a.343.343 0 01-.11.262c-.072.075-.163.093-.29.093l.054-.018c.055 0 .09.018.127.037a.313.313 0 01.11.112l.2.355h-.273l-.2-.392c-.019-.038-.037-.056-.055-.056-.018-.019-.055-.019-.09-.019h-.128v.467h-.273zm.236-.672h.237c.073 0 .127-.019.145-.038.037-.018.055-.074.055-.13 0-.056-.018-.112-.055-.13a.335.335 0 00-.145-.038h-.237v.336zM79.31 23.316c-3.25 0-5.58-2.62-5.58-6.823s2.368-6.786 5.544-6.786c2.664 0 4.499 1.433 5.07 4.203.018.074-.037.15-.111.15h-.68c-.073 0-.166-.055-.166-.15-.458-2.244-1.965-3.393-4.112-3.393-2.644 0-4.573 2.206-4.573 5.994 0 3.789 1.947 5.995 4.609 5.995 2.92 0 4.407-2.092 4.389-5.204h-4.335c-.072 0-.147-.074-.147-.15v-.51c0-.075.073-.151.147-.151h5.142c.073 0 .147.074.147.15.073 4.204-1.8 6.673-5.343 6.673v.002zM86.307 23.109c-.073 0-.147-.075-.147-.152l.055-6.578-.055-6.314c0-.075.073-.151.147-.151h.642c.073 0 .147.074.147.151l-.036 6.276.036 6.616c0 .075-.072.152-.147.152h-.642zM92.79 23.316c-2.72 0-4.225-2.018-4.225-5.052 0-3.035 1.506-5.071 4.224-5.071s4.224 2.036 4.224 5.07c0 3.035-1.488 5.053-4.224 5.053zm0-.736c2.203 0 3.286-1.677 3.286-4.316 0-2.64-1.101-4.336-3.287-4.336-2.185.019-3.287 1.697-3.287 4.336 0 2.639 1.102 4.316 3.287 4.316zM102.449 23.297c-1.487 0-2.57-.735-3.176-2.11l.036 1.752c0 .074-.073.15-.147.15h-.624c-.073 0-.147-.074-.147-.15l.054-7.596-.054-5.278c0-.075.073-.151.147-.151h.642c.073 0 .147.074.147.151l-.018 5.203c.606-1.282 1.689-2.055 3.158-2.055 2.46 0 3.784 2.188 3.784 5.015 0 2.828-1.358 5.071-3.802 5.071v-.002zm-.184-.735c2.111 0 3.049-1.867 3.049-4.24 0-2.374-.918-4.373-3.029-4.373-1.8 0-3.03 1.394-3.049 4.184-.018 2.79 1.102 4.429 3.029 4.429zM114.311 23.109c-.073 0-.147-.075-.147-.152l.036-1.829c-.587 1.339-1.671 2.149-3.176 2.149-2.479 0-3.784-2.188-3.784-5.015 0-2.828 1.34-5.052 3.784-5.052 1.487 0 2.571.735 3.176 2.092l-.036-1.753c0-.074.072-.15.147-.15h.624c.072 0 .147.074.147.15l-.055 4.524.055 4.883c0 .074-.073.15-.147.15h-.624v.003zm-3.122-.566c1.836 0 3.031-1.415 3.049-4.184.018-2.772-1.102-4.41-3.011-4.41-2.131 0-3.085 1.866-3.085 4.221 0 2.356.936 4.373 3.049 4.373h-.002zM117.065 23.109c-.072 0-.147-.075-.147-.152l.055-6.578-.055-6.314c0-.075.073-.151.147-.151h.642c.073 0 .148.074.148.151l-.037 6.276.037 6.616c0 .075-.073.152-.148.152h-.642zM126.762 17.68h-3.011l.036 5.277c0 .075-.073.152-.147.152h-.698c-.073 0-.148-.075-.148-.152l.055-6.748-.055-6.146c0-.074.073-.151.148-.151h3.765c2.626 0 4.353 1.3 4.353 3.845 0 2.713-1.782 3.92-4.296 3.92l-.002.003zm-3.029-1.452v.66h3.067c2.056 0 3.305-.847 3.305-3.13 0-2.073-1.231-3.034-3.378-3.034h-2.938l-.055 5.504h-.001zM138.551 23.109c-.073 0-.147-.075-.147-.152l.036-1.829c-.587 1.339-1.671 2.149-3.176 2.149-2.479 0-3.784-2.188-3.784-5.015 0-2.828 1.34-5.052 3.784-5.052 1.487 0 2.571.735 3.176 2.092l-.036-1.753c0-.074.072-.15.147-.15h.624c.072 0 .147.074.147.15l-.055 4.524.055 4.883c0 .074-.073.15-.147.15h-.624v.003zm-3.122-.566c1.836 0 3.029-1.415 3.049-4.184.018-2.772-1.102-4.41-3.011-4.41-2.131 0-3.085 1.866-3.085 4.221 0 2.356.936 4.373 3.049 4.373h-.002zM143.804 26.162c-.037.093-.111.151-.202.151h-.569a.104.104 0 01-.093-.151l1.065-3.09-3.672-9.537c-.037-.056.018-.133.091-.133h.734c.091 0 .166.056.202.133l3.104 8.256 2.663-8.238c.037-.093.111-.151.202-.151h.68c.073 0 .129.075.091.151l-4.296 12.61v-.001zM150.027 19.057l.037 3.902c0 .075-.073.151-.148.151h-.661c-.073 0-.148-.074-.148-.15l.055-3.903-.037-5.504c0-.075.073-.151.148-.151h.623c.073 0 .148.075.148.151l-.037 1.848c.533-1.112 1.506-2.225 3.049-2.225 1.379 0 2.351.698 2.737 2.225.569-1.187 1.56-2.225 3.049-2.225 1.818 0 2.92 1.224 2.92 3.921v1.96l.018 3.902c0 .075-.073.151-.147.151h-.644c-.073 0-.147-.074-.147-.15l.036-3.903V17.19c0-2.356-.882-3.223-2.24-3.223-1.231 0-2.074.96-2.682 2.487.019.207.019.415.019.64v1.96l.018 3.902c0 .075-.073.152-.148.152h-.643c-.073 0-.147-.075-.147-.152l.036-3.902v-1.866c0-2.356-.882-3.223-2.24-3.223s-2.204 1.112-2.827 2.864v2.225l.003.002zM171.109 19.678c.073 0 .129.075.129.151-.349 2.13-1.634 3.487-3.893 3.487-2.79 0-4.26-2.055-4.26-5.034 0-2.978 1.599-5.09 4.151-5.09 2.553 0 4.004 1.79 4.059 4.883 0 .075-.073.151-.148.151l-7.143.019c0 2.734 1.12 4.335 3.36 4.335 1.707 0 2.681-1.035 2.992-2.752 0-.094.091-.152.166-.152h.587v.002zm-3.874-5.748c-1.873 0-2.975 1.376-3.195 3.544h6.28c-.018-1.96-1.084-3.544-3.085-3.544zM172.835 23.109c-.073 0-.148-.075-.148-.152l.037-4.11-.037-5.296c0-.074.073-.15.148-.15h.623c.073 0 .147.074.147.15l-.036 1.848c.533-1.094 1.58-2.225 3.213-2.225 1.909 0 3.085 1.264 3.085 3.921v1.848l.018 4.014c0 .075-.072.152-.147.152h-.643c-.073 0-.148-.075-.148-.152l.037-4.014v-1.752c0-2.337-.955-3.223-2.388-3.223-1.432 0-2.369 1.093-2.992 2.864v2.111l.018 4.014c0 .075-.073.152-.147.152h-.644.004zM185.524 22.92c0 .093-.055.17-.148.188a4.082 4.082 0 01-.991.152c-1.23 0-2.149-.64-2.149-2.695l.019-6.39h-1.084c-.073 0-.147-.075-.147-.152v-.47c0-.075.072-.151.147-.151h1.084l-.037-2.28c0-.075.073-.152.147-.152h.644c.073 0 .147.075.147.151l-.018 2.28h2.24c.073 0 .147.075.147.152v.47c0 .075-.072.152-.147.152h-2.24v6.39c0 1.452.386 1.885 1.304 1.885.331 0 .68-.038.936-.094a.119.119 0 01.147.114v.452l-.001-.002zM190.06 23.297c-2.369 0-3.875-1.112-3.929-3.486 0-.075.073-.151.147-.151h.587c.073 0 .148.074.148.15.054 1.905 1.12 2.791 3.067 2.791 1.616 0 2.773-.754 2.773-2.092 0-3.149-6.519-.868-6.519-4.638 0-1.752 1.451-2.658 3.471-2.658s3.562.887 3.655 2.903c0 .074-.073.15-.147.15h-.551c-.073 0-.147-.074-.147-.15-.091-1.564-1.304-2.206-2.828-2.206-1.523 0-2.571.64-2.571 1.922 0 2.865 6.519.584 6.519 4.617 0 1.79-1.617 2.846-3.673 2.846l-.002.002z" fill="#fff"/></svg>