<svg width="445" height="27" viewBox="0 0 445 27" fill="none" xmlns="http://www.w3.org/2000/svg"><path d="M9.576 16.676V26h4.14v-9.324L23.112.8h-4.644l-6.804 11.52L5.04.8H.18l9.396 15.876zm21.153 9.54c5.616 0 9.396-3.78 9.396-9.432 0-5.616-3.78-9.432-9.396-9.432-5.616 0-9.396 3.816-9.396 9.432 0 5.652 3.78 9.432 9.396 9.432zm0-3.312c-3.276 0-5.4-2.556-5.4-6.12s2.124-6.12 5.4-6.12c3.276 0 5.436 2.556 5.436 6.12s-2.16 6.12-5.436 6.12zm25.159-6.12c0 3.816-1.8 6.048-4.752 6.048-2.844 0-4.284-1.836-4.284-5.436V7.568h-3.888v10.26c0 6.3 3.348 8.388 7.272 8.388 2.844 0 4.536-1.152 5.688-2.556l.432 2.34h3.42V7.568h-3.888v9.216zM72.93 7.568c-3.024 0-4.5 1.224-5.436 2.772l-.432-2.772h-3.456V26h3.888v-9.252c0-2.844 1.116-5.544 4.572-5.544h1.728V7.568h-.864zm29.321 15.048c-.792 0-1.188-.252-1.188-1.188v-7.38c0-4.356-2.808-6.696-7.704-6.696-4.644 0-7.74 2.232-8.136 5.832h3.816c.288-1.62 1.836-2.7 4.14-2.7 2.556 0 4.032 1.26 4.032 3.312v1.116h-4.644c-5.148 0-7.884 2.124-7.884 5.904 0 3.42 2.808 5.4 6.84 5.4 2.988 0 4.86-1.296 6.084-3.168 0 1.836.864 2.952 3.384 2.952h2.052v-3.384h-.792zm-5.04-4.176c-.036 2.844-1.908 4.752-5.148 4.752-2.124 0-3.42-1.08-3.42-2.628 0-1.872 1.332-2.772 3.744-2.772h4.824v.648zm20.586-1.656c0 3.816-1.8 6.048-4.752 6.048-2.844 0-4.284-1.836-4.284-5.436V7.568h-3.888v10.26c0 6.3 3.348 8.388 7.272 8.388 2.844 0 4.536-1.152 5.688-2.556l.432 2.34h3.42V7.568h-3.888v9.216zm9.157 4.212c0 3.348 1.512 5.004 5.04 5.004h3.6v-3.42h-2.736c-1.476 0-1.98-.54-1.98-1.98v-9.612h4.5v-3.42h-4.5V2.42h-3.924v5.148h-3.204v3.42h3.204v10.008zm19.438 5.22c5.616 0 9.396-3.78 9.396-9.432 0-5.616-3.78-9.432-9.396-9.432-5.616 0-9.396 3.816-9.396 9.432 0 5.652 3.78 9.432 9.396 9.432zm0-3.312c-3.276 0-5.4-2.556-5.4-6.12s2.124-6.12 5.4-6.12c3.276 0 5.436 2.556 5.436 6.12s-2.16 6.12-5.436 6.12zM180.12 7.352c-3.024 0-5.112 1.332-6.3 3.348-1.116-2.376-3.276-3.348-5.688-3.348-2.772.036-4.356 1.26-5.4 2.628l-.432-2.412h-3.384V26h3.888v-9.864c0-3.276 1.656-5.436 4.32-5.436 2.556 0 3.888 1.692 3.888 4.932V26h3.924v-9.972c0-3.312 1.692-5.328 4.356-5.328 2.52 0 3.852 1.692 3.852 4.932V26h3.888V15.38c0-5.832-3.096-8.028-6.912-8.028zm27.284 15.264c-.792 0-1.188-.252-1.188-1.188v-7.38c0-4.356-2.808-6.696-7.704-6.696-4.644 0-7.74 2.232-8.136 5.832h3.816c.288-1.62 1.836-2.7 4.14-2.7 2.556 0 4.032 1.26 4.032 3.312v1.116h-4.644c-5.148 0-7.884 2.124-7.884 5.904 0 3.42 2.808 5.4 6.84 5.4 2.988 0 4.86-1.296 6.084-3.168 0 1.836.864 2.952 3.384 2.952h2.052v-3.384h-.792zm-5.04-4.176c-.036 2.844-1.908 4.752-5.148 4.752-2.124 0-3.42-1.08-3.42-2.628 0-1.872 1.332-2.772 3.744-2.772h4.824v.648zm9.282 2.556c0 3.348 1.512 5.004 5.04 5.004h3.6v-3.42h-2.736c-1.476 0-1.98-.54-1.98-1.98v-9.612h4.5v-3.42h-4.5V2.42h-3.924v5.148h-3.204v3.42h3.204v10.008zm13.094-16.02c1.332 0 2.376-.972 2.376-2.34 0-1.368-1.044-2.34-2.376-2.34-1.332 0-2.376.972-2.376 2.34 0 1.368 1.044 2.34 2.376 2.34zM222.76 26h3.888V7.568h-3.888V26zm16.159.216c4.716 0 7.848-2.628 8.568-6.804h-4.104c-.468 2.124-2.052 3.492-4.428 3.492-3.132 0-5.184-2.484-5.184-6.084 0-3.636 2.052-6.156 5.184-6.156 2.412 0 3.96 1.332 4.464 3.492h4.068c-.756-4.176-3.708-6.804-8.46-6.804-5.58 0-9.252 3.78-9.252 9.468 0 5.76 3.564 9.396 9.144 9.396zm34.759-21.24c1.332 0 2.376-.972 2.376-2.34 0-1.368-1.044-2.34-2.376-2.34-1.332 0-2.376.972-2.376 2.34 0 1.368 1.044 2.34 2.376 2.34zm-8.748 2.592V6.02c0-1.26.504-1.8 1.764-1.8h2.736V.8h-3.276c-3.564 0-5.148 1.692-5.148 4.932v1.836h-3.204v3.42h3.204V26h3.924V10.988h6.768V26h3.924V7.568H264.93zm23.79 0c-3.024 0-4.5 1.224-5.436 2.772l-.432-2.772h-3.456V26h3.888v-9.252c0-2.844 1.116-5.544 4.572-5.544h1.728V7.568h-.864zm2.154 12.348c.108 3.996 3.492 6.3 8.424 6.3 4.464 0 7.812-2.232 7.812-5.76 0-4.104-3.42-4.968-7.632-5.472-2.664-.288-4.428-.504-4.428-2.232 0-1.476 1.512-2.412 3.816-2.412s3.888 1.188 4.104 2.88h3.816c-.252-3.78-3.456-5.868-7.992-5.868-4.428-.036-7.56 2.232-7.56 5.724 0 3.816 3.312 4.716 7.524 5.22 2.844.36 4.536.504 4.536 2.484 0 1.476-1.584 2.412-3.996 2.412-2.808 0-4.464-1.368-4.608-3.276h-3.816zm20.581 1.08c0 3.348 1.512 5.004 5.04 5.004h3.6v-3.42h-2.736c-1.476 0-1.98-.54-1.98-1.98v-9.612h4.5v-3.42h-4.5V2.42h-3.924v5.148h-3.204v3.42h3.204v10.008zm22.329-3.636v-3.204h-12.24v3.204h12.24zm12.256 8.856c4.716 0 7.848-2.628 8.568-6.804h-4.104c-.468 2.124-2.052 3.492-4.428 3.492-3.132 0-5.184-2.484-5.184-6.084 0-3.636 2.052-6.156 5.184-6.156 2.412 0 3.96 1.332 4.464 3.492h4.068c-.756-4.176-3.708-6.804-8.46-6.804-5.58 0-9.252 3.78-9.252 9.468 0 5.76 3.564 9.396 9.144 9.396zm21.228-18.864c-2.88 0-4.644 1.296-5.796 2.88V.8h-3.888V26h3.888v-9.324c0-3.708 1.872-5.976 4.932-5.976 2.88 0 4.428 1.872 4.428 5.364V26h3.888V15.74c0-6.156-3.348-8.388-7.452-8.388zm19.559 18.864c5.616 0 9.396-3.78 9.396-9.432 0-5.616-3.78-9.432-9.396-9.432-5.616 0-9.396 3.816-9.396 9.432 0 5.652 3.78 9.432 9.396 9.432zm0-3.312c-3.276 0-5.4-2.556-5.4-6.12s2.124-6.12 5.4-6.12c3.276 0 5.436 2.556 5.436 6.12s-2.16 6.12-5.436 6.12zm14.502-17.928c1.332 0 2.376-.972 2.376-2.34 0-1.368-1.044-2.34-2.376-2.34-1.332 0-2.376.972-2.376 2.34 0 1.368 1.044 2.34 2.376 2.34zM399.349 26h3.888V7.568h-3.888V26zm16.16.216c4.716 0 7.848-2.628 8.568-6.804h-4.104c-.468 2.124-2.052 3.492-4.428 3.492-3.132 0-5.184-2.484-5.184-6.084 0-3.636 2.052-6.156 5.184-6.156 2.412 0 3.96 1.332 4.464 3.492h4.068c-.756-4.176-3.708-6.804-8.46-6.804-5.58 0-9.252 3.78-9.252 9.468 0 5.76 3.564 9.396 9.144 9.396zm20.292 0c4.572 0 7.668-2.772 8.316-6.408h-3.888c-.54 2.052-2.268 3.24-4.644 3.24-3.06 0-5.04-2.052-5.148-5.184v-.252h13.896c.072-.504.108-1.008.108-1.476-.108-5.4-3.672-8.784-9-8.784-5.436 0-9.072 3.78-9.072 9.468 0 5.652 3.636 9.396 9.432 9.396zm-5.22-11.448c.288-2.628 2.412-4.284 4.896-4.284 2.7 0 4.608 1.548 4.932 4.284h-9.828z" fill="#000"/></svg>