<svg width="233" height="64" viewBox="0 0 233 64" fill="none" xmlns="http://www.w3.org/2000/svg"><path d="M5.2 15.318c.08 0 .16-.08.16-.16l-.06-6.72.04-6.24h3.92c.08 0 .16-.08.16-.16v-.56c0-.08-.08-.16-.16-.16H.36c-.08 0-.16.08-.16.16v.56c0 .08.08.16.16.16h3.92l.06 6.24-.06 6.72c0 .08.08.16.16.16h.76zm4.217 0c.08 0 .16-.08.16-.16l-.04-6.24c.38-2.2 1.84-3.16 3.32-3.16.3 0 .54.02.74.08.08.02.16-.04.16-.12v-.54c0-.1-.08-.18-.16-.2-.2-.06-.44-.08-.7-.08-1.4 0-2.7.78-3.38 2.18l.06-1.9c0-.08-.08-.16-.16-.16h-.7c-.08 0-.16.08-.16.16l.06 4.82-.06 5.16c0 .08.08.16.16.16h.7zm5.013-5.24c0-2.5 1.04-4.48 3.36-4.48 2.08 0 3.3 1.74 3.28 4.68-.02 2.94-1.32 4.44-3.32 4.44-2.3 0-3.32-2.06-3.32-4.64zm7.4 5.24c.08 0 .16-.08.16-.16l-.06-5.18.06-4.8c0-.08-.08-.16-.16-.16h-.68c-.08 0-.16.08-.16.16l.04 1.86c-.66-1.44-1.84-2.22-3.46-2.22-2.66 0-4.12 2.4-4.12 5.36 0 3 1.42 5.32 4.12 5.32 1.64 0 2.82-.86 3.46-2.28l-.04 1.94c0 .08.08.16.16.16h.68zm2.58-5.24c0-2.5 1.04-4.52 3.36-4.52 2.08 0 3.3 1.78 3.28 4.72-.02 2.96-1.36 4.46-3.32 4.46-2.3 0-3.32-2.08-3.32-4.66zm7.4 5.24c.08 0 .16-.08.16-.16l-.04-8.22.04-5.46c0-.08-.08-.16-.16-.16h-.7c-.08 0-.16.08-.16.16l.02 5.48c-.66-1.4-1.84-2.16-3.42-2.16-2.66 0-4.12 2.42-4.12 5.38 0 3 1.42 5.34 4.12 5.34 1.64 0 2.82-.86 3.46-2.28l-.04 1.92c0 .08.08.16.16.16h.68zm2.96-11.64c.08 0 .16-.08.16-.16v-1.08c0-.08-.08-.16-.16-.16h-.7c-.08 0-.16.08-.16.16v1.08c0 .08.08.16.16.16h.7zm0 11.64c.08 0 .16-.08.16-.16l-.02-5.3.02-4.68c0-.08-.08-.16-.16-.16h-.7c-.08 0-.16.08-.16.16l.04 4.7-.04 5.28c0 .08.08.16.16.16h.7zm3.007 0c.08 0 .16-.08.16-.16l-.02-4.26v-2.24c.68-1.88 1.72-3.04 3.26-3.04 1.56 0 2.6.94 2.6 3.42v1.86l-.04 4.26c0 .08.08.16.16.16h.7c.08 0 .16-.08.16-.16l-.02-4.26v-1.96c0-2.82-1.28-4.16-3.36-4.16-1.78 0-2.92 1.2-3.5 2.36l.04-1.96c0-.08-.08-.16-.16-.16h-.68c-.08 0-.16.08-.16.16l.04 5.62-.04 4.36c0 .08.08.16.16.16h.7zm9.328-5.16c0-2.66 1.1-4.58 3.34-4.58 2.08 0 3.3 1.76 3.28 4.68-.02 2.9-1.32 4.24-3.18 4.26-2.32.02-3.44-1.64-3.44-4.36zm7.52 4.12l-.02-6.1.04-3c0-.08-.08-.16-.16-.16h-.66c-.08 0-.16.08-.16.16l.04 1.9c-.64-1.46-1.82-2.24-3.4-2.24-2.74 0-4.18 2.38-4.18 5.34s1.44 5.1 4.2 5.1c1.56 0 2.72-.78 3.36-2.14v1.14c0 2.88-1.28 4.12-3.28 4.12-1.58 0-2.88-.68-3.08-2.32-.02-.1-.1-.16-.18-.16h-.68c-.08 0-.16.08-.14.16.18 2.2 1.96 3.12 4.1 3.1 2.6 0 4.22-1.64 4.2-4.9zm6.044-10.6c.08 0 .16-.08.16-.16v-1.08c0-.08-.08-.16-.16-.16h-.7c-.08 0-.16.08-.16.16v1.08c0 .08.08.16.16.16h.7zm0 11.64c.08 0 .16-.08.16-.16l-.02-5.3.02-4.68c0-.08-.08-.16-.16-.16h-.7c-.08 0-.16.08-.16.16l.04 4.7-.04 5.28c0 .08.08.16.16.16h.7zm3.006 0c.08 0 .16-.08.16-.16l-.02-4.26v-2.24c.68-1.88 1.72-3.04 3.26-3.04 1.56 0 2.6.94 2.6 3.42v1.86l-.04 4.26c0 .08.08.16.16.16h.7c.08 0 .16-.08.16-.16l-.02-4.26v-1.96c0-2.82-1.28-4.16-3.36-4.16-1.78 0-2.92 1.2-3.5 2.36l.04-1.96c0-.08-.08-.16-.16-.16h-.68c-.08 0-.16.08-.16.16l.04 5.62-.04 4.36c0 .08.08.16.16.16h.7zm16.496-10.14c.04-.08-.02-.16-.1-.16h-.68c-.1 0-.18.06-.22.16l-3.36 9.3-3.4-9.3c-.04-.1-.12-.16-.22-.16h-.78c-.08 0-.14.08-.1.14l3.82 10.04c.04.08.12.14.22.14h.9c.1 0 .18-.06.22-.16l3.7-10zm9.393 5c0-3.22-1.62-5.38-4.6-5.38-2.96 0-4.6 2.16-4.6 5.38 0 3.22 1.64 5.36 4.6 5.36 2.98 0 4.6-2.16 4.6-5.36zm-8.18 0c0-2.8 1.2-4.58 3.58-4.6 2.38 0 3.58 1.82 3.58 4.6 0 2.8-1.18 4.58-3.58 4.58-2.38 0-3.58-1.78-3.58-4.58zm10.574 5.14c.08 0 .16-.08.16-.16l-.04-7.02.04-6.66c0-.08-.08-.16-.16-.16h-.7c-.08 0-.16.08-.16.16l.06 6.7-.06 6.98c0 .08.08.16.16.16h.7zm10.167-10.14c.04-.08-.02-.16-.1-.16h-.68c-.1 0-.18.06-.22.16l-3.36 9.3-3.4-9.3c-.04-.1-.12-.16-.22-.16h-.78c-.08 0-.14.08-.1.14l3.82 10.04c.04.08.12.14.22.14h.9c.1 0 .18-.06.22-.16l3.7-10zm8.292 6.5c-.08 0-.18.06-.18.16-.34 1.82-1.4 2.92-3.26 2.92-2.44 0-3.66-1.7-3.66-4.6l7.78-.02c.08 0 .16-.08.16-.16-.06-3.28-1.7-5.18-4.42-5.18-2.78 0-4.52 2.24-4.52 5.4s1.6 5.34 4.64 5.34c2.46 0 3.86-1.44 4.24-3.7 0-.08-.06-.16-.14-.16h-.64zm-.22-2.34h-6.84c.24-2.3 1.44-3.76 3.48-3.76 2.18 0 3.34 1.68 3.36 3.76zm10.301 3.16c0-4.28-7.1-1.86-7.1-4.9 0-1.36 1.1-2.04 2.8-2.04 1.66 0 2.98.68 3.08 2.34 0 .08.08.16.16.16h.6c.08 0 .16-.08.16-.16-.1-2.14-1.82-3.08-3.98-3.08-2.2 0-3.78.96-3.78 2.82 0 4 7.1 1.58 7.1 4.92 0 1.42-1.26 2.22-3.02 2.22-2.12 0-3.28-.94-3.34-2.96 0-.08-.08-.16-.16-.16h-.64c-.08 0-.16.08-.16.16.06 2.52 1.7 3.7 4.28 3.7 2.24 0 4-1.12 4-3.02zm12.461 0c0-4.28-7.1-1.86-7.1-4.9 0-1.36 1.1-2.04 2.8-2.04 1.66 0 2.98.68 3.08 2.34 0 .08.08.16.16.16h.6c.08 0 .16-.08.16-.16-.1-2.14-1.82-3.08-3.98-3.08-2.2 0-3.78.96-3.78 2.82 0 4 7.1 1.58 7.1 4.92 0 1.42-1.26 2.22-3.02 2.22-2.12 0-3.28-.94-3.34-2.96 0-.08-.08-.16-.16-.16h-.64c-.08 0-.16.08-.16.16.06 2.52 1.7 3.7 4.28 3.7 2.24 0 4-1.12 4-3.02zm2.339-8.82c.08 0 .16-.08.16-.16v-1.08c0-.08-.08-.16-.16-.16h-.7c-.08 0-.16.08-.16.16v1.08c0 .08.08.16.16.16h.7zm0 11.64c.08 0 .16-.08.16-.16l-.02-5.3.02-4.68c0-.08-.08-.16-.16-.16h-.7c-.08 0-.16.08-.16.16l.04 4.7-.04 5.28c0 .08.08.16.16.16h.7zm2.706-5.16c0-2.66 1.1-4.58 3.34-4.58 2.08 0 3.3 1.76 3.28 4.68-.02 2.9-1.32 4.24-3.18 4.26-2.32.02-3.44-1.64-3.44-4.36zm7.52 4.12l-.02-6.1.04-3c0-.08-.08-.16-.16-.16h-.66c-.08 0-.16.08-.16.16l.04 1.9c-.64-1.46-1.82-2.24-3.4-2.24-2.74 0-4.18 2.38-4.18 5.34s1.44 5.1 4.2 5.1c1.56 0 2.72-.78 3.36-2.14v1.14c0 2.88-1.28 4.12-3.28 4.12-1.58 0-2.88-.68-3.08-2.32-.02-.1-.1-.16-.18-.16h-.68c-.08 0-.16.08-.14.16.18 2.2 1.96 3.12 4.1 3.1 2.6 0 4.22-1.64 4.2-4.9zm2.721 1.04c.08 0 .16-.08.16-.16l-.02-4.26v-2.24c.68-1.88 1.72-3.04 3.26-3.04 1.56 0 2.6.94 2.6 3.42v1.86l-.04 4.26c0 .08.08.16.16.16h.7c.08 0 .16-.08.16-.16l-.02-4.26v-1.96c0-2.82-1.28-4.16-3.36-4.16-1.78 0-2.92 1.2-3.5 2.36l.04-1.96c0-.08-.08-.16-.16-.16h-.68c-.08 0-.16.08-.16.16l.04 5.62-.04 4.36c0 .08.08.16.16.16h.7zm9.709-11.64c.08 0 .16-.08.16-.16v-1.08c0-.08-.08-.16-.16-.16h-.7c-.08 0-.16.08-.16.16v1.08c0 .08.08.16.16.16h.7zm0 11.64c.08 0 .16-.08.16-.16l-.02-5.3.02-4.68c0-.08-.08-.16-.16-.16h-.7c-.08 0-.16.08-.16.16l.04 4.7-.04 5.28c0 .08.08.16.16.16h.7zm4.106-9.5h2.26c.08 0 .16-.08.16-.16v-.48c0-.08-.08-.16-.16-.16h-2.26v-1.04c0-1.54.56-2.18 1.46-2.18.28 0 .56.04.82.12.08.02.16-.04.16-.12v-.46c0-.1-.08-.18-.16-.2-.28-.08-.62-.14-.98-.14-1.04.02-2.26.74-2.26 2.92v1.1h-1.5c-.08 0-.16.08-.16.16v.48c0 .08.08.16.16.16h1.5v4.78l-.04 4.56c0 .08.08.16.16.16h.72c.08 0 .16-.08.16-.16l-.04-4.56v-4.78zm4.605-2.14c.08 0 .16-.08.16-.16v-1.08c0-.08-.08-.16-.16-.16h-.7c-.08 0-.16.08-.16.16v1.08c0 .08.08.16.16.16h.7zm0 11.64c.08 0 .16-.08.16-.16l-.02-5.3.02-4.68c0-.08-.08-.16-.16-.16h-.7c-.08 0-.16.08-.16.16l.04 4.7-.04 5.28c0 .08.08.16.16.16h.7zm10.526-3.64c.02-.08-.06-.16-.14-.16h-.62c-.08 0-.16.08-.18.16-.16 1.94-1.42 3.08-3.34 3.08-2.4-.02-3.5-1.76-3.5-4.56s1.12-4.6 3.5-4.6c1.76 0 2.96.94 3.24 2.76.02.1.1.16.18.16h.6c.08 0 .16-.08.14-.16-.22-2.14-1.68-3.56-4.16-3.56-2.96 0-4.52 2.18-4.52 5.4s1.56 5.34 4.5 5.34c2.64 0 4.12-1.62 4.3-3.86zm1.887-1.6c0-2.5 1.04-4.48 3.36-4.48 2.08 0 3.3 1.74 3.28 4.68-.02 2.94-1.32 4.44-3.32 4.44-2.3 0-3.32-2.06-3.32-4.64zm7.4 5.24c.08 0 .16-.08.16-.16l-.06-5.18.06-4.8c0-.08-.08-.16-.16-.16h-.68c-.08 0-.16.08-.16.16l.04 1.86c-.66-1.44-1.84-2.22-3.46-2.22-2.66 0-4.12 2.4-4.12 5.36 0 3 1.42 5.32 4.12 5.32 1.64 0 2.82-.86 3.46-2.28l-.04 1.94c0 .08.08.16.16.16h.68zm2.881 0c.08 0 .16-.08.16-.16l-.02-4.26v-2.24c.68-1.88 1.72-3.04 3.26-3.04 1.56 0 2.6.94 2.6 3.42v1.86l-.04 4.26c0 .08.08.16.16.16h.7c.08 0 .16-.08.16-.16l-.02-4.26v-1.96c0-2.82-1.28-4.16-3.36-4.16-1.78 0-2.92 1.2-3.5 2.36l.04-1.96c0-.08-.08-.16-.16-.16h-.68c-.08 0-.16.08-.16.16l.04 5.62-.04 4.36c0 .08.08.16.16.16h.7zm13.069-.68c0-.08-.08-.14-.16-.12-.28.06-.66.1-1.02.1-1 0-1.42-.46-1.42-2v-6.78h2.44c.08 0 .16-.08.16-.16v-.5c0-.08-.08-.16-.16-.16h-2.44l.02-2.42c0-.08-.08-.16-.16-.16h-.7c-.08 0-.16.08-.16.16l.04 2.42h-1.18c-.08 0-.16.08-.16.16v.5c0 .08.08.16.16.16h1.18l-.02 6.78c0 2.18 1 2.86 2.34 2.86.36 0 .78-.08 1.08-.16.1-.02.16-.1.16-.2v-.48zm5.329.68c.08 0 .16-.08.16-.16l-.04-6.24c.38-2.2 1.84-3.16 3.32-3.16.3 0 .54.02.74.08.08.02.16-.04.16-.12v-.54c0-.1-.08-.18-.16-.2-.2-.06-.44-.08-.7-.08-1.4 0-2.7.78-3.38 2.18l.06-1.9c0-.08-.08-.16-.16-.16h-.7c-.08 0-.16.08-.16.16l.06 4.82-.06 5.16c0 .08.08.16.16.16h.7zm6.408-11.64c.08 0 .16-.08.16-.16v-1.08c0-.08-.08-.16-.16-.16h-.7c-.08 0-.16.08-.16.16v1.08c0 .08.08.16.16.16h.7zm0 11.64c.08 0 .16-.08.16-.16l-.02-5.3.02-4.68c0-.08-.08-.16-.16-.16h-.7c-.08 0-.16.08-.16.16l.04 4.7-.04 5.28c0 .08.08.16.16.16h.7zm9.966-2.82c0-4.28-7.1-1.86-7.1-4.9 0-1.36 1.1-2.04 2.8-2.04 1.66 0 2.98.68 3.08 2.34 0 .08.08.16.16.16h.6c.08 0 .16-.08.16-.16-.1-2.14-1.82-3.08-3.98-3.08-2.2 0-3.78.96-3.78 2.82 0 4 7.1 1.58 7.1 4.92 0 1.42-1.26 2.22-3.02 2.22-2.12 0-3.28-.94-3.34-2.96 0-.08-.08-.16-.16-.16h-.64c-.08 0-.16.08-.16.16.06 2.52 1.7 3.7 4.28 3.7 2.24 0 4-1.12 4-3.02zm7.359 2.68c.04.08.14.14.24.14h.84c.08 0 .12-.08.08-.14l-3.94-6.42 3.54-3.62c.06-.04.02-.12-.04-.12h-.88c-.1 0-.2.04-.28.12l-4.56 4.74v-1.48l.04-6.92c0-.08-.08-.16-.16-.16h-.7c-.08 0-.16.08-.16.16l.06 6.94-.06 6.76c0 .08.08.16.16.16h.7c.08 0 .16-.08.16-.16l-.02-4.18 1.48-1.52 2.84 4.58.66 1.12zm-221.77 19c0-3.22-1.62-5.38-4.6-5.38-2.96 0-4.6 2.16-4.6 5.38 0 3.22 1.64 5.36 4.6 5.36 2.98 0 4.6-2.16 4.6-5.36zm-8.18 0c0-2.8 1.2-4.58 3.58-4.6 2.38 0 3.58 1.82 3.58 4.6 0 2.8-1.18 4.58-3.58 4.58-2.38 0-3.58-1.78-3.58-4.58zm11.008-4.36h2.26c.08 0 .16-.08.16-.16v-.48c0-.08-.08-.16-.16-.16h-2.26v-1.04c0-1.54.56-2.18 1.46-2.18.28 0 .56.04.82.12.08.02.16-.04.16-.12v-.46c0-.1-.08-.18-.16-.2-.28-.08-.62-.14-.98-.14-1.04.02-2.26.74-2.26 2.92v1.1h-1.5c-.08 0-.16.08-.16.16v.48c0 .08.08.16.16.16h1.5v4.78l-.04 4.56c0 .08.08.16.16.16h.72c.08 0 .16-.08.16-.16l-.04-4.56v-4.78zm7.77 9.5c.08 0 .16-.08.16-.16l-.04-7.02.04-6.66c0-.08-.08-.16-.16-.16h-.7c-.08 0-.16.08-.16.16l.06 6.7-.06 6.98c0 .08.08.16.16.16h.7zm10.906-5.14c0-3.22-1.62-5.38-4.6-5.38-2.96 0-4.6 2.16-4.6 5.38 0 3.22 1.64 5.36 4.6 5.36 2.98 0 4.6-2.16 4.6-5.36zm-8.18 0c0-2.8 1.2-4.58 3.58-4.6 2.38 0 3.58 1.82 3.58 4.6 0 2.8-1.18 4.58-3.58 4.58-2.38 0-3.58-1.78-3.58-4.58zm17.415 2.32c0-4.28-7.1-1.86-7.1-4.9 0-1.36 1.1-2.04 2.8-2.04 1.66 0 2.98.68 3.08 2.34 0 .08.08.16.16.16h.6c.08 0 .16-.08.16-.16-.1-2.14-1.82-3.08-3.98-3.08-2.2 0-3.78.96-3.78 2.82 0 4 7.1 1.58 7.1 4.92 0 1.42-1.26 2.22-3.02 2.22-2.12 0-3.28-.94-3.34-2.96 0-.08-.08-.16-.16-.16h-.64c-.08 0-.16.08-.16.16.06 2.52 1.7 3.7 4.28 3.7 2.24 0 4-1.12 4-3.02zm9.219 0c0-4.28-7.1-1.86-7.1-4.9 0-1.36 1.1-2.04 2.8-2.04 1.66 0 2.98.68 3.08 2.34 0 .08.08.16.16.16h.6c.08 0 .16-.08.16-.16-.1-2.14-1.82-3.08-3.98-3.08-2.2 0-3.78.96-3.78 2.82 0 4 7.1 1.58 7.1 4.92 0 1.42-1.26 2.22-3.02 2.22-2.12 0-3.28-.94-3.34-2.96 0-.08-.08-.16-.16-.16h-.64c-.08 0-.16.08-.16.16.06 2.52 1.7 3.7 4.28 3.7 2.24 0 4-1.12 4-3.02zm5.084-2.42c0-2.5 1.04-4.48 3.36-4.48 2.08 0 3.3 1.74 3.28 4.68-.02 2.94-1.32 4.44-3.32 4.44-2.3 0-3.32-2.06-3.32-4.64zm7.4 5.24c.08 0 .16-.08.16-.16l-.06-5.18.06-4.8c0-.08-.08-.16-.16-.16h-.68c-.08 0-.16.08-.16.16l.04 1.86c-.66-1.44-1.84-2.22-3.46-2.22-2.66 0-4.12 2.4-4.12 5.36 0 3 1.42 5.32 4.12 5.32 1.64 0 2.82-.86 3.46-2.28l-.04 1.94c0 .08.08.16.16.16h.68zm2.88 0c.08 0 .16-.08.16-.16l-.02-4.26v-2.24c.68-1.88 1.72-3.04 3.26-3.04 1.56 0 2.6.94 2.6 3.42v1.86l-.04 4.26c0 .08.08.16.16.16h.7c.08 0 .16-.08.16-.16l-.02-4.26v-1.96c0-2.82-1.28-4.16-3.36-4.16-1.78 0-2.92 1.2-3.5 2.36l.04-1.96c0-.08-.08-.16-.16-.16h-.68c-.08 0-.16.08-.16.16l.04 5.62-.04 4.36c0 .08.08.16.16.16h.7zm9.33-5.24c0-2.5 1.04-4.52 3.36-4.52 2.08 0 3.3 1.78 3.28 4.72-.02 2.96-1.36 4.46-3.32 4.46-2.3 0-3.32-2.08-3.32-4.66zm7.4 5.24c.08 0 .16-.08.16-.16l-.04-8.22.04-5.46c0-.08-.08-.16-.16-.16h-.7c-.08 0-.16.08-.16.16l.02 5.48c-.66-1.4-1.84-2.16-3.42-2.16-2.66 0-4.12 2.42-4.12 5.38 0 3 1.42 5.34 4.12 5.34 1.64 0 2.82-.86 3.46-2.28l-.04 1.92c0 .08.08.16.16.16h.68zm6.202-11.64c.08 0 .16-.08.16-.16v-1.08c0-.08-.08-.16-.16-.16h-.7c-.08 0-.16.08-.16.16v1.08c0 .08.08.16.16.16h.7zm0 11.64c.08 0 .16-.08.16-.16l-.02-5.3.02-4.68c0-.08-.08-.16-.16-.16h-.7c-.08 0-.16.08-.16.16l.04 4.7-.04 5.28c0 .08.08.16.16.16h.7zm9.966-2.82c0-4.28-7.1-1.86-7.1-4.9 0-1.36 1.1-2.04 2.8-2.04 1.66 0 2.98.68 3.08 2.34 0 .08.08.16.16.16h.6c.08 0 .16-.08.16-.16-.1-2.14-1.82-3.08-3.98-3.08-2.2 0-3.78.96-3.78 2.82 0 4 7.1 1.58 7.1 4.92 0 1.42-1.26 2.22-3.02 2.22-2.12 0-3.28-.94-3.34-2.96 0-.08-.08-.16-.16-.16h-.64c-.08 0-.16.08-.16.16.06 2.52 1.7 3.7 4.28 3.7 2.24 0 4-1.12 4-3.02zm5.501 2.82c.08 0 .16-.08.16-.16l-.02-4.26v-2.24c.68-1.88 1.72-3.04 3.26-3.04 1.56 0 2.6.94 2.6 3.42v1.86l-.04 4.26c0 .08.08.16.16.16h.7c.08 0 .16-.08.16-.16l-.02-4.26v-1.96c0-2.82-1.28-4.16-3.36-4.16-1.78 0-2.92 1.2-3.5 2.36l.04-1.96c0-.08-.08-.16-.16-.16h-.68c-.08 0-.16.08-.16.16l.04 5.62-.04 4.36c0 .08.08.16.16.16h.7zm17.549-5.14c0-3.22-1.62-5.38-4.6-5.38-2.96 0-4.6 2.16-4.6 5.38 0 3.22 1.64 5.36 4.6 5.36 2.98 0 4.6-2.16 4.6-5.36zm-8.18 0c0-2.8 1.2-4.58 3.58-4.6 2.38 0 3.58 1.82 3.58 4.6 0 2.8-1.18 4.58-3.58 4.58-2.38 0-3.58-1.78-3.58-4.58zm13.74 4.46c0-.08-.08-.14-.16-.12-.28.06-.66.1-1.02.1-1 0-1.42-.46-1.42-2v-6.78h2.44c.08 0 .16-.08.16-.16v-.5c0-.08-.08-.16-.16-.16h-2.44l.02-2.42c0-.08-.08-.16-.16-.16h-.7c-.08 0-.16.08-.16.16l.04 2.42h-1.18c-.08 0-.16.08-.16.16v.5c0 .08.08.16.16.16h1.18l-.02 6.78c0 2.18 1 2.86 2.34 2.86.36 0 .78-.08 1.08-.16.1-.02.16-.1.16-.2v-.48zm12.308-2.14c0-4.28-7.1-1.86-7.1-4.9 0-1.36 1.1-2.04 2.8-2.04 1.66 0 2.98.68 3.08 2.34 0 .08.08.16.16.16h.6c.08 0 .16-.08.16-.16-.1-2.14-1.82-3.08-3.98-3.08-2.2 0-3.78.96-3.78 2.82 0 4 7.1 1.58 7.1 4.92 0 1.42-1.26 2.22-3.02 2.22-2.12 0-3.28-.94-3.34-2.96 0-.08-.08-.16-.16-.16h-.64c-.08 0-.16.08-.16.16.06 2.52 1.7 3.7 4.28 3.7 2.24 0 4-1.12 4-3.02zm8.178.7l-.04 1.96c0 .08.08.16.16.16h.68c.08 0 .16-.08.16-.16l-.04-5.62.04-4.36c0-.08-.08-.16-.16-.16h-.7c-.08 0-.16.08-.16.16l.02 4.26v2.24c-.68 1.88-1.72 3.04-3.26 3.04-1.56 0-2.6-.94-2.6-3.42v-1.86l.04-4.26c0-.08-.08-.16-.16-.16h-.7c-.08 0-.16.08-.16.16l.02 4.26v1.96c0 2.82 1.28 4.16 3.36 4.16 1.78 0 2.92-1.2 3.5-2.36zm3.789-9.52c.08 0 .16-.08.16-.16v-1.08c0-.08-.08-.16-.16-.16h-.7c-.08 0-.16.08-.16.16v1.08c0 .08.08.16.16.16h.7zm0 11.64c.08 0 .16-.08.16-.16l-.02-5.3.02-4.68c0-.08-.08-.16-.16-.16h-.7c-.08 0-.16.08-.16.16l.04 4.7-.04 5.28c0 .08.08.16.16.16h.7zm6.486-.68c0-.08-.08-.14-.16-.12-.28.06-.66.1-1.02.1-1 0-1.42-.46-1.42-2v-6.78h2.44c.08 0 .16-.08.16-.16v-.5c0-.08-.08-.16-.16-.16h-2.44l.02-2.42c0-.08-.08-.16-.16-.16h-.7c-.08 0-.16.08-.16.16l.04 2.42h-1.18c-.08 0-.16.08-.16.16v.5c0 .08.08.16.16.16h1.18l-.02 6.78c0 2.18 1 2.86 2.34 2.86.36 0 .78-.08 1.08-.16.1-.02.16-.1.16-.2v-.48zm1.24-4.56c0-2.5 1.04-4.48 3.36-4.48 2.08 0 3.3 1.74 3.28 4.68-.02 2.94-1.32 4.44-3.32 4.44-2.3 0-3.32-2.06-3.32-4.64zm7.4 5.24c.08 0 .16-.08.16-.16l-.06-5.18.06-4.8c0-.08-.08-.16-.16-.16h-.68c-.08 0-.16.08-.16.16l.04 1.86c-.66-1.44-1.84-2.22-3.46-2.22-2.66 0-4.12 2.4-4.12 5.36 0 3 1.42 5.32 4.12 5.32 1.64 0 2.82-.86 3.46-2.28l-.04 1.94c0 .08.08.16.16.16h.68zm10.56-5.18c0-3-1.44-5.32-4.12-5.32-1.6 0-2.78.82-3.44 2.18l.02-5.52c0-.08-.08-.16-.16-.16h-.7c-.08 0-.16.08-.16.16l.06 5.6-.06 8.06c0 .08.08.16.16.16h.68c.08 0 .16-.08.16-.16l-.04-1.86c.66 1.46 1.84 2.24 3.46 2.24 2.66 0 4.14-2.42 4.14-5.38zm-7.64-.1c.02-2.96 1.36-4.44 3.32-4.44 2.3 0 3.3 2.06 3.3 4.64 0 2.52-1.02 4.5-3.32 4.5-2.1 0-3.32-1.74-3.3-4.7zm10.021 5.28c.08 0 .16-.08.16-.16l-.04-7.02.04-6.66c0-.08-.08-.16-.16-.16h-.7c-.08 0-.16.08-.16.16l.06 6.7-.06 6.98c0 .08.08.16.16.16h.7zm9.806-3.64c-.08 0-.18.06-.18.16-.34 1.82-1.4 2.92-3.26 2.92-2.44 0-3.66-1.7-3.66-4.6l7.78-.02c.08 0 .16-.08.16-.16-.06-3.28-1.7-5.18-4.42-5.18-2.78 0-4.52 2.24-4.52 5.4s1.6 5.34 4.64 5.34c2.46 0 3.86-1.44 4.24-3.7 0-.08-.06-.16-.14-.16h-.64zm-.22-2.34h-6.84c.24-2.3 1.44-3.76 3.48-3.76 2.18 0 3.34 1.68 3.36 3.76zm7.606-3.52h2.26c.08 0 .16-.08.16-.16v-.48c0-.08-.08-.16-.16-.16h-2.26v-1.04c0-1.54.56-2.18 1.46-2.18.28 0 .56.04.82.12.08.02.16-.04.16-.12v-.46c0-.1-.08-.18-.16-.2-.28-.08-.62-.14-.98-.14-1.04.02-2.26.74-2.26 2.92v1.1h-1.5c-.08 0-.16.08-.16.16v.48c0 .08.08.16.16.16h1.5v4.78l-.04 4.56c0 .08.08.16.16.16h.72c.08 0 .16-.08.16-.16l-.04-4.56v-4.78zm11.527 4.36c0-3.22-1.62-5.38-4.6-5.38-2.96 0-4.6 2.16-4.6 5.38 0 3.22 1.64 5.36 4.6 5.36 2.98 0 4.6-2.16 4.6-5.36zm-8.18 0c0-2.8 1.2-4.58 3.58-4.6 2.38 0 3.58 1.82 3.58 4.6 0 2.8-1.18 4.58-3.58 4.58-2.38 0-3.58-1.78-3.58-4.58zm10.474 5.14c.08 0 .16-.08.16-.16l-.04-6.24c.38-2.2 1.84-3.16 3.32-3.16.3 0 .54.02.74.08.08.02.16-.04.16-.12v-.54c0-.1-.08-.18-.16-.2-.2-.06-.44-.08-.7-.08-1.4 0-2.7.78-3.38 2.18l.06-1.9c0-.08-.08-.16-.16-.16h-.7c-.08 0-.16.08-.16.16l.06 4.82-.06 5.16c0 .08.08.16.16.16h.7zm8.919-5.24c0-2.5 1.04-4.48 3.36-4.48 2.08 0 3.3 1.74 3.28 4.68-.02 2.94-1.32 4.44-3.32 4.44-2.3 0-3.32-2.06-3.32-4.64zm7.4 5.24c.08 0 .16-.08.16-.16l-.06-5.18.06-4.8c0-.08-.08-.16-.16-.16h-.68c-.08 0-.16.08-.16.16l.04 1.86c-.66-1.44-1.84-2.22-3.46-2.22-2.66 0-4.12 2.4-4.12 5.36 0 3 1.42 5.32 4.12 5.32 1.64 0 2.82-.86 3.46-2.28l-.04 1.94c0 .08.08.16.16.16h.68zm2.961 0c.08 0 .16-.08.16-.16l-.04-7.02.04-6.66c0-.08-.08-.16-.16-.16h-.7c-.08 0-.16.08-.16.16l.06 6.7-.06 6.98c0 .08.08.16.16.16h.7zm3.066 0c.08 0 .16-.08.16-.16l-.04-7.02.04-6.66c0-.08-.08-.16-.16-.16h-.7c-.08 0-.16.08-.16.16l.06 6.7-.06 6.98c0 .08.08.16.16.16h.7zM1.88 51.678c.08 0 .16-.08.16-.16v-1.08c0-.08-.08-.16-.16-.16h-.7c-.08 0-.16.08-.16.16v1.08c0 .08.08.16.16.16h.7zm0 11.64c.08 0 .16-.08.16-.16l-.02-5.3.02-4.68c0-.08-.08-.16-.16-.16h-.7c-.08 0-.16.08-.16.16l.04 4.7-.04 5.28c0 .08.08.16.16.16h.7zm3.006 0c.08 0 .16-.08.16-.16l-.02-4.26v-2.24c.68-1.88 1.72-3.04 3.26-3.04 1.56 0 2.6.94 2.6 3.42v1.86l-.04 4.26c0 .08.08.16.16.16h.7c.08 0 .16-.08.16-.16l-.02-4.26v-1.96c0-2.82-1.28-4.16-3.36-4.16-1.78 0-2.92 1.2-3.5 2.36l.04-1.96c0-.08-.08-.16-.16-.16h-.68c-.08 0-.16.08-.16.16l.04 5.62-.04 4.36c0 .08.08.16.16.16h.7zm16.496-10.14c.04-.08-.02-.16-.1-.16h-.68c-.1 0-.18.06-.22.16l-3.36 9.3-3.4-9.3c-.04-.1-.12-.16-.22-.16h-.78c-.08 0-.14.08-.1.14l3.82 10.04c.04.08.12.14.22.14h.9c.1 0 .18-.06.22-.16l3.7-10zm8.293 6.5c-.08 0-.18.06-.18.16-.34 1.82-1.4 2.92-3.26 2.92-2.44 0-3.66-1.7-3.66-4.6l7.78-.02c.08 0 .16-.08.16-.16-.06-3.28-1.7-5.18-4.42-5.18-2.78 0-4.52 2.24-4.52 5.4s1.6 5.34 4.64 5.34c2.46 0 3.86-1.44 4.24-3.7 0-.08-.06-.16-.14-.16h-.64zm-.22-2.34h-6.84c.24-2.3 1.44-3.76 3.48-3.76 2.18 0 3.34 1.68 3.36 3.76zm10.301 3.16c0-4.28-7.1-1.86-7.1-4.9 0-1.36 1.1-2.04 2.8-2.04 1.66 0 2.98.68 3.08 2.34 0 .08.08.16.16.16h.6c.08 0 .16-.08.16-.16-.1-2.14-1.82-3.08-3.98-3.08-2.2 0-3.78.96-3.78 2.82 0 4 7.1 1.58 7.1 4.92 0 1.42-1.26 2.22-3.02 2.22-2.12 0-3.28-.94-3.34-2.96 0-.08-.08-.16-.16-.16h-.64c-.08 0-.16.08-.16.16.06 2.52 1.7 3.7 4.28 3.7 2.24 0 4-1.12 4-3.02zm5.505 2.14c0-.08-.08-.14-.16-.12-.28.06-.66.1-1.02.1-1 0-1.42-.46-1.42-2v-6.78h2.44c.08 0 .16-.08.16-.16v-.5c0-.08-.08-.16-.16-.16h-2.44l.02-2.42c0-.08-.08-.16-.16-.16h-.7c-.08 0-.16.08-.16.16l.04 2.42h-1.18c-.08 0-.16.08-.16.16v.5c0 .08.08.16.16.16h1.18l-.02 6.78c0 2.18 1 2.86 2.34 2.86.36 0 .78-.08 1.08-.16.1-.02.16-.1.16-.2v-.48zm9.459-4.46c0-3.22-1.62-5.38-4.6-5.38-2.96 0-4.6 2.16-4.6 5.38 0 3.22 1.64 5.36 4.6 5.36 2.98 0 4.6-2.16 4.6-5.36zm-8.18 0c0-2.8 1.2-4.58 3.58-4.6 2.38 0 3.58 1.82 3.58 4.6 0 2.8-1.18 4.58-3.58 4.58-2.38 0-3.58-1.78-3.58-4.58zm10.474 5.14c.08 0 .16-.08.16-.16l-.04-6.24c.38-2.2 1.84-3.16 3.32-3.16.3 0 .54.02.74.08.08.02.16-.04.16-.12v-.54c0-.1-.08-.18-.16-.2-.2-.06-.44-.08-.7-.08-1.4 0-2.7.78-3.38 2.18l.06-1.9c0-.08-.08-.16-.16-.16h-.7c-.08 0-.16.08-.16.16l.06 4.82-.06 5.16c0 .08.08.16.16.16h.7zm12.742-2.82c0-4.28-7.1-1.86-7.1-4.9 0-1.36 1.1-2.04 2.8-2.04 1.66 0 2.98.68 3.08 2.34 0 .08.08.16.16.16h.6c.08 0 .16-.08.16-.16-.1-2.14-1.82-3.08-3.98-3.08-2.2 0-3.78.96-3.78 2.82 0 4 7.1 1.58 7.1 4.92 0 1.42-1.26 2.22-3.02 2.22-2.12 0-3.28-.94-3.34-2.96 0-.08-.08-.16-.16-.16h-.64c-.08 0-.16.08-.16.16.06 2.52 1.7 3.7 4.28 3.7 2.24 0 4-1.12 4-3.02z" fill="#fff"/></svg>