<svg width="71" height="19" viewBox="0 0 71 19" fill="none" xmlns="http://www.w3.org/2000/svg"><path d="M14.496 12.984c0-6.6-10.872-3.528-10.872-7.44 0-1.608 1.416-2.328 3.456-2.328 2.376 0 3.696.936 3.888 2.712a.28.28 0 00.264.24h2.592c.12 0 .24-.12.216-.24-.432-3.504-3-5.064-6.864-5.064C3.168.864.744 2.736.744 5.856c0 6.552 10.824 3.36 10.824 7.536 0 1.872-1.488 2.616-3.816 2.616-3 0-4.032-1.344-4.272-3.48a.28.28 0 00-.264-.24H.624c-.12 0-.24.12-.24.24.192 3.888 2.976 5.808 7.296 5.808 4.104 0 6.816-1.848 6.816-5.352zm8.162 3.048c0-.12-.12-.216-.24-.168a4.858 4.858 0 01-1.296.168c-.912 0-1.44-.384-1.44-1.632l-.024-6.6h2.784c.12 0 .24-.12.24-.24V5.88c0-.12-.12-.24-.24-.24h-2.76l.024-2.856c0-.12-.12-.24-.24-.24h-2.448c-.12 0-.24.12-.24.24l.048 2.856h-1.368c-.12 0-.24.12-.24.24v1.68c0 .12.12.24.24.24h1.368l-.024 6.672c0 2.76 1.752 3.744 3.696 3.744.648 0 1.344-.144 1.944-.336a.342.342 0 00.216-.312v-1.536zm12.56-4.248c0-3.912-2.183-6.432-6.071-6.432s-6.12 2.592-6.12 6.504c0 3.912 2.232 6.432 6.12 6.432s6.072-2.568 6.072-6.504zm-9.24.096c0-2.928 1.009-4.464 3.145-4.488 2.088 0 3.12 1.536 3.12 4.464 0 2.952-1.008 4.392-3.096 4.392-2.112 0-3.168-1.464-3.168-4.368zm21.813 1.656c.024-.12-.096-.24-.216-.24h-2.232a.28.28 0 00-.264.24c-.192 1.776-1.272 2.736-2.808 2.712-2.112-.024-3.12-1.44-3.12-4.416 0-2.88 1.008-4.416 3.12-4.416 1.344 0 2.376.768 2.664 2.328.024.144.144.24.288.24h2.208c.12 0 .24-.12.216-.24-.288-2.616-2.256-4.392-5.376-4.392-3.888 0-6.096 2.592-6.096 6.504 0 3.912 2.208 6.432 6.048 6.432 3.192 0 5.304-1.992 5.568-4.752zm8.581 4.248c.072.12.216.216.36.216h2.88c.12 0 .168-.12.12-.216l-4.488-7.656 3.888-4.32c.072-.072.024-.168-.072-.168h-2.736a.55.55 0 00-.408.192l-4.128 4.776V9.576l.096-8.136c0-.12-.12-.24-.24-.24H49.22c-.12 0-.24.12-.24.24l.096 8.184-.096 8.136c0 .12.12.24.24.24h2.424c.12 0 .24-.12.24-.24l-.048-3.936 1.368-1.608 2.088 3.456 1.08 2.112zm14.426-3.456c0-5.232-8.208-2.712-8.208-5.376 0-1.2.912-1.728 2.328-1.728 1.608 0 2.52.696 2.736 1.944.024.144.12.24.264.24h2.208c.12 0 .24-.12.216-.24-.192-2.544-2.328-3.816-5.376-3.816-3.144 0-5.136 1.32-5.136 3.816 0 5.088 8.208 2.664 8.208 5.4 0 1.152-.984 1.8-2.616 1.8-1.92 0-2.976-.72-3.072-2.328a.24.24 0 00-.24-.24h-2.328c-.12 0-.24.12-.24.24.12 2.784 2.4 4.248 5.784 4.248 3.12 0 5.472-1.44 5.472-3.96z" fill="#fff"/></svg>