<svg width="50" height="18" viewBox="0 0 50 18" fill="none" xmlns="http://www.w3.org/2000/svg"><path d="M12.096 17c.12 0 .24-.12.24-.24v-1.824c0-.12-.12-.24-.24-.24H3.984l-.12-5.448h7.392c.12 0 .24-.12.24-.24V7.184c0-.12-.12-.24-.24-.24H3.864l.12-4.44h7.92c.12 0 .24-.12.24-.24V.44c0-.12-.12-.24-.24-.24H1.2C1.08.2.96.32.96.44l.12 8.04-.12 8.28c0 .12.12.24.24.24h10.896zm8.62 0c.12 0 .24-.12.24-.24l-.168-8.136.12-6.12h4.608c.12 0 .24-.12.24-.24V.44c0-.12-.12-.24-.24-.24h-12.24c-.12 0-.24.12-.24.24v1.824c0 .12.12.24.24.24h4.608l.12 6.12-.168 8.136c0 .12.12.24.24.24h2.64zm8.973 0c.12 0 .24-.12.24-.24l-.12-6.768h7.344c.12 0 .24-.12.24-.24V7.928c0-.12-.12-.24-.24-.24H29.81l.12-5.184h7.584c.12 0 .24-.12.24-.24V.44c0-.12-.12-.24-.24-.24H27.145c-.12 0-.24.12-.24.24l.12 8.16-.12 8.16c0 .12.12.24.24.24h2.544zm20.062-3.672c0-5.232-8.208-2.712-8.208-5.376 0-1.2.912-1.728 2.328-1.728 1.608 0 2.52.696 2.736 1.944.024.144.12.24.264.24h2.208c.12 0 .24-.12.216-.24-.192-2.544-2.328-3.816-5.376-3.816-3.144 0-5.136 1.32-5.136 3.816 0 5.088 8.208 2.664 8.208 5.4 0 1.152-.984 1.8-2.616 1.8-1.92 0-2.976-.72-3.072-2.328a.24.24 0 00-.24-.24h-2.328c-.12 0-.24.12-.24.24.12 2.784 2.4 4.248 5.784 4.248 3.12 0 5.472-1.44 5.472-3.96z" fill="#fff"/></svg>