<svg width="142" height="12" viewBox="0 0 142 12" fill="none" xmlns="http://www.w3.org/2000/svg"><path d="M4.416 9.072c1.956 0 3.384-1.152 3.648-2.928H6.636C6.372 7.212 5.568 7.86 4.404 7.86 2.82 7.86 1.86 6.588 1.86 4.8c0-1.8.984-3.06 2.58-3.06 1.14 0 1.932.66 2.208 1.716h1.428C7.8 1.68 6.42.528 4.5.528 2.016.528.444 2.244.444 4.8c0 2.58 1.524 4.272 3.972 4.272zm7.886-6.288c-.96 0-1.548.432-1.932.96V.6H9.074V9h1.296V5.892c0-1.236.623-1.992 1.644-1.992.96 0 1.476.624 1.476 1.788V9h1.296V5.58c0-2.052-1.117-2.796-2.484-2.796zm6.52 6.288c1.871 0 3.131-1.26 3.131-3.144 0-1.872-1.26-3.144-3.132-3.144S15.69 4.056 15.69 5.928c0 1.884 1.26 3.144 3.132 3.144zm0-1.104c-1.093 0-1.8-.852-1.8-2.04 0-1.188.707-2.04 1.8-2.04 1.091 0 1.811.852 1.811 2.04 0 1.188-.72 2.04-1.812 2.04zm7.077 1.104c1.872 0 3.132-1.26 3.132-3.144 0-1.872-1.26-3.144-3.132-3.144s-3.132 1.272-3.132 3.144c0 1.884 1.26 3.144 3.132 3.144zm0-1.104c-1.092 0-1.8-.852-1.8-2.04 0-1.188.708-2.04 1.8-2.04s1.812.852 1.812 2.04c0 1.188-.72 2.04-1.812 2.04zm3.875-.996c.036 1.332 1.164 2.1 2.808 2.1 1.488 0 2.604-.744 2.604-1.92 0-1.368-1.14-1.656-2.544-1.824-.888-.096-1.476-.168-1.476-.744 0-.492.504-.804 1.272-.804s1.296.396 1.368.96h1.272c-.084-1.26-1.152-1.956-2.664-1.956-1.476-.012-2.52.744-2.52 1.908 0 1.272 1.104 1.572 2.508 1.74.948.12 1.512.168 1.512.828 0 .492-.528.804-1.332.804-.936 0-1.488-.456-1.536-1.092h-1.272zm9.333 2.1c1.524 0 2.556-.924 2.772-2.136h-1.296c-.18.684-.756 1.08-1.548 1.08-1.02 0-1.68-.684-1.716-1.728v-.084h4.632a3.52 3.52 0 00.036-.492c-.036-1.8-1.224-2.928-3-2.928-1.812 0-3.024 1.26-3.024 3.156 0 1.884 1.212 3.132 3.144 3.132zm-1.74-3.816c.096-.876.804-1.428 1.632-1.428.9 0 1.536.516 1.644 1.428h-3.276zm9.182 2.076c0 1.116.504 1.668 1.68 1.668h1.2V7.86h-.912c-.492 0-.66-.18-.66-.66V3.996h1.5v-1.14h-1.5V1.14h-1.308v1.716H45.48v1.14h1.068v3.336zm6.932-4.548c-.96 0-1.548.432-1.932.96V.6h-1.296V9h1.296V5.892c0-1.236.624-1.992 1.644-1.992.96 0 1.476.624 1.476 1.788V9h1.296V5.58c0-2.052-1.116-2.796-2.484-2.796zm6.532 6.288c1.524 0 2.556-.924 2.772-2.136h-1.296c-.18.684-.756 1.08-1.548 1.08-1.02 0-1.68-.684-1.716-1.728v-.084h4.632a3.52 3.52 0 00.036-.492c-.036-1.8-1.224-2.928-3-2.928-1.812 0-3.024 1.26-3.024 3.156 0 1.884 1.212 3.132 3.144 3.132zm-1.74-3.816c.096-.876.804-1.428 1.632-1.428.9 0 1.536.516 1.644 1.428h-3.276zm13.43-1.44c-.396-.612-1.056-1.032-2.016-1.032-1.668 0-2.904 1.236-2.904 3.12 0 1.956 1.236 3.12 2.904 3.12.96 0 1.596-.396 2.004-1.008V8.7c0 1.176-.636 1.716-1.764 1.716-.912 0-1.512-.396-1.668-1.08h-1.32c.12 1.38 1.26 2.136 2.892 2.136 2.208 0 3.144-1.056 3.144-2.724V2.856h-1.128l-.144.96zm-1.8 4.116c-1.08 0-1.788-.828-1.788-2.028 0-1.188.708-2.028 1.788-2.028s1.788.84 1.788 2.052c0 1.176-.708 2.004-1.788 2.004zm7.242 1.14c1.873 0 3.133-1.26 3.133-3.144 0-1.872-1.26-3.144-3.133-3.144-1.871 0-3.132 1.272-3.132 3.144 0 1.884 1.26 3.144 3.132 3.144zm0-1.104c-1.091 0-1.8-.852-1.8-2.04 0-1.188.709-2.04 1.8-2.04 1.093 0 1.813.852 1.813 2.04 0 1.188-.72 2.04-1.813 2.04zM81.32 9h1.296V.6H81.32V9zm7.234-5.292c-.396-.54-1.056-.924-1.992-.924-1.668 0-2.904 1.248-2.904 3.144 0 1.968 1.236 3.144 2.904 3.144.972 0 1.608-.456 2.004-.996l.156.924h1.128V.6h-1.296v3.108zM86.778 7.98c-1.08 0-1.788-.84-1.788-2.052 0-1.2.708-2.04 1.788-2.04s1.788.84 1.788 2.064c0 1.188-.708 2.028-1.788 2.028zm7.145-1.008c.036 1.332 1.164 2.1 2.808 2.1 1.488 0 2.604-.744 2.604-1.92 0-1.368-1.14-1.656-2.544-1.824-.888-.096-1.476-.168-1.476-.744 0-.492.504-.804 1.272-.804s1.296.396 1.368.96h1.272c-.084-1.26-1.152-1.956-2.664-1.956-1.476-.012-2.52.744-2.52 1.908 0 1.272 1.104 1.572 2.508 1.74.948.12 1.512.168 1.512.828 0 .492-.528.804-1.332.804-.936 0-1.488-.456-1.536-1.092h-1.272zm6.86.36c0 1.116.504 1.668 1.68 1.668h1.2V7.86h-.912c-.492 0-.66-.18-.66-.66V3.996h1.5v-1.14h-1.5V1.14h-1.308v1.716h-1.068v1.14h1.068v3.336zm9.25.54c-.264 0-.396-.084-.396-.396v-2.46c0-1.452-.936-2.232-2.568-2.232-1.548 0-2.58.744-2.712 1.944h1.272c.096-.54.612-.9 1.38-.9.852 0 1.344.42 1.344 1.104v.372h-1.548c-1.716 0-2.628.708-2.628 1.968 0 1.14.936 1.8 2.28 1.8.996 0 1.62-.432 2.028-1.056 0 .612.288.984 1.128.984h.684V7.872h-.264zm-1.68-1.392c-.012.948-.636 1.584-1.716 1.584-.708 0-1.14-.36-1.14-.876 0-.624.444-.924 1.248-.924h1.608v.216zm5.89-3.696c-.996 0-1.584.396-1.968.876l-.144-.804h-1.128V9h1.296V5.904c0-1.248.612-2.004 1.644-2.004.972 0 1.464.624 1.464 1.788V9h1.308V5.58c0-2.052-1.116-2.796-2.472-2.796zm8.272.924c-.396-.54-1.056-.924-1.992-.924-1.668 0-2.904 1.248-2.904 3.144 0 1.968 1.236 3.144 2.904 3.144.972 0 1.608-.456 2.004-.996l.156.924h1.128V.6h-1.296v3.108zm-1.776 4.272c-1.08 0-1.788-.84-1.788-2.052 0-1.2.708-2.04 1.788-2.04s1.788.84 1.788 2.064c0 1.188-.708 2.028-1.788 2.028zm9.954-.108c-.264 0-.396-.084-.396-.396v-2.46c0-1.452-.936-2.232-2.568-2.232-1.548 0-2.58.744-2.712 1.944h1.272c.096-.54.612-.9 1.38-.9.852 0 1.344.42 1.344 1.104v.372h-1.548c-1.716 0-2.628.708-2.628 1.968 0 1.14.936 1.8 2.28 1.8.996 0 1.62-.432 2.028-1.056 0 .612.288.984 1.128.984h.684V7.872h-.264zm-1.68-1.392c-.012.948-.636 1.584-1.716 1.584-.708 0-1.14-.36-1.14-.876 0-.624.444-.924 1.248-.924h1.608v.216zm5.758-3.624c-1.008 0-1.5.408-1.812.924l-.144-.924h-1.152V9h1.296V5.916c0-.948.372-1.848 1.524-1.848h.576V2.856h-.288zm5.463.852c-.396-.54-1.056-.924-1.992-.924-1.668 0-2.904 1.248-2.904 3.144 0 1.968 1.236 3.144 2.904 3.144.972 0 1.608-.456 2.004-.996l.156.924h1.128V.6h-1.296v3.108zm-1.776 4.272c-1.08 0-1.788-.84-1.788-2.052 0-1.2.708-2.04 1.788-2.04s1.788.84 1.788 2.064c0 1.188-.708 2.028-1.788 2.028z" fill="#000"/></svg>