<svg width="104" height="35" viewBox="0 0 104 35" fill="none" xmlns="http://www.w3.org/2000/svg"><path d="M4.4 12.587h2.32L10.838.82h-2L5.56 10.267 2.315.82H.264L4.4 12.587zm10.54.101c2.623 0 4.388-1.765 4.388-4.405 0-2.622-1.765-4.404-4.387-4.404-2.623 0-4.388 1.782-4.388 4.404 0 2.64 1.765 4.405 4.387 4.405zm0-1.547c-1.53 0-2.521-1.193-2.521-2.858 0-1.664.992-2.858 2.521-2.858 1.53 0 2.539 1.194 2.539 2.858 0 1.665-1.009 2.858-2.538 2.858zm5.848 1.446h1.816V.82h-1.816v11.768zm11.463-1.58c-.37 0-.554-.118-.554-.555V7.006c0-2.034-1.312-3.127-3.598-3.127-2.169 0-3.614 1.042-3.8 2.723h1.783c.134-.756.857-1.26 1.933-1.26 1.194 0 1.883.588 1.883 1.546v.521h-2.169c-2.404 0-3.681.992-3.681 2.757 0 1.597 1.31 2.522 3.194 2.522 1.395 0 2.27-.605 2.84-1.48 0 .858.404 1.38 1.581 1.38h.958v-1.581h-.37zm-2.353-1.95c-.017 1.328-.891 2.219-2.404 2.219-.992 0-1.597-.505-1.597-1.227 0-.875.622-1.295 1.748-1.295h2.253v.303zm4.334 1.193c0 1.564.706 2.337 2.354 2.337h1.681V10.99H36.99c-.689 0-.924-.252-.924-.925V5.577h2.101V3.98h-2.101V1.576h-1.833V3.98h-1.496v1.597h1.496v4.673zm6.115-7.48c.622 0 1.11-.455 1.11-1.093 0-.64-.488-1.093-1.11-1.093-.622 0-1.11.454-1.11 1.093 0 .638.488 1.092 1.11 1.092zm-.925 9.817h1.816V3.98h-1.816v8.607zm3.596 0h1.815V.82h-1.815v11.768zm4.52-9.818c.622 0 1.11-.454 1.11-1.092 0-.64-.488-1.093-1.11-1.093-.622 0-1.11.454-1.11 1.093 0 .638.488 1.092 1.11 1.092zm-.925 9.818h1.816V3.98h-1.816v8.607zm4.217-2.337c0 1.564.706 2.337 2.354 2.337h1.681V10.99h-1.278c-.689 0-.924-.252-.924-.925V5.577h2.101V3.98h-2.101V1.576H50.83V3.98h-1.496v1.597h1.496v4.673zm7.678 2.388l-.336.84c-.269.706-.437.874-1.143.874H55.75v1.598h1.95c1.261 0 1.631-.622 2.169-2.018l3.9-9.952h-1.933L59.5 10.52l-2.404-6.54h-1.933l3.345 8.658zm14.433.05c2.202 0 3.665-1.227 4-3.177h-1.916c-.218.992-.958 1.63-2.068 1.63-1.462 0-2.42-1.16-2.42-2.84 0-1.699.958-2.876 2.42-2.876 1.127 0 1.85.623 2.085 1.631h1.9c-.353-1.95-1.732-3.177-3.95-3.177-2.607 0-4.321 1.765-4.321 4.421 0 2.69 1.664 4.388 4.27 4.388zm13.258-1.681c-.37 0-.554-.118-.554-.555V7.006c0-2.034-1.312-3.127-3.598-3.127-2.169 0-3.615 1.042-3.8 2.723h1.782c.135-.756.858-1.26 1.934-1.26 1.194 0 1.883.588 1.883 1.546v.521h-2.169c-2.404 0-3.682.992-3.682 2.757 0 1.597 1.312 2.522 3.194 2.522 1.396 0 2.27-.605 2.842-1.48 0 .858.403 1.38 1.58 1.38h.958v-1.581h-.37zm-2.353-1.95c-.017 1.328-.891 2.219-2.404 2.219-.992 0-1.597-.505-1.597-1.227 0-.875.622-1.295 1.748-1.295h2.253v.303zm8.251-5.178c-1.395 0-2.219.555-2.757 1.227l-.202-1.126h-1.58v8.607h1.816V8.25c0-1.749.857-2.808 2.303-2.808 1.362 0 2.051.874 2.051 2.505v4.64h1.833V7.796c0-2.875-1.564-3.917-3.464-3.917zM1.071 31.587h1.816v-2.185l1.546-1.614 2.539 3.8h2.152L5.677 26.46l3.245-3.48H6.787l-3.9 4.169v-7.33H1.07v11.768zm13.47-8.708c-1.395 0-2.219.555-2.757 1.227l-.202-1.126h-1.58v8.607h1.816V27.25c0-1.749.857-2.808 2.303-2.808 1.361 0 2.05.875 2.05 2.505v4.64h1.833v-4.791c0-2.875-1.563-3.917-3.463-3.917zm9.117 8.81c2.623 0 4.388-1.766 4.388-4.406 0-2.622-1.765-4.404-4.388-4.404-2.622 0-4.388 1.782-4.388 4.404 0 2.64 1.766 4.405 4.388 4.405zm0-1.548c-1.53 0-2.521-1.193-2.521-2.858 0-1.664.991-2.858 2.521-2.858 1.53 0 2.539 1.194 2.539 2.858 0 1.665-1.009 2.858-2.539 2.858zm9.799 1.547c2.202 0 3.665-1.227 4-3.177h-1.916c-.218.992-.958 1.63-2.067 1.63-1.463 0-2.421-1.16-2.421-2.84 0-1.699.958-2.875 2.42-2.875 1.127 0 1.85.622 2.085 1.63h1.9c-.353-1.95-1.732-3.177-3.95-3.177-2.607 0-4.322 1.765-4.322 4.421 0 2.69 1.665 4.388 4.27 4.388zm5.39-.1h1.816v-2.186l1.547-1.614 2.538 3.8H46.9l-3.446-5.128 3.245-3.48h-2.136l-3.9 4.169v-7.33h-1.816v11.768zm15.721.05l-.336.84c-.27.706-.437.874-1.143.874H51.81v1.598h1.95c1.261 0 1.63-.623 2.169-2.018l3.9-9.952h-1.933l-2.337 6.54-2.404-6.54h-1.933l3.345 8.658zm9.855.05c2.622 0 4.388-1.765 4.388-4.405 0-2.622-1.766-4.404-4.388-4.404-2.623 0-4.388 1.782-4.388 4.404 0 2.64 1.765 4.405 4.388 4.405zm0-1.547c-1.53 0-2.522-1.193-2.522-2.858 0-1.664.992-2.858 2.522-2.858 1.53 0 2.538 1.194 2.538 2.858 0 1.665-1.008 2.858-2.538 2.858zm11.748-2.858c0 1.782-.84 2.825-2.219 2.825-1.328 0-2-.858-2-2.539v-4.59h-1.816v4.792c0 2.942 1.564 3.917 3.396 3.917 1.328 0 2.118-.538 2.656-1.194l.202 1.093h1.597V22.98h-1.816v4.303zm11.975 4.405c2.623 0 4.388-1.765 4.388-4.405 0-2.622-1.765-4.404-4.388-4.404s-4.388 1.782-4.388 4.404c0 2.64 1.766 4.405 4.388 4.405zm0-1.547c-1.53 0-2.522-1.193-2.522-2.858 0-1.664.992-2.858 2.522-2.858 1.53 0 2.539 1.194 2.539 2.858 0 1.665-1.01 2.858-2.539 2.858zm15.533-8.725V19.82h-1.732c-1.664 0-2.404.79-2.404 2.303v.858h-3.16v-.723c0-.589.235-.84.823-.84h1.278v-1.598h-1.53c-1.664 0-2.404.79-2.404 2.303v.858h-1.496v1.597h1.496v7.01h1.833v-7.01h3.16v7.01h1.816v-7.01h2.32V22.98h-2.32v-.723c0-.589.252-.84.84-.84h1.48z" fill="#000"/></svg>