<svg width="122" height="58" viewBox="0 0 122 58" fill="none" xmlns="http://www.w3.org/2000/svg"><path d="M1.068 5.868c0 2.51 1.068 3.797 3.282 3.797 2.226 0 3.307-1.287 3.307-3.797V.578h-.695v5.329c0 2.072-.798 3.114-2.612 3.114-1.79 0-2.587-1.042-2.587-3.114V.579h-.695v5.29zM9.026 7.58c.052 1.351 1.146 2.085 2.78 2.085 1.403 0 2.536-.708 2.536-1.866 0-1.377-1.21-1.648-2.613-1.84-1.017-.142-1.918-.258-1.918-1.172 0-.746.734-1.235 1.84-1.235 1.043 0 1.79.502 1.905 1.351h.67c-.116-1.274-1.159-1.918-2.574-1.918-1.454-.012-2.497.734-2.497 1.854 0 1.312 1.21 1.557 2.548 1.737 1.094.154 1.982.296 1.982 1.261 0 .772-.81 1.262-1.879 1.262-1.248 0-2.059-.58-2.11-1.52h-.67zm9.45 2.085c1.43 0 2.523-.927 2.806-2.24h-.669c-.257 1.017-1.12 1.648-2.188 1.648-1.454 0-2.368-1.107-2.394-2.626v-.115h5.329c0-.09.012-.194.012-.27-.064-1.944-1.26-3.077-3.011-3.077-1.79 0-3.012 1.365-3.012 3.295 0 2.046 1.274 3.385 3.128 3.385zm-2.393-3.887c.103-1.325 1.094-2.213 2.29-2.213 1.275 0 2.189.785 2.291 2.213h-4.581zm14.02 3.887c2.097 0 3.629-1.236 3.912-3.14h-1.532c-.283 1.145-1.145 1.84-2.393 1.84-1.7 0-2.729-1.364-2.729-3.282 0-1.93 1.055-3.282 2.767-3.282 1.223 0 2.072.708 2.368 1.84h1.532c-.296-1.904-1.776-3.14-3.836-3.14-2.664 0-4.35 1.84-4.35 4.582 0 2.767 1.635 4.582 4.26 4.582zm5.702-7.593c.476 0 .85-.348.85-.837S36.28.4 35.805.4s-.85.347-.85.836c0 .49.374.837.85.837zm-.708 7.516h1.39v-6.59h-1.39v6.59zm3.229-1.79c0 1.198.54 1.79 1.802 1.79h1.287V8.365h-.978c-.528 0-.708-.193-.708-.708V4.221h1.608V2.998H39.73v-1.84h-1.403v1.84h-1.145v1.223h1.145v3.578zm5.878 1.828l-.258.644c-.206.54-.334.669-.875.669h-.978v1.223h1.493c.965 0 1.248-.477 1.66-1.545l2.986-7.619h-1.48l-1.79 5.007-1.84-5.007h-1.48l2.562 6.628zm8.165-.038h1.48V.578h-1.48v9.01zm6.463-6.667c-1.068 0-1.699.425-2.11.94l-.155-.863h-1.21v6.59h1.39v-3.32c0-1.34.656-2.15 1.763-2.15 1.043 0 1.57.67 1.57 1.918v3.552h1.403V5.92c0-2.201-1.197-2.999-2.651-2.999zm8.871.991c-.425-.58-1.132-.99-2.136-.99-1.79-.001-3.115 1.337-3.115 3.37 0 2.112 1.326 3.373 3.115 3.373 1.042 0 1.724-.49 2.149-1.068l.167.99h1.21V.58h-1.39v3.333zM65.8 8.494c-1.159 0-1.918-.901-1.918-2.201 0-1.287.76-2.188 1.918-2.188s1.917.9 1.917 2.214c0 1.274-.76 2.175-1.917 2.175zm7.78 1.17c1.634 0 2.74-.99 2.973-2.29h-1.39c-.193.734-.811 1.158-1.66 1.158-1.094 0-1.802-.733-1.84-1.853v-.09h4.967c.025-.18.038-.36.038-.528-.038-1.93-1.312-3.14-3.217-3.14-1.943 0-3.243 1.351-3.243 3.385 0 2.02 1.3 3.359 3.372 3.359zm-1.866-4.092c.103-.94.862-1.531 1.75-1.531.965 0 1.647.553 1.763 1.531h-3.513zm5.094 4.016h1.532l1.737-2.394 1.725 2.394h1.621L80.94 6.216l2.342-3.218h-1.532l-1.608 2.227-1.57-2.227h-1.622l2.33 3.218-2.472 3.372zM84.461.514c-.348 0-.567.206-.567.502 0 .31.206.464.45.464.13 0 .258-.052.323-.155.09.09.115.206.115.335 0 .489-.308.99-.965 1.017v.386c.888-.039 1.442-.631 1.442-1.48 0-.592-.335-1.069-.798-1.069zm1.557 7.066c.052 1.351 1.146 2.085 2.78 2.085 1.403 0 2.535-.708 2.535-1.866 0-1.377-1.21-1.648-2.612-1.84-1.017-.142-1.918-.258-1.918-1.172 0-.746.734-1.235 1.84-1.235 1.043 0 1.79.502 1.906 1.351h.669c-.116-1.274-1.159-1.918-2.574-1.918-1.455-.012-2.497.734-2.497 1.854 0 1.312 1.21 1.557 2.548 1.737 1.094.154 1.982.296 1.982 1.261 0 .772-.81 1.262-1.879 1.262-1.248 0-2.059-.58-2.11-1.52h-.67zm10.526.489c0 1.042.424 1.519 1.531 1.519h.953v-.605h-.901c-.682 0-.927-.258-.927-.927V3.667h1.763v-.604H97.2V1.235h-.656v1.828h-1.236v.604h1.236V8.07zm6.164 1.596c1.84 0 3.14-1.364 3.14-3.346 0-1.97-1.3-3.334-3.14-3.334-1.841 0-3.127 1.365-3.127 3.334 0 1.982 1.286 3.346 3.127 3.346zm0-.592c-1.454 0-2.458-1.133-2.458-2.754 0-1.61 1.004-2.754 2.458-2.754 1.454 0 2.458 1.145 2.458 2.754 0 1.621-1.004 2.754-2.458 2.754zm7.327.592c1.84 0 3.14-1.364 3.14-3.346 0-1.97-1.3-3.334-3.14-3.334s-3.127 1.365-3.127 3.334c0 1.982 1.287 3.346 3.127 3.346zm0-.592c-1.454 0-2.458-1.133-2.458-2.754 0-1.61 1.004-2.754 2.458-2.754 1.454 0 2.458 1.145 2.458 2.754 0 1.621-1.004 2.754-2.458 2.754zm4.444.515h.657V.578h-.657v9.01zm1.904-2.008c.051 1.351 1.145 2.085 2.78 2.085 1.402 0 2.535-.708 2.535-1.866 0-1.377-1.21-1.648-2.613-1.84-1.016-.142-1.917-.258-1.917-1.172 0-.746.733-1.235 1.84-1.235 1.043 0 1.789.502 1.905 1.351h.669c-.116-1.274-1.158-1.918-2.574-1.918-1.454-.012-2.496.734-2.496 1.854 0 1.312 1.209 1.557 2.548 1.737 1.094.154 1.982.296 1.982 1.261 0 .772-.811 1.262-1.879 1.262-1.249 0-2.059-.58-2.111-1.52h-.669zM1.441 23.069c0 1.042.425 1.519 1.532 1.519h.952v-.605h-.9c-.683 0-.928-.258-.928-.927v-4.389h1.764v-.604H2.097v-1.828h-.656v1.828H.206v.605H1.44v4.4zm6.164 1.596c1.84 0 3.14-1.364 3.14-3.346 0-1.97-1.3-3.334-3.14-3.334S4.478 19.35 4.478 21.32c0 1.982 1.287 3.346 3.127 3.346zm0-.592c-1.454 0-2.458-1.133-2.458-2.754 0-1.61 1.004-2.755 2.458-2.755 1.455 0 2.458 1.146 2.458 2.755 0 1.621-1.003 2.754-2.458 2.754zm10.578-6.01c-1.21 0-1.725.579-1.995 1.3l-.103-1.3h-.567v6.525h.657V21.28c0-1.326.347-2.587 1.879-2.587h.476v-.63h-.348zm3.737 6.602c1.429 0 2.523-.927 2.806-2.24h-.67c-.257 1.017-1.119 1.648-2.187 1.648-1.454 0-2.368-1.107-2.394-2.626v-.116h5.328c0-.09.013-.192.013-.27-.064-1.943-1.261-3.076-3.011-3.076-1.79 0-3.012 1.365-3.012 3.295 0 2.046 1.274 3.385 3.127 3.385zm-2.394-3.887c.104-1.325 1.095-2.213 2.291-2.213 1.274 0 2.188.785 2.291 2.213h-4.582zm6.279 1.802c.051 1.351 1.145 2.085 2.78 2.085 1.402 0 2.535-.708 2.535-1.866 0-1.377-1.21-1.648-2.613-1.84-1.016-.142-1.917-.258-1.917-1.172 0-.746.733-1.235 1.84-1.235 1.043 0 1.79.502 1.905 1.351h.67c-.117-1.274-1.16-1.918-2.575-1.918-1.454-.012-2.497.734-2.497 1.854 0 1.312 1.21 1.557 2.549 1.737 1.094.154 1.982.296 1.982 1.261 0 .773-.811 1.262-1.88 1.262-1.248 0-2.058-.58-2.11-1.52h-.67zm7.056.489c0 1.042.425 1.519 1.532 1.519h.952v-.605h-.9c-.683 0-.927-.258-.927-.927v-4.389h1.763v-.604h-1.763v-1.828h-.657v1.828h-1.235v.605h1.235v4.4zm6.165 1.596c1.84 0 3.14-1.364 3.14-3.346 0-1.97-1.3-3.334-3.14-3.334s-3.128 1.365-3.128 3.334c0 1.982 1.287 3.346 3.127 3.346zm0-.592c-1.455 0-2.459-1.133-2.459-2.754 0-1.61 1.004-2.755 2.459-2.755 1.454 0 2.458 1.146 2.458 2.755 0 1.621-1.004 2.754-2.459 2.754zm7.108-6.01c-1.21 0-1.725.579-1.995 1.3l-.103-1.3h-.566v6.525h.656V21.28c0-1.326.348-2.587 1.88-2.587h.475v-.63h-.347zm3.738 6.602c1.428 0 2.522-.927 2.805-2.24h-.669c-.257 1.017-1.12 1.648-2.188 1.648-1.454 0-2.368-1.107-2.394-2.626v-.116h5.328c0-.09.013-.192.013-.27-.064-1.943-1.26-3.076-3.011-3.076-1.789 0-3.012 1.365-3.012 3.295 0 2.046 1.275 3.385 3.128 3.385zm-2.394-3.887c.103-1.325 1.094-2.213 2.29-2.213 1.275 0 2.189.785 2.291 2.213h-4.581zm12.012 3.81l-.425 1.055c-.296.72-.412.914-1.081.914h-.824v.605h1.004c.875 0 1.081-.335 1.493-1.365l3.127-7.734h-.707l-2.227 5.675-2.265-5.675h-.708l2.613 6.525zm6.783.077c1.84 0 3.14-1.364 3.14-3.346 0-1.97-1.3-3.334-3.14-3.334s-3.127 1.365-3.127 3.334c0 1.982 1.287 3.346 3.127 3.346zm0-.592c-1.454 0-2.458-1.133-2.458-2.754 0-1.61 1.004-2.755 2.458-2.755 1.454 0 2.458 1.146 2.458 2.755 0 1.621-1.004 2.754-2.458 2.754zm9.18-2.806c0 1.712-.849 2.793-2.2 2.793-1.21 0-1.957-.824-1.957-2.381v-3.616h-.656v3.655c0 2.046 1.068 2.947 2.51 2.947 1.158 0 1.917-.618 2.29-1.454l.09 1.377h.58v-6.525h-.657v3.204zm4.866-3.204c-1.21 0-1.725.579-1.995 1.3l-.103-1.3h-.566v6.525h.656V21.28c0-1.326.348-2.587 1.88-2.587h.475v-.63h-.347zM3.796 39.665c1.48 0 2.523-.85 2.78-2.175h-.695c-.219.965-1.004 1.583-2.085 1.583-1.428 0-2.42-1.12-2.42-2.742 0-1.621.979-2.767 2.42-2.767 1.094 0 1.866.618 2.098 1.596h.682c-.27-1.35-1.287-2.175-2.767-2.175-1.84 0-3.101 1.365-3.101 3.346 0 2.008 1.248 3.334 3.088 3.334zm6.939 0c1.84 0 3.14-1.364 3.14-3.346 0-1.97-1.3-3.334-3.14-3.334S7.607 34.35 7.607 36.32c0 1.982 1.287 3.346 3.128 3.346zm0-.592c-1.455 0-2.458-1.133-2.458-2.754 0-1.61 1.003-2.755 2.458-2.755 1.454 0 2.458 1.146 2.458 2.755 0 1.621-1.004 2.754-2.458 2.754zm11.728-6.088c-1.197 0-1.969.67-2.342 1.635-.309-1.081-1.12-1.635-2.15-1.635-1.119 0-1.788.657-2.123 1.468l-.103-1.39h-.566v6.525h.656v-3.32c0-1.597.773-2.678 2.021-2.678 1.132 0 1.84.798 1.84 2.304v3.694h.657v-3.553c.038-1.492.81-2.445 2.033-2.445 1.133 0 1.815.76 1.815 2.24v3.758h.669v-3.784c0-1.97-1.043-2.819-2.407-2.819zm7.017 0c-1.223 0-2.072.657-2.484 1.57l-.103-1.492h-.566v9.098h.656v-4.08c.374.953 1.262 1.584 2.497 1.584 1.789 0 3.076-1.364 3.076-3.346 0-2.047-1.287-3.334-3.076-3.334zm-.051 6.088c-1.455 0-2.458-1.133-2.458-2.767 0-1.596 1.003-2.741 2.458-2.741 1.454 0 2.458 1.145 2.458 2.754 0 1.621-1.004 2.754-2.458 2.754zm7.31.592c1.84 0 3.14-1.364 3.14-3.346 0-1.97-1.3-3.334-3.14-3.334-1.841 0-3.128 1.365-3.128 3.334 0 1.982 1.287 3.346 3.127 3.346zm0-.592c-1.455 0-2.459-1.133-2.459-2.754 0-1.61 1.004-2.755 2.458-2.755 1.454 0 2.458 1.146 2.458 2.755 0 1.621-1.004 2.754-2.458 2.754zm4.135-1.493c.051 1.351 1.145 2.085 2.78 2.085 1.402 0 2.535-.708 2.535-1.866 0-1.377-1.21-1.648-2.612-1.84-1.017-.142-1.918-.258-1.918-1.172 0-.746.733-1.235 1.84-1.235 1.043 0 1.79.502 1.905 1.351h.67c-.117-1.274-1.16-1.918-2.575-1.918-1.454-.013-2.496.734-2.496 1.854 0 1.312 1.21 1.557 2.548 1.737 1.094.154 1.982.296 1.982 1.261 0 .772-.811 1.261-1.88 1.261-1.248 0-2.058-.579-2.11-1.518h-.67zm11.303-1.313c0 1.712-.849 2.793-2.2 2.793-1.21 0-1.956-.824-1.956-2.381v-3.616h-.657v3.655c0 2.046 1.068 2.947 2.51 2.947 1.158 0 1.917-.618 2.29-1.454l.09 1.377h.58v-6.525h-.657v3.204zm4.866-3.204c-1.21 0-1.725.579-1.995 1.3l-.103-1.3h-.566v6.525h.656V36.28c0-1.325.348-2.587 1.88-2.587h.475v-.63h-.347zm3.738 6.602c1.428 0 2.522-.927 2.805-2.24h-.669c-.257 1.017-1.12 1.648-2.188 1.648-1.454 0-2.368-1.107-2.393-2.626v-.116h5.328c0-.09.012-.193.012-.27-.064-1.943-1.26-3.076-3.011-3.076-1.789 0-3.012 1.365-3.012 3.295 0 2.046 1.275 3.385 3.128 3.385zm-2.394-3.887c.103-1.325 1.094-2.213 2.29-2.213 1.275 0 2.189.785 2.292 2.213h-4.582zm15.796 3.205c-.387 0-.58-.129-.58-.63v-3.038c0-1.493-.913-2.33-2.548-2.33-1.493 0-2.484.721-2.651 1.905h.656c.168-.798.863-1.325 1.97-1.325 1.222 0 1.917.643 1.917 1.724v.566h-2.214c-1.673 0-2.574.721-2.574 1.944 0 1.158.914 1.866 2.304 1.866 1.326 0 2.11-.605 2.51-1.416v.232c-.026.772.296 1.107 1.068 1.107h.386v-.605h-.245zm-1.236-2.034c0 1.249-.888 2.15-2.432 2.15-1.043 0-1.686-.528-1.686-1.339 0-.862.643-1.338 1.853-1.338h2.265v.527zm5.37-3.964c-1.198 0-1.97.618-2.343 1.468l-.103-1.39h-.566v6.525h.656V36.37c0-1.699.862-2.78 2.252-2.78 1.262 0 2.02.824 2.02 2.368v3.63h.657v-3.655c0-2.06-1.094-2.948-2.574-2.948zm9.253 1.545c-.399-.927-1.274-1.545-2.496-1.545-1.79 0-3.076 1.365-3.076 3.334 0 2.059 1.287 3.346 3.076 3.346 1.222 0 2.072-.657 2.484-1.57l.102 1.493h.567v-9.01h-.657v3.952zm-2.445 4.543c-1.454 0-2.458-1.133-2.458-2.754 0-1.61 1.004-2.755 2.458-2.755 1.454 0 2.458 1.146 2.458 2.767 0 1.61-1.004 2.742-2.458 2.742zm8.603-1.004c0 1.042.425 1.519 1.532 1.519h.952v-.605h-.9c-.683 0-.927-.258-.927-.927v-4.389h1.763v-.604h-1.763v-1.828h-.657v1.828h-1.235v.604h1.235v4.402zm6.147-5.006c-1.21 0-1.725.579-1.995 1.3l-.103-1.3h-.566v6.525h.656V36.28c0-1.325.348-2.587 1.88-2.587h.475v-.63h-.347zm6.783 5.92c-.386 0-.579-.129-.579-.63v-3.038c0-1.493-.914-2.33-2.548-2.33-1.493 0-2.484.721-2.651 1.905h.656c.168-.798.862-1.325 1.969-1.325 1.223 0 1.918.643 1.918 1.724v.566h-2.214c-1.673 0-2.574.721-2.574 1.944 0 1.158.914 1.866 2.304 1.866 1.326 0 2.111-.605 2.51-1.416v.232c-.026.772.296 1.107 1.068 1.107h.386v-.605h-.245zm-1.235-2.034c0 1.249-.888 2.15-2.433 2.15-1.042 0-1.685-.528-1.685-1.339 0-.862.643-1.338 1.853-1.338h2.265v.527zm7.585-2.42c-.399-.926-1.274-1.544-2.497-1.544-1.788 0-3.075 1.365-3.075 3.334 0 2.059 1.287 3.346 3.075 3.346 1.223 0 2.072-.657 2.484-1.57l.103 1.493h.566v-9.01h-.656v3.952zm-2.445 4.544c-1.454 0-2.458-1.133-2.458-2.754 0-1.61 1.004-2.755 2.458-2.755 1.454 0 2.458 1.146 2.458 2.767 0 1.61-1.004 2.742-2.458 2.742zm7.528.592c1.429 0 2.523-.927 2.806-2.24h-.669c-.258 1.017-1.12 1.648-2.188 1.648-1.455 0-2.368-1.107-2.394-2.626v-.116h5.328c0-.09.013-.193.013-.27-.065-1.943-1.261-3.076-3.012-3.076-1.789 0-3.011 1.365-3.011 3.295 0 2.046 1.274 3.385 3.127 3.385zm-2.394-3.887c.103-1.325 1.094-2.213 2.291-2.213 1.274 0 2.188.785 2.291 2.213h-4.582zM3.835 54.665c1.428 0 2.522-.927 2.805-2.24h-.669c-.257 1.017-1.12 1.648-2.188 1.648-1.454 0-2.368-1.107-2.393-2.626v-.116h5.328c0-.09.013-.193.013-.27-.065-1.943-1.262-3.076-3.012-3.076-1.789 0-3.011 1.365-3.011 3.295 0 2.046 1.274 3.385 3.127 3.385zM1.44 50.778c.103-1.325 1.094-2.213 2.29-2.213 1.275 0 2.189.785 2.292 2.213H1.44zm11.132-2.715v-.979c0-.643.245-.9.901-.9h.94v-.605h-.978c-1.082 0-1.52.476-1.52 1.518v.966H9.074v-.979c0-.643.244-.9.9-.9h.94v-.605h-.965c-1.094 0-1.532.476-1.532 1.518v.966H7.181v.604h1.235v5.92h.657v-5.92h2.844v5.92h.656v-5.92h2.793v5.92h.656v-6.524h-3.449zm3.128-2.304a.453.453 0 00-.464.463c0 .27.206.464.464.464a.454.454 0 00.463-.464.453.453 0 00-.463-.463zm4.71 8.906c1.48 0 2.523-.85 2.78-2.175h-.695c-.219.965-1.004 1.583-2.085 1.583-1.428 0-2.42-1.12-2.42-2.742 0-1.621.979-2.767 2.42-2.767 1.094 0 1.866.618 2.098 1.596h.682c-.27-1.35-1.287-2.175-2.767-2.175-1.84 0-3.101 1.365-3.101 3.346 0 2.008 1.248 3.334 3.088 3.334zm4.39-7.98a.454.454 0 00.464-.463.453.453 0 00-.463-.463.453.453 0 00-.464.463c0 .27.206.464.463.464zm-.334 7.903h.656v-6.525h-.656v6.525zm5.082.077c1.429 0 2.523-.927 2.806-2.24h-.67c-.257 1.017-1.12 1.648-2.187 1.648-1.455 0-2.368-1.107-2.394-2.626v-.116h5.328c0-.09.013-.193.013-.27-.065-1.943-1.261-3.076-3.012-3.076-1.789 0-3.011 1.365-3.011 3.295 0 2.046 1.274 3.385 3.127 3.385zm-2.394-3.887c.103-1.325 1.094-2.213 2.291-2.213 1.274 0 2.188.785 2.291 2.213h-4.582zm9.599-2.793c-1.197 0-1.97.618-2.343 1.468l-.103-1.39h-.566v6.525h.657V51.37c0-1.699.862-2.78 2.252-2.78 1.26 0 2.02.824 2.02 2.368v3.63h.657v-3.655c0-2.06-1.094-2.948-2.574-2.948zm4.515 5.084c0 1.042.425 1.519 1.532 1.519h.952v-.605h-.9c-.683 0-.927-.258-.927-.927v-4.389h1.763v-.604h-1.763v-1.828h-.657v1.828h-1.235v.604h1.235v4.402zm3.483 1.519h.656v-9.01h-.656v9.01zm4.155 0l-.424 1.055c-.296.72-.412.914-1.081.914h-.824v.604h1.004c.875 0 1.08-.334 1.493-1.364l3.127-7.734h-.708l-2.226 5.675-2.265-5.675h-.708l2.612 6.525zm3.585-.425c0 .296.206.489.489.489.283 0 .489-.193.489-.49 0-.295-.206-.475-.49-.475-.282 0-.488.18-.488.476z" fill="#000"/></svg>