<svg width="133" height="43" viewBox="0 0 133 43" fill="none" xmlns="http://www.w3.org/2000/svg"><path d="M.408 16h2.53v-5.588h3.388L9.296 16h2.816L8.856 9.862c1.804-.638 2.992-2.288 2.992-4.356C11.848 2.514 9.692.6 6.48.6H.408V16zM6.282 2.8c1.804 0 2.97 1.056 2.97 2.706s-1.166 2.706-2.97 2.706H2.938V2.8h3.344zm12.4 13.332c2.794 0 4.686-1.694 5.082-3.916h-2.376c-.33 1.254-1.386 1.98-2.838 1.98-1.87 0-3.08-1.254-3.146-3.168v-.154h8.492c.044-.308.066-.616.066-.902-.066-3.3-2.244-5.368-5.5-5.368-3.322 0-5.544 2.31-5.544 5.786 0 3.454 2.222 5.742 5.764 5.742zm-3.19-6.996c.176-1.606 1.474-2.618 2.992-2.618 1.65 0 2.816.946 3.014 2.618h-6.006zm20.687 4.796c-.484 0-.726-.154-.726-.726v-4.51c0-2.662-1.716-4.092-4.708-4.092-2.838 0-4.73 1.364-4.972 3.564h2.332c.176-.99 1.122-1.65 2.53-1.65 1.562 0 2.464.77 2.464 2.024v.682H30.26c-3.146 0-4.818 1.298-4.818 3.608 0 2.09 1.716 3.3 4.18 3.3 1.826 0 2.97-.792 3.718-1.936 0 1.122.528 1.804 2.068 1.804h1.254v-2.068h-.484zm-3.08-2.552c-.022 1.738-1.166 2.904-3.146 2.904-1.298 0-2.09-.66-2.09-1.606 0-1.144.814-1.694 2.288-1.694h2.948v.396zm13.33-5.082c-.726-.99-1.936-1.694-3.652-1.694-3.058 0-5.324 2.288-5.324 5.764 0 3.608 2.266 5.764 5.324 5.764 1.782 0 2.948-.836 3.674-1.826L46.737 16h2.068V.6H46.43v5.698zm-3.256 7.832c-1.98 0-3.278-1.54-3.278-3.762 0-2.2 1.298-3.74 3.278-3.74s3.278 1.54 3.278 3.784c0 2.178-1.298 3.718-3.278 3.718zm11.21 1.936l-.44 1.1c-.352.924-.572 1.144-1.496 1.144h-1.672v2.09h2.552c1.65 0 2.134-.814 2.838-2.64l5.104-13.024h-2.53l-3.058 8.558-3.146-8.558h-2.53l4.378 11.33zm12.573-9.24h1.958V16h2.398V6.826h3.014v-2.09h-3.058V3.79c0-.77.33-1.1 1.1-1.1h1.958V.6H72.06c-2.178 0-3.146 1.056-3.146 3.08v1.056h-1.958v2.09zm13.45 9.306c3.432 0 5.742-2.31 5.742-5.764 0-3.432-2.31-5.764-5.742-5.764s-5.742 2.332-5.742 5.764c0 3.454 2.31 5.764 5.742 5.764zm0-2.024c-2.002 0-3.3-1.562-3.3-3.74s1.298-3.74 3.3-3.74 3.322 1.562 3.322 3.74-1.32 3.74-3.322 3.74zm13.35-9.372c-1.847 0-2.75.748-3.321 1.694l-.264-1.694h-2.112V16h2.376v-5.654c0-1.738.682-3.388 2.794-3.388h1.056V4.736h-.528zm8.437 8.206c0 2.046.924 3.058 3.08 3.058h2.2v-2.09h-1.672c-.902 0-1.21-.33-1.21-1.21V6.826h2.75v-2.09h-2.75V1.59h-2.398v3.146h-1.958v2.09h1.958v6.116zm12.709-8.338c-1.76 0-2.838.792-3.542 1.76V.6h-2.376V16h2.376v-5.698c0-2.266 1.144-3.652 3.014-3.652 1.76 0 2.706 1.144 2.706 3.278V16h2.376V9.73c0-3.762-2.046-5.126-4.554-5.126zm11.975 11.528c2.794 0 4.686-1.694 5.082-3.916h-2.376c-.33 1.254-1.386 1.98-2.838 1.98-1.87 0-3.08-1.254-3.146-3.168v-.154h8.492c.044-.308.066-.616.066-.902-.066-3.3-2.244-5.368-5.5-5.368-3.322 0-5.544 2.31-5.544 5.786 0 3.454 2.222 5.742 5.764 5.742zm-3.19-6.996c.176-1.606 1.474-2.618 2.992-2.618 1.65 0 2.816.946 3.014 2.618h-6.006zM5.864 30.736c-1.848 0-2.75.748-3.322 1.694l-.264-1.694H.166V42h2.376v-5.654c0-1.738.682-3.388 2.794-3.388h1.056v-2.222h-.528zm6.802 11.396c2.794 0 4.686-1.694 5.082-3.916h-2.376c-.33 1.254-1.386 1.98-2.838 1.98-1.87 0-3.08-1.254-3.146-3.168v-.154h8.492c.044-.308.066-.616.066-.902-.066-3.3-2.244-5.368-5.5-5.368-3.322 0-5.544 2.31-5.544 5.786 0 3.454 2.222 5.742 5.764 5.742zm-3.19-6.996c.176-1.606 1.474-2.618 2.992-2.618 1.65 0 2.816.946 3.014 2.618H9.476zm20.687 4.796c-.484 0-.726-.154-.726-.726v-4.51c0-2.662-1.716-4.092-4.708-4.092-2.838 0-4.73 1.364-4.972 3.564h2.332c.176-.99 1.122-1.65 2.53-1.65 1.562 0 2.464.77 2.464 2.024v.682h-2.838c-3.146 0-4.818 1.298-4.818 3.608 0 2.09 1.716 3.3 4.18 3.3 1.826 0 2.97-.792 3.718-1.936 0 1.122.528 1.804 2.068 1.804h1.254v-2.068h-.484zm-3.08-2.552c-.022 1.738-1.166 2.904-3.146 2.904-1.298 0-2.09-.66-2.09-1.606 0-1.144.814-1.694 2.288-1.694h2.948v.396zM31.941 42h2.376V26.6h-2.376V42zm23.292-11.396c-1.848 0-3.124.814-3.85 2.046-.682-1.452-2.002-2.046-3.476-2.046-1.694.022-2.662.77-3.3 1.606l-.264-1.474h-2.068V42h2.376v-6.028c0-2.002 1.012-3.322 2.64-3.322 1.562 0 2.376 1.034 2.376 3.014V42h2.398v-6.094c0-2.024 1.034-3.256 2.662-3.256 1.54 0 2.354 1.034 2.354 3.014V42h2.376v-6.49c0-3.564-1.892-4.906-4.224-4.906zm16.674 9.328c-.484 0-.726-.154-.726-.726v-4.51c0-2.662-1.716-4.092-4.708-4.092-2.838 0-4.73 1.364-4.972 3.564h2.332c.176-.99 1.122-1.65 2.53-1.65 1.562 0 2.464.77 2.464 2.024v.682H65.99c-3.146 0-4.818 1.298-4.818 3.608 0 2.09 1.716 3.3 4.18 3.3 1.826 0 2.97-.792 3.718-1.936 0 1.122.528 1.804 2.068 1.804h1.254v-2.068h-.484zm-3.08-2.552c-.022 1.738-1.166 2.904-3.146 2.904-1.298 0-2.09-.66-2.09-1.606 0-1.144.814-1.694 2.288-1.694h2.948v.396zm10.556-6.644c-1.847 0-2.75.748-3.322 1.694l-.264-1.694h-2.111V42h2.375v-5.654c0-1.738.682-3.388 2.794-3.388h1.056v-2.222h-.528zM81.377 42h2.376v-2.86l2.024-2.112L89.099 42h2.816l-4.51-6.71 4.246-4.554h-2.794l-5.104 5.456V26.6h-2.376V42zm16.325.132c2.793 0 4.685-1.694 5.081-3.916h-2.376c-.33 1.254-1.385 1.98-2.837 1.98-1.87 0-3.08-1.254-3.146-3.168v-.154h8.491c.044-.308.066-.616.066-.902-.066-3.3-2.244-5.368-5.5-5.368-3.322 0-5.543 2.31-5.543 5.786 0 3.454 2.221 5.742 5.763 5.742zm-3.19-6.996c.175-1.606 1.474-2.618 2.992-2.618 1.65 0 2.815.946 3.013 2.618h-6.005zm11.118 3.806c0 2.046.924 3.058 3.08 3.058h2.2v-2.09h-1.672c-.902 0-1.21-.33-1.21-1.21v-5.874h2.75v-2.09h-2.75V27.59h-2.398v3.146h-1.958v2.09h1.958v6.116zm6.308-.66c.066 2.442 2.134 3.85 5.148 3.85 2.728 0 4.774-1.364 4.774-3.52 0-2.508-2.09-3.036-4.664-3.344-1.628-.176-2.706-.308-2.706-1.364 0-.902.924-1.474 2.332-1.474s2.376.726 2.508 1.76h2.332c-.154-2.31-2.112-3.586-4.884-3.586-2.706-.022-4.62 1.364-4.62 3.498 0 2.332 2.024 2.882 4.598 3.19 1.738.22 2.772.308 2.772 1.518 0 .902-.968 1.474-2.442 1.474-1.716 0-2.728-.836-2.816-2.002h-2.332zm13.097-6.644c0-1.826 1.1-3.058 2.794-3.058 1.474 0 2.464.88 2.464 2.134 0 1.056-.572 1.76-1.562 2.42-1.32.858-2.354 1.584-2.354 3.366v.704h2.244v-.44c0-1.1.748-1.672 1.936-2.486 1.144-.814 2.2-1.782 2.2-3.806 0-2.31-1.892-4.004-4.95-4.004-3.278 0-5.192 2.31-5.192 5.17h2.42zm1.012 9.02c0 .88.66 1.474 1.518 1.474s1.496-.594 1.496-1.474-.638-1.474-1.496-1.474-1.518.594-1.518 1.474z" fill="#000"/></svg>