<svg width="202" height="13" viewBox="0 0 202 13" fill="none" xmlns="http://www.w3.org/2000/svg"><path d="M.278 1.677h3.007V10h1.6V1.677h3.007V.257H.278v1.42zm11.567 1.197c-1.169 0-1.74.473-2.101 1.072l-.167-1.072H8.24V10h1.504V6.423c0-1.1.431-2.143 1.767-2.143h.668V2.874h-.334zm7.557 5.818c-.306 0-.459-.098-.459-.46V5.38c0-1.684-1.085-2.589-2.978-2.589-1.796 0-2.993.863-3.146 2.255h1.476c.11-.626.71-1.044 1.6-1.044.988 0 1.559.487 1.559 1.28v.432h-1.796c-1.99 0-3.047.821-3.047 2.283 0 1.322 1.085 2.088 2.644 2.088 1.155 0 1.879-.502 2.352-1.225 0 .71.334 1.141 1.308 1.141h.794V8.692h-.306zm-1.948-1.615c-.014 1.1-.738 1.837-1.99 1.837-.822 0-1.322-.417-1.322-1.016 0-.723.514-1.071 1.447-1.071h1.865v.25zm8.433-3.215c-.459-.626-1.224-1.072-2.31-1.072-1.935 0-3.368 1.448-3.368 3.647 0 2.283 1.433 3.647 3.368 3.647 1.127 0 1.865-.53 2.324-1.156L26.082 10h1.308V.257h-1.503v3.605zm-2.06 4.955c-1.252 0-2.073-.974-2.073-2.38 0-1.392.82-2.366 2.073-2.366 1.253 0 2.074.974 2.074 2.394 0 1.378-.821 2.352-2.074 2.352zm8.414 1.267c1.768 0 2.965-1.072 3.215-2.478h-1.503c-.208.793-.877 1.253-1.795 1.253-1.183 0-1.949-.794-1.99-2.004v-.098h5.372c.028-.195.042-.39.042-.57-.042-2.088-1.42-3.397-3.48-3.397-2.101 0-3.507 1.462-3.507 3.66 0 2.186 1.406 3.634 3.646 3.634zm-2.018-4.426C30.335 4.642 31.156 4 32.116 4c1.044 0 1.782.599 1.907 1.657h-3.8zM44.172 2.79c-1.114 0-1.851.515-2.325 1.142l-.18-1.058h-1.309v9.91h1.503V8.998c.446.64 1.211 1.086 2.31 1.086 1.95 0 3.369-1.448 3.369-3.647 0-2.283-1.42-3.647-3.368-3.647zm-.25 6.027c-1.253 0-2.075-.988-2.075-2.408 0-1.378.822-2.338 2.074-2.338 1.253 0 2.088.96 2.088 2.366 0 1.392-.835 2.38-2.088 2.38zm8.427-5.943c-1.17 0-1.74.473-2.102 1.072l-.167-1.072h-1.336V10h1.503V6.423c0-1.1.432-2.143 1.768-2.143h.668V2.874h-.334zm4.304 7.21c1.767 0 2.964-1.072 3.215-2.478h-1.504c-.208.793-.876 1.253-1.795 1.253-1.183 0-1.949-.794-1.99-2.004v-.098h5.372c.028-.195.042-.39.042-.57-.042-2.088-1.42-3.397-3.48-3.397-2.101 0-3.507 1.462-3.507 3.66 0 2.186 1.406 3.634 3.647 3.634zm-2.019-4.426C54.746 4.642 55.567 4 56.527 4c1.044 0 1.782.599 1.907 1.657h-3.8zM72.981 8.72c-.32 0-.543-.056-.807-.348l-.432-.474 2.102-3.159h-1.49l-1.46 2.227-1.782-1.935c1.767-.724 2.282-1.642 2.282-2.658 0-1.267-1.072-2.2-2.477-2.2-1.657 0-2.881 1.03-2.881 2.409 0 .82.195 1.35.863 2.185-1.573.696-2.102 1.767-2.102 2.728-.014 1.712 1.42 2.589 3.243 2.589 1.03 0 1.893-.362 2.686-1.114l.376.418c.431.487 1.016.612 1.67.612h1.155V8.72h-.946zm-4.148-7.405c.668 0 1.1.46 1.1 1.1 0 .71-.474 1.308-1.587 1.781-.57-.654-.807-1.03-.807-1.656 0-.71.529-1.225 1.294-1.225zm-.724 7.53c-1.043 0-1.767-.543-1.767-1.503 0-.752.32-1.28 1.266-1.768l.028.028 2.283 2.491c-.543.487-1.127.752-1.81.752zM82.841 2.79c-1.114 0-1.851.515-2.325 1.142l-.18-1.058h-1.309v9.91h1.503V8.998c.446.64 1.211 1.086 2.31 1.086 1.95 0 3.369-1.448 3.369-3.647 0-2.283-1.42-3.647-3.368-3.647zm-.25 6.027c-1.254 0-2.075-.988-2.075-2.408 0-1.378.821-2.338 2.074-2.338s2.088.96 2.088 2.366c0 1.392-.835 2.38-2.088 2.38zm8.19 1.267c2.172 0 3.633-1.462 3.633-3.647 0-2.171-1.461-3.647-3.633-3.647-2.17 0-3.632 1.476-3.632 3.647 0 2.185 1.461 3.647 3.632 3.647zm0-1.281c-1.266 0-2.087-.988-2.087-2.366 0-1.378.82-2.366 2.087-2.366 1.267 0 2.102.988 2.102 2.366 0 1.378-.835 2.366-2.102 2.366zm4.495-1.155c.041 1.545 1.35 2.436 3.257 2.436 1.725 0 3.02-.863 3.02-2.227 0-1.587-1.322-1.921-2.95-2.116-1.03-.111-1.713-.195-1.713-.863 0-.57.585-.932 1.476-.932.89 0 1.503.459 1.586 1.113h1.476c-.098-1.461-1.337-2.269-3.09-2.269-1.712-.014-2.923.863-2.923 2.213 0 1.476 1.28 1.824 2.909 2.019 1.1.139 1.754.194 1.754.96 0 .57-.613.932-1.545.932-1.086 0-1.726-.528-1.782-1.266h-1.475zm7.957.417c0 1.295.584 1.935 1.948 1.935h1.392V8.678h-1.058c-.57 0-.765-.209-.765-.766V4.196h1.74V2.874h-1.74V.884h-1.517v1.99h-1.239v1.322h1.239v3.87zm8.632-1.405V5.42h-4.732v1.24h4.732zm9.584-3.87c-1.169 0-1.976.515-2.435 1.295-.432-.919-1.267-1.295-2.2-1.295-1.071.014-1.684.488-2.087 1.016l-.167-.932h-1.309V10h1.504V6.186c0-1.266.64-2.101 1.67-2.101.988 0 1.503.654 1.503 1.907V10h1.517V6.145c0-1.28.654-2.06 1.684-2.06.974 0 1.489.654 1.489 1.907V10h1.503V5.894c0-2.255-1.196-3.104-2.672-3.104zm10.549 5.902c-.306 0-.459-.098-.459-.46V5.38c0-1.684-1.086-2.589-2.979-2.589-1.795 0-2.992.863-3.145 2.255h1.475c.111-.626.71-1.044 1.6-1.044.989 0 1.559.487 1.559 1.28v.432h-1.795c-1.99 0-3.048.821-3.048 2.283 0 1.322 1.085 2.088 2.644 2.088 1.155 0 1.879-.502 2.352-1.225 0 .71.334 1.141 1.309 1.141h.793V8.692h-.306zm-1.949-1.615c-.014 1.1-.737 1.837-1.99 1.837-.821 0-1.322-.417-1.322-1.016 0-.723.515-1.071 1.447-1.071h1.865v.25zm6.679-4.203c-1.17 0-1.74.473-2.102 1.072l-.167-1.072h-1.336V10h1.503V6.423c0-1.1.431-2.143 1.768-2.143h.668V2.874h-.334zM137.989 10h1.503V8.19l1.28-1.335L142.874 10h1.782l-2.854-4.245 2.686-2.881h-1.767l-3.229 3.452V.257h-1.503V10zm10.327.084c1.768 0 2.965-1.072 3.215-2.478h-1.503c-.209.793-.877 1.253-1.795 1.253-1.183 0-1.949-.794-1.991-2.004v-.098h5.373a4.06 4.06 0 00.042-.57c-.042-2.088-1.42-3.397-3.48-3.397-2.102 0-3.507 1.462-3.507 3.66 0 2.186 1.405 3.634 3.646 3.634zm-2.018-4.426c.112-1.016.933-1.657 1.893-1.657 1.044 0 1.782.599 1.907 1.657h-3.8zm7.034 2.407c0 1.295.585 1.935 1.949 1.935h1.392V8.678h-1.058c-.571 0-.765-.209-.765-.766V4.196h1.739V2.874h-1.739V.884h-1.518v1.99h-1.238v1.322h1.238v3.87zm16.056-5.275c-1.169 0-1.976.515-2.436 1.295-.431-.919-1.266-1.295-2.199-1.295-1.072.014-1.684.488-2.088 1.016l-.167-.932h-1.308V10h1.503V6.186c0-1.266.641-2.101 1.67-2.101.989 0 1.504.654 1.504 1.907V10h1.517V6.145c0-1.28.654-2.06 1.684-2.06.974 0 1.489.654 1.489 1.907V10h1.503V5.894c0-2.255-1.197-3.104-2.672-3.104zm7.349 7.294c2.171 0 3.632-1.462 3.632-3.647 0-2.171-1.461-3.647-3.632-3.647-2.172 0-3.633 1.476-3.633 3.647 0 2.185 1.461 3.647 3.633 3.647zm0-1.281c-1.267 0-2.088-.988-2.088-2.366 0-1.378.821-2.366 2.088-2.366 1.266 0 2.101.988 2.101 2.366 0 1.378-.835 2.366-2.101 2.366zM183.172 10h1.838l2.63-7.126h-1.586l-1.935 5.511-1.963-5.511h-1.614l2.63 7.126zm8.285.084c1.768 0 2.965-1.072 3.215-2.478h-1.503c-.209.793-.877 1.253-1.796 1.253-1.183 0-1.948-.794-1.99-2.004v-.098h5.373a4.21 4.21 0 00.041-.57c-.041-2.088-1.419-3.397-3.479-3.397-2.102 0-3.508 1.462-3.508 3.66 0 2.186 1.406 3.634 3.647 3.634zm-2.018-4.426c.111-1.016.932-1.657 1.893-1.657 1.044 0 1.781.599 1.907 1.657h-3.8zm6.227 1.99c.041 1.545 1.35 2.436 3.256 2.436 1.726 0 3.021-.863 3.021-2.227 0-1.587-1.323-1.921-2.951-2.116-1.03-.111-1.712-.195-1.712-.863 0-.57.585-.932 1.475-.932.891 0 1.504.459 1.587 1.113h1.475c-.097-1.461-1.336-2.269-3.089-2.269-1.712-.014-2.923.863-2.923 2.213 0 1.476 1.28 1.824 2.909 2.019 1.099.139 1.753.194 1.753.96 0 .57-.612.932-1.545.932-1.085 0-1.725-.528-1.781-1.266h-1.475z" fill="url(#paint0_linear_1240_5997)"/><defs><linearGradient id="paint0_linear_1240_5997" x1="210" y1="5" x2="0" y2="5" gradientUnits="userSpaceOnUse"><stop stop-color="#FF4343"/><stop offset=".5" stop-color="#9C0B93"/><stop offset="1" stop-color="#4C1BB7"/></linearGradient></defs></svg>