<svg width="88" height="22" viewBox="0 0 88 22" fill="none" xmlns="http://www.w3.org/2000/svg"><rect x=".785" y=".797" width="87" height="21" rx="10.5" fill="#000"/><path d="M14.22 12.308c.054 1.5 1.141 2.555 3 2.555 1.598 0 2.707-.924 2.707-2.24 0-1.478-1.272-1.891-2.511-2.098-1.142-.195-2.066-.38-2.066-1.293 0-.815.663-1.25 1.653-1.25 1.032 0 1.739.576 1.847 1.457h.979c-.087-1.37-1.13-2.316-2.826-2.316-1.544 0-2.598.87-2.598 2.163 0 1.479 1.26 1.88 2.489 2.087 1.152.196 2.087.392 2.087 1.337 0 .826-.728 1.294-1.75 1.294-1.163 0-1.957-.674-2.033-1.696h-.978zm7.19 1.044c0 .978.38 1.445 1.445 1.445h.968v-.815h-.881c-.478 0-.641-.174-.641-.641v-3.272h1.434v-.815h-1.434V7.699h-.892v1.555h-1v.815h1v3.283zm8.002.63c-.25 0-.359-.076-.359-.37V11.19c0-1.294-.815-2-2.228-2-1.337 0-2.217.64-2.348 1.728h.892c.108-.565.63-.935 1.413-.935.87 0 1.38.435 1.38 1.152v.38h-1.63c-1.457 0-2.229.62-2.229 1.729 0 1.01.826 1.62 2.044 1.62.956 0 1.51-.424 1.859-.924.01.543.26.858 1 .858h.489v-.815h-.283zm-1.25-1.446c0 .924-.641 1.566-1.75 1.566-.739 0-1.206-.37-1.206-.913 0-.63.445-.924 1.239-.924h1.717v.271zm4.783-3.282c-.989 0-1.413.413-1.674.837l-.12-.837h-.771v5.543h.891v-2.826c0-.88.316-1.848 1.479-1.848h.445v-.87h-.25zm1.616 4.098c0 .978.38 1.445 1.446 1.445h.967v-.815h-.88c-.478 0-.641-.174-.641-.641v-3.272h1.434v-.815h-1.434V7.699h-.892v1.555h-1v.815h1v3.283zm6.444 0c0 .978.38 1.445 1.445 1.445h.968v-.815h-.88c-.48 0-.642-.174-.642-.641v-3.272h1.435v-.815h-1.435V7.699h-.891v1.555h-1v.815h1v3.283zm5.75-4.098c-.989 0-1.413.413-1.674.837l-.12-.837h-.771v5.543h.891v-2.826c0-.88.316-1.848 1.479-1.848h.445v-.87h-.25zm5.734 4.728c-.25 0-.359-.076-.359-.37V11.19c0-1.294-.815-2-2.228-2-1.337 0-2.217.64-2.348 1.728h.892c.108-.565.63-.935 1.413-.935.87 0 1.38.435 1.38 1.152v.38h-1.63c-1.457 0-2.229.62-2.229 1.729 0 1.01.826 1.62 2.044 1.62.956 0 1.51-.424 1.858-.924.011.543.261.858 1 .858h.49v-.815h-.283zm-1.25-1.446c0 .924-.641 1.566-1.75 1.566-.74 0-1.207-.37-1.207-.913 0-.63.446-.924 1.24-.924h1.717v.271zm6.524-2.434c-.337-.533-.968-.913-1.902-.913-1.533 0-2.663 1.14-2.663 2.836 0 1.805 1.13 2.838 2.663 2.838.934 0 1.532-.446 1.902-.957l.12.891h.771V7.19h-.891v2.913zm-1.816 3.967c-1.097 0-1.836-.837-1.836-2.044 0-1.206.739-2.043 1.837-2.043 1.087 0 1.826.848 1.826 2.065 0 1.185-.74 2.022-1.827 2.022zm4.378-5.75a.56.56 0 00.576-.576.56.56 0 00-.576-.576.56.56 0 00-.576.576c0 .337.25.576.576.576zm-.457 6.478h.892V9.254h-.892v5.543zm4.83-5.608c-.935 0-1.5.39-1.826.815l-.12-.75h-.771v5.543h.891v-2.772c0-1.25.63-2.021 1.674-2.021.967 0 1.5.609 1.5 1.76v3.033h.891V11.71c0-1.837-.989-2.521-2.239-2.521zm7.745 1.021c-.348-.62-.967-1.021-1.902-1.021-1.533 0-2.663 1.14-2.663 2.836 0 1.805 1.13 2.838 2.663 2.838.935 0 1.533-.392 1.902-1.022v.652c0 1.207-.63 1.75-1.793 1.75-.924 0-1.544-.391-1.696-1.087h-.913c.141 1.217 1.13 1.88 2.544 1.88 1.902 0 2.75-.913 2.75-2.51V9.254h-.772l-.12.956zm-1.815 3.859c-1.098 0-1.837-.837-1.837-2.044 0-1.206.74-2.043 1.837-2.043 1.087 0 1.826.848 1.826 2.065 0 1.185-.739 2.022-1.826 2.022z" fill="#fff"/></svg>