<svg width="412" height="33" viewBox="0 0 412 33" fill="none" xmlns="http://www.w3.org/2000/svg"><path d="M11.512 25.204c3.774 0 6.222-1.7 7.378-3.4L19.23 25h3.026V11.978H11.92v3.298h6.596v.578c-.204 3.842-3.162 5.916-6.834 5.916-4.556 0-7.412-3.57-7.412-8.67s2.924-8.67 7.446-8.67c3.298 0 5.576 1.836 6.29 4.862h4.046C21.338 4.26 17.326.996 11.818.996 4.746.996.258 5.858.258 13.1c0 7.242 4.59 12.104 11.254 12.104zM26.236 25h3.672V1.2h-3.672V25zm15.5.204c5.303 0 8.873-3.57 8.873-8.908 0-5.304-3.57-8.908-8.874-8.908s-8.874 3.604-8.874 8.908c0 5.338 3.57 8.908 8.874 8.908zm0-3.128c-3.095 0-5.1-2.414-5.1-5.78s2.005-5.78 5.1-5.78c3.093 0 5.133 2.414 5.133 5.78s-2.04 5.78-5.134 5.78zM62.877 7.388c-2.686 0-4.488 1.224-5.644 2.788V1.2h-3.672V25h3.196l.442-2.516c1.088 1.564 2.958 2.72 5.678 2.72 4.76 0 8.228-3.57 8.228-8.908 0-5.61-3.468-8.908-8.228-8.908zm-.612 14.722c-3.06 0-5.066-2.414-5.066-5.848 0-3.366 2.006-5.746 5.066-5.746s5.1 2.38 5.1 5.78c0 3.434-2.04 5.814-5.1 5.814zm27.694-.306c-.748 0-1.122-.238-1.122-1.122v-6.97c0-4.114-2.652-6.324-7.276-6.324-4.386 0-7.31 2.108-7.684 5.508h3.604c.272-1.53 1.734-2.55 3.91-2.55 2.414 0 3.808 1.19 3.808 3.128v1.054h-4.386c-4.862 0-7.446 2.006-7.446 5.576 0 3.23 2.652 5.1 6.46 5.1 2.822 0 4.59-1.224 5.746-2.992 0 1.734.816 2.788 3.196 2.788h1.938v-3.196h-.748zM85.2 17.86c-.034 2.686-1.802 4.488-4.862 4.488-2.006 0-3.23-1.02-3.23-2.482 0-1.768 1.258-2.618 3.536-2.618H85.2v.612zM92.708 25h3.672V1.2h-3.672V25zm35.997-17.612c-2.856 0-4.828 1.258-5.95 3.162-1.054-2.244-3.094-3.162-5.372-3.162-2.618.034-4.114 1.19-5.1 2.482l-.408-2.278h-3.196V25h3.672v-9.316c0-3.094 1.564-5.134 4.08-5.134 2.414 0 3.672 1.598 3.672 4.658V25h3.706v-9.418c0-3.128 1.598-5.032 4.114-5.032 2.38 0 3.638 1.598 3.638 4.658V25h3.672V14.97c0-5.508-2.924-7.582-6.528-7.582zm25.769 14.416c-.748 0-1.122-.238-1.122-1.122v-6.97c0-4.114-2.652-6.324-7.276-6.324-4.386 0-7.31 2.108-7.684 5.508h3.604c.272-1.53 1.734-2.55 3.91-2.55 2.414 0 3.808 1.19 3.808 3.128v1.054h-4.386c-4.862 0-7.446 2.006-7.446 5.576 0 3.23 2.652 5.1 6.46 5.1 2.822 0 4.59-1.224 5.746-2.992 0 1.734.816 2.788 3.196 2.788h1.938v-3.196h-.748zm-4.76-3.944c-.034 2.686-1.802 4.488-4.862 4.488-2.006 0-3.23-1.02-3.23-2.482 0-1.768 1.258-2.618 3.536-2.618h4.556v.612zm16.314-10.268c-2.856 0-4.25 1.156-5.134 2.618l-.408-2.618h-3.264V25h3.672v-8.738c0-2.686 1.054-5.236 4.318-5.236h1.632V7.592h-.816zM169.109 25h3.672v-4.42l3.128-3.264L181.043 25h4.352l-6.97-10.37 6.562-7.038h-4.318l-7.888 8.432V1.2h-3.672V25zm25.228.204c4.318 0 7.242-2.618 7.854-6.052h-3.672c-.51 1.938-2.142 3.06-4.386 3.06-2.89 0-4.76-1.938-4.862-4.896v-.238h13.124c.068-.476.102-.952.102-1.394-.102-5.1-3.468-8.296-8.5-8.296-5.134 0-8.568 3.57-8.568 8.942 0 5.338 3.434 8.874 8.908 8.874zm-4.93-10.812c.272-2.482 2.278-4.046 4.624-4.046 2.55 0 4.352 1.462 4.658 4.046h-9.282zm17.184 5.882c0 3.162 1.428 4.726 4.76 4.726h3.4v-3.23h-2.584c-1.394 0-1.87-.51-1.87-1.87v-9.078h4.25v-3.23h-4.25V2.73h-3.706v4.862h-3.026v3.23h3.026v9.452zm9.748-1.02c.102 3.774 3.298 5.95 7.956 5.95 4.216 0 7.378-2.108 7.378-5.44 0-3.876-3.23-4.692-7.208-5.168-2.516-.272-4.182-.476-4.182-2.108 0-1.394 1.428-2.278 3.604-2.278s3.672 1.122 3.876 2.72h3.604c-.238-3.57-3.264-5.542-7.548-5.542-4.182-.034-7.14 2.108-7.14 5.406 0 3.604 3.128 4.454 7.106 4.93 2.686.34 4.284.476 4.284 2.346 0 1.394-1.496 2.278-3.774 2.278-2.652 0-4.216-1.292-4.352-3.094h-3.604zm42.791 2.55c-.748 0-1.122-.238-1.122-1.122v-6.97c0-4.114-2.652-6.324-7.276-6.324-4.386 0-7.31 2.108-7.684 5.508h3.604c.272-1.53 1.734-2.55 3.91-2.55 2.414 0 3.808 1.19 3.808 3.128v1.054h-4.386c-4.862 0-7.446 2.006-7.446 5.576 0 3.23 2.652 5.1 6.46 5.1 2.822 0 4.59-1.224 5.746-2.992 0 1.734.816 2.788 3.196 2.788h1.938v-3.196h-.748zm-4.76-3.944c-.034 2.686-1.802 4.488-4.862 4.488-2.006 0-3.23-1.02-3.23-2.482 0-1.768 1.258-2.618 3.536-2.618h4.556v.612zm16.314-10.268c-2.856 0-4.25 1.156-5.134 2.618l-.408-2.618h-3.264V25h3.672v-8.738c0-2.686 1.054-5.236 4.318-5.236h1.632V7.592h-.816zm10.513 17.612c4.318 0 7.242-2.618 7.854-6.052h-3.672c-.51 1.938-2.142 3.06-4.386 3.06-2.89 0-4.76-1.938-4.862-4.896v-.238h13.124c.068-.476.102-.952.102-1.394-.102-5.1-3.468-8.296-8.5-8.296-5.134 0-8.568 3.57-8.568 8.942 0 5.338 3.434 8.874 8.908 8.874zm-4.93-10.812c.272-2.482 2.278-4.046 4.624-4.046 2.55 0 4.352 1.462 4.658 4.046h-9.282zm44.784-7.004c-2.856 0-4.828 1.258-5.95 3.162-1.054-2.244-3.094-3.162-5.372-3.162-2.618.034-4.114 1.19-5.1 2.482l-.408-2.278h-3.196V25h3.672v-9.316c0-3.094 1.564-5.134 4.08-5.134 2.414 0 3.672 1.598 3.672 4.658V25h3.706v-9.418c0-3.128 1.598-5.032 4.114-5.032 2.38 0 3.638 1.598 3.638 4.658V25h3.672V14.97c0-5.508-2.924-7.582-6.528-7.582zm17.952 17.816c5.304 0 8.874-3.57 8.874-8.908 0-5.304-3.57-8.908-8.874-8.908s-8.874 3.604-8.874 8.908c0 5.338 3.57 8.908 8.874 8.908zm0-3.128c-3.094 0-5.1-2.414-5.1-5.78s2.006-5.78 5.1-5.78 5.134 2.414 5.134 5.78-2.04 5.78-5.134 5.78zM354.724 25h4.488l6.426-17.408h-3.876l-4.726 13.464-4.794-13.464h-3.944L354.724 25zm14.643-19.856c1.258 0 2.244-.918 2.244-2.21 0-1.292-.986-2.21-2.244-2.21-1.258 0-2.244.918-2.244 2.21 0 1.292.986 2.21 2.244 2.21zM367.497 25h3.672V7.592h-3.672V25zm16.452-17.612c-2.822 0-4.488 1.122-5.576 2.482l-.408-2.278h-3.196V25h3.672v-8.772c0-3.536 1.734-5.678 4.658-5.678 2.754 0 4.148 1.768 4.148 5.066V25h3.706v-9.69c0-5.814-3.162-7.922-7.004-7.922zm23.637 2.924c-1.122-1.734-2.992-2.924-5.712-2.924-4.726 0-8.228 3.502-8.228 8.84 0 5.542 3.502 8.84 8.228 8.84 2.72 0 4.522-1.122 5.678-2.856v1.938c0 3.332-1.802 4.862-4.998 4.862-2.584 0-4.284-1.122-4.726-3.06h-3.74c.34 3.91 3.57 6.052 8.194 6.052 6.256 0 8.908-2.992 8.908-7.718V7.592h-3.196l-.408 2.72zm-5.1 11.662c-3.06 0-5.066-2.346-5.066-5.746 0-3.366 2.006-5.746 5.066-5.746s5.066 2.38 5.066 5.814c0 3.332-2.006 5.678-5.066 5.678z" fill="#000"/></svg>