<svg width="147" height="44" viewBox="0 0 147 44" fill="none" xmlns="http://www.w3.org/2000/svg"><rect x=".036" y=".748" width="146" height="43" rx="21.5" fill="#fff"/><path d="M30.45 28.748V16.9h1.395v10.638h5.982v1.21H30.45zm12.672.151c-1.322 0-2.364-.38-3.126-1.143-.762-.773-1.143-1.843-1.143-3.21 0-.885.168-1.652.504-2.302a3.66 3.66 0 011.412-1.53c.605-.369 1.3-.554 2.084-.554.773 0 1.423.163 1.95.488.526.325.93.79 1.21 1.395.28.593.42 1.3.42 2.117v.504h-6.538v-.857h5.647l-.286.219c0-.897-.202-1.597-.605-2.101-.403-.504-1.003-.756-1.798-.756-.84 0-1.496.296-1.966.89-.47.583-.706 1.373-.706 2.37v.151c0 1.053.258 1.854.773 2.403.526.538 1.26.807 2.201.807.505 0 .975-.073 1.412-.218a3.965 3.965 0 001.277-.757l.47.958c-.369.359-.84.639-1.41.84-.561.19-1.155.286-1.782.286zm8.603 0c-.75 0-1.406-.174-1.966-.52-.56-.36-.997-.864-1.31-1.513-.303-.65-.455-1.429-.455-2.336 0-.919.152-1.703.454-2.353.314-.65.75-1.148 1.31-1.496.561-.347 1.216-.52 1.967-.52.762 0 1.417.195 1.966.587.56.381.93.902 1.11 1.563h-.202l.185-2h1.31l-.1.992c-.023.325-.034.644-.034.958v6.487H54.6v-1.983h.185a2.678 2.678 0 01-1.11 1.563c-.56.38-1.21.571-1.949.571zm.269-1.11c.807 0 1.445-.274 1.916-.823.47-.56.706-1.372.706-2.436 0-1.076-.236-1.888-.706-2.437-.47-.56-1.11-.84-1.916-.84-.795 0-1.434.28-1.916.84-.47.549-.706 1.361-.706 2.437 0 1.064.236 1.876.706 2.436.482.55 1.12.824 1.916.824zm6.564.959v-6.403c0-.336-.01-.678-.033-1.025a14.28 14.28 0 00-.067-1.008h1.31l.168 2.05-.235.017c.112-.505.308-.92.588-1.244.28-.325.61-.566.992-.723.38-.168.778-.252 1.193-.252.168 0 .314.006.437.017.134.011.258.04.37.084l-.017 1.21a1.976 1.976 0 00-.47-.1 2.897 2.897 0 00-.471-.034c-.493 0-.925.117-1.294.353a2.37 2.37 0 00-.824.907c-.179.37-.269.762-.269 1.176v4.975h-1.378zm6.139 0V22.26a9.31 9.31 0 00-.05-.958c-.023-.336-.05-.666-.084-.991h1.31l.168 1.848h-.201c.246-.65.638-1.143 1.176-1.479.55-.347 1.182-.52 1.9-.52.996 0 1.747.268 2.251.806.515.527.773 1.361.773 2.504v5.277H70.58v-5.193c0-.796-.163-1.372-.487-1.73-.314-.37-.807-.555-1.48-.555-.784 0-1.405.24-1.865.722-.46.482-.689 1.126-.689 1.933v4.823h-1.361zm14.229 0V22.26a9.31 9.31 0 00-.05-.958c-.023-.336-.051-.666-.085-.991h1.311l.168 1.848h-.201c.224-.638.576-1.131 1.058-1.479.493-.347 1.087-.52 1.782-.52.705 0 1.277.167 1.714.503.448.337.75.858.907 1.563h-.252a2.893 2.893 0 011.126-1.512c.538-.37 1.165-.555 1.882-.555.93 0 1.63.27 2.1.807.472.527.707 1.361.707 2.504v5.277H89.73v-5.193c0-.796-.14-1.372-.42-1.73-.28-.37-.728-.555-1.344-.555-.706 0-1.266.246-1.68.739-.404.482-.606 1.131-.606 1.95v4.789h-1.36v-5.193c0-.796-.14-1.372-.42-1.73-.281-.37-.73-.555-1.345-.555-.706 0-1.26.246-1.664.739-.403.482-.605 1.131-.605 1.95v4.789h-1.361zm18.215.151c-.806 0-1.512-.174-2.117-.52a3.607 3.607 0 01-1.378-1.513c-.325-.661-.487-1.44-.487-2.336 0-.908.162-1.686.487-2.336a3.498 3.498 0 011.378-1.496c.605-.358 1.31-.538 2.117-.538.818 0 1.524.18 2.118.538.605.347 1.07.846 1.395 1.496.336.65.504 1.428.504 2.336 0 .896-.168 1.675-.504 2.336a3.575 3.575 0 01-1.395 1.512c-.594.347-1.3.521-2.118.521zm0-1.11c.807 0 1.446-.274 1.916-.823.47-.56.706-1.372.706-2.436 0-1.076-.24-1.888-.723-2.437-.47-.56-1.103-.84-1.899-.84-.795 0-1.428.28-1.898.84-.471.549-.706 1.361-.706 2.437 0 1.064.235 1.876.706 2.436.47.55 1.103.824 1.898.824zm6.106.959v-6.403c0-.336-.012-.678-.034-1.025a14.524 14.524 0 00-.067-1.008h1.311l.168 2.05-.236.017c.112-.505.308-.92.589-1.244.28-.325.61-.566.991-.723a2.927 2.927 0 011.193-.252c.168 0 .314.006.437.017.135.011.258.04.37.084l-.017 1.21a1.978 1.978 0 00-.47-.1 2.91 2.91 0 00-.471-.034c-.493 0-.924.117-1.294.353a2.362 2.362 0 00-.823.907c-.18.37-.269.762-.269 1.176v4.975h-1.378zm9.787.151c-1.322 0-2.364-.38-3.125-1.143-.762-.773-1.143-1.843-1.143-3.21 0-.885.168-1.652.504-2.302a3.66 3.66 0 011.412-1.53c.605-.369 1.299-.554 2.084-.554.773 0 1.422.163 1.949.488.526.325.93.79 1.21 1.395.28.593.42 1.3.42 2.117v.504h-6.537v-.857h5.646l-.285.219c0-.897-.202-1.597-.605-2.101-.404-.504-1.003-.756-1.798-.756-.841 0-1.496.296-1.967.89-.47.583-.706 1.373-.706 2.37v.151c0 1.053.258 1.854.774 2.403.526.538 1.26.807 2.201.807.504 0 .975-.073 1.412-.218a3.963 3.963 0 001.277-.757l.47.958c-.369.359-.84.639-1.411.84-.56.19-1.154.286-1.782.286z" fill="#123B63"/></svg>