<svg width="116" height="45" viewBox="0 0 116 45" fill="none" xmlns="http://www.w3.org/2000/svg"><path d="M4.465 14h1.216L9.12 2.391 12.559 14h1.216L17.841.7h-1.064l-3.591 11.951L9.69.7H8.645L5.054 12.651 1.501.7H.418L4.465 14zM19.892 2.334a.67.67 0 00.684-.684.67.67 0 00-.684-.684.67.67 0 00-.684.684.67.67 0 00.684.684zM19.398 14h.969V4.367h-.97V14zm3.969-2.242c0 1.539.627 2.242 2.26 2.242h1.407v-.893h-1.33c-1.007 0-1.368-.38-1.368-1.368V5.26h2.603v-.893h-2.603V1.669h-.97v2.698h-1.823v.893h1.824v6.498zm9.587-7.505c-1.805 0-2.926 1.007-3.477 2.394V.7h-.969V14h.97V9.25c0-2.508 1.272-4.104 3.324-4.104 1.843 0 2.983 1.216 2.983 3.496V14h.97V8.604c0-3.04-1.616-4.351-3.8-4.351zm19.558 8.854c-.57 0-.855-.19-.855-.931V7.692c0-2.204-1.349-3.439-3.762-3.439-2.204 0-3.667 1.064-3.914 2.812h.97c.246-1.178 1.272-1.957 2.906-1.957 1.805 0 2.831.95 2.831 2.546v.836H47.42c-2.47 0-3.8 1.064-3.8 2.869 0 1.71 1.35 2.755 3.401 2.755 1.957 0 3.116-.893 3.705-2.09v.342c-.038 1.14.437 1.634 1.577 1.634h.57v-.893h-.36zm-1.824-3.002c0 1.843-1.31 3.173-3.59 3.173-1.54 0-2.49-.779-2.49-1.976 0-1.273.95-1.976 2.736-1.976h3.344v.779zm9.324 1.653c0 1.539.627 2.242 2.261 2.242h1.406v-.893h-1.33c-1.007 0-1.368-.38-1.368-1.368V5.26h2.603v-.893h-2.603V1.669h-.969v2.698h-1.824v.893h1.824v6.498zm9.075-7.391c-1.786 0-2.546.855-2.945 1.919l-.152-1.919h-.836V14h.969V9.117c0-1.957.513-3.819 2.774-3.819h.703v-.931h-.513zm8.94 4.731c0 2.527-1.254 4.123-3.249 4.123-1.785 0-2.888-1.216-2.888-3.515V4.367h-.969v5.396c0 3.021 1.578 4.351 3.705 4.351 1.71 0 2.831-.912 3.382-2.147L78.141 14h.855V4.367h-.968v4.731zm2.814 1.938c.076 1.995 1.69 3.078 4.104 3.078 2.07 0 3.743-1.045 3.743-2.755 0-2.033-1.786-2.432-3.857-2.717C83.33 8.433 82 8.262 82 6.913c0-1.102 1.083-1.824 2.717-1.824 1.539 0 2.64.741 2.812 1.995h.988c-.171-1.881-1.71-2.831-3.8-2.831-2.147-.019-3.686 1.083-3.686 2.736 0 1.938 1.786 2.299 3.762 2.565 1.615.228 2.926.437 2.926 1.862 0 1.14-1.197 1.862-2.774 1.862-1.843 0-3.04-.855-3.116-2.242h-.988zm10.418.722c0 1.539.626 2.242 2.26 2.242h1.406v-.893h-1.33c-1.007 0-1.367-.38-1.367-1.368V5.26h2.603v-.893h-2.603V1.669h-.97v2.698h-1.823v.893h1.823v6.498zm9.1 2.356c2.109 0 3.724-1.368 4.142-3.306h-.988c-.38 1.501-1.653 2.432-3.23 2.432-2.147 0-3.496-1.634-3.534-3.876v-.171h7.866c0-.133.019-.285.019-.399-.095-2.869-1.862-4.541-4.446-4.541-2.641 0-4.446 2.014-4.446 4.864 0 3.021 1.88 4.997 4.617 4.997zm-3.534-5.738c.152-1.957 1.615-3.268 3.382-3.268 1.881 0 3.23 1.159 3.382 3.268h-6.764zm17.59-1.843c-.589-1.368-1.881-2.28-3.686-2.28-2.641 0-4.541 2.014-4.541 4.921 0 3.04 1.9 4.94 4.541 4.94 1.805 0 3.059-.969 3.667-2.318l.152 2.204h.836V.7h-.969v5.833zm-3.61 6.707c-2.147 0-3.629-1.672-3.629-4.066 0-2.375 1.482-4.066 3.629-4.066 2.147 0 3.629 1.691 3.629 4.085 0 2.375-1.482 4.047-3.629 4.047zM5.795 31.253c-1.805 0-3.059.969-3.667 2.318l-.152-2.204H1.14V44.8h.969v-6.023c.551 1.406 1.862 2.337 3.686 2.337 2.641 0 4.541-2.014 4.541-4.94 0-3.021-1.9-4.921-4.541-4.921zm-.076 8.987c-2.147 0-3.629-1.672-3.629-4.085 0-2.356 1.482-4.047 3.629-4.047 2.147 0 3.629 1.691 3.629 4.066 0 2.394-1.482 4.066-3.629 4.066zm10.468-8.873c-1.786 0-2.546.855-2.945 1.919l-.152-1.919h-.836V41h.97v-4.883c0-1.957.512-3.819 2.773-3.819h.703v-.931h-.513zm5.519 9.747c2.717 0 4.636-2.014 4.636-4.94 0-2.907-1.92-4.921-4.636-4.921-2.717 0-4.617 2.014-4.617 4.921 0 2.926 1.9 4.94 4.617 4.94zm0-.874c-2.147 0-3.63-1.672-3.63-4.066 0-2.375 1.483-4.066 3.63-4.066s3.629 1.691 3.629 4.066c0 2.394-1.482 4.066-3.63 4.066zm8.946.76h1.159l3.762-9.633h-1.007l-3.306 8.512-3.325-8.512H26.89L30.652 41zm6.737-11.666a.67.67 0 00.684-.684.67.67 0 00-.684-.684.67.67 0 00-.684.684.67.67 0 00.684.684zM36.895 41h.969v-9.633h-.97V41zm11.113-7.467c-.589-1.368-1.881-2.28-3.686-2.28-2.641 0-4.541 2.014-4.541 4.921 0 3.04 1.9 4.94 4.541 4.94 1.805 0 3.059-.969 3.667-2.318L48.141 41h.836V27.7h-.969v5.833zm-3.61 6.707c-2.147 0-3.629-1.672-3.629-4.066 0-2.375 1.482-4.066 3.629-4.066 2.147 0 3.629 1.691 3.629 4.085 0 2.375-1.482 4.047-3.629 4.047zm11.114.874c2.11 0 3.724-1.368 4.142-3.306h-.988c-.38 1.501-1.653 2.432-3.23 2.432-2.147 0-3.496-1.634-3.534-3.876v-.171h7.866c0-.133.02-.285.02-.399-.096-2.869-1.863-4.541-4.447-4.541-2.64 0-4.446 2.014-4.446 4.864 0 3.021 1.881 4.997 4.617 4.997zm-3.534-5.738c.152-1.957 1.615-3.268 3.382-3.268 1.881 0 3.23 1.159 3.382 3.268h-6.764zm13.657-4.009c-1.786 0-2.546.855-2.945 1.919l-.151-1.919h-.837V41h.97v-4.883c0-1.957.513-3.819 2.773-3.819h.704v-.931h-.514z" fill="#000"/></svg>