<svg width="136" height="52" viewBox="0 0 136 52" fill="none" xmlns="http://www.w3.org/2000/svg"><path d="M.54 2.854h5.832V19h3.105V2.854h5.832V.1H.54v2.754zm22.439 2.322c-2.268 0-3.375.918-4.077 2.079l-.324-2.079h-2.592V19h2.916v-6.939c0-2.133.837-4.158 3.429-4.158h1.296V5.176h-.648zm14.66 11.286c-.594 0-.89-.189-.89-.891v-5.535c0-3.267-2.107-5.022-5.779-5.022-3.483 0-5.805 1.674-6.102 4.374h2.862c.216-1.215 1.377-2.025 3.105-2.025 1.917 0 3.024.945 3.024 2.484v.837h-3.483c-3.86 0-5.913 1.593-5.913 4.428 0 2.565 2.106 4.05 5.13 4.05 2.241 0 3.645-.972 4.563-2.376 0 1.377.648 2.214 2.538 2.214h1.54v-2.538h-.595zm-3.78-3.132c-.027 2.133-1.43 3.564-3.86 3.564-1.594 0-2.566-.81-2.566-1.971 0-1.404 1-2.079 2.808-2.079h3.618v.486zm16.36-6.237c-.89-1.215-2.376-2.079-4.482-2.079-3.753 0-6.534 2.808-6.534 7.074 0 4.428 2.781 7.074 6.534 7.074 2.187 0 3.618-1.026 4.51-2.241l.35 2.079h2.538V.1H50.22v6.993zm-3.996 9.612c-2.43 0-4.023-1.89-4.023-4.617 0-2.7 1.593-4.59 4.023-4.59 2.43 0 4.023 1.89 4.023 4.644 0 2.673-1.593 4.563-4.023 4.563zm16.323 2.457c3.429 0 5.75-2.079 6.237-4.806h-2.916c-.405 1.539-1.701 2.43-3.483 2.43-2.295 0-3.78-1.539-3.861-3.888v-.189h10.422c.054-.378.08-.756.08-1.107-.08-4.05-2.753-6.588-6.75-6.588-4.076 0-6.803 2.835-6.803 7.101 0 4.239 2.727 7.047 7.074 7.047zm-3.915-8.586c.216-1.971 1.809-3.213 3.672-3.213 2.025 0 3.456 1.161 3.699 3.213H58.63zM.54 34.854h5.832V51h3.105V34.854h5.832V32.1H.54v2.754zm20.873 16.308c3.429 0 5.75-2.079 6.237-4.806h-2.916c-.405 1.539-1.701 2.43-3.483 2.43-2.295 0-3.78-1.539-3.861-3.888v-.189h10.422c.054-.378.08-.756.08-1.107-.08-4.05-2.753-6.588-6.75-6.588-4.076 0-6.803 2.835-6.803 7.101 0 4.239 2.727 7.047 7.074 7.047zm-3.915-8.586c.216-1.971 1.809-3.213 3.672-3.213 2.025 0 3.456 1.161 3.699 3.213h-7.371zm12.08 3.861c.08 2.997 2.618 4.725 6.317 4.725 3.348 0 5.86-1.674 5.86-4.32 0-3.078-2.566-3.726-5.725-4.104-1.998-.216-3.32-.378-3.32-1.674 0-1.107 1.133-1.809 2.861-1.809 1.728 0 2.916.891 3.078 2.16h2.862c-.189-2.835-2.592-4.401-5.994-4.401-3.32-.027-5.67 1.674-5.67 4.293 0 2.862 2.484 3.537 5.643 3.915 2.133.27 3.402.378 3.402 1.863 0 1.107-1.188 1.809-2.997 1.809-2.106 0-3.348-1.026-3.456-2.457h-2.862zM44.013 51h2.916V32.1h-2.916V51zm18.41-2.538c-.594 0-.89-.189-.89-.891v-5.535c0-3.267-2.107-5.022-5.779-5.022-3.483 0-5.805 1.674-6.102 4.374h2.862c.216-1.215 1.377-2.025 3.105-2.025 1.917 0 3.024.945 3.024 2.484v.837h-3.483c-3.86 0-5.913 1.593-5.913 4.428 0 2.565 2.106 4.05 5.13 4.05 2.241 0 3.645-.972 4.563-2.376 0 1.377.648 2.214 2.538 2.214h1.54v-2.538h-.595zm-3.78-3.132c-.027 2.133-1.43 3.564-3.86 3.564-1.594 0-2.566-.81-2.566-1.971 0-1.404 1-2.079 2.808-2.079h3.618v.486zm21.376 5.832c4.401 0 7.614-2.592 8.208-6.588h-3.213c-.594 2.403-2.403 3.861-5.022 3.861-3.564 0-5.724-2.862-5.724-6.885 0-4.05 2.214-6.885 5.805-6.885 2.565 0 4.347 1.485 4.968 3.861h3.213c-.621-3.996-3.726-6.588-8.046-6.588-5.589 0-9.126 3.861-9.126 9.612 0 5.805 3.429 9.612 8.937 9.612zM90.796 51h3.105v-7.992h7.398v-2.673h-7.398v-5.481h8.964V32.1H90.796V51zm20.876 0c5.913 0 9.639-3.861 9.639-9.477s-3.726-9.423-9.639-9.423h-6.426V51h6.426zm-3.321-16.2h3.321c4.158 0 6.453 2.673 6.453 6.723s-2.295 6.777-6.453 6.777h-3.321V34.8zm14.803 11.637c.081 2.997 2.619 4.725 6.318 4.725 3.348 0 5.859-1.674 5.859-4.32 0-3.078-2.565-3.726-5.724-4.104-1.998-.216-3.321-.378-3.321-1.674 0-1.107 1.134-1.809 2.862-1.809 1.728 0 2.916.891 3.078 2.16h2.862c-.189-2.835-2.592-4.401-5.994-4.401-3.321-.027-5.67 1.674-5.67 4.293 0 2.862 2.484 3.537 5.643 3.915 2.133.27 3.402.378 3.402 1.863 0 1.107-1.188 1.809-2.997 1.809-2.106 0-3.348-1.026-3.456-2.457h-2.862z" fill="#000"/></svg>