<svg width="165" height="40" viewBox="0 0 165 40" fill="none" xmlns="http://www.w3.org/2000/svg"><rect width="165" height="40" rx="20" fill="#fff"/><path d="M31.156 26h1.479v-5.202h4.896v-1.36h-4.896V15.46h5.916V14.1h-7.395V26zm9.491-10.132c.51 0 .901-.374.901-.901a.876.876 0 00-.9-.901.876.876 0 00-.902.901c0 .527.391.901.901.901zM39.933 26h1.394v-8.67h-1.394V26zm7.554-8.772c-1.462 0-2.346.612-2.856 1.275l-.187-1.173h-1.207V26h1.394v-4.335c0-1.955.986-3.162 2.618-3.162 1.513 0 2.346.952 2.346 2.754V26h1.394v-4.828c0-2.873-1.547-3.944-3.502-3.944zm12.014 1.428c-.527-.833-1.513-1.428-2.975-1.428-2.397 0-4.165 1.785-4.165 4.437 0 2.822 1.768 4.437 4.165 4.437 1.462 0 2.397-.697 2.975-1.496L59.688 26h1.207V14.1H59.5v4.556zm-2.84 6.205c-1.716 0-2.872-1.309-2.872-3.196 0-1.887 1.156-3.196 2.873-3.196 1.7 0 2.856 1.326 2.856 3.23 0 1.853-1.156 3.162-2.856 3.162zm14.577 1.241c2.533 0 4.301-1.802 4.301-4.437 0-2.635-1.768-4.437-4.301-4.437-2.533 0-4.301 1.802-4.301 4.437 0 2.635 1.768 4.437 4.301 4.437zm0-1.241c-1.717 0-2.873-1.343-2.873-3.196 0-1.853 1.156-3.196 2.873-3.196 1.717 0 2.873 1.343 2.873 3.196 0 1.853-1.156 3.196-2.873 3.196zm11.969-3.196c0 1.955-.953 3.162-2.533 3.162-1.446 0-2.262-.952-2.262-2.754V17.33h-1.394v4.828c0 2.873 1.513 3.944 3.418 3.944 1.427 0 2.26-.612 2.77-1.258L83.395 26H84.6v-8.67h-1.393v4.335zm3.973 2.074c0 1.53.595 2.261 2.261 2.261h1.513v-1.275h-1.377c-.748 0-1.003-.272-1.003-1.003v-5.117h2.244V17.33h-2.244v-2.431H87.18v2.431h-1.564v1.275h1.564v5.134zm19.104-6.511c-1.547 0-2.482.714-3.009 1.649-.493-1.105-1.53-1.649-2.737-1.649-1.343 0-2.074.663-2.533 1.292l-.187-1.19h-1.207V26h1.394v-4.573c0-1.734.867-2.924 2.295-2.924 1.326 0 2.091.884 2.091 2.584V26h1.394v-4.641c0-1.768.884-2.856 2.329-2.856 1.309 0 2.057.884 2.057 2.584V26h1.394v-4.998c0-2.737-1.479-3.774-3.281-3.774zm8.965 8.874c2.533 0 4.301-1.802 4.301-4.437 0-2.635-1.768-4.437-4.301-4.437-2.533 0-4.301 1.802-4.301 4.437 0 2.635 1.768 4.437 4.301 4.437zm0-1.241c-1.717 0-2.873-1.343-2.873-3.196 0-1.853 1.156-3.196 2.873-3.196 1.717 0 2.873 1.343 2.873 3.196 0 1.853-1.156 3.196-2.873 3.196zm9.911-7.531c-1.547 0-2.21.646-2.618 1.309l-.187-1.309h-1.207V26h1.394v-4.42c0-1.377.493-2.89 2.312-2.89h.697v-1.36h-.391zm5.097 8.772c2.006 0 3.434-1.275 3.774-3.009h-1.411c-.289 1.122-1.241 1.768-2.465 1.768-1.649 0-2.686-1.156-2.737-2.805v-.119h6.732c.017-.204.034-.408.034-.595-.068-2.567-1.666-4.114-4.114-4.114s-4.114 1.802-4.114 4.437c0 2.652 1.7 4.437 4.301 4.437zm-2.754-5.321c.136-1.411 1.309-2.329 2.584-2.329 1.445 0 2.465.833 2.601 2.329h-5.185z" fill="#000"/></svg>