<svg width="168" height="11" viewBox="0 0 168 11" fill="none" xmlns="http://www.w3.org/2000/svg"><path d="M.191 3.289h2.063V9h1.098V3.289h2.063v-.974H.191v.974zm9.662 4.813c-.21 0-.315-.067-.315-.315V5.83c0-1.155-.745-1.776-2.044-1.776-1.232 0-2.053.592-2.158 1.547h1.012c.077-.43.487-.716 1.099-.716.678 0 1.07.334 1.07.878v.297H7.283c-1.365 0-2.091.563-2.091 1.566 0 .907.745 1.432 1.814 1.432.793 0 1.29-.344 1.614-.84 0 .487.23.783.898.783h.544v-.898h-.21zM8.516 6.994c-.01.755-.506 1.261-1.365 1.261-.564 0-.908-.286-.908-.697 0-.497.354-.735.994-.735h1.28v.171zM10.626 9h1.03V7.758l.88-.916L13.976 9H15.2l-1.958-2.913 1.843-1.977h-1.213L11.657 6.48V2.315h-1.032V9zm7.086.057c1.213 0 2.034-.735 2.206-1.7h-1.032c-.143.545-.601.86-1.232.86-.811 0-1.337-.544-1.365-1.375v-.067h3.686c.02-.134.029-.268.029-.392-.029-1.432-.974-2.33-2.388-2.33-1.442 0-2.406 1.003-2.406 2.512 0 1.5.964 2.492 2.502 2.492zM16.327 6.02c.076-.697.64-1.136 1.299-1.136.716 0 1.222.41 1.308 1.136h-2.607zm11.424 2.082c-.21 0-.316-.067-.316-.315V5.83c0-1.155-.744-1.776-2.043-1.776-1.232 0-2.053.592-2.159 1.547h1.013c.076-.43.487-.716 1.098-.716.678 0 1.07.334 1.07.878v.297h-1.232c-1.366 0-2.092.563-2.092 1.566 0 .907.745 1.432 1.815 1.432.792 0 1.289-.344 1.614-.84 0 .487.229.783.897.783h.545v-.898h-.21zm-1.337-1.108c-.01.755-.507 1.261-1.366 1.261-.563 0-.907-.286-.907-.697 0-.497.353-.735.993-.735h1.28v.171zm7.56 2.063c1.557 0 2.694-.917 2.904-2.33H35.74c-.21.85-.85 1.366-1.776 1.366-1.26 0-2.025-1.013-2.025-2.436 0-1.432.783-2.435 2.053-2.435.908 0 1.538.525 1.758 1.366h1.136c-.22-1.414-1.318-2.33-2.846-2.33-1.977 0-3.228 1.365-3.228 3.4 0 2.053 1.213 3.4 3.161 3.4zM37.786 9h1.098V6.173h2.617v-.945h-2.617V3.289h3.171v-.974h-4.269V9zm7.384 0c2.091 0 3.41-1.366 3.41-3.352 0-1.987-1.319-3.333-3.41-3.333h-2.273V9h2.273zm-1.175-5.73h1.175c1.47 0 2.282.945 2.282 2.378 0 1.432-.811 2.397-2.282 2.397h-1.175V3.27zm10.507.783c-.764 0-1.27.353-1.595.783l-.124-.726h-.898v6.8h1.032V8.312c.305.44.83.745 1.585.745 1.337 0 2.311-.993 2.311-2.502 0-1.566-.974-2.502-2.311-2.502zm-.172 4.135c-.86 0-1.423-.678-1.423-1.652 0-.945.564-1.604 1.423-1.604.86 0 1.433.659 1.433 1.623 0 .955-.573 1.633-1.433 1.633zm5.62.87c1.49 0 2.493-1.003 2.493-2.503 0-1.49-1.002-2.502-2.492-2.502s-2.493 1.012-2.493 2.502c0 1.5 1.003 2.502 2.493 2.502zm0-.88c-.868 0-1.432-.677-1.432-1.623 0-.945.564-1.623 1.433-1.623.869 0 1.442.678 1.442 1.623 0 .946-.573 1.624-1.442 1.624zm3.085-.792c.028 1.06.926 1.671 2.234 1.671 1.185 0 2.073-.592 2.073-1.528 0-1.088-.907-1.318-2.025-1.451-.707-.077-1.175-.134-1.175-.592 0-.392.402-.64 1.013-.64.611 0 1.031.315 1.088.764h1.013c-.067-1.003-.917-1.557-2.12-1.557-1.175-.01-2.006.592-2.006 1.518 0 1.013.879 1.252 1.996 1.385.755.096 1.203.134 1.203.66 0 .39-.42.64-1.06.64-.745 0-1.184-.364-1.222-.87h-1.012zm5.631-3.963a.61.61 0 00.63-.621.61.61 0 00-.63-.62.61.61 0 00-.63.62c0 .363.277.62.63.62zM68.141 9h1.031V4.11h-1.03V9zm2.396-1.327c0 .888.401 1.327 1.337 1.327h.955v-.907h-.726c-.391 0-.525-.144-.525-.526v-2.55h1.194V4.11h-1.194V2.745h-1.041V4.11h-.85v.908h.85v2.655zm3.473-4.25a.61.61 0 00.63-.621.61.61 0 00-.63-.62.61.61 0 00-.63.62c0 .363.277.62.63.62zM73.485 9h1.031V4.11h-1.03V9zm4.354.057c1.49 0 2.492-1.002 2.492-2.502 0-1.49-1.002-2.502-2.492-2.502s-2.493 1.012-2.493 2.502c0 1.5 1.003 2.502 2.493 2.502zm0-.878c-.87 0-1.433-.678-1.433-1.624 0-.945.564-1.623 1.433-1.623.869 0 1.442.678 1.442 1.623 0 .946-.573 1.624-1.442 1.624zm5.9-4.126c-.792 0-1.26.315-1.566.697l-.115-.64h-.897V9h1.031V6.536c0-.993.487-1.595 1.309-1.595.773 0 1.165.497 1.165 1.423V9h1.04V6.278c0-1.633-.888-2.225-1.967-2.225z" fill="url(#paint0_linear_42_850)"/><path d="M90.588 9h1.086l1.04-3.231L93.717 9h1.077l1.578-4.754h-1.021l-1.123 3.64-1.04-3.64h-.92l-1.086 3.64-1.086-3.64h-1.059L90.587 9zm8.81-4.81c-.743 0-1.198.335-1.495.743V2.5H96.9V9h1.003V6.595c0-.956.483-1.541 1.272-1.541.743 0 1.142.483 1.142 1.383V9h1.003V6.354c0-1.588-.863-2.164-1.922-2.164zm5.054 4.866c1.179 0 1.978-.715 2.145-1.653h-1.003c-.139.53-.585.836-1.198.836-.789 0-1.3-.53-1.327-1.337v-.065h3.584c.018-.13.027-.26.027-.381-.027-1.393-.947-2.266-2.321-2.266-1.402 0-2.34.975-2.34 2.442 0 1.458.938 2.424 2.433 2.424zm-1.346-2.953c.074-.678.622-1.105 1.262-1.105.697 0 1.189.4 1.273 1.105h-2.535zm6.892-1.913c-.771 0-1.225.307-1.523.678l-.111-.622h-.873V9h1.003V6.604c0-.965.474-1.55 1.272-1.55.752 0 1.133.483 1.133 1.383V9h1.012V6.354c0-1.588-.864-2.164-1.913-2.164zm7.448 4.866c1.448 0 2.423-.975 2.423-2.433 0-1.448-.975-2.433-2.423-2.433-1.449 0-2.424.985-2.424 2.433 0 1.458.975 2.433 2.424 2.433zm0-.855c-.845 0-1.393-.659-1.393-1.578 0-.92.548-1.578 1.393-1.578s1.402.659 1.402 1.578c0 .92-.557 1.578-1.402 1.578zm3.537-.492c0 .864.39 1.291 1.3 1.291h.928v-.882h-.706c-.38 0-.51-.14-.51-.51v-2.48h1.16v-.882h-1.16V2.918h-1.012v1.328h-.827v.882h.827V7.71zm5.364-3.519c-.743 0-1.198.335-1.495.743V2.5h-1.003V9h1.003V6.595c0-.956.483-1.541 1.272-1.541.743 0 1.142.483 1.142 1.383V9h1.003V6.354c0-1.588-.864-2.164-1.922-2.164zm5.054 4.866c1.179 0 1.977-.715 2.145-1.653h-1.003c-.139.53-.585.836-1.198.836-.789 0-1.3-.53-1.328-1.337v-.065h3.584c.019-.13.028-.26.028-.381-.028-1.393-.947-2.266-2.321-2.266-1.402 0-2.34.975-2.34 2.442 0 1.458.938 2.424 2.433 2.424zm-1.347-2.953c.075-.678.622-1.105 1.263-1.105.697 0 1.189.4 1.272 1.105h-2.535zm6.791-1.857c-.78 0-1.161.316-1.402.715l-.112-.715h-.891V9h1.003V6.614c0-.734.288-1.43 1.179-1.43h.446v-.938h-.223zm.555 3.185c.028 1.03.901 1.625 2.173 1.625 1.151 0 2.015-.576 2.015-1.486 0-1.058-.882-1.281-1.969-1.411-.687-.075-1.142-.13-1.142-.576 0-.38.39-.622.984-.622.595 0 1.003.306 1.059.743h.984c-.065-.975-.891-1.514-2.061-1.514-1.142-.009-1.95.576-1.95 1.477 0 .984.854 1.216 1.941 1.346.733.093 1.17.13 1.17.64 0 .381-.409.623-1.031.623-.724 0-1.151-.353-1.189-.845h-.984zm9.523 1.625c1.216 0 2.024-.678 2.209-1.755h-1.058c-.121.548-.529.9-1.142.9-.808 0-1.337-.64-1.337-1.569 0-.938.529-1.587 1.337-1.587.622 0 1.021.343 1.151.9h1.049c-.195-1.077-.956-1.755-2.182-1.755-1.439 0-2.386.975-2.386 2.442 0 1.486.919 2.424 2.359 2.424zm7.322-.929c-.204 0-.306-.065-.306-.306V5.917c0-1.123-.724-1.727-1.987-1.727-1.198 0-1.996.576-2.098 1.504h.984c.074-.417.473-.696 1.068-.696.659 0 1.04.325 1.04.854v.288h-1.198c-1.328 0-2.034.548-2.034 1.523 0 .882.725 1.393 1.764 1.393.771 0 1.254-.335 1.57-.817 0 .473.223.761.872.761h.53v-.873h-.205zm-1.299-1.077c-.01.734-.493 1.226-1.328 1.226-.548 0-.882-.279-.882-.678 0-.483.343-.715.965-.715h1.245v.167zm4.557-2.86c-.771 0-1.226.307-1.523.678l-.111-.622h-.873V9h1.003V6.604c0-.965.473-1.55 1.272-1.55.752 0 1.133.483 1.133 1.383V9h1.012V6.354c0-1.588-.864-2.164-1.913-2.164zm3.062-1.745c-.427 0-.705.278-.705.631 0 .39.241.594.547.594a.508.508 0 00.307-.102.632.632 0 01.009.13c0 .325-.232.687-.817.687v.548c.919-.01 1.495-.52 1.495-1.42 0-.604-.325-1.068-.836-1.068zm2.137 5.264c0 .864.39 1.291 1.3 1.291h.929v-.882h-.706c-.381 0-.511-.14-.511-.51v-2.48h1.161v-.882h-1.161V2.918h-1.012v1.328h-.826v.882h.826V7.71zm2.828.715c0 .372.27.632.641.632s.65-.26.65-.632c0-.371-.279-.631-.65-.631s-.641.26-.641.631z" fill="#000"/><defs><linearGradient id="paint0_linear_42_850" x1="87" y1="5.5" x2="0" y2="5.5" gradientUnits="userSpaceOnUse"><stop stop-color="#FF4343"/><stop offset=".5" stop-color="#9C0B93"/><stop offset="1" stop-color="#4C1BB7"/></linearGradient></defs></svg>