<svg width="69" height="13" viewBox="0 0 69 13" fill="none" xmlns="http://www.w3.org/2000/svg"><rect y=".339" width="69" height="12" rx="6" fill="#000"/><path d="M5.906 8.37c.816 0 1.416-.465 1.55-1.214h-.475c-.135.507-.522.801-1.08.801-.76 0-1.224-.594-1.224-1.426 0-.837.485-1.426 1.245-1.426.542 0 .924.3 1.064.801h.475c-.134-.749-.718-1.214-1.519-1.214-1.048 0-1.725.744-1.725 1.84 0 1.105.65 1.838 1.69 1.838zm3.245 0c.77 0 1.307-.547 1.307-1.348 0-.8-.537-1.348-1.307-1.348-.77 0-1.307.547-1.307 1.348 0 .8.537 1.348 1.307 1.348zm0-.377c-.522 0-.873-.408-.873-.971s.351-.971.873-.971.873.408.873.971-.351.971-.873.971zm4.732-2.32c-.47 0-.754.218-.914.502-.15-.336-.465-.501-.832-.501a.893.893 0 00-.77.392l-.057-.361h-.366v2.634h.423V6.95c0-.526.264-.888.698-.888.403 0 .635.269.635.785V8.34h.424V6.93c0-.537.268-.868.707-.868.398 0 .626.269.626.785V8.34h.423V6.82c0-.831-.45-1.146-.997-1.146zm2.868 0c-.444 0-.728.212-.904.455l-.057-.423h-.366v3.668h.423V7.936c.16.253.46.434.904.434.729 0 1.266-.542 1.266-1.348 0-.858-.537-1.348-1.266-1.348zm-.041 2.32c-.517 0-.868-.403-.868-.981 0-.563.351-.961.868-.961.522 0 .873.398.873.971s-.351.971-.873.971zm1.79.346h.424V4.723h-.423V8.34zm2.219.031c.61 0 1.043-.387 1.147-.914h-.43c-.087.34-.376.537-.748.537-.501 0-.816-.351-.832-.852v-.036h2.046c.005-.062.01-.124.01-.181-.02-.78-.506-1.25-1.25-1.25s-1.25.547-1.25 1.348c0 .806.517 1.348 1.307 1.348zm-.837-1.617a.78.78 0 01.785-.707c.44 0 .75.253.79.707h-1.575zm2.68.9c0 .464.18.686.687.686h.46v-.387h-.419c-.227 0-.305-.083-.305-.305V6.092h.682v-.387h-.682v-.74h-.423v.74h-.476v.387h.476v1.56zm2.662.717c.61 0 1.043-.387 1.147-.914h-.429c-.088.34-.377.537-.749.537-.501 0-.816-.351-.832-.852v-.036h2.046c.005-.062.01-.124.01-.181-.02-.78-.506-1.25-1.25-1.25s-1.25.547-1.25 1.348c0 .806.517 1.348 1.307 1.348zm-.837-1.617a.78.78 0 01.785-.707c.44 0 .75.253.79.707h-1.575zm4.63 1.602l-.129.32c-.098.248-.14.31-.382.31h-.377v.388h.506c.372 0 .47-.166.635-.59l1.215-3.078h-.45l-.785 2.102-.811-2.102h-.45l1.028 2.65zm2.881.015c.77 0 1.308-.547 1.308-1.348 0-.8-.538-1.348-1.308-1.348s-1.306.547-1.306 1.348c0 .8.537 1.348 1.306 1.348zm0-.377c-.521 0-.873-.408-.873-.971s.352-.971.873-.971c.522 0 .874.408.874.971s-.352.971-.873.971zm3.637-.971c0 .594-.289.96-.77.96-.438 0-.686-.288-.686-.836V5.705h-.424v1.467c0 .873.46 1.198 1.038 1.198.434 0 .688-.186.843-.382l.056.351h.367V5.705h-.424v1.317zm2.22-1.317c-.47 0-.67.196-.795.397l-.057-.397h-.366v2.634h.423V6.996c0-.418.15-.878.703-.878h.212v-.413h-.12zm4.169 2.247c-.12 0-.17-.036-.17-.176V6.624c0-.615-.388-.95-1.06-.95-.635 0-1.054.304-1.116.821h.424c.052-.269.3-.444.671-.444.414 0 .657.206.657.547v.181h-.775c-.693 0-1.06.295-1.06.822 0 .48.393.77.972.77.455 0 .718-.202.883-.44.005.258.124.408.475.408h.233v-.387h-.134zm-.594-.687c0 .439-.305.744-.832.744-.351 0-.573-.176-.573-.434 0-.3.211-.44.588-.44h.817v.13zm2.381-1.591c-.444 0-.728.211-.904.454l-.056-.423h-.367v3.668h.423V7.936c.16.253.46.434.904.434.729 0 1.266-.542 1.266-1.348 0-.858-.537-1.348-1.266-1.348zm-.041 2.32c-.517 0-.868-.404-.868-.982 0-.563.351-.961.868-.961.522 0 .873.398.873.971s-.351.971-.873.971zm3.119-2.32c-.445 0-.729.211-.904.454l-.057-.423h-.367v3.668h.424V7.936c.16.253.46.434.904.434.728 0 1.265-.542 1.265-1.348 0-.858-.537-1.348-1.265-1.348zm-.042 2.32c-.516 0-.867-.404-.867-.982 0-.563.35-.961.867-.961.522 0 .873.398.873.971s-.35.971-.873.971zm1.791.345h.424V4.723h-.424V8.34zM49.76 5.26a.266.266 0 00.274-.273.266.266 0 00-.274-.274.266.266 0 00-.273.274c0 .16.118.273.273.273zm-.217 3.08h.424V5.704h-.424v2.634zm2.187.03c.641 0 1.07-.361 1.173-.93h-.45c-.082.336-.34.553-.717.553-.507 0-.848-.392-.848-.966 0-.573.341-.976.848-.976.387 0 .645.212.723.563h.444c-.108-.579-.517-.94-1.162-.94-.765 0-1.287.547-1.287 1.353 0 .822.507 1.343 1.276 1.343zm3.967-.418c-.118 0-.17-.036-.17-.176V6.624c0-.615-.388-.95-1.06-.95-.635 0-1.053.304-1.115.821h.424c.051-.269.3-.444.671-.444.413 0 .656.206.656.547v.181h-.775c-.692 0-1.059.295-1.059.822 0 .48.393.77.972.77.454 0 .718-.202.883-.44.005.258.124.408.475.408h.233v-.387h-.135zm-.594-.687c0 .439-.304.744-.831.744-.352 0-.574-.176-.574-.434 0-.3.212-.44.59-.44h.815v.13zm1.25.387c0 .465.181.687.688.687h.46v-.387h-.419c-.227 0-.305-.083-.305-.305V6.092h.682v-.387h-.682v-.74h-.423v.74h-.476v.387h.476v1.56zm1.732-2.392a.266.266 0 00.273-.273.266.266 0 00-.273-.274.266.266 0 00-.274.274c0 .16.119.273.274.273zm-.217 3.08h.423V5.704h-.423v2.634zm2.218.03c.77 0 1.307-.547 1.307-1.348 0-.8-.538-1.348-1.307-1.348-.77 0-1.307.547-1.307 1.348 0 .8.537 1.348 1.307 1.348zm0-.377c-.522 0-.873-.408-.873-.971s.35-.971.873-.971c.521 0 .873.408.873.971s-.352.971-.873.971zm3.084-2.32c-.444 0-.713.187-.868.388l-.057-.356h-.367v2.634h.424V7.022c0-.594.3-.96.795-.96.46 0 .713.288.713.836v1.441h.424V6.872c0-.873-.47-1.198-1.064-1.198z" fill="#fff"/></svg>