<svg width="125" height="7" viewBox="0 0 125 7" fill="none" xmlns="http://www.w3.org/2000/svg"><path d="M2.305.822l-.845.365.014-.926h-.25l.013.926L.4.822l-.102.237.866.331-.595.71.182.169.595-.737.595.737.19-.169-.589-.703.859-.331-.095-.244zM2.83.606H4.45V5h.365V.606h1.622V.268h-3.61v.338zm7.85 4.083c-.19 0-.325-.04-.467-.216l-.338-.392 1.075-1.636h-.365l-.92 1.386L8.61 2.593l-.04-.047c.905-.378 1.23-.811 1.23-1.338 0-.561-.44-.98-1.035-.98-.703 0-1.223.466-1.223 1.088 0 .432.149.703.514 1.149-.825.352-1.156.838-1.156 1.372 0 .778.615 1.204 1.385 1.204.528 0 .987-.237 1.373-.69l.331.392c.162.196.385.257.642.257h.473v-.311h-.425zM8.739.525c.418 0 .71.29.71.69 0 .46-.319.79-1.062 1.115-.345-.413-.487-.65-.487-1.021 0-.453.345-.784.838-.784zM8.291 4.73c-.595 0-1.04-.338-1.04-.92 0-.493.276-.797.98-1.135l.1.114 1.123 1.325c-.318.4-.717.616-1.163.616zm5.59.31c1.014 0 1.73-.547 1.933-1.5h-.385c-.203.757-.75 1.163-1.555 1.163-1.095 0-1.784-.859-1.784-2.069S12.794.565 13.889.565c.79 0 1.345.413 1.555 1.156h.385c-.21-.946-.926-1.494-1.92-1.494-1.332 0-2.197.987-2.197 2.407 0 1.433.845 2.407 2.17 2.407zm2.482-1.095c.028.71.602 1.096 1.46 1.096.737 0 1.332-.372 1.332-.98 0-.724-.635-.866-1.372-.967-.534-.075-1.007-.136-1.007-.615 0-.393.385-.65.967-.65.547 0 .94.264 1 .71h.352c-.061-.669-.609-1.007-1.352-1.007-.764-.007-1.312.385-1.312.974 0 .69.636.818 1.339.912.574.081 1.04.156 1.04.663 0 .405-.425.662-.986.662-.656 0-1.082-.304-1.109-.798h-.352zm8.287.737c-.203 0-.304-.067-.304-.331V2.756c0-.784-.48-1.224-1.338-1.224-.785 0-1.305.379-1.393 1h.345c.088-.419.453-.696 1.034-.696.642 0 1.007.338 1.007.906v.298H22.84c-.88 0-1.352.378-1.352 1.02 0 .609.48.98 1.21.98.696 0 1.108-.317 1.318-.743v.122c-.014.405.155.581.56.581h.204v-.318h-.129zm-.649-1.068c0 .656-.466 1.13-1.277 1.13-.548 0-.886-.278-.886-.704 0-.453.338-.703.974-.703h1.19v.277zm2.895-2.082c-.642 0-1.088.345-1.305.825l-.054-.784h-.297v4.779h.344V4.209c.197.5.663.832 1.312.832.94 0 1.616-.717 1.616-1.758 0-1.075-.677-1.75-1.616-1.75zM26.87 4.73c-.764 0-1.291-.595-1.291-1.454 0-.838.527-1.44 1.29-1.44.765 0 1.292.602 1.292 1.447 0 .852-.527 1.447-1.291 1.447zm3.981-3.198c-.642 0-1.088.345-1.304.825l-.055-.784h-.297v4.779h.345V4.209c.196.5.662.832 1.311.832.94 0 1.616-.717 1.616-1.758 0-1.075-.676-1.75-1.616-1.75zm-.027 3.198c-.764 0-1.291-.595-1.291-1.454 0-.838.527-1.44 1.291-1.44.764 0 1.291.602 1.291 1.447 0 .852-.527 1.447-1.29 1.447zM33.15 5h.345V.268h-.345V5zm2.183 0l-.223.554c-.155.379-.216.48-.568.48h-.432v.318h.527c.46 0 .568-.176.784-.717l1.643-4.062h-.372l-1.17 2.98-1.19-2.98h-.371L35.332 5zm1.883-.223c0 .155.108.257.257.257a.245.245 0 00.257-.257c0-.156-.108-.25-.257-.25-.149 0-.257.094-.257.25zM43.029 5v-.338h-2.264V.268H40.4V5h2.63zm1.84.04c.967 0 1.65-.716 1.65-1.757 0-1.034-.683-1.75-1.65-1.75-.966 0-1.642.716-1.642 1.75 0 1.041.676 1.758 1.643 1.758zm0-.31c-.763 0-1.29-.595-1.29-1.447 0-.845.527-1.447 1.29-1.447.764 0 1.292.602 1.292 1.447 0 .852-.528 1.447-1.291 1.447zm2.173-.785c.027.71.602 1.096 1.46 1.096.737 0 1.332-.372 1.332-.98 0-.724-.636-.866-1.372-.967-.535-.075-1.008-.136-1.008-.615 0-.393.386-.65.967-.65.548 0 .94.264 1 .71h.352c-.06-.669-.608-1.007-1.352-1.007-.764-.007-1.311.385-1.311.974 0 .69.635.818 1.338.912.575.081 1.041.156 1.041.663 0 .405-.426.662-.987.662-.656 0-1.082-.304-1.108-.798h-.352zm3.228 0c.027.71.602 1.096 1.46 1.096.737 0 1.332-.372 1.332-.98 0-.724-.635-.866-1.372-.967-.534-.075-1.008-.136-1.008-.615 0-.393.386-.65.967-.65.548 0 .94.264 1 .71h.352c-.06-.669-.608-1.007-1.352-1.007-.764-.007-1.311.385-1.311.974 0 .69.635.818 1.338.912.575.081 1.041.156 1.041.663 0 .405-.426.662-.987.662-.655 0-1.081-.304-1.108-.798h-.352zm4.964 1.096c.75 0 1.325-.487 1.474-1.177h-.352c-.135.534-.588.866-1.149.866-.764 0-1.244-.582-1.257-1.38v-.06h2.798c0-.048.007-.102.007-.142-.034-1.021-.662-1.616-1.582-1.616-.94 0-1.582.717-1.582 1.73 0 1.076.67 1.779 1.643 1.779zm-1.257-2.042c.054-.696.574-1.163 1.203-1.163.67 0 1.15.413 1.203 1.163h-2.406zm3.297.946c.027.71.602 1.096 1.46 1.096.737 0 1.332-.372 1.332-.98 0-.724-.635-.866-1.372-.967-.534-.075-1.007-.136-1.007-.615 0-.393.385-.65.966-.65.548 0 .94.264 1 .71h.352c-.06-.669-.608-1.007-1.352-1.007-.763-.007-1.311.385-1.311.974 0 .69.635.818 1.339.912.574.081 1.04.156 1.04.663 0 .405-.425.662-.986.662-.656 0-1.082-.304-1.11-.798h-.35zm6.766 1.096c.777 0 1.325-.447 1.46-1.143h-.365c-.115.507-.527.832-1.095.832-.75 0-1.27-.589-1.27-1.44 0-.852.513-1.454 1.27-1.454.575 0 .98.325 1.102.839h.358c-.142-.71-.676-1.143-1.453-1.143-.967 0-1.63.717-1.63 1.758 0 1.054.656 1.75 1.623 1.75zm5.145-.359c-.203 0-.304-.067-.304-.331V2.756c0-.784-.48-1.224-1.338-1.224-.785 0-1.305.379-1.393 1h.345c.088-.419.453-.696 1.034-.696.642 0 1.007.338 1.007.906v.298h-1.162c-.88 0-1.352.378-1.352 1.02 0 .609.48.98 1.21.98.696 0 1.108-.317 1.318-.743v.122c-.014.405.155.581.56.581h.204v-.318h-.129zm-.649-1.068c0 .656-.466 1.13-1.277 1.13-.548 0-.886-.278-.886-.704 0-.453.338-.703.974-.703h1.19v.277zm2.82-2.082c-.628 0-1.034.325-1.23.77l-.054-.73h-.297V5h.345V3.31c0-.892.453-1.46 1.183-1.46.662 0 1.06.432 1.06 1.244V5h.346V3.08c0-1.081-.575-1.548-1.352-1.548zm5.452 3.509c.75 0 1.325-.487 1.474-1.177h-.352c-.135.534-.588.866-1.15.866-.763 0-1.243-.582-1.257-1.38v-.06h2.8c0-.048.006-.102.006-.142-.034-1.021-.662-1.616-1.582-1.616-.94 0-1.582.717-1.582 1.73 0 1.076.67 1.779 1.643 1.779zM75.55 2.999c.054-.696.574-1.163 1.203-1.163.67 0 1.15.413 1.203 1.163h-2.406zM78.526 5h.4l1.135-1.507L81.197 5h.419l-1.332-1.75 1.264-1.677h-.392l-1.081 1.42-1.069-1.42h-.412l1.264 1.676L78.526 5zm4.91.04c.777 0 1.324-.446 1.46-1.142h-.365c-.115.507-.528.832-1.096.832-.75 0-1.27-.589-1.27-1.44 0-.852.513-1.454 1.27-1.454.575 0 .98.325 1.102.839h.359c-.142-.71-.676-1.143-1.454-1.143-.966 0-1.629.717-1.629 1.758 0 1.054.656 1.75 1.622 1.75zm3.644 0c.75 0 1.325-.486 1.474-1.176h-.352c-.135.534-.588.866-1.15.866-.763 0-1.243-.582-1.256-1.38v-.06h2.798c0-.048.007-.102.007-.142-.034-1.021-.662-1.616-1.582-1.616-.94 0-1.582.717-1.582 1.73 0 1.076.67 1.779 1.643 1.779zM85.823 3c.054-.696.574-1.163 1.203-1.163.67 0 1.15.413 1.203 1.163h-2.406zm4.974 2.042c.75 0 1.325-.487 1.473-1.177h-.351c-.135.534-.588.866-1.15.866-.763 0-1.243-.582-1.257-1.38v-.06h2.799c0-.048.007-.102.007-.142-.034-1.021-.663-1.616-1.582-1.616-.94 0-1.582.717-1.582 1.73 0 1.076.67 1.779 1.643 1.779zm-1.258-2.042c.054-.696.575-1.163 1.204-1.163.669 0 1.149.413 1.203 1.163h-2.407zm6.259-.656c-.21-.486-.67-.81-1.312-.81-.94 0-1.615.716-1.615 1.75 0 1.082.676 1.758 1.615 1.758.642 0 1.089-.345 1.305-.825l.054.784h.297V.268h-.344v2.075zM94.513 4.73c-.764 0-1.29-.595-1.29-1.447 0-.845.526-1.447 1.29-1.447s1.291.602 1.291 1.454c0 .845-.527 1.44-1.29 1.44zm7.061-2.387c-.209-.486-.669-.81-1.311-.81-.94 0-1.616.716-1.616 1.75 0 1.082.676 1.758 1.616 1.758.642 0 1.088-.345 1.304-.825l.054.784h.298V.268h-.345v2.075zM100.29 4.73c-.764 0-1.291-.595-1.291-1.447 0-.845.527-1.447 1.291-1.447.764 0 1.291.602 1.291 1.454 0 .845-.527 1.44-1.291 1.44zm3.954.31c.75 0 1.325-.486 1.474-1.176h-.352c-.135.534-.588.866-1.149.866-.764 0-1.244-.582-1.257-1.38v-.06h2.798c0-.048.007-.102.007-.142-.034-1.021-.662-1.616-1.582-1.616-.939 0-1.582.717-1.582 1.73 0 1.076.67 1.779 1.643 1.779zM102.987 3c.054-.696.574-1.163 1.203-1.163.669 0 1.149.413 1.203 1.163h-2.406zm5.116-1.467c-.643 0-1.089.345-1.305.825l-.054-.784h-.298v4.779h.345V4.209c.196.5.663.832 1.312.832.939 0 1.615-.717 1.615-1.758 0-1.075-.676-1.75-1.615-1.75zm-.027 3.198c-.764 0-1.292-.595-1.292-1.454 0-.838.528-1.44 1.292-1.44s1.291.602 1.291 1.447c0 .852-.527 1.447-1.291 1.447zm3.839.31c.967 0 1.649-.716 1.649-1.757 0-1.034-.682-1.75-1.649-1.75s-1.643.716-1.643 1.75c0 1.041.676 1.758 1.643 1.758zm0-.31c-.764 0-1.291-.595-1.291-1.447 0-.845.527-1.447 1.291-1.447.764 0 1.291.602 1.291 1.447 0 .852-.527 1.447-1.291 1.447zm2.172-.785c.027.71.602 1.096 1.461 1.096.736 0 1.331-.372 1.331-.98 0-.724-.635-.866-1.372-.967-.534-.075-1.007-.136-1.007-.615 0-.393.385-.65.966-.65.548 0 .94.264 1.001.71h.351c-.06-.669-.608-1.007-1.352-1.007-.763-.007-1.311.385-1.311.974 0 .69.635.818 1.339.912.574.081 1.041.156 1.041.663 0 .405-.426.662-.987.662-.656 0-1.082-.304-1.109-.798h-.352zM117.713.85a.238.238 0 00.243-.243.238.238 0 00-.243-.243.239.239 0 00-.244.243c0 .142.109.243.244.243zM117.537 5h.345V1.573h-.345V5zm1.412-.798c0 .548.223.798.805.798h.5v-.318h-.473c-.359 0-.487-.135-.487-.486V1.89h.926v-.317h-.926v-.96h-.345v.96h-.649v.317h.649v2.312zm1.674-.257c.027.71.602 1.096 1.46 1.096.737 0 1.332-.372 1.332-.98 0-.724-.636-.866-1.372-.967-.534-.075-1.008-.136-1.008-.615 0-.393.386-.65.967-.65.548 0 .94.264 1.001.71h.351c-.061-.669-.608-1.007-1.352-1.007-.764-.007-1.311.385-1.311.974 0 .69.635.818 1.338.912.575.081 1.041.156 1.041.663 0 .405-.426.662-.987.662-.656 0-1.081-.304-1.108-.798h-.352zm3.35.832c0 .155.108.257.257.257a.245.245 0 00.256-.257c0-.156-.108-.25-.256-.25-.149 0-.257.094-.257.25z" fill="#000"/></svg>