<svg width="46" height="16" viewBox="0 0 46 16" fill="none" xmlns="http://www.w3.org/2000/svg"><rect y=".055" width="46" height="15" rx="7.5" fill="#000"/><path d="M5.752 8.115c.031.868.66 1.478 1.735 1.478.925 0 1.566-.535 1.566-1.296 0-.855-.736-1.094-1.452-1.214-.66-.113-1.195-.22-1.195-.748 0-.472.383-.723.956-.723.597 0 1.006.333 1.069.842h.566c-.05-.792-.654-1.34-1.635-1.34-.893 0-1.504.504-1.504 1.252 0 .856.73 1.088 1.44 1.208.667.113 1.208.226 1.208.773 0 .478-.421.749-1.012.749-.673 0-1.132-.39-1.176-.981h-.566zm4.16.604c0 .566.22.836.836.836h.56v-.472h-.51c-.277 0-.371-.1-.371-.37V6.818h.83v-.471h-.83v-.9h-.516v.9h-.578v.471h.578v1.9zm4.63.364c-.145 0-.208-.044-.208-.214V7.467c0-.748-.472-1.157-1.29-1.157-.773 0-1.282.37-1.358 1h.516c.063-.327.365-.541.818-.541.503 0 .798.252.798.667v.22h-.943c-.843 0-1.29.358-1.29 1 0 .585.479.937 1.183.937.553 0 .874-.246 1.075-.535.007.315.151.497.58.497h.282v-.472h-.163zm-.724-.836c0 .534-.37.905-1.012.905-.428 0-.698-.213-.698-.528 0-.365.258-.534.717-.534h.993v.157zm2.768-1.9c-.572 0-.818.24-.969.485l-.069-.484h-.447v3.207h.516V7.92c0-.51.183-1.07.856-1.07h.257v-.502h-.144zm.935 2.372c0 .566.22.836.836.836h.56v-.472h-.51c-.276 0-.37-.1-.37-.37V6.818h.83v-.471h-.83v-.9h-.516v.9h-.579v.471h.579v1.9zm3.728 0c0 .566.22.836.836.836h.56v-.472h-.51c-.276 0-.37-.1-.37-.37V6.818h.83v-.471h-.83v-.9h-.516v.9h-.579v.471h.579v1.9zm3.327-2.371c-.572 0-.817.239-.968.484l-.07-.484h-.446v3.207h.516V7.92c0-.51.182-1.07.855-1.07h.258v-.502h-.145zm3.318 2.735c-.145 0-.208-.044-.208-.214V7.467c0-.748-.472-1.157-1.29-1.157-.773 0-1.282.37-1.358 1h.516c.063-.327.365-.541.818-.541.503 0 .798.252.798.667v.22h-.943c-.843 0-1.29.358-1.29 1 0 .585.479.937 1.183.937.553 0 .874-.246 1.075-.535.007.315.151.497.58.497h.282v-.472h-.163zm-.724-.836c0 .534-.37.905-1.012.905-.428 0-.698-.213-.698-.528 0-.365.258-.534.717-.534h.993v.157zm3.775-1.409c-.195-.308-.56-.528-1.1-.528-.887 0-1.541.66-1.541 1.641 0 1.044.654 1.642 1.54 1.642.541 0 .887-.258 1.1-.554l.07.516h.447V5.153h-.516v1.685zm-1.05 2.296c-.636 0-1.063-.485-1.063-1.183 0-.698.427-1.182 1.063-1.182.628 0 1.056.49 1.056 1.195 0 .685-.428 1.17-1.056 1.17zm2.532-3.327a.324.324 0 00.334-.334.324.324 0 00-.334-.333.324.324 0 00-.333.333c0 .195.145.334.333.334zm-.264 3.748h.516V6.348h-.516v3.207zm2.795-3.245c-.541 0-.868.226-1.057.472l-.07-.434h-.446v3.207h.516V7.951c0-.723.365-1.17.968-1.17.56 0 .868.353.868 1.02v1.754h.516V7.769c0-1.063-.572-1.46-1.295-1.46zm4.48.591c-.2-.358-.559-.591-1.1-.591-.886 0-1.54.66-1.54 1.641 0 1.044.654 1.642 1.54 1.642.541 0 .887-.227 1.1-.591v.377c0 .698-.364 1.012-1.037 1.012-.534 0-.893-.226-.981-.628h-.528c.081.704.654 1.088 1.471 1.088 1.101 0 1.592-.529 1.592-1.453v-3.05h-.447l-.07.553zm-1.05 2.233c-.635 0-1.062-.485-1.062-1.183 0-.698.427-1.182 1.063-1.182.628 0 1.056.49 1.056 1.195 0 .685-.428 1.17-1.056 1.17z" fill="#fff"/></svg>