<svg width="140" height="21" viewBox="0 0 140 21" fill="none" xmlns="http://www.w3.org/2000/svg"><path d="M38.655 10.437c0-.201-.004-.4-.012-.597h2.37l.63-1.823H38.45C37.574 3.029 33.907 0 28.37 0c-6.23 0-10.255 4.15-10.255 10.563 0 6.477 3.9 10.468 10.254 10.437 5.178 0 8.854-2.85 9.946-7.514h2.164l.66-1.823h-2.536c.034-.398.051-.807.052-1.226zm-10.16 7.672c-3.21-.001-4.467-3.398-4.467-7.609s1.007-7.576 4.247-7.608c2.548 0 3.865 2.124 4.3 5.124h-2.758l-.629 1.824h3.543a23.943 23.943 0 01-.016 1.825h-3.402l-.66 1.823h3.88c-.437 2.731-1.61 4.62-4.038 4.62v.001zM.5.472h16.042v4.872H6.068V8.74h9.468v4.622H6.068v7.136H.5V.472zm42.936 0v20.025h5.567v-6.068h2.454l4.026 6.068H61.9l-4.781-6.98c2.484-1.069 4.12-3.112 4.12-6.161v-.063c0-1.949-.597-3.52-1.762-4.652-1.352-1.352-3.49-2.169-6.542-2.169h-9.5zm5.567 9.62V5.25h3.65c1.886 0 3.019.817 3.019 2.388v.063c0 1.478-1.101 2.388-2.987 2.388l-3.682.003zM64.07 20.497h16.262V15.78H69.575v-3.174h9.624v-4.37h-9.624V5.188h10.633V.472H64.07v20.025zm18.086 0h6.26l3.869-6.036 3.838 6.036h6.385l-6.889-10.249 6.574-9.776h-6.228L92.381 6.1 88.825.472H82.44l6.605 9.84-6.889 10.185zm25.793-9.493a4.079 4.079 0 004.215 4.12c1.763 0 2.8-.723 3.555-1.824l-1.887-1.352c-.441.503-.881.818-1.542.818-.943 0-1.604-.786-1.604-1.823v-.032c0-.975.661-1.761 1.573-1.761a1.716 1.716 0 011.478.849l1.919-1.415a3.847 3.847 0 00-3.429-1.79 4.17 4.17 0 00-4.277 4.212m8.492 0c0 2.263 1.856 4.15 4.404 4.15 2.579 0 4.435-1.918 4.435-4.182v-.03c0-2.263-1.856-4.15-4.404-4.15-2.579 0-4.435 1.918-4.435 4.213m6.103 0c0 .943-.63 1.761-1.668 1.761a1.734 1.734 0 01-1.698-1.79v-.03a1.691 1.691 0 01.457-1.237 1.685 1.685 0 011.21-.525 1.745 1.745 0 011.595 1.142c.079.218.115.45.104.682m4.089-4.056v7.978h2.799v-4.338c0-.849.472-1.32 1.133-1.32.66 0 1.1.44 1.1 1.32v4.338h2.769v-4.338c0-.849.503-1.32 1.164-1.32.662 0 1.101.44 1.101 1.32v4.37h2.8v-5.25c0-1.855-1.038-2.924-2.737-2.924a3.385 3.385 0 00-2.673 1.29c-.409-.818-1.227-1.29-2.296-1.29a2.925 2.925 0 00-2.39 1.258v-1.1h-2.771l.001.006zm-22.584 6.501a1.231 1.231 0 00.44 1.037 1.524 1.524 0 002.076 0 1.47 1.47 0 00.337-1.61 1.467 1.467 0 00-1.37-.91 1.47 1.47 0 00-1.043.446 1.478 1.478 0 00-.44 1.037z" fill="#fff"/></svg>