<svg width="145" height="18" viewBox="0 0 145 18" fill="none" xmlns="http://www.w3.org/2000/svg"><rect x="1" y="1" width="143" height="16" rx="8" fill="#fff"/><circle cx="12.47" cy="9" r="3.374" fill="#4FC706"/><path d="M18.277 11.5h1.365V9.897h.735l.765 1.603h1.499l-.943-1.937c.468-.304.772-.824.772-1.462 0-1.091-.809-1.796-2.004-1.796h-2.19V11.5zm2.078-4.082c.445 0 .72.26.72.683 0 .423-.275.683-.72.683h-.713V7.418h.713zm2.77 4.082h3.667v-1.158h-2.3v-.905h1.773V8.353h-1.774v-.89h2.22V6.304h-3.585V11.5zm4.299 0h1.365V9.897h.817c1.18 0 1.967-.705 1.967-1.796 0-1.091-.787-1.796-1.967-1.796h-2.182V11.5zm2.056-4.082c.43 0 .705.26.705.683 0 .423-.275.683-.705.683h-.69V7.418h.69zm7.71 1.484c0-1.506-1.062-2.642-2.628-2.642s-2.628 1.136-2.628 2.642c0 1.507 1.062 2.643 2.628 2.643s2.627-1.136 2.627-2.643zm-3.86 0c0-.868.475-1.514 1.232-1.514s1.232.646 1.232 1.514c0 .869-.475 1.514-1.232 1.514s-1.232-.645-1.232-1.514zm4.459 2.598h1.365V9.897h.735l.764 1.603h1.5l-.943-1.937c.468-.304.772-.824.772-1.462 0-1.091-.809-1.796-2.004-1.796h-2.19V11.5zm2.078-4.082c.445 0 .72.26.72.683 0 .423-.275.683-.72.683h-.713V7.418h.713zm2.322.044h1.403V11.5h1.366V7.462h1.403V6.305h-4.172v1.157zm4.278 2.324c0 1.076.868 1.758 2.212 1.758 1.284 0 2.115-.69 2.122-1.7.008-1.068-.734-1.328-1.647-1.506-.906-.178-1.195-.245-1.195-.556 0-.32.282-.468.653-.468.46 0 .712.26.742.609h1.329c0-1.025-.81-1.663-2.071-1.663-1.24 0-2.026.683-2.026 1.625 0 1.084.72 1.359 1.618 1.544.913.186 1.224.253 1.224.572 0 .334-.311.497-.727.497-.557 0-.876-.29-.906-.683l-1.328-.03zm6.95 1.714h.646V9.229h2.138v-.594h-2.138V6.898h2.583v-.593h-3.228V11.5zm5.36-3.785c-.675 0-.965.282-1.143.571l-.082-.571h-.527V11.5h.609V9.57c0-.6.215-1.261 1.01-1.261h.304v-.594h-.171zm1.01-.639a.382.382 0 00.393-.393c0-.23-.17-.393-.393-.393a.382.382 0 00-.393.393c0 .23.17.393.393.393zm-.312 4.424h.609V7.715h-.609V11.5zm4.426-3.206c-.23-.364-.66-.624-1.299-.624-1.046 0-1.818.78-1.818 1.937 0 1.232.772 1.938 1.818 1.938.639 0 1.047-.305 1.3-.654l.08.609h.528V6.305H63.9v1.989zm-1.24 2.709c-.749 0-1.254-.572-1.254-1.396 0-.823.505-1.395 1.255-1.395.742 0 1.247.579 1.247 1.41 0 .81-.505 1.38-1.247 1.38zm6.025-.06c-.17 0-.245-.052-.245-.252V9.036c0-.883-.556-1.366-1.521-1.366-.913 0-1.514.438-1.603 1.18h.608c.074-.386.43-.638.965-.638.594 0 .943.297.943.787v.26h-1.114c-.994 0-1.521.423-1.521 1.18 0 .69.564 1.105 1.395 1.105.653 0 1.032-.289 1.27-.63.007.37.177.586.682.586h.334v-.557h-.193zm-.853-.987c0 .631-.438 1.069-1.195 1.069-.505 0-.824-.252-.824-.623 0-.43.304-.631.846-.631h1.173v.185zm2.475 1.566l-.186.46c-.14.357-.2.446-.549.446h-.542v.556h.728c.534 0 .675-.237.912-.846l1.745-4.423h-.646l-1.128 3.02-1.165-3.02h-.646l1.477 3.807zM74.9 11.5h.631V7.403l1.722 4.097h.572l1.722-4.097V11.5h.63V6.305h-.801l-1.819 4.312-1.84-4.312H74.9V11.5zm9.543-.557c-.171 0-.245-.052-.245-.252V9.036c0-.883-.557-1.366-1.522-1.366-.913 0-1.514.438-1.603 1.18h.609c.074-.386.43-.638.964-.638.594 0 .943.297.943.787v.26h-1.113c-.995 0-1.522.423-1.522 1.18 0 .69.564 1.105 1.396 1.105.653 0 1.031-.289 1.269-.63.007.37.178.586.683.586h.334v-.557h-.193zm-.854-.987c0 .631-.438 1.069-1.195 1.069-.504 0-.824-.252-.824-.623 0-.43.305-.631.846-.631h1.173v.185zm2.475 1.566l-.185.46c-.141.357-.2.446-.55.446h-.541v.556h.727c.534 0 .675-.237.913-.846l1.744-4.423h-.646l-1.128 3.02-1.165-3.02h-.646l1.477 3.807zm6.353-3.503c-.483 0-.928.119-1.247.497l.119-1.64h2.538v-.571h-3.11l-.17 2.954.6.014c.223-.616.862-.705 1.18-.705.72 0 1.173.498 1.173 1.203 0 .801-.571 1.21-1.18 1.21-.75 0-1.202-.498-1.261-1.099h-.617c.052.905.72 1.655 1.878 1.655.972 0 1.819-.623 1.819-1.774 0-1.031-.706-1.744-1.722-1.744zm6.754 1.625v-.512h-2.471v.512h2.471zm2.422.587h2.724V11.5h.623v-1.27h.839v-.57h-.839V6.304h-.698l-2.649 3.37v.556zm2.724-3.162v2.59h-2.027l2.027-2.59zm5.298 3.874c-.17 0-.245-.052-.245-.252V9.036c0-.883-.556-1.366-1.521-1.366-.913 0-1.514.438-1.603 1.18h.608c.075-.386.431-.638.965-.638.594 0 .943.297.943.787v.26h-1.113c-.995 0-1.522.423-1.522 1.18 0 .69.564 1.105 1.395 1.105.654 0 1.032-.289 1.27-.63.007.37.178.586.682.586h.334v-.557h-.193zm-.853-.987c0 .631-.438 1.069-1.195 1.069-.505 0-.824-.252-.824-.623 0-.43.304-.631.846-.631h1.173v.185zM114.5 7.67c-.675 0-1.083.312-1.313.72-.216-.482-.668-.72-1.195-.72-.587 0-.906.29-1.106.564l-.082-.52h-.527V11.5h.609V9.503c0-.757.378-1.276 1.002-1.276.579 0 .913.386.913 1.128V11.5h.608V9.474c0-.772.386-1.247 1.017-1.247.572 0 .898.386.898 1.128V11.5h.609V9.318c0-1.195-.646-1.648-1.433-1.648zm4.49 3.83l.549-1.403h2.264l.549 1.403h.691l-1.975-5.195h-.764l-1.982 5.195h.668zm1.678-4.49l.942 2.5h-1.878l.936-2.5zm2.962 4.49h3.407v-.594h-2.761V9.155h2.219V8.56h-2.219V6.898h2.665v-.593h-3.311V11.5zm3.924-1.7c.037 1.025.779 1.744 2.049 1.744 1.091 0 1.848-.63 1.848-1.528 0-1.01-.869-1.292-1.715-1.433-.779-.133-1.41-.26-1.41-.883 0-.557.453-.854 1.128-.854.705 0 1.188.394 1.262.995h.668c-.06-.935-.772-1.581-1.93-1.581-1.054 0-1.774.594-1.774 1.477 0 1.01.861 1.284 1.7 1.425.787.134 1.425.267 1.425.913 0 .564-.497.883-1.195.883-.794 0-1.336-.46-1.388-1.158h-.668zm4.135-2.902h1.685V11.5h.646V6.898h1.685v-.593h-4.016v.593z" fill="#000"/><rect x="1" y="1" width="143" height="16" rx="8" stroke="#000" stroke-width=".675" stroke-miterlimit="0" stroke-linejoin="bevel"/></svg>