<svg width="490" height="41" viewBox="0 0 490 41" fill="none" xmlns="http://www.w3.org/2000/svg"><path d="M.816 32h5.06V1.2H.816V32zM22.911 9.208c-3.652 0-5.808 1.452-7.216 3.212l-.528-2.948h-4.136V32h4.752V20.648c0-4.576 2.244-7.348 6.028-7.348 3.564 0 5.368 2.288 5.368 6.556V32h4.796V19.46c0-7.524-4.092-10.252-9.064-10.252zM41.423 32h5.808l8.316-22.528h-5.015l-6.116 17.424-6.204-17.424h-5.105L41.424 32zm26.19.264c5.589 0 9.373-3.388 10.165-7.832h-4.752c-.66 2.508-2.772 3.96-5.676 3.96-3.74 0-6.16-2.508-6.292-6.336v-.308h16.984c.088-.616.132-1.232.132-1.804-.132-6.6-4.488-10.736-11-10.736-6.644 0-11.088 4.62-11.088 11.572 0 6.908 4.444 11.484 11.528 11.484zm-6.38-13.992c.353-3.212 2.949-5.236 5.985-5.236 3.3 0 5.632 1.892 6.028 5.236H61.234zm19.686 6.292c.132 4.884 4.268 7.7 10.296 7.7 5.456 0 9.548-2.728 9.548-7.04 0-5.016-4.18-6.072-9.328-6.688-3.256-.352-5.412-.616-5.412-2.728 0-1.804 1.848-2.948 4.664-2.948s4.752 1.452 5.016 3.52h4.664c-.308-4.62-4.224-7.172-9.768-7.172-5.412-.044-9.24 2.728-9.24 6.996 0 4.664 4.048 5.764 9.196 6.38 3.476.44 5.544.616 5.544 3.036 0 1.804-1.936 2.948-4.884 2.948-3.432 0-5.456-1.672-5.632-4.004h-4.664zm25.154 1.32c0 4.092 1.848 6.116 6.16 6.116h4.4v-4.18h-3.344c-1.804 0-2.42-.66-2.42-2.42V13.652h5.5v-4.18h-5.5V3.18h-4.796v6.292h-3.916v4.18h3.916v12.232zm23.803 6.38c5.588 0 9.372-3.388 10.164-7.832h-4.752c-.66 2.508-2.772 3.96-5.676 3.96-3.74 0-6.16-2.508-6.292-6.336v-.308h16.984c.088-.616.132-1.232.132-1.804-.132-6.6-4.488-10.736-11-10.736-6.644 0-11.088 4.62-11.088 11.572 0 6.908 4.444 11.484 11.528 11.484zm-6.38-13.992c.352-3.212 2.948-5.236 5.984-5.236 3.3 0 5.632 1.892 6.028 5.236h-12.012zm37.897-5.676c-1.452-1.98-3.872-3.388-7.304-3.388-6.116 0-10.648 4.576-10.648 11.528 0 7.216 4.532 11.528 10.648 11.528 3.564 0 5.896-1.672 7.348-3.652l.572 3.388h4.136V1.2h-4.752v11.396zm-6.512 15.664c-3.96 0-6.556-3.08-6.556-7.524 0-4.4 2.596-7.48 6.556-7.48s6.556 3.08 6.556 7.568c0 4.356-2.596 7.436-6.556 7.436zm29.586-21.956c1.628 0 2.904-1.188 2.904-2.86s-1.276-2.86-2.904-2.86-2.904 1.188-2.904 2.86 1.276 2.86 2.904 2.86zM182.047 32h4.752V9.472h-4.752V32zm21.29-22.792c-3.652 0-5.808 1.452-7.216 3.212l-.528-2.948h-4.136V32h4.752V20.648c0-4.576 2.244-7.348 6.028-7.348 3.564 0 5.368 2.288 5.368 6.556V32h4.796V19.46c0-7.524-4.092-10.252-9.064-10.252zm31.155 22.924l-.88 2.2c-.704 1.848-1.144 2.288-2.992 2.288h-3.344v4.18h5.104c3.3 0 4.268-1.628 5.676-5.28l10.208-26.048h-5.06l-6.116 17.116-6.292-17.116h-5.06l8.756 22.66zm25.793.132c6.864 0 11.484-4.62 11.484-11.528 0-6.864-4.62-11.528-11.484-11.528s-11.484 4.664-11.484 11.528c0 6.908 4.62 11.528 11.484 11.528zm0-4.048c-4.004 0-6.6-3.124-6.6-7.48s2.596-7.48 6.6-7.48 6.644 3.124 6.644 7.48-2.64 7.48-6.644 7.48zm30.749-7.48c0 4.664-2.2 7.392-5.808 7.392-3.476 0-5.236-2.244-5.236-6.644V9.472h-4.752v12.54c0 7.7 4.092 10.252 8.888 10.252 3.476 0 5.544-1.408 6.952-3.124l.528 2.86h4.18V9.472h-4.752v11.264zm20.831-11.264c-3.696 0-5.5 1.496-6.644 3.388l-.528-3.388h-4.224V32h4.752V20.692c0-3.476 1.364-6.776 5.588-6.776h2.112V9.472h-1.056zm14.276 15.092c.132 4.884 4.268 7.7 10.296 7.7 5.456 0 9.548-2.728 9.548-7.04 0-5.016-4.18-6.072-9.328-6.688-3.256-.352-5.412-.616-5.412-2.728 0-1.804 1.848-2.948 4.664-2.948s4.752 1.452 5.016 3.52h4.664c-.308-4.62-4.224-7.172-9.768-7.172-5.412-.044-9.24 2.728-9.24 6.996 0 4.664 4.048 5.764 9.196 6.38 3.476.44 5.544.616 5.544 3.036 0 1.804-1.936 2.948-4.884 2.948-3.432 0-5.456-1.672-5.632-4.004h-4.664zm38.971-3.828c0 4.664-2.2 7.392-5.808 7.392-3.476 0-5.236-2.244-5.236-6.644V9.472h-4.752v12.54c0 7.7 4.092 10.252 8.888 10.252 3.476 0 5.544-1.408 6.952-3.124l.528 2.86h4.18V9.472h-4.752v11.264zm19.775 11.528c5.764 0 9.592-3.212 10.472-8.316h-5.016c-.572 2.596-2.508 4.268-5.412 4.268-3.828 0-6.336-3.036-6.336-7.436 0-4.444 2.508-7.524 6.336-7.524 2.948 0 4.84 1.628 5.456 4.268h4.972c-.924-5.104-4.532-8.316-10.34-8.316-6.82 0-11.308 4.62-11.308 11.572 0 7.04 4.356 11.484 11.176 11.484zm24.449 0c5.764 0 9.592-3.212 10.472-8.316h-5.016c-.572 2.596-2.508 4.268-5.412 4.268-3.828 0-6.336-3.036-6.336-7.436 0-4.444 2.508-7.524 6.336-7.524 2.948 0 4.84 1.628 5.456 4.268h4.972c-.924-5.104-4.532-8.316-10.34-8.316-6.82 0-11.308 4.62-11.308 11.572 0 7.04 4.356 11.484 11.176 11.484zm24.801 0c5.588 0 9.372-3.388 10.164-7.832h-4.752c-.66 2.508-2.772 3.96-5.676 3.96-3.74 0-6.16-2.508-6.292-6.336v-.308h16.984c.088-.616.132-1.232.132-1.804-.132-6.6-4.488-10.736-11-10.736-6.644 0-11.088 4.62-11.088 11.572 0 6.908 4.444 11.484 11.528 11.484zm-6.38-13.992c.352-3.212 2.948-5.236 5.984-5.236 3.3 0 5.632 1.892 6.028 5.236h-12.012zm19.685 6.292c.132 4.884 4.268 7.7 10.296 7.7 5.456 0 9.548-2.728 9.548-7.04 0-5.016-4.18-6.072-9.328-6.688-3.256-.352-5.412-.616-5.412-2.728 0-1.804 1.848-2.948 4.664-2.948s4.752 1.452 5.016 3.52h4.664c-.308-4.62-4.224-7.172-9.768-7.172-5.412-.044-9.24 2.728-9.24 6.996 0 4.664 4.048 5.764 9.196 6.38 3.476.44 5.544.616 5.544 3.036 0 1.804-1.936 2.948-4.884 2.948-3.432 0-5.456-1.672-5.632-4.004h-4.664zm22.129 0c.132 4.884 4.268 7.7 10.296 7.7 5.456 0 9.548-2.728 9.548-7.04 0-5.016-4.18-6.072-9.328-6.688-3.256-.352-5.412-.616-5.412-2.728 0-1.804 1.848-2.948 4.664-2.948s4.752 1.452 5.016 3.52h4.664c-.308-4.62-4.224-7.172-9.768-7.172-5.412-.044-9.24 2.728-9.24 6.996 0 4.664 4.048 5.764 9.196 6.38 3.476.44 5.544.616 5.544 3.036 0 1.804-1.936 2.948-4.884 2.948-3.432 0-5.456-1.672-5.632-4.004h-4.664z" fill="#000"/></svg>