<svg width="137" height="34" viewBox="0 0 137 34" fill="none" xmlns="http://www.w3.org/2000/svg"><path d="M18.049.932C8.932.887.319 6.888.319 17.472c0 9.071 7.696 16.447 17.18 16.447 5.406 0 10.4-1.786 14.249-4.856v-14.02h-13.7v6.14h5.499v3.07c-1.741 1.007-3.757 1.603-6.048 1.603-4.81 0-8.155-3.757-8.155-8.384 0-5.36 4.078-8.568 8.705-8.568 2.474 0 4.994.87 7.01 2.612l5.635-5.91C27.12 2.536 22.584.978 18.049.932zm36.273.046c-9.484 0-17.181 7.376-17.181 16.494 0 9.071 7.697 16.447 17.18 16.447 9.484 0 17.181-7.376 17.181-16.447 0-9.118-7.697-16.494-17.18-16.494zm0 8.064c4.81 0 8.2 3.757 8.2 8.43 0 4.627-3.39 8.384-8.2 8.384-4.811 0-8.156-3.757-8.156-8.384 0-4.673 3.345-8.43 8.156-8.43zm31.496 16.676V1.391h-8.613v32.07h24.328V25.72H85.818zm20.066-24.282v32.025h13.745c9.484 0 17.181-6.918 17.181-15.99 0-9.117-7.697-16.08-17.181-16.08l-13.745.045zm8.614 7.697h4.81c4.765 0 8.659 3.574 8.659 8.293 0 4.765-3.894 8.338-8.659 8.338h-4.81V9.134z" fill="#09B45B"/></svg>