<svg width="136" height="49" viewBox="0 0 136 49" fill="none" xmlns="http://www.w3.org/2000/svg"><path d="M37.903.712C32.367.685 27.138 4.328 27.138 10.754c0 5.507 4.673 9.986 10.43 9.986 3.283 0 6.315-1.085 8.651-2.949V9.28h-8.316v3.727h3.338v1.864a7.224 7.224 0 01-3.672.973c-2.92 0-4.951-2.28-4.951-5.09 0-3.255 2.475-5.202 5.285-5.202 1.502 0 3.032.529 4.255 1.586L45.58 3.55C43.41 1.686 40.656.74 37.903.712zM59.925.74c-5.758 0-10.431 4.478-10.431 10.014 0 5.507 4.673 9.986 10.43 9.986 5.758 0 10.431-4.479 10.431-9.986C70.355 5.218 65.682.74 59.925.74zm0 4.896c2.92 0 4.978 2.28 4.978 5.118 0 2.81-2.058 5.09-4.979 5.09-2.92 0-4.95-2.28-4.95-5.09 0-2.837 2.03-5.118 4.95-5.118zM79.047 15.76V.99h-5.23v19.47h14.77v-4.7h-9.54zM91.229 1.018v19.443h8.345c5.758 0 10.431-4.2 10.431-9.707 0-5.536-4.673-9.763-10.431-9.763l-8.345.027zm5.23 4.673h2.92c2.893 0 5.257 2.17 5.257 5.035 0 2.893-2.364 5.062-5.257 5.062h-2.92V5.691zM16.724 33.47V28.99H.174v4.479H5.82V48.46h5.257V33.47h5.647zm2.63-4.45V48.46h5.23v-5.924h3.115l3.783 5.924h6.036l-4.367-6.62c2.698-.918 3.839-2.892 3.839-6.063 0-4.757-2.532-6.76-8.874-6.76h-8.761zm5.23 4.7h3.783c2.308 0 3.17.723 3.17 2.392 0 1.697-.861 2.392-3.17 2.392h-3.783V33.72zm36.579 14.742l-7.761-19.47h-6.87l-7.677 19.47h6.258l1.252-3.393h7.287l1.252 3.393h6.258zm-13.435-7.565l2.253-6.064 2.253 6.064h-4.506zm16.066-11.878v19.443h8.345c5.758 0 10.43-4.2 10.43-9.707 0-5.535-4.672-9.763-10.43-9.763l-8.345.027zm5.23 4.673h2.92c2.893 0 5.257 2.17 5.257 5.035 0 2.893-2.364 5.062-5.257 5.062h-2.92V33.691zm22.22 14.77V29.018h-5.23v19.443h5.23zm22.225 0v-19.47h-5.146v10.875l-7.844-10.875h-5.424v19.47h5.146V37.613l7.844 10.848h5.424zm14.046-19.749c-5.535-.027-10.764 3.616-10.764 10.042 0 5.507 4.673 9.986 10.43 9.986 3.283 0 6.315-1.085 8.651-2.949V37.28h-8.317v3.727h3.338v1.864a7.224 7.224 0 01-3.672.973c-2.92 0-4.951-2.28-4.951-5.09 0-3.255 2.476-5.202 5.285-5.202 1.502 0 3.032.529 4.256 1.586l3.421-3.588c-2.169-1.864-4.923-2.81-7.677-2.838z" fill="#09B45B"/></svg>