<svg width="119" height="110" viewBox="0 0 119 110" fill="none" xmlns="http://www.w3.org/2000/svg"><path d="M.48 3.648h5.184V18h2.76V3.648h5.184V1.2H.48v2.448zm16.057.336c.888 0 1.584-.648 1.584-1.56s-.696-1.56-1.584-1.56c-.888 0-1.584.648-1.584 1.56s.696 1.56 1.584 1.56zM15.217 18h2.592V5.712h-2.592V18zM29.734 7.632c-.792-1.224-2.112-2.064-4.032-2.064-3.336 0-5.808 2.472-5.808 6.24 0 3.912 2.472 6.24 5.808 6.24 1.92 0 3.192-.792 4.008-2.016V17.4c0 2.352-1.272 3.432-3.528 3.432-1.824 0-3.024-.792-3.336-2.16h-2.64c.24 2.76 2.52 4.272 5.784 4.272 4.416 0 6.288-2.112 6.288-5.448V5.712h-2.256l-.288 1.92zm-3.6 8.232c-2.16 0-3.576-1.656-3.576-4.056 0-2.376 1.416-4.056 3.576-4.056s3.576 1.68 3.576 4.104c0 2.352-1.416 4.008-3.576 4.008zM41.267 5.568c-1.92 0-3.096.864-3.864 1.92V1.2h-2.592V18h2.592v-6.216c0-2.472 1.248-3.984 3.288-3.984 1.92 0 2.952 1.248 2.952 3.576V18h2.592v-6.84c0-4.104-2.232-5.592-4.968-5.592zm8.213 9.096c0 2.232 1.008 3.336 3.36 3.336h2.4v-2.28h-1.824c-.984 0-1.32-.36-1.32-1.32V7.992h3v-2.28h-3V2.28H49.48v3.432h-2.136v2.28h2.136v6.672zM.744 42.944c.072 2.664 2.328 4.2 5.616 4.2 2.976 0 5.208-1.488 5.208-3.84 0-2.736-2.28-3.312-5.088-3.648-1.776-.192-2.952-.336-2.952-1.488 0-.984 1.008-1.608 2.544-1.608s2.592.792 2.736 1.92h2.544c-.168-2.52-2.304-3.912-5.328-3.912-2.952-.024-5.04 1.488-5.04 3.816 0 2.544 2.208 3.144 5.016 3.48 1.896.24 3.024.336 3.024 1.656 0 .984-1.056 1.608-2.664 1.608-1.872 0-2.976-.912-3.072-2.184H.744zm19.409-8.376c-1.92 0-3.192.888-4.008 1.968l-.312-1.824h-2.256V51.8h2.592v-6.528c.768 1.104 2.088 1.872 3.984 1.872 3.36 0 5.808-2.496 5.808-6.288 0-3.936-2.448-6.288-5.808-6.288zM19.72 44.96c-2.16 0-3.576-1.704-3.576-4.152 0-2.376 1.416-4.032 3.576-4.032s3.6 1.656 3.6 4.08c0 2.4-1.44 4.104-3.6 4.104zm14.533-10.248c-2.016 0-3 .816-3.624 1.848l-.288-1.848h-2.304V47h2.592v-6.168c0-1.896.744-3.696 3.048-3.696h1.152v-2.424h-.576zm7.42 12.432c3.048 0 5.112-1.848 5.544-4.272h-2.592c-.36 1.368-1.512 2.16-3.096 2.16-2.04 0-3.36-1.368-3.432-3.456v-.168h9.264c.048-.336.072-.672.072-.984-.072-3.6-2.448-5.856-6-5.856-3.624 0-6.048 2.52-6.048 6.312 0 3.768 2.424 6.264 6.288 6.264zm-3.48-7.632c.192-1.752 1.608-2.856 3.264-2.856 1.8 0 3.072 1.032 3.288 2.856h-6.552zm22.568 5.232c-.528 0-.792-.168-.792-.792v-4.92c0-2.904-1.872-4.464-5.136-4.464-3.096 0-5.16 1.488-5.424 3.888h2.544c.192-1.08 1.224-1.8 2.76-1.8 1.704 0 2.688.84 2.688 2.208v.744h-3.096c-3.432 0-5.256 1.416-5.256 3.936 0 2.28 1.872 3.6 4.56 3.6 1.992 0 3.24-.864 4.056-2.112 0 1.224.576 1.968 2.256 1.968h1.368v-2.256h-.528zm-3.36-2.784c-.024 1.896-1.272 3.168-3.432 3.168-1.416 0-2.28-.72-2.28-1.752 0-1.248.888-1.848 2.496-1.848h3.216v.432zm14.542-5.544c-.792-1.08-2.112-1.848-3.984-1.848-3.336 0-5.808 2.496-5.808 6.288 0 3.936 2.472 6.288 5.808 6.288 1.944 0 3.216-.912 4.008-1.992L72.28 47h2.256V30.2h-2.592v6.216zm-3.552 8.544c-2.16 0-3.576-1.68-3.576-4.104 0-2.4 1.416-4.08 3.576-4.08s3.576 1.68 3.576 4.128c0 2.376-1.416 4.056-3.576 4.056zm8.149-2.016c.072 2.664 2.328 4.2 5.616 4.2 2.976 0 5.208-1.488 5.208-3.84 0-2.736-2.28-3.312-5.088-3.648-1.776-.192-2.952-.336-2.952-1.488 0-.984 1.008-1.608 2.544-1.608s2.592.792 2.736 1.92h2.544c-.168-2.52-2.304-3.912-5.328-3.912-2.952-.024-5.04 1.488-5.04 3.816 0 2.544 2.208 3.144 5.016 3.48 1.896.24 3.024.336 3.024 1.656 0 .984-1.056 1.608-2.664 1.608-1.872 0-2.976-.912-3.072-2.184H76.54zM7.08 76.144c3.744 0 6.264-2.52 6.264-6.288 0-3.744-2.52-6.288-6.264-6.288S.816 66.112.816 69.856c0 3.768 2.52 6.288 6.264 6.288zm0-2.208c-2.184 0-3.6-1.704-3.6-4.08 0-2.376 1.416-4.08 3.6-4.08s3.624 1.704 3.624 4.08c0 2.376-1.44 4.08-3.624 4.08zm14.828-10.368c-1.992 0-3.168.792-3.936 1.752l-.288-1.608h-2.256V76h2.592v-6.192c0-2.496 1.224-4.008 3.288-4.008 1.944 0 2.928 1.248 2.928 3.576V76h2.616v-6.84c0-4.104-2.232-5.592-4.944-5.592zm22.25 3.696c1.56-.36 2.904-1.776 2.904-3.744 0-2.616-2.256-4.464-5.856-4.464-3.576 0-5.832 1.848-5.832 4.464 0 2.04 1.344 3.384 2.88 3.768-1.8.408-3.336 1.8-3.336 4.128 0 2.784 2.328 4.728 6.288 4.728 3.96 0 6.312-1.944 6.312-4.728 0-2.376-1.56-3.768-3.36-4.152zm-2.952-6.144c1.92 0 3.168 1.008 3.168 2.472 0 1.488-1.248 2.496-3.168 2.496-1.896 0-3.144-1.008-3.144-2.496 0-1.464 1.248-2.472 3.144-2.472zm0 12.984c-2.112 0-3.576-1.2-3.576-2.832s1.464-2.808 3.576-2.808c2.136 0 3.6 1.176 3.6 2.808s-1.464 2.832-3.6 2.832zm8.082-6.12c0 5.064 2.712 8.16 6.624 8.16 3.912 0 6.624-3.096 6.624-8.16v-.768c0-4.872-2.712-8.16-6.624-8.16-3.912 0-6.624 3.288-6.624 8.16v.768zm10.56-.096c0 3.768-1.584 5.928-3.936 5.928s-3.936-2.16-3.936-5.928v-.576c0-3.744 1.584-5.928 3.936-5.928s3.936 2.184 3.936 5.928v.576zm8.66.168h-3.815v2.184h3.816v4.056h2.376V70.24h3.84v-2.184h-3.84V64h-2.376v4.056zM1.537 105h2.76v-7.104h6.576V95.52H4.296v-4.872h7.968V88.2H1.536V105zm17.497.144c3.744 0 6.264-2.52 6.264-6.288 0-3.744-2.52-6.288-6.264-6.288s-6.264 2.544-6.264 6.288c0 3.768 2.52 6.288 6.264 6.288zm0-2.208c-2.184 0-3.6-1.704-3.6-4.08 0-2.376 1.416-4.08 3.6-4.08s3.624 1.704 3.624 4.08c0 2.376-1.44 4.08-3.624 4.08zm14.564-10.224c-2.016 0-3 .816-3.624 1.848l-.288-1.848h-2.304V105h2.592v-6.168c0-1.896.744-3.696 3.048-3.696h1.152v-2.424h-.576zm7.421 12.432c3.048 0 5.112-1.848 5.544-4.272H43.97c-.36 1.368-1.512 2.16-3.096 2.16-2.04 0-3.36-1.368-3.432-3.456v-.168h9.264c.048-.336.072-.672.072-.984-.072-3.6-2.448-5.856-6-5.856-3.624 0-6.048 2.52-6.048 6.312 0 3.768 2.424 6.264 6.288 6.264zm-3.48-7.632c.192-1.752 1.608-2.856 3.264-2.856 1.8 0 3.072 1.032 3.288 2.856h-6.552zM47.04 105h2.856l3.24-4.464L56.351 105h3.024l-4.632-6.288 4.368-6h-2.856l-3 4.152-2.928-4.152h-3.024l4.344 6L47.04 105zm26.317-12.432c-1.92 0-3.192.888-4.008 1.968l-.312-1.824H66.78V109.8h2.592v-6.528c.768 1.104 2.088 1.872 3.984 1.872 3.36 0 5.808-2.496 5.808-6.288 0-3.936-2.448-6.288-5.808-6.288zm-.432 10.392c-2.16 0-3.576-1.704-3.576-4.152 0-2.376 1.416-4.032 3.576-4.032s3.6 1.656 3.6 4.08c0 2.4-1.44 4.104-3.6 4.104zm19.549-.216c-.528 0-.792-.168-.792-.792v-4.92c0-2.904-1.872-4.464-5.136-4.464-3.096 0-5.16 1.488-5.424 3.888h2.544c.192-1.08 1.224-1.8 2.76-1.8 1.704 0 2.688.84 2.688 2.208v.744h-3.096c-3.432 0-5.256 1.416-5.256 3.936 0 2.28 1.872 3.6 4.56 3.6 1.992 0 3.24-.864 4.056-2.112 0 1.224.576 1.968 2.256 1.968H93v-2.256h-.528zm-3.36-2.784c-.024 1.896-1.272 3.168-3.432 3.168-1.416 0-2.28-.72-2.28-1.752 0-1.248.888-1.848 2.496-1.848h3.216v.432zm6.62-8.976c.888 0 1.584-.648 1.584-1.56s-.696-1.56-1.584-1.56c-.888 0-1.584.648-1.584 1.56s.696 1.56 1.584 1.56zM94.413 105h2.592V92.712h-2.592V105zm11.348-12.288c-2.016 0-3 .816-3.624 1.848l-.288-1.848h-2.304V105h2.592v-6.168c0-1.896.744-3.696 3.048-3.696h1.152v-2.424h-.576zm1.436 8.232c.072 2.664 2.328 4.2 5.616 4.2 2.976 0 5.208-1.488 5.208-3.84 0-2.736-2.28-3.312-5.088-3.648-1.776-.192-2.952-.336-2.952-1.488 0-.984 1.008-1.608 2.544-1.608s2.592.792 2.736 1.92h2.544c-.168-2.52-2.304-3.912-5.328-3.912-2.952-.024-5.04 1.488-5.04 3.816 0 2.544 2.208 3.144 5.016 3.48 1.896.24 3.024.336 3.024 1.656 0 .984-1.056 1.608-2.664 1.608-1.872 0-2.976-.912-3.072-2.184h-2.544z" fill="#000"/></svg>