<svg width="505" height="21" viewBox="0 0 505 21" fill="none" xmlns="http://www.w3.org/2000/svg"><path d="M16.111 13l.814-2.079h3.355L21.094 13h1.023l-2.926-7.7h-1.133L15.121 13h.99zm2.486-6.655l1.397 3.707h-2.783l1.386-3.707zM22.857 13h.901V5.3h-.902V13zm2.137 0h.902V5.3h-.902V13zm5.434-1.463c0 .99.386 1.463 1.463 1.463h.98v-.825h-.892c-.483 0-.648-.176-.648-.649V8.215h1.451V7.39h-1.451V5.817h-.902V7.39h-1.012v.825h1.011v3.322zm5.82-4.147c-1 0-1.43.418-1.694.847l-.12-.847h-.782V13h.902v-2.86c0-.891.32-1.87 1.496-1.87h.451v-.88h-.253zm5.803 4.785c-.253 0-.363-.077-.363-.374V9.348c0-1.309-.825-2.024-2.255-2.024-1.353 0-2.244.649-2.376 1.749h.902c.11-.572.638-.946 1.43-.946.88 0 1.397.44 1.397 1.166v.385h-1.65c-1.474 0-2.255.627-2.255 1.749 0 1.023.836 1.639 2.068 1.639.968 0 1.529-.429 1.88-.935.012.55.265.869 1.013.869h.495v-.825h-.286zm-1.265-1.463c0 .935-.65 1.584-1.771 1.584-.748 0-1.221-.374-1.221-.924 0-.638.45-.935 1.254-.935h1.738v.275zm6.602-2.464c-.341-.539-.98-.924-1.925-.924-1.551 0-2.695 1.155-2.695 2.871 0 1.826 1.144 2.871 2.695 2.871.946 0 1.55-.451 1.925-.968l.12.902h.782V5.3h-.902v2.948zm-1.837 4.015c-1.111 0-1.86-.847-1.86-2.068s.749-2.068 1.86-2.068c1.1 0 1.848.858 1.848 2.09 0 1.199-.748 2.046-1.848 2.046zm4.43-5.819c.33 0 .582-.242.582-.583a.567.567 0 00-.583-.583.567.567 0 00-.583.583c0 .341.253.583.583.583zM49.517 13h.902V7.39h-.902V13zm4.888-5.676c-.946 0-1.518.396-1.848.825l-.121-.759h-.781V13h.902v-2.805c0-1.265.638-2.046 1.694-2.046.979 0 1.518.616 1.518 1.782V13h.902V9.876c0-1.859-1.001-2.552-2.266-2.552zm7.838 1.034c-.352-.627-.979-1.034-1.925-1.034-1.55 0-2.695 1.155-2.695 2.871 0 1.826 1.144 2.871 2.695 2.871.946 0 1.551-.396 1.925-1.034v.66c0 1.221-.638 1.771-1.815 1.771-.935 0-1.562-.396-1.716-1.1h-.924c.143 1.232 1.144 1.903 2.574 1.903 1.925 0 2.783-.924 2.783-2.541V7.39h-.78l-.122.968zm-1.837 3.905c-1.11 0-1.859-.847-1.859-2.068s.748-2.068 1.86-2.068c1.1 0 1.847.858 1.847 2.09 0 1.199-.748 2.046-1.848 2.046zm7.309-5.819c.33 0 .583-.242.583-.583a.567.567 0 00-.583-.583.567.567 0 00-.583.583c0 .341.253.583.583.583zM67.254 13h.902V7.39h-.902V13zm4.887-5.676c-.946 0-1.518.396-1.848.825l-.12-.759h-.782V13h.902v-2.805c0-1.265.638-2.046 1.694-2.046.98 0 1.518.616 1.518 1.782V13h.902V9.876c0-1.859-1-2.552-2.266-2.552zM76.893 13h1.09l2.1-5.61h-.946l-1.683 4.587L75.76 7.39h-.968L76.893 13zm6.202.066c1.639 0 2.783-1.166 2.783-2.871s-1.144-2.871-2.783-2.871c-1.64 0-2.783 1.166-2.783 2.871s1.144 2.871 2.783 2.871zm0-.803c-1.111 0-1.86-.869-1.86-2.068s.749-2.068 1.86-2.068c1.11 0 1.859.869 1.859 2.068s-.748 2.068-1.86 2.068zm3.817.737h.902V5.3h-.902V13zm3.678 0h1.089l2.1-5.61h-.945l-1.683 4.587-1.694-4.587h-.968l2.1 5.61zm6.2.066c1.299 0 2.223-.825 2.443-1.947h-.913c-.187.726-.803 1.144-1.595 1.144-1.067 0-1.738-.748-1.771-1.815v-.077h4.356c.01-.132.022-.264.022-.385-.044-1.661-1.078-2.662-2.662-2.662-1.584 0-2.662 1.166-2.662 2.871 0 1.716 1.1 2.871 2.783 2.871zM95.01 9.623c.088-.913.847-1.507 1.672-1.507.935 0 1.595.539 1.683 1.507h-3.355zm5.1 1.529c.022 1.232 1.023 1.914 2.475 1.914 1.243 0 2.244-.649 2.244-1.694 0-1.243-1.023-1.485-2.299-1.639-.814-.099-1.408-.176-1.408-.792 0-.517.528-.847 1.309-.847.77 0 1.298.429 1.364 1.001h.924c-.088-1.166-1.012-1.76-2.288-1.771-1.265-.011-2.2.66-2.2 1.683 0 1.166 1.001 1.419 2.255 1.573.836.099 1.452.154 1.452.858 0 .517-.561.858-1.353.858-.935 0-1.518-.484-1.551-1.144h-.924zm11.195-3.762c-1.001 0-1.43.418-1.694.847l-.121-.847h-.781V13h.902v-2.86c0-.891.319-1.87 1.496-1.87h.451v-.88h-.253zm1.497-.946c.33 0 .583-.242.583-.583a.567.567 0 00-.583-.583.567.567 0 00-.583.583c0 .341.253.583.583.583zM112.339 13h.902V7.39h-.902V13zm1.906-1.848c.022 1.232 1.023 1.914 2.475 1.914 1.243 0 2.244-.649 2.244-1.694 0-1.243-1.023-1.485-2.299-1.639-.814-.099-1.408-.176-1.408-.792 0-.517.528-.847 1.309-.847.77 0 1.298.429 1.364 1.001h.924c-.088-1.166-1.012-1.76-2.288-1.771-1.265-.011-2.2.66-2.2 1.683 0 1.166 1.001 1.419 2.255 1.573.836.099 1.452.154 1.452.858 0 .517-.561.858-1.353.858-.935 0-1.518-.484-1.551-1.144h-.924zM119.966 13h.902v-1.474l1.133-1.166L123.86 13h1.089l-2.343-3.289 2.189-2.321h-1.111l-2.816 2.981V5.3h-.902V13zm5.508-.55c0 .374.264.616.627.616s.627-.242.627-.616-.264-.616-.627-.616-.627.242-.627.616zm8.544-6.336l-1.287.594.033-1.419h-.627l.022 1.408-1.276-.583-.253.616 1.342.495-.924 1.089.473.44.913-1.155.924 1.155.484-.44-.913-1.078 1.342-.495-.253-.627zM135.534 13h.957V9.634h3.168v-.88h-3.168V6.18h3.828V5.3h-4.785V13zm7.943-5.61c-1.001 0-1.43.418-1.694.847l-.121-.847h-.781V13h.902v-2.86c0-.891.319-1.87 1.496-1.87h.451v-.88h-.253zm3.297 5.676c1.639 0 2.783-1.166 2.783-2.871s-1.144-2.871-2.783-2.871-2.783 1.166-2.783 2.871 1.144 2.871 2.783 2.871zm0-.803c-1.111 0-1.859-.869-1.859-2.068s.748-2.068 1.859-2.068 1.859.869 1.859 2.068-.748 2.068-1.859 2.068zm10.077-4.939c-1.001 0-1.606.462-1.947 1.067-.319-.715-.99-1.067-1.771-1.067-.869 0-1.342.429-1.639.836l-.121-.77h-.781V13h.902v-2.959c0-1.122.561-1.892 1.485-1.892.858 0 1.353.572 1.353 1.672V13h.902V9.997c0-1.144.572-1.848 1.507-1.848.847 0 1.331.572 1.331 1.672V13h.902V9.766c0-1.771-.957-2.442-2.123-2.442zm7.38-1.188c0 .385-.176.66-.539.66h-1.254v.825h1.243c.242 0 .418-.044.528-.143V13h.924V5.3h-.902v.836zM169.522 13h.935V6.928L173.009 13h.847l2.552-6.072V13h.935V5.3h-1.188l-2.695 6.391-2.728-6.391h-1.21V13zm14.143-.825c-.253 0-.363-.077-.363-.374V9.348c0-1.309-.825-2.024-2.255-2.024-1.353 0-2.244.649-2.376 1.749h.902c.11-.572.638-.946 1.43-.946.88 0 1.397.44 1.397 1.166v.385h-1.65c-1.474 0-2.255.627-2.255 1.749 0 1.023.836 1.639 2.068 1.639.968 0 1.529-.429 1.881-.935.011.55.264.869 1.012.869h.495v-.825h-.286zm-1.265-1.463c0 .935-.649 1.584-1.771 1.584-.748 0-1.221-.374-1.221-.924 0-.638.451-.935 1.254-.935h1.738v.275zm3.668 2.321l-.275.682c-.209.528-.297.66-.814.66h-.803v.825h1.078c.792 0 1.001-.352 1.353-1.254l2.585-6.556h-.957l-1.672 4.477-1.727-4.477h-.957l2.189 5.643zm3.678-1.188c-.462 0-.726.275-.726.638 0 .396.253.594.583.594a.555.555 0 00.374-.132.581.581 0 01.011.143c0 .374-.22.869-.924.88v.517c.968-.022 1.551-.583 1.551-1.518 0-.605-.33-1.122-.869-1.122zm7.257 1.221c1.364 0 2.277-.77 2.497-1.98h-.957c-.176.715-.726 1.177-1.529 1.177-1.078 0-1.804-.836-1.804-2.057s.726-2.079 1.804-2.079c.825 0 1.375.451 1.54 1.199h.946c-.231-1.232-1.1-2.002-2.475-2.002-1.628 0-2.739 1.166-2.739 2.882 0 1.749 1.078 2.86 2.717 2.86zm6.071 0c1.639 0 2.783-1.166 2.783-2.871s-1.144-2.871-2.783-2.871-2.783 1.166-2.783 2.871 1.144 2.871 2.783 2.871zm0-.803c-1.111 0-1.859-.869-1.859-2.068s.748-2.068 1.859-2.068 1.859.869 1.859 2.068-.748 2.068-1.859 2.068zm10.076-4.939c-1.001 0-1.606.462-1.947 1.067-.319-.715-.99-1.067-1.771-1.067-.869 0-1.342.429-1.639.836l-.121-.77h-.781V13h.902v-2.959c0-1.122.561-1.892 1.485-1.892.858 0 1.353.572 1.353 1.672V13h.902V9.997c0-1.144.572-1.848 1.507-1.848.847 0 1.331.572 1.331 1.672V13h.902V9.766c0-1.771-.957-2.442-2.123-2.442zm9.539 0c-1.001 0-1.606.462-1.947 1.067-.319-.715-.99-1.067-1.771-1.067-.869 0-1.342.429-1.639.836l-.121-.77h-.781V13h.902v-2.959c0-1.122.561-1.892 1.485-1.892.858 0 1.353.572 1.353 1.672V13h.902V9.997c0-1.144.572-1.848 1.507-1.848.847 0 1.331.572 1.331 1.672V13h.902V9.766c0-1.771-.957-2.442-2.123-2.442zm3.743-.88c.33 0 .583-.242.583-.583a.567.567 0 00-.583-.583.567.567 0 00-.583.583c0 .341.253.583.583.583zM225.97 13h.902V7.39h-.902V13zm1.906-1.848c.022 1.232 1.023 1.914 2.475 1.914 1.243 0 2.244-.649 2.244-1.694 0-1.243-1.023-1.485-2.299-1.639-.814-.099-1.408-.176-1.408-.792 0-.517.528-.847 1.309-.847.77 0 1.298.429 1.364 1.001h.924c-.088-1.166-1.012-1.76-2.288-1.771-1.265-.011-2.2.66-2.2 1.683 0 1.166 1.001 1.419 2.255 1.573.836.099 1.452.154 1.452.858 0 .517-.561.858-1.353.858-.935 0-1.518-.484-1.551-1.144h-.924zm5.382 0c.022 1.232 1.023 1.914 2.475 1.914 1.243 0 2.244-.649 2.244-1.694 0-1.243-1.023-1.485-2.299-1.639-.814-.099-1.408-.176-1.408-.792 0-.517.528-.847 1.309-.847.77 0 1.298.429 1.364 1.001h.924c-.088-1.166-1.012-1.76-2.288-1.771-1.265-.011-2.2.66-2.2 1.683 0 1.166 1.001 1.419 2.255 1.573.836.099 1.452.154 1.452.858 0 .517-.561.858-1.353.858-.935 0-1.518-.484-1.551-1.144h-.924zm6.182-4.708c.33 0 .583-.242.583-.583a.567.567 0 00-.583-.583.567.567 0 00-.583.583c0 .341.253.583.583.583zM238.978 13h.902V7.39h-.902V13zm4.723.066c1.639 0 2.783-1.166 2.783-2.871s-1.144-2.871-2.783-2.871-2.783 1.166-2.783 2.871 1.144 2.871 2.783 2.871zm0-.803c-1.111 0-1.859-.869-1.859-2.068s.748-2.068 1.859-2.068 1.859.869 1.859 2.068-.748 2.068-1.859 2.068zm6.567-4.939c-.946 0-1.518.396-1.848.825l-.121-.759h-.781V13h.902v-2.805c0-1.265.638-2.046 1.694-2.046.979 0 1.518.616 1.518 1.782V13h.902V9.876c0-1.859-1.001-2.552-2.266-2.552zm3.185 3.828c.022 1.232 1.023 1.914 2.475 1.914 1.243 0 2.244-.649 2.244-1.694 0-1.243-1.023-1.485-2.299-1.639-.814-.099-1.408-.176-1.408-.792 0-.517.528-.847 1.309-.847.77 0 1.298.429 1.364 1.001h.924c-.088-1.166-1.012-1.76-2.288-1.771-1.265-.011-2.2.66-2.2 1.683 0 1.166 1.001 1.419 2.255 1.573.836.099 1.452.154 1.452.858 0 .517-.561.858-1.353.858-.935 0-1.518-.484-1.551-1.144h-.924zm8.369 0c.022 1.232 1.023 1.914 2.475 1.914 1.243 0 2.244-.649 2.244-1.694 0-1.243-1.023-1.485-2.299-1.639-.814-.099-1.408-.176-1.408-.792 0-.517.528-.847 1.309-.847.77 0 1.298.429 1.364 1.001h.924c-.088-1.166-1.012-1.76-2.288-1.771-1.265-.011-2.2.66-2.2 1.683 0 1.166 1.001 1.419 2.255 1.573.836.099 1.452.154 1.452.858 0 .517-.561.858-1.353.858-.935 0-1.518-.484-1.551-1.144h-.924zm6.138.385c0 .99.385 1.463 1.463 1.463h.979v-.825h-.891c-.484 0-.649-.176-.649-.649V8.215h1.452V7.39h-1.452V5.817h-.902V7.39h-1.012v.825h1.012v3.322zm8.098.638c-.253 0-.363-.077-.363-.374V9.348c0-1.309-.825-2.024-2.255-2.024-1.353 0-2.244.649-2.376 1.749h.902c.11-.572.638-.946 1.43-.946.88 0 1.397.44 1.397 1.166v.385h-1.65c-1.474 0-2.255.627-2.255 1.749 0 1.023.836 1.639 2.068 1.639.968 0 1.529-.429 1.881-.935.011.55.264.869 1.012.869h.495v-.825h-.286zm-1.265-1.463c0 .935-.649 1.584-1.771 1.584-.748 0-1.221-.374-1.221-.924 0-.638.451-.935 1.254-.935h1.738v.275zm4.841-3.322c-1.001 0-1.43.418-1.694.847l-.121-.847h-.781V13h.902v-2.86c0-.891.319-1.87 1.496-1.87h.451v-.88h-.253zm1.635 4.147c0 .99.385 1.463 1.463 1.463h.979v-.825h-.891c-.484 0-.649-.176-.649-.649V8.215h1.452V7.39h-1.452V5.817h-.902V7.39h-1.012v.825h1.012v3.322zm5.509-3.322h1.012V13h.902V8.215h1.584V7.39h-1.584v-.649c0-.429.165-.616.616-.616h.968V5.3h-1.023c-1.045 0-1.463.473-1.463 1.463v.627h-1.012v.825zm6.746-.825c-1.001 0-1.43.418-1.694.847l-.121-.847h-.781V13h.902v-2.86c0-.891.319-1.87 1.496-1.87h.451v-.88h-.253zm3.297 5.676c1.639 0 2.783-1.166 2.783-2.871s-1.144-2.871-2.783-2.871-2.783 1.166-2.783 2.871 1.144 2.871 2.783 2.871zm0-.803c-1.111 0-1.859-.869-1.859-2.068s.748-2.068 1.859-2.068 1.859.869 1.859 2.068-.748 2.068-1.859 2.068zm10.076-4.939c-1.001 0-1.606.462-1.947 1.067-.319-.715-.99-1.067-1.771-1.067-.869 0-1.342.429-1.639.836l-.121-.77h-.781V13h.902v-2.959c0-1.122.561-1.892 1.485-1.892.858 0 1.353.572 1.353 1.672V13h.902V9.997c0-1.144.572-1.848 1.507-1.848.847 0 1.331.572 1.331 1.672V13h.902V9.766c0-1.771-.957-2.442-2.123-2.442zm6.247 2.387c0 2.2 1.001 3.355 2.926 3.355 1.925 0 2.948-1.155 2.948-3.355V5.3h-.957v4.466c0 1.595-.638 2.42-1.991 2.42-1.331 0-1.969-.825-1.969-2.42V5.3h-.957v4.411zm7.02.77c.055 1.518 1.155 2.585 3.036 2.585 1.617 0 2.739-.935 2.739-2.266 0-1.496-1.287-1.914-2.541-2.123-1.155-.198-2.09-.385-2.09-1.309 0-.825.671-1.265 1.672-1.265 1.045 0 1.76.583 1.87 1.474h.99c-.088-1.386-1.144-2.343-2.86-2.343-1.562 0-2.629.88-2.629 2.189 0 1.496 1.276 1.903 2.519 2.112 1.166.198 2.112.396 2.112 1.353 0 .836-.737 1.309-1.771 1.309-1.177 0-1.98-.682-2.057-1.716h-.99zM329.617 13c2.409 0 3.872-1.551 3.872-3.85 0-2.31-1.463-3.85-3.872-3.85h-2.464V13h2.464zm-1.507-6.82h1.507c1.87 0 2.893 1.166 2.893 2.97 0 1.793-1.023 2.97-2.893 2.97h-1.507V6.18zm12.051 4.62c0-1.496-1.287-1.914-2.541-2.123-1.155-.198-2.09-.385-2.09-1.309 0-.825.671-1.265 1.672-1.265 1.045 0 1.76.583 1.87 1.474h.99c-.077-1.232-.913-2.123-2.299-2.31V4.112h-.836v1.133c-1.408.099-2.354.946-2.354 2.178 0 1.496 1.276 1.903 2.519 2.112 1.166.198 2.112.396 2.112 1.353 0 .836-.737 1.309-1.771 1.309-1.177 0-1.98-.682-2.057-1.716h-.99c.055 1.375.968 2.387 2.541 2.563v1.133h.836v-1.122c1.43-.121 2.398-1.023 2.398-2.255zm4.856-1.804c.737-.198 1.243-.759 1.243-1.727 0-1.21-1.001-2.035-2.585-2.035-1.518 0-2.574.935-2.585 2.288h.913c.011-.88.715-1.463 1.683-1.463.924 0 1.628.484 1.628 1.265 0 .781-.572 1.353-1.716 1.353h-.605v.803h.66c1.199 0 1.859.517 1.859 1.32 0 .88-.77 1.441-1.771 1.441-1.089 0-1.881-.605-1.892-1.617h-.913c0 1.529 1.078 2.442 2.75 2.442s2.772-.891 2.772-2.2c0-1.177-.737-1.738-1.441-1.87zm7.865 5.434c-1.232-1.606-1.694-3.047-1.694-4.73 0-1.672.473-3.113 1.694-4.73h-.99c-1.133 1.474-1.595 3.069-1.595 4.73 0 1.694.473 3.267 1.595 4.73h.99zm3.397-1.364c1.639 0 2.783-1.166 2.783-2.871s-1.144-2.871-2.783-2.871-2.783 1.166-2.783 2.871 1.144 2.871 2.783 2.871zm0-.803c-1.111 0-1.859-.869-1.859-2.068s.748-2.068 1.859-2.068 1.859.869 1.859 2.068-.748 2.068-1.859 2.068zm6.413-4.873c-1.001 0-1.43.418-1.694.847l-.121-.847h-.781V13h.902v-2.86c0-.891.319-1.87 1.496-1.87h.451v-.88h-.253zm6.741-.066c-.946 0-1.551.451-1.925.968V5.3h-.902V13h.781l.121-.858c.341.539.979.924 1.925.924 1.551 0 2.695-1.155 2.695-2.871 0-1.826-1.144-2.871-2.695-2.871zm-.088 4.939c-1.1 0-1.848-.858-1.848-2.09 0-1.199.748-2.046 1.848-2.046 1.111 0 1.859.847 1.859 2.068s-.748 2.068-1.859 2.068zm8.775-.088c-.253 0-.363-.077-.363-.374V9.348c0-1.309-.825-2.024-2.255-2.024-1.353 0-2.244.649-2.376 1.749h.902c.11-.572.638-.946 1.43-.946.88 0 1.397.44 1.397 1.166v.385h-1.65c-1.474 0-2.255.627-2.255 1.749 0 1.023.836 1.639 2.068 1.639.968 0 1.529-.429 1.881-.935.011.55.264.869 1.012.869h.495v-.825h-.286zm-1.265-1.463c0 .935-.649 1.584-1.771 1.584-.748 0-1.221-.374-1.221-.924 0-.638.451-.935 1.254-.935h1.738v.275zm2.013.44c.022 1.232 1.023 1.914 2.475 1.914 1.243 0 2.244-.649 2.244-1.694 0-1.243-1.023-1.485-2.299-1.639-.814-.099-1.408-.176-1.408-.792 0-.517.528-.847 1.309-.847.77 0 1.298.429 1.364 1.001h.924c-.088-1.166-1.012-1.76-2.288-1.771-1.265-.011-2.2.66-2.2 1.683 0 1.166 1.001 1.419 2.255 1.573.836.099 1.452.154 1.452.858 0 .517-.561.858-1.353.858-.935 0-1.518-.484-1.551-1.144h-.924zm8.306 1.914c1.298 0 2.222-.825 2.442-1.947h-.913c-.187.726-.803 1.144-1.595 1.144-1.067 0-1.738-.748-1.771-1.815v-.077h4.356c.011-.132.022-.264.022-.385-.044-1.661-1.078-2.662-2.662-2.662-1.584 0-2.662 1.166-2.662 2.871 0 1.716 1.1 2.871 2.783 2.871zm-1.782-3.443c.088-.913.847-1.507 1.672-1.507.935 0 1.595.539 1.683 1.507h-3.355zm10.75 3.443c1.364 0 2.277-.77 2.497-1.98h-.957c-.176.715-.726 1.177-1.529 1.177-1.078 0-1.804-.836-1.804-2.057s.726-2.079 1.804-2.079c.825 0 1.375.451 1.54 1.199h.946c-.231-1.232-1.1-2.002-2.475-2.002-1.628 0-2.739 1.166-2.739 2.882 0 1.749 1.078 2.86 2.717 2.86zm7.413-2.871c0 1.265-.616 2.046-1.639 2.046-.935 0-1.463-.616-1.463-1.782V7.39h-.902v3.124c0 1.859.979 2.552 2.211 2.552.924 0 1.463-.396 1.793-.814l.121.748h.781V7.39h-.902v2.805zm4.727-2.805c-1.001 0-1.43.418-1.694.847l-.121-.847h-.781V13h.902v-2.86c0-.891.319-1.87 1.496-1.87h.451v-.88h-.253zm3.631 0c-1.001 0-1.43.418-1.694.847l-.121-.847h-.781V13h.902v-2.86c0-.891.319-1.87 1.496-1.87h.451v-.88h-.253zm3.298 5.676c1.298 0 2.222-.825 2.442-1.947h-.913c-.187.726-.803 1.144-1.595 1.144-1.067 0-1.738-.748-1.771-1.815v-.077h4.356c.011-.132.022-.264.022-.385-.044-1.661-1.078-2.662-2.662-2.662-1.584 0-2.662 1.166-2.662 2.871 0 1.716 1.1 2.871 2.783 2.871zm-1.782-3.443c.088-.913.847-1.507 1.672-1.507.935 0 1.595.539 1.683 1.507h-3.355zm8.102-2.299c-.946 0-1.518.396-1.848.825l-.121-.759h-.781V13h.902v-2.805c0-1.265.638-2.046 1.694-2.046.979 0 1.518.616 1.518 1.782V13h.902V9.876c0-1.859-1.001-2.552-2.266-2.552zm5.871 5.742c1.364 0 2.277-.77 2.497-1.98h-.957c-.176.715-.726 1.177-1.529 1.177-1.078 0-1.804-.836-1.804-2.057s.726-2.079 1.804-2.079c.825 0 1.375.451 1.54 1.199h.946c-.231-1.232-1.1-2.002-2.475-2.002-1.628 0-2.739 1.166-2.739 2.882 0 1.749 1.078 2.86 2.717 2.86zm4.952-.033l-.275.682c-.209.528-.297.66-.814.66h-.803v.825h1.078c.792 0 1.001-.352 1.353-1.254l2.585-6.556h-.957l-1.672 4.477-1.727-4.477h-.957l2.189 5.643zm9.261.033c1.298 0 2.222-.825 2.442-1.947h-.913c-.187.726-.803 1.144-1.595 1.144-1.067 0-1.738-.748-1.771-1.815v-.077h4.356c.011-.132.022-.264.022-.385-.044-1.661-1.078-2.662-2.662-2.662-1.584 0-2.662 1.166-2.662 2.871 0 1.716 1.1 2.871 2.783 2.871zm-1.782-3.443c.088-.913.847-1.507 1.672-1.507.935 0 1.595.539 1.683 1.507h-3.355zm9.774-1.375c-.341-.539-.979-.924-1.925-.924-1.551 0-2.695 1.155-2.695 2.871 0 1.826 1.144 2.871 2.695 2.871.946 0 1.551-.451 1.925-.968V15.2h.902V7.39h-.781l-.121.858zm-1.837 4.015c-1.111 0-1.859-.847-1.859-2.068s.748-2.068 1.859-2.068c1.1 0 1.848.858 1.848 2.09 0 1.199-.748 2.046-1.848 2.046zm7.895-2.068c0 1.265-.616 2.046-1.639 2.046-.935 0-1.463-.616-1.463-1.782V7.39h-.902v3.124c0 1.859.979 2.552 2.211 2.552.924 0 1.463-.396 1.793-.814l.121.748h.781V7.39h-.902v2.805zm2.594-3.751c.33 0 .583-.242.583-.583a.567.567 0 00-.583-.583.567.567 0 00-.583.583c0 .341.253.583.583.583zM457.797 13h.902V7.39h-.902V13zm3.677 0h1.089l2.101-5.61h-.946l-1.683 4.587-1.694-4.587h-.968l2.101 5.61zm8.556-.825c-.253 0-.363-.077-.363-.374V9.348c0-1.309-.825-2.024-2.255-2.024-1.353 0-2.244.649-2.376 1.749h.902c.11-.572.638-.946 1.43-.946.88 0 1.397.44 1.397 1.166v.385h-1.65c-1.474 0-2.255.627-2.255 1.749 0 1.023.836 1.639 2.068 1.639.968 0 1.529-.429 1.881-.935.011.55.264.869 1.012.869h.495v-.825h-.286zm-1.265-1.463c0 .935-.649 1.584-1.771 1.584-.748 0-1.221-.374-1.221-.924 0-.638.451-.935 1.254-.935h1.738v.275zM471.01 13h.902V5.3h-.902V13zm4.722.066c1.298 0 2.222-.825 2.442-1.947h-.913c-.187.726-.803 1.144-1.595 1.144-1.067 0-1.738-.748-1.771-1.815v-.077h4.356c.011-.132.022-.264.022-.385-.044-1.661-1.078-2.662-2.662-2.662-1.584 0-2.662 1.166-2.662 2.871 0 1.716 1.1 2.871 2.783 2.871zm-1.782-3.443c.088-.913.847-1.507 1.672-1.507.935 0 1.595.539 1.683 1.507h-3.355zm8.103-2.299c-.946 0-1.518.396-1.848.825l-.121-.759h-.781V13h.902v-2.805c0-1.265.638-2.046 1.694-2.046.979 0 1.518.616 1.518 1.782V13h.902V9.876c0-1.859-1.001-2.552-2.266-2.552zm3.834 4.213c0 .99.385 1.463 1.463 1.463h.979v-.825h-.891c-.484 0-.649-.176-.649-.649V8.215h1.452V7.39h-1.452V5.817h-.902V7.39h-1.012v.825h1.012v3.322zm2.848-6.567c1.232 1.606 1.694 3.047 1.694 4.73 0 1.672-.473 3.113-1.694 4.73h.99c1.133-1.474 1.595-3.069 1.595-4.73 0-1.694-.473-3.267-1.595-4.73h-.99zm3.606 7.48c0 .374.264.616.627.616s.627-.242.627-.616-.264-.616-.627-.616-.627.242-.627.616z" fill="#000"/></svg>