<svg width="77" height="16" viewBox="0 0 77 16" fill="none" xmlns="http://www.w3.org/2000/svg"><rect width="77" height="16" rx="8" fill="#000"/><path d="M10.16 6.04h1.816V11h.696V6.04h1.816V5.4H10.16v.64zm7.95 4.36c-.183 0-.263-.056-.263-.272V8.344c0-.952-.6-1.472-1.64-1.472-.984 0-1.632.472-1.728 1.272h.656c.08-.416.464-.688 1.04-.688.64 0 1.016.32 1.016.848v.28h-1.2c-1.072 0-1.64.456-1.64 1.272 0 .744.608 1.192 1.504 1.192.704 0 1.112-.312 1.368-.68.008.4.192.632.736.632h.36v-.6h-.208zm-.92-1.064c0 .68-.471 1.152-1.287 1.152-.544 0-.888-.272-.888-.672 0-.464.328-.68.912-.68h1.264v.2zM18.824 11h.656V9.928l.824-.848L21.655 11h.792l-1.704-2.392 1.592-1.688h-.808l-2.048 2.168V5.4h-.656V11zm5.732.048c.944 0 1.616-.6 1.776-1.416h-.664c-.136.528-.584.832-1.16.832-.776 0-1.264-.544-1.288-1.32v-.056h3.168c.008-.096.016-.192.016-.28-.032-1.208-.784-1.936-1.936-1.936S22.53 7.72 22.53 8.96c0 1.248.8 2.088 2.024 2.088zm-1.296-2.504a1.208 1.208 0 011.216-1.096c.68 0 1.16.392 1.224 1.096h-2.44zm9.594 1.856c-.184 0-.264-.056-.264-.272V8.344c0-.952-.6-1.472-1.64-1.472-.984 0-1.632.472-1.728 1.272h.656c.08-.416.464-.688 1.04-.688.64 0 1.016.32 1.016.848v.28h-1.2c-1.072 0-1.64.456-1.64 1.272 0 .744.608 1.192 1.504 1.192.704 0 1.112-.312 1.368-.68.008.4.192.632.736.632h.36v-.6h-.208zm-.92-1.064c0 .68-.472 1.152-1.288 1.152-.544 0-.888-.272-.888-.672 0-.464.328-.68.912-.68h1.264v.2zm4.801-1.792c-.248-.392-.712-.672-1.4-.672-1.128 0-1.96.84-1.96 2.088 0 1.328.832 2.088 1.96 2.088a1.65 1.65 0 001.4-.704l.088.656h.568V5.4h-.656v2.144zm-1.336 2.92c-.808 0-1.352-.616-1.352-1.504s.544-1.504 1.352-1.504c.8 0 1.344.624 1.344 1.52 0 .872-.544 1.488-1.344 1.488zm4.006.536h.792l1.528-4.08h-.688l-1.224 3.336L38.58 6.92h-.704L39.404 11zm6.222-.6c-.184 0-.264-.056-.264-.272V8.344c0-.952-.6-1.472-1.64-1.472-.984 0-1.632.472-1.728 1.272h.656c.08-.416.464-.688 1.04-.688.64 0 1.016.32 1.016.848v.28h-1.2c-1.072 0-1.64.456-1.64 1.272 0 .744.608 1.192 1.504 1.192.704 0 1.112-.312 1.368-.68.008.4.192.632.736.632h.36v-.6h-.208zm-.92-1.064c0 .68-.472 1.152-1.288 1.152-.544 0-.888-.272-.888-.672 0-.464.328-.68.912-.68h1.264v.2zm3.633-2.464c-.688 0-1.104.288-1.344.6l-.088-.552h-.568V11h.656V8.96c0-.92.464-1.488 1.232-1.488.712 0 1.104.448 1.104 1.296V11h.656V8.728c0-1.352-.728-1.856-1.648-1.856zm2.788 3.064c0 .72.28 1.064 1.064 1.064h.712v-.6h-.648c-.352 0-.472-.128-.472-.472V7.52h1.056v-.6h-1.056V5.776h-.656V6.92h-.736v.6h.736v2.416zm5.89.464c-.184 0-.264-.056-.264-.272V8.344c0-.952-.6-1.472-1.64-1.472-.984 0-1.632.472-1.728 1.272h.656c.08-.416.464-.688 1.04-.688.64 0 1.016.32 1.016.848v.28h-1.2c-1.072 0-1.64.456-1.64 1.272 0 .744.608 1.192 1.504 1.192.704 0 1.112-.312 1.368-.68.008.4.192.632.736.632h.36v-.6h-.208zm-.92-1.064c0 .68-.472 1.152-1.288 1.152-.544 0-.888-.272-.888-.672 0-.464.328-.68.912-.68h1.264v.2zm4.848-1.712c-.256-.456-.712-.752-1.4-.752-1.128 0-1.96.84-1.96 2.088 0 1.328.832 2.088 1.96 2.088.688 0 1.128-.288 1.4-.752v.48c0 .888-.464 1.288-1.32 1.288-.68 0-1.136-.288-1.248-.8h-.672c.104.896.832 1.384 1.872 1.384 1.4 0 2.024-.672 2.024-1.848V6.92h-.568l-.088.704zm-1.336 2.84c-.808 0-1.352-.616-1.352-1.504s.544-1.504 1.352-1.504c.8 0 1.344.624 1.344 1.52 0 .872-.544 1.488-1.344 1.488zm4.766.584c.944 0 1.616-.6 1.776-1.416h-.664c-.136.528-.584.832-1.16.832-.776 0-1.264-.544-1.288-1.32v-.056h3.168c.008-.096.016-.192.016-.28-.032-1.208-.784-1.936-1.936-1.936S62.35 7.72 62.35 8.96c0 1.248.8 2.088 2.024 2.088zm-1.296-2.504a1.208 1.208 0 011.216-1.096c.68 0 1.16.392 1.224 1.096h-2.44z" fill="#fff"/></svg>