<svg width="139" height="72" viewBox="0 0 139 72" fill="none" xmlns="http://www.w3.org/2000/svg"><path d="M4.83 17h3.105l3.243-11.845L14.467 17h3.082L22.172.9h-2.714l-3.45 12.742L12.512.9h-2.507L6.417 13.642 2.99.877.253.9 4.83 17zM24.878 3.568c.85 0 1.518-.621 1.518-1.495 0-.874-.667-1.495-1.518-1.495s-1.518.621-1.518 1.495c0 .874.667 1.495 1.518 1.495zM23.613 17h2.484V5.224h-2.484V17zm4.919 0h2.483V.9h-2.483V17zm4.918 0h2.484V.9H33.45V17zm18.05.138c3.748 0 6.485-2.208 6.991-5.612h-2.737c-.506 2.047-2.047 3.289-4.278 3.289-3.036 0-4.876-2.438-4.876-5.865 0-3.45 1.886-5.865 4.945-5.865 2.185 0 3.703 1.265 4.232 3.289h2.737C57.985 2.97 55.34.762 51.66.762c-4.76 0-7.774 3.289-7.774 8.188 0 4.945 2.921 8.188 7.613 8.188zM66.612 5.086c-1.84 0-2.967.828-3.703 1.84V.9h-2.484V17h2.484v-5.957c0-2.369 1.196-3.818 3.151-3.818 1.84 0 2.829 1.196 2.829 3.427V17h2.484v-6.555c0-3.933-2.139-5.359-4.761-5.359zm8.285-1.518c.851 0 1.518-.621 1.518-1.495 0-.874-.667-1.495-1.518-1.495-.85 0-1.518.621-1.518 1.495 0 .874.667 1.495 1.518 1.495zM73.633 17h2.484V5.224h-2.484V17zM84.762 5.086c-1.909 0-3.036.759-3.772 1.679l-.276-1.541h-2.162V17h2.484v-5.934c0-2.392 1.173-3.841 3.151-3.841 1.863 0 2.806 1.196 2.806 3.427V17H89.5v-6.555c0-3.933-2.139-5.359-4.738-5.359zm17.761 9.752c-.506 0-.759-.161-.759-.759V9.364c0-2.783-1.794-4.278-4.922-4.278-2.967 0-4.945 1.426-5.198 3.726h2.438c.184-1.035 1.173-1.725 2.645-1.725 1.633 0 2.576.805 2.576 2.116v.713h-2.967c-3.289 0-5.037 1.357-5.037 3.772 0 2.185 1.794 3.45 4.37 3.45 1.909 0 3.105-.828 3.887-2.024 0 1.173.552 1.886 2.162 1.886h1.311v-2.162h-.506zm-3.22-2.668c-.023 1.817-1.219 3.036-3.289 3.036-1.357 0-2.185-.69-2.185-1.679 0-1.196.851-1.771 2.392-1.771h3.082v.414zM104.971.762c-1.058 0-1.748.69-1.748 1.564 0 .966.598 1.472 1.357 1.472.276 0 .552-.092.759-.253.023.115.023.207.023.322 0 .805-.575 1.702-2.024 1.702v1.357c2.277-.023 3.703-1.288 3.703-3.519 0-1.495-.805-2.645-2.07-2.645zm3.105 12.351c.069 2.553 2.231 4.025 5.382 4.025 2.852 0 4.991-1.426 4.991-3.68 0-2.622-2.185-3.174-4.876-3.496-1.702-.184-2.829-.322-2.829-1.426 0-.943.966-1.541 2.438-1.541 1.472 0 2.484.759 2.622 1.84h2.438c-.161-2.415-2.208-3.749-5.106-3.749-2.829-.023-4.83 1.426-4.83 3.657 0 2.438 2.116 3.013 4.807 3.335 1.817.23 2.898.322 2.898 1.587 0 .943-1.012 1.541-2.553 1.541-1.794 0-2.852-.874-2.944-2.093h-2.438zM7.176 30.224c-1.932 0-2.875.782-3.473 1.771l-.276-1.771H1.219V42h2.484v-5.911c0-1.817.713-3.542 2.921-3.542h1.104v-2.323h-.552zm7.111 11.914c2.921 0 4.9-1.771 5.313-4.094h-2.484c-.345 1.311-1.448 2.07-2.966 2.07-1.956 0-3.22-1.311-3.29-3.312v-.161h8.878c.047-.322.07-.644.07-.943-.07-3.45-2.346-5.612-5.75-5.612-3.473 0-5.797 2.415-5.797 6.049 0 3.611 2.324 6.003 6.027 6.003zm-3.335-7.314c.184-1.679 1.541-2.737 3.129-2.737 1.725 0 2.944.989 3.15 2.737h-6.279zm16.43 7.314c3.588 0 6.003-2.415 6.003-6.026 0-3.588-2.415-6.026-6.003-6.026s-6.003 2.438-6.003 6.026c0 3.611 2.415 6.026 6.003 6.026zm0-2.116c-2.093 0-3.45-1.633-3.45-3.91s1.357-3.91 3.45-3.91 3.473 1.633 3.473 3.91-1.38 3.91-3.473 3.91zm14.302-9.936c-1.84 0-3.059.851-3.84 1.886l-.3-1.748h-2.162V46.6h2.484v-6.256c.736 1.058 2.001 1.794 3.818 1.794 3.22 0 5.566-2.392 5.566-6.026 0-3.772-2.346-6.026-5.566-6.026zm-.414 9.959c-2.07 0-3.427-1.633-3.427-3.979 0-2.277 1.357-3.864 3.427-3.864 2.07 0 3.45 1.587 3.45 3.91 0 2.3-1.38 3.933-3.45 3.933zm13.56 2.093c2.92 0 4.898-1.771 5.313-4.094h-2.485c-.345 1.311-1.449 2.07-2.967 2.07-1.955 0-3.22-1.311-3.288-3.312v-.161h8.878c.046-.322.069-.644.069-.943-.07-3.45-2.346-5.612-5.75-5.612-3.474 0-5.797 2.415-5.797 6.049 0 3.611 2.324 6.003 6.027 6.003zm-3.335-7.314c.184-1.679 1.54-2.737 3.128-2.737 1.724 0 2.944.989 3.15 2.737h-6.279zm17.073-4.738c-1.91 0-3.036.759-3.772 1.679l-.276-1.541h-2.162V42h2.484v-5.934c0-2.392 1.173-3.841 3.15-3.841 1.864 0 2.807 1.196 2.807 3.427V42h2.507v-6.555c0-3.933-2.14-5.359-4.738-5.359zm8.262-1.518c.85 0 1.518-.621 1.518-1.495 0-.874-.667-1.495-1.518-1.495s-1.518.621-1.518 1.495c0 .874.667 1.495 1.518 1.495zM75.565 42h2.484V30.224h-2.484V42zm11.129-11.914c-1.91 0-3.036.759-3.772 1.679l-.276-1.541h-2.162V42h2.484v-5.934c0-2.392 1.173-3.841 3.15-3.841 1.864 0 2.807 1.196 2.807 3.427V42h2.507v-6.555c0-3.933-2.14-5.359-4.738-5.359zm15.99 1.978c-.759-1.173-2.024-1.978-3.864-1.978-3.197 0-5.566 2.369-5.566 5.98 0 3.749 2.369 5.98 5.566 5.98 1.84 0 3.059-.759 3.841-1.932v1.311c0 2.254-1.219 3.289-3.381 3.289-1.748 0-2.898-.759-3.197-2.07h-2.53c.23 2.645 2.415 4.094 5.543 4.094 4.232 0 6.026-2.024 6.026-5.221V30.224h-2.162l-.276 1.84zm-3.45 7.889c-2.07 0-3.427-1.587-3.427-3.887 0-2.277 1.357-3.887 3.427-3.887 2.07 0 3.427 1.61 3.427 3.933 0 2.254-1.357 3.841-3.427 3.841zM7.52 55.086c-1.817 0-3.036.828-3.818 1.886V50.9H1.219V67h2.162l.299-1.702c.736 1.058 2.001 1.84 3.841 1.84 3.22 0 5.566-2.415 5.566-6.026 0-3.795-2.346-6.026-5.566-6.026zm-.414 9.959c-2.07 0-3.427-1.633-3.427-3.956 0-2.277 1.357-3.887 3.427-3.887 2.07 0 3.45 1.61 3.45 3.91 0 2.323-1.38 3.933-3.45 3.933zm13.536 2.093c3.588 0 6.003-2.415 6.003-6.026 0-3.588-2.415-6.026-6.003-6.026s-6.003 2.438-6.003 6.026c0 3.611 2.415 6.026 6.003 6.026zm0-2.116c-2.093 0-3.45-1.633-3.45-3.91s1.357-3.91 3.45-3.91 3.473 1.633 3.473 3.91-1.38 3.91-3.473 3.91zm13.567 2.116c3.588 0 6.003-2.415 6.003-6.026 0-3.588-2.415-6.026-6.003-6.026s-6.003 2.438-6.003 6.026c0 3.611 2.415 6.026 6.003 6.026zm0-2.116c-2.093 0-3.45-1.633-3.45-3.91s1.357-3.91 3.45-3.91 3.473 1.633 3.473 3.91-1.38 3.91-3.473 3.91zm7.427-1.909c.069 2.553 2.23 4.025 5.382 4.025 2.852 0 4.99-1.426 4.99-3.68 0-2.622-2.184-3.174-4.875-3.496-1.702-.184-2.83-.322-2.83-1.426 0-.943.967-1.541 2.439-1.541s2.484.759 2.622 1.84h2.438c-.161-2.415-2.208-3.749-5.106-3.749-2.83-.023-4.83 1.426-4.83 3.657 0 2.438 2.116 3.013 4.807 3.335 1.817.23 2.898.322 2.898 1.587 0 .943-1.012 1.541-2.553 1.541-1.794 0-2.852-.874-2.944-2.093h-2.438zm13.149.69c0 2.139.966 3.197 3.22 3.197h2.3v-2.185h-1.748c-.943 0-1.265-.345-1.265-1.265v-6.141h2.875v-2.185h-2.875v-3.289h-2.507v3.289h-2.047v2.185h2.047v6.394zM69.473 67l1.495-3.979h6.6L79.088 67h2.829l-6.003-16.1h-3.151L66.736 67h2.737zm4.784-13.248l2.576 7.015h-5.13l2.554-7.015zm15.359 1.334c-1.84 0-3.06.851-3.841 1.886l-.3-1.748h-2.161V71.6h2.484v-6.256c.736 1.058 2 1.794 3.818 1.794 3.22 0 5.566-2.392 5.566-6.026 0-3.772-2.346-6.026-5.566-6.026zm-.414 9.959c-2.07 0-3.427-1.633-3.427-3.979 0-2.277 1.357-3.864 3.427-3.864 2.07 0 3.45 1.587 3.45 3.91 0 2.3-1.38 3.933-3.45 3.933zm14.272-9.959c-1.84 0-3.059.851-3.84 1.886l-.3-1.748h-2.162V71.6h2.484v-6.256c.736 1.058 2.001 1.794 3.818 1.794 3.22 0 5.566-2.392 5.566-6.026 0-3.772-2.346-6.026-5.566-6.026zm-.414 9.959c-2.07 0-3.427-1.633-3.427-3.979 0-2.277 1.357-3.864 3.427-3.864 2.07 0 3.45 1.587 3.45 3.91 0 2.3-1.38 3.933-3.45 3.933zM111.031 67h2.484V50.9h-2.484V67zm10.507.138c2.921 0 4.899-1.771 5.313-4.094h-2.484c-.345 1.311-1.449 2.07-2.967 2.07-1.955 0-3.22-1.311-3.289-3.312v-.161h8.878c.046-.322.069-.644.069-.943-.069-3.45-2.346-5.612-5.75-5.612-3.473 0-5.796 2.415-5.796 6.049 0 3.611 2.323 6.003 6.026 6.003zm-3.335-7.314c.184-1.679 1.541-2.737 3.128-2.737 1.725 0 2.944.989 3.151 2.737h-6.279zm12.1-3.657c0-1.909 1.15-3.197 2.921-3.197 1.541 0 2.576.92 2.576 2.231 0 1.104-.598 1.84-1.633 2.53-1.38.897-2.461 1.656-2.461 3.519v.736h2.346v-.46c0-1.15.782-1.748 2.024-2.599 1.196-.851 2.3-1.863 2.3-3.979 0-2.415-1.978-4.186-5.175-4.186-3.427 0-5.428 2.415-5.428 5.405h2.53zm1.058 9.43c0 .92.69 1.541 1.587 1.541s1.564-.621 1.564-1.541c0-.92-.667-1.541-1.564-1.541s-1.587.621-1.587 1.541z" fill="#000"/></svg>