<svg width="126" height="38" viewBox="0 0 126 38" fill="none" xmlns="http://www.w3.org/2000/svg"><rect x=".22" y=".554" width="125" height="37" rx="18.5" fill="#123B63"/><path d="M26.394 24.554V14.448h1.19v9.074h5.103v1.032h-6.293zm10.81.13c-1.128 0-2.017-.326-2.667-.976-.65-.659-.975-1.572-.975-2.737 0-.756.144-1.41.43-1.964a3.121 3.121 0 011.204-1.305c.516-.315 1.109-.473 1.778-.473.66 0 1.214.139 1.663.416.449.277.793.674 1.032 1.19.239.506.358 1.108.358 1.806v.43h-5.576v-.731h4.816l-.243.186c0-.764-.172-1.362-.516-1.792-.344-.43-.856-.645-1.534-.645-.717 0-1.276.253-1.677.76-.402.497-.602 1.17-.602 2.021V21c0 .898.22 1.58.659 2.049.45.459 1.075.688 1.878.688.43 0 .831-.062 1.204-.186a3.383 3.383 0 001.09-.645l.4.817c-.315.306-.716.544-1.203.716a4.687 4.687 0 01-1.52.244zm7.338 0c-.64 0-1.2-.149-1.677-.445a3.08 3.08 0 01-1.118-1.29c-.258-.555-.387-1.219-.387-1.993 0-.784.129-1.453.387-2.007.267-.554.64-.98 1.118-1.276.478-.296 1.037-.444 1.677-.444.65 0 1.209.167 1.677.502.478.325.793.77.946 1.333h-.172l.158-1.706h1.118l-.086.846c-.02.277-.029.55-.029.817v5.533h-1.16v-1.691h.157a2.285 2.285 0 01-.946 1.333c-.478.325-1.032.487-1.663.487zm.23-.947c.687 0 1.232-.234 1.634-.702.4-.478.602-1.171.602-2.079 0-.917-.201-1.61-.602-2.078-.402-.478-.947-.717-1.635-.717-.678 0-1.223.239-1.634.717-.401.468-.602 1.16-.602 2.078 0 .908.2 1.6.602 2.079.411.468.956.702 1.634.702zm5.599.817v-5.461c0-.287-.01-.579-.029-.875a12.18 12.18 0 00-.057-.86h1.118l.143 1.749-.2.014c.095-.43.262-.783.501-1.06.24-.278.521-.483.846-.617a2.494 2.494 0 011.018-.215c.143 0 .267.005.372.014.115.01.22.034.316.072l-.015 1.032a1.68 1.68 0 00-.401-.086 2.47 2.47 0 00-.401-.028c-.42 0-.789.1-1.104.3-.306.201-.54.46-.703.775-.152.315-.229.65-.229 1.003v4.243h-1.175zm5.236 0v-5.533c0-.268-.014-.54-.043-.817-.02-.287-.043-.569-.072-.846h1.118l.144 1.577h-.172c.21-.554.544-.975 1.003-1.262.468-.296 1.008-.444 1.62-.444.85 0 1.49.23 1.92.688.44.45.66 1.161.66 2.136v4.501h-1.16v-4.43c0-.678-.14-1.17-.417-1.476-.267-.315-.688-.473-1.261-.473-.669 0-1.2.206-1.591.617-.392.41-.588.96-.588 1.648v4.114h-1.161zm12.137 0v-5.533c0-.268-.014-.54-.043-.817a23.14 23.14 0 00-.072-.846h1.118l.144 1.577h-.172c.19-.545.492-.965.903-1.262.42-.296.927-.444 1.52-.444.602 0 1.089.143 1.462.43.382.287.64.731.774 1.333h-.215c.181-.544.501-.975.96-1.29.459-.315.994-.473 1.606-.473.793 0 1.39.23 1.791.688.402.45.603 1.161.603 2.136v4.501H76.96v-4.43c0-.678-.12-1.17-.358-1.476-.239-.315-.621-.473-1.147-.473-.602 0-1.08.21-1.433.63-.344.412-.516.966-.516 1.664v4.085h-1.162v-4.43c0-.678-.119-1.17-.358-1.476-.239-.315-.621-.473-1.147-.473-.602 0-1.075.21-1.419.63-.344.412-.516.966-.516 1.664v4.085h-1.161zm15.538.13c-.688 0-1.29-.149-1.806-.445a3.076 3.076 0 01-1.176-1.29c-.277-.564-.415-1.228-.415-1.993 0-.774.138-1.438.415-1.992.278-.555.67-.98 1.176-1.276.516-.306 1.118-.459 1.806-.459.698 0 1.3.153 1.806.459.516.296.913.721 1.19 1.276.287.554.43 1.218.43 1.992 0 .765-.143 1.429-.43 1.993a3.049 3.049 0 01-1.19 1.29c-.506.296-1.108.444-1.806.444zm0-.947c.688 0 1.233-.234 1.634-.702.402-.478.602-1.171.602-2.079 0-.917-.205-1.61-.616-2.078-.401-.478-.941-.717-1.62-.717-.678 0-1.218.239-1.62.717-.401.468-.602 1.16-.602 2.078 0 .908.2 1.6.602 2.079.402.468.941.702 1.62.702zm5.208.817v-5.461c0-.287-.01-.579-.029-.875-.01-.296-.029-.583-.057-.86h1.118l.143 1.749-.2.014c.095-.43.262-.783.501-1.06.24-.278.521-.483.846-.617a2.494 2.494 0 011.018-.215c.143 0 .267.005.373.014.114.01.22.034.315.072l-.014 1.032a1.683 1.683 0 00-.402-.086 2.471 2.471 0 00-.401-.028c-.42 0-.789.1-1.104.3-.306.201-.54.46-.702.775-.153.315-.23.65-.23 1.003v4.243H88.49zm8.349.13c-1.128 0-2.017-.326-2.667-.976-.65-.659-.974-1.572-.974-2.737 0-.756.143-1.41.43-1.964a3.121 3.121 0 011.204-1.305c.516-.315 1.108-.473 1.777-.473.66 0 1.214.139 1.663.416.45.277.793.674 1.032 1.19.24.506.359 1.108.359 1.806v.43h-5.577v-.731h4.817l-.244.186c0-.764-.172-1.362-.516-1.792-.344-.43-.855-.645-1.534-.645-.716 0-1.275.253-1.677.76-.401.497-.602 1.17-.602 2.021V21c0 .898.22 1.58.66 2.049.449.459 1.075.688 1.877.688.43 0 .832-.062 1.204-.186a3.383 3.383 0 001.09-.645l.401.817c-.315.306-.716.544-1.204.716a4.687 4.687 0 01-1.52.244z" fill="#fff"/></svg>