<svg width="167" height="39" viewBox="0 0 167 39" fill="none" xmlns="http://www.w3.org/2000/svg"><path d="M1.314 13l1.512-3.852h5.796L10.134 13h1.044L6.318.4H5.184L.306 13h1.008zm4.41-11.52l2.61 6.768h-5.22l2.61-6.768zM16.77 3.766c-1.673 0-2.753.864-3.275 2.052l-.144-1.944h-.793V13h.918V8.5c0-2.376 1.206-3.888 3.15-3.888 1.764 0 2.826 1.152 2.826 3.312V13h.918V7.888c0-2.88-1.53-4.122-3.6-4.122zm12.944 2.16c-.558-1.296-1.782-2.16-3.492-2.16-2.502 0-4.302 1.908-4.302 4.662 0 2.88 1.8 4.68 4.302 4.68 1.71 0 2.898-.918 3.474-2.196L29.84 13h.792V.4h-.918v5.526zm-3.42 6.354c-2.034 0-3.438-1.584-3.438-3.852 0-2.25 1.404-3.852 3.438-3.852 2.034 0 3.438 1.602 3.438 3.87 0 2.25-1.404 3.834-3.438 3.834zM47.83 3.766c-1.675 0-2.755.936-3.277 2.286-.431-1.512-1.566-2.286-3.006-2.286-1.566 0-2.502.918-2.97 2.052l-.144-1.944h-.791V13h.917V8.356c0-2.232 1.08-3.744 2.826-3.744 1.584 0 2.575 1.116 2.575 3.222V13h.918V8.032c.053-2.088 1.134-3.42 2.843-3.42 1.584 0 2.538 1.062 2.538 3.132V13h.937V7.708c0-2.754-1.459-3.942-3.367-3.942zm13.431 8.388c-.54 0-.81-.18-.81-.882V7.024c0-2.088-1.278-3.258-3.564-3.258-2.088 0-3.474 1.008-3.708 2.664h.918c.234-1.116 1.206-1.854 2.754-1.854 1.71 0 2.682.9 2.682 2.412v.792h-3.096c-2.34 0-3.6 1.008-3.6 2.718 0 1.62 1.278 2.61 3.222 2.61 1.854 0 2.952-.846 3.51-1.98v.324c-.036 1.08.414 1.548 1.494 1.548h.54v-.846h-.342zM59.534 9.31c0 1.746-1.242 3.006-3.402 3.006-1.458 0-2.358-.738-2.358-1.872 0-1.206.9-1.872 2.592-1.872h3.168v.738zM62.832 13h.918v-2.466l2.142-2.196L69.384 13H70.5l-3.978-5.328 3.672-3.798H69.06l-5.31 5.472V.4h-.918V13zm12.434.108c1.998 0 3.528-1.296 3.924-3.132h-.936c-.36 1.422-1.566 2.304-3.06 2.304-2.034 0-3.312-1.548-3.348-3.672v-.162h7.452c0-.126.018-.27.018-.378-.09-2.718-1.764-4.302-4.212-4.302-2.502 0-4.212 1.908-4.212 4.608 0 2.862 1.782 4.734 4.374 4.734zm-3.348-5.436c.144-1.854 1.53-3.096 3.204-3.096 1.782 0 3.06 1.098 3.204 3.096h-6.408zM88.718 13l-.594 1.476c-.414 1.008-.576 1.278-1.512 1.278H85.46v.846h1.404c1.224 0 1.512-.468 2.088-1.908l4.374-10.818h-.99l-3.114 7.938-3.168-7.938h-.99L88.718 13zm9.488.108c2.574 0 4.392-1.908 4.392-4.68 0-2.754-1.818-4.662-4.392-4.662-2.574 0-4.374 1.908-4.374 4.662 0 2.772 1.8 4.68 4.374 4.68zm0-.828c-2.034 0-3.438-1.584-3.438-3.852 0-2.25 1.404-3.852 3.438-3.852 2.034 0 3.438 1.602 3.438 3.852 0 2.268-1.404 3.852-3.438 3.852zm12.84-3.924c0 2.394-1.188 3.906-3.078 3.906-1.692 0-2.736-1.152-2.736-3.33V3.874h-.918v5.112c0 2.862 1.494 4.122 3.51 4.122 1.62 0 2.682-.864 3.204-2.034l.126 1.926h.81V3.874h-.918v4.482zm6.805-4.482c-1.692 0-2.412.81-2.79 1.818l-.144-1.818h-.792V13h.918V8.374c0-1.854.486-3.618 2.628-3.618h.666v-.882h-.486zm16.886-.108c-1.674 0-2.754.936-3.276 2.286-.432-1.512-1.566-2.286-3.006-2.286-1.566 0-2.502.918-2.97 2.052l-.144-1.944h-.792V13h.918V8.356c0-2.232 1.08-3.744 2.826-3.744 1.584 0 2.574 1.116 2.574 3.222V13h.918V8.032c.054-2.088 1.134-3.42 2.844-3.42 1.584 0 2.538 1.062 2.538 3.132V13h.936V7.708c0-2.754-1.458-3.942-3.366-3.942zm9.295 9.342c2.574 0 4.392-1.908 4.392-4.68 0-2.754-1.818-4.662-4.392-4.662-2.574 0-4.374 1.908-4.374 4.662 0 2.772 1.8 4.68 4.374 4.68zm0-.828c-2.034 0-3.438-1.584-3.438-3.852 0-2.25 1.404-3.852 3.438-3.852 2.034 0 3.438 1.602 3.438 3.852 0 2.268-1.404 3.852-3.438 3.852zm8.475.72h1.098l3.564-9.126h-.954l-3.132 8.064-3.15-8.064h-.99L152.507 13zm9.56.108c1.998 0 3.528-1.296 3.924-3.132h-.936c-.36 1.422-1.566 2.304-3.06 2.304-2.034 0-3.312-1.548-3.348-3.672v-.162h7.452c0-.126.018-.27.018-.378-.09-2.718-1.764-4.302-4.212-4.302-2.502 0-4.212 1.908-4.212 4.608 0 2.862 1.782 4.734 4.374 4.734zm-3.348-5.436c.144-1.854 1.53-3.096 3.204-3.096 1.782 0 3.06 1.098 3.204 3.096h-6.408zM3.294 38h.99l2.7-7.668L9.558 38h.99l3.24-9.126h-.936l-2.808 8.028-2.61-8.028h-.846l-2.754 8.028-2.664-8.028H.198L3.294 38zm15.99-9.234c-1.71 0-2.772.954-3.294 2.268V25.4h-.918V38h.918v-4.5c0-2.376 1.206-3.888 3.15-3.888 1.746 0 2.826 1.152 2.826 3.312V38h.918v-5.112c0-2.88-1.53-4.122-3.6-4.122zm6.117-1.818c.36 0 .648-.27.648-.648a.634.634 0 00-.648-.648c-.36 0-.648.27-.648.648s.288.648.648.648zM24.933 38h.919v-9.126h-.919V38zm3.077 0h.918V25.4h-.918V38zm7.108.108c1.998 0 3.528-1.296 3.924-3.132h-.936c-.36 1.422-1.566 2.304-3.06 2.304-2.034 0-3.312-1.548-3.348-3.672v-.162h7.452c0-.126.018-.27.018-.378-.09-2.718-1.764-4.302-4.212-4.302-2.502 0-4.212 1.908-4.212 4.608 0 2.862 1.782 4.734 4.374 4.734zm-3.348-5.436c.144-1.854 1.53-3.096 3.204-3.096 1.782 0 3.06 1.098 3.204 3.096H31.77zm18.096 5.436c2.574 0 4.392-1.908 4.392-4.68 0-2.754-1.818-4.662-4.392-4.662-2.574 0-4.374 1.908-4.374 4.662 0 2.772 1.8 4.68 4.374 4.68zm0-.828c-2.034 0-3.438-1.584-3.438-3.852 0-2.25 1.404-3.852 3.438-3.852 2.034 0 3.438 1.602 3.438 3.852 0 2.268-1.404 3.852-3.438 3.852zm6.76-1.404c0 1.458.593 2.124 2.141 2.124H60.1v-.846h-1.26c-.954 0-1.296-.36-1.296-1.296V29.72h2.466v-.846h-2.466v-2.556h-.918v2.556h-1.728v.846h1.728v6.156zm9.082-7.11c-1.71 0-2.772.954-3.294 2.268V25.4h-.918V38h.918v-4.5c0-2.376 1.206-3.888 3.15-3.888 1.746 0 2.826 1.152 2.826 3.312V38h.918v-5.112c0-2.88-1.53-4.122-3.6-4.122zm9.54 9.342c1.999 0 3.529-1.296 3.925-3.132h-.936c-.36 1.422-1.566 2.304-3.06 2.304-2.034 0-3.312-1.548-3.348-3.672v-.162h7.452c0-.126.018-.27.018-.378-.09-2.718-1.764-4.302-4.212-4.302-2.502 0-4.212 1.908-4.212 4.608 0 2.862 1.782 4.734 4.374 4.734zm-3.347-5.436c.144-1.854 1.53-3.096 3.204-3.096 1.782 0 3.06 1.098 3.204 3.096H71.9zm12.938-3.798c-1.692 0-2.412.81-2.79 1.818l-.144-1.818h-.792V38h.918v-4.626c0-1.854.486-3.618 2.628-3.618h.666v-.882h-.486zm1.204 6.318c.072 1.89 1.602 2.916 3.888 2.916 1.962 0 3.546-.99 3.546-2.61 0-1.926-1.692-2.304-3.654-2.574-1.422-.198-2.682-.36-2.682-1.638 0-1.044 1.026-1.728 2.574-1.728 1.458 0 2.502.702 2.664 1.89h.936c-.162-1.782-1.62-2.682-3.6-2.682-2.034-.018-3.492 1.026-3.492 2.592 0 1.836 1.692 2.178 3.564 2.43 1.53.216 2.772.414 2.772 1.764 0 1.08-1.134 1.764-2.628 1.764-1.746 0-2.88-.81-2.952-2.124h-.936zM102.294 38h.99l2.7-7.668L108.558 38h.99l3.24-9.126h-.936l-2.808 8.028-2.61-8.028h-.846l-2.754 8.028-2.664-8.028h-.972L102.294 38zm19.507-.846c-.54 0-.81-.18-.81-.882v-4.248c0-2.088-1.278-3.258-3.564-3.258-2.088 0-3.474 1.008-3.708 2.664h.918c.234-1.116 1.206-1.854 2.754-1.854 1.71 0 2.682.9 2.682 2.412v.792h-3.096c-2.34 0-3.6 1.008-3.6 2.718 0 1.62 1.278 2.61 3.222 2.61 1.854 0 2.952-.846 3.51-1.98v.324c-.036 1.08.414 1.548 1.494 1.548h.54v-.846h-.342zm-1.728-2.844c0 1.746-1.242 3.006-3.402 3.006-1.458 0-2.358-.738-2.358-1.872 0-1.206.9-1.872 2.592-1.872h3.168v.738zm3.766-7.362c.36 0 .648-.27.648-.648a.634.634 0 00-.648-.648c-.36 0-.648.27-.648.648s.288.648.648.648zM123.371 38h.918v-9.126h-.918V38zm3.76-2.124c0 1.458.594 2.124 2.142 2.124h1.332v-.846h-1.26c-.954 0-1.296-.36-1.296-1.296V29.72h2.466v-.846h-2.466v-2.556h-.918v2.556h-1.728v.846h1.728v6.156z" fill="#000"/></svg>