<svg width="254" height="89" viewBox="0 0 254 89" fill="none" xmlns="http://www.w3.org/2000/svg"><path d="M.56 3.256h6.048V20h3.22V3.256h6.048V.4H.56v2.856zm23.27 2.408c-2.352 0-3.5.952-4.228 2.156l-.336-2.156h-2.688V20h3.024v-7.196c0-2.212.868-4.312 3.556-4.312h1.344V5.664h-.672zm15.203 11.704c-.616 0-.924-.196-.924-.924v-5.74c0-3.388-2.184-5.208-5.992-5.208-3.612 0-6.02 1.736-6.328 4.536h2.968c.224-1.26 1.428-2.1 3.22-2.1 1.988 0 3.136.98 3.136 2.576v.868h-3.612c-4.004 0-6.132 1.652-6.132 4.592 0 2.66 2.184 4.2 5.32 4.2 2.324 0 3.78-1.008 4.732-2.464 0 1.428.672 2.296 2.632 2.296h1.596v-2.632h-.616zm-3.92-3.248c-.028 2.212-1.484 3.696-4.004 3.696-1.652 0-2.66-.84-2.66-2.044 0-1.456 1.036-2.156 2.912-2.156h3.752v.504zM52.08 7.652c-.924-1.26-2.464-2.156-4.648-2.156-3.892 0-6.776 2.912-6.776 7.336 0 4.592 2.884 7.336 6.776 7.336 2.268 0 3.752-1.064 4.676-2.324L52.471 20h2.632V.4H52.08v7.252zm-4.144 9.968c-2.52 0-4.172-1.96-4.172-4.788 0-2.8 1.652-4.76 4.172-4.76 2.52 0 4.172 1.96 4.172 4.816 0 2.772-1.652 4.732-4.172 4.732zm16.927 2.548c3.556 0 5.964-2.156 6.468-4.984h-3.024c-.42 1.596-1.764 2.52-3.612 2.52-2.38 0-3.92-1.596-4.004-4.032v-.196h10.808c.056-.392.084-.784.084-1.148-.084-4.2-2.856-6.832-7-6.832-4.228 0-7.056 2.94-7.056 7.364 0 4.396 2.828 7.308 7.336 7.308zm-4.06-8.904c.224-2.044 1.876-3.332 3.808-3.332 2.1 0 3.584 1.204 3.836 3.332h-7.644zm21.425 4.844c0 2.604 1.176 3.892 3.92 3.892h2.8v-2.66h-2.128c-1.148 0-1.54-.42-1.54-1.54V8.324h3.5v-2.66h-3.5V1.66h-3.052v4.004h-2.492v2.66h2.492v7.784zm15.147 4.06c3.556 0 5.964-2.156 6.468-4.984h-3.024c-.42 1.596-1.764 2.52-3.612 2.52-2.38 0-3.92-1.596-4.004-4.032v-.196h10.808c.056-.392.084-.784.084-1.148-.084-4.2-2.856-6.832-7-6.832-4.228 0-7.056 2.94-7.056 7.364 0 4.396 2.828 7.308 7.336 7.308zm-4.06-8.904c.224-2.044 1.876-3.332 3.808-3.332 2.1 0 3.584 1.204 3.836 3.332h-7.644zm19.805 8.904c3.668 0 6.104-2.044 6.664-5.292h-3.192c-.364 1.652-1.596 2.716-3.444 2.716-2.436 0-4.032-1.932-4.032-4.732 0-2.828 1.596-4.788 4.032-4.788 1.876 0 3.08 1.036 3.472 2.716h3.164c-.588-3.248-2.884-5.292-6.58-5.292-4.34 0-7.196 2.94-7.196 7.364 0 4.48 2.772 7.308 7.112 7.308zm16.51-14.672c-2.24 0-3.612 1.008-4.508 2.24V.4h-3.024V20h3.024v-7.252c0-2.884 1.456-4.648 3.836-4.648 2.24 0 3.444 1.456 3.444 4.172V20h3.024v-7.98c0-4.788-2.604-6.524-5.796-6.524zm22.514 14.672c3.556 0 5.964-2.156 6.468-4.984h-3.024c-.42 1.596-1.764 2.52-3.612 2.52-2.38 0-3.92-1.596-4.004-4.032v-.196h10.808c.056-.392.084-.784.084-1.148-.084-4.2-2.856-6.832-7-6.832-4.228 0-7.056 2.94-7.056 7.364 0 4.396 2.828 7.308 7.336 7.308zm-4.06-8.904c.224-2.044 1.876-3.332 3.808-3.332 2.1 0 3.584 1.204 3.836 3.332h-7.644zm26.329 6.104c-.616 0-.924-.196-.924-.924v-5.74c0-3.388-2.184-5.208-5.992-5.208-3.612 0-6.02 1.736-6.328 4.536h2.968c.224-1.26 1.428-2.1 3.22-2.1 1.988 0 3.136.98 3.136 2.576v.868h-3.612c-4.004 0-6.132 1.652-6.132 4.592 0 2.66 2.184 4.2 5.32 4.2 2.324 0 3.78-1.008 4.732-2.464 0 1.428.672 2.296 2.632 2.296h1.596v-2.632h-.616zm-3.92-3.248c-.028 2.212-1.484 3.696-4.004 3.696-1.652 0-2.66-.84-2.66-2.044 0-1.456 1.036-2.156 2.912-2.156h3.752v.504zm13.435-8.456c-2.352 0-3.5.952-4.228 2.156l-.336-2.156h-2.688V20h3.024v-7.196c0-2.212.868-4.312 3.556-4.312h1.344V5.664h-.672zm10.097-.168c-2.324 0-3.696.924-4.592 2.044l-.336-1.876h-2.632V20h3.024v-7.224c0-2.912 1.428-4.676 3.836-4.676 2.268 0 3.416 1.456 3.416 4.172V20h3.052v-7.98c0-4.788-2.604-6.524-5.768-6.524zm10.059-1.848c1.036 0 1.848-.756 1.848-1.82s-.812-1.82-1.848-1.82-1.848.756-1.848 1.82.812 1.82 1.848 1.82zM202.543 20h3.024V5.664h-3.024V20zm13.548-14.504c-2.324 0-3.696.924-4.592 2.044l-.336-1.876h-2.632V20h3.024v-7.224c0-2.912 1.428-4.676 3.836-4.676 2.268 0 3.416 1.456 3.416 4.172V20h3.052v-7.98c0-4.788-2.604-6.524-5.768-6.524zm19.466 2.408c-.924-1.428-2.464-2.408-4.704-2.408-3.892 0-6.776 2.884-6.776 7.28 0 4.564 2.884 7.28 6.776 7.28 2.24 0 3.724-.924 4.676-2.352V19.3c0 2.744-1.484 4.004-4.116 4.004-2.128 0-3.528-.924-3.892-2.52h-3.08c.28 3.22 2.94 4.984 6.748 4.984 5.152 0 7.336-2.464 7.336-6.356V5.664h-2.632l-.336 2.24zm-4.2 9.604c-2.52 0-4.172-1.932-4.172-4.732 0-2.772 1.652-4.732 4.172-4.732 2.52 0 4.172 1.96 4.172 4.788 0 2.744-1.652 4.676-4.172 4.676zm9.507-2.24c.084 3.108 2.716 4.9 6.552 4.9 3.472 0 6.076-1.736 6.076-4.48 0-3.192-2.66-3.864-5.936-4.256-2.072-.224-3.444-.392-3.444-1.736 0-1.148 1.176-1.876 2.968-1.876s3.024.924 3.192 2.24h2.968c-.196-2.94-2.688-4.564-6.216-4.564-3.444-.028-5.88 1.736-5.88 4.452 0 2.968 2.576 3.668 5.852 4.06 2.212.28 3.528.392 3.528 1.932 0 1.148-1.232 1.876-3.108 1.876-2.184 0-3.472-1.064-3.584-2.548h-2.968zM3.024 37.648c1.036 0 1.848-.756 1.848-1.82s-.812-1.82-1.848-1.82-1.848.756-1.848 1.82.812 1.82 1.848 1.82zM1.484 54h3.024V39.664H1.484V54zm13.548-14.504c-2.324 0-3.696.924-4.592 2.044l-.336-1.876H7.472V54h3.024v-7.224c0-2.912 1.428-4.676 3.836-4.676 2.268 0 3.416 1.456 3.416 4.172V54H20.8v-7.98c0-4.788-2.604-6.524-5.768-6.524zm22.935.168c-2.352 0-3.5.952-4.228 2.156l-.336-2.156h-2.688V54h3.024v-7.196c0-2.212.867-4.312 3.556-4.312h1.343v-2.828h-.671zm8.657 14.504c3.556 0 5.964-2.156 6.468-4.984h-3.024c-.42 1.596-1.764 2.52-3.612 2.52-2.38 0-3.92-1.596-4.004-4.032v-.196H53.26c.056-.392.084-.784.084-1.148-.084-4.2-2.856-6.832-7-6.832-4.228 0-7.056 2.94-7.056 7.364 0 4.396 2.828 7.308 7.336 7.308zm-4.06-8.904c.224-2.044 1.876-3.332 3.808-3.332 2.1 0 3.584 1.204 3.836 3.332h-7.644zm26.329 6.104c-.616 0-.924-.196-.924-.924v-5.74c0-3.388-2.184-5.208-5.992-5.208-3.612 0-6.02 1.736-6.328 4.536h2.968c.224-1.26 1.428-2.1 3.22-2.1 1.988 0 3.136.98 3.136 2.576v.868H61.36c-4.004 0-6.132 1.652-6.132 4.592 0 2.66 2.184 4.2 5.32 4.2 2.324 0 3.78-1.008 4.732-2.464 0 1.428.672 2.296 2.632 2.296h1.596v-2.632h-.616zm-3.92-3.248c-.028 2.212-1.484 3.696-4.004 3.696-1.652 0-2.66-.84-2.66-2.044 0-1.456 1.036-2.156 2.912-2.156h3.752v.504zM71.156 54h3.024V34.4h-3.024V54zm15.34-6.72v-2.492h-9.52v2.492h9.52zm3.551 2.828c0 2.604 1.176 3.892 3.92 3.892h2.8v-2.66H94.64c-1.148 0-1.54-.42-1.54-1.54v-7.476h3.5v-2.66h-3.5V35.66h-3.052v4.004h-2.492v2.66h2.492v7.784zm10.184-12.46c1.036 0 1.848-.756 1.848-1.82s-.812-1.82-1.848-1.82-1.848.756-1.848 1.82.812 1.82 1.848 1.82zM98.691 54h3.024V39.664h-3.024V54zm22.48-14.504c-2.352 0-3.976 1.036-4.9 2.604-.868-1.848-2.548-2.604-4.424-2.604-2.156.028-3.388.98-4.2 2.044l-.336-1.876h-2.632V54h3.024v-7.672c0-2.548 1.288-4.228 3.36-4.228 1.988 0 3.024 1.316 3.024 3.836V54h3.052v-7.756c0-2.576 1.316-4.144 3.388-4.144 1.96 0 2.996 1.316 2.996 3.836V54h3.024v-8.26c0-4.536-2.408-6.244-5.376-6.244zm14.812 14.672c3.556 0 5.964-2.156 6.468-4.984h-3.024c-.42 1.596-1.764 2.52-3.612 2.52-2.38 0-3.92-1.596-4.004-4.032v-.196h10.808c.056-.392.084-.784.084-1.148-.084-4.2-2.856-6.832-7-6.832-4.228 0-7.056 2.94-7.056 7.364 0 4.396 2.828 7.308 7.336 7.308zm-4.06-8.904c.224-2.044 1.876-3.332 3.808-3.332 2.1 0 3.584 1.204 3.836 3.332h-7.644zM14.588 85.368c-.616 0-.924-.196-.924-.924v-5.74c0-3.388-2.184-5.208-5.992-5.208-3.612 0-6.02 1.736-6.328 4.536h2.968c.224-1.26 1.428-2.1 3.22-2.1 1.988 0 3.136.98 3.136 2.576v.868H7.056c-4.004 0-6.132 1.652-6.132 4.592 0 2.66 2.184 4.2 5.32 4.2 2.324 0 3.78-1.008 4.732-2.464 0 1.428.672 2.296 2.632 2.296h1.596v-2.632h-.616zm-3.92-3.248c-.028 2.212-1.484 3.696-4.004 3.696-1.652 0-2.66-.84-2.66-2.044 0-1.456 1.036-2.156 2.912-2.156h3.752v.504zm5.567 1.148c.084 3.108 2.716 4.9 6.552 4.9 3.472 0 6.076-1.736 6.076-4.48 0-3.192-2.66-3.864-5.936-4.256-2.072-.224-3.444-.392-3.444-1.736 0-1.148 1.176-1.876 2.968-1.876s3.024.924 3.192 2.24h2.968c-.196-2.94-2.688-4.564-6.216-4.564-3.444-.028-5.88 1.736-5.88 4.452 0 2.968 2.576 3.668 5.852 4.06 2.212.28 3.528.392 3.528 1.932 0 1.148-1.232 1.876-3.108 1.876-2.184 0-3.472-1.064-3.584-2.548h-2.968zm40.028 1.876c-.588 0-.98-.168-1.344-.532 1.316-1.68 2.044-3.92 2.044-6.412 0-5.74-3.892-9.968-9.52-9.968s-9.52 4.228-9.52 9.968 3.892 9.968 9.52 9.968c2.128 0 4.004-.588 5.516-1.652l.084.112c.7.924 1.428 1.372 3.024 1.372h1.904v-2.856h-1.708zm-8.82.196c-3.724 0-6.216-2.996-6.216-7.14s2.492-7.14 6.216-7.14 6.216 2.996 6.216 7.14c0 1.4-.28 2.688-.812 3.752l-.588-.756c-.672-.896-1.316-1.372-2.772-1.372h-2.1v2.8h1.736c.672 0 1.092.308 1.568.952l.42.56c-.98.756-2.24 1.204-3.668 1.204zM62.78 70.388c0 1.036-.42 1.764-1.428 1.764H58.3v2.66h3.192c.532 0 .952-.084 1.232-.252V88h3.108V68.4H62.78v1.988zm15.056 1.26c1.035 0 1.847-.756 1.847-1.82s-.811-1.82-1.847-1.82c-1.037 0-1.849.756-1.849 1.82s.813 1.82 1.849 1.82zM76.296 88h3.023V73.664h-3.023V88zm5.372-4.732c.084 3.108 2.716 4.9 6.552 4.9 3.472 0 6.076-1.736 6.076-4.48 0-3.192-2.66-3.864-5.936-4.256-2.072-.224-3.444-.392-3.444-1.736 0-1.148 1.176-1.876 2.968-1.876s3.024.924 3.192 2.24h2.968c-.196-2.94-2.688-4.564-6.216-4.564-3.444-.028-5.88 1.736-5.88 4.452 0 2.968 2.576 3.668 5.852 4.06 2.212.28 3.528.392 3.528 1.932 0 1.148-1.232 1.876-3.108 1.876-2.184 0-3.472-1.064-3.584-2.548h-2.968zm29.387-9.604c-2.352 0-3.5.952-4.228 2.156l-.336-2.156h-2.688V88h3.024v-7.196c0-2.212.868-4.312 3.556-4.312h1.344v-2.828h-.672zm8.658 14.504c3.556 0 5.964-2.156 6.468-4.984h-3.024c-.42 1.596-1.764 2.52-3.612 2.52-2.38 0-3.92-1.596-4.004-4.032v-.196h10.808c.056-.392.084-.784.084-1.148-.084-4.2-2.856-6.832-7-6.832-4.228 0-7.056 2.94-7.056 7.364 0 4.396 2.828 7.308 7.336 7.308zm-4.06-8.904c.224-2.044 1.876-3.332 3.808-3.332 2.1 0 3.584 1.204 3.836 3.332h-7.644zM128.879 88h3.024V68.4h-3.024V88zm12.792.168c3.556 0 5.964-2.156 6.468-4.984h-3.024c-.42 1.596-1.764 2.52-3.612 2.52-2.38 0-3.92-1.596-4.004-4.032v-.196h10.808c.056-.392.084-.784.084-1.148-.084-4.2-2.856-6.832-7-6.832-4.228 0-7.056 2.94-7.056 7.364 0 4.396 2.828 7.308 7.336 7.308zm-4.06-8.904c.224-2.044 1.876-3.332 3.808-3.332 2.1 0 3.584 1.204 3.836 3.332h-7.644zm26.329 6.104c-.616 0-.924-.196-.924-.924v-5.74c0-3.388-2.184-5.208-5.992-5.208-3.612 0-6.02 1.736-6.328 4.536h2.968c.224-1.26 1.428-2.1 3.22-2.1 1.988 0 3.136.98 3.136 2.576v.868h-3.612c-4.004 0-6.132 1.652-6.132 4.592 0 2.66 2.184 4.2 5.32 4.2 2.324 0 3.78-1.008 4.732-2.464 0 1.428.672 2.296 2.632 2.296h1.596v-2.632h-.616zm-3.92-3.248c-.028 2.212-1.484 3.696-4.004 3.696-1.652 0-2.66-.84-2.66-2.044 0-1.456 1.036-2.156 2.912-2.156h3.752v.504zm5.567 1.148c.084 3.108 2.716 4.9 6.552 4.9 3.472 0 6.076-1.736 6.076-4.48 0-3.192-2.66-3.864-5.936-4.256-2.072-.224-3.444-.392-3.444-1.736 0-1.148 1.176-1.876 2.968-1.876s3.024.924 3.192 2.24h2.968c-.196-2.94-2.688-4.564-6.216-4.564-3.444-.028-5.88 1.736-5.88 4.452 0 2.968 2.576 3.668 5.852 4.06 2.212.28 3.528.392 3.528 1.932 0 1.148-1.232 1.876-3.108 1.876-2.184 0-3.472-1.064-3.584-2.548h-2.968zm21.775 4.9c3.556 0 5.964-2.156 6.468-4.984h-3.024c-.42 1.596-1.764 2.52-3.612 2.52-2.38 0-3.92-1.596-4.004-4.032v-.196h10.808c.056-.392.084-.784.084-1.148-.084-4.2-2.856-6.832-7-6.832-4.228 0-7.056 2.94-7.056 7.364 0 4.396 2.828 7.308 7.336 7.308zm-4.06-8.904c.224-2.044 1.876-3.332 3.808-3.332 2.1 0 3.584 1.204 3.836 3.332h-7.644zm24.117-3.612c-.924-1.26-2.464-2.156-4.648-2.156-3.892 0-6.776 2.912-6.776 7.336 0 4.592 2.884 7.336 6.776 7.336 2.268 0 3.752-1.064 4.676-2.324l.364 2.156h2.632V68.4h-3.024v7.252zm-4.144 9.968c-2.52 0-4.172-1.96-4.172-4.788 0-2.8 1.652-4.76 4.172-4.76 2.52 0 4.172 1.96 4.172 4.816 0 2.772-1.652 4.732-4.172 4.732z" fill="#000"/></svg>