<svg width="235" height="15" viewBox="0 0 235 15" fill="none" xmlns="http://www.w3.org/2000/svg"><path d="M.32 1.932h3.456V11.5h1.84V1.932h3.456V.3H.32v1.632zm12.37 9.664c2.031 0 3.407-1.232 3.695-2.848h-1.728c-.24.912-1.008 1.44-2.064 1.44-1.36 0-2.24-.912-2.288-2.304v-.112h6.176c.032-.224.048-.448.048-.656-.048-2.4-1.632-3.904-4-3.904-2.416 0-4.032 1.68-4.032 4.208 0 2.512 1.616 4.176 4.192 4.176zm-2.32-5.088c.127-1.168 1.071-1.904 2.175-1.904 1.2 0 2.048.688 2.192 1.904H10.37zm11.316 5.088c2.096 0 3.488-1.168 3.808-3.024H23.67c-.208.944-.912 1.552-1.968 1.552-1.392 0-2.304-1.104-2.304-2.704 0-1.616.912-2.736 2.304-2.736 1.072 0 1.76.592 1.984 1.552h1.808c-.336-1.856-1.648-3.024-3.76-3.024-2.48 0-4.112 1.68-4.112 4.208 0 2.56 1.584 4.176 4.064 4.176zm9.435-8.384c-1.28 0-2.064.576-2.576 1.28V.3h-1.728v11.2h1.728V7.356c0-1.648.832-2.656 2.192-2.656 1.28 0 1.968.832 1.968 2.384V11.5h1.728V6.94c0-2.736-1.488-3.728-3.312-3.728zm9.203 0c-1.328 0-2.112.528-2.624 1.168l-.192-1.072h-1.504V11.5h1.728V7.372c0-1.664.816-2.672 2.192-2.672 1.296 0 1.952.832 1.952 2.384V11.5h1.744V6.94c0-2.736-1.488-3.728-3.296-3.728zm8.677 8.384c2.496 0 4.176-1.68 4.176-4.192 0-2.496-1.68-4.192-4.176-4.192-2.496 0-4.176 1.696-4.176 4.192 0 2.512 1.68 4.192 4.176 4.192zm0-1.472c-1.456 0-2.4-1.136-2.4-2.72 0-1.584.944-2.72 2.4-2.72s2.416 1.136 2.416 2.72c0 1.584-.96 2.72-2.416 2.72zm5.566 1.376h1.728V.3h-1.728v11.2zm7.294.096c2.496 0 4.176-1.68 4.176-4.192 0-2.496-1.68-4.192-4.176-4.192-2.496 0-4.176 1.696-4.176 4.192 0 2.512 1.68 4.192 4.176 4.192zm0-1.472c-1.456 0-2.4-1.136-2.4-2.72 0-1.584.944-2.72 2.4-2.72s2.416 1.136 2.416 2.72c0 1.584-.96 2.72-2.416 2.72zm11.821-5.536c-.528-.816-1.408-1.376-2.688-1.376-2.224 0-3.872 1.648-3.872 4.16 0 2.608 1.648 4.16 3.872 4.16 1.28 0 2.128-.528 2.672-1.344v.912c0 1.568-.848 2.288-2.352 2.288-1.216 0-2.016-.528-2.224-1.44h-1.76c.16 1.84 1.68 2.848 3.856 2.848 2.944 0 4.192-1.408 4.192-3.632V3.308h-1.504l-.192 1.28zm-2.4 5.488c-1.44 0-2.384-1.104-2.384-2.704 0-1.584.944-2.704 2.384-2.704s2.384 1.12 2.384 2.736c0 1.568-.944 2.672-2.384 2.672zm8.153 1.472l-.32.8c-.256.672-.416.832-1.088.832H76.81v1.52h1.856c1.2 0 1.552-.592 2.064-1.92l3.712-9.472h-1.84l-2.224 6.224-2.288-6.224h-1.84l3.184 8.24zm19.4-8.336c-1.344 0-2.272.592-2.8 1.488-.496-1.056-1.456-1.488-2.528-1.488-1.233.016-1.937.56-2.4 1.168l-.192-1.072H89.41V11.5h1.728V7.116c0-1.456.736-2.416 1.92-2.416 1.136 0 1.728.752 1.728 2.192V11.5h1.745V7.068c0-1.472.751-2.368 1.935-2.368 1.12 0 1.713.752 1.713 2.192V11.5h1.728V6.78c0-2.592-1.376-3.568-3.072-3.568zm8.464 8.384c2.032 0 3.408-1.232 3.696-2.848h-1.728c-.24.912-1.008 1.44-2.064 1.44-1.36 0-2.24-.912-2.289-2.304v-.112h6.177c.032-.224.048-.448.048-.656-.048-2.4-1.632-3.904-4-3.904-2.416 0-4.032 1.68-4.032 4.208 0 2.512 1.616 4.176 4.192 4.176zm-2.32-5.088c.128-1.168 1.072-1.904 2.176-1.904 1.2 0 2.048.688 2.192 1.904h-4.368zm11.445 5.088c2.032 0 3.408-1.232 3.696-2.848h-1.728c-.24.912-1.008 1.44-2.064 1.44-1.36 0-2.24-.912-2.289-2.304v-.112h6.177c.032-.224.048-.448.048-.656-.048-2.4-1.632-3.904-4-3.904-2.416 0-4.032 1.68-4.032 4.208 0 2.512 1.616 4.176 4.192 4.176zm-2.32-5.088c.128-1.168 1.072-1.904 2.176-1.904 1.2 0 2.048.688 2.192 1.904h-4.368zm8.086 2.768c0 1.488.672 2.224 2.24 2.224h1.6V9.98h-1.216c-.656 0-.88-.24-.88-.88V4.828h2v-1.52h-2V1.02h-1.744v2.288h-1.424v1.52h1.424v4.448zm4.587-.48c.048 1.776 1.552 2.8 3.744 2.8 1.984 0 3.472-.992 3.472-2.56 0-1.824-1.52-2.208-3.392-2.432-1.184-.128-1.968-.224-1.968-.992 0-.656.672-1.072 1.696-1.072s1.728.528 1.824 1.28h1.696c-.112-1.68-1.536-2.608-3.552-2.608-1.968-.016-3.36.992-3.36 2.544 0 1.696 1.472 2.096 3.344 2.32 1.264.16 2.016.224 2.016 1.104 0 .656-.704 1.072-1.776 1.072-1.248 0-1.984-.608-2.048-1.456h-1.696zm13.241.48c0 1.488.672 2.224 2.24 2.224h1.6V9.98h-1.216c-.656 0-.88-.24-.88-.88V4.828h2v-1.52h-2V1.02h-1.744v2.288h-1.424v1.52h1.424v4.448zm9.083-5.968c-1.344 0-2 .544-2.416 1.232l-.192-1.232h-1.536V11.5h1.728V7.388c0-1.264.496-2.464 2.032-2.464h.768V3.308h-.384zm8.688 6.688c-.352 0-.528-.112-.528-.528v-3.28c0-1.936-1.248-2.976-3.424-2.976-2.064 0-3.44.992-3.616 2.592h1.696c.128-.72.816-1.2 1.84-1.2 1.136 0 1.792.56 1.792 1.472v.496h-2.064c-2.288 0-3.504.944-3.504 2.624 0 1.52 1.248 2.4 3.04 2.4 1.328 0 2.16-.576 2.704-1.408 0 .816.384 1.312 1.504 1.312h.912V9.996h-.352zm-2.24-1.856c-.016 1.264-.848 2.112-2.288 2.112-.944 0-1.52-.48-1.52-1.168 0-.832.592-1.232 1.664-1.232h2.144v.288zm7.853-4.928c-1.328 0-2.112.528-2.624 1.168l-.192-1.072h-1.504V11.5h1.728V7.372c0-1.664.816-2.672 2.192-2.672 1.296 0 1.952.832 1.952 2.384V11.5h1.744V6.94c0-2.736-1.488-3.728-3.296-3.728zm4.516 5.584c.048 1.776 1.552 2.8 3.744 2.8 1.984 0 3.472-.992 3.472-2.56 0-1.824-1.52-2.208-3.392-2.432-1.184-.128-1.968-.224-1.968-.992 0-.656.672-1.072 1.696-1.072s1.728.528 1.824 1.28h1.696c-.112-1.68-1.536-2.608-3.552-2.608-1.968-.016-3.36.992-3.36 2.544 0 1.696 1.472 2.096 3.344 2.32 1.264.16 2.016.224 2.016 1.104 0 .656-.704 1.072-1.776 1.072-1.248 0-1.984-.608-2.048-1.456h-1.696zm12.939-5.584c-1.28 0-2.128.592-2.672 1.312l-.208-1.216h-1.504V14.7h1.728v-4.352c.512.736 1.392 1.248 2.656 1.248 2.24 0 3.872-1.664 3.872-4.192 0-2.624-1.632-4.192-3.872-4.192zm-.288 6.928c-1.44 0-2.384-1.136-2.384-2.768 0-1.584.944-2.688 2.384-2.688s2.4 1.104 2.4 2.72c0 1.6-.96 2.736-2.4 2.736zm13.033-.144c-.352 0-.528-.112-.528-.528v-3.28c0-1.936-1.248-2.976-3.424-2.976-2.064 0-3.44.992-3.616 2.592h1.696c.128-.72.816-1.2 1.84-1.2 1.136 0 1.792.56 1.792 1.472v.496h-2.064c-2.288 0-3.504.944-3.504 2.624 0 1.52 1.248 2.4 3.04 2.4 1.328 0 2.16-.576 2.704-1.408 0 .816.384 1.312 1.504 1.312h.912V9.996h-.352zm-2.24-1.856c-.016 1.264-.848 2.112-2.288 2.112-.944 0-1.52-.48-1.52-1.168 0-.832.592-1.232 1.664-1.232h2.144v.288zm7.677-4.832c-1.344 0-2 .544-2.416 1.232l-.192-1.232h-1.536V11.5h1.728V7.388c0-1.264.496-2.464 2.032-2.464h.768V3.308h-.384zm4.947 8.288c2.032 0 3.408-1.232 3.696-2.848h-1.728c-.24.912-1.008 1.44-2.064 1.44-1.36 0-2.24-.912-2.288-2.304v-.112h6.176c.032-.224.048-.448.048-.656-.048-2.4-1.632-3.904-4-3.904-2.416 0-4.032 1.68-4.032 4.208 0 2.512 1.616 4.176 4.192 4.176zm-2.32-5.088c.128-1.168 1.072-1.904 2.176-1.904 1.2 0 2.048.688 2.192 1.904h-4.368zm11.877-3.296c-1.328 0-2.112.528-2.624 1.168l-.192-1.072h-1.504V11.5h1.728V7.372c0-1.664.816-2.672 2.192-2.672 1.296 0 1.952.832 1.952 2.384V11.5h1.744V6.94c0-2.736-1.488-3.728-3.296-3.728zm8.565 8.384c2.096 0 3.488-1.168 3.808-3.024h-1.824c-.208.944-.912 1.552-1.968 1.552-1.392 0-2.304-1.104-2.304-2.704 0-1.616.912-2.736 2.304-2.736 1.072 0 1.76.592 1.984 1.552h1.808c-.336-1.856-1.648-3.024-3.76-3.024-2.48 0-4.112 1.68-4.112 4.208 0 2.56 1.584 4.176 4.064 4.176zm7.249-.048l-.32.8c-.256.672-.416.832-1.088.832h-1.216v1.52h1.856c1.2 0 1.552-.592 2.064-1.92l3.712-9.472h-1.84l-2.224 6.224-2.288-6.224h-1.84l3.184 8.24z" fill="#000"/></svg>