<svg width="249" height="23" viewBox="0 0 249 23" fill="none" xmlns="http://www.w3.org/2000/svg"><path d="M5.452 18.7c-2.165 0-3.6-.371-4.67-.841L.15 14.1h.462l.462.89c1.095 2.126 2.432 3.066 4.573 3.066 2.456 0 3.843-1.236 3.843-3.264 0-1.805-1.022-2.72-3.94-3.758C2.241 9.873.587 8.587.587 5.695.588 2.801 3.19.65 6.425.65c2.019 0 3.186.272 4.305.741l.608 3.907h-.486l-.438-.915c-.997-2.126-2.262-3.09-4.184-3.09-2.018 0-3.21 1.236-3.21 2.991 0 1.756.973 2.646 3.745 3.61 3.649 1.236 5.181 2.645 5.181 5.514.024 3.14-2.967 5.29-6.494 5.29zM20.726 17.167c-1.021.89-2.067 1.483-3.38 1.483-1.946 0-2.968-.89-2.968-3.016V7.425h-1.8v-.47l1.922-.741 1.897-3.857h.778v3.955h3.26v1.113h-3.26v8.16c0 1.21.584 1.804 1.532 1.804.657 0 1.095-.173 1.703-.618l.316.396zM27.56 18.749c-3.526 0-6.128-2.275-6.128-6.503 0-3.585 2.529-6.33 6.153-6.33 3.624 0 6.13 2.276 6.13 6.503-.025 3.586-2.579 6.33-6.154 6.33zm-.34-12.19c-1.727 0-2.7 1.336-2.7 4.97 0 3.981 1.265 6.577 3.357 6.577 1.751 0 2.7-1.335 2.7-4.97 0-3.98-1.24-6.576-3.357-6.576zM48.672 18.477c-.56 0-1.994-.025-3.089-.025-1.094 0-2.505.025-3.113.025v-.396l.413-.074c1.095-.198 1.29-.544 1.29-2.794v-4.846c0-1.879-.803-2.794-2.238-2.794-.997 0-1.824.396-2.554.94v6.7c0 2.275.17 2.597 1.29 2.794l.413.074v.396c-.609 0-2.02-.025-3.114-.025-1.094 0-2.53.025-3.113.025v-.396l.487-.074c1.021-.148 1.216-.544 1.216-3.016V9.65c0-1.336-.22-1.707-1.12-2.127l-.607-.297v-.272l4.232-.94.34.223V7.97c1.338-1.162 2.578-1.928 4.16-1.928 2.261 0 3.453 1.236 3.453 3.832v5.192c0 2.522.195 2.819 1.24 3.016l.438.075v.321h-.024zM52.199 11.183v.173c.073 3.511 1.945 5.687 4.475 5.687 1.386 0 2.36-.52 3.38-1.558l.341.248c-1.313 1.854-3.016 3.016-5.205 3.016-3.21 0-5.618-2.225-5.618-6.057 0-4.13 3.064-6.75 6.007-6.75 3.26 0 4.84 1.854 4.913 5.266H52.2v-.025zm5.326-.692c-.073-2.596-.997-3.907-2.456-3.907-1.654 0-2.7 1.434-2.87 3.907h5.326zM78.272 18.477c-.438 0-2.627-.05-3.478-.05-.9 0-3.624.05-4.086.05v-.346l.778-.124c.754-.123 1.07-.321 1.07-.79 0-.396-.243-.891-.778-1.732l-2.724-4.228-2.724 3.808c-.633.89-.925 1.558-.925 2.052 0 .495.292.791 1.046.915l.803.124v.346c-.438 0-2.384-.05-3.26-.05-.875 0-2.261.05-2.723.05v-.371l.413-.074c1.095-.198 2.116-1.138 2.943-2.2l3.94-5.242L64.7 4.78c-.9-1.36-1.532-1.978-2.505-2.151l-.51-.1v-.346c.437 0 2.626.05 3.477.05.9 0 3.575-.05 4.038-.05v.347l-.779.123c-.656.1-1.021.322-1.021.791 0 .396.243.89.778 1.731l2.335 3.66 2.286-3.264c.608-.89.924-1.558.924-2.028s-.316-.79-1.045-.914l-.803-.124v-.346c.438 0 2.384.05 3.26.05.875 0 2.261-.05 2.723-.05v.346l-.413.074c-1.095.198-2.092 1.038-2.943 2.2l-3.527 4.698 4.28 6.38c.9 1.36 1.533 1.977 2.506 2.15l.51.1v.37zM80.217 4.854c-.194 0-.364-.025-.51-.1a1.272 1.272 0 01-.414-.296 1.12 1.12 0 01-.267-.42 1.311 1.311 0 01-.098-.52c0-.197.025-.37.098-.519.073-.173.17-.296.267-.42a.937.937 0 01.414-.272c.17-.074.34-.099.51-.099.195 0 .365.025.511.1.17.073.292.172.414.271.121.124.219.272.267.42.073.173.097.347.097.52 0 .197-.024.37-.097.519-.073.173-.17.297-.267.42a1.6 1.6 0 01-.414.297c-.146.05-.316.099-.51.099zm0-.198c.17 0 .317-.025.438-.099a.96.96 0 00.365-.247c.097-.1.17-.223.243-.371.049-.148.073-.297.073-.445 0-.173-.024-.322-.073-.445a.98.98 0 00-.243-.371 1.36 1.36 0 00-.365-.247c-.146-.05-.292-.1-.438-.1a.822.822 0 00-.437.1.962.962 0 00-.365.247c-.098.099-.17.222-.243.37a1.42 1.42 0 00-.073.446c0 .173.024.321.073.445a.979.979 0 00.243.37.962.962 0 00.365.248.941.941 0 00.437.099zm-.559-.346V2.727h.681c.17 0 .316.05.413.124a.452.452 0 01.146.346.452.452 0 01-.145.346c-.098.1-.22.124-.39.124l.073-.025c.073 0 .122.025.17.05a.416.416 0 01.147.148l.267.47h-.365l-.267-.52c-.025-.049-.049-.074-.073-.074-.025-.024-.073-.024-.122-.024h-.17v.618h-.365zm.316-.89h.316c.098 0 .17-.025.195-.05.049-.024.073-.099.073-.173 0-.074-.024-.148-.073-.173a.453.453 0 00-.195-.05h-.316v.446zM95.085 18.677c-4.348 0-7.466-3.471-7.466-9.039s3.169-8.99 7.418-8.99c3.563 0 6.017 1.899 6.781 5.568.024.099-.049.2-.149.2h-.909c-.098 0-.222-.074-.222-.2-.613-2.972-2.629-4.495-5.501-4.495-3.537 0-6.117 2.923-6.117 7.942s2.605 7.941 6.165 7.941c3.906 0 5.896-2.771 5.872-6.893h-5.799c-.097 0-.197-.099-.197-.2v-.675c0-.1.098-.2.197-.2h6.879c.097 0 .197.098.197.2.097 5.568-2.408 8.839-7.149 8.839v.002zM104.444 18.403c-.097 0-.197-.1-.197-.2l.073-8.716-.073-8.364c0-.1.098-.2.197-.2h.859c.097 0 .197.098.197.2l-.049 8.315.049 8.765c0 .099-.097.2-.197.2h-.859zM113.115 18.677c-3.636 0-5.65-2.672-5.65-6.693 0-4.02 2.014-6.717 5.65-6.717 3.636 0 5.65 2.697 5.65 6.717s-1.989 6.693-5.65 6.693zm0-.974c2.948 0 4.398-2.223 4.398-5.719 0-3.496-1.474-5.743-4.398-5.743-2.923.025-4.397 2.247-4.397 5.743 0 3.496 1.474 5.72 4.397 5.72zM126.037 18.653c-1.989 0-3.439-.975-4.249-2.797l.049 2.322c0 .099-.097.2-.197.2h-.834c-.098 0-.197-.099-.197-.2l.073-10.063-.073-6.992c0-.1.097-.2.197-.2h.858c.098 0 .197.098.197.2l-.024 6.893c.81-1.699 2.259-2.722 4.225-2.722 3.29 0 5.061 2.898 5.061 6.643 0 3.746-1.817 6.718-5.086 6.718v-.002zm-.245-.975c2.823 0 4.078-2.472 4.078-5.617s-1.228-5.793-4.052-5.793c-2.407 0-4.054 1.847-4.078 5.543-.025 3.697 1.474 5.867 4.052 5.867zM141.905 18.403c-.097 0-.197-.099-.197-.2l.048-2.423c-.785 1.772-2.235 2.845-4.249 2.845-3.315 0-5.061-2.897-5.061-6.643s1.793-6.693 5.061-6.693c1.99 0 3.44.974 4.249 2.772l-.048-2.322c0-.099.097-.2.197-.2h.834c.097 0 .197.099.197.2l-.073 5.993.073 6.468c0 .099-.097.2-.197.2h-.834v.003zm-4.176-.75c2.456 0 4.054-1.873 4.079-5.543.024-3.671-1.474-5.842-4.028-5.842-2.851 0-4.128 2.472-4.128 5.593 0 3.12 1.253 5.793 4.079 5.793h-.002zM145.59 18.403c-.098 0-.197-.1-.197-.2l.073-8.716-.073-8.364c0-.1.097-.2.197-.2h.858c.097 0 .197.098.197.2l-.048 8.315.048 8.765c0 .099-.097.2-.197.2h-.858zM158.56 11.21h-4.027l.048 6.993c0 .099-.097.2-.197.2h-.934c-.097 0-.197-.099-.197-.2l.073-8.94-.073-8.143c0-.099.098-.2.197-.2h5.038c3.512 0 5.822 1.723 5.822 5.093 0 3.595-2.383 5.195-5.747 5.195l-.003.002zm-4.052-1.923v.875h4.104c2.75 0 4.421-1.122 4.421-4.146 0-2.747-1.646-4.02-4.519-4.02h-3.93l-.073 7.29h-.003zM174.331 18.403c-.098 0-.197-.099-.197-.2l.048-2.423c-.785 1.772-2.235 2.845-4.249 2.845-3.315 0-5.061-2.897-5.061-6.643s1.792-6.693 5.061-6.693c1.99 0 3.439.974 4.249 2.772l-.048-2.322c0-.099.097-.2.197-.2h.834c.097 0 .197.099.197.2l-.073 5.993.073 6.468c0 .099-.097.2-.197.2h-.834v.003zm-4.176-.75c2.456 0 4.052-1.873 4.078-5.543.025-3.671-1.473-5.842-4.027-5.842-2.851 0-4.128 2.472-4.128 5.593 0 3.12 1.253 5.793 4.079 5.793h-.002zM181.357 22.448c-.048.123-.148.2-.27.2h-.761a.137.137 0 01-.124-.2l1.425-4.095-4.913-12.634c-.048-.074.025-.175.122-.175h.982a.3.3 0 01.27.175l4.152 10.938 3.563-10.913c.049-.124.149-.2.27-.2h.91c.097 0 .173.098.122.2l-5.748 16.706v-.002zM189.683 13.035l.048 5.17c0 .099-.097.2-.197.2h-.885c-.097 0-.197-.099-.197-.2l.073-5.17-.049-7.291c0-.1.098-.2.197-.2h.835c.097 0 .197.098.197.2l-.049 2.448c.713-1.474 2.014-2.948 4.079-2.948 1.843 0 3.144.925 3.66 2.948.761-1.573 2.087-2.948 4.079-2.948 2.432 0 3.906 1.622 3.906 5.195v2.596l.024 5.17c0 .099-.097.2-.197.2h-.861c-.097 0-.197-.099-.197-.2l.049-5.17v-2.472c0-3.12-1.18-4.27-2.996-4.27-1.647 0-2.776 1.273-3.588 3.296.024.274.024.548.024.848v2.596l.025 5.17c0 .099-.098.2-.197.2h-.861c-.098 0-.197-.1-.197-.2l.048-5.17V10.56c0-3.12-1.179-4.27-2.996-4.27s-2.948 1.474-3.782 3.795v2.948l.005.002zM217.884 13.858c.097 0 .173.1.173.2-.467 2.822-2.187 4.62-5.208 4.62-3.733 0-5.698-2.723-5.698-6.669 0-3.946 2.138-6.742 5.552-6.742 3.415 0 5.356 2.37 5.429 6.468 0 .099-.097.2-.197.2l-9.556.025c0 3.622 1.498 5.743 4.495 5.743 2.283 0 3.587-1.372 4.003-3.647 0-.123.122-.2.221-.2h.786v.002zm-5.183-7.615c-2.505 0-3.979 1.822-4.273 4.695h8.4c-.024-2.596-1.449-4.695-4.127-4.695zM220.192 18.403c-.097 0-.197-.1-.197-.2l.049-5.445-.049-7.017c0-.099.097-.2.197-.2h.834c.097 0 .197.099.197.2l-.048 2.448c.712-1.449 2.113-2.947 4.297-2.947 2.554 0 4.128 1.674 4.128 5.195v2.447l.024 5.319c0 .099-.097.2-.197.2h-.861c-.097 0-.197-.1-.197-.2l.049-5.319v-2.321c0-3.096-1.277-4.27-3.194-4.27-1.916 0-3.169 1.449-4.003 3.795v2.796l.024 5.319c0 .099-.097.2-.197.2h-.861.005zM237.166 18.153c0 .124-.073.225-.197.25-.367.099-.885.2-1.325.2-1.647 0-2.875-.848-2.875-3.57l.024-8.466h-1.449c-.098 0-.197-.099-.197-.2v-.623c0-.1.097-.2.197-.2h1.449l-.049-3.022c0-.099.098-.2.197-.2h.861c.098 0 .197.099.197.2l-.024 3.022h2.997c.097 0 .197.098.197.2v.623c0 .099-.098.2-.197.2h-2.997v8.466c0 1.923.516 2.497 1.744 2.497.443 0 .91-.05 1.253-.124a.159.159 0 01.197.151v.599l-.003-.003zM243.234 18.653c-3.169 0-5.183-1.474-5.255-4.619 0-.099.097-.2.197-.2h.785c.097 0 .197.099.197.2.073 2.522 1.498 3.696 4.103 3.696 2.162 0 3.709-.998 3.709-2.771 0-4.171-8.719-1.15-8.719-6.144 0-2.322 1.941-3.521 4.643-3.521s4.765 1.174 4.889 3.845c0 .098-.098.2-.197.2h-.737c-.098 0-.197-.1-.197-.2-.122-2.072-1.744-2.923-3.782-2.923-2.039 0-3.439.848-3.439 2.547 0 3.795 8.719.774 8.719 6.117 0 2.37-2.162 3.77-4.913 3.77l-.003.003z" fill="#fff"/></svg>