<svg width="175" height="24" viewBox="0 0 175 24" fill="none" xmlns="http://www.w3.org/2000/svg"><path d="M104.234 9.603c-.185 0-.277-.059-.277-.278V7.601c0-1.018-.656-1.564-1.8-1.564-1.085 0-1.808.521-1.901 1.362h.892c.067-.378.429-.63.967-.63.597 0 .942.294.942.773v.261h-1.085c-1.203 0-1.842.496-1.842 1.38 0 .798.656 1.26 1.598 1.26.698 0 1.136-.302 1.421-.74 0 .43.202.69.791.69h.479v-.79h-.185zm-1.177-.976c-.008.665-.446 1.11-1.203 1.11-.496 0-.799-.252-.799-.614 0-.437.311-.647.875-.647h1.127v.151zm6.314-2.59c-.673 0-1.119.31-1.405.69l-.109-.64h-.791v5.989h.909V9.787c.269.387.731.656 1.396.656 1.177 0 2.035-.875 2.035-2.204 0-1.379-.858-2.203-2.035-2.203zm-.152 3.642c-.757 0-1.253-.598-1.253-1.456 0-.832.496-1.412 1.253-1.412.757 0 1.262.58 1.262 1.43 0 .84-.505 1.438-1.262 1.438zm5.867-1.439c0 .892-.421 1.413-1.11 1.413-.665 0-1.001-.429-1.001-1.27V6.087h-.908v2.397c0 1.472.782 1.96 1.699 1.96.664 0 1.059-.27 1.328-.597l.101.546h.799V6.087h-.908V8.24zm1.644-1.354h2.304l-2.405 2.86v.647h3.734v-.799h-2.515l2.406-2.86v-.647h-3.524v.8zm4.106 0h2.305l-2.406 2.86v.647h3.735v-.799h-2.515l2.405-2.86v-.647h-3.524v.8zm4.267 3.507h.908V4.506h-.908v5.887zm3.842.05c1.069 0 1.792-.647 1.943-1.496h-.908c-.126.48-.53.757-1.085.757-.715 0-1.177-.48-1.203-1.211v-.06h3.247a2.44 2.44 0 00.025-.344c-.025-1.262-.858-2.052-2.103-2.052-1.27 0-2.119.883-2.119 2.212 0 1.32.849 2.195 2.203 2.195zm-1.219-2.674c.067-.614.563-1 1.144-1 .631 0 1.076.361 1.152 1h-2.296zm6.435 1.455c0 .783.354 1.17 1.178 1.17h.841v-.8h-.639c-.345 0-.463-.126-.463-.462V6.886h1.052v-.799h-1.052V4.885h-.917v1.202h-.748v.8h.748v2.337zm4.542 1.22c1.312 0 2.195-.883 2.195-2.204 0-1.312-.883-2.203-2.195-2.203-1.312 0-2.195.891-2.195 2.203 0 1.32.883 2.204 2.195 2.204zm0-.774c-.765 0-1.262-.597-1.262-1.43 0-.832.497-1.43 1.262-1.43s1.27.598 1.27 1.43c0 .833-.505 1.43-1.27 1.43zm5.389-.446c0 .783.353 1.17 1.177 1.17h.841v-.8h-.639c-.345 0-.463-.126-.463-.462V6.886h1.052v-.799h-1.052V4.885h-.916v1.202h-.749v.8h.749v2.337zm4.774-3.137c-.706 0-1.051.286-1.27.648l-.101-.648h-.807v4.306h.908V8.232c0-.665.261-1.295 1.068-1.295h.404v-.85h-.202zm4.567 3.516c-.185 0-.277-.059-.277-.278V7.601c0-1.018-.656-1.564-1.8-1.564-1.085 0-1.809.521-1.901 1.362h.891c.068-.378.429-.63.968-.63.597 0 .942.294.942.773v.261h-1.085c-1.203 0-1.842.496-1.842 1.38 0 .798.656 1.26 1.598 1.26.698 0 1.135-.302 1.421-.74 0 .43.202.69.791.69h.479v-.79h-.185zm-1.177-.976c-.009.665-.446 1.11-1.203 1.11-.496 0-.799-.252-.799-.614 0-.437.311-.647.875-.647h1.127v.151zm5.096-1.943c-.278-.378-.74-.647-1.396-.647-1.169 0-2.036.874-2.036 2.203 0 1.38.867 2.204 2.036 2.204.681 0 1.127-.32 1.404-.698l.11.647h.79V4.506h-.908v2.178zm-1.245 2.995c-.757 0-1.253-.59-1.253-1.439 0-.84.496-1.43 1.253-1.43.757 0 1.253.59 1.253 1.447 0 .833-.496 1.422-1.253 1.422zm5.085.765c1.068 0 1.791-.648 1.942-1.497h-.908c-.126.48-.53.757-1.085.757-.715 0-1.177-.48-1.203-1.211v-.06h3.247a2.44 2.44 0 00.025-.344c-.025-1.262-.858-2.052-2.103-2.052-1.27 0-2.119.883-2.119 2.212 0 1.32.849 2.195 2.204 2.195zm-1.22-2.675c.067-.614.564-1 1.144-1 .631 0 1.076.361 1.152 1h-2.296zm4.425-1.337c0-.698.42-1.169 1.068-1.169.563 0 .942.336.942.816 0 .404-.219.673-.597.925-.505.328-.9.606-.9 1.287v.269h.858v-.168c0-.42.286-.64.74-.95.437-.312.841-.682.841-1.456 0-.883-.724-1.53-1.893-1.53-1.253 0-1.984.883-1.984 1.976h.925zm.387 3.448c0 .337.252.564.58.564.328 0 .572-.227.572-.564 0-.336-.244-.563-.572-.563-.328 0-.58.227-.58.563z" fill="#000"/><path d="M.748 7.26c0 2.481 1.172 3.815 3.428 3.815 2.269 0 3.453-1.334 3.453-3.815V2.274H6.196v5.061c0 1.62-.624 2.468-2.02 2.468-1.371 0-1.994-.847-1.994-2.468V2.274H.748V7.26zm8.076.873c.05 1.745 1.36 2.942 3.528 2.942 1.92 0 3.229-1.085 3.229-2.655.012-1.72-1.396-2.182-2.842-2.444-1.372-.237-2.27-.424-2.27-1.321 0-.823.686-1.247 1.671-1.247 1.06 0 1.758.599 1.87 1.484h1.434c-.063-1.608-1.31-2.693-3.304-2.693-1.857 0-3.104 1.035-3.104 2.556 0 1.732 1.371 2.194 2.818 2.443 1.383.25 2.293.449 2.293 1.371 0 .835-.748 1.297-1.782 1.297-1.222 0-2.02-.686-2.095-1.708l-1.446-.025zm11.532 1.134c0 1.16.524 1.733 1.746 1.733h1.246V9.816h-.947c-.511 0-.686-.187-.686-.686V5.802h1.558V4.617h-1.558V2.835h-1.359v1.782h-1.11v1.185h1.11v3.465zm6.744 1.808c1.583 0 2.655-.96 2.88-2.22h-1.347c-.187.711-.785 1.123-1.608 1.123-1.06 0-1.745-.71-1.782-1.795v-.088h4.811c.025-.174.038-.349.038-.51-.038-1.87-1.272-3.042-3.117-3.042-1.882 0-3.141 1.309-3.141 3.278 0 1.957 1.259 3.254 3.266 3.254zM25.292 7.11c.1-.91.836-1.484 1.696-1.484.935 0 1.595.536 1.708 1.484h-3.404zm8.818 3.964c1.633 0 2.717-.91 2.967-2.356h-1.422c-.162.735-.71 1.209-1.533 1.209-1.084 0-1.795-.86-1.795-2.107 0-1.259.71-2.131 1.795-2.131.835 0 1.371.46 1.546 1.209h1.409c-.262-1.446-1.285-2.356-2.93-2.356-1.932 0-3.204 1.309-3.204 3.278 0 1.995 1.234 3.254 3.167 3.254zm7.35-6.532c-.997 0-1.608.448-2.007.997V2.274h-1.346V11h1.346V7.771c0-1.284.649-2.069 1.708-2.069.997 0 1.533.648 1.533 1.857V11h1.347V7.447c0-2.131-1.16-2.904-2.58-2.904zm10.024 6.532c1.583 0 2.655-.96 2.88-2.22h-1.347c-.187.711-.785 1.123-1.608 1.123-1.06 0-1.745-.71-1.782-1.795v-.088h4.811c.025-.174.038-.349.038-.51-.038-1.87-1.272-3.042-3.117-3.042-1.882 0-3.141 1.309-3.141 3.278 0 1.957 1.259 3.254 3.266 3.254zM49.676 7.11c.1-.91.835-1.484 1.696-1.484.935 0 1.595.536 1.708 1.484h-3.404zm11.722 2.717c-.274 0-.411-.087-.411-.411V6.86c0-1.508-.973-2.318-2.668-2.318-1.608 0-2.68.773-2.817 2.02h1.321c.1-.562.636-.936 1.434-.936.885 0 1.396.437 1.396 1.147v.387h-1.608c-1.783 0-2.73.735-2.73 2.044 0 1.184.972 1.87 2.368 1.87 1.035 0 1.683-.449 2.107-1.097 0 .636.3 1.022 1.172 1.022h.71V9.828h-.274zm-1.745-1.446c-.013.985-.66 1.646-1.783 1.646-.735 0-1.184-.374-1.184-.91 0-.649.461-.96 1.297-.96h1.67v.224zm5.981-3.765c-1.047 0-1.558.424-1.882.96l-.15-.96h-1.196V11h1.346V7.796c0-.985.386-1.92 1.583-1.92h.599V4.618h-.3zm4.496-.074c-1.035 0-1.646.411-2.045.91l-.15-.836h-1.171V11h1.346V7.784c0-1.297.636-2.082 1.708-2.082 1.01 0 1.52.648 1.52 1.857V11h1.36V7.447c0-2.131-1.16-2.904-2.568-2.904zm4.478-.823c.46 0 .822-.337.822-.81 0-.474-.361-.81-.822-.81-.462 0-.823.336-.823.81 0 .473.361.81.823.81zM73.922 11h1.346V4.617h-1.346V11zm6.032-6.457c-1.035 0-1.646.411-2.044.91l-.15-.836h-1.172V11h1.346V7.784c0-1.297.636-2.082 1.708-2.082 1.01 0 1.521.648 1.521 1.857V11h1.359V7.447c0-2.131-1.16-2.904-2.568-2.904zm8.666 1.072c-.411-.636-1.097-1.072-2.094-1.072-1.733 0-3.017 1.284-3.017 3.24 0 2.033 1.284 3.242 3.017 3.242.997 0 1.658-.411 2.082-1.047v.71c0 1.222-.66 1.783-1.833 1.783-.947 0-1.57-.411-1.732-1.122H83.67c.125 1.434 1.31 2.219 3.005 2.219 2.293 0 3.266-1.097 3.266-2.83v-6.12H88.77l-.15.997zM86.75 9.89c-1.121 0-1.857-.86-1.857-2.107 0-1.234.736-2.107 1.858-2.107 1.121 0 1.857.873 1.857 2.132 0 1.221-.736 2.082-1.858 2.082zm4.233-.998c.038 1.384 1.21 2.182 2.917 2.182 1.546 0 2.705-.773 2.705-1.995 0-1.42-1.184-1.72-2.642-1.895-.923-.1-1.534-.174-1.534-.772 0-.512.524-.836 1.322-.836.797 0 1.346.412 1.42.998h1.322c-.087-1.31-1.197-2.032-2.767-2.032-1.534-.013-2.618.773-2.618 1.982 0 1.321 1.147 1.633 2.605 1.807.985.125 1.57.175 1.57.86 0 .512-.548.836-1.383.836-.972 0-1.546-.474-1.596-1.135h-1.32z" fill="url(#paint0_linear_19_19391)"/><defs><linearGradient id="paint0_linear_19_19391" x1="108" y1="7.536" x2="0" y2="7.536" gradientUnits="userSpaceOnUse"><stop stop-color="#FF4343"/><stop offset=".5" stop-color="#9C0B93"/><stop offset="1" stop-color="#4C1BB7"/></linearGradient></defs></svg>