<svg width="234" height="10" viewBox="0 0 234 10" fill="none" xmlns="http://www.w3.org/2000/svg"><path d="M.69 5.11c0 1.95.83 2.95 2.55 2.95 1.73 0 2.57-1 2.57-2.95V1h-.54v4.14c0 1.61-.62 2.42-2.03 2.42-1.39 0-2.01-.81-2.01-2.42V1H.69v4.11zm6.274.74c.07 1.32 1.03 2.21 2.6 2.21 1.47 0 2.44-.8 2.44-1.98 0-1.33-1.18-1.67-2.34-1.87-1.07-.18-2-.36-2-1.36 0-.91.71-1.42 1.81-1.42 1.05 0 1.77.59 1.89 1.5h.55c-.1-1.2-1.01-1.99-2.44-1.99-1.42 0-2.35.75-2.35 1.94 0 1.33 1.14 1.63 2.26 1.82 1.1.19 2.08.41 2.08 1.43 0 .9-.76 1.44-1.89 1.44-1.18 0-1.98-.68-2.05-1.72h-.56zm8.572.59c.04 1.05.89 1.62 2.16 1.62 1.09 0 1.97-.55 1.97-1.45 0-1.07-.94-1.28-2.03-1.43-.79-.11-1.49-.2-1.49-.91 0-.58.57-.96 1.43-.96.81 0 1.39.39 1.48 1.05h.52c-.09-.99-.9-1.49-2-1.49-1.13-.01-1.94.57-1.94 1.44 0 1.02.94 1.21 1.98 1.35.85.12 1.54.23 1.54.98 0 .6-.63.98-1.46.98-.97 0-1.6-.45-1.64-1.18h-.52zm7.443-3.57c-.95 0-1.54.53-1.83 1.26V1h-.51v7h.51V5.5c0-1.32.67-2.16 1.75-2.16.97 0 1.57.64 1.57 1.84V8h.51V5.16c0-1.6-.85-2.29-2-2.29zm7.599 4.66c-.3 0-.45-.1-.45-.49V4.68c0-1.16-.71-1.81-1.98-1.81-1.16 0-1.93.56-2.06 1.48h.51c.13-.62.67-1.03 1.53-1.03.95 0 1.49.5 1.49 1.34v.44h-1.72c-1.3 0-2 .56-2 1.51 0 .9.71 1.45 1.79 1.45 1.03 0 1.64-.47 1.95-1.1v.18c-.02.6.23.86.83.86h.3v-.47h-.19zm-.96-1.58c0 .97-.69 1.67-1.89 1.67-.81 0-1.31-.41-1.31-1.04 0-.67.5-1.04 1.44-1.04h1.76v.41zm3.902-3.02c-.94 0-1.34.45-1.55 1.01l-.08-1.01h-.44V8h.51V5.43c0-1.03.27-2.01 1.46-2.01h.37v-.49h-.27zm2.904 5.13c1.11 0 1.96-.72 2.18-1.74h-.52c-.2.79-.87 1.28-1.7 1.28-1.13 0-1.84-.86-1.86-2.04v-.09h4.14c0-.07.01-.15.01-.21-.05-1.51-.98-2.39-2.34-2.39-1.39 0-2.34 1.06-2.34 2.56 0 1.59.99 2.63 2.43 2.63zm-1.86-3.02c.08-1.03.85-1.72 1.78-1.72.99 0 1.7.61 1.78 1.72h-3.56zm10.893 3.02c1.5 0 2.56-.81 2.86-2.22h-.57c-.3 1.12-1.11 1.72-2.3 1.72-1.62 0-2.64-1.27-2.64-3.06s1.04-3.06 2.66-3.06c1.17 0 1.99.61 2.3 1.71h.57c-.31-1.4-1.37-2.21-2.84-2.21-1.97 0-3.25 1.46-3.25 3.56 0 2.12 1.25 3.56 3.21 3.56zM49.48 8h.54V4.77h3.02v-.5h-3.02V1.5h3.62V1h-4.16v7zm7.147 0c2.22 0 3.52-1.38 3.52-3.5 0-2.13-1.3-3.5-3.52-3.5h-2.04v7h2.04zm-1.5-6.5h1.5c1.91 0 2.97 1.16 2.97 3 0 1.83-1.06 3-2.97 3h-1.5v-6zm5.868 4.94c.04 1.05.89 1.62 2.16 1.62 1.09 0 1.97-.55 1.97-1.45 0-1.07-.94-1.28-2.03-1.43-.79-.11-1.49-.2-1.49-.91 0-.58.57-.96 1.43-.96.81 0 1.39.39 1.48 1.05h.52c-.09-.99-.9-1.49-2-1.49-1.13-.01-1.94.57-1.94 1.44 0 1.02.94 1.21 1.98 1.35.85.12 1.54.23 1.54.98 0 .6-.63.98-1.46.98-.97 0-1.6-.45-1.64-1.18h-.52zm7.218-3.04h.96V8h.51V3.4h1.52v-.47h-1.52v-.76c0-.5.19-.7.7-.7h.83V1h-.85c-.85 0-1.19.37-1.19 1.18v.75h-.96v.47zm5.678-.47c-.94 0-1.34.45-1.55 1.01l-.08-1.01h-.44V8h.51V5.43c0-1.03.27-2.01 1.46-2.01h.37v-.49h-.27zm2.904 5.13c1.43 0 2.44-1.06 2.44-2.6 0-1.53-1.01-2.59-2.44-2.59s-2.43 1.06-2.43 2.59c0 1.54 1 2.6 2.43 2.6zm0-.46c-1.13 0-1.91-.88-1.91-2.14 0-1.25.78-2.14 1.91-2.14s1.91.89 1.91 2.14c0 1.26-.78 2.14-1.91 2.14zm9.113-4.73c-.93 0-1.53.52-1.82 1.27-.24-.84-.87-1.27-1.67-1.27-.87 0-1.39.51-1.65 1.14l-.08-1.08h-.44V8h.51V5.42c0-1.24.6-2.08 1.57-2.08.88 0 1.43.62 1.43 1.79V8h.51V5.24c.03-1.16.63-1.9 1.58-1.9.88 0 1.41.59 1.41 1.74V8h.52V5.06c0-1.53-.81-2.19-1.87-2.19zm6.778-.98c0 .32-.15.54-.46.54h-1.2v.47h1.2c.21 0 .36-.06.45-.17V8h.52V1h-.51v.89zm1.79 5.78c0 .23.16.38.38.38s.38-.15.38-.38-.16-.37-.38-.37-.38.14-.38.37zm3.845-4.31c-.74 0-1.4.26-1.82.85l.19-2.73h3.47V1h-3.94l-.25 3.91.5.02c.3-.82 1.14-1.1 1.78-1.1 1.12 0 1.81.79 1.81 1.87 0 1.24-.89 1.88-1.85 1.88-1.14 0-1.8-.76-1.88-1.67h-.52c.08 1.16.92 2.14 2.4 2.14 1.26 0 2.38-.82 2.38-2.36 0-1.36-.91-2.33-2.27-2.33zm8.122 4.7c1.15 0 1.96-.66 2.16-1.69h-.54c-.17.75-.78 1.23-1.62 1.23-1.11 0-1.88-.87-1.88-2.13 0-1.26.76-2.15 1.88-2.15.85 0 1.45.48 1.63 1.24h.53c-.21-1.05-1-1.69-2.15-1.69-1.43 0-2.41 1.06-2.41 2.6 0 1.56.97 2.59 2.4 2.59zm5.391 0c1.11 0 1.96-.72 2.18-1.74h-.52c-.2.79-.87 1.28-1.7 1.28-1.13 0-1.84-.86-1.86-2.04v-.09h4.14c0-.07.01-.15.01-.21-.05-1.51-.98-2.39-2.34-2.39-1.39 0-2.34 1.06-2.34 2.56 0 1.59.99 2.63 2.43 2.63zm-1.86-3.02c.08-1.03.85-1.72 1.78-1.72.99 0 1.7.61 1.78 1.72h-3.56zm7.458-2.17c-.93 0-1.53.48-1.82 1.14l-.08-1.08h-.44V8h.51V5.5c0-1.32.67-2.16 1.75-2.16.98 0 1.57.64 1.57 1.84V8h.51V5.16c0-1.6-.85-2.29-2-2.29zm3.509 3.95c0 .81.33 1.18 1.19 1.18h.74v-.47h-.7c-.53 0-.72-.2-.72-.72V3.4h1.37v-.47h-1.37V1.51h-.51v1.42h-.96v.47h.96v3.42zm2.476-.38c.04 1.05.89 1.62 2.16 1.62 1.09 0 1.97-.55 1.97-1.45 0-1.07-.94-1.28-2.03-1.43-.79-.11-1.49-.2-1.49-.91 0-.58.57-.96 1.43-.96.81 0 1.39.39 1.48 1.05h.52c-.09-.99-.9-1.49-2-1.49-1.13-.01-1.94.57-1.94 1.44 0 1.02.94 1.21 1.98 1.35.85.12 1.54.23 1.54.98 0 .6-.63.98-1.46.98-.97 0-1.6-.45-1.64-1.18h-.52zm13.268 1.1c-.28 0-.48-.06-.69-.32l-.5-.58 1.59-2.42h-.54l-1.36 2.05-1.56-1.83-.06-.07c1.34-.56 1.82-1.2 1.82-1.98 0-.83-.65-1.45-1.53-1.45-1.04 0-1.81.69-1.81 1.61 0 .64.22 1.04.76 1.7-1.22.52-1.71 1.24-1.71 2.03 0 1.15.91 1.78 2.05 1.78.78 0 1.46-.35 2.03-1.02l.49.58c.24.29.57.38.95.38h.7v-.46h-.63zm-2.87-6.16c.62 0 1.05.43 1.05 1.02 0 .68-.47 1.17-1.57 1.65-.51-.61-.72-.96-.72-1.51 0-.67.51-1.16 1.24-1.16zm-.66 6.22c-.88 0-1.54-.5-1.54-1.36 0-.73.41-1.18 1.45-1.68l.15.17 1.66 1.96c-.47.59-1.06.91-1.72.91zm13.544-4.73c-.93 0-1.53.52-1.82 1.27-.24-.84-.87-1.27-1.67-1.27-.87 0-1.39.51-1.65 1.14l-.08-1.08h-.44V8h.51V5.42c0-1.24.6-2.08 1.57-2.08.88 0 1.43.62 1.43 1.79V8h.51V5.24c.03-1.16.63-1.9 1.58-1.9.88 0 1.41.59 1.41 1.74V8h.52V5.06c0-1.53-.81-2.19-1.87-2.19zm5.164 5.19c1.43 0 2.44-1.06 2.44-2.6 0-1.53-1.01-2.59-2.44-2.59s-2.43 1.06-2.43 2.59c0 1.54 1 2.6 2.43 2.6zm0-.46c-1.13 0-1.91-.88-1.91-2.14 0-1.25.78-2.14 1.91-2.14s1.91.89 1.91 2.14c0 1.26-.78 2.14-1.91 2.14zm5.794-4.73c-.93 0-1.53.48-1.82 1.14l-.08-1.08h-.44V8h.51V5.5c0-1.32.67-2.16 1.75-2.16.98 0 1.57.64 1.57 1.84V8h.51V5.16c0-1.6-.85-2.29-2-2.29zm3.509 3.95c0 .81.33 1.18 1.19 1.18h.74v-.47h-.7c-.53 0-.72-.2-.72-.72V3.4h1.37v-.47h-1.37V1.51h-.51v1.42h-.96v.47h.96v3.42zm5.045-3.95c-.95 0-1.54.53-1.83 1.26V1h-.51v7h.51V5.5c0-1.32.67-2.16 1.75-2.16.97 0 1.57.64 1.57 1.84V8h.51V5.16c0-1.6-.85-2.29-2-2.29zM169.35 8h.51V1h-.51v7zm3.229 0l-.33.82c-.23.56-.32.71-.84.71h-.64V10h.78c.68 0 .84-.26 1.16-1.06l2.43-6.01h-.55l-1.73 4.41-1.76-4.41h-.55l2.03 5.07zm8.151.06c1.15 0 1.96-.66 2.16-1.69h-.54c-.17.75-.78 1.23-1.62 1.23-1.11 0-1.88-.87-1.88-2.13 0-1.26.76-2.15 1.88-2.15.85 0 1.45.48 1.63 1.24h.53c-.21-1.05-1-1.69-2.15-1.69-1.43 0-2.41 1.06-2.41 2.6 0 1.56.97 2.59 2.4 2.59zm7.611-.53c-.3 0-.45-.1-.45-.49V4.68c0-1.16-.71-1.81-1.98-1.81-1.16 0-1.93.56-2.06 1.48h.51c.13-.62.67-1.03 1.53-1.03.95 0 1.49.5 1.49 1.34v.44h-1.72c-1.3 0-2 .56-2 1.51 0 .9.71 1.45 1.79 1.45 1.03 0 1.64-.47 1.95-1.1v.18c-.02.6.23.86.83.86h.3v-.47h-.19zm-.96-1.58c0 .97-.69 1.67-1.89 1.67-.81 0-1.31-.41-1.31-1.04 0-.67.5-1.04 1.44-1.04h1.76v.41zm1.602.49c.04 1.05.89 1.62 2.16 1.62 1.09 0 1.97-.55 1.97-1.45 0-1.07-.94-1.28-2.03-1.43-.79-.11-1.49-.2-1.49-.91 0-.58.57-.96 1.43-.96.81 0 1.39.39 1.48 1.05h.52c-.09-.99-.9-1.49-2-1.49-1.13-.01-1.94.57-1.94 1.44 0 1.02.94 1.21 1.98 1.35.85.12 1.54.23 1.54.98 0 .6-.63.98-1.46.98-.97 0-1.6-.45-1.64-1.18h-.52zm7.443-3.57c-.95 0-1.54.53-1.83 1.26V1h-.51v7h.51V5.5c0-1.32.67-2.16 1.75-2.16.97 0 1.57.64 1.57 1.84V8h.51V5.16c0-1.6-.85-2.29-2-2.29zm7.904.06c-.94 0-1.34.45-1.55 1.01l-.08-1.01h-.44V8h.51V5.43c0-1.03.27-2.01 1.46-2.01h.37v-.49h-.27zm2.905 5.13c1.11 0 1.96-.72 2.18-1.74h-.52c-.2.79-.87 1.28-1.7 1.28-1.13 0-1.84-.86-1.86-2.04v-.09h4.14c0-.07.01-.15.01-.21-.05-1.51-.98-2.39-2.34-2.39-1.39 0-2.34 1.06-2.34 2.56 0 1.59.99 2.63 2.43 2.63zm-1.86-3.02c.08-1.03.85-1.72 1.78-1.72.99 0 1.7.61 1.78 1.72h-3.56zm7.568-2.17c-.95 0-1.62.52-1.94 1.24V1h-.51v7h.44l.08-1.15c.3.73.98 1.21 1.93 1.21 1.39 0 2.39-1.06 2.39-2.6 0-1.59-1-2.59-2.39-2.59zm-.04 4.73c-1.13 0-1.91-.88-1.91-2.15 0-1.24.78-2.13 1.91-2.13s1.91.89 1.91 2.14c0 1.26-.78 2.14-1.91 2.14zm7.899-.07c-.3 0-.45-.1-.45-.49V4.68c0-1.16-.71-1.81-1.98-1.81-1.16 0-1.93.56-2.06 1.48h.51c.13-.62.67-1.03 1.53-1.03.95 0 1.49.5 1.49 1.34v.44h-1.72c-1.3 0-2 .56-2 1.51 0 .9.71 1.45 1.79 1.45 1.03 0 1.64-.47 1.95-1.1v.18c-.02.6.23.86.83.86h.3v-.47h-.19zm-.96-1.58c0 .97-.69 1.67-1.89 1.67-.81 0-1.31-.41-1.31-1.04 0-.67.5-1.04 1.44-1.04h1.76v.41zm2.212.87c0 .81.33 1.18 1.19 1.18h.74v-.47h-.7c-.53 0-.72-.2-.72-.72V3.4h1.37v-.47h-1.37V1.51h-.51v1.42h-.96v.47h.96v3.42zm4.79 1.24c1.11 0 1.96-.72 2.18-1.74h-.52c-.2.79-.87 1.28-1.7 1.28-1.13 0-1.84-.86-1.86-2.04v-.09h4.14c0-.07.01-.15.01-.21-.05-1.51-.98-2.39-2.34-2.39-1.39 0-2.34 1.06-2.34 2.56 0 1.59.99 2.63 2.43 2.63zm-1.86-3.02c.08-1.03.85-1.72 1.78-1.72.99 0 1.7.61 1.78 1.72h-3.56zm4.878 1.4c.04 1.05.89 1.62 2.16 1.62 1.09 0 1.97-.55 1.97-1.45 0-1.07-.94-1.28-2.03-1.43-.79-.11-1.49-.2-1.49-.91 0-.58.57-.96 1.43-.96.81 0 1.39.39 1.48 1.05h.52c-.09-.99-.9-1.49-2-1.49-1.13-.01-1.94.57-1.94 1.44 0 1.02.94 1.21 1.98 1.35.85.12 1.54.23 1.54.98 0 .6-.63.98-1.46.98-.97 0-1.6-.45-1.64-1.18h-.52z" fill="#000"/></svg>