<svg width="95" height="8" viewBox="0 0 95 8" fill="none" xmlns="http://www.w3.org/2000/svg"><path d="M.27 3.588c0 1.523.72 2.342 2.104 2.342 1.393 0 2.12-.819 2.12-2.341V.526h-.88v3.107c0 .995-.383 1.516-1.24 1.516-.841 0-1.224-.52-1.224-1.516V.527H.27v3.061zM7.424 1.92c-.635 0-1.01.253-1.255.559l-.092-.513h-.72v3.918h.827V3.91c0-.796.39-1.278 1.049-1.278.62 0 .933.398.933 1.14v2.112h.835v-2.18c0-1.31-.712-1.784-1.577-1.784zm5.275.59c-.252-.345-.673-.59-1.27-.59-1.064 0-1.852.796-1.852 2.005 0 1.255.788 2.005 1.852 2.005.62 0 1.025-.29 1.278-.635l.1.59h.719V.526h-.827V2.51zm-1.132 2.724c-.69 0-1.14-.536-1.14-1.309 0-.765.45-1.3 1.14-1.3.688 0 1.14.535 1.14 1.316 0 .757-.452 1.293-1.14 1.293zm4.626.696c.972 0 1.63-.59 1.768-1.362h-.827c-.115.436-.482.689-.987.689-.65 0-1.071-.436-1.094-1.102V4.1h2.953c.016-.107.023-.214.023-.314-.023-1.147-.78-1.867-1.913-1.867-1.155 0-1.928.804-1.928 2.013 0 1.201.773 1.997 2.005 1.997zm-1.11-2.433c.062-.559.513-.911 1.041-.911.574 0 .98.33 1.048.91h-2.089zm5.597-1.53c-.643 0-.957.26-1.156.588l-.092-.589h-.734v3.918h.826V3.918c0-.605.237-1.179.972-1.179h.367v-.773h-.183zm.457 2.624c.023.85.743 1.34 1.791 1.34.95 0 1.66-.475 1.66-1.225 0-.873-.726-1.056-1.622-1.163-.566-.062-.94-.108-.94-.475 0-.314.32-.513.81-.513.49 0 .827.253.873.613h.81c-.053-.804-.734-1.248-1.698-1.248-.941-.007-1.607.475-1.607 1.217 0 .811.704 1.002 1.6 1.11.604.076.964.107.964.528 0 .313-.337.512-.85.512-.597 0-.949-.29-.98-.696h-.81zm4.375.23c0 .711.322 1.063 1.072 1.063h.765v-.727h-.582c-.313 0-.42-.115-.42-.42V2.692h.956v-.727h-.957V.872h-.834v1.094h-.68v.727h.68v2.128zm5.9.344c-.169 0-.253-.054-.253-.253V3.344c0-.926-.597-1.424-1.638-1.424-.987 0-1.645.475-1.73 1.24h.812c.061-.344.39-.574.88-.574.543 0 .857.268.857.704v.237h-.987c-1.095 0-1.676.452-1.676 1.255 0 .727.597 1.148 1.454 1.148.635 0 1.033-.275 1.293-.673 0 .39.184.627.72.627h.436v-.72h-.169zm-1.072-.888c-.008.605-.406 1.01-1.094 1.01-.452 0-.727-.23-.727-.558 0-.398.283-.59.796-.59h1.025v.138zm3.756-2.357c-.635 0-1.01.253-1.255.559l-.092-.513h-.72v3.918h.827V3.91c0-.796.39-1.278 1.049-1.278.62 0 .933.398.933 1.14v2.112h.834v-2.18c0-1.31-.711-1.784-1.576-1.784zm5.275.59c-.253-.345-.673-.59-1.27-.59-1.064 0-1.852.796-1.852 2.005 0 1.255.788 2.005 1.852 2.005.62 0 1.025-.29 1.278-.635l.1.59h.719V.526h-.827V2.51zm-1.133 2.724c-.688 0-1.14-.536-1.14-1.309 0-.765.452-1.3 1.14-1.3.69 0 1.14.535 1.14 1.316 0 .757-.45 1.293-1.14 1.293zm5.858.673l-.153.383c-.123.321-.2.398-.52.398h-.582v.727h.887c.574 0 .743-.283.988-.919l1.775-4.53h-.88l-1.064 2.977-1.094-2.977h-.88l1.523 3.941zm4.486.023c1.193 0 1.997-.803 1.997-2.005 0-1.194-.804-2.005-1.997-2.005-1.194 0-1.998.811-1.998 2.005 0 1.202.804 2.005 1.998 2.005zm0-.704c-.697 0-1.148-.543-1.148-1.3 0-.758.451-1.302 1.148-1.302.696 0 1.155.544 1.155 1.301 0 .758-.459 1.301-1.155 1.301zm5.348-1.3c0 .81-.383 1.285-1.01 1.285-.605 0-.911-.39-.911-1.156V1.966h-.827v2.181c0 1.34.712 1.783 1.546 1.783.605 0 .964-.245 1.21-.543l.091.497h.727V1.966h-.826v1.96zm3.623-1.96c-.643 0-.957.26-1.156.59l-.092-.59h-.734v3.918h.826V3.918c0-.605.237-1.179.972-1.179h.367v-.773h-.183zm4.633 0c-.643 0-.957.26-1.156.59l-.091-.59h-.735v3.918h.826V3.918c0-.605.238-1.179.972-1.179h.368v-.773h-.184zm1.114-.55a.489.489 0 00.505-.498A.489.489 0 0063.3.42a.489.489 0 00-.505.498c0 .29.222.497.505.497zm-.42 4.468h.826V1.966h-.827v3.918zm1.468-1.293c.023.85.742 1.34 1.79 1.34.95 0 1.66-.475 1.66-1.225 0-.873-.726-1.056-1.621-1.163-.567-.062-.942-.108-.942-.475 0-.314.322-.513.811-.513.49 0 .827.253.873.613h.811c-.053-.804-.735-1.248-1.699-1.248-.941-.007-1.607.475-1.607 1.217 0 .811.704 1.002 1.6 1.11.604.076.964.107.964.528 0 .313-.337.512-.85.512-.597 0-.949-.29-.98-.696h-.81zm4.091 1.293h.827V4.89l.704-.734 1.155 1.73h.98L70.536 3.55l1.477-1.584h-.972l-1.775 1.898V.527h-.827v5.357zm6.024 0h.826V.527h-.826v5.357zm3.496.046c.972 0 1.63-.59 1.768-1.362H78.9c-.115.436-.482.689-.987.689-.65 0-1.071-.436-1.094-1.102V4.1h2.954c.015-.107.023-.214.023-.314-.023-1.147-.78-1.867-1.914-1.867-1.155 0-1.928.804-1.928 2.013 0 1.201.773 1.997 2.005 1.997zm-1.11-2.433c.062-.559.513-.911 1.041-.911.574 0 .98.33 1.049.91h-2.09zm4.492 2.387h1.01l1.446-3.918h-.872l-1.064 3.03-1.08-3.03h-.887l1.447 3.918zm4.555.046c.971 0 1.63-.59 1.767-1.362h-.826c-.115.436-.482.689-.987.689-.65 0-1.072-.436-1.095-1.102V4.1h2.954c.016-.107.023-.214.023-.314-.023-1.147-.78-1.867-1.913-1.867-1.156 0-1.928.804-1.928 2.013 0 1.201.772 1.997 2.005 1.997zm-1.11-2.433c.061-.559.513-.911 1.04-.911.575 0 .98.33 1.05.91h-2.09zM88.4 5.884h.827V.527H88.4v5.357zm1.469-1.293c.023.85.742 1.34 1.79 1.34.95 0 1.661-.475 1.661-1.225 0-.873-.727-1.056-1.622-1.163-.567-.062-.942-.108-.942-.475 0-.314.322-.513.811-.513.49 0 .827.253.873.613h.811c-.053-.804-.735-1.248-1.699-1.248-.941-.007-1.607.475-1.607 1.217 0 .811.704 1.002 1.6 1.11.604.076.964.107.964.528 0 .313-.337.512-.85.512-.597 0-.949-.29-.98-.696h-.81zm3.963.819c0 .306.222.52.528.52.306 0 .535-.214.535-.52 0-.306-.23-.52-.535-.52a.504.504 0 00-.528.52z" fill="#000"/></svg>