<svg width="144" height="32" viewBox="0 0 144 32" fill="none" xmlns="http://www.w3.org/2000/svg"><rect width="144" height="32" rx="16" fill="#000"/><path d="M22.72 17.878c.09 2.484 1.89 4.23 4.968 4.23 2.646 0 4.482-1.53 4.482-3.708 0-2.448-2.106-3.132-4.158-3.474-1.89-.324-3.42-.63-3.42-2.142 0-1.35 1.098-2.07 2.736-2.07 1.71 0 2.88.954 3.06 2.412h1.62c-.144-2.268-1.872-3.834-4.68-3.834-2.556 0-4.302 1.44-4.302 3.582 0 2.448 2.088 3.114 4.122 3.456 1.908.324 3.456.648 3.456 2.214 0 1.368-1.206 2.142-2.898 2.142-1.926 0-3.24-1.116-3.366-2.808h-1.62zm11.906 1.728c0 1.62.63 2.394 2.394 2.394h1.602v-1.35h-1.458c-.792 0-1.062-.288-1.062-1.062V14.17h2.376v-1.35h-2.376v-2.574h-1.476v2.574H32.97v1.35h1.656v5.436zm13.252 1.044c-.414 0-.594-.126-.594-.612v-4.014c0-2.142-1.35-3.312-3.69-3.312-2.214 0-3.672 1.062-3.888 2.862h1.476c.18-.936 1.044-1.548 2.34-1.548 1.44 0 2.286.72 2.286 1.908v.63h-2.7c-2.412 0-3.69 1.026-3.69 2.862 0 1.674 1.368 2.682 3.384 2.682 1.584 0 2.502-.702 3.078-1.53.018.9.432 1.422 1.656 1.422h.81v-1.35h-.468zm-2.07-2.394c0 1.53-1.062 2.592-2.898 2.592-1.224 0-1.998-.612-1.998-1.512 0-1.044.738-1.53 2.052-1.53h2.844v.45zm7.92-5.436c-1.637 0-2.34.684-2.771 1.386l-.198-1.386H49.48V22h1.476v-4.68c0-1.458.522-3.06 2.448-3.06h.738v-1.44h-.414zm2.677 6.786c0 1.62.63 2.394 2.394 2.394H60.4v-1.35h-1.458c-.792 0-1.062-.288-1.062-1.062V14.17h2.376v-1.35H57.88v-2.574h-1.476v2.574h-1.656v1.35h1.656v5.436zm10.67 0c0 1.62.63 2.394 2.394 2.394h1.602v-1.35h-1.458c-.792 0-1.062-.288-1.062-1.062V14.17h2.376v-1.35H68.55v-2.574h-1.476v2.574h-1.656v1.35h1.656v5.436zm9.523-6.786c-1.638 0-2.34.684-2.772 1.386l-.198-1.386H72.35V22h1.476v-4.68c0-1.458.522-3.06 2.448-3.06h.738v-1.44h-.414zm9.495 7.83c-.414 0-.594-.126-.594-.612v-4.014c0-2.142-1.35-3.312-3.69-3.312-2.214 0-3.672 1.062-3.888 2.862h1.476c.18-.936 1.044-1.548 2.34-1.548 1.44 0 2.286.72 2.286 1.908v.63h-2.7c-2.412 0-3.69 1.026-3.69 2.862 0 1.674 1.368 2.682 3.384 2.682 1.584 0 2.502-.702 3.078-1.53.018.9.432 1.422 1.656 1.422h.81v-1.35h-.468zm-2.07-2.394c0 1.53-1.062 2.592-2.898 2.592-1.224 0-1.998-.612-1.998-1.512 0-1.044.738-1.53 2.052-1.53h2.844v.45zm10.803-4.032c-.558-.882-1.602-1.512-3.15-1.512-2.538 0-4.41 1.89-4.41 4.698 0 2.988 1.872 4.698 4.41 4.698 1.548 0 2.538-.738 3.15-1.584L95.024 22h1.278V9.4h-1.476v4.824zm-3.006 6.57c-1.818 0-3.042-1.386-3.042-3.384s1.224-3.384 3.042-3.384c1.8 0 3.024 1.404 3.024 3.42 0 1.962-1.224 3.348-3.024 3.348zm7.249-9.522c.54 0 .954-.396.954-.954a.927.927 0 00-.954-.954.927.927 0 00-.954.954c0 .558.414.954.954.954zM98.313 22h1.476v-9.18h-1.476V22zm7.998-9.288c-1.548 0-2.484.648-3.024 1.35l-.198-1.242h-1.278V22h1.476v-4.59c0-2.07 1.044-3.348 2.772-3.348 1.602 0 2.484 1.008 2.484 2.916V22h1.476v-5.112c0-3.042-1.638-4.176-3.708-4.176zm12.826 1.692c-.576-1.026-1.602-1.692-3.15-1.692-2.538 0-4.41 1.89-4.41 4.698 0 2.988 1.872 4.698 4.41 4.698 1.548 0 2.538-.648 3.15-1.692v1.08c0 1.998-1.044 2.898-2.97 2.898-1.53 0-2.556-.648-2.808-1.8h-1.512c.234 2.016 1.872 3.114 4.212 3.114 3.15 0 4.554-1.512 4.554-4.158v-8.73h-1.278l-.198 1.584zm-3.006 6.39c-1.818 0-3.042-1.386-3.042-3.384s1.224-3.384 3.042-3.384c1.8 0 3.024 1.404 3.024 3.42 0 1.962-1.224 3.348-3.024 3.348z" fill="#fff"/></svg>