<svg width="114" height="22" viewBox="0 0 114 22" fill="none" xmlns="http://www.w3.org/2000/svg"><path d="M7.17 4.5c0-2.05-1.39-3.56-3.4-3.56S.37 2.45.37 4.5s1.39 3.56 3.4 3.56 3.4-1.51 3.4-3.56zm-5.62 0c0-1.48.89-2.55 2.22-2.55S5.99 3.02 5.99 4.5c0 1.48-.89 2.55-2.22 2.55S1.55 5.98 1.55 4.5zm13.42-2.34c.37 0 .66-.27.66-.65s-.29-.65-.66-.65c-.37 0-.66.27-.66.65s.29.65.66.65zm-2.44.72v-.43c0-.35.15-.5.5-.5h.75V1h-.9c-.99 0-1.43.47-1.43 1.37v.51H9.53v-.43c0-.35.14-.5.49-.5h.76V1h-.91c-.99 0-1.43.47-1.43 1.37v.51h-.89v.95h.89V8h1.09V3.83h1.92V8h1.08V3.83h1.89V8h1.08V2.88h-2.97zm6.375 5.18c1.31 0 2.18-.73 2.38-1.89h-1.14c-.13.59-.57.97-1.23.97-.87 0-1.44-.69-1.44-1.69 0-1.01.57-1.71 1.44-1.71.67 0 1.1.37 1.24.97h1.13c-.21-1.16-1.03-1.89-2.35-1.89-1.55 0-2.57 1.05-2.57 2.63 0 1.6.99 2.61 2.54 2.61zm3.757-5.9c.37 0 .66-.27.66-.65s-.29-.65-.66-.65c-.37 0-.66.27-.66.65s.29.65.66.65zM22.112 8h1.08V2.88h-1.08V8zm6.819-.94c-.22 0-.33-.07-.33-.33V4.68c0-1.21-.78-1.86-2.14-1.86-1.29 0-2.15.62-2.26 1.62h1.06c.08-.45.51-.75 1.15-.75.71 0 1.12.35 1.12.92v.31h-1.29c-1.43 0-2.19.59-2.19 1.64 0 .95.78 1.5 1.9 1.5.83 0 1.35-.36 1.69-.88 0 .51.24.82.94.82h.57v-.94h-.22zm-1.4-1.16c-.01.79-.53 1.32-1.43 1.32-.59 0-.95-.3-.95-.73 0-.52.37-.77 1.04-.77h1.34v.18zM29.739 8h1.08V1h-1.08v7zm5.067-1.39c0 .93.42 1.39 1.4 1.39h1v-.95h-.76c-.41 0-.55-.15-.55-.55V3.83h1.25v-.95h-1.25V1.45h-1.09v1.43h-.89v.95h.89v2.78zm5.677-3.73c-.84 0-1.25.34-1.51.77l-.12-.77h-.96V8h1.08V5.43c0-.79.31-1.54 1.27-1.54h.48V2.88h-.24zm5.43 4.18c-.22 0-.33-.07-.33-.33V4.68c0-1.21-.78-1.86-2.14-1.86-1.29 0-2.15.62-2.26 1.62h1.06c.08-.45.51-.75 1.15-.75.71 0 1.12.35 1.12.92v.31h-1.29c-1.43 0-2.19.59-2.19 1.64 0 .95.78 1.5 1.9 1.5.83 0 1.35-.36 1.69-.88 0 .51.24.82.94.82h.57v-.94h-.22zm-1.4-1.16c-.01.79-.53 1.32-1.43 1.32-.59 0-.95-.3-.95-.73 0-.52.37-.77 1.04-.77h1.34v.18zm6.06-2.31c-.33-.45-.88-.77-1.66-.77-1.39 0-2.42 1.04-2.42 2.62 0 1.64 1.03 2.62 2.42 2.62.81 0 1.34-.38 1.67-.83l.13.77h.94V1h-1.08v2.59zm-1.48 3.56c-.9 0-1.49-.7-1.49-1.71 0-1 .59-1.7 1.49-1.7s1.49.7 1.49 1.72c0 .99-.59 1.69-1.49 1.69zm4.165-4.99c.37 0 .66-.27.66-.65s-.29-.65-.66-.65c-.37 0-.66.27-.66.65s.29.65.66.65zM52.708 8h1.08V2.88h-1.08V8zm4.838-5.18c-.83 0-1.32.33-1.64.73l-.12-.67h-.94V8h1.08V5.42c0-1.04.51-1.67 1.37-1.67.81 0 1.22.52 1.22 1.49V8h1.09V5.15c0-1.71-.93-2.33-2.06-2.33zm6.953.86c-.33-.51-.88-.86-1.68-.86-1.39 0-2.42 1.03-2.42 2.6 0 1.63 1.03 2.6 2.42 2.6.8 0 1.33-.33 1.67-.84v.57c0 .98-.53 1.43-1.47 1.43-.76 0-1.26-.33-1.39-.9h-1.1c.1 1.15 1.05 1.78 2.41 1.78 1.84 0 2.62-.88 2.62-2.27V2.88h-.94l-.12.8zm-1.5 3.43c-.9 0-1.49-.69-1.49-1.69 0-.99.59-1.69 1.49-1.69s1.49.7 1.49 1.71c0 .98-.59 1.67-1.49 1.67zm8.914-4.29c-.8 0-1.33.37-1.67.82l-.13-.76h-.94V10h1.08V7.28c.32.46.87.78 1.66.78 1.4 0 2.42-1.04 2.42-2.62 0-1.64-1.02-2.62-2.42-2.62zm-.18 4.33c-.9 0-1.49-.71-1.49-1.73 0-.99.59-1.68 1.49-1.68s1.5.69 1.5 1.7c0 1-.6 1.71-1.5 1.71zm8.145-.09c-.22 0-.33-.07-.33-.33V4.68c0-1.21-.78-1.86-2.14-1.86-1.29 0-2.15.62-2.26 1.62h1.06c.08-.45.51-.75 1.15-.75.71 0 1.12.35 1.12.92v.31h-1.29c-1.43 0-2.19.59-2.19 1.64 0 .95.78 1.5 1.9 1.5.83 0 1.35-.36 1.69-.88 0 .51.24.82.94.82h.57v-.94h-.22zm-1.4-1.16c-.01.79-.53 1.32-1.43 1.32-.59 0-.95-.3-.95-.73 0-.52.37-.77 1.04-.77h1.34v.18zm4.798-3.02c-.84 0-1.25.34-1.51.77l-.12-.77h-.96V8h1.08V5.43c0-.79.31-1.54 1.27-1.54h.48V2.88h-.24zm1.462 3.73c0 .93.42 1.39 1.4 1.39h1v-.95h-.76c-.41 0-.55-.15-.55-.55V3.83h1.25v-.95h-1.25V1.45h-1.09v1.43h-.89v.95h.89v2.78zm5.787-3.79c-.83 0-1.32.33-1.64.73l-.12-.67h-.94V8h1.08V5.42c0-1.04.51-1.67 1.37-1.67.81 0 1.22.52 1.22 1.49V8h1.09V5.15c0-1.71-.93-2.33-2.06-2.33zm5.433 5.24c1.27 0 2.13-.77 2.31-1.78h-1.08c-.15.57-.63.9-1.29.9-.85 0-1.4-.57-1.43-1.44v-.07h3.86c.02-.14.03-.28.03-.41-.03-1.5-1.02-2.44-2.5-2.44-1.51 0-2.52 1.05-2.52 2.63 0 1.57 1.01 2.61 2.62 2.61zm-1.45-3.18c.08-.73.67-1.19 1.36-1.19.75 0 1.28.43 1.37 1.19h-2.73zm7.313-2c-.84 0-1.25.34-1.51.77l-.12-.77h-.96V8h1.08V5.43c0-.79.31-1.54 1.27-1.54h.48V2.88h-.24zm5.885 5.18c1.56 0 2.61-1.05 2.61-2.62 0-1.56-1.05-2.62-2.61-2.62-1.56 0-2.61 1.06-2.61 2.62 0 1.57 1.05 2.62 2.61 2.62zm0-.92c-.91 0-1.5-.71-1.5-1.7s.59-1.7 1.5-1.7 1.51.71 1.51 1.7-.6 1.7-1.51 1.7zm2.919-3.31h.89V8h1.09V3.83h1.37v-.95h-1.39v-.43c0-.35.15-.5.5-.5h.89V1h-1.03c-.99 0-1.43.48-1.43 1.4v.48h-.89v.95zM.9 18.61c0 .93.42 1.39 1.4 1.39h1v-.95h-.76c-.41 0-.55-.15-.55-.55v-2.67h1.25v-.95H1.99v-1.43H.9v1.43H.01v.95H.9v2.78zm5.777-3.79c-.8 0-1.29.36-1.61.8V13h-1.08v7h1.08v-2.59c0-1.03.52-1.66 1.37-1.66.8 0 1.23.52 1.23 1.49V20h1.08v-2.85c0-1.71-.93-2.33-2.07-2.33zm5.443 5.24c1.27 0 2.13-.77 2.31-1.78h-1.08c-.15.57-.63.9-1.29.9-.85 0-1.4-.57-1.43-1.44v-.07h3.86c.02-.14.03-.28.03-.41-.03-1.5-1.02-2.44-2.5-2.44-1.51 0-2.52 1.05-2.52 2.63 0 1.57 1.01 2.61 2.62 2.61zm-1.45-3.18c.08-.73.67-1.19 1.36-1.19.75 0 1.28.43 1.37 1.19h-2.73zm7.112.82c.04 1.4 1.09 2.36 2.83 2.36 1.54 0 2.59-.87 2.59-2.13.01-1.38-1.12-1.75-2.28-1.96-1.1-.19-1.82-.34-1.82-1.06 0-.66.55-1 1.34-1 .85 0 1.41.48 1.5 1.19h1.15c-.05-1.29-1.05-2.16-2.65-2.16-1.49 0-2.49.83-2.49 2.05 0 1.39 1.1 1.76 2.26 1.96 1.11.2 1.84.36 1.84 1.1 0 .67-.6 1.04-1.43 1.04-.98 0-1.62-.55-1.68-1.37l-1.16-.02zm7.734 2.33l-.2.5c-.16.42-.26.52-.68.52h-.76V22h1.16c.75 0 .97-.37 1.29-1.2l2.32-5.92h-1.15l-1.39 3.89-1.43-3.89h-1.15l1.99 5.15zm7.332-4.44c-.33-.45-.88-.77-1.66-.77-1.39 0-2.42 1.04-2.42 2.62 0 1.64 1.03 2.62 2.42 2.62.81 0 1.34-.38 1.67-.83l.13.77h.94v-7h-1.08v2.59zm-1.48 3.56c-.9 0-1.49-.7-1.49-1.71 0-1 .59-1.7 1.49-1.7s1.49.7 1.49 1.72c0 .99-.59 1.69-1.49 1.69zm6.315-4.33c-.83 0-1.32.33-1.64.73l-.12-.67h-.94V20h1.08v-2.58c0-1.04.51-1.67 1.37-1.67.81 0 1.22.52 1.22 1.49V20h1.09v-2.85c0-1.71-.93-2.33-2.06-2.33zm5.433 5.24c1.27 0 2.13-.77 2.31-1.78h-1.08c-.15.57-.63.9-1.29.9-.85 0-1.4-.57-1.43-1.44v-.07h3.86c.02-.14.03-.28.03-.41-.03-1.5-1.02-2.44-2.5-2.44-1.51 0-2.52 1.05-2.52 2.63 0 1.57 1.01 2.61 2.62 2.61zm-1.45-3.18c.08-.73.67-1.19 1.36-1.19.75 0 1.28.43 1.37 1.19h-2.73zm5.969 3.15l-.2.5c-.16.42-.26.52-.68.52h-.76V22h1.16c.75 0 .97-.37 1.29-1.2l2.32-5.92h-1.15l-1.39 3.89-1.43-3.89h-1.15l1.99 5.15zM53.98 20h1.15v-2.54h1.54L58.02 20h1.28l-1.48-2.79c.82-.29 1.36-1.04 1.36-1.98 0-1.36-.98-2.23-2.44-2.23h-2.76v7zm2.67-6c.82 0 1.35.48 1.35 1.23s-.53 1.23-1.35 1.23h-1.52V14h1.52zm5.626 6.06c1.56 0 2.61-1.05 2.61-2.62 0-1.56-1.05-2.62-2.61-2.62-1.56 0-2.61 1.06-2.61 2.62 0 1.57 1.05 2.62 2.61 2.62zm0-.92c-.91 0-1.5-.71-1.5-1.7s.59-1.7 1.5-1.7 1.51.71 1.51 1.7-.6 1.7-1.51 1.7zm5.899.92c1.56 0 2.61-1.05 2.61-2.62 0-1.56-1.05-2.62-2.61-2.62-1.56 0-2.61 1.06-2.61 2.62 0 1.57 1.05 2.62 2.61 2.62zm0-.92c-.91 0-1.5-.71-1.5-1.7s.59-1.7 1.5-1.7 1.51.71 1.51 1.7-.6 1.7-1.51 1.7zm3.229-.83c.03 1.11.97 1.75 2.34 1.75 1.24 0 2.17-.62 2.17-1.6 0-1.14-.95-1.38-2.12-1.52-.74-.08-1.23-.14-1.23-.62 0-.41.42-.67 1.06-.67.64 0 1.08.33 1.14.8h1.06c-.07-1.05-.96-1.63-2.22-1.63-1.23-.01-2.1.62-2.1 1.59 0 1.06.92 1.31 2.09 1.45.79.1 1.26.14 1.26.69 0 .41-.44.67-1.11.67-.78 0-1.24-.38-1.28-.91h-1.06zm5.717.3c0 .93.42 1.39 1.4 1.39h1v-.95h-.76c-.41 0-.55-.15-.55-.55v-2.67h1.25v-.95h-1.25v-1.43h-1.09v1.43h-.89v.95h.89v2.78zm5.41 1.45c1.27 0 2.13-.77 2.31-1.78h-1.08c-.15.57-.63.9-1.29.9-.85 0-1.4-.57-1.43-1.44v-.07h3.86c.02-.14.03-.28.03-.41-.03-1.5-1.02-2.44-2.5-2.44-1.51 0-2.52 1.05-2.52 2.63 0 1.57 1.01 2.61 2.62 2.61zm-1.45-3.18c.08-.73.67-1.19 1.36-1.19.75 0 1.28.43 1.37 1.19h-2.73zm7.312-2c-.84 0-1.25.34-1.51.77l-.12-.77h-.96V20h1.08v-2.57c0-.79.31-1.54 1.27-1.54h.48v-1.01h-.24zm.599 3.43c.03 1.11.97 1.75 2.34 1.75 1.24 0 2.17-.62 2.17-1.6 0-1.14-.95-1.38-2.12-1.52-.74-.08-1.23-.14-1.23-.62 0-.41.42-.67 1.06-.67.64 0 1.08.33 1.14.8h1.06c-.07-1.05-.96-1.63-2.22-1.63-1.23-.01-2.1.62-2.1 1.59 0 1.06.92 1.31 2.09 1.45.79.1 1.26.14 1.26.69 0 .41-.44.67-1.11.67-.78 0-1.24-.38-1.28-.91h-1.06z" fill="#000"/></svg>