<svg width="253" height="11" viewBox="0 0 253 11" fill="none" xmlns="http://www.w3.org/2000/svg"><path d="M2.82 8.5h.768L5.76 1.168 7.932 8.5H8.7L11.268.1h-.672L8.328 7.648 6.12.1h-.66L3.192 7.648.948.1H.264L2.82 8.5zm9.743-7.368c.24 0 .432-.18.432-.432a.423.423 0 00-.432-.432c-.24 0-.432.18-.432.432s.192.432.432.432zM12.251 8.5h.612V2.416h-.612V8.5zm2.507-1.416c0 .972.396 1.416 1.428 1.416h.888v-.564h-.84c-.636 0-.864-.24-.864-.864V2.98h1.644v-.564H15.37V.712h-.612v1.704h-1.152v.564h1.152v4.104zm6.055-4.74c-1.14 0-1.848.636-2.196 1.512V.1h-.612v8.4h.612v-3c0-1.584.804-2.592 2.1-2.592 1.164 0 1.884.768 1.884 2.208V8.5h.612V5.092c0-1.92-1.02-2.748-2.4-2.748zm9.653 6.228c1.38 0 2.352-.792 2.592-2.028h-.648c-.204.9-.936 1.476-1.944 1.476-1.332 0-2.256-1.044-2.256-2.556s.912-2.58 2.256-2.58c1.02 0 1.74.576 1.956 1.488h.636c-.252-1.26-1.2-2.028-2.58-2.028-1.716 0-2.892 1.272-2.892 3.12 0 1.872 1.164 3.108 2.88 3.108zm6.47 0c1.715 0 2.927-1.272 2.927-3.12 0-1.836-1.212-3.108-2.928-3.108S34.02 3.616 34.02 5.452c0 1.848 1.2 3.12 2.916 3.12zm0-.552c-1.357 0-2.293-1.056-2.293-2.568 0-1.5.936-2.568 2.292-2.568 1.356 0 2.292 1.068 2.292 2.568 0 1.512-.936 2.568-2.292 2.568zM47.87 2.344c-1.116 0-1.836.624-2.184 1.524-.288-1.008-1.044-1.524-2.004-1.524-1.044 0-1.668.612-1.98 1.368l-.096-1.296h-.528V8.5h.612V5.404c0-1.488.72-2.496 1.884-2.496 1.056 0 1.716.744 1.716 2.148V8.5h.612V5.188c.036-1.392.756-2.28 1.896-2.28 1.056 0 1.692.708 1.692 2.088V8.5h.624V4.972c0-1.836-.972-2.628-2.244-2.628zm10.395 0c-1.116 0-1.836.624-2.184 1.524-.288-1.008-1.044-1.524-2.004-1.524-1.044 0-1.668.612-1.98 1.368l-.096-1.296h-.528V8.5h.612V5.404c0-1.488.72-2.496 1.884-2.496 1.056 0 1.716.744 1.716 2.148V8.5h.612V5.188c.036-1.392.756-2.28 1.896-2.28 1.056 0 1.692.708 1.692 2.088V8.5h.624V4.972c0-1.836-.972-2.628-2.244-2.628zm3.914-1.212c.24 0 .432-.18.432-.432a.423.423 0 00-.432-.432c-.24 0-.432.18-.432.432s.192.432.432.432zM61.868 8.5h.612V2.416h-.612V8.5zm1.775-1.872c.048 1.26 1.068 1.944 2.592 1.944 1.308 0 2.364-.66 2.364-1.74 0-1.284-1.128-1.536-2.436-1.716-.948-.132-1.788-.24-1.788-1.092 0-.696.684-1.152 1.716-1.152.972 0 1.668.468 1.776 1.26h.624c-.108-1.188-1.08-1.788-2.4-1.788-1.356-.012-2.328.684-2.328 1.728 0 1.224 1.128 1.452 2.376 1.62 1.02.144 1.848.276 1.848 1.176 0 .72-.756 1.176-1.752 1.176-1.164 0-1.92-.54-1.968-1.416h-.624zm5.73 0c.049 1.26 1.069 1.944 2.593 1.944 1.308 0 2.364-.66 2.364-1.74 0-1.284-1.128-1.536-2.436-1.716-.948-.132-1.788-.24-1.788-1.092 0-.696.684-1.152 1.716-1.152.972 0 1.668.468 1.776 1.26h.624c-.108-1.188-1.08-1.788-2.4-1.788-1.356-.012-2.328.684-2.328 1.728 0 1.224 1.128 1.452 2.376 1.62 1.02.144 1.848.276 1.848 1.176 0 .72-.756 1.176-1.752 1.176-1.164 0-1.92-.54-1.968-1.416h-.624zm6.436-5.496c.24 0 .432-.18.432-.432a.423.423 0 00-.432-.432c-.24 0-.432.18-.432.432s.192.432.432.432zM75.497 8.5h.612V2.416h-.612V8.5zm4.74.072c1.715 0 2.927-1.272 2.927-3.12 0-1.836-1.212-3.108-2.928-3.108S77.32 3.616 77.32 5.452c0 1.848 1.2 3.12 2.916 3.12zm0-.552c-1.357 0-2.293-1.056-2.293-2.568 0-1.5.936-2.568 2.292-2.568 1.356 0 2.292 1.068 2.292 2.568 0 1.512-.936 2.568-2.292 2.568zm6.951-5.676c-1.116 0-1.836.576-2.184 1.368l-.096-1.296h-.528V8.5h.612v-3c0-1.584.804-2.592 2.1-2.592 1.176 0 1.884.768 1.884 2.208V8.5h.612V5.092c0-1.92-1.02-2.748-2.4-2.748zm7.619 3v-.516H90.93v.516h3.876zm.467-2.364h1.152V8.5h.612V2.98h1.824v-.564h-1.824v-.912c0-.6.228-.84.84-.84h.996V.1h-1.02c-1.02 0-1.428.444-1.428 1.416v.9h-1.152v.564zm6.813-.564c-1.128 0-1.608.54-1.86 1.212l-.096-1.212h-.528V8.5h.612V5.416c0-1.236.324-2.412 1.752-2.412h.444v-.588h-.324zm3.485 6.156c1.332 0 2.352-.864 2.616-2.088h-.624c-.24.948-1.044 1.536-2.04 1.536-1.356 0-2.208-1.032-2.232-2.448v-.108h4.968c0-.084.012-.18.012-.252-.06-1.812-1.176-2.868-2.808-2.868-1.668 0-2.808 1.272-2.808 3.072 0 1.908 1.188 3.156 2.916 3.156zm-2.232-3.624c.096-1.236 1.02-2.064 2.136-2.064 1.188 0 2.04.732 2.136 2.064h-4.272zm8.83 3.624c1.332 0 2.352-.864 2.616-2.088h-.624c-.24.948-1.044 1.536-2.04 1.536-1.356 0-2.208-1.032-2.232-2.448v-.108h4.968c0-.084.012-.18.012-.252-.06-1.812-1.176-2.868-2.808-2.868-1.668 0-2.808 1.272-2.808 3.072 0 1.908 1.188 3.156 2.916 3.156zm-2.232-3.624c.096-1.236 1.02-2.064 2.136-2.064 1.188 0 2.04.732 2.136 2.064h-4.272zm13.072 3.624c1.8 0 3.072-.972 3.432-2.664h-.684c-.36 1.344-1.332 2.064-2.76 2.064-1.944 0-3.168-1.524-3.168-3.672s1.248-3.672 3.192-3.672c1.404 0 2.388.732 2.76 2.052h.684C126.094 1 124.822.028 123.058.028c-2.364 0-3.9 1.752-3.9 4.272 0 2.544 1.5 4.272 3.852 4.272zm4.827-.072h.648V4.624h3.624v-.6h-3.624V.7h4.344V.1h-4.992v8.4zm8.577 0c2.664 0 4.224-1.656 4.224-4.2 0-2.556-1.56-4.2-4.224-4.2h-2.448v8.4h2.448zm-1.8-7.8h1.8c2.292 0 3.564 1.392 3.564 3.6 0 2.196-1.272 3.6-3.564 3.6h-1.8V.7zm11.007 6.384c0 .972.396 1.416 1.428 1.416h.888v-.564h-.84c-.636 0-.864-.24-.864-.864V2.98h1.644v-.564h-1.644V.712h-.612v1.704h-1.152v.564h1.152v4.104zm5.731-4.668c-1.128 0-1.608.54-1.86 1.212l-.096-1.212h-.528V8.5h.612V5.416c0-1.236.324-2.412 1.752-2.412h.444v-.588h-.324zm6.325 5.52c-.36 0-.54-.12-.54-.588V4.516c0-1.392-.852-2.172-2.376-2.172-1.392 0-2.316.672-2.472 1.776h.612c.156-.744.804-1.236 1.836-1.236 1.14 0 1.788.6 1.788 1.608v.528h-2.064c-1.56 0-2.4.672-2.4 1.812 0 1.08.852 1.74 2.148 1.74 1.236 0 1.968-.564 2.34-1.32v.216c-.024.72.276 1.032.996 1.032h.36v-.564h-.228zm-1.152-1.896c0 1.164-.828 2.004-2.268 2.004-.972 0-1.572-.492-1.572-1.248 0-.804.6-1.248 1.728-1.248h2.112v.492zm7.073-2.256c-.372-.864-1.188-1.44-2.328-1.44-1.668 0-2.868 1.272-2.868 3.108 0 1.92 1.2 3.12 2.868 3.12 1.14 0 1.932-.612 2.316-1.464l.096 1.392h.528V.1h-.612v3.684zm-2.28 4.236c-1.356 0-2.292-1.056-2.292-2.568 0-1.5.936-2.568 2.292-2.568 1.356 0 2.292 1.068 2.292 2.58 0 1.5-.936 2.556-2.292 2.556zm4.644-6.888c.24 0 .432-.18.432-.432a.423.423 0 00-.432-.432c-.24 0-.432.18-.432.432s.192.432.432.432zM165.65 8.5h.612V2.416h-.612V8.5zm4.858-6.156c-1.116 0-1.836.576-2.184 1.368l-.096-1.296h-.528V8.5h.612v-3c0-1.584.804-2.592 2.1-2.592 1.176 0 1.884.768 1.884 2.208V8.5h.612V5.092c0-1.92-1.02-2.748-2.4-2.748zm8.711 1.488c-.372-.9-1.188-1.488-2.316-1.488-1.668 0-2.868 1.26-2.868 3.108 0 1.92 1.2 3.12 2.868 3.12 1.14 0 1.944-.6 2.328-1.548v1.08c0 1.62-.768 2.316-2.232 2.316-1.14 0-1.932-.516-2.124-1.44h-.636c.192 1.296 1.236 1.992 2.712 1.992 1.968 0 2.892-.936 2.892-2.844V2.416h-.528l-.096 1.416zm-2.268 4.188c-1.356 0-2.292-1.056-2.292-2.568s.936-2.568 2.292-2.568c1.356 0 2.292 1.056 2.292 2.58 0 1.5-.936 2.556-2.292 2.556zm10.254.552c1.716 0 2.928-1.272 2.928-3.12 0-1.836-1.212-3.108-2.928-3.108s-2.916 1.272-2.916 3.108c0 1.848 1.2 3.12 2.916 3.12zm0-.552c-1.356 0-2.292-1.056-2.292-2.568 0-1.5.936-2.568 2.292-2.568 1.356 0 2.292 1.068 2.292 2.568 0 1.512-.936 2.568-2.292 2.568zm6.952-5.676c-1.116 0-1.836.576-2.184 1.368l-.096-1.296h-.528V8.5h.612v-3c0-1.584.804-2.592 2.1-2.592 1.176 0 1.884.768 1.884 2.208V8.5h.612V5.092c0-1.92-1.02-2.748-2.4-2.748zm7.097 2.688c0 2.34.996 3.54 3.06 3.54 2.076 0 3.084-1.2 3.084-3.54V.1h-.648v4.968c0 1.932-.744 2.904-2.436 2.904-1.668 0-2.412-.972-2.412-2.904V.1h-.648v4.932zm7.528.888c.084 1.584 1.236 2.652 3.12 2.652 1.764 0 2.928-.96 2.928-2.376 0-1.596-1.416-2.004-2.808-2.244-1.284-.216-2.4-.432-2.4-1.632 0-1.092.852-1.704 2.172-1.704 1.26 0 2.124.708 2.268 1.8h.66c-.12-1.44-1.212-2.388-2.928-2.388-1.704 0-2.82.9-2.82 2.328 0 1.596 1.368 1.956 2.712 2.184 1.32.228 2.496.492 2.496 1.716 0 1.08-.912 1.728-2.268 1.728-1.416 0-2.376-.816-2.46-2.064h-.672zm10.287.708c.048 1.26 1.068 1.944 2.592 1.944 1.308 0 2.364-.66 2.364-1.74 0-1.284-1.128-1.536-2.436-1.716-.948-.132-1.788-.24-1.788-1.092 0-.696.684-1.152 1.716-1.152.972 0 1.668.468 1.776 1.26h.624c-.108-1.188-1.08-1.788-2.4-1.788-1.356-.012-2.328.684-2.328 1.728 0 1.224 1.128 1.452 2.376 1.62 1.02.144 1.848.276 1.848 1.176 0 .72-.756 1.176-1.752 1.176-1.164 0-1.92-.54-1.968-1.416h-.624zm8.932-4.284c-1.14 0-1.848.636-2.196 1.512V.1h-.612v8.4h.612v-3c0-1.584.804-2.592 2.1-2.592 1.164 0 1.884.768 1.884 2.208V8.5h.612V5.092c0-1.92-1.02-2.748-2.4-2.748zm9.118 5.592c-.36 0-.54-.12-.54-.588V4.516c0-1.392-.852-2.172-2.376-2.172-1.392 0-2.316.672-2.472 1.776h.612c.156-.744.804-1.236 1.836-1.236 1.14 0 1.788.6 1.788 1.608v.528h-2.064c-1.56 0-2.4.672-2.4 1.812 0 1.08.852 1.74 2.148 1.74 1.236 0 1.968-.564 2.34-1.32v.216c-.024.72.276 1.032.996 1.032h.36v-.564h-.228zm-1.152-1.896c0 1.164-.828 2.004-2.268 2.004-.972 0-1.572-.492-1.572-1.248 0-.804.6-1.248 1.728-1.248h2.112v.492zm4.682-3.624c-1.128 0-1.608.54-1.86 1.212l-.096-1.212h-.528V8.5h.612V5.416c0-1.236.324-2.412 1.752-2.412h.444v-.588h-.324zm3.486 6.156c1.332 0 2.352-.864 2.616-2.088h-.624c-.24.948-1.044 1.536-2.04 1.536-1.356 0-2.208-1.032-2.232-2.448v-.108h4.968c0-.084.012-.18.012-.252-.06-1.812-1.176-2.868-2.808-2.868-1.668 0-2.808 1.272-2.808 3.072 0 1.908 1.188 3.156 2.916 3.156zm-2.232-3.624c.096-1.236 1.02-2.064 2.136-2.064 1.188 0 2.04.732 2.136 2.064h-4.272zm5.854 1.68c.048 1.26 1.068 1.944 2.592 1.944 1.308 0 2.364-.66 2.364-1.74 0-1.284-1.128-1.536-2.436-1.716-.948-.132-1.788-.24-1.788-1.092 0-.696.684-1.152 1.716-1.152.972 0 1.668.468 1.776 1.26h.624c-.108-1.188-1.08-1.788-2.4-1.788-1.356-.012-2.328.684-2.328 1.728 0 1.224 1.128 1.452 2.376 1.62 1.02.144 1.848.276 1.848 1.176 0 .72-.756 1.176-1.752 1.176-1.164 0-1.92-.54-1.968-1.416h-.624z" fill="#000"/></svg>