<svg width="331" height="49" viewBox="0 0 331 49" fill="none" xmlns="http://www.w3.org/2000/svg"><path d="M.56 3.256h6.048V20h3.22V3.256h6.048V.4H.56v2.856zm23.27 2.408c-2.352 0-3.5.952-4.228 2.156l-.336-2.156h-2.688V20h3.024v-7.196c0-2.212.868-4.312 3.556-4.312h1.344V5.664h-.672zm15.203 11.704c-.616 0-.924-.196-.924-.924v-5.74c0-3.388-2.184-5.208-5.992-5.208-3.612 0-6.02 1.736-6.328 4.536h2.968c.224-1.26 1.428-2.1 3.22-2.1 1.988 0 3.136.98 3.136 2.576v.868h-3.612c-4.004 0-6.132 1.652-6.132 4.592 0 2.66 2.184 4.2 5.32 4.2 2.324 0 3.78-1.008 4.732-2.464 0 1.428.672 2.296 2.632 2.296h1.596v-2.632h-.616zm-3.92-3.248c-.028 2.212-1.484 3.696-4.004 3.696-1.652 0-2.66-.84-2.66-2.044 0-1.456 1.036-2.156 2.912-2.156h3.752v.504zM52.08 7.652c-.924-1.26-2.464-2.156-4.648-2.156-3.892 0-6.776 2.912-6.776 7.336 0 4.592 2.884 7.336 6.776 7.336 2.268 0 3.752-1.064 4.676-2.324L52.471 20h2.632V.4H52.08v7.252zm-4.144 9.968c-2.52 0-4.172-1.96-4.172-4.788 0-2.8 1.652-4.76 4.172-4.76 2.52 0 4.172 1.96 4.172 4.816 0 2.772-1.652 4.732-4.172 4.732zm16.927 2.548c3.556 0 5.964-2.156 6.468-4.984h-3.024c-.42 1.596-1.764 2.52-3.612 2.52-2.38 0-3.92-1.596-4.004-4.032v-.196h10.808c.056-.392.084-.784.084-1.148-.084-4.2-2.856-6.832-7-6.832-4.228 0-7.056 2.94-7.056 7.364 0 4.396 2.828 7.308 7.336 7.308zm-4.06-8.904c.224-2.044 1.876-3.332 3.808-3.332 2.1 0 3.584 1.204 3.836 3.332h-7.644zm20.585.336c0 5.572 2.632 8.568 7.7 8.568 5.096 0 7.756-2.996 7.756-8.568V.4h-3.22v11.368c0 3.64-1.4 5.544-4.536 5.544-3.08 0-4.48-1.904-4.48-5.544V.4h-3.22v11.2zm18.14 1.96c.112 3.92 3.053 6.608 7.925 6.608 4.312 0 7.252-2.436 7.252-5.964.028-3.864-3.136-4.9-6.384-5.488-3.08-.532-5.096-.952-5.096-2.968 0-1.848 1.54-2.8 3.752-2.8 2.38 0 3.948 1.344 4.2 3.332h3.22c-.14-3.612-2.94-6.048-7.42-6.048-4.172 0-6.972 2.324-6.972 5.74 0 3.892 3.08 4.928 6.328 5.488 3.108.56 5.152 1.008 5.152 3.08 0 1.876-1.68 2.912-4.004 2.912-2.744 0-4.536-1.54-4.704-3.836l-3.248-.056zm24.251 1.708c.084 3.108 2.716 4.9 6.552 4.9 3.472 0 6.076-1.736 6.076-4.48 0-3.192-2.66-3.864-5.936-4.256-2.072-.224-3.444-.392-3.444-1.736 0-1.148 1.176-1.876 2.968-1.876s3.024.924 3.192 2.24h2.968c-.196-2.94-2.688-4.564-6.216-4.564-3.444-.028-5.88 1.736-5.88 4.452 0 2.968 2.576 3.668 5.852 4.06 2.212.28 3.528.392 3.528 1.932 0 1.148-1.232 1.876-3.108 1.876-2.184 0-3.472-1.064-3.584-2.548h-2.968zm22.504-9.772c-2.24 0-3.612 1.008-4.508 2.24V.4h-3.024V20h3.024v-7.252c0-2.884 1.456-4.648 3.836-4.648 2.24 0 3.444 1.456 3.444 4.172V20h3.024v-7.98c0-4.788-2.604-6.524-5.796-6.524zm21.65 11.872c-.616 0-.924-.196-.924-.924v-5.74c0-3.388-2.184-5.208-5.992-5.208-3.612 0-6.02 1.736-6.328 4.536h2.968c.224-1.26 1.428-2.1 3.22-2.1 1.988 0 3.136.98 3.136 2.576v.868H160.4c-4.004 0-6.132 1.652-6.132 4.592 0 2.66 2.184 4.2 5.32 4.2 2.324 0 3.78-1.008 4.732-2.464 0 1.428.672 2.296 2.632 2.296h1.596v-2.632h-.616zm-3.92-3.248c-.028 2.212-1.484 3.696-4.004 3.696-1.652 0-2.66-.84-2.66-2.044 0-1.456 1.036-2.156 2.912-2.156h3.752v.504zm13.435-8.456c-2.352 0-3.5.952-4.228 2.156l-.336-2.156h-2.688V20h3.024v-7.196c0-2.212.868-4.312 3.556-4.312h1.344V5.664h-.672zm8.657 14.504c3.556 0 5.964-2.156 6.468-4.984h-3.024c-.42 1.596-1.764 2.52-3.612 2.52-2.38 0-3.92-1.596-4.004-4.032v-.196h10.808c.056-.392.084-.784.084-1.148-.084-4.2-2.856-6.832-7-6.832-4.228 0-7.056 2.94-7.056 7.364 0 4.396 2.828 7.308 7.336 7.308zm-4.06-8.904c.224-2.044 1.876-3.332 3.808-3.332 2.1 0 3.584 1.204 3.836 3.332h-7.644zm12.527 4.004c.084 3.108 2.716 4.9 6.552 4.9 3.472 0 6.076-1.736 6.076-4.48 0-3.192-2.66-3.864-5.936-4.256-2.072-.224-3.444-.392-3.444-1.736 0-1.148 1.176-1.876 2.968-1.876s3.024.924 3.192 2.24h2.968c-.196-2.94-2.688-4.564-6.216-4.564-3.444-.028-5.88 1.736-5.88 4.452 0 2.968 2.576 3.668 5.852 4.06 2.212.28 3.528.392 3.528 1.932 0 1.148-1.232 1.876-3.108 1.876-2.184 0-3.472-1.064-3.584-2.548h-2.968zm14.5 2.996c0 1.12.812 1.904 1.932 1.904 1.12 0 1.96-.784 1.96-1.904 0-1.12-.84-1.904-1.96-1.904s-1.932.784-1.932 1.904zm13.23-15.036h10.668l-10.976 14.56V20h15.68v-2.828h-11.284l10.976-14.56V.4h-15.064v2.828zm23.659 16.94c3.556 0 5.964-2.156 6.468-4.984h-3.024c-.42 1.596-1.764 2.52-3.612 2.52-2.38 0-3.92-1.596-4.004-4.032v-.196h10.808c.056-.392.084-.784.084-1.148-.084-4.2-2.856-6.832-7-6.832-4.228 0-7.056 2.94-7.056 7.364 0 4.396 2.828 7.308 7.336 7.308zm-4.06-8.904c.224-2.044 1.876-3.332 3.808-3.332 2.1 0 3.584 1.204 3.836 3.332H241.9zm20.477-5.6c-2.352 0-3.5.952-4.228 2.156l-.336-2.156h-2.688V20h3.024v-7.196c0-2.212.868-4.312 3.556-4.312h1.344V5.664h-.672zm8.629 14.504c4.368 0 7.308-2.94 7.308-7.336 0-4.368-2.94-7.336-7.308-7.336s-7.308 2.968-7.308 7.336c0 4.396 2.94 7.336 7.308 7.336zm0-2.576c-2.548 0-4.2-1.988-4.2-4.76s1.652-4.76 4.2-4.76 4.228 1.988 4.228 4.76-1.68 4.76-4.228 4.76zm17.94-1.484c0 2.604 1.176 3.892 3.92 3.892h2.8v-2.66h-2.128c-1.148 0-1.54-.42-1.54-1.54V8.324h3.5v-2.66h-3.5V1.66h-3.052v4.004h-2.492v2.66h2.492v7.784zm21.583 1.26c-.616 0-.924-.196-.924-.924v-5.74c0-3.388-2.184-5.208-5.992-5.208-3.612 0-6.02 1.736-6.328 4.536h2.968c.224-1.26 1.428-2.1 3.22-2.1 1.988 0 3.136.98 3.136 2.576v.868h-3.612c-4.004 0-6.132 1.652-6.132 4.592 0 2.66 2.184 4.2 5.32 4.2 2.324 0 3.78-1.008 4.732-2.464 0 1.428.672 2.296 2.632 2.296h1.596v-2.632h-.616zm-3.92-3.248c-.028 2.212-1.484 3.696-4.004 3.696-1.652 0-2.66-.84-2.66-2.044 0-1.456 1.036-2.156 2.912-2.156h3.752v.504zm4.7 5.88h3.332l3.78-5.208L322.173 20h3.528l-5.404-7.336 5.096-7h-3.332l-3.5 4.844-3.416-4.844h-3.528l5.068 7L311.309 20zm15.422-1.736c0 1.12.812 1.904 1.932 1.904 1.12 0 1.96-.784 1.96-1.904 0-1.12-.84-1.904-1.96-1.904s-1.932.784-1.932 1.904zM1.008 31.228h10.668L.7 45.788V48h15.68v-2.828H5.096l10.976-14.56V28.4H1.008v2.828zm23.659 16.94c3.556 0 5.964-2.156 6.468-4.984H28.11c-.42 1.596-1.764 2.52-3.612 2.52-2.38 0-3.92-1.596-4.004-4.032v-.196h10.808c.056-.392.084-.784.084-1.148-.084-4.2-2.856-6.832-7-6.832-4.228 0-7.056 2.94-7.056 7.364 0 4.396 2.828 7.308 7.336 7.308zm-4.06-8.904c.224-2.044 1.876-3.332 3.808-3.332 2.1 0 3.584 1.204 3.836 3.332h-7.644zm20.477-5.6c-2.352 0-3.5.952-4.228 2.156l-.336-2.156h-2.688V48h3.024v-7.196c0-2.212.868-4.312 3.556-4.312h1.344v-2.828h-.672zm8.63 14.504c4.367 0 7.307-2.94 7.307-7.336 0-4.368-2.94-7.336-7.308-7.336s-7.308 2.968-7.308 7.336c0 4.396 2.94 7.336 7.308 7.336zm0-2.576c-2.549 0-4.2-1.988-4.2-4.76s1.651-4.76 4.2-4.76c2.547 0 4.227 1.988 4.227 4.76s-1.68 4.76-4.228 4.76zm23.483 2.576c3.668 0 6.104-2.044 6.664-5.292h-3.192c-.364 1.652-1.596 2.716-3.444 2.716-2.436 0-4.032-1.932-4.032-4.732 0-2.828 1.596-4.788 4.032-4.788 1.876 0 3.08 1.036 3.472 2.716h3.164c-.588-3.248-2.884-5.292-6.58-5.292-4.34 0-7.196 2.94-7.196 7.364 0 4.48 2.772 7.308 7.112 7.308zm15.754 0c4.368 0 7.308-2.94 7.308-7.336 0-4.368-2.94-7.336-7.308-7.336s-7.308 2.968-7.308 7.336c0 4.396 2.94 7.336 7.308 7.336zm0-2.576c-2.548 0-4.2-1.988-4.2-4.76s1.652-4.76 4.2-4.76 4.228 1.988 4.228 4.76-1.68 4.76-4.228 4.76zm26.232-12.096c-2.352 0-3.976 1.036-4.9 2.604-.868-1.848-2.548-2.604-4.424-2.604-2.156.028-3.388.98-4.2 2.044l-.336-1.876h-2.632V48h3.024v-7.672c0-2.548 1.288-4.228 3.36-4.228 1.988 0 3.024 1.316 3.024 3.836V48h3.052v-7.756c0-2.576 1.316-4.144 3.388-4.144 1.96 0 2.996 1.316 2.996 3.836V48h3.024v-8.26c0-4.536-2.408-6.244-5.376-6.244zm24.609 0c-2.352 0-3.976 1.036-4.9 2.604-.868-1.848-2.548-2.604-4.424-2.604-2.156.028-3.388.98-4.2 2.044l-.336-1.876H123.3V48h3.024v-7.672c0-2.548 1.288-4.228 3.36-4.228 1.988 0 3.024 1.316 3.024 3.836V48h3.052v-7.756c0-2.576 1.316-4.144 3.388-4.144 1.96 0 2.996 1.316 2.996 3.836V48h3.024v-8.26c0-4.536-2.408-6.244-5.376-6.244zm9.658-1.848c1.036 0 1.848-.756 1.848-1.82s-.812-1.82-1.848-1.82-1.848.756-1.848 1.82.812 1.82 1.848 1.82zM147.91 48h3.024V33.664h-3.024V48zm5.372-4.732c.084 3.108 2.716 4.9 6.552 4.9 3.472 0 6.076-1.736 6.076-4.48 0-3.192-2.66-3.864-5.936-4.256-2.072-.224-3.444-.392-3.444-1.736 0-1.148 1.176-1.876 2.968-1.876s3.024.924 3.192 2.24h2.968c-.196-2.94-2.688-4.564-6.216-4.564-3.444-.028-5.88 1.736-5.88 4.452 0 2.968 2.576 3.668 5.852 4.06 2.212.28 3.528.392 3.528 1.932 0 1.148-1.232 1.876-3.108 1.876-2.184 0-3.472-1.064-3.584-2.548h-2.968zm14.082 0c.084 3.108 2.716 4.9 6.552 4.9 3.472 0 6.076-1.736 6.076-4.48 0-3.192-2.66-3.864-5.936-4.256-2.072-.224-3.444-.392-3.444-1.736 0-1.148 1.176-1.876 2.968-1.876s3.024.924 3.192 2.24h2.968c-.196-2.94-2.688-4.564-6.216-4.564-3.444-.028-5.88 1.736-5.88 4.452 0 2.968 2.576 3.668 5.852 4.06 2.212.28 3.528.392 3.528 1.932 0 1.148-1.232 1.876-3.108 1.876-2.184 0-3.472-1.064-3.584-2.548h-2.968zm16.512-11.62c1.036 0 1.848-.756 1.848-1.82s-.812-1.82-1.848-1.82-1.848.756-1.848 1.82.812 1.82 1.848 1.82zM182.336 48h3.024V33.664h-3.024V48zm12.764.168c4.368 0 7.308-2.94 7.308-7.336 0-4.368-2.94-7.336-7.308-7.336s-7.308 2.968-7.308 7.336c0 4.396 2.94 7.336 7.308 7.336zm0-2.576c-2.548 0-4.2-1.988-4.2-4.76s1.652-4.76 4.2-4.76 4.228 1.988 4.228 4.76-1.68 4.76-4.228 4.76zm17.299-12.096c-2.324 0-3.696.924-4.592 2.044l-.336-1.876h-2.632V48h3.024v-7.224c0-2.912 1.428-4.676 3.836-4.676 2.268 0 3.416 1.456 3.416 4.172V48h3.052v-7.98c0-4.788-2.604-6.524-5.768-6.524zm8.239 12.768c0 1.12.812 1.904 1.932 1.904 1.12 0 1.96-.784 1.96-1.904 0-1.12-.84-1.904-1.96-1.904s-1.932.784-1.932 1.904z" fill="#000"/></svg>