<svg width="100" height="177" viewBox="0 0 100 177" fill="none" xmlns="http://www.w3.org/2000/svg"><path d="M3.778 13.623c-.383 0-.807-.055-1.272-.164a4.657 4.657 0 01-1.176-.438l-.068-2.023.875-.055.465 1.409c.182.118.396.214.643.287.255.064.496.095.724.095.41 0 .72-.086.93-.26a.843.843 0 00.328-.697c0-.319-.096-.574-.287-.765a2.3 2.3 0 00-.725-.492c-.3-.137-.62-.27-.957-.397a6.692 6.692 0 01-.957-.478 2.435 2.435 0 01-.738-.725c-.182-.3-.274-.68-.274-1.135 0-.492.137-.92.41-1.285.283-.374.675-.66 1.176-.861.51-.21 1.099-.315 1.764-.315.21 0 .433.014.67.041.246.028.483.073.71.137.229.055.43.118.602.191l.15 1.996-.86.055-.438-1.34a2.086 2.086 0 00-.97-.218c-.374 0-.684.095-.93.287-.237.182-.356.442-.356.779 0 .3.096.551.287.752.192.191.438.36.739.506.3.136.62.273.957.41.346.137.67.3.97.492.31.182.56.415.752.697.192.283.287.643.287 1.08 0 .465-.145.885-.437 1.258-.283.365-.684.652-1.203.862-.51.21-1.108.314-1.791.314zm8.9-1.271a1.817 1.817 0 01-.752.943 2.181 2.181 0 01-1.203.342c-.629 0-1.148-.183-1.559-.547-.4-.374-.601-.93-.601-1.668l.04-3.049h-.956v-.424l2.338-1.86h.424l-.028 1.929-.027 3.24c0 .383.091.66.273.834.183.164.438.246.766.246.173 0 .342-.032.506-.096.164-.073.305-.164.424-.273l.355.383zM9.684 8.373v-.861h2.611v.861H9.684zm6.467 5.236c-.638 0-1.199-.127-1.682-.382a2.942 2.942 0 01-1.135-1.08 3.068 3.068 0 01-.41-1.587c0-.674.155-1.248.465-1.722.31-.474.716-.834 1.217-1.08a3.582 3.582 0 011.6-.37c.601 0 1.13.128 1.585.383a2.68 2.68 0 011.08 1.08c.265.456.397.98.397 1.573a3.162 3.162 0 01-1.545 2.761 3.012 3.012 0 01-1.572.424zm.137-.875c.227 0 .419-.072.574-.218.164-.146.287-.36.369-.643a3.31 3.31 0 00.137-1.012c0-.784-.128-1.422-.383-1.914-.246-.492-.579-.738-.998-.738-.347 0-.62.178-.82.533-.201.347-.301.82-.301 1.422 0 .483.059.92.177 1.313.128.391.297.701.506.93.219.218.465.327.739.327zm3.718.766l-.04-.629.847-.232c.009-.037.018-.119.027-.246.01-.128.018-.288.028-.479.009-.2.013-.415.013-.643l.014-1.039c0-.282-.01-.528-.027-.738a6.038 6.038 0 00-.096-.656l-.875-.192v-.615l2.406-.615.37.232-.083.807.041.014c.283-.365.593-.634.93-.807a2.317 2.317 0 011.094-.273c.392 0 .738.095 1.039.287.31.191.556.474.738.847.182.365.273.807.273 1.327v1.408c0 .31.005.601.014.875.01.264.027.433.055.506l.848.232-.042.629H24.15l-.041-.629.78-.232c.017-.082.031-.196.04-.342.01-.155.014-.324.014-.506.009-.182.013-.356.013-.52v-1.148c0-.346-.054-.624-.164-.834a1.022 1.022 0 00-.984-.629c-.228 0-.442.05-.643.15-.191.1-.364.247-.52.438v2.01c0 .31.006.601.015.875.018.264.036.433.054.506l.834.232-.04.629h-3.5zm11.307.11c-.593 0-1.121-.133-1.586-.397a2.924 2.924 0 01-1.08-1.08 3.106 3.106 0 01-.383-1.545c0-.638.146-1.194.438-1.668.291-.483.67-.861 1.134-1.135.474-.273.98-.405 1.518-.396.802 0 1.422.25 1.86.752.437.492.656 1.134.656 1.927v.329h-4.02v-.711h2.68l-.205.328v-.465c0-.429-.096-.77-.288-1.026-.19-.255-.455-.382-.793-.382-.227 0-.432.063-.615.191-.182.128-.328.324-.437.588-.1.255-.15.579-.15.97v.288c0 .638.168 1.153.505 1.545.347.392.807.587 1.381.587.31 0 .592-.054.848-.164.255-.118.501-.314.738-.587l.424.382c-.255.547-.615.962-1.08 1.244-.465.283-.98.424-1.545.424zm8.394-.11l-.04-.684.847-.218c.018-.046.032-.169.041-.37.018-.2.032-.45.041-.751.01-.301.014-.63.014-.985v-2.01c0-.364-.005-.697-.014-.998-.009-.31-.023-.56-.04-.752-.01-.2-.024-.323-.042-.369l-.848-.205.041-.683h3.664l.041.683-.86.205c-.01.046-.024.173-.042.383-.018.21-.032.47-.04.78-.01.31-.015.628-.015.956v2.01c0 .32.005.634.014.943.01.301.023.561.041.78.018.21.032.337.041.383l.861.218-.04.684h-3.665zm-4.894 0l-.041-.684.861-.218c.018-.046.032-.164.041-.356.018-.191.032-.437.041-.738.01-.31.014-.647.014-1.012v-2.01c0-.373-.005-.715-.014-1.025-.009-.31-.023-.56-.04-.752-.01-.2-.024-.314-.042-.342l-.861-.205.04-.683h3.651l.041.683-.847.205a1.863 1.863 0 00-.055.37c-.01.19-.018.441-.027.751v3.993c.009.3.018.551.027.752.018.2.036.323.055.369l.847.218-.04.684h-3.651zm2.447-3.582v-1.04c.219.028.47.046.752.056.292.009.652.013 1.08.013.428 0 .784-.004 1.067-.013.282-.01.533-.028.752-.055v1.039c-.192-.01-.429-.018-.711-.027a17.946 17.946 0 00-1.108-.028c-.456 0-.83.01-1.12.028-.284.009-.52.018-.712.027zm10.158 3.691c-.592 0-1.12-.132-1.586-.396a2.924 2.924 0 01-1.08-1.08 3.107 3.107 0 01-.383-1.545c0-.638.146-1.194.438-1.668.292-.483.67-.861 1.135-1.135.474-.273.98-.405 1.517-.396.802 0 1.422.25 1.86.752.437.492.656 1.134.656 1.927v.329h-4.02v-.711h2.68l-.205.328v-.465c0-.429-.096-.77-.287-1.026-.191-.255-.456-.382-.793-.382-.228 0-.433.063-.615.191-.183.128-.328.324-.438.588-.1.255-.15.579-.15.97v.288c0 .638.169 1.153.506 1.545.346.392.806.587 1.38.587.31 0 .593-.054.848-.164.255-.118.502-.314.739-.587l.423.382c-.255.547-.615.962-1.08 1.244-.465.283-.98.424-1.545.424zm8.176.069l-.369-.205.014-.889-.041-.014c-.228.392-.483.67-.766.834a1.798 1.798 0 01-.875.233c-.483 0-.93-.123-1.34-.37a2.73 2.73 0 01-.984-1.025c-.246-.446-.37-.961-.37-1.545 0-.51.096-.966.288-1.367.191-.41.446-.756.765-1.039.32-.292.675-.51 1.067-.656a3.246 3.246 0 011.203-.233c.173 0 .35.019.533.055.182.027.333.073.451.137 0-.173-.004-.365-.013-.574 0-.22-.005-.433-.014-.643 0-.219-.005-.415-.014-.588a4.5 4.5 0 00-.013-.41l-1.012-.15-.027-.588 2.584-.67.382.232c-.027.565-.054 1.09-.082 1.572-.027.474-.04.976-.04 1.504l-.014 3.172c0 .447.013.811.04 1.094.028.283.05.524.069.725l.902.19v.589l-2.324.629zm-1.38-1.354c.145 0 .31-.045.491-.136.192-.092.356-.242.493-.452V8.687a.984.984 0 00-.452-.355 1.33 1.33 0 00-.52-.11c-.428 0-.783.178-1.066.534-.273.355-.41.843-.41 1.463 0 .674.142 1.194.424 1.558.292.365.638.547 1.04.547zm7.15 4.293c-.966 0-1.723-.132-2.27-.396-.538-.265-.806-.63-.806-1.094 0-.3.159-.583.478-.848.328-.255.77-.46 1.326-.615l.588.055a1.917 1.917 0 00-.52.533c-.127.2-.19.41-.19.629 0 .31.127.547.382.71.264.174.647.26 1.148.26.493 0 .903-.109 1.23-.328.329-.21.493-.473.493-.793 0-.227-.082-.4-.246-.52-.164-.108-.447-.181-.848-.218l-1.736-.15-.123-.069c-.465 0-.825-.09-1.08-.273-.255-.173-.383-.401-.383-.684 0-.291.141-.56.424-.806.291-.255.688-.456 1.19-.602l.218.233a.96.96 0 00-.246.218.334.334 0 00-.096.22c0 .108.032.19.096.245a.65.65 0 00.3.11l2.12.205c.674.064 1.176.241 1.504.533.328.291.492.674.492 1.148 0 .429-.15.816-.451 1.162-.292.347-.702.62-1.23.82-.52.21-1.108.315-1.764.315zm.054-4.73c-.547 0-1.03-.091-1.449-.274a2.335 2.335 0 01-.957-.779 2.026 2.026 0 01-.342-1.162c0-.447.123-.843.37-1.19a2.54 2.54 0 01.998-.82c.428-.2.906-.3 1.435-.3.52 0 .98.104 1.38.314.411.2.735.474.972.82s.355.738.355 1.176c0 .428-.118.811-.355 1.148-.237.328-.561.588-.971.78-.41.191-.889.287-1.436.287zm.11-.793a.766.766 0 00.67-.37c.164-.255.246-.596.246-1.025 0-.465-.091-.838-.274-1.12-.173-.283-.41-.425-.71-.425-.274 0-.497.132-.67.397-.174.264-.26.615-.26 1.053 0 .446.09.806.273 1.08.182.273.424.41.725.41zm3.404-2.475l-1.846-.178-.41-.642 2.256-.274V8.62zm3.637 4.99c-.593 0-1.121-.132-1.586-.396a2.924 2.924 0 01-1.08-1.08 3.107 3.107 0 01-.383-1.545c0-.638.146-1.194.437-1.668.292-.483.67-.861 1.135-1.135.474-.273.98-.405 1.518-.396.802 0 1.422.25 1.86.752.437.492.655 1.134.655 1.927v.329h-4.02v-.711h2.68l-.205.328v-.465c0-.429-.095-.77-.287-1.026-.191-.255-.455-.382-.793-.382-.228 0-.433.063-.615.191s-.328.324-.437.588c-.1.255-.15.579-.15.97v.288c0 .638.168 1.153.505 1.545.347.392.807.587 1.381.587.31 0 .592-.054.848-.164.255-.118.5-.314.738-.587l.424.382c-.255.547-.615.962-1.08 1.244-.465.283-.98.424-1.545.424zm5.974-.109l-.027-.506.916-.191c.01-.037.014-.1.014-.192.009-.09.018-.237.027-.437.01-.2.014-.479.014-.834v-.902c0-.374-.01-.716-.028-1.026a7.944 7.944 0 00-.068-.725l-.916-.19v-.452l1.941-.506.206.191c-.028.283-.05.561-.069.834-.009.274-.014.593-.014.957v1.723c0 .42.005.766.014 1.04.018.273.037.446.055.519l.916.191-.028.506h-2.953zm1.477-7.506a.875.875 0 01-.602-.232.759.759 0 01-.246-.574c0-.228.082-.42.246-.575a.875.875 0 01.602-.232.797.797 0 01.82.806.797.797 0 01-.82.807zm4.498 7.615c-.337 0-.674-.036-1.012-.109a3.625 3.625 0 01-.861-.315l-.069-1.462h.67l.274.984c.319.219.684.328 1.094.328.31 0 .56-.073.752-.219a.752.752 0 00.287-.615.841.841 0 00-.26-.615c-.173-.182-.51-.378-1.012-.588-.647-.282-1.103-.551-1.367-.807-.264-.264-.396-.601-.396-1.011 0-.328.095-.616.287-.862.2-.255.474-.45.82-.588a3.08 3.08 0 011.203-.218c.255 0 .515.023.78.068.264.046.483.105.656.178l.15 1.422h-.642l-.329-.93a1.07 1.07 0 00-.328-.123 1.487 1.487 0 00-.41-.055c-.319 0-.574.078-.766.233a.688.688 0 00-.287.574.83.83 0 00.315.67c.21.164.579.369 1.107.615.602.274 1.021.542 1.258.807.237.264.355.583.355.957 0 .492-.214.897-.642 1.216-.428.31-.97.465-1.627.465zM.852 29.5l-.041-.629.848-.232c.009-.037.018-.119.027-.246.009-.137.018-.301.027-.493.01-.191.014-.4.014-.628l.014-1.026a7.963 7.963 0 00-.123-1.408l-.875-.192v-.615l2.406-.615.369.232-.082.793.04.014c.293-.374.598-.642.917-.807.319-.173.652-.26.998-.26.355 0 .684.092.984.274.31.173.56.442.752.807.192.355.287.816.287 1.38l.028 1.409c0 .3.004.588.013.861.01.274.028.447.055.52l.738.232-.04.629h-3.24l-.042-.629.697-.232c.019-.082.032-.196.041-.342a8.66 8.66 0 00.014-.506c.01-.182.014-.355.014-.52l-.014-1.285c0-.328-.05-.588-.15-.779a.837.837 0 00-.383-.424 1.153 1.153 0 00-.547-.123c-.2 0-.401.055-.602.164-.2.1-.369.242-.505.424v2.01c0 .3.004.588.013.861.018.274.037.447.055.52l.752.232-.041.629H.852zm8.025 0l-.04-.629.71-.232c.018-.082.032-.196.041-.342a8.66 8.66 0 00.014-.506c.009-.182.014-.355.014-.52l-.028-1.162c0-.355-.05-.638-.15-.847a.95.95 0 00-.41-.451c-.173-.1-.365-.15-.575-.15-.227 0-.446.05-.656.15-.2.09-.369.232-.506.423l-.396-.52c.328-.437.674-.765 1.039-.983a2.27 2.27 0 011.203-.342c.428 0 .807.1 1.135.3.337.192.597.47.78.834.181.365.273.803.273 1.313l.027 1.422c0 .3.005.588.014.861.018.274.036.447.054.52l.848.232-.041.629h-3.35zm7.082.11c-.592 0-1.12-.133-1.586-.397a2.925 2.925 0 01-1.08-1.08 3.107 3.107 0 01-.382-1.545c0-.638.145-1.194.437-1.668a3.22 3.22 0 011.135-1.135c.474-.273.98-.405 1.517-.396.802 0 1.422.25 1.86.752.437.492.656 1.134.656 1.927v.328h-4.02v-.71h2.68l-.205.328v-.465c0-.429-.096-.77-.287-1.026-.191-.255-.456-.382-.793-.382-.228 0-.433.063-.615.191s-.328.324-.438.588c-.1.255-.15.579-.15.97v.288c0 .638.168 1.153.506 1.545.346.392.806.588 1.38.588.31 0 .593-.055.848-.165.255-.118.502-.314.738-.587l.424.382c-.255.547-.615.962-1.08 1.245-.465.282-.98.423-1.545.423zm3.254-.11l-.04-.629.847-.232c.009-.037.018-.119.027-.246.01-.137.018-.301.028-.493.009-.2.013-.41.013-.628l.014-1.026c0-.273-.01-.515-.027-.724a6.454 6.454 0 00-.096-.684l-.875-.192v-.615l2.365-.615.356.232-.055 1.08.04.014c.265-.51.53-.857.794-1.039.273-.182.551-.273.834-.273.246 0 .46.068.642.205.192.136.288.35.288.642 0 .292-.1.52-.301.684-.2.164-.433.246-.698.246-.218 0-.414-.036-.587-.11a2.295 2.295 0 01-.575-.423l.383.04a2.383 2.383 0 00-.725.916l.014 1.08c.01.338.014.643.014.917.01.264.018.488.027.67.01.173.018.287.028.342l1.19.205-.042.656h-3.883zm8.504.11a3.279 3.279 0 01-1.558-.37 3.064 3.064 0 01-1.108-1.052 2.944 2.944 0 01-.41-1.545c0-.575.146-1.108.438-1.6a3.311 3.311 0 011.203-1.203c.51-.3 1.098-.451 1.763-.451.401 0 .761.054 1.08.164.32.1.575.246.766.437.191.192.287.406.287.643 0 .228-.073.4-.219.52a.784.784 0 01-.506.163c-.173 0-.328-.031-.464-.095a2.418 2.418 0 01-.451-.315l-.999-.875.698.164a1.112 1.112 0 00-.793.11c-.255.136-.465.364-.63.683-.163.31-.245.702-.245 1.176 0 .702.168 1.23.506 1.586.346.355.77.533 1.271.533.255 0 .506-.055.752-.164.255-.118.501-.319.738-.601l.438.396c-.255.556-.615.98-1.08 1.271a2.75 2.75 0 01-1.477.424zm2.926-.11l-.041-.629.848-.232c.009-.1.018-.274.027-.52.018-.255.032-.547.04-.875.01-.328.015-.647.015-.957v-1.723c0-.31-.005-.62-.014-.93 0-.318-.005-.619-.014-.902 0-.291-.004-.556-.013-.793a7.005 7.005 0 00-.041-.574l-1.012-.136-.027-.588 2.584-.67.382.232-.054.82a149.704 149.704 0 00-.055 1.956c-.01.4-.018.888-.027 1.462l.04.014c.283-.355.593-.62.93-.793a2.237 2.237 0 011.08-.273c.392 0 .739.095 1.04.287.31.191.555.474.738.847.182.365.273.807.273 1.327v1.408c0 .31.005.601.014.875.018.264.036.433.054.506l.848.232-.04.629h-3.419l-.04-.629.765-.232c.018-.082.032-.196.04-.342.01-.155.014-.324.014-.506.01-.182.014-.355.014-.52v-1.148c0-.346-.054-.624-.164-.834a1.022 1.022 0 00-.984-.629c-.219 0-.429.05-.63.15-.2.1-.377.247-.532.438v2.01c0 .337.004.633.013.889.018.255.037.419.055.492l.82.232-.04.629h-3.487zm10.35.11c-.42 0-.784-.092-1.094-.274a2.107 2.107 0 01-.697-.656c-.155-.256-.233-.497-.233-.725 0-.328.1-.601.3-.82.21-.228.53-.406.958-.533l2.146-.63v-.492a.85.85 0 00-.191-.533 1.352 1.352 0 00-.479-.424c-.2-.109-.414-.164-.642-.164-.146 0-.25.037-.315.11-.054.064-.09.196-.109.396l-.068.834c-.456.091-.83.078-1.121-.04-.283-.128-.424-.333-.424-.616 0-.173.09-.35.273-.533.183-.183.406-.351.67-.506.274-.164.552-.3.834-.41a2.53 2.53 0 01.738-.205c.812 0 1.454.187 1.928.56.474.365.716.857.725 1.477l-.041 1.9c0 .255.004.456.013.602.019.146.046.264.082.355l.903.164v.575l-.889.382a4.356 4.356 0 01-.451.15 1.54 1.54 0 01-.396.055c-.356 0-.607-.182-.752-.547l-.233-.628.287.068c-.282.346-.574.62-.875.82-.292.192-.574.287-.847.287zm.697-1.231c.127 0 .25-.023.369-.069.118-.054.228-.132.328-.232v-1.34l-.93.178c-.227.027-.392.096-.492.205a.662.662 0 00-.137.438c0 .21.082.4.247.574a.864.864 0 00.615.246zm3.814 1.121l-.04-.629.847-.232c.009-.037.018-.119.027-.246.01-.128.018-.288.028-.479.009-.2.013-.415.013-.643l.014-1.039c0-.282-.01-.528-.027-.738a5.99 5.99 0 00-.096-.656l-.875-.192v-.615l2.406-.615.37.232-.083.807.041.014c.283-.365.593-.634.93-.807.346-.182.71-.273 1.094-.273.392 0 .738.095 1.039.287.31.191.556.474.738.847.182.365.273.807.273 1.327v1.408c0 .31.005.601.014.875.01.264.028.433.055.506l.848.232-.041.629h-3.432l-.041-.629.78-.232c.017-.082.031-.196.04-.342a8.58 8.58 0 00.014-.506c.009-.182.014-.355.014-.52v-1.148c0-.346-.055-.624-.165-.834a1.022 1.022 0 00-.984-.629c-.228 0-.442.05-.642.15-.192.1-.365.247-.52.438v2.01c0 .31.005.601.014.875.018.264.036.433.054.506l.834.232-.04.629h-3.5zm12.975.178l-.37-.205.014-.889-.04-.014c-.228.392-.484.67-.766.834a1.798 1.798 0 01-.875.233c-.483 0-.93-.123-1.34-.37a2.73 2.73 0 01-.984-1.025c-.247-.446-.37-.961-.37-1.545 0-.51.096-.966.288-1.367.19-.41.446-.756.765-1.039.32-.292.675-.51 1.067-.656a3.244 3.244 0 011.203-.233c.173 0 .35.019.533.055.182.027.333.073.451.137 0-.173-.005-.365-.014-.575 0-.218-.004-.432-.013-.642 0-.219-.005-.415-.014-.588a4.51 4.51 0 00-.014-.41l-1.011-.15-.028-.588 2.584-.67.383.232c-.027.565-.055 1.09-.082 1.572a26.11 26.11 0 00-.04 1.504l-.015 3.172c0 .447.014.811.041 1.094.028.282.05.524.069.724l.902.192v.588l-2.324.629zm-1.381-1.354c.146 0 .31-.045.492-.137.192-.09.356-.241.492-.45v-3.05a.983.983 0 00-.45-.355 1.33 1.33 0 00-.52-.11c-.429 0-.784.178-1.067.534-.273.355-.41.843-.41 1.463 0 .674.141 1.194.424 1.558.292.365.638.547 1.039.547zm4.047 1.176l-.041-.643.916-.218c.009-.037.018-.119.027-.246.01-.137.019-.301.028-.493.009-.191.013-.4.013-.628l.014-1.026c0-.273-.01-.52-.027-.738a5.915 5.915 0 00-.096-.67l-.916-.192v-.615l2.515-.615.37.232c-.028.292-.05.588-.069.89-.009.29-.013.623-.013.997v1.723c0 .3.004.588.013.861.019.274.037.447.055.52l.916.218-.041.643h-3.664zm1.846-7.205c-.365 0-.652-.11-.862-.328a1.119 1.119 0 01-.314-.78c0-.291.105-.546.314-.765.21-.228.497-.342.862-.342.364 0 .647.114.847.342.2.219.301.474.301.765 0 .292-.1.552-.3.78-.201.219-.484.328-.848.328zm4.675 7.314c-.382 0-.76-.04-1.134-.123a4.026 4.026 0 01-.944-.341l-.068-1.6h.875l.287.984c.346.2.706.301 1.08.301.283 0 .497-.055.643-.164a.57.57 0 00.218-.465c0-.2-.082-.373-.246-.52-.155-.145-.478-.31-.97-.492-.675-.246-1.144-.515-1.409-.806-.264-.292-.396-.656-.396-1.094 0-.374.114-.702.342-.984.228-.292.547-.515.957-.67.41-.164.884-.246 1.422-.246.291 0 .588.027.888.082.301.054.547.127.739.218l.164 1.586h-.875l-.301-.97a1.073 1.073 0 00-.342-.123 1.344 1.344 0 00-.37-.055c-.272 0-.496.06-.669.178a.56.56 0 00-.246.478c0 .219.1.401.3.547.201.146.566.328 1.094.547.602.246 1.03.51 1.286.793.255.273.382.615.382 1.025 0 .575-.25 1.04-.752 1.395-.5.346-1.152.52-1.955.52zm3.24-.109l-.04-.643.916-.218c.009-.037.018-.119.027-.246.01-.137.018-.301.027-.493.01-.191.014-.4.014-.628l.014-1.026c0-.273-.01-.52-.028-.738a5.915 5.915 0 00-.095-.67l-.916-.192v-.615l2.515-.615.37.232c-.028.292-.05.588-.069.89-.01.29-.014.623-.014.997v1.723c0 .3.005.588.014.861.018.274.036.447.055.52l.916.218-.041.643h-3.664zm1.846-7.205c-.364 0-.651-.11-.861-.328a1.12 1.12 0 01-.315-.78c0-.291.105-.546.315-.765.21-.228.497-.342.861-.342.365 0 .648.114.848.342a1.147 1.147 0 010 1.545c-.2.218-.483.328-.848.328zm2.27 7.205l-.041-.629.848-.232c.009-.037.018-.119.027-.246a14.217 14.217 0 00.041-1.121l.014-1.04c0-.282-.01-.528-.028-.738a6.04 6.04 0 00-.096-.656l-.875-.192v-.615l2.407-.615.369.232-.082.807.04.014c.283-.365.593-.634.93-.807a2.317 2.317 0 011.094-.273c.392 0 .739.095 1.04.287.31.191.555.474.738.847.182.365.273.807.273 1.327v1.408c0 .31.005.601.014.875.009.264.027.433.054.506l.848.232-.04.629h-3.433l-.04-.629.779-.232c.018-.082.032-.196.04-.342.01-.155.014-.324.014-.506.01-.182.014-.355.014-.52v-1.148c0-.346-.055-.624-.164-.834a1.023 1.023 0 00-.41-.479 1.08 1.08 0 00-.574-.15c-.228 0-.442.05-.643.15-.191.1-.365.247-.52.438v2.01c0 .31.005.601.014.875.018.264.037.433.055.506l.834.232-.041.629h-3.5zm11.088 3.117c-.966 0-1.723-.132-2.27-.396-.538-.265-.806-.63-.806-1.094 0-.3.16-.583.478-.848.328-.255.77-.46 1.326-.615l.588.055a1.918 1.918 0 00-.52.533c-.127.2-.19.41-.19.629 0 .31.127.547.382.71.264.174.647.26 1.148.26.493 0 .903-.109 1.23-.328.33-.21.493-.474.493-.793 0-.227-.082-.4-.246-.52-.164-.108-.447-.181-.848-.218l-1.736-.15-.123-.069c-.465 0-.825-.09-1.08-.273-.255-.173-.383-.401-.383-.684 0-.291.141-.56.424-.806.292-.255.688-.456 1.19-.602l.218.233a.96.96 0 00-.246.218.334.334 0 00-.096.22c0 .108.032.19.096.245a.65.65 0 00.3.11l2.12.205c.674.064 1.176.241 1.504.533.328.291.492.674.492 1.148 0 .429-.15.816-.451 1.162-.292.347-.702.62-1.23.82-.52.21-1.108.315-1.764.315zm.054-4.73c-.546 0-1.03-.091-1.449-.274a2.335 2.335 0 01-.957-.779 2.026 2.026 0 01-.342-1.162c0-.447.123-.843.37-1.19a2.54 2.54 0 01.998-.82c.428-.2.906-.3 1.435-.3.52 0 .98.104 1.381.314.41.2.734.474.97.82.238.346.356.738.356 1.176 0 .428-.118.811-.355 1.148-.237.328-.56.588-.971.78-.41.191-.889.287-1.436.287zm.11-.793a.766.766 0 00.67-.37c.164-.255.246-.596.246-1.025 0-.465-.091-.838-.274-1.12-.173-.283-.41-.425-.71-.425-.274 0-.497.133-.67.397-.174.264-.26.615-.26 1.053 0 .446.09.806.273 1.08.182.273.424.41.725.41zm3.404-2.475l-1.846-.178-.41-.642 2.256-.274v1.094zm.793 7.287l-.205-.396c.365-.164.643-.365.834-.602.2-.228.3-.497.3-.806a.654.654 0 00-.081-.342.939.939 0 00-.178-.246l-.219-.192a1.276 1.276 0 01-.191-.246.891.891 0 01-.069-.369c0-.191.073-.36.22-.506a.797.797 0 01.587-.232c.164 0 .315.045.451.136.146.092.26.228.342.41.091.183.137.415.137.698 0 .364-.082.724-.246 1.08a3.122 3.122 0 01-1.682 1.613zM3.258 45.61c-.337 0-.674-.036-1.012-.109a3.625 3.625 0 01-.86-.315l-.07-1.462h.67l.274.984c.32.219.684.328 1.094.328.31 0 .56-.073.752-.219a.752.752 0 00.287-.615.841.841 0 00-.26-.615c-.173-.182-.51-.378-1.012-.588-.647-.282-1.102-.551-1.367-.807-.264-.264-.396-.601-.396-1.011 0-.328.095-.615.287-.862.2-.255.474-.45.82-.587a3.079 3.079 0 011.203-.22c.256 0 .515.023.78.07.264.045.483.104.656.177l.15 1.422h-.642l-.328-.93a1.069 1.069 0 00-.329-.123 1.485 1.485 0 00-.41-.055c-.319 0-.574.078-.765.233a.688.688 0 00-.287.574.83.83 0 00.314.67c.21.164.579.369 1.107.615.602.273 1.021.542 1.258.807.237.264.356.583.356.957 0 .492-.214.898-.643 1.217-.428.31-.97.464-1.627.464zm3.186-.109l-.028-.506.916-.191c.01-.037.014-.1.014-.192.01-.09.018-.237.027-.437.01-.2.014-.479.014-.834v-.903c0-.373-.009-.715-.027-1.025a7.903 7.903 0 00-.069-.724l-.916-.192v-.451l1.942-.506.205.191c-.027.283-.05.561-.069.835-.009.273-.013.592-.013.957v1.722c0 .42.004.766.013 1.04.019.273.037.446.055.519l.916.191-.027.506H6.444zm1.476-7.506a.875.875 0 01-.601-.232.758.758 0 01-.246-.575c0-.227.082-.419.246-.574a.875.875 0 01.601-.232.797.797 0 01.82.806.797.797 0 01-.82.807zm2.256 7.506l-.027-.492.848-.205c.009-.064.013-.146.013-.246.01-.1.018-.247.027-.438.01-.191.014-.451.014-.78l.014-1.066c.009-.191.004-.387-.014-.588a9.418 9.418 0 00-.096-.998l-.875-.19v-.452l1.832-.506.233.219-.069.738.042.014c.282-.356.574-.61.875-.766a2.09 2.09 0 01.943-.232c.319 0 .629.086.93.26.3.173.546.437.738.793.2.355.3.81.3 1.367l.014 1.449c0 .328.005.624.014.889.018.255.041.432.068.533l.82.205-.04.492h-2.666l-.041-.492.752-.205a5.093 5.093 0 00.041-.684c.009-.173.013-.387.013-.642l-.013-1.504c0-.392-.064-.707-.192-.944a1.158 1.158 0 00-.478-.52c-.2-.109-.415-.163-.643-.163-.283 0-.547.068-.793.205-.246.136-.465.35-.656.642v2.051c0 .42.004.761.014 1.026.018.255.036.432.054.533l.807.205-.041.492h-2.762zm7.711 0l-.04-.492.778-.205a2.27 2.27 0 00.014-.274 12.576 12.576 0 00.041-1.053v-1.49c0-.4-.068-.72-.205-.957a1.293 1.293 0 00-.52-.52 1.27 1.27 0 00-.615-.163c-.31 0-.597.077-.861.232-.264.155-.501.392-.711.711l-.26-.506c.32-.437.656-.756 1.012-.957a2.27 2.27 0 011.148-.314c.383 0 .73.09 1.04.273.31.182.555.447.738.793.182.346.273.766.273 1.258v1.545c0 .328.005.624.014.889.018.255.036.432.055.533l.847.205-.027.492h-2.72zm3.5 3.008l-.027-.492.847-.206v-.245a13.91 13.91 0 00.041-1.094c.01-.255.014-.552.014-.889l.027-3.377c0-.273-.013-.551-.04-.834a7.788 7.788 0 00-.069-.684l-.875-.19v-.452l1.832-.506.232.219-.068.752h.041c.255-.328.533-.575.834-.738.31-.174.643-.26.998-.26.502 0 .944.127 1.326.383.392.246.698.587.916 1.025.228.428.342.925.342 1.49 0 .602-.136 1.144-.41 1.627a3.08 3.08 0 01-1.121 1.148c-.465.274-.994.41-1.586.41-.219 0-.447-.022-.684-.068a4.46 4.46 0 01-.629-.164v1.026c0 .346.005.638.014.875l.041.546 1.121.178-.027.52h-3.09zm3.295-3.582c.365 0 .684-.087.957-.26.283-.173.501-.428.656-.766.164-.337.25-.747.26-1.23a2.621 2.621 0 00-.219-1.162 1.826 1.826 0 00-.629-.793c-.264-.2-.57-.3-.916-.3-.282 0-.547.067-.793.204-.246.128-.469.32-.67.574v3.309c.183.137.392.241.63.314.236.073.478.11.724.11zm4.033.574l-.027-.506.889-.191c.018-.091.031-.242.04-.451.01-.21.014-.488.014-.834.01-.347.014-.77.014-1.272v-1.709c0-.346-.005-.702-.014-1.066 0-.365-.004-.707-.013-1.026 0-.328-.005-.606-.014-.834 0-.237-.005-.392-.014-.464l-1.012-.137-.027-.438 1.955-.56.26.191-.027 1.149c-.01.382-.019.806-.028 1.271v1.682l-.013 2.2c0 .539.004 1.026.013 1.464.019.428.037.706.055.834l.889.191-.028.506h-2.912zm3.664 0l-.027-.506.916-.191c.01-.037.014-.1.014-.192.009-.09.018-.237.027-.437.01-.2.014-.479.014-.834v-.903c0-.373-.01-.715-.028-1.025a7.872 7.872 0 00-.068-.724l-.916-.192v-.451l1.941-.506.205.191c-.027.283-.05.561-.068.835-.01.273-.014.592-.014.957v1.722c0 .42.005.766.014 1.04a4 4 0 00.055.519l.916.191-.028.506H32.38zm1.477-7.506a.874.874 0 01-.602-.232.758.758 0 01-.246-.575c0-.227.082-.419.246-.574a.874.874 0 01.602-.232.796.796 0 01.82.806.796.796 0 01-.82.807zm2.27 7.506l-.028-.492.848-.205c.009-.1.013-.228.013-.383.01-.155.014-.365.014-.629v-4.662c0-.702.141-1.285.424-1.75.291-.474.674-.83 1.148-1.066a3.521 3.521 0 011.573-.356c.592 0 1.066.118 1.421.355.356.228.534.493.534.794 0 .173-.05.31-.15.41-.101.1-.242.15-.425.15a1.03 1.03 0 01-.41-.082 1.844 1.844 0 01-.424-.356l-.902-.902.766.233a2.116 2.116 0 00-1.217.109 1.897 1.897 0 00-.93.766c-.237.364-.355.843-.355 1.435v4.621a120.655 120.655 0 00.054 1.313l.916.205-.04.492h-2.83zm3.718 0l-.027-.506.916-.191a6.09 6.09 0 00.041-.738c.009-.183.014-.424.014-.725v-1.203c0-.483-.01-.862-.028-1.135a15.195 15.195 0 00-.055-.67H35.99v-.451l.984-.246.711.013h3.13c.174 0 .352-.004.534-.013.191-.01.374-.018.547-.028l-.027.862c-.01.282-.014.633-.014 1.053v2.447c.009.21.018.383.027.52.019.136.032.24.041.314l.916.191-.04.506h-2.954zm6.7.11a2.915 2.915 0 01-1.436-.356 2.695 2.695 0 01-1.012-1.012c-.246-.446-.37-.97-.37-1.572 0-.647.133-1.208.397-1.682.265-.474.611-.838 1.04-1.093a2.492 2.492 0 011.38-.383c.711.009 1.267.246 1.668.71.401.465.602 1.122.602 1.97v.245h-4.197v-.601h3.294l-.15.178v-.287c0-.53-.118-.935-.355-1.217-.237-.283-.56-.424-.971-.424a1.33 1.33 0 00-.738.232c-.237.146-.429.374-.575.684-.145.3-.218.683-.218 1.148v.165c0 .747.182 1.33.547 1.75.373.419.852.628 1.435.628a1.9 1.9 0 00.861-.191c.256-.128.502-.333.739-.615l.342.314c-.256.474-.58.83-.971 1.067-.392.227-.83.341-1.313.341zm7.997.04l-.205-.177.014-.889-.041-.014c-.273.383-.556.652-.848.807a1.849 1.849 0 01-.902.232c-.52 0-.984-.118-1.395-.355a2.69 2.69 0 01-.957-1.012c-.237-.428-.355-.92-.355-1.476 0-.483.082-.925.246-1.326a3.079 3.079 0 011.654-1.696 2.874 2.874 0 011.135-.232c.255 0 .515.032.78.095.264.064.487.165.67.301 0-.164-.005-.378-.014-.642 0-.265-.005-.538-.014-.82 0-.292-.005-.548-.014-.766 0-.228-.004-.383-.013-.465l-1.067-.192-.027-.45 2.01-.561.246.191a96.21 96.21 0 00-.055 3.295l-.014 3.145c0 .464.01.865.028 1.203.027.328.045.56.054.697l.875.219v.45l-1.79.438zm-1.64-.957c.264 0 .51-.054.738-.164.228-.118.46-.323.697-.615v-2.94c-.173-.31-.392-.528-.656-.656a1.81 1.81 0 00-.793-.191c-.574 0-1.025.214-1.353.642-.32.42-.479.967-.479 1.641 0 .72.178 1.28.533 1.682.365.4.802.601 1.313.601zm5.373.944a.861.861 0 01-.615-.233.818.818 0 01-.246-.601c0-.164.036-.306.109-.424a.794.794 0 01.3-.3.944.944 0 01.452-.11c.246 0 .451.082.615.246a.774.774 0 01.246.588.818.818 0 01-.246.601.861.861 0 01-.615.233zM3.758 65.432c-.392 0-.756-.092-1.092-.276a2.211 2.211 0 01-.804-.78c-.2-.328-.3-.692-.3-1.092 0-.368.092-.716.276-1.044.192-.328.452-.592.78-.792a2.121 2.121 0 011.14-.312 2.1 2.1 0 011.08.288c.328.184.592.436.792.756.208.32.312.688.312 1.104 0 .392-.1.752-.3 1.08a2.118 2.118 0 01-.792.78 2.122 2.122 0 01-1.092.288zm9.928 1.164c-.68 0-1.272-.088-1.776-.264a4.348 4.348 0 01-1.356-.792l.252-.432c.296.232.58.424.852.576.272.144.568.252.888.324.328.064.704.096 1.128.096.784 0 1.376-.156 1.776-.468.408-.32.612-.744.612-1.272 0-.448-.144-.792-.432-1.032-.28-.24-.764-.428-1.452-.564l-1.188-.24c-.776-.16-1.352-.412-1.728-.756-.376-.344-.564-.82-.564-1.428 0-.48.124-.9.372-1.26a2.45 2.45 0 011.032-.84c.44-.2.952-.3 1.536-.3a4.56 4.56 0 011.62.276c.488.184.908.46 1.26.828l-.24.432c-.392-.376-.796-.644-1.212-.804a3.958 3.958 0 00-1.428-.24c-.736 0-1.324.172-1.764.516-.432.344-.648.808-.648 1.392 0 .472.14.84.42 1.104.28.256.732.448 1.356.576l1.2.24c.832.168 1.436.412 1.812.732.384.312.576.764.576 1.356 0 .44-.116.832-.348 1.176-.232.336-.568.6-1.008.792-.432.184-.948.276-1.548.276zm6.306 0c-.488 0-.864-.152-1.128-.456-.256-.312-.384-.784-.384-1.416v-3.792h-1.2V60.5h1.2v-1.716l.504-.192V60.5h1.824v.432h-1.824v3.684c0 .528.08.912.24 1.152.168.24.436.36.804.36a1.785 1.785 0 00.756-.156v.48c-.088.04-.208.072-.36.096a1.986 1.986 0 01-.432.048zm2.115-.096v-4.632c0-.224-.008-.452-.024-.684a9.489 9.489 0 00-.048-.684h.492l.072 1.308-.108.012c.08-.32.224-.584.432-.792.216-.208.46-.364.732-.468a2.367 2.367 0 011.104-.144c.096.008.184.024.264.048l-.024.468a1.292 1.292 0 00-.264-.048 3.195 3.195 0 00-.288-.012c-.368 0-.692.096-.972.288a1.96 1.96 0 00-.636.696 1.64 1.64 0 00-.228.804v3.84h-.504zm6.468.096c-.88 0-1.58-.268-2.1-.804-.52-.544-.78-1.3-.78-2.268 0-.64.116-1.192.348-1.656.232-.464.556-.824.972-1.08a2.754 2.754 0 011.452-.384c.52 0 .96.112 1.32.336.368.216.648.532.84.948.2.408.3.896.3 1.464v.324H26.02v-.456h4.644l-.204.156c0-.72-.168-1.284-.504-1.692-.336-.416-.836-.624-1.5-.624-.704 0-1.256.24-1.656.72-.392.48-.588 1.108-.588 1.884v.06c0 .848.208 1.496.624 1.944.416.44.996.66 1.74.66.376 0 .728-.06 1.056-.18.328-.12.644-.324.948-.612l.252.396c-.248.272-.576.484-.984.636a3.614 3.614 0 01-1.272.228zm6.276 0c-.544 0-1.016-.124-1.416-.372a2.422 2.422 0 01-.924-1.068c-.216-.464-.324-1.016-.324-1.656 0-.648.108-1.2.324-1.656.224-.464.536-.82.936-1.068.4-.248.868-.372 1.404-.372.568 0 1.052.148 1.452.444.408.296.676.704.804 1.224h-.144l.12-1.572h.492l-.072.66a8.61 8.61 0 00-.024.636V66.5h-.504v-1.572h.132c-.128.52-.396.928-.804 1.224-.408.296-.892.444-1.452.444zm0-.468c.656 0 1.176-.224 1.56-.672.384-.456.576-1.108.576-1.956 0-.848-.192-1.496-.576-1.944-.384-.456-.904-.684-1.56-.684s-1.18.228-1.572.684c-.384.448-.576 1.096-.576 1.944 0 .848.192 1.5.576 1.956.392.448.916.672 1.572.672zm4.74.372v-4.704c0-.208-.011-.42-.035-.636a20.212 20.212 0 00-.06-.66h.491l.108 1.44h-.143c.151-.496.404-.876.756-1.14.352-.264.78-.396 1.284-.396.528 0 .952.128 1.272.384.32.248.527.636.623 1.164h-.168c.136-.472.392-.848.768-1.128.384-.28.844-.42 1.38-.42.64 0 1.129.184 1.465.552.335.368.504.944.504 1.728V66.5h-.505v-3.768c0-.648-.116-1.12-.348-1.416-.231-.296-.607-.444-1.127-.444-.584 0-1.049.196-1.392.588-.337.392-.505.92-.505 1.584V66.5h-.504v-3.768c0-.648-.115-1.12-.347-1.416-.232-.296-.608-.444-1.128-.444-.584 0-1.044.196-1.38.588-.337.392-.505.92-.505 1.584V66.5h-.503zm10.325 0v-8.832h.504V66.5h-.504zm2.613 0v-6h.504v6h-.504zm-.132-7.572v-.756h.768v.756h-.768zm2.745 7.572v-4.704c0-.208-.012-.42-.036-.636a20.212 20.212 0 00-.06-.66h.492l.108 1.44h-.144c.168-.504.448-.884.84-1.14.4-.264.868-.396 1.404-.396.712 0 1.248.184 1.608.552.368.368.552.944.552 1.728V66.5h-.504v-3.768c0-.648-.132-1.12-.396-1.416-.264-.296-.68-.444-1.248-.444-.648 0-1.164.196-1.548.588-.376.392-.564.92-.564 1.584V66.5h-.504zm9.316.096c-.88 0-1.58-.268-2.1-.804-.52-.544-.78-1.3-.78-2.268 0-.64.116-1.192.348-1.656.232-.464.556-.824.972-1.08a2.754 2.754 0 011.452-.384c.52 0 .96.112 1.32.336.368.216.648.532.84.948.2.408.3.896.3 1.464v.324h-4.908v-.456h4.644l-.204.156c0-.72-.168-1.284-.504-1.692-.336-.416-.836-.624-1.5-.624-.704 0-1.256.24-1.656.72-.392.48-.588 1.108-.588 1.884v.06c0 .848.208 1.496.624 1.944.416.44.996.66 1.74.66.376 0 .728-.06 1.056-.18.328-.12.644-.324.948-.612l.252.396c-.248.272-.576.484-.984.636a3.614 3.614 0 01-1.272.228zM1.394 77.264c0-.896.144-1.664.432-2.304.296-.648.72-1.144 1.272-1.488.56-.352 1.236-.528 2.028-.528.768 0 1.432.176 1.992.528.56.344.992.84 1.296 1.488.304.64.456 1.404.456 2.292 0 .896-.156 1.668-.468 2.316-.304.648-.736 1.148-1.296 1.5-.56.352-1.22.528-1.98.528-.784 0-1.456-.176-2.016-.528-.552-.352-.976-.852-1.272-1.5-.296-.648-.444-1.416-.444-2.304zm.54 0c0 1.208.272 2.152.816 2.832.544.672 1.336 1.008 2.376 1.008 1 0 1.784-.336 2.352-1.008.568-.672.852-1.616.852-2.832 0-1.216-.284-2.156-.852-2.82-.56-.672-1.344-1.008-2.352-1.008-1.04 0-1.832.336-2.376 1.008-.544.664-.816 1.604-.816 2.82zm8.782 4.236v-4.632c0-.224-.008-.452-.024-.684a9.489 9.489 0 00-.048-.684h.492l.072 1.308-.108.012c.08-.32.224-.584.432-.792.216-.208.46-.364.732-.468a2.367 2.367 0 011.104-.144c.096.008.184.024.264.048l-.024.468a1.292 1.292 0 00-.264-.048 3.195 3.195 0 00-.288-.012c-.368 0-.692.096-.972.288a1.96 1.96 0 00-.636.696 1.64 1.64 0 00-.228.804v3.84h-.504zm4.055 0v-6h.504v6h-.504zm-.132-7.572v-.756h.768v.756h-.768zm5.265 10.248c-.488 0-.948-.072-1.38-.216a3.504 3.504 0 01-1.152-.624l.24-.408c.265.192.513.344.745.456.232.112.471.192.72.24.255.056.535.084.84.084.623 0 1.095-.172 1.415-.516.328-.336.492-.82.492-1.452v-2.052h.132c-.128.528-.4.94-.816 1.236-.407.296-.896.444-1.463.444-.552 0-1.032-.12-1.44-.36a2.526 2.526 0 01-.936-1.044c-.216-.448-.324-.976-.324-1.584 0-.608.107-1.132.323-1.572.224-.448.537-.792.936-1.032.409-.248.889-.372 1.44-.372.569 0 1.057.148 1.465.444.416.296.688.712.816 1.248l-.133-.156.108-1.44h.492c-.023.224-.047.444-.072.66a8.61 8.61 0 00-.024.636v4.86c0 .832-.203 1.46-.611 1.884-.409.424-1.012.636-1.813.636zm-.24-3.276c.664 0 1.188-.22 1.572-.66.392-.448.588-1.068.588-1.86s-.196-1.408-.588-1.848c-.384-.44-.908-.66-1.572-.66s-1.192.22-1.584.66c-.391.44-.587 1.056-.587 1.848s.196 1.412.588 1.86c.392.44.92.66 1.584.66zm4.763.6v-6h.505v6h-.505zm-.131-7.572v-.756h.768v.756h-.768zM27.04 81.5v-4.704c0-.208-.012-.42-.036-.636a20.212 20.212 0 00-.06-.66h.492l.108 1.44H27.4c.168-.504.448-.884.84-1.14.4-.264.868-.396 1.404-.396.712 0 1.248.184 1.608.552.368.368.552.944.552 1.728V81.5H31.3v-3.768c0-.648-.132-1.12-.396-1.416-.264-.296-.68-.444-1.248-.444-.648 0-1.164.196-1.548.588-.376.392-.564.92-.564 1.584V81.5h-.504zm9.1.096c-.544 0-1.017-.124-1.416-.372a2.422 2.422 0 01-.925-1.068c-.215-.464-.323-1.016-.323-1.656 0-.648.108-1.2.324-1.656.224-.464.535-.82.935-1.068.4-.248.869-.372 1.405-.372.568 0 1.052.148 1.452.444.407.296.675.704.803 1.224h-.144l.12-1.572h.492c-.023.224-.047.444-.072.66a8.61 8.61 0 00-.023.636V81.5h-.505v-1.572h.133c-.128.52-.396.928-.804 1.224-.409.296-.893.444-1.453.444zm0-.468c.656 0 1.175-.224 1.56-.672.383-.456.575-1.108.575-1.956 0-.848-.192-1.496-.576-1.944-.384-.456-.904-.684-1.56-.684s-1.18.228-1.572.684c-.383.448-.575 1.096-.575 1.944 0 .848.191 1.5.575 1.956.393.448.916.672 1.573.672zm6.492.468c-.488 0-.864-.152-1.128-.456-.256-.312-.384-.784-.384-1.416v-3.792h-1.2V75.5h1.2v-1.716l.504-.192V75.5h1.824v.432h-1.824v3.684c0 .528.08.912.24 1.152.168.24.436.36.804.36a1.785 1.785 0 00.756-.156v.48c-.088.04-.208.072-.36.096a1.986 1.986 0 01-.432.048zm2.138-.096v-6h.504v6h-.504zm-.132-7.572v-.756h.768v.756h-.768zm5.002 7.668c-.544 0-1.017-.124-1.416-.372a2.422 2.422 0 01-.925-1.068c-.215-.464-.323-1.016-.323-1.656 0-.64.108-1.192.324-1.656.215-.464.523-.82.923-1.068.4-.248.873-.372 1.417-.372s1.016.124 1.416.372c.4.248.707.604.923 1.068.225.464.337 1.016.337 1.656 0 .64-.112 1.192-.337 1.656-.215.464-.523.82-.923 1.068-.4.248-.873.372-1.416.372zm0-.468c.656 0 1.18-.224 1.572-.672.392-.456.587-1.108.587-1.956 0-.848-.195-1.496-.587-1.944-.392-.456-.916-.684-1.572-.684-.657 0-1.18.228-1.572.684-.385.448-.577 1.096-.577 1.944 0 .848.193 1.5.577 1.956.392.448.915.672 1.572.672zm4.376.372v-4.704c0-.208-.012-.42-.036-.636a20.212 20.212 0 00-.06-.66h.492l.108 1.44h-.144c.168-.504.448-.884.84-1.14.4-.264.868-.396 1.404-.396.712 0 1.248.184 1.608.552.368.368.552.944.552 1.728V81.5h-.504v-3.768c0-.648-.132-1.12-.396-1.416-.264-.296-.68-.444-1.248-.444-.648 0-1.164.196-1.548.588-.376.392-.564.92-.564 1.584V81.5h-.504zM3.758 95.432c-.392 0-.756-.092-1.092-.276a2.211 2.211 0 01-.804-.78c-.2-.328-.3-.692-.3-1.092 0-.368.092-.716.276-1.044.192-.328.452-.592.78-.792a2.121 2.121 0 011.14-.312 2.1 2.1 0 011.08.288c.328.184.592.436.792.756.208.32.312.688.312 1.104 0 .392-.1.752-.3 1.08a2.118 2.118 0 01-.792.78 2.122 2.122 0 01-1.092.288zm6.58 1.068l3.636-8.46h.492l3.708 8.46h-.552l-1.068-2.448.276.108h-5.244l.336-.108-1.044 2.448h-.54zm3.864-7.788l-2.148 5.052-.264-.072h4.836l-.192.072-2.208-5.052h-.024zm7.52 7.884c-.696 0-1.224-.188-1.584-.564-.36-.376-.54-.952-.54-1.728V90.5h.505v3.756c0 .648.131 1.124.395 1.428.264.296.672.444 1.224.444.616 0 1.108-.196 1.476-.588.369-.4.552-.928.552-1.584V90.5h.505v6h-.492v-1.464h.143c-.16.496-.435.88-.828 1.152-.383.272-.835.408-1.355.408zm6.391 0c-.488 0-.864-.152-1.128-.456-.256-.312-.384-.784-.384-1.416v-3.792h-1.2V90.5h1.2v-1.716l.504-.192V90.5h1.824v.432h-1.824v3.684c0 .528.08.912.24 1.152.168.24.436.36.804.36a1.785 1.785 0 00.756-.156v.48c-.088.04-.208.072-.36.096a1.986 1.986 0 01-.432.048zm4.336 0c-.544 0-1.016-.124-1.416-.372a2.422 2.422 0 01-.924-1.068c-.216-.464-.324-1.016-.324-1.656 0-.64.108-1.192.324-1.656.216-.464.524-.82.924-1.068.4-.248.872-.372 1.416-.372.544 0 1.016.124 1.416.372.4.248.708.604.924 1.068.224.464.336 1.016.336 1.656 0 .64-.112 1.192-.336 1.656-.216.464-.524.82-.924 1.068-.4.248-.872.372-1.416.372zm0-.468c.656 0 1.18-.224 1.572-.672.392-.456.588-1.108.588-1.956 0-.848-.196-1.496-.588-1.944-.392-.456-.916-.684-1.572-.684s-1.18.228-1.572.684c-.384.448-.576 1.096-.576 1.944 0 .848.192 1.5.576 1.956.392.448.916.672 1.572.672zm4.377.372v-4.704c0-.208-.012-.42-.036-.636a20.212 20.212 0 00-.06-.66h.492l.108 1.44h-.144c.152-.496.404-.876.756-1.14.352-.264.78-.396 1.284-.396.528 0 .952.128 1.272.384.32.248.528.636.624 1.164h-.168c.136-.472.392-.848.768-1.128.384-.28.844-.42 1.38-.42.64 0 1.128.184 1.464.552.336.368.504.944.504 1.728V96.5h-.504v-3.768c0-.648-.116-1.12-.348-1.416-.232-.296-.608-.444-1.128-.444-.584 0-1.048.196-1.392.588-.336.392-.504.92-.504 1.584V96.5h-.504v-3.768c0-.648-.116-1.12-.348-1.416-.232-.296-.608-.444-1.128-.444-.584 0-1.044.196-1.38.588-.336.392-.504.92-.504 1.584V96.5h-.504zm12.58.096c-.544 0-1.016-.124-1.416-.372a2.422 2.422 0 01-.924-1.068c-.216-.464-.324-1.016-.324-1.656 0-.648.108-1.2.324-1.656.224-.464.536-.82.936-1.068.4-.248.868-.372 1.404-.372.568 0 1.052.148 1.452.444.408.296.676.704.804 1.224h-.144l.12-1.572h.492l-.072.66a8.61 8.61 0 00-.024.636V96.5h-.504v-1.572h.132c-.128.52-.396.928-.804 1.224-.408.296-.892.444-1.452.444zm0-.468c.656 0 1.176-.224 1.56-.672.384-.456.576-1.108.576-1.956 0-.848-.192-1.496-.576-1.944-.384-.456-.904-.684-1.56-.684s-1.18.228-1.572.684c-.384.448-.576 1.096-.576 1.944 0 .848.192 1.5.576 1.956.392.448.916.672 1.572.672zm6.492.468c-.488 0-.864-.152-1.128-.456-.256-.312-.384-.784-.384-1.416v-3.792h-1.2V90.5h1.2v-1.716l.504-.192V90.5h1.824v.432H54.89v3.684c0 .528.08.912.24 1.152.168.24.436.36.804.36a1.785 1.785 0 00.756-.156v.48c-.088.04-.208.072-.36.096a1.986 1.986 0 01-.432.048zm4.552 0c-.88 0-1.58-.268-2.1-.804-.52-.544-.78-1.3-.78-2.268 0-.64.116-1.192.348-1.656.232-.464.556-.824.972-1.08a2.754 2.754 0 011.452-.384c.52 0 .96.112 1.32.336.368.216.648.532.84.948.2.408.3.896.3 1.464v.324h-4.908v-.456h4.644l-.204.156c0-.72-.168-1.284-.504-1.692-.336-.416-.836-.624-1.5-.624-.704 0-1.256.24-1.656.72-.392.48-.588 1.108-.588 1.884v.06c0 .848.208 1.496.624 1.944.416.44.996.66 1.74.66.376 0 .728-.06 1.056-.18.328-.12.644-.324.948-.612l.252.396c-.248.272-.576.484-.984.636a3.614 3.614 0 01-1.272.228zm6.78-4.332c0-.896.144-1.664.432-2.304.296-.648.72-1.144 1.272-1.488.56-.352 1.236-.528 2.028-.528.768 0 1.432.176 1.992.528.56.344.992.84 1.296 1.488.304.64.456 1.404.456 2.292 0 .896-.156 1.668-.468 2.316-.304.648-.736 1.148-1.296 1.5-.56.352-1.22.528-1.98.528-.784 0-1.456-.176-2.016-.528-.552-.352-.976-.852-1.272-1.5-.296-.648-.444-1.416-.444-2.304zm.54 0c0 1.208.272 2.152.816 2.832.544.672 1.336 1.008 2.376 1.008 1 0 1.784-.336 2.352-1.008.568-.672.852-1.616.852-2.832 0-1.216-.284-2.156-.852-2.82-.56-.672-1.344-1.008-2.352-1.008-1.04 0-1.832.336-2.376 1.008-.544.664-.816 1.604-.816 2.82zm9.046 4.236v-5.568h-1.2V90.5h1.32l-.12.132v-1.068c0-.616.148-1.092.444-1.428.304-.344.732-.516 1.284-.516.136 0 .28.016.432.048.152.024.272.056.36.096v.48a1.85 1.85 0 00-.336-.108 1.881 1.881 0 00-.432-.048c-.28 0-.516.06-.708.18-.184.12-.32.296-.408.528-.088.224-.132.508-.132.852v1.02l-.096-.168h1.86v.432H77.32V96.5h-.504zm3.61 0v-5.568h-1.2V90.5h1.32l-.12.132v-1.068c0-.616.147-1.092.443-1.428.304-.344.732-.516 1.284-.516.136 0 .28.016.432.048.152.024.272.056.36.096v.48a1.85 1.85 0 00-.336-.108 1.881 1.881 0 00-.432-.048c-.28 0-.516.06-.708.18-.184.12-.32.296-.408.528-.088.224-.132.508-.132.852v1.02l-.096-.168h1.86v.432H80.93V96.5h-.504zm5.782.096c-.88 0-1.58-.268-2.1-.804-.52-.544-.78-1.3-.78-2.268 0-.64.116-1.192.348-1.656.232-.464.556-.824.972-1.08a2.754 2.754 0 011.452-.384c.52 0 .96.112 1.32.336.368.216.648.532.84.948.2.408.3.896.3 1.464v.324h-4.908v-.456h4.644l-.204.156c0-.72-.168-1.284-.504-1.692-.336-.416-.836-.624-1.5-.624-.704 0-1.256.24-1.656.72-.392.48-.588 1.108-.588 1.884v.06c0 .848.208 1.496.624 1.944.416.44.996.66 1.74.66.376 0 .728-.06 1.056-.18.328-.12.644-.324.948-.612l.252.396c-.248.272-.576.484-.984.636a3.614 3.614 0 01-1.272.228zm3.996-.096v-4.632c0-.224-.008-.452-.024-.684a9.489 9.489 0 00-.048-.684h.492l.072 1.308-.108.012c.08-.32.224-.584.432-.792.216-.208.46-.364.732-.468a2.367 2.367 0 011.104-.144c.096.008.184.024.264.048l-.024.468a1.292 1.292 0 00-.264-.048 3.195 3.195 0 00-.288-.012c-.368 0-.692.096-.972.288a1.96 1.96 0 00-.636.696 1.64 1.64 0 00-.228.804v3.84h-.504zm-88.462 15v-8.46h.444l3.648 8.256h-.336l3.66-8.256h.432v8.46h-.468v-7.968h.288L5.882 111.5h-.42l-3.54-7.98h.288v7.98h-.468zm12.32.096c-.544 0-1.016-.124-1.416-.372a2.422 2.422 0 01-.924-1.068c-.216-.464-.324-1.016-.324-1.656 0-.648.108-1.2.324-1.656.224-.464.536-.82.936-1.068.4-.248.868-.372 1.404-.372.568 0 1.052.148 1.452.444.408.296.676.704.804 1.224h-.144l.12-1.572h.492l-.072.66a8.61 8.61 0 00-.024.636v4.704h-.504v-1.572h.132c-.128.52-.396.928-.804 1.224-.408.296-.892.444-1.452.444zm0-.468c.656 0 1.176-.224 1.56-.672.384-.456.576-1.108.576-1.956 0-.848-.192-1.496-.576-1.944-.384-.456-.904-.684-1.56-.684s-1.18.228-1.572.684c-.384.448-.576 1.096-.576 1.944 0 .848.192 1.5.576 1.956.392.448.916.672 1.572.672zm4.74.372v-4.704c0-.208-.011-.42-.035-.636a20.212 20.212 0 00-.06-.66h.491l.108 1.44h-.143c.168-.504.447-.884.84-1.14.4-.264.867-.396 1.404-.396.712 0 1.247.184 1.608.552.367.368.552.944.552 1.728v3.816h-.505v-3.768c0-.648-.132-1.12-.396-1.416-.264-.296-.68-.444-1.247-.444-.649 0-1.165.196-1.549.588-.376.392-.564.92-.564 1.584v3.456h-.504zm9.1.096c-.544 0-1.016-.124-1.416-.372a2.422 2.422 0 01-.924-1.068c-.216-.464-.324-1.016-.324-1.656 0-.648.108-1.2.324-1.656.224-.464.536-.82.936-1.068.4-.248.868-.372 1.404-.372.568 0 1.052.148 1.452.444.408.296.676.704.804 1.224h-.144l.12-1.572h.492l-.072.66a8.61 8.61 0 00-.024.636v4.704h-.504v-1.572h.132c-.128.52-.396.928-.804 1.224-.408.296-.892.444-1.452.444zm0-.468c.656 0 1.176-.224 1.56-.672.384-.456.576-1.108.576-1.956 0-.848-.192-1.496-.576-1.944-.384-.456-.904-.684-1.56-.684s-1.18.228-1.572.684c-.384.448-.576 1.096-.576 1.944 0 .848.192 1.5.576 1.956.392.448.916.672 1.572.672zm7.26 3.048c-.488 0-.948-.072-1.38-.216a3.504 3.504 0 01-1.152-.624l.24-.408c.264.192.512.344.744.456.232.112.472.192.72.24.256.056.536.084.84.084.624 0 1.096-.172 1.416-.516.328-.336.492-.82.492-1.452v-2.052h.132c-.128.528-.4.94-.816 1.236-.408.296-.896.444-1.464.444-.552 0-1.032-.12-1.44-.36a2.526 2.526 0 01-.936-1.044c-.216-.448-.324-.976-.324-1.584 0-.608.108-1.132.324-1.572.224-.448.536-.792.936-1.032.408-.248.888-.372 1.44-.372.568 0 1.056.148 1.464.444.416.296.688.712.816 1.248l-.132-.156.108-1.44h.492l-.072.66a8.61 8.61 0 00-.024.636v4.86c0 .832-.204 1.46-.612 1.884-.408.424-1.012.636-1.812.636zm-.24-3.276c.664 0 1.188-.22 1.572-.66.392-.448.588-1.068.588-1.86s-.196-1.408-.588-1.848c-.384-.44-.908-.66-1.572-.66s-1.192.22-1.584.66c-.392.44-.588 1.056-.588 1.848s.196 1.412.588 1.86c.392.44.92.66 1.584.66zm7.235.696c-.88 0-1.58-.268-2.1-.804-.52-.544-.78-1.3-.78-2.268 0-.64.116-1.192.348-1.656.232-.464.556-.824.972-1.08a2.754 2.754 0 011.452-.384c.52 0 .96.112 1.32.336.368.216.648.532.84.948.2.408.3.896.3 1.464v.324h-4.908v-.456h4.644l-.204.156c0-.72-.168-1.284-.504-1.692-.336-.416-.836-.624-1.5-.624-.704 0-1.256.24-1.656.72-.392.48-.588 1.108-.588 1.884v.06c0 .848.208 1.496.624 1.944.416.44.996.66 1.74.66.376 0 .728-.06 1.056-.18.328-.12.644-.324.948-.612l.252.396c-.248.272-.576.484-.984.636a3.614 3.614 0 01-1.272.228zm4.02-.096v-4.704c0-.208-.011-.42-.035-.636a20.212 20.212 0 00-.06-.66h.492l.108 1.44h-.145c.153-.496.404-.876.757-1.14.352-.264.78-.396 1.284-.396.527 0 .951.128 1.271.384.32.248.529.636.625 1.164h-.168c.136-.472.392-.848.768-1.128.384-.28.843-.42 1.38-.42.64 0 1.127.184 1.463.552.337.368.505.944.505 1.728v3.816h-.505v-3.768c0-.648-.116-1.12-.348-1.416-.232-.296-.608-.444-1.128-.444-.584 0-1.047.196-1.392.588-.335.392-.504.92-.504 1.584v3.456h-.504v-3.768c0-.648-.115-1.12-.347-1.416-.233-.296-.608-.444-1.129-.444-.584 0-1.043.196-1.38.588-.336.392-.504.92-.504 1.584v3.456h-.503zm12.797.096c-.88 0-1.58-.268-2.1-.804-.52-.544-.78-1.3-.78-2.268 0-.64.116-1.192.348-1.656.232-.464.556-.824.972-1.08a2.754 2.754 0 011.452-.384c.52 0 .96.112 1.32.336.368.216.648.532.84.948.2.408.3.896.3 1.464v.324h-4.908v-.456h4.644l-.204.156c0-.72-.168-1.284-.504-1.692-.336-.416-.836-.624-1.5-.624-.704 0-1.256.24-1.656.72-.392.48-.588 1.108-.588 1.884v.06c0 .848.208 1.496.624 1.944.416.44.996.66 1.74.66.376 0 .728-.06 1.056-.18.328-.12.644-.324.948-.612l.252.396c-.248.272-.576.484-.984.636a3.614 3.614 0 01-1.272.228zm4.02-.096v-4.704c0-.208-.012-.42-.036-.636a20.212 20.212 0 00-.06-.66h.492l.108 1.44h-.144c.168-.504.448-.884.84-1.14.4-.264.868-.396 1.404-.396.712 0 1.248.184 1.608.552.368.368.552.944.552 1.728v3.816h-.504v-3.768c0-.648-.132-1.12-.396-1.416-.264-.296-.68-.444-1.248-.444-.648 0-1.164.196-1.548.588-.376.392-.564.92-.564 1.584v3.456h-.504zm8.596.096c-.488 0-.864-.152-1.128-.456-.256-.312-.384-.784-.384-1.416v-3.792h-1.2v-.432h1.2v-1.716l.504-.192v1.908h1.824v.432h-1.824v3.684c0 .528.08.912.24 1.152.168.24.436.36.804.36a1.785 1.785 0 00.756-.156v.48c-.088.04-.208.072-.36.096a1.986 1.986 0 01-.432.048zM3.758 125.432c-.392 0-.756-.092-1.092-.276a2.211 2.211 0 01-.804-.78c-.2-.328-.3-.692-.3-1.092 0-.368.092-.716.276-1.044.192-.328.452-.592.78-.792a2.121 2.121 0 011.14-.312 2.1 2.1 0 011.08.288c.328.184.592.436.792.756.208.32.312.688.312 1.104 0 .392-.1.752-.3 1.08a2.118 2.118 0 01-.792.78 2.122 2.122 0 01-1.092.288zm7.336 1.068v-8.46h.504v8.46h-.504zm2.728 0v-4.704c0-.208-.012-.42-.036-.636a20.212 20.212 0 00-.06-.66h.492l.108 1.44h-.144c.168-.504.448-.884.84-1.14.4-.264.868-.396 1.404-.396.712 0 1.248.184 1.608.552.368.368.552.944.552 1.728v3.816h-.504v-3.768c0-.648-.132-1.12-.396-1.416-.264-.296-.68-.444-1.248-.444-.648 0-1.164.196-1.548.588-.376.392-.564.92-.564 1.584v3.456h-.504zm8.596.096c-.488 0-.864-.152-1.128-.456-.256-.312-.384-.784-.384-1.416v-3.792h-1.2v-.432h1.2v-1.716l.504-.192v1.908h1.824v.432H21.41v3.684c0 .528.08.912.24 1.152.168.24.436.36.804.36a1.785 1.785 0 00.756-.156v.48c-.088.04-.208.072-.36.096a1.986 1.986 0 01-.432.048zm4.552 0c-.88 0-1.58-.268-2.1-.804-.52-.544-.78-1.3-.78-2.268 0-.64.116-1.192.348-1.656.232-.464.556-.824.972-1.08a2.754 2.754 0 011.452-.384c.52 0 .96.112 1.32.336.368.216.648.532.84.948.2.408.3.896.3 1.464v.324h-4.908v-.456h4.644l-.204.156c0-.72-.168-1.284-.504-1.692-.336-.416-.836-.624-1.5-.624-.704 0-1.256.24-1.656.72-.392.48-.588 1.108-.588 1.884v.06c0 .848.208 1.496.624 1.944.416.44.996.66 1.74.66.376 0 .728-.06 1.056-.18.328-.12.644-.324.948-.612l.252.396c-.248.272-.576.484-.984.636a3.614 3.614 0 01-1.272.228zm6.54 2.58c-.488 0-.948-.072-1.38-.216a3.504 3.504 0 01-1.152-.624l.24-.408c.264.192.512.344.744.456.232.112.472.192.72.24.256.056.536.084.84.084.624 0 1.096-.172 1.416-.516.328-.336.492-.82.492-1.452v-2.052h.132c-.128.528-.4.94-.816 1.236-.408.296-.896.444-1.464.444-.552 0-1.032-.12-1.44-.36a2.526 2.526 0 01-.936-1.044c-.216-.448-.324-.976-.324-1.584 0-.608.108-1.132.324-1.572.224-.448.536-.792.936-1.032.408-.248.888-.372 1.44-.372.568 0 1.056.148 1.464.444.416.296.688.712.816 1.248l-.132-.156.108-1.44h.492l-.072.66a8.61 8.61 0 00-.024.636v4.86c0 .832-.204 1.46-.612 1.884-.408.424-1.012.636-1.812.636zm-.24-3.276c.664 0 1.188-.22 1.572-.66.392-.448.588-1.068.588-1.86s-.196-1.408-.588-1.848c-.384-.44-.908-.66-1.572-.66s-1.192.22-1.584.66c-.392.44-.588 1.056-.588 1.848s.196 1.412.588 1.86c.392.44.92.66 1.584.66zm4.739.6v-4.632c0-.224-.008-.452-.024-.684a9.489 9.489 0 00-.048-.684h.492l.072 1.308-.108.012c.08-.32.224-.584.432-.792.216-.208.46-.364.732-.468a2.367 2.367 0 011.104-.144c.096.008.184.024.264.048l-.024.468a1.292 1.292 0 00-.264-.048 3.195 3.195 0 00-.288-.012c-.368 0-.692.096-.972.288a1.96 1.96 0 00-.636.696 1.64 1.64 0 00-.228.804v3.84h-.504zm6.253.096c-.544 0-1.016-.124-1.416-.372a2.422 2.422 0 01-.924-1.068c-.216-.464-.324-1.016-.324-1.656 0-.648.108-1.2.324-1.656.224-.464.536-.82.936-1.068.4-.248.868-.372 1.404-.372.568 0 1.052.148 1.452.444.408.296.676.704.804 1.224h-.144l.12-1.572h.492l-.072.66a8.61 8.61 0 00-.024.636v4.704h-.504v-1.572h.132c-.128.52-.396.928-.804 1.224-.408.296-.892.444-1.452.444zm0-.468c.656 0 1.176-.224 1.56-.672.384-.456.576-1.108.576-1.956 0-.848-.192-1.496-.576-1.944-.384-.456-.904-.684-1.56-.684s-1.18.228-1.572.684c-.384.448-.576 1.096-.576 1.944 0 .848.192 1.5.576 1.956.392.448.916.672 1.572.672zm6.492.468c-.488 0-.864-.152-1.128-.456-.256-.312-.384-.784-.384-1.416v-3.792h-1.2v-.432h1.2v-1.716l.504-.192v1.908h1.824v.432h-1.824v3.684c0 .528.08.912.24 1.152.168.24.436.36.804.36a1.785 1.785 0 00.756-.156v.48c-.088.04-.208.072-.36.096a1.986 1.986 0 01-.432.048zm4.552 0c-.88 0-1.58-.268-2.1-.804-.52-.544-.78-1.3-.78-2.268 0-.64.116-1.192.348-1.656.232-.464.556-.824.972-1.08a2.754 2.754 0 011.452-.384c.52 0 .96.112 1.32.336.368.216.648.532.84.948.2.408.3.896.3 1.464v.324H52.75v-.456h4.644l-.204.156c0-.72-.168-1.284-.504-1.692-.336-.416-.836-.624-1.5-.624-.704 0-1.256.24-1.656.72-.392.48-.588 1.108-.588 1.884v.06c0 .848.208 1.496.624 1.944.416.44.996.66 1.74.66.376 0 .728-.06 1.056-.18.328-.12.644-.324.948-.612l.252.396c-.248.272-.576.484-.984.636a3.614 3.614 0 01-1.272.228zm6.252 0c-.536 0-1.004-.124-1.404-.372a2.448 2.448 0 01-.912-1.068c-.216-.464-.324-1.016-.324-1.656 0-.648.108-1.2.324-1.656.216-.464.52-.82.912-1.068.4-.248.868-.372 1.404-.372.568 0 1.056.148 1.464.444.408.296.68.704.816 1.224h-.132v-4.404h.504v8.832h-.504v-1.572h.132c-.136.52-.408.928-.816 1.224-.408.296-.896.444-1.464.444zm.012-.468c.648 0 1.168-.224 1.56-.672.392-.456.588-1.108.588-1.956 0-.848-.196-1.496-.588-1.944-.392-.456-.912-.684-1.56-.684-.656 0-1.176.228-1.56.684-.384.448-.576 1.096-.576 1.944 0 .848.192 1.5.576 1.956.384.448.904.672 1.56.672zM3.842 141.5v-7.992H.698v-.468H7.49v.468H4.346v7.992h-.504zm6.44.096c-.88 0-1.58-.268-2.1-.804-.52-.544-.78-1.3-.78-2.268 0-.64.116-1.192.348-1.656.232-.464.556-.824.972-1.08a2.754 2.754 0 011.452-.384c.52 0 .96.112 1.32.336.368.216.648.532.84.948.2.408.3.896.3 1.464v.324H7.726v-.456h4.644l-.204.156c0-.72-.168-1.284-.504-1.692-.336-.416-.836-.624-1.5-.624-.704 0-1.256.24-1.656.72-.392.48-.588 1.108-.588 1.884v.06c0 .848.208 1.496.624 1.944.416.44.996.66 1.74.66.376 0 .728-.06 1.056-.18.328-.12.644-.324.948-.612l.252.396c-.248.272-.576.484-.984.636a3.614 3.614 0 01-1.272.228zm6.337 0c-.56 0-1.044-.124-1.453-.372a2.536 2.536 0 01-.947-1.092c-.216-.472-.324-1.032-.324-1.68 0-.648.112-1.2.335-1.656.224-.456.54-.8.948-1.032.408-.24.889-.36 1.44-.36.377 0 .737.076 1.08.228.352.144.645.348.877.612l-.252.384a2.427 2.427 0 00-.829-.576 2.348 2.348 0 00-.887-.18c-.688 0-1.228.224-1.62.672-.385.44-.576 1.08-.576 1.92 0 .848.191 1.504.575 1.968.393.464.932.696 1.62.696.28 0 .568-.056.864-.168a2.44 2.44 0 00.853-.588l.252.384c-.24.272-.54.48-.9.624a2.77 2.77 0 01-1.056.216zm3.531-.096v-8.832h.504v4.284h-.144c.16-.512.444-.896.852-1.152.408-.264.88-.396 1.416-.396.728 0 1.264.188 1.608.564.352.376.528.94.528 1.692v3.84h-.504v-3.792c0-.64-.128-1.104-.384-1.392-.256-.296-.672-.444-1.248-.444-.64 0-1.156.196-1.548.588-.384.392-.576.912-.576 1.56v3.48h-.504zm6.844 0v-4.704c0-.208-.012-.42-.036-.636a20.212 20.212 0 00-.06-.66h.492l.108 1.44h-.144c.168-.504.448-.884.84-1.14.4-.264.868-.396 1.404-.396.712 0 1.248.184 1.608.552.368.368.552.944.552 1.728v3.816h-.504v-3.768c0-.648-.132-1.12-.396-1.416-.264-.296-.68-.444-1.248-.444-.648 0-1.164.196-1.548.588-.376.392-.564.92-.564 1.584v3.456h-.504zm9.1.096c-.544 0-1.016-.124-1.416-.372a2.422 2.422 0 01-.924-1.068c-.216-.464-.324-1.016-.324-1.656 0-.64.108-1.192.324-1.656.216-.464.524-.82.924-1.068.4-.248.872-.372 1.416-.372.544 0 1.016.124 1.416.372.4.248.708.604.924 1.068.224.464.336 1.016.336 1.656 0 .64-.112 1.192-.336 1.656-.216.464-.524.82-.924 1.068-.4.248-.872.372-1.416.372zm0-.468c.656 0 1.18-.224 1.572-.672.392-.456.588-1.108.588-1.956 0-.848-.196-1.496-.588-1.944-.392-.456-.916-.684-1.572-.684s-1.18.228-1.572.684c-.384.448-.576 1.096-.576 1.944 0 .848.192 1.5.576 1.956.392.448.916.672 1.572.672zm4.376.372v-8.832h.504v8.832h-.504zm4.87.096c-.544 0-1.016-.124-1.416-.372a2.422 2.422 0 01-.924-1.068c-.216-.464-.324-1.016-.324-1.656 0-.64.108-1.192.324-1.656.216-.464.524-.82.924-1.068.4-.248.872-.372 1.416-.372.544 0 1.016.124 1.416.372.4.248.708.604.924 1.068.224.464.336 1.016.336 1.656 0 .64-.112 1.192-.336 1.656-.216.464-.524.82-.924 1.068-.4.248-.872.372-1.416.372zm0-.468c.656 0 1.18-.224 1.572-.672.392-.456.588-1.108.588-1.956 0-.848-.196-1.496-.588-1.944-.392-.456-.916-.684-1.572-.684s-1.18.228-1.572.684c-.384.448-.576 1.096-.576 1.944 0 .848.192 1.5.576 1.956.392.448.916.672 1.572.672zm6.896 3.048c-.487 0-.947-.072-1.38-.216a3.504 3.504 0 01-1.151-.624l.24-.408c.264.192.511.344.743.456.232.112.472.192.72.24.256.056.536.084.84.084.625 0 1.096-.172 1.416-.516.328-.336.492-.82.492-1.452v-2.052h.133c-.129.528-.4.94-.817 1.236-.407.296-.895.444-1.464.444-.552 0-1.032-.12-1.44-.36a2.526 2.526 0 01-.935-1.044c-.217-.448-.325-.976-.325-1.584 0-.608.108-1.132.325-1.572.223-.448.535-.792.935-1.032.409-.248.889-.372 1.44-.372.569 0 1.056.148 1.464.444.416.296.688.712.816 1.248l-.131-.156.108-1.44h.492l-.072.66a8.61 8.61 0 00-.025.636v4.86c0 .832-.203 1.46-.611 1.884-.408.424-1.013.636-1.813.636zm-.24-3.276c.664 0 1.188-.22 1.572-.66.393-.448.589-1.068.589-1.86s-.196-1.408-.588-1.848c-.385-.44-.909-.66-1.573-.66-.663 0-1.192.22-1.584.66-.392.44-.587 1.056-.587 1.848s.195 1.412.587 1.86c.392.44.92.66 1.584.66zm4.427 3.324l-.12-.468c.377-.088.684-.2.925-.336.247-.128.456-.296.623-.504.169-.208.32-.468.456-.78l.313-.72-.012.252-2.616-6.168h.576l2.412 5.808h-.276l2.376-5.808h.576l-2.797 6.648c-.144.344-.3.632-.468.864-.167.24-.352.44-.551.6-.193.16-.409.288-.649.384a4.12 4.12 0 01-.768.228zM2.262 164.31c-.3 0-.568-.038-.804-.116a1.918 1.918 0 01-.619-.333l.159-.349c.123.091.247.169.37.232.127.06.263.106.407.138.145.028.307.042.487.042.314 0 .547-.058.698-.174a.559.559 0 00.228-.466.469.469 0 00-.159-.381c-.106-.088-.29-.158-.555-.211l-.556-.111c-.342-.071-.597-.185-.767-.344-.165-.159-.248-.374-.248-.645 0-.222.056-.416.169-.582.116-.166.279-.295.487-.386.208-.092.45-.138.724-.138.265 0 .506.041.725.122.218.077.405.192.56.344l-.153.338a1.54 1.54 0 00-.524-.317 1.749 1.749 0 00-.613-.101c-.29 0-.518.064-.688.191a.597.597 0 00-.248.508.53.53 0 00.158.407c.106.095.28.167.524.217l.56.111c.36.074.625.185.794.333.17.148.254.356.254.624a.917.917 0 01-.17.545c-.109.159-.266.282-.47.37a1.839 1.839 0 01-.73.132zm2.962 0c-.26 0-.46-.074-.597-.222-.138-.151-.206-.379-.206-.682v-1.465h-.519v-.333h.519v-.725l.428-.122v.847h.762v.333h-.762v1.417c0 .212.035.363.106.455.074.088.183.132.328.132a.974.974 0 00.18-.015c.052-.015.1-.03.142-.048v.36a.72.72 0 01-.18.047.98.98 0 01-.2.021zm1.972 0c-.254 0-.476-.054-.667-.164a1.127 1.127 0 01-.433-.476 1.648 1.648 0 01-.154-.735c0-.285.052-.531.154-.735.102-.205.247-.361.433-.471.19-.113.413-.169.667-.169.257 0 .48.056.666.169.19.11.337.266.44.471.105.204.158.45.158.735 0 .282-.053.527-.159.735a1.117 1.117 0 01-.439.476 1.29 1.29 0 01-.666.164zm0-.349c.254 0 .455-.086.603-.259.148-.176.222-.432.222-.767 0-.338-.076-.594-.227-.767a.74.74 0 00-.598-.264.74.74 0 00-.598.264c-.148.173-.222.429-.222.767 0 .335.074.591.222.767a.746.746 0 00.598.259zm1.932.302v-2.042c0-.099-.005-.199-.016-.301a8.499 8.499 0 00-.026-.312h.412l.053.581h-.063a.911.911 0 01.37-.465c.173-.109.372-.164.598-.164.313 0 .55.085.708.254.163.166.244.428.244.788v1.661h-.429v-1.635c0-.25-.05-.432-.153-.544-.099-.117-.254-.175-.466-.175-.246 0-.442.076-.587.227-.144.152-.217.355-.217.609v1.518h-.428zm4.279.047c-.416 0-.744-.12-.984-.359-.24-.244-.36-.58-.36-1.011 0-.278.053-.52.159-.724.106-.208.254-.369.444-.482.19-.116.41-.174.656-.174.243 0 .448.051.614.153a.996.996 0 01.38.439c.088.187.133.409.133.667v.158H12.39v-.269h1.777l-.09.068c0-.282-.063-.502-.19-.661-.127-.158-.316-.238-.566-.238-.264 0-.47.094-.619.281-.148.183-.222.432-.222.745v.048c0 .331.081.584.243.756.166.17.397.254.693.254.159 0 .307-.023.444-.069.142-.049.276-.128.402-.238l.149.302a1.193 1.193 0 01-.445.264c-.176.06-.363.09-.56.09zm1.745-.047v-3.729h.439v1.65h2.248v-1.65h.433v3.729h-.433v-1.703H15.59v1.703h-.44zm5.181.047c-.416 0-.744-.12-.984-.359-.24-.244-.36-.58-.36-1.011 0-.278.054-.52.16-.724.105-.208.253-.369.444-.482.19-.116.409-.174.656-.174.243 0 .447.051.613.153a.996.996 0 01.381.439c.088.187.132.409.132.667v.158h-2.057v-.269h1.777l-.09.068c0-.282-.063-.502-.19-.661-.127-.158-.316-.238-.566-.238-.265 0-.471.094-.62.281-.147.183-.221.432-.221.745v.048c0 .331.08.584.243.756.166.17.397.254.693.254.159 0 .307-.023.444-.069a1.23 1.23 0 00.402-.238l.148.302a1.193 1.193 0 01-.444.264c-.176.06-.363.09-.56.09zm2.703 0c-.233 0-.438-.054-.614-.164a1.129 1.129 0 01-.412-.476 1.727 1.727 0 01-.143-.735c0-.289.047-.536.143-.74.098-.205.236-.362.412-.471.177-.109.381-.164.614-.164.24 0 .446.06.619.18.176.12.294.282.354.486h-.064v-1.856h.429v3.893h-.423v-.635h.058a.863.863 0 01-.35.502c-.175.12-.383.18-.623.18zm.09-.349c.25 0 .451-.086.603-.259.151-.176.227-.432.227-.767 0-.338-.076-.594-.227-.767a.756.756 0 00-.603-.264.756.756 0 00-.603.264c-.148.173-.223.429-.223.767 0 .335.075.591.223.767a.762.762 0 00.603.259zm3.245 1.481c-.229 0-.44-.028-.635-.084a1.619 1.619 0 01-.523-.26l.127-.322c.11.077.217.139.322.185.106.046.216.079.328.1.113.025.233.037.36.037.26 0 .458-.068.592-.206.134-.137.201-.333.201-.587v-.777h.053a.867.867 0 01-.349.497c-.176.12-.382.18-.619.18-.243 0-.455-.053-.634-.159a1.114 1.114 0 01-.413-.46 1.643 1.643 0 01-.143-.709c0-.268.048-.501.143-.698.099-.198.236-.349.413-.455.18-.109.391-.164.634-.164.24 0 .446.06.62.18.175.12.292.285.348.497l-.053-.053.048-.576h.418a4.39 4.39 0 00-.043.613v2.026c0 .395-.102.693-.306.894-.201.201-.497.301-.889.301zm-.063-1.587c.257 0 .46-.084.608-.253.148-.173.222-.415.222-.725s-.074-.55-.222-.719c-.148-.17-.35-.254-.608-.254a.774.774 0 00-.609.254c-.151.169-.227.409-.227.719s.076.552.227.725a.777.777 0 00.609.253zm3.26.455c-.415 0-.743-.12-.983-.359-.24-.244-.36-.58-.36-1.011 0-.278.053-.52.159-.724.106-.208.254-.369.444-.482.19-.116.41-.174.656-.174.243 0 .448.051.614.153a.995.995 0 01.38.439c.089.187.133.409.133.667v.158h-2.058v-.269h1.777l-.09.068c0-.282-.063-.502-.19-.661-.127-.158-.316-.238-.566-.238-.264 0-.47.094-.619.281-.148.183-.222.432-.222.745v.048c0 .331.081.584.243.756.166.17.397.254.693.254.159 0 .307-.023.445-.069.14-.049.275-.128.401-.238l.149.302a1.192 1.192 0 01-.445.264c-.176.06-.363.09-.56.09zm3.077-.047v-2.655h.429v2.655h-.429zm-.053-3.258v-.482h.53v.482h-.53zm2.197 3.305c-.212 0-.41-.028-.592-.084a1.276 1.276 0 01-.455-.249l.148-.301c.13.102.271.178.423.227.155.049.316.074.481.074.212 0 .37-.037.476-.111a.369.369 0 00.164-.317.303.303 0 00-.105-.244c-.068-.063-.179-.112-.334-.148l-.492-.1c-.225-.05-.395-.132-.507-.249a.637.637 0 01-.17-.455c0-.155.04-.291.122-.407.081-.12.2-.213.354-.28.156-.071.337-.106.545-.106.194 0 .372.03.534.09.166.056.304.139.413.248l-.153.297a1.011 1.011 0 00-.365-.228 1.126 1.126 0 00-.418-.079c-.208 0-.365.042-.471.127a.39.39 0 00-.153.322c0 .103.031.187.095.254.067.064.17.111.307.143l.491.101c.24.053.418.135.535.248.12.11.18.258.18.445a.686.686 0 01-.133.417.837.837 0 01-.37.27 1.438 1.438 0 01-.55.095zm4.13 0c-.236 0-.443-.054-.619-.164a1.128 1.128 0 01-.412-.476 1.727 1.727 0 01-.143-.735c0-.289.047-.536.143-.74.098-.205.236-.362.412-.471.176-.109.383-.164.619-.164.24 0 .446.062.619.185.176.12.293.284.349.492h-.064l.059-.629h.412l-.032.312a4.39 4.39 0 00-.01.301v2.042h-.429v-.624h.059a.838.838 0 01-.35.491c-.176.12-.38.18-.613.18zm.085-.349c.254 0 .455-.086.603-.259.148-.176.222-.432.222-.767 0-.338-.074-.594-.222-.767a.747.747 0 00-.603-.264.757.757 0 00-.603.264c-.149.173-.223.429-.223.767 0 .335.075.591.223.767a.762.762 0 00.603.259zm3.455 1.444v-3.184c0-.099-.005-.199-.016-.301a8.327 8.327 0 00-.026-.312h.413l.058.629h-.064a.85.85 0 01.344-.492c.173-.123.38-.185.619-.185.24 0 .446.055.619.164.176.109.314.266.412.471.099.204.148.451.148.74 0 .286-.049.531-.148.735a1.094 1.094 0 01-.407.476c-.176.11-.384.164-.624.164-.236 0-.44-.06-.614-.18a.846.846 0 01-.343-.491h.058v1.766h-.429zm1.243-1.444c.254 0 .455-.086.603-.259.152-.176.228-.432.228-.767 0-.338-.076-.594-.228-.767a.747.747 0 00-.603-.264.756.756 0 00-.603.264c-.148.173-.222.429-.222.767 0 .335.074.591.222.767a.762.762 0 00.603.259zm1.918.302v-2.015c0-.106-.003-.214-.01-.323a4.517 4.517 0 00-.021-.317H46l.053.645-.074.005a.874.874 0 01.185-.391.919.919 0 01.688-.307c.053 0 .098.002.137.005a.422.422 0 01.116.027l-.005.38a.624.624 0 00-.148-.031.913.913 0 00-.148-.011.743.743 0 00-.407.111.75.75 0 00-.344.656v1.566h-.434zm2.99.047c-.253 0-.475-.054-.666-.164a1.127 1.127 0 01-.433-.476 1.648 1.648 0 01-.154-.735c0-.285.051-.531.154-.735.102-.205.246-.361.433-.471a1.28 1.28 0 01.667-.169c.257 0 .48.056.666.169.19.11.337.266.44.471.105.204.158.45.158.735 0 .282-.053.527-.159.735a1.117 1.117 0 01-.439.476 1.29 1.29 0 01-.666.164zm0-.349c.255 0 .456-.086.604-.259.148-.176.222-.432.222-.767 0-.338-.076-.594-.227-.767a.74.74 0 00-.598-.264c-.25 0-.45.088-.598.264-.148.173-.222.429-.222.767 0 .335.074.591.222.767a.746.746 0 00.598.259zm2.938.349c-.233 0-.437-.054-.614-.164a1.129 1.129 0 01-.412-.476 1.727 1.727 0 01-.143-.735c0-.289.047-.536.143-.74.099-.205.236-.362.412-.471.177-.109.381-.164.614-.164.24 0 .446.06.619.18.176.12.294.282.354.486h-.063v-1.856h.428v3.893h-.423v-.635h.058a.863.863 0 01-.349.502c-.176.12-.384.18-.624.18zm.09-.349c.25 0 .451-.086.603-.259.151-.176.227-.432.227-.767 0-.338-.076-.594-.227-.767a.756.756 0 00-.603-.264.756.756 0 00-.603.264c-.148.173-.222.429-.222.767 0 .335.074.591.222.767a.762.762 0 00.603.259zm3.013.349c-.314 0-.552-.086-.715-.259-.158-.173-.237-.437-.237-.793v-1.65h.428v1.639c0 .244.05.423.148.54.099.113.252.169.46.169.233 0 .42-.076.56-.227.142-.152.212-.355.212-.609v-1.512h.429v2.655h-.418v-.598h.069a.946.946 0 01-.36.476.983.983 0 01-.576.169zm3.232 0c-.26 0-.488-.056-.682-.169a1.152 1.152 0 01-.445-.481 1.664 1.664 0 01-.153-.741c0-.289.053-.534.159-.735.105-.204.254-.36.444-.465a1.39 1.39 0 01.677-.159c.17 0 .333.03.492.09.162.06.296.144.402.254l-.154.307a1.03 1.03 0 00-.349-.228.985.985 0 00-.364-.074c-.275 0-.489.086-.64.259-.152.173-.228.425-.228.757 0 .327.076.581.227.761.152.18.366.27.64.27a1.027 1.027 0 00.715-.296l.153.301c-.11.113-.245.199-.407.259-.163.06-.325.09-.487.09zm2.444 0c-.26 0-.46-.074-.597-.222-.138-.151-.207-.379-.207-.682v-1.465h-.518v-.333h.518v-.725l.429-.122v.847h.761v.333h-.761v1.417c0 .212.035.363.105.455.075.088.184.132.328.132a.973.973 0 00.18-.015c.053-.015.1-.03.143-.048v.36a.72.72 0 01-.18.047.98.98 0 01-.2.021zm3.62 0c-.24 0-.446-.06-.619-.18a.896.896 0 01-.349-.502h.058v.635h-.423v-3.893h.428v1.856h-.063a.875.875 0 01.35-.486c.172-.12.378-.18.618-.18s.446.056.619.169c.176.11.312.266.407.471.099.204.148.45.148.735 0 .286-.05.531-.148.735a1.129 1.129 0 01-.412.476c-.173.11-.378.164-.614.164zm-.09-.349c.25 0 .451-.086.603-.259.152-.173.227-.428.227-.767 0-.338-.075-.594-.227-.767a.756.756 0 00-.603-.264.756.756 0 00-.603.264c-.148.173-.222.429-.222.767 0 .335.074.591.222.767a.762.762 0 00.603.259zm1.787 1.502l-.1-.354c.165-.039.302-.085.412-.138a.775.775 0 00.28-.201c.074-.084.138-.19.19-.317l.138-.312-.01.18-1.159-2.713h.465l.958 2.332h-.138l.947-2.332h.45l-1.227 2.877c-.071.169-.149.31-.233.423a1.22 1.22 0 01-.275.28 1.152 1.152 0 01-.318.175 2.269 2.269 0 01-.38.1zm5.558-1.153c-.3 0-.567-.038-.803-.116a1.918 1.918 0 01-.62-.333l.16-.349c.123.091.246.169.37.232.127.06.262.106.407.138.145.028.307.042.487.042.313 0 .546-.058.698-.174a.559.559 0 00.227-.466.469.469 0 00-.159-.381c-.105-.088-.29-.158-.555-.211l-.555-.111c-.342-.071-.598-.185-.767-.344-.166-.159-.249-.374-.249-.645 0-.222.057-.416.17-.582.116-.166.278-.295.486-.386.208-.092.45-.138.725-.138.264 0 .506.041.724.122.219.077.406.192.56.344l-.152.338a1.54 1.54 0 00-.524-.317 1.749 1.749 0 00-.614-.101c-.289 0-.518.064-.687.191a.597.597 0 00-.249.508.53.53 0 00.159.407c.106.095.28.167.523.217l.561.111c.36.074.624.185.793.333.17.148.254.356.254.624a.917.917 0 01-.169.545c-.11.159-.266.282-.47.37a1.839 1.839 0 01-.73.132zm2.963 0c-.261 0-.46-.074-.598-.222-.137-.151-.206-.379-.206-.682v-1.465h-.518v-.333h.518v-.725l.428-.122v.847h.762v.333h-.762v1.417c0 .212.036.363.106.455.074.088.184.132.328.132a.975.975 0 00.18-.015c.053-.015.1-.03.143-.048v.36a.72.72 0 01-.18.047.98.98 0 01-.201.021zm1.971 0c-.254 0-.476-.054-.666-.164a1.128 1.128 0 01-.434-.476 1.65 1.65 0 01-.153-.735c0-.285.051-.531.153-.735.102-.205.247-.361.434-.471.19-.113.412-.169.666-.169.258 0 .48.056.667.169.19.11.337.266.439.471.106.204.158.45.158.735 0 .282-.052.527-.158.735a1.117 1.117 0 01-.44.476 1.29 1.29 0 01-.666.164zm0-.349c.254 0 .455-.086.603-.259.148-.176.222-.432.222-.767 0-.338-.075-.594-.227-.767a.741.741 0 00-.598-.264.74.74 0 00-.597.264c-.148.173-.222.429-.222.767 0 .335.074.591.222.767a.746.746 0 00.597.259zm1.933.302v-2.042c0-.099-.006-.199-.016-.301a8.773 8.773 0 00-.027-.312h.413l.053.581h-.064a.911.911 0 01.37-.465c.173-.109.372-.164.598-.164.314 0 .55.085.709.254.162.166.243.428.243.788v1.661h-.428v-1.635c0-.25-.051-.432-.154-.544-.098-.117-.254-.175-.465-.175-.247 0-.443.076-.587.227-.145.152-.217.355-.217.609v1.518h-.428zm4.278.047c-.416 0-.744-.12-.984-.359-.24-.244-.36-.58-.36-1.011 0-.278.053-.52.16-.724.105-.208.253-.369.444-.482.19-.116.409-.174.656-.174.243 0 .447.051.613.153a.994.994 0 01.38.439c.089.187.133.409.133.667v.158h-2.057v-.269h1.777l-.09.068c0-.282-.064-.502-.19-.661-.127-.158-.316-.238-.566-.238-.265 0-.471.094-.62.281-.147.183-.222.432-.222.745v.048c0 .331.082.584.244.756.165.17.396.254.693.254.158 0 .306-.023.444-.069a1.23 1.23 0 00.402-.238l.148.302a1.193 1.193 0 01-.444.264c-.177.06-.363.09-.56.09zm1.327-.047l1.487-1.989v.164l-1.418-1.904h.519l1.163 1.592h-.137l1.153-1.592h.523l-1.422 1.904v-.164l1.486 1.989h-.519l-1.243-1.688h.17l-1.243 1.688h-.519zm-82.628 7v-3.729h2.327v.36H1.485v1.306h1.771v.36H1.485v1.703h-.44zm2.922 0v-2.655h.428v2.655h-.428zm-.053-3.258v-.482h.529v.482h-.529zm1.313 3.258v-2.042c0-.099-.005-.199-.016-.301a8.477 8.477 0 00-.026-.312h.412l.053.581h-.063a.911.911 0 01.37-.465c.173-.109.372-.164.598-.164.314 0 .55.085.709.254.162.166.243.428.243.788v1.661h-.429v-1.635c0-.25-.05-.432-.153-.544-.099-.117-.254-.175-.465-.175-.247 0-.443.076-.587.227-.145.152-.217.355-.217.609v1.518h-.429zm4.11.047c-.237 0-.443-.054-.62-.164a1.128 1.128 0 01-.412-.476 1.727 1.727 0 01-.143-.735c0-.289.048-.536.143-.74.099-.205.237-.362.413-.471.176-.109.382-.164.619-.164.24 0 .446.062.618.185.177.12.293.284.35.492h-.064l.058-.629h.413l-.032.312c-.007.102-.01.202-.01.301v2.042h-.429v-.624h.058a.838.838 0 01-.349.491c-.176.12-.38.18-.613.18zm.084-.349c.254 0 .455-.086.603-.259.148-.176.222-.432.222-.767 0-.338-.074-.594-.222-.767a.747.747 0 00-.603-.264.756.756 0 00-.603.264c-.148.173-.222.429-.222.767 0 .335.074.591.222.767a.762.762 0 00.603.259zm2.077.302v-2.042c0-.099-.005-.199-.016-.301a8.542 8.542 0 00-.027-.312h.413l.053.581h-.064a.911.911 0 01.37-.465c.174-.109.373-.164.598-.164.314 0 .55.085.71.254.161.166.242.428.242.788v1.661h-.428v-1.635c0-.25-.051-.432-.153-.544-.099-.117-.254-.175-.466-.175-.247 0-.442.076-.587.227-.144.152-.217.355-.217.609v1.518H11.5zm4.215.047c-.26 0-.488-.056-.682-.169a1.152 1.152 0 01-.445-.481 1.664 1.664 0 01-.153-.741c0-.289.053-.534.159-.735.105-.204.254-.36.444-.465a1.39 1.39 0 01.677-.159c.17 0 .333.03.492.09.162.06.296.144.402.254l-.154.307a1.03 1.03 0 00-.349-.228.985.985 0 00-.364-.074c-.276 0-.489.086-.64.259-.152.173-.228.425-.228.757 0 .327.076.581.228.761.151.18.364.27.64.27a1.027 1.027 0 00.713-.296l.154.301c-.11.113-.245.199-.407.259-.163.06-.325.09-.487.09zm1.503-.047v-2.655h.428v2.655h-.428zm-.053-3.258v-.482h.529v.482h-.53zm2.323 3.305c-.236 0-.442-.054-.618-.164a1.129 1.129 0 01-.413-.476 1.727 1.727 0 01-.143-.735c0-.289.048-.536.143-.74.099-.205.236-.362.413-.471.176-.109.382-.164.618-.164.24 0 .446.062.62.185.175.12.292.284.348.492h-.063l.058-.629h.413l-.032.312c-.007.102-.01.202-.01.301v2.042h-.43v-.624h.059a.838.838 0 01-.35.491c-.175.12-.38.18-.613.18zm.085-.349c.254 0 .455-.086.603-.259.148-.176.222-.432.222-.767 0-.338-.074-.594-.222-.767a.747.747 0 00-.603-.264.756.756 0 00-.603.264c-.148.173-.222.429-.222.767 0 .335.074.591.222.767a.762.762 0 00.603.259zm2.077.302v-3.893h.428v3.893h-.428zm2.687 0v-3.729h.439v3.729h-.44zm1.32 0v-2.042c0-.099-.005-.199-.015-.301a8.544 8.544 0 00-.026-.312h.412l.053.581h-.064a.911.911 0 01.37-.465c.174-.109.373-.164.598-.164.314 0 .55.085.71.254.161.166.242.428.242.788v1.661h-.428v-1.635c0-.25-.051-.432-.153-.544-.1-.117-.254-.175-.466-.175-.247 0-.442.076-.587.227-.145.152-.217.355-.217.609v1.518h-.428zm4.216.047c-.261 0-.488-.056-.682-.169a1.152 1.152 0 01-.445-.481 1.664 1.664 0 01-.153-.741c0-.289.053-.534.159-.735.105-.204.253-.36.444-.465a1.39 1.39 0 01.677-.159c.17 0 .333.03.492.09.162.06.296.144.402.254l-.154.307a1.03 1.03 0 00-.349-.228.985.985 0 00-.365-.074c-.275 0-.488.086-.64.259-.151.173-.227.425-.227.757 0 .327.076.581.227.761.152.18.365.27.64.27a1.027 1.027 0 00.714-.296l.154.301c-.11.113-.245.199-.407.259-.163.06-.325.09-.487.09zm1.47-.047v-.54h.54v.54h-.54zm2.25-1.312v-.28h2.67v.28h-2.67zm4.514 1.312v-3.729h2.327v.36h-1.888v1.306h1.772v.36h-1.772v1.703h-.439zm4.506.047c-.374 0-.691-.077-.952-.232a1.55 1.55 0 01-.603-.662c-.137-.285-.206-.625-.206-1.02s.069-.734.206-1.016c.141-.286.342-.506.603-.661.261-.155.578-.233.952-.233.265 0 .5.041.709.122.208.081.39.199.545.354l-.164.349a1.798 1.798 0 00-.503-.322 1.469 1.469 0 00-.582-.106c-.426 0-.75.132-.973.397-.222.264-.333.636-.333 1.116 0 .479.111.853.333 1.121.222.264.547.397.973.397.223 0 .416-.034.582-.101.166-.07.333-.181.503-.333l.164.354c-.155.152-.337.27-.545.355a1.942 1.942 0 01-.709.121zm1.997-.047v-3.729h.381l1.497 3.38h-.153l1.496-3.38h.381v3.729h-.402V168.1h.159l-1.412 3.163h-.291l-1.418-3.163h.159v3.163h-.397zm5.914 0v-3.729h1.238c.413 0 .762.072 1.047.217.286.141.503.351.65.629.149.275.223.614.223 1.016 0 .398-.074.737-.222 1.015-.148.279-.365.49-.65.635-.286.144-.635.217-1.048.217h-1.238zm.44-.376h.766c.508 0 .885-.123 1.132-.37.247-.25.37-.624.37-1.121 0-.501-.123-.875-.37-1.122-.247-.247-.624-.37-1.132-.37h-.767v2.983zm3.464.376v-2.655h.429v2.655h-.429zm-.053-3.258v-.482h.53v.482h-.53zm2.096 3.258l-1.137-2.655h.466l.952 2.337h-.143l.962-2.337h.445l-1.137 2.655h-.408zm2.027 0v-2.655h.429v2.655h-.429zm-.053-3.258v-.482h.53v.482h-.53zm2.197 3.305c-.212 0-.409-.028-.592-.084a1.276 1.276 0 01-.455-.249l.148-.301c.13.102.271.178.423.227.155.049.316.074.481.074.212 0 .37-.037.476-.111a.369.369 0 00.164-.317.303.303 0 00-.105-.244c-.067-.063-.179-.112-.334-.148l-.492-.1c-.225-.05-.395-.132-.507-.249a.637.637 0 01-.17-.455c0-.155.04-.291.122-.407.081-.12.2-.213.354-.28.155-.071.337-.106.545-.106.194 0 .372.03.534.09.166.056.304.139.413.248l-.153.297a1.011 1.011 0 00-.365-.228 1.126 1.126 0 00-.418-.079c-.208 0-.365.042-.471.127a.39.39 0 00-.153.322c0 .103.031.187.095.254.067.064.17.111.307.143l.492.101c.24.053.417.135.534.248.12.11.18.258.18.445a.685.685 0 01-.133.417.836.836 0 01-.37.27 1.438 1.438 0 01-.55.095zm1.74-.047v-2.655h.43v2.655h-.43zm-.052-3.258v-.482h.529v.482h-.53zm2.402 3.305c-.253 0-.475-.054-.666-.164a1.127 1.127 0 01-.434-.476 1.648 1.648 0 01-.153-.735c0-.285.051-.531.153-.735.103-.205.247-.361.434-.471a1.28 1.28 0 01.666-.169c.258 0 .48.056.667.169.19.11.337.266.439.471.106.204.159.45.159.735 0 .282-.053.527-.159.735a1.117 1.117 0 01-.439.476 1.29 1.29 0 01-.666.164zm0-.349c.254 0 .455-.086.604-.259.148-.176.222-.432.222-.767 0-.338-.076-.594-.228-.767a.74.74 0 00-.597-.264c-.25 0-.45.088-.598.264-.148.173-.222.429-.222.767 0 .335.074.591.222.767a.746.746 0 00.597.259zm1.933.302v-2.042c0-.099-.006-.199-.016-.301a8.542 8.542 0 00-.027-.312h.413l.053.581h-.064a.912.912 0 01.37-.465c.173-.109.373-.164.598-.164.314 0 .55.085.709.254.162.166.243.428.243.788v1.661h-.428v-1.635c0-.25-.051-.432-.153-.544-.1-.117-.254-.175-.466-.175-.247 0-.442.076-.587.227-.145.152-.217.355-.217.609v1.518h-.428z" fill="#000"/></svg>