<svg width="100" height="178" viewBox="0 0 100 178" fill="none" xmlns="http://www.w3.org/2000/svg"><path d="M3.778 13.623c-.383 0-.807-.055-1.272-.164a4.657 4.657 0 01-1.176-.438l-.068-2.023.875-.055.465 1.409c.182.118.396.214.642.287.256.064.497.095.725.095.41 0 .72-.086.93-.26a.843.843 0 00.328-.697c0-.319-.096-.574-.287-.765a2.3 2.3 0 00-.725-.492c-.3-.137-.62-.27-.957-.397a6.692 6.692 0 01-.957-.478 2.435 2.435 0 01-.738-.725c-.183-.3-.274-.68-.274-1.135 0-.492.137-.92.41-1.285.283-.374.675-.66 1.176-.861.51-.21 1.099-.315 1.764-.315.21 0 .433.014.67.041.246.028.483.073.71.137.229.055.43.118.602.191l.15 1.996-.86.055-.438-1.34a2.086 2.086 0 00-.97-.218c-.375 0-.684.095-.93.287-.237.182-.356.442-.356.779 0 .3.096.551.287.752.192.191.438.36.738.506.301.136.62.273.957.41.347.137.67.3.971.492.31.182.56.415.752.697.192.283.287.643.287 1.08 0 .465-.146.885-.437 1.258-.283.365-.684.652-1.203.862-.51.21-1.108.314-1.791.314zm8.9-1.271a1.817 1.817 0 01-.752.943 2.181 2.181 0 01-1.203.342c-.629 0-1.149-.183-1.559-.547-.4-.374-.601-.93-.601-1.668l.04-3.049h-.956v-.424l2.338-1.86h.423l-.027 1.929-.027 3.24c0 .383.09.66.273.834.182.164.438.246.766.246.173 0 .342-.032.506-.096.164-.073.305-.164.424-.273l.355.383zM9.684 8.373v-.861h2.611v.861H9.684zm6.467 5.236c-.638 0-1.199-.127-1.682-.382a2.943 2.943 0 01-1.135-1.08 3.07 3.07 0 01-.41-1.587c0-.674.155-1.248.465-1.722.31-.474.715-.834 1.217-1.08a3.582 3.582 0 011.6-.37c.6 0 1.13.128 1.585.383.465.256.825.616 1.08 1.08.265.456.397.98.397 1.573a3.163 3.163 0 01-1.545 2.761 3.012 3.012 0 01-1.572.424zm.136-.875c.228 0 .42-.072.575-.218.164-.146.287-.36.369-.643a3.31 3.31 0 00.136-1.012c0-.784-.127-1.422-.382-1.914-.247-.492-.58-.738-.998-.738-.347 0-.62.178-.82.533-.201.347-.301.82-.301 1.422 0 .483.059.92.177 1.313.128.391.296.701.506.93.219.218.465.327.738.327zm3.72.766l-.042-.629.848-.232c.009-.037.018-.119.027-.246a14.217 14.217 0 00.041-1.121l.014-1.04c0-.282-.01-.528-.028-.738a5.99 5.99 0 00-.095-.656l-.875-.192v-.615l2.406-.615.37.232-.083.807.041.014c.283-.365.593-.634.93-.807.346-.182.71-.273 1.093-.273.393 0 .739.095 1.04.287.31.191.556.474.738.847.182.365.273.807.273 1.327v1.408c0 .31.005.601.014.875.01.264.027.433.055.506l.847.232-.04.629h-3.432l-.041-.629.779-.232c.018-.082.032-.196.041-.342.01-.155.014-.324.014-.506.009-.182.013-.356.013-.52v-1.148c0-.346-.054-.624-.164-.834a1.022 1.022 0 00-.984-.629c-.228 0-.442.05-.643.15-.191.1-.364.247-.52.438v2.01c0 .31.005.601.014.875.019.264.037.433.055.506l.834.232-.04.629h-3.5zm11.306.11c-.593 0-1.121-.133-1.586-.397a2.925 2.925 0 01-1.08-1.08 3.107 3.107 0 01-.383-1.545c0-.638.146-1.194.437-1.668.292-.483.67-.861 1.135-1.135.474-.273.98-.405 1.518-.396.802 0 1.422.25 1.86.752.437.492.655 1.134.655 1.927v.329h-4.02v-.711h2.68l-.205.328v-.465c0-.429-.095-.77-.287-1.026-.191-.255-.455-.382-.793-.382-.227 0-.433.063-.615.191s-.328.324-.437.588c-.1.255-.15.579-.15.97v.288c0 .638.168 1.153.505 1.545.346.392.807.587 1.381.587.31 0 .592-.054.848-.164.255-.118.5-.314.738-.587l.424.382c-.256.547-.616.962-1.08 1.244-.465.283-.98.424-1.545.424zm8.394-.11l-.04-.684.847-.218c.018-.046.032-.169.04-.37.02-.2.033-.45.042-.751.01-.301.014-.63.014-.985v-2.01c0-.364-.005-.697-.014-.998-.01-.31-.023-.56-.041-.752-.01-.2-.023-.323-.041-.369l-.848-.205.041-.683h3.664l.041.683-.861.205c-.01.046-.023.173-.041.383-.018.21-.032.47-.041.78-.01.31-.014.628-.014.956v2.01c0 .32.005.634.014.943.01.301.023.561.041.78.018.21.032.337.041.383l.861.218-.04.684h-3.665zm-4.894 0l-.041-.684.861-.218c.018-.046.032-.164.041-.356.018-.191.032-.437.041-.738.01-.31.014-.647.014-1.012v-2.01c0-.373-.005-.715-.014-1.025-.009-.31-.023-.56-.04-.752-.01-.2-.024-.314-.042-.342l-.861-.205.04-.683h3.651l.041.683-.847.205a1.855 1.855 0 00-.055.37c-.01.19-.018.441-.027.751v3.993c.009.3.018.551.027.752.018.2.036.323.055.369l.847.218-.04.684h-3.651zm2.447-3.582v-1.04c.219.028.47.046.752.056.292.009.652.013 1.08.013.428 0 .784-.004 1.066-.013.283-.01.534-.028.752-.055v1.039c-.191-.01-.428-.018-.71-.027a17.947 17.947 0 00-1.108-.028c-.456 0-.83.01-1.121.028-.283.009-.52.018-.711.027zm10.158 3.691c-.592 0-1.12-.132-1.586-.396a2.923 2.923 0 01-1.08-1.08 3.107 3.107 0 01-.383-1.545c0-.638.146-1.194.438-1.668.292-.483.67-.861 1.135-1.135.474-.273.98-.405 1.517-.396.802 0 1.422.25 1.86.752.437.492.656 1.134.656 1.927v.329h-4.02v-.711h2.68l-.205.328v-.465c0-.429-.096-.77-.287-1.026-.192-.255-.456-.382-.793-.382-.228 0-.433.063-.615.191-.183.128-.328.324-.438.588-.1.255-.15.579-.15.97v.288c0 .638.168 1.153.506 1.545.346.392.806.587 1.38.587.31 0 .593-.054.848-.164.255-.118.501-.314.738-.587l.424.382c-.255.547-.615.962-1.08 1.244-.465.283-.98.424-1.545.424zm8.176.069l-.37-.205.015-.889-.041-.014c-.228.392-.484.67-.766.834a1.798 1.798 0 01-.875.233c-.483 0-.93-.123-1.34-.37a2.731 2.731 0 01-.984-1.025c-.246-.446-.37-.961-.37-1.545 0-.51.096-.966.288-1.367.191-.41.446-.756.765-1.039.32-.292.675-.51 1.067-.656a3.245 3.245 0 011.203-.233c.173 0 .35.019.533.055.182.027.333.073.451.137 0-.173-.004-.365-.014-.574 0-.22-.004-.433-.013-.643 0-.219-.005-.415-.014-.588a4.5 4.5 0 00-.014-.41l-1.011-.15-.028-.588 2.584-.67.383.232c-.027.565-.054 1.09-.082 1.572a26.11 26.11 0 00-.04 1.504l-.014 3.172c0 .447.013.811.04 1.094.028.283.05.524.069.725l.902.19v.589l-2.324.629zm-1.38-1.354c.145 0 .309-.045.491-.136.192-.092.356-.242.492-.452V8.687a.983.983 0 00-.45-.355 1.329 1.329 0 00-.52-.11c-.429 0-.784.178-1.067.534-.273.355-.41.843-.41 1.463 0 .674.142 1.194.424 1.558.292.365.638.547 1.04.547zm7.15 4.293c-.967 0-1.723-.132-2.27-.396-.538-.265-.807-.63-.807-1.094 0-.3.16-.583.479-.848.328-.255.77-.46 1.326-.615l.588.055a1.918 1.918 0 00-.52.533c-.127.2-.191.41-.191.629 0 .31.128.547.383.71.264.174.647.26 1.148.26.492 0 .903-.109 1.23-.328.329-.21.493-.473.493-.793 0-.227-.082-.4-.246-.52-.164-.108-.447-.181-.848-.218l-1.736-.15-.123-.069c-.465 0-.825-.09-1.08-.273-.255-.173-.383-.401-.383-.684 0-.291.141-.56.424-.806.291-.255.688-.456 1.19-.602l.218.233a.96.96 0 00-.246.218.334.334 0 00-.096.22c0 .108.032.19.096.245a.65.65 0 00.3.11l2.12.205c.674.064 1.175.241 1.504.533.328.291.492.674.492 1.148 0 .429-.15.816-.451 1.162-.292.347-.702.62-1.23.82-.52.21-1.108.315-1.764.315zm.054-4.73c-.547 0-1.03-.091-1.449-.274a2.335 2.335 0 01-.957-.779 2.026 2.026 0 01-.342-1.162c0-.447.123-.843.37-1.19a2.54 2.54 0 01.997-.82c.429-.2.907-.3 1.436-.3.52 0 .98.104 1.38.314.41.2.734.474.971.82s.356.738.356 1.176c0 .428-.119.811-.356 1.148-.236.328-.56.588-.97.78-.41.191-.889.287-1.436.287zm.11-.793a.766.766 0 00.67-.37c.164-.255.246-.596.246-1.025 0-.465-.092-.838-.274-1.12-.173-.283-.41-.425-.71-.425-.274 0-.498.132-.67.397-.174.264-.26.615-.26 1.053 0 .446.09.806.273 1.08.182.273.424.41.725.41zm3.404-2.475l-1.846-.178-.41-.642 2.256-.274V8.62zm3.637 4.99c-.593 0-1.121-.132-1.586-.396a2.923 2.923 0 01-1.08-1.08 3.107 3.107 0 01-.383-1.545c0-.638.146-1.194.437-1.668.292-.483.67-.861 1.135-1.135.474-.273.98-.405 1.518-.396.802 0 1.421.25 1.859.752.438.492.656 1.134.656 1.927v.329h-4.02v-.711h2.68l-.205.328v-.465c0-.429-.095-.77-.287-1.026-.191-.255-.456-.382-.793-.382-.228 0-.433.063-.615.191s-.328.324-.438.588c-.1.255-.15.579-.15.97v.288c0 .638.169 1.153.506 1.545.346.392.807.587 1.38.587.31 0 .593-.054.848-.164.256-.118.502-.314.739-.587l.424.382c-.256.547-.616.962-1.08 1.244-.465.283-.98.424-1.545.424zm5.974-.109l-.027-.506.916-.191c.009-.037.014-.1.014-.192.009-.09.018-.237.027-.437.009-.2.014-.479.014-.834v-.902c0-.374-.01-.716-.028-1.026a7.914 7.914 0 00-.068-.725l-.916-.19v-.452l1.941-.506.205.191c-.027.283-.05.561-.068.834-.01.274-.014.593-.014.957v1.723c0 .42.005.766.014 1.04.018.273.036.446.055.519l.916.191-.028.506h-2.953zm1.477-7.506a.875.875 0 01-.602-.232.759.759 0 01-.246-.574c0-.228.082-.42.246-.575a.875.875 0 01.602-.232.797.797 0 01.82.806.797.797 0 01-.82.807zm4.498 7.615c-.337 0-.675-.036-1.012-.109a3.625 3.625 0 01-.861-.315l-.069-1.462h.67l.274.984c.319.219.683.328 1.094.328.31 0 .56-.073.751-.219a.752.752 0 00.288-.615.841.841 0 00-.26-.615c-.173-.182-.51-.378-1.012-.588-.647-.282-1.103-.551-1.367-.807-.264-.264-.397-.601-.397-1.011 0-.328.096-.616.287-.862.201-.255.475-.45.82-.588a3.08 3.08 0 011.204-.218c.255 0 .515.023.78.068.264.046.482.105.656.178l.15 1.422h-.643l-.328-.93a1.07 1.07 0 00-.328-.123 1.487 1.487 0 00-.41-.055c-.32 0-.574.078-.766.233a.688.688 0 00-.287.574.83.83 0 00.315.67c.21.164.578.369 1.107.615.602.274 1.02.542 1.258.807.237.264.355.583.355.957 0 .492-.214.897-.642 1.216-.429.31-.97.465-1.627.465zM1.016 29.5l-.027-.492.847-.205a1.8 1.8 0 00.014-.246c.009-.1.018-.246.027-.438.01-.191.014-.451.014-.78l.014-1.066c.009-.191.004-.387-.014-.587a9.493 9.493 0 00-.096-.998l-.875-.192v-.451l1.832-.506.233.219-.069.738.041.014c.283-.356.574-.61.875-.766a2.09 2.09 0 01.944-.232c.319 0 .629.086.93.26.3.173.546.437.738.793.2.355.3.81.3 1.367l.014 1.449c0 .328.005.624.014.889.018.255.04.433.068.533l.82.205-.04.492H4.952l-.04-.492.751-.205a5.09 5.09 0 00.041-.684c.01-.173.014-.387.014-.642l-.014-1.504c0-.392-.063-.707-.191-.944a1.158 1.158 0 00-.479-.52c-.2-.109-.414-.163-.642-.163-.283 0-.547.068-.793.205-.246.137-.465.35-.656.642v2.051c0 .42.004.761.013 1.026.018.255.037.433.055.533l.807.205-.041.492H1.016zm7.71 0l-.04-.492.78-.205c.008-.073.013-.164.013-.274a12.556 12.556 0 00.041-1.053v-1.49c0-.4-.069-.72-.205-.957a1.293 1.293 0 00-.52-.52 1.27 1.27 0 00-.615-.163c-.31 0-.597.077-.861.232-.265.155-.502.392-.711.711l-.26-.506c.319-.437.656-.756 1.012-.957a2.27 2.27 0 011.148-.314c.383 0 .73.09 1.04.273.309.182.555.447.737.793.183.346.274.766.274 1.258v1.545c0 .328.004.624.014.889.018.255.036.433.054.533l.848.205-.027.492H8.726zm6.495.11a2.915 2.915 0 01-1.436-.356 2.695 2.695 0 01-1.011-1.012c-.246-.446-.37-.97-.37-1.572 0-.647.133-1.208.397-1.682s.61-.838 1.04-1.093a2.493 2.493 0 011.38-.383c.71.009 1.267.246 1.668.71.401.465.602 1.122.602 1.97v.245h-4.198v-.601h3.295l-.15.178v-.287c0-.53-.119-.935-.356-1.217-.237-.283-.56-.424-.97-.424a1.33 1.33 0 00-.739.232c-.237.146-.428.374-.574.684-.146.3-.219.684-.219 1.148v.165c0 .747.183 1.33.547 1.75.374.419.852.628 1.436.628a1.9 1.9 0 00.861-.191c.255-.128.501-.333.738-.615l.342.314c-.255.474-.579.83-.97 1.067-.392.227-.83.341-1.313.341zm3.213-.11l-.041-.492.848-.205c.009-.046.018-.128.027-.246.009-.119.014-.278.014-.479.009-.2.013-.447.013-.738l.014-1.067c0-.3-.014-.597-.041-.888a7.82 7.82 0 00-.069-.698l-.875-.19v-.452l1.832-.506.192.191-.055 1.149.041.014c.274-.53.552-.884.834-1.067.283-.191.547-.287.793-.287.21 0 .383.055.52.164.145.1.218.255.218.465a.6.6 0 01-.232.506.909.909 0 01-.56.164c-.165 0-.324-.037-.479-.11a1.81 1.81 0 01-.424-.3l.246.082c-.173.11-.337.264-.492.465a3.165 3.165 0 00-.424.724l.014 1.272.027.71c.01.247.018.47.028.67.009.192.018.342.027.452l1.19.177-.028.52h-3.158zm7.601.11c-.51 0-.98-.115-1.408-.342a2.666 2.666 0 01-1.025-1.012c-.255-.447-.383-.975-.383-1.586 0-.593.132-1.126.396-1.6a3.039 3.039 0 012.693-1.559c.402 0 .74.05 1.013.151.273.1.478.233.615.397a.773.773 0 01.218.52.529.529 0 01-.136.368.518.518 0 01-.383.137.847.847 0 01-.383-.082c-.11-.055-.241-.164-.396-.328l-.698-.697.493.136a1.61 1.61 0 00-1.053.11c-.337.146-.615.405-.834.779-.219.364-.328.838-.328 1.422 0 .729.182 1.29.547 1.681.373.392.838.588 1.394.588.347 0 .643-.063.889-.191.255-.128.497-.333.725-.615l.369.314c-.256.474-.58.83-.971 1.067-.392.227-.843.341-1.354.341zm2.79-.11l-.028-.492.848-.205c.018-.1.032-.25.04-.451.01-.21.015-.488.015-.834.009-.347.013-.77.013-1.272v-1.709c0-.31-.004-.642-.014-.998 0-.355-.004-.697-.013-1.025 0-.338-.005-.63-.014-.875 0-.246-.004-.41-.014-.492l-1.011-.137-.028-.438 1.928-.56.26.191-.027.848c-.01.282-.019.588-.028.916 0 .319-.004.683-.014 1.094v1.421l.041.014c.32-.346.63-.597.93-.752.31-.155.647-.232 1.012-.232.337 0 .652.086.943.26.301.173.543.437.725.793.191.346.287.792.287 1.34v1.476c0 .328.01.624.027.889.019.255.037.433.055.533l.848.205-.028.492H32.83l-.04-.492.792-.205c.01-.073.018-.164.028-.274.009-.11.013-.246.013-.41.01-.173.014-.387.014-.642V26c0-.392-.068-.706-.205-.943a1.199 1.199 0 00-.506-.534 1.34 1.34 0 00-.67-.177c-.292 0-.57.077-.834.232-.264.146-.488.351-.67.615v2.051c0 .42.005.766.014 1.04.018.273.036.446.055.519l.833.205-.027.492h-2.802zm9.775.11c-.365 0-.688-.073-.97-.22a1.855 1.855 0 01-.67-.56 1.247 1.247 0 01-.233-.71c0-.31.1-.566.3-.767.201-.2.53-.373.985-.519l2.078-.697v-.698a1 1 0 00-.205-.615 1.404 1.404 0 00-.547-.451 1.747 1.747 0 00-.766-.164c-.227 0-.382.05-.464.15-.082.091-.133.278-.15.56l-.028.575c-.328.073-.606.064-.834-.027-.228-.1-.342-.26-.342-.479 0-.155.064-.31.192-.465.136-.154.314-.3.533-.437a3.75 3.75 0 011.463-.574c.674 0 1.212.177 1.613.533.41.355.62.82.629 1.394l-.027 2.297c0 .174.004.342.013.506.018.164.041.287.069.37l.875.163v.424l-.67.246a3.824 3.824 0 01-.356.11.901.901 0 01-.273.054c-.283 0-.465-.16-.547-.478l-.15-.533h.204c-.3.337-.592.592-.875.765a1.627 1.627 0 01-.847.246zm.369-.807c.21 0 .406-.046.588-.137.182-.1.36-.25.533-.451v-1.436l-1.531.41c-.219.055-.378.142-.479.26a.719.719 0 00-.136.451c0 .228.1.438.3.63.21.182.452.273.725.273zm3.855.697l-.027-.492.848-.205c.009-.064.013-.15.013-.26a13.187 13.187 0 00.041-1.203l.014-1.053c0-.3-.014-.597-.04-.889a7.864 7.864 0 00-.07-.71l-.874-.192v-.451l1.832-.506.232.219-.068.724.04.014c.32-.346.634-.597.944-.752.31-.155.647-.232 1.012-.232.337 0 .652.086.943.26.301.164.543.419.725.765.191.347.287.789.287 1.326v1.518c0 .328.005.624.014.889.018.264.04.442.068.533l.848.205-.041.492h-2.748l-.028-.492.793-.205c.01-.073.018-.164.028-.274.009-.11.013-.246.013-.41.01-.173.014-.387.014-.642V26c0-.41-.073-.734-.219-.97-.136-.247-.31-.42-.52-.52a1.374 1.374 0 00-.642-.164c-.3 0-.583.077-.848.232-.255.146-.474.351-.656.615v2.051c0 .42.005.761.014 1.026.018.255.036.433.055.533l.847.205-.04.492h-2.803zm12.333.15l-.206-.177.014-.889-.04-.014c-.274.383-.557.652-.849.807a1.849 1.849 0 01-.902.232c-.52 0-.984-.118-1.395-.355a2.69 2.69 0 01-.957-1.012c-.236-.428-.355-.92-.355-1.476 0-.483.082-.925.246-1.326a3.078 3.078 0 011.654-1.696 2.874 2.874 0 011.135-.232c.255 0 .515.032.78.095.264.064.487.165.67.301 0-.164-.005-.378-.014-.642 0-.265-.005-.538-.014-.82 0-.292-.005-.548-.014-.766 0-.228-.004-.383-.013-.465l-1.067-.192-.027-.45 2.01-.561.246.191a96.238 96.238 0 00-.055 3.295l-.014 3.145c0 .464.01.866.028 1.203.027.328.045.56.054.697l.875.219v.45l-1.79.438zm-1.641-.957c.264 0 .51-.054.738-.164.228-.118.46-.323.697-.615v-2.94c-.173-.31-.392-.528-.656-.656a1.81 1.81 0 00-.793-.191c-.574 0-1.025.214-1.353.643-.32.419-.479.966-.479 1.64 0 .72.178 1.28.533 1.682.365.4.802.601 1.313.601zm4.142.807l-.027-.506.916-.191c.01-.037.014-.1.014-.192.009-.09.018-.237.027-.437.01-.2.014-.479.014-.834v-.902c0-.374-.01-.716-.027-1.026a7.944 7.944 0 00-.069-.724l-.916-.192v-.451l1.941-.506.206.191c-.028.283-.05.561-.069.834a29.2 29.2 0 00-.014.957v1.723c0 .42.005.766.014 1.04.018.273.037.446.055.519l.916.191-.027.506h-2.954zm1.477-7.506a.875.875 0 01-.602-.232.758.758 0 01-.246-.575c0-.227.082-.419.246-.574a.875.875 0 01.602-.232.796.796 0 01.82.806.796.796 0 01-.82.807zm4.498 7.615c-.337 0-.674-.036-1.012-.109a3.625 3.625 0 01-.861-.314l-.068-1.463h.67l.273.984c.319.219.684.328 1.094.328.31 0 .56-.073.752-.219a.752.752 0 00.287-.615.841.841 0 00-.26-.615c-.173-.182-.51-.378-1.012-.588-.647-.283-1.102-.551-1.367-.807-.264-.264-.396-.601-.396-1.011 0-.328.095-.616.287-.862.2-.255.474-.45.82-.588a3.079 3.079 0 011.203-.218c.255 0 .515.023.78.068.264.046.483.105.656.178l.15 1.422h-.642l-.329-.93a1.068 1.068 0 00-.328-.123 1.485 1.485 0 00-.41-.055c-.319 0-.574.078-.766.233a.688.688 0 00-.287.574c0 .273.105.497.315.67.21.164.579.369 1.107.615.602.273 1.021.542 1.258.807.237.264.356.583.356.957 0 .492-.215.898-.643 1.216-.428.31-.97.465-1.627.465zm3.186-.109l-.028-.506.916-.191c.01-.037.014-.1.014-.192.01-.09.018-.237.027-.437.01-.2.014-.479.014-.834v-.902c0-.374-.01-.716-.027-1.026a7.914 7.914 0 00-.069-.724l-.916-.192v-.451l1.942-.506.205.191c-.028.283-.05.561-.069.834a29.2 29.2 0 00-.013.957v1.723c0 .42.004.766.013 1.04.019.273.037.446.055.519l.916.191-.027.506h-2.953zm1.476-7.506a.875.875 0 01-.601-.232.758.758 0 01-.246-.575c0-.227.082-.419.246-.574a.875.875 0 01.601-.232.797.797 0 01.82.806.797.797 0 01-.82.807zm2.242 7.506l-.027-.492.848-.205c.009-.064.013-.15.013-.26a13.187 13.187 0 00.041-1.203l.014-1.053c0-.3-.014-.597-.041-.889a7.864 7.864 0 00-.068-.71l-.875-.192v-.451l1.832-.506.232.219-.068.724.04.014c.32-.346.634-.597.944-.752.31-.155.647-.232 1.012-.232.337 0 .651.086.943.26.301.164.543.419.725.765.191.347.287.789.287 1.326v1.518c0 .328.005.624.014.889.018.264.04.442.068.533l.848.205-.041.492h-2.749l-.027-.492.793-.205c.01-.073.018-.164.028-.274.009-.11.013-.246.013-.41.01-.173.014-.387.014-.642V26c0-.41-.073-.734-.219-.97-.137-.247-.31-.42-.52-.52a1.375 1.375 0 00-.642-.164c-.3 0-.583.077-.848.232-.255.146-.474.351-.656.615v2.051c0 .42.005.761.014 1.026.018.255.036.433.054.533l.848.205-.04.492h-2.804zm10.282 3.117c-.839 0-1.504-.136-1.996-.41-.493-.273-.739-.638-.739-1.094 0-.31.123-.597.37-.861.246-.264.642-.533 1.189-.807l.52.11c-.301.173-.534.373-.698.601a1.3 1.3 0 00-.246.752.97.97 0 00.438.848c.3.2.706.3 1.216.3.593 0 1.071-.127 1.436-.382.364-.255.547-.584.547-.985 0-.31-.114-.542-.342-.697-.219-.146-.583-.237-1.094-.273l-1.463-.123-.205-.055a1.42 1.42 0 01-.861-.26c-.228-.182-.342-.4-.342-.656 0-.246.119-.488.355-.725.237-.237.566-.446.985-.628l.178.273a1.85 1.85 0 00-.383.328.412.412 0 00-.123.273c0 .128.054.238.164.329.118.09.282.145.492.164l1.764.177c.629.064 1.107.224 1.435.479.328.255.492.62.492 1.094 0 .419-.136.797-.41 1.134-.273.338-.642.602-1.107.793-.465.2-.99.301-1.572.301zm.109-4.812c-.483 0-.916-.087-1.299-.26a2.128 2.128 0 01-.875-.711c-.21-.31-.314-.66-.314-1.053 0-.428.11-.81.328-1.148.219-.346.515-.615.888-.807.374-.2.793-.3 1.258-.3.465 0 .88.09 1.244.273.374.182.666.437.875.765.21.32.315.684.315 1.094 0 .401-.11.766-.328 1.094-.21.328-.497.588-.862.78a2.713 2.713 0 01-1.23.273zm.068-.547c.374 0 .67-.137.889-.41.219-.274.328-.638.328-1.094 0-.51-.123-.92-.369-1.23a1.129 1.129 0 00-.943-.465c-.374 0-.68.145-.916.437-.237.292-.356.67-.356 1.135 0 .483.123.875.37 1.176.255.3.587.45.997.45zm3.172-2.748l-1.627-.11-.533-.546 2.16-.22v.876zm.82 7.396l-.205-.396c.365-.164.643-.365.834-.602.201-.228.301-.497.301-.806a.654.654 0 00-.082-.342.94.94 0 00-.178-.246l-.218-.192a1.276 1.276 0 01-.192-.246.89.89 0 01-.068-.369c0-.191.073-.36.219-.506a.796.796 0 01.588-.232c.164 0 .314.045.45.136.147.092.26.228.343.41.09.183.136.415.136.698 0 .364-.082.724-.246 1.08a3.121 3.121 0 01-1.682 1.613zM3.245 45.61c-.382 0-.76-.04-1.134-.123a4.027 4.027 0 01-.944-.341l-.068-1.6h.875l.287.984c.346.2.706.301 1.08.301.283 0 .497-.055.643-.164a.57.57 0 00.218-.465c0-.2-.082-.373-.246-.52-.155-.145-.478-.31-.97-.491-.675-.247-1.144-.515-1.409-.807-.264-.292-.396-.656-.396-1.094 0-.374.114-.702.342-.984.228-.292.547-.515.957-.67.41-.164.884-.246 1.422-.246.291 0 .588.027.888.082.301.054.547.127.739.219l.164 1.585h-.875l-.301-.97a1.072 1.072 0 00-.342-.123 1.344 1.344 0 00-.37-.055c-.273 0-.496.06-.669.178a.56.56 0 00-.246.478c0 .219.1.401.3.547.201.146.566.328 1.094.547.602.246 1.03.51 1.286.793.255.273.382.615.382 1.025 0 .575-.25 1.04-.752 1.395-.5.346-1.153.52-1.955.52zm3.24-.109l-.04-.643.916-.218c.009-.037.018-.119.027-.246.01-.137.018-.301.027-.493.01-.191.014-.4.014-.628l.014-1.026c0-.273-.01-.52-.028-.738a5.926 5.926 0 00-.095-.67l-.916-.191v-.616l2.515-.615.37.232c-.028.292-.05.588-.069.89-.01.29-.014.623-.014.997v1.723c0 .3.005.588.014.861.018.274.036.447.055.52l.916.218-.041.643H6.485zm1.846-7.205c-.364 0-.651-.11-.861-.328a1.12 1.12 0 01-.314-.78c0-.291.104-.546.314-.765.21-.228.497-.342.861-.342.365 0 .647.114.848.342.2.219.3.474.3.766 0 .291-.1.55-.3.779-.2.218-.483.328-.848.328zm2.284 7.205l-.042-.629.848-.232c.01-.037.018-.119.027-.246.01-.137.019-.301.028-.493.009-.191.014-.4.014-.628l.013-1.026a7.97 7.97 0 00-.123-1.408l-.875-.191v-.616l2.406-.615.37.232-.082.793.04.014c.292-.374.598-.642.917-.807.319-.173.651-.26.998-.26.355 0 .683.092.984.274.31.173.56.442.752.807.191.355.287.816.287 1.38l.027 1.409c0 .3.005.588.014.861.01.274.027.447.055.52l.738.232-.041.629h-3.24l-.041-.629.697-.232c.018-.082.032-.196.041-.342.01-.155.014-.324.014-.506.009-.182.013-.355.013-.52l-.013-1.285c0-.328-.05-.588-.15-.779a.837.837 0 00-.383-.424 1.153 1.153 0 00-.547-.123c-.2 0-.401.055-.602.164-.2.1-.37.242-.506.424v2.01c0 .3.005.588.014.861.018.274.036.447.055.52l.752.232-.042.629h-3.418zm8.025 0l-.041-.629.71-.232c.02-.082.033-.196.042-.342.009-.155.013-.324.013-.506.01-.182.014-.355.014-.52l-.027-1.162c0-.355-.05-.638-.15-.847a.95.95 0 00-.41-.452c-.174-.1-.365-.15-.575-.15-.228 0-.447.05-.656.15-.2.092-.37.233-.506.424l-.396-.52c.328-.437.674-.765 1.039-.983a2.27 2.27 0 011.203-.342c.428 0 .806.1 1.134.3.338.192.598.47.78.834.182.365.273.802.273 1.313l.027 1.422c0 .3.005.588.014.861.018.274.037.447.055.52l.848.232-.042.629h-3.35zm3.773 3.008l-.04-.63.847-.231c0-.055.005-.17.014-.342a130.014 130.014 0 00.055-1.45c.009-.291.013-.592.013-.902l.027-2.72c0-.265-.009-.506-.027-.725a5.915 5.915 0 00-.096-.67l-.875-.191v-.616l2.407-.615.369.232-.096.834.041.014c.21-.337.479-.606.807-.806.328-.201.674-.301 1.039-.301.437 0 .847.114 1.23.341.383.22.693.543.93.971.237.429.355.944.355 1.545 0 .602-.14 1.158-.424 1.668-.273.501-.66.907-1.162 1.217-.5.31-1.098.465-1.79.465a3.09 3.09 0 01-.971-.164v.861c0 .3.004.583.013.848.019.264.037.433.055.506l1.121.218-.04.643h-3.802zm3.65-3.883c.283 0 .53-.064.739-.191.219-.137.392-.351.52-.643.127-.292.191-.665.191-1.121 0-.474-.068-.852-.205-1.135-.128-.291-.3-.506-.52-.642a1.227 1.227 0 00-.683-.206c-.192 0-.378.05-.56.15a1.48 1.48 0 00-.48.384v3.117c.137.091.292.164.465.219.174.045.352.068.534.068zm4.061.875l-.04-.643.888-.218c.01-.1.018-.274.027-.52.018-.255.032-.547.041-.875.01-.328.014-.647.014-.957v-1.722c0-.32-.005-.634-.014-.944 0-.319-.004-.62-.013-.902 0-.292-.005-.552-.014-.78a6.998 6.998 0 00-.041-.574l-1.012-.137-.027-.587 2.611-.67.383.232c-.018.383-.036.757-.055 1.121-.009.356-.013.761-.013 1.217 0 .456-.005 1.012-.014 1.668l-.014 2.01c0 .638.005 1.18.014 1.627.018.437.036.702.055.793l.888.218-.027.643h-3.637zm4.06 0l-.04-.643.916-.218c.009-.037.018-.119.027-.246.01-.137.018-.301.028-.493.009-.191.013-.4.013-.628l.014-1.026c0-.273-.01-.52-.027-.738a5.915 5.915 0 00-.096-.67l-.916-.191v-.616l2.515-.615.37.232c-.028.292-.05.588-.069.89-.009.29-.014.623-.014.997v1.723c0 .3.005.588.014.861.018.274.037.447.055.52l.916.218-.041.643h-3.664zm1.846-7.205c-.364 0-.651-.11-.86-.328a1.12 1.12 0 01-.315-.78c0-.291.105-.546.314-.765.21-.228.497-.342.861-.342.365 0 .648.114.848.342a1.147 1.147 0 010 1.545c-.2.218-.483.328-.847.328zM38.34 45.5l-.04-.629.847-.232c.009-.028.013-.114.013-.26.01-.146.014-.356.014-.629.01-.283.014-.629.014-1.04v-3.513c0-.61.146-1.157.437-1.64.301-.492.73-.88 1.285-1.163.556-.291 1.23-.437 2.024-.437.747 0 1.344.128 1.79.383.448.246.67.556.67.93 0 .236-.072.419-.218.546a.798.798 0 01-.52.178c-.19 0-.36-.032-.505-.096a1.861 1.861 0 01-.465-.341l-1.436-1.245.862.438c-.438-.073-.82-.032-1.149.123a1.538 1.538 0 00-.738.725c-.173.337-.26.765-.26 1.285v3.432c0 .5.005.906.014 1.216.009.31.018.552.027.725.018.164.027.291.027.383l.862.232-.041.629H38.34zm4.06 0l-.04-.643.86-.218c.02-.092.033-.22.042-.383.01-.164.014-.337.014-.52.009-.182.013-.337.013-.464l.014-1.463c.01-.292 0-.543-.027-.752a9.88 9.88 0 00-.082-.684H38.19v-.629l.998-.273.82.04h3.924c.2 0 .4-.004.601-.013.21-.01.415-.027.616-.055l-.055.998c-.01.31-.014.67-.014 1.08V43.806l.028.52c.018.154.032.259.04.314l.903.218-.041.643H42.4zm7.342.11c-.592 0-1.12-.133-1.585-.397a2.924 2.924 0 01-1.08-1.08 3.107 3.107 0 01-.383-1.545c0-.638.145-1.194.437-1.668a3.22 3.22 0 011.135-1.135c.474-.273.98-.405 1.517-.396.803 0 1.422.25 1.86.752.437.492.656 1.134.656 1.927v.329h-4.02v-.712h2.68l-.205.329v-.465c0-.429-.096-.77-.287-1.026-.191-.255-.456-.382-.793-.382-.228 0-.433.063-.615.191s-.328.324-.438.588c-.1.255-.15.579-.15.97v.288c0 .638.169 1.153.506 1.545.346.392.806.587 1.38.587.31 0 .593-.054.848-.163.256-.119.502-.315.739-.588l.423.382c-.255.547-.615.962-1.08 1.244-.465.283-.98.424-1.545.424zm8.176.068l-.369-.205.014-.889-.041-.014c-.228.392-.483.67-.766.834a1.798 1.798 0 01-.875.233c-.483 0-.93-.123-1.34-.37a2.73 2.73 0 01-.984-1.025c-.246-.446-.37-.961-.37-1.545 0-.51.096-.966.288-1.367.191-.41.447-.756.765-1.039.32-.292.675-.51 1.067-.656a3.245 3.245 0 011.203-.233c.173 0 .35.019.533.055.182.027.333.073.451.137 0-.173-.004-.365-.013-.575 0-.218-.005-.432-.014-.642 0-.219-.005-.415-.014-.588 0-.182-.004-.319-.013-.41l-1.012-.15-.027-.588 2.584-.67.382.232c-.027.565-.054 1.09-.082 1.572a26.2 26.2 0 00-.04 1.504l-.014 3.172c0 .447.013.811.04 1.094l.07.724.901.192v.588l-2.324.629zm-1.38-1.354c.145 0 .31-.045.492-.136.19-.092.355-.242.492-.452v-3.048a.984.984 0 00-.451-.356 1.33 1.33 0 00-.52-.11c-.428 0-.784.178-1.066.534-.274.355-.41.843-.41 1.463 0 .674.14 1.194.423 1.558.292.365.638.547 1.04.547zm5.44 1.313a.861.861 0 01-.614-.233.819.819 0 01-.247-.601c0-.164.037-.306.11-.424a.794.794 0 01.3-.3.944.944 0 01.452-.11c.246 0 .45.082.615.246a.774.774 0 01.246.588.818.818 0 01-.246.601.861.861 0 01-.615.233zM5.45 66.596c-.896 0-1.648-.168-2.256-.504a3.269 3.269 0 01-1.356-1.488c-.296-.648-.444-1.428-.444-2.34 0-.896.152-1.664.456-2.304.312-.648.756-1.144 1.332-1.488.584-.352 1.284-.528 2.1-.528.616 0 1.144.1 1.584.3.448.192.856.476 1.224.852l-.264.42a4.264 4.264 0 00-.78-.612 2.687 2.687 0 00-.792-.348 3.6 3.6 0 00-.984-.12c-1.064 0-1.888.336-2.472 1.008-.576.672-.864 1.616-.864 2.832 0 1.24.284 2.188.852 2.844.576.656 1.464.984 2.664.984.456 0 .88-.04 1.272-.12.4-.088.776-.212 1.128-.372l-.144.432v-3.36H5.378v-.468h2.808v3.792c-.304.168-.712.308-1.224.42a6.951 6.951 0 01-1.512.168zm4.856-.096v-6h.504v6h-.504zm-.132-7.572v-.756h.768v.756h-.768zm4.521 7.572l-2.543-6h.575l2.4 5.808h-.288l2.412-5.808h.564l-2.544 6h-.576zm6.872.096c-.88 0-1.58-.268-2.1-.804-.52-.544-.78-1.3-.78-2.268 0-.64.116-1.192.348-1.656.232-.464.556-.824.972-1.08a2.754 2.754 0 011.452-.384c.52 0 .96.112 1.32.336.368.216.648.532.84.948.2.408.3.896.3 1.464v.324h-4.908v-.456h4.644l-.204.156c0-.72-.168-1.284-.504-1.692-.336-.416-.836-.624-1.5-.624-.704 0-1.256.24-1.656.72-.392.48-.588 1.108-.588 1.884v.06c0 .848.208 1.496.624 1.944.416.44.996.66 1.74.66.376 0 .728-.06 1.056-.18.328-.12.644-.324.948-.612l.252.396c-.248.272-.576.484-.984.636a3.614 3.614 0 01-1.272.228zm6.684 2.628l-.12-.468c.377-.088.684-.2.924-.336.248-.128.457-.296.625-.504.168-.208.32-.468.456-.78l.312-.72-.012.252L27.82 60.5h.575l2.413 5.808h-.276l2.375-5.808h.577l-2.797 6.648c-.143.344-.3.632-.468.864-.168.24-.352.44-.552.6-.192.16-.408.288-.648.384a4.12 4.12 0 01-.767.228zm8.768-2.628c-.544 0-1.016-.124-1.416-.372a2.422 2.422 0 01-.924-1.068c-.216-.464-.324-1.016-.324-1.656 0-.64.108-1.192.324-1.656.216-.464.524-.82.924-1.068.4-.248.872-.372 1.416-.372.544 0 1.016.124 1.416.372.4.248.708.604.924 1.068.224.464.336 1.016.336 1.656 0 .64-.112 1.192-.336 1.656-.216.464-.524.82-.924 1.068-.4.248-.872.372-1.416.372zm0-.468c.656 0 1.18-.224 1.572-.672.392-.456.588-1.108.588-1.956 0-.848-.196-1.496-.588-1.944-.392-.456-.916-.684-1.572-.684s-1.18.228-1.572.684c-.384.448-.576 1.096-.576 1.944 0 .848.192 1.5.576 1.956.392.448.916.672 1.572.672zm6.465.468c-.696 0-1.224-.188-1.584-.564-.36-.376-.54-.952-.54-1.728V60.5h.504v3.756c0 .648.132 1.124.396 1.428.264.296.672.444 1.224.444.616 0 1.108-.196 1.476-.588.368-.4.552-.928.552-1.584V60.5h.504v6h-.492v-1.464h.144c-.16.496-.436.88-.828 1.152-.384.272-.836.408-1.356.408zM48.1 66.5v-4.632c0-.224-.008-.452-.024-.684a9.489 9.489 0 00-.048-.684h.492l.072 1.308-.108.012c.08-.32.224-.584.432-.792.216-.208.46-.364.732-.468a2.367 2.367 0 011.104-.144c.096.008.184.024.264.048l-.024.468a1.292 1.292 0 00-.264-.048 3.195 3.195 0 00-.288-.012c-.368 0-.692.096-.972.288a1.96 1.96 0 00-.636.696 1.64 1.64 0 00-.228.804v3.84h-.504zm8.807.096c-.488 0-.864-.152-1.128-.456-.256-.312-.384-.784-.384-1.416v-3.792h-1.2V60.5h1.2v-1.716l.504-.192V60.5h1.824v.432h-1.824v3.684c0 .528.08.912.24 1.152.168.24.436.36.804.36a1.785 1.785 0 00.756-.156v.48c-.088.04-.208.072-.36.096a1.986 1.986 0 01-.432.048zm4.552 0c-.88 0-1.58-.268-2.1-.804-.52-.544-.78-1.3-.78-2.268 0-.64.116-1.192.348-1.656.232-.464.556-.824.972-1.08a2.754 2.754 0 011.452-.384c.52 0 .96.112 1.32.336.368.216.648.532.84.948.2.408.3.896.3 1.464v.324h-4.908v-.456h4.644l-.204.156c0-.72-.168-1.284-.504-1.692-.336-.416-.836-.624-1.5-.624-.704 0-1.256.24-1.656.72-.392.48-.588 1.108-.588 1.884v.06c0 .848.208 1.496.624 1.944.416.44.996.66 1.74.66.376 0 .728-.06 1.056-.18.328-.12.644-.324.948-.612l.252.396c-.248.272-.576.484-.984.636a3.614 3.614 0 01-1.272.228zm6.276 0c-.544 0-1.016-.124-1.416-.372a2.422 2.422 0 01-.924-1.068c-.216-.464-.324-1.016-.324-1.656 0-.648.108-1.2.324-1.656.224-.464.536-.82.936-1.068.4-.248.868-.372 1.404-.372.568 0 1.052.148 1.452.444.408.296.676.704.804 1.224h-.144l.12-1.572h.492l-.072.66a8.61 8.61 0 00-.024.636V66.5h-.504v-1.572h.132c-.128.52-.396.928-.804 1.224-.408.296-.892.444-1.452.444zm0-.468c.656 0 1.176-.224 1.56-.672.384-.456.576-1.108.576-1.956 0-.848-.192-1.496-.576-1.944-.384-.456-.904-.684-1.56-.684s-1.18.228-1.572.684c-.384.448-.576 1.096-.576 1.944 0 .848.192 1.5.576 1.956.392.448.916.672 1.572.672zm4.74.372v-4.704c0-.208-.012-.42-.036-.636a20.212 20.212 0 00-.06-.66h.492l.108 1.44h-.144c.152-.496.404-.876.756-1.14.352-.264.78-.396 1.284-.396.528 0 .952.128 1.272.384.32.248.528.636.624 1.164h-.168c.136-.472.392-.848.768-1.128.384-.28.844-.42 1.38-.42.64 0 1.128.184 1.464.552.336.368.504.944.504 1.728V66.5h-.504v-3.768c0-.648-.116-1.12-.348-1.416-.232-.296-.608-.444-1.128-.444-.584 0-1.048.196-1.392.588-.336.392-.504.92-.504 1.584V66.5h-.504v-3.768c0-.648-.116-1.12-.348-1.416-.232-.296-.608-.444-1.128-.444-.584 0-1.044.196-1.38.588-.336.392-.504.92-.504 1.584V66.5h-.504zM3.386 81.596c-.488 0-.864-.152-1.128-.456-.256-.312-.384-.784-.384-1.416v-3.792h-1.2V75.5h1.2v-1.716l.504-.192V75.5h1.824v.432H2.378v3.684c0 .528.08.912.24 1.152.168.24.436.36.804.36a1.785 1.785 0 00.756-.156v.48c-.088.04-.208.072-.36.096a1.986 1.986 0 01-.432.048zm2.139-.096v-6h.504v6h-.504zm-.132-7.572v-.756h.768v.756h-.768zM8.138 81.5v-4.704c0-.208-.012-.42-.036-.636a20.212 20.212 0 00-.06-.66h.492l.108 1.44h-.144c.152-.496.404-.876.756-1.14.352-.264.78-.396 1.284-.396.528 0 .952.128 1.272.384.32.248.528.636.624 1.164h-.168c.136-.472.392-.848.768-1.128.384-.28.844-.42 1.38-.42.64 0 1.128.184 1.464.552.336.368.504.944.504 1.728V81.5h-.504v-3.768c0-.648-.116-1.12-.348-1.416-.232-.296-.608-.444-1.128-.444-.584 0-1.048.196-1.392.588-.336.392-.504.92-.504 1.584V81.5h-.504v-3.768c0-.648-.116-1.12-.348-1.416-.232-.296-.608-.444-1.128-.444-.584 0-1.044.196-1.38.588-.336.392-.504.92-.504 1.584V81.5h-.504zm12.796.096c-.88 0-1.58-.268-2.1-.804-.52-.544-.78-1.3-.78-2.268 0-.64.117-1.192.349-1.656.232-.464.556-.824.972-1.08a2.754 2.754 0 011.451-.384c.52 0 .96.112 1.32.336.369.216.648.532.84.948.2.408.3.896.3 1.464v.324h-4.908v-.456h4.645l-.204.156c0-.72-.168-1.284-.505-1.692-.335-.416-.835-.624-1.5-.624-.704 0-1.256.24-1.655.72-.392.48-.588 1.108-.588 1.884v.06c0 .848.207 1.496.623 1.944.416.44.997.66 1.74.66.377 0 .729-.06 1.056-.18.329-.12.645-.324.949-.612l.252.396c-.248.272-.576.484-.985.636a3.614 3.614 0 01-1.271.228zm8.893 0c-.448 0-.872-.068-1.272-.204a2.603 2.603 0 01-.96-.588l.252-.396c.288.248.6.432.936.552.336.112.692.168 1.068.168.544 0 .96-.104 1.248-.312a.995.995 0 00.432-.852c0-.28-.092-.504-.276-.672-.184-.176-.488-.308-.912-.396l-1.044-.228c-.512-.12-.892-.312-1.14-.576a1.382 1.382 0 01-.372-.984c0-.328.084-.62.252-.876.176-.256.424-.456.744-.6.328-.152.712-.228 1.152-.228.424 0 .812.072 1.164.216.36.144.648.344.864.6l-.264.396a2.335 2.335 0 00-.804-.552 2.392 2.392 0 00-.96-.192c-.52 0-.92.112-1.2.336-.272.224-.408.52-.408.888 0 .28.084.508.252.684.176.176.452.308.828.396l1.044.24c.544.128.948.316 1.212.564.264.24.396.56.396.96 0 .336-.092.628-.276.876-.184.248-.444.44-.78.576a3.12 3.12 0 01-1.176.204zm6.29 0c-.544 0-1.016-.124-1.416-.372a2.422 2.422 0 01-.924-1.068c-.216-.464-.324-1.016-.324-1.656 0-.648.108-1.2.324-1.656.224-.464.536-.82.936-1.068.4-.248.868-.372 1.404-.372.568 0 1.052.148 1.452.444.408.296.676.704.804 1.224h-.144l.12-1.572h.492l-.072.66a8.61 8.61 0 00-.024.636V81.5h-.504v-1.572h.132c-.128.52-.396.928-.804 1.224-.408.296-.892.444-1.452.444zm0-.468c.656 0 1.176-.224 1.56-.672.384-.456.576-1.108.576-1.956 0-.848-.192-1.496-.576-1.944-.384-.456-.904-.684-1.56-.684s-1.18.228-1.572.684c-.384.448-.576 1.096-.576 1.944 0 .848.192 1.5.576 1.956.392.448.916.672 1.572.672zm6.457.372l-2.544-6h.576l2.4 5.808h-.288L45.13 75.5h.564l-2.544 6h-.576zm4.459 0v-6h.504v6h-.504zm-.132-7.572v-.756h.768v.756H46.9zm2.745 7.572v-4.704c0-.208-.012-.42-.036-.636a20.212 20.212 0 00-.06-.66h.492l.108 1.44h-.144c.168-.504.448-.884.84-1.14.4-.264.868-.396 1.404-.396.712 0 1.248.184 1.608.552.368.368.552.944.552 1.728V81.5h-.504v-3.768c0-.648-.132-1.12-.396-1.416-.264-.296-.68-.444-1.248-.444-.648 0-1.164.196-1.548.588-.376.392-.564.92-.564 1.584V81.5h-.504zm9.364 2.676c-.488 0-.948-.072-1.38-.216a3.504 3.504 0 01-1.152-.624l.24-.408c.264.192.512.344.744.456.232.112.472.192.72.24.256.056.536.084.84.084.624 0 1.096-.172 1.416-.516.328-.336.492-.82.492-1.452v-2.052h.132c-.128.528-.4.94-.816 1.236-.408.296-.896.444-1.464.444-.552 0-1.032-.12-1.44-.36a2.526 2.526 0 01-.936-1.044c-.216-.448-.324-.976-.324-1.584 0-.608.108-1.132.324-1.572.224-.448.536-.792.936-1.032.408-.248.888-.372 1.44-.372.568 0 1.056.148 1.464.444.416.296.688.712.816 1.248l-.132-.156.108-1.44h.492l-.072.66a8.61 8.61 0 00-.024.636v4.86c0 .832-.204 1.46-.612 1.884-.408.424-1.012.636-1.812.636zm-.24-3.276c.664 0 1.188-.22 1.572-.66.392-.448.588-1.068.588-1.86s-.196-1.408-.588-1.848c-.384-.44-.908-.66-1.572-.66s-1.192.22-1.584.66c-.392.44-.588 1.056-.588 1.848s.196 1.412.588 1.86c.392.44.92.66 1.584.66zM3.386 96.596c-.488 0-.864-.152-1.128-.456-.256-.312-.384-.784-.384-1.416v-3.792h-1.2V90.5h1.2v-1.716l.504-.192V90.5h1.824v.432H2.378v3.684c0 .528.08.912.24 1.152.168.24.436.36.804.36a1.785 1.785 0 00.756-.156v.48c-.088.04-.208.072-.36.096a1.986 1.986 0 01-.432.048zm4.336 0c-.544 0-1.016-.124-1.416-.372a2.422 2.422 0 01-.924-1.068c-.216-.464-.324-1.016-.324-1.656 0-.64.108-1.192.324-1.656.216-.464.524-.82.924-1.068.4-.248.872-.372 1.416-.372.544 0 1.016.124 1.416.372.4.248.708.604.924 1.068.224.464.336 1.016.336 1.656 0 .64-.112 1.192-.336 1.656-.216.464-.524.82-.924 1.068-.4.248-.872.372-1.416.372zm0-.468c.656 0 1.18-.224 1.572-.672.392-.456.588-1.108.588-1.956 0-.848-.196-1.496-.588-1.944-.392-.456-.916-.684-1.572-.684s-1.18.228-1.572.684c-.384.448-.576 1.096-.576 1.944 0 .848.192 1.5.576 1.956.392.448.916.672 1.572.672zm6.633.468c-.544 0-1.016-.124-1.416-.372a2.422 2.422 0 01-.924-1.068c-.216-.464-.324-1.016-.324-1.656 0-.64.108-1.192.324-1.656.216-.464.524-.82.924-1.068.4-.248.872-.372 1.416-.372.544 0 1.016.124 1.416.372.4.248.708.604.924 1.068.224.464.336 1.016.336 1.656 0 .64-.112 1.192-.336 1.656-.216.464-.524.82-.924 1.068-.4.248-.872.372-1.416.372zm0-.468c.656 0 1.18-.224 1.572-.672.392-.456.588-1.108.588-1.956 0-.848-.196-1.496-.588-1.944-.392-.456-.916-.684-1.572-.684s-1.18.228-1.572.684c-.384.448-.576 1.096-.576 1.944 0 .848.192 1.5.576 1.956.392.448.916.672 1.572.672zm4.377.372v-8.832h.504V96.5h-.504zm4.485.096c-.448 0-.872-.068-1.272-.204a2.603 2.603 0 01-.96-.588l.252-.396c.288.248.6.432.936.552.336.112.692.168 1.068.168.544 0 .96-.104 1.248-.312a.995.995 0 00.432-.852c0-.28-.092-.504-.276-.672-.184-.176-.488-.308-.912-.396l-1.044-.228c-.512-.12-.892-.312-1.14-.576a1.382 1.382 0 01-.372-.984c0-.328.084-.62.252-.876.176-.256.424-.456.744-.6.328-.152.712-.228 1.152-.228.424 0 .812.072 1.164.216.36.144.648.344.864.6l-.264.396a2.335 2.335 0 00-.804-.552 2.392 2.392 0 00-.96-.192c-.52 0-.92.112-1.2.336-.272.224-.408.52-.408.888 0 .28.084.508.252.684.176.176.452.308.828.396l1.044.24c.544.128.948.316 1.212.564.264.24.396.56.396.96 0 .336-.092.628-.276.876-.184.248-.444.44-.78.576a3.12 3.12 0 01-1.176.204zm8.787 0c-.488 0-.864-.152-1.128-.456-.256-.312-.384-.784-.384-1.416v-3.792h-1.2V90.5h1.2v-1.716l.504-.192V90.5h1.824v.432h-1.824v3.684c0 .528.08.912.24 1.152.168.24.436.36.804.36a1.785 1.785 0 00.756-.156v.48c-.088.04-.208.072-.36.096a1.986 1.986 0 01-.432.048zm4.336 0c-.544 0-1.016-.124-1.416-.372A2.422 2.422 0 0134 95.156c-.216-.464-.324-1.016-.324-1.656 0-.64.108-1.192.324-1.656.216-.464.524-.82.924-1.068.4-.248.872-.372 1.416-.372.544 0 1.016.124 1.416.372.4.248.708.604.924 1.068.224.464.336 1.016.336 1.656 0 .64-.112 1.192-.336 1.656-.216.464-.524.82-.924 1.068-.4.248-.872.372-1.416.372zm0-.468c.656 0 1.18-.224 1.572-.672.392-.456.588-1.108.588-1.956 0-.848-.196-1.496-.588-1.944-.392-.456-.916-.684-1.572-.684s-1.18.228-1.572.684c-.384.448-.576 1.096-.576 1.944 0 .848.192 1.5.576 1.956.392.448.916.672 1.572.672zm9.248.468c-.448 0-.872-.068-1.272-.204a2.603 2.603 0 01-.96-.588l.252-.396c.288.248.6.432.936.552.336.112.692.168 1.068.168.544 0 .96-.104 1.248-.312a.995.995 0 00.432-.852c0-.28-.092-.504-.276-.672-.184-.176-.488-.308-.912-.396l-1.044-.228c-.512-.12-.892-.312-1.14-.576a1.382 1.382 0 01-.372-.984c0-.328.084-.62.252-.876.176-.256.424-.456.744-.6.328-.152.712-.228 1.152-.228.424 0 .812.072 1.164.216.36.144.648.344.864.6l-.264.396a2.335 2.335 0 00-.804-.552 2.392 2.392 0 00-.96-.192c-.52 0-.92.112-1.2.336-.272.224-.408.52-.408.888 0 .28.084.508.252.684.176.176.452.308.828.396l1.044.24c.544.128.948.316 1.212.564.264.24.396.56.396.96 0 .336-.092.628-.276.876-.184.248-.444.44-.78.576a3.12 3.12 0 01-1.176.204zm6.507 0c-.88 0-1.58-.268-2.1-.804-.52-.544-.78-1.3-.78-2.268 0-.64.116-1.192.348-1.656.232-.464.556-.824.972-1.08a2.754 2.754 0 011.452-.384c.52 0 .96.112 1.32.336.368.216.648.532.84.948.2.408.3.896.3 1.464v.324h-4.908v-.456h4.644l-.204.156c0-.72-.168-1.284-.504-1.692-.336-.416-.836-.624-1.5-.624-.704 0-1.256.24-1.656.72-.392.48-.588 1.108-.588 1.884v.06c0 .848.208 1.496.624 1.944.416.44.996.66 1.74.66.376 0 .728-.06 1.056-.18.328-.12.644-.324.948-.612l.252.396c-.248.272-.576.484-.984.636a3.614 3.614 0 01-1.272.228zm3.996-.096v-4.632c0-.224-.008-.452-.024-.684a9.489 9.489 0 00-.048-.684h.492l.072 1.308-.108.012c.08-.32.224-.584.432-.792.216-.208.46-.364.732-.468a2.367 2.367 0 011.104-.144c.096.008.184.024.264.048l-.024.468a1.292 1.292 0 00-.264-.048 3.195 3.195 0 00-.288-.012c-.368 0-.692.096-.972.288a1.96 1.96 0 00-.636.696 1.64 1.64 0 00-.228.804v3.84h-.504zm6.194 0l-2.544-6h.576l2.4 5.808h-.288l2.412-5.808h.564l-2.544 6h-.576zm6.872.096c-.88 0-1.58-.268-2.1-.804-.52-.544-.78-1.3-.78-2.268 0-.64.116-1.192.348-1.656.232-.464.556-.824.972-1.08a2.754 2.754 0 011.452-.384c.52 0 .96.112 1.32.336.368.216.648.532.84.948.2.408.3.896.3 1.464v.324h-4.908v-.456h4.644l-.204.156c0-.72-.168-1.284-.504-1.692-.336-.416-.836-.624-1.5-.624-.704 0-1.256.24-1.656.72-.392.48-.588 1.108-.588 1.884v.06c0 .848.208 1.496.624 1.944.416.44.996.66 1.74.66.376 0 .728-.06 1.056-.18.328-.12.644-.324.948-.612l.252.396c-.248.272-.576.484-.984.636a3.614 3.614 0 01-1.272.228zm-65.207 15c-.56 0-1.044-.124-1.452-.372a2.536 2.536 0 01-.948-1.092c-.216-.472-.324-1.032-.324-1.68 0-.648.112-1.2.336-1.656.224-.456.54-.8.948-1.032.408-.24.888-.36 1.44-.36.376 0 .736.076 1.08.228.352.144.644.348.876.612l-.252.384a2.427 2.427 0 00-.828-.576 2.348 2.348 0 00-.888-.18c-.688 0-1.228.224-1.62.672-.384.44-.576 1.08-.576 1.92 0 .848.192 1.504.576 1.968.392.464.932.696 1.62.696.28 0 .568-.056.864-.168a2.44 2.44 0 00.852-.588l.252.384c-.24.272-.54.48-.9.624a2.77 2.77 0 01-1.056.216zm5.62 0c-.696 0-1.224-.188-1.584-.564-.36-.376-.54-.952-.54-1.728V105.5h.504v3.756c0 .648.132 1.124.396 1.428.264.296.672.444 1.224.444.616 0 1.108-.196 1.476-.588.368-.4.552-.928.552-1.584V105.5h.504v6h-.492v-1.464h.144c-.16.496-.436.88-.828 1.152-.384.272-.836.408-1.356.408zm6.51 0c-.447 0-.871-.068-1.271-.204a2.603 2.603 0 01-.96-.588l.252-.396c.288.248.6.432.936.552.336.112.692.168 1.068.168.544 0 .96-.104 1.248-.312a.995.995 0 00.432-.852c0-.28-.092-.504-.276-.672-.184-.176-.488-.308-.912-.396l-1.044-.228c-.512-.12-.892-.312-1.14-.576a1.382 1.382 0 01-.372-.984c0-.328.084-.62.252-.876.176-.256.424-.456.744-.6.328-.152.712-.228 1.152-.228.424 0 .812.072 1.164.216.36.144.648.344.864.6l-.264.396a2.335 2.335 0 00-.804-.552 2.392 2.392 0 00-.96-.192c-.52 0-.92.112-1.2.336-.272.224-.408.52-.408.888 0 .28.084.508.252.684.176.176.452.308.828.396l1.044.24c.544.128.948.316 1.212.564.264.24.396.56.396.96 0 .336-.092.628-.276.876-.184.248-.444.44-.78.576a3.12 3.12 0 01-1.176.204zm5.728 0c-.488 0-.864-.152-1.128-.456-.256-.312-.384-.784-.384-1.416v-3.792h-1.2v-.432h1.2v-1.716l.504-.192v1.908h1.824v.432H20.8v3.684c0 .528.08.912.24 1.152.168.24.436.36.804.36a1.785 1.785 0 00.756-.156v.48c-.088.04-.208.072-.36.096a1.986 1.986 0 01-.432.048zm4.336 0c-.544 0-1.016-.124-1.416-.372a2.422 2.422 0 01-.924-1.068c-.216-.464-.324-1.016-.324-1.656 0-.64.108-1.192.324-1.656.216-.464.524-.82.924-1.068.4-.248.872-.372 1.416-.372.544 0 1.016.124 1.416.372.4.248.708.604.924 1.068.224.464.336 1.016.336 1.656 0 .64-.112 1.192-.336 1.656-.216.464-.524.82-.924 1.068-.4.248-.872.372-1.416.372zm0-.468c.656 0 1.18-.224 1.572-.672.392-.456.588-1.108.588-1.956 0-.848-.196-1.496-.588-1.944-.392-.456-.916-.684-1.572-.684s-1.18.228-1.572.684c-.384.448-.576 1.096-.576 1.944 0 .848.192 1.5.576 1.956.392.448.916.672 1.572.672zm4.377.372v-4.704c0-.208-.012-.42-.036-.636a20.212 20.212 0 00-.06-.66h.492l.108 1.44h-.144c.152-.496.404-.876.756-1.14.352-.264.78-.396 1.284-.396.528 0 .952.128 1.272.384.32.248.528.636.624 1.164h-.168c.136-.472.392-.848.768-1.128.384-.28.844-.42 1.38-.42.64 0 1.128.184 1.464.552.336.368.504.944.504 1.728v3.816h-.504v-3.768c0-.648-.116-1.12-.348-1.416-.232-.296-.608-.444-1.128-.444-.584 0-1.048.196-1.392.588-.336.392-.504.92-.504 1.584v3.456h-.504v-3.768c0-.648-.116-1.12-.348-1.416-.232-.296-.608-.444-1.128-.444-.584 0-1.044.196-1.38.588-.336.392-.504.92-.504 1.584v3.456h-.504zm12.796.096c-.88 0-1.58-.268-2.1-.804-.52-.544-.78-1.3-.78-2.268 0-.64.116-1.192.348-1.656.232-.464.556-.824.972-1.08a2.754 2.754 0 011.452-.384c.52 0 .96.112 1.32.336.368.216.648.532.84.948.2.408.3.896.3 1.464v.324h-4.908v-.456h4.644l-.204.156c0-.72-.168-1.284-.504-1.692-.336-.416-.836-.624-1.5-.624-.704 0-1.256.24-1.656.72-.392.48-.588 1.108-.588 1.884v.06c0 .848.208 1.496.624 1.944.416.44.996.66 1.74.66.376 0 .728-.06 1.056-.18.328-.12.644-.324.948-.612l.252.396c-.248.272-.576.484-.984.636a3.614 3.614 0 01-1.272.228zm3.996-.096v-4.632c0-.224-.008-.452-.024-.684a9.489 9.489 0 00-.047-.684h.492l.072 1.308-.108.012c.08-.32.224-.584.431-.792.217-.208.46-.364.733-.468a2.367 2.367 0 011.103-.144c.096.008.184.024.264.048l-.023.468a1.292 1.292 0 00-.265-.048 3.195 3.195 0 00-.288-.012c-.367 0-.691.096-.971.288a1.96 1.96 0 00-.637.696 1.64 1.64 0 00-.227.804v3.84h-.505zm5.87.096c-.449 0-.873-.068-1.273-.204a2.603 2.603 0 01-.96-.588l.252-.396c.288.248.6.432.936.552.336.112.692.168 1.068.168.544 0 .96-.104 1.248-.312a.995.995 0 00.432-.852c0-.28-.092-.504-.276-.672-.184-.176-.488-.308-.912-.396l-1.044-.228c-.512-.12-.892-.312-1.14-.576a1.382 1.382 0 01-.372-.984c0-.328.084-.62.252-.876.176-.256.424-.456.744-.6.328-.152.712-.228 1.152-.228.424 0 .812.072 1.164.216.36.144.648.344.864.6l-.264.396a2.335 2.335 0 00-.804-.552 2.392 2.392 0 00-.96-.192c-.52 0-.92.112-1.2.336-.272.224-.408.52-.408.888 0 .28.084.508.252.684.176.176.452.308.828.396l1.044.24c.544.128.948.316 1.212.564.264.24.396.56.396.96 0 .336-.092.628-.276.876-.184.248-.444.44-.78.576a3.12 3.12 0 01-1.176.204zm9.673 0c-.576 0-1.064-.148-1.464-.444-.4-.296-.668-.704-.804-1.224h.132v1.572h-.504v-8.832h.504v4.404h-.132c.136-.52.404-.928.804-1.224.4-.296.888-.444 1.464-.444.544 0 1.012.124 1.404.372.4.248.708.604.924 1.068.216.456.324 1.008.324 1.656 0 .64-.112 1.192-.336 1.656-.216.464-.524.82-.924 1.068-.392.248-.856.372-1.392.372zm-.012-.468c.656 0 1.176-.224 1.56-.672.392-.456.588-1.108.588-1.956 0-.848-.196-1.496-.588-1.944-.384-.456-.904-.684-1.56-.684s-1.176.228-1.56.684c-.384.448-.576 1.096-.576 1.944 0 .848.192 1.5.576 1.956.384.448.904.672 1.56.672zm6.84.468c-.88 0-1.58-.268-2.1-.804-.52-.544-.78-1.3-.78-2.268 0-.64.117-1.192.349-1.656.231-.464.555-.824.971-1.08a2.754 2.754 0 011.453-.384c.52 0 .96.112 1.32.336.367.216.647.532.84.948.2.408.3.896.3 1.464v.324h-4.909v-.456h4.644l-.204.156c0-.72-.168-1.284-.504-1.692-.335-.416-.835-.624-1.5-.624-.703 0-1.255.24-1.655.72-.393.48-.589 1.108-.589 1.884v.06c0 .848.209 1.496.625 1.944.416.44.996.66 1.74.66.376 0 .727-.06 1.055-.18.329-.12.645-.324.949-.612l.252.396c-.249.272-.576.484-.984.636a3.614 3.614 0 01-1.272.228zm5.784 0c-.488 0-.864-.152-1.128-.456-.256-.312-.384-.784-.384-1.416v-3.792h-1.2v-.432h1.2v-1.716l.504-.192v1.908h1.824v.432H74.46v3.684c0 .528.08.912.24 1.152.168.24.436.36.804.36a1.785 1.785 0 00.756-.156v.48c-.088.04-.208.072-.36.096a1.986 1.986 0 01-.432.048zm3.891 0c-.488 0-.864-.152-1.128-.456-.256-.312-.384-.784-.384-1.416v-3.792h-1.2v-.432h1.2v-1.716l.504-.192v1.908h1.824v.432h-1.824v3.684c0 .528.08.912.24 1.152.168.24.436.36.804.36a1.785 1.785 0 00.756-.156v.48c-.088.04-.208.072-.36.096a1.986 1.986 0 01-.432.048zm4.552 0c-.88 0-1.58-.268-2.1-.804-.52-.544-.78-1.3-.78-2.268 0-.64.116-1.192.348-1.656.232-.464.556-.824.972-1.08a2.754 2.754 0 011.452-.384c.52 0 .96.112 1.32.336.368.216.648.532.84.948.2.408.3.896.3 1.464v.324h-4.908v-.456H86l-.204.156c0-.72-.168-1.284-.504-1.692-.336-.416-.836-.624-1.5-.624-.704 0-1.256.24-1.656.72-.392.48-.588 1.108-.588 1.884v.06c0 .848.208 1.496.624 1.944.416.44.996.66 1.74.66.376 0 .728-.06 1.056-.18.328-.12.644-.324.948-.612l.252.396c-.248.272-.576.484-.984.636a3.614 3.614 0 01-1.272.228zm3.996-.096v-4.632c0-.224-.008-.452-.024-.684a9.489 9.489 0 00-.048-.684h.492l.072 1.308-.108.012c.08-.32.224-.584.432-.792.216-.208.46-.364.732-.468a2.367 2.367 0 011.104-.144c.096.008.184.024.264.048l-.024.468a1.292 1.292 0 00-.264-.048 3.195 3.195 0 00-.288-.012c-.368 0-.692.096-.972.288a1.96 1.96 0 00-.636.696 1.64 1.64 0 00-.228.804v3.84h-.504zm3.617 0v-.84h.828v.84h-.828zM2.26 165.02c-.3 0-.567-.038-.804-.116a1.899 1.899 0 01-.618-.333l.158-.349c.124.091.247.169.37.233.127.059.263.105.408.137.144.028.306.042.486.042.314 0 .547-.058.699-.174a.559.559 0 00.227-.466c0-.165-.053-.292-.159-.38-.106-.089-.29-.159-.555-.212l-.555-.111c-.343-.071-.598-.185-.767-.344-.166-.159-.249-.374-.249-.645 0-.222.056-.416.17-.582a1.14 1.14 0 01.486-.386c.208-.092.45-.138.724-.138.265 0 .506.041.725.122.219.078.406.192.56.344l-.153.338a1.54 1.54 0 00-.523-.317 1.749 1.749 0 00-.614-.101c-.289 0-.518.064-.687.191a.599.599 0 00-.249.508.53.53 0 00.159.407c.105.095.28.167.523.217l.561.111c.36.074.624.185.793.333.17.148.254.356.254.624a.917.917 0 01-.169.545c-.11.159-.266.282-.47.37a1.839 1.839 0 01-.73.132zm2.963 0c-.261 0-.46-.074-.598-.222-.137-.151-.206-.379-.206-.682v-1.465H3.9v-.333h.519v-.725l.428-.122v.847h.762v.333h-.762v1.417c0 .212.036.364.106.455.074.088.183.133.328.133a.968.968 0 00.18-.016c.053-.014.1-.03.143-.048v.36a.72.72 0 01-.18.047.98.98 0 01-.201.021zm1.971 0c-.254 0-.476-.054-.666-.164a1.127 1.127 0 01-.434-.476 1.648 1.648 0 01-.153-.735c0-.285.05-.53.153-.735.102-.204.247-.361.434-.471.19-.113.412-.169.666-.169.258 0 .48.056.667.169.19.11.336.267.439.471.105.205.158.45.158.735 0 .282-.053.527-.158.735a1.117 1.117 0 01-.44.476 1.29 1.29 0 01-.666.164zm0-.349c.254 0 .455-.086.603-.259.148-.176.222-.432.222-.767 0-.338-.075-.594-.227-.767a.74.74 0 00-.598-.264.74.74 0 00-.597.264c-.149.173-.223.429-.223.767 0 .335.074.591.223.767a.746.746 0 00.597.259zm1.932.302v-2.042c0-.099-.005-.199-.016-.301a8.499 8.499 0 00-.026-.312h.413l.052.581h-.063a.911.911 0 01.37-.465c.173-.109.372-.164.598-.164.314 0 .55.085.709.254.162.166.243.428.243.788v1.661h-.429v-1.635c0-.25-.05-.431-.153-.544-.099-.117-.254-.175-.465-.175-.247 0-.443.076-.587.228-.145.151-.217.354-.217.608v1.518h-.429zm4.279.047c-.416 0-.744-.119-.984-.359-.24-.244-.36-.58-.36-1.01 0-.279.053-.521.16-.725.105-.208.253-.369.444-.481.19-.117.409-.175.655-.175.244 0 .448.051.614.153a.996.996 0 01.38.439c.089.187.133.409.133.667v.159h-2.058v-.27h1.778l-.09.069c0-.283-.064-.503-.19-.662-.128-.158-.316-.238-.567-.238-.264 0-.47.094-.619.281-.148.183-.222.432-.222.746v.047c0 .332.081.584.244.756.165.17.396.254.692.254.16 0 .307-.023.445-.068.14-.05.275-.129.402-.238l.148.301a1.208 1.208 0 01-.444.265 1.755 1.755 0 01-.561.089zm1.745-.047v-3.729h.44v1.65h2.247v-1.65h.434v3.729h-.434v-1.703h-2.248v1.703h-.439zm5.181.047c-.416 0-.744-.119-.983-.359-.24-.244-.36-.58-.36-1.01 0-.279.053-.521.159-.725.106-.208.254-.369.444-.481.19-.117.41-.175.656-.175.243 0 .448.051.613.153a.995.995 0 01.381.439c.088.187.133.409.133.667v.159h-2.058v-.27h1.777l-.09.069c0-.283-.063-.503-.19-.662-.127-.158-.316-.238-.566-.238-.265 0-.47.094-.619.281-.148.183-.222.432-.222.746v.047c0 .332.081.584.243.756.166.17.397.254.693.254.159 0 .307-.023.444-.068.141-.05.275-.129.402-.238l.149.301a1.208 1.208 0 01-.445.265 1.755 1.755 0 01-.56.089zm2.703 0c-.233 0-.437-.054-.613-.164a1.128 1.128 0 01-.413-.476 1.727 1.727 0 01-.143-.735c0-.289.048-.536.143-.74.099-.205.236-.362.413-.471.176-.109.38-.164.613-.164.24 0 .446.06.619.18.176.12.294.282.354.487h-.063v-1.857h.428v3.893h-.423v-.635h.058a.868.868 0 01-.349.503c-.176.12-.384.179-.624.179zm.09-.349c.25 0 .451-.086.603-.259.151-.176.227-.432.227-.767 0-.338-.076-.594-.227-.767a.756.756 0 00-.603-.264.756.756 0 00-.603.264c-.148.173-.222.429-.222.767 0 .335.074.591.222.767a.762.762 0 00.603.259zm3.245 1.481c-.229 0-.44-.028-.634-.084a1.637 1.637 0 01-.524-.259l.127-.323a1.574 1.574 0 00.65.286c.113.024.233.037.36.037.261 0 .459-.069.593-.207.134-.137.2-.333.2-.587v-.777h.054a.868.868 0 01-.35.497c-.176.12-.382.18-.618.18-.244 0-.455-.053-.635-.159a1.114 1.114 0 01-.413-.46 1.64 1.64 0 01-.142-.709c0-.268.047-.501.142-.698.1-.198.237-.349.413-.455.18-.109.391-.164.635-.164.24 0 .446.06.619.18.176.12.292.286.349.497l-.053-.053.047-.576h.418a4.39 4.39 0 00-.042.613v2.026c0 .395-.103.693-.307.894-.201.201-.497.301-.889.301zm-.063-1.586c.257 0 .46-.085.608-.254.148-.173.222-.415.222-.725s-.074-.55-.222-.719c-.148-.17-.35-.254-.608-.254a.774.774 0 00-.608.254c-.152.169-.228.409-.228.719s.076.552.228.725a.777.777 0 00.608.254zm3.261.454c-.416 0-.744-.119-.984-.359-.24-.244-.36-.58-.36-1.01 0-.279.053-.521.16-.725.105-.208.253-.369.444-.481.19-.117.408-.175.655-.175.244 0 .448.051.614.153a.995.995 0 01.38.439c.089.187.133.409.133.667v.159h-2.058v-.27h1.778l-.09.069c0-.283-.064-.503-.19-.662-.128-.158-.316-.238-.567-.238-.264 0-.47.094-.619.281-.148.183-.222.432-.222.746v.047c0 .332.082.584.244.756.165.17.396.254.693.254.158 0 .306-.023.444-.068.14-.05.275-.129.402-.238l.148.301a1.207 1.207 0 01-.444.265 1.755 1.755 0 01-.561.089zm3.077-.047v-2.655h.428v2.655h-.428zm-.053-3.258v-.482h.529v.482h-.53zm2.196 3.305c-.211 0-.409-.028-.592-.084a1.276 1.276 0 01-.455-.249l.148-.301c.13.102.272.178.423.227.155.05.316.074.481.074.212 0 .37-.037.477-.111a.367.367 0 00.163-.317.301.301 0 00-.105-.243c-.067-.064-.178-.113-.334-.149l-.491-.1c-.226-.049-.395-.132-.508-.249a.637.637 0 01-.17-.455c0-.155.041-.29.122-.407.081-.12.2-.213.355-.28.155-.071.336-.106.544-.106.194 0 .372.03.535.09.165.056.303.139.412.249l-.153.296a1.025 1.025 0 00-.365-.228 1.126 1.126 0 00-.418-.079c-.208 0-.365.042-.47.127a.392.392 0 00-.154.323c0 .102.032.186.095.253.067.064.17.112.307.143l.492.101c.24.053.418.136.534.248.12.11.18.258.18.445a.689.689 0 01-.132.418.843.843 0 01-.37.269 1.438 1.438 0 01-.55.095zm4.13 0c-.236 0-.442-.054-.619-.164a1.128 1.128 0 01-.412-.476 1.727 1.727 0 01-.143-.735c0-.289.048-.536.143-.74.099-.205.236-.362.412-.471.177-.109.383-.164.62-.164.239 0 .445.062.618.185.176.12.293.284.35.492h-.064l.058-.629h.412l-.031.312a4.39 4.39 0 00-.01.301v2.042h-.43v-.624h.059a.844.844 0 01-.35.492c-.175.12-.38.179-.613.179zm.085-.349c.254 0 .455-.086.603-.259.148-.176.222-.432.222-.767 0-.338-.074-.594-.222-.767a.747.747 0 00-.603-.264.756.756 0 00-.603.264c-.148.173-.222.429-.222.767 0 .335.074.591.222.767a.762.762 0 00.603.259zm3.456 1.444v-3.184c0-.099-.006-.199-.016-.301a8.327 8.327 0 00-.027-.312h.413l.058.629h-.063a.85.85 0 01.343-.492c.173-.123.38-.185.62-.185.239 0 .445.055.618.164.176.109.314.266.413.471.098.204.148.451.148.74 0 .286-.05.531-.148.735a1.094 1.094 0 01-.408.476c-.176.11-.384.164-.624.164-.236 0-.44-.059-.613-.179a.852.852 0 01-.344-.492h.058v1.766h-.428zm1.243-1.444c.253 0 .454-.086.602-.259.152-.176.228-.432.228-.767 0-.338-.076-.594-.227-.767a.747.747 0 00-.603-.264.756.756 0 00-.603.264c-.148.173-.223.429-.223.767 0 .335.075.591.223.767a.762.762 0 00.603.259zm1.917.302v-2.015c0-.106-.003-.214-.01-.323a4.456 4.456 0 00-.021-.317h.412l.053.645-.074.005a.83.83 0 01.497-.619.935.935 0 01.376-.079c.053 0 .099.002.137.005a.42.42 0 01.117.027l-.005.381a.582.582 0 00-.149-.032.914.914 0 00-.148-.011.743.743 0 00-.407.111.75.75 0 00-.344.656v1.566h-.434zm2.991.047c-.254 0-.476-.054-.666-.164a1.127 1.127 0 01-.434-.476 1.648 1.648 0 01-.153-.735c0-.285.05-.53.153-.735.102-.204.247-.361.434-.471a1.28 1.28 0 01.666-.169c.258 0 .48.056.666.169.191.11.337.267.44.471.105.205.158.45.158.735 0 .282-.053.527-.158.735a1.117 1.117 0 01-.44.476 1.29 1.29 0 01-.666.164zm0-.349c.254 0 .455-.086.603-.259.148-.176.222-.432.222-.767 0-.338-.076-.594-.227-.767a.74.74 0 00-.598-.264c-.25 0-.45.088-.598.264-.148.173-.222.429-.222.767 0 .335.074.591.222.767a.746.746 0 00.598.259zm2.937.349c-.233 0-.437-.054-.613-.164a1.129 1.129 0 01-.413-.476 1.727 1.727 0 01-.143-.735c0-.289.048-.536.143-.74.099-.205.236-.362.413-.471.176-.109.38-.164.613-.164.24 0 .446.06.619.18.176.12.294.282.354.487h-.063v-1.857h.428v3.893h-.423v-.635h.058a.869.869 0 01-.349.503c-.176.12-.384.179-.624.179zm.09-.349c.25 0 .451-.086.603-.259.152-.176.228-.432.228-.767 0-.338-.076-.594-.228-.767a.756.756 0 00-.603-.264.756.756 0 00-.603.264c-.148.173-.222.429-.222.767 0 .335.074.591.222.767a.762.762 0 00.603.259zm3.013.349c-.314 0-.552-.086-.714-.259-.159-.172-.238-.437-.238-.793v-1.65h.428v1.639c0 .244.05.423.148.54.099.113.252.169.46.169.233 0 .42-.076.561-.227.141-.152.212-.355.212-.609v-1.512h.428v2.655h-.418v-.598h.069a.946.946 0 01-.36.476.983.983 0 01-.576.169zm3.232 0c-.26 0-.488-.056-.682-.169a1.152 1.152 0 01-.444-.481 1.664 1.664 0 01-.154-.741c0-.289.053-.534.159-.735.106-.204.254-.359.444-.465a1.39 1.39 0 01.677-.159c.17 0 .334.03.492.09.162.06.296.145.402.254l-.153.307a1.046 1.046 0 00-.714-.302c-.275 0-.489.087-.64.259-.152.173-.228.425-.228.757 0 .328.076.581.228.761.151.18.365.27.64.27a1.027 1.027 0 00.714-.296l.153.301c-.11.113-.245.2-.407.26a1.416 1.416 0 01-.487.089zm2.445 0c-.261 0-.46-.074-.598-.222-.138-.151-.206-.379-.206-.682v-1.465h-.519v-.333h.519v-.725l.428-.122v.847h.762v.333h-.762v1.417c0 .212.035.364.106.455.074.088.183.133.328.133a.97.97 0 00.18-.016c.053-.014.1-.03.142-.048v.36a.72.72 0 01-.18.047.98.98 0 01-.2.021zm3.62 0c-.24 0-.447-.059-.62-.179a.902.902 0 01-.349-.503h.059v.635h-.424v-3.893h.429v1.857h-.064a.874.874 0 01.35-.487c.172-.12.379-.18.618-.18.24 0 .446.056.62.169.175.11.311.267.406.471.1.205.148.45.148.735 0 .286-.049.531-.148.735a1.128 1.128 0 01-.412.476c-.173.11-.377.164-.614.164zm-.09-.349c.25 0 .45-.086.602-.259.152-.173.228-.428.228-.767 0-.338-.076-.594-.228-.767a.756.756 0 00-.603-.264.756.756 0 00-.603.264c-.148.173-.222.429-.222.767 0 .335.074.591.222.767a.762.762 0 00.603.259zm1.786 1.503l-.1-.355c.165-.039.303-.084.412-.137a.799.799 0 00.28-.201c.074-.085.138-.191.19-.318l.138-.312-.01.18-1.159-2.713h.466l.957 2.332h-.137l.946-2.332h.45l-1.227 2.877c-.07.169-.148.31-.233.423a1.2 1.2 0 01-.275.28 1.126 1.126 0 01-.317.175 2.37 2.37 0 01-.381.101zm5.559-1.154c-.3 0-.568-.038-.804-.116a1.9 1.9 0 01-.619-.333l.159-.349c.123.091.246.169.37.233.127.059.263.105.407.137.145.028.307.042.487.042.314 0 .546-.058.698-.174a.559.559 0 00.227-.466c0-.165-.053-.292-.158-.38-.106-.089-.291-.159-.556-.212l-.555-.111c-.342-.071-.598-.185-.767-.344-.166-.159-.249-.374-.249-.645 0-.222.057-.416.17-.582a1.14 1.14 0 01.486-.386c.208-.092.45-.138.725-.138.264 0 .506.041.725.122.218.078.405.192.56.344l-.153.338a1.539 1.539 0 00-.524-.317 1.749 1.749 0 00-.613-.101c-.29 0-.519.064-.688.191a.598.598 0 00-.248.508.53.53 0 00.158.407c.106.095.28.167.524.217l.56.111c.36.074.625.185.794.333.17.148.254.356.254.624a.916.916 0 01-.17.545c-.109.159-.266.282-.47.37a1.839 1.839 0 01-.73.132zm2.962 0c-.26 0-.46-.074-.597-.222-.138-.151-.207-.379-.207-.682v-1.465h-.518v-.333h.518v-.725l.429-.122v.847h.761v.333h-.761v1.417c0 .212.035.364.106.455.073.088.183.133.327.133a.97.97 0 00.18-.016c.053-.014.1-.03.143-.048v.36a.72.72 0 01-.18.047.98.98 0 01-.2.021zm1.972 0c-.254 0-.476-.054-.667-.164a1.128 1.128 0 01-.434-.476 1.65 1.65 0 01-.153-.735c0-.285.051-.53.153-.735.103-.204.247-.361.434-.471.19-.113.413-.169.667-.169.257 0 .48.056.666.169.19.11.337.267.44.471.105.205.158.45.158.735 0 .282-.053.527-.159.735a1.117 1.117 0 01-.439.476 1.29 1.29 0 01-.666.164zm0-.349c.254 0 .454-.086.603-.259.148-.176.222-.432.222-.767 0-.338-.076-.594-.228-.767a.741.741 0 00-.597-.264.74.74 0 00-.598.264c-.148.173-.222.429-.222.767 0 .335.074.591.222.767a.746.746 0 00.598.259zm1.932.302v-2.042c0-.099-.005-.199-.016-.301a8.542 8.542 0 00-.027-.312h.413l.053.581h-.064a.911.911 0 01.37-.465c.173-.109.373-.164.598-.164.314 0 .55.085.71.254.161.166.242.428.242.788v1.661h-.428v-1.635c0-.25-.051-.431-.153-.544-.1-.117-.254-.175-.466-.175-.247 0-.442.076-.587.228-.145.151-.217.354-.217.608v1.518h-.428zm4.278.047c-.416 0-.744-.119-.983-.359-.24-.244-.36-.58-.36-1.01 0-.279.053-.521.159-.725.105-.208.254-.369.444-.481.19-.117.409-.175.656-.175.243 0 .448.051.613.153a.995.995 0 01.381.439c.088.187.132.409.132.667v.159H81.33v-.27h1.777l-.09.069c0-.283-.063-.503-.19-.662-.127-.158-.316-.238-.566-.238-.265 0-.471.094-.62.281-.147.183-.221.432-.221.746v.047c0 .332.08.584.243.756.166.17.397.254.693.254.159 0 .307-.023.444-.068.141-.05.275-.129.402-.238l.148.301a1.207 1.207 0 01-.444.265 1.756 1.756 0 01-.56.089zm1.328-.047l1.486-1.989v.164l-1.418-1.904h.519l1.163 1.592h-.137l1.153-1.592h.524l-1.423 1.904v-.164l1.486 1.989h-.518l-1.243-1.687h.169l-1.243 1.687h-.518zm-82.63 7v-3.729h2.328v.36H1.483v1.306h1.772v.36H1.483v1.703h-.44zm2.923 0v-2.655h.429v2.655h-.429zm-.053-3.258v-.482h.53v.482h-.53zm1.314 3.258v-2.042c0-.099-.006-.199-.016-.301a8.477 8.477 0 00-.027-.312h.413l.053.581h-.064a.911.911 0 01.37-.465c.173-.109.372-.164.598-.164.314 0 .55.085.709.254.162.166.243.428.243.788v1.661h-.428v-1.635c0-.25-.051-.431-.154-.544-.098-.117-.254-.175-.465-.175-.247 0-.443.076-.587.228-.145.151-.217.354-.217.608v1.518h-.428zm4.109.047c-.236 0-.443-.054-.619-.164a1.128 1.128 0 01-.412-.476 1.727 1.727 0 01-.143-.735c0-.289.047-.536.143-.74.098-.205.236-.362.412-.471.176-.109.383-.164.619-.164.24 0 .446.062.619.185.176.12.292.284.349.492h-.064l.059-.629h.412l-.032.312c-.007.102-.01.202-.01.301v2.042h-.429v-.624h.059a.844.844 0 01-.35.492c-.176.12-.38.179-.613.179zm.085-.349c.253 0 .454-.086.603-.259.148-.176.222-.432.222-.767 0-.338-.074-.594-.223-.767a.747.747 0 00-.602-.264.756.756 0 00-.603.264c-.149.173-.223.429-.223.767 0 .335.074.591.223.767a.762.762 0 00.603.259zm2.076.302v-2.042c0-.099-.005-.199-.016-.301a8.542 8.542 0 00-.026-.312h.412l.053.581h-.063a.911.911 0 01.37-.465c.173-.109.372-.164.598-.164.314 0 .55.085.709.254.162.166.243.428.243.788v1.661h-.429v-1.635c0-.25-.05-.431-.153-.544-.099-.117-.254-.175-.466-.175-.246 0-.442.076-.587.228-.144.151-.216.354-.216.608v1.518h-.429zm4.215.047a1.33 1.33 0 01-.682-.169 1.152 1.152 0 01-.444-.481 1.664 1.664 0 01-.154-.741c0-.289.053-.534.159-.735.106-.204.254-.359.444-.465a1.39 1.39 0 01.677-.159c.17 0 .334.03.492.09.162.06.296.145.402.254l-.153.307a1.046 1.046 0 00-.714-.302c-.275 0-.489.087-.64.259-.152.173-.228.425-.228.757 0 .328.076.581.228.761.151.18.365.27.64.27a1.027 1.027 0 00.714-.296l.153.301c-.11.113-.245.2-.407.26a1.416 1.416 0 01-.487.089zm1.503-.047v-2.655h.428v2.655h-.428zm-.053-3.258v-.482h.53v.482h-.53zm2.324 3.305c-.237 0-.443-.054-.62-.164a1.129 1.129 0 01-.412-.476 1.727 1.727 0 01-.143-.735c0-.289.048-.536.143-.74.099-.205.236-.362.413-.471.176-.109.382-.164.619-.164.24 0 .446.062.619.185.176.12.292.284.349.492h-.064l.058-.629h.413l-.032.312c-.007.102-.01.202-.01.301v2.042h-.429v-.624h.058a.844.844 0 01-.349.492c-.176.12-.38.179-.613.179zm.084-.349c.254 0 .455-.086.603-.259.148-.176.222-.432.222-.767 0-.338-.074-.594-.222-.767a.747.747 0 00-.603-.264.756.756 0 00-.603.264c-.148.173-.222.429-.222.767 0 .335.074.591.222.767a.762.762 0 00.603.259zm2.077.302v-3.893h.428v3.893h-.428zm2.687 0v-3.729h.439v3.729h-.44zm1.321 0v-2.042c0-.099-.005-.199-.016-.301a8.544 8.544 0 00-.026-.312h.412l.053.581h-.063a.911.911 0 01.37-.465c.173-.109.372-.164.598-.164.314 0 .55.085.708.254.163.166.244.428.244.788v1.661h-.429v-1.635c0-.25-.05-.431-.153-.544-.099-.117-.254-.175-.466-.175-.246 0-.442.076-.587.228-.144.151-.216.354-.216.608v1.518h-.429zm4.215.047c-.26 0-.488-.056-.682-.169a1.152 1.152 0 01-.444-.481 1.664 1.664 0 01-.154-.741c0-.289.053-.534.159-.735.106-.204.254-.359.444-.465a1.39 1.39 0 01.677-.159c.17 0 .333.03.492.09.162.06.296.145.402.254l-.153.307a1.046 1.046 0 00-.714-.302c-.275 0-.489.087-.64.259-.152.173-.228.425-.228.757 0 .328.076.581.228.761.151.18.365.27.64.27a1.028 1.028 0 00.714-.296l.153.301c-.11.113-.245.2-.407.26a1.416 1.416 0 01-.487.089zm1.47-.047v-.54h.54v.54h-.54zm2.25-1.312v-.28h2.67v.28h-2.67zm4.514 1.312v-3.729h2.328v.36h-1.889v1.306h1.772v.36h-1.772v1.703h-.439zm4.506.047c-.373 0-.69-.077-.952-.232a1.547 1.547 0 01-.603-.661c-.137-.286-.206-.626-.206-1.021 0-.395.069-.734.206-1.016.141-.285.342-.506.603-.661.261-.155.579-.233.952-.233.265 0 .501.041.71.122.207.081.389.199.544.354l-.164.349a1.798 1.798 0 00-.503-.322 1.469 1.469 0 00-.581-.106c-.427 0-.751.132-.974.397-.222.264-.333.636-.333 1.116 0 .479.111.853.334 1.121.222.265.546.397.973.397.222 0 .416-.034.581-.101.166-.07.334-.181.503-.333l.164.354c-.155.152-.337.27-.545.355a1.942 1.942 0 01-.709.121zm1.998-.047v-3.729h.38l1.497 3.38h-.153l1.497-3.38h.38v3.729h-.402v-3.163h.16l-1.413 3.163h-.29l-1.418-3.163h.158v3.163h-.396zm5.914 0v-3.729h1.237c.413 0 .762.072 1.048.217.285.141.502.351.65.629.148.275.222.614.222 1.016 0 .398-.074.737-.222 1.015-.148.279-.365.49-.65.635-.286.145-.635.217-1.048.217h-1.237zm.439-.376h.767c.507 0 .885-.123 1.131-.37.247-.25.37-.624.37-1.121 0-.501-.123-.875-.37-1.122-.246-.246-.624-.37-1.131-.37h-.767v2.983zm3.465.376v-2.655h.428v2.655h-.428zm-.053-3.258v-.482h.529v.482h-.53zm2.096 3.258l-1.138-2.655h.466l.952 2.338h-.143l.963-2.338h.444l-1.137 2.655h-.407zm2.027 0v-2.655h.428v2.655h-.428zm-.053-3.258v-.482h.529v.482h-.53zm2.196 3.305c-.211 0-.409-.028-.592-.084a1.276 1.276 0 01-.455-.249l.148-.301c.13.102.272.178.423.227.155.05.316.074.482.074.211 0 .37-.037.476-.111a.368.368 0 00.164-.317.301.301 0 00-.106-.243c-.067-.064-.178-.113-.333-.149l-.492-.1c-.226-.049-.395-.132-.508-.249a.637.637 0 01-.17-.455c0-.155.041-.29.122-.407.081-.12.2-.213.355-.28.155-.071.336-.106.544-.106.194 0 .372.03.535.09.165.056.303.139.412.249l-.153.296a1.024 1.024 0 00-.365-.228 1.126 1.126 0 00-.418-.079c-.208 0-.365.042-.47.127a.392.392 0 00-.154.323c0 .102.032.186.095.253.067.064.17.112.307.143l.492.101c.24.053.418.136.534.248.12.11.18.258.18.445a.688.688 0 01-.132.418.842.842 0 01-.37.269 1.438 1.438 0 01-.55.095zm1.74-.047v-2.655h.43v2.655h-.43zm-.052-3.258v-.482h.529v.482h-.529zm2.403 3.305c-.254 0-.476-.054-.667-.164a1.127 1.127 0 01-.433-.476 1.648 1.648 0 01-.154-.735c0-.285.051-.53.154-.735.102-.204.246-.361.433-.471a1.28 1.28 0 01.667-.169c.257 0 .48.056.666.169.19.11.337.267.44.471.105.205.158.45.158.735 0 .282-.053.527-.159.735a1.117 1.117 0 01-.439.476 1.29 1.29 0 01-.666.164zm0-.349c.254 0 .455-.086.603-.259.148-.176.222-.432.222-.767 0-.338-.076-.594-.228-.767a.74.74 0 00-.597-.264c-.25 0-.45.088-.598.264-.148.173-.222.429-.222.767 0 .335.074.591.222.767a.746.746 0 00.598.259zm1.932.302v-2.042c0-.099-.005-.199-.016-.301a8.327 8.327 0 00-.026-.312h.412l.053.581h-.063a.912.912 0 01.37-.465c.173-.109.372-.164.598-.164.313 0 .55.085.708.254.163.166.244.428.244.788v1.661h-.429v-1.635c0-.25-.051-.431-.153-.544-.099-.117-.254-.175-.466-.175-.247 0-.442.076-.587.228-.144.151-.217.354-.217.608v1.518h-.428z" fill="#000"/></svg>