<svg width="223" height="12" viewBox="0 0 223 12" fill="none" xmlns="http://www.w3.org/2000/svg"><path d="M.288 1.115v10.44h2.808V8.583h1.792c3.107 0 4.585-1.15 4.585-3.704 0-2.554-1.404-3.764-4.615-3.764H.288zm2.808 2.42h1.657c1.255 0 1.793.463 1.793 1.448 0 1.001-.553 1.434-1.793 1.434H3.096V3.535zm16.69.09V1.1h-8.559v10.455h8.648V9.031h-5.84V7.463h5.348v-2.39h-5.348V3.624h5.75zm1.68-2.51v10.44h2.809V8.374h1.673l2.031 3.181h3.241l-2.345-3.554c1.449-.493 2.061-1.554 2.061-3.257 0-2.554-1.359-3.63-4.764-3.63h-4.705zm2.809 2.524h2.031c1.24 0 1.703.389 1.703 1.285 0 .91-.463 1.284-1.703 1.284h-2.031V3.64zm16.595-.015V1.1h-8.23v10.455h2.808v-3.63h4.944V5.537h-4.944V3.624h5.422zM47.73.966c-3.092 0-5.601 2.404-5.601 5.377 0 2.957 2.51 5.362 5.601 5.362 3.092 0 5.601-2.405 5.601-5.362 0-2.973-2.51-5.377-5.601-5.377zm0 2.628c1.568 0 2.674 1.225 2.674 2.749 0 1.508-1.106 2.733-2.674 2.733-1.568 0-2.659-1.225-2.659-2.733 0-1.524 1.09-2.749 2.659-2.749zm7.46-2.48v10.441h2.808V8.374h1.673l2.032 3.181h3.24L62.6 8.001c1.449-.493 2.06-1.554 2.06-3.257 0-2.554-1.358-3.63-4.764-3.63H55.19zm2.808 2.525h2.032c1.24 0 1.702.389 1.702 1.285 0 .91-.463 1.284-1.702 1.284h-2.032V3.64zm21.091 7.916V1.1H75.4l-2.718 4.496L69.978 1.1h-3.69v10.455h2.764V4.864l3.151 5.317h.956l3.152-5.317v6.691h2.778zm13.4 0L88.322 1.1h-3.69L80.51 11.555h3.36l.673-1.822h3.913l.672 1.822h3.361zm-7.214-4.062l1.21-3.256 1.21 3.256h-2.42zm18.425 4.062V1.1h-2.763v5.84L96.725 1.1h-2.912v10.455h2.763V5.73l4.212 5.825h2.912zm7.274-10.59c-3.047 0-5.511 2.405-5.511 5.378 0 2.957 2.464 5.362 5.511 5.362 1.867 0 3.51-.896 4.496-2.285l-2.435-1.375a2.497 2.497 0 01-2.046 1.031c-1.524 0-2.584-1.225-2.584-2.733 0-1.524 1.06-2.749 2.584-2.749.866 0 1.583.404 2.046 1.031l2.435-1.374c-.986-1.39-2.629-2.285-4.496-2.285zm14.664 2.66V1.1h-8.558v10.455h8.648V9.031h-5.84V7.463h5.347v-2.39h-5.347V3.624h5.75zm16.692 7.93L138.163 1.1h-3.689l-4.123 10.455h3.361l.672-1.822h3.914l.672 1.822h3.36zm-7.214-4.062l1.21-3.256 1.21 3.256h-2.42zm18.426 4.062V1.1h-2.763v5.84l-4.212-5.84h-2.913v10.455h2.763V5.73l4.212 5.825h2.913zm13.323 0L162.697 1.1h-3.689l-4.122 10.455h3.36l.672-1.822h3.914l.672 1.822h3.361zm-7.215-4.062l1.21-3.256 1.21 3.256h-2.42zm11.436 1.538V1.1h-2.808v10.455h7.931V9.031h-5.123zm10.918-1.06l4.167-6.871h-3.33l-2.226 3.898-2.21-3.898h-3.361l4.152 6.9v3.555h2.808V7.971zm13.771-4.466V1.1h-8.887v2.405h3.032v8.05h2.823v-8.05h3.032zm4.221 8.05V1.115h-2.808v10.44h2.808zM207.36.965c-3.047 0-5.511 2.405-5.511 5.378 0 2.957 2.464 5.362 5.511 5.362 1.867 0 3.51-.896 4.496-2.285l-2.435-1.375a2.497 2.497 0 01-2.046 1.031c-1.523 0-2.584-1.225-2.584-2.733 0-1.524 1.061-2.749 2.584-2.749.866 0 1.583.404 2.046 1.031l2.435-1.374c-.986-1.39-2.629-2.285-4.496-2.285zm10.363-.014c-2.435.015-4.347 1.075-4.347 3.42 0 2.046 1.703 2.599 4.078 3.167 1.718.433 2.016.492 2.016 1.09 0 .478-.507.687-1.09.687-1.329 0-2.838-.388-4.197-1.15l-1.255 2.091c1.434.956 3.197 1.464 5.138 1.464 2.689 0 4.377-1.225 4.377-3.45 0-2.136-1.748-2.734-4.197-3.391-1.628-.403-1.823-.538-1.823-.866 0-.478.463-.688 1.001-.688 1.031 0 2.435.359 3.63.971l1.18-2.165c-1.225-.747-2.838-1.18-4.511-1.18z" fill="#09B45B"/></svg>