<svg width="129" height="43" viewBox="0 0 129 43" fill="none" xmlns="http://www.w3.org/2000/svg"><path d="M.44 2.844h4.752V16h2.53V2.844h4.752V.6H.44v2.244zm18.283 1.892c-1.848 0-2.75.748-3.322 1.694l-.264-1.694h-2.112V16h2.376v-5.654c0-1.738.682-3.388 2.794-3.388h1.056V4.736h-.528zm11.946 9.196c-.484 0-.726-.154-.726-.726v-4.51c0-2.662-1.716-4.092-4.708-4.092-2.838 0-4.73 1.364-4.972 3.564h2.332c.176-.99 1.122-1.65 2.53-1.65 1.562 0 2.464.77 2.464 2.024v.682h-2.838c-3.146 0-4.818 1.298-4.818 3.608 0 2.09 1.716 3.3 4.18 3.3 1.826 0 2.97-.792 3.718-1.936 0 1.122.528 1.804 2.068 1.804h1.254v-2.068h-.484zm-3.08-2.552c-.022 1.738-1.166 2.904-3.146 2.904-1.298 0-2.09-.66-2.09-1.606 0-1.144.814-1.694 2.288-1.694h2.948v.396zm13.33-5.082c-.726-.99-1.936-1.694-3.652-1.694-3.058 0-5.324 2.288-5.324 5.764 0 3.608 2.266 5.764 5.324 5.764 1.782 0 2.948-.836 3.674-1.826L41.227 16h2.068V.6H40.92v5.698zm-3.256 7.832c-1.98 0-3.278-1.54-3.278-3.762 0-2.2 1.298-3.74 3.278-3.74s3.278 1.54 3.278 3.784c0 2.178-1.298 3.718-3.278 3.718zm13.3 2.002c2.794 0 4.686-1.694 5.082-3.916H53.67c-.33 1.254-1.386 1.98-2.838 1.98-1.87 0-3.08-1.254-3.146-3.168v-.154h8.492c.044-.308.066-.616.066-.902-.066-3.3-2.244-5.368-5.5-5.368-3.322 0-5.544 2.31-5.544 5.786 0 3.454 2.222 5.742 5.764 5.742zm-3.19-6.996c.176-1.606 1.474-2.618 2.992-2.618 1.65 0 2.816.946 3.014 2.618h-6.006zM65.421 16l1.43-3.806h6.314L74.617 16h2.706L71.581.6h-3.014L62.803 16h2.618zm4.576-12.672l2.464 6.71h-4.906l2.442-6.71zm15.998 7.04c0 2.332-1.1 3.696-2.904 3.696-1.738 0-2.618-1.122-2.618-3.322V4.736h-2.376v6.27c0 3.85 2.046 5.126 4.444 5.126 1.738 0 2.772-.704 3.476-1.562l.264 1.43h2.09V4.736h-2.376v5.632zm4.234 1.914c.066 2.442 2.134 3.85 5.148 3.85 2.728 0 4.774-1.364 4.774-3.52 0-2.508-2.09-3.036-4.664-3.344-1.628-.176-2.706-.308-2.706-1.364 0-.902.924-1.474 2.332-1.474s2.376.726 2.508 1.76h2.332c-.154-2.31-2.112-3.586-4.884-3.586-2.706-.022-4.62 1.364-4.62 3.498 0 2.332 2.024 2.882 4.598 3.19 1.738.22 2.772.308 2.772 1.518 0 .902-.968 1.474-2.442 1.474-1.716 0-2.728-.836-2.816-2.002h-2.332zm11.064 0c.066 2.442 2.134 3.85 5.148 3.85 2.728 0 4.774-1.364 4.774-3.52 0-2.508-2.09-3.036-4.664-3.344-1.628-.176-2.706-.308-2.706-1.364 0-.902.924-1.474 2.332-1.474s2.376.726 2.508 1.76h2.332c-.154-2.31-2.112-3.586-4.884-3.586-2.706-.022-4.62 1.364-4.62 3.498 0 2.332 2.024 2.882 4.598 3.19 1.738.22 2.772.308 2.772 1.518 0 .902-.968 1.474-2.442 1.474-1.716 0-2.728-.836-2.816-2.002h-2.332zm12.974-9.13c.814 0 1.452-.594 1.452-1.43s-.638-1.43-1.452-1.43-1.452.594-1.452 1.43.638 1.43 1.452 1.43zM113.057 16h2.376V4.736h-2.376V16zm10.051.132c2.794 0 4.686-1.694 5.082-3.916h-2.376c-.33 1.254-1.386 1.98-2.838 1.98-1.87 0-3.08-1.254-3.146-3.168v-.154h8.492c.044-.308.066-.616.066-.902-.066-3.3-2.244-5.368-5.5-5.368-3.322 0-5.544 2.31-5.544 5.786 0 3.454 2.222 5.742 5.764 5.742zm-3.19-6.996c.176-1.606 1.474-2.618 2.992-2.618 1.65 0 2.816.946 3.014 2.618h-6.006zM.792 36.94c.088 3.08 2.398 5.192 6.226 5.192 3.388 0 5.698-1.914 5.698-4.686.022-3.036-2.464-3.85-5.016-4.312-2.42-.418-4.004-.748-4.004-2.332 0-1.452 1.21-2.2 2.948-2.2 1.87 0 3.102 1.056 3.3 2.618h2.53c-.11-2.838-2.31-4.752-5.83-4.752-3.278 0-5.478 1.826-5.478 4.51 0 3.058 2.42 3.872 4.972 4.312 2.442.44 4.048.792 4.048 2.42 0 1.474-1.32 2.288-3.146 2.288-2.156 0-3.564-1.21-3.696-3.014L.792 36.94zm19.827-6.336c-1.76 0-2.838.792-3.542 1.76V26.6h-2.376V42h2.376v-5.698c0-2.266 1.144-3.652 3.014-3.652 1.76 0 2.706 1.144 2.706 3.278V42h2.376v-6.27c0-3.762-2.046-5.126-4.554-5.126zm17.011 9.328c-.484 0-.726-.154-.726-.726v-4.51c0-2.662-1.716-4.092-4.708-4.092-2.838 0-4.73 1.364-4.972 3.564h2.332c.176-.99 1.122-1.65 2.53-1.65 1.562 0 2.464.77 2.464 2.024v.682h-2.838c-3.146 0-4.818 1.298-4.818 3.608 0 2.09 1.716 3.3 4.18 3.3 1.826 0 2.97-.792 3.718-1.936 0 1.122.528 1.804 2.068 1.804h1.254v-2.068h-.484zm-3.08-2.552c-.022 1.738-1.166 2.904-3.146 2.904-1.298 0-2.09-.66-2.09-1.606 0-1.144.814-1.694 2.288-1.694h2.948v.396zm10.556-6.644c-1.848 0-2.75.748-3.322 1.694l-.264-1.694h-2.112V42h2.376v-5.654c0-1.738.682-3.388 2.794-3.388h1.056v-2.222h-.528zm6.802 11.396c2.794 0 4.686-1.694 5.082-3.916h-2.376c-.33 1.254-1.386 1.98-2.837 1.98-1.87 0-3.08-1.254-3.147-3.168v-.154h8.492c.044-.308.066-.616.066-.902-.066-3.3-2.244-5.368-5.5-5.368-3.322 0-5.544 2.31-5.544 5.786 0 3.454 2.223 5.742 5.764 5.742zm-3.19-6.996c.176-1.606 1.474-2.618 2.992-2.618 1.65 0 2.816.946 3.014 2.618H48.72zm22.95 6.996c3.586 0 6.204-2.112 6.688-5.368h-2.618c-.484 1.958-1.958 3.146-4.092 3.146-2.904 0-4.664-2.332-4.664-5.61 0-3.3 1.804-5.61 4.73-5.61 2.09 0 3.542 1.21 4.048 3.146h2.618c-.506-3.256-3.036-5.368-6.556-5.368-4.554 0-7.436 3.146-7.436 7.832 0 4.73 2.794 7.832 7.282 7.832zM80.45 42h2.53v-6.512h6.028V33.31h-6.028v-4.466h7.304V26.6h-9.834V42zm17.01 0c4.817 0 7.853-3.146 7.853-7.722 0-4.576-3.036-7.678-7.853-7.678h-5.237V42h5.237zm-2.707-13.2h2.707c3.387 0 5.257 2.178 5.257 5.478s-1.87 5.522-5.257 5.522h-2.707v-11zm12.063 9.482c.066 2.442 2.134 3.85 5.148 3.85 2.728 0 4.774-1.364 4.774-3.52 0-2.508-2.09-3.036-4.664-3.344-1.628-.176-2.706-.308-2.706-1.364 0-.902.924-1.474 2.332-1.474s2.376.726 2.508 1.76h2.332c-.154-2.31-2.112-3.586-4.884-3.586-2.706-.022-4.62 1.364-4.62 3.498 0 2.332 2.024 2.882 4.598 3.19 1.738.22 2.772.308 2.772 1.518 0 .902-.968 1.474-2.442 1.474-1.716 0-2.728-.836-2.816-2.002h-2.332z" fill="#000"/></svg>