<svg width="91" height="26" viewBox="0 0 91 26" fill="none" xmlns="http://www.w3.org/2000/svg"><rect y=".868" width="91" height="25" rx="12.5" fill="#000"/><path d="M11.99 15.067c.06 1.688 1.284 2.875 3.375 2.875 1.798 0 3.046-1.04 3.046-2.52 0-1.663-1.431-2.128-2.826-2.36-1.284-.22-2.324-.429-2.324-1.456 0-.917.747-1.407 1.86-1.407 1.161 0 1.957.649 2.079 1.64h1.1c-.097-1.542-1.271-2.606-3.18-2.606-1.736 0-2.923.978-2.923 2.434 0 1.664 1.419 2.116 2.801 2.348 1.297.22 2.349.44 2.349 1.505 0 .93-.82 1.456-1.97 1.456-1.308 0-2.201-.759-2.287-1.909h-1.1zm8.09 1.175c0 1.1.428 1.626 1.626 1.626h1.089v-.917h-.99c-.54 0-.723-.196-.723-.722v-3.681h1.615v-.918h-1.615V9.881H20.08v1.75h-1.125v.917h1.125v3.694zm9.005.71c-.282 0-.404-.087-.404-.417v-2.727c0-1.456-.917-2.251-2.507-2.251-1.505 0-2.496.722-2.642 1.945h1.003c.122-.636.71-1.052 1.59-1.052.978 0 1.553.49 1.553 1.296v.428h-1.835c-1.639 0-2.507.698-2.507 1.945 0 1.138.93 1.823 2.3 1.823 1.076 0 1.7-.477 2.091-1.04.012.612.294.966 1.125.966h.55v-.917h-.317zm-1.407-1.628c0 1.04-.722 1.762-1.97 1.762-.83 0-1.357-.416-1.357-1.028 0-.71.502-1.04 1.395-1.04h1.932v.306zm5.382-3.694c-1.113 0-1.59.465-1.883.942l-.135-.942h-.868v6.238h1.003v-3.18c0-.99.355-2.08 1.663-2.08h.502v-.978h-.282zm1.819 4.612c0 1.1.428 1.626 1.627 1.626h1.088v-.917h-.99c-.538 0-.722-.196-.722-.722v-3.681h1.614v-.918h-1.614V9.881h-1.003v1.75h-1.125v.917h1.125v3.694zm7.25 0c0 1.1.429 1.626 1.627 1.626h1.089v-.917h-.99c-.539 0-.722-.196-.722-.722v-3.681h1.614v-.918h-1.614V9.881h-1.004v1.75h-1.125v.917h1.126v3.694zm6.472-4.612c-1.113 0-1.59.465-1.884.942l-.135-.942h-.868v6.238h1.003v-3.18c0-.99.355-2.08 1.663-2.08h.502v-.978H48.6zm6.452 5.321c-.282 0-.404-.086-.404-.416v-2.727c0-1.456-.917-2.251-2.507-2.251-1.505 0-2.496.722-2.642 1.945h1.003c.122-.636.709-1.052 1.59-1.052.978 0 1.553.49 1.553 1.296v.428h-1.835c-1.639 0-2.507.698-2.507 1.945 0 1.138.93 1.823 2.3 1.823 1.076 0 1.7-.477 2.091-1.04.012.612.294.966 1.125.966h.55v-.917h-.317zm-1.407-1.627c0 1.04-.722 1.762-1.97 1.762-.83 0-1.357-.416-1.357-1.028 0-.71.502-1.04 1.395-1.04h1.932v.306zm7.341-2.74c-.379-.599-1.088-1.027-2.14-1.027-1.725 0-2.997 1.284-2.997 3.192 0 2.03 1.272 3.193 2.997 3.193 1.052 0 1.724-.502 2.14-1.077l.135 1.003h.868V9.306h-1.003v3.278zm-2.043 4.465c-1.235 0-2.067-.942-2.067-2.3 0-1.357.832-2.3 2.067-2.3 1.224 0 2.055.955 2.055 2.325 0 1.333-.831 2.275-2.055 2.275zm4.926-6.47a.63.63 0 00.648-.649.63.63 0 00-.648-.648.63.63 0 00-.648.648c0 .38.281.649.648.649zm-.514 7.29h1.003V11.63h-1.003v6.238zm5.435-6.312c-1.052 0-1.688.44-2.055.917l-.134-.844h-.868v6.238h1.002V14.75c0-1.406.71-2.275 1.884-2.275 1.089 0 1.688.685 1.688 1.982v3.412h1.003v-3.473c0-2.067-1.113-2.838-2.52-2.838zm8.716 1.15c-.392-.697-1.089-1.15-2.14-1.15-1.725 0-2.997 1.284-2.997 3.192 0 2.03 1.272 3.193 2.996 3.193 1.052 0 1.725-.44 2.14-1.15v.734c0 1.358-.709 1.97-2.017 1.97-1.04 0-1.737-.441-1.909-1.224h-1.027c.16 1.37 1.272 2.116 2.862 2.116 2.14 0 3.095-1.027 3.095-2.825V11.63h-.869l-.134 1.077zm-2.043 4.342c-1.235 0-2.067-.942-2.067-2.3 0-1.357.832-2.3 2.067-2.3 1.223 0 2.055.955 2.055 2.325 0 1.333-.832 2.275-2.055 2.275z" fill="#fff"/></svg>