<svg width="85" height="21" viewBox="0 0 85 21" fill="none" xmlns="http://www.w3.org/2000/svg"><rect width="85" height="21" rx="10.5" fill="#000"/><path d="M14.321 14.054c1.422 0 2.466-.81 2.7-2.115h-.828c-.234.882-.909 1.395-1.881 1.395-1.323 0-2.133-1.035-2.133-2.484 0-1.458.846-2.484 2.169-2.484.945 0 1.611.522 1.854 1.395h.828c-.234-1.305-1.251-2.115-2.646-2.115-1.827 0-3.006 1.296-3.006 3.204 0 1.926 1.134 3.204 2.943 3.204zm5.662-4.644c-.82 0-1.17.342-1.387.693l-.099-.693h-.639V14h.738v-2.34c0-.729.262-1.53 1.224-1.53h.37v-.72h-.207zm2.697 4.644c1.063 0 1.819-.675 1.998-1.593h-.747c-.152.594-.657.936-1.305.936-.873 0-1.422-.612-1.449-1.485v-.063h3.564c.01-.108.018-.216.018-.315-.035-1.359-.881-2.178-2.178-2.178-1.296 0-2.177.954-2.177 2.349 0 1.404.9 2.349 2.276 2.349zm-1.457-2.817a1.359 1.359 0 011.367-1.233c.765 0 1.305.441 1.378 1.233h-2.745zm8.438 2.088c-.207 0-.297-.063-.297-.306v-2.007c0-1.071-.675-1.656-1.845-1.656-1.107 0-1.836.531-1.944 1.431h.738c.09-.468.522-.774 1.17-.774.72 0 1.143.36 1.143.954v.315h-1.35c-1.206 0-1.845.513-1.845 1.431 0 .837.684 1.341 1.692 1.341.792 0 1.25-.351 1.539-.765.009.45.216.711.828.711h.405v-.675h-.234zm-1.035-1.197c0 .765-.531 1.296-1.45 1.296-.611 0-.998-.306-.998-.756 0-.522.369-.765 1.026-.765h1.422v.225zm2.178.675c0 .81.315 1.197 1.197 1.197h.801v-.675h-.729c-.396 0-.531-.144-.531-.531v-2.709h1.188V9.41h-1.188V8.123h-.738V9.41h-.828v.675h.828v2.718zm4.638 1.251c1.062 0 1.818-.675 1.998-1.593h-.747c-.153.594-.657.936-1.305.936-.873 0-1.422-.612-1.449-1.485v-.063h3.564c.01-.108.018-.216.018-.315-.036-1.359-.882-2.178-2.178-2.178-1.296 0-2.178.954-2.178 2.349 0 1.404.9 2.349 2.277 2.349zm-1.458-2.817a1.359 1.359 0 011.368-1.233c.765 0 1.305.441 1.377 1.233h-2.745zm10.794 2.088c-.207 0-.297-.063-.297-.306v-2.007c0-1.071-.675-1.656-1.845-1.656-1.107 0-1.836.531-1.944 1.431h.738c.09-.468.522-.774 1.17-.774.72 0 1.143.36 1.143.954v.315h-1.35c-1.206 0-1.845.513-1.845 1.431 0 .837.684 1.341 1.692 1.341.792 0 1.25-.351 1.539-.765.009.45.216.711.828.711h.405v-.675h-.234zm-1.035-1.197c0 .765-.531 1.296-1.45 1.296-.611 0-.998-.306-.998-.756 0-.522.369-.765 1.026-.765h1.422v.225zm3.844 1.926c1.116 0 1.863-.63 2.043-1.62h-.783c-.144.585-.593.963-1.25.963-.883 0-1.477-.684-1.477-1.683s.595-1.701 1.477-1.701c.675 0 1.124.369 1.26.981h.773c-.189-1.008-.9-1.638-2.025-1.638-1.331 0-2.24.954-2.24 2.358 0 1.431.881 2.34 2.222 2.34zm4.913 0c1.117 0 1.864-.63 2.044-1.62h-.783c-.145.585-.595.963-1.252.963-.882 0-1.476-.684-1.476-1.683s.594-1.701 1.477-1.701c.675 0 1.125.369 1.26.981h.773c-.188-1.008-.9-1.638-2.024-1.638-1.332 0-2.241.954-2.241 2.358 0 1.431.882 2.34 2.223 2.34zm4.968 0c1.34 0 2.277-.954 2.277-2.349 0-1.395-.936-2.349-2.277-2.349-1.341 0-2.277.954-2.277 2.349 0 1.395.936 2.349 2.277 2.349zm0-.657c-.91 0-1.521-.711-1.521-1.692s.612-1.692 1.52-1.692c.91 0 1.522.711 1.522 1.692s-.612 1.692-1.521 1.692zm6.336-1.692c0 1.035-.504 1.674-1.341 1.674-.765 0-1.197-.504-1.197-1.458V9.41h-.738v2.556c0 1.521.8 2.088 1.809 2.088.756 0 1.197-.324 1.467-.666l.099.612h.639V9.41h-.738v2.295zm3.994-2.349c-.774 0-1.242.324-1.512.675l-.1-.621h-.638V14h.738v-2.295c0-1.035.522-1.674 1.386-1.674.8 0 1.242.504 1.242 1.458V14h.738v-2.556c0-1.521-.82-2.088-1.854-2.088zm3.137 3.447c0 .81.315 1.197 1.197 1.197h.8v-.675h-.728c-.396 0-.531-.144-.531-.531v-2.709h1.188V9.41h-1.188V8.123h-.738V9.41h-.828v.675h.828v2.718z" fill="#fff"/></svg>