<svg width="300" height="46" viewBox="0 0 300 46" fill="none" xmlns="http://www.w3.org/2000/svg"><path fill="#fff" d="M0 0h300v46H0z"/><path d="M5.605 15H6.87l1.892-6.644V7.3h-3.63v1.1h2.442L5.605 15zm4.779 0h1.21V7.3h-.814c-.275.748-.638.968-1.661.968v.858h1.265V15zm2.233 0h1.21v-1.21h-1.21V15zm3.907.11c1.188 0 1.837-.704 1.837-1.936v-1.375c0-1.133-.45-1.76-1.342-1.76-.506 0-.88.22-1.122.671V9.236c0-.737.242-.946.671-.946.385 0 .627.209.627.759v.22h1.144v-.143c0-1.232-.616-1.936-1.804-1.936-1.254 0-1.848.704-1.848 2.002v3.982c0 1.232.65 1.936 1.837 1.936zm0-1.1c-.418 0-.627-.242-.627-.748v-1.364c0-.517.21-.759.627-.759.418 0 .627.242.627.759v1.364c0 .506-.209.748-.627.748zm3.516-2.431c.759 0 1.166-.44 1.166-1.232V8.422c0-.792-.407-1.232-1.166-1.232-.76 0-1.166.44-1.166 1.232v1.925c0 .792.407 1.232 1.166 1.232zM19.853 15h.77l2.98-7.7h-.77l-2.98 7.7zm.187-4.114c-.253 0-.396-.143-.396-.484V8.367c0-.341.143-.484.396-.484.242 0 .396.143.396.484v2.035c0 .341-.154.484-.396.484zm3.377 4.224c.759 0 1.166-.44 1.166-1.232v-1.925c0-.792-.407-1.232-1.166-1.232-.76 0-1.166.44-1.166 1.232v1.925c0 .792.407 1.232 1.166 1.232zm0-.693c-.253 0-.396-.143-.396-.484v-2.035c0-.341.143-.484.396-.484.242 0 .396.143.396.484v2.035c0 .341-.154.484-.396.484zm5.21.693c1.1 0 1.716-.66 1.716-1.826v-2.178c0-1.166-.616-1.826-1.716-1.826s-1.716.66-1.716 1.826v2.178c0 1.166.616 1.826 1.716 1.826zm0-1.034c-.418 0-.55-.286-.55-.682v-2.398c0-.385.121-.682.55-.682.43 0 .55.297.55.682v2.398c0 .396-.132.682-.55.682zm4.456-5.852c.12 0 .253.022.396.066V7.3a1.69 1.69 0 00-.638-.11c-.924 0-1.375.451-1.375 1.364v.836h-.638v.99h.638V15h1.166v-4.62h.847v-.99h-.847v-.682c0-.352.12-.484.45-.484zM37.93 9.28c-.572 0-.935.352-1.089 1.056l-.022-.946h-1.012V15h1.166v-3.234c0-.869.341-1.32.99-1.32.1 0 .21.011.297.033V9.346a.703.703 0 00-.33-.066zm2.47 0c-1.122 0-1.727.66-1.727 1.826v2.178c0 1.166.605 1.826 1.727 1.826s1.727-.66 1.727-1.826v-.099h-1.122v.209c0 .495-.209.682-.583.682-.385 0-.583-.187-.583-.682v-.946h2.288v-1.342c0-1.166-.605-1.826-1.727-1.826zm-.561 2.244v-.528c0-.495.209-.682.572-.682s.572.187.572.682v.528H39.84zm5.39-1.144v-.99h-.847V7.872h-1l-.11 1.518h-.694v.99h.638v3.366c0 .913.451 1.364 1.375 1.364.242 0 .44-.033.638-.11v-.99a1.354 1.354 0 01-.396.066c-.33 0-.45-.132-.45-.484V10.38h.846zM49.218 15c-.077-.319-.132-.825-.132-1.617v-2.255c0-1.232-.462-1.848-1.628-1.848-1.078 0-1.64.627-1.64 1.716v.143h1.1v-.209c0-.418.166-.649.529-.649.33 0 .473.187.473.638v.11c0 .308-.11.407-.913.803-.99.484-1.353.99-1.353 1.87 0 .869.473 1.408 1.22 1.408.562 0 .98-.275 1.189-.77.01.352.055.594.088.66h1.067zm-1.903-.891c-.33 0-.495-.209-.495-.605 0-.363.176-.649.528-.869.308-.198.484-.308.572-.418v.957c0 .616-.21.935-.605.935zm2.662-5.412h1.166V7.421h-1.166v1.276zm0 6.303h1.166V9.39h-1.166V15zm2.074 0h1.166V7.3H52.05V15zm3.835-6.303h1.166V7.421h-1.166v1.276zm0 6.303h1.166V9.39h-1.166V15zm4.229-5.72c-.517 0-.924.275-1.122.759l-.022-.649h-1.012V15h1.166v-3.784c0-.671.264-.902.594-.902.352 0 .484.253.484.737V15h1.166v-4.081c0-1.155-.473-1.639-1.254-1.639zM63.037 15h1.43L65.6 9.39h-1.088l-.705 4.037-.715-4.037h-1.188L63.038 15zm4.735-5.72c-1.122 0-1.727.66-1.727 1.826v2.178c0 1.166.605 1.826 1.727 1.826s1.727-.66 1.727-1.826v-.099h-1.122v.209c0 .495-.209.682-.583.682-.385 0-.583-.187-.583-.682v-.946H69.5v-1.342c0-1.166-.605-1.826-1.727-1.826zm-.56 2.244v-.528c0-.495.208-.682.571-.682s.572.187.572.682v.528h-1.144zm4.531 3.586c1.067 0 1.606-.638 1.606-1.628 0-1.001-.66-1.386-1.254-1.716-.462-.253-.858-.495-.858-.957 0-.385.21-.528.451-.528.286 0 .462.154.462.605v.154h1.1v-.121c0-1.023-.616-1.639-1.573-1.639-1.034 0-1.573.616-1.573 1.551 0 1.056.682 1.441 1.276 1.782.44.253.814.473.814.891 0 .44-.209.605-.506.605-.297 0-.517-.176-.517-.682v-.209H70.05v.176c0 1.078.616 1.716 1.694 1.716zm4.575-4.73v-.99h-.847V7.872h-1l-.11 1.518h-.694v.99h.638v3.366c0 .913.451 1.364 1.375 1.364.242 0 .44-.033.638-.11v-.99a1.354 1.354 0 01-.396.066c-.33 0-.45-.132-.45-.484V10.38h.846zm2.25 4.73c1.1 0 1.716-.66 1.716-1.826v-2.178c0-1.166-.616-1.826-1.716-1.826s-1.716.66-1.716 1.826v2.178c0 1.166.616 1.826 1.716 1.826zm0-1.034c-.418 0-.55-.286-.55-.682v-2.398c0-.385.12-.682.55-.682.429 0 .55.297.55.682v2.398c0 .396-.132.682-.55.682zm4.631-4.796c-.572 0-.935.352-1.089 1.056l-.022-.946h-1.012V15h1.166v-3.234c0-.869.341-1.32.99-1.32.099 0 .209.011.297.033V9.346a.703.703 0 00-.33-.066zM89.168 15c-.077-.319-.132-.825-.132-1.617v-2.255c0-1.232-.462-1.848-1.628-1.848-1.078 0-1.64.627-1.64 1.716v.143h1.1v-.209c0-.418.166-.649.529-.649.33 0 .473.187.473.638v.11c0 .308-.11.407-.913.803-.99.484-1.353.99-1.353 1.87 0 .869.473 1.408 1.22 1.408.562 0 .98-.275 1.189-.77.01.352.055.594.088.66h1.067zm-1.903-.891c-.33 0-.495-.209-.495-.605 0-.363.176-.649.528-.869.308-.198.484-.308.572-.418v.957c0 .616-.21.935-.605.935zm4.258 1.001c1.122 0 1.66-.704 1.66-1.804v-.451h-1.121v.561c0 .418-.143.66-.54.66-.395 0-.538-.242-.538-.66v-2.442c0-.418.143-.66.539-.66s.539.242.539.66v.451h1.122v-.341c0-1.1-.54-1.804-1.661-1.804-1.111 0-1.705.66-1.705 1.804v2.222c0 1.144.594 1.804 1.705 1.804zm4.006 0c1.122 0 1.661-.704 1.661-1.804v-.451h-1.122v.561c0 .418-.143.66-.539.66s-.539-.242-.539-.66v-2.442c0-.418.143-.66.54-.66.395 0 .538.242.538.66v.451h1.122v-.341c0-1.1-.539-1.804-1.66-1.804-1.112 0-1.706.66-1.706 1.804v2.222c0 1.144.594 1.804 1.705 1.804zm4.018 0c1.1 0 1.716-.66 1.716-1.826v-2.178c0-1.166-.616-1.826-1.716-1.826s-1.716.66-1.716 1.826v2.178c0 1.166.616 1.826 1.716 1.826zm0-1.034c-.418 0-.55-.286-.55-.682v-2.398c0-.385.121-.682.55-.682.43 0 .55.297.55.682v2.398c0 .396-.132.682-.55.682zm4.719-4.686v3.784c0 .671-.264.902-.594.902-.352 0-.484-.253-.484-.737V9.39h-1.166v4.081c0 1.155.473 1.639 1.254 1.639.517 0 .924-.275 1.122-.759l.022.649h1.012V9.39h-1.166zm4.221-.11c-.517 0-.924.275-1.122.759l-.022-.649h-1.012V15h1.166v-3.784c0-.671.264-.902.594-.902.352 0 .484.253.484.737V15h1.166v-4.081c0-1.155-.473-1.639-1.254-1.639zm4.451 1.1v-.99h-.847V7.872h-1.001l-.11 1.518h-.693v.99h.638v3.366c0 .913.451 1.364 1.375 1.364.242 0 .44-.033.638-.11v-.99a1.354 1.354 0 01-.396.066c-.33 0-.451-.132-.451-.484V10.38h.847zm2.129 4.73c1.067 0 1.606-.638 1.606-1.628 0-1.001-.66-1.386-1.254-1.716-.462-.253-.858-.495-.858-.957 0-.385.209-.528.451-.528.286 0 .462.154.462.605v.154h1.1v-.121c0-1.023-.616-1.639-1.573-1.639-1.034 0-1.573.616-1.573 1.551 0 1.056.682 1.441 1.276 1.782.44.253.814.473.814.891 0 .44-.209.605-.506.605-.297 0-.517-.176-.517-.682v-.209h-1.122v.176c0 1.078.616 1.716 1.694 1.716zm4.047-.11h1.166V7.3h-1.166V15zm3.679.11c1.1 0 1.716-.66 1.716-1.826v-2.178c0-1.166-.616-1.826-1.716-1.826s-1.716.66-1.716 1.826v2.178c0 1.166.616 1.826 1.716 1.826zm0-1.034c-.418 0-.55-.286-.55-.682v-2.398c0-.385.121-.682.55-.682.429 0 .55.297.55.682v2.398c0 .396-.132.682-.55.682zm3.983 1.034c1.067 0 1.606-.638 1.606-1.628 0-1.001-.66-1.386-1.254-1.716-.462-.253-.858-.495-.858-.957 0-.385.209-.528.451-.528.286 0 .462.154.462.605v.154h1.1v-.121c0-1.023-.616-1.639-1.573-1.639-1.034 0-1.573.616-1.573 1.551 0 1.056.682 1.441 1.276 1.782.44.253.814.473.814.891 0 .44-.209.605-.506.605-.297 0-.517-.176-.517-.682v-.209h-1.122v.176c0 1.078.616 1.716 1.694 1.716zm3.902-5.83c-1.122 0-1.727.66-1.727 1.826v2.178c0 1.166.605 1.826 1.727 1.826s1.727-.66 1.727-1.826v-.099h-1.122v.209c0 .495-.209.682-.583.682-.385 0-.583-.187-.583-.682v-.946h2.288v-1.342c0-1.166-.605-1.826-1.727-1.826zm-.561 2.244v-.528c0-.495.209-.682.572-.682s.572.187.572.682v.528h-1.144zm9.176-2.244c-.495 0-.902.275-1.1.748-.198-.517-.583-.748-1.122-.748-.506 0-.902.275-1.1.759l-.022-.649h-1.012V15h1.166v-3.784c0-.66.253-.902.583-.902.374 0 .473.297.473.682V15h1.166v-3.784c0-.66.253-.902.583-.902.374 0 .473.297.473.682V15h1.166v-4.081c0-1.144-.473-1.639-1.254-1.639zm3.728 5.83c1.1 0 1.716-.66 1.716-1.826v-2.178c0-1.166-.616-1.826-1.716-1.826s-1.716.66-1.716 1.826v2.178c0 1.166.616 1.826 1.716 1.826zm0-1.034c-.418 0-.55-.286-.55-.682v-2.398c0-.385.121-.682.55-.682.429 0 .55.297.55.682v2.398c0 .396-.132.682-.55.682zm4.664-4.796c-.517 0-.924.275-1.122.759l-.022-.649h-1.012V15h1.166v-3.784c0-.671.264-.902.594-.902.352 0 .484.253.484.737V15h1.166v-4.081c0-1.155-.473-1.639-1.254-1.639zm3.737 0c-1.122 0-1.727.66-1.727 1.826v2.178c0 1.166.605 1.826 1.727 1.826s1.727-.66 1.727-1.826v-.099h-1.122v.209c0 .495-.209.682-.583.682-.385 0-.583-.187-.583-.682v-.946h2.288v-1.342c0-1.166-.605-1.826-1.727-1.826zm-.561 2.244v-.528c0-.495.209-.682.572-.682s.572.187.572.682v.528h-1.144zm3.63 5.291c.902 0 1.342-.374 1.54-1.331l1.243-6.094h-1.089l-.671 3.861-.748-3.861h-1.188l1.353 5.841-.022.077c-.077.363-.22.473-.616.473-.154 0-.297-.022-.429-.066v.99c.198.088.418.11.627.11zM160.173 15h1.485l.528-3.454.528 3.454h1.408l.847-5.61h-1.034l-.594 4.037-.55-4.037h-1.177l-.55 4.037-.594-4.037h-1.144l.847 5.61zm7.557-5.72c-.418 0-.77.176-.99.506V7.3h-1.166V15h1.166v-3.784c0-.671.264-.902.594-.902.352 0 .484.253.484.737V15h1.166v-4.081c0-1.155-.473-1.639-1.254-1.639zm3.736 0c-1.122 0-1.727.66-1.727 1.826v2.178c0 1.166.605 1.826 1.727 1.826s1.727-.66 1.727-1.826v-.099h-1.122v.209c0 .495-.209.682-.583.682-.385 0-.583-.187-.583-.682v-.946h2.288v-1.342c0-1.166-.605-1.826-1.727-1.826zm-.561 2.244v-.528c0-.495.209-.682.572-.682s.572.187.572.682v.528h-1.144zm5.215-2.244c-.517 0-.924.275-1.122.759l-.022-.649h-1.012V15h1.166v-3.784c0-.671.264-.902.594-.902.352 0 .484.253.484.737V15h1.166v-4.081c0-1.155-.473-1.639-1.254-1.639zm6.213 1.1v-.99h-.847V7.872h-1.001l-.11 1.518h-.693v.99h.638v3.366c0 .913.451 1.364 1.375 1.364.242 0 .44-.033.638-.11v-.99a1.354 1.354 0 01-.396.066c-.33 0-.451-.132-.451-.484V10.38h.847zm2.777-1.1c-.572 0-.935.352-1.089 1.056l-.022-.946h-1.012V15h1.166v-3.234c0-.869.341-1.32.99-1.32.099 0 .209.011.297.033V9.346a.703.703 0 00-.33-.066zm4.143 5.72c-.077-.319-.132-.825-.132-1.617v-2.255c0-1.232-.462-1.848-1.628-1.848-1.078 0-1.639.627-1.639 1.716v.143h1.1v-.209c0-.418.165-.649.528-.649.33 0 .473.187.473.638v.11c0 .308-.11.407-.913.803-.99.484-1.353.99-1.353 1.87 0 .869.473 1.408 1.221 1.408.561 0 .979-.275 1.188-.77.011.352.055.594.088.66h1.067zm-1.903-.891c-.33 0-.495-.209-.495-.605 0-.363.176-.649.528-.869.308-.198.484-.308.572-.418v.957c0 .616-.209.935-.605.935zm6.15.891c-.077-.319-.132-.825-.132-1.617V7.3h-1.166v2.497a1.187 1.187 0 00-1.001-.517c-.77 0-1.265.484-1.265 1.639v2.552c0 1.155.495 1.639 1.265 1.639.517 0 .935-.286 1.133-.77.022.352.066.594.099.66h1.067zm-1.903-.924c-.385 0-.495-.297-.495-.682v-2.398c0-.385.11-.682.495-.682.33 0 .605.242.605.902v1.958c0 .66-.275.902-.605.902zm2.669-5.379h1.166V7.421h-1.166v1.276zm0 6.303h1.166V9.39h-1.166V15zm4.23-5.72c-.517 0-.924.275-1.122.759l-.022-.649h-1.012V15h1.166v-3.784c0-.671.264-.902.594-.902.352 0 .484.253.484.737V15h1.166v-4.081c0-1.155-.473-1.639-1.254-1.639zm4.44.11l-.022.66c-.198-.484-.616-.77-1.122-.77-.781 0-1.276.484-1.276 1.639v2.277c0 1.155.495 1.639 1.276 1.639.418 0 .759-.187.99-.517v.847c0 .495-.187.693-.583.693-.363 0-.528-.198-.528-.495v-.088h-1.122v.033c0 .968.561 1.507 1.672 1.507 1.309 0 1.727-.66 1.727-1.738V9.39h-1.012zm-.759 4.411c-.385 0-.495-.297-.495-.682v-2.123c0-.385.11-.682.495-.682.33 0 .605.242.605.902v1.683c0 .66-.275.902-.605.902zm6.126 1.309c1.166 0 1.782-.704 1.782-1.892v-1.034h-1.144v1.122c0 .506-.242.704-.605.704s-.605-.198-.605-.704V9.005c0-.506.242-.715.605-.715s.605.209.605.715v.891h1.144v-.814c0-1.188-.616-1.892-1.782-1.892s-1.782.704-1.782 1.892v4.136c0 1.188.616 1.892 1.782 1.892zm2.496-.11h1.21v-3.355h1.562v-1.1h-1.562V8.4H214V7.3h-3.201V15zm3.781 0h1.848c1.21 0 1.804-.671 1.804-1.903V9.203c0-1.232-.594-1.903-1.804-1.903h-1.848V15zm1.21-1.1V8.4h.616c.385 0 .616.198.616.748v4.004c0 .55-.231.748-.616.748h-.616zm4.786 1.21c1.067 0 1.606-.638 1.606-1.628 0-1.001-.66-1.386-1.254-1.716-.462-.253-.858-.495-.858-.957 0-.385.209-.528.451-.528.286 0 .462.154.462.605v.154h1.1v-.121c0-1.023-.616-1.639-1.573-1.639-1.034 0-1.573.616-1.573 1.551 0 1.056.682 1.441 1.276 1.782.44.253.814.473.814.891 0 .44-.209.605-.506.605-.297 0-.517-.176-.517-.682v-.209h-1.122v.176c0 1.078.616 1.716 1.694 1.716zm4.598-.11h1.485l.528-3.454.528 3.454h1.408l.847-5.61h-1.034l-.594 4.037-.55-4.037h-1.177l-.55 4.037-.594-4.037h-1.144l.847 5.61zm5.401-6.303h1.166V7.421h-1.166v1.276zm0 6.303h1.166V9.39h-1.166V15zm4.405-4.62v-.99h-.847V7.872h-1.001l-.11 1.518h-.693v.99h.638v3.366c0 .913.451 1.364 1.375 1.364.242 0 .44-.033.638-.11v-.99a1.354 1.354 0 01-.396.066c-.33 0-.451-.132-.451-.484V10.38h.847zm2.811-1.1c-.418 0-.77.176-.99.506V7.3h-1.166V15h1.166v-3.784c0-.671.264-.902.594-.902.352 0 .484.253.484.737V15h1.166v-4.081c0-1.155-.473-1.639-1.254-1.639zm6.213 1.1v-.99h-.847V7.872h-1.001l-.11 1.518h-.693v.99h.638v3.366c0 .913.451 1.364 1.375 1.364.242 0 .44-.033.638-.11v-.99a1.354 1.354 0 01-.396.066c-.33 0-.451-.132-.451-.484V10.38h.847zm2.81-1.1c-.418 0-.77.176-.99.506V7.3h-1.166V15h1.166v-3.784c0-.671.264-.902.594-.902.352 0 .484.253.484.737V15h1.166v-4.081c0-1.155-.473-1.639-1.254-1.639zm2.119-.583h1.166V7.421h-1.166v1.276zm0 6.303h1.166V9.39h-1.166V15zm3.548.11c1.067 0 1.606-.638 1.606-1.628 0-1.001-.66-1.386-1.254-1.716-.462-.253-.858-.495-.858-.957 0-.385.209-.528.451-.528.286 0 .462.154.462.605v.154h1.1v-.121c0-1.023-.616-1.639-1.573-1.639-1.034 0-1.573.616-1.573 1.551 0 1.056.682 1.441 1.276 1.782.44.253.814.473.814.891 0 .44-.209.605-.506.605-.297 0-.517-.176-.517-.682v-.209h-1.122v.176c0 1.078.616 1.716 1.694 1.716zm6.203-5.83c-.506 0-.924.286-1.122.77l-.022-.66h-1.012v7.315h1.166v-2.112c.231.33.572.517.99.517.781 0 1.276-.484 1.276-1.639v-2.552c0-1.155-.495-1.639-1.276-1.639zm.11 4.114c0 .385-.11.682-.495.682-.33 0-.605-.242-.605-.902v-1.958c0-.66.275-.902.605-.902.385 0 .495.297.495.682v2.398zm4.111-4.114c-.572 0-.935.352-1.089 1.056l-.022-.946h-1.012V15h1.166v-3.234c0-.869.341-1.32.99-1.32.099 0 .209.011.297.033V9.346a.703.703 0 00-.33-.066zm2.459 5.83c1.1 0 1.716-.66 1.716-1.826v-2.178c0-1.166-.616-1.826-1.716-1.826s-1.716.66-1.716 1.826v2.178c0 1.166.616 1.826 1.716 1.826zm0-1.034c-.418 0-.55-.286-.55-.682v-2.398c0-.385.121-.682.55-.682.429 0 .55.297.55.682v2.398c0 .396-.132.682-.55.682zm3.29.924h1.43l1.133-5.61h-1.089l-.704 4.037-.715-4.037h-1.188l1.133 5.61zm3.15-6.303h1.166V7.421h-1.166v1.276zm0 6.303h1.166V9.39h-1.166V15zm5.56 0c-.077-.319-.132-.825-.132-1.617V7.3h-1.166v2.497a1.187 1.187 0 00-1.001-.517c-.77 0-1.265.484-1.265 1.639v2.552c0 1.155.495 1.639 1.265 1.639.517 0 .935-.286 1.133-.77.022.352.066.594.099.66h1.067zm-1.903-.924c-.385 0-.495-.297-.495-.682v-2.398c0-.385.11-.682.495-.682.33 0 .605.242.605.902v1.958c0 .66-.275.902-.605.902zm4.287-4.796c-1.122 0-1.727.66-1.727 1.826v2.178c0 1.166.605 1.826 1.727 1.826s1.727-.66 1.727-1.826v-.099h-1.122v.209c0 .495-.209.682-.583.682-.385 0-.583-.187-.583-.682v-.946h2.288v-1.342c0-1.166-.605-1.826-1.727-1.826zm-.561 2.244v-.528c0-.495.209-.682.572-.682s.572.187.572.682v.528h-1.144zm5.181-2.244c-.572 0-.935.352-1.089 1.056l-.022-.946h-1.012V15h1.166v-3.234c0-.869.341-1.32.99-1.32.099 0 .209.011.297.033V9.346a.703.703 0 00-.33-.066zm.037 5.72h1.21v-1.21h-1.21V15zM6.716 27h.858v-3.377L9.125 19.3h-.847l-1.1 3.212-1.1-3.212h-.913l1.551 4.323V27zm4.047.11c1.045 0 1.628-.649 1.628-1.793v-2.178c0-1.144-.583-1.782-1.628-1.782-1.056 0-1.628.638-1.628 1.782v2.178c0 1.144.572 1.793 1.628 1.793zm0-.737c-.572 0-.803-.374-.803-.979v-2.332c0-.594.23-.968.803-.968.572 0 .792.374.792.968v2.332c0 .605-.231.979-.792.979zm4.918-4.906v3.674c0 .825-.374 1.232-.87 1.232-.483 0-.692-.33-.692-.968v-3.938h-.836v4.037c0 1.111.462 1.606 1.276 1.606.56 0 1-.308 1.22-.847l.012.737h.715v-5.533h-.825zm5.047 5.643c.99 0 1.54-.594 1.54-1.54 0-.99-.682-1.353-1.298-1.672-.528-.264-.99-.517-.99-1.078 0-.506.32-.748.704-.748.418 0 .704.242.704.803v.132h.781v-.11c0-.968-.594-1.54-1.496-1.54-.946 0-1.496.572-1.496 1.474 0 1.023.693 1.375 1.31 1.705.505.253.956.506.956 1.045 0 .561-.308.803-.759.803-.45 0-.759-.253-.759-.847v-.209h-.803v.187c0 1.001.594 1.595 1.606 1.595zm4.3-5.753c-.495 0-.88.231-1.122.638V19.3h-.825V27h.825v-3.674c0-.825.374-1.232.869-1.232.484 0 .693.33.693.968V27h.836v-4.048c0-1.1-.462-1.595-1.276-1.595zm3.803 5.753c1.045 0 1.628-.649 1.628-1.793v-2.178c0-1.144-.583-1.782-1.628-1.782-1.056 0-1.628.638-1.628 1.782v2.178c0 1.144.572 1.793 1.628 1.793zm0-.737c-.572 0-.803-.374-.803-.979v-2.332c0-.594.231-.968.803-.968.572 0 .792.374.792.968v2.332c0 .605-.23.979-.792.979zm4.918-4.906v3.674c0 .825-.374 1.232-.869 1.232-.484 0-.693-.33-.693-.968v-3.938h-.836v4.037c0 1.111.462 1.606 1.276 1.606.561 0 1.001-.308 1.221-.847l.011.737h.715v-5.533h-.825zM35.628 27h.825v-7.7h-.825V27zm5.169 0c-.078-.319-.121-.803-.121-1.507V19.3h-.826v2.717a1.282 1.282 0 00-1.144-.66c-.803 0-1.287.495-1.287 1.595v2.552c0 1.1.485 1.606 1.288 1.606.572 0 1.011-.319 1.242-.858.012.363.044.627.089.748h.759zm-1.837-.627c-.507 0-.705-.363-.705-.935v-2.42c0-.561.198-.924.704-.924s.891.418.891 1.232v1.815c0 .814-.385 1.232-.89 1.232zm6.07.737c1.067 0 1.584-.671 1.584-1.771v-.352h-.803v.429c0 .616-.23.957-.78.957s-.782-.341-.782-.957V23.04c0-.616.231-.946.781-.946s.781.33.781.946v.319h.803v-.242c0-1.1-.517-1.76-1.584-1.76-1.056 0-1.617.627-1.617 1.76v2.222c0 1.133.561 1.771 1.617 1.771zm3.986 0c1.045 0 1.628-.649 1.628-1.793v-2.178c0-1.144-.583-1.782-1.628-1.782-1.056 0-1.628.638-1.628 1.782v2.178c0 1.144.572 1.793 1.628 1.793zm0-.737c-.572 0-.803-.374-.803-.979v-2.332c0-.594.23-.968.803-.968.572 0 .792.374.792.968v2.332c0 .605-.231.979-.792.979zm4.51-5.016c-.56 0-1 .308-1.22.836l-.011-.726h-.715V27h.825v-3.674c0-.825.374-1.232.869-1.232.484 0 .693.33.693.968V27h.836v-4.048c0-1.1-.462-1.595-1.276-1.595zm3.661 5.753c.99 0 1.54-.594 1.54-1.54 0-.99-.682-1.353-1.298-1.672-.528-.264-.99-.517-.99-1.078 0-.506.32-.748.704-.748.418 0 .704.242.704.803v.132h.781v-.11c0-.968-.594-1.54-1.496-1.54-.946 0-1.496.572-1.496 1.474 0 1.023.693 1.375 1.31 1.705.505.253.956.506.956 1.045 0 .561-.308.803-.759.803-.45 0-.759-.253-.759-.847v-.209h-.803v.187c0 1.001.594 1.595 1.606 1.595zm2.353-6.435h.825v-1.188h-.825v1.188zm0 6.325h.825v-5.533h-.825V27zm5.169 0c-.077-.319-.121-.803-.121-1.507V19.3h-.825v2.717a1.282 1.282 0 00-1.144-.66c-.803 0-1.287.495-1.287 1.595v2.552c0 1.1.484 1.606 1.287 1.606.572 0 1.012-.319 1.243-.858.01.363.044.627.088.748h.759zm-1.837-.627c-.506 0-.704-.363-.704-.935v-2.42c0-.561.198-.924.704-.924s.89.418.89 1.232v1.815c0 .814-.384 1.232-.89 1.232zm4.298-5.016c-1.067 0-1.639.638-1.639 1.782v2.178c0 1.144.572 1.793 1.64 1.793 1.055 0 1.638-.649 1.638-1.793v-.088h-.803v.165c0 .671-.286.979-.825.979-.539 0-.814-.308-.814-.979V24.36h2.442v-1.221c0-1.144-.583-1.782-1.639-1.782zm-.803 2.321v-.616c0-.66.275-.968.803-.968s.825.308.825.968v.616h-1.628zm5.227-2.321c-.583 0-.968.33-1.155 1.023l-.011-.913h-.715V27h.825v-3.223c0-1.067.363-1.595 1.078-1.595.12 0 .23.011.34.055v-.814a.766.766 0 00-.362-.066zM75.056 27h1.067l.726-3.993.726 3.993h1.012l.957-5.533h-.748l-.77 4.389-.737-4.389h-.87l-.736 4.389-.77-4.389h-.814L75.056 27zm7.174-5.643c-.495 0-.88.231-1.122.638V19.3h-.825V27h.825v-3.674c0-.825.374-1.232.869-1.232.484 0 .693.33.693.968V27h.836v-4.048c0-1.1-.462-1.595-1.276-1.595zm3.814 0c-1.067 0-1.639.638-1.639 1.782v2.178c0 1.144.572 1.793 1.64 1.793 1.055 0 1.638-.649 1.638-1.793v-.088h-.803v.165c0 .671-.286.979-.825.979-.539 0-.814-.308-.814-.979V24.36h2.442v-1.221c0-1.144-.583-1.782-1.639-1.782zm-.803 2.321v-.616c0-.66.275-.968.803-.968s.825.308.825.968v.616h-1.628zm5.513-1.507v-.704h-1.001v-1.595h-.715l-.088 1.595h-.715v.704h.682v3.674c0 .847.396 1.265 1.22 1.265.243 0 .419-.022.617-.11v-.715a1.222 1.222 0 01-.462.088c-.396 0-.54-.176-.54-.616v-3.586h1.002zm2.69-.814c-.494 0-.88.231-1.121.638V19.3h-.825V27h.825v-3.674c0-.825.374-1.232.869-1.232.484 0 .693.33.693.968V27h.836v-4.048c0-1.1-.462-1.595-1.276-1.595zm3.815 0c-1.067 0-1.639.638-1.639 1.782v2.178c0 1.144.572 1.793 1.64 1.793 1.055 0 1.638-.649 1.638-1.793v-.088h-.803v.165c0 .671-.286.979-.825.979-.539 0-.814-.308-.814-.979V24.36h2.442v-1.221c0-1.144-.583-1.782-1.639-1.782zm-.803 2.321v-.616c0-.66.275-.968.803-.968s.825.308.825.968v.616h-1.628zm5.226-2.321c-.583 0-.968.33-1.155 1.023l-.011-.913h-.715V27h.825v-3.223c0-1.067.363-1.595 1.078-1.595.121 0 .231.011.341.055v-.814a.766.766 0 00-.363-.066zm3.265 7.458c.759 0 1.133-.33 1.331-1.188l1.397-6.16h-.781l-.902 4.213-.99-4.213h-.847l1.43 5.643-.11.396c-.099.451-.264.572-.649.572a.955.955 0 01-.44-.088v.715c.154.088.363.11.561.11zm4.934-1.705c1.045 0 1.628-.649 1.628-1.793v-2.178c0-1.144-.583-1.782-1.628-1.782-1.056 0-1.628.638-1.628 1.782v2.178c0 1.144.572 1.793 1.628 1.793zm0-.737c-.572 0-.803-.374-.803-.979v-2.332c0-.594.231-.968.803-.968.572 0 .792.374.792.968v2.332c0 .605-.231.979-.792.979zm4.918-4.906v3.674c0 .825-.374 1.232-.869 1.232-.484 0-.693-.33-.693-.968v-3.938h-.836v4.037c0 1.111.462 1.606 1.276 1.606.561 0 1.001-.308 1.221-.847l.011.737h.715v-5.533h-.825zm6.026 0v3.674c0 .825-.374 1.232-.869 1.232-.484 0-.693-.33-.693-.968v-3.938h-.836v4.037c0 1.111.462 1.606 1.276 1.606.561 0 1.001-.308 1.221-.847l.011.737h.715v-5.533h-.825zm3.826-.11c-.561 0-1.001.308-1.221.836l-.011-.726h-.715V27h.825v-3.674c0-.825.374-1.232.869-1.232.484 0 .693.33.693.968V27h.836v-4.048c0-1.1-.462-1.595-1.276-1.595zM130.225 27c-.077-.319-.121-.803-.121-1.507V19.3h-.825v2.717a1.282 1.282 0 00-1.144-.66c-.803 0-1.287.495-1.287 1.595v2.552c0 1.1.484 1.606 1.287 1.606.572 0 1.012-.319 1.243-.858.011.363.044.627.088.748h.759zm-1.837-.627c-.506 0-.704-.363-.704-.935v-2.42c0-.561.198-.924.704-.924s.891.418.891 1.232v1.815c0 .814-.385 1.232-.891 1.232zm4.299-5.016c-1.067 0-1.639.638-1.639 1.782v2.178c0 1.144.572 1.793 1.639 1.793 1.056 0 1.639-.649 1.639-1.793v-.088h-.803v.165c0 .671-.286.979-.825.979-.539 0-.814-.308-.814-.979V24.36h2.442v-1.221c0-1.144-.583-1.782-1.639-1.782zm-.803 2.321v-.616c0-.66.275-.968.803-.968s.825.308.825.968v.616h-1.628zm5.226-2.321c-.583 0-.968.33-1.155 1.023l-.011-.913h-.715V27h.825v-3.223c0-1.067.363-1.595 1.078-1.595.121 0 .231.011.341.055v-.814a.766.766 0 00-.363-.066zm2.362 5.753c.99 0 1.54-.594 1.54-1.54 0-.99-.682-1.353-1.298-1.672-.528-.264-.99-.517-.99-1.078 0-.506.319-.748.704-.748.418 0 .704.242.704.803v.132h.781v-.11c0-.968-.594-1.54-1.496-1.54-.946 0-1.496.572-1.496 1.474 0 1.023.693 1.375 1.309 1.705.506.253.957.506.957 1.045 0 .561-.308.803-.759.803s-.759-.253-.759-.847v-.209h-.803v.187c0 1.001.594 1.595 1.606 1.595zm4.466-4.939v-.704h-1.001v-1.595h-.715l-.088 1.595h-.715v.704h.682v3.674c0 .847.396 1.265 1.221 1.265.242 0 .418-.022.616-.11v-.715a1.222 1.222 0 01-.462.088c-.396 0-.539-.176-.539-.616v-3.586h1.001zM147.806 27c-.077-.319-.121-.814-.121-1.507v-2.464c0-1.1-.473-1.672-1.529-1.672-.99 0-1.562.572-1.562 1.606v.121h.781v-.165c0-.55.286-.847.77-.847.473 0 .715.275.715.825v.132c0 .374-.121.484-1.045.902-1.001.473-1.375.957-1.375 1.815 0 .836.473 1.364 1.232 1.364.616 0 1.067-.308 1.287-.858.022.352.055.638.088.748h.759zm-1.848-.616c-.451 0-.682-.275-.682-.759s.231-.814.781-1.089c.473-.242.693-.374.803-.517v1.111c0 .792-.341 1.254-.902 1.254zm4.71-5.027c-.561 0-1.001.308-1.221.836l-.011-.726h-.715V27h.825v-3.674c0-.825.374-1.232.869-1.232.484 0 .693.33.693.968V27h.836v-4.048c0-1.1-.462-1.595-1.276-1.595zM156.243 27c-.077-.319-.121-.803-.121-1.507V19.3h-.825v2.717a1.282 1.282 0 00-1.144-.66c-.803 0-1.287.495-1.287 1.595v2.552c0 1.1.484 1.606 1.287 1.606.572 0 1.012-.319 1.243-.858.011.363.044.627.088.748h.759zm-1.837-.627c-.506 0-.704-.363-.704-.935v-2.42c0-.561.198-.924.704-.924s.891.418.891 1.232v1.815c0 .814-.385 1.232-.891 1.232zm6.51-5.016c-.495 0-.88.231-1.122.638V19.3h-.825V27h.825v-3.674c0-.825.374-1.232.869-1.232.484 0 .693.33.693.968V27h.836v-4.048c0-1.1-.462-1.595-1.276-1.595zm3.804 5.753c1.045 0 1.628-.649 1.628-1.793v-2.178c0-1.144-.583-1.782-1.628-1.782-1.056 0-1.628.638-1.628 1.782v2.178c0 1.144.572 1.793 1.628 1.793zm0-.737c-.572 0-.803-.374-.803-.979v-2.332c0-.594.231-.968.803-.968.572 0 .792.374.792.968v2.332c0 .605-.231.979-.792.979zm3.213.627H169l.726-3.993.726 3.993h1.012l.957-5.533h-.748l-.77 4.389-.737-4.389h-.869l-.737 4.389-.77-4.389h-.814l.957 5.533zm8.649.11c1.111 0 1.716-.693 1.716-1.837V24.25h-.814v1.078c0 .66-.341 1.001-.88 1.001-.539 0-.88-.341-.88-1.001v-4.356c0-.66.341-1.001.88-1.001.539 0 .88.341.88 1.001v.847h.814v-.792c0-1.155-.605-1.837-1.716-1.837-1.1 0-1.716.682-1.716 1.837v4.246c0 1.144.616 1.837 1.716 1.837zm2.572-.11h.858v-3.52h1.771v-.781h-1.771v-2.618h2.2V19.3h-3.058V27zm3.76 0h1.76c1.188 0 1.738-.627 1.738-1.87v-3.96c0-1.243-.55-1.87-1.738-1.87h-1.76V27zm.858-.781v-6.138h.88c.605 0 .902.286.902 1.045v4.037c0 .759-.297 1.056-.902 1.056h-.88zm5.039.891c.99 0 1.54-.594 1.54-1.54 0-.99-.682-1.353-1.298-1.672-.528-.264-.99-.517-.99-1.078 0-.506.319-.748.704-.748.418 0 .704.242.704.803v.132h.781v-.11c0-.968-.594-1.54-1.496-1.54-.946 0-1.496.572-1.496 1.474 0 1.023.693 1.375 1.309 1.705.506.253.957.506.957 1.045 0 .561-.308.803-.759.803s-.759-.253-.759-.847v-.209h-.803v.187c0 1.001.594 1.595 1.606 1.595zm4.796-.11h1.067l.726-3.993.726 3.993h1.012l.957-5.533h-.748l-.77 4.389-.737-4.389h-.869l-.737 4.389-.77-4.389h-.814l.957 5.533zm6.745.11c1.045 0 1.628-.649 1.628-1.793v-2.178c0-1.144-.583-1.782-1.628-1.782-1.056 0-1.628.638-1.628 1.782v2.178c0 1.144.572 1.793 1.628 1.793zm0-.737c-.572 0-.803-.374-.803-.979v-2.332c0-.594.231-.968.803-.968.572 0 .792.374.792.968v2.332c0 .605-.231.979-.792.979zm4.445-5.016c-.583 0-.968.33-1.155 1.023l-.011-.913h-.715V27h.825v-3.223c0-1.067.363-1.595 1.078-1.595.121 0 .231.011.341.055v-.814a.766.766 0 00-.363-.066zM208.423 27h.902l-1.452-3.454 1.386-2.079h-.891l-1.727 2.695V19.3h-.825V27h.825v-1.672l.66-.979L208.423 27zm6.522 0c-.077-.319-.121-.814-.121-1.507v-2.464c0-1.1-.473-1.672-1.529-1.672-.99 0-1.562.572-1.562 1.606v.121h.781v-.165c0-.55.286-.847.77-.847.473 0 .715.275.715.825v.132c0 .374-.121.484-1.045.902-1.001.473-1.375.957-1.375 1.815 0 .836.473 1.364 1.232 1.364.616 0 1.067-.308 1.287-.858.022.352.055.638.088.748h.759zm-1.848-.616c-.451 0-.682-.275-.682-.759s.231-.814.781-1.089c.473-.242.693-.374.803-.517v1.111c0 .792-.341 1.254-.902 1.254zm4.71-5.027c-.561 0-1.001.308-1.221.836l-.011-.726h-.715V27h.825v-3.674c0-.825.374-1.232.869-1.232.484 0 .693.33.693.968V27h.836v-4.048c0-1.1-.462-1.595-1.276-1.595zM223.381 27c-.077-.319-.121-.803-.121-1.507V19.3h-.825v2.717a1.282 1.282 0 00-1.144-.66c-.803 0-1.287.495-1.287 1.595v2.552c0 1.1.484 1.606 1.287 1.606.572 0 1.012-.319 1.243-.858.011.363.044.627.088.748h.759zm-1.837-.627c-.506 0-.704-.363-.704-.935v-2.42c0-.561.198-.924.704-.924s.891.418.891 1.232v1.815c0 .814-.385 1.232-.891 1.232zm5.213.627h1.067l.726-3.993.726 3.993h1.012l.957-5.533h-.748l-.77 4.389-.737-4.389h-.869l-.737 4.389-.77-4.389h-.814l.957 5.533zm7.174-5.643c-.495 0-.88.231-1.122.638V19.3h-.825V27h.825v-3.674c0-.825.374-1.232.869-1.232.484 0 .693.33.693.968V27h.836v-4.048c0-1.1-.462-1.595-1.276-1.595zm3.814 0c-1.067 0-1.639.638-1.639 1.782v2.178c0 1.144.572 1.793 1.639 1.793 1.056 0 1.639-.649 1.639-1.793v-.088h-.803v.165c0 .671-.286.979-.825.979-.539 0-.814-.308-.814-.979V24.36h2.442v-1.221c0-1.144-.583-1.782-1.639-1.782zm-.803 2.321v-.616c0-.66.275-.968.803-.968s.825.308.825.968v.616h-1.628zm5.513-1.507v-.704h-1.001v-1.595h-.715l-.088 1.595h-.715v.704h.682v3.674c0 .847.396 1.265 1.221 1.265.242 0 .418-.022.616-.11v-.715a1.222 1.222 0 01-.462.088c-.396 0-.539-.176-.539-.616v-3.586h1.001zm2.691-.814c-.495 0-.88.231-1.122.638V19.3h-.825V27h.825v-3.674c0-.825.374-1.232.869-1.232.484 0 .693.33.693.968V27h.836v-4.048c0-1.1-.462-1.595-1.276-1.595zm3.814 0c-1.067 0-1.639.638-1.639 1.782v2.178c0 1.144.572 1.793 1.639 1.793 1.056 0 1.639-.649 1.639-1.793v-.088h-.803v.165c0 .671-.286.979-.825.979-.539 0-.814-.308-.814-.979V24.36h2.442v-1.221c0-1.144-.583-1.782-1.639-1.782zm-.803 2.321v-.616c0-.66.275-.968.803-.968s.825.308.825.968v.616h-1.628zm5.227-2.321c-.583 0-.968.33-1.155 1.023l-.011-.913h-.715V27h.825v-3.223c0-1.067.363-1.595 1.078-1.595.121 0 .231.011.341.055v-.814a.766.766 0 00-.363-.066zm3.264 7.458c.759 0 1.133-.33 1.331-1.188l1.397-6.16h-.781l-.902 4.213-.99-4.213h-.847l1.43 5.643-.11.396c-.099.451-.264.572-.649.572a.955.955 0 01-.44-.088v.715c.154.088.363.11.561.11zm4.934-1.705c1.045 0 1.628-.649 1.628-1.793v-2.178c0-1.144-.583-1.782-1.628-1.782-1.056 0-1.628.638-1.628 1.782v2.178c0 1.144.572 1.793 1.628 1.793zm0-.737c-.572 0-.803-.374-.803-.979v-2.332c0-.594.231-.968.803-.968.572 0 .792.374.792.968v2.332c0 .605-.231.979-.792.979zm4.918-4.906v3.674c0 .825-.374 1.232-.869 1.232-.484 0-.693-.33-.693-.968v-3.938h-.836v4.037c0 1.111.462 1.606 1.276 1.606.561 0 1.001-.308 1.221-.847l.011.737h.715v-5.533h-.825zm5.18 5.643c1.067 0 1.584-.671 1.584-1.771v-.352h-.803v.429c0 .616-.231.957-.781.957s-.781-.341-.781-.957V23.04c0-.616.231-.946.781-.946s.781.33.781.946v.319h.803v-.242c0-1.1-.517-1.76-1.584-1.76-1.056 0-1.617.627-1.617 1.76v2.222c0 1.133.561 1.771 1.617 1.771zm5.57-.11c-.077-.319-.121-.814-.121-1.507v-2.464c0-1.1-.473-1.672-1.529-1.672-.99 0-1.562.572-1.562 1.606v.121h.781v-.165c0-.55.286-.847.77-.847.473 0 .715.275.715.825v.132c0 .374-.121.484-1.045.902-1.001.473-1.375.957-1.375 1.815 0 .836.473 1.364 1.232 1.364.616 0 1.067-.308 1.287-.858.022.352.055.638.088.748h.759zm-1.848-.616c-.451 0-.682-.275-.682-.759s.231-.814.781-1.089c.473-.242.693-.374.803-.517v1.111c0 .792-.341 1.254-.902 1.254zm4.71-5.027c-.561 0-1.001.308-1.221.836l-.011-.726h-.715V27h.825v-3.674c0-.825.374-1.232.869-1.232.484 0 .693.33.693.968V27h.836v-4.048c0-1.1-.462-1.595-1.276-1.595zM8.652 39c-.077-.319-.121-.814-.121-1.507v-2.464c0-1.1-.473-1.672-1.529-1.672-.99 0-1.562.572-1.562 1.606v.121h.781v-.165c0-.55.286-.847.77-.847.473 0 .715.275.715.825v.132c0 .374-.121.484-1.045.902-1.001.473-1.375.957-1.375 1.815 0 .836.473 1.364 1.232 1.364.616 0 1.067-.308 1.287-.858.022.352.055.638.088.748h.759zm-1.848-.616c-.451 0-.682-.275-.682-.759s.231-.814.781-1.089c.473-.242.693-.374.803-.517v1.111c0 .792-.341 1.254-.902 1.254zm4.49-6.457c.154 0 .297.022.462.088V31.3c-.198-.088-.374-.11-.616-.11-.814 0-1.21.418-1.21 1.254v1.023h-.704v.704h.704V39h.825v-4.829h1.001v-.704h-1v-.924c0-.451.153-.616.538-.616zm2.847 0c.154 0 .297.022.462.088V31.3c-.198-.088-.374-.11-.616-.11-.814 0-1.21.418-1.21 1.254v1.023h-.704v.704h.704V39h.825v-4.829h1v-.704h-1v-.924c0-.451.154-.616.539-.616zm2.616 7.183c1.045 0 1.628-.649 1.628-1.793v-2.178c0-1.144-.583-1.782-1.628-1.782-1.056 0-1.628.638-1.628 1.782v2.178c0 1.144.572 1.793 1.628 1.793zm0-.737c-.572 0-.803-.374-.803-.979v-2.332c0-.594.23-.968.803-.968.572 0 .792.374.792.968v2.332c0 .605-.231.979-.792.979zm4.445-5.016c-.583 0-.968.33-1.155 1.023l-.011-.913h-.715V39h.825v-3.223c0-1.067.363-1.595 1.078-1.595.121 0 .231.011.341.055v-.814a.766.766 0 00-.363-.066zM25.457 39c-.077-.319-.121-.803-.121-1.507V31.3h-.825v2.717a1.282 1.282 0 00-1.144-.66c-.803 0-1.287.495-1.287 1.595v2.552c0 1.1.484 1.606 1.287 1.606.572 0 1.012-.319 1.243-.858.01.363.044.627.088.748h.759zm-1.837-.627c-.506 0-.704-.363-.704-.935v-2.42c0-.561.198-.924.704-.924s.89.418.89 1.232v1.815c0 .814-.384 1.232-.89 1.232zm6.73-4.202v-.704h-1v-1.595h-.716l-.088 1.595h-.715v.704h.682v3.674c0 .847.396 1.265 1.221 1.265.242 0 .418-.022.616-.11v-.715a1.222 1.222 0 01-.462.088c-.396 0-.539-.176-.539-.616v-3.586h1.001zm2.252 4.939c1.045 0 1.628-.649 1.628-1.793v-2.178c0-1.144-.583-1.782-1.628-1.782-1.056 0-1.628.638-1.628 1.782v2.178c0 1.144.572 1.793 1.628 1.793zm0-.737c-.572 0-.803-.374-.803-.979v-2.332c0-.594.23-.968.803-.968.572 0 .792.374.792.968v2.332c0 .605-.231.979-.792.979zm6.525-4.202v-.704h-1.001v-1.595h-.715l-.088 1.595h-.715v.704h.682v3.674c0 .847.396 1.265 1.22 1.265.243 0 .419-.022.617-.11v-.715a1.222 1.222 0 01-.462.088c-.396 0-.54-.176-.54-.616v-3.586h1.002zM42.995 39c-.077-.319-.121-.814-.121-1.507v-2.464c0-1.1-.473-1.672-1.53-1.672-.99 0-1.561.572-1.561 1.606v.121h.78v-.165c0-.55.287-.847.77-.847.474 0 .716.275.716.825v.132c0 .374-.121.484-1.045.902-1.001.473-1.375.957-1.375 1.815 0 .836.473 1.364 1.232 1.364.616 0 1.067-.308 1.287-.858.022.352.055.638.088.748h.759zm-1.848-.616c-.451 0-.682-.275-.682-.759s.23-.814.78-1.089c.474-.242.694-.374.804-.517v1.111c0 .792-.341 1.254-.902 1.254zm5.37.616h.902l-1.452-3.454 1.386-2.079h-.891l-1.727 2.695V31.3h-.825V39h.825v-1.672l.66-.979L46.517 39zm3.015-5.643c-1.067 0-1.64.638-1.64 1.782v2.178c0 1.144.573 1.793 1.64 1.793 1.056 0 1.639-.649 1.639-1.793v-.088h-.803v.165c0 .671-.286.979-.825.979-.54 0-.814-.308-.814-.979V36.36h2.442v-1.221c0-1.144-.583-1.782-1.64-1.782zm-.803 2.321v-.616c0-.66.275-.968.803-.968s.825.308.825.968v.616h-1.628zm7.306-1.507v-.704h-1.001v-1.595h-.715l-.088 1.595h-.715v.704h.682v3.674c0 .847.396 1.265 1.22 1.265.243 0 .419-.022.617-.11v-.715a1.222 1.222 0 01-.462.088c-.396 0-.54-.176-.54-.616v-3.586h1.002zm2.691-.814c-.495 0-.88.231-1.122.638V31.3h-.825V39h.825v-3.674c0-.825.374-1.232.869-1.232.484 0 .693.33.693.968V39h.836v-4.048c0-1.1-.462-1.595-1.276-1.595zm3.814 0c-1.067 0-1.639.638-1.639 1.782v2.178c0 1.144.572 1.793 1.64 1.793 1.055 0 1.638-.649 1.638-1.793v-.088h-.803v.165c0 .671-.286.979-.825.979-.539 0-.814-.308-.814-.979V36.36h2.442v-1.221c0-1.144-.583-1.782-1.639-1.782zm-.803 2.321v-.616c0-.66.275-.968.803-.968s.825.308.825.968v.616h-1.628zm7.087-2.321c-.495 0-.88.231-1.122.638V31.3h-.825V39h.825v-3.674c0-.825.374-1.232.869-1.232.484 0 .693.33.693.968V39h.836v-4.048c0-1.1-.462-1.595-1.276-1.595zm2.285-.682h.825v-1.188h-.825v1.188zm0 6.325h.825v-5.533h-.825V39zm4.31-5.533l-.01.737c-.22-.539-.66-.847-1.232-.847-.803 0-1.287.495-1.287 1.595v2.31c0 1.1.484 1.606 1.287 1.606.495 0 .89-.242 1.133-.66v1.012c0 .627-.264.902-.803.902-.517 0-.781-.253-.781-.693v-.077h-.792v.044c0 .913.539 1.419 1.584 1.419 1.188 0 1.617-.605 1.617-1.65v-5.698h-.715zm-.99 4.664c-.516 0-.714-.363-.714-.935v-2.178c0-.561.198-.924.715-.924.495 0 .88.418.88 1.232v1.573c0 .814-.385 1.232-.88 1.232zm4.707-4.774c-.495 0-.88.231-1.122.638V31.3h-.825V39h.825v-3.674c0-.825.374-1.232.87-1.232.483 0 .692.33.692.968V39h.836v-4.048c0-1.1-.462-1.595-1.276-1.595zm5.96 0c-.583 0-.968.33-1.154 1.023l-.011-.913h-.715V39h.825v-3.223c0-1.067.362-1.595 1.078-1.595.12 0 .23.011.34.055v-.814a.766.766 0 00-.362-.066zm1.02-.682h.825v-1.188h-.825v1.188zm0 6.325h.825v-5.533h-.825V39zm3.255.11c.99 0 1.54-.594 1.54-1.54 0-.99-.682-1.353-1.298-1.672-.528-.264-.99-.517-.99-1.078 0-.506.319-.748.704-.748.418 0 .704.242.704.803v.132h.78v-.11c0-.968-.593-1.54-1.495-1.54-.946 0-1.496.572-1.496 1.474 0 1.023.693 1.375 1.309 1.705.506.253.957.506.957 1.045 0 .561-.308.803-.76.803-.45 0-.758-.253-.758-.847v-.209h-.803v.187c0 1.001.594 1.595 1.606 1.595zm4.96-.11h.901l-1.452-3.454 1.386-2.079h-.89l-1.728 2.695V31.3h-.825V39h.825v-1.672l.66-.979L94.33 39zm4.915.11c1.045 0 1.628-.649 1.628-1.793v-2.178c0-1.144-.583-1.782-1.628-1.782-1.056 0-1.628.638-1.628 1.782v2.178c0 1.144.572 1.793 1.628 1.793zm0-.737c-.572 0-.803-.374-.803-.979v-2.332c0-.594.231-.968.803-.968.572 0 .792.374.792.968v2.332c0 .605-.23.979-.792.979zm4.291-6.446c.154 0 .297.022.462.088V31.3c-.198-.088-.374-.11-.616-.11-.814 0-1.21.418-1.21 1.254v1.023h-.704v.704h.704V39h.825v-4.829h1.001v-.704h-1.001v-.924c0-.451.154-.616.539-.616zM106.483 39h.825v-7.7h-.825V39zm3.398.11c1.045 0 1.628-.649 1.628-1.793v-2.178c0-1.144-.583-1.782-1.628-1.782-1.056 0-1.628.638-1.628 1.782v2.178c0 1.144.572 1.793 1.628 1.793zm0-.737c-.572 0-.803-.374-.803-.979v-2.332c0-.594.231-.968.803-.968.572 0 .792.374.792.968v2.332c0 .605-.231.979-.792.979zm3.939.737c.99 0 1.54-.594 1.54-1.54 0-.99-.682-1.353-1.298-1.672-.528-.264-.99-.517-.99-1.078 0-.506.319-.748.704-.748.418 0 .704.242.704.803v.132h.781v-.11c0-.968-.594-1.54-1.496-1.54-.946 0-1.496.572-1.496 1.474 0 1.023.693 1.375 1.309 1.705.506.253.957.506.957 1.045 0 .561-.308.803-.759.803s-.759-.253-.759-.847v-.209h-.803v.187c0 1.001.594 1.595 1.606 1.595zm2.353-6.435h.825v-1.188h-.825v1.188zm0 6.325h.825v-5.533h-.825V39zm3.826-5.643c-.561 0-1.001.308-1.221.836l-.011-.726h-.715V39h.825v-3.674c0-.825.374-1.232.869-1.232.484 0 .693.33.693.968V39h.836v-4.048c0-1.1-.462-1.595-1.276-1.595zm4.717.11l-.011.737c-.22-.539-.66-.847-1.232-.847-.803 0-1.287.495-1.287 1.595v2.31c0 1.1.484 1.606 1.287 1.606.495 0 .891-.242 1.133-.66v1.012c0 .627-.264.902-.803.902-.517 0-.781-.253-.781-.693v-.077h-.792v.044c0 .913.539 1.419 1.584 1.419 1.188 0 1.617-.605 1.617-1.65v-5.698h-.715zm-.99 4.664c-.517 0-.715-.363-.715-.935v-2.178c0-.561.198-.924.715-.924.495 0 .88.418.88 1.232v1.573c0 .814-.385 1.232-.88 1.232zm5.004 2.684c.759 0 1.133-.33 1.331-1.188l1.397-6.16h-.781l-.902 4.213-.99-4.213h-.847l1.43 5.643-.11.396c-.099.451-.264.572-.649.572a.955.955 0 01-.44-.088v.715c.154.088.363.11.561.11zm4.934-1.705c1.045 0 1.628-.649 1.628-1.793v-2.178c0-1.144-.583-1.782-1.628-1.782-1.056 0-1.628.638-1.628 1.782v2.178c0 1.144.572 1.793 1.628 1.793zm0-.737c-.572 0-.803-.374-.803-.979v-2.332c0-.594.231-.968.803-.968.572 0 .792.374.792.968v2.332c0 .605-.231.979-.792.979zm4.918-4.906v3.674c0 .825-.374 1.232-.869 1.232-.484 0-.693-.33-.693-.968v-3.938h-.836v4.037c0 1.111.462 1.606 1.276 1.606.561 0 1.001-.308 1.221-.847l.011.737h.715v-5.533h-.825zm3.76-.11c-.583 0-.968.33-1.155 1.023l-.011-.913h-.715V39h.825v-3.223c0-1.067.363-1.595 1.078-1.595.121 0 .231.011.341.055v-.814a.766.766 0 00-.363-.066zm7.048 0c-.539 0-.957.297-1.177.814-.176-.561-.572-.814-1.144-.814-.55 0-.968.308-1.188.836l-.011-.726h-.715V39h.825v-3.674c0-.814.352-1.232.836-1.232.473 0 .66.341.66.869V39h.836v-3.674c0-.814.352-1.232.836-1.232.473 0 .66.341.66.869V39h.825v-4.092c0-1.067-.462-1.551-1.243-1.551zm3.771 5.753c1.045 0 1.628-.649 1.628-1.793v-2.178c0-1.144-.583-1.782-1.628-1.782-1.056 0-1.628.638-1.628 1.782v2.178c0 1.144.572 1.793 1.628 1.793zm0-.737c-.572 0-.803-.374-.803-.979v-2.332c0-.594.231-.968.803-.968.572 0 .792.374.792.968v2.332c0 .605-.231.979-.792.979zm4.511-5.016c-.561 0-1.001.308-1.221.836l-.011-.726h-.715V39h.825v-3.674c0-.825.374-1.232.869-1.232.484 0 .693.33.693.968V39h.836v-4.048c0-1.1-.462-1.595-1.276-1.595zm3.815 0c-1.067 0-1.639.638-1.639 1.782v2.178c0 1.144.572 1.793 1.639 1.793 1.056 0 1.639-.649 1.639-1.793v-.088h-.803v.165c0 .671-.286.979-.825.979-.539 0-.814-.308-.814-.979V36.36h2.442v-1.221c0-1.144-.583-1.782-1.639-1.782zm-.803 2.321v-.616c0-.66.275-.968.803-.968s.825.308.825.968v.616h-1.628zm3.785 5.137c.759 0 1.133-.33 1.331-1.188l1.397-6.16h-.781l-.902 4.213-.99-4.213h-.847l1.43 5.643-.11.396c-.099.451-.264.572-.649.572a.955.955 0 01-.44-.088v.715c.154.088.363.11.561.11zM167.382 39h.869v-1.111h-.869V39z" fill="#000"/></svg>