<svg width="145" height="10" viewBox="0 0 145 10" fill="none" xmlns="http://www.w3.org/2000/svg"><path d="M3.036 8.5c2.442 0 3.872-1.518 3.872-3.85C6.908 2.307 5.478.8 3.036.8H.792v7.7h2.244zm-1.65-7.15h1.65c2.101 0 3.267 1.276 3.267 3.3 0 2.013-1.166 3.3-3.267 3.3h-1.65v-6.6zm6.994.396c.22 0 .396-.165.396-.396A.388.388 0 008.38.954a.388.388 0 00-.396.396c0 .231.176.396.396.396zM8.094 8.5h.56V2.923h-.56V8.5zm3.497 0h.67l2.179-5.577h-.583l-1.914 4.928-1.925-4.928h-.606L11.59 8.5zm5.842.066c1.22 0 2.156-.792 2.398-1.914h-.572c-.22.869-.957 1.408-1.87 1.408-1.243 0-2.024-.946-2.046-2.244v-.099h4.554c0-.077.01-.165.01-.231-.054-1.661-1.077-2.629-2.573-2.629-1.53 0-2.574 1.166-2.574 2.816 0 1.749 1.089 2.893 2.673 2.893zm-2.046-3.322c.088-1.133.935-1.892 1.958-1.892 1.089 0 1.87.671 1.958 1.892h-3.916zm8.88-3.498c.22 0 .396-.165.396-.396a.388.388 0 00-.396-.396.388.388 0 00-.396.396c0 .231.176.396.396.396zM23.981 8.5h.561V2.923h-.56V8.5zm4.454-5.643c-1.023 0-1.683.528-2.002 1.254l-.088-1.188h-.484V8.5h.561V5.75c0-1.452.737-2.376 1.925-2.376 1.078 0 1.727.704 1.727 2.024V8.5h.561V5.376c0-1.76-.935-2.519-2.2-2.519zm3.86 4.345c0 .891.363 1.298 1.309 1.298h.814v-.517h-.77c-.583 0-.792-.22-.792-.792V3.44h1.507v-.517h-1.507V1.361h-.561v1.562h-1.056v.517h1.056v3.762zm5.268 1.364c1.573 0 2.684-1.166 2.684-2.86 0-1.683-1.11-2.849-2.684-2.849-1.573 0-2.672 1.166-2.672 2.849 0 1.694 1.1 2.86 2.672 2.86zm0-.506c-1.242 0-2.1-.968-2.1-2.354 0-1.375.858-2.354 2.1-2.354 1.243 0 2.101.979 2.101 2.354 0 1.386-.858 2.354-2.1 2.354zm10.097.506c1.54 0 2.453-.847 2.783-1.771l.033 1.705h.517V4.485h-3.102v.55h2.53v.33c0 1.507-1.045 2.651-2.75 2.651-1.727 0-2.871-1.386-2.871-3.366 0-1.969 1.144-3.366 2.926-3.366 1.298 0 2.2.671 2.519 1.881h.638c-.319-1.54-1.518-2.431-3.135-2.431-2.178 0-3.564 1.606-3.564 3.916 0 2.321 1.419 3.916 3.476 3.916zm7.263 0c1.573 0 2.684-1.166 2.684-2.86 0-1.683-1.111-2.849-2.684-2.849-1.573 0-2.673 1.166-2.673 2.849 0 1.694 1.1 2.86 2.673 2.86zm0-.506c-1.243 0-2.101-.968-2.101-2.354 0-1.375.858-2.354 2.1-2.354 1.244 0 2.102.979 2.102 2.354 0 1.386-.858 2.354-2.101 2.354zm3.798.44h.562V.8h-.562v7.7zm6.434-4.323c-.34-.792-1.089-1.32-2.134-1.32-1.529 0-2.629 1.166-2.629 2.849 0 1.76 1.1 2.86 2.63 2.86 1.044 0 1.77-.561 2.122-1.342l.088 1.276h.484V.8h-.56v3.377zm-2.09 3.883c-1.243 0-2.1-.968-2.1-2.354 0-1.375.857-2.354 2.1-2.354s2.101.979 2.101 2.365c0 1.375-.858 2.343-2.1 2.343zm4.202-.33c-.297 0-.484.187-.484.429 0 .264.176.396.385.396.11 0 .22-.044.275-.132a.397.397 0 01.099.286c0 .418-.264.847-.825.869v.33c.759-.033 1.232-.539 1.232-1.265 0-.506-.286-.913-.682-.913zm4.6-1.595c.076 1.452 1.132 2.431 2.86 2.431 1.616 0 2.683-.88 2.683-2.178 0-1.463-1.298-1.837-2.574-2.057-1.177-.198-2.2-.396-2.2-1.496 0-1.001.781-1.562 1.991-1.562 1.155 0 1.947.649 2.08 1.65h.604c-.11-1.32-1.11-2.189-2.684-2.189-1.562 0-2.585.825-2.585 2.134 0 1.463 1.254 1.793 2.486 2.002 1.21.209 2.288.451 2.288 1.573 0 .99-.836 1.584-2.079 1.584-1.298 0-2.178-.748-2.255-1.892h-.616zm7.003-4.389c.22 0 .396-.165.396-.396a.388.388 0 00-.396-.396.388.388 0 00-.396.396c0 .231.176.396.396.396zM78.584 8.5h.56V2.923h-.56V8.5zm1.88 0h.56V.8h-.56v7.7zm3.497 0h.67l2.179-5.577h-.583l-1.914 4.928-1.925-4.928h-.605L83.96 8.5zm5.842.066c1.22 0 2.156-.792 2.398-1.914h-.572c-.22.869-.957 1.408-1.87 1.408-1.243 0-2.024-.946-2.046-2.244v-.099h4.554c0-.077.01-.165.01-.231-.054-1.661-1.077-2.629-2.573-2.629-1.53 0-2.574 1.166-2.574 2.816 0 1.749 1.089 2.893 2.673 2.893zm-2.046-3.322c.088-1.133.935-1.892 1.958-1.892 1.089 0 1.87.671 1.958 1.892h-3.916zm7.907-2.321c-1.034 0-1.474.495-1.705 1.111l-.088-1.111h-.484V8.5h.56V5.673c0-1.133.298-2.211 1.607-2.211h.407v-.539h-.297zm8.999 5.06c-.33 0-.495-.11-.495-.539V4.848c0-1.276-.781-1.991-2.178-1.991-1.276 0-2.123.616-2.266 1.628h.561c.143-.682.737-1.133 1.683-1.133 1.045 0 1.639.55 1.639 1.474v.484h-1.892c-1.43 0-2.2.616-2.2 1.661 0 .99.781 1.595 1.969 1.595 1.133 0 1.804-.517 2.145-1.21v.198c-.022.66.253.946.913.946h.33v-.517h-.209zm-1.056-1.738c0 1.067-.759 1.837-2.079 1.837-.891 0-1.441-.451-1.441-1.144 0-.737.55-1.144 1.584-1.144h1.936v.451zm4.589-3.388c-1.023 0-1.683.528-2.002 1.254l-.088-1.188h-.484V8.5h.561V5.75c0-1.452.737-2.376 1.925-2.376 1.078 0 1.727.704 1.727 2.024V8.5h.561V5.376c0-1.76-.935-2.519-2.2-2.519zm7.91 1.32c-.341-.792-1.089-1.32-2.134-1.32-1.529 0-2.629 1.166-2.629 2.849 0 1.76 1.1 2.86 2.629 2.86 1.045 0 1.771-.561 2.123-1.342l.088 1.276h.484V.8h-.561v3.377zm-2.09 3.883c-1.243 0-2.101-.968-2.101-2.354 0-1.375.858-2.354 2.101-2.354 1.243 0 2.101.979 2.101 2.365 0 1.375-.858 2.343-2.101 2.343zm13.161-5.203c-1.023 0-1.683.572-2.002 1.397-.264-.924-.957-1.397-1.837-1.397-.957 0-1.529.561-1.815 1.254l-.088-1.188h-.484V8.5h.561V5.662c0-1.364.66-2.288 1.727-2.288.968 0 1.573.682 1.573 1.969V8.5h.561V5.464c.033-1.276.693-2.09 1.738-2.09.968 0 1.551.649 1.551 1.914V8.5h.572V5.266c0-1.683-.891-2.409-2.057-2.409zm5.68 5.709c1.573 0 2.684-1.166 2.684-2.86 0-1.683-1.111-2.849-2.684-2.849-1.573 0-2.673 1.166-2.673 2.849 0 1.694 1.1 2.86 2.673 2.86zm0-.506c-1.243 0-2.101-.968-2.101-2.354 0-1.375.858-2.354 2.101-2.354 1.243 0 2.101.979 2.101 2.354 0 1.386-.858 2.354-2.101 2.354zm6.076-5.137c-1.034 0-1.474.495-1.705 1.111l-.088-1.111h-.484V8.5h.561V5.673c0-1.133.297-2.211 1.606-2.211h.407v-.539h-.297zm3.195 5.643c1.221 0 2.156-.792 2.398-1.914h-.572c-.22.869-.957 1.408-1.87 1.408-1.243 0-2.024-.946-2.046-2.244v-.099h4.554c0-.077.011-.165.011-.231-.055-1.661-1.078-2.629-2.574-2.629-1.529 0-2.574 1.166-2.574 2.816 0 1.749 1.089 2.893 2.673 2.893zm-2.046-3.322c.088-1.133.935-1.892 1.958-1.892 1.089 0 1.87.671 1.958 1.892h-3.916z" fill="#000"/></svg>