<svg width="163" height="117" viewBox="0 0 163 117" fill="none" xmlns="http://www.w3.org/2000/svg"><path d="M1.99 90.216h.597l1.63-4.63 1.555 4.63h.598l1.956-5.51h-.565l-1.696 4.847-1.576-4.847h-.51l-1.664 4.847-1.608-4.847H.12l1.87 5.51zm9.655-5.576c-1.032 0-1.674.576-1.989 1.37v-3.402h-.554v7.608h.554V87.5c0-1.435.728-2.348 1.902-2.348 1.055 0 1.707.696 1.707 2v3.066h.554v-3.088c0-1.739-.924-2.489-2.174-2.489zm5.762 5.642c1.206 0 2.13-.783 2.37-1.892h-.566c-.217.86-.946 1.392-1.848 1.392-1.228 0-2-.935-2.022-2.218v-.098h4.5c0-.076.011-.163.011-.228-.054-1.641-1.065-2.598-2.543-2.598-1.511 0-2.544 1.153-2.544 2.783 0 1.728 1.076 2.859 2.642 2.859zm-2.022-3.283c.087-1.12.924-1.87 1.935-1.87 1.076 0 1.847.663 1.934 1.87h-3.87zm8.106-2.359c-1.01 0-1.663.522-1.978 1.24l-.087-1.174h-.478v5.51h.554V87.5c0-1.435.729-2.348 1.902-2.348 1.066 0 1.707.696 1.707 2v3.066h.554v-3.088c0-1.739-.924-2.489-2.174-2.489zm7.983 5.576l-.358.892c-.25.608-.348.771-.913.771h-.696v.511h.848c.739 0 .913-.282 1.26-1.152l2.642-6.532h-.598l-1.88 4.793-1.913-4.793h-.598l2.206 5.51zm5.73.066c1.554 0 2.652-1.153 2.652-2.826 0-1.663-1.098-2.816-2.653-2.816-1.554 0-2.64 1.153-2.64 2.816 0 1.673 1.086 2.826 2.64 2.826zm0-.5c-1.229 0-2.077-.957-2.077-2.326 0-1.36.848-2.327 2.076-2.327 1.229 0 2.076.968 2.076 2.327 0 1.37-.847 2.326-2.076 2.326zm7.753-2.37c0 1.446-.717 2.359-1.859 2.359-1.021 0-1.652-.696-1.652-2.011v-3.055h-.554v3.088c0 1.728.902 2.489 2.12 2.489.978 0 1.62-.522 1.934-1.229l.076 1.163h.49v-5.51h-.555v2.706zm5.202 1.522c0 .88.359 1.282 1.294 1.282h.804v-.51h-.76c-.577 0-.783-.218-.783-.783v-3.707h1.489v-.51h-1.49v-1.544h-.554v1.543h-1.043v.511h1.043v3.718zm5.192-4.228c-1.022 0-1.457.489-1.685 1.097l-.087-1.097H53.1v5.51h.554v-2.793c0-1.12.293-2.185 1.587-2.185h.402v-.532h-.293zm5.729 5c-.326 0-.49-.11-.49-.533v-2.565c0-1.261-.771-1.968-2.151-1.968-1.261 0-2.098.609-2.24 1.609h.555c.141-.674.728-1.12 1.663-1.12 1.032 0 1.62.544 1.62 1.457v.478h-1.87c-1.413 0-2.174.609-2.174 1.642 0 .978.772 1.576 1.946 1.576 1.12 0 1.782-.511 2.12-1.196v.196c-.023.652.25.934.901.934h.326v-.51h-.206zm-1.044-1.718c0 1.055-.75 1.815-2.054 1.815-.88 0-1.424-.445-1.424-1.13 0-.728.544-1.13 1.565-1.13h1.913v.445zm6.407-2.043c-.337-.783-1.076-1.305-2.109-1.305-1.51 0-2.598 1.153-2.598 2.816 0 1.739 1.087 2.826 2.598 2.826 1.033 0 1.75-.555 2.098-1.326l.087 1.26h.478v-7.608h-.554v3.337zm-2.065 3.837c-1.229 0-2.076-.957-2.076-2.326 0-1.36.847-2.327 2.076-2.327 1.228 0 2.076.968 2.076 2.337 0 1.36-.848 2.316-2.076 2.316zm6.358.5c1.207 0 2.13-.783 2.37-1.892h-.566c-.217.86-.945 1.392-1.848 1.392-1.228 0-2-.935-2.021-2.218v-.098h4.5c0-.076.01-.163.01-.228-.054-1.641-1.064-2.598-2.543-2.598-1.51 0-2.543 1.153-2.543 2.783 0 1.728 1.076 2.859 2.641 2.859zm-2.022-3.283c.087-1.12.924-1.87 1.935-1.87 1.076 0 1.848.663 1.935 1.87h-3.87zm8.624 3.218h.587v-3.511h3.282v-.544h-3.282v-3.01h3.934v-.544h-4.521v7.608zm4.975 0h.685l2.326-3.446 2.348 3.445h.696l-2.653-3.934 2.49-3.674h-.685l-2.174 3.239-2.174-3.24h-.696l2.5 3.718-2.663 3.891zM5.5 101.706c-.326 0-.49-.109-.49-.533v-2.565c0-1.261-.77-1.968-2.151-1.968-1.261 0-2.098.609-2.24 1.609h.555c.141-.674.728-1.12 1.663-1.12 1.033 0 1.62.544 1.62 1.457v.478h-1.87c-1.413 0-2.174.609-2.174 1.642 0 .978.772 1.576 1.946 1.576 1.12 0 1.782-.511 2.12-1.196v.196c-.022.652.25.934.901.934h.327v-.51H5.5zm-1.043-1.718c0 1.055-.75 1.815-2.055 1.815-.88 0-1.424-.445-1.424-1.13 0-.728.544-1.13 1.566-1.13h1.913v.445zM8.99 96.64c-1.01 0-1.663.522-1.978 1.24l-.087-1.174h-.478v5.51h.554v-2.717c0-1.435.729-2.348 1.902-2.348 1.066 0 1.707.696 1.707 2v3.065h.554v-3.087c0-1.739-.923-2.489-2.174-2.489zm7.816 1.305c-.336-.783-1.076-1.305-2.108-1.305-1.511 0-2.598 1.153-2.598 2.816 0 1.739 1.087 2.826 2.598 2.826 1.032 0 1.75-.555 2.098-1.326l.087 1.26h.478v-7.608h-.555v3.337zm-2.065 3.837c-1.228 0-2.076-.957-2.076-2.326 0-1.36.848-2.327 2.076-2.327 1.228 0 2.076.968 2.076 2.337 0 1.359-.848 2.316-2.076 2.316zm7.136-6.24a.383.383 0 00.391-.39.383.383 0 00-.39-.392.383.383 0 00-.392.391c0 .228.174.392.391.392zm-.282 6.674h.554v-5.51h-.554v5.51zm4.4-5.576c-1.01 0-1.662.522-1.978 1.24l-.087-1.174h-.478v5.51h.554v-2.717c0-1.435.729-2.348 1.903-2.348 1.065 0 1.706.696 1.706 2v3.065h.555v-3.087c0-1.739-.924-2.489-2.174-2.489zm7.817 1.305c-.337-.783-1.077-1.305-2.11-1.305-1.51 0-2.597 1.153-2.597 2.816 0 1.739 1.087 2.826 2.598 2.826 1.032 0 1.75-.555 2.098-1.326l.087 1.26h.478v-7.608h-.554v3.337zm-2.066 3.837c-1.228 0-2.076-.957-2.076-2.326 0-1.36.848-2.327 2.076-2.327 1.229 0 2.077.968 2.077 2.337 0 1.359-.848 2.316-2.077 2.316zm4.206-6.24a.383.383 0 00.392-.39.383.383 0 00-.392-.392.383.383 0 00-.39.391c0 .228.173.392.39.392zm-.282 6.674h.554v-5.51h-.554v5.51zm4.26.066c1.25 0 2.13-.718 2.348-1.837h-.587c-.185.815-.848 1.337-1.761 1.337-1.207 0-2.044-.946-2.044-2.316 0-1.37.826-2.337 2.044-2.337.924 0 1.576.522 1.772 1.348h.575c-.228-1.141-1.086-1.837-2.336-1.837-1.555 0-2.62 1.153-2.62 2.826 0 1.696 1.054 2.816 2.609 2.816zm5.86 0c1.206 0 2.13-.783 2.37-1.892h-.566c-.217.859-.945 1.392-1.848 1.392-1.228 0-2-.935-2.021-2.218v-.098h4.5c0-.076.01-.163.01-.228-.054-1.641-1.065-2.598-2.543-2.598-1.51 0-2.543 1.153-2.543 2.783 0 1.728 1.076 2.859 2.64 2.859zm-2.022-3.283c.087-1.12.924-1.87 1.935-1.87 1.076 0 1.848.663 1.935 1.87h-3.87zm5.303 1.522c.043 1.141.967 1.761 2.347 1.761 1.185 0 2.142-.598 2.142-1.576 0-1.163-1.022-1.392-2.207-1.555-.858-.12-1.62-.217-1.62-.989 0-.63.62-1.043 1.555-1.043.88 0 1.511.424 1.609 1.14h.565c-.098-1.075-.978-1.619-2.174-1.619-1.228-.01-2.109.62-2.109 1.566 0 1.108 1.022 1.315 2.153 1.467.924.13 1.674.25 1.674 1.065 0 .652-.685 1.065-1.587 1.065-1.055 0-1.74-.489-1.783-1.282h-.565zm5.68.935c-.294 0-.479.184-.479.424 0 .26.174.391.38.391.11 0 .218-.044.272-.131a.393.393 0 01.098.283c0 .413-.26.837-.815.859v.326c.75-.033 1.217-.533 1.217-1.25 0-.5-.282-.902-.674-.902zm4.066-4.24h1.043v5h.555v-5h1.652v-.51h-1.652v-.827c0-.543.206-.76.76-.76h.903v-.511h-.924c-.924 0-1.294.402-1.294 1.282v.816h-1.043v.51zm6.07 5.066c1.554 0 2.651-1.153 2.651-2.826 0-1.663-1.097-2.816-2.652-2.816-1.554 0-2.641 1.153-2.641 2.816 0 1.673 1.087 2.826 2.641 2.826zm0-.5c-1.23 0-2.077-.957-2.077-2.326 0-1.36.848-2.327 2.076-2.327 1.228 0 2.076.968 2.076 2.327 0 1.369-.847 2.326-2.076 2.326zm6.003-5.076c-1.022 0-1.457.489-1.685 1.097l-.087-1.097h-.478v5.51h.554v-2.793c0-1.12.294-2.185 1.587-2.185h.402v-.532h-.293zm8.892 5c-.326 0-.489-.109-.489-.533v-2.565c0-1.261-.772-1.968-2.152-1.968-1.26 0-2.098.609-2.24 1.609h.555c.142-.674.729-1.12 1.663-1.12 1.033 0 1.62.544 1.62 1.457v.478h-1.87c-1.413 0-2.174.609-2.174 1.642 0 .978.772 1.576 1.946 1.576 1.12 0 1.783-.511 2.12-1.196v.196c-.022.652.25.934.902.934h.326v-.51h-.207zm-1.043-1.718c0 1.055-.75 1.815-2.054 1.815-.88 0-1.424-.445-1.424-1.13 0-.728.543-1.13 1.565-1.13h1.913v.445zM.652 114.216h.555v-7.608H.652v7.608zm2.14-6.674a.383.383 0 00.392-.391.383.383 0 00-.392-.391.383.383 0 00-.39.391c0 .228.173.391.39.391zm-.282 6.674h.554v-5.51H2.51v5.51zm8.01-5.576c-1.011 0-1.663.566-1.979 1.381-.26-.913-.945-1.381-1.815-1.381-.946 0-1.51.555-1.793 1.239l-.087-1.173h-.479v5.51h.555v-2.804c0-1.348.652-2.261 1.706-2.261.957 0 1.555.674 1.555 1.946v3.119h.554v-3c.033-1.26.685-2.065 1.717-2.065.957 0 1.533.641 1.533 1.892v3.173h.565v-3.195c0-1.663-.88-2.381-2.032-2.381zm3.546-1.098a.383.383 0 00.39-.391.383.383 0 00-.39-.391.383.383 0 00-.392.391c0 .228.174.391.392.391zm-.283 6.674h.554v-5.51h-.554v5.51zm2.27-1.282c0 .88.36 1.282 1.294 1.282h.804v-.51h-.76c-.577 0-.783-.218-.783-.783v-3.707h1.489v-.51h-1.49v-1.544h-.553v1.544H15.01v.51h1.043v3.718zm5.207 1.348c1.206 0 2.13-.783 2.37-1.892h-.566c-.217.859-.945 1.392-1.848 1.392-1.228 0-2-.935-2.021-2.218v-.098h4.5c0-.076.01-.163.01-.228-.054-1.641-1.065-2.598-2.543-2.598-1.51 0-2.544 1.152-2.544 2.783 0 1.728 1.077 2.859 2.642 2.859zm-2.022-3.283c.087-1.12.924-1.87 1.935-1.87 1.076 0 1.848.663 1.935 1.87h-3.87zm10.063-1.054c-.337-.783-1.076-1.305-2.108-1.305-1.511 0-2.598 1.152-2.598 2.816 0 1.739 1.087 2.826 2.598 2.826 1.032 0 1.75-.555 2.097-1.326l.087 1.26h.479v-7.608H29.3v3.337zm-2.065 3.837c-1.228 0-2.076-.957-2.076-2.326 0-1.359.848-2.327 2.076-2.327 1.228 0 2.076.968 2.076 2.337 0 1.359-.848 2.316-2.076 2.316zm7.266-.848c0 .88.359 1.282 1.294 1.282h.804v-.51h-.76c-.577 0-.783-.218-.783-.783v-3.707h1.489v-.51h-1.49v-1.544h-.554v1.544H33.46v.51h1.043v3.718zm3.224-5.392a.383.383 0 00.392-.391.383.383 0 00-.392-.391.383.383 0 00-.391.391c0 .228.174.391.391.391zm-.282 6.674h.554v-5.51h-.554v5.51zm8.01-5.576c-1.011 0-1.664.566-1.979 1.381-.26-.913-.946-1.381-1.815-1.381-.946 0-1.511.555-1.794 1.239l-.087-1.173h-.478v5.51h.554v-2.804c0-1.348.653-2.261 1.707-2.261.957 0 1.554.674 1.554 1.946v3.119h.555v-3c.032-1.26.685-2.065 1.717-2.065.957 0 1.533.641 1.533 1.892v3.173h.565v-3.195c0-1.663-.88-2.381-2.033-2.381zm5.612 5.642c1.207 0 2.131-.783 2.37-1.892h-.565c-.218.859-.946 1.392-1.848 1.392-1.228 0-2-.935-2.022-2.218v-.098h4.5c0-.076.011-.163.011-.228-.054-1.641-1.065-2.598-2.543-2.598-1.511 0-2.544 1.152-2.544 2.783 0 1.728 1.076 2.859 2.642 2.859zm-2.021-3.283c.087-1.12.924-1.87 1.935-1.87 1.076 0 1.847.663 1.934 1.87h-3.87zm10.927 3.283c1.555 0 2.653-1.153 2.653-2.826 0-1.664-1.098-2.816-2.653-2.816-1.554 0-2.64 1.152-2.64 2.816 0 1.673 1.086 2.826 2.64 2.826zm0-.5c-1.228 0-2.076-.957-2.076-2.326 0-1.359.848-2.327 2.076-2.327 1.229 0 2.077.968 2.077 2.327 0 1.369-.848 2.326-2.077 2.326zm6.298-5.142c-1.011 0-1.663.522-1.979 1.239l-.087-1.173h-.478v5.51h.555v-2.717c0-1.435.728-2.348 1.902-2.348 1.065 0 1.706.696 1.706 2v3.065h.555v-3.087c0-1.739-.924-2.489-2.174-2.489zm3.4 5.576h.555v-7.608h-.554v7.608zm3.51 0l-.358.892c-.25.608-.348.772-.913.772h-.696v.51h.848c.739 0 .913-.282 1.26-1.152l2.642-6.532h-.598l-1.88 4.793-1.913-4.793h-.598l2.206 5.51zm3.028-.358c0 .25.174.413.413.413s.413-.163.413-.413c0-.25-.174-.402-.413-.402-.24 0-.413.152-.413.402zM2.421 13.439v-6.76l4.647 6.76H8.5v-9.54H6.96v6.76l-4.647-6.76H.882v9.54h1.54zm10.978.082c1.73 0 2.902-1.05 3.148-2.426h-1.472c-.204.776-.859 1.226-1.758 1.226-1.158 0-1.908-.777-1.949-1.962v-.095h5.26c.028-.191.041-.382.041-.56-.04-2.043-1.39-3.324-3.407-3.324-2.057 0-3.434 1.43-3.434 3.584 0 2.14 1.377 3.556 3.57 3.556zm-1.976-4.334c.109-.995.913-1.622 1.853-1.622 1.022 0 1.744.586 1.867 1.622h-3.72zm7.805 4.252h1.594l1.527-4.743 1.471 4.743h1.581l2.317-6.978h-1.5l-1.648 5.342-1.526-5.342h-1.35L20.1 11.803l-1.595-5.342h-1.553l2.276 6.978zm13.256-1.895c0 1.268.572 1.895 1.907 1.895h1.363v-1.295H34.72c-.56 0-.75-.204-.75-.75V7.757h1.703V6.461H33.97V4.513h-1.485V6.46H31.27v1.295h1.213v3.788zm7.736-5.083c-1.145 0-1.703.464-2.058 1.05L38 6.46H36.69v6.978h1.472V9.936c0-1.076.423-2.098 1.731-2.098h.654V6.46h-.327zm7.4 5.697c-.3 0-.45-.096-.45-.45V8.914c0-1.649-1.063-2.534-2.916-2.534-1.758 0-2.93.845-3.08 2.207h1.444c.11-.613.695-1.022 1.567-1.022.968 0 1.527.477 1.527 1.254v.422h-1.758c-1.949 0-2.985.804-2.985 2.235 0 1.295 1.063 2.044 2.59 2.044 1.13 0 1.84-.49 2.303-1.199 0 .695.327 1.118 1.28 1.118h.777v-1.281h-.3zm-1.908-1.581c-.014 1.076-.723 1.799-1.949 1.799-.804 0-1.295-.41-1.295-.995 0-.709.505-1.05 1.418-1.05h1.826v.246zm8.257-3.148c-.45-.613-1.2-1.05-2.262-1.05-1.894 0-3.298 1.418-3.298 3.571 0 2.235 1.404 3.57 3.298 3.57 1.104 0 1.826-.517 2.276-1.13l.177 1.049h1.28v-9.54h-1.47v3.53zm-2.017 4.851c-1.226 0-2.03-.954-2.03-2.33 0-1.363.804-2.317 2.03-2.317 1.227 0 2.03.954 2.03 2.344 0 1.35-.803 2.303-2.03 2.303zm8.239 1.24c1.73 0 2.902-1.049 3.148-2.425h-1.472c-.204.776-.859 1.226-1.758 1.226-1.158 0-1.908-.777-1.949-1.962v-.095h5.26c.028-.191.041-.382.041-.56-.04-2.043-1.39-3.324-3.407-3.324-2.057 0-3.434 1.43-3.434 3.584 0 2.14 1.377 3.556 3.57 3.556zm-1.976-4.333c.109-.995.913-1.622 1.853-1.622 1.022 0 1.744.586 1.867 1.622h-3.72zM68.18 6.46c-1.145 0-1.704.464-2.058 1.05l-.163-1.05H64.65v6.978h1.472V9.936c0-1.076.422-2.098 1.73-2.098h.655V6.46h-.327zm8.455-.081c-1.076 0-1.798.49-2.262 1.117V3.899h-1.472v9.54h1.281l.178-1.009c.436.627 1.185 1.09 2.275 1.09 1.908 0 3.298-1.43 3.298-3.57 0-2.249-1.39-3.57-3.298-3.57zm-.245 5.9c-1.226 0-2.03-.967-2.03-2.344 0-1.349.804-2.303 2.03-2.303 1.227 0 2.044.954 2.044 2.317 0 1.376-.817 2.33-2.044 2.33zm8.02 1.24c2.126 0 3.557-1.43 3.557-3.57 0-2.126-1.43-3.57-3.556-3.57-2.126 0-3.557 1.444-3.557 3.57 0 2.14 1.43 3.57 3.556 3.57zm0-1.253c-1.24 0-2.044-.968-2.044-2.317 0-1.35.804-2.317 2.044-2.317s2.058.968 2.058 2.317c0 1.35-.817 2.317-2.057 2.317zm8.42-5.887c-1.13 0-1.799.45-2.235.994l-.163-.913h-1.281v6.978h1.472V9.923c0-1.417.695-2.276 1.867-2.276 1.103 0 1.662.709 1.662 2.03v3.762h1.486V9.555c0-2.33-1.268-3.175-2.808-3.175zm8.929 3.57c0 1.445-.681 2.29-1.798 2.29-1.077 0-1.622-.696-1.622-2.058v-3.72h-1.472v3.883c0 2.385 1.267 3.175 2.753 3.175 1.076 0 1.717-.436 2.153-.967l.164.886h1.294V6.46h-1.472V9.95zm2.623 1.186c.041 1.512 1.322 2.385 3.189 2.385 1.69 0 2.957-.845 2.957-2.18 0-1.554-1.295-1.882-2.889-2.072-1.009-.11-1.676-.191-1.676-.845 0-.559.572-.913 1.444-.913s1.472.45 1.554 1.09h1.444c-.095-1.431-1.308-2.221-3.025-2.221-1.676-.014-2.862.845-2.862 2.166 0 1.445 1.254 1.786 2.848 1.976 1.077.137 1.717.191 1.717.94 0 .56-.599.914-1.512.914-1.063 0-1.69-.518-1.745-1.24h-1.444zm8.949-.6l.232-6.637h-1.581l.232 6.637h1.117zm-1.513 2.058c0 .545.409.927.954.927.545 0 .941-.382.941-.927s-.396-.927-.941-.927c-.545 0-.954.382-.954.927z" fill="#000"/><path d="M8.745 49.143c2.638 0 4.349-1.189 5.156-2.377L14.14 49h2.115v-9.101H9.03v2.305h4.61v.404c-.143 2.685-2.21 4.135-4.776 4.135-3.185 0-5.18-2.496-5.18-6.06 0-3.565 2.043-6.06 5.203-6.06 2.305 0 3.898 1.284 4.397 3.398h2.827c-.499-3.517-3.303-5.798-7.152-5.798-4.943 0-8.08 3.398-8.08 8.46 0 5.061 3.208 8.46 7.866 8.46zm16.065 0c3.018 0 5.061-1.83 5.49-4.23h-2.567c-.357 1.354-1.497 2.138-3.066 2.138-2.02 0-3.327-1.354-3.398-3.422v-.166h9.173c.047-.333.071-.665.071-.974-.071-3.565-2.424-5.798-5.94-5.798-3.589 0-5.99 2.495-5.99 6.25 0 3.73 2.401 6.202 6.227 6.202zm-3.446-7.557c.19-1.735 1.592-2.828 3.232-2.828 1.782 0 3.042 1.022 3.256 2.828h-6.488zm12.01 4.11c0 2.21.998 3.304 3.327 3.304h2.376v-2.258h-1.806c-.974 0-1.307-.356-1.307-1.306V39.09h2.97v-2.258h-2.97v-3.398h-2.59v3.398H31.26v2.258h2.115v6.606zm20.474-6.273c-2.614-.451-4.325-.808-4.325-2.518 0-1.569 1.307-2.377 3.184-2.377 2.02 0 3.35 1.14 3.565 2.828h2.732c-.095-2.685-1.925-4.586-4.919-5.038V29.8H51.78v2.472c-3.018.309-4.99 2.186-4.99 4.824 0 3.303 2.614 4.182 5.37 4.657 2.638.475 4.373.856 4.373 2.614 0 1.592-1.426 2.472-3.398 2.472-2.329 0-3.85-1.307-3.992-3.256l-2.757-.047c.095 2.946 2.067 5.085 5.394 5.513v2.495h2.305v-2.448c3.113-.333 5.18-2.305 5.18-5.014.024-3.28-2.66-4.159-5.417-4.658zM60.673 49H72.46v-2.305h-8.056l4.42-3.683c2.02-1.688 3.517-3.232 3.517-5.703 0-3.042-2.091-5.086-5.822-5.086-3.54 0-5.822 2.305-5.822 5.466v.428h2.638v-.286c0-2.067 1.283-3.35 3.184-3.35 1.901 0 3.16 1.045 3.16 2.946 0 1.593-1.116 2.757-2.614 4.016l-6.392 5.442V49zm14.92-3.065c-1.093 0-1.806.712-1.806 1.615 0 1.022.618 1.521 1.403 1.521.285 0 .57-.071.784-.237.023.095.023.213.023.309 0 .831-.594 1.758-2.09 1.782v1.378c2.352-.024 3.825-1.33 3.825-3.636 0-1.52-.832-2.732-2.138-2.732zm12.43-5.585c1.545-.356 2.875-1.758 2.875-3.707 0-2.59-2.233-4.42-5.798-4.42-3.54 0-5.774 1.83-5.774 4.42 0 2.02 1.33 3.35 2.851 3.731-1.782.404-3.303 1.782-3.303 4.087 0 2.757 2.305 4.682 6.226 4.682s6.25-1.925 6.25-4.682c0-2.352-1.545-3.73-3.327-4.11zM85.1 34.267c1.901 0 3.137.998 3.137 2.447 0 1.474-1.236 2.472-3.137 2.472-1.877 0-3.113-.998-3.113-2.471 0-1.45 1.236-2.448 3.113-2.448zm0 12.856c-2.091 0-3.54-1.188-3.54-2.804 0-1.616 1.449-2.78 3.54-2.78 2.115 0 3.565 1.164 3.565 2.78 0 1.616-1.45 2.804-3.565 2.804zm17.056-6.773c1.544-.356 2.875-1.758 2.875-3.707 0-2.59-2.234-4.42-5.798-4.42-3.541 0-5.775 1.83-5.775 4.42 0 2.02 1.33 3.35 2.852 3.731-1.782.404-3.303 1.782-3.303 4.087 0 2.757 2.305 4.682 6.226 4.682s6.249-1.925 6.249-4.682c0-2.352-1.544-3.73-3.326-4.11zm-2.923-6.083c1.901 0 3.136.998 3.136 2.447 0 1.474-1.235 2.472-3.136 2.472-1.878 0-3.113-.998-3.113-2.471 0-1.45 1.235-2.448 3.113-2.448zm0 12.856c-2.092 0-3.541-1.188-3.541-2.804 0-1.616 1.45-2.78 3.54-2.78 2.116 0 3.565 1.164 3.565 2.78 0 1.616-1.449 2.804-3.564 2.804zm17.055-6.773c1.545-.356 2.875-1.758 2.875-3.707 0-2.59-2.233-4.42-5.798-4.42-3.54 0-5.774 1.83-5.774 4.42 0 2.02 1.331 3.35 2.851 3.731-1.782.404-3.303 1.782-3.303 4.087 0 2.757 2.305 4.682 6.226 4.682s6.25-1.925 6.25-4.682c0-2.352-1.545-3.73-3.327-4.11zm-2.923-6.083c1.901 0 3.137.998 3.137 2.447 0 1.474-1.236 2.472-3.137 2.472-1.877 0-3.113-.998-3.113-2.471 0-1.45 1.236-2.448 3.113-2.448zm0 12.856c-2.091 0-3.54-1.188-3.54-2.804 0-1.616 1.449-2.78 3.54-2.78 2.115 0 3.565 1.164 3.565 2.78 0 1.616-1.45 2.804-3.565 2.804zM6.844 73.143c3.113 0 5.18-1.735 5.655-4.492H9.79c-.309 1.402-1.354 2.305-2.922 2.305-2.068 0-3.422-1.64-3.422-4.016 0-2.4 1.354-4.063 3.422-4.063 1.592 0 2.613.88 2.946 2.305H12.5C12 62.425 10.052 60.69 6.915 60.69c-3.683 0-6.107 2.495-6.107 6.25 0 3.802 2.353 6.202 6.036 6.202zm18.74-2.377c-.522 0-.783-.166-.783-.784v-4.871c0-2.876-1.854-4.42-5.086-4.42-3.065 0-5.109 1.473-5.37 3.85h2.519c.19-1.07 1.212-1.783 2.733-1.783 1.687 0 2.661.832 2.661 2.186v.737h-3.065c-3.399 0-5.205 1.402-5.205 3.897 0 2.258 1.854 3.565 4.515 3.565 1.973 0 3.209-.856 4.017-2.092 0 1.212.57 1.949 2.233 1.949h1.355v-2.234h-.523zm-3.326-2.756c-.024 1.877-1.26 3.136-3.398 3.136-1.402 0-2.258-.712-2.258-1.734 0-1.236.88-1.83 2.472-1.83h3.184v.428zm4.725.974c.071 2.638 2.305 4.159 5.56 4.159 2.947 0 5.157-1.474 5.157-3.802 0-2.71-2.258-3.28-5.038-3.612-1.758-.19-2.923-.333-2.923-1.474 0-.974.998-1.592 2.52-1.592 1.52 0 2.566.784 2.708 1.901h2.52c-.167-2.495-2.282-3.873-5.276-3.873-2.923-.024-4.99 1.473-4.99 3.778 0 2.519 2.186 3.113 4.966 3.446 1.877.237 2.994.332 2.994 1.64 0 .974-1.045 1.591-2.638 1.591-1.853 0-2.946-.903-3.041-2.162h-2.52zm19.098-8.293c-1.9 0-3.065.855-3.826 1.9v-6.225H39.69V73h2.566v-6.155c0-2.447 1.236-3.944 3.256-3.944 1.9 0 2.923 1.235 2.923 3.54V73H51v-6.772c0-4.064-2.21-5.537-4.919-5.537z" fill="url(#paint0_linear_784_1414)"/><defs><linearGradient id="paint0_linear_784_1414" x1="144" y1="60" x2="0" y2="60" gradientUnits="userSpaceOnUse"><stop stop-color="#FF4343"/><stop offset=".5" stop-color="#9C0B93"/><stop offset="1" stop-color="#4C1BB7"/></linearGradient></defs></svg>