<svg width="127" height="20" viewBox="0 0 127 20" fill="none" xmlns="http://www.w3.org/2000/svg"><rect y=".975" width="127" height="19" rx="9.5" fill="#000"/><path d="M9.138 14.534c1.558 0 2.702-.887 2.959-2.317h-.908c-.256.966-.995 1.528-2.06 1.528-1.45 0-2.337-1.134-2.337-2.721 0-1.597.927-2.722 2.376-2.722 1.035 0 1.765.572 2.031 1.529h.907c-.256-1.43-1.37-2.317-2.899-2.317-2.001 0-3.293 1.42-3.293 3.51 0 2.11 1.243 3.51 3.224 3.51zm6.193 0c1.47 0 2.495-1.045 2.495-2.573 0-1.529-1.026-2.574-2.495-2.574s-2.494 1.045-2.494 2.574c0 1.528 1.025 2.573 2.494 2.573zm0-.72c-.996 0-1.666-.779-1.666-1.853 0-1.075.67-1.854 1.666-1.854.996 0 1.667.779 1.667 1.854 0 1.074-.67 1.853-1.667 1.853zm9.033-4.427c-.898 0-1.44.414-1.745.957-.287-.641-.888-.957-1.588-.957-.779 0-1.203.385-1.47.75l-.108-.69h-.7v5.028h.809v-2.652c0-1.006.503-1.696 1.33-1.696.77 0 1.214.512 1.214 1.498v2.85h.808v-2.692c0-1.025.513-1.656 1.351-1.656.76 0 1.193.512 1.193 1.498v2.85h.809v-2.899c0-1.587-.858-2.189-1.903-2.189zm5.474 0c-.848 0-1.39.404-1.726.868l-.108-.809h-.7v7.001h.809v-2.741c.305.483.877.828 1.725.828 1.39 0 2.416-1.035 2.416-2.573 0-1.637-1.026-2.574-2.416-2.574zm-.079 4.427c-.986 0-1.656-.769-1.656-1.873 0-1.075.67-1.834 1.656-1.834.996 0 1.667.76 1.667 1.854s-.67 1.853-1.667 1.853zm3.419.661h.808V7.573h-.808v6.902zm4.233.06c1.164 0 1.992-.74 2.19-1.746h-.82c-.167.65-.719 1.025-1.429 1.025-.956 0-1.558-.67-1.587-1.627v-.069h3.904c.01-.118.02-.236.02-.345-.04-1.489-.966-2.386-2.386-2.386-1.42 0-2.386 1.045-2.386 2.574 0 1.538.986 2.573 2.494 2.573zm-1.597-3.087c.079-.819.76-1.351 1.499-1.351.838 0 1.43.483 1.508 1.35h-3.007zm5.114 1.716c0 .887.346 1.311 1.312 1.311h.877v-.74h-.798c-.434 0-.582-.157-.582-.581v-2.968h1.302v-.74h-1.302v-1.41h-.809v1.41h-.907v.74h.907v2.978zm5.082 1.37c1.164 0 1.992-.74 2.19-1.745h-.82c-.167.65-.719 1.025-1.429 1.025-.956 0-1.558-.67-1.587-1.627v-.069h3.904c.01-.118.02-.236.02-.345-.04-1.489-.966-2.386-2.386-2.386-1.42 0-2.386 1.045-2.386 2.574 0 1.538.986 2.573 2.494 2.573zm-1.597-3.086c.079-.819.759-1.351 1.499-1.351.838 0 1.43.483 1.508 1.35h-3.007zm8.838 3.057l-.247.61c-.187.474-.266.593-.73.593h-.72v.74h.967c.71 0 .897-.317 1.213-1.125l2.317-5.877h-.858l-1.499 4.013-1.548-4.013h-.858l1.963 5.059zm5.499.03c1.469 0 2.494-1.046 2.494-2.574 0-1.529-1.025-2.574-2.494-2.574-1.47 0-2.495 1.045-2.495 2.574 0 1.528 1.026 2.573 2.495 2.573zm0-.72c-.996 0-1.667-.78-1.667-1.854 0-1.075.67-1.854 1.667-1.854.996 0 1.666.779 1.666 1.854 0 1.074-.67 1.853-1.666 1.853zm6.942-1.854c0 1.134-.552 1.834-1.47 1.834-.838 0-1.31-.553-1.31-1.598v-2.75h-.81v2.8c0 1.666.878 2.287 1.983 2.287.828 0 1.31-.355 1.607-.73l.108.671h.7V9.446h-.808v2.515zm4.238-2.515c-.898 0-1.282.375-1.519.76l-.108-.76h-.7v5.029h.808v-2.564c0-.798.286-1.676 1.341-1.676h.404v-.789h-.227zm7.955 4.29c-.227 0-.326-.07-.326-.336v-2.199c0-1.173-.74-1.814-2.02-1.814-1.214 0-2.012.582-2.13 1.568h.808c.098-.513.572-.848 1.282-.848.788 0 1.252.394 1.252 1.045v.345h-1.48c-1.32 0-2.02.562-2.02 1.568 0 .917.749 1.47 1.853 1.47.868 0 1.37-.385 1.686-.839.01.493.237.779.907.779h.444v-.74h-.256zm-1.134-1.312c0 .838-.582 1.42-1.588 1.42-.67 0-1.094-.335-1.094-.828 0-.572.404-.838 1.124-.838h1.558v.246zm4.546-3.037c-.848 0-1.39.404-1.726.868l-.108-.809h-.7v7.001h.808v-2.741c.306.483.878.828 1.726.828 1.39 0 2.416-1.035 2.416-2.573 0-1.637-1.026-2.574-2.416-2.574zm-.079 4.427c-.986 0-1.657-.769-1.657-1.873 0-1.075.671-1.834 1.657-1.834.996 0 1.666.76 1.666 1.854s-.67 1.853-1.666 1.853zm5.953-4.427c-.848 0-1.39.404-1.726.868l-.108-.809h-.7v7.001h.808v-2.741c.306.483.878.828 1.726.828 1.39 0 2.416-1.035 2.416-2.573 0-1.637-1.026-2.574-2.416-2.574zm-.08 4.427c-.985 0-1.656-.769-1.656-1.873 0-1.075.67-1.834 1.657-1.834.996 0 1.666.76 1.666 1.854s-.67 1.853-1.666 1.853zm3.42.661h.808V7.573h-.809v6.902zm2.33-5.877a.508.508 0 00.523-.522.508.508 0 00-.523-.523.508.508 0 00-.523.523c0 .305.227.522.523.522zm-.414 5.877h.808V9.446h-.808v5.029zm4.174.06c1.223 0 2.041-.691 2.238-1.776h-.858c-.157.641-.65 1.055-1.37 1.055-.967 0-1.617-.749-1.617-1.844 0-1.094.65-1.863 1.617-1.863.74 0 1.232.404 1.38 1.075h.848c-.207-1.105-.986-1.795-2.218-1.795-1.46 0-2.456 1.045-2.456 2.583 0 1.568.967 2.564 2.436 2.564zm7.572-.8c-.227 0-.326-.069-.326-.335v-2.199c0-1.173-.739-1.814-2.021-1.814-1.213 0-2.011.582-2.13 1.568h.809c.098-.513.572-.848 1.282-.848.788 0 1.252.394 1.252 1.045v.345h-1.479c-1.322 0-2.022.562-2.022 1.568 0 .917.75 1.47 1.854 1.47.868 0 1.371-.385 1.686-.839.01.493.237.779.907.779h.444v-.74h-.256zm-1.134-1.311c0 .838-.582 1.42-1.588 1.42-.67 0-1.094-.335-1.094-.828 0-.572.404-.838 1.124-.838h1.558v.246zm2.386.74c0 .887.346 1.311 1.312 1.311h.877v-.74h-.798c-.434 0-.582-.157-.582-.581v-2.968h1.302v-.74h-1.302v-1.41h-.809v1.41h-.907v.74h.907v2.978zm3.304-4.566a.508.508 0 00.523-.522.508.508 0 00-.523-.523.507.507 0 00-.522.523c0 .305.226.522.522.522zm-.414 5.877h.809V9.446h-.809v5.029zm4.233.06c1.47 0 2.495-1.046 2.495-2.574 0-1.529-1.025-2.574-2.495-2.574-1.469 0-2.494 1.045-2.494 2.574 0 1.528 1.025 2.573 2.494 2.573zm0-.72c-.995 0-1.666-.78-1.666-1.854 0-1.075.671-1.854 1.666-1.854.996 0 1.667.779 1.667 1.854 0 1.074-.671 1.853-1.667 1.853zm5.887-4.428c-.848 0-1.36.355-1.656.74l-.109-.68h-.7v5.028h.809v-2.514c0-1.134.572-1.834 1.518-1.834.878 0 1.361.552 1.361 1.597v2.751h.809v-2.8c0-1.667-.898-2.288-2.032-2.288z" fill="#fff"/></svg>