<svg width="251" height="86" viewBox="0 0 251 86" fill="none" xmlns="http://www.w3.org/2000/svg"><path d="M168.161 33.294H155.16C151.596 13.1 136.674.836 114.113.836c-25.357 0-41.751 16.797-41.751 42.754 0 25.956 15.883 42.378 41.751 42.245 21.089 0 36.048-11.528 40.5-30.415h8.805l2.688-7.384H155.78a59.737 59.737 0 00.158-7.383h9.657l2.566-7.383v.024zM131.809 48.06h-13.852l-2.688 7.383h15.798c-1.776 11.057-6.555 18.706-16.443 18.706-13.062 0-18.182-13.752-18.182-30.79 0-17.039 4.099-30.67 17.294-30.79 10.374 0 15.738 8.591 17.514 20.736h-11.238l-2.566 7.383h14.424c.024.883.048 1.765.048 2.67 0 1.608-.036 3.179-.109 4.714v-.012zM.643 83.805h22.67v-28.88h38.553V36.217H23.313V22.467h42.651V2.745H.643v81.06zM231.184 55.553c10.119-4.326 16.771-12.604 16.771-24.942v-.253c0-7.891-2.432-14.248-7.175-18.84-5.498-5.474-14.218-8.773-26.635-8.773H175.47v81.06h22.67V59.238h9.985l16.394 24.567h26.124l-19.471-28.252h.012zM225.285 32c0 5.982-4.475 9.667-12.162 9.667h-14.995V22.08h14.862c7.686 0 12.295 3.31 12.295 9.667v.254z" fill="#fff"/></svg>