<svg width="273" height="42" viewBox="0 0 273 42" fill="none" xmlns="http://www.w3.org/2000/svg"><path d="M74.937 20.874c0-.403-.008-.8-.023-1.194h4.656l1.236-3.647h-6.271C72.815 6.058 65.613 0 54.735 0 42.504 0 34.597 8.299 34.597 21.125c0 12.955 7.66 20.937 20.14 20.875 10.17 0 17.389-5.699 19.535-15.027h4.249l1.297-3.647h-4.982c.067-.797.1-1.614.102-2.452zM54.983 36.218C48.68 36.216 46.21 29.423 46.21 21s1.977-15.153 8.34-15.215c5.006 0 7.592 4.247 8.448 10.248H57.58l-1.236 3.646h6.959c.013.436.022.875.022 1.321 0 .792-.018 1.57-.054 2.329H56.59l-1.297 3.646h7.62c-.857 5.463-3.161 9.24-7.93 9.24v.003zM0 .945h31.507v9.744H10.935v6.79H29.53v9.242H10.935v14.273H0V.944zm84.327 0v40.049h10.935V28.859h4.818l7.908 12.135h12.603l-9.39-13.96c4.88-2.137 8.092-6.224 8.092-12.322v-.125c0-3.898-1.173-7.042-3.461-9.306-2.654-2.703-6.855-4.336-12.848-4.336H84.327zm10.935 19.239V10.5h7.166c3.706 0 5.93 1.635 5.93 4.776v.126c0 2.955-2.161 4.776-5.866 4.776l-7.23.006zm29.591 20.81h31.939V31.56h-21.128v-6.348h18.903v-8.74h-18.903v-6.099h20.884V.944h-31.695v40.05zm35.523 0h12.294l7.598-12.072 7.537 12.072h12.541l-13.529-20.497L199.728.945h-12.232l-7.039 11.254L173.473.945h-12.541l12.973 19.678-13.529 20.37zm50.658-18.986a8.265 8.265 0 00.609 3.211 8.154 8.154 0 001.8 2.709 7.984 7.984 0 002.701 1.771 7.887 7.887 0 003.168.548c3.461 0 5.498-1.446 6.981-3.647l-3.706-2.703c-.865 1.006-1.73 1.635-3.027 1.635-1.854 0-3.151-1.572-3.151-3.647v-.063c0-1.95 1.297-3.522 3.088-3.522a3.325 3.325 0 011.674.456c.51.298.934.726 1.23 1.242l3.769-2.83a7.613 7.613 0 00-2.893-2.714 7.45 7.45 0 00-3.841-.868 8.065 8.065 0 00-3.22.58 8.175 8.175 0 00-2.74 1.816 8.345 8.345 0 00-1.825 2.762 8.477 8.477 0 00-.617 3.268m16.68 0c0 4.526 3.645 8.298 8.649 8.298 5.066 0 8.711-3.835 8.711-8.362v-.06c0-4.527-3.645-8.299-8.649-8.299-5.066 0-8.711 3.835-8.711 8.426m11.985 0c0 1.886-1.236 3.522-3.274 3.522a3.352 3.352 0 01-1.309-.294 3.399 3.399 0 01-1.096-.786 3.466 3.466 0 01-.713-1.156 3.526 3.526 0 01-.218-1.346v-.06a3.399 3.399 0 01.898-2.472c.306-.33.674-.592 1.083-.773.408-.18.848-.275 1.293-.277.456.01.905.114 1.322.304.416.19.79.464 1.101.804.311.34.552.74.709 1.175.157.436.226.9.204 1.363m8.031-8.11v15.956h5.498v-8.676c0-1.698.927-2.64 2.225-2.64 1.297 0 2.161.88 2.161 2.64v8.676h5.437v-8.676c0-1.698.989-2.64 2.288-2.64 1.3 0 2.162.88 2.162 2.64v8.74H273v-10.5c0-3.71-2.039-5.848-5.375-5.848a6.555 6.555 0 00-2.918.672 6.667 6.667 0 00-2.333 1.906c-.803-1.635-2.41-2.578-4.51-2.578a5.666 5.666 0 00-2.649.673 5.785 5.785 0 00-2.044 1.842v-2.2h-5.441v.012zM203.374 26.91c-.028.391.036.783.186 1.144.151.36.383.68.679.93a2.962 2.962 0 002.039.818 2.96 2.96 0 002.038-.817 2.97 2.97 0 00.033-4.182 2.884 2.884 0 00-.946-.64 2.838 2.838 0 00-2.228.017c-.352.153-.67.376-.936.655a2.984 2.984 0 00-.865 2.075z" fill="#fff"/></svg>