<svg width="487" height="36" viewBox="0 0 487 36" fill="none" xmlns="http://www.w3.org/2000/svg"><path d="M10.374 17.899V28h4.485V17.899L25.038.7h-5.031l-7.371 12.48L5.46.7H.195l10.179 17.199zM33.29 28.234c6.084 0 10.18-4.095 10.18-10.218 0-6.084-4.096-10.218-10.18-10.218s-10.179 4.134-10.179 10.218c0 6.123 4.095 10.218 10.18 10.218zm0-3.588c-3.549 0-5.85-2.769-5.85-6.63 0-3.861 2.301-6.63 5.85-6.63 3.55 0 5.89 2.769 5.89 6.63 0 3.861-2.34 6.63-5.89 6.63zm27.255-6.63c0 4.134-1.95 6.552-5.148 6.552-3.08 0-4.64-1.989-4.64-5.889V8.032h-4.213v11.115c0 6.825 3.627 9.087 7.878 9.087 3.081 0 4.914-1.248 6.162-2.769L61.052 28h3.705V8.032h-4.212v9.984zM70.858.466c-1.794 0-2.964 1.17-2.964 2.652 0 1.638 1.014 2.496 2.3 2.496.469 0 .937-.156 1.288-.429.039.195.039.351.039.546 0 1.365-.975 2.886-3.432 2.886v2.301c3.86-.039 6.279-2.184 6.279-5.967 0-2.535-1.365-4.485-3.51-4.485zM87.73 8.032c-3.276 0-4.875 1.326-5.89 3.003l-.467-3.003h-3.745V28h4.212V17.977c0-3.081 1.21-6.006 4.954-6.006h1.871V8.032h-.935zm12.058 20.202c4.953 0 8.307-3.003 9.009-6.942h-4.212c-.585 2.223-2.457 3.51-5.03 3.51-3.316 0-5.46-2.223-5.578-5.616v-.273h15.054c.078-.546.117-1.092.117-1.599-.117-5.85-3.978-9.516-9.75-9.516-5.889 0-9.828 4.095-9.828 10.257 0 6.123 3.94 10.179 10.218 10.179zm-5.655-12.402c.312-2.847 2.613-4.641 5.304-4.641 2.925 0 4.992 1.677 5.343 4.641H94.134zm38.929-8.034c-3.237 0-5.148 1.287-6.396 2.847l-.468-2.613h-3.666V28h4.212V17.938c0-4.056 1.989-6.513 5.343-6.513 3.159 0 4.758 2.028 4.758 5.811V28h4.251V16.885c0-6.669-3.627-9.087-8.034-9.087zm21.189 20.436c4.953 0 8.307-3.003 9.009-6.942h-4.212c-.585 2.223-2.457 3.51-5.031 3.51-3.315 0-5.46-2.223-5.577-5.616v-.273h15.054c.078-.546.117-1.092.117-1.599-.117-5.85-3.978-9.516-9.75-9.516-5.889 0-9.828 4.095-9.828 10.257 0 6.123 3.939 10.179 10.218 10.179zm-5.655-12.402c.312-2.847 2.613-4.641 5.304-4.641 2.925 0 4.992 1.677 5.343 4.641h-10.647zm36.672 8.502c-.858 0-1.287-.273-1.287-1.287v-7.995c0-4.719-3.042-7.254-8.346-7.254-5.031 0-8.385 2.418-8.814 6.318h4.134c.312-1.755 1.989-2.925 4.485-2.925 2.769 0 4.368 1.365 4.368 3.588v1.209h-5.031c-5.577 0-8.541 2.301-8.541 6.396 0 3.705 3.042 5.85 7.41 5.85 3.237 0 5.265-1.404 6.591-3.432 0 1.989.936 3.198 3.666 3.198h2.223v-3.666h-.858zm-5.46-4.524c-.039 3.081-2.067 5.148-5.577 5.148-2.301 0-3.705-1.17-3.705-2.847 0-2.028 1.443-3.003 4.056-3.003h5.226v.702zm18.713-11.778c-3.276 0-4.875 1.326-5.889 3.003l-.468-3.003h-3.744V28h4.212V17.977c0-3.081 1.209-6.006 4.953-6.006h1.872V8.032h-.936zM202.056 28h4.212V.7h-4.212V28zm14.113.117l-.78 1.95c-.624 1.638-1.014 2.028-2.652 2.028h-2.964V35.8h4.524c2.925 0 3.783-1.443 5.031-4.68l9.048-23.088h-4.485l-5.421 15.171-5.577-15.171h-4.485l7.761 20.085zm34.417-20.085c-3.276 0-4.875 1.326-5.889 3.003l-.468-3.003h-3.744V28h4.212V17.977c0-3.081 1.209-6.006 4.953-6.006h1.872V8.032h-.936zm12.059 20.202c4.953 0 8.307-3.003 9.009-6.942h-4.212c-.585 2.223-2.457 3.51-5.031 3.51-3.315 0-5.46-2.223-5.577-5.616v-.273h15.054c.078-.546.117-1.092.117-1.599-.117-5.85-3.978-9.516-9.75-9.516-5.889 0-9.828 4.095-9.828 10.257 0 6.123 3.939 10.179 10.218 10.179zm-5.655-12.402c.312-2.847 2.613-4.641 5.304-4.641 2.925 0 4.992 1.677 5.343 4.641H256.99zm36.672 8.502c-.858 0-1.287-.273-1.287-1.287v-7.995c0-4.719-3.042-7.254-8.346-7.254-5.031 0-8.385 2.418-8.814 6.318h4.134c.312-1.755 1.989-2.925 4.485-2.925 2.769 0 4.368 1.365 4.368 3.588v1.209h-5.031c-5.577 0-8.541 2.301-8.541 6.396 0 3.705 3.042 5.85 7.41 5.85 3.237 0 5.265-1.404 6.591-3.432 0 1.989.936 3.198 3.666 3.198h2.223v-3.666h-.858zm-5.46-4.524c-.039 3.081-2.067 5.148-5.577 5.148-2.301 0-3.705-1.17-3.705-2.847 0-2.028 1.443-3.003 4.056-3.003h5.226v.702zm23.631-9.009c-1.287-1.755-3.432-3.003-6.474-3.003-5.421 0-9.438 4.056-9.438 10.218 0 6.396 4.017 10.218 9.438 10.218 3.159 0 5.226-1.482 6.513-3.237l.507 3.003h3.666V.7h-4.212v10.101zm-5.772 13.884c-3.51 0-5.811-2.73-5.811-6.669 0-3.9 2.301-6.63 5.811-6.63s5.811 2.73 5.811 6.708c0 3.861-2.301 6.591-5.811 6.591zm19.872 3.432l-.78 1.95c-.624 1.638-1.014 2.028-2.652 2.028h-2.964V35.8h4.524c2.925 0 3.783-1.443 5.031-4.68l9.048-23.088h-4.485l-5.421 15.171-5.577-15.171h-4.485l7.761 20.085zm25.759-5.538c0 3.627 1.638 5.421 5.46 5.421h3.9v-3.705h-2.964c-1.599 0-2.145-.585-2.145-2.145V11.737h4.875V8.032h-4.875V2.455h-4.251v5.577h-3.471v3.705h3.471v10.842zm21.058 5.655c6.084 0 10.179-4.095 10.179-10.218 0-6.084-4.095-10.218-10.179-10.218-6.084 0-10.179 4.134-10.179 10.218 0 6.123 4.095 10.218 10.179 10.218zm0-3.588c-3.549 0-5.85-2.769-5.85-6.63 0-3.861 2.301-6.63 5.85-6.63 3.549 0 5.889 2.769 5.889 6.63 0 3.861-2.34 6.63-5.889 6.63zm24.988-2.067c0 3.627 1.638 5.421 5.46 5.421h3.9v-3.705h-2.964c-1.599 0-2.145-.585-2.145-2.145V11.737h4.875V8.032h-4.875V2.455h-4.251v5.577h-3.471v3.705h3.471v10.842zm22.14-14.547c-3.276 0-4.875 1.326-5.889 3.003l-.468-3.003h-3.744V28h4.212V17.977c0-3.081 1.209-6.006 4.953-6.006h1.872V8.032h-.936zm21.176 16.302c-.858 0-1.287-.273-1.287-1.287v-7.995c0-4.719-3.042-7.254-8.346-7.254-5.031 0-8.385 2.418-8.814 6.318h4.134c.312-1.755 1.989-2.925 4.485-2.925 2.769 0 4.368 1.365 4.368 3.588v1.209h-5.031c-5.577 0-8.541 2.301-8.541 6.396 0 3.705 3.042 5.85 7.41 5.85 3.237 0 5.265-1.404 6.591-3.432 0 1.989.936 3.198 3.666 3.198h2.223v-3.666h-.858zm-5.46-4.524c-.039 3.081-2.067 5.148-5.577 5.148-2.301 0-3.705-1.17-3.705-2.847 0-2.028 1.443-3.003 4.056-3.003h5.226v.702zm23.631-9.009c-1.287-1.755-3.432-3.003-6.474-3.003-5.421 0-9.438 4.056-9.438 10.218 0 6.396 4.017 10.218 9.438 10.218 3.159 0 5.226-1.482 6.513-3.237l.507 3.003h3.666V.7h-4.212v10.101zm-5.772 13.884c-3.51 0-5.811-2.73-5.811-6.669 0-3.9 2.301-6.63 5.811-6.63s5.811 2.73 5.811 6.708c0 3.861-2.301 6.591-5.811 6.591zm23.577 3.549c4.953 0 8.307-3.003 9.009-6.942h-4.212c-.585 2.223-2.457 3.51-5.031 3.51-3.315 0-5.46-2.223-5.577-5.616v-.273h15.054c.078-.546.117-1.092.117-1.599-.117-5.85-3.978-9.516-9.75-9.516-5.889 0-9.828 4.095-9.828 10.257 0 6.123 3.939 10.179 10.218 10.179zm-5.655-12.402c.312-2.847 2.613-4.641 5.304-4.641 2.925 0 4.992 1.677 5.343 4.641h-10.647z" fill="#000"/></svg>