<svg width="266" height="75" viewBox="0 0 266 75" fill="none" xmlns="http://www.w3.org/2000/svg"><path d="M6.094 16c4.136 0 7.744-2.442 7.744-7.7 0-5.038-3.366-7.7-7.788-7.7H1.188A.197.197 0 00.99.798l.088 7.304-.088 7.7c0 .11.088.198.198.198h4.906zM3.036 8.058c0-1.386.066-5.786.066-5.808h3.08c3.058 0 5.544 1.98 5.544 6.05 0 4.268-2.728 6.05-5.456 6.05H3.102c0-.022-.066-4.862-.066-6.292zM18.09 3.372c.11 0 .198-.088.198-.198V1.37a.197.197 0 00-.198-.198h-1.65a.197.197 0 00-.198.198v1.804c0 .11.088.198.198.198h1.65zm0 12.628c.11 0 .198-.088.198-.198l-.044-5.654.044-5.28a.197.197 0 00-.198-.198h-1.65a.197.197 0 00-.198.198l.044 5.302-.044 5.632c0 .11.088.198.198.198h1.65zm12.313-3.256c0-4.752-7.634-2.31-7.634-5.126 0-1.254.99-1.826 2.53-1.826 1.628 0 2.728.66 2.86 2.09.022.11.11.198.22.198h1.474c.11 0 .198-.088.198-.198-.176-2.354-2.09-3.454-4.73-3.454-2.684 0-4.466 1.144-4.466 3.322 0 4.576 7.634 2.178 7.634 5.148 0 1.254-1.1 1.958-2.772 1.958-2.024 0-3.102-.792-3.19-2.574a.197.197 0 00-.198-.198h-1.54a.197.197 0 00-.198.198c.088 2.64 2.046 3.96 5.06 3.96 2.706 0 4.752-1.276 4.752-3.498zm12.084-.814c.022-.11-.066-.198-.176-.198h-1.474c-.11 0-.198.088-.22.198-.198 1.826-1.342 2.86-3.036 2.86-2.222-.022-3.278-1.562-3.278-4.444 0-2.816 1.056-4.444 3.278-4.444 1.518 0 2.618.836 2.926 2.486.022.11.11.198.22.198h1.452c.11 0 .198-.088.176-.198-.242-2.376-1.958-3.982-4.774-3.982-3.432 0-5.346 2.398-5.346 5.962 0 3.564 1.914 5.896 5.302 5.896 2.926 0 4.73-1.826 4.95-4.334zm12.515-1.606c0-3.564-1.914-5.918-5.368-5.918-3.432 0-5.368 2.376-5.368 5.962 0 3.564 1.936 5.896 5.368 5.896 3.454 0 5.368-2.376 5.368-5.94zm-8.69.044c0-2.838 1.078-4.466 3.322-4.488 2.2 0 3.3 1.65 3.3 4.488 0 2.838-1.078 4.422-3.3 4.422-2.222 0-3.322-1.584-3.322-4.422zm20.082-5.522c.022-.088-.022-.176-.132-.176h-1.54c-.11 0-.22.088-.264.198l-3.278 9.46-3.19-9.46c-.044-.11-.154-.198-.264-.198h-1.782c-.088 0-.154.088-.132.176l4.048 11c.044.088.154.176.264.176h2.024c.11 0 .22-.088.264-.176l3.982-11zm9.505 7.216c-.11 0-.22.088-.242.198-.33 1.65-1.342 2.53-3.014 2.53-2.222 0-3.344-1.452-3.41-4.18h8.36c.11 0 .198-.088.198-.198-.066-3.762-2.002-6.006-5.28-6.006-3.278 0-5.302 2.42-5.302 5.962 0 3.454 1.892 5.896 5.412 5.896 2.904 0 4.62-1.694 4.972-4.004 0-.11-.066-.198-.176-.198H75.9zm-.264-2.86H69.3c.286-2.134 1.364-3.344 3.234-3.344 2.002 0 3.036 1.54 3.102 3.344zM81.826 16c.11 0 .198-.088.198-.198l-.022-5.94c.242-2.486 1.892-3.652 3.806-3.652.242 0 .462.022.638.044a.165.165 0 00.198-.154V4.868c0-.11-.088-.22-.198-.242a3.048 3.048 0 00-.66-.066c-1.584 0-3.036.77-3.85 2.222l.088-1.914a.197.197 0 00-.198-.198h-1.628a.197.197 0 00-.198.198l.066 5.346L80 15.802c0 .11.088.198.198.198h1.628zM100.5 8.982l.022 2.464-.066 4.356c0 .11.088.198.198.198h1.672c.11 0 .198-.088.198-.198l-.066-4.378.022-2.288c.022-3.256-1.452-4.73-3.85-4.73-1.76 0-2.97.924-3.674 2.09L95 .798A.197.197 0 0094.801.6h-1.606a.197.197 0 00-.198.198l.066 7.392-.066 7.612c0 .11.088.198.198.198h1.606c.11 0 .198-.088.198-.198l-.066-6.6c.484-2.024 1.738-3.212 3.212-3.212 1.364 0 2.354.88 2.354 2.992zm14.891 1.342c0-3.564-1.914-5.918-5.368-5.918-3.432 0-5.368 2.376-5.368 5.962 0 3.564 1.936 5.896 5.368 5.896 3.454 0 5.368-2.376 5.368-5.94zm-8.69.044c0-2.838 1.078-4.466 3.322-4.488 2.2 0 3.3 1.65 3.3 4.488 0 2.838-1.078 4.422-3.3 4.422-2.222 0-3.322-1.584-3.322-4.422zM128.581 16c.11 0 .22-.088.242-.198l2.772-10.934c.022-.11-.044-.198-.154-.198h-1.452c-.11 0-.22.088-.242.198l-2.134 9.306-2.244-9.306a.258.258 0 00-.242-.198h-2.002c-.11 0-.22.088-.242.198l-2.178 9.438-2.2-9.438a.258.258 0 00-.242-.198h-1.628a.165.165 0 00-.154.198l2.948 10.934c.022.11.132.198.242.198h1.914c.11 0 .22-.088.242-.198l2.156-9.46 2.398 9.46c.022.11.132.198.242.198h1.958zm21.368-4.51c0-6.028-10.032-2.992-10.032-6.952 0-1.738 1.452-2.53 3.586-2.53 2.486 0 3.784.99 3.96 2.97.022.11.11.198.22.198h1.738c.11 0 .198-.088.176-.198-.33-3.168-2.508-4.642-6.028-4.642-3.41 0-5.654 1.584-5.654 4.4 0 5.874 10.032 2.772 10.032 7.018 0 2.024-1.628 2.86-3.894 2.86-3.014 0-4.114-1.408-4.312-3.718-.022-.11-.11-.198-.22-.198h-1.716a.197.197 0 00-.198.198c.154 3.498 2.464 5.368 6.38 5.368 3.498 0 5.962-1.606 5.962-4.774zm7.91 3.124c0-.088-.088-.176-.198-.132a5.686 5.686 0 01-1.166.132c-.968 0-1.43-.418-1.43-1.782v-6.6h2.596c.11 0 .198-.088.198-.198V4.868a.197.197 0 00-.198-.198h-2.596l.022-2.64a.197.197 0 00-.198-.198h-1.628a.197.197 0 00-.198.198l.022 2.64h-1.254a.197.197 0 00-.198.198v1.166c0 .11.088.198.198.198h1.254v6.644c0 2.464 1.386 3.322 3.036 3.322.528 0 1.1-.132 1.54-.264.11-.044.198-.154.198-.264v-1.056zm11.925-4.29c0-3.564-1.914-5.918-5.368-5.918-3.432 0-5.368 2.376-5.368 5.962 0 3.564 1.936 5.896 5.368 5.896 3.454 0 5.368-2.376 5.368-5.94zm-8.69.044c0-2.838 1.078-4.466 3.322-4.488 2.2 0 3.3 1.65 3.3 4.488 0 2.838-1.078 4.422-3.3 4.422-2.222 0-3.322-1.584-3.322-4.422zM173.88 16c.11 0 .198-.088.198-.198l-.022-4.642V9.444c.44-2.244 1.628-3.432 3.124-3.432 1.408 0 2.398.924 2.398 2.97v2.178l-.044 4.642c0 .11.088.198.198.198h1.628c.11 0 .198-.088.198-.198l-.044-4.642V8.894c0-2.948-1.452-4.488-3.784-4.488-1.804 0-3.08 1.034-3.784 2.178l.066-1.716a.197.197 0 00-.198-.198h-1.562a.197.197 0 00-.198.198l.044 5.962-.066 4.972c0 .11.088.198.198.198h1.65zm18.498-3.938c-.11 0-.22.088-.242.198-.33 1.65-1.342 2.53-3.014 2.53-2.222 0-3.344-1.452-3.41-4.18h8.36c.11 0 .198-.088.198-.198-.066-3.762-2.002-6.006-5.28-6.006-3.278 0-5.302 2.42-5.302 5.962 0 3.454 1.892 5.896 5.412 5.896 2.904 0 4.62-1.694 4.972-4.004 0-.11-.066-.198-.176-.198h-1.518zm-.264-2.86h-6.336c.286-2.134 1.364-3.344 3.234-3.344 2.002 0 3.036 1.54 3.102 3.344zM207.713 16c.088 0 .132-.088.088-.176l-5.082-7.898 4.51-7.15c.044-.088 0-.176-.088-.176h-1.892a.38.38 0 00-.308.176l-3.366 5.412-3.388-5.412a.38.38 0 00-.308-.176h-2.068c-.088 0-.132.088-.088.176l4.598 7.084-5.06 7.964c-.044.088 0 .176.088.176h1.892a.38.38 0 00.308-.176l3.916-6.292 3.872 6.292a.38.38 0 00.308.176h2.068zm16.367-4.07c.022-.11-.066-.198-.176-.198h-1.474c-.11 0-.198.088-.22.198-.198 1.826-1.342 2.86-3.036 2.86-2.222-.022-3.278-1.562-3.278-4.444 0-2.816 1.056-4.444 3.278-4.444 1.518 0 2.618.836 2.926 2.486.022.11.11.198.22.198h1.452c.11 0 .198-.088.176-.198-.242-2.376-1.958-3.982-4.774-3.982-3.432 0-5.346 2.398-5.346 5.962 0 3.564 1.914 5.896 5.302 5.896 2.926 0 4.73-1.826 4.95-4.334zm12.515-1.606c0-3.564-1.914-5.918-5.368-5.918-3.432 0-5.368 2.376-5.368 5.962 0 3.564 1.936 5.896 5.368 5.896 3.454 0 5.368-2.376 5.368-5.94zm-8.69.044c0-2.838 1.078-4.466 3.322-4.488 2.2 0 3.3 1.65 3.3 4.488 0 2.838-1.078 4.422-3.3 4.422-2.222 0-3.322-1.584-3.322-4.422zm18.441 3.696l-.044 1.738c0 .11.088.198.198.198h1.562c.11 0 .198-.088.198-.198l-.044-5.962.066-4.972a.197.197 0 00-.198-.198h-1.672a.197.197 0 00-.198.198l.044 4.642v1.716c-.44 2.244-1.65 3.432-3.124 3.432-1.43 0-2.398-.924-2.398-2.97V9.51l.044-4.642a.197.197 0 00-.198-.198h-1.65a.197.197 0 00-.198.198l.044 4.642v2.244c0 2.97 1.474 4.51 3.806 4.51 1.804 0 3.08-1.034 3.762-2.2zM252.809 16c.11 0 .198-.088.198-.198l-.088-7.612.088-7.392a.197.197 0 00-.198-.198h-1.628a.197.197 0 00-.198.198l.088 7.414-.088 7.59c0 .11.088.198.198.198h1.628zm4.57-5.786c0-2.552 1.012-4.356 3.19-4.334 2.002.022 3.146 1.694 3.124 4.554-.022 2.882-1.232 4.334-3.168 4.334-2.134 0-3.146-1.826-3.146-4.554zm8.03 5.786c.11 0 .198-.088.198-.198l-.044-8.338.044-6.666a.197.197 0 00-.198-.198h-1.628a.197.197 0 00-.198.198l.022 5.544c-.77-1.232-1.98-1.892-3.542-1.892-2.992 0-4.73 2.64-4.73 5.918 0 3.3 1.628 5.852 4.686 5.852 1.628 0 2.86-.748 3.608-2.002l-.044 1.584c0 .11.088.198.198.198h1.628zM8.382 37.982l.022 2.464-.066 4.356c0 .11.088.198.198.198h1.672c.11 0 .198-.088.198-.198l-.066-4.378.022-2.288c.022-3.256-1.452-4.73-3.85-4.73-1.76 0-2.97.924-3.674 2.09l.044-5.698a.197.197 0 00-.198-.198H1.078a.197.197 0 00-.198.198l.066 7.392-.066 7.612c0 .11.088.198.198.198h1.606c.11 0 .198-.088.198-.198l-.066-6.6c.484-2.024 1.738-3.212 3.212-3.212 1.364 0 2.354.88 2.354 2.992zm12.822 3.08c-.11 0-.22.088-.242.198-.33 1.65-1.342 2.53-3.014 2.53-2.222 0-3.344-1.452-3.41-4.18h8.36c.11 0 .198-.088.198-.198-.066-3.762-2.002-6.006-5.28-6.006-3.278 0-5.302 2.42-5.302 5.962 0 3.454 1.892 5.896 5.412 5.896 2.904 0 4.62-1.694 4.972-4.004 0-.11-.066-.198-.176-.198h-1.518zm-.264-2.86h-6.336c.286-2.134 1.364-3.344 3.234-3.344 2.002 0 3.036 1.54 3.102 3.344zM27.241 45c.11 0 .198-.088.198-.198l-.087-7.612.087-7.392a.197.197 0 00-.198-.198h-1.628a.197.197 0 00-.197.198l.087 7.414-.087 7.59c0 .11.087.198.197.198h1.628zm4.812-5.764c.022-2.838 1.232-4.312 3.168-4.312 2.156 0 3.168 1.826 3.168 4.532 0 2.53-1.012 4.29-3.212 4.29-2.002 0-3.146-1.65-3.124-4.51zm8.36.066c0-3.3-1.628-5.852-4.686-5.852-1.628 0-2.86.77-3.608 2.046l.044-1.628a.197.197 0 00-.198-.198h-1.628a.197.197 0 00-.198.198l.066 6.204-.066 8.47c0 .11.088.198.198.198h1.672c.11 0 .198-.088.198-.198l-.044-5.236c.748 1.254 1.958 1.914 3.542 1.914 2.992 0 4.708-2.64 4.708-5.918zm16.005-5.434c.044-.11-.022-.198-.132-.198h-1.672c-.11 0-.22.088-.264.198l-2.706 8.536-3.212-8.558c-.044-.088-.154-.176-.264-.176h-1.87c-.088 0-.154.088-.132.176l4.444 11.176-1.21 3.52c-.044.11.044.198.132.198h1.518c.11 0 .22-.088.264-.198l5.104-14.674zm11.56 5.456c0-3.564-1.915-5.918-5.369-5.918-3.432 0-5.368 2.376-5.368 5.962 0 3.564 1.936 5.896 5.368 5.896 3.454 0 5.368-2.376 5.368-5.94zm-8.69.044c0-2.838 1.077-4.466 3.321-4.488 2.2 0 3.3 1.65 3.3 4.488 0 2.838-1.078 4.422-3.3 4.422-2.222 0-3.322-1.584-3.322-4.422zm18.44 3.696l-.044 1.738c0 .11.088.198.198.198h1.562c.11 0 .198-.088.198-.198l-.044-5.962.066-4.972a.197.197 0 00-.198-.198h-1.672a.197.197 0 00-.198.198l.044 4.642v1.716c-.44 2.244-1.65 3.432-3.124 3.432-1.43 0-2.398-.924-2.398-2.97V38.51l.044-4.642a.197.197 0 00-.198-.198h-1.65a.197.197 0 00-.198.198l.044 4.642v2.244c0 2.97 1.474 4.51 3.806 4.51 1.804 0 3.08-1.034 3.762-2.2zm11.299-4.62c.44-2.178 1.496-3.432 2.816-3.432 1.342 0 2.178.858 2.178 2.97v2.596l-.044 4.224c0 .11.088.198.198.198h1.65c.11 0 .198-.088.198-.198l-.044-4.224V37.96c.484-1.87 1.496-2.948 2.706-2.948 1.32 0 2.178.858 2.178 2.97v2.596l-.066 4.224c0 .11.088.198.198.198h1.672c.11 0 .198-.088.198-.198l-.044-4.224v-2.684c0-3.08-1.32-4.488-3.542-4.488-1.606 0-2.772.836-3.564 2.376-.506-1.628-1.65-2.376-3.278-2.376-1.694 0-2.794.99-3.498 2.178l.066-1.716a.197.197 0 00-.198-.198h-1.584a.197.197 0 00-.198.198l.044 6.71-.066 4.224c0 .11.088.198.198.198h1.694c.11 0 .198-.088.198-.198l-.066-4.224v-2.134zm24.638 2.618c-.11 0-.22.088-.242.198-.33 1.65-1.342 2.53-3.014 2.53-2.222 0-3.344-1.452-3.41-4.18h8.36c.11 0 .198-.088.198-.198-.066-3.762-2.002-6.006-5.28-6.006-3.278 0-5.302 2.42-5.302 5.962 0 3.454 1.892 5.896 5.412 5.896 2.904 0 4.62-1.694 4.972-4.004 0-.11-.066-.198-.176-.198h-1.518zm-.264-2.86h-6.336c.286-2.134 1.364-3.344 3.234-3.344 2.002 0 3.036 1.54 3.102 3.344zm12.682 2.86c-.11 0-.22.088-.242.198-.33 1.65-1.342 2.53-3.014 2.53-2.222 0-3.344-1.452-3.41-4.18h8.36c.11 0 .198-.088.198-.198-.066-3.762-2.002-6.006-5.28-6.006-3.278 0-5.302 2.42-5.302 5.962 0 3.454 1.892 5.896 5.412 5.896 2.904 0 4.62-1.694 4.972-4.004 0-.11-.066-.198-.176-.198h-1.518zm-.264-2.86h-6.336c.286-2.134 1.364-3.344 3.234-3.344 2.002 0 3.036 1.54 3.102 3.344zm9.762 5.412c0-.088-.088-.176-.198-.132a5.686 5.686 0 01-1.166.132c-.968 0-1.43-.418-1.43-1.782v-6.6h2.596c.11 0 .198-.088.198-.198v-1.166a.197.197 0 00-.198-.198h-2.596l.022-2.64a.197.197 0 00-.198-.198h-1.628a.197.197 0 00-.198.198l.022 2.64h-1.254a.197.197 0 00-.198.198v1.166c0 .11.088.198.198.198h1.254v6.644c0 2.464 1.386 3.322 3.036 3.322.528 0 1.1-.132 1.54-.264.11-.044.198-.154.198-.264v-1.056zm15.983-9.746c.044-.11-.022-.198-.132-.198h-1.672c-.11 0-.22.088-.264.198l-2.706 8.536-3.212-8.558c-.044-.088-.154-.176-.264-.176h-1.87c-.088 0-.154.088-.132.176l4.444 11.176-1.21 3.52c-.044.11.044.198.132.198h1.518c.11 0 .22-.088.264-.198l5.104-14.674zm11.56 5.456c0-3.564-1.914-5.918-5.368-5.918-3.432 0-5.368 2.376-5.368 5.962 0 3.564 1.936 5.896 5.368 5.896 3.454 0 5.368-2.376 5.368-5.94zm-8.69.044c0-2.838 1.078-4.466 3.322-4.488 2.2 0 3.3 1.65 3.3 4.488 0 2.838-1.078 4.422-3.3 4.422-2.222 0-3.322-1.584-3.322-4.422zm18.44 3.696l-.044 1.738c0 .11.088.198.198.198h1.562c.11 0 .198-.088.198-.198l-.044-5.962.066-4.972a.197.197 0 00-.198-.198h-1.672a.197.197 0 00-.198.198l.044 4.642v1.716c-.44 2.244-1.65 3.432-3.124 3.432-1.43 0-2.398-.924-2.398-2.97V38.51l.044-4.642a.197.197 0 00-.198-.198h-1.65a.197.197 0 00-.198.198l.044 4.642v2.244c0 2.97 1.474 4.51 3.806 4.51 1.804 0 3.08-1.034 3.762-2.2zM179.228 45c.11 0 .198-.088.198-.198l-.022-5.94c.242-2.486 1.892-3.652 3.806-3.652.242 0 .462.022.638.044a.165.165 0 00.198-.154v-1.232c0-.11-.088-.22-.198-.242a3.048 3.048 0 00-.66-.066c-1.584 0-3.036.77-3.85 2.222l.088-1.914a.197.197 0 00-.198-.198H177.6a.197.197 0 00-.198.198l.066 5.346-.066 5.588c0 .11.088.198.198.198h1.628zm21.797 0c.132 0 .242-.11.242-.242v-2.002a.244.244 0 00-.242-.242h-7.282l-.11-4.4h6.578c.132 0 .242-.11.242-.242V35.87a.244.244 0 00-.242-.242h-6.578l.11-3.542h7.106c.132 0 .242-.11.242-.242v-2.002a.244.244 0 00-.242-.242h-10.296a.244.244 0 00-.242.242l.132 7.458-.132 7.458c0 .132.11.242.242.242h10.472zm15.306-4.664c0-6.094-9.878-3.432-9.878-6.71 0-1.276 1.144-1.826 2.728-1.826 1.848 0 2.97.748 3.168 2.112.022.154.132.242.286.242h3.014c.132 0 .22-.11.22-.242-.484-3.256-2.97-4.642-6.556-4.642-3.938 0-6.182 1.804-6.182 4.686 0 6.116 9.834 3.366 9.834 6.842 0 1.452-1.1 2.046-3.102 2.046-2.508 0-3.3-1.1-3.52-2.794-.022-.132-.132-.242-.264-.242h-3.014a.244.244 0 00-.242.242c.176 3.608 2.948 5.302 6.974 5.302s6.534-1.76 6.534-5.016zm16.493-3.454a.244.244 0 00-.242-.242h-7.128a.244.244 0 00-.242.242v1.98c0 .132.11.242.242.242h3.784c-.088 2.376-1.474 3.674-3.674 3.674-2.728 0-4.246-2.09-4.246-5.434 0-3.41 1.43-5.544 4.114-5.544 1.87 0 3.08.88 3.586 2.552a.324.324 0 00.308.242h2.97c.132 0 .22-.11.176-.242-.814-3.212-3.256-5.082-7.062-5.082-4.51 0-7.546 3.168-7.546 8.03 0 4.774 3.102 8.03 7.634 8.03 4.708 0 7.37-2.772 7.326-8.448zM11.462 69.886c.022-.132-.088-.242-.22-.242h-2.64c-.132 0-.242.11-.264.242-.154 1.452-.99 2.222-2.09 2.2-1.65-.022-2.464-1.144-2.464-3.74 0-2.508.792-3.718 2.464-3.74.924 0 1.738.616 1.98 1.848a.283.283 0 00.286.242h2.574c.132 0 .242-.11.22-.242-.286-2.442-2.156-4.07-5.06-4.07-3.696 0-5.852 2.376-5.852 5.984s2.156 5.918 5.786 5.918c2.948 0 5.016-1.848 5.28-4.4zm13.203-1.584c0-3.608-2.09-5.918-5.786-5.918-3.696 0-5.83 2.376-5.83 5.984s2.134 5.918 5.83 5.918 5.786-2.376 5.786-5.984zm-8.25.088c0-2.552.77-3.784 2.442-3.806 1.628 0 2.42 1.232 2.42 3.784 0 2.596-.77 3.718-2.398 3.718-1.65 0-2.464-1.144-2.464-3.696zm13.497-.044c0-2.31 1.078-3.52 2.002-3.52.924 0 1.474.66 1.474 2.024v3.08l-.088 3.828c0 .132.11.242.242.242h2.904c.132 0 .242-.11.242-.242L36.6 69.93v-1.584c0-2.31 1.1-3.52 2.002-3.52.902 0 1.474.66 1.474 2.024v3.08l-.088 3.828c0 .132.11.242.242.242h2.904c.132 0 .242-.11.242-.242l-.066-3.828v-3.124c0-3.014-1.32-4.4-3.608-4.4-1.342 0-2.486.418-3.454 2.134-.528-1.452-1.65-2.134-3.234-2.134-1.452 0-2.464.594-3.256 1.694l.044-1.188c.022-.132-.088-.242-.22-.242h-2.728a.244.244 0 00-.242.242l.044 7.018-.088 3.828c0 .132.11.242.242.242h2.948c.132 0 .242-.11.242-.242l-.088-3.828v-1.584zm18.884 0c0-2.31 1.078-3.52 2.002-3.52.924 0 1.474.66 1.474 2.024v3.08l-.088 3.828c0 .132.11.242.242.242h2.904c.132 0 .242-.11.242-.242l-.088-3.828v-1.584c0-2.31 1.1-3.52 2.002-3.52.902 0 1.474.66 1.474 2.024v3.08l-.088 3.828c0 .132.11.242.242.242h2.904c.132 0 .242-.11.242-.242l-.066-3.828v-3.124c0-3.014-1.32-4.4-3.608-4.4-1.342 0-2.486.418-3.454 2.134-.528-1.452-1.65-2.134-3.234-2.134-1.452 0-2.464.594-3.256 1.694l.044-1.188c.022-.132-.088-.242-.22-.242h-2.728a.244.244 0 00-.242.242l.044 7.018-.088 3.828c0 .132.11.242.242.242h2.948c.132 0 .242-.11.242-.242l-.088-3.828v-1.584zm18.752-6.776c.132 0 .242-.11.242-.242v-2.486a.244.244 0 00-.242-.242h-2.86a.244.244 0 00-.242.242v2.486c0 .132.11.242.242.242h2.86zM67.57 74c.132 0 .242-.11.242-.242l-.088-5.412.088-5.434a.244.244 0 00-.242-.242h-2.904a.244.244 0 00-.242.242l.088 5.434-.088 5.412c0 .132.11.242.242.242h2.904zm9.498-2.134c0-.11-.11-.198-.242-.176-.33.088-.726.176-1.232.176-.726 0-1.21-.308-1.21-1.276l-.022-5.588h2.486c.132 0 .242-.11.242-.242v-1.848a.244.244 0 00-.242-.242h-2.464l.022-2.596a.244.244 0 00-.242-.242h-2.86a.244.244 0 00-.242.242l.022 2.596h-1.21a.244.244 0 00-.242.242v1.848c0 .132.11.242.242.242h1.232l-.022 5.676c0 2.574 1.826 3.542 3.74 3.542.682 0 1.386-.154 2.024-.352a.4.4 0 00.22-.33v-1.672zm5.176-3.52c0-2.31 1.078-3.52 2.002-3.52.924 0 1.474.66 1.474 2.024v3.08l-.088 3.828c0 .132.11.242.242.242h2.904c.132 0 .242-.11.242-.242l-.088-3.828v-1.584c0-2.31 1.1-3.52 2.002-3.52.902 0 1.474.66 1.474 2.024v3.08l-.088 3.828c0 .132.11.242.242.242h2.904c.132 0 .242-.11.242-.242l-.066-3.828v-3.124c0-3.014-1.32-4.4-3.608-4.4-1.342 0-2.486.418-3.454 2.134-.528-1.452-1.65-2.134-3.234-2.134-1.452 0-2.464.594-3.256 1.694l.044-1.188c.022-.132-.088-.242-.22-.242h-2.728a.244.244 0 00-.242.242l.044 7.018-.088 3.828c0 .132.11.242.242.242h2.948c.132 0 .242-.11.242-.242l-.088-3.828v-1.584zm23.658 1.826a.283.283 0 00-.286.242c-.308 1.188-1.1 1.672-2.2 1.672-1.584 0-2.42-.946-2.552-3.08h8.052c.132 0 .242-.11.242-.242-.088-3.938-2.134-6.38-5.852-6.38-3.608 0-5.764 2.376-5.764 5.984 0 3.432 2.046 5.918 5.83 5.918 3.146 0 5.126-1.804 5.434-3.872.022-.132-.088-.242-.22-.242h-2.684zm-.308-3.256h-4.642c.264-1.562 1.056-2.354 2.376-2.354 1.452 0 2.134 1.144 2.266 2.354zm8.57 7.084c.132 0 .242-.11.242-.242l-.044-4.576v-.836c0-2.42 1.276-3.52 2.464-3.52.99 0 1.738.792 1.738 2.024v2.332l-.066 4.576c0 .132.11.242.242.242h2.86c.132 0 .242-.11.242-.242l-.066-4.576v-2.376c0-2.772-1.54-4.4-3.938-4.4-1.584 0-2.882.704-3.652 1.694l.044-1.188c.022-.132-.088-.242-.22-.242h-2.706a.244.244 0 00-.242.242l.044 5.654-.088 5.192c0 .132.11.242.242.242h2.904zm16.461-2.134c0-.11-.11-.198-.242-.176-.33.088-.726.176-1.232.176-.726 0-1.21-.308-1.21-1.276l-.022-5.588h2.486c.132 0 .242-.11.242-.242v-1.848a.244.244 0 00-.242-.242h-2.464l.022-2.596a.244.244 0 00-.242-.242h-2.86a.244.244 0 00-.242.242l.022 2.596h-1.21a.244.244 0 00-.242.242v1.848c0 .132.11.242.242.242h1.232l-.022 5.676c0 2.574 1.826 3.542 3.74 3.542.682 0 1.386-.154 2.024-.352a.4.4 0 00.22-.33v-1.672zm12.393-1.32c0-4.818-7.414-2.618-7.414-4.774 0-.968.682-1.364 1.76-1.364 1.32 0 1.936.572 2.112 1.518.044.154.154.242.308.242h2.574c.132 0 .242-.11.22-.242-.22-2.354-2.222-3.52-5.17-3.52-3.058 0-4.95 1.254-4.95 3.608 0 4.752 7.414 2.662 7.414 4.818 0 .88-.704 1.386-2.002 1.386-1.54 0-2.354-.55-2.464-1.782a.244.244 0 00-.242-.242h-2.728a.244.244 0 00-.242.242c.132 2.508 2.354 3.828 5.566 3.828 3.014 0 5.258-1.342 5.258-3.718z" fill="#fff"/></svg>