<svg width="189" height="14" viewBox="0 0 189 14" fill="none" xmlns="http://www.w3.org/2000/svg"><path d="M.272 2.392h2.941v8.141h1.566V2.392h2.94v-1.39H.272v1.39zm11.315 1.17c-1.144 0-1.702.463-2.056 1.049l-.163-1.049H8.06v6.971h1.47V7.034c0-1.075.422-2.097 1.729-2.097h.654V3.562h-.327zm7.392 5.691c-.3 0-.45-.095-.45-.45v-2.79c0-1.647-1.061-2.532-2.913-2.532-1.756 0-2.927.844-3.076 2.205h1.443c.109-.612.694-1.02 1.565-1.02.967 0 1.525.476 1.525 1.252v.422h-1.756c-1.947 0-2.982.803-2.982 2.232 0 1.294 1.062 2.043 2.587 2.043 1.13 0 1.838-.49 2.3-1.198 0 .694.328 1.116 1.28 1.116h.777v-1.28h-.3zm-1.906-1.58c-.014 1.076-.721 1.798-1.947 1.798-.803 0-1.293-.408-1.293-.994 0-.708.504-1.048 1.416-1.048h1.824v.245zm8.25-3.144c-.45-.613-1.199-1.048-2.26-1.048-1.893 0-3.295 1.416-3.295 3.567 0 2.232 1.402 3.567 3.294 3.567 1.103 0 1.825-.518 2.274-1.13l.177 1.048h1.28v-9.53h-1.47v3.526zm-2.015 4.847c-1.226 0-2.03-.953-2.03-2.328 0-1.362.804-2.315 2.03-2.315 1.225 0 2.028.953 2.028 2.342 0 1.348-.803 2.3-2.028 2.3zm8.23 1.239c1.729 0 2.9-1.049 3.145-2.424h-1.47c-.205.776-.858 1.226-1.757 1.226-1.157 0-1.906-.776-1.947-1.96V7.36h5.256c.027-.19.04-.381.04-.558-.04-2.043-1.388-3.322-3.403-3.322-2.056 0-3.431 1.43-3.431 3.58 0 2.138 1.375 3.554 3.567 3.554zm-1.974-4.33c.109-.994.912-1.62 1.851-1.62 1.022 0 1.743.586 1.866 1.62h-3.717zm10.009.164c0 2.709 1.28 4.166 3.744 4.166 2.478 0 3.771-1.457 3.771-4.166V1.003h-1.566V6.53c0 1.77-.68 2.696-2.205 2.696-1.498 0-2.178-.926-2.178-2.696V1.003h-1.566v5.446zm8.82.953c.055 1.906 1.484 3.213 3.853 3.213 2.097 0 3.526-1.185 3.526-2.9.014-1.879-1.524-2.383-3.104-2.669-1.497-.258-2.478-.463-2.478-1.443 0-.898.75-1.361 1.825-1.361 1.157 0 1.92.653 2.042 1.62h1.566c-.069-1.756-1.43-2.94-3.608-2.94-2.029 0-3.39 1.13-3.39 2.79 0 1.893 1.497 2.396 3.077 2.669 1.51.272 2.505.49 2.505 1.497 0 .912-.817 1.416-1.947 1.416-1.334 0-2.206-.749-2.288-1.865l-1.579-.027zm11.998 3.131c2.981 0 4.86-1.947 4.86-4.779s-1.879-4.751-4.86-4.751h-3.24v9.53h3.24zm-1.675-8.169h1.675c2.096 0 3.254 1.348 3.254 3.39s-1.158 3.418-3.254 3.418h-1.675V2.364zm7.821 9.939L70.404.594h-1.43l-3.852 11.709h1.415zm5.811-4.37c0 .83-.34 1.211-1.17 1.211H70.06v1.389h1.47c1.525 0 2.383-.844 2.383-2.369V1.003h-1.566v6.93zm3.31 2.6h1.565V7.075h2.192c1.988 0 3.295-1.198 3.295-3.036 0-1.852-1.307-3.036-3.295-3.036h-3.757v9.53zm3.635-8.169c1.116 0 1.824.64 1.824 1.675 0 1.021-.722 1.674-1.838 1.674h-2.056V2.364h2.07zm6.999 4.643v3.526h1.566V7.007l3.553-6.004h-1.756l-2.573 4.356-2.505-4.356h-1.838l3.553 6.004zm11.005 3.526h1.593l1.524-4.738 1.471 4.738h1.579l2.315-6.97h-1.498l-1.647 5.336-1.525-5.337h-1.348L98.168 8.9l-1.593-5.337h-1.552l2.274 6.971zm10.004-7.95c.504 0 .899-.368.899-.886 0-.517-.395-.885-.899-.885-.503 0-.898.368-.898.885 0 .518.395.885.898.885zm-.748 7.95h1.47v-6.97h-1.47v6.97zm3.415-1.892c0 1.266.572 1.892 1.906 1.892h1.361V9.24h-1.034c-.558 0-.749-.205-.749-.75V4.857h1.702V3.562h-1.702V1.616h-1.484v1.946h-1.212v1.294h1.212V8.64zm7.865-5.16c-1.089 0-1.756.49-2.192 1.089V1.003h-1.47v9.53h1.47V7.007c0-1.402.708-2.26 1.865-2.26 1.089 0 1.675.708 1.675 2.028v3.758h1.47v-3.88c0-2.328-1.266-3.172-2.818-3.172zm11.927 7.134c2.219 0 3.84-1.307 4.139-3.322h-1.62c-.3 1.211-1.212 1.947-2.532 1.947-1.797 0-2.887-1.444-2.887-3.472 0-2.042 1.117-3.472 2.928-3.472 1.293 0 2.191.749 2.505 1.947h1.62c-.313-2.015-1.879-3.322-4.057-3.322-2.819 0-4.602 1.947-4.602 4.847 0 2.927 1.729 4.847 4.506 4.847zm6.033-8.033c.504 0 .899-.367.899-.885 0-.517-.395-.885-.899-.885-.503 0-.898.368-.898.885 0 .518.395.885.898.885zm-.749 7.951h1.471v-6.97h-1.471v6.97zm3.416-1.892c0 1.266.572 1.892 1.906 1.892h1.361V9.24h-1.034c-.559 0-.749-.205-.749-.75V4.857h1.702V3.562h-1.702V1.616h-1.484v1.946h-1.212v1.294h1.212V8.64zm6.218 1.933l-.273.68c-.218.572-.354.709-.925.709h-1.035v1.293h1.579c1.021 0 1.321-.504 1.756-1.634l3.159-8.06h-1.566l-1.892 5.296-1.947-5.296h-1.566l2.71 7.012zm8.638-.041h1.565v-9.53h-1.565v9.53zm6.836-7.052c-1.13 0-1.797.449-2.232.994l-.164-.913h-1.279v6.971h1.47V7.02c0-1.415.694-2.273 1.865-2.273 1.103 0 1.661.708 1.661 2.028v3.758h1.484v-3.88c0-2.328-1.266-3.172-2.805-3.172zm9.385 1.048c-.449-.613-1.198-1.048-2.26-1.048-1.892 0-3.295 1.416-3.295 3.567 0 2.232 1.403 3.567 3.295 3.567 1.103 0 1.824-.518 2.274-1.13l.177 1.048h1.279v-9.53h-1.47v3.526zm-2.015 4.847c-1.225 0-2.028-.953-2.028-2.328 0-1.362.803-2.315 2.028-2.315s2.029.953 2.029 2.342c0 1.348-.804 2.3-2.029 2.3zm8.231 1.239c1.729 0 2.899-1.049 3.144-2.424h-1.47c-.204.776-.858 1.226-1.756 1.226-1.157 0-1.906-.776-1.947-1.96V7.36h5.255a4.03 4.03 0 00.041-.558c-.041-2.043-1.389-3.322-3.404-3.322-2.055 0-3.43 1.43-3.43 3.58 0 2.138 1.375 3.554 3.567 3.554zm-1.975-4.33c.109-.994.913-1.62 1.852-1.62 1.021 0 1.743.586 1.865 1.62h-3.717zm5.39 4.248h1.62l1.838-2.532 1.824 2.532h1.716l-2.628-3.567 2.478-3.404h-1.62l-1.702 2.356-1.661-2.356h-1.715l2.464 3.404-2.614 3.567zm7.499-.844c0 .544.395.926.939.926.545 0 .953-.382.953-.926 0-.545-.408-.926-.953-.926-.544 0-.939.381-.939.926z" fill="url(#paint0_linear_101_87)"/><defs><linearGradient id="paint0_linear_101_87" x1="192" y1="6.533" x2="0" y2="6.533" gradientUnits="userSpaceOnUse"><stop stop-color="#FF4343"/><stop offset=".5" stop-color="#9C0B93"/><stop offset="1" stop-color="#4C1BB7"/></linearGradient></defs></svg>