<svg width="140" height="33" viewBox="0 0 140 33" fill="none" xmlns="http://www.w3.org/2000/svg"><rect width="140" height="33" rx="16.5" fill="#000"/><path d="M31.006 23v-1.52h-6.061V9.7h-1.653V23h7.714zm5.392.114c2.242 0 3.838-1.425 4.218-3.363H39.04c-.323 1.254-1.387 1.976-2.755 1.976-1.843 0-3.002-1.292-3.059-3.135v-.133h7.524c.02-.228.038-.456.038-.665-.076-2.869-1.862-4.598-4.598-4.598-2.736 0-4.598 2.014-4.598 4.959 0 2.964 1.9 4.959 4.807 4.959zm-3.078-5.947c.152-1.577 1.463-2.603 2.888-2.603 1.615 0 2.755.931 2.907 2.603H33.32zm17.814 4.408c-.437 0-.627-.133-.627-.646v-4.237c0-2.261-1.425-3.496-3.895-3.496-2.337 0-3.876 1.121-4.104 3.021h1.558c.19-.988 1.102-1.634 2.47-1.634 1.52 0 2.413.76 2.413 2.014v.665h-2.85c-2.546 0-3.895 1.083-3.895 3.021 0 1.767 1.444 2.831 3.572 2.831 1.672 0 2.641-.741 3.249-1.615.019.95.456 1.501 1.748 1.501h.855v-1.425h-.494zm-2.185-2.527c0 1.615-1.121 2.736-3.059 2.736-1.292 0-2.109-.646-2.109-1.596 0-1.102.779-1.615 2.166-1.615h3.002v.475zm8.36-5.738c-1.728 0-2.47.722-2.925 1.463l-.21-1.463h-1.348V23h1.558v-4.94c0-1.539.55-3.23 2.584-3.23h.779v-1.52h-.437zm6.538-.114c-1.634 0-2.622.684-3.192 1.425l-.209-1.311h-1.349V23h1.558v-4.845c0-2.185 1.102-3.534 2.926-3.534 1.691 0 2.622 1.064 2.622 3.078V23h1.558v-5.396c0-3.211-1.729-4.408-3.914-4.408zm21.684 0c-1.729 0-2.774.798-3.363 1.843-.55-1.235-1.71-1.843-3.059-1.843-1.5 0-2.318.741-2.83 1.444l-.21-1.33H74.72V23h1.558v-5.111c0-1.938.97-3.268 2.565-3.268 1.482 0 2.337.988 2.337 2.888V23h1.558v-5.187c0-1.976.988-3.192 2.603-3.192 1.463 0 2.3.988 2.3 2.888V23h1.557v-5.586c0-3.059-1.653-4.218-3.667-4.218zm10.02 9.918c2.83 0 4.806-2.014 4.806-4.959s-1.975-4.959-4.806-4.959c-2.832 0-4.808 2.014-4.808 4.959s1.977 4.959 4.808 4.959zm0-1.387c-1.92 0-3.212-1.501-3.212-3.572s1.293-3.572 3.212-3.572c1.918 0 3.21 1.501 3.21 3.572s-1.291 3.572-3.21 3.572zm11.077-8.417c-1.729 0-2.47.722-2.926 1.463l-.209-1.463h-1.349V23h1.558v-4.94c0-1.539.551-3.23 2.584-3.23h.779v-1.52h-.437zm5.696 9.804c2.242 0 3.838-1.425 4.218-3.363h-1.577c-.323 1.254-1.387 1.976-2.755 1.976-1.843 0-3.002-1.292-3.059-3.135v-.133h7.524c.019-.228.038-.456.038-.665-.076-2.869-1.862-4.598-4.598-4.598-2.736 0-4.598 2.014-4.598 4.959 0 2.964 1.9 4.959 4.807 4.959zm-3.078-5.947c.152-1.577 1.463-2.603 2.888-2.603 1.615 0 2.755.931 2.907 2.603h-5.795z" fill="#fff"/></svg>