<svg width="320" height="10" viewBox="0 0 320 10" fill="none" xmlns="http://www.w3.org/2000/svg"><path fill="#fff" d="M0 0h320v10H0z"/><path d="M3.606 7l.444-1.134h1.83L6.324 7h.558L5.286 2.8h-.618L3.066 7h.54zm1.356-3.63l.762 2.022H4.206l.756-2.022zM7.285 7h.492V2.8h-.492V7zm1.166 0h.492V2.8h-.492V7zm2.965-.798c0 .54.21.798.798.798h.534v-.45h-.486c-.264 0-.354-.096-.354-.354V4.39h.792v-.45h-.792v-.858h-.492v.858h-.552v.45h.552v1.812zM14.59 3.94c-.546 0-.78.228-.924.462L13.6 3.94h-.426V7h.492V5.44c0-.486.174-1.02.816-1.02h.246v-.48h-.138zm3.165 2.61c-.138 0-.198-.042-.198-.204V5.008c0-.714-.45-1.104-1.23-1.104-.738 0-1.224.354-1.296.954h.492c.06-.312.348-.516.78-.516.48 0 .762.24.762.636v.21h-.9c-.804 0-1.23.342-1.23.954 0 .558.456.894 1.128.894.528 0 .834-.234 1.026-.51.006.3.144.474.552.474h.27v-.45h-.156zm-.69-.798c0 .51-.354.864-.966.864-.408 0-.666-.204-.666-.504 0-.348.246-.51.684-.51h.948v.15zm3.601-1.344c-.186-.294-.534-.504-1.05-.504-.846 0-1.47.63-1.47 1.566 0 .996.624 1.566 1.47 1.566.516 0 .846-.246 1.05-.528l.066.492h.426V2.8h-.492v1.608zm-1.002 2.19c-.606 0-1.014-.462-1.014-1.128 0-.666.408-1.128 1.014-1.128.6 0 1.008.468 1.008 1.14 0 .654-.408 1.116-1.008 1.116zm2.416-3.174c.18 0 .318-.132.318-.318a.309.309 0 00-.318-.318.309.309 0 00-.318.318c0 .186.138.318.318.318zM21.828 7h.492V3.94h-.492V7zm2.666-3.096c-.516 0-.828.216-1.008.45l-.066-.414h-.426V7h.492V5.47c0-.69.348-1.116.924-1.116.534 0 .828.336.828.972V7h.492V5.296c0-1.014-.546-1.392-1.236-1.392zm4.276.564c-.192-.342-.535-.564-1.05-.564-.846 0-1.47.63-1.47 1.566 0 .996.623 1.566 1.47 1.566.515 0 .846-.216 1.05-.564v.36c0 .666-.348.966-.99.966-.51 0-.853-.216-.937-.6h-.503c.078.672.623 1.038 1.404 1.038 1.05 0 1.518-.504 1.518-1.386V3.94h-.427l-.066.528zm-1.003 2.13c-.605 0-1.014-.462-1.014-1.128 0-.666.409-1.128 1.014-1.128.6 0 1.009.468 1.009 1.14 0 .654-.409 1.116-1.009 1.116zm5.109.438c.744 0 1.242-.42 1.362-1.08h-.522c-.096.39-.396.642-.834.642-.588 0-.984-.456-.984-1.122 0-.666.396-1.134.984-1.134.45 0 .75.246.84.654h.516c-.126-.672-.6-1.092-1.35-1.092-.888 0-1.494.636-1.494 1.572 0 .954.588 1.56 1.482 1.56zm4.607-.486c-.138 0-.198-.042-.198-.204V5.008c0-.714-.45-1.104-1.23-1.104-.738 0-1.224.354-1.296.954h.492c.06-.312.348-.516.78-.516.48 0 .762.24.762.636v.21h-.9c-.804 0-1.23.342-1.23.954 0 .558.456.894 1.128.894.528 0 .834-.234 1.026-.51.006.3.144.474.552.474h.27v-.45h-.156zm-.69-.798c0 .51-.354.864-.966.864-.408 0-.666-.204-.666-.504 0-.348.246-.51.684-.51h.948v.15zm2.64-1.812c-.545 0-.78.228-.923.462l-.066-.462h-.426V7h.492V5.44c0-.486.174-1.02.816-1.02h.246v-.48h-.138zm1.981 0c-.546 0-.78.228-.924.462l-.066-.462h-.426V7h.492V5.44c0-.486.174-1.02.816-1.02h.246v-.48h-.138zm.817-.516c.18 0 .318-.132.318-.318a.309.309 0 00-.318-.318.309.309 0 00-.318.318c0 .186.138.318.318.318zM41.979 7h.492V3.94h-.492V7zm2.576.036c.708 0 1.212-.45 1.332-1.062h-.498c-.102.396-.438.624-.87.624-.582 0-.948-.408-.966-.99v-.042h2.376c.006-.072.012-.144.012-.21-.024-.906-.588-1.452-1.452-1.452s-1.452.636-1.452 1.566c0 .936.6 1.566 1.518 1.566zm-.972-1.878a.906.906 0 01.912-.822c.51 0 .87.294.918.822h-1.83zm2.781.834c.012.672.558 1.044 1.35 1.044.678 0 1.224-.354 1.224-.924 0-.678-.558-.81-1.254-.894-.444-.054-.768-.096-.768-.432 0-.282.288-.462.714-.462.42 0 .708.234.744.546h.504c-.048-.636-.552-.96-1.248-.966-.69-.006-1.2.36-1.2.918 0 .636.546.774 1.23.858.456.054.792.084.792.468 0 .282-.306.468-.738.468-.51 0-.828-.264-.846-.624h-.504zm6.107-2.052c-.546 0-.78.228-.924.462l-.066-.462h-.426V7h.492V5.44c0-.486.174-1.02.816-1.02h.246v-.48h-.138zm.816-.516c.18 0 .318-.132.318-.318a.309.309 0 00-.318-.318.309.309 0 00-.318.318c0 .186.138.318.318.318zM53.035 7h.492V3.94h-.492V7zm1.04-1.008c.012.672.558 1.044 1.35 1.044.678 0 1.224-.354 1.224-.924 0-.678-.558-.81-1.254-.894-.444-.054-.768-.096-.768-.432 0-.282.288-.462.714-.462.42 0 .708.234.744.546h.504c-.048-.636-.552-.96-1.248-.966-.69-.006-1.2.36-1.2.918 0 .636.546.774 1.23.858.456.054.792.084.792.468 0 .282-.306.468-.738.468-.51 0-.828-.264-.846-.624h-.504zM57.195 7h.492v-.804l.618-.636L59.32 7h.594l-1.278-1.794L59.83 3.94h-.606l-1.536 1.626V2.8h-.492V7zm3.005-.3c0 .204.144.336.342.336.198 0 .342-.132.342-.336 0-.204-.144-.336-.342-.336-.198 0-.342.132-.342.336zm5.374.3v-.48h-1.913V2.8h-.523V7h2.437zm1.703.036c.894 0 1.518-.636 1.518-1.566s-.624-1.566-1.518-1.566-1.518.636-1.518 1.566.624 1.566 1.518 1.566zm0-.438c-.606 0-1.014-.474-1.014-1.128 0-.654.408-1.128 1.014-1.128.606 0 1.014.474 1.014 1.128 0 .654-.408 1.128-1.014 1.128zm1.945-.606c.012.672.558 1.044 1.35 1.044.678 0 1.224-.354 1.224-.924 0-.678-.558-.81-1.254-.894-.444-.054-.768-.096-.768-.432 0-.282.288-.462.714-.462.42 0 .708.234.744.546h.504c-.048-.636-.552-.96-1.248-.966-.69-.006-1.2.36-1.2.918 0 .636.546.774 1.23.858.456.054.792.084.792.468 0 .282-.306.468-.738.468-.51 0-.828-.264-.846-.624h-.504zm2.935 0c.012.672.558 1.044 1.35 1.044.678 0 1.224-.354 1.224-.924 0-.678-.558-.81-1.254-.894-.444-.054-.768-.096-.768-.432 0-.282.288-.462.714-.462.42 0 .708.234.744.546h.504c-.048-.636-.552-.96-1.248-.966-.69-.006-1.2.36-1.2.918 0 .636.546.774 1.23.858.456.054.792.084.792.468 0 .282-.306.468-.738.468-.51 0-.828-.264-.846-.624h-.504zm4.53 1.044c.708 0 1.212-.45 1.332-1.062h-.498c-.102.396-.438.624-.87.624-.582 0-.948-.408-.966-.99v-.042h2.376c.006-.072.012-.144.012-.21-.024-.906-.588-1.452-1.452-1.452S75.17 4.54 75.17 5.47c0 .936.6 1.566 1.518 1.566zm-.972-1.878a.906.906 0 01.912-.822c.51 0 .87.294.918.822h-1.83zm2.782.834c.012.672.558 1.044 1.35 1.044.678 0 1.224-.354 1.224-.924 0-.678-.558-.81-1.254-.894-.444-.054-.768-.096-.768-.432 0-.282.288-.462.714-.462.42 0 .708.234.744.546h.504c-.048-.636-.552-.96-1.248-.966-.69-.006-1.2.36-1.2.918 0 .636.546.774 1.23.858.456.054.792.084.792.468 0 .282-.306.468-.738.468-.51 0-.828-.264-.846-.624h-.504zm6.065 1.044c.744 0 1.242-.42 1.362-1.08h-.522c-.096.39-.396.642-.834.642-.588 0-.984-.456-.984-1.122 0-.666.396-1.134.984-1.134.45 0 .75.246.84.654h.516c-.126-.672-.6-1.092-1.35-1.092-.888 0-1.494.636-1.494 1.572 0 .954.588 1.56 1.482 1.56zm4.607-.486c-.138 0-.198-.042-.198-.204V5.008c0-.714-.45-1.104-1.23-1.104-.738 0-1.224.354-1.296.954h.492c.06-.312.348-.516.78-.516.48 0 .762.24.762.636v.21h-.9c-.804 0-1.23.342-1.23.954 0 .558.456.894 1.128.894.528 0 .834-.234 1.026-.51.006.3.144.474.552.474h.27v-.45h-.156zm-.69-.798c0 .51-.354.864-.966.864-.408 0-.666-.204-.666-.504 0-.348.246-.51.684-.51h.948v.15zm2.724-1.848c-.516 0-.828.216-1.008.45l-.066-.414h-.426V7h.492V5.47c0-.69.348-1.116.924-1.116.534 0 .828.336.828.972V7h.492V5.296c0-1.014-.546-1.392-1.236-1.392zm4.844 3.132c.708 0 1.212-.45 1.332-1.062h-.498c-.102.396-.438.624-.87.624-.582 0-.948-.408-.966-.99v-.042h2.376c.006-.072.012-.144.012-.21-.024-.906-.588-1.452-1.452-1.452s-1.452.636-1.452 1.566c0 .936.6 1.566 1.518 1.566zm-.972-1.878a.906.906 0 01.912-.822c.51 0 .87.294.918.822h-1.83zM97.54 7h.558l.894-1.23.894 1.23h.588l-1.17-1.572 1.092-1.488h-.558l-.822 1.134-.81-1.134h-.588l1.086 1.488L97.541 7zm4.528.036c.744 0 1.242-.42 1.362-1.08h-.522c-.096.39-.396.642-.834.642-.588 0-.984-.456-.984-1.122 0-.666.396-1.134.984-1.134.45 0 .75.246.84.654h.516c-.126-.672-.6-1.092-1.35-1.092-.888 0-1.494.636-1.494 1.572 0 .954.588 1.56 1.482 1.56zm3.312 0c.708 0 1.212-.45 1.332-1.062h-.498c-.102.396-.438.624-.87.624-.582 0-.948-.408-.966-.99v-.042h2.376c.006-.072.012-.144.012-.21-.024-.906-.588-1.452-1.452-1.452s-1.452.636-1.452 1.566c0 .936.6 1.566 1.518 1.566zm-.972-1.878a.906.906 0 01.912-.822c.51 0 .87.294.918.822h-1.83zm4.329 1.878c.708 0 1.212-.45 1.332-1.062h-.498c-.102.396-.438.624-.87.624-.582 0-.948-.408-.966-.99v-.042h2.376c.006-.072.012-.144.012-.21-.024-.906-.588-1.452-1.452-1.452s-1.452.636-1.452 1.566c0 .936.6 1.566 1.518 1.566zm-.972-1.878a.906.906 0 01.912-.822c.51 0 .87.294.918.822h-1.83zm5.332-.75c-.186-.294-.534-.504-1.05-.504-.846 0-1.47.63-1.47 1.566 0 .996.624 1.566 1.47 1.566.516 0 .846-.246 1.05-.528l.066.492h.426V2.8h-.492v1.608zm-1.002 2.19c-.606 0-1.014-.462-1.014-1.128 0-.666.408-1.128 1.014-1.128.6 0 1.008.468 1.008 1.14 0 .654-.408 1.116-1.008 1.116zm6.146-2.19c-.186-.294-.534-.504-1.05-.504-.846 0-1.47.63-1.47 1.566 0 .996.624 1.566 1.47 1.566.516 0 .846-.246 1.05-.528l.066.492h.426V2.8h-.492v1.608zm-1.002 2.19c-.606 0-1.014-.462-1.014-1.128 0-.666.408-1.128 1.014-1.128.6 0 1.008.468 1.008 1.14 0 .654-.408 1.116-1.008 1.116zm3.574.438c.708 0 1.212-.45 1.332-1.062h-.498c-.102.396-.438.624-.87.624-.582 0-.948-.408-.966-.99v-.042h2.376c.006-.072.012-.144.012-.21-.024-.906-.588-1.452-1.452-1.452s-1.452.636-1.452 1.566c0 .936.6 1.566 1.518 1.566zm-.972-1.878a.906.906 0 01.912-.822c.51 0 .87.294.918.822h-1.83zm4.462-1.254c-.516 0-.846.246-1.05.528l-.066-.492h-.426V8.2h.492V6.532c.186.294.534.504 1.05.504.846 0 1.47-.63 1.47-1.566 0-.996-.624-1.566-1.47-1.566zm-.048 2.694c-.6 0-1.008-.468-1.008-1.14 0-.654.408-1.116 1.008-1.116.606 0 1.014.462 1.014 1.128 0 .666-.408 1.128-1.014 1.128zm3.49.438c.894 0 1.518-.636 1.518-1.566s-.624-1.566-1.518-1.566-1.518.636-1.518 1.566.624 1.566 1.518 1.566zm0-.438c-.606 0-1.014-.474-1.014-1.128 0-.654.408-1.128 1.014-1.128.606 0 1.014.474 1.014 1.128 0 .654-.408 1.128-1.014 1.128zm1.944-.606c.012.672.558 1.044 1.35 1.044.678 0 1.224-.354 1.224-.924 0-.678-.558-.81-1.254-.894-.444-.054-.768-.096-.768-.432 0-.282.288-.462.714-.462.42 0 .708.234.744.546h.504c-.048-.636-.552-.96-1.248-.966-.69-.006-1.2.36-1.2.918 0 .636.546.774 1.23.858.456.054.792.084.792.468 0 .282-.306.468-.738.468-.51 0-.828-.264-.846-.624h-.504zm3.373-2.568c.18 0 .318-.132.318-.318a.309.309 0 00-.318-.318.309.309 0 00-.318.318c0 .186.138.318.318.318zM132.811 7h.492V3.94h-.492V7zm1.394-.798c0 .54.21.798.798.798h.534v-.45h-.486c-.264 0-.354-.096-.354-.354V4.39h.792v-.45h-.792v-.858h-.492v.858h-.552v.45h.552v1.812zm1.632-.21c.012.672.558 1.044 1.35 1.044.678 0 1.224-.354 1.224-.924 0-.678-.558-.81-1.254-.894-.444-.054-.768-.096-.768-.432 0-.282.288-.462.714-.462.42 0 .708.234.744.546h.504c-.048-.636-.552-.96-1.248-.966-.69-.006-1.2.36-1.2.918 0 .636.546.774 1.23.858.456.054.792.084.792.468 0 .282-.306.468-.738.468-.51 0-.828-.264-.846-.624h-.504zm3.013.708c0 .204.144.336.342.336.198 0 .342-.132.342-.336 0-.204-.144-.336-.342-.336-.198 0-.342.132-.342.336z" fill="#000"/></svg>