<svg width="61" height="16" viewBox="0 0 61 16" fill="none" xmlns="http://www.w3.org/2000/svg"><rect width="61" height="16" rx="8" fill="#000"/><path d="M12.968 11.048c.96 0 1.56-.456 1.816-.864l.048.816h.6V7.968h-2.36v.64h1.68V8.8c0 .992-.744 1.608-1.776 1.608-1.16 0-1.928-.912-1.928-2.208 0-1.296.768-2.208 1.944-2.208.848 0 1.448.456 1.64 1.232h.744c-.192-1.152-1.128-1.872-2.368-1.872-1.624 0-2.672 1.152-2.672 2.848s1.08 2.848 2.632 2.848zm5.337 0c.944 0 1.616-.6 1.776-1.416h-.664c-.136.528-.584.832-1.16.832-.776 0-1.264-.544-1.288-1.32v-.056h3.168c.008-.096.016-.192.016-.28-.032-1.208-.784-1.936-1.936-1.936S16.28 7.72 16.28 8.96c0 1.248.8 2.088 2.024 2.088zm-1.296-2.504a1.208 1.208 0 011.216-1.096c.68 0 1.16.392 1.224 1.096h-2.44zm4.15 1.392c0 .72.28 1.064 1.063 1.064h.712v-.6h-.648c-.352 0-.472-.128-.472-.472V7.52h1.056v-.6h-1.056V5.776h-.656V6.92h-.736v.6h.736v2.416zm4.27-.28c.015.896.743 1.392 1.8 1.392.903 0 1.631-.472 1.631-1.232 0-.904-.744-1.08-1.672-1.192-.592-.072-1.024-.128-1.024-.576 0-.376.384-.616.952-.616.56 0 .944.312.992.728h.672c-.064-.848-.736-1.28-1.664-1.288-.92-.008-1.6.48-1.6 1.224 0 .848.728 1.032 1.64 1.144.608.072 1.056.112 1.056.624 0 .376-.408.624-.984.624-.68 0-1.104-.352-1.128-.832h-.672zm4.464.28c0 .72.28 1.064 1.064 1.064h.712v-.6h-.648c-.352 0-.472-.128-.472-.472V7.52h1.056v-.6h-1.056V5.776h-.656V6.92h-.736v.6h.736v2.416zm5.89.464c-.184 0-.264-.056-.264-.272V8.344c0-.952-.6-1.472-1.64-1.472-.984 0-1.632.472-1.728 1.272h.656c.08-.416.464-.688 1.04-.688.64 0 1.016.32 1.016.848v.28h-1.2c-1.072 0-1.64.456-1.64 1.272 0 .744.608 1.192 1.504 1.192.704 0 1.112-.312 1.368-.68.008.4.192.632.736.632h.36v-.6h-.208zm-.92-1.064c0 .68-.472 1.152-1.288 1.152-.544 0-.888-.272-.888-.672 0-.464.328-.68.912-.68h1.264v.2zm3.52-2.416c-.728 0-1.04.304-1.232.616l-.088-.616h-.568V11h.656V8.92c0-.648.232-1.36 1.088-1.36h.328v-.64h-.184zm1.19 3.016c0 .72.28 1.064 1.063 1.064h.712v-.6H40.7c-.352 0-.472-.128-.472-.472V7.52h1.056v-.6h-1.056V5.776h-.656V6.92h-.736v.6h.736v2.416zm4.122 1.112c.944 0 1.616-.6 1.776-1.416h-.664c-.136.528-.584.832-1.16.832-.776 0-1.264-.544-1.288-1.32v-.056h3.168c.008-.096.016-.192.016-.28-.032-1.208-.784-1.936-1.936-1.936s-1.936.848-1.936 2.088c0 1.248.8 2.088 2.024 2.088zM42.4 8.544a1.208 1.208 0 011.216-1.096c.68 0 1.16.392 1.224 1.096H42.4zm7.109-1c-.248-.392-.712-.672-1.4-.672-1.128 0-1.96.84-1.96 2.088 0 1.328.832 2.088 1.96 2.088a1.65 1.65 0 001.4-.704l.088.656h.568V5.4h-.656v2.144zm-1.336 2.92c-.808 0-1.352-.616-1.352-1.504s.544-1.504 1.352-1.504c.8 0 1.344.624 1.344 1.52 0 .872-.544 1.488-1.344 1.488z" fill="#fff"/></svg>