<svg width="150" height="11" viewBox="0 0 150 11" fill="none" xmlns="http://www.w3.org/2000/svg"><path d="M.768 8.5h1.38V5.452h1.848L5.616 8.5h1.536L5.376 5.152c.984-.348 1.632-1.248 1.632-2.376C7.008 1.144 5.832.1 4.08.1H.768v8.4zm3.204-7.2c.984 0 1.62.576 1.62 1.476s-.636 1.476-1.62 1.476H2.148V1.3h1.824zm6.764 7.272c1.524 0 2.556-.924 2.772-2.136h-1.296c-.18.684-.756 1.08-1.548 1.08-1.02 0-1.68-.684-1.716-1.728v-.084h4.632a3.52 3.52 0 00.036-.492c-.036-1.8-1.224-2.928-3-2.928-1.812 0-3.024 1.26-3.024 3.156 0 1.884 1.212 3.132 3.144 3.132zm-1.74-3.816c.096-.876.804-1.428 1.632-1.428.9 0 1.536.516 1.644 1.428H8.996zm11.283 2.616c-.264 0-.396-.084-.396-.396v-2.46c0-1.452-.936-2.232-2.568-2.232-1.548 0-2.58.744-2.712 1.944h1.272c.096-.54.612-.9 1.38-.9.852 0 1.344.42 1.344 1.104v.372h-1.548c-1.716 0-2.628.708-2.628 1.968 0 1.14.936 1.8 2.28 1.8.996 0 1.62-.432 2.028-1.056 0 .612.288.984 1.128.984h.684V7.372h-.264zM18.6 5.98c-.012.948-.636 1.584-1.716 1.584-.708 0-1.14-.36-1.14-.876 0-.624.444-.924 1.248-.924H18.6v.216zm7.271-2.772c-.396-.54-1.056-.924-1.992-.924-1.668 0-2.904 1.248-2.904 3.144 0 1.968 1.236 3.144 2.904 3.144.972 0 1.608-.456 2.004-.996l.156.924h1.128V.1H25.87v3.108zM24.094 7.48c-1.08 0-1.788-.84-1.788-2.052 0-1.2.708-2.04 1.788-2.04s1.788.84 1.788 2.064c0 1.188-.708 2.028-1.788 2.028zm6.115 1.056l-.24.6c-.192.504-.312.624-.816.624h-.912v1.14h1.392c.9 0 1.164-.444 1.548-1.44l2.784-7.104h-1.38l-1.668 4.668L29.2 2.356h-1.38l2.388 6.18zm6.858-5.04h1.068V8.5h1.308V3.496h1.644v-1.14h-1.668V1.84c0-.42.18-.6.6-.6h1.068V.1H39.85c-1.188 0-1.716.576-1.716 1.68v.576h-1.068v1.14zm7.336 5.076c1.872 0 3.132-1.26 3.132-3.144 0-1.872-1.26-3.144-3.132-3.144s-3.132 1.272-3.132 3.144c0 1.884 1.26 3.144 3.132 3.144zm0-1.104c-1.092 0-1.8-.852-1.8-2.04 0-1.188.708-2.04 1.8-2.04s1.812.852 1.812 2.04c0 1.188-.72 2.04-1.812 2.04zm7.282-5.112c-1.008 0-1.5.408-1.812.924l-.144-.924h-1.152V8.5h1.296V5.416c0-.948.372-1.848 1.524-1.848h.576V2.356h-.288zm4.602 4.476c0 1.116.504 1.668 1.68 1.668h1.2V7.36h-.912c-.492 0-.66-.18-.66-.66V3.496h1.5v-1.14h-1.5V.64h-1.308v1.716h-1.068v1.14h1.068v3.336zm6.932-4.548c-.96 0-1.547.432-1.931.96V.1h-1.296v8.4h1.296V5.392c0-1.236.623-1.992 1.644-1.992.96 0 1.475.624 1.475 1.788V8.5h1.297V5.08c0-2.052-1.116-2.796-2.484-2.796zm6.532 6.288c1.524 0 2.556-.924 2.772-2.136h-1.296c-.18.684-.756 1.08-1.548 1.08-1.02 0-1.68-.684-1.716-1.728v-.084h4.632a3.52 3.52 0 00.036-.492c-.036-1.8-1.224-2.928-3-2.928-1.812 0-3.024 1.26-3.024 3.156 0 1.884 1.212 3.132 3.144 3.132zm-1.74-3.816c.096-.876.804-1.428 1.632-1.428.9 0 1.536.516 1.644 1.428h-3.276zm11.846-2.4c-1.008 0-1.5.408-1.812.924l-.144-.924H76.75V8.5h1.296V5.416c0-.948.372-1.848 1.524-1.848h.576V2.356h-.288zm3.71 6.216c1.525 0 2.557-.924 2.773-2.136h-1.296c-.18.684-.756 1.08-1.548 1.08-1.02 0-1.68-.684-1.716-1.728v-.084h4.632a3.52 3.52 0 00.036-.492c-.036-1.8-1.224-2.928-3-2.928-1.812 0-3.024 1.26-3.024 3.156 0 1.884 1.212 3.132 3.144 3.132zm-1.74-3.816c.097-.876.805-1.428 1.633-1.428.9 0 1.536.516 1.644 1.428h-3.276zm11.284 2.616c-.264 0-.396-.084-.396-.396v-2.46c0-1.452-.936-2.232-2.568-2.232-1.548 0-2.58.744-2.712 1.944h1.272c.096-.54.612-.9 1.38-.9.852 0 1.344.42 1.344 1.104v.372h-1.548c-1.716 0-2.628.708-2.628 1.968 0 1.14.936 1.8 2.28 1.8.996 0 1.62-.432 2.028-1.056 0 .612.288.984 1.128.984h.684V7.372h-.264zm-1.68-1.392c-.012.948-.636 1.584-1.716 1.584-.708 0-1.14-.36-1.14-.876 0-.624.444-.924 1.248-.924h1.608v.216zm2.65 2.52h1.296V.1h-1.296v8.4zm12.705-6.216c-1.008 0-1.704.444-2.1 1.116-.372-.792-1.092-1.116-1.896-1.116-.924.012-1.452.42-1.8.876l-.144-.804h-1.128V8.5h1.296V5.212c0-1.092.552-1.812 1.44-1.812.852 0 1.296.564 1.296 1.644V8.5h1.308V5.176c0-1.104.564-1.776 1.452-1.776.84 0 1.284.564 1.284 1.644V8.5h1.296V4.96c0-1.944-1.032-2.676-2.304-2.676zm9.095 5.088c-.264 0-.396-.084-.396-.396v-2.46c0-1.452-.936-2.232-2.568-2.232-1.548 0-2.58.744-2.712 1.944h1.272c.096-.54.612-.9 1.38-.9.852 0 1.344.42 1.344 1.104v.372h-1.548c-1.716 0-2.628.708-2.628 1.968 0 1.14.936 1.8 2.28 1.8.996 0 1.62-.432 2.028-1.056 0 .612.288.984 1.128.984h.684V7.372h-.264zm-1.68-1.392c-.012.948-.636 1.584-1.716 1.584-.708 0-1.14-.36-1.14-.876 0-.624.444-.924 1.248-.924h1.608v.216zm5.758-3.624c-1.008 0-1.5.408-1.812.924l-.144-.924h-1.152V8.5h1.296V5.416c0-.948.372-1.848 1.524-1.848h.576V2.356h-.288zm1.087 6.144h1.296V6.94l1.104-1.152 1.812 2.712h1.536l-2.46-3.66 2.316-2.484h-1.524l-2.784 2.976V.1h-1.296v8.4zm8.904.072c1.524 0 2.556-.924 2.772-2.136h-1.296c-.18.684-.756 1.08-1.548 1.08-1.02 0-1.68-.684-1.716-1.728v-.084h4.632a3.52 3.52 0 00.036-.492c-.036-1.8-1.224-2.928-3-2.928-1.812 0-3.024 1.26-3.024 3.156 0 1.884 1.212 3.132 3.144 3.132zm-1.74-3.816c.096-.876.804-1.428 1.632-1.428.9 0 1.536.516 1.644 1.428h-3.276zm6.065 2.076c0 1.116.504 1.668 1.68 1.668h1.2V7.36h-.912c-.492 0-.66-.18-.66-.66V3.496h1.5v-1.14h-1.5V.64h-1.308v1.716h-1.068v1.14h1.068v3.336zm3.441-.36c.036 1.332 1.164 2.1 2.808 2.1 1.488 0 2.604-.744 2.604-1.92 0-1.368-1.14-1.656-2.544-1.824-.888-.096-1.476-.168-1.476-.744 0-.492.504-.804 1.272-.804s1.296.396 1.368.96h1.272c-.084-1.26-1.152-1.956-2.664-1.956-1.476-.012-2.52.744-2.52 1.908 0 1.272 1.104 1.572 2.508 1.74.948.12 1.512.168 1.512.828 0 .492-.528.804-1.332.804-.936 0-1.488-.456-1.536-1.092h-1.272zm7.143-3.624c0-.996.6-1.668 1.524-1.668.804 0 1.344.48 1.344 1.164 0 .576-.312.96-.852 1.32-.72.468-1.284.864-1.284 1.836v.384h1.224v-.24c0-.6.408-.912 1.056-1.356.624-.444 1.2-.972 1.2-2.076 0-1.26-1.032-2.184-2.7-2.184-1.788 0-2.832 1.26-2.832 2.82h1.32zm.552 4.92c0 .48.36.804.828.804.468 0 .816-.324.816-.804 0-.48-.348-.804-.816-.804-.468 0-.828.324-.828.804z" fill="#000"/></svg>