<svg width="372" height="58" viewBox="0 0 372 58" fill="none" xmlns="http://www.w3.org/2000/svg"><path d="M.88 32.306l.923-2.354h3.542l.924 2.354h.638l-2.97-7.7h-.693l-2.98 7.7h.615zm2.694-7.04l1.595 4.136H1.98l1.595-4.136zm6.372 7.106c1.265 0 2.156-.726 2.376-1.859h-.594c-.187.825-.858 1.353-1.782 1.353-1.221 0-2.068-.957-2.068-2.343 0-1.386.836-2.365 2.068-2.365.935 0 1.595.528 1.793 1.364h.583c-.231-1.155-1.1-1.859-2.365-1.859-1.573 0-2.651 1.166-2.651 2.86 0 1.716 1.067 2.85 2.64 2.85zm5.897 0c1.265 0 2.156-.726 2.376-1.859h-.594c-.187.825-.858 1.353-1.782 1.353-1.22 0-2.068-.957-2.068-2.343 0-1.386.836-2.365 2.068-2.365.935 0 1.595.528 1.793 1.364h.583c-.23-1.155-1.1-1.859-2.365-1.859-1.573 0-2.65 1.166-2.65 2.86 0 1.716 1.066 2.85 2.64 2.85zm5.93 0c1.222 0 2.157-.792 2.399-1.914H23.6c-.22.87-.957 1.408-1.87 1.408-1.243 0-2.024-.946-2.046-2.244v-.099h4.554c0-.077.01-.165.01-.23-.054-1.662-1.077-2.63-2.573-2.63-1.53 0-2.574 1.166-2.574 2.816 0 1.75 1.089 2.893 2.673 2.893zm-2.045-3.322c.088-1.133.935-1.892 1.958-1.892 1.089 0 1.87.671 1.958 1.892h-3.916zm5.366 1.54c.044 1.155.979 1.782 2.376 1.782 1.199 0 2.167-.605 2.167-1.595 0-1.177-1.034-1.408-2.233-1.573-.87-.12-1.64-.22-1.64-1 0-.639.628-1.057 1.574-1.057.89 0 1.529.43 1.628 1.155h.572c-.1-1.089-.99-1.639-2.2-1.639-1.243-.01-2.134.627-2.134 1.584 0 1.122 1.034 1.331 2.178 1.485.935.132 1.694.253 1.694 1.078 0 .66-.693 1.078-1.606 1.078-1.067 0-1.76-.495-1.804-1.298h-.572zm5.253 0c.044 1.155.979 1.782 2.376 1.782 1.199 0 2.167-.605 2.167-1.595 0-1.177-1.034-1.408-2.233-1.573-.87-.12-1.64-.22-1.64-1 0-.639.628-1.057 1.574-1.057.89 0 1.529.43 1.628 1.155h.572c-.1-1.089-.99-1.639-2.2-1.639-1.243-.01-2.134.627-2.134 1.584 0 1.122 1.034 1.331 2.178 1.485.935.132 1.694.253 1.694 1.078 0 .66-.693 1.078-1.606 1.078-1.067 0-1.76-.495-1.804-1.298h-.572zm11.042 1.782c1.573 0 2.684-1.166 2.684-2.86 0-1.683-1.111-2.849-2.684-2.849-1.573 0-2.673 1.166-2.673 2.85 0 1.693 1.1 2.86 2.673 2.86zm0-.506c-1.243 0-2.101-.968-2.101-2.354 0-1.375.858-2.354 2.1-2.354 1.244 0 2.102.98 2.102 2.354 0 1.386-.858 2.354-2.101 2.354zm5.18.44h.67l2.178-5.577h-.583l-1.914 4.928-1.925-4.928h-.605l2.178 5.577zm5.841.066c1.221 0 2.156-.792 2.398-1.914h-.572c-.22.87-.957 1.408-1.87 1.408-1.243 0-2.024-.946-2.046-2.244v-.099h4.554c0-.077.011-.165.011-.23-.055-1.662-1.078-2.63-2.574-2.63-1.529 0-2.574 1.166-2.574 2.816 0 1.75 1.09 2.893 2.673 2.893zm-2.046-3.322c.088-1.133.935-1.892 1.958-1.892 1.09 0 1.87.671 1.958 1.892h-3.916zm7.907-2.32c-1.034 0-1.474.494-1.705 1.11l-.088-1.11h-.484v5.576h.561V29.48c0-1.133.297-2.21 1.606-2.21h.407v-.54h-.297zm8.053 1.572a1.734 1.734 0 001.331-1.716c0-1.199-1.034-2.046-2.684-2.046-1.639 0-2.673.847-2.673 2.046 0 .935.616 1.551 1.32 1.727-.825.187-1.529.825-1.529 1.892 0 1.276 1.067 2.167 2.882 2.167 1.815 0 2.893-.89 2.893-2.167 0-1.089-.715-1.727-1.54-1.903zm-1.353-2.816c.88 0 1.452.462 1.452 1.133 0 .682-.572 1.144-1.452 1.144-.869 0-1.44-.462-1.44-1.144 0-.67.571-1.133 1.44-1.133zm0 5.951c-.968 0-1.639-.55-1.639-1.298s.671-1.287 1.64-1.287c.978 0 1.65.54 1.65 1.287 0 .748-.672 1.298-1.65 1.298zm3.704-2.805c0 2.321 1.243 3.74 3.036 3.74s3.036-1.419 3.036-3.74v-.352c0-2.233-1.243-3.74-3.036-3.74s-3.036 1.507-3.036 3.74v.352zm4.84-.044c0 1.727-.726 2.717-1.804 2.717s-1.804-.99-1.804-2.717v-.264c0-1.716.726-2.717 1.804-2.717s1.804 1.001 1.804 2.717v.264zm4.486-.869h.978v4.587h1.2V27.72h1.507v-1.045h-1.53v-.473c0-.385.165-.55.55-.55h.98v-1.045h-1.134c-1.089 0-1.573.528-1.573 1.54v.528h-.978v1.045zm6.725 4.653c1.716 0 2.87-1.155 2.87-2.882 0-1.716-1.154-2.882-2.87-2.882-1.716 0-2.871 1.166-2.871 2.882 0 1.727 1.155 2.882 2.87 2.882zm0-1.012c-1.001 0-1.65-.78-1.65-1.87 0-1.089.649-1.87 1.65-1.87 1 0 1.66.781 1.66 1.87 0 1.09-.66 1.87-1.66 1.87zm6.675-4.686c-.924 0-1.375.374-1.661.847l-.132-.847h-1.056v5.632h1.188V29.48c0-.869.341-1.694 1.397-1.694h.528v-1.11h-.264zm3.401 5.698c1.397 0 2.343-.847 2.541-1.958h-1.188c-.165.627-.693.99-1.419.99-.935 0-1.54-.627-1.573-1.584v-.077h4.246c.022-.154.033-.308.033-.45-.033-1.65-1.122-2.685-2.75-2.685-1.66 0-2.772 1.155-2.772 2.893 0 1.727 1.111 2.871 2.882 2.871zm-1.595-3.498c.088-.803.737-1.309 1.496-1.309.825 0 1.408.473 1.507 1.31h-3.003zm4.355 3.432h1.309l1.485-2.046 1.474 2.046h1.386l-2.123-2.882 2.002-2.75h-1.309l-1.375 1.903-1.342-1.903h-1.386l1.99 2.75-2.111 2.882zm12.062-5.698c-.88 0-1.463.407-1.837.902l-.143-.836h-1.034v7.832h1.188v-2.992c.352.506.957.858 1.826.858 1.54 0 2.662-1.144 2.662-2.882 0-1.804-1.122-2.882-2.662-2.882zm-.198 4.763c-.99 0-1.639-.78-1.639-1.903 0-1.089.649-1.848 1.639-1.848s1.65.76 1.65 1.87c0 1.1-.66 1.881-1.65 1.881zm8.96-.099c-.242 0-.363-.077-.363-.363v-2.255c0-1.33-.858-2.046-2.354-2.046-1.419 0-2.365.682-2.486 1.782h1.166c.088-.495.561-.825 1.265-.825.781 0 1.232.385 1.232 1.012v.341h-1.419c-1.573 0-2.409.65-2.409 1.804 0 1.045.858 1.65 2.09 1.65.913 0 1.485-.396 1.859-.968 0 .561.264.902 1.034.902h.627v-1.034h-.242zm-1.54-1.276c-.011.87-.583 1.452-1.573 1.452-.649 0-1.045-.33-1.045-.803 0-.572.407-.847 1.144-.847h1.474v.198zm3.034-4.114c.407 0 .726-.297.726-.715s-.319-.715-.726-.715-.726.297-.726.715.319.715.726.715zm-.605 6.424h1.188v-5.632h-1.188v5.632zm5.201-5.632c-.924 0-1.375.374-1.661.847l-.132-.847h-1.056v5.632h1.188V29.48c0-.869.341-1.694 1.397-1.694h.528v-1.11h-.264zm.658 3.773c.033 1.221 1.067 1.925 2.574 1.925 1.364 0 2.387-.682 2.387-1.76 0-1.254-1.045-1.518-2.332-1.672-.814-.088-1.353-.154-1.353-.682 0-.45.462-.737 1.166-.737s1.188.363 1.254.88h1.166c-.077-1.155-1.056-1.793-2.442-1.793-1.353-.01-2.31.682-2.31 1.75 0 1.165 1.012 1.44 2.299 1.594.869.11 1.386.154 1.386.76 0 .45-.484.736-1.221.736-.858 0-1.364-.418-1.408-1h-1.166zm10.277 1.86h.605l1.65-4.687 1.573 4.686h.605l1.98-5.577h-.572l-1.716 4.906-1.595-4.906h-.517l-1.683 4.906-1.628-4.906h-.594l1.892 5.577zm7.483-6.755c.22 0 .396-.165.396-.396a.388.388 0 00-.396-.396.388.388 0 00-.396.396c0 .231.176.396.396.396zm-.286 6.754h.561V26.73h-.561v5.577zm2.298-1.298c0 .891.363 1.298 1.309 1.298h.814v-.517h-.77c-.583 0-.792-.22-.792-.792v-3.75h1.507v-.518h-1.507v-1.562h-.561v1.562h-1.056v.517h1.056v3.762zm5.551-4.345c-1.045 0-1.694.583-2.013 1.386v-3.443h-.561v7.7h.561v-2.75c0-1.452.737-2.376 1.925-2.376 1.067 0 1.727.704 1.727 2.024v3.102h.561v-3.124c0-1.76-.935-2.519-2.2-2.519zm11.323 5.126c-.33 0-.495-.11-.495-.539v-2.596c0-1.276-.781-1.99-2.178-1.99-1.276 0-2.123.615-2.266 1.627h.561c.143-.682.737-1.133 1.683-1.133 1.045 0 1.639.55 1.639 1.474v.484h-1.892c-1.43 0-2.2.616-2.2 1.661 0 .99.781 1.595 1.969 1.595 1.133 0 1.804-.517 2.145-1.21v.198c-.022.66.253.946.913.946h.33v-.517h-.209zm-1.056-1.738c0 1.067-.759 1.837-2.079 1.837-.891 0-1.441-.45-1.441-1.144 0-.737.55-1.144 1.584-1.144h1.936v.451zm6.333 2.255h.605l1.65-4.686 1.573 4.686h.605l1.98-5.577h-.572l-1.716 4.906-1.595-4.906h-.517l-1.683 4.906-1.628-4.906h-.594l1.892 5.577zm9.49.066c1.573 0 2.684-1.166 2.684-2.86 0-1.683-1.111-2.849-2.684-2.849-1.573 0-2.673 1.166-2.673 2.85 0 1.693 1.1 2.86 2.673 2.86zm0-.506c-1.243 0-2.101-.968-2.101-2.354 0-1.375.858-2.354 2.101-2.354 1.243 0 2.101.98 2.101 2.354 0 1.386-.858 2.354-2.101 2.354zm6.076-5.137c-1.034 0-1.474.495-1.705 1.111l-.088-1.11h-.484v5.576h.561V29.48c0-1.133.297-2.21 1.606-2.21h.407v-.54h-.297zm1.128 5.577h.561v-7.7h-.561v7.7zm6.434-4.323c-.341-.792-1.089-1.32-2.134-1.32-1.529 0-2.629 1.166-2.629 2.85 0 1.76 1.1 2.86 2.629 2.86 1.045 0 1.771-.562 2.123-1.343l.088 1.276h.484v-7.7h-.561v3.377zm-2.09 3.883c-1.243 0-2.101-.968-2.101-2.354 0-1.375.858-2.354 2.101-2.354 1.243 0 2.101.98 2.101 2.365 0 1.375-.858 2.343-2.101 2.343zm6.935.44h.561v-7.7h-.561v7.7zm4.344.066c1.221 0 2.156-.792 2.398-1.914h-.572c-.22.87-.957 1.408-1.87 1.408-1.243 0-2.024-.946-2.046-2.244v-.099h4.554c0-.077.011-.165.011-.23-.055-1.662-1.078-2.63-2.574-2.63-1.529 0-2.574 1.166-2.574 2.816 0 1.75 1.089 2.893 2.673 2.893zm-2.046-3.322c.088-1.133.935-1.892 1.958-1.892 1.089 0 1.87.671 1.958 1.892h-3.916zm10.536 2.74c-.33 0-.495-.11-.495-.54v-2.596c0-1.276-.781-1.99-2.178-1.99-1.276 0-2.123.615-2.266 1.627h.561c.143-.682.737-1.133 1.683-1.133 1.045 0 1.639.55 1.639 1.474v.484h-1.892c-1.43 0-2.2.616-2.2 1.661 0 .99.781 1.595 1.969 1.595 1.133 0 1.804-.517 2.145-1.21v.198c-.022.66.253.946.913.946h.33v-.517h-.209zm-1.056-1.739c0 1.067-.759 1.837-2.079 1.837-.891 0-1.441-.45-1.441-1.144 0-.737.55-1.144 1.584-1.144h1.936v.451zm6.483-2.068c-.341-.792-1.089-1.32-2.134-1.32-1.529 0-2.629 1.166-2.629 2.85 0 1.76 1.1 2.86 2.629 2.86 1.045 0 1.771-.562 2.123-1.343l.088 1.276h.484v-7.7h-.561v3.377zm-2.09 3.883c-1.243 0-2.101-.968-2.101-2.354 0-1.375.858-2.354 2.101-2.354 1.243 0 2.101.98 2.101 2.365 0 1.375-.858 2.343-2.101 2.343zm6.435.506c1.221 0 2.156-.792 2.398-1.914h-.572c-.22.87-.957 1.408-1.87 1.408-1.243 0-2.024-.946-2.046-2.244v-.099h4.554c0-.077.011-.165.011-.23-.055-1.662-1.078-2.63-2.574-2.63-1.529 0-2.574 1.166-2.574 2.816 0 1.75 1.089 2.893 2.673 2.893zm-2.046-3.322c.088-1.133.935-1.892 1.958-1.892 1.089 0 1.87.671 1.958 1.892h-3.916zm7.907-2.32c-1.034 0-1.474.494-1.705 1.11l-.088-1.11h-.484v5.576h.561V29.48c0-1.133.297-2.21 1.606-2.21h.407v-.54h-.297zm4.379-1.178c.22 0 .396-.165.396-.396a.388.388 0 00-.396-.396.388.388 0 00-.396.396c0 .231.176.396.396.396zm-.286 6.754h.561V26.73h-.561v5.577zm4.454-5.643c-1.023 0-1.683.528-2.002 1.254l-.088-1.188h-.484v5.577h.561v-2.75c0-1.452.737-2.376 1.925-2.376 1.078 0 1.727.704 1.727 2.024v3.102h.561v-3.124c0-1.76-.935-2.519-2.2-2.519zm8.87 5.71c1.573 0 2.684-1.167 2.684-2.86 0-1.684-1.111-2.85-2.684-2.85-1.573 0-2.673 1.166-2.673 2.85 0 1.693 1.1 2.86 2.673 2.86zm0-.507c-1.243 0-2.101-.968-2.101-2.354 0-1.375.858-2.354 2.101-2.354 1.243 0 2.101.98 2.101 2.354 0 1.386-.858 2.354-2.101 2.354zm6.373-5.203c-1.023 0-1.683.528-2.002 1.254l-.088-1.188h-.484v5.577h.561v-2.75c0-1.452.737-2.376 1.925-2.376 1.078 0 1.727.704 1.727 2.024v3.102h.561v-3.124c0-1.76-.935-2.519-2.2-2.519zm3.442 5.643h.561v-7.7h-.561v7.7zm2.165-6.754c.22 0 .396-.165.396-.396a.388.388 0 00-.396-.396.388.388 0 00-.396.396c0 .231.176.396.396.396zm-.286 6.754h.561V26.73h-.561v5.577zm4.454-5.643c-1.023 0-1.683.528-2.002 1.254l-.088-1.188h-.484v5.577h.561v-2.75c0-1.452.737-2.376 1.925-2.376 1.078 0 1.727.704 1.727 2.024v3.102h.561v-3.124c0-1.76-.935-2.519-2.2-2.519zm5.82 5.71c1.221 0 2.156-.793 2.398-1.915h-.572c-.22.87-.957 1.408-1.87 1.408-1.243 0-2.024-.946-2.046-2.244v-.099h4.554c0-.077.011-.165.011-.23-.055-1.662-1.078-2.63-2.574-2.63-1.529 0-2.574 1.166-2.574 2.816 0 1.75 1.089 2.893 2.673 2.893zm-2.046-3.323c.088-1.133.935-1.892 1.958-1.892 1.089 0 1.87.671 1.958 1.892h-3.916zm9.013 1.958c0 .891.363 1.298 1.309 1.298h.814v-.517h-.77c-.583 0-.792-.22-.792-.792v-3.75h1.507v-.518h-1.507v-1.562h-.561v1.562h-1.056v.517h1.056v3.762zm5.253-4.279c-1.034 0-1.474.495-1.705 1.111l-.088-1.11h-.484v5.576h.561V29.48c0-1.133.297-2.21 1.606-2.21h.407v-.54h-.297zm5.798 5.06c-.33 0-.495-.11-.495-.539v-2.596c0-1.276-.781-1.99-2.178-1.99-1.276 0-2.123.615-2.266 1.627h.561c.143-.682.737-1.133 1.683-1.133 1.045 0 1.639.55 1.639 1.474v.484h-1.892c-1.43 0-2.2.616-2.2 1.661 0 .99.781 1.595 1.969 1.595 1.133 0 1.804-.517 2.145-1.21v.198c-.022.66.253.946.913.946h.33v-.517h-.209zm-1.056-1.738c0 1.067-.759 1.837-2.079 1.837-.891 0-1.441-.45-1.441-1.144 0-.737.55-1.144 1.584-1.144h1.936v.451zm6.484-2.068c-.341-.792-1.089-1.32-2.134-1.32-1.529 0-2.629 1.166-2.629 2.85 0 1.76 1.1 2.86 2.629 2.86 1.045 0 1.771-.562 2.123-1.343l.088 1.276h.484v-7.7h-.561v3.377zm-2.09 3.883c-1.243 0-2.101-.968-2.101-2.354 0-1.375.858-2.354 2.101-2.354 1.243 0 2.101.98 2.101 2.365 0 1.375-.858 2.343-2.101 2.343zm4.256-6.314c.22 0 .396-.165.396-.396a.388.388 0 00-.396-.396.388.388 0 00-.396.396c0 .231.176.396.396.396zm-.286 6.754h.561V26.73h-.561v5.577zm4.454-5.643c-1.023 0-1.683.528-2.002 1.254l-.088-1.188h-.484v5.577h.561v-2.75c0-1.452.737-2.376 1.925-2.376 1.078 0 1.727.704 1.727 2.024v3.102h.561v-3.124c0-1.76-.935-2.519-2.2-2.519zm7.985 1.364c-.341-.825-1.089-1.364-2.123-1.364-1.529 0-2.629 1.155-2.629 2.85 0 1.76 1.1 2.86 2.629 2.86 1.045 0 1.782-.55 2.134-1.42v.99c0 1.485-.704 2.123-2.046 2.123-1.045 0-1.771-.473-1.947-1.32h-.583c.176 1.188 1.133 1.826 2.486 1.826 1.804 0 2.651-.858 2.651-2.607V26.73h-.484l-.088 1.298zm-2.079 3.84c-1.243 0-2.101-.969-2.101-2.355 0-1.386.858-2.354 2.101-2.354 1.243 0 2.101.968 2.101 2.365 0 1.375-.858 2.343-2.101 2.343zm3.904.076c0 .253.176.418.418.418a.398.398 0 00.418-.418c0-.253-.176-.407-.418-.407s-.418.154-.418.407zM1.782 14.84h1.224V9.162l2.316 5.678h1.07l2.315-5.678v5.678H9.93V7.122H8.32l-2.426 6.075-2.47-6.075H1.782v7.718zm14.602-1.036c-.243 0-.364-.077-.364-.364v-2.26c0-1.335-.86-2.051-2.36-2.051-1.422 0-2.37.683-2.492 1.786h1.169c.088-.496.562-.827 1.268-.827.783 0 1.235.386 1.235 1.014v.342h-1.423c-1.576 0-2.415.65-2.415 1.808 0 1.048.86 1.654 2.095 1.654.916 0 1.49-.397 1.864-.97 0 .563.265.904 1.037.904h.628v-1.036h-.242zm-1.544-1.28c-.011.872-.585 1.456-1.577 1.456-.65 0-1.048-.33-1.048-.805 0-.573.408-.849 1.147-.849h1.478v.199zm2.435 2.316h1.19v-1.433l1.015-1.059 1.665 2.492h1.411l-2.26-3.363 2.128-2.282h-1.4l-2.558 2.734V7.122h-1.191v7.718zm8.182.066c1.4 0 2.348-.849 2.547-1.962h-1.191c-.165.628-.695.992-1.422.992-.938 0-1.544-.628-1.577-1.588v-.077h4.256c.022-.154.033-.309.033-.452-.033-1.654-1.125-2.69-2.757-2.69-1.665 0-2.778 1.157-2.778 2.9 0 1.73 1.113 2.877 2.889 2.877zm-1.6-3.506c.089-.805.74-1.312 1.5-1.312.827 0 1.412.474 1.511 1.312h-3.01zm8.438 1.908c0 1.025.463 1.532 1.544 1.532h1.102v-1.047h-.838c-.452 0-.606-.166-.606-.607v-2.944h1.378V9.195h-1.378V7.618h-1.202v1.577h-.981v1.047h.981v3.066zm6.37-4.18c-.882 0-1.422.398-1.775.883V7.12h-1.191v7.72h1.19v-2.856c0-1.136.574-1.831 1.511-1.831.883 0 1.357.573 1.357 1.643v3.043h1.19v-3.142c0-1.886-1.025-2.57-2.282-2.57zm6.002 5.778c1.4 0 2.349-.849 2.547-1.962h-1.19c-.166.628-.695.992-1.423.992-.937 0-1.544-.628-1.577-1.588v-.077h4.256c.022-.154.033-.309.033-.452-.033-1.654-1.124-2.69-2.756-2.69-1.665 0-2.779 1.157-2.779 2.9 0 1.73 1.114 2.877 2.889 2.877zM43.068 11.4c.088-.805.739-1.312 1.5-1.312.827 0 1.411.474 1.51 1.312h-3.01zm10.885-2.205c-.926 0-1.378.375-1.665.849l-.132-.85h-1.059v5.646h1.191v-2.833c0-.872.342-1.699 1.4-1.699h.53V9.195h-.265zM55.56 8.4c.408 0 .728-.298.728-.717s-.32-.717-.728-.717-.728.298-.728.717c0 .42.32.717.728.717zm-.607 6.44h1.191V9.194h-1.19v5.645zm6.67-4.764c-.364-.562-.97-.948-1.852-.948-1.533 0-2.669 1.135-2.669 2.867 0 1.797 1.136 2.866 2.669 2.866.882 0 1.466-.364 1.84-.926v.629c0 1.08-.584 1.577-1.62 1.577-.838 0-1.39-.364-1.533-.993h-1.213c.11 1.268 1.158 1.963 2.658 1.963 2.029 0 2.889-.97 2.889-2.503V9.195h-1.037l-.132.882zm-1.654 3.782c-.992 0-1.643-.76-1.643-1.864 0-1.091.65-1.863 1.643-1.863.992 0 1.643.772 1.643 1.886 0 1.08-.65 1.841-1.643 1.841zm6.953-4.73c-.883 0-1.423.397-1.776.882V7.12h-1.19v7.72h1.19v-2.856c0-1.136.574-1.831 1.511-1.831.882 0 1.356.573 1.356 1.643v3.043h1.191v-3.142c0-1.886-1.025-2.57-2.282-2.57zm3.773 4.179c0 1.025.463 1.532 1.544 1.532h1.103v-1.047h-.838c-.453 0-.607-.166-.607-.607v-2.944h1.378V9.195h-1.378V7.618h-1.202v1.577h-.981v1.047h.981v3.066zm12.72-4.18c-.926 0-1.566.409-1.93 1.026-.341-.728-1.003-1.025-1.742-1.025-.849.01-1.334.386-1.654.805l-.132-.74h-1.037v5.646h1.191v-3.02c0-1.004.507-1.666 1.323-1.666.783 0 1.191.518 1.191 1.51v3.176h1.202v-3.054c0-1.014.518-1.632 1.334-1.632.772 0 1.18.518 1.18 1.51v3.176h1.191v-3.252c0-1.787-.948-2.46-2.117-2.46zm5.822 5.778c1.72 0 2.878-1.157 2.878-2.889 0-1.72-1.158-2.888-2.878-2.888-1.72 0-2.878 1.168-2.878 2.889 0 1.73 1.158 2.888 2.878 2.888zm0-1.014c-1.003 0-1.654-.783-1.654-1.874 0-1.092.65-1.875 1.654-1.875 1.003 0 1.665.783 1.665 1.874 0 1.092-.662 1.875-1.665 1.875zm5.099.948h1.455l2.084-5.645h-1.257l-1.532 4.366-1.555-4.366h-1.28l2.085 5.645zm6.563.066c1.4 0 2.349-.849 2.547-1.962h-1.191c-.165.628-.694.992-1.422.992-.937 0-1.544-.628-1.577-1.588v-.077h4.256c.022-.154.033-.309.033-.452-.033-1.654-1.124-2.69-2.756-2.69-1.665 0-2.779 1.157-2.779 2.9 0 1.73 1.114 2.877 2.889 2.877zM99.299 11.4c.088-.805.739-1.312 1.5-1.312.827 0 1.411.474 1.511 1.312H99.3zm4.753 2.757c0 .44.32.75.761.75s.772-.31.772-.75c0-.441-.331-.75-.772-.75s-.761.309-.761.75z" fill="#000"/><path d="M124.322 5.365h3.48V15h1.853V5.365h3.48V3.722h-8.813v1.643zm13.39 1.386c-1.354 0-2.014.548-2.433 1.24l-.193-1.24h-1.547V15h1.74v-4.14c0-1.273.499-2.482 2.046-2.482h.773V6.751h-.386zm8.748 6.734c-.355 0-.532-.112-.532-.531V9.65c0-1.95-1.257-2.997-3.448-2.997-2.078 0-3.464 1-3.641 2.61h1.708c.129-.725.822-1.208 1.853-1.208 1.144 0 1.804.564 1.804 1.482v.5h-2.078c-2.304 0-3.528.95-3.528 2.642 0 1.53 1.256 2.417 3.061 2.417 1.337 0 2.175-.58 2.722-1.418 0 .822.387 1.321 1.515 1.321h.918v-1.514h-.354zm-2.256-1.868c-.016 1.272-.854 2.126-2.304 2.126-.95 0-1.53-.483-1.53-1.176 0-.838.596-1.24 1.675-1.24h2.159v.29zm9.762-3.722c-.531-.725-1.417-1.24-2.674-1.24-2.24 0-3.899 1.675-3.899 4.22 0 2.643 1.659 4.222 3.899 4.222 1.305 0 2.159-.613 2.69-1.338l.21 1.241h1.514V3.722h-1.74v4.173zm-2.384 5.736c-1.45 0-2.401-1.128-2.401-2.755 0-1.612.951-2.74 2.401-2.74 1.45 0 2.4 1.128 2.4 2.772 0 1.595-.95 2.723-2.4 2.723zm9.74 1.466c2.046 0 3.431-1.24 3.721-2.868h-1.74c-.241.918-1.015 1.45-2.078 1.45-1.369 0-2.255-.918-2.304-2.32v-.113h6.219a4.76 4.76 0 00.048-.66c-.048-2.417-1.643-3.932-4.027-3.932-2.433 0-4.06 1.692-4.06 4.238 0 2.53 1.627 4.205 4.221 4.205zm-2.336-5.124c.129-1.176 1.079-1.917 2.191-1.917 1.208 0 2.062.693 2.207 1.917h-4.398zm11.844.194c0 3.206 1.515 4.93 4.431 4.93 2.932 0 4.463-1.724 4.463-4.93V3.722h-1.853v6.541c0 2.095-.806 3.19-2.61 3.19-1.773 0-2.578-1.095-2.578-3.19v-6.54h-1.853v6.444zm10.438 1.127c.065 2.256 1.756 3.803 4.56 3.803 2.481 0 4.172-1.402 4.172-3.432.017-2.223-1.804-2.82-3.673-3.158-1.772-.306-2.932-.548-2.932-1.708 0-1.063.886-1.61 2.159-1.61 1.369 0 2.271.773 2.416 1.917h1.853c-.08-2.079-1.691-3.48-4.269-3.48-2.401 0-4.012 1.337-4.012 3.302 0 2.24 1.772 2.836 3.641 3.158 1.789.322 2.965.58 2.965 1.772 0 1.08-.967 1.676-2.304 1.676-1.579 0-2.61-.886-2.707-2.207l-1.869-.033zM195.466 15c3.528 0 5.752-2.304 5.752-5.655 0-3.351-2.224-5.623-5.752-5.623h-3.835V15h3.835zm-1.982-9.667h1.982c2.481 0 3.851 1.595 3.851 4.012s-1.37 4.044-3.851 4.044h-1.982V5.333zm9.256 11.761l4.575-13.855h-1.691l-4.56 13.855h1.676zm6.876-5.171c0 .982-.403 1.434-1.385 1.434h-1.322V15h1.74c1.805 0 2.82-.999 2.82-2.803V3.722h-1.853v8.2zM213.533 15h1.852v-4.092h2.594c2.353 0 3.899-1.418 3.899-3.593 0-2.191-1.546-3.593-3.899-3.593h-4.446V15zm4.301-9.667c1.321 0 2.159.757 2.159 1.982 0 1.208-.854 1.982-2.175 1.982h-2.433V5.333h2.449zm8.283 5.494V15h1.853v-4.173l4.205-7.105h-2.078l-3.045 5.156-2.965-5.156h-2.175l4.205 7.105zM239.14 15h1.885l1.805-5.607L244.57 15h1.869l2.738-8.249h-1.772l-1.949 6.316-1.805-6.316h-1.595l-1.885 6.316-1.885-6.316h-1.836L239.14 15zm11.84-9.409c.596 0 1.063-.435 1.063-1.047 0-.612-.467-1.047-1.063-1.047-.597 0-1.064.435-1.064 1.047 0 .612.467 1.047 1.064 1.047zM250.093 15h1.74V6.751h-1.74V15zm4.042-2.24c0 1.499.677 2.24 2.256 2.24h1.611v-1.53h-1.225c-.66 0-.886-.242-.886-.887V8.282h2.014v-1.53h-2.014V4.446h-1.756v2.304h-1.434v1.53h1.434v4.48zm9.308-6.106c-1.289 0-2.079.58-2.594 1.29V3.721h-1.74V15h1.74v-4.173c0-1.66.838-2.674 2.207-2.674 1.289 0 1.982.838 1.982 2.4V15h1.74v-4.592c0-2.755-1.499-3.754-3.335-3.754zm14.114 8.443c2.626 0 4.544-1.547 4.898-3.931h-1.917c-.355 1.433-1.434 2.303-2.997 2.303-2.126 0-3.415-1.707-3.415-4.108 0-2.417 1.321-4.108 3.464-4.108 1.53 0 2.593.886 2.964 2.304h1.917c-.37-2.385-2.223-3.932-4.801-3.932-3.335 0-5.445 2.304-5.445 5.736 0 3.464 2.046 5.736 5.332 5.736zm7.14-9.506c.596 0 1.063-.435 1.063-1.047 0-.612-.467-1.047-1.063-1.047-.596 0-1.064.435-1.064 1.047 0 .612.468 1.047 1.064 1.047zM283.811 15h1.74V6.751h-1.74V15zm4.041-2.24c0 1.499.677 2.24 2.256 2.24h1.611v-1.53h-1.224c-.661 0-.887-.242-.887-.887V8.282h2.014v-1.53h-2.014V4.446h-1.756v2.304h-1.434v1.53h1.434v4.48zm7.358 2.288l-.322.806c-.258.677-.419.838-1.095.838h-1.225v1.53h1.869c1.208 0 1.563-.596 2.078-1.933l3.738-9.538H298.4l-2.239 6.267-2.304-6.267h-1.853l3.206 8.297zM305.433 15h1.852V3.722h-1.852V15zm8.09-8.346c-1.337 0-2.127.532-2.642 1.177l-.193-1.08h-1.515V15h1.74v-4.157c0-1.675.822-2.69 2.207-2.69 1.305 0 1.966.838 1.966 2.4V15h1.756v-4.592c0-2.755-1.498-3.754-3.319-3.754zm11.106 1.241c-.532-.725-1.418-1.24-2.675-1.24-2.239 0-3.899 1.675-3.899 4.22 0 2.643 1.66 4.222 3.899 4.222 1.305 0 2.159-.613 2.691-1.338l.209 1.241h1.515V3.722h-1.74v4.173zm-2.385 5.736c-1.45 0-2.4-1.128-2.4-2.755 0-1.612.95-2.74 2.4-2.74s2.401 1.128 2.401 2.772c0 1.595-.951 2.723-2.401 2.723zm9.74 1.466c2.046 0 3.432-1.24 3.722-2.868h-1.74c-.242.918-1.015 1.45-2.079 1.45-1.369 0-2.255-.918-2.303-2.32v-.113h6.219a4.76 4.76 0 00.048-.66c-.048-2.417-1.643-3.932-4.028-3.932-2.433 0-4.06 1.692-4.06 4.238 0 2.53 1.627 4.205 4.221 4.205zm-2.336-5.124c.129-1.176 1.079-1.917 2.191-1.917 1.208 0 2.062.693 2.207 1.917h-4.398zM336.026 15h1.917l2.175-2.997L342.277 15h2.03l-3.109-4.221 2.932-4.028h-1.917l-2.014 2.787-1.966-2.787h-2.03l2.916 4.028L336.026 15zm8.874-.999c0 .645.468 1.096 1.112 1.096.644 0 1.128-.451 1.128-1.096 0-.644-.484-1.095-1.128-1.095-.644 0-1.112.45-1.112 1.095z" fill="url(#paint0_linear_101_79)"/><defs><linearGradient id="paint0_linear_101_79" x1="368" y1="17.023" x2="124" y2="17.023" gradientUnits="userSpaceOnUse"><stop stop-color="#FF4343"/><stop offset=".5" stop-color="#9C0B93"/><stop offset="1" stop-color="#4C1BB7"/></linearGradient></defs></svg>