<svg width="127" height="13" viewBox="0 0 127 13" fill="none" xmlns="http://www.w3.org/2000/svg"><path d="M.28 1.628h3.024V10h1.61V1.628h3.024V.2H.28v1.428zm9.367.196c.518 0 .924-.378.924-.91s-.406-.91-.924-.91-.924.378-.924.91.406.91.924.91zM8.877 10h1.512V2.832H8.877V10zm11.24-7.252c-1.176 0-1.988.518-2.45 1.302-.434-.924-1.274-1.302-2.212-1.302-1.078.014-1.694.49-2.1 1.022l-.168-.938H11.87V10h1.512V6.164c0-1.274.644-2.114 1.68-2.114.994 0 1.512.658 1.512 1.918V10H18.1V6.122c0-1.288.658-2.072 1.694-2.072.98 0 1.498.658 1.498 1.918V10h1.512V5.87c0-2.268-1.204-3.122-2.688-3.122zm4.829-.924c.518 0 .924-.378.924-.91s-.406-.91-.924-.91-.924.378-.924.91.406.91.924.91zM24.176 10h1.512V2.832h-1.512V10zm6.774-7.252c-1.162 0-1.848.462-2.296 1.022l-.168-.938H27.17V10h1.512V6.388c0-1.456.714-2.338 1.918-2.338 1.134 0 1.708.728 1.708 2.086V10h1.526V6.01c0-2.394-1.302-3.262-2.884-3.262zm9.733 1.204c-.462-.714-1.232-1.204-2.352-1.204-1.946 0-3.388 1.442-3.388 3.64 0 2.282 1.442 3.64 3.388 3.64 1.12 0 1.862-.462 2.338-1.176v.798c0 1.372-.742 2.002-2.058 2.002-1.064 0-1.764-.462-1.946-1.26h-1.54c.14 1.61 1.47 2.492 3.374 2.492 2.576 0 3.668-1.232 3.668-3.178V2.832H40.85l-.168 1.12zm-2.1 4.802c-1.26 0-2.086-.966-2.086-2.366 0-1.386.826-2.366 2.086-2.366 1.26 0 2.086.98 2.086 2.394 0 1.372-.826 2.338-2.086 2.338zm9.413-6.93c.518 0 .924-.378.924-.91s-.406-.91-.924-.91-.924.378-.924.91.406.91.924.91zM47.226 10h1.512V2.832h-1.512V10zm2.687-2.366c.042 1.554 1.358 2.45 3.276 2.45 1.736 0 3.038-.868 3.038-2.24 0-1.596-1.33-1.932-2.968-2.128-1.037-.112-1.723-.196-1.723-.868 0-.574.588-.938 1.484-.938s1.512.462 1.596 1.12H56.1c-.098-1.47-1.343-2.282-3.108-2.282-1.721-.014-2.94.868-2.94 2.226 0 1.484 1.288 1.834 2.926 2.03 1.106.14 1.764.196 1.764.966 0 .574-.615.938-1.553.938-1.093 0-1.736-.532-1.792-1.274h-1.484zM61.133 10H67.7V8.572h-4.956V5.73h3.948V4.344h-3.948V1.628h4.788V.2h-6.398V10zm9.298 0h1.848l2.646-7.168H73.33l-1.946 5.544-1.974-5.544h-1.624L70.432 10zm8.333.084c1.778 0 2.982-1.078 3.234-2.492h-1.512c-.21.798-.882 1.26-1.806 1.26-1.19 0-1.96-.798-2.002-2.016v-.098h5.404c.028-.196.042-.392.042-.574-.042-2.1-1.428-3.416-3.5-3.416-2.114 0-3.528 1.47-3.528 3.682 0 2.198 1.414 3.654 3.668 3.654zm-2.03-4.452c.112-1.022.938-1.666 1.904-1.666 1.05 0 1.792.602 1.918 1.666h-3.822zm10.239-2.8c-1.177 0-1.75.476-2.115 1.078l-.167-1.078h-1.344V10h1.511V6.402c0-1.106.434-2.156 1.779-2.156h.671V2.832h-.335zm3.422 7.21l-.28.7c-.224.588-.364.728-.952.728H88.1v1.33h1.624c1.05 0 1.358-.518 1.806-1.68l3.248-8.288h-1.61l-1.946 5.446-2.002-5.446h-1.61l2.786 7.21zm5.815-1.988c0 1.302.588 1.946 1.96 1.946h1.4V8.67h-1.064c-.574 0-.77-.21-.77-.77V4.162h1.75v-1.33h-1.75V.83h-1.526v2.002h-1.246v1.33h1.246v3.892zm8.088-5.306c-1.12 0-1.806.504-2.254 1.12V.2h-1.512V10h1.512V6.374c0-1.442.728-2.324 1.918-2.324 1.12 0 1.722.728 1.722 2.086V10h1.512V6.01c0-2.394-1.302-3.262-2.898-3.262zm5.043-.924c.518 0 .924-.378.924-.91s-.406-.91-.924-.91-.924.378-.924.91.406.91.924.91zm-.77 8.176h1.512V2.832h-1.512V10zm6.774-7.252c-1.162 0-1.848.462-2.296 1.022l-.168-.938h-1.316V10h1.512V6.388c0-1.456.714-2.338 1.918-2.338 1.134 0 1.708.728 1.708 2.086V10h1.526V6.01c0-2.394-1.302-3.262-2.884-3.262zm9.733 1.204c-.462-.714-1.232-1.204-2.352-1.204-1.946 0-3.388 1.442-3.388 3.64 0 2.282 1.442 3.64 3.388 3.64 1.12 0 1.862-.462 2.338-1.176v.798c0 1.372-.742 2.002-2.058 2.002-1.064 0-1.764-.462-1.946-1.26h-1.54c.14 1.61 1.47 2.492 3.374 2.492 2.576 0 3.668-1.232 3.668-3.178V2.832h-1.316l-.168 1.12zm-2.1 4.802c-1.26 0-2.086-.966-2.086-2.366 0-1.386.826-2.366 2.086-2.366 1.26 0 2.086.98 2.086 2.394 0 1.372-.826 2.338-2.086 2.338z" fill="#000"/></svg>