<svg width="114" height="80" viewBox="0 0 114 80" fill="none" xmlns="http://www.w3.org/2000/svg"><path d="M.36 2.236h3.888V13h2.07V2.236h3.888V.4H.36v1.836zm14.96 1.548c-1.513 0-2.25.612-2.719 1.386l-.216-1.386h-1.728V13h1.944V8.374c0-1.422.558-2.772 2.286-2.772h.864V3.784h-.432zm9.773 7.524c-.396 0-.594-.126-.594-.594v-3.69c0-2.178-1.404-3.348-3.852-3.348-2.322 0-3.87 1.116-4.068 2.916h1.908c.144-.81.918-1.35 2.07-1.35 1.278 0 2.016.63 2.016 1.656v.558H20.25c-2.574 0-3.942 1.062-3.942 2.952 0 1.71 1.404 2.7 3.42 2.7 1.494 0 2.43-.648 3.042-1.584 0 .918.432 1.476 1.692 1.476h1.026v-1.692h-.396zm-2.52-2.088c-.018 1.422-.954 2.376-2.574 2.376-1.062 0-1.71-.54-1.71-1.314 0-.936.666-1.386 1.872-1.386h2.412v.324zm10.906-4.158c-.594-.81-1.584-1.386-2.988-1.386-2.502 0-4.356 1.872-4.356 4.716 0 2.952 1.854 4.716 4.356 4.716 1.458 0 2.412-.684 3.006-1.494L33.731 13h1.692V.4H33.48v4.662zm-2.664 6.408c-1.62 0-2.682-1.26-2.682-3.078 0-1.8 1.062-3.06 2.682-3.06 1.62 0 2.682 1.26 2.682 3.096 0 1.782-1.062 3.042-2.682 3.042zm10.882 1.638c2.286 0 3.834-1.386 4.158-3.204h-1.944c-.27 1.026-1.134 1.62-2.322 1.62-1.53 0-2.52-1.026-2.574-2.592v-.126h6.948a5.28 5.28 0 00.054-.738c-.054-2.7-1.836-4.392-4.5-4.392-2.718 0-4.536 1.89-4.536 4.734 0 2.826 1.818 4.698 4.716 4.698zm-2.61-5.724c.144-1.314 1.206-2.142 2.448-2.142 1.35 0 2.304.774 2.466 2.142h-4.914zM6.624 35.108c2.934 0 5.076-1.728 5.472-4.392H9.954c-.396 1.602-1.602 2.574-3.348 2.574-2.376 0-3.816-1.908-3.816-4.59 0-2.7 1.476-4.59 3.87-4.59 1.71 0 2.898.99 3.312 2.574h2.142C11.7 24.02 9.63 22.292 6.75 22.292c-3.726 0-6.084 2.574-6.084 6.408 0 3.87 2.286 6.408 5.958 6.408zm11.342 0c2.808 0 4.698-1.89 4.698-4.716 0-2.808-1.89-4.716-4.698-4.716-2.808 0-4.698 1.908-4.698 4.716 0 2.826 1.89 4.716 4.698 4.716zm0-1.656c-1.638 0-2.7-1.278-2.7-3.06s1.062-3.06 2.7-3.06c1.638 0 2.718 1.278 2.718 3.06s-1.08 3.06-2.718 3.06zm16.863-7.776c-1.512 0-2.556.666-3.15 1.674-.558-1.188-1.638-1.674-2.844-1.674-1.386.018-2.178.63-2.7 1.314l-.216-1.206h-1.692V35h1.944v-4.932c0-1.638.828-2.718 2.16-2.718 1.278 0 1.944.846 1.944 2.466V35h1.962v-4.986c0-1.656.846-2.664 2.178-2.664 1.26 0 1.926.846 1.926 2.466V35h1.944v-5.31c0-2.916-1.548-4.014-3.456-4.014zm15.82 0c-1.511 0-2.555.666-3.15 1.674-.557-1.188-1.637-1.674-2.843-1.674-1.386.018-2.178.63-2.7 1.314l-.216-1.206h-1.692V35h1.944v-4.932c0-1.638.828-2.718 2.16-2.718 1.278 0 1.944.846 1.944 2.466V35h1.962v-4.986c0-1.656.846-2.664 2.178-2.664 1.26 0 1.926.846 1.926 2.466V35h1.944v-5.31c0-2.916-1.548-4.014-3.456-4.014zm9.505 9.432c2.808 0 4.698-1.89 4.698-4.716 0-2.808-1.89-4.716-4.698-4.716-2.808 0-4.698 1.908-4.698 4.716 0 2.826 1.89 4.716 4.698 4.716zm0-1.656c-1.638 0-2.7-1.278-2.7-3.06s1.062-3.06 2.7-3.06c1.638 0 2.718 1.278 2.718 3.06s-1.08 3.06-2.718 3.06zm13.263-6.39c-.594-.81-1.584-1.386-2.988-1.386-2.502 0-4.356 1.872-4.356 4.716 0 2.952 1.854 4.716 4.356 4.716 1.458 0 2.412-.684 3.006-1.494L73.669 35h1.692V22.4h-1.944v4.662zm-2.664 6.408c-1.62 0-2.682-1.26-2.682-3.078 0-1.8 1.062-3.06 2.682-3.06 1.62 0 2.682 1.26 2.682 3.096 0 1.782-1.062 3.042-2.682 3.042zm7.498-8.982c.666 0 1.188-.486 1.188-1.17 0-.684-.522-1.17-1.188-1.17-.666 0-1.188.486-1.188 1.17 0 .684.522 1.17 1.188 1.17zM77.26 35h1.944v-9.216H77.26V35zm4.515-2.502c0 1.674.756 2.502 2.52 2.502h1.8v-1.71h-1.368c-.738 0-.99-.27-.99-.99v-4.806h2.25v-1.71h-2.25V23.21h-1.962v2.574h-1.602v1.71h1.602v5.004zm8.22 2.556l-.36.9c-.287.756-.467.936-1.223.936h-1.368v1.71h2.088c1.35 0 1.746-.666 2.322-2.16l4.176-10.656h-2.07l-2.502 7.002-2.574-7.002h-2.07l3.582 9.27zM6.625 57.108c2.934 0 5.076-1.728 5.472-4.392H9.954c-.396 1.602-1.602 2.574-3.348 2.574-2.376 0-3.816-1.908-3.816-4.59 0-2.7 1.476-4.59 3.87-4.59 1.71 0 2.898.99 3.312 2.574h2.142C11.7 46.02 9.63 44.292 6.75 44.292c-3.726 0-6.084 2.574-6.084 6.408 0 3.87 2.286 6.408 5.958 6.408zM13.808 57h2.07v-5.328h4.932V49.89h-4.932v-3.654h5.976V44.4h-8.046V57zm13.917 0c3.942 0 6.426-2.574 6.426-6.318 0-3.744-2.484-6.282-6.426-6.282h-4.284V57h4.284zm-2.214-10.8h2.214c2.772 0 4.302 1.782 4.302 4.482s-1.53 4.518-4.302 4.518h-2.214v-9zm9.87 7.758c.053 1.998 1.745 3.15 4.211 3.15 2.232 0 3.906-1.116 3.906-2.88 0-2.052-1.71-2.484-3.816-2.736-1.332-.144-2.214-.252-2.214-1.116 0-.738.756-1.206 1.908-1.206s1.944.594 2.052 1.44h1.908c-.126-1.89-1.728-2.934-3.996-2.934-2.214-.018-3.78 1.116-3.78 2.862 0 1.908 1.656 2.358 3.762 2.61 1.422.18 2.268.252 2.268 1.242 0 .738-.792 1.206-1.998 1.206-1.404 0-2.232-.684-2.304-1.638H35.38zM52.435 57h2.43l2.538-9.27L59.978 57h2.412l3.618-12.6h-2.124l-2.7 9.972-2.736-9.972h-1.962l-2.808 9.972-2.682-9.99-2.142.018L52.436 57zm15.69-10.512c.666 0 1.188-.486 1.188-1.17 0-.684-.522-1.17-1.188-1.17-.666 0-1.188.486-1.188 1.17 0 .684.522 1.17 1.188 1.17zM67.136 57h1.944v-9.216h-1.944V57zm4.515-2.502c0 1.674.756 2.502 2.52 2.502h1.8v-1.71h-1.368c-.738 0-.99-.27-.99-.99v-4.806h2.25v-1.71h-2.25V45.21h-1.962v2.574H70.05v1.71h1.602v5.004zm10.399-6.822c-1.44 0-2.322.648-2.898 1.44V44.4h-1.944V57h1.944v-4.662c0-1.854.936-2.988 2.466-2.988 1.44 0 2.214.936 2.214 2.682V57h1.944v-5.13c0-3.078-1.674-4.194-3.726-4.194zm9.78 9.432c2.808 0 4.698-1.89 4.698-4.716 0-2.808-1.89-4.716-4.699-4.716-2.807 0-4.697 1.908-4.697 4.716 0 2.826 1.89 4.716 4.697 4.716zm0-1.656c-1.638 0-2.7-1.278-2.7-3.06s1.062-3.06 2.7-3.06c1.638 0 2.718 1.278 2.718 3.06s-1.08 3.06-2.719 3.06zm12.579-3.06c0 1.908-.9 3.024-2.376 3.024-1.422 0-2.142-.918-2.142-2.718v-4.914h-1.944v5.13c0 3.15 1.674 4.194 3.636 4.194 1.422 0 2.268-.576 2.844-1.278l.216 1.17h1.71v-9.216h-1.944v4.608zm4.578 2.106c0 1.674.756 2.502 2.52 2.502h1.8v-1.71h-1.368c-.738 0-.99-.27-.99-.99v-4.806h2.25v-1.71h-2.25V45.21h-1.962v2.574h-1.602v1.71h1.602v5.004zM6.624 79.108c2.934 0 5.076-1.728 5.472-4.392H9.954c-.396 1.602-1.602 2.574-3.348 2.574-2.376 0-3.816-1.908-3.816-4.59 0-2.7 1.476-4.59 3.87-4.59 1.71 0 2.898.99 3.312 2.574h2.142C11.7 68.02 9.63 66.292 6.75 66.292c-3.726 0-6.084 2.574-6.084 6.408 0 3.87 2.286 6.408 5.958 6.408zm11.342 0c2.808 0 4.698-1.89 4.698-4.716 0-2.808-1.89-4.716-4.698-4.716-2.808 0-4.698 1.908-4.698 4.716 0 2.826 1.89 4.716 4.698 4.716zm0-1.656c-1.638 0-2.7-1.278-2.7-3.06s1.062-3.06 2.7-3.06c1.638 0 2.718 1.278 2.718 3.06s-1.08 3.06-2.718 3.06zm5.813-1.494c.054 1.998 1.746 3.15 4.212 3.15 2.232 0 3.906-1.116 3.906-2.88 0-2.052-1.71-2.484-3.816-2.736-1.332-.144-2.214-.252-2.214-1.116 0-.738.756-1.206 1.908-1.206s1.944.594 2.052 1.44h1.908c-.126-1.89-1.728-2.934-3.996-2.934-2.214-.018-3.78 1.116-3.78 2.862 0 1.908 1.656 2.358 3.762 2.61 1.422.18 2.268.252 2.268 1.242 0 .738-.792 1.206-1.998 1.206-1.404 0-2.232-.684-2.304-1.638h-1.908zm10.29.54c0 1.674.756 2.502 2.52 2.502h1.8v-1.71h-1.368c-.738 0-.99-.27-.99-.99v-4.806h2.25v-1.71h-2.25V67.21H34.07v2.574h-1.602v1.71h1.602v5.004zm5.16-.54c.055 1.998 1.747 3.15 4.213 3.15 2.232 0 3.906-1.116 3.906-2.88 0-2.052-1.71-2.484-3.816-2.736-1.332-.144-2.214-.252-2.214-1.116 0-.738.756-1.206 1.908-1.206s1.944.594 2.052 1.44h1.908c-.126-1.89-1.728-2.934-3.996-2.934-2.214-.018-3.78 1.116-3.78 2.862 0 1.908 1.656 2.358 3.762 2.61 1.422.18 2.268.252 2.268 1.242 0 .738-.792 1.206-1.998 1.206-1.404 0-2.232-.684-2.304-1.638H39.23z" fill="#000"/></svg>