<svg width="201" height="120" viewBox="0 0 201 120" fill="none" xmlns="http://www.w3.org/2000/svg"><path d="M1.807 92h5.448v-.95H2.84v-2.8h3.549v-.95h-3.55v-2.66h4.262v-.949H1.807V92zm5.824 0h1.104l1.768-2.433L12.272 92h1.163l-2.314-3.11 2.16-2.944h-1.104l-1.626 2.244-1.603-2.243H7.785l2.149 2.943L7.63 92zm7.004-1.579c0 1.069.415 1.579 1.578 1.579h1.057v-.89h-.962c-.522 0-.7-.19-.7-.7v-3.573h1.567v-.89h-1.567v-1.698h-.973v1.698h-1.092v.89h1.092v3.584zm6.117 1.65c1.4 0 2.397-.89 2.635-2.1h-.985c-.202.783-.867 1.234-1.722 1.234-1.15 0-1.875-.807-1.91-1.959v-.083h4.7c.012-.142.024-.285.024-.415-.048-1.793-1.164-2.873-2.873-2.873-1.71 0-2.872 1.258-2.872 3.098 0 1.852 1.187 3.098 3.003 3.098zm-1.923-3.715c.095-.985.914-1.626 1.804-1.626 1.009 0 1.721.581 1.816 1.626h-3.62zm8.743-2.48c-1.021 0-1.638.426-1.994.89l-.131-.82h-.843V92h.974v-3.027c0-1.365.688-2.207 1.828-2.207 1.056 0 1.638.664 1.638 1.922V92h.973v-3.371c0-2.006-1.08-2.754-2.445-2.754zm8.388.996c-.368-.581-1.056-.997-2.077-.997-1.674 0-2.908 1.247-2.908 3.098 0 1.97 1.234 3.098 2.908 3.098 1.02 0 1.673-.486 2.077-1.044l.13.973h.843v-8.309h-.973v3.181zm-1.982 4.333c-1.2 0-2.006-.914-2.006-2.232 0-1.317.807-2.231 2.006-2.231 1.187 0 1.994.926 1.994 2.255 0 1.294-.807 2.208-1.994 2.208zm7.07.866c1.401 0 2.398-.89 2.636-2.1h-.986c-.201.783-.866 1.234-1.72 1.234-1.152 0-1.876-.807-1.912-1.959v-.083h4.7a5.15 5.15 0 00.024-.415c-.047-1.793-1.163-2.873-2.872-2.873-1.71 0-2.873 1.258-2.873 3.098 0 1.852 1.187 3.098 3.003 3.098zm-1.922-3.715c.095-.985.913-1.626 1.804-1.626 1.009 0 1.72.581 1.816 1.626h-3.62zm10.547-1.484c-.368-.581-1.057-.997-2.078-.997-1.673 0-2.908 1.247-2.908 3.098 0 1.97 1.235 3.098 2.908 3.098 1.021 0 1.674-.486 2.078-1.044l.13.973h.843v-8.309h-.973v3.181zm-1.983 4.333c-1.198 0-2.006-.914-2.006-2.232 0-1.317.808-2.231 2.006-2.231 1.187 0 1.995.926 1.995 2.255 0 1.294-.808 2.208-1.995 2.208zm10.356-5.33c-1.021 0-1.638.499-1.994 1.069V83.69h-.974V92h.974v-3.027c0-1.365.7-2.207 1.828-2.207 1.044 0 1.65.664 1.65 1.922V92h.973v-3.371c0-2.006-1.104-2.754-2.457-2.754zm6.417 6.196c1.769 0 3.003-1.258 3.003-3.098 0-1.84-1.234-3.098-3.003-3.098-1.768 0-3.003 1.258-3.003 3.098 0 1.84 1.235 3.098 3.003 3.098zm0-.866c-1.198 0-2.006-.938-2.006-2.232 0-1.294.807-2.231 2.006-2.231 1.2 0 2.006.937 2.006 2.231 0 1.294-.807 2.232-2.006 2.232zm8.357-2.232c0 1.365-.665 2.208-1.769 2.208-1.009 0-1.578-.665-1.578-1.923v-3.311h-.974v3.37c0 2.006 1.057 2.754 2.386 2.754.997 0 1.579-.427 1.935-.878l.13.807h.843v-6.053h-.973v3.026zm5.101-3.026c-1.08 0-1.543.45-1.828.913l-.13-.913h-.843V92h.973v-3.086c0-.962.345-2.018 1.615-2.018h.486v-.95h-.273zm.74 4.059c.024 1.33 1.104 2.065 2.67 2.065 1.342 0 2.422-.7 2.422-1.828 0-1.341-1.104-1.602-2.48-1.768-.879-.107-1.52-.19-1.52-.855 0-.558.57-.914 1.413-.914.83 0 1.4.463 1.472 1.08h.997c-.095-1.258-1.092-1.899-2.47-1.91-1.364-.013-2.373.711-2.373 1.815 0 1.258 1.08 1.531 2.433 1.698.902.107 1.567.166 1.567.925 0 .558-.606.926-1.46.926-1.009 0-1.638-.522-1.674-1.234h-.997zm9.73.415c0 1.069.416 1.579 1.579 1.579h1.056v-.89h-.961c-.522 0-.7-.19-.7-.7v-3.573h1.566v-.89h-1.566v-1.698h-.974v1.698H87.3v.89h1.092v3.584zm6.28-4.475c-1.08 0-1.543.451-1.828.914l-.13-.913h-.843V92h.973v-3.086c0-.962.344-2.018 1.614-2.018h.487v-.95h-.273zm6.261 5.164c-.273 0-.391-.083-.391-.404V88.06c0-1.412-.89-2.184-2.434-2.184-1.46 0-2.421.7-2.564 1.888h.974c.118-.618.688-1.021 1.543-1.021.95 0 1.507.474 1.507 1.258v.415h-1.78c-1.59 0-2.434.677-2.434 1.888 0 1.103.903 1.768 2.232 1.768 1.045 0 1.65-.463 2.03-1.009.012.594.285.938 1.092.938h.534v-.89h-.309zm-1.365-1.579c0 1.009-.7 1.71-1.91 1.71-.808 0-1.318-.404-1.318-.998 0-.688.486-1.009 1.353-1.009h1.875v.297zm7.124-2.659c-.368-.581-1.056-.997-2.077-.997-1.674 0-2.908 1.247-2.908 3.098 0 1.97 1.234 3.098 2.908 3.098 1.021 0 1.674-.486 2.077-1.044l.131.973h.843v-8.309h-.974v3.181zm-1.982 4.333c-1.199 0-2.006-.914-2.006-2.232 0-1.317.807-2.231 2.006-2.231 1.187 0 1.994.926 1.994 2.255 0 1.294-.807 2.208-1.994 2.208zm4.78-6.28a.611.611 0 00.629-.628.611.611 0 00-.629-.63.611.611 0 00-.629.63c0 .368.273.629.629.629zM108.99 92h.974v-6.053h-.974V92zm5.275-6.125c-1.021 0-1.638.427-1.995.89l-.13-.819h-.843V92h.973v-3.027c0-1.365.689-2.207 1.828-2.207 1.057 0 1.638.664 1.638 1.922V92h.974v-3.371c0-2.006-1.08-2.754-2.445-2.754zm8.457 1.116c-.38-.677-1.056-1.116-2.077-1.116-1.674 0-2.908 1.247-2.908 3.098 0 1.97 1.234 3.098 2.908 3.098 1.021 0 1.674-.427 2.077-1.115v.712c0 1.317-.688 1.91-1.958 1.91-1.009 0-1.686-.427-1.852-1.186h-.997c.154 1.33 1.235 2.053 2.778 2.053 2.077 0 3.003-.997 3.003-2.742v-5.757h-.843l-.131 1.045zm-1.982 4.214c-1.199 0-2.006-.914-2.006-2.232 0-1.317.807-2.231 2.006-2.231 1.187 0 1.994.926 1.994 2.255 0 1.294-.807 2.208-1.994 2.208zM4.371 106.07c1.697 0 2.896-1.258 2.896-3.086 0-1.816-1.199-3.074-2.896-3.074-1.697 0-2.884 1.258-2.884 3.074 0 1.828 1.187 3.086 2.884 3.086zm0-.546c-1.341 0-2.267-1.044-2.267-2.54 0-1.484.926-2.54 2.267-2.54 1.341 0 2.267 1.056 2.267 2.54 0 1.496-.926 2.54-2.267 2.54zm6.877-5.614c-1.104 0-1.817.57-2.16 1.353l-.096-1.282H8.47V106h.605v-2.967c0-1.567.796-2.564 2.078-2.564 1.163 0 1.863.759 1.863 2.184V106h.605v-3.371c0-1.899-1.008-2.718-2.373-2.718zm6.272-1.65h5.02L18.327 106h.676l4.214-7.858v-.45H17.52v.569zm6.213 3.775c0 2.433 1.198 4.035 3.003 4.035 1.78 0 2.99-1.602 2.99-4.035v-.38c0-2.362-1.21-4.036-2.99-4.036-1.805 0-3.003 1.674-3.003 4.036v.38zm5.365-.024c0 2.113-.938 3.489-2.362 3.489-1.437 0-2.374-1.376-2.374-3.489v-.333c0-2.112.938-3.49 2.374-3.49 1.424 0 2.362 1.378 2.362 3.49v.333zm4.043.32h-2.066v.511h2.066v2.172h.557v-2.172h2.078v-.511h-2.078v-2.172h-.557v2.172zm7.452.238c0 2.314.985 3.501 3.026 3.501 2.054 0 3.05-1.187 3.05-3.501v-4.879h-.64v4.914c0 1.911-.736 2.873-2.41 2.873-1.65 0-2.385-.962-2.385-2.873v-4.914h-.641v4.879zm7.446.878c.084 1.567 1.223 2.623 3.087 2.623 1.745 0 2.896-.949 2.896-2.35 0-1.579-1.4-1.982-2.778-2.22-1.27-.213-2.374-.427-2.374-1.614 0-1.08.843-1.685 2.149-1.685 1.246 0 2.1.7 2.243 1.78h.653c-.119-1.424-1.199-2.362-2.896-2.362-1.686 0-2.79.89-2.79 2.303 0 1.578 1.354 1.934 2.683 2.16 1.306.226 2.469.487 2.469 1.697 0 1.069-.902 1.71-2.243 1.71-1.401 0-2.35-.808-2.434-2.042h-.665zm10.175.7c.048 1.247 1.057 1.923 2.564 1.923 1.294 0 2.339-.653 2.339-1.721 0-1.27-1.116-1.519-2.41-1.697-.938-.131-1.769-.238-1.769-1.08 0-.689.677-1.14 1.698-1.14.961 0 1.65.463 1.756 1.246h.618c-.107-1.175-1.069-1.768-2.374-1.768-1.342-.012-2.303.676-2.303 1.709 0 1.211 1.116 1.436 2.35 1.602 1.01.143 1.828.273 1.828 1.164 0 .712-.748 1.163-1.733 1.163-1.151 0-1.899-.534-1.946-1.401h-.618zm6.509.451c0 .962.391 1.401 1.412 1.401h.878v-.558h-.83c-.63 0-.855-.237-.855-.854v-4.048h1.626v-.558h-1.626v-1.685h-.605v1.685h-1.14v.558h1.14v4.059zm5.685 1.472c1.697 0 2.896-1.258 2.896-3.086 0-1.816-1.199-3.074-2.896-3.074-1.698 0-2.885 1.258-2.885 3.074 0 1.828 1.187 3.086 2.885 3.086zm0-.546c-1.341 0-2.267-1.044-2.267-2.54 0-1.484.925-2.54 2.267-2.54 1.341 0 2.267 1.056 2.267 2.54 0 1.496-.926 2.54-2.267 2.54zm6.722.546c1.365 0 2.327-.783 2.564-2.006h-.641c-.202.89-.926 1.46-1.923 1.46-1.317 0-2.231-1.032-2.231-2.528s.902-2.552 2.231-2.552c1.009 0 1.721.57 1.935 1.472h.629c-.25-1.246-1.187-2.006-2.552-2.006-1.697 0-2.86 1.258-2.86 3.086 0 1.852 1.15 3.074 2.848 3.074zm3.74-.071h.606v-1.626l1.412-1.448L85.191 106h.736l-2.623-3.513 2.421-2.505h-.747l-3.502 3.608v-5.899h-.605V106zm5.442-1.852c.048 1.247 1.057 1.923 2.564 1.923 1.294 0 2.338-.653 2.338-1.721 0-1.27-1.115-1.519-2.41-1.697-.937-.131-1.768-.238-1.768-1.08 0-.689.677-1.14 1.698-1.14.961 0 1.65.463 1.756 1.246h.618c-.107-1.175-1.069-1.768-2.374-1.768-1.342-.012-2.303.676-2.303 1.709 0 1.211 1.116 1.436 2.35 1.602 1.009.143 1.828.273 1.828 1.164 0 .712-.748 1.163-1.733 1.163-1.151 0-1.9-.534-1.947-1.401h-.617z" fill="#000"/><path d="M.445 6.962h4.71V20h2.507V6.962h4.71V4.738H.444v2.224zm18.12 1.875c-1.832 0-2.726.741-3.292 1.679l-.262-1.68h-2.093V20h2.355v-5.603c0-1.723.675-3.358 2.769-3.358h1.046V8.837h-.523zm11.839 9.114c-.48 0-.72-.153-.72-.72v-4.47c0-2.638-1.7-4.055-4.666-4.055-2.812 0-4.687 1.352-4.927 3.532h2.31c.175-.981 1.113-1.635 2.508-1.635 1.548 0 2.442.763 2.442 2.006v.676H24.54c-3.118 0-4.775 1.286-4.775 3.575 0 2.072 1.7 3.27 4.142 3.27 1.81 0 2.944-.784 3.685-1.918 0 1.112.523 1.788 2.05 1.788h1.242v-2.05h-.48zm-3.053-2.53c-.022 1.723-1.155 2.878-3.118 2.878-1.286 0-2.07-.654-2.07-1.591 0-1.134.806-1.68 2.267-1.68h2.921v.393zm13.211-5.036c-.72-.981-1.919-1.679-3.62-1.679-3.03 0-5.276 2.268-5.276 5.712 0 3.576 2.246 5.713 5.277 5.713 1.766 0 2.921-.829 3.64-1.81L40.868 20h2.05V4.738h-2.355v5.647zm-3.227 7.762c-1.962 0-3.248-1.526-3.248-3.729 0-2.18 1.286-3.706 3.248-3.706 1.962 0 3.249 1.526 3.249 3.75 0 2.159-1.287 3.685-3.249 3.685zm13.181 1.984c2.769 0 4.644-1.679 5.037-3.881h-2.355c-.327 1.243-1.374 1.962-2.813 1.962-1.853 0-3.052-1.243-3.118-3.14v-.152h8.416c.044-.305.066-.61.066-.894-.066-3.27-2.224-5.32-5.451-5.32-3.292 0-5.494 2.29-5.494 5.734 0 3.423 2.202 5.69 5.712 5.69zm-3.161-6.934c.174-1.591 1.46-2.594 2.965-2.594 1.635 0 2.79.937 2.987 2.595h-5.952zM7.139 32.706c-1.745 0-2.9.807-3.641 1.788l-.284-1.657h-2.05V48.36H3.52v-5.93c.698 1.002 1.897 1.7 3.62 1.7 3.052 0 5.276-2.268 5.276-5.713 0-3.575-2.224-5.712-5.276-5.712zm-.393 9.44c-1.962 0-3.248-1.547-3.248-3.771 0-2.159 1.286-3.663 3.248-3.663 1.963 0 3.27 1.504 3.27 3.706 0 2.18-1.307 3.729-3.27 3.729zm13.203-9.31c-1.832 0-2.726.742-3.292 1.68l-.262-1.68h-2.093V44h2.355v-5.603c0-1.723.675-3.358 2.769-3.358h1.046v-2.202h-.523zm6.741 11.295c2.77 0 4.644-1.679 5.037-3.881h-2.355c-.327 1.243-1.373 1.962-2.813 1.962-1.853 0-3.052-1.243-3.117-3.14v-.152h8.416c.043-.305.065-.61.065-.894-.065-3.27-2.224-5.32-5.45-5.32-3.293 0-5.495 2.29-5.495 5.734 0 3.423 2.202 5.69 5.712 5.69zm-3.161-6.934c.174-1.591 1.46-2.594 2.965-2.594 1.635 0 2.79.937 2.987 2.594H23.53zm28.74 4.797c-.502 0-.85-.087-1.265-.545l-.675-.741 3.292-4.95h-2.333l-2.29 3.489-2.79-3.03c2.769-1.134 3.575-2.573 3.575-4.165 0-1.984-1.678-3.445-3.88-3.445-2.595 0-4.514 1.614-4.514 3.772 0 1.286.305 2.115 1.352 3.423-2.464 1.09-3.292 2.769-3.292 4.273-.022 2.682 2.224 4.056 5.08 4.056 1.613 0 2.965-.567 4.208-1.744l.589.654c.675.763 1.591.959 2.616.959h1.81v-2.006h-1.483zm-6.497-11.6c1.046 0 1.722.72 1.722 1.723 0 1.112-.741 2.05-2.485 2.791-.894-1.025-1.265-1.613-1.265-2.594 0-1.112.828-1.92 2.028-1.92zM44.638 42.19c-1.635 0-2.77-.85-2.77-2.354 0-1.178.502-2.006 1.985-2.77l.044.044 3.575 3.903c-.85.763-1.766 1.177-2.834 1.177zm23.077-9.484c-1.745 0-2.9.807-3.642 1.788l-.283-1.657h-2.05V48.36h2.355v-5.93c.698 1.002 1.897 1.7 3.62 1.7 3.052 0 5.276-2.268 5.276-5.713 0-3.575-2.224-5.712-5.276-5.712zm-.393 9.44c-1.962 0-3.249-1.547-3.249-3.771 0-2.159 1.287-3.663 3.25-3.663 1.961 0 3.27 1.504 3.27 3.706 0 2.18-1.309 3.729-3.27 3.729zm12.832 1.985c3.401 0 5.69-2.29 5.69-5.713 0-3.4-2.289-5.712-5.69-5.712-3.401 0-5.69 2.311-5.69 5.712 0 3.424 2.289 5.713 5.69 5.713zm0-2.006c-1.984 0-3.27-1.548-3.27-3.707 0-2.158 1.286-3.706 3.27-3.706s3.292 1.548 3.292 3.706c0 2.159-1.308 3.707-3.292 3.707zm7.04-1.81c.066 2.42 2.115 3.816 5.102 3.816 2.704 0 4.732-1.352 4.732-3.489 0-2.485-2.072-3.009-4.623-3.314-1.613-.174-2.681-.305-2.681-1.352 0-.893.915-1.46 2.31-1.46 1.396 0 2.355.72 2.486 1.744h2.312c-.153-2.29-2.094-3.554-4.84-3.554-2.683-.022-4.58 1.352-4.58 3.467 0 2.31 2.006 2.856 4.557 3.161 1.723.218 2.748.305 2.748 1.505 0 .894-.96 1.46-2.42 1.46-1.701 0-2.704-.828-2.791-1.984h-2.311zm12.465.654c0 2.028.916 3.031 3.053 3.031h2.18v-2.071h-1.657c-.894 0-1.199-.327-1.199-1.2v-5.82h2.725v-2.072h-2.725v-3.118h-2.377v3.118h-1.94v2.071h1.94v6.061zM14.007 56.706c-1.832 0-3.096.807-3.816 2.028-.676-1.44-1.984-2.028-3.445-2.028-1.679.022-2.638.763-3.27 1.592l-.262-1.461h-2.05V68H3.52v-5.974c0-1.984 1.003-3.292 2.617-3.292 1.548 0 2.355 1.024 2.355 2.987V68h2.376v-6.04c0-2.005 1.025-3.226 2.638-3.226 1.526 0 2.333 1.024 2.333 2.987V68h2.355v-6.432c0-3.532-1.875-4.862-4.186-4.862zm16.524 9.245c-.48 0-.72-.153-.72-.72v-4.47c0-2.638-1.7-4.055-4.665-4.055-2.813 0-4.688 1.352-4.928 3.532h2.312c.174-.981 1.112-1.635 2.507-1.635 1.548 0 2.442.763 2.442 2.006v.676h-2.813c-3.117 0-4.774 1.286-4.774 3.575 0 2.072 1.7 3.27 4.142 3.27 1.81 0 2.944-.784 3.685-1.918 0 1.112.523 1.788 2.05 1.788h1.242v-2.05h-.48zm-3.052-2.53c-.022 1.723-1.156 2.878-3.118 2.878-1.286 0-2.071-.654-2.071-1.591 0-1.134.806-1.68 2.267-1.68h2.922v.393zm10.462-6.584c-1.832 0-2.726.741-3.293 1.679l-.261-1.68h-2.093V68h2.354v-5.603c0-1.723.676-3.358 2.77-3.358h1.046v-2.202h-.523zM39.916 68h2.355v-2.834l2.006-2.093L47.569 68h2.79l-4.469-6.65 4.208-4.513H47.33l-5.058 5.407v-9.506h-2.355V68zm16.179.13c2.769 0 4.644-1.678 5.036-3.88h-2.355c-.327 1.243-1.373 1.962-2.812 1.962-1.853 0-3.053-1.243-3.118-3.14v-.152h8.416c.044-.305.065-.61.065-.894-.065-3.27-2.224-5.32-5.45-5.32-3.293 0-5.495 2.29-5.495 5.734 0 3.423 2.202 5.69 5.713 5.69zm-3.162-6.932c.175-1.592 1.46-2.595 2.965-2.595 1.636 0 2.791.937 2.987 2.594h-5.952zm11.02 3.771c0 2.028.915 3.031 3.052 3.031h2.18v-2.071h-1.657c-.894 0-1.199-.327-1.199-1.2v-5.82h2.725v-2.072H66.33v-3.118h-2.376v3.118h-1.941v2.071h1.94v6.061zm25.15-8.263c-1.83 0-3.095.807-3.815 2.028-.676-1.44-1.984-2.028-3.445-2.028-1.679.022-2.638.763-3.27 1.592l-.262-1.461h-2.05V68h2.355v-5.974c0-1.984 1.003-3.292 2.617-3.292 1.548 0 2.355 1.024 2.355 2.987V68h2.376v-6.04c0-2.005 1.025-3.226 2.638-3.226 1.526 0 2.333 1.024 2.333 2.987V68h2.355v-6.432c0-3.532-1.875-4.862-4.186-4.862zm11.513 11.425c3.401 0 5.69-2.29 5.69-5.713 0-3.4-2.289-5.712-5.69-5.712-3.402 0-5.69 2.311-5.69 5.712 0 3.423 2.288 5.713 5.69 5.713zm0-2.006c-1.984 0-3.27-1.548-3.27-3.707 0-2.158 1.286-3.706 3.27-3.706s3.292 1.548 3.292 3.706c0 2.159-1.308 3.707-3.292 3.707zM110.698 68h2.878l4.12-11.163h-2.485l-3.031 8.634-3.074-8.634h-2.529L110.698 68zm12.977.13c2.769 0 4.644-1.678 5.037-3.88h-2.355c-.327 1.243-1.373 1.962-2.812 1.962-1.854 0-3.053-1.243-3.118-3.14v-.152h8.416c.043-.305.065-.61.065-.894-.065-3.27-2.224-5.32-5.451-5.32-3.292 0-5.494 2.29-5.494 5.734 0 3.423 2.202 5.69 5.712 5.69zm-3.161-6.932c.174-1.592 1.461-2.595 2.965-2.595 1.635 0 2.791.937 2.987 2.594h-5.952zm9.754 3.117c.066 2.42 2.115 3.816 5.102 3.816 2.704 0 4.731-1.352 4.731-3.489 0-2.485-2.071-3.008-4.622-3.314-1.613-.174-2.682-.305-2.682-1.352 0-.893.916-1.46 2.312-1.46 1.395 0 2.354.72 2.485 1.744h2.311c-.152-2.29-2.093-3.554-4.84-3.554-2.682-.022-4.579 1.352-4.579 3.467 0 2.31 2.006 2.856 4.557 3.161 1.723.218 2.747.305 2.747 1.505 0 .894-.959 1.46-2.42 1.46-1.7 0-2.703-.828-2.791-1.984h-2.311z" fill="url(#paint0_linear_1240_6026)"/><defs><linearGradient id="paint0_linear_1240_6026" x1="200.009" y1="20.422" x2=".009" y2="20.422" gradientUnits="userSpaceOnUse"><stop stop-color="#FF4343"/><stop offset=".5" stop-color="#9C0B93"/><stop offset="1" stop-color="#4C1BB7"/></linearGradient></defs></svg>