<svg width="201" height="114" viewBox="0 0 201 114" fill="none" xmlns="http://www.w3.org/2000/svg"><path d="M1.76 86h5.567v-1.21H3.125v-2.41h3.347v-1.175H3.125v-2.303h4.06v-1.21H1.76V86zm5.928 0h1.413l1.602-2.208L12.293 86h1.496l-2.29-3.11 2.16-2.967h-1.413l-1.483 2.053-1.449-2.053H7.82l2.148 2.967L7.688 86zm7.247-1.65c0 1.104.498 1.65 1.662 1.65h1.187v-1.128h-.902c-.487 0-.653-.178-.653-.653V81.05h1.483v-1.127H16.23v-1.698h-1.294v1.698h-1.057v1.127h1.057v3.3zm6.42 1.721c1.508 0 2.53-.914 2.743-2.113h-1.282c-.178.677-.748 1.069-1.531 1.069-1.01 0-1.662-.677-1.698-1.71v-.083h4.582a3.49 3.49 0 00.036-.486c-.036-1.78-1.211-2.897-2.968-2.897-1.792 0-2.991 1.247-2.991 3.122 0 1.864 1.199 3.098 3.11 3.098zm-1.72-3.774c.095-.867.795-1.413 1.614-1.413.89 0 1.52.51 1.626 1.413h-3.24zm8.81-2.445c-.984 0-1.566.391-1.946.866l-.142-.795H25.24V86h1.282v-3.062c0-1.235.605-1.983 1.626-1.983.961 0 1.448.618 1.448 1.769V86h1.294v-3.383c0-2.03-1.104-2.766-2.445-2.766zm8.183.913c-.392-.534-1.045-.913-1.97-.913-1.65 0-2.873 1.234-2.873 3.11 0 1.946 1.223 3.11 2.872 3.11.962 0 1.59-.452 1.983-.986l.154.914h1.116v-8.309h-1.282v3.075zm-1.757 4.226c-1.068 0-1.769-.83-1.769-2.03 0-1.187.7-2.017 1.769-2.017 1.068 0 1.769.83 1.769 2.041 0 1.175-.7 2.006-1.769 2.006zm7.176 1.08c1.507 0 2.528-.914 2.742-2.113h-1.282c-.178.677-.748 1.069-1.532 1.069-1.008 0-1.661-.677-1.697-1.71v-.083h4.582c.024-.166.035-.332.035-.486-.035-1.78-1.21-2.897-2.967-2.897-1.792 0-2.991 1.247-2.991 3.122 0 1.864 1.199 3.098 3.11 3.098zm-1.721-3.774c.095-.867.795-1.413 1.614-1.413.89 0 1.52.51 1.626 1.413h-3.24zm10.223-1.531c-.392-.535-1.044-.915-1.97-.915-1.65 0-2.873 1.235-2.873 3.11 0 1.947 1.223 3.11 2.873 3.11.961 0 1.59-.45 1.982-.985l.154.914h1.116v-8.309H50.55v3.075zm-1.757 4.225c-1.068 0-1.768-.83-1.768-2.03 0-1.187.7-2.017 1.768-2.017 1.069 0 1.769.83 1.769 2.041 0 1.175-.7 2.006-1.769 2.006zm10.522-5.14c-.95 0-1.532.428-1.911.95v-3.11H56.12V86h1.282v-3.074c0-1.223.617-1.97 1.626-1.97.95 0 1.46.617 1.46 1.768V86h1.282v-3.383c0-2.03-1.104-2.766-2.457-2.766zm6.449 6.22c1.851 0 3.098-1.246 3.098-3.11 0-1.851-1.247-3.11-3.098-3.11-1.852 0-3.098 1.259-3.098 3.11 0 1.864 1.246 3.11 3.098 3.11zm0-1.092c-1.08 0-1.78-.843-1.78-2.018 0-1.175.7-2.017 1.78-2.017s1.792.842 1.792 2.017c0 1.175-.712 2.018-1.792 2.018zm8.295-2.018c0 1.258-.594 1.995-1.567 1.995-.938 0-1.413-.606-1.413-1.793v-3.24h-1.282v3.383c0 2.077 1.104 2.765 2.398 2.765.938 0 1.496-.38 1.876-.843l.142.772h1.128v-6.077h-1.282v3.038zm5.62-3.038c-.998 0-1.484.403-1.793.914l-.143-.914h-1.14V86h1.283v-3.05c0-.938.368-1.828 1.507-1.828h.57v-1.2h-.285zm.71 4.071c.035 1.318 1.15 2.077 2.777 2.077 1.472 0 2.575-.736 2.575-1.899 0-1.353-1.127-1.638-2.516-1.804-.878-.095-1.46-.166-1.46-.736 0-.487.499-.795 1.258-.795.76 0 1.282.391 1.353.95h1.259c-.083-1.247-1.14-1.936-2.635-1.936-1.46-.011-2.493.736-2.493 1.888 0 1.258 1.092 1.555 2.48 1.72.938.12 1.496.167 1.496.82 0 .487-.522.795-1.317.795-.926 0-1.472-.45-1.52-1.08h-1.258zm9.822.356c0 1.104.499 1.65 1.662 1.65h1.187v-1.128h-.902c-.487 0-.653-.178-.653-.653V81.05h1.484v-1.127h-1.484v-1.698H90.21v1.698h-1.056v1.127h1.056v3.3zm6.739-4.427c-.998 0-1.484.403-1.793.914l-.142-.914h-1.14V86h1.282v-3.05c0-.938.368-1.828 1.508-1.828h.57v-1.2h-.285zm6.445 4.961c-.262 0-.392-.083-.392-.391v-2.434c0-1.436-.926-2.207-2.54-2.207-1.531 0-2.552.735-2.683 1.922h1.258c.095-.534.606-.89 1.365-.89.843 0 1.33.416 1.33 1.092v.368h-1.531c-1.698 0-2.6.7-2.6 1.947 0 1.127.926 1.78 2.255 1.78.986 0 1.603-.427 2.006-1.044 0 .605.285.973 1.116.973h.677v-1.116h-.261zm-1.662-1.377c-.012.938-.629 1.567-1.698 1.567-.7 0-1.127-.356-1.127-.866 0-.617.439-.914 1.234-.914h1.591v.213zm7.192-2.742c-.392-.534-1.045-.913-1.97-.913-1.65 0-2.873 1.234-2.873 3.11 0 1.946 1.223 3.11 2.873 3.11.961 0 1.59-.452 1.982-.986l.154.914h1.116v-8.309h-1.282v3.075zm-1.757 4.226c-1.068 0-1.768-.83-1.768-2.03 0-1.187.7-2.017 1.768-2.017 1.069 0 1.769.83 1.769 2.041 0 1.175-.7 2.006-1.769 2.006zm4.944-5.923c.44 0 .784-.32.784-.771s-.344-.772-.784-.772c-.439 0-.783.32-.783.772 0 .45.344.771.783.771zM111.459 86h1.282v-6.077h-1.282V86zm5.743-6.148c-.985 0-1.567.391-1.947.866l-.142-.795h-1.116V86h1.282v-3.062c0-1.235.605-1.983 1.626-1.983.962 0 1.448.618 1.448 1.769V86h1.294v-3.383c0-2.03-1.104-2.766-2.445-2.766zm8.252 1.02c-.392-.605-1.045-1.02-1.994-1.02-1.65 0-2.873 1.222-2.873 3.086 0 1.934 1.223 3.086 2.873 3.086.949 0 1.579-.392 1.982-.997v.676c0 1.163-.629 1.698-1.745 1.698-.902 0-1.495-.392-1.65-1.069h-1.305c.118 1.365 1.246 2.113 2.86 2.113 2.184 0 3.11-1.044 3.11-2.694v-5.828h-1.116l-.142.95zm-1.78 4.072c-1.069 0-1.769-.82-1.769-2.006 0-1.175.7-2.006 1.769-2.006 1.068 0 1.768.83 1.768 2.03 0 1.163-.7 1.982-1.768 1.982zM4.371 100.07c1.697 0 2.896-1.258 2.896-3.086 0-1.816-1.199-3.074-2.896-3.074-1.697 0-2.884 1.258-2.884 3.074 0 1.828 1.187 3.086 2.884 3.086zm0-.546c-1.341 0-2.267-1.044-2.267-2.54 0-1.484.926-2.54 2.267-2.54 1.341 0 2.267 1.056 2.267 2.54 0 1.496-.926 2.54-2.267 2.54zm6.877-5.614c-1.104 0-1.817.57-2.16 1.353l-.096-1.282H8.47V100h.605v-2.967c0-1.567.796-2.564 2.078-2.564 1.163 0 1.863.76 1.863 2.184V100h.605v-3.371c0-1.9-1.008-2.718-2.373-2.718zm6.272-1.65h5.02L18.327 100h.676l4.214-7.858v-.45H17.52v.569zm6.213 3.775c0 2.433 1.198 4.035 3.003 4.035 1.78 0 2.99-1.602 2.99-4.035v-.38c0-2.362-1.21-4.036-2.99-4.036-1.805 0-3.003 1.674-3.003 4.036v.38zm5.365-.024c0 2.113-.938 3.49-2.362 3.49-1.437 0-2.374-1.377-2.374-3.49v-.333c0-2.112.938-3.49 2.374-3.49 1.424 0 2.362 1.378 2.362 3.49v.333zm4.043.32h-2.066v.51h2.066v2.173h.557v-2.172h2.078v-.51h-2.078V94.16h-.557v2.172zm7.452.238c0 2.314.985 3.501 3.026 3.501 2.054 0 3.05-1.187 3.05-3.501V91.69h-.64v4.914c0 1.911-.736 2.873-2.41 2.873-1.65 0-2.385-.962-2.385-2.873v-4.914h-.641v4.879zm7.446.878c.084 1.567 1.223 2.623 3.087 2.623 1.745 0 2.896-.95 2.896-2.35 0-1.579-1.4-1.982-2.778-2.22-1.27-.213-2.374-.427-2.374-1.614 0-1.08.843-1.685 2.149-1.685 1.246 0 2.1.7 2.243 1.78h.653c-.119-1.424-1.199-2.362-2.896-2.362-1.686 0-2.79.89-2.79 2.303 0 1.578 1.354 1.934 2.683 2.16 1.306.225 2.469.487 2.469 1.697 0 1.069-.902 1.71-2.243 1.71-1.401 0-2.35-.807-2.434-2.042h-.665zm10.175.7c.048 1.247 1.057 1.923 2.564 1.923 1.294 0 2.339-.653 2.339-1.72 0-1.27-1.116-1.52-2.41-1.698-.938-.13-1.769-.238-1.769-1.08 0-.689.677-1.14 1.698-1.14.961 0 1.65.463 1.756 1.246h.618c-.107-1.175-1.069-1.768-2.374-1.768-1.342-.012-2.303.676-2.303 1.71 0 1.21 1.116 1.435 2.35 1.602 1.01.142 1.828.273 1.828 1.163 0 .712-.748 1.163-1.733 1.163-1.151 0-1.899-.534-1.946-1.4h-.618zm6.509.451c0 .962.391 1.401 1.412 1.401h.878v-.558h-.83c-.63 0-.855-.237-.855-.854V94.54h1.626v-.558h-1.626v-1.685h-.605v1.685h-1.14v.558h1.14v4.06zm5.685 1.472c1.697 0 2.896-1.258 2.896-3.086 0-1.816-1.199-3.074-2.896-3.074-1.698 0-2.885 1.258-2.885 3.074 0 1.828 1.187 3.086 2.885 3.086zm0-.546c-1.341 0-2.267-1.044-2.267-2.54 0-1.484.925-2.54 2.267-2.54 1.341 0 2.267 1.056 2.267 2.54 0 1.496-.926 2.54-2.267 2.54zm6.722.546c1.365 0 2.327-.783 2.564-2.006h-.641c-.202.89-.926 1.46-1.923 1.46-1.317 0-2.231-1.032-2.231-2.528s.902-2.552 2.231-2.552c1.009 0 1.721.57 1.935 1.472h.629c-.25-1.246-1.187-2.006-2.552-2.006-1.697 0-2.86 1.258-2.86 3.086 0 1.852 1.15 3.074 2.848 3.074zm3.74-.071h.606v-1.626l1.412-1.448L85.191 100h.736l-2.623-3.513 2.421-2.505h-.747l-3.502 3.609v-5.9h-.605V100zm5.442-1.852c.048 1.247 1.057 1.923 2.564 1.923 1.294 0 2.338-.653 2.338-1.72 0-1.27-1.115-1.52-2.41-1.698-.937-.13-1.768-.238-1.768-1.08 0-.689.677-1.14 1.698-1.14.961 0 1.65.463 1.756 1.246h.618c-.107-1.175-1.069-1.768-2.374-1.768-1.342-.012-2.303.676-2.303 1.71 0 1.21 1.116 1.435 2.35 1.602 1.009.142 1.828.273 1.828 1.163 0 .712-.748 1.163-1.733 1.163-1.151 0-1.9-.534-1.947-1.4h-.617z" fill="#000"/><path d="M.425 6.56H4.92V19H7.31V6.56h4.494V4.438H.425V6.56zm17.289 1.789c-1.748 0-2.6.707-3.141 1.602l-.25-1.602h-1.997V19h2.247v-5.346c0-1.644.644-3.204 2.642-3.204h.998V8.349h-.5zm11.296 8.695c-.458 0-.687-.145-.687-.686v-4.265c0-2.517-1.623-3.869-4.452-3.869-2.683 0-4.472 1.29-4.701 3.37h2.205c.166-.936 1.06-1.56 2.392-1.56 1.477 0 2.33.728 2.33 1.914v.645h-2.684c-2.974 0-4.555 1.227-4.555 3.411 0 1.977 1.622 3.12 3.952 3.12 1.727 0 2.809-.748 3.516-1.83 0 1.061.5 1.706 1.955 1.706h1.186v-1.956h-.457zm-2.913-2.413c-.02 1.644-1.102 2.746-2.975 2.746-1.227 0-1.976-.624-1.976-1.518 0-1.082.77-1.602 2.163-1.602h2.788v.374zm12.605-4.805c-.686-.936-1.83-1.602-3.453-1.602-2.892 0-5.035 2.163-5.035 5.45 0 3.412 2.143 5.45 5.035 5.45 1.685 0 2.787-.79 3.474-1.726l.27 1.602h1.956V4.438h-2.247v5.388zm-3.079 7.406c-1.872 0-3.1-1.457-3.1-3.558 0-2.08 1.228-3.536 3.1-3.536 1.873 0 3.1 1.456 3.1 3.578 0 2.06-1.227 3.516-3.1 3.516zM48.2 19.125c2.642 0 4.43-1.602 4.805-3.703h-2.247c-.312 1.186-1.31 1.872-2.683 1.872-1.769 0-2.913-1.186-2.975-2.995v-.146h8.03c.041-.291.062-.583.062-.853-.062-3.12-2.122-5.076-5.2-5.076-3.142 0-5.243 2.184-5.243 5.471 0 3.266 2.101 5.43 5.45 5.43zm-3.017-6.616c.166-1.518 1.394-2.475 2.83-2.475 1.56 0 2.662.894 2.85 2.475h-5.68zm20.848-4.285c-1.664 0-2.767.77-3.474 1.706l-.27-1.581H60.33V23.16h2.247v-5.659c.666.957 1.81 1.623 3.453 1.623 2.913 0 5.035-2.164 5.035-5.45 0-3.412-2.122-5.451-5.035-5.451zm-.374 9.008c-1.872 0-3.1-1.477-3.1-3.6 0-2.059 1.228-3.494 3.1-3.494s3.12 1.435 3.12 3.536c0 2.08-1.248 3.558-3.12 3.558zm12.597-8.883c-1.748 0-2.6.707-3.141 1.602l-.25-1.602h-1.997V19h2.247v-5.346c0-1.644.644-3.204 2.642-3.204h.998V8.349h-.5zm6.432 10.776c2.642 0 4.431-1.602 4.806-3.703h-2.247c-.312 1.186-1.31 1.872-2.684 1.872-1.768 0-2.912-1.186-2.975-2.995v-.146h8.03c.042-.291.063-.583.063-.853-.063-3.12-2.122-5.076-5.2-5.076-3.142 0-5.243 2.184-5.243 5.471 0 3.266 2.1 5.43 5.45 5.43zm-3.016-6.616c.166-1.518 1.394-2.475 2.829-2.475 1.56 0 2.663.894 2.85 2.475h-5.68zM13.386 40.087c-.479 0-.812-.083-1.207-.52l-.645-.707 3.141-4.723H12.45l-2.184 3.329-2.663-2.892c2.642-1.081 3.412-2.454 3.412-3.973 0-1.893-1.602-3.287-3.703-3.287-2.476 0-4.306 1.54-4.306 3.599 0 1.227.291 2.018 1.29 3.266-2.351 1.04-3.142 2.642-3.142 4.078-.02 2.558 2.122 3.869 4.847 3.869 1.54 0 2.83-.541 4.015-1.664l.562.624c.645.728 1.519.915 2.496.915H14.8v-1.914h-1.415zm-6.2-11.067c.999 0 1.644.686 1.644 1.643 0 1.061-.708 1.956-2.372 2.663-.853-.978-1.206-1.54-1.206-2.475 0-1.061.79-1.831 1.934-1.831zM6.104 40.273c-1.56 0-2.642-.811-2.642-2.246 0-1.124.479-1.914 1.894-2.642l.041.041L8.81 39.15c-.811.728-1.685 1.123-2.705 1.123zm22.019-9.049c-1.665 0-2.767.77-3.474 1.706l-.27-1.581h-1.956V46.16h2.246v-5.659c.666.957 1.81 1.623 3.454 1.623 2.912 0 5.034-2.164 5.034-5.45 0-3.412-2.122-5.451-5.034-5.451zm-.375 9.008c-1.872 0-3.1-1.477-3.1-3.6 0-2.059 1.228-3.494 3.1-3.494s3.12 1.435 3.12 3.536c0 2.08-1.247 3.558-3.12 3.558zm12.244 1.893c3.245 0 5.43-2.184 5.43-5.45 0-3.246-2.185-5.451-5.43-5.451-3.246 0-5.43 2.205-5.43 5.45 0 3.267 2.184 5.45 5.43 5.45zm0-1.914c-1.893 0-3.12-1.477-3.12-3.537 0-2.06 1.227-3.536 3.12-3.536s3.14 1.477 3.14 3.536c0 2.06-1.247 3.537-3.14 3.537zm6.717-1.727c.063 2.31 2.018 3.64 4.868 3.64 2.58 0 4.514-1.289 4.514-3.328 0-2.371-1.976-2.87-4.41-3.162-1.54-.166-2.559-.291-2.559-1.29 0-.852.874-1.393 2.206-1.393 1.33 0 2.246.686 2.371 1.664h2.205c-.146-2.184-1.997-3.391-4.618-3.391-2.559-.02-4.369 1.29-4.369 3.308 0 2.205 1.914 2.725 4.348 3.016 1.643.208 2.621.291 2.621 1.436 0 .852-.915 1.393-2.309 1.393-1.622 0-2.58-.79-2.663-1.893H46.71zm11.893.624c0 1.935.874 2.892 2.913 2.892h2.08v-1.976h-1.581c-.853 0-1.144-.312-1.144-1.145v-5.554h2.6V31.35h-2.6v-2.975h-2.268v2.975h-1.851v1.976h1.851v5.783zm12.903-2.1v-1.852h-7.073v1.851h7.073zm14.325-5.784c-1.748 0-2.954.77-3.64 1.935-.645-1.373-1.894-1.935-3.287-1.935-1.602.02-2.518.728-3.12 1.519l-.25-1.394h-1.956V42h2.247v-5.7c0-1.893.957-3.141 2.496-3.141 1.477 0 2.247.977 2.247 2.85V42h2.267v-5.762c0-1.914.978-3.08 2.517-3.08 1.457 0 2.226.978 2.226 2.85V42h2.247v-6.137c0-3.37-1.789-4.639-3.994-4.639zm15.767 8.82c-.458 0-.687-.145-.687-.686v-4.265c0-2.517-1.623-3.869-4.452-3.869-2.683 0-4.472 1.29-4.701 3.37h2.205c.166-.936 1.06-1.56 2.392-1.56 1.477 0 2.33.728 2.33 1.914v.645h-2.683c-2.975 0-4.556 1.227-4.556 3.411 0 1.977 1.622 3.12 3.952 3.12 1.727 0 2.809-.748 3.516-1.83 0 1.061.5 1.706 1.956 1.706h1.185v-1.956h-.457zm-2.913-2.413c-.02 1.644-1.102 2.746-2.975 2.746-1.227 0-1.976-.624-1.976-1.518 0-1.082.77-1.602 2.164-1.602h2.787v.374zm9.982-6.282c-1.747 0-2.6.707-3.141 1.602l-.25-1.602h-1.997V42h2.247v-5.346c0-1.644.645-3.204 2.642-3.204h.998v-2.101h-.499zM110.551 42h2.247v-2.704l1.914-1.998L117.853 42h2.663l-4.265-6.345 4.015-4.306h-2.642l-4.826 5.159v-9.07h-2.247V42zm15.436.125c2.642 0 4.431-1.602 4.806-3.703h-2.247c-.312 1.186-1.31 1.872-2.683 1.872-1.769 0-2.913-1.186-2.975-2.995v-.146h8.03c.041-.291.062-.583.062-.853-.062-3.12-2.122-5.076-5.201-5.076-3.141 0-5.242 2.184-5.242 5.471 0 3.266 2.101 5.43 5.45 5.43zm-3.016-6.615c.166-1.52 1.394-2.476 2.829-2.476 1.56 0 2.663.894 2.85 2.476h-5.679zm10.514 3.598c0 1.935.874 2.892 2.912 2.892h2.081v-1.976h-1.581c-.853 0-1.145-.312-1.145-1.145v-5.554h2.601V31.35h-2.601v-2.975h-2.267v2.975h-1.852v1.976h1.852v5.783zM13.365 54.224c-1.748 0-2.954.77-3.64 1.935-.646-1.373-1.894-1.935-3.288-1.935-1.602.02-2.517.728-3.12 1.519l-.25-1.394H1.112V65h2.246v-5.7c0-1.893.957-3.141 2.497-3.141 1.477 0 2.247.977 2.247 2.85V65h2.267v-5.762c0-1.914.978-3.08 2.517-3.08 1.456 0 2.226.978 2.226 2.85V65h2.247v-6.137c0-3.37-1.79-4.639-3.994-4.639zm10.984 10.9c3.245 0 5.43-2.183 5.43-5.45 0-3.245-2.185-5.45-5.43-5.45-3.246 0-5.43 2.205-5.43 5.45 0 3.267 2.184 5.45 5.43 5.45zm0-1.913c-1.893 0-3.12-1.477-3.12-3.537 0-2.06 1.227-3.536 3.12-3.536s3.141 1.477 3.141 3.536c0 2.06-1.248 3.537-3.141 3.537zM33.969 65h2.745l3.932-10.651h-2.372l-2.891 8.238-2.934-8.238h-2.413L33.968 65zm12.382.125c2.642 0 4.43-1.602 4.805-3.703H48.91c-.312 1.186-1.311 1.872-2.684 1.872-1.768 0-2.912-1.186-2.975-2.995v-.146h8.03c.042-.291.063-.583.063-.853-.063-3.12-2.122-5.076-5.201-5.076-3.142 0-5.243 2.184-5.243 5.471 0 3.266 2.102 5.43 5.45 5.43zm-3.017-6.615c.167-1.52 1.394-2.476 2.83-2.476 1.56 0 2.662.894 2.85 2.476h-5.68zm9.307 2.974c.063 2.31 2.018 3.64 4.868 3.64 2.58 0 4.514-1.289 4.514-3.328 0-2.371-1.976-2.87-4.41-3.162-1.54-.166-2.559-.291-2.559-1.29 0-.852.874-1.393 2.206-1.393 1.331 0 2.246.686 2.371 1.664h2.205c-.145-2.184-1.997-3.391-4.618-3.391-2.559-.02-4.369 1.29-4.369 3.308 0 2.205 1.914 2.725 4.348 3.016 1.644.208 2.621.291 2.621 1.436 0 .852-.915 1.393-2.309 1.393-1.622 0-2.58-.79-2.663-1.893h-2.205z" fill="url(#paint0_linear_1240_6026)"/><defs><linearGradient id="paint0_linear_1240_6026" x1="200.009" y1="20.422" x2=".009" y2="20.422" gradientUnits="userSpaceOnUse"><stop stop-color="#FF4343"/><stop offset=".5" stop-color="#9C0B93"/><stop offset="1" stop-color="#4C1BB7"/></linearGradient></defs></svg>