<svg width="137" height="52" viewBox="0 0 137 52" fill="none" xmlns="http://www.w3.org/2000/svg"><path d="M1.008 10H4.41c2.282 0 3.458-1.036 3.458-2.73 0-1.4-.91-2.142-2.212-2.338C6.748 4.652 7.42 3.91 7.42 2.72 7.42 1.166 6.328.2 4.354.2H1.008V10zM4.382.886c1.47 0 2.282.714 2.282 1.876 0 1.176-.826 1.89-2.282 1.89H1.764V.886h2.618zm.028 4.452c1.694 0 2.674.686 2.674 1.974 0 1.232-.91 2.002-2.674 2.002H1.764V5.338H4.41zm8.056 4.746c1.554 0 2.744-1.008 3.052-2.436h-.728c-.28 1.106-1.218 1.792-2.38 1.792-1.582 0-2.576-1.204-2.604-2.856v-.126h5.796c0-.098.014-.21.014-.294-.07-2.114-1.372-3.346-3.276-3.346-1.946 0-3.276 1.484-3.276 3.584 0 2.226 1.386 3.682 3.402 3.682zM9.862 5.856c.112-1.442 1.19-2.408 2.492-2.408 1.386 0 2.38.854 2.492 2.408H9.862zm13.41 3.486c-.42 0-.63-.14-.63-.686V5.352c0-1.624-.994-2.534-2.773-2.534-1.623 0-2.701.784-2.884 2.072h.715c.181-.868.938-1.442 2.142-1.442 1.33 0 2.085.7 2.085 1.876v.616H19.52c-1.82 0-2.8.784-2.8 2.114 0 1.26.994 2.03 2.506 2.03 1.442 0 2.296-.658 2.73-1.54v.252c-.029.84.322 1.204 1.162 1.204h.42v-.658h-.267zM21.927 7.13c0 1.358-.965 2.338-2.645 2.338-1.134 0-1.834-.574-1.834-1.456 0-.938.7-1.456 2.015-1.456h2.464v.574zm3.097 1.218c0 1.134.462 1.652 1.666 1.652h1.036v-.658h-.98c-.742 0-1.008-.28-1.008-1.008V3.56h1.918v-.658h-1.918V.914h-.714v1.988H23.68v.658h1.344v4.788zm8.094 0c0 1.134.462 1.652 1.666 1.652h1.036v-.658h-.98c-.742 0-1.008-.28-1.008-1.008V3.56h1.918v-.658h-1.918V.914h-.714v1.988h-1.344v.658h1.344v4.788zm7.064-5.53c-1.33 0-2.156.742-2.562 1.764V.2h-.714V10h.714V6.5c0-1.848.938-3.024 2.45-3.024 1.358 0 2.198.896 2.198 2.576V10h.714V6.024c0-2.24-1.19-3.206-2.8-3.206zm7.421 7.266c1.554 0 2.744-1.008 3.052-2.436h-.728c-.28 1.106-1.218 1.792-2.38 1.792-1.582 0-2.576-1.204-2.604-2.856v-.126h5.796c0-.098.014-.21.014-.294-.07-2.114-1.372-3.346-3.276-3.346-1.946 0-3.276 1.484-3.276 3.584 0 2.226 1.386 3.682 3.402 3.682zm-2.604-4.228c.112-1.442 1.19-2.408 2.492-2.408 1.386 0 2.38.854 2.492 2.408h-4.984zm14.369-3.038c-1.33 0-2.268.728-2.716 1.736V.2h-.714V10h.616l.112-1.61c.42 1.022 1.372 1.694 2.702 1.694 1.946 0 3.346-1.484 3.346-3.64 0-2.226-1.4-3.626-3.346-3.626zm-.056 6.622c-1.582 0-2.674-1.232-2.674-3.01 0-1.736 1.092-2.982 2.674-2.982 1.582 0 2.674 1.246 2.674 2.996 0 1.764-1.092 2.996-2.674 2.996zm7.951.644c1.554 0 2.744-1.008 3.052-2.436h-.728c-.28 1.106-1.218 1.792-2.38 1.792-1.582 0-2.576-1.204-2.604-2.856v-.126H70.4c0-.098.014-.21.014-.294-.07-2.114-1.372-3.346-3.276-3.346-1.946 0-3.276 1.484-3.276 3.584 0 2.226 1.386 3.682 3.402 3.682zM64.66 5.856c.112-1.442 1.19-2.408 2.492-2.408 1.386 0 2.38.854 2.492 2.408H64.66zM71.824 10h.714V.2h-.714V10zm2.393 0h.714V.2h-.714V10zm7.888 0h.77l2.1-5.964L86.977 10h.77l2.52-7.098h-.728l-2.184 6.244-2.03-6.244h-.658l-2.142 6.244-2.072-6.244h-.756L82.105 10zm9.525-8.596c.28 0 .504-.21.504-.504a.493.493 0 00-.504-.504c-.28 0-.504.21-.504.504 0 .294.224.504.504.504zM91.266 10h.714V2.902h-.714V10zm2.924-1.652c0 1.134.462 1.652 1.666 1.652h1.036v-.658h-.98c-.742 0-1.008-.28-1.008-1.008V3.56h1.918v-.658h-1.918V.914h-.714v1.988h-1.344v.658h1.344v4.788zm7.065-5.53c-1.33 0-2.156.742-2.562 1.764V.2h-.714V10h.714V6.5c0-1.848.938-3.024 2.45-3.024 1.358 0 2.198.896 2.198 2.576V10h.714V6.024c0-2.24-1.19-3.206-2.8-3.206zM3.976 30.084c1.554 0 2.744-1.008 3.052-2.436H6.3c-.28 1.106-1.218 1.792-2.38 1.792-1.582 0-2.576-1.204-2.604-2.856v-.126h5.796c0-.098.014-.21.014-.294-.07-2.114-1.372-3.346-3.276-3.346-1.946 0-3.276 1.484-3.276 3.584 0 2.226 1.386 3.682 3.402 3.682zm-2.604-4.228c.112-1.442 1.19-2.408 2.492-2.408 1.386 0 2.38.854 2.492 2.408H1.372zM7.535 30h.826l2.352-3.122L13.065 30h.868l-2.758-3.626 2.618-3.472h-.812l-2.24 2.94-2.212-2.94h-.854l2.618 3.472L7.535 30zm7.946-1.652c0 1.134.462 1.652 1.666 1.652h1.036v-.658h-.98c-.742 0-1.008-.28-1.008-1.008V23.56h1.918v-.658h-1.918v-1.988h-.714v1.988h-1.344v.658h1.344v4.788zm6.706 1.736c1.554 0 2.744-1.008 3.052-2.436h-.728c-.28 1.106-1.218 1.792-2.38 1.792-1.582 0-2.576-1.204-2.604-2.856v-.126h5.796c0-.098.014-.21.014-.294-.07-2.114-1.372-3.346-3.276-3.346-1.946 0-3.276 1.484-3.276 3.584 0 2.226 1.386 3.682 3.402 3.682zm-2.604-4.228c.112-1.442 1.19-2.408 2.492-2.408 1.386 0 2.38.854 2.492 2.408h-4.984zm10.441-3.038c-1.302 0-2.142.672-2.548 1.596l-.112-1.512h-.616V30h.714v-3.5c0-1.848.938-3.024 2.45-3.024 1.372 0 2.198.896 2.198 2.576V30h.714v-3.976c0-2.24-1.19-3.206-2.8-3.206zm10.067 1.68c-.434-1.008-1.386-1.68-2.716-1.68-1.946 0-3.346 1.484-3.346 3.626 0 2.24 1.4 3.64 3.346 3.64 1.33 0 2.254-.714 2.702-1.708L40.19 30h.616v-9.8h-.714v4.298zm-2.66 4.942c-1.582 0-2.674-1.232-2.674-2.996 0-1.75 1.092-2.996 2.674-2.996 1.582 0 2.674 1.246 2.674 3.01 0 1.75-1.092 2.982-2.674 2.982zm8.19.644c1.553 0 2.743-1.008 3.051-2.436h-.727c-.28 1.106-1.218 1.792-2.38 1.792-1.582 0-2.576-1.204-2.604-2.856v-.126h5.796c0-.098.014-.21.014-.294-.07-2.114-1.373-3.346-3.276-3.346-1.947 0-3.276 1.484-3.276 3.584 0 2.226 1.386 3.682 3.401 3.682zm-2.605-4.228c.113-1.442 1.19-2.408 2.492-2.408 1.386 0 2.38.854 2.492 2.408h-4.983zm12.962-1.358c-.434-1.008-1.386-1.68-2.716-1.68-1.946 0-3.346 1.484-3.346 3.626 0 2.24 1.4 3.64 3.346 3.64 1.33 0 2.254-.714 2.702-1.708L56.076 30h.616v-9.8h-.714v4.298zm-2.66 4.942c-1.582 0-2.674-1.232-2.674-2.996 0-1.75 1.092-2.996 2.674-2.996 1.582 0 2.674 1.246 2.674 3.01 0 1.75-1.092 2.982-2.674 2.982zm12.103-6.622c-1.33 0-2.156.742-2.562 1.764V20.2h-.714V30h.714v-3.5c0-1.848.938-3.024 2.45-3.024 1.358 0 2.198.896 2.198 2.576V30h.714v-3.976c0-2.24-1.19-3.206-2.8-3.206zm7.42 7.266c2.002 0 3.416-1.484 3.416-3.64 0-2.142-1.414-3.626-3.416-3.626s-3.402 1.484-3.402 3.626c0 2.156 1.4 3.64 3.402 3.64zm0-.644c-1.582 0-2.674-1.232-2.674-2.996 0-1.75 1.092-2.996 2.674-2.996 1.582 0 2.674 1.246 2.674 2.996 0 1.764-1.092 2.996-2.674 2.996zm9.987-3.052c0 1.862-.924 3.038-2.394 3.038-1.316 0-2.128-.896-2.128-2.59v-3.934h-.714v3.976c0 2.226 1.162 3.206 2.73 3.206 1.26 0 2.086-.672 2.492-1.582L82.912 30h.63v-7.098h-.714v3.486zm5.293-3.486c-1.316 0-1.876.63-2.17 1.414l-.112-1.414h-.616V30h.714v-3.598c0-1.442.378-2.814 2.044-2.814h.518v-.686h-.378zm.936 4.914c.056 1.47 1.246 2.268 3.024 2.268 1.526 0 2.758-.77 2.758-2.03 0-1.498-1.316-1.792-2.842-2.002-1.106-.154-2.086-.28-2.086-1.274 0-.812.798-1.344 2.002-1.344 1.134 0 1.946.546 2.072 1.47h.728c-.126-1.386-1.26-2.086-2.8-2.086-1.582-.014-2.716.798-2.716 2.016 0 1.428 1.316 1.694 2.772 1.89 1.19.168 2.156.322 2.156 1.372 0 .84-.882 1.372-2.044 1.372-1.358 0-2.24-.63-2.296-1.652h-.728zm14.054 2.268c2.002 0 3.416-1.484 3.416-3.64 0-2.142-1.414-3.626-3.416-3.626s-3.402 1.484-3.402 3.626c0 2.156 1.4 3.64 3.402 3.64zm0-.644c-1.582 0-2.674-1.232-2.674-2.996 0-1.75 1.092-2.996 2.674-2.996 1.582 0 2.674 1.246 2.674 2.996 0 1.764-1.092 2.996-2.674 2.996zm8.11-6.622c-1.302 0-2.142.672-2.548 1.596l-.112-1.512h-.616V30h.714v-3.5c0-1.848.938-3.024 2.45-3.024 1.372 0 2.198.896 2.198 2.576V30h.714v-3.976c0-2.24-1.19-3.206-2.8-3.206zM1.022 50l1.176-2.996h4.508L7.882 50h.812l-3.78-9.8h-.882L.238 50h.784zm3.43-8.96l2.03 5.264h-4.06l2.03-5.264zm13.24 1.778c-1.302 0-2.142.728-2.548 1.778-.336-1.176-1.218-1.778-2.338-1.778-1.218 0-1.946.714-2.31 1.596l-.112-1.512h-.616V50h.714v-3.612c0-1.736.84-2.912 2.198-2.912 1.232 0 2.002.868 2.002 2.506V50h.714v-3.864c.042-1.624.882-2.66 2.212-2.66 1.232 0 1.974.826 1.974 2.436V50h.728v-4.116c0-2.142-1.134-3.066-2.618-3.066zm10.447 6.524c-.42 0-.63-.14-.63-.686v-3.304c0-1.624-.994-2.534-2.772-2.534-1.624 0-2.702.784-2.884 2.072h.714c.182-.868.938-1.442 2.142-1.442 1.33 0 2.086.7 2.086 1.876v.616h-2.408c-1.82 0-2.8.784-2.8 2.114 0 1.26.994 2.03 2.506 2.03 1.442 0 2.296-.658 2.73-1.54v.252c-.028.84.322 1.204 1.162 1.204h.42v-.658h-.266zm-1.344-2.212c0 1.358-.966 2.338-2.646 2.338-1.134 0-1.834-.574-1.834-1.456 0-.938.7-1.456 2.016-1.456h2.464v.574zm2.27-3.57h4.564l-4.76 5.88V50h5.907v-.658h-4.97l4.774-5.894v-.546h-5.515v.658zm9.57 6.524c2.001 0 3.415-1.484 3.415-3.64 0-2.142-1.414-3.626-3.416-3.626s-3.402 1.484-3.402 3.626c0 2.156 1.4 3.64 3.402 3.64zm0-.644c-1.583 0-2.675-1.232-2.675-2.996 0-1.75 1.092-2.996 2.674-2.996 1.582 0 2.674 1.246 2.674 2.996 0 1.764-1.092 2.996-2.674 2.996zm8.11-6.622c-1.302 0-2.142.672-2.548 1.596l-.112-1.512h-.616V50h.714v-3.5c0-1.848.938-3.024 2.45-3.024 1.372 0 2.198.896 2.198 2.576V50h.714v-3.976c0-2.24-1.19-3.206-2.8-3.206zm4.674 6.202c-.378 0-.616.238-.616.546 0 .336.224.504.49.504.14 0 .28-.056.35-.168a.505.505 0 01.126.364c0 .532-.336 1.078-1.05 1.106v.42c.966-.042 1.568-.686 1.568-1.61 0-.644-.364-1.162-.868-1.162zm5.49-8.12h3.36V50h.756v-9.1h3.36v-.7h-7.476v.7zm10.477 9.184c1.554 0 2.744-1.008 3.052-2.436h-.728c-.28 1.106-1.218 1.792-2.38 1.792-1.582 0-2.576-1.204-2.604-2.856v-.126h5.796c0-.098.014-.21.014-.294-.07-2.114-1.372-3.346-3.276-3.346-1.946 0-3.276 1.484-3.276 3.584 0 2.226 1.386 3.682 3.402 3.682zm-2.604-4.228c.112-1.442 1.19-2.408 2.492-2.408 1.386 0 2.38.854 2.492 2.408h-4.984zm6.83 1.96c.056 1.47 1.246 2.268 3.024 2.268 1.526 0 2.758-.77 2.758-2.03 0-1.498-1.316-1.792-2.842-2.002-1.106-.154-2.086-.28-2.086-1.274 0-.812.798-1.344 2.002-1.344 1.134 0 1.946.546 2.072 1.47h.728c-.126-1.386-1.26-2.086-2.8-2.086-1.582-.014-2.716.798-2.716 2.016 0 1.428 1.316 1.694 2.772 1.89 1.19.168 2.156.322 2.156 1.372 0 .84-.882 1.372-2.044 1.372-1.358 0-2.24-.63-2.296-1.652h-.728zM78.756 50h.714v-9.8h-.714V50zm8.637-.658c-.42 0-.63-.14-.63-.686v-3.304c0-1.624-.994-2.534-2.772-2.534-1.624 0-2.702.784-2.884 2.072h.714c.182-.868.938-1.442 2.142-1.442 1.33 0 2.086.7 2.086 1.876v.616H83.64c-1.82 0-2.8.784-2.8 2.114 0 1.26.994 2.03 2.506 2.03 1.442 0 2.296-.658 2.73-1.54v.252c-.028.84.322 1.204 1.162 1.204h.42v-.658h-.266zm-1.344-2.212c0 1.358-.966 2.338-2.646 2.338-1.134 0-1.834-.574-1.834-1.456 0-.938.7-1.456 2.016-1.456h2.464v.574zm13.996 2.226c-.392 0-.672-.084-.966-.448l-.7-.812 2.226-3.388h-.756l-1.904 2.87-2.184-2.562-.084-.098c1.876-.784 2.548-1.68 2.548-2.772 0-1.162-.91-2.03-2.142-2.03-1.456 0-2.534.966-2.534 2.254 0 .896.308 1.456 1.064 2.38-1.708.728-2.394 1.736-2.394 2.842 0 1.61 1.274 2.492 2.87 2.492 1.092 0 2.044-.49 2.842-1.428l.686.812c.336.406.798.532 1.33.532h.98v-.644h-.882zm-4.018-8.624c.868 0 1.47.602 1.47 1.428 0 .952-.658 1.638-2.198 2.31-.714-.854-1.008-1.344-1.008-2.114 0-.938.714-1.624 1.736-1.624zm-.924 8.708c-1.232 0-2.156-.7-2.156-1.904 0-1.022.574-1.652 2.03-2.352l.21.238 2.324 2.744c-.658.826-1.484 1.274-2.408 1.274zm18.962-6.622c-1.302 0-2.142.728-2.548 1.778-.336-1.176-1.218-1.778-2.338-1.778-1.218 0-1.946.714-2.31 1.596l-.112-1.512h-.616V50h.714v-3.612c0-1.736.84-2.912 2.198-2.912 1.232 0 2.002.868 2.002 2.506V50h.714v-3.864c.042-1.624.882-2.66 2.212-2.66 1.232 0 1.974.826 1.974 2.436V50h.728v-4.116c0-2.142-1.134-3.066-2.618-3.066zm7.229 7.266c2.002 0 3.416-1.484 3.416-3.64 0-2.142-1.414-3.626-3.416-3.626s-3.402 1.484-3.402 3.626c0 2.156 1.4 3.64 3.402 3.64zm0-.644c-1.582 0-2.674-1.232-2.674-2.996 0-1.75 1.092-2.996 2.674-2.996 1.582 0 2.674 1.246 2.674 2.996 0 1.764-1.092 2.996-2.674 2.996zm7.733-6.538c-1.316 0-1.876.63-2.17 1.414l-.112-1.414h-.616V50h.714v-3.598c0-1.442.378-2.814 2.044-2.814h.518v-.686h-.378zm4.066 7.182c1.554 0 2.744-1.008 3.052-2.436h-.728c-.28 1.106-1.218 1.792-2.38 1.792-1.582 0-2.576-1.204-2.604-2.856v-.126h5.796c0-.098.014-.21.014-.294-.07-2.114-1.372-3.346-3.276-3.346-1.946 0-3.276 1.484-3.276 3.584 0 2.226 1.386 3.682 3.402 3.682zm-2.604-4.228c.112-1.442 1.19-2.408 2.492-2.408 1.386 0 2.38.854 2.492 2.408h-4.984z" fill="#000"/></svg>