<svg width="122" height="23" viewBox="0 0 122 23" fill="none" xmlns="http://www.w3.org/2000/svg"><rect width="122" height="23" rx="11.5" fill="#000"/><path d="M22.22 8.18h2.497V15h.957V8.18h2.497V7.3H22.22v.88zm10.932 5.995c-.253 0-.363-.077-.363-.374v-2.453c0-1.309-.825-2.024-2.255-2.024-1.353 0-2.244.649-2.376 1.749h.902c.11-.572.638-.946 1.43-.946.88 0 1.397.44 1.397 1.166v.385h-1.65c-1.474 0-2.255.627-2.255 1.749 0 1.023.836 1.639 2.068 1.639.968 0 1.53-.429 1.881-.935.011.55.264.869 1.012.869h.495v-.825h-.286zm-1.265-1.463c0 .935-.649 1.584-1.77 1.584-.749 0-1.222-.374-1.222-.924 0-.638.451-.935 1.254-.935h1.738v.275zM34.132 15h.902v-1.474l1.133-1.166L38.026 15h1.089l-2.343-3.289L38.96 9.39H37.85l-2.816 2.981V7.3h-.902V15zm7.88.066c1.298 0 2.222-.825 2.443-1.947h-.913c-.188.726-.803 1.144-1.596 1.144-1.066 0-1.737-.748-1.77-1.815v-.077h4.355c.011-.132.023-.264.023-.385-.044-1.661-1.079-2.662-2.663-2.662-1.584 0-2.661 1.166-2.661 2.871 0 1.716 1.1 2.871 2.783 2.871zm-1.782-3.443c.089-.913.848-1.507 1.673-1.507.934 0 1.595.539 1.683 1.507H40.23zm13.193 2.552c-.253 0-.363-.077-.363-.374v-2.453c0-1.309-.825-2.024-2.255-2.024-1.353 0-2.244.649-2.376 1.749h.902c.11-.572.638-.946 1.43-.946.88 0 1.397.44 1.397 1.166v.385h-1.65c-1.474 0-2.255.627-2.255 1.749 0 1.023.836 1.639 2.068 1.639.968 0 1.529-.429 1.88-.935.012.55.265.869 1.013.869h.495v-.825h-.286zm-1.265-1.463c0 .935-.65 1.584-1.771 1.584-.748 0-1.221-.374-1.221-.924 0-.638.45-.935 1.254-.935h1.738v.275zm6.602-2.464c-.341-.539-.98-.924-1.925-.924-1.551 0-2.695 1.155-2.695 2.871 0 1.826 1.144 2.871 2.695 2.871.946 0 1.55-.451 1.925-.968l.12.902h.782V7.3h-.902v2.948zm-1.837 4.015c-1.111 0-1.86-.847-1.86-2.068s.749-2.068 1.86-2.068c1.1 0 1.848.858 1.848 2.09 0 1.199-.748 2.046-1.848 2.046zM62.43 15h1.09l2.1-5.61h-.946l-1.683 4.587-1.694-4.587h-.968L62.43 15zm8.556-.825c-.253 0-.363-.077-.363-.374v-2.453c0-1.309-.825-2.024-2.255-2.024-1.353 0-2.244.649-2.376 1.749h.902c.11-.572.638-.946 1.43-.946.88 0 1.397.44 1.397 1.166v.385h-1.65c-1.474 0-2.255.627-2.255 1.749 0 1.023.836 1.639 2.068 1.639.968 0 1.53-.429 1.881-.935.011.55.264.869 1.012.869h.495v-.825h-.286zm-1.265-1.463c0 .935-.649 1.584-1.77 1.584-.749 0-1.222-.374-1.222-.924 0-.638.451-.935 1.254-.935h1.738v.275zm4.995-3.388c-.946 0-1.518.396-1.848.825l-.121-.759h-.781V15h.902v-2.805c0-1.265.638-2.046 1.694-2.046.979 0 1.518.616 1.518 1.782V15h.902v-3.124c0-1.859-1.001-2.552-2.266-2.552zm3.834 4.213c0 .99.385 1.463 1.463 1.463h.979v-.825H80.1c-.484 0-.65-.176-.65-.649v-3.311h1.453V9.39h-1.452V7.817h-.902V9.39h-1.012v.825h1.012v3.322zm8.098.638c-.253 0-.363-.077-.363-.374v-2.453c0-1.309-.825-2.024-2.255-2.024-1.353 0-2.244.649-2.376 1.749h.902c.11-.572.638-.946 1.43-.946.88 0 1.397.44 1.397 1.166v.385h-1.65c-1.474 0-2.255.627-2.255 1.749 0 1.023.836 1.639 2.068 1.639.968 0 1.53-.429 1.881-.935.011.55.264.869 1.012.869h.495v-.825h-.286zm-1.265-1.463c0 .935-.649 1.584-1.77 1.584-.749 0-1.222-.374-1.222-.924 0-.638.451-.935 1.254-.935h1.738v.275zm6.667-2.354c-.352-.627-.98-1.034-1.925-1.034-1.551 0-2.695 1.155-2.695 2.871 0 1.826 1.144 2.871 2.695 2.871.946 0 1.55-.396 1.925-1.034v.66c0 1.221-.638 1.771-1.815 1.771-.935 0-1.562-.396-1.716-1.1h-.924c.143 1.232 1.144 1.903 2.574 1.903 1.925 0 2.783-.924 2.783-2.541V9.39h-.781l-.121.968zm-1.837 3.905c-1.111 0-1.86-.847-1.86-2.068s.749-2.068 1.86-2.068c1.1 0 1.848.858 1.848 2.09 0 1.199-.748 2.046-1.848 2.046zm6.553.803c1.297 0 2.221-.825 2.441-1.947h-.912c-.188.726-.803 1.144-1.596 1.144-1.067 0-1.737-.748-1.77-1.815v-.077h4.355c.011-.132.022-.264.022-.385-.043-1.661-1.078-2.662-2.662-2.662-1.584 0-2.662 1.166-2.662 2.871 0 1.716 1.1 2.871 2.784 2.871zm-1.782-3.443c.088-.913.847-1.507 1.672-1.507.934 0 1.594.539 1.682 1.507h-3.354z" fill="#fff"/></svg>