<svg width="111" height="58" viewBox="0 0 111 58" fill="none" xmlns="http://www.w3.org/2000/svg"><path d="M12.906 6.7c0-3.69-2.502-6.408-6.12-6.408C3.168.292.666 3.01.666 6.7c0 3.69 2.502 6.408 6.12 6.408 3.618 0 6.12-2.718 6.12-6.408zM2.79 6.7c0-2.664 1.602-4.59 3.996-4.59s3.996 1.926 3.996 4.59c0 2.664-1.602 4.59-3.996 4.59S2.79 9.364 2.79 6.7zm18.052 1.692c0 1.908-.9 3.024-2.376 3.024-1.422 0-2.142-.918-2.142-2.718V3.784H14.38v5.13c0 3.15 1.674 4.194 3.636 4.194 1.422 0 2.268-.576 2.844-1.278l.216 1.17h1.71V3.784h-1.944v4.608zm4.579 2.106c0 1.674.756 2.502 2.52 2.502h1.8v-1.71h-1.368c-.738 0-.99-.27-.99-.99V5.494h2.25v-1.71h-2.25V1.21H25.42v2.574h-1.602v1.71h1.602v5.004zM36.585 8.68V7.078h-6.12V8.68h6.12zm6.254 4.428c2.808 0 4.698-1.89 4.698-4.716 0-2.808-1.89-4.716-4.698-4.716-2.808 0-4.698 1.908-4.698 4.716 0 2.826 1.89 4.716 4.698 4.716zm0-1.656c-1.638 0-2.7-1.278-2.7-3.06s1.062-3.06 2.7-3.06c1.638 0 2.718 1.278 2.718 3.06s-1.08 3.06-2.718 3.06zm5.255-5.958h1.602V13h1.962V5.494h2.466v-1.71h-2.502V3.01c0-.63.27-.9.9-.9h1.602V.4H52.27c-1.782 0-2.574.864-2.574 2.52v.864h-1.602v1.71zM60.667 8.68V7.078h-6.12V8.68h6.12zm6.635-5.004c-1.44 0-2.322.648-2.898 1.44V.4H62.46V13h1.944V8.338c0-1.854.936-2.988 2.466-2.988 1.44 0 2.214.936 2.214 2.682V13h1.944V7.87c0-3.078-1.674-4.194-3.726-4.194zm9.78 9.432c2.808 0 4.698-1.89 4.698-4.716 0-2.808-1.89-4.716-4.698-4.716-2.808 0-4.698 1.908-4.698 4.716 0 2.826 1.89 4.716 4.698 4.716zm0-1.656c-1.638 0-2.7-1.278-2.7-3.06s1.061-3.06 2.7-3.06c1.638 0 2.718 1.278 2.718 3.06s-1.08 3.06-2.718 3.06zm12.579-3.06c0 1.908-.9 3.024-2.376 3.024-1.422 0-2.142-.918-2.142-2.718V3.784h-1.944v5.13c0 3.15 1.674 4.194 3.636 4.194 1.422 0 2.268-.576 2.844-1.278l.216 1.17h1.71V3.784H89.66v4.608zm8.521-4.608c-1.512 0-2.25.612-2.718 1.386l-.216-1.386H93.52V13h1.944V8.374c0-1.422.558-2.772 2.286-2.772h.864V3.784h-.432zm1.077 6.174c.054 1.998 1.746 3.15 4.212 3.15 2.232 0 3.906-1.116 3.906-2.88 0-2.052-1.71-2.484-3.816-2.736-1.332-.144-2.214-.252-2.214-1.116 0-.738.756-1.206 1.908-1.206s1.944.594 2.052 1.44h1.908c-.126-1.89-1.728-2.934-3.996-2.934-2.214-.018-3.78 1.116-3.78 2.862 0 1.908 1.656 2.358 3.762 2.61 1.422.18 2.268.252 2.268 1.242 0 .738-.792 1.206-1.998 1.206-1.404 0-2.232-.684-2.304-1.638h-1.908zM1.62 32.498c0 1.674.756 2.502 2.52 2.502h1.8v-1.71H4.572c-.738 0-.99-.27-.99-.99v-4.806h2.25v-1.71h-2.25V23.21H1.62v2.574H.018v1.71H1.62v5.004zm10.219-6.714c-1.512 0-2.25.612-2.718 1.386l-.216-1.386H7.177V35H9.12v-4.626c0-1.422.558-2.772 2.286-2.772h.864v-1.818h-.432zm9.773 7.524c-.396 0-.594-.126-.594-.594v-3.69c0-2.178-1.404-3.348-3.852-3.348-2.322 0-3.87 1.116-4.068 2.916h1.908c.144-.81.918-1.35 2.07-1.35 1.278 0 2.016.63 2.016 1.656v.558H16.77c-2.574 0-3.942 1.062-3.942 2.952 0 1.71 1.404 2.7 3.42 2.7 1.494 0 2.43-.648 3.042-1.584 0 .918.432 1.476 1.692 1.476h1.026v-1.692h-.396zm-2.52-2.088c-.018 1.422-.954 2.376-2.574 2.376-1.062 0-1.71-.54-1.71-1.314 0-.936.666-1.386 1.872-1.386h2.412v.324zM30 27.062c-.594-.81-1.584-1.386-2.988-1.386-2.502 0-4.356 1.872-4.356 4.716 0 2.952 1.854 4.716 4.356 4.716 1.458 0 2.412-.684 3.006-1.494L30.251 35h1.692V22.4h-1.944v4.662zm-2.664 6.408c-1.62 0-2.682-1.26-2.682-3.078 0-1.8 1.062-3.06 2.682-3.06 1.62 0 2.682 1.26 2.682 3.096 0 1.782-1.062 3.042-2.682 3.042zm7.498-8.982c.666 0 1.188-.486 1.188-1.17 0-.684-.522-1.17-1.188-1.17-.666 0-1.188.486-1.188 1.17 0 .684.522 1.17 1.188 1.17zM33.843 35h1.944v-9.216h-1.944V35zm8.71-9.324c-1.495 0-2.377.594-2.953 1.314l-.216-1.206h-1.692V35h1.944v-4.644c0-1.872.918-3.006 2.466-3.006 1.458 0 2.196.936 2.196 2.682V35h1.962v-5.13c0-3.078-1.674-4.194-3.708-4.194zm12.513 1.548c-.594-.918-1.584-1.548-3.024-1.548-2.502 0-4.356 1.854-4.356 4.68 0 2.934 1.854 4.68 4.356 4.68 1.44 0 2.394-.594 3.006-1.512v1.026c0 1.764-.954 2.574-2.646 2.574-1.368 0-2.268-.594-2.502-1.62h-1.98c.18 2.07 1.89 3.204 4.338 3.204 3.312 0 4.716-1.584 4.716-4.086v-8.838h-1.692l-.216 1.44zm-2.7 6.174c-1.62 0-2.682-1.242-2.682-3.042 0-1.782 1.062-3.042 2.682-3.042 1.62 0 2.682 1.26 2.682 3.078 0 1.764-1.062 3.006-2.682 3.006zm15.47 1.71c2.807 0 4.697-1.89 4.697-4.716 0-2.808-1.89-4.716-4.698-4.716-2.808 0-4.698 1.908-4.698 4.716 0 2.826 1.89 4.716 4.698 4.716zm0-1.656c-1.639 0-2.7-1.278-2.7-3.06s1.061-3.06 2.7-3.06c1.637 0 2.717 1.278 2.717 3.06s-1.08 3.06-2.718 3.06zm11.12-7.776c-1.493 0-2.375.594-2.951 1.314l-.216-1.206h-1.692V35h1.944v-4.644c0-1.872.918-3.006 2.466-3.006 1.458 0 2.196.936 2.196 2.682V35h1.962v-5.13c0-3.078-1.674-4.194-3.708-4.194zM89.165 29.6c0 3.582 1.692 5.508 4.95 5.508 3.276 0 4.986-1.926 4.986-5.508v-7.2h-2.07v7.308c0 2.34-.9 3.564-2.916 3.564-1.98 0-2.88-1.224-2.88-3.564V22.4h-2.07v7.2zm11.662 1.26c.072 2.52 1.962 4.248 5.094 4.248 2.772 0 4.662-1.566 4.662-3.834.018-2.484-2.016-3.15-4.104-3.528-1.98-.342-3.276-.612-3.276-1.908 0-1.188.99-1.8 2.412-1.8 1.53 0 2.538.864 2.7 2.142h2.07c-.09-2.322-1.89-3.888-4.77-3.888-2.682 0-4.482 1.494-4.482 3.69 0 2.502 1.98 3.168 4.068 3.528 1.998.36 3.312.648 3.312 1.98 0 1.206-1.08 1.872-2.574 1.872-1.764 0-2.916-.99-3.024-2.466l-2.088-.036zM.558 53.958c.054 1.998 1.746 3.15 4.212 3.15 2.232 0 3.906-1.116 3.906-2.88 0-2.052-1.71-2.484-3.816-2.736-1.332-.144-2.214-.252-2.214-1.116 0-.738.756-1.206 1.908-1.206s1.944.594 2.052 1.44h1.908c-.126-1.89-1.728-2.934-3.996-2.934-2.214-.018-3.78 1.116-3.78 2.862 0 1.908 1.656 2.358 3.762 2.61 1.422.18 2.268.252 2.268 1.242 0 .738-.792 1.206-1.998 1.206-1.404 0-2.232-.684-2.304-1.638H.558zm10.29.54c0 1.674.756 2.502 2.52 2.502h1.8v-1.71h-1.367c-.739 0-.99-.27-.99-.99v-4.806h2.25v-1.71h-2.25V45.21h-1.963v2.574H9.247v1.71h1.601v5.004zm9.72 2.61c2.808 0 4.698-1.89 4.698-4.716 0-2.808-1.89-4.716-4.698-4.716-2.808 0-4.698 1.908-4.698 4.716 0 2.826 1.89 4.716 4.698 4.716zm0-1.656c-1.638 0-2.7-1.278-2.7-3.06s1.062-3.06 2.7-3.06c1.638 0 2.718 1.278 2.718 3.06s-1.08 3.06-2.718 3.06zm10.491 1.656c2.358 0 3.924-1.314 4.284-3.402h-2.052c-.234 1.062-1.026 1.746-2.214 1.746-1.566 0-2.592-1.242-2.592-3.042 0-1.818 1.026-3.078 2.592-3.078 1.206 0 1.98.666 2.232 1.746h2.034c-.378-2.088-1.854-3.402-4.23-3.402-2.79 0-4.626 1.89-4.626 4.734 0 2.88 1.782 4.698 4.572 4.698zM36.831 57h1.944v-2.34l1.656-1.728L43.149 57h2.304l-3.69-5.49 3.474-3.726h-2.286l-4.176 4.464V44.4h-1.944V57zm8.815-3.042c.054 1.998 1.746 3.15 4.212 3.15 2.232 0 3.906-1.116 3.906-2.88 0-2.052-1.71-2.484-3.816-2.736-1.332-.144-2.214-.252-2.214-1.116 0-.738.756-1.206 1.908-1.206s1.944.594 2.052 1.44h1.908c-.126-1.89-1.728-2.934-3.996-2.934-2.214-.018-3.78 1.116-3.78 2.862 0 1.908 1.656 2.358 3.762 2.61 1.422.18 2.268.252 2.268 1.242 0 .738-.792 1.206-1.998 1.206-1.404 0-2.232-.684-2.304-1.638h-1.908z" fill="#000"/></svg>