<svg width="116" height="17" viewBox="0 0 116 17" fill="none" xmlns="http://www.w3.org/2000/svg"><path d="M31.841 8.45c0-.164-.003-.325-.01-.484h1.979l.525-1.476H31.67C30.94 2.452 27.88 0 23.258 0 18.06 0 14.7 3.359 14.7 8.55c0 5.244 3.255 8.475 8.558 8.45 4.321 0 7.388-2.306 8.3-6.082h1.806l.55-1.476h-2.116c.028-.323.043-.654.043-.993zm-8.478 6.21c-2.678-.001-3.728-2.75-3.728-6.16s.84-6.133 3.544-6.159c2.127 0 3.226 1.72 3.59 4.148h-2.303l-.525 1.476h2.957a16.495 16.495 0 01-.014 1.478h-2.839l-.551 1.476h3.238c-.364 2.21-1.343 3.74-3.37 3.74zM0 .382h13.387v3.944h-8.74v2.749h7.901v3.74H4.646v5.778H0V.383zm35.831 0v16.21h4.647v-4.911h2.047l3.36 4.912h5.355l-3.99-5.65c2.074-.866 3.439-2.52 3.439-4.988v-.05c0-1.579-.499-2.85-1.471-3.767C48.09 1.043 46.305.382 43.758.382h-7.927zm4.647 7.788V4.25h3.045c1.574 0 2.52.662 2.52 1.933v.051c0 1.196-.92 1.933-2.493 1.933l-3.072.003zm12.573 8.423h13.571v-3.819h-8.977v-2.569h8.032V6.668h-8.032V4.199h8.874V.382H53.05v16.21zm15.094 0h5.224l3.228-4.886 3.203 4.886h5.329L79.38 8.296 84.866.382H79.67l-2.992 4.556L73.71.382h-5.329l5.513 7.965-5.75 8.246zM89.67 8.908c-.005.446.083.888.259 1.3.176.412.436.784.765 1.096.328.312.719.556 1.147.717.43.161.887.237 1.347.222 1.47 0 2.336-.585 2.966-1.476l-1.575-1.094c-.367.407-.735.661-1.286.661-.788 0-1.34-.636-1.34-1.476v-.025c0-.79.552-1.426 1.313-1.426.25 0 .495.064.712.185.216.12.396.293.522.502l1.602-1.145a3.177 3.177 0 00-1.23-1.099 3.296 3.296 0 00-1.632-.35 3.579 3.579 0 00-1.368.234 3.494 3.494 0 00-1.164.735 3.372 3.372 0 00-.775 1.118c-.179.419-.268.869-.263 1.322m7.088 0c0 1.833 1.549 3.36 3.675 3.36 2.152 0 3.701-1.553 3.701-3.385v-.025c0-1.832-1.549-3.359-3.675-3.359-2.153 0-3.701 1.553-3.701 3.41m5.092 0c0 .764-.525 1.426-1.391 1.426a1.482 1.482 0 01-1.022-.437 1.364 1.364 0 01-.395-1.013v-.024a1.321 1.321 0 01.381-1c.13-.134.287-.24.46-.313.174-.073.361-.111.55-.112.193.004.384.046.561.123.177.077.336.187.468.325a1.394 1.394 0 01.388 1.028m3.413-3.283v6.458h2.336V8.576c0-.687.394-1.068.945-1.068.551 0 .919.356.919 1.068v3.512h2.31V8.576c0-.687.42-1.068.972-1.068s.919.356.919 1.068v3.538H116v-4.25c0-1.502-.866-2.367-2.284-2.367a2.902 2.902 0 00-1.24.272c-.386.18-.725.445-.991.771-.341-.661-1.024-1.043-1.916-1.043a2.502 2.502 0 00-1.126.273 2.413 2.413 0 00-.868.745v-.89h-2.313l.001.005zm-18.848 5.262a.971.971 0 00.08.463c.063.146.162.275.288.377.235.213.545.33.866.33.322 0 .631-.117.866-.33a1.187 1.187 0 00.373-.844 1.157 1.157 0 00-.359-.849 1.23 1.23 0 00-.876-.348 1.258 1.258 0 00-.87.361 1.18 1.18 0 00-.368.84z" fill="#fff"/></svg>