<svg width="159" height="41" viewBox="0 0 159 41" fill="none" xmlns="http://www.w3.org/2000/svg"><path d="M6.3 7.746c-1.98-.342-3.276-.612-3.276-1.908 0-1.188.99-1.8 2.412-1.8 1.53 0 2.538.864 2.7 2.142h2.07c-.072-2.034-1.458-3.474-3.726-3.816V.456H4.734v1.872C2.448 2.562.954 3.984.954 5.982c0 2.502 1.98 3.168 4.068 3.528 1.998.36 3.312.648 3.312 1.98 0 1.206-1.08 1.872-2.574 1.872-1.764 0-2.916-.99-3.024-2.466L.648 10.86c.072 2.232 1.566 3.852 4.086 4.176v1.89H6.48v-1.854c2.358-.252 3.924-1.746 3.924-3.798.018-2.484-2.016-3.15-4.104-3.528zm5.476 1.242c0 3.798 2.034 6.12 4.968 6.12s4.968-2.322 4.968-6.12v-.576c0-3.654-2.034-6.12-4.968-6.12s-4.968 2.466-4.968 6.12v.576zm7.92-.072c0 2.826-1.188 4.446-2.952 4.446s-2.952-1.62-2.952-4.446v-.432c0-2.808 1.188-4.446 2.952-4.446s2.952 1.638 2.952 4.446v.432zm12.506 6.192c2.358 0 3.924-1.314 4.284-3.402h-2.052c-.234 1.062-1.026 1.746-2.214 1.746-1.566 0-2.592-1.242-2.592-3.042 0-1.818 1.026-3.078 2.592-3.078 1.206 0 1.98.666 2.232 1.746h2.034c-.378-2.088-1.854-3.402-4.23-3.402-2.79 0-4.626 1.89-4.626 4.734 0 2.88 1.782 4.698 4.572 4.698zm10.128 0c2.808 0 4.698-1.89 4.698-4.716 0-2.808-1.89-4.716-4.698-4.716-2.808 0-4.698 1.908-4.698 4.716 0 2.826 1.89 4.716 4.698 4.716zm0-1.656c-1.639 0-2.7-1.278-2.7-3.06s1.061-3.06 2.7-3.06c1.638 0 2.718 1.278 2.718 3.06s-1.08 3.06-2.718 3.06zm16.863-7.776c-1.512 0-2.556.666-3.15 1.674-.558-1.188-1.638-1.674-2.844-1.674-1.386.018-2.178.63-2.7 1.314l-.216-1.206H48.59V15h1.944v-4.932c0-1.638.828-2.718 2.16-2.718 1.278 0 1.944.846 1.944 2.466V15H56.6v-4.986c0-1.656.846-2.664 2.178-2.664 1.26 0 1.926.846 1.926 2.466V15h1.944V9.69c0-2.916-1.548-4.014-3.456-4.014zm15.82 0c-1.512 0-2.556.666-3.15 1.674-.558-1.188-1.638-1.674-2.844-1.674-1.386.018-2.178.63-2.7 1.314l-.216-1.206h-1.692V15h1.944v-4.932c0-1.638.828-2.718 2.16-2.718 1.278 0 1.944.846 1.944 2.466V15h1.962v-4.986c0-1.656.846-2.664 2.178-2.664 1.26 0 1.926.846 1.926 2.466V15h1.944V9.69c0-2.916-1.548-4.014-3.456-4.014zm6.208-1.188c.666 0 1.188-.486 1.188-1.17 0-.684-.522-1.17-1.188-1.17-.666 0-1.188.486-1.188 1.17 0 .684.522 1.17 1.188 1.17zM80.231 15h1.944V5.784h-1.944V15zm3.454-3.042c.054 1.998 1.746 3.15 4.212 3.15 2.232 0 3.906-1.116 3.906-2.88 0-2.052-1.71-2.484-3.816-2.736-1.332-.144-2.214-.252-2.214-1.116 0-.738.756-1.206 1.908-1.206s1.944.594 2.052 1.44h1.908c-.126-1.89-1.728-2.934-3.996-2.934-2.214-.018-3.78 1.116-3.78 2.862 0 1.908 1.656 2.358 3.762 2.61 1.422.18 2.268.252 2.268 1.242 0 .738-.792 1.206-1.998 1.206-1.404 0-2.232-.684-2.304-1.638h-1.908zm9.053 0c.054 1.998 1.746 3.15 4.212 3.15 2.232 0 3.906-1.116 3.906-2.88 0-2.052-1.71-2.484-3.816-2.736-1.332-.144-2.214-.252-2.214-1.116 0-.738.756-1.206 1.908-1.206s1.944.594 2.052 1.44h1.908c-.126-1.89-1.728-2.934-3.996-2.934-2.214-.018-3.78 1.116-3.78 2.862 0 1.908 1.656 2.358 3.762 2.61 1.422.18 2.268.252 2.268 1.242 0 .738-.792 1.206-1.998 1.206-1.404 0-2.232-.684-2.304-1.638h-1.908zm10.614-7.47c.666 0 1.188-.486 1.188-1.17 0-.684-.522-1.17-1.188-1.17-.666 0-1.188.486-1.188 1.17 0 .684.522 1.17 1.188 1.17zM102.362 15h1.944V5.784h-1.944V15zm8.206.108c2.808 0 4.698-1.89 4.698-4.716 0-2.808-1.89-4.716-4.698-4.716-2.808 0-4.698 1.908-4.698 4.716 0 2.826 1.89 4.716 4.698 4.716zm0-1.656c-1.638 0-2.7-1.278-2.7-3.06s1.062-3.06 2.7-3.06c1.638 0 2.718 1.278 2.718 3.06s-1.08 3.06-2.718 3.06zm11.121-7.776c-1.494 0-2.376.594-2.952 1.314l-.216-1.206h-1.692V15h1.944v-4.644c0-1.872.918-3.006 2.466-3.006 1.458 0 2.196.936 2.196 2.682V15h1.962V9.87c0-3.078-1.674-4.194-3.708-4.194zM5.31 37.108c2.808 0 4.698-1.89 4.698-4.716 0-2.808-1.89-4.716-4.698-4.716-2.808 0-4.698 1.908-4.698 4.716 0 2.826 1.89 4.716 4.698 4.716zm0-1.656c-1.638 0-2.7-1.278-2.7-3.06s1.062-3.06 2.7-3.06c1.638 0 2.718 1.278 2.718 3.06s-1.08 3.06-2.718 3.06zm11.121-7.776c-1.494 0-2.376.594-2.952 1.314l-.216-1.206h-1.692V37h1.944v-4.644c0-1.872.918-3.006 2.466-3.006 1.458 0 2.196.936 2.196 2.682V37h1.962v-5.13c0-3.078-1.674-4.194-3.708-4.194zm20.684 0c-1.512 0-2.556.666-3.15 1.674-.558-1.188-1.638-1.674-2.844-1.674-1.386.018-2.178.63-2.7 1.314l-.216-1.206h-1.692V37h1.944v-4.932c0-1.638.828-2.718 2.16-2.718 1.278 0 1.944.846 1.944 2.466V37h1.962v-4.986c0-1.656.846-2.664 2.178-2.664 1.26 0 1.926.846 1.926 2.466V37h1.944v-5.31c0-2.916-1.548-4.014-3.456-4.014zm13.642 7.632c-.396 0-.594-.126-.594-.594v-3.69c0-2.178-1.404-3.348-3.852-3.348-2.322 0-3.87 1.116-4.068 2.916h1.908c.144-.81.918-1.35 2.07-1.35 1.278 0 2.016.63 2.016 1.656v.558h-2.322c-2.574 0-3.942 1.062-3.942 2.952 0 1.71 1.404 2.7 3.42 2.7 1.494 0 2.43-.648 3.042-1.584 0 .918.432 1.476 1.692 1.476h1.026v-1.692h-.396zm-2.52-2.088c-.018 1.422-.954 2.376-2.574 2.376-1.062 0-1.71-.54-1.71-1.314 0-.936.666-1.386 1.872-1.386h2.412v.324zm5.055-6.732c.666 0 1.188-.486 1.188-1.17 0-.684-.522-1.17-1.188-1.17-.666 0-1.188.486-1.188 1.17 0 .684.522 1.17 1.188 1.17zM50.304 40.6h1.44c1.728 0 2.52-.918 2.52-2.574V27.784H52.32v10.098c0 .702-.288 1.008-.972 1.008h-1.044v1.71zm10.219-3.492c2.808 0 4.698-1.89 4.698-4.716 0-2.808-1.89-4.716-4.698-4.716-2.808 0-4.698 1.908-4.698 4.716 0 2.826 1.89 4.716 4.698 4.716zm0-1.656c-1.638 0-2.7-1.278-2.7-3.06s1.062-3.06 2.7-3.06c1.638 0 2.718 1.278 2.718 3.06s-1.08 3.06-2.718 3.06zm10.923-7.668c-1.512 0-2.25.612-2.718 1.386l-.216-1.386h-1.728V37h1.944v-4.626c0-1.422.558-2.772 2.286-2.772h.864v-1.818h-.432zm6.362 3.816c0 3.582 1.692 5.508 4.95 5.508 3.276 0 4.987-1.926 4.987-5.508v-7.2h-2.07v7.308c0 2.34-.9 3.564-2.916 3.564-1.98 0-2.88-1.224-2.88-3.564V24.4h-2.07v7.2zm11.662 1.26c.072 2.52 1.962 4.248 5.094 4.248 2.772 0 4.662-1.566 4.662-3.834.018-2.484-2.016-3.15-4.104-3.528-1.98-.342-3.276-.612-3.276-1.908 0-1.188.99-1.8 2.412-1.8 1.53 0 2.538.864 2.7 2.142h2.07c-.09-2.322-1.89-3.888-4.77-3.888-2.682 0-4.482 1.494-4.482 3.69 0 2.502 1.98 3.168 4.068 3.528 1.998.36 3.312.648 3.312 1.98 0 1.206-1.08 1.872-2.574 1.872-1.764 0-2.916-.99-3.024-2.466l-2.088-.036zm15.59 1.098c.054 1.998 1.746 3.15 4.212 3.15 2.232 0 3.906-1.116 3.906-2.88 0-2.052-1.71-2.484-3.816-2.736-1.332-.144-2.214-.252-2.214-1.116 0-.738.756-1.206 1.908-1.206s1.944.594 2.052 1.44h1.908c-.126-1.89-1.728-2.934-3.996-2.934-2.214-.018-3.78 1.116-3.78 2.862 0 1.908 1.656 2.358 3.762 2.61 1.422.18 2.268.252 2.268 1.242 0 .738-.792 1.206-1.998 1.206-1.404 0-2.232-.684-2.304-1.638h-1.908zm14.466-6.282c-1.44 0-2.322.648-2.898 1.44V24.4h-1.944V37h1.944v-4.662c0-1.854.936-2.988 2.466-2.988 1.44 0 2.214.936 2.214 2.682V37h1.944v-5.13c0-3.078-1.674-4.194-3.726-4.194zm13.918 7.632c-.396 0-.594-.126-.594-.594v-3.69c0-2.178-1.404-3.348-3.852-3.348-2.322 0-3.87 1.116-4.068 2.916h1.908c.144-.81.918-1.35 2.07-1.35 1.278 0 2.016.63 2.016 1.656v.558h-2.322c-2.574 0-3.942 1.062-3.942 2.952 0 1.71 1.404 2.7 3.42 2.7 1.494 0 2.43-.648 3.042-1.584 0 .918.432 1.476 1.692 1.476h1.026v-1.692h-.396zm-2.52-2.088c-.018 1.422-.954 2.376-2.574 2.376-1.062 0-1.71-.54-1.71-1.314 0-.936.666-1.386 1.872-1.386h2.412v.324zm8.637-5.436c-1.512 0-2.25.612-2.718 1.386l-.216-1.386h-1.728V37h1.944v-4.626c0-1.422.558-2.772 2.286-2.772h.864v-1.818h-.432zm5.566 9.324c2.286 0 3.834-1.386 4.158-3.204h-1.944c-.27 1.026-1.134 1.62-2.322 1.62-1.53 0-2.52-1.026-2.574-2.592v-.126h6.948a5.28 5.28 0 00.054-.738c-.054-2.7-1.836-4.392-4.5-4.392-2.718 0-4.536 1.89-4.536 4.734 0 2.826 1.818 4.698 4.716 4.698zm-2.61-5.724c.144-1.314 1.206-2.142 2.448-2.142 1.35 0 2.304.774 2.466 2.142h-4.914zm8.053 2.574c.054 1.998 1.746 3.15 4.212 3.15 2.232 0 3.906-1.116 3.906-2.88 0-2.052-1.71-2.484-3.816-2.736-1.332-.144-2.214-.252-2.214-1.116 0-.738.756-1.206 1.908-1.206s1.944.594 2.052 1.44h1.908c-.126-1.89-1.728-2.934-3.996-2.934-2.214-.018-3.78 1.116-3.78 2.862 0 1.908 1.656 2.358 3.762 2.61 1.422.18 2.268.252 2.268 1.242 0 .738-.792 1.206-1.998 1.206-1.404 0-2.232-.684-2.304-1.638h-1.908z" fill="#000"/></svg>