<svg width="64" height="20" viewBox="0 0 64 20" fill="none" xmlns="http://www.w3.org/2000/svg"><rect x=".557" y=".733" width="63" height="19" rx="9.5" fill="#000"/><path d="M8.4 11.271c.043 1.183.9 2.014 2.364 2.014 1.26 0 2.134-.729 2.134-1.765 0-1.165-1.003-1.491-1.98-1.654-.899-.154-1.627-.3-1.627-1.02 0-.642.522-.985 1.302-.985.814 0 1.371.454 1.457 1.148h.77c-.068-1.08-.89-1.825-2.227-1.825-1.216 0-2.048.686-2.048 1.705 0 1.166.994 1.483 1.963 1.645.908.155 1.645.309 1.645 1.054 0 .651-.575 1.02-1.38 1.02-.917 0-1.542-.531-1.602-1.337H8.4zm5.667.823c0 .77.3 1.14 1.14 1.14h.762v-.643h-.694c-.377 0-.506-.137-.506-.506V9.506H15.9v-.642h-1.13V7.639h-.703v1.225h-.789v.642h.789v2.588zm6.308.497c-.198 0-.283-.06-.283-.292v-1.91c0-1.02-.643-1.577-1.756-1.577-1.054 0-1.748.506-1.851 1.363h.702c.086-.446.497-.737 1.114-.737.686 0 1.088.342 1.088.908v.3h-1.285c-1.148 0-1.756.488-1.756 1.362 0 .797.65 1.277 1.61 1.277.754 0 1.191-.335 1.466-.729.008.429.205.677.788.677h.385v-.642h-.222zm-.986-1.14c0 .728-.505 1.234-1.38 1.234-.582 0-.95-.291-.95-.72 0-.497.351-.728.977-.728h1.353v.214zm3.77-2.587c-.78 0-1.113.325-1.319.66l-.094-.66h-.609v4.37h.703v-2.228c0-.694.248-1.457 1.165-1.457h.352v-.685h-.198zm1.274 3.23c0 .77.3 1.14 1.14 1.14h.762v-.643h-.694c-.377 0-.505-.137-.505-.506V9.506h1.13v-.642h-1.13V7.639h-.703v1.225h-.788v.642h.788v2.588zm5.079 0c0 .77.3 1.14 1.14 1.14h.762v-.643h-.694c-.377 0-.505-.137-.505-.506V9.506h1.13v-.642h-1.13V7.639h-.703v1.225h-.788v.642h.788v2.588zm4.533-3.23c-.78 0-1.114.325-1.32.66l-.094-.66h-.608v4.37h.702v-2.228c0-.694.249-1.457 1.166-1.457h.35v-.685h-.196zm4.52 3.727c-.198 0-.284-.06-.284-.292v-1.91c0-1.02-.642-1.577-1.756-1.577-1.054 0-1.748.506-1.85 1.363h.702c.086-.446.497-.737 1.114-.737.685 0 1.088.342 1.088.908v.3h-1.285c-1.148 0-1.757.488-1.757 1.362 0 .797.651 1.277 1.611 1.277.754 0 1.191-.335 1.465-.729.009.429.206.677.788.677h.386v-.642h-.223zm-.986-1.14c0 .728-.506 1.234-1.38 1.234-.582 0-.95-.291-.95-.72 0-.497.35-.728.976-.728h1.354v.214zm5.142-1.919c-.266-.42-.762-.72-1.5-.72-1.207 0-2.098.9-2.098 2.237 0 1.422.89 2.236 2.099 2.236.736 0 1.208-.352 1.499-.754l.094.702h.609V7.236h-.703v2.296zm-1.43 3.127c-.866 0-1.449-.66-1.449-1.61 0-.952.583-1.611 1.448-1.611.857 0 1.44.668 1.44 1.628 0 .933-.583 1.593-1.44 1.593zm3.45-4.532a.441.441 0 00.453-.454.441.441 0 00-.454-.454.441.441 0 00-.454.454c0 .265.197.454.454.454zm-.36 5.106h.702v-4.37h-.702v4.37zm3.806-4.42c-.736 0-1.182.308-1.439.642l-.094-.591h-.608v4.37h.702v-2.185c0-.986.497-1.594 1.32-1.594.762 0 1.182.48 1.182 1.388v2.39h.703V10.8c0-1.448-.78-1.988-1.766-1.988zm6.105.805c-.274-.489-.762-.806-1.499-.806-1.208 0-2.099.9-2.099 2.237 0 1.422.891 2.236 2.1 2.236.736 0 1.207-.309 1.498-.806v.514c0 .951-.497 1.38-1.413 1.38-.728 0-1.217-.309-1.337-.857h-.72c.112.96.892 1.482 2.005 1.482 1.5 0 2.168-.72 2.168-1.979V8.864h-.608l-.095.754zm-1.43 3.041c-.866 0-1.448-.66-1.448-1.61 0-.952.582-1.611 1.448-1.611.856 0 1.439.668 1.439 1.628 0 .933-.583 1.593-1.44 1.593z" fill="#fff"/></svg>