<svg width="140" height="45" viewBox="0 0 140 45" fill="none" xmlns="http://www.w3.org/2000/svg"><path d="M5.796 15c4.662 0 7.392-2.898 7.392-7.35 0-4.473-2.73-7.35-7.392-7.35H1.512V15h4.284zM2.646 1.35h3.15c4.011 0 6.237 2.436 6.237 6.3 0 3.843-2.226 6.3-6.237 6.3h-3.15V1.35zm13.351.756a.74.74 0 00.756-.756.74.74 0 00-.756-.756.74.74 0 00-.756.756.74.74 0 00.756.756zM15.451 15h1.071V4.353h-1.07V15zm6.676 0h1.281l4.158-10.647h-1.113L22.8 13.761l-3.675-9.408H17.97L22.127 15zm11.153.126c2.331 0 4.116-1.512 4.578-3.654h-1.092c-.42 1.659-1.827 2.688-3.57 2.688-2.373 0-3.864-1.806-3.906-4.284v-.189h8.694c0-.147.021-.315.021-.441-.105-3.171-2.058-5.019-4.914-5.019-2.919 0-4.914 2.226-4.914 5.376 0 3.339 2.08 5.523 5.103 5.523zm-3.906-6.342c.168-2.163 1.785-3.612 3.738-3.612 2.08 0 3.57 1.281 3.738 3.612h-7.476zm16.954-6.678a.74.74 0 00.756-.756.74.74 0 00-.756-.756.74.74 0 00-.756.756.74.74 0 00.756.756zM45.782 15h1.072V4.353h-1.072V15zm8.503-10.773c-1.953 0-3.213 1.008-3.822 2.394l-.168-2.268h-.924V15h1.071V9.75c0-2.772 1.407-4.536 3.675-4.536 2.058 0 3.297 1.344 3.297 3.864V15h1.071V9.036c0-3.36-1.785-4.809-4.2-4.809zm7.369 8.295c0 1.701.693 2.478 2.499 2.478h1.554v-.987h-1.47c-1.113 0-1.512-.42-1.512-1.512V5.34h2.877v-.987h-2.877V1.371h-1.071v2.982h-2.016v.987h2.016v7.182zm10.058 2.604c3.003 0 5.124-2.226 5.124-5.46 0-3.213-2.121-5.439-5.124-5.439-3.003 0-5.103 2.226-5.103 5.439 0 3.234 2.1 5.46 5.103 5.46zm0-.966c-2.373 0-4.011-1.848-4.011-4.494 0-2.625 1.638-4.494 4.011-4.494s4.011 1.869 4.011 4.494c0 2.646-1.638 4.494-4.011 4.494zm19.275.966c2.94 0 4.683-1.617 5.313-3.381L96.363 15h.987V7.335h-5.922v1.05h4.83v.63c0 2.877-1.995 5.061-5.25 5.061-3.297 0-5.48-2.646-5.48-6.426 0-3.759 2.183-6.426 5.585-6.426 2.478 0 4.2 1.281 4.81 3.591h1.217c-.609-2.94-2.898-4.641-5.985-4.641-4.158 0-6.804 3.066-6.804 7.476 0 4.431 2.71 7.476 6.636 7.476zm13.866 0c3.003 0 5.124-2.226 5.124-5.46 0-3.213-2.121-5.439-5.124-5.439-3.003 0-5.103 2.226-5.103 5.439 0 3.234 2.1 5.46 5.103 5.46zm0-.966c-2.373 0-4.011-1.848-4.011-4.494 0-2.625 1.638-4.494 4.011-4.494s4.011 1.869 4.011 4.494c0 2.646-1.638 4.494-4.011 4.494zm7.252.84h1.071V.3h-1.071V15zm12.283-8.253c-.651-1.512-2.079-2.52-4.074-2.52-2.919 0-5.019 2.226-5.019 5.439 0 3.36 2.1 5.46 5.019 5.46 1.995 0 3.381-1.071 4.053-2.562l.168 2.436h.924V.3h-1.071v6.447zm-3.99 7.413c-2.373 0-4.011-1.848-4.011-4.494 0-2.625 1.638-4.494 4.011-4.494s4.011 1.869 4.011 4.515c0 2.625-1.638 4.473-4.011 4.473zm8.021-.63c-.567 0-.924.357-.924.819 0 .504.336.756.735.756.21 0 .42-.084.525-.252.147.147.189.357.189.546 0 .798-.504 1.617-1.575 1.659v.63c1.449-.063 2.352-1.029 2.352-2.415 0-.966-.546-1.743-1.302-1.743zM.966 39.485c.147 2.772 2.163 4.641 5.46 4.641 3.087 0 5.124-1.68 5.124-4.158 0-2.793-2.478-3.507-4.914-3.927-2.247-.378-4.2-.756-4.2-2.856 0-1.911 1.491-2.982 3.801-2.982 2.205 0 3.717 1.239 3.969 3.15h1.155c-.21-2.52-2.121-4.179-5.124-4.179-2.982 0-4.935 1.575-4.935 4.074 0 2.793 2.394 3.423 4.746 3.822 2.31.399 4.368.861 4.368 3.003 0 1.89-1.596 3.024-3.969 3.024-2.478 0-4.158-1.428-4.305-3.612H.966zm13.37-8.379a.74.74 0 00.756-.756.74.74 0 00-.756-.756.74.74 0 00-.756.756.74.74 0 00.756.756zM13.79 44h1.071V33.353h-1.07V44zm3.59 0h1.07V29.3h-1.07V44zm6.675 0h1.281l4.158-10.647h-1.113l-3.654 9.408-3.675-9.408h-1.155L24.055 44zm11.153.126c2.331 0 4.116-1.512 4.578-3.654h-1.092c-.42 1.659-1.827 2.688-3.57 2.688-2.373 0-3.864-1.806-3.906-4.284v-.189h8.694c0-.147.021-.315.021-.441-.105-3.171-2.058-5.019-4.914-5.019-2.919 0-4.914 2.226-4.914 5.376 0 3.339 2.08 5.523 5.103 5.523zm-3.906-6.342c.168-2.163 1.785-3.612 3.738-3.612 2.08 0 3.57 1.281 3.738 3.612h-7.476zm15.095-4.431c-1.974 0-2.814.945-3.255 2.121l-.168-2.121h-.924V44h1.071v-5.397c0-2.163.567-4.221 3.066-4.221h.777v-1.029h-.567zm17.18 9.66c-.63 0-.945-.21-.945-1.029v-4.956c0-2.436-1.49-3.801-4.158-3.801-2.436 0-4.053 1.176-4.326 3.108h1.071c.273-1.302 1.407-2.163 3.213-2.163 1.995 0 3.13 1.05 3.13 2.814v.924h-3.613c-2.73 0-4.2 1.176-4.2 3.171 0 1.89 1.491 3.045 3.76 3.045 2.162 0 3.443-.987 4.094-2.31v.378c-.042 1.26.483 1.806 1.743 1.806h.63v-.987h-.399zm-2.016-3.318c0 2.037-1.449 3.507-3.969 3.507-1.7 0-2.75-.861-2.75-2.184 0-1.407 1.05-2.184 3.023-2.184h3.696v.861zm8.761-6.468c-1.953 0-3.213 1.008-3.822 2.394l-.168-2.268h-.924V44h1.071v-5.25c0-2.772 1.407-4.536 3.675-4.536 2.058 0 3.297 1.344 3.297 3.864V44h1.071v-5.964c0-3.36-1.785-4.809-4.2-4.809zm15.1 2.52c-.65-1.512-2.078-2.52-4.073-2.52-2.92 0-5.02 2.226-5.02 5.439 0 3.36 2.1 5.46 5.02 5.46 1.995 0 3.38-1.071 4.053-2.562L85.57 44h.924V29.3h-1.071v6.447zm-3.99 7.413c-2.372 0-4.01-1.848-4.01-4.494 0-2.625 1.638-4.494 4.01-4.494 2.374 0 4.012 1.869 4.012 4.515 0 2.625-1.638 4.473-4.011 4.473zm25.127-9.933c-1.953 0-3.213 1.092-3.822 2.667-.504-1.764-1.827-2.667-3.507-2.667-1.827 0-2.919 1.071-3.465 2.394l-.168-2.268h-.924V44h1.071v-5.418c0-2.604 1.26-4.368 3.297-4.368 1.848 0 3.003 1.302 3.003 3.759V44h1.071v-5.796c.063-2.436 1.323-3.99 3.318-3.99 1.848 0 2.961 1.239 2.961 3.654V44h1.092v-6.174c0-3.213-1.701-4.599-3.927-4.599zm10.844 10.899c3.003 0 5.124-2.226 5.124-5.46 0-3.213-2.121-5.439-5.124-5.439-3.003 0-5.103 2.226-5.103 5.439 0 3.234 2.1 5.46 5.103 5.46zm0-.966c-2.373 0-4.011-1.848-4.011-4.494 0-2.625 1.638-4.494 4.011-4.494s4.011 1.869 4.011 4.494c0 2.646-1.638 4.494-4.011 4.494zm11.6-9.807c-1.974 0-2.814.945-3.255 2.121l-.168-2.121h-.924V44h1.071v-5.397c0-2.163.567-4.221 3.066-4.221h.777v-1.029h-.567zm6.099 10.773c2.331 0 4.116-1.512 4.578-3.654h-1.092c-.42 1.659-1.827 2.688-3.57 2.688-2.373 0-3.864-1.806-3.906-4.284v-.189h8.694c0-.147.021-.315.021-.441-.105-3.171-2.058-5.019-4.914-5.019-2.919 0-4.914 2.226-4.914 5.376 0 3.339 2.079 5.523 5.103 5.523zm-3.906-6.342c.168-2.163 1.785-3.612 3.738-3.612 2.079 0 3.57 1.281 3.738 3.612h-7.476z" fill="#000"/></svg>