<svg width="112" height="27" viewBox="0 0 112 27" fill="none" xmlns="http://www.w3.org/2000/svg"><rect x=".5" width="111" height="27" rx="13.5" fill="#14964F"/><path d="M28.99 11.284V9.726h-5.758v1.558h1.965V16.5h1.829v-5.216h1.964zm.915-1.548V16.5h1.82v-2.061h1.083l1.317 2.061h2.1l-1.52-2.303c.939-.32 1.336-1.007 1.336-2.11 0-1.655-.881-2.351-3.087-2.351h-3.049zm1.82 1.635h1.316c.803 0 1.103.252 1.103.832 0 .59-.3.833-1.103.833h-1.316V11.37zM44.45 16.5l-2.7-6.774h-2.39L36.69 16.5h2.177l.435-1.18h2.536l.435 1.18h2.177zm-4.674-2.632l.784-2.11.784 2.11h-1.568zm5.59-4.132V16.5h2.903c2.003 0 3.63-1.461 3.63-3.377 0-1.926-1.627-3.397-3.63-3.397l-2.903.01zm1.82 1.625H48.2c1.007 0 1.83.755 1.83 1.752 0 1.006-.823 1.761-1.83 1.761h-1.016v-3.513zm11.455 0V9.726h-5.545V16.5H58.7v-1.635h-3.783v-1.017h3.464V12.3h-3.464v-.939h3.725zm9.857 5.139V9.726h-1.79v3.784l-2.73-3.784h-1.886V16.5h1.79v-3.774L66.61 16.5h1.887zm4.77-6.861c-2.003 0-3.629 1.558-3.629 3.484 0 1.916 1.626 3.474 3.63 3.474 2.003 0 3.628-1.558 3.628-3.474 0-1.926-1.625-3.484-3.629-3.484zm0 1.703c1.016 0 1.733.794 1.733 1.78 0 .978-.717 1.772-1.733 1.772s-1.722-.794-1.722-1.771c0-.987.706-1.78 1.722-1.78zM85.631 16.5l2.226-6.764h-2.033l-1.21 3.919-1.18-3.929h-1.78l-1.181 3.929-1.21-3.92h-2.032l2.226 6.765h1.868l1.219-3.89 1.22 3.89h1.867z" fill="#fff"/></svg>