<svg width="215" height="11" viewBox="0 0 215 11" fill="none" xmlns="http://www.w3.org/2000/svg"><path d="M.864 8.5h5.328v-.6h-4.68V4.504h3.792v-.6H1.512V.7h4.524V.1H.864v8.4zm6.407 0h.612V.1H7.27v8.4zm4.739.072c1.332 0 2.352-.864 2.616-2.088h-.624c-.24.948-1.044 1.536-2.04 1.536-1.356 0-2.208-1.032-2.232-2.448v-.108h4.968c0-.084.012-.18.012-.252-.06-1.812-1.176-2.868-2.808-2.868-1.668 0-2.808 1.272-2.808 3.072 0 1.908 1.188 3.156 2.916 3.156zM9.778 4.948c.096-1.236 1.02-2.064 2.136-2.064 1.188 0 2.04.732 2.136 2.064H9.778zM17.425 8.5h.732l2.376-6.084h-.636L17.81 7.792l-2.1-5.376h-.66L17.425 8.5zm9.061-.564c-.36 0-.54-.12-.54-.588V4.516c0-1.392-.852-2.172-2.376-2.172-1.392 0-2.316.672-2.472 1.776h.612c.156-.744.804-1.236 1.836-1.236 1.14 0 1.788.6 1.788 1.608v.528H23.27c-1.56 0-2.4.672-2.4 1.812 0 1.08.852 1.74 2.148 1.74 1.236 0 1.968-.564 2.34-1.32v.216c-.024.72.276 1.032.996 1.032h.36v-.564h-.228zM25.334 6.04c0 1.164-.828 2.004-2.268 2.004-.972 0-1.572-.492-1.572-1.248 0-.804.6-1.248 1.728-1.248h2.112v.492zm2.654 1.044c0 .972.396 1.416 1.428 1.416h.889v-.564h-.84c-.637 0-.864-.24-.864-.864V2.98h1.643v-.564h-1.643V.712h-.613v1.704h-1.151v.564h1.151v4.104zm5.748 1.488c1.332 0 2.352-.864 2.616-2.088h-.624c-.24.948-1.044 1.536-2.04 1.536-1.356 0-2.208-1.032-2.232-2.448v-.108h4.968c0-.084.012-.18.012-.252-.06-1.812-1.176-2.868-2.808-2.868-1.668 0-2.808 1.272-2.808 3.072 0 1.908 1.188 3.156 2.916 3.156zm-2.232-3.624c.096-1.236 1.02-2.064 2.136-2.064 1.188 0 2.04.732 2.136 2.064h-4.272zm11.2 3.552l-.396.984c-.276.672-.384.852-1.008.852h-.768v.564h.936c.816 0 1.008-.312 1.392-1.272l2.916-7.212h-.66L43.04 7.708l-2.112-5.292h-.66L42.704 8.5zm6.325.072c1.716 0 2.928-1.272 2.928-3.12 0-1.836-1.212-3.108-2.928-3.108s-2.916 1.272-2.916 3.108c0 1.848 1.2 3.12 2.916 3.12zm0-.552c-1.356 0-2.292-1.056-2.292-2.568 0-1.5.936-2.568 2.292-2.568 1.356 0 2.292 1.068 2.292 2.568 0 1.512-.936 2.568-2.292 2.568zm8.56-2.616c0 1.596-.792 2.604-2.052 2.604-1.128 0-1.824-.768-1.824-2.22V2.416h-.612v3.408c0 1.908.996 2.748 2.34 2.748 1.08 0 1.788-.576 2.136-1.356l.084 1.284h.54V2.416h-.612v2.988zm4.537-2.988c-1.128 0-1.608.54-1.86 1.212l-.096-1.212h-.528V8.5h.612V5.416c0-1.236.324-2.412 1.752-2.412h.444v-.588h-.324zm4.921 4.668c0 .972.396 1.416 1.428 1.416h.888v-.564h-.84c-.636 0-.864-.24-.864-.864V2.98h1.644v-.564H67.66V.712h-.612v1.704h-1.152v.564h1.152v4.104zm5.731-4.668c-1.128 0-1.608.54-1.86 1.212l-.096-1.212h-.528V8.5h.612V5.416c0-1.236.324-2.412 1.752-2.412h.444v-.588h-.324zm6.325 5.52c-.36 0-.54-.12-.54-.588V4.516c0-1.392-.852-2.172-2.376-2.172-1.392 0-2.316.672-2.472 1.776h.612c.156-.744.804-1.236 1.836-1.236 1.14 0 1.788.6 1.788 1.608v.528h-2.064c-1.56 0-2.4.672-2.4 1.812 0 1.08.852 1.74 2.148 1.74 1.236 0 1.968-.564 2.34-1.32v.216c-.024.72.276 1.032.996 1.032h.36v-.564h-.228zM77.951 6.04c0 1.164-.828 2.004-2.268 2.004-.972 0-1.572-.492-1.572-1.248 0-.804.6-1.248 1.728-1.248h2.112v.492zm7.073-2.256c-.372-.864-1.188-1.44-2.328-1.44-1.668 0-2.868 1.272-2.868 3.108 0 1.92 1.2 3.12 2.868 3.12 1.14 0 1.932-.612 2.316-1.464l.096 1.392h.528V.1h-.612v3.684zm-2.28 4.236c-1.356 0-2.292-1.056-2.292-2.568 0-1.5.936-2.568 2.292-2.568 1.356 0 2.292 1.068 2.292 2.58 0 1.5-.936 2.556-2.292 2.556zm4.644-6.888c.24 0 .431-.18.431-.432a.423.423 0 00-.431-.432c-.24 0-.433.18-.433.432s.192.432.433.432zM87.075 8.5h.612V2.416h-.611V8.5zm4.86-6.156c-1.117 0-1.837.576-2.185 1.368l-.096-1.296h-.528V8.5h.612v-3c0-1.584.804-2.592 2.1-2.592 1.176 0 1.884.768 1.884 2.208V8.5h.612V5.092c0-1.92-1.02-2.748-2.4-2.748zm8.71 1.488c-.372-.9-1.188-1.488-2.316-1.488-1.668 0-2.868 1.26-2.868 3.108 0 1.92 1.2 3.12 2.868 3.12 1.14 0 1.944-.6 2.328-1.548v1.08c0 1.62-.768 2.316-2.232 2.316-1.14 0-1.932-.516-2.124-1.44h-.636c.192 1.296 1.236 1.992 2.712 1.992 1.968 0 2.892-.936 2.892-2.844V2.416h-.528l-.096 1.416zM98.377 8.02c-1.356 0-2.292-1.056-2.292-2.568s.936-2.568 2.292-2.568c1.356 0 2.292 1.056 2.292 2.58 0 1.5-.936 2.556-2.292 2.556zm9.042.48h.66l1.8-5.112 1.716 5.112h.66l2.16-6.084h-.624l-1.872 5.352-1.74-5.352h-.564l-1.836 5.352-1.776-5.352h-.648l2.064 6.084zm8.164-7.368c.24 0 .432-.18.432-.432a.423.423 0 00-.432-.432c-.24 0-.432.18-.432.432s.192.432.432.432zm-.312 7.368h.612V2.416h-.612V8.5zm2.507-1.416c0 .972.396 1.416 1.428 1.416h.888v-.564h-.84c-.636 0-.864-.24-.864-.864V2.98h1.644v-.564h-1.644V.712h-.612v1.704h-1.152v.564h1.152v4.104zm6.055-4.74c-1.14 0-1.848.636-2.196 1.512V.1h-.612v8.4h.612v-3c0-1.584.804-2.592 2.1-2.592 1.164 0 1.884.768 1.884 2.208V8.5h.612V5.092c0-1.92-1.02-2.748-2.4-2.748zm12.352 5.592c-.36 0-.54-.12-.54-.588V4.516c0-1.392-.852-2.172-2.376-2.172-1.392 0-2.316.672-2.472 1.776h.612c.156-.744.804-1.236 1.836-1.236 1.14 0 1.788.6 1.788 1.608v.528h-2.064c-1.56 0-2.4.672-2.4 1.812 0 1.08.852 1.74 2.148 1.74 1.236 0 1.968-.564 2.34-1.32v.216c-.024.72.276 1.032.996 1.032h.36v-.564h-.228zm-1.152-1.896c0 1.164-.828 2.004-2.268 2.004-.972 0-1.572-.492-1.572-1.248 0-.804.6-1.248 1.728-1.248h2.112v.492zm5.433 2.46h.612V.1h-.612v8.4zm4.739.072c1.332 0 2.352-.864 2.616-2.088h-.624c-.24.948-1.044 1.536-2.04 1.536-1.356 0-2.208-1.032-2.232-2.448v-.108h4.968c0-.084.012-.18.012-.252-.06-1.812-1.176-2.868-2.808-2.868-1.668 0-2.808 1.272-2.808 3.072 0 1.908 1.188 3.156 2.916 3.156zm-2.232-3.624c.096-1.236 1.02-2.064 2.136-2.064 1.188 0 2.04.732 2.136 2.064h-4.272zm11.494 2.988c-.36 0-.54-.12-.54-.588V4.516c0-1.392-.852-2.172-2.376-2.172-1.392 0-2.316.672-2.472 1.776h.612c.156-.744.804-1.236 1.836-1.236 1.14 0 1.788.6 1.788 1.608v.528h-2.064c-1.56 0-2.4.672-2.4 1.812 0 1.08.852 1.74 2.148 1.74 1.236 0 1.968-.564 2.34-1.32v.216c-.024.72.276 1.032.996 1.032h.36v-.564h-.228zm-1.152-1.896c0 1.164-.828 2.004-2.268 2.004-.972 0-1.572-.492-1.572-1.248 0-.804.6-1.248 1.728-1.248h2.112v.492zm7.072-2.256c-.372-.864-1.188-1.44-2.328-1.44-1.668 0-2.868 1.272-2.868 3.108 0 1.92 1.2 3.12 2.868 3.12 1.14 0 1.932-.612 2.316-1.464l.096 1.392h.528V.1h-.612v3.684zm-2.28 4.236c-1.356 0-2.292-1.056-2.292-2.568 0-1.5.936-2.568 2.292-2.568 1.356 0 2.292 1.068 2.292 2.58 0 1.5-.936 2.556-2.292 2.556zm4.644-6.888c.24 0 .432-.18.432-.432a.423.423 0 00-.432-.432c-.24 0-.432.18-.432.432s.192.432.432.432zm-.312 7.368h.612V2.416h-.612V8.5zm4.859-6.156c-1.116 0-1.836.576-2.184 1.368l-.096-1.296h-.528V8.5h.612v-3c0-1.584.804-2.592 2.1-2.592 1.176 0 1.884.768 1.884 2.208V8.5h.612V5.092c0-1.92-1.02-2.748-2.4-2.748zm8.71 1.488c-.372-.9-1.188-1.488-2.316-1.488-1.668 0-2.868 1.26-2.868 3.108 0 1.92 1.2 3.12 2.868 3.12 1.14 0 1.944-.6 2.328-1.548v1.08c0 1.62-.768 2.316-2.232 2.316-1.14 0-1.932-.516-2.124-1.44h-.636c.192 1.296 1.236 1.992 2.712 1.992 1.968 0 2.892-.936 2.892-2.844V2.416h-.528l-.096 1.416zM173.74 8.02c-1.356 0-2.292-1.056-2.292-2.568s.936-2.568 2.292-2.568c1.356 0 2.292 1.056 2.292 2.58 0 1.5-.936 2.556-2.292 2.556zm10.506-5.676c-1.14 0-1.944.624-2.328 1.488V.1h-.612v8.4h.528l.096-1.38c.36.876 1.176 1.452 2.316 1.452 1.668 0 2.868-1.272 2.868-3.12 0-1.908-1.2-3.108-2.868-3.108zm-.048 5.676c-1.356 0-2.292-1.056-2.292-2.58 0-1.488.936-2.556 2.292-2.556 1.356 0 2.292 1.068 2.292 2.568 0 1.512-.936 2.568-2.292 2.568zm6.611-5.604c-1.128 0-1.608.54-1.86 1.212l-.096-1.212h-.528V8.5h.612V5.416c0-1.236.324-2.412 1.752-2.412h.444v-.588h-.324zm3.486 6.156c1.716 0 2.928-1.272 2.928-3.12 0-1.836-1.212-3.108-2.928-3.108s-2.916 1.272-2.916 3.108c0 1.848 1.2 3.12 2.916 3.12zm0-.552c-1.356 0-2.292-1.056-2.292-2.568 0-1.5.936-2.568 2.292-2.568 1.356 0 2.292 1.068 2.292 2.568 0 1.512-.936 2.568-2.292 2.568zm4.144.48h.612V6.856l1.428-1.464 2.328 3.108h.744l-2.652-3.552 2.448-2.532h-.756l-3.54 3.648V.1h-.612v8.4zm8.289.072c1.332 0 2.352-.864 2.616-2.088h-.624c-.24.948-1.044 1.536-2.04 1.536-1.356 0-2.208-1.032-2.232-2.448v-.108h4.968c0-.084.012-.18.012-.252-.06-1.812-1.176-2.868-2.808-2.868-1.668 0-2.808 1.272-2.808 3.072 0 1.908 1.188 3.156 2.916 3.156zm-2.232-3.624c.096-1.236 1.02-2.064 2.136-2.064 1.188 0 2.04.732 2.136 2.064h-4.272zm8.626-2.532c-1.128 0-1.608.54-1.86 1.212l-.096-1.212h-.528V8.5h.612V5.416c0-1.236.324-2.412 1.752-2.412h.444v-.588h-.324zm.538 5.688c0 .276.192.456.456.456s.456-.18.456-.456-.192-.444-.456-.444-.456.168-.456.444z" fill="#000"/></svg>