<svg width="193" height="16" viewBox="0 0 193 16" fill="none" xmlns="http://www.w3.org/2000/svg"><path d="M.344 15.5h2.415v-5.334H6.14c3.066 0 5.082-1.848 5.082-4.683C11.222 2.627 9.206.8 6.14.8H.344v14.7zM5.951 2.9c1.722 0 2.814.987 2.814 2.583 0 1.575-1.113 2.583-2.835 2.583H2.759V2.9h3.192zm11.467 12.726c3.276 0 5.48-2.205 5.48-5.502 0-3.276-2.204-5.502-5.48-5.502-3.276 0-5.481 2.226-5.481 5.502 0 3.297 2.205 5.502 5.48 5.502zm0-1.932c-1.911 0-3.15-1.491-3.15-3.57 0-2.079 1.239-3.57 3.15-3.57 1.91 0 3.17 1.491 3.17 3.57 0 2.079-1.26 3.57-3.17 3.57zM26.83 15.5h2.457l2.352-7.308 2.268 7.308h2.436l3.57-10.752h-2.31l-2.54 8.232-2.353-8.232h-2.079l-2.457 8.232-2.457-8.232h-2.394L26.831 15.5zm19.011.126c2.667 0 4.473-1.617 4.851-3.738h-2.268c-.315 1.197-1.323 1.89-2.709 1.89-1.785 0-2.94-1.197-3.003-3.024v-.147h8.106a6.16 6.16 0 00.063-.861c-.063-3.15-2.142-5.124-5.25-5.124-3.171 0-5.292 2.205-5.292 5.523 0 3.297 2.121 5.481 5.502 5.481zm-3.045-6.678c.168-1.533 1.407-2.499 2.856-2.499 1.575 0 2.688.903 2.877 2.499h-5.733zm15.358-4.2c-1.764 0-2.626.714-3.172 1.617l-.252-1.617h-2.016V15.5h2.268v-5.397c0-1.659.652-3.234 2.668-3.234h1.007V4.748h-.504zm17.103 8.778c-.462 0-.693-.147-.693-.693V8.528c0-2.541-1.638-3.906-4.494-3.906-2.709 0-4.515 1.302-4.746 3.402h2.226c.168-.945 1.071-1.575 2.415-1.575 1.491 0 2.352.735 2.352 1.932v.651H69.61c-3.003 0-4.599 1.239-4.599 3.444 0 1.995 1.638 3.15 3.99 3.15 1.743 0 2.835-.756 3.55-1.848 0 1.071.503 1.722 1.973 1.722h1.197v-1.974h-.462zm-2.94-2.436c-.02 1.659-1.113 2.772-3.003 2.772-1.239 0-1.995-.63-1.995-1.533 0-1.092.777-1.617 2.184-1.617h2.814v.378zm10.308-6.468c-1.743 0-2.772.693-3.444 1.533l-.252-1.407h-1.974V15.5h2.268v-5.418c0-2.184 1.07-3.507 2.877-3.507 1.7 0 2.562 1.092 2.562 3.129V15.5h2.289V9.515c0-3.591-1.953-4.893-4.326-4.893zM97.1 6.239c-.693-.945-1.848-1.617-3.486-1.617-2.919 0-5.082 2.184-5.082 5.502 0 3.444 2.163 5.502 5.082 5.502 1.701 0 2.814-.798 3.507-1.743l.273 1.617h1.974V.8h-2.268v5.439zm-3.108 7.476c-1.89 0-3.129-1.47-3.129-3.591 0-2.1 1.24-3.57 3.13-3.57s3.128 1.47 3.128 3.612c0 2.079-1.239 3.549-3.129 3.549zM107.19 15.5h2.415v-5.334h3.381c3.066 0 5.082-1.848 5.082-4.683 0-2.856-2.016-4.683-5.082-4.683h-5.796v14.7zm5.607-12.6c1.722 0 2.814.987 2.814 2.583 0 1.575-1.113 2.583-2.835 2.583h-3.171V2.9h3.192zm12.336 1.848c-1.764 0-2.625.714-3.171 1.617l-.252-1.617h-2.016V15.5h2.268v-5.397c0-1.659.651-3.234 2.667-3.234h1.008V4.748h-.504zm6.493 10.878c2.667 0 4.473-1.617 4.851-3.738h-2.268c-.315 1.197-1.323 1.89-2.709 1.89-1.785 0-2.94-1.197-3.003-3.024v-.147h8.106a6.16 6.16 0 00.063-.861c-.063-3.15-2.142-5.124-5.25-5.124-3.171 0-5.292 2.205-5.292 5.523 0 3.297 2.121 5.481 5.502 5.481zm-3.045-6.678c.168-1.533 1.407-2.499 2.856-2.499 1.575 0 2.688.903 2.877 2.499h-5.733zm14.854 6.678c2.751 0 4.578-1.533 4.998-3.969h-2.394c-.273 1.239-1.197 2.037-2.583 2.037-1.827 0-3.024-1.449-3.024-3.549 0-2.121 1.197-3.591 3.024-3.591 1.407 0 2.31.777 2.604 2.037h2.373c-.441-2.436-2.163-3.969-4.935-3.969-3.255 0-5.397 2.205-5.397 5.523 0 3.36 2.079 5.481 5.334 5.481zm7.889-12.39c.777 0 1.386-.567 1.386-1.365s-.609-1.365-1.386-1.365c-.777 0-1.386.567-1.386 1.365s.609 1.365 1.386 1.365zM150.169 15.5h2.268V4.748h-2.268V15.5zm4.029-3.549c.063 2.331 2.037 3.675 4.914 3.675 2.604 0 4.557-1.302 4.557-3.36 0-2.394-1.995-2.898-4.452-3.192-1.554-.168-2.583-.294-2.583-1.302 0-.861.882-1.407 2.226-1.407 1.344 0 2.268.693 2.394 1.68h2.226c-.147-2.205-2.016-3.423-4.662-3.423-2.583-.021-4.41 1.302-4.41 3.339 0 2.226 1.932 2.751 4.389 3.045 1.659.21 2.646.294 2.646 1.449 0 .861-.924 1.407-2.331 1.407-1.638 0-2.604-.798-2.688-1.911h-2.226zm12.383-8.715c.777 0 1.386-.567 1.386-1.365s-.609-1.365-1.386-1.365c-.777 0-1.386.567-1.386 1.365s.609 1.365 1.386 1.365zM165.426 15.5h2.268V4.748h-2.268V15.5zm9.574.126c3.276 0 5.481-2.205 5.481-5.502 0-3.276-2.205-5.502-5.481-5.502s-5.481 2.226-5.481 5.502c0 3.297 2.205 5.502 5.481 5.502zm0-1.932c-1.911 0-3.15-1.491-3.15-3.57 0-2.079 1.239-3.57 3.15-3.57 1.911 0 3.171 1.491 3.171 3.57 0 2.079-1.26 3.57-3.171 3.57zm12.974-9.072c-1.743 0-2.772.693-3.444 1.533l-.252-1.407h-1.974V15.5h2.268v-5.418c0-2.184 1.071-3.507 2.877-3.507 1.701 0 2.562 1.092 2.562 3.129V15.5h2.289V9.515c0-3.591-1.953-4.893-4.326-4.893z" fill="#000"/></svg>