<svg width="214" height="85" viewBox="0 0 214 85" fill="none" xmlns="http://www.w3.org/2000/svg"><path d="M1.728 19h3.105v-6.858h4.158L12.636 19h3.456l-3.996-7.533c2.214-.783 3.672-2.808 3.672-5.346C15.768 2.449 13.122.1 9.18.1H1.728V19zM8.937 2.8c2.214 0 3.645 1.296 3.645 3.321 0 2.025-1.431 3.321-3.645 3.321H4.833V2.8h4.104zm15.218 16.362c3.43 0 5.751-2.079 6.237-4.806h-2.916c-.405 1.539-1.7 2.43-3.483 2.43-2.295 0-3.78-1.539-3.86-3.888v-.189h10.421c.054-.378.081-.756.081-1.107-.08-4.05-2.754-6.588-6.75-6.588-4.077 0-6.804 2.835-6.804 7.101 0 4.239 2.727 7.047 7.074 7.047zm-3.915-8.586c.216-1.971 1.81-3.213 3.672-3.213 2.025 0 3.456 1.161 3.7 3.213H20.24zm19.098 8.586c3.536 0 5.886-1.971 6.425-5.103h-3.078c-.35 1.593-1.538 2.619-3.32 2.619-2.35 0-3.889-1.863-3.889-4.563 0-2.727 1.54-4.617 3.889-4.617 1.808 0 2.97.999 3.347 2.619h3.051c-.566-3.132-2.78-5.103-6.344-5.103-4.185 0-6.94 2.835-6.94 7.101 0 4.32 2.674 7.047 6.858 7.047zm15.92-14.148c-2.16 0-3.483.972-4.347 2.16V.1h-2.916V19h2.916v-6.993c0-2.781 1.404-4.482 3.7-4.482 2.16 0 3.32 1.404 3.32 4.023V19h2.916v-7.695c0-4.617-2.51-6.291-5.589-6.291zm20.877 11.448c-.594 0-.89-.189-.89-.891v-5.535c0-3.267-2.107-5.022-5.779-5.022-3.483 0-5.805 1.674-6.102 4.374h2.862c.216-1.215 1.377-2.025 3.105-2.025 1.917 0 3.024.945 3.024 2.484v.837h-3.483c-3.86 0-5.913 1.593-5.913 4.428 0 2.565 2.106 4.05 5.13 4.05 2.241 0 3.645-.972 4.563-2.376 0 1.377.648 2.214 2.538 2.214h1.54v-2.538h-.595zm-3.78-3.132c-.027 2.133-1.43 3.564-3.86 3.564-1.594 0-2.566-.81-2.566-1.971 0-1.404 1-2.079 2.808-2.079h3.618v.486zm12.956-8.154c-2.268 0-3.375.918-4.077 2.079l-.324-2.079h-2.592V19h2.916v-6.939c0-2.133.837-4.158 3.429-4.158h1.296V5.176h-.648zm12.344 2.16c-.891-1.377-2.376-2.322-4.536-2.322-3.753 0-6.534 2.781-6.534 7.02 0 4.401 2.781 7.02 6.534 7.02 2.16 0 3.591-.891 4.509-2.268v1.539c0 2.646-1.431 3.861-3.969 3.861-2.052 0-3.402-.891-3.753-2.43h-2.97c.27 3.105 2.835 4.806 6.507 4.806 4.968 0 7.074-2.376 7.074-6.129V5.176h-2.538l-.324 2.16zm-4.05 9.261c-2.43 0-4.023-1.863-4.023-4.563 0-2.673 1.593-4.563 4.023-4.563 2.43 0 4.023 1.89 4.023 4.617 0 2.646-1.593 4.509-4.023 4.509zm16.323 2.565c3.429 0 5.751-2.079 6.237-4.806h-2.916c-.405 1.539-1.701 2.43-3.483 2.43-2.295 0-3.78-1.539-3.861-3.888v-.189h10.422c.054-.378.081-.756.081-1.107-.081-4.05-2.754-6.588-6.75-6.588-4.077 0-6.804 2.835-6.804 7.101 0 4.239 2.727 7.047 7.074 7.047zm-3.915-8.586c.216-1.971 1.809-3.213 3.672-3.213 2.025 0 3.456 1.161 3.699 3.213h-7.371zm23.656 8.505l-.54 1.35c-.432 1.134-.702 1.404-1.836 1.404h-2.052V24.4h3.132c2.025 0 2.619-.999 3.483-3.24l6.264-15.984h-3.105l-3.753 10.503-3.861-10.503h-3.105l5.373 13.905zm15.827.081c4.212 0 7.047-2.835 7.047-7.074 0-4.212-2.835-7.074-7.047-7.074s-7.047 2.862-7.047 7.074c0 4.239 2.835 7.074 7.047 7.074zm0-2.484c-2.457 0-4.05-1.917-4.05-4.59s1.593-4.59 4.05-4.59 4.077 1.917 4.077 4.59-1.62 4.59-4.077 4.59zm18.869-4.59c0 2.862-1.35 4.536-3.564 4.536-2.133 0-3.213-1.377-3.213-4.077V5.176h-2.916v7.695c0 4.725 2.511 6.291 5.454 6.291 2.133 0 3.402-.864 4.266-1.917l.324 1.755h2.565V5.176h-2.916v6.912zm12.783-6.912c-2.268 0-3.375.918-4.077 2.079l-.324-2.079h-2.592V19h2.916v-6.939c0-2.133.837-4.158 3.429-4.158h1.296V5.176h-.648zM8.829 35.014c-2.16 0-3.591.999-4.509 2.214l-.351-2.052H1.431V54.4h2.916v-7.344c.864 1.242 2.349 2.106 4.482 2.106 3.78 0 6.534-2.808 6.534-7.074 0-4.428-2.754-7.074-6.534-7.074zm-.486 11.691c-2.43 0-4.023-1.917-4.023-4.671 0-2.673 1.593-4.536 4.023-4.536 2.43 0 4.05 1.863 4.05 4.59 0 2.7-1.62 4.617-4.05 4.617zm15.89 2.457c4.213 0 7.048-2.835 7.048-7.074 0-4.212-2.835-7.074-7.047-7.074s-7.047 2.862-7.047 7.074c0 4.239 2.835 7.074 7.047 7.074zm0-2.484c-2.456 0-4.05-1.917-4.05-4.59s1.594-4.59 4.05-4.59c2.458 0 4.078 1.917 4.078 4.59s-1.62 4.59-4.077 4.59zm16.385-11.502c-2.268 0-3.375.918-4.077 2.079l-.324-2.079h-2.592V49h2.916v-6.939c0-2.133.837-4.158 3.43-4.158h1.295v-2.727h-.648zm3.947 10.071c0 2.511 1.134 3.753 3.78 3.753h2.7v-2.565h-2.052c-1.107 0-1.485-.405-1.485-1.485v-7.209h3.375v-2.565h-3.375v-3.861h-2.943v3.861h-2.403v2.565h2.403v7.506zm7.22-7.506h2.404V49h2.943V37.741h3.699v-2.565h-3.753v-1.161c0-.945.405-1.35 1.35-1.35h2.403V30.1H58.05c-2.673 0-3.861 1.296-3.861 3.78v1.296h-2.403v2.565zm16.508 11.421c4.212 0 7.047-2.835 7.047-7.074 0-4.212-2.835-7.074-7.047-7.074s-7.047 2.862-7.047 7.074c0 4.239 2.835 7.074 7.047 7.074zm0-2.484c-2.457 0-4.05-1.917-4.05-4.59s1.593-4.59 4.05-4.59 4.077 1.917 4.077 4.59-1.62 4.59-4.077 4.59zM77.685 49H80.6V30.1h-2.916V49zm7.26-15.768c.998 0 1.781-.729 1.781-1.755 0-1.026-.783-1.755-1.782-1.755s-1.782.729-1.782 1.755c0 1.026.783 1.755 1.782 1.755zM83.458 49h2.916V35.176H83.46V49zm12.309.162c4.212 0 7.047-2.835 7.047-7.074 0-4.212-2.835-7.074-7.047-7.074s-7.047 2.862-7.047 7.074c0 4.239 2.835 7.074 7.047 7.074zm0-2.484c-2.457 0-4.05-1.917-4.05-4.59s1.593-4.59 4.05-4.59 4.077 1.917 4.077 4.59-1.62 4.59-4.077 4.59zM115.254 49h3.159l3.024-9.396L124.353 49h3.132l4.59-13.824h-2.97l-3.267 10.584-3.024-10.584h-2.673l-3.159 10.584-3.159-10.584h-3.078L115.254 49zm19.841-15.768c.999 0 1.782-.729 1.782-1.755 0-1.026-.783-1.755-1.782-1.755s-1.782.729-1.782 1.755c0 1.026.783 1.755 1.782 1.755zM133.61 49h2.916V35.176h-2.916V49zm6.773-3.753c0 2.511 1.134 3.753 3.78 3.753h2.7v-2.565h-2.052c-1.107 0-1.485-.405-1.485-1.485v-7.209h3.375v-2.565h-3.375v-3.861h-2.943v3.861h-2.403v2.565h2.403v7.506zm15.598-10.233c-2.16 0-3.483.972-4.347 2.16V30.1h-2.916V49h2.916v-6.993c0-2.781 1.404-4.482 3.699-4.482 2.16 0 3.321 1.404 3.321 4.023V49h2.916v-7.695c0-4.617-2.511-6.291-5.589-6.291zM7.992 79.162c3.429 0 5.751-2.079 6.237-4.806h-2.916c-.405 1.539-1.701 2.43-3.483 2.43-2.295 0-3.78-1.539-3.861-3.888v-.189h10.422c.054-.378.081-.756.081-1.107-.081-4.05-2.754-6.588-6.75-6.588-4.077 0-6.804 2.835-6.804 7.101 0 4.239 2.727 7.047 7.074 7.047zm-3.915-8.586c.216-1.971 1.809-3.213 3.672-3.213 2.025 0 3.456 1.161 3.699 3.213H4.077zm25.388 5.886c-.594 0-.89-.189-.89-.891v-5.535c0-3.267-2.107-5.022-5.779-5.022-3.483 0-5.805 1.674-6.102 4.374h2.862c.216-1.215 1.377-2.025 3.105-2.025 1.917 0 3.024.945 3.024 2.484v.837h-3.483c-3.86 0-5.913 1.593-5.913 4.428 0 2.565 2.106 4.05 5.13 4.05 2.241 0 3.645-.972 4.563-2.376 0 1.377.648 2.214 2.538 2.214h1.54v-2.538h-.595zm-3.78-3.132c-.027 2.133-1.43 3.564-3.86 3.564-1.594 0-2.566-.81-2.566-1.971 0-1.404 1-2.079 2.808-2.079h3.618v.486zm12.956-8.154c-2.268 0-3.375.918-4.077 2.079l-.324-2.079h-2.592V79h2.916v-6.939c0-2.133.837-4.158 3.429-4.158h1.296v-2.727h-.648zm9.736-.162c-2.24 0-3.564.891-4.428 1.971l-.324-1.809h-2.538V79h2.916v-6.966c0-2.808 1.377-4.509 3.7-4.509 2.186 0 3.293 1.404 3.293 4.023V79h2.943v-7.695c0-4.617-2.51-6.291-5.562-6.291zm9.7-1.782c.998 0 1.781-.729 1.781-1.755 0-1.026-.783-1.755-1.782-1.755s-1.782.729-1.782 1.755c0 1.026.783 1.755 1.782 1.755zM56.59 79h2.916V65.176h-2.916V79zm13.065-13.986c-2.241 0-3.564.891-4.428 1.971l-.324-1.809h-2.538V79h2.916v-6.966c0-2.808 1.377-4.509 3.699-4.509 2.187 0 3.294 1.404 3.294 4.023V79h2.943v-7.695c0-4.617-2.511-6.291-5.562-6.291zm18.77 2.322c-.89-1.377-2.376-2.322-4.535-2.322-3.754 0-6.535 2.781-6.535 7.02 0 4.401 2.782 7.02 6.535 7.02 2.16 0 3.59-.891 4.508-2.268v1.539c0 2.646-1.43 3.861-3.969 3.861-2.052 0-3.402-.891-3.753-2.43h-2.97c.27 3.105 2.836 4.806 6.508 4.806 4.968 0 7.073-2.376 7.073-6.129V65.176h-2.537l-.325 2.16zm-4.05 9.261c-2.43 0-4.023-1.863-4.023-4.563 0-2.673 1.594-4.563 4.023-4.563 2.43 0 4.023 1.89 4.023 4.617 0 2.646-1.593 4.509-4.023 4.509zm9.168-2.16c.081 2.997 2.619 4.725 6.318 4.725 3.348 0 5.859-1.674 5.859-4.32 0-3.078-2.565-3.726-5.724-4.104-1.998-.216-3.321-.378-3.321-1.674 0-1.107 1.134-1.809 2.862-1.809 1.728 0 2.916.891 3.078 2.16h2.862c-.189-2.835-2.592-4.401-5.994-4.401-3.321-.027-5.67 1.674-5.67 4.293 0 2.862 2.484 3.537 5.643 3.915 2.133.27 3.402.378 3.402 1.863 0 1.107-1.188 1.809-2.997 1.809-2.106 0-3.348-1.026-3.456-2.457h-2.862zM118.615 79h3.564l5.103-13.824h-3.078l-3.753 10.692-3.807-10.692h-3.132L118.615 79zm16.044.162c4.212 0 7.047-2.835 7.047-7.074 0-4.212-2.835-7.074-7.047-7.074s-7.047 2.862-7.047 7.074c0 4.239 2.835 7.074 7.047 7.074zm0-2.484c-2.457 0-4.05-1.917-4.05-4.59s1.593-4.59 4.05-4.59 4.077 1.917 4.077 4.59-1.62 4.59-4.077 4.59zM144.051 79h2.916V60.1h-2.916V79zm18.411-2.538c-.594 0-.891-.189-.891-.891v-5.535c0-3.267-2.106-5.022-5.778-5.022-3.483 0-5.805 1.674-6.102 4.374h2.862c.216-1.215 1.377-2.025 3.105-2.025 1.917 0 3.024.945 3.024 2.484v.837h-3.483c-3.861 0-5.913 1.593-5.913 4.428 0 2.565 2.106 4.05 5.13 4.05 2.241 0 3.645-.972 4.563-2.376 0 1.377.648 2.214 2.538 2.214h1.539v-2.538h-.594zm-3.78-3.132c-.027 2.133-1.431 3.564-3.861 3.564-1.593 0-2.565-.81-2.565-1.971 0-1.404.999-2.079 2.808-2.079h3.618v.486zm6.961 1.917c0 2.511 1.134 3.753 3.78 3.753h2.7v-2.565h-2.052c-1.107 0-1.485-.405-1.485-1.485v-7.209h3.375v-2.565h-3.375v-3.861h-2.943v3.861h-2.403v2.565h2.403v7.506zm9.82-12.015c.999 0 1.782-.729 1.782-1.755 0-1.026-.783-1.755-1.782-1.755s-1.782.729-1.782 1.755c0 1.026.783 1.755 1.782 1.755zM173.978 79h2.916V65.176h-2.916V79zm5.774 0h2.916V60.1h-2.916V79zm7.26-15.768c.999 0 1.782-.729 1.782-1.755 0-1.026-.783-1.755-1.782-1.755s-1.782.729-1.782 1.755c0 1.026.783 1.755 1.782 1.755zM185.527 79h2.916V65.176h-2.916V79zm6.773-3.753c0 2.511 1.134 3.753 3.78 3.753h2.7v-2.565h-2.052c-1.107 0-1.485-.405-1.485-1.485v-7.209h3.375v-2.565h-3.375v-3.861H192.3v3.861h-2.403v2.565h2.403v7.506zm12.331 3.834l-.54 1.35c-.432 1.134-.702 1.404-1.836 1.404h-2.052V84.4h3.132c2.025 0 2.619-.999 3.483-3.24l6.264-15.984h-3.105l-3.753 10.503-3.861-10.503h-3.105l5.373 13.905z" fill="#000"/></svg>