<svg width="110" height="95" viewBox="0 0 110 95" fill="none" xmlns="http://www.w3.org/2000/svg"><path d="M1.408 16H7.26c3.718 0 5.72-1.672 5.72-4.4 0-2.2-1.408-3.278-3.234-3.564 1.606-.44 2.64-1.54 2.64-3.366C12.386 2.14 10.45.6 7.062.6H1.408V16zm5.72-13.288c1.76 0 2.728.836 2.728 2.2 0 1.386-.99 2.222-2.728 2.222h-3.19V2.712h3.19zm.154 6.512c1.958 0 3.102.836 3.102 2.354 0 1.43-1.078 2.288-3.102 2.288H3.938V9.224h3.344zm17.973 4.708c-.484 0-.726-.154-.726-.726v-4.51c0-2.662-1.716-4.092-4.708-4.092-2.838 0-4.73 1.364-4.972 3.564h2.332c.176-.99 1.122-1.65 2.53-1.65 1.562 0 2.464.77 2.464 2.024v.682h-2.838c-3.146 0-4.818 1.298-4.818 3.608 0 2.09 1.716 3.3 4.18 3.3 1.826 0 2.97-.792 3.718-1.936 0 1.122.528 1.804 2.068 1.804h1.254v-2.068h-.484zm-3.08-2.552c-.022 1.738-1.166 2.904-3.146 2.904-1.298 0-2.09-.66-2.09-1.606 0-1.144.814-1.694 2.288-1.694h2.948v.396zM27.033 16h2.376V.6h-2.376V16zm15.001-2.068c-.484 0-.726-.154-.726-.726v-4.51c0-2.662-1.716-4.092-4.708-4.092-2.838 0-4.73 1.364-4.972 3.564h2.332c.176-.99 1.122-1.65 2.53-1.65 1.562 0 2.464.77 2.464 2.024v.682h-2.838c-3.146 0-4.818 1.298-4.818 3.608 0 2.09 1.716 3.3 4.18 3.3 1.826 0 2.97-.792 3.718-1.936 0 1.122.528 1.804 2.068 1.804h1.254v-2.068h-.484zm-3.08-2.552c-.022 1.738-1.166 2.904-3.146 2.904-1.298 0-2.09-.66-2.09-1.606 0-1.144.814-1.694 2.288-1.694h2.948v.396zm10.798-6.776c-1.826 0-2.904.726-3.608 1.606l-.264-1.474h-2.068V16h2.377v-5.676c0-2.288 1.121-3.674 3.014-3.674 1.781 0 2.683 1.144 2.683 3.278V16h2.398V9.73c0-3.762-2.045-5.126-4.532-5.126zM61.53 16.132c2.882 0 4.796-1.606 5.236-4.158h-2.508c-.286 1.298-1.254 2.134-2.706 2.134-1.914 0-3.168-1.518-3.168-3.718 0-2.222 1.254-3.762 3.168-3.762 1.474 0 2.42.814 2.728 2.134h2.486c-.462-2.552-2.266-4.158-5.17-4.158-3.41 0-5.654 2.31-5.654 5.786 0 3.52 2.178 5.742 5.588 5.742zm12.401 0c2.794 0 4.686-1.694 5.082-3.916h-2.376c-.33 1.254-1.386 1.98-2.838 1.98-1.87 0-3.08-1.254-3.146-3.168v-.154h8.492c.044-.308.066-.616.066-.902-.066-3.3-2.244-5.368-5.5-5.368-3.322 0-5.544 2.31-5.544 5.786 0 3.454 2.222 5.742 5.764 5.742zm-3.19-6.996c.176-1.606 1.474-2.618 2.992-2.618 1.65 0 2.816.946 3.014 2.618H70.74zm17.23-5.984c.814 0 1.452-.594 1.452-1.43S88.784.292 87.97.292s-1.452.594-1.452 1.43.638 1.43 1.452 1.43zM86.76 16h2.376V4.736H86.76V16zm4.22-3.718c.067 2.442 2.135 3.85 5.149 3.85 2.728 0 4.774-1.364 4.774-3.52 0-2.508-2.09-3.036-4.664-3.344-1.628-.176-2.706-.308-2.706-1.364 0-.902.924-1.474 2.332-1.474s2.376.726 2.508 1.76h2.332c-.154-2.31-2.112-3.586-4.884-3.586-2.706-.022-4.62 1.364-4.62 3.498 0 2.332 2.024 2.882 4.598 3.19 1.738.22 2.772.308 2.772 1.518 0 .902-.968 1.474-2.442 1.474-1.716 0-2.728-.836-2.816-2.002H90.98zM1.167 42h2.376v-2.86l2.024-2.112L8.888 42h2.816l-4.51-6.71 4.246-4.554H8.646l-5.104 5.456V26.6H1.166V42zm16.325.132c2.794 0 4.686-1.694 5.082-3.916h-2.377c-.33 1.254-1.386 1.98-2.838 1.98-1.87 0-3.08-1.254-3.146-3.168v-.154h8.492c.044-.308.066-.616.066-.902-.066-3.3-2.244-5.368-5.5-5.368-3.322 0-5.543 2.31-5.543 5.786 0 3.454 2.221 5.742 5.764 5.742zm-3.19-6.996c.175-1.606 1.473-2.618 2.992-2.618 1.65 0 2.816.946 3.014 2.618H14.3zm13.13 6.93l-.44 1.1c-.351.924-.571 1.144-1.495 1.144h-1.672v2.09h2.552c1.65 0 2.134-.814 2.838-2.64l5.104-13.024h-2.53l-3.058 8.558-3.146-8.558h-2.53l4.378 11.33zm14.531-3.124c0 2.046.924 3.058 3.08 3.058h2.2v-2.09H45.57c-.902 0-1.21-.33-1.21-1.21v-5.874h2.75v-2.09h-2.75V27.59h-2.398v3.146h-1.958v2.09h1.958v6.116zm11.88 3.19c3.432 0 5.742-2.31 5.742-5.764 0-3.432-2.31-5.764-5.742-5.764S48.1 32.936 48.1 36.368c0 3.454 2.31 5.764 5.742 5.764zm0-2.024c-2.002 0-3.3-1.562-3.3-3.74s1.298-3.74 3.3-3.74 3.322 1.562 3.322 3.74-1.32 3.74-3.322 3.74zm16.537 1.958l-.44 1.1c-.352.924-.572 1.144-1.496 1.144h-1.672v2.09h2.552c1.65 0 2.134-.814 2.838-2.64l5.104-13.024h-2.53l-3.058 8.558-3.146-8.558h-2.53l4.378 11.33zm12.896.066c3.432 0 5.742-2.31 5.742-5.764 0-3.432-2.31-5.764-5.742-5.764s-5.742 2.332-5.742 5.764c0 3.454 2.31 5.764 5.742 5.764zm0-2.024c-2.002 0-3.3-1.562-3.3-3.74s1.298-3.74 3.3-3.74 3.322 1.562 3.322 3.74-1.32 3.74-3.322 3.74zm15.375-3.74c0 2.332-1.1 3.696-2.904 3.696-1.738 0-2.618-1.122-2.618-3.322v-6.006h-2.376v6.27c0 3.85 2.046 5.126 4.444 5.126 1.738 0 2.772-.704 3.476-1.562l.264 1.43h2.09V30.736H98.65v5.632zm10.415-5.632c-1.848 0-2.75.748-3.322 1.694l-.264-1.694h-2.112V42h2.376v-5.654c0-1.738.682-3.388 2.794-3.388h1.056v-2.222h-.528zM1.98 64.942c0 2.046.924 3.058 3.08 3.058h2.2v-2.09H5.588c-.902 0-1.21-.33-1.21-1.21v-5.874h2.75v-2.09h-2.75V53.59H1.98v3.146H.022v2.09H1.98v6.116zm12.49-8.206c-1.849 0-2.75.748-3.322 1.694l-.264-1.694H8.77V68h2.377v-5.654c0-1.738.681-3.388 2.793-3.388h1.056v-2.222h-.527zm11.945 9.196c-.484 0-.726-.154-.726-.726v-4.51c0-2.662-1.716-4.092-4.708-4.092-2.838 0-4.73 1.364-4.972 3.564h2.332c.176-.99 1.122-1.65 2.53-1.65 1.562 0 2.464.77 2.464 2.024v.682h-2.838c-3.146 0-4.818 1.298-4.818 3.608 0 2.09 1.716 3.3 4.18 3.3 1.826 0 2.97-.792 3.718-1.936 0 1.122.528 1.804 2.068 1.804H26.9v-2.068h-.484zm-3.08-2.552c-.022 1.738-1.166 2.904-3.146 2.904-1.298 0-2.09-.66-2.09-1.606 0-1.144.814-1.694 2.288-1.694h2.948v.396zm13.33-5.082c-.726-.99-1.936-1.694-3.652-1.694-3.058 0-5.324 2.288-5.324 5.764 0 3.608 2.266 5.764 5.324 5.764 1.782 0 2.948-.836 3.674-1.826L36.973 68h2.068V52.6h-2.376v5.698zM33.41 66.13c-1.98 0-3.278-1.54-3.278-3.762 0-2.2 1.298-3.74 3.278-3.74s3.278 1.54 3.278 3.784c0 2.178-1.298 3.718-3.278 3.718zm9.164-10.978c.814 0 1.452-.594 1.452-1.43s-.638-1.43-1.452-1.43-1.452.594-1.452 1.43.638 1.43 1.452 1.43zM41.363 68h2.376V56.736h-2.376V68zm10.645-11.396c-1.826 0-2.904.726-3.608 1.606l-.264-1.474h-2.068V68h2.376v-5.676c0-2.288 1.122-3.674 3.014-3.674 1.782 0 2.684 1.144 2.684 3.278V68h2.398v-6.27c0-3.762-2.046-5.126-4.532-5.126zm15.295 1.892c-.726-1.122-1.936-1.892-3.696-1.892-3.058 0-5.324 2.266-5.324 5.72 0 3.586 2.266 5.72 5.324 5.72 1.76 0 2.926-.726 3.674-1.848v1.254c0 2.156-1.166 3.146-3.234 3.146-1.672 0-2.772-.726-3.058-1.98h-2.42c.22 2.53 2.31 3.916 5.302 3.916 4.048 0 5.764-1.936 5.764-4.994V56.736h-2.068l-.264 1.76zm-3.3 7.546c-1.98 0-3.278-1.518-3.278-3.718 0-2.178 1.298-3.718 3.278-3.718s3.278 1.54 3.278 3.762c0 2.156-1.298 3.674-3.278 3.674zM.682 90.282c.066 2.442 2.134 3.85 5.148 3.85 2.728 0 4.774-1.364 4.774-3.52 0-2.508-2.09-3.036-4.664-3.344-1.628-.176-2.706-.308-2.706-1.364 0-.902.924-1.474 2.332-1.474s2.376.726 2.508 1.76h2.332c-.154-2.31-2.112-3.586-4.884-3.586-2.706-.022-4.62 1.364-4.62 3.498 0 2.332 2.024 2.882 4.598 3.19 1.738.22 2.772.308 2.772 1.518 0 .902-.968 1.474-2.442 1.474-1.716 0-2.728-.836-2.816-2.002H.682zm19.485-1.914c0 2.332-1.1 3.696-2.904 3.696-1.738 0-2.618-1.122-2.618-3.322v-6.006H12.27v6.27c0 3.85 2.046 5.126 4.444 5.126 1.738 0 2.772-.704 3.476-1.562l.264 1.43h2.09V82.736h-2.376v5.632zm9.888 5.764c2.882 0 4.796-1.606 5.236-4.158h-2.508c-.286 1.298-1.254 2.134-2.706 2.134-1.914 0-3.168-1.518-3.168-3.718 0-2.222 1.254-3.762 3.168-3.762 1.474 0 2.42.814 2.728 2.134h2.486c-.462-2.552-2.266-4.158-5.17-4.158-3.41 0-5.654 2.31-5.654 5.786 0 3.52 2.178 5.742 5.588 5.742zm12.224 0c2.882 0 4.796-1.606 5.236-4.158h-2.508c-.286 1.298-1.254 2.134-2.706 2.134-1.914 0-3.168-1.518-3.168-3.718 0-2.222 1.254-3.762 3.168-3.762 1.474 0 2.42.814 2.728 2.134h2.486c-.462-2.552-2.266-4.158-5.17-4.158-3.41 0-5.654 2.31-5.654 5.786 0 3.52 2.178 5.742 5.588 5.742zm12.401 0c2.794 0 4.686-1.694 5.082-3.916h-2.376c-.33 1.254-1.386 1.98-2.838 1.98-1.87 0-3.08-1.254-3.146-3.168v-.154h8.492c.044-.308.066-.616.066-.902-.066-3.3-2.244-5.368-5.5-5.368-3.322 0-5.544 2.31-5.544 5.786 0 3.454 2.222 5.742 5.764 5.742zm-3.19-6.996c.176-1.606 1.474-2.618 2.992-2.618 1.65 0 2.816.946 3.014 2.618H51.49zm9.842 3.146c.066 2.442 2.134 3.85 5.148 3.85 2.728 0 4.774-1.364 4.774-3.52 0-2.508-2.09-3.036-4.664-3.344-1.628-.176-2.706-.308-2.706-1.364 0-.902.924-1.474 2.332-1.474s2.376.726 2.508 1.76h2.332c-.154-2.31-2.112-3.586-4.884-3.586-2.706-.022-4.62 1.364-4.62 3.498 0 2.332 2.024 2.882 4.598 3.19 1.738.22 2.772.308 2.772 1.518 0 .902-.968 1.474-2.442 1.474-1.716 0-2.728-.836-2.816-2.002h-2.332zm11.065 0c.066 2.442 2.134 3.85 5.148 3.85 2.728 0 4.774-1.364 4.774-3.52 0-2.508-2.09-3.036-4.664-3.344-1.628-.176-2.706-.308-2.706-1.364 0-.902.924-1.474 2.332-1.474s2.376.726 2.508 1.76h2.332c-.154-2.31-2.112-3.586-4.884-3.586-2.706-.022-4.62 1.364-4.62 3.498 0 2.332 2.024 2.882 4.598 3.19 1.738.22 2.772.308 2.772 1.518 0 .902-.968 1.474-2.442 1.474-1.716 0-2.728-.836-2.816-2.002h-2.332z" fill="#000"/></svg>