<svg width="103" height="14" viewBox="0 0 103 14" fill="none" xmlns="http://www.w3.org/2000/svg"><path d="M.825 11h2.76V7.76H5.07L6.615 11h3.03L7.74 7.085C8.685 6.47 9.3 5.42 9.3 4.13 9.3 1.925 7.665.5 5.25.5H.825V11zm4.2-8.25c.9 0 1.455.525 1.455 1.38 0 .855-.555 1.38-1.455 1.38h-1.44V2.75h1.44zm9.14 8.34c1.77 0 3.03-1.125 3.33-2.655H16.25c-.255.99-1.095 1.56-2.175 1.56-1.455 0-2.37-1.02-2.415-2.475v-.105h5.94c.015-.18.03-.36.03-.525-.06-2.265-1.47-3.63-3.63-3.63s-3.63 1.59-3.63 3.915c0 2.34 1.5 3.915 3.795 3.915zm-2.43-4.695c.12-1.245 1.155-2.055 2.28-2.055 1.275 0 2.175.735 2.295 2.055h-4.575zm14.063 3.48c-.345 0-.495-.105-.495-.51V6.02c0-1.785-1.125-2.76-3.075-2.76-1.845 0-3.06.885-3.24 2.385h1.23c.15-.78.87-1.29 1.95-1.29 1.2 0 1.905.6 1.905 1.59v.525h-2.25c-2.01 0-3.075.855-3.075 2.385 0 1.395 1.14 2.235 2.82 2.235 1.32 0 2.085-.585 2.565-1.275.015.75.36 1.185 1.38 1.185h.675V9.875h-.39zM24.073 7.88c0 1.275-.885 2.16-2.415 2.16-1.02 0-1.665-.51-1.665-1.26 0-.87.615-1.275 1.71-1.275h2.37v.375zm9.003-3.36c-.465-.735-1.335-1.26-2.625-1.26-2.115 0-3.675 1.575-3.675 3.915 0 2.49 1.56 3.915 3.675 3.915 1.29 0 2.115-.615 2.625-1.32l.165 1.23h1.065V.5h-1.23v4.02zm-2.505 5.475c-1.515 0-2.535-1.155-2.535-2.82 0-1.665 1.02-2.82 2.535-2.82 1.5 0 2.52 1.17 2.52 2.85 0 1.635-1.02 2.79-2.52 2.79zm7.63 1.05l-.374.93c-.285.72-.405.9-1.11.9h-1.095V14h1.47c1.08 0 1.365-.48 1.845-1.71l3.525-8.94h-1.305l-2.28 6.105-2.355-6.105h-1.305l2.985 7.695zm9.82-3.795V6.215h-4.995V7.25h4.995zM50 9.005c0 1.35.525 1.995 1.995 1.995h1.335V9.875h-1.215c-.66 0-.885-.24-.885-.885V4.475h1.98V3.35h-1.98V1.205h-1.23V3.35h-1.38v1.125h1.38v4.53zm7.73 2.085c2.235 0 3.795-1.59 3.795-3.915S59.964 3.26 57.73 3.26s-3.795 1.59-3.795 3.915 1.56 3.915 3.795 3.915zm0-1.095c-1.515 0-2.535-1.185-2.535-2.82 0-1.635 1.02-2.82 2.535-2.82 1.515 0 2.535 1.185 2.535 2.82 0 1.635-1.02 2.82-2.535 2.82zm10.2-2.745V6.215h-4.996V7.25h4.995zm1.977 1.755c0 1.35.525 1.995 1.995 1.995h1.335V9.875h-1.215c-.66 0-.885-.24-.885-.885V4.475h1.98V3.35h-1.98V1.205h-1.23V3.35h-1.38v1.125h1.38v4.53zm7.936-5.655c-1.365 0-1.95.57-2.31 1.155l-.165-1.155h-1.065V11h1.23V7.1c0-1.215.435-2.55 2.04-2.55h.615v-1.2h-.345zm7.912 6.525c-.345 0-.495-.105-.495-.51V6.02c0-1.785-1.125-2.76-3.075-2.76-1.845 0-3.06.885-3.24 2.385h1.23c.15-.78.87-1.29 1.95-1.29 1.2 0 1.905.6 1.905 1.59v.525h-2.25c-2.01 0-3.075.855-3.075 2.385 0 1.395 1.14 2.235 2.82 2.235 1.32 0 2.085-.585 2.565-1.275.015.75.36 1.185 1.38 1.185h.675V9.875h-.39zM84.03 7.88c0 1.275-.885 2.16-2.415 2.16-1.02 0-1.665-.51-1.665-1.26 0-.87.615-1.275 1.71-1.275h2.37v.375zm9.003-3.36c-.465-.735-1.335-1.26-2.625-1.26-2.115 0-3.675 1.575-3.675 3.915 0 2.49 1.56 3.915 3.675 3.915 1.29 0 2.115-.615 2.625-1.32l.165 1.23h1.065V.5h-1.23v4.02zm-2.505 5.475c-1.515 0-2.535-1.155-2.535-2.82 0-1.665 1.02-2.82 2.535-2.82 1.5 0 2.52 1.17 2.52 2.85 0 1.635-1.02 2.79-2.52 2.79zm8.936 1.095c1.77 0 3.03-1.125 3.33-2.655h-1.245c-.255.99-1.095 1.56-2.175 1.56-1.455 0-2.37-1.02-2.415-2.475v-.105h5.94c.015-.18.03-.36.03-.525-.06-2.265-1.47-3.63-3.63-3.63s-3.63 1.59-3.63 3.915c0 2.34 1.5 3.915 3.795 3.915zm-2.43-4.695c.12-1.245 1.155-2.055 2.28-2.055 1.275 0 2.175.735 2.295 2.055h-4.575z" fill="#fff"/></svg>