<svg width="74" height="11" viewBox="0 0 74 11" fill="none" xmlns="http://www.w3.org/2000/svg"><path d="M.28 1.628h3.024V10h1.61V1.628h3.024V.2H.28v1.428zm9.14-.224c.28 0 .505-.21.505-.504A.493.493 0 009.42.396c-.28 0-.504.21-.504.504 0 .294.224.504.504.504zM9.058 10h.714V2.902h-.714V10zm10.316-7.182c-1.302 0-2.142.728-2.548 1.778-.336-1.176-1.218-1.778-2.338-1.778-1.218 0-1.946.714-2.31 1.596l-.112-1.512h-.616V10h.714V6.388c0-1.736.84-2.912 2.198-2.912 1.232 0 2.002.868 2.002 2.506V10h.714V6.136c.042-1.624.882-2.66 2.212-2.66 1.232 0 1.974.826 1.974 2.436V10h.728V5.884c0-2.142-1.134-3.066-2.618-3.066zm7.23 7.266c1.554 0 2.744-1.008 3.052-2.436h-.728c-.28 1.106-1.218 1.792-2.38 1.792-1.582 0-2.576-1.204-2.604-2.856v-.126h5.796c0-.098.014-.21.014-.294-.07-2.114-1.372-3.346-3.276-3.346-1.946 0-3.276 1.484-3.276 3.584 0 2.226 1.386 3.682 3.402 3.682zm-2.604-4.228c.112-1.442 1.19-2.408 2.492-2.408 1.386 0 2.38.854 2.492 2.408h-4.984zm6.244-2.296h1.344V10h.714V3.56h2.128v-.658H32.3V1.838c0-.7.266-.98.98-.98h1.162V.2h-1.19c-1.19 0-1.666.518-1.666 1.652v1.05h-1.344v.658zm7.948-.658c-1.316 0-1.876.63-2.17 1.414l-.112-1.414h-.616V10h.714V6.402c0-1.442.378-2.814 2.044-2.814h.518v-.686h-.378zm7.38 6.44c-.42 0-.63-.14-.63-.686V5.352c0-1.624-.995-2.534-2.773-2.534-1.624 0-2.702.784-2.884 2.072h.714c.182-.868.938-1.442 2.142-1.442 1.33 0 2.086.7 2.086 1.876v.616h-2.408c-1.82 0-2.8.784-2.8 2.114 0 1.26.994 2.03 2.506 2.03 1.442 0 2.296-.658 2.73-1.54v.252c-.028.84.322 1.204 1.162 1.204h.42v-.658h-.266zM44.225 7.13c0 1.358-.966 2.338-2.646 2.338-1.134 0-1.834-.574-1.834-1.456 0-.938.7-1.456 2.016-1.456h2.464v.574zm10.49-4.312c-1.303 0-2.143.728-2.549 1.778-.336-1.176-1.218-1.778-2.338-1.778-1.218 0-1.946.714-2.31 1.596l-.112-1.512h-.616V10h.714V6.388c0-1.736.84-2.912 2.198-2.912 1.232 0 2.002.868 2.002 2.506V10h.714V6.136c.042-1.624.882-2.66 2.212-2.66 1.232 0 1.974.826 1.974 2.436V10h.728V5.884c0-2.142-1.134-3.066-2.618-3.066zm7.229 7.266c1.554 0 2.744-1.008 3.052-2.436h-.728c-.28 1.106-1.218 1.792-2.38 1.792-1.582 0-2.576-1.204-2.604-2.856v-.126h5.796c0-.098.014-.21.014-.294-.07-2.114-1.372-3.346-3.276-3.346-1.946 0-3.276 1.484-3.276 3.584 0 2.226 1.386 3.682 3.402 3.682zM59.34 5.856c.112-1.442 1.19-2.408 2.492-2.408 1.386 0 2.38.854 2.492 2.408H59.34zm12.961-1.358c-.434-1.008-1.386-1.68-2.716-1.68-1.946 0-3.346 1.484-3.346 3.626 0 2.24 1.4 3.64 3.346 3.64 1.33 0 2.254-.714 2.702-1.708L72.4 10h.616V.2h-.714v4.298zm-2.66 4.942c-1.582 0-2.674-1.232-2.674-2.996 0-1.75 1.092-2.996 2.674-2.996 1.582 0 2.674 1.246 2.674 3.01 0 1.75-1.092 2.982-2.674 2.982z" fill="#fff"/></svg>