<svg width="77" height="15" viewBox="0 0 77 15" fill="none" xmlns="http://www.w3.org/2000/svg"><path d="M2.865 11l.645-1.995h3.66L7.83 11h2.97L7.08.5H3.75L0 11h2.865zm2.46-7.575L6.45 6.83H4.215l1.11-3.405zM11.635 11h1.23V.5h-1.23V11zm8.946-6.33c-.48-.855-1.335-1.41-2.625-1.41-2.115 0-3.675 1.575-3.675 3.915 0 2.49 1.56 3.915 3.675 3.915 1.29 0 2.115-.54 2.625-1.41v.9c0 1.665-.87 2.415-2.475 2.415-1.275 0-2.13-.54-2.34-1.5h-1.26c.195 1.68 1.56 2.595 3.51 2.595 2.625 0 3.795-1.26 3.795-3.465V3.35h-1.065l-.165 1.32zm-2.505 5.325c-1.515 0-2.535-1.155-2.535-2.82 0-1.665 1.02-2.82 2.535-2.82 1.5 0 2.52 1.17 2.52 2.85 0 1.635-1.02 2.79-2.52 2.79zm8.936 1.095c2.235 0 3.794-1.59 3.794-3.915s-1.56-3.915-3.794-3.915c-2.236 0-3.796 1.59-3.796 3.915s1.56 3.915 3.796 3.915zm0-1.095c-1.515 0-2.535-1.185-2.535-2.82 0-1.635 1.02-2.82 2.535-2.82 1.514 0 2.535 1.185 2.535 2.82 0 1.635-1.02 2.82-2.535 2.82zm8.745-6.645c-1.365 0-1.95.57-2.31 1.155l-.165-1.155h-1.065V11h1.23V7.1c0-1.215.435-2.55 2.04-2.55h.615v-1.2h-.345zm2.041-1.29c.45 0 .795-.33.795-.795a.773.773 0 00-.795-.795c-.45 0-.795.33-.795.795s.345.795.795.795zm-.63 8.94h1.23V3.35h-1.23V11zm3.485-1.995c0 1.35.525 1.995 1.995 1.995h1.335V9.875h-1.215c-.66 0-.885-.24-.885-.885V4.475h1.98V3.35h-1.98V1.205h-1.23V3.35h-1.38v1.125h1.38v4.53zM48.8 3.26c-1.29 0-2.07.63-2.52 1.35V.5h-1.23V11h1.23V7.175c0-1.725.885-2.79 2.31-2.79 1.32 0 2.085.84 2.085 2.43V11h1.23V6.74c0-2.535-1.395-3.48-3.105-3.48zm13.208 0c-1.365 0-2.19.63-2.655 1.455-.435-.975-1.35-1.455-2.415-1.455-1.185 0-1.83.585-2.235 1.14l-.165-1.05h-1.065V11h1.23V6.965c0-1.53.765-2.58 2.025-2.58 1.17 0 1.845.78 1.845 2.28V11h1.23V6.905c0-1.56.78-2.52 2.055-2.52 1.155 0 1.815.78 1.815 2.28V11h1.23V6.59c0-2.415-1.305-3.33-2.895-3.33zm5.103-1.2c.45 0 .795-.33.795-.795A.773.773 0 0067.11.47c-.45 0-.795.33-.795.795s.345.795.795.795zM66.48 11h1.23V3.35h-1.23V11zm6.35.09c1.86 0 3.105-1.05 3.405-2.7H74.93c-.24.975-.99 1.605-2.085 1.605-1.47 0-2.46-1.14-2.46-2.805 0-1.665.99-2.835 2.46-2.835 1.125 0 1.875.615 2.1 1.635h1.29c-.315-1.68-1.5-2.73-3.375-2.73-2.22 0-3.735 1.59-3.735 3.93 0 2.385 1.47 3.9 3.705 3.9z" fill="#fff"/></svg>