<svg width="253" height="62" viewBox="0 0 253 62" fill="none" xmlns="http://www.w3.org/2000/svg"><path d="M.58 3.658h6.264V21h3.335V3.658h6.264V.7H.58v2.958zm22.419 17.516c3.683 0 6.177-2.233 6.699-5.162h-3.132c-.435 1.653-1.827 2.61-3.741 2.61-2.465 0-4.06-1.653-4.147-4.176v-.203h11.194c.058-.406.087-.812.087-1.189-.087-4.35-2.958-7.076-7.25-7.076-4.379 0-7.308 3.045-7.308 7.627 0 4.553 2.929 7.569 7.598 7.569zm-4.205-9.222c.232-2.117 1.943-3.451 3.944-3.451 2.175 0 3.712 1.247 3.973 3.451h-7.917zm12.974 4.147c.087 3.219 2.813 5.075 6.786 5.075 3.596 0 6.293-1.798 6.293-4.64 0-3.306-2.755-4.002-6.148-4.408-2.146-.232-3.567-.406-3.567-1.798 0-1.189 1.218-1.943 3.074-1.943 1.856 0 3.132.957 3.306 2.32h3.074c-.203-3.045-2.784-4.727-6.438-4.727-3.567-.029-6.09 1.798-6.09 4.611 0 3.074 2.668 3.799 6.061 4.205 2.291.29 3.654.406 3.654 2.001 0 1.189-1.276 1.943-3.219 1.943-2.262 0-3.596-1.102-3.712-2.639h-3.074zM47.274 21h3.132V.7h-3.132V21zm19.775-2.726c-.639 0-.958-.203-.958-.957v-5.945c0-3.509-2.261-5.394-6.205-5.394-3.742 0-6.236 1.798-6.555 4.698h3.075c.232-1.305 1.479-2.175 3.334-2.175 2.06 0 3.248 1.015 3.248 2.668v.899h-3.74c-4.148 0-6.351 1.711-6.351 4.756 0 2.755 2.261 4.35 5.51 4.35 2.407 0 3.915-1.044 4.9-2.552 0 1.479.697 2.378 2.727 2.378h1.652v-2.726h-.638zm-4.06-3.364c-.03 2.291-1.537 3.828-4.147 3.828-1.712 0-2.755-.87-2.755-2.117 0-1.508 1.072-2.233 3.015-2.233h3.887v.522zm20.841 6.264c4.524 0 7.57-3.045 7.57-7.598 0-4.524-3.046-7.598-7.57-7.598-4.524 0-7.569 3.074-7.569 7.598 0 4.553 3.045 7.598 7.57 7.598zm0-2.668c-2.639 0-4.35-2.059-4.35-4.93 0-2.871 1.711-4.93 4.35-4.93 2.64 0 4.38 2.059 4.38 4.93 0 2.871-1.74 4.93-4.38 4.93zm17.918-12.528c-2.407 0-3.828.957-4.756 2.117l-.348-1.943h-2.726V21h3.132v-7.482c0-3.016 1.479-4.843 3.973-4.843 2.349 0 3.538 1.508 3.538 4.321V21h3.161v-8.265c0-4.959-2.697-6.757-5.974-6.757zm17.315 10.991c0 2.697 1.218 4.031 4.06 4.031h2.9v-2.755h-2.204c-1.189 0-1.595-.435-1.595-1.595V8.907h3.625V6.152h-3.625V2.005h-3.161v4.147h-2.581v2.755h2.581v8.062zm16.464-10.817c-2.436 0-3.625.986-4.379 2.233l-.348-2.233h-2.784V21h3.132v-7.453c0-2.291.899-4.466 3.683-4.466h1.392V6.152h-.696zm15.746 12.122c-.638 0-.957-.203-.957-.957v-5.945c0-3.509-2.262-5.394-6.206-5.394-3.741 0-6.235 1.798-6.554 4.698h3.074c.232-1.305 1.479-2.175 3.335-2.175 2.059 0 3.248 1.015 3.248 2.668v.899h-3.741c-4.147 0-6.351 1.711-6.351 4.756 0 2.755 2.262 4.35 5.51 4.35 2.407 0 3.915-1.044 4.901-2.552 0 1.479.696 2.378 2.726 2.378h1.653v-2.726h-.638zm-4.06-3.364c-.029 2.291-1.537 3.828-4.147 3.828-1.711 0-2.755-.87-2.755-2.117 0-1.508 1.073-2.233 3.016-2.233h3.886v.522zm13.106 6.264c3.799 0 6.322-2.117 6.902-5.481h-3.306c-.377 1.711-1.653 2.813-3.567 2.813-2.523 0-4.176-2.001-4.176-4.901 0-2.929 1.653-4.959 4.176-4.959 1.943 0 3.19 1.073 3.596 2.813h3.277c-.609-3.364-2.987-5.481-6.815-5.481-4.495 0-7.453 3.045-7.453 7.627 0 4.64 2.871 7.569 7.366 7.569zm9.299-.174h3.132v-3.77l2.668-2.784L179.797 21h3.712l-5.945-8.845 5.597-6.003h-3.683l-6.728 7.192V.7h-3.132V21zm23.899-4.031c0 2.697 1.218 4.031 4.06 4.031h2.9v-2.755h-2.204c-1.189 0-1.595-.435-1.595-1.595V8.907h3.625V6.152h-3.625V2.005h-3.161v4.147h-2.581v2.755h2.581v8.062zm15.659 4.205c4.524 0 7.569-3.045 7.569-7.598 0-4.524-3.045-7.598-7.569-7.598s-7.569 3.074-7.569 7.598c0 4.553 3.045 7.598 7.569 7.598zm0-2.668c-2.639 0-4.35-2.059-4.35-4.93 0-2.871 1.711-4.93 4.35-4.93 2.639 0 4.379 2.059 4.379 4.93 0 2.871-1.74 4.93-4.379 4.93zM9.483 40.978c-2.291 0-3.828 1.044-4.814 2.378V35.7H1.537V56h2.726l.377-2.146c.928 1.334 2.523 2.32 4.843 2.32 4.06 0 7.018-3.045 7.018-7.598 0-4.785-2.958-7.598-7.018-7.598zm-.522 12.557c-2.61 0-4.321-2.059-4.321-4.988 0-2.871 1.711-4.901 4.321-4.901 2.61 0 4.35 2.03 4.35 4.93 0 2.929-1.74 4.959-4.35 4.959zm17.097 2.639c3.683 0 6.177-2.233 6.699-5.162h-3.132c-.435 1.653-1.827 2.61-3.741 2.61-2.465 0-4.06-1.653-4.147-4.176v-.203H32.93c.058-.406.087-.812.087-1.189-.087-4.35-2.958-7.076-7.25-7.076-4.38 0-7.308 3.045-7.308 7.627 0 4.553 2.929 7.569 7.598 7.569zm-4.205-9.222c.232-2.117 1.943-3.451 3.944-3.451 2.175 0 3.712 1.247 3.973 3.451h-7.917zm27.269 6.322c-.638 0-.957-.203-.957-.957v-5.945c0-3.509-2.262-5.394-6.206-5.394-3.741 0-6.235 1.798-6.554 4.698h3.074c.232-1.305 1.479-2.175 3.335-2.175 2.059 0 3.248 1.015 3.248 2.668v.899H41.32c-4.147 0-6.351 1.711-6.351 4.756 0 2.755 2.262 4.35 5.51 4.35 2.407 0 3.915-1.044 4.9-2.552 0 1.479.697 2.378 2.727 2.378h1.653v-2.726h-.638zm-4.06-3.364c-.03 2.291-1.537 3.828-4.147 3.828-1.711 0-2.755-.87-2.755-2.117 0-1.508 1.073-2.233 3.016-2.233h3.886v.522zm7.477 2.059c0 2.697 1.218 4.031 4.06 4.031h2.9v-2.755h-2.204c-1.19 0-1.595-.435-1.595-1.595v-7.743h3.625v-2.755H55.7v-4.147h-3.161v4.147h-2.581v2.755h2.58v8.062zm23.419 4.205c3.683 0 6.177-2.233 6.699-5.162h-3.132c-.435 1.653-1.827 2.61-3.741 2.61-2.465 0-4.06-1.653-4.147-4.176v-.203h11.194c.058-.406.087-.812.087-1.189-.087-4.35-2.958-7.076-7.25-7.076-4.379 0-7.308 3.045-7.308 7.627 0 4.553 2.929 7.569 7.598 7.569zm-4.205-9.222c.232-2.117 1.943-3.451 3.944-3.451 2.175 0 3.712 1.247 3.973 3.451h-7.917zM83.233 56h3.451l3.915-5.394L94.485 56h3.654l-5.597-7.598 5.278-7.25h-3.45l-3.626 5.017-3.538-5.017h-3.654l5.25 7.25L83.232 56zm24.38-15.022c-2.32 0-3.857 1.073-4.843 2.378l-.377-2.204h-2.726V61.8h3.132v-7.888c.928 1.334 2.523 2.262 4.814 2.262 4.06 0 7.018-3.016 7.018-7.598 0-4.756-2.958-7.598-7.018-7.598zm-.522 12.557c-2.61 0-4.321-2.059-4.321-5.017 0-2.871 1.711-4.872 4.321-4.872 2.61 0 4.35 2.001 4.35 4.93 0 2.9-1.74 4.959-4.35 4.959zm17.097 2.639c3.683 0 6.177-2.233 6.699-5.162h-3.132c-.435 1.653-1.827 2.61-3.741 2.61-2.465 0-4.06-1.653-4.147-4.176v-.203h11.194c.058-.406.087-.812.087-1.189-.087-4.35-2.958-7.076-7.25-7.076-4.379 0-7.308 3.045-7.308 7.627 0 4.553 2.929 7.569 7.598 7.569zm-4.205-9.222c.232-2.117 1.943-3.451 3.944-3.451 2.175 0 3.712 1.247 3.973 3.451h-7.917zm20.512 9.222c3.799 0 6.322-2.117 6.902-5.481h-3.306c-.377 1.711-1.653 2.813-3.567 2.813-2.523 0-4.176-2.001-4.176-4.901 0-2.929 1.653-4.959 4.176-4.959 1.943 0 3.19 1.073 3.596 2.813h3.277c-.609-3.364-2.987-5.481-6.815-5.481-4.495 0-7.453 3.045-7.453 7.627 0 4.64 2.871 7.569 7.366 7.569zm10.372-4.205c0 2.697 1.218 4.031 4.06 4.031h2.9v-2.755h-2.204c-1.189 0-1.595-.435-1.595-1.595v-7.743h3.625v-2.755h-3.625v-4.147h-3.161v4.147h-2.581v2.755h2.581v8.062zm22.354 1.305c-.638 0-.957-.203-.957-.957v-5.945c0-3.509-2.262-5.394-6.206-5.394-3.741 0-6.235 1.798-6.554 4.698h3.074c.232-1.305 1.479-2.175 3.335-2.175 2.059 0 3.248 1.015 3.248 2.668v.899h-3.741c-4.147 0-6.351 1.711-6.351 4.756 0 2.755 2.262 4.35 5.51 4.35 2.407 0 3.915-1.044 4.901-2.552 0 1.479.696 2.378 2.726 2.378h1.653v-2.726h-.638zm-4.06-3.364c-.029 2.291-1.537 3.828-4.147 3.828-1.711 0-2.755-.87-2.755-2.117 0-1.508 1.073-2.233 3.016-2.233h3.886v.522zm7.477 2.059c0 2.697 1.218 4.031 4.06 4.031h2.9v-2.755h-2.204c-1.189 0-1.595-.435-1.595-1.595v-7.743h3.625v-2.755h-3.625v-4.147h-3.161v4.147h-2.581v2.755h2.581v8.062zm10.548-12.905c1.073 0 1.914-.783 1.914-1.885 0-1.102-.841-1.885-1.914-1.885s-1.914.783-1.914 1.885c0 1.102.841 1.885 1.914 1.885zM185.591 56h3.132V41.152h-3.132V56zm13.22.174c4.524 0 7.569-3.045 7.569-7.598 0-4.524-3.045-7.598-7.569-7.598s-7.569 3.074-7.569 7.598c0 4.553 3.045 7.598 7.569 7.598zm0-2.668c-2.639 0-4.35-2.059-4.35-4.93 0-2.871 1.711-4.93 4.35-4.93 2.639 0 4.379 2.059 4.379 4.93 0 2.871-1.74 4.93-4.379 4.93zm17.917-12.528c-2.407 0-3.828.957-4.756 2.117l-.348-1.943h-2.726V56h3.132v-7.482c0-3.016 1.479-4.843 3.973-4.843 2.349 0 3.538 1.508 3.538 4.321V56h3.161v-8.265c0-4.959-2.697-6.757-5.974-6.757zm8.185 10.121c.087 3.219 2.813 5.075 6.786 5.075 3.596 0 6.293-1.798 6.293-4.64 0-3.306-2.755-4.002-6.148-4.408-2.146-.232-3.567-.406-3.567-1.798 0-1.189 1.218-1.943 3.074-1.943 1.856 0 3.132.957 3.306 2.32h3.074c-.203-3.045-2.784-4.727-6.438-4.727-3.567-.029-6.09 1.798-6.09 4.611 0 3.074 2.668 3.799 6.061 4.205 2.291.29 3.654.406 3.654 2.001 0 1.189-1.276 1.943-3.219 1.943-2.262 0-3.596-1.102-3.712-2.639h-3.074zm17.264-8.758c0-2.407 1.45-4.031 3.683-4.031 1.943 0 3.248 1.16 3.248 2.813 0 1.392-.754 2.32-2.059 3.19-1.74 1.131-3.103 2.088-3.103 4.437v.928h2.958v-.58c0-1.45.986-2.204 2.552-3.277 1.508-1.073 2.9-2.349 2.9-5.017 0-3.045-2.494-5.278-6.525-5.278-4.321 0-6.844 3.045-6.844 6.815h3.19zm1.334 11.89c0 1.16.87 1.943 2.001 1.943 1.131 0 1.972-.783 1.972-1.943 0-1.16-.841-1.943-1.972-1.943s-2.001.783-2.001 1.943z" fill="#000"/></svg>