<svg width="133" height="47" viewBox="0 0 133 47" fill="none" xmlns="http://www.w3.org/2000/svg"><path d="M37.407.272C32.053.245 26.995 3.77 26.995 9.985c0 5.327 4.52 9.659 10.09 9.659 3.174 0 6.107-1.05 8.367-2.852V8.559h-8.045v3.605h3.229v1.803a6.987 6.987 0 01-3.552.942c-2.825 0-4.789-2.207-4.789-4.924 0-3.148 2.395-5.031 5.112-5.031a6.31 6.31 0 014.117 1.533l3.309-3.47C42.734 1.214 40.07.299 37.407.272zM58.708.3c-5.57 0-10.09 4.332-10.09 9.686 0 5.327 4.52 9.659 10.09 9.659s10.09-4.332 10.09-9.659c0-5.354-4.52-9.686-10.09-9.686zm0 4.736c2.825 0 4.816 2.206 4.816 4.95 0 2.717-1.991 4.924-4.816 4.924-2.825 0-4.789-2.207-4.789-4.924 0-2.744 1.964-4.95 4.789-4.95zm18.496 9.793V.54h-5.058v18.834h14.287v-4.547h-9.229zM88.988.568v18.807h8.071c5.57 0 10.09-4.063 10.09-9.39 0-5.354-4.52-9.444-10.09-9.444l-8.071.027zm5.058 4.52h2.825c2.798 0 5.085 2.099 5.085 4.87 0 2.798-2.287 4.897-5.085 4.897h-2.825V5.088zM16.922 31.873v-4.332H.913v4.332h5.462v14.502h5.085V31.873h5.462zm2.544-4.305v18.807h5.058v-5.731H27.538l3.659 5.73h5.838l-4.224-6.403c2.61-.887 3.713-2.798 3.713-5.865 0-4.6-2.448-6.538-8.583-6.538h-8.475zm5.058 4.547h3.66c2.233 0 3.067.7 3.067 2.314 0 1.641-.834 2.314-3.068 2.314h-3.659v-4.628zm35.382 14.26L52.399 27.54h-6.645l-7.426 18.834h6.053l1.211-3.283h7.05l1.21 3.283h6.054zM46.91 39.057l2.179-5.866 2.18 5.866h-4.36zm15.54-11.489v18.807h8.071c5.57 0 10.09-4.063 10.09-9.39 0-5.354-4.52-9.444-10.09-9.444l-8.071.027zm5.058 4.52h2.825c2.798 0 5.085 2.099 5.085 4.87 0 2.798-2.287 4.897-5.085 4.897h-2.825v-9.767zm21.492 14.287V27.568h-5.058v18.807h5.058zm21.499 0V27.54h-4.978v10.52l-7.587-10.52H92.69v18.834h4.977V35.882l7.587 10.493h5.247zm13.586-19.103c-5.354-.026-10.412 3.498-10.412 9.713 0 5.327 4.52 9.659 10.089 9.659 3.175 0 6.107-1.05 8.367-2.852v-8.233h-8.044v3.605h3.228v1.803a6.985 6.985 0 01-3.551.942c-2.825 0-4.789-2.207-4.789-4.924 0-3.148 2.394-5.031 5.112-5.031 1.453 0 2.932.511 4.116 1.533l3.309-3.47c-2.098-1.803-4.762-2.718-7.425-2.745z" fill="#09B45B"/></svg>