<svg width="128" height="56" viewBox="0 0 128 56" fill="none" xmlns="http://www.w3.org/2000/svg"><path d="M5.445 11.09c2.1 0 3.345-1.155 3.795-2.415L9.285 11h.705V5.525H5.76v.75h3.45v.45c0 2.055-1.425 3.615-3.75 3.615-2.355 0-3.915-1.89-3.915-4.59 0-2.685 1.56-4.59 3.99-4.59 1.77 0 3 .915 3.435 2.565h.87C9.405 1.625 7.77.41 5.565.41 2.595.41.705 2.6.705 5.75c0 3.165 1.935 5.34 4.74 5.34zm9.904 0c1.665 0 2.94-1.08 3.27-2.61h-.78c-.3 1.185-1.305 1.92-2.55 1.92-1.695 0-2.76-1.29-2.79-3.06v-.135h6.21c0-.105.015-.225.015-.315-.075-2.265-1.47-3.585-3.51-3.585-2.085 0-3.51 1.59-3.51 3.84 0 2.385 1.485 3.945 3.645 3.945zm-2.79-4.53c.12-1.545 1.275-2.58 2.67-2.58 1.485 0 2.55.915 2.67 2.58h-5.34zm8.13 2.67c0 1.215.495 1.77 1.785 1.77h1.11v-.705h-1.05c-.795 0-1.08-.3-1.08-1.08V4.1h2.055v-.705h-2.055v-2.13h-.765v2.13h-1.44V4.1h1.44v5.13zm14.297-4.065c-.465-1.125-1.485-1.86-2.895-1.86-2.085 0-3.585 1.575-3.585 3.885 0 2.4 1.5 3.9 3.585 3.9 1.425 0 2.43-.75 2.91-1.935v1.35c0 2.025-.96 2.895-2.79 2.895-1.425 0-2.415-.645-2.655-1.8h-.795c.24 1.62 1.545 2.49 3.39 2.49 2.46 0 3.615-1.17 3.615-3.555v-7.14h-.66l-.12 1.77zM32.15 10.4c-1.695 0-2.865-1.32-2.865-3.21s1.17-3.21 2.865-3.21c1.695 0 2.865 1.32 2.865 3.225 0 1.875-1.17 3.195-2.865 3.195zm8.774.69c2.145 0 3.66-1.59 3.66-3.9 0-2.295-1.515-3.885-3.66-3.885-2.145 0-3.645 1.59-3.645 3.885 0 2.31 1.5 3.9 3.645 3.9zm0-.69c-1.695 0-2.865-1.32-2.865-3.21 0-1.875 1.17-3.21 2.865-3.21 1.695 0 2.865 1.335 2.865 3.21 0 1.89-1.17 3.21-2.865 3.21zm5.18.6h.765V.5h-.765V11zm8.774-5.895c-.465-1.08-1.485-1.8-2.91-1.8-2.085 0-3.585 1.59-3.585 3.885 0 2.4 1.5 3.9 3.585 3.9 1.425 0 2.415-.765 2.895-1.83l.12 1.74h.66V.5h-.765v4.605zm-2.85 5.295c-1.695 0-2.865-1.32-2.865-3.21 0-1.875 1.17-3.21 2.865-3.21 1.695 0 2.865 1.335 2.865 3.225 0 1.875-1.17 3.195-2.865 3.195zm14.077.69c2.25 0 3.84-1.215 4.29-3.33h-.855c-.45 1.68-1.665 2.58-3.45 2.58-2.43 0-3.96-1.905-3.96-4.59 0-2.685 1.56-4.59 3.99-4.59 1.755 0 2.985.915 3.45 2.565h.855C69.96 1.625 68.37.41 66.166.41 63.21.41 61.29 2.6 61.29 5.75c0 3.18 1.875 5.34 4.815 5.34zM72.14 11h.81V6.155h4.53v-.75h-4.53V1.25h5.43V.5h-6.24V11zm10.72 0c3.33 0 5.28-2.07 5.28-5.25 0-3.195-1.95-5.25-5.28-5.25H79.8V11h3.06zm-2.25-9.75h2.25c2.866 0 4.456 1.74 4.456 4.5 0 2.745-1.59 4.5-4.455 4.5h-2.25v-9zM.556 29.66c.06 1.575 1.335 2.43 3.24 2.43 1.635 0 2.955-.825 2.955-2.175 0-1.605-1.41-1.92-3.045-2.145-1.185-.165-2.235-.3-2.235-1.365 0-.87.855-1.44 2.145-1.44 1.215 0 2.085.585 2.22 1.575h.78c-.135-1.485-1.35-2.235-3-2.235-1.695-.015-2.91.855-2.91 2.16 0 1.53 1.41 1.815 2.97 2.025 1.275.18 2.31.345 2.31 1.47 0 .9-.945 1.47-2.19 1.47-1.455 0-2.4-.675-2.46-1.77h-.78zm11.33-5.355c-1.425 0-2.415.765-2.895 1.83l-.12-1.74h-.66V35h.765v-4.755c.435 1.11 1.47 1.845 2.91 1.845 2.085 0 3.585-1.59 3.585-3.9 0-2.385-1.5-3.885-3.585-3.885zm-.06 7.095c-1.695 0-2.865-1.32-2.865-3.225 0-1.86 1.17-3.195 2.865-3.195 1.695 0 2.865 1.335 2.865 3.21 0 1.89-1.17 3.21-2.865 3.21zm8.264-7.005c-1.41 0-2.01.675-2.325 1.515l-.12-1.515h-.66V32h.765v-3.855c0-1.545.405-3.015 2.19-3.015h.555v-.735h-.405zm4.357 7.695c1.664 0 2.94-1.08 3.27-2.61h-.78c-.3 1.185-1.305 1.92-2.55 1.92-1.695 0-2.76-1.29-2.79-3.06v-.135h6.21c0-.105.014-.225.014-.315-.075-2.265-1.47-3.585-3.51-3.585-2.084 0-3.51 1.59-3.51 3.84 0 2.385 1.485 3.945 3.645 3.945zm-2.79-4.53c.12-1.545 1.274-2.58 2.67-2.58 1.485 0 2.55.915 2.67 2.58h-5.34zm14.367 3.735c-.45 0-.675-.15-.675-.735v-3.54c0-1.74-1.065-2.715-2.97-2.715-1.74 0-2.895.84-3.09 2.22h.765c.195-.93 1.005-1.545 2.295-1.545 1.425 0 2.235.75 2.235 2.01v.66h-2.58c-1.95 0-3 .84-3 2.265 0 1.35 1.065 2.175 2.685 2.175 1.545 0 2.46-.705 2.925-1.65v.27c-.03.9.345 1.29 1.245 1.29h.45v-.705h-.285zm-1.44-2.37c0 1.455-1.035 2.505-2.835 2.505-1.215 0-1.965-.615-1.965-1.56 0-1.005.75-1.56 2.16-1.56h2.64v.615zm8.84-2.82c-.465-1.08-1.485-1.8-2.91-1.8-2.084 0-3.584 1.59-3.584 3.885 0 2.4 1.5 3.9 3.584 3.9 1.425 0 2.416-.765 2.895-1.83l.12 1.74h.66V21.5h-.765v4.605zm-2.85 5.295c-1.694 0-2.864-1.32-2.864-3.21 0-1.875 1.17-3.21 2.864-3.21 1.696 0 2.865 1.335 2.865 3.225 0 1.875-1.17 3.195-2.864 3.195zm5.07-1.74c.06 1.575 1.335 2.43 3.24 2.43 1.635 0 2.955-.825 2.955-2.175 0-1.605-1.41-1.92-3.045-2.145-1.185-.165-2.235-.3-2.235-1.365 0-.87.855-1.44 2.145-1.44 1.215 0 2.085.585 2.22 1.575h.78c-.135-1.485-1.35-2.235-3-2.235-1.695-.015-2.91.855-2.91 2.16 0 1.53 1.41 1.815 2.97 2.025 1.275.18 2.31.345 2.31 1.47 0 .9-.945 1.47-2.19 1.47-1.455 0-2.4-.675-2.46-1.77h-.78zM7.59 52.295c-.45 0-.675-.15-.675-.735v-3.54c0-1.74-1.065-2.715-2.97-2.715-1.74 0-2.895.84-3.09 2.22h.765c.195-.93 1.005-1.545 2.295-1.545 1.425 0 2.235.75 2.235 2.01v.66H3.57c-1.95 0-3 .84-3 2.265 0 1.35 1.065 2.175 2.685 2.175 1.545 0 2.46-.705 2.925-1.65v.27c-.03.9.345 1.29 1.245 1.29h.45v-.705H7.59zm-1.44-2.37c0 1.455-1.035 2.505-2.835 2.505-1.215 0-1.965-.615-1.965-1.56 0-1.005.75-1.56 2.16-1.56h2.64v.615zm2.403.735c.06 1.575 1.335 2.43 3.24 2.43 1.635 0 2.955-.825 2.955-2.175 0-1.605-1.41-1.92-3.045-2.145-1.185-.165-2.235-.3-2.235-1.365 0-.87.855-1.44 2.145-1.44 1.215 0 2.085.585 2.22 1.575h.78c-.135-1.485-1.35-2.235-3-2.235-1.695-.015-2.91.855-2.91 2.16 0 1.53 1.41 1.815 2.97 2.025 1.275.18 2.31.345 2.31 1.47 0 .9-.945 1.47-2.19 1.47-1.455 0-2.4-.675-2.46-1.77h-.78zM20.251 53h.765V42.5h-.765V53zm5.923.09c2.145 0 3.66-1.59 3.66-3.9 0-2.295-1.515-3.885-3.66-3.885-2.145 0-3.645 1.59-3.645 3.885 0 2.31 1.5 3.9 3.645 3.9zm0-.69c-1.695 0-2.865-1.32-2.865-3.21 0-1.875 1.17-3.21 2.865-3.21 1.695 0 2.865 1.335 2.865 3.21 0 1.89-1.17 3.21-2.865 3.21zm6.79.6h.826l2.25-6.39L38.185 53h.825l2.7-7.605h-.78l-2.34 6.69-2.175-6.69h-.705l-2.295 6.69-2.22-6.69h-.81L32.965 53zm20.549-.705c-.45 0-.675-.15-.675-.735v-3.54c0-1.74-1.065-2.715-2.97-2.715-1.74 0-2.895.84-3.09 2.22h.765c.195-.93 1.005-1.545 2.295-1.545 1.425 0 2.235.75 2.235 2.01v.66h-2.58c-1.95 0-3 .84-3 2.265 0 1.35 1.065 2.175 2.685 2.175 1.545 0 2.46-.705 2.925-1.65v.27c-.03.9.345 1.29 1.245 1.29h.45v-.705h-.285zm-1.44-2.37c0 1.455-1.035 2.505-2.835 2.505-1.215 0-1.965-.615-1.965-1.56 0-1.005.75-1.56 2.16-1.56h2.64v.615zm2.403.735c.06 1.575 1.335 2.43 3.24 2.43 1.635 0 2.955-.825 2.955-2.175 0-1.605-1.41-1.92-3.045-2.145-1.185-.165-2.235-.3-2.235-1.365 0-.87.855-1.44 2.145-1.44 1.215 0 2.085.585 2.22 1.575h.78c-.135-1.485-1.35-2.235-3-2.235-1.695-.015-2.91.855-2.91 2.16 0 1.53 1.41 1.815 2.97 2.025 1.275.18 2.31.345 2.31 1.47 0 .9-.945 1.47-2.19 1.47-1.455 0-2.4-.675-2.46-1.77h-.78zm11.517-2.67c0 3.075 1.515 5.1 3.795 5.1 2.25 0 3.78-2.025 3.78-5.1v-.48c0-2.985-1.53-5.1-3.78-5.1-2.28 0-3.795 2.115-3.795 5.1v.48zm6.78-.03c0 2.67-1.185 4.41-2.985 4.41-1.815 0-3-1.74-3-4.41v-.42c0-2.67 1.185-4.41 3-4.41 1.8 0 2.985 1.74 2.985 4.41v.42zm1.572 4.545c0 .345.24.57.57.57.33 0 .57-.225.57-.57s-.24-.555-.57-.555c-.33 0-.57.21-.57.555zm5.768-6.465c-1.11 0-2.1.39-2.73 1.275l.285-4.095h5.205v-.72h-5.91l-.375 5.865.75.03c.45-1.23 1.71-1.65 2.67-1.65 1.68 0 2.715 1.185 2.715 2.805 0 1.86-1.335 2.82-2.775 2.82-1.71 0-2.7-1.14-2.82-2.505h-.78c.12 1.74 1.38 3.21 3.6 3.21 1.89 0 3.57-1.23 3.57-3.54 0-2.04-1.365-3.495-3.405-3.495zm12.543-.735c-1.425 0-2.415.765-2.895 1.83l-.12-1.74h-.66V56h.765v-4.755c.435 1.11 1.47 1.845 2.91 1.845 2.085 0 3.585-1.59 3.585-3.9 0-2.385-1.5-3.885-3.585-3.885zm-.06 7.095c-1.695 0-2.865-1.32-2.865-3.225 0-1.86 1.17-3.195 2.865-3.195 1.695 0 2.865 1.335 2.865 3.21 0 1.89-1.17 3.21-2.865 3.21zm8.519.69c2.145 0 3.66-1.59 3.66-3.9 0-2.295-1.515-3.885-3.66-3.885-2.144 0-3.644 1.59-3.644 3.885 0 2.31 1.5 3.9 3.644 3.9zm0-.69c-1.694 0-2.864-1.32-2.864-3.21 0-1.875 1.17-3.21 2.864-3.21 1.695 0 2.865 1.335 2.865 3.21 0 1.89-1.17 3.21-2.865 3.21zm5.571-8.61c.3 0 .54-.225.54-.54 0-.315-.24-.54-.54-.54-.3 0-.54.225-.54.54 0 .315.24.54.54.54zm-.39 9.21h.765v-7.605h-.765V53zm6.073-7.695c-1.395 0-2.295.72-2.73 1.71l-.12-1.62h-.66V53h.765v-3.75c0-1.98 1.005-3.24 2.625-3.24 1.47 0 2.355.96 2.355 2.76V53h.765v-4.26c0-2.4-1.275-3.435-3-3.435zm5.263 5.925c0 1.215.495 1.77 1.785 1.77h1.11v-.705h-1.05c-.795 0-1.08-.3-1.08-1.08V46.1h2.055v-.705h-2.055v-2.13h-.765v2.13h-1.44v.705h1.44v5.13zm3.714-.57c.06 1.575 1.335 2.43 3.24 2.43 1.635 0 2.955-.825 2.955-2.175 0-1.605-1.41-1.92-3.045-2.145-1.185-.165-2.235-.3-2.235-1.365 0-.87.855-1.44 2.145-1.44 1.215 0 2.085.585 2.22 1.575h.78c-.135-1.485-1.35-2.235-3-2.235-1.695-.015-2.91.855-2.91 2.16 0 1.53 1.41 1.815 2.97 2.025 1.275.18 2.31.345 2.31 1.47 0 .9-.945 1.47-2.19 1.47-1.455 0-2.4-.675-2.46-1.77h-.78z" fill="#000"/></svg>