<svg width="238" height="45" viewBox="0 0 238 45" fill="none" xmlns="http://www.w3.org/2000/svg"><path d="M1.368 14h1.026V.7H1.368V14zm7.985-9.747c-1.767 0-2.907.912-3.458 2.166l-.152-2.052h-.836V14h.969V9.25c0-2.508 1.273-4.104 3.325-4.104 1.862 0 2.983 1.216 2.983 3.496V14h.969V8.604c0-3.04-1.615-4.351-3.8-4.351zm9.995 9.861c2.185 0 3.724-1.254 4.104-3.211h-1.026c-.323 1.425-1.482 2.337-3.078 2.337-2.11 0-3.572-1.653-3.572-4.047 0-2.394 1.444-4.085 3.572-4.085 1.615 0 2.755.912 3.097 2.356h1.007c-.4-1.995-1.9-3.211-4.085-3.211-2.717 0-4.58 2.014-4.58 4.94 0 2.964 1.844 4.921 4.56 4.921zm9.92-9.747c-1.786 0-2.546.855-2.945 1.919l-.152-1.919h-.836V14h.97V9.117c0-1.957.512-3.819 2.773-3.819h.703v-.931h-.513zm5.519 9.747c2.109 0 3.724-1.368 4.142-3.306h-.988c-.38 1.501-1.653 2.432-3.23 2.432-2.147 0-3.496-1.634-3.534-3.876v-.171h7.866c0-.133.019-.285.019-.399-.095-2.869-1.862-4.541-4.446-4.541-2.641 0-4.446 2.014-4.446 4.864 0 3.021 1.88 4.997 4.617 4.997zm-3.534-5.738c.152-1.957 1.615-3.268 3.382-3.268 1.88 0 3.23 1.159 3.382 3.268h-6.764zm18.198 4.731c-.57 0-.855-.19-.855-.931V7.692c0-2.204-1.35-3.439-3.762-3.439-2.204 0-3.667 1.064-3.914 2.812h.969c.247-1.178 1.273-1.957 2.907-1.957 1.805 0 2.83.95 2.83 2.546v.836H44.36c-2.47 0-3.8 1.064-3.8 2.869 0 1.71 1.349 2.755 3.4 2.755 1.958 0 3.117-.893 3.706-2.09v.342c-.038 1.14.437 1.634 1.577 1.634h.57v-.893h-.361zm-1.824-3.002c0 1.843-1.311 3.173-3.591 3.173-1.54 0-2.49-.779-2.49-1.976 0-1.273.95-1.976 2.737-1.976h3.344v.779zm3.044.931c.076 1.995 1.69 3.078 4.104 3.078 2.07 0 3.743-1.045 3.743-2.755 0-2.033-1.786-2.432-3.857-2.717-1.501-.209-2.831-.38-2.831-1.729 0-1.102 1.083-1.824 2.717-1.824 1.539 0 2.64.741 2.812 1.995h.988c-.171-1.881-1.71-2.831-3.8-2.831-2.147-.019-3.686 1.083-3.686 2.736 0 1.938 1.786 2.299 3.762 2.565 1.615.228 2.926.437 2.926 1.862 0 1.14-1.197 1.862-2.774 1.862-1.843 0-3.04-.855-3.116-2.242h-.988zm13.952 3.078c2.109 0 3.724-1.368 4.142-3.306h-.988c-.38 1.501-1.653 2.432-3.23 2.432-2.147 0-3.496-1.634-3.534-3.876v-.171h7.866c0-.133.019-.285.019-.399-.095-2.869-1.862-4.541-4.446-4.541-2.641 0-4.446 2.014-4.446 4.864 0 3.021 1.88 4.997 4.617 4.997zm-3.534-5.738c.152-1.957 1.615-3.268 3.382-3.268 1.88 0 3.23 1.159 3.382 3.268h-6.764zM75.934 14h.969V.7h-.97V14zm7.503.114c2.109 0 3.724-1.368 4.142-3.306h-.988c-.38 1.501-1.653 2.432-3.23 2.432-2.147 0-3.496-1.634-3.534-3.876v-.171h7.866c0-.133.019-.285.019-.399-.095-2.869-1.862-4.541-4.446-4.541-2.641 0-4.446 2.014-4.446 4.864 0 3.021 1.881 4.997 4.617 4.997zm-3.534-5.738c.152-1.957 1.615-3.268 3.382-3.268 1.881 0 3.23 1.159 3.382 3.268h-6.764zM92.013 14h1.158l3.762-9.633h-1.007l-3.306 8.512-3.325-8.512H88.25L92.012 14zm10.09.114c2.109 0 3.724-1.368 4.142-3.306h-.988c-.38 1.501-1.653 2.432-3.23 2.432-2.147 0-3.496-1.634-3.534-3.876v-.171h7.866c0-.133.019-.285.019-.399-.095-2.869-1.862-4.541-4.446-4.541-2.641 0-4.446 2.014-4.446 4.864 0 3.021 1.881 4.997 4.617 4.997zm-3.534-5.738c.152-1.957 1.615-3.268 3.382-3.268 1.881 0 3.23 1.159 3.382 3.268h-6.764zm13.657-4.009c-1.786 0-2.546.855-2.945 1.919l-.152-1.919h-.836V14h.969V9.117c0-1.957.513-3.819 2.774-3.819h.703v-.931h-.513zm10.015 8.74c-.57 0-.855-.19-.855-.931V7.692c0-2.204-1.349-3.439-3.762-3.439-2.204 0-3.667 1.064-3.914 2.812h.969c.247-1.178 1.273-1.957 2.907-1.957 1.805 0 2.831.95 2.831 2.546v.836h-3.268c-2.47 0-3.8 1.064-3.8 2.869 0 1.71 1.349 2.755 3.401 2.755 1.957 0 3.116-.893 3.705-2.09v.342c-.038 1.14.437 1.634 1.577 1.634h.57v-.893h-.361zm-1.824-3.002c0 1.843-1.311 3.173-3.591 3.173-1.539 0-2.489-.779-2.489-1.976 0-1.273.95-1.976 2.736-1.976h3.344v.779zm11.328-3.496c-.589-1.425-1.881-2.356-3.667-2.356-2.641 0-4.541 1.995-4.541 4.921 0 3.04 1.9 4.94 4.541 4.94 1.805 0 3.078-.95 3.686-2.451v1.71c0 2.565-1.216 3.667-3.534 3.667-1.805 0-3.059-.817-3.363-2.28h-1.007c.304 2.052 1.957 3.154 4.294 3.154 3.116 0 4.579-1.482 4.579-4.503V4.367h-.836l-.152 2.242zm-3.591 6.631c-2.147 0-3.629-1.672-3.629-4.066s1.482-4.066 3.629-4.066c2.147 0 3.629 1.672 3.629 4.085 0 2.375-1.482 4.047-3.629 4.047zm11.114.874c2.109 0 3.724-1.368 4.142-3.306h-.988c-.38 1.501-1.653 2.432-3.23 2.432-2.147 0-3.496-1.634-3.534-3.876v-.171h7.866c0-.133.019-.285.019-.399-.095-2.869-1.862-4.541-4.446-4.541-2.641 0-4.446 2.014-4.446 4.864 0 3.021 1.881 4.997 4.617 4.997zm-3.534-5.738c.152-1.957 1.615-3.268 3.382-3.268 1.881 0 3.23 1.159 3.382 3.268h-6.764zm8.924 4.997c0 .437.304.722.722.722s.722-.285.722-.722-.304-.703-.722-.703-.722.266-.722.703zM161 14v-.95h-6.365V.7h-1.026V14H161zm5.172.114c2.717 0 4.636-2.014 4.636-4.94 0-2.907-1.919-4.921-4.636-4.921s-4.617 2.014-4.617 4.921c0 2.926 1.9 4.94 4.617 4.94zm0-.874c-2.147 0-3.629-1.672-3.629-4.066 0-2.375 1.482-4.066 3.629-4.066 2.147 0 3.629 1.691 3.629 4.066 0 2.394-1.482 4.066-3.629 4.066zm8.602.76h1.045l2.85-8.094L181.386 14h1.045l3.42-9.633h-.988l-2.964 8.474-2.755-8.474h-.893l-2.907 8.474-2.812-8.474h-1.026L174.774 14zm16.392.114c2.109 0 3.724-1.368 4.142-3.306h-.988c-.38 1.501-1.653 2.432-3.23 2.432-2.147 0-3.496-1.634-3.534-3.876v-.171h7.866c0-.133.019-.285.019-.399-.095-2.869-1.862-4.541-4.446-4.541-2.641 0-4.446 2.014-4.446 4.864 0 3.021 1.881 4.997 4.617 4.997zm-3.534-5.738c.152-1.957 1.615-3.268 3.382-3.268 1.881 0 3.23 1.159 3.382 3.268h-6.764zm13.657-4.009c-1.786 0-2.546.855-2.945 1.919l-.152-1.919h-.836V14h.969V9.117c0-1.957.513-3.819 2.774-3.819h.703v-.931h-.513zm11.003 0c-1.786 0-2.546.855-2.945 1.919l-.152-1.919h-.836V14h.969V9.117c0-1.957.513-3.819 2.774-3.819h.703v-.931h-.513zm2.443-2.033a.67.67 0 00.684-.684.67.67 0 00-.684-.684.67.67 0 00-.684.684.67.67 0 00.684.684zM214.241 14h.969V4.367h-.969V14zm2.81-2.964c.076 1.995 1.691 3.078 4.104 3.078 2.071 0 3.743-1.045 3.743-2.755 0-2.033-1.786-2.432-3.857-2.717-1.501-.209-2.831-.38-2.831-1.729 0-1.102 1.083-1.824 2.717-1.824 1.539 0 2.641.741 2.812 1.995h.988c-.171-1.881-1.71-2.831-3.8-2.831-2.147-.019-3.686 1.083-3.686 2.736 0 1.938 1.786 2.299 3.762 2.565 1.615.228 2.926.437 2.926 1.862 0 1.14-1.197 1.862-2.774 1.862-1.843 0-3.04-.855-3.116-2.242h-.988zM226.746 14h.969v-2.603l2.261-2.318L233.662 14h1.178l-4.199-5.624 3.876-4.009h-1.197l-5.605 5.776V.7h-.969V14zm9.238-.627c0 .437.304.722.722.722s.722-.285.722-.722-.304-.703-.722-.703-.722.266-.722.703zM.874 36.915c.133 2.508 1.957 4.199 4.94 4.199 2.793 0 4.636-1.52 4.636-3.762 0-2.527-2.242-3.173-4.446-3.553-2.033-.342-3.8-.684-3.8-2.584 0-1.729 1.349-2.698 3.439-2.698 1.995 0 3.363 1.121 3.591 2.85h1.045c-.19-2.28-1.919-3.781-4.636-3.781-2.698 0-4.465 1.425-4.465 3.686 0 2.527 2.166 3.097 4.294 3.458 2.09.361 3.952.779 3.952 2.717 0 1.71-1.444 2.736-3.591 2.736-2.242 0-3.762-1.292-3.895-3.268H.874zm22.357-5.662c-1.767 0-2.907.988-3.458 2.413-.456-1.596-1.653-2.413-3.173-2.413-1.653 0-2.641.969-3.135 2.166l-.152-2.052h-.836V41h.969v-4.902c0-2.356 1.14-3.952 2.983-3.952 1.672 0 2.717 1.178 2.717 3.401V41h.969v-5.244c.057-2.204 1.197-3.61 3.002-3.61 1.672 0 2.679 1.121 2.679 3.306V41h.988v-5.586c0-2.907-1.54-4.161-3.553-4.161zm14.178 8.854c-.57 0-.855-.19-.855-.931v-4.484c0-2.204-1.35-3.439-3.762-3.439-2.204 0-3.667 1.064-3.914 2.812h.969c.247-1.178 1.273-1.957 2.907-1.957 1.805 0 2.83.95 2.83 2.546v.836h-3.267c-2.47 0-3.8 1.064-3.8 2.869 0 1.71 1.349 2.755 3.4 2.755 1.958 0 3.117-.893 3.706-2.09v.342C35.585 40.506 36.06 41 37.2 41h.57v-.893h-.361zm-1.824-3.002c0 1.843-1.311 3.173-3.591 3.173-1.54 0-2.49-.779-2.49-1.976 0-1.273.95-1.976 2.737-1.976h3.344v.779zm7.414-5.738c-1.786 0-2.546.855-2.945 1.919l-.152-1.919h-.836V41h.969v-4.883c0-1.957.513-3.819 2.774-3.819h.703v-.931h-.513zm2.93 7.391c0 1.539.627 2.242 2.261 2.242h1.406v-.893h-1.33c-1.007 0-1.368-.38-1.368-1.368V32.26h2.603v-.893h-2.603v-2.698h-.969v2.698h-1.824v.893h1.824v6.498zm9.1 2.356c2.11 0 3.725-1.368 4.143-3.306h-.988c-.38 1.501-1.653 2.432-3.23 2.432-2.147 0-3.496-1.634-3.534-3.876v-.171h7.866c0-.133.019-.285.019-.399-.095-2.869-1.862-4.541-4.446-4.541-2.641 0-4.446 2.014-4.446 4.864 0 3.021 1.88 4.997 4.617 4.997zm-3.533-5.738c.152-1.957 1.615-3.268 3.382-3.268 1.88 0 3.23 1.159 3.382 3.268h-6.764zm13.657-4.009c-1.786 0-2.546.855-2.945 1.919l-.152-1.919h-.836V41h.97v-4.883c0-1.957.512-3.819 2.773-3.819h.703v-.931h-.513zm7.792 7.391c0 1.539.627 2.242 2.261 2.242h1.406v-.893h-1.33c-1.007 0-1.368-.38-1.368-1.368V32.26h2.603v-.893h-2.603v-2.698h-.969v2.698h-1.824v.893h1.824v6.498zm9.074-7.391c-1.786 0-2.546.855-2.945 1.919l-.152-1.919h-.836V41h.97v-4.883c0-1.957.512-3.819 2.773-3.819h.703v-.931h-.513zm10.015 8.74c-.57 0-.855-.19-.855-.931v-4.484c0-2.204-1.35-3.439-3.762-3.439-2.204 0-3.667 1.064-3.914 2.812h.969c.247-1.178 1.273-1.957 2.907-1.957 1.805 0 2.83.95 2.83 2.546v.836h-3.267c-2.47 0-3.8 1.064-3.8 2.869 0 1.71 1.349 2.755 3.4 2.755 1.958 0 3.117-.893 3.706-2.09v.342c-.038 1.14.437 1.634 1.577 1.634h.57v-.893h-.361zm-1.824-3.002c0 1.843-1.311 3.173-3.591 3.173-1.54 0-2.49-.779-2.49-1.976 0-1.273.95-1.976 2.737-1.976h3.344v.779zm11.198-3.572c-.589-1.368-1.88-2.28-3.686-2.28-2.64 0-4.54 2.014-4.54 4.921 0 3.04 1.9 4.94 4.54 4.94 1.805 0 3.059-.969 3.667-2.318l.152 2.204h.836V27.7h-.969v5.833zm-3.61 6.707c-2.147 0-3.629-1.672-3.629-4.066 0-2.375 1.482-4.066 3.63-4.066 2.146 0 3.628 1.691 3.628 4.085 0 2.375-1.482 4.047-3.629 4.047zm7.353-10.906a.67.67 0 00.684-.684.67.67 0 00-.684-.684.67.67 0 00-.684.684.67.67 0 00.684.684zM104.657 41h.969v-9.633h-.969V41zm7.693-9.747c-1.767 0-2.907.912-3.458 2.166l-.152-2.052h-.836V41h.969v-4.75c0-2.508 1.273-4.104 3.325-4.104 1.862 0 2.983 1.216 2.983 3.496V41h.969v-5.396c0-3.04-1.615-4.351-3.8-4.351zm13.791 2.356c-.589-1.425-1.881-2.356-3.667-2.356-2.641 0-4.541 1.995-4.541 4.921 0 3.04 1.9 4.94 4.541 4.94 1.805 0 3.078-.95 3.686-2.451v1.71c0 2.565-1.216 3.667-3.534 3.667-1.805 0-3.059-.817-3.363-2.28h-1.007c.304 2.052 1.957 3.154 4.294 3.154 3.116 0 4.579-1.482 4.579-4.503v-9.044h-.836l-.152 2.242zm-3.591 6.631c-2.147 0-3.629-1.672-3.629-4.066s1.482-4.066 3.629-4.066c2.147 0 3.629 1.672 3.629 4.085 0 2.375-1.482 4.047-3.629 4.047zm6.745.133c0 .437.304.722.722.722s.722-.285.722-.722-.304-.703-.722-.703-.722.266-.722.703z" fill="#000"/></svg>