<svg width="183" height="28" viewBox="0 0 183 28" fill="none" xmlns="http://www.w3.org/2000/svg"><rect width="183" height="28" rx="14" fill="#000"/><path d="M29.11 19v-1.2h-4.785V8.5H23.02V19h6.09zm4.257.09c1.77 0 3.03-1.125 3.33-2.655h-1.245c-.255.99-1.095 1.56-2.175 1.56-1.455 0-2.37-1.02-2.415-2.475v-.105h5.94c.015-.18.03-.36.03-.525-.06-2.265-1.47-3.63-3.63-3.63s-3.63 1.59-3.63 3.915c0 2.34 1.5 3.915 3.795 3.915zm-2.43-4.695c.12-1.245 1.155-2.055 2.28-2.055 1.275 0 2.175.735 2.295 2.055h-4.575zM39.999 19h1.485l2.865-7.65h-1.29l-2.295 6.255-2.31-6.255h-1.32L39.999 19zm8.456.09c1.77 0 3.03-1.125 3.33-2.655H50.54c-.255.99-1.095 1.56-2.175 1.56-1.455 0-2.37-1.02-2.415-2.475v-.105h5.94c.015-.18.03-.36.03-.525-.06-2.265-1.47-3.63-3.63-3.63s-3.63 1.59-3.63 3.915c0 2.34 1.5 3.915 3.795 3.915zm-2.43-4.695c.12-1.245 1.155-2.055 2.28-2.055 1.275 0 2.175.735 2.295 2.055h-4.575zM53.323 19h1.23V8.5h-1.23V19zm12.196-3.825c0 1.725-.84 2.79-2.235 2.79-1.275 0-1.995-.84-1.995-2.43V11.35h-1.23v4.26c0 2.535 1.335 3.48 3.015 3.48 1.26 0 1.995-.54 2.445-1.11l.165 1.02h1.065v-7.65h-1.23v3.825zm6.762-3.915c-1.29 0-2.115.615-2.625 1.32l-.165-1.23h-1.065V22h1.23v-4.17c.465.735 1.335 1.26 2.625 1.26 2.115 0 3.675-1.575 3.675-3.915 0-2.49-1.56-3.915-3.675-3.915zm-.12 6.735c-1.5 0-2.52-1.17-2.52-2.85 0-1.635 1.02-2.79 2.52-2.79 1.515 0 2.535 1.155 2.535 2.82 0 1.665-1.02 2.82-2.535 2.82zm11.346 1.05l-.375.93c-.285.72-.405.9-1.11.9h-1.095V22h1.47c1.08 0 1.365-.48 1.845-1.71l3.525-8.94h-1.305l-2.28 6.105-2.355-6.105h-1.305l2.985 7.695zm8.366.045c2.235 0 3.795-1.59 3.795-3.915s-1.56-3.915-3.795-3.915-3.795 1.59-3.795 3.915 1.56 3.915 3.795 3.915zm0-1.095c-1.515 0-2.535-1.185-2.535-2.82 0-1.635 1.02-2.82 2.535-2.82 1.515 0 2.535 1.185 2.535 2.82 0 1.635-1.02 2.82-2.535 2.82zm10.56-2.82c0 1.725-.84 2.79-2.235 2.79-1.275 0-1.995-.84-1.995-2.43V11.35h-1.23v4.26c0 2.535 1.335 3.48 3.015 3.48 1.26 0 1.995-.54 2.445-1.11l.165 1.02h1.065v-7.65h-1.23v3.825zm6.447-3.825c-1.365 0-1.95.57-2.31 1.155l-.165-1.155h-1.065V19h1.23v-3.9c0-1.215.435-2.55 2.04-2.55h.615v-1.2h-.345zm5.907 5.655c0 1.35.525 1.995 1.995 1.995h1.335v-1.125h-1.215c-.66 0-.885-.24-.885-.885v-4.515h1.98V11.35h-1.98V9.205h-1.23v2.145h-1.38v1.125h1.38v4.53zm7.936-5.655c-1.365 0-1.95.57-2.31 1.155l-.165-1.155h-1.065V19h1.23v-3.9c0-1.215.435-2.55 2.04-2.55h.615v-1.2h-.345zm7.912 6.525c-.345 0-.495-.105-.495-.51V14.02c0-1.785-1.125-2.76-3.075-2.76-1.845 0-3.06.885-3.24 2.385h1.23c.15-.78.87-1.29 1.95-1.29 1.2 0 1.905.6 1.905 1.59v.525h-2.25c-2.01 0-3.075.855-3.075 2.385 0 1.395 1.14 2.235 2.82 2.235 1.32 0 2.085-.585 2.565-1.275.015.75.36 1.185 1.38 1.185h.675v-1.125h-.39zm-1.725-1.995c0 1.275-.885 2.16-2.415 2.16-1.02 0-1.665-.51-1.665-1.26 0-.87.615-1.275 1.71-1.275h2.37v.375zm9.003-3.36c-.465-.735-1.335-1.26-2.625-1.26-2.115 0-3.675 1.575-3.675 3.915 0 2.49 1.56 3.915 3.675 3.915 1.29 0 2.115-.615 2.625-1.32l.165 1.23h1.065V8.5h-1.23v4.02zm-2.505 5.475c-1.515 0-2.535-1.155-2.535-2.82 0-1.665 1.02-2.82 2.535-2.82 1.5 0 2.52 1.17 2.52 2.85 0 1.635-1.02 2.79-2.52 2.79zm6.041-7.935c.45 0 .795-.33.795-.795a.773.773 0 00-.795-.795c-.45 0-.795.33-.795.795s.345.795.795.795zm-.63 8.94h1.23v-7.65h-1.23V19zm6.665-7.74c-1.29 0-2.07.54-2.52 1.125l-.165-1.035h-1.065V19h1.23v-3.825c0-1.725.87-2.79 2.31-2.79 1.335 0 2.07.84 2.07 2.43V19h1.23v-4.26c0-2.535-1.365-3.48-3.09-3.48zm10.688 1.41c-.48-.855-1.335-1.41-2.625-1.41-2.115 0-3.675 1.575-3.675 3.915 0 2.49 1.56 3.915 3.675 3.915 1.29 0 2.115-.54 2.625-1.41v.9c0 1.665-.87 2.415-2.475 2.415-1.275 0-2.13-.54-2.34-1.5h-1.26c.195 1.68 1.56 2.595 3.51 2.595 2.625 0 3.795-1.26 3.795-3.465V11.35h-1.065l-.165 1.32zm-2.505 5.325c-1.515 0-2.535-1.155-2.535-2.82 0-1.665 1.02-2.82 2.535-2.82 1.5 0 2.52 1.17 2.52 2.85 0 1.635-1.02 2.79-2.52 2.79z" fill="#fff"/></svg>