<svg width="188" height="38" viewBox="0 0 188 38" fill="none" xmlns="http://www.w3.org/2000/svg"><path d="M29.033 10.022V1.306H.616v36.102h9.696V24.875h17.07v-8.252h-17.07v-6.6h18.721zM52.721.842c-10.676 0-19.34 8.303-19.34 18.566 0 10.212 8.664 18.515 19.34 18.515s19.34-8.303 19.34-18.515C72.06 9.145 63.396.842 52.72.842zm0 9.077c5.415 0 9.231 4.229 9.231 9.49 0 5.208-3.816 9.437-9.231 9.437s-9.18-4.229-9.18-9.438c0-5.26 3.765-9.49 9.18-9.49zm25.76-8.561v36.05h9.695V26.422H93.953l7.013 10.986h11.192l-8.098-12.275c5.003-1.702 7.118-5.363 7.118-11.243 0-8.819-4.694-12.532-16.452-12.532H78.48zm9.695 8.716h7.014c4.28 0 5.879 1.34 5.879 4.435 0 3.146-1.599 4.435-5.88 4.435h-7.013v-8.87zm58.435-.052V1.306h-29.552v36.102h29.861v-8.716h-20.165v-5.416h18.463v-8.251h-18.463v-5.003h19.856zm28.445 8.974l12.171-17.69h-11.655l-6.602 9.85-6.549-9.85h-11.914l12.171 17.741-12.687 18.36h11.656l7.117-10.572 7.117 10.573h11.862l-12.687-18.412z" fill="#09B45B"/></svg>