<svg width="165" height="14" viewBox="0 0 165 14" fill="none" xmlns="http://www.w3.org/2000/svg"><path d="M.34 2.834h3.672V13h1.955V2.834h3.672V1.1H.34v1.734zm14.128 1.462c-1.428 0-2.125.578-2.567 1.309l-.204-1.309h-1.632V13h1.836V8.631c0-1.343.527-2.618 2.16-2.618h.815V4.296h-.408zm9.23 7.106c-.373 0-.56-.119-.56-.561V7.356c0-2.057-1.326-3.162-3.638-3.162-2.193 0-3.655 1.054-3.842 2.754h1.802c.136-.765.867-1.275 1.955-1.275 1.207 0 1.904.595 1.904 1.564v.527h-2.193c-2.431 0-3.723 1.003-3.723 2.788 0 1.615 1.326 2.55 3.23 2.55 1.41 0 2.295-.612 2.873-1.496 0 .867.408 1.394 1.598 1.394h.969v-1.598h-.374zm-2.38-1.972c-.016 1.343-.9 2.244-2.43 2.244-1.003 0-1.615-.51-1.615-1.241 0-.884.629-1.309 1.768-1.309h2.278v.306zM31.62 5.503c-.56-.765-1.495-1.309-2.822-1.309-2.363 0-4.114 1.768-4.114 4.454 0 2.788 1.752 4.454 4.114 4.454 1.377 0 2.279-.646 2.84-1.411l.22 1.309h1.599V1.1h-1.837v4.403zm-2.515 6.052c-1.53 0-2.534-1.19-2.534-2.907 0-1.7 1.003-2.89 2.534-2.89 1.53 0 2.533 1.19 2.533 2.924 0 1.683-1.003 2.873-2.534 2.873zm10.277 1.547c2.159 0 3.62-1.309 3.927-3.026h-1.836c-.255.969-1.071 1.53-2.193 1.53-1.445 0-2.38-.969-2.431-2.448v-.119h6.562c.034-.238.05-.476.05-.697-.05-2.55-1.733-4.148-4.25-4.148-2.566 0-4.283 1.785-4.283 4.471 0 2.669 1.717 4.437 4.454 4.437zm-2.465-5.406c.136-1.241 1.139-2.023 2.312-2.023 1.275 0 2.176.731 2.329 2.023h-4.641zm12.498.204c0 3.383 1.598 5.202 4.675 5.202 3.094 0 4.709-1.819 4.709-5.202V1.1h-1.955v6.902c0 2.21-.85 3.366-2.754 3.366-1.87 0-2.72-1.156-2.72-3.366V1.1h-1.955v6.8zm11.013 1.19c.068 2.38 1.853 4.012 4.811 4.012 2.618 0 4.403-1.479 4.403-3.621.017-2.346-1.904-2.975-3.876-3.332-1.87-.323-3.094-.578-3.094-1.802 0-1.122.935-1.7 2.278-1.7 1.445 0 2.397.816 2.55 2.023h1.955C69.37 2.477 67.67.998 64.95.998c-2.533 0-4.233 1.411-4.233 3.485 0 2.363 1.87 2.992 3.842 3.332 1.887.34 3.128.612 3.128 1.87 0 1.139-1.02 1.768-2.43 1.768-1.667 0-2.755-.935-2.857-2.329l-1.972-.034zm14.809 0c.068 2.38 1.853 4.012 4.811 4.012 2.618 0 4.403-1.479 4.403-3.621.017-2.346-1.904-2.975-3.876-3.332-1.87-.323-3.094-.578-3.094-1.802 0-1.122.935-1.7 2.278-1.7 1.445 0 2.397.816 2.55 2.023h1.955C84.178 2.477 82.478.998 79.758.998c-2.533 0-4.233 1.411-4.233 3.485 0 2.363 1.87 2.992 3.842 3.332 1.887.34 3.128.612 3.128 1.87 0 1.139-1.02 1.768-2.431 1.768-1.666 0-2.754-.935-2.856-2.329l-1.972-.034zm15.321-4.896c-1.36 0-2.193.612-2.737 1.36V1.1h-1.836V13h1.836V8.597c0-1.751.884-2.822 2.329-2.822 1.36 0 2.091.884 2.091 2.533V13h1.836V8.155c0-2.907-1.581-3.961-3.519-3.961zm13.145 7.208c-.374 0-.561-.119-.561-.561V7.356c0-2.057-1.326-3.162-3.638-3.162-2.193 0-3.655 1.054-3.842 2.754h1.802c.136-.765.867-1.275 1.955-1.275 1.207 0 1.904.595 1.904 1.564v.527h-2.193c-2.431 0-3.723 1.003-3.723 2.788 0 1.615 1.326 2.55 3.23 2.55 1.411 0 2.295-.612 2.873-1.496 0 .867.408 1.394 1.598 1.394h.969v-1.598h-.374zm-2.38-1.972c-.017 1.343-.901 2.244-2.431 2.244-1.003 0-1.615-.51-1.615-1.241 0-.884.629-1.309 1.768-1.309h2.278v.306zm8.157-5.134c-1.428 0-2.125.578-2.567 1.309l-.204-1.309h-1.632V13h1.836V8.631c0-1.343.527-2.618 2.159-2.618h.816V4.296h-.408zm5.256 8.806c2.159 0 3.621-1.309 3.927-3.026h-1.836c-.255.969-1.071 1.53-2.193 1.53-1.445 0-2.38-.969-2.431-2.448v-.119h6.562c.034-.238.051-.476.051-.697-.051-2.55-1.734-4.148-4.25-4.148-2.567 0-4.284 1.785-4.284 4.471 0 2.669 1.717 4.437 4.454 4.437zm-2.465-5.406c.136-1.241 1.139-2.023 2.312-2.023 1.275 0 2.176.731 2.329 2.023h-4.641zm17.734 5.406c2.771 0 4.794-1.632 5.168-4.148h-2.023c-.374 1.513-1.513 2.431-3.162 2.431-2.244 0-3.604-1.802-3.604-4.335 0-2.55 1.394-4.335 3.655-4.335 1.615 0 2.737.935 3.128 2.431h2.023c-.391-2.516-2.346-4.148-5.066-4.148-3.519 0-5.746 2.431-5.746 6.052 0 3.655 2.159 6.052 5.627 6.052zm6.785-.102h1.955V7.968h4.658V6.285h-4.658V2.834h5.644V1.1h-7.599V13zm13.144 0c3.723 0 6.069-2.431 6.069-5.967 0-3.536-2.346-5.933-6.069-5.933h-4.046V13h4.046zm-2.091-10.2h2.091c2.618 0 4.063 1.683 4.063 4.233s-1.445 4.267-4.063 4.267h-2.091V2.8zm9.321 7.327c.051 1.887 1.649 2.975 3.978 2.975 2.108 0 3.689-1.054 3.689-2.72 0-1.938-1.615-2.346-3.604-2.584-1.258-.136-2.091-.238-2.091-1.054 0-.697.714-1.139 1.802-1.139s1.836.561 1.938 1.36h1.802c-.119-1.785-1.632-2.771-3.774-2.771-2.091-.017-3.57 1.054-3.57 2.703 0 1.802 1.564 2.227 3.553 2.465 1.343.17 2.142.238 2.142 1.173 0 .697-.748 1.139-1.887 1.139-1.326 0-2.108-.646-2.176-1.547h-1.802z" fill="#000"/></svg>