<svg width="204" height="25" viewBox="0 0 204 25" fill="none" xmlns="http://www.w3.org/2000/svg"><rect x="1" y=".748" width="202" height="23" rx="11.5" fill="#fff"/><circle cx="17.208" cy="12.248" r="4.767" fill="#4FC706"/><path d="M25.413 15.748h1.93v-2.265h1.038l1.08 2.265h2.118l-1.332-2.737c.661-.43 1.091-1.165 1.091-2.067 0-1.541-1.143-2.538-2.832-2.538h-3.093v7.342zm2.936-5.768c.63 0 1.017.367 1.017.964 0 .598-.388.965-1.017.965h-1.007V9.98h1.007zm3.915 5.768h5.181v-1.636h-3.25v-1.28H36.7v-1.531h-2.507v-1.258h3.136V8.405h-5.066v7.342zm6.074 0h1.93v-2.265h1.153c1.668 0 2.78-.997 2.78-2.539 0-1.541-1.112-2.538-2.78-2.538h-3.083v7.342zm2.905-5.768c.608 0 .996.367.996.964 0 .598-.388.965-.996.965h-.975V9.98h.975zm10.894 2.097c0-2.129-1.5-3.734-3.713-3.734s-3.712 1.605-3.712 3.734c0 2.13 1.5 3.734 3.712 3.734 2.213 0 3.713-1.605 3.713-3.734zm-5.454 0c0-1.227.671-2.14 1.741-2.14s1.741.913 1.741 2.14-.671 2.14-1.74 2.14c-1.07 0-1.742-.913-1.742-2.14zm6.3 3.67h1.93v-2.264h1.039l1.08 2.265h2.119l-1.332-2.737c.66-.43 1.09-1.165 1.09-2.067 0-1.541-1.143-2.538-2.831-2.538h-3.094v7.342zM55.92 9.98c.63 0 1.018.367 1.018.964 0 .598-.388.965-1.018.965h-1.006V9.98h1.006zm3.282.063h1.983v5.705h1.93v-5.705h1.981V8.405h-5.894v1.636zm6.045 3.282c0 1.52 1.227 2.486 3.125 2.486 1.814 0 2.99-.976 3-2.402.01-1.51-1.039-1.877-2.329-2.129-1.28-.252-1.688-.346-1.688-.787 0-.45.398-.66.923-.66.65 0 1.006.367 1.048.86h1.878c0-1.448-1.143-2.35-2.926-2.35-1.752 0-2.863.965-2.863 2.297 0 1.531 1.017 1.92 2.286 2.182 1.29.262 1.73.356 1.73.807 0 .472-.44.703-1.027.703-.787 0-1.238-.41-1.28-.965l-1.877-.042zm9.822 2.423h.912v-3.21h3.02V11.7h-3.02V9.245h3.65v-.839h-4.562v7.342zm7.572-5.349c-.954 0-1.363.399-1.615.808l-.115-.808h-.745v5.349h.86V13.02c0-.85.304-1.783 1.427-1.783h.43V10.4h-.242zm1.427-.902a.54.54 0 00.556-.556.54.54 0 00-.556-.556.54.54 0 00-.555.556.54.54 0 00.555.556zm-.44 6.25h.86V10.4h-.86v5.349zm6.254-4.53c-.325-.514-.933-.88-1.835-.88-1.479 0-2.57 1.1-2.57 2.736 0 1.741 1.091 2.738 2.57 2.738.902 0 1.478-.43 1.835-.923l.115.86h.745V8.406h-.86v2.811zm-1.751 3.828c-1.06 0-1.773-.807-1.773-1.972 0-1.164.713-1.971 1.773-1.971 1.048 0 1.762.818 1.762 1.992 0 1.144-.714 1.951-1.762 1.951zm8.513-.084c-.242 0-.347-.073-.347-.356v-2.34c0-1.247-.786-1.929-2.15-1.929-1.29 0-2.139.619-2.265 1.668h.86c.105-.546.608-.902 1.364-.902.839 0 1.332.42 1.332 1.111v.368h-1.574c-1.405 0-2.15.597-2.15 1.667 0 .975.797 1.563 1.972 1.563.923 0 1.458-.41 1.793-.892.01.525.252.829.965.829h.472v-.787h-.272zm-1.207-1.395c0 .892-.618 1.51-1.688 1.51-.713 0-1.164-.356-1.164-.88 0-.609.43-.892 1.195-.892h1.657v.262zm3.498 2.213l-.262.65c-.2.504-.283.63-.776.63h-.766v.786h1.028c.755 0 .954-.335 1.29-1.195l2.465-6.25h-.913l-1.594 4.268-1.647-4.269h-.912l2.087 5.38zm6.491-.031h.891v-5.79l2.433 5.79h.808l2.433-5.79v5.79h.891V8.406h-1.132l-2.57 6.094-2.601-6.094h-1.153v7.342zm13.484-.787c-.242 0-.347-.073-.347-.356v-2.34c0-1.247-.786-1.929-2.15-1.929-1.29 0-2.139.619-2.265 1.668h.86c.105-.546.608-.902 1.363-.902.84 0 1.332.42 1.332 1.111v.368h-1.573c-1.405 0-2.15.597-2.15 1.667 0 .975.797 1.563 1.972 1.563.923 0 1.458-.41 1.793-.892.011.525.252.829.965.829h.472v-.787h-.272zm-1.207-1.395c0 .892-.618 1.51-1.688 1.51-.713 0-1.164-.356-1.164-.88 0-.609.43-.892 1.195-.892h1.657v.262zm3.498 2.213l-.262.65c-.2.504-.283.63-.776.63h-.766v.786h1.028c.755 0 .954-.335 1.29-1.195l2.464-6.25h-.912l-1.594 4.268-1.647-4.269h-.912l2.087 5.38zm8.976-4.95c-.682 0-1.311.168-1.762.703l.168-2.318h3.587v-.808h-4.395l-.241 4.175.85.02c.314-.87 1.216-.996 1.667-.996 1.018 0 1.657.703 1.657 1.7 0 1.132-.807 1.709-1.667 1.709-1.059 0-1.699-.703-1.783-1.553h-.871c.074 1.28 1.018 2.34 2.654 2.34 1.374 0 2.569-.882 2.569-2.507 0-1.458-.996-2.465-2.433-2.465zm9.545 2.297v-.724h-3.493v.724h3.493zm3.421.828h3.849v1.794h.881v-1.794h1.185v-.807h-1.185v-4.74h-.986l-3.744 4.76v.787zm3.849-4.467v3.66h-2.863l2.863-3.66zm7.488 5.474c-.242 0-.346-.073-.346-.356v-2.34c0-1.247-.787-1.929-2.15-1.929-1.29 0-2.14.619-2.266 1.668h.86c.105-.546.609-.902 1.364-.902.839 0 1.332.42 1.332 1.111v.368H151.7c-1.405 0-2.15.597-2.15 1.667 0 .975.798 1.563 1.972 1.563.923 0 1.458-.41 1.794-.892.01.525.251.829.964.829h.472v-.787h-.272zm-1.206-1.395c0 .892-.619 1.51-1.689 1.51-.713 0-1.164-.356-1.164-.88 0-.609.43-.892 1.196-.892h1.657v.262zm8.107-3.23c-.954 0-1.531.44-1.856 1.017-.304-.681-.944-1.017-1.689-1.017-.828 0-1.279.41-1.562.797l-.116-.734h-.744v5.349h.86v-2.821c0-1.07.534-1.804 1.415-1.804.818 0 1.29.545 1.29 1.594v3.03h.86v-2.862c0-1.091.546-1.762 1.437-1.762.808 0 1.269.545 1.269 1.594v3.03h.86v-3.083c0-1.688-.912-2.328-2.024-2.328zm6.344 5.412l.776-1.982h3.199l.776 1.982h.975l-2.789-7.342h-1.081l-2.8 7.342h.944zm2.37-6.345l1.332 3.534h-2.653l1.321-3.534zm4.187 6.345h4.814v-.84h-3.901v-2.474h3.135v-.84h-3.135V9.246h3.765v-.839h-4.678v7.342zm5.544-2.402c.053 1.447 1.102 2.465 2.895 2.465 1.542 0 2.611-.892 2.611-2.16 0-1.427-1.227-1.826-2.422-2.025-1.101-.189-1.993-.367-1.993-1.248 0-.786.64-1.206 1.594-1.206.997 0 1.678.556 1.783 1.405h.944c-.084-1.321-1.091-2.234-2.727-2.234-1.489 0-2.506.84-2.506 2.088 0 1.426 1.216 1.814 2.401 2.013 1.112.189 2.014.378 2.014 1.29 0 .797-.703 1.248-1.689 1.248-1.122 0-1.887-.65-1.961-1.636h-.944zm5.844-4.1h2.38v6.502h.913V9.245h2.38v-.839h-5.673v.84z" fill="#000"/><rect x="1" y=".748" width="202" height="23" rx="11.5" stroke="#000" stroke-width=".953" stroke-miterlimit="0" stroke-linejoin="bevel"/></svg>