<svg width="501" height="18" viewBox="0 0 501 18" fill="none" xmlns="http://www.w3.org/2000/svg"><path d="M.38 1.65h4.56V14h1.026V1.65h4.56V.7H.38v.95zm14.564 2.717c-1.786 0-2.546.855-2.945 1.919l-.152-1.919h-.836V14h.97V9.117c0-1.957.512-3.819 2.773-3.819h.703v-.931h-.513zm10.015 8.74c-.57 0-.855-.19-.855-.931V7.692c0-2.204-1.35-3.439-3.762-3.439-2.204 0-3.667 1.064-3.914 2.812h.969c.247-1.178 1.273-1.957 2.907-1.957 1.805 0 2.83.95 2.83 2.546v.836h-3.267c-2.47 0-3.8 1.064-3.8 2.869 0 1.71 1.349 2.755 3.4 2.755 1.958 0 3.117-.893 3.706-2.09v.342C23.135 13.506 23.61 14 24.75 14h.57v-.893h-.361zm-1.824-3.002c0 1.843-1.311 3.173-3.591 3.173-1.54 0-2.49-.779-2.49-1.976 0-1.273.95-1.976 2.737-1.976h3.344v.779zm11.198-3.572c-.589-1.368-1.88-2.28-3.686-2.28-2.64 0-4.54 2.014-4.54 4.921 0 3.04 1.9 4.94 4.54 4.94 1.805 0 3.06-.969 3.667-2.318L34.466 14h.836V.7h-.969v5.833zm-3.61 6.707c-2.147 0-3.629-1.672-3.629-4.066 0-2.375 1.482-4.066 3.63-4.066 2.146 0 3.628 1.691 3.628 4.085 0 2.375-1.482 4.047-3.629 4.047zm11.114.874c2.11 0 3.724-1.368 4.142-3.306h-.988c-.38 1.501-1.653 2.432-3.23 2.432-2.147 0-3.496-1.634-3.534-3.876v-.171h7.866c0-.133.02-.285.02-.399-.096-2.869-1.863-4.541-4.447-4.541-2.64 0-4.446 2.014-4.446 4.864 0 3.021 1.881 4.997 4.617 4.997zm-3.534-5.738c.152-1.957 1.615-3.268 3.382-3.268 1.881 0 3.23 1.159 3.382 3.268h-6.764zM53.396 14l1.596-4.066h6.118L62.706 14h1.102L58.678.7H57.48L52.33 14h1.065zM58.05 1.84l2.755 7.144h-5.51L58.05 1.84zM69.92 4.253c-1.805 0-3.059.969-3.667 2.318l-.152-2.204h-.836V17.8h.969v-6.023c.551 1.406 1.862 2.337 3.686 2.337 2.641 0 4.541-2.014 4.541-4.94 0-3.021-1.9-4.921-4.541-4.921zm-.076 8.987c-2.147 0-3.629-1.672-3.629-4.085 0-2.356 1.482-4.047 3.629-4.047 2.147 0 3.629 1.691 3.629 4.066 0 2.394-1.482 4.066-3.629 4.066zm11.19-8.987c-1.805 0-3.059.969-3.667 2.318l-.152-2.204h-.836V17.8h.97v-6.023c.55 1.406 1.861 2.337 3.685 2.337 2.641 0 4.541-2.014 4.541-4.94 0-3.021-1.9-4.921-4.54-4.921zm-.076 8.987c-2.147 0-3.629-1.672-3.629-4.085 0-2.356 1.482-4.047 3.63-4.047 2.146 0 3.628 1.691 3.628 4.066 0 2.394-1.482 4.066-3.629 4.066zm6.535.76h.97V.7h-.97V14zm7.504.114c2.109 0 3.724-1.368 4.142-3.306h-.988c-.38 1.501-1.653 2.432-3.23 2.432-2.147 0-3.496-1.634-3.534-3.876v-.171h7.866c0-.133.019-.285.019-.399-.095-2.869-1.862-4.541-4.446-4.541-2.641 0-4.446 2.014-4.446 4.864 0 3.021 1.88 4.997 4.617 4.997zm-3.534-5.738c.152-1.957 1.615-3.268 3.382-3.268 1.88 0 3.23 1.159 3.382 3.268h-6.764zM100.64.605c-.513 0-.836.304-.836.741 0 .456.304.684.665.684.19 0 .38-.076.475-.228.133.133.171.304.171.494 0 .722-.456 1.463-1.425 1.501v.57c1.311-.057 2.128-.931 2.128-2.185 0-.874-.494-1.577-1.178-1.577zm2.299 10.431c.076 1.995 1.691 3.078 4.104 3.078 2.071 0 3.743-1.045 3.743-2.755 0-2.033-1.786-2.432-3.857-2.717-1.501-.209-2.831-.38-2.831-1.729 0-1.102 1.083-1.824 2.717-1.824 1.539 0 2.641.741 2.812 1.995h.988c-.171-1.881-1.71-2.831-3.8-2.831-2.147-.019-3.686 1.083-3.686 2.736 0 1.938 1.786 2.299 3.762 2.565 1.615.228 2.926.437 2.926 1.862 0 1.14-1.197 1.862-2.774 1.862-1.843 0-3.04-.855-3.116-2.242h-.988zm26.616 2.014c-.646 0-.95-.133-1.368-.722l-.038-.057c1.121-1.197 1.786-2.926 1.786-4.921 0-3.933-2.546-6.764-6.213-6.764-3.648 0-6.213 2.831-6.213 6.764 0 3.933 2.565 6.764 6.213 6.764 1.444 0 2.717-.437 3.724-1.197l.133.19c.494.703.95.893 1.862.893h1.064v-.95h-.95zm-5.833.114c-3.04 0-5.149-2.413-5.149-5.814 0-3.401 2.109-5.814 5.149-5.814 3.059 0 5.168 2.413 5.168 5.814 0 1.634-.494 3.059-1.349 4.066l-.741-1.045c-.513-.703-.912-.912-1.691-.912h-1.292v.95h1.14c.513 0 .836.171 1.235.722l.684.969c-.855.684-1.919 1.064-3.154 1.064zm10.355-10.773c0 .608-.285 1.026-.874 1.026h-2.28v.893h2.28c.399 0 .684-.114.855-.323V14h.988V.7h-.969v1.691zm12.891 11.723c2.109 0 3.724-1.368 4.142-3.306h-.988c-.38 1.501-1.653 2.432-3.23 2.432-2.147 0-3.496-1.634-3.534-3.876v-.171h7.866c0-.133.019-.285.019-.399-.095-2.869-1.862-4.541-4.446-4.541-2.641 0-4.446 2.014-4.446 4.864 0 3.021 1.881 4.997 4.617 4.997zm-3.534-5.738c.152-1.957 1.615-3.268 3.382-3.268 1.881 0 3.23 1.159 3.382 3.268h-6.764zm18.199 4.731c-.57 0-.855-.19-.855-.931V7.692c0-2.204-1.349-3.439-3.762-3.439-2.204 0-3.667 1.064-3.914 2.812h.969c.247-1.178 1.273-1.957 2.907-1.957 1.805 0 2.831.95 2.831 2.546v.836h-3.268c-2.47 0-3.8 1.064-3.8 2.869 0 1.71 1.349 2.755 3.401 2.755 1.957 0 3.116-.893 3.705-2.09v.342c-.038 1.14.437 1.634 1.577 1.634h.57v-.893h-.361zm-1.824-3.002c0 1.843-1.311 3.173-3.591 3.173-1.539 0-2.489-.779-2.489-1.976 0-1.273.95-1.976 2.736-1.976h3.344v.779zm7.413-5.738c-1.786 0-2.546.855-2.945 1.919l-.152-1.919h-.836V14h.969V9.117c0-1.957.513-3.819 2.774-3.819h.703v-.931h-.513zm6.395-.114c-1.767 0-2.907.912-3.458 2.166l-.152-2.052h-.836V14h.969V9.25c0-2.508 1.273-4.104 3.325-4.104 1.862 0 2.983 1.216 2.983 3.496V14h.969V8.604c0-3.04-1.615-4.351-3.8-4.351zm6.439-1.919a.67.67 0 00.684-.684.67.67 0 00-.684-.684.67.67 0 00-.684.684.67.67 0 00.684.684zM179.562 14h.969V4.367h-.969V14zm7.693-9.747c-1.767 0-2.907.912-3.458 2.166l-.152-2.052h-.836V14h.969V9.25c0-2.508 1.273-4.104 3.325-4.104 1.862 0 2.983 1.216 2.983 3.496V14h.969V8.604c0-3.04-1.615-4.351-3.8-4.351zm13.792 2.356c-.589-1.425-1.881-2.356-3.667-2.356-2.641 0-4.541 1.995-4.541 4.921 0 3.04 1.9 4.94 4.541 4.94 1.805 0 3.078-.95 3.686-2.451v1.71c0 2.565-1.216 3.667-3.534 3.667-1.805 0-3.059-.817-3.363-2.28h-1.007c.304 2.052 1.957 3.154 4.294 3.154 3.116 0 4.579-1.482 4.579-4.503V4.367h-.836l-.152 2.242zm-3.591 6.631c-2.147 0-3.629-1.672-3.629-4.066s1.482-4.066 3.629-4.066c2.147 0 3.629 1.672 3.629 4.085 0 2.375-1.482 4.047-3.629 4.047zm6.421-2.204c.076 1.995 1.691 3.078 4.104 3.078 2.071 0 3.743-1.045 3.743-2.755 0-2.033-1.786-2.432-3.857-2.717-1.501-.209-2.831-.38-2.831-1.729 0-1.102 1.083-1.824 2.717-1.824 1.539 0 2.641.741 2.812 1.995h.988c-.171-1.881-1.71-2.831-3.8-2.831-2.147-.019-3.686 1.083-3.686 2.736 0 1.938 1.786 2.299 3.762 2.565 1.615.228 2.926.437 2.926 1.862 0 1.14-1.197 1.862-2.774 1.862-1.843 0-3.04-.855-3.116-2.242h-.988zm16.508-6.669V2.923c0-.95.361-1.33 1.33-1.33h1.387V.7h-1.425c-1.615 0-2.261.703-2.261 2.242v1.425h-1.824v.893h1.824V14h.969V5.26h4.123V14h.969V4.367h-5.092zm4.617-3.401a.67.67 0 00-.684.684.67.67 0 00.684.684.659.659 0 00.684-.684.659.659 0 00-.684-.684zm6.679 3.401c-1.786 0-2.546.855-2.945 1.919l-.152-1.919h-.836V14h.969V9.117c0-1.957.513-3.819 2.774-3.819h.703v-.931h-.513zm1.271 6.669c.076 1.995 1.691 3.078 4.104 3.078 2.071 0 3.743-1.045 3.743-2.755 0-2.033-1.786-2.432-3.857-2.717-1.501-.209-2.831-.38-2.831-1.729 0-1.102 1.083-1.824 2.717-1.824 1.539 0 2.641.741 2.812 1.995h.988c-.171-1.881-1.71-2.831-3.8-2.831-2.147-.019-3.686 1.083-3.686 2.736 0 1.938 1.786 2.299 3.762 2.565 1.615.228 2.926.437 2.926 1.862 0 1.14-1.197 1.862-2.774 1.862-1.843 0-3.04-.855-3.116-2.242h-.988zm10.418.722c0 1.539.627 2.242 2.261 2.242h1.406v-.893h-1.33c-1.007 0-1.368-.38-1.368-1.368V5.26h2.603v-.893h-2.603V1.669h-.969v2.698h-1.824v.893h1.824v6.498zM255.969 14h1.045l2.85-8.094L262.581 14h1.045l3.42-9.633h-.988l-2.964 8.474-2.755-8.474h-.893l-2.907 8.474-2.812-8.474h-1.026L255.969 14zm12.927-11.666a.67.67 0 00.684-.684.67.67 0 00-.684-.684.67.67 0 00-.684.684.67.67 0 00.684.684zM268.402 14h.969V4.367h-.969V14zm3.969-2.242c0 1.539.627 2.242 2.261 2.242h1.406v-.893h-1.33c-1.007 0-1.368-.38-1.368-1.368V5.26h2.603v-.893h-2.603V1.669h-.969v2.698h-1.824v.893h1.824v6.498zm9.587-7.505c-1.805 0-2.926 1.007-3.477 2.394V.7h-.969V14h.969V9.25c0-2.508 1.273-4.104 3.325-4.104 1.843 0 2.983 1.216 2.983 3.496V14h.969V8.604c0-3.04-1.615-4.351-3.8-4.351zm15.34 9.861c2.109 0 3.724-1.368 4.142-3.306h-.988c-.38 1.501-1.653 2.432-3.23 2.432-2.147 0-3.496-1.634-3.534-3.876v-.171h7.866c0-.133.019-.285.019-.399-.095-2.869-1.862-4.541-4.446-4.541-2.641 0-4.446 2.014-4.446 4.864 0 3.021 1.881 4.997 4.617 4.997zm-3.534-5.738c.152-1.957 1.615-3.268 3.382-3.268 1.881 0 3.23 1.159 3.382 3.268h-6.764zM302.129 14h1.121l3.192-4.237L309.634 14h1.178l-3.743-4.921 3.553-4.712h-1.102l-3.04 3.99-3.002-3.99h-1.159l3.553 4.712L302.129 14zm10.784-2.242c0 1.539.627 2.242 2.261 2.242h1.406v-.893h-1.33c-1.007 0-1.368-.38-1.368-1.368V5.26h2.603v-.893h-2.603V1.669h-.969v2.698h-1.824v.893h1.824v6.498zm9.1 2.356c2.109 0 3.724-1.368 4.142-3.306h-.988c-.38 1.501-1.653 2.432-3.23 2.432-2.147 0-3.496-1.634-3.534-3.876v-.171h7.866c0-.133.019-.285.019-.399-.095-2.869-1.862-4.541-4.446-4.541-2.641 0-4.446 2.014-4.446 4.864 0 3.021 1.881 4.997 4.617 4.997zm-3.534-5.738c.152-1.957 1.615-3.268 3.382-3.268 1.881 0 3.23 1.159 3.382 3.268h-6.764zm14.17-4.123c-1.767 0-2.907.912-3.458 2.166l-.152-2.052h-.836V14h.969V9.25c0-2.508 1.273-4.104 3.325-4.104 1.862 0 2.983 1.216 2.983 3.496V14h.969V8.604c0-3.04-1.615-4.351-3.8-4.351zm13.663 2.28c-.589-1.368-1.881-2.28-3.686-2.28-2.641 0-4.541 2.014-4.541 4.921 0 3.04 1.9 4.94 4.541 4.94 1.805 0 3.059-.969 3.667-2.318l.152 2.204h.836V.7h-.969v5.833zm-3.61 6.707c-2.147 0-3.629-1.672-3.629-4.066 0-2.375 1.482-4.066 3.629-4.066 2.147 0 3.629 1.691 3.629 4.085 0 2.375-1.482 4.047-3.629 4.047zm11.114.874c2.109 0 3.724-1.368 4.142-3.306h-.988c-.38 1.501-1.653 2.432-3.23 2.432-2.147 0-3.496-1.634-3.534-3.876v-.171h7.866c0-.133.019-.285.019-.399-.095-2.869-1.862-4.541-4.446-4.541-2.641 0-4.446 2.014-4.446 4.864 0 3.021 1.881 4.997 4.617 4.997zm-3.534-5.738c.152-1.957 1.615-3.268 3.382-3.268 1.881 0 3.23 1.159 3.382 3.268h-6.764zm17.59-1.843c-.589-1.368-1.881-2.28-3.686-2.28-2.641 0-4.541 2.014-4.541 4.921 0 3.04 1.9 4.94 4.541 4.94 1.805 0 3.059-.969 3.667-2.318l.152 2.204h.836V.7h-.969v5.833zm-3.61 6.707c-2.147 0-3.629-1.672-3.629-4.066 0-2.375 1.482-4.066 3.629-4.066 2.147 0 3.629 1.691 3.629 4.085 0 2.375-1.482 4.047-3.629 4.047zm16.426-8.987c-1.805 0-2.926 1.007-3.477 2.394V.7h-.969V14h.969V9.25c0-2.508 1.273-4.104 3.325-4.104 1.843 0 2.983 1.216 2.983 3.496V14h.969V8.604c0-3.04-1.615-4.351-3.8-4.351zm10.07 9.861c2.717 0 4.636-2.014 4.636-4.94 0-2.907-1.919-4.921-4.636-4.921s-4.617 2.014-4.617 4.921c0 2.926 1.9 4.94 4.617 4.94zm0-.874c-2.147 0-3.629-1.672-3.629-4.066 0-2.375 1.482-4.066 3.629-4.066 2.147 0 3.629 1.691 3.629 4.066 0 2.394-1.482 4.066-3.629 4.066zm13.554-4.142c0 2.527-1.254 4.123-3.249 4.123-1.786 0-2.888-1.216-2.888-3.515V4.367h-.969v5.396c0 3.021 1.577 4.351 3.705 4.351 1.71 0 2.831-.912 3.382-2.147l.133 2.033h.855V4.367h-.969v4.731zm7.183-4.731c-1.786 0-2.546.855-2.945 1.919l-.152-1.919h-.836V14h.969V9.117c0-1.957.513-3.819 2.774-3.819h.703v-.931h-.513zm1.271 6.669c.076 1.995 1.691 3.078 4.104 3.078 2.071 0 3.743-1.045 3.743-2.755 0-2.033-1.786-2.432-3.857-2.717-1.501-.209-2.831-.38-2.831-1.729 0-1.102 1.083-1.824 2.717-1.824 1.539 0 2.641.741 2.812 1.995h.988c-.171-1.881-1.71-2.831-3.8-2.831-2.147-.019-3.686 1.083-3.686 2.736 0 1.938 1.786 2.299 3.762 2.565 1.615.228 2.926.437 2.926 1.862 0 1.14-1.197 1.862-2.774 1.862-1.843 0-3.04-.855-3.116-2.242h-.988zm19.072 3.078c2.717 0 4.636-2.014 4.636-4.94 0-2.907-1.919-4.921-4.636-4.921s-4.617 2.014-4.617 4.921c0 2.926 1.9 4.94 4.617 4.94zm0-.874c-2.147 0-3.629-1.672-3.629-4.066 0-2.375 1.482-4.066 3.629-4.066 2.147 0 3.629 1.691 3.629 4.066 0 2.394-1.482 4.066-3.629 4.066zm11.008-8.987c-1.767 0-2.907.912-3.458 2.166l-.152-2.052h-.836V14h.969V9.25c0-2.508 1.273-4.104 3.325-4.104 1.862 0 2.983 1.216 2.983 3.496V14h.969V8.604c0-3.04-1.615-4.351-3.8-4.351zm16.917 9.861c2.85 0 4.864-1.539 5.434-4.218h-1.083c-.57 2.128-2.109 3.268-4.37 3.268-3.078 0-5.016-2.413-5.016-5.814 0-3.401 1.976-5.814 5.054-5.814 2.223 0 3.781 1.159 4.37 3.249h1.083c-.589-2.66-2.603-4.199-5.396-4.199-3.743 0-6.175 2.774-6.175 6.764 0 4.028 2.375 6.764 6.099 6.764zm7.643-.114h1.026V7.863h5.738v-.95h-5.738V1.65h6.878V.7h-7.904V14zm13.58 0c4.218 0 6.688-2.622 6.688-6.65 0-4.047-2.47-6.65-6.688-6.65h-3.876V14h3.876zm-2.85-12.35h2.85c3.629 0 5.643 2.204 5.643 5.7 0 3.477-2.014 5.7-5.643 5.7h-2.85V1.65zm11.149 9.386c.076 1.995 1.691 3.078 4.104 3.078 2.071 0 3.743-1.045 3.743-2.755 0-2.033-1.786-2.432-3.857-2.717-1.501-.209-2.831-.38-2.831-1.729 0-1.102 1.083-1.824 2.717-1.824 1.539 0 2.641.741 2.812 1.995h.988c-.171-1.881-1.71-2.831-3.8-2.831-2.147-.019-3.686 1.083-3.686 2.736 0 1.938 1.786 2.299 3.762 2.565 1.615.228 2.926.437 2.926 1.862 0 1.14-1.197 1.862-2.774 1.862-1.843 0-3.04-.855-3.116-2.242h-.988zm9.415 2.337c0 .437.304.722.722.722s.722-.285.722-.722-.304-.703-.722-.703-.722.266-.722.703z" fill="#000"/></svg>