<svg width="232" height="59" viewBox="0 0 232 59" fill="none" xmlns="http://www.w3.org/2000/svg"><path d="M.6 4.06h6.48V22h3.45V4.06h6.48V1H.6v3.06zm24.932 2.58c-2.52 0-3.75 1.02-4.53 2.31l-.36-2.31h-2.88V22h3.24v-7.71c0-2.37.93-4.62 3.81-4.62h1.44V6.64h-.72zm16.29 12.54c-.66 0-.99-.21-.99-.99v-6.15c0-3.63-2.34-5.58-6.42-5.58-3.87 0-6.45 1.86-6.78 4.86h3.18c.24-1.35 1.53-2.25 3.45-2.25 2.13 0 3.36 1.05 3.36 2.76v.93h-3.87c-4.29 0-6.57 1.77-6.57 4.92 0 2.85 2.34 4.5 5.7 4.5 2.49 0 4.05-1.08 5.07-2.64 0 1.53.72 2.46 2.82 2.46h1.71v-2.82h-.66zm-4.2-3.48c-.03 2.37-1.59 3.96-4.29 3.96-1.77 0-2.85-.9-2.85-2.19 0-1.56 1.11-2.31 3.12-2.31h4.02v.54zm18.177-6.93c-.99-1.35-2.64-2.31-4.98-2.31-4.17 0-7.26 3.12-7.26 7.86 0 4.92 3.09 7.86 7.26 7.86 2.43 0 4.02-1.14 5.01-2.49l.39 2.31h2.82V1H55.8v7.77zm-4.44 10.68c-2.7 0-4.47-2.1-4.47-5.13 0-3 1.77-5.1 4.47-5.1 2.7 0 4.47 2.1 4.47 5.16 0 2.97-1.77 5.07-4.47 5.07zm18.136 2.73c3.81 0 6.39-2.31 6.93-5.34h-3.24c-.45 1.71-1.89 2.7-3.87 2.7-2.55 0-4.2-1.71-4.29-4.32v-.21h11.58c.06-.42.09-.84.09-1.23-.09-4.5-3.06-7.32-7.5-7.32-4.53 0-7.56 3.15-7.56 7.89 0 4.71 3.03 7.83 7.86 7.83zm-4.35-9.54c.24-2.19 2.01-3.57 4.08-3.57 2.25 0 3.84 1.29 4.11 3.57h-8.19zM90.53 22h3.51l3.36-10.44L100.64 22h3.48l5.1-15.36h-3.3l-3.63 11.76-3.36-11.76h-2.97L92.45 18.4 88.94 6.64h-3.42L90.53 22zm22.046-17.52c1.11 0 1.98-.81 1.98-1.95s-.87-1.95-1.98-1.95c-1.11 0-1.98.81-1.98 1.95s.87 1.95 1.98 1.95zM110.926 22h3.24V6.64h-3.24V22zm7.526-4.17c0 2.79 1.26 4.17 4.2 4.17h3v-2.85h-2.28c-1.23 0-1.65-.45-1.65-1.65V9.49h3.75V6.64h-3.75V2.35h-3.27v4.29h-2.67v2.85h2.67v8.34zm17.331-11.37c-2.4 0-3.87 1.08-4.83 2.4V1h-3.24v21h3.24v-7.77c0-3.09 1.56-4.98 4.11-4.98 2.4 0 3.69 1.56 3.69 4.47V22h3.24v-8.55c0-5.13-2.79-6.99-6.21-6.99zm16.412 5.52c0 6.33 3.39 10.2 8.28 10.2 4.89 0 8.28-3.87 8.28-10.2v-.96c0-6.09-3.39-10.2-8.28-10.2-4.89 0-8.28 4.11-8.28 10.2v.96zm13.2-.12c0 4.71-1.98 7.41-4.92 7.41s-4.92-2.7-4.92-7.41v-.72c0-4.68 1.98-7.41 4.92-7.41s4.92 2.73 4.92 7.41v.72zm5.937-5.91c0 2.97 2.28 5.1 5.37 5.1 3.09 0 5.37-2.13 5.37-5.1 0-2.97-2.28-5.13-5.37-5.13-3.09 0-5.37 2.16-5.37 5.13zm6.66 16.05l14.37-21h-3.21l-14.34 21h3.18zm1.35-16.05c0 1.53-1.11 2.67-2.64 2.67-1.5 0-2.61-1.14-2.61-2.67s1.11-2.67 2.61-2.67c1.53 0 2.64 1.14 2.64 2.67zm5.7 11.13c0 2.94 2.28 5.1 5.37 5.1 3.09 0 5.37-2.16 5.37-5.1 0-3-2.28-5.13-5.37-5.13-3.09 0-5.37 2.13-5.37 5.13zm8.01 0c0 1.53-1.14 2.64-2.64 2.64-1.5 0-2.64-1.11-2.64-2.64s1.14-2.7 2.64-2.7c1.5 0 2.64 1.17 2.64 2.7zM8.64 58.18c3.93 0 6.54-2.19 7.14-5.67h-3.42c-.39 1.77-1.71 2.91-3.69 2.91-2.61 0-4.32-2.07-4.32-5.07 0-3.03 1.71-5.13 4.32-5.13 2.01 0 3.3 1.11 3.72 2.91h3.39c-.63-3.48-3.09-5.67-7.05-5.67-4.65 0-7.71 3.15-7.71 7.89 0 4.8 2.97 7.83 7.62 7.83zm16.88 0c4.68 0 7.83-3.15 7.83-7.86 0-4.68-3.15-7.86-7.83-7.86s-7.83 3.18-7.83 7.86c0 4.71 3.15 7.86 7.83 7.86zm0-2.76c-2.73 0-4.5-2.13-4.5-5.1 0-2.97 1.77-5.1 4.5-5.1s4.53 2.13 4.53 5.1c0 2.97-1.8 5.1-4.53 5.1zm28.105-12.96c-2.52 0-4.26 1.11-5.25 2.79-.93-1.98-2.73-2.79-4.74-2.79-2.31.03-3.63 1.05-4.5 2.19l-.36-2.01h-2.82V58h3.24v-8.22c0-2.73 1.38-4.53 3.6-4.53 2.13 0 3.24 1.41 3.24 4.11V58h3.27v-8.31c0-2.76 1.41-4.44 3.63-4.44 2.1 0 3.21 1.41 3.21 4.11V58h3.24v-8.85c0-4.86-2.58-6.69-5.76-6.69zm26.367 0c-2.52 0-4.26 1.11-5.25 2.79-.93-1.98-2.73-2.79-4.74-2.79-2.31.03-3.63 1.05-4.5 2.19l-.36-2.01h-2.82V58h3.24v-8.22c0-2.73 1.38-4.53 3.6-4.53 2.13 0 3.24 1.41 3.24 4.11V58h3.27v-8.31c0-2.76 1.41-4.44 3.63-4.44 2.1 0 3.21 1.41 3.21 4.11V58h3.24v-8.85c0-4.86-2.58-6.69-5.76-6.69zm10.348-1.98c1.11 0 1.98-.81 1.98-1.95s-.87-1.95-1.98-1.95c-1.11 0-1.98.81-1.98 1.95s.87 1.95 1.98 1.95zM88.69 58h3.24V42.64h-3.24V58zm5.756-5.07c.09 3.33 2.91 5.25 7.02 5.25 3.72 0 6.51-1.86 6.51-4.8 0-3.42-2.85-4.14-6.36-4.56-2.22-.24-3.69-.42-3.69-1.86 0-1.23 1.26-2.01 3.18-2.01 1.92 0 3.24.99 3.42 2.4h3.18c-.21-3.15-2.88-4.89-6.66-4.89-3.69-.03-6.3 1.86-6.3 4.77 0 3.18 2.76 3.93 6.27 4.35 2.37.3 3.78.42 3.78 2.07 0 1.23-1.32 2.01-3.33 2.01-2.34 0-3.72-1.14-3.84-2.73h-3.18zm15.088 0c.09 3.33 2.91 5.25 7.02 5.25 3.72 0 6.51-1.86 6.51-4.8 0-3.42-2.85-4.14-6.36-4.56-2.22-.24-3.69-.42-3.69-1.86 0-1.23 1.26-2.01 3.18-2.01 1.92 0 3.24.99 3.42 2.4h3.18c-.21-3.15-2.88-4.89-6.66-4.89-3.69-.03-6.3 1.86-6.3 4.77 0 3.18 2.76 3.93 6.27 4.35 2.37.3 3.78.42 3.78 2.07 0 1.23-1.32 2.01-3.33 2.01-2.34 0-3.72-1.14-3.84-2.73h-3.18zm17.69-12.45c1.11 0 1.98-.81 1.98-1.95s-.87-1.95-1.98-1.95c-1.11 0-1.98.81-1.98 1.95s.87 1.95 1.98 1.95zM125.574 58h3.24V42.64h-3.24V58zm13.676.18c4.68 0 7.83-3.15 7.83-7.86 0-4.68-3.15-7.86-7.83-7.86s-7.83 3.18-7.83 7.86c0 4.71 3.15 7.86 7.83 7.86zm0-2.76c-2.73 0-4.5-2.13-4.5-5.1 0-2.97 1.77-5.1 4.5-5.1s4.53 2.13 4.53 5.1c0 2.97-1.8 5.1-4.53 5.1zm18.536-12.96c-2.49 0-3.96.99-4.92 2.19l-.36-2.01h-2.82V58h3.24v-7.74c0-3.12 1.53-5.01 4.11-5.01 2.43 0 3.66 1.56 3.66 4.47V58h3.27v-8.55c0-5.13-2.79-6.99-6.18-6.99zm24.902 0c-2.49 0-3.96.99-4.92 2.19l-.36-2.01h-2.82V58h3.24v-7.74c0-3.12 1.53-5.01 4.11-5.01 2.43 0 3.66 1.56 3.66 4.47V58h3.27v-8.55c0-5.13-2.79-6.99-6.18-6.99zm16.269 15.72c4.68 0 7.83-3.15 7.83-7.86 0-4.68-3.15-7.86-7.83-7.86s-7.83 3.18-7.83 7.86c0 4.71 3.15 7.86 7.83 7.86zm0-2.76c-2.73 0-4.5-2.13-4.5-5.1 0-2.97 1.77-5.1 4.5-5.1s4.53 2.13 4.53 5.1c0 2.97-1.8 5.1-4.53 5.1zM212.405 58h3.51l3.36-10.44 3.24 10.44h3.48l5.1-15.36h-3.3l-3.63 11.76-3.36-11.76h-2.97l-3.51 11.76-3.51-11.76h-3.42l5.01 15.36z" fill="#000"/></svg>