<svg width="40" height="16" viewBox="0 0 40 16" fill="none" xmlns="http://www.w3.org/2000/svg"><rect width="40" height="16" rx="8" fill="#000"/><path d="M4.718 8.25c.028.753.574 1.283 1.507 1.283.803 0 1.36-.464 1.36-1.125 0-.743-.639-.95-1.261-1.054-.574-.098-1.038-.191-1.038-.65 0-.41.333-.628.83-.628.519 0 .874.29.928.732h.492c-.044-.688-.568-1.163-1.42-1.163-.775 0-1.305.437-1.305 1.087 0 .742.634.944 1.25 1.048.58.098 1.049.197 1.049.672 0 .415-.366.65-.88.65-.583 0-.982-.34-1.02-.852h-.492zm3.612.524c0 .491.191.726.726.726h.486v-.41H9.1c-.24 0-.322-.087-.322-.322V7.125h.72v-.41h-.72v-.78H8.33v.78h-.502v.41h.502v1.649zm4.02.316c-.126 0-.18-.038-.18-.185V7.687c0-.65-.41-1.004-1.12-1.004-.671 0-1.113.322-1.179.868h.448c.054-.284.316-.47.71-.47.437 0 .693.219.693.579v.191h-.819c-.732 0-1.12.311-1.12.868 0 .508.416.814 1.027.814.48 0 .76-.213.934-.464.005.273.131.431.502.431h.246v-.41h-.142zm-.628-.726c0 .464-.322.787-.879.787-.371 0-.606-.186-.606-.46 0-.316.224-.463.622-.463h.863v.136zm2.403-1.649c-.497 0-.71.208-.841.42l-.06-.42h-.388V9.5h.448V8.08c0-.442.158-.928.742-.928h.224v-.437h-.125zm.812 2.059c0 .491.19.726.726.726h.486v-.41h-.443c-.24 0-.322-.087-.322-.322V7.125h.721v-.41h-.72v-.78h-.448v.78h-.503v.41h.503v1.649zm3.236 0c0 .491.191.726.727.726h.486v-.41h-.443c-.24 0-.322-.087-.322-.322V7.125h.72v-.41h-.72v-.78h-.448v.78h-.502v.41h.502v1.649zm2.89-2.059c-.498 0-.71.208-.842.42l-.06-.42h-.388V9.5h.448V8.08c0-.442.159-.928.743-.928h.224v-.437h-.126zm2.88 2.375c-.126 0-.18-.038-.18-.185V7.687c0-.65-.41-1.004-1.12-1.004-.672 0-1.114.322-1.18.868h.448c.055-.284.317-.47.71-.47.437 0 .694.219.694.579v.191h-.82c-.731 0-1.119.311-1.119.868 0 .508.415.814 1.027.814.48 0 .759-.213.933-.464.006.273.131.431.503.431h.245v-.41h-.142zm-.629-.726c0 .464-.322.787-.879.787-.37 0-.606-.186-.606-.46 0-.316.224-.463.623-.463h.862v.136zm3.278-1.223c-.17-.267-.486-.458-.956-.458-.77 0-1.338.573-1.338 1.425 0 .906.568 1.425 1.338 1.425.47 0 .77-.224.956-.48l.06.447h.387V5.678h-.447V7.14zm-.912 1.993c-.552 0-.923-.42-.923-1.026 0-.606.371-1.027.923-1.027.546 0 .917.426.917 1.038 0 .595-.371 1.015-.917 1.015zm2.199-2.888c.163 0 .289-.12.289-.29 0-.169-.126-.29-.29-.29-.163 0-.289.121-.289.29 0 .17.126.29.29.29zm-.23 3.254h.448V6.715h-.448V9.5zm2.427-2.817c-.47 0-.754.196-.918.409l-.06-.377h-.388V9.5h.448V8.108c0-.628.317-1.016.841-1.016.486 0 .754.306.754.885V9.5h.447V7.95c0-.923-.497-1.267-1.124-1.267zm3.89.513c-.175-.311-.486-.513-.955-.513-.77 0-1.338.573-1.338 1.425 0 .906.568 1.425 1.338 1.425.47 0 .77-.197.955-.513v.327c0 .606-.316.88-.9.88-.465 0-.776-.197-.853-.547h-.458c.07.612.568.945 1.277.945.956 0 1.382-.459 1.382-1.262V6.715h-.388l-.06.48zm-.912 1.938c-.551 0-.922-.42-.922-1.026 0-.606.37-1.027.922-1.027.546 0 .918.426.918 1.038 0 .595-.372 1.015-.918 1.015z" fill="#fff"/></svg>