<svg width="43" height="14" viewBox="0 0 43 14" fill="none" xmlns="http://www.w3.org/2000/svg"><rect y=".5" width="43" height="13" rx="6.5" fill="#000"/><path d="M8.844 9.5v-.48H6.93V5.3h-.522v4.2h2.436zm1.703.036c.708 0 1.212-.45 1.332-1.062h-.498c-.102.396-.438.624-.87.624-.582 0-.948-.408-.966-.99v-.042h2.376c.006-.072.012-.144.012-.21-.024-.906-.588-1.452-1.452-1.452S9.029 7.04 9.029 7.97c0 .936.6 1.566 1.518 1.566zm-.972-1.878a.906.906 0 01.912-.822c.51 0 .87.294.918.822h-1.83zM15.2 9.05c-.138 0-.198-.042-.198-.204V7.508c0-.714-.45-1.104-1.23-1.104-.738 0-1.224.354-1.296.954h.492c.06-.312.348-.516.78-.516.48 0 .762.24.762.636v.21h-.9c-.804 0-1.23.342-1.23.954 0 .558.456.894 1.128.894.528 0 .834-.234 1.026-.51.006.3.144.474.552.474h.27v-.45H15.2zm-.69-.798c0 .51-.354.864-.966.864-.408 0-.666-.204-.666-.504 0-.348.246-.51.684-.51h.948v.15zm2.64-1.812c-.546 0-.78.228-.924.462l-.066-.462h-.426V9.5h.492V7.94c0-.486.174-1.02.816-1.02h.246v-.48h-.138zm2.065-.036c-.516 0-.828.216-1.008.45l-.066-.414h-.426V9.5h.492V7.97c0-.69.348-1.116.924-1.116.534 0 .828.336.828.972V9.5h.492V7.796c0-1.014-.546-1.392-1.236-1.392zm6.848 0c-.546 0-.877.252-1.063.582-.174-.39-.54-.582-.965-.582-.474 0-.733.234-.895.456l-.066-.42h-.426V9.5h.492V7.886c0-.612.306-1.032.81-1.032.469 0 .739.312.739.912V9.5h.491V7.862c0-.624.313-1.008.823-1.008.462 0 .726.312.726.912V9.5h.492V7.736c0-.966-.523-1.332-1.159-1.332zm3.164 3.132c.893 0 1.517-.636 1.517-1.566s-.623-1.566-1.517-1.566c-.895 0-1.518.636-1.518 1.566s.623 1.566 1.518 1.566zm0-.438c-.607 0-1.015-.474-1.015-1.128 0-.654.409-1.128 1.015-1.128.605 0 1.014.474 1.014 1.128 0 .654-.409 1.128-1.014 1.128zm3.498-2.658c-.546 0-.78.228-.924.462l-.066-.462h-.426V9.5h.492V7.94c0-.486.174-1.02.816-1.02h.246v-.48h-.138zm1.798 3.096c.708 0 1.212-.45 1.332-1.062h-.498c-.102.396-.438.624-.87.624-.582 0-.948-.408-.966-.99v-.042h2.376c.006-.072.012-.144.012-.21-.024-.906-.588-1.452-1.452-1.452s-1.452.636-1.452 1.566c0 .936.6 1.566 1.518 1.566zm-.972-1.878a.906.906 0 01.912-.822c.51 0 .87.294.918.822h-1.83z" fill="#fff"/></svg>