<svg width="49" height="48" viewBox="0 0 49 48" fill="none" xmlns="http://www.w3.org/2000/svg"><path d="M48.704 47.92c-1.236 0-7.416-.142-9.82-.142-2.54 0-10.231.142-11.536.142v-.995l2.198-.356c2.128-.355 3.021-.924 3.021-2.275 0-1.138-.687-2.56-2.197-4.977l-7.691-12.16-7.691 10.95c-1.786 2.56-2.61 4.48-2.61 5.903 0 1.422.824 2.275 2.953 2.63l2.266.356v.995c-1.236 0-6.73-.142-9.202-.142-2.472 0-6.386.142-7.69.142v-1.066l1.167-.214c3.09-.568 5.974-3.27 8.309-6.328L21.305 25.31 10.387 8.529C7.846 4.617 6.06 2.84 3.314 2.341l-1.442-.284v-.996c1.236 0 7.416.143 9.82.143 2.54 0 10.094-.143 11.399-.143v.996l-2.198.355c-1.854.285-2.884.925-2.884 2.276 0 1.137.687 2.56 2.197 4.977L26.8 20.189l6.455-9.385c1.716-2.56 2.61-4.48 2.61-5.83 0-1.352-.894-2.276-2.954-2.632l-2.266-.355V.99c1.236 0 6.73.143 9.202.143 2.472 0 6.386-.143 7.691-.143v.996L46.37 2.2c-3.09.569-5.906 2.986-8.31 6.328l-9.957 13.51L40.19 40.383c2.541 3.91 4.327 5.688 7.073 6.186l1.442.285v1.066z" fill="#fff"/></svg>