<svg width="121" height="18" viewBox="0 0 121 18" fill="none" xmlns="http://www.w3.org/2000/svg"><path d="M4.496 4.664a5.851 5.851 0 011.83-1.321 5.233 5.233 0 012.22-.48c.866 0 1.563.112 2.09.34a5.93 5.93 0 011.53.98c.24.187.487.271.742.252.252-.02.47-.113.65-.281a.825.825 0 00.27-.632c0-.12-.012-.223-.031-.311a.74.74 0 00-.12-.26 1.1 1.1 0 00-.251-.25c-.747-.615-1.49-1.056-2.23-1.322-.739-.268-1.622-.402-2.65-.402a7.422 7.422 0 00-3.04.62 7.701 7.701 0 00-2.45 1.713 7.955 7.955 0 00-1.641 2.545 8.258 8.258 0 00-.59 3.135c0 1.135.197 2.19.59 3.166.393.975.94 1.827 1.64 2.553.7.729 1.52 1.295 2.46 1.702.94.409 1.95.612 3.031.612.907 0 1.77-.147 2.591-.441a8.058 8.058 0 002.31-1.302 1.032 1.032 0 00.32-.742c0-.294-.08-.523-.24-.691a.906.906 0 00-.59-.282c-.232-.019-.47.057-.71.232a7.454 7.454 0 01-1.75.97c-.607.234-1.25.35-1.93.35a5.319 5.319 0 01-2.22-.47 5.747 5.747 0 01-1.831-1.313 6.09 6.09 0 01-1.23-1.952 6.442 6.442 0 01-.441-2.394c0-.841.147-1.632.44-2.374.294-.74.704-1.39 1.23-1.95zM17.85 1.179c-.294 0-.54.097-.741.29-.201.194-.3.442-.3.75v13.56c0 .295.099.541.3.742.2.2.447.3.74.3.307 0 .557-.099.75-.3.194-.2.289-.447.289-.741V2.219c0-.307-.097-.558-.29-.75-.192-.193-.442-.29-.749-.29zM32.671 1.179h-10.7a.94.94 0 00-.69.27.94.94 0 00-.27.692c0 .28.09.51.27.692.178.179.41.27.69.27h4.32v12.679c0 .294.1.54.3.741.201.2.447.301.741.301s.54-.1.74-.3c.201-.202.3-.448.3-.742V3.1h4.301c.281 0 .51-.091.691-.27a.94.94 0 00.27-.692c0-.282-.09-.51-.27-.692a.943.943 0 00-.693-.268zM48.63 1.43a.8.8 0 00-.6-.251c-.213 0-.392.043-.54.13-.146.086-.273.209-.38.369l-4.76 7.52-4.68-7.438a1.643 1.643 0 00-.38-.43c-.134-.1-.314-.15-.54-.15-.253 0-.477.079-.67.232a.924.924 0 00-.35.601c-.04.247.027.51.201.791l5.34 8.314v4.668c0 .294.099.54.3.742.2.199.44.3.72.3.295 0 .54-.1.741-.3.201-.201.3-.448.3-.742v-4.672l5.38-8.314c.16-.253.228-.504.202-.75a1.054 1.054 0 00-.283-.62zM59.214 1.179c-.293 0-.54.097-.74.29-.201.194-.3.442-.3.75v13.56c0 .295.099.541.3.742.2.2.447.3.74.3.307 0 .557-.099.75-.3.194-.2.289-.447.289-.741V2.219c0-.307-.097-.558-.29-.75-.192-.193-.442-.29-.749-.29zM74.971 1.179c-.294 0-.54.097-.74.29-.201.194-.3.443-.3.75v10.957L65.21 1.56a1.005 1.005 0 00-.801-.38.99.99 0 00-.73.29c-.194.194-.289.443-.289.75v13.56c0 .295.097.541.29.742.191.2.435.3.729.3.307 0 .557-.099.75-.3.191-.2.288-.447.288-.741V4.843l8.72 11.618c.094.119.217.21.37.27.153.06.296.09.43.09.306 0 .552-.099.74-.3.186-.2.28-.447.28-.741V2.219c0-.307-.092-.558-.28-.75-.181-.193-.43-.29-.736-.29z" fill="#fff"/><path fill-rule="evenodd" clip-rule="evenodd" d="M89.272 3.371a7.202 7.202 0 00-2.45-1.622c-.94-.38-1.984-.57-3.13-.57H80.07c-.294 0-.54.097-.74.29-.202.194-.301.442-.301.75v13.56c0 .295.1.541.3.742.2.2.447.3.74.3h3.621c1.147 0 2.19-.19 3.131-.57a7.223 7.223 0 002.45-1.622 7.231 7.231 0 001.6-2.484c.374-.954.56-2.006.56-3.155 0-1.148-.186-2.196-.56-3.143a7.256 7.256 0 00-1.6-2.476zm-.58 8.713a5.512 5.512 0 01-2.03 2.124c-.86.514-1.85.772-2.97.772h-2.58V3.02h2.58c1.12 0 2.109.254 2.97.762a5.445 5.445 0 012.03 2.104c.492.895.74 1.928.74 3.104 0 1.162-.246 2.193-.74 3.095z" fill="#fff"/><path d="M104.302 3.1c.306 0 .552-.086.74-.261a.888.888 0 00.281-.681c0-.294-.093-.532-.281-.712-.185-.179-.434-.27-.74-.27H95.26c-.294 0-.54.098-.74.29-.202.195-.301.443-.301.75v13.561c0 .294.1.54.3.742.2.199.447.3.74.3h9.043c.306 0 .552-.09.74-.27.186-.18.281-.417.281-.711a.881.881 0 00-.281-.681c-.185-.173-.434-.262-.74-.262H96.3V9.892h5.741c.307 0 .553-.09.741-.27.185-.18.28-.411.28-.692a.917.917 0 00-.28-.692c-.186-.18-.434-.27-.741-.27h-5.74V3.1h8.001zM115.582 8.908l4.56-6.089c.16-.24.234-.486.221-.741a.987.987 0 00-.26-.64c-.159-.173-.38-.262-.66-.262-.307 0-.553.1-.741.3L114.22 7.45l-4.299-5.97c-.146-.201-.392-.3-.74-.3-.281 0-.503.092-.669.28a1.144 1.144 0 00-.29.662.97.97 0 00.201.7l4.394 6.104-4.655 6.214c-.16.215-.24.45-.24.712 0 .26.08.489.24.68.16.196.393.29.699.29.281 0 .521-.099.722-.3l4.592-6.119 4.35 6.04a.97.97 0 00.35.289c.127.06.276.09.451.09.294 0 .523-.092.691-.28a1.07 1.07 0 00.27-.681 1.086 1.086 0 00-.22-.723l-4.485-6.229z" fill="#fff"/></svg>