<svg width="308" height="29" viewBox="0 0 308 29" fill="none" xmlns="http://www.w3.org/2000/svg"><path d="M7.398 23.152c-2.68 0-4.456-.472-5.781-1.07L.834 17.3h.572l.572 1.133c1.355 2.706 3.011 3.902 5.66 3.902 3.042 0 4.758-1.573 4.758-4.154 0-2.297-1.265-3.461-4.878-4.783-4.095-1.479-6.142-3.115-6.142-6.797C1.376 2.92 4.598.18 8.602.18c2.5 0 3.944.347 5.33.945l.752 4.972h-.602l-.542-1.164C12.305 2.226 10.74.999 8.36.999c-2.499 0-3.974 1.573-3.974 3.808 0 2.234 1.204 3.367 4.637 4.594 4.516 1.573 6.413 3.367 6.413 7.017.03 3.997-3.674 6.734-8.04 6.734zM26.306 21.201c-1.265 1.133-2.56 1.888-4.185 1.888-2.409 0-3.674-1.132-3.674-3.839V8.803H16.22v-.598l2.379-.944 2.348-4.909h.964v5.035h4.034v1.416H21.91v10.384c0 1.542.722 2.297 1.897 2.297.813 0 1.355-.22 2.107-.786l.392.503zM34.766 23.215c-4.366 0-7.587-2.895-7.587-8.276 0-4.563 3.131-8.055 7.617-8.055 4.486 0 7.587 2.895 7.587 8.275-.03 4.563-3.191 8.056-7.617 8.056zm-.422-15.513c-2.137 0-3.341 1.699-3.341 6.325 0 5.066 1.565 8.37 4.154 8.37 2.168 0 3.342-1.7 3.342-6.325 0-5.066-1.535-8.37-4.155-8.37zM60.9 22.87c-.693 0-2.47-.032-3.824-.032-1.355 0-3.101.031-3.854.031v-.503l.512-.095c1.355-.252 1.596-.692 1.596-3.556v-6.167c0-2.392-.994-3.556-2.77-3.556-1.235 0-2.258.503-3.162 1.196v8.527c0 2.895.211 3.305 1.596 3.556l.512.095v.503c-.753 0-2.499-.031-3.854-.031s-3.131.031-3.854.031v-.503l.603-.095c1.264-.189 1.505-.692 1.505-3.839v-6.797c0-1.7-.271-2.171-1.385-2.706l-.753-.378v-.346l5.24-1.196.42.284v2.202c1.657-1.479 3.192-2.454 5.15-2.454 2.8 0 4.274 1.573 4.274 4.877v6.609c0 3.21.241 3.587 1.536 3.839l.542.094v.41h-.03zM65.266 13.586v.22c.09 4.469 2.408 7.238 5.54 7.238 1.716 0 2.92-.66 4.184-1.983l.422.315c-1.626 2.36-3.734 3.84-6.443 3.84-3.974 0-6.955-2.833-6.955-7.71 0-5.255 3.793-8.591 7.437-8.591 4.034 0 5.991 2.36 6.081 6.703H65.266v-.032zm6.593-.881c-.09-3.304-1.234-4.972-3.04-4.972-2.048 0-3.343 1.825-3.553 4.972h6.593zM97.541 22.87c-.542 0-3.251-.064-4.305-.064-1.114 0-4.486.063-5.058.063v-.44l.963-.158c.933-.157 1.325-.409 1.325-1.007 0-.503-.301-1.133-.963-2.203l-3.373-5.38-3.372 4.846c-.782 1.132-1.144 1.982-1.144 2.611 0 .63.361 1.007 1.295 1.165l.993.157v.44c-.542 0-2.95-.062-4.034-.062-1.084 0-2.8.063-3.372.063v-.472l.512-.095c1.355-.252 2.619-1.447 3.643-2.8l4.877-6.672-4.787-7.426c-1.114-1.73-1.897-2.517-3.101-2.738l-.632-.126v-.44c.542 0 3.251.063 4.305.063 1.114 0 4.426-.063 4.998-.063v.44l-.963.158c-.813.126-1.265.409-1.265 1.007 0 .503.301 1.133.963 2.202l2.89 4.658 2.831-4.154c.753-1.133 1.144-1.982 1.144-2.58 0-.598-.391-1.007-1.294-1.165l-.994-.157v-.44c.542 0 2.95.062 4.034.062 1.084 0 2.8-.063 3.373-.063v.441l-.512.094c-1.355.252-2.59 1.322-3.643 2.801l-4.366 5.979 5.299 8.119c1.114 1.73 1.897 2.517 3.101 2.737l.632.126v.472zM99.95 5.53c-.24 0-.452-.031-.632-.125a1.577 1.577 0 01-.512-.378 1.43 1.43 0 01-.331-.535 1.71 1.71 0 01-.12-.66c0-.253.03-.473.12-.662.09-.22.21-.377.33-.535.121-.157.332-.283.513-.346.21-.094.421-.126.632-.126.241 0 .452.032.632.126.211.095.362.22.512.346.151.158.271.347.331.535.091.22.121.44.121.661 0 .252-.03.472-.121.661-.09.22-.21.378-.331.535-.15.157-.331.283-.512.378-.18.062-.391.125-.632.125zm0-.251c.211 0 .391-.032.542-.126.181-.063.331-.189.452-.315.12-.126.21-.283.301-.472.06-.189.09-.378.09-.566 0-.22-.03-.41-.09-.567a1.265 1.265 0 00-.301-.472 1.69 1.69 0 00-.452-.314c-.181-.063-.361-.126-.542-.126-.21 0-.391.031-.542.126a1.19 1.19 0 00-.452.314c-.12.126-.21.283-.3.472-.06.19-.091.378-.091.567 0 .22.03.409.09.566.06.189.181.346.301.472s.271.252.452.315c.18.094.361.126.542.126zm-.693-.44V2.823h.844c.21 0 .391.063.511.158a.582.582 0 01.181.44c0 .189-.06.315-.181.44-.12.126-.271.158-.481.158l.09-.032c.09 0 .15.032.211.063.06.032.12.095.18.19l.332.597h-.452l-.331-.66c-.03-.064-.06-.095-.091-.095-.03-.032-.09-.032-.15-.032h-.21v.787h-.453zm.392-1.134h.391c.121 0 .211-.031.241-.063.06-.031.09-.126.09-.22s-.03-.189-.09-.22a.545.545 0 00-.241-.063h-.391v.566zM118.355 23.124c-5.383 0-9.243-4.418-9.243-11.505 0-7.086 3.923-11.441 9.183-11.441 4.411 0 7.449 2.416 8.394 7.086.03.126-.06.255-.184.255h-1.126c-.12 0-.274-.094-.274-.255-.758-3.782-3.254-5.72-6.81-5.72-4.378 0-7.572 3.719-7.572 10.107s3.224 10.107 7.632 10.107c4.835 0 7.298-3.527 7.268-8.773h-7.178c-.12 0-.244-.126-.244-.255v-.859c0-.126.121-.255.244-.255h8.515c.12 0 .244.126.244.255.12 7.087-2.981 11.25-8.849 11.25v.003zM129.941 22.775c-.121 0-.244-.126-.244-.255l.09-11.092-.09-10.646c0-.126.12-.255.244-.255h1.062c.121 0 .244.126.244.255l-.06 10.582.06 11.156c0 .126-.12.255-.244.255h-1.062zM140.674 23.124c-4.501 0-6.994-3.402-6.994-8.518 0-5.117 2.493-8.55 6.994-8.55 4.501 0 6.994 3.433 6.994 8.55 0 5.116-2.463 8.518-6.994 8.518zm0-1.24c3.649 0 5.444-2.829 5.444-7.278 0-4.45-1.825-7.31-5.444-7.31-3.619.031-5.443 2.86-5.443 7.31 0 4.45 1.824 7.278 5.443 7.278zM156.671 23.093c-2.463 0-4.258-1.24-5.26-3.56l.06 2.955c0 .126-.121.255-.244.255h-1.033c-.12 0-.244-.126-.244-.255l.091-12.807-.091-8.9c0-.125.121-.254.244-.254h1.063c.121 0 .244.126.244.255l-.03 8.773c1.003-2.162 2.797-3.464 5.23-3.464 4.073 0 6.265 3.688 6.265 8.455 0 4.767-2.249 8.55-6.295 8.55v-.003zm-.305-1.24c3.496 0 5.05-3.147 5.05-7.15 0-4.002-1.521-7.373-5.016-7.373-2.981 0-5.019 2.351-5.05 7.055-.03 4.705 1.825 7.468 5.016 7.468zM176.313 22.775c-.12 0-.244-.126-.244-.255l.06-3.084c-.972 2.256-2.767 3.622-5.259 3.622-4.104 0-6.266-3.688-6.266-8.456 0-4.767 2.219-8.518 6.266-8.518 2.462 0 4.257 1.24 5.259 3.528l-.06-2.955c0-.126.121-.255.244-.255h1.033c.12 0 .244.126.244.255l-.091 7.628.091 8.232c0 .126-.121.255-.244.255h-1.033v.003zm-5.169-.954c3.04 0 5.019-2.385 5.049-7.055.03-4.673-1.825-7.436-4.986-7.436-3.529 0-5.11 3.147-5.11 7.118 0 3.972 1.551 7.373 5.05 7.373h-.003zM180.874 22.775c-.12 0-.243-.126-.243-.255l.09-11.092-.09-10.646c0-.126.12-.255.243-.255h1.063c.121 0 .244.126.244.255l-.06 10.582.06 11.156c0 .126-.12.255-.244.255h-1.063zM196.931 13.62h-4.986l.06 8.9c0 .126-.12.255-.243.255h-1.157c-.12 0-.243-.126-.243-.255l.09-11.379-.09-10.362c0-.126.12-.255.243-.255h6.236c4.347 0 7.208 2.193 7.208 6.482 0 4.576-2.951 6.612-7.115 6.612l-.003.003zm-5.016-2.447v1.114h5.079c3.406 0 5.474-1.43 5.474-5.278 0-3.496-2.038-5.116-5.594-5.116h-4.866l-.09 9.28h-.003zM216.453 22.775c-.12 0-.244-.126-.244-.255l.061-3.084c-.973 2.256-2.767 3.622-5.26 3.622-4.104 0-6.266-3.688-6.266-8.456 0-4.767 2.219-8.518 6.266-8.518 2.462 0 4.257 1.24 5.26 3.528l-.061-2.955c0-.126.121-.255.244-.255h1.033c.12 0 .244.126.244.255l-.091 7.628.091 8.232c0 .126-.121.255-.244.255h-1.033v.003zm-5.169-.954c3.041 0 5.016-2.385 5.049-7.055.03-4.673-1.825-7.436-4.986-7.436-3.529 0-5.11 3.147-5.11 7.118 0 3.972 1.551 7.373 5.05 7.373h-.003zM225.151 27.923c-.06.157-.183.255-.334.255h-.942a.175.175 0 01-.154-.255l1.765-5.211-6.082-16.08c-.06-.095.03-.224.15-.224h1.217c.15 0 .274.095.334.224l5.139 13.921 4.411-13.89c.06-.157.184-.255.334-.255h1.126c.121 0 .214.126.151.255l-7.115 21.263v-.003zM235.457 15.943l.061 6.58c0 .126-.121.255-.244.255h-1.096c-.121 0-.244-.126-.244-.255l.09-6.58-.06-9.28c0-.126.12-.255.244-.255h1.033c.12 0 .243.126.243.255l-.06 3.116c.882-1.876 2.493-3.751 5.049-3.751 2.283 0 3.893 1.176 4.532 3.75.942-2 2.583-3.75 5.049-3.75 3.011 0 4.835 2.064 4.835 6.611v3.304l.03 6.58c0 .126-.12.255-.244.255h-1.065c-.121 0-.244-.126-.244-.255l.06-6.58v-3.147c0-3.97-1.46-5.434-3.709-5.434-2.039 0-3.436 1.62-4.441 4.194.03.35.03.7.03 1.08v3.304l.03 6.58c0 .126-.121.255-.244.255h-1.066c-.12 0-.244-.126-.244-.255l.06-6.58v-3.147c0-3.971-1.46-5.434-3.709-5.434s-3.649 1.875-4.682 4.83v3.75l.006.004zM270.368 16.991c.12 0 .213.126.213.255-.578 3.59-2.706 5.878-6.446 5.878-4.621 0-7.054-3.465-7.054-8.487s2.647-8.581 6.874-8.581 6.629 3.018 6.72 8.232c0 .126-.121.255-.244.255l-11.83.031c0 4.61 1.855 7.31 5.564 7.31 2.828 0 4.441-1.746 4.956-4.641 0-.158.151-.255.274-.255h.973v.003zm-6.416-9.692c-3.101 0-4.926 2.32-5.29 5.976h10.399c-.03-3.305-1.794-5.976-5.109-5.976zM273.225 22.775c-.12 0-.244-.126-.244-.255l.06-6.93-.06-8.93c0-.126.121-.255.244-.255h1.033c.12 0 .244.126.244.255l-.061 3.115c.882-1.844 2.617-3.75 5.32-3.75 3.162 0 5.11 2.13 5.11 6.61v3.116l.03 6.769c0 .126-.121.255-.244.255h-1.066c-.12 0-.244-.126-.244-.255l.06-6.769v-2.955c0-3.94-1.58-5.434-3.953-5.434-2.372 0-3.923 1.844-4.955 4.83v3.56l.03 6.768c0 .126-.121.255-.244.255h-1.066.006zM294.237 22.457c0 .157-.09.286-.244.318-.454.126-1.095.255-1.64.255-2.039 0-3.559-1.08-3.559-4.544l.03-10.775h-1.795c-.12 0-.243-.126-.243-.255v-.793c0-.126.12-.255.243-.255h1.795l-.06-3.845c0-.126.12-.255.244-.255h1.065c.121 0 .244.126.244.255l-.03 3.845h3.71c.12 0 .243.126.243.255v.793c0 .126-.12.255-.243.255h-3.71v10.775c0 2.448.638 3.178 2.159 3.178.548 0 1.126-.063 1.551-.157a.197.197 0 01.243.191v.762l-.003-.003zM301.749 23.093c-3.923 0-6.416-1.876-6.506-5.879 0-.125.12-.255.244-.255h.972c.121 0 .244.126.244.255.091 3.21 1.855 4.705 5.079 4.705 2.677 0 4.592-1.271 4.592-3.528 0-5.308-10.794-1.463-10.794-7.82 0-2.954 2.403-4.48 5.748-4.48s5.898 1.494 6.052 4.893c0 .126-.121.255-.244.255h-.913c-.12 0-.243-.126-.243-.255-.151-2.637-2.159-3.72-4.682-3.72-2.523 0-4.258 1.08-4.258 3.241 0 4.83 10.794.985 10.794 7.786 0 3.017-2.676 4.798-6.082 4.798l-.003.004z" fill="#fff"/></svg>