<svg width="135" height="32" viewBox="0 0 135 32" fill="none" xmlns="http://www.w3.org/2000/svg"><rect width="135" height="32" rx="16" fill="#000"/><path d="M30.532 22v-1.44H24.79V9.4h-1.566V22h7.308zm5.108.108c2.124 0 3.636-1.35 3.996-3.186h-1.494c-.306 1.188-1.314 1.872-2.61 1.872-1.746 0-2.844-1.224-2.898-2.97v-.126h7.128c.018-.216.036-.432.036-.63-.072-2.718-1.764-4.356-4.356-4.356-2.592 0-4.356 1.908-4.356 4.698 0 2.808 1.8 4.698 4.554 4.698zm-2.916-5.634c.144-1.494 1.386-2.466 2.736-2.466 1.53 0 2.61.882 2.754 2.466h-5.49zm16.877 4.176c-.414 0-.594-.126-.594-.612v-4.014c0-2.142-1.35-3.312-3.69-3.312-2.214 0-3.672 1.062-3.888 2.862h1.476c.18-.936 1.044-1.548 2.34-1.548 1.44 0 2.286.72 2.286 1.908v.63h-2.7c-2.412 0-3.69 1.026-3.69 2.862 0 1.674 1.368 2.682 3.384 2.682 1.584 0 2.502-.702 3.078-1.53.018.9.432 1.422 1.656 1.422h.81v-1.35H49.6zm-2.07-2.394c0 1.53-1.062 2.592-2.898 2.592-1.224 0-1.998-.612-1.998-1.512 0-1.044.738-1.53 2.052-1.53h2.844v.45zm7.92-5.436c-1.638 0-2.34.684-2.772 1.386l-.198-1.386h-1.278V22h1.476v-4.68c0-1.458.522-3.06 2.448-3.06h.738v-1.44h-.414zm6.194-.108c-1.548 0-2.484.648-3.024 1.35l-.198-1.242h-1.278V22h1.476v-4.59c0-2.07 1.044-3.348 2.772-3.348 1.602 0 2.484 1.008 2.484 2.916V22h1.476v-5.112c0-3.042-1.638-4.176-3.708-4.176zm20.542 0c-1.638 0-2.627.756-3.186 1.746-.522-1.17-1.62-1.746-2.898-1.746-1.421 0-2.195.702-2.681 1.368l-.198-1.26h-1.279V22h1.477v-4.842c0-1.836.918-3.096 2.43-3.096 1.403 0 2.213.936 2.213 2.736V22h1.477v-4.914c0-1.872.936-3.024 2.465-3.024 1.386 0 2.178.936 2.178 2.736V22h1.477v-5.292c0-2.898-1.567-3.996-3.475-3.996zm9.492 9.396c2.682 0 4.554-1.908 4.554-4.698 0-2.79-1.872-4.698-4.554-4.698-2.682 0-4.554 1.908-4.554 4.698 0 2.79 1.872 4.698 4.554 4.698zm0-1.314c-1.818 0-3.042-1.422-3.042-3.384s1.224-3.384 3.042-3.384c1.818 0 3.042 1.422 3.042 3.384s-1.224 3.384-3.042 3.384zm10.495-7.974c-1.638 0-2.34.684-2.772 1.386l-.198-1.386h-1.278V22h1.476v-4.68c0-1.458.522-3.06 2.448-3.06h.738v-1.44h-.414zm5.396 9.288c2.124 0 3.636-1.35 3.996-3.186h-1.494c-.306 1.188-1.314 1.872-2.61 1.872-1.746 0-2.844-1.224-2.898-2.97v-.126h7.128c.018-.216.036-.432.036-.63-.072-2.718-1.764-4.356-4.356-4.356-2.592 0-4.356 1.908-4.356 4.698 0 2.808 1.8 4.698 4.554 4.698zm-2.916-5.634c.144-1.494 1.386-2.466 2.736-2.466 1.53 0 2.61.882 2.754 2.466h-5.49z" fill="#fff"/></svg>