<svg width="134" height="104" viewBox="0 0 134 104" fill="none" xmlns="http://www.w3.org/2000/svg"><path d="M1.01 66l.74-1.89H4.8L5.54 66h.93l-2.66-7H2.78L.11 66h.9zm2.26-6.05l1.27 3.37H2.01l1.26-3.37zM7.142 66h.82v-7h-.82v7zm1.943 0h.82v-7h-.82v7zm4.94-1.33c0 .9.35 1.33 1.33 1.33h.89v-.75h-.81c-.44 0-.59-.16-.59-.59v-3.01h1.32v-.75h-1.32v-1.43h-.82v1.43h-.92v.75h.92v3.02zm5.292-3.77c-.91 0-1.3.38-1.54.77l-.11-.77h-.71V66h.82v-2.6c0-.81.29-1.7 1.36-1.7h.41v-.8h-.23zm5.274 4.35c-.23 0-.33-.07-.33-.34v-2.23c0-1.19-.75-1.84-2.05-1.84-1.23 0-2.04.59-2.16 1.59h.82c.1-.52.58-.86 1.3-.86.8 0 1.27.4 1.27 1.06v.35h-1.5c-1.34 0-2.05.57-2.05 1.59 0 .93.76 1.49 1.88 1.49.88 0 1.39-.39 1.71-.85.01.5.24.79.92.79h.45v-.75h-.26zm-1.15-1.33c0 .85-.59 1.44-1.61 1.44-.68 0-1.11-.34-1.11-.84 0-.58.41-.85 1.14-.85h1.58v.25zm6.002-2.24c-.31-.49-.89-.84-1.75-.84-1.41 0-2.45 1.05-2.45 2.61 0 1.66 1.04 2.61 2.45 2.61.86 0 1.41-.41 1.75-.88l.11.82h.71v-7h-.82v2.68zm-1.67 3.65c-1.01 0-1.69-.77-1.69-1.88 0-1.11.68-1.88 1.69-1.88 1 0 1.68.78 1.68 1.9 0 1.09-.68 1.86-1.68 1.86zm4.027-5.29c.3 0 .53-.22.53-.53 0-.31-.23-.53-.53-.53-.3 0-.53.22-.53.53 0 .31.23.53.53.53zM31.38 66h.82v-5.1h-.82V66zm4.444-5.16c-.86 0-1.38.36-1.68.75l-.11-.69h-.71V66h.82v-2.55c0-1.15.58-1.86 1.54-1.86.89 0 1.38.56 1.38 1.62V66h.82v-2.84c0-1.69-.91-2.32-2.06-2.32zm7.125.94c-.32-.57-.89-.94-1.75-.94-1.41 0-2.45 1.05-2.45 2.61 0 1.66 1.04 2.61 2.45 2.61.86 0 1.41-.36 1.75-.94v.6c0 1.11-.58 1.61-1.65 1.61-.85 0-1.42-.36-1.56-1h-.84c.13 1.12 1.04 1.73 2.34 1.73 1.75 0 2.53-.84 2.53-2.31V60.9h-.71l-.11.88zm-1.67 3.55c-1.01 0-1.69-.77-1.69-1.88 0-1.11.68-1.88 1.69-1.88 1 0 1.68.78 1.68 1.9 0 1.09-.68 1.86-1.68 1.86zm6.644-5.29c.3 0 .53-.22.53-.53 0-.31-.23-.53-.53-.53-.3 0-.53.22-.53.53 0 .31.23.53.53.53zm-.42 5.96h.82v-5.1h-.82V66zm4.444-5.16c-.86 0-1.38.36-1.68.75l-.11-.69h-.71V66h.82v-2.55c0-1.15.58-1.86 1.54-1.86.89 0 1.38.56 1.38 1.62V66h.82v-2.84c0-1.69-.91-2.32-2.06-2.32zm4.32 5.16h.99l1.91-5.1h-.86l-1.53 4.17-1.54-4.17h-.88l1.91 5.1zm5.637.06c1.49 0 2.53-1.06 2.53-2.61 0-1.55-1.04-2.61-2.53-2.61-1.49 0-2.53 1.06-2.53 2.61 0 1.55 1.04 2.61 2.53 2.61zm0-.73c-1.01 0-1.69-.79-1.69-1.88 0-1.09.68-1.88 1.69-1.88 1.01 0 1.69.79 1.69 1.88 0 1.09-.68 1.88-1.69 1.88zm3.47.67h.82v-7h-.82v7zm3.344 0h.99l1.91-5.1h-.86l-1.53 4.17-1.54-4.17h-.88l1.91 5.1zm5.637.06c1.18 0 2.02-.75 2.22-1.77h-.83c-.17.66-.73 1.04-1.45 1.04-.97 0-1.58-.68-1.61-1.65v-.07h3.96c.01-.12.02-.24.02-.35-.04-1.51-.98-2.42-2.42-2.42s-2.42 1.06-2.42 2.61c0 1.56 1 2.61 2.53 2.61zm-1.62-3.13c.08-.83.77-1.37 1.52-1.37.85 0 1.45.49 1.53 1.37h-3.05zm4.636 1.39c.02 1.12.93 1.74 2.25 1.74 1.13 0 2.04-.59 2.04-1.54 0-1.13-.93-1.35-2.09-1.49-.74-.09-1.28-.16-1.28-.72 0-.47.48-.77 1.19-.77.7 0 1.18.39 1.24.91h.84c-.08-1.06-.92-1.6-2.08-1.61-1.15-.01-2 .6-2 1.53 0 1.06.91 1.29 2.05 1.43.76.09 1.32.14 1.32.78 0 .47-.51.78-1.23.78-.85 0-1.38-.44-1.41-1.04h-.84zM87.55 60.9c-.91 0-1.3.38-1.54.77l-.11-.77h-.71V66h.82v-2.6c0-.81.29-1.7 1.36-1.7h.41v-.8h-.23zm1.36-.86c.3 0 .53-.22.53-.53 0-.31-.23-.53-.53-.53-.3 0-.53.22-.53.53 0 .31.23.53.53.53zM88.49 66h.82v-5.1h-.82V66zm1.734-1.68c.02 1.12.93 1.74 2.25 1.74 1.13 0 2.04-.59 2.04-1.54 0-1.13-.93-1.35-2.09-1.49-.74-.09-1.28-.16-1.28-.72 0-.47.48-.77 1.19-.77.7 0 1.18.39 1.24.91h.84c-.08-1.06-.92-1.6-2.08-1.61-1.15-.01-2 .6-2 1.53 0 1.06.91 1.29 2.05 1.43.76.09 1.32.14 1.32.78 0 .47-.51.78-1.23.78-.85 0-1.38-.44-1.41-1.04h-.84zm5.2 1.68h.82v-1.34l1.03-1.06 1.69 2.4h.99l-2.13-2.99 1.99-2.11h-1.01l-2.56 2.71V59h-.82v7zm5.008-.5c0 .34.24.56.57.56.33 0 .57-.22.57-.56 0-.34-.24-.56-.57-.56-.33 0-.57.22-.57.56zM3.55 71.74l-1.17.54.03-1.29h-.57l.02 1.28-1.16-.53-.23.56 1.22.45-.84.99.43.4.83-1.05.84 1.05.44-.4-.83-.98 1.22-.45-.23-.57zM4.928 78h.87v-3.06h2.88v-.8h-2.88V71.8h3.48V71h-4.35v7zm7.22-5.1c-.91 0-1.3.38-1.54.77l-.11-.77h-.71V78h.82v-2.6c0-.81.29-1.7 1.36-1.7h.41v-.8h-.23zm2.998 5.16c1.49 0 2.53-1.06 2.53-2.61 0-1.55-1.04-2.61-2.53-2.61-1.49 0-2.53 1.06-2.53 2.61 0 1.55 1.04 2.61 2.53 2.61zm0-.73c-1.01 0-1.69-.79-1.69-1.88 0-1.09.68-1.88 1.69-1.88 1.01 0 1.69.79 1.69 1.88 0 1.09-.68 1.88-1.69 1.88zm9.16-4.49c-.91 0-1.46.42-1.77.97-.29-.65-.9-.97-1.61-.97-.79 0-1.22.39-1.49.76l-.11-.7h-.71V78h.82v-2.69c0-1.02.51-1.72 1.35-1.72.78 0 1.23.52 1.23 1.52V78h.82v-2.73c0-1.04.52-1.68 1.37-1.68.77 0 1.21.52 1.21 1.52V78h.82v-2.94c0-1.61-.87-2.22-1.93-2.22zm6.71-1.08c0 .35-.16.6-.49.6h-1.14v.75h1.13c.22 0 .38-.04.48-.13V78h.84v-7h-.82v.76zm4.81 6.24h.85v-5.52l2.32 5.52h.77l2.32-5.52V78h.85v-7h-1.08l-2.45 5.81-2.48-5.81h-1.1v7zm12.857-.75c-.23 0-.33-.07-.33-.34v-2.23c0-1.19-.75-1.84-2.05-1.84-1.23 0-2.04.59-2.16 1.59h.82c.1-.52.58-.86 1.3-.86.8 0 1.27.4 1.27 1.06v.35h-1.5c-1.34 0-2.05.57-2.05 1.59 0 .93.76 1.49 1.88 1.49.88 0 1.39-.39 1.71-.85.01.5.24.79.92.79h.45v-.75h-.26zm-1.15-1.33c0 .85-.59 1.44-1.61 1.44-.68 0-1.11-.34-1.11-.84 0-.58.41-.85 1.14-.85h1.58v.25zm3.335 2.11l-.25.62c-.19.48-.27.6-.74.6h-.73V80h.98c.72 0 .91-.32 1.23-1.14l2.35-5.96h-.87l-1.52 4.07-1.57-4.07h-.87l1.99 5.13zm3.343-1.08c-.42 0-.66.25-.66.58 0 .36.23.54.53.54.12 0 .26-.04.34-.12.01.04.01.08.01.13 0 .34-.2.79-.84.8v.47c.88-.02 1.41-.53 1.41-1.38 0-.55-.3-1.02-.79-1.02zm6.598 1.11c1.24 0 2.07-.7 2.27-1.8h-.87c-.16.65-.66 1.07-1.39 1.07-.98 0-1.64-.76-1.64-1.87s.66-1.89 1.64-1.89c.75 0 1.25.41 1.4 1.09h.86c-.21-1.12-1-1.82-2.25-1.82-1.48 0-2.49 1.06-2.49 2.62 0 1.59.98 2.6 2.47 2.6zm5.519 0c1.49 0 2.53-1.06 2.53-2.61 0-1.55-1.04-2.61-2.53-2.61-1.49 0-2.53 1.06-2.53 2.61 0 1.55 1.04 2.61 2.53 2.61zm0-.73c-1.01 0-1.69-.79-1.69-1.88 0-1.09.68-1.88 1.69-1.88 1.01 0 1.69.79 1.69 1.88 0 1.09-.68 1.88-1.69 1.88zm9.16-4.49c-.91 0-1.46.42-1.77.97-.29-.65-.9-.97-1.61-.97-.79 0-1.22.39-1.49.76l-.11-.7h-.71V78h.82v-2.69c0-1.02.51-1.72 1.35-1.72.78 0 1.23.52 1.23 1.52V78h.82v-2.73c0-1.04.52-1.68 1.37-1.68.77 0 1.21.52 1.21 1.52V78h.82v-2.94c0-1.61-.87-2.22-1.93-2.22zm8.672 0c-.91 0-1.46.42-1.77.97-.29-.65-.9-.97-1.61-.97-.79 0-1.22.39-1.49.76l-.11-.7h-.71V78h.82v-2.69c0-1.02.51-1.72 1.35-1.72.78 0 1.23.52 1.23 1.52V78h.82v-2.73c0-1.04.52-1.68 1.37-1.68.77 0 1.21.52 1.21 1.52V78h.82v-2.94c0-1.61-.87-2.22-1.93-2.22zm3.402-.8c.3 0 .53-.22.53-.53 0-.31-.23-.53-.53-.53-.3 0-.53.22-.53.53 0 .31.23.53.53.53zm-.42 5.96h.82v-5.1h-.82V78zm1.733-1.68c.02 1.12.93 1.74 2.25 1.74 1.13 0 2.04-.59 2.04-1.54 0-1.13-.93-1.35-2.09-1.49-.74-.09-1.28-.16-1.28-.72 0-.47.48-.77 1.19-.77.7 0 1.18.39 1.24.91h.84c-.08-1.06-.92-1.6-2.08-1.61-1.15-.01-2 .6-2 1.53 0 1.06.91 1.29 2.05 1.43.76.09 1.32.14 1.32.78 0 .47-.51.78-1.23.78-.85 0-1.38-.44-1.41-1.04h-.84zm4.893 0c.02 1.12.93 1.74 2.25 1.74 1.13 0 2.04-.59 2.04-1.54 0-1.13-.93-1.35-2.09-1.49-.74-.09-1.28-.16-1.28-.72 0-.47.48-.77 1.19-.77.7 0 1.18.39 1.24.91h.84c-.08-1.06-.92-1.6-2.08-1.61-1.15-.01-2 .6-2 1.53 0 1.06.91 1.29 2.05 1.43.76.09 1.32.14 1.32.78 0 .47-.51.78-1.23.78-.85 0-1.38-.44-1.41-1.04h-.84zm5.62-4.28c.3 0 .53-.22.53-.53 0-.31-.23-.53-.53-.53-.3 0-.53.22-.53.53 0 .31.23.53.53.53zm-.42 5.96h.82v-5.1h-.82V78zm4.294.06c1.49 0 2.53-1.06 2.53-2.61 0-1.55-1.04-2.61-2.53-2.61-1.49 0-2.53 1.06-2.53 2.61 0 1.55 1.04 2.61 2.53 2.61zm0-.73c-1.01 0-1.69-.79-1.69-1.88 0-1.09.68-1.88 1.69-1.88 1.01 0 1.69.79 1.69 1.88 0 1.09-.68 1.88-1.69 1.88zm5.97-4.49c-.86 0-1.38.36-1.68.75l-.11-.69h-.71V78h.82v-2.55c0-1.15.58-1.86 1.54-1.86.89 0 1.38.56 1.38 1.62V78h.82v-2.84c0-1.69-.91-2.32-2.06-2.32zm2.895 3.48c.02 1.12.93 1.74 2.25 1.74 1.13 0 2.04-.59 2.04-1.54 0-1.13-.93-1.35-2.09-1.49-.74-.09-1.28-.16-1.28-.72 0-.47.48-.77 1.19-.77.7 0 1.18.39 1.24.91h.84c-.08-1.06-.92-1.6-2.08-1.61-1.15-.01-2 .6-2 1.53 0 1.06.91 1.29 2.05 1.43.76.09 1.32.14 1.32.78 0 .47-.51.78-1.23.78-.85 0-1.38-.44-1.41-1.04h-.84zM.35 88.32c.02 1.12.93 1.74 2.25 1.74 1.13 0 2.04-.59 2.04-1.54 0-1.13-.93-1.35-2.09-1.49-.74-.09-1.28-.16-1.28-.72 0-.47.48-.77 1.19-.77.7 0 1.18.39 1.24.91h.84c-.08-1.06-.92-1.6-2.08-1.61-1.15-.01-2 .6-2 1.53 0 1.06.91 1.29 2.05 1.43.76.09 1.32.14 1.32.78 0 .47-.51.78-1.23.78-.85 0-1.38-.44-1.41-1.04H.35zm5.58.35c0 .9.35 1.33 1.33 1.33h.89v-.75h-.81c-.44 0-.59-.16-.59-.59v-3.01h1.32v-.75H6.75v-1.43h-.82v1.43h-.92v.75h.92v3.02zm7.363.58c-.23 0-.33-.07-.33-.34v-2.23c0-1.19-.75-1.84-2.05-1.84-1.23 0-2.04.59-2.16 1.59h.82c.1-.52.58-.86 1.3-.86.8 0 1.27.4 1.27 1.06v.35h-1.5c-1.34 0-2.05.57-2.05 1.59 0 .93.76 1.49 1.88 1.49.88 0 1.39-.39 1.71-.85.01.5.24.79.92.79h.45v-.75h-.26zm-1.15-1.33c0 .85-.59 1.44-1.61 1.44-.68 0-1.11-.34-1.11-.84 0-.58.41-.85 1.14-.85h1.58v.25zm4.4-3.02c-.91 0-1.3.38-1.54.77l-.11-.77h-.71V90h.82v-2.6c0-.81.29-1.7 1.36-1.7h.41v-.8h-.23zm1.487 3.77c0 .9.35 1.33 1.33 1.33h.89v-.75h-.81c-.44 0-.59-.16-.59-.59v-3.01h1.32v-.75h-1.32v-1.43h-.82v1.43h-.92v.75h.92v3.02zm5.008-3.02h.92V90h.82v-4.35h1.44v-.75h-1.44v-.59c0-.39.15-.56.56-.56h.88V83h-.93c-.95 0-1.33.43-1.33 1.33v.57h-.92v.75zm6.132-.75c-.91 0-1.3.38-1.54.77l-.11-.77h-.71V90h.82v-2.6c0-.81.29-1.7 1.36-1.7h.41v-.8h-.23zm2.998 5.16c1.49 0 2.53-1.06 2.53-2.61 0-1.55-1.04-2.61-2.53-2.61-1.49 0-2.53 1.06-2.53 2.61 0 1.55 1.04 2.61 2.53 2.61zm0-.73c-1.01 0-1.69-.79-1.69-1.88 0-1.09.68-1.88 1.69-1.88 1.01 0 1.69.79 1.69 1.88 0 1.09-.68 1.88-1.69 1.88zm9.16-4.49c-.91 0-1.46.42-1.77.97-.29-.65-.9-.97-1.61-.97-.79 0-1.22.39-1.49.76l-.11-.7h-.71V90h.82v-2.69c0-1.02.51-1.72 1.35-1.72.78 0 1.23.52 1.23 1.52V90h.82v-2.73c0-1.04.52-1.68 1.37-1.68.77 0 1.21.52 1.21 1.52V90h.82v-2.94c0-1.61-.87-2.22-1.93-2.22zm5.68 2.17c0 2 .91 3.05 2.66 3.05s2.68-1.05 2.68-3.05V83h-.87v4.06c0 1.45-.58 2.2-1.81 2.2-1.21 0-1.79-.75-1.79-2.2V83h-.87v4.01zm6.38.7c.05 1.38 1.05 2.35 2.76 2.35 1.47 0 2.49-.85 2.49-2.06 0-1.36-1.17-1.74-2.31-1.93-1.05-.18-1.9-.35-1.9-1.19 0-.75.61-1.15 1.52-1.15.95 0 1.6.53 1.7 1.34h.9c-.08-1.26-1.04-2.13-2.6-2.13-1.42 0-2.39.8-2.39 1.99 0 1.36 1.16 1.73 2.29 1.92 1.06.18 1.92.36 1.92 1.23 0 .76-.67 1.19-1.61 1.19-1.07 0-1.8-.62-1.87-1.56h-.9zM61.983 90c2.19 0 3.52-1.41 3.52-3.5 0-2.1-1.33-3.5-3.52-3.5h-2.24v7h2.24zm-1.37-6.2h1.37c1.7 0 2.63 1.06 2.63 2.7 0 1.63-.93 2.7-2.63 2.7h-1.37v-5.4zM71.567 88c0-1.36-1.17-1.74-2.31-1.93-1.05-.18-1.9-.35-1.9-1.19 0-.75.61-1.15 1.52-1.15.95 0 1.6.53 1.7 1.34h.9c-.07-1.12-.83-1.93-2.09-2.1v-1.05h-.76v1.03c-1.28.09-2.14.86-2.14 1.98 0 1.36 1.16 1.73 2.29 1.92 1.06.18 1.92.36 1.92 1.23 0 .76-.67 1.19-1.61 1.19-1.07 0-1.8-.62-1.87-1.56h-.9c.05 1.25.88 2.17 2.31 2.33v1.03h.76v-1.02c1.3-.11 2.18-.93 2.18-2.05zm4.414-1.64c.67-.18 1.13-.69 1.13-1.57 0-1.1-.91-1.85-2.35-1.85-1.38 0-2.34.85-2.35 2.08h.83c.01-.8.65-1.33 1.53-1.33.84 0 1.48.44 1.48 1.15s-.52 1.23-1.56 1.23h-.55v.73h.6c1.09 0 1.69.47 1.69 1.2 0 .8-.7 1.31-1.61 1.31-.99 0-1.71-.55-1.72-1.47h-.83c0 1.39.98 2.22 2.5 2.22s2.52-.81 2.52-2c0-1.07-.67-1.58-1.31-1.7zm7.15 4.94c-1.12-1.46-1.54-2.77-1.54-4.3 0-1.52.43-2.83 1.54-4.3h-.9c-1.03 1.34-1.45 2.79-1.45 4.3 0 1.54.43 2.97 1.45 4.3h.9zm3.088-1.24c1.49 0 2.53-1.06 2.53-2.61 0-1.55-1.04-2.61-2.53-2.61-1.49 0-2.53 1.06-2.53 2.61 0 1.55 1.04 2.61 2.53 2.61zm0-.73c-1.01 0-1.69-.79-1.69-1.88 0-1.09.68-1.88 1.69-1.88 1.01 0 1.69.79 1.69 1.88 0 1.09-.68 1.88-1.69 1.88zm5.83-4.43c-.91 0-1.3.38-1.54.77l-.11-.77h-.71V90h.82v-2.6c0-.81.29-1.7 1.36-1.7h.41v-.8h-.23zm6.129-.06c-.86 0-1.41.41-1.75.88V83h-.82v7h.71l.11-.78c.31.49.89.84 1.75.84 1.41 0 2.45-1.05 2.45-2.61 0-1.66-1.04-2.61-2.45-2.61zm-.08 4.49c-1 0-1.68-.78-1.68-1.9 0-1.09.68-1.86 1.68-1.86 1.01 0 1.69.77 1.69 1.88 0 1.11-.68 1.88-1.69 1.88zm7.977-.08c-.23 0-.33-.07-.33-.34v-2.23c0-1.19-.75-1.84-2.05-1.84-1.23 0-2.04.59-2.16 1.59h.82c.1-.52.58-.86 1.3-.86.8 0 1.27.4 1.27 1.06v.35h-1.5c-1.34 0-2.05.57-2.05 1.59 0 .93.76 1.49 1.88 1.49.88 0 1.39-.39 1.71-.85.01.5.24.79.92.79h.45v-.75h-.26zm-1.15-1.33c0 .85-.59 1.44-1.61 1.44-.68 0-1.11-.34-1.11-.84 0-.58.41-.85 1.14-.85h1.58v.25zm1.83.4c.02 1.12.93 1.74 2.25 1.74 1.13 0 2.04-.59 2.04-1.54 0-1.13-.93-1.35-2.09-1.49-.74-.09-1.28-.16-1.28-.72 0-.47.48-.77 1.19-.77.7 0 1.18.39 1.24.91h.84c-.08-1.06-.92-1.6-2.08-1.61-1.15-.01-2 .6-2 1.53 0 1.06.91 1.29 2.05 1.43.76.09 1.32.14 1.32.78 0 .47-.51.78-1.23.78-.85 0-1.38-.44-1.41-1.04h-.84zm7.55 1.74c1.18 0 2.02-.75 2.22-1.77h-.83c-.17.66-.73 1.04-1.45 1.04-.97 0-1.58-.68-1.61-1.65v-.07h3.96c.01-.12.02-.24.02-.35-.04-1.51-.98-2.42-2.42-2.42s-2.42 1.06-2.42 2.61c0 1.56 1 2.61 2.53 2.61zm-1.62-3.13c.08-.83.77-1.37 1.52-1.37.85 0 1.45.49 1.53 1.37h-3.05zM2.85 102.06c1.24 0 2.07-.7 2.27-1.8h-.87c-.16.65-.66 1.07-1.39 1.07-.98 0-1.64-.76-1.64-1.87s.66-1.89 1.64-1.89c.75 0 1.25.41 1.4 1.09h.86c-.21-1.12-1-1.82-2.25-1.82-1.48 0-2.49 1.06-2.49 2.62 0 1.59.98 2.6 2.47 2.6zm6.739-2.61c0 1.15-.56 1.86-1.49 1.86-.85 0-1.33-.56-1.33-1.62V96.9h-.82v2.84c0 1.69.89 2.32 2.01 2.32.84 0 1.33-.36 1.63-.74l.11.68h.71v-5.1h-.82v2.55zm4.298-2.55c-.91 0-1.3.38-1.54.77l-.11-.77h-.71v5.1h.82v-2.6c0-.81.29-1.7 1.36-1.7h.41v-.8h-.23zm3.3 0c-.91 0-1.3.38-1.54.77l-.11-.77h-.71v5.1h.82v-2.6c0-.81.29-1.7 1.36-1.7h.41v-.8h-.23zm2.998 5.16c1.18 0 2.02-.75 2.22-1.77h-.83c-.17.66-.73 1.04-1.45 1.04-.97 0-1.58-.68-1.61-1.65v-.07h3.96c.01-.12.02-.24.02-.35-.04-1.51-.98-2.42-2.42-2.42s-2.42 1.06-2.42 2.61c0 1.56 1 2.61 2.53 2.61zm-1.62-3.13c.08-.83.77-1.37 1.52-1.37.85 0 1.45.49 1.53 1.37h-3.05zm7.366-2.09c-.86 0-1.38.36-1.68.75l-.11-.69h-.71v5.1h.82v-2.55c0-1.15.58-1.86 1.54-1.86.89 0 1.38.56 1.38 1.62V102h.82v-2.84c0-1.69-.91-2.32-2.06-2.32zm5.337 5.22c1.24 0 2.07-.7 2.27-1.8h-.87c-.16.65-.66 1.07-1.39 1.07-.98 0-1.64-.76-1.64-1.87s.66-1.89 1.64-1.89c.75 0 1.25.41 1.4 1.09h.86c-.21-1.12-1-1.82-2.25-1.82-1.48 0-2.49 1.06-2.49 2.62 0 1.59.98 2.6 2.47 2.6zm4.502-.03l-.25.62c-.19.48-.27.6-.74.6h-.73v.75h.98c.72 0 .91-.32 1.23-1.14l2.35-5.96h-.87l-1.52 4.07-1.57-4.07h-.87l1.99 5.13zm8.42.03c1.18 0 2.02-.75 2.22-1.77h-.83c-.17.66-.73 1.04-1.45 1.04-.97 0-1.58-.68-1.61-1.65v-.07h3.96c.01-.12.02-.24.02-.35-.04-1.51-.98-2.42-2.42-2.42s-2.42 1.06-2.42 2.61c0 1.56 1 2.61 2.53 2.61zm-1.62-3.13c.08-.83.77-1.37 1.52-1.37.85 0 1.45.49 1.53 1.37h-3.05zm8.885-1.25c-.31-.49-.89-.84-1.75-.84-1.41 0-2.45 1.05-2.45 2.61 0 1.66 1.04 2.61 2.45 2.61.86 0 1.41-.41 1.75-.88V104h.82v-7.1h-.71l-.11.78zm-1.67 3.65c-1.01 0-1.69-.77-1.69-1.88 0-1.11.68-1.88 1.69-1.88 1 0 1.68.78 1.68 1.9 0 1.09-.68 1.86-1.68 1.86zm7.177-1.88c0 1.15-.56 1.86-1.49 1.86-.85 0-1.33-.56-1.33-1.62V96.9h-.82v2.84c0 1.69.89 2.32 2.01 2.32.84 0 1.33-.36 1.63-.74l.11.68h.71v-5.1h-.82v2.55zm2.358-3.41c.3 0 .53-.22.53-.53 0-.31-.23-.53-.53-.53-.3 0-.53.22-.53.53 0 .31.23.53.53.53zM58.9 102h.82v-5.1h-.82v5.1zm3.343 0h.99l1.91-5.1h-.86l-1.53 4.17-1.54-4.17h-.88l1.91 5.1zm7.778-.75c-.23 0-.33-.07-.33-.34v-2.23c0-1.19-.75-1.84-2.05-1.84-1.23 0-2.04.59-2.16 1.59h.82c.1-.52.58-.86 1.3-.86.8 0 1.27.4 1.27 1.06v.35h-1.5c-1.34 0-2.05.57-2.05 1.59 0 .93.76 1.49 1.88 1.49.88 0 1.39-.39 1.71-.85.01.5.24.79.92.79h.45v-.75h-.26zm-1.15-1.33c0 .85-.59 1.44-1.61 1.44-.68 0-1.11-.34-1.11-.84 0-.58.41-.85 1.14-.85h1.58v.25zm2.04 2.08h.82v-7h-.82v7zm4.294.06c1.18 0 2.02-.75 2.22-1.77h-.83c-.17.66-.73 1.04-1.45 1.04-.97 0-1.58-.68-1.61-1.65v-.07h3.96c.01-.12.02-.24.02-.35-.04-1.51-.98-2.42-2.42-2.42s-2.42 1.06-2.42 2.61c0 1.56 1 2.61 2.53 2.61zm-1.62-3.13c.08-.83.77-1.37 1.52-1.37.85 0 1.45.49 1.53 1.37h-3.05zm7.366-2.09c-.86 0-1.38.36-1.68.75l-.11-.69h-.71v5.1h.82v-2.55c0-1.15.58-1.86 1.54-1.86.89 0 1.38.56 1.38 1.62V102h.82v-2.84c0-1.69-.91-2.32-2.06-2.32zm3.485 3.83c0 .9.35 1.33 1.33 1.33h.89v-.75h-.81c-.44 0-.59-.16-.59-.59v-3.01h1.32v-.75h-1.32v-1.43h-.82v1.43h-.92v.75h.92v3.02zm2.59-5.97c1.12 1.46 1.54 2.77 1.54 4.3 0 1.52-.43 2.83-1.54 4.3h.9c1.03-1.34 1.45-2.79 1.45-4.3 0-1.54-.43-2.97-1.45-4.3h-.9zm3.278 6.8c0 .34.24.56.57.56.33 0 .57-.22.57-.56 0-.34-.24-.56-.57-.56-.33 0-.57.22-.57.56z" fill="#000"/></svg>