<svg width="124" height="56" viewBox="0 0 124 56" fill="none" xmlns="http://www.w3.org/2000/svg"><path d="M.52 3.452h5.616V19h2.99V3.452h5.616V.8H.52v2.652zm17.395.364c.962 0 1.716-.702 1.716-1.69s-.754-1.69-1.716-1.69-1.716.702-1.716 1.69.754 1.69 1.716 1.69zM16.485 19h2.808V5.688h-2.808V19zM37.36 5.532c-2.184 0-3.692.962-4.55 2.418-.806-1.716-2.366-2.418-4.108-2.418-2.002.026-3.146.91-3.9 1.898l-.312-1.742h-2.444V19h2.808v-7.124c0-2.366 1.196-3.926 3.12-3.926 1.846 0 2.808 1.222 2.808 3.562V19h2.834v-7.202c0-2.392 1.222-3.848 3.146-3.848 1.82 0 2.782 1.222 2.782 3.562V19h2.808v-7.67c0-4.212-2.236-5.798-4.992-5.798zm8.968-1.716c.961 0 1.715-.702 1.715-1.69S47.29.436 46.328.436c-.963 0-1.717.702-1.717 1.69s.755 1.69 1.717 1.69zM44.898 19h2.807V5.688h-2.807V19zm12.58-13.468c-2.158 0-3.432.858-4.264 1.898l-.312-1.742h-2.444V19h2.808v-6.708c0-2.704 1.326-4.342 3.562-4.342C58.934 7.95 60 9.302 60 11.824V19h2.834v-7.41c0-4.446-2.418-6.058-5.356-6.058zm18.076 2.236c-.858-1.326-2.288-2.236-4.368-2.236-3.614 0-6.292 2.678-6.292 6.76 0 4.238 2.678 6.76 6.292 6.76 2.08 0 3.458-.858 4.342-2.184v1.482c0 2.548-1.378 3.718-3.822 3.718-1.976 0-3.276-.858-3.614-2.34h-2.86c.26 2.99 2.73 4.628 6.266 4.628 4.784 0 6.812-2.288 6.812-5.902V5.688h-2.444l-.312 2.08zm-3.9 8.918c-2.34 0-3.874-1.794-3.874-4.394 0-2.574 1.534-4.394 3.874-4.394s3.874 1.82 3.874 4.446c0 2.548-1.534 4.342-3.874 4.342zm17.482-12.87c.962 0 1.716-.702 1.716-1.69s-.754-1.69-1.716-1.69-1.716.702-1.716 1.69.754 1.69 1.716 1.69zM87.706 19h2.808V5.688h-2.808V19zm4.989-4.394c.078 2.886 2.522 4.55 6.084 4.55 3.224 0 5.642-1.612 5.642-4.16 0-2.964-2.47-3.588-5.512-3.952-1.924-.208-3.198-.364-3.198-1.612 0-1.066 1.092-1.742 2.756-1.742 1.664 0 2.808.858 2.964 2.08h2.756c-.182-2.73-2.496-4.238-5.772-4.238-3.198-.026-5.46 1.612-5.46 4.134 0 2.756 2.392 3.406 5.434 3.77 2.054.26 3.276.364 3.276 1.794 0 1.066-1.144 1.742-2.886 1.742-2.028 0-3.224-.988-3.328-2.366h-2.756zM1.664 50h12.194v-2.652H4.654V42.07h7.332v-2.574H4.654v-5.044h8.892V31.8H1.664V50zm17.267 0h3.432l4.914-13.312h-2.964l-3.614 10.296-3.666-10.296h-3.016L18.93 50zm15.476.156c3.302 0 5.538-2.002 6.006-4.628h-2.808c-.39 1.482-1.638 2.34-3.354 2.34-2.21 0-3.64-1.482-3.718-3.744v-.182h10.036c.052-.364.078-.728.078-1.066-.078-3.9-2.652-6.344-6.5-6.344-3.926 0-6.552 2.73-6.552 6.838 0 4.082 2.626 6.786 6.812 6.786zm-3.77-8.268c.208-1.898 1.742-3.094 3.536-3.094 1.95 0 3.328 1.118 3.562 3.094h-7.098zm19.014-5.2c-2.184 0-3.25.884-3.926 2.002l-.312-2.002h-2.496V50h2.808v-6.682c0-2.054.806-4.004 3.302-4.004h1.248v-2.626h-.624zm6.356 13.39l-.52 1.3c-.416 1.092-.676 1.352-1.768 1.352h-1.976v2.47h3.016c1.95 0 2.522-.962 3.354-3.12l6.032-15.392h-2.99l-3.614 10.114-3.718-10.114h-2.99l5.174 13.39zm10.8-3.692c0 2.418 1.092 3.614 3.64 3.614h2.6v-2.47H71.07c-1.066 0-1.43-.39-1.43-1.43v-6.942h3.25v-2.47h-3.25V32.97h-2.834v3.718h-2.314v2.47h2.314v7.228zm15.02-9.854c-2.08 0-3.354.936-4.186 2.08V31.8h-2.808V50h2.808v-6.734c0-2.678 1.352-4.316 3.562-4.316 2.08 0 3.198 1.352 3.198 3.874V50h2.808v-7.41c0-4.446-2.418-6.058-5.382-6.058zm9.366-1.716c.962 0 1.716-.702 1.716-1.69s-.754-1.69-1.716-1.69-1.716.702-1.716 1.69.754 1.69 1.716 1.69zM89.763 50h2.808V36.688h-2.808V50zm12.58-13.468c-2.158 0-3.432.858-4.264 1.898l-.312-1.742h-2.444V50h2.808v-6.708c0-2.704 1.326-4.342 3.562-4.342 2.106 0 3.172 1.352 3.172 3.874V50h2.834v-7.41c0-4.446-2.418-6.058-5.356-6.058zm18.076 2.236c-.858-1.326-2.288-2.236-4.368-2.236-3.614 0-6.292 2.678-6.292 6.76 0 4.238 2.678 6.76 6.292 6.76 2.08 0 3.458-.858 4.342-2.184v1.482c0 2.548-1.378 3.718-3.822 3.718-1.976 0-3.276-.858-3.614-2.34h-2.86c.26 2.99 2.73 4.628 6.266 4.628 4.784 0 6.812-2.288 6.812-5.902V36.688h-2.444l-.312 2.08zm-3.9 8.918c-2.34 0-3.874-1.794-3.874-4.394 0-2.574 1.534-4.394 3.874-4.394s3.874 1.82 3.874 4.446c0 2.548-1.534 4.342-3.874 4.342z" fill="#000"/></svg>