<svg width="184" height="40" viewBox="0 0 184 40" fill="none" xmlns="http://www.w3.org/2000/svg"><rect x=".5" width="183" height="40" rx="20" fill="#fff"/><path d="M31.656 26h1.479v-4.573h2.992L38.643 26h1.666l-2.669-4.862c1.53-.425 2.533-1.717 2.533-3.383 0-2.227-1.581-3.655-3.961-3.655h-4.556V26zm4.454-10.54c1.547 0 2.55.901 2.55 2.295s-1.003 2.312-2.567 2.312h-2.958V15.46h2.975zm13.036 9.265c-.39 0-.56-.119-.56-.578v-3.791c0-2.023-1.276-3.128-3.486-3.128-2.09 0-3.468 1.003-3.672 2.703h1.394c.17-.884.986-1.462 2.21-1.462 1.36 0 2.16.68 2.16 1.802v.595h-2.55c-2.279 0-3.486.969-3.486 2.703 0 1.581 1.292 2.533 3.196 2.533 1.496 0 2.363-.663 2.907-1.445.017.85.408 1.343 1.564 1.343h.765v-1.275h-.442zm-1.955-2.261c0 1.445-1.003 2.448-2.737 2.448-1.156 0-1.887-.578-1.887-1.428 0-.986.697-1.445 1.938-1.445h2.686v.425zM52.417 26h1.53l2.176-6.443L58.213 26h1.53l2.89-8.67h-1.41l-2.261 7.055-2.16-7.055h-1.291l-2.278 7.055-2.16-7.055h-1.461L52.417 26zm15.962 0h1.479v-5.202h4.896v-1.36h-4.896V15.46h5.916V14.1h-7.395V26zm8.08 0h1.717l3.196-4.981L84.602 26h1.751l-4.012-6.205 3.757-5.695h-1.7l-2.975 4.607-2.975-4.607h-1.734l3.757 5.797L76.46 26zm23.222-1.275c-.39 0-.56-.119-.56-.578v-3.791c0-2.023-1.275-3.128-3.486-3.128-2.09 0-3.468 1.003-3.672 2.703h1.395c.17-.884.986-1.462 2.21-1.462 1.36 0 2.159.68 2.159 1.802v.595h-2.55c-2.279 0-3.486.969-3.486 2.703 0 1.581 1.293 2.533 3.197 2.533 1.495 0 2.362-.663 2.906-1.445.017.85.409 1.343 1.565 1.343h.765v-1.275h-.442zm-1.954-2.261c0 1.445-1.004 2.448-2.737 2.448-1.156 0-1.887-.578-1.887-1.428 0-.986.697-1.445 1.938-1.445h2.686v.425zm7.262 3.638c2.108 0 3.519-1.19 3.859-3.06h-1.479c-.272 1.105-1.122 1.819-2.363 1.819-1.666 0-2.788-1.292-2.788-3.179 0-1.887 1.122-3.213 2.788-3.213 1.275 0 2.125.697 2.38 1.853h1.462c-.357-1.904-1.7-3.094-3.825-3.094-2.516 0-4.233 1.802-4.233 4.454 0 2.703 1.666 4.42 4.199 4.42zm9.28 0c2.108 0 3.519-1.19 3.859-3.06h-1.479c-.272 1.105-1.122 1.819-2.363 1.819-1.666 0-2.788-1.292-2.788-3.179 0-1.887 1.122-3.213 2.788-3.213 1.275 0 2.125.697 2.38 1.853h1.462c-.357-1.904-1.7-3.094-3.825-3.094-2.516 0-4.233 1.802-4.233 4.454 0 2.703 1.666 4.42 4.199 4.42zm9.382 0c2.533 0 4.301-1.802 4.301-4.437 0-2.635-1.768-4.437-4.301-4.437-2.533 0-4.301 1.802-4.301 4.437 0 2.635 1.768 4.437 4.301 4.437zm0-1.241c-1.717 0-2.873-1.343-2.873-3.196 0-1.853 1.156-3.196 2.873-3.196 1.717 0 2.873 1.343 2.873 3.196 0 1.853-1.156 3.196-2.873 3.196zm11.969-3.196c0 1.955-.952 3.162-2.533 3.162-1.445 0-2.261-.952-2.261-2.754V17.33h-1.394v4.828c0 2.873 1.513 3.944 3.417 3.944 1.428 0 2.261-.612 2.771-1.258l.187 1.156h1.207v-8.67h-1.394v4.335zm7.544-4.437c-1.462 0-2.346.612-2.856 1.275l-.187-1.173h-1.207V26h1.394v-4.335c0-1.955.986-3.162 2.618-3.162 1.513 0 2.346.952 2.346 2.754V26h1.394v-4.828c0-2.873-1.547-3.944-3.502-3.944zm5.925 6.511c0 1.53.595 2.261 2.261 2.261h1.513v-1.275h-1.377c-.748 0-1.003-.272-1.003-1.003v-5.117h2.244V17.33h-2.244v-2.431h-1.394v2.431h-1.564v1.275h1.564v5.134z" fill="#000"/></svg>