<svg width="112" height="23" viewBox="0 0 112 23" fill="none" xmlns="http://www.w3.org/2000/svg"><rect width="112" height="23" rx="11.5" fill="#000"/><path d="M16.748 15h.957v-2.959h1.936L21.269 15h1.078l-1.727-3.146c.99-.275 1.639-1.111 1.639-2.189 0-1.441-1.023-2.365-2.563-2.365h-2.948V15zm2.882-6.82c1.001 0 1.65.583 1.65 1.485 0 .902-.649 1.496-1.661 1.496h-1.914V8.18h1.925zm8.435 5.995c-.253 0-.363-.077-.363-.374v-2.453c0-1.309-.825-2.024-2.255-2.024-1.353 0-2.244.649-2.376 1.749h.902c.11-.572.638-.946 1.43-.946.88 0 1.397.44 1.397 1.166v.385h-1.65c-1.474 0-2.255.627-2.255 1.749 0 1.023.836 1.639 2.068 1.639.968 0 1.53-.429 1.881-.935.011.55.264.869 1.012.869h.495v-.825h-.286zM26.8 12.712c0 .935-.649 1.584-1.77 1.584-.749 0-1.222-.374-1.222-.924 0-.638.451-.935 1.254-.935H26.8v.275zM30.181 15h.99l1.408-4.169L33.932 15h.99l1.87-5.61h-.913l-1.463 4.565L33.02 9.39h-.836l-1.474 4.565-1.397-4.565h-.946L30.181 15zm10.329 0h.957v-3.366h3.168v-.88h-3.168V8.18h3.828V7.3H40.51V15zm5.228 0h1.111l2.068-3.223L51.007 15h1.133l-2.596-4.015L51.975 7.3h-1.1l-1.925 2.981L47.025 7.3h-1.122l2.431 3.751L45.738 15zm15.026-.825c-.253 0-.363-.077-.363-.374v-2.453c0-1.309-.825-2.024-2.255-2.024-1.352 0-2.243.649-2.376 1.749h.902c.11-.572.639-.946 1.43-.946.88 0 1.398.44 1.398 1.166v.385h-1.65c-1.474 0-2.256.627-2.256 1.749 0 1.023.837 1.639 2.069 1.639.968 0 1.529-.429 1.88-.935.011.55.264.869 1.013.869h.495v-.825h-.287zM59.5 12.712c0 .935-.649 1.584-1.77 1.584-.748 0-1.221-.374-1.221-.924 0-.638.45-.935 1.253-.935H59.5v.275zm4.7 2.354c1.364 0 2.276-.77 2.496-1.98h-.956c-.177.715-.727 1.177-1.53 1.177-1.078 0-1.803-.836-1.803-2.057s.726-2.079 1.804-2.079c.825 0 1.375.451 1.54 1.199h.945c-.23-1.232-1.1-2.002-2.474-2.002-1.629 0-2.74 1.166-2.74 2.882 0 1.749 1.078 2.86 2.717 2.86zm6.004 0c1.364 0 2.277-.77 2.497-1.98h-.957c-.176.715-.726 1.177-1.529 1.177-1.078 0-1.804-.836-1.804-2.057s.726-2.079 1.804-2.079c.825 0 1.375.451 1.54 1.199h.946c-.23-1.232-1.1-2.002-2.475-2.002-1.628 0-2.739 1.166-2.739 2.882 0 1.749 1.078 2.86 2.717 2.86zm6.071 0c1.64 0 2.783-1.166 2.783-2.871s-1.144-2.871-2.783-2.871-2.783 1.166-2.783 2.871 1.144 2.871 2.783 2.871zm0-.803c-1.11 0-1.859-.869-1.859-2.068s.748-2.068 1.86-2.068c1.11 0 1.858.869 1.858 2.068s-.748 2.068-1.859 2.068zm7.745-2.068c0 1.265-.616 2.046-1.64 2.046-.934 0-1.462-.616-1.462-1.782V9.39h-.902v3.124c0 1.859.979 2.552 2.21 2.552.925 0 1.464-.396 1.794-.814l.12.748h.782V9.39h-.902v2.805zM88.9 9.324c-.946 0-1.518.396-1.848.825l-.12-.759h-.782V15h.902v-2.805c0-1.265.638-2.046 1.694-2.046.98 0 1.518.616 1.518 1.782V15h.902v-3.124c0-1.859-1-2.552-2.266-2.552zm3.834 4.213c0 .99.385 1.463 1.463 1.463h.98v-.825h-.892c-.484 0-.649-.176-.649-.649v-3.311h1.452V9.39h-1.452V7.817h-.902V9.39h-1.012v.825h1.012v3.322z" fill="#fff"/></svg>