<svg width="135" height="195" viewBox="0 0 135 195" fill="none" xmlns="http://www.w3.org/2000/svg"><path d="M4.9 17.666c-.517 0-1.09-.074-1.717-.221a6.293 6.293 0 01-1.589-.591l-.092-2.734 1.182-.074.628 1.903c.246.16.535.289.868.387.345.087.67.13.979.13.554 0 .972-.117 1.256-.351.295-.234.443-.548.443-.942 0-.431-.13-.776-.388-1.034-.246-.259-.573-.48-.979-.665a21.603 21.603 0 00-1.293-.536 9.044 9.044 0 01-1.293-.646 3.289 3.289 0 01-.997-.98c-.246-.405-.37-.916-.37-1.532 0-.665.185-1.244.555-1.736.382-.505.911-.893 1.588-1.164.69-.283 1.484-.425 2.383-.425.283 0 .585.019.905.056.332.037.652.098.96.185.308.073.579.16.813.258l.203 2.697-1.164.074-.59-1.81a2.818 2.818 0 00-1.312-.296c-.505 0-.923.13-1.256.388-.32.246-.48.597-.48 1.053 0 .406.13.745.388 1.015.258.259.59.487.997.684.406.184.837.37 1.293.554a7.71 7.71 0 011.311.665c.419.246.757.56 1.016.942.259.381.388.868.388 1.459 0 .628-.197 1.194-.591 1.699-.382.492-.924.88-1.625 1.163-.69.284-1.496.425-2.42.425zm12.024-1.717c-.185.529-.524.954-1.016 1.274a2.947 2.947 0 01-1.625.462c-.85 0-1.552-.247-2.106-.74-.542-.504-.813-1.255-.813-2.252l.056-4.119h-1.293v-.572l3.158-2.512h.573l-.037 2.604-.037 4.377c0 .517.123.893.37 1.127.245.221.59.332 1.033.332.234 0 .462-.043.684-.13.221-.098.412-.22.572-.369l.48.518zm-4.045-5.375V9.411h3.527v1.163H12.88zm8.736 7.074c-.862 0-1.62-.173-2.272-.517a3.974 3.974 0 01-1.533-1.46c-.37-.627-.554-1.341-.554-2.142 0-.911.21-1.687.628-2.327a4.083 4.083 0 011.644-1.459 4.84 4.84 0 012.16-.499c.813 0 1.527.173 2.143.517a3.62 3.62 0 011.46 1.46c.356.615.535 1.323.535 2.123 0 .813-.191 1.546-.573 2.198a4.204 4.204 0 01-1.514 1.533 4.07 4.07 0 01-2.124.573zm.184-1.182c.308 0 .567-.099.776-.296.222-.197.388-.486.499-.868.123-.381.184-.837.184-1.367 0-1.058-.172-1.92-.517-2.585-.332-.665-.782-.998-1.348-.998-.468 0-.837.24-1.108.72-.271.469-.406 1.109-.406 1.921 0 .653.08 1.244.24 1.774.172.529.4.948.683 1.256.296.295.628.443.997.443zm5.024 1.034l-.055-.85 1.145-.314c.012-.049.024-.16.037-.332.012-.172.024-.388.037-.646.012-.271.018-.56.018-.869l.018-1.403c0-.382-.012-.714-.037-.998a8.12 8.12 0 00-.129-.886l-1.182-.258v-.832l3.25-.83.5.313-.111 1.09.055.018c.382-.492.8-.855 1.256-1.09.468-.246.96-.369 1.477-.369.53 0 .998.13 1.404.388.419.259.751.64.998 1.145.246.493.369 1.09.369 1.792v1.902c0 .419.006.813.018 1.182.013.357.037.585.074.683l1.145.314-.055.85h-4.636l-.055-.85 1.053-.314c.024-.11.043-.264.055-.461.012-.21.018-.437.018-.684.013-.246.019-.48.019-.702v-1.55c0-.469-.074-.844-.222-1.127-.135-.296-.32-.511-.554-.647a1.458 1.458 0 00-.776-.203c-.307 0-.597.068-.868.203a2.249 2.249 0 00-.701.591v2.715c0 .419.006.813.018 1.182.025.357.05.585.074.683l1.127.314-.056.85h-4.728zm15.274.148c-.8 0-1.514-.179-2.142-.536a3.949 3.949 0 01-1.46-1.459c-.344-.616-.517-1.311-.517-2.087 0-.862.197-1.613.591-2.253a4.352 4.352 0 011.533-1.533 3.9 3.9 0 012.05-.536c1.084 0 1.921.339 2.512 1.016.591.665.887 1.533.887 2.604v.443h-5.43v-.96h3.62l-.277.443v-.628c0-.578-.13-1.04-.388-1.385-.259-.345-.616-.517-1.071-.517-.308 0-.585.086-.832.259-.246.172-.443.437-.59.794-.136.345-.204.782-.204 1.311v.388c0 .862.228 1.558.684 2.087.468.53 1.09.794 1.865.794.419 0 .8-.074 1.145-.221.345-.16.677-.425.998-.795l.572.518c-.345.738-.831 1.299-1.459 1.68a3.94 3.94 0 01-2.087.573zm11.34-.148l-.055-.924 1.145-.295c.024-.061.043-.228.055-.499.025-.27.043-.61.056-1.015.012-.407.018-.85.018-1.33v-2.715c0-.493-.006-.942-.018-1.348-.013-.42-.031-.758-.056-1.016-.012-.271-.03-.437-.055-.499l-1.145-.277.055-.923h4.95l.055.923-1.163.277c-.013.062-.031.234-.056.517-.024.283-.043.634-.055 1.053-.013.419-.019.85-.019 1.293v2.715c0 .43.006.856.019 1.274.012.406.03.757.055 1.053.025.283.043.456.056.517l1.163.296-.055.923h-4.95zm-6.612 0l-.055-.924 1.163-.295c.025-.061.043-.222.056-.48.024-.259.043-.591.055-.998.012-.418.019-.874.019-1.366v-2.715c0-.505-.007-.967-.019-1.385-.012-.419-.03-.758-.055-1.016-.013-.271-.031-.425-.056-.462l-1.163-.277.055-.923h4.931l.056.923-1.145.277c-.025.062-.05.228-.074.499-.013.258-.025.597-.037 1.016v5.393c.012.406.024.745.037 1.015.024.271.049.438.074.499l1.145.296-.056.923h-4.931zm3.306-4.839v-1.404c.295.037.634.062 1.016.074.394.013.88.019 1.459.019.579 0 1.059-.006 1.44-.019.382-.012.72-.037 1.016-.074v1.404a64.55 64.55 0 00-.96-.037c-.382-.024-.88-.037-1.496-.037s-1.12.013-1.515.037a64.55 64.55 0 00-.96.037zm13.723 4.987c-.8 0-1.515-.179-2.143-.536a3.95 3.95 0 01-1.459-1.459c-.345-.616-.517-1.311-.517-2.087 0-.862.197-1.613.591-2.253a4.353 4.353 0 011.533-1.533 3.9 3.9 0 012.05-.536c1.084 0 1.92.339 2.512 1.016.59.665.886 1.533.886 2.604v.443h-5.43v-.96h3.62l-.277.443v-.628c0-.578-.129-1.04-.388-1.385-.258-.345-.615-.517-1.07-.517-.309 0-.586.086-.832.259-.246.172-.443.437-.59.794-.136.345-.204.782-.204 1.311v.388c0 .862.228 1.558.683 2.087.468.53 1.09.794 1.866.794.418 0 .8-.074 1.145-.221.344-.16.677-.425.997-.795l.573.518c-.345.738-.832 1.299-1.46 1.68a3.94 3.94 0 01-2.086.573zm11.044.092l-.499-.277.019-1.2-.056-.019c-.307.53-.652.905-1.034 1.127-.382.209-.776.314-1.182.314a3.454 3.454 0 01-1.81-.499 3.688 3.688 0 01-1.33-1.385c-.332-.604-.498-1.3-.498-2.087 0-.69.13-1.305.388-1.847a4.249 4.249 0 011.034-1.404c.43-.394.911-.69 1.44-.886a4.385 4.385 0 011.626-.314c.234 0 .474.024.72.074.246.037.45.098.61.184 0-.234-.007-.492-.019-.775 0-.296-.006-.585-.018-.868 0-.296-.007-.56-.019-.795 0-.246-.006-.43-.018-.554l-1.367-.203-.037-.794 3.49-.905.518.314c-.037.763-.074 1.471-.111 2.124-.037.64-.055 1.317-.055 2.032l-.019 4.284c0 .604.019 1.096.056 1.478l.092.979 1.219.258v.794l-3.14.85zm-1.865-1.828c.197 0 .418-.062.665-.185.258-.123.48-.326.665-.61V11a1.328 1.328 0 00-.61-.48 1.796 1.796 0 00-.702-.148c-.579 0-1.059.24-1.44.72-.37.48-.555 1.14-.555 1.976 0 .912.191 1.613.573 2.106.394.492.862.739 1.404.739zm9.66 5.799c-1.306 0-2.328-.179-3.067-.536-.726-.357-1.09-.85-1.09-1.477 0-.407.216-.788.647-1.145.443-.345 1.04-.622 1.791-.831l.795.073c-.296.21-.53.45-.702.72a1.56 1.56 0 00-.259.85c0 .419.173.74.517.96.357.235.875.352 1.552.352.665 0 1.219-.148 1.662-.444.443-.283.665-.64.665-1.07 0-.309-.11-.543-.333-.703-.221-.147-.603-.246-1.145-.295l-2.345-.203-.166-.093c-.628 0-1.115-.123-1.46-.369-.344-.234-.517-.542-.517-.924 0-.393.191-.757.573-1.09.394-.344.93-.615 1.607-.812l.295.314a1.3 1.3 0 00-.332.296.451.451 0 00-.13.295c0 .148.044.259.13.333a.878.878 0 00.406.147l2.863.277c.911.087 1.588.327 2.031.72.444.395.665.912.665 1.552 0 .579-.203 1.102-.61 1.57-.393.468-.947.837-1.661 1.108-.702.283-1.496.425-2.383.425zm.073-6.39c-.739 0-1.391-.123-1.958-.37-.554-.258-.985-.61-1.293-1.053a2.738 2.738 0 01-.461-1.57c0-.603.166-1.138.498-1.606a3.43 3.43 0 011.349-1.108c.578-.271 1.225-.407 1.939-.407.702 0 1.323.142 1.865.425.554.271.991.64 1.311 1.108.32.468.48.998.48 1.589 0 .578-.16 1.095-.48 1.551-.32.443-.757.794-1.31 1.053-.555.258-1.201.388-1.94.388zm.148-1.072c.381 0 .683-.166.905-.498.221-.345.332-.807.332-1.385 0-.628-.123-1.133-.37-1.515-.233-.382-.553-.572-.96-.572-.369 0-.67.178-.905.535-.234.357-.35.831-.35 1.422 0 .604.123 1.09.369 1.46.246.369.572.553.979.553zm4.599-3.343l-2.494-.24-.554-.868 3.047-.369v1.477zm4.912 6.742c-.8 0-1.514-.179-2.142-.536a3.95 3.95 0 01-1.46-1.459c-.344-.616-.516-1.311-.516-2.087 0-.862.197-1.613.59-2.253a4.353 4.353 0 011.534-1.533 3.9 3.9 0 012.05-.536c1.083 0 1.92.339 2.512 1.016.59.665.886 1.533.886 2.604v.443h-5.43v-.96h3.62l-.277.443v-.628c0-.578-.13-1.04-.388-1.385s-.615-.517-1.071-.517c-.308 0-.585.086-.831.259-.246.172-.443.437-.591.794-.136.345-.203.782-.203 1.311v.388c0 .862.228 1.558.683 2.087.468.53 1.09.794 1.865.794.42 0 .8-.074 1.145-.221.345-.16.678-.425.998-.795l.572.518c-.344.738-.83 1.299-1.459 1.68a3.94 3.94 0 01-2.087.573zm-84.958 19.3c-.184.53-.523.955-1.015 1.275a2.947 2.947 0 01-1.626.462c-.85 0-1.551-.247-2.105-.74-.542-.504-.813-1.255-.813-2.252l.056-4.119H.67v-.573l3.158-2.511H4.4l-.036 2.604-.037 4.377c0 .517.123.893.369 1.127.246.221.591.332 1.034.332.234 0 .462-.043.684-.13.221-.098.412-.22.572-.368l.48.517zm-4.044-5.374V30.41H6.95v1.164H3.423zm4.34 6.926l-.056-.85 1.146-.314c.012-.049.024-.16.036-.332.013-.185.025-.406.037-.665.013-.27.019-.554.019-.85l.018-1.385c0-.369-.012-.695-.037-.978a8.743 8.743 0 00-.129-.924l-1.182-.258v-.832l3.195-.83.48.313-.073 1.46.055.018c.357-.69.714-1.158 1.071-1.404.37-.246.745-.37 1.127-.37.332 0 .622.093.868.278.258.184.388.474.388.868s-.136.702-.407.923c-.27.222-.585.333-.942.333-.295 0-.56-.05-.794-.148-.234-.11-.492-.302-.775-.573l.517.056a3 3 0 00-.536.517c-.172.21-.32.45-.443.72l.018 1.46c.013.455.019.867.019 1.237.012.357.024.659.037.905.012.234.024.388.037.461l1.606.278-.055.886H7.763zm10.306.148c-.567 0-1.06-.123-1.478-.37a2.846 2.846 0 01-.942-.886c-.21-.345-.314-.671-.314-.979 0-.443.136-.813.406-1.108.284-.308.715-.548 1.293-.72l2.9-.85v-.665a1.15 1.15 0 00-.259-.72 1.825 1.825 0 00-.646-.573 1.786 1.786 0 00-.868-.221c-.197 0-.339.049-.425.147-.074.087-.123.265-.148.536l-.092 1.127c-.616.123-1.12.104-1.514-.056-.382-.172-.573-.45-.573-.83 0-.235.123-.475.37-.721a4.46 4.46 0 01.904-.684c.37-.221.745-.406 1.127-.554.382-.16.714-.252.997-.277 1.096 0 1.964.253 2.605.758.64.492.966 1.157.978 1.994l-.055 2.567c0 .345.006.616.018.813.025.197.062.357.111.48l1.22.222v.776l-1.201.517a5.882 5.882 0 01-.61.203c-.184.05-.363.074-.535.074-.48 0-.82-.247-1.016-.739l-.314-.85.388.093c-.382.468-.776.837-1.182 1.108-.394.259-.776.388-1.145.388zm.942-1.663c.172 0 .338-.03.498-.092.16-.074.308-.178.444-.314v-1.81l-1.256.24c-.308.037-.53.13-.665.277-.123.148-.185.345-.185.591 0 .284.11.542.332.776.234.222.511.333.832.333zm5.152 1.515l-.055-.85 1.145-.314c.012-.049.025-.16.037-.332a19.189 19.189 0 00.055-1.514l.019-1.404c0-.382-.012-.714-.037-.997a8.097 8.097 0 00-.13-.887l-1.181-.258v-.832l3.25-.83.499.313-.11 1.09.054.018c.382-.492.8-.855 1.256-1.09.468-.246.96-.369 1.478-.369.53 0 .997.13 1.404.388.418.259.75.64.997 1.145.246.493.37 1.09.37 1.792v1.902c0 .419.005.813.018 1.182.012.357.037.585.074.683l1.145.314-.056.85H29.76l-.056-.85 1.053-.314c.024-.11.043-.264.055-.461a11.7 11.7 0 00.019-.684c.012-.246.018-.48.018-.702v-1.55c0-.469-.074-.844-.221-1.127-.136-.296-.32-.511-.554-.647a1.458 1.458 0 00-.776-.203c-.308 0-.597.068-.868.203a2.248 2.248 0 00-.702.591v2.715c0 .419.006.813.018 1.182.025.357.05.585.074.683l1.127.314-.055.85h-4.729zm14.11.148a7.13 7.13 0 01-1.532-.167 5.441 5.441 0 01-1.274-.461l-.093-2.161h1.182l.388 1.33c.468.27.954.406 1.46.406.38 0 .67-.074.867-.222a.77.77 0 00.296-.628.91.91 0 00-.333-.701c-.21-.197-.646-.419-1.311-.665-.911-.333-1.545-.696-1.902-1.09-.358-.394-.536-.886-.536-1.477 0-.505.154-.949.462-1.33.308-.394.738-.696 1.293-.905.554-.222 1.194-.333 1.92-.333a6.7 6.7 0 011.2.111c.407.074.74.172.998.296l.222 2.142h-1.182l-.407-1.311a1.452 1.452 0 00-.461-.166 1.814 1.814 0 00-.499-.074c-.37 0-.671.08-.905.24a.758.758 0 00-.332.646c0 .296.135.542.406.739.27.197.763.443 1.477.739.813.332 1.392.69 1.737 1.07.344.37.517.832.517 1.386 0 .776-.339 1.404-1.016 1.884-.677.468-1.558.702-2.641.702zm9.605-.148h-5.08l-.055-.85 1.145-.314a10.1 10.1 0 00.019-.59c.012-.198.018-.413.018-.647v-.868-1.367l-.018-2.29v-1.736c0-.813.154-1.54.462-2.18.307-.64.726-1.138 1.256-1.495a3.086 3.086 0 011.81-.554c.615 0 1.12.129 1.514.387.406.247.61.573.61.98 0 .258-.08.455-.24.59-.148.136-.358.203-.629.203-.344 0-.701-.153-1.07-.461l-1.053-.98.794.112c-.357 0-.634.221-.831.665-.185.43-.278 1.065-.278 1.902v1.403l.037 1.164.019 2.253c0 .616.012 1.244.037 1.884.025.64.05 1.182.074 1.625l1.514.314-.055.85zm-5.3-6.907v-.85l1.329-.37 1.09.056h3.232v1.164h-5.652zm10.767 7.055c-.862 0-1.62-.173-2.272-.517a3.975 3.975 0 01-1.533-1.46c-.37-.627-.554-1.341-.554-2.142 0-.911.21-1.687.628-2.327a4.082 4.082 0 011.644-1.459 4.839 4.839 0 012.16-.499c.813 0 1.527.173 2.143.517a3.619 3.619 0 011.459 1.46c.357.615.536 1.323.536 2.123 0 .813-.191 1.546-.573 2.198a4.204 4.204 0 01-1.514 1.533 4.07 4.07 0 01-2.124.573zm.184-1.182c.308 0 .567-.099.776-.296.222-.197.388-.486.499-.868.123-.382.184-.837.184-1.367 0-1.058-.172-1.92-.517-2.585-.332-.665-.782-.998-1.348-.998-.468 0-.837.24-1.108.72-.271.469-.406 1.109-.406 1.921 0 .653.08 1.244.24 1.774.172.529.4.948.683 1.255.296.296.628.444.997.444zm5.042 1.034l-.055-.85 1.145-.314c.012-.049.025-.16.037-.332.012-.185.025-.406.037-.665.012-.27.018-.554.018-.85l.019-1.385c0-.369-.012-.695-.037-.978a8.78 8.78 0 00-.13-.924l-1.181-.258v-.832l3.195-.83.48.313-.074 1.46.056.018c.357-.69.714-1.158 1.07-1.404.37-.246.746-.37 1.127-.37.333 0 .622.093.868.278.259.184.388.474.388.868s-.135.702-.406.923c-.27.222-.585.333-.942.333-.296 0-.56-.05-.794-.148-.234-.11-.493-.302-.776-.573l.517.056a3 3 0 00-.535.517c-.173.21-.32.45-.444.72l.019 1.46c.012.455.018.867.018 1.237.013.357.025.659.037.905.013.234.025.388.037.461l1.607.278-.055.886H58.57zm7.573 0l-.056-.85 1.145-.314c.013-.049.025-.16.037-.332.013-.185.025-.406.037-.665.013-.258.019-.542.019-.85l.018-1.385a10.766 10.766 0 00-.074-1.274 11.04 11.04 0 00-.092-.628l-1.182-.258v-.832l3.25-.83.5.313-.112 1.071.056.019c.394-.505.806-.868 1.237-1.09.431-.234.88-.35 1.348-.35.48 0 .924.122 1.33.369.419.234.757.597 1.016 1.09.259.48.388 1.101.388 1.865l.037 1.902c0 .406.006.794.018 1.164.013.369.037.603.074.701l.997.314-.055.85h-4.377l-.056-.85.942-.314c.025-.11.044-.264.056-.461a11.7 11.7 0 00.018-.684c.013-.246.019-.48.019-.702l-.019-1.736c0-.443-.067-.794-.203-1.052-.123-.271-.295-.462-.517-.573a1.557 1.557 0 00-.739-.166c-.27 0-.541.074-.812.222-.271.135-.499.326-.684.572v2.715c0 .406.006.794.019 1.164.024.369.049.603.074.701l1.015.314-.055.85h-4.617zm10.841 0l-.055-.85.96-.314c.025-.11.043-.264.055-.461a11.7 11.7 0 00.019-.684c.012-.246.019-.48.019-.702l-.038-1.57c0-.48-.067-.861-.203-1.144-.135-.284-.32-.487-.554-.61a1.52 1.52 0 00-.775-.203c-.308 0-.604.068-.887.203-.27.123-.499.314-.683.573l-.536-.702c.443-.591.911-1.035 1.404-1.33a3.068 3.068 0 011.625-.462c.579 0 1.09.136 1.533.407.456.258.806.634 1.053 1.126.246.493.37 1.084.37 1.773l.036 1.921c0 .406.006.794.019 1.164.024.369.049.603.073.701l1.145.314-.055.85h-4.525zm8.404.148a7.13 7.13 0 01-1.533-.167 5.439 5.439 0 01-1.275-.461l-.092-2.161h1.182l.388 1.33c.468.27.954.406 1.459.406.382 0 .67-.074.868-.222a.77.77 0 00.295-.628.91.91 0 00-.332-.701c-.21-.197-.647-.419-1.311-.665-.912-.333-1.546-.696-1.903-1.09-.357-.394-.535-.886-.535-1.477 0-.505.154-.949.462-1.33.307-.394.738-.696 1.292-.905.554-.222 1.195-.333 1.921-.333a6.7 6.7 0 011.2.111c.407.074.74.172.998.296l.222 2.142h-1.182l-.407-1.311a1.45 1.45 0 00-.462-.166 1.815 1.815 0 00-.498-.074c-.37 0-.671.08-.905.24a.757.757 0 00-.333.646c0 .296.136.542.407.739.27.197.763.443 1.477.739.813.332 1.392.69 1.736 1.07.345.37.517.832.517 1.386 0 .776-.338 1.404-1.015 1.884-.677.468-1.558.702-2.641.702zM.948 59.5l-.056-.85 1.145-.314c.013-.049.025-.16.037-.332.013-.185.025-.406.037-.665.013-.258.019-.542.019-.85l.018-1.385a10.754 10.754 0 00-.074-1.274 11.03 11.03 0 00-.092-.628L.8 52.944v-.832l3.25-.83.5.313-.112 1.071.056.019c.394-.505.806-.868 1.237-1.09a2.79 2.79 0 011.349-.35c.48 0 .923.122 1.33.369.418.234.757.597 1.015 1.09.259.48.388 1.101.388 1.865l.037 1.902c0 .406.006.794.018 1.164.013.369.037.603.074.701l.998.314-.056.85H6.507l-.055-.85.941-.314c.025-.11.044-.264.056-.461.012-.21.018-.437.018-.684.013-.246.019-.48.019-.702l-.019-1.736c0-.443-.067-.794-.203-1.052-.123-.271-.295-.462-.517-.573a1.556 1.556 0 00-.739-.166c-.27 0-.541.074-.812.222-.271.135-.499.326-.684.572v2.715c0 .406.006.794.019 1.164.024.369.049.603.074.701l1.015.314-.055.85H.948zm10.841 0l-.055-.85.96-.314c.025-.11.043-.264.055-.461a11.7 11.7 0 00.019-.684c.012-.246.018-.48.018-.702l-.037-1.57c0-.48-.067-.861-.203-1.144-.135-.284-.32-.487-.554-.61a1.52 1.52 0 00-.775-.203c-.308 0-.604.068-.887.203-.27.123-.499.314-.683.573l-.536-.702c.443-.591.911-1.035 1.404-1.33a3.068 3.068 0 011.625-.462c.579 0 1.09.136 1.533.407.456.258.806.634 1.053 1.126.246.493.37 1.084.37 1.773l.036 1.921c0 .406.006.794.018 1.164.025.369.05.603.074.701l1.145.314-.055.85H11.79zm9.567.148c-.8 0-1.514-.179-2.142-.536a3.949 3.949 0 01-1.46-1.459c-.344-.615-.517-1.311-.517-2.087 0-.862.198-1.613.591-2.253a4.352 4.352 0 011.534-1.533 3.9 3.9 0 012.05-.536c1.083 0 1.92.339 2.511 1.016.591.665.887 1.533.887 2.604v.444h-5.43v-.96H23l-.277.442v-.628c0-.578-.13-1.04-.388-1.385-.259-.345-.616-.517-1.071-.517-.308 0-.585.086-.831.259-.247.172-.444.437-.591.794-.136.345-.203.782-.203 1.311v.388c0 .862.227 1.558.683 2.087.468.53 1.09.794 1.865.794.419 0 .8-.074 1.145-.221.345-.16.677-.425.998-.795l.572.517c-.345.74-.83 1.3-1.459 1.681a3.94 3.94 0 01-2.087.573zm4.396-.148l-.056-.85 1.145-.314c.013-.049.025-.16.037-.332.013-.185.025-.406.037-.665.013-.27.019-.554.019-.85l.018-1.385c0-.369-.012-.695-.037-.978a8.752 8.752 0 00-.129-.924l-1.182-.258v-.832l3.195-.83.48.313-.073 1.46.055.018c.357-.69.714-1.158 1.071-1.404.37-.246.745-.37 1.127-.37.332 0 .622.093.868.278.258.184.388.474.388.868s-.136.702-.407.923c-.27.222-.584.333-.942.333-.295 0-.56-.05-.794-.148-.234-.11-.492-.302-.775-.573l.517.056a3 3 0 00-.536.517c-.172.21-.32.45-.443.72l.018 1.46c.013.455.019.867.019 1.237.012.357.024.659.037.905.012.234.024.388.037.461l1.606.278-.055.886h-5.245zm11.488.148c-.776 0-1.478-.167-2.106-.499a4.14 4.14 0 01-1.496-1.422c-.37-.616-.554-1.311-.554-2.087 0-.776.197-1.496.591-2.16a4.472 4.472 0 011.625-1.626c.69-.407 1.484-.61 2.383-.61.542 0 1.028.074 1.459.222.43.135.776.332 1.034.59.259.26.388.549.388.869 0 .308-.099.542-.295.702a1.059 1.059 0 01-.684.221c-.234 0-.443-.043-.628-.129a3.271 3.271 0 01-.61-.425L37 52.112l.942.222c-.357-.086-.714-.037-1.07.148-.346.184-.629.492-.85.923-.222.419-.333.948-.333 1.588 0 .949.228 1.663.683 2.143.468.48 1.041.72 1.718.72.345 0 .684-.074 1.016-.221.345-.16.677-.431.997-.813l.591.536c-.344.75-.83 1.323-1.459 1.717a3.717 3.717 0 01-1.994.573zm3.952-.148l-.055-.85 1.145-.314c.012-.135.024-.369.037-.701.024-.345.043-.74.055-1.182.012-.444.018-.875.018-1.293v-2.327c0-.419-.006-.838-.018-1.256 0-.431-.006-.837-.019-1.22 0-.393-.006-.75-.018-1.07a9.444 9.444 0 00-.055-.776l-1.367-.185-.037-.794 3.49-.905.518.314-.074 1.108a201.768 201.768 0 00-.074 2.641c-.012.542-.025 1.2-.037 1.976l.056.019c.381-.48.8-.837 1.255-1.071.456-.247.942-.37 1.46-.37.529 0 .997.13 1.403.388.419.259.751.64.998 1.145.246.493.369 1.09.369 1.792v1.902c0 .419.006.813.018 1.182.025.357.05.585.074.683l1.145.314-.055.85h-4.617l-.056-.85 1.034-.314c.025-.11.044-.264.056-.461.012-.21.018-.437.018-.684.013-.246.019-.48.019-.702v-1.55c0-.469-.074-.844-.222-1.127-.135-.296-.32-.511-.554-.647a1.458 1.458 0 00-.776-.203c-.295 0-.578.068-.85.203-.27.136-.51.333-.72.591v2.715c0 .456.007.856.019 1.2.025.345.05.567.074.665l1.108.314-.055.85h-4.71zm13.981.148c-.566 0-1.059-.123-1.477-.37a2.847 2.847 0 01-.942-.886c-.21-.345-.314-.671-.314-.979 0-.443.135-.813.406-1.108.283-.308.714-.548 1.293-.72l2.9-.85v-.665a1.15 1.15 0 00-.26-.72 1.826 1.826 0 00-.646-.573 1.786 1.786 0 00-.868-.221c-.197 0-.338.049-.424.147-.074.087-.123.265-.148.536l-.093 1.127c-.615.123-1.12.104-1.514-.056-.382-.172-.572-.45-.572-.83 0-.235.123-.475.369-.721s.548-.474.905-.684c.37-.221.745-.406 1.127-.554.381-.16.714-.252.997-.277 1.096 0 1.964.253 2.604.758.64.492.967 1.157.979 1.994l-.055 2.567c0 .345.006.616.018.813.025.197.062.357.11.48l1.22.222v.776l-1.2.517a5.883 5.883 0 01-.61.203c-.185.05-.364.074-.536.074-.48 0-.819-.247-1.016-.739l-.314-.85.388.093c-.382.468-.776.837-1.182 1.108-.394.259-.776.388-1.145.388zm.942-1.663c.172 0 .339-.03.499-.092.16-.074.308-.178.443-.314v-1.81l-1.256.24c-.308.037-.53.13-.665.277-.123.148-.184.345-.184.591 0 .284.11.542.332.776.234.222.51.333.831.333zm5.153 1.515l-.056-.85 1.146-.314c.012-.049.024-.16.037-.332.012-.172.024-.388.036-.646.013-.271.019-.56.019-.868l.018-1.404c0-.382-.012-.714-.037-.997a8.145 8.145 0 00-.129-.887l-1.182-.258v-.832l3.25-.83.5.313-.111 1.09.055.018c.382-.492.8-.855 1.256-1.09.468-.246.96-.369 1.477-.369.53 0 .998.13 1.404.388.419.259.751.64.997 1.145.247.493.37 1.09.37 1.792v1.902c0 .419.006.813.018 1.182.013.357.037.585.074.683l1.145.314-.055.85h-4.636l-.055-.85 1.052-.314c.025-.11.043-.264.056-.461a11.7 11.7 0 00.018-.684c.013-.246.019-.48.019-.702v-1.55c0-.469-.074-.844-.222-1.127-.135-.296-.32-.511-.554-.647a1.458 1.458 0 00-.776-.203c-.308 0-.597.068-.868.203a2.25 2.25 0 00-.702.591v2.715c0 .419.007.813.019 1.182.025.357.05.585.074.683l1.126.314-.055.85h-4.728zm17.527.24l-.499-.277.019-1.2-.055-.019c-.308.53-.653.905-1.035 1.127-.381.209-.775.314-1.182.314a3.454 3.454 0 01-1.81-.499 3.69 3.69 0 01-1.33-1.385c-.332-.604-.498-1.3-.498-2.087 0-.69.13-1.305.388-1.847a4.249 4.249 0 011.034-1.404 4.39 4.39 0 011.44-.886 4.385 4.385 0 011.626-.314c.234 0 .474.024.72.074.246.037.45.098.61.184 0-.234-.007-.492-.019-.775 0-.296-.006-.585-.018-.868 0-.296-.007-.56-.019-.795 0-.246-.006-.43-.018-.554l-1.367-.203-.037-.794 3.49-.905.518.314c-.037.763-.074 1.471-.111 2.124-.037.64-.055 1.317-.055 2.032l-.019 4.284c0 .604.019 1.096.056 1.478.037.382.067.708.092.979l1.219.258v.795l-3.14.85zm-1.865-1.828c.197 0 .418-.062.665-.185.258-.123.48-.326.665-.61V53a1.328 1.328 0 00-.61-.48 1.796 1.796 0 00-.702-.148c-.578 0-1.059.24-1.44.72-.37.48-.554 1.14-.554 1.976 0 .912.19 1.613.572 2.106.394.492.862.739 1.404.739zm5.467 1.588l-.056-.868 1.238-.296c.012-.049.024-.16.037-.332.012-.185.024-.406.037-.665.012-.258.018-.542.018-.85l.018-1.385c0-.369-.012-.701-.036-.997a8.013 8.013 0 00-.13-.905l-1.237-.258v-.832l3.398-.83.499.313c-.037.394-.068.794-.093 1.2a43.69 43.69 0 00-.018 1.349v2.327c0 .406.006.794.018 1.164.025.369.05.603.074.701l1.238.296-.056.868h-4.95zm2.493-9.733c-.493 0-.88-.148-1.164-.444a1.512 1.512 0 01-.424-1.052c0-.394.141-.739.424-1.035.284-.307.671-.461 1.164-.461.492 0 .874.154 1.145.462.27.295.406.64.406 1.034s-.135.745-.406 1.053c-.27.295-.653.443-1.145.443zm6.316 9.88a7.13 7.13 0 01-1.533-.166 5.441 5.441 0 01-1.274-.461l-.092-2.161h1.182l.388 1.33c.468.27.954.406 1.459.406.381 0 .67-.074.868-.222a.77.77 0 00.295-.628.91.91 0 00-.332-.701c-.21-.197-.647-.419-1.312-.665-.91-.333-1.545-.696-1.902-1.09-.357-.394-.535-.886-.535-1.477 0-.505.153-.949.461-1.33.308-.394.739-.696 1.293-.905.554-.222 1.194-.333 1.92-.333a6.7 6.7 0 011.201.111c.407.074.74.173.998.296l.221 2.142H93.33l-.406-1.311a1.452 1.452 0 00-.462-.166 1.814 1.814 0 00-.498-.074c-.37 0-.671.08-.905.24a.758.758 0 00-.333.646c0 .296.136.542.406.739.271.197.764.443 1.478.739.813.332 1.391.69 1.736 1.07.345.37.517.832.517 1.386 0 .776-.338 1.404-1.016 1.884-.677.468-1.557.702-2.64.702zm4.377-.147l-.055-.868 1.237-.296c.013-.049.025-.16.037-.332.013-.185.025-.406.037-.665.013-.258.019-.542.019-.85l.018-1.385c0-.369-.012-.701-.037-.997a7.99 7.99 0 00-.129-.905l-1.237-.258v-.832l3.398-.83.499.313c-.037.394-.068.794-.093 1.2-.012.395-.018.844-.018 1.349v2.327c0 .406.006.794.018 1.164.025.369.05.603.074.701l1.238.296-.056.868h-4.95zm2.494-9.733c-.493 0-.88-.148-1.164-.444a1.512 1.512 0 01-.424-1.052c0-.394.141-.739.424-1.035.284-.307.671-.461 1.164-.461.492 0 .874.154 1.145.462.27.295.406.64.406 1.034s-.135.745-.406 1.053c-.27.295-.653.443-1.145.443zm3.066 9.733l-.056-.85 1.145-.314c.013-.049.025-.16.037-.332a23.376 23.376 0 00.056-1.514l.018-1.404c0-.382-.012-.714-.037-.997a7.858 7.858 0 00-.129-.887l-1.182-.258v-.832l3.251-.83.498.313-.111 1.09.056.018c.381-.492.8-.855 1.256-1.09.468-.246.96-.369 1.477-.369.53 0 .998.13 1.404.388.419.259.751.64.997 1.145.246.493.37 1.09.37 1.792v1.902c0 .419.006.813.018 1.182.012.357.037.585.074.683l1.145.314-.055.85h-4.636l-.056-.85 1.053-.314a3.18 3.18 0 00.056-.461c.012-.21.018-.437.018-.684.012-.246.019-.48.019-.702v-1.55c0-.469-.074-.844-.222-1.127-.136-.296-.32-.511-.554-.647a1.459 1.459 0 00-.776-.203c-.308 0-.597.068-.868.203a2.263 2.263 0 00-.702.591v2.715c0 .419.006.813.019 1.182.024.357.049.585.074.683l1.126.314-.055.85h-4.728zm14.978 4.211c-1.305 0-2.327-.179-3.066-.536-.726-.357-1.089-.85-1.089-1.477 0-.407.215-.788.646-1.145.443-.345 1.04-.622 1.792-.831l.794.073c-.296.21-.53.45-.702.72-.172.272-.259.555-.259.85 0 .419.173.74.517.96.358.235.875.352 1.552.352.665 0 1.219-.148 1.662-.444.443-.283.665-.64.665-1.07 0-.309-.111-.542-.332-.703-.222-.147-.604-.246-1.146-.295l-2.345-.203-.166-.093c-.628 0-1.115-.123-1.459-.369-.345-.234-.518-.542-.518-.923 0-.395.191-.758.573-1.09.394-.345.93-.616 1.607-.813l.295.314a1.3 1.3 0 00-.332.296.452.452 0 00-.129.295c0 .148.043.259.129.333a.876.876 0 00.406.147l2.863.277c.911.087 1.588.327 2.032.72.443.395.664.912.664 1.552 0 .579-.203 1.102-.609 1.57-.394.468-.948.837-1.662 1.108-.702.283-1.496.425-2.383.425zm.074-6.39c-.739 0-1.391-.123-1.958-.37-.554-.258-.985-.61-1.292-1.053a2.736 2.736 0 01-.462-1.57c0-.603.166-1.138.498-1.606a3.432 3.432 0 011.349-1.108c.578-.271 1.225-.407 1.939-.407.702 0 1.324.142 1.865.425.554.271.992.64 1.312 1.108.32.468.48.998.48 1.589 0 .578-.16 1.096-.48 1.551-.32.443-.758.794-1.312 1.053-.554.258-1.2.388-1.939.388zm.148-1.072c.382 0 .683-.166.905-.498.221-.345.332-.807.332-1.385 0-.628-.123-1.133-.369-1.515-.234-.382-.554-.572-.961-.572-.369 0-.671.178-.905.535-.233.357-.35.831-.35 1.422 0 .604.123 1.09.369 1.46.246.369.573.553.979.553zm4.599-3.343l-2.494-.24-.554-.868 3.048-.369v1.477zM2.054 86.5V75.776h6.51v.594H2.693v4.396h5.536v.593H2.693v4.548h5.87v.593h-6.51zm11.427.122c-.69 0-1.288-.157-1.795-.472-.507-.314-.897-.765-1.171-1.354-.274-.588-.41-1.287-.41-2.099 0-.821.136-1.52.41-2.099.284-.588.68-1.04 1.186-1.353.507-.315 1.1-.472 1.78-.472.72 0 1.334.188 1.84.563.518.375.857.892 1.02 1.551h-.183l.152-1.992h.624l-.091.836c-.02.274-.03.543-.03.806V86.5h-.64v-1.993h.168c-.163.66-.502 1.177-1.02 1.552-.517.375-1.13.563-1.84.563zm0-.594c.832 0 1.49-.284 1.977-.851.487-.578.73-1.405.73-2.48s-.243-1.896-.73-2.464c-.486-.578-1.146-.867-1.977-.867-.832 0-1.496.29-1.993.867-.486.568-.73 1.39-.73 2.464 0 1.075.244 1.902.73 2.48.497.567 1.162.851 1.993.851zm8.381.594a4.975 4.975 0 01-1.612-.259c-.497-.182-.903-.43-1.217-.745l.32-.502c.364.314.76.547 1.186.7.426.141.877.212 1.354.212.69 0 1.216-.131 1.581-.395.366-.264.548-.624.548-1.08 0-.355-.116-.639-.35-.852-.233-.223-.618-.39-1.156-.502l-1.323-.289c-.65-.152-1.13-.395-1.445-.73-.315-.334-.472-.75-.472-1.247 0-.416.107-.786.32-1.11.223-.325.537-.578.943-.761.416-.193.902-.289 1.46-.289.538 0 1.03.091 1.476.274.456.182.82.436 1.095.76l-.335.502a2.96 2.96 0 00-1.02-.7A3.032 3.032 0 0022 79.367c-.66 0-1.166.142-1.521.426-.345.284-.517.66-.517 1.126 0 .355.106.644.32.867.222.223.572.39 1.049.502l1.323.304c.69.162 1.202.4 1.536.715.335.304.502.71.502 1.217 0 .425-.116.796-.35 1.11-.233.314-.562.558-.988.73-.426.172-.923.259-1.49.259zm4.54 3.33l-.153-.592c.477-.112.867-.254 1.172-.426.314-.162.578-.376.79-.64a4.31 4.31 0 00.578-.988l.396-.912-.015.319-3.316-7.818h.73l3.057 7.362h-.35l3.012-7.362h.73L29.49 87.32c-.182.436-.38.802-.593 1.096a3.63 3.63 0 01-.7.76 3.034 3.034 0 01-.821.487 5.22 5.22 0 01-.974.289zm14.99-3.33c-.69 0-1.288-.157-1.795-.472-.507-.314-.897-.765-1.171-1.354-.274-.588-.41-1.287-.41-2.099 0-.821.136-1.52.41-2.099.284-.588.68-1.04 1.186-1.353.507-.315 1.1-.472 1.78-.472.72 0 1.333.188 1.84.563.517.375.857.892 1.02 1.551h-.183l.152-1.992h.624c-.03.284-.061.563-.092.836-.02.274-.03.543-.03.806V86.5h-.639v-1.993h.167c-.162.66-.502 1.177-1.019 1.552-.517.375-1.13.563-1.84.563zm0-.594c.831 0 1.49-.284 1.977-.851.487-.578.73-1.405.73-2.48s-.243-1.896-.73-2.464c-.486-.578-1.146-.867-1.977-.867-.832 0-1.496.29-1.993.867-.486.568-.73 1.39-.73 2.464 0 1.075.244 1.902.73 2.48.497.567 1.161.851 1.993.851zm8.944.594c-.71 0-1.323-.157-1.84-.472-.518-.324-.918-.786-1.202-1.384-.274-.598-.411-1.308-.411-2.13 0-.82.142-1.52.426-2.099.284-.578.684-1.014 1.202-1.308.517-.304 1.125-.456 1.825-.456.476 0 .933.096 1.369.289.446.183.816.441 1.11.776l-.32.487a3.076 3.076 0 00-1.049-.73 2.976 2.976 0 00-1.125-.229c-.872 0-1.557.284-2.054.852-.486.558-.73 1.369-.73 2.434 0 1.075.244 1.906.73 2.494.497.588 1.182.882 2.054.882.355 0 .72-.07 1.095-.213.385-.152.745-.4 1.08-.745l.32.487a2.96 2.96 0 01-1.142.79 3.512 3.512 0 01-1.338.275zm7.264 0c-.71 0-1.324-.157-1.841-.472-.517-.324-.918-.786-1.202-1.384-.273-.598-.41-1.308-.41-2.13 0-.82.142-1.52.426-2.099.283-.578.684-1.014 1.201-1.308.517-.304 1.126-.456 1.825-.456.477 0 .933.096 1.37.289.446.183.816.441 1.11.776l-.32.487a3.077 3.077 0 00-1.05-.73 2.976 2.976 0 00-1.125-.229c-.872 0-1.556.284-2.053.852-.487.558-.73 1.369-.73 2.434 0 1.075.243 1.906.73 2.494.497.588 1.181.882 2.053.882.355 0 .72-.07 1.095-.213.386-.152.746-.4 1.08-.745l.32.487a2.959 2.959 0 01-1.141.79 3.512 3.512 0 01-1.339.275zm7.46 0c-1.114 0-2.002-.34-2.661-1.02-.66-.689-.989-1.647-.989-2.874 0-.811.147-1.511.442-2.1a3.298 3.298 0 011.232-1.368c.537-.325 1.15-.487 1.84-.487.66 0 1.217.142 1.673.426.467.274.822.674 1.065 1.201.253.518.38 1.136.38 1.856v.41h-6.221v-.577h5.887l-.259.198c0-.913-.213-1.628-.639-2.145-.426-.527-1.06-.791-1.901-.791-.893 0-1.592.304-2.1.913-.496.608-.745 1.404-.745 2.388v.076c0 1.075.264 1.896.791 2.464.528.558 1.263.837 2.206.837.476 0 .923-.077 1.338-.229.416-.152.817-.41 1.202-.775l.32.501c-.315.345-.73.614-1.248.807a4.58 4.58 0 01-1.612.289zm7.47 0a4.975 4.975 0 01-1.613-.259c-.497-.182-.902-.43-1.217-.745l.32-.502c.365.314.76.547 1.186.7.426.141.877.212 1.354.212.69 0 1.217-.131 1.582-.395s.547-.624.547-1.08c0-.355-.116-.639-.35-.852-.233-.223-.618-.39-1.155-.502l-1.324-.289c-.649-.152-1.13-.395-1.445-.73-.314-.334-.471-.75-.471-1.247 0-.416.106-.786.32-1.11.222-.325.537-.578.942-.761.416-.193.903-.289 1.46-.289.538 0 1.03.091 1.476.274.456.182.821.436 1.095.76l-.335.502a2.96 2.96 0 00-1.019-.7 3.032 3.032 0 00-1.217-.243c-.659 0-1.166.142-1.52.426-.345.284-.518.66-.518 1.126 0 .355.107.644.32.867.223.223.573.39 1.05.502l1.322.304c.69.162 1.202.4 1.537.715.334.304.502.71.502 1.217 0 .425-.117.796-.35 1.11-.233.314-.563.558-.989.73-.426.172-.923.259-1.49.259zm7.486 0a4.974 4.974 0 01-1.612-.259c-.497-.182-.903-.43-1.217-.745l.32-.502c.364.314.76.547 1.186.7.426.141.877.212 1.353.212.69 0 1.217-.131 1.582-.395s.548-.624.548-1.08c0-.355-.117-.639-.35-.852-.233-.223-.618-.39-1.156-.502l-1.323-.289c-.65-.152-1.13-.395-1.445-.73-.315-.334-.472-.75-.472-1.247 0-.416.107-.786.32-1.11.223-.325.537-.578.943-.761.416-.193.902-.289 1.46-.289.537 0 1.03.091 1.475.274.457.182.822.436 1.096.76l-.335.502a2.96 2.96 0 00-1.02-.7 3.032 3.032 0 00-1.216-.243c-.66 0-1.166.142-1.521.426-.345.284-.517.66-.517 1.126 0 .355.106.644.32.867.222.223.572.39 1.049.502l1.323.304c.69.162 1.202.4 1.536.715.335.304.502.71.502 1.217 0 .425-.116.796-.35 1.11-.233.314-.562.558-.988.73-.426.172-.923.259-1.491.259zm-75.878 19c-.619 0-1.096-.193-1.43-.578-.325-.396-.487-.994-.487-1.795v-4.807H.701v-.547h1.52V95.72l.639-.244v2.419h2.312v.547H2.86v4.67c0 .669.101 1.156.304 1.46.213.304.553.456 1.02.456a2.292 2.292 0 00.958-.197v.608a1.83 1.83 0 01-.457.122c-.182.04-.365.061-.547.061zm5.496 0c-.69 0-1.288-.157-1.795-.472-.507-.314-.897-.765-1.171-1.354-.274-.588-.411-1.287-.411-2.099 0-.811.137-1.511.41-2.099.275-.588.665-1.04 1.172-1.353.507-.315 1.105-.472 1.795-.472s1.288.157 1.795.472c.507.314.897.765 1.17 1.353.285.588.427 1.288.427 2.099 0 .812-.142 1.511-.426 2.099-.274.589-.664 1.04-1.171 1.354-.507.315-1.106.472-1.795.472zm0-.594c.831 0 1.495-.283 1.992-.851.497-.578.746-1.405.746-2.48s-.249-1.896-.746-2.464c-.496-.578-1.16-.867-1.992-.867-.832 0-1.496.29-1.993.867-.487.568-.73 1.389-.73 2.464s.243 1.902.73 2.48c.497.568 1.161.851 1.993.851zm12.697.594c-.73 0-1.35-.188-1.856-.563-.507-.375-.847-.892-1.02-1.552h.168v1.993h-.639V94.305h.64v5.582h-.168c.172-.659.512-1.176 1.019-1.551.507-.375 1.125-.563 1.856-.563.69 0 1.282.157 1.78.472.506.314.897.765 1.17 1.353.274.578.411 1.278.411 2.099 0 .812-.142 1.511-.426 2.099-.273.589-.664 1.04-1.171 1.354-.497.315-1.085.472-1.764.472zm-.016-.594c.832 0 1.491-.283 1.978-.851.497-.578.745-1.405.745-2.48s-.248-1.896-.745-2.464c-.487-.578-1.146-.867-1.978-.867-.831 0-1.49.29-1.977.867-.487.568-.73 1.389-.73 2.464s.243 1.902.73 2.48c.487.568 1.146.851 1.977.851zm5.537.472v-7.605h.639v7.605h-.639zm-.167-9.598v-.958h.973v.958h-.973zm6.309 9.72c-.68 0-1.273-.157-1.78-.472-.497-.314-.882-.765-1.156-1.354-.274-.588-.41-1.287-.41-2.099 0-.821.136-1.521.41-2.099.274-.588.66-1.04 1.156-1.353.507-.315 1.1-.472 1.78-.472.72 0 1.338.188 1.855.563.518.375.863.892 1.035 1.551h-.167v-5.582h.638V105.5h-.638v-1.993h.167c-.172.66-.517 1.177-1.035 1.552-.517.375-1.135.563-1.855.563zm.015-.594c.821 0 1.48-.283 1.977-.851.497-.578.746-1.405.746-2.48s-.249-1.896-.746-2.464c-.496-.578-1.156-.867-1.977-.867-.831 0-1.49.29-1.977.867-.487.568-.73 1.389-.73 2.464s.243 1.902.73 2.48c.486.568 1.146.851 1.977.851zm18.314.594a8.371 8.371 0 01-1.278-.883 9.522 9.522 0 01-.913-.912h.198a4.196 4.196 0 01-1.536 1.323 4.459 4.459 0 01-2.054.472c-.69 0-1.277-.107-1.764-.32-.487-.213-.857-.507-1.11-.882-.254-.385-.38-.837-.38-1.354 0-.699.202-1.293.608-1.779.405-.497.999-1.014 1.78-1.552l.486-.335-.076.122c-.507-.568-.872-1.05-1.095-1.445a2.475 2.475 0 01-.335-1.232c0-.436.097-.816.29-1.14.202-.325.481-.579.836-.761.365-.193.79-.29 1.278-.29.608 0 1.12.183 1.536.548.426.355.639.847.639 1.476 0 .345-.071.67-.213.973-.142.305-.386.619-.73.943-.345.315-.832.675-1.46 1.08l.03-.197 3.194 3.589h-.167c.263-.426.471-.963.623-1.612a9.294 9.294 0 00.259-2.1h.624c-.02.853-.127 1.639-.32 2.359a7.304 7.304 0 01-.776 1.87l-.03-.273c.243.284.563.598.958.943.396.334.817.623 1.263.867l-.365.502zm-5.598-.594c.7 0 1.319-.141 1.856-.425a3.951 3.951 0 001.369-1.263v.274l-3.407-3.788h.213l-.502.35c-.497.345-.903.664-1.217.959a3.032 3.032 0 00-.7.882 2.354 2.354 0 00-.213 1.034c0 .619.218 1.105.654 1.46.446.345 1.095.517 1.947.517zm.533-9.78c-.528 0-.954.147-1.278.441-.325.294-.487.685-.487 1.171 0 .244.04.472.122.685.081.203.218.436.41.7.203.253.477.578.822.973l-.228.06c.77-.506 1.328-.947 1.673-1.323.345-.385.517-.79.517-1.216 0-.447-.142-.806-.426-1.08-.284-.274-.659-.411-1.125-.411zm13.207 10.374c-.69 0-1.288-.157-1.795-.472-.507-.314-.898-.765-1.172-1.354-.273-.588-.41-1.287-.41-2.099 0-.811.137-1.511.41-2.099.274-.588.665-1.04 1.172-1.353.507-.315 1.105-.472 1.795-.472s1.287.157 1.794.472c.507.314.898.765 1.172 1.353.284.588.425 1.288.425 2.099 0 .812-.141 1.511-.425 2.099-.274.589-.665 1.04-1.172 1.354-.507.315-1.105.472-1.794.472zm0-.594c.831 0 1.495-.283 1.992-.851.497-.578.745-1.405.745-2.48s-.248-1.896-.745-2.464c-.497-.578-1.16-.867-1.992-.867-.832 0-1.496.29-1.993.867-.487.568-.73 1.389-.73 2.464s.243 1.902.73 2.48c.497.568 1.161.851 1.993.851zm5.777.472v-7.058h-1.52v-.547h1.672l-.152.167v-1.354c0-.78.188-1.384.563-1.81.385-.436.928-.654 1.628-.654.172 0 .355.02.547.061.193.03.345.071.457.122v.608a2.35 2.35 0 00-.426-.137 2.383 2.383 0 00-.548-.06c-.355 0-.654.075-.897.228a1.335 1.335 0 00-.517.669c-.112.284-.168.644-.168 1.08v1.293l-.121-.213h2.357v.547h-2.236v7.058h-.639zm4.575 0v-7.058h-1.52v-.547h1.672l-.152.167v-1.354c0-.78.188-1.384.563-1.81.386-.436.928-.654 1.628-.654.172 0 .355.02.547.061.193.03.345.071.457.122v.608a2.347 2.347 0 00-.426-.137 2.382 2.382 0 00-.548-.06c-.355 0-.654.075-.897.228a1.335 1.335 0 00-.517.669c-.112.284-.168.644-.168 1.08v1.293l-.121-.213h2.357v.547h-2.236v7.058h-.639zm7.33.122c-1.115 0-2.002-.34-2.662-1.019-.659-.69-.988-1.648-.988-2.875 0-.811.147-1.511.44-2.1a3.298 3.298 0 011.233-1.368c.537-.325 1.15-.487 1.84-.487.66 0 1.217.142 1.674.426.466.274.821.674 1.064 1.201.254.518.38 1.136.38 1.856v.411h-6.22v-.578h5.886l-.259.198c0-.913-.212-1.628-.638-2.145-.426-.527-1.06-.791-1.902-.791-.892 0-1.592.304-2.099.913-.497.608-.745 1.404-.745 2.388v.076c0 1.075.264 1.896.79 2.464.528.558 1.263.836 2.206.836.477 0 .923-.076 1.339-.228.416-.152.816-.41 1.202-.775l.319.502c-.314.344-.73.613-1.247.806a4.597 4.597 0 01-1.613.289zm5.066-.122v-5.871c0-.284-.01-.573-.03-.867-.01-.294-.031-.583-.062-.867h.624l.091 1.658-.136.015c.1-.406.283-.74.547-1.004.274-.264.583-.461.928-.593a3.001 3.001 0 011.05-.198c.121 0 .238.005.35.015.121.01.233.03.334.061l-.03.593a1.642 1.642 0 00-.335-.06 4.067 4.067 0 00-.365-.016c-.467 0-.877.122-1.232.365a2.486 2.486 0 00-.806.883 2.079 2.079 0 00-.29 1.019v4.867h-.638zm7.439.122a4.985 4.985 0 01-1.613-.259c-.497-.182-.902-.431-1.217-.745l.32-.502c.365.314.76.547 1.186.7a4.28 4.28 0 001.354.212c.69 0 1.217-.131 1.582-.395s.547-.624.547-1.08c0-.355-.116-.639-.35-.852-.233-.223-.618-.39-1.155-.502l-1.324-.289c-.649-.152-1.13-.395-1.445-.73-.314-.334-.471-.75-.471-1.247 0-.416.106-.786.32-1.11.222-.325.537-.578.942-.761.416-.193.903-.289 1.46-.289.538 0 1.03.091 1.476.274.456.182.821.436 1.095.76l-.335.502a2.96 2.96 0 00-1.019-.7 3.032 3.032 0 00-1.216-.243c-.66 0-1.167.142-1.522.426-.344.284-.517.66-.517 1.126 0 .355.107.644.32.867.223.223.573.39 1.05.502l1.322.304c.69.162 1.202.4 1.537.715.334.304.502.71.502 1.217 0 .426-.117.796-.35 1.11-.233.314-.563.558-.989.73-.426.172-.923.259-1.49.259zM3.894 124.5l-2.677-7.605h.715l2.54 7.392h-.41l2.646-7.392h.806l2.601 7.392h-.41l2.57-7.392h.7l-2.692 7.605h-.76l-2.632-7.468h.456L4.67 124.5h-.776zm11.065 0v-7.605h.639v7.605h-.64zm-.168-9.598v-.958h.974v.958h-.974zm5.701 9.72c-.619 0-1.095-.193-1.43-.578-.324-.396-.486-.994-.486-1.795v-4.807h-1.522v-.547h1.522v-2.175l.638-.244v2.419h2.312v.547h-2.312v4.67c0 .669.102 1.156.305 1.46.213.304.552.456 1.019.456a2.291 2.291 0 00.958-.197v.608a1.828 1.828 0 01-.456.122c-.183.04-.365.061-.548.061zm2.71-.122v-11.195h.64v5.43h-.183c.203-.649.563-1.136 1.08-1.46.517-.335 1.116-.502 1.795-.502.923 0 1.602.238 2.038.715.446.477.67 1.191.67 2.145v4.867h-.64v-4.807c0-.811-.162-1.399-.486-1.764-.325-.375-.852-.563-1.582-.563-.811 0-1.465.249-1.962.746-.487.496-.73 1.156-.73 1.977v4.411h-.64zm12.478 0v-5.963c0-.263-.015-.532-.045-.806-.02-.274-.046-.552-.076-.836h.623l.137 1.825h-.182c.213-.639.568-1.121 1.064-1.445.507-.335 1.1-.502 1.78-.502.902 0 1.582.233 2.038.7.467.466.7 1.196.7 2.19v4.837h-.639v-4.776c0-.822-.167-1.42-.502-1.795-.335-.375-.862-.563-1.582-.563-.821 0-1.475.249-1.962.746-.477.496-.715 1.166-.715 2.007v4.381h-.639zm11.535.122c-.69 0-1.288-.157-1.795-.472-.507-.314-.898-.765-1.171-1.354-.274-.588-.411-1.287-.411-2.099 0-.811.137-1.511.41-2.099.274-.588.665-1.039 1.172-1.353.507-.315 1.105-.472 1.795-.472s1.287.157 1.795.472c.507.314.897.765 1.17 1.353.285.588.427 1.288.427 2.099 0 .812-.142 1.511-.426 2.099-.274.589-.664 1.04-1.171 1.354-.508.315-1.106.472-1.795.472zm0-.594c.831 0 1.495-.283 1.992-.851.497-.578.746-1.405.746-2.48s-.249-1.896-.746-2.464c-.497-.578-1.16-.867-1.992-.867-.832 0-1.496.289-1.993.867-.487.568-.73 1.389-.73 2.464s.243 1.902.73 2.48c.497.568 1.161.851 1.993.851zm11.723.594a4.985 4.985 0 01-1.612-.259c-.497-.182-.903-.431-1.217-.745l.32-.502c.364.314.76.547 1.186.7a4.28 4.28 0 001.353.212c.69 0 1.217-.131 1.582-.395s.548-.624.548-1.08c0-.355-.117-.639-.35-.852-.233-.223-.618-.39-1.156-.502l-1.323-.289c-.65-.152-1.13-.395-1.445-.73-.315-.334-.472-.75-.472-1.247 0-.416.107-.786.32-1.11.223-.325.537-.578.943-.761.416-.193.902-.289 1.46-.289.537 0 1.03.091 1.475.274.457.182.822.436 1.096.76l-.335.502a2.961 2.961 0 00-1.02-.699 3.02 3.02 0 00-1.216-.244c-.66 0-1.166.142-1.521.426-.345.284-.517.659-.517 1.126 0 .355.106.644.32.867.222.223.572.39 1.049.502l1.323.304c.69.162 1.202.4 1.536.715.335.304.502.71.502 1.217 0 .426-.116.796-.35 1.11-.233.314-.562.558-.988.73-.426.172-.923.259-1.491.259zm7.973 0c-.69 0-1.288-.157-1.795-.472-.507-.314-.897-.765-1.17-1.354-.275-.588-.411-1.287-.411-2.099 0-.811.136-1.511.41-2.099.274-.588.664-1.039 1.171-1.353.507-.315 1.106-.472 1.795-.472.69 0 1.288.157 1.795.472.507.314.897.765 1.171 1.353.284.588.426 1.288.426 2.099 0 .812-.142 1.511-.426 2.099-.273.589-.664 1.04-1.17 1.354-.508.315-1.106.472-1.796.472zm0-.594c.832 0 1.496-.283 1.993-.851.497-.578.745-1.405.745-2.48s-.248-1.896-.745-2.464c-.497-.578-1.161-.867-1.993-.867-.831 0-1.496.289-1.992.867-.487.568-.73 1.389-.73 2.464s.243 1.902.73 2.48c.496.568 1.16.851 1.992.851zm5.778.472v-7.058h-1.521v-.547h1.673l-.152.167v-1.354c0-.781.188-1.384.563-1.81.385-.436.928-.654 1.627-.654.173 0 .355.02.548.061.193.03.345.071.456.122v.608a2.36 2.36 0 00-.426-.137 2.417 2.417 0 00-.547-.061c-.355 0-.654.076-.898.229a1.334 1.334 0 00-.517.669c-.111.284-.167.644-.167 1.08v1.293l-.122-.213h2.358v.547h-2.236v7.058h-.639zm6.343.122c-.618 0-1.095-.193-1.43-.578-.324-.396-.486-.994-.486-1.795v-4.807h-1.522v-.547h1.522v-2.175l.638-.244v2.419h2.312v.547h-2.312v4.67c0 .669.102 1.156.305 1.46.213.304.552.456 1.019.456a2.292 2.292 0 00.958-.197v.608a1.83 1.83 0 01-.456.122c-.183.04-.365.061-.548.061zm4.763-.122l-2.677-7.605h.714l2.54 7.392h-.41l2.647-7.392h.806l2.6 7.392h-.41l2.57-7.392h.7l-2.692 7.605h-.76l-2.632-7.468h.456L84.57 124.5h-.775zm13.775.122c-.69 0-1.288-.157-1.795-.472-.507-.314-.897-.765-1.17-1.354-.275-.588-.412-1.287-.412-2.099 0-.821.137-1.521.411-2.099.284-.588.68-1.039 1.186-1.353.507-.315 1.1-.472 1.78-.472.72 0 1.334.188 1.84.563.518.375.857.892 1.02 1.551h-.183l.152-1.992h.624l-.091.836a10.55 10.55 0 00-.031.806v5.963h-.639v-1.993h.168c-.163.66-.502 1.177-1.02 1.552-.516.375-1.13.563-1.84.563zm0-.594c.832 0 1.49-.283 1.978-.851.486-.578.73-1.405.73-2.48s-.244-1.896-.73-2.464c-.487-.578-1.146-.867-1.978-.867-.831 0-1.496.289-1.992.867-.487.568-.73 1.389-.73 2.464s.243 1.902.73 2.48c.496.568 1.16.851 1.992.851zm5.978.472v-5.871c0-.284-.01-.573-.03-.867a12.814 12.814 0 00-.061-.867h.623l.092 1.658-.137.015a2.11 2.11 0 01.547-1.004c.274-.264.583-.461.928-.593a2.999 2.999 0 011.05-.198c.121 0 .238.005.35.015.121.01.233.031.334.061l-.03.593a1.737 1.737 0 00-.335-.061 4.093 4.093 0 00-.365-.015 2.13 2.13 0 00-1.232.365 2.5 2.5 0 00-.806.882 2.078 2.078 0 00-.289 1.02v4.867h-.639zm8.199.122c-1.115 0-2.002-.34-2.661-1.019-.66-.69-.989-1.648-.989-2.875 0-.811.147-1.511.441-2.099a3.297 3.297 0 011.232-1.369c.537-.325 1.151-.487 1.84-.487.66 0 1.217.142 1.674.426.466.274.821.674 1.064 1.202.254.517.381 1.135.381 1.855v.411h-6.221v-.578h5.886l-.259.198c0-.913-.213-1.628-.638-2.145-.426-.527-1.06-.791-1.902-.791-.892 0-1.592.304-2.099.913-.497.608-.745 1.404-.745 2.388v.076c0 1.075.264 1.896.791 2.464.527.558 1.262.836 2.205.836a3.87 3.87 0 001.339-.228c.416-.152.816-.41 1.202-.775l.319.502c-.314.344-.73.613-1.247.806a4.598 4.598 0 01-1.613.289zm-107.61 19c-.618 0-1.095-.193-1.43-.578-.324-.396-.486-.994-.486-1.795v-4.807H.701v-.547h1.52v-2.175l.639-.244v2.419h2.312v.547H2.86v4.67c0 .669.101 1.156.304 1.46.213.304.553.456 1.02.456a2.292 2.292 0 00.958-.197v.608a1.83 1.83 0 01-.457.122c-.182.04-.365.061-.547.061zm5.497 0c-.69 0-1.288-.157-1.795-.472-.507-.314-.897-.765-1.171-1.354-.274-.588-.411-1.287-.411-2.099 0-.811.137-1.511.41-2.099.275-.588.665-1.039 1.172-1.353.507-.315 1.105-.472 1.795-.472s1.288.157 1.795.472c.507.314.897.765 1.17 1.353.285.588.427 1.288.427 2.099 0 .812-.142 1.511-.426 2.099-.274.589-.664 1.04-1.171 1.354-.507.315-1.106.472-1.795.472zm0-.594c.831 0 1.495-.283 1.992-.851.497-.578.746-1.405.746-2.48s-.249-1.896-.746-2.464c-.496-.578-1.16-.867-1.992-.867-.832 0-1.496.289-1.993.867-.487.568-.73 1.389-.73 2.464s.243 1.902.73 2.48c.497.568 1.161.851 1.993.851zm12.18.594c-.68 0-1.273-.157-1.78-.472-.497-.314-.882-.765-1.156-1.354-.274-.588-.41-1.287-.41-2.099 0-.821.136-1.521.41-2.099.274-.588.659-1.039 1.156-1.353.507-.315 1.1-.472 1.78-.472.72 0 1.338.188 1.855.563.517.375.862.892 1.034 1.551h-.167v-5.582h.639V143.5h-.639v-1.993h.167c-.172.66-.517 1.177-1.034 1.552s-1.136.563-1.855.563zm.015-.594c.821 0 1.48-.283 1.977-.851.497-.578.745-1.405.745-2.48s-.248-1.896-.745-2.464c-.497-.578-1.156-.867-1.977-.867-.832 0-1.491.289-1.978.867-.486.568-.73 1.389-.73 2.464s.244 1.902.73 2.48c.487.568 1.146.851 1.978.851zm8.883.594c-.69 0-1.288-.157-1.795-.472-.507-.314-.898-.765-1.171-1.354-.274-.588-.411-1.287-.411-2.099 0-.811.137-1.511.41-2.099.274-.588.665-1.039 1.172-1.353.507-.315 1.105-.472 1.795-.472s1.288.157 1.795.472c.507.314.897.765 1.17 1.353.285.588.427 1.288.427 2.099 0 .812-.142 1.511-.426 2.099-.274.589-.664 1.04-1.171 1.354-.507.315-1.106.472-1.795.472zm0-.594c.831 0 1.496-.283 1.992-.851.497-.578.746-1.405.746-2.48s-.249-1.896-.746-2.464c-.496-.578-1.16-.867-1.992-.867-.832 0-1.496.289-1.993.867-.486.568-.73 1.389-.73 2.464s.244 1.902.73 2.48c.497.568 1.161.851 1.993.851zm7.45.472l-2.676-7.605h.715l2.54 7.392h-.411l2.647-7.392h.806l2.6 7.392h-.41l2.57-7.392h.7l-2.692 7.605h-.76l-2.632-7.468h.456l-2.677 7.468h-.775zm11.065 0v-5.963c0-.263-.015-.532-.045-.806-.02-.274-.046-.552-.076-.836h.623l.137 1.825h-.182c.213-.639.567-1.121 1.064-1.445.507-.335 1.1-.502 1.78-.502.903 0 1.582.233 2.038.7.467.466.7 1.196.7 2.19v4.837h-.639v-4.776c0-.822-.167-1.42-.502-1.795-.335-.375-.862-.563-1.582-.563-.821 0-1.475.249-1.962.746-.477.496-.715 1.166-.715 2.007v4.381h-.639zm8.675 0v-11.195h.639V143.5h-.639zm6.172.122c-.69 0-1.288-.157-1.795-.472-.507-.314-.897-.765-1.171-1.354-.274-.588-.41-1.287-.41-2.099 0-.811.136-1.511.41-2.099.274-.588.664-1.039 1.171-1.353.507-.315 1.106-.472 1.795-.472.69 0 1.288.157 1.795.472.507.314.897.765 1.171 1.353.284.588.426 1.288.426 2.099 0 .812-.142 1.511-.426 2.099-.274.589-.664 1.04-1.171 1.354-.507.315-1.105.472-1.795.472zm0-.594c.832 0 1.496-.283 1.993-.851.497-.578.745-1.405.745-2.48s-.248-1.896-.745-2.464c-.497-.578-1.161-.867-1.993-.867-.831 0-1.496.289-1.992.867-.487.568-.73 1.389-.73 2.464s.243 1.902.73 2.48c.496.568 1.16.851 1.992.851zm8.407.594c-.689 0-1.287-.157-1.794-.472-.507-.314-.898-.765-1.171-1.354-.274-.588-.411-1.287-.411-2.099 0-.821.137-1.521.41-2.099.284-.588.68-1.039 1.187-1.353.507-.315 1.1-.472 1.78-.472.72 0 1.333.188 1.84.563.517.375.857.892 1.02 1.551h-.183l.152-1.992h.623l-.09.836c-.021.274-.031.543-.031.806v5.963h-.64v-1.993h.168c-.162.66-.502 1.177-1.019 1.552-.517.375-1.13.563-1.84.563zm0-.594c.832 0 1.491-.283 1.978-.851.487-.578.73-1.405.73-2.48s-.243-1.896-.73-2.464c-.487-.578-1.146-.867-1.978-.867-.831 0-1.495.289-1.992.867-.487.568-.73 1.389-.73 2.464s.243 1.902.73 2.48c.497.568 1.161.851 1.992.851zm8.838.594c-.68 0-1.273-.157-1.78-.472-.496-.314-.882-.765-1.156-1.354-.273-.588-.41-1.287-.41-2.099 0-.821.137-1.521.41-2.099.274-.588.66-1.039 1.156-1.353.507-.315 1.1-.472 1.78-.472.72 0 1.339.188 1.856.563.517.375.862.892 1.034 1.551h-.167v-5.582h.639V143.5h-.64v-1.993h.168c-.172.66-.517 1.177-1.034 1.552s-1.136.563-1.856.563zm.015-.594c.822 0 1.48-.283 1.978-.851.496-.578.745-1.405.745-2.48s-.249-1.896-.745-2.464c-.497-.578-1.156-.867-1.978-.867-.831 0-1.49.289-1.977.867-.487.568-.73 1.389-.73 2.464s.243 1.902.73 2.48c.487.568 1.146.851 1.977.851zm5.765.472v-1.065h1.05v1.065h-1.05zM2.85 184.078c-.404 0-.766-.052-1.086-.157a2.575 2.575 0 01-.836-.45l.215-.472c.167.124.333.229.5.315.171.081.355.143.55.186.195.038.415.057.658.057.423 0 .738-.079.943-.236a.753.753 0 00.307-.629c0-.224-.072-.395-.214-.514-.143-.119-.393-.215-.75-.286l-.75-.15c-.463-.095-.808-.25-1.037-.465-.224-.214-.336-.504-.336-.871 0-.3.076-.562.229-.786a1.54 1.54 0 01.657-.522c.281-.124.608-.186.98-.186.356 0 .683.055.978.165.295.105.548.259.757.464l-.207.458a2.08 2.08 0 00-.707-.429 2.352 2.352 0 00-.83-.136c-.39 0-.7.086-.928.257a.81.81 0 00-.336.686c0 .234.072.417.215.55.143.129.378.227.707.293l.757.15c.486.1.843.25 1.072.451.229.2.343.481.343.843 0 .276-.076.521-.229.736-.147.214-.36.381-.635.5-.277.119-.605.178-.986.178zm4.002 0c-.352 0-.621-.1-.807-.3-.186-.205-.279-.512-.279-.921v-1.98h-.7v-.45h.7v-.979l.58-.164v1.143h1.028v.45H6.345v1.915c0 .286.048.491.143.615.1.119.248.178.443.178.09 0 .172-.007.243-.021.071-.019.136-.041.193-.064v.485c-.067.029-.148.05-.243.065-.09.019-.181.028-.272.028zm2.664 0c-.343 0-.643-.073-.9-.221a1.538 1.538 0 01-.587-.643 2.227 2.227 0 01-.207-.993c0-.386.07-.717.207-.994.139-.276.334-.488.586-.635.258-.153.558-.229.9-.229.348 0 .648.076.9.229.258.147.456.359.594.635.143.277.214.608.214.994 0 .381-.071.712-.214.993-.138.276-.336.49-.593.643a1.749 1.749 0 01-.9.221zm0-.471c.343 0 .614-.117.814-.35.2-.238.3-.584.3-1.036 0-.458-.102-.803-.307-1.036-.2-.239-.47-.358-.807-.358-.339 0-.608.119-.808.358-.2.233-.3.578-.3 1.036 0 .452.1.798.3 1.036.2.233.47.35.808.35zm2.61.407v-2.758c0-.133-.008-.269-.022-.407-.01-.143-.021-.284-.035-.422h.557l.071.786h-.085a1.23 1.23 0 01.5-.629c.233-.147.502-.221.807-.221.424 0 .743.114.957.343.22.224.33.579.33 1.064v2.244h-.58v-2.208c0-.338-.069-.583-.207-.736-.133-.157-.343-.236-.629-.236-.333 0-.597.103-.793.308-.195.205-.293.478-.293.821v2.051h-.578zm5.78.064c-.563 0-1.005-.162-1.33-.486-.323-.328-.485-.783-.485-1.364 0-.377.071-.703.214-.979.143-.281.343-.498.6-.65.258-.157.553-.236.886-.236.329 0 .605.069.83.207.223.138.395.336.514.593.119.253.178.553.178.9v.215h-2.78v-.365h2.401l-.121.093c0-.381-.086-.679-.257-.893-.172-.214-.427-.321-.765-.321-.357 0-.636.126-.836.378-.2.248-.3.584-.3 1.008v.064c0 .448.11.788.329 1.022.224.228.536.343.936.343.214 0 .414-.031.6-.093.19-.067.372-.174.543-.322l.2.408a1.633 1.633 0 01-.6.357c-.238.081-.49.121-.757.121zm2.357-.064v-5.037h.593v2.229h3.037v-2.229h.586v5.037h-.586v-2.301h-3.037v2.301h-.593zm7 .064c-.563 0-1.006-.162-1.33-.486-.323-.328-.485-.783-.485-1.364 0-.377.071-.703.214-.979.143-.281.343-.498.6-.65.258-.157.553-.236.886-.236.329 0 .605.069.83.207.223.138.394.336.514.593.119.253.178.553.178.9v.215h-2.78v-.365h2.401l-.121.093c0-.381-.086-.679-.257-.893-.172-.214-.427-.321-.765-.321-.357 0-.636.126-.836.378-.2.248-.3.584-.3 1.008v.064c0 .448.11.788.329 1.022.224.228.536.343.936.343.214 0 .414-.031.6-.093.19-.067.372-.174.543-.322l.2.408a1.633 1.633 0 01-.6.357c-.238.081-.49.121-.757.121zm3.65 0c-.314 0-.59-.073-.829-.221a1.54 1.54 0 01-.557-.643c-.128-.276-.193-.608-.193-.993 0-.391.065-.724.193-1.001.134-.276.32-.488.557-.636.239-.147.515-.221.83-.221.323 0 .602.081.835.243.239.162.398.381.48.657h-.087v-2.508h.58v5.259h-.572v-.857h.078a1.17 1.17 0 01-.472.678c-.238.162-.519.243-.843.243zm.122-.471c.338 0 .61-.117.814-.35.205-.238.308-.584.308-1.036 0-.458-.103-.803-.308-1.036-.204-.239-.476-.358-.814-.358-.338 0-.61.119-.815.358-.2.233-.3.578-.3 1.036 0 .452.1.798.3 1.036.205.233.477.35.815.35zm4.384 2c-.31 0-.595-.038-.857-.114a2.183 2.183 0 01-.708-.35l.172-.436c.147.105.293.188.436.25.143.062.29.107.443.136.152.033.314.05.486.05.352 0 .619-.093.8-.279.18-.185.271-.45.271-.793v-1.05h.072a1.171 1.171 0 01-.472.672 1.457 1.457 0 01-.836.242 1.66 1.66 0 01-.857-.214 1.506 1.506 0 01-.557-.622 2.212 2.212 0 01-.193-.957c0-.362.064-.676.193-.943.133-.267.319-.472.557-.615.243-.147.529-.221.857-.221.324 0 .603.081.836.243.238.162.396.386.472.671l-.072-.071.065-.779h.564a5.965 5.965 0 00-.057.829v2.737c0 .533-.138.936-.414 1.207-.272.272-.672.407-1.2.407zm-.086-2.143c.348 0 .622-.114.822-.343.2-.233.3-.56.3-.979 0-.419-.1-.743-.3-.972-.2-.228-.474-.343-.822-.343-.343 0-.616.115-.821.343-.205.229-.307.553-.307.972 0 .419.102.746.307.979.205.229.478.343.821.343zm4.406.614c-.563 0-1.005-.162-1.33-.486-.323-.328-.485-.783-.485-1.364 0-.377.071-.703.214-.979.143-.281.343-.498.6-.65.258-.157.553-.236.886-.236.329 0 .605.069.83.207.223.138.395.336.514.593.119.253.178.553.178.9v.215h-2.78v-.365h2.401l-.12.093c0-.381-.087-.679-.258-.893-.172-.214-.427-.321-.765-.321-.357 0-.636.126-.836.378-.2.248-.3.584-.3 1.008v.064c0 .448.11.788.329 1.022.224.228.536.343.936.343.214 0 .414-.031.6-.093.19-.067.372-.174.543-.322l.2.408a1.633 1.633 0 01-.6.357c-.238.081-.49.121-.757.121zm4.156-.064v-3.587h.579v3.587h-.58zm-.072-4.401v-.651h.715v.651h-.715zm2.968 4.465c-.286 0-.553-.038-.8-.114a1.725 1.725 0 01-.615-.336l.2-.407c.176.138.367.24.572.307.21.067.426.1.65.1.286 0 .5-.05.643-.15a.499.499 0 00.221-.429.408.408 0 00-.143-.328c-.09-.086-.24-.153-.45-.2l-.664-.136c-.305-.067-.534-.179-.686-.336a.86.86 0 01-.229-.614c0-.21.055-.393.164-.551.11-.161.27-.288.48-.378.209-.095.454-.143.735-.143.262 0 .503.04.722.121.224.077.41.189.557.336l-.207.4a1.372 1.372 0 00-.493-.307 1.533 1.533 0 00-.565-.107c-.28 0-.492.057-.635.171a.53.53 0 00-.208.436c0 .138.043.253.129.343.09.086.229.15.414.193l.665.136c.324.071.564.183.722.336.162.147.242.347.242.6 0 .214-.059.402-.178.564-.12.158-.286.279-.5.365-.21.085-.458.128-.743.128zm5.579 0a1.55 1.55 0 01-.836-.221 1.54 1.54 0 01-.557-.643c-.13-.276-.193-.608-.193-.993 0-.391.064-.724.193-1.001a1.49 1.49 0 01.557-.636 1.56 1.56 0 01.836-.221c.324 0 .602.083.836.25.238.162.395.383.471.664h-.085l.078-.85h.557l-.042.422c-.01.138-.015.274-.015.407v2.758h-.578v-.843h.078a1.138 1.138 0 01-.471.664 1.438 1.438 0 01-.83.243zm.114-.471c.343 0 .615-.117.815-.35.2-.238.3-.584.3-1.036 0-.458-.1-.803-.3-1.036-.2-.239-.472-.358-.815-.358-.338 0-.61.119-.814.358-.2.233-.3.578-.3 1.036 0 .452.1.798.3 1.036.204.233.476.35.814.35zm4.668 1.95v-4.301c0-.133-.007-.269-.021-.407-.01-.143-.022-.284-.036-.422h.558l.078.85h-.086c.077-.281.231-.502.465-.664.233-.167.512-.25.836-.25.324 0 .602.074.836.221.238.148.424.36.557.636.133.277.2.61.2 1.001 0 .385-.067.717-.2.993-.128.276-.312.49-.55.643-.238.148-.52.221-.843.221-.32 0-.596-.081-.829-.243a1.147 1.147 0 01-.464-.664h.078v2.386h-.579zm1.68-1.95c.342 0 .614-.117.814-.35.205-.238.307-.584.307-1.036 0-.458-.102-.803-.307-1.036-.2-.239-.472-.358-.815-.358-.338 0-.61.119-.814.358-.2.233-.3.578-.3 1.036 0 .452.1.798.3 1.036.205.233.476.35.814.35zm2.59.407v-2.722c0-.143-.004-.288-.014-.436a6.075 6.075 0 00-.029-.429h.558l.071.872-.1.007a1.113 1.113 0 01.672-.836c.162-.071.33-.107.507-.107.072 0 .133.002.186.007.057.005.11.017.157.036l-.007.514a.844.844 0 00-.2-.043 1.297 1.297 0 00-.2-.014c-.21 0-.393.05-.55.15-.153.1-.27.229-.35.386a1.13 1.13 0 00-.115.5v2.115h-.586zm4.04.064c-.343 0-.643-.073-.9-.221a1.538 1.538 0 01-.586-.643 2.226 2.226 0 01-.207-.993c0-.386.069-.717.207-.994.138-.276.334-.488.586-.635.257-.153.557-.229.9-.229.348 0 .648.076.9.229.258.147.456.359.594.635.143.277.214.608.214.994 0 .381-.071.712-.214.993-.139.276-.336.49-.593.643a1.748 1.748 0 01-.9.221zm0-.471c.343 0 .615-.117.815-.35.2-.238.3-.584.3-1.036 0-.458-.102-.803-.307-1.036-.2-.239-.47-.358-.808-.358-.338 0-.607.119-.807.358-.2.233-.3.578-.3 1.036 0 .452.1.798.3 1.036.2.233.47.35.807.35zm3.968.471c-.314 0-.59-.073-.829-.221a1.54 1.54 0 01-.557-.643c-.129-.276-.193-.608-.193-.993 0-.391.064-.724.193-1.001a1.49 1.49 0 01.557-.636c.238-.147.515-.221.829-.221.324 0 .602.081.836.243.238.162.398.381.479.657h-.086v-2.508h.579v5.259h-.572v-.857h.079a1.17 1.17 0 01-.472.678c-.238.162-.52.243-.843.243zm.121-.471c.339 0 .61-.117.815-.35.205-.238.307-.584.307-1.036 0-.458-.102-.803-.307-1.036-.205-.239-.476-.358-.815-.358-.338 0-.61.119-.814.358-.2.233-.3.578-.3 1.036 0 .452.1.798.3 1.036.205.233.476.35.814.35zm4.07.471c-.424 0-.745-.116-.964-.35-.215-.233-.322-.59-.322-1.072v-2.229h.579v2.215c0 .329.067.572.2.729.133.152.34.229.622.229.314 0 .566-.103.757-.308.19-.204.286-.478.286-.821v-2.044h.579v3.587h-.565v-.807h.093a1.283 1.283 0 01-1.265.871zm4.367 0c-.352 0-.66-.076-.922-.228a1.56 1.56 0 01-.6-.65c-.138-.282-.207-.615-.207-1.001 0-.39.071-.721.214-.993.143-.276.343-.486.6-.629.263-.143.567-.214.915-.214.229 0 .45.04.665.121.219.081.4.196.543.343l-.208.415a1.404 1.404 0 00-.471-.307 1.316 1.316 0 00-.493-.101c-.372 0-.66.117-.865.351-.205.233-.307.574-.307 1.021 0 .443.102.786.307 1.029.205.243.493.365.865.365a1.39 1.39 0 00.964-.4l.208.407a1.46 1.46 0 01-.55.35c-.22.081-.439.121-.658.121zm3.302 0c-.353 0-.622-.1-.808-.3-.185-.205-.278-.512-.278-.921v-1.98h-.7v-.45h.7v-.979l.579-.164v1.143h1.028v.45h-1.028v1.915c0 .286.047.491.142.615.1.119.248.178.444.178.09 0 .171-.007.243-.021.07-.019.135-.041.192-.064v.485c-.066.029-.147.05-.243.065-.09.019-.18.028-.271.028zm4.89 0a1.43 1.43 0 01-.836-.243 1.214 1.214 0 01-.472-.678h.079v.857h-.572v-5.259h.579v2.508h-.086c.081-.276.238-.495.472-.657a1.43 1.43 0 01.836-.243c.324 0 .602.076.836.229.238.147.421.359.55.635.133.277.2.608.2.994 0 .385-.067.717-.2.993a1.54 1.54 0 01-.558.643c-.233.148-.51.221-.828.221zm-.122-.471c.338 0 .61-.117.815-.35.205-.234.307-.579.307-1.036 0-.458-.102-.803-.307-1.036-.205-.239-.477-.358-.815-.358-.338 0-.61.119-.814.358-.2.233-.3.578-.3 1.036 0 .452.1.798.3 1.036.204.233.476.35.814.35zm2.414 2.029l-.136-.479a2.66 2.66 0 00.557-.186c.153-.066.279-.157.379-.271.1-.114.186-.257.257-.429l.186-.421-.014.243-1.565-3.666h.629l1.293 3.151h-.186l1.28-3.151h.606l-1.657 3.887c-.096.229-.2.419-.315.572a1.648 1.648 0 01-.371.378 1.56 1.56 0 01-.429.236 3.097 3.097 0 01-.514.136zm7.51-1.558a3.47 3.47 0 01-1.087-.157 2.574 2.574 0 01-.836-.45l.214-.472c.167.124.334.229.5.315.172.081.355.143.55.186.196.038.415.057.658.057.424 0 .738-.079.943-.236a.753.753 0 00.307-.629c0-.224-.071-.395-.214-.514-.143-.119-.393-.215-.75-.286l-.75-.15c-.462-.095-.808-.25-1.036-.465-.224-.214-.336-.504-.336-.871 0-.3.076-.562.228-.786a1.54 1.54 0 01.658-.522c.28-.124.607-.186.979-.186.357 0 .683.055.978.165.296.105.548.259.758.464l-.207.458a2.08 2.08 0 00-.708-.429 2.352 2.352 0 00-.829-.136c-.39 0-.7.086-.928.257a.81.81 0 00-.336.686c0 .234.071.417.214.55.143.129.379.227.708.293l.757.15c.486.1.843.25 1.072.451.228.2.343.481.343.843 0 .276-.076.521-.229.736-.148.214-.36.381-.636.5s-.605.178-.986.178zm4.001 0c-.353 0-.622-.1-.807-.3-.186-.205-.279-.512-.279-.921v-1.98h-.7v-.45h.7v-.979l.579-.164v1.143h1.029v.45h-1.03v1.915c0 .286.048.491.144.615.1.119.247.178.443.178.09 0 .171-.007.243-.021.071-.019.135-.041.192-.064v.485a.993.993 0 01-.242.065 1.322 1.322 0 01-.272.028zm2.663 0c-.343 0-.643-.073-.9-.221a1.534 1.534 0 01-.586-.643 2.229 2.229 0 01-.207-.993c0-.386.069-.717.207-.994.138-.276.333-.488.586-.635.257-.153.557-.229.9-.229a1.7 1.7 0 01.9.229c.258.147.455.359.594.635.142.277.214.608.214.994 0 .381-.072.712-.214.993-.139.276-.336.49-.594.643a1.746 1.746 0 01-.9.221zm0-.471c.343 0 .615-.117.815-.35.2-.238.3-.584.3-1.036 0-.458-.103-.803-.307-1.036-.2-.239-.47-.358-.808-.358-.338 0-.607.119-.807.358-.2.233-.3.578-.3 1.036 0 .452.1.798.3 1.036.2.233.469.35.807.35zm2.61.407v-2.758c0-.133-.007-.269-.021-.407-.01-.143-.022-.284-.036-.422h.557l.072.786h-.086c.105-.276.272-.486.5-.629.234-.147.503-.221.808-.221.424 0 .743.114.957.343.219.224.329.579.329 1.064v2.244h-.579v-2.208c0-.338-.069-.583-.207-.736-.134-.157-.343-.236-.629-.236-.333 0-.598.103-.793.308-.195.205-.293.478-.293.821v2.051h-.579zm5.78.064c-.562 0-1.005-.162-1.329-.486-.324-.328-.486-.783-.486-1.364a2.1 2.1 0 01.215-.979c.143-.281.343-.498.6-.65.257-.157.552-.236.886-.236.329 0 .605.069.829.207.224.138.395.336.514.593.119.253.179.553.179.9v.215h-2.78v-.365h2.401l-.121.093c0-.381-.086-.679-.258-.893-.171-.214-.426-.321-.764-.321-.357 0-.636.126-.836.378-.2.248-.3.584-.3 1.008v.064c0 .448.109.788.328 1.022.224.228.536.343.936.343.215 0 .415-.031.601-.093.19-.067.371-.174.543-.322l.2.408a1.638 1.638 0 01-.6.357 2.342 2.342 0 01-.758.121zm1.793-.064l2.008-2.687v.222l-1.915-2.572h.7l1.572 2.15h-.186l1.558-2.15h.707l-1.922 2.572v-.222l2.008 2.687h-.7l-1.679-2.279h.229l-1.68 2.279h-.7zm-111.622 9v-5.037h3.144v.486h-2.55v1.764h2.393v.486H1.8v2.301h-.593zm3.948 0v-3.587h.579v3.587h-.579zm-.071-4.401v-.651h.714v.651h-.714zm1.774 4.401v-2.758c0-.133-.008-.269-.022-.407-.01-.143-.021-.284-.036-.422h.558l.071.786h-.086a1.23 1.23 0 01.5-.629c.234-.147.503-.221.808-.221.424 0 .743.114.957.343.22.224.33.579.33 1.064v2.244h-.58v-2.208c0-.338-.069-.583-.207-.736-.133-.157-.343-.236-.629-.236-.333 0-.597.103-.793.308-.195.205-.293.478-.293.821v2.051h-.578zm5.55.064a1.55 1.55 0 01-.835-.221 1.54 1.54 0 01-.558-.643c-.128-.276-.192-.608-.192-.993 0-.391.064-.724.192-1.001.134-.276.32-.488.558-.636a1.56 1.56 0 01.836-.221c.324 0 .602.083.836.25.238.162.395.383.471.664h-.085l.078-.85h.558l-.043.422c-.01.138-.015.274-.015.407v2.758h-.578v-.843h.078a1.138 1.138 0 01-.471.664 1.438 1.438 0 01-.83.243zm.115-.471c.343 0 .615-.117.815-.35.2-.238.3-.584.3-1.036 0-.458-.1-.803-.3-1.036-.2-.239-.472-.358-.815-.358-.338 0-.61.119-.814.358-.2.233-.3.578-.3 1.036 0 .452.1.798.3 1.036.204.233.476.35.814.35zm2.805.407v-2.758c0-.133-.007-.269-.021-.407-.01-.143-.021-.284-.036-.422h.557l.072.786h-.086c.105-.276.272-.486.5-.629.234-.147.503-.221.808-.221.424 0 .743.114.957.343.22.224.329.579.329 1.064v2.244h-.579v-2.208c0-.338-.069-.583-.207-.736-.133-.157-.343-.236-.629-.236-.333 0-.598.103-.793.308-.195.205-.293.478-.293.821v2.051h-.579zm5.695.064c-.353 0-.66-.076-.922-.228a1.559 1.559 0 01-.6-.65c-.139-.282-.207-.615-.207-1.001 0-.39.07-.721.214-.993.143-.276.343-.486.6-.629a1.88 1.88 0 01.915-.214c.228 0 .45.04.664.121.22.081.4.196.543.343l-.207.415a1.404 1.404 0 00-.472-.307 1.316 1.316 0 00-.493-.101c-.371 0-.66.117-.864.351-.205.233-.307.574-.307 1.021 0 .443.102.786.307 1.029.205.243.493.365.864.365a1.39 1.39 0 00.965-.4l.207.407a1.46 1.46 0 01-.55.35c-.22.081-.438.121-.657.121zm2.03-.064v-3.587h.578v3.587h-.578zm-.072-4.401v-.651h.715v.651h-.715zm3.139 4.465a1.55 1.55 0 01-.836-.221 1.54 1.54 0 01-.557-.643c-.129-.276-.193-.608-.193-.993 0-.391.064-.724.193-1.001a1.49 1.49 0 01.557-.636 1.56 1.56 0 01.836-.221c.324 0 .602.083.836.25.238.162.395.383.471.664h-.085l.078-.85h.558l-.043.422c-.01.138-.014.274-.014.407v2.758h-.58v-.843h.08a1.138 1.138 0 01-.472.664 1.438 1.438 0 01-.83.243zm.114-.471c.343 0 .615-.117.815-.35.2-.238.3-.584.3-1.036 0-.458-.1-.803-.3-1.036-.2-.239-.472-.358-.815-.358-.338 0-.61.119-.814.358-.2.233-.3.578-.3 1.036 0 .452.1.798.3 1.036.204.233.476.35.814.35zm2.805.407v-5.259h.58v5.259h-.58zm3.63 0v-5.037h.593v5.037h-.593zm1.785 0v-2.758a3.98 3.98 0 00-.021-.407 11.71 11.71 0 00-.036-.422h.557l.072.786h-.086a1.23 1.23 0 01.5-.629c.233-.147.503-.221.808-.221.424 0 .743.114.957.343.22.224.329.579.329 1.064v2.244h-.58v-2.208c0-.338-.068-.583-.206-.736-.134-.157-.343-.236-.63-.236-.333 0-.597.103-.792.308-.196.205-.293.478-.293.821v2.051h-.579zm5.694.064c-.352 0-.66-.076-.921-.228a1.56 1.56 0 01-.6-.65c-.139-.282-.208-.615-.208-1.001 0-.39.072-.721.215-.993.142-.276.343-.486.6-.629a1.88 1.88 0 01.914-.214c.229 0 .45.04.665.121.219.081.4.196.543.343l-.207.415a1.404 1.404 0 00-.472-.307 1.316 1.316 0 00-.493-.101c-.371 0-.66.117-.864.351-.205.233-.308.574-.308 1.021 0 .443.103.786.307 1.029.205.243.493.365.865.365a1.39 1.39 0 00.965-.4l.207.407a1.459 1.459 0 01-.55.35c-.22.081-.439.121-.658.121zm1.986-.064v-.729h.729v.729h-.73zm3.038-1.772v-.379h3.609v.379h-3.608zm6.1 1.772v-5.037h3.144v.486h-2.551v1.764h2.393v.486h-2.393v2.301h-.593zm6.087.064c-.505 0-.934-.104-1.286-.314a2.089 2.089 0 01-.815-.893c-.186-.386-.279-.846-.279-1.379 0-.534.093-.991.28-1.372.19-.386.461-.684.814-.893.352-.21.78-.315 1.286-.315.357 0 .676.055.957.165.281.109.527.269.736.479l-.221.471a2.443 2.443 0 00-.68-.436 2 2 0 00-.785-.143c-.576 0-1.015.179-1.315.536-.3.357-.45.86-.45 1.508s.15 1.153.45 1.515c.3.357.739.535 1.315.535.3 0 .562-.045.786-.135.224-.096.45-.246.679-.45l.221.478c-.21.205-.455.365-.736.479-.28.11-.6.164-.957.164zm2.698-.064v-5.037h.514l2.022 4.565h-.207l2.022-4.565h.514v5.037h-.543v-4.273h.215l-1.908 4.273h-.393l-1.915-4.273h.215v4.273h-.536zm7.989 0v-5.037h1.672c.557 0 1.029.097 1.415.293.386.19.678.474.879.85.2.372.3.829.3 1.372 0 .538-.1.995-.3 1.372-.2.376-.493.662-.88.857-.385.195-.857.293-1.414.293h-1.672zm.593-.507h1.036c.686 0 1.196-.167 1.53-.5.332-.339.5-.844.5-1.515 0-.677-.168-1.181-.5-1.515-.334-.333-.844-.5-1.53-.5H68.64v4.03zm4.68.507v-3.587h.58v3.587h-.58zm-.07-4.401v-.651h.714v.651h-.715zm2.83 4.401l-1.536-3.587h.63l1.285 3.158h-.193l1.3-3.158h.601l-1.536 3.587h-.55zm2.739 0v-3.587h.579v3.587h-.58zm-.072-4.401v-.651h.715v.651h-.715zm2.968 4.465c-.286 0-.553-.038-.8-.114a1.725 1.725 0 01-.615-.336l.2-.407c.176.138.367.24.572.307.21.067.426.1.65.1.286 0 .5-.05.643-.15a.499.499 0 00.221-.429.408.408 0 00-.142-.328c-.091-.086-.241-.153-.45-.2l-.665-.136c-.305-.067-.534-.179-.686-.336a.861.861 0 01-.229-.614c0-.21.055-.393.165-.551.11-.161.269-.288.478-.378.21-.095.455-.143.736-.143.262 0 .503.04.722.121.224.077.41.189.557.336l-.207.4a1.372 1.372 0 00-.493-.307 1.533 1.533 0 00-.564-.107c-.281 0-.493.057-.636.171a.53.53 0 00-.208.436c0 .138.043.253.13.343.09.086.228.15.413.193l.665.136c.324.071.564.183.722.336.162.147.243.347.243.6 0 .214-.06.402-.179.564-.12.158-.286.279-.5.365-.21.085-.457.128-.743.128zm2.351-.064v-3.587h.579v3.587h-.579zm-.071-4.401v-.651h.714v.651h-.714zm3.246 4.465c-.343 0-.643-.073-.9-.221a1.538 1.538 0 01-.587-.643 2.226 2.226 0 01-.207-.993c0-.386.07-.717.207-.994.138-.276.334-.488.586-.635.258-.153.558-.229.9-.229.348 0 .648.076.9.229.258.147.456.359.594.635.143.277.214.608.214.994 0 .381-.071.712-.214.993-.138.276-.336.49-.593.643a1.748 1.748 0 01-.9.221zm0-.471c.343 0 .614-.117.814-.35.2-.238.3-.584.3-1.036 0-.458-.102-.803-.307-1.036-.2-.239-.47-.358-.807-.358-.339 0-.608.119-.808.358-.2.233-.3.578-.3 1.036 0 .452.1.798.3 1.036.2.233.47.35.808.35zm2.61.407v-2.758a3.98 3.98 0 00-.022-.407 11.71 11.71 0 00-.036-.422h.558l.071.786h-.086a1.23 1.23 0 01.5-.629c.234-.147.503-.221.808-.221.424 0 .743.114.957.343.22.224.33.579.33 1.064v2.244h-.58v-2.208c0-.338-.069-.583-.207-.736-.133-.157-.343-.236-.629-.236-.333 0-.597.103-.793.308-.195.205-.293.478-.293.821v2.051h-.578z" fill="#000"/></svg>