<svg width="120" height="12" viewBox="0 0 120 12" fill="none" xmlns="http://www.w3.org/2000/svg"><path d="M27.344 8v-.48H25.43V3.8h-.522V8h2.436zm1.703.036c.894 0 1.518-.636 1.518-1.566s-.624-1.566-1.518-1.566-1.518.636-1.518 1.566.624 1.566 1.518 1.566zm0-.438c-.606 0-1.014-.474-1.014-1.128 0-.654.408-1.128 1.014-1.128.606 0 1.014.474 1.014 1.128 0 .654-.408 1.128-1.014 1.128zm1.944-.606c.012.672.558 1.044 1.35 1.044.678 0 1.224-.354 1.224-.924 0-.678-.558-.81-1.254-.894-.444-.054-.768-.096-.768-.432 0-.282.288-.462.714-.462.42 0 .708.234.744.546h.504c-.048-.636-.552-.96-1.248-.966-.69-.006-1.2.36-1.2.918 0 .636.546.774 1.23.858.456.054.792.084.792.468 0 .282-.306.468-.738.468-.51 0-.828-.264-.846-.624h-.504zm2.936 0c.012.672.558 1.044 1.35 1.044.678 0 1.224-.354 1.224-.924 0-.678-.558-.81-1.254-.894-.444-.054-.768-.096-.768-.432 0-.282.288-.462.714-.462.42 0 .708.234.744.546h.504c-.048-.636-.552-.96-1.248-.966-.69-.006-1.2.36-1.2.918 0 .636.546.774 1.23.858.456.054.792.084.792.468 0 .282-.306.468-.738.468-.51 0-.828-.264-.846-.624h-.504zm4.53 1.044c.708 0 1.212-.45 1.332-1.062h-.498c-.102.396-.438.624-.87.624-.582 0-.948-.408-.966-.99v-.042h2.376c.006-.072.012-.144.012-.21-.024-.906-.588-1.452-1.452-1.452s-1.452.636-1.452 1.566c0 .936.6 1.566 1.518 1.566zm-.972-1.878a.906.906 0 01.912-.822c.51 0 .87.294.918.822h-1.83zm2.782.834c.012.672.558 1.044 1.35 1.044.678 0 1.224-.354 1.224-.924 0-.678-.558-.81-1.254-.894-.444-.054-.768-.096-.768-.432 0-.282.288-.462.714-.462.42 0 .708.234.744.546h.504c-.048-.636-.552-.96-1.248-.966-.69-.006-1.2.36-1.2.918 0 .636.546.774 1.23.858.456.054.792.084.792.468 0 .282-.306.468-.738.468-.51 0-.828-.264-.846-.624h-.504zm6.064 1.044c.744 0 1.242-.42 1.362-1.08h-.522c-.096.39-.396.642-.834.642-.588 0-.984-.456-.984-1.122 0-.666.396-1.134.984-1.134.45 0 .75.246.84.654h.516c-.126-.672-.6-1.092-1.35-1.092-.888 0-1.494.636-1.494 1.572 0 .954.588 1.56 1.482 1.56zm4.607-.486c-.138 0-.198-.042-.198-.204V6.008c0-.714-.45-1.104-1.23-1.104-.737 0-1.224.354-1.295.954h.491c.06-.312.348-.516.78-.516.48 0 .763.24.763.636v.21h-.9c-.804 0-1.23.342-1.23.954 0 .558.456.894 1.127.894.529 0 .834-.234 1.026-.51.007.3.145.474.553.474h.27v-.45h-.157zm-.69-.798c0 .51-.353.864-.965.864-.409 0-.666-.204-.666-.504 0-.348.245-.51.684-.51h.947v.15zm2.725-1.848c-.516 0-.828.216-1.008.45l-.066-.414h-.426V8h.492V6.47c0-.69.348-1.116.924-1.116.534 0 .828.336.828.972V8h.492V6.296c0-1.014-.546-1.392-1.236-1.392zm4.843 3.132c.708 0 1.212-.45 1.332-1.062h-.498c-.102.396-.438.624-.87.624-.582 0-.948-.408-.966-.99v-.042h2.376c.006-.072.012-.144.012-.21-.024-.906-.588-1.452-1.452-1.452s-1.452.636-1.452 1.566c0 .936.6 1.566 1.518 1.566zm-.972-1.878a.906.906 0 01.912-.822c.51 0 .87.294.918.822h-1.83zM59.311 8h.558l.894-1.23.894 1.23h.588l-1.17-1.572 1.092-1.488h-.558l-.822 1.134-.81-1.134h-.588l1.086 1.488L59.31 8zm4.528.036c.744 0 1.242-.42 1.362-1.08h-.522c-.096.39-.396.642-.834.642-.588 0-.984-.456-.984-1.122 0-.666.396-1.134.984-1.134.45 0 .75.246.84.654h.516c-.126-.672-.6-1.092-1.35-1.092-.888 0-1.494.636-1.494 1.572 0 .954.588 1.56 1.482 1.56zm3.311 0c.708 0 1.212-.45 1.332-1.062h-.498c-.102.396-.438.624-.87.624-.582 0-.948-.408-.966-.99v-.042h2.376c.006-.072.012-.144.012-.21-.024-.906-.588-1.452-1.452-1.452s-1.452.636-1.452 1.566c0 .936.6 1.566 1.518 1.566zm-.972-1.878a.906.906 0 01.912-.822c.51 0 .87.294.918.822h-1.83zm4.33 1.878c.708 0 1.212-.45 1.332-1.062h-.498c-.102.396-.438.624-.87.624-.582 0-.948-.408-.966-.99v-.042h2.376c.006-.072.012-.144.012-.21-.024-.906-.588-1.452-1.452-1.452S68.99 5.54 68.99 6.47c0 .936.6 1.566 1.518 1.566zm-.972-1.878a.906.906 0 01.912-.822c.51 0 .87.294.918.822h-1.83zm5.331-.75c-.186-.294-.534-.504-1.05-.504-.846 0-1.47.63-1.47 1.566 0 .996.624 1.566 1.47 1.566.516 0 .846-.246 1.05-.528l.066.492h.426V3.8h-.492v1.608zm-1.002 2.19c-.606 0-1.014-.462-1.014-1.128 0-.666.408-1.128 1.014-1.128.6 0 1.008.468 1.008 1.14 0 .654-.408 1.116-1.008 1.116zm6.147-2.19c-.186-.294-.534-.504-1.05-.504-.846 0-1.47.63-1.47 1.566 0 .996.624 1.566 1.47 1.566.516 0 .846-.246 1.05-.528l.066.492h.426V3.8h-.492v1.608zm-1.002 2.19c-.606 0-1.014-.462-1.014-1.128 0-.666.408-1.128 1.014-1.128.6 0 1.008.468 1.008 1.14 0 .654-.408 1.116-1.008 1.116zm3.574.438c.708 0 1.212-.45 1.332-1.062h-.498c-.102.396-.438.624-.87.624-.582 0-.948-.408-.966-.99v-.042h2.376c.006-.072.012-.144.012-.21-.024-.906-.588-1.452-1.452-1.452s-1.452.636-1.452 1.566c0 .936.6 1.566 1.518 1.566zm-.972-1.878a.906.906 0 01.912-.822c.51 0 .87.294.918.822h-1.83zm4.461-1.254c-.516 0-.846.246-1.05.528l-.066-.492h-.426V9.2h.492V7.532c.186.294.534.504 1.05.504.846 0 1.47-.63 1.47-1.566 0-.996-.624-1.566-1.47-1.566zm-.048 2.694c-.6 0-1.008-.468-1.008-1.14 0-.654.408-1.116 1.008-1.116.606 0 1.014.462 1.014 1.128 0 .666-.408 1.128-1.014 1.128zm3.49.438c.894 0 1.519-.636 1.519-1.566s-.625-1.566-1.519-1.566c-.894 0-1.517.636-1.517 1.566s.623 1.566 1.517 1.566zm0-.438c-.606 0-1.014-.474-1.014-1.128 0-.654.408-1.128 1.014-1.128.606 0 1.014.474 1.014 1.128 0 .654-.407 1.128-1.013 1.128zm1.945-.606c.012.672.558 1.044 1.35 1.044.678 0 1.224-.354 1.224-.924 0-.678-.558-.81-1.254-.894-.444-.054-.768-.096-.768-.432 0-.282.288-.462.714-.462.42 0 .708.234.744.546h.504c-.048-.636-.552-.96-1.248-.966-.69-.006-1.2.36-1.2.918 0 .636.546.774 1.23.858.456.054.792.084.792.468 0 .282-.306.468-.738.468-.51 0-.828-.264-.846-.624h-.504zm3.372-2.568c.18 0 .318-.132.318-.318a.309.309 0 00-.318-.318.309.309 0 00-.318.318c0 .186.138.318.318.318zM94.58 8h.492V4.94h-.492V8zm1.394-.798c0 .54.21.798.798.798h.534v-.45h-.486c-.264 0-.354-.096-.354-.354V5.39h.792v-.45h-.792v-.858h-.492v.858h-.552v.45h.552v1.812zm1.632-.21c.013.672.559 1.044 1.35 1.044.678 0 1.224-.354 1.224-.924 0-.678-.558-.81-1.254-.894-.444-.054-.767-.096-.767-.432 0-.282.287-.462.713-.462.42 0 .709.234.745.546h.503c-.048-.636-.552-.96-1.248-.966-.69-.006-1.2.36-1.2.918 0 .636.547.774 1.23.858.457.054.793.084.793.468 0 .282-.306.468-.738.468-.51 0-.828-.264-.846-.624h-.505z" fill="#000"/></svg>