<svg width="121" height="26" viewBox="0 0 121 26" fill="none" xmlns="http://www.w3.org/2000/svg"><path d="M4.416 9.572c1.956 0 3.384-1.152 3.648-2.928H6.636C6.372 7.712 5.568 8.36 4.404 8.36 2.82 8.36 1.86 7.088 1.86 5.3c0-1.8.984-3.06 2.58-3.06 1.14 0 1.932.66 2.208 1.716h1.428C7.8 2.18 6.42 1.028 4.5 1.028 2.016 1.028.444 2.744.444 5.3c0 2.58 1.524 4.272 3.972 4.272zm10.274-1.2c-.264 0-.396-.084-.396-.396v-2.46c0-1.452-.937-2.232-2.569-2.232-1.547 0-2.58.744-2.711 1.944h1.272c.096-.54.612-.9 1.38-.9.851 0 1.343.42 1.343 1.104v.372h-1.548c-1.716 0-2.627.708-2.627 1.968 0 1.14.936 1.8 2.28 1.8.995 0 1.62-.432 2.027-1.056 0 .612.289.984 1.129.984h.684V8.372h-.264zM13.01 6.98c-.012.948-.636 1.584-1.716 1.584-.709 0-1.14-.36-1.14-.876 0-.624.444-.924 1.248-.924h1.607v.216zm5.89-3.696c-.997 0-1.585.396-1.969.876l-.144-.804H15.66V9.5h1.296V6.404c0-1.248.612-2.004 1.644-2.004.972 0 1.464.624 1.464 1.788V9.5h1.308V6.08c0-2.052-1.116-2.796-2.472-2.796zm6.516 3.456c.048 1.68 1.308 2.832 3.396 2.832 1.848 0 3.108-1.044 3.108-2.556.012-1.656-1.344-2.1-2.736-2.352C27.864 4.436 27 4.256 27 3.392c0-.792.66-1.2 1.608-1.2 1.02 0 1.692.576 1.8 1.428h1.38c-.06-1.548-1.26-2.592-3.18-2.592-1.788 0-2.988.996-2.988 2.46 0 1.668 1.32 2.112 2.712 2.352 1.332.24 2.208.432 2.208 1.32 0 .804-.72 1.248-1.716 1.248-1.176 0-1.944-.66-2.016-1.644l-1.392-.024zm8.247-4.248c.444 0 .792-.324.792-.78s-.348-.78-.792-.78c-.444 0-.792.324-.792.78s.348.78.792.78zm-.66 7.008H34.3V3.356h-1.296V9.5zm2.567 0h1.296V1.1H35.57v8.4zm3.226-7.008c.444 0 .792-.324.792-.78s-.348-.78-.792-.78c-.444 0-.792.324-.792.78s.348.78.792.78zm-.66 7.008h1.296V3.356h-1.296V9.5zm5.386.072c1.572 0 2.616-.876 2.856-2.268H45.01c-.156.708-.684 1.164-1.476 1.164-1.044 0-1.728-.828-1.728-2.028 0-1.212.684-2.052 1.728-2.052.804 0 1.32.444 1.488 1.164h1.356c-.252-1.392-1.236-2.268-2.82-2.268-1.86 0-3.084 1.26-3.084 3.156 0 1.92 1.188 3.132 3.048 3.132zm6.752 0c1.872 0 3.132-1.26 3.132-3.144 0-1.872-1.26-3.144-3.132-3.144s-3.132 1.272-3.132 3.144c0 1.884 1.26 3.144 3.132 3.144zm0-1.104c-1.092 0-1.8-.852-1.8-2.04 0-1.188.708-2.04 1.8-2.04s1.812.852 1.812 2.04c0 1.188-.72 2.04-1.812 2.04zm7.414-5.184c-.995 0-1.584.396-1.968.876l-.143-.804h-1.128V9.5h1.296V6.404c0-1.248.611-2.004 1.644-2.004.971 0 1.463.624 1.463 1.788V9.5h1.309V6.08c0-2.052-1.117-2.796-2.473-2.796zM66.785 9.5h1.656l2.94-8.4h-1.428l-2.34 6.744L65.297 1.1h-1.464l2.952 8.4zm10.131-1.128c-.264 0-.396-.084-.396-.396v-2.46c0-1.452-.936-2.232-2.568-2.232-1.548 0-2.58.744-2.712 1.944h1.272c.096-.54.612-.9 1.38-.9.852 0 1.344.42 1.344 1.104v.372h-1.548c-1.716 0-2.628.708-2.628 1.968 0 1.14.936 1.8 2.28 1.8.996 0 1.62-.432 2.028-1.056 0 .612.288.984 1.128.984h.684V8.372h-.264zm-1.68-1.392c-.012.948-.636 1.584-1.716 1.584-.708 0-1.14-.36-1.14-.876 0-.624.444-.924 1.248-.924h1.608v.216zm2.65 2.52h1.296V1.1h-1.296v8.4zm2.566 0h1.296V1.1h-1.296v8.4zm5.483.072c1.524 0 2.556-.924 2.772-2.136H87.41c-.18.684-.756 1.08-1.548 1.08-1.02 0-1.68-.684-1.716-1.728v-.084h4.632a3.52 3.52 0 00.036-.492c-.036-1.8-1.224-2.928-3-2.928-1.812 0-3.024 1.26-3.024 3.156 0 1.884 1.212 3.132 3.144 3.132zm-1.74-3.816c.096-.876.804-1.428 1.632-1.428.9 0 1.536.516 1.644 1.428h-3.276zm7.162 3.78l-.24.6c-.192.504-.312.624-.816.624h-.912v1.14h1.392c.9 0 1.164-.444 1.548-1.44l2.784-7.104h-1.38l-1.668 4.668-1.716-4.668h-1.38l2.388 6.18zm10.59-6.18c-1.008 0-1.5.408-1.812.924l-.144-.924H98.84V9.5h1.296V6.416c0-.948.372-1.848 1.524-1.848h.576V3.356h-.288zm6.516 5.016c-.264 0-.396-.084-.396-.396v-2.46c0-1.452-.936-2.232-2.568-2.232-1.548 0-2.58.744-2.712 1.944h1.272c.096-.54.612-.9 1.38-.9.852 0 1.344.42 1.344 1.104v.372h-1.548c-1.716 0-2.628.708-2.628 1.968 0 1.14.936 1.8 2.28 1.8.996 0 1.62-.432 2.028-1.056 0 .612.288.984 1.128.984h.684V8.372h-.264zm-1.68-1.392c-.012.948-.636 1.584-1.716 1.584-.708 0-1.14-.36-1.14-.876 0-.624.444-.924 1.248-.924h1.608v.216zm2.65 2.52h1.296V1.1h-1.296v8.4zm2.566 0h1.296V1.1h-1.296v8.4zm4.343.036l-.24.6c-.192.504-.312.624-.816.624h-.912v1.14h1.392c.9 0 1.164-.444 1.548-1.44l2.784-7.104h-1.38l-1.668 4.668-1.716-4.668h-1.38l2.388 6.18zM6.252 22.372c-.264 0-.396-.084-.396-.396v-2.46c0-1.452-.936-2.232-2.568-2.232-1.548 0-2.58.744-2.712 1.944h1.272c.096-.54.612-.9 1.38-.9.852 0 1.344.42 1.344 1.104v.372H3.024c-1.716 0-2.628.708-2.628 1.968 0 1.14.936 1.8 2.28 1.8.996 0 1.62-.432 2.028-1.056 0 .612.288.984 1.128.984h.684v-1.128h-.264zm-1.68-1.392c-.012.948-.636 1.584-1.716 1.584-.708 0-1.14-.36-1.14-.876 0-.624.444-.924 1.248-.924h1.608v.216zm5.878-3.696c-.96 0-1.548.432-1.932.96V15.1H7.222v8.4h1.296v-3.108c0-1.236.624-1.992 1.644-1.992.96 0 1.476.624 1.476 1.788V23.5h1.296v-3.42c0-2.052-1.116-2.796-2.484-2.796zm6.532 6.288c1.524 0 2.556-.924 2.772-2.136h-1.296c-.18.684-.756 1.08-1.548 1.08-1.02 0-1.68-.684-1.716-1.728v-.084h4.632a3.52 3.52 0 00.036-.492c-.036-1.8-1.224-2.928-3-2.928-1.812 0-3.024 1.26-3.024 3.156 0 1.884 1.212 3.132 3.144 3.132zm-1.74-3.816c.096-.876.804-1.428 1.632-1.428.9 0 1.536.516 1.644 1.428h-3.276zm11.283 2.616c-.264 0-.396-.084-.396-.396v-2.46c0-1.452-.936-2.232-2.568-2.232-1.548 0-2.58.744-2.712 1.944h1.272c.096-.54.612-.9 1.38-.9.852 0 1.344.42 1.344 1.104v.372h-1.548c-1.716 0-2.628.708-2.628 1.968 0 1.14.936 1.8 2.28 1.8.996 0 1.62-.432 2.028-1.056 0 .612.288.984 1.128.984h.684v-1.128h-.264zm-1.68-1.392c-.012.948-.636 1.584-1.716 1.584-.708 0-1.14-.36-1.14-.876 0-.624.444-.924 1.248-.924h1.608v.216zm7.272-2.772c-.396-.54-1.056-.924-1.992-.924-1.669 0-2.904 1.248-2.904 3.144 0 1.968 1.235 3.144 2.904 3.144.971 0 1.608-.456 2.004-.996l.156.924h1.128v-8.4h-1.296v3.108zM30.34 22.48c-1.08 0-1.789-.84-1.789-2.052 0-1.2.709-2.04 1.788-2.04 1.08 0 1.789.84 1.789 2.064 0 1.188-.708 2.028-1.788 2.028zm10.312 1.092c1.872 0 3.132-1.26 3.132-3.144 0-1.872-1.26-3.144-3.132-3.144s-3.132 1.272-3.132 3.144c0 1.884 1.26 3.144 3.132 3.144zm0-1.104c-1.092 0-1.8-.852-1.8-2.04 0-1.188.708-2.04 1.8-2.04s1.812.852 1.812 2.04c0 1.188-.72 2.04-1.812 2.04zm3.504-3.972h1.068V23.5h1.307v-5.004h1.645v-1.14h-1.669v-.516c0-.42.18-.6.6-.6h1.069V15.1H46.94c-1.189 0-1.717.576-1.717 1.68v.576h-1.067v1.14zm10.676 5.076c1.524 0 2.556-.924 2.772-2.136H56.31c-.18.684-.756 1.08-1.548 1.08-1.02 0-1.68-.684-1.716-1.728v-.084h4.632a3.52 3.52 0 00.036-.492c-.036-1.8-1.224-2.928-3-2.928-1.812 0-3.024 1.26-3.024 3.156 0 1.884 1.212 3.132 3.144 3.132zm-1.74-3.816c.096-.876.804-1.428 1.632-1.428.9 0 1.536.516 1.644 1.428h-3.276zm11.284 2.616c-.264 0-.396-.084-.396-.396v-2.46c0-1.452-.936-2.232-2.568-2.232-1.548 0-2.58.744-2.712 1.944h1.272c.096-.54.612-.9 1.38-.9.852 0 1.344.42 1.344 1.104v.372h-1.548c-1.716 0-2.628.708-2.628 1.968 0 1.14.936 1.8 2.28 1.8.996 0 1.62-.432 2.028-1.056 0 .612.288.984 1.128.984h.684v-1.128h-.264zm-1.68-1.392c-.012.948-.636 1.584-1.716 1.584-.708 0-1.14-.36-1.14-.876 0-.624.444-.924 1.248-.924h1.608v.216zm5.758-3.624c-1.008 0-1.5.408-1.812.924l-.144-.924h-1.152V23.5h1.296v-3.084c0-.948.372-1.848 1.524-1.848h.576v-1.212h-.288zm4.327-.072c-.996 0-1.584.396-1.968.876l-.144-.804h-1.128V23.5h1.296v-3.096c0-1.248.612-2.004 1.644-2.004.972 0 1.464.624 1.464 1.788V23.5h1.308v-3.42c0-2.052-1.116-2.796-2.472-2.796zm4.31-.792c.445 0 .793-.324.793-.78s-.348-.78-.792-.78c-.444 0-.792.324-.792.78s.348.78.792.78zm-.66 7.008h1.297v-6.144h-1.296V23.5zm5.807-6.216c-.996 0-1.584.396-1.968.876l-.144-.804H79V23.5h1.296v-3.096c0-1.248.612-2.004 1.644-2.004.972 0 1.464.624 1.464 1.788V23.5h1.308v-3.42c0-2.052-1.116-2.796-2.472-2.796zm8.343 1.032c-.396-.612-1.056-1.032-2.016-1.032-1.668 0-2.904 1.236-2.904 3.12 0 1.956 1.236 3.12 2.904 3.12.96 0 1.596-.396 2.004-1.008v.684c0 1.176-.636 1.716-1.764 1.716-.912 0-1.512-.396-1.668-1.08h-1.32c.12 1.38 1.26 2.136 2.892 2.136 2.208 0 3.144-1.056 3.144-2.724v-5.892h-1.128l-.144.96zm-1.8 4.116c-1.08 0-1.788-.828-1.788-2.028 0-1.188.708-2.028 1.788-2.028s1.788.84 1.788 2.052c0 1.176-.708 2.004-1.788 2.004zm4.074-.96c.036 1.332 1.164 2.1 2.808 2.1 1.488 0 2.604-.744 2.604-1.92 0-1.368-1.14-1.656-2.544-1.824-.888-.096-1.476-.168-1.476-.744 0-.492.504-.804 1.272-.804s1.296.396 1.368.96h1.272c-.084-1.26-1.152-1.956-2.664-1.956-1.476-.012-2.52.744-2.52 1.908 0 1.272 1.104 1.572 2.508 1.74.948.12 1.512.168 1.512.828 0 .492-.528.804-1.332.804-.936 0-1.488-.456-1.536-1.092h-1.272zM100 17.848c0-.996.6-1.668 1.524-1.668.804 0 1.344.48 1.344 1.164 0 .576-.312.96-.852 1.32-.72.468-1.284.864-1.284 1.836v.384h1.224v-.24c0-.6.408-.912 1.056-1.356.624-.444 1.2-.972 1.2-2.076 0-1.26-1.032-2.184-2.7-2.184-1.788 0-2.832 1.26-2.832 2.82H100zm.552 4.92c0 .48.36.804.828.804.468 0 .816-.324.816-.804 0-.48-.348-.804-.816-.804-.468 0-.828.324-.828.804z" fill="#000"/></svg>