<svg width="95" height="29" viewBox="0 0 95 29" fill="none" xmlns="http://www.w3.org/2000/svg"><rect y=".312" width="95" height="28" rx="14" fill="#000"/><path d="M13.005 15.922c.063 1.742 1.324 2.965 3.482 2.965 1.854 0 3.141-1.072 3.141-2.599 0-1.715-1.476-2.195-2.914-2.435-1.325-.227-2.397-.441-2.397-1.5 0-.947.77-1.452 1.918-1.452 1.198 0 2.018.669 2.144 1.69h1.136c-.101-1.589-1.312-2.687-3.28-2.687-1.792 0-3.016 1.01-3.016 2.511 0 1.716 1.464 2.183 2.89 2.423 1.337.227 2.422.454 2.422 1.551 0 .96-.846 1.502-2.032 1.502-1.35 0-2.27-.782-2.359-1.968h-1.135zm8.344 1.212c0 1.135.442 1.678 1.678 1.678h1.123v-.947h-1.022c-.555 0-.744-.201-.744-.744v-3.797h1.665v-.947h-1.665v-1.804h-1.035v1.804h-1.16v.946h1.16v3.81zm9.29.731c-.291 0-.417-.088-.417-.428v-2.814c0-1.501-.946-2.321-2.587-2.321-1.551 0-2.573.744-2.725 2.006h1.035c.126-.656.732-1.085 1.64-1.085 1.01 0 1.602.504 1.602 1.337V15h-1.892c-1.69 0-2.587.72-2.587 2.007 0 1.173.96 1.88 2.372 1.88 1.11 0 1.754-.493 2.158-1.073.012.63.303.997 1.16.997h.568v-.947h-.328zm-1.452-1.677c0 1.072-.744 1.816-2.03 1.816-.859 0-1.401-.429-1.401-1.06 0-.731.517-1.072 1.438-1.072h1.993v.316zm5.552-3.81c-1.148 0-1.64.479-1.943.97l-.139-.97h-.895v6.434h1.034v-3.28c0-1.023.366-2.145 1.716-2.145h.517v-1.01h-.29zm1.876 4.756c0 1.135.441 1.678 1.678 1.678h1.123v-.947h-1.022c-.555 0-.745-.201-.745-.744v-3.797h1.666v-.947h-1.666v-1.804h-1.034v1.804h-1.16v.946h1.16v3.81zm7.478 0c0 1.135.442 1.678 1.678 1.678h1.123v-.947h-1.022c-.555 0-.744-.201-.744-.744v-3.797h1.665v-.947h-1.665v-1.804h-1.035v1.804h-1.16v.946h1.16v3.81zm6.675-4.757c-1.148 0-1.64.48-1.943.972l-.138-.972h-.896v6.435h1.034v-3.28c0-1.023.366-2.145 1.716-2.145h.518v-1.01h-.29zm6.655 5.488c-.29 0-.416-.088-.416-.428v-2.814c0-1.501-.946-2.321-2.586-2.321-1.552 0-2.574.744-2.725 2.006h1.034c.126-.656.732-1.085 1.64-1.085 1.01 0 1.603.504 1.603 1.337V15H54.08c-1.69 0-2.586.72-2.586 2.007 0 1.173.959 1.88 2.372 1.88 1.11 0 1.753-.493 2.157-1.073.013.63.303.997 1.16.997h.569v-.947h-.329zm-1.45-1.677c0 1.072-.745 1.816-2.032 1.816-.858 0-1.4-.429-1.4-1.06 0-.731.517-1.072 1.438-1.072h1.994v.316zm7.572-2.827c-.391-.618-1.123-1.06-2.208-1.06-1.78 0-3.091 1.325-3.091 3.293 0 2.095 1.312 3.293 3.09 3.293 1.086 0 1.78-.517 2.209-1.11l.139 1.035h.895V9.98h-1.034v3.381zm-2.107 4.605c-1.275 0-2.132-.971-2.132-2.372 0-1.4.858-2.371 2.132-2.371 1.261 0 2.12.984 2.12 2.397 0 1.375-.859 2.346-2.12 2.346zm5.08-6.674a.65.65 0 00.67-.668.65.65 0 00-.67-.67.65.65 0 00-.668.67c0 .39.29.668.668.668zm-.53 7.52h1.035v-6.435H65.99v6.435zm5.606-6.51c-1.084 0-1.74.454-2.12.946l-.138-.87h-.896v6.434h1.035v-3.218c0-1.45.732-2.346 1.943-2.346 1.123 0 1.74.706 1.74 2.044v3.52h1.035v-3.583c0-2.133-1.148-2.927-2.599-2.927zm8.99 1.186c-.404-.72-1.123-1.186-2.208-1.186-1.779 0-3.09 1.324-3.09 3.293 0 2.094 1.311 3.292 3.09 3.292 1.085 0 1.78-.454 2.208-1.186v.757c0 1.4-.731 2.032-2.082 2.032-1.072 0-1.791-.454-1.968-1.262h-1.06c.165 1.413 1.313 2.183 2.953 2.183 2.208 0 3.192-1.06 3.192-2.915v-6.119h-.896l-.139 1.11zm-2.107 4.478c-1.274 0-2.132-.971-2.132-2.372 0-1.4.858-2.371 2.132-2.371 1.262 0 2.12.984 2.12 2.397 0 1.375-.858 2.346-2.12 2.346z" fill="#fff"/></svg>