<svg width="59" height="16" viewBox="0 0 59 16" fill="none" xmlns="http://www.w3.org/2000/svg"><rect width="59" height="16" rx="8" fill="#000"/><path d="M9.174 5.6h1.978V11h.758V5.6h1.977v-.698H9.174V5.6zm6.989.957c-.793 0-1.133.331-1.342.671l-.095-.67h-.619V11h.714V8.735c0-.705.253-1.48 1.185-1.48h.357v-.698h-.2zm4.595 3.79c-.2 0-.287-.061-.287-.296V8.107c0-1.037-.654-1.603-1.786-1.603-1.072 0-1.777.514-1.882 1.385h.714c.088-.453.506-.749 1.133-.749.697 0 1.106.348 1.106.923v.305H18.45c-1.168 0-1.786.497-1.786 1.385 0 .81.662 1.298 1.637 1.298.767 0 1.211-.34 1.49-.74.009.435.21.688.802.688h.392v-.653h-.227zm-1.002-1.159c0 .74-.514 1.255-1.402 1.255-.593 0-.967-.297-.967-.732 0-.505.357-.74.993-.74h1.376v.217zm5.228-1.951c-.27-.427-.775-.732-1.524-.732-1.228 0-2.134.915-2.134 2.274 0 1.446.906 2.273 2.134 2.273.75 0 1.228-.357 1.524-.766l.096.714h.619V4.902h-.715v2.335zm-1.454 3.18c-.88 0-1.473-.671-1.473-1.638 0-.967.593-1.638 1.473-1.638.87 0 1.463.68 1.463 1.655 0 .95-.592 1.62-1.463 1.62zm5.189.635c1.028 0 1.76-.653 1.934-1.542h-.723c-.148.575-.636.906-1.263.906-.845 0-1.377-.592-1.403-1.437v-.061h3.45c.009-.104.017-.209.017-.305-.035-1.315-.854-2.108-2.108-2.108s-2.108.923-2.108 2.274c0 1.359.871 2.273 2.204 2.273zm-1.411-2.726c.07-.723.67-1.194 1.324-1.194.74 0 1.263.427 1.333 1.194h-2.657zm8.696-1.82c-.75 0-1.202.313-1.464.652l-.095-.6h-.619V11h.714V8.779c0-1.002.506-1.62 1.342-1.62.775 0 1.202.487 1.202 1.41V11h.714V8.526c0-1.472-.792-2.02-1.794-2.02zm4.701 4.546c1.298 0 2.204-.923 2.204-2.273s-.906-2.274-2.204-2.274-2.204.923-2.204 2.274c0 1.35.906 2.273 2.204 2.273zm0-.636c-.88 0-1.472-.688-1.472-1.637 0-.95.592-1.638 1.472-1.638s1.472.688 1.472 1.638-.592 1.637-1.472 1.637zm3.898.584h.784l1.115-3.301L47.573 11h.784l1.481-4.443h-.723l-1.158 3.615-1.107-3.615h-.662l-1.167 3.615-1.106-3.615h-.75L44.603 11z" fill="#fff"/></svg>