<svg width="129" height="7" viewBox="0 0 129 7" fill="none" xmlns="http://www.w3.org/2000/svg"><path d="M2.649 2.876c.439-.097.775-.504.775-1.02 0-.712-.595-1.202-1.518-1.202-.924 0-1.518.49-1.518 1.201 0 .543.342.924.775 1.02C.653 2.993.258 3.387.258 4c0 .73.627 1.253 1.648 1.253 1.02 0 1.647-.523 1.647-1.253 0-.62-.4-1.008-.904-1.124zM.943 1.856c0-.44.381-.737.963-.737.581 0 .962.297.962.736 0 .446-.38.743-.962.743s-.963-.297-.963-.743zm.963 2.932c-.64 0-1.092-.342-1.092-.827 0-.478.446-.82 1.092-.82.646 0 1.091.342 1.091.82 0 .485-.445.827-1.091.827zm2.182-1.731c0 1.35.698 2.196 1.719 2.196 1.014 0 1.711-.846 1.711-2.196V2.85c0-1.286-.697-2.196-1.711-2.196-1.021 0-1.719.91-1.719 2.196v.207zm2.881-.02c0 1.073-.465 1.719-1.162 1.719-.705 0-1.17-.646-1.17-1.719V2.87c0-1.072.465-1.718 1.17-1.718.697 0 1.162.646 1.162 1.718v.168zm2.275.104H8.172v.445h1.072v1.137h.485V3.586h1.079v-.445H9.729V2.01h-.485v1.13zm4.071 2.073h.562V3.238h1.86V2.72h-1.86V1.209h2.248V.692h-2.81v4.522zm3.07 0h.653l1.215-1.892 1.227 1.892h.665l-1.524-2.358L20.049.692h-.646l-1.131 1.751-1.13-1.75h-.66l1.428 2.202-1.524 2.32zm7.572-3.333c-.556 0-.91.265-1.13.568l-.072-.53h-.458v4.587h.53V4.71c.2.317.574.543 1.13.543.91 0 1.583-.678 1.583-1.686 0-1.072-.672-1.686-1.583-1.686zm-.052 2.9c-.646 0-1.085-.503-1.085-1.227 0-.704.44-1.201 1.085-1.201.653 0 1.092.497 1.092 1.214s-.44 1.214-1.092 1.214zm5.153-.051c-.148 0-.213-.045-.213-.22V3.07c0-.77-.484-1.19-1.324-1.19-.795 0-1.318.382-1.395 1.028h.53c.064-.336.374-.555.84-.555.516 0 .82.258.82.684v.226h-.97c-.865 0-1.324.369-1.324 1.028 0 .6.491.962 1.215.962.568 0 .898-.252 1.104-.55.007.324.155.511.595.511h.29V4.73h-.168zm-.742-.86c0 .55-.382.93-1.04.93-.44 0-.718-.219-.718-.542 0-.374.265-.549.737-.549h1.02v.162zm1.589-2.506a.333.333 0 00.342-.342c0-.2-.148-.343-.342-.343a.333.333 0 00-.342.343c0 .2.148.342.342.342zm-.271 3.85h.53V1.92h-.53v3.294zm2.78-3.294c-.588 0-.84.245-.995.497l-.071-.497h-.459v3.294h.53v-1.68c0-.523.187-1.098.878-1.098h.265V1.92h-.148zm.402 2.209c.013.724.601 1.124 1.454 1.124.73 0 1.318-.381 1.318-.995 0-.73-.601-.872-1.35-.962-.478-.058-.827-.104-.827-.465 0-.304.31-.498.768-.498.453 0 .763.252.801.588h.543c-.052-.685-.594-1.034-1.344-1.04-.742-.007-1.292.388-1.292.988 0 .685.588.834 1.325.924.49.058.852.09.852.504 0 .304-.33.504-.794.504-.55 0-.892-.284-.911-.672h-.543zm3.548.407c-.271 0-.426.161-.426.375 0 .232.148.349.342.349a.326.326 0 00.22-.078c.006.026.006.052.006.084 0 .22-.129.51-.542.517v.303c.568-.013.91-.342.91-.891 0-.355-.193-.659-.51-.659zm3.054-3.172a.333.333 0 00.343-.342c0-.2-.149-.343-.343-.343a.333.333 0 00-.342.343c0 .2.148.342.342.342zm-.271 3.85h.53V1.92h-.53v3.294zm2.87-3.333c-.555 0-.891.232-1.085.484l-.07-.445h-.46v3.294h.53V3.567c0-.743.375-1.202.995-1.202.575 0 .891.362.891 1.047v1.802h.53V3.38c0-1.092-.588-1.5-1.33-1.5zm3.448 3.372c.801 0 1.337-.452 1.466-1.163h-.562c-.103.42-.426.691-.898.691-.633 0-1.059-.49-1.059-1.208 0-.717.426-1.22 1.06-1.22.484 0 .807.264.904.704h.555c-.135-.724-.646-1.176-1.453-1.176-.956 0-1.609.685-1.609 1.692 0 1.028.633 1.68 1.596 1.68zm2.047-.039h.53V.692h-.53v4.522zm3.562-1.647c0 .743-.362 1.202-.963 1.202-.549 0-.859-.362-.859-1.047V1.92h-.53v1.834c0 1.092.575 1.499 1.299 1.499.542 0 .859-.233 1.053-.478l.07.44h.46V1.92h-.53v1.647zm3.849-1.143c-.2-.317-.575-.543-1.13-.543-.912 0-1.584.678-1.584 1.686 0 1.072.672 1.686 1.583 1.686.556 0 .91-.265 1.13-.568l.072.53h.458V.691h-.53v1.732zm-1.08 2.357c-.652 0-1.091-.497-1.091-1.214s.44-1.214 1.092-1.214c.646 0 1.085.503 1.085 1.227 0 .704-.44 1.201-1.085 1.201zm2.602-3.417a.333.333 0 00.343-.342c0-.2-.149-.343-.343-.343a.333.333 0 00-.342.343c0 .2.148.342.342.342zm-.271 3.85h.53V1.92h-.53v3.294zm2.87-3.333c-.555 0-.891.232-1.085.484l-.071-.445h-.459v3.294h.53V3.567c0-.743.375-1.202.995-1.202.575 0 .891.362.891 1.047v1.802h.53V3.38c0-1.092-.588-1.5-1.33-1.5zm4.603.607c-.206-.368-.575-.607-1.13-.607-.911 0-1.583.678-1.583 1.686 0 1.072.672 1.686 1.583 1.686.555 0 .91-.233 1.13-.607v.387c0 .717-.374 1.04-1.066 1.04-.549 0-.917-.232-1.007-.646h-.543c.084.724.672 1.118 1.512 1.118 1.13 0 1.634-.543 1.634-1.492V1.92h-.459l-.07.568zM62.57 4.781c-.653 0-1.092-.497-1.092-1.214s.44-1.214 1.092-1.214c.645 0 1.085.503 1.085 1.227 0 .704-.44 1.201-1.086 1.201zm6.055.472c.776 0 1.26-.368 1.467-.698l.038.66h.485V2.765h-1.906v.517h1.357v.155c0 .8-.6 1.298-1.434 1.298-.937 0-1.557-.736-1.557-1.783 0-1.046.62-1.783 1.57-1.783.684 0 1.169.369 1.324.995h.6c-.154-.93-.91-1.511-1.911-1.511-1.312 0-2.158.93-2.158 2.3 0 1.369.872 2.299 2.125 2.299zm2.869-.039h1.647c1.073 0 1.641-.49 1.641-1.292 0-.652-.42-.962-.898-1.053.427-.148.71-.465.71-.982 0-.73-.535-1.195-1.498-1.195h-1.602v4.522zm1.628-4.011c.588 0 .91.271.91.723 0 .459-.329.73-.91.73h-1.066V1.203h1.066zm.02 1.957c.671 0 1.065.278 1.065.788 0 .465-.368.756-1.066.756h-1.085V3.16h1.085zm2.345 2.054h.562V3.477h1.176c.904 0 1.499-.55 1.499-1.396 0-.846-.594-1.389-1.499-1.389h-1.738v4.522zM77.18 1.21c.594 0 .969.336.969.872s-.381.879-.976.879h-1.124V1.21h1.13zm1.71 4.845L80.718.498h-.524l-1.828 5.556h.523zm2.344-2.771c0 1.292.588 1.97 1.718 1.97s1.732-.678 1.732-1.97V.693h-.563v2.622c0 .937-.374 1.421-1.169 1.421-.781 0-1.156-.484-1.156-1.421V.692h-.562v2.59zm4.122.452c.032.891.678 1.518 1.783 1.518.95 0 1.608-.55 1.608-1.33 0-.88-.755-1.125-1.492-1.247-.678-.117-1.227-.227-1.227-.77 0-.484.394-.742.982-.742.614 0 1.033.342 1.098.866h.581c-.051-.814-.672-1.376-1.68-1.376-.916 0-1.543.516-1.543 1.285 0 .879.75 1.118 1.48 1.24.684.117 1.24.233 1.24.795 0 .49-.433.769-1.04.769-.692 0-1.163-.4-1.209-1.008h-.581zm5.552 1.48c1.415 0 2.274-.912 2.274-2.262 0-1.356-.86-2.26-2.274-2.26H89.46v4.521h1.447zm-.885-4.006h.885c1.098 0 1.699.685 1.699 1.744 0 1.053-.6 1.744-1.7 1.744h-.884V1.21zm9.155 3.534c-.168 0-.284-.033-.413-.181l-.252-.284 1.001-1.506h-.562l-.762 1.144-.904-1.008c.827-.323 1.098-.769 1.098-1.266 0-.562-.452-.988-1.066-.988-.724 0-1.273.465-1.273 1.085 0 .387.117.646.446 1.046-.75.317-1.014.82-1.014 1.292 0 .77.626 1.176 1.421 1.176.484 0 .904-.194 1.273-.575l.258.29c.168.195.407.246.685.246h.49v-.471h-.426zm-1.899-3.644c.343 0 .569.233.569.556 0 .381-.265.698-.847.93-.297-.349-.407-.543-.407-.866 0-.361.272-.62.685-.62zm-.368 3.682c-.523 0-.891-.277-.891-.755 0-.407.193-.653.742-.918.02.013.033.033.046.046l1.053 1.175c-.278.297-.588.452-.95.452zm5.154.433h2.966v-.517h-2.404V3.173h1.932v-.517h-1.932V1.21h2.32V.692h-2.882v4.522zm3.57-1.931c0 1.292.588 1.97 1.719 1.97 1.13 0 1.731-.678 1.731-1.97V.693h-.562v2.622c0 .937-.375 1.421-1.169 1.421-.782 0-1.157-.484-1.157-1.421V.692h-.562v2.59zm4.304 1.931h.562V3.477h1.137l.956 1.737h.633l-1.015-1.847c.582-.162.963-.653.963-1.286 0-.846-.601-1.389-1.505-1.389h-1.731v4.522zm1.692-4.005c.588 0 .969.342.969.872s-.381.879-.975.879H110.5V1.21h1.13zm2.272 4.845L115.73.498h-.523l-1.828 5.556h.523zm4.163-.801c.775 0 1.259-.368 1.466-.698l.039.66h.484V2.765h-1.905v.517h1.356v.155c0 .8-.6 1.298-1.434 1.298-.937 0-1.557-.736-1.557-1.783 0-1.046.62-1.783 1.57-1.783.685 0 1.169.369 1.324.995h.601c-.155-.93-.911-1.511-1.912-1.511-1.311 0-2.158.93-2.158 2.3 0 1.369.872 2.299 2.126 2.299zm2.868-.039h1.648c1.072 0 1.641-.49 1.641-1.292 0-.652-.42-.962-.898-1.053.426-.148.71-.465.71-.982 0-.73-.536-1.195-1.498-1.195h-1.603v4.522zm1.628-4.011c.588 0 .911.271.911.723 0 .459-.329.73-.911.73h-1.066V1.203h1.066zm.02 1.957c.672 0 1.066.278 1.066.788 0 .465-.369.756-1.066.756h-1.086V3.16h1.086zm2.346 2.054h.562V3.477h1.176c.904 0 1.498-.55 1.498-1.396 0-.846-.594-1.389-1.498-1.389h-1.738v4.522zm1.692-4.005c.595 0 .969.336.969.872s-.381.879-.975.879h-1.124V1.21h1.13z" fill="#000"/></svg>