<svg width="228" height="16" viewBox="0 0 228 16" fill="none" xmlns="http://www.w3.org/2000/svg"><path d="M.32 2.432h3.456V12h1.84V2.432h3.456V.8H.32v1.632zm13.297 1.376c-1.344 0-2 .544-2.416 1.232l-.192-1.232H9.473V12h1.728V7.888c0-1.264.496-2.464 2.032-2.464h.768V3.808h-.384zm8.688 6.688c-.352 0-.528-.112-.528-.528v-3.28c0-1.936-1.248-2.976-3.424-2.976-2.064 0-3.44.992-3.616 2.592h1.696c.128-.72.816-1.2 1.84-1.2 1.136 0 1.792.56 1.792 1.472v.496H18c-2.288 0-3.504.944-3.504 2.624 0 1.52 1.248 2.4 3.04 2.4 1.328 0 2.16-.576 2.704-1.408 0 .816.384 1.312 1.504 1.312h.912v-1.504h-.352zm-2.24-1.856c-.016 1.264-.848 2.112-2.288 2.112-.944 0-1.52-.48-1.52-1.168 0-.832.592-1.232 1.664-1.232h2.144v.288zm9.694-3.696c-.527-.72-1.407-1.232-2.655-1.232-2.224 0-3.872 1.664-3.872 4.192 0 2.624 1.648 4.192 3.872 4.192 1.296 0 2.143-.608 2.672-1.328L29.983 12h1.505V.8h-1.729v4.144zm-2.367 5.696c-1.44 0-2.384-1.12-2.384-2.736 0-1.6.944-2.72 2.384-2.72s2.384 1.12 2.384 2.752c0 1.584-.945 2.704-2.384 2.704zm9.672 1.456c2.032 0 3.408-1.232 3.696-2.848h-1.728c-.24.912-1.008 1.44-2.064 1.44-1.36 0-2.24-.912-2.288-2.304v-.112h6.176c.032-.224.048-.448.048-.656-.048-2.4-1.632-3.904-4-3.904-2.416 0-4.032 1.68-4.032 4.208 0 2.512 1.616 4.176 4.192 4.176zm-2.32-5.088c.128-1.168 1.072-1.904 2.176-1.904 1.2 0 2.048.688 2.192 1.904h-4.368zm7.857 2.928c-.736 0-1.216.48-1.216 1.088 0 .688.416 1.024.944 1.024a.86.86 0 00.528-.16.912.912 0 01.016.208c0 .56-.4 1.184-1.408 1.2v.928c1.584-.016 2.576-.896 2.576-2.448 0-1.024-.56-1.84-1.44-1.84zm14.36.56c-.352 0-.528-.112-.528-.528v-3.28c0-1.936-1.248-2.976-3.424-2.976-2.064 0-3.44.992-3.616 2.592h1.696c.128-.72.816-1.2 1.84-1.2 1.136 0 1.792.56 1.792 1.472v.496h-2.064c-2.288 0-3.504.944-3.504 2.624 0 1.52 1.248 2.4 3.04 2.4 1.328 0 2.16-.576 2.704-1.408 0 .816.384 1.312 1.504 1.312h.912v-1.504h-.352zm-2.24-1.856c-.016 1.264-.848 2.112-2.288 2.112-.944 0-1.52-.48-1.52-1.168 0-.832.592-1.232 1.664-1.232h2.144v.288zm7.853-4.928c-1.328 0-2.112.528-2.624 1.168l-.192-1.072h-1.504V12h1.728V7.872c0-1.664.816-2.672 2.192-2.672 1.296 0 1.952.832 1.952 2.384V12h1.744V7.44c0-2.736-1.488-3.728-3.296-3.728zm12.356 6.784c-.352 0-.528-.112-.528-.528v-3.28c0-1.936-1.248-2.976-3.424-2.976-2.064 0-3.44.992-3.616 2.592h1.696c.128-.72.816-1.2 1.84-1.2 1.136 0 1.792.56 1.792 1.472v.496h-2.064c-2.288 0-3.504.944-3.504 2.624 0 1.52 1.248 2.4 3.04 2.4 1.328 0 2.16-.576 2.704-1.408 0 .816.384 1.312 1.504 1.312h.912v-1.504h-.352zM72.69 8.64c-.016 1.264-.848 2.112-2.288 2.112-.944 0-1.52-.48-1.52-1.168 0-.832.592-1.232 1.664-1.232h2.144v.288zM76.223 12h1.728V.8h-1.728V12zm5.79.048l-.32.8c-.256.672-.416.832-1.088.832h-1.216v1.52h1.856c1.2 0 1.552-.592 2.064-1.92l3.712-9.472h-1.84l-2.224 6.224-2.288-6.224h-1.84l3.184 8.24zm5.358-2.752c.048 1.776 1.552 2.8 3.744 2.8 1.984 0 3.472-.992 3.472-2.56 0-1.824-1.52-2.208-3.392-2.432-1.184-.128-1.968-.224-1.968-.992 0-.656.672-1.072 1.696-1.072s1.728.528 1.824 1.28h1.696c-.112-1.68-1.536-2.608-3.552-2.608-1.968-.016-3.36.992-3.36 2.544 0 1.696 1.472 2.096 3.344 2.32 1.264.16 2.016.224 2.016 1.104 0 .656-.704 1.072-1.776 1.072-1.248 0-1.984-.608-2.048-1.456h-1.696zm12.443 2.8c2.032 0 3.408-1.232 3.696-2.848h-1.728c-.24.912-1.008 1.44-2.064 1.44-1.36 0-2.24-.912-2.288-2.304v-.112h6.176c.032-.224.048-.448.048-.656-.048-2.4-1.632-3.904-4-3.904-2.416 0-4.032 1.68-4.032 4.208 0 2.512 1.616 4.176 4.192 4.176zm-2.32-5.088c.128-1.168 1.072-1.904 2.176-1.904 1.2 0 2.048.688 2.192 1.904h-4.368zm7.857 2.928c-.736 0-1.216.48-1.216 1.088 0 .688.416 1.024.944 1.024a.86.86 0 00.528-.16.912.912 0 01.016.208c0 .56-.4 1.184-1.408 1.2v.928c1.584-.016 2.576-.896 2.576-2.448 0-1.024-.56-1.84-1.44-1.84zm7.752-7.28c.592 0 1.056-.432 1.056-1.04 0-.608-.464-1.04-1.056-1.04-.592 0-1.056.432-1.056 1.04 0 .608.464 1.04 1.056 1.04zm-.88 9.344h1.728V3.808h-1.728V12zm12.846-8.288c-1.344 0-2.272.592-2.8 1.488-.496-1.056-1.456-1.488-2.528-1.488-1.232.016-1.936.56-2.4 1.168l-.192-1.072h-1.504V12h1.728V7.616c0-1.456.736-2.416 1.92-2.416 1.136 0 1.728.752 1.728 2.192V12h1.744V7.568c0-1.472.752-2.368 1.936-2.368 1.12 0 1.712.752 1.712 2.192V12h1.728V7.28c0-2.592-1.376-3.568-3.072-3.568zm9.022 0c-1.28 0-2.128.592-2.672 1.312l-.208-1.216h-1.504V15.2h1.728v-4.352c.512.736 1.392 1.248 2.656 1.248 2.24 0 3.872-1.664 3.872-4.192 0-2.624-1.632-4.192-3.872-4.192zm-.288 6.928c-1.44 0-2.384-1.136-2.384-2.768 0-1.584.944-2.688 2.384-2.688s2.4 1.104 2.4 2.72c0 1.6-.96 2.736-2.4 2.736zm9.689-6.832c-1.344 0-2 .544-2.416 1.232l-.192-1.232h-1.536V12h1.728V7.888c0-1.264.496-2.464 2.032-2.464h.768V3.808h-.384zm4.931 8.288c2.496 0 4.176-1.68 4.176-4.192 0-2.496-1.68-4.192-4.176-4.192-2.496 0-4.176 1.696-4.176 4.192 0 2.512 1.68 4.192 4.176 4.192zm0-1.472c-1.456 0-2.4-1.136-2.4-2.72 0-1.584.944-2.72 2.4-2.72s2.416 1.136 2.416 2.72c0 1.584-.96 2.72-2.416 2.72zM155.822 12h2.112l3.024-8.192h-1.824l-2.224 6.336-2.256-6.336h-1.856L155.822 12zm9.523.096c2.032 0 3.408-1.232 3.696-2.848h-1.728c-.24.912-1.008 1.44-2.064 1.44-1.36 0-2.24-.912-2.288-2.304v-.112h6.176c.032-.224.048-.448.048-.656-.048-2.4-1.632-3.904-4-3.904-2.416 0-4.032 1.68-4.032 4.208 0 2.512 1.616 4.176 4.192 4.176zm-2.32-5.088c.128-1.168 1.072-1.904 2.176-1.904 1.2 0 2.048.688 2.192 1.904h-4.368zm7.857 2.928c-.736 0-1.216.48-1.216 1.088 0 .688.416 1.024.944 1.024a.86.86 0 00.528-.16.912.912 0 01.016.208c0 .56-.4 1.184-1.408 1.2v.928c1.584-.016 2.576-.896 2.576-2.448 0-1.024-.56-1.84-1.44-1.84zm11.016-6.128c-1.344 0-2 .544-2.416 1.232l-.192-1.232h-1.536V12h1.728V7.888c0-1.264.496-2.464 2.032-2.464h.768V3.808h-.384zm4.947 8.288c2.032 0 3.408-1.232 3.696-2.848h-1.728c-.24.912-1.008 1.44-2.064 1.44-1.36 0-2.24-.912-2.288-2.304v-.112h6.176c.032-.224.048-.448.048-.656-.048-2.4-1.632-3.904-4-3.904-2.416 0-4.032 1.68-4.032 4.208 0 2.512 1.616 4.176 4.192 4.176zm-2.32-5.088c.128-1.168 1.072-1.904 2.176-1.904 1.2 0 2.048.688 2.192 1.904h-4.368zm11.941-3.296c-1.28 0-2.128.592-2.672 1.312l-.208-1.216h-1.504V15.2h1.728v-4.352c.512.736 1.392 1.248 2.656 1.248 2.24 0 3.872-1.664 3.872-4.192 0-2.624-1.632-4.192-3.872-4.192zm-.288 6.928c-1.44 0-2.384-1.136-2.384-2.768 0-1.584.944-2.688 2.384-2.688s2.4 1.104 2.4 2.72c0 1.6-.96 2.736-2.4 2.736zm9.433 1.456c2.032 0 3.408-1.232 3.696-2.848h-1.728c-.24.912-1.008 1.44-2.064 1.44-1.36 0-2.24-.912-2.288-2.304v-.112h6.176c.032-.224.048-.448.048-.656-.048-2.4-1.632-3.904-4-3.904-2.416 0-4.032 1.68-4.032 4.208 0 2.512 1.616 4.176 4.192 4.176zm-2.32-5.088c.128-1.168 1.072-1.904 2.176-1.904 1.2 0 2.048.688 2.192 1.904h-4.368zm15.045 3.488c-.352 0-.528-.112-.528-.528v-3.28c0-1.936-1.248-2.976-3.424-2.976-2.064 0-3.44.992-3.616 2.592h1.696c.128-.72.816-1.2 1.84-1.2 1.136 0 1.792.56 1.792 1.472v.496h-2.064c-2.288 0-3.504.944-3.504 2.624 0 1.52 1.248 2.4 3.04 2.4 1.328 0 2.16-.576 2.704-1.408 0 .816.384 1.312 1.504 1.312h.912v-1.504h-.352zm-2.24-1.856c-.016 1.264-.848 2.112-2.288 2.112-.944 0-1.52-.48-1.52-1.168 0-.832.592-1.232 1.664-1.232h2.144v.288zm4.125 1.136c0 1.488.672 2.224 2.24 2.224h1.6v-1.52h-1.216c-.656 0-.88-.24-.88-.88V5.328h2v-1.52h-2V1.52h-1.744v2.288h-1.424v1.52h1.424v4.448zm4.873 1.232c0 .64.464 1.088 1.104 1.088.64 0 1.12-.448 1.12-1.088 0-.64-.48-1.088-1.12-1.088-.64 0-1.104.448-1.104 1.088z" fill="#000"/></svg>