<svg width="190" height="20" viewBox="0 0 190 20" fill="none" xmlns="http://www.w3.org/2000/svg"><path d="M.42 2.442h4.536V15h2.415V2.442h4.536V.3H.42v2.142zm14.05.294c.777 0 1.386-.567 1.386-1.365S15.247.006 14.47.006c-.777 0-1.386.567-1.386 1.365s.61 1.365 1.386 1.365zM13.315 15h2.268V4.248h-2.268V15zm16.86-10.878c-1.764 0-2.982.777-3.675 1.953-.65-1.386-1.91-1.953-3.318-1.953-1.617.021-2.54.735-3.15 1.533l-.252-1.407h-1.974V15h2.268V9.246c0-1.911.966-3.171 2.52-3.171 1.491 0 2.268.987 2.268 2.877V15h2.29V9.183c0-1.932.986-3.108 2.54-3.108 1.47 0 2.247.987 2.247 2.877V15h2.268V8.805c0-3.402-1.806-4.683-4.032-4.683zm7.243-1.386c.777 0 1.386-.567 1.386-1.365S38.195.006 37.418.006c-.777 0-1.386.567-1.386 1.365s.61 1.365 1.386 1.365zM36.263 15h2.268V4.248h-2.268V15zM46.425 4.122c-1.743 0-2.772.693-3.444 1.533l-.252-1.407h-1.974V15h2.268V9.582c0-2.184 1.07-3.507 2.877-3.507 1.7 0 2.562 1.092 2.562 3.129V15h2.289V9.015c0-3.591-1.953-4.893-4.326-4.893zm14.6 1.806c-.694-1.071-1.849-1.806-3.529-1.806-2.919 0-5.082 2.163-5.082 5.46 0 3.423 2.163 5.46 5.082 5.46 1.68 0 2.793-.693 3.507-1.764v1.197c0 2.058-1.113 3.003-3.087 3.003-1.596 0-2.646-.693-2.919-1.89h-2.31c.21 2.415 2.205 3.738 5.061 3.738 3.864 0 5.502-1.848 5.502-4.767V4.248h-1.974l-.252 1.68zm-3.15 7.203c-1.89 0-3.13-1.449-3.13-3.549 0-2.079 1.24-3.549 3.13-3.549s3.128 1.47 3.128 3.591c0 2.058-1.239 3.507-3.129 3.507zm14.12-10.395c.777 0 1.386-.567 1.386-1.365S72.77.006 71.995.006c-.777 0-1.386.567-1.386 1.365s.609 1.365 1.386 1.365zM70.84 15h2.268V4.248H70.84V15zm4.029-3.549c.063 2.331 2.037 3.675 4.914 3.675 2.604 0 4.557-1.302 4.557-3.36 0-2.394-1.995-2.898-4.452-3.192-1.554-.168-2.583-.294-2.583-1.302 0-.861.882-1.407 2.226-1.407 1.344 0 2.268.693 2.394 1.68h2.226c-.147-2.205-2.016-3.423-4.662-3.423-2.583-.021-4.41 1.302-4.41 3.339 0 2.226 1.932 2.751 4.389 3.045 1.659.21 2.646.294 2.646 1.449 0 .861-.924 1.407-2.331 1.407-1.638 0-2.604-.798-2.688-1.911h-2.226zM91.7 15h9.849v-2.142h-7.434V8.595h5.922V6.516h-5.922V2.442h7.182V.3h-9.597V15zm13.947 0h2.772l3.969-10.752h-2.394l-2.919 8.316-2.961-8.316h-2.436L105.648 15zm12.5.126c2.667 0 4.473-1.617 4.851-3.738h-2.268c-.315 1.197-1.323 1.89-2.709 1.89-1.785 0-2.94-1.197-3.003-3.024v-.147h8.106a6.16 6.16 0 00.063-.861c-.063-3.15-2.142-5.124-5.25-5.124-3.171 0-5.292 2.205-5.292 5.523 0 3.297 2.121 5.481 5.502 5.481zm-3.045-6.678c.168-1.533 1.407-2.499 2.856-2.499 1.575 0 2.688.903 2.877 2.499h-5.733zm15.357-4.2c-1.764 0-2.625.714-3.171 1.617l-.252-1.617h-2.016V15h2.268V9.603c0-1.659.651-3.234 2.667-3.234h1.008V4.248h-.504zm5.134 10.815l-.42 1.05c-.336.882-.546 1.092-1.428 1.092h-1.596V19.2h2.436c1.575 0 2.037-.777 2.709-2.52l4.872-12.432h-2.415l-2.919 8.169-3.003-8.169h-2.415l4.179 10.815zm8.723-2.982c0 1.953.882 2.919 2.94 2.919h2.1v-1.995h-1.596c-.861 0-1.155-.315-1.155-1.155V6.243h2.625V4.248h-2.625V1.245h-2.289v3.003h-1.869v1.995h1.869v5.838zm12.132-7.959c-1.68 0-2.709.756-3.381 1.68V.3H150.8V15h2.268V9.561c0-2.163 1.092-3.486 2.877-3.486 1.68 0 2.583 1.092 2.583 3.129V15h2.268V9.015c0-3.591-1.953-4.893-4.347-4.893zm7.564-1.386c.777 0 1.386-.567 1.386-1.365S164.79.006 164.013.006c-.777 0-1.386.567-1.386 1.365s.609 1.365 1.386 1.365zM162.858 15h2.268V4.248h-2.268V15zm10.161-10.878c-1.743 0-2.772.693-3.444 1.533l-.252-1.407h-1.974V15h2.268V9.582c0-2.184 1.071-3.507 2.877-3.507 1.701 0 2.562 1.092 2.562 3.129V15h2.289V9.015c0-3.591-1.953-4.893-4.326-4.893zm14.6 1.806c-.693-1.071-1.848-1.806-3.528-1.806-2.919 0-5.082 2.163-5.082 5.46 0 3.423 2.163 5.46 5.082 5.46 1.68 0 2.793-.693 3.507-1.764v1.197c0 2.058-1.113 3.003-3.087 3.003-1.596 0-2.646-.693-2.919-1.89h-2.31c.21 2.415 2.205 3.738 5.061 3.738 3.864 0 5.502-1.848 5.502-4.767V4.248h-1.974l-.252 1.68zm-3.15 7.203c-1.89 0-3.129-1.449-3.129-3.549 0-2.079 1.239-3.549 3.129-3.549s3.129 1.47 3.129 3.591c0 2.058-1.239 3.507-3.129 3.507z" fill="#000"/></svg>