<svg width="78" height="20" viewBox="0 0 78 20" fill="none" xmlns="http://www.w3.org/2000/svg"><rect width="78" height="20" rx="10" fill="#000"/><path d="M14.544 13h.696v-2.448h2.304v-.64H15.24V8.04h2.784V7.4h-3.48V13zm4.467-4.768c.24 0 .424-.176.424-.424a.412.412 0 00-.424-.424.412.412 0 00-.424.424c0 .248.184.424.424.424zM18.675 13h.656V8.92h-.656V13zm3.554-4.128c-.688 0-1.104.288-1.344.6l-.088-.552h-.568V13h.656v-2.04c0-.92.464-1.488 1.232-1.488.712 0 1.104.448 1.104 1.296V13h.656v-2.272c0-1.352-.728-1.856-1.648-1.856zm5.654.672c-.248-.392-.712-.672-1.4-.672-1.128 0-1.96.84-1.96 2.088 0 1.328.832 2.088 1.96 2.088a1.65 1.65 0 001.4-.704l.088.656h.568V7.4h-.656v2.144zm-1.336 2.92c-.808 0-1.352-.616-1.352-1.504s.544-1.504 1.352-1.504c.8 0 1.344.624 1.344 1.52 0 .872-.544 1.488-1.344 1.488zm6.86.584c1.191 0 2.023-.848 2.023-2.088 0-1.24-.832-2.088-2.024-2.088-1.192 0-2.024.848-2.024 2.088 0 1.24.832 2.088 2.024 2.088zm0-.584c-.809 0-1.353-.632-1.353-1.504s.544-1.504 1.352-1.504 1.352.632 1.352 1.504-.544 1.504-1.352 1.504zm5.631-1.504c0 .92-.448 1.488-1.192 1.488-.68 0-1.064-.448-1.064-1.296V8.92h-.656v2.272c0 1.352.712 1.856 1.608 1.856.672 0 1.064-.288 1.304-.592l.088.544h.568V8.92h-.656v2.04zm1.87.976c0 .72.28 1.064 1.064 1.064h.712v-.6h-.648c-.352 0-.472-.128-.472-.472V9.52h1.056v-.6h-1.056V7.776h-.656V8.92h-.736v.6h.736v2.416zm8.99-3.064c-.728 0-1.168.336-1.416.776-.232-.52-.72-.776-1.288-.776-.632 0-.976.312-1.192.608l-.088-.56h-.568V13h.656v-2.152c0-.816.408-1.376 1.08-1.376.624 0 .984.416.984 1.216V13h.656v-2.184c0-.832.416-1.344 1.096-1.344.616 0 .968.416.968 1.216V13h.656v-2.352c0-1.288-.696-1.776-1.544-1.776zm4.22 4.176c1.191 0 2.023-.848 2.023-2.088 0-1.24-.832-2.088-2.024-2.088-1.192 0-2.024.848-2.024 2.088 0 1.24.832 2.088 2.024 2.088zm0-.584c-.809 0-1.353-.632-1.353-1.504s.544-1.504 1.352-1.504 1.352.632 1.352 1.504-.544 1.504-1.352 1.504zM58.78 8.92c-.728 0-1.04.304-1.232.616l-.088-.616h-.568V13h.656v-2.08c0-.648.232-1.36 1.088-1.36h.328v-.64h-.184zm2.399 4.128c.944 0 1.616-.6 1.776-1.416h-.664c-.136.528-.584.832-1.16.832-.776 0-1.264-.544-1.288-1.32v-.056h3.168c.008-.096.016-.192.016-.28-.032-1.208-.784-1.936-1.936-1.936s-1.936.848-1.936 2.088c0 1.248.8 2.088 2.024 2.088zm-1.296-2.504A1.208 1.208 0 0161.1 9.448c.68 0 1.16.392 1.224 1.096h-2.44z" fill="#fff"/></svg>