<svg width="418" height="32" viewBox="0 0 418 32" fill="none" xmlns="http://www.w3.org/2000/svg"><path d="M.224 17.18c.136 4.76 3.706 8.024 9.622 8.024 5.236 0 8.806-2.958 8.806-7.242.034-4.692-3.808-5.95-7.752-6.664-3.74-.646-6.188-1.156-6.188-3.604 0-2.244 1.87-3.4 4.556-3.4 2.89 0 4.794 1.632 5.1 4.046h3.91c-.17-4.386-3.57-7.344-9.01-7.344C4.202.996.802 3.818.802 7.966c0 4.726 3.74 5.984 7.684 6.664 3.774.68 6.256 1.224 6.256 3.74 0 2.278-2.04 3.536-4.862 3.536-3.332 0-5.508-1.87-5.712-4.658L.224 17.18zm37.408 4.624c-.748 0-1.122-.238-1.122-1.122v-6.97c0-4.114-2.652-6.324-7.276-6.324-4.386 0-7.31 2.108-7.684 5.508h3.604c.272-1.53 1.734-2.55 3.91-2.55 2.414 0 3.808 1.19 3.808 3.128v1.054h-4.386c-4.862 0-7.446 2.006-7.446 5.576 0 3.23 2.652 5.1 6.46 5.1 2.822 0 4.59-1.224 5.746-2.992 0 1.734.816 2.788 3.196 2.788h1.938v-3.196h-.748zm-4.76-3.944c-.034 2.686-1.802 4.488-4.862 4.488-2.006 0-3.23-1.02-3.23-2.482 0-1.768 1.258-2.618 3.536-2.618h4.556v.612zM49.186 7.592c-2.856 0-4.25 1.156-5.134 2.618l-.408-2.618H40.38V25h3.672v-8.738c0-2.686 1.054-5.236 4.318-5.236h1.632V7.592h-.816zm18.462 14.212c-.748 0-1.122-.238-1.122-1.122v-6.97c0-4.114-2.652-6.324-7.276-6.324-4.386 0-7.31 2.108-7.684 5.508h3.604c.272-1.53 1.734-2.55 3.91-2.55 2.414 0 3.808 1.19 3.808 3.128v1.054h-4.386c-4.862 0-7.446 2.006-7.446 5.576 0 3.23 2.652 5.1 6.46 5.1 2.822 0 4.59-1.224 5.746-2.992 0 1.734.816 2.788 3.196 2.788h1.938v-3.196h-.748zm-4.76-3.944c-.034 2.686-1.802 4.488-4.862 4.488-2.006 0-3.23-1.02-3.23-2.482 0-1.768 1.258-2.618 3.536-2.618h4.556v.612zm15.365 7.344c4.454 0 7.412-2.482 8.092-6.426h-3.876c-.442 2.006-1.938 3.298-4.182 3.298-2.958 0-4.896-2.346-4.896-5.746 0-3.434 1.938-5.814 4.896-5.814 2.278 0 3.74 1.258 4.216 3.298h3.842c-.714-3.944-3.502-6.426-7.99-6.426-5.27 0-8.738 3.57-8.738 8.942 0 5.44 3.366 8.874 8.636 8.874zm19.165 0c4.318 0 7.242-2.618 7.854-6.052H101.6c-.51 1.938-2.142 3.06-4.386 3.06-2.89 0-4.76-1.938-4.862-4.896v-.238h13.124c.068-.476.102-.952.102-1.394-.102-5.1-3.468-8.296-8.5-8.296-5.135 0-8.569 3.57-8.569 8.942 0 5.338 3.434 8.874 8.909 8.874zm-4.93-10.812c.272-2.482 2.278-4.046 4.624-4.046 2.55 0 4.352 1.462 4.658 4.046h-9.282zm25.238-7.004c-2.822 0-4.488 1.122-5.576 2.482l-.408-2.278h-3.196V25h3.672v-8.772c0-3.536 1.734-5.678 4.658-5.678 2.754 0 4.148 1.768 4.148 5.066V25h3.706v-9.69c0-5.814-3.162-7.922-7.004-7.922zm9.596 11.866c.102 3.774 3.298 5.95 7.956 5.95 4.216 0 7.378-2.108 7.378-5.44 0-3.876-3.23-4.692-7.208-5.168-2.516-.272-4.182-.476-4.182-2.108 0-1.394 1.428-2.278 3.604-2.278s3.672 1.122 3.876 2.72h3.604c-.238-3.57-3.264-5.542-7.548-5.542-4.182-.034-7.14 2.108-7.14 5.406 0 3.604 3.128 4.454 7.106 4.93 2.686.34 4.284.476 4.284 2.346 0 1.394-1.496 2.278-3.774 2.278-2.652 0-4.216-1.292-4.352-3.094h-3.604zm37.588 5.95c5.542 0 9.588-3.264 10.336-8.296H171.2c-.748 3.026-3.026 4.862-6.324 4.862-4.488 0-7.208-3.604-7.208-8.67 0-5.1 2.788-8.67 7.31-8.67 3.23 0 5.474 1.87 6.256 4.862h4.046c-.782-5.032-4.692-8.296-10.132-8.296-7.038 0-11.492 4.862-11.492 12.104 0 7.31 4.318 12.104 11.254 12.104zm22.343-17.816c-2.72 0-4.386 1.224-5.474 2.72V1.2h-3.672V25h3.672v-8.806c0-3.502 1.768-5.644 4.658-5.644 2.72 0 4.182 1.768 4.182 5.066V25h3.672v-9.69c0-5.814-3.162-7.922-7.038-7.922zm26.289 14.416c-.748 0-1.122-.238-1.122-1.122v-6.97c0-4.114-2.652-6.324-7.276-6.324-4.386 0-7.31 2.108-7.684 5.508h3.604c.272-1.53 1.734-2.55 3.91-2.55 2.414 0 3.808 1.19 3.808 3.128v1.054h-4.386c-4.862 0-7.446 2.006-7.446 5.576 0 3.23 2.652 5.1 6.46 5.1 2.822 0 4.59-1.224 5.746-2.992 0 1.734.816 2.788 3.196 2.788h1.938v-3.196h-.748zm-4.76-3.944c-.034 2.686-1.802 4.488-4.862 4.488-2.006 0-3.23-1.02-3.23-2.482 0-1.768 1.258-2.618 3.536-2.618h4.556v.612zm27.534-10.472c-2.856 0-4.828 1.258-5.95 3.162-1.054-2.244-3.094-3.162-5.372-3.162-2.618.034-4.114 1.19-5.1 2.482l-.408-2.278h-3.196V25h3.672v-9.316c0-3.094 1.564-5.134 4.08-5.134 2.414 0 3.672 1.598 3.672 4.658V25h3.706v-9.418c0-3.128 1.598-5.032 4.114-5.032 2.38 0 3.638 1.598 3.638 4.658V25h3.672V14.97c0-5.508-2.924-7.582-6.528-7.582zm19.173 0c-2.72 0-4.522 1.258-5.678 2.788l-.442-2.584h-3.196V31.8h3.672v-9.248c1.088 1.564 2.958 2.652 5.644 2.652 4.76 0 8.228-3.536 8.228-8.908 0-5.576-3.468-8.908-8.228-8.908zm-.612 14.722c-3.06 0-5.066-2.414-5.066-5.882 0-3.366 2.006-5.712 5.066-5.712s5.1 2.346 5.1 5.78c0 3.4-2.04 5.814-5.1 5.814zm13.652-16.966c1.258 0 2.244-.918 2.244-2.21 0-1.292-.986-2.21-2.244-2.21-1.258 0-2.244.918-2.244 2.21 0 1.292.986 2.21 2.244 2.21zM266.659 25h3.672V7.592h-3.672V25zm15.5.204c5.304 0 8.874-3.57 8.874-8.908 0-5.304-3.57-8.908-8.874-8.908s-8.874 3.604-8.874 8.908c0 5.338 3.57 8.908 8.874 8.908zm0-3.128c-3.094 0-5.1-2.414-5.1-5.78s2.006-5.78 5.1-5.78 5.134 2.414 5.134 5.78-2.04 5.78-5.134 5.78zm21.007-14.688c-2.822 0-4.488 1.122-5.576 2.482l-.408-2.278h-3.196V25h3.672v-8.772c0-3.536 1.734-5.678 4.658-5.678 2.754 0 4.148 1.768 4.148 5.066V25h3.706v-9.69c0-5.814-3.162-7.922-7.004-7.922zm9.595 11.866c.102 3.774 3.298 5.95 7.956 5.95 4.216 0 7.378-2.108 7.378-5.44 0-3.876-3.23-4.692-7.208-5.168-2.516-.272-4.182-.476-4.182-2.108 0-1.394 1.428-2.278 3.604-2.278s3.672 1.122 3.876 2.72h3.604c-.238-3.57-3.264-5.542-7.548-5.542-4.182-.034-7.14 2.108-7.14 5.406 0 3.604 3.128 4.454 7.106 4.93 2.686.34 4.284.476 4.284 2.346 0 1.394-1.496 2.278-3.774 2.278-2.652 0-4.216-1.292-4.352-3.094h-3.604zM338.586 25h16.864v-3.298h-11.526l6.324-5.27c2.89-2.414 5.032-4.624 5.032-8.16 0-4.352-2.992-7.276-8.33-7.276-5.066 0-8.33 3.298-8.33 7.82v.612h3.774V9.02c0-2.958 1.836-4.794 4.556-4.794 2.72 0 4.522 1.496 4.522 4.216 0 2.278-1.598 3.944-3.74 5.746l-9.146 7.786V25zm23.49-21.386c0 1.258-.51 2.142-1.734 2.142h-3.706v3.23h3.876c.646 0 1.156-.102 1.496-.306V25h3.774V1.2h-3.706v2.414zm9.548 25.806L381.28.18h-3.57l-9.622 29.24h3.536zM381.85 25h16.864v-3.298h-11.526l6.324-5.27c2.89-2.414 5.032-4.624 5.032-8.16 0-4.352-2.992-7.276-8.33-7.276-5.066 0-8.33 3.298-8.33 7.82v.612h3.774V9.02c0-2.958 1.836-4.794 4.556-4.794 2.72 0 4.522 1.496 4.522 4.216 0 2.278-1.598 3.944-3.74 5.746l-9.146 7.786V25zm18.593 0h16.864v-3.298h-11.526l6.324-5.27c2.89-2.414 5.032-4.624 5.032-8.16 0-4.352-2.992-7.276-8.33-7.276-5.066 0-8.33 3.298-8.33 7.82v.612h3.774V9.02c0-2.958 1.836-4.794 4.556-4.794 2.72 0 4.522 1.496 4.522 4.216 0 2.278-1.598 3.944-3.74 5.746l-9.146 7.786V25z" fill="#000"/></svg>