<svg width="356" height="56" viewBox="0 0 356 56" fill="none" xmlns="http://www.w3.org/2000/svg"><path d="M28.113 53.147c-2.079-.109-4.157-.218-6.235 0-1.094.108-2.079.326-2.954.978-.438.217-.766.543-1.094.978.11.109.219.109.438.109 1.86.543 3.719.869 5.578.76.876 0 1.75-.217 2.626-.652a3.59 3.59 0 001.86-1.739c.218-.326.109-.434-.22-.434zm52.834 0c-2.188-.218-4.266-.109-6.454 0-.219 0-.219.108-.219.326.219.434.547.87.875 1.195.985.87 2.188 1.196 3.5 1.304 1.75.109 3.501-.108 5.251-.543l.985-.326a1.502 1.502 0 00-.329-.435c-1.093-.978-2.297-1.413-3.61-1.521zm6.563-3.152c-.875.109-1.75.218-2.516.326-1.203.218-2.297.544-3.5.87-.22 0-.22.108-.11.326l.657.652c1.093.76 2.297.978 3.61.87a11.696 11.696 0 003.828-.979c.656-.326 1.203-.652 1.86-.87v-.108c-.11-.109-.329-.217-.438-.326-1.094-.652-2.297-.76-3.391-.76zm-66.18 1.63c.22-.217.11-.217-.109-.326-.547-.108-1.094-.326-1.64-.434-1.423-.327-2.845-.653-4.267-.761-1.094-.109-2.188 0-3.063.434-.328.11-.546.327-.875.544l.11.109c.11 0 .11.108.218.108 1.204.652 2.407 1.196 3.72 1.522 1.312.326 2.625.434 4.047 0 .656-.218 1.313-.544 1.86-1.196zM88.276 7.938c.109.108.218.108.328 0 .328-.544.547-1.196.547-1.74 0-.977-.328-1.847-.875-2.607C87.182 2.069 85.76.982 84.119.113c-.219-.109-.328 0-.328.109 0 .326-.11.652-.11.978 0 1.087.438 1.956 1.094 2.825.985 1.413 2.297 2.609 3.5 3.913zm-73.837-.109c.547-.543.985-1.087 1.422-1.521.985-.978 1.86-1.957 2.407-3.043.547-.87.765-1.848.547-2.935 0-.326-.11-.434-.438-.217-1.531.87-2.953 1.848-3.938 3.26-.656.761-.984 1.74-.984 2.717 0 .544.218 1.196.547 1.739.218.326.218.326.437 0zm2.625-1.739c-.109.218-.109.326.11.326h.656c1.422 0 2.844-.326 4.048-.978 1.64-.76 2.953-1.956 3.937-3.369 0-.108 0-.108.11-.217-.11 0-.11-.109-.219-.109-.438 0-.875 0-1.313.109-2.187.217-4.047.978-5.688 2.39-.656.435-1.203 1.088-1.64 1.848zM76.9 1.96c1.204 1.63 2.735 2.935 4.595 3.696 1.312.543 2.625.76 3.938.652.328 0 .437-.11.218-.435-.547-.87-1.312-1.63-2.187-2.282-1.641-1.196-3.61-1.74-5.798-1.956h-.875v.217c.11 0 .11.109.11.109zm19.143 44.014c-.656-.217-1.203-.326-1.86-.326v-.109c-.656.11-1.312.218-1.968.326-.985.326-1.97.761-2.954 1.196-.656.326-1.313.652-1.969 1.087-.219.108-.219.217 0 .326.11.108.328.217.438.326 1.203.76 2.516.76 3.828.326 1.86-.544 3.282-1.522 4.704-2.826.11-.217.11-.217-.219-.326zm-82.587 3.37a4.064 4.064 0 001.969-.87c.109-.109.218-.218 0-.326-.22-.109-.329-.218-.547-.218-1.422-.76-2.954-1.521-4.485-1.956-1.203-.326-2.516-.434-3.72 0-.328.109-.328.218-.109.435a11.143 11.143 0 003.282 2.282c.875.435 1.86.652 2.844.76.328-.108.547-.108.766-.108zm78.977-37.277c.11.326.22.326.438.11.766-.762 1.094-1.631 1.094-2.718-.11-.435-.11-.87-.219-1.304-.547-1.739-1.64-3.152-2.953-4.347-.11-.109-.22-.109-.329.109-.109.434-.328.87-.437 1.304-.219 1.304.219 2.5.766 3.695.437 1.087 1.093 2.065 1.64 3.151zm-82.587.218c.11.108.219.108.328 0 .547-1.087 1.203-2.282 1.75-3.37.438-.977.766-1.955.766-2.933 0-.652-.11-1.305-.438-1.848-.218-.326-.218-.326-.437-.109-.875.652-1.532 1.522-2.079 2.5-.656 1.087-1.093 2.173-.984 3.478.11.869.438 1.63 1.094 2.282zM7.11 17.392c.11-.108.11-.217.11-.325.437-1.413.765-2.826.875-4.348.11-1.086 0-2.064-.438-3.042-.11-.435-.328-.761-.766-1.087-.109.108-.218.108-.218.217-.22.435-.547.87-.766 1.413-.547 1.195-.985 2.39-.875 3.695 0 1.195.437 2.282 1.422 3.043.219.109.437.326.656.434zm88.276-.325c.11.325.11.325.437.217 1.532-.978 1.97-2.5 1.75-4.13-.109-1.087-.546-2.173-.984-3.26-.219-.435-.438-.87-.766-1.304h-.109l-.656.978c-.657 1.304-.766 2.608-.438 4.02.219 1.088.547 2.283.766 3.479zM10.939 44.344c.219-.109.219-.217.11-.326-1.095-.978-2.189-1.956-3.392-2.717-1.094-.76-2.297-1.195-3.61-1.195h-.985c-.218.108-.327.108-.109.326.438.543.876 1.195 1.313 1.738.875.979 1.97 1.848 3.282 2.283 1.094.543 2.297.434 3.39-.109zm86.088-3.912c-.985.326-1.75.76-2.516 1.412-.875.761-1.75 1.413-2.626 2.174-.218.217-.218.217.11.326l.984.326c1.313.326 2.516 0 3.5-.652a11.681 11.681 0 003.282-3.26c.11-.109.22-.326.328-.435-.109 0-.109-.109-.218-.109-1.094-.217-1.97-.108-2.844.218zm.109-19.562v1.63c0 .326.11.435.438.218 1.422-.544 2.187-1.63 2.515-3.043.329-1.74.11-3.37-.437-5.108-.11-.326-.11-.326-.328-.109-.985.761-1.532 1.74-1.86 2.826-.328 1.195-.328 2.39-.328 3.586zM6.673 39.671c.218 0 .547-.109.875-.217.328 0 .328-.11.11-.326-.329-.435-.657-.978-1.095-1.413-.765-.978-1.531-1.956-2.516-2.717-.984-.76-1.969-1.087-3.172-1.195-.219 0-.328.108-.219.326.547 1.521 1.313 2.825 2.407 4.02.984.979 2.078 1.522 3.61 1.522zM5.14 22.718c.219.108.328.108.328-.218v-1.63c.11-1.304 0-2.608-.328-3.912-.328-.978-.875-1.848-1.64-2.5-.329-.217-.329-.217-.438.109-.219.76-.438 1.521-.547 2.282-.11 1.195-.11 2.282.328 3.37.328 1.194 1.094 2.064 2.297 2.499zM101.73 33.91c-1.094 0-2.188.435-3.063 1.087-.984.76-1.75 1.63-2.516 2.608-.437.544-.765 1.087-1.203 1.63-.11.218-.11.326.11.326.328.109.765.109.875.218 1.531 0 2.625-.544 3.61-1.522 1.093-1.087 1.859-2.5 2.406-3.912.109-.435 0-.435-.219-.435zM1.86 26.63c.656.978 1.64 1.63 2.734 1.739.328.108.438 0 .328-.326-.218-1.087-.437-2.174-.765-3.26-.328-1.087-.766-2.174-1.641-3.044-.547-.543-1.094-.978-1.75-1.195v.326c-.11.978-.11 1.848 0 2.826.218 1.086.437 2.064 1.094 2.934zm96.589-1.739c-.328.978-.438 2.065-.657 3.043-.109.543-.109.543.438.435 1.422-.326 2.406-1.196 2.953-2.5.547-1.195.657-2.5.766-3.912 0-.326-.109-.652-.109-1.087 0-.217-.11-.217-.328-.217-.657.326-1.094.652-1.532 1.195-.766.87-1.203 1.956-1.531 3.043zM5.14 34.13h.328c.22 0 .329-.11.22-.326-.548-1.305-1.095-2.5-1.751-3.695-.656-1.087-1.422-1.957-2.625-2.5-.329-.109-.766-.217-1.094-.326-.219-.109-.219 0-.219.217 0 .326.11.652.11.87.218 1.304.656 2.608 1.53 3.695.876 1.304 1.97 1.956 3.501 2.065zm93.855-4.347a25.087 25.087 0 00-1.97 3.803c-.218.544-.218.544.766.544.985 0 1.97-.544 2.844-1.413.657-.652.985-1.413 1.313-2.282.328-.979.656-1.848.656-2.935 0-.217-.109-.217-.218-.217h-.219c-1.313.435-2.407 1.304-3.172 2.5zM74.383 52.928c.547-.217 1.204-.326 1.86-.543 1.094-.435 2.078-.978 2.954-1.848.765-.76 1.203-1.63 1.312-2.716-.11-.326-.11-.761-.219-1.087-.109-.218-.109-.326-.328-.109-.984.652-2.078 1.304-3.063 2.065-.875.652-1.64 1.413-2.187 2.282-.329.544-.547 1.087-.547 1.739 0 .217 0 .326.218.217zm-47.145-2.934a9.932 9.932 0 00-2.298-1.956 24.767 24.767 0 00-2.187-1.413c-.11-.108-.22-.108-.329.109-.218.76-.328 1.413 0 2.173.22.761.766 1.413 1.422 1.957 1.313.978 2.735 1.63 4.267 2.064.328.11.437.11.328-.434 0-.87-.547-1.74-1.203-2.5zm54.584.76c1.203-.76 2.297-1.52 2.953-2.716.766-1.304.875-2.608 0-4.021-.219-.217-.219-.326-.437 0-.438.435-.875.978-1.313 1.413-.766.978-1.64 1.956-1.969 3.26a4.436 4.436 0 000 2.39c.328 0 .547-.108.766-.325zm-61.038 0c.218.11.547.327.765.436.11-.218.11-.435.11-.544.11-1.195-.11-2.282-.766-3.26-.766-1.304-1.75-2.39-2.735-3.369-.11-.217-.328-.109-.437 0-.766 1.304-.875 2.608-.11 3.912.875 1.196 1.97 2.065 3.173 2.826zM85.213 9.46a6.834 6.834 0 002.844-.978c.219-.217.219-.217 0-.435-1.313-.76-2.844-1.304-4.376-1.412-1.203-.11-2.297.217-3.281.978-.328.217-.657.543-.766.87.11 0 .11 0 .11.108.656.217 1.312.326 1.968.434 1.094.327 2.297.544 3.5.435zm-62.46-1.413c-.985-1.086-2.298-1.521-3.72-1.412-1.312 0-2.625.434-3.828 1.086-.328.109-.547.326-.875.435v.109c.328.217.547.326.875.543 1.531.76 3.063.76 4.704.435.875-.109 1.75-.326 2.625-.544.656-.108.656-.108.219-.652zm64.32 39.884c.984-.978 1.859-2.065 2.297-3.369.546-1.521.218-2.934-.985-4.02-.219-.218-.328-.218-.438.108-.437.87-.875 1.63-1.203 2.5a6.53 6.53 0 00-.547 2.608c0 .76.22 1.521.547 2.173 0 .109.11.218.328 0zm-71.43 0c.218.218.218.109.328-.108.328-.652.546-1.413.546-2.391 0-.218-.109-.652-.218-1.087a12.939 12.939 0 00-1.641-3.804c-.11-.326-.219-.326-.438-.108-1.094 1.195-1.422 2.5-.984 4.02.547 1.522 1.422 2.609 2.406 3.478zm2.953-36.84c-.11-.11-.219-.11-.219-.218-1.203-.978-2.625-1.195-4.047-.87-1.532.327-2.735 1.196-3.829 2.283l-.219.217c.11.109.22.109.329.109 1.203.434 2.406.543 3.719.326 1.422-.326 2.734-.978 4.047-1.63l.219-.218zm72.414 1.956c.438-.11.985-.218 1.422-.435v-.109l-.218-.217c-1.094-.978-2.297-1.848-3.72-2.174-1.531-.434-2.844-.217-4.047.761-.11.109-.219.109-.328.217l.219.218c.875.434 1.64.76 2.516 1.195 1.312.435 2.734.87 4.156.543zm-.437 29.994c.219.326.437.652.766 1.087.109-.109.218-.218.218-.326.657-.978 1.094-2.174 1.313-3.37.219-1.63-.547-3.26-1.97-4.02-.218-.109-.327-.109-.327.108-.328 1.087-.547 2.174-.547 3.37-.219 1.195 0 2.173.547 3.15zm-79.306 1.087c.11 0 .11 0 .219.108.11-.108.11-.217.218-.326.876-1.086 1.313-2.282 1.204-3.586 0-1.195-.22-2.39-.547-3.586 0-.218-.11-.218-.328-.109-1.422.652-2.188 1.739-2.188 3.26 0 .87.219 1.63.547 2.391.219.652.547 1.196.875 1.848zm76.68-29.777c-.328.108-.328.217-.109.434.766.544 1.422 1.196 2.188 1.63 1.094.761 2.406 1.304 3.828 1.304.329 0 .766-.108 1.094-.108.328-.109.328-.109.11-.326-.657-.978-1.422-1.848-2.407-2.5-1.422-1.087-2.953-1.304-4.703-.434zm-73.18 0c-1.094-.652-2.297-.761-3.61-.326-1.203.434-2.187 1.304-3.062 2.282-.328.326-.547.76-.875 1.086.109 0 .109.11.218.11 1.204.216 2.297.108 3.5-.327 1.423-.543 2.626-1.521 3.83-2.608.218 0 .109-.109 0-.217zM8.313 39.128c.985-.653 1.641-1.63 1.97-2.717.328-1.087.437-2.174.437-3.26v-.979c0-.217-.11-.217-.328-.217-.11 0-.219.109-.219.109-1.313.543-2.188 1.413-2.516 2.825-.437 1.413-.219 2.826.219 4.239.11.108.219.217.437 0zm85.87-.11c.109.11.218.218.437.327a.335.335 0 00.11-.217c.328-1.087.546-2.174.437-3.26-.11-1.848-1.094-3.152-2.844-3.804-.328-.109-.328-.109-.328.217 0 1.087 0 2.174.219 3.152.218 1.521.875 2.717 1.969 3.586zm-2.188-18.474c.984 1.195 2.297 2.065 3.828 2.282.438.109.766.109 1.204.109v-.217c-.438-1.305-1.094-2.5-2.079-3.37-1.203-1.086-2.625-1.412-4.266-.977-.328.108-.328.108-.11.434.438.544.876 1.196 1.423 1.74zM12.25 18.588c.11-.109 0-.217-.109-.217-1.203-.326-2.407-.218-3.5.326-1.094.652-1.75 1.521-2.298 2.608-.218.434-.437.978-.656 1.521h.438c.875 0 1.64-.217 2.406-.543 1.532-.76 2.626-2.174 3.72-3.695zm85.213 9.563c-.219-.76-.328-1.521-.656-2.282-.547-1.413-1.532-2.5-3.063-2.934-.547-.217-1.203-.217-1.86-.109 0 .109 0 .218.11.326.547 1.196 1.094 2.391 1.969 3.37.875.977 1.86 1.63 3.172 1.955.328 0 .328 0 .328-.326zm-.766 5.543v-.87c-.109-.543-.109-1.086-.218-1.63 0-.326-.11-.543-.22-.87-.546-1.738-1.75-2.716-3.609-3.042-.328 0-.328 0-.328.326.219 1.195.547 2.282.985 3.369.546 1.304 1.53 2.173 2.843 2.826.438.217.547.217.547-.11zm-91.12-5.325c.985-.218 1.97-.761 2.735-1.413.876-.87 1.532-2.065 2.079-3.152.11-.326.219-.652.437-.978h-.218c-1.75-.108-3.173.544-4.157 2.065-.656.978-.985 2.174-1.203 3.369-.11.217 0 .217.328.109zm.657 5.542c.985-.434 1.75-.978 2.297-1.847.547-.761.875-1.63 1.203-2.5.22-.652.329-1.195.438-1.847.11-.326 0-.326-.328-.326-.11 0-.328.108-.438.108-1.203.326-2.078.978-2.734 2.065-.547.978-.766 2.174-.766 3.37v.869c.11.217.11.217.328.108zM41.726 26.642h2.699c1.714 0 2.637-.77 2.637-2.03 0-1.014-.649-1.511-1.491-1.643.74-.203 1.217-.71 1.217-1.553 0-1.167-.892-1.877-2.455-1.877h-2.607v7.103zm2.638-6.129c.811 0 1.258.386 1.258 1.015 0 .64-.457 1.025-1.258 1.025h-1.471v-2.04h1.47zm.07 3.004c.904 0 1.431.386 1.431 1.086 0 .66-.497 1.055-1.43 1.055h-1.542v-2.141h1.542zM50.44 26.703c1.288 0 2.16-.781 2.343-1.806h-1.095c-.152.578-.64.913-1.309.913-.862 0-1.42-.578-1.45-1.461v-.071h3.915c.02-.142.03-.284.03-.416-.03-1.522-1.034-2.476-2.535-2.476-1.532 0-2.557 1.065-2.557 2.669 0 1.593 1.025 2.648 2.658 2.648zm-1.471-3.227c.081-.74.68-1.207 1.38-1.207.76 0 1.298.436 1.39 1.207h-2.77zM53.508 24.927c.03 1.127.984 1.776 2.373 1.776 1.258 0 2.202-.629 2.202-1.623 0-1.157-.964-1.4-2.15-1.543-.752-.081-1.249-.142-1.249-.629 0-.416.426-.68 1.076-.68.649 0 1.095.335 1.156.812h1.076c-.072-1.066-.974-1.654-2.253-1.654-1.247-.01-2.13.629-2.13 1.613 0 1.076.933 1.33 2.12 1.472.802.101 1.278.142 1.278.7 0 .416-.446.68-1.126.68-.79 0-1.258-.386-1.298-.924h-1.075zM59.307 25.232c0 .944.426 1.41 1.42 1.41h1.015v-.964h-.771c-.416 0-.558-.152-.558-.558v-2.71h1.268v-.963h-1.268v-1.451h-1.106v1.45h-.903v.965h.903v2.82zM26.398 38.12c1.654 0 2.861-.975 3.084-2.476h-1.207c-.223.903-.903 1.45-1.887 1.45-1.34 0-2.15-1.075-2.15-2.587 0-1.522.831-2.588 2.18-2.588.964 0 1.634.558 1.867 1.451h1.207c-.233-1.501-1.4-2.476-3.023-2.476-2.1 0-3.429 1.451-3.429 3.613 0 2.182 1.289 3.613 3.358 3.613zM30.447 38.059h1.167v-3.004h2.78V34.05h-2.78v-2.06h3.368v-1.035h-4.535v7.104zM38.29 38.059c2.222 0 3.622-1.451 3.622-3.562 0-2.111-1.4-3.542-3.621-3.542h-2.415v7.104h2.415zm-1.247-6.089h1.248c1.562 0 2.424 1.005 2.424 2.527 0 1.522-.862 2.547-2.424 2.547h-1.248V31.97zM45.274 38.059h1.167V35.48h1.633c1.481 0 2.455-.893 2.455-2.263 0-1.38-.974-2.263-2.455-2.263h-2.8v7.104zm2.709-6.089c.832 0 1.36.477 1.36 1.248 0 .761-.539 1.248-1.37 1.248H46.44V31.97h1.542zM53.942 32.863c-.852 0-1.268.345-1.532.781l-.121-.781h-.974v5.196h1.095V35.45c0-.802.315-1.563 1.289-1.563h.487v-1.025h-.244zM57.069 38.12c1.582 0 2.648-1.066 2.648-2.66 0-1.582-1.066-2.658-2.648-2.658-1.583 0-2.648 1.076-2.648 2.659 0 1.593 1.065 2.659 2.648 2.659zm0-.934c-.923 0-1.522-.72-1.522-1.725 0-1.005.599-1.725 1.522-1.725s1.532.72 1.532 1.725c0 1.004-.609 1.725-1.532 1.725zM61.76 38.059h1.339l1.917-5.196H63.86l-1.41 4.019-1.43-4.019h-1.178l1.918 5.196zM66.129 32.132c.375 0 .67-.274.67-.66a.648.648 0 00-.67-.659.648.648 0 00-.67.66c0 .385.294.66.67.66zm-.558 5.927h1.095v-5.196h-1.095v5.196zM71.687 33.584c-.335-.457-.893-.782-1.684-.782-1.41 0-2.455 1.056-2.455 2.659 0 1.664 1.045 2.659 2.455 2.659.821 0 1.36-.386 1.694-.843l.132.782h.953v-7.104h-1.095v2.629zm-1.502 3.612c-.913 0-1.511-.71-1.511-1.735 0-1.015.598-1.725 1.511-1.725.913 0 1.512.71 1.512 1.745 0 1.005-.599 1.715-1.512 1.715zM76.318 38.12c1.288 0 2.161-.782 2.344-1.807h-1.096c-.152.579-.64.913-1.309.913-.862 0-1.42-.578-1.45-1.46v-.072h3.915c.02-.142.03-.284.03-.416-.03-1.522-1.034-2.476-2.535-2.476-1.532 0-2.557 1.066-2.557 2.669 0 1.593 1.025 2.649 2.658 2.649zm-1.47-3.227c.08-.741.679-1.208 1.379-1.208.76 0 1.298.436 1.39 1.207h-2.77zM82.266 32.863c-.852 0-1.268.345-1.532.781l-.121-.781h-.974v5.196h1.095V35.45c0-.802.315-1.563 1.289-1.563h.487v-1.025h-.244zM155.019 53.147c-2.054-.109-4.109-.218-6.164 0-1.081.108-2.055.326-2.92.978-.432.217-.757.543-1.081.978.108.109.216.109.432.109 1.839.543 3.677.869 5.516.76.865 0 1.73-.217 2.595-.652a3.568 3.568 0 001.839-1.739c.216-.326.108-.434-.217-.434zm52.234 0c-2.163-.218-4.218-.109-6.38 0-.217 0-.217.108-.217.326.217.434.541.87.865 1.195.974.87 2.163 1.196 3.461 1.304 1.73.109 3.461-.108 5.191-.543l.973-.326c-.108-.218-.216-.326-.324-.435-1.082-.978-2.271-1.413-3.569-1.521zm6.489-3.152c-.865.109-1.731.218-2.488.326-1.189.218-2.271.544-3.46.87-.217 0-.217.108-.108.326l.648.652c1.082.76 2.272.978 3.569.87a11.452 11.452 0 003.785-.979c.649-.326 1.19-.652 1.839-.87v-.108c-.108-.109-.325-.218-.433-.326-1.081-.652-2.271-.76-3.352-.76zm-65.428 1.63c.217-.217.108-.217-.108-.326-.541-.108-1.081-.326-1.622-.434-1.406-.327-2.812-.653-4.218-.761-1.081-.109-2.162 0-3.028.434-.324.11-.54.327-.865.544l.108.109c.108 0 .108.108.217.108 1.189.652 2.379 1.196 3.677 1.522 1.297.326 2.595.434 4.001 0 .649-.218 1.298-.544 1.838-1.196zm66.185-43.687c.108.108.216.108.324 0 .325-.544.541-1.196.541-1.74 0-.977-.325-1.847-.865-2.607-1.082-1.522-2.488-2.609-4.11-3.478-.216-.109-.324 0-.324.109 0 .326-.108.652-.108.978 0 1.087.432 1.956 1.081 2.825.973 1.413 2.271 2.609 3.461 3.913zm-72.998-.109c.541-.543.974-1.087 1.406-1.521.973-.978 1.839-1.957 2.379-3.043.541-.87.757-1.848.541-2.935 0-.326-.108-.434-.433-.217-1.514.87-2.919 1.848-3.893 3.26-.649.761-.973 1.74-.973 2.717 0 .544.216 1.196.541 1.739.216.326.216.326.432 0zm2.596-1.739c-.108.218-.108.326.108.326h.649c1.406 0 2.811-.326 4.001-.978 1.622-.76 2.92-1.956 3.893-3.369 0-.108 0-.108.108-.217-.108 0-.108-.109-.216-.109-.432 0-.865 0-1.298.109-2.162.217-4.001.978-5.623 2.39-.649.435-1.19 1.088-1.622 1.848zm59.155-4.13c1.189 1.63 2.703 2.935 4.542 3.696 1.297.543 2.595.76 3.893.652.324 0 .433-.11.216-.435-.54-.87-1.297-1.63-2.163-2.282-1.622-1.196-3.568-1.74-5.731-1.956h-.865v.217c.108 0 .108.109.108.109zm18.925 44.014c-.649-.217-1.19-.326-1.839-.326v-.109c-.648.11-1.297.218-1.946.326-.973.326-1.947.761-2.92 1.196-.649.326-1.298.652-1.947 1.087-.216.108-.216.217 0 .326.109.108.325.217.433.326 1.19.76 2.487.76 3.785.326 1.838-.544 3.244-1.522 4.65-2.826.108-.217.108-.217-.216-.326zm-81.649 3.37a4 4 0 001.947-.87c.108-.109.216-.218 0-.326-.217-.109-.325-.218-.541-.218-1.406-.76-2.92-1.521-4.434-1.956-1.19-.326-2.487-.435-3.677 0-.324.109-.324.218-.108.435a11.015 11.015 0 003.244 2.282c.865.435 1.839.652 2.812.76.324-.108.541-.108.757-.108zm78.08-37.277c.108.326.216.326.433.11.757-.762 1.081-1.631 1.081-2.718-.108-.435-.108-.87-.216-1.304-.541-1.739-1.622-3.152-2.92-4.347-.108-.109-.216-.109-.324.109-.109.434-.325.87-.433 1.304-.216 1.304.216 2.5.757 3.695.433 1.087 1.081 2.065 1.622 3.151zm-81.649.218c.108.108.216.108.325 0 .54-1.087 1.189-2.282 1.73-3.37.433-.977.757-1.955.757-2.933 0-.652-.108-1.305-.433-1.848-.216-.326-.216-.326-.432-.109-.865.652-1.514 1.522-2.055 2.5-.649 1.087-1.081 2.173-.973 3.478.108.869.432 1.63 1.081 2.282zm-2.703 5.107c.108-.108.108-.217.108-.325.432-1.413.757-2.826.865-4.348.108-1.086 0-2.064-.433-3.042-.108-.435-.324-.761-.757-1.087-.108.108-.216.108-.216.217-.216.435-.541.87-.757 1.413-.541 1.195-.973 2.39-.865 3.695 0 1.195.432 2.282 1.406 3.043.216.109.432.326.649.434zm87.272-.325c.108.325.108.325.433.217 1.514-.978 1.946-2.5 1.73-4.13-.108-1.087-.541-2.173-.973-3.26-.217-.435-.433-.87-.757-1.304h-.108l-.649.978c-.649 1.304-.757 2.608-.433 4.02.216 1.088.541 2.283.757 3.479zm-83.487 27.277c.216-.109.216-.217.108-.326-1.082-.978-2.163-1.956-3.353-2.717-1.081-.76-2.271-1.195-3.568-1.195h-.974c-.216.108-.324.108-.108.326.433.543.865 1.195 1.298 1.738.865.979 1.946 1.848 3.244 2.283 1.082.543 2.271.434 3.353-.109zm85.109-3.912c-.973.326-1.73.76-2.487 1.412-.865.761-1.73 1.413-2.596 2.174-.216.217-.216.217.109.326l.973.326c1.298.326 2.487 0 3.461-.652a11.62 11.62 0 003.244-3.26c.108-.109.216-.326.324-.435-.108 0-.108-.109-.216-.109-1.081-.217-1.947-.108-2.812.218zm.108-19.562v1.63c0 .326.109.435.433.218 1.406-.544 2.163-1.63 2.487-3.043.325-1.74.108-3.37-.432-5.108-.108-.326-.108-.326-.325-.109-.973.761-1.514 1.74-1.838 2.826-.325 1.195-.325 2.39-.325 3.586zm-89.435 18.801c.216 0 .541-.109.865-.217.325 0 .325-.11.108-.326-.324-.435-.649-.978-1.081-1.413-.757-.978-1.514-1.956-2.487-2.717-.974-.76-1.947-1.087-3.137-1.195-.216 0-.324.108-.216.326.541 1.521 1.298 2.825 2.379 4.02.974.979 2.055 1.522 3.569 1.522zm-1.514-16.953c.216.108.324.108.324-.218v-1.63c.109-1.304 0-2.608-.324-3.912-.324-.978-.865-1.848-1.622-2.5-.325-.217-.325-.217-.433.109-.216.76-.432 1.521-.54 2.282-.109 1.195-.109 2.282.324 3.369.324 1.195 1.081 2.065 2.271 2.5zM227.8 33.91c-1.081 0-2.162.435-3.028 1.087-.973.76-1.73 1.63-2.487 2.608-.432.544-.757 1.087-1.189 1.63-.109.218-.109.326.108.326.324.109.757.109.865.218 1.514 0 2.595-.544 3.569-1.522 1.081-1.087 1.838-2.5 2.379-3.912.108-.435 0-.435-.217-.435zm-98.735-7.281c.649.978 1.622 1.63 2.703 1.739.325.108.433 0 .325-.326-.217-1.087-.433-2.174-.757-3.26-.325-1.087-.757-2.174-1.622-3.044-.541-.543-1.082-.978-1.731-1.195v.326a12.362 12.362 0 000 2.826c.216 1.086.433 2.064 1.082 2.934zm95.491-1.739c-.324.978-.432 2.065-.649 3.043-.108.543-.108.543.433.435 1.406-.326 2.379-1.196 2.92-2.5.54-1.195.649-2.5.757-3.912 0-.326-.108-.652-.108-1.087 0-.217-.109-.217-.325-.217-.649.326-1.081.652-1.514 1.195-.757.87-1.189 1.956-1.514 3.043zm-92.247 9.238h.324c.217 0 .325-.11.217-.326-.541-1.305-1.082-2.5-1.731-3.695-.648-1.087-1.405-1.957-2.595-2.5-.325-.109-.757-.217-1.082-.326-.216-.109-.216 0-.216.217 0 .326.108.652.108.87.217 1.304.649 2.608 1.514 3.695.866 1.304 1.947 1.956 3.461 2.065zm92.788-4.347a25.215 25.215 0 00-1.947 3.803c-.216.544-.216.544.757.544.974 0 1.947-.544 2.812-1.413.649-.652.973-1.413 1.298-2.283.324-.977.649-1.847.649-2.934 0-.217-.109-.217-.217-.217h-.216c-1.298.435-2.379 1.304-3.136 2.5zm-24.333 23.147c.541-.217 1.19-.326 1.839-.543 1.081-.435 2.055-.978 2.92-1.848.757-.76 1.189-1.63 1.297-2.716-.108-.326-.108-.761-.216-1.087-.108-.218-.108-.326-.324-.109-.974.652-2.055 1.304-3.028 2.065-.865.652-1.622 1.413-2.163 2.282-.325.544-.541 1.087-.541 1.739 0 .217 0 .326.216.217zm-46.61-2.934a9.856 9.856 0 00-2.271-1.956 24.457 24.457 0 00-2.163-1.413c-.108-.108-.216-.108-.324.109-.216.76-.325 1.413 0 2.173.216.761.757 1.413 1.406 1.956 1.297.979 2.703 1.63 4.217 2.065.325.11.433.11.325-.434 0-.87-.541-1.74-1.19-2.5zm53.964.76c1.19-.76 2.271-1.52 2.92-2.716.757-1.304.865-2.608 0-4.021-.216-.217-.216-.326-.432 0-.433.435-.866.978-1.298 1.413-.757.978-1.622 1.956-1.947 3.26a4.492 4.492 0 000 2.39c.325 0 .541-.108.757-.325zm-60.344 0c.216.11.54.327.757.436.108-.218.108-.435.108-.544.108-1.195-.108-2.282-.757-3.26-.757-1.304-1.731-2.39-2.704-3.369-.108-.217-.324-.109-.432 0-.757 1.304-.866 2.608-.109 3.912.866 1.196 1.947 2.065 3.137 2.826zM211.471 9.46a6.703 6.703 0 002.811-.978c.217-.217.217-.217 0-.435-1.297-.76-2.811-1.304-4.325-1.412-1.19-.11-2.271.217-3.245.978-.324.217-.649.543-.757.87.108 0 .108 0 .108.108.649.217 1.298.326 1.947.434 1.081.327 2.271.544 3.461.435zM149.72 8.046c-.973-1.086-2.271-1.521-3.677-1.412-1.297 0-2.595.434-3.785 1.086-.324.109-.54.326-.865.435v.109c.325.217.541.326.865.543 1.514.76 3.028.76 4.65.435.866-.109 1.731-.326 2.596-.544.649-.108.649-.108.216-.652zm63.589 39.884c.973-.978 1.839-2.065 2.271-3.369.541-1.521.216-2.934-.973-4.02-.216-.218-.325-.218-.433.108-.432.87-.865 1.63-1.189 2.5a6.584 6.584 0 00-.541 2.608c0 .76.216 1.521.541 2.173 0 .109.108.218.324 0zm-70.618 0c.216.218.216.109.324-.108.325-.652.541-1.413.541-2.391 0-.218-.108-.652-.216-1.087a13.033 13.033 0 00-1.622-3.804c-.109-.326-.217-.326-.433-.108-1.081 1.195-1.406 2.5-.973 4.02.54 1.522 1.406 2.609 2.379 3.478zm2.92-36.84c-.108-.11-.217-.11-.217-.218-1.189-.978-2.595-1.195-4.001-.87-1.514.327-2.703 1.196-3.785 2.283l-.216.217c.108.109.216.109.324.109 1.19.434 2.379.543 3.677.326 1.406-.326 2.704-.978 4.001-1.63l.217-.218zm71.591 1.956c.433-.11.974-.218 1.406-.435v-.109l-.216-.217c-1.082-.978-2.271-1.848-3.677-2.174-1.514-.434-2.812-.217-4.001.761-.108.109-.217.109-.325.217l.217.218c.865.434 1.622.76 2.487 1.195 1.298.435 2.703.87 4.109.543zm-.432 29.994c.216.326.432.652.757 1.087.108-.109.216-.218.216-.326.649-.978 1.081-2.174 1.298-3.37.216-1.63-.541-3.26-1.947-4.02-.216-.109-.324-.109-.324.108-.325 1.087-.541 2.174-.541 3.37-.216 1.195 0 2.173.541 3.15zm-78.405 1.087c.108 0 .108 0 .216.108.108-.108.108-.217.217-.326.865-1.086 1.297-2.282 1.189-3.586 0-1.195-.216-2.39-.54-3.586 0-.218-.109-.218-.325-.109-1.406.652-2.163 1.739-2.163 3.26 0 .87.216 1.63.541 2.391.216.652.541 1.196.865 1.848zm75.809-29.777c-.324.108-.324.217-.108.434.757.544 1.406 1.196 2.163 1.63 1.081.761 2.379 1.304 3.785 1.304.324 0 .757-.108 1.082-.108.324-.109.324-.109.108-.326-.649-.978-1.406-1.848-2.38-2.5-1.405-1.087-2.919-1.304-4.65-.434zm-72.348 0c-1.082-.652-2.271-.761-3.569-.326-1.19.434-2.163 1.304-3.028 2.282-.325.326-.541.76-.865 1.086.108 0 .108.11.216.11 1.19.216 2.271.108 3.461-.327 1.406-.543 2.595-1.521 3.785-2.608.216 0 .108-.109 0-.217zm-6.381 24.778c.973-.653 1.622-1.63 1.947-2.717.324-1.087.432-2.174.432-3.26v-.979c0-.217-.108-.217-.324-.217-.108 0-.216.109-.216.109-1.298.543-2.163 1.413-2.488 2.825-.432 1.413-.216 2.826.217 4.239.108.108.216.217.432 0zm84.893-.11c.109.11.217.218.433.327.108-.109.108-.217.108-.217.325-1.087.541-2.174.433-3.26-.108-1.848-1.082-3.152-2.812-3.804-.324-.109-.324-.109-.324.217 0 1.087 0 2.174.216 3.152.216 1.521.865 2.717 1.946 3.586zm-2.162-18.474c.973 1.195 2.271 2.065 3.785 2.282.432.109.757.109 1.189.109v-.217c-.432-1.305-1.081-2.5-2.054-3.37-1.19-1.086-2.596-1.412-4.218-.977-.325.108-.325.108-.108.434.432.544.865 1.196 1.406 1.74zm-78.838-1.956c.109-.109 0-.217-.108-.217-1.189-.326-2.379-.218-3.46.326-1.082.652-1.731 1.521-2.271 2.608-.217.434-.433.978-.649 1.521h.432c.865 0 1.622-.217 2.379-.543 1.514-.76 2.596-2.174 3.677-3.695zm84.245 9.563c-.216-.76-.325-1.521-.649-2.282-.541-1.413-1.514-2.5-3.028-2.934-.541-.217-1.19-.217-1.839-.109 0 .109 0 .218.109.326.54 1.196 1.081 2.391 1.946 3.37.865.977 1.839 1.63 3.136 1.955.325 0 .325 0 .325-.326zm-.757 5.543v-.87c-.108-.543-.108-1.086-.216-1.63 0-.326-.109-.543-.217-.87-.54-1.738-1.73-2.716-3.569-3.042-.324 0-.324 0-.324.326.216 1.195.541 2.282.973 3.369.541 1.304 1.514 2.173 2.812 2.826.433.217.541.217.541-.11zm-90.084-5.325c.973-.218 1.946-.761 2.703-1.413.865-.87 1.514-2.065 2.055-3.152.108-.326.216-.652.432-.978h-.216c-1.73-.108-3.136.544-4.109 2.065-.649.978-.974 2.174-1.19 3.369-.108.217 0 .217.325.109zm.648 5.542c.974-.434 1.731-.978 2.271-1.847.541-.761.866-1.63 1.19-2.5.216-.652.324-1.195.433-1.847.108-.326 0-.326-.325-.326-.108 0-.324.108-.432.108-1.19.326-2.055.978-2.704 2.065-.541.978-.757 2.174-.757 3.37v.869c.108.217.108.217.324.108zM150.372 25.374h2.701c1.717 0 2.641-.771 2.641-2.03 0-1.014-.65-1.512-1.493-1.644.741-.203 1.218-.71 1.218-1.552 0-1.167-.893-1.878-2.457-1.878h-2.61v7.104zm2.64-6.13c.813 0 1.26.386 1.26 1.015 0 .64-.457 1.025-1.26 1.025h-1.472v-2.04h1.472zm.072 3.004c.903 0 1.431.386 1.431 1.086 0 .66-.497 1.056-1.431 1.056h-1.544v-2.142h1.544zM159.095 25.435c1.289 0 2.163-.782 2.345-1.806h-1.096c-.153.578-.64.913-1.31.913-.863 0-1.422-.579-1.452-1.462v-.07h3.919c.021-.143.031-.285.031-.417-.031-1.522-1.036-2.476-2.539-2.476-1.533 0-2.559 1.066-2.559 2.67 0 1.592 1.026 2.648 2.661 2.648zm-1.473-3.227c.082-.741.681-1.208 1.381-1.208.762 0 1.3.437 1.392 1.208h-2.773zM162.165 23.659c.031 1.126.985 1.776 2.377 1.776 1.259 0 2.203-.63 2.203-1.624 0-1.157-.965-1.4-2.153-1.542-.751-.081-1.249-.142-1.249-.63 0-.415.427-.68 1.077-.68.65 0 1.096.335 1.157.812h1.077c-.071-1.065-.975-1.654-2.255-1.654-1.249-.01-2.132.63-2.132 1.614 0 1.075.934 1.33 2.122 1.471.802.102 1.28.142 1.28.7 0 .416-.447.68-1.127.68-.793 0-1.26-.385-1.3-.923h-1.077zM167.971 23.963c0 .944.426 1.41 1.421 1.41h1.016v-.963h-.772c-.416 0-.558-.152-.558-.558v-2.71h1.269v-.964h-1.269v-1.45h-1.107v1.45h-.904v.964h.904v2.821zM173.531 23.04c.041 1.42 1.107 2.395 2.874 2.395 1.564 0 2.63-.883 2.63-2.162.01-1.4-1.137-1.776-2.315-1.989-1.117-.192-1.848-.345-1.848-1.075 0-.67.558-1.015 1.36-1.015.863 0 1.432.487 1.524 1.207h1.167c-.05-1.309-1.066-2.191-2.691-2.191-1.513 0-2.528.842-2.528 2.08 0 1.41 1.117 1.786 2.295 1.989 1.127.203 1.868.365 1.868 1.116 0 .68-.609 1.055-1.452 1.055-.995 0-1.645-.558-1.706-1.39l-1.178-.02zM182.734 20.117c-.813 0-1.351.376-1.696.832l-.132-.77h-.955v7.225h1.097v-2.76c.325.466.883.79 1.686.79 1.421 0 2.457-1.055 2.457-2.658 0-1.664-1.036-2.659-2.457-2.659zm-.183 4.394c-.914 0-1.513-.72-1.513-1.755 0-1.005.599-1.705 1.513-1.705.914 0 1.523.7 1.523 1.725 0 1.015-.609 1.735-1.523 1.735zM188.7 20.178c-.853 0-1.269.345-1.533.782l-.122-.782h-.975v5.196h1.097v-2.608c0-.802.314-1.563 1.289-1.563h.488v-1.025h-.244zM191.84 25.435c1.289 0 2.163-.782 2.346-1.806h-1.097c-.152.578-.64.913-1.31.913-.863 0-1.422-.579-1.452-1.462v-.07h3.92c.02-.143.03-.285.03-.417-.03-1.522-1.036-2.476-2.539-2.476-1.533 0-2.559 1.066-2.559 2.67 0 1.592 1.026 2.648 2.661 2.648zm-1.473-3.227c.082-.741.681-1.208 1.381-1.208.762 0 1.3.437 1.392 1.208h-2.773zM199.916 24.42c-.223 0-.335-.071-.335-.335v-2.08c0-1.228-.792-1.888-2.173-1.888-1.31 0-2.183.63-2.295 1.644h1.076c.081-.456.518-.76 1.168-.76.721 0 1.137.354 1.137.933v.314h-1.31c-1.452 0-2.223.6-2.223 1.665 0 .964.792 1.522 1.929 1.522.843 0 1.371-.365 1.716-.893 0 .517.244.832.955.832h.578v-.954h-.223zm-1.422-1.177c-.01.802-.538 1.34-1.452 1.34-.599 0-.964-.305-.964-.741 0-.528.375-.782 1.056-.782h1.36v.183zM204.647 20.899c-.335-.457-.893-.782-1.685-.782-1.412 0-2.458 1.056-2.458 2.66 0 1.663 1.046 2.658 2.458 2.658.822 0 1.36-.386 1.696-.842l.132.78h.954V18.27h-1.097V20.9zm-1.503 3.612c-.913 0-1.513-.71-1.513-1.735 0-1.015.6-1.725 1.513-1.725.914 0 1.514.71 1.514 1.745 0 1.005-.6 1.715-1.514 1.715zM143.445 36.79h2.702c1.716 0 2.64-.771 2.64-2.03 0-1.014-.65-1.511-1.493-1.643.741-.203 1.219-.71 1.219-1.553 0-1.167-.894-1.877-2.458-1.877h-2.61v7.103zm2.641-6.13c.812 0 1.259.387 1.259 1.016 0 .639-.457 1.025-1.259 1.025h-1.473v-2.04h1.473zm.071 3.005c.904 0 1.432.385 1.432 1.086 0 .66-.498 1.055-1.432 1.055h-1.544v-2.141h1.544zM152.168 36.851c1.29 0 2.163-.781 2.346-1.806h-1.097c-.152.578-.64.913-1.31.913-.863 0-1.422-.578-1.452-1.461v-.071h3.92c.02-.142.03-.284.03-.416-.03-1.523-1.036-2.476-2.539-2.476-1.533 0-2.559 1.065-2.559 2.669 0 1.593 1.026 2.648 2.661 2.648zm-1.473-3.227c.082-.74.681-1.208 1.381-1.208.762 0 1.3.437 1.392 1.208h-2.773zM155.828 35.38c0 .943.426 1.41 1.421 1.41h1.016v-.964h-.772c-.416 0-.558-.152-.558-.558v-2.71h1.269v-.963h-1.269v-1.452h-1.107v1.451h-.904v.965h.904v2.82zM159.521 30.864c.376 0 .67-.274.67-.66a.648.648 0 00-.67-.66.648.648 0 00-.67.66c0 .386.294.66.67.66zm-.558 5.926h1.096v-5.195h-1.096v5.195zM163.876 31.534c-.843 0-1.34.335-1.665.74l-.122-.68h-.955v5.196h1.097v-2.618c0-1.055.518-1.695 1.391-1.695.823 0 1.239.528 1.239 1.512v2.801h1.107v-2.892c0-1.735-.944-2.364-2.092-2.364zM170.936 32.406c-.335-.517-.894-.872-1.706-.872-1.412 0-2.458 1.045-2.458 2.638 0 1.654 1.046 2.639 2.458 2.639.812 0 1.35-.335 1.696-.853v.578c0 .995-.539 1.452-1.493 1.452-.772 0-1.28-.335-1.412-.914h-1.117c.102 1.167 1.067 1.807 2.448 1.807 1.868 0 2.66-.893 2.66-2.304v-4.982h-.954l-.122.811zm-1.523 3.481c-.914 0-1.513-.7-1.513-1.715 0-1.005.599-1.715 1.513-1.715.914 0 1.513.71 1.513 1.735 0 .995-.599 1.695-1.513 1.695zM175.794 36.79h1.168v-2.577h1.635c1.482 0 2.457-.893 2.457-2.263 0-1.38-.975-2.263-2.457-2.263h-2.803v7.103zm2.711-6.088c.833 0 1.361.476 1.361 1.248 0 .76-.538 1.248-1.371 1.248h-1.533V30.7h1.543zM184.471 31.595c-.853 0-1.27.345-1.534.78l-.122-.78h-.975v5.195h1.097v-2.608c0-.802.315-1.563 1.29-1.563h.487v-1.024h-.243zM187.6 36.851c1.584 0 2.651-1.066 2.651-2.659 0-1.583-1.067-2.658-2.651-2.658-1.584 0-2.65 1.075-2.65 2.658 0 1.593 1.066 2.66 2.65 2.66zm0-.934c-.924 0-1.523-.72-1.523-1.725 0-1.004.599-1.725 1.523-1.725.924 0 1.534.72 1.534 1.725 0 1.005-.61 1.725-1.534 1.725zM192.296 36.79h1.34l1.919-5.195h-1.157l-1.412 4.018-1.431-4.018h-1.178l1.919 5.195zM196.669 30.864c.376 0 .67-.274.67-.66a.648.648 0 00-.67-.66.648.648 0 00-.67.66c0 .386.294.66.67.66zm-.558 5.926h1.096v-5.195h-1.096v5.195zM202.233 32.315c-.335-.457-.894-.781-1.686-.781-1.412 0-2.457 1.055-2.457 2.658 0 1.665 1.045 2.66 2.457 2.66.822 0 1.361-.387 1.696-.843l.132.781h.954v-7.103h-1.096v2.628zm-1.503 3.613c-.914 0-1.513-.71-1.513-1.736 0-1.014.599-1.725 1.513-1.725.914 0 1.513.71 1.513 1.746 0 1.004-.599 1.715-1.513 1.715zM206.869 36.851c1.289 0 2.163-.781 2.345-1.806h-1.096c-.153.578-.64.913-1.31.913-.863 0-1.422-.578-1.452-1.461v-.071h3.919c.021-.142.031-.284.031-.416-.031-1.523-1.036-2.476-2.539-2.476-1.533 0-2.559 1.065-2.559 2.669 0 1.593 1.026 2.648 2.661 2.648zm-1.473-3.227c.081-.74.681-1.208 1.381-1.208.762 0 1.3.437 1.391 1.208h-2.772zM212.823 31.595c-.853 0-1.27.345-1.534.78l-.122-.78h-.975v5.195h1.097v-2.608c0-.802.315-1.563 1.29-1.563h.487v-1.024h-.243zM281.398 53.147c-2.079-.109-4.157-.218-6.235 0-1.094.108-2.079.326-2.954.978-.437.217-.766.543-1.094.978.11.109.219.109.438.109 1.859.543 3.719.869 5.579.76.875 0 1.75-.217 2.625-.652a3.586 3.586 0 001.859-1.739c.219-.326.11-.434-.218-.434zm52.834 0c-2.188-.218-4.266-.109-6.454 0-.219 0-.219.108-.219.326.219.434.547.87.875 1.195.985.87 2.188 1.196 3.501 1.304 1.75.109 3.5-.108 5.25-.543l.985-.326c-.11-.218-.219-.326-.328-.435-1.094-.978-2.298-1.413-3.61-1.521zm6.563-3.152c-.875.109-1.75.218-2.516.326-1.203.218-2.297.544-3.5.87-.219 0-.219.108-.11.326l.657.652c1.094.76 2.297.978 3.61.87a11.695 11.695 0 003.828-.979c.656-.326 1.203-.652 1.86-.87v-.108c-.11-.109-.329-.218-.438-.326-1.094-.652-2.297-.76-3.391-.76zm-66.179 1.63c.218-.217.109-.217-.11-.326-.547-.108-1.094-.326-1.64-.434-1.423-.327-2.845-.653-4.267-.761-1.093-.109-2.187 0-3.062.434-.329.11-.547.327-.876.544l.11.109c.109 0 .109.108.219.108 1.203.652 2.406 1.196 3.719 1.522 1.312.326 2.625.434 4.047 0 .656-.218 1.313-.544 1.86-1.196zm66.945-43.687c.109.108.219.108.328 0 .328-.544.547-1.196.547-1.74 0-.977-.328-1.847-.875-2.607-1.094-1.522-2.516-2.609-4.157-3.478-.219-.109-.328 0-.328.109 0 .326-.109.652-.109.978 0 1.087.437 1.956 1.093 2.825.985 1.413 2.298 2.609 3.501 3.913zm-73.837-.109c.547-.543.985-1.087 1.422-1.521.985-.978 1.86-1.957 2.407-3.043.547-.87.766-1.848.547-2.935 0-.326-.11-.434-.438-.217-1.531.87-2.953 1.848-3.938 3.26-.656.761-.984 1.74-.984 2.717 0 .544.219 1.196.547 1.739.219.326.219.326.437 0zm2.626-1.739c-.11.218-.11.326.109.326h.656c1.422 0 2.844-.326 4.048-.978 1.64-.76 2.953-1.956 3.938-3.369 0-.108 0-.108.109-.217-.109 0-.109-.109-.219-.109-.437 0-.875 0-1.312.109-2.188.217-4.048.978-5.689 2.39-.656.435-1.203 1.088-1.64 1.848zm59.835-4.13c1.203 1.63 2.734 2.935 4.594 3.696 1.312.543 2.625.76 3.938.652.328 0 .437-.11.219-.435-.547-.87-1.313-1.63-2.188-2.282-1.641-1.196-3.61-1.74-5.798-1.956h-.875v.217c.11 0 .11.109.11.109zm19.142 44.014c-.656-.217-1.203-.326-1.859-.326v-.109c-.657.11-1.313.218-1.969.326-.985.326-1.969.761-2.954 1.196-.656.326-1.312.652-1.969 1.087-.218.108-.218.217 0 .326.11.108.328.217.438.326 1.203.76 2.516.76 3.828.326 1.86-.544 3.282-1.522 4.704-2.826.109-.217.109-.217-.219-.326zm-82.587 3.37a4.064 4.064 0 001.969-.87c.109-.109.219-.218 0-.326-.219-.109-.328-.218-.547-.218-1.422-.76-2.954-1.521-4.485-1.956-1.203-.326-2.516-.435-3.719 0-.328.109-.328.218-.11.435a11.153 11.153 0 003.282 2.282c.875.435 1.86.652 2.844.76.328-.108.547-.108.766-.108zm78.978-37.277c.109.326.218.326.437.11.766-.762 1.094-1.631 1.094-2.718-.109-.435-.109-.87-.219-1.304-.547-1.739-1.641-3.152-2.953-4.347-.11-.109-.219-.109-.328.109-.11.434-.329.87-.438 1.304-.219 1.304.219 2.5.766 3.695.437 1.087 1.094 2.065 1.641 3.151zm-82.588.218c.109.108.219.108.328 0 .547-1.087 1.203-2.282 1.75-3.37.438-.977.766-1.955.766-2.933 0-.652-.109-1.305-.437-1.848-.219-.326-.219-.326-.438-.109-.875.652-1.531 1.522-2.078 2.5-.657 1.087-1.094 2.173-.985 3.478.11.869.438 1.63 1.094 2.282zm-2.735 5.107c.11-.108.11-.217.11-.325.437-1.413.765-2.826.875-4.348.109-1.086 0-2.064-.438-3.042-.109-.435-.328-.761-.765-1.087-.11.108-.219.108-.219.217-.219.435-.547.87-.766 1.413-.547 1.195-.984 2.39-.875 3.695 0 1.195.438 2.282 1.422 3.043.219.109.438.326.656.434zm88.276-.325c.109.325.109.325.438.217 1.531-.978 1.969-2.5 1.75-4.13-.11-1.087-.547-2.173-.985-3.26-.219-.435-.437-.87-.765-1.304h-.11l-.656.978c-.657 1.304-.766 2.608-.438 4.02.219 1.088.547 2.283.766 3.479zm-84.447 27.277c.219-.109.219-.217.109-.326-1.094-.978-2.187-1.956-3.391-2.717-1.094-.76-2.297-1.195-3.61-1.195h-.984c-.219.108-.328.108-.109.326.437.543.875 1.195 1.312 1.738.875.979 1.969 1.848 3.282 2.283 1.094.543 2.297.434 3.391-.109zm86.088-3.912c-.985.326-1.75.76-2.516 1.412-.875.761-1.75 1.413-2.625 2.174-.219.217-.219.217.109.326l.984.326c1.313.326 2.516 0 3.501-.652a11.673 11.673 0 003.281-3.26c.11-.109.219-.326.329-.435-.11 0-.11-.109-.219-.109-1.094-.217-1.969-.108-2.844.218zm.109-19.562v1.63c0 .326.11.435.438.218 1.422-.544 2.187-1.63 2.516-3.043.328-1.74.109-3.37-.438-5.108-.109-.326-.109-.326-.328-.109-.985.761-1.531 1.74-1.86 2.826-.328 1.195-.328 2.39-.328 3.586zm-90.463 18.801c.219 0 .547-.109.875-.217.328 0 .328-.11.109-.326-.328-.435-.656-.978-1.094-1.413-.765-.978-1.531-1.956-2.516-2.717-.984-.76-1.968-1.087-3.172-1.195-.219 0-.328.108-.219.326.547 1.521 1.313 2.825 2.407 4.02.984.979 2.078 1.522 3.61 1.522zm-1.532-16.953c.219.108.329.108.329-.218v-1.63c.109-1.304 0-2.608-.329-3.912-.328-.978-.875-1.848-1.64-2.5-.329-.217-.329-.217-.438.109-.219.76-.438 1.521-.547 2.282-.109 1.195-.109 2.282.328 3.369.328 1.195 1.094 2.065 2.297 2.5zm96.589 11.193c-1.093 0-2.187.435-3.062 1.087-.985.76-1.751 1.63-2.516 2.608-.438.544-.766 1.087-1.204 1.63-.109.218-.109.326.11.326.328.109.766.109.875.218 1.531 0 2.625-.544 3.61-1.522 1.094-1.087 1.859-2.5 2.406-3.912.11-.435 0-.435-.219-.435zm-99.87-7.281c.656.978 1.641 1.63 2.734 1.739.329.108.438 0 .329-.326-.219-1.087-.438-2.174-.766-3.26-.328-1.087-.766-2.174-1.641-3.044-.547-.543-1.094-.978-1.75-1.195v.326c-.11.978-.11 1.848 0 2.826.219 1.086.437 2.064 1.094 2.934zm96.589-1.739c-.328.978-.438 2.065-.656 3.043-.11.543-.11.543.437.435 1.422-.326 2.407-1.196 2.954-2.5.546-1.195.656-2.5.765-3.912 0-.326-.109-.652-.109-1.087 0-.217-.11-.217-.328-.217-.657.326-1.094.652-1.532 1.195-.765.87-1.203 1.956-1.531 3.043zm-93.308 9.238h.329c.218 0 .328-.11.218-.326-.547-1.305-1.094-2.5-1.75-3.695-.656-1.087-1.422-1.957-2.625-2.5-.328-.109-.766-.217-1.094-.326-.219-.109-.219 0-.219.217 0 .326.11.652.11.87.218 1.304.656 2.608 1.531 3.695.875 1.304 1.969 1.956 3.5 2.065zm93.855-4.347a25.06 25.06 0 00-1.969 3.803c-.219.544-.219.544.766.544.984 0 1.968-.544 2.844-1.413.656-.652.984-1.413 1.312-2.283.328-.977.657-1.847.766-2.934 0-.217-.109-.217-.219-.217h-.219c-1.422.435-2.516 1.304-3.281 2.5zm-24.612 23.147c.547-.217 1.203-.326 1.859-.543 1.094-.435 2.079-.978 2.954-1.848.765-.76 1.203-1.63 1.312-2.716-.109-.326-.109-.761-.218-1.087-.11-.218-.11-.326-.329-.109-.984.652-2.078 1.304-3.062 2.065-.876.652-1.641 1.413-2.188 2.282-.328.544-.547 1.087-.547 1.739 0 .217 0 .326.219.217zm-47.146-2.934a9.932 9.932 0 00-2.298-1.956 24.758 24.758 0 00-2.187-1.413c-.11-.108-.219-.108-.328.109-.219.76-.329 1.413 0 2.173.218.761.765 1.413 1.422 1.956 1.312.979 2.734 1.63 4.266 2.065.328.11.437.11.328-.434 0-.87-.547-1.74-1.203-2.5zm54.584.76c1.203-.76 2.297-1.52 2.953-2.716.766-1.304.876-2.608 0-4.021-.218-.217-.218-.326-.437 0-.438.435-.875.978-1.313 1.413-.766.978-1.641 1.956-1.969 3.26a4.433 4.433 0 000 2.39c.328 0 .547-.108.766-.325zm-61.038 0c.219.11.547.327.765.436.11-.218.11-.435.11-.544.109-1.195-.11-2.282-.766-3.26-.766-1.304-1.75-2.39-2.735-3.369-.109-.217-.328-.109-.437 0-.766 1.304-.875 2.608-.109 3.912.875 1.196 1.969 2.065 3.172 2.826zM338.498 9.46a6.835 6.835 0 002.844-.978c.219-.217.219-.217 0-.435-1.313-.76-2.844-1.304-4.375-1.412-1.204-.11-2.298.217-3.282.978-.328.217-.656.543-.766.87.11 0 .11 0 .11.108.656.217 1.312.326 1.969.434 1.093.327 2.297.544 3.5.435zm-62.46-1.413c-.985-1.086-2.297-1.521-3.719-1.412-1.313 0-2.626.434-3.829 1.086-.328.109-.547.326-.875.435v.109c.328.217.547.326.875.543 1.531.76 3.063.76 4.704.435.875-.109 1.75-.326 2.625-.544.656-.108.656-.108.219-.652zm64.32 39.884c.984-.978 1.859-2.065 2.297-3.369.547-1.521.218-2.934-.985-4.02-.219-.218-.328-.218-.437.108-.438.87-.875 1.63-1.204 2.5a6.532 6.532 0 00-.547 2.608c0 .76.219 1.521.547 2.173 0 .109.11.218.329 0zm-71.43 0c.218.218.218.109.328-.108.328-.652.547-1.413.547-2.391 0-.218-.11-.652-.219-1.087a12.929 12.929 0 00-1.641-3.804c-.109-.326-.219-.326-.437-.108-1.094 1.195-1.423 2.5-.985 4.02.547 1.522 1.422 2.609 2.407 3.478zm2.953-36.84c-.109-.11-.219-.11-.219-.218-1.203-.978-2.625-1.195-4.047-.87-1.532.327-2.735 1.196-3.829 2.283l-.218.217c.109.109.218.109.328.109 1.203.434 2.406.543 3.719.326 1.422-.326 2.735-.978 4.047-1.63l.219-.218zm72.414 1.956c.438-.11.985-.218 1.423-.435v-.109l-.219-.217c-1.094-.978-2.297-1.848-3.719-2.174-1.532-.434-2.845-.217-4.048.761-.109.109-.219.109-.328.217l.219.218c.875.434 1.641.76 2.516 1.195 1.312.435 2.734.87 4.156.543zm-.437 29.994c.219.326.437.652.766 1.087.109-.109.218-.218.218-.326.657-.978 1.094-2.174 1.313-3.37.219-1.63-.547-3.26-1.969-4.02-.219-.109-.328-.109-.328.108-.328 1.087-.547 2.174-.547 3.37-.219 1.195 0 2.173.547 3.15zm-79.306 1.087c.109 0 .109 0 .219.108.109-.108.109-.217.219-.326.875-1.086 1.312-2.282 1.203-3.586 0-1.195-.219-2.39-.547-3.586 0-.218-.109-.218-.328-.109-1.422.652-2.188 1.739-2.188 3.26 0 .87.219 1.63.547 2.391.219.652.547 1.196.875 1.848zm76.681-29.777c-.329.108-.329.217-.11.434.766.544 1.422 1.196 2.188 1.63 1.094.761 2.407 1.304 3.829 1.304.328 0 .765-.108 1.093-.108.329-.109.329-.109.11-.326-.657-.978-1.422-1.848-2.407-2.5-1.422-1.087-2.953-1.304-4.703-.434zm-73.181 0c-1.093-.652-2.297-.761-3.609-.326-1.204.434-2.188 1.304-3.063 2.282-.328.326-.547.76-.875 1.086.109 0 .109.11.219.11 1.203.216 2.297.108 3.5-.327 1.422-.543 2.625-1.521 3.828-2.608.219 0 .11-.109 0-.217zm-6.453 24.778c.984-.653 1.64-1.63 1.969-2.717.328-1.087.437-2.174.437-3.26v-.979c0-.217-.109-.217-.328-.217-.109 0-.219.109-.219.109-1.312.543-2.188 1.413-2.516 2.825-.437 1.413-.218 2.826.219 4.239.109.108.219.217.438 0zm85.869-.11c.109.11.218.218.437.327.11-.109.11-.217.11-.217.328-1.087.547-2.174.437-3.26-.109-1.848-1.094-3.152-2.844-3.804-.328-.109-.328-.109-.328.217 0 1.087 0 2.174.219 3.152.219 1.521.875 2.717 1.969 3.586zm-2.188-18.474c.984 1.195 2.297 2.065 3.829 2.282.437.109.765.109 1.203.109v-.217c-.438-1.305-1.094-2.5-2.079-3.37-1.203-1.086-2.625-1.412-4.266-.977-.328.108-.328.108-.109.434.437.544.875 1.196 1.422 1.74zm-79.743-1.956c.109-.109 0-.217-.11-.217-1.203-.326-2.406-.218-3.5.326-1.094.652-1.75 1.521-2.297 2.608-.219.434-.438.978-.657 1.521h.438c.875 0 1.641-.217 2.406-.543 1.532-.76 2.626-2.174 3.72-3.695zm85.212 9.563c-.218-.76-.328-1.521-.656-2.282-.547-1.413-1.531-2.5-3.063-2.934-.547-.217-1.203-.217-1.859-.109 0 .109 0 .218.109.326.547 1.196 1.094 2.391 1.969 3.37.875.977 1.86 1.63 3.172 1.955.328 0 .328 0 .328-.326zm-.765 5.543v-.87c-.11-.543-.11-1.086-.219-1.63 0-.326-.11-.543-.219-.87-.547-1.738-1.75-2.716-3.61-3.042-.328 0-.328 0-.328.326.219 1.195.547 2.282.985 3.369.547 1.304 1.531 2.173 2.844 2.826.437.217.547.217.547-.11zm-91.12-5.325c.984-.218 1.969-.761 2.735-1.413.875-.87 1.531-2.065 2.078-3.152.109-.326.219-.652.438-.978h-.219c-1.75-.108-3.172.544-4.157 2.065-.656.978-.984 2.174-1.203 3.369-.11.217 0 .217.328.109zm.656 5.542c.985-.434 1.75-.978 2.297-1.847.547-.761.875-1.63 1.204-2.5.218-.652.328-1.195.437-1.847.11-.326 0-.326-.328-.326-.109 0-.328.108-.438.108-1.203.326-2.078.978-2.734 2.065-.547.978-.766 2.174-.766 3.37v.869c.109.217.109.217.328.108zM276.832 25.842h2.699c1.714 0 2.638-.771 2.638-2.03 0-1.014-.65-1.512-1.492-1.643.741-.203 1.218-.71 1.218-1.553 0-1.167-.893-1.877-2.455-1.877h-2.608v7.103zm2.638-6.13c.812 0 1.258.387 1.258 1.016 0 .639-.457 1.024-1.258 1.024h-1.471v-2.04h1.471zm.071 3.005c.903 0 1.43.385 1.43 1.085 0 .66-.497 1.056-1.43 1.056h-1.542v-2.141h1.542zM285.546 25.903c1.289 0 2.161-.781 2.344-1.806h-1.096c-.152.578-.639.913-1.309.913-.862 0-1.42-.578-1.45-1.461v-.071h3.916c.02-.142.03-.285.03-.416-.03-1.523-1.035-2.477-2.536-2.477-1.532 0-2.557 1.066-2.557 2.67 0 1.593 1.025 2.648 2.658 2.648zm-1.471-3.227c.081-.74.68-1.208 1.38-1.208.761 0 1.298.437 1.39 1.208h-2.77zM288.614 24.127c.03 1.127.984 1.776 2.374 1.776 1.258 0 2.201-.63 2.201-1.624 0-1.157-.964-1.4-2.151-1.542-.75-.081-1.247-.142-1.247-.63 0-.415.426-.68 1.075-.68s1.096.336 1.156.813h1.076c-.071-1.066-.974-1.654-2.252-1.654-1.248-.01-2.131.629-2.131 1.613 0 1.076.934 1.33 2.12 1.471.802.102 1.279.142 1.279.7 0 .417-.447.68-1.126.68-.792 0-1.258-.385-1.299-.923h-1.075zM294.413 24.432c0 .943.427 1.41 1.421 1.41h1.014v-.964h-.771c-.416 0-.558-.152-.558-.558v-2.71h1.268v-.964h-1.268v-1.45h-1.106v1.45h-.902v.964h.902v2.822zM299.806 19.774h2.191v6.068h1.167v-6.068h2.191v-1.035h-5.549v1.035zM308.237 20.646c-.852 0-1.268.345-1.532.782l-.122-.782h-.974v5.196h1.096v-2.608c0-.802.314-1.563 1.288-1.563h.487v-1.025h-.243zM313.745 24.888c-.223 0-.335-.07-.335-.335v-2.08c0-1.228-.791-1.887-2.17-1.887-1.309 0-2.182.629-2.293 1.644h1.075c.081-.457.518-.762 1.167-.762.72 0 1.136.356 1.136.934v.315h-1.309c-1.45 0-2.221.598-2.221 1.664 0 .964.791 1.522 1.927 1.522.842 0 1.37-.365 1.715-.893 0 .517.243.832.953.832h.578v-.954h-.223zm-1.42-1.177c-.01.802-.538 1.34-1.451 1.34-.598 0-.963-.305-.963-.741 0-.528.375-.782 1.055-.782h1.359v.183zM318.472 21.367c-.335-.457-.893-.782-1.684-.782-1.41 0-2.455 1.056-2.455 2.66 0 1.663 1.045 2.658 2.455 2.658.822 0 1.359-.386 1.694-.842l.132.781h.954V18.74h-1.096v2.628zm-1.502 3.613c-.913 0-1.511-.71-1.511-1.736 0-1.014.598-1.725 1.511-1.725.913 0 1.512.71 1.512 1.746 0 1.004-.599 1.715-1.512 1.715zM321.196 19.916c.375 0 .67-.274.67-.66a.649.649 0 00-.67-.66.648.648 0 00-.669.66c0 .386.294.66.669.66zm-.558 5.926h1.096v-5.196h-1.096v5.196zM325.547 20.585c-.842 0-1.339.335-1.664.741l-.122-.68h-.953v5.196h1.095v-2.618c0-1.055.518-1.695 1.39-1.695.822 0 1.238.528 1.238 1.512v2.801h1.106V22.95c0-1.735-.944-2.364-2.09-2.364zM332.6 21.458c-.335-.517-.893-.872-1.705-.872-1.41 0-2.455 1.045-2.455 2.638 0 1.654 1.045 2.638 2.455 2.638.812 0 1.35-.334 1.694-.852v.578c0 .995-.537 1.451-1.491 1.451-.771 0-1.278-.334-1.41-.913h-1.116c.102 1.167 1.065 1.807 2.445 1.807 1.867 0 2.658-.893 2.658-2.304v-4.983h-.954l-.121.812zm-1.522 3.481c-.913 0-1.512-.7-1.512-1.715 0-1.005.599-1.715 1.512-1.715s1.511.71 1.511 1.735c0 .995-.598 1.695-1.511 1.695zM286.259 37.258h1.167v-2.577h1.633c1.481 0 2.455-.893 2.455-2.263 0-1.38-.974-2.263-2.455-2.263h-2.8v7.103zm2.708-6.088c.832 0 1.36.477 1.36 1.248 0 .761-.538 1.248-1.37 1.248h-1.531V31.17h1.541zM292.299 37.258h1.096v-7.103h-1.096v7.103zM299.217 36.304c-.223 0-.335-.07-.335-.334v-2.08c0-1.229-.791-1.888-2.171-1.888-1.309 0-2.181.629-2.293 1.644h1.076c.081-.457.517-.761 1.166-.761.721 0 1.137.355 1.137.933v.315h-1.309c-1.451 0-2.222.599-2.222 1.664 0 .964.791 1.522 1.928 1.522.842 0 1.369-.365 1.714-.893 0 .518.244.832.954.832h.578v-.954h-.223zm-1.42-1.177c-.011.802-.538 1.34-1.451 1.34-.599 0-.964-.305-.964-.74 0-.529.375-.782 1.055-.782h1.36v.182zM300.412 35.848c0 .944.426 1.41 1.42 1.41h1.015v-.964h-.771c-.416 0-.558-.152-.558-.558v-2.71h1.268v-.963h-1.268v-1.451h-1.106v1.45h-.903v.965h.903v2.82zM303.125 33.027h.903v4.231h1.106v-4.231h1.39v-.964h-1.41v-.437c0-.355.152-.507.507-.507h.903v-.964h-1.045c-1.005 0-1.451.487-1.451 1.42v.488h-.903v.964zM309.328 37.32c1.582 0 2.647-1.066 2.647-2.66 0-1.582-1.065-2.658-2.647-2.658-1.583 0-2.648 1.075-2.648 2.658 0 1.594 1.065 2.66 2.648 2.66zm0-.934c-.924 0-1.522-.72-1.522-1.726 0-1.004.598-1.725 1.522-1.725.923 0 1.531.72 1.531 1.725 0 1.005-.608 1.726-1.531 1.726zM315.484 32.063c-.852 0-1.268.345-1.532.781l-.122-.781h-.974v5.195h1.096V34.65c0-.801.314-1.562 1.288-1.562h.487v-1.025h-.243zM322.378 32.002c-.852 0-1.44.375-1.775.944-.315-.67-.923-.944-1.603-.944-.781.01-1.228.355-1.522.74l-.121-.68h-.954v5.196h1.096v-2.78c0-.924.466-1.532 1.217-1.532.72 0 1.096.477 1.096 1.39v2.922h1.105v-2.81c0-.934.477-1.502 1.228-1.502.71 0 1.085.477 1.085 1.39v2.922h1.096v-2.993c0-1.644-.872-2.263-1.948-2.263z" fill="#fff"/></svg>