<svg width="523" height="30" viewBox="0 0 523 30" fill="none" xmlns="http://www.w3.org/2000/svg"><path d="M.048 23H8.56c5.408 0 8.32-2.432 8.32-6.4 0-3.2-2.048-4.768-4.704-5.184 2.336-.64 3.84-2.24 3.84-4.896C16.016 2.84 13.2.6 8.272.6H.048V23zm8.32-19.328c2.56 0 3.968 1.216 3.968 3.2 0 2.016-1.44 3.232-3.968 3.232h-4.64V3.672h4.64zm.224 9.472c2.848 0 4.512 1.216 4.512 3.424 0 2.08-1.568 3.328-4.512 3.328H3.728v-6.752h4.864zm18.943 10.048c4.064 0 6.815-2.464 7.391-5.696H31.47c-.48 1.824-2.015 2.88-4.127 2.88-2.72 0-4.48-1.824-4.576-4.608v-.224h12.351c.064-.448.096-.896.096-1.312-.096-4.8-3.263-7.808-8-7.808-4.831 0-8.063 3.36-8.063 8.416 0 5.024 3.232 8.352 8.384 8.352zm-4.64-10.176c.256-2.336 2.143-3.808 4.352-3.808 2.4 0 4.096 1.376 4.384 3.808h-8.736zm31.589-6.4c-2.688 0-4 1.088-4.832 2.464l-.384-2.464h-3.072V23h3.456v-8.224c0-2.528.992-4.928 4.064-4.928h1.536V6.616h-.768zm9.894 16.576c4.064 0 6.816-2.464 7.392-5.696h-3.456c-.48 1.824-2.016 2.88-4.128 2.88-2.72 0-4.48-1.824-4.576-4.608v-.224h12.352c.064-.448.096-.896.096-1.312-.096-4.8-3.264-7.808-8-7.808-4.832 0-8.064 3.36-8.064 8.416 0 5.024 3.232 8.352 8.384 8.352zm-4.64-10.176c.256-2.336 2.144-3.808 4.352-3.808 2.4 0 4.096 1.376 4.384 3.808h-8.736zM78.066 23h3.744l3.584-11.136L88.85 23h3.712l5.44-16.384h-3.52L90.61 19.16 87.026 6.616h-3.168L80.114 19.16 76.37 6.616h-3.648L78.066 23zm36.044-3.008c-.704 0-1.056-.224-1.056-1.056v-6.56c0-3.872-2.496-5.952-6.848-5.952-4.128 0-6.88 1.984-7.233 5.184h3.393c.256-1.44 1.632-2.4 3.68-2.4 2.272 0 3.584 1.12 3.584 2.944v.992h-4.128c-4.576 0-7.008 1.888-7.008 5.248 0 3.04 2.496 4.8 6.08 4.8 2.656 0 4.32-1.152 5.408-2.816 0 1.632.768 2.624 3.008 2.624h1.824v-3.008h-.704zm-4.48-3.712c-.032 2.528-1.696 4.224-4.576 4.224-1.888 0-3.04-.96-3.04-2.336 0-1.664 1.184-2.464 3.328-2.464h4.288v.576zm15.354-9.664c-2.688 0-4 1.088-4.832 2.464l-.384-2.464h-3.072V23h3.456v-8.224c0-2.528.992-4.928 4.064-4.928h1.536V6.616h-.768zm14.566 2.272c-1.056-1.44-2.816-2.464-5.312-2.464-4.448 0-7.744 3.328-7.744 8.384 0 5.248 3.296 8.384 7.744 8.384 2.592 0 4.288-1.216 5.344-2.656l.416 2.464h3.008V.6h-3.456v8.288zm-4.736 11.392c-2.88 0-4.768-2.24-4.768-5.472 0-3.2 1.888-5.44 4.768-5.44s4.768 2.24 4.768 5.504c0 3.168-1.888 5.408-4.768 5.408zm19.346 2.912c4.064 0 6.816-2.464 7.392-5.696h-3.456c-.48 1.824-2.016 2.88-4.128 2.88-2.72 0-4.48-1.824-4.577-4.608v-.224h12.353c.064-.448.096-.896.096-1.312-.096-4.8-3.264-7.808-8-7.808-4.832 0-8.064 3.36-8.064 8.416 0 5.024 3.232 8.352 8.384 8.352zm-4.64-10.176c.256-2.336 2.144-3.808 4.352-3.808 2.4 0 4.096 1.376 4.384 3.808h-8.736zm27.562-4.128c-1.056-1.44-2.816-2.464-5.312-2.464-4.448 0-7.744 3.328-7.744 8.384 0 5.248 3.296 8.384 7.744 8.384 2.592 0 4.288-1.216 5.344-2.656L177.53 23h3.008V.6h-3.456v8.288zm-4.737 11.392c-2.879 0-4.767-2.24-4.767-5.472 0-3.2 1.888-5.44 4.767-5.44 2.881 0 4.769 2.24 4.769 5.504 0 3.168-1.888 5.408-4.769 5.408zM195.878 23h3.744l3.584-11.136L206.662 23h3.712l5.44-16.384h-3.52l-3.872 12.544-3.584-12.544h-3.168l-3.744 12.544-3.744-12.544h-3.648L195.878 23zm23.516-18.688c1.184 0 2.112-.864 2.112-2.08 0-1.216-.928-2.08-2.112-2.08-1.184 0-2.112.864-2.112 2.08 0 1.216.928 2.08 2.112 2.08zM217.634 23h3.456V6.616h-3.456V23zm8.027-4.448c0 2.976 1.344 4.448 4.48 4.448h3.2v-3.04h-2.432c-1.312 0-1.76-.48-1.76-1.76V9.656h4v-3.04h-4V2.04h-3.488v4.576h-2.848v3.04h2.848v8.896zm18.487-12.128c-2.56 0-4.128 1.152-5.152 2.56V.6h-3.456V23h3.456v-8.288c0-3.296 1.664-5.312 4.384-5.312 2.56 0 3.936 1.664 3.936 4.768V23h3.456v-9.12c0-5.472-2.976-7.456-6.624-7.456zM262.454 23h3.68v-5.92l3.872-4.352L277.046 23h4.448l-8.832-12.992L280.886.6h-4.48l-10.272 11.552V.6h-3.68V23zm29.351-16.576c-2.656 0-4.224 1.056-5.248 2.336l-.384-2.144h-3.008V23h3.456v-8.256c0-3.328 1.632-5.344 4.384-5.344 2.592 0 3.904 1.664 3.904 4.768V23h3.488v-9.12c0-5.472-2.976-7.456-6.592-7.456zm17.354 16.768c4.992 0 8.352-3.36 8.352-8.384 0-4.992-3.36-8.384-8.352-8.384-4.992 0-8.352 3.392-8.352 8.384 0 5.024 3.36 8.384 8.352 8.384zm0-2.944c-2.912 0-4.8-2.272-4.8-5.44 0-3.168 1.888-5.44 4.8-5.44s4.832 2.272 4.832 5.44c0 3.168-1.92 5.44-4.832 5.44zm18.651 2.944c4.192 0 6.976-2.336 7.616-6.048h-3.648c-.416 1.888-1.824 3.104-3.936 3.104-2.784 0-4.608-2.208-4.608-5.408 0-3.232 1.824-5.472 4.608-5.472 2.144 0 3.52 1.184 3.968 3.104h3.616c-.672-3.712-3.296-6.048-7.52-6.048-4.96 0-8.224 3.36-8.224 8.416 0 5.12 3.168 8.352 8.128 8.352zM338.071 23h3.456v-4.16l2.944-3.072L349.303 23h4.096l-6.56-9.76 6.176-6.624h-4.064l-7.424 7.936V.6h-3.456V23zm23.713.192c4.992 0 8.352-3.36 8.352-8.384 0-4.992-3.36-8.384-8.352-8.384-4.992 0-8.352 3.392-8.352 8.384 0 5.024 3.36 8.384 8.352 8.384zm0-2.944c-2.912 0-4.8-2.272-4.8-5.44 0-3.168 1.888-5.44 4.8-5.44s4.832 2.272 4.832 5.44c0 3.168-1.92 5.44-4.832 5.44zm22.363-5.44c0 3.392-1.6 5.376-4.224 5.376-2.528 0-3.808-1.632-3.808-4.832V6.616h-3.456v9.12c0 5.6 2.976 7.456 6.464 7.456 2.528 0 4.032-1.024 5.056-2.272l.384 2.08h3.04V6.616h-3.456v8.192zm8.139 3.744c0 2.976 1.344 4.448 4.48 4.448h3.2v-3.04h-2.432c-1.312 0-1.76-.48-1.76-1.76V9.656h4v-3.04h-4V2.04h-3.488v4.576h-2.848v3.04h2.848v8.896zM431.6 11.8c0-6.56-4.448-11.392-10.88-11.392S409.84 5.24 409.84 11.8s4.448 11.392 10.88 11.392S431.6 18.36 431.6 11.8zm-17.984 0c0-4.736 2.848-8.16 7.104-8.16s7.104 3.424 7.104 8.16c0 4.736-2.848 8.16-7.104 8.16s-7.104-3.424-7.104-8.16zm29.629-5.376c-2.56 0-4.256 1.184-5.344 2.624l-.416-2.432h-3.008V29.4h3.456v-8.704c1.024 1.472 2.784 2.496 5.312 2.496 4.48 0 7.744-3.328 7.744-8.384 0-5.248-3.264-8.384-7.744-8.384zm-.576 13.856c-2.88 0-4.768-2.272-4.768-5.536 0-3.168 1.888-5.376 4.768-5.376s4.8 2.208 4.8 5.44c0 3.2-1.92 5.472-4.8 5.472zm12.149-1.728c0 2.976 1.343 4.448 4.48 4.448h3.2v-3.04h-2.432c-1.312 0-1.76-.48-1.76-1.76V9.656h4v-3.04h-4V2.04h-3.488v4.576h-2.848v3.04h2.848v8.896zm11.638-14.24c1.184 0 2.112-.864 2.112-2.08 0-1.216-.928-2.08-2.112-2.08-1.184 0-2.112.864-2.112 2.08 0 1.216.928 2.08 2.112 2.08zM464.696 23h3.456V6.616h-3.456V23zm14.588.192c4.992 0 8.352-3.36 8.352-8.384 0-4.992-3.36-8.384-8.352-8.384-4.992 0-8.352 3.392-8.352 8.384 0 5.024 3.36 8.384 8.352 8.384zm0-2.944c-2.912 0-4.8-2.272-4.8-5.44 0-3.168 1.888-5.44 4.8-5.44s4.832 2.272 4.832 5.44c0 3.168-1.92 5.44-4.832 5.44zm19.771-13.824c-2.656 0-4.224 1.056-5.248 2.336l-.384-2.144h-3.008V23h3.456v-8.256c0-3.328 1.632-5.344 4.384-5.344 2.592 0 3.904 1.664 3.904 4.768V23h3.488v-9.12c0-5.472-2.976-7.456-6.592-7.456zm9.031 11.168c.096 3.552 3.104 5.6 7.488 5.6 3.968 0 6.944-1.984 6.944-5.12 0-3.648-3.04-4.416-6.784-4.864-2.368-.256-3.936-.448-3.936-1.984 0-1.312 1.344-2.144 3.392-2.144s3.456 1.056 3.648 2.56h3.392c-.224-3.36-3.072-5.216-7.104-5.216-3.936-.032-6.72 1.984-6.72 5.088 0 3.392 2.944 4.192 6.688 4.64 2.528.32 4.032.448 4.032 2.208 0 1.312-1.408 2.144-3.552 2.144-2.496 0-3.968-1.216-4.096-2.912h-3.392z" fill="#000"/></svg>