<svg width="66" height="7" viewBox="0 0 66 7" fill="none" xmlns="http://www.w3.org/2000/svg"><path d="M.357 5h.666V1.91L2.283 5h.582l1.26-3.09V5h.666V.8h-.876l-1.32 3.306L1.251.8H.357V5zm7.946-.564c-.132 0-.198-.042-.198-.198v-1.23c0-.726-.468-1.116-1.284-1.116-.774 0-1.29.372-1.356.972H6.1c.048-.27.306-.45.69-.45.426 0 .672.21.672.552v.186h-.774c-.858 0-1.314.354-1.314.984 0 .57.468.9 1.14.9.498 0 .81-.216 1.014-.528 0 .306.144.492.564.492h.342v-.564h-.132zm-.84-.696c-.006.474-.318.792-.858.792-.354 0-.57-.18-.57-.438 0-.312.222-.462.624-.462h.804v.108zM8.787 5h.648v-.78l.552-.576L10.893 5h.768l-1.23-1.83 1.159-1.242h-.762L9.434 3.416V.8h-.648V5zm4.453.036c.762 0 1.278-.462 1.386-1.068h-.648c-.09.342-.378.54-.774.54-.51 0-.84-.342-.858-.864v-.042h2.316a1.76 1.76 0 00.018-.246c-.018-.9-.612-1.464-1.5-1.464-.906 0-1.512.63-1.512 1.578 0 .942.606 1.566 1.572 1.566zm-.87-1.908c.048-.438.402-.714.816-.714.45 0 .768.258.822.714H12.37zm4.59 1.038c0 .558.253.834.84.834h.6v-.57h-.455c-.246 0-.33-.09-.33-.33V2.498h.75v-.57h-.75V1.07h-.654v.858h-.534v.57h.534v1.668zm3.467-2.274c-.48 0-.774.216-.966.48V.8h-.648V5h.648V3.446c0-.618.312-.996.822-.996.48 0 .738.312.738.894V5h.648V3.29c0-1.026-.558-1.398-1.242-1.398zm3.266 3.144c.762 0 1.278-.462 1.386-1.068h-.648c-.09.342-.378.54-.774.54-.51 0-.84-.342-.858-.864v-.042h2.316a1.76 1.76 0 00.018-.246c-.018-.9-.612-1.464-1.5-1.464-.906 0-1.512.63-1.512 1.578 0 .942.606 1.566 1.572 1.566zm-.87-1.908c.048-.438.402-.714.816-.714.45 0 .768.258.822.714h-1.638zm5.923-1.2c-.504 0-.75.204-.906.462l-.072-.462h-.576V5h.648V3.458c0-.474.186-.924.762-.924h.288v-.606h-.144zm.873-.432a.383.383 0 00.396-.39.383.383 0 00-.396-.39.383.383 0 00-.396.39c0 .228.174.39.396.39zM29.29 5h.648V1.928h-.648V5zm3.63-2.592c-.198-.306-.528-.516-1.008-.516-.834 0-1.452.618-1.452 1.56 0 .978.618 1.56 1.452 1.56.48 0 .798-.198 1.002-.504v.342c0 .588-.318.858-.882.858-.456 0-.756-.198-.834-.54h-.66c.06.69.63 1.068 1.446 1.068 1.104 0 1.572-.528 1.572-1.362V1.928h-.564l-.072.48zm-.9 2.058c-.54 0-.894-.414-.894-1.014 0-.594.354-1.014.894-1.014s.894.42.894 1.026c0 .588-.354 1.002-.894 1.002zm3.783-2.574c-.48 0-.774.216-.966.48V.8h-.648V5h.648V3.446c0-.618.312-.996.822-.996.48 0 .738.312.738.894V5h.648V3.29c0-1.026-.558-1.398-1.242-1.398zm2.053 2.274c0 .558.252.834.84.834h.6v-.57h-.456c-.246 0-.33-.09-.33-.33V2.498h.75v-.57h-.75V1.07h-.654v.858h-.534v.57h.534v1.668zm5.722-1.812c-.198-.27-.528-.462-.996-.462-.834 0-1.452.624-1.452 1.572 0 .984.618 1.572 1.452 1.572.486 0 .804-.228 1.002-.498L43.66 5h.564V.8h-.648v1.554zm-.888 2.136c-.54 0-.894-.42-.894-1.026 0-.6.354-1.02.894-1.02s.894.42.894 1.032c0 .594-.354 1.014-.894 1.014zm3.627.546c.762 0 1.278-.462 1.386-1.068h-.648c-.09.342-.378.54-.774.54-.51 0-.84-.342-.858-.864v-.042h2.316a1.76 1.76 0 00.018-.246c-.018-.9-.612-1.464-1.5-1.464-.906 0-1.512.63-1.512 1.578 0 .942.606 1.566 1.572 1.566zm-.87-1.908c.048-.438.402-.714.816-.714.45 0 .768.258.822.714h-1.638zm4.244 1.908c.786 0 1.308-.438 1.428-1.134h-.684c-.078.354-.342.582-.738.582-.522 0-.864-.414-.864-1.014 0-.606.342-1.026.864-1.026.402 0 .66.222.744.582h.678c-.126-.696-.618-1.134-1.41-1.134-.93 0-1.542.63-1.542 1.578 0 .96.594 1.566 1.524 1.566zm2.254-3.54a.383.383 0 00.396-.39.383.383 0 00-.396-.39.383.383 0 00-.396.39c0 .228.174.39.396.39zM51.614 5h.648V1.928h-.648V5zm1.15-1.014c.019.666.583 1.05 1.405 1.05.744 0 1.302-.372 1.302-.96 0-.684-.57-.828-1.272-.912-.444-.048-.738-.084-.738-.372 0-.246.252-.402.636-.402s.648.198.684.48h.636c-.042-.63-.576-.978-1.332-.978-.738-.006-1.26.372-1.26.954 0 .636.552.786 1.254.87.474.06.756.084.756.414 0 .246-.264.402-.666.402-.468 0-.744-.228-.768-.546h-.636zm3.539-2.49a.383.383 0 00.396-.39.383.383 0 00-.396-.39.383.383 0 00-.396.39c0 .228.174.39.396.39zM55.973 5h.648V1.928h-.648V5zm2.735.036c.936 0 1.566-.63 1.566-1.572 0-.936-.63-1.572-1.566-1.572s-1.566.636-1.566 1.572c0 .942.63 1.572 1.566 1.572zm0-.552c-.546 0-.9-.426-.9-1.02 0-.594.354-1.02.9-1.02s.906.426.906 1.02c0 .594-.36 1.02-.906 1.02zm3.707-2.592c-.498 0-.792.198-.984.438l-.072-.402h-.564V5h.648V3.452c0-.624.306-1.002.822-1.002.486 0 .732.312.732.894V5h.654V3.29c0-1.026-.558-1.398-1.236-1.398zm1.766 2.736c0 .24.174.408.414.408s.42-.168.42-.408c0-.24-.18-.408-.42-.408a.395.395 0 00-.414.408z" fill="#000"/></svg>