<svg width="41" height="14" viewBox="0 0 41 14" fill="none" xmlns="http://www.w3.org/2000/svg"><rect y=".848" width="41" height="13" rx="6.5" fill="#000"/><path d="M4.724 8.564c.028.774.589 1.317 1.547 1.317.824 0 1.396-.476 1.396-1.154 0-.763-.656-.976-1.295-1.082-.588-.101-1.065-.196-1.065-.667 0-.42.342-.645.852-.645.533 0 .897.297.953.751h.505c-.045-.706-.583-1.194-1.458-1.194-.796 0-1.34.449-1.34 1.116 0 .762.65.97 1.284 1.076.594.1 1.076.202 1.076.69 0 .425-.375.666-.902.666-.6 0-1.01-.347-1.048-.874h-.505zm3.708.538c0 .505.196.746.745.746h.5v-.42h-.455c-.246 0-.33-.09-.33-.331V7.409h.74v-.42h-.74v-.802h-.46v.802h-.516v.42h.516v1.693zm4.127.325c-.13 0-.185-.039-.185-.19v-1.25c0-.667-.42-1.032-1.15-1.032-.689 0-1.143.33-1.21.891h.46c.056-.291.325-.482.728-.482.449 0 .712.225.712.595v.196h-.84c-.752 0-1.15.32-1.15.891 0 .521.426.835 1.054.835.493 0 .78-.218.959-.476.005.28.134.443.515.443h.252v-.42h-.145zm-.645-.745c0 .476-.33.807-.902.807-.382 0-.623-.19-.623-.471 0-.325.23-.476.64-.476h.885v.14zm2.467-1.693c-.51 0-.729.213-.864.431l-.061-.431h-.398v2.859h.46V8.39c0-.454.162-.953.762-.953h.23V6.99h-.13zm.833 2.113c0 .505.196.746.746.746h.499v-.42h-.454c-.247 0-.331-.09-.331-.331V7.409h.74v-.42h-.74v-.802h-.46v.802h-.516v.42h.516v1.693zm3.323 0c0 .505.196.746.745.746h.5v-.42h-.455c-.246 0-.33-.09-.33-.331V7.409h.74v-.42h-.74v-.802h-.46v.802h-.516v.42h.516v1.693zm2.966-2.113c-.51 0-.73.213-.864.431l-.061-.431h-.398v2.859h.46V8.39c0-.454.162-.953.762-.953h.23V6.99h-.13zm2.956 2.438c-.128 0-.184-.039-.184-.19v-1.25c0-.667-.42-1.032-1.15-1.032-.69 0-1.143.33-1.21.891h.46c.055-.291.324-.482.728-.482.448 0 .712.225.712.595v.196h-.841c-.751 0-1.15.32-1.15.891 0 .521.427.835 1.055.835.493 0 .779-.218.958-.476.006.28.135.443.516.443h.252v-.42h-.146zm-.644-.745c0 .476-.33.807-.903.807-.38 0-.622-.19-.622-.471 0-.325.23-.476.64-.476h.885v.14zm3.364-1.256c-.174-.275-.499-.47-.98-.47-.791 0-1.374.588-1.374 1.462 0 .93.583 1.463 1.373 1.463.482 0 .79-.23.981-.493l.062.46h.398V5.924h-.46v1.502zm-.936 2.046c-.566 0-.947-.432-.947-1.054 0-.622.38-1.054.947-1.054.56 0 .942.438.942 1.065 0 .611-.381 1.043-.942 1.043zM28.5 6.507a.289.289 0 00.297-.297.289.289 0 00-.297-.297.289.289 0 00-.297.297c0 .173.13.297.297.297zm-.235 3.34h.46V6.99h-.46v2.859zm2.49-2.892c-.481 0-.773.202-.941.42l-.062-.386h-.398v2.859h.46v-1.43c0-.644.325-1.042.863-1.042.5 0 .774.314.774.908v1.564h.46V8.256c0-.948-.51-1.3-1.155-1.3zm3.995.527c-.18-.32-.5-.527-.981-.527-.79 0-1.373.589-1.373 1.463 0 .93.582 1.463 1.373 1.463.482 0 .79-.202.98-.527v.337c0 .622-.324.902-.924.902-.477 0-.796-.202-.875-.56h-.47c.073.628.583.97 1.311.97.981 0 1.419-.472 1.419-1.295v-2.72h-.398l-.062.494zm-.936 1.99c-.566 0-.948-.432-.948-1.054 0-.622.382-1.054.948-1.054.56 0 .941.438.941 1.065 0 .611-.38 1.043-.941 1.043z" fill="#fff"/></svg>