<svg width="116" height="56" viewBox="0 0 116 56" fill="none" xmlns="http://www.w3.org/2000/svg"><path d="M1.314 12.99h1.984V3.789L7.05 12.99h1.733l3.752-9.203v9.203h1.984V.48h-2.609L7.98 10.329 3.977.482H1.314V12.99zm23.663-1.68c-.393 0-.59-.124-.59-.589V7.058c0-2.162-1.393-3.324-3.824-3.324-2.305 0-3.842 1.108-4.038 2.895h1.894c.143-.804.911-1.34 2.055-1.34 1.269 0 2.002.625 2.002 1.644v.554H20.17c-2.555 0-3.913 1.054-3.913 2.93 0 1.698 1.394 2.68 3.395 2.68 1.483 0 2.412-.643 3.02-1.572 0 .912.429 1.466 1.68 1.466h1.018v-1.68h-.393zm-2.502-2.072c-.017 1.412-.947 2.359-2.555 2.359-1.054 0-1.698-.536-1.698-1.305 0-.93.662-1.376 1.859-1.376h2.395v.322zm3.553.732c.054 1.984 1.734 3.128 4.182 3.128 2.216 0 3.878-1.108 3.878-2.86 0-2.037-1.698-2.465-3.789-2.716-1.322-.143-2.198-.25-2.198-1.108 0-.732.75-1.197 1.895-1.197 1.143 0 1.93.59 2.037 1.43h1.894c-.125-1.877-1.716-2.913-3.967-2.913-2.198-.018-3.753 1.108-3.753 2.841 0 1.894 1.644 2.341 3.735 2.591 1.412.18 2.252.25 2.252 1.233 0 .733-.787 1.198-1.984 1.198-1.394 0-2.216-.68-2.287-1.627h-1.894zm10.217.537c0 1.662.75 2.484 2.501 2.484h1.787v-1.698h-1.358c-.732 0-.983-.268-.983-.983V5.539h2.234V3.84h-2.234V1.286h-1.947V3.84h-1.59V5.54h1.59v4.968zm9.666 2.59c2.27 0 3.806-1.375 4.128-3.18h-1.93c-.268 1.018-1.126 1.608-2.305 1.608-1.519 0-2.502-1.018-2.555-2.573v-.125h6.897c.036-.25.054-.5.054-.733-.054-2.68-1.823-4.36-4.467-4.36-2.699 0-4.504 1.876-4.504 4.7 0 2.805 1.805 4.664 4.682 4.664zm-2.59-5.682c.142-1.304 1.197-2.126 2.43-2.126 1.34 0 2.287.768 2.448 2.126H43.32zm13.068-3.574c-1.502 0-2.234.608-2.699 1.376l-.214-1.376H51.76v9.15h1.93V8.398c0-1.412.554-2.752 2.27-2.752h.857V3.841h-.428zm6.852 6.666c0 1.662.75 2.484 2.502 2.484h1.787v-1.698h-1.358c-.733 0-.983-.268-.983-.983V5.539h2.234V3.84h-2.234V1.286H63.24V3.84h-1.59V5.54h1.59v4.968zm10.323-6.773c-1.43 0-2.305.643-2.877 1.43V.482h-1.93V12.99h1.93V8.363c0-1.84.93-2.966 2.448-2.966 1.43 0 2.198.93 2.198 2.662v4.933h1.93V7.898c0-3.056-1.662-4.164-3.699-4.164zm9.727 9.364c2.27 0 3.806-1.376 4.128-3.181h-1.93c-.268 1.018-1.126 1.608-2.305 1.608-1.52 0-2.502-1.018-2.555-2.573v-.125h6.897c.036-.25.054-.5.054-.733-.054-2.68-1.823-4.36-4.468-4.36-2.698 0-4.503 1.876-4.503 4.7 0 2.805 1.805 4.664 4.682 4.664zM80.7 7.415c.143-1.304 1.197-2.126 2.43-2.126 1.34 0 2.288.768 2.448 2.126H80.7zM1.314 32.99h1.984v-9.202L7.05 32.99h1.733l3.752-9.202v9.202h1.984V20.482h-2.609L7.98 30.328l-4.003-9.846H1.314V32.99zm23.663-1.68c-.393 0-.59-.124-.59-.589v-3.663c0-2.163-1.393-3.324-3.824-3.324-2.305 0-3.842 1.108-4.038 2.895h1.894c.143-.804.911-1.34 2.055-1.34 1.269 0 2.002.625 2.002 1.644v.554H20.17c-2.555 0-3.913 1.054-3.913 2.93 0 1.698 1.394 2.68 3.395 2.68 1.483 0 2.412-.643 3.02-1.572 0 .912.429 1.465 1.68 1.465h1.018v-1.68h-.393zm-2.502-2.072c-.017 1.412-.947 2.359-2.555 2.359-1.054 0-1.698-.536-1.698-1.305 0-.93.662-1.376 1.859-1.376h2.395v.322zm8.575-5.397c-1.501 0-2.234.608-2.698 1.376l-.215-1.376h-1.715v9.15h1.93v-4.593c0-1.412.553-2.752 2.269-2.752h.858v-1.805h-.43zm1.619 9.15h1.93v-2.324l1.644-1.715 2.698 4.038h2.288l-3.664-5.45 3.45-3.699h-2.27l-4.146 4.432v-7.791h-1.93V32.99zm13.26.107c2.27 0 3.806-1.376 4.128-3.181h-1.93c-.268 1.018-1.126 1.608-2.306 1.608-1.518 0-2.501-1.018-2.555-2.573v-.125h6.898c.036-.25.053-.5.053-.733-.053-2.68-1.822-4.36-4.467-4.36-2.698 0-4.503 1.876-4.503 4.7 0 2.805 1.805 4.664 4.682 4.664zm-2.591-5.683c.143-1.304 1.197-2.126 2.43-2.126 1.34 0 2.287.768 2.448 2.126h-4.878zm9.031 3.092c0 1.662.75 2.483 2.502 2.483h1.787v-1.697H55.3c-.733 0-.983-.268-.983-.983v-4.771h2.234V23.84h-2.234v-2.555h-1.948v2.555h-1.59v1.698h1.59v4.968zm10.285 2.483h2.055v-5.289h4.897v-1.77h-4.897v-3.627h5.933v-1.822h-7.988V32.99zm13.028.108c2.788 0 4.664-1.877 4.664-4.682 0-2.788-1.876-4.682-4.664-4.682s-4.664 1.894-4.664 4.682c0 2.805 1.876 4.682 4.664 4.682zm0-1.644c-1.626 0-2.68-1.27-2.68-3.038 0-1.77 1.054-3.038 2.68-3.038 1.626 0 2.698 1.269 2.698 3.038s-1.072 3.038-2.698 3.038zm10.844-7.613c-1.5 0-2.233.608-2.698 1.376l-.215-1.376h-1.715v9.15h1.93v-4.593c0-1.412.554-2.752 2.27-2.752h.857v-1.805h-.429zm5.383 9.257c2.34 0 3.895-1.305 4.252-3.378h-2.037c-.232 1.055-1.018 1.734-2.198 1.734-1.554 0-2.573-1.233-2.573-3.02 0-1.805 1.019-3.056 2.573-3.056 1.198 0 1.966.661 2.216 1.733h2.02c-.376-2.073-1.841-3.377-4.2-3.377-2.77 0-4.592 1.876-4.592 4.7 0 2.859 1.769 4.664 4.538 4.664zm10.072 0c2.269 0 3.806-1.376 4.128-3.181h-1.93c-.268 1.018-1.126 1.608-2.305 1.608-1.519 0-2.502-1.018-2.556-2.573v-.125h6.898c.036-.25.054-.5.054-.733-.054-2.68-1.823-4.36-4.468-4.36-2.698 0-4.503 1.876-4.503 4.7 0 2.805 1.805 4.664 4.682 4.664zm-2.591-5.683c.143-1.304 1.197-2.126 2.43-2.126 1.34 0 2.287.768 2.448 2.126H99.39zm7.994 2.556c.054 1.983 1.734 3.127 4.182 3.127 2.216 0 3.878-1.108 3.878-2.86 0-2.037-1.698-2.465-3.789-2.716-1.322-.143-2.198-.25-2.198-1.108 0-.732.751-1.197 1.895-1.197 1.143 0 1.929.59 2.037 1.43h1.894c-.125-1.877-1.716-2.913-3.967-2.913-2.198-.018-3.753 1.108-3.753 2.841 0 1.894 1.644 2.341 3.735 2.591 1.412.18 2.252.25 2.252 1.233 0 .733-.787 1.198-1.984 1.198-1.394 0-2.216-.68-2.287-1.627h-1.895zM3.258 51.99h.928l2.53-7.187L9.13 51.99h.927l3.037-8.553h-.877l-2.632 7.524-2.446-7.523h-.793L3.764 50.96l-2.497-7.523h-.91l2.9 8.552zm11.477-10.358a.594.594 0 00.607-.608.594.594 0 00-.607-.607.594.594 0 00-.607.607c0 .354.27.608.607.608zm-.438 10.357h.86v-8.553h-.86v8.553zM17.82 50c0 1.366.557 1.99 2.008 1.99h1.248v-.792h-1.18c-.895 0-1.215-.338-1.215-1.215V44.23h2.311v-.792h-2.311v-2.396h-.86v2.395H16.2v.793h1.62V50zm8.513-6.664c-1.603 0-2.598.894-3.087 2.126v-5.28h-.86V51.99h.86v-4.217c0-2.227 1.13-3.644 2.952-3.644 1.636 0 2.648 1.08 2.648 3.104v4.758h.86V47.2c0-2.7-1.433-3.864-3.373-3.864zm15.037 8.756c2.53 0 4.319-1.367 4.825-3.745h-.962c-.506 1.889-1.872 2.901-3.88 2.901-2.733 0-4.453-2.142-4.453-5.162s1.754-5.162 4.487-5.162c1.974 0 3.357 1.029 3.88 2.885h.962c-.523-2.362-2.312-3.728-4.791-3.728-3.324 0-5.483 2.462-5.483 6.005 0 3.577 2.109 6.006 5.415 6.006zm7.022-10.46a.594.594 0 00.607-.607.594.594 0 00-.607-.607.594.594 0 00-.607.607c0 .354.27.608.607.608zm-.439 10.358h.86v-8.553h-.86v8.553zM51.477 50c0 1.366.557 1.99 2.008 1.99h1.248v-.792h-1.18c-.895 0-1.215-.338-1.215-1.215V44.23h2.311v-.792h-2.311v-2.396h-.86v2.395h-1.62v.793h1.62V50zm7.13 1.99l-.557 1.384c-.388.944-.54 1.197-1.417 1.197h-1.08v.793h1.316c1.147 0 1.417-.438 1.957-1.788l4.1-10.139h-.929l-2.918 7.44-2.97-7.44h-.927l3.425 8.553zm10.224 0h.911V40.182h-.91V51.99zm7.09-8.654c-1.57 0-2.582.81-3.07 1.924l-.136-1.822h-.742v8.552h.86v-4.217c0-2.227 1.13-3.644 2.953-3.644 1.653 0 2.648 1.08 2.648 3.104v4.758h.86V47.2c0-2.7-1.433-3.864-3.373-3.864zm12.13 2.025c-.523-1.215-1.67-2.025-3.273-2.025-2.345 0-4.032 1.788-4.032 4.37 0 2.699 1.687 4.386 4.032 4.386 1.603 0 2.716-.86 3.256-2.058l.135 1.956h.742V40.182h-.86v5.179zm-3.205 5.955c-1.907 0-3.222-1.485-3.222-3.61 0-2.11 1.315-3.61 3.222-3.61 1.906 0 3.222 1.5 3.222 3.626 0 2.11-1.316 3.594-3.222 3.594zm9.868.776c1.872 0 3.306-1.215 3.677-2.936h-.877c-.337 1.333-1.468 2.16-2.868 2.16-1.906 0-3.104-1.451-3.137-3.442v-.152h6.984c0-.118.017-.253.017-.354-.085-2.547-1.654-4.032-3.948-4.032-2.345 0-3.947 1.788-3.947 4.319 0 2.682 1.67 4.437 4.099 4.437zm-3.138-5.095c.135-1.737 1.434-2.901 3.003-2.901 1.67 0 2.868 1.029 3.003 2.901h-6.006zm7.427 4.993h.995l2.834-3.762 2.834 3.762h1.046l-3.323-4.369 3.154-4.184h-.978l-2.699 3.543-2.666-3.542h-1.029l3.155 4.183-3.323 4.37z" fill="#000"/></svg>