<svg width="191" height="19" viewBox="0 0 191 19" fill="none" xmlns="http://www.w3.org/2000/svg"><path d="M.6 18h2.875v-7.4h6.85V8.125h-6.85V3.05h8.3V.5H.6V18zM13.025 3.05h5.4V18H21.3V3.05h5.4V.5H13.025v2.55zm14.243 9.2c.1 3.5 2.725 5.9 7.075 5.9 3.85 0 6.475-2.175 6.475-5.325.025-3.45-2.8-4.375-5.7-4.9-2.75-.475-4.55-.85-4.55-2.65 0-1.65 1.375-2.5 3.35-2.5 2.125 0 3.525 1.2 3.75 2.975h2.875c-.125-3.225-2.625-5.4-6.625-5.4-3.725 0-6.225 2.075-6.225 5.125 0 3.475 2.75 4.4 5.65 4.9 2.775.5 4.6.9 4.6 2.75 0 1.675-1.5 2.6-3.575 2.6-2.45 0-4.05-1.375-4.2-3.425l-2.9-.05zM43.35 18h11.725v-2.55h-8.85v-5.075h7.05V7.9h-7.05V3.05h8.55V.5H43.349V18zM66.382 2.275c0 .925-.375 1.575-1.275 1.575h-2.725v2.375h2.85c.475 0 .85-.075 1.1-.225v12h2.775V.5h-2.725v1.775zm5.322 7.375c0 5.275 2.825 8.5 6.9 8.5s6.9-3.225 6.9-8.5v-.8c0-5.075-2.826-8.5-6.9-8.5-4.076 0-6.9 3.425-6.9 8.5v.8zm11-.1c0 3.925-1.65 6.175-4.1 6.175-2.45 0-4.1-2.25-4.1-6.175v-.6c0-3.9 1.65-6.175 4.1-6.175 2.45 0 4.1 2.275 4.1 6.175v.6zm4.747.1c0 5.275 2.825 8.5 6.9 8.5s6.9-3.225 6.9-8.5v-.8c0-5.075-2.825-8.5-6.9-8.5s-6.9 3.425-6.9 8.5v.8zm11-.1c0 3.925-1.65 6.175-4.1 6.175-2.45 0-4.1-2.25-4.1-6.175v-.6c0-3.9 1.65-6.175 4.1-6.175 2.45 0 4.1 2.275 4.1 6.175v.6zm10.193-1.975h2.225V18h2.725V7.575h3.425V5.2h-3.475V4.125c0-.875.375-1.25 1.25-1.25h2.225V.5h-2.575c-2.475 0-3.575 1.2-3.575 3.5v1.2h-2.225v2.375zm15.285 10.575c3.9 0 6.525-2.625 6.525-6.55 0-3.9-2.625-6.55-6.525-6.55-3.9 0-6.525 2.65-6.525 6.55 0 3.925 2.625 6.55 6.525 6.55zm0-2.3c-2.275 0-3.75-1.775-3.75-4.25s1.475-4.25 3.75-4.25 3.775 1.775 3.775 4.25-1.5 4.25-3.775 4.25zM139.1 5.2c-2.1 0-3.125.85-3.775 1.925l-.3-1.925h-2.4V18h2.7v-6.425c0-1.975.775-3.85 3.175-3.85h1.2V5.2h-.6zm8.662 12.8h2.7V.5h-2.7V18zm11.421.15c3.175 0 5.325-1.925 5.775-4.45h-2.7c-.375 1.425-1.575 2.25-3.225 2.25-2.125 0-3.5-1.425-3.575-3.6v-.175h9.65c.05-.35.075-.7.075-1.025-.075-3.75-2.55-6.1-6.25-6.1-3.775 0-6.3 2.625-6.3 6.575 0 3.925 2.525 6.525 6.55 6.525zm-3.625-7.95c.2-1.825 1.675-2.975 3.4-2.975 1.875 0 3.2 1.075 3.425 2.975h-6.825zm11.185 3.575c.075 2.775 2.425 4.375 5.85 4.375 3.1 0 5.425-1.55 5.425-4 0-2.85-2.375-3.45-5.3-3.8-1.85-.2-3.075-.35-3.075-1.55 0-1.025 1.05-1.675 2.65-1.675 1.6 0 2.7.825 2.85 2h2.65c-.175-2.625-2.4-4.075-5.55-4.075-3.075-.025-5.25 1.55-5.25 3.975 0 2.65 2.3 3.275 5.225 3.625 1.975.25 3.15.35 3.15 1.725 0 1.025-1.1 1.675-2.775 1.675-1.95 0-3.1-.95-3.2-2.275h-2.65zm12.573 0c.075 2.775 2.425 4.375 5.85 4.375 3.1 0 5.425-1.55 5.425-4 0-2.85-2.375-3.45-5.3-3.8-1.85-.2-3.075-.35-3.075-1.55 0-1.025 1.05-1.675 2.65-1.675 1.6 0 2.7.825 2.85 2h2.65c-.175-2.625-2.4-4.075-5.55-4.075-3.075-.025-5.25 1.55-5.25 3.975 0 2.65 2.3 3.275 5.225 3.625 1.975.25 3.15.35 3.15 1.725 0 1.025-1.1 1.675-2.775 1.675-1.95 0-3.1-.95-3.2-2.275h-2.65z" fill="#000"/></svg>