<svg width="111" height="36" viewBox="0 0 111 36" fill="none" xmlns="http://www.w3.org/2000/svg"><g clip-path="url(#clip0_109_248)"><path fill="#fff" d="M0 0h111v36H0z"/><path d="M7.327 24.47c-2.95 0-4.907-.503-6.366-1.14L.1 18.235h.63l.63 1.206c1.492 2.883 3.316 4.157 6.233 4.157 3.349 0 5.239-1.676 5.239-4.425 0-2.447-1.393-3.687-5.371-5.095C2.95 12.503.696 10.76.696 6.838.696 2.849 4.244 0 8.653 0c2.752 0 4.343.369 5.868 1.006l.83 5.296h-.664l-.596-1.24C12.73 2.178 11.007.871 8.387.871c-2.752 0-4.376 1.675-4.376 4.055 0 2.48 1.326 3.587 5.105 4.894 4.973 1.676 7.062 3.587 7.062 7.475.033 4.257-4.045 7.173-8.852 7.173zM28.148 22.391c-1.393 1.207-2.818 2.011-4.609 2.011-2.652 0-4.044-1.207-4.044-4.09V9.185H17.04v-.637l2.62-1.005 2.585-5.23h1.061v5.364h4.443v1.508h-4.443v11.062c0 1.642.796 2.447 2.09 2.447.894 0 1.491-.235 2.32-.838l.43.536zM37.464 24.536c-4.807 0-8.355-3.084-8.355-8.815 0-4.86 3.448-8.581 8.388-8.581 4.775 0 8.355 3.083 8.355 8.815-.033 4.86-3.514 8.581-8.388 8.581zM37 8.011c-2.354 0-3.68 1.81-3.68 6.738 0 5.396 1.724 8.916 4.575 8.916 2.387 0 3.68-1.81 3.68-6.738 0-5.396-1.69-8.916-4.575-8.916zM66.242 24.168c-.763 0-2.719-.034-4.21-.034-1.46 0-3.415.034-4.244.034v-.537l.563-.1c1.492-.268 1.757-.738 1.757-3.788v-6.57c0-2.547-1.094-3.788-3.05-3.788-1.36 0-2.486.537-3.48 1.274v9.084c0 3.084.231 3.52 1.756 3.788l.564.1v.537c-.829 0-2.752-.034-4.244-.034s-3.448.034-4.244.034v-.537l.664-.1c1.392-.201 1.657-.738 1.657-4.09v-7.24c0-1.81-.298-2.313-1.525-2.883l-.829-.402v-.369l5.77-1.273.463.301v2.347c1.824-1.576 3.515-2.615 5.67-2.615 3.083 0 4.707 1.676 4.707 5.196v7.039c0 3.419.266 3.821 1.691 4.09l.597.1-.033.436zM71.05 14.28v.234c.099 4.76 2.652 7.71 6.1 7.71 1.89 0 3.216-.704 4.608-2.112l.464.335c-1.79 2.514-4.11 4.09-7.095 4.09-4.376 0-7.658-3.017-7.658-8.213 0-5.598 4.177-9.15 8.189-9.15 4.442 0 6.597 2.513 6.697 7.139l-11.306-.034zm7.26-.94c-.1-3.519-1.36-5.295-3.349-5.295-2.254 0-3.68 1.944-3.912 5.296h7.261zM106.591 24.168c-.597 0-3.581-.067-4.742-.067-1.226 0-4.94.067-5.57.067v-.47l1.062-.167c1.027-.168 1.458-.436 1.458-1.073 0-.536-.331-1.207-1.06-2.346l-3.714-5.732-3.713 5.162c-.862 1.207-1.26 2.112-1.26 2.782 0 .67.398 1.073 1.426 1.24l1.094.168v.47c-.597 0-3.25-.068-4.443-.068-1.194 0-3.083.067-3.713.067v-.503l.563-.1c1.492-.268 2.885-1.542 4.012-2.983l5.371-7.107-5.271-7.91C86.864 3.754 86 2.916 84.675 2.682l-.697-.135v-.469c.597 0 3.581.067 4.742.067 1.226 0 4.873-.067 5.503-.067v.47l-1.06.167c-.896.134-1.393.436-1.393 1.073 0 .536.331 1.206 1.06 2.346l3.183 4.961 3.117-4.425c.829-1.206 1.26-2.111 1.26-2.748s-.431-1.073-1.426-1.24l-1.094-.168v-.47c.597 0 3.249.068 4.443.068 1.193 0 3.083-.067 3.713-.067v.469l-.564.1c-1.492.269-2.851 1.408-4.011 2.984l-4.808 6.369 5.835 8.647c1.227 1.844 2.089 2.682 3.415 2.917l.697.134v.503zM109.243 5.698c-.265 0-.497-.033-.696-.134a1.739 1.739 0 01-.564-.402 1.523 1.523 0 01-.365-.57 1.775 1.775 0 01-.132-.704c0-.268.033-.503.132-.704.1-.234.232-.402.365-.57.133-.167.365-.301.564-.368.232-.1.464-.134.696-.134.265 0 .497.033.696.134.232.1.398.234.564.369.165.167.298.368.364.57.1.234.133.469.133.703 0 .268-.033.503-.133.704-.099.235-.232.402-.364.57a2.183 2.183 0 01-.564.402 2.147 2.147 0 01-.696.134zm0-.268c.232 0 .431-.033.597-.134.199-.067.364-.201.497-.335a1.86 1.86 0 00.331-.503c.067-.201.1-.402.1-.603 0-.235-.033-.436-.1-.604a1.318 1.318 0 00-.331-.502 1.86 1.86 0 00-.497-.336c-.199-.067-.398-.134-.597-.134-.232 0-.431.034-.597.134a1.304 1.304 0 00-.497.336 1.885 1.885 0 00-.332.502 1.925 1.925 0 00-.099.604c0 .234.033.435.099.603.067.201.199.369.332.503.132.134.298.268.497.335.199.1.398.134.597.134zm-.763-.47V2.817h.929c.232 0 .431.067.563.167a.61.61 0 01.199.47.61.61 0 01-.199.469c-.132.134-.298.167-.53.167l.099-.033c.1 0 .166.033.232.067.067.033.133.1.199.201l.365.637h-.497l-.365-.704c-.033-.067-.066-.1-.1-.1-.033-.034-.099-.034-.165-.034h-.232v.838h-.498zm.431-1.206h.431c.133 0 .232-.033.266-.067.066-.033.099-.134.099-.234 0-.101-.033-.202-.099-.235a.623.623 0 00-.266-.067h-.431v.603z" fill="#123B63"/><path d="M30.634 31.71H15.317V36h15.317v-4.29z" fill="#2B568A"/><path d="M45.952 31.71H30.634V36h15.318v-4.29z" fill="#6FA3CC"/><path d="M61.302 31.71H45.985V36h15.317v-4.29z" fill="#276647"/><path d="M76.62 31.71H61.301V36h15.317v-4.29z" fill="#DDCD4A"/><path d="M91.936 31.71H76.62V36h15.317v-4.29z" fill="#F29E1A"/><path d="M107.254 31.71H91.936V36h15.318v-4.29z" fill="#A82528"/><path d="M15.317 31.71H0V36h15.317v-4.29z" fill="#123B63"/></g><defs><clipPath id="clip0_109_248"><path fill="#fff" d="M0 0h111v36H0z"/></clipPath></defs></svg>