<svg width="167" height="26" viewBox="0 0 167 26" fill="none" xmlns="http://www.w3.org/2000/svg"><path d="M46.066 12.922c0-.25-.005-.496-.014-.74h2.831l.752-2.257h-3.813C44.776 3.75 40.397 0 33.782 0c-7.438 0-12.246 5.137-12.246 13.078 0 8.02 4.658 12.96 12.246 12.922 6.185 0 10.574-3.528 11.879-9.302h2.584l.788-2.258h-3.029c.04-.493.061-1 .062-1.518zm-12.133 9.499c-3.833-.002-5.334-4.207-5.334-9.42 0-5.215 1.202-9.381 5.07-9.42 3.045 0 4.617 2.63 5.137 6.344h-3.294l-.751 2.257h4.23a30.583 30.583 0 01-.02 2.259H34.91l-.788 2.258h4.633c-.52 3.382-1.922 5.72-4.821 5.72v.002zM.5.585h19.158v6.032H7.149v4.203h11.308v5.722H7.149v8.835H.5V.585zm51.276 0v24.792h6.649v-7.512h2.93l4.808 7.512h7.663l-5.71-8.641c2.968-1.324 4.921-3.854 4.921-7.629V9.03c0-2.413-.713-4.36-2.104-5.76C69.319 1.595 66.764.584 63.12.584H51.776zm6.649 11.91V6.5h4.357c2.254 0 3.606 1.012 3.606 2.957v.077c0 1.83-1.314 2.957-3.567 2.957l-4.396.004zm17.993 12.882H95.84v-5.84H82.992v-3.93h11.494v-5.41H82.992V6.423H95.69V.585H76.418v24.792zm21.6 0h7.475l4.621-7.473 4.583 7.473h7.625l-8.226-12.688 7.85-12.104h-7.437l-4.281 6.967-4.246-6.967h-7.626l7.888 12.181-8.226 12.611zm30.803-11.753a5.19 5.19 0 00.37 1.988c.252.63.624 1.2 1.095 1.677.47.476 1.029.85 1.642 1.096a4.722 4.722 0 001.927.34c2.104 0 3.343-.896 4.244-2.258l-2.253-1.674c-.526.623-1.052 1.012-1.841 1.012-1.127 0-1.916-.973-1.916-2.257v-.039c0-1.207.789-2.18 1.878-2.18.358 0 .708.097 1.018.282.31.184.568.45.748.768l2.291-1.751a4.657 4.657 0 00-1.758-1.68 4.466 4.466 0 00-2.336-.538 4.83 4.83 0 00-1.958.36 4.964 4.964 0 00-1.666 1.123 5.172 5.172 0 00-1.109 1.71 5.314 5.314 0 00-.376 2.023m10.143 0c0 2.802 2.216 5.138 5.259 5.138 3.08 0 5.296-2.375 5.296-5.177v-.037c0-2.803-2.216-5.138-5.259-5.138-3.08 0-5.296 2.375-5.296 5.216m7.287 0c0 1.168-.751 2.18-1.991 2.18a2.01 2.01 0 01-.796-.181 2.072 2.072 0 01-.666-.487 2.188 2.188 0 01-.566-1.549v-.037c-.013-.28.028-.56.122-.823.094-.263.238-.504.424-.707a2.01 2.01 0 01.658-.478c.248-.112.516-.17.787-.172.277.006.55.07.803.188s.481.287.67.497c.189.21.335.458.431.728.095.27.137.557.124.844m4.884-5.021v9.878h3.343v-5.371c0-1.051.563-1.635 1.352-1.635.789 0 1.315.545 1.315 1.635v5.37h3.306v-5.37c0-1.051.601-1.635 1.391-1.635s1.315.545 1.315 1.635v5.41h3.343v-6.5c0-2.296-1.24-3.62-3.268-3.62a3.933 3.933 0 00-1.775.416 4.07 4.07 0 00-1.418 1.18c-.489-1.012-1.465-1.596-2.742-1.596a3.397 3.397 0 00-1.611.417 3.535 3.535 0 00-1.243 1.14V8.602h-3.309l.001.008zm-26.971 8.049a1.557 1.557 0 00.525 1.284c.337.325.78.506 1.24.506.46 0 .903-.18 1.24-.506a1.868 1.868 0 00.019-2.589 1.746 1.746 0 00-.575-.397 1.698 1.698 0 00-1.355.011 1.763 1.763 0 00-.569.406 1.86 1.86 0 00-.525 1.285z" fill="#fff"/></svg>