<svg width="190" height="20" viewBox="0 0 190 20" fill="none" xmlns="http://www.w3.org/2000/svg"><path d="M5.285 15.003V.7H.221v18.855h14.303v-4.552H5.285zm16.862 4.552V.727h-5.064v18.828h5.064zm16.352 0L45.718.7h-6.061l-4.471 12.902L30.794.7h-6.06l7.137 18.855H38.5zM63.715 5.252V.7H48.281v18.855h15.596v-4.552H53.345v-2.828h9.643v-4.31h-9.643V5.252h10.37zm14.83 14.303V.727H73.48v18.828h5.064zm21.523 0V.7h-4.983v10.532L87.49.7h-5.252v18.855h4.983V9.05l7.596 10.505h5.252zM111.435.431c-4.391.027-7.839 1.939-7.839 6.168 0 3.69 3.071 4.687 7.354 5.71 3.098.782 3.636.89 3.636 1.967 0 .862-.916 1.239-1.966 1.239-2.397 0-5.118-.7-7.569-2.074l-2.263 3.771c2.586 1.724 5.765 2.64 9.266 2.64 4.849 0 7.893-2.21 7.893-6.223 0-3.851-3.152-4.929-7.569-6.114-2.937-.727-3.287-.97-3.287-1.562 0-.862.835-1.24 1.805-1.24 1.859 0 4.391.647 6.546 1.751l2.128-3.905C117.361 1.212 114.452.43 111.435.43zm16.484 19.124V.727h-5.064v18.828h5.064zM141.685.431c-5.36-.027-10.424 3.501-10.424 9.724 0 5.333 4.525 9.67 10.101 9.67 3.179 0 6.115-1.05 8.377-2.855V8.726h-8.054v3.61h3.233v1.804a6.997 6.997 0 01-3.556.943c-2.828 0-4.795-2.209-4.795-4.93 0-3.15 2.398-5.036 5.118-5.036a6.32 6.32 0 014.122 1.535l3.313-3.475c-2.101-1.805-4.768-2.72-7.435-2.747zm29.569 19.124V.7h-5.091v7.111h-7.677V.7h-5.064v18.855h5.064v-7.192h7.677v7.192h5.091zm18.604-14.518V.7h-16.027v4.337h5.468v14.518h5.091V5.037h5.468z" fill="#09B45B"/></svg>