<svg width="34" height="12" viewBox="0 0 34 12" fill="none" xmlns="http://www.w3.org/2000/svg"><path d="M.024 12h1.84V7.936h2.464L6.488 12h2.048L6.168 7.536c1.312-.464 2.176-1.664 2.176-3.168C8.344 2.192 6.776.8 4.44.8H.024V12zm4.272-9.6c1.312 0 2.16.768 2.16 1.968s-.848 1.968-2.16 1.968H1.864V2.4h2.432zm6.548 9.6l1.04-2.768h4.593L17.532 12H19.5L15.325.8h-2.192L8.94 12h1.903zm3.329-9.216l1.791 4.88h-3.568l1.776-4.88zM21.813 12h2.16l2.256-8.24L28.517 12h2.144L33.877.8H31.99l-2.4 8.864L27.157.8h-1.744l-2.496 8.864-2.384-8.88L18.63.8 21.813 12z" fill="#E3DEDD"/></svg>