<svg width="207" height="68" viewBox="0 0 207 68" fill="none" xmlns="http://www.w3.org/2000/svg"><path d="M.7 4.07h7.56V25h4.025V4.07h7.56V.5H.7v3.57zm29.087 3.01c-2.94 0-4.375 1.19-5.285 2.695l-.42-2.695h-3.36V25h3.78v-8.995c0-2.765 1.085-5.39 4.445-5.39h1.68V7.08h-.84zm19.005 14.63c-.77 0-1.155-.245-1.155-1.155V13.38c0-4.235-2.73-6.51-7.49-6.51-4.515 0-7.525 2.17-7.91 5.67h3.71c.28-1.575 1.785-2.625 4.025-2.625 2.485 0 3.92 1.225 3.92 3.22v1.085h-4.515c-5.005 0-7.665 2.065-7.665 5.74 0 3.325 2.73 5.25 6.65 5.25 2.905 0 4.725-1.26 5.915-3.08 0 1.785.84 2.87 3.29 2.87h1.995v-3.29h-.77zm-4.9-4.06c-.035 2.765-1.855 4.62-5.005 4.62-2.065 0-3.325-1.05-3.325-2.555 0-1.82 1.295-2.695 3.64-2.695h4.69v.63zm21.207-8.085c-1.155-1.575-3.08-2.695-5.81-2.695-4.865 0-8.47 3.64-8.47 9.17 0 5.74 3.605 9.17 8.47 9.17 2.835 0 4.69-1.33 5.845-2.905L65.589 25h3.29V.5h-3.78v9.065zm-5.18 12.46c-3.15 0-5.215-2.45-5.215-5.985 0-3.5 2.065-5.95 5.215-5.95s5.215 2.45 5.215 6.02c0 3.465-2.065 5.915-5.215 5.915zm21.159 3.185c4.445 0 7.455-2.695 8.085-6.23h-3.78c-.525 1.995-2.205 3.15-4.515 3.15-2.975 0-4.9-1.995-5.005-5.04v-.245h13.51c.07-.49.105-.98.105-1.435-.105-5.25-3.57-8.54-8.75-8.54-5.285 0-8.82 3.675-8.82 9.205 0 5.495 3.535 9.135 9.17 9.135zm-5.075-11.13c.28-2.555 2.345-4.165 4.76-4.165 2.625 0 4.48 1.505 4.795 4.165h-9.555zm36.511 11.13c5.705 0 9.87-3.36 10.64-8.54h-4.165c-.77 3.115-3.115 5.005-6.51 5.005-4.62 0-7.42-3.71-7.42-8.925 0-5.25 2.87-8.925 7.525-8.925 3.325 0 5.635 1.925 6.44 5.005h4.165c-.805-5.18-4.83-8.54-10.43-8.54-7.245 0-11.83 5.005-11.83 12.46 0 7.525 4.445 12.46 11.585 12.46zm22.649-18.13c-2.94 0-4.375 1.19-5.285 2.695l-.42-2.695h-3.36V25h3.78v-8.995c0-2.765 1.085-5.39 4.445-5.39h1.68V7.08h-.84zm8.557 18.025l-.7 1.75c-.56 1.47-.91 1.82-2.38 1.82h-2.66V32h4.06c2.625 0 3.395-1.295 4.515-4.2l8.12-20.72h-4.025l-4.865 13.615L140.78 7.08h-4.025l6.965 18.025zM166.176 6.87c-2.8 0-4.655 1.295-5.845 2.87l-.455-2.66h-3.29V32h3.78v-9.52c1.12 1.61 3.045 2.73 5.81 2.73 4.9 0 8.47-3.64 8.47-9.17 0-5.74-3.57-9.17-8.47-9.17zm-.63 15.155c-3.15 0-5.215-2.485-5.215-6.055 0-3.465 2.065-5.88 5.215-5.88s5.25 2.415 5.25 5.95c0 3.5-2.1 5.985-5.25 5.985zm13.288-1.89c0 3.255 1.47 4.865 4.9 4.865h3.5v-3.325h-2.66c-1.435 0-1.925-.525-1.925-1.925v-9.345h4.375V7.08h-4.375V2.075h-3.815V7.08h-3.115v3.325h3.115v9.73zm18.898 5.075c5.46 0 9.135-3.675 9.135-9.17 0-5.46-3.675-9.17-9.135-9.17s-9.135 3.71-9.135 9.17c0 5.495 3.675 9.17 9.135 9.17zm0-3.22c-3.185 0-5.25-2.485-5.25-5.95 0-3.465 2.065-5.95 5.25-5.95s5.285 2.485 5.285 5.95c0 3.465-2.1 5.95-5.285 5.95zM.035 52.405H3.15V67h3.815V52.405h4.795V49.08H6.895v-1.505c0-1.225.525-1.75 1.75-1.75h3.115V42.5H8.155c-3.465 0-5.005 1.68-5.005 4.9v1.68H.035v3.325zM21.433 67.21c5.46 0 9.135-3.675 9.135-9.17 0-5.46-3.675-9.17-9.135-9.17s-9.135 3.71-9.135 9.17c0 5.495 3.675 9.17 9.135 9.17zm0-3.22c-3.185 0-5.25-2.485-5.25-5.95 0-3.465 2.065-5.95 5.25-5.95s5.285 2.485 5.285 5.95c0 3.465-2.1 5.95-5.285 5.95zm21.24-14.91c-2.94 0-4.375 1.19-5.285 2.695l-.42-2.695h-3.36V67h3.78v-8.995c0-2.765 1.085-5.39 4.445-5.39h1.68V49.08h-.84zM54.799 67h3.78V42.5H54.8V67zm15.99.21c4.446 0 7.456-2.695 8.086-6.23h-3.78c-.525 1.995-2.205 3.15-4.515 3.15-2.975 0-4.9-1.995-5.005-5.04v-.245h13.51c.07-.49.105-.98.105-1.435-.105-5.25-3.57-8.54-8.75-8.54-5.285 0-8.82 3.675-8.82 9.205 0 5.495 3.535 9.135 9.17 9.135zm-5.074-11.13c.28-2.555 2.345-4.165 4.76-4.165 2.625 0 4.48 1.505 4.795 4.165h-9.555zm15.658 5.005c.105 3.885 3.395 6.125 8.19 6.125 4.34 0 7.595-2.17 7.595-5.6 0-3.99-3.325-4.83-7.42-5.32-2.59-.28-4.305-.49-4.305-2.17 0-1.435 1.47-2.345 3.71-2.345s3.78 1.155 3.99 2.8h3.71c-.245-3.675-3.36-5.705-7.77-5.705-4.305-.035-7.35 2.17-7.35 5.565 0 3.71 3.22 4.585 7.315 5.075 2.765.35 4.41.49 4.41 2.415 0 1.435-1.54 2.345-3.885 2.345-2.73 0-4.34-1.33-4.48-3.185h-3.71zm17.603 0c.105 3.885 3.395 6.125 8.19 6.125 4.34 0 7.595-2.17 7.595-5.6 0-3.99-3.325-4.83-7.42-5.32-2.59-.28-4.305-.49-4.305-2.17 0-1.435 1.47-2.345 3.71-2.345s3.78 1.155 3.99 2.8h3.71c-.245-3.675-3.36-5.705-7.77-5.705-4.305-.035-7.35 2.17-7.35 5.565 0 3.71 3.22 4.585 7.315 5.075 2.765.35 4.41.49 4.41 2.415 0 1.435-1.54 2.345-3.885 2.345-2.73 0-4.34-1.33-4.48-3.185h-3.71z" fill="#000"/></svg>