<svg width="196" height="47" viewBox="0 0 196 47" fill="none" xmlns="http://www.w3.org/2000/svg"><path d="M7.26 15.12c2.8 0 4.46-1.54 5.06-3.22l.06 3.1h.94V7.7H7.68v1h4.6v.6c0 2.74-1.9 4.82-5 4.82-3.14 0-5.22-2.52-5.22-6.12 0-3.58 2.08-6.12 5.32-6.12 2.36 0 4 1.22 4.58 3.42h1.16C12.54 2.5 10.36.88 7.42.88 3.46.88.94 3.8.94 8c0 4.22 2.58 7.12 6.32 7.12zm13.205 0c2.22 0 3.92-1.44 4.36-3.48h-1.04c-.4 1.58-1.74 2.56-3.4 2.56-2.26 0-3.68-1.72-3.72-4.08v-.18h8.28c0-.14.02-.3.02-.42-.1-3.02-1.96-4.78-4.68-4.78-2.78 0-4.68 2.12-4.68 5.12 0 3.18 1.98 5.26 4.86 5.26zm-3.72-6.04c.16-2.06 1.7-3.44 3.56-3.44 1.98 0 3.4 1.22 3.56 3.44h-7.12zm10.84 3.56c0 1.62.66 2.36 2.38 2.36h1.48v-.94h-1.4c-1.06 0-1.44-.4-1.44-1.44V5.8h2.74v-.94h-2.74V2.02h-1.02v2.84h-1.92v.94h1.92v6.84zm11.563 0c0 1.62.66 2.36 2.38 2.36h1.48v-.94h-1.4c-1.06 0-1.44-.4-1.44-1.44V5.8h2.74v-.94h-2.74V2.02h-1.02v2.84h-1.92v.94h1.92v6.84zm10.091-7.9c-1.9 0-3.08 1.06-3.66 2.52V1h-1.02v14h1.02v-5c0-2.64 1.34-4.32 3.5-4.32 1.94 0 3.14 1.28 3.14 3.68V15h1.02V9.32c0-3.2-1.7-4.58-4-4.58zM59.84 15.12c2.22 0 3.92-1.44 4.36-3.48h-1.04c-.4 1.58-1.74 2.56-3.4 2.56-2.26 0-3.68-1.72-3.72-4.08v-.18h8.28c0-.14.02-.3.02-.42-.1-3.02-1.96-4.78-4.68-4.78-2.78 0-4.68 2.12-4.68 5.12 0 3.18 1.98 5.26 4.86 5.26zm-3.72-6.04c.16-2.06 1.7-3.44 3.56-3.44 1.98 0 3.4 1.22 3.56 3.44h-7.12zM71.747 15h1.02V1h-1.02v14zm7.898.12c2.86 0 4.88-2.12 4.88-5.2 0-3.06-2.02-5.18-4.88-5.18s-4.86 2.12-4.86 5.18c0 3.08 2 5.2 4.86 5.2zm0-.92c-2.26 0-3.82-1.76-3.82-4.28 0-2.5 1.56-4.28 3.82-4.28s3.82 1.78 3.82 4.28c0 2.52-1.56 4.28-3.82 4.28zm9.054.8h1.1l3-8.52L95.66 15h1.1l3.6-10.14h-1.04l-3.12 8.92-2.9-8.92h-.94l-3.06 8.92-2.96-8.92h-1.08L88.7 15zm17.254.12c2.22 0 3.92-1.44 4.36-3.48h-1.04c-.4 1.58-1.74 2.56-3.4 2.56-2.26 0-3.68-1.72-3.72-4.08v-.18h8.28c0-.14.02-.3.02-.42-.1-3.02-1.96-4.78-4.68-4.78-2.78 0-4.68 2.12-4.68 5.12 0 3.18 1.98 5.26 4.86 5.26zm-3.72-6.04c.16-2.06 1.7-3.44 3.56-3.44 1.98 0 3.4 1.22 3.56 3.44h-7.12zm9.757 2.8c.08 2.1 1.78 3.24 4.32 3.24 2.18 0 3.94-1.1 3.94-2.9 0-2.14-1.88-2.56-4.06-2.86-1.58-.22-2.98-.4-2.98-1.82 0-1.16 1.14-1.92 2.86-1.92 1.62 0 2.78.78 2.96 2.1h1.04c-.18-1.98-1.8-2.98-4-2.98-2.26-.02-3.88 1.14-3.88 2.88 0 2.04 1.88 2.42 3.96 2.7 1.7.24 3.08.46 3.08 1.96 0 1.2-1.26 1.96-2.92 1.96-1.94 0-3.2-.9-3.28-2.36h-1.04zm10.966.76c0 1.62.66 2.36 2.38 2.36h1.48v-.94h-1.4c-1.06 0-1.44-.4-1.44-1.44V5.8h2.74v-.94h-2.74V2.02h-1.02v2.84h-1.92v.94h1.92v6.84zm9.643-6.84h1.92V15h1.02V5.8h3.04v-.94h-3.04V3.34c0-1 .38-1.4 1.4-1.4h1.66V1h-1.7c-1.7 0-2.38.74-2.38 2.36v1.5h-1.92v.94zm11.167 9.32c2.22 0 3.92-1.44 4.36-3.48h-1.04c-.4 1.58-1.74 2.56-3.4 2.56-2.26 0-3.68-1.72-3.72-4.08v-.18h8.28c0-.14.02-.3.02-.42-.1-3.02-1.96-4.78-4.68-4.78-2.78 0-4.68 2.12-4.68 5.12 0 3.18 1.98 5.26 4.86 5.26zm-3.72-6.04c.16-2.06 1.7-3.44 3.56-3.44 1.98 0 3.4 1.22 3.56 3.44h-7.12zm14.716 6.04c2.22 0 3.92-1.44 4.36-3.48h-1.04c-.4 1.58-1.74 2.56-3.4 2.56-2.26 0-3.68-1.72-3.72-4.08v-.18h8.28c0-.14.02-.3.02-.42-.1-3.02-1.96-4.78-4.68-4.78-2.78 0-4.68 2.12-4.68 5.12 0 3.18 1.98 5.26 4.86 5.26zm-3.72-6.04c.16-2.06 1.7-3.44 3.56-3.44 1.98 0 3.4 1.22 3.56 3.44h-7.12zm9.757 2.8c.08 2.1 1.78 3.24 4.32 3.24 2.18 0 3.94-1.1 3.94-2.9 0-2.14-1.88-2.56-4.06-2.86-1.58-.22-2.98-.4-2.98-1.82 0-1.16 1.14-1.92 2.86-1.92 1.62 0 2.78.78 2.96 2.1h1.04c-.18-1.98-1.8-2.98-4-2.98-2.26-.02-3.88 1.14-3.88 2.88 0 2.04 1.88 2.42 3.96 2.7 1.7.24 3.08.46 3.08 1.96 0 1.2-1.26 1.96-2.92 1.96-1.94 0-3.2-.9-3.28-2.36h-1.04zM5.68 43.12c2.86 0 4.88-2.12 4.88-5.2 0-3.06-2.02-5.18-4.88-5.18S.82 34.86.82 37.92c0 3.08 2 5.2 4.86 5.2zm0-.92c-2.26 0-3.82-1.76-3.82-4.28 0-2.5 1.56-4.28 3.82-4.28s3.82 1.78 3.82 4.28c0 2.52-1.56 4.28-3.82 4.28zm11.587-9.46c-1.86 0-3.06.96-3.64 2.28l-.16-2.16h-.88V43h1.02v-5c0-2.64 1.34-4.32 3.5-4.32 1.96 0 3.14 1.28 3.14 3.68V43h1.02v-5.68c0-3.2-1.7-4.58-4-4.58zM31.955 43l-.66 1.64c-.46 1.12-.64 1.42-1.68 1.42h-1.28V47h1.56c1.36 0 1.68-.52 2.32-2.12l4.86-12.02h-1.1l-3.46 8.82-3.52-8.82h-1.1L31.955 43zm10.541.12c2.86 0 4.88-2.12 4.88-5.2 0-3.06-2.02-5.18-4.88-5.18s-4.86 2.12-4.86 5.18c0 3.08 2 5.2 4.86 5.2zm0-.92c-2.26 0-3.82-1.76-3.82-4.28 0-2.5 1.56-4.28 3.82-4.28s3.82 1.78 3.82 4.28c0 2.52-1.56 4.28-3.82 4.28zm14.267-4.36c0 2.66-1.32 4.34-3.42 4.34-1.88 0-3.04-1.28-3.04-3.7v-5.62h-1.02v5.68c0 3.18 1.66 4.58 3.9 4.58 1.8 0 2.98-.96 3.56-2.26l.14 2.14h.9V32.86h-1.02v4.98zm7.561-4.98c-1.88 0-2.68.9-3.1 2.02l-.16-2.02h-.88V43h1.02v-5.14c0-2.06.54-4.02 2.92-4.02h.74v-.98h-.54zm6.282.94h1.92V43h1.02v-9.2h3.04v-.94h-3.04v-1.52c0-1 .38-1.4 1.4-1.4h1.66V29h-1.7c-1.7 0-2.38.74-2.38 2.36v1.5h-1.92v.94zm15.784 8.26c-.6 0-.9-.2-.9-.98v-4.72c0-2.32-1.42-3.62-3.96-3.62-2.32 0-3.86 1.12-4.12 2.96h1.02c.26-1.24 1.34-2.06 3.06-2.06 1.9 0 2.98 1 2.98 2.68v.88h-3.44c-2.6 0-4 1.12-4 3.02 0 1.8 1.42 2.9 3.58 2.9 2.06 0 3.28-.94 3.9-2.2v.36c-.04 1.2.46 1.72 1.66 1.72h.6v-.94h-.38zm-1.92-3.16c0 1.94-1.38 3.34-3.78 3.34-1.62 0-2.62-.82-2.62-2.08 0-1.34 1-2.08 2.88-2.08h3.52v.82zm6.272 4.1h1.22l3.96-10.14h-1.06l-3.48 8.96-3.5-8.96h-1.1L90.742 43zm10.622.12c2.86 0 4.88-2.12 4.88-5.2 0-3.06-2.02-5.18-4.88-5.18s-4.86 2.12-4.86 5.18c0 3.08 2 5.2 4.86 5.2zm0-.92c-2.26 0-3.82-1.76-3.82-4.28 0-2.5 1.56-4.28 3.82-4.28s3.82 1.78 3.82 4.28c0 2.52-1.56 4.28-3.82 4.28zm14.266-4.36c0 2.66-1.32 4.34-3.42 4.34-1.88 0-3.04-1.28-3.04-3.7v-5.62h-1.02v5.68c0 3.18 1.66 4.58 3.9 4.58 1.8 0 2.98-.96 3.56-2.26l.14 2.14h.9V32.86h-1.02v4.98zm7.562-4.98c-1.88 0-2.68.9-3.1 2.02l-.16-2.02h-.88V43h1.02v-5.14c0-2.06.54-4.02 2.92-4.02h.74v-.98h-.54zm2.571-2.14c.4 0 .72-.3.72-.72s-.32-.72-.72-.72c-.4 0-.72.3-.72.72s.32.72.72.72zm-.52 12.28h1.02V32.86h-1.02V43zm4.178-2.36c0 1.62.66 2.36 2.38 2.36h1.48v-.94h-1.4c-1.06 0-1.44-.4-1.44-1.44V33.8h2.74v-.94h-2.74v-2.84h-1.02v2.84h-1.92v.94h1.92v6.84zM139 43.12c2.22 0 3.92-1.44 4.36-3.48h-1.04c-.4 1.58-1.74 2.56-3.4 2.56-2.26 0-3.68-1.72-3.72-4.08v-.18h8.28c0-.14.02-.3.02-.42-.1-3.02-1.96-4.78-4.68-4.78-2.78 0-4.68 2.12-4.68 5.12 0 3.18 1.98 5.26 4.86 5.26zm-3.72-6.04c.16-2.06 1.7-3.44 3.56-3.44 1.98 0 3.4 1.22 3.56 3.44h-7.12zm20.047 6.04c2.3 0 3.92-1.32 4.32-3.38h-1.08c-.34 1.5-1.56 2.46-3.24 2.46-2.22 0-3.76-1.74-3.76-4.26 0-2.52 1.52-4.3 3.76-4.3 1.7 0 2.9.96 3.26 2.48h1.06c-.42-2.1-2-3.38-4.3-3.38-2.86 0-4.82 2.12-4.82 5.2 0 3.12 1.94 5.18 4.8 5.18zm10.783 0c2.86 0 4.88-2.12 4.88-5.2 0-3.06-2.02-5.18-4.88-5.18s-4.86 2.12-4.86 5.18c0 3.08 2 5.2 4.86 5.2zm0-.92c-2.26 0-3.82-1.76-3.82-4.28 0-2.5 1.56-4.28 3.82-4.28s3.82 1.78 3.82 4.28c0 2.52-1.56 4.28-3.82 4.28zm7.426-11.48c.4 0 .72-.3.72-.72s-.32-.72-.72-.72c-.4 0-.72.3-.72.72s.32.72.72.72zm-.52 12.28h1.02V32.86h-1.02V43zm8.098-10.26c-1.86 0-3.06.96-3.64 2.28l-.16-2.16h-.88V43h1.02v-5c0-2.64 1.34-4.32 3.5-4.32 1.96 0 3.14 1.28 3.14 3.68V43h1.02v-5.68c0-3.2-1.7-4.58-4-4.58zm5.798 7.14c.08 2.1 1.78 3.24 4.32 3.24 2.18 0 3.94-1.1 3.94-2.9 0-2.14-1.88-2.56-4.06-2.86-1.58-.22-2.98-.4-2.98-1.82 0-1.16 1.14-1.92 2.86-1.92 1.62 0 2.78.78 2.96 2.1h1.04c-.18-1.98-1.8-2.98-4-2.98-2.26-.02-3.88 1.14-3.88 2.88 0 2.04 1.88 2.42 3.96 2.7 1.7.24 3.08.46 3.08 1.96 0 1.2-1.26 1.96-2.92 1.96-1.94 0-3.2-.9-3.28-2.36h-1.04z" fill="#000"/></svg>