<svg width="260" height="40" viewBox="0 0 260 40" fill="none" xmlns="http://www.w3.org/2000/svg"><rect width="260" height="40" rx="20" fill="#fff"/><path d="M36.273 26.102c2.686 0 4.658-1.53 5.1-3.995h-1.564c-.442 1.666-1.717 2.635-3.553 2.635-2.499 0-4.029-1.955-4.029-4.692 0-2.754 1.598-4.692 4.097-4.692 1.785 0 3.043.986 3.502 2.635h1.564c-.442-2.465-2.363-3.995-4.998-3.995-3.451 0-5.678 2.448-5.678 6.052 0 3.638 2.142 6.052 5.559 6.052zm10.677 0c2.533 0 4.3-1.802 4.3-4.437 0-2.635-1.767-4.437-4.3-4.437s-4.301 1.802-4.301 4.437c0 2.635 1.768 4.437 4.3 4.437zm0-1.241c-1.717 0-2.873-1.343-2.873-3.196 0-1.853 1.156-3.196 2.873-3.196 1.717 0 2.873 1.343 2.873 3.196 0 1.853-1.156 3.196-2.873 3.196zm15.572-7.633c-1.547 0-2.481.714-3.008 1.649-.494-1.105-1.53-1.649-2.738-1.649-1.343 0-2.074.663-2.533 1.292l-.187-1.19H52.85V26h1.393v-4.573c0-1.734.867-2.924 2.295-2.924 1.327 0 2.092.884 2.092 2.584V26h1.393v-4.641c0-1.768.884-2.856 2.33-2.856 1.308 0 2.056.884 2.056 2.584V26h1.394v-4.998c0-2.737-1.478-3.774-3.28-3.774zm9.439 0c-1.462 0-2.397.697-2.975 1.496l-.187-1.394h-1.207V29.4h1.394v-4.726c.527.833 1.513 1.428 2.975 1.428 2.397 0 4.165-1.785 4.165-4.437 0-2.822-1.768-4.437-4.165-4.437zm-.136 7.633c-1.7 0-2.856-1.326-2.856-3.23 0-1.853 1.156-3.162 2.856-3.162 1.717 0 2.873 1.309 2.873 3.196 0 1.887-1.156 3.196-2.873 3.196zM77.719 26h1.394V14.1h-1.394V26zm7.298.102c2.006 0 3.434-1.275 3.774-3.009h-1.41c-.29 1.122-1.242 1.768-2.466 1.768-1.649 0-2.686-1.156-2.737-2.805v-.119h6.732c.017-.204.034-.408.034-.595-.068-2.567-1.666-4.114-4.114-4.114s-4.114 1.802-4.114 4.437c0 2.652 1.7 4.437 4.301 4.437zm-2.754-5.321c.136-1.411 1.31-2.329 2.584-2.329 1.445 0 2.465.833 2.601 2.329h-5.185zm8.818 2.958c0 1.53.595 2.261 2.261 2.261h1.513v-1.275h-1.377c-.748 0-1.003-.272-1.003-1.003v-5.117h2.244V17.33h-2.244v-2.431h-1.394v2.431h-1.564v1.275h1.564v5.134zm8.761 2.363c2.007 0 3.435-1.275 3.775-3.009h-1.411c-.289 1.122-1.241 1.768-2.466 1.768-1.648 0-2.685-1.156-2.736-2.805v-.119h6.732c.017-.204.034-.408.034-.595-.068-2.567-1.666-4.114-4.114-4.114-2.449 0-4.115 1.802-4.115 4.437 0 2.652 1.7 4.437 4.302 4.437zm-2.754-5.321c.137-1.411 1.31-2.329 2.585-2.329 1.445 0 2.465.833 2.601 2.329h-5.186zm15.237 5.27l-.425 1.054c-.323.816-.459 1.02-1.258 1.02h-1.241V29.4h1.666c1.224 0 1.547-.544 2.091-1.938l3.995-10.132h-1.479l-2.584 6.919-2.669-6.919h-1.479l3.383 8.721zm9.481.051c2.533 0 4.301-1.802 4.301-4.437 0-2.635-1.768-4.437-4.301-4.437-2.533 0-4.301 1.802-4.301 4.437 0 2.635 1.768 4.437 4.301 4.437zm0-1.241c-1.717 0-2.873-1.343-2.873-3.196 0-1.853 1.156-3.196 2.873-3.196 1.717 0 2.873 1.343 2.873 3.196 0 1.853-1.156 3.196-2.873 3.196zm11.969-3.196c0 1.955-.952 3.162-2.533 3.162-1.445 0-2.261-.952-2.261-2.754V17.33h-1.394v4.828c0 2.873 1.513 3.944 3.417 3.944 1.428 0 2.261-.612 2.771-1.258l.187 1.156h1.207v-8.67h-1.394v4.335zm7.306-4.335c-1.547 0-2.21.646-2.618 1.309l-.187-1.309h-1.207V26h1.394v-4.42c0-1.377.493-2.89 2.312-2.89h.697v-1.36h-.391zm13.716 7.395c-.391 0-.561-.119-.561-.578v-3.791c0-2.023-1.275-3.128-3.485-3.128-2.091 0-3.468 1.003-3.672 2.703h1.394c.17-.884.986-1.462 2.21-1.462 1.36 0 2.159.68 2.159 1.802v.595h-2.55c-2.278 0-3.485.969-3.485 2.703 0 1.581 1.292 2.533 3.196 2.533 1.496 0 2.363-.663 2.907-1.445.017.85.408 1.343 1.564 1.343h.765v-1.275h-.442zm-1.955-2.261c0 1.445-1.003 2.448-2.737 2.448-1.156 0-1.887-.578-1.887-1.428 0-.986.697-1.445 1.938-1.445h2.686v.425zm7.837-5.236c-1.462 0-2.397.697-2.975 1.496l-.187-1.394h-1.207V29.4h1.394v-4.726c.527.833 1.513 1.428 2.975 1.428 2.397 0 4.165-1.785 4.165-4.437 0-2.822-1.768-4.437-4.165-4.437zm-.136 7.633c-1.7 0-2.856-1.326-2.856-3.23 0-1.853 1.156-3.162 2.856-3.162 1.717 0 2.873 1.309 2.873 3.196 0 1.887-1.156 3.196-2.873 3.196zm10.263-7.633c-1.462 0-2.397.697-2.975 1.496l-.187-1.394h-1.207V29.4h1.394v-4.726c.527.833 1.513 1.428 2.975 1.428 2.397 0 4.165-1.785 4.165-4.437 0-2.822-1.768-4.437-4.165-4.437zm-.136 7.633c-1.7 0-2.856-1.326-2.856-3.23 0-1.853 1.156-3.162 2.856-3.162 1.717 0 2.873 1.309 2.873 3.196 0 1.887-1.156 3.196-2.873 3.196zM176.564 26h1.394V14.1h-1.394V26zm4.018-10.132c.51 0 .901-.374.901-.901a.876.876 0 00-.901-.901.876.876 0 00-.901.901c0 .527.391.901.901.901zM179.868 26h1.394v-8.67h-1.394V26zm7.197.102c2.108 0 3.519-1.19 3.859-3.06h-1.479c-.272 1.105-1.122 1.819-2.363 1.819-1.666 0-2.788-1.292-2.788-3.179 0-1.887 1.122-3.213 2.788-3.213 1.275 0 2.125.697 2.38 1.853h1.462c-.357-1.904-1.7-3.094-3.825-3.094-2.516 0-4.233 1.802-4.233 4.454 0 2.703 1.666 4.42 4.199 4.42zm13.054-1.377c-.391 0-.561-.119-.561-.578v-3.791c0-2.023-1.275-3.128-3.485-3.128-2.091 0-3.468 1.003-3.672 2.703h1.394c.17-.884.986-1.462 2.21-1.462 1.36 0 2.159.68 2.159 1.802v.595h-2.55c-2.278 0-3.485.969-3.485 2.703 0 1.581 1.292 2.533 3.196 2.533 1.496 0 2.363-.663 2.907-1.445.017.85.408 1.343 1.564 1.343h.765v-1.275h-.442zm-1.955-2.261c0 1.445-1.003 2.448-2.737 2.448-1.156 0-1.887-.578-1.887-1.428 0-.986.697-1.445 1.938-1.445h2.686v.425zm4.115 1.275c0 1.53.595 2.261 2.261 2.261h1.513v-1.275h-1.377c-.748 0-1.003-.272-1.003-1.003v-5.117h2.244V17.33h-2.244v-2.431h-1.394v2.431h-1.564v1.275h1.564v5.134zm5.696-7.871c.51 0 .901-.374.901-.901a.876.876 0 00-.901-.901.876.876 0 00-.901.901c0 .527.391.901.901.901zM207.261 26h1.394v-8.67h-1.394V26zm7.298.102c2.533 0 4.301-1.802 4.301-4.437 0-2.635-1.768-4.437-4.301-4.437-2.533 0-4.301 1.802-4.301 4.437 0 2.635 1.768 4.437 4.301 4.437zm0-1.241c-1.717 0-2.873-1.343-2.873-3.196 0-1.853 1.156-3.196 2.873-3.196 1.717 0 2.873 1.343 2.873 3.196 0 1.853-1.156 3.196-2.873 3.196zm10.15-7.633c-1.462 0-2.346.612-2.856 1.275l-.187-1.173h-1.207V26h1.394v-4.335c0-1.955.986-3.162 2.618-3.162 1.513 0 2.346.952 2.346 2.754V26h1.394v-4.828c0-2.873-1.547-3.944-3.502-3.944z" fill="#000"/></svg>