<svg width="275" height="131" viewBox="0 0 275 131" fill="none" xmlns="http://www.w3.org/2000/svg"><path d="M6.072 88h.923l2.518-7.151 2.4 7.151h.924l3.021-8.51h-.873l-2.618 7.486-2.434-7.487h-.79l-2.568 7.487-2.484-7.487h-.906L6.072 88zm14.912-8.611c-1.595 0-2.585.89-3.072 2.115v-5.255h-.856V88h.856v-4.197c0-2.215 1.125-3.625 2.938-3.625 1.628 0 2.635 1.074 2.635 3.088V88h.856v-4.767c0-2.686-1.427-3.844-3.357-3.844zm8.897 8.712c1.864 0 3.29-1.209 3.66-2.921h-.873c-.336 1.326-1.46 2.148-2.854 2.148-1.897 0-3.088-1.443-3.122-3.424v-.15h6.95c0-.119.016-.253.016-.354-.084-2.534-1.645-4.011-3.928-4.011-2.333 0-3.928 1.779-3.928 4.297 0 2.669 1.662 4.415 4.08 4.415zm-3.122-5.07c.134-1.729 1.427-2.887 2.988-2.887 1.662 0 2.854 1.024 2.988 2.887H26.76zm12.52-3.642c-1.562 0-2.569.805-3.056 1.913l-.134-1.813h-.739V88h.857v-4.197c0-2.215 1.124-3.625 2.937-3.625 1.645 0 2.636 1.074 2.636 3.088V88h.856v-4.767c0-2.686-1.427-3.844-3.358-3.844zM51.605 88l-.553 1.376c-.387.94-.538 1.192-1.41 1.192h-1.075v.79h1.31c1.14 0 1.41-.437 1.947-1.78l4.079-10.089h-.924l-2.903 7.403-2.955-7.403H48.2L51.606 88zm8.848.1c2.4 0 4.096-1.779 4.096-4.364 0-2.568-1.695-4.347-4.096-4.347-2.4 0-4.079 1.779-4.079 4.347 0 2.585 1.679 4.365 4.08 4.365zm0-.771c-1.897 0-3.206-1.478-3.206-3.593 0-2.098 1.31-3.592 3.206-3.592 1.897 0 3.206 1.494 3.206 3.592 0 2.115-1.309 3.593-3.206 3.593zm11.974-3.66c0 2.233-1.107 3.643-2.87 3.643-1.578 0-2.552-1.075-2.552-3.106V79.49h-.856v4.768c0 2.669 1.394 3.844 3.274 3.844 1.51 0 2.5-.806 2.988-1.897L72.529 88h.756v-8.51h-.856v4.18zm8.034 2.35c0 1.36.554 1.981 1.998 1.981h1.242v-.789h-1.175c-.89 0-1.209-.336-1.209-1.209v-5.724h2.3v-.789h-2.3v-2.383h-.856v2.383h-1.611v.79h1.611v5.74zm8.017-6.53c-1.578 0-2.249.756-2.602 1.696l-.134-1.696h-.738V88h.856v-4.314c0-1.73.453-3.374 2.45-3.374h.622v-.823h-.454zm8.848 7.722c-.503 0-.755-.168-.755-.823v-3.961c0-1.947-1.192-3.038-3.324-3.038-1.947 0-3.24.94-3.458 2.484h.856c.219-1.04 1.125-1.729 2.569-1.729 1.594 0 2.5.84 2.5 2.25v.738H92.83c-2.183 0-3.358.94-3.358 2.535 0 1.51 1.192 2.434 3.005 2.434 1.729 0 2.753-.79 3.273-1.847v.302c-.033 1.008.386 1.444 1.394 1.444h.503v-.789h-.319zm-1.611-2.652c0 1.628-1.158 2.803-3.173 2.803-1.36 0-2.199-.688-2.199-1.746 0-1.124.84-1.745 2.417-1.745h2.955v.688zm9.893-3.156c-.52-1.209-1.661-2.014-3.256-2.014-2.333 0-4.012 1.779-4.012 4.347 0 2.686 1.679 4.365 4.012 4.365 1.595 0 2.703-.856 3.24-2.048l.134 1.947h.739V76.25h-.857v5.153zm-3.189 5.925c-1.897 0-3.206-1.477-3.206-3.592 0-2.098 1.309-3.592 3.206-3.592s3.206 1.494 3.206 3.61c0 2.097-1.309 3.575-3.206 3.575zm9.819.773c1.864 0 3.291-1.209 3.66-2.921h-.873c-.336 1.326-1.46 2.148-2.854 2.148-1.897 0-3.088-1.443-3.122-3.424v-.15H116c0-.119.016-.253.016-.354-.084-2.534-1.645-4.011-3.928-4.011-2.333 0-3.928 1.779-3.928 4.297 0 2.669 1.662 4.415 4.079 4.415zm-3.122-5.07c.134-1.729 1.427-2.887 2.988-2.887 1.662 0 2.854 1.024 2.988 2.887h-5.976zM122.434 88h.907v-5.422h5.069v-.84h-5.069v-4.65h6.077v-.838h-6.984V88zm7.684 0h1.058l3.592-5.321L138.394 88h1.074l-4.096-6.077 3.844-5.674h-1.057l-3.357 5.003-3.358-5.002h-1.074l3.861 5.74-4.113 6.01zm22.683-.789c-.504 0-.755-.168-.755-.823v-3.961c0-1.947-1.192-3.038-3.324-3.038-1.947 0-3.24.94-3.458 2.484h.856c.218-1.04 1.125-1.729 2.568-1.729 1.595 0 2.501.84 2.501 2.25v.738h-2.887c-2.182 0-3.357.94-3.357 2.535 0 1.51 1.192 2.434 3.005 2.434 1.729 0 2.753-.79 3.273-1.847v.302c-.034 1.008.386 1.444 1.393 1.444h.504v-.789h-.319zm-1.612-2.652c0 1.628-1.158 2.803-3.172 2.803-1.36 0-2.199-.688-2.199-1.746 0-1.124.839-1.745 2.417-1.745h2.954v.688zm7.004-5.17c-1.561 0-2.569.805-3.055 1.913l-.135-1.813h-.738V88h.856v-4.197c0-2.215 1.125-3.625 2.937-3.625 1.646 0 2.636 1.074 2.636 3.088V88h.856v-4.767c0-2.686-1.427-3.844-3.357-3.844zm12.07 2.014c-.52-1.209-1.662-2.014-3.256-2.014-2.334 0-4.012 1.779-4.012 4.347 0 2.686 1.678 4.365 4.012 4.365 1.594 0 2.702-.856 3.239-2.048l.135 1.947h.738V76.25h-.856v5.153zm-3.189 5.925c-1.897 0-3.206-1.477-3.206-3.592 0-2.098 1.309-3.592 3.206-3.592s3.206 1.494 3.206 3.61c0 2.097-1.309 3.575-3.206 3.575zm11.02-9.635a.591.591 0 00.604-.604.591.591 0 00-.604-.604.591.591 0 00-.604.604c0 .352.268.604.604.604zM177.657 88h.857v-8.51h-.857V88zm6.797-8.611c-1.561 0-2.568.805-3.055 1.913l-.134-1.813h-.739V88h.856v-4.197c0-2.215 1.125-3.625 2.938-3.625 1.645 0 2.635 1.074 2.635 3.088V88h.857v-4.767c0-2.686-1.427-3.844-3.358-3.844zm12.071 2.014c-.521-1.209-1.662-2.014-3.257-2.014-2.333 0-4.012 1.779-4.012 4.347 0 2.686 1.679 4.365 4.012 4.365 1.595 0 2.703-.856 3.24-2.048l.134 1.947h.739V76.25h-.856v5.153zm-3.19 5.925c-1.897 0-3.206-1.477-3.206-3.592 0-2.098 1.309-3.592 3.206-3.592s3.206 1.494 3.206 3.61c0 2.097-1.309 3.575-3.206 3.575zm6.496-9.635a.591.591 0 00.604-.604.591.591 0 00-.604-.604.591.591 0 00-.604.604c0 .352.268.604.604.604zM199.394 88h.857v-8.51h-.857V88zm6.579.1c1.93 0 3.29-1.107 3.626-2.836h-.907c-.285 1.259-1.309 2.065-2.719 2.065-1.863 0-3.156-1.46-3.156-3.576 0-2.115 1.276-3.609 3.156-3.609 1.427 0 2.434.806 2.736 2.081h.89c-.353-1.762-1.679-2.836-3.609-2.836-2.401 0-4.046 1.779-4.046 4.364 0 2.619 1.629 4.348 4.029 4.348zm9.05 0c1.863 0 3.29-1.208 3.66-2.92h-.873c-.336 1.326-1.461 2.148-2.854 2.148-1.897 0-3.089-1.443-3.122-3.424v-.15h6.949c0-.119.017-.253.017-.354-.084-2.534-1.645-4.011-3.928-4.011-2.333 0-3.928 1.779-3.928 4.297 0 2.669 1.662 4.415 4.079 4.415zm-3.122-5.069c.134-1.729 1.427-2.887 2.988-2.887 1.662 0 2.853 1.024 2.988 2.887h-5.976zm8.189 2.35c.067 1.763 1.494 2.72 3.626 2.72 1.829 0 3.306-.924 3.306-2.434 0-1.796-1.577-2.149-3.407-2.4-1.326-.185-2.501-.337-2.501-1.528 0-.974.956-1.612 2.4-1.612 1.36 0 2.333.655 2.485 1.763h.872c-.151-1.662-1.51-2.501-3.357-2.501-1.897-.017-3.256.956-3.256 2.417 0 1.712 1.577 2.031 3.323 2.266 1.427.201 2.585.386 2.585 1.645 0 1.007-1.057 1.645-2.45 1.645-1.629 0-2.686-.755-2.753-1.98h-.873zm8.771 1.444c-.453 0-.739.285-.739.655 0 .402.269.604.588.604.168 0 .335-.067.419-.202.118.118.151.286.151.437 0 .638-.402 1.293-1.258 1.326v.504c1.158-.05 1.88-.823 1.88-1.93 0-.773-.437-1.394-1.041-1.394zM3.034 99.278h1.611V107h.856v-7.722h2.552v-.789H5.5v-1.275c0-.84.32-1.175 1.175-1.175H8.07v-.79H6.643c-1.427 0-1.998.622-1.998 1.981v1.26H3.034v.788zm9.372 7.823c2.401 0 4.096-1.78 4.096-4.365 0-2.568-1.695-4.347-4.095-4.347-2.4 0-4.08 1.779-4.08 4.347 0 2.585 1.68 4.365 4.08 4.365zm0-.772c-1.896 0-3.206-1.478-3.206-3.593 0-2.098 1.31-3.592 3.207-3.592 1.896 0 3.206 1.494 3.206 3.592 0 2.115-1.31 3.593-3.207 3.593zm9.272-7.84c-1.578 0-2.25.756-2.602 1.696l-.134-1.696h-.739V107h.857v-4.314c0-1.729.453-3.374 2.45-3.374h.621v-.823h-.453zm13.733 7.722c-.503 0-.755-.168-.755-.822v-3.962c0-1.947-1.192-3.038-3.324-3.038-1.947 0-3.24.94-3.458 2.484h.856c.218-1.04 1.125-1.729 2.569-1.729 1.594 0 2.5.84 2.5 2.249v.739h-2.887c-2.182 0-3.357.94-3.357 2.535 0 1.51 1.192 2.434 3.005 2.434 1.729 0 2.753-.789 3.273-1.847v.302c-.033 1.008.386 1.444 1.394 1.444h.503v-.789h-.319zm-1.611-2.652c0 1.628-1.159 2.803-3.173 2.803-1.36 0-2.199-.688-2.199-1.746 0-1.124.84-1.745 2.417-1.745H33.8v.688zM41.4 107h.856V95.25h-.857V107zm3.305-10.307a.591.591 0 00.604-.604.591.591 0 00-.604-.604.592.592 0 00-.605.604c0 .352.269.604.605.604zM44.268 107h.856v-8.51h-.856V107zm12.37-8.611c-1.561 0-2.568.873-3.055 2.131-.403-1.41-1.46-2.131-2.803-2.131-1.46 0-2.334.856-2.77 1.913l-.134-1.813h-.739V107h.856v-4.331c0-2.081 1.007-3.491 2.636-3.491 1.477 0 2.4 1.04 2.4 3.004V107h.856v-4.633c.05-1.947 1.058-3.19 2.652-3.19 1.477 0 2.367.991 2.367 2.921V107h.873v-4.935c0-2.569-1.36-3.676-3.139-3.676zm5.476-1.696a.592.592 0 00.604-.604.592.592 0 00-.604-.604.591.591 0 00-.604.604c0 .352.268.604.604.604zM61.678 107h.856v-8.51h-.856V107zm3.506-1.981c0 1.36.554 1.981 1.998 1.981h1.242v-.789h-1.175c-.89 0-1.209-.336-1.209-1.209v-5.724h2.3v-.789h-2.3v-2.383h-.856v2.383h-1.611v.79h1.611v5.74zm8.04 2.082c1.864 0 3.29-1.209 3.66-2.921h-.873c-.336 1.326-1.46 2.149-2.854 2.149-1.897 0-3.089-1.444-3.122-3.425v-.151h6.95c0-.117.016-.252.016-.352-.084-2.535-1.645-4.012-3.928-4.012-2.333 0-3.928 1.779-3.928 4.297 0 2.669 1.662 4.415 4.08 4.415zm-3.122-5.07c.134-1.729 1.427-2.887 2.988-2.887 1.662 0 2.854 1.024 2.988 2.887h-5.976zm15.54-1.628c-.52-1.209-1.66-2.014-3.256-2.014-2.333 0-4.012 1.779-4.012 4.347 0 2.686 1.68 4.365 4.012 4.365 1.595 0 2.703-.856 3.24-2.048L85.76 107h.739V95.25h-.856v5.153zm-3.188 5.926c-1.897 0-3.207-1.478-3.207-3.593 0-2.098 1.31-3.592 3.207-3.592 1.896 0 3.206 1.494 3.206 3.609 0 2.098-1.31 3.576-3.206 3.576zm11.221-1.31c0 1.36.554 1.981 1.998 1.981h1.242v-.789H95.74c-.89 0-1.209-.336-1.209-1.209v-5.724h2.3v-.789h-2.3v-2.383h-.856v2.383h-1.611v.79h1.611v5.74zm4.979-8.326a.591.591 0 00.604-.604.591.591 0 00-.604-.604.591.591 0 00-.605.604c0 .352.27.604.605.604zM98.217 107h.856v-8.51h-.856V107zm12.37-8.611c-1.561 0-2.568.873-3.055 2.131-.403-1.41-1.46-2.131-2.803-2.131-1.461 0-2.334.856-2.77 1.913l-.134-1.813h-.739V107h.856v-4.331c0-2.081 1.007-3.491 2.636-3.491 1.477 0 2.4 1.04 2.4 3.004V107h.856v-4.633c.051-1.947 1.058-3.19 2.652-3.19 1.478 0 2.367.991 2.367 2.921V107h.873v-4.935c0-2.569-1.359-3.676-3.139-3.676zm8.669 8.712c1.863 0 3.29-1.209 3.659-2.921h-.873c-.336 1.326-1.46 2.149-2.854 2.149-1.896 0-3.088-1.444-3.122-3.425v-.151h6.95c0-.117.017-.252.017-.352-.084-2.535-1.646-4.012-3.928-4.012-2.334 0-3.928 1.779-3.928 4.297 0 2.669 1.661 4.415 4.079 4.415zm-3.123-5.07c.135-1.729 1.427-2.887 2.988-2.887 1.662 0 2.854 1.024 2.988 2.887h-5.976zm16.876 5.07c2.401 0 4.096-1.78 4.096-4.365 0-2.568-1.695-4.347-4.096-4.347-2.4 0-4.079 1.779-4.079 4.347 0 2.585 1.679 4.365 4.079 4.365zm0-.772c-1.897 0-3.206-1.478-3.206-3.593 0-2.098 1.309-3.592 3.206-3.592s3.206 1.494 3.206 3.592c0 2.115-1.309 3.593-3.206 3.593zm9.725-7.94c-1.561 0-2.568.805-3.055 1.913l-.134-1.813h-.739V107h.856v-4.197c0-2.215 1.125-3.625 2.938-3.625 1.645 0 2.635 1.074 2.635 3.088V107h.857v-4.767c0-2.686-1.427-3.844-3.358-3.844zm5.252 8.611h.856V95.25h-.856V107zm5.421 0l-.554 1.376c-.386.941-.538 1.192-1.41 1.192h-1.075v.789h1.31c1.141 0 1.41-.436 1.947-1.779l4.079-10.089h-.923l-2.904 7.403-2.955-7.403h-.923l3.408 8.511zm4.675-.554c0 .386.269.638.638.638s.638-.252.638-.638-.269-.621-.638-.621-.638.235-.638.621zM3.712 20V9.598L10.864 20h2.202V5.32h-2.37v10.402L3.544 5.319H1.342V20h2.37zm16.894.126c2.663 0 4.467-1.615 4.845-3.733h-2.265c-.315 1.195-1.322 1.887-2.706 1.887-1.783 0-2.936-1.195-2.999-3.02v-.147h8.095c.042-.293.063-.587.063-.86-.063-3.145-2.139-5.117-5.243-5.117-3.167 0-5.285 2.202-5.285 5.516 0 3.293 2.118 5.474 5.495 5.474zm-3.041-6.67c.168-1.53 1.405-2.495 2.852-2.495 1.573 0 2.685.902 2.873 2.496h-5.725zM29.576 20h2.454l2.35-7.298L36.643 20h2.433l3.565-10.738h-2.307l-2.537 8.221-2.35-8.22h-2.075l-2.454 8.22-2.454-8.22h-2.39L29.576 20zm20.4-2.915c0 1.95.882 2.915 2.937 2.915h2.097v-1.992h-1.594c-.86 0-1.153-.315-1.153-1.154v-5.6h2.621V9.262h-2.621V6.263h-2.286v3H48.11v1.992h1.867v5.83zm11.907-7.823c-1.762 0-2.622.713-3.167 1.615l-.252-1.615h-2.013V20h2.265v-5.39c0-1.657.65-3.23 2.663-3.23h1.007V9.262h-.503zM73.27 18.03c-.461 0-.692-.147-.692-.692v-4.3c0-2.538-1.636-3.9-4.488-3.9-2.705 0-4.509 1.3-4.74 3.397h2.223c.168-.944 1.07-1.573 2.412-1.573 1.49 0 2.35.734 2.35 1.93v.65h-2.706c-3 0-4.593 1.237-4.593 3.439 0 1.992 1.636 3.146 3.985 3.146 1.74 0 2.83-.755 3.544-1.846 0 1.07.503 1.72 1.971 1.72h1.196v-1.971h-.462zm-2.936-2.433c-.02 1.657-1.111 2.768-2.999 2.768-1.237 0-1.992-.629-1.992-1.53 0-1.091.776-1.616 2.181-1.616h2.81v.378zm12.708-4.845c-.692-.944-1.846-1.615-3.481-1.615-2.916 0-5.076 2.181-5.076 5.495 0 3.44 2.16 5.495 5.076 5.495 1.698 0 2.81-.797 3.502-1.74L83.335 20h1.972V5.32h-2.265v5.431zm-3.104 7.466c-1.888 0-3.125-1.468-3.125-3.586 0-2.097 1.237-3.565 3.125-3.565s3.125 1.468 3.125 3.607c0 2.076-1.237 3.544-3.125 3.544zm12.679 1.909c2.663 0 4.467-1.615 4.844-3.733h-2.265c-.314 1.195-1.321 1.887-2.705 1.887-1.783 0-2.936-1.195-3-3.02v-.147h8.096c.042-.293.063-.587.063-.86-.063-3.145-2.14-5.117-5.243-5.117-3.167 0-5.285 2.202-5.285 5.516 0 3.293 2.118 5.474 5.495 5.474zm-3.041-6.67c.167-1.53 1.405-2.495 2.852-2.495 1.573 0 2.684.902 2.873 2.496h-5.725zm15.337-4.194c-1.762 0-2.622.713-3.167 1.615l-.251-1.615h-2.014V20h2.265v-5.39c0-1.657.65-3.23 2.664-3.23h1.006V9.262h-.503zm13.013-.126c-1.657 0-2.769.755-3.482 1.72V5.319h-2.265V20h1.972l.272-1.552c.671.965 1.825 1.678 3.503 1.678 2.936 0 5.075-2.202 5.075-5.495 0-3.46-2.139-5.495-5.075-5.495zm-.378 9.081c-1.887 0-3.125-1.489-3.125-3.607 0-2.076 1.238-3.544 3.125-3.544 1.888 0 3.146 1.468 3.146 3.565 0 2.118-1.258 3.586-3.146 3.586zm12.343 1.909c3.272 0 5.474-2.202 5.474-5.495 0-3.272-2.202-5.495-5.474-5.495-3.271 0-5.473 2.223-5.473 5.495 0 3.293 2.202 5.495 5.473 5.495zm0-1.93c-1.908 0-3.146-1.489-3.146-3.565 0-2.076 1.238-3.565 3.146-3.565 1.909 0 3.167 1.489 3.167 3.565 0 2.076-1.258 3.565-3.167 3.565zm12.958-9.06c-1.741 0-2.768.692-3.439 1.531l-.252-1.405h-1.972V20h2.265v-5.41c0-2.182 1.07-3.503 2.874-3.503 1.698 0 2.558 1.09 2.558 3.125V20h2.286v-5.977c0-3.586-1.95-4.887-4.32-4.887zm13.742 5.495c0 2.223-1.049 3.523-2.769 3.523-1.657 0-2.496-1.07-2.496-3.166V9.262h-2.265v5.977c0 3.67 1.951 4.887 4.237 4.887 1.657 0 2.642-.671 3.314-1.49l.251 1.364h1.993V9.262h-2.265v5.37zm4.035 1.825c.063 2.328 2.035 3.67 4.908 3.67 2.6 0 4.551-1.3 4.551-3.356 0-2.39-1.993-2.894-4.446-3.188-1.552-.167-2.58-.293-2.58-1.3 0-.86.881-1.405 2.223-1.405 1.342 0 2.265.692 2.391 1.678h2.223c-.147-2.202-2.013-3.419-4.656-3.419-2.579-.02-4.404 1.3-4.404 3.335 0 2.223 1.929 2.747 4.383 3.04 1.657.21 2.643.295 2.643 1.448 0 .86-.923 1.405-2.328 1.405-1.636 0-2.601-.797-2.685-1.908h-2.223zm13.773-.923l.356-10.214h-2.433l.357 10.214h1.72zm-2.328 3.167c0 .839.629 1.426 1.468 1.426s1.447-.587 1.447-1.426c0-.84-.608-1.426-1.447-1.426-.839 0-1.468.587-1.468 1.426z" fill="#000"/><path d="M12.019 58.196c3.625 0 5.976-1.633 7.087-3.266l.326 3.07h2.907V45.491h-9.928v3.168h6.336v.556c-.196 3.69-3.038 5.682-6.565 5.682-4.376 0-7.12-3.429-7.12-8.328 0-4.899 2.809-8.328 7.153-8.328 3.168 0 5.356 1.764 6.042 4.67h3.886c-.686-4.833-4.54-7.969-9.83-7.969-6.794 0-11.105 4.67-11.105 11.627 0 6.957 4.41 11.627 10.81 11.627zm22.079 0c4.148 0 6.956-2.515 7.544-5.813h-3.527c-.49 1.861-2.057 2.939-4.213 2.939-2.776 0-4.572-1.862-4.67-4.703v-.229h12.606c.066-.457.098-.914.098-1.339-.098-4.899-3.331-7.969-8.165-7.969-4.931 0-8.23 3.43-8.23 8.59 0 5.127 3.299 8.524 8.557 8.524zM29.362 47.81c.262-2.384 2.189-3.886 4.442-3.886 2.45 0 4.18 1.404 4.474 3.886h-8.916zm16.507 5.65c0 3.038 1.371 4.54 4.572 4.54h3.266v-3.103h-2.482c-1.34 0-1.796-.49-1.796-1.796v-8.72h4.082v-3.103h-4.082v-4.67h-3.56v4.67h-2.907v3.103h2.907v9.08zm28.138-8.622c-3.593-.62-5.944-1.11-5.944-3.462 0-2.155 1.796-3.266 4.376-3.266 2.776 0 4.605 1.568 4.9 3.887h3.755c-.13-3.69-2.645-6.303-6.76-6.924v-3.462h-3.169v3.397c-4.147.424-6.858 3.004-6.858 6.63 0 4.54 3.593 5.748 7.381 6.4 3.625.654 6.01 1.177 6.01 3.593 0 2.189-1.96 3.397-4.67 3.397-3.202 0-5.292-1.796-5.488-4.474l-3.788-.066c.13 4.05 2.841 6.99 7.413 7.577v3.43h3.168V58.13c4.279-.458 7.12-3.168 7.12-6.892.033-4.506-3.658-5.715-7.446-6.4zM83.387 58h16.2v-3.168H88.515l6.075-5.062c2.776-2.319 4.834-4.442 4.834-7.839 0-4.18-2.874-6.989-8.002-6.989-4.866 0-8.001 3.168-8.001 7.512v.588h3.625v-.392c0-2.841 1.763-4.605 4.376-4.605 2.613 0 4.344 1.437 4.344 4.05 0 2.188-1.535 3.788-3.593 5.52l-8.785 7.478V58zm20.507-4.213c-1.502 0-2.482.98-2.482 2.22 0 1.405.849 2.091 1.927 2.091.392 0 .784-.098 1.077-.327.033.131.033.294.033.425 0 1.143-.816 2.417-2.874 2.45v1.894c3.233-.033 5.258-1.83 5.258-4.997 0-2.09-1.143-3.756-2.939-3.756zm17.083-7.675c2.122-.49 3.951-2.417 3.951-5.095 0-3.56-3.07-6.075-7.969-6.075-4.866 0-7.936 2.515-7.936 6.075 0 2.776 1.829 4.605 3.919 5.128-2.449.555-4.539 2.45-4.539 5.617 0 3.788 3.168 6.434 8.556 6.434 5.389 0 8.59-2.645 8.59-6.434 0-3.233-2.123-5.127-4.572-5.65zm-4.018-8.36c2.613 0 4.312 1.37 4.312 3.363 0 2.025-1.699 3.397-4.312 3.397-2.58 0-4.278-1.372-4.278-3.397 0-1.992 1.698-3.364 4.278-3.364zm0 17.668c-2.874 0-4.866-1.633-4.866-3.854 0-2.22 1.992-3.821 4.866-3.821 2.907 0 4.899 1.6 4.899 3.821 0 2.22-1.992 3.854-4.899 3.854zm23.441-9.308c2.123-.49 3.952-2.417 3.952-5.095 0-3.56-3.07-6.075-7.969-6.075-4.866 0-7.936 2.515-7.936 6.075 0 2.776 1.829 4.605 3.919 5.128-2.45.555-4.54 2.45-4.54 5.617 0 3.788 3.168 6.434 8.557 6.434s8.589-2.645 8.589-6.434c0-3.233-2.122-5.127-4.572-5.65zm-4.017-8.36c2.613 0 4.311 1.37 4.311 3.363 0 2.025-1.698 3.397-4.311 3.397-2.58 0-4.278-1.372-4.278-3.397 0-1.992 1.698-3.364 4.278-3.364zm0 17.668c-2.874 0-4.866-1.633-4.866-3.854 0-2.22 1.992-3.821 4.866-3.821 2.907 0 4.899 1.6 4.899 3.821 0 2.22-1.992 3.854-4.899 3.854zm23.441-9.308c2.122-.49 3.951-2.417 3.951-5.095 0-3.56-3.07-6.075-7.969-6.075-4.866 0-7.936 2.515-7.936 6.075 0 2.776 1.829 4.605 3.919 5.128-2.449.555-4.539 2.45-4.539 5.617 0 3.788 3.168 6.434 8.556 6.434 5.389 0 8.59-2.645 8.59-6.434 0-3.233-2.123-5.127-4.572-5.65zm-4.018-8.36c2.613 0 4.311 1.37 4.311 3.363 0 2.025-1.698 3.397-4.311 3.397-2.58 0-4.278-1.372-4.278-3.397 0-1.992 1.698-3.364 4.278-3.364zm0 17.668c-2.874 0-4.866-1.633-4.866-3.854 0-2.22 1.992-3.821 4.866-3.821 2.907 0 4.899 1.6 4.899 3.821 0 2.22-1.992 3.854-4.899 3.854zm27.486 2.776c4.279 0 7.12-2.384 7.773-6.173h-3.723c-.425 1.927-1.862 3.168-4.017 3.168-2.842 0-4.703-2.253-4.703-5.52 0-3.298 1.861-5.584 4.703-5.584 2.188 0 3.592 1.208 4.05 3.168h3.69c-.686-3.788-3.364-6.173-7.675-6.173-5.062 0-8.393 3.43-8.393 8.59 0 5.225 3.233 8.524 8.295 8.524zm25.758-3.266c-.719 0-1.078-.229-1.078-1.078v-6.695c0-3.952-2.548-6.075-6.989-6.075-4.213 0-7.022 2.025-7.381 5.291h3.462c.261-1.47 1.665-2.45 3.755-2.45 2.319 0 3.658 1.144 3.658 3.005v1.013h-4.213c-4.67 0-7.152 1.927-7.152 5.356 0 3.103 2.547 4.899 6.205 4.899 2.711 0 4.409-1.176 5.519-2.874 0 1.666.784 2.678 3.07 2.678h1.862v-3.07h-.718zm-4.573-3.788c-.032 2.58-1.731 4.31-4.67 4.31-1.927 0-3.103-.98-3.103-2.384 0-1.698 1.209-2.514 3.397-2.514h4.376v.587zm6.494 1.338c.098 3.626 3.168 5.716 7.642 5.716 4.05 0 7.087-2.025 7.087-5.226 0-3.723-3.102-4.507-6.924-4.964-2.416-.261-4.017-.457-4.017-2.025 0-1.339 1.372-2.188 3.462-2.188s3.527 1.078 3.723 2.613h3.462c-.228-3.43-3.135-5.324-7.25-5.324-4.017-.032-6.859 2.025-6.859 5.193 0 3.462 3.005 4.279 6.826 4.736 2.58.326 4.115.457 4.115 2.253 0 1.34-1.437 2.189-3.625 2.189-2.547 0-4.05-1.242-4.18-2.973h-3.462zm26.248-11.398c-2.613 0-4.213 1.176-5.258 2.613v-8.557h-3.527V58h3.527v-8.459c0-3.364 1.698-5.421 4.474-5.421 2.613 0 4.017 1.698 4.017 4.866V58h3.528v-9.308c0-5.585-3.038-7.61-6.761-7.61z" fill="url(#paint0_linear_784_1476)"/><defs><linearGradient id="paint0_linear_784_1476" x1="275" y1="53" x2="0" y2="53" gradientUnits="userSpaceOnUse"><stop stop-color="#FF4343"/><stop offset=".5" stop-color="#9C0B93"/><stop offset="1" stop-color="#4C1BB7"/></linearGradient></defs></svg>