<svg width="152" height="112" viewBox="0 0 152 112" fill="none" xmlns="http://www.w3.org/2000/svg"><path d="M2.554 83h.696l1.967-6.641L7.185 83h.696l2.326-7.609h-.609l-2.054 6.837-2-6.837h-.598L2.89 82.228.86 75.391h-.62L2.554 83zm10.522.065c1.206 0 2.13-.782 2.37-1.891h-.566c-.217.859-.946 1.391-1.848 1.391-1.228 0-2-.935-2.022-2.217v-.098h4.5c0-.076.011-.163.011-.228-.054-1.642-1.065-2.598-2.543-2.598-1.511 0-2.544 1.152-2.544 2.782 0 1.729 1.076 2.86 2.642 2.86zm-2.022-3.282c.087-1.12.924-1.87 1.935-1.87 1.076 0 1.847.663 1.934 1.87h-3.87zm12.982-1.011c-.337-.816-1.076-1.348-2.098-1.348-1.51 0-2.598 1.141-2.598 2.815 0 1.74 1.087 2.826 2.598 2.826 1.033 0 1.761-.543 2.109-1.402v.978c0 1.468-.696 2.098-2.022 2.098-1.033 0-1.75-.467-1.924-1.304h-.576c.174 1.174 1.12 1.804 2.457 1.804 1.782 0 2.62-.848 2.62-2.576v-5.174h-.48l-.086 1.283zm-2.054 3.793c-1.229 0-2.076-.956-2.076-2.326s.847-2.326 2.076-2.326c1.228 0 2.076.957 2.076 2.337 0 1.359-.848 2.315-2.076 2.315zm4.206-6.239a.383.383 0 00.391-.391.383.383 0 00-.391-.392.383.383 0 00-.392.392c0 .228.174.391.392.391zM25.905 83h.554v-5.51h-.554V83zm3.456 0h.663l2.152-5.51H31.6l-1.892 4.869-1.902-4.87h-.598L29.361 83zm5.772.065c1.207 0 2.131-.782 2.37-1.891h-.565c-.218.859-.946 1.391-1.848 1.391-1.228 0-2-.935-2.022-2.217v-.098h4.5c0-.076.011-.163.011-.228-.054-1.642-1.065-2.598-2.543-2.598-1.511 0-2.544 1.152-2.544 2.782 0 1.729 1.076 2.86 2.642 2.86zm-2.021-3.282c.087-1.12.924-1.87 1.934-1.87 1.077 0 1.848.663 1.935 1.87h-3.87zM43.257 83l-.359.891c-.25.609-.348.772-.913.772h-.696v.51h.848c.74 0 .913-.282 1.261-1.151l2.641-6.533h-.597l-1.88 4.794-1.914-4.794h-.598L43.257 83zm5.729.065c1.554 0 2.652-1.152 2.652-2.826 0-1.663-1.098-2.815-2.652-2.815s-2.641 1.152-2.641 2.815c0 1.674 1.087 2.826 2.641 2.826zm0-.5c-1.228 0-2.076-.956-2.076-2.326 0-1.359.848-2.326 2.076-2.326 1.228 0 2.076.967 2.076 2.326 0 1.37-.848 2.326-2.076 2.326zm7.754-2.37c0 1.446-.718 2.36-1.859 2.36-1.022 0-1.652-.696-1.652-2.012V77.49h-.554v3.087c0 1.728.902 2.49 2.12 2.49.977 0 1.619-.523 1.934-1.23L56.805 83h.49v-5.51h-.555v2.706zm5.202 1.522c0 .88.359 1.283 1.293 1.283h.805v-.51h-.761c-.576 0-.783-.218-.783-.783V78h1.49v-.51h-1.49v-1.544h-.554v1.543h-1.044V78h1.044v3.718zm5.485-4.293c-1.033 0-1.674.576-1.99 1.37V75.39h-.554V83h.555v-2.717c0-1.435.728-2.348 1.902-2.348 1.054 0 1.706.695 1.706 2V83h.555v-3.087c0-1.74-.924-2.49-2.174-2.49zm5.761 5.641c1.207 0 2.13-.782 2.37-1.891h-.566c-.217.859-.945 1.391-1.847 1.391-1.229 0-2-.935-2.022-2.217v-.098h4.5c0-.076.01-.163.01-.228-.054-1.642-1.064-2.598-2.543-2.598-1.51 0-2.543 1.152-2.543 2.782 0 1.729 1.076 2.86 2.641 2.86zm-2.022-3.282c.087-1.12.924-1.87 1.935-1.87 1.076 0 1.848.663 1.935 1.87h-3.87zm11.395-2.413c-.87 0-1.445.402-1.815.89l-.141-.825h-1.022v7.739h1.174v-2.957c.348.5.946.848 1.804.848 1.522 0 2.63-1.13 2.63-2.848 0-1.782-1.108-2.847-2.63-2.847zm-.195 4.706c-.978 0-1.62-.772-1.62-1.88 0-1.076.642-1.826 1.62-1.826.978 0 1.63.75 1.63 1.847 0 1.087-.652 1.86-1.63 1.86zm3.766.924h1.174v-7.609h-1.174V83zm7.412-1.022c-.239 0-.358-.076-.358-.358V79.39c0-1.315-.848-2.022-2.327-2.022-1.402 0-2.337.674-2.456 1.761h1.152c.087-.489.554-.815 1.25-.815.772 0 1.217.38 1.217 1v.337H90.62c-1.554 0-2.38.641-2.38 1.783 0 1.032.848 1.63 2.065 1.63.902 0 1.467-.391 1.837-.956 0 .554.26.891 1.022.891h.62v-1.022h-.24zm-1.522-1.26c-.01.858-.576 1.434-1.554 1.434-.641 0-1.032-.326-1.032-.793 0-.566.402-.837 1.13-.837h1.456v.195zm2.803.771c0 1.011.456 1.511 1.522 1.511h1.087v-1.033h-.826c-.446 0-.598-.163-.598-.597v-2.903h1.358v-1.032H96.01V75.88h-1.185v1.555h-.967v1.032h.967v3.022zm2.907-3.022h.967V83h1.185v-4.533h1.489v-1.032h-1.51v-.468c0-.38.163-.543.543-.543h.967V75.39h-1.119c-1.076 0-1.555.522-1.555 1.522v.522h-.967v1.032zm6.646 4.598c1.695 0 2.837-1.141 2.837-2.848 0-1.695-1.142-2.847-2.837-2.847-1.696 0-2.837 1.152-2.837 2.847 0 1.707 1.141 2.848 2.837 2.848zm0-1c-.99 0-1.631-.772-1.631-1.848s.641-1.847 1.631-1.847c.989 0 1.641.771 1.641 1.847s-.652 1.848-1.641 1.848zm6.596-4.63c-.913 0-1.359.37-1.642.837l-.13-.837h-1.043V83h1.173v-2.793c0-.86.337-1.674 1.381-1.674h.522v-1.098h-.261zm7.387-.066c-.913 0-1.544.403-1.902 1.011-.337-.717-.989-1.01-1.718-1.01-.837.01-1.315.38-1.63.793l-.131-.728h-1.021V83h1.174v-2.978c0-.99.5-1.642 1.304-1.642.772 0 1.174.511 1.174 1.49V83h1.185v-3.01c0-1 .511-1.61 1.315-1.61.761 0 1.163.511 1.163 1.49V83h1.174v-3.207c0-1.76-.935-2.424-2.087-2.424zm3.695 4.229c-.5 0-.826.326-.826.739 0 .467.282.696.641.696.13 0 .261-.033.359-.11.01.044.01.099.01.142 0 .38-.271.805-.956.815v.63c1.076-.01 1.75-.608 1.75-1.662 0-.696-.381-1.25-.978-1.25zM1.174 90.652c.402 0 .717-.293.717-.706s-.315-.707-.717-.707c-.402 0-.717.293-.717.707 0 .413.315.706.717.706zM.576 97H1.75v-5.565H.576V97zm5.26-5.63c-.903 0-1.435.358-1.783.793l-.13-.728H2.9V97h1.174v-2.804c0-1.13.554-1.816 1.489-1.816.88 0 1.326.566 1.326 1.62v3h1.185v-3.098c0-1.859-1.011-2.532-2.24-2.532zm3.067 3.793c.033 1.207 1.055 1.902 2.544 1.902 1.348 0 2.359-.674 2.359-1.739 0-1.24-1.033-1.5-2.305-1.652-.804-.087-1.337-.152-1.337-.674 0-.446.457-.728 1.152-.728.696 0 1.174.358 1.24.87h1.152c-.076-1.142-1.044-1.772-2.413-1.772-1.337-.011-2.283.673-2.283 1.728 0 1.152 1 1.424 2.272 1.576.858.109 1.37.152 1.37.75 0 .446-.479.728-1.207.728-.848 0-1.348-.413-1.392-.989H8.903zm6.41-4.51c.402 0 .717-.294.717-.707s-.315-.707-.717-.707c-.402 0-.717.293-.717.707 0 .413.315.706.717.706zM14.715 97h1.174v-5.565h-1.174V97zm6.575-4.696c-.359-.554-.957-.934-1.826-.934-1.511 0-2.63 1.12-2.63 2.826 0 1.771 1.119 2.826 2.63 2.826.87 0 1.446-.359 1.815-.913v.62c0 1.064-.576 1.554-1.598 1.554-.826 0-1.37-.36-1.51-.979h-1.196c.108 1.25 1.141 1.935 2.62 1.935 2 0 2.847-.956 2.847-2.467v-5.337H21.42l-.13.87zm-1.63 3.729c-.979 0-1.62-.75-1.62-1.837 0-1.076.641-1.837 1.62-1.837.978 0 1.62.76 1.62 1.858 0 1.066-.642 1.816-1.62 1.816zm6.853-4.663c-.87 0-1.402.39-1.75.87V89.39H23.59V97h1.174v-2.815c0-1.12.565-1.805 1.49-1.805.869 0 1.336.566 1.336 1.62v3h1.174v-3.098c0-1.859-1.01-2.532-2.25-2.532zm3.72 4.12c0 1.01.457 1.51 1.522 1.51h1.087v-1.033h-.826c-.446 0-.598-.163-.598-.597v-2.903h1.359v-1.032h-1.36V89.88h-1.184v1.555h-.967v1.032h.967v3.022zm12.55.51c-.25 0-.424-.043-.63-.272l-.338-.37 1.642-2.467h-1.163l-1.142 1.74-1.391-1.511c1.38-.566 1.783-1.283 1.783-2.077 0-.989-.837-1.717-1.935-1.717-1.294 0-2.25.804-2.25 1.88 0 .642.152 1.055.674 1.707-1.229.544-1.642 1.38-1.642 2.13-.01 1.337 1.11 2.022 2.533 2.022.804 0 1.478-.282 2.098-.87l.293.327c.337.38.794.478 1.305.478h.902v-1h-.74zm-3.24-5.783c.522 0 .86.359.86.859 0 .554-.37 1.022-1.24 1.391-.445-.51-.63-.804-.63-1.293 0-.555.413-.957 1.01-.957zm-.565 5.88c-.815 0-1.38-.423-1.38-1.173 0-.587.25-1 .99-1.38l.02.021 1.784 1.946c-.425.38-.881.587-1.414.587zm8.929-.608c0 1.011.457 1.511 1.522 1.511h1.087v-1.033h-.826c-.446 0-.598-.163-.598-.597v-2.903h1.358v-1.032h-1.358V89.88h-1.185v1.555h-.967v1.032h.967v3.022zm5.87 1.576c1.695 0 2.836-1.141 2.836-2.848 0-1.695-1.141-2.847-2.837-2.847-1.696 0-2.837 1.152-2.837 2.847 0 1.707 1.142 2.848 2.837 2.848zm0-1c-.99 0-1.631-.772-1.631-1.848s.641-1.847 1.63-1.847c.99 0 1.641.771 1.641 1.847s-.652 1.848-1.64 1.848zm6.41 1c1.696 0 2.838-1.141 2.838-2.848 0-1.695-1.142-2.847-2.837-2.847-1.696 0-2.837 1.152-2.837 2.847 0 1.707 1.14 2.848 2.837 2.848zm0-1c-.989 0-1.63-.772-1.63-1.848s.641-1.847 1.63-1.847c.99 0 1.642.771 1.642 1.847s-.652 1.848-1.641 1.848zM63.97 97h1.173v-7.609H63.97V97zm2.085-1.837c.033 1.207 1.054 1.902 2.544 1.902 1.347 0 2.358-.674 2.358-1.739 0-1.24-1.032-1.5-2.304-1.652-.804-.087-1.337-.152-1.337-.674 0-.446.457-.728 1.152-.728.696 0 1.174.358 1.24.87h1.152c-.077-1.142-1.044-1.772-2.414-1.772-1.337-.011-2.282.673-2.282 1.728 0 1.152 1 1.424 2.272 1.576.858.109 1.37.152 1.37.75 0 .446-.48.728-1.207.728-.848 0-1.348-.413-1.392-.989h-1.152zm9.23.554c0 .88.36 1.283 1.294 1.283h.805v-.51h-.761c-.576 0-.783-.218-.783-.783V92h1.49v-.51h-1.49v-1.544h-.554v1.543H74.24V92h1.044v3.718zm5.207 1.348c1.555 0 2.652-1.152 2.652-2.826 0-1.663-1.097-2.815-2.652-2.815-1.554 0-2.641 1.152-2.641 2.815 0 1.674 1.087 2.826 2.641 2.826zm0-.5c-1.228 0-2.076-.956-2.076-2.326 0-1.359.848-2.326 2.076-2.326 1.228 0 2.076.967 2.076 2.326 0 1.37-.848 2.326-2.076 2.326zm9.227-5.141c-1.032 0-1.674.576-1.99 1.37V89.39h-.553V97h.554v-2.717c0-1.435.728-2.348 1.902-2.348 1.055 0 1.707.695 1.707 2V97h.554v-3.087c0-1.74-.924-2.49-2.174-2.49zm5.761 5.641c1.207 0 2.13-.782 2.37-1.891h-.565c-.218.859-.946 1.391-1.848 1.391-1.228 0-2-.935-2.022-2.217v-.098h4.5c0-.076.011-.163.011-.228-.054-1.642-1.065-2.598-2.543-2.598-1.511 0-2.544 1.152-2.544 2.782 0 1.729 1.076 2.86 2.642 2.86zm-2.021-3.282c.087-1.12.924-1.87 1.934-1.87 1.077 0 1.848.663 1.935 1.87h-3.87zM99.02 97h.554v-7.609h-.554V97zm4.521-5.576c-1.033 0-1.75.554-2.098 1.326l-.087-1.26h-.479v7.684h.555v-3.446c.315.805 1.065 1.337 2.109 1.337 1.51 0 2.597-1.152 2.597-2.826 0-1.728-1.087-2.815-2.597-2.815zm-.044 5.141c-1.228 0-2.076-.956-2.076-2.337 0-1.348.848-2.315 2.076-2.315 1.228 0 2.076.967 2.076 2.326 0 1.37-.848 2.326-2.076 2.326zm8.321.435l-.359.891c-.25.609-.348.772-.913.772h-.696v.51h.848c.739 0 .913-.282 1.261-1.151l2.641-6.533h-.597l-1.881 4.794-1.913-4.794h-.598L111.819 97zm5.729.065c1.554 0 2.652-1.152 2.652-2.826 0-1.663-1.098-2.815-2.652-2.815s-2.641 1.152-2.641 2.815c0 1.674 1.087 2.826 2.641 2.826zm0-.5c-1.228 0-2.076-.956-2.076-2.326 0-1.359.848-2.326 2.076-2.326 1.228 0 2.076.967 2.076 2.326 0 1.37-.848 2.326-2.076 2.326zm7.754-2.37c0 1.446-.718 2.36-1.859 2.36-1.022 0-1.652-.696-1.652-2.012V91.49h-.555v3.087c0 1.728.903 2.49 2.12 2.49.978 0 1.62-.523 1.935-1.23l.076 1.164h.489v-5.51h-.554v2.706zM.402 109.305c.044 1.142.968 1.761 2.348 1.761 1.185 0 2.141-.598 2.141-1.576 0-1.163-1.021-1.391-2.206-1.554-.859-.12-1.62-.218-1.62-.989 0-.631.62-1.044 1.555-1.044.88 0 1.51.424 1.608 1.141h.566c-.098-1.076-.979-1.619-2.174-1.619-1.229-.011-2.11.619-2.11 1.565 0 1.109 1.023 1.315 2.153 1.467.924.131 1.674.25 1.674 1.066 0 .652-.685 1.065-1.587 1.065-1.054 0-1.74-.489-1.783-1.283H.402zm7.982 1.761c1.554 0 2.652-1.152 2.652-2.826 0-1.663-1.098-2.815-2.652-2.815-1.555 0-2.641 1.152-2.641 2.815 0 1.674 1.086 2.826 2.64 2.826zm0-.5c-1.228 0-2.076-.956-2.076-2.326 0-1.359.848-2.326 2.076-2.326 1.228 0 2.076.967 2.076 2.326 0 1.37-.848 2.326-2.076 2.326zm3.753.435h.555v-7.609h-.555V111zm3.456 0h.663l2.152-5.511h-.576l-1.891 4.87-1.902-4.87h-.598L15.593 111zm5.773.065c1.207 0 2.13-.782 2.37-1.891h-.566c-.217.859-.945 1.391-1.848 1.391-1.228 0-2-.935-2.021-2.217v-.098h4.5c0-.076.01-.163.01-.228-.054-1.642-1.065-2.598-2.543-2.598-1.51 0-2.543 1.152-2.543 2.782 0 1.729 1.076 2.859 2.64 2.859zm-2.022-3.282c.087-1.12.924-1.87 1.935-1.87 1.076 0 1.848.663 1.935 1.87h-3.87zm8.776-3.457a.383.383 0 00.391-.391.383.383 0 00-.391-.392.383.383 0 00-.392.392c0 .228.174.391.392.391zM27.837 111h.554v-5.511h-.554V111zm2.27-1.283c0 .881.36 1.283 1.294 1.283h.805v-.511h-.761c-.576 0-.783-.217-.783-.782V106h1.49v-.511h-1.49v-1.543h-.554v1.543h-1.044V106h1.044v3.717zm2.898.924c0 .25.174.413.413.413.24 0 .413-.163.413-.413 0-.25-.174-.402-.413-.402-.24 0-.413.152-.413.402zM4.254 65.081c1.77 0 2.945-.986 3.215-2.553H5.93c-.176.797-.77 1.31-1.662 1.31-1.175 0-1.945-.932-1.945-2.283 0-1.365.77-2.31 1.945-2.31.905 0 1.486.5 1.676 1.31h1.526c-.283-1.567-1.391-2.554-3.175-2.554-2.094 0-3.472 1.419-3.472 3.554 0 2.162 1.338 3.526 3.432 3.526zm10.655-1.351c-.297 0-.446-.095-.446-.446v-2.77c0-1.634-1.053-2.513-2.89-2.513-1.744 0-2.906.838-3.054 2.19H9.95c.108-.609.689-1.014 1.553-1.014.96 0 1.514.473 1.514 1.243v.419h-1.743c-1.932 0-2.959.797-2.959 2.215 0 1.284 1.054 2.027 2.567 2.027 1.121 0 1.824-.486 2.283-1.189 0 .69.325 1.108 1.27 1.108h.77v-1.27h-.297zm-1.891-1.567c-.014 1.067-.716 1.783-1.932 1.783-.797 0-1.284-.405-1.284-.986 0-.703.5-1.04 1.405-1.04h1.81v.243zM19.649 58c-1.121 0-1.783.446-2.216.987l-.162-.905h-1.27V65h1.46v-3.486c0-1.405.689-2.256 1.85-2.256 1.095 0 1.649.703 1.649 2.013V65h1.472v-3.85c0-2.31-1.256-3.149-2.783-3.149zm11.27 0c-1.068 0-1.784.487-2.244 1.108v-3.567h-1.459V65h1.27l.176-1c.432.622 1.175 1.081 2.256 1.081 1.892 0 3.27-1.419 3.27-3.54 0-2.229-1.378-3.54-3.27-3.54zm-.244 5.85c-1.216 0-2.013-.959-2.013-2.323 0-1.338.797-2.284 2.013-2.284 1.216 0 2.027.946 2.027 2.297 0 1.365-.811 2.31-2.027 2.31zm7.965 1.23c1.716 0 2.878-1.04 3.121-2.405h-1.459c-.203.77-.851 1.216-1.743 1.216-1.148 0-1.891-.77-1.932-1.945v-.095h5.215c.027-.19.04-.378.04-.554-.04-2.027-1.377-3.297-3.377-3.297-2.04 0-3.405 1.419-3.405 3.554 0 2.12 1.365 3.526 3.54 3.526zm-1.959-4.296c.108-.987.905-1.608 1.838-1.608 1.013 0 1.729.58 1.85 1.608h-3.688zm16.161 2.945c-.297 0-.445-.095-.445-.446v-2.77c0-1.634-1.054-2.513-2.892-2.513-1.743 0-2.905.838-3.053 2.19h1.432c.108-.609.689-1.014 1.554-1.014.959 0 1.513.473 1.513 1.243v.419h-1.743c-1.932 0-2.959.797-2.959 2.215 0 1.284 1.054 2.027 2.567 2.027 1.121 0 1.824-.486 2.283-1.189 0 .69.325 1.108 1.27 1.108h.77v-1.27h-.297zm-1.891-1.567c-.014 1.067-.716 1.783-1.932 1.783-.797 0-1.284-.405-1.284-.986 0-.703.5-1.04 1.405-1.04h1.81v.243zM61.093 58c-1.08 0-1.797.5-2.256 1.108l-.176-1.026h-1.27v9.62h1.46v-3.676c.432.622 1.175 1.054 2.242 1.054 1.892 0 3.27-1.405 3.27-3.54 0-2.215-1.378-3.54-3.27-3.54zm-.243 5.85c-1.216 0-2.013-.959-2.013-2.337 0-1.337.797-2.27 2.013-2.27 1.216 0 2.027.933 2.027 2.297 0 1.351-.811 2.31-2.027 2.31zm9.424-2.31c0 1.432-.675 2.27-1.783 2.27-1.067 0-1.608-.689-1.608-2.04v-3.688h-1.46v3.85c0 2.364 1.257 3.148 2.73 3.148 1.067 0 1.703-.432 2.135-.96l.162.879h1.284v-6.917h-1.46v3.458zm2.64-2.175h3.703l-3.864 4.594V65h5.998v-1.283h-4.04l3.865-4.594v-1.04h-5.661v1.283zm6.598 0h3.702L79.35 63.96V65h5.999v-1.283h-4.04l3.864-4.594v-1.04h-5.661v1.283zM86.366 65h1.459v-9.458h-1.46V65zm6.172.081c1.716 0 2.878-1.04 3.121-2.405H94.2c-.203.77-.851 1.216-1.743 1.216-1.148 0-1.891-.77-1.932-1.945v-.095h5.215c.027-.19.04-.378.04-.554-.04-2.027-1.377-3.297-3.377-3.297-2.04 0-3.405 1.419-3.405 3.554 0 2.12 1.365 3.526 3.54 3.526zm-1.959-4.296c.108-.987.905-1.608 1.838-1.608 1.013 0 1.729.58 1.85 1.608H90.58zm10.338 2.337c0 1.257.568 1.878 1.892 1.878h1.351v-1.283h-1.027c-.554 0-.743-.203-.743-.744v-3.607h1.689v-1.283h-1.689V56.15h-1.473v1.933h-1.202v1.283h1.202v3.756zm7.295 1.96c2.108 0 3.527-1.42 3.527-3.54 0-2.108-1.419-3.54-3.527-3.54-2.107 0-3.526 1.432-3.526 3.54 0 2.12 1.419 3.54 3.526 3.54zm0-1.244c-1.229 0-2.026-.96-2.026-2.297 0-1.337.797-2.297 2.026-2.297 1.23 0 2.041.96 2.041 2.297 0 1.338-.811 2.297-2.041 2.297zm8.657-.716c0 1.257.567 1.878 1.891 1.878h1.351v-1.283h-1.026c-.554 0-.743-.203-.743-.744v-3.607h1.688v-1.283h-1.688V56.15h-1.473v1.933h-1.203v1.283h1.203v3.756zm7.67-5.04c-1.135 0-1.689.46-2.04 1.04l-.162-1.04h-1.297V65h1.459v-3.472c0-1.068.419-2.08 1.716-2.08h.648v-1.365h-.324zm7.336 5.648c-.297 0-.446-.095-.446-.446v-2.77c0-1.634-1.054-2.513-2.891-2.513-1.743 0-2.905.838-3.053 2.19h1.432c.108-.609.689-1.014 1.553-1.014.96 0 1.514.473 1.514 1.243v.419h-1.743c-1.932 0-2.959.797-2.959 2.215 0 1.284 1.054 2.027 2.567 2.027 1.121 0 1.824-.486 2.283-1.189 0 .69.325 1.108 1.27 1.108h.77v-1.27h-.297zm-1.891-1.567c-.014 1.067-.716 1.783-1.932 1.783-.798 0-1.284-.405-1.284-.986 0-.703.5-1.04 1.405-1.04h1.811v.243zm8.186-3.121c-.446-.608-1.189-1.04-2.243-1.04-1.878 0-3.269 1.404-3.269 3.54 0 2.215 1.391 3.54 3.269 3.54 1.095 0 1.811-.514 2.257-1.122l.175 1.04h1.27v-9.458h-1.459v3.5zm-1.999 4.81c-1.216 0-2.014-.946-2.014-2.31 0-1.352.798-2.298 2.014-2.298 1.215 0 2.013.946 2.013 2.324 0 1.338-.798 2.284-2.013 2.284zm8.167 1.23c1.716 0 2.878-1.041 3.121-2.406H146c-.203.77-.851 1.216-1.743 1.216-1.148 0-1.891-.77-1.932-1.945v-.095h5.215a3.97 3.97 0 00.041-.554c-.041-2.027-1.378-3.297-3.378-3.297-2.04 0-3.405 1.419-3.405 3.554 0 2.12 1.365 3.526 3.54 3.526zm-1.959-4.297c.108-.987.905-1.608 1.838-1.608 1.013 0 1.729.58 1.851 1.608h-3.689z" fill="#000"/><path d="M1.57 13.152c0 5.206 2.458 8.005 7.193 8.005 4.76 0 7.246-2.799 7.246-8.005V2.69H13v10.62c0 3.401-1.308 5.18-4.238 5.18-2.877 0-4.185-1.779-4.185-5.18V2.69H1.569v10.463zm16.947 1.832c.104 3.662 2.851 6.173 7.403 6.173 4.028 0 6.775-2.276 6.775-5.572.026-3.61-2.93-4.578-5.965-5.127-2.877-.497-4.76-.89-4.76-2.773 0-1.726 1.438-2.615 3.505-2.615 2.223 0 3.688 1.255 3.924 3.112h3.008c-.131-3.374-2.747-5.65-6.932-5.65-3.898 0-6.514 2.171-6.514 5.363 0 3.636 2.878 4.604 5.912 5.127 2.904.523 4.813.941 4.813 2.877 0 1.753-1.57 2.72-3.74 2.72-2.564 0-4.238-1.438-4.395-3.583l-3.034-.052zm24.199 2.38c0 2.433 1.098 3.636 3.662 3.636h2.616v-2.485h-1.988c-1.073 0-1.44-.392-1.44-1.439v-6.984h3.27V7.607h-3.27v-3.74h-2.85v3.74h-2.328v2.485h2.328v7.272zm14.15 3.793c3.322 0 5.572-2.014 6.043-4.656h-2.825c-.393 1.49-1.648 2.354-3.375 2.354-2.223 0-3.662-1.491-3.74-3.767v-.183h10.097c.052-.366.078-.732.078-1.072-.078-3.924-2.668-6.383-6.54-6.383-3.95 0-6.591 2.747-6.591 6.88 0 4.106 2.642 6.827 6.853 6.827zm-3.793-8.318c.21-1.91 1.753-3.113 3.558-3.113 1.962 0 3.348 1.125 3.584 3.113h-7.142zm18.502 8.318c3.427 0 5.703-1.91 6.226-4.944h-2.982c-.34 1.543-1.491 2.537-3.218 2.537-2.275 0-3.766-1.805-3.766-4.42 0-2.642 1.49-4.473 3.767-4.473 1.752 0 2.877.967 3.243 2.537h2.956c-.55-3.034-2.694-4.944-6.147-4.944-4.055 0-6.723 2.747-6.723 6.88 0 4.185 2.59 6.827 6.644 6.827zM87 7.45c-2.093 0-3.374.942-4.212 2.093V2.689h-2.825V21h2.825v-6.775c0-2.694 1.36-4.342 3.584-4.342 2.093 0 3.218 1.36 3.218 3.897V21h2.825v-7.455c0-4.473-2.433-6.095-5.415-6.095zM7.743 45.157c3.322 0 5.572-2.014 6.042-4.656H10.96c-.392 1.49-1.648 2.354-3.374 2.354-2.224 0-3.662-1.491-3.74-3.767v-.183h10.096c.053-.366.079-.732.079-1.072-.079-3.924-2.668-6.383-6.54-6.383-3.95 0-6.592 2.747-6.592 6.88 0 4.107 2.642 6.827 6.854 6.827zM3.95 36.839c.21-1.91 1.752-3.113 3.557-3.113 1.962 0 3.349 1.125 3.584 3.113H3.95zm24.597 5.702c-.576 0-.863-.183-.863-.863v-5.362c0-3.166-2.04-4.866-5.598-4.866-3.375 0-5.624 1.622-5.912 4.238h2.773c.209-1.178 1.334-1.962 3.008-1.962 1.857 0 2.93.915 2.93 2.406v.811H21.51c-3.74 0-5.728 1.544-5.728 4.29 0 2.485 2.04 3.924 4.97 3.924 2.17 0 3.531-.942 4.42-2.302 0 1.334.628 2.145 2.46 2.145h1.49v-2.459h-.575zm-3.662-3.034c-.027 2.066-1.387 3.453-3.741 3.453-1.543 0-2.485-.785-2.485-1.91 0-1.36.968-2.014 2.72-2.014h3.506v.47zm12.551-7.9c-2.197 0-3.27.89-3.95 2.014l-.314-2.014h-2.51V45h2.824v-6.723c0-2.066.811-4.028 3.322-4.028h1.256v-2.642h-.628zm9.433-.157c-2.171 0-3.453.863-4.29 1.91l-.314-1.753h-2.459V45h2.825v-6.749c0-2.72 1.334-4.368 3.584-4.368 2.119 0 3.191 1.36 3.191 3.897V45h2.852v-7.455c0-4.473-2.433-6.095-5.389-6.095zm9.397-1.726c.968 0 1.726-.707 1.726-1.7 0-.995-.758-1.701-1.726-1.701s-1.727.706-1.727 1.7.759 1.7 1.727 1.7zM54.826 45h2.826V31.607h-2.825V45zm12.658-13.55c-2.171 0-3.453.863-4.29 1.91l-.314-1.753h-2.459V45h2.825v-6.749c0-2.72 1.334-4.368 3.584-4.368 2.119 0 3.191 1.36 3.191 3.897V45h2.852v-7.455c0-4.473-2.433-6.095-5.389-6.095zM85.67 33.7c-.864-1.334-2.302-2.25-4.395-2.25-3.636 0-6.33 2.694-6.33 6.801 0 4.264 2.694 6.801 6.33 6.801 2.093 0 3.48-.863 4.369-2.197v1.491c0 2.564-1.387 3.74-3.846 3.74-1.988 0-3.296-.862-3.636-2.354h-2.877c.261 3.009 2.746 4.657 6.304 4.657 4.813 0 6.853-2.302 6.853-5.938V31.607h-2.458L85.67 33.7zm-3.924 8.972c-2.354 0-3.898-1.805-3.898-4.42 0-2.59 1.544-4.422 3.898-4.422s3.898 1.831 3.898 4.474c0 2.563-1.544 4.368-3.898 4.368zm8.882-2.093c.078 2.904 2.537 4.578 6.12 4.578 3.244 0 5.677-1.622 5.677-4.185 0-2.982-2.485-3.61-5.545-3.976-1.936-.21-3.218-.367-3.218-1.622 0-1.073 1.099-1.753 2.773-1.753 1.674 0 2.825.863 2.982 2.093h2.773c-.183-2.747-2.511-4.264-5.807-4.264-3.218-.026-5.494 1.622-5.494 4.16 0 2.772 2.407 3.426 5.467 3.792 2.067.262 3.296.366 3.296 1.805 0 1.072-1.15 1.753-2.903 1.753-2.04 0-3.244-.994-3.349-2.38h-2.772z" fill="url(#paint0_linear_10_111)"/><defs><linearGradient id="paint0_linear_10_111" x1="107.742" y1="16.5" x2="0" y2="16.5" gradientUnits="userSpaceOnUse"><stop stop-color="#FF4343"/><stop offset=".5" stop-color="#9C0B93"/><stop offset="1" stop-color="#4C1BB7"/></linearGradient></defs></svg>