<svg width="95" height="32" viewBox="0 0 95 32" fill="none" xmlns="http://www.w3.org/2000/svg"><rect y=".353" width="95" height="31" rx="15.5" fill="#000"/><path d="M15.273 12.381h3.102v8.472h1.189V12.38h3.102v-1.093h-7.393v1.093zm10.963 1.503c-1.244 0-1.777.52-2.105 1.052l-.15-1.052h-.97v6.969h1.12V17.3c0-1.107.397-2.323 1.859-2.323h.56v-1.093h-.314zm7.208 5.944c-.315 0-.451-.095-.451-.465v-3.047c0-1.626-1.025-2.514-2.801-2.514-1.681 0-2.788.806-2.952 2.173h1.12c.137-.71.793-1.175 1.777-1.175 1.093 0 1.735.546 1.735 1.448v.478h-2.05c-1.83 0-2.8.78-2.8 2.173 0 1.27 1.038 2.036 2.568 2.036 1.203 0 1.9-.533 2.337-1.162.014.684.328 1.08 1.257 1.08h.615v-1.025h-.355zm-1.572-1.817c0 1.161-.806 1.967-2.2 1.967-.929 0-1.516-.464-1.516-1.147 0-.793.56-1.162 1.557-1.162h2.16v.342zm8.201-3.061c-.423-.67-1.216-1.148-2.39-1.148-1.928 0-3.349 1.435-3.349 3.567 0 2.268 1.421 3.566 3.348 3.566 1.175 0 1.927-.56 2.391-1.202l.15 1.12h.97v-9.565h-1.12v3.662zm-2.282 4.987c-1.38 0-2.309-1.052-2.309-2.569 0-1.516.93-2.568 2.31-2.568 1.366 0 2.295 1.066 2.295 2.596 0 1.49-.93 2.541-2.296 2.541zm8.14.998c1.613 0 2.76-1.025 3.034-2.419H47.83c-.233.902-.998 1.421-1.982 1.421-1.325 0-2.159-.929-2.2-2.254v-.096h5.411c.014-.164.028-.328.028-.478-.055-2.063-1.34-3.307-3.307-3.307-1.968 0-3.307 1.449-3.307 3.567 0 2.131 1.367 3.566 3.457 3.566zm-2.213-4.277c.109-1.134 1.052-1.872 2.077-1.872 1.161 0 1.98.67 2.09 1.872h-4.167zm13.64-2.856c-1.175 0-1.885.492-2.295 1.025l-.15-.943h-.97v6.969h1.12v-3.485c0-1.57.792-2.541 2.104-2.541 1.216 0 1.886.765 1.886 2.214v3.812h1.12v-3.88c0-2.31-1.243-3.17-2.814-3.17zm7.375 7.133c2.036 0 3.457-1.448 3.457-3.566s-1.421-3.567-3.457-3.567c-2.036 0-3.457 1.449-3.457 3.567 0 2.117 1.421 3.566 3.457 3.566zm0-.998c-1.38 0-2.31-1.079-2.31-2.569 0-1.489.93-2.568 2.31-2.568s2.31 1.08 2.31 2.569c0 1.489-.93 2.568-2.31 2.568zm6.114.916h1.23l1.749-5.179 1.68 5.179h1.23l2.323-6.969h-1.134l-1.817 5.67-1.736-5.67h-1.038l-1.831 5.67-1.736-5.67h-1.175l2.255 6.969z" fill="#fff"/></svg>