<svg width="144" height="49" viewBox="0 0 144 49" fill="none" xmlns="http://www.w3.org/2000/svg"><path d="M1.536 18h2.76V1.2h-2.76V18zM13.588 5.568c-1.992 0-3.168.792-3.936 1.752l-.288-1.608H7.108V18H9.7v-6.192c0-2.496 1.224-4.008 3.288-4.008 1.944 0 2.928 1.248 2.928 3.576V18h2.616v-6.84c0-4.104-2.232-5.592-4.944-5.592zM23.686 18h3.168L31.39 5.712h-2.736l-3.336 9.504-3.384-9.504H19.15L23.686 18zm14.285.144c3.048 0 5.112-1.848 5.544-4.272h-2.592c-.36 1.368-1.512 2.16-3.096 2.16-2.04 0-3.36-1.368-3.432-3.456v-.168h9.264c.048-.336.072-.672.072-.984-.072-3.6-2.448-5.856-6-5.856-3.624 0-6.048 2.52-6.048 6.312 0 3.768 2.424 6.264 6.288 6.264zm-3.48-7.632c.192-1.752 1.608-2.856 3.264-2.856 1.8 0 3.072 1.032 3.288 2.856h-6.552zm10.737 3.432c.072 2.664 2.328 4.2 5.616 4.2 2.976 0 5.208-1.488 5.208-3.84 0-2.736-2.28-3.312-5.088-3.648-1.776-.192-2.952-.336-2.952-1.488 0-.984 1.008-1.608 2.544-1.608s2.592.792 2.736 1.92h2.544c-.168-2.52-2.304-3.912-5.328-3.912-2.952-.024-5.04 1.488-5.04 3.816 0 2.544 2.208 3.144 5.016 3.48 1.896.24 3.024.336 3.024 1.656 0 .984-1.056 1.608-2.664 1.608-1.872 0-2.976-.912-3.072-2.184h-2.544zm13.721.72c0 2.232 1.008 3.336 3.36 3.336h2.4v-2.28h-1.824c-.984 0-1.32-.36-1.32-1.32V7.992h3v-2.28h-3V2.28H58.95v3.432h-2.136v2.28h2.136v6.672zm12.983 3.48c3.048 0 5.112-1.848 5.544-4.272h-2.592c-.36 1.368-1.512 2.16-3.096 2.16-2.04 0-3.36-1.368-3.432-3.456v-.168h9.264c.048-.336.072-.672.072-.984-.072-3.6-2.448-5.856-6-5.856-3.624 0-6.048 2.52-6.048 6.312 0 3.768 2.424 6.264 6.288 6.264zm-3.48-7.632c.192-1.752 1.608-2.856 3.264-2.856 1.8 0 3.072 1.032 3.288 2.856h-6.552zm20.672-3.096c-.792-1.08-2.112-1.848-3.984-1.848-3.336 0-5.808 2.496-5.808 6.288 0 3.936 2.472 6.288 5.808 6.288 1.944 0 3.216-.912 4.008-1.992L89.46 18h2.256V1.2h-2.592v6.216zm-3.552 8.544c-2.16 0-3.576-1.68-3.576-4.104 0-2.4 1.416-4.08 3.576-4.08s3.576 1.68 3.576 4.128c0 2.376-1.416 4.056-3.576 4.056zm16.137-11.976c.888 0 1.584-.648 1.584-1.56s-.696-1.56-1.584-1.56c-.888 0-1.584.648-1.584 1.56s.696 1.56 1.584 1.56zM100.389 18h2.592V5.712h-2.592V18zm11.613-12.432c-1.992 0-3.168.792-3.936 1.752l-.288-1.608h-2.256V18h2.592v-6.192c0-2.496 1.224-4.008 3.288-4.008 1.944 0 2.928 1.248 2.928 3.576V18h2.616v-6.84c0-4.104-2.232-5.592-4.944-5.592zM4.824 44.072l-.48 1.2C3.96 46.28 3.72 46.52 2.712 46.52H.888v2.28h2.784c1.8 0 2.328-.888 3.096-2.88l5.568-14.208h-2.76L6.24 41.048l-3.432-9.336H.048l4.776 12.36zm14.068.072c3.745 0 6.265-2.52 6.265-6.288 0-3.744-2.52-6.288-6.265-6.288-3.743 0-6.263 2.544-6.263 6.288 0 3.768 2.52 6.288 6.263 6.288zm0-2.208c-2.183 0-3.6-1.704-3.6-4.08 0-2.376 1.417-4.08 3.6-4.08 2.184 0 3.625 1.704 3.625 4.08 0 2.376-1.44 4.08-3.625 4.08zm16.773-4.08c0 2.544-1.2 4.032-3.168 4.032-1.896 0-2.856-1.224-2.856-3.624v-6.552h-2.592v6.84c0 4.2 2.232 5.592 4.848 5.592 1.896 0 3.024-.768 3.792-1.704l.288 1.56h2.28V31.712h-2.592v6.144zm11.362-6.144c-2.016 0-3 .816-3.624 1.848l-.288-1.848h-2.304V44h2.592v-6.168c0-1.896.744-3.696 3.048-3.696h1.152v-2.424h-.576zm7.787 8.232c.072 2.664 2.328 4.2 5.616 4.2 2.976 0 5.208-1.488 5.208-3.84 0-2.736-2.28-3.312-5.088-3.648-1.776-.192-2.952-.336-2.952-1.488 0-.984 1.008-1.608 2.544-1.608s2.592.792 2.736 1.92h2.544c-.168-2.52-2.304-3.912-5.328-3.912-2.952-.024-5.04 1.488-5.04 3.816 0 2.544 2.208 3.144 5.016 3.48 1.896.24 3.024.336 3.024 1.656 0 .984-1.056 1.608-2.664 1.608-1.872 0-2.976-.912-3.072-2.184h-2.544zm21.257-2.088c0 2.544-1.2 4.032-3.168 4.032-1.896 0-2.856-1.224-2.856-3.624v-6.552h-2.592v6.84c0 4.2 2.232 5.592 4.848 5.592 1.896 0 3.024-.768 3.792-1.704l.288 1.56h2.28V31.712h-2.592v6.144zm10.786 6.288c3.144 0 5.232-1.752 5.712-4.536h-2.736c-.312 1.416-1.368 2.328-2.952 2.328-2.088 0-3.456-1.656-3.456-4.056 0-2.424 1.368-4.104 3.456-4.104 1.608 0 2.64.888 2.976 2.328h2.712c-.504-2.784-2.472-4.536-5.64-4.536-3.72 0-6.168 2.52-6.168 6.312 0 3.84 2.376 6.264 6.096 6.264zm13.336 0c3.144 0 5.232-1.752 5.712-4.536h-2.736c-.312 1.416-1.368 2.328-2.952 2.328-2.088 0-3.456-1.656-3.456-4.056 0-2.424 1.368-4.104 3.456-4.104 1.608 0 2.64.888 2.976 2.328h2.712c-.504-2.784-2.472-4.536-5.64-4.536-3.72 0-6.168 2.52-6.168 6.312 0 3.84 2.376 6.264 6.096 6.264zm13.528 0c3.048 0 5.112-1.848 5.544-4.272h-2.592c-.36 1.368-1.512 2.16-3.096 2.16-2.04 0-3.36-1.368-3.432-3.456v-.168h9.264c.048-.336.072-.672.072-.984-.072-3.6-2.448-5.856-6-5.856-3.624 0-6.048 2.52-6.048 6.312 0 3.768 2.424 6.264 6.288 6.264zm-3.48-7.632c.192-1.752 1.608-2.856 3.264-2.856 1.8 0 3.072 1.032 3.288 2.856h-6.552zm10.737 3.432c.072 2.664 2.328 4.2 5.616 4.2 2.976 0 5.208-1.488 5.208-3.84 0-2.736-2.28-3.312-5.088-3.648-1.776-.192-2.952-.336-2.952-1.488 0-.984 1.008-1.608 2.544-1.608s2.592.792 2.736 1.92h2.544c-.168-2.52-2.304-3.912-5.328-3.912-2.952-.024-5.04 1.488-5.04 3.816 0 2.544 2.208 3.144 5.016 3.48 1.896.24 3.024.336 3.024 1.656 0 .984-1.056 1.608-2.664 1.608-1.872 0-2.976-.912-3.072-2.184h-2.544zm12.071 0c.072 2.664 2.328 4.2 5.616 4.2 2.976 0 5.208-1.488 5.208-3.84 0-2.736-2.28-3.312-5.088-3.648-1.776-.192-2.952-.336-2.952-1.488 0-.984 1.008-1.608 2.544-1.608s2.592.792 2.736 1.92h2.544c-.168-2.52-2.304-3.912-5.328-3.912-2.952-.024-5.04 1.488-5.04 3.816 0 2.544 2.208 3.144 5.016 3.48 1.896.24 3.024.336 3.024 1.656 0 .984-1.056 1.608-2.664 1.608-1.872 0-2.976-.912-3.072-2.184h-2.544z" fill="#000"/></svg>