<svg width="751" height="535" viewBox="0 0 751 535" fill="none" xmlns="http://www.w3.org/2000/svg"><path d="M.5 0v535h750V0H.5zm621.656 426.085c-8.94 0-53.641-.992-71.024-.992-18.377 0-74.004.992-83.441.992v-6.944l15.893-2.48c15.397-2.481 21.854-6.449 21.854-15.874 0-7.937-4.967-17.858-15.894-34.724l-55.627-84.824-55.627 76.391c-12.914 17.858-18.874 31.252-18.874 41.173 0 9.921 5.96 15.873 21.357 18.353l16.39 2.481v6.945c-8.94 0-48.674-.993-66.554-.993-17.88 0-46.191.993-55.627.993v-7.441l8.443-1.488c22.35-3.969 43.211-22.819 60.098-44.149l80.46-105.163-78.97-117.068c-18.377-27.282-31.291-39.684-51.158-43.156l-10.43-1.984v-6.945c8.94 0 53.641.992 71.024.992 18.377 0 73.011-.992 82.448-.992v6.945l-15.893 2.48c-13.411 1.984-20.861 6.448-20.861 15.873 0 7.937 4.967 17.858 15.894 34.724l47.68 73.416 46.688-65.479c12.416-17.858 18.873-31.251 18.873-40.676s-6.457-15.874-21.357-18.354l-16.39-2.48v-6.945c8.94 0 48.674.992 66.554.992 17.88 0 46.191-.992 55.627-.992v6.945l-8.443 1.488c-22.35 3.968-42.714 20.834-60.097 44.148l-72.018 94.25 87.414 127.981c18.377 27.283 31.291 39.684 51.158 43.157l10.43 1.984v7.44z" fill="#fff"/></svg>