<svg width="123" height="39" viewBox="0 0 123 39" fill="none" xmlns="http://www.w3.org/2000/svg"><path d="M.22.85h2.64V8h.594V.85h2.64V.3H.22v.55zm8.432 1.573c-1.034 0-1.474.495-1.705 1.111l-.088-1.111h-.484V8h.56V5.173c0-1.133.298-2.211 1.607-2.211h.407v-.539h-.297zm5.798 5.06c-.33 0-.495-.11-.495-.539V4.348c0-1.276-.781-1.991-2.178-1.991-1.276 0-2.123.616-2.266 1.628h.56c.144-.682.738-1.133 1.684-1.133 1.045 0 1.639.55 1.639 1.474v.484h-1.892c-1.43 0-2.2.616-2.2 1.661 0 .99.78 1.595 1.969 1.595 1.133 0 1.804-.517 2.145-1.21v.198c-.022.66.253.946.913.946h.33v-.517h-.21zm-1.056-1.738c0 1.067-.76 1.837-2.08 1.837-.89 0-1.44-.451-1.44-1.144 0-.737.55-1.144 1.584-1.144h1.936v.451zm6.483-2.068c-.34-.792-1.089-1.32-2.134-1.32-1.529 0-2.629 1.166-2.629 2.849 0 1.76 1.1 2.86 2.63 2.86 1.044 0 1.77-.561 2.122-1.342L19.954 8h.484V.3h-.56v3.377zm-2.09 3.883c-1.243 0-2.1-.968-2.1-2.354 0-1.375.857-2.354 2.1-2.354s2.101.979 2.101 2.365c0 1.375-.858 2.343-2.1 2.343zm6.435.506c1.22 0 2.156-.792 2.398-1.914h-.572c-.22.869-.957 1.408-1.87 1.408-1.243 0-2.024-.946-2.046-2.244v-.099h4.554c0-.077.01-.165.01-.231-.054-1.661-1.077-2.629-2.573-2.629-1.53 0-2.574 1.166-2.574 2.816 0 1.749 1.089 2.893 2.673 2.893zm-2.046-3.322c.088-1.133.935-1.892 1.958-1.892 1.089 0 1.87.671 1.958 1.892h-3.916zM30.913 8l.924-2.354h3.542L36.303 8h.638L33.971.3h-.693L30.298 8h.615zM33.608.96l1.595 4.136h-3.19L33.608.96zm6.872 1.397c-1.045 0-1.771.561-2.123 1.342l-.088-1.276h-.484V10.2h.561V6.713c.319.814 1.078 1.353 2.134 1.353 1.529 0 2.629-1.166 2.629-2.86 0-1.749-1.1-2.849-2.629-2.849zm-.044 5.203c-1.243 0-2.101-.968-2.101-2.365 0-1.364.858-2.343 2.101-2.343 1.243 0 2.101.979 2.101 2.354 0 1.386-.858 2.354-2.101 2.354zm6.479-5.203c-1.045 0-1.771.561-2.123 1.342l-.088-1.276h-.484V10.2h.56V6.713c.32.814 1.079 1.353 2.135 1.353 1.529 0 2.629-1.166 2.629-2.86 0-1.749-1.1-2.849-2.63-2.849zM46.87 7.56c-1.243 0-2.101-.968-2.101-2.365 0-1.364.858-2.343 2.1-2.343 1.244 0 2.102.979 2.102 2.354 0 1.386-.858 2.354-2.101 2.354zm3.783.44h.561V.3h-.56V8zm4.344.066c1.221 0 2.156-.792 2.398-1.914h-.572c-.22.869-.957 1.408-1.87 1.408-1.243 0-2.024-.946-2.046-2.244v-.099h4.554c0-.077.011-.165.011-.231-.055-1.661-1.078-2.629-2.574-2.629-1.529 0-2.574 1.166-2.574 2.816 0 1.749 1.089 2.893 2.673 2.893zm-2.046-3.322c.088-1.133.935-1.892 1.958-1.892 1.089 0 1.87.671 1.958 1.892h-3.916zM58.265.245c-.297 0-.484.176-.484.429 0 .264.176.396.385.396.11 0 .22-.044.275-.132.077.077.099.176.099.286 0 .418-.264.847-.825.869v.33c.759-.033 1.232-.539 1.232-1.265 0-.506-.286-.913-.682-.913zm1.331 6.039c.045 1.155.98 1.782 2.377 1.782 1.199 0 2.166-.605 2.166-1.595 0-1.177-1.033-1.408-2.232-1.573-.87-.121-1.64-.22-1.64-1.001 0-.638.627-1.056 1.573-1.056.891 0 1.53.429 1.628 1.155h.572c-.099-1.089-.99-1.639-2.2-1.639-1.243-.011-2.134.627-2.134 1.584 0 1.122 1.034 1.331 2.178 1.485.935.132 1.694.253 1.694 1.078 0 .66-.693 1.078-1.606 1.078-1.066 0-1.76-.495-1.803-1.298h-.572zm15.41 1.166c-.374 0-.55-.077-.792-.418l-.022-.033c.649-.693 1.034-1.694 1.034-2.849 0-2.277-1.474-3.916-3.597-3.916-2.112 0-3.597 1.639-3.597 3.916s1.485 3.916 3.597 3.916c.836 0 1.573-.253 2.156-.693l.077.11c.286.407.55.517 1.078.517h.616v-.55h-.55zm-3.377.066c-1.76 0-2.981-1.397-2.981-3.366s1.22-3.366 2.98-3.366c1.772 0 2.993 1.397 2.993 3.366 0 .946-.286 1.771-.781 2.354l-.43-.605c-.296-.407-.527-.528-.978-.528h-.748v.55h.66c.297 0 .484.099.715.418l.396.561c-.495.396-1.111.616-1.826.616zm5.994-6.237c0 .352-.165.594-.506.594h-1.32v.517h1.32c.231 0 .396-.066.495-.187V8h.572V.3h-.56v.979zm7.464 6.787c1.22 0 2.156-.792 2.398-1.914h-.572c-.22.869-.957 1.408-1.87 1.408-1.243 0-2.024-.946-2.046-2.244v-.099h4.554c0-.077.01-.165.01-.231-.054-1.661-1.077-2.629-2.573-2.629-1.53 0-2.574 1.166-2.574 2.816 0 1.749 1.089 2.893 2.673 2.893zM83.04 4.744c.088-1.133.935-1.892 1.958-1.892 1.089 0 1.87.671 1.958 1.892H83.04zm10.536 2.739c-.33 0-.495-.11-.495-.539V4.348c0-1.276-.781-1.991-2.178-1.991-1.276 0-2.123.616-2.266 1.628h.56c.144-.682.738-1.133 1.684-1.133 1.045 0 1.639.55 1.639 1.474v.484h-1.892c-1.43 0-2.2.616-2.2 1.661 0 .99.78 1.595 1.969 1.595 1.133 0 1.804-.517 2.145-1.21v.198c-.022.66.253.946.913.946h.33v-.517h-.21zM92.52 5.745c0 1.067-.76 1.837-2.08 1.837-.89 0-1.44-.451-1.44-1.144 0-.737.55-1.144 1.584-1.144h1.936v.451zm4.292-3.322c-1.034 0-1.474.495-1.705 1.111l-.088-1.111h-.484V8h.561V5.173c0-1.133.297-2.211 1.606-2.211h.407v-.539h-.297zm3.702-.066c-1.023 0-1.683.528-2.002 1.254l-.088-1.188h-.484V8h.561V5.25c0-1.452.737-2.376 1.925-2.376 1.078 0 1.727.704 1.727 2.024V8h.561V4.876c0-1.76-.935-2.519-2.2-2.519zm3.728-1.111c.22 0 .396-.165.396-.396a.388.388 0 00-.396-.396.388.388 0 00-.396.396c0 .231.176.396.396.396zM103.957 8h.561V2.423h-.561V8zm4.454-5.643c-1.023 0-1.683.528-2.002 1.254l-.088-1.188h-.484V8h.561V5.25c0-1.452.737-2.376 1.925-2.376 1.078 0 1.727.704 1.727 2.024V8h.561V4.876c0-1.76-.935-2.519-2.2-2.519zm7.984 1.364c-.341-.825-1.089-1.364-2.123-1.364-1.529 0-2.629 1.155-2.629 2.849 0 1.76 1.1 2.86 2.629 2.86 1.045 0 1.782-.55 2.134-1.419v.99c0 1.485-.704 2.123-2.046 2.123-1.045 0-1.771-.473-1.947-1.32h-.583c.176 1.188 1.133 1.826 2.486 1.826 1.804 0 2.651-.858 2.651-2.607V2.423h-.484l-.088 1.298zm-2.079 3.839c-1.243 0-2.101-.968-2.101-2.354 0-1.386.858-2.354 2.101-2.354 1.243 0 2.101.968 2.101 2.365 0 1.375-.858 2.343-2.101 2.343zm3.718-1.276c.044 1.155.979 1.782 2.376 1.782 1.199 0 2.167-.605 2.167-1.595 0-1.177-1.034-1.408-2.233-1.573-.869-.121-1.639-.22-1.639-1.001 0-.638.627-1.056 1.573-1.056.891 0 1.529.429 1.628 1.155h.572c-.099-1.089-.99-1.639-2.2-1.639-1.243-.011-2.134.627-2.134 1.584 0 1.122 1.034 1.331 2.178 1.485.935.132 1.694.253 1.694 1.078 0 .66-.693 1.078-1.606 1.078-1.067 0-1.76-.495-1.804-1.298h-.572zM1.639 17.423v-.836c0-.55.209-.77.77-.77h.803V15.3h-.825c-.935 0-1.309.407-1.309 1.298v.825H.022v.517h1.056V23h.561v-5.06h2.387V23h.561v-5.577H1.639zm2.673-1.969a.388.388 0 00-.396.396c0 .231.176.396.396.396a.381.381 0 00.396-.396.381.381 0 00-.396-.396zm3.867 1.969c-1.034 0-1.474.495-1.705 1.111l-.088-1.111h-.484V23h.561v-2.827c0-1.133.297-2.211 1.606-2.211h.407v-.539H8.18zm.736 3.861c.044 1.155.979 1.782 2.376 1.782 1.199 0 2.167-.605 2.167-1.595 0-1.177-1.034-1.408-2.233-1.573-.87-.121-1.64-.22-1.64-1.001 0-.638.628-1.056 1.574-1.056.89 0 1.529.429 1.628 1.155h.572c-.1-1.089-.99-1.639-2.2-1.639-1.243-.011-2.134.627-2.134 1.584 0 1.122 1.034 1.331 2.178 1.485.935.132 1.694.253 1.694 1.078 0 .66-.693 1.078-1.606 1.078-1.067 0-1.76-.495-1.804-1.298h-.572zm6.031.418c0 .891.363 1.298 1.31 1.298h.813v-.517h-.77c-.583 0-.792-.22-.792-.792V17.94h1.507v-.517h-1.507v-1.562h-.56v1.562H13.89v.517h1.056v3.762zM22.241 23h.605l1.65-4.686L26.069 23h.605l1.98-5.577h-.573l-1.715 4.906-1.596-4.906h-.517l-1.683 4.906-1.628-4.906h-.593L22.24 23zm7.483-6.754c.22 0 .396-.165.396-.396a.388.388 0 00-.396-.396.388.388 0 00-.396.396c0 .231.176.396.396.396zM29.438 23H30v-5.577h-.56V23zm2.298-1.298c0 .891.363 1.298 1.31 1.298h.813v-.517h-.77c-.583 0-.792-.22-.792-.792V17.94h1.507v-.517h-1.507v-1.562h-.56v1.562H30.68v.517h1.056v3.762zm5.55-4.345c-1.044 0-1.693.583-2.012 1.386V15.3h-.561V23h.56v-2.75c0-1.452.738-2.376 1.926-2.376 1.067 0 1.727.704 1.727 2.024V23h.56v-3.124c0-1.76-.934-2.519-2.2-2.519zm8.882 5.709c1.22 0 2.156-.792 2.398-1.914h-.572c-.22.869-.957 1.408-1.87 1.408-1.243 0-2.024-.946-2.046-2.244v-.099h4.554c0-.077.01-.165.01-.231-.054-1.661-1.077-2.629-2.573-2.629-1.53 0-2.574 1.166-2.574 2.816 0 1.749 1.089 2.893 2.673 2.893zm-2.046-3.322c.088-1.133.935-1.892 1.958-1.892 1.089 0 1.87.671 1.958 1.892h-3.916zM48.964 23h.65l1.847-2.453L53.31 23h.682l-2.167-2.849 2.057-2.728h-.638l-1.76 2.31-1.738-2.31h-.67l2.056 2.728L48.964 23zm6.244-1.298c0 .891.363 1.298 1.309 1.298h.814v-.517h-.77c-.583 0-.792-.22-.792-.792V17.94h1.507v-.517h-1.507v-1.562h-.561v1.562h-1.056v.517h1.056v3.762zm5.269 1.364c1.22 0 2.156-.792 2.398-1.914h-.572c-.22.869-.957 1.408-1.87 1.408-1.243 0-2.025-.946-2.047-2.244v-.099h4.554c0-.077.012-.165.012-.231-.055-1.661-1.078-2.629-2.575-2.629-1.529 0-2.574 1.166-2.574 2.816 0 1.749 1.09 2.893 2.674 2.893zm-2.046-3.322c.088-1.133.934-1.892 1.958-1.892 1.088 0 1.87.671 1.957 1.892h-3.915zm8.203-2.387c-1.023 0-1.683.528-2.002 1.254l-.088-1.188h-.484V23h.561v-2.75c0-1.452.737-2.376 1.925-2.376 1.078 0 1.727.704 1.727 2.024V23h.561v-3.124c0-1.76-.935-2.519-2.2-2.519zm7.91 1.32c-.34-.792-1.089-1.32-2.134-1.32-1.529 0-2.629 1.166-2.629 2.849 0 1.76 1.1 2.86 2.63 2.86 1.044 0 1.77-.561 2.122-1.342L74.621 23h.484v-7.7h-.56v3.377zm-2.09 3.883c-1.243 0-2.1-.968-2.1-2.354 0-1.375.857-2.354 2.1-2.354s2.101.979 2.101 2.365c0 1.375-.858 2.343-2.1 2.343zm6.435.506c1.22 0 2.156-.792 2.398-1.914h-.572c-.22.869-.957 1.408-1.87 1.408-1.243 0-2.024-.946-2.046-2.244v-.099h4.554c0-.077.01-.165.01-.231-.054-1.661-1.077-2.629-2.573-2.629-1.53 0-2.574 1.166-2.574 2.816 0 1.749 1.089 2.893 2.673 2.893zm-2.046-3.322c.088-1.133.935-1.892 1.958-1.892 1.089 0 1.87.671 1.958 1.892h-3.916zm10.183-1.067c-.34-.792-1.088-1.32-2.133-1.32-1.53 0-2.63 1.166-2.63 2.849 0 1.76 1.1 2.86 2.63 2.86 1.044 0 1.77-.561 2.123-1.342L87.103 23h.485v-7.7h-.561v3.377zm-2.09 3.883c-1.243 0-2.1-.968-2.1-2.354 0-1.375.858-2.354 2.1-2.354 1.243 0 2.101.979 2.101 2.365 0 1.375-.858 2.343-2.1 2.343zm9.51-5.203c-1.045 0-1.694.583-2.013 1.386V15.3h-.561V23h.56v-2.75c0-1.452.738-2.376 1.926-2.376 1.067 0 1.727.704 1.727 2.024V23h.56v-3.124c0-1.76-.934-2.519-2.2-2.519zm5.83 5.709c1.573 0 2.684-1.166 2.684-2.86 0-1.683-1.111-2.849-2.684-2.849-1.573 0-2.673 1.166-2.673 2.849 0 1.694 1.1 2.86 2.673 2.86zm0-.506c-1.243 0-2.1-.968-2.1-2.354 0-1.375.857-2.354 2.1-2.354s2.101.979 2.101 2.354c0 1.386-.858 2.354-2.101 2.354zm7.847-2.398c0 1.463-.726 2.387-1.881 2.387-1.034 0-1.672-.704-1.672-2.035v-3.091h-.561v3.124c0 1.749.913 2.519 2.145 2.519.99 0 1.639-.528 1.958-1.243l.077 1.177h.495v-5.577h-.561v2.739zm4.159-2.739c-1.034 0-1.474.495-1.705 1.111l-.088-1.111h-.484V23h.561v-2.827c0-1.133.297-2.211 1.606-2.211h.407v-.539h-.297zm.735 3.861c.044 1.155.979 1.782 2.376 1.782 1.199 0 2.167-.605 2.167-1.595 0-1.177-1.034-1.408-2.233-1.573-.869-.121-1.639-.22-1.639-1.001 0-.638.627-1.056 1.573-1.056.891 0 1.529.429 1.628 1.155h.572c-.099-1.089-.99-1.639-2.2-1.639-1.243-.011-2.134.627-2.134 1.584 0 1.122 1.034 1.331 2.178 1.485.935.132 1.694.253 1.694 1.078 0 .66-.693 1.078-1.606 1.078-1.067 0-1.76-.495-1.804-1.298h-.572zM3.124 38.066c1.573 0 2.684-1.166 2.684-2.86 0-1.683-1.111-2.849-2.684-2.849-1.573 0-2.673 1.166-2.673 2.849 0 1.694 1.1 2.86 2.673 2.86zm0-.506c-1.243 0-2.101-.968-2.101-2.354 0-1.375.858-2.354 2.101-2.354 1.243 0 2.101.979 2.101 2.354 0 1.386-.858 2.354-2.101 2.354zm6.373-5.203c-1.023 0-1.683.528-2.002 1.254l-.088-1.188h-.484V38h.56v-2.75c0-1.452.738-2.376 1.926-2.376 1.078 0 1.727.704 1.727 2.024V38h.56v-3.124c0-1.76-.934-2.519-2.2-2.519zm9.794 5.709c1.65 0 2.816-.891 3.146-2.442h-.627c-.33 1.232-1.22 1.892-2.53 1.892-1.782 0-2.904-1.397-2.904-3.366s1.144-3.366 2.926-3.366c1.287 0 2.19.671 2.53 1.881h.627c-.34-1.54-1.507-2.431-3.124-2.431-2.167 0-3.575 1.606-3.575 3.916 0 2.332 1.375 3.916 3.531 3.916zM23.716 38h.594v-3.553h3.322v-.55H24.31V30.85h3.982v-.55h-4.576V38zm7.862 0c2.442 0 3.872-1.518 3.872-3.85 0-2.343-1.43-3.85-3.872-3.85h-2.244V38h2.244zm-1.65-7.15h1.65c2.101 0 3.267 1.276 3.267 3.3 0 2.013-1.166 3.3-3.267 3.3h-1.65v-6.6zm6.455 5.434c.044 1.155.979 1.782 2.376 1.782 1.199 0 2.167-.605 2.167-1.595 0-1.177-1.034-1.408-2.233-1.573-.87-.121-1.64-.22-1.64-1.001 0-.638.628-1.056 1.574-1.056.89 0 1.529.429 1.628 1.155h.572c-.1-1.089-.99-1.639-2.2-1.639-1.243-.011-2.134.627-2.134 1.584 0 1.122 1.034 1.331 2.178 1.485.935.132 1.694.253 1.694 1.078 0 .66-.693 1.078-1.606 1.078-1.067 0-1.76-.495-1.804-1.298h-.572zm5.45 1.353c0 .253.176.418.418.418a.398.398 0 00.418-.418c0-.253-.176-.407-.418-.407s-.418.154-.418.407z" fill="#000"/></svg>