<svg width="143" height="43" viewBox="0 0 143 43" fill="none" xmlns="http://www.w3.org/2000/svg"><path d="M4.113 18h2.808L9.61 9.648 12.201 18h2.784l4.08-12.288h-2.64l-2.904 9.408-2.688-9.408H8.457L5.65 15.12 2.841 5.712H.105L4.113 18zM26.886 5.568c-1.92 0-3.096.864-3.864 1.92V1.2H20.43V18h2.592v-6.216c0-2.472 1.248-3.984 3.288-3.984 1.92 0 2.952 1.248 2.952 3.576V18h2.592v-6.84c0-4.104-2.232-5.592-4.968-5.592zm13.063 12.576c3.048 0 5.112-1.848 5.544-4.272h-2.592c-.36 1.368-1.512 2.16-3.096 2.16-2.04 0-3.36-1.368-3.432-3.456v-.168h9.264c.048-.336.072-.672.072-.984-.072-3.6-2.448-5.856-6-5.856-3.624 0-6.048 2.52-6.048 6.312 0 3.768 2.424 6.264 6.288 6.264zm-3.48-7.632c.192-1.752 1.608-2.856 3.264-2.856 1.8 0 3.072 1.032 3.288 2.856H36.47zm17.816-4.944c-1.992 0-3.168.792-3.936 1.752l-.288-1.608h-2.256V18h2.592v-6.192c0-2.496 1.224-4.008 3.288-4.008 1.944 0 2.928 1.248 2.928 3.576V18h2.616v-6.84c0-4.104-2.232-5.592-4.944-5.592zm14.33 9.096c0 2.232 1.008 3.336 3.36 3.336h2.4v-2.28H72.55c-.983 0-1.32-.36-1.32-1.32V7.992h3v-2.28h-3V2.28h-2.615v3.432h-2.136v2.28h2.136v6.672zm13.624-8.952c-2.016 0-3 .816-3.624 1.848l-.288-1.848h-2.304V18h2.592v-6.168c0-1.896.744-3.696 3.048-3.696h1.152V5.712h-.576zm13.032 10.032c-.528 0-.792-.168-.792-.792v-4.92c0-2.904-1.872-4.464-5.136-4.464-3.096 0-5.16 1.488-5.424 3.888h2.544c.192-1.08 1.224-1.8 2.76-1.8 1.704 0 2.688.84 2.688 2.208v.744h-3.096c-3.432 0-5.256 1.416-5.256 3.936 0 2.28 1.872 3.6 4.56 3.6 1.992 0 3.24-.864 4.056-2.112 0 1.224.576 1.968 2.256 1.968h1.368v-2.256h-.528zm-3.36-2.784c-.024 1.896-1.272 3.168-3.432 3.168-1.416 0-2.28-.72-2.28-1.752 0-1.248.888-1.848 2.496-1.848h3.216v.432zm14.542-5.544c-.792-1.08-2.112-1.848-3.984-1.848-3.336 0-5.808 2.496-5.808 6.288 0 3.936 2.472 6.288 5.808 6.288 1.944 0 3.216-.912 4.008-1.992l.312 1.848h2.256V1.2h-2.592v6.216zm-3.552 8.544c-2.16 0-3.576-1.68-3.576-4.104 0-2.4 1.416-4.08 3.576-4.08s3.576 1.68 3.576 4.128c0 2.376-1.416 4.056-3.576 4.056zm9.997-11.976c.888 0 1.584-.648 1.584-1.56s-.696-1.56-1.584-1.56c-.888 0-1.584.648-1.584 1.56s.696 1.56 1.584 1.56zM111.578 18h2.592V5.712h-2.592V18zm11.613-12.432c-1.992 0-3.168.792-3.936 1.752l-.288-1.608h-2.256V18h2.592v-6.192c0-2.496 1.224-4.008 3.288-4.008 1.944 0 2.928 1.248 2.928 3.576V18h2.616v-6.84c0-4.104-2.232-5.592-4.944-5.592zm16.685 2.064c-.792-1.224-2.112-2.064-4.032-2.064-3.336 0-5.808 2.472-5.808 6.24 0 3.912 2.472 6.24 5.808 6.24 1.92 0 3.192-.792 4.008-2.016V17.4c0 2.352-1.272 3.432-3.528 3.432-1.824 0-3.024-.792-3.336-2.16h-2.64c.24 2.76 2.52 4.272 5.784 4.272 4.416 0 6.288-2.112 6.288-5.448V5.712h-2.256l-.288 1.92zm-3.6 8.232c-2.16 0-3.576-1.656-3.576-4.056 0-2.376 1.416-4.056 3.576-4.056s3.576 1.68 3.576 4.104c0 2.352-1.416 4.008-3.576 4.008zM1.546 42h2.663V29.64L9.25 42h2.328l5.04-12.36V42h2.664V25.2h-3.504l-5.28 13.224L5.121 25.2H1.545V42zm26.38.144c3.048 0 5.112-1.848 5.544-4.272h-2.592c-.36 1.368-1.512 2.16-3.096 2.16-2.04 0-3.36-1.368-3.432-3.456v-.168h9.264c.048-.336.072-.672.072-.984-.072-3.6-2.448-5.856-6-5.856-3.624 0-6.048 2.52-6.048 6.312 0 3.768 2.424 6.264 6.288 6.264zm-3.48-7.632c.192-1.752 1.608-2.856 3.264-2.856 1.8 0 3.072 1.032 3.288 2.856h-6.552zm12.13 4.152c0 2.232 1.007 3.336 3.36 3.336h2.4v-2.28H40.51c-.984 0-1.32-.36-1.32-1.32v-6.408h3v-2.28h-3V26.28h-2.616v3.432H34.44v2.28h2.136v6.672zm18.5 1.08c-.528 0-.792-.168-.792-.792v-4.92c0-2.904-1.872-4.464-5.136-4.464-3.096 0-5.16 1.488-5.424 3.888h2.544c.192-1.08 1.224-1.8 2.76-1.8 1.704 0 2.688.84 2.688 2.208v.744H48.62c-3.432 0-5.256 1.416-5.256 3.936 0 2.28 1.872 3.6 4.56 3.6 1.992 0 3.24-.864 4.056-2.112 0 1.224.576 1.968 2.256 1.968h1.368v-2.256h-.528zm-3.36-2.784c-.024 1.896-1.272 3.168-3.432 3.168-1.416 0-2.28-.72-2.28-1.752 0-1.248.888-1.848 2.496-1.848h3.216v.432z" fill="url(#paint0_linear_42_1303)"/><defs><linearGradient id="paint0_linear_42_1303" x1="144.009" y1="21" x2=".009" y2="21" gradientUnits="userSpaceOnUse"><stop stop-color="#FF4343"/><stop offset=".5" stop-color="#9C0B93"/><stop offset="1" stop-color="#4C1BB7"/></linearGradient></defs></svg>