<svg width="100" height="30" viewBox="0 0 100 30" fill="none" xmlns="http://www.w3.org/2000/svg"><rect x=".005" y=".5" width="99" height="29" rx="14.5" fill="#123B63"/><path d="M21.59 19.5v-7.767h.914v6.974h3.921v.793H21.59zm8.306.1c-.867 0-1.55-.25-2.049-.75-.5-.507-.75-1.208-.75-2.104 0-.58.111-1.083.331-1.51a2.4 2.4 0 01.926-1.002 2.566 2.566 0 011.366-.363c.507 0 .933.106 1.278.32.345.212.61.517.793.913.183.39.275.852.275 1.389v.33h-4.285v-.562h3.701l-.187.143c0-.587-.132-1.046-.397-1.377-.264-.33-.657-.495-1.178-.495-.551 0-.98.194-1.29.584-.308.381-.462.9-.462 1.553v.099c0 .69.17 1.215.507 1.575.345.353.826.53 1.443.53.33 0 .639-.049.925-.144a2.6 2.6 0 00.838-.496l.308.628c-.242.235-.55.419-.925.55a3.604 3.604 0 01-1.168.188zm5.64 0c-.492 0-.922-.115-1.29-.342a2.367 2.367 0 01-.858-.992c-.199-.426-.298-.936-.298-1.531 0-.602.1-1.116.298-1.542.205-.426.492-.753.859-.98.367-.228.797-.342 1.289-.342.5 0 .929.128 1.289.385.367.25.61.591.727 1.025h-.133l.122-1.311h.859l-.066.65a9.12 9.12 0 00-.022.628V19.5h-.892v-1.3h.12c-.117.433-.36.775-.726 1.025-.368.25-.794.374-1.278.374zm.176-.728c.529 0 .947-.18 1.256-.54.308-.367.462-.9.462-1.597 0-.705-.154-1.238-.462-1.598-.309-.367-.727-.55-1.256-.55-.521 0-.94.183-1.256.55-.308.36-.463.893-.463 1.598 0 .698.155 1.23.463 1.597.316.36.735.54 1.256.54zm4.303.628v-4.197c0-.22-.007-.445-.022-.672a9.352 9.352 0 00-.044-.661h.86l.11 1.344-.155.01c.074-.33.202-.601.386-.814.183-.213.4-.371.65-.474.25-.11.51-.165.782-.165.11 0 .206.003.286.01a.835.835 0 01.243.056l-.011.793a1.298 1.298 0 00-.309-.066 1.909 1.909 0 00-.308-.022c-.323 0-.606.077-.848.231a1.554 1.554 0 00-.54.595c-.118.242-.177.5-.177.771V19.5h-.903zm4.024 0v-4.252a6.11 6.11 0 00-.033-.628c-.015-.22-.033-.437-.055-.65h.86l.11 1.212h-.133c.162-.426.419-.75.771-.97.36-.227.775-.341 1.245-.341.654 0 1.146.176 1.476.528.338.346.507.893.507 1.642V19.5h-.892v-3.404c0-.521-.107-.9-.32-1.135-.205-.242-.528-.363-.97-.363-.513 0-.92.158-1.222.473-.301.316-.452.739-.452 1.267V19.5h-.892zm9.327 0v-4.252a6.11 6.11 0 00-.033-.628c-.014-.22-.033-.437-.055-.65h.86l.11 1.212h-.133c.147-.419.379-.742.694-.97.324-.227.713-.341 1.168-.341.463 0 .838.11 1.124.33.294.22.492.562.595 1.025h-.165c.14-.419.385-.75.738-.992a2.124 2.124 0 011.233-.363c.61 0 1.07.176 1.377.528.309.346.463.893.463 1.642V19.5h-.892v-3.404c0-.521-.092-.9-.276-1.135-.183-.242-.477-.363-.88-.363-.463 0-.83.161-1.102.484-.265.316-.397.742-.397 1.278v3.14h-.892v-3.404c0-.521-.092-.9-.276-1.135-.183-.242-.477-.363-.881-.363-.463 0-.826.161-1.09.484-.265.316-.397.742-.397 1.278v3.14h-.893zm11.941.1c-.529 0-.991-.115-1.388-.342a2.364 2.364 0 01-.903-.992c-.213-.433-.32-.944-.32-1.531 0-.595.107-1.105.32-1.531.213-.426.514-.753.903-.98.397-.236.86-.353 1.388-.353.536 0 1 .117 1.388.352.397.228.702.555.915.98.22.427.33.937.33 1.532 0 .587-.11 1.098-.33 1.531a2.343 2.343 0 01-.915.992c-.389.227-.852.341-1.388.341zm0-.728c.53 0 .948-.18 1.256-.54.309-.367.463-.9.463-1.597 0-.705-.158-1.238-.474-1.598-.308-.367-.723-.55-1.245-.55-.521 0-.936.183-1.245.55-.308.36-.462.893-.462 1.598 0 .698.154 1.23.462 1.597.309.36.724.54 1.245.54zm4.002.628v-4.197c0-.22-.007-.445-.022-.672a9.35 9.35 0 00-.044-.661h.86l.11 1.344-.154.01c.073-.33.201-.601.385-.814.184-.213.4-.371.65-.474.25-.11.51-.165.782-.165.11 0 .206.003.287.01a.834.834 0 01.242.056l-.011.793a1.3 1.3 0 00-.309-.066 1.907 1.907 0 00-.308-.022c-.323 0-.606.077-.848.231a1.554 1.554 0 00-.54.595c-.117.242-.176.5-.176.771V19.5h-.904zm6.417.1c-.867 0-1.55-.25-2.05-.75-.499-.507-.749-1.208-.749-2.104 0-.58.11-1.083.33-1.51.221-.433.53-.767.926-1.002a2.566 2.566 0 011.366-.363c.507 0 .933.106 1.278.32.345.212.61.517.793.913.184.39.276.852.276 1.389v.33H73.61v-.562h3.702l-.187.143c0-.587-.133-1.046-.397-1.377-.264-.33-.657-.495-1.179-.495-.55 0-.98.194-1.289.584-.308.381-.462.9-.462 1.553v.099c0 .69.169 1.215.507 1.575.345.353.826.53 1.443.53.33 0 .638-.049.925-.144a2.6 2.6 0 00.837-.496l.309.628c-.243.235-.551.419-.926.55a3.604 3.604 0 01-1.167.188z" fill="#fff"/></svg>