<svg width="99" height="30" viewBox="0 0 99 30" fill="none" xmlns="http://www.w3.org/2000/svg"><rect x=".274" y=".235" width="98" height="29" rx="14.5" fill="#fff"/><path d="M20.938 19.235v-7.883h.928v7.078h3.981v.805h-4.909zm8.432.101c-.88 0-1.573-.253-2.08-.76-.507-.515-.76-1.227-.76-2.136 0-.59.111-1.1.335-1.532.224-.44.537-.78.94-1.018a2.605 2.605 0 011.386-.369c.514 0 .947.108 1.297.325.35.216.619.525.805.928.186.395.28.865.28 1.409v.335h-4.35v-.57h3.757l-.19.145c0-.596-.134-1.062-.403-1.398-.268-.335-.667-.503-1.196-.503-.56 0-.995.198-1.308.593-.313.388-.47.913-.47 1.577v.1c0 .701.171 1.234.514 1.6.35.357.839.536 1.465.536.336 0 .649-.049.94-.145.298-.105.58-.273.85-.504l.312.638c-.246.238-.559.425-.939.559-.373.127-.768.19-1.185.19zm5.724 0c-.5 0-.935-.116-1.308-.347a2.403 2.403 0 01-.872-1.006c-.201-.432-.302-.95-.302-1.554 0-.612.1-1.133.302-1.566.209-.432.5-.764.872-.995.373-.231.809-.347 1.308-.347.507 0 .943.13 1.309.392.372.253.618.6.738 1.04h-.135l.123-1.331h.873l-.068.66a9.27 9.27 0 00-.022.637v4.316h-.906v-1.32h.123c-.119.44-.365.787-.738 1.04a2.25 2.25 0 01-1.297.381zm.18-.738c.536 0 .96-.183 1.274-.548.313-.373.47-.913.47-1.621 0-.716-.157-1.256-.47-1.622-.313-.372-.738-.559-1.275-.559-.53 0-.954.187-1.275.56-.313.365-.47.905-.47 1.62 0 .709.157 1.25.47 1.622.321.365.746.548 1.275.548zm4.367.637v-4.26c0-.224-.008-.451-.022-.682a9.445 9.445 0 00-.045-.671h.872l.112 1.364-.157.011a1.86 1.86 0 01.392-.827c.186-.216.406-.377.66-.48.253-.113.518-.169.793-.169.112 0 .21.004.291.012.09.007.172.026.246.056l-.011.805a1.31 1.31 0 00-.313-.068 1.928 1.928 0 00-.313-.022 1.57 1.57 0 00-.861.235 1.579 1.579 0 00-.548.604c-.12.246-.18.507-.18.782v3.31h-.916zm4.085 0V14.92c0-.209-.012-.421-.034-.637a18.043 18.043 0 00-.056-.66h.872l.112 1.23h-.134c.164-.432.425-.76.783-.984a2.312 2.312 0 011.263-.347c.664 0 1.163.18 1.499.537.343.35.514.906.514 1.666v3.511h-.906V15.78c0-.53-.108-.913-.324-1.152-.209-.246-.537-.369-.984-.369-.522 0-.936.16-1.241.481-.306.32-.459.75-.459 1.286v3.21h-.905zm9.467 0V14.92c0-.209-.011-.421-.033-.637a18.043 18.043 0 00-.056-.66h.872l.112 1.23h-.135c.15-.425.384-.753.705-.984.328-.231.723-.347 1.185-.347.47 0 .85.112 1.14.336.299.224.5.57.605 1.04h-.168c.142-.425.391-.76.75-1.007a2.156 2.156 0 011.251-.369c.62 0 1.085.18 1.398.537.313.35.47.906.47 1.666v3.511h-.906V15.78c0-.53-.093-.913-.28-1.152-.186-.246-.484-.369-.894-.369-.47 0-.842.164-1.118.492-.269.32-.403.753-.403 1.298v3.186h-.906V15.78c0-.53-.093-.913-.28-1.152-.185-.246-.484-.369-.894-.369-.47 0-.838.164-1.107.492-.268.32-.402.753-.402 1.298v3.186h-.906zm12.12.101c-.536 0-1.006-.116-1.408-.347a2.4 2.4 0 01-.917-1.006c-.216-.44-.325-.958-.325-1.554 0-.604.109-1.122.325-1.555.216-.432.522-.764.917-.995.402-.238.872-.358 1.409-.358.544 0 1.013.12 1.409.358.402.231.711.563.928.995.223.433.335.95.335 1.555 0 .596-.112 1.114-.335 1.554a2.378 2.378 0 01-.928 1.006c-.396.231-.865.347-1.41.347zm0-.738c.537 0 .962-.183 1.275-.548.313-.373.47-.913.47-1.621 0-.716-.16-1.256-.48-1.622-.314-.372-.735-.559-1.264-.559-.53 0-.95.187-1.264.56-.313.365-.47.905-.47 1.62 0 .709.157 1.25.47 1.622.313.365.734.548 1.264.548zm4.063.637v-4.26c0-.224-.008-.451-.023-.682a9.445 9.445 0 00-.044-.671h.872l.112 1.364-.157.011a1.86 1.86 0 01.392-.827c.186-.216.406-.377.66-.48.253-.113.517-.169.793-.169.112 0 .209.004.29.012.09.007.172.026.247.056l-.011.805a1.312 1.312 0 00-.313-.068 1.928 1.928 0 00-.313-.022 1.57 1.57 0 00-.861.235 1.578 1.578 0 00-.548.604c-.12.246-.18.507-.18.782v3.31h-.916zm6.512.101c-.88 0-1.573-.253-2.08-.76-.506-.515-.76-1.227-.76-2.136 0-.59.112-1.1.336-1.532.223-.44.536-.78.939-1.018a2.606 2.606 0 011.387-.369c.514 0 .946.108 1.297.325.35.216.618.525.805.928.186.395.28.865.28 1.409v.335h-4.35v-.57h3.757l-.19.145c0-.596-.135-1.062-.403-1.398-.268-.335-.667-.503-1.197-.503-.559 0-.995.198-1.308.593-.313.388-.47.913-.47 1.577v.1c0 .701.172 1.234.515 1.6.35.357.839.536 1.465.536.335 0 .648-.049.94-.145.297-.105.58-.273.849-.504l.313.638c-.246.238-.56.425-.94.559-.372.127-.767.19-1.185.19z" fill="#123B63"/></svg>