<svg width="82" height="7" viewBox="0 0 82 7" fill="none" xmlns="http://www.w3.org/2000/svg"><path d="M3.15 5.372c.777 0 1.281-.35 1.52-.7l.07.658h.623V2.648h-2.13v.68h1.36v.119c-.043.791-.652 1.218-1.408 1.218-.939 0-1.527-.735-1.527-1.785 0-1.05.602-1.786 1.534-1.786.679 0 1.148.378 1.295 1.001h.834C5.173 1.06 4.347.387 3.213.387 1.756.387.832 1.388.832 2.88c0 1.491.945 2.492 2.318 2.492zm4.734 0c.89 0 1.491-.539 1.617-1.246h-.756c-.105.4-.441.63-.903.63-.595 0-.98-.399-1.002-1.008v-.05h2.703c.014-.097.021-.195.021-.286-.02-1.05-.714-1.709-1.75-1.709-1.058 0-1.765.735-1.765 1.842 0 1.1.707 1.827 1.835 1.827zM6.868 3.146c.056-.512.47-.834.953-.834.525 0 .896.301.96.834H6.867zm3.54 1.211c0 .651.294.973.98.973h.7v-.665h-.532c-.287 0-.385-.105-.385-.385V2.41h.875v-.665h-.875V.744h-.763v1.001h-.624v.665h.624v1.947zm4.212 0c0 .651.294.973.98.973h.7v-.665h-.531c-.288 0-.386-.105-.386-.385V2.41h.876v-.665h-.876V.744h-.763v1.001h-.623v.665h.623v1.947zm4.046-2.654c-.56 0-.904.252-1.128.56V.43h-.756V5.33h.756V3.517c0-.722.364-1.163.96-1.163.56 0 .86.364.86 1.044V5.33h.757V3.335c0-1.198-.651-1.632-1.45-1.632zm3.811 3.67c.89 0 1.492-.54 1.618-1.247h-.756c-.105.4-.442.63-.904.63-.595 0-.98-.399-1.001-1.008v-.05h2.703c.014-.097.02-.195.02-.286-.02-1.05-.713-1.709-1.75-1.709-1.057 0-1.765.735-1.765 1.842 0 1.1.708 1.827 1.835 1.827zm-1.015-2.227c.056-.512.469-.834.952-.834.525 0 .896.301.96.834h-1.912zm5.358 1.211c0 .651.294.973.98.973h.7v-.665h-.532c-.287 0-.385-.105-.385-.385V2.41h.876v-.665h-.876V.744h-.763v1.001h-.623v.665h.623v1.947zm3.781 1.015c1.093 0 1.828-.735 1.828-1.834 0-1.093-.735-1.835-1.828-1.835-1.092 0-1.828.742-1.828 1.835 0 1.1.736 1.834 1.828 1.834zm0-.644c-.637 0-1.05-.497-1.05-1.19s.413-1.19 1.05-1.19 1.058.497 1.058 1.19-.42 1.19-1.058 1.19zm4.13.644c1.093 0 1.828-.735 1.828-1.834 0-1.093-.735-1.835-1.827-1.835-1.093 0-1.828.742-1.828 1.835 0 1.1.735 1.834 1.828 1.834zm0-.644c-.637 0-1.05-.497-1.05-1.19s.413-1.19 1.05-1.19c.638 0 1.058.497 1.058 1.19s-.42 1.19-1.057 1.19zm2.436.602h.757V.43h-.757V5.33zm1.344-1.183c.021.777.68 1.225 1.639 1.225.868 0 1.52-.434 1.52-1.12 0-.798-.666-.966-1.485-1.064-.519-.056-.862-.098-.862-.435 0-.287.294-.469.743-.469.448 0 .756.231.798.56h.742c-.049-.735-.672-1.14-1.554-1.14-.862-.008-1.471.433-1.471 1.113 0 .742.644.917 1.464 1.015.553.07.882.098.882.483 0 .287-.308.47-.777.47-.547 0-.869-.267-.897-.638h-.742zm6.572 1.204l-.14.35c-.112.295-.182.365-.476.365h-.532v.665h.812c.525 0 .68-.26.904-.84l1.624-4.146h-.805l-.974 2.724-1-2.724h-.806l1.393 3.606zm4.105.021c1.093 0 1.828-.735 1.828-1.834 0-1.093-.735-1.835-1.828-1.835-1.092 0-1.828.742-1.828 1.835 0 1.1.736 1.834 1.828 1.834zm0-.644c-.637 0-1.05-.497-1.05-1.19s.413-1.19 1.05-1.19 1.058.497 1.058 1.19-.42 1.19-1.058 1.19zm4.894-1.19c0 .742-.35 1.176-.924 1.176-.554 0-.834-.357-.834-1.057V1.745h-.756v1.996c0 1.225.651 1.631 1.415 1.631.553 0 .882-.224 1.106-.497l.084.455h.665V1.745h-.756v1.793zm5.184-1.835c-.581 0-.924.231-1.148.511l-.085-.469h-.658V5.33h.757V3.524c0-.729.357-1.17.959-1.17.567 0 .854.364.854 1.044V5.33h.763V3.335c0-1.198-.65-1.632-1.442-1.632zm3.805 3.67c.889 0 1.491-.54 1.617-1.247h-.756c-.105.4-.441.63-.904.63-.595 0-.98-.399-1-1.008v-.05h2.702c.014-.097.021-.195.021-.286-.02-1.05-.714-1.709-1.75-1.709-1.058 0-1.765.735-1.765 1.842 0 1.1.707 1.827 1.835 1.827zm-1.016-2.227c.056-.512.47-.834.953-.834.525 0 .896.301.959.834h-1.912zm5.01 2.226c.889 0 1.49-.539 1.617-1.246h-.757c-.105.4-.44.63-.903.63-.595 0-.98-.399-1.001-1.008v-.05h2.703c.014-.097.02-.195.02-.286-.02-1.05-.713-1.709-1.75-1.709-1.057 0-1.764.735-1.764 1.842 0 1.1.707 1.827 1.834 1.827zm-1.016-2.226c.056-.512.469-.834.952-.834.525 0 .896.301.96.834h-1.912zm6.031-.904c-.23-.315-.616-.539-1.162-.539-.974 0-1.695.728-1.695 1.835 0 1.148.722 1.834 1.695 1.834.567 0 .938-.266 1.17-.58l.09.538h.659V.43h-.757v1.813zm-1.036 2.493c-.63 0-1.043-.49-1.043-1.197 0-.7.413-1.19 1.043-1.19.63 0 1.043.49 1.043 1.204 0 .693-.413 1.183-1.043 1.183zm4.582-.378c0 .651.294.973.98.973h.701v-.665h-.532c-.287 0-.385-.105-.385-.385V2.41h.875v-.665h-.875V.744h-.764v1.001h-.623v.665h.623v1.947zm3.781 1.015c1.093 0 1.828-.735 1.828-1.834 0-1.093-.735-1.835-1.828-1.835-1.092 0-1.827.742-1.827 1.835 0 1.1.735 1.834 1.828 1.834zm0-.644c-.637 0-1.05-.497-1.05-1.19s.413-1.19 1.05-1.19c.638 0 1.058.497 1.058 1.19s-.42 1.19-1.058 1.19z" fill="#000"/></svg>