<svg width="186" height="13" viewBox="0 0 186 13" fill="none" xmlns="http://www.w3.org/2000/svg"><path d="M.832 9.5h1.495V5.548h4.225V9.5h1.495V.4H6.552v3.822H2.327V.4H.832v9.1zm14.815-1.222c-.286 0-.429-.091-.429-.429V5.184c0-1.573-1.014-2.418-2.782-2.418-1.677 0-2.795.806-2.938 2.106h1.378c.104-.585.663-.975 1.495-.975.923 0 1.456.455 1.456 1.196v.403H12.15c-1.859 0-2.847.767-2.847 2.132 0 1.235 1.014 1.95 2.47 1.95 1.079 0 1.755-.468 2.197-1.144 0 .663.312 1.066 1.222 1.066h.741V8.278h-.286zm-1.82-1.508c-.013 1.027-.689 1.716-1.859 1.716-.767 0-1.235-.39-1.235-.949 0-.676.481-1.001 1.352-1.001h1.742v.234zm6.238-3.926c-1.092 0-1.625.442-1.963 1.001l-.156-1.001h-1.248V9.5h1.404V6.159c0-1.027.403-2.002 1.65-2.002h.625V2.844h-.312zm5.917.923c-.429-.585-1.144-1.001-2.158-1.001-1.807 0-3.146 1.352-3.146 3.406 0 2.132 1.34 3.406 3.146 3.406 1.053 0 1.742-.494 2.171-1.079l.17 1.001h1.221V.4h-1.404v3.367zm-1.924 4.628c-1.17 0-1.937-.91-1.937-2.223 0-1.3.767-2.21 1.937-2.21s1.937.91 1.937 2.236c0 1.287-.767 2.197-1.937 2.197zm15.684-5.629c-1.092 0-1.846.481-2.275 1.209-.404-.858-1.184-1.209-2.054-1.209-1.002.013-1.573.455-1.95.949l-.157-.871h-1.221V9.5h1.404V5.938c0-1.183.598-1.963 1.56-1.963.922 0 1.404.611 1.404 1.781V9.5h1.416V5.899c0-1.196.611-1.924 1.574-1.924.91 0 1.39.611 1.39 1.781V9.5h1.404V5.665c0-2.106-1.117-2.899-2.495-2.899zm6.877 6.812c1.65 0 2.769-1.001 3.002-2.314h-1.404c-.194.741-.819 1.17-1.676 1.17-1.105 0-1.82-.741-1.86-1.872v-.091H49.7c.025-.182.038-.364.038-.533-.038-1.95-1.325-3.172-3.25-3.172-1.962 0-3.276 1.365-3.276 3.419 0 2.041 1.313 3.393 3.406 3.393zm-1.886-4.134c.105-.949.872-1.547 1.769-1.547.974 0 1.663.559 1.78 1.547h-3.548zm6.57 2.249c0 1.209.547 1.807 1.82 1.807h1.3V8.265h-.987c-.533 0-.715-.195-.715-.715V4.079h1.625V2.844H52.72V.985h-1.417v1.859h-1.157v1.235h1.157v3.614zm10.022.585c-.286 0-.43-.091-.43-.429V5.184c0-1.573-1.013-2.418-2.781-2.418-1.677 0-2.795.806-2.938 2.106h1.378c.104-.585.663-.975 1.495-.975.923 0 1.456.455 1.456 1.196v.403h-1.677c-1.86 0-2.847.767-2.847 2.132 0 1.235 1.014 1.95 2.47 1.95 1.079 0 1.755-.468 2.197-1.144 0 .663.312 1.066 1.222 1.066h.74V8.278h-.285zm-1.82-1.508c-.013 1.027-.69 1.716-1.86 1.716-.766 0-1.234-.39-1.234-.949 0-.676.48-1.001 1.352-1.001h1.742v.234zm2.87 2.73h1.404V.4h-1.404v9.1zm6.588-1.807c0 1.209.546 1.807 1.82 1.807h1.3V8.265h-.988c-.533 0-.715-.195-.715-.715V4.079h1.625V2.844H70.38V.985h-1.417v1.859h-1.157v1.235h1.157v3.614zm7.38-4.849c-1.092 0-1.625.442-1.963 1.001l-.156-1.001h-1.248V9.5h1.404V6.159c0-1.027.403-2.002 1.651-2.002h.624V2.844h-.312zm7.059 5.434c-.286 0-.43-.091-.43-.429V5.184c0-1.573-1.013-2.418-2.781-2.418-1.677 0-2.795.806-2.938 2.106h1.378c.104-.585.663-.975 1.495-.975.923 0 1.456.455 1.456 1.196v.403h-1.677c-1.86 0-2.847.767-2.847 2.132 0 1.235 1.014 1.95 2.47 1.95 1.079 0 1.755-.468 2.197-1.144 0 .663.312 1.066 1.222 1.066h.74V8.278h-.285zm-1.82-1.508c-.013 1.027-.69 1.716-1.86 1.716-.766 0-1.234-.39-1.234-.949 0-.676.48-1.001 1.352-1.001h1.742v.234zm7.877-3.003c-.43-.585-1.144-1.001-2.158-1.001-1.807 0-3.146 1.352-3.146 3.406 0 2.132 1.339 3.406 3.146 3.406 1.053 0 1.742-.494 2.17-1.079l.17 1.001h1.222V.4h-1.404v3.367zm-1.924 4.628c-1.17 0-1.937-.91-1.937-2.223 0-1.3.767-2.21 1.937-2.21s1.937.91 1.937 2.236c0 1.287-.767 2.197-1.937 2.197zm5.415-6.487c.48 0 .858-.351.858-.845S93.43.218 92.95.218s-.858.351-.858.845.377.845.858.845zM92.235 9.5h1.404V2.844h-1.404V9.5zm6.29-6.734c-1.079 0-1.716.429-2.132.949l-.156-.871h-1.222V9.5h1.404V6.146c0-1.352.663-2.171 1.781-2.171 1.053 0 1.586.676 1.586 1.937V9.5h1.417V5.795c0-2.223-1.209-3.029-2.678-3.029zm9.038 1.118c-.429-.663-1.144-1.118-2.184-1.118-1.807 0-3.146 1.339-3.146 3.38 0 2.119 1.339 3.38 3.146 3.38 1.04 0 1.729-.429 2.171-1.092v.741c0 1.274-.689 1.859-1.911 1.859-.988 0-1.638-.429-1.807-1.17h-1.43c.13 1.495 1.365 2.314 3.133 2.314 2.392 0 3.406-1.144 3.406-2.951V2.844h-1.222l-.156 1.04zm-1.95 4.459c-1.17 0-1.937-.897-1.937-2.197 0-1.287.767-2.197 1.937-2.197s1.937.91 1.937 2.223c0 1.274-.767 2.171-1.937 2.171zm15.683-5.577c-1.092 0-1.846.481-2.275 1.209-.403-.858-1.183-1.209-2.054-1.209-1.001.013-1.573.455-1.95.949l-.156-.871h-1.222V9.5h1.404V5.938c0-1.183.598-1.963 1.56-1.963.923 0 1.404.611 1.404 1.781V9.5h1.417V5.899c0-1.196.611-1.924 1.573-1.924.91 0 1.391.611 1.391 1.781V9.5h1.404V5.665c0-2.106-1.118-2.899-2.496-2.899zm9.853 5.512c-.286 0-.429-.091-.429-.429V5.184c0-1.573-1.014-2.418-2.782-2.418-1.677 0-2.795.806-2.938 2.106h1.378c.104-.585.663-.975 1.495-.975.923 0 1.456.455 1.456 1.196v.403h-1.677c-1.859 0-2.847.767-2.847 2.132 0 1.235 1.014 1.95 2.47 1.95 1.079 0 1.755-.468 2.197-1.144 0 .663.312 1.066 1.222 1.066h.741V8.278h-.286zm-1.82-1.508c-.013 1.027-.689 1.716-1.859 1.716-.767 0-1.235-.39-1.235-.949 0-.676.481-1.001 1.352-1.001h1.742v.234zm7.877-3.003c-.429-.585-1.144-1.001-2.158-1.001-1.807 0-3.146 1.352-3.146 3.406 0 2.132 1.339 3.406 3.146 3.406 1.053 0 1.742-.494 2.171-1.079l.169 1.001h1.222V.4h-1.404v3.367zm-1.924 4.628c-1.17 0-1.937-.91-1.937-2.223 0-1.3.767-2.21 1.937-2.21s1.937.91 1.937 2.236c0 1.287-.767 2.197-1.937 2.197zm7.859 1.183c1.651 0 2.769-1.001 3.003-2.314h-1.404c-.195.741-.819 1.17-1.677 1.17-1.105 0-1.82-.741-1.859-1.872v-.091h5.018c.026-.182.039-.364.039-.533-.039-1.95-1.326-3.172-3.25-3.172-1.963 0-3.276 1.365-3.276 3.419 0 2.041 1.313 3.393 3.406 3.393zm-1.885-4.134c.104-.949.871-1.547 1.768-1.547.975 0 1.664.559 1.781 1.547h-3.549zm12.625 4.134c1.651 0 2.769-1.001 3.003-2.314h-1.404c-.195.741-.819 1.17-1.677 1.17-1.105 0-1.82-.741-1.859-1.872v-.091h5.018c.026-.182.039-.364.039-.533-.039-1.95-1.326-3.172-3.25-3.172-1.963 0-3.276 1.365-3.276 3.419 0 2.041 1.313 3.393 3.406 3.393zm-1.885-4.134c.104-.949.871-1.547 1.768-1.547.975 0 1.664.559 1.781 1.547h-3.549zm12.224 2.834c-.286 0-.429-.091-.429-.429V5.184c0-1.573-1.014-2.418-2.782-2.418-1.677 0-2.795.806-2.938 2.106h1.378c.104-.585.663-.975 1.495-.975.923 0 1.456.455 1.456 1.196v.403h-1.677c-1.859 0-2.847.767-2.847 2.132 0 1.235 1.014 1.95 2.47 1.95 1.079 0 1.755-.468 2.197-1.144 0 .663.312 1.066 1.222 1.066h.741V8.278h-.286zM162.4 6.77c-.013 1.027-.689 1.716-1.859 1.716-.767 0-1.235-.39-1.235-.949 0-.676.481-1.001 1.352-1.001h1.742v.234zm2.585.533c.039 1.443 1.261 2.275 3.042 2.275 1.612 0 2.821-.806 2.821-2.08 0-1.482-1.235-1.794-2.756-1.976-.962-.104-1.599-.182-1.599-.806 0-.533.546-.871 1.378-.871.832 0 1.404.429 1.482 1.04h1.378c-.091-1.365-1.248-2.119-2.886-2.119-1.599-.013-2.73.806-2.73 2.067 0 1.378 1.196 1.703 2.717 1.885 1.027.13 1.638.182 1.638.897 0 .533-.572.871-1.443.871-1.014 0-1.612-.494-1.664-1.183h-1.378zm7.666-5.395c.481 0 .858-.351.858-.845s-.377-.845-.858-.845-.858.351-.858.845.377.845.858.845zm-.715 7.592h1.404V2.844h-1.404V9.5zm5.939.078c1.651 0 2.769-1.001 3.003-2.314h-1.404c-.195.741-.819 1.17-1.677 1.17-1.105 0-1.82-.741-1.859-1.872v-.091h5.018c.026-.182.039-.364.039-.533-.039-1.95-1.326-3.172-3.25-3.172-1.963 0-3.276 1.365-3.276 3.419 0 2.041 1.313 3.393 3.406 3.393zm-1.885-4.134c.104-.949.871-1.547 1.768-1.547.975 0 1.664.559 1.781 1.547h-3.549zm9.507-2.6c-1.092 0-1.625.442-1.963 1.001l-.156-1.001h-1.248V9.5h1.404V6.159c0-1.027.403-2.002 1.651-2.002h.624V2.844h-.312z" fill="#000"/></svg>