<svg width="372" height="70" viewBox="0 0 372 70" fill="none" xmlns="http://www.w3.org/2000/svg"><path d="M.766 40.11c0 1.95.83 2.95 2.55 2.95 1.73 0 2.57-1 2.57-2.95V36h-.54v4.14c0 1.61-.62 2.42-2.03 2.42-1.39 0-2.01-.81-2.01-2.42V36h-.54v4.11zm6.184 1.33c.04 1.05.89 1.62 2.16 1.62 1.09 0 1.97-.55 1.97-1.45 0-1.07-.94-1.28-2.03-1.43-.79-.11-1.49-.2-1.49-.91 0-.58.57-.96 1.43-.96.81 0 1.39.39 1.48 1.05h.52c-.09-.99-.9-1.49-2-1.49-1.13-.01-1.94.57-1.94 1.44 0 1.02.94 1.21 1.98 1.35.85.12 1.54.23 1.54.98 0 .6-.63.98-1.46.98-.97 0-1.6-.45-1.64-1.18h-.52zm7.343 1.62c1.11 0 1.96-.72 2.18-1.74h-.52c-.2.79-.87 1.28-1.7 1.28-1.13 0-1.84-.86-1.86-2.04v-.09h4.14c0-.07.01-.15.01-.21-.05-1.51-.98-2.39-2.34-2.39-1.39 0-2.34 1.06-2.34 2.56 0 1.59.99 2.63 2.43 2.63zm-1.86-3.02c.08-1.03.85-1.72 1.78-1.72.99 0 1.7.61 1.78 1.72h-3.56zm10.894 3.02c1.63 0 2.82-.96 3.04-2.44h-1.19c-.22.89-.89 1.43-1.86 1.43-1.32 0-2.12-1.06-2.12-2.55 0-1.5.82-2.55 2.15-2.55.95 0 1.61.55 1.84 1.43h1.19c-.23-1.48-1.38-2.44-2.98-2.44-2.07 0-3.38 1.43-3.38 3.56 0 2.15 1.27 3.56 3.31 3.56zm4.431-5.9c.37 0 .66-.27.66-.65s-.29-.65-.66-.65c-.37 0-.66.27-.66.65s.29.65.66.65zm-.55 5.84h1.08v-5.12h-1.08V43zm2.509-1.39c0 .93.42 1.39 1.4 1.39h1v-.95h-.76c-.41 0-.55-.15-.55-.55v-2.67h1.25v-.95h-1.25v-1.43h-1.09v1.43h-.89v.95h.89v2.78zm4.567 1.42l-.2.5c-.16.42-.26.52-.68.52h-.76V45h1.16c.75 0 .97-.37 1.29-1.2l2.32-5.92h-1.15l-1.39 3.89-1.43-3.89h-1.15l1.99 5.15zm6.345-.03h1.15v-7h-1.15v7zm5.021-5.18c-.83 0-1.32.33-1.64.73l-.12-.67h-.94V43h1.08v-2.58c0-1.04.51-1.67 1.37-1.67.81 0 1.22.52 1.22 1.49V43h1.09v-2.85c0-1.71-.93-2.33-2.06-2.33zm6.893.77c-.33-.45-.88-.77-1.66-.77-1.39 0-2.42 1.04-2.42 2.62 0 1.64 1.03 2.62 2.42 2.62.81 0 1.34-.38 1.67-.83l.13.77h.94v-7h-1.08v2.59zm-1.48 3.56c-.9 0-1.49-.7-1.49-1.71 0-1 .59-1.7 1.49-1.7s1.49.7 1.49 1.72c0 .99-.59 1.69-1.49 1.69zm6.046.91c1.27 0 2.13-.77 2.31-1.78h-1.08c-.15.57-.63.9-1.29.9-.85 0-1.4-.57-1.43-1.44v-.07h3.86c.02-.14.03-.28.03-.41-.03-1.5-1.02-2.44-2.5-2.44-1.51 0-2.52 1.05-2.52 2.63 0 1.57 1.01 2.61 2.62 2.61zm-1.45-3.18c.08-.73.67-1.19 1.36-1.19.75 0 1.28.43 1.37 1.19h-2.73zM59.617 43h1.19l1.35-1.86 1.34 1.86h1.26l-1.93-2.62 1.82-2.5h-1.19l-1.25 1.73-1.22-1.73h-1.26l1.81 2.5-1.92 2.62zm5.947-7.05c-.27 0-.44.16-.44.39 0 .24.16.36.35.36.1 0 .2-.04.25-.12.07.07.09.16.09.26 0 .38-.24.77-.75.79v.3c.69-.03 1.12-.49 1.12-1.15 0-.46-.26-.83-.62-.83zm1.21 5.49c.04 1.05.89 1.62 2.16 1.62 1.09 0 1.97-.55 1.97-1.45 0-1.07-.94-1.28-2.03-1.43-.79-.11-1.49-.2-1.49-.91 0-.58.57-.96 1.43-.96.81 0 1.39.39 1.48 1.05h.52c-.09-.99-.9-1.49-2-1.49-1.13-.01-1.94.57-1.94 1.44 0 1.02.94 1.21 1.98 1.35.85.12 1.54.23 1.54.98 0 .6-.63.98-1.46.98-.97 0-1.6-.45-1.64-1.18h-.52zm8.179.38c0 .81.33 1.18 1.19 1.18h.74v-.47h-.7c-.53 0-.72-.2-.72-.72V38.4h1.37v-.47h-1.37v-1.42h-.51v1.42h-.96v.47h.96v3.42zm4.79 1.24c1.43 0 2.44-1.06 2.44-2.6 0-1.53-1.01-2.59-2.44-2.59s-2.43 1.06-2.43 2.59c0 1.54 1 2.6 2.43 2.6zm0-.46c-1.13 0-1.91-.88-1.91-2.14 0-1.25.78-2.14 1.91-2.14s1.91.89 1.91 2.14c0 1.26-.78 2.14-1.91 2.14zm5.693.46c1.43 0 2.44-1.06 2.44-2.6 0-1.53-1.01-2.59-2.44-2.59s-2.43 1.06-2.43 2.59c0 1.54 1 2.6 2.43 2.6zm0-.46c-1.13 0-1.91-.88-1.91-2.14 0-1.25.78-2.14 1.91-2.14s1.91.89 1.91 2.14c0 1.26-.78 2.14-1.91 2.14zm3.453.4h.51v-7h-.51v7zm1.48-1.56c.04 1.05.89 1.62 2.16 1.62 1.09 0 1.97-.55 1.97-1.45 0-1.07-.94-1.28-2.03-1.43-.79-.11-1.49-.2-1.49-.91 0-.58.57-.96 1.43-.96.81 0 1.39.39 1.48 1.05h.52c-.09-.99-.9-1.49-2-1.49-1.13-.01-1.94.57-1.94 1.44 0 1.02.94 1.21 1.98 1.35.85.12 1.54.23 1.54.98 0 .6-.63.98-1.46.98-.97 0-1.6-.45-1.64-1.18h-.52zm8.178.38c0 .81.33 1.18 1.19 1.18h.74v-.47h-.7c-.53 0-.72-.2-.72-.72V38.4h1.37v-.47h-1.37v-1.42h-.51v1.42h-.96v.47h.96v3.42zm4.789 1.24c1.43 0 2.44-1.06 2.44-2.6 0-1.53-1.01-2.59-2.44-2.59s-2.43 1.06-2.43 2.59c0 1.54 1 2.6 2.43 2.6zm0-.46c-1.13 0-1.91-.88-1.91-2.14 0-1.25.78-2.14 1.91-2.14s1.91.89 1.91 2.14c0 1.26-.78 2.14-1.91 2.14zm8.219-4.67c-.94 0-1.34.45-1.55 1.01l-.08-1.01h-.44V43h.51v-2.57c0-1.03.27-2.01 1.46-2.01h.37v-.49h-.27zm2.904 5.13c1.11 0 1.96-.72 2.18-1.74h-.52c-.2.79-.87 1.28-1.7 1.28-1.13 0-1.84-.86-1.86-2.04v-.09h4.14c0-.07.01-.15.01-.21-.05-1.51-.98-2.39-2.34-2.39-1.39 0-2.34 1.06-2.34 2.56 0 1.59.99 2.63 2.43 2.63zm-1.86-3.02c.08-1.03.85-1.72 1.78-1.72.99 0 1.7.61 1.78 1.72h-3.56zm4.879 1.4c.04 1.05.89 1.62 2.16 1.62 1.09 0 1.97-.55 1.97-1.45 0-1.07-.94-1.28-2.03-1.43-.79-.11-1.49-.2-1.49-.91 0-.58.57-.96 1.43-.96.81 0 1.39.39 1.48 1.05h.52c-.09-.99-.9-1.49-2-1.49-1.13-.01-1.94.57-1.94 1.44 0 1.02.94 1.21 1.98 1.35.85.12 1.54.23 1.54.98 0 .6-.63.98-1.46.98-.97 0-1.6-.45-1.64-1.18h-.52zm5.483.38c0 .81.33 1.18 1.19 1.18h.74v-.47h-.7c-.53 0-.72-.2-.72-.72V38.4h1.37v-.47h-1.37v-1.42h-.51v1.42h-.96v.47h.96v3.42zm4.789 1.24c1.43 0 2.44-1.06 2.44-2.6 0-1.53-1.01-2.59-2.44-2.59s-2.43 1.06-2.43 2.59c0 1.54 1 2.6 2.43 2.6zm0-.46c-1.13 0-1.91-.88-1.91-2.14 0-1.25.78-2.14 1.91-2.14s1.91.89 1.91 2.14c0 1.26-.78 2.14-1.91 2.14zm5.524-4.67c-.94 0-1.34.45-1.55 1.01l-.08-1.01h-.44V43h.51v-2.57c0-1.03.27-2.01 1.46-2.01h.37v-.49h-.27zm2.904 5.13c1.11 0 1.96-.72 2.18-1.74h-.52c-.2.79-.87 1.28-1.7 1.28-1.13 0-1.84-.86-1.86-2.04v-.09h4.14c0-.07.01-.15.01-.21-.05-1.51-.98-2.39-2.34-2.39-1.39 0-2.34 1.06-2.34 2.56 0 1.59.99 2.63 2.43 2.63zm-1.86-3.02c.08-1.03.85-1.72 1.78-1.72.99 0 1.7.61 1.78 1.72h-3.56zm9.333 2.96l-.33.82c-.23.56-.32.71-.84.71h-.64V45h.78c.68 0 .84-.26 1.16-1.06l2.43-6.01h-.55l-1.73 4.41-1.76-4.41h-.55l2.03 5.07zm5.271.06c1.43 0 2.44-1.06 2.44-2.6 0-1.53-1.01-2.59-2.44-2.59s-2.43 1.06-2.43 2.59c0 1.54 1 2.6 2.43 2.6zm0-.46c-1.13 0-1.91-.88-1.91-2.14 0-1.25.78-2.14 1.91-2.14s1.91.89 1.91 2.14c0 1.26-.78 2.14-1.91 2.14zm7.134-2.18c0 1.33-.66 2.17-1.71 2.17-.94 0-1.52-.64-1.52-1.85v-2.81h-.51v2.84c0 1.59.83 2.29 1.95 2.29.9 0 1.49-.48 1.78-1.13l.07 1.07h.45v-5.07h-.51v2.49zm3.78-2.49c-.94 0-1.34.45-1.55 1.01l-.08-1.01h-.44V43h.51v-2.57c0-1.03.27-2.01 1.46-2.01h.37v-.49h-.27zm5.931 5.13c1.15 0 1.96-.66 2.16-1.69h-.54c-.17.75-.78 1.23-1.62 1.23-1.11 0-1.88-.87-1.88-2.13 0-1.26.76-2.15 1.88-2.15.85 0 1.45.48 1.63 1.24h.53c-.21-1.05-1-1.69-2.15-1.69-1.43 0-2.41 1.06-2.41 2.6 0 1.56.97 2.59 2.4 2.59zm5.392 0c1.43 0 2.44-1.06 2.44-2.6 0-1.53-1.01-2.59-2.44-2.59s-2.43 1.06-2.43 2.59c0 1.54 1 2.6 2.43 2.6zm0-.46c-1.13 0-1.91-.88-1.91-2.14 0-1.25.78-2.14 1.91-2.14s1.91.89 1.91 2.14c0 1.26-.78 2.14-1.91 2.14zm9.113-4.73c-.93 0-1.53.52-1.82 1.27-.24-.84-.87-1.27-1.67-1.27-.87 0-1.39.51-1.65 1.14l-.08-1.08h-.44V43h.51v-2.58c0-1.24.6-2.08 1.57-2.08.88 0 1.43.62 1.43 1.79V43h.51v-2.76c.03-1.16.63-1.9 1.58-1.9.88 0 1.41.59 1.41 1.74V43h.52v-2.94c0-1.53-.81-2.19-1.87-2.19zm5.452 0c-.95 0-1.61.51-1.93 1.22l-.08-1.16h-.44V45h.51v-3.17c.29.74.98 1.23 1.94 1.23 1.39 0 2.39-1.06 2.39-2.6 0-1.59-1-2.59-2.39-2.59zm-.04 4.73c-1.13 0-1.91-.88-1.91-2.15 0-1.24.78-2.13 1.91-2.13s1.91.89 1.91 2.14c0 1.26-.78 2.14-1.91 2.14zm5.68.46c1.43 0 2.44-1.06 2.44-2.6 0-1.53-1.01-2.59-2.44-2.59s-2.43 1.06-2.43 2.59c0 1.54 1 2.6 2.43 2.6zm0-.46c-1.13 0-1.91-.88-1.91-2.14 0-1.25.78-2.14 1.91-2.14s1.91.89 1.91 2.14c0 1.26-.78 2.14-1.91 2.14zm3.213-1.16c.04 1.05.89 1.62 2.16 1.62 1.09 0 1.97-.55 1.97-1.45 0-1.07-.94-1.28-2.03-1.43-.79-.11-1.49-.2-1.49-.91 0-.58.57-.96 1.43-.96.81 0 1.39.39 1.48 1.05h.52c-.09-.99-.9-1.49-2-1.49-1.13-.01-1.94.57-1.94 1.44 0 1.02.94 1.21 1.98 1.35.85.12 1.54.23 1.54.98 0 .6-.63.98-1.46.98-.97 0-1.6-.45-1.64-1.18h-.52zm8.783-1.02c0 1.33-.66 2.17-1.71 2.17-.94 0-1.52-.64-1.52-1.85v-2.81h-.51v2.84c0 1.59.83 2.29 1.95 2.29.9 0 1.49-.48 1.78-1.13l.07 1.07h.45v-5.07h-.51v2.49zm3.781-2.49c-.94 0-1.34.45-1.55 1.01l-.08-1.01h-.44V43h.51v-2.57c0-1.03.27-2.01 1.46-2.01h.37v-.49h-.27zm2.904 5.13c1.11 0 1.96-.72 2.18-1.74h-.52c-.2.79-.87 1.28-1.7 1.28-1.13 0-1.84-.86-1.86-2.04v-.09h4.14c0-.07.01-.15.01-.21-.05-1.51-.98-2.39-2.34-2.39-1.39 0-2.34 1.06-2.34 2.56 0 1.59.99 2.63 2.43 2.63zm-1.86-3.02c.08-1.03.85-1.72 1.78-1.72.99 0 1.7.61 1.78 1.72h-3.56zm12.274 2.49c-.3 0-.45-.1-.45-.49v-2.36c0-1.16-.71-1.81-1.98-1.81-1.16 0-1.93.56-2.06 1.48h.51c.13-.62.67-1.03 1.53-1.03.95 0 1.49.5 1.49 1.34v.44h-1.72c-1.3 0-2 .56-2 1.51 0 .9.71 1.45 1.79 1.45 1.03 0 1.64-.47 1.95-1.1v.18c-.02.6.23.86.83.86h.3v-.47h-.19zm-.96-1.58c0 .97-.69 1.67-1.89 1.67-.81 0-1.31-.41-1.31-1.04 0-.67.5-1.04 1.44-1.04h1.76v.41zm4.172-3.08c-.93 0-1.53.48-1.82 1.14l-.08-1.08h-.44V43h.51v-2.5c0-1.32.67-2.16 1.75-2.16.98 0 1.57.64 1.57 1.84V43h.51v-2.84c0-1.6-.85-2.29-2-2.29zm7.19 1.2c-.31-.72-.99-1.2-1.94-1.2-1.39 0-2.39 1.06-2.39 2.59 0 1.6 1 2.6 2.39 2.6.95 0 1.61-.51 1.93-1.22l.08 1.16h.44v-7h-.51v3.07zm-1.9 3.53c-1.13 0-1.91-.88-1.91-2.14 0-1.25.78-2.14 1.91-2.14s1.91.89 1.91 2.15c0 1.25-.78 2.13-1.91 2.13zm6.685-.78c0 .81.33 1.18 1.19 1.18h.74v-.47h-.7c-.53 0-.72-.2-.72-.72V38.4h1.37v-.47h-1.37v-1.42h-.51v1.42h-.96v.47h.96v3.42zm4.776-3.89c-.94 0-1.34.45-1.55 1.01l-.08-1.01h-.44V43h.51v-2.57c0-1.03.27-2.01 1.46-2.01h.37v-.49h-.27zm5.271 4.6c-.3 0-.45-.1-.45-.49v-2.36c0-1.16-.71-1.81-1.98-1.81-1.16 0-1.93.56-2.06 1.48h.51c.13-.62.67-1.03 1.53-1.03.95 0 1.49.5 1.49 1.34v.44h-1.72c-1.3 0-2 .56-2 1.51 0 .9.71 1.45 1.79 1.45 1.03 0 1.64-.47 1.95-1.1v.18c-.02.6.23.86.83.86h.3v-.47h-.19zm-.96-1.58c0 .97-.69 1.67-1.89 1.67-.81 0-1.31-.41-1.31-1.04 0-.67.5-1.04 1.44-1.04h1.76v.41zm5.894-1.88c-.31-.72-.99-1.2-1.94-1.2-1.39 0-2.39 1.06-2.39 2.59 0 1.6 1 2.6 2.39 2.6.95 0 1.61-.51 1.93-1.22l.08 1.16h.44v-7h-.51v3.07zm-1.9 3.53c-1.13 0-1.91-.88-1.91-2.14 0-1.25.78-2.14 1.91-2.14s1.91.89 1.91 2.15c0 1.25-.78 2.13-1.91 2.13zm5.85.46c1.11 0 1.96-.72 2.18-1.74h-.52c-.2.79-.87 1.28-1.7 1.28-1.13 0-1.84-.86-1.86-2.04v-.09h4.14c0-.07.01-.15.01-.21-.05-1.51-.98-2.39-2.34-2.39-1.39 0-2.34 1.06-2.34 2.56 0 1.59.99 2.63 2.43 2.63zm-1.86-3.02c.08-1.03.85-1.72 1.78-1.72.99 0 1.7.61 1.78 1.72h-3.56zm10.053 3.02c1.11 0 1.96-.72 2.18-1.74h-.52c-.2.79-.87 1.28-1.7 1.28-1.13 0-1.84-.86-1.86-2.04v-.09h4.14c0-.07.01-.15.01-.21-.05-1.51-.98-2.39-2.34-2.39-1.39 0-2.34 1.06-2.34 2.56 0 1.59.99 2.63 2.43 2.63zm-1.86-3.02c.08-1.03.85-1.72 1.78-1.72.99 0 1.7.61 1.78 1.72h-3.56zm8.65-2.11v-.76c0-.5.19-.7.7-.7h.73V36h-.76c-.84 0-1.18.37-1.18 1.18v.75h-2.21v-.76c0-.5.19-.7.7-.7h.73V36h-.75c-.85 0-1.19.37-1.19 1.18v.75h-.96v.47h.96V43h.51v-4.6h2.21V43h.51v-4.6h2.17V43h.51v-5.07h-2.68zm2.43-1.79c-.2 0-.36.15-.36.36s.16.36.36.36c.2 0 .36-.15.36-.36s-.16-.36-.36-.36zm3.66 6.92c1.15 0 1.96-.66 2.16-1.69h-.54c-.17.75-.78 1.23-1.62 1.23-1.11 0-1.88-.87-1.88-2.13 0-1.26.76-2.15 1.88-2.15.85 0 1.45.48 1.63 1.24h.53c-.21-1.05-1-1.69-2.15-1.69-1.43 0-2.41 1.06-2.41 2.6 0 1.56.97 2.59 2.4 2.59zm3.411-6.2c.2 0 .36-.15.36-.36s-.16-.36-.36-.36c-.2 0-.36.15-.36.36s.16.36.36.36zm-.26 6.14h.51v-5.07h-.51V43zm3.949.06c1.11 0 1.96-.72 2.18-1.74h-.52c-.2.79-.87 1.28-1.7 1.28-1.13 0-1.84-.86-1.86-2.04v-.09h4.14c0-.07.01-.15.01-.21-.05-1.51-.98-2.39-2.34-2.39-1.39 0-2.34 1.06-2.34 2.56 0 1.59.99 2.63 2.43 2.63zm-1.86-3.02c.08-1.03.85-1.72 1.78-1.72.99 0 1.7.61 1.78 1.72h-3.56zm7.458-2.17c-.93 0-1.53.48-1.82 1.14l-.08-1.08h-.44V43h.51v-2.5c0-1.32.67-2.16 1.75-2.16.98 0 1.57.64 1.57 1.84V43h.51v-2.84c0-1.6-.85-2.29-2-2.29zm3.509 3.95c0 .81.33 1.18 1.19 1.18h.74v-.47h-.7c-.53 0-.72-.2-.72-.72V38.4h1.37v-.47h-1.37v-1.42h-.51v1.42h-.96v.47h.96v3.42zm2.706 1.18h.51v-7h-.51v7zm3.229 0l-.33.82c-.23.56-.32.71-.84.71h-.64V45h.78c.68 0 .84-.26 1.16-1.06l2.43-6.01h-.55l-1.73 4.41-1.76-4.41h-.55l2.03 5.07zm2.785-.33c0 .23.16.38.38.38s.38-.15.38-.38-.16-.37-.38-.37-.38.14-.38.37zM4.597 27.767h1.936l3.436-9.818H8.3L5.565 25.83 2.858 17.95H1.147l3.45 9.818zm8.795.084c2.188 0 3.66-1.473 3.66-3.675 0-2.188-1.472-3.675-3.66-3.675s-3.661 1.487-3.661 3.675c0 2.203 1.473 3.675 3.661 3.675zm0-1.29c-1.276 0-2.104-.996-2.104-2.385 0-1.388.828-2.384 2.104-2.384 1.276 0 2.118.996 2.118 2.384 0 1.389-.842 2.385-2.118 2.385zm4.879 1.206h1.515V17.95H18.27v9.818zm9.564-1.318c-.308 0-.463-.099-.463-.463V23.11c0-1.697-1.094-2.609-3.001-2.609-1.81 0-3.016.87-3.17 2.273h1.486c.113-.632.716-1.052 1.614-1.052.995 0 1.57.49 1.57 1.29v.435h-1.809c-2.006 0-3.072.828-3.072 2.3 0 1.333 1.094 2.104 2.665 2.104 1.165 0 1.894-.505 2.37-1.234 0 .715.338 1.15 1.32 1.15h.799V26.45h-.309zm-1.963-1.627c-.014 1.108-.744 1.851-2.006 1.851-.828 0-1.333-.42-1.333-1.024 0-.73.52-1.08 1.459-1.08h1.88v.253zm3.616.995c0 1.305.59 1.95 1.964 1.95h1.402v-1.332h-1.066c-.575 0-.771-.21-.771-.772v-3.745h1.753v-1.332h-1.753V18.58h-1.529v2.006H28.24v1.332h1.248v3.9zm5.102-6.241c.518 0 .925-.38.925-.912 0-.533-.407-.912-.925-.912-.52 0-.926.379-.926.912s.407.912.925.912zm-.772 8.191h1.515v-7.181h-1.515v7.181zm3 0h1.515V17.95h-1.515v9.818zm3.771-8.191c.52 0 .926-.38.926-.912 0-.533-.407-.912-.926-.912-.519 0-.926.379-.926.912s.407.912.926.912zm-.771 8.191h1.515v-7.181h-1.515v7.181zm3.519-1.95c0 1.305.589 1.95 1.963 1.95h1.403v-1.332h-1.066c-.575 0-.772-.21-.772-.772v-3.745h1.754v-1.332h-1.754V18.58h-1.529v2.006h-1.248v1.332h1.248v3.9zm6.405 1.992l-.28.702c-.225.589-.365.729-.954.729h-1.066v1.333h1.627c1.052 0 1.36-.52 1.81-1.684l3.254-8.303H52.52l-1.95 5.456-2.006-5.456h-1.613l2.791 7.223zm12.042.042c1.837 0 3.058-1.024 3.338-2.65h-1.599c-.182.827-.8 1.36-1.725 1.36-1.22 0-2.02-.968-2.02-2.37 0-1.417.8-2.4 2.02-2.4.94 0 1.543.52 1.74 1.361h1.584c-.294-1.627-1.444-2.65-3.296-2.65-2.174 0-3.605 1.472-3.605 3.688 0 2.245 1.389 3.661 3.563 3.661zm11.062-1.402c-.308 0-.463-.099-.463-.463V23.11c0-1.697-1.094-2.609-3.001-2.609-1.81 0-3.016.87-3.17 2.273h1.486c.113-.632.716-1.052 1.614-1.052.995 0 1.57.49 1.57 1.29v.435h-1.809c-2.006 0-3.072.828-3.072 2.3 0 1.333 1.094 2.104 2.665 2.104 1.165 0 1.894-.505 2.37-1.234 0 .715.338 1.15 1.32 1.15h.799V26.45h-.309zm-1.964-1.627c-.014 1.108-.743 1.851-2.005 1.851-.828 0-1.333-.42-1.333-1.024 0-.73.52-1.08 1.459-1.08h1.88v.253zm6.885-4.32c-1.164 0-1.851.462-2.3 1.023l-.168-.94H73.98v7.182h1.515v-3.619c0-1.459.715-2.342 1.921-2.342 1.137 0 1.712.73 1.712 2.09v3.871h1.529V23.77c0-2.399-1.305-3.269-2.89-3.269zm7.856 7.265h1.515v-1.823l1.29-1.347 2.118 3.17h1.796l-2.876-4.278 2.708-2.903h-1.782l-3.254 3.478V17.95h-1.515v9.818zm11.239-7.266c-1.164 0-1.852.463-2.3 1.024l-.169-.94h-1.318v7.182h1.515v-3.619c0-1.459.715-2.342 1.921-2.342 1.136 0 1.712.73 1.712 2.09v3.871h1.528V23.77c0-2.399-1.304-3.269-2.89-3.269zm7.607 7.35c2.188 0 3.661-1.473 3.661-3.675 0-2.188-1.473-3.675-3.661-3.675-2.188 0-3.661 1.487-3.661 3.675 0 2.203 1.473 3.675 3.661 3.675zm0-1.29c-1.277 0-2.104-.996-2.104-2.385 0-1.388.827-2.384 2.104-2.384 1.276 0 2.118.996 2.118 2.384 0 1.389-.842 2.385-2.118 2.385zm8.175 1.29c1.837 0 3.058-1.024 3.338-2.65h-1.599c-.182.827-.799 1.36-1.725 1.36-1.22 0-2.02-.968-2.02-2.37 0-1.417.8-2.4 2.02-2.4.94 0 1.543.52 1.739 1.361h1.585c-.294-1.627-1.444-2.65-3.296-2.65-2.174 0-3.605 1.472-3.605 3.688 0 2.245 1.389 3.661 3.563 3.661zm4.498-.084h1.515v-1.823l1.29-1.347 2.118 3.17h1.795l-2.875-4.278 2.707-2.903h-1.781l-3.254 3.478V17.95h-1.515v9.818zm13.116.042l-.28.702c-.225.589-.365.729-.954.729h-1.066v1.333h1.627c1.052 0 1.36-.52 1.809-1.684l3.254-8.303h-1.613l-1.949 5.456-2.006-5.456h-1.613l2.791 7.223zm8.222.042c2.188 0 3.661-1.473 3.661-3.675 0-2.188-1.473-3.675-3.661-3.675-2.188 0-3.661 1.487-3.661 3.675 0 2.203 1.473 3.675 3.661 3.675zm0-1.29c-1.276 0-2.104-.996-2.104-2.385 0-1.388.828-2.384 2.104-2.384 1.277 0 2.118.996 2.118 2.384 0 1.389-.841 2.385-2.118 2.385zm9.803-2.385c0 1.487-.702 2.357-1.852 2.357-1.108 0-1.669-.716-1.669-2.118v-3.83h-1.515v3.998c0 2.455 1.305 3.268 2.834 3.268 1.108 0 1.767-.448 2.216-.996l.168.912h1.333v-7.181h-1.515v3.59zm9.991 3.675c2.188 0 3.661-1.473 3.661-3.675 0-2.188-1.473-3.675-3.661-3.675-2.189 0-3.661 1.487-3.661 3.675 0 2.203 1.472 3.675 3.661 3.675zm0-1.29c-1.277 0-2.104-.996-2.104-2.385 0-1.388.827-2.384 2.104-2.384 1.276 0 2.118.996 2.118 2.384 0 1.389-.842 2.385-2.118 2.385zm12.959-7.28V17.95h-1.444c-1.389 0-2.006.659-2.006 1.921v.716h-2.637v-.604c0-.49.196-.7.687-.7h1.066v-1.333h-1.276c-1.389 0-2.006.659-2.006 1.921v.716h-1.248v1.332h1.248v5.85h1.529v-5.85h2.637v5.85h1.515v-5.85h1.935v-1.332h-1.935v-.604c0-.49.21-.7.701-.7h1.234z" fill="#000"/><path d="M186.613 12.459c-2.408 0-4.024 1.097-5.06 2.499V6.911h-3.292v21.336h2.865l.396-2.255c.976 1.402 2.652 2.438 5.091 2.438 4.267 0 7.376-3.2 7.376-7.986 0-5.029-3.109-7.985-7.376-7.985zm-.549 13.198c-2.743 0-4.542-2.165-4.542-5.243 0-3.018 1.799-5.151 4.542-5.151s4.572 2.133 4.572 5.181c0 3.079-1.829 5.213-4.572 5.213zm24.827-.275c-.67 0-1.005-.213-1.005-1.006v-6.248c0-3.688-2.378-5.67-6.523-5.67-3.932 0-6.554 1.89-6.889 4.938h3.231c.244-1.371 1.555-2.286 3.505-2.286 2.164 0 3.414 1.067 3.414 2.805v.945h-3.932c-4.358 0-6.675 1.798-6.675 4.998 0 2.896 2.377 4.572 5.791 4.572 2.53 0 4.115-1.097 5.151-2.682 0 1.554.732 2.5 2.866 2.5h1.737v-2.866h-.671zm-4.267-3.536c-.03 2.409-1.615 4.024-4.359 4.024-1.798 0-2.895-.915-2.895-2.225 0-1.585 1.128-2.347 3.17-2.347h4.084v.549zm6.731 6.401h3.292V6.911h-3.292v21.336zm20.784-2.865c-.671 0-1.006-.213-1.006-1.006v-6.248c0-3.688-2.378-5.67-6.523-5.67-3.932 0-6.553 1.89-6.889 4.938h3.231c.244-1.371 1.555-2.286 3.505-2.286 2.165 0 3.414 1.067 3.414 2.805v.945h-3.932c-4.358 0-6.675 1.798-6.675 4.998 0 2.896 2.378 4.572 5.791 4.572 2.53 0 4.115-1.097 5.152-2.682 0 1.554.731 2.5 2.865 2.5h1.737v-2.866h-.67zm-4.268-3.536c-.03 2.409-1.615 4.024-4.358 4.024-1.799 0-2.896-.915-2.896-2.225 0-1.585 1.128-2.347 3.17-2.347h4.084v.549zm14.961-9.387c-2.53 0-4.024 1.005-4.999 2.225l-.366-2.042h-2.865v15.605h3.292v-7.863c0-3.17 1.555-5.09 4.176-5.09 2.469 0 3.718 1.584 3.718 4.54v8.413h3.323v-8.686c0-5.213-2.835-7.102-6.279-7.102zm16.316 15.971c3.993 0 6.645-2.225 7.255-5.76h-3.475c-.396 1.798-1.738 2.956-3.749 2.956-2.652 0-4.389-2.103-4.389-5.151 0-3.079 1.737-5.212 4.389-5.212 2.042 0 3.353 1.128 3.779 2.956h3.445c-.64-3.535-3.14-5.76-7.163-5.76-4.725 0-7.834 3.2-7.834 8.016 0 4.877 3.018 7.955 7.742 7.955zm17.181 0c3.871 0 6.492-2.347 7.041-5.425h-3.292c-.457 1.737-1.92 2.743-3.932 2.743-2.591 0-4.267-1.737-4.359-4.39v-.213h11.766c.061-.426.091-.853.091-1.25-.091-4.571-3.109-7.436-7.62-7.436-4.602 0-7.681 3.2-7.681 8.016 0 4.785 3.079 7.955 7.986 7.955zm-4.42-9.692c.244-2.226 2.042-3.628 4.146-3.628 2.286 0 3.901 1.311 4.175 3.628h-8.321zm13.139 7.62c0 1.219.884 2.072 2.103 2.072 1.219 0 2.134-.853 2.134-2.072 0-1.22-.915-2.073-2.134-2.073-1.219 0-2.103.853-2.103 2.073z" fill="url(#paint0_linear_1072_153)"/><defs><linearGradient id="paint0_linear_1072_153" x1="319.557" y1="14.311" x2="176.646" y2="14.311" gradientUnits="userSpaceOnUse"><stop stop-color="#FF4343"/><stop offset=".5" stop-color="#9C0B93"/><stop offset="1" stop-color="#4C1BB7"/></linearGradient></defs></svg>