<svg width="520" height="20" viewBox="0 0 520 20" fill="none" xmlns="http://www.w3.org/2000/svg"><path d="M.966 10.485c.147 2.772 2.163 4.641 5.46 4.641 3.087 0 5.124-1.68 5.124-4.158 0-2.793-2.478-3.507-4.914-3.927-2.247-.378-4.2-.756-4.2-2.856 0-1.911 1.491-2.982 3.801-2.982 2.205 0 3.717 1.239 3.969 3.15h1.155C11.151 1.833 9.24.174 6.237.174c-2.982 0-4.935 1.575-4.935 4.074 0 2.793 2.394 3.423 4.746 3.822 2.31.399 4.368.861 4.368 3.003 0 1.89-1.596 3.024-3.969 3.024-2.478 0-4.158-1.428-4.305-3.612H.966zm13.622 2.037c0 1.701.693 2.478 2.5 2.478h1.553v-.987h-1.47c-1.113 0-1.512-.42-1.512-1.512V5.34h2.877v-.987H15.66V1.371h-1.07v2.982h-2.017v.987h2.016v7.182zm14.823 1.491c-.63 0-.945-.21-.945-1.029V8.028c0-2.436-1.49-3.801-4.158-3.801-2.436 0-4.053 1.176-4.326 3.108h1.071c.273-1.302 1.407-2.163 3.213-2.163 1.995 0 3.13 1.05 3.13 2.814v.924h-3.613c-2.73 0-4.2 1.176-4.2 3.171 0 1.89 1.491 3.045 3.76 3.045 2.162 0 3.443-.987 4.094-2.31v.378C27.395 14.454 27.92 15 29.18 15h.63v-.987h-.399zm-2.016-3.318c0 2.037-1.449 3.507-3.969 3.507-1.7 0-2.75-.861-2.75-2.184 0-1.407 1.05-2.184 3.023-2.184h3.696v.861zm8.194-6.342c-1.974 0-2.814.945-3.255 2.121l-.168-2.121h-.924V15h1.071V9.603c0-2.163.567-4.221 3.066-4.221h.777V4.353h-.567zm3.24 8.169c0 1.701.693 2.478 2.498 2.478h1.555v-.987h-1.47c-1.114 0-1.512-.42-1.512-1.512V5.34h2.877v-.987H39.9V1.371h-1.072v2.982h-2.016v.987h2.017v7.182zm12.14 0c0 1.701.693 2.478 2.5 2.478h1.553v-.987h-1.47c-1.113 0-1.512-.42-1.512-1.512V5.34h2.877v-.987H52.04V1.371h-1.07v2.982h-2.017v.987h2.016v7.182zM61 4.353c-1.974 0-2.814.945-3.255 2.121l-.168-2.121h-.924V15h1.07V9.603c0-2.163.568-4.221 3.067-4.221h.777V4.353h-.567zm11.068 9.66c-.63 0-.945-.21-.945-1.029V8.028c0-2.436-1.49-3.801-4.158-3.801-2.436 0-4.053 1.176-4.326 3.108h1.071c.273-1.302 1.407-2.163 3.213-2.163 1.995 0 3.13 1.05 3.13 2.814v.924h-3.613c-2.73 0-4.2 1.176-4.2 3.171 0 1.89 1.491 3.045 3.76 3.045 2.162 0 3.443-.987 4.094-2.31v.378c-.042 1.26.483 1.806 1.743 1.806h.63v-.987h-.399zm-2.016-3.318c0 2.037-1.449 3.507-3.969 3.507-1.7 0-2.75-.861-2.75-2.184 0-1.407 1.05-2.184 3.023-2.184h3.696v.861zM82.43 6.747c-.651-1.512-2.08-2.52-4.074-2.52-2.92 0-5.02 2.226-5.02 5.439 0 3.36 2.1 5.46 5.02 5.46 1.995 0 3.38-1.071 4.053-2.562L82.576 15h.924V.3h-1.071v6.447zm-3.99 7.413c-2.373 0-4.011-1.848-4.011-4.494 0-2.625 1.638-4.494 4.01-4.494 2.374 0 4.012 1.869 4.012 4.515 0 2.625-1.638 4.473-4.011 4.473zm8.126-12.054a.74.74 0 00.756-.756.74.74 0 00-.756-.756.74.74 0 00-.756.756.74.74 0 00.756.756zM86.019 15h1.07V4.353h-1.07V15zm8.503-10.773c-1.953 0-3.213 1.008-3.822 2.394l-.168-2.268h-.924V15h1.07V9.75c0-2.772 1.408-4.536 3.676-4.536 2.058 0 3.297 1.344 3.297 3.864V15h1.07V9.036c0-3.36-1.784-4.809-4.2-4.809zm15.243 2.604c-.651-1.575-2.079-2.604-4.053-2.604-2.919 0-5.019 2.205-5.019 5.439 0 3.36 2.1 5.46 5.019 5.46 1.995 0 3.402-1.05 4.074-2.709v1.89c0 2.835-1.344 4.053-3.906 4.053-1.995 0-3.381-.903-3.717-2.52h-1.113c.336 2.268 2.163 3.486 4.746 3.486 3.444 0 5.061-1.638 5.061-4.977V4.353h-.924l-.168 2.478zm-3.969 7.329c-2.373 0-4.011-1.848-4.011-4.494s1.638-4.494 4.011-4.494 4.011 1.848 4.011 4.515c0 2.625-1.638 4.473-4.011 4.473zm14.059-1.533c.861 1.554 2.331 2.499 4.368 2.499 2.919 0 4.893-2.058 4.893-4.893 0-2.94-1.89-4.872-4.767-4.872-2.31 0-3.969 1.386-4.347 3.423-.042.21-.063.399-.042.567a8.278 8.278 0 01-.21-1.89c0-3.633 1.428-6.321 4.368-6.321 2.058 0 3.213 1.239 3.57 2.94h1.092c-.357-2.289-2.016-3.906-4.62-3.906-3.528 0-5.376 3.066-5.376 7.476 0 1.89.399 3.675 1.071 4.977zm8.169-2.394c0 2.31-1.512 3.927-3.822 3.927-2.289 0-3.822-1.596-3.822-3.906s1.575-3.927 3.906-3.927c2.31 0 3.738 1.617 3.738 3.906zm2.979 3.297c-.567 0-.924.357-.924.819 0 .504.336.756.735.756.21 0 .42-.084.525-.252.147.147.189.357.189.546 0 .798-.504 1.617-1.575 1.659v.63c1.449-.063 2.352-1.029 2.352-2.415 0-.966-.546-1.743-1.302-1.743zm2.116-5.544c0 4.305 2.121 7.14 5.313 7.14 3.15 0 5.292-2.835 5.292-7.14v-.672c0-4.179-2.142-7.14-5.292-7.14-3.192 0-5.313 2.961-5.313 7.14v.672zm9.492-.042c0 3.738-1.659 6.174-4.179 6.174-2.541 0-4.2-2.436-4.2-6.174v-.588c0-3.738 1.659-6.174 4.2-6.174 2.52 0 4.179 2.436 4.179 6.174v.588zm3.121.042c0 4.305 2.121 7.14 5.313 7.14 3.15 0 5.292-2.835 5.292-7.14v-.672c0-4.179-2.142-7.14-5.292-7.14-3.192 0-5.313 2.961-5.313 7.14v.672zm9.492-.042c0 3.738-1.659 6.174-4.179 6.174-2.541 0-4.2-2.436-4.2-6.174v-.588c0-3.738 1.659-6.174 4.2-6.174 2.52 0 4.179 2.436 4.179 6.174v.588zm3.12.042c0 4.305 2.121 7.14 5.313 7.14 3.15 0 5.292-2.835 5.292-7.14v-.672c0-4.179-2.142-7.14-5.292-7.14-3.192 0-5.313 2.961-5.313 7.14v.672zm9.492-.042c0 3.738-1.659 6.174-4.179 6.174-2.541 0-4.2-2.436-4.2-6.174v-.588c0-3.738 1.659-6.174 4.2-6.174 2.52 0 4.179 2.436 4.179 6.174v.588zm7.152.567h-3.654v.903h3.654v3.843h.987V9.414h3.675v-.903h-3.675V4.668h-.987v3.843zm24.882-4.284c-1.953 0-3.213 1.092-3.822 2.667-.504-1.764-1.827-2.667-3.507-2.667-1.827 0-2.919 1.071-3.465 2.394l-.168-2.268h-.924V15h1.071V9.582c0-2.604 1.26-4.368 3.297-4.368 1.848 0 3.003 1.302 3.003 3.759V15h1.071V9.204c.063-2.436 1.323-3.99 3.318-3.99 1.848 0 2.961 1.239 2.961 3.654V15h1.092V8.826c0-3.213-1.701-4.599-3.927-4.599zm15.67 9.786c-.63 0-.945-.21-.945-1.029V8.028c0-2.436-1.491-3.801-4.158-3.801-2.436 0-4.053 1.176-4.326 3.108h1.071c.273-1.302 1.407-2.163 3.213-2.163 1.995 0 3.129 1.05 3.129 2.814v.924h-3.612c-2.73 0-4.2 1.176-4.2 3.171 0 1.89 1.491 3.045 3.759 3.045 2.163 0 3.444-.987 4.095-2.31v.378c-.042 1.26.483 1.806 1.743 1.806h.63v-.987h-.399zm-2.016-3.318c0 2.037-1.449 3.507-3.969 3.507-1.701 0-2.751-.861-2.751-2.184 0-1.407 1.05-2.184 3.024-2.184h3.696v.861zm8.194-6.342c-1.974 0-2.814.945-3.255 2.121l-.168-2.121h-.924V15h1.071V9.603c0-2.163.567-4.221 3.066-4.221h.777V4.353h-.567zM223.872 15h1.071v-2.877l2.499-2.562L231.516 15h1.302l-4.641-6.216 4.284-4.431h-1.323l-6.195 6.384V.3h-1.071V15zm14.507.126c2.331 0 4.116-1.512 4.578-3.654h-1.092c-.42 1.659-1.827 2.688-3.57 2.688-2.373 0-3.864-1.806-3.906-4.284v-.189h8.694c0-.147.021-.315.021-.441-.105-3.171-2.058-5.019-4.914-5.019-2.919 0-4.914 2.226-4.914 5.376 0 3.339 2.079 5.523 5.103 5.523zm-3.906-6.342c.168-2.163 1.785-3.612 3.738-3.612 2.079 0 3.57 1.281 3.738 3.612h-7.476zm11.382 3.738c0 1.701.693 2.478 2.499 2.478h1.554v-.987h-1.47c-1.113 0-1.512-.42-1.512-1.512V5.34h2.877v-.987h-2.877V1.371h-1.071v2.982h-2.016v.987h2.016v7.182zm5.199-.798c.084 2.205 1.869 3.402 4.536 3.402 2.289 0 4.137-1.155 4.137-3.045 0-2.247-1.974-2.688-4.263-3.003-1.659-.231-3.129-.42-3.129-1.911 0-1.218 1.197-2.016 3.003-2.016 1.701 0 2.919.819 3.108 2.205h1.092c-.189-2.079-1.89-3.129-4.2-3.129-2.373-.021-4.074 1.197-4.074 3.024 0 2.142 1.974 2.541 4.158 2.835 1.785.252 3.234.483 3.234 2.058 0 1.26-1.323 2.058-3.066 2.058-2.037 0-3.36-.945-3.444-2.478h-1.092zm27.864 2.31c-.588 0-1.008-.126-1.449-.672l-1.05-1.218 3.339-5.082h-1.134l-2.856 4.305-3.276-3.843-.126-.147c2.814-1.176 3.822-2.52 3.822-4.158 0-1.743-1.365-3.045-3.213-3.045-2.184 0-3.801 1.449-3.801 3.381 0 1.344.462 2.184 1.596 3.57-2.562 1.092-3.591 2.604-3.591 4.263 0 2.415 1.911 3.738 4.305 3.738 1.638 0 3.066-.735 4.263-2.142l1.029 1.218c.504.609 1.197.798 1.995.798h1.47v-.966h-1.323zm-6.027-12.936c1.302 0 2.205.903 2.205 2.142 0 1.428-.987 2.457-3.297 3.465-1.071-1.281-1.512-2.016-1.512-3.171 0-1.407 1.071-2.436 2.604-2.436zm-1.386 13.062c-1.848 0-3.234-1.05-3.234-2.856 0-1.533.861-2.478 3.045-3.528l.315.357 3.486 4.116c-.987 1.239-2.226 1.911-3.612 1.911zm25.23-7.329c-.651-1.575-2.079-2.604-4.053-2.604-2.919 0-5.019 2.205-5.019 5.439 0 3.36 2.1 5.46 5.019 5.46 1.995 0 3.402-1.05 4.074-2.709v1.89c0 2.835-1.344 4.053-3.906 4.053-1.995 0-3.381-.903-3.717-2.52h-1.113c.336 2.268 2.163 3.486 4.746 3.486 3.444 0 5.061-1.638 5.061-4.977V4.353h-.924l-.168 2.478zm-3.969 7.329c-2.373 0-4.011-1.848-4.011-4.494s1.638-4.494 4.011-4.494 4.011 1.848 4.011 4.515c0 2.625-1.638 4.473-4.011 4.473zm12.284.966c2.331 0 4.116-1.512 4.578-3.654h-1.092c-.42 1.659-1.827 2.688-3.57 2.688-2.373 0-3.864-1.806-3.906-4.284v-.189h8.694c0-.147.021-.315.021-.441-.105-3.171-2.058-5.019-4.914-5.019-2.919 0-4.914 2.226-4.914 5.376 0 3.339 2.079 5.523 5.103 5.523zm-3.906-6.342c.168-2.163 1.785-3.612 3.738-3.612 2.079 0 3.57 1.281 3.738 3.612h-7.476zm11.382 3.738c0 1.701.693 2.478 2.499 2.478h1.554v-.987h-1.47c-1.113 0-1.512-.42-1.512-1.512V5.34h2.877v-.987h-2.877V1.371h-1.071v2.982h-2.016v.987h2.016v7.182zm23.228-8.295c-1.953 0-3.213 1.092-3.822 2.667-.504-1.764-1.827-2.667-3.507-2.667-1.827 0-2.919 1.071-3.465 2.394l-.168-2.268h-.924V15h1.071V9.582c0-2.604 1.26-4.368 3.297-4.368 1.848 0 3.003 1.302 3.003 3.759V15h1.071V9.204c.063-2.436 1.323-3.99 3.318-3.99 1.848 0 2.961 1.239 2.961 3.654V15h1.092V8.826c0-3.213-1.701-4.599-3.927-4.599zm10.845 10.899c3.003 0 5.124-2.226 5.124-5.46 0-3.213-2.121-5.439-5.124-5.439-3.003 0-5.103 2.226-5.103 5.439 0 3.234 2.1 5.46 5.103 5.46zm0-.966c-2.373 0-4.011-1.848-4.011-4.494 0-2.625 1.638-4.494 4.011-4.494s4.011 1.869 4.011 4.494c0 2.646-1.638 4.494-4.011 4.494zm12.166-9.933c-1.953 0-3.213 1.008-3.822 2.394l-.168-2.268h-.924V15h1.071V9.75c0-2.772 1.407-4.536 3.675-4.536 2.058 0 3.297 1.344 3.297 3.864V15h1.071V9.036c0-3.36-1.785-4.809-4.2-4.809zm7.368 8.295c0 1.701.693 2.478 2.499 2.478h1.554v-.987h-1.47c-1.113 0-1.512-.42-1.512-1.512V5.34h2.877v-.987h-2.877V1.371h-1.071v2.982h-2.016v.987h2.016v7.182zm10.597-8.295c-1.995 0-3.234 1.113-3.843 2.646V.3h-1.071V15h1.071V9.75c0-2.772 1.407-4.536 3.675-4.536 2.037 0 3.297 1.344 3.297 3.864V15h1.071V9.036c0-3.36-1.785-4.809-4.2-4.809zM383.321 15h1.071V.3h-1.071V15zm6.78 0l-.693 1.722c-.483 1.176-.672 1.491-1.764 1.491H386.3v.987h1.638c1.428 0 1.764-.546 2.436-2.226l5.103-12.621h-1.155l-3.633 9.261-3.696-9.261h-1.155L390.101 15zm17.117.126c2.415 0 4.116-1.386 4.536-3.549h-1.134c-.357 1.575-1.638 2.583-3.402 2.583-2.331 0-3.948-1.827-3.948-4.473s1.596-4.515 3.948-4.515c1.785 0 3.045 1.008 3.423 2.604h1.113c-.441-2.205-2.1-3.549-4.515-3.549-3.003 0-5.061 2.226-5.061 5.46 0 3.276 2.037 5.439 5.04 5.439zm15.984-1.113c-.63 0-.945-.21-.945-1.029V8.028c0-2.436-1.491-3.801-4.158-3.801-2.436 0-4.053 1.176-4.326 3.108h1.071c.273-1.302 1.407-2.163 3.213-2.163 1.995 0 3.129 1.05 3.129 2.814v.924h-3.612c-2.73 0-4.2 1.176-4.2 3.171 0 1.89 1.491 3.045 3.759 3.045 2.163 0 3.444-.987 4.095-2.31v.378c-.042 1.26.483 1.806 1.743 1.806h.63v-.987h-.399zm-2.016-3.318c0 2.037-1.449 3.507-3.969 3.507-1.701 0-2.751-.861-2.751-2.184 0-1.407 1.05-2.184 3.024-2.184h3.696v.861zm3.364 1.029c.084 2.205 1.869 3.402 4.536 3.402 2.289 0 4.137-1.155 4.137-3.045 0-2.247-1.974-2.688-4.263-3.003-1.659-.231-3.129-.42-3.129-1.911 0-1.218 1.197-2.016 3.003-2.016 1.701 0 2.919.819 3.108 2.205h1.092c-.189-2.079-1.89-3.129-4.2-3.129-2.373-.021-4.074 1.197-4.074 3.024 0 2.142 1.974 2.541 4.158 2.835 1.785.252 3.234.483 3.234 2.058 0 1.26-1.323 2.058-3.066 2.058-2.037 0-3.36-.945-3.444-2.478h-1.092zm15.631-7.497c-1.995 0-3.234 1.113-3.843 2.646V.3h-1.071V15h1.071V9.75c0-2.772 1.407-4.536 3.675-4.536 2.037 0 3.297 1.344 3.297 3.864V15h1.071V9.036c0-3.36-1.785-4.809-4.2-4.809zm16.598.126c-1.974 0-2.814.945-3.255 2.121l-.168-2.121h-.924V15h1.071V9.603c0-2.163.567-4.221 3.066-4.221h.777V4.353h-.567zm6.099 10.773c2.331 0 4.116-1.512 4.578-3.654h-1.092c-.42 1.659-1.827 2.688-3.57 2.688-2.373 0-3.864-1.806-3.906-4.284v-.189h8.694c0-.147.021-.315.021-.441-.105-3.171-2.058-5.019-4.914-5.019-2.919 0-4.914 2.226-4.914 5.376 0 3.339 2.079 5.523 5.103 5.523zm-3.906-6.342c.168-2.163 1.785-3.612 3.738-3.612 2.079 0 3.57 1.281 3.738 3.612h-7.476zm15.893-4.557c-1.995 0-3.402 1.092-4.074 2.604V.3h-1.071V15h.924l.168-2.415c.63 1.533 2.058 2.541 4.053 2.541 2.919 0 5.019-2.226 5.019-5.46 0-3.339-2.1-5.439-5.019-5.439zm-.084 9.933c-2.373 0-4.011-1.848-4.011-4.515 0-2.604 1.638-4.473 4.011-4.473s4.011 1.869 4.011 4.494c0 2.646-1.638 4.494-4.011 4.494zm16.589-.147c-.63 0-.945-.21-.945-1.029V8.028c0-2.436-1.491-3.801-4.158-3.801-2.436 0-4.053 1.176-4.326 3.108h1.071c.273-1.302 1.407-2.163 3.213-2.163 1.995 0 3.129 1.05 3.129 2.814v.924h-3.612c-2.73 0-4.2 1.176-4.2 3.171 0 1.89 1.491 3.045 3.759 3.045 2.163 0 3.444-.987 4.095-2.31v.378c-.042 1.26.483 1.806 1.743 1.806h.63v-.987h-.399zm-2.016-3.318c0 2.037-1.449 3.507-3.969 3.507-1.701 0-2.751-.861-2.751-2.184 0-1.407 1.05-2.184 3.024-2.184h3.696v.861zm4.645 1.827c0 1.701.693 2.478 2.499 2.478h1.554v-.987h-1.47c-1.113 0-1.512-.42-1.512-1.512V5.34h2.877v-.987h-2.877V1.371h-1.071v2.982h-2.016v.987h2.016v7.182zm10.059 2.604c2.331 0 4.116-1.512 4.578-3.654h-1.092c-.42 1.659-1.827 2.688-3.57 2.688-2.373 0-3.864-1.806-3.906-4.284v-.189h8.694c0-.147.021-.315.021-.441-.105-3.171-2.058-5.019-4.914-5.019-2.919 0-4.914 2.226-4.914 5.376 0 3.339 2.079 5.523 5.103 5.523zm-3.906-6.342c.168-2.163 1.785-3.612 3.738-3.612 2.079 0 3.57 1.281 3.738 3.612h-7.476zm10.244 2.94c.084 2.205 1.869 3.402 4.536 3.402 2.289 0 4.137-1.155 4.137-3.045 0-2.247-1.974-2.688-4.263-3.003-1.659-.231-3.129-.42-3.129-1.911 0-1.218 1.197-2.016 3.003-2.016 1.701 0 2.919.819 3.108 2.205h1.092c-.189-2.079-1.89-3.129-4.2-3.129-2.373-.021-4.074 1.197-4.074 3.024 0 2.142 1.974 2.541 4.158 2.835 1.785.252 3.234.483 3.234 2.058 0 1.26-1.323 2.058-3.066 2.058-2.037 0-3.36-.945-3.444-2.478h-1.092z" fill="#000"/></svg>