<svg width="305" height="34" viewBox="0 0 305 34" fill="none" xmlns="http://www.w3.org/2000/svg"><path d="M.72 4.472h7.776V26h4.14V4.472h7.776V.8H.72v3.672zm29.918 3.096c-3.024 0-4.5 1.224-5.436 2.772l-.432-2.772h-3.456V26h3.888v-9.252c0-2.844 1.116-5.544 4.572-5.544h1.728V7.568h-.864zm19.548 15.048c-.792 0-1.188-.252-1.188-1.188v-7.38c0-4.356-2.808-6.696-7.704-6.696-4.644 0-7.74 2.232-8.136 5.832h3.816c.288-1.62 1.836-2.7 4.14-2.7 2.556 0 4.032 1.26 4.032 3.312v1.116h-4.644c-5.148 0-7.884 2.124-7.884 5.904 0 3.42 2.808 5.4 6.84 5.4 2.988 0 4.86-1.296 6.084-3.168 0 1.836.864 2.952 3.384 2.952h2.052v-3.384h-.792zm-5.04-4.176c-.036 2.844-1.908 4.752-5.148 4.752-2.124 0-3.42-1.08-3.42-2.628 0-1.872 1.332-2.772 3.744-2.772h4.824v.648zm21.813-8.316c-1.188-1.62-3.168-2.772-5.976-2.772-5.004 0-8.712 3.744-8.712 9.432 0 5.904 3.708 9.432 8.712 9.432 2.916 0 4.824-1.368 6.012-2.988L67.463 26h3.384V.8h-3.888v9.324zM61.63 22.94c-3.24 0-5.364-2.52-5.364-6.156 0-3.6 2.124-6.12 5.364-6.12 3.24 0 5.364 2.52 5.364 6.192 0 3.564-2.124 6.084-5.364 6.084zm21.763 3.276c4.572 0 7.668-2.772 8.316-6.408h-3.888c-.54 2.052-2.268 3.24-4.644 3.24-3.06 0-5.04-2.052-5.148-5.184v-.252h13.896c.072-.504.108-1.008.108-1.476-.108-5.4-3.672-8.784-9-8.784-5.436 0-9.072 3.78-9.072 9.468 0 5.652 3.636 9.396 9.432 9.396zm-5.22-11.448c.288-2.628 2.412-4.284 4.896-4.284 2.7 0 4.608 1.548 4.932 4.284h-9.828zm16.106 5.148c.108 3.996 3.492 6.3 8.424 6.3 4.464 0 7.812-2.232 7.812-5.76 0-4.104-3.42-4.968-7.632-5.472-2.664-.288-4.428-.504-4.428-2.232 0-1.476 1.512-2.412 3.816-2.412s3.888 1.188 4.104 2.88h3.816c-.252-3.78-3.456-5.868-7.992-5.868-4.428-.036-7.56 2.232-7.56 5.724 0 3.816 3.312 4.716 7.524 5.22 2.844.36 4.536.504 4.536 2.484 0 1.476-1.584 2.412-3.996 2.412-2.808 0-4.464-1.368-4.608-3.276H94.28zm42.536-9.468c-1.188-1.836-3.168-3.096-6.048-3.096-5.004 0-8.712 3.708-8.712 9.36 0 5.868 3.708 9.36 8.712 9.36 2.88 0 4.788-1.188 6.012-3.024V25.1c0 3.528-1.908 5.148-5.292 5.148-2.736 0-4.536-1.188-5.004-3.24h-3.96c.36 4.14 3.78 6.408 8.676 6.408 6.624 0 9.432-3.168 9.432-8.172V7.568h-3.384l-.432 2.88zm-5.4 12.348c-3.24 0-5.364-2.484-5.364-6.084 0-3.564 2.124-6.084 5.364-6.084 3.24 0 5.364 2.52 5.364 6.156 0 3.528-2.124 6.012-5.364 6.012zm21.727 3.42c5.616 0 9.396-3.78 9.396-9.432 0-5.616-3.78-9.432-9.396-9.432-5.616 0-9.396 3.816-9.396 9.432 0 5.652 3.78 9.432 9.396 9.432zm0-3.312c-3.276 0-5.4-2.556-5.4-6.12s2.124-6.12 5.4-6.12c3.276 0 5.436 2.556 5.436 6.12s-2.16 6.12-5.436 6.12zm14.503-17.928c1.332 0 2.376-.972 2.376-2.34 0-1.368-1.044-2.34-2.376-2.34-1.332 0-2.376.972-2.376 2.34 0 1.368 1.044 2.34 2.376 2.34zM165.666 26h3.888V7.568h-3.888V26zm17.419-18.648c-2.988 0-4.752 1.188-5.904 2.628l-.432-2.412h-3.384V26h3.888v-9.288c0-3.744 1.836-6.012 4.932-6.012 2.916 0 4.392 1.872 4.392 5.364V26h3.924V15.74c0-6.156-3.348-8.388-7.416-8.388zm25.028 3.096c-1.188-1.836-3.168-3.096-6.048-3.096-5.004 0-8.712 3.708-8.712 9.36 0 5.868 3.708 9.36 8.712 9.36 2.88 0 4.788-1.188 6.012-3.024V25.1c0 3.528-1.908 5.148-5.292 5.148-2.736 0-4.536-1.188-5.004-3.24h-3.96c.36 4.14 3.78 6.408 8.676 6.408 6.624 0 9.432-3.168 9.432-8.172V7.568h-3.384l-.432 2.88zm-5.4 12.348c-3.24 0-5.364-2.484-5.364-6.084 0-3.564 2.124-6.084 5.364-6.084 3.24 0 5.364 2.52 5.364 6.156 0 3.528-2.124 6.012-5.364 6.012zM229.187 26h4.212l4.032-12.528L241.319 26h4.176l6.12-18.432h-3.96l-4.356 14.112-4.032-14.112h-3.564l-4.212 14.112-4.212-14.112h-4.104L229.187 26zm32.59.216c4.572 0 7.668-2.772 8.316-6.408h-3.888c-.54 2.052-2.268 3.24-4.644 3.24-3.06 0-5.04-2.052-5.148-5.184v-.252h13.896c.072-.504.108-1.008.108-1.476-.108-5.4-3.672-8.784-9-8.784-5.436 0-9.072 3.78-9.072 9.468 0 5.652 3.636 9.396 9.432 9.396zm-5.22-11.448c.288-2.628 2.412-4.284 4.896-4.284 2.7 0 4.608 1.548 4.932 4.284h-9.828zM273.56 26h3.888V.8h-3.888V26zm7.7 0h3.888V.8h-3.888V26zm10.795-16.956c0-2.988 1.8-5.004 4.572-5.004 2.412 0 4.032 1.44 4.032 3.492 0 1.728-.936 2.88-2.556 3.96-2.16 1.404-3.852 2.592-3.852 5.508v1.152h3.672v-.72c0-1.8 1.224-2.736 3.168-4.068 1.872-1.332 3.6-2.916 3.6-6.228 0-3.78-3.096-6.552-8.1-6.552-5.364 0-8.496 3.78-8.496 8.46h3.96zm1.656 14.76c0 1.44 1.08 2.412 2.484 2.412s2.448-.972 2.448-2.412-1.044-2.412-2.448-2.412-2.484.972-2.484 2.412z" fill="#000"/></svg>