<svg width="58" height="16" viewBox="0 0 58 16" fill="none" xmlns="http://www.w3.org/2000/svg"><rect width="58" height="16" rx="8" fill="#000"/><path d="M10.16 6.04h1.816V11h.696V6.04h1.816V5.4H10.16v.64zm6.418.88c-.728 0-1.04.304-1.232.616l-.088-.616h-.568V11h.656V8.92c0-.648.232-1.36 1.088-1.36h.328v-.64h-.184zm4.22 3.48c-.184 0-.264-.056-.264-.272V8.344c0-.952-.6-1.472-1.64-1.472-.984 0-1.632.472-1.728 1.272h.656c.08-.416.464-.688 1.04-.688.64 0 1.016.32 1.016.848v.28h-1.2c-1.072 0-1.64.456-1.64 1.272 0 .744.608 1.192 1.504 1.192.704 0 1.112-.312 1.368-.68.008.4.192.632.736.632h.36v-.6h-.208zm-.92-1.064c0 .68-.472 1.152-1.288 1.152-.544 0-.888-.272-.888-.672 0-.464.328-.68.912-.68h1.264v.2zm4.802-1.792c-.248-.392-.712-.672-1.4-.672-1.128 0-1.96.84-1.96 2.088 0 1.328.832 2.088 1.96 2.088a1.65 1.65 0 001.4-.704l.088.656h.568V5.4h-.656v2.144zm-1.336 2.92c-.808 0-1.352-.616-1.352-1.504s.544-1.504 1.352-1.504c.8 0 1.344.624 1.344 1.52 0 .872-.544 1.488-1.344 1.488zm4.765.584c.944 0 1.616-.6 1.776-1.416h-.664c-.136.528-.584.832-1.16.832-.776 0-1.264-.544-1.288-1.32v-.056h3.168c.008-.096.016-.192.016-.28-.032-1.208-.784-1.936-1.936-1.936s-1.936.848-1.936 2.088c0 1.248.8 2.088 2.024 2.088zm-1.296-2.504a1.208 1.208 0 011.216-1.096c.68 0 1.16.392 1.224 1.096h-2.44zM34.8 6.872c-.688 0-1.104.288-1.344.6l-.088-.552H32.8V11h.656V8.96c0-.92.464-1.488 1.232-1.488.712 0 1.104.448 1.104 1.296V11h.656V8.728c0-1.352-.728-1.856-1.648-1.856zm4.317 4.176c1.192 0 2.024-.848 2.024-2.088 0-1.24-.832-2.088-2.024-2.088-1.192 0-2.024.848-2.024 2.088 0 1.24.832 2.088 2.024 2.088zm0-.584c-.808 0-1.352-.632-1.352-1.504s.544-1.504 1.352-1.504 1.352.632 1.352 1.504-.544 1.504-1.352 1.504zm3.58.536h.72l1.023-3.032.985 3.032h.72l1.36-4.08h-.665l-1.064 3.32-1.016-3.32h-.607l-1.072 3.32-1.017-3.32h-.688l1.32 4.08z" fill="#fff"/></svg>