<svg width="181" height="9" viewBox="0 0 181 9" fill="none" xmlns="http://www.w3.org/2000/svg"><path d="M.632 7h1.095V1.917L3.8 7h.957L6.83 1.917V7h1.095V.091h-1.44L4.312 5.53 2.103.091H.631V7zM13.7 6.072c-.217 0-.326-.069-.326-.325V3.723c0-1.194-.77-1.835-2.112-1.835-1.273 0-2.122.611-2.23 1.598h1.046c.079-.444.503-.74 1.135-.74.7 0 1.105.346 1.105.908v.306h-1.273c-1.411 0-2.161.582-2.161 1.619 0 .937.77 1.48 1.875 1.48.819 0 1.332-.355 1.668-.868 0 .503.237.809.928.809h.562v-.928h-.217zm-1.382-1.145c-.01.78-.523 1.303-1.411 1.303-.582 0-.938-.296-.938-.72 0-.514.365-.76 1.027-.76h1.322v.177zm1.963.405c.03 1.096.957 1.727 2.31 1.727 1.223 0 2.14-.612 2.14-1.579 0-1.125-.937-1.362-2.091-1.5-.73-.08-1.214-.138-1.214-.612 0-.405.414-.661 1.046-.661.631 0 1.066.325 1.125.79h1.046c-.07-1.037-.947-1.61-2.191-1.61-1.214-.01-2.073.612-2.073 1.57 0 1.046.908 1.293 2.063 1.43.78.1 1.244.14 1.244.682 0 .405-.435.661-1.096.661-.77 0-1.224-.375-1.263-.898h-1.046zm5.642.296c0 .918.415 1.372 1.382 1.372h.987v-.938h-.75c-.405 0-.543-.148-.543-.542V2.884h1.234v-.937H21V.535h-1.076v1.412h-.878v.937h.878v2.744zm5.34 1.431c1.253 0 2.101-.76 2.28-1.757h-1.067c-.148.563-.622.889-1.273.889-.839 0-1.382-.563-1.411-1.422V4.7h3.81c.02-.138.029-.276.029-.404-.03-1.48-1.007-2.409-2.468-2.409-1.49 0-2.487 1.037-2.487 2.596 0 1.55.997 2.576 2.586 2.576zm-1.432-3.138c.079-.72.661-1.175 1.342-1.175.74 0 1.264.425 1.352 1.175h-2.694zm7.218-1.974c-.83 0-1.234.335-1.49.76l-.119-.76h-.947V7h1.066V4.463c0-.78.306-1.52 1.253-1.52h.474v-.996h-.237zm3.785 3.681c0 .918.414 1.372 1.381 1.372h.987v-.938h-.75c-.404 0-.543-.148-.543-.542V2.884h1.234v-.937H35.91V.535h-1.075v1.412h-.879v.937h.879v2.744zm5.701-3.74c-.79 0-1.273.355-1.589.79V.09h-1.066V7h1.066V4.444c0-1.017.514-1.639 1.352-1.639.79 0 1.215.514 1.215 1.471V7h1.065V4.187c0-1.688-.918-2.3-2.043-2.3zm5.373 5.171c1.253 0 2.102-.76 2.28-1.757h-1.066c-.148.563-.622.889-1.274.889-.838 0-1.381-.563-1.411-1.422V4.7h3.81c.02-.138.03-.276.03-.404-.03-1.48-1.007-2.409-2.468-2.409-1.49 0-2.487 1.037-2.487 2.596 0 1.55.997 2.576 2.586 2.576zm-1.431-3.138c.078-.72.66-1.175 1.342-1.175.74 0 1.263.425 1.352 1.175h-2.694zM51.773 7h1.095V1.917L54.941 7h.957l2.073-5.083V7h1.096V.091h-1.441L55.454 5.53 53.244.091h-1.471V7zm13.07-.928c-.218 0-.327-.069-.327-.325V3.723c0-1.194-.77-1.835-2.112-1.835-1.273 0-2.122.611-2.23 1.598h1.046c.079-.444.503-.74 1.135-.74.7 0 1.106.346 1.106.908v.306h-1.274c-1.411 0-2.161.582-2.161 1.619 0 .937.77 1.48 1.875 1.48.82 0 1.332-.355 1.668-.868 0 .503.237.809.928.809h.562v-.928h-.217zM63.46 4.927c-.01.78-.523 1.303-1.41 1.303-.583 0-.938-.296-.938-.72 0-.514.365-.76 1.026-.76h1.323v.177zm4.736-2.98c-.829 0-1.233.335-1.49.76l-.118-.76h-.948V7h1.066V4.463c0-.78.306-1.52 1.253-1.52h.474v-.996h-.237zM69.091 7h1.066V5.717l.907-.948L72.554 7h1.264l-2.023-3.01L73.7 1.947h-1.254l-2.29 2.447V.091H69.09V7zm7.323.06c1.254 0 2.102-.76 2.28-1.758h-1.066c-.148.563-.622.889-1.273.889-.84 0-1.382-.563-1.412-1.422V4.7h3.81c.02-.138.03-.276.03-.404-.03-1.48-1.007-2.409-2.468-2.409-1.49 0-2.487 1.037-2.487 2.596 0 1.55.997 2.576 2.586 2.576zm-1.431-3.14c.079-.72.661-1.174 1.342-1.174.74 0 1.264.425 1.352 1.175h-2.694zm4.988 1.708c0 .918.415 1.372 1.382 1.372h.987v-.938h-.75c-.405 0-.543-.148-.543-.542V2.884h1.234v-.937h-1.234V.535h-1.076v1.412h-.878v.937h.878v2.744zM85.651 7h1.136V4.079h2.704V3.1h-2.704V1.098h3.277V.09h-4.412V7zm7.196.06c1.54 0 2.576-1.037 2.576-2.587 0-1.54-1.036-2.585-2.576-2.585s-2.576 1.046-2.576 2.585c0 1.55 1.037 2.586 2.576 2.586zm0-.909c-.898 0-1.48-.7-1.48-1.678 0-.977.582-1.677 1.48-1.677s1.49.7 1.49 1.677c0 .977-.592 1.678-1.49 1.678zm5.99-4.204c-.83 0-1.234.335-1.49.76l-.12-.76h-.947V7h1.066V4.463c0-.78.306-1.52 1.254-1.52h.474v-.996h-.237zm2.972 5.112c1.293 0 2.152-.72 2.349-1.865h-1.125c-.128.582-.562.957-1.214.957-.858 0-1.421-.68-1.421-1.668 0-.997.563-1.687 1.421-1.687.661 0 1.086.365 1.224.957h1.115c-.207-1.145-1.016-1.866-2.319-1.866-1.53 0-2.537 1.037-2.537 2.596 0 1.58.978 2.576 2.507 2.576zm5.564 0c1.253 0 2.102-.76 2.279-1.757h-1.065c-.149.563-.622.889-1.274.889-.839 0-1.381-.563-1.411-1.422V4.7h3.81c.019-.138.029-.276.029-.404-.029-1.48-1.006-2.409-2.467-2.409-1.49 0-2.487 1.037-2.487 2.596 0 1.55.997 2.576 2.586 2.576zm-1.432-3.138c.079-.72.662-1.175 1.343-1.175.74 0 1.263.425 1.352 1.175h-2.695zm4.416 1.411c.03 1.096.957 1.727 2.309 1.727 1.224 0 2.142-.612 2.142-1.579 0-1.125-.937-1.362-2.092-1.5-.731-.08-1.214-.138-1.214-.612 0-.405.414-.661 1.046-.661.632 0 1.066.325 1.125.79h1.046c-.069-1.037-.947-1.61-2.191-1.61-1.214-.01-2.072.612-2.072 1.57 0 1.046.908 1.293 2.062 1.43.78.1 1.244.14 1.244.682 0 .405-.434.661-1.096.661-.769 0-1.223-.375-1.263-.898h-1.046zM119.578 7h.542l1.481-4.204L123.012 7h.543l1.777-5.004h-.514l-1.539 4.402-1.431-4.402h-.464l-1.51 4.402-1.461-4.402h-.533L119.578 7zm6.714-6.06a.348.348 0 00.356-.355.348.348 0 00-.356-.356.348.348 0 00-.355.356c0 .207.158.355.355.355zM126.036 7h.503V1.996h-.503V7zm2.061-1.165c0 .8.326 1.165 1.175 1.165h.73v-.464h-.691c-.523 0-.71-.197-.71-.71V2.46h1.352v-.464h-1.352V.595h-.504v1.401h-.947v.464h.947v3.375zm4.981-3.898c-.938 0-1.52.523-1.807 1.243V.091h-.503V7h.503V4.533c0-1.303.662-2.132 1.728-2.132.957 0 1.549.631 1.549 1.816V7h.504V4.197c0-1.58-.839-2.26-1.974-2.26zm8.797 5.122c1.481 0 2.527-.8 2.823-2.19h-.563c-.296 1.105-1.095 1.697-2.27 1.697-1.598 0-2.605-1.254-2.605-3.02 0-1.767 1.026-3.02 2.625-3.02 1.155 0 1.964.602 2.27 1.687h.563c-.306-1.382-1.352-2.181-2.803-2.181-1.945 0-3.208 1.441-3.208 3.514 0 2.092 1.234 3.513 3.168 3.513zM145.984.94a.348.348 0 00.355-.355.348.348 0 00-.355-.356.348.348 0 00-.356.356c0 .207.158.355.356.355zM145.727 7h.503V1.996h-.503V7zm2.062-1.165c0 .8.325 1.165 1.174 1.165h.731v-.464h-.691c-.523 0-.711-.197-.711-.71V2.46h1.352v-.464h-1.352V.595h-.503v1.401h-.948v.464h.948v3.375zM151.96 7l-.326.81c-.227.552-.316.7-.829.7h-.632v.464h.77c.671 0 .829-.257 1.145-1.046l2.398-5.932h-.543l-1.707 4.353-1.737-4.353h-.543L151.96 7zm5.981 0h.533V.091h-.533V7zm4.148-5.063c-.918 0-1.51.474-1.796 1.125l-.079-1.066h-.434V7h.503V4.533c0-1.303.661-2.132 1.727-2.132.967 0 1.55.631 1.55 1.816V7h.503V4.197c0-1.58-.839-2.26-1.974-2.26zm7.097 1.184c-.306-.71-.977-1.184-1.915-1.184-1.372 0-2.358 1.046-2.358 2.556 0 1.58.986 2.566 2.358 2.566.938 0 1.589-.503 1.905-1.204L169.255 7h.434V.091h-.503v3.03zm-1.875 3.484c-1.115 0-1.885-.868-1.885-2.112 0-1.234.77-2.112 1.885-2.112s1.885.878 1.885 2.122c0 1.234-.77 2.102-1.885 2.102zm5.773.454c1.096 0 1.935-.71 2.152-1.717h-.513c-.198.78-.859 1.263-1.678 1.263-1.116 0-1.816-.849-1.836-2.013v-.089h4.086c0-.07.01-.148.01-.207-.049-1.49-.967-2.36-2.31-2.36-1.371 0-2.309 1.047-2.309 2.527 0 1.57.977 2.596 2.398 2.596zm-1.836-2.98c.079-1.017.839-1.698 1.757-1.698.977 0 1.678.602 1.757 1.698h-3.514zM175.593 7h.583l1.658-2.2 1.658 2.2h.612l-1.944-2.556 1.845-2.448h-.572l-1.579 2.073-1.56-2.073h-.602l1.846 2.448L175.593 7z" fill="#000"/></svg>