<svg width="110" height="10" viewBox="0 0 110 10" fill="none" xmlns="http://www.w3.org/2000/svg"><path d="M2.832 7.33h1.243L6.28 1.03H5.21l-1.756 5.06-1.738-5.06H.618L2.832 7.33zm5.645.054c1.405 0 2.35-.945 2.35-2.358 0-1.405-.945-2.359-2.35-2.359-1.404 0-2.35.954-2.35 2.359 0 1.413.946 2.358 2.35 2.358zm0-.828c-.82 0-1.35-.639-1.35-1.53s.53-1.53 1.35-1.53c.82 0 1.36.639 1.36 1.53s-.54 1.53-1.36 1.53zm3.132.774h.972V1.03h-.972V7.33zm6.138-.846c-.198 0-.297-.063-.297-.297V4.342c0-1.09-.702-1.675-1.926-1.675-1.162 0-1.936.558-2.035 1.459h.954c.072-.406.46-.676 1.036-.676.639 0 1.008.315 1.008.829v.279h-1.161c-1.288 0-1.972.53-1.972 1.476 0 .855.702 1.35 1.71 1.35.748 0 1.216-.324 1.522-.792 0 .46.216.738.846.738h.513v-.846h-.198zm-1.26-1.044c-.01.711-.477 1.188-1.287 1.188-.532 0-.856-.27-.856-.657 0-.468.333-.693.937-.693h1.206v.162zm2.321.64c0 .836.378 1.25 1.26 1.25h.9v-.855h-.684c-.369 0-.495-.135-.495-.495V3.576h1.126v-.855h-1.126V1.434h-.981V2.72h-.801v.855h.801V6.08zm3.274-4.007a.575.575 0 00.594-.585.575.575 0 00-.594-.585.575.575 0 00-.594.585c0 .342.261.585.594.585zm-.495 5.257h.972V2.721h-.972v4.61zm1.925 0h.973V1.03h-.973V7.33zm2.421-5.257a.575.575 0 00.594-.585.575.575 0 00-.594-.585.575.575 0 00-.594.585c0 .342.26.585.594.585zm-.495 5.257h.972V2.721h-.972v4.61zm2.258-1.25c0 .836.378 1.25 1.26 1.25h.901v-.855h-.684c-.37 0-.495-.135-.495-.495V3.576h1.125v-.855h-1.125V1.434h-.982V2.72h-.8v.855h.8V6.08zm4.112 1.277l-.18.45c-.144.379-.234.469-.612.469h-.685v.855h1.045c.675 0 .873-.333 1.161-1.08l2.089-5.33H33.59L32.34 6.223l-1.287-3.502h-1.036l1.792 4.636zm7.728.027c1.18 0 1.963-.657 2.143-1.701h-1.026c-.117.531-.513.873-1.108.873-.783 0-1.296-.621-1.296-1.521 0-.91.513-1.54 1.296-1.54.604 0 .99.333 1.117.874h1.017c-.189-1.045-.927-1.702-2.116-1.702-1.395 0-2.313.945-2.313 2.368 0 1.44.891 2.35 2.286 2.35zm7.1-.9c-.198 0-.297-.063-.297-.297V4.342c0-1.09-.702-1.675-1.926-1.675-1.161 0-1.936.558-2.035 1.459h.955c.072-.406.459-.676 1.035-.676.639 0 1.008.315 1.008.829v.279h-1.161c-1.288 0-1.972.53-1.972 1.476 0 .855.702 1.35 1.71 1.35.748 0 1.216-.324 1.522-.792 0 .46.216.738.846.738h.514v-.846h-.199zm-1.26-1.044c-.009.711-.477 1.188-1.287 1.188-.531 0-.855-.27-.855-.657 0-.468.333-.693.936-.693h1.206v.162zm4.419-2.773c-.747 0-1.189.297-1.477.657l-.108-.603h-.846v4.61h.973V5.007c0-.937.459-1.504 1.233-1.504.729 0 1.098.468 1.098 1.342V7.33h.981V4.765c0-1.54-.837-2.098-1.854-2.098zm5.042 4.663h.972V6.16l.829-.864 1.359 2.034h1.152l-1.845-2.745L59.04 2.72h-1.143l-2.089 2.233V1.029h-.972V7.33zm7.213-4.663c-.747 0-1.188.297-1.476.657l-.108-.603h-.846v4.61h.972V5.007c0-.937.46-1.504 1.233-1.504.73 0 1.099.468 1.099 1.342V7.33h.98V4.765c0-1.54-.836-2.098-1.854-2.098zm4.883 4.717c1.404 0 2.35-.945 2.35-2.358 0-1.405-.946-2.359-2.35-2.359-1.405 0-2.35.954-2.35 2.359 0 1.413.945 2.358 2.35 2.358zm0-.828c-.82 0-1.35-.639-1.35-1.53s.53-1.53 1.35-1.53c.819 0 1.359.639 1.359 1.53s-.54 1.53-1.36 1.53zm5.247.828c1.18 0 1.962-.657 2.142-1.701h-1.026c-.117.531-.513.873-1.107.873-.783 0-1.297-.621-1.297-1.521 0-.91.514-1.54 1.297-1.54.603 0 .99.333 1.116.874h1.017c-.189-1.045-.927-1.702-2.115-1.702-1.396 0-2.314.945-2.314 2.368 0 1.44.891 2.35 2.287 2.35zm2.887-.054h.972V6.16l.828-.864 1.36 2.034h1.152l-1.846-2.745 1.738-1.864h-1.144L76.04 4.954V1.029h-.972V7.33zm8.418.027l-.18.45c-.144.379-.234.469-.612.469h-.684v.855h1.044c.675 0 .873-.333 1.161-1.08l2.089-5.33h-1.035l-1.252 3.502-1.287-3.502h-1.035l1.791 4.636zm5.277.027c1.405 0 2.35-.945 2.35-2.358 0-1.405-.945-2.359-2.35-2.359-1.404 0-2.35.954-2.35 2.359 0 1.413.946 2.358 2.35 2.358zm0-.828c-.819 0-1.35-.639-1.35-1.53s.531-1.53 1.35-1.53c.82 0 1.36.639 1.36 1.53s-.54 1.53-1.36 1.53zm6.292-1.53c0 .954-.45 1.512-1.189 1.512-.71 0-1.071-.459-1.071-1.36V2.722h-.972v2.566c0 1.575.837 2.097 1.818 2.097.712 0 1.135-.288 1.423-.639l.108.585h.855V2.721h-.972v2.305zm6.412 2.358c1.405 0 2.35-.945 2.35-2.358 0-1.405-.945-2.359-2.35-2.359-1.404 0-2.35.954-2.35 2.359 0 1.413.946 2.358 2.35 2.358zm0-.828c-.819 0-1.35-.639-1.35-1.53s.531-1.53 1.35-1.53c.819 0 1.36.639 1.36 1.53s-.541 1.53-1.36 1.53zm8.318-4.672v-.855h-.927c-.892 0-1.288.423-1.288 1.233v.46h-1.692v-.388c0-.315.126-.45.441-.45h.684v-.855h-.819c-.891 0-1.287.423-1.287 1.233v.46h-.802v.854h.802V7.33h.981V3.576h1.692V7.33h.973V3.576h1.242v-.855h-1.242v-.387c0-.315.135-.45.45-.45h.792z" fill="#000"/></svg>