<svg width="132" height="45" viewBox="0 0 132 45" fill="none" xmlns="http://www.w3.org/2000/svg"><path d="M88.61 16.876h-6.812C79.93 6.423 72.11.074 60.289.074c-13.287 0-21.878 8.695-21.878 22.131 0 13.437 8.323 21.937 21.878 21.869 11.05 0 18.89-5.968 21.222-15.745h4.614l1.408-3.822h-5.41a30.601 30.601 0 00.082-3.822h5.06l1.345-3.822v.013zM69.562 24.52h-7.259l-1.408 3.822h8.278c-.93 5.723-3.435 9.683-8.616 9.683-6.844 0-9.527-7.119-9.527-15.939S53.177 6.21 60.092 6.148c5.436 0 8.246 4.447 9.177 10.734H63.38l-1.345 3.822h7.559c.012.456.025.913.025 1.382 0 .832-.019 1.645-.057 2.44v-.006zM.83 43.023h11.88v-14.95h20.202v-9.684H12.71v-7.118h22.35V1.062H.83v41.96zM121.634 28.398c5.302-2.24 8.788-6.524 8.788-12.911v-.131c0-4.085-1.274-7.375-3.76-9.752-2.88-2.834-7.449-4.542-13.956-4.542H92.44v41.96h11.879V30.307h5.232l8.591 12.717h13.689l-10.203-14.625h.006zm-3.091-12.192c0 3.097-2.345 5.005-6.372 5.005h-7.858V11.07h7.788c4.027 0 6.442 1.714 6.442 5.004v.131z" fill="#fff"/></svg>