<svg width="139" height="16" viewBox="0 0 139 16" fill="none" xmlns="http://www.w3.org/2000/svg"><path d="M.4 3.04h4.32V15h2.3V3.04h4.32V1H.4v2.04zm16.621 1.72c-1.68 0-2.5.68-3.02 1.54l-.24-1.54h-1.92V15h2.16V9.86c0-1.58.62-3.08 2.54-3.08h.96V4.76h-.48zm10.86 8.36c-.44 0-.66-.14-.66-.66v-4.1c0-2.42-1.56-3.72-4.28-3.72-2.58 0-4.3 1.24-4.52 3.24h2.12c.16-.9 1.02-1.5 2.3-1.5 1.42 0 2.24.7 2.24 1.84v.62H22.5c-2.86 0-4.38 1.18-4.38 3.28 0 1.9 1.56 3 3.8 3 1.66 0 2.7-.72 3.38-1.76 0 1.02.48 1.64 1.88 1.64h1.14v-1.88h-.44zm-2.8-2.32c-.02 1.58-1.06 2.64-2.86 2.64-1.18 0-1.9-.6-1.9-1.46 0-1.04.74-1.54 2.08-1.54h2.68v.36zm12.118-4.62c-.66-.9-1.76-1.54-3.32-1.54-2.78 0-4.84 2.08-4.84 5.24 0 3.28 2.06 5.24 4.84 5.24 1.62 0 2.68-.76 3.34-1.66l.26 1.54h1.88V1H37.2v5.18zm-2.96 7.12c-1.8 0-2.98-1.4-2.98-3.42 0-2 1.18-3.4 2.98-3.4s2.98 1.4 2.98 3.44c0 1.98-1.18 3.38-2.98 3.38zm12.091 1.82c2.54 0 4.26-1.54 4.62-3.56h-2.16c-.3 1.14-1.26 1.8-2.58 1.8-1.7 0-2.8-1.14-2.86-2.88v-.14h7.72c.04-.28.06-.56.06-.82-.06-3-2.04-4.88-5-4.88-3.02 0-5.04 2.1-5.04 5.26 0 3.14 2.02 5.22 5.24 5.22zm-2.9-6.36c.16-1.46 1.34-2.38 2.72-2.38 1.5 0 2.56.86 2.74 2.38h-5.46zM58.214 15h2.3V9.08h5.48V7.1h-5.48V3.04h6.64V1h-8.94v14zm9.94-11.96h4.32V15h2.3V3.04h4.32V1h-10.94v2.04zm11.394 7.36c.08 2.8 2.18 4.72 5.66 4.72 3.08 0 5.18-1.74 5.18-4.26.02-2.76-2.24-3.5-4.56-3.92-2.2-.38-3.64-.68-3.64-2.12 0-1.32 1.1-2 2.68-2 1.7 0 2.82.96 3 2.38h2.3c-.1-2.58-2.1-4.32-5.3-4.32-2.98 0-4.98 1.66-4.98 4.1 0 2.78 2.2 3.52 4.52 3.92 2.22.4 3.68.72 3.68 2.2 0 1.34-1.2 2.08-2.86 2.08-1.96 0-3.24-1.1-3.36-2.74l-2.32-.04zM92.413 15h9.38v-2.04h-7.08V8.9h5.64V6.92h-5.64V3.04h6.84V1h-9.14v14zM110.84 2.42c0 .74-.3 1.26-1.02 1.26h-2.18v1.9h2.28c.38 0 .68-.06.88-.18V15h2.22V1h-2.18v1.42zm4.256 5.9c0 4.22 2.26 6.8 5.52 6.8s5.52-2.58 5.52-6.8v-.64c0-4.06-2.26-6.8-5.52-6.8s-5.52 2.74-5.52 6.8v.64zm8.8-.08c0 3.14-1.32 4.94-3.28 4.94-1.96 0-3.28-1.8-3.28-4.94v-.48c0-3.12 1.32-4.94 3.28-4.94 1.96 0 3.28 1.82 3.28 4.94v.48zm3.798.08c0 4.22 2.26 6.8 5.52 6.8s5.52-2.58 5.52-6.8v-.64c0-4.06-2.26-6.8-5.52-6.8s-5.52 2.74-5.52 6.8v.64zm8.8-.08c0 3.14-1.32 4.94-3.28 4.94-1.96 0-3.28-1.8-3.28-4.94v-.48c0-3.12 1.32-4.94 3.28-4.94 1.96 0 3.28 1.82 3.28 4.94v.48z" fill="#000"/></svg>