<svg width="56" height="16" viewBox="0 0 56 16" fill="none" xmlns="http://www.w3.org/2000/svg"><rect y=".604" width="56" height="15" rx="7.5" fill="#000"/><path d="M9.654 5.815h1.754v4.788h.672V5.816h1.753v-.618H9.654v.618zm6.197.85c-.703 0-1.004.293-1.19.594l-.084-.595h-.549v3.94h.634V8.595c0-.625.224-1.313 1.05-1.313h.317v-.618h-.178zm4.075 3.36c-.178 0-.255-.055-.255-.263V8.039c0-.92-.58-1.421-1.584-1.421-.95 0-1.575.456-1.668 1.228h.633c.078-.402.448-.664 1.005-.664.617 0 .98.309.98.818v.27H17.88c-1.035 0-1.584.441-1.584 1.229 0 .718.587 1.15 1.453 1.15.68 0 1.073-.3 1.32-.656.008.386.186.61.711.61h.348v-.579h-.201zm-.888-1.028c0 .656-.456 1.112-1.244 1.112-.525 0-.857-.262-.857-.649 0-.448.316-.656.88-.656h1.22v.193zm4.635-1.73c-.239-.379-.687-.65-1.351-.65-1.09 0-1.893.812-1.893 2.017 0 1.282.804 2.016 1.893 2.016.664 0 1.089-.317 1.351-.68l.085.633h.549V5.198h-.634v2.07zm-1.29 2.819c-.78 0-1.305-.595-1.305-1.452 0-.858.525-1.452 1.306-1.452.772 0 1.297.602 1.297 1.467 0 .842-.525 1.437-1.297 1.437zm4.602.564c.911 0 1.56-.58 1.715-1.367h-.642c-.13.51-.563.803-1.12.803-.749 0-1.22-.525-1.243-1.274v-.055h3.059c.007-.092.015-.185.015-.27-.03-1.166-.757-1.87-1.87-1.87-1.111 0-1.868.82-1.868 2.017 0 1.205.772 2.016 1.954 2.016zm-1.252-2.418a1.166 1.166 0 011.175-1.058c.656 0 1.12.378 1.181 1.058h-2.355zm7.711-1.614c-.664 0-1.066.278-1.297.58l-.085-.534h-.549v3.94h.634v-1.97c0-.888.448-1.437 1.19-1.437.687 0 1.065.433 1.065 1.251v2.155h.634V8.41c0-1.306-.703-1.792-1.592-1.792zm4.169 4.032c1.15 0 1.954-.819 1.954-2.016s-.803-2.016-1.954-2.016c-1.15 0-1.954.819-1.954 2.016s.803 2.016 1.954 2.016zm0-.564c-.78 0-1.305-.61-1.305-1.452s.525-1.452 1.305-1.452c.78 0 1.305.61 1.305 1.452s-.525 1.452-1.305 1.452zm3.456.518h.695l.989-2.928.95 2.928h.695l1.313-3.94h-.64L44.042 9.87l-.981-3.206h-.587L41.44 9.87l-.981-3.206h-.664l1.274 3.94z" fill="#fff"/></svg>