<svg width="97" height="31" viewBox="0 0 97 31" fill="none" xmlns="http://www.w3.org/2000/svg"><rect width="97" height="31" rx="15.5" fill="#000"/><path d="M17.449 17.43c.056 1.548 1.179 2.637 3.098 2.637 1.65 0 2.796-.954 2.796-2.312 0-1.527-1.314-1.953-2.593-2.167-1.18-.202-2.134-.393-2.134-1.336 0-.842.685-1.29 1.707-1.29 1.066 0 1.796.594 1.908 1.504h1.01c-.09-1.415-1.167-2.391-2.918-2.391-1.594 0-2.683.898-2.683 2.233 0 1.527 1.302 1.942 2.57 2.156 1.19.202 2.156.404 2.156 1.38 0 .854-.752 1.336-1.807 1.336-1.202 0-2.021-.695-2.1-1.75h-1.01zm7.425 1.077c0 1.01.393 1.493 1.493 1.493h1v-.842h-.91c-.494 0-.662-.18-.662-.662v-3.38h1.481v-.841h-1.481v-1.606h-.92v1.606H23.84v.842h1.033v3.39zm8.265.651c-.258 0-.37-.079-.37-.382v-2.503c0-1.336-.842-2.066-2.302-2.066-1.38 0-2.29.663-2.424 1.785h.92c.112-.583.651-.965 1.46-.965.898 0 1.425.449 1.425 1.19v.393h-1.684c-1.504 0-2.301.64-2.301 1.785 0 1.044.853 1.672 2.11 1.672.988 0 1.56-.438 1.92-.954.011.561.27.887 1.033.887h.505v-.842h-.292zm-1.29-1.493c0 .954-.663 1.617-1.808 1.617-.764 0-1.246-.382-1.246-.943 0-.651.46-.955 1.28-.955h1.773v.281zm4.939-3.39c-1.021 0-1.46.426-1.729.864l-.123-.864h-.797V20h.92v-2.919c0-.909.326-1.908 1.527-1.908h.46v-.898h-.258zm1.67 4.232c0 1.01.392 1.493 1.492 1.493h1v-.842h-.91c-.494 0-.662-.18-.662-.662v-3.38h1.481v-.841h-1.481v-1.606h-.92v1.606h-1.034v.842h1.033v3.39zm6.654 0c0 1.01.392 1.493 1.493 1.493h.999v-.842h-.91c-.494 0-.662-.18-.662-.662v-3.38h1.482v-.841h-1.482v-1.606h-.92v1.606h-1.033v.842h1.032v3.39zm5.939-4.232c-1.022 0-1.46.426-1.73.864l-.123-.864h-.797V20h.92v-2.919c0-.909.326-1.908 1.528-1.908h.46v-.898h-.258zm5.921 4.883c-.258 0-.37-.079-.37-.382v-2.503c0-1.336-.842-2.066-2.301-2.066-1.381 0-2.29.663-2.425 1.785h.92c.113-.583.651-.965 1.46-.965.898 0 1.425.449 1.425 1.19v.393h-1.683c-1.505 0-2.302.64-2.302 1.785 0 1.044.853 1.672 2.11 1.672.989 0 1.561-.438 1.92-.954.011.561.27.887 1.033.887h.505v-.842h-.292zm-1.29-1.493c0 .954-.663 1.617-1.808 1.617-.763 0-1.246-.382-1.246-.943 0-.651.46-.955 1.28-.955h1.773v.281zm6.737-2.515c-.348-.55-1-.943-1.965-.943-1.582 0-2.75 1.18-2.75 2.93 0 1.864 1.168 2.93 2.75 2.93.966 0 1.583-.46 1.965-.988l.123.921h.797v-7.858h-.92v3.008zm-1.875 4.098c-1.134 0-1.897-.864-1.897-2.11 0-1.247.763-2.111 1.897-2.111 1.123 0 1.886.876 1.886 2.133 0 1.224-.763 2.088-1.886 2.088zm4.52-5.939a.578.578 0 00.596-.595.578.578 0 00-.595-.595.578.578 0 00-.595.595c0 .348.258.595.595.595zM64.595 20h.92v-5.725h-.92V20zm4.988-5.793c-.966 0-1.55.404-1.886.842l-.124-.774h-.797V20h.92v-2.863c0-1.29.652-2.088 1.73-2.088.999 0 1.549.629 1.549 1.819V20h.92v-3.188c0-1.897-1.022-2.605-2.313-2.605zm7.999 1.056c-.36-.64-1-1.056-1.965-1.056-1.583 0-2.75 1.18-2.75 2.93 0 1.864 1.167 2.93 2.75 2.93.966 0 1.583-.404 1.965-1.055v.674c0 1.246-.651 1.807-1.853 1.807-.954 0-1.594-.404-1.751-1.122h-.943c.146 1.257 1.168 1.942 2.627 1.942 1.965 0 2.84-.943 2.84-2.594v-5.444h-.797l-.123.988zm-1.875 3.985c-1.134 0-1.897-.864-1.897-2.11 0-1.247.763-2.111 1.897-2.111 1.122 0 1.886.876 1.886 2.133 0 1.224-.764 2.088-1.886 2.088z" fill="#fff"/></svg>