<svg width="124" height="78" viewBox="0 0 124 78" fill="none" xmlns="http://www.w3.org/2000/svg"><path d="M8.464 17.138c2.553 0 4.209-1.15 4.991-2.3l.23 2.162h2.047V8.191H8.74v2.231h4.462v.391c-.138 2.599-2.139 4.002-4.623 4.002-3.082 0-5.014-2.415-5.014-5.865s1.978-5.865 5.037-5.865c2.231 0 3.772 1.242 4.255 3.289h2.737C15.111 2.97 12.397.762 8.671.762 3.887.762.851 4.051.851 8.95c0 4.899 3.105 8.188 7.613 8.188zm9.96-.138h2.484V.9h-2.484V17zm10.485.138c3.588 0 6.003-2.415 6.003-6.026 0-3.588-2.415-6.026-6.003-6.026s-6.003 2.438-6.003 6.026c0 3.611 2.415 6.026 6.003 6.026zm0-2.116c-2.093 0-3.45-1.633-3.45-3.91s1.357-3.91 3.45-3.91 3.473 1.633 3.473 3.91-1.38 3.91-3.473 3.91zm14.302-9.936c-1.817 0-3.036.828-3.818 1.886V.9H36.91V17h2.162l.3-1.702c.735 1.058 2 1.84 3.84 1.84 3.22 0 5.566-2.415 5.566-6.026 0-3.795-2.346-6.026-5.566-6.026zm-.414 9.959c-2.07 0-3.427-1.633-3.427-3.956 0-2.277 1.357-3.887 3.427-3.887 2.07 0 3.45 1.61 3.45 3.91 0 2.323-1.38 3.933-3.45 3.933zm18.735-.207c-.506 0-.76-.161-.76-.759V9.364c0-2.783-1.793-4.278-4.921-4.278-2.967 0-4.945 1.426-5.198 3.726h2.438c.184-1.035 1.173-1.725 2.645-1.725 1.633 0 2.576.805 2.576 2.116v.713h-2.967c-3.29 0-5.037 1.357-5.037 3.772 0 2.185 1.794 3.45 4.37 3.45 1.909 0 3.105-.828 3.887-2.024 0 1.173.552 1.886 2.162 1.886h1.31v-2.162h-.505zm-3.22-2.668c-.023 1.817-1.22 3.036-3.29 3.036-1.356 0-2.184-.69-2.184-1.679 0-1.196.85-1.771 2.392-1.771h3.082v.414zM63.39 17h2.484V.9H63.39V17zM14.766 33.086c-1.932 0-3.266.851-4.025 2.139-.713-1.518-2.093-2.139-3.634-2.139-1.771.023-2.783.805-3.45 1.679l-.276-1.541H1.219V45h2.484v-6.302c0-2.093 1.058-3.473 2.76-3.473 1.633 0 2.484 1.081 2.484 3.151V45h2.507v-6.371c0-2.116 1.081-3.404 2.783-3.404 1.61 0 2.461 1.081 2.461 3.151V45h2.484v-6.785c0-3.726-1.978-5.129-4.416-5.129zm17.432 9.752c-.506 0-.76-.161-.76-.759v-4.715c0-2.783-1.793-4.278-4.921-4.278-2.967 0-4.945 1.426-5.198 3.726h2.438c.184-1.035 1.173-1.725 2.645-1.725 1.633 0 2.576.805 2.576 2.116v.713H26.01c-3.29 0-5.037 1.357-5.037 3.772 0 2.185 1.794 3.45 4.37 3.45 1.909 0 3.105-.828 3.887-2.024 0 1.173.552 1.886 2.162 1.886h1.31v-2.162h-.505zm-3.22-2.668c-.023 1.817-1.22 3.036-3.29 3.036-1.356 0-2.184-.69-2.184-1.679 0-1.196.85-1.771 2.392-1.771h3.082v.414zm11.036-6.946c-1.932 0-2.875.782-3.473 1.771l-.276-1.771h-2.208V45h2.484v-5.911c0-1.817.713-3.542 2.92-3.542h1.105v-2.323h-.552zM42.098 45h2.484v-2.99l2.116-2.208L50.17 45h2.944L48.4 37.985l4.439-4.761h-2.921l-5.336 5.704V28.9h-2.484V45zm17.066.138c2.921 0 4.9-1.771 5.313-4.094h-2.484c-.345 1.311-1.449 2.07-2.967 2.07-1.955 0-3.22-1.311-3.289-3.312v-.161h8.878c.046-.322.07-.644.07-.943-.07-3.45-2.347-5.612-5.75-5.612-3.474 0-5.797 2.415-5.797 6.049 0 3.611 2.323 6.003 6.026 6.003zm-3.335-7.314c.184-1.679 1.541-2.737 3.128-2.737 1.725 0 2.944.989 3.151 2.737H55.83zm11.625 3.979c0 2.139.966 3.197 3.22 3.197h2.3v-2.185h-1.748c-.943 0-1.265-.345-1.265-1.265v-6.141h2.875v-2.185H69.96v-3.289h-2.507v3.289h-2.047v2.185h2.047v6.394zm6.594-.69c.069 2.553 2.231 4.025 5.382 4.025 2.852 0 4.991-1.426 4.991-3.68 0-2.622-2.185-3.174-4.876-3.496-1.702-.184-2.829-.322-2.829-1.426 0-.943.966-1.541 2.438-1.541 1.472 0 2.484.759 2.622 1.84h2.438c-.161-2.415-2.208-3.749-5.106-3.749-2.829-.023-4.83 1.426-4.83 3.657 0 2.438 2.116 3.013 4.807 3.335 1.817.23 2.898.322 2.898 1.587 0 .943-1.012 1.541-2.553 1.541-1.794 0-2.852-.874-2.944-2.093h-2.438zm28.947 1.725c-.506 0-.759-.161-.759-.759v-4.715c0-2.783-1.794-4.278-4.922-4.278-2.967 0-4.945 1.426-5.198 3.726h2.438c.184-1.035 1.173-1.725 2.645-1.725 1.633 0 2.576.805 2.576 2.116v.713h-2.967c-3.29 0-5.037 1.357-5.037 3.772 0 2.185 1.794 3.45 4.37 3.45 1.909 0 3.105-.828 3.887-2.024 0 1.173.552 1.886 2.162 1.886h1.311v-2.162h-.506zm-3.22-2.668c-.023 1.817-1.22 3.036-3.29 3.036-1.356 0-2.184-.69-2.184-1.679 0-1.196.85-1.771 2.392-1.771h3.082v.414zm11.036-6.946c-1.932 0-2.875.782-3.473 1.771l-.276-1.771h-2.208V45h2.484v-5.911c0-1.817.713-3.542 2.921-3.542h1.104v-2.323h-.552zm7.111 11.914c2.921 0 4.899-1.771 5.313-4.094h-2.484c-.345 1.311-1.449 2.07-2.967 2.07-1.955 0-3.22-1.311-3.289-3.312v-.161h8.878c.046-.322.069-.644.069-.943-.069-3.45-2.346-5.612-5.75-5.612-3.473 0-5.796 2.415-5.796 6.049 0 3.611 2.323 6.003 6.026 6.003zm-3.335-7.314c.184-1.679 1.541-2.737 3.128-2.737 1.725 0 2.944.989 3.151 2.737h-6.279zM14.766 61.086c-1.932 0-3.266.851-4.025 2.139-.713-1.518-2.093-2.139-3.634-2.139-1.771.023-2.783.805-3.45 1.679l-.276-1.541H1.219V73h2.484v-6.302c0-2.093 1.058-3.473 2.76-3.473 1.633 0 2.484 1.081 2.484 3.151V73h2.507v-6.371c0-2.116 1.081-3.404 2.783-3.404 1.61 0 2.461 1.081 2.461 3.151V73h2.484v-6.785c0-3.726-1.978-5.129-4.416-5.129zM26.91 73.138c3.588 0 6.003-2.415 6.003-6.026 0-3.588-2.415-6.026-6.003-6.026s-6.003 2.438-6.003 6.026c0 3.611 2.415 6.026 6.003 6.026zm0-2.116c-2.093 0-3.45-1.633-3.45-3.91s1.357-3.91 3.45-3.91 3.473 1.633 3.473 3.91-1.38 3.91-3.473 3.91zM37.545 73h3.036l4.347-11.776h-2.622l-3.197 9.108-3.243-9.108h-2.668L37.545 73zm9.906-13.432c.85 0 1.518-.621 1.518-1.495 0-.874-.667-1.495-1.518-1.495s-1.518.621-1.518 1.495c0 .874.667 1.495 1.518 1.495zM46.186 73h2.484V61.224h-2.484V73zm11.129-11.914c-1.91 0-3.036.759-3.772 1.679l-.276-1.541h-2.162V73h2.484v-5.934c0-2.392 1.173-3.841 3.15-3.841 1.864 0 2.807 1.196 2.807 3.427V73h2.507v-6.555c0-3.933-2.14-5.359-4.738-5.359zm15.99 1.978c-.76-1.173-2.024-1.978-3.864-1.978-3.197 0-5.566 2.369-5.566 5.98 0 3.749 2.369 5.98 5.566 5.98 1.84 0 3.059-.759 3.84-1.932v1.311c0 2.254-1.218 3.289-3.38 3.289-1.748 0-2.898-.759-3.197-2.07h-2.53c.23 2.645 2.415 4.094 5.543 4.094 4.232 0 6.026-2.024 6.026-5.221V61.224H73.58l-.276 1.84zm-3.45 7.889c-2.07 0-3.427-1.587-3.427-3.887 0-2.277 1.357-3.887 3.427-3.887 2.07 0 3.427 1.61 3.427 3.933 0 2.254-1.357 3.841-3.427 3.841z" fill="#000"/></svg>