<svg width="125" height="76" viewBox="0 0 125 76" fill="none" xmlns="http://www.w3.org/2000/svg"><path d="M6.384 10.784V17h2.76v-6.216L15.408.2h-3.096L7.776 7.88 3.36.2H.12l6.264 10.584zm14.102 6.36c3.744 0 6.264-2.52 6.264-6.288 0-3.744-2.52-6.288-6.264-6.288s-6.264 2.544-6.264 6.288c0 3.768 2.52 6.288 6.264 6.288zm0-2.208c-2.184 0-3.6-1.704-3.6-4.08 0-2.376 1.416-4.08 3.6-4.08s3.624 1.704 3.624 4.08c0 2.376-1.44 4.08-3.624 4.08zm16.772-4.08c0 2.544-1.2 4.032-3.168 4.032-1.896 0-2.856-1.224-2.856-3.624V4.712h-2.592v6.84c0 4.2 2.233 5.592 4.848 5.592 1.896 0 3.024-.768 3.792-1.704l.289 1.56h2.28V4.712h-2.593v6.144zm11.363-6.144c-2.016 0-3 .816-3.624 1.848l-.288-1.848h-2.304V17h2.592v-6.168c0-1.896.744-3.696 3.048-3.696h1.152V4.712h-.576zM12.504 43.744c-.528 0-.792-.168-.792-.792v-4.92c0-2.904-1.872-4.464-5.136-4.464-3.096 0-5.16 1.488-5.424 3.888h2.544c.192-1.08 1.224-1.8 2.76-1.8 1.704 0 2.688.84 2.688 2.208v.744H6.048c-3.432 0-5.256 1.416-5.256 3.936 0 2.28 1.872 3.6 4.56 3.6 1.992 0 3.24-.864 4.056-2.112 0 1.224.576 1.968 2.256 1.968h1.368v-2.256h-.528zm-3.36-2.784c-.024 1.896-1.272 3.168-3.432 3.168-1.416 0-2.28-.72-2.28-1.752 0-1.248.888-1.848 2.496-1.848h3.216v.432zm13.724-1.104c0 2.544-1.2 4.032-3.168 4.032-1.896 0-2.856-1.224-2.856-3.624v-6.552h-2.592v6.84c0 4.2 2.232 5.592 4.848 5.592 1.896 0 3.024-.768 3.792-1.704L23.18 46h2.28V33.712h-2.592v6.144zm6.105 2.808c0 2.232 1.008 3.336 3.36 3.336h2.4v-2.28h-1.825c-.984 0-1.32-.36-1.32-1.32v-6.408h3v-2.28h-3V30.28h-2.616v3.432h-2.136v2.28h2.137v6.672zm12.959 3.48c3.744 0 6.264-2.52 6.264-6.288 0-3.744-2.52-6.288-6.264-6.288s-6.264 2.544-6.264 6.288c0 3.768 2.52 6.288 6.264 6.288zm0-2.208c-2.184 0-3.6-1.704-3.6-4.08 0-2.376 1.416-4.08 3.6-4.08s3.624 1.704 3.624 4.08c0 2.376-1.44 4.08-3.624 4.08zm22.484-10.368c-2.016 0-3.408.888-4.2 2.232-.744-1.584-2.184-2.232-3.792-2.232-1.848.024-2.904.84-3.6 1.752l-.288-1.608H50.28V46h2.592v-6.576c0-2.184 1.104-3.624 2.88-3.624 1.704 0 2.592 1.128 2.592 3.288V46h2.616v-6.648c0-2.208 1.128-3.552 2.904-3.552 1.68 0 2.568 1.128 2.568 3.288V46h2.592v-7.08c0-3.888-2.064-5.352-4.608-5.352zm18.19 10.176c-.528 0-.792-.168-.792-.792v-4.92c0-2.904-1.872-4.464-5.136-4.464-3.096 0-5.16 1.488-5.424 3.888h2.544c.192-1.08 1.224-1.8 2.76-1.8 1.704 0 2.688.84 2.688 2.208v.744H76.15c-3.432 0-5.256 1.416-5.256 3.936 0 2.28 1.872 3.6 4.56 3.6 1.992 0 3.24-.864 4.056-2.112 0 1.224.576 1.968 2.256 1.968h1.368v-2.256h-.528zm-3.36-2.784c-.024 1.896-1.272 3.168-3.432 3.168-1.416 0-2.28-.72-2.28-1.752 0-1.248.888-1.848 2.496-1.848h3.216v.432zm6.187 1.704c0 2.232 1.008 3.336 3.36 3.336h2.4v-2.28H89.37c-.984 0-1.32-.36-1.32-1.32v-6.408h3v-2.28h-3V30.28h-2.616v3.432h-2.136v2.28h2.136v6.672zm8.73-10.68c.887 0 1.583-.648 1.583-1.56s-.696-1.56-1.584-1.56c-.888 0-1.584.648-1.584 1.56s.696 1.56 1.584 1.56zM92.842 46h2.591V33.712h-2.592V46zm10.772.144c3.144 0 5.232-1.752 5.712-4.536h-2.736c-.312 1.416-1.368 2.328-2.952 2.328-2.088 0-3.456-1.656-3.456-4.056 0-2.424 1.368-4.104 3.456-4.104 1.608 0 2.64.888 2.976 2.328h2.712c-.504-2.784-2.472-4.536-5.64-4.536-3.72 0-6.168 2.52-6.168 6.312 0 3.84 2.376 6.264 6.096 6.264zm-93.007 14.84c.888 0 1.584-.648 1.584-1.56s-.696-1.56-1.584-1.56c-.888 0-1.584.648-1.584 1.56s.696 1.56 1.584 1.56zm-5.832 1.728V61.68c0-.84.336-1.2 1.176-1.2h1.824V58.2H5.592c-2.376 0-3.432 1.128-3.432 3.288v1.224H.024v2.28H2.16V75h2.616V64.992h4.512V75h2.616V62.712H4.776zm15.86 0c-2.016 0-3 .816-3.624 1.848l-.288-1.848H14.42V75h2.592v-6.168c0-1.896.744-3.696 3.048-3.696h1.152v-2.424h-.576zm1.436 8.232c.072 2.664 2.328 4.2 5.616 4.2 2.976 0 5.208-1.488 5.208-3.84 0-2.736-2.28-3.312-5.088-3.648-1.776-.192-2.952-.336-2.952-1.488 0-.984 1.008-1.608 2.544-1.608s2.592.792 2.736 1.92h2.544c-.168-2.52-2.304-3.912-5.328-3.912-2.952-.024-5.04 1.488-5.04 3.816 0 2.544 2.208 3.144 5.016 3.48 1.896.24 3.024.336 3.024 1.656 0 .984-1.056 1.608-2.664 1.608-1.872 0-2.976-.912-3.072-2.184h-2.544zm13.72.72c0 2.232 1.009 3.336 3.36 3.336h2.4v-2.28H39.73c-.984 0-1.32-.36-1.32-1.32v-6.408h3v-2.28h-3V59.28h-2.616v3.432h-2.136v2.28h2.136v6.672zM50.68 69.24v-2.136h-8.16v2.136h8.16zm8.17 5.904c3.145 0 5.233-1.752 5.712-4.536h-2.736c-.312 1.416-1.367 2.328-2.952 2.328-2.087 0-3.456-1.656-3.456-4.056 0-2.424 1.368-4.104 3.456-4.104 1.608 0 2.64.888 2.977 2.328h2.711c-.504-2.784-2.472-4.536-5.64-4.536-3.72 0-6.167 2.52-6.167 6.312 0 3.84 2.376 6.264 6.096 6.264zm14.152-12.576c-1.92 0-3.096.864-3.864 1.92V58.2h-2.592V75h2.592v-6.216c0-2.472 1.248-3.984 3.288-3.984 1.92 0 2.952 1.248 2.952 3.576V75h2.592v-6.84c0-4.104-2.232-5.592-4.968-5.592zm13.04 12.576c3.744 0 6.264-2.52 6.264-6.288 0-3.744-2.52-6.288-6.264-6.288s-6.264 2.544-6.264 6.288c0 3.768 2.52 6.288 6.264 6.288zm0-2.208c-2.184 0-3.6-1.704-3.6-4.08 0-2.376 1.416-4.08 3.6-4.08s3.624 1.704 3.624 4.08c0 2.376-1.44 4.08-3.624 4.08zm9.668-11.952c.888 0 1.584-.648 1.584-1.56s-.696-1.56-1.584-1.56c-.888 0-1.584.648-1.584 1.56s.696 1.56 1.584 1.56zM94.39 75h2.592V62.712H94.39V75zm10.773.144c3.144 0 5.232-1.752 5.712-4.536h-2.736c-.312 1.416-1.368 2.328-2.952 2.328-2.088 0-3.456-1.656-3.456-4.056 0-2.424 1.368-4.104 3.456-4.104 1.608 0 2.64.888 2.976 2.328h2.712c-.504-2.784-2.472-4.536-5.64-4.536-3.72 0-6.168 2.52-6.168 6.312 0 3.84 2.376 6.264 6.096 6.264zm13.528 0c3.048 0 5.112-1.848 5.544-4.272h-2.592c-.36 1.368-1.512 2.16-3.096 2.16-2.04 0-3.36-1.368-3.432-3.456v-.168h9.264c.048-.336.072-.672.072-.984-.072-3.6-2.448-5.856-6-5.856-3.624 0-6.048 2.52-6.048 6.312 0 3.768 2.424 6.264 6.288 6.264zm-3.48-7.632c.192-1.752 1.608-2.856 3.264-2.856 1.8 0 3.072 1.032 3.288 2.856h-6.552z" fill="#000"/></svg>