<svg width="244" height="56" viewBox="0 0 244 56" fill="none" xmlns="http://www.w3.org/2000/svg"><path d="M3.302 19l1.69-4.498h7.462L14.17 19h3.198L10.582.8H7.02L.208 19h3.094zM8.71 4.024l2.912 7.93H5.824l2.886-7.93zm15.739 15.132c3.406 0 5.668-1.898 6.188-4.914h-2.964c-.338 1.534-1.482 2.522-3.198 2.522-2.262 0-3.744-1.794-3.744-4.394 0-2.626 1.482-4.446 3.744-4.446 1.742 0 2.86.962 3.224 2.522h2.938c-.546-3.016-2.678-4.914-6.11-4.914-4.03 0-6.682 2.73-6.682 6.838 0 4.16 2.574 6.786 6.604 6.786zM39.78 5.532c-2.08 0-3.354.936-4.186 2.08V.8h-2.808V19h2.808v-6.734c0-2.678 1.352-4.316 3.562-4.316 2.08 0 3.198 1.352 3.198 3.874V19h2.808v-7.41c0-4.446-2.418-6.058-5.382-6.058zm9.366-1.716c.962 0 1.716-.702 1.716-1.69s-.754-1.69-1.716-1.69-1.716.702-1.716 1.69.754 1.69 1.716 1.69zM47.716 19h2.808V5.688h-2.808V19zm11.878.156c3.302 0 5.538-2.002 6.006-4.628h-2.808c-.39 1.482-1.638 2.34-3.354 2.34-2.21 0-3.64-1.482-3.718-3.744v-.182h10.036c.052-.364.078-.728.078-1.066-.078-3.9-2.652-6.344-6.5-6.344-3.926 0-6.552 2.73-6.552 6.838 0 4.082 2.626 6.786 6.812 6.786zm-3.77-8.268c.208-1.898 1.742-3.094 3.536-3.094 1.95 0 3.328 1.118 3.562 3.094h-7.098zM71.084 19h3.431L79.43 5.688h-2.964l-3.614 10.296-3.666-10.296H66.17L71.083 19zm15.475.156c3.302 0 5.538-2.002 6.006-4.628h-2.808c-.39 1.482-1.638 2.34-3.354 2.34-2.21 0-3.64-1.482-3.718-3.744v-.182h10.036c.052-.364.078-.728.078-1.066-.078-3.9-2.652-6.344-6.5-6.344-3.926 0-6.552 2.73-6.552 6.838 0 4.082 2.626 6.786 6.812 6.786zm-3.77-8.268c.208-1.898 1.742-3.094 3.536-3.094 1.95 0 3.328 1.118 3.562 3.094H82.79zm22.781 8.19l-.52 1.3c-.416 1.092-.676 1.352-1.768 1.352h-1.976v2.47h3.016c1.95 0 2.522-.962 3.354-3.12l6.032-15.392h-2.99l-3.614 10.114-3.718-10.114h-2.99l5.174 13.39zm15.241.078c4.056 0 6.786-2.73 6.786-6.812 0-4.056-2.73-6.812-6.786-6.812-4.056 0-6.786 2.756-6.786 6.812 0 4.082 2.73 6.812 6.786 6.812zm0-2.392c-2.366 0-3.9-1.846-3.9-4.42s1.534-4.42 3.9-4.42c2.366 0 3.926 1.846 3.926 4.42s-1.56 4.42-3.926 4.42zm18.17-4.42c0 2.756-1.3 4.368-3.432 4.368-2.054 0-3.094-1.326-3.094-3.926V5.688h-2.808v7.41c0 4.55 2.418 6.058 5.252 6.058 2.054 0 3.276-.832 4.108-1.846l.312 1.69h2.47V5.688h-2.808v6.656zm12.309-6.656c-2.184 0-3.25.884-3.926 2.002l-.312-2.002h-2.496V19h2.808v-6.682c0-2.054.806-4.004 3.302-4.004h1.248V5.688h-.624zm16.132-.156c-2.08 0-3.458.962-4.342 2.132l-.338-1.976h-2.444V24.2h2.808v-7.072c.832 1.196 2.262 2.028 4.316 2.028 3.64 0 6.292-2.704 6.292-6.812 0-4.264-2.652-6.812-6.292-6.812zm-.468 11.258c-2.34 0-3.874-1.846-3.874-4.498 0-2.574 1.534-4.368 3.874-4.368s3.9 1.794 3.9 4.42c0 2.6-1.56 4.446-3.9 4.446zm15.328 2.366c3.302 0 5.538-2.002 6.006-4.628h-2.808c-.39 1.482-1.638 2.34-3.354 2.34-2.21 0-3.64-1.482-3.718-3.744v-.182h10.036c.052-.364.078-.728.078-1.066-.078-3.9-2.652-6.344-6.5-6.344-3.926 0-6.552 2.73-6.552 6.838 0 4.082 2.626 6.786 6.812 6.786zm-3.77-8.268c.208-1.898 1.742-3.094 3.536-3.094 1.95 0 3.328 1.118 3.562 3.094h-7.098zm24.448 5.668c-.572 0-.858-.182-.858-.858v-5.33c0-3.146-2.028-4.836-5.564-4.836-3.354 0-5.59 1.612-5.876 4.212h2.756c.208-1.17 1.326-1.95 2.99-1.95 1.846 0 2.912.91 2.912 2.392v.806h-3.354c-3.718 0-5.694 1.534-5.694 4.264 0 2.47 2.028 3.9 4.94 3.9 2.158 0 3.51-.936 4.394-2.288 0 1.326.624 2.132 2.444 2.132h1.482v-2.444h-.572zm-3.64-3.016c-.026 2.054-1.378 3.432-3.718 3.432-1.534 0-2.47-.78-2.47-1.898 0-1.352.962-2.002 2.704-2.002h3.484v.468zm5.742 5.46h2.808v-3.38l2.392-2.496L214.188 19h3.328l-5.33-7.93 5.018-5.382h-3.302l-6.032 6.448V.8h-2.808V19zM2.34 46.386C2.34 48.804 3.432 50 5.98 50h2.6v-2.47H6.604c-1.066 0-1.43-.39-1.43-1.43v-6.942h3.25v-2.47h-3.25V32.97H2.34v3.718H.026v2.47H2.34v7.228zm14.76-9.698c-2.184 0-3.25.884-3.926 2.002l-.312-2.002h-2.496V50h2.808v-6.682c0-2.054.806-4.004 3.302-4.004h1.248v-2.626H17.1zm14.118 10.868c-.572 0-.858-.182-.858-.858v-5.33c0-3.146-2.028-4.836-5.564-4.836-3.354 0-5.59 1.612-5.876 4.212h2.756c.208-1.17 1.326-1.95 2.99-1.95 1.846 0 2.912.91 2.912 2.392v.806h-3.354c-3.718 0-5.694 1.534-5.694 4.264 0 2.47 2.028 3.9 4.94 3.9 2.158 0 3.51-.936 4.394-2.288 0 1.326.624 2.132 2.444 2.132h1.482v-2.444h-.572zm-3.64-3.016c-.026 2.054-1.378 3.432-3.718 3.432-1.534 0-2.47-.78-2.47-1.898 0-1.352.962-2.002 2.704-2.002h3.484v.468zm15.754-6.006c-.858-1.17-2.288-2.002-4.316-2.002-3.614 0-6.292 2.704-6.292 6.812 0 4.264 2.678 6.812 6.292 6.812 2.106 0 3.484-.988 4.342-2.158L43.696 50h2.444V31.8h-2.808v6.734zm-3.848 9.256c-2.34 0-3.874-1.82-3.874-4.446 0-2.6 1.534-4.42 3.874-4.42s3.874 1.82 3.874 4.472c0 2.574-1.534 4.394-3.874 4.394zm10.83-12.974c.962 0 1.716-.702 1.716-1.69s-.754-1.69-1.716-1.69-1.716.702-1.716 1.69.754 1.69 1.716 1.69zM48.884 50h2.808V36.688h-2.808V50zm12.58-13.468c-2.158 0-3.432.858-4.264 1.898l-.312-1.742h-2.444V50h2.808v-6.708c0-2.704 1.326-4.342 3.562-4.342 2.106 0 3.172 1.352 3.172 3.874V50h2.834v-7.41c0-4.446-2.418-6.058-5.356-6.058zm18.076 2.236c-.858-1.326-2.288-2.236-4.368-2.236-3.614 0-6.292 2.678-6.292 6.76 0 4.238 2.678 6.76 6.292 6.76 2.08 0 3.458-.858 4.342-2.184v1.482c0 2.548-1.378 3.718-3.822 3.718-1.976 0-3.276-.858-3.614-2.34h-2.86c.26 2.99 2.73 4.628 6.266 4.628 4.784 0 6.812-2.288 6.812-5.902V36.688h-2.444l-.312 2.08zm-3.9 8.918c-2.34 0-3.874-1.794-3.874-4.394 0-2.574 1.534-4.394 3.874-4.394s3.874 1.82 3.874 4.446c0 2.548-1.534 4.342-3.874 4.342zm23.177-11.154c-2.08 0-3.458.962-4.342 2.132l-.338-1.976h-2.445V55.2h2.809v-7.072c.831 1.196 2.261 2.028 4.316 2.028 3.639 0 6.291-2.704 6.291-6.812 0-4.264-2.652-6.812-6.291-6.812zm-.468 11.258c-2.34 0-3.874-1.846-3.874-4.498 0-2.574 1.534-4.368 3.874-4.368 2.339 0 3.899 1.794 3.899 4.42 0 2.6-1.56 4.446-3.9 4.446zm15.327 2.366c3.302 0 5.538-2.002 6.006-4.628h-2.808c-.39 1.482-1.638 2.34-3.354 2.34-2.21 0-3.64-1.482-3.718-3.744v-.182h10.036c.052-.364.078-.728.078-1.066-.078-3.9-2.652-6.344-6.5-6.344-3.926 0-6.552 2.73-6.552 6.838 0 4.082 2.626 6.786 6.812 6.786zm-3.77-8.268c.208-1.898 1.742-3.094 3.536-3.094 1.95 0 3.328 1.118 3.562 3.094h-7.098zm19.015-5.2c-2.184 0-3.25.884-3.926 2.002l-.312-2.002h-2.496V50h2.808v-6.682c0-2.054.806-4.004 3.302-4.004h1.248v-2.626h-.624zm1.562 2.47h2.314V50h2.834V39.158h3.562v-2.47h-3.614V35.57c0-.91.39-1.3 1.3-1.3h2.314V31.8h-2.678c-2.574 0-3.718 1.248-3.718 3.64v1.248h-2.314v2.47zm15.896 10.998c4.056 0 6.786-2.73 6.786-6.812 0-4.056-2.73-6.812-6.786-6.812-4.056 0-6.786 2.756-6.786 6.812 0 4.082 2.73 6.812 6.786 6.812zm0-2.392c-2.366 0-3.9-1.846-3.9-4.42s1.534-4.42 3.9-4.42c2.366 0 3.926 1.846 3.926 4.42s-1.56 4.42-3.926 4.42zm15.778-11.076c-2.184 0-3.25.884-3.926 2.002l-.312-2.002h-2.496V50h2.808v-6.682c0-2.054.806-4.004 3.302-4.004h1.248v-2.626h-.624zm17.67-.156c-2.184 0-3.692.962-4.55 2.418-.806-1.716-2.366-2.418-4.108-2.418-2.002.026-3.146.91-3.9 1.898l-.312-1.742h-2.444V50h2.808v-7.124c0-2.366 1.196-3.926 3.12-3.926 1.846 0 2.808 1.222 2.808 3.562V50h2.834v-7.202c0-2.392 1.222-3.848 3.146-3.848 1.82 0 2.782 1.222 2.782 3.562V50h2.808v-7.67c0-4.212-2.236-5.798-4.992-5.798zm19.705 11.024c-.572 0-.858-.182-.858-.858v-5.33c0-3.146-2.028-4.836-5.564-4.836-3.354 0-5.59 1.612-5.876 4.212h2.756c.208-1.17 1.326-1.95 2.99-1.95 1.846 0 2.912.91 2.912 2.392v.806h-3.354c-3.718 0-5.694 1.534-5.694 4.264 0 2.47 2.028 3.9 4.94 3.9 2.158 0 3.51-.936 4.394-2.288 0 1.326.624 2.132 2.444 2.132h1.482v-2.444h-.572zm-3.64-3.016c-.026 2.054-1.378 3.432-3.718 3.432-1.534 0-2.47-.78-2.47-1.898 0-1.352.962-2.002 2.704-2.002h3.484v.468zm12.762-8.008c-2.158 0-3.432.858-4.264 1.898l-.312-1.742h-2.444V50h2.808v-6.708c0-2.704 1.326-4.342 3.562-4.342 2.106 0 3.172 1.352 3.172 3.874V50h2.834v-7.41c0-4.446-2.418-6.058-5.356-6.058zm13.918 13.624c3.406 0 5.668-1.898 6.188-4.914h-2.964c-.338 1.534-1.482 2.522-3.198 2.522-2.262 0-3.744-1.794-3.744-4.394 0-2.626 1.482-4.446 3.744-4.446 1.742 0 2.86.962 3.224 2.522h2.938c-.546-3.016-2.678-4.914-6.11-4.914-4.03 0-6.682 2.73-6.682 6.838 0 4.16 2.574 6.786 6.604 6.786zm14.655 0c3.302 0 5.538-2.002 6.006-4.628h-2.808c-.39 1.482-1.638 2.34-3.354 2.34-2.21 0-3.64-1.482-3.718-3.744v-.182h10.036c.052-.364.078-.728.078-1.066-.078-3.9-2.652-6.344-6.5-6.344-3.926 0-6.552 2.73-6.552 6.838 0 4.082 2.626 6.786 6.812 6.786zm-3.77-8.268c.208-1.898 1.742-3.094 3.536-3.094 1.95 0 3.328 1.118 3.562 3.094h-7.098z" fill="#000"/></svg>