<svg width="182" height="34" viewBox="0 0 182 34" fill="none" xmlns="http://www.w3.org/2000/svg"><rect width="182" height="34" rx="17" fill="#000"/><path d="M29.38 24.12c3.16 0 5.48-1.8 6-4.7h-1.84c-.52 1.96-2.02 3.1-4.18 3.1-2.94 0-4.74-2.3-4.74-5.52 0-3.24 1.88-5.52 4.82-5.52 2.1 0 3.58 1.16 4.12 3.1h1.84c-.52-2.9-2.78-4.7-5.88-4.7-4.06 0-6.68 2.88-6.68 7.12 0 4.28 2.52 7.12 6.54 7.12zM41.961 13.8c-1.82 0-2.6.76-3.08 1.54l-.22-1.54h-1.42V24h1.64v-5.2c0-1.62.58-3.4 2.72-3.4h.82v-1.6h-.46zm5.996 10.32c2.36 0 4.04-1.5 4.44-3.54h-1.66c-.34 1.32-1.46 2.08-2.9 2.08-1.94 0-3.16-1.36-3.22-3.3v-.14h7.92c.02-.24.04-.48.04-.7-.08-3.02-1.96-4.84-4.84-4.84s-4.84 2.12-4.84 5.22c0 3.12 2 5.22 5.06 5.22zm-3.24-6.26c.16-1.66 1.54-2.74 3.04-2.74 1.7 0 2.9.98 3.06 2.74h-6.1zm18.751 4.64c-.46 0-.66-.14-.66-.68v-4.46c0-2.38-1.5-3.68-4.1-3.68-2.46 0-4.08 1.18-4.32 3.18h1.64c.2-1.04 1.16-1.72 2.6-1.72 1.6 0 2.54.8 2.54 2.12v.7h-3c-2.68 0-4.1 1.14-4.1 3.18 0 1.86 1.52 2.98 3.76 2.98 1.76 0 2.78-.78 3.42-1.7.02 1 .48 1.58 1.84 1.58h.9v-1.5h-.52zm-2.3-2.66c0 1.7-1.18 2.88-3.22 2.88-1.36 0-2.22-.68-2.22-1.68 0-1.16.82-1.7 2.28-1.7h3.16v.5zm4.84 1.5c0 1.8.7 2.66 2.66 2.66h1.78v-1.5h-1.62c-.88 0-1.18-.32-1.18-1.18V15.3h2.64v-1.5h-2.64v-2.86h-1.64v2.86h-1.84v1.5h1.84v6.04zm10.308 2.78c2.36 0 4.04-1.5 4.44-3.54h-1.66c-.34 1.32-1.46 2.08-2.9 2.08-1.94 0-3.16-1.36-3.22-3.3v-.14h7.92c.02-.24.04-.48.04-.7-.08-3.02-1.96-4.84-4.84-4.84s-4.84 2.12-4.84 5.22c0 3.12 2 5.22 5.06 5.22zm-3.24-6.26c.16-1.66 1.54-2.74 3.04-2.74 1.7 0 2.9.98 3.06 2.74h-6.1zm23.986 4.64c-.46 0-.66-.14-.66-.68v-4.46c0-2.38-1.5-3.68-4.1-3.68-2.46 0-4.08 1.18-4.32 3.18h1.64c.2-1.04 1.16-1.72 2.6-1.72 1.6 0 2.54.8 2.54 2.12v.7h-3c-2.68 0-4.1 1.14-4.1 3.18 0 1.86 1.52 2.98 3.76 2.98 1.76 0 2.78-.78 3.42-1.7.02 1 .48 1.58 1.84 1.58h.9v-1.5h-.52zm-2.3-2.66c0 1.7-1.18 2.88-3.22 2.88-1.36 0-2.22-.68-2.22-1.68 0-1.16.82-1.7 2.28-1.7h3.16v.5zm8.543 4.28c2.48 0 4.14-1.4 4.54-3.6h-1.74c-.32 1.3-1.32 2.14-2.78 2.14-1.96 0-3.28-1.52-3.28-3.74s1.32-3.78 3.28-3.78c1.5 0 2.5.82 2.8 2.18h1.72c-.42-2.24-2-3.64-4.5-3.64-2.96 0-4.98 2.12-4.98 5.24 0 3.18 1.96 5.2 4.94 5.2zm10.918 0c2.48 0 4.14-1.4 4.54-3.6h-1.74c-.32 1.3-1.32 2.14-2.78 2.14-1.96 0-3.28-1.52-3.28-3.74s1.32-3.78 3.28-3.78c1.5 0 2.5.82 2.8 2.18h1.72c-.42-2.24-2-3.64-4.5-3.64-2.96 0-4.98 2.12-4.98 5.24 0 3.18 1.96 5.2 4.94 5.2zm11.038 0c2.98 0 5.06-2.12 5.06-5.22 0-3.1-2.08-5.22-5.06-5.22-2.98 0-5.06 2.12-5.06 5.22 0 3.1 2.08 5.22 5.06 5.22zm0-1.46c-2.02 0-3.38-1.58-3.38-3.76 0-2.18 1.36-3.76 3.38-3.76 2.02 0 3.38 1.58 3.38 3.76 0 2.18-1.36 3.76-3.38 3.76zm14.081-3.76c0 2.3-1.12 3.72-2.98 3.72-1.7 0-2.66-1.12-2.66-3.24V13.8h-1.64v5.68c0 3.38 1.78 4.64 4.02 4.64 1.68 0 2.66-.72 3.26-1.48l.22 1.36h1.42V13.8h-1.64v5.1zm8.876-5.22c-1.72 0-2.76.72-3.36 1.5l-.22-1.38h-1.42V24h1.64v-5.1c0-2.3 1.16-3.72 3.08-3.72 1.78 0 2.76 1.12 2.76 3.24V24h1.64v-5.68c0-3.38-1.82-4.64-4.12-4.64zm6.971 7.66c0 1.8.7 2.66 2.66 2.66h1.78v-1.5h-1.62c-.88 0-1.18-.32-1.18-1.18V15.3h2.64v-1.5h-2.64v-2.86h-1.64v2.86h-1.84v1.5h1.84v6.04z" fill="#fff"/></svg>