<svg width="164" height="12" viewBox="0 0 164 12" fill="none" xmlns="http://www.w3.org/2000/svg"><path d="M.432 6.24C.48 7.92 1.74 9.072 3.828 9.072c1.848 0 3.108-1.044 3.108-2.556.012-1.656-1.344-2.1-2.736-2.352-1.32-.228-2.184-.408-2.184-1.272 0-.792.66-1.2 1.608-1.2 1.02 0 1.692.576 1.8 1.428h1.38C6.744 1.572 5.544.528 3.624.528c-1.788 0-2.988.996-2.988 2.46 0 1.668 1.32 2.112 2.712 2.352 1.332.24 2.208.432 2.208 1.32 0 .804-.72 1.248-1.716 1.248-1.176 0-1.944-.66-2.016-1.644L.432 6.24zm10.875-3.456c-.96 0-1.596.444-2.004.984l-.156-.912H8.019V11.4h1.296V8.136c.384.552 1.044.936 1.992.936 1.68 0 2.904-1.248 2.904-3.144 0-1.968-1.224-3.144-2.904-3.144zM11.09 7.98c-1.08 0-1.788-.852-1.788-2.076 0-1.188.708-2.016 1.788-2.016s1.8.828 1.8 2.04c0 1.2-.72 2.052-1.8 2.052zm7.074 1.092c1.524 0 2.556-.924 2.772-2.136h-1.296c-.18.684-.756 1.08-1.548 1.08-1.02 0-1.68-.684-1.716-1.728v-.084h4.632a3.52 3.52 0 00.036-.492c-.036-1.8-1.224-2.928-3-2.928-1.812 0-3.024 1.26-3.024 3.156 0 1.884 1.212 3.132 3.144 3.132zm-1.74-3.816c.096-.876.804-1.428 1.632-1.428.9 0 1.536.516 1.644 1.428h-3.276zm8.584 3.816c1.524 0 2.556-.924 2.772-2.136h-1.296c-.18.684-.756 1.08-1.548 1.08-1.02 0-1.68-.684-1.716-1.728v-.084h4.632a3.52 3.52 0 00.036-.492c-.036-1.8-1.224-2.928-3-2.928-1.812 0-3.024 1.26-3.024 3.156 0 1.884 1.212 3.132 3.144 3.132zm-1.74-3.816c.096-.876.804-1.428 1.632-1.428.9 0 1.536.516 1.644 1.428h-3.276zm10.336-1.548c-.396-.54-1.056-.924-1.992-.924-1.668 0-2.904 1.248-2.904 3.144 0 1.968 1.236 3.144 2.904 3.144.972 0 1.608-.456 2.004-.996l.156.924H34.9V.6h-1.296v3.108zM31.829 7.98c-1.08 0-1.788-.84-1.788-2.052 0-1.2.708-2.04 1.788-2.04s1.788.84 1.788 2.064c0 1.188-.708 2.028-1.788 2.028zm4.218.276c0 .48.348.816.828.816s.84-.336.84-.816c0-.48-.36-.816-.84-.816s-.828.336-.828.816zM42.053 9h5.628V7.776h-4.248V5.34h3.384V4.152h-3.384V1.824h4.104V.6h-5.484V9zm5.994 0h1.428l1.62-2.232L52.703 9h1.512l-2.316-3.144 2.184-3h-1.428l-1.5 2.076-1.464-2.076h-1.512l2.172 3L48.047 9zm10.088-6.216c-.96 0-1.596.444-2.004.984l-.156-.912h-1.128V11.4h1.296V8.136c.384.552 1.044.936 1.992.936 1.68 0 2.904-1.248 2.904-3.144 0-1.968-1.224-3.144-2.904-3.144zm-.216 5.196c-1.08 0-1.788-.852-1.788-2.076 0-1.188.708-2.016 1.788-2.016s1.8.828 1.8 2.04c0 1.2-.72 2.052-1.8 2.052zm7.074 1.092c1.524 0 2.556-.924 2.772-2.136H66.47c-.18.684-.756 1.08-1.548 1.08-1.02 0-1.68-.684-1.716-1.728v-.084h4.632a3.52 3.52 0 00.036-.492c-.036-1.8-1.224-2.928-3-2.928-1.812 0-3.024 1.26-3.024 3.156 0 1.884 1.212 3.132 3.144 3.132zm-1.74-3.816c.096-.876.804-1.428 1.632-1.428.9 0 1.536.516 1.644 1.428h-3.276zm8.776-2.4c-1.008 0-1.5.408-1.812.924l-.144-.924h-1.152V9h1.296V5.916c0-.948.372-1.848 1.524-1.848h.576V2.856h-.288zm1.748-.864c.444 0 .791-.324.791-.78s-.347-.78-.791-.78c-.445 0-.793.324-.793.78s.349.78.793.78zM73.117 9h1.295V2.856h-1.296V9zm5.482.072c1.524 0 2.556-.924 2.772-2.136h-1.296c-.18.684-.756 1.08-1.548 1.08-1.02 0-1.68-.684-1.716-1.728v-.084h4.632a3.52 3.52 0 00.036-.492c-.036-1.8-1.224-2.928-3-2.928-1.812 0-3.024 1.26-3.024 3.156 0 1.884 1.212 3.132 3.144 3.132zm-1.74-3.816c.096-.876.804-1.428 1.632-1.428.9 0 1.536.516 1.644 1.428h-3.276zm8.908-2.472c-.996 0-1.584.396-1.968.876l-.144-.804h-1.128V9h1.296V5.904c0-1.248.612-2.004 1.644-2.004.972 0 1.464.624 1.464 1.788V9h1.308V5.58c0-2.052-1.116-2.796-2.472-2.796zm6.423 6.288c1.572 0 2.616-.876 2.856-2.268h-1.368c-.156.708-.684 1.164-1.476 1.164-1.044 0-1.728-.828-1.728-2.028 0-1.212.684-2.052 1.728-2.052.804 0 1.32.444 1.488 1.164h1.356c-.252-1.392-1.236-2.268-2.82-2.268-1.86 0-3.084 1.26-3.084 3.156 0 1.92 1.188 3.132 3.048 3.132zm6.764 0c1.524 0 2.556-.924 2.772-2.136h-1.296c-.18.684-.756 1.08-1.548 1.08-1.02 0-1.68-.684-1.716-1.728v-.084h4.632a3.52 3.52 0 00.036-.492c-.036-1.8-1.224-2.928-3-2.928-1.812 0-3.024 1.26-3.024 3.156 0 1.884 1.212 3.132 3.144 3.132zm-1.74-3.816c.096-.876.804-1.428 1.632-1.428.9 0 1.536.516 1.644 1.428h-3.276zm5.173 3c0 .48.348.816.828.816s.84-.336.84-.816c0-.48-.36-.816-.84-.816s-.828.336-.828.816zm6.006.744h5.628V7.776h-4.248V5.34h3.384V4.152h-3.384V1.824h4.104V.6h-5.484V9zm5.994 0h1.428l1.62-2.232L119.043 9h1.512l-2.316-3.144 2.184-3h-1.428l-1.5 2.076-1.464-2.076h-1.512l2.172 3L114.387 9zm9.435.072c1.524 0 2.556-.924 2.772-2.136h-1.296c-.18.684-.756 1.08-1.548 1.08-1.02 0-1.68-.684-1.716-1.728v-.084h4.632a3.52 3.52 0 00.036-.492c-.036-1.8-1.224-2.928-3-2.928-1.812 0-3.024 1.26-3.024 3.156 0 1.884 1.212 3.132 3.144 3.132zm-1.74-3.816c.096-.876.804-1.428 1.632-1.428.9 0 1.536.516 1.644 1.428h-3.276zm8.487 3.816c1.572 0 2.616-.876 2.856-2.268h-1.368c-.156.708-.684 1.164-1.476 1.164-1.044 0-1.728-.828-1.728-2.028 0-1.212.684-2.052 1.728-2.052.804 0 1.32.444 1.488 1.164h1.356c-.252-1.392-1.236-2.268-2.82-2.268-1.86 0-3.084 1.26-3.084 3.156 0 1.92 1.188 3.132 3.048 3.132zm8.06-3.144c0 1.272-.6 2.016-1.584 2.016-.948 0-1.428-.612-1.428-1.812V2.856h-1.296v3.42c0 2.1 1.116 2.796 2.424 2.796.948 0 1.512-.384 1.896-.852l.144.78h1.14V2.856h-1.296v3.072zm3.053 1.404c0 1.116.504 1.668 1.68 1.668h1.2V7.86h-.912c-.492 0-.66-.18-.66-.66V3.996h1.5v-1.14h-1.5V1.14h-1.308v1.716h-1.068v1.14h1.068v3.336zm4.364-5.34c.444 0 .792-.324.792-.78s-.348-.78-.792-.78c-.444 0-.792.324-.792.78s.348.78.792.78zM145.386 9h1.296V2.856h-1.296V9zm5.47.072c1.872 0 3.132-1.26 3.132-3.144 0-1.872-1.26-3.144-3.132-3.144s-3.132 1.272-3.132 3.144c0 1.884 1.26 3.144 3.132 3.144zm0-1.104c-1.092 0-1.8-.852-1.8-2.04 0-1.188.708-2.04 1.8-2.04s1.812.852 1.812 2.04c0 1.188-.72 2.04-1.812 2.04zm7.415-5.184c-.996 0-1.584.396-1.968.876l-.144-.804h-1.128V9h1.296V5.904c0-1.248.612-2.004 1.644-2.004.972 0 1.464.624 1.464 1.788V9h1.308V5.58c0-2.052-1.116-2.796-2.472-2.796zm3.53 5.472c0 .48.348.816.828.816s.84-.336.84-.816c0-.48-.36-.816-.84-.816s-.828.336-.828.816z" fill="#000"/></svg>