<svg width="434" height="23" viewBox="0 0 434 23" fill="none" xmlns="http://www.w3.org/2000/svg"><path d="M.6 4.06h6.48V22h3.45V4.06h6.48V1H.6v3.06zm24.932 2.58c-2.52 0-3.75 1.02-4.53 2.31l-.36-2.31h-2.88V22h3.24v-7.71c0-2.37.93-4.62 3.81-4.62h1.44V6.64h-.72zm16.29 12.54c-.66 0-.99-.21-.99-.99v-6.15c0-3.63-2.34-5.58-6.42-5.58-3.87 0-6.45 1.86-6.78 4.86h3.18c.24-1.35 1.53-2.25 3.45-2.25 2.13 0 3.36 1.05 3.36 2.76v.93h-3.87c-4.29 0-6.57 1.77-6.57 4.92 0 2.85 2.34 4.5 5.7 4.5 2.49 0 4.05-1.08 5.07-2.64 0 1.53.72 2.46 2.82 2.46h1.71v-2.82h-.66zm-4.2-3.48c-.03 2.37-1.59 3.96-4.29 3.96-1.77 0-2.85-.9-2.85-2.19 0-1.56 1.11-2.31 3.12-2.31h4.02v.54zm18.177-6.93c-.99-1.35-2.64-2.31-4.98-2.31-4.17 0-7.26 3.12-7.26 7.86 0 4.92 3.09 7.86 7.26 7.86 2.43 0 4.02-1.14 5.01-2.49l.39 2.31h2.82V1H55.8v7.77zm-4.44 10.68c-2.7 0-4.47-2.1-4.47-5.13 0-3 1.77-5.1 4.47-5.1 2.7 0 4.47 2.1 4.47 5.16 0 2.97-1.77 5.07-4.47 5.07zm18.136 2.73c3.81 0 6.39-2.31 6.93-5.34h-3.24c-.45 1.71-1.89 2.7-3.87 2.7-2.55 0-4.2-1.71-4.29-4.32v-.21h11.58c.06-.42.09-.84.09-1.23-.09-4.5-3.06-7.32-7.5-7.32-4.53 0-7.56 3.15-7.56 7.89 0 4.71 3.03 7.83 7.86 7.83zm-4.35-9.54c.24-2.19 2.01-3.57 4.08-3.57 2.25 0 3.84 1.29 4.11 3.57h-8.19zm31.295 9.54c3.33 0 5.49-1.5 6.51-3l.3 2.82h2.67V10.51H96.8v2.91h5.82v.51c-.18 3.39-2.79 5.22-6.03 5.22-4.02 0-6.54-3.15-6.54-7.65s2.58-7.65 6.57-7.65c2.91 0 4.92 1.62 5.55 4.29h3.57c-.63-4.44-4.17-7.32-9.03-7.32-6.24 0-10.2 4.29-10.2 10.68s4.05 10.68 9.93 10.68zm20.252 0c4.68 0 7.83-3.15 7.83-7.86 0-4.68-3.15-7.86-7.83-7.86s-7.83 3.18-7.83 7.86c0 4.71 3.15 7.86 7.83 7.86zm0-2.76c-2.73 0-4.5-2.13-4.5-5.1 0-2.97 1.77-5.1 4.5-5.1s4.53 2.13 4.53 5.1c0 2.97-1.8 5.1-4.53 5.1zM127.127 22h3.24V1h-3.24v21zm18.086-13.23c-.99-1.35-2.64-2.31-4.98-2.31-4.17 0-7.26 3.12-7.26 7.86 0 4.92 3.09 7.86 7.26 7.86 2.43 0 4.02-1.14 5.01-2.49l.39 2.31h2.82V1h-3.24v7.77zm-4.44 10.68c-2.7 0-4.47-2.1-4.47-5.13 0-3 1.77-5.1 4.47-5.1 2.7 0 4.47 2.1 4.47 5.16 0 2.97-1.77 5.07-4.47 5.07zm27.972 2.73c4.89 0 8.46-2.88 9.12-7.32h-3.57c-.66 2.67-2.67 4.29-5.58 4.29-3.96 0-6.36-3.18-6.36-7.65 0-4.5 2.46-7.65 6.45-7.65 2.85 0 4.83 1.65 5.52 4.29h3.57c-.69-4.44-4.14-7.32-8.94-7.32-6.21 0-10.14 4.29-10.14 10.68 0 6.45 3.81 10.68 9.93 10.68zm11.974-.18h3.45v-8.88h8.22v-2.97h-8.22V4.06h9.96V1h-13.41v21zm23.195 0c6.57 0 10.71-4.29 10.71-10.53 0-6.24-4.14-10.47-10.71-10.47h-7.14v21h7.14zm-3.69-18h3.69c4.62 0 7.17 2.97 7.17 7.47s-2.55 7.53-7.17 7.53h-3.69V4zm16.448 12.93c.09 3.33 2.91 5.25 7.02 5.25 3.72 0 6.51-1.86 6.51-4.8 0-3.42-2.85-4.14-6.36-4.56-2.22-.24-3.69-.42-3.69-1.86 0-1.23 1.26-2.01 3.18-2.01 1.92 0 3.24.99 3.42 2.4h3.18c-.21-3.15-2.88-4.89-6.66-4.89-3.69-.03-6.3 1.86-6.3 4.77 0 3.18 2.76 3.93 6.27 4.35 2.37.3 3.78.42 3.78 2.07 0 1.23-1.32 2.01-3.33 2.01-2.34 0-3.72-1.14-3.84-2.73h-3.18zM245.099 22h4.05l4.23-15.45 4.29 15.45h4.02l6.03-21h-3.54l-4.5 16.62L255.119 1h-3.27l-4.68 16.62-4.47-16.65-3.57.03 5.97 21zm26.149-17.52c1.11 0 1.98-.81 1.98-1.95s-.87-1.95-1.98-1.95c-1.11 0-1.98.81-1.98 1.95s.87 1.95 1.98 1.95zM269.598 22h3.24V6.64h-3.24V22zm7.526-4.17c0 2.79 1.26 4.17 4.2 4.17h3v-2.85h-2.28c-1.23 0-1.65-.45-1.65-1.65V9.49h3.75V6.64h-3.75V2.35h-3.27v4.29h-2.67v2.85h2.67v8.34zm17.331-11.37c-2.4 0-3.87 1.08-4.83 2.4V1h-3.24v21h3.24v-7.77c0-3.09 1.56-4.98 4.11-4.98 2.4 0 3.69 1.56 3.69 4.47V22h3.24v-8.55c0-5.13-2.79-6.99-6.21-6.99zm16.299 15.72c4.68 0 7.83-3.15 7.83-7.86 0-4.68-3.15-7.86-7.83-7.86s-7.83 3.18-7.83 7.86c0 4.71 3.15 7.86 7.83 7.86zm0-2.76c-2.73 0-4.5-2.13-4.5-5.1 0-2.97 1.77-5.1 4.5-5.1s4.53 2.13 4.53 5.1c0 2.97-1.8 5.1-4.53 5.1zm20.966-5.1c0 3.18-1.5 5.04-3.96 5.04-2.37 0-3.57-1.53-3.57-4.53V6.64h-3.24v8.55c0 5.25 2.79 6.99 6.06 6.99 2.37 0 3.78-.96 4.74-2.13l.36 1.95h2.85V6.64h-3.24v7.68zm7.63 3.51c0 2.79 1.26 4.17 4.2 4.17h3v-2.85h-2.28c-1.23 0-1.65-.45-1.65-1.65V9.49h3.75V6.64h-3.75V2.35h-3.27v4.29h-2.67v2.85h2.67v8.34zm26.387 4.35c4.89 0 8.46-2.88 9.12-7.32h-3.57c-.66 2.67-2.67 4.29-5.58 4.29-3.96 0-6.36-3.18-6.36-7.65 0-4.5 2.46-7.65 6.45-7.65 2.85 0 4.83 1.65 5.52 4.29h3.57c-.69-4.44-4.14-7.32-8.94-7.32-6.21 0-10.14 4.29-10.14 10.68 0 6.45 3.81 10.68 9.93 10.68zm18.904 0c4.68 0 7.83-3.15 7.83-7.86 0-4.68-3.15-7.86-7.83-7.86s-7.83 3.18-7.83 7.86c0 4.71 3.15 7.86 7.83 7.86zm0-2.76c-2.73 0-4.5-2.13-4.5-5.1 0-2.97 1.77-5.1 4.5-5.1s4.53 2.13 4.53 5.1c0 2.97-1.8 5.1-4.53 5.1zm9.687-2.49c.09 3.33 2.91 5.25 7.02 5.25 3.72 0 6.51-1.86 6.51-4.8 0-3.42-2.85-4.14-6.36-4.56-2.22-.24-3.69-.42-3.69-1.86 0-1.23 1.26-2.01 3.18-2.01 1.92 0 3.24.99 3.42 2.4h3.18c-.21-3.15-2.88-4.89-6.66-4.89-3.69-.03-6.3 1.86-6.3 4.77 0 3.18 2.76 3.93 6.27 4.35 2.37.3 3.78.42 3.78 2.07 0 1.23-1.32 2.01-3.33 2.01-2.34 0-3.72-1.14-3.84-2.73h-3.18zm17.151.9c0 2.79 1.26 4.17 4.2 4.17h3v-2.85h-2.28c-1.23 0-1.65-.45-1.65-1.65V9.49h3.75V6.64h-3.75V2.35h-3.27v4.29h-2.67v2.85h2.67v8.34zm8.601-.9c.09 3.33 2.91 5.25 7.02 5.25 3.72 0 6.51-1.86 6.51-4.8 0-3.42-2.85-4.14-6.36-4.56-2.22-.24-3.69-.42-3.69-1.86 0-1.23 1.26-2.01 3.18-2.01 1.92 0 3.24.99 3.42 2.4h3.18c-.21-3.15-2.88-4.89-6.66-4.89-3.69-.03-6.3 1.86-6.3 4.77 0 3.18 2.76 3.93 6.27 4.35 2.37.3 3.78.42 3.78 2.07 0 1.23-1.32 2.01-3.33 2.01-2.34 0-3.72-1.14-3.84-2.73h-3.18z" fill="#000"/></svg>