<svg width="378" height="25" viewBox="0 0 378 25" fill="none" xmlns="http://www.w3.org/2000/svg"><path d="M.66 4.266h7.128V24h3.795V4.266h7.128V.9H.66v3.366zm27.425 2.838c-2.772 0-4.125 1.122-4.983 2.541l-.396-2.541h-3.168V24h3.564v-8.481c0-2.607 1.023-5.082 4.191-5.082h1.584V7.104h-.792zm17.919 13.794c-.726 0-1.09-.231-1.09-1.089v-6.765c0-3.993-2.574-6.138-7.062-6.138-4.256 0-7.094 2.046-7.457 5.346h3.497c.264-1.485 1.683-2.475 3.795-2.475 2.344 0 3.697 1.155 3.697 3.036v1.023h-4.258c-4.718 0-7.226 1.947-7.226 5.412 0 3.135 2.574 4.95 6.27 4.95 2.738 0 4.454-1.188 5.576-2.904 0 1.683.792 2.706 3.102 2.706h1.882v-3.102h-.726zm-4.62-3.828c-.034 2.607-1.75 4.356-4.72 4.356-1.947 0-3.135-.99-3.135-2.409 0-1.716 1.221-2.541 3.432-2.541h4.422v.594zm19.995-7.623c-1.089-1.485-2.904-2.541-5.478-2.541-4.587 0-7.986 3.432-7.986 8.646 0 5.412 3.399 8.646 7.986 8.646 2.673 0 4.422-1.254 5.511-2.739L61.841 24h3.102V.9h-3.564v8.547zm-4.884 11.748c-2.97 0-4.917-2.31-4.917-5.643 0-3.3 1.947-5.61 4.917-5.61 2.97 0 4.917 2.31 4.917 5.676 0 3.267-1.947 5.577-4.917 5.577zm19.95 3.003c4.19 0 7.029-2.541 7.623-5.874h-3.564c-.495 1.881-2.08 2.97-4.257 2.97-2.805 0-4.62-1.881-4.72-4.752v-.231h12.739c.066-.462.099-.924.099-1.353-.1-4.95-3.366-8.052-8.25-8.052-4.983 0-8.316 3.465-8.316 8.679 0 5.181 3.333 8.613 8.646 8.613zM71.66 13.704c.264-2.409 2.21-3.927 4.488-3.927 2.475 0 4.224 1.419 4.52 3.927H71.66zm34.424 10.494c3.663 0 6.039-1.65 7.161-3.3l.33 3.102h2.937V11.361H106.48v3.201h6.402v.561c-.198 3.729-3.069 5.742-6.633 5.742-4.422 0-7.194-3.465-7.194-8.415 0-4.95 2.838-8.415 7.227-8.415 3.201 0 5.412 1.782 6.105 4.719h3.927c-.693-4.884-4.587-8.052-9.933-8.052-6.864 0-11.22 4.719-11.22 11.748 0 7.029 4.455 11.748 10.923 11.748zm22.277 0c5.148 0 8.613-3.465 8.613-8.646 0-5.148-3.465-8.646-8.613-8.646s-8.613 3.498-8.613 8.646c0 5.181 3.465 8.646 8.613 8.646zm0-3.036c-3.003 0-4.95-2.343-4.95-5.61 0-3.267 1.947-5.61 4.95-5.61s4.983 2.343 4.983 5.61c0 3.267-1.98 5.61-4.983 5.61zM139.84 24h3.564V.9h-3.564V24zm19.894-14.553c-1.089-1.485-2.904-2.541-5.478-2.541-4.587 0-7.986 3.432-7.986 8.646 0 5.412 3.399 8.646 7.986 8.646 2.673 0 4.422-1.254 5.511-2.739l.429 2.541h3.102V.9h-3.564v8.547zm-4.884 11.748c-2.97 0-4.917-2.31-4.917-5.643 0-3.3 1.947-5.61 4.917-5.61 2.97 0 4.917 2.31 4.917 5.676 0 3.267-1.947 5.577-4.917 5.577zM179.119 24h3.861l3.696-11.484L190.24 24h3.828l5.61-16.896h-3.63l-3.993 12.936-3.696-12.936h-3.267l-3.861 12.936-3.861-12.936h-3.762L179.119 24zm24.25-19.272c1.221 0 2.178-.891 2.178-2.145S204.59.438 203.369.438s-2.178.891-2.178 2.145.957 2.145 2.178 2.145zM201.554 24h3.564V7.104h-3.564V24zm8.278-4.587c0 3.069 1.386 4.587 4.62 4.587h3.3v-3.135h-2.508c-1.353 0-1.815-.495-1.815-1.815v-8.811h4.125V7.104h-4.125V2.385h-3.597v4.719h-2.937v3.135h2.937v9.174zm19.065-12.507c-2.64 0-4.257 1.188-5.313 2.64V.9h-3.564V24h3.564v-8.547c0-3.399 1.716-5.478 4.521-5.478 2.64 0 4.059 1.716 4.059 4.917V24h3.564v-9.405c0-5.643-3.069-7.689-6.831-7.689zm17.929 17.292c5.148 0 8.613-3.465 8.613-8.646 0-5.148-3.465-8.646-8.613-8.646s-8.613 3.498-8.613 8.646c0 5.181 3.465 8.646 8.613 8.646zm0-3.036c-3.003 0-4.95-2.343-4.95-5.61 0-3.267 1.947-5.61 4.95-5.61s4.983 2.343 4.983 5.61c0 3.267-1.98 5.61-4.983 5.61zm23.062-5.61c0 3.498-1.65 5.544-4.356 5.544-2.607 0-3.927-1.683-3.927-4.983V7.104h-3.564v9.405c0 5.775 3.069 7.689 6.666 7.689 2.607 0 4.158-1.056 5.214-2.343l.396 2.145h3.135V7.104h-3.564v8.448zm8.394 3.861c0 3.069 1.386 4.587 4.62 4.587h3.3v-3.135h-2.508c-1.353 0-1.815-.495-1.815-1.815v-8.811h4.125V7.104h-4.125V2.385h-3.597v4.719h-2.937v3.135h2.937v9.174zm26.385 4.785c4.323 0 7.194-2.409 7.854-6.237h-3.762c-.429 1.947-1.881 3.201-4.059 3.201-2.871 0-4.752-2.277-4.752-5.577 0-3.333 1.881-5.643 4.752-5.643 2.211 0 3.63 1.221 4.092 3.201h3.729c-.693-3.828-3.399-6.237-7.755-6.237-5.115 0-8.481 3.465-8.481 8.679 0 5.28 3.267 8.613 8.382 8.613zm18.568 0c5.148 0 8.613-3.465 8.613-8.646 0-5.148-3.465-8.646-8.613-8.646s-8.613 3.498-8.613 8.646c0 5.181 3.465 8.646 8.613 8.646zm0-3.036c-3.003 0-4.95-2.343-4.95-5.61 0-3.267 1.947-5.61 4.95-5.61s4.983 2.343 4.983 5.61c0 3.267-1.98 5.61-4.983 5.61zm10.656-2.739c.099 3.663 3.201 5.775 7.722 5.775 4.092 0 7.161-2.046 7.161-5.28 0-3.762-3.135-4.554-6.996-5.016-2.442-.264-4.059-.462-4.059-2.046 0-1.353 1.386-2.211 3.498-2.211s3.564 1.089 3.762 2.64h3.498c-.231-3.465-3.168-5.379-7.326-5.379-4.059-.033-6.93 2.046-6.93 5.247 0 3.498 3.036 4.323 6.897 4.785 2.607.33 4.158.462 4.158 2.277 0 1.353-1.452 2.211-3.663 2.211-2.574 0-4.092-1.254-4.224-3.003h-3.498zm18.866.99c0 3.069 1.386 4.587 4.62 4.587h3.3v-3.135h-2.508c-1.353 0-1.815-.495-1.815-1.815v-8.811h4.125V7.104h-4.125V2.385h-3.597v4.719h-2.937v3.135h2.937v9.174zm9.461-.99c.099 3.663 3.201 5.775 7.722 5.775 4.092 0 7.161-2.046 7.161-5.28 0-3.762-3.135-4.554-6.996-5.016-2.442-.264-4.059-.462-4.059-2.046 0-1.353 1.386-2.211 3.498-2.211s3.564 1.089 3.762 2.64h3.498c-.231-3.465-3.168-5.379-7.326-5.379-4.059-.033-6.93 2.046-6.93 5.247 0 3.498 3.036 4.323 6.897 4.785 2.607.33 4.158.462 4.158 2.277 0 1.353-1.452 2.211-3.663 2.211-2.574 0-4.092-1.254-4.224-3.003h-3.498z" fill="#000"/></svg>