<svg width="219" height="42" viewBox="0 0 219 42" fill="none" xmlns="http://www.w3.org/2000/svg"><path d="M.36 1.3h4.32V13h.972V1.3h4.32V.4H.36v.9zm13.798 2.574c-1.692 0-2.412.81-2.79 1.818l-.144-1.818h-.792V13h.918V8.374c0-1.854.486-3.618 2.628-3.618h.666v-.882h-.486zm9.487 8.28c-.54 0-.81-.18-.81-.882V7.024c0-2.088-1.278-3.258-3.564-3.258-2.088 0-3.474 1.008-3.708 2.664h.918c.234-1.116 1.206-1.854 2.754-1.854 1.71 0 2.682.9 2.682 2.412v.792h-3.096c-2.34 0-3.6 1.008-3.6 2.718 0 1.62 1.278 2.61 3.222 2.61 1.854 0 2.952-.846 3.51-1.98v.324c-.036 1.08.414 1.548 1.494 1.548h.54v-.846h-.342zM21.917 9.31c0 1.746-1.242 3.006-3.402 3.006-1.458 0-2.358-.738-2.358-1.872 0-1.206.9-1.872 2.592-1.872h3.168v.738zm10.61-3.384c-.559-1.296-1.783-2.16-3.493-2.16-2.502 0-4.302 1.908-4.302 4.662 0 2.88 1.8 4.68 4.302 4.68 1.71 0 2.898-.918 3.474-2.196L32.652 13h.792V.4h-.918v5.526zm-3.42 6.354c-2.035 0-3.439-1.584-3.439-3.852 0-2.25 1.404-3.852 3.438-3.852 2.034 0 3.438 1.602 3.438 3.87 0 2.25-1.404 3.834-3.438 3.834zm10.528.828c1.998 0 3.528-1.296 3.924-3.132h-.936c-.36 1.422-1.566 2.304-3.06 2.304-2.034 0-3.312-1.548-3.348-3.672v-.162h7.452c0-.126.018-.27.018-.378-.09-2.718-1.764-4.302-4.212-4.302-2.502 0-4.212 1.908-4.212 4.608 0 2.862 1.782 4.734 4.374 4.734zm-3.348-5.436c.144-1.854 1.53-3.096 3.204-3.096 1.782 0 3.06 1.098 3.204 3.096h-6.408zM52.566 13h.99l2.7-7.668L58.83 13h.99l3.24-9.126h-.937l-2.807 8.028-2.61-8.028h-.847l-2.754 8.028-2.663-8.028h-.973L52.566 13zM64.811 1.948c.36 0 .648-.27.648-.648a.634.634 0 00-.648-.648c-.36 0-.648.27-.648.648s.288.648.648.648zM64.344 13h.918V3.874h-.918V13zm3.76-2.124c0 1.458.594 2.124 2.142 2.124h1.332v-.846h-1.26c-.954 0-1.296-.36-1.296-1.296V4.72h2.466v-.846h-2.466V1.318h-.918v2.556h-1.728v.846h1.728v6.156zm9.082-7.11c-1.71 0-2.772.954-3.294 2.268V.4h-.917V13h.918V8.5c0-2.376 1.206-3.888 3.15-3.888 1.745 0 2.825 1.152 2.825 3.312V13h.919V7.888c0-2.88-1.53-4.122-3.6-4.122zm14.227.108c-1.692 0-2.412.81-2.79 1.818l-.144-1.818h-.792V13h.918V8.374c0-1.854.486-3.618 2.628-3.618h.666v-.882h-.486zm5.228 9.234c1.998 0 3.528-1.296 3.924-3.132h-.936c-.36 1.422-1.566 2.304-3.06 2.304-2.034 0-3.312-1.548-3.348-3.672v-.162h7.452c0-.126.018-.27.018-.378-.09-2.718-1.764-4.302-4.212-4.302-2.502 0-4.212 1.908-4.212 4.608 0 2.862 1.782 4.734 4.374 4.734zm-3.348-5.436c.144-1.854 1.53-3.096 3.204-3.096 1.782 0 3.06 1.098 3.204 3.096h-6.408zm16.665-1.746c-.558-1.296-1.782-2.16-3.492-2.16-2.502 0-4.302 1.908-4.302 4.662 0 2.88 1.8 4.68 4.302 4.68 1.71 0 2.898-.918 3.474-2.196l.144 2.088h.792V.4h-.918v5.526zm-3.42 6.354c-2.034 0-3.438-1.584-3.438-3.852 0-2.25 1.404-3.852 3.438-3.852 2.034 0 3.438 1.602 3.438 3.87 0 2.25-1.404 3.834-3.438 3.834zm13.121-3.924c0 2.394-1.188 3.906-3.078 3.906-1.692 0-2.736-1.152-2.736-3.33V3.874h-.918v5.112c0 2.862 1.494 4.122 3.51 4.122 1.62 0 2.682-.864 3.204-2.034l.126 1.926h.81V3.874h-.918v4.482zm7.057 4.752c2.07 0 3.528-1.188 3.888-3.042h-.972c-.306 1.35-1.404 2.214-2.916 2.214-1.998 0-3.384-1.566-3.384-3.834s1.368-3.87 3.384-3.87c1.53 0 2.61.864 2.934 2.232h.954c-.378-1.89-1.8-3.042-3.87-3.042-2.574 0-4.338 1.908-4.338 4.68 0 2.808 1.746 4.662 4.32 4.662zm9.705 0c1.998 0 3.528-1.296 3.924-3.132h-.936c-.36 1.422-1.566 2.304-3.06 2.304-2.034 0-3.312-1.548-3.348-3.672v-.162h7.452c0-.126.018-.27.018-.378-.09-2.718-1.764-4.302-4.212-4.302-2.502 0-4.212 1.908-4.212 4.608 0 2.862 1.782 4.734 4.374 4.734zm-3.348-5.436c.144-1.854 1.53-3.096 3.204-3.096 1.782 0 3.06 1.098 3.204 3.096h-6.408zm16.664-1.746c-.558-1.296-1.782-2.16-3.492-2.16-2.502 0-4.302 1.908-4.302 4.662 0 2.88 1.8 4.68 4.302 4.68 1.71 0 2.898-.918 3.474-2.196l.144 2.088h.792V.4h-.918v5.526zm-3.42 6.354c-2.034 0-3.438-1.584-3.438-3.852 0-2.25 1.404-3.852 3.438-3.852 2.034 0 3.438 1.602 3.438 3.87 0 2.25-1.404 3.834-3.438 3.834zm10.935-2.088c.072 1.89 1.602 2.916 3.888 2.916 1.962 0 3.546-.99 3.546-2.61 0-1.926-1.692-2.304-3.654-2.574-1.422-.198-2.682-.36-2.682-1.638 0-1.044 1.026-1.728 2.574-1.728 1.458 0 2.502.702 2.664 1.89h.936c-.162-1.782-1.62-2.682-3.6-2.682-2.034-.018-3.492 1.026-3.492 2.592 0 1.836 1.692 2.178 3.564 2.43 1.53.216 2.772.414 2.772 1.764 0 1.08-1.134 1.764-2.628 1.764-1.746 0-2.88-.81-2.952-2.124h-.936zm13.595-6.426c-1.71 0-2.898.918-3.474 2.196l-.144-2.088h-.792V16.6h.918v-5.706c.522 1.332 1.764 2.214 3.492 2.214 2.502 0 4.302-1.908 4.302-4.68 0-2.862-1.8-4.662-4.302-4.662zm-.072 8.514c-2.034 0-3.438-1.584-3.438-3.87 0-2.232 1.404-3.834 3.438-3.834 2.034 0 3.438 1.602 3.438 3.852 0 2.268-1.404 3.852-3.438 3.852zm9.918-8.406c-1.692 0-2.412.81-2.79 1.818l-.144-1.818h-.792V13h.918V8.374c0-1.854.486-3.618 2.628-3.618h.666v-.882h-.486zm5.228 9.234c1.998 0 3.528-1.296 3.924-3.132h-.936c-.36 1.422-1.566 2.304-3.06 2.304-2.034 0-3.312-1.548-3.348-3.672v-.162h7.452c0-.126.018-.27.018-.378-.09-2.718-1.764-4.302-4.212-4.302-2.502 0-4.212 1.908-4.212 4.608 0 2.862 1.782 4.734 4.374 4.734zm-3.348-5.436c.144-1.854 1.53-3.096 3.204-3.096 1.782 0 3.06 1.098 3.204 3.096h-6.408zm17.24 4.482c-.54 0-.81-.18-.81-.882V7.024c0-2.088-1.278-3.258-3.564-3.258-2.088 0-3.474 1.008-3.708 2.664h.918c.234-1.116 1.206-1.854 2.754-1.854 1.71 0 2.682.9 2.682 2.412v.792h-3.096c-2.34 0-3.6 1.008-3.6 2.718 0 1.62 1.278 2.61 3.222 2.61 1.854 0 2.952-.846 3.51-1.98v.324c-.036 1.08.414 1.548 1.494 1.548h.54v-.846h-.342zm-1.728-2.844c0 1.746-1.242 3.006-3.402 3.006-1.458 0-2.358-.738-2.358-1.872 0-1.206.9-1.872 2.592-1.872h3.168v.738zm10.609-3.384c-.558-1.296-1.782-2.16-3.492-2.16-2.502 0-4.302 1.908-4.302 4.662 0 2.88 1.8 4.68 4.302 4.68 1.71 0 2.898-.918 3.474-2.196L208.82 13h.792V.4h-.918v5.526zm-3.42 6.354c-2.034 0-3.438-1.584-3.438-3.852 0-2.25 1.404-3.852 3.438-3.852 2.034 0 3.438 1.602 3.438 3.87 0 2.25-1.404 3.834-3.438 3.834zm6.083-2.088c.072 1.89 1.602 2.916 3.888 2.916 1.962 0 3.546-.99 3.546-2.61 0-1.926-1.692-2.304-3.654-2.574-1.422-.198-2.682-.36-2.682-1.638 0-1.044 1.026-1.728 2.574-1.728 1.458 0 2.502.702 2.664 1.89h.936c-.162-1.782-1.62-2.682-3.6-2.682-2.034-.018-3.492 1.026-3.492 2.592 0 1.836 1.692 2.178 3.564 2.43 1.53.216 2.772.414 2.772 1.764 0 1.08-1.134 1.764-2.628 1.764-1.746 0-2.88-.81-2.952-2.124h-.936zM5.112 38.108c2.574 0 4.392-1.908 4.392-4.68 0-2.754-1.818-4.662-4.392-4.662-2.574 0-4.374 1.908-4.374 4.662 0 2.772 1.8 4.68 4.374 4.68zm0-.828c-2.034 0-3.438-1.584-3.438-3.852 0-2.25 1.404-3.852 3.438-3.852 2.034 0 3.438 1.602 3.438 3.852 0 2.268-1.404 3.852-3.438 3.852zm10.428-8.514c-1.674 0-2.754.864-3.276 2.052l-.144-1.944h-.792V38h.918v-4.5c0-2.376 1.206-3.888 3.15-3.888 1.764 0 2.826 1.152 2.826 3.312V38h.918v-5.112c0-2.88-1.53-4.122-3.6-4.122zm10.951-1.818c.36 0 .648-.27.648-.648a.634.634 0 00-.648-.648c-.36 0-.648.27-.648.648s.288.648.648.648zM26.023 38h.918v-9.126h-.918V38zm7.289-9.234c-1.674 0-2.754.864-3.276 2.052l-.145-1.944H29.1V38h.917v-4.5c0-2.376 1.207-3.888 3.15-3.888 1.764 0 2.826 1.152 2.826 3.312V38h.918v-5.112c0-2.88-1.53-4.122-3.6-4.122zm12.943 2.16c-.558-1.296-1.782-2.16-3.492-2.16-2.502 0-4.302 1.908-4.302 4.662 0 2.88 1.8 4.68 4.302 4.68 1.71 0 2.898-.918 3.474-2.196L46.38 38h.792V25.4h-.918v5.526zm-3.42 6.354c-2.034 0-3.438-1.584-3.438-3.852 0-2.25 1.404-3.852 3.438-3.852 2.034 0 3.438 1.602 3.438 3.87 0 2.25-1.404 3.834-3.438 3.834zM49.8 26.948c.36 0 .648-.27.648-.648a.634.634 0 00-.648-.648c-.36 0-.648.27-.648.648s.288.648.648.648zM49.332 38h.918v-9.126h-.918V38zm7.054.108c2.07 0 3.528-1.188 3.888-3.042h-.972c-.306 1.35-1.404 2.214-2.916 2.214-1.998 0-3.384-1.566-3.384-3.834s1.368-3.87 3.384-3.87c1.53 0 2.61.864 2.934 2.232h.954c-.378-1.89-1.8-3.042-3.87-3.042-2.574 0-4.338 1.908-4.338 4.68 0 2.808 1.746 4.662 4.32 4.662zm9.705 0c1.998 0 3.528-1.296 3.924-3.132h-.936c-.36 1.422-1.566 2.304-3.06 2.304-2.035 0-3.313-1.548-3.349-3.672v-.162h7.453c0-.126.017-.27.017-.378-.09-2.718-1.764-4.302-4.212-4.302-2.502 0-4.211 1.908-4.211 4.608 0 2.862 1.782 4.734 4.374 4.734zm-3.348-5.436c.143-1.854 1.53-3.096 3.203-3.096 1.782 0 3.06 1.098 3.204 3.096h-6.408zm8.78 2.52c.072 1.89 1.602 2.916 3.888 2.916 1.962 0 3.546-.99 3.546-2.61 0-1.926-1.692-2.304-3.654-2.574-1.422-.198-2.682-.36-2.682-1.638 0-1.044 1.026-1.728 2.574-1.728 1.458 0 2.502.702 2.664 1.89h.936c-.162-1.782-1.62-2.682-3.6-2.682-2.034-.018-3.492 1.026-3.492 2.592 0 1.836 1.692 2.178 3.564 2.43 1.53.216 2.772.414 2.772 1.764 0 1.08-1.134 1.764-2.628 1.764-1.746 0-2.88-.81-2.952-2.124h-.936zm12.993-5.472h1.728V38h.918v-8.28h2.736v-.846h-2.736v-1.368c0-.9.342-1.26 1.26-1.26h1.495V25.4h-1.53c-1.53 0-2.142.666-2.142 2.124v1.35h-1.729v.846zm10.22-.846c-1.692 0-2.412.81-2.79 1.818l-.144-1.818h-.792V38h.918v-4.626c0-1.854.486-3.618 2.628-3.618h.666v-.882h-.486zm5.228 9.234c2.574 0 4.392-1.908 4.392-4.68 0-2.754-1.818-4.662-4.392-4.662-2.574 0-4.374 1.908-4.374 4.662 0 2.772 1.8 4.68 4.374 4.68zm0-.828c-2.034 0-3.438-1.584-3.438-3.852 0-2.25 1.404-3.852 3.438-3.852 2.034 0 3.438 1.602 3.438 3.852 0 2.268-1.404 3.852-3.438 3.852zm16.404-8.514c-1.674 0-2.754.936-3.276 2.286-.432-1.512-1.566-2.286-3.006-2.286-1.566 0-2.502.918-2.97 2.052l-.144-1.944h-.792V38h.918v-4.644c0-2.232 1.08-3.744 2.826-3.744 1.584 0 2.574 1.116 2.574 3.222V38h.918v-4.968c.054-2.088 1.134-3.42 2.844-3.42 1.584 0 2.538 1.062 2.538 3.132V38h.936v-5.292c0-2.754-1.458-3.942-3.366-3.942zm10.039 3.222c0 3.69 1.818 6.12 4.554 6.12 2.7 0 4.536-2.43 4.536-6.12v-.576c0-3.582-1.836-6.12-4.536-6.12-2.736 0-4.554 2.538-4.554 6.12v.576zm8.136-.036c0 3.204-1.422 5.292-3.582 5.292-2.178 0-3.6-2.088-3.6-5.292v-.504c0-3.204 1.422-5.292 3.6-5.292 2.16 0 3.582 2.088 3.582 5.292v.504zm1.886 5.454c0 .414.288.684.684.684.396 0 .684-.27.684-.684 0-.414-.288-.666-.684-.666-.396 0-.684.252-.684.666zm8.464-5.94c1.422-.288 2.358-1.296 2.358-2.934 0-1.926-1.53-3.24-3.978-3.24-2.394 0-4.122 1.386-4.14 3.546h.936c.018-1.656 1.35-2.7 3.204-2.7 1.8 0 3.024.972 3.024 2.43 0 1.476-1.062 2.592-3.15 2.592h-.99v.81h1.044c2.196 0 3.438.9 3.438 2.52 0 1.638-1.44 2.772-3.384 2.772-2.034 0-3.474-1.098-3.474-2.952h-.936c0 2.376 1.728 3.798 4.356 3.798s4.392-1.476 4.392-3.564c0-1.962-1.242-2.862-2.7-3.078zm13.826-2.7c-1.71 0-2.898.918-3.474 2.196l-.144-2.088h-.792V41.6h.918v-5.706c.522 1.332 1.764 2.214 3.492 2.214 2.502 0 4.302-1.908 4.302-4.68 0-2.862-1.8-4.662-4.302-4.662zm-.072 8.514c-2.034 0-3.438-1.584-3.438-3.87 0-2.232 1.404-3.834 3.438-3.834 2.034 0 3.438 1.602 3.438 3.852 0 2.268-1.404 3.852-3.438 3.852zm10.223.828c2.574 0 4.392-1.908 4.392-4.68 0-2.754-1.818-4.662-4.392-4.662-2.574 0-4.374 1.908-4.374 4.662 0 2.772 1.8 4.68 4.374 4.68zm0-.828c-2.034 0-3.438-1.584-3.438-3.852 0-2.25 1.404-3.852 3.438-3.852 2.034 0 3.438 1.602 3.438 3.852 0 2.268-1.404 3.852-3.438 3.852zm6.684-10.332c.36 0 .648-.27.648-.648a.634.634 0 00-.648-.648c-.36 0-.648.27-.648.648s.288.648.648.648zM175.086 38h.918v-9.126h-.918V38zm7.288-9.234c-1.674 0-2.754.864-3.276 2.052l-.144-1.944h-.792V38h.918v-4.5c0-2.376 1.206-3.888 3.15-3.888 1.764 0 2.826 1.152 2.826 3.312V38h.918v-5.112c0-2.88-1.53-4.122-3.6-4.122zm6.316 7.11c0 1.458.594 2.124 2.142 2.124h1.332v-.846h-1.26c-.954 0-1.296-.36-1.296-1.296V29.72h2.466v-.846h-2.466v-2.556h-.918v2.556h-1.728v.846h1.728v6.156zm4.456-.684c.072 1.89 1.602 2.916 3.888 2.916 1.962 0 3.546-.99 3.546-2.61 0-1.926-1.692-2.304-3.654-2.574-1.422-.198-2.682-.36-2.682-1.638 0-1.044 1.026-1.728 2.574-1.728 1.458 0 2.502.702 2.664 1.89h.936c-.162-1.782-1.62-2.682-3.6-2.682-2.034-.018-3.492 1.026-3.492 2.592 0 1.836 1.692 2.178 3.564 2.43 1.53.216 2.772.414 2.772 1.764 0 1.08-1.134 1.764-2.628 1.764-1.746 0-2.88-.81-2.952-2.124h-.936z" fill="#000"/></svg>