<svg width="403" height="62" viewBox="0 0 403 62" fill="none" xmlns="http://www.w3.org/2000/svg"><path d="M3.024 55.49h.91l2.478-7.04 2.364 7.04h.909l2.974-8.38H11.8l-2.578 7.372-2.396-7.371h-.777L3.52 54.48l-2.446-7.37H.182l2.842 8.379zm14.682-8.478c-1.57 0-2.545.876-3.024 2.082V43.92h-.843V55.49h.842v-4.132c0-2.181 1.108-3.57 2.893-3.57 1.603 0 2.594 1.058 2.594 3.041v4.66h.843v-4.693c0-2.644-1.404-3.784-3.305-3.784zm8.76 8.577c1.834 0 3.239-1.19 3.603-2.876h-.86c-.33 1.306-1.438 2.116-2.81 2.116-1.867 0-3.04-1.422-3.073-3.372v-.148h6.842c0-.116.016-.248.016-.347-.082-2.496-1.62-3.95-3.867-3.95-2.297 0-3.867 1.751-3.867 4.23 0 2.628 1.636 4.347 4.016 4.347zm-3.074-4.991c.132-1.702 1.405-2.843 2.942-2.843 1.636 0 2.81 1.008 2.941 2.843h-5.883zm12.326-3.586c-1.538 0-2.53.793-3.008 1.884l-.133-1.785h-.727v8.379h.843v-4.132c0-2.181 1.107-3.57 2.892-3.57 1.62 0 2.595 1.058 2.595 3.041v4.66h.843v-4.693c0-2.644-1.405-3.784-3.306-3.784zm12.137 8.478l-.545 1.355c-.38.925-.53 1.173-1.389 1.173h-1.057v.777h1.289c1.123 0 1.388-.43 1.917-1.752l4.016-9.932h-.91l-2.858 7.288-2.909-7.288H44.5l3.355 8.379zm8.71.099c2.364 0 4.033-1.752 4.033-4.297 0-2.529-1.669-4.28-4.032-4.28-2.364 0-4.016 1.751-4.016 4.28 0 2.545 1.653 4.297 4.016 4.297zm0-.76c-1.867 0-3.156-1.455-3.156-3.537 0-2.066 1.29-3.537 3.157-3.537s3.156 1.471 3.156 3.537c0 2.082-1.289 3.537-3.156 3.537zm11.79-3.603c0 2.198-1.09 3.586-2.826 3.586-1.554 0-2.512-1.057-2.512-3.057V47.11h-.843v4.693c0 2.628 1.372 3.785 3.223 3.785 1.487 0 2.462-.793 2.941-1.868l.116 1.769h.744v-8.38h-.843v4.116zm7.91 2.314c0 1.338.545 1.95 1.966 1.95h1.223v-.777h-1.156c-.877 0-1.19-.33-1.19-1.19v-5.636h2.264v-.776h-2.264v-2.347h-.843v2.347h-1.587v.777h1.587v5.652zm7.893-6.43c-1.554 0-2.215.744-2.562 1.67l-.132-1.67h-.727v8.38h.843v-4.248c0-1.702.446-3.322 2.413-3.322h.611v-.81h-.446zm8.71 7.603c-.495 0-.743-.165-.743-.81v-3.9c0-1.917-1.173-2.991-3.272-2.991-1.917 0-3.19.925-3.405 2.446h.843c.215-1.025 1.107-1.703 2.529-1.703 1.57 0 2.462.827 2.462 2.215v.727H88.44c-2.149 0-3.306.925-3.306 2.496 0 1.487 1.174 2.396 2.959 2.396 1.702 0 2.71-.777 3.222-1.818v.297c-.033.992.38 1.422 1.372 1.422h.496v-.777h-.314zm-1.586-2.611c0 1.603-1.14 2.76-3.123 2.76-1.339 0-2.165-.678-2.165-1.719 0-1.107.826-1.719 2.38-1.719h2.908v.678zm9.741-3.107c-.512-1.19-1.636-1.983-3.206-1.983-2.297 0-3.95 1.751-3.95 4.28 0 2.644 1.653 4.297 3.95 4.297 1.57 0 2.661-.843 3.189-2.016l.133 1.917h.727V43.92h-.843v5.074zm-3.14 5.834c-1.868 0-3.157-1.455-3.157-3.537 0-2.066 1.29-3.537 3.157-3.537s3.157 1.471 3.157 3.553c0 2.066-1.29 3.52-3.157 3.52zm9.667.76c1.835 0 3.24-1.19 3.603-2.876h-.859c-.331 1.306-1.438 2.116-2.81 2.116-1.867 0-3.041-1.422-3.074-3.372v-.148h6.842c0-.116.017-.248.017-.347-.083-2.496-1.62-3.95-3.867-3.95-2.298 0-3.868 1.751-3.868 4.23 0 2.628 1.637 4.347 4.016 4.347zm-3.074-4.991c.133-1.702 1.405-2.843 2.942-2.843 1.636 0 2.81 1.008 2.942 2.843h-5.884zm12.98 4.892h1.9v-4.892h4.528v-1.636h-4.528v-3.355h5.487V43.92h-7.387V55.49zm8.001 0h2.149l2.842-4.446 2.826 4.446h2.264l-3.85-6 3.619-5.569h-2.148l-2.645 4.115-2.594-4.115h-2.248l3.619 5.652-3.834 5.917zm23.115-1.554c-.364 0-.545-.115-.545-.545v-3.388c0-2-1.29-3.074-3.537-3.074-2.132 0-3.553 1.025-3.735 2.677h1.752c.132-.743.842-1.24 1.9-1.24 1.174 0 1.851.58 1.851 1.521v.513h-2.132c-2.363 0-3.619.975-3.619 2.71 0 1.57 1.289 2.479 3.14 2.479 1.372 0 2.231-.595 2.793-1.454 0 .843.397 1.355 1.553 1.355h.943v-1.554h-.364zm-2.314-1.917c-.016 1.306-.876 2.182-2.363 2.182-.975 0-1.57-.496-1.57-1.207 0-.86.611-1.272 1.719-1.272h2.214v.297zm8.112-5.09c-1.372 0-2.182.545-2.71 1.206l-.199-1.107h-1.553v8.462h1.785v-4.264c0-1.719.843-2.76 2.264-2.76 1.338 0 2.016.86 2.016 2.462v4.562h1.802v-4.71c0-2.826-1.537-3.851-3.405-3.851zm11.392 1.273c-.545-.744-1.454-1.273-2.743-1.273-2.298 0-4 1.719-4 4.33 0 2.71 1.702 4.33 4 4.33 1.338 0 2.214-.628 2.76-1.372l.215 1.273h1.553V43.92h-1.785v4.28zm-2.446 5.883c-1.487 0-2.462-1.157-2.462-2.826 0-1.653.975-2.81 2.462-2.81 1.488 0 2.463 1.157 2.463 2.843 0 1.636-.975 2.793-2.463 2.793zm11.113-8.247c.611 0 1.091-.446 1.091-1.074 0-.628-.48-1.074-1.091-1.074-.612 0-1.091.446-1.091 1.074 0 .628.479 1.074 1.091 1.074zm-.909 9.652h1.785v-8.462h-1.785v8.462zm7.997-8.561c-1.372 0-2.182.545-2.711 1.206l-.198-1.107h-1.554v8.462h1.785v-4.264c0-1.719.843-2.76 2.264-2.76 1.339 0 2.017.86 2.017 2.462v4.562h1.801v-4.71c0-2.826-1.537-3.851-3.404-3.851zm11.392 1.273c-.546-.744-1.455-1.273-2.744-1.273-2.297 0-3.999 1.719-3.999 4.33 0 2.71 1.702 4.33 3.999 4.33 1.339 0 2.215-.628 2.76-1.372l.215 1.273h1.554V43.92h-1.785v4.28zm-2.446 5.883c-1.488 0-2.463-1.157-2.463-2.826 0-1.653.975-2.81 2.463-2.81 1.487 0 2.462 1.157 2.462 2.843 0 1.636-.975 2.793-2.462 2.793zm6.884-8.247c.611 0 1.091-.446 1.091-1.074 0-.628-.48-1.074-1.091-1.074-.612 0-1.091.446-1.091 1.074 0 .628.479 1.074 1.091 1.074zm-.909 9.652h1.785v-8.462h-1.785v8.462zm7.418.099c2.165 0 3.603-1.206 3.934-3.124h-1.885c-.214.975-.942 1.603-2.032 1.603-1.438 0-2.38-1.14-2.38-2.792 0-1.67.942-2.827 2.38-2.827 1.107 0 1.818.612 2.049 1.604h1.868c-.348-1.918-1.703-3.124-3.884-3.124-2.562 0-4.248 1.735-4.248 4.346 0 2.645 1.637 4.314 4.198 4.314zm9.316 0c2.099 0 3.52-1.273 3.817-2.942h-1.784c-.248.942-1.042 1.488-2.132 1.488-1.405 0-2.314-.942-2.364-2.38v-.116h6.38c.033-.231.049-.463.049-.678-.049-2.479-1.686-4.032-4.132-4.032-2.495 0-4.164 1.735-4.164 4.346 0 2.595 1.669 4.314 4.33 4.314zm-2.397-5.256c.133-1.206 1.108-1.966 2.248-1.966 1.24 0 2.115.71 2.264 1.966h-4.512zm7.394 2.364c.05 1.834 1.603 2.892 3.867 2.892 2.05 0 3.587-1.025 3.587-2.644 0-1.884-1.57-2.281-3.504-2.512-1.223-.133-2.033-.232-2.033-1.025 0-.678.694-1.107 1.752-1.107s1.785.545 1.884 1.322h1.752c-.116-1.735-1.587-2.694-3.669-2.694-2.033-.017-3.471 1.025-3.471 2.628 0 1.752 1.521 2.165 3.455 2.396 1.305.165 2.082.231 2.082 1.14 0 .678-.727 1.108-1.835 1.108-1.289 0-2.049-.628-2.115-1.504h-1.752zm14.035.843c0 1.338.546 1.95 1.967 1.95h1.223v-.777h-1.157c-.876 0-1.19-.33-1.19-1.19v-5.636h2.264v-.776h-2.264v-2.347h-.843v2.347h-1.586v.777h1.586v5.652zm8.34-6.528c-1.571 0-2.546.876-3.025 2.082V43.92h-.843V55.49h.843v-4.132c0-2.181 1.107-3.57 2.892-3.57 1.603 0 2.595 1.058 2.595 3.041v4.66h.843v-4.693c0-2.644-1.405-3.784-3.305-3.784zm5.616-1.67a.582.582 0 00.595-.595.582.582 0 00-.595-.595.583.583 0 00-.595.595c0 .347.265.595.595.595zm-.43 10.148h.843v-8.38h-.843v8.38zm2.445-2.578c.066 1.735 1.471 2.677 3.57 2.677 1.801 0 3.255-.909 3.255-2.396 0-1.769-1.553-2.116-3.355-2.364-1.305-.181-2.462-.33-2.462-1.504 0-.958.942-1.586 2.363-1.586 1.339 0 2.297.644 2.446 1.735h.86c-.149-1.636-1.488-2.462-3.306-2.462-1.867-.017-3.206.942-3.206 2.38 0 1.685 1.554 2 3.272 2.23 1.405.199 2.545.38 2.545 1.62 0 .992-1.041 1.62-2.412 1.62-1.604 0-2.645-.744-2.711-1.95h-.859zm19.515 2.578v-.827h-5.536V43.921h-.893V55.49h6.429zm6.927-4.264c0 2.198-1.09 3.586-2.826 3.586-1.553 0-2.512-1.057-2.512-3.057V47.11h-.843v4.693c0 2.628 1.372 3.785 3.223 3.785 1.488 0 2.463-.793 2.942-1.868l.116 1.769h.743v-8.38h-.843v4.116zm6.695-4.214c-1.537 0-2.529.793-3.008 1.884l-.132-1.785h-.727v8.379h.842v-4.132c0-2.181 1.108-3.57 2.893-3.57 1.619 0 2.594 1.058 2.594 3.041v4.66h.843v-4.693c0-2.644-1.405-3.784-3.305-3.784zm12.542 7.701c-.496 0-.744-.165-.744-.81v-3.9c0-1.917-1.174-2.991-3.272-2.991-1.918 0-3.19.925-3.405 2.446h.843c.215-1.025 1.107-1.703 2.529-1.703 1.57 0 2.462.827 2.462 2.215v.727h-2.843c-2.148 0-3.305.925-3.305 2.496 0 1.487 1.173 2.396 2.958 2.396 1.703 0 2.711-.777 3.223-1.818v.297c-.033.992.38 1.422 1.372 1.422h.496v-.777h-.314zm-1.587-2.611c0 1.603-1.14 2.76-3.124 2.76-1.338 0-2.165-.678-2.165-1.719 0-1.107.827-1.719 2.38-1.719h2.909v.678zm6.449-4.991c-1.554 0-2.215.743-2.562 1.669l-.132-1.67h-.727v8.38h.843v-4.248c0-1.702.446-3.322 2.413-3.322h.611v-.81h-.446zm7.224 8.379v-9.95l6.842 9.95h.843V43.92h-.876v9.95l-6.842-9.95h-.843V55.49h.876zm13.57.099c1.835 0 3.239-1.19 3.603-2.876h-.859c-.331 1.306-1.438 2.116-2.81 2.116-1.868 0-3.041-1.422-3.074-3.372v-.148h6.842c0-.116.017-.248.017-.347-.083-2.496-1.62-3.95-3.868-3.95-2.297 0-3.867 1.751-3.867 4.23 0 2.628 1.636 4.347 4.016 4.347zm-3.074-4.991c.132-1.702 1.405-2.843 2.942-2.843 1.636 0 2.809 1.008 2.942 2.843h-5.884zm10.233 4.892h.909l2.479-7.04 2.363 7.04h.909l2.975-8.38h-.859l-2.578 7.372-2.397-7.371h-.776l-2.529 7.37-2.446-7.37h-.892l2.842 8.379zm18.938-4.264v4.264h.892v-4.264l4.429-7.305h-1.008l-3.867 6.33-3.834-6.33h-1.041l4.429 7.305zm8.861 4.363c1.835 0 3.239-1.19 3.603-2.876h-.859c-.331 1.306-1.438 2.116-2.81 2.116-1.868 0-3.041-1.422-3.074-3.372v-.148h6.842c0-.116.017-.248.017-.347-.083-2.496-1.62-3.95-3.868-3.95-2.297 0-3.867 1.751-3.867 4.23 0 2.628 1.636 4.347 4.016 4.347zm-3.074-4.991c.132-1.702 1.405-2.843 2.942-2.843 1.636 0 2.809 1.008 2.942 2.843h-5.884zm15.83 4.115c-.496 0-.744-.165-.744-.81v-3.9c0-1.917-1.174-2.991-3.272-2.991-1.918 0-3.19.925-3.405 2.446h.843c.215-1.025 1.107-1.703 2.529-1.703 1.57 0 2.462.827 2.462 2.215v.727h-2.843c-2.148 0-3.305.925-3.305 2.496 0 1.487 1.173 2.396 2.958 2.396 1.703 0 2.711-.777 3.223-1.818v.297c-.033.992.38 1.422 1.372 1.422h.496v-.777h-.314zm-1.587-2.611c0 1.603-1.14 2.76-3.124 2.76-1.338 0-2.165-.678-2.165-1.719 0-1.107.827-1.719 2.38-1.719h2.909v.678zm6.449-4.991c-1.554 0-2.215.743-2.562 1.669l-.132-1.67h-.727v8.38h.843v-4.248c0-1.702.446-3.322 2.413-3.322h.611v-.81h-.446zm.74 7.833c0 .38.265.628.628.628.364 0 .628-.248.628-.628s-.264-.611-.628-.611c-.363 0-.628.231-.628.611zM4.445 29.918v-8.844l6.08 8.844h1.873V17.436h-2.015v8.845l-6.08-8.845H2.43v12.482h2.015zm14.364.107c2.265 0 3.798-1.373 4.12-3.174h-1.927c-.267 1.017-1.123 1.605-2.3 1.605-1.516 0-2.497-1.016-2.55-2.568v-.124h6.883c.036-.25.054-.5.054-.732-.054-2.674-1.82-4.35-4.458-4.35-2.693 0-4.494 1.872-4.494 4.69 0 2.799 1.801 4.653 4.672 4.653zm-2.586-5.67c.143-1.302 1.195-2.122 2.425-2.122 1.338 0 2.283.767 2.443 2.122h-4.868zm10.213 5.563h2.087l1.997-6.205 1.926 6.205h2.068l3.031-9.13h-1.961l-2.158 6.99-1.997-6.99h-1.765l-2.087 6.99-2.086-6.99h-2.033l2.978 9.13zm17.346-2.478c0 1.658.748 2.478 2.496 2.478h1.783v-1.694h-1.355c-.731 0-.98-.267-.98-.98v-4.761h2.228v-1.695h-2.229v-2.55h-1.944v2.55h-1.587v1.695h1.587v4.957zm10.123-6.652c-1.498 0-2.23.607-2.693 1.373l-.214-1.373h-1.712v9.13h1.926v-4.582c0-1.41.553-2.746 2.265-2.746h.856v-1.802h-.428zm9.682 7.454c-.392 0-.588-.125-.588-.588v-3.656c0-2.157-1.391-3.317-3.816-3.317-2.3 0-3.834 1.106-4.03 2.89h1.89c.142-.803.91-1.338 2.05-1.338 1.266 0 1.998.624 1.998 1.64v.553h-2.3c-2.55 0-3.906 1.052-3.906 2.925 0 1.694 1.391 2.674 3.388 2.674 1.48 0 2.407-.642 3.014-1.569 0 .91.428 1.462 1.676 1.462h1.016v-1.676h-.392zm-2.496-2.068c-.018 1.408-.946 2.354-2.55 2.354-1.052 0-1.694-.535-1.694-1.302 0-.927.66-1.373 1.854-1.373h2.39v.32zm10.804-4.12c-.588-.802-1.569-1.372-2.96-1.372-2.478 0-4.315 1.854-4.315 4.671 0 2.925 1.837 4.672 4.315 4.672 1.445 0 2.39-.677 2.978-1.48l.232 1.373h1.676V17.436h-1.926v4.619zm-2.639 6.349c-1.605 0-2.657-1.248-2.657-3.05 0-1.783 1.052-3.031 2.657-3.031s2.657 1.248 2.657 3.067c0 1.765-1.052 3.014-2.657 3.014zm10.78 1.622c2.265 0 3.799-1.373 4.12-3.174H82.23c-.268 1.017-1.124 1.605-2.3 1.605-1.516 0-2.497-1.016-2.55-2.568v-.124h6.882c.036-.25.054-.5.054-.732-.054-2.674-1.819-4.35-4.458-4.35-2.693 0-4.494 1.872-4.494 4.69 0 2.799 1.801 4.653 4.672 4.653zm-2.585-5.67c.142-1.302 1.194-2.122 2.425-2.122 1.337 0 2.282.767 2.443 2.122H77.45zm13.04-3.567c-1.498 0-2.229.607-2.692 1.373l-.214-1.373h-1.712v9.13h1.926v-4.582c0-1.41.552-2.746 2.264-2.746h.856v-1.802h-.428zm11.064-.107c-1.408 0-2.353.642-2.96 1.463v-4.708H96.67v12.482h1.676l.231-1.32c.571.821 1.552 1.427 2.978 1.427 2.497 0 4.316-1.872 4.316-4.672 0-2.942-1.819-4.672-4.316-4.672zm-.321 7.722c-1.604 0-2.656-1.266-2.656-3.067 0-1.766 1.052-3.014 2.656-3.014 1.605 0 2.675 1.248 2.675 3.031 0 1.801-1.07 3.05-2.675 3.05zm10.495 1.622c2.782 0 4.654-1.872 4.654-4.672 0-2.781-1.872-4.672-4.654-4.672s-4.654 1.89-4.654 4.672c0 2.8 1.872 4.672 4.654 4.672zm0-1.64c-1.622 0-2.675-1.266-2.675-3.032 0-1.765 1.053-3.031 2.675-3.031 1.623 0 2.693 1.266 2.693 3.031 0 1.766-1.07 3.032-2.693 3.032zm11.018-7.704c-1.481 0-2.354.589-2.925 1.302l-.214-1.195h-1.676v9.13h1.926v-4.6c0-1.855.909-2.978 2.443-2.978 1.444 0 2.175.927 2.175 2.657v4.921h1.944v-5.082c0-3.049-1.658-4.154-3.673-4.154zm11.683 4.672c0 1.89-.891 2.996-2.353 2.996-1.409 0-2.122-.91-2.122-2.692v-4.869h-1.926v5.083c0 3.12 1.658 4.154 3.602 4.154 1.408 0 2.247-.57 2.817-1.266l.214 1.16h1.694v-9.13h-1.926v4.564zm3.432 1.552c.053 1.98 1.729 3.12 4.172 3.12 2.211 0 3.87-1.105 3.87-2.853 0-2.032-1.694-2.46-3.78-2.71-1.32-.143-2.194-.25-2.194-1.106 0-.73.749-1.195 1.89-1.195 1.142 0 1.926.589 2.033 1.427h1.89c-.124-1.872-1.711-2.907-3.958-2.907-2.194-.017-3.745 1.106-3.745 2.836 0 1.89 1.641 2.336 3.727 2.585 1.409.179 2.247.25 2.247 1.23 0 .732-.785 1.195-1.98 1.195-1.391 0-2.211-.677-2.282-1.622h-1.89zm9.356-4.565c0 .713.517 1.212 1.23 1.212.714 0 1.249-.499 1.249-1.212s-.535-1.213-1.249-1.213c-.713 0-1.23.5-1.23 1.213zm0 6.473c0 .713.517 1.212 1.23 1.212.714 0 1.249-.499 1.249-1.212s-.535-1.213-1.249-1.213c-.713 0-1.23.5-1.23 1.213z" fill="#000"/><path d="M171.931 29.192c3.543 0 5.842-1.597 6.927-3.193l.32 3.001h2.841V16.773h-9.705v3.097h6.193v.543c-.191 3.607-2.969 5.554-6.416 5.554-4.278 0-6.96-3.352-6.96-8.14 0-4.789 2.746-8.14 6.991-8.14 3.097 0 5.236 1.723 5.906 4.564h3.799c-.67-4.724-4.437-7.79-9.609-7.79-6.64 0-10.854 4.566-10.854 11.366s4.31 11.364 10.567 11.364zm21.582 0c4.054 0 6.8-2.459 7.374-5.683h-3.448c-.478 1.82-2.011 2.873-4.118 2.873-2.713 0-4.469-1.82-4.565-4.597v-.223h12.323c.064-.447.096-.894.096-1.31-.096-4.788-3.257-7.788-7.981-7.788-4.821 0-8.045 3.351-8.045 8.396 0 5.012 3.224 8.332 8.364 8.332zm-4.629-10.152c.255-2.33 2.139-3.8 4.342-3.8 2.394 0 4.086 1.374 4.373 3.8h-8.715zm16.134 5.523c0 2.969 1.341 4.437 4.47 4.437h3.192v-3.033h-2.426c-1.309 0-1.756-.479-1.756-1.756v-8.523h3.99v-3.033h-3.99V8.09h-3.48v4.565h-2.841v3.033h2.841v8.875zm27.505-8.428c-3.512-.607-5.81-1.086-5.81-3.384 0-2.107 1.755-3.193 4.277-3.193 2.714 0 4.502 1.533 4.789 3.8h3.671c-.128-3.608-2.586-6.162-6.608-6.768V3.206h-3.097v3.32c-4.054.415-6.704 2.937-6.704 6.48 0 4.438 3.512 5.619 7.215 6.257 3.544.639 5.874 1.15 5.874 3.512 0 2.139-1.915 3.32-4.565 3.32-3.129 0-5.172-1.756-5.363-4.374l-3.703-.064c.127 3.96 2.777 6.832 7.246 7.407v3.352h3.097v-3.288c4.182-.447 6.959-3.097 6.959-6.736.032-4.406-3.575-5.587-7.278-6.257zM241.692 29h15.834v-3.097h-10.822l5.938-4.948c2.714-2.266 4.725-4.341 4.725-7.661 0-4.087-2.81-6.832-7.822-6.832-4.756 0-7.821 3.096-7.821 7.342v.575h3.544v-.383c0-2.777 1.724-4.501 4.277-4.501 2.554 0 4.246 1.404 4.246 3.958 0 2.139-1.5 3.703-3.511 5.395l-8.588 7.31V29zm20.044-4.118c-1.468 0-2.426.958-2.426 2.17 0 1.373.83 2.044 1.884 2.044.383 0 .766-.096 1.053-.32.032.128.032.288.032.416 0 1.117-.798 2.362-2.809 2.394v1.851c3.16-.031 5.139-1.787 5.139-4.884 0-2.043-1.117-3.671-2.873-3.671zm16.698-7.502c2.075-.48 3.863-2.363 3.863-4.98 0-3.48-3.001-5.938-7.789-5.938-4.757 0-7.758 2.458-7.758 5.938 0 2.713 1.788 4.5 3.831 5.012-2.394.542-4.437 2.394-4.437 5.49 0 3.704 3.096 6.29 8.364 6.29 5.267 0 8.395-2.586 8.395-6.29 0-3.16-2.075-5.012-4.469-5.522zm-3.926-8.173c2.553 0 4.213 1.341 4.213 3.288 0 1.98-1.66 3.32-4.213 3.32-2.522 0-4.182-1.34-4.182-3.32 0-1.947 1.66-3.288 4.182-3.288zm0 17.271c-2.81 0-4.757-1.596-4.757-3.767 0-2.17 1.947-3.735 4.757-3.735 2.841 0 4.788 1.564 4.788 3.735 0 2.17-1.947 3.767-4.788 3.767zm22.912-9.098c2.075-.48 3.863-2.363 3.863-4.98 0-3.48-3.001-5.938-7.79-5.938-4.756 0-7.757 2.458-7.757 5.938 0 2.713 1.788 4.5 3.831 5.012-2.394.542-4.438 2.394-4.438 5.49 0 3.704 3.097 6.29 8.364 6.29 5.268 0 8.396-2.586 8.396-6.29 0-3.16-2.075-5.012-4.469-5.522zm-3.927-8.173c2.554 0 4.214 1.341 4.214 3.288 0 1.98-1.66 3.32-4.214 3.32-2.522 0-4.182-1.34-4.182-3.32 0-1.947 1.66-3.288 4.182-3.288zm0 17.271c-2.809 0-4.756-1.596-4.756-3.767 0-2.17 1.947-3.735 4.756-3.735 2.842 0 4.789 1.564 4.789 3.735 0 2.17-1.947 3.767-4.789 3.767zm22.913-9.098c2.075-.48 3.863-2.363 3.863-4.98 0-3.48-3.001-5.938-7.79-5.938-4.756 0-7.757 2.458-7.757 5.938 0 2.713 1.788 4.5 3.831 5.012-2.395.542-4.438 2.394-4.438 5.49 0 3.704 3.097 6.29 8.364 6.29 5.268 0 8.396-2.586 8.396-6.29 0-3.16-2.075-5.012-4.469-5.522zm-3.927-8.173c2.554 0 4.214 1.341 4.214 3.288 0 1.98-1.66 3.32-4.214 3.32-2.522 0-4.182-1.34-4.182-3.32 0-1.947 1.66-3.288 4.182-3.288zm0 17.271c-2.809 0-4.756-1.596-4.756-3.767 0-2.17 1.947-3.735 4.756-3.735 2.842 0 4.789 1.564 4.789 3.735 0 2.17-1.947 3.767-4.789 3.767zm26.867 2.713c4.182 0 6.959-2.33 7.598-6.033h-3.64c-.415 1.883-1.819 3.097-3.926 3.097-2.778 0-4.597-2.203-4.597-5.395 0-3.225 1.819-5.46 4.597-5.46 2.139 0 3.511 1.182 3.958 3.097h3.608c-.671-3.703-3.288-6.034-7.502-6.034-4.949 0-8.205 3.353-8.205 8.397 0 5.107 3.161 8.332 8.109 8.332zM364.523 26c-.702 0-1.054-.223-1.054-1.053V18.4c0-3.862-2.49-5.938-6.831-5.938-4.118 0-6.864 1.98-7.215 5.172h3.384c.255-1.436 1.628-2.394 3.671-2.394 2.267 0 3.576 1.117 3.576 2.937v.99h-4.119c-4.565 0-6.991 1.883-6.991 5.235 0 3.033 2.49 4.789 6.066 4.789 2.649 0 4.309-1.15 5.395-2.81 0 1.628.766 2.618 3.001 2.618h1.819v-3h-.702zm-4.469-3.703c-.032 2.522-1.692 4.214-4.565 4.214-1.884 0-3.033-.958-3.033-2.33 0-1.66 1.181-2.459 3.32-2.459h4.278v.575zm6.347 1.309c.096 3.543 3.097 5.587 7.47 5.587 3.959 0 6.928-1.98 6.928-5.108 0-3.64-3.033-4.406-6.768-4.853-2.363-.255-3.927-.447-3.927-1.979 0-1.309 1.341-2.139 3.384-2.139s3.448 1.054 3.639 2.554h3.384c-.223-3.352-3.064-5.204-7.087-5.204-3.926-.031-6.704 1.98-6.704 5.076 0 3.384 2.937 4.182 6.672 4.63 2.522.319 4.023.446 4.023 2.202 0 1.309-1.405 2.139-3.544 2.139-2.49 0-3.958-1.213-4.086-2.905h-3.384zm25.657-11.142c-2.554 0-4.118 1.15-5.14 2.554V6.653h-3.448V29h3.448v-8.268c0-3.288 1.66-5.3 4.374-5.3 2.554 0 3.926 1.66 3.926 4.757V29h3.448v-9.098c0-5.46-2.969-7.439-6.608-7.439z" fill="url(#paint0_linear_822_60)"/><defs><linearGradient id="paint0_linear_822_60" x1="403" y1="21.51" x2="160.183" y2="21.51" gradientUnits="userSpaceOnUse"><stop stop-color="#FF4343"/><stop offset=".5" stop-color="#9C0B93"/><stop offset="1" stop-color="#4C1BB7"/></linearGradient></defs></svg>