<svg width="123" height="21" viewBox="0 0 123 21" fill="none" xmlns="http://www.w3.org/2000/svg"><path d="M.517.656h2.342V7h.527V.656h2.342V.168H.517v.488zM11.85 6.551c-.273 0-.468-.059-.673-.312l-.488-.566L12.24 3.31h-.527l-1.328 2-1.522-1.786-.059-.068c1.308-.546 1.776-1.171 1.776-1.932 0-.81-.634-1.416-1.493-1.416-1.015 0-1.767.674-1.767 1.572 0 .624.215 1.015.742 1.659-1.19.508-1.669 1.21-1.669 1.981 0 1.123.888 1.738 2.001 1.738.761 0 1.425-.342 1.981-.996l.479.566c.234.283.556.371.927.371h.683v-.449h-.615zM9.05.539c.605 0 1.025.42 1.025.995 0 .664-.459 1.142-1.533 1.61-.497-.595-.702-.936-.702-1.473 0-.654.497-1.132 1.21-1.132zm-.644 6.07c-.86 0-1.503-.487-1.503-1.327 0-.712.4-1.151 1.415-1.64l.146.166 1.62 1.913c-.458.576-1.034.889-1.678.889zm8.07.45c1.464 0 2.499-.791 2.792-2.167h-.557c-.293 1.093-1.083 1.679-2.245 1.679-1.58 0-2.576-1.24-2.576-2.987S14.904.597 16.485.597c1.142 0 1.942.596 2.245 1.67h.556C18.984.9 17.95.108 16.514.108c-1.922 0-3.172 1.425-3.172 3.475 0 2.07 1.22 3.475 3.133 3.475zm3.585-1.582c.039 1.025.868 1.582 2.108 1.582 1.064 0 1.922-.537 1.922-1.416 0-1.044-.917-1.249-1.98-1.395-.772-.108-1.455-.196-1.455-.888 0-.567.556-.937 1.396-.937.79 0 1.356.38 1.444 1.024h.508c-.088-.966-.879-1.454-1.952-1.454-1.103-.01-1.894.556-1.894 1.406 0 .995.918 1.18 1.933 1.317.83.117 1.503.225 1.503.957 0 .585-.615.956-1.425.956-.947 0-1.562-.44-1.6-1.152h-.508zm11.964 1.064c-.293 0-.44-.097-.44-.478V3.76c0-1.132-.692-1.767-1.932-1.767-1.132 0-1.884.547-2.01 1.445h.497c.127-.606.654-1.006 1.494-1.006.927 0 1.454.488 1.454 1.308v.43h-1.679c-1.269 0-1.952.546-1.952 1.473 0 .879.693 1.416 1.747 1.416 1.005 0 1.6-.46 1.903-1.074v.176c-.02.585.225.839.81.839h.293v-.459h-.185zM31.087 5c0 .947-.674 1.63-1.845 1.63-.79 0-1.278-.4-1.278-1.015 0-.654.488-1.015 1.405-1.015h1.718v.4zm4.179-3.006c-.927 0-1.571.498-1.884 1.19l-.078-1.131h-.43v6.9h.499V5.858c.283.722.956 1.2 1.893 1.2 1.357 0 2.333-1.034 2.333-2.537 0-1.552-.976-2.528-2.333-2.528zm-.039 4.617c-1.103 0-1.864-.86-1.864-2.099 0-1.21.761-2.079 1.864-2.079 1.103 0 1.864.869 1.864 2.089 0 1.23-.761 2.089-1.864 2.089zm5.748-4.617c-.927 0-1.571.498-1.883 1.19l-.078-1.131h-.43v6.9h.498V5.858c.283.722.956 1.2 1.893 1.2 1.357 0 2.333-1.034 2.333-2.537 0-1.552-.976-2.528-2.333-2.528zm-.039 4.617c-1.103 0-1.864-.86-1.864-2.099 0-1.21.761-2.079 1.864-2.079 1.103 0 1.864.869 1.864 2.089 0 1.23-.76 2.089-1.864 2.089zm3.357.39h.498V.168h-.498V7zm3.152 0l-.322.8c-.225.547-.313.693-.82.693h-.625v.459h.762c.663 0 .82-.254 1.132-1.035l2.371-5.865h-.536l-1.689 4.304L46 2.052h-.536L47.444 7zm2.718-.322c0 .224.156.37.371.37s.37-.146.37-.37c0-.225-.155-.361-.37-.361s-.37.136-.37.36zM4.821 19v-.488H1.55v-6.344h-.527V19h3.797zm2.657.059c1.395 0 2.381-1.035 2.381-2.538 0-1.493-.986-2.528-2.381-2.528-1.396 0-2.372 1.035-2.372 2.528 0 1.503.976 2.538 2.372 2.538zm0-.45c-1.103 0-1.865-.858-1.865-2.088 0-1.22.762-2.089 1.865-2.089s1.864.869 1.864 2.089c0 1.23-.761 2.089-1.864 2.089zm3.136-1.132c.04 1.025.869 1.582 2.108 1.582 1.064 0 1.923-.537 1.923-1.416 0-1.044-.918-1.249-1.981-1.395-.771-.108-1.454-.196-1.454-.889 0-.566.556-.936 1.395-.936.79 0 1.357.38 1.445 1.024h.507c-.088-.966-.878-1.454-1.952-1.454-1.103-.01-1.893.556-1.893 1.406 0 .995.917 1.18 1.932 1.317.83.117 1.503.225 1.503.957 0 .585-.615.956-1.425.956-.947 0-1.561-.44-1.6-1.152h-.508zm4.66 0c.04 1.025.87 1.582 2.109 1.582 1.064 0 1.923-.537 1.923-1.416 0-1.044-.918-1.249-1.982-1.395-.77-.108-1.454-.196-1.454-.889 0-.566.557-.936 1.396-.936.79 0 1.357.38 1.444 1.024h.508c-.088-.966-.878-1.454-1.952-1.454-1.103-.01-1.893.556-1.893 1.406 0 .995.917 1.18 1.932 1.317.83.117 1.503.225 1.503.957 0 .585-.615.956-1.425.956-.947 0-1.562-.44-1.6-1.152h-.508zm7.168 1.582c1.083 0 1.913-.703 2.127-1.699h-.507c-.195.771-.85 1.25-1.66 1.25-1.102 0-1.795-.84-1.815-1.991v-.088h4.04c0-.069.01-.147.01-.205-.048-1.474-.956-2.333-2.283-2.333-1.357 0-2.284 1.035-2.284 2.499 0 1.552.966 2.567 2.372 2.567zm-1.816-2.948c.078-1.005.83-1.679 1.738-1.679.966 0 1.659.596 1.737 1.679h-3.475zm4.761 1.366c.04 1.025.87 1.582 2.109 1.582 1.064 0 1.922-.537 1.922-1.416 0-1.044-.917-1.249-1.98-1.395-.772-.108-1.455-.196-1.455-.889 0-.566.556-.936 1.396-.936.79 0 1.356.38 1.444 1.024h.508c-.088-.966-.879-1.454-1.952-1.454-1.103-.01-1.894.556-1.894 1.406 0 .995.918 1.18 1.933 1.317.83.117 1.503.225 1.503.957 0 .585-.615.956-1.425.956-.947 0-1.562-.44-1.601-1.152h-.508zm9.769 1.582c1.122 0 1.913-.645 2.108-1.65h-.527c-.166.732-.762 1.2-1.581 1.2-1.084 0-1.835-.849-1.835-2.078 0-1.23.742-2.099 1.835-2.099.83 0 1.415.469 1.59 1.21h.518c-.205-1.024-.976-1.649-2.099-1.649-1.395 0-2.352 1.035-2.352 2.538 0 1.522.947 2.528 2.343 2.528zm7.428-.518c-.293 0-.439-.097-.439-.478V15.76c0-1.133-.693-1.767-1.932-1.767-1.133 0-1.884.547-2.01 1.445h.497c.127-.606.654-1.006 1.493-1.006.927 0 1.454.488 1.454 1.308v.43H39.97c-1.27 0-1.952.546-1.952 1.473 0 .879.693 1.416 1.747 1.416 1.005 0 1.6-.46 1.903-1.074v.176c-.02.585.224.839.81.839h.293v-.459h-.186zM41.647 17c0 .947-.673 1.63-1.844 1.63-.79 0-1.279-.4-1.279-1.015 0-.654.488-1.015 1.406-1.015h1.717v.4zm4.072-3.006c-.907 0-1.493.469-1.776 1.113l-.078-1.054h-.43V19h.498v-2.44c0-1.288.654-2.108 1.708-2.108.957 0 1.532.624 1.532 1.796V19h.498v-2.772c0-1.561-.83-2.235-1.952-2.235zm7.87 5.066c1.084 0 1.914-.703 2.129-1.699h-.508c-.195.771-.85 1.25-1.66 1.25-1.102 0-1.795-.84-1.815-1.991v-.088h4.041c0-.069.01-.147.01-.205-.049-1.474-.957-2.333-2.284-2.333-1.357 0-2.284 1.035-2.284 2.499 0 1.552.966 2.567 2.372 2.567zm-1.815-2.948c.078-1.005.83-1.679 1.738-1.679.966 0 1.659.596 1.737 1.679h-3.475zM56.071 19h.576l1.64-2.177L59.927 19h.604l-1.922-2.528 1.825-2.42h-.566l-1.562 2.05-1.542-2.05h-.595l1.825 2.42L56.07 19zm7.087.059c1.123 0 1.913-.645 2.109-1.65h-.527c-.166.732-.762 1.2-1.581 1.2-1.084 0-1.835-.849-1.835-2.078 0-1.23.741-2.099 1.834-2.099.83 0 1.416.469 1.591 1.21h.518c-.205-1.024-.976-1.649-2.099-1.649-1.395 0-2.352 1.035-2.352 2.538 0 1.522.947 2.528 2.342 2.528zm5.262 0c1.084 0 1.913-.703 2.128-1.699h-.507c-.196.771-.85 1.25-1.66 1.25-1.103 0-1.796-.84-1.815-1.991v-.088h4.04c0-.069.01-.147.01-.205-.048-1.474-.956-2.333-2.283-2.333-1.357 0-2.284 1.035-2.284 2.499 0 1.552.966 2.567 2.371 2.567zm-1.815-2.948c.078-1.005.83-1.679 1.737-1.679.967 0 1.66.596 1.738 1.679h-3.475zm7.181 2.948c1.084 0 1.913-.703 2.128-1.699h-.507c-.195.771-.85 1.25-1.66 1.25-1.102 0-1.795-.84-1.815-1.991v-.088h4.04c0-.069.01-.147.01-.205-.048-1.474-.956-2.333-2.283-2.333-1.357 0-2.284 1.035-2.284 2.499 0 1.552.966 2.567 2.371 2.567zm-1.815-2.948c.078-1.005.83-1.679 1.737-1.679.967 0 1.66.596 1.738 1.679H71.97zm9.036-.947c-.303-.702-.966-1.17-1.893-1.17-1.357 0-2.333 1.034-2.333 2.527 0 1.562.976 2.538 2.333 2.538.927 0 1.57-.498 1.883-1.191L81.075 19h.43v-6.832h-.498v2.996zm-1.854 3.446c-1.103 0-1.865-.86-1.865-2.089 0-1.22.762-2.089 1.865-2.089 1.102 0 1.864.869 1.864 2.099 0 1.22-.761 2.079-1.864 2.079zm10.194-3.446c-.303-.702-.966-1.17-1.894-1.17-1.356 0-2.332 1.034-2.332 2.527 0 1.562.976 2.538 2.332 2.538.928 0 1.572-.498 1.884-1.191L89.415 19h.43v-6.832h-.498v2.996zm-1.854 3.446c-1.103 0-1.865-.86-1.865-2.089 0-1.22.762-2.089 1.865-2.089 1.102 0 1.864.869 1.864 2.099 0 1.22-.762 2.079-1.864 2.079zm5.709.449c1.083 0 1.913-.703 2.127-1.699h-.507c-.195.771-.85 1.25-1.66 1.25-1.102 0-1.795-.84-1.815-1.991v-.088h4.04c0-.069.01-.147.01-.205-.048-1.474-.956-2.333-2.283-2.333-1.357 0-2.284 1.035-2.284 2.499 0 1.552.966 2.567 2.372 2.567zm-1.816-2.948c.078-1.005.83-1.679 1.738-1.679.966 0 1.659.596 1.737 1.679h-3.475zm7.387-2.118c-.927 0-1.572.498-1.884 1.19l-.078-1.131h-.43v6.9h.498v-3.094c.283.722.957 1.2 1.894 1.2 1.356 0 2.332-1.034 2.332-2.537 0-1.552-.976-2.528-2.332-2.528zm-.04 4.617c-1.102 0-1.864-.86-1.864-2.099 0-1.21.762-2.079 1.865-2.079s1.864.869 1.864 2.089c0 1.23-.761 2.089-1.864 2.089zm5.544.449c1.396 0 2.381-1.035 2.381-2.538 0-1.493-.985-2.528-2.381-2.528s-2.372 1.035-2.372 2.528c0 1.503.976 2.538 2.372 2.538zm0-.45c-1.103 0-1.864-.858-1.864-2.088 0-1.22.761-2.089 1.864-2.089 1.103 0 1.864.869 1.864 2.089 0 1.23-.761 2.089-1.864 2.089zm3.136-1.132c.039 1.025.869 1.582 2.109 1.582 1.063 0 1.922-.537 1.922-1.416 0-1.044-.917-1.249-1.981-1.395-.771-.108-1.454-.196-1.454-.889 0-.566.556-.936 1.395-.936.791 0 1.357.38 1.445 1.024h.507c-.087-.966-.878-1.454-1.952-1.454-1.102-.01-1.893.556-1.893 1.406 0 .995.917 1.18 1.933 1.317.829.117 1.503.225 1.503.957 0 .585-.615.956-1.425.956-.947 0-1.562-.44-1.601-1.152h-.508zm5.235-4.47a.344.344 0 00.351-.351.344.344 0 00-.351-.351.345.345 0 00-.352.351c0 .205.157.351.352.351zM112.394 19h.498v-4.948h-.498V19zm2.039-1.152c0 .79.322 1.152 1.161 1.152h.723v-.459h-.684c-.517 0-.702-.195-.702-.702V14.51h1.337v-.458h-1.337v-1.386h-.498v1.386h-.937v.458h.937v3.338zm2.416-.37c.039 1.024.869 1.58 2.109 1.58 1.063 0 1.922-.536 1.922-1.415 0-1.044-.917-1.249-1.981-1.395-.771-.108-1.454-.196-1.454-.889 0-.566.556-.936 1.395-.936.791 0 1.357.38 1.445 1.024h.507c-.087-.966-.878-1.454-1.952-1.454-1.102-.01-1.893.556-1.893 1.406 0 .995.917 1.18 1.932 1.317.83.117 1.504.225 1.504.957 0 .585-.615.956-1.425.956-.947 0-1.562-.44-1.601-1.152h-.508zm4.837 1.2c0 .224.156.37.37.37a.353.353 0 00.371-.37c0-.225-.156-.361-.371-.361-.214 0-.37.136-.37.36z" fill="#000"/></svg>