<svg width="575" height="107" viewBox="0 0 575 107" fill="none" xmlns="http://www.w3.org/2000/svg"><path d="M4.44 70.61h1.134l3.095-8.789 2.95 8.79h1.135l3.714-10.461h-1.072l-3.22 9.202-2.991-9.202h-.97l-3.157 9.202-3.054-9.202H.89l3.55 10.46zm18.329-10.584c-1.96 0-3.178 1.094-3.776 2.6v-6.458H17.94V70.61h1.052v-5.159c0-2.723 1.382-4.456 3.61-4.456 2.002 0 3.24 1.32 3.24 3.796v5.819h1.052v-5.86c0-3.301-1.753-4.725-4.126-4.725zm10.936 10.709c2.29 0 4.044-1.486 4.498-3.59H37.13c-.412 1.63-1.795 2.64-3.507 2.64-2.332 0-3.797-1.774-3.838-4.209v-.185h8.542c0-.145.02-.31.02-.434-.103-3.115-2.022-4.931-4.828-4.931-2.868 0-4.828 2.187-4.828 5.282 0 3.28 2.043 5.427 5.014 5.427zm-3.838-6.232c.165-2.125 1.754-3.548 3.673-3.548 2.043 0 3.508 1.258 3.673 3.548h-7.346zm15.389-4.477c-1.92 0-3.157.99-3.756 2.352l-.165-2.228h-.907v10.46h1.052v-5.157c0-2.724 1.382-4.457 3.61-4.457 2.023 0 3.24 1.32 3.24 3.796v5.819h1.052v-5.86c0-3.301-1.753-4.725-4.126-4.725zm15.153 10.585l-.681 1.692c-.475 1.155-.66 1.465-1.733 1.465h-1.32v.97h1.609c1.403 0 1.733-.537 2.393-2.188l5.014-12.4h-1.135l-3.57 9.1-3.63-9.1H56.22l4.189 10.46zm10.875.124c2.95 0 5.035-2.188 5.035-5.365 0-3.157-2.084-5.344-5.035-5.344-2.95 0-5.014 2.187-5.014 5.344 0 3.177 2.064 5.365 5.014 5.365zm0-.95c-2.331 0-3.94-1.815-3.94-4.415 0-2.58 1.609-4.416 3.94-4.416 2.332 0 3.941 1.837 3.941 4.416 0 2.6-1.61 4.415-3.94 4.415zm14.719-4.498c0 2.745-1.362 4.478-3.529 4.478-1.94 0-3.136-1.32-3.136-3.817V60.15h-1.052v5.86c0 3.28 1.712 4.725 4.023 4.725 1.857 0 3.075-.99 3.673-2.332l.144 2.208h.929V60.15h-1.052v5.137zm9.875 2.89c0 1.67.68 2.434 2.455 2.434h1.527v-.97h-1.445c-1.093 0-1.485-.413-1.485-1.486V61.12h2.827v-.97H96.93v-2.93h-1.052v2.93h-1.981v.97h1.98v7.056zm9.854-8.027c-1.94 0-2.765.928-3.198 2.084l-.165-2.084h-.908v10.46h1.052v-5.302c0-2.125.557-4.147 3.013-4.147h.763V60.15h-.557zm10.875 9.491c-.619 0-.928-.206-.928-1.01v-4.87c0-2.394-1.465-3.735-4.085-3.735-2.394 0-3.983 1.155-4.251 3.054h1.052c.269-1.28 1.383-2.125 3.157-2.125 1.96 0 3.075 1.031 3.075 2.764v.908h-3.549c-2.683 0-4.127 1.156-4.127 3.116 0 1.857 1.465 2.992 3.693 2.992 2.126 0 3.384-.97 4.024-2.27v.371c-.041 1.238.475 1.775 1.713 1.775H117v-.97h-.393zm-1.98-3.26c0 2.001-1.424 3.446-3.9 3.446-1.671 0-2.703-.846-2.703-2.146 0-1.382 1.032-2.146 2.971-2.146h3.632v.846zm12.161-3.879c-.64-1.486-2.043-2.476-4.003-2.476-2.868 0-4.931 2.187-4.931 5.344 0 3.301 2.063 5.365 4.931 5.365 1.96 0 3.322-1.053 3.982-2.518l.165 2.394h.908V56.168h-1.052v6.334zm-3.921 7.283c-2.331 0-3.941-1.815-3.941-4.415 0-2.58 1.61-4.416 3.941-4.416 2.332 0 3.941 1.837 3.941 4.437 0 2.579-1.609 4.394-3.941 4.394zm12.07.95c2.29 0 4.044-1.486 4.498-3.59h-1.073c-.412 1.63-1.795 2.64-3.507 2.64-2.332 0-3.797-1.774-3.838-4.209v-.185h8.542c0-.145.021-.31.021-.434-.104-3.115-2.023-4.931-4.829-4.931-2.868 0-4.828 2.187-4.828 5.282 0 3.28 2.043 5.427 5.014 5.427zm-3.838-6.232c.165-2.125 1.754-3.548 3.673-3.548 2.043 0 3.508 1.258 3.673 3.548h-7.346zm16.204 6.108h2.373v-6.108h5.654v-2.042h-5.654v-4.189h6.85v-2.104h-9.223V70.61zm9.99 0h2.682l3.549-5.55 3.529 5.55h2.826l-4.807-7.49 4.518-6.953h-2.682l-3.301 5.137-3.24-5.137h-2.806l4.519 7.056-4.787 7.387zm28.858-1.94c-.454 0-.681-.144-.681-.68v-4.23c0-2.497-1.609-3.838-4.415-3.838-2.662 0-4.436 1.28-4.663 3.342h2.187c.165-.928 1.052-1.547 2.373-1.547 1.465 0 2.311.722 2.311 1.898v.64h-2.662c-2.951 0-4.519 1.217-4.519 3.384 0 1.96 1.61 3.095 3.921 3.095 1.712 0 2.785-.743 3.487-1.816 0 1.052.495 1.692 1.939 1.692h1.176v-1.94h-.454zm-2.888-2.393c-.021 1.63-1.094 2.723-2.951 2.723-1.217 0-1.96-.619-1.96-1.506 0-1.073.763-1.589 2.146-1.589h2.765v.372zm10.127-6.355c-1.713 0-2.724.68-3.384 1.506l-.247-1.382h-1.94V70.61h2.228v-5.324c0-2.145 1.053-3.445 2.827-3.445 1.671 0 2.517 1.073 2.517 3.074v5.695h2.249v-5.88c0-3.529-1.918-4.808-4.25-4.808zm14.223 1.589c-.681-.929-1.816-1.59-3.425-1.59-2.868 0-4.994 2.147-4.994 5.407 0 3.384 2.126 5.406 4.994 5.406 1.671 0 2.765-.784 3.445-1.713l.269 1.589h1.939V56.168h-2.228v5.344zm-3.054 7.345c-1.857 0-3.074-1.444-3.074-3.528 0-2.064 1.217-3.508 3.074-3.508 1.857 0 3.074 1.444 3.074 3.549 0 2.043-1.217 3.487-3.074 3.487zm13.874-10.296c.763 0 1.362-.557 1.362-1.341 0-.784-.599-1.341-1.362-1.341-.764 0-1.362.557-1.362 1.34 0 .785.598 1.342 1.362 1.342zm-1.135 12.05h2.228V60.047h-2.228V70.61zm9.984-10.688c-1.713 0-2.724.68-3.384 1.506l-.248-1.382h-1.939V70.61h2.228v-5.324c0-2.145 1.052-3.445 2.827-3.445 1.671 0 2.517 1.073 2.517 3.074v5.695h2.249v-5.88c0-3.529-1.919-4.808-4.25-4.808zm14.223 1.589c-.681-.929-1.816-1.59-3.426-1.59-2.868 0-4.993 2.147-4.993 5.407 0 3.384 2.125 5.406 4.993 5.406 1.672 0 2.765-.784 3.446-1.713l.268 1.589h1.94V56.168h-2.228v5.344zm-3.054 7.345c-1.857 0-3.075-1.444-3.075-3.528 0-2.064 1.218-3.508 3.075-3.508 1.857 0 3.074 1.444 3.074 3.549 0 2.043-1.217 3.487-3.074 3.487zm8.594-10.296c.764 0 1.362-.557 1.362-1.341 0-.784-.598-1.341-1.362-1.341-.763 0-1.361.557-1.361 1.34 0 .785.598 1.342 1.361 1.342zm-1.134 12.05h2.228V60.047h-2.228V70.61zm9.261.124c2.703 0 4.498-1.507 4.911-3.9h-2.352c-.269 1.217-1.176 2.001-2.538 2.001-1.795 0-2.971-1.423-2.971-3.487 0-2.084 1.176-3.528 2.971-3.528 1.382 0 2.269.764 2.558 2.002h2.332c-.433-2.394-2.125-3.9-4.849-3.9-3.198 0-5.303 2.166-5.303 5.426 0 3.302 2.043 5.386 5.241 5.386zm11.63 0c2.621 0 4.395-1.59 4.767-3.673h-2.229c-.309 1.176-1.3 1.857-2.661 1.857-1.754 0-2.889-1.176-2.951-2.971v-.145h7.964c.042-.289.062-.577.062-.846-.062-3.095-2.104-5.034-5.158-5.034-3.116 0-5.2 2.166-5.2 5.426 0 3.24 2.084 5.386 5.406 5.386zm-2.991-6.562c.165-1.506 1.382-2.455 2.806-2.455 1.547 0 2.641.887 2.826 2.455h-5.632zm9.231 2.95c.061 2.291 2.001 3.612 4.828 3.612 2.558 0 4.477-1.28 4.477-3.302 0-2.352-1.96-2.847-4.374-3.136-1.527-.165-2.538-.289-2.538-1.28 0-.845.867-1.382 2.187-1.382 1.321 0 2.228.681 2.352 1.651h2.187c-.144-2.166-1.98-3.363-4.58-3.363-2.538-.02-4.333 1.28-4.333 3.28 0 2.188 1.898 2.703 4.312 2.992 1.63.207 2.6.29 2.6 1.424 0 .846-.908 1.382-2.29 1.382-1.61 0-2.559-.784-2.641-1.877h-2.187zm17.522 1.053c0 1.671.681 2.435 2.455 2.435h1.527v-.97h-1.444c-1.094 0-1.486-.413-1.486-1.486V61.12h2.827v-.97h-2.827v-2.93h-1.052v2.93h-1.981v.97h1.981v7.056zm10.411-8.15c-1.96 0-3.177 1.094-3.776 2.6v-6.458h-1.052V70.61h1.052v-5.159c0-2.723 1.383-4.456 3.611-4.456 2.002 0 3.24 1.32 3.24 3.796v5.819h1.052v-5.86c0-3.301-1.754-4.725-4.127-4.725zm7.013-2.084c.412 0 .742-.31.742-.743a.727.727 0 00-.742-.743.727.727 0 00-.743.743c0 .434.33.743.743.743zm-.537 12.669h1.052V60.15h-1.052v10.46zm3.052-3.219c.082 2.167 1.836 3.343 4.456 3.343 2.249 0 4.065-1.135 4.065-2.992 0-2.208-1.939-2.641-4.188-2.95-1.63-.228-3.075-.413-3.075-1.878 0-1.197 1.176-1.981 2.951-1.981 1.671 0 2.868.805 3.054 2.166h1.072c-.185-2.042-1.856-3.074-4.126-3.074-2.332-.02-4.003 1.176-4.003 2.971 0 2.105 1.94 2.497 4.085 2.786 1.754.247 3.178.474 3.178 2.022 0 1.238-1.3 2.022-3.013 2.022-2.001 0-3.301-.929-3.383-2.435h-1.073zm24.364 3.219v-1.032h-6.912V56.168h-1.114V70.61h8.026zm8.649-5.324c0 2.745-1.362 4.478-3.529 4.478-1.939 0-3.136-1.32-3.136-3.817V60.15h-1.052v5.86c0 3.28 1.712 4.725 4.023 4.725 1.857 0 3.075-.99 3.673-2.332l.144 2.208h.929V60.15h-1.052v5.137zm8.357-5.261c-1.919 0-3.157.99-3.755 2.352l-.165-2.228h-.908v10.46h1.052v-5.157c0-2.724 1.383-4.457 3.611-4.457 2.022 0 3.24 1.32 3.24 3.796v5.819H356v-5.86c0-3.301-1.754-4.725-4.127-4.725zm15.658 9.615c-.619 0-.928-.206-.928-1.01v-4.87c0-2.394-1.465-3.735-4.085-3.735-2.394 0-3.983 1.155-4.251 3.054h1.052c.269-1.28 1.383-2.125 3.157-2.125 1.96 0 3.075 1.031 3.075 2.764v.908h-3.549c-2.683 0-4.127 1.156-4.127 3.116 0 1.857 1.465 2.992 3.693 2.992 2.126 0 3.384-.97 4.024-2.27v.371c-.041 1.238.474 1.775 1.712 1.775h.619v-.97h-.392zm-1.98-3.26c0 2.001-1.424 3.446-3.9 3.446-1.671 0-2.703-.846-2.703-2.146 0-1.382 1.032-2.146 2.971-2.146h3.632v.846zm8.051-6.231c-1.94 0-2.765.928-3.198 2.084l-.165-2.084h-.908v10.46h1.052v-5.302c0-2.125.557-4.147 3.012-4.147h.764V60.15h-.557zm9.019 10.46V58.19l8.542 12.42h1.052V56.169h-1.093v12.42l-8.543-12.42h-1.052V70.61h1.094zm16.942.125c2.29 0 4.044-1.486 4.498-3.59h-1.073c-.413 1.63-1.795 2.64-3.508 2.64-2.331 0-3.796-1.774-3.838-4.209v-.185h8.543c0-.145.02-.31.02-.434-.103-3.115-2.022-4.931-4.828-4.931-2.868 0-4.828 2.187-4.828 5.282 0 3.28 2.043 5.427 5.014 5.427zm-3.838-6.232c.165-2.125 1.754-3.548 3.673-3.548 2.042 0 3.507 1.258 3.672 3.548h-7.345zm12.776 6.108h1.135l3.095-8.79 2.95 8.79h1.135l3.714-10.461h-1.073l-3.219 9.202-2.992-9.202h-.969l-3.157 9.202-3.054-9.202h-1.114l3.549 10.46zm23.643-5.324v5.324h1.114v-5.324l5.53-9.12h-1.259l-4.828 7.903-4.787-7.902h-1.3l5.53 9.12zm11.063 5.448c2.29 0 4.044-1.486 4.498-3.59h-1.073c-.413 1.63-1.795 2.64-3.508 2.64-2.331 0-3.796-1.774-3.837-4.209v-.185h8.542c0-.145.02-.31.02-.434-.103-3.115-2.022-4.931-4.828-4.931-2.868 0-4.828 2.187-4.828 5.282 0 3.28 2.043 5.427 5.014 5.427zm-3.838-6.232c.165-2.125 1.754-3.548 3.673-3.548 2.043 0 3.508 1.258 3.673 3.548h-7.346zm19.763 5.138c-.619 0-.929-.206-.929-1.01v-4.87c0-2.394-1.465-3.735-4.085-3.735-2.394 0-3.982 1.155-4.25 3.054h1.052c.268-1.28 1.382-2.125 3.157-2.125 1.96 0 3.074 1.031 3.074 2.764v.908h-3.549c-2.682 0-4.127 1.156-4.127 3.116 0 1.857 1.465 2.992 3.694 2.992 2.125 0 3.384-.97 4.023-2.27v.371c-.041 1.238.475 1.775 1.713 1.775h.619v-.97h-.392zm-1.981-3.26c0 2.001-1.424 3.446-3.9 3.446-1.671 0-2.703-.846-2.703-2.146 0-1.382 1.032-2.146 2.972-2.146h3.631v.846zm8.051-6.231c-1.939 0-2.765.928-3.198 2.084l-.165-2.084h-.908v10.46h1.052v-5.302c0-2.125.558-4.147 3.013-4.147h.763V60.15h-.557zm.925 9.78c0 .474.33.784.784.784s.784-.31.784-.784c0-.475-.33-.764-.784-.764s-.784.29-.784.764zM4.396 30.327v-12.32l8.47 12.32h2.609V12.94h-2.807v12.32l-8.47-12.32H1.59v17.387h2.806zm20.009.15c3.154 0 5.29-1.913 5.738-4.422H27.46c-.373 1.416-1.565 2.235-3.204 2.235-2.111 0-3.478-1.416-3.552-3.577v-.173h9.588c.05-.348.074-.696.074-1.019-.074-3.726-2.533-6.06-6.21-6.06-3.75 0-6.259 2.608-6.259 6.532 0 3.9 2.509 6.483 6.508 6.483zm-3.602-7.9c.199-1.813 1.664-2.956 3.378-2.956 1.863 0 3.18 1.069 3.403 2.956h-6.78zm14.226 7.75h2.906l2.782-8.644 2.683 8.644h2.881l4.223-12.718h-2.732l-3.006 9.737-2.782-9.736h-2.459l-2.906 9.736-2.906-9.736H30.88l4.148 12.717zm24.161-3.453c0 2.31 1.044 3.453 3.478 3.453h2.484v-2.36h-1.888c-1.018 0-1.366-.372-1.366-1.366V19.97h3.105v-2.36h-3.105v-3.552H59.19v3.553h-2.21v2.36h2.21v6.904zm14.102-9.264c-2.087 0-3.105.844-3.751 1.912l-.298-1.912h-2.385v12.717h2.683v-6.384c0-1.962.77-3.825 3.154-3.825h1.193V17.61h-.596zm13.487 10.382c-.547 0-.82-.174-.82-.82v-5.091c0-3.006-1.937-4.62-5.315-4.62-3.205 0-5.34 1.54-5.614 4.023h2.633c.199-1.117 1.267-1.863 2.856-1.863 1.764 0 2.782.87 2.782 2.286v.77h-3.204c-3.552 0-5.44 1.465-5.44 4.073 0 2.36 1.938 3.726 4.72 3.726 2.061 0 3.353-.894 4.198-2.186 0 1.267.596 2.037 2.334 2.037h1.416v-2.335h-.546zM83.3 25.111c-.025 1.962-1.316 3.279-3.552 3.279-1.465 0-2.36-.746-2.36-1.814 0-1.291.92-1.912 2.584-1.912H83.3v.447zm15.05-5.738c-.819-1.118-2.185-1.913-4.123-1.913-3.452 0-6.01 2.584-6.01 6.508 0 4.074 2.558 6.508 6.01 6.508 2.013 0 3.329-.944 4.149-2.062l.323 1.913h2.334V12.94h-2.682v6.433zm-3.675 8.843c-2.236 0-3.701-1.739-3.701-4.248 0-2.484 1.465-4.222 3.7-4.222 2.236 0 3.702 1.738 3.702 4.272 0 2.459-1.466 4.198-3.701 4.198zm15.016 2.26c3.154 0 5.29-1.912 5.738-4.421h-2.683c-.373 1.416-1.565 2.235-3.204 2.235-2.112 0-3.478-1.416-3.552-3.577v-.173h9.588a7.39 7.39 0 00.074-1.019c-.074-3.726-2.533-6.06-6.21-6.06-3.75 0-6.259 2.608-6.259 6.532 0 3.9 2.509 6.483 6.508 6.483zm-3.602-7.899c.199-1.813 1.664-2.956 3.378-2.956 1.863 0 3.18 1.069 3.403 2.956h-6.781zm18.165-4.968c-2.086 0-3.105.845-3.751 1.913l-.298-1.912h-2.384v12.717h2.682v-6.384c0-1.962.77-3.825 3.155-3.825h1.192V17.61h-.596zm15.412-.149c-1.962 0-3.279.895-4.123 2.037V12.94h-2.683v17.387h2.335l.323-1.838c.795 1.142 2.161 1.987 4.148 1.987 3.477 0 6.011-2.608 6.011-6.508 0-4.098-2.534-6.508-6.011-6.508zm-.447 10.756c-2.236 0-3.701-1.764-3.701-4.273 0-2.459 1.465-4.197 3.701-4.197 2.235 0 3.726 1.738 3.726 4.222 0 2.509-1.491 4.248-3.726 4.248zm14.619 2.26c3.874 0 6.483-2.608 6.483-6.508 0-3.875-2.609-6.508-6.483-6.508-3.875 0-6.483 2.633-6.483 6.508 0 3.9 2.608 6.508 6.483 6.508zm0-2.285c-2.261 0-3.726-1.764-3.726-4.223 0-2.459 1.465-4.222 3.726-4.222 2.26 0 3.75 1.763 3.75 4.222 0 2.46-1.49 4.223-3.75 4.223zm15.346-10.73c-2.061 0-3.279.82-4.073 1.813l-.299-1.665h-2.334v12.718h2.682v-6.408c0-2.584 1.267-4.149 3.403-4.149 2.012 0 3.031 1.292 3.031 3.701v6.856h2.707v-7.08c0-4.247-2.31-5.787-5.117-5.787zm16.275 6.507c0 2.633-1.242 4.173-3.279 4.173-1.962 0-2.955-1.267-2.955-3.75V17.61h-2.683v7.079c0 4.346 2.31 5.787 5.017 5.787 1.963 0 3.13-.795 3.925-1.764l.298 1.615h2.36V17.609h-2.683v6.36zm4.78 2.161c.074 2.757 2.409 4.347 5.812 4.347 3.08 0 5.39-1.54 5.39-3.974 0-2.832-2.359-3.428-5.266-3.776-1.838-.198-3.055-.347-3.055-1.54 0-1.018 1.043-1.664 2.633-1.664s2.683.82 2.832 1.987h2.633c-.174-2.608-2.385-4.049-5.515-4.049-3.055-.024-5.216 1.54-5.216 3.95 0 2.633 2.285 3.254 5.192 3.602 1.962.248 3.129.347 3.129 1.713 0 1.019-1.093 1.665-2.757 1.665-1.937 0-3.08-.944-3.179-2.26h-2.633zm13.033-6.359c0 .994.72 1.69 1.714 1.69.993 0 1.738-.696 1.738-1.69 0-.993-.745-1.689-1.738-1.689-.994 0-1.714.696-1.714 1.69zm0 9.017c0 .994.72 1.69 1.714 1.69.993 0 1.738-.696 1.738-1.69 0-.993-.745-1.689-1.738-1.689-.994 0-1.714.696-1.714 1.689z" fill="#000"/><path d="M227.053 30.54c3.937 0 6.49-1.774 7.696-3.547l.355 3.334h3.157V16.742h-10.783v3.44h6.881v.604c-.213 4.008-3.298 6.171-7.129 6.171-4.753 0-7.732-3.724-7.732-9.044s3.05-9.045 7.767-9.045c3.441 0 5.817 1.916 6.562 5.072h4.221c-.745-5.249-4.93-8.654-10.676-8.654-7.378 0-12.06 5.072-12.06 12.627 0 7.555 4.789 12.627 11.741 12.627zm23.978 0c4.505 0 7.555-2.731 8.194-6.314h-3.831c-.532 2.022-2.235 3.193-4.576 3.193-3.014 0-4.965-2.022-5.072-5.108v-.248h13.691a10.4 10.4 0 00.107-1.454c-.107-5.32-3.618-8.655-8.867-8.655-5.356 0-8.939 3.724-8.939 9.328 0 5.57 3.583 9.258 9.293 9.258zm-5.143-11.28c.284-2.588 2.377-4.22 4.824-4.22 2.66 0 4.54 1.525 4.859 4.22h-9.683zm17.926 6.137c0 3.299 1.49 4.93 4.966 4.93h3.547v-3.37h-2.696c-1.454 0-1.95-.532-1.95-1.95v-9.47h4.433v-3.37h-4.433V7.095h-3.867v5.072h-3.156v3.37h3.156v9.86zm36.624 1.596c-.78 0-1.17-.248-1.17-1.17V18.55c0-4.291-2.767-6.597-7.59-6.597-4.576 0-7.626 2.2-8.016 5.746h3.759c.284-1.596 1.809-2.66 4.079-2.66 2.518 0 3.973 1.241 3.973 3.263v1.1h-4.576c-5.072 0-7.767 2.092-7.767 5.817 0 3.37 2.766 5.32 6.739 5.32 2.944 0 4.788-1.277 5.994-3.121 0 1.808.851 2.908 3.334 2.908h2.022v-3.334h-.781zm-4.965-4.114c-.036 2.802-1.88 4.681-5.072 4.681-2.093 0-3.37-1.064-3.37-2.589 0-1.844 1.312-2.73 3.689-2.73h4.753v.638zm27.442-6.846c-3.902-.674-6.456-1.206-6.456-3.76 0-2.34 1.951-3.547 4.753-3.547 3.015 0 5.001 1.703 5.32 4.221h4.079c-.142-4.008-2.873-6.845-7.342-7.52V1.669h-3.44v3.689c-4.505.461-7.449 3.263-7.449 7.2 0 4.93 3.902 6.243 8.016 6.952 3.937.71 6.527 1.277 6.527 3.902 0 2.376-2.129 3.688-5.073 3.688-3.475 0-5.745-1.95-5.958-4.859l-4.115-.07c.142 4.397 3.086 7.59 8.052 8.228v3.724h3.44V30.47c4.647-.497 7.732-3.44 7.732-7.484.036-4.895-3.972-6.207-8.086-6.952zm10.187 14.294h17.593v-3.44h-12.024l6.597-5.498c3.015-2.518 5.25-4.824 5.25-8.513 0-4.54-3.122-7.59-8.69-7.59-5.285 0-8.69 3.44-8.69 8.158v.638h3.937v-.425c0-3.086 1.915-5.001 4.753-5.001 2.837 0 4.717 1.56 4.717 4.398 0 2.376-1.667 4.114-3.901 5.994l-9.542 8.122v3.157zm22.271-4.576c-1.632 0-2.696 1.065-2.696 2.412 0 1.526.922 2.27 2.093 2.27.425 0 .851-.106 1.17-.354.035.142.035.319.035.46 0 1.242-.886 2.625-3.121 2.661v2.057c3.512-.035 5.711-1.986 5.711-5.426 0-2.27-1.242-4.08-3.192-4.08zm18.552-8.335c2.305-.532 4.291-2.624 4.291-5.533 0-3.866-3.334-6.597-8.654-6.597-5.285 0-8.619 2.731-8.619 6.597 0 3.015 1.986 5.001 4.256 5.569-2.66.603-4.93 2.66-4.93 6.1 0 4.115 3.441 6.988 9.293 6.988 5.852 0 9.328-2.873 9.328-6.988 0-3.511-2.305-5.568-4.965-6.136zm-4.363-9.08c2.838 0 4.682 1.49 4.682 3.654 0 2.199-1.844 3.688-4.682 3.688-2.802 0-4.646-1.49-4.646-3.688 0-2.164 1.844-3.654 4.646-3.654zm0 19.189c-3.121 0-5.285-1.773-5.285-4.185s2.164-4.15 5.285-4.15c3.157 0 5.32 1.738 5.32 4.15 0 2.412-2.163 4.185-5.32 4.185zm25.457-10.109c2.306-.532 4.292-2.624 4.292-5.533 0-3.866-3.334-6.597-8.655-6.597-5.285 0-8.619 2.731-8.619 6.597 0 3.015 1.987 5.001 4.257 5.569-2.661.603-4.931 2.66-4.931 6.1 0 4.115 3.441 6.988 9.293 6.988 5.853 0 9.329-2.873 9.329-6.988 0-3.511-2.306-5.568-4.966-6.136zm-4.363-9.08c2.838 0 4.682 1.49 4.682 3.654 0 2.199-1.844 3.688-4.682 3.688-2.802 0-4.646-1.49-4.646-3.688 0-2.164 1.844-3.654 4.646-3.654zm0 19.189c-3.121 0-5.285-1.773-5.285-4.185s2.164-4.15 5.285-4.15c3.157 0 5.321 1.738 5.321 4.15 0 2.412-2.164 4.185-5.321 4.185zm25.457-10.109c2.306-.532 4.292-2.624 4.292-5.533 0-3.866-3.334-6.597-8.654-6.597-5.285 0-8.619 2.731-8.619 6.597 0 3.015 1.986 5.001 4.256 5.569-2.66.603-4.93 2.66-4.93 6.1 0 4.115 3.44 6.988 9.293 6.988 5.852 0 9.328-2.873 9.328-6.988 0-3.511-2.305-5.568-4.966-6.136zm-4.362-9.08c2.837 0 4.682 1.49 4.682 3.654 0 2.199-1.845 3.688-4.682 3.688-2.802 0-4.647-1.49-4.647-3.688 0-2.164 1.845-3.654 4.647-3.654zm0 19.189c-3.122 0-5.285-1.773-5.285-4.185s2.163-4.15 5.285-4.15c3.156 0 5.32 1.738 5.32 4.15 0 2.412-2.164 4.185-5.32 4.185zm30.701-15.358c-2.979 0-4.434 1.206-5.356 2.731l-.425-2.731h-3.405v18.16h3.83v-9.116c0-2.801 1.1-5.462 4.505-5.462h1.702v-3.582h-.851zm10.967 18.373c4.504 0 7.555-2.731 8.193-6.314h-3.83c-.532 2.022-2.235 3.193-4.576 3.193-3.015 0-4.966-2.022-5.072-5.108v-.248h13.691c.071-.497.106-.993.106-1.454-.106-5.32-3.617-8.655-8.867-8.655-5.356 0-8.938 3.724-8.938 9.328 0 5.57 3.582 9.258 9.293 9.258zm-5.143-11.28c.284-2.588 2.376-4.22 4.824-4.22 2.66 0 4.54 1.525 4.859 4.22h-9.683zm20.314 11.067h4.15l3.973-12.343 3.83 12.343h4.115l6.029-18.16h-3.901l-4.292 13.904-3.973-13.904h-3.511l-4.15 13.904-4.15-13.904h-4.043l5.923 18.16zm39.951-3.334c-.78 0-1.17-.248-1.17-1.17V18.55c0-4.291-2.767-6.597-7.591-6.597-4.575 0-7.625 2.2-8.016 5.746h3.76c.284-1.596 1.809-2.66 4.079-2.66 2.518 0 3.973 1.241 3.973 3.263v1.1H499c-5.072 0-7.768 2.092-7.768 5.817 0 3.37 2.767 5.32 6.739 5.32 2.944 0 4.789-1.277 5.995-3.121 0 1.808.851 2.908 3.334 2.908h2.022v-3.334h-.781zm-4.965-4.114c-.036 2.802-1.88 4.681-5.072 4.681-2.093 0-3.37-1.064-3.37-2.589 0-1.844 1.312-2.73 3.689-2.73h4.753v.638zm17.019-10.712c-2.98 0-4.434 1.206-5.356 2.731l-.426-2.731h-3.405v18.16h3.831v-9.116c0-2.801 1.099-5.462 4.504-5.462h1.703v-3.582h-.851zm16.145 2.518c-1.171-1.596-3.121-2.73-5.888-2.73-4.93 0-8.583 3.688-8.583 9.292 0 5.817 3.653 9.293 8.583 9.293 2.873 0 4.753-1.348 5.923-2.944l.461 2.731h3.335V5.499h-3.831v9.186zm-5.25 12.627c-3.192 0-5.284-2.483-5.284-6.065 0-3.547 2.092-6.03 5.284-6.03 3.193 0 5.285 2.483 5.285 6.1 0 3.512-2.092 5.995-5.285 5.995zm23.642-19.366l-3.902 1.88.107-4.363h-2.625l.106 4.328-3.866-1.845-1.064 2.483 4.186 1.56-2.909 3.3 2.022 1.773 2.802-3.69 2.837 3.725 2.058-1.773-2.909-3.299 4.221-1.56-1.064-2.519z" fill="url(#paint0_linear_839_869)"/><defs><linearGradient id="paint0_linear_839_869" x1="575.034" y1="18.764" x2="214" y2="18.764" gradientUnits="userSpaceOnUse"><stop stop-color="#FF4343"/><stop offset=".5" stop-color="#9C0B93"/><stop offset="1" stop-color="#4C1BB7"/></linearGradient></defs></svg>