<svg width="150" height="68" viewBox="0 0 150 68" fill="none" xmlns="http://www.w3.org/2000/svg"><g filter="url(#filter0_d_222_405)"><rect x="10.5" y="10" width="129" height="48" rx="4" fill="#fff" shape-rendering="crispEdges"/><path d="M41.859 39c.08 0 .144-.064.144-.144v-.912a.143.143 0 00-.144-.144h-4.944l-.048-4.736.048-5.12a.143.143 0 00-.144-.144h-1.232a.143.143 0 00-.144.144l.064 5.2-.064 5.712c0 .08.064.144.144.144h6.32zm7.08-2.864c-.08 0-.16.064-.175.144-.24 1.2-.976 1.84-2.192 1.84-1.616 0-2.432-1.056-2.48-3.04h6.08c.08 0 .144-.064.144-.144-.048-2.736-1.456-4.368-3.84-4.368s-3.856 1.76-3.856 4.336c0 2.512 1.376 4.288 3.936 4.288 2.112 0 3.36-1.232 3.616-2.912 0-.08-.048-.144-.128-.144H48.94zm-.191-2.08H44.14c.208-1.552.992-2.432 2.352-2.432 1.456 0 2.208 1.12 2.256 2.432zm4.39.736c0-1.792.688-3.056 2.176-3.12h.336c1.344.112 2.096 1.296 2.08 3.28-.016 2.08-.88 3.136-2.304 3.136-1.552 0-2.288-1.328-2.288-3.296zM58.978 39c.08 0 .144-.064.144-.144l-.048-4.048.048-3.904a.143.143 0 00-.144-.144h-1.184a.143.143 0 00-.144.144l.032 1.104c-.544-.912-1.424-1.408-2.592-1.408-2.176 0-3.44 1.92-3.44 4.304 0 2.384 1.184 4.256 3.408 4.256 1.2 0 2.08-.56 2.64-1.488l-.032 1.184c0 .08.064.144.144.144h1.168zm3.381 0c.08 0 .144-.064.144-.144l-.016-4.32c.176-1.808 1.376-2.656 2.768-2.656.176 0 .336.016.464.032a.12.12 0 00.144-.112v-.896c0-.08-.064-.16-.144-.176a2.217 2.217 0 00-.48-.048c-1.152 0-2.208.56-2.8 1.616l.064-1.392a.143.143 0 00-.144-.144h-1.184a.143.143 0 00-.144.144l.048 3.888-.048 4.064c0 .08.064.144.144.144h1.184zm6.25 0c.08 0 .144-.064.144-.144l-.016-3.376v-1.248c.32-1.632 1.184-2.496 2.272-2.496 1.024 0 1.744.672 1.744 2.16v1.584l-.032 3.376c0 .08.064.144.144.144h1.184c.08 0 .144-.064.144-.144l-.032-3.376v-1.648c0-2.144-1.056-3.264-2.752-3.264-1.312 0-2.24.752-2.752 1.584l.048-1.248a.143.143 0 00-.144-.144h-1.136a.143.143 0 00-.144.144l.032 4.336-.048 3.616c0 .08.064.144.144.144h1.2zm12.33-4.768c.32-1.584 1.088-2.496 2.048-2.496.976 0 1.584.624 1.584 2.16v1.888l-.032 3.072c0 .08.064.144.144.144h1.2c.08 0 .144-.064.144-.144l-.032-3.072V33.88c.352-1.36 1.088-2.144 1.968-2.144.96 0 1.584.624 1.584 2.16v1.888l-.048 3.072c0 .08.064.144.144.144h1.216c.08 0 .144-.064.144-.144l-.032-3.072v-1.952c0-2.24-.96-3.264-2.576-3.264-1.168 0-2.016.608-2.592 1.728-.368-1.184-1.2-1.728-2.384-1.728-1.232 0-2.032.72-2.544 1.584l.048-1.248a.143.143 0 00-.144-.144h-1.152a.143.143 0 00-.144.144l.032 4.88-.048 3.072c0 .08.064.144.144.144h1.232c.08 0 .144-.064.144-.144l-.048-3.072v-1.552zm19.423.64c0-2.592-1.392-4.304-3.904-4.304-2.496 0-3.904 1.728-3.904 4.336 0 2.592 1.408 4.288 3.904 4.288 2.512 0 3.904-1.728 3.904-4.32zm-6.32.032c0-2.064.784-3.248 2.416-3.264 1.6 0 2.4 1.2 2.4 3.264s-.784 3.216-2.4 3.216c-1.616 0-2.416-1.152-2.416-3.216zM103.309 39c.08 0 .144-.064.144-.144l-.016-4.32c.176-1.808 1.376-2.656 2.768-2.656.176 0 .336.016.464.032a.12.12 0 00.144-.112v-.896c0-.08-.064-.16-.144-.176a2.217 2.217 0 00-.48-.048c-1.152 0-2.208.56-2.8 1.616l.064-1.392a.143.143 0 00-.144-.144h-1.184a.143.143 0 00-.144.144l.048 3.888-.048 4.064c0 .08.064.144.144.144h1.184zm10.298-2.864c-.08 0-.16.064-.176.144-.24 1.2-.976 1.84-2.192 1.84-1.616 0-2.432-1.056-2.48-3.04h6.08c.08 0 .144-.064.144-.144-.048-2.736-1.456-4.368-3.84-4.368s-3.856 1.76-3.856 4.336c0 2.512 1.376 4.288 3.936 4.288 2.112 0 3.36-1.232 3.616-2.912 0-.08-.048-.144-.128-.144h-1.104zm-.192-2.08h-4.608c.208-1.552.992-2.432 2.352-2.432 1.456 0 2.208 1.12 2.256 2.432z" fill="url(#paint0_linear_222_405)"/></g><defs><linearGradient id="paint0_linear_222_405" x1="34.5" y1="23" x2="81.056" y2="75.528" gradientUnits="userSpaceOnUse"><stop stop-color="#0D1775"/><stop offset="1" stop-color="#1383F4"/></linearGradient><filter id="filter0_d_222_405" x=".5" y="0" width="149" height="68" filterUnits="userSpaceOnUse" color-interpolation-filters="sRGB"><feFlood flood-opacity="0" result="BackgroundImageFix"/><feColorMatrix in="SourceAlpha" values="0 0 0 0 0 0 0 0 0 0 0 0 0 0 0 0 0 0 127 0" result="hardAlpha"/><feOffset/><feGaussianBlur stdDeviation="5"/><feComposite in2="hardAlpha" operator="out"/><feColorMatrix values="0 0 0 0 0 0 0 0 0 0 0 0 0 0 0 0 0 0 0.16 0"/><feBlend in2="BackgroundImageFix" result="effect1_dropShadow_222_405"/><feBlend in="SourceGraphic" in2="effect1_dropShadow_222_405" result="shape"/></filter></defs></svg>