<svg width="105" height="20" viewBox="0 0 105 20" fill="none" xmlns="http://www.w3.org/2000/svg"><rect y=".5" width="105" height="19" rx="9.5" fill="#000"/><path d="M10.576 10.809c0 1.8.819 2.745 2.394 2.745 1.575 0 2.412-.945 2.412-2.745V7.2h-.783v3.654c0 1.305-.522 1.98-1.629 1.98-1.089 0-1.611-.675-1.611-1.98V7.2h-.783v3.609zm8.2-1.953c-.774 0-1.269.369-1.575.792l-.099-.738h-.639v6.39h.738v-2.502c.279.441.801.756 1.575.756 1.269 0 2.205-.945 2.205-2.349 0-1.494-.936-2.349-2.205-2.349zm-.072 4.041c-.9 0-1.512-.702-1.512-1.71 0-.981.612-1.674 1.512-1.674.909 0 1.521.693 1.521 1.692s-.612 1.692-1.521 1.692zm6.738-3.195c-.288-.513-.8-.846-1.575-.846-1.269 0-2.205.945-2.205 2.349 0 1.494.936 2.349 2.205 2.349.774 0 1.27-.324 1.575-.846v.54c0 .999-.522 1.449-1.485 1.449-.765 0-1.278-.324-1.404-.9h-.756c.117 1.008.936 1.557 2.106 1.557 1.575 0 2.277-.756 2.277-2.079V8.91h-.639l-.099.792zm-1.503 3.195c-.909 0-1.52-.693-1.52-1.692s.611-1.692 1.52-1.692c.9 0 1.512.702 1.512 1.71 0 .981-.612 1.674-1.512 1.674zm5.37-3.987c-.818 0-1.17.342-1.385.693l-.1-.693h-.638v4.59h.738v-2.34c0-.729.26-1.53 1.224-1.53h.369v-.72h-.207zm4.748 3.915c-.207 0-.297-.063-.297-.306v-2.007c0-1.071-.675-1.656-1.845-1.656-1.107 0-1.836.531-1.944 1.431h.738c.09-.468.522-.774 1.17-.774.72 0 1.143.36 1.143.954v.315h-1.35c-1.206 0-1.845.513-1.845 1.431 0 .837.684 1.341 1.692 1.341.792 0 1.251-.351 1.54-.765.008.45.215.711.827.711h.405v-.675h-.234zm-1.035-1.197c0 .765-.53 1.296-1.449 1.296-.612 0-.999-.306-.999-.756 0-.522.37-.765 1.026-.765h1.422v.225zm5.402-2.016c-.28-.441-.801-.756-1.575-.756-1.27 0-2.205.945-2.205 2.349 0 1.494.936 2.349 2.205 2.349.774 0 1.269-.369 1.575-.792l.099.738h.639V7.2h-.738v2.412zm-1.503 3.285c-.91 0-1.521-.693-1.521-1.692s.612-1.692 1.52-1.692c.9 0 1.513.702 1.513 1.71 0 .981-.612 1.674-1.512 1.674zm5.361.657c1.062 0 1.818-.675 1.998-1.593h-.747c-.153.594-.657.936-1.305.936-.873 0-1.422-.612-1.449-1.485v-.063h3.564c.01-.108.018-.216.018-.315-.036-1.359-.882-2.178-2.178-2.178-1.296 0-2.178.954-2.178 2.349 0 1.404.9 2.349 2.277 2.349zm-1.458-2.817a1.359 1.359 0 011.368-1.233c.765 0 1.305.441 1.377 1.233h-2.745zm8.067 2.79l-.225.558c-.171.432-.243.54-.666.54h-.657v.675h.882c.648 0 .819-.288 1.107-1.026l2.115-5.364h-.783l-1.368 3.663-1.413-3.663H47.1l1.79 4.617zm5.019.027c1.341 0 2.277-.954 2.277-2.349 0-1.395-.936-2.349-2.277-2.349-1.341 0-2.277.954-2.277 2.349 0 1.395.936 2.349 2.277 2.349zm0-.657c-.909 0-1.521-.711-1.521-1.692s.612-1.692 1.521-1.692c.909 0 1.521.711 1.521 1.692s-.612 1.692-1.521 1.692zm6.336-1.692c0 1.035-.504 1.674-1.34 1.674-.766 0-1.198-.504-1.198-1.458V8.91h-.738v2.556c0 1.521.801 2.088 1.81 2.088.755 0 1.196-.324 1.466-.666l.1.612h.638V8.91h-.738v2.295zm3.868-2.295c-.819 0-1.17.342-1.386.693l-.099-.693h-.639v4.59h.738v-2.34c0-.729.261-1.53 1.224-1.53h.37v-.72h-.208zm3.544 3.393c0 .81.316 1.197 1.198 1.197h.8v-.675h-.729c-.396 0-.53-.144-.53-.531V9.585h1.188V8.91h-1.188V7.623h-.739V8.91h-.828v.675h.829v2.718zM72.42 8.91c-.819 0-1.17.342-1.386.693l-.099-.693h-.639v4.59h.738v-2.34c0-.729.261-1.53 1.224-1.53h.369v-.72h-.207zm4.748 3.915c-.208 0-.297-.063-.297-.306v-2.007c0-1.071-.675-1.656-1.846-1.656-1.107 0-1.836.531-1.944 1.431h.739c.09-.468.522-.774 1.17-.774.72 0 1.142.36 1.142.954v.315h-1.35c-1.206 0-1.844.513-1.844 1.431 0 .837.683 1.341 1.691 1.341.792 0 1.251-.351 1.54-.765.008.45.216.711.828.711h.404v-.675h-.233zm-1.036-1.197c0 .765-.53 1.296-1.449 1.296-.612 0-.999-.306-.999-.756 0-.522.37-.765 1.026-.765h1.422v.225zm5.402-2.016c-.279-.441-.8-.756-1.575-.756-1.269 0-2.205.945-2.205 2.349 0 1.494.936 2.349 2.205 2.349.774 0 1.27-.369 1.575-.792l.1.738h.638V7.2h-.738v2.412zm-1.503 3.285c-.909 0-1.52-.693-1.52-1.692s.611-1.692 1.52-1.692c.9 0 1.512.702 1.512 1.71 0 .981-.612 1.674-1.512 1.674zm3.624-4.761c.27 0 .477-.198.477-.477a.464.464 0 00-.477-.477.464.464 0 00-.477.477c0 .279.207.477.477.477zm-.378 5.364h.738V8.91h-.738v4.59zm4-4.644c-.775 0-1.243.324-1.513.675l-.099-.621h-.639v4.59h.739v-2.295c0-1.035.522-1.674 1.385-1.674.801 0 1.242.504 1.242 1.458V13.5h.739v-2.556c0-1.521-.82-2.088-1.855-2.088zm6.412.846c-.288-.513-.8-.846-1.575-.846-1.269 0-2.205.945-2.205 2.349 0 1.494.936 2.349 2.205 2.349.774 0 1.27-.324 1.575-.846v.54c0 .999-.522 1.449-1.485 1.449-.765 0-1.278-.324-1.404-.9h-.756c.117 1.008.936 1.557 2.106 1.557 1.575 0 2.277-.756 2.277-2.079V8.91h-.639l-.099.792zm-1.503 3.195c-.909 0-1.52-.693-1.52-1.692s.611-1.692 1.52-1.692c.9 0 1.512.702 1.512 1.71 0 .981-.612 1.674-1.512 1.674z" fill="#fff"/></svg>