<svg width="90" height="12" viewBox="0 0 90 12" fill="none" xmlns="http://www.w3.org/2000/svg"><path d="M2.763 2.757a4.404 4.404 0 011.379-.988 3.962 3.962 0 011.67-.359c.653 0 1.178.084 1.574.254.397.17.78.414 1.153.734a.8.8 0 00.557.188.784.784 0 00.49-.21.615.615 0 00.203-.473c0-.09-.008-.166-.023-.233a.552.552 0 00-.09-.194.825.825 0 00-.19-.187C8.925.829 8.366.499 7.808.3 7.251.1 6.587 0 5.813 0a5.62 5.62 0 00-2.289.464 5.799 5.799 0 00-1.845 1.28A5.945 5.945 0 00.444 3.649 6.14 6.14 0 000 5.993C0 6.842.148 7.63.444 8.36c.296.73.707 1.366 1.235 1.91A5.69 5.69 0 005.813 12c.683 0 1.333-.11 1.95-.33a6.077 6.077 0 001.74-.973.766.766 0 00.24-.555c0-.22-.06-.391-.18-.517a.684.684 0 00-.444-.21c-.175-.015-.354.041-.535.172a5.623 5.623 0 01-1.318.726 4.033 4.033 0 01-1.453.262c-.593 0-1.15-.118-1.671-.352a4.327 4.327 0 01-1.379-.982 4.552 4.552 0 01-.926-1.46 4.79 4.79 0 01-.332-1.79c0-.629.11-1.22.332-1.775.22-.553.53-1.04.926-1.459zM12.817.15a.778.778 0 00-.557.217.742.742 0 00-.226.561V11.07c0 .22.074.405.226.555a.765.765 0 00.557.225c.231 0 .42-.075.564-.225a.763.763 0 00.218-.555V.928a.758.758 0 00-.218-.56.766.766 0 00-.564-.218zM23.977.15H15.92a.71.71 0 00-.52.203.7.7 0 00-.203.517c0 .21.068.382.203.518a.708.708 0 00.52.202h3.253v9.482c0 .22.075.404.226.555a.765.765 0 00.558.224.758.758 0 00.557-.224.75.75 0 00.226-.555V1.588h3.238a.71.71 0 00.52-.202.7.7 0 00.203-.518.703.703 0 00-.203-.517.713.713 0 00-.521-.2zM35.992.338a.604.604 0 00-.451-.188.791.791 0 00-.407.098.877.877 0 00-.286.276l-3.584 5.624L27.74.585a1.232 1.232 0 00-.287-.321.669.669 0 00-.406-.112.79.79 0 00-.504.173.69.69 0 00-.263.45c-.031.184.02.381.151.592l4.02 6.217v3.491c0 .22.075.404.226.555a.747.747 0 00.543.225.758.758 0 00.557-.225.75.75 0 00.226-.555V7.581l4.051-6.218c.12-.189.17-.376.151-.56a.786.786 0 00-.213-.465zM43.96.15a.778.778 0 00-.557.217.742.742 0 00-.226.561V11.07c0 .22.075.405.226.555a.765.765 0 00.558.225c.23 0 .42-.075.564-.225a.763.763 0 00.218-.555V.928a.759.759 0 00-.218-.56.767.767 0 00-.564-.218zM55.824.15a.777.777 0 00-.558.217.742.742 0 00-.226.561v8.195L48.475.435a.759.759 0 00-.603-.284.748.748 0 00-.55.216.755.755 0 00-.218.561V11.07c0 .22.074.405.218.555a.736.736 0 00.55.225c.23 0 .42-.075.564-.225a.77.77 0 00.218-.555V2.891l6.565 8.689c.07.089.163.156.278.202a.886.886 0 00.324.068c.23 0 .416-.075.557-.225a.785.785 0 00.211-.555V.928c0-.23-.07-.417-.21-.56-.137-.145-.324-.217-.555-.217z" fill="#000"/><path fill-rule="evenodd" clip-rule="evenodd" d="M66.591 1.79A5.425 5.425 0 0064.746.577C64.04.293 63.253.15 62.39.15h-2.726a.778.778 0 00-.557.217.743.743 0 00-.226.561V11.07c0 .22.075.405.226.555a.765.765 0 00.557.225h2.726c.863 0 1.649-.143 2.357-.427a5.441 5.441 0 001.845-1.213 5.404 5.404 0 001.205-1.858c.281-.713.42-1.5.42-2.36 0-.858-.139-1.642-.42-2.35A5.422 5.422 0 0066.59 1.79zm-.437 6.517a4.135 4.135 0 01-1.528 1.588c-.647.385-1.393.577-2.237.577h-1.942V1.528h1.942c.844 0 1.588.19 2.237.57.647.38 1.157.903 1.528 1.573.37.67.558 1.442.558 2.322 0 .868-.186 1.64-.558 2.314z" fill="#000"/><path d="M77.907 1.588c.23 0 .416-.065.557-.196.14-.13.212-.299.212-.51a.7.7 0 00-.212-.531c-.14-.134-.326-.202-.557-.202h-6.808a.778.778 0 00-.558.216.742.742 0 00-.225.562v10.142c0 .22.074.404.225.554a.764.764 0 00.558.225h6.808c.23 0 .416-.068.557-.202a.706.706 0 00.212-.532c0-.21-.07-.38-.212-.51-.14-.129-.326-.195-.557-.195h-6.025V6.667h4.323c.23 0 .416-.068.557-.202a.687.687 0 00.212-.518c0-.21-.07-.381-.212-.517-.14-.134-.326-.202-.557-.202h-4.323v-3.64h6.025zM86.4 5.931l3.433-4.553A.896.896 0 0090 .823a.736.736 0 00-.195-.479c-.12-.129-.286-.195-.498-.195a.728.728 0 00-.557.225L85.374 4.84 82.138.375c-.11-.15-.296-.225-.558-.225a.64.64 0 00-.504.21.855.855 0 00-.217.495c-.02.19.03.364.15.524l3.309 4.565-3.505 4.648a.862.862 0 00-.18.532c0 .194.06.365.18.509.12.146.296.217.527.217a.74.74 0 00.543-.225l3.457-4.576 3.276 4.516c.08.1.167.173.263.217a.786.786 0 00.34.068c.22 0 .393-.07.52-.21a.795.795 0 00.203-.51.81.81 0 00-.166-.54L86.4 5.93z" fill="#000"/></svg>