<svg width="137" height="79" viewBox="0 0 137 79" fill="none" xmlns="http://www.w3.org/2000/svg"><path d="M.736 8.56c.112 2.112 1.648 3.536 4.16 3.536 2.352 0 3.904-1.28 3.904-3.168 0-2.128-1.888-2.672-3.744-2.992-1.712-.288-3.2-.576-3.2-2.176 0-1.456 1.136-2.272 2.896-2.272 1.68 0 2.832.944 3.024 2.4h.88C8.496 1.968 7.04.704 4.752.704c-2.272 0-3.76 1.2-3.76 3.104 0 2.128 1.824 2.608 3.616 2.912 1.76.304 3.328.656 3.328 2.288 0 1.44-1.216 2.304-3.024 2.304-1.888 0-3.168-1.088-3.28-2.752H.736zm10.379 1.552c0 1.296.528 1.888 1.904 1.888h1.184v-.752h-1.12c-.848 0-1.152-.32-1.152-1.152V4.64h2.192v-.752H11.93V1.616h-.816v2.272H9.579v.752h1.536v5.472zm11.293 1.136c-.48 0-.72-.16-.72-.784V6.688c0-1.856-1.136-2.896-3.168-2.896-1.855 0-3.088.896-3.295 2.368h.816c.207-.992 1.072-1.648 2.447-1.648 1.52 0 2.384.8 2.384 2.144v.704H18.12c-2.08 0-3.2.896-3.2 2.416 0 1.44 1.136 2.32 2.865 2.32 1.648 0 2.623-.752 3.12-1.76v.288c-.033.96.367 1.376 1.328 1.376h.48v-.752h-.305zM20.872 8.72c0 1.552-1.104 2.672-3.023 2.672-1.297 0-2.097-.656-2.097-1.664 0-1.072.8-1.664 2.304-1.664h2.816v.656zm6.244-4.832c-1.504 0-2.144.72-2.48 1.616l-.128-1.616h-.704V12h.816V7.888c0-1.648.432-3.216 2.336-3.216h.592v-.784h-.432zm2.468 6.224c0 1.296.528 1.888 1.904 1.888h1.184v-.752h-1.12c-.848 0-1.152-.32-1.152-1.152V4.64h2.192v-.752H30.4V1.616h-.816v2.272h-1.536v.752h1.536v5.472zm9.25 0c0 1.296.528 1.888 1.904 1.888h1.184v-.752h-1.12c-.848 0-1.152-.32-1.152-1.152V4.64h2.192v-.752H39.65V1.616h-.816v2.272h-1.536v.752h1.536v5.472zm7.641-6.224c-1.504 0-2.144.72-2.48 1.616l-.128-1.616h-.704V12h.816V7.888c0-1.648.432-3.216 2.336-3.216h.592v-.784h-.432zm8.433 7.36c-.48 0-.72-.16-.72-.784V6.688c0-1.856-1.136-2.896-3.168-2.896-1.856 0-3.088.896-3.296 2.368h.817c.208-.992 1.072-1.648 2.448-1.648 1.52 0 2.384.8 2.384 2.144v.704H50.62c-2.08 0-3.2.896-3.2 2.416 0 1.44 1.136 2.32 2.864 2.32 1.648 0 2.623-.752 3.12-1.76v.288c-.032.96.367 1.376 1.328 1.376h.48v-.752h-.305zM53.373 8.72c0 1.552-1.104 2.672-3.024 2.672-1.296 0-2.096-.656-2.096-1.664 0-1.072.8-1.664 2.303-1.664h2.817v.656zm9.43-3.008c-.496-1.152-1.584-1.92-3.104-1.92-2.224 0-3.824 1.696-3.824 4.144 0 2.56 1.6 4.16 3.824 4.16 1.52 0 2.576-.816 3.088-1.952L62.915 12h.704V.8h-.816v4.912zm-3.04 5.648c-1.808 0-3.056-1.408-3.056-3.424 0-2 1.248-3.424 3.056-3.424s3.056 1.424 3.056 3.44c0 2-1.248 3.408-3.056 3.408zm6.191-9.184c.32 0 .576-.24.576-.576a.564.564 0 00-.576-.576c-.32 0-.576.24-.576.576 0 .336.256.576.576.576zM65.538 12h.816V3.888h-.816V12zm6.478-8.208c-1.488 0-2.448.768-2.912 1.824l-.127-1.728h-.705V12h.816V8c0-2.112 1.073-3.456 2.8-3.456 1.569 0 2.512 1.024 2.512 2.944V12h.816V7.456c0-2.56-1.36-3.664-3.2-3.664zM83.63 5.776c-.495-1.2-1.584-1.984-3.087-1.984-2.225 0-3.825 1.68-3.825 4.144 0 2.56 1.6 4.16 3.825 4.16 1.52 0 2.591-.8 3.103-2.064v1.44c0 2.16-1.023 3.088-2.975 3.088-1.52 0-2.577-.688-2.833-1.92h-.847c.255 1.728 1.647 2.656 3.615 2.656 2.625 0 3.857-1.248 3.857-3.792V3.888h-.704l-.129 1.888zm-3.023 5.584c-1.808 0-3.056-1.408-3.056-3.424s1.248-3.424 3.055-3.424c1.809 0 3.056 1.408 3.056 3.44 0 2-1.248 3.408-3.056 3.408zm9.351-2.304h5.984V12h.832V9.056h1.84v-.768h-1.84V.8h-.928l-5.888 7.504v.752zm5.984-7.216v6.448h-5.04l5.04-6.448zm3.854 9.04c-.432 0-.704.272-.704.624 0 .384.256.576.56.576.16 0 .32-.064.4-.192.112.112.144.272.144.416 0 .608-.384 1.232-1.2 1.264v.48c1.104-.048 1.792-.784 1.792-1.84 0-.736-.416-1.328-.992-1.328zm5.72-6.304c-1.184 0-2.24.416-2.912 1.36l.304-4.368h5.552V.8h-6.304l-.4 6.256.8.032c.48-1.312 1.824-1.76 2.848-1.76 1.792 0 2.896 1.264 2.896 2.992 0 1.984-1.424 3.008-2.96 3.008-1.824 0-2.88-1.216-3.008-2.672h-.832c.128 1.856 1.472 3.424 3.84 3.424 2.016 0 3.808-1.312 3.808-3.776 0-2.176-1.456-3.728-3.632-3.728zm4.955 2.08c0 3.28 1.616 5.44 4.048 5.44 2.4 0 4.032-2.16 4.032-5.44v-.512c0-3.184-1.632-5.44-4.032-5.44-2.432 0-4.048 2.256-4.048 5.44v.512zm7.232-.032c0 2.848-1.264 4.704-3.184 4.704-1.936 0-3.2-1.856-3.2-4.704v-.448c0-2.848 1.264-4.704 3.2-4.704 1.92 0 3.184 1.856 3.184 4.704v.448zm2.378.032c0 3.28 1.616 5.44 4.048 5.44 2.4 0 4.032-2.16 4.032-5.44v-.512c0-3.184-1.632-5.44-4.032-5.44-2.432 0-4.048 2.256-4.048 5.44v.512zm7.231-.032c0 2.848-1.263 4.704-3.183 4.704-1.936 0-3.2-1.856-3.2-4.704v-.448c0-2.848 1.264-4.704 3.2-4.704 1.92 0 3.183 1.856 3.183 4.704v.448zm5.45.432h-2.784v.688h2.784v2.928h.752V7.744h2.8v-.688h-2.8V4.128h-.752v2.928zM10.016 25.792c-1.488 0-2.448.832-2.912 2.032-.384-1.344-1.392-2.032-2.672-2.032-1.392 0-2.224.816-2.64 1.824l-.128-1.728H.96V34h.816v-4.128c0-1.984.96-3.328 2.512-3.328 1.408 0 2.288.992 2.288 2.864V34h.816v-4.416c.048-1.856 1.008-3.04 2.528-3.04 1.408 0 2.256.944 2.256 2.784V34h.832v-4.704c0-2.448-1.296-3.504-2.992-3.504zm11.94 7.456c-.48 0-.72-.16-.72-.784v-3.776c0-1.856-1.137-2.896-3.169-2.896-1.856 0-3.088.896-3.296 2.368h.816c.208-.992 1.072-1.648 2.448-1.648 1.52 0 2.384.8 2.384 2.144v.704h-2.752c-2.08 0-3.2.896-3.2 2.416 0 1.44 1.136 2.32 2.864 2.32 1.648 0 2.624-.752 3.12-1.76v.288c-.032.96.368 1.376 1.328 1.376h.48v-.752h-.304zm-1.537-2.528c0 1.552-1.104 2.672-3.024 2.672-1.296 0-2.096-.656-2.096-1.664 0-1.072.8-1.664 2.304-1.664h2.816v.656zm6.244-4.832c-1.504 0-2.144.72-2.48 1.616l-.128-1.616h-.704V34h.816v-4.112c0-1.648.432-3.216 2.336-3.216h.592v-.784h-.432zM28.303 34h.817v-2.192l1.904-1.952L34.128 34h.992l-3.536-4.736 3.264-3.376H33.84l-4.72 4.864V22.8h-.816V34zm11.053.096c1.776 0 3.136-1.152 3.488-2.784h-.831c-.32 1.264-1.392 2.048-2.72 2.048-1.809 0-2.944-1.376-2.977-3.264v-.144h6.624c0-.112.017-.24.017-.336-.08-2.416-1.569-3.824-3.745-3.824-2.224 0-3.744 1.696-3.744 4.096 0 2.544 1.584 4.208 3.888 4.208zm-2.976-4.832c.128-1.648 1.36-2.752 2.848-2.752 1.584 0 2.72.976 2.849 2.752H36.38zm8.672 2.848c0 1.296.528 1.888 1.904 1.888h1.184v-.752h-1.12c-.848 0-1.152-.32-1.152-1.152V26.64h2.192v-.752h-2.192v-2.272h-.816v2.272h-1.536v.752h1.536v5.472zm3.962-.608c.064 1.68 1.424 2.592 3.456 2.592 1.744 0 3.152-.88 3.152-2.32 0-1.712-1.504-2.048-3.248-2.288-1.264-.176-2.384-.32-2.384-1.456 0-.928.912-1.536 2.288-1.536 1.296 0 2.224.624 2.368 1.68h.832c-.144-1.584-1.44-2.384-3.2-2.384-1.808-.016-3.104.912-3.104 2.304 0 1.632 1.504 1.936 3.168 2.16 1.36.192 2.464.368 2.464 1.568 0 .96-1.008 1.568-2.336 1.568-1.552 0-2.56-.72-2.624-1.888h-.832zm21.23 1.76c-.449 0-.769-.096-1.105-.512l-.8-.928 2.544-3.872h-.864l-2.176 3.28-2.496-2.928-.096-.112c2.144-.896 2.912-1.92 2.912-3.168 0-1.328-1.04-2.32-2.448-2.32-1.664 0-2.896 1.104-2.896 2.576 0 1.024.352 1.664 1.216 2.72-1.952.832-2.736 1.984-2.736 3.248 0 1.84 1.456 2.848 3.28 2.848 1.248 0 2.336-.56 3.248-1.632l.784.928c.384.464.912.608 1.52.608h1.12v-.736h-1.008zm-4.593-9.856c.992 0 1.68.688 1.68 1.632 0 1.088-.752 1.872-2.512 2.64-.816-.976-1.152-1.536-1.152-2.416 0-1.072.816-1.856 1.984-1.856zm-1.056 9.952c-1.408 0-2.464-.8-2.464-2.176 0-1.168.656-1.888 2.32-2.688l.24.272 2.656 3.136c-.752.944-1.696 1.456-2.752 1.456zm19.223-5.584c-.496-1.2-1.584-1.984-3.088-1.984-2.224 0-3.824 1.68-3.824 4.144 0 2.56 1.6 4.16 3.824 4.16 1.52 0 2.592-.8 3.104-2.064v1.44c0 2.16-1.024 3.088-2.976 3.088-1.52 0-2.576-.688-2.832-1.92h-.848c.256 1.728 1.648 2.656 3.616 2.656 2.624 0 3.856-1.248 3.856-3.792v-7.616h-.704l-.128 1.888zm-3.024 5.584c-1.808 0-3.056-1.408-3.056-3.424s1.248-3.424 3.056-3.424 3.056 1.408 3.056 3.44c0 2-1.248 3.408-3.056 3.408zm9.36.736c1.775 0 3.135-1.152 3.487-2.784h-.832c-.32 1.264-1.392 2.048-2.72 2.048-1.808 0-2.944-1.376-2.976-3.264v-.144h6.624c0-.112.016-.24.016-.336-.08-2.416-1.568-3.824-3.744-3.824-2.224 0-3.744 1.696-3.744 4.096 0 2.544 1.584 4.208 3.888 4.208zm-2.977-4.832c.128-1.648 1.36-2.752 2.848-2.752 1.584 0 2.72.976 2.848 2.752h-5.696zm8.672 2.848c0 1.296.528 1.888 1.904 1.888h1.184v-.752h-1.12c-.848 0-1.152-.32-1.152-1.152V26.64h2.192v-.752h-2.192v-2.272h-.816v2.272h-1.536v.752h1.536v5.472zm-85.833 15.68c-1.488 0-2.448.832-2.912 2.032-.384-1.344-1.392-2.032-2.672-2.032-1.392 0-2.224.816-2.64 1.824l-.128-1.728H.96V56h.816v-4.128c0-1.984.96-3.328 2.512-3.328 1.408 0 2.288.992 2.288 2.864V56h.816v-4.416c.048-1.856 1.008-3.04 2.528-3.04 1.408 0 2.256.944 2.256 2.784V56h.832v-4.704c0-2.448-1.296-3.504-2.992-3.504zm8.262 8.304c2.288 0 3.904-1.696 3.904-4.16 0-2.448-1.616-4.144-3.904-4.144s-3.888 1.696-3.888 4.144c0 2.464 1.6 4.16 3.888 4.16zm0-.736c-1.808 0-3.056-1.408-3.056-3.424 0-2 1.248-3.424 3.056-3.424s3.056 1.424 3.056 3.424c0 2.016-1.248 3.424-3.056 3.424zm9.27-7.568c-1.488 0-2.448.768-2.912 1.824l-.128-1.728h-.704V56h.816v-4c0-2.112 1.072-3.456 2.8-3.456 1.568 0 2.512 1.024 2.512 2.944V56h.816v-4.544c0-2.56-1.36-3.664-3.2-3.664zm5.614 6.32c0 1.296.528 1.888 1.904 1.888h1.184v-.752h-1.12c-.848 0-1.152-.32-1.152-1.152V48.64h2.192v-.752h-2.192v-2.272h-.816v2.272h-1.536v.752h1.536v5.472zm8.073-6.32c-1.52 0-2.464.848-2.928 2.016V44.8h-.816V56h.816v-4c0-2.112 1.072-3.456 2.8-3.456 1.552 0 2.512 1.024 2.512 2.944V56h.816v-4.544c0-2.56-1.36-3.664-3.2-3.664zM46.257 56h.816V44.8h-.816V56zm5.166 0l-.528 1.312c-.368.896-.512 1.136-1.344 1.136h-1.024v.752h1.248c1.088 0 1.344-.416 1.856-1.696l3.888-9.616h-.88l-2.768 7.056-2.816-7.056h-.88L51.423 56zm13.042.096c1.84 0 3.136-1.056 3.456-2.704h-.864c-.272 1.2-1.248 1.968-2.592 1.968-1.776 0-3.008-1.392-3.008-3.408s1.216-3.44 3.008-3.44c1.36 0 2.32.768 2.608 1.984h.848c-.336-1.68-1.6-2.704-3.44-2.704-2.288 0-3.856 1.696-3.856 4.16 0 2.496 1.552 4.144 3.84 4.144zm12.178-.848c-.48 0-.72-.16-.72-.784v-3.776c0-1.856-1.136-2.896-3.168-2.896-1.856 0-3.088.896-3.296 2.368h.816c.208-.992 1.072-1.648 2.448-1.648 1.52 0 2.384.8 2.384 2.144v.704h-2.752c-2.08 0-3.2.896-3.2 2.416 0 1.44 1.136 2.32 2.864 2.32 1.648 0 2.624-.752 3.12-1.76v.288c-.032.96.368 1.376 1.328 1.376h.48v-.752h-.304zm-1.536-2.528c0 1.552-1.104 2.672-3.024 2.672-1.296 0-2.096-.656-2.096-1.664 0-1.072.8-1.664 2.304-1.664h2.816v.656zm2.563.784c.064 1.68 1.424 2.592 3.456 2.592 1.744 0 3.152-.88 3.152-2.32 0-1.712-1.504-2.048-3.248-2.288-1.264-.176-2.384-.32-2.384-1.456 0-.928.912-1.536 2.288-1.536 1.296 0 2.224.624 2.368 1.68h.832c-.144-1.584-1.44-2.384-3.2-2.384-1.808-.016-3.104.912-3.104 2.304 0 1.632 1.504 1.936 3.168 2.16 1.36.192 2.464.368 2.464 1.568 0 .96-1.008 1.568-2.336 1.568-1.552 0-2.56-.72-2.624-1.888h-.832zm11.909-5.712c-1.52 0-2.464.848-2.928 2.016V44.8h-.816V56h.816v-4c0-2.112 1.072-3.456 2.8-3.456 1.552 0 2.512 1.024 2.512 2.944V56h.816v-4.544c0-2.56-1.36-3.664-3.2-3.664zM4.272 69.888c-1.504 0-2.144.72-2.48 1.616l-.128-1.616H.96V78h.816v-4.112c0-1.648.432-3.216 2.336-3.216h.592v-.784h-.432zm4.647 8.208c1.776 0 3.136-1.152 3.488-2.784h-.832c-.32 1.264-1.392 2.048-2.72 2.048-1.808 0-2.944-1.376-2.976-3.264v-.144h6.624c0-.112.016-.24.016-.336-.08-2.416-1.568-3.824-3.744-3.824-2.224 0-3.744 1.696-3.744 4.096 0 2.544 1.584 4.208 3.888 4.208zm-2.976-4.832c.128-1.648 1.36-2.752 2.848-2.752 1.584 0 2.72.976 2.848 2.752H5.943zm12.109-3.472c-1.52 0-2.592.832-3.104 1.984V66.8h-.816V78h.704l.128-1.84c.48 1.168 1.568 1.936 3.088 1.936 2.224 0 3.824-1.696 3.824-4.16 0-2.544-1.6-4.144-3.824-4.144zm-.064 7.568c-1.808 0-3.056-1.408-3.056-3.44 0-1.984 1.248-3.408 3.056-3.408s3.056 1.424 3.056 3.424c0 2.016-1.248 3.424-3.056 3.424zm12.64-.112c-.48 0-.72-.16-.72-.784v-3.776c0-1.856-1.137-2.896-3.169-2.896-1.856 0-3.088.896-3.296 2.368h.816c.208-.992 1.072-1.648 2.448-1.648 1.52 0 2.384.8 2.384 2.144v.704H26.34c-2.08 0-3.2.896-3.2 2.416 0 1.44 1.136 2.32 2.864 2.32 1.648 0 2.624-.752 3.12-1.76v.288c-.032.96.368 1.376 1.328 1.376h.48v-.752h-.304zM29.09 74.72c0 1.552-1.104 2.672-3.024 2.672-1.296 0-2.096-.656-2.096-1.664 0-1.072.8-1.664 2.304-1.664h2.816v.656zm3.54 1.392c0 1.296.527 1.888 1.904 1.888h1.184v-.752h-1.12c-.848 0-1.152-.32-1.152-1.152V70.64h2.191v-.752h-2.191v-2.272h-.817v2.272h-1.536v.752h1.536v5.472zm7.663 1.984c1.776 0 3.136-1.152 3.488-2.784h-.832c-.32 1.264-1.392 2.048-2.72 2.048-1.808 0-2.944-1.376-2.976-3.264v-.144h6.624c0-.112.016-.24.016-.336-.08-2.416-1.568-3.824-3.744-3.824-2.224 0-3.744 1.696-3.744 4.096 0 2.544 1.584 4.208 3.888 4.208zm-2.976-4.832c.128-1.648 1.36-2.752 2.848-2.752 1.584 0 2.72.976 2.848 2.752h-5.696zm7.805 2.24c.064 1.68 1.424 2.592 3.456 2.592 1.744 0 3.152-.88 3.152-2.32 0-1.712-1.504-2.048-3.248-2.288-1.264-.176-2.384-.32-2.384-1.456 0-.928.912-1.536 2.288-1.536 1.296 0 2.224.624 2.368 1.68h.832c-.144-1.584-1.44-2.384-3.2-2.384-1.808-.016-3.104.912-3.104 2.304 0 1.632 1.504 1.936 3.168 2.16 1.36.192 2.464.368 2.464 1.568 0 .96-1.008 1.568-2.336 1.568-1.552 0-2.56-.72-2.624-1.888h-.832z" fill="#000"/></svg>