<svg width="161" height="16" viewBox="0 0 161 16" fill="none" xmlns="http://www.w3.org/2000/svg"><rect x="1" y="1" width="159" height="14" rx="7" fill="#fff"/><circle cx="10.426" cy="8" r="3.582" fill="#4FC706"/><path d="M16.59 10.5h1.45V8.798h.78l.81 1.702h1.593l-1.001-2.057c.496-.323.82-.874.82-1.552 0-1.158-.86-1.907-2.128-1.907h-2.325V10.5zm2.206-4.334c.472 0 .764.276.764.725 0 .45-.292.725-.764.725h-.757v-1.45h.757zm2.941 4.334h3.893V9.27h-2.443v-.96h1.883V7.16h-1.883v-.946h2.356v-1.23h-3.806V10.5zm4.563 0h1.45V8.798h.867c1.252 0 2.088-.748 2.088-1.907 0-1.158-.835-1.907-2.088-1.907H26.3V10.5zm2.183-4.334c.457 0 .748.276.748.725 0 .45-.291.725-.748.725h-.733v-1.45h.733zm8.184 1.576c0-1.6-1.127-2.805-2.789-2.805-1.663 0-2.79 1.206-2.79 2.805 0 1.6 1.127 2.805 2.79 2.805s2.79-1.205 2.79-2.805zm-4.097 0c0-.922.504-1.607 1.308-1.607s1.308.685 1.308 1.607c0 .922-.504 1.608-1.308 1.608s-1.308-.686-1.308-1.608zm4.734 2.758h1.45V8.798h.78l.811 1.702h1.592l-1-2.057c.495-.323.819-.874.819-1.552 0-1.158-.86-1.907-2.128-1.907h-2.324V10.5zm2.206-4.334c.473 0 .764.276.764.725 0 .45-.291.725-.764.725h-.756v-1.45h.756zm2.466.048h1.489V10.5h1.45V6.214h1.489v-1.23h-4.428v1.23zm4.54 2.466c0 1.142.923 1.867 2.349 1.867 1.363 0 2.245-.733 2.253-1.804.008-1.135-.78-1.41-1.749-1.6-.961-.189-1.268-.26-1.268-.59 0-.34.299-.497.693-.497.489 0 .756.276.788.646h1.41c0-1.087-.858-1.765-2.198-1.765-1.316 0-2.151.725-2.151 1.726 0 1.15.764 1.442 1.718 1.639.969.197 1.3.268 1.3.606 0 .355-.331.528-.773.528-.59 0-.93-.307-.96-.725l-1.411-.031zm7.002-3.065h1.788V10.5h.686V5.615h1.789v-.63h-4.263v.63zm6.832.82c-.678 0-1.088.33-1.324.708V4.984h-.646V10.5h.646V8.49c0-.905.465-1.465 1.213-1.465.694 0 1.096.441 1.096 1.277V10.5h.646V8.262c0-1.331-.733-1.828-1.631-1.828zm5.267 2.056c0 .906-.441 1.465-1.174 1.465-.67 0-1.048-.44-1.048-1.276V6.48h-.646V8.72c0 1.332.701 1.828 1.584 1.828.662 0 1.048-.283 1.284-.583l.087.536h.56V6.481h-.647v2.01zm3.387-2.01c-.717 0-1.025.3-1.214.607l-.086-.607h-.56V10.5h.646V8.451c0-.638.229-1.34 1.072-1.34h.323v-.63h-.181zm.49 2.695c.017.883.734 1.371 1.774 1.371.89 0 1.607-.465 1.607-1.213 0-.89-.733-1.064-1.647-1.174-.583-.071-1.008-.126-1.008-.568 0-.37.378-.606.937-.606.552 0 .93.307.977.717h.662c-.063-.835-.725-1.26-1.639-1.269-.906-.008-1.575.473-1.575 1.206 0 .835.717 1.016 1.615 1.127.599.07 1.04.11 1.04.614 0 .37-.402.615-.97.615-.669 0-1.087-.347-1.11-.82h-.662zm7.266-2.08c-.244-.386-.701-.662-1.379-.662-1.111 0-1.93.828-1.93 2.057 0 1.308.819 2.056 1.93 2.056.678 0 1.111-.323 1.379-.693l.087.646h.559V4.984h-.646v2.112zm-1.316 2.876c-.796 0-1.332-.607-1.332-1.481 0-.875.536-1.482 1.332-1.482.788 0 1.324.615 1.324 1.498 0 .858-.536 1.465-1.324 1.465zm6.396-.063c-.181 0-.26-.055-.26-.268V7.884c0-.938-.591-1.45-1.615-1.45-.97 0-1.608.465-1.703 1.253h.647c.078-.41.457-.678 1.024-.678.63 0 1 .316 1 .836v.275h-1.181c-1.056 0-1.616.45-1.616 1.253 0 .733.6 1.174 1.482 1.174.693 0 1.095-.307 1.347-.67.008.394.19.623.725.623h.355v-.591h-.205zm-.906-1.048c0 .67-.465 1.135-1.269 1.135-.536 0-.875-.268-.875-.662 0-.457.323-.67.899-.67h1.245v.197zm2.627 1.663l-.197.488c-.15.378-.212.473-.583.473h-.575v.59h.772c.568 0 .717-.251.97-.897l1.851-4.697h-.686l-1.197 3.207-1.237-3.207h-.686l1.568 4.043zm5.137-.024l.583-1.49h2.403l.583 1.49H93l-2.096-5.516h-.812L87.99 10.5h.709zm1.78-4.767l1.001 2.655h-1.993l.992-2.655zm5.077.701c-.678 0-1.112.323-1.38.694l-.086-.647h-.56v5.595h.647v-2.19c.244.386.7.661 1.379.661 1.11 0 1.93-.827 1.93-2.056 0-1.308-.82-2.057-1.93-2.057zm-.064 3.538c-.787 0-1.323-.615-1.323-1.497 0-.859.535-1.466 1.323-1.466.796 0 1.332.607 1.332 1.482 0 .874-.536 1.481-1.332 1.481zm4.592-3.49c-.717 0-1.025.299-1.214.606l-.086-.607h-.56V10.5h.646V8.451c0-.638.229-1.34 1.072-1.34h.323v-.63h-.181zm1.072-.678a.406.406 0 00.418-.418.406.406 0 00-.418-.417.406.406 0 00-.418.417c0 .245.182.418.418.418zm-.331 4.696h.646V6.481h-.646V10.5zm1.531 0h.646V4.984h-.646V10.5zm3.326 0h3.798v-.607h-2.884l1.655-1.402c.654-.56 1.189-1.08 1.189-1.907 0-.993-.693-1.647-1.883-1.647-1.111 0-1.844.74-1.844 1.78v.143h.662v-.103c0-.756.473-1.229 1.182-1.229.733 0 1.206.394 1.206 1.087 0 .6-.426 1.025-.938 1.466l-2.143 1.86v.559zm4.075-4.909h3.168l-2.703 4.909h.717l2.711-5.05v-.466h-3.893v.607zm9.073 2.94v-.545h-2.624v.544h2.624zm2.571.622h2.891V10.5h.662V9.153h.891v-.607h-.891V4.984h-.74L121.4 8.562v.59zm2.891-3.357v2.75h-2.151l2.151-2.75zm5.626 4.113c-.182 0-.26-.055-.26-.268V7.884c0-.938-.591-1.45-1.616-1.45-.969 0-1.607.465-1.702 1.253h.646c.079-.41.457-.678 1.025-.678.63 0 1 .316 1 .836v.275h-1.181c-1.056 0-1.616.45-1.616 1.253 0 .733.599 1.174 1.482 1.174.693 0 1.095-.307 1.347-.67.008.394.189.623.725.623h.354v-.591h-.204zm-.907-1.048c0 .67-.464 1.135-1.268 1.135-.536 0-.875-.268-.875-.662 0-.457.323-.67.899-.67h1.244v.197zm6.092-2.427c-.717 0-1.151.331-1.395.765-.229-.513-.709-.765-1.269-.765-.622 0-.961.308-1.174.6l-.086-.553h-.56V10.5h.646V8.38c0-.803.402-1.355 1.064-1.355.615 0 .969.41.969 1.198V10.5h.646V8.349c0-.82.41-1.324 1.08-1.324.607 0 .953.41.953 1.198V10.5h.646V8.183c0-1.268-.685-1.749-1.52-1.749zm4.285 2.262c.04 1.087.828 1.851 2.175 1.851 1.158 0 1.962-.67 1.962-1.623 0-1.071-.922-1.37-1.82-1.52-.828-.142-1.497-.276-1.497-.938 0-.591.48-.906 1.197-.906.749 0 1.261.417 1.34 1.055h.709c-.063-.992-.819-1.678-2.049-1.678-1.118 0-1.883.63-1.883 1.568 0 1.072.914 1.363 1.805 1.513.835.142 1.512.284 1.512.97 0 .598-.527.937-1.268.937-.843 0-1.418-.489-1.474-1.23h-.709zm7.394 1.851c.946 0 1.537-.449 1.789-.85l.047.803h.591V7.514h-2.324v.63h1.655v.19c0 .976-.733 1.583-1.75 1.583-1.142 0-1.899-.898-1.899-2.175 0-1.276.757-2.175 1.915-2.175.835 0 1.426.45 1.615 1.214h.733c-.189-1.135-1.111-1.844-2.332-1.844-1.6 0-2.632 1.135-2.632 2.805 0 1.67 1.064 2.805 2.592 2.805zm2.644-4.932h1.789V10.5h.685V5.615h1.789v-.63h-4.263v.63z" fill="#000"/><rect x="1" y="1" width="159" height="14" rx="7" stroke="#000" stroke-width=".716" stroke-miterlimit="0" stroke-linejoin="bevel"/></svg>