<svg width="78" height="25" viewBox="0 0 78 25" fill="none" xmlns="http://www.w3.org/2000/svg"><path d="M16.1 16.41L25.568.8H18l-5.056 8.857L7.92.8H.285L9.72 16.479v8.076h6.38v-8.144zM38.453.496c-7.025 0-12.726 5.463-12.726 12.217 0 6.719 5.701 12.183 12.726 12.183 7.025 0 12.726-5.464 12.726-12.183C51.18 5.958 45.478.495 38.453.495zm0 5.972c3.563 0 6.075 2.783 6.075 6.245 0 3.427-2.512 6.21-6.075 6.21s-6.04-2.783-6.04-6.21c0-3.462 2.477-6.245 6.04-6.245zM77.224.8H70.81v12.862c0 3.8-1.73 5.396-4.513 5.396-2.75 0-4.48-1.595-4.514-5.396V.834h-6.38v12.828c0 7.771 4.208 11.233 10.894 11.233 6.685 0 10.927-3.462 10.927-11.233V.8z" fill="#09B45B"/></svg>