<svg width="218" height="19" viewBox="0 0 218 19" fill="none" xmlns="http://www.w3.org/2000/svg"><path d="M17.344 8v-.48H15.43V3.8h-.522V8h2.436zm1.703.036c.894 0 1.518-.636 1.518-1.566s-.624-1.566-1.518-1.566-1.518.636-1.518 1.566.624 1.566 1.518 1.566zm0-.438c-.606 0-1.014-.474-1.014-1.128 0-.654.408-1.128 1.014-1.128.606 0 1.014.474 1.014 1.128 0 .654-.408 1.128-1.014 1.128zm1.944-.606c.012.672.558 1.044 1.35 1.044.678 0 1.224-.354 1.224-.924 0-.678-.558-.81-1.254-.894-.444-.054-.768-.096-.768-.432 0-.282.288-.462.714-.462.42 0 .708.234.744.546h.504c-.048-.636-.552-.96-1.248-.966-.69-.006-1.2.36-1.2.918 0 .636.546.774 1.23.858.456.054.792.084.792.468 0 .282-.306.468-.738.468-.51 0-.828-.264-.846-.624h-.504zm2.936 0c.012.672.558 1.044 1.35 1.044.678 0 1.224-.354 1.224-.924 0-.678-.558-.81-1.254-.894-.444-.054-.768-.096-.768-.432 0-.282.288-.462.714-.462.42 0 .708.234.744.546h.504c-.048-.636-.552-.96-1.248-.966-.69-.006-1.2.36-1.2.918 0 .636.546.774 1.23.858.456.054.792.084.792.468 0 .282-.306.468-.738.468-.51 0-.828-.264-.846-.624h-.504zm4.53 1.044c.708 0 1.212-.45 1.332-1.062h-.498c-.102.396-.438.624-.87.624-.582 0-.948-.408-.966-.99v-.042h2.376c.006-.072.012-.144.012-.21-.024-.906-.588-1.452-1.452-1.452s-1.452.636-1.452 1.566c0 .936.6 1.566 1.518 1.566zm-.972-1.878a.906.906 0 01.912-.822c.51 0 .87.294.918.822h-1.83zm2.782.834c.012.672.558 1.044 1.35 1.044.678 0 1.224-.354 1.224-.924 0-.678-.558-.81-1.254-.894-.444-.054-.768-.096-.768-.432 0-.282.288-.462.714-.462.42 0 .708.234.744.546h.504c-.048-.636-.552-.96-1.248-.966-.69-.006-1.2.36-1.2.918 0 .636.546.774 1.23.858.456.054.792.084.792.468 0 .282-.306.468-.738.468-.51 0-.828-.264-.846-.624h-.504zm6.064 1.044c.744 0 1.242-.42 1.362-1.08h-.522c-.096.39-.396.642-.834.642-.588 0-.984-.456-.984-1.122 0-.666.396-1.134.984-1.134.45 0 .75.246.84.654h.516c-.126-.672-.6-1.092-1.35-1.092-.888 0-1.494.636-1.494 1.572 0 .954.588 1.56 1.482 1.56zm4.607-.486c-.138 0-.198-.042-.198-.204V6.008c0-.714-.45-1.104-1.23-1.104-.737 0-1.224.354-1.295.954h.491c.06-.312.348-.516.78-.516.48 0 .763.24.763.636v.21h-.9c-.804 0-1.23.342-1.23.954 0 .558.456.894 1.127.894.529 0 .834-.234 1.026-.51.007.3.145.474.553.474h.27v-.45h-.157zm-.69-.798c0 .51-.353.864-.965.864-.409 0-.666-.204-.666-.504 0-.348.245-.51.684-.51h.947v.15zm2.725-1.848c-.516 0-.828.216-1.008.45l-.066-.414h-.426V8h.492V6.47c0-.69.348-1.116.924-1.116.534 0 .828.336.828.972V8h.492V6.296c0-1.014-.546-1.392-1.236-1.392zm4.843 3.132c.708 0 1.212-.45 1.332-1.062h-.498c-.102.396-.438.624-.87.624-.582 0-.948-.408-.966-.99v-.042h2.376c.006-.072.012-.144.012-.21-.024-.906-.588-1.452-1.452-1.452s-1.452.636-1.452 1.566c0 .936.6 1.566 1.518 1.566zm-.972-1.878a.906.906 0 01.912-.822c.51 0 .87.294.918.822h-1.83zM49.311 8h.558l.894-1.23.894 1.23h.588l-1.17-1.572 1.092-1.488h-.558l-.822 1.134-.81-1.134h-.588l1.086 1.488L49.31 8zm4.528.036c.744 0 1.242-.42 1.362-1.08h-.522c-.096.39-.396.642-.834.642-.588 0-.984-.456-.984-1.122 0-.666.396-1.134.984-1.134.45 0 .75.246.84.654h.516c-.126-.672-.6-1.092-1.35-1.092-.888 0-1.494.636-1.494 1.572 0 .954.588 1.56 1.482 1.56zm3.311 0c.708 0 1.212-.45 1.332-1.062h-.498c-.102.396-.438.624-.87.624-.582 0-.948-.408-.966-.99v-.042h2.376c.006-.072.012-.144.012-.21-.024-.906-.588-1.452-1.452-1.452s-1.452.636-1.452 1.566c0 .936.6 1.566 1.518 1.566zm-.972-1.878a.906.906 0 01.912-.822c.51 0 .87.294.918.822h-1.83zm4.33 1.878c.708 0 1.212-.45 1.332-1.062h-.498c-.102.396-.438.624-.87.624-.582 0-.948-.408-.966-.99v-.042h2.376c.006-.072.012-.144.012-.21-.024-.906-.588-1.452-1.452-1.452S58.99 5.54 58.99 6.47c0 .936.6 1.566 1.518 1.566zm-.972-1.878a.906.906 0 01.912-.822c.51 0 .87.294.918.822h-1.83zm5.331-.75c-.186-.294-.534-.504-1.05-.504-.846 0-1.47.63-1.47 1.566 0 .996.624 1.566 1.47 1.566.516 0 .846-.246 1.05-.528l.066.492h.426V3.8h-.492v1.608zm-1.002 2.19c-.606 0-1.014-.462-1.014-1.128 0-.666.408-1.128 1.014-1.128.6 0 1.008.468 1.008 1.14 0 .654-.408 1.116-1.008 1.116zm6.147-2.19c-.186-.294-.534-.504-1.05-.504-.846 0-1.47.63-1.47 1.566 0 .996.624 1.566 1.47 1.566.516 0 .846-.246 1.05-.528l.066.492h.426V3.8h-.492v1.608zm-1.002 2.19c-.606 0-1.014-.462-1.014-1.128 0-.666.408-1.128 1.014-1.128.6 0 1.008.468 1.008 1.14 0 .654-.408 1.116-1.008 1.116zm3.574.438c.708 0 1.212-.45 1.332-1.062h-.498c-.102.396-.438.624-.87.624-.582 0-.948-.408-.966-.99v-.042h2.376c.006-.072.012-.144.012-.21-.024-.906-.588-1.452-1.452-1.452s-1.452.636-1.452 1.566c0 .936.6 1.566 1.518 1.566zm-.972-1.878a.906.906 0 01.912-.822c.51 0 .87.294.918.822h-1.83zm4.461-1.254c-.516 0-.846.246-1.05.528l-.066-.492h-.426V9.2h.492V7.532c.186.294.534.504 1.05.504.846 0 1.47-.63 1.47-1.566 0-.996-.624-1.566-1.47-1.566zm-.048 2.694c-.6 0-1.008-.468-1.008-1.14 0-.654.408-1.116 1.008-1.116.606 0 1.014.462 1.014 1.128 0 .666-.408 1.128-1.014 1.128zm3.49.438c.894 0 1.519-.636 1.519-1.566s-.625-1.566-1.519-1.566c-.894 0-1.517.636-1.517 1.566s.623 1.566 1.517 1.566zm0-.438c-.606 0-1.014-.474-1.014-1.128 0-.654.408-1.128 1.014-1.128.606 0 1.014.474 1.014 1.128 0 .654-.407 1.128-1.013 1.128zm1.945-.606c.012.672.558 1.044 1.35 1.044.678 0 1.224-.354 1.224-.924 0-.678-.558-.81-1.254-.894-.444-.054-.768-.096-.768-.432 0-.282.288-.462.714-.462.42 0 .708.234.744.546h.504c-.048-.636-.552-.96-1.248-.966-.69-.006-1.2.36-1.2.918 0 .636.546.774 1.23.858.456.054.792.084.792.468 0 .282-.306.468-.738.468-.51 0-.828-.264-.846-.624h-.504zm3.372-2.568c.18 0 .318-.132.318-.318a.309.309 0 00-.318-.318.309.309 0 00-.318.318c0 .186.138.318.318.318zM84.58 8h.492V4.94h-.492V8zm1.394-.798c0 .54.21.798.798.798h.534v-.45h-.486c-.264 0-.354-.096-.354-.354V5.39h.792v-.45h-.792v-.858h-.492v.858h-.552v.45h.552v1.812zm1.632-.21c.013.672.559 1.044 1.35 1.044.678 0 1.224-.354 1.224-.924 0-.678-.558-.81-1.254-.894-.444-.054-.767-.096-.767-.432 0-.282.287-.462.713-.462.42 0 .709.234.745.546h.504c-.048-.636-.552-.96-1.248-.966-.69-.006-1.2.36-1.2.918 0 .636.546.774 1.23.858.456.054.791.084.791.468 0 .282-.306.468-.737.468-.51 0-.828-.264-.846-.624h-.505zm3.014.708c0 .204.144.336.342.336.198 0 .342-.132.342-.336 0-.204-.144-.336-.342-.336-.198 0-.342.132-.342.336zm2.65-3.42h1.362V8h.522V4.28h1.362V3.8H93.27v.48zm5.203.624c-.516 0-.828.252-1.008.54V3.8h-.492V8h.492V6.47c0-.69.354-1.116.924-1.116.528 0 .834.336.834.972V8h.492V6.296c0-1.014-.558-1.392-1.242-1.392zm2.121-.48c.18 0 .318-.132.318-.318a.309.309 0 00-.318-.318.309.309 0 00-.318.318c0 .186.138.318.318.318zM100.342 8h.492V4.94h-.492V8zm1.04-1.008c.012.672.558 1.044 1.35 1.044.678 0 1.224-.354 1.224-.924 0-.678-.558-.81-1.254-.894-.444-.054-.768-.096-.768-.432 0-.282.288-.462.714-.462.42 0 .708.234.744.546h.504c-.048-.636-.552-.96-1.248-.966-.69-.006-1.2.36-1.2.918 0 .636.546.774 1.23.858.456.054.792.084.792.468 0 .282-.306.468-.738.468-.51 0-.828-.264-.846-.624h-.504zm7.396.558c-.138 0-.198-.042-.198-.204V6.008c0-.714-.45-1.104-1.23-1.104-.738 0-1.224.354-1.296.954h.492c.06-.312.348-.516.78-.516.48 0 .762.24.762.636v.21h-.9c-.804 0-1.23.342-1.23.954 0 .558.456.894 1.128.894.528 0 .834-.234 1.026-.51.006.3.144.474.552.474h.27v-.45h-.156zm-.69-.798c0 .51-.354.864-.966.864-.408 0-.666-.204-.666-.504 0-.348.246-.51.684-.51h.948v.15zm3.601-1.344c-.186-.294-.534-.504-1.05-.504-.846 0-1.47.63-1.47 1.566 0 .996.624 1.566 1.47 1.566.516 0 .846-.246 1.05-.528l.066.492h.426V3.8h-.492v1.608zm-1.002 2.19c-.606 0-1.014-.462-1.014-1.128 0-.666.408-1.128 1.014-1.128.6 0 1.008.468 1.008 1.14 0 .654-.408 1.116-1.008 1.116zm3.005.402h.594l1.146-3.06h-.516l-.918 2.502-.924-2.502h-.528L113.692 8zm3.382.036c.708 0 1.212-.45 1.332-1.062h-.498c-.102.396-.438.624-.87.624-.582 0-.948-.408-.966-.99v-.042h2.376c.006-.072.012-.144.012-.21-.024-.906-.588-1.452-1.452-1.452s-1.452.636-1.452 1.566c0 .936.6 1.566 1.518 1.566zm-.972-1.878a.906.906 0 01.912-.822c.51 0 .87.294.918.822h-1.83zm4.336-1.218c-.546 0-.78.228-.924.462l-.066-.462h-.426V8h.492V6.44c0-.486.174-1.02.816-1.02h.246v-.48h-.138zm.892 2.262c0 .54.21.798.798.798h.534v-.45h-.486c-.264 0-.354-.096-.354-.354V5.39h.792v-.45h-.792v-.858h-.492v.858h-.552v.45h.552v1.812zm2.01-2.778c.18 0 .318-.132.318-.318a.309.309 0 00-.318-.318.309.309 0 00-.318.318c0 .186.138.318.318.318zM123.088 8h.492V4.94h-.492V8zm1.04-1.008c.012.672.558 1.044 1.35 1.044.678 0 1.224-.354 1.224-.924 0-.678-.558-.81-1.254-.894-.444-.054-.768-.096-.768-.432 0-.282.288-.462.714-.462.42 0 .708.234.744.546h.504c-.048-.636-.552-.96-1.248-.966-.69-.006-1.2.36-1.2.918 0 .636.546.774 1.23.858.456.054.792.084.792.468 0 .282-.306.468-.738.468-.51 0-.828-.264-.846-.624h-.504zm4.53 1.044c.708 0 1.212-.45 1.332-1.062h-.498c-.102.396-.438.624-.87.624-.582 0-.948-.408-.966-.99v-.042h2.376c.006-.072.012-.144.012-.21-.024-.906-.588-1.452-1.452-1.452s-1.452.636-1.452 1.566c0 .936.6 1.566 1.518 1.566zm-.972-1.878a.906.906 0 01.912-.822c.51 0 .87.294.918.822h-1.83zm6.334-1.254c-.546 0-.876.252-1.062.582-.174-.39-.54-.582-.966-.582-.474 0-.732.234-.894.456l-.066-.42h-.426V8h.492V6.386c0-.612.306-1.032.81-1.032.468 0 .738.312.738.912V8h.492V6.362c0-.624.312-1.008.822-1.008.462 0 .726.312.726.912V8h.492V6.236c0-.966-.522-1.332-1.158-1.332zm3.164 3.132c.708 0 1.212-.45 1.332-1.062h-.498c-.102.396-.438.624-.87.624-.582 0-.948-.408-.966-.99v-.042h2.376c.006-.072.012-.144.012-.21-.024-.906-.588-1.452-1.452-1.452s-1.452.636-1.452 1.566c0 .936.6 1.566 1.518 1.566zm-.972-1.878a.906.906 0 01.912-.822c.51 0 .87.294.918.822h-1.83zm4.419-1.254c-.516 0-.828.216-1.008.45l-.066-.414h-.426V8h.492V6.47c0-.69.348-1.116.924-1.116.534 0 .828.336.828.972V8h.492V6.296c0-1.014-.546-1.392-1.236-1.392zm2.091 2.298c0 .54.21.798.798.798h.534v-.45h-.486c-.264 0-.354-.096-.354-.354V5.39h.792v-.45h-.792v-.858h-.492v.858h-.552v.45h.552v1.812zm4.829-2.298c-.516 0-.828.252-1.008.54V3.8h-.492V8h.492V6.47c0-.69.354-1.116.924-1.116.528 0 .834.336.834.972V8h.492V6.296c0-1.014-.558-1.392-1.242-1.392zm4.575 2.646c-.138 0-.198-.042-.198-.204V6.008c0-.714-.45-1.104-1.23-1.104-.738 0-1.224.354-1.296.954h.492c.06-.312.348-.516.78-.516.48 0 .762.24.762.636v.21h-.9c-.804 0-1.23.342-1.23.954 0 .558.456.894 1.128.894.528 0 .834-.234 1.026-.51.006.3.144.474.552.474h.27v-.45h-.156zm-.69-.798c0 .51-.354.864-.966.864-.408 0-.666-.204-.666-.504 0-.348.246-.51.684-.51h.948v.15zm1.098.24c.012.672.558 1.044 1.35 1.044.678 0 1.224-.354 1.224-.924 0-.678-.558-.81-1.254-.894-.444-.054-.768-.096-.768-.432 0-.282.288-.462.714-.462.42 0 .708.234.744.546h.504c-.048-.636-.552-.96-1.248-.966-.69-.006-1.2.36-1.2.918 0 .636.546.774 1.23.858.456.054.792.084.792.468 0 .282-.306.468-.738.468-.51 0-.828-.264-.846-.624h-.504zm6.191-2.088c-.516 0-.828.216-1.008.45l-.066-.414h-.426V8h.492V6.47c0-.69.348-1.116.924-1.116.534 0 .828.336.828.972V8h.492V6.296c0-1.014-.546-1.392-1.236-1.392zm3.238 3.132c.894 0 1.518-.636 1.518-1.566s-.624-1.566-1.518-1.566-1.518.636-1.518 1.566.624 1.566 1.518 1.566zm0-.438c-.606 0-1.014-.474-1.014-1.128 0-.654.408-1.128 1.014-1.128.606 0 1.014.474 1.014 1.128 0 .654-.408 1.128-1.014 1.128zm2.275-.396c0 .54.21.798.798.798h.534v-.45h-.486c-.264 0-.354-.096-.354-.354V5.39h.792v-.45h-.792v-.858h-.492v.858h-.552v.45h.552v1.812zm4.87-2.298c-.516 0-.846.246-1.05.528V3.8h-.492V8h.426l.066-.468c.186.294.534.504 1.05.504.846 0 1.47-.63 1.47-1.566 0-.996-.624-1.566-1.47-1.566zm-.048 2.694c-.6 0-1.008-.468-1.008-1.14 0-.654.408-1.116 1.008-1.116.606 0 1.014.462 1.014 1.128 0 .666-.408 1.128-1.014 1.128zm3.491.438c.708 0 1.212-.45 1.332-1.062h-.498c-.102.396-.438.624-.87.624-.582 0-.948-.408-.966-.99v-.042h2.376c.006-.072.012-.144.012-.21-.024-.906-.588-1.452-1.452-1.452s-1.452.636-1.452 1.566c0 .936.6 1.566 1.518 1.566zm-.972-1.878a.906.906 0 01.912-.822c.51 0 .87.294.918.822h-1.83zm4.329 1.878c.708 0 1.212-.45 1.332-1.062h-.498c-.102.396-.438.624-.87.624-.582 0-.948-.408-.966-.99v-.042h2.376c.006-.072.012-.144.012-.21-.024-.906-.588-1.452-1.452-1.452s-1.452.636-1.452 1.566c0 .936.6 1.566 1.518 1.566zm-.972-1.878a.906.906 0 01.912-.822c.51 0 .87.294.918.822h-1.83zm4.42-1.254c-.516 0-.828.216-1.008.45l-.066-.414h-.426V8h.492V6.47c0-.69.348-1.116.924-1.116.534 0 .828.336.828.972V8h.492V6.296c0-1.014-.546-1.392-1.236-1.392zm4.849.036c-.546 0-.78.228-.924.462l-.066-.462h-.426V8h.492V6.44c0-.486.174-1.02.816-1.02h.246v-.48h-.138zm1.799 3.096c.708 0 1.212-.45 1.332-1.062h-.498c-.102.396-.438.624-.87.624-.582 0-.948-.408-.966-.99v-.042h2.376c.006-.072.012-.144.012-.21-.024-.906-.588-1.452-1.452-1.452s-1.452.636-1.452 1.566c0 .936.6 1.566 1.518 1.566zm-.972-1.878a.906.906 0 01.912-.822c.51 0 .87.294.918.822h-1.83zM188.656 8h.594l1.146-3.06h-.516l-.918 2.502-.924-2.502h-.528L188.656 8zm2.36-3.576c.18 0 .318-.132.318-.318a.309.309 0 00-.318-.318.309.309 0 00-.318.318c0 .186.138.318.318.318zM190.764 8h.492V4.94h-.492V8zm2.576.036c.708 0 1.212-.45 1.332-1.062h-.498c-.102.396-.438.624-.87.624-.582 0-.948-.408-.966-.99v-.042h2.376c.006-.072.012-.144.012-.21-.024-.906-.588-1.452-1.452-1.452s-1.452.636-1.452 1.566c0 .936.6 1.566 1.518 1.566zm-.972-1.878a.906.906 0 01.912-.822c.51 0 .87.294.918.822h-1.83zM195.89 8h.54l.768-2.274.738 2.274h.54l1.02-3.06h-.498l-.798 2.49-.762-2.49h-.456l-.804 2.49-.762-2.49h-.516l.99 3.06zm5.301.036c.708 0 1.212-.45 1.332-1.062h-.498c-.102.396-.438.624-.87.624-.582 0-.948-.408-.966-.99v-.042h2.376c.006-.072.012-.144.012-.21-.024-.906-.588-1.452-1.452-1.452s-1.452.636-1.452 1.566c0 .936.6 1.566 1.518 1.566zm-.972-1.878a.906.906 0 01.912-.822c.51 0 .87.294.918.822h-1.83zm5.332-.75c-.186-.294-.534-.504-1.05-.504-.846 0-1.47.63-1.47 1.566 0 .996.624 1.566 1.47 1.566.516 0 .846-.246 1.05-.528l.066.492h.426V3.8h-.492v1.608zm-1.002 2.19c-.606 0-1.014-.462-1.014-1.128 0-.666.408-1.128 1.014-1.128.6 0 1.008.468 1.008 1.14 0 .654-.408 1.116-1.008 1.116zM16.378 11.904c-.516 0-.846.246-1.05.528V10.8h-.492V15h.426l.066-.468c.186.294.534.504 1.05.504.846 0 1.47-.63 1.47-1.566 0-.996-.624-1.566-1.47-1.566zm-.048 2.694c-.6 0-1.008-.468-1.008-1.14 0-.654.408-1.116 1.008-1.116.606 0 1.014.462 1.014 1.128 0 .666-.408 1.128-1.014 1.128zm2.834.42l-.15.372c-.114.288-.162.36-.444.36h-.439v.45h.588c.432 0 .546-.192.738-.684l1.41-3.576h-.521l-.913 2.442-.942-2.442h-.521l1.194 3.078zm3.869-.816c0 .54.21.798.798.798h.534v-.45h-.486c-.264 0-.354-.096-.354-.354V12.39h.792v-.45h-.792v-.858h-.492v.858h-.552v.45h.552v1.812zm3.258-2.298c-.516 0-.828.252-1.008.54V10.8h-.492V15h.492v-1.53c0-.69.354-1.116.924-1.116.528 0 .834.336.834.972V15h.492v-1.704c0-1.014-.558-1.392-1.242-1.392zm3.244 3.132c.708 0 1.212-.45 1.332-1.062h-.498c-.102.396-.438.624-.87.624-.582 0-.948-.408-.966-.99v-.042h2.376c.006-.072.012-.144.012-.21-.024-.906-.588-1.452-1.452-1.452s-1.452.636-1.452 1.566c0 .936.6 1.566 1.518 1.566zm-.972-1.878a.906.906 0 01.912-.822c.51 0 .87.294.918.822h-1.83zM33.125 15h.51v-3.312L35.027 15h.462l1.392-3.312V15h.51v-4.2h-.648l-1.47 3.486-1.488-3.486h-.66V15zm6.418.036c.894 0 1.518-.636 1.518-1.566s-.624-1.566-1.518-1.566-1.518.636-1.518 1.566.624 1.566 1.518 1.566zm0-.438c-.606 0-1.014-.474-1.014-1.128 0-.654.408-1.128 1.014-1.128.606 0 1.014.474 1.014 1.128 0 .654-.408 1.128-1.014 1.128zm3.582-2.694c-.516 0-.828.216-1.008.45l-.066-.414h-.426V15h.492v-1.53c0-.69.348-1.116.924-1.116.534 0 .828.336.828.972V15h.492v-1.704c0-1.014-.546-1.392-1.236-1.392zm3.238 3.132c.708 0 1.212-.45 1.332-1.062h-.498c-.102.396-.438.624-.87.624-.582 0-.948-.408-.966-.99v-.042h2.376c.006-.072.012-.144.012-.21-.024-.906-.588-1.452-1.452-1.452s-1.452.636-1.452 1.566c0 .936.6 1.566 1.518 1.566zm-.972-1.878a.906.906 0 01.912-.822c.51 0 .87.294.918.822h-1.83zm3.113 1.044c0 .54.21.798.797.798h.535v-.45h-.486c-.264 0-.355-.096-.355-.354V12.39h.793v-.45h-.792v-.858h-.492v.858h-.552v.45h.552v1.812zm4.417.348c-.138 0-.198-.042-.198-.204v-1.338c0-.714-.45-1.104-1.23-1.104-.738 0-1.224.354-1.296.954h.492c.06-.312.348-.516.78-.516.48 0 .762.24.762.636v.21h-.9c-.804 0-1.23.342-1.23.954 0 .558.456.894 1.128.894.528 0 .834-.234 1.026-.51.006.3.144.474.552.474h.27v-.45h-.156zm-.69-.798c0 .51-.354.864-.966.864-.408 0-.666-.204-.666-.504 0-.348.246-.51.684-.51h.948v.15zm2.64-1.812c-.546 0-.78.228-.924.462l-.066-.462h-.426V15h.492v-1.56c0-.486.174-1.02.816-1.02h.246v-.48h-.138zm1.476 3.078l-.15.372c-.114.288-.162.36-.444.36h-.438v.45h.588c.432 0 .546-.192.738-.684l1.41-3.576h-.522l-.912 2.442-.942-2.442h-.522l1.194 3.078zM60.258 15l.444-1.134h1.83L62.976 15h.558l-1.596-4.2h-.618L59.718 15h.54zm1.356-3.63l.762 2.022h-1.518l.756-2.022zm4.366 2.1c0 .69-.336 1.116-.894 1.116-.51 0-.798-.336-.798-.972V11.94h-.492v1.704c0 1.014.534 1.392 1.206 1.392.504 0 .798-.216.978-.444l.066.408h.426v-3.06h-.492v1.53zm1.402.732c0 .54.21.798.798.798h.534v-.45h-.486c-.264 0-.354-.096-.354-.354V12.39h.792v-.45h-.792v-.858h-.492v.858h-.552v.45h.552v1.812zm3.259-2.298c-.516 0-.828.252-1.008.54V10.8h-.492V15h.492v-1.53c0-.69.354-1.116.924-1.116.528 0 .834.336.834.972V15h.492v-1.704c0-1.014-.558-1.392-1.242-1.392zm3.244 3.132c.894 0 1.518-.636 1.518-1.566s-.624-1.566-1.518-1.566-1.518.636-1.518 1.566.624 1.566 1.518 1.566zm0-.438c-.606 0-1.014-.474-1.014-1.128 0-.654.408-1.128 1.014-1.128.606 0 1.014.474 1.014 1.128 0 .654-.408 1.128-1.014 1.128zm3.498-2.658c-.546 0-.78.228-.924.462l-.066-.462h-.426V15h.492v-1.56c0-.486.174-1.02.816-1.02h.246v-.48h-.138zm.816-.516c.18 0 .318-.132.318-.318a.309.309 0 00-.318-.318.309.309 0 00-.318.318c0 .186.138.318.318.318zM77.947 15h.492v-3.06h-.492V15zm1.394-.798c0 .54.21.798.798.798h.534v-.45h-.486c-.264 0-.354-.096-.354-.354V12.39h.792v-.45h-.792v-.858h-.492v.858h-.552v.45h.552v1.812zm2.647.816l-.15.372c-.114.288-.162.36-.444.36h-.438v.45h.588c.432 0 .546-.192.738-.684l1.41-3.576h-.522l-.912 2.442-.942-2.442h-.522l1.194 3.078zm5.051.018c.894 0 1.518-.636 1.518-1.566s-.624-1.566-1.518-1.566-1.518.636-1.518 1.566.624 1.566 1.518 1.566zm0-.438c-.606 0-1.014-.474-1.014-1.128 0-.654.408-1.128 1.014-1.128.606 0 1.014.474 1.014 1.128 0 .654-.408 1.128-1.014 1.128zm1.723-2.208h.552V15h.492v-2.61h.864v-.45h-.864v-.354c0-.234.09-.336.336-.336h.528v-.45h-.558c-.57 0-.798.258-.798.798v.342h-.552v.45zm3.738 1.236c.03.828.63 1.41 1.656 1.41.882 0 1.494-.51 1.494-1.236 0-.816-.702-1.044-1.386-1.158-.63-.108-1.14-.21-1.14-.714 0-.45.366-.69.912-.69.57 0 .96.318 1.02.804h.54c-.048-.756-.624-1.278-1.56-1.278-.852 0-1.434.48-1.434 1.194 0 .816.696 1.038 1.374 1.152.636.108 1.152.216 1.152.738 0 .456-.402.714-.966.714-.642 0-1.08-.372-1.122-.936h-.54zm3.992-2.202c.18 0 .318-.132.318-.318a.309.309 0 00-.318-.318.309.309 0 00-.318.318c0 .186.138.318.318.318zM96.24 15h.492v-3.06h-.492V15zm2.666-3.096c-.516 0-.828.216-1.008.45l-.066-.414h-.426V15h.492v-1.53c0-.69.348-1.116.924-1.116.534 0 .828.336.828.972V15h.492v-1.704c0-1.014-.546-1.392-1.236-1.392zm4.276.564c-.192-.342-.534-.564-1.05-.564-.846 0-1.47.63-1.47 1.566 0 .996.624 1.566 1.47 1.566.516 0 .846-.216 1.05-.564v.36c0 .666-.348.966-.99.966-.51 0-.852-.216-.936-.6h-.504c.078.672.624 1.038 1.404 1.038 1.05 0 1.518-.504 1.518-1.386v-2.91h-.426l-.066.528zm-1.002 2.13c-.606 0-1.014-.462-1.014-1.128 0-.666.408-1.128 1.014-1.128.6 0 1.008.468 1.008 1.14 0 .654-.408 1.116-1.008 1.116zm4.87-.048c-.138 0-.198-.042-.198-.204v-1.338c0-.714-.45-1.104-1.23-1.104-.738 0-1.224.354-1.296.954h.492c.06-.312.348-.516.78-.516.48 0 .762.24.762.636v.21h-.9c-.804 0-1.23.342-1.23.954 0 .558.456.894 1.128.894.528 0 .834-.234 1.026-.51.006.3.144.474.552.474h.27v-.45h-.156zm-.69-.798c0 .51-.354.864-.966.864-.408 0-.666-.204-.666-.504 0-.348.246-.51.684-.51h.948v.15zm2.766-1.848c-.516 0-.846.246-1.05.528l-.066-.492h-.426v4.26h.492v-1.668c.186.294.534.504 1.05.504.846 0 1.47-.63 1.47-1.566 0-.996-.624-1.566-1.47-1.566zm-.048 2.694c-.6 0-1.008-.468-1.008-1.14 0-.654.408-1.116 1.008-1.116.606 0 1.014.462 1.014 1.128 0 .666-.408 1.128-1.014 1.128zm3.49.438c.894 0 1.518-.636 1.518-1.566s-.624-1.566-1.518-1.566-1.518.636-1.518 1.566.624 1.566 1.518 1.566zm0-.438c-.606 0-1.014-.474-1.014-1.128 0-.654.408-1.128 1.014-1.128.606 0 1.014.474 1.014 1.128 0 .654-.408 1.128-1.014 1.128zm3.498-2.658c-.546 0-.78.228-.924.462l-.066-.462h-.426V15h.492v-1.56c0-.486.174-1.02.816-1.02h.246v-.48h-.138zm1.799 3.096c.708 0 1.212-.45 1.332-1.062h-.498c-.102.396-.438.624-.87.624-.582 0-.948-.408-.966-.99v-.042h2.376c.006-.072.012-.144.012-.21-.024-.906-.588-1.452-1.452-1.452s-1.452.636-1.452 1.566c0 .936.6 1.566 1.518 1.566zm-.972-1.878a.906.906 0 01.912-.822c.51 0 .87.294.918.822h-1.83zm2.66 1.542c0 .204.144.336.342.336.198 0 .342-.132.342-.336 0-.204-.144-.336-.342-.336-.198 0-.342.132-.342.336z" fill="#000"/></svg>