<svg width="155" height="23" viewBox="0 0 155 23" fill="none" xmlns="http://www.w3.org/2000/svg"><path d="M.24 1.458h2.592v7.176h1.38V1.458h2.592V.234H.24v1.224zm9.973 1.032c-1.008 0-1.5.408-1.812.924l-.144-.924H7.105v6.144H8.4V5.55c0-.948.372-1.848 1.524-1.848h.576V2.49h-.288zm6.516 5.016c-.264 0-.396-.084-.396-.396V4.65c0-1.452-.936-2.232-2.568-2.232-1.548 0-2.58.744-2.712 1.944h1.272c.096-.54.612-.9 1.38-.9.852 0 1.344.42 1.344 1.104v.372H13.5c-1.716 0-2.628.708-2.628 1.968 0 1.14.936 1.8 2.28 1.8.996 0 1.62-.432 2.028-1.056 0 .612.288.984 1.128.984h.684V7.506h-.264zm-1.68-1.392c-.012.948-.636 1.584-1.716 1.584-.708 0-1.14-.36-1.14-.876 0-.624.444-.924 1.248-.924h1.608v.216zm7.27-2.772c-.395-.54-1.055-.924-1.991-.924-1.668 0-2.904 1.248-2.904 3.144 0 1.968 1.236 3.144 2.904 3.144.972 0 1.608-.456 2.004-.996l.156.924h1.128v-8.4H22.32v3.108zm-1.775 4.272c-1.08 0-1.788-.84-1.788-2.052 0-1.2.708-2.04 1.788-2.04s1.788.84 1.788 2.064c0 1.188-.708 2.028-1.788 2.028zm7.254 1.092c1.524 0 2.556-.924 2.772-2.136h-1.296c-.18.684-.756 1.08-1.548 1.08-1.02 0-1.68-.684-1.716-1.728v-.084h4.632a3.52 3.52 0 00.036-.492c-.036-1.8-1.224-2.928-3-2.928-1.812 0-3.024 1.26-3.024 3.156 0 1.884 1.212 3.132 3.144 3.132zm-1.74-3.816c.096-.876.804-1.428 1.632-1.428.9 0 1.536.516 1.644 1.428h-3.276zm9.182 2.076c0 1.116.504 1.668 1.68 1.668h1.2v-1.14h-.912c-.492 0-.66-.18-.66-.66V3.63h1.5V2.49h-1.5V.774H35.24V2.49h-1.068v1.14h1.068v3.336zm6.492 1.74c1.524 0 2.556-.924 2.772-2.136h-1.296c-.18.684-.756 1.08-1.548 1.08-1.02 0-1.68-.684-1.716-1.728v-.084h4.632a3.52 3.52 0 00.036-.492c-.036-1.8-1.224-2.928-3-2.928-1.812 0-3.024 1.26-3.024 3.156 0 1.884 1.212 3.132 3.144 3.132zm-1.74-3.816c.096-.876.804-1.428 1.632-1.428.9 0 1.536.516 1.644 1.428h-3.276zm8.487 3.816c1.572 0 2.616-.876 2.856-2.268h-1.368c-.156.708-.684 1.164-1.476 1.164-1.044 0-1.728-.828-1.728-2.028 0-1.212.684-2.052 1.728-2.052.804 0 1.32.444 1.488 1.164h1.356c-.252-1.392-1.236-2.268-2.82-2.268-1.86 0-3.084 1.26-3.084 3.156 0 1.92 1.188 3.132 3.048 3.132zm7.076-6.288c-.96 0-1.548.432-1.932.96V.234h-1.296v8.4h1.296V5.526c0-1.236.624-1.992 1.644-1.992.96 0 1.476.624 1.476 1.788v3.312h1.296v-3.42c0-2.052-1.116-2.796-2.484-2.796zm9.65 6.288c1.523 0 2.555-.924 2.771-2.136H66.68c-.18.684-.756 1.08-1.548 1.08-1.02 0-1.68-.684-1.716-1.728v-.084h4.632a3.52 3.52 0 00.036-.492c-.036-1.8-1.224-2.928-3-2.928-1.812 0-3.024 1.26-3.024 3.156 0 1.884 1.212 3.132 3.144 3.132zm-1.74-3.816c.095-.876.803-1.428 1.631-1.428.9 0 1.536.516 1.644 1.428h-3.276zm11.283 2.616c-.264 0-.396-.084-.396-.396V4.65c0-1.452-.936-2.232-2.568-2.232-1.548 0-2.58.744-2.712 1.944h1.272c.096-.54.612-.9 1.38-.9.852 0 1.344.42 1.344 1.104v.372H71.52c-1.716 0-2.628.708-2.628 1.968 0 1.14.936 1.8 2.28 1.8.996 0 1.62-.432 2.028-1.056 0 .612.288.984 1.128.984h.684V7.506h-.264zm-1.68-1.392c-.012.948-.636 1.584-1.716 1.584-.708 0-1.14-.36-1.14-.876 0-.624.444-.924 1.248-.924h1.608v.216zm5.758-3.624c-1.008 0-1.5.408-1.812.924l-.144-.924h-1.152v6.144h1.296V5.55c0-.948.372-1.848 1.524-1.848h.576V2.49h-.288zm4.327-.072c-.996 0-1.584.396-1.968.876l-.144-.804h-1.128v6.144h1.296V5.538c0-1.248.612-2.004 1.644-2.004.972 0 1.464.624 1.464 1.788v3.312h1.308v-3.42c0-2.052-1.116-2.796-2.472-2.796zm4.311-.792c.444 0 .792-.324.792-.78s-.348-.78-.792-.78c-.444 0-.792.324-.792.78s.348.78.792.78zm-.66 7.008H88.1V2.49h-1.296v6.144zm5.806-6.216c-.996 0-1.584.396-1.968.876l-.144-.804H89.37v6.144h1.296V5.538c0-1.248.612-2.004 1.644-2.004.972 0 1.464.624 1.464 1.788v3.312h1.308v-3.42c0-2.052-1.116-2.796-2.472-2.796zm8.343 1.032c-.396-.612-1.056-1.032-2.016-1.032-1.668 0-2.904 1.236-2.904 3.12 0 1.956 1.236 3.12 2.904 3.12.96 0 1.596-.396 2.004-1.008v.684c0 1.176-.636 1.716-1.764 1.716-.912 0-1.512-.396-1.668-1.08h-1.32c.12 1.38 1.26 2.136 2.892 2.136 2.208 0 3.144-1.056 3.144-2.724V2.49h-1.128l-.144.96zm-1.8 4.116c-1.08 0-1.788-.828-1.788-2.028 0-1.188.708-2.028 1.788-2.028s1.788.84 1.788 2.052c0 1.176-.708 2.004-1.788 2.004zm4.074-.96c.036 1.332 1.164 2.1 2.808 2.1 1.488 0 2.604-.744 2.604-1.92 0-1.368-1.14-1.656-2.544-1.824-.888-.096-1.476-.168-1.476-.744 0-.492.504-.804 1.272-.804s1.296.396 1.368.96h1.272c-.084-1.26-1.152-1.956-2.664-1.956-1.476-.012-2.52.744-2.52 1.908 0 1.272 1.104 1.572 2.508 1.74.948.12 1.512.168 1.512.828 0 .492-.528.804-1.332.804-.936 0-1.488-.456-1.536-1.092h-1.272zM1.296 15.626c.444 0 .792-.323.792-.78 0-.456-.348-.78-.792-.78-.444 0-.792.324-.792.78 0 .457.348.78.792.78zm-.66 7.008h1.296v-6.143H.636v6.143zm5.806-6.215c-.996 0-1.584.395-1.968.875l-.144-.803H3.202v6.143h1.296v-3.096c0-1.247.612-2.003 1.644-2.003.972 0 1.464.623 1.464 1.788v3.311h1.308v-3.42c0-2.051-1.116-2.795-2.472-2.795zm9.83.072c-1.009 0-1.5.407-1.813.924l-.144-.924h-1.152v6.143h1.296V19.55c0-.948.372-1.848 1.524-1.848h.576V16.49h-.288zm3.71 6.215c1.524 0 2.556-.924 2.772-2.136h-1.296c-.18.684-.756 1.08-1.548 1.08-1.02 0-1.68-.683-1.716-1.727v-.084h4.632a3.52 3.52 0 00.036-.492c-.036-1.8-1.224-2.928-3-2.928-1.812 0-3.024 1.26-3.024 3.155 0 1.884 1.212 3.132 3.144 3.132zm-1.74-3.816c.096-.875.804-1.428 1.632-1.428.9 0 1.536.517 1.644 1.428h-3.276zm11.283 2.616c-.264 0-.396-.084-.396-.396v-2.46c0-1.451-.936-2.231-2.568-2.231-1.548 0-2.58.744-2.712 1.944h1.272c.096-.54.612-.9 1.38-.9.852 0 1.344.42 1.344 1.104v.372h-1.548c-1.716 0-2.628.707-2.628 1.968 0 1.14.936 1.8 2.28 1.8.996 0 1.62-.433 2.028-1.056 0 .611.288.983 1.128.983h.684v-1.128h-.264zm-1.68-1.392c-.012.948-.636 1.584-1.716 1.584-.708 0-1.14-.36-1.14-.875 0-.625.444-.925 1.248-.925h1.608v.216zm2.65 2.52h1.296v-8.4h-1.296v8.4zm6.575-2.88v-1.068h-4.08v1.069h4.08zm1.522 1.212c0 1.116.504 1.668 1.68 1.668h1.2v-1.14h-.912c-.492 0-.66-.18-.66-.66v-3.203h1.5v-1.14h-1.5v-1.716h-1.308v1.716h-1.068v1.14h1.068v3.335zm4.364-5.34c.444 0 .792-.323.792-.78 0-.456-.348-.78-.792-.78-.444 0-.792.324-.792.78 0 .457.348.78.792.78zm-.66 7.008h1.296v-6.143h-1.296v6.143zm9.635-6.215c-1.008 0-1.704.444-2.1 1.116-.372-.793-1.092-1.116-1.896-1.116-.924.011-1.452.42-1.8.875l-.144-.803h-1.128v6.143h1.296v-3.288c0-1.091.552-1.811 1.44-1.811.852 0 1.296.564 1.296 1.643v3.456h1.308v-3.323c0-1.105.564-1.776 1.452-1.776.84 0 1.284.564 1.284 1.643v3.456h1.296v-3.54c0-1.944-1.032-2.675-2.304-2.675zm6.348 6.287c1.524 0 2.556-.924 2.772-2.136h-1.296c-.18.684-.756 1.08-1.548 1.08-1.02 0-1.68-.683-1.716-1.727v-.084h4.632a3.52 3.52 0 00.036-.492c-.036-1.8-1.224-2.928-3-2.928-1.812 0-3.024 1.26-3.024 3.155 0 1.884 1.212 3.132 3.144 3.132zm-1.74-3.816c.096-.875.804-1.428 1.632-1.428.9 0 1.536.517 1.644 1.428h-3.276zm14.354 2.616c-.264 0-.396-.084-.396-.396v-2.46c0-1.451-.936-2.231-2.568-2.231-1.548 0-2.58.744-2.712 1.944h1.272c.096-.54.612-.9 1.38-.9.852 0 1.344.42 1.344 1.104v.372h-1.548c-1.716 0-2.628.707-2.628 1.968 0 1.14.936 1.8 2.28 1.8.996 0 1.62-.433 2.028-1.056 0 .611.288.983 1.128.983h.684v-1.128h-.264zm-1.68-1.392c-.012.948-.636 1.584-1.716 1.584-.708 0-1.14-.36-1.14-.875 0-.625.444-.925 1.248-.925h1.608v.216zm2.386.492c.036 1.332 1.164 2.1 2.808 2.1 1.488 0 2.604-.744 2.604-1.92 0-1.367-1.14-1.655-2.544-1.824-.888-.096-1.476-.168-1.476-.744 0-.491.504-.803 1.272-.803s1.296.396 1.368.96h1.272c-.084-1.26-1.152-1.956-2.664-1.956-1.476-.012-2.52.744-2.52 1.907 0 1.273 1.104 1.572 2.508 1.74.948.12 1.512.169 1.512.829 0 .492-.528.803-1.332.803-.936 0-1.488-.456-1.536-1.091h-1.272zm17.154.804a.742.742 0 01-.576-.227c.564-.72.876-1.68.876-2.748 0-2.46-1.668-4.272-4.08-4.272s-4.08 1.812-4.08 4.271c0 2.46 1.668 4.272 4.08 4.272.912 0 1.716-.252 2.364-.707l.036.048c.3.395.612.587 1.296.587h.816V21.41h-.732zm-3.78.084c-1.596 0-2.664-1.284-2.664-3.06s1.068-3.06 2.664-3.06 2.664 1.284 2.664 3.06c0 .6-.12 1.152-.348 1.608l-.252-.324c-.288-.384-.564-.587-1.188-.587h-.9v1.2h.744c.288 0 .468.131.672.407l.18.24c-.42.324-.96.516-1.572.516zm6.574-6.408c0 .444-.18.756-.612.756h-1.308v1.14h1.368c.228 0 .408-.035.528-.107v5.76h1.332v-8.4h-1.308v.851zm6.452.54c.444 0 .792-.323.792-.78 0-.456-.348-.78-.792-.78-.444 0-.792.324-.792.78 0 .457.348.78.792.78zm-.66 7.008h1.296v-6.143H97.34v6.143zm2.302-2.027c.036 1.332 1.165 2.1 2.809 2.1 1.488 0 2.604-.745 2.604-1.92 0-1.368-1.14-1.656-2.544-1.825-.888-.096-1.476-.168-1.476-.744 0-.491.504-.803 1.272-.803s1.296.396 1.368.96h1.272c-.084-1.26-1.152-1.956-2.664-1.956-1.476-.012-2.52.744-2.52 1.907 0 1.273 1.104 1.572 2.508 1.74.948.12 1.512.169 1.512.829 0 .492-.528.803-1.332.803-.936 0-1.488-.456-1.536-1.091h-1.273zm12.595-4.116c-1.008 0-1.5.407-1.812.924l-.144-.924h-1.152v6.143h1.296V19.55c0-.948.372-1.848 1.524-1.848h.576V16.49h-.288zm3.711 6.215c1.524 0 2.556-.924 2.772-2.136h-1.296c-.18.684-.756 1.08-1.548 1.08-1.02 0-1.68-.683-1.716-1.727v-.084h4.632a3.52 3.52 0 00.036-.492c-.036-1.8-1.224-2.928-3-2.928-1.812 0-3.024 1.26-3.024 3.155 0 1.884 1.212 3.132 3.144 3.132zm-1.74-3.816c.096-.875.804-1.428 1.632-1.428.9 0 1.536.517 1.644 1.428h-3.276zm5.667 3.744h1.296v-8.4h-1.296v8.4zm5.483.072c1.524 0 2.556-.924 2.772-2.136h-1.296c-.18.684-.756 1.08-1.548 1.08-1.02 0-1.68-.683-1.716-1.727v-.084h4.632a3.52 3.52 0 00.036-.492c-.036-1.8-1.224-2.928-3-2.928-1.812 0-3.024 1.26-3.024 3.155 0 1.884 1.212 3.132 3.144 3.132zm-1.74-3.816c.096-.875.804-1.428 1.632-1.428.9 0 1.536.517 1.644 1.428h-3.276zm11.283 2.616c-.264 0-.396-.084-.396-.396v-2.46c0-1.451-.936-2.231-2.568-2.231-1.548 0-2.58.744-2.712 1.944h1.272c.096-.54.612-.9 1.38-.9.852 0 1.344.42 1.344 1.104v.372h-1.548c-1.716 0-2.628.707-2.628 1.968 0 1.14.936 1.8 2.28 1.8.996 0 1.62-.433 2.028-1.056 0 .611.288.983 1.128.983h.684v-1.128h-.264zm-1.68-1.392c-.012.948-.636 1.584-1.716 1.584-.708 0-1.14-.36-1.14-.875 0-.625.444-.925 1.248-.925h1.608v.216zm2.386.492c.036 1.332 1.164 2.1 2.808 2.1 1.488 0 2.604-.744 2.604-1.92 0-1.367-1.14-1.655-2.544-1.824-.888-.096-1.476-.168-1.476-.744 0-.491.504-.803 1.272-.803s1.296.396 1.368.96h1.272c-.084-1.26-1.152-1.956-2.664-1.956-1.476-.012-2.52.744-2.52 1.907 0 1.273 1.104 1.572 2.508 1.74.948.12 1.512.169 1.512.829 0 .492-.528.803-1.332.803-.936 0-1.488-.456-1.536-1.091h-1.272zm9.333 2.1c1.524 0 2.556-.924 2.772-2.136h-1.296c-.18.684-.756 1.08-1.548 1.08-1.02 0-1.68-.683-1.716-1.727v-.084h4.632a3.52 3.52 0 00.036-.492c-.036-1.8-1.224-2.928-3-2.928-1.812 0-3.024 1.26-3.024 3.155 0 1.884 1.212 3.132 3.144 3.132zm-1.74-3.816c.096-.875.804-1.428 1.632-1.428.9 0 1.536.517 1.644 1.428h-3.276zm10.335-1.547c-.396-.54-1.056-.924-1.992-.924-1.668 0-2.904 1.247-2.904 3.143 0 1.968 1.236 3.144 2.904 3.144.972 0 1.608-.456 2.004-.995l.156.924h1.128v-8.4h-1.296v3.108zm-1.776 4.271c-1.08 0-1.788-.84-1.788-2.052 0-1.2.708-2.04 1.788-2.04s1.788.84 1.788 2.065c0 1.188-.708 2.027-1.788 2.027z" fill="#000"/></svg>