<svg width="97" height="11" viewBox="0 0 97 11" fill="none" xmlns="http://www.w3.org/2000/svg"><path d="M8.318 8v-.56H6.085V3.1h-.609V8h2.842zm1.987.042c1.043 0 1.77-.742 1.77-1.827s-.727-1.827-1.77-1.827c-1.043 0-1.771.742-1.771 1.827s.728 1.827 1.77 1.827zm0-.511c-.707 0-1.183-.553-1.183-1.316s.476-1.316 1.183-1.316c.707 0 1.183.553 1.183 1.316s-.476 1.316-1.183 1.316zm2.268-.707c.014.784.651 1.218 1.575 1.218.791 0 1.428-.413 1.428-1.078 0-.791-.65-.945-1.463-1.043-.518-.063-.896-.112-.896-.504 0-.329.336-.539.833-.539.49 0 .826.273.868.637h.588c-.056-.742-.644-1.12-1.456-1.127-.805-.007-1.4.42-1.4 1.071 0 .742.637.903 1.435 1.001.532.063.924.098.924.546 0 .329-.357.546-.86.546-.596 0-.967-.308-.988-.728h-.588zm3.425 0c.014.784.65 1.218 1.575 1.218.79 0 1.428-.413 1.428-1.078 0-.791-.651-.945-1.463-1.043-.518-.063-.896-.112-.896-.504 0-.329.336-.539.833-.539.49 0 .826.273.868.637h.588c-.056-.742-.644-1.12-1.456-1.127-.805-.007-1.4.42-1.4 1.071 0 .742.637.903 1.435 1.001.532.063.924.098.924.546 0 .329-.357.546-.861.546-.595 0-.966-.308-.987-.728h-.588zm5.285 1.218c.826 0 1.414-.525 1.554-1.239h-.58c-.12.462-.512.728-1.016.728-.679 0-1.106-.476-1.127-1.155v-.049h2.772c.007-.084.014-.168.014-.245-.028-1.057-.686-1.694-1.694-1.694s-1.694.742-1.694 1.827c0 1.092.7 1.827 1.771 1.827zM20.15 5.851a1.057 1.057 0 011.064-.959c.595 0 1.015.343 1.071.959H20.15zm3.245.973c.014.784.651 1.218 1.575 1.218.791 0 1.428-.413 1.428-1.078 0-.791-.65-.945-1.463-1.043-.518-.063-.896-.112-.896-.504 0-.329.336-.539.833-.539.49 0 .826.273.868.637h.588c-.056-.742-.644-1.12-1.456-1.127-.805-.007-1.4.42-1.4 1.071 0 .742.637.903 1.435 1.001.532.063.924.098.924.546 0 .329-.357.546-.86.546-.596 0-.967-.308-.988-.728h-.588zm7.076 1.218c.868 0 1.449-.49 1.589-1.26h-.61c-.111.455-.461.749-.972.749-.686 0-1.148-.532-1.148-1.309 0-.777.462-1.323 1.148-1.323.525 0 .875.287.98.763h.602c-.147-.784-.7-1.274-1.575-1.274-1.036 0-1.743.742-1.743 1.834 0 1.113.686 1.82 1.729 1.82zm5.375-.567c-.161 0-.231-.049-.231-.238V5.676c0-.833-.525-1.288-1.435-1.288-.861 0-1.428.413-1.512 1.113h.574c.07-.364.406-.602.91-.602.56 0 .889.28.889.742v.245h-1.05c-.938 0-1.435.399-1.435 1.113 0 .651.532 1.043 1.316 1.043.616 0 .973-.273 1.197-.595.007.35.168.553.644.553h.315v-.525h-.182zm-.805-.931c0 .595-.413 1.008-1.127 1.008-.476 0-.777-.238-.777-.588 0-.406.287-.595.798-.595h1.106v.175zm3.178-2.156c-.602 0-.966.252-1.176.525l-.077-.483h-.497V8h.574V6.215c0-.805.406-1.302 1.078-1.302.623 0 .966.392.966 1.134V8h.574V6.012c0-1.183-.637-1.624-1.442-1.624zm5.651 3.654c.826 0 1.414-.525 1.554-1.239h-.581c-.119.462-.511.728-1.015.728-.679 0-1.106-.476-1.127-1.155v-.049h2.772c.007-.084.014-.168.014-.245-.028-1.057-.686-1.694-1.694-1.694s-1.694.742-1.694 1.827c0 1.092.7 1.827 1.771 1.827zm-1.134-2.191a1.057 1.057 0 011.064-.959c.595 0 1.015.343 1.071.959h-2.135zM45.613 8h.65l1.044-1.435L48.35 8h.686L47.67 6.166l1.274-1.736h-.651l-.96 1.323-.944-1.323h-.686l1.267 1.736L45.613 8zm5.282.042c.868 0 1.45-.49 1.59-1.26h-.61c-.112.455-.462.749-.973.749-.686 0-1.148-.532-1.148-1.309 0-.777.462-1.323 1.148-1.323.525 0 .875.287.98.763h.602c-.147-.784-.7-1.274-1.575-1.274-1.036 0-1.743.742-1.743 1.834 0 1.113.686 1.82 1.73 1.82zm3.864 0c.826 0 1.414-.525 1.554-1.239h-.581c-.12.462-.511.728-1.015.728-.68 0-1.106-.476-1.127-1.155v-.049h2.772c.007-.084.014-.168.014-.245-.028-1.057-.686-1.694-1.694-1.694s-1.694.742-1.694 1.827c0 1.092.7 1.827 1.77 1.827zm-1.134-2.191a1.057 1.057 0 011.064-.959c.595 0 1.015.343 1.07.959h-2.134zm5.05 2.191c.827 0 1.415-.525 1.555-1.239h-.581c-.12.462-.511.728-1.015.728-.68 0-1.106-.476-1.127-1.155v-.049h2.772c.007-.084.014-.168.014-.245-.028-1.057-.686-1.694-1.694-1.694s-1.694.742-1.694 1.827c0 1.092.7 1.827 1.77 1.827zm-1.133-2.191a1.057 1.057 0 011.064-.959c.595 0 1.015.343 1.07.959h-2.134zm6.22-.875c-.217-.343-.623-.588-1.225-.588-.987 0-1.715.735-1.715 1.827 0 1.162.728 1.827 1.715 1.827.602 0 .987-.287 1.225-.616l.077.574h.497V3.1h-.574v1.876zm-1.17 2.555c-.706 0-1.182-.539-1.182-1.316s.476-1.316 1.183-1.316c.7 0 1.176.546 1.176 1.33 0 .763-.476 1.302-1.176 1.302zm7.172-2.555c-.217-.343-.623-.588-1.225-.588-.987 0-1.715.735-1.715 1.827 0 1.162.728 1.827 1.715 1.827.602 0 .987-.287 1.225-.616L69.84 8h.497V3.1h-.574v1.876zm-1.17 2.555c-.706 0-1.182-.539-1.182-1.316s.476-1.316 1.183-1.316c.7 0 1.176.546 1.176 1.33 0 .763-.476 1.302-1.176 1.302zm4.17.511c.827 0 1.415-.525 1.555-1.239h-.582c-.118.462-.51.728-1.014.728-.68 0-1.106-.476-1.127-1.155v-.049h2.772c.007-.084.014-.168.014-.245-.029-1.057-.687-1.694-1.695-1.694-1.007 0-1.694.742-1.694 1.827 0 1.092.7 1.827 1.772 1.827zm-1.133-2.191a1.057 1.057 0 011.064-.959c.595 0 1.015.343 1.07.959H71.63zm5.204-1.463c-.601 0-.986.287-1.224.616l-.078-.574h-.496V9.4h.573V7.454c.218.343.624.588 1.225.588.988 0 1.716-.735 1.716-1.827 0-1.162-.728-1.827-1.716-1.827zm-.055 3.143c-.7 0-1.177-.546-1.177-1.33 0-.763.477-1.302 1.177-1.302.707 0 1.183.539 1.183 1.316s-.476 1.316-1.183 1.316zm4.072.511c1.042 0 1.77-.742 1.77-1.827s-.728-1.827-1.77-1.827c-1.044 0-1.772.742-1.772 1.827s.728 1.827 1.772 1.827zm0-.511c-.708 0-1.184-.553-1.184-1.316s.476-1.316 1.183-1.316c.707 0 1.183.553 1.183 1.316s-.476 1.316-1.183 1.316zm2.268-.707c.014.784.651 1.218 1.575 1.218.791 0 1.428-.413 1.428-1.078 0-.791-.651-.945-1.463-1.043-.518-.063-.896-.112-.896-.504 0-.329.336-.539.833-.539.49 0 .826.273.868.637h.588c-.056-.742-.644-1.12-1.456-1.127-.805-.007-1.4.42-1.4 1.071 0 .742.637.903 1.435 1.001.532.063.924.098.924.546 0 .329-.357.546-.861.546-.595 0-.966-.308-.987-.728h-.588zm3.934-2.996a.36.36 0 00.371-.371.36.36 0 00-.37-.371.36.36 0 00-.372.371.36.36 0 00.371.371zM86.76 8h.574V4.43h-.574V8zm1.626-.931c0 .63.246.931.931.931h.624v-.525h-.567c-.308 0-.413-.112-.413-.413V4.955h.924V4.43h-.925V3.429h-.573V4.43h-.644v.525h.644v2.114zm1.905-.245c.014.784.65 1.218 1.575 1.218.79 0 1.428-.413 1.428-1.078 0-.791-.651-.945-1.463-1.043-.518-.063-.896-.112-.896-.504 0-.329.336-.539.833-.539.49 0 .826.273.868.637h.588c-.056-.742-.644-1.12-1.456-1.127-.805-.007-1.4.42-1.4 1.071 0 .742.637.903 1.435 1.001.532.063.924.098.924.546 0 .329-.357.546-.861.546-.595 0-.966-.308-.987-.728h-.588z" fill="#000"/></svg>