<svg width="248" height="41" viewBox="0 0 248 41" fill="none" xmlns="http://www.w3.org/2000/svg"><path d="M.296 13H4.67c2.934 0 4.446-1.332 4.446-3.51 0-1.8-1.17-2.754-2.844-3.006C7.676 6.124 8.54 5.17 8.54 3.64 8.54 1.642 7.136.4 4.598.4H.296V13zM4.634 1.282c1.89 0 2.934.918 2.934 2.412 0 1.512-1.062 2.43-2.934 2.43H1.268V1.282h3.366zm.036 5.724c2.178 0 3.438.882 3.438 2.538 0 1.584-1.17 2.574-3.438 2.574H1.268V7.006H4.67zm10.358 6.102c1.998 0 3.528-1.296 3.924-3.132h-.936c-.36 1.422-1.566 2.304-3.06 2.304-2.034 0-3.312-1.548-3.348-3.672v-.162h7.452c0-.126.018-.27.018-.378-.09-2.718-1.764-4.302-4.212-4.302-2.502 0-4.212 1.908-4.212 4.608 0 2.862 1.782 4.734 4.374 4.734zM11.68 7.672c.144-1.854 1.53-3.096 3.204-3.096 1.782 0 3.06 1.098 3.204 3.096H11.68zm17.24 4.482c-.54 0-.81-.18-.81-.882V7.024c0-2.088-1.277-3.258-3.563-3.258-2.088 0-3.474 1.008-3.709 2.664h.918c.235-1.116 1.206-1.854 2.755-1.854 1.71 0 2.681.9 2.681 2.412v.792h-3.096c-2.34 0-3.6 1.008-3.6 2.718 0 1.62 1.279 2.61 3.223 2.61 1.854 0 2.951-.846 3.51-1.98v.324c-.037 1.08.413 1.548 1.494 1.548h.54v-.846h-.343zM27.192 9.31c0 1.746-1.241 3.006-3.401 3.006-1.459 0-2.358-.738-2.358-1.872 0-1.206.9-1.872 2.591-1.872h3.168v.738zm3.982 1.566c0 1.458.594 2.124 2.142 2.124h1.332v-.846h-1.26c-.954 0-1.296-.36-1.296-1.296V4.72h2.466v-.846h-2.466V1.318h-.918v2.556h-1.728v.846h1.728v6.156zm10.406 0c0 1.458.594 2.124 2.142 2.124h1.332v-.846h-1.26c-.954 0-1.296-.36-1.296-1.296V4.72h2.466v-.846h-2.466V1.318h-.918v2.556h-1.728v.846h1.728v6.156zm9.083-7.11c-1.71 0-2.772.954-3.294 2.268V.4h-.918V13h.918V8.5c0-2.376 1.206-3.888 3.15-3.888 1.746 0 2.826 1.152 2.826 3.312V13h.918V7.888c0-2.88-1.53-4.122-3.6-4.122zm9.54 9.342c1.999 0 3.529-1.296 3.925-3.132h-.936c-.36 1.422-1.566 2.304-3.06 2.304-2.034 0-3.312-1.548-3.348-3.672v-.162h7.452c0-.126.018-.27.018-.378-.09-2.718-1.764-4.302-4.212-4.302-2.502 0-4.212 1.908-4.212 4.608 0 2.862 1.782 4.734 4.374 4.734zm-3.347-5.436c.144-1.854 1.53-3.096 3.204-3.096 1.782 0 3.06 1.098 3.204 3.096h-6.408zM75.33 3.766c-1.71 0-2.916.936-3.492 2.232V.4h-.918V13h.792l.144-2.07c.54 1.314 1.764 2.178 3.474 2.178 2.502 0 4.302-1.908 4.302-4.68 0-2.862-1.8-4.662-4.302-4.662zm-.072 8.514c-2.034 0-3.438-1.584-3.438-3.87 0-2.232 1.404-3.834 3.438-3.834 2.034 0 3.438 1.602 3.438 3.852 0 2.268-1.404 3.852-3.438 3.852zm10.223.828c1.998 0 3.528-1.296 3.924-3.132h-.936c-.36 1.422-1.566 2.304-3.06 2.304-2.034 0-3.312-1.548-3.348-3.672v-.162h7.452c0-.126.018-.27.018-.378-.09-2.718-1.764-4.302-4.212-4.302-2.502 0-4.212 1.908-4.212 4.608 0 2.862 1.782 4.734 4.374 4.734zm-3.348-5.436c.144-1.854 1.53-3.096 3.204-3.096 1.782 0 3.06 1.098 3.204 3.096h-6.408zM91.346 13h.918V.4h-.918V13zm3.076 0h.918V.4h-.918V13zm10.142 0h.99l2.7-7.668L110.828 13h.99l3.24-9.126h-.936l-2.808 8.028-2.61-8.028h-.846l-2.754 8.028-2.664-8.028h-.972L104.564 13zM116.81 1.948c.36 0 .648-.27.648-.648a.634.634 0 00-.648-.648c-.36 0-.648.27-.648.648s.288.648.648.648zM116.342 13h.918V3.874h-.918V13zm3.76-2.124c0 1.458.594 2.124 2.142 2.124h1.332v-.846h-1.26c-.954 0-1.296-.36-1.296-1.296V4.72h2.466v-.846h-2.466V1.318h-.918v2.556h-1.728v.846h1.728v6.156zm9.083-7.11c-1.71 0-2.772.954-3.294 2.268V.4h-.918V13h.918V8.5c0-2.376 1.206-3.888 3.15-3.888 1.746 0 2.826 1.152 2.826 3.312V13h.918V7.888c0-2.88-1.53-4.122-3.6-4.122zm14.532 9.342c1.998 0 3.528-1.296 3.924-3.132h-.936c-.36 1.422-1.566 2.304-3.06 2.304-2.034 0-3.312-1.548-3.348-3.672v-.162h7.452c0-.126.018-.27.018-.378-.09-2.718-1.764-4.302-4.212-4.302-2.502 0-4.212 1.908-4.212 4.608 0 2.862 1.782 4.734 4.374 4.734zm-3.348-5.436c.144-1.854 1.53-3.096 3.204-3.096 1.782 0 3.06 1.098 3.204 3.096h-6.408zM148.294 13h1.062l3.024-4.014L155.404 13h1.116l-3.546-4.662 3.366-4.464h-1.044l-2.88 3.78-2.844-3.78h-1.098l3.366 4.464L148.294 13zm10.216-2.124c0 1.458.594 2.124 2.142 2.124h1.332v-.846h-1.26c-.954 0-1.296-.36-1.296-1.296V4.72h2.466v-.846h-2.466V1.318h-.918v2.556h-1.728v.846h1.728v6.156zm8.622 2.232c1.998 0 3.528-1.296 3.924-3.132h-.936c-.36 1.422-1.566 2.304-3.06 2.304-2.034 0-3.312-1.548-3.348-3.672v-.162h7.452c0-.126.018-.27.018-.378-.09-2.718-1.764-4.302-4.212-4.302-2.502 0-4.212 1.908-4.212 4.608 0 2.862 1.782 4.734 4.374 4.734zm-3.348-5.436c.144-1.854 1.53-3.096 3.204-3.096 1.782 0 3.06 1.098 3.204 3.096h-6.408zm13.424-3.906c-1.674 0-2.754.864-3.276 2.052l-.144-1.944h-.792V13h.918V8.5c0-2.376 1.206-3.888 3.15-3.888 1.764 0 2.826 1.152 2.826 3.312V13h.918V7.888c0-2.88-1.53-4.122-3.6-4.122zm12.943 2.16c-.558-1.296-1.782-2.16-3.492-2.16-2.502 0-4.302 1.908-4.302 4.662 0 2.88 1.8 4.68 4.302 4.68 1.71 0 2.898-.918 3.474-2.196l.144 2.088h.792V.4h-.918v5.526zm-3.42 6.354c-2.034 0-3.438-1.584-3.438-3.852 0-2.25 1.404-3.852 3.438-3.852 2.034 0 3.438 1.602 3.438 3.87 0 2.25-1.404 3.834-3.438 3.834zm10.529.828c1.998 0 3.528-1.296 3.924-3.132h-.936c-.36 1.422-1.566 2.304-3.06 2.304-2.034 0-3.312-1.548-3.348-3.672v-.162h7.452c0-.126.018-.27.018-.378-.09-2.718-1.764-4.302-4.212-4.302-2.502 0-4.212 1.908-4.212 4.608 0 2.862 1.782 4.734 4.374 4.734zm-3.348-5.436c.144-1.854 1.53-3.096 3.204-3.096 1.782 0 3.06 1.098 3.204 3.096h-6.408zm16.665-1.746c-.558-1.296-1.782-2.16-3.492-2.16-2.502 0-4.302 1.908-4.302 4.662 0 2.88 1.8 4.68 4.302 4.68 1.71 0 2.898-.918 3.474-2.196l.144 2.088h.792V.4h-.918v5.526zm-3.42 6.354c-2.034 0-3.438-1.584-3.438-3.852 0-2.25 1.404-3.852 3.438-3.852 2.034 0 3.438 1.602 3.438 3.87 0 2.25-1.404 3.834-3.438 3.834zM4.292 28.766c-1.71 0-2.772.954-3.294 2.268V25.4H.08V38h.918v-4.5c0-2.376 1.206-3.888 3.15-3.888 1.746 0 2.826 1.152 2.826 3.312V38h.918v-5.112c0-2.88-1.53-4.122-3.6-4.122zm9.54 9.342c2.575 0 4.393-1.908 4.393-4.68 0-2.754-1.818-4.662-4.392-4.662-2.574 0-4.374 1.908-4.374 4.662 0 2.772 1.8 4.68 4.374 4.68zm0-.828c-2.033 0-3.437-1.584-3.437-3.852 0-2.25 1.404-3.852 3.438-3.852 2.034 0 3.438 1.602 3.438 3.852 0 2.268-1.404 3.852-3.438 3.852zm12.84-3.924c0 2.394-1.187 3.906-3.077 3.906-1.692 0-2.736-1.152-2.736-3.33v-5.058h-.918v5.112c0 2.862 1.494 4.122 3.51 4.122 1.62 0 2.682-.864 3.204-2.034L26.78 38h.81v-9.126h-.918v4.482zm6.806-4.482c-1.692 0-2.412.81-2.79 1.818l-.144-1.818h-.792V38h.918v-4.626c0-1.854.486-3.618 2.628-3.618h.666v-.882h-.486zm1.204 6.318c.072 1.89 1.602 2.916 3.888 2.916 1.962 0 3.546-.99 3.546-2.61 0-1.926-1.692-2.304-3.654-2.574-1.422-.198-2.682-.36-2.682-1.638 0-1.044 1.026-1.728 2.574-1.728 1.458 0 2.502.702 2.664 1.89h.936c-.162-1.782-1.62-2.682-3.6-2.682-2.034-.018-3.492 1.026-3.492 2.592 0 1.836 1.692 2.178 3.564 2.43 1.53.216 2.772.414 2.772 1.764 0 1.08-1.134 1.764-2.628 1.764-1.746 0-2.88-.81-2.952-2.124h-.936zm18.069 2.916c2.574 0 4.392-1.908 4.392-4.68 0-2.754-1.818-4.662-4.392-4.662-2.574 0-4.374 1.908-4.374 4.662 0 2.772 1.8 4.68 4.374 4.68zm0-.828c-2.034 0-3.438-1.584-3.438-3.852 0-2.25 1.404-3.852 3.438-3.852 2.034 0 3.438 1.602 3.438 3.852 0 2.268-1.404 3.852-3.438 3.852zm10.428-8.514c-1.674 0-2.754.864-3.276 2.052l-.144-1.944h-.792V38h.918v-4.5c0-2.376 1.206-3.888 3.15-3.888 1.764 0 2.826 1.152 2.826 3.312V38h.918v-5.112c0-2.88-1.53-4.122-3.6-4.122zM73.896 38l1.512-3.852h5.796L82.716 38h1.044L78.9 25.4h-1.134L72.888 38h1.008zm4.41-11.52l2.61 6.768h-5.22l2.61-6.768zm17.023 2.286c-1.674 0-2.754.936-3.276 2.286-.432-1.512-1.566-2.286-3.007-2.286-1.566 0-2.502.918-2.97 2.052l-.143-1.944h-.793V38h.918v-4.644c0-2.232 1.08-3.744 2.826-3.744 1.585 0 2.575 1.116 2.575 3.222V38h.917v-4.968c.054-2.088 1.134-3.42 2.844-3.42 1.585 0 2.538 1.062 2.538 3.132V38h.937v-5.292c0-2.754-1.458-3.942-3.366-3.942zm13.431 8.388c-.54 0-.81-.18-.81-.882v-4.248c0-2.088-1.278-3.258-3.564-3.258-2.088 0-3.474 1.008-3.708 2.664h.918c.234-1.116 1.206-1.854 2.754-1.854 1.71 0 2.682.9 2.682 2.412v.792h-3.096c-2.34 0-3.6 1.008-3.6 2.718 0 1.62 1.278 2.61 3.222 2.61 1.854 0 2.952-.846 3.51-1.98v.324c-.036 1.08.414 1.548 1.494 1.548h.54v-.846h-.342zm-1.728-2.844c0 1.746-1.242 3.006-3.402 3.006-1.458 0-2.358-.738-2.358-1.872 0-1.206.9-1.872 2.592-1.872h3.168v.738zm2.919-4.59h5.868l-6.12 7.56V38h7.596v-.846h-6.39l6.138-7.578v-.702h-7.092v.846zm12.304 8.388c2.574 0 4.392-1.908 4.392-4.68 0-2.754-1.818-4.662-4.392-4.662-2.574 0-4.374 1.908-4.374 4.662 0 2.772 1.8 4.68 4.374 4.68zm0-.828c-2.034 0-3.438-1.584-3.438-3.852 0-2.25 1.404-3.852 3.438-3.852 2.034 0 3.438 1.602 3.438 3.852 0 2.268-1.404 3.852-3.438 3.852zm10.428-8.514c-1.674 0-2.754.864-3.276 2.052l-.144-1.944h-.792V38h.918v-4.5c0-2.376 1.206-3.888 3.15-3.888 1.764 0 2.826 1.152 2.826 3.312V38h.918v-5.112c0-2.88-1.53-4.122-3.6-4.122zm6.009 7.974c-.486 0-.792.306-.792.702 0 .432.288.648.63.648.18 0 .36-.072.45-.216.126.126.162.306.162.468 0 .684-.432 1.386-1.35 1.422v.54c1.242-.054 2.016-.882 2.016-2.07 0-.828-.468-1.494-1.116-1.494zm7.059-10.44h4.32V38h.972V26.3h4.32v-.9h-9.612v.9zm13.47 11.808c1.998 0 3.528-1.296 3.924-3.132h-.936c-.36 1.422-1.566 2.304-3.06 2.304-2.034 0-3.312-1.548-3.348-3.672v-.162h7.452c0-.126.018-.27.018-.378-.09-2.718-1.764-4.302-4.212-4.302-2.502 0-4.212 1.908-4.212 4.608 0 2.862 1.782 4.734 4.374 4.734zm-3.348-5.436c.144-1.854 1.53-3.096 3.204-3.096 1.782 0 3.06 1.098 3.204 3.096h-6.408zm8.781 2.52c.072 1.89 1.602 2.916 3.888 2.916 1.962 0 3.546-.99 3.546-2.61 0-1.926-1.692-2.304-3.654-2.574-1.422-.198-2.682-.36-2.682-1.638 0-1.044 1.026-1.728 2.574-1.728 1.458 0 2.502.702 2.664 1.89h.936c-.162-1.782-1.62-2.682-3.6-2.682-2.034-.018-3.492 1.026-3.492 2.592 0 1.836 1.692 2.178 3.564 2.43 1.53.216 2.772.414 2.772 1.764 0 1.08-1.134 1.764-2.628 1.764-1.746 0-2.88-.81-2.952-2.124h-.936zM173.84 38h.918V25.4h-.918V38zm11.104-.846c-.54 0-.81-.18-.81-.882v-4.248c0-2.088-1.278-3.258-3.564-3.258-2.088 0-3.474 1.008-3.708 2.664h.918c.234-1.116 1.206-1.854 2.754-1.854 1.71 0 2.682.9 2.682 2.412v.792h-3.096c-2.34 0-3.6 1.008-3.6 2.718 0 1.62 1.278 2.61 3.222 2.61 1.854 0 2.952-.846 3.51-1.98v.324c-.036 1.08.414 1.548 1.494 1.548h.54v-.846h-.342zm-1.728-2.844c0 1.746-1.242 3.006-3.402 3.006-1.458 0-2.358-.738-2.358-1.872 0-1.206.9-1.872 2.592-1.872h3.168v.738zm17.995 2.862c-.504 0-.864-.108-1.242-.576l-.9-1.044 2.862-4.356h-.972l-2.448 3.69-2.808-3.294-.108-.126c2.412-1.008 3.276-2.16 3.276-3.564 0-1.494-1.17-2.61-2.754-2.61-1.872 0-3.258 1.242-3.258 2.898 0 1.152.396 1.872 1.368 3.06-2.196.936-3.078 2.232-3.078 3.654 0 2.07 1.638 3.204 3.69 3.204 1.404 0 2.628-.63 3.654-1.836l.882 1.044c.432.522 1.026.684 1.71.684h1.26v-.828h-1.134zm-5.166-11.088c1.116 0 1.89.774 1.89 1.836 0 1.224-.846 2.106-2.826 2.97-.918-1.098-1.296-1.728-1.296-2.718 0-1.206.918-2.088 2.232-2.088zm-1.188 11.196c-1.584 0-2.772-.9-2.772-2.448 0-1.314.738-2.124 2.61-3.024l.27.306 2.988 3.528c-.846 1.062-1.908 1.638-3.096 1.638zm24.38-8.514c-1.674 0-2.754.936-3.276 2.286-.432-1.512-1.566-2.286-3.006-2.286-1.566 0-2.502.918-2.97 2.052l-.144-1.944h-.792V38h.918v-4.644c0-2.232 1.08-3.744 2.826-3.744 1.584 0 2.574 1.116 2.574 3.222V38h.918v-4.968c.054-2.088 1.134-3.42 2.844-3.42 1.584 0 2.538 1.062 2.538 3.132V38h.936v-5.292c0-2.754-1.458-3.942-3.366-3.942zm9.295 9.342c2.574 0 4.392-1.908 4.392-4.68 0-2.754-1.818-4.662-4.392-4.662-2.574 0-4.374 1.908-4.374 4.662 0 2.772 1.8 4.68 4.374 4.68zm0-.828c-2.034 0-3.438-1.584-3.438-3.852 0-2.25 1.404-3.852 3.438-3.852 2.034 0 3.438 1.602 3.438 3.852 0 2.268-1.404 3.852-3.438 3.852zm9.942-8.406c-1.692 0-2.412.81-2.79 1.818l-.144-1.818h-.792V38h.918v-4.626c0-1.854.486-3.618 2.628-3.618h.666v-.882h-.486zm5.228 9.234c1.998 0 3.528-1.296 3.924-3.132h-.936c-.36 1.422-1.566 2.304-3.06 2.304-2.034 0-3.312-1.548-3.348-3.672v-.162h7.452c0-.126.018-.27.018-.378-.09-2.718-1.764-4.302-4.212-4.302-2.502 0-4.212 1.908-4.212 4.608 0 2.862 1.782 4.734 4.374 4.734zm-3.348-5.436c.144-1.854 1.53-3.096 3.204-3.096 1.782 0 3.06 1.098 3.204 3.096h-6.408z" fill="#000"/></svg>