<svg width="185" height="95" viewBox="0 0 185 95" fill="none" xmlns="http://www.w3.org/2000/svg"><path d="M21.51 11.5c0-6.15-4.17-10.68-10.2-10.68-6.03 0-10.2 4.53-10.2 10.68 0 6.15 4.17 10.68 10.2 10.68 6.03 0 10.2-4.53 10.2-10.68zm-16.86 0c0-4.44 2.67-7.65 6.66-7.65s6.66 3.21 6.66 7.65-2.67 7.65-6.66 7.65-6.66-3.21-6.66-7.65zm30.087 2.82c0 3.18-1.5 5.04-3.96 5.04-2.37 0-3.57-1.53-3.57-4.53V6.64h-3.24v8.55c0 5.25 2.79 6.99 6.06 6.99 2.37 0 3.78-.96 4.74-2.13l.36 1.95h2.85V6.64h-3.24v7.68zm7.631 3.51c0 2.79 1.26 4.17 4.2 4.17h3v-2.85h-2.28c-1.23 0-1.65-.45-1.65-1.65V9.49h3.75V6.64h-3.75V2.35h-3.27v4.29h-2.67v2.85h2.67v8.34zm18.607-3.03v-2.67h-10.2v2.67h10.2zM71.4 22.18c4.68 0 7.83-3.15 7.83-7.86 0-4.68-3.15-7.86-7.83-7.86s-7.83 3.18-7.83 7.86c0 4.71 3.15 7.86 7.83 7.86zm0-2.76c-2.73 0-4.5-2.13-4.5-5.1 0-2.97 1.77-5.1 4.5-5.1s4.53 2.13 4.53 5.1c0 2.97-1.8 5.1-4.53 5.1zm8.758-9.93h2.67V22h3.27V9.49h4.11V6.64h-4.17V5.35c0-1.05.45-1.5 1.5-1.5h2.67V1h-3.09c-2.97 0-4.29 1.44-4.29 4.2v1.44h-2.67v2.85zm20.955 5.31v-2.67h-10.2v2.67h10.2zm11.058-8.34c-2.4 0-3.87 1.08-4.83 2.4V1h-3.24v21h3.24v-7.77c0-3.09 1.56-4.98 4.11-4.98 2.4 0 3.69 1.56 3.69 4.47V22h3.24v-8.55c0-5.13-2.79-6.99-6.21-6.99zm16.299 15.72c4.68 0 7.83-3.15 7.83-7.86 0-4.68-3.15-7.86-7.83-7.86s-7.83 3.18-7.83 7.86c0 4.71 3.15 7.86 7.83 7.86zm0-2.76c-2.73 0-4.5-2.13-4.5-5.1 0-2.97 1.77-5.1 4.5-5.1s4.53 2.13 4.53 5.1c0 2.97-1.8 5.1-4.53 5.1zm20.965-5.1c0 3.18-1.5 5.04-3.96 5.04-2.37 0-3.57-1.53-3.57-4.53V6.64h-3.24v8.55c0 5.25 2.79 6.99 6.06 6.99 2.37 0 3.78-.96 4.74-2.13l.36 1.95h2.85V6.64h-3.24v7.68zm14.203-7.68c-2.52 0-3.75 1.02-4.53 2.31l-.36-2.31h-2.88V22h3.24v-7.71c0-2.37.93-4.62 3.81-4.62h1.44V6.64h-.72zm1.795 10.29c.09 3.33 2.91 5.25 7.02 5.25 3.72 0 6.51-1.86 6.51-4.8 0-3.42-2.85-4.14-6.36-4.56-2.22-.24-3.69-.42-3.69-1.86 0-1.23 1.26-2.01 3.18-2.01 1.92 0 3.24.99 3.42 2.4h3.18c-.21-3.15-2.88-4.89-6.66-4.89-3.69-.03-6.3 1.86-6.3 4.77 0 3.18 2.76 3.93 6.27 4.35 2.37.3 3.78.42 3.78 2.07 0 1.23-1.32 2.01-3.33 2.01-2.34 0-3.72-1.14-3.84-2.73h-3.18zM2.7 53.83C2.7 56.62 3.96 58 6.9 58h3v-2.85H7.62c-1.23 0-1.65-.45-1.65-1.65v-8.01h3.75v-2.85H5.97v-4.29H2.7v4.29H.03v2.85H2.7v8.34zm17.031-11.19c-2.52 0-3.75 1.02-4.53 2.31l-.36-2.31h-2.88V58h3.24v-7.71c0-2.37.93-4.62 3.81-4.62h1.44v-3.03h-.72zm16.29 12.54c-.66 0-.99-.21-.99-.99v-6.15c0-3.63-2.34-5.58-6.42-5.58-3.87 0-6.45 1.86-6.78 4.86h3.18c.24-1.35 1.53-2.25 3.45-2.25 2.13 0 3.36 1.05 3.36 2.76v.93h-3.87c-4.29 0-6.57 1.77-6.57 4.92 0 2.85 2.34 4.5 5.7 4.5 2.49 0 4.05-1.08 5.07-2.64 0 1.53.72 2.46 2.82 2.46h1.71v-2.82h-.66zm-4.2-3.48c-.03 2.37-1.59 3.96-4.29 3.96-1.77 0-2.85-.9-2.85-2.19 0-1.56 1.11-2.31 3.12-2.31h4.02v.54zm18.177-6.93c-.99-1.35-2.64-2.31-4.98-2.31-4.17 0-7.26 3.12-7.26 7.86 0 4.92 3.09 7.86 7.26 7.86 2.43 0 4.02-1.14 5.01-2.49l.39 2.31h2.82V37h-3.24v7.77zm-4.44 10.68c-2.7 0-4.47-2.1-4.47-5.13 0-3 1.77-5.1 4.47-5.1 2.7 0 4.47 2.1 4.47 5.16 0 2.97-1.77 5.07-4.47 5.07zm12.496-14.97c1.11 0 1.98-.81 1.98-1.95s-.87-1.95-1.98-1.95c-1.11 0-1.98.81-1.98 1.95s.87 1.95 1.98 1.95zM56.404 58h3.24V42.64h-3.24V58zm14.517-15.54c-2.49 0-3.96.99-4.92 2.19l-.36-2.01h-2.82V58h3.24v-7.74c0-3.12 1.53-5.01 4.11-5.01 2.43 0 3.66 1.56 3.66 4.47V58h3.27v-8.55c0-5.13-2.79-6.99-6.18-6.99zm20.856 2.58c-.99-1.53-2.64-2.58-5.04-2.58-4.17 0-7.26 3.09-7.26 7.8 0 4.89 3.09 7.8 7.26 7.8 2.4 0 3.99-.99 5.01-2.52v1.71c0 2.94-1.59 4.29-4.41 4.29-2.28 0-3.78-.99-4.17-2.7h-3.3c.3 3.45 3.15 5.34 7.23 5.34 5.52 0 7.86-2.64 7.86-6.81V42.64h-2.82l-.36 2.4zm-4.5 10.29c-2.7 0-4.47-2.07-4.47-5.07 0-2.97 1.77-5.07 4.47-5.07 2.7 0 4.47 2.1 4.47 5.13 0 2.94-1.77 5.01-4.47 5.01zm25.782 2.85c4.68 0 7.83-3.15 7.83-7.86 0-4.68-3.15-7.86-7.83-7.86s-7.83 3.18-7.83 7.86c0 4.71 3.15 7.86 7.83 7.86zm0-2.76c-2.73 0-4.5-2.13-4.5-5.1 0-2.97 1.77-5.1 4.5-5.1s4.53 2.13 4.53 5.1c0 2.97-1.8 5.1-4.53 5.1zm18.535-12.96c-2.49 0-3.96.99-4.92 2.19l-.36-2.01h-2.82V58h3.24v-7.74c0-3.12 1.53-5.01 4.11-5.01 2.43 0 3.66 1.56 3.66 4.47V58h3.27v-8.55c0-5.13-2.79-6.99-6.18-6.99zM148.607 49c0 5.97 2.82 9.18 8.25 9.18 5.46 0 8.31-3.21 8.31-9.18V37h-3.45v12.18c0 3.9-1.5 5.94-4.86 5.94-3.3 0-4.8-2.04-4.8-5.94V37h-3.45v12zm19.436 2.1c.12 4.2 3.27 7.08 8.49 7.08 4.62 0 7.77-2.61 7.77-6.39.03-4.14-3.36-5.25-6.84-5.88-3.3-.57-5.46-1.02-5.46-3.18 0-1.98 1.65-3 4.02-3 2.55 0 4.23 1.44 4.5 3.57h3.45c-.15-3.87-3.15-6.48-7.95-6.48-4.47 0-7.47 2.49-7.47 6.15 0 4.17 3.3 5.28 6.78 5.88 3.33.6 5.52 1.08 5.52 3.3 0 2.01-1.8 3.12-4.29 3.12-2.94 0-4.86-1.65-5.04-4.11l-3.48-.06zM.93 88.93c.09 3.33 2.91 5.25 7.02 5.25 3.72 0 6.51-1.86 6.51-4.8 0-3.42-2.85-4.14-6.36-4.56-2.22-.24-3.69-.42-3.69-1.86 0-1.23 1.26-2.01 3.18-2.01 1.92 0 3.24.99 3.42 2.4h3.18c-.21-3.15-2.88-4.89-6.66-4.89-3.69-.03-6.3 1.86-6.3 4.77 0 3.18 2.76 3.93 6.27 4.35 2.37.3 3.78.42 3.78 2.07 0 1.23-1.32 2.01-3.33 2.01-2.34 0-3.72-1.14-3.84-2.73H.93zm17.15.9c0 2.79 1.26 4.17 4.2 4.17h3v-2.85H23c-1.23 0-1.65-.45-1.65-1.65v-8.01h3.75v-2.85h-3.75v-4.29h-3.27v4.29h-2.67v2.85h2.67v8.34zm16.2 4.35c4.68 0 7.83-3.15 7.83-7.86 0-4.68-3.15-7.86-7.83-7.86s-7.83 3.18-7.83 7.86c0 4.71 3.15 7.86 7.83 7.86zm0-2.76c-2.73 0-4.5-2.13-4.5-5.1 0-2.97 1.77-5.1 4.5-5.1s4.53 2.13 4.53 5.1c0 2.97-1.8 5.1-4.53 5.1zm17.485 2.76c3.93 0 6.54-2.19 7.14-5.67h-3.42c-.39 1.77-1.71 2.91-3.69 2.91-2.61 0-4.32-2.07-4.32-5.07 0-3.03 1.71-5.13 4.32-5.13 2.01 0 3.3 1.11 3.72 2.91h3.39c-.63-3.48-3.09-5.67-7.05-5.67-4.65 0-7.71 3.15-7.71 7.89 0 4.8 2.97 7.83 7.62 7.83zm9.62-.18h3.24v-3.9l2.76-2.88 4.53 6.78h3.84l-6.15-9.15 5.79-6.21h-3.81l-6.96 7.44V73h-3.24v21zm14.691-5.07c.09 3.33 2.91 5.25 7.02 5.25 3.72 0 6.51-1.86 6.51-4.8 0-3.42-2.85-4.14-6.36-4.56-2.22-.24-3.69-.42-3.69-1.86 0-1.23 1.26-2.01 3.18-2.01 1.92 0 3.24.99 3.42 2.4h3.18c-.21-3.15-2.88-4.89-6.66-4.89-3.69-.03-6.3 1.86-6.3 4.77 0 3.18 2.76 3.93 6.27 4.35 2.37.3 3.78.42 3.78 2.07 0 1.23-1.32 2.01-3.33 2.01-2.34 0-3.72-1.14-3.84-2.73h-3.18z" fill="#000"/></svg>