<svg width="122" height="57" viewBox="0 0 122 57" fill="none" xmlns="http://www.w3.org/2000/svg"><path d="M.36 2.236h3.888V13h2.07V2.236h3.888V.4H.36v1.836zm12.043.252c.666 0 1.188-.486 1.188-1.17 0-.684-.522-1.17-1.188-1.17-.666 0-1.188.486-1.188 1.17 0 .684.522 1.17 1.188 1.17zM11.413 13h1.944V3.784h-1.944V13zm14.452-9.324c-1.512 0-2.556.666-3.15 1.674-.558-1.188-1.638-1.674-2.844-1.674-1.386.018-2.178.63-2.7 1.314l-.216-1.206h-1.692V13h1.944V8.068c0-1.638.828-2.718 2.16-2.718 1.278 0 1.944.846 1.944 2.466V13h1.962V8.014c0-1.656.846-2.664 2.178-2.664 1.26 0 1.926.846 1.926 2.466V13h1.944V7.69c0-2.916-1.548-4.014-3.456-4.014zm9.522 9.432c2.286 0 3.834-1.386 4.158-3.204H37.6c-.27 1.026-1.134 1.62-2.322 1.62-1.53 0-2.52-1.026-2.574-2.592v-.126h6.948a5.28 5.28 0 00.054-.738c-.054-2.7-1.836-4.392-4.5-4.392-2.718 0-4.536 1.89-4.536 4.734 0 2.826 1.818 4.698 4.716 4.698zm-2.61-5.724c.144-1.314 1.206-2.142 2.448-2.142 1.35 0 2.304.774 2.466 2.142h-4.914zm13.773 3.114c0 1.674.756 2.502 2.52 2.502h1.8v-1.71h-1.368c-.738 0-.99-.27-.99-.99V5.494h2.25v-1.71h-2.25V1.21H46.55v2.574h-1.602v1.71h1.602v5.004zm9.719 2.61c2.808 0 4.698-1.89 4.698-4.716 0-2.808-1.89-4.716-4.698-4.716-2.808 0-4.698 1.908-4.698 4.716 0 2.826 1.89 4.716 4.698 4.716zm0-1.656c-1.638 0-2.7-1.278-2.7-3.06s1.062-3.06 2.7-3.06c1.638 0 2.718 1.278 2.718 3.06s-1.08 3.06-2.718 3.06zM1.62 30.498c0 1.674.756 2.502 2.52 2.502h1.8v-1.71H4.572c-.738 0-.99-.27-.99-.99v-4.806h2.25v-1.71h-2.25V21.21H1.62v2.574H.018v1.71H1.62v5.004zm10.219-6.714c-1.512 0-2.25.612-2.718 1.386l-.216-1.386H7.177V33H9.12v-4.626c0-1.422.558-2.772 2.286-2.772h.864v-1.818h-.432zm9.773 7.524c-.396 0-.594-.126-.594-.594v-3.69c0-2.178-1.404-3.348-3.852-3.348-2.322 0-3.87 1.116-4.068 2.916h1.908c.144-.81.918-1.35 2.07-1.35 1.278 0 2.016.63 2.016 1.656v.558H16.77c-2.574 0-3.942 1.062-3.942 2.952 0 1.71 1.404 2.7 3.42 2.7 1.494 0 2.43-.648 3.042-1.584 0 .918.432 1.476 1.692 1.476h1.026v-1.692h-.396zm-2.52-2.088c-.018 1.422-.954 2.376-2.574 2.376-1.062 0-1.71-.54-1.71-1.314 0-.936.666-1.386 1.872-1.386h2.412v.324zM30 25.062c-.594-.81-1.584-1.386-2.988-1.386-2.502 0-4.356 1.872-4.356 4.716 0 2.952 1.854 4.716 4.356 4.716 1.458 0 2.412-.684 3.006-1.494L30.251 33h1.692V20.4h-1.944v4.662zm-2.664 6.408c-1.62 0-2.682-1.26-2.682-3.078 0-1.8 1.062-3.06 2.682-3.06 1.62 0 2.682 1.26 2.682 3.096 0 1.782-1.062 3.042-2.682 3.042zm10.882 1.638c2.286 0 3.834-1.386 4.158-3.204H40.43c-.27 1.026-1.134 1.62-2.322 1.62-1.53 0-2.52-1.026-2.574-2.592v-.126h6.948a5.28 5.28 0 00.054-.738c-.054-2.7-1.836-4.392-4.5-4.392-2.718 0-4.536 1.89-4.536 4.734 0 2.826 1.818 4.698 4.716 4.698zm-2.61-5.724c.144-1.314 1.206-2.142 2.448-2.142 1.35 0 2.304.774 2.466 2.142h-4.914zm17.463 5.724c2.808 0 4.698-1.89 4.698-4.716 0-2.808-1.89-4.716-4.698-4.716-2.808 0-4.698 1.908-4.698 4.716 0 2.826 1.89 4.716 4.698 4.716zm0-1.656c-1.638 0-2.7-1.278-2.7-3.06s1.062-3.06 2.7-3.06c1.638 0 2.718 1.278 2.718 3.06s-1.08 3.06-2.718 3.06zm11.121-7.776c-1.494 0-2.376.594-2.952 1.314l-.216-1.206h-1.692V33h1.944v-4.644c0-1.872.918-3.006 2.466-3.006 1.458 0 2.196.936 2.196 2.682V33h1.962v-5.13c0-3.078-1.674-4.194-3.708-4.194zM1.152 53H3.15v-9.27L6.93 53h1.746l3.78-9.27V53h1.998V40.4h-2.628l-3.96 9.918L3.834 40.4H1.152V53zm19.785.108c2.286 0 3.834-1.386 4.158-3.204h-1.944c-.27 1.026-1.134 1.62-2.322 1.62-1.53 0-2.52-1.026-2.574-2.592v-.126h6.948a5.28 5.28 0 00.054-.738c-.054-2.7-1.836-4.392-4.5-4.392-2.718 0-4.536 1.89-4.536 4.734 0 2.826 1.818 4.698 4.716 4.698zm-2.61-5.724c.144-1.314 1.206-2.142 2.448-2.142 1.35 0 2.304.774 2.466 2.142h-4.914zm9.098 3.114c0 1.674.756 2.502 2.52 2.502h1.8v-1.71h-1.368c-.738 0-.99-.27-.99-.99v-4.806h2.25v-1.71h-2.25V41.21h-1.962v2.574h-1.602v1.71h1.602v5.004zm13.875.81c-.396 0-.594-.126-.594-.594v-3.69c0-2.178-1.404-3.348-3.852-3.348-2.322 0-3.87 1.116-4.068 2.916h1.908c.144-.81.918-1.35 2.07-1.35 1.278 0 2.016.63 2.016 1.656v.558h-2.322c-2.574 0-3.942 1.062-3.942 2.952 0 1.71 1.404 2.7 3.42 2.7 1.494 0 2.43-.648 3.042-1.584 0 .918.432 1.476 1.692 1.476h1.026v-1.692H41.3zm-2.52-2.088c-.018 1.422-.954 2.376-2.574 2.376-1.062 0-1.71-.54-1.71-1.314 0-.936.666-1.386 1.872-1.386h2.412v.324zM49.844 53h2.376l3.402-9.216H53.57l-2.502 7.128-2.538-7.128h-2.088L49.844 53zm10.697.108c2.808 0 4.698-1.89 4.698-4.716 0-2.808-1.89-4.716-4.699-4.716-2.807 0-4.697 1.908-4.697 4.716 0 2.826 1.89 4.716 4.697 4.716zm0-1.656c-1.638 0-2.7-1.278-2.7-3.06s1.062-3.06 2.7-3.06c1.638 0 2.718 1.278 2.718 3.06s-1.08 3.06-2.718 3.06zM66.8 53h1.945V40.4h-1.944V53zm12.274-1.692c-.396 0-.594-.126-.594-.594v-3.69c0-2.178-1.404-3.348-3.852-3.348-2.322 0-3.87 1.116-4.068 2.916h1.908c.144-.81.918-1.35 2.07-1.35 1.278 0 2.016.63 2.016 1.656v.558h-2.322c-2.574 0-3.942 1.062-3.942 2.952 0 1.71 1.404 2.7 3.42 2.7 1.494 0 2.43-.648 3.042-1.584 0 .918.432 1.476 1.692 1.476h1.026v-1.692h-.396zm-2.52-2.088c-.018 1.422-.954 2.376-2.574 2.376-1.062 0-1.71-.54-1.71-1.314 0-.936.666-1.386 1.872-1.386h2.412v.324zm4.641 1.278c0 1.674.756 2.502 2.52 2.502h1.8v-1.71h-1.368c-.738 0-.99-.27-.99-.99v-4.806h2.25v-1.71h-2.25V41.21h-1.962v2.574h-1.602v1.71h1.602v5.004zm6.547-8.01c.666 0 1.188-.486 1.188-1.17 0-.684-.522-1.17-1.188-1.17-.666 0-1.188.486-1.188 1.17 0 .684.522 1.17 1.188 1.17zM86.753 53h1.944v-9.216h-1.944V53zm3.85 0h1.943V40.4h-1.944V53zm4.839-10.512c.666 0 1.188-.486 1.188-1.17 0-.684-.522-1.17-1.188-1.17-.666 0-1.188.486-1.188 1.17 0 .684.522 1.17 1.188 1.17zM94.452 53h1.944v-9.216h-1.944V53zm4.516-2.502c0 1.674.756 2.502 2.52 2.502h1.8v-1.71h-1.368c-.738 0-.99-.27-.99-.99v-4.806h2.25v-1.71h-2.25V41.21h-1.962v2.574h-1.602v1.71h1.602v5.004zm8.22 2.556l-.36.9c-.288.756-.468.936-1.224.936h-1.368v1.71h2.088c1.35 0 1.746-.666 2.322-2.16l4.176-10.656h-2.07l-2.502 7.002-2.574-7.002h-2.07l3.582 9.27zm8.447-8.532c0-1.494.9-2.502 2.286-2.502 1.206 0 2.016.72 2.016 1.746 0 .864-.468 1.44-1.278 1.98-1.08.702-1.926 1.296-1.926 2.754v.576h1.836v-.36c0-.9.612-1.368 1.584-2.034.936-.666 1.8-1.458 1.8-3.114 0-1.89-1.548-3.276-4.05-3.276-2.682 0-4.248 1.89-4.248 4.23h1.98zm.828 7.38c0 .72.54 1.206 1.242 1.206s1.224-.486 1.224-1.206-.522-1.206-1.224-1.206-1.242.486-1.242 1.206z" fill="#000"/></svg>