<svg width="129" height="14" viewBox="0 0 129 14" fill="none" xmlns="http://www.w3.org/2000/svg"><rect x="1" y=".858" width="127" height="12" rx="6" fill="#fff"/><circle cx="10.173" cy="6.858" r="2.758" fill="#4FC706"/><path d="M14.919 9.358h1.116v-1.31h.6l.626 1.31h1.226l-.771-1.584c.382-.248.63-.673.63-1.195 0-.892-.66-1.468-1.637-1.468h-1.79v4.247zm1.699-3.337c.364 0 .588.212.588.558 0 .346-.224.558-.588.558h-.583V6.021h.583zm2.265 3.337h2.997v-.946H20v-.74h1.45v-.887H20v-.728h1.813v-.946h-2.93v4.247zm3.513 0h1.117v-1.31h.667c.965 0 1.608-.577 1.608-1.469 0-.892-.643-1.468-1.608-1.468h-1.784v4.247zm1.681-3.337c.352 0 .576.212.576.558 0 .346-.224.558-.576.558h-.564V6.021h.564zm6.302 1.213c0-1.231-.867-2.16-2.148-2.16-1.28 0-2.148.929-2.148 2.16 0 1.232.868 2.16 2.148 2.16 1.28 0 2.148-.928 2.148-2.16zm-3.155 0c0-.71.389-1.237 1.007-1.237.62 0 1.007.528 1.007 1.237 0 .71-.388 1.238-1.007 1.238-.619 0-1.007-.528-1.007-1.238zm3.645 2.124h1.117v-1.31h.6l.625 1.31h1.226l-.77-1.584c.381-.248.63-.673.63-1.195 0-.892-.661-1.468-1.638-1.468h-1.79v4.247zm1.699-3.337c.364 0 .589.212.589.558 0 .346-.225.558-.589.558h-.582V6.021h.582zm1.899.036h1.146v3.301h1.117v-3.3h1.147V5.11h-3.41v.946zm3.496 1.9c0 .88.71 1.437 1.809 1.437 1.05 0 1.729-.564 1.735-1.389.006-.874-.6-1.086-1.347-1.232-.74-.145-.977-.2-.977-.455 0-.26.23-.382.534-.382.376 0 .582.212.607.498h1.086c0-.838-.662-1.36-1.693-1.36-1.013 0-1.657.559-1.657 1.33 0 .885.59 1.11 1.323 1.261.746.152 1.001.207 1.001.467 0 .273-.255.407-.594.407-.455 0-.716-.237-.74-.558l-1.087-.025zm5.391-2.36h1.377v3.761h.528V5.596h1.378v-.485h-3.283v.485zm5.26.63c-.52 0-.836.255-1.018.546V5.111h-.498v4.247h.498V7.811c0-.698.358-1.129.934-1.129.534 0 .843.34.843.983v1.693h.498V7.635c0-1.025-.564-1.408-1.256-1.408zm4.057 1.584c0 .698-.34 1.128-.904 1.128-.516 0-.807-.34-.807-.983V6.264h-.497v1.723c0 1.025.54 1.407 1.22 1.407.509 0 .806-.218.988-.449l.067.413h.43V6.264h-.497V7.81zm2.608-1.547c-.553 0-.79.23-.935.467l-.066-.467h-.431v3.094h.497V7.781c0-.492.176-1.032.825-1.032h.25v-.485h-.14zm.378 2.075c.012.68.564 1.055 1.365 1.055.686 0 1.238-.358 1.238-.934 0-.686-.564-.819-1.268-.904-.45-.055-.777-.097-.777-.437 0-.285.291-.467.722-.467.425 0 .716.237.752.552h.51c-.048-.643-.558-.97-1.262-.977-.698-.006-1.213.364-1.213.929 0 .643.552.782 1.243.867.462.055.801.085.801.473 0 .286-.31.474-.746.474-.516 0-.837-.267-.855-.631h-.51zm5.594-1.602c-.188-.297-.54-.51-1.062-.51-.855 0-1.486.637-1.486 1.584 0 1.007.63 1.583 1.486 1.583.522 0 .856-.248 1.062-.534l.067.498h.43V5.111h-.497v1.626zM60.238 8.95c-.613 0-1.026-.467-1.026-1.14 0-.674.413-1.14 1.026-1.14.606 0 1.02.472 1.02 1.152 0 .661-.414 1.128-1.02 1.128zm4.925-.048c-.14 0-.2-.043-.2-.206V7.344c0-.722-.456-1.117-1.244-1.117-.747 0-1.238.358-1.31.965h.497c.06-.316.352-.522.788-.522.486 0 .77.243.77.643v.213h-.91c-.812 0-1.243.346-1.243.964 0 .565.461.904 1.14.904.535 0 .844-.236 1.038-.515.006.303.146.479.558.479h.273v-.455h-.157zm-.698-.807c0 .516-.358.874-.977.874-.413 0-.673-.207-.673-.51 0-.352.248-.516.691-.516h.959v.152zm2.023 1.28l-.151.376c-.116.292-.164.364-.45.364h-.442v.456h.594c.437 0 .552-.195.746-.692l1.426-3.616h-.528l-.922 2.47-.952-2.47h-.528l1.207 3.112zm3.955-.018l.45-1.147h1.85l.449 1.147h.564l-1.614-4.247h-.625l-1.62 4.247h.546zm1.372-3.67l.77 2.044H71.05l.765-2.045zm3.908.54c-.522 0-.855.248-1.062.533l-.066-.497h-.431v4.308h.497V8.885c.188.297.54.51 1.062.51.856 0 1.487-.638 1.487-1.584 0-1.007-.631-1.584-1.487-1.584zm-.048 2.723c-.607 0-1.02-.473-1.02-1.152 0-.662.413-1.129 1.02-1.129.612 0 1.025.467 1.025 1.14 0 .674-.413 1.141-1.025 1.141zm3.535-2.687c-.552 0-.789.23-.934.467l-.067-.467h-.43v3.094h.497V7.781c0-.492.176-1.032.825-1.032h.249v-.485h-.14zm.826-.522a.313.313 0 00.321-.322.313.313 0 00-.321-.321.312.312 0 00-.322.321c0 .188.14.322.322.322zm-.255 3.616h.497V6.264h-.497v3.094zm1.179 0h.497V5.111h-.497v4.247zm2.56 0h2.925v-.467h-2.22l1.274-1.08c.503-.43.916-.831.916-1.468 0-.765-.534-1.268-1.45-1.268-.856 0-1.42.57-1.42 1.37v.11h.51v-.079c0-.582.364-.946.91-.946.564 0 .928.303.928.837 0 .461-.328.789-.722 1.128l-1.65 1.432v.431zm3.139-3.78h2.439l-2.081 3.78h.552l2.087-3.89v-.357h-2.997v.467zm6.986 2.263v-.418h-2.02v.418h2.02zm1.98.48h2.226v1.037h.51V8.32h.685v-.467h-.685V5.111h-.57l-2.167 2.754v.455zm2.226-2.585v2.117h-1.656l1.656-2.117zm4.331 3.167c-.139 0-.2-.043-.2-.206V7.344c0-.722-.455-1.117-1.244-1.117-.746 0-1.237.358-1.31.965h.497c.061-.316.352-.522.789-.522.486 0 .771.243.771.643v.213h-.91c-.813 0-1.244.346-1.244.964 0 .565.46.904 1.14.904.534 0 .844-.236 1.038-.515.006.303.146.479.558.479h.273v-.455h-.158zm-.697-.807c0 .516-.358.874-.977.874-.413 0-.674-.207-.674-.51 0-.352.249-.516.692-.516h.959v.152zm4.69-1.869c-.552 0-.886.255-1.074.589-.176-.395-.546-.589-.977-.589-.479 0-.74.237-.904.461l-.067-.424h-.43v3.094h.497V7.726c0-.619.31-1.044.819-1.044.474 0 .747.316.747.923v1.753h.497V7.702c0-.631.316-1.02.831-1.02.467 0 .734.316.734.923v1.753h.498V7.574c0-.977-.528-1.347-1.171-1.347zm3.3 1.742c.03.837.637 1.425 1.675 1.425.891 0 1.51-.515 1.51-1.25 0-.825-.71-1.055-1.401-1.17-.637-.11-1.153-.213-1.153-.722 0-.455.37-.698.922-.698.577 0 .971.321 1.032.813h.546c-.049-.765-.631-1.292-1.578-1.292-.861 0-1.45.485-1.45 1.207 0 .825.704 1.05 1.39 1.165.643.109 1.164.218 1.164.746 0 .461-.406.722-.976.722-.65 0-1.092-.376-1.135-.946h-.546zm5.694 1.425c.728 0 1.183-.345 1.377-.655l.036.619h.455v-2.3h-1.789v.486h1.274v.146c0 .752-.565 1.219-1.347 1.219-.88 0-1.463-.692-1.463-1.675 0-.982.583-1.674 1.475-1.674.643 0 1.098.346 1.244.934h.564c-.146-.873-.856-1.42-1.796-1.42-1.232 0-2.026.874-2.026 2.16 0 1.287.819 2.16 1.996 2.16zm2.035-3.798h1.378v3.762h.527V5.596h1.378v-.485h-3.283v.485z" fill="#000"/><rect x="1" y=".858" width="127" height="12" rx="6" stroke="#000" stroke-width=".552" stroke-miterlimit="0" stroke-linejoin="bevel"/></svg>