<svg width="171" height="13" viewBox="0 0 171 13" fill="none" xmlns="http://www.w3.org/2000/svg"><path d="M4.784 9.578c1.443 0 2.379-.65 2.821-1.3l.13 1.222h1.157V4.521H4.94v1.261h2.522v.221c-.078 1.469-1.209 2.262-2.613 2.262-1.742 0-2.834-1.365-2.834-3.315s1.118-3.315 2.847-3.315c1.261 0 2.132.702 2.405 1.859h1.547C8.541 1.57 7.007.322 4.901.322 2.197.322.481 2.181.481 4.95s1.755 4.628 4.303 4.628zm8.789 0c1.65 0 2.769-1.001 3.003-2.314h-1.404c-.195.741-.82 1.17-1.677 1.17-1.105 0-1.82-.741-1.86-1.872v-.091h5.019c.026-.182.039-.364.039-.533-.04-1.95-1.326-3.172-3.25-3.172-1.963 0-3.276 1.365-3.276 3.419 0 2.041 1.313 3.393 3.406 3.393zm-1.885-4.134c.104-.949.87-1.547 1.768-1.547.975 0 1.664.559 1.78 1.547h-3.548zm6.57 2.249c0 1.209.546 1.807 1.82 1.807h1.3V8.265h-.988c-.533 0-.715-.195-.715-.715V4.079H21.3V2.844h-1.625V.985h-1.417v1.859H17.1v1.235h1.157v3.614zm10.901-4.927c-1.04 0-1.729.481-2.17 1.066l-.17-.988h-1.222V12.1h1.404V8.564c.416.598 1.131 1.014 2.158 1.014 1.82 0 3.146-1.352 3.146-3.406 0-2.132-1.326-3.406-3.146-3.406zm-.234 5.629c-1.17 0-1.937-.923-1.937-2.249 0-1.287.767-2.184 1.937-2.184s1.95.897 1.95 2.21c0 1.3-.78 2.223-1.95 2.223zm10.59-.117c-.287 0-.43-.091-.43-.429V5.184c0-1.573-1.014-2.418-2.782-2.418-1.677 0-2.795.806-2.938 2.106h1.378c.104-.585.663-.975 1.495-.975.923 0 1.456.455 1.456 1.196v.403h-1.677c-1.859 0-2.847.767-2.847 2.132 0 1.235 1.014 1.95 2.47 1.95 1.08 0 1.755-.468 2.197-1.144 0 .663.312 1.066 1.222 1.066h.741V8.278h-.286zm-1.82-1.508c-.014 1.027-.69 1.716-1.86 1.716-.767 0-1.235-.39-1.235-.949 0-.676.481-1.001 1.352-1.001h1.742v.234zm3.585-4.862c.481 0 .858-.351.858-.845s-.377-.845-.858-.845-.858.351-.858.845.377.845.858.845zM40.565 9.5h1.404V2.844h-1.404V9.5zm7.837-5.733c-.429-.585-1.144-1.001-2.158-1.001-1.807 0-3.146 1.352-3.146 3.406 0 2.132 1.34 3.406 3.146 3.406 1.053 0 1.742-.494 2.171-1.079l.17 1.001h1.221V.4h-1.404v3.367zm-1.924 4.628c-1.17 0-1.937-.91-1.937-2.223 0-1.3.767-2.21 1.937-2.21s1.937.91 1.937 2.236c0 1.287-.767 2.197-1.937 2.197zm7.35-4.316h1.157V9.5h1.417V4.079h1.781V2.844h-1.807v-.559c0-.455.195-.65.65-.65h1.157V.4h-1.339c-1.287 0-1.859.624-1.859 1.82v.624h-1.157v1.235zm8.449-1.235c-1.092 0-1.625.442-1.963 1.001l-.156-1.001H58.91V9.5h1.404V6.159c0-1.027.403-2.002 1.65-2.002h.625V2.844h-.312zm4.006 6.734c2.028 0 3.393-1.365 3.393-3.406 0-2.028-1.365-3.406-3.393-3.406-2.028 0-3.393 1.378-3.393 3.406 0 2.041 1.365 3.406 3.393 3.406zm0-1.196c-1.183 0-1.95-.923-1.95-2.21s.767-2.21 1.95-2.21c1.183 0 1.963.923 1.963 2.21s-.78 2.21-1.963 2.21zm12.18-5.616c-1.093 0-1.847.481-2.276 1.209-.403-.858-1.183-1.209-2.054-1.209-1 .013-1.573.455-1.95.949l-.156-.871h-1.222V9.5h1.404V5.938c0-1.183.598-1.963 1.56-1.963.923 0 1.404.611 1.404 1.781V9.5h1.417V5.899c0-1.196.611-1.924 1.573-1.924.91 0 1.391.611 1.391 1.781V9.5h1.404V5.665c0-2.106-1.118-2.899-2.496-2.899zm9.018 6.773l-.26.65c-.208.546-.338.676-.884.676h-.988V12.1h1.508c.975 0 1.261-.481 1.677-1.56l3.016-7.696h-1.495l-1.807 5.057-1.859-5.057h-1.495l2.587 6.695zm7.62.039c2.029 0 3.394-1.365 3.394-3.406 0-2.028-1.365-3.406-3.393-3.406-2.028 0-3.393 1.378-3.393 3.406 0 2.041 1.365 3.406 3.393 3.406zm0-1.196c-1.182 0-1.95-.923-1.95-2.21s.768-2.21 1.95-2.21c1.184 0 1.964.923 1.964 2.21s-.78 2.21-1.963 2.21zm9.086-2.21c0 1.378-.65 2.184-1.716 2.184-1.027 0-1.547-.663-1.547-1.963V2.844H99.52v3.705c0 2.275 1.209 3.029 2.626 3.029 1.027 0 1.638-.416 2.054-.923l.156.845h1.235V2.844h-1.404v3.328zm6.154-3.328c-1.092 0-1.625.442-1.963 1.001l-.156-1.001h-1.248V9.5h1.404V6.159c0-1.027.403-2.002 1.651-2.002h.624V2.844h-.312zm9.561-.936c.481 0 .858-.351.858-.845s-.377-.845-.858-.845-.858.351-.858.845.377.845.858.845zm-3.159.936v-.559c0-.455.182-.65.637-.65h.988V.4h-1.183c-1.287 0-1.859.611-1.859 1.781v.663h-1.157v1.235h1.157V9.5h1.417V4.079h2.444V9.5h1.417V2.844h-3.861zm8.591 0c-1.092 0-1.625.442-1.963 1.001l-.156-1.001h-1.248V9.5h1.404V6.159c0-1.027.403-2.002 1.651-2.002h.624V2.844h-.312zm.778 4.459c.039 1.443 1.261 2.275 3.042 2.275 1.612 0 2.821-.806 2.821-2.08 0-1.482-1.235-1.794-2.756-1.976-.962-.104-1.599-.182-1.599-.806 0-.533.546-.871 1.378-.871.832 0 1.404.429 1.482 1.04h1.378c-.091-1.365-1.248-2.119-2.886-2.119-1.599-.013-2.73.806-2.73 2.067 0 1.378 1.196 1.703 2.717 1.885 1.027.13 1.638.182 1.638.897 0 .533-.572.871-1.443.871-1.014 0-1.612-.494-1.664-1.183h-1.378zm7.432.39c0 1.209.546 1.807 1.82 1.807h1.3V8.265h-.988c-.533 0-.715-.195-.715-.715V4.079h1.625V2.844h-1.625V.985h-1.417v1.859h-1.157v1.235h1.157v3.614zm7.82 0c0 1.209.546 1.807 1.82 1.807h1.3V8.265h-.988c-.533 0-.715-.195-.715-.715V4.079h1.625V2.844h-1.625V.985h-1.417v1.859h-1.157v1.235h1.157v3.614zm7.38-4.849c-1.092 0-1.625.442-1.963 1.001l-.156-1.001h-1.248V9.5h1.404V6.159c0-1.027.403-2.002 1.651-2.002h.624V2.844h-.312zm7.059 5.434c-.286 0-.429-.091-.429-.429V5.184c0-1.573-1.014-2.418-2.782-2.418-1.677 0-2.795.806-2.938 2.106h1.378c.104-.585.663-.975 1.495-.975.923 0 1.456.455 1.456 1.196v.403h-1.677c-1.859 0-2.847.767-2.847 2.132 0 1.235 1.014 1.95 2.47 1.95 1.079 0 1.755-.468 2.197-1.144 0 .663.312 1.066 1.222 1.066h.741V8.278h-.286zm-1.82-1.508c-.013 1.027-.689 1.716-1.859 1.716-.767 0-1.235-.39-1.235-.949 0-.676.481-1.001 1.352-1.001h1.742v.234zm7.877-3.003c-.429-.585-1.144-1.001-2.158-1.001-1.807 0-3.146 1.352-3.146 3.406 0 2.132 1.339 3.406 3.146 3.406 1.053 0 1.742-.494 2.171-1.079l.169 1.001h1.222V.4h-1.404v3.367zm-1.924 4.628c-1.17 0-1.937-.91-1.937-2.223 0-1.3.767-2.21 1.937-2.21s1.937.91 1.937 2.236c0 1.287-.767 2.197-1.937 2.197zm7.859 1.183c1.651 0 2.769-1.001 3.003-2.314h-1.404c-.195.741-.819 1.17-1.677 1.17-1.105 0-1.82-.741-1.859-1.872v-.091h5.018c.026-.182.039-.364.039-.533-.039-1.95-1.326-3.172-3.25-3.172-1.963 0-3.276 1.365-3.276 3.419 0 2.041 1.313 3.393 3.406 3.393zm-1.885-4.134c.104-.949.871-1.547 1.768-1.547.975 0 1.664.559 1.781 1.547h-3.549z" fill="#000"/></svg>