<svg width="138" height="44" viewBox="0 0 138 44" fill="none" xmlns="http://www.w3.org/2000/svg"><path fill="#fff" d="M0 0h138v44H0z"/><path d="M9.11 29.907c-3.67 0-6.101-.615-7.915-1.393L.124 22.287h.783l.783 1.475c1.855 3.523 4.122 5.08 7.75 5.08 4.162 0 6.512-2.049 6.512-5.408 0-2.99-1.732-4.507-6.678-6.227C3.668 15.28.866 13.15.866 8.357.866 3.483 5.276 0 10.758 0c3.421 0 5.4.45 7.296 1.229l1.03 6.473h-.824l-.742-1.516c-1.69-3.523-3.833-5.12-7.09-5.12-3.42 0-5.44 2.048-5.44 4.956 0 3.032 1.648 4.384 6.347 5.982 6.183 2.048 8.78 4.383 8.78 9.136.04 5.203-5.029 8.767-11.006 8.767zM34.995 27.367c-1.731 1.475-3.504 2.458-5.73 2.458-3.297 0-5.028-1.475-5.028-4.998V11.225h-3.05v-.778l3.256-1.23 3.215-6.39h1.319v6.555H34.5v1.843h-5.523v13.52c0 2.007.989 2.99 2.596 2.99 1.113 0 1.855-.286 2.886-1.024l.536.656zM46.577 29.989c-5.977 0-10.387-3.77-10.387-10.775 0-5.94 4.287-10.488 10.428-10.488 5.936 0 10.387 3.77 10.387 10.775-.04 5.94-4.369 10.488-10.428 10.488zM46 9.79c-2.926 0-4.575 2.213-4.575 8.235 0 6.596 2.143 10.898 5.688 10.898 2.968 0 4.575-2.213 4.575-8.235 0-6.596-2.102-10.898-5.688-10.898zM82.355 29.538c-.948 0-3.38-.04-5.235-.04-1.814 0-4.245.04-5.276.04v-.655l.7-.123c1.856-.328 2.185-.902 2.185-4.63V16.1c0-3.113-1.36-4.629-3.792-4.629-1.69 0-3.091.656-4.328 1.557V24.13c0 3.77.289 4.302 2.185 4.63l.7.123v.655c-1.03 0-3.42-.04-5.275-.04-1.855 0-4.287.04-5.276.04v-.655l.824-.123c1.731-.246 2.061-.902 2.061-4.998v-8.85c0-2.212-.371-2.826-1.896-3.523l-1.03-.491v-.451l7.171-1.557.578.369v2.868C68.918 10.2 71.02 8.93 73.699 8.93c3.833 0 5.853 2.049 5.853 6.35v8.603c0 4.18.33 4.67 2.102 4.999l.742.123-.041.532zM88.332 17.453v.286c.123 5.818 3.297 9.423 7.584 9.423 2.35 0 3.998-.86 5.729-2.581l.577.41c-2.226 3.072-5.11 4.998-8.82 4.998-5.441 0-9.522-3.687-9.522-10.037 0-6.842 5.194-11.185 10.18-11.185 5.524 0 8.203 3.073 8.327 8.727l-14.055-.041zm9.026-1.148c-.123-4.301-1.69-6.473-4.163-6.473-2.802 0-4.575 2.377-4.863 6.473h9.026zM132.518 29.538c-.742 0-4.452-.082-5.894-.082-1.525 0-6.142.082-6.925.082v-.573l1.319-.205c1.278-.205 1.814-.533 1.814-1.311 0-.656-.413-1.475-1.319-2.868l-4.617-7.006-4.616 6.31c-1.072 1.474-1.567 2.58-1.567 3.4 0 .82.495 1.31 1.773 1.516l1.36.205v.573c-.742 0-4.04-.082-5.523-.082-1.484 0-3.834.082-4.617.082v-.614l.701-.123c1.855-.328 3.586-1.885 4.987-3.646l6.678-8.686-6.554-9.668c-1.525-2.254-2.597-3.278-4.246-3.565l-.865-.163V2.54c.742 0 4.451.082 5.894.082 1.525 0 6.059-.082 6.842-.082v.574l-1.319.204c-1.113.164-1.731.533-1.731 1.311 0 .656.412 1.475 1.319 2.868l3.957 6.063 3.875-5.407c1.03-1.475 1.566-2.581 1.566-3.36 0-.778-.536-1.31-1.772-1.516l-1.361-.204v-.574c.742 0 4.04.082 5.524.082s3.833-.082 4.616-.082v.574l-.7.123c-1.855.327-3.545 1.72-4.988 3.646l-5.977 7.784 7.255 10.57c1.525 2.253 2.597 3.277 4.245 3.564l.866.164v.614zM135.815 6.965c-.329 0-.618-.041-.865-.164a2.15 2.15 0 01-.701-.492 1.844 1.844 0 01-.453-.696 2.123 2.123 0 01-.165-.86c0-.328.041-.615.165-.861.123-.287.288-.492.453-.696.165-.205.454-.37.701-.451.288-.123.577-.164.865-.164.33 0 .619.041.866.164.289.123.495.287.701.45.206.205.371.451.453.697.124.287.165.574.165.86 0 .328-.041.615-.165.86-.124.287-.288.492-.453.697a2.713 2.713 0 01-.701.492 2.708 2.708 0 01-.866.164zm0-.328c.289 0 .536-.041.742-.164.248-.082.454-.246.619-.41.165-.164.288-.368.412-.614.082-.246.123-.492.123-.738 0-.286-.041-.532-.123-.737-.083-.246-.247-.45-.412-.615-.165-.163-.371-.286-.619-.41-.247-.081-.494-.163-.742-.163-.288 0-.535.04-.741.164-.248.082-.454.246-.619.41-.165.163-.288.368-.412.614a2.32 2.32 0 00-.124.737c0 .287.042.533.124.738.082.246.247.45.412.614.165.164.371.328.619.41.247.123.494.164.741.164zm-.948-.574V3.441h1.155c.288 0 .535.082.7.205a.742.742 0 01.248.574c0 .246-.083.41-.248.573-.165.164-.371.205-.659.205l.123-.04c.124 0 .206.04.289.081a.697.697 0 01.247.246l.454.778h-.619l-.453-.86c-.041-.082-.082-.123-.124-.123-.041-.04-.123-.04-.206-.04h-.288v1.023h-.619zm.536-1.475h.536c.165 0 .289-.04.33-.081.082-.041.123-.164.123-.287 0-.123-.041-.246-.123-.287a.782.782 0 00-.33-.082h-.536v.737z" fill="#123B63"/><path d="M38.086 38.756H19.043V44h19.043v-5.244z" fill="#2B568A"/><path d="M57.129 38.756H38.086V44h19.043v-5.244z" fill="#6FA3CC"/><path d="M76.213 38.756H57.17V44h19.043v-5.244z" fill="#276647"/><path d="M95.256 38.756H76.213V44h19.043v-5.244z" fill="#DDCD4A"/><path d="M114.299 38.756H95.256V44H114.3v-5.244z" fill="#F29E1A"/><path d="M133.342 38.756h-19.043V44h19.043v-5.244z" fill="#A82528"/><path d="M19.043 38.756H0V44h19.043v-5.244z" fill="#123B63"/></svg>