<svg width="584" height="158" viewBox="0 0 584 158" fill="none" xmlns="http://www.w3.org/2000/svg"><path d="M9.48 30.293c-1.658 0-3.19-.205-4.594-.615-1.385-.429-2.574-1.014-3.57-1.755l1.171-2.956c.663.469 1.356.868 2.077 1.2.722.312 1.493.556 2.312.731.82.157 1.687.235 2.604.235 1.541 0 2.653-.254 3.336-.761.682-.507 1.024-1.17 1.024-1.99 0-.722-.234-1.268-.702-1.638-.469-.39-1.307-.712-2.517-.966l-3.306-.673c-1.892-.39-3.306-1.044-4.243-1.96-.936-.917-1.404-2.146-1.404-3.687 0-1.287.341-2.41 1.024-3.365.683-.956 1.638-1.697 2.867-2.224 1.23-.526 2.663-.79 4.301-.79 1.463 0 2.82.215 4.068.644 1.248.41 2.292 1.005 3.13 1.785l-1.17 2.809a8.393 8.393 0 00-2.75-1.55c-.995-.352-2.107-.528-3.336-.528-1.385 0-2.468.273-3.248.82-.76.526-1.141 1.258-1.141 2.194 0 .722.234 1.297.702 1.727.488.429 1.307.76 2.458.994l3.277.644c1.95.39 3.394 1.034 4.33 1.931.937.878 1.405 2.068 1.405 3.57 0 1.229-.332 2.311-.995 3.248-.663.916-1.6 1.638-2.809 2.165-1.21.507-2.643.76-4.3.76zm17.546 0c-1.756 0-3.082-.459-3.98-1.376-.897-.916-1.346-2.292-1.346-4.125v-6.818h-2.838v-2.75H21.7v-3.775l3.658-.936v4.71h3.95v2.751h-3.95v6.584c0 1.014.195 1.726.585 2.136.39.41.926.614 1.61.614.37 0 .682-.03.936-.088.273-.058.536-.136.79-.234v2.897a4.64 4.64 0 01-1.112.293c-.39.078-.77.117-1.141.117zm11.295 0c-1.522 0-2.839-.313-3.95-.937a6.584 6.584 0 01-2.605-2.662c-.604-1.151-.907-2.517-.907-4.097 0-1.58.303-2.935.907-4.067a6.584 6.584 0 012.604-2.662c1.112-.625 2.429-.937 3.95-.937 1.522 0 2.839.312 3.95.937 1.132.624 2 1.511 2.605 2.662.624 1.132.936 2.487.936 4.067s-.312 2.946-.936 4.097a6.348 6.348 0 01-2.605 2.662c-1.111.624-2.428.937-3.95.937zm0-2.81c1.15 0 2.067-.4 2.75-1.199.683-.82 1.024-2.048 1.024-3.687 0-1.638-.341-2.857-1.024-3.657-.683-.8-1.6-1.2-2.75-1.2-1.151 0-2.068.4-2.75 1.2-.684.8-1.025 2.019-1.025 3.657 0 1.639.341 2.868 1.024 3.687.683.8 1.6 1.2 2.75 1.2zM48.965 30V18.91a29.488 29.488 0 00-.234-3.686h3.54l.293 2.926h-.351c.468-1.034 1.16-1.824 2.077-2.37.917-.566 1.98-.849 3.19-.849 1.736 0 3.043.488 3.92 1.463.878.976 1.317 2.497 1.317 4.565V30H59.06v-8.866c0-1.19-.235-2.038-.703-2.545-.448-.527-1.131-.79-2.048-.79-1.131 0-2.028.35-2.692 1.053-.663.702-.994 1.639-.994 2.809V30h-3.658zm24.77.293c-2.478 0-4.419-.683-5.823-2.049-1.405-1.365-2.107-3.238-2.107-5.617 0-1.541.302-2.887.907-4.038.605-1.151 1.444-2.048 2.516-2.692 1.093-.644 2.36-.966 3.804-.966 1.424 0 2.614.303 3.57.907.956.605 1.677 1.454 2.165 2.546.507 1.092.76 2.37.76 3.833v.966H68.76V21.25h8.164l-.498.41c0-1.365-.292-2.409-.877-3.13-.566-.723-1.395-1.083-2.488-1.083-1.209 0-2.145.429-2.808 1.287-.644.858-.966 2.058-.966 3.599v.38c0 1.6.39 2.8 1.17 3.6.8.78 1.922 1.17 3.365 1.17a8.18 8.18 0 002.341-.322 6.856 6.856 0 002.107-1.112l1.082 2.458c-.702.565-1.54 1.004-2.516 1.316-.975.313-2.01.469-3.102.469zM82.917 30V9.372h3.774v8.602h10.563V9.372h3.774V30h-3.774v-8.895H86.692V30h-3.774zm29.505.293c-2.477 0-4.418-.683-5.822-2.049-1.405-1.365-2.107-3.238-2.107-5.617 0-1.541.302-2.887.907-4.038.605-1.151 1.444-2.048 2.516-2.692 1.093-.644 2.361-.966 3.804-.966 1.424 0 2.614.303 3.57.907.956.605 1.677 1.454 2.165 2.546.507 1.092.761 2.37.761 3.833v.966h-10.768V21.25h8.164l-.498.41c0-1.365-.292-2.409-.877-3.13-.566-.723-1.395-1.083-2.488-1.083-1.209 0-2.145.429-2.808 1.287-.644.858-.966 2.058-.966 3.599v.38c0 1.6.39 2.8 1.17 3.6.8.78 1.922 1.17 3.365 1.17.839 0 1.619-.108 2.341-.322a6.87 6.87 0 002.107-1.112l1.082 2.458c-.702.565-1.541 1.004-2.516 1.316-.975.313-2.009.469-3.102.469zm14.626 0c-1.288 0-2.429-.303-3.423-.907-.976-.625-1.737-1.512-2.283-2.663-.546-1.151-.819-2.526-.819-4.126 0-1.6.273-2.965.819-4.096.546-1.15 1.307-2.029 2.283-2.633.994-.625 2.135-.937 3.423-.937 1.229 0 2.311.303 3.248.907.956.586 1.59 1.385 1.902 2.4h-.381V8.465h3.658V30h-3.599v-3.13h.351c-.312 1.053-.946 1.891-1.902 2.515-.936.605-2.029.908-3.277.908zm1.024-2.81c1.151 0 2.077-.4 2.78-1.199.702-.82 1.053-2.048 1.053-3.687 0-1.638-.351-2.857-1.053-3.657-.703-.8-1.629-1.2-2.78-1.2-1.151 0-2.087.4-2.809 1.2-.702.8-1.053 2.019-1.053 3.657 0 1.639.351 2.868 1.053 3.687.722.8 1.658 1.2 2.809 1.2zm18.232 9.071c-1.365 0-2.604-.146-3.716-.439a9.146 9.146 0 01-2.926-1.346l.79-2.633a9.38 9.38 0 001.756.907c.605.234 1.229.41 1.872.527.644.117 1.298.175 1.961.175 1.365 0 2.38-.341 3.043-1.024.683-.663 1.024-1.619 1.024-2.867v-3.54h.293c-.313 1.014-.947 1.823-1.902 2.428-.937.604-2.019.907-3.248.907-1.327 0-2.487-.293-3.482-.878-.975-.605-1.736-1.463-2.282-2.575-.547-1.112-.82-2.419-.82-3.92 0-1.503.273-2.8.82-3.892.546-1.112 1.307-1.96 2.282-2.546.995-.604 2.155-.907 3.482-.907 1.248 0 2.331.303 3.248.907.936.586 1.56 1.385 1.872 2.4l-.263-.176.293-2.838h3.54a29.56 29.56 0 00-.234 3.687v10.504c0 2.321-.634 4.086-1.902 5.296-1.248 1.229-3.082 1.843-5.501 1.843zm-.058-9.714c1.17 0 2.097-.39 2.779-1.17.703-.8 1.054-1.932 1.054-3.395 0-1.462-.351-2.584-1.054-3.364-.682-.78-1.609-1.17-2.779-1.17-1.19 0-2.136.39-2.839 1.17-.702.78-1.053 1.901-1.053 3.364 0 1.463.351 2.595 1.053 3.395.703.78 1.649 1.17 2.839 1.17zm18.552 3.453c-2.477 0-4.418-.683-5.822-2.049-1.405-1.365-2.107-3.238-2.107-5.617 0-1.541.302-2.887.907-4.038.605-1.151 1.443-2.048 2.516-2.692 1.093-.644 2.361-.966 3.804-.966 1.424 0 2.614.303 3.57.907.956.605 1.677 1.454 2.165 2.546.507 1.092.761 2.37.761 3.833v.966h-10.768V21.25h8.164l-.498.41c0-1.365-.292-2.409-.878-3.13-.565-.723-1.394-1.083-2.487-1.083-1.209 0-2.145.429-2.809 1.287-.643.858-.965 2.058-.965 3.599v.38c0 1.6.39 2.8 1.17 3.6.8.78 1.922 1.17 3.365 1.17.839 0 1.619-.108 2.341-.322a6.87 6.87 0 002.107-1.112l1.082 2.458c-.702.565-1.541 1.004-2.516 1.316-.975.313-2.009.469-3.102.469zM181.59 30V15.37h1.229V30h-1.229zm-.322-18.463V9.694h1.873v1.843h-1.873zm11.258 18.697a9.567 9.567 0 01-3.101-.497c-.956-.351-1.736-.83-2.341-1.434l.615-.966a7.187 7.187 0 002.282 1.346c.819.273 1.687.41 2.604.41 1.326 0 2.341-.254 3.043-.76.702-.508 1.053-1.2 1.053-2.078 0-.683-.224-1.23-.673-1.639-.448-.429-1.19-.75-2.223-.965l-2.546-.556c-1.248-.293-2.175-.761-2.78-1.405-.604-.643-.907-1.443-.907-2.399 0-.8.205-1.512.615-2.136.429-.624 1.034-1.112 1.814-1.463.8-.37 1.736-.556 2.809-.556 1.034 0 1.98.176 2.838.527.878.35 1.58.839 2.107 1.463l-.644.965a5.698 5.698 0 00-1.96-1.346 5.835 5.835 0 00-2.341-.468c-1.268 0-2.243.273-2.926.82-.663.546-.995 1.267-.995 2.165 0 .682.205 1.238.614 1.668.43.429 1.103.75 2.019.965l2.546.585c1.326.312 2.311.77 2.955 1.375.644.586.966 1.366.966 2.341 0 .82-.225 1.531-.673 2.136-.449.605-1.083 1.073-1.902 1.405-.819.331-1.775.497-2.868.497zM209.093 30V18.91a29.569 29.569 0 00-.234-3.686h3.54l.293 2.926h-.351c.409-1.014 1.034-1.804 1.872-2.37.859-.566 1.873-.849 3.043-.849 1.171 0 2.136.283 2.897.849.78.546 1.326 1.404 1.639 2.575h-.469a5.079 5.079 0 012.019-2.487c.937-.625 2.009-.937 3.219-.937 1.658 0 2.897.488 3.716 1.463.819.976 1.229 2.497 1.229 4.565V30h-3.658v-8.895c0-1.17-.195-2.01-.585-2.516-.39-.527-1.014-.79-1.873-.79-1.014 0-1.814.36-2.399 1.082-.585.703-.878 1.658-.878 2.868V30h-3.657v-8.895c0-1.17-.195-2.01-.585-2.516-.39-.527-1.015-.79-1.873-.79-1.014 0-1.814.36-2.399 1.082-.566.703-.849 1.658-.849 2.868V30h-3.657zm33.456.293c-2.478 0-4.418-.683-5.823-2.049-1.404-1.365-2.107-3.238-2.107-5.617 0-1.541.303-2.887.907-4.038.605-1.151 1.444-2.048 2.517-2.692 1.092-.644 2.36-.966 3.804-.966 1.423 0 2.613.303 3.569.907.956.605 1.678 1.454 2.165 2.546.508 1.092.761 2.37.761 3.833v.966h-10.767V21.25h8.163l-.497.41c0-1.365-.293-2.409-.878-3.13-.566-.723-1.395-1.083-2.487-1.083-1.21 0-2.146.429-2.809 1.287-.644.858-.966 2.058-.966 3.599v.38c0 1.6.39 2.8 1.171 3.6.799.78 1.921 1.17 3.365 1.17.838 0 1.619-.108 2.34-.322a6.847 6.847 0 002.107-1.112l1.083 2.458c-.703.565-1.541 1.004-2.517 1.316-.975.313-2.009.469-3.101.469zM251.41 30V18.998c0-.624-.019-1.258-.058-1.902a19.328 19.328 0 00-.147-1.872h3.541l.409 4.038h-.585c.195-.976.517-1.785.966-2.429.468-.643 1.034-1.121 1.697-1.433a5.018 5.018 0 012.165-.469c.351 0 .634.02.848.059.215.02.43.068.644.146l-.029 3.219a4.038 4.038 0 00-.966-.293 6.535 6.535 0 00-.965-.058c-.839 0-1.551.175-2.136.526a3.358 3.358 0 00-1.288 1.463c-.273.624-.409 1.336-.409 2.136V30h-3.687zm18.076.293c-1.522 0-2.858-.313-4.009-.937a6.533 6.533 0 01-2.633-2.662c-.624-1.17-.937-2.556-.937-4.155 0-1.6.313-2.965.937-4.097a6.575 6.575 0 012.662-2.604c1.132-.604 2.458-.907 3.98-.907.975 0 1.921.156 2.838.469.936.292 1.697.721 2.282 1.287l-1.112 2.546a5.09 5.09 0 00-1.785-1.083 5.157 5.157 0 00-1.901-.38c-1.307 0-2.332.41-3.073 1.228-.721.82-1.082 2.01-1.082 3.57s.361 2.76 1.082 3.599c.741.839 1.766 1.258 3.073 1.258.604 0 1.228-.117 1.872-.351a5.406 5.406 0 001.814-1.083l1.112 2.517c-.605.565-1.375 1.004-2.311 1.316a8.665 8.665 0 01-2.809.469zm7.956-.293V8.465h3.657v9.714h-.41c.449-1.053 1.141-1.853 2.078-2.4.936-.565 2.009-.848 3.218-.848 1.756 0 3.063.498 3.921 1.493.858.975 1.288 2.467 1.288 4.476V30h-3.658v-8.924c0-1.151-.224-1.98-.673-2.487-.429-.527-1.121-.79-2.077-.79-1.112 0-2.009.35-2.692 1.053-.663.683-.995 1.6-.995 2.75V30h-3.657zm23.335.293c-1.287 0-2.419-.303-3.394-.907-.975-.625-1.736-1.512-2.282-2.663-.546-1.151-.819-2.526-.819-4.126 0-1.6.273-2.965.819-4.096.546-1.15 1.307-2.029 2.282-2.633.975-.625 2.107-.937 3.394-.937 1.249 0 2.341.312 3.277.937.956.604 1.59 1.424 1.902 2.457h-.322l.322-3.101h3.511c-.058.605-.117 1.219-.175 1.843a29.569 29.569 0 00-.059 1.844V30h-3.628l-.029-3.043h.351c-.312 1.014-.946 1.824-1.902 2.428-.956.605-2.038.908-3.248.908zm1.024-2.81c1.151 0 2.078-.4 2.78-1.199.702-.82 1.053-2.048 1.053-3.687 0-1.638-.351-2.857-1.053-3.657-.702-.8-1.629-1.2-2.78-1.2-1.151 0-2.077.4-2.779 1.2-.703.8-1.054 2.019-1.054 3.657 0 1.639.342 2.868 1.024 3.687.703.8 1.639 1.2 2.809 1.2zM313.216 30V18.91a29.569 29.569 0 00-.234-3.686h3.54l.293 2.926h-.351c.468-1.034 1.16-1.824 2.077-2.37.917-.566 1.98-.849 3.19-.849 1.736 0 3.043.488 3.92 1.463.878.976 1.317 2.497 1.317 4.565V30h-3.657v-8.866c0-1.19-.235-2.038-.703-2.545-.448-.527-1.131-.79-2.048-.79-1.131 0-2.029.35-2.692 1.053-.663.702-.995 1.639-.995 2.809V30h-3.657zm23.365.293c-1.287 0-2.429-.303-3.423-.907-.976-.625-1.737-1.512-2.283-2.663-.546-1.151-.819-2.526-.819-4.126 0-1.6.273-2.965.819-4.096.546-1.15 1.307-2.029 2.283-2.633.994-.625 2.136-.937 3.423-.937 1.229 0 2.311.303 3.248.907.956.586 1.59 1.385 1.902 2.4h-.381V8.465h3.658V30h-3.599v-3.13h.351c-.312 1.053-.946 1.891-1.902 2.515-.936.605-2.029.908-3.277.908zm1.024-2.81c1.151 0 2.077-.4 2.78-1.199.702-.82 1.053-2.048 1.053-3.687 0-1.638-.351-2.857-1.053-3.657-.703-.8-1.629-1.2-2.78-1.2-1.151 0-2.087.4-2.809 1.2-.702.8-1.053 2.019-1.053 3.657 0 1.639.351 2.868 1.053 3.687.722.8 1.658 1.2 2.809 1.2zM348.99 30V15.224h3.658V30h-3.658zm-.204-17.556v-3.57h4.067v3.57h-4.067zm13.1 17.849c-1.268 0-2.438-.147-3.511-.44-1.053-.311-1.941-.74-2.662-1.287l1.024-2.457c.741.507 1.56.897 2.457 1.17a9.31 9.31 0 002.722.41c.975 0 1.697-.166 2.165-.498.487-.331.731-.78.731-1.346 0-.448-.156-.8-.468-1.053-.292-.273-.77-.478-1.434-.615l-2.926-.556c-1.248-.273-2.204-.74-2.867-1.404-.644-.663-.966-1.531-.966-2.604 0-.917.244-1.726.732-2.429.507-.702 1.219-1.248 2.136-1.638.936-.41 2.029-.615 3.277-.615 1.092 0 2.116.147 3.072.44.976.292 1.795.73 2.458 1.316l-1.053 2.37a6.916 6.916 0 00-2.078-1.141 6.885 6.885 0 00-2.282-.41c-1.014 0-1.756.186-2.224.556-.468.351-.702.81-.702 1.375 0 .43.137.79.41 1.083.292.273.741.478 1.346.614l2.926.556c1.307.254 2.292.702 2.955 1.346.683.624 1.024 1.483 1.024 2.575 0 .975-.263 1.814-.79 2.516-.527.703-1.258 1.239-2.195 1.61-.936.37-2.028.556-3.277.556zm9.392-.293V15.224h3.657V30h-3.657zm-.205-17.556v-3.57h4.067v3.57h-4.067zM378.907 30V18.91a29.56 29.56 0 00-.234-3.686h3.541l.292 2.926h-.351c.468-1.034 1.161-1.824 2.077-2.37.917-.566 1.98-.849 3.19-.849 1.736 0 3.043.488 3.921 1.463.877.976 1.316 2.497 1.316 4.565V30h-3.657v-8.866c0-1.19-.234-2.038-.702-2.545-.449-.527-1.132-.79-2.049-.79-1.131 0-2.028.35-2.691 1.053-.664.702-.995 1.639-.995 2.809V30h-3.658zm24.477 6.554c-1.365 0-2.604-.146-3.716-.439a9.136 9.136 0 01-2.926-1.346l.79-2.633a9.38 9.38 0 001.756.907c.604.234 1.229.41 1.872.527.644.117 1.297.175 1.961.175 1.365 0 2.379-.341 3.043-1.024.682-.663 1.024-1.619 1.024-2.867v-3.54h.292c-.312 1.014-.946 1.823-1.901 2.428-.937.604-2.019.907-3.248.907-1.327 0-2.487-.293-3.482-.878-.976-.605-1.736-1.463-2.282-2.575-.547-1.112-.82-2.419-.82-3.92 0-1.503.273-2.8.82-3.892.546-1.112 1.306-1.96 2.282-2.546.995-.604 2.155-.907 3.482-.907 1.248 0 2.331.303 3.248.907.936.586 1.56 1.385 1.872 2.4l-.263-.176.292-2.838h3.541a29.56 29.56 0 00-.234 3.687v10.504c0 2.321-.634 4.086-1.902 5.296-1.249 1.229-3.082 1.843-5.501 1.843zm-.058-9.714c1.17 0 2.096-.39 2.779-1.17.702-.8 1.054-1.932 1.054-3.395 0-1.462-.352-2.584-1.054-3.364-.683-.78-1.609-1.17-2.779-1.17-1.19 0-2.136.39-2.839 1.17-.702.78-1.053 1.901-1.053 3.364 0 1.463.351 2.595 1.053 3.395.703.78 1.649 1.17 2.839 1.17zm12.232 6.027l-.761-.585c.429-.468.693-.907.79-1.316.117-.39.176-.77.176-1.142l.293.176h-1.229v-2.048h2.019v1.61c0 .604-.088 1.18-.264 1.725-.175.566-.517 1.093-1.024 1.58zm17.817-2.633a9.567 9.567 0 01-3.101-.497c-.956-.351-1.736-.83-2.341-1.434l.615-.966a7.187 7.187 0 002.282 1.346c.819.273 1.687.41 2.604.41 1.326 0 2.341-.254 3.043-.76.702-.508 1.053-1.2 1.053-2.078 0-.683-.224-1.23-.673-1.639-.448-.429-1.19-.75-2.223-.965l-2.546-.556c-1.248-.293-2.175-.761-2.78-1.405-.604-.643-.907-1.443-.907-2.399 0-.8.205-1.512.615-2.136.429-.624 1.034-1.112 1.814-1.463.8-.37 1.736-.556 2.809-.556 1.034 0 1.98.176 2.838.527.878.35 1.58.839 2.107 1.463l-.644.965a5.698 5.698 0 00-1.96-1.346 5.835 5.835 0 00-2.341-.468c-1.268 0-2.244.273-2.926.82-.663.546-.995 1.267-.995 2.165 0 .682.205 1.238.614 1.668.43.429 1.103.75 2.019.965l2.546.585c1.326.312 2.311.77 2.955 1.375.644.586.966 1.366.966 2.341 0 .82-.225 1.531-.673 2.136-.449.605-1.083 1.073-1.902 1.405-.819.331-1.775.497-2.868.497zm9.837-.234V15.37h1.229V30h-1.229zm-.322-18.463V9.694h1.873v1.843h-1.873zM449.584 30V18.53c0-.507-.029-1.024-.088-1.55a47.937 47.937 0 00-.146-1.61h1.2l.263 3.511h-.351c.37-1.21.985-2.136 1.843-2.78.858-.643 1.902-.965 3.131-.965 1.287 0 2.321.312 3.102.936.78.605 1.287 1.551 1.521 2.839h-.41c.332-1.151.956-2.068 1.873-2.75.936-.684 2.058-1.025 3.365-1.025 1.56 0 2.75.449 3.57 1.346.819.897 1.228 2.302 1.228 4.213V30h-1.228v-9.188c0-1.58-.283-2.73-.849-3.452-.566-.722-1.483-1.083-2.75-1.083-1.424 0-2.556.478-3.395 1.434-.819.956-1.228 2.243-1.228 3.862V30h-1.229v-9.188c0-1.58-.283-2.73-.849-3.452-.566-.722-1.482-1.083-2.75-1.083-1.424 0-2.546.478-3.365 1.434-.819.956-1.229 2.243-1.229 3.862V30h-1.229zm25.174 6.32V18.53c0-.507-.03-1.024-.088-1.55a50.719 50.719 0 00-.146-1.61h1.199l.293 3.833h-.351c.331-1.268.975-2.262 1.931-2.984.975-.722 2.165-1.083 3.569-1.083 1.327 0 2.468.303 3.424.907.975.605 1.726 1.473 2.253 2.604.546 1.112.819 2.458.819 4.038 0 1.56-.263 2.907-.79 4.038-.527 1.131-1.278 2-2.253 2.604-.975.605-2.126.907-3.453.907-1.404 0-2.594-.36-3.569-1.083-.956-.721-1.6-1.716-1.931-2.984h.322V36.32h-1.229zm6.407-7.227c1.6 0 2.868-.546 3.804-1.639.956-1.111 1.434-2.701 1.434-4.769s-.478-3.648-1.434-4.74c-.936-1.112-2.204-1.668-3.804-1.668-1.599 0-2.867.556-3.803 1.668-.937 1.092-1.405 2.672-1.405 4.74s.468 3.658 1.405 4.77c.936 1.092 2.204 1.638 3.803 1.638zm10.651.907V8.465h1.229V30h-1.229zm6.372 0V15.37h1.229V30h-1.229zm-.322-18.463V9.694h1.873v1.843h-1.873zM505.145 30V16.424h-2.926V15.37h3.219l-.293.322v-2.604c0-1.502.361-2.663 1.083-3.482.741-.839 1.785-1.258 3.131-1.258.331 0 .682.039 1.053.117.371.058.663.136.878.234v1.17a4.534 4.534 0 00-.819-.263 4.593 4.593 0 00-1.054-.117c-1.034 0-1.804.322-2.311.966-.488.643-.732 1.59-.732 2.838v2.487l-.234-.41h8.69V30h-1.229V16.424h-7.227V30h-1.229zm8.105-18.463V9.694h1.902v1.843h-1.902zm12.767 18.697c-2.145 0-3.852-.653-5.12-1.96-1.268-1.327-1.902-3.17-1.902-5.53 0-1.56.283-2.907.849-4.038.565-1.132 1.355-2.01 2.37-2.634 1.034-.624 2.214-.936 3.54-.936 1.268 0 2.341.273 3.219.82.897.526 1.58 1.297 2.048 2.31.488.996.731 2.186.731 3.57v.79h-11.967v-1.111h11.324l-.498.38c0-1.755-.409-3.13-1.229-4.125-.819-1.015-2.038-1.522-3.657-1.522-1.717 0-3.063.585-4.038 1.756-.956 1.17-1.434 2.701-1.434 4.593v.147c0 2.067.508 3.647 1.522 4.74 1.014 1.072 2.428 1.609 4.242 1.609.917 0 1.776-.146 2.575-.439.8-.293 1.571-.79 2.312-1.492l.614.965c-.604.664-1.404 1.18-2.399 1.551a8.814 8.814 0 01-3.102.556zm15.245 0c-1.307 0-2.448-.302-3.423-.907-.956-.605-1.697-1.473-2.224-2.604-.527-1.131-.79-2.477-.79-4.038 0-1.58.263-2.926.79-4.038.527-1.131 1.268-2 2.224-2.604.975-.604 2.116-.907 3.423-.907 1.385 0 2.575.361 3.57 1.083.995.721 1.658 1.716 1.99 2.984h-.322V8.465h1.229V30H546.5v-3.833h.322c-.332 1.268-.995 2.263-1.99 2.984-.995.722-2.185 1.083-3.57 1.083zm.03-1.141c1.58 0 2.847-.546 3.803-1.639.956-1.111 1.434-2.701 1.434-4.769s-.478-3.648-1.434-4.74c-.956-1.112-2.223-1.668-3.803-1.668-1.6 0-2.868.556-3.804 1.668-.937 1.092-1.405 2.672-1.405 4.74s.468 3.658 1.405 4.77c.936 1.092 2.204 1.638 3.804 1.638zm11.089.907v-2.048h2.019V30h-2.019zM4.709 61.418c-.58 0-1.12-.136-1.617-.408a3.273 3.273 0 01-1.19-1.155 3.045 3.045 0 01-.445-1.617c0-.545.136-1.06.409-1.547.284-.485.67-.876 1.155-1.172a3.142 3.142 0 011.688-.462c.58 0 1.114.142 1.6.426a3.22 3.22 0 011.172 1.12c.308.474.462 1.018.462 1.634 0 .581-.148 1.114-.444 1.6-.284.486-.675.87-1.173 1.155a3.141 3.141 0 01-1.617.426zm14.701 1.724c-1.006 0-1.883-.13-2.63-.39a6.44 6.44 0 01-2.008-1.174l.374-.64c.438.344.858.628 1.261.854.403.213.841.373 1.315.48a8.783 8.783 0 001.67.142c1.162 0 2.038-.231 2.63-.694.605-.473.907-1.101.907-1.883 0-.664-.213-1.173-.64-1.528-.414-.356-1.131-.634-2.15-.836l-1.76-.355c-1.148-.237-2.001-.61-2.558-1.12-.557-.509-.835-1.214-.835-2.114 0-.711.183-1.333.55-1.866.368-.533.877-.948 1.529-1.244.651-.296 1.41-.444 2.274-.444.877 0 1.677.136 2.4.409a4.974 4.974 0 011.865 1.226l-.355.64c-.58-.557-1.179-.954-1.795-1.191-.616-.237-1.32-.356-2.115-.356-1.09 0-1.96.255-2.612.764-.64.51-.96 1.197-.96 2.062 0 .699.208 1.244.623 1.635.414.379 1.084.663 2.008.853l1.777.355c1.232.249 2.126.61 2.683 1.084.569.462.853 1.131.853 2.008 0 .652-.172 1.232-.515 1.742-.344.497-.841.888-1.493 1.172-.64.273-1.404.41-2.293.41zm9.339 0c-.723 0-1.28-.225-1.67-.675-.38-.462-.57-1.161-.57-2.097v-5.615h-1.776v-.64h1.777v-2.541l.746-.285v2.826h2.701v.64h-2.701v5.455c0 .782.118 1.35.355 1.706.25.355.646.533 1.191.533.237 0 .45-.024.64-.071.19-.047.35-.1.48-.16v.71c-.13.06-.309.108-.534.143a2.94 2.94 0 01-.64.071zM31.88 63v-6.86c0-.331-.012-.669-.035-1.012a13.993 13.993 0 00-.072-1.013h.73l.106 1.937-.16.018c.118-.474.332-.865.64-1.173.32-.308.68-.54 1.084-.693a3.506 3.506 0 011.226-.231c.142 0 .278.006.408.017.143.012.273.036.391.072l-.035.693a1.907 1.907 0 00-.391-.072 4.713 4.713 0 00-.427-.017c-.545 0-1.024.142-1.439.426a2.904 2.904 0 00-.942 1.03c-.225.404-.337.8-.337 1.191V63h-.747zm9.58.142c-1.304 0-2.34-.397-3.11-1.19-.77-.806-1.156-1.926-1.156-3.359 0-.948.172-1.765.516-2.452a3.853 3.853 0 011.44-1.6c.627-.379 1.344-.568 2.15-.568.77 0 1.421.166 1.954.497.545.32.96.788 1.244 1.404.296.604.444 1.327.444 2.168v.48h-7.268v-.675h6.877l-.302.23c0-1.066-.248-1.9-.746-2.505-.498-.616-1.238-.924-2.221-.924-1.043 0-1.86.355-2.453 1.066-.58.711-.87 1.641-.87 2.79v.089c0 1.256.308 2.215.924 2.879.616.651 1.475.977 2.576.977.557 0 1.078-.089 1.564-.266.486-.178.954-.48 1.404-.907l.373.587c-.367.403-.853.716-1.457.941a5.352 5.352 0 01-1.884.338zm9.294 0c-.806 0-1.505-.184-2.097-.55-.593-.368-1.049-.895-1.369-1.582-.32-.687-.48-1.505-.48-2.453 0-.96.16-1.777.48-2.452.332-.687.794-1.214 1.386-1.581.593-.368 1.286-.551 2.08-.551.84 0 1.557.219 2.15.657.604.438 1 1.043 1.19 1.813h-.213l.178-2.328h.728c-.035.331-.07.657-.106.977-.024.32-.036.634-.036.942V63H53.9v-2.328h.195c-.19.77-.586 1.374-1.19 1.813-.605.438-1.321.657-2.15.657zm0-.693c.971 0 1.741-.332 2.31-.995.568-.675.853-1.64.853-2.897 0-1.255-.285-2.215-.853-2.878-.569-.676-1.339-1.013-2.31-1.013-.972 0-1.748.337-2.328 1.013-.569.663-.853 1.623-.853 2.878 0 1.256.284 2.222.853 2.897.58.663 1.356.995 2.328.995zm7.019.551v-6.966c0-.308-.018-.622-.053-.942a30.05 30.05 0 00-.09-.977h.73l.16 2.132h-.214c.225-.734.598-1.297 1.12-1.688.52-.39 1.155-.586 1.901-.586.782 0 1.41.19 1.884.568.474.368.782.942.924 1.724h-.249a3.085 3.085 0 011.137-1.67c.569-.415 1.25-.622 2.044-.622.948 0 1.67.272 2.168.817.497.545.746 1.398.746 2.559V63h-.746v-5.58c0-.96-.172-1.659-.516-2.097-.343-.438-.9-.657-1.67-.657-.865 0-1.552.29-2.061.87-.498.58-.747 1.363-.747 2.346V63h-.746v-5.58c0-.96-.172-1.659-.515-2.097-.344-.438-.9-.657-1.67-.657-.866 0-1.547.29-2.044.87-.498.58-.747 1.363-.747 2.346V63h-.746zm15.289 0V49.921h.746V63h-.746zm3.87 0v-8.885h.746V63h-.746zm-.196-11.213v-1.12h1.137v1.12h-1.137zM80.802 63v-6.966c0-.308-.018-.622-.054-.942a30.05 30.05 0 00-.089-.977h.729l.16 2.132h-.213c.248-.746.663-1.309 1.244-1.688.592-.39 1.285-.586 2.079-.586 1.054 0 1.848.272 2.38.817.546.545.818 1.398.818 2.559V63h-.746v-5.58c0-.96-.195-1.659-.586-2.097-.391-.438-1.007-.657-1.849-.657-.96 0-1.723.29-2.292.87-.557.58-.835 1.363-.835 2.346V63h-.746zm13.795.142c-1.303 0-2.34-.397-3.11-1.19-.77-.806-1.155-1.926-1.155-3.359 0-.948.172-1.765.515-2.452a3.853 3.853 0 011.44-1.6c.628-.379 1.344-.568 2.15-.568.77 0 1.422.166 1.955.497.545.32.96.788 1.244 1.404.296.604.444 1.327.444 2.168v.48h-7.268v-.675h6.877l-.302.23c0-1.066-.249-1.9-.746-2.505-.498-.616-1.239-.924-2.222-.924-1.042 0-1.86.355-2.452 1.066-.58.711-.87 1.641-.87 2.79v.089c0 1.256.307 2.215.923 2.879.616.651 1.475.977 2.577.977.557 0 1.078-.089 1.564-.266.485-.178.953-.48 1.403-.907l.374.587c-.368.403-.853.716-1.457.941a5.352 5.352 0 01-1.884.338zm10.04-6.415c0-1.327.214-2.464.64-3.412.438-.96 1.066-1.694 1.884-2.203.829-.522 1.83-.782 3.003-.782 1.137 0 2.121.26 2.95.782.829.509 1.469 1.244 1.919 2.203.45.948.675 2.08.675 3.394 0 1.327-.231 2.47-.693 3.43-.45.96-1.09 1.7-1.919 2.221-.829.522-1.807.782-2.932.782-1.161 0-2.156-.26-2.985-.782-.818-.521-1.446-1.261-1.884-2.221-.438-.96-.658-2.097-.658-3.412zm.8 0c0 1.789.403 3.187 1.208 4.194.806.995 1.979 1.493 3.519 1.493 1.481 0 2.642-.498 3.483-1.493.841-.995 1.262-2.393 1.262-4.194 0-1.8-.421-3.193-1.262-4.176-.829-.995-1.99-1.493-3.483-1.493-1.54 0-2.713.498-3.519 1.493-.805.983-1.208 2.375-1.208 4.176zM118.441 63v-6.86c0-.331-.012-.669-.035-1.012a14.462 14.462 0 00-.071-1.013h.728l.107 1.937-.16.018a2.46 2.46 0 01.64-1.173 3.186 3.186 0 011.084-.693 3.501 3.501 0 011.226-.231c.142 0 .278.006.408.017.143.012.273.036.391.072l-.035.693a1.915 1.915 0 00-.391-.072 4.718 4.718 0 00-.427-.017c-.545 0-1.024.142-1.439.426a2.901 2.901 0 00-.942 1.03c-.225.404-.337.8-.337 1.191V63h-.747zm6.005 0v-8.885h.747V63h-.747zm-.195-11.213v-1.12h1.137v1.12h-1.137zm7.797 15.176a6.415 6.415 0 01-2.043-.32 5.185 5.185 0 01-1.706-.924l.355-.604c.391.284.758.51 1.102.675.343.166.699.284 1.066.355.379.083.794.125 1.244.125.924 0 1.623-.255 2.097-.764.486-.498.728-1.215.728-2.15v-3.04h.196c-.19.783-.592 1.393-1.208 1.831-.605.438-1.327.657-2.168.657-.818 0-1.529-.177-2.133-.533a3.745 3.745 0 01-1.386-1.546c-.32-.663-.48-1.445-.48-2.345 0-.9.16-1.677.48-2.328.332-.664.794-1.173 1.386-1.529.604-.367 1.315-.55 2.133-.55.841 0 1.563.219 2.168.657.616.438 1.018 1.054 1.208 1.848l-.196-.23.16-2.133h.729l-.107.977c-.023.32-.035.634-.035.942v7.197c0 1.232-.302 2.162-.907 2.79-.604.628-1.498.942-2.683.942zm-.355-4.851c.983 0 1.759-.326 2.328-.978.58-.663.87-1.581.87-2.754s-.29-2.085-.87-2.737c-.569-.651-1.345-.977-2.328-.977-.984 0-1.765.326-2.346.977-.58.652-.871 1.564-.871 2.737s.291 2.09.871 2.754c.581.652 1.362.977 2.346.977zm7.053.888v-8.885h.746V63h-.746zm-.195-11.213v-1.12h1.137v1.12h-1.137zM142.616 63v-6.966c0-.308-.018-.622-.053-.942-.024-.32-.054-.645-.089-.977h.728l.16 2.132h-.213c.249-.746.664-1.309 1.244-1.688.592-.39 1.285-.586 2.079-.586 1.055 0 1.848.272 2.381.817.545.545.818 1.398.818 2.559V63h-.747v-5.58c0-.96-.195-1.659-.586-2.097-.391-.438-1.007-.657-1.848-.657-.96 0-1.724.29-2.292.87-.557.58-.836 1.363-.836 2.346V63h-.746zm13.475.142c-.805 0-1.504-.184-2.096-.55-.593-.368-1.049-.895-1.369-1.582-.32-.687-.48-1.505-.48-2.453 0-.96.16-1.777.48-2.452.332-.687.794-1.214 1.386-1.581.593-.368 1.286-.551 2.079-.551.842 0 1.558.219 2.151.657.604.438 1.001 1.043 1.19 1.813h-.213l.178-2.328h.728l-.106.977c-.024.32-.036.634-.036.942V63h-.746v-2.328h.195c-.189.77-.586 1.374-1.19 1.813-.605.438-1.321.657-2.151.657zm0-.693c.972 0 1.742-.332 2.311-.995.568-.675.853-1.64.853-2.897 0-1.255-.285-2.215-.853-2.878-.569-.676-1.339-1.013-2.311-1.013-.971 0-1.747.337-2.327 1.013-.569.663-.853 1.623-.853 2.878 0 1.256.284 2.222.853 2.897.58.663 1.356.995 2.327.995zm9.614.693c-.722 0-1.279-.225-1.67-.675-.379-.462-.569-1.161-.569-2.097v-5.615h-1.777v-.64h1.777v-2.541l.747-.285v2.826h2.701v.64h-2.701v5.455c0 .782.118 1.35.355 1.706.249.355.646.533 1.191.533.237 0 .45-.024.639-.071.19-.047.35-.1.48-.16v.71a2.12 2.12 0 01-.533.143 2.936 2.936 0 01-.64.071zm3.167-.142v-8.885h.747V63h-.747zm-.195-11.213v-1.12h1.137v1.12h-1.137zm7.406 11.355c-.805 0-1.504-.184-2.097-.55-.592-.368-1.048-.895-1.368-1.582-.32-.687-.48-1.505-.48-2.453 0-.947.16-1.765.48-2.452.32-.687.776-1.214 1.368-1.581.593-.368 1.292-.551 2.097-.551.806 0 1.505.183 2.097.55.592.368 1.048.895 1.368 1.582.332.687.498 1.505.498 2.452 0 .948-.166 1.766-.498 2.453-.32.687-.776 1.214-1.368 1.581-.592.367-1.291.551-2.097.551zm0-.693c.972 0 1.748-.332 2.328-.995.581-.675.871-1.64.871-2.897 0-1.255-.29-2.215-.871-2.878-.58-.676-1.356-1.013-2.328-1.013-.971 0-1.747.337-2.328 1.013-.568.663-.853 1.623-.853 2.878 0 1.256.285 2.222.853 2.897.581.663 1.357.995 2.328.995zm6.482.551v-6.966c0-.308-.018-.622-.054-.942-.023-.32-.053-.645-.089-.977h.729l.16 2.132h-.213c.248-.746.663-1.309 1.244-1.688.592-.39 1.285-.586 2.079-.586 1.054 0 1.848.272 2.381.817.545.545.817 1.398.817 2.559V63h-.746v-5.58c0-.96-.195-1.659-.586-2.097-.391-.438-1.007-.657-1.848-.657-.96 0-1.724.29-2.293.87-.557.58-.835 1.363-.835 2.346V63h-.746zM4.709 83.418c-.58 0-1.12-.136-1.617-.408a3.273 3.273 0 01-1.19-1.155 3.045 3.045 0 01-.445-1.618c0-.544.136-1.06.409-1.545.284-.486.67-.877 1.155-1.173a3.142 3.142 0 011.688-.462c.58 0 1.114.142 1.6.426a3.22 3.22 0 011.172 1.12c.308.474.462 1.019.462 1.635 0 .58-.148 1.113-.444 1.599-.284.486-.675.87-1.173 1.155a3.141 3.141 0 01-1.617.426zM14.453 85l5.384-12.528h.729L26.056 85h-.817l-1.581-3.625.408.16h-7.765l.497-.16L15.252 85h-.8zm5.722-11.533l-3.181 7.481-.391-.106h7.161l-.284.106-3.27-7.481h-.035zM31.31 85.142c-1.03 0-1.812-.278-2.345-.835-.533-.557-.8-1.41-.8-2.559v-5.633h.746v5.562c0 .96.196 1.664.587 2.115.39.438.995.657 1.812.657.913 0 1.641-.29 2.186-.87.545-.593.818-1.375.818-2.346v-5.118h.746V85h-.729v-2.168h.214c-.237.735-.646 1.303-1.227 1.706-.568.403-1.238.604-2.008.604zm9.464 0c-.723 0-1.28-.225-1.67-.675-.38-.462-.57-1.161-.57-2.097v-5.615H36.76v-.64h1.777v-2.541l.746-.285v2.826h2.701v.64h-2.7v5.455c0 .782.118 1.35.355 1.706.248.355.645.533 1.19.533.237 0 .45-.024.64-.071.19-.047.35-.1.48-.16v.71c-.13.06-.308.108-.533.143a2.94 2.94 0 01-.64.071zm6.421 0c-.806 0-1.505-.183-2.097-.55-.592-.368-1.048-.895-1.368-1.582-.32-.687-.48-1.505-.48-2.453 0-.947.16-1.765.48-2.452.32-.687.776-1.214 1.368-1.582.592-.367 1.291-.55 2.097-.55s1.505.183 2.097.55c.592.368 1.048.895 1.368 1.582.332.687.498 1.505.498 2.452 0 .948-.166 1.766-.498 2.453-.32.687-.776 1.214-1.368 1.581-.593.368-1.291.551-2.097.551zm0-.693c.971 0 1.747-.332 2.328-.995.58-.675.87-1.64.87-2.897 0-1.255-.29-2.215-.87-2.878-.58-.676-1.357-1.013-2.328-1.013-.971 0-1.747.337-2.328 1.013-.569.663-.853 1.623-.853 2.878 0 1.256.284 2.222.853 2.897.58.663 1.356.995 2.328.995zm6.481.551v-6.966c0-.308-.017-.622-.053-.942a30.05 30.05 0 00-.089-.977h.729l.16 2.132h-.213c.225-.734.598-1.297 1.12-1.688.52-.39 1.154-.586 1.9-.586.782 0 1.41.19 1.884.568.474.368.782.942.924 1.724h-.249a3.085 3.085 0 011.138-1.67c.568-.415 1.25-.622 2.043-.622.948 0 1.67.272 2.168.817.498.545.747 1.398.747 2.559V85h-.747v-5.58c0-.96-.171-1.659-.515-2.097-.344-.438-.9-.657-1.67-.657-.865 0-1.552.29-2.062.87-.497.58-.746 1.363-.746 2.346V85H59.4v-5.58c0-.96-.172-1.659-.516-2.097-.343-.438-.9-.657-1.67-.657-.865 0-1.546.29-2.044.87-.497.58-.746 1.363-.746 2.346V85h-.747zm18.63.142c-.806 0-1.505-.183-2.097-.55-.592-.368-1.048-.895-1.368-1.582-.32-.687-.48-1.505-.48-2.453 0-.96.16-1.777.48-2.452.332-.687.793-1.214 1.386-1.582.592-.367 1.285-.55 2.079-.55.841 0 1.558.219 2.15.657.604.439 1.001 1.043 1.19 1.813h-.212l.177-2.328h.729l-.107.977c-.023.32-.035.634-.035.942V85h-.747v-2.328h.196c-.19.77-.587 1.374-1.19 1.813-.605.438-1.322.657-2.151.657zm0-.693c.971 0 1.742-.332 2.31-.995.569-.675.853-1.64.853-2.897 0-1.255-.284-2.215-.853-2.878-.569-.676-1.339-1.013-2.31-1.013-.971 0-1.747.337-2.328 1.013-.569.663-.853 1.623-.853 2.878 0 1.256.284 2.222.853 2.897.58.663 1.357.995 2.328.995zm9.614.693c-.723 0-1.28-.225-1.67-.675-.38-.462-.57-1.161-.57-2.097v-5.615h-1.776v-.64h1.777v-2.541l.746-.285v2.826h2.701v.64h-2.7v5.455c0 .782.118 1.35.355 1.706.248.355.645.533 1.19.533.237 0 .45-.024.64-.071.19-.047.35-.1.48-.16v.71c-.13.06-.308.108-.533.143a2.94 2.94 0 01-.64.071zm6.74 0c-1.302 0-2.339-.397-3.109-1.19-.77-.806-1.155-1.926-1.155-3.359 0-.948.172-1.765.515-2.452a3.853 3.853 0 011.44-1.6c.628-.379 1.344-.568 2.15-.568.77 0 1.422.165 1.955.497.545.32.96.788 1.244 1.404.296.604.444 1.327.444 2.168v.48h-7.268v-.675h6.877l-.302.23c0-1.066-.249-1.9-.747-2.505-.497-.616-1.238-.924-2.22-.924-1.043 0-1.86.355-2.453 1.066-.58.711-.87 1.641-.87 2.79v.089c0 1.256.307 2.215.923 2.879.616.651 1.475.977 2.577.977.557 0 1.078-.089 1.564-.266.485-.178.953-.48 1.403-.907l.374.587c-.368.403-.853.716-1.457.942a5.352 5.352 0 01-1.884.337zm10.041-6.415c0-1.327.214-2.464.64-3.412.439-.96 1.066-1.694 1.884-2.203.829-.522 1.83-.782 3.003-.782 1.137 0 2.121.26 2.95.782.829.509 1.469 1.244 1.919 2.203.45.948.675 2.08.675 3.394 0 1.327-.231 2.47-.693 3.43-.45.96-1.09 1.7-1.919 2.221-.829.522-1.807.782-2.932.782-1.161 0-2.156-.26-2.985-.782-.818-.521-1.446-1.261-1.884-2.221-.438-.96-.658-2.097-.658-3.412zm.8 0c0 1.789.403 3.187 1.208 4.194.806.995 1.979 1.493 3.519 1.493 1.481 0 2.642-.498 3.483-1.493.841-.995 1.262-2.393 1.262-4.194 0-1.8-.421-3.193-1.262-4.176-.829-.995-1.99-1.493-3.483-1.493-1.54 0-2.713.498-3.519 1.493-.805.983-1.208 2.375-1.208 4.176zM112.897 85v-8.245h-1.777v-.64h1.955l-.178.195V74.73c0-.912.219-1.617.658-2.115.45-.51 1.084-.764 1.901-.764.201 0 .415.024.64.071.225.036.403.083.533.142v.711a2.718 2.718 0 00-.498-.16 2.777 2.777 0 00-.639-.071c-.415 0-.765.089-1.049.266a1.56 1.56 0 00-.604.782c-.13.332-.195.753-.195 1.262v1.51l-.143-.248h2.755v.64h-2.612V85h-.747zm5.345 0v-8.245h-1.777v-.64h1.955l-.178.195V74.73c0-.912.219-1.617.658-2.115.45-.51 1.084-.764 1.901-.764.201 0 .415.024.64.071.225.036.403.083.533.142v.711a2.718 2.718 0 00-.498-.16 2.777 2.777 0 00-.639-.071c-.415 0-.765.089-1.049.266a1.56 1.56 0 00-.604.782c-.13.332-.196.753-.196 1.262v1.51l-.142-.248h2.755v.64h-2.613V85h-.746zm8.564.142c-1.304 0-2.34-.397-3.11-1.19-.77-.806-1.155-1.926-1.155-3.359 0-.948.172-1.765.515-2.452.344-.688.823-1.22 1.439-1.6.628-.379 1.345-.568 2.151-.568.77 0 1.421.165 1.954.497.545.32.96.788 1.244 1.404.297.604.445 1.327.445 2.168v.48h-7.268v-.675h6.877l-.302.23c0-1.066-.249-1.9-.747-2.505-.497-.616-1.238-.924-2.221-.924-1.043 0-1.86.355-2.452 1.066-.581.711-.871 1.641-.871 2.79v.089c0 1.256.308 2.215.924 2.879.616.651 1.475.977 2.577.977.556 0 1.078-.089 1.563-.266.486-.178.954-.48 1.404-.907l.373.587c-.367.403-.853.716-1.457.942a5.35 5.35 0 01-1.883.337zm5.917-.142v-6.86c0-.331-.011-.669-.035-1.012a14.462 14.462 0 00-.071-1.013h.728l.107 1.937-.16.018a2.47 2.47 0 01.64-1.173c.32-.308.681-.54 1.084-.693a3.501 3.501 0 011.226-.231c.142 0 .278.006.409.017.142.012.272.036.391.072l-.036.693a1.903 1.903 0 00-.391-.072 4.695 4.695 0 00-.426-.017c-.545 0-1.025.142-1.44.426a2.91 2.91 0 00-.942 1.03c-.225.404-.337.8-.337 1.192V85h-.747zm10.608 0V72.472h.658l5.402 12.226h-.498l5.42-12.226h.64V85h-.693V73.2h.426L149.462 85h-.622l-5.242-11.817h.426V85h-.693zm18.244.142c-.805 0-1.504-.183-2.097-.55-.592-.368-1.048-.895-1.368-1.582-.32-.687-.48-1.505-.48-2.453 0-.96.16-1.777.48-2.452.332-.687.794-1.214 1.386-1.582.593-.367 1.286-.55 2.079-.55.841 0 1.558.219 2.151.657.604.439 1.001 1.043 1.19 1.813h-.213l.178-2.328h.728c-.035.332-.071.657-.106.977-.024.32-.036.634-.036.942V85h-.746v-2.328h.195c-.189.77-.586 1.374-1.19 1.813-.605.438-1.321.657-2.151.657zm0-.693c.972 0 1.742-.332 2.31-.995.569-.675.853-1.64.853-2.897 0-1.255-.284-2.215-.853-2.878-.568-.676-1.338-1.013-2.31-1.013-.971 0-1.747.337-2.328 1.013-.568.663-.853 1.623-.853 2.878 0 1.256.285 2.222.853 2.897.581.663 1.357.995 2.328.995zm7.02.551v-6.966c0-.308-.018-.622-.054-.942-.023-.32-.053-.645-.088-.977h.728l.16 2.132h-.213c.249-.746.663-1.309 1.244-1.688.592-.39 1.285-.586 2.079-.586 1.054 0 1.848.272 2.381.817.545.545.818 1.398.818 2.559V85h-.747v-5.58c0-.96-.195-1.659-.586-2.097-.391-.438-1.007-.657-1.848-.657-.96 0-1.724.29-2.293.87-.557.58-.835 1.363-.835 2.346V85h-.746zm13.475.142c-.805 0-1.504-.183-2.097-.55-.592-.368-1.048-.895-1.368-1.582-.32-.687-.48-1.505-.48-2.453 0-.96.16-1.777.48-2.452.332-.687.794-1.214 1.386-1.582.592-.367 1.285-.55 2.079-.55.841 0 1.558.219 2.15.657.605.439 1.001 1.043 1.191 1.813h-.213l.177-2.328h.729c-.035.332-.071.657-.107.977-.023.32-.035.634-.035.942V85h-.746v-2.328h.195c-.19.77-.586 1.374-1.191 1.813-.604.438-1.321.657-2.15.657zm0-.693c.972 0 1.742-.332 2.31-.995.569-.675.853-1.64.853-2.897 0-1.255-.284-2.215-.853-2.878-.568-.676-1.338-1.013-2.31-1.013-.971 0-1.747.337-2.328 1.013-.568.663-.853 1.623-.853 2.878 0 1.256.285 2.222.853 2.897.581.663 1.357.995 2.328.995zm10.751 4.514a6.42 6.42 0 01-2.043-.32 5.185 5.185 0 01-1.706-.924l.355-.604c.391.284.758.51 1.102.675.344.166.699.284 1.066.355.379.083.794.125 1.244.125.924 0 1.623-.255 2.097-.764.486-.498.729-1.215.729-2.15v-3.04h.195c-.189.783-.592 1.393-1.208 1.831-.604.438-1.327.657-2.168.657-.818 0-1.528-.177-2.133-.533a3.745 3.745 0 01-1.386-1.546c-.32-.663-.48-1.445-.48-2.345 0-.9.16-1.677.48-2.328.332-.664.794-1.173 1.386-1.529.605-.367 1.315-.55 2.133-.55.841 0 1.564.219 2.168.657.616.439 1.019 1.055 1.208 1.848l-.195-.23.16-2.133h.728c-.035.332-.071.657-.106.977-.024.32-.036.634-.036.942v7.197c0 1.232-.302 2.162-.906 2.79-.604.628-1.499.942-2.684.942zm-.355-4.851c.983 0 1.759-.326 2.328-.978.58-.663.871-1.581.871-2.754s-.291-2.085-.871-2.737c-.569-.651-1.345-.977-2.328-.977-.983 0-1.765.326-2.346.977-.58.652-.87 1.564-.87 2.737s.29 2.09.87 2.754c.581.652 1.363.978 2.346.978zm10.714 1.03c-1.303 0-2.34-.397-3.11-1.19-.77-.806-1.155-1.926-1.155-3.359 0-.948.172-1.765.515-2.452a3.857 3.857 0 011.44-1.6c.628-.379 1.344-.568 2.15-.568.77 0 1.422.165 1.955.497.545.32.959.788 1.244 1.404.296.604.444 1.327.444 2.168v.48h-7.268v-.675h6.877l-.302.23c0-1.066-.249-1.9-.746-2.505-.498-.616-1.238-.924-2.222-.924-1.042 0-1.86.355-2.452 1.066-.581.711-.871 1.641-.871 2.79v.089c0 1.256.308 2.215.924 2.879.616.651 1.475.977 2.577.977.557 0 1.078-.089 1.564-.266.486-.178.953-.48 1.404-.907l.373.587c-.367.403-.853.716-1.457.942a5.356 5.356 0 01-1.884.337zm5.953-.142v-6.966c0-.308-.017-.622-.053-.942-.024-.32-.053-.645-.089-.977h.729l.16 2.132h-.214c.226-.734.599-1.297 1.12-1.688.521-.39 1.155-.586 1.901-.586.782 0 1.41.19 1.884.568.474.368.782.942.924 1.724h-.249c.202-.699.581-1.256 1.138-1.67.568-.415 1.249-.622 2.043-.622.948 0 1.671.272 2.168.817.498.545.747 1.398.747 2.559V85h-.747v-5.58c0-.96-.172-1.659-.515-2.097-.344-.438-.9-.657-1.671-.657-.864 0-1.551.29-2.061.87-.497.58-.746 1.363-.746 2.346V85h-.747v-5.58c0-.96-.171-1.659-.515-2.097-.344-.438-.9-.657-1.67-.657-.865 0-1.546.29-2.044.87-.498.58-.746 1.363-.746 2.346V85h-.747zm18.95.142c-1.303 0-2.34-.397-3.11-1.19-.77-.806-1.155-1.926-1.155-3.359 0-.948.172-1.765.515-2.452a3.857 3.857 0 011.44-1.6c.628-.379 1.344-.568 2.15-.568.77 0 1.421.165 1.955.497.545.32.959.788 1.244 1.404.296.604.444 1.327.444 2.168v.48h-7.268v-.675h6.877l-.302.23c0-1.066-.249-1.9-.747-2.505-.497-.616-1.238-.924-2.221-.924-1.042 0-1.86.355-2.452 1.066-.581.711-.871 1.641-.871 2.79v.089c0 1.256.308 2.215.924 2.879.616.651 1.475.977 2.577.977.557 0 1.078-.089 1.564-.266.485-.178.953-.48 1.403-.907l.374.587c-.368.403-.853.716-1.458.942a5.35 5.35 0 01-1.883.337zm5.953-.142v-6.966c0-.308-.018-.622-.053-.942-.024-.32-.053-.645-.089-.977h.729l.159 2.132h-.213c.249-.746.664-1.309 1.244-1.688.593-.39 1.286-.586 2.079-.586 1.055 0 1.848.272 2.382.817.544.545.817 1.398.817 2.559V85h-.746v-5.58c0-.96-.196-1.659-.587-2.097-.391-.438-1.007-.657-1.848-.657-.96 0-1.724.29-2.292.87-.557.58-.836 1.363-.836 2.346V85h-.746zm12.729.142c-.722 0-1.279-.225-1.67-.675-.379-.462-.569-1.161-.569-2.097v-5.615h-1.777v-.64h1.777v-2.541l.747-.285v2.826h2.701v.64h-2.701v5.455c0 .782.118 1.35.355 1.706.249.355.646.533 1.191.533.237 0 .45-.024.639-.071.19-.047.35-.1.48-.16v.71a2.12 2.12 0 01-.533.143 2.936 2.936 0 01-.64.071zM4.709 105.418c-.58 0-1.12-.136-1.617-.408a3.285 3.285 0 01-1.19-1.155 3.047 3.047 0 01-.445-1.617c0-.545.136-1.061.409-1.546.284-.486.67-.877 1.155-1.173a3.142 3.142 0 011.688-.462c.58 0 1.114.142 1.6.426a3.22 3.22 0 011.172 1.12c.308.474.462 1.019.462 1.635 0 .58-.148 1.113-.444 1.599a3.132 3.132 0 01-1.173 1.155 3.145 3.145 0 01-1.617.426zM15.572 107V94.472h.747V107h-.747zm4.04 0v-6.966c0-.308-.018-.622-.053-.942-.024-.32-.054-.645-.09-.977h.73l.16 2.132h-.214c.249-.746.663-1.309 1.244-1.688.592-.39 1.285-.586 2.079-.586 1.054 0 1.848.272 2.381.817.545.545.818 1.398.818 2.559V107h-.747v-5.58c0-.959-.195-1.659-.586-2.097-.391-.438-1.007-.657-1.848-.657-.96 0-1.724.29-2.293.87-.556.581-.835 1.363-.835 2.346V107h-.746zm12.729.142c-.723 0-1.28-.225-1.67-.675-.38-.462-.57-1.161-.57-2.097v-5.615h-1.776v-.64h1.777v-2.541l.746-.285v2.826h2.701v.64h-2.7v5.455c0 .782.118 1.351.355 1.706.248.355.645.533 1.19.533a2.663 2.663 0 001.12-.231v.711c-.13.059-.308.107-.533.142a2.966 2.966 0 01-.64.071zm6.74 0c-1.302 0-2.339-.397-3.109-1.19-.77-.806-1.155-1.926-1.155-3.359 0-.948.172-1.765.515-2.452a3.852 3.852 0 011.44-1.6c.628-.379 1.344-.568 2.15-.568.77 0 1.422.165 1.955.497.545.32.96.788 1.244 1.404.296.604.444 1.327.444 2.168v.48h-7.268v-.675h6.877l-.302.231c0-1.067-.249-1.902-.746-2.506-.498-.616-1.238-.924-2.222-.924-1.042 0-1.86.355-2.452 1.066-.58.711-.87 1.641-.87 2.79v.089c0 1.256.307 2.215.923 2.879.616.651 1.475.977 2.577.977.557 0 1.078-.089 1.564-.266.485-.178.953-.48 1.404-.907l.373.587c-.368.402-.853.716-1.458.942a5.354 5.354 0 01-1.883.337zm9.686 3.821a6.428 6.428 0 01-2.044-.32 5.176 5.176 0 01-1.706-.924l.356-.604c.39.284.758.509 1.102.675.343.166.699.284 1.066.355.379.083.794.125 1.244.125.924 0 1.623-.255 2.097-.764.485-.498.728-1.215.728-2.151v-3.038h.196c-.19.782-.593 1.392-1.209 1.83-.604.438-1.327.658-2.168.658-.817 0-1.528-.178-2.132-.534a3.736 3.736 0 01-1.386-1.546c-.32-.663-.48-1.445-.48-2.345 0-.901.16-1.677.48-2.328.331-.664.794-1.173 1.386-1.529.604-.367 1.315-.55 2.132-.55.841 0 1.564.219 2.168.657.616.439 1.02 1.055 1.209 1.848l-.196-.231.16-2.132h.729l-.107.977c-.024.32-.035.634-.035.942v7.197c0 1.232-.303 2.162-.907 2.79-.604.628-1.498.942-2.683.942zm-.355-4.852c.983 0 1.759-.325 2.328-.977.58-.663.87-1.581.87-2.754s-.29-2.085-.87-2.737c-.57-.651-1.345-.977-2.328-.977-.984 0-1.766.326-2.346.977-.58.652-.87 1.564-.87 2.737s.29 2.091.87 2.754c.58.652 1.362.977 2.346.977zm7.017.889v-6.859c0-.332-.012-.67-.035-1.013a13.993 13.993 0 00-.071-1.013h.728l.107 1.937-.16.018c.119-.474.332-.865.64-1.173.32-.308.68-.54 1.084-.693a3.506 3.506 0 011.226-.231c.142 0 .278.006.409.017.142.012.272.036.39.072l-.035.693a1.907 1.907 0 00-.39-.072 4.713 4.713 0 00-.427-.017c-.545 0-1.025.142-1.44.426a2.903 2.903 0 00-.942 1.031c-.225.403-.337.8-.337 1.19V107h-.747zm9.26.142c-.806 0-1.505-.183-2.097-.551-.593-.367-1.049-.894-1.368-1.581-.32-.687-.48-1.505-.48-2.453 0-.959.16-1.777.48-2.452.331-.687.793-1.214 1.386-1.582.592-.367 1.285-.55 2.079-.55.84 0 1.558.219 2.15.657.604.439 1.001 1.043 1.19 1.813h-.213l.178-2.328h.728c-.035.332-.07.657-.106.977-.024.32-.036.634-.036.942V107h-.746v-2.328h.195c-.189.77-.586 1.374-1.19 1.813-.604.438-1.321.657-2.15.657zm0-.693c.971 0 1.741-.332 2.31-.995.569-.675.853-1.641.853-2.897 0-1.255-.285-2.215-.853-2.878-.569-.676-1.339-1.013-2.31-1.013-.972 0-1.748.337-2.328 1.013-.569.663-.853 1.623-.853 2.878 0 1.256.284 2.222.853 2.897.58.663 1.356.995 2.328.995zm9.614.693c-.723 0-1.28-.225-1.67-.675-.38-.462-.57-1.161-.57-2.097v-5.615h-1.776v-.64h1.776v-2.541l.747-.285v2.826h2.701v.64H72.81v5.455c0 .782.118 1.351.355 1.706.25.355.646.533 1.19.533.238 0 .451-.024.64-.071.19-.047.35-.101.48-.16v.711c-.13.059-.308.107-.533.142a2.965 2.965 0 01-.64.071zm6.74 0c-1.303 0-2.34-.397-3.11-1.19-.77-.806-1.154-1.926-1.154-3.359 0-.948.171-1.765.515-2.452a3.85 3.85 0 011.44-1.6c.627-.379 1.344-.568 2.15-.568.77 0 1.421.165 1.954.497.545.32.96.788 1.244 1.404.296.604.445 1.327.445 2.168v.48h-7.269v-.675h6.877l-.302.231c0-1.067-.248-1.902-.746-2.506-.498-.616-1.238-.924-2.221-.924-1.043 0-1.86.355-2.453 1.066-.58.711-.87 1.641-.87 2.79v.089c0 1.256.308 2.215.924 2.879.616.651 1.475.977 2.576.977.557 0 1.079-.089 1.564-.266.486-.178.954-.48 1.404-.907l.373.587c-.367.402-.853.716-1.457.942a5.354 5.354 0 01-1.884.337zm9.26 0c-.795 0-1.488-.183-2.08-.551-.58-.367-1.03-.894-1.35-1.581-.32-.687-.48-1.505-.48-2.453 0-.959.16-1.777.48-2.452.32-.687.77-1.214 1.35-1.582.592-.367 1.285-.55 2.08-.55.84 0 1.563.219 2.167.657.604.439 1.007 1.043 1.209 1.813h-.196v-6.522h.746V107h-.746v-2.328h.195c-.2.77-.604 1.374-1.208 1.813-.604.438-1.327.657-2.168.657zm.017-.693c.96 0 1.73-.332 2.31-.995.58-.675.87-1.641.87-2.897 0-1.255-.29-2.215-.87-2.878-.58-.676-1.35-1.013-2.31-1.013-.971 0-1.742.337-2.31 1.013-.569.663-.853 1.623-.853 2.878 0 1.256.284 2.222.853 2.897.568.663 1.338.995 2.31.995zm14.749.551V95.165h-4.655v-.693h10.058v.693h-4.656V107h-.747zm9.537.142c-1.303 0-2.34-.397-3.11-1.19-.77-.806-1.155-1.926-1.155-3.359 0-.948.172-1.765.515-2.452a3.856 3.856 0 011.44-1.6c.628-.379 1.344-.568 2.15-.568.77 0 1.422.165 1.955.497.545.32.959.788 1.244 1.404.296.604.444 1.327.444 2.168v.48h-7.268v-.675h6.877l-.302.231c0-1.067-.249-1.902-.747-2.506-.497-.616-1.238-.924-2.221-.924-1.042 0-1.86.355-2.452 1.066-.581.711-.871 1.641-.871 2.79v.089c0 1.256.308 2.215.924 2.879.616.651 1.475.977 2.577.977.557 0 1.078-.089 1.564-.266.485-.178.953-.48 1.404-.907l.373.587c-.368.402-.853.716-1.457.942a5.361 5.361 0 01-1.884.337zm9.383 0c-.829 0-1.546-.183-2.15-.551-.604-.379-1.072-.918-1.404-1.617-.32-.699-.48-1.528-.48-2.488 0-.959.166-1.777.498-2.452.331-.675.799-1.185 1.403-1.528.605-.356 1.315-.533 2.133-.533.557 0 1.09.112 1.599.337.522.213.954.516 1.297.907l-.373.568a3.597 3.597 0 00-1.226-.853 3.477 3.477 0 00-1.315-.266c-1.019 0-1.818.331-2.399.995-.569.651-.853 1.599-.853 2.843 0 1.256.284 2.227.853 2.914.581.688 1.38 1.031 2.399 1.031.415 0 .841-.083 1.28-.249.45-.177.87-.468 1.261-.87l.373.568a3.448 3.448 0 01-1.332.924 4.093 4.093 0 01-1.564.32zm5.23-.142V93.921h.746v6.344h-.213c.237-.758.657-1.327 1.262-1.706.604-.39 1.303-.586 2.097-.586 1.078 0 1.871.278 2.381.835.521.557.782 1.392.782 2.505V107h-.747v-5.615c0-.948-.189-1.635-.568-2.062-.379-.438-.996-.657-1.848-.657-.948 0-1.712.29-2.293.87-.569.581-.853 1.351-.853 2.311V107h-.746zm10.134 0v-6.966c0-.308-.017-.622-.053-.942-.024-.32-.053-.645-.089-.977h.729l.16 2.132h-.213c.248-.746.663-1.309 1.243-1.688.593-.39 1.286-.586 2.08-.586 1.054 0 1.848.272 2.381.817.545.545.817 1.398.817 2.559V107h-.746v-5.58c0-.959-.196-1.659-.586-2.097-.391-.438-1.007-.657-1.849-.657-.959 0-1.723.29-2.292.87-.557.581-.835 1.363-.835 2.346V107h-.747zm13.476.142c-.806 0-1.505-.183-2.097-.551-.592-.367-1.048-.894-1.368-1.581-.32-.687-.48-1.505-.48-2.453 0-.947.16-1.765.48-2.452.32-.687.776-1.214 1.368-1.582.592-.367 1.291-.55 2.097-.55s1.504.183 2.097.55c.592.368 1.048.895 1.368 1.582.332.687.498 1.505.498 2.452 0 .948-.166 1.766-.498 2.453-.32.687-.776 1.214-1.368 1.581-.593.368-1.291.551-2.097.551zm0-.693c.971 0 1.747-.332 2.328-.995.58-.675.871-1.641.871-2.897 0-1.255-.291-2.215-.871-2.878-.581-.676-1.357-1.013-2.328-1.013-.972 0-1.747.337-2.328 1.013-.569.663-.853 1.623-.853 2.878 0 1.256.284 2.222.853 2.897.581.663 1.356.995 2.328.995zm6.481.551V93.921h.747V107h-.747zm7.211.142c-.805 0-1.504-.183-2.097-.551-.592-.367-1.048-.894-1.368-1.581-.32-.687-.48-1.505-.48-2.453 0-.947.16-1.765.48-2.452.32-.687.776-1.214 1.368-1.582.593-.367 1.292-.55 2.097-.55.806 0 1.505.183 2.097.55.592.368 1.048.895 1.368 1.582.332.687.498 1.505.498 2.452 0 .948-.166 1.766-.498 2.453-.32.687-.776 1.214-1.368 1.581-.592.368-1.291.551-2.097.551zm0-.693c.972 0 1.748-.332 2.328-.995.581-.675.871-1.641.871-2.897 0-1.255-.29-2.215-.871-2.878-.58-.676-1.356-1.013-2.328-1.013-.971 0-1.747.337-2.328 1.013-.568.663-.853 1.623-.853 2.878 0 1.256.285 2.222.853 2.897.581.663 1.357.995 2.328.995zm10.213 4.514a6.428 6.428 0 01-2.043-.32 5.17 5.17 0 01-1.706-.924l.355-.604c.391.284.758.509 1.102.675.344.166.699.284 1.066.355.379.083.794.125 1.244.125.924 0 1.623-.255 2.097-.764.486-.498.729-1.215.729-2.151v-3.038h.195c-.189.782-.592 1.392-1.208 1.83-.604.438-1.327.658-2.168.658-.818 0-1.529-.178-2.133-.534a3.74 3.74 0 01-1.386-1.546c-.32-.663-.48-1.445-.48-2.345 0-.901.16-1.677.48-2.328.332-.664.794-1.173 1.386-1.529.604-.367 1.315-.55 2.133-.55.841 0 1.564.219 2.168.657.616.439 1.019 1.055 1.208 1.848l-.195-.231.16-2.132h.728c-.035.332-.071.657-.106.977-.024.32-.036.634-.036.942v7.197c0 1.232-.302 2.162-.906 2.79-.604.628-1.499.942-2.684.942zm-.355-4.852c.983 0 1.759-.325 2.328-.977.58-.663.871-1.581.871-2.754s-.291-2.085-.871-2.737c-.569-.651-1.345-.977-2.328-.977-.983 0-1.765.326-2.346.977-.58.652-.87 1.564-.87 2.737s.29 2.091.87 2.754c.581.652 1.363.977 2.346.977zm6.556 4.923l-.178-.693c.557-.13 1.013-.296 1.368-.498a2.83 2.83 0 00.924-.746c.249-.308.474-.693.676-1.155l.462-1.066-.018.373-3.874-9.134h.853l3.572 8.601h-.409l3.519-8.601h.853l-4.141 9.845a6.363 6.363 0 01-.693 1.279 4.262 4.262 0 01-.817.889 3.554 3.554 0 01-.96.568 6.139 6.139 0 01-1.137.338zM3.552 143.101c-.633 0-1.199-.082-1.698-.246a4.021 4.021 0 01-1.307-.704l.336-.737c.26.193.52.357.781.491.269.127.555.224.86.291.306.059.649.089 1.028.089.663 0 1.155-.123 1.475-.369.32-.245.48-.573.48-.983 0-.35-.111-.618-.335-.804-.223-.186-.614-.335-1.173-.447l-1.173-.234c-.722-.149-1.262-.391-1.62-.726-.35-.336-.525-.79-.525-1.363 0-.47.12-.879.358-1.229a2.41 2.41 0 011.028-.816c.439-.193.95-.29 1.53-.29.559 0 1.069.086 1.53.257.462.164.857.406 1.185.726l-.324.715a3.261 3.261 0 00-1.106-.67 3.683 3.683 0 00-1.296-.213c-.61 0-1.095.134-1.452.403-.35.26-.525.618-.525 1.072 0 .365.111.652.335.86.223.201.592.354 1.106.458l1.184.235c.76.156 1.318.391 1.675.704.358.312.537.752.537 1.318 0 .432-.12.815-.358 1.15-.23.335-.562.596-.994.782-.432.186-.946.28-1.542.28zm6.257 0c-.551 0-.972-.157-1.262-.47-.29-.32-.436-.8-.436-1.441v-3.094H7.016v-.704h1.095v-1.53l.905-.257v1.787h1.609v.704H9.016v2.994c0 .447.074.767.223.96.157.187.388.28.693.28.141 0 .268-.011.38-.034.112-.03.212-.063.302-.1v.759c-.105.045-.231.079-.38.101-.142.03-.283.045-.425.045zm4.164 0c-.536 0-1.006-.116-1.408-.347a2.395 2.395 0 01-.916-1.005c-.216-.44-.324-.957-.324-1.553 0-.603.108-1.121.324-1.553.216-.432.522-.763.916-.994.402-.238.872-.357 1.408-.357.543 0 1.013.119 1.407.357.402.231.712.562.928.994.223.432.335.95.335 1.553 0 .596-.112 1.113-.335 1.553a2.373 2.373 0 01-.928 1.005c-.394.231-.864.347-1.407.347zm0-.738c.536 0 .96-.182 1.273-.547.313-.372.47-.912.47-1.62 0-.715-.16-1.255-.48-1.62-.314-.372-.734-.558-1.263-.558-.529 0-.95.186-1.263.558-.312.365-.469.905-.469 1.62 0 .708.157 1.248.47 1.62.312.365.733.547 1.262.547zm4.08.637v-4.312c0-.209-.01-.421-.033-.637a18.08 18.08 0 00-.056-.659h.871l.112 1.229h-.134c.164-.432.425-.76.782-.983a2.309 2.309 0 011.262-.346c.663 0 1.162.178 1.497.536.343.35.514.905.514 1.664V143h-.905v-3.452c0-.529-.108-.912-.324-1.15-.208-.246-.536-.369-.983-.369-.521 0-.934.16-1.24.48-.305.321-.458.749-.458 1.285V143h-.904zm9.037.101c-.879 0-1.571-.254-2.078-.76-.506-.514-.76-1.225-.76-2.134 0-.588.112-1.098.336-1.53.223-.44.536-.778.938-1.017a2.61 2.61 0 011.385-.368c.514 0 .946.108 1.296.324.35.216.618.525.805.927.186.394.279.864.279 1.407v.335h-4.346v-.569H28.7l-.19.145c0-.596-.134-1.061-.402-1.396-.268-.336-.667-.503-1.196-.503-.558 0-.994.197-1.307.592-.312.387-.469.912-.469 1.575v.101c0 .7.171 1.232.514 1.597.35.358.838.536 1.463.536.336 0 .648-.048.939-.145a2.63 2.63 0 00.849-.503l.313.637a2.543 2.543 0 01-.939.559 3.67 3.67 0 01-1.184.19zm3.686-.101v-7.876h.927v3.486h4.748v-3.486h.916V143h-.916v-3.597h-4.748V143h-.927zm10.943.101c-.879 0-1.571-.254-2.078-.76-.506-.514-.76-1.225-.76-2.134 0-.588.112-1.098.336-1.53.223-.44.536-.778.938-1.017a2.61 2.61 0 011.386-.368c.513 0 .945.108 1.295.324.35.216.618.525.805.927.186.394.279.864.279 1.407v.335h-4.346v-.569h3.754l-.19.145c0-.596-.134-1.061-.402-1.396-.268-.336-.667-.503-1.195-.503-.56 0-.995.197-1.307.592-.313.387-.47.912-.47 1.575v.101c0 .7.172 1.232.514 1.597.35.358.838.536 1.464.536.335 0 .648-.048.938-.145a2.63 2.63 0 00.849-.503l.313.637a2.543 2.543 0 01-.939.559 3.67 3.67 0 01-1.184.19zm5.708 0c-.492 0-.923-.116-1.296-.347a2.397 2.397 0 01-.871-1.005c-.201-.432-.302-.95-.302-1.553 0-.611.1-1.132.302-1.564.208-.432.499-.763.871-.994.373-.231.804-.346 1.296-.346.506 0 .942.126 1.307.379.372.254.622.596.748 1.028h-.134v-3.921h.905V143h-.894v-1.341h.123c-.119.447-.364.801-.737 1.062-.372.253-.812.38-1.318.38zm.19-.738c.529 0 .953-.182 1.273-.547.32-.372.48-.912.48-1.62 0-.715-.16-1.255-.48-1.62-.32-.372-.744-.558-1.273-.558-.529 0-.953.186-1.274.558-.312.365-.469.905-.469 1.62 0 .708.157 1.248.47 1.62.32.365.744.547 1.273.547zm6.855 3.128c-.485 0-.931-.059-1.341-.179a3.408 3.408 0 01-1.106-.547l.268-.681c.231.163.458.294.682.391.223.096.454.167.692.212.239.052.492.078.76.078.55 0 .968-.145 1.25-.436.284-.29.425-.703.425-1.24v-1.642h.112c-.119.44-.365.79-.737 1.05-.372.254-.808.38-1.307.38-.514 0-.96-.112-1.34-.335a2.353 2.353 0 01-.872-.972c-.201-.424-.302-.923-.302-1.497 0-.566.1-1.057.302-1.474.209-.417.499-.738.871-.961.38-.231.827-.346 1.34-.346.507 0 .943.126 1.308.379.372.254.618.604.737 1.051l-.112-.112.101-1.218h.883a9.36 9.36 0 00-.09 1.296v4.278c0 .835-.216 1.464-.648 1.888-.424.425-1.05.637-1.877.637zm-.135-3.351c.544 0 .972-.179 1.285-.536.313-.365.47-.875.47-1.531 0-.655-.157-1.162-.47-1.519-.313-.358-.74-.536-1.285-.536-.536 0-.964.178-1.284.536-.32.357-.48.864-.48 1.519 0 .656.16 1.166.48 1.531.32.357.748.536 1.284.536zm6.888.961c-.879 0-1.572-.254-2.078-.76-.506-.514-.76-1.225-.76-2.134 0-.588.112-1.098.335-1.53.224-.44.537-.778.939-1.017a2.61 2.61 0 011.385-.368c.514 0 .946.108 1.296.324.35.216.618.525.804.927.186.394.28.864.28 1.407v.335H59.08v-.569h3.753l-.19.145c0-.596-.134-1.061-.402-1.396-.268-.336-.666-.503-1.195-.503-.559 0-.994.197-1.307.592-.313.387-.47.912-.47 1.575v.101c0 .7.172 1.232.515 1.597.35.358.837.536 1.463.536.335 0 .648-.048.938-.145a2.63 2.63 0 00.85-.503l.312.637a2.542 2.542 0 01-.938.559 3.67 3.67 0 01-1.184.19zm6.498-.101v-5.608h.905V143h-.905zm-.112-6.881v-1.017h1.117v1.017h-1.117zm4.64 6.982c-.448 0-.865-.06-1.252-.179a2.711 2.711 0 01-.96-.525l.312-.637c.276.216.573.376.894.48.327.105.666.157 1.016.157.447 0 .782-.078 1.006-.235a.779.779 0 00.346-.67.64.64 0 00-.223-.514c-.142-.134-.377-.238-.704-.313l-1.04-.212c-.476-.104-.833-.279-1.072-.525-.238-.253-.357-.573-.357-.961 0-.327.086-.614.257-.86.171-.253.42-.45.748-.592.328-.149.712-.223 1.151-.223.41 0 .786.063 1.128.19.35.119.64.294.872.525l-.324.625a2.132 2.132 0 00-.771-.48 2.377 2.377 0 00-.883-.168c-.439 0-.77.09-.994.268a.829.829 0 00-.324.682c0 .216.067.394.201.536.142.134.358.235.648.302l1.04.212c.506.112.882.287 1.127.525.254.231.38.544.38.938 0 .335-.093.63-.28.883a1.78 1.78 0 01-.781.569c-.328.135-.715.202-1.162.202zm8.722 0c-.5 0-.935-.116-1.307-.347a2.396 2.396 0 01-.871-1.005c-.202-.432-.302-.95-.302-1.553 0-.611.1-1.132.302-1.564.208-.432.498-.763.87-.994.373-.231.809-.346 1.308-.346.506 0 .942.13 1.307.391.372.253.618.599.737 1.039h-.134l.123-1.33h.871l-.067.659a9.248 9.248 0 00-.022.637V143h-.905v-1.318h.123a1.78 1.78 0 01-.737 1.039 2.25 2.25 0 01-1.296.38zm.178-.738c.537 0 .961-.182 1.274-.547.313-.372.47-.912.47-1.62 0-.715-.157-1.255-.47-1.62-.313-.372-.737-.558-1.273-.558-.53 0-.954.186-1.274.558-.313.365-.47.905-.47 1.62 0 .708.157 1.248.47 1.62.32.365.745.547 1.273.547zm7.3 3.05v-6.725c0-.209-.012-.421-.034-.637a18.08 18.08 0 00-.056-.659h.871l.123 1.33h-.134c.12-.44.361-.786.726-1.039.365-.261.8-.391 1.307-.391.506 0 .942.115 1.307.346.372.231.663.562.871.994.209.432.313.953.313 1.564 0 .603-.104 1.121-.313 1.553a2.323 2.323 0 01-.86 1.005c-.372.231-.812.347-1.318.347-.499 0-.93-.127-1.296-.38a1.796 1.796 0 01-.726-1.039h.123v3.731h-.905zm2.624-3.05c.537 0 .961-.182 1.274-.547.32-.372.48-.912.48-1.62 0-.715-.16-1.255-.48-1.62-.313-.372-.737-.558-1.274-.558-.529 0-.953.186-1.273.558-.313.365-.47.905-.47 1.62 0 .708.157 1.248.47 1.62.32.365.744.547 1.273.547zm4.051.637v-4.256c0-.224-.008-.451-.022-.682a9.455 9.455 0 00-.045-.67h.871l.112 1.363-.156.011c.074-.335.204-.61.39-.826.187-.216.407-.377.66-.481.253-.112.517-.167.793-.167.112 0 .208.003.29.011.09.007.171.026.246.056l-.011.804a1.302 1.302 0 00-.313-.067 1.917 1.917 0 00-.313-.022 1.57 1.57 0 00-.86.234c-.238.157-.42.358-.547.603-.12.246-.179.507-.179.782V143h-.916zm6.316.101c-.536 0-1.005-.116-1.407-.347a2.393 2.393 0 01-.916-1.005c-.216-.44-.324-.957-.324-1.553 0-.603.108-1.121.324-1.553.216-.432.521-.763.916-.994.402-.238.871-.357 1.407-.357.544 0 1.013.119 1.408.357.402.231.711.562.927.994.223.432.335.95.335 1.553 0 .596-.112 1.113-.335 1.553a2.373 2.373 0 01-.927 1.005c-.395.231-.864.347-1.408.347zm0-.738c.536 0 .961-.182 1.274-.547.313-.372.469-.912.469-1.62 0-.715-.16-1.255-.48-1.62-.313-.372-.734-.558-1.263-.558-.528 0-.949.186-1.262.558-.313.365-.47.905-.47 1.62 0 .708.157 1.248.47 1.62.313.365.734.547 1.262.547zm6.203.738c-.491 0-.923-.116-1.295-.347a2.397 2.397 0 01-.872-1.005c-.201-.432-.301-.95-.301-1.553 0-.611.1-1.132.301-1.564.209-.432.499-.763.872-.994.372-.231.804-.346 1.295-.346.507 0 .942.126 1.307.379.373.254.622.596.749 1.028h-.134v-3.921h.905V143h-.894v-1.341h.123a1.833 1.833 0 01-.737 1.062c-.373.253-.812.38-1.319.38zm.19-.738c.529 0 .954-.182 1.274-.547.32-.372.48-.912.48-1.62 0-.715-.16-1.255-.48-1.62-.32-.372-.745-.558-1.274-.558-.528 0-.953.186-1.273.558-.313.365-.469.905-.469 1.62 0 .708.156 1.248.469 1.62.32.365.745.547 1.273.547zm6.363.738c-.662 0-1.165-.183-1.508-.548-.335-.365-.502-.923-.502-1.675v-3.486h.904v3.463c0 .514.105.894.313 1.14.209.238.533.357.972.357.492 0 .886-.16 1.184-.48.298-.321.447-.749.447-1.285v-3.195h.905V143h-.883v-1.262h.146c-.157.432-.41.767-.76 1.005-.343.238-.748.358-1.218.358zm6.827 0c-.551 0-1.031-.12-1.441-.358a2.43 2.43 0 01-.938-1.016c-.216-.44-.324-.961-.324-1.564 0-.611.112-1.129.335-1.553a2.3 2.3 0 01.939-.983c.409-.224.886-.335 1.429-.335.358 0 .704.063 1.039.19.343.126.626.305.849.536l-.324.648a2.218 2.218 0 00-1.508-.637c-.581 0-1.031.182-1.351.547-.321.365-.481.898-.481 1.598 0 .692.16 1.229.481 1.608.32.38.77.57 1.351.57.246 0 .499-.048.76-.145.268-.097.518-.257.748-.48l.324.636a2.27 2.27 0 01-.86.548c-.342.126-.685.19-1.028.19zm5.163 0c-.551 0-.972-.157-1.263-.47-.29-.32-.435-.8-.435-1.441v-3.094h-1.095v-.704h1.095v-1.53l.905-.257v1.787h1.608v.704h-1.608v2.994c0 .447.074.767.223.96.156.187.387.28.693.28.141 0 .268-.011.379-.034.112-.03.213-.063.302-.1v.759a1.524 1.524 0 01-.38.101c-.141.03-.283.045-.424.045zm7.645 0c-.507 0-.942-.127-1.307-.38a1.905 1.905 0 01-.738-1.062h.123V143h-.893v-8.222h.904v3.921h-.134c.127-.432.373-.774.738-1.028.365-.253.8-.379 1.307-.379.506 0 .942.119 1.307.357.372.231.659.562.86.994.208.432.313.95.313 1.553s-.105 1.121-.313 1.553a2.397 2.397 0 01-.872 1.005c-.364.231-.796.347-1.295.347zm-.19-.738c.528 0 .953-.182 1.273-.547.32-.365.481-.905.481-1.62 0-.715-.161-1.255-.481-1.62-.32-.372-.745-.558-1.273-.558-.529 0-.954.186-1.274.558-.313.365-.469.905-.469 1.62 0 .708.156 1.248.469 1.62.32.365.745.547 1.274.547zm3.773 3.173l-.212-.749c.35-.082.64-.178.871-.29.238-.104.436-.246.592-.425.157-.178.291-.402.402-.67l.291-.659-.023.38-2.446-5.731h.983l2.022 4.927h-.291l2-4.927h.95l-2.592 6.077a4.123 4.123 0 01-.492.894 2.575 2.575 0 01-.58.592 2.488 2.488 0 01-.671.369c-.245.089-.514.16-.804.212zm11.741-2.435c-.633 0-1.199-.082-1.698-.246a4.017 4.017 0 01-1.307-.704l.335-.737c.26.193.521.357.782.491.268.127.554.224.86.291.305.059.648.089 1.028.089.662 0 1.154-.123 1.474-.369.32-.245.48-.573.48-.983 0-.35-.111-.618-.335-.804-.223-.186-.614-.335-1.173-.447l-1.173-.234c-.722-.149-1.262-.391-1.619-.726-.35-.336-.525-.79-.525-1.363 0-.47.119-.879.357-1.229.246-.35.588-.622 1.028-.816.439-.193.949-.29 1.53-.29a4.38 4.38 0 011.531.257c.461.164.856.406 1.184.726l-.324.715a3.264 3.264 0 00-1.106-.67 3.685 3.685 0 00-1.296-.213c-.611 0-1.095.134-1.452.403-.35.26-.525.618-.525 1.072 0 .365.112.652.335.86.223.201.592.354 1.106.458l1.184.235c.76.156 1.318.391 1.676.704.357.312.536.752.536 1.318 0 .432-.119.815-.358 1.15-.231.335-.562.596-.994.782-.432.186-.946.28-1.541.28zm6.256 0c-.551 0-.972-.157-1.262-.47-.29-.32-.436-.8-.436-1.441v-3.094h-1.094v-.704h1.094v-1.53l.905-.257v1.787h1.609v.704h-1.609v2.994c0 .447.075.767.224.96.156.187.387.28.692.28.142 0 .268-.011.38-.034.112-.03.212-.063.302-.1v.759a1.536 1.536 0 01-.38.101c-.142.03-.283.045-.425.045zm4.164 0c-.536 0-1.005-.116-1.408-.347a2.4 2.4 0 01-.916-1.005c-.215-.44-.323-.957-.323-1.553 0-.603.108-1.121.323-1.553a2.33 2.33 0 01.916-.994c.403-.238.872-.357 1.408-.357.544 0 1.013.119 1.408.357.402.231.711.562.927.994.223.432.335.95.335 1.553 0 .596-.112 1.113-.335 1.553a2.373 2.373 0 01-.927 1.005c-.395.231-.864.347-1.408.347zm0-.738c.536 0 .961-.182 1.274-.547.312-.372.469-.912.469-1.62 0-.715-.16-1.255-.481-1.62-.312-.372-.733-.558-1.262-.558s-.949.186-1.262.558c-.313.365-.469.905-.469 1.62 0 .708.156 1.248.469 1.62.313.365.733.547 1.262.547zm4.081.637v-4.312c0-.209-.012-.421-.034-.637a17.026 17.026 0 00-.056-.659h.872l.111 1.229h-.134c.164-.432.425-.76.782-.983a2.31 2.31 0 011.263-.346c.662 0 1.161.178 1.496.536.343.35.514.905.514 1.664V143h-.905v-3.452c0-.529-.108-.912-.323-1.15-.209-.246-.537-.369-.984-.369-.521 0-.934.16-1.239.48-.306.321-.459.749-.459 1.285V143h-.904zm9.036.101c-.879 0-1.571-.254-2.078-.76-.506-.514-.759-1.225-.759-2.134 0-.588.112-1.098.335-1.53.223-.44.536-.778.938-1.017a2.61 2.61 0 011.386-.368c.513 0 .945.108 1.295.324.35.216.618.525.805.927.186.394.279.864.279 1.407v.335h-4.346v-.569h3.754l-.19.145c0-.596-.134-1.061-.402-1.396-.268-.336-.667-.503-1.195-.503-.559 0-.995.197-1.307.592-.313.387-.47.912-.47 1.575v.101c0 .7.172 1.232.514 1.597.35.358.838.536 1.464.536.335 0 .648-.048.938-.145.298-.104.581-.272.849-.503l.313.637a2.546 2.546 0 01-.939.559c-.372.126-.767.19-1.184.19zm2.804-.101l3.139-4.2v.346l-2.994-4.022h1.095l2.457 3.363h-.29l2.435-3.363h1.106l-3.005 4.022v-.346l3.139 4.2h-1.095l-2.625-3.564h.357L176.592 143h-1.094zm11.082 0v-7.876h4.915v.76h-3.988v2.759h3.743v.76h-3.743V143h-.927zm6.172 0v-5.608h.905V143h-.905zm-.111-6.881v-1.017h1.117v1.017h-1.117zm2.773 6.881v-4.312a6.28 6.28 0 00-.033-.637 19.268 19.268 0 00-.056-.659h.871l.112 1.229h-.134c.164-.432.424-.76.782-.983a2.307 2.307 0 011.262-.346c.663 0 1.162.178 1.497.536.343.35.514.905.514 1.664V143h-.905v-3.452c0-.529-.108-.912-.324-1.15-.209-.246-.536-.369-.983-.369-.521 0-.935.16-1.24.48-.305.321-.458.749-.458 1.285V143h-.905zm8.679.101c-.499 0-.934-.116-1.307-.347a2.395 2.395 0 01-.871-1.005c-.201-.432-.302-.95-.302-1.553 0-.611.101-1.132.302-1.564.208-.432.499-.763.871-.994.373-.231.808-.346 1.307-.346.507 0 .942.13 1.307.391.373.253.618.599.738 1.039h-.134l.122-1.33h.872c-.023.216-.045.436-.067.659a9.192 9.192 0 00-.023.637V143h-.904v-1.318h.122a1.782 1.782 0 01-.737 1.039 2.25 2.25 0 01-1.296.38zm.179-.738c.536 0 .961-.182 1.273-.547.313-.372.47-.912.47-1.62 0-.715-.157-1.255-.47-1.62-.312-.372-.737-.558-1.273-.558-.529 0-.953.186-1.273.558-.313.365-.47.905-.47 1.62 0 .708.157 1.248.47 1.62.32.365.744.547 1.273.547zm4.386.637v-4.312c0-.209-.011-.421-.034-.637a17.026 17.026 0 00-.056-.659h.872l.111 1.229h-.134c.164-.432.425-.76.782-.983a2.31 2.31 0 011.263-.346c.663 0 1.162.178 1.497.536.342.35.513.905.513 1.664V143h-.904v-3.452c0-.529-.108-.912-.324-1.15-.209-.246-.537-.369-.983-.369-.522 0-.935.16-1.24.48-.306.321-.458.749-.458 1.285V143h-.905zm8.902.101c-.551 0-1.031-.12-1.441-.358a2.43 2.43 0 01-.938-1.016c-.216-.44-.324-.961-.324-1.564 0-.611.112-1.129.335-1.553.224-.432.536-.76.938-.983.41-.224.887-.335 1.43-.335.358 0 .704.063 1.039.19.343.126.626.305.849.536l-.324.648a2.218 2.218 0 00-1.508-.637c-.581 0-1.031.182-1.351.547-.321.365-.481.898-.481 1.598 0 .692.16 1.229.481 1.608.32.38.77.57 1.351.57.246 0 .499-.048.76-.145a2.11 2.11 0 00.748-.48l.324.636a2.27 2.27 0 01-.86.548c-.342.126-.685.19-1.028.19zm3.174-.101v-5.608h.905V143h-.905zm-.111-6.881v-1.017h1.117v1.017h-1.117zm4.907 6.982c-.499 0-.935-.116-1.307-.347a2.397 2.397 0 01-.872-1.005c-.201-.432-.301-.95-.301-1.553 0-.611.1-1.132.301-1.564.209-.432.499-.763.872-.994.372-.231.808-.346 1.307-.346.506 0 .942.13 1.307.391.372.253.618.599.737 1.039h-.134l.123-1.33h.871l-.067.659a9.183 9.183 0 00-.022.637V143h-.905v-1.318h.123a1.782 1.782 0 01-.737 1.039c-.373.253-.805.38-1.296.38zm.178-.738c.537 0 .961-.182 1.274-.547.313-.372.469-.912.469-1.62 0-.715-.156-1.255-.469-1.62-.313-.372-.737-.558-1.274-.558-.528 0-.953.186-1.273.558-.313.365-.469.905-.469 1.62 0 .708.156 1.248.469 1.62.32.365.745.547 1.273.547zm4.386.637v-8.222h.905V143h-.905zm5.675 0v-7.876h.928V143h-.928zm2.791 0v-4.312c0-.209-.011-.421-.034-.637a17.026 17.026 0 00-.056-.659h.872l.111 1.229h-.134c.164-.432.425-.76.782-.983a2.31 2.31 0 011.263-.346c.662 0 1.161.178 1.497.536.342.35.513.905.513 1.664V143h-.904v-3.452c0-.529-.108-.912-.324-1.15-.209-.246-.537-.369-.983-.369-.522 0-.935.16-1.24.48-.306.321-.458.749-.458 1.285V143h-.905zm8.902.101c-.551 0-1.031-.12-1.441-.358a2.43 2.43 0 01-.938-1.016c-.216-.44-.324-.961-.324-1.564 0-.611.112-1.129.335-1.553.223-.432.536-.76.938-.983.41-.224.887-.335 1.43-.335.358 0 .704.063 1.039.19.343.126.626.305.849.536l-.324.648a2.218 2.218 0 00-1.508-.637c-.581 0-1.031.182-1.352.547-.32.365-.48.898-.48 1.598 0 .692.16 1.229.48 1.608.321.38.771.57 1.352.57.246 0 .499-.048.76-.145a2.11 2.11 0 00.748-.48l.324.636a2.27 2.27 0 01-.86.548c-.343.126-.685.19-1.028.19zm3.105-.101v-1.139h1.139V143h-1.139zm4.75-2.77v-.592h5.642v.592h-5.642zm9.536 2.77v-7.876h4.915v.76h-3.988v2.759h3.743v.76h-3.743V143h-.927zm9.517.101c-.79 0-1.46-.164-2.011-.492a3.266 3.266 0 01-1.273-1.396c-.291-.604-.436-1.322-.436-2.156 0-.834.145-1.549.436-2.145a3.268 3.268 0 011.273-1.397c.551-.327 1.221-.491 2.011-.491.558 0 1.057.086 1.497.257.439.171.823.421 1.15.748l-.346.738a3.8 3.8 0 00-1.061-.682c-.35-.149-.76-.223-1.229-.223-.901 0-1.586.279-2.055.838-.47.558-.704 1.344-.704 2.357 0 1.012.234 1.802.704 2.368.469.558 1.154.838 2.055.838.469 0 .879-.071 1.229-.213.35-.148.704-.383 1.061-.703l.346.748c-.327.32-.711.57-1.15.749-.44.171-.939.257-1.497.257zm4.218-.101v-7.876h.804l3.162 7.139h-.324l3.161-7.139h.804V143h-.849v-6.68h.336l-2.983 6.68h-.615l-2.993-6.68h.335V143h-.838zm12.491 0v-7.876h2.614c.871 0 1.608.153 2.212.458a3.044 3.044 0 011.374 1.33c.312.581.469 1.296.469 2.145 0 .841-.157 1.556-.469 2.144a3.104 3.104 0 01-1.374 1.341c-.604.305-1.341.458-2.212.458h-2.614zm.927-.793h1.62c1.072 0 1.869-.261 2.39-.782.522-.529.782-1.318.782-2.368 0-1.058-.26-1.847-.782-2.369-.521-.521-1.318-.782-2.39-.782h-1.62v6.301zm7.318.793v-5.608h.904V143h-.904zm-.112-6.881v-1.017h1.117v1.017h-1.117zm4.427 6.881l-2.402-5.608h.983l2.011 4.938h-.302l2.033-4.938h.939L304.499 143h-.86zm4.281 0v-5.608h.905V143h-.905zm-.112-6.881v-1.017h1.117v1.017h-1.117zm4.639 6.982c-.446 0-.863-.06-1.251-.179a2.708 2.708 0 01-.96-.525l.312-.637c.276.216.574.376.894.48.328.105.667.157 1.017.157.446 0 .782-.078 1.005-.235a.778.778 0 00.346-.67.64.64 0 00-.223-.514c-.142-.134-.376-.238-.704-.313l-1.039-.212c-.476-.104-.834-.279-1.072-.525-.239-.253-.358-.573-.358-.961 0-.327.086-.614.257-.86.172-.253.421-.45.749-.592.327-.149.711-.223 1.15-.223.41 0 .786.063 1.129.19.35.119.64.294.871.525l-.324.625a2.131 2.131 0 00-.771-.48 2.376 2.376 0 00-.882-.168c-.44 0-.771.09-.995.268a.828.828 0 00-.324.682c0 .216.067.394.202.536.141.134.357.235.647.302l1.039.212c.507.112.883.287 1.129.525.253.231.379.544.379.938 0 .335-.093.63-.279.883a1.78 1.78 0 01-.782.569c-.328.135-.715.202-1.162.202zm3.677-.101v-5.608h.905V143h-.905zm-.112-6.881v-1.017h1.117v1.017h-1.117zm5.075 6.982c-.536 0-1.006-.116-1.408-.347a2.393 2.393 0 01-.916-1.005c-.216-.44-.324-.957-.324-1.553 0-.603.108-1.121.324-1.553.216-.432.521-.763.916-.994.402-.238.872-.357 1.408-.357.543 0 1.013.119 1.407.357.402.231.711.562.927.994.224.432.336.95.336 1.553 0 .596-.112 1.113-.336 1.553a2.373 2.373 0 01-.927 1.005c-.394.231-.864.347-1.407.347zm0-.738c.536 0 .96-.182 1.273-.547.313-.372.469-.912.469-1.62 0-.715-.16-1.255-.48-1.62-.313-.372-.734-.558-1.262-.558-.529 0-.95.186-1.263.558-.312.365-.469.905-.469 1.62 0 .708.157 1.248.469 1.62.313.365.734.547 1.263.547zm4.08.637v-4.312a6.28 6.28 0 00-.033-.637 19.268 19.268 0 00-.056-.659h.871l.112 1.229h-.134c.164-.432.424-.76.782-.983a2.31 2.31 0 011.262-.346c.663 0 1.162.178 1.497.536.343.35.514.905.514 1.664V143h-.905v-3.452c0-.529-.108-.912-.324-1.15-.208-.246-.536-.369-.983-.369-.521 0-.934.16-1.24.48-.305.321-.458.749-.458 1.285V143h-.905z" fill="#000"/></svg>