<svg width="151" height="45" viewBox="0 0 151 45" fill="none" xmlns="http://www.w3.org/2000/svg"><rect width="151" height="45" rx="22.5" fill="#123B63"/><path d="M26.377 30.168c-1.057 0-2.002-.137-2.835-.41a6.697 6.697 0 01-2.182-1.175l.56-1.231c.435.323.87.597 1.305.82a6.73 6.73 0 001.436.485c.51.1 1.081.15 1.716.15 1.106 0 1.927-.206 2.461-.616.535-.41.802-.957.802-1.641 0-.584-.186-1.032-.56-1.343-.372-.31-1.025-.56-1.957-.746l-1.959-.391c-1.206-.249-2.107-.653-2.704-1.212-.584-.56-.876-1.318-.876-2.276 0-.783.199-1.467.597-2.05.41-.585.982-1.04 1.715-1.362.734-.324 1.585-.485 2.555-.485.933 0 1.784.143 2.555.429a5.34 5.34 0 011.977 1.212l-.541 1.193c-.584-.522-1.2-.895-1.846-1.118-.634-.237-1.355-.355-2.163-.355-1.02 0-1.828.224-2.425.672-.584.435-.876 1.031-.876 1.79 0 .609.186 1.088.56 1.436.372.335.988.59 1.845.764l1.977.392c1.268.261 2.2.653 2.797 1.175s.896 1.256.896 2.2a3.23 3.23 0 01-.597 1.921c-.386.56-.939.995-1.66 1.306-.721.31-1.579.466-2.573.466zm10.445 0c-.92 0-1.623-.261-2.108-.783-.485-.535-.727-1.337-.727-2.406v-5.166h-1.828v-1.175h1.828v-2.555l1.51-.428v2.983h2.686v1.175h-2.685v4.998c0 .746.124 1.28.373 1.604.26.31.646.466 1.156.466.236 0 .447-.019.634-.056.186-.05.354-.105.503-.168v1.268c-.174.075-.385.13-.634.168-.236.05-.472.075-.708.075zm6.762 0c-.833 0-1.56-.193-2.182-.578-.622-.398-1.107-.958-1.455-1.679-.335-.72-.503-1.585-.503-2.592 0-1.02.168-1.89.503-2.61.348-.722.833-1.275 1.455-1.66.621-.386 1.349-.578 2.182-.578.845 0 1.572.217 2.182.652.621.423 1.032 1.001 1.23 1.735h-.223l.205-2.22h1.454l-.111 1.1c-.025.361-.038.715-.038 1.064V30h-1.51v-2.2h.205a2.972 2.972 0 01-1.231 1.734c-.622.422-1.343.634-2.163.634zm.298-1.231c.895 0 1.604-.305 2.126-.914.522-.621.783-1.523.783-2.704 0-1.193-.26-2.095-.783-2.704-.522-.621-1.23-.932-2.126-.932-.883 0-1.591.31-2.126.932-.522.61-.783 1.51-.783 2.704 0 1.181.261 2.083.783 2.704.535.61 1.243.914 2.126.914zM51.167 30v-7.105c0-.373-.013-.752-.038-1.138a15.818 15.818 0 00-.074-1.119h1.454l.187 2.275-.261.02c.124-.56.341-1.02.652-1.38.311-.361.678-.629 1.1-.803.423-.186.865-.28 1.325-.28.186 0 .348.007.484.02.15.012.286.043.41.092l-.018 1.343c-.186-.062-.36-.1-.522-.112a3.221 3.221 0 00-.522-.037c-.547 0-1.026.13-1.436.392a2.63 2.63 0 00-.914 1.007c-.199.41-.298.845-.298 1.305V30h-1.53zm10.623.168c-.92 0-1.623-.261-2.108-.783-.485-.535-.727-1.337-.727-2.406v-5.166h-1.828v-1.175h1.828v-2.555l1.51-.428v2.983h2.686v1.175h-2.685v4.998c0 .746.124 1.28.373 1.604.26.31.646.466 1.156.466.236 0 .447-.019.634-.056.186-.05.354-.105.503-.168v1.268c-.174.075-.385.13-.634.168-.236.05-.472.075-.708.075zm11.382 0c-.92 0-1.623-.261-2.107-.783-.485-.535-.728-1.337-.728-2.406v-5.166H68.51v-1.175h1.827v-2.555l1.51-.428v2.983h2.686v1.175h-2.685v4.998c0 .746.124 1.28.373 1.604.261.31.646.466 1.156.466.236 0 .448-.019.634-.056.187-.05.355-.105.504-.168v1.268c-.174.075-.386.13-.634.168-.237.05-.473.075-.709.075zM76.335 30v-7.105c0-.373-.012-.752-.037-1.138a15.878 15.878 0 00-.075-1.119h1.455l.186 2.275-.26.02c.123-.56.341-1.02.652-1.38.31-.361.677-.629 1.1-.803.423-.186.864-.28 1.324-.28.187 0 .348.007.485.02.15.012.286.043.41.092l-.018 1.343c-.187-.062-.36-.1-.523-.112a3.22 3.22 0 00-.522-.037c-.547 0-1.025.13-1.436.392a2.631 2.631 0 00-.913 1.007c-.2.41-.299.845-.299 1.305V30h-1.529zm10.283.168c-.833 0-1.56-.193-2.182-.578-.622-.398-1.107-.958-1.455-1.679-.335-.72-.503-1.585-.503-2.592 0-1.02.168-1.89.503-2.61.348-.722.833-1.275 1.455-1.66.622-.386 1.349-.578 2.182-.578.845 0 1.573.217 2.182.652.621.423 1.032 1.001 1.23 1.735h-.223l.205-2.22h1.454l-.111 1.1c-.025.361-.038.715-.038 1.064V30h-1.51v-2.2h.205a2.972 2.972 0 01-1.23 1.734c-.623.422-1.344.634-2.164.634zm.298-1.231c.895 0 1.604-.305 2.126-.914.522-.621.783-1.523.783-2.704 0-1.193-.26-2.095-.783-2.704-.522-.621-1.23-.932-2.126-.932-.882 0-1.591.31-2.126.932-.522.61-.783 1.51-.783 2.704 0 1.181.261 2.083.783 2.704.535.61 1.243.914 2.126.914zm10.865 1.23c-.82 0-1.541-.192-2.163-.577-.622-.398-1.107-.958-1.455-1.679-.335-.72-.503-1.585-.503-2.592 0-1.02.168-1.89.503-2.61.348-.722.833-1.275 1.455-1.66.622-.386 1.343-.578 2.163-.578.845 0 1.573.21 2.182.634a3.05 3.05 0 011.249 1.715h-.223v-6.545h1.51V30h-1.492v-2.238h.205a3.053 3.053 0 01-1.23 1.772c-.622.422-1.356.634-2.2.634zm.317-1.23c.883 0 1.591-.305 2.126-.914.535-.621.802-1.523.802-2.704 0-1.193-.267-2.095-.802-2.704-.535-.621-1.243-.932-2.126-.932-.883 0-1.591.31-2.126.932-.522.61-.783 1.51-.783 2.704 0 1.181.261 2.083.783 2.704.535.61 1.243.914 2.126.914zM105.42 30v-9.362h1.51V30h-1.51zm-.187-11.488v-1.697h1.865v1.697h-1.865zM109.863 30v-7.198c0-.349-.018-.703-.056-1.063-.024-.373-.055-.74-.093-1.1h1.455l.186 2.05h-.223c.273-.72.708-1.267 1.305-1.64.609-.386 1.312-.578 2.107-.578 1.107 0 1.94.298 2.499.895.572.584.858 1.51.858 2.778V30h-1.511v-5.762c0-.883-.18-1.523-.54-1.921-.348-.41-.895-.616-1.641-.616-.871 0-1.561.268-2.07.802-.51.535-.765 1.25-.765 2.145V30h-1.511zm15.049 4.159a7.99 7.99 0 01-2.238-.299 5.698 5.698 0 01-1.846-.913l.447-1.138a6.34 6.34 0 001.138.653c.373.161.758.28 1.156.354.398.087.821.13 1.268.13.92 0 1.616-.242 2.089-.727.472-.485.708-1.175.708-2.07v-2.741h.187a3.052 3.052 0 01-1.231 1.753c-.621.422-1.349.634-2.182.634-.858 0-1.604-.187-2.238-.56a3.928 3.928 0 01-1.454-1.622c-.336-.709-.504-1.542-.504-2.499 0-.945.168-1.765.504-2.462.348-.696.833-1.23 1.454-1.603.634-.386 1.38-.578 2.238-.578.846 0 1.573.21 2.182.634a2.975 2.975 0 011.231 1.753l-.187-.187.168-2.033h1.474c-.05.36-.087.728-.112 1.1-.025.361-.038.715-.038 1.064v7.142c0 1.393-.36 2.443-1.081 3.152-.709.708-1.753 1.063-3.133 1.063zm-.224-5.595c.908 0 1.622-.298 2.145-.895.522-.61.783-1.46.783-2.555 0-1.094-.261-1.94-.783-2.536-.523-.597-1.237-.895-2.145-.895-.895 0-1.61.298-2.145.895-.534.597-.802 1.442-.802 2.536s.268 1.946.802 2.555c.535.597 1.25.895 2.145.895z" fill="#fff"/></svg>