<svg width="100" height="177" viewBox="0 0 100 177" fill="none" xmlns="http://www.w3.org/2000/svg"><path d="M3.778 13.623c-.383 0-.807-.055-1.272-.164a4.657 4.657 0 01-1.176-.438l-.068-2.023.875-.055.465 1.409c.182.118.396.214.643.287.255.064.496.095.724.095.41 0 .72-.086.93-.26a.843.843 0 00.328-.697c0-.319-.096-.574-.287-.765a2.3 2.3 0 00-.725-.492c-.3-.137-.62-.27-.957-.397a6.692 6.692 0 01-.957-.478 2.435 2.435 0 01-.738-.725c-.182-.3-.274-.68-.274-1.135 0-.492.137-.92.41-1.285.283-.374.675-.66 1.176-.861.51-.21 1.099-.315 1.764-.315.21 0 .433.014.67.041.246.028.483.073.71.137.229.055.43.118.602.191l.15 1.996-.86.055-.438-1.34a2.086 2.086 0 00-.97-.218c-.374 0-.684.095-.93.287-.237.182-.356.442-.356.779 0 .3.096.551.287.752.192.191.438.36.739.506.3.136.62.273.957.41.346.137.67.3.97.492.31.182.56.415.752.697.192.283.287.643.287 1.08 0 .465-.145.885-.437 1.258-.283.365-.684.652-1.203.862-.51.21-1.108.314-1.791.314zm8.9-1.271a1.817 1.817 0 01-.752.943 2.181 2.181 0 01-1.203.342c-.629 0-1.148-.183-1.559-.547-.4-.374-.601-.93-.601-1.668l.04-3.049h-.956v-.424l2.338-1.86h.424l-.028 1.929-.027 3.24c0 .383.091.66.273.834.183.164.438.246.766.246.173 0 .342-.032.506-.096.164-.073.305-.164.424-.273l.355.383zM9.684 8.373v-.861h2.611v.861H9.684zm6.467 5.236c-.638 0-1.199-.127-1.682-.382a2.942 2.942 0 01-1.135-1.08 3.068 3.068 0 01-.41-1.587c0-.674.155-1.248.465-1.722.31-.474.716-.834 1.217-1.08a3.582 3.582 0 011.6-.37c.601 0 1.13.128 1.585.383a2.68 2.68 0 011.08 1.08c.265.456.397.98.397 1.573a3.162 3.162 0 01-1.545 2.761 3.012 3.012 0 01-1.572.424zm.137-.875c.227 0 .419-.072.574-.218.164-.146.287-.36.369-.643a3.31 3.31 0 00.137-1.012c0-.784-.128-1.422-.383-1.914-.246-.492-.579-.738-.998-.738-.347 0-.62.178-.82.533-.201.347-.301.82-.301 1.422 0 .483.059.92.177 1.313.128.391.297.701.506.93.219.218.465.327.739.327zm3.718.766l-.04-.629.847-.232c.009-.037.018-.119.027-.246.01-.128.018-.288.028-.479.009-.2.013-.415.013-.643l.014-1.039c0-.282-.01-.528-.027-.738a6.038 6.038 0 00-.096-.656l-.875-.192v-.615l2.406-.615.37.232-.083.807.041.014c.283-.365.593-.634.93-.807a2.317 2.317 0 011.094-.273c.392 0 .738.095 1.039.287.31.191.556.474.738.847.182.365.273.807.273 1.327v1.408c0 .31.005.601.014.875.01.264.027.433.055.506l.848.232-.042.629H24.15l-.041-.629.78-.232c.017-.082.031-.196.04-.342.01-.155.014-.324.014-.506.009-.182.013-.356.013-.52v-1.148c0-.346-.054-.624-.164-.834a1.022 1.022 0 00-.984-.629c-.228 0-.442.05-.643.15-.191.1-.364.247-.52.438v2.01c0 .31.006.601.015.875.018.264.036.433.054.506l.834.232-.04.629h-3.5zm11.307.11c-.593 0-1.121-.133-1.586-.397a2.924 2.924 0 01-1.08-1.08 3.106 3.106 0 01-.383-1.545c0-.638.146-1.194.438-1.668.291-.483.67-.861 1.134-1.135.474-.273.98-.405 1.518-.396.802 0 1.422.25 1.86.752.437.492.656 1.134.656 1.927v.329h-4.02v-.711h2.68l-.205.328v-.465c0-.429-.096-.77-.288-1.026-.19-.255-.455-.382-.793-.382-.227 0-.432.063-.615.191-.182.128-.328.324-.437.588-.1.255-.15.579-.15.97v.288c0 .638.168 1.153.505 1.545.347.392.807.587 1.381.587.31 0 .592-.054.848-.164.255-.118.501-.314.738-.587l.424.382c-.255.547-.615.962-1.08 1.244-.465.283-.98.424-1.545.424zm8.394-.11l-.04-.684.847-.218c.018-.046.032-.169.041-.37.018-.2.032-.45.041-.751.01-.301.014-.63.014-.985v-2.01c0-.364-.005-.697-.014-.998-.009-.31-.023-.56-.04-.752-.01-.2-.024-.323-.042-.369l-.848-.205.041-.683h3.664l.041.683-.86.205c-.01.046-.024.173-.042.383-.018.21-.032.47-.04.78-.01.31-.015.628-.015.956v2.01c0 .32.005.634.014.943.01.301.023.561.041.78.018.21.032.337.041.383l.861.218-.04.684h-3.665zm-4.894 0l-.041-.684.861-.218c.018-.046.032-.164.041-.356.018-.191.032-.437.041-.738.01-.31.014-.647.014-1.012v-2.01c0-.373-.005-.715-.014-1.025-.009-.31-.023-.56-.04-.752-.01-.2-.024-.314-.042-.342l-.861-.205.04-.683h3.651l.041.683-.847.205a1.863 1.863 0 00-.055.37c-.01.19-.018.441-.027.751v3.993c.009.3.018.551.027.752.018.2.036.323.055.369l.847.218-.04.684h-3.651zm2.447-3.582v-1.04c.219.028.47.046.752.056.292.009.652.013 1.08.013.428 0 .784-.004 1.067-.013.282-.01.533-.028.752-.055v1.039c-.192-.01-.429-.018-.711-.027a17.946 17.946 0 00-1.108-.028c-.456 0-.83.01-1.12.028-.284.009-.52.018-.712.027zm10.158 3.691c-.592 0-1.12-.132-1.586-.396a2.924 2.924 0 01-1.08-1.08 3.107 3.107 0 01-.383-1.545c0-.638.146-1.194.438-1.668.292-.483.67-.861 1.135-1.135.474-.273.98-.405 1.517-.396.802 0 1.422.25 1.86.752.437.492.656 1.134.656 1.927v.329h-4.02v-.711h2.68l-.205.328v-.465c0-.429-.096-.77-.287-1.026-.191-.255-.456-.382-.793-.382-.228 0-.433.063-.615.191-.183.128-.328.324-.438.588-.1.255-.15.579-.15.97v.288c0 .638.169 1.153.506 1.545.346.392.806.587 1.38.587.31 0 .593-.054.848-.164.255-.118.502-.314.739-.587l.423.382c-.255.547-.615.962-1.08 1.244-.465.283-.98.424-1.545.424zm8.176.069l-.369-.205.014-.889-.041-.014c-.228.392-.483.67-.766.834a1.798 1.798 0 01-.875.233c-.483 0-.93-.123-1.34-.37a2.73 2.73 0 01-.984-1.025c-.246-.446-.37-.961-.37-1.545 0-.51.096-.966.288-1.367.191-.41.446-.756.765-1.039.32-.292.675-.51 1.067-.656a3.246 3.246 0 011.203-.233c.173 0 .35.019.533.055.182.027.333.073.451.137 0-.173-.004-.365-.013-.574 0-.22-.005-.433-.014-.643 0-.219-.005-.415-.014-.588a4.5 4.5 0 00-.013-.41l-1.012-.15-.027-.588 2.584-.67.382.232c-.027.565-.054 1.09-.082 1.572-.027.474-.04.976-.04 1.504l-.014 3.172c0 .447.013.811.04 1.094.028.283.05.524.069.725l.902.19v.589l-2.324.629zm-1.38-1.354c.145 0 .31-.045.491-.136.192-.092.356-.242.493-.452V8.687a.984.984 0 00-.452-.355 1.33 1.33 0 00-.52-.11c-.428 0-.783.178-1.066.534-.273.355-.41.843-.41 1.463 0 .674.142 1.194.424 1.558.292.365.638.547 1.04.547zm7.15 4.293c-.966 0-1.723-.132-2.27-.396-.538-.265-.806-.63-.806-1.094 0-.3.159-.583.478-.848.328-.255.77-.46 1.326-.615l.588.055a1.917 1.917 0 00-.52.533c-.127.2-.19.41-.19.629 0 .31.127.547.382.71.264.174.647.26 1.148.26.493 0 .903-.109 1.23-.328.329-.21.493-.473.493-.793 0-.227-.082-.4-.246-.52-.164-.108-.447-.181-.848-.218l-1.736-.15-.123-.069c-.465 0-.825-.09-1.08-.273-.255-.173-.383-.401-.383-.684 0-.291.141-.56.424-.806.291-.255.688-.456 1.19-.602l.218.233a.96.96 0 00-.246.218.334.334 0 00-.096.22c0 .108.032.19.096.245a.65.65 0 00.3.11l2.12.205c.674.064 1.176.241 1.504.533.328.291.492.674.492 1.148 0 .429-.15.816-.451 1.162-.292.347-.702.62-1.23.82-.52.21-1.108.315-1.764.315zm.054-4.73c-.547 0-1.03-.091-1.449-.274a2.335 2.335 0 01-.957-.779 2.026 2.026 0 01-.342-1.162c0-.447.123-.843.37-1.19a2.54 2.54 0 01.998-.82c.428-.2.906-.3 1.435-.3.52 0 .98.104 1.38.314.411.2.735.474.972.82s.355.738.355 1.176c0 .428-.118.811-.355 1.148-.237.328-.561.588-.971.78-.41.191-.889.287-1.436.287zm.11-.793a.766.766 0 00.67-.37c.164-.255.246-.596.246-1.025 0-.465-.091-.838-.274-1.12-.173-.283-.41-.425-.71-.425-.274 0-.497.132-.67.397-.174.264-.26.615-.26 1.053 0 .446.09.806.273 1.08.182.273.424.41.725.41zm3.404-2.475l-1.846-.178-.41-.642 2.256-.274V8.62zm3.637 4.99c-.593 0-1.121-.132-1.586-.396a2.924 2.924 0 01-1.08-1.08 3.107 3.107 0 01-.383-1.545c0-.638.146-1.194.437-1.668.292-.483.67-.861 1.135-1.135.474-.273.98-.405 1.518-.396.802 0 1.422.25 1.86.752.437.492.655 1.134.655 1.927v.329h-4.02v-.711h2.68l-.205.328v-.465c0-.429-.095-.77-.287-1.026-.191-.255-.455-.382-.793-.382-.228 0-.433.063-.615.191s-.328.324-.437.588c-.1.255-.15.579-.15.97v.288c0 .638.168 1.153.505 1.545.347.392.807.587 1.381.587.31 0 .592-.054.848-.164.255-.118.5-.314.738-.587l.424.382c-.255.547-.615.962-1.08 1.244-.465.283-.98.424-1.545.424zm5.974-.109l-.027-.506.916-.191c.01-.037.014-.1.014-.192.009-.09.018-.237.027-.437.01-.2.014-.479.014-.834v-.902c0-.374-.01-.716-.028-1.026a7.944 7.944 0 00-.068-.725l-.916-.19v-.452l1.941-.506.206.191c-.028.283-.05.561-.069.834-.009.274-.014.593-.014.957v1.723c0 .42.005.766.014 1.04.018.273.037.446.055.519l.916.191-.028.506h-2.953zm1.477-7.506a.875.875 0 01-.602-.232.759.759 0 01-.246-.574c0-.228.082-.42.246-.575a.875.875 0 01.602-.232.797.797 0 01.82.806.797.797 0 01-.82.807zm4.498 7.615c-.337 0-.674-.036-1.012-.109a3.625 3.625 0 01-.861-.315l-.069-1.462h.67l.274.984c.319.219.684.328 1.094.328.31 0 .56-.073.752-.219a.752.752 0 00.287-.615.841.841 0 00-.26-.615c-.173-.182-.51-.378-1.012-.588-.647-.282-1.103-.551-1.367-.807-.264-.264-.396-.601-.396-1.011 0-.328.095-.616.287-.862.2-.255.474-.45.82-.588a3.08 3.08 0 011.203-.218c.255 0 .515.023.78.068.264.046.483.105.656.178l.15 1.422h-.642l-.329-.93a1.07 1.07 0 00-.328-.123 1.487 1.487 0 00-.41-.055c-.319 0-.574.078-.766.233a.688.688 0 00-.287.574.83.83 0 00.315.67c.21.164.579.369 1.107.615.602.274 1.021.542 1.258.807.237.264.355.583.355.957 0 .492-.214.897-.642 1.216-.428.31-.97.465-1.627.465zM1.016 29.5l-.027-.492.847-.205a1.8 1.8 0 00.014-.246c.01-.1.018-.246.027-.438.01-.191.014-.451.014-.78l.014-1.066c.009-.191.004-.387-.014-.587a9.494 9.494 0 00-.096-.998l-.875-.192v-.451l1.832-.506.233.219-.069.738.041.014c.283-.356.575-.61.875-.766a2.09 2.09 0 01.944-.232c.319 0 .629.086.93.26.3.173.546.437.738.793.2.355.3.81.3 1.367l.014 1.449c0 .328.005.624.014.889.018.255.04.433.068.533l.82.205-.04.492H4.953l-.04-.492.751-.205a5.085 5.085 0 00.041-.684c.01-.173.014-.387.014-.642l-.014-1.504c0-.392-.063-.707-.191-.944a1.158 1.158 0 00-.478-.52c-.201-.109-.415-.163-.643-.163-.283 0-.547.068-.793.205-.246.137-.465.35-.656.642v2.051c0 .42.004.761.013 1.026.019.255.037.433.055.533l.807.205-.041.492H1.016zm7.71 0l-.04-.492.78-.205c.008-.073.013-.164.013-.274a12.57 12.57 0 00.041-1.053v-1.49c0-.4-.068-.72-.205-.957a1.293 1.293 0 00-.52-.52 1.27 1.27 0 00-.615-.163c-.31 0-.597.077-.861.232-.265.155-.502.392-.711.711l-.26-.506c.319-.437.656-.756 1.012-.957a2.27 2.27 0 011.148-.314c.383 0 .73.09 1.04.273.31.182.555.447.738.793.182.346.273.766.273 1.258v1.545c0 .328.005.624.014.889.018.255.036.433.054.533l.848.205-.027.492H8.727zm6.495.11a2.915 2.915 0 01-1.435-.356 2.695 2.695 0 01-1.012-1.012c-.246-.446-.37-.97-.37-1.572 0-.647.133-1.208.397-1.682s.61-.838 1.04-1.093a2.493 2.493 0 011.38-.383c.711.009 1.267.246 1.668.71.401.465.602 1.122.602 1.97v.245h-4.198v-.601h3.295l-.15.178v-.287c0-.53-.119-.935-.356-1.217-.237-.283-.56-.424-.97-.424a1.33 1.33 0 00-.739.232c-.237.146-.428.374-.574.684-.146.3-.219.684-.219 1.148v.165c0 .747.183 1.33.547 1.75.374.419.852.628 1.436.628a1.9 1.9 0 00.861-.191c.255-.128.502-.333.739-.615l.341.314c-.255.474-.579.83-.97 1.067-.392.227-.83.341-1.313.341zm3.213-.11l-.041-.492.848-.205c.009-.046.018-.128.027-.246a6.51 6.51 0 00.014-.479c.009-.2.013-.447.013-.738l.014-1.067c0-.3-.014-.597-.041-.888a7.82 7.82 0 00-.068-.698l-.875-.19v-.452l1.832-.506.191.191-.055 1.149.041.014c.274-.53.552-.884.834-1.067.283-.191.547-.287.793-.287.21 0 .383.055.52.164.146.1.219.255.219.465a.6.6 0 01-.233.506.91.91 0 01-.56.164c-.164 0-.324-.037-.479-.11a1.812 1.812 0 01-.424-.3l.246.082c-.173.11-.337.264-.492.465a3.165 3.165 0 00-.424.724l.014 1.272c.01.228.018.465.027.71l.028.67c.009.192.018.342.027.452l1.19.177-.028.52h-3.158zm7.601.11c-.51 0-.98-.115-1.408-.342a2.666 2.666 0 01-1.025-1.012c-.255-.447-.383-.975-.383-1.586 0-.593.132-1.126.397-1.6a3.039 3.039 0 012.693-1.559c.401 0 .738.05 1.012.151.273.1.478.233.615.397a.773.773 0 01.219.52.529.529 0 01-.137.368.518.518 0 01-.383.137.847.847 0 01-.383-.082c-.11-.055-.241-.164-.396-.328l-.697-.697.492.136a1.61 1.61 0 00-1.053.11c-.337.146-.615.405-.834.779-.219.364-.328.838-.328 1.422 0 .729.182 1.29.547 1.681.373.392.838.588 1.394.588.347 0 .643-.063.889-.191.255-.128.497-.333.725-.615l.369.314c-.255.474-.579.83-.971 1.067-.392.227-.843.341-1.354.341zm2.79-.11l-.028-.492.848-.205c.018-.1.032-.25.04-.451.01-.21.015-.488.015-.834.009-.347.013-.77.013-1.272v-1.709c0-.31-.004-.642-.013-.998 0-.355-.005-.697-.014-1.025 0-.338-.005-.63-.014-.875 0-.246-.004-.41-.013-.492l-1.012-.137-.027-.438 1.927-.56.26.191-.027.848c-.01.282-.019.588-.028.916 0 .319-.004.683-.013 1.094v1.421l.04.014c.32-.346.63-.597.93-.752a2.23 2.23 0 011.012-.232c.337 0 .652.086.943.26.301.173.543.437.725.793.191.346.287.792.287 1.34v1.476c0 .328.01.624.027.889.019.255.037.433.055.533l.848.205-.028.492H32.83l-.04-.492.792-.205a5.047 5.047 0 00.041-.684c.01-.173.014-.387.014-.642V26c0-.392-.068-.706-.205-.943a1.199 1.199 0 00-.506-.534 1.34 1.34 0 00-.67-.177c-.291 0-.57.077-.834.232-.264.146-.487.351-.67.615v2.051c0 .42.005.766.014 1.04.018.273.036.446.055.519l.834.205-.028.492h-2.802zm9.775.11c-.365 0-.688-.073-.97-.22a1.854 1.854 0 01-.67-.56 1.247 1.247 0 01-.233-.71c0-.31.1-.566.3-.767.201-.2.53-.373.985-.519l2.078-.697v-.698a1 1 0 00-.205-.615 1.404 1.404 0 00-.547-.451 1.748 1.748 0 00-.765-.164c-.228 0-.383.05-.465.15-.082.091-.132.278-.15.56l-.028.575c-.328.073-.606.064-.834-.027-.228-.1-.342-.26-.342-.479 0-.155.064-.31.192-.465.136-.154.314-.3.533-.437a3.75 3.75 0 011.463-.574c.674 0 1.212.177 1.613.533.41.355.62.82.629 1.394l-.027 2.297c0 .174.004.342.013.506.018.164.041.287.069.37l.875.163v.424l-.67.246a3.832 3.832 0 01-.356.11.902.902 0 01-.273.054c-.283 0-.465-.16-.547-.478l-.15-.533h.205c-.301.337-.593.592-.875.765a1.627 1.627 0 01-.848.246zm.37-.807c.209 0 .405-.046.587-.137.182-.1.36-.25.533-.451v-1.436l-1.531.41c-.219.055-.378.142-.479.26a.719.719 0 00-.136.451c0 .228.1.438.3.63.21.182.452.273.725.273zm3.855.697l-.028-.492.848-.205c.009-.064.014-.15.014-.26a13.5 13.5 0 00.04-1.203l.014-1.053c0-.3-.013-.597-.04-.889a7.864 7.864 0 00-.07-.71l-.874-.192v-.451l1.832-.506.232.219-.068.724.041.014c.319-.346.634-.597.943-.752a2.23 2.23 0 011.012-.232c.337 0 .652.086.943.26.301.164.543.419.725.765.191.347.287.789.287 1.326v1.518c0 .328.005.624.014.889.018.264.04.442.068.533l.848.205-.041.492h-2.748l-.028-.492.793-.205a5.047 5.047 0 00.041-.684c.01-.173.014-.387.014-.642V26c0-.41-.073-.734-.219-.97-.136-.247-.31-.42-.52-.52a1.374 1.374 0 00-.642-.164c-.3 0-.583.077-.847.232-.256.146-.474.351-.657.615v2.051c0 .42.005.761.014 1.026.018.255.036.433.055.533l.847.205-.04.492h-2.803zm12.332.15l-.205-.177.013-.889-.04-.014c-.274.383-.557.652-.848.807a1.849 1.849 0 01-.903.232c-.52 0-.984-.118-1.394-.355a2.69 2.69 0 01-.957-1.012c-.237-.428-.356-.92-.356-1.476 0-.483.082-.925.246-1.326a3.076 3.076 0 011.655-1.696 2.873 2.873 0 011.134-.232c.255 0 .515.032.78.095.264.064.487.165.67.301 0-.164-.005-.378-.014-.642 0-.265-.005-.538-.014-.82 0-.292-.004-.548-.014-.766 0-.228-.004-.383-.013-.465l-1.067-.192-.027-.45 2.01-.561.246.191a96.238 96.238 0 00-.055 3.295l-.013 3.145c0 .464.009.866.027 1.203.027.328.045.56.055.697l.875.219v.45l-1.791.438zm-1.641-.957c.264 0 .51-.054.738-.164.228-.118.46-.323.698-.615v-2.94c-.174-.31-.392-.528-.657-.656a1.81 1.81 0 00-.793-.191c-.574 0-1.025.214-1.353.643-.32.419-.479.966-.479 1.64 0 .72.178 1.28.533 1.682.365.4.803.601 1.313.601zm4.143.807l-.028-.506.916-.191c.01-.037.014-.1.014-.192.009-.09.018-.237.027-.437.01-.2.014-.479.014-.834v-.902c0-.374-.01-.716-.027-1.026a7.872 7.872 0 00-.069-.724l-.916-.192v-.451l1.942-.506.205.191c-.028.283-.05.561-.069.834-.009.274-.013.593-.013.957v1.723c0 .42.004.766.013 1.04a4 4 0 00.055.519l.916.191-.027.506h-2.953zm1.476-7.506a.874.874 0 01-.601-.232.758.758 0 01-.246-.575c0-.227.082-.419.246-.574a.874.874 0 01.601-.232.796.796 0 01.82.806.796.796 0 01-.82.807zm4.498 7.615c-.337 0-.674-.036-1.012-.109a3.625 3.625 0 01-.86-.314l-.07-1.463h.67l.274.984c.32.219.684.328 1.094.328.31 0 .56-.073.752-.219a.752.752 0 00.287-.615.84.84 0 00-.26-.615c-.173-.182-.51-.378-1.011-.588-.648-.283-1.103-.551-1.368-.807-.264-.264-.396-.601-.396-1.011 0-.328.096-.616.287-.862.2-.255.474-.45.82-.588a3.08 3.08 0 011.203-.218c.255 0 .515.023.78.068.264.046.483.105.656.178l.15 1.422h-.642l-.328-.93a1.07 1.07 0 00-.329-.123 1.485 1.485 0 00-.41-.055c-.319 0-.574.078-.765.233a.688.688 0 00-.287.574.83.83 0 00.314.67c.21.164.579.369 1.107.615.602.273 1.021.542 1.258.807.237.264.356.583.356.957 0 .492-.215.898-.643 1.216-.428.31-.97.465-1.627.465zm3.186-.109l-.028-.506.916-.191c.01-.037.014-.1.014-.192.01-.09.018-.237.027-.437.01-.2.014-.479.014-.834v-.902c0-.374-.009-.716-.027-1.026a7.914 7.914 0 00-.069-.724l-.916-.192v-.451l1.942-.506.205.191c-.028.283-.05.561-.069.834a29.2 29.2 0 00-.013.957v1.723c0 .42.004.766.014 1.04.018.273.036.446.054.519l.916.191-.027.506h-2.953zm1.476-7.506a.875.875 0 01-.601-.232.758.758 0 01-.246-.575c0-.227.082-.419.246-.574a.875.875 0 01.601-.232.797.797 0 01.82.806.797.797 0 01-.82.807zm2.242 7.506l-.027-.492.848-.205c.009-.064.013-.15.013-.26a13.5 13.5 0 00.041-1.203l.014-1.053c0-.3-.014-.597-.04-.889a7.864 7.864 0 00-.07-.71l-.874-.192v-.451l1.832-.506.232.219-.068.724.04.014c.32-.346.634-.597.944-.752.31-.155.647-.232 1.012-.232.337 0 .652.086.943.26.301.164.543.419.725.765.191.347.287.789.287 1.326v1.518c0 .328.005.624.014.889.018.264.04.442.068.533l.848.205-.041.492H74.53l-.028-.492.793-.205a5.093 5.093 0 00.041-.684c.01-.173.014-.387.014-.642V26c0-.41-.073-.734-.219-.97-.136-.247-.31-.42-.52-.52a1.374 1.374 0 00-.642-.164c-.3 0-.583.077-.847.232-.256.146-.475.351-.657.615v2.051c0 .42.005.761.014 1.026.018.255.036.433.055.533l.847.205-.04.492h-2.803zm10.282 3.117c-.839 0-1.504-.136-1.996-.41-.493-.273-.739-.638-.739-1.094 0-.31.123-.597.37-.861.246-.264.642-.533 1.189-.807l.52.11c-.301.173-.534.373-.698.601a1.3 1.3 0 00-.246.752.97.97 0 00.438.848c.3.2.706.3 1.216.3.593 0 1.071-.127 1.436-.382s.547-.584.547-.985c0-.31-.114-.542-.342-.697-.219-.146-.583-.237-1.094-.273l-1.463-.123-.205-.055a1.42 1.42 0 01-.861-.26c-.228-.182-.342-.4-.342-.656 0-.246.119-.488.356-.725s.565-.446.984-.628l.178.273c-.173.118-.301.228-.383.328a.412.412 0 00-.123.273c0 .128.055.238.164.329.119.09.282.145.492.164l1.764.177c.629.064 1.107.224 1.435.479.329.255.493.62.493 1.094 0 .419-.137.797-.41 1.134-.274.338-.643.602-1.108.793-.465.2-.989.301-1.572.301zm.11-4.812c-.484 0-.917-.087-1.3-.26a2.128 2.128 0 01-.875-.711c-.21-.31-.314-.66-.314-1.053 0-.428.11-.81.328-1.148.219-.346.515-.615.889-.807.373-.2.793-.3 1.257-.3.465 0 .88.09 1.245.273.373.182.665.437.875.765.21.32.314.684.314 1.094 0 .401-.11.766-.328 1.094-.21.328-.497.588-.861.78a2.714 2.714 0 01-1.23.273zm.067-.547c.374 0 .67-.137.89-.41.218-.274.327-.638.327-1.094 0-.51-.123-.92-.369-1.23a1.129 1.129 0 00-.943-.465c-.374 0-.68.145-.916.437-.237.292-.356.67-.356 1.135 0 .483.123.875.37 1.176.255.3.587.45.998.45zm3.172-2.748l-1.627-.11-.533-.546 2.16-.22v.876zm.82 7.396l-.204-.396c.364-.164.642-.365.834-.602.2-.228.3-.497.3-.806a.654.654 0 00-.082-.342.941.941 0 00-.177-.246l-.22-.192a1.276 1.276 0 01-.19-.246.89.89 0 01-.069-.369c0-.191.073-.36.219-.506a.797.797 0 01.588-.232c.164 0 .314.045.45.136.147.092.26.228.343.41.09.183.136.415.136.698 0 .364-.082.724-.246 1.08a3.122 3.122 0 01-1.682 1.613zM3.246 45.61c-.383 0-.762-.04-1.135-.123a4.027 4.027 0 01-.944-.341l-.068-1.6h.875l.287.984c.346.2.707.301 1.08.301.283 0 .497-.055.643-.164a.57.57 0 00.219-.465c0-.2-.082-.373-.247-.52-.155-.145-.478-.31-.97-.491-.675-.247-1.144-.515-1.408-.807-.265-.292-.397-.656-.397-1.094 0-.374.114-.702.342-.984.228-.292.547-.515.957-.67.41-.164.884-.246 1.422-.246.291 0 .588.027.888.082.301.054.547.127.739.219l.164 1.585h-.875l-.301-.97a1.072 1.072 0 00-.342-.123 1.344 1.344 0 00-.369-.055c-.273 0-.497.06-.67.178a.56.56 0 00-.246.478c0 .219.1.401.3.547.201.146.566.328 1.095.547.601.246 1.03.51 1.285.793.255.273.383.615.383 1.025 0 .575-.251 1.04-.752 1.395-.502.346-1.153.52-1.955.52zm3.24-.109l-.041-.643.916-.218a1.88 1.88 0 00.027-.246c.01-.137.018-.301.027-.493.01-.191.014-.4.014-.628l.014-1.026c0-.273-.01-.52-.028-.738a5.928 5.928 0 00-.095-.67l-.916-.191v-.616l2.515-.615.37.232c-.028.292-.05.588-.069.89-.009.29-.014.623-.014.997v1.723c0 .3.005.588.014.861.018.274.037.447.055.52l.916.218-.041.643H6.485zm1.845-7.205c-.364 0-.651-.11-.86-.328a1.119 1.119 0 01-.315-.78c0-.291.104-.546.314-.765.21-.228.497-.342.861-.342.365 0 .648.114.848.342.2.219.3.474.3.766 0 .291-.1.55-.3.779-.2.218-.483.328-.848.328zm2.284 7.205l-.041-.629.847-.232c.01-.037.018-.119.028-.246.009-.137.018-.301.027-.493.01-.191.014-.4.014-.628l.013-1.026a7.892 7.892 0 00-.123-1.408l-.875-.191v-.616l2.407-.615.369.232-.082.793.04.014c.292-.374.598-.642.917-.807.319-.173.651-.26.998-.26.355 0 .683.092.984.274.31.173.56.442.752.807.191.355.287.816.287 1.38l.027 1.409c0 .3.005.588.014.861.01.274.027.447.055.52l.738.232-.04.629h-3.241l-.041-.629.697-.232c.018-.082.032-.196.041-.342a8.58 8.58 0 00.014-.506c.009-.182.014-.355.014-.52l-.014-1.285c0-.328-.05-.588-.15-.779a.837.837 0 00-.383-.424 1.153 1.153 0 00-.547-.123c-.2 0-.401.055-.602.164-.2.1-.369.242-.506.424v2.01c0 .3.005.588.014.861.018.274.036.447.055.52l.752.232-.041.629h-3.418zm8.025 0l-.041-.629.711-.232c.018-.082.032-.196.041-.342.01-.155.014-.324.014-.506.009-.182.013-.355.013-.52l-.027-1.162c0-.355-.05-.638-.15-.847a.95.95 0 00-.41-.452c-.174-.1-.365-.15-.575-.15-.228 0-.446.05-.656.15-.2.092-.37.233-.506.424l-.396-.52c.328-.437.674-.765 1.039-.983a2.27 2.27 0 011.203-.342c.428 0 .806.1 1.135.3.337.192.597.47.779.834.182.365.273.802.273 1.313l.028 1.422c0 .3.004.588.013.861.018.274.037.447.055.52l.848.232-.041.629h-3.35zm3.774 3.008l-.041-.63.847-.231c0-.055.005-.17.014-.342a122.885 122.885 0 00.055-1.45c.009-.291.013-.592.013-.902l.027-2.72c0-.265-.009-.506-.027-.725a5.915 5.915 0 00-.096-.67l-.875-.191v-.616l2.407-.615.369.232-.096.834.041.014c.21-.337.479-.606.807-.806.328-.201.674-.301 1.039-.301.437 0 .848.114 1.23.341.383.22.693.543.93.971.237.429.356.944.356 1.545 0 .602-.142 1.158-.424 1.668-.274.501-.661.907-1.163 1.217-.5.31-1.098.465-1.79.465a3.09 3.09 0 01-.971-.164v.861c0 .3.004.583.013.848.019.264.037.433.055.506l1.121.218-.04.643h-3.801zm3.65-3.883c.282 0 .529-.064.738-.191.219-.137.392-.351.52-.643.127-.292.191-.665.191-1.121 0-.474-.068-.852-.205-1.135-.128-.291-.3-.506-.52-.642a1.227 1.227 0 00-.683-.206c-.191 0-.378.05-.56.15a1.48 1.48 0 00-.48.384v3.117c.137.091.293.164.466.219.173.045.35.068.533.068zm4.06.875l-.04-.643.888-.218c.01-.1.018-.274.027-.52.019-.255.032-.547.041-.875.01-.328.014-.647.014-.957v-1.722c0-.32-.005-.634-.014-.944 0-.319-.004-.62-.013-.902 0-.292-.005-.552-.014-.78a7.005 7.005 0 00-.04-.574l-1.013-.137-.027-.587 2.611-.67.383.232c-.018.383-.036.757-.055 1.121-.009.356-.013.761-.013 1.217 0 .456-.005 1.012-.014 1.668l-.014 2.01c0 .638.005 1.18.014 1.627.018.437.037.702.055.793l.889.218-.028.643h-3.637zm4.061 0l-.041-.643.916-.218c.01-.037.018-.119.027-.246.01-.137.019-.301.028-.493.009-.191.013-.4.013-.628l.014-1.026c0-.273-.01-.52-.027-.738a5.915 5.915 0 00-.096-.67l-.916-.191v-.616l2.516-.615.369.232c-.028.292-.05.588-.069.89-.009.29-.013.623-.013.997v1.723c0 .3.004.588.013.861a4 4 0 00.055.52l.916.218-.041.643h-3.664zm1.846-7.205c-.365 0-.652-.11-.862-.328a1.12 1.12 0 01-.314-.78c0-.291.105-.546.314-.765.21-.228.497-.342.862-.342.364 0 .647.114.847.342a1.147 1.147 0 010 1.545c-.2.218-.483.328-.847.328zm2.31 7.205l-.04-.629.847-.232a1.31 1.31 0 00.014-.26c.009-.146.013-.356.013-.629.01-.283.014-.629.014-1.04v-3.513c0-.61.146-1.157.437-1.64.301-.492.73-.88 1.285-1.163.557-.291 1.231-.437 2.024-.437.747 0 1.344.128 1.791.383.447.246.67.556.67.93 0 .236-.073.419-.219.546a.798.798 0 01-.52.178c-.19 0-.36-.032-.505-.096a1.86 1.86 0 01-.465-.341l-1.436-1.245.862.438c-.438-.073-.82-.032-1.149.123-.319.146-.565.387-.738.725-.173.337-.26.765-.26 1.285v3.432c0 .5.005.906.014 1.216.009.31.018.552.027.725.019.164.028.291.028.383l.86.232-.04.629H38.34zm4.06 0l-.04-.643.861-.218c.018-.092.032-.22.041-.383a9.4 9.4 0 00.014-.52 9.54 9.54 0 00.013-.464l.014-1.463c.01-.292 0-.543-.027-.752a9.944 9.944 0 00-.082-.684H38.19v-.629l.998-.273.82.04h3.924c.2 0 .401-.004.602-.013.21-.01.414-.027.615-.055-.018.356-.037.689-.055.998-.009.31-.014.67-.014 1.08V43.806l.028.52c.018.154.032.259.04.314l.903.218-.04.643H42.4zm7.343.11c-.593 0-1.122-.133-1.586-.397a2.925 2.925 0 01-1.08-1.08 3.107 3.107 0 01-.383-1.545c0-.638.146-1.194.437-1.668a3.22 3.22 0 011.135-1.135c.474-.273.98-.405 1.518-.396.802 0 1.421.25 1.859.752.437.492.656 1.134.656 1.927v.329h-4.02v-.712h2.68l-.205.329v-.465c0-.429-.095-.77-.287-1.026-.191-.255-.456-.382-.793-.382-.228 0-.433.063-.615.191s-.328.324-.438.588c-.1.255-.15.579-.15.97v.288c0 .638.169 1.153.506 1.545.346.392.807.587 1.38.587.31 0 .593-.054.848-.163.256-.119.502-.315.739-.588l.424.382c-.256.547-.616.962-1.08 1.244-.465.283-.98.424-1.545.424zm8.175.068l-.369-.205.014-.889-.041-.014c-.228.392-.483.67-.766.834a1.798 1.798 0 01-.875.233c-.483 0-.93-.123-1.34-.37a2.73 2.73 0 01-.984-1.025c-.246-.446-.37-.961-.37-1.545 0-.51.097-.966.288-1.367.191-.41.447-.756.766-1.039.319-.292.674-.51 1.066-.656a3.245 3.245 0 011.203-.233c.173 0 .351.019.533.055.183.027.333.073.452.137 0-.173-.005-.365-.014-.575 0-.218-.005-.432-.014-.642 0-.219-.004-.415-.014-.588 0-.182-.004-.319-.013-.41l-1.012-.15-.027-.588 2.584-.67.383.232c-.028.565-.055 1.09-.083 1.572a26.2 26.2 0 00-.04 1.504l-.014 3.172c0 .447.014.811.04 1.094l.07.724.902.192v.588l-2.325.629zm-1.38-1.354c.145 0 .31-.045.492-.136.191-.092.355-.242.492-.452v-3.048a.984.984 0 00-.451-.356 1.33 1.33 0 00-.52-.11c-.428 0-.784.178-1.066.534-.274.355-.41.843-.41 1.463 0 .674.14 1.194.423 1.558.292.365.638.547 1.04.547zm5.44 1.313a.861.861 0 01-.614-.233.819.819 0 01-.246-.601c0-.164.036-.306.109-.424a.794.794 0 01.3-.3.944.944 0 01.452-.11c.246 0 .451.082.615.246a.774.774 0 01.246.588.818.818 0 01-.246.601.861.861 0 01-.615.233zM5.45 66.596c-.896 0-1.648-.168-2.256-.504a3.269 3.269 0 01-1.356-1.488c-.296-.648-.444-1.428-.444-2.34 0-.896.152-1.664.456-2.304.312-.648.756-1.144 1.332-1.488.584-.352 1.284-.528 2.1-.528.616 0 1.144.1 1.584.3.448.192.856.476 1.224.852l-.264.42a4.264 4.264 0 00-.78-.612 2.687 2.687 0 00-.792-.348 3.6 3.6 0 00-.984-.12c-1.064 0-1.888.336-2.472 1.008-.576.672-.864 1.616-.864 2.832 0 1.24.284 2.188.852 2.844.576.656 1.464.984 2.664.984.456 0 .88-.04 1.272-.12.4-.088.776-.212 1.128-.372l-.144.432v-3.36H5.378v-.468h2.808v3.792c-.304.168-.712.308-1.224.42a6.951 6.951 0 01-1.512.168zm4.856-.096v-6h.504v6h-.504zm-.132-7.572v-.756h.768v.756h-.768zm4.522 7.572l-2.544-6h.576l2.4 5.808h-.288l2.412-5.808h.564l-2.544 6h-.576zm6.871.096c-.88 0-1.58-.268-2.1-.804-.52-.544-.78-1.3-.78-2.268 0-.64.116-1.192.348-1.656.232-.464.556-.824.972-1.08a2.754 2.754 0 011.452-.384c.52 0 .96.112 1.32.336.368.216.648.532.84.948.2.408.3.896.3 1.464v.324h-4.908v-.456h4.644l-.204.156c0-.72-.168-1.284-.504-1.692-.336-.416-.836-.624-1.5-.624-.704 0-1.256.24-1.656.72-.392.48-.588 1.108-.588 1.884v.06c0 .848.208 1.496.624 1.944.416.44.996.66 1.74.66.376 0 .728-.06 1.056-.18.328-.12.644-.324.948-.612l.252.396c-.248.272-.576.484-.984.636a3.614 3.614 0 01-1.272.228zm6.685 2.628l-.12-.468c.376-.088.684-.2.924-.336.248-.128.456-.296.624-.504.168-.208.32-.468.456-.78l.312-.72-.012.252L27.82 60.5h.576l2.412 5.808h-.276l2.376-5.808h.576l-2.796 6.648c-.144.344-.3.632-.468.864-.168.24-.352.44-.552.6-.192.16-.408.288-.648.384a4.12 4.12 0 01-.768.228zm8.767-2.628c-.544 0-1.016-.124-1.416-.372a2.422 2.422 0 01-.924-1.068c-.216-.464-.324-1.016-.324-1.656 0-.64.108-1.192.324-1.656.216-.464.524-.82.924-1.068.4-.248.872-.372 1.416-.372.544 0 1.016.124 1.416.372.4.248.708.604.924 1.068.224.464.336 1.016.336 1.656 0 .64-.112 1.192-.336 1.656-.216.464-.524.82-.924 1.068-.4.248-.872.372-1.416.372zm0-.468c.656 0 1.18-.224 1.572-.672.392-.456.588-1.108.588-1.956 0-.848-.196-1.496-.588-1.944-.392-.456-.916-.684-1.572-.684s-1.18.228-1.572.684c-.384.448-.576 1.096-.576 1.944 0 .848.192 1.5.576 1.956.392.448.916.672 1.572.672zm6.465.468c-.696 0-1.224-.188-1.584-.564-.36-.376-.54-.952-.54-1.728V60.5h.504v3.756c0 .648.132 1.124.396 1.428.264.296.672.444 1.224.444.616 0 1.108-.196 1.476-.588.368-.4.552-.928.552-1.584V60.5h.504v6h-.492v-1.464h.144c-.16.496-.436.88-.828 1.152-.384.272-.836.408-1.356.408zM48.1 66.5v-4.632c0-.224-.008-.452-.024-.684a9.489 9.489 0 00-.048-.684h.492l.072 1.308-.108.012c.08-.32.224-.584.432-.792.216-.208.46-.364.732-.468a2.367 2.367 0 011.104-.144c.096.008.184.024.264.048l-.024.468a1.292 1.292 0 00-.264-.048 3.195 3.195 0 00-.288-.012c-.368 0-.692.096-.972.288a1.96 1.96 0 00-.636.696 1.64 1.64 0 00-.228.804v3.84h-.504zm8.807.096c-.488 0-.864-.152-1.128-.456-.256-.312-.384-.784-.384-1.416v-3.792h-1.2V60.5h1.2v-1.716l.504-.192V60.5h1.824v.432h-1.824v3.684c0 .528.08.912.24 1.152.168.24.436.36.804.36a1.785 1.785 0 00.756-.156v.48c-.088.04-.208.072-.36.096a1.986 1.986 0 01-.432.048zm4.552 0c-.88 0-1.58-.268-2.1-.804-.52-.544-.78-1.3-.78-2.268 0-.64.116-1.192.348-1.656.232-.464.556-.824.972-1.08a2.754 2.754 0 011.452-.384c.52 0 .96.112 1.32.336.368.216.648.532.84.948.2.408.3.896.3 1.464v.324h-4.908v-.456h4.644l-.204.156c0-.72-.168-1.284-.504-1.692-.336-.416-.836-.624-1.5-.624-.704 0-1.256.24-1.656.72-.392.48-.588 1.108-.588 1.884v.06c0 .848.208 1.496.624 1.944.416.44.996.66 1.74.66.376 0 .728-.06 1.056-.18.328-.12.644-.324.948-.612l.252.396c-.248.272-.576.484-.984.636a3.614 3.614 0 01-1.272.228zm6.276 0c-.544 0-1.016-.124-1.416-.372a2.422 2.422 0 01-.924-1.068c-.216-.464-.324-1.016-.324-1.656 0-.648.108-1.2.324-1.656.224-.464.536-.82.936-1.068.4-.248.868-.372 1.404-.372.568 0 1.052.148 1.452.444.408.296.676.704.804 1.224h-.144l.12-1.572h.492l-.072.66a8.61 8.61 0 00-.024.636V66.5h-.504v-1.572h.132c-.128.52-.396.928-.804 1.224-.408.296-.892.444-1.452.444zm0-.468c.656 0 1.176-.224 1.56-.672.384-.456.576-1.108.576-1.956 0-.848-.192-1.496-.576-1.944-.384-.456-.904-.684-1.56-.684s-1.18.228-1.572.684c-.384.448-.576 1.096-.576 1.944 0 .848.192 1.5.576 1.956.392.448.916.672 1.572.672zm4.74.372v-4.704c0-.208-.012-.42-.036-.636a20.212 20.212 0 00-.06-.66h.492l.108 1.44h-.144c.152-.496.404-.876.756-1.14.352-.264.78-.396 1.284-.396.528 0 .952.128 1.272.384.32.248.528.636.624 1.164h-.168c.136-.472.392-.848.768-1.128.384-.28.844-.42 1.38-.42.64 0 1.128.184 1.464.552.336.368.504.944.504 1.728V66.5h-.504v-3.768c0-.648-.116-1.12-.348-1.416-.232-.296-.608-.444-1.128-.444-.584 0-1.048.196-1.392.588-.336.392-.504.92-.504 1.584V66.5h-.504v-3.768c0-.648-.116-1.12-.348-1.416-.232-.296-.608-.444-1.128-.444-.584 0-1.044.196-1.38.588-.336.392-.504.92-.504 1.584V66.5h-.504zM3.386 81.596c-.488 0-.864-.152-1.128-.456-.256-.312-.384-.784-.384-1.416v-3.792h-1.2V75.5h1.2v-1.716l.504-.192V75.5h1.824v.432H2.378v3.684c0 .528.08.912.24 1.152.168.24.436.36.804.36a1.785 1.785 0 00.756-.156v.48c-.088.04-.208.072-.36.096a1.986 1.986 0 01-.432.048zm2.14-.096v-6h.503v6h-.504zm-.133-7.572v-.756h.768v.756h-.768zM8.138 81.5v-4.704c0-.208-.012-.42-.036-.636a20.212 20.212 0 00-.06-.66h.492l.108 1.44h-.144c.152-.496.404-.876.756-1.14.352-.264.78-.396 1.284-.396.528 0 .952.128 1.272.384.32.248.528.636.624 1.164h-.168c.136-.472.392-.848.768-1.128.384-.28.844-.42 1.38-.42.64 0 1.128.184 1.464.552.336.368.504.944.504 1.728V81.5h-.504v-3.768c0-.648-.116-1.12-.348-1.416-.232-.296-.608-.444-1.128-.444-.584 0-1.048.196-1.392.588-.336.392-.504.92-.504 1.584V81.5h-.504v-3.768c0-.648-.116-1.12-.348-1.416-.232-.296-.608-.444-1.128-.444-.584 0-1.044.196-1.38.588-.336.392-.504.92-.504 1.584V81.5h-.504zm12.797.096c-.88 0-1.58-.268-2.1-.804-.52-.544-.78-1.3-.78-2.268 0-.64.116-1.192.348-1.656.232-.464.556-.824.972-1.08a2.754 2.754 0 011.452-.384c.52 0 .96.112 1.32.336.368.216.648.532.84.948.2.408.3.896.3 1.464v.324h-4.908v-.456h4.644l-.204.156c0-.72-.168-1.284-.504-1.692-.336-.416-.836-.624-1.5-.624-.704 0-1.256.24-1.656.72-.392.48-.588 1.108-.588 1.884v.06c0 .848.208 1.496.624 1.944.416.44.996.66 1.74.66.376 0 .728-.06 1.056-.18.328-.12.644-.324.948-.612l.252.396c-.248.272-.576.484-.984.636a3.614 3.614 0 01-1.272.228zm8.892 0c-.448 0-.872-.068-1.272-.204a2.603 2.603 0 01-.96-.588l.252-.396c.288.248.6.432.936.552.336.112.692.168 1.068.168.544 0 .96-.104 1.248-.312a.995.995 0 00.432-.852c0-.28-.092-.504-.276-.672-.184-.176-.488-.308-.912-.396l-1.044-.228c-.512-.12-.892-.312-1.14-.576a1.382 1.382 0 01-.372-.984c0-.328.084-.62.252-.876.176-.256.424-.456.744-.6.328-.152.712-.228 1.152-.228.424 0 .812.072 1.164.216.36.144.648.344.864.6l-.264.396a2.335 2.335 0 00-.804-.552 2.392 2.392 0 00-.96-.192c-.52 0-.92.112-1.2.336-.272.224-.408.52-.408.888 0 .28.084.508.252.684.176.176.452.308.828.396l1.044.24c.544.128.948.316 1.212.564.264.24.396.56.396.96 0 .336-.092.628-.276.876-.184.248-.444.44-.78.576a3.12 3.12 0 01-1.176.204zm6.29 0c-.544 0-1.016-.124-1.416-.372a2.422 2.422 0 01-.924-1.068c-.216-.464-.324-1.016-.324-1.656 0-.648.108-1.2.324-1.656.224-.464.536-.82.936-1.068.4-.248.868-.372 1.404-.372.568 0 1.052.148 1.452.444.408.296.676.704.804 1.224h-.144l.12-1.572h.492l-.072.66a8.61 8.61 0 00-.024.636V81.5h-.504v-1.572h.132c-.128.52-.396.928-.804 1.224-.408.296-.892.444-1.452.444zm0-.468c.656 0 1.176-.224 1.56-.672.384-.456.576-1.108.576-1.956 0-.848-.192-1.496-.576-1.944-.384-.456-.904-.684-1.56-.684s-1.18.228-1.572.684c-.384.448-.576 1.096-.576 1.944 0 .848.192 1.5.576 1.956.392.448.916.672 1.572.672zm6.458.372l-2.544-6h.576l2.4 5.808h-.288L45.13 75.5h.564l-2.544 6h-.576zm4.458 0v-6h.504v6h-.504zm-.132-7.572v-.756h.768v.756H46.9zm2.745 7.572v-4.704c0-.208-.012-.42-.036-.636a20.212 20.212 0 00-.06-.66h.492l.108 1.44h-.144c.168-.504.448-.884.84-1.14.4-.264.868-.396 1.404-.396.712 0 1.248.184 1.608.552.368.368.552.944.552 1.728V81.5h-.504v-3.768c0-.648-.132-1.12-.396-1.416-.264-.296-.68-.444-1.248-.444-.648 0-1.164.196-1.548.588-.376.392-.564.92-.564 1.584V81.5h-.504zm9.364 2.676c-.488 0-.948-.072-1.38-.216a3.504 3.504 0 01-1.152-.624l.24-.408c.264.192.512.344.744.456.232.112.472.192.72.24.256.056.536.084.84.084.624 0 1.096-.172 1.416-.516.328-.336.492-.82.492-1.452v-2.052h.132c-.128.528-.4.94-.816 1.236-.408.296-.896.444-1.464.444-.552 0-1.032-.12-1.44-.36a2.526 2.526 0 01-.936-1.044c-.216-.448-.324-.976-.324-1.584 0-.608.108-1.132.324-1.572.224-.448.536-.792.936-1.032.408-.248.888-.372 1.44-.372.568 0 1.056.148 1.464.444.416.296.688.712.816 1.248l-.132-.156.108-1.44h.492l-.072.66a8.61 8.61 0 00-.024.636v4.86c0 .832-.204 1.46-.612 1.884-.408.424-1.012.636-1.812.636zm-.24-3.276c.664 0 1.188-.22 1.572-.66.392-.448.588-1.068.588-1.86s-.196-1.408-.588-1.848c-.384-.44-.908-.66-1.572-.66s-1.192.22-1.584.66c-.392.44-.588 1.056-.588 1.848s.196 1.412.588 1.86c.392.44.92.66 1.584.66zM3.386 96.596c-.488 0-.864-.152-1.128-.456-.256-.312-.384-.784-.384-1.416v-3.792h-1.2V90.5h1.2v-1.716l.504-.192V90.5h1.824v.432H2.378v3.684c0 .528.08.912.24 1.152.168.24.436.36.804.36a1.785 1.785 0 00.756-.156v.48c-.088.04-.208.072-.36.096a1.986 1.986 0 01-.432.048zm4.337 0c-.544 0-1.016-.124-1.416-.372a2.422 2.422 0 01-.924-1.068c-.216-.464-.324-1.016-.324-1.656 0-.64.108-1.192.324-1.656.216-.464.524-.82.924-1.068.4-.248.872-.372 1.416-.372.544 0 1.016.124 1.416.372.4.248.708.604.924 1.068.223.464.335 1.016.335 1.656 0 .64-.111 1.192-.335 1.656-.216.464-.524.82-.924 1.068-.4.248-.872.372-1.416.372zm0-.468c.656 0 1.18-.224 1.572-.672.392-.456.588-1.108.588-1.956 0-.848-.196-1.496-.588-1.944-.392-.456-.916-.684-1.572-.684s-1.18.228-1.572.684c-.384.448-.576 1.096-.576 1.944 0 .848.192 1.5.576 1.956.392.448.916.672 1.572.672zm6.632.468c-.544 0-1.016-.124-1.416-.372a2.422 2.422 0 01-.924-1.068c-.216-.464-.324-1.016-.324-1.656 0-.64.108-1.192.324-1.656.216-.464.524-.82.924-1.068.4-.248.872-.372 1.416-.372.544 0 1.016.124 1.416.372.4.248.708.604.924 1.068.224.464.336 1.016.336 1.656 0 .64-.112 1.192-.336 1.656-.216.464-.524.82-.924 1.068-.4.248-.872.372-1.416.372zm0-.468c.656 0 1.18-.224 1.572-.672.392-.456.588-1.108.588-1.956 0-.848-.196-1.496-.588-1.944-.392-.456-.916-.684-1.572-.684s-1.18.228-1.572.684c-.384.448-.576 1.096-.576 1.944 0 .848.192 1.5.576 1.956.392.448.916.672 1.572.672zm4.377.372v-8.832h.504V96.5h-.504zm4.485.096c-.448 0-.872-.068-1.272-.204a2.603 2.603 0 01-.96-.588l.252-.396c.288.248.6.432.936.552.336.112.692.168 1.068.168.544 0 .96-.104 1.248-.312a.995.995 0 00.432-.852c0-.28-.092-.504-.276-.672-.184-.176-.488-.308-.912-.396l-1.044-.228c-.512-.12-.892-.312-1.14-.576a1.382 1.382 0 01-.372-.984c0-.328.084-.62.252-.876.176-.256.424-.456.744-.6.328-.152.712-.228 1.152-.228.424 0 .812.072 1.164.216.36.144.648.344.864.6l-.264.396a2.335 2.335 0 00-.804-.552 2.392 2.392 0 00-.96-.192c-.52 0-.92.112-1.2.336-.272.224-.408.52-.408.888 0 .28.084.508.252.684.176.176.452.308.828.396l1.044.24c.544.128.948.316 1.212.564.264.24.396.56.396.96 0 .336-.092.628-.276.876-.184.248-.444.44-.78.576a3.12 3.12 0 01-1.176.204zm8.787 0c-.488 0-.864-.152-1.128-.456-.256-.312-.384-.784-.384-1.416v-3.792h-1.2V90.5h1.2v-1.716l.504-.192V90.5h1.824v.432h-1.824v3.684c0 .528.08.912.24 1.152.168.24.436.36.804.36a1.785 1.785 0 00.756-.156v.48c-.088.04-.208.072-.36.096a1.986 1.986 0 01-.432.048zm4.336 0c-.544 0-1.016-.124-1.416-.372A2.422 2.422 0 0134 95.156c-.216-.464-.324-1.016-.324-1.656 0-.64.108-1.192.324-1.656.216-.464.524-.82.924-1.068.4-.248.872-.372 1.416-.372.544 0 1.016.124 1.416.372.4.248.708.604.924 1.068.224.464.336 1.016.336 1.656 0 .64-.112 1.192-.336 1.656-.216.464-.524.82-.924 1.068-.4.248-.872.372-1.416.372zm0-.468c.656 0 1.18-.224 1.572-.672.392-.456.588-1.108.588-1.956 0-.848-.196-1.496-.588-1.944-.392-.456-.916-.684-1.572-.684s-1.18.228-1.572.684c-.384.448-.576 1.096-.576 1.944 0 .848.192 1.5.576 1.956.392.448.916.672 1.572.672zm9.248.468c-.447 0-.871-.068-1.272-.204a2.603 2.603 0 01-.96-.588l.252-.396c.289.248.6.432.937.552.335.112.691.168 1.067.168.544 0 .96-.104 1.248-.312a.995.995 0 00.432-.852c0-.28-.092-.504-.276-.672-.183-.176-.487-.308-.911-.396l-1.044-.228c-.513-.12-.892-.312-1.14-.576a1.382 1.382 0 01-.373-.984c0-.328.084-.62.252-.876.177-.256.425-.456.745-.6.328-.152.712-.228 1.151-.228.425 0 .813.072 1.165.216.36.144.648.344.864.6l-.264.396a2.335 2.335 0 00-.804-.552 2.392 2.392 0 00-.96-.192c-.52 0-.92.112-1.2.336-.273.224-.408.52-.408.888 0 .28.084.508.252.684.175.176.451.308.828.396l1.044.24c.544.128.947.316 1.212.564.264.24.396.56.396.96 0 .336-.093.628-.276.876-.184.248-.445.44-.78.576a3.12 3.12 0 01-1.176.204zm6.507 0c-.88 0-1.58-.268-2.1-.804-.52-.544-.78-1.3-.78-2.268 0-.64.116-1.192.348-1.656.232-.464.556-.824.972-1.08a2.754 2.754 0 011.452-.384c.52 0 .96.112 1.32.336.368.216.648.532.84.948.2.408.3.896.3 1.464v.324h-4.908v-.456h4.644l-.204.156c0-.72-.168-1.284-.504-1.692-.336-.416-.836-.624-1.5-.624-.704 0-1.256.24-1.656.72-.392.48-.588 1.108-.588 1.884v.06c0 .848.208 1.496.624 1.944.416.44.996.66 1.74.66.376 0 .728-.06 1.056-.18.328-.12.644-.324.948-.612l.252.396c-.248.272-.576.484-.984.636a3.614 3.614 0 01-1.272.228zm3.996-.096v-4.632c0-.224-.008-.452-.024-.684a9.489 9.489 0 00-.048-.684h.492l.072 1.308-.108.012c.08-.32.224-.584.432-.792.216-.208.46-.364.732-.468a2.367 2.367 0 011.104-.144c.096.008.184.024.264.048l-.024.468a1.292 1.292 0 00-.264-.048 3.195 3.195 0 00-.288-.012c-.368 0-.692.096-.972.288a1.96 1.96 0 00-.636.696 1.64 1.64 0 00-.228.804v3.84h-.504zm6.194 0l-2.543-6h.576l2.4 5.808h-.289l2.412-5.808h.565l-2.545 6h-.575zm6.872.096c-.88 0-1.58-.268-2.1-.804-.52-.544-.78-1.3-.78-2.268 0-.64.116-1.192.348-1.656.232-.464.556-.824.972-1.08a2.754 2.754 0 011.452-.384c.52 0 .96.112 1.32.336.368.216.648.532.84.948.2.408.3.896.3 1.464v.324h-4.908v-.456h4.644l-.204.156c0-.72-.168-1.284-.504-1.692-.336-.416-.836-.624-1.5-.624-.704 0-1.256.24-1.656.72-.392.48-.588 1.108-.588 1.884v.06c0 .848.208 1.496.624 1.944.416.44.996.66 1.74.66.376 0 .728-.06 1.056-.18.328-.12.644-.324.948-.612l.252.396c-.248.272-.576.484-.984.636a3.614 3.614 0 01-1.272.228zm-65.207 15c-.56 0-1.044-.124-1.452-.372a2.536 2.536 0 01-.948-1.092c-.216-.472-.324-1.032-.324-1.68 0-.648.112-1.2.336-1.656.224-.456.54-.8.948-1.032.408-.24.888-.36 1.44-.36.376 0 .736.076 1.08.228.352.144.644.348.876.612l-.252.384a2.427 2.427 0 00-.828-.576 2.348 2.348 0 00-.888-.18c-.688 0-1.228.224-1.62.672-.384.44-.576 1.08-.576 1.92 0 .848.192 1.504.576 1.968.392.464.932.696 1.62.696.28 0 .568-.056.864-.168a2.44 2.44 0 00.852-.588l.252.384c-.24.272-.54.48-.9.624a2.77 2.77 0 01-1.056.216zm5.62 0c-.696 0-1.224-.188-1.584-.564-.36-.376-.54-.952-.54-1.728V105.5h.504v3.756c0 .648.132 1.124.396 1.428.264.296.672.444 1.224.444.616 0 1.108-.196 1.476-.588.368-.4.552-.928.552-1.584V105.5h.504v6h-.492v-1.464h.144c-.16.496-.436.88-.828 1.152-.384.272-.836.408-1.356.408zm6.51 0c-.447 0-.871-.068-1.271-.204a2.603 2.603 0 01-.96-.588l.252-.396c.288.248.6.432.936.552.336.112.692.168 1.068.168.544 0 .96-.104 1.248-.312a.995.995 0 00.432-.852c0-.28-.092-.504-.276-.672-.184-.176-.488-.308-.912-.396l-1.044-.228c-.512-.12-.892-.312-1.14-.576a1.382 1.382 0 01-.372-.984c0-.328.084-.62.252-.876.176-.256.424-.456.744-.6.328-.152.712-.228 1.152-.228.424 0 .812.072 1.164.216.36.144.648.344.864.6l-.264.396a2.335 2.335 0 00-.804-.552 2.392 2.392 0 00-.96-.192c-.52 0-.92.112-1.2.336-.272.224-.408.52-.408.888 0 .28.084.508.252.684.176.176.452.308.828.396l1.044.24c.544.128.948.316 1.212.564.264.24.396.56.396.96 0 .336-.092.628-.276.876-.184.248-.444.44-.78.576a3.12 3.12 0 01-1.176.204zm5.728 0c-.488 0-.864-.152-1.128-.456-.256-.312-.384-.784-.384-1.416v-3.792h-1.2v-.432h1.2v-1.716l.504-.192v1.908h1.824v.432H20.8v3.684c0 .528.08.912.24 1.152.168.24.436.36.804.36a1.785 1.785 0 00.756-.156v.48c-.088.04-.208.072-.36.096a1.986 1.986 0 01-.432.048zm4.336 0c-.544 0-1.016-.124-1.416-.372a2.422 2.422 0 01-.924-1.068c-.216-.464-.324-1.016-.324-1.656 0-.64.108-1.192.324-1.656.216-.464.524-.82.924-1.068.4-.248.872-.372 1.416-.372.544 0 1.016.124 1.416.372.4.248.708.604.924 1.068.224.464.336 1.016.336 1.656 0 .64-.112 1.192-.336 1.656-.216.464-.524.82-.924 1.068-.4.248-.872.372-1.416.372zm0-.468c.656 0 1.18-.224 1.572-.672.392-.456.588-1.108.588-1.956 0-.848-.196-1.496-.588-1.944-.392-.456-.916-.684-1.572-.684s-1.18.228-1.572.684c-.384.448-.576 1.096-.576 1.944 0 .848.192 1.5.576 1.956.392.448.916.672 1.572.672zm4.377.372v-4.704c0-.208-.012-.42-.036-.636a20.212 20.212 0 00-.06-.66h.492l.108 1.44h-.144c.152-.496.404-.876.756-1.14.352-.264.78-.396 1.284-.396.528 0 .952.128 1.272.384.32.248.528.636.624 1.164h-.168c.136-.472.392-.848.768-1.128.384-.28.844-.42 1.38-.42.64 0 1.128.184 1.464.552.336.368.504.944.504 1.728v3.816h-.504v-3.768c0-.648-.116-1.12-.348-1.416-.232-.296-.608-.444-1.128-.444-.584 0-1.048.196-1.392.588-.336.392-.504.92-.504 1.584v3.456h-.504v-3.768c0-.648-.116-1.12-.348-1.416-.232-.296-.608-.444-1.128-.444-.584 0-1.044.196-1.38.588-.336.392-.504.92-.504 1.584v3.456h-.504zm12.796.096c-.88 0-1.58-.268-2.1-.804-.52-.544-.78-1.3-.78-2.268 0-.64.116-1.192.348-1.656.232-.464.556-.824.972-1.08a2.754 2.754 0 011.452-.384c.52 0 .96.112 1.32.336.368.216.648.532.84.948.2.408.3.896.3 1.464v.324h-4.908v-.456h4.644l-.204.156c0-.72-.168-1.284-.504-1.692-.336-.416-.836-.624-1.5-.624-.704 0-1.256.24-1.656.72-.392.48-.588 1.108-.588 1.884v.06c0 .848.208 1.496.624 1.944.416.44.996.66 1.74.66.376 0 .728-.06 1.056-.18.328-.12.644-.324.948-.612l.252.396c-.248.272-.576.484-.984.636a3.614 3.614 0 01-1.272.228zm3.997-.096v-4.632c0-.224-.008-.452-.024-.684a9.489 9.489 0 00-.048-.684h.492l.072 1.308-.108.012c.08-.32.224-.584.432-.792.216-.208.46-.364.732-.468a2.367 2.367 0 011.104-.144c.096.008.184.024.264.048l-.024.468a1.292 1.292 0 00-.264-.048 3.195 3.195 0 00-.288-.012c-.368 0-.692.096-.972.288a1.96 1.96 0 00-.636.696 1.64 1.64 0 00-.228.804v3.84h-.504zm5.868.096c-.448 0-.872-.068-1.272-.204a2.603 2.603 0 01-.96-.588l.252-.396c.288.248.6.432.936.552.336.112.692.168 1.068.168.544 0 .96-.104 1.248-.312a.995.995 0 00.432-.852c0-.28-.092-.504-.276-.672-.184-.176-.488-.308-.912-.396l-1.044-.228c-.512-.12-.892-.312-1.14-.576a1.382 1.382 0 01-.372-.984c0-.328.084-.62.252-.876.176-.256.424-.456.744-.6.328-.152.712-.228 1.152-.228.424 0 .812.072 1.164.216.36.144.648.344.864.6l-.264.396a2.335 2.335 0 00-.804-.552 2.392 2.392 0 00-.96-.192c-.52 0-.92.112-1.2.336-.272.224-.408.52-.408.888 0 .28.084.508.252.684.176.176.452.308.828.396l1.044.24c.544.128.948.316 1.212.564.264.24.396.56.396.96 0 .336-.092.628-.276.876-.184.248-.444.44-.78.576a3.12 3.12 0 01-1.176.204zm9.674 0c-.575 0-1.064-.148-1.464-.444-.4-.296-.668-.704-.803-1.224h.132v1.572h-.504v-8.832h.504v4.404h-.132c.136-.52.404-.928.803-1.224.4-.296.889-.444 1.464-.444.544 0 1.012.124 1.404.372.4.248.709.604.924 1.068.216.456.325 1.008.325 1.656 0 .64-.112 1.192-.337 1.656-.215.464-.523.82-.923 1.068-.392.248-.856.372-1.392.372zm-.012-.468c.657 0 1.176-.224 1.56-.672.392-.456.589-1.108.589-1.956 0-.848-.197-1.496-.588-1.944-.385-.456-.904-.684-1.56-.684-.657 0-1.176.228-1.56.684-.384.448-.576 1.096-.576 1.944 0 .848.191 1.5.575 1.956.385.448.904.672 1.56.672zm6.84.468c-.88 0-1.58-.268-2.1-.804-.52-.544-.78-1.3-.78-2.268 0-.64.117-1.192.349-1.656.232-.464.556-.824.972-1.08a2.754 2.754 0 011.452-.384c.52 0 .96.112 1.32.336.368.216.648.532.84.948.2.408.3.896.3 1.464v.324h-4.908v-.456h4.644l-.204.156c0-.72-.168-1.284-.504-1.692-.336-.416-.836-.624-1.5-.624-.704 0-1.256.24-1.656.72-.392.48-.588 1.108-.588 1.884v.06c0 .848.208 1.496.624 1.944.416.44.996.66 1.74.66.376 0 .728-.06 1.056-.18.328-.12.644-.324.948-.612l.252.396c-.248.272-.576.484-.984.636a3.614 3.614 0 01-1.272.228zm5.785 0c-.488 0-.864-.152-1.128-.456-.256-.312-.384-.784-.384-1.416v-3.792h-1.2v-.432h1.2v-1.716l.504-.192v1.908h1.823v.432H74.46v3.684c0 .528.08.912.24 1.152.168.24.436.36.804.36a1.785 1.785 0 00.756-.156v.48c-.088.04-.208.072-.36.096a1.986 1.986 0 01-.431.048zm3.89 0c-.488 0-.864-.152-1.128-.456-.256-.312-.384-.784-.384-1.416v-3.792h-1.2v-.432h1.2v-1.716l.504-.192v1.908h1.824v.432h-1.824v3.684c0 .528.08.912.24 1.152.168.24.436.36.804.36a1.785 1.785 0 00.756-.156v.48c-.088.04-.208.072-.36.096a1.986 1.986 0 01-.432.048zm4.552 0c-.88 0-1.58-.268-2.1-.804-.52-.544-.78-1.3-.78-2.268 0-.64.116-1.192.348-1.656.232-.464.556-.824.972-1.08a2.754 2.754 0 011.452-.384c.52 0 .96.112 1.32.336.368.216.648.532.84.948.2.408.3.896.3 1.464v.324h-4.908v-.456H86l-.204.156c0-.72-.168-1.284-.504-1.692-.336-.416-.836-.624-1.5-.624-.704 0-1.256.24-1.656.72-.392.48-.588 1.108-.588 1.884v.06c0 .848.208 1.496.624 1.944.416.44.996.66 1.74.66.376 0 .728-.06 1.056-.18.328-.12.644-.324.948-.612l.252.396c-.248.272-.576.484-.984.636a3.614 3.614 0 01-1.272.228zm3.996-.096v-4.632c0-.224-.008-.452-.024-.684a9.489 9.489 0 00-.048-.684h.492l.072 1.308-.108.012c.08-.32.224-.584.432-.792.216-.208.46-.364.732-.468a2.367 2.367 0 011.104-.144c.096.008.184.024.264.048l-.024.468a1.292 1.292 0 00-.264-.048 3.195 3.195 0 00-.288-.012c-.368 0-.692.096-.972.288a1.96 1.96 0 00-.636.696 1.64 1.64 0 00-.228.804v3.84h-.504zm3.617 0v-.84h.828v.84h-.828zM2.262 164.31c-.3 0-.568-.038-.804-.116a1.918 1.918 0 01-.619-.333l.159-.349c.123.091.247.169.37.232.127.06.263.106.407.138.145.028.307.042.487.042.314 0 .547-.058.698-.174a.559.559 0 00.228-.466.469.469 0 00-.159-.381c-.106-.088-.29-.158-.555-.211l-.556-.111c-.342-.071-.597-.185-.767-.344-.165-.159-.248-.374-.248-.645 0-.222.056-.416.169-.582.116-.166.279-.295.487-.386.208-.092.45-.138.724-.138.265 0 .506.041.725.122.218.077.405.192.56.344l-.153.338a1.54 1.54 0 00-.524-.317 1.749 1.749 0 00-.613-.101c-.29 0-.518.064-.688.191a.597.597 0 00-.248.508.53.53 0 00.158.407c.106.095.28.167.524.217l.56.111c.36.074.625.185.794.333.17.148.254.356.254.624a.917.917 0 01-.17.545c-.109.159-.266.282-.47.37a1.839 1.839 0 01-.73.132zm2.962 0c-.26 0-.46-.074-.597-.222-.138-.151-.206-.379-.206-.682v-1.465h-.519v-.333h.519v-.725l.428-.122v.847h.762v.333h-.762v1.417c0 .212.035.363.106.455.074.088.183.132.328.132a.974.974 0 00.18-.015c.052-.015.1-.03.142-.048v.36a.72.72 0 01-.18.047.98.98 0 01-.2.021zm1.972 0c-.254 0-.476-.054-.667-.164a1.127 1.127 0 01-.433-.476 1.648 1.648 0 01-.154-.735c0-.285.052-.531.154-.735.102-.205.247-.361.433-.471.19-.113.413-.169.667-.169.257 0 .48.056.666.169.19.11.337.266.44.471.105.204.158.45.158.735 0 .282-.053.527-.159.735a1.117 1.117 0 01-.439.476 1.29 1.29 0 01-.666.164zm0-.349c.254 0 .455-.086.603-.259.148-.176.222-.432.222-.767 0-.338-.076-.594-.227-.767a.74.74 0 00-.598-.264.74.74 0 00-.598.264c-.148.173-.222.429-.222.767 0 .335.074.591.222.767a.746.746 0 00.598.259zm1.932.302v-2.042c0-.099-.005-.199-.016-.301a8.499 8.499 0 00-.026-.312h.412l.053.581h-.063a.911.911 0 01.37-.465c.173-.109.372-.164.598-.164.313 0 .55.085.708.254.163.166.244.428.244.788v1.661h-.429v-1.635c0-.25-.05-.432-.153-.544-.099-.117-.254-.175-.466-.175-.246 0-.442.076-.587.227-.144.152-.217.355-.217.609v1.518h-.428zm4.279.047c-.416 0-.744-.12-.984-.359-.24-.244-.36-.58-.36-1.011 0-.278.053-.52.159-.724.106-.208.254-.369.444-.482.19-.116.41-.174.656-.174.243 0 .448.051.614.153a.996.996 0 01.38.439c.088.187.133.409.133.667v.158H12.39v-.269h1.777l-.09.068c0-.282-.063-.502-.19-.661-.127-.158-.316-.238-.566-.238-.264 0-.47.094-.619.281-.148.183-.222.432-.222.745v.048c0 .331.081.584.243.756.166.17.397.254.693.254.159 0 .307-.023.444-.069.142-.049.276-.128.402-.238l.149.302a1.193 1.193 0 01-.445.264c-.176.06-.363.09-.56.09zm1.745-.047v-3.729h.439v1.65h2.248v-1.65h.433v3.729h-.433v-1.703H15.59v1.703h-.44zm5.181.047c-.416 0-.744-.12-.984-.359-.24-.244-.36-.58-.36-1.011 0-.278.054-.52.16-.724.105-.208.253-.369.444-.482.19-.116.409-.174.656-.174.243 0 .447.051.613.153a.996.996 0 01.381.439c.088.187.132.409.132.667v.158h-2.057v-.269h1.777l-.09.068c0-.282-.063-.502-.19-.661-.127-.158-.316-.238-.566-.238-.265 0-.471.094-.62.281-.147.183-.221.432-.221.745v.048c0 .331.08.584.243.756.166.17.397.254.693.254.159 0 .307-.023.444-.069a1.23 1.23 0 00.402-.238l.148.302a1.193 1.193 0 01-.444.264c-.176.06-.363.09-.56.09zm2.703 0c-.233 0-.438-.054-.614-.164a1.129 1.129 0 01-.412-.476 1.727 1.727 0 01-.143-.735c0-.289.047-.536.143-.74.098-.205.236-.362.412-.471.177-.109.381-.164.614-.164.24 0 .446.06.619.18.176.12.294.282.354.486h-.064v-1.856h.429v3.893h-.423v-.635h.058a.863.863 0 01-.35.502c-.175.12-.383.18-.623.18zm.09-.349c.25 0 .451-.086.603-.259.151-.176.227-.432.227-.767 0-.338-.076-.594-.227-.767a.756.756 0 00-.603-.264.756.756 0 00-.603.264c-.148.173-.223.429-.223.767 0 .335.075.591.223.767a.762.762 0 00.603.259zm3.245 1.481c-.229 0-.44-.028-.635-.084a1.619 1.619 0 01-.523-.26l.127-.322c.11.077.217.139.322.185.106.046.216.079.328.1.113.025.233.037.36.037.26 0 .458-.068.592-.206.134-.137.201-.333.201-.587v-.777h.053a.867.867 0 01-.349.497c-.176.12-.382.18-.619.18-.243 0-.455-.053-.634-.159a1.114 1.114 0 01-.413-.46 1.643 1.643 0 01-.143-.709c0-.268.048-.501.143-.698.099-.198.236-.349.413-.455.18-.109.391-.164.634-.164.24 0 .446.06.62.18.175.12.292.285.348.497l-.053-.053.048-.576h.418a4.39 4.39 0 00-.043.613v2.026c0 .395-.102.693-.306.894-.201.201-.497.301-.889.301zm-.063-1.587c.257 0 .46-.084.608-.253.148-.173.222-.415.222-.725s-.074-.55-.222-.719c-.148-.17-.35-.254-.608-.254a.774.774 0 00-.609.254c-.151.169-.227.409-.227.719s.076.552.227.725a.777.777 0 00.609.253zm3.26.455c-.415 0-.743-.12-.983-.359-.24-.244-.36-.58-.36-1.011 0-.278.053-.52.159-.724.106-.208.254-.369.444-.482.19-.116.41-.174.656-.174.243 0 .448.051.614.153a.995.995 0 01.38.439c.089.187.133.409.133.667v.158h-2.058v-.269h1.777l-.09.068c0-.282-.063-.502-.19-.661-.127-.158-.316-.238-.566-.238-.264 0-.47.094-.619.281-.148.183-.222.432-.222.745v.048c0 .331.081.584.243.756.166.17.397.254.693.254.159 0 .307-.023.445-.069.14-.049.275-.128.401-.238l.149.302a1.192 1.192 0 01-.445.264c-.176.06-.363.09-.56.09zm3.077-.047v-2.655h.429v2.655h-.429zm-.053-3.258v-.482h.53v.482h-.53zm2.197 3.305c-.212 0-.41-.028-.592-.084a1.276 1.276 0 01-.455-.249l.148-.301c.13.102.271.178.423.227.155.049.316.074.481.074.212 0 .37-.037.476-.111a.369.369 0 00.164-.317.303.303 0 00-.105-.244c-.068-.063-.179-.112-.334-.148l-.492-.1c-.225-.05-.395-.132-.507-.249a.637.637 0 01-.17-.455c0-.155.04-.291.122-.407.081-.12.2-.213.354-.28.156-.071.337-.106.545-.106.194 0 .372.03.534.09.166.056.304.139.413.248l-.153.297a1.011 1.011 0 00-.365-.228 1.126 1.126 0 00-.418-.079c-.208 0-.365.042-.471.127a.39.39 0 00-.153.322c0 .103.031.187.095.254.067.064.17.111.307.143l.491.101c.24.053.418.135.535.248.12.11.18.258.18.445a.686.686 0 01-.133.417.837.837 0 01-.37.27 1.438 1.438 0 01-.55.095zm4.13 0c-.236 0-.443-.054-.619-.164a1.128 1.128 0 01-.412-.476 1.727 1.727 0 01-.143-.735c0-.289.047-.536.143-.74.098-.205.236-.362.412-.471.176-.109.383-.164.619-.164.24 0 .446.062.619.185.176.12.293.284.349.492h-.064l.059-.629h.412l-.032.312a4.39 4.39 0 00-.01.301v2.042h-.429v-.624h.059a.838.838 0 01-.35.491c-.176.12-.38.18-.613.18zm.085-.349c.254 0 .455-.086.603-.259.148-.176.222-.432.222-.767 0-.338-.074-.594-.222-.767a.747.747 0 00-.603-.264.757.757 0 00-.603.264c-.149.173-.223.429-.223.767 0 .335.075.591.223.767a.762.762 0 00.603.259zm3.455 1.444v-3.184c0-.099-.005-.199-.016-.301a8.327 8.327 0 00-.026-.312h.413l.058.629h-.064a.85.85 0 01.344-.492c.173-.123.38-.185.619-.185.24 0 .446.055.619.164.176.109.314.266.412.471.099.204.148.451.148.74 0 .286-.049.531-.148.735a1.094 1.094 0 01-.407.476c-.176.11-.384.164-.624.164-.236 0-.44-.06-.614-.18a.846.846 0 01-.343-.491h.058v1.766h-.429zm1.243-1.444c.254 0 .455-.086.603-.259.152-.176.228-.432.228-.767 0-.338-.076-.594-.228-.767a.747.747 0 00-.603-.264.756.756 0 00-.603.264c-.148.173-.222.429-.222.767 0 .335.074.591.222.767a.762.762 0 00.603.259zm1.918.302v-2.015c0-.106-.003-.214-.01-.323a4.517 4.517 0 00-.021-.317H46l.053.645-.074.005a.874.874 0 01.185-.391.919.919 0 01.688-.307c.053 0 .098.002.137.005a.422.422 0 01.116.027l-.005.38a.624.624 0 00-.148-.031.913.913 0 00-.148-.011.743.743 0 00-.407.111.75.75 0 00-.344.656v1.566h-.434zm2.99.047c-.253 0-.475-.054-.666-.164a1.127 1.127 0 01-.433-.476 1.648 1.648 0 01-.154-.735c0-.285.051-.531.154-.735.102-.205.246-.361.433-.471a1.28 1.28 0 01.667-.169c.257 0 .48.056.666.169.19.11.337.266.44.471.105.204.158.45.158.735 0 .282-.053.527-.159.735a1.117 1.117 0 01-.439.476 1.29 1.29 0 01-.666.164zm0-.349c.255 0 .456-.086.604-.259.148-.176.222-.432.222-.767 0-.338-.076-.594-.227-.767a.74.74 0 00-.598-.264c-.25 0-.45.088-.598.264-.148.173-.222.429-.222.767 0 .335.074.591.222.767a.746.746 0 00.598.259zm2.938.349c-.233 0-.437-.054-.614-.164a1.129 1.129 0 01-.412-.476 1.727 1.727 0 01-.143-.735c0-.289.047-.536.143-.74.099-.205.236-.362.412-.471.177-.109.381-.164.614-.164.24 0 .446.06.619.18.176.12.294.282.354.486h-.063v-1.856h.428v3.893h-.423v-.635h.058a.863.863 0 01-.349.502c-.176.12-.384.18-.624.18zm.09-.349c.25 0 .451-.086.603-.259.151-.176.227-.432.227-.767 0-.338-.076-.594-.227-.767a.756.756 0 00-.603-.264.756.756 0 00-.603.264c-.148.173-.222.429-.222.767 0 .335.074.591.222.767a.762.762 0 00.603.259zm3.013.349c-.314 0-.552-.086-.715-.259-.158-.173-.237-.437-.237-.793v-1.65h.428v1.639c0 .244.05.423.148.54.099.113.252.169.46.169.233 0 .42-.076.56-.227.142-.152.212-.355.212-.609v-1.512h.429v2.655h-.418v-.598h.069a.946.946 0 01-.36.476.983.983 0 01-.576.169zm3.232 0c-.26 0-.488-.056-.682-.169a1.152 1.152 0 01-.445-.481 1.664 1.664 0 01-.153-.741c0-.289.053-.534.159-.735.105-.204.254-.36.444-.465a1.39 1.39 0 01.677-.159c.17 0 .333.03.492.09.162.06.296.144.402.254l-.154.307a1.03 1.03 0 00-.349-.228.985.985 0 00-.364-.074c-.275 0-.489.086-.64.259-.152.173-.228.425-.228.757 0 .327.076.581.227.761.152.18.366.27.64.27a1.027 1.027 0 00.715-.296l.153.301c-.11.113-.245.199-.407.259-.163.06-.325.09-.487.09zm2.444 0c-.26 0-.46-.074-.597-.222-.138-.151-.207-.379-.207-.682v-1.465h-.518v-.333h.518v-.725l.429-.122v.847h.761v.333h-.761v1.417c0 .212.035.363.105.455.075.088.184.132.328.132a.973.973 0 00.18-.015c.053-.015.1-.03.143-.048v.36a.72.72 0 01-.18.047.98.98 0 01-.2.021zm3.62 0c-.24 0-.446-.06-.619-.18a.896.896 0 01-.349-.502h.058v.635h-.423v-3.893h.428v1.856h-.063a.875.875 0 01.35-.486c.172-.12.378-.18.618-.18s.446.056.619.169c.176.11.312.266.407.471.099.204.148.45.148.735 0 .286-.05.531-.148.735a1.129 1.129 0 01-.412.476c-.173.11-.378.164-.614.164zm-.09-.349c.25 0 .451-.086.603-.259.152-.173.227-.428.227-.767 0-.338-.075-.594-.227-.767a.756.756 0 00-.603-.264.756.756 0 00-.603.264c-.148.173-.222.429-.222.767 0 .335.074.591.222.767a.762.762 0 00.603.259zm1.787 1.502l-.1-.354c.165-.039.302-.085.412-.138a.775.775 0 00.28-.201c.074-.084.138-.19.19-.317l.138-.312-.01.18-1.159-2.713h.465l.958 2.332h-.138l.947-2.332h.45l-1.227 2.877c-.071.169-.149.31-.233.423a1.22 1.22 0 01-.275.28 1.152 1.152 0 01-.318.175 2.269 2.269 0 01-.38.1zm5.558-1.153c-.3 0-.567-.038-.803-.116a1.918 1.918 0 01-.62-.333l.16-.349c.123.091.246.169.37.232.127.06.262.106.407.138.145.028.307.042.487.042.313 0 .546-.058.698-.174a.559.559 0 00.227-.466.469.469 0 00-.159-.381c-.105-.088-.29-.158-.555-.211l-.555-.111c-.342-.071-.598-.185-.767-.344-.166-.159-.249-.374-.249-.645 0-.222.057-.416.17-.582.116-.166.278-.295.486-.386.208-.092.45-.138.725-.138.264 0 .506.041.724.122.219.077.406.192.56.344l-.152.338a1.54 1.54 0 00-.524-.317 1.749 1.749 0 00-.614-.101c-.289 0-.518.064-.687.191a.597.597 0 00-.249.508.53.53 0 00.159.407c.106.095.28.167.523.217l.561.111c.36.074.624.185.793.333.17.148.254.356.254.624a.917.917 0 01-.169.545c-.11.159-.266.282-.47.37a1.839 1.839 0 01-.73.132zm2.963 0c-.261 0-.46-.074-.598-.222-.137-.151-.206-.379-.206-.682v-1.465h-.518v-.333h.518v-.725l.428-.122v.847h.762v.333h-.762v1.417c0 .212.036.363.106.455.074.088.184.132.328.132a.975.975 0 00.18-.015c.053-.015.1-.03.143-.048v.36a.72.72 0 01-.18.047.98.98 0 01-.201.021zm1.971 0c-.254 0-.476-.054-.666-.164a1.128 1.128 0 01-.434-.476 1.65 1.65 0 01-.153-.735c0-.285.051-.531.153-.735.102-.205.247-.361.434-.471.19-.113.412-.169.666-.169.258 0 .48.056.667.169.19.11.337.266.439.471.106.204.158.45.158.735 0 .282-.052.527-.158.735a1.117 1.117 0 01-.44.476 1.29 1.29 0 01-.666.164zm0-.349c.254 0 .455-.086.603-.259.148-.176.222-.432.222-.767 0-.338-.075-.594-.227-.767a.741.741 0 00-.598-.264.74.74 0 00-.597.264c-.148.173-.222.429-.222.767 0 .335.074.591.222.767a.746.746 0 00.597.259zm1.933.302v-2.042c0-.099-.006-.199-.016-.301a8.773 8.773 0 00-.027-.312h.413l.053.581h-.064a.911.911 0 01.37-.465c.173-.109.372-.164.598-.164.314 0 .55.085.709.254.162.166.243.428.243.788v1.661h-.428v-1.635c0-.25-.051-.432-.154-.544-.098-.117-.254-.175-.465-.175-.247 0-.443.076-.587.227-.145.152-.217.355-.217.609v1.518h-.428zm4.278.047c-.416 0-.744-.12-.984-.359-.24-.244-.36-.58-.36-1.011 0-.278.053-.52.16-.724.105-.208.253-.369.444-.482.19-.116.409-.174.656-.174.243 0 .447.051.613.153a.994.994 0 01.38.439c.089.187.133.409.133.667v.158h-2.057v-.269h1.777l-.09.068c0-.282-.064-.502-.19-.661-.127-.158-.316-.238-.566-.238-.265 0-.471.094-.62.281-.147.183-.222.432-.222.745v.048c0 .331.082.584.244.756.165.17.396.254.693.254.158 0 .306-.023.444-.069a1.23 1.23 0 00.402-.238l.148.302a1.193 1.193 0 01-.444.264c-.177.06-.363.09-.56.09zm1.327-.047l1.487-1.989v.164l-1.418-1.904h.519l1.163 1.592h-.137l1.153-1.592h.523l-1.422 1.904v-.164l1.486 1.989h-.519l-1.243-1.688h.17l-1.243 1.688h-.519zm-82.628 7v-3.729h2.327v.36H1.485v1.306h1.771v.36H1.485v1.703h-.44zm2.922 0v-2.655h.428v2.655h-.428zm-.053-3.258v-.482h.529v.482h-.529zm1.313 3.258v-2.042c0-.099-.005-.199-.016-.301a8.477 8.477 0 00-.026-.312h.412l.053.581h-.063a.911.911 0 01.37-.465c.173-.109.372-.164.598-.164.314 0 .55.085.709.254.162.166.243.428.243.788v1.661h-.429v-1.635c0-.25-.05-.432-.153-.544-.099-.117-.254-.175-.465-.175-.247 0-.443.076-.587.227-.145.152-.217.355-.217.609v1.518h-.429zm4.11.047c-.237 0-.443-.054-.62-.164a1.128 1.128 0 01-.412-.476 1.727 1.727 0 01-.143-.735c0-.289.048-.536.143-.74.099-.205.237-.362.413-.471.176-.109.382-.164.619-.164.24 0 .446.062.618.185.177.12.293.284.35.492h-.064l.058-.629h.413l-.032.312c-.007.102-.01.202-.01.301v2.042h-.429v-.624h.058a.838.838 0 01-.349.491c-.176.12-.38.18-.613.18zm.084-.349c.254 0 .455-.086.603-.259.148-.176.222-.432.222-.767 0-.338-.074-.594-.222-.767a.747.747 0 00-.603-.264.756.756 0 00-.603.264c-.148.173-.222.429-.222.767 0 .335.074.591.222.767a.762.762 0 00.603.259zm2.077.302v-2.042c0-.099-.005-.199-.016-.301a8.542 8.542 0 00-.027-.312h.413l.053.581h-.064a.911.911 0 01.37-.465c.174-.109.373-.164.598-.164.314 0 .55.085.71.254.161.166.242.428.242.788v1.661h-.428v-1.635c0-.25-.051-.432-.153-.544-.099-.117-.254-.175-.466-.175-.247 0-.442.076-.587.227-.144.152-.217.355-.217.609v1.518H11.5zm4.215.047c-.26 0-.488-.056-.682-.169a1.152 1.152 0 01-.445-.481 1.664 1.664 0 01-.153-.741c0-.289.053-.534.159-.735.105-.204.254-.36.444-.465a1.39 1.39 0 01.677-.159c.17 0 .333.03.492.09.162.06.296.144.402.254l-.154.307a1.03 1.03 0 00-.349-.228.985.985 0 00-.364-.074c-.276 0-.489.086-.64.259-.152.173-.228.425-.228.757 0 .327.076.581.228.761.151.18.364.27.64.27a1.027 1.027 0 00.713-.296l.154.301c-.11.113-.245.199-.407.259-.163.06-.325.09-.487.09zm1.503-.047v-2.655h.428v2.655h-.428zm-.053-3.258v-.482h.529v.482h-.53zm2.323 3.305c-.236 0-.442-.054-.618-.164a1.129 1.129 0 01-.413-.476 1.727 1.727 0 01-.143-.735c0-.289.048-.536.143-.74.099-.205.236-.362.413-.471.176-.109.382-.164.618-.164.24 0 .446.062.62.185.175.12.292.284.348.492h-.063l.058-.629h.413l-.032.312c-.007.102-.01.202-.01.301v2.042h-.43v-.624h.059a.838.838 0 01-.35.491c-.175.12-.38.18-.613.18zm.085-.349c.254 0 .455-.086.603-.259.148-.176.222-.432.222-.767 0-.338-.074-.594-.222-.767a.747.747 0 00-.603-.264.756.756 0 00-.603.264c-.148.173-.222.429-.222.767 0 .335.074.591.222.767a.762.762 0 00.603.259zm2.077.302v-3.893h.428v3.893h-.428zm2.687 0v-3.729h.439v3.729h-.44zm1.32 0v-2.042c0-.099-.005-.199-.015-.301a8.544 8.544 0 00-.026-.312h.412l.053.581h-.064a.911.911 0 01.37-.465c.174-.109.373-.164.598-.164.314 0 .55.085.71.254.161.166.242.428.242.788v1.661h-.428v-1.635c0-.25-.051-.432-.153-.544-.1-.117-.254-.175-.466-.175-.247 0-.442.076-.587.227-.145.152-.217.355-.217.609v1.518h-.428zm4.216.047c-.261 0-.488-.056-.682-.169a1.152 1.152 0 01-.445-.481 1.664 1.664 0 01-.153-.741c0-.289.053-.534.159-.735.105-.204.253-.36.444-.465a1.39 1.39 0 01.677-.159c.17 0 .333.03.492.09.162.06.296.144.402.254l-.154.307a1.03 1.03 0 00-.349-.228.985.985 0 00-.365-.074c-.275 0-.488.086-.64.259-.151.173-.227.425-.227.757 0 .327.076.581.227.761.152.18.365.27.64.27a1.027 1.027 0 00.714-.296l.154.301c-.11.113-.245.199-.407.259-.163.06-.325.09-.487.09zm1.47-.047v-.54h.54v.54h-.54zm2.25-1.312v-.28h2.67v.28h-2.67zm4.514 1.312v-3.729h2.327v.36h-1.888v1.306h1.772v.36h-1.772v1.703h-.439zm4.506.047c-.374 0-.691-.077-.952-.232a1.55 1.55 0 01-.603-.662c-.137-.285-.206-.625-.206-1.02s.069-.734.206-1.016c.141-.286.342-.506.603-.661.261-.155.578-.233.952-.233.265 0 .5.041.709.122.208.081.39.199.545.354l-.164.349a1.798 1.798 0 00-.503-.322 1.469 1.469 0 00-.582-.106c-.426 0-.75.132-.973.397-.222.264-.333.636-.333 1.116 0 .479.111.853.333 1.121.222.264.547.397.973.397.223 0 .416-.034.582-.101.166-.07.333-.181.503-.333l.164.354c-.155.152-.337.27-.545.355a1.942 1.942 0 01-.709.121zm1.997-.047v-3.729h.381l1.497 3.38h-.153l1.496-3.38h.381v3.729h-.402V168.1h.159l-1.412 3.163h-.291l-1.418-3.163h.159v3.163h-.397zm5.914 0v-3.729h1.238c.413 0 .762.072 1.047.217.286.141.503.351.65.629.149.275.223.614.223 1.016 0 .398-.074.737-.222 1.015-.148.279-.365.49-.65.635-.286.144-.635.217-1.048.217h-1.238zm.44-.376h.766c.508 0 .885-.123 1.132-.37.247-.25.37-.624.37-1.121 0-.501-.123-.875-.37-1.122-.247-.247-.624-.37-1.132-.37h-.767v2.983zm3.464.376v-2.655h.429v2.655h-.429zm-.053-3.258v-.482h.53v.482h-.53zm2.096 3.258l-1.137-2.655h.466l.952 2.337h-.143l.962-2.337h.445l-1.137 2.655h-.408zm2.027 0v-2.655h.429v2.655h-.429zm-.053-3.258v-.482h.53v.482h-.53zm2.197 3.305c-.212 0-.409-.028-.592-.084a1.276 1.276 0 01-.455-.249l.148-.301c.13.102.271.178.423.227.155.049.316.074.481.074.212 0 .37-.037.476-.111a.369.369 0 00.164-.317.303.303 0 00-.105-.244c-.067-.063-.179-.112-.334-.148l-.492-.1c-.225-.05-.395-.132-.507-.249a.637.637 0 01-.17-.455c0-.155.04-.291.122-.407.081-.12.2-.213.354-.28.155-.071.337-.106.545-.106.194 0 .372.03.534.09.166.056.304.139.413.248l-.153.297a1.011 1.011 0 00-.365-.228 1.126 1.126 0 00-.418-.079c-.208 0-.365.042-.471.127a.39.39 0 00-.153.322c0 .103.031.187.095.254.067.064.17.111.307.143l.492.101c.24.053.417.135.534.248.12.11.18.258.18.445a.685.685 0 01-.133.417.836.836 0 01-.37.27 1.438 1.438 0 01-.55.095zm1.74-.047v-2.655h.43v2.655h-.43zm-.052-3.258v-.482h.529v.482h-.53zm2.402 3.305c-.253 0-.475-.054-.666-.164a1.127 1.127 0 01-.434-.476 1.648 1.648 0 01-.153-.735c0-.285.051-.531.153-.735.103-.205.247-.361.434-.471a1.28 1.28 0 01.666-.169c.258 0 .48.056.667.169.19.11.337.266.439.471.106.204.159.45.159.735 0 .282-.053.527-.159.735a1.117 1.117 0 01-.439.476 1.29 1.29 0 01-.666.164zm0-.349c.254 0 .455-.086.604-.259.148-.176.222-.432.222-.767 0-.338-.076-.594-.228-.767a.74.74 0 00-.597-.264c-.25 0-.45.088-.598.264-.148.173-.222.429-.222.767 0 .335.074.591.222.767a.746.746 0 00.597.259zm1.933.302v-2.042c0-.099-.006-.199-.016-.301a8.542 8.542 0 00-.027-.312h.413l.053.581h-.064a.912.912 0 01.37-.465c.173-.109.373-.164.598-.164.314 0 .55.085.709.254.162.166.243.428.243.788v1.661h-.428v-1.635c0-.25-.051-.432-.153-.544-.1-.117-.254-.175-.466-.175-.247 0-.442.076-.587.227-.145.152-.217.355-.217.609v1.518h-.428z" fill="#000"/></svg>