<svg width="55" height="18" viewBox="0 0 55 18" fill="none" xmlns="http://www.w3.org/2000/svg"><rect y=".363" width="55" height="17" rx="8.5" fill="#000"/><path d="M5.32 10.027c.04 1.107.842 1.884 2.213 1.884 1.178 0 1.996-.681 1.996-1.651 0-1.09-.938-1.395-1.852-1.547-.842-.144-1.523-.28-1.523-.954 0-.601.49-.922 1.218-.922.762 0 1.283.425 1.363 1.074h.721c-.064-1.01-.833-1.707-2.083-1.707-1.139 0-1.916.641-1.916 1.595 0 1.09.93 1.387 1.835 1.54.85.143 1.54.288 1.54.985 0 .61-.538.954-1.291.954-.858 0-1.443-.497-1.499-1.25h-.721zm5.302.77c0 .721.28 1.066 1.066 1.066h.713v-.601h-.649c-.353 0-.473-.129-.473-.473V8.376h1.058v-.6H11.28V6.628h-.657v1.146h-.737v.601h.737v2.42zm5.901.465c-.184 0-.264-.056-.264-.273V9.202c0-.954-.601-1.475-1.643-1.475-.986 0-1.636.473-1.732 1.274h.657c.08-.416.465-.689 1.043-.689.64 0 1.017.32 1.017.85v.28H14.4c-1.074 0-1.643.457-1.643 1.275 0 .745.61 1.194 1.507 1.194.705 0 1.114-.313 1.37-.681.009.4.193.633.738.633h.36v-.601h-.208zm-.922-1.066c0 .681-.473 1.154-1.29 1.154-.545 0-.89-.273-.89-.673 0-.465.329-.682.914-.682h1.266v.2zm3.527-2.42c-.729 0-1.041.304-1.234.616l-.088-.617h-.57v4.088h.658V9.779c0-.65.233-1.363 1.09-1.363h.329v-.64h-.185zm1.192 3.02c0 .722.28 1.067 1.066 1.067h.713v-.601h-.649c-.352 0-.473-.129-.473-.473V8.376h1.058v-.6h-1.058V6.628h-.657v1.146h-.737v.601h.737v2.42zm4.751 0c0 .722.28 1.067 1.066 1.067h.714v-.601h-.65c-.352 0-.472-.129-.472-.473V8.376h1.058v-.6h-1.058V6.628h-.658v1.146h-.737v.601h.737v2.42zm4.24-3.02c-.729 0-1.041.304-1.233.616l-.089-.617h-.569v4.088h.657V9.779c0-.65.233-1.363 1.09-1.363h.33v-.64h-.185zm4.229 3.486c-.184 0-.265-.056-.265-.273V9.202c0-.954-.6-1.475-1.643-1.475-.986 0-1.635.473-1.731 1.274h.657c.08-.416.465-.689 1.042-.689.641 0 1.018.32 1.018.85v.28h-1.202c-1.074 0-1.643.457-1.643 1.275 0 .745.609 1.194 1.507 1.194.705 0 1.114-.313 1.37-.681.008.4.193.633.738.633h.36v-.601h-.208zm-.922-1.066c0 .681-.473 1.154-1.29 1.154-.545 0-.89-.273-.89-.673 0-.465.329-.682.914-.682h1.266v.2zm4.81-1.796c-.248-.392-.713-.673-1.402-.673-1.13 0-1.964.842-1.964 2.092 0 1.33.834 2.092 1.964 2.092.69 0 1.13-.329 1.403-.705l.088.657h.569v-5.61h-.657V8.4zm-1.338 2.926c-.81 0-1.354-.617-1.354-1.507 0-.89.545-1.507 1.354-1.507.802 0 1.347.625 1.347 1.523 0 .874-.545 1.49-1.347 1.49zm3.228-4.24c.24 0 .425-.176.425-.425a.413.413 0 00-.425-.425.413.413 0 00-.425.425c0 .249.184.425.425.425zm-.337 4.777h.657V7.775h-.657v4.088zm3.562-4.136c-.69 0-1.106.289-1.347.601l-.088-.553h-.57v4.088h.658V9.819c0-.922.465-1.49 1.235-1.49.713 0 1.106.448 1.106 1.298v2.236h.657V9.587c0-1.355-.73-1.86-1.651-1.86zm5.71.753c-.256-.456-.712-.753-1.402-.753-1.13 0-1.963.842-1.963 2.092 0 1.33.833 2.092 1.963 2.092.69 0 1.13-.288 1.403-.753v.48c0 .89-.465 1.29-1.323 1.29-.68 0-1.138-.288-1.25-.8h-.673c.104.897.833 1.386 1.875 1.386 1.403 0 2.028-.673 2.028-1.851V7.774h-.569l-.088.705zm-1.338 2.846c-.81 0-1.354-.617-1.354-1.507 0-.89.545-1.507 1.354-1.507.802 0 1.347.625 1.347 1.523 0 .874-.545 1.49-1.347 1.49z" fill="#fff"/></svg>