<svg width="183" height="11" viewBox="0 0 183 11" fill="none" xmlns="http://www.w3.org/2000/svg"><path d="M4.048 8.066c1.221 0 2.013-.55 2.387-1.1L6.545 8h.979V3.787H4.18v1.067h2.134v.187c-.066 1.243-1.023 1.914-2.211 1.914-1.474 0-2.398-1.155-2.398-2.805 0-1.65.946-2.805 2.409-2.805 1.067 0 1.804.594 2.035 1.573h1.309C7.227 1.29 5.929.234 4.147.234 1.859.234.407 1.807.407 4.15s1.485 3.916 3.641 3.916zM8.812 8H10V.3H8.812V8zm5.014.066c1.716 0 2.871-1.155 2.871-2.882 0-1.716-1.155-2.882-2.87-2.882-1.717 0-2.872 1.166-2.872 2.882 0 1.727 1.155 2.882 2.871 2.882zm0-1.012c-1 0-1.65-.781-1.65-1.87s.65-1.87 1.65-1.87c1.001 0 1.661.781 1.661 1.87s-.66 1.87-1.66 1.87zm6.84-4.752c-.869 0-1.452.396-1.826.902V.3h-1.188V8h1.034l.143-.814c.352.506.957.88 1.837.88 1.54 0 2.662-1.155 2.662-2.882 0-1.815-1.122-2.882-2.662-2.882zm-.198 4.763c-.99 0-1.639-.781-1.639-1.892 0-1.089.65-1.859 1.64-1.859.99 0 1.65.77 1.65 1.87 0 1.111-.66 1.881-1.65 1.881zm8.96-.099c-.242 0-.363-.077-.363-.363V4.348c0-1.331-.858-2.046-2.354-2.046-1.419 0-2.365.682-2.486 1.782h1.166c.088-.495.561-.825 1.265-.825.781 0 1.232.385 1.232 1.012v.341H26.47c-1.573 0-2.409.649-2.409 1.804 0 1.045.858 1.65 2.09 1.65.913 0 1.485-.396 1.86-.968 0 .561.263.902 1.033.902h.627V6.966h-.242zm-1.54-1.276c-.01.869-.583 1.452-1.573 1.452-.649 0-1.045-.33-1.045-.803 0-.572.407-.847 1.144-.847h1.474v.198zM30.318 8h1.187V.3h-1.188V8zm11.645-5.698c-.924 0-1.562.407-1.925 1.023-.34-.726-1-1.023-1.738-1.023-.847.011-1.33.385-1.65.803l-.132-.737h-1.034V8h1.188V4.986c0-1.001.506-1.661 1.32-1.661.781 0 1.188.517 1.188 1.507V8h1.2V4.953c0-1.012.516-1.628 1.33-1.628.77 0 1.177.517 1.177 1.507V8h1.188V4.755c0-1.782-.946-2.453-2.112-2.453zM50.3 6.966c-.242 0-.363-.077-.363-.363V4.348c0-1.331-.858-2.046-2.354-2.046-1.419 0-2.365.682-2.486 1.782h1.166c.088-.495.561-.825 1.265-.825.781 0 1.232.385 1.232 1.012v.341h-1.419c-1.573 0-2.409.649-2.409 1.804 0 1.045.858 1.65 2.09 1.65.913 0 1.485-.396 1.86-.968 0 .561.263.902 1.033.902h.627V6.966H50.3zM48.76 5.69c-.01.869-.583 1.452-1.573 1.452-.649 0-1.045-.33-1.045-.803 0-.572.407-.847 1.144-.847h1.474v.198zm5.278-3.322c-.924 0-1.375.374-1.66.847l-.133-.847H51.19V8h1.188V5.173c0-.869.341-1.694 1.397-1.694h.528V2.368h-.264zM55.035 8h1.188V6.57l1.012-1.056L58.896 8h1.408L58.05 4.645l2.123-2.277h-1.397l-2.552 2.728V.3h-1.188V8zm8.162.066c1.397 0 2.343-.847 2.541-1.958H64.55c-.165.627-.693.99-1.419.99-.935 0-1.54-.627-1.573-1.584v-.077h4.246c.022-.154.033-.308.033-.451-.033-1.65-1.122-2.684-2.75-2.684-1.66 0-2.772 1.155-2.772 2.893 0 1.727 1.111 2.871 2.882 2.871zm-1.595-3.498c.088-.803.737-1.309 1.496-1.309.825 0 1.408.473 1.507 1.309h-3.003zm5.56 1.903c0 1.023.462 1.529 1.54 1.529h1.1V6.955h-.836c-.451 0-.605-.165-.605-.605V3.413h1.375V2.368H68.36V.795h-1.2v1.573h-.978v1.045h.979v3.058zm3.154-.33c.033 1.221 1.067 1.925 2.574 1.925 1.364 0 2.387-.682 2.387-1.76 0-1.254-1.045-1.518-2.332-1.672-.814-.088-1.353-.154-1.353-.682 0-.451.462-.737 1.166-.737s1.188.363 1.254.88h1.166c-.077-1.155-1.056-1.793-2.442-1.793-1.353-.011-2.31.682-2.31 1.749 0 1.166 1.012 1.441 2.299 1.595.869.11 1.386.154 1.386.759 0 .451-.484.737-1.221.737-.858 0-1.364-.418-1.408-1.001h-1.166zm6.356.44c-.506 0-.836.33-.836.748 0 .473.286.704.65.704a.591.591 0 00.362-.11.627.627 0 01.011.143c0 .385-.275.814-.968.825v.638c1.09-.011 1.771-.616 1.771-1.683 0-.704-.385-1.265-.99-1.265zM81.055 8h5.456V6.933h-3.728l2.046-1.705c.934-.781 1.628-1.496 1.628-2.64 0-1.408-.968-2.354-2.695-2.354-1.64 0-2.695 1.067-2.695 2.53v.198h1.22V2.83c0-.957.594-1.551 1.474-1.551s1.464.484 1.464 1.364c0 .737-.517 1.276-1.21 1.859l-2.96 2.519V8zm5.799-1.782h3.927V8h1.199V6.218h1.166V5.162H91.98V.3h-1.43l-3.696 4.884v1.034zm3.927-4.587v3.531h-2.673l2.673-3.531zm6.836 3.729v-.979h-3.74v.979h3.74zm4.055-3.058c-.88 0-1.419.396-1.771.88V.3h-1.188V8H99.9V5.151c0-1.133.572-1.826 1.507-1.826.88 0 1.353.572 1.353 1.639V8h1.188V4.865c0-1.881-1.023-2.563-2.277-2.563zm5.976 5.764c1.716 0 2.871-1.155 2.871-2.882 0-1.716-1.155-2.882-2.871-2.882s-2.871 1.166-2.871 2.882c0 1.727 1.155 2.882 2.871 2.882zm0-1.012c-1.001 0-1.65-.781-1.65-1.87s.649-1.87 1.65-1.87 1.661.781 1.661 1.87-.66 1.87-1.661 1.87zm7.688-1.87c0 1.166-.55 1.848-1.452 1.848-.869 0-1.309-.561-1.309-1.661V2.368h-1.188v3.135c0 1.925 1.023 2.563 2.222 2.563.869 0 1.386-.352 1.738-.781l.132.715h1.045V2.368h-1.188v2.816zm5.207-2.816c-.924 0-1.375.374-1.661.847l-.132-.847h-1.056V8h1.188V5.173c0-.869.341-1.694 1.397-1.694h.528V2.368h-.264zm6.473 5.698c1.716 0 2.871-1.155 2.871-2.882 0-1.716-1.155-2.882-2.871-2.882s-2.871 1.166-2.871 2.882c0 1.727 1.155 2.882 2.871 2.882zm0-1.012c-1.001 0-1.65-.781-1.65-1.87s.649-1.87 1.65-1.87 1.661.781 1.661 1.87-.66 1.87-1.661 1.87zm6.841-4.752c-.88 0-1.463.407-1.837.902l-.143-.836h-1.034V10.2h1.188V7.208c.352.506.957.858 1.826.858 1.54 0 2.662-1.144 2.662-2.882 0-1.804-1.122-2.882-2.662-2.882zm-.198 4.763c-.99 0-1.639-.781-1.639-1.903 0-1.089.649-1.848 1.639-1.848s1.65.759 1.65 1.87c0 1.1-.66 1.881-1.65 1.881zm6.826-4.763c-.88 0-1.463.407-1.837.902l-.143-.836h-1.034V10.2h1.188V7.208c.352.506.957.858 1.826.858 1.54 0 2.662-1.144 2.662-2.882 0-1.804-1.122-2.882-2.662-2.882zm-.198 4.763c-.99 0-1.639-.781-1.639-1.903 0-1.089.649-1.848 1.639-1.848s1.65.759 1.65 1.87c0 1.1-.66 1.881-1.65 1.881zm6.474 1.001c1.716 0 2.871-1.155 2.871-2.882 0-1.716-1.155-2.882-2.871-2.882s-2.871 1.166-2.871 2.882c0 1.727 1.155 2.882 2.871 2.882zm0-1.012c-1.001 0-1.65-.781-1.65-1.87s.649-1.87 1.65-1.87 1.661.781 1.661 1.87-.66 1.87-1.661 1.87zm6.675-4.686c-.924 0-1.375.374-1.661.847l-.132-.847h-1.056V8h1.188V5.173c0-.869.341-1.694 1.397-1.694h.528V2.368h-.264zm1.608 4.103c0 1.023.462 1.529 1.54 1.529h1.1V6.955h-.836c-.451 0-.605-.165-.605-.605V3.413h1.375V2.368h-1.375V.795h-1.199v1.573h-.979v1.045h.979v3.058zm7.256-1.287c0 1.166-.55 1.848-1.452 1.848-.869 0-1.309-.561-1.309-1.661V2.368h-1.188v3.135c0 1.925 1.023 2.563 2.222 2.563.869 0 1.386-.352 1.738-.781l.132.715h1.045V2.368H162.3v2.816zm5.329-2.882c-.913 0-1.452.363-1.804.803l-.132-.737h-1.034V8h1.188V5.162c0-1.144.561-1.837 1.507-1.837.891 0 1.342.572 1.342 1.639V8h1.199V4.865c0-1.881-1.023-2.563-2.266-2.563zm3.952-.726c.407 0 .726-.297.726-.715s-.319-.715-.726-.715-.726.297-.726.715.319.715.726.715zM170.976 8h1.188V2.368h-1.188V8zm2.759-1.529c0 1.023.462 1.529 1.54 1.529h1.1V6.955h-.836c-.451 0-.605-.165-.605-.605V3.413h1.375V2.368h-1.375V.795h-1.199v1.573h-.979v1.045h.979v3.058zm5.024 1.562l-.22.55c-.176.462-.286.572-.748.572h-.836V10.2h1.276c.825 0 1.067-.407 1.419-1.32l2.552-6.512h-1.265l-1.529 4.279-1.573-4.279h-1.265l2.189 5.665z" fill="#000"/></svg>