<svg width="179" height="10" viewBox="0 0 179 10" fill="none" xmlns="http://www.w3.org/2000/svg"><path d="M.2.5h2.4V7h.54V.5h2.4V0H.2v.5zm9.88 6.03c-.3 0-.45-.1-.45-.49V3.68c0-1.16-.71-1.81-1.98-1.81-1.16 0-1.93.56-2.06 1.48h.51c.13-.62.67-1.03 1.53-1.03.95 0 1.49.5 1.49 1.34v.44H7.4c-1.3 0-2 .56-2 1.51 0 .9.71 1.45 1.79 1.45 1.03 0 1.64-.47 1.95-1.1v.18c-.02.6.23.86.83.86h.3v-.47h-.19zm-.96-1.58c0 .97-.69 1.67-1.89 1.67-.81 0-1.31-.41-1.31-1.04 0-.67.5-1.04 1.44-1.04h1.76v.41zM10.952 7h.51V5.63l1.19-1.22L14.592 7h.62l-2.21-2.96 2.04-2.11h-.63l-2.95 3.04V0h-.51v7zm6.908.06c1.11 0 1.96-.72 2.18-1.74h-.52c-.2.79-.87 1.28-1.7 1.28-1.13 0-1.84-.86-1.86-2.04v-.09h4.14c0-.07.01-.15.01-.21-.05-1.51-.98-2.39-2.34-2.39-1.39 0-2.34 1.06-2.34 2.56 0 1.59.99 2.63 2.43 2.63zM16 4.04c.08-1.03.85-1.72 1.78-1.72.99 0 1.7.61 1.78 1.72H16zm8.193 1.78c0 .81.33 1.18 1.19 1.18h.74v-.47h-.7c-.53 0-.72-.2-.72-.72V2.4h1.37v-.47h-1.37V.51h-.51v1.42h-.96v.47h.96v3.42zm5.046-3.95c-.95 0-1.54.53-1.83 1.26V0h-.51v7h.51V4.5c0-1.32.67-2.16 1.75-2.16.97 0 1.57.64 1.57 1.84V7h.51V4.16c0-1.6-.85-2.29-2-2.29zm5.3 5.19c1.11 0 1.96-.72 2.18-1.74h-.52c-.2.79-.87 1.28-1.7 1.28-1.13 0-1.84-.86-1.86-2.04v-.09h4.14c0-.07.01-.15.01-.21-.05-1.51-.98-2.39-2.34-2.39-1.39 0-2.34 1.06-2.34 2.56 0 1.59.99 2.63 2.43 2.63zm-1.86-3.02c.08-1.03.85-1.72 1.78-1.72.99 0 1.7.61 1.78 1.72h-3.56zm10.154-2.17c-.93 0-1.53.48-1.82 1.14l-.08-1.08h-.44V7h.51V4.5c0-1.32.67-2.16 1.75-2.16.98 0 1.57.64 1.57 1.84V7h.51V4.16c0-1.6-.85-2.29-2-2.29zm5.29 5.19c1.11 0 1.96-.72 2.18-1.74h-.52c-.2.79-.87 1.28-1.7 1.28-1.13 0-1.84-.86-1.86-2.04v-.09h4.14c0-.07.01-.15.01-.21-.05-1.51-.98-2.39-2.34-2.39-1.39 0-2.34 1.06-2.34 2.56 0 1.59.99 2.63 2.43 2.63zm-1.86-3.02c.08-1.03.85-1.72 1.78-1.72.99 0 1.7.61 1.78 1.72h-3.56zM50.666 7h.59l1.68-2.23L54.615 7h.62l-1.97-2.59 1.87-2.48h-.58l-1.6 2.1-1.58-2.1h-.61l1.87 2.48L50.666 7zm5.675-1.18c0 .81.33 1.18 1.19 1.18h.74v-.47h-.7c-.53 0-.72-.2-.72-.72V2.4h1.37v-.47h-1.37V.51h-.51v1.42h-.96v.47h.96v3.42zm5.172-.38c.04 1.05.89 1.62 2.16 1.62 1.09 0 1.97-.55 1.97-1.45 0-1.07-.94-1.28-2.03-1.43-.79-.11-1.49-.2-1.49-.91 0-.58.57-.96 1.43-.96.81 0 1.39.39 1.48 1.05h.52c-.09-.99-.9-1.49-2-1.49-1.13-.01-1.94.57-1.94 1.44 0 1.02.94 1.21 1.98 1.35.85.12 1.54.23 1.54.98 0 .6-.63.98-1.46.98-.97 0-1.6-.45-1.64-1.18h-.52zm5.483.38c0 .81.33 1.18 1.19 1.18h.74v-.47h-.7c-.53 0-.72-.2-.72-.72V2.4h1.37v-.47h-1.37V.51h-.51v1.42h-.96v.47h.96v3.42zm4.79 1.24c1.11 0 1.96-.72 2.18-1.74h-.52c-.2.79-.87 1.28-1.7 1.28-1.13 0-1.84-.86-1.86-2.04v-.09h4.14c0-.07.01-.15.01-.21-.05-1.51-.98-2.39-2.34-2.39-1.39 0-2.34 1.06-2.34 2.56 0 1.59.99 2.63 2.43 2.63zm-1.86-3.02c.08-1.03.85-1.72 1.78-1.72.99 0 1.7.61 1.78 1.72h-3.56zm7.567-2.17c-.95 0-1.61.51-1.93 1.22l-.08-1.16h-.44V9h.51V5.83c.29.74.98 1.23 1.94 1.23 1.39 0 2.39-1.06 2.39-2.6 0-1.59-1-2.59-2.39-2.59zm-.04 4.73c-1.13 0-1.91-.88-1.91-2.15 0-1.24.78-2.13 1.91-2.13s1.91.89 1.91 2.14c0 1.26-.78 2.14-1.91 2.14zM83.848.86c.2 0 .36-.15.36-.36s-.16-.36-.36-.36c-.2 0-.36.15-.36.36s.16.36.36.36zM83.588 7h.51V1.93h-.51V7zm4.05-5.13c-.93 0-1.53.48-1.82 1.14l-.08-1.08h-.44V7h.51V4.5c0-1.32.67-2.16 1.75-2.16.98 0 1.57.64 1.57 1.84V7h.51V4.16c0-1.6-.85-2.29-2-2.29zM94.98 7l-.33.82c-.23.56-.32.71-.84.71h-.64V9h.78c.68 0 .84-.26 1.16-1.06l2.43-6.01h-.55l-1.73 4.41-1.76-4.41h-.55L94.981 7zm5.271.06c1.43 0 2.44-1.06 2.44-2.6 0-1.53-1.01-2.59-2.44-2.59s-2.43 1.06-2.43 2.59c0 1.54 1 2.6 2.43 2.6zm0-.46c-1.13 0-1.91-.88-1.91-2.14 0-1.25.78-2.14 1.91-2.14s1.91.89 1.91 2.14c0 1.26-.78 2.14-1.91 2.14zm7.133-2.18c0 1.33-.66 2.17-1.71 2.17-.94 0-1.52-.64-1.52-1.85V1.93h-.51v2.84c0 1.59.83 2.29 1.95 2.29.9 0 1.49-.48 1.78-1.13l.07 1.07h.45V1.93h-.51v2.49zm3.781-2.49c-.94 0-1.34.45-1.55 1.01l-.08-1.01h-.44V7h.51V4.43c0-1.03.27-2.01 1.46-2.01h.37v-.49h-.27zm4.101 3.89c0 .81.33 1.18 1.19 1.18h.74v-.47h-.7c-.53 0-.72-.2-.72-.72V2.4h1.37v-.47h-1.37V.51h-.51v1.42h-.96v.47h.96v3.42zm4.776-3.89c-.94 0-1.34.45-1.55 1.01l-.08-1.01h-.44V7h.51V4.43c0-1.03.27-2.01 1.46-2.01h.37v-.49h-.27zm5.271 4.6c-.3 0-.45-.1-.45-.49V3.68c0-1.16-.71-1.81-1.98-1.81-1.16 0-1.93.56-2.06 1.48h.51c.13-.62.67-1.03 1.53-1.03.95 0 1.49.5 1.49 1.34v.44h-1.72c-1.3 0-2 .56-2 1.51 0 .9.71 1.45 1.79 1.45 1.03 0 1.64-.47 1.95-1.1v.18c-.02.6.23.86.83.86h.3v-.47h-.19zm-.96-1.58c0 .97-.69 1.67-1.89 1.67-.81 0-1.31-.41-1.31-1.04 0-.67.5-1.04 1.44-1.04h1.76v.41zm5.894-1.88c-.31-.72-.99-1.2-1.94-1.2-1.39 0-2.39 1.06-2.39 2.59 0 1.6 1 2.6 2.39 2.6.95 0 1.61-.51 1.93-1.22l.08 1.16h.44V0h-.51v3.07zm-1.9 3.53c-1.13 0-1.91-.88-1.91-2.14 0-1.25.78-2.14 1.91-2.14s1.91.89 1.91 2.15c0 1.25-.78 2.13-1.91 2.13zm3.869-5.74c.2 0 .36-.15.36-.36s-.16-.36-.36-.36c-.2 0-.36.15-.36.36s.16.36.36.36zm-.26 6.14h.51V1.93h-.51V7zm4.049-5.13c-.93 0-1.53.48-1.82 1.14l-.08-1.08h-.44V7h.51V4.5c0-1.32.67-2.16 1.75-2.16.98 0 1.57.64 1.57 1.84V7h.51V4.16c0-1.6-.85-2.29-2-2.29zm7.259 1.24c-.31-.75-.99-1.24-1.93-1.24-1.39 0-2.39 1.05-2.39 2.59 0 1.6 1 2.6 2.39 2.6.95 0 1.62-.5 1.94-1.29v.9c0 1.35-.64 1.93-1.86 1.93-.95 0-1.61-.43-1.77-1.2h-.53c.16 1.08 1.03 1.66 2.26 1.66 1.64 0 2.41-.78 2.41-2.37V1.93h-.44l-.08 1.18zm-1.89 3.49c-1.13 0-1.91-.88-1.91-2.14 0-1.26.78-2.14 1.91-2.14s1.91.88 1.91 2.15c0 1.25-.78 2.13-1.91 2.13zM147.99.86c.2 0 .36-.15.36-.36s-.16-.36-.36-.36c-.2 0-.36.15-.36.36s.16.36.36.36zM146.44 9h.62c.85 0 1.19-.37 1.19-1.18V1.93h-.51v5.9c0 .5-.19.7-.7.7h-.6V9zm5.248-1.94c1.43 0 2.44-1.06 2.44-2.6 0-1.53-1.01-2.59-2.44-2.59s-2.43 1.06-2.43 2.59c0 1.54 1 2.6 2.43 2.6zm0-.46c-1.13 0-1.91-.88-1.91-2.14 0-1.25.78-2.14 1.91-2.14s1.91.89 1.91 2.14c0 1.26-.78 2.14-1.91 2.14zm7.133-2.18c0 1.33-.66 2.17-1.71 2.17-.94 0-1.52-.64-1.52-1.85V1.93h-.51v2.84c0 1.59.83 2.29 1.95 2.29.9 0 1.49-.48 1.78-1.13l.07 1.07h.45V1.93h-.51v2.49zm3.781-2.49c-.94 0-1.34.45-1.55 1.01l-.08-1.01h-.44V7h.51V4.43c0-1.03.27-2.01 1.46-2.01h.37v-.49h-.27zm3.365-.06c-.93 0-1.53.48-1.82 1.14l-.08-1.08h-.44V7h.51V4.5c0-1.32.67-2.16 1.75-2.16.98 0 1.57.64 1.57 1.84V7h.51V4.16c0-1.6-.85-2.29-2-2.29zm5.291 5.19c1.11 0 1.96-.72 2.18-1.74h-.52c-.2.79-.87 1.28-1.7 1.28-1.13 0-1.84-.86-1.86-2.04v-.09h4.14c0-.07.01-.15.01-.21-.05-1.51-.98-2.39-2.34-2.39-1.39 0-2.34 1.06-2.34 2.56 0 1.59.99 2.63 2.43 2.63zm-1.86-3.02c.08-1.03.85-1.72 1.78-1.72.99 0 1.7.61 1.78 1.72h-3.56zM175.821 7l-.33.82c-.23.56-.32.71-.84.71h-.64V9h.78c.68 0 .84-.26 1.16-1.06l2.43-6.01h-.55l-1.73 4.41-1.76-4.41h-.55l2.03 5.07z" fill="#000"/></svg>