<svg width="104" height="31" viewBox="0 0 104 31" fill="none" xmlns="http://www.w3.org/2000/svg"><rect y=".578" width="104" height="30" rx="15" fill="#000"/><path d="M14.543 17.472c.067 1.872 1.424 3.188 3.744 3.188 1.994 0 3.377-1.153 3.377-2.795 0-1.845-1.587-2.36-3.133-2.618-1.425-.244-2.578-.475-2.578-1.614 0-1.017.828-1.56 2.062-1.56 1.289 0 2.17.719 2.306 1.818h1.221c-.108-1.71-1.41-2.89-3.527-2.89-1.926 0-3.242 1.085-3.242 2.7 0 1.845 1.574 2.346 3.107 2.604 1.438.244 2.604.489 2.604 1.669 0 1.03-.909 1.614-2.184 1.614-1.451 0-2.442-.841-2.537-2.116h-1.22zm8.972 1.302c0 1.221.475 1.804 1.804 1.804h1.207v-1.017h-1.098c-.597 0-.8-.217-.8-.8v-4.084h1.79V13.66h-1.79v-1.94h-1.113v1.94h-1.248v1.017h1.248v4.097zm9.987.787c-.312 0-.447-.095-.447-.461v-3.025c0-1.615-1.018-2.496-2.781-2.496-1.669 0-2.768.8-2.93 2.156h1.112c.136-.705.787-1.166 1.763-1.166 1.086 0 1.723.542 1.723 1.438v.475h-2.035c-1.817 0-2.78.773-2.78 2.156 0 1.262 1.03 2.022 2.55 2.022 1.194 0 1.885-.53 2.32-1.153.013.678.325 1.071 1.248 1.071h.61v-1.017h-.353zm-1.56-1.804c0 1.153-.8 1.953-2.184 1.953-.922 0-1.505-.461-1.505-1.14 0-.786.556-1.152 1.546-1.152h2.143v.339zm5.97-4.097c-1.235 0-1.764.515-2.09 1.044l-.149-1.044h-.963v6.918h1.112v-3.527c0-1.098.394-2.306 1.845-2.306h.556V13.66h-.312zm2.016 5.114c0 1.221.475 1.804 1.805 1.804h1.207v-1.017H41.84c-.597 0-.8-.217-.8-.8v-4.084h1.79V13.66h-1.79v-1.94h-1.113v1.94H38.68v1.017h1.248v4.097zm8.041 0c0 1.221.475 1.804 1.805 1.804h1.207v-1.017h-1.099c-.597 0-.8-.217-.8-.8v-4.084h1.79V13.66h-1.79v-1.94h-1.113v1.94h-1.248v1.017h1.248v4.097zm7.177-5.114c-1.234 0-1.763.515-2.089 1.044l-.15-1.044h-.962v6.918h1.112v-3.527c0-1.098.393-2.306 1.845-2.306h.556V13.66h-.312zm7.156 5.9c-.312 0-.448-.094-.448-.46v-3.025c0-1.615-1.017-2.496-2.78-2.496-1.67 0-2.768.8-2.93 2.156h1.112c.135-.705.786-1.166 1.763-1.166 1.085 0 1.723.542 1.723 1.438v.475h-2.035c-1.818 0-2.78.773-2.78 2.156 0 1.262 1.03 2.022 2.55 2.022 1.193 0 1.885-.53 2.32-1.153.013.678.325 1.071 1.247 1.071h.61v-1.017h-.352zm-1.56-1.803c0 1.153-.8 1.953-2.184 1.953-.923 0-1.506-.461-1.506-1.14 0-.786.556-1.152 1.547-1.152h2.143v.339zm8.141-3.039c-.42-.665-1.207-1.14-2.373-1.14-1.913 0-3.324 1.425-3.324 3.541 0 2.252 1.41 3.54 3.324 3.54 1.166 0 1.912-.555 2.373-1.193l.15 1.112h.963v-9.495h-1.113v3.635zm-2.265 4.951c-1.37 0-2.292-1.044-2.292-2.55 0-1.506.922-2.55 2.292-2.55 1.357 0 2.279 1.058 2.279 2.577 0 1.479-.922 2.523-2.279 2.523zm5.463-7.176a.699.699 0 00.719-.719.699.699 0 00-.72-.718.699.699 0 00-.718.718c0 .421.312.72.719.72zm-.57 8.085h1.112V13.66h-1.112v6.918zm6.028-7c-1.167 0-1.873.489-2.28 1.018l-.149-.936h-.963v6.918h1.113V17.12c0-1.56.786-2.523 2.089-2.523 1.207 0 1.872.76 1.872 2.198v3.784h1.112v-3.852c0-2.293-1.234-3.147-2.794-3.147zm9.665 1.276c-.434-.773-1.207-1.275-2.373-1.275-1.913 0-3.324 1.424-3.324 3.54 0 2.252 1.41 3.54 3.323 3.54 1.167 0 1.913-.488 2.374-1.274v.813c0 1.506-.786 2.184-2.238 2.184-1.153 0-1.926-.488-2.116-1.356h-1.14c.177 1.52 1.411 2.347 3.175 2.347 2.374 0 3.432-1.14 3.432-3.134V13.66h-.963l-.15 1.194zm-2.265 4.815c-1.37 0-2.292-1.044-2.292-2.55 0-1.506.922-2.55 2.292-2.55 1.357 0 2.279 1.058 2.279 2.577 0 1.479-.922 2.523-2.279 2.523z" fill="#fff"/></svg>