<svg width="116" height="65" viewBox="0 0 116 65" fill="none" xmlns="http://www.w3.org/2000/svg"><path d="M.792 10.94c.088 3.08 2.398 5.192 6.226 5.192 3.388 0 5.698-1.914 5.698-4.686.022-3.036-2.464-3.85-5.016-4.312-2.42-.418-4.004-.748-4.004-2.332 0-1.452 1.21-2.2 2.948-2.2 1.87 0 3.102 1.056 3.3 2.618h2.53c-.11-2.838-2.31-4.752-5.83-4.752-3.278 0-5.478 1.826-5.478 4.51 0 3.058 2.42 3.872 4.972 4.312 2.442.44 4.048.792 4.048 2.42 0 1.474-1.32 2.288-3.146 2.288-2.156 0-3.564-1.21-3.696-3.014L.792 10.94zm19.937-6.336c-1.76 0-2.926.814-3.674 1.804l-.286-1.672h-2.068V20.4h2.376v-5.984c.704 1.012 1.914 1.716 3.652 1.716 3.08 0 5.324-2.288 5.324-5.764 0-3.608-2.244-5.764-5.324-5.764zm-.396 9.526c-1.98 0-3.278-1.562-3.278-3.806 0-2.178 1.298-3.696 3.278-3.696s3.3 1.518 3.3 3.74c0 2.2-1.32 3.762-3.3 3.762zm12.97 2.002c2.794 0 4.686-1.694 5.082-3.916h-2.376c-.33 1.254-1.386 1.98-2.838 1.98-1.87 0-3.08-1.254-3.146-3.168v-.154h8.492c.044-.308.066-.616.066-.902-.066-3.3-2.244-5.368-5.5-5.368-3.322 0-5.544 2.31-5.544 5.786 0 3.454 2.222 5.742 5.764 5.742zm-3.19-6.996c.176-1.606 1.474-2.618 2.992-2.618 1.65 0 2.816.946 3.014 2.618h-6.006zm15.737 6.996c2.794 0 4.686-1.694 5.082-3.916h-2.376c-.33 1.254-1.386 1.98-2.838 1.98-1.87 0-3.08-1.254-3.146-3.168v-.154h8.492c.044-.308.066-.616.066-.902-.066-3.3-2.244-5.368-5.5-5.368-3.322 0-5.544 2.31-5.544 5.786 0 3.454 2.222 5.742 5.764 5.742zm-3.19-6.996c.176-1.606 1.474-2.618 2.992-2.618 1.65 0 2.816.946 3.014 2.618H42.66zm18.949-2.838c-.726-.99-1.936-1.694-3.652-1.694-3.058 0-5.324 2.288-5.324 5.764 0 3.608 2.266 5.764 5.324 5.764 1.782 0 2.948-.836 3.674-1.826L61.917 16h2.068V.6h-2.376v5.698zm-3.256 7.832c-1.98 0-3.278-1.54-3.278-3.762 0-2.2 1.298-3.74 3.278-3.74s3.278 1.54 3.278 3.784c0 2.178-1.298 3.718-3.278 3.718zm7.734.506c0 .88.638 1.496 1.518 1.496s1.54-.616 1.54-1.496-.66-1.496-1.54-1.496-1.518.616-1.518 1.496zM1.408 40h10.318v-2.244H3.938V33.29h6.204v-2.178H3.938v-4.268h7.524V24.6H1.408V40zm10.989 0h2.617l2.97-4.092L20.933 40h2.773l-4.246-5.764 4.003-5.5h-2.617l-2.75 3.806-2.684-3.806h-2.772l3.982 5.5L12.396 40zM30.89 28.604c-1.76 0-2.926.814-3.674 1.804l-.286-1.672h-2.068V44.4h2.376v-5.984c.704 1.012 1.914 1.716 3.652 1.716 3.08 0 5.324-2.288 5.324-5.764 0-3.608-2.244-5.764-5.324-5.764zm-.396 9.526c-1.98 0-3.278-1.562-3.278-3.806 0-2.178 1.298-3.696 3.278-3.696s3.3 1.518 3.3 3.74c0 2.2-1.32 3.762-3.3 3.762zm12.97 2.002c2.794 0 4.686-1.694 5.082-3.916h-2.376c-.33 1.254-1.386 1.98-2.838 1.98-1.87 0-3.08-1.254-3.146-3.168v-.154h8.492c.044-.308.066-.616.066-.902-.066-3.3-2.244-5.368-5.5-5.368-3.322 0-5.544 2.31-5.544 5.786 0 3.454 2.222 5.742 5.764 5.742zm-3.19-6.996c.176-1.606 1.474-2.618 2.992-2.618 1.65 0 2.816.946 3.014 2.618h-6.006zm16.089-4.4c-1.848 0-2.75.748-3.322 1.694l-.264-1.694h-2.112V40h2.376v-5.654c0-1.738.682-3.388 2.794-3.388h1.056v-2.222h-.528zm3.203-1.584c.814 0 1.452-.594 1.452-1.43s-.638-1.43-1.452-1.43-1.452.594-1.452 1.43.638 1.43 1.452 1.43zM58.357 40h2.376V28.736h-2.376V40zm10.052.132c2.793 0 4.685-1.694 5.081-3.916h-2.375c-.33 1.254-1.386 1.98-2.838 1.98-1.87 0-3.08-1.254-3.147-3.168v-.154h8.493c.043-.308.066-.616.066-.902-.066-3.3-2.244-5.368-5.5-5.368-3.322 0-5.544 2.31-5.544 5.786 0 3.454 2.221 5.742 5.764 5.742zm-3.19-6.996c.175-1.606 1.474-2.618 2.992-2.618 1.65 0 2.816.946 3.014 2.618h-6.006zm16.33-4.532c-1.826 0-2.904.726-3.608 1.606l-.264-1.474H75.61V40h2.376v-5.676c0-2.288 1.122-3.674 3.014-3.674 1.782 0 2.684 1.144 2.684 3.278V40h2.398v-6.27c0-3.762-2.046-5.126-4.532-5.126zm11.777 11.528c2.882 0 4.796-1.606 5.236-4.158h-2.508c-.286 1.298-1.254 2.134-2.706 2.134-1.914 0-3.168-1.518-3.168-3.718 0-2.222 1.254-3.762 3.168-3.762 1.474 0 2.42.814 2.728 2.134h2.486c-.462-2.552-2.266-4.158-5.17-4.158-3.41 0-5.654 2.31-5.654 5.786 0 3.52 2.178 5.742 5.588 5.742zm12.401 0c2.794 0 4.686-1.694 5.082-3.916h-2.376c-.33 1.254-1.386 1.98-2.838 1.98-1.87 0-3.08-1.254-3.146-3.168v-.154h8.492c.044-.308.066-.616.066-.902-.066-3.3-2.244-5.368-5.5-5.368-3.322 0-5.544 2.31-5.544 5.786 0 3.454 2.222 5.742 5.764 5.742zm-3.19-6.996c.176-1.606 1.474-2.618 2.992-2.618 1.65 0 2.816.946 3.014 2.618h-6.006zm9.483 5.5c0 .88.638 1.496 1.518 1.496s1.54-.616 1.54-1.496-.66-1.496-1.54-1.496-1.518.616-1.518 1.496zM1.408 64h10.318v-2.244H3.938V57.29h6.204v-2.178H3.938v-4.268h7.524V48.6H1.408V64zm10.989 0h2.617l2.97-4.092L20.933 64h2.773l-4.246-5.764 4.003-5.5h-2.617l-2.75 3.806-2.684-3.806h-2.772l3.982 5.5L12.396 64zm17.297.132c2.794 0 4.686-1.694 5.082-3.916H32.4c-.33 1.254-1.386 1.98-2.838 1.98-1.87 0-3.08-1.254-3.146-3.168v-.154h8.492c.044-.308.066-.616.066-.902-.066-3.3-2.244-5.368-5.5-5.368-3.322 0-5.544 2.31-5.544 5.786 0 3.454 2.222 5.742 5.764 5.742zm-3.19-6.996c.176-1.606 1.474-2.618 2.992-2.618 1.65 0 2.816.946 3.014 2.618h-6.006zm15.56 6.996c2.883 0 4.797-1.606 5.236-4.158h-2.508c-.285 1.298-1.254 2.134-2.706 2.134-1.913 0-3.167-1.518-3.167-3.718 0-2.222 1.254-3.762 3.168-3.762 1.473 0 2.42.814 2.727 2.134H47.3c-.461-2.552-2.265-4.158-5.17-4.158-3.41 0-5.654 2.31-5.654 5.786 0 3.52 2.178 5.742 5.589 5.742zm14.777-5.764c0 2.332-1.1 3.696-2.904 3.696-1.738 0-2.618-1.122-2.618-3.322v-6.006h-2.376v6.27c0 3.85 2.046 5.126 4.444 5.126 1.738 0 2.772-.704 3.476-1.562l.264 1.43h2.09V52.736h-2.376v5.632zm5.596 2.574c0 2.046.924 3.058 3.08 3.058h2.2v-2.09h-1.672c-.902 0-1.21-.33-1.21-1.21v-5.874h2.75v-2.09h-2.75V49.59h-2.398v3.146h-1.958v2.09h1.958v6.116zm8.002-9.79c.814 0 1.452-.594 1.452-1.43s-.639-1.43-1.453-1.43c-.814 0-1.451.594-1.451 1.43s.638 1.43 1.452 1.43zM69.229 64h2.376V52.736h-2.377V64zm10.029.132c3.432 0 5.742-2.31 5.742-5.764 0-3.432-2.31-5.764-5.742-5.764s-5.742 2.332-5.742 5.764c0 3.454 2.31 5.764 5.742 5.764zm0-2.024c-2.002 0-3.3-1.562-3.3-3.74s1.298-3.74 3.3-3.74 3.322 1.562 3.322 3.74-1.32 3.74-3.322 3.74zm13.592-9.504c-1.826 0-2.904.726-3.608 1.606l-.264-1.474H86.91V64h2.376v-5.676c0-2.288 1.122-3.674 3.014-3.674 1.782 0 2.684 1.144 2.684 3.278V64h2.398v-6.27c0-3.762-2.046-5.126-4.532-5.126zm6.473 10.032c0 .88.638 1.496 1.518 1.496s1.54-.616 1.54-1.496-.66-1.496-1.54-1.496-1.518.616-1.518 1.496z" fill="#000"/></svg>