<svg width="311" height="19" viewBox="0 0 311 19" fill="none" xmlns="http://www.w3.org/2000/svg"><path d="M3.99 14.5h2.565l2.679-9.785 2.717 9.785h2.546l3.819-13.3h-2.242l-2.85 10.526L10.336 1.2H8.265L5.301 11.726 2.47 1.181.209 1.2 3.99 14.5zM20.551 3.404c.703 0 1.254-.513 1.254-1.235 0-.722-.551-1.235-1.254-1.235s-1.254.513-1.254 1.235c0 .722.551 1.235 1.254 1.235zM19.506 14.5h2.052V4.772h-2.052V14.5zm4.064 0h2.052V1.2H23.57v13.3zm4.063 0h2.052V1.2h-2.052v13.3zm14.91.114c3.097 0 5.358-1.824 5.776-4.636h-2.261c-.418 1.691-1.691 2.717-3.534 2.717-2.508 0-4.028-2.014-4.028-4.845 0-2.85 1.558-4.845 4.085-4.845 1.805 0 3.059 1.045 3.496 2.717h2.26c-.436-2.812-2.621-4.636-5.661-4.636-3.933 0-6.422 2.717-6.422 6.764 0 4.085 2.413 6.764 6.289 6.764zm12.485-9.956c-1.52 0-2.45.684-3.059 1.52V1.2h-2.052v13.3h2.052V9.579c0-1.957.988-3.154 2.603-3.154 1.52 0 2.337.988 2.337 2.831V14.5h2.052V9.085c0-3.249-1.767-4.427-3.933-4.427zm6.844-1.254c.703 0 1.254-.513 1.254-1.235 0-.722-.55-1.235-1.254-1.235-.703 0-1.254.513-1.254 1.235 0 .722.551 1.235 1.254 1.235zM60.827 14.5h2.052V4.772h-2.052V14.5zm9.194-9.842c-1.577 0-2.508.627-3.116 1.387l-.228-1.273H64.89V14.5h2.052V9.598c0-1.976.969-3.173 2.603-3.173 1.539 0 2.318.988 2.318 2.831V14.5h2.07V9.085c0-3.249-1.766-4.427-3.913-4.427zm14.672 8.056c-.418 0-.627-.133-.627-.627V8.192c0-2.299-1.482-3.534-4.066-3.534-2.451 0-4.085 1.178-4.294 3.078h2.014c.152-.855.969-1.425 2.185-1.425 1.349 0 2.128.665 2.128 1.748v.589h-2.451c-2.717 0-4.161 1.121-4.161 3.116 0 1.805 1.482 2.85 3.61 2.85 1.577 0 2.565-.684 3.21-1.672 0 .969.457 1.558 1.787 1.558h1.083v-1.786h-.418zm-2.66-2.204c-.02 1.501-1.007 2.508-2.717 2.508-1.121 0-1.805-.57-1.805-1.387 0-.988.703-1.463 1.976-1.463h2.546v.342zm4.682-9.424c-.874 0-1.444.57-1.444 1.292 0 .798.494 1.216 1.12 1.216.229 0 .457-.076.628-.209.019.095.019.171.019.266 0 .665-.475 1.406-1.672 1.406v1.121c1.88-.019 3.059-1.064 3.059-2.907 0-1.235-.665-2.185-1.71-2.185zm2.565 10.203c.057 2.109 1.843 3.325 4.446 3.325 2.356 0 4.123-1.178 4.123-3.04 0-2.166-1.805-2.622-4.028-2.888-1.406-.152-2.337-.266-2.337-1.178 0-.779.798-1.273 2.014-1.273 1.216 0 2.052.627 2.166 1.52h2.014c-.133-1.995-1.824-3.097-4.218-3.097-2.337-.019-3.99 1.178-3.99 3.021 0 2.014 1.748 2.489 3.971 2.755 1.501.19 2.394.266 2.394 1.311 0 .779-.836 1.273-2.109 1.273-1.482 0-2.356-.722-2.432-1.729H89.28zm19.942-6.517c-1.596 0-2.375.646-2.869 1.463l-.228-1.463h-1.824V14.5h2.052V9.617c0-1.501.589-2.926 2.413-2.926h.912V4.772h-.456zm5.875 9.842c2.413 0 4.047-1.463 4.389-3.382h-2.052c-.285 1.083-1.197 1.71-2.451 1.71-1.615 0-2.66-1.083-2.717-2.736v-.133h7.334c.038-.266.057-.532.057-.779-.057-2.85-1.938-4.636-4.75-4.636-2.869 0-4.788 1.995-4.788 4.997 0 2.983 1.919 4.959 4.978 4.959zm-2.755-6.042c.152-1.387 1.273-2.261 2.584-2.261 1.425 0 2.432.817 2.603 2.261h-5.187zm13.572 6.042c2.964 0 4.959-1.995 4.959-4.978 0-2.964-1.995-4.978-4.959-4.978-2.964 0-4.959 2.014-4.959 4.978 0 2.983 1.995 4.978 4.959 4.978zm0-1.748c-1.729 0-2.85-1.349-2.85-3.23s1.121-3.23 2.85-3.23 2.869 1.349 2.869 3.23-1.14 3.23-2.869 3.23zm11.815-8.208c-1.52 0-2.527.703-3.173 1.558l-.247-1.444h-1.786V18.3h2.052v-5.168c.608.874 1.653 1.482 3.154 1.482 2.66 0 4.598-1.976 4.598-4.978 0-3.116-1.938-4.978-4.598-4.978zm-.342 8.227c-1.71 0-2.831-1.349-2.831-3.287 0-1.881 1.121-3.192 2.831-3.192s2.85 1.311 2.85 3.23c0 1.9-1.14 3.249-2.85 3.249zm11.201 1.729c2.413 0 4.047-1.463 4.389-3.382h-2.052c-.285 1.083-1.197 1.71-2.451 1.71-1.615 0-2.66-1.083-2.717-2.736v-.133h7.334c.038-.266.057-.532.057-.779-.057-2.85-1.938-4.636-4.75-4.636-2.869 0-4.788 1.995-4.788 4.997 0 2.983 1.919 4.959 4.978 4.959zm-2.755-6.042c.152-1.387 1.273-2.261 2.584-2.261 1.425 0 2.432.817 2.603 2.261h-5.187zm14.104-3.914c-1.577 0-2.508.627-3.116 1.387l-.228-1.273h-1.786V14.5h2.052V9.598c0-1.976.969-3.173 2.603-3.173 1.539 0 2.318.988 2.318 2.831V14.5h2.071V9.085c0-3.249-1.767-4.427-3.914-4.427zm6.825-1.254c.703 0 1.254-.513 1.254-1.235 0-.722-.551-1.235-1.254-1.235s-1.254.513-1.254 1.235c0 .722.551 1.235 1.254 1.235zM165.717 14.5h2.052V4.772h-2.052V14.5zm9.193-9.842c-1.577 0-2.508.627-3.116 1.387l-.228-1.273h-1.786V14.5h2.052V9.598c0-1.976.969-3.173 2.603-3.173 1.539 0 2.318.988 2.318 2.831V14.5h2.071V9.085c0-3.249-1.767-4.427-3.914-4.427zm13.21 1.634c-.627-.969-1.672-1.634-3.192-1.634-2.641 0-4.598 1.957-4.598 4.94 0 3.097 1.957 4.94 4.598 4.94 1.52 0 2.527-.627 3.173-1.596v1.083c0 1.862-1.007 2.717-2.793 2.717-1.444 0-2.394-.627-2.641-1.71h-2.09c.19 2.185 1.995 3.382 4.579 3.382 3.496 0 4.978-1.672 4.978-4.313V4.772h-1.786l-.228 1.52zm-2.85 6.517c-1.71 0-2.831-1.311-2.831-3.211 0-1.881 1.121-3.211 2.831-3.211s2.831 1.33 2.831 3.249c0 1.862-1.121 3.173-2.831 3.173zm16.936-8.151c-1.501 0-2.508.684-3.154 1.558V1.2H197v13.3h1.786l.247-1.406c.608.874 1.653 1.52 3.173 1.52 2.66 0 4.598-1.995 4.598-4.978 0-3.135-1.938-4.978-4.598-4.978zm-.342 8.227c-1.71 0-2.831-1.349-2.831-3.268 0-1.881 1.121-3.211 2.831-3.211s2.85 1.33 2.85 3.23c0 1.919-1.14 3.249-2.85 3.249zm11.182 1.729c2.964 0 4.959-1.995 4.959-4.978 0-2.964-1.995-4.978-4.959-4.978-2.964 0-4.959 2.014-4.959 4.978 0 2.983 1.995 4.978 4.959 4.978zm0-1.748c-1.729 0-2.85-1.349-2.85-3.23s1.121-3.23 2.85-3.23 2.869 1.349 2.869 3.23-1.14 3.23-2.869 3.23zm11.207 1.748c2.964 0 4.959-1.995 4.959-4.978 0-2.964-1.995-4.978-4.959-4.978-2.964 0-4.959 2.014-4.959 4.978 0 2.983 1.995 4.978 4.959 4.978zm0-1.748c-1.729 0-2.85-1.349-2.85-3.23s1.121-3.23 2.85-3.23 2.869 1.349 2.869 3.23-1.14 3.23-2.869 3.23zm6.136-1.577c.057 2.109 1.843 3.325 4.446 3.325 2.356 0 4.123-1.178 4.123-3.04 0-2.166-1.805-2.622-4.028-2.888-1.406-.152-2.337-.266-2.337-1.178 0-.779.798-1.273 2.014-1.273 1.216 0 2.052.627 2.166 1.52h2.014c-.133-1.995-1.824-3.097-4.218-3.097-2.337-.019-3.99 1.178-3.99 3.021 0 2.014 1.748 2.489 3.971 2.755 1.501.19 2.394.266 2.394 1.311 0 .779-.836 1.273-2.109 1.273-1.482 0-2.356-.722-2.432-1.729h-2.014zm10.862.57c0 1.767.798 2.641 2.66 2.641h1.9v-1.805h-1.444c-.779 0-1.045-.285-1.045-1.045V6.577h2.375V4.772h-2.375V2.055h-2.071v2.717h-1.691v1.805h1.691v5.282zm12.133 2.641l1.235-3.287h5.453l1.254 3.287h2.337l-4.959-13.3h-2.603l-4.978 13.3h2.261zm3.952-10.944l2.128 5.795h-4.237l2.109-5.795zm12.688 1.102c-1.52 0-2.527.703-3.173 1.558l-.247-1.444h-1.786V18.3h2.052v-5.168c.608.874 1.653 1.482 3.154 1.482 2.66 0 4.598-1.976 4.598-4.978 0-3.116-1.938-4.978-4.598-4.978zm-.342 8.227c-1.71 0-2.831-1.349-2.831-3.287 0-1.881 1.121-3.192 2.831-3.192s2.85 1.311 2.85 3.23c0 1.9-1.14 3.249-2.85 3.249zm11.79-8.227c-1.52 0-2.527.703-3.173 1.558l-.247-1.444h-1.786V18.3h2.052v-5.168c.608.874 1.653 1.482 3.154 1.482 2.66 0 4.598-1.976 4.598-4.978 0-3.116-1.938-4.978-4.598-4.978zm-.342 8.227c-1.71 0-2.831-1.349-2.831-3.287 0-1.881 1.121-3.192 2.831-3.192s2.85 1.311 2.85 3.23c0 1.9-1.14 3.249-2.85 3.249zm6.584 1.615h2.052V1.2h-2.052v13.3zm8.681.114c2.413 0 4.047-1.463 4.389-3.382h-2.052c-.285 1.083-1.197 1.71-2.451 1.71-1.615 0-2.66-1.083-2.717-2.736v-.133h7.334c.038-.266.057-.532.057-.779-.057-2.85-1.938-4.636-4.75-4.636-2.869 0-4.788 1.995-4.788 4.997 0 2.983 1.919 4.959 4.978 4.959zm-2.755-6.042c.152-1.387 1.273-2.261 2.584-2.261 1.425 0 2.432.817 2.603 2.261h-5.187zm9.995-3.021c0-1.577.95-2.641 2.413-2.641 1.273 0 2.128.76 2.128 1.843 0 .912-.494 1.52-1.349 2.09-1.14.741-2.033 1.368-2.033 2.907v.608h1.938v-.38c0-.95.646-1.444 1.672-2.147.988-.703 1.9-1.539 1.9-3.287 0-1.995-1.634-3.458-4.275-3.458-2.831 0-4.484 1.995-4.484 4.465h2.09zm.874 7.79c0 .76.57 1.273 1.311 1.273s1.292-.513 1.292-1.273c0-.76-.551-1.273-1.292-1.273s-1.311.513-1.311 1.273z" fill="#000"/></svg>