<svg width="365" height="20" viewBox="0 0 365 20" fill="none" xmlns="http://www.w3.org/2000/svg"><path d="M.512 15h1.134V.3H.512V15zM9.337 4.227c-1.953 0-3.213 1.008-3.822 2.394l-.168-2.268h-.924V15h1.071V9.75c0-2.772 1.407-4.536 3.675-4.536 2.058 0 3.297 1.344 3.297 3.864V15h1.071V9.036c0-3.36-1.785-4.809-4.2-4.809zM18.646 15h1.28l4.159-10.647h-1.113l-3.654 9.408-3.675-9.408h-1.155L18.646 15zm11.153.126c2.331 0 4.116-1.512 4.578-3.654h-1.092c-.42 1.659-1.827 2.688-3.57 2.688-2.373 0-3.864-1.806-3.906-4.284v-.189h8.694c0-.147.021-.315.021-.441-.105-3.171-2.058-5.019-4.914-5.019-2.919 0-4.914 2.226-4.914 5.376 0 3.339 2.079 5.523 5.103 5.523zm-3.906-6.342c.168-2.163 1.785-3.612 3.738-3.612 2.079 0 3.57 1.281 3.738 3.612h-7.476zm10.244 2.94c.084 2.205 1.87 3.402 4.536 3.402 2.29 0 4.137-1.155 4.137-3.045 0-2.247-1.974-2.688-4.263-3.003-1.659-.231-3.129-.42-3.129-1.911 0-1.218 1.197-2.016 3.003-2.016 1.701 0 2.92.819 3.108 2.205h1.092c-.189-2.079-1.89-3.129-4.2-3.129-2.373-.021-4.074 1.197-4.074 3.024 0 2.142 1.974 2.541 4.158 2.835 1.785.252 3.234.483 3.234 2.058 0 1.26-1.323 2.058-3.066 2.058-2.037 0-3.36-.945-3.444-2.478h-1.092zm11.515.798c0 1.701.693 2.478 2.499 2.478h1.554v-.987h-1.47c-1.113 0-1.512-.42-1.512-1.512V5.34H51.6v-.987h-2.877V1.371h-1.071v2.982h-2.016v.987h2.016v7.182zM53.88 2.106a.74.74 0 00.756-.756.74.74 0 00-.756-.756.74.74 0 00-.756.756.74.74 0 00.756.756zM53.334 15h1.071V4.353h-1.07V15zm8.503-10.773c-1.953 0-3.213 1.008-3.822 2.394l-.168-2.268h-.924V15h1.071V9.75c0-2.772 1.407-4.536 3.675-4.536 2.058 0 3.297 1.344 3.297 3.864V15h1.071V9.036c0-3.36-1.785-4.809-4.2-4.809zM77.08 6.831c-.65-1.575-2.079-2.604-4.052-2.604-2.92 0-5.02 2.205-5.02 5.439 0 3.36 2.1 5.46 5.02 5.46 1.994 0 3.401-1.05 4.073-2.709v1.89c0 2.835-1.344 4.053-3.906 4.053-1.994 0-3.38-.903-3.716-2.52h-1.114c.337 2.268 2.163 3.486 4.747 3.486 3.444 0 5.06-1.638 5.06-4.977V4.353h-.923l-.168 2.478zm-3.968 7.329c-2.373 0-4.011-1.848-4.011-4.494s1.638-4.494 4.01-4.494c2.373 0 4.011 1.848 4.011 4.515 0 2.625-1.638 4.473-4.01 4.473zM86.898 2.106a.74.74 0 00.756-.756.74.74 0 00-.756-.756.74.74 0 00-.756.756.74.74 0 00.756.756zM86.352 15h1.07V4.353h-1.07V15zm8.503-10.773c-1.953 0-3.213 1.008-3.822 2.394l-.168-2.268h-.924V15h1.07V9.75c0-2.772 1.408-4.536 3.676-4.536 2.058 0 3.297 1.344 3.297 3.864V15h1.07V9.036c0-3.36-1.784-4.809-4.2-4.809zM110.277 15l-.693 1.722c-.483 1.176-.672 1.491-1.764 1.491h-1.344v.987h1.638c1.428 0 1.764-.546 2.436-2.226l5.103-12.621h-1.155l-3.633 9.261-3.696-9.261h-1.155L110.277 15zm11.069.126c3.003 0 5.124-2.226 5.124-5.46 0-3.213-2.121-5.439-5.124-5.439-3.003 0-5.103 2.226-5.103 5.439 0 3.234 2.1 5.46 5.103 5.46zm0-.966c-2.373 0-4.011-1.848-4.011-4.494 0-2.625 1.638-4.494 4.011-4.494s4.011 1.869 4.011 4.494c0 2.646-1.638 4.494-4.011 4.494zm14.98-4.578c0 2.793-1.386 4.557-3.591 4.557-1.974 0-3.192-1.344-3.192-3.885V4.353h-1.071v5.964c0 3.339 1.743 4.809 4.095 4.809 1.89 0 3.129-1.008 3.738-2.373l.147 2.247h.945V4.353h-1.071v5.229zm7.939-5.229c-1.974 0-2.814.945-3.255 2.121l-.168-2.121h-.924V15h1.071V9.603c0-2.163.567-4.221 3.066-4.221h.777V4.353h-.567zm7.331 7.371c.084 2.205 1.869 3.402 4.536 3.402 2.289 0 4.137-1.155 4.137-3.045 0-2.247-1.974-2.688-4.263-3.003-1.659-.231-3.129-.42-3.129-1.911 0-1.218 1.197-2.016 3.003-2.016 1.701 0 2.919.819 3.108 2.205h1.092c-.189-2.079-1.89-3.129-4.2-3.129-2.373-.021-4.074 1.197-4.074 3.024 0 2.142 1.974 2.541 4.158 2.835 1.785.252 3.234.483 3.234 2.058 0 1.26-1.323 2.058-3.066 2.058-2.037 0-3.36-.945-3.444-2.478h-1.092zm18.445-2.142c0 2.793-1.386 4.557-3.591 4.557-1.974 0-3.192-1.344-3.192-3.885V4.353h-1.071v5.964c0 3.339 1.743 4.809 4.095 4.809 1.89 0 3.129-1.008 3.738-2.373l.147 2.247h.945V4.353h-1.071v5.229zm8.233 5.544c2.415 0 4.116-1.386 4.536-3.549h-1.134c-.357 1.575-1.638 2.583-3.402 2.583-2.331 0-3.948-1.827-3.948-4.473s1.596-4.515 3.948-4.515c1.785 0 3.045 1.008 3.423 2.604h1.113c-.441-2.205-2.1-3.549-4.515-3.549-3.003 0-5.061 2.226-5.061 5.46 0 3.276 2.037 5.439 5.04 5.439zm11.259 0c2.415 0 4.116-1.386 4.536-3.549h-1.134c-.357 1.575-1.638 2.583-3.402 2.583-2.331 0-3.948-1.827-3.948-4.473s1.596-4.515 3.948-4.515c1.785 0 3.045 1.008 3.423 2.604h1.113c-.441-2.205-2.1-3.549-4.515-3.549-3.003 0-5.061 2.226-5.061 5.46 0 3.276 2.037 5.439 5.04 5.439zm11.322 0c2.331 0 4.116-1.512 4.578-3.654h-1.092c-.42 1.659-1.827 2.688-3.57 2.688-2.373 0-3.864-1.806-3.906-4.284v-.189h8.694c0-.147.021-.315.021-.441-.105-3.171-2.058-5.019-4.914-5.019-2.919 0-4.914 2.226-4.914 5.376 0 3.339 2.079 5.523 5.103 5.523zm-3.906-6.342c.168-2.163 1.785-3.612 3.738-3.612 2.079 0 3.57 1.281 3.738 3.612h-7.476zm10.244 2.94c.084 2.205 1.869 3.402 4.536 3.402 2.289 0 4.137-1.155 4.137-3.045 0-2.247-1.974-2.688-4.263-3.003-1.659-.231-3.129-.42-3.129-1.911 0-1.218 1.197-2.016 3.003-2.016 1.701 0 2.919.819 3.108 2.205h1.092c-.189-2.079-1.89-3.129-4.2-3.129-2.373-.021-4.074 1.197-4.074 3.024 0 2.142 1.974 2.541 4.158 2.835 1.785.252 3.234.483 3.234 2.058 0 1.26-1.323 2.058-3.066 2.058-2.037 0-3.36-.945-3.444-2.478h-1.092zm10.028 0c.084 2.205 1.869 3.402 4.536 3.402 2.289 0 4.137-1.155 4.137-3.045 0-2.247-1.974-2.688-4.263-3.003-1.659-.231-3.129-.42-3.129-1.911 0-1.218 1.197-2.016 3.003-2.016 1.701 0 2.919.819 3.108 2.205h1.092c-.189-2.079-1.89-3.129-4.2-3.129-2.373-.021-4.074 1.197-4.074 3.024 0 2.142 1.974 2.541 4.158 2.835 1.785.252 3.234.483 3.234 2.058 0 1.26-1.323 2.058-3.066 2.058-2.037 0-3.36-.945-3.444-2.478h-1.092zM236.181 15h1.155l3.15-8.946L243.489 15h1.155l3.78-10.647h-1.092l-3.276 9.366-3.045-9.366h-.987l-3.213 9.366-3.108-9.366h-1.134L236.181 15zm14.287-12.894a.74.74 0 00.756-.756.74.74 0 00-.756-.756.74.74 0 00-.756.756.74.74 0 00.756.756zM249.922 15h1.071V4.353h-1.071V15zm4.387-2.478c0 1.701.693 2.478 2.499 2.478h1.554v-.987h-1.47c-1.113 0-1.512-.42-1.512-1.512V5.34h2.877v-.987h-2.877V1.371h-1.071v2.982h-2.016v.987h2.016v7.182zm10.596-8.295c-1.995 0-3.234 1.113-3.843 2.646V.3h-1.071V15h1.071V9.75c0-2.772 1.407-4.536 3.675-4.536 2.037 0 3.297 1.344 3.297 3.864V15h1.071V9.036c0-3.36-1.785-4.809-4.2-4.809zm18.719 10.899c3.15 0 5.376-1.701 6.006-4.662h-1.197c-.63 2.352-2.331 3.612-4.83 3.612-3.402 0-5.544-2.667-5.544-6.426 0-3.759 2.184-6.426 5.586-6.426 2.457 0 4.179 1.281 4.83 3.591h1.197c-.651-2.94-2.877-4.641-5.964-4.641-4.137 0-6.825 3.066-6.825 7.476 0 4.452 2.625 7.476 6.741 7.476zm8.742-13.02a.74.74 0 00.756-.756.74.74 0 00-.756-.756.74.74 0 00-.756.756.74.74 0 00.756.756zM291.82 15h1.071V4.353h-1.071V15zm4.386-2.478c0 1.701.693 2.478 2.499 2.478h1.554v-.987h-1.47c-1.113 0-1.512-.42-1.512-1.512V5.34h2.877v-.987h-2.877V1.371h-1.071v2.982h-2.016v.987h2.016v7.182zM305.081 15l-.693 1.722c-.483 1.176-.672 1.491-1.764 1.491h-1.344v.987h1.638c1.428 0 1.764-.546 2.436-2.226l5.103-12.621h-1.155l-3.633 9.261-3.696-9.261h-1.155L305.081 15zm12.728 0h1.134V.3h-1.134V15zm8.825-10.773c-1.953 0-3.213 1.008-3.822 2.394l-.168-2.268h-.924V15h1.071V9.75c0-2.772 1.407-4.536 3.675-4.536 2.058 0 3.297 1.344 3.297 3.864V15h1.071V9.036c0-3.36-1.785-4.809-4.2-4.809zm15.1 2.52c-.651-1.512-2.079-2.52-4.074-2.52-2.919 0-5.019 2.226-5.019 5.439 0 3.36 2.1 5.46 5.019 5.46 1.995 0 3.381-1.071 4.053-2.562l.168 2.436h.924V.3h-1.071v6.447zm-3.99 7.413c-2.373 0-4.011-1.848-4.011-4.494 0-2.625 1.638-4.494 4.011-4.494s4.011 1.869 4.011 4.515c0 2.625-1.638 4.473-4.011 4.473zm12.284.966c2.331 0 4.116-1.512 4.578-3.654h-1.092c-.42 1.659-1.827 2.688-3.57 2.688-2.373 0-3.864-1.806-3.906-4.284v-.189h8.694c0-.147.021-.315.021-.441-.105-3.171-2.058-5.019-4.914-5.019-2.919 0-4.914 2.226-4.914 5.376 0 3.339 2.079 5.523 5.103 5.523zm-3.906-6.342c.168-2.163 1.785-3.612 3.738-3.612 2.079 0 3.57 1.281 3.738 3.612h-7.476zM355.367 15h1.239l3.528-4.683L363.662 15h1.302l-4.137-5.439 3.927-5.208h-1.218l-3.36 4.41-3.318-4.41h-1.281l3.927 5.208L355.367 15z" fill="#000"/></svg>