<svg width="68" height="22" viewBox="0 0 68 22" fill="none" xmlns="http://www.w3.org/2000/svg"><g clip-path="url(#clip0_109_118)"><path fill="#fff" d="M0 0h68v22H0z"/><path d="M4.489 14.954c-1.808 0-3.006-.308-3.9-.697l-.528-3.114h.386l.386.738c.914 1.761 2.03 2.54 3.818 2.54 2.052 0 3.21-1.024 3.21-2.704 0-1.495-.854-2.253-3.291-3.114C1.808 7.641.427 6.575.427 4.18.427 1.74 2.6 0 5.3 0c1.686 0 2.66.225 3.595.615l.508 3.236h-.406l-.366-.758C7.8 1.332 6.743.533 5.14.533c-1.686 0-2.681 1.024-2.681 2.478 0 1.516.812 2.192 3.127 2.99 3.047 1.025 4.327 2.193 4.327 4.569.02 2.601-2.478 4.383-5.423 4.383zM17.244 13.684c-.853.737-1.727 1.229-2.823 1.229-1.625 0-2.478-.738-2.478-2.5v-6.8H10.44v-.39l1.604-.614 1.585-3.196h.65v3.278H17v.922h-2.722v6.76c0 1.003.488 1.495 1.28 1.495.548 0 .914-.144 1.422-.512l.264.328zM22.951 14.995c-2.945 0-5.118-1.885-5.118-5.388 0-2.97 2.112-5.244 5.138-5.244 2.925 0 5.119 1.885 5.119 5.388-.02 2.97-2.153 5.244-5.139 5.244zm-.284-10.1c-1.442 0-2.255 1.107-2.255 4.118 0 3.298 1.056 5.449 2.803 5.449 1.462 0 2.255-1.106 2.255-4.117 0-3.298-1.036-5.45-2.803-5.45zM40.58 14.77c-.466 0-1.665-.021-2.579-.021-.893 0-2.092.02-2.6.02v-.328l.346-.061c.914-.164 1.076-.45 1.076-2.315V8.05c0-1.556-.67-2.314-1.868-2.314-.833 0-1.524.327-2.133.778v5.551c0 1.885.142 2.151 1.076 2.315l.346.061v.328c-.508 0-1.686-.02-2.6-.02-.914 0-2.112.02-2.6.02v-.328l.407-.061c.852-.123 1.015-.45 1.015-2.5V7.457c0-1.106-.183-1.413-.934-1.761l-.508-.246v-.226l3.534-.778.284.184v1.434c1.117-.962 2.153-1.597 3.473-1.597 1.89 0 2.885 1.024 2.885 3.175v4.301c0 2.09.162 2.335 1.035 2.5l.366.06-.02.267zM43.526 8.726v.144c.06 2.908 1.625 4.711 3.737 4.711 1.158 0 1.97-.43 2.823-1.29l.284.204c-1.096 1.537-2.518 2.5-4.346 2.5-2.681 0-4.692-1.844-4.692-5.02 0-3.42 2.56-5.591 5.017-5.591 2.722 0 4.042 1.536 4.103 4.363l-6.926-.02zm4.448-.573c-.061-2.151-.833-3.237-2.052-3.237-1.38 0-2.254 1.188-2.396 3.237h4.448zM65.299 14.77c-.366 0-2.194-.042-2.905-.042-.751 0-3.026.041-3.412.041v-.287l.65-.102c.63-.103.894-.266.894-.656 0-.327-.203-.737-.65-1.433L57.6 8.788l-2.275 3.154c-.528.738-.772 1.29-.772 1.7 0 .41.244.656.874.758l.67.103v.287c-.366 0-1.99-.041-2.722-.041-.73 0-1.889.04-2.274.04v-.307l.345-.061c.914-.164 1.767-.942 2.457-1.823l3.29-4.343-3.229-4.834c-.751-1.127-1.28-1.639-2.092-1.782l-.426-.082V1.27c.365 0 2.193.041 2.904.041.752 0 2.986-.04 3.372-.04v.286l-.65.102c-.548.082-.853.267-.853.656 0 .328.203.737.65 1.434l1.95 3.031 1.909-2.704c.508-.737.772-1.29.772-1.68 0-.389-.264-.655-.874-.757l-.67-.103V1.25c.366 0 1.99.04 2.722.04.73 0 1.888-.04 2.274-.04v.286l-.345.062c-.914.164-1.747.86-2.457 1.823l-2.946 3.892 3.575 5.285c.752 1.126 1.28 1.638 2.092 1.782l.427.082v.307zM66.924 3.482a.935.935 0 01-.427-.082 1.061 1.061 0 01-.345-.245.925.925 0 01-.224-.349 1.077 1.077 0 01-.08-.43c0-.164.02-.307.08-.43.061-.143.143-.246.224-.348a.783.783 0 01.345-.226c.142-.061.284-.081.427-.081.162 0 .304.02.426.081.142.062.244.144.345.226a.926.926 0 01.224.348c.06.143.081.287.081.43 0 .164-.02.307-.081.43-.061.144-.142.246-.224.349a1.334 1.334 0 01-.345.245 1.317 1.317 0 01-.426.082zm0-.164a.69.69 0 00.365-.081.803.803 0 00.305-.205c.081-.082.142-.185.203-.308a1.167 1.167 0 000-.737.81.81 0 00-.203-.307 1.138 1.138 0 00-.305-.205c-.122-.041-.243-.082-.365-.082a.69.69 0 00-.366.082.804.804 0 00-.305.205 1.151 1.151 0 00-.203.307 1.17 1.17 0 000 .737c.04.123.122.226.203.308a.803.803 0 00.305.205.791.791 0 00.366.081zm-.468-.286V1.72h.57c.141 0 .263.04.344.102a.373.373 0 01.122.287c0 .123-.04.205-.122.287-.08.082-.182.102-.325.102l.061-.02c.061 0 .102.02.143.04.04.021.08.062.121.123l.224.39h-.305l-.223-.43c-.02-.041-.04-.062-.061-.062-.02-.02-.061-.02-.102-.02h-.142v.512h-.304zm.264-.738h.264c.082 0 .143-.02.163-.04.04-.021.06-.083.06-.144 0-.062-.02-.123-.06-.143a.38.38 0 00-.163-.041h-.263v.368z" fill="#123B63"/><path d="M18.767 19.378H9.384V22h9.383v-2.622z" fill="#2B568A"/><path d="M28.15 19.378h-9.383V22h9.384v-2.622z" fill="#6FA3CC"/><path d="M37.554 19.378h-9.383V22h9.383v-2.622z" fill="#276647"/><path d="M46.938 19.378h-9.384V22h9.384v-2.622z" fill="#DDCD4A"/><path d="M56.322 19.378h-9.384V22h9.383v-2.622z" fill="#F29E1A"/><path d="M65.705 19.378H56.32V22h9.384v-2.622z" fill="#A82528"/><path d="M9.384 19.378H0V22h9.384v-2.622z" fill="#123B63"/></g><defs><clipPath id="clip0_109_118"><path fill="#fff" d="M0 0h68v22H0z"/></clipPath></defs></svg>