<svg width="25" height="24" viewBox="0 0 25 24" fill="none" xmlns="http://www.w3.org/2000/svg"><path d="M24.787 23.796c-.618 0-3.709-.07-4.91-.07-1.27 0-5.116.07-5.769.07v-.487l1.1-.174c1.063-.174 1.51-.452 1.51-1.114 0-.556-.343-1.252-1.099-2.435l-3.845-5.95-3.846 5.358c-.893 1.253-1.305 2.192-1.305 2.888 0 .696.412 1.114 1.477 1.288l1.133.174v.487c-.618 0-3.365-.07-4.601-.07-1.236 0-3.193.07-3.846.07v-.522l.584-.105c1.545-.278 2.987-1.6 4.155-3.096l5.562-7.377-5.46-8.212c-1.27-1.914-2.162-2.783-3.536-3.027l-.72-.14V.867c.617 0 3.707.07 4.91.07 1.27 0 5.046-.07 5.699-.07v.487l-1.1.174c-.926.139-1.441.452-1.441 1.113 0 .557.343 1.253 1.099 2.436l3.296 5.15 3.227-4.593c.858-1.253 1.305-2.192 1.305-2.854 0-.66-.447-1.113-1.476-1.287l-1.133-.174V.831c.618 0 3.364.07 4.6.07 1.236 0 3.193-.07 3.846-.07v.487l-.584.104c-1.545.279-2.953 1.462-4.154 3.097l-4.979 6.611 6.043 8.978c1.27 1.913 2.163 2.783 3.537 3.027l.72.14v.521z" fill="#fff"/></svg>