<svg width="1280" height="615" viewBox="0 0 1280 615" fill="none" xmlns="http://www.w3.org/2000/svg"><path d="M.49.614v614h1279v-614H.49zM1174.4 524.738c-11.5 0-69-1.277-91.37-1.277-23.64 0-95.201 1.277-107.341 1.277v-8.935l20.447-3.191c19.804-3.191 28.114-8.297 28.114-20.423 0-10.212-6.39-22.976-20.45-44.675l-71.56-109.136-71.562 98.286c-16.613 22.976-24.281 40.208-24.281 52.972 0 12.764 7.668 20.423 27.475 23.614l21.086 3.191v8.935c-11.502 0-62.618-1.276-85.62-1.276-23.002 0-59.423 1.276-71.563 1.276v-9.573l10.863-1.915c28.752-5.106 55.588-29.358 77.313-56.801l103.51-135.302-101.593-150.62c-23.642-35.102-40.254-51.057-65.812-55.525l-13.418-2.553v-8.935c11.501 0 69.006 1.277 91.369 1.277 23.642 0 93.927-1.277 106.067-1.277v8.935l-20.447 3.191c-17.251 2.553-26.836 8.297-26.836 20.423 0 10.212 6.39 22.976 20.447 44.675l61.339 94.457 60.063-84.245c15.97-22.976 24.28-40.208 24.28-52.334 0-12.126-8.31-20.423-27.48-23.614l-21.08-3.191v-8.935c11.5 0 62.62 1.276 85.62 1.276 23 0 59.42-1.276 71.56-1.276v8.935l-10.86 1.915c-28.76 5.105-54.95 26.805-77.31 56.801l-92.653 121.262 112.453 164.66c23.64 35.102 40.26 51.057 65.81 55.525l13.42 2.553v9.573z" fill="#fff"/></svg>