<svg width="222" height="60" viewBox="0 0 222 60" fill="none" xmlns="http://www.w3.org/2000/svg"><path d="M.792 20H8.24c4.732 0 7.28-2.128 7.28-5.6 0-2.8-1.792-4.172-4.116-4.536 2.044-.56 3.36-1.96 3.36-4.284C14.764 2.36 12.3.4 7.988.4H.792V20zm7.28-16.912c2.24 0 3.472 1.064 3.472 2.8 0 1.764-1.26 2.828-3.472 2.828h-4.06V3.088h4.06zm.196 8.288c2.492 0 3.948 1.064 3.948 2.996 0 1.82-1.372 2.912-3.948 2.912H4.012v-5.908h4.256zm16.575 8.792c3.556 0 5.964-2.156 6.468-4.984h-3.024c-.42 1.596-1.764 2.52-3.612 2.52-2.38 0-3.92-1.596-4.004-4.032v-.196h10.808c.056-.392.084-.784.084-1.148-.084-4.2-2.856-6.832-7-6.832-4.228 0-7.056 2.94-7.056 7.364 0 4.396 2.828 7.308 7.336 7.308zm-4.06-8.904c.224-2.044 1.876-3.332 3.808-3.332 2.1 0 3.584 1.204 3.836 3.332h-7.644zm27.64-5.6c-2.352 0-3.5.952-4.227 2.156l-.337-2.156h-2.688V20h3.025v-7.196c0-2.212.867-4.312 3.556-4.312h1.343V5.664h-.672zm8.658 14.504c3.556 0 5.964-2.156 6.468-4.984h-3.024c-.42 1.596-1.764 2.52-3.612 2.52-2.38 0-3.92-1.596-4.004-4.032v-.196h10.808c.056-.392.084-.784.084-1.148-.084-4.2-2.856-6.832-7-6.832-4.228 0-7.056 2.94-7.056 7.364 0 4.396 2.828 7.308 7.336 7.308zm-4.06-8.904c.224-2.044 1.876-3.332 3.808-3.332 2.1 0 3.584 1.204 3.836 3.332h-7.644zm26.329 6.104c-.616 0-.924-.196-.924-.924v-5.74c0-3.388-2.184-5.208-5.992-5.208-3.612 0-6.02 1.736-6.328 4.536h2.968c.224-1.26 1.428-2.1 3.22-2.1 1.988 0 3.136.98 3.136 2.576v.868h-3.612c-4.004 0-6.132 1.652-6.132 4.592 0 2.66 2.184 4.2 5.32 4.2 2.324 0 3.78-1.008 4.732-2.464 0 1.428.672 2.296 2.632 2.296h1.596v-2.632h-.616zm-3.92-3.248c-.028 2.212-1.484 3.696-4.004 3.696-1.652 0-2.66-.84-2.66-2.044 0-1.456 1.036-2.156 2.912-2.156h3.752v.504zm16.965-6.468c-.923-1.26-2.463-2.156-4.647-2.156-3.892 0-6.776 2.912-6.776 7.336 0 4.592 2.884 7.336 6.776 7.336 2.267 0 3.751-1.064 4.675-2.324L92.788 20h2.632V.4h-3.023v7.252zm-4.144 9.968c-2.52 0-4.172-1.96-4.172-4.788 0-2.8 1.653-4.76 4.172-4.76 2.52 0 4.172 1.96 4.172 4.816 0 2.772-1.651 4.732-4.172 4.732zm14.268 2.464l-.56 1.4c-.448 1.176-.728 1.456-1.904 1.456h-2.128v2.66h3.248c2.1 0 2.716-1.036 3.612-3.36l6.496-16.576h-3.22l-3.892 10.892-4.004-10.892h-3.22l5.572 14.42zM2.024 37.648c1.036 0 1.848-.756 1.848-1.82s-.812-1.82-1.848-1.82-1.848.756-1.848 1.82.812 1.82 1.848 1.82zM.484 54h3.024V39.664H.484V54zm4.532-11.676h2.492V54h3.052V42.324h3.836v-2.66h-3.892V38.46c0-.98.42-1.4 1.4-1.4h2.492V34.4h-2.884c-2.772 0-4.004 1.344-4.004 3.92v1.344H5.016v2.66zM23.125 54h3.024V34.4h-3.024V54zm7.528-16.352c1.036 0 1.848-.756 1.848-1.82s-.812-1.82-1.848-1.82-1.848.756-1.848 1.82.812 1.82 1.848 1.82zM29.113 54h3.024V39.664h-3.024V54zm16.936-12.096c-.924-1.428-2.464-2.408-4.704-2.408-3.892 0-6.776 2.884-6.776 7.28 0 4.564 2.884 7.28 6.776 7.28 2.24 0 3.724-.924 4.676-2.352V53.3c0 2.744-1.484 4.004-4.116 4.004-2.128 0-3.528-.924-3.892-2.52h-3.08c.28 3.22 2.94 4.984 6.748 4.984 5.152 0 7.336-2.464 7.336-6.356V39.664h-2.632l-.336 2.24zm-4.2 9.604c-2.52 0-4.172-1.932-4.172-4.732 0-2.772 1.652-4.732 4.172-4.732 2.52 0 4.172 1.96 4.172 4.788 0 2.744-1.652 4.676-4.172 4.676zm17.655-12.012c-2.24 0-3.612 1.008-4.508 2.24V34.4h-3.024V54h3.024v-7.252c0-2.884 1.456-4.648 3.836-4.648 2.24 0 3.444 1.456 3.444 4.172V54H65.3v-7.98c0-4.788-2.604-6.524-5.796-6.524zm9.582 10.612c0 2.604 1.176 3.892 3.92 3.892h2.8v-2.66h-2.128c-1.148 0-1.54-.42-1.54-1.54v-7.476h3.5v-2.66h-3.5V35.66h-3.052v4.004h-2.492v2.66h2.492v7.784zM85.29 39.496c-2.324 0-3.696.924-4.592 2.044l-.336-1.876H77.73V54h3.024v-7.224c0-2.912 1.428-4.676 3.836-4.676 2.268 0 3.416 1.456 3.416 4.172V54h3.052v-7.98c0-4.788-2.604-6.524-5.768-6.524zm10.058-1.848c1.036 0 1.848-.756 1.848-1.82s-.812-1.82-1.848-1.82-1.848.756-1.848 1.82.812 1.82 1.848 1.82zM93.808 54h3.024V39.664h-3.024V54zm13.549-14.504c-2.324 0-3.696.924-4.592 2.044l-.337-1.876h-2.632V54h3.025v-7.224c0-2.912 1.428-4.676 3.836-4.676 2.268 0 3.416 1.456 3.416 4.172V54h3.052v-7.98c0-4.788-2.604-6.524-5.768-6.524zm19.466 2.408c-.924-1.428-2.464-2.408-4.704-2.408-3.892 0-6.776 2.884-6.776 7.28 0 4.564 2.884 7.28 6.776 7.28 2.24 0 3.724-.924 4.676-2.352V53.3c0 2.744-1.484 4.004-4.116 4.004-2.128 0-3.528-.924-3.892-2.52h-3.08c.28 3.22 2.94 4.984 6.748 4.984 5.152 0 7.336-2.464 7.336-6.356V39.664h-2.632l-.336 2.24zm-4.2 9.604c-2.52 0-4.172-1.932-4.172-4.732 0-2.772 1.652-4.732 4.172-4.732 2.52 0 4.172 1.96 4.172 4.788 0 2.744-1.652 4.676-4.172 4.676zm16.671-2.24c.084 3.108 2.716 4.9 6.552 4.9 3.472 0 6.076-1.736 6.076-4.48 0-3.192-2.66-3.864-5.936-4.256-2.072-.224-3.444-.392-3.444-1.736 0-1.148 1.176-1.876 2.968-1.876s3.024.924 3.192 2.24h2.968c-.196-2.94-2.688-4.564-6.216-4.564-3.444-.028-5.88 1.736-5.88 4.452 0 2.968 2.576 3.668 5.852 4.06 2.212.28 3.528.392 3.528 1.932 0 1.148-1.232 1.876-3.108 1.876-2.184 0-3.472-1.064-3.584-2.548h-2.968zm16.007.84c0 2.604 1.176 3.892 3.92 3.892h2.8v-2.66h-2.128c-1.148 0-1.54-.42-1.54-1.54v-7.476h3.5v-2.66h-3.5V35.66h-3.052v4.004h-2.492v2.66h2.492v7.784zm15.896-10.444c-2.352 0-3.5.952-4.228 2.156l-.336-2.156h-2.688V54h3.024v-7.196c0-2.212.868-4.312 3.556-4.312h1.344v-2.828h-.672zm4.077-2.016c1.036 0 1.848-.756 1.848-1.82s-.812-1.82-1.848-1.82-1.848.756-1.848 1.82.812 1.82 1.848 1.82zM173.734 54h3.024V39.664h-3.024V54zm5.988 0h3.024v-3.64l2.576-2.688L189.55 54h3.584l-5.74-8.54 5.404-5.796h-3.556l-6.496 6.944V34.4h-3.024V54zm20.777.168c3.556 0 5.964-2.156 6.468-4.984h-3.024c-.42 1.596-1.764 2.52-3.612 2.52-2.38 0-3.92-1.596-4.004-4.032v-.196h10.808c.056-.392.084-.784.084-1.148-.084-4.2-2.856-6.832-7-6.832-4.228 0-7.056 2.94-7.056 7.364 0 4.396 2.828 7.308 7.336 7.308zm-4.06-8.904c.224-2.044 1.876-3.332 3.808-3.332 2.1 0 3.584 1.204 3.836 3.332h-7.644zm12.527 4.004c.084 3.108 2.716 4.9 6.552 4.9 3.472 0 6.076-1.736 6.076-4.48 0-3.192-2.66-3.864-5.936-4.256-2.072-.224-3.444-.392-3.444-1.736 0-1.148 1.176-1.876 2.968-1.876s3.024.924 3.192 2.24h2.968c-.196-2.94-2.688-4.564-6.216-4.564-3.444-.028-5.88 1.736-5.88 4.452 0 2.968 2.576 3.668 5.852 4.06 2.212.28 3.528.392 3.528 1.932 0 1.148-1.232 1.876-3.108 1.876-2.184 0-3.472-1.064-3.584-2.548h-2.968z" fill="#000"/></svg>