<svg width="254" height="68" viewBox="0 0 254 68" fill="none" xmlns="http://www.w3.org/2000/svg"><path d="M1.048 23H9.56c5.408 0 8.32-2.432 8.32-6.4 0-3.2-2.048-4.768-4.704-5.184 2.336-.64 3.84-2.24 3.84-4.896C17.016 2.84 14.2.6 9.272.6H1.048V23zm8.32-19.328c2.56 0 3.968 1.216 3.968 3.2 0 2.016-1.44 3.232-3.968 3.232h-4.64V3.672h4.64zm.224 9.472c2.848 0 4.512 1.216 4.512 3.424 0 2.08-1.568 3.328-4.512 3.328H4.728v-6.752h4.864zm18.943 10.048c4.064 0 6.815-2.464 7.391-5.696H32.47c-.48 1.824-2.015 2.88-4.127 2.88-2.72 0-4.48-1.824-4.576-4.608v-.224h12.351c.064-.448.096-.896.096-1.312-.096-4.8-3.264-7.808-8-7.808-4.831 0-8.063 3.36-8.063 8.416 0 5.024 3.232 8.352 8.384 8.352zm-4.64-10.176c.256-2.336 2.143-3.808 4.352-3.808 2.4 0 4.096 1.376 4.383 3.808h-8.736zm31.589-6.4c-2.688 0-4 1.088-4.832 2.464l-.384-2.464h-3.072V23h3.456v-8.224c0-2.528.992-4.928 4.064-4.928h1.536V6.616h-.768zm9.894 16.576c4.064 0 6.816-2.464 7.392-5.696h-3.456c-.48 1.824-2.016 2.88-4.128 2.88-2.72 0-4.48-1.824-4.576-4.608v-.224h12.352c.064-.448.096-.896.096-1.312-.096-4.8-3.264-7.808-8-7.808-4.832 0-8.064 3.36-8.064 8.416 0 5.024 3.232 8.352 8.384 8.352zm-4.64-10.176c.256-2.336 2.144-3.808 4.352-3.808 2.4 0 4.096 1.376 4.384 3.808h-8.736zm30.09 6.976c-.704 0-1.056-.224-1.056-1.056v-6.56c0-3.872-2.496-5.952-6.848-5.952-4.128 0-6.88 1.984-7.232 5.184h3.392c.256-1.44 1.632-2.4 3.68-2.4 2.272 0 3.584 1.12 3.584 2.944v.992H82.22c-4.576 0-7.008 1.888-7.008 5.248 0 3.04 2.496 4.8 6.08 4.8 2.656 0 4.32-1.152 5.408-2.816 0 1.632.768 2.624 3.008 2.624h1.824v-3.008h-.704zm-4.48-3.712c-.032 2.528-1.696 4.224-4.576 4.224-1.888 0-3.04-.96-3.04-2.336 0-1.664 1.184-2.464 3.328-2.464h4.288v.576zm19.39-7.392c-1.056-1.44-2.816-2.464-5.312-2.464-4.448 0-7.744 3.328-7.744 8.384 0 5.248 3.296 8.384 7.744 8.384 2.592 0 4.288-1.216 5.344-2.656l.416 2.464h3.008V.6h-3.456v8.288zm-4.736 11.392c-2.88 0-4.768-2.24-4.768-5.472 0-3.2 1.888-5.44 4.768-5.44s4.768 2.24 4.768 5.504c0 3.168-1.888 5.408-4.768 5.408zm16.305 2.816l-.64 1.6c-.512 1.344-.832 1.664-2.176 1.664h-2.432v3.04h3.712c2.4 0 3.104-1.184 4.128-3.84l7.424-18.944h-3.68l-4.448 12.448-4.576-12.448h-3.68l6.368 16.48zM2.456 42.312c1.184 0 2.112-.864 2.112-2.08 0-1.216-.928-2.08-2.112-2.08-1.184 0-2.112.864-2.112 2.08 0 1.216.928 2.08 2.112 2.08zM.696 61h3.456V44.616H.696V61zm5.18-13.344h2.848V61h3.488V47.656h4.384v-3.04h-4.448V43.24c0-1.12.48-1.6 1.6-1.6h2.848V38.6H13.3c-3.168 0-4.576 1.536-4.576 4.48v1.536H5.876v3.04zM26.57 61h3.456V38.6h-3.456V61zm8.604-18.688c1.184 0 2.112-.864 2.112-2.08 0-1.216-.928-2.08-2.112-2.08-1.184 0-2.112.864-2.112 2.08 0 1.216.928 2.08 2.112 2.08zM33.415 61h3.456V44.616h-3.456V61zM52.77 47.176c-1.056-1.632-2.816-2.752-5.376-2.752-4.447 0-7.743 3.296-7.743 8.32 0 5.216 3.295 8.32 7.743 8.32 2.56 0 4.257-1.056 5.345-2.688V60.2c0 3.136-1.697 4.576-4.704 4.576-2.432 0-4.032-1.056-4.448-2.88h-3.52c.32 3.68 3.36 5.696 7.712 5.696 5.887 0 8.383-2.816 8.383-7.264V44.616h-3.008l-.384 2.56zm-4.8 10.976c-2.88 0-4.767-2.208-4.767-5.408 0-3.168 1.887-5.408 4.767-5.408 2.88 0 4.769 2.24 4.769 5.472 0 3.136-1.889 5.344-4.768 5.344zm20.178-13.728c-2.56 0-4.128 1.152-5.152 2.56V38.6H59.54V61h3.456v-8.288c0-3.296 1.664-5.312 4.384-5.312 2.56 0 3.936 1.664 3.936 4.768V61h3.456v-9.12c0-5.472-2.976-7.456-6.624-7.456zm10.95 12.128c0 2.976 1.345 4.448 4.48 4.448h3.2v-3.04h-2.431c-1.312 0-1.76-.48-1.76-1.76v-8.544h4v-3.04h-4V40.04h-3.488v4.576H76.25v3.04h2.848v8.896zm18.52-12.128c-2.657 0-4.225 1.056-5.249 2.336l-.384-2.144h-3.008V61h3.456v-8.256c0-3.328 1.632-5.344 4.384-5.344 2.592 0 3.904 1.664 3.904 4.768V61h3.488v-9.12c0-5.472-2.976-7.456-6.592-7.456zm11.494-2.112c1.184 0 2.112-.864 2.112-2.08 0-1.216-.928-2.08-2.112-2.08-1.184 0-2.112.864-2.112 2.08 0 1.216.928 2.08 2.112 2.08zM107.352 61h3.456V44.616h-3.456V61zm15.484-16.576c-2.656 0-4.224 1.056-5.248 2.336l-.384-2.144h-3.008V61h3.456v-8.256c0-3.328 1.632-5.344 4.384-5.344 2.592 0 3.904 1.664 3.904 4.768V61h3.488v-9.12c0-5.472-2.976-7.456-6.592-7.456zm22.247 2.752c-1.056-1.632-2.816-2.752-5.376-2.752-4.448 0-7.744 3.296-7.744 8.32 0 5.216 3.296 8.32 7.744 8.32 2.56 0 4.256-1.056 5.344-2.688V60.2c0 3.136-1.696 4.576-4.704 4.576-2.432 0-4.032-1.056-4.448-2.88h-3.52c.32 3.68 3.36 5.696 7.712 5.696 5.888 0 8.384-2.816 8.384-7.264V44.616h-3.008l-.384 2.56zm-4.8 10.976c-2.88 0-4.768-2.208-4.768-5.408 0-3.168 1.888-5.408 4.768-5.408s4.768 2.24 4.768 5.472c0 3.136-1.888 5.344-4.768 5.344zm19.053-2.56c.096 3.552 3.104 5.6 7.488 5.6 3.968 0 6.944-1.984 6.944-5.12 0-3.648-3.04-4.416-6.784-4.864-2.368-.256-3.936-.448-3.936-1.984 0-1.312 1.344-2.144 3.392-2.144s3.456 1.056 3.648 2.56h3.392c-.224-3.36-3.072-5.216-7.104-5.216-3.936-.032-6.72 1.984-6.72 5.088 0 3.392 2.944 4.192 6.688 4.64 2.528.32 4.032.448 4.032 2.208 0 1.312-1.408 2.144-3.552 2.144-2.496 0-3.968-1.216-4.096-2.912h-3.392zm18.294.96c0 2.976 1.344 4.448 4.48 4.448h3.2v-3.04h-2.432c-1.312 0-1.76-.48-1.76-1.76v-8.544h4v-3.04h-4V40.04h-3.488v4.576h-2.848v3.04h2.848v8.896zm18.167-11.936c-2.688 0-4 1.088-4.832 2.464l-.384-2.464h-3.072V61h3.456v-8.224c0-2.528.992-4.928 4.064-4.928h1.536v-3.232h-.768zm4.659-2.304c1.184 0 2.112-.864 2.112-2.08 0-1.216-.928-2.08-2.112-2.08-1.184 0-2.112.864-2.112 2.08 0 1.216.928 2.08 2.112 2.08zM198.696 61h3.456V44.616h-3.456V61zm6.844 0h3.456v-4.16l2.944-3.072L216.772 61h4.096l-6.56-9.76 6.176-6.624h-4.064l-7.424 7.936V38.6h-3.456V61zm23.745.192c4.064 0 6.816-2.464 7.392-5.696h-3.456c-.48 1.824-2.016 2.88-4.128 2.88-2.72 0-4.48-1.824-4.577-4.608v-.224h12.353c.064-.448.096-.896.096-1.312-.096-4.8-3.264-7.808-8-7.808-4.832 0-8.064 3.36-8.064 8.416 0 5.024 3.232 8.352 8.384 8.352zm-4.64-10.176c.256-2.336 2.144-3.808 4.352-3.808 2.4 0 4.096 1.376 4.384 3.808h-8.736zm14.316 4.576c.096 3.552 3.104 5.6 7.488 5.6 3.968 0 6.944-1.984 6.944-5.12 0-3.648-3.04-4.416-6.784-4.864-2.368-.256-3.936-.448-3.936-1.984 0-1.312 1.344-2.144 3.392-2.144s3.456 1.056 3.648 2.56h3.392c-.224-3.36-3.072-5.216-7.104-5.216-3.936-.032-6.72 1.984-6.72 5.088 0 3.392 2.944 4.192 6.688 4.64 2.528.32 4.032.448 4.032 2.208 0 1.312-1.408 2.144-3.552 2.144-2.496 0-3.968-1.216-4.096-2.912h-3.392z" fill="#000"/></svg>