<svg width="223" height="79" viewBox="0 0 223 79" fill="none" xmlns="http://www.w3.org/2000/svg"><path d="M6.204 10.324V16h1.188v-5.676L13.288.6h-1.342L6.798 9.026 1.694.6H.308l5.896 9.724zM18 16.132c3.146 0 5.368-2.332 5.368-5.72 0-3.366-2.222-5.698-5.368-5.698-3.146 0-5.346 2.332-5.346 5.698 0 3.388 2.2 5.72 5.346 5.72zm0-1.012c-2.486 0-4.202-1.936-4.202-4.708 0-2.75 1.716-4.708 4.202-4.708 2.486 0 4.202 1.958 4.202 4.708 0 2.772-1.716 4.708-4.202 4.708zm15.693-4.796c0 2.926-1.452 4.774-3.762 4.774-2.068 0-3.344-1.408-3.344-4.07V4.846h-1.122v6.248c0 3.498 1.826 5.038 4.29 5.038 1.98 0 3.278-1.056 3.916-2.486L33.825 16h.99V4.846h-1.122v5.478zM37.92.49c-.594 0-.968.352-.968.858 0 .528.352.792.77.792.22 0 .44-.088.55-.264.154.154.198.352.198.572 0 .836-.528 1.694-1.65 1.738v.66c1.518-.066 2.464-1.078 2.464-2.53 0-1.012-.572-1.826-1.364-1.826zm8.13 4.356c-2.067 0-2.947.99-3.41 2.222l-.175-2.222h-.968V16h1.122v-5.654c0-2.266.594-4.422 3.212-4.422h.814V4.846h-.594zm6.39 11.286c2.442 0 4.312-1.584 4.796-3.828h-1.144c-.44 1.738-1.914 2.816-3.74 2.816-2.486 0-4.048-1.892-4.092-4.488v-.198h9.108c0-.154.022-.33.022-.462-.11-3.322-2.156-5.258-5.148-5.258-3.058 0-5.148 2.332-5.148 5.632 0 3.498 2.178 5.786 5.346 5.786zm-4.092-6.644c.176-2.266 1.87-3.784 3.916-3.784 2.178 0 3.74 1.342 3.916 3.784h-7.832zM77.99 4.714c-2.046 0-3.366 1.144-4.004 2.794-.528-1.848-1.914-2.794-3.674-2.794-1.914 0-3.058 1.122-3.63 2.508l-.176-2.376h-.968V16h1.122v-5.676c0-2.728 1.32-4.576 3.454-4.576 1.936 0 3.146 1.364 3.146 3.938V16h1.122V9.928c.066-2.552 1.386-4.18 3.476-4.18 1.936 0 3.102 1.298 3.102 3.828V16h1.144V9.532c0-3.366-1.782-4.818-4.114-4.818zm7.176-2.222c.44 0 .792-.33.792-.792a.775.775 0 00-.792-.792c-.44 0-.792.33-.792.792s.352.792.792.792zM84.593 16h1.122V4.846h-1.122V16zm8.908-11.286c-2.046 0-3.366 1.056-4.004 2.508l-.176-2.376h-.968V16h1.122v-5.5c0-2.904 1.474-4.752 3.85-4.752 2.156 0 3.454 1.408 3.454 4.048V16h1.122V9.752c0-3.52-1.87-5.038-4.4-5.038zm14.979 5.61c0 2.926-1.452 4.774-3.762 4.774-2.068 0-3.344-1.408-3.344-4.07V4.846h-1.122v6.248c0 3.498 1.826 5.038 4.29 5.038 1.98 0 3.278-1.056 3.916-2.486l.154 2.354h.99V4.846h-1.122v5.478zm4.621 3.08c0 1.782.726 2.596 2.618 2.596h1.628v-1.034h-1.54c-1.166 0-1.584-.44-1.584-1.584V5.88h3.014V4.846h-3.014V1.722h-1.122v3.124h-2.112V5.88h2.112v7.524zm10.538 2.728c2.442 0 4.312-1.584 4.796-3.828h-1.144c-.44 1.738-1.914 2.816-3.74 2.816-2.486 0-4.048-1.892-4.092-4.488v-.198h9.108c0-.154.022-.33.022-.462-.11-3.322-2.156-5.258-5.148-5.258-3.058 0-5.148 2.332-5.148 5.632 0 3.498 2.178 5.786 5.346 5.786zm-4.092-6.644c.176-2.266 1.87-3.784 3.916-3.784 2.178 0 3.74 1.342 3.916 3.784h-7.832zm10.732 3.08c.088 2.31 1.958 3.564 4.752 3.564 2.398 0 4.334-1.21 4.334-3.19 0-2.354-2.068-2.816-4.466-3.146-1.738-.242-3.278-.44-3.278-2.002 0-1.276 1.254-2.112 3.146-2.112 1.782 0 3.058.858 3.256 2.31h1.144c-.198-2.178-1.98-3.278-4.4-3.278-2.486-.022-4.268 1.254-4.268 3.168 0 2.244 2.068 2.662 4.356 2.97 1.87.264 3.388.506 3.388 2.156 0 1.32-1.386 2.156-3.212 2.156-2.134 0-3.52-.99-3.608-2.596h-1.144zm26.968 2.398c-.66 0-.99-.22-.99-1.078V8.696c0-2.552-1.562-3.982-4.356-3.982-2.552 0-4.246 1.232-4.532 3.256h1.122c.286-1.364 1.474-2.266 3.366-2.266 2.09 0 3.278 1.1 3.278 2.948v.968h-3.784c-2.86 0-4.4 1.232-4.4 3.322 0 1.98 1.562 3.19 3.938 3.19 2.266 0 3.608-1.034 4.29-2.42v.396c-.044 1.32.506 1.892 1.826 1.892h.66v-1.034h-.418zm-2.112-3.476c0 2.134-1.518 3.674-4.158 3.674-1.782 0-2.882-.902-2.882-2.288 0-1.474 1.1-2.288 3.168-2.288h3.872v.902zm6.479 4.51h1.21l3.3-9.372L169.27 16h1.21l3.96-11.154h-1.144l-3.432 9.812-3.19-9.812h-1.034l-3.366 9.812-3.256-9.812h-1.188L161.614 16zm23.842-1.034c-.66 0-.99-.22-.99-1.078V8.696c0-2.552-1.562-3.982-4.356-3.982-2.552 0-4.246 1.232-4.532 3.256h1.122c.286-1.364 1.474-2.266 3.366-2.266 2.09 0 3.278 1.1 3.278 2.948v.968h-3.784c-2.86 0-4.4 1.232-4.4 3.322 0 1.98 1.562 3.19 3.938 3.19 2.266 0 3.608-1.034 4.29-2.42v.396c-.044 1.32.506 1.892 1.826 1.892h.66v-1.034h-.418zm-2.112-3.476c0 2.134-1.518 3.674-4.158 3.674-1.782 0-2.882-.902-2.882-2.288 0-1.474 1.1-2.288 3.168-2.288h3.872v.902zm7.009 4.51l-.726 1.804c-.506 1.232-.704 1.562-1.848 1.562h-1.408V20.4h1.716c1.496 0 1.848-.572 2.552-2.332l5.346-13.222h-1.21l-3.806 9.702-3.872-9.702h-1.21L190.353 16zM.044 36.88h2.112V47h1.122V36.88h3.344v-1.034H3.278v-1.672c0-1.1.418-1.54 1.54-1.54h1.826V31.6h-1.87c-1.87 0-2.618.814-2.618 2.596v1.65H.044v1.034zm12.49-1.034c-2.068 0-2.948.99-3.41 2.222l-.176-2.222H7.98V47h1.122v-5.654c0-2.266.594-4.422 3.212-4.422h.814v-1.078h-.594zm6.39 11.286c3.146 0 5.368-2.332 5.368-5.72 0-3.366-2.222-5.698-5.368-5.698-3.146 0-5.346 2.332-5.346 5.698 0 3.388 2.2 5.72 5.346 5.72zm0-1.012c-2.486 0-4.202-1.936-4.202-4.708 0-2.75 1.716-4.708 4.202-4.708 2.486 0 4.202 1.958 4.202 4.708 0 2.772-1.716 4.708-4.202 4.708zm20.05-10.406c-2.047 0-3.367 1.144-4.005 2.794-.528-1.848-1.914-2.794-3.674-2.794-1.914 0-3.058 1.122-3.63 2.508l-.176-2.376h-.968V47h1.122v-5.676c0-2.728 1.32-4.576 3.454-4.576 1.936 0 3.146 1.364 3.146 3.938V47h1.122v-6.072c.066-2.552 1.386-4.18 3.476-4.18 1.936 0 3.102 1.298 3.102 3.828V47h1.144v-6.468c0-3.366-1.782-4.818-4.114-4.818zm13.37 8.69c0 1.782.725 2.596 2.617 2.596h1.629v-1.034h-1.54c-1.166 0-1.584-.44-1.584-1.584V36.88h3.014v-1.034h-3.014v-3.124h-1.123v3.124h-2.112v1.034h2.112v7.524zm10.507-8.558c-2.068 0-2.948.99-3.41 2.222l-.176-2.222h-.968V47h1.122v-5.654c0-2.266.594-4.422 3.212-4.422h.814v-1.078h-.594zm11.596 10.12c-.66 0-.99-.22-.99-1.078v-5.192c0-2.552-1.563-3.982-4.356-3.982-2.552 0-4.246 1.232-4.532 3.256h1.121c.287-1.364 1.475-2.266 3.367-2.266 2.09 0 3.278 1.1 3.278 2.948v.968H68.55c-2.86 0-4.4 1.232-4.4 3.322 0 1.98 1.562 3.19 3.938 3.19 2.266 0 3.608-1.034 4.29-2.42v.396c-.044 1.32.505 1.892 1.825 1.892h.66v-1.034h-.418zm-2.112-3.476c0 2.134-1.518 3.674-4.158 3.674-1.783 0-2.883-.902-2.883-2.288 0-1.474 1.1-2.288 3.169-2.288h3.872v.902zM85.3 38.354c-.682-1.584-2.178-2.64-4.268-2.64-3.058 0-5.258 2.332-5.258 5.698 0 3.52 2.2 5.72 5.258 5.72 2.09 0 3.542-1.122 4.246-2.684L85.455 47h.968V31.6h-1.122v6.754zm-4.18 7.766c-2.486 0-4.202-1.936-4.202-4.708 0-2.75 1.716-4.708 4.202-4.708 2.486 0 4.202 1.958 4.202 4.73 0 2.75-1.716 4.686-4.202 4.686zm8.513-12.628c.44 0 .792-.33.792-.792a.775.775 0 00-.792-.792c-.44 0-.792.33-.792.792s.352.792.792.792zM89.062 47h1.122V35.846h-1.122V47zm8.908-11.286c-2.046 0-3.366 1.056-4.004 2.508l-.176-2.376h-.968V47h1.122v-5.5c0-2.904 1.474-4.752 3.85-4.752 2.156 0 3.454 1.408 3.454 4.048V47h1.122v-6.248c0-3.52-1.87-5.038-4.4-5.038zm15.969 2.728c-.682-1.65-2.178-2.728-4.246-2.728-3.058 0-5.258 2.31-5.258 5.698 0 3.52 2.2 5.72 5.258 5.72 2.09 0 3.564-1.1 4.268-2.838v1.98c0 2.97-1.408 4.246-4.092 4.246-2.09 0-3.542-.946-3.894-2.64h-1.166c.352 2.376 2.266 3.652 4.972 3.652 3.608 0 5.302-1.716 5.302-5.214V35.846h-.968l-.176 2.596zm-4.158 7.678c-2.486 0-4.202-1.936-4.202-4.708 0-2.772 1.716-4.708 4.202-4.708 2.486 0 4.202 1.936 4.202 4.73 0 2.75-1.716 4.686-4.202 4.686zm14.707-1.716c0 1.782.726 2.596 2.618 2.596h1.628v-1.034h-1.54c-1.166 0-1.584-.44-1.584-1.584V36.88h3.014v-1.034h-3.014v-3.124h-1.122v3.124h-2.112v1.034h2.112v7.524zm11.101-8.69c-2.09 0-3.388 1.166-4.026 2.772V31.6h-1.122V47h1.122v-5.5c0-2.904 1.474-4.752 3.85-4.752 2.134 0 3.454 1.408 3.454 4.048V47h1.122v-6.248c0-3.52-1.87-5.038-4.4-5.038zm11.661 11.418c3.146 0 5.368-2.332 5.368-5.72 0-3.366-2.222-5.698-5.368-5.698-3.146 0-5.346 2.332-5.346 5.698 0 3.388 2.2 5.72 5.346 5.72zm0-1.012c-2.486 0-4.202-1.936-4.202-4.708 0-2.75 1.716-4.708 4.202-4.708 2.486 0 4.202 1.958 4.202 4.708 0 2.772-1.716 4.708-4.202 4.708zm15.693-4.796c0 2.926-1.452 4.774-3.762 4.774-2.068 0-3.344-1.408-3.344-4.07v-6.182h-1.122v6.248c0 3.498 1.826 5.038 4.29 5.038 1.98 0 3.278-1.056 3.916-2.486l.154 2.354h.99V35.846h-1.122v5.478zm3.258 2.244c.088 2.31 1.958 3.564 4.752 3.564 2.398 0 4.334-1.21 4.334-3.19 0-2.354-2.068-2.816-4.466-3.146-1.738-.242-3.278-.44-3.278-2.002 0-1.276 1.254-2.112 3.146-2.112 1.782 0 3.058.858 3.256 2.31h1.144c-.198-2.178-1.98-3.278-4.4-3.278-2.486-.022-4.268 1.254-4.268 3.168 0 2.244 2.068 2.662 4.356 2.97 1.87.264 3.388.506 3.388 2.156 0 1.32-1.386 2.156-3.212 2.156-2.134 0-3.52-.99-3.608-2.596h-1.144zm21.038 2.398c-.66 0-.99-.22-.99-1.078v-5.192c0-2.552-1.562-3.982-4.356-3.982-2.552 0-4.246 1.232-4.532 3.256h1.122c.286-1.364 1.474-2.266 3.366-2.266 2.09 0 3.278 1.1 3.278 2.948v.968h-3.784c-2.86 0-4.4 1.232-4.4 3.322 0 1.98 1.562 3.19 3.938 3.19 2.266 0 3.608-1.034 4.29-2.42v.396c-.044 1.32.506 1.892 1.826 1.892h.66v-1.034h-.418zm-2.112-3.476c0 2.134-1.518 3.674-4.158 3.674-1.782 0-2.882-.902-2.882-2.288 0-1.474 1.1-2.288 3.168-2.288h3.872v.902zm9.179-6.776c-2.046 0-3.366 1.056-4.004 2.508l-.176-2.376h-.968V47h1.122v-5.5c0-2.904 1.474-4.752 3.85-4.752 2.156 0 3.454 1.408 3.454 4.048V47h1.122v-6.248c0-3.52-1.87-5.038-4.4-5.038zm15.819 2.64c-.682-1.584-2.178-2.64-4.268-2.64-3.058 0-5.258 2.332-5.258 5.698 0 3.52 2.2 5.72 5.258 5.72 2.09 0 3.542-1.122 4.246-2.684l.176 2.552h.968V31.6h-1.122v6.754zm-4.18 7.766c-2.486 0-4.202-1.936-4.202-4.708 0-2.75 1.716-4.708 4.202-4.708 2.486 0 4.202 1.958 4.202 4.73 0 2.75-1.716 4.686-4.202 4.686zm7.435-2.552c.088 2.31 1.958 3.564 4.752 3.564 2.398 0 4.334-1.21 4.334-3.19 0-2.354-2.068-2.816-4.466-3.146-1.738-.242-3.278-.44-3.278-2.002 0-1.276 1.254-2.112 3.146-2.112 1.782 0 3.058.858 3.256 2.31h1.144c-.198-2.178-1.98-3.278-4.4-3.278-2.486-.022-4.268 1.254-4.268 3.168 0 2.244 2.068 2.662 4.356 2.97 1.87.264 3.388.506 3.388 2.156 0 1.32-1.386 2.156-3.212 2.156-2.134 0-3.52-.99-3.608-2.596h-1.144zM6.248 78.132c3.146 0 5.368-2.332 5.368-5.72 0-3.366-2.222-5.698-5.368-5.698-3.146 0-5.346 2.332-5.346 5.698 0 3.388 2.2 5.72 5.346 5.72zm0-1.012c-2.486 0-4.202-1.936-4.202-4.708 0-2.75 1.716-4.708 4.202-4.708 2.486 0 4.202 1.958 4.202 4.708 0 2.772-1.716 4.708-4.202 4.708zm6.15-9.24h2.111V78h1.123V67.88h3.344v-1.034h-3.344v-1.672c0-1.1.417-1.54 1.54-1.54h1.825V62.6h-1.87c-1.87 0-2.617.814-2.617 2.596v1.65h-2.112v1.034zm26.317-1.166c-2.046 0-3.366 1.144-4.004 2.794-.528-1.848-1.914-2.794-3.674-2.794-1.914 0-3.058 1.122-3.63 2.508l-.176-2.376h-.968V78h1.122v-5.676c0-2.728 1.32-4.576 3.454-4.576 1.936 0 3.146 1.364 3.146 3.938V78h1.122v-6.072c.066-2.552 1.386-4.18 3.476-4.18 1.936 0 3.102 1.298 3.102 3.828V78h1.144v-6.468c0-3.366-1.782-4.818-4.114-4.818zm16.417 10.252c-.66 0-.99-.22-.99-1.078v-5.192c0-2.552-1.562-3.982-4.356-3.982-2.552 0-4.246 1.232-4.532 3.256h1.122c.286-1.364 1.474-2.266 3.366-2.266 2.09 0 3.278 1.1 3.278 2.948v.968h-3.784c-2.86 0-4.4 1.232-4.4 3.322 0 1.98 1.562 3.19 3.938 3.19 2.266 0 3.608-1.034 4.29-2.42v.396C53.02 77.428 53.57 78 54.89 78h.66v-1.034h-.418zM53.02 73.49c0 2.134-1.518 3.674-4.158 3.674-1.782 0-2.882-.902-2.882-2.288 0-1.474 1.1-2.288 3.168-2.288h3.872v.902zm8.584-6.644c-2.068 0-2.947.99-3.41 2.222l-.175-2.222h-.968V78h1.121v-5.654c0-2.266.595-4.422 3.213-4.422h.814v-1.078h-.594zM63.861 78h1.122v-3.014l2.618-2.684L71.869 78h1.364l-4.862-6.512 4.488-4.642h-1.386l-6.49 6.688V62.6h-1.122V78zm15.197.132c2.442 0 4.313-1.584 4.796-3.828H82.71c-.44 1.738-1.913 2.816-3.74 2.816-2.486 0-4.047-1.892-4.091-4.488v-.198h9.108c0-.154.022-.33.022-.462-.11-3.322-2.156-5.258-5.148-5.258-3.059 0-5.148 2.332-5.148 5.632 0 3.498 2.178 5.786 5.346 5.786zm-4.092-6.644c.177-2.266 1.87-3.784 3.916-3.784 2.178 0 3.74 1.342 3.916 3.784h-7.832zm11.924 3.916c0 1.782.726 2.596 2.618 2.596h1.628v-1.034h-1.54c-1.166 0-1.584-.44-1.584-1.584V67.88h3.014v-1.034h-3.014v-3.124H86.89v3.124h-2.112v1.034h2.112v7.524zm5.447-.836c.088 2.31 1.958 3.564 4.752 3.564 2.398 0 4.334-1.21 4.334-3.19 0-2.354-2.068-2.816-4.466-3.146-1.738-.242-3.278-.44-3.278-2.002 0-1.276 1.254-2.112 3.146-2.112 1.782 0 3.058.858 3.256 2.31h1.144c-.198-2.178-1.98-3.278-4.4-3.278-2.486-.022-4.268 1.254-4.268 3.168 0 2.244 2.068 2.662 4.356 2.97 1.87.264 3.388.506 3.388 2.156 0 1.32-1.386 2.156-3.212 2.156-2.134 0-3.52-.99-3.608-2.596h-1.144z" fill="#000"/></svg>