<svg width="212" height="35" viewBox="0 0 212 35" fill="none" xmlns="http://www.w3.org/2000/svg"><path d="M16.137.465C8.405.512 2.332 3.88 2.332 11.328c0 6.5 5.408 8.255 12.951 10.057 5.456 1.376 6.404 1.566 6.404 3.463 0 1.518-1.613 2.183-3.463 2.183-4.222 0-9.013-1.234-13.33-3.653L.91 30.019c4.554 3.036 10.152 4.65 16.32 4.65 8.538 0 13.899-3.89 13.899-10.96 0-6.783-5.55-8.68-13.33-10.768-5.171-1.28-5.788-1.708-5.788-2.751 0-1.518 1.47-2.182 3.178-2.182 3.274 0 7.733 1.138 11.528 3.083l3.747-6.878C26.573 1.84 21.45.465 16.137.465zm51.518 33.681V.94h-8.966v12.524h-13.52V.94H36.25v33.207h8.919V21.48h13.52v12.666h8.966zm42.585 0L97.004.94H85.287L72.194 34.146h10.674l2.135-5.787H97.43l2.135 5.787h10.674zM87.327 21.243l3.843-10.342 3.842 10.342h-7.685zM114.728.987v33.16h8.919V24.041H128.96l6.451 10.104h10.295l-7.448-11.29c4.601-1.566 6.546-4.934 6.546-10.342 0-8.112-4.317-11.527-15.133-11.527h-14.943zm8.919 8.017h6.451c3.938 0 5.408 1.233 5.408 4.08 0 2.893-1.47 4.08-5.408 4.08h-6.451v-8.16zm53.75-.048V.94h-27.183v33.207h27.468V26.13h-18.549v-4.98h16.983v-7.591h-16.983V8.956h18.264zM196.256.465c-7.732.047-13.805 3.415-13.805 10.863 0 6.5 5.408 8.255 12.951 10.057 5.456 1.376 6.404 1.566 6.404 3.463 0 1.518-1.613 2.183-3.463 2.183-4.222 0-9.013-1.234-13.33-3.653l-3.985 6.641c4.554 3.036 10.152 4.65 16.319 4.65 8.539 0 13.9-3.89 13.9-10.96 0-6.783-5.551-8.68-13.331-10.768-5.17-1.28-5.787-1.708-5.787-2.751 0-1.518 1.47-2.182 3.178-2.182 3.274 0 7.733 1.138 11.528 3.083l3.748-6.878c-3.89-2.372-9.014-3.748-14.327-3.748z" fill="#09B45B"/></svg>