<svg width="155" height="34" viewBox="0 0 155 34" fill="none" xmlns="http://www.w3.org/2000/svg"><rect width="155" height="34" rx="17" fill="#000"/><path d="M22.8 19.42c.1 2.76 2.1 4.7 5.52 4.7 2.94 0 4.98-1.7 4.98-4.12 0-2.72-2.34-3.48-4.62-3.86-2.1-.36-3.8-.7-3.8-2.38 0-1.5 1.22-2.3 3.04-2.3 1.9 0 3.2 1.06 3.4 2.68h1.8c-.16-2.52-2.08-4.26-5.2-4.26-2.84 0-4.78 1.6-4.78 3.98 0 2.72 2.32 3.46 4.58 3.84 2.12.36 3.84.72 3.84 2.46 0 1.52-1.34 2.38-3.22 2.38-2.14 0-3.6-1.24-3.74-3.12h-1.8zm13.228 1.92c0 1.8.7 2.66 2.66 2.66h1.78v-1.5h-1.62c-.88 0-1.18-.32-1.18-1.18V15.3h2.64v-1.5h-2.64v-2.86h-1.64v2.86h-1.84v1.5h1.84v6.04zm14.725 1.16c-.46 0-.66-.14-.66-.68v-4.46c0-2.38-1.5-3.68-4.1-3.68-2.46 0-4.08 1.18-4.32 3.18h1.64c.2-1.04 1.16-1.72 2.6-1.72 1.6 0 2.54.8 2.54 2.12v.7h-3c-2.68 0-4.1 1.14-4.1 3.18 0 1.86 1.52 2.98 3.76 2.98 1.76 0 2.78-.78 3.42-1.7.02 1 .48 1.58 1.84 1.58h.9v-1.5h-.52zm-2.3-2.66c0 1.7-1.18 2.88-3.22 2.88-1.36 0-2.22-.68-2.22-1.68 0-1.16.82-1.7 2.28-1.7h3.16v.5zm8.801-6.04c-1.82 0-2.6.76-3.08 1.54l-.22-1.54h-1.42V24h1.64v-5.2c0-1.62.58-3.4 2.72-3.4h.82v-1.6h-.46zm2.974 7.54c0 1.8.7 2.66 2.66 2.66h1.78v-1.5h-1.62c-.88 0-1.18-.32-1.18-1.18V15.3h2.64v-1.5h-2.64v-2.86h-1.64v2.86h-1.84v1.5h1.84v6.04zm11.855 0c0 1.8.7 2.66 2.66 2.66h1.78v-1.5h-1.62c-.88 0-1.18-.32-1.18-1.18V15.3h2.64v-1.5h-2.64v-2.86h-1.64v2.86h-1.84v1.5h1.84v6.04zm10.581-7.54c-1.82 0-2.6.76-3.08 1.54l-.22-1.54h-1.42V24h1.64v-5.2c0-1.62.58-3.4 2.72-3.4h.82v-1.6h-.46zm10.55 8.7c-.46 0-.66-.14-.66-.68v-4.46c0-2.38-1.5-3.68-4.1-3.68-2.46 0-4.08 1.18-4.32 3.18h1.64c.2-1.04 1.16-1.72 2.6-1.72 1.6 0 2.54.8 2.54 2.12v.7h-3c-2.68 0-4.1 1.14-4.1 3.18 0 1.86 1.52 2.98 3.76 2.98 1.76 0 2.78-.78 3.42-1.7.02 1 .48 1.58 1.84 1.58h.9v-1.5h-.52zm-2.3-2.66c0 1.7-1.18 2.88-3.22 2.88-1.36 0-2.22-.68-2.22-1.68 0-1.16.82-1.7 2.28-1.7h3.16v.5zm12.004-4.48c-.62-.98-1.78-1.68-3.5-1.68-2.82 0-4.9 2.1-4.9 5.22 0 3.32 2.08 5.22 4.9 5.22 1.72 0 2.82-.82 3.5-1.76l.22 1.64h1.42V10h-1.64v5.36zm-3.34 7.3c-2.02 0-3.38-1.54-3.38-3.76 0-2.22 1.36-3.76 3.38-3.76 2 0 3.36 1.56 3.36 3.8 0 2.18-1.36 3.72-3.36 3.72zm8.054-10.58c.6 0 1.06-.44 1.06-1.06 0-.62-.46-1.06-1.06-1.06-.6 0-1.06.44-1.06 1.06 0 .62.46 1.06 1.06 1.06zm-.84 11.92h1.64V13.8h-1.64V24zm8.887-10.32c-1.72 0-2.76.72-3.36 1.5l-.22-1.38h-1.42V24h1.64v-5.1c0-2.3 1.16-3.72 3.08-3.72 1.78 0 2.76 1.12 2.76 3.24V24h1.64v-5.68c0-3.38-1.82-4.64-4.12-4.64zm14.251 1.88c-.64-1.14-1.78-1.88-3.5-1.88-2.82 0-4.9 2.1-4.9 5.22 0 3.32 2.08 5.22 4.9 5.22 1.72 0 2.82-.72 3.5-1.88v1.2c0 2.22-1.16 3.22-3.3 3.22-1.7 0-2.84-.72-3.12-2h-1.68c.26 2.24 2.08 3.46 4.68 3.46 3.5 0 5.06-1.68 5.06-4.62v-9.7h-1.42l-.22 1.76zm-3.34 7.1c-2.02 0-3.38-1.54-3.38-3.76 0-2.22 1.36-3.76 3.38-3.76 2 0 3.36 1.56 3.36 3.8 0 2.18-1.36 3.72-3.36 3.72z" fill="#fff"/></svg>