<svg width="308" height="33" viewBox="0 0 308 33" fill="none" xmlns="http://www.w3.org/2000/svg"><path d="M.68 4.668h7.344V25h3.91V4.668h7.344V1.2H.68v3.468zm22.748.476c1.258 0 2.244-.918 2.244-2.21 0-1.292-.986-2.21-2.244-2.21-1.258 0-2.244.918-2.244 2.21 0 1.292.986 2.21 2.244 2.21zM21.558 25h3.672V7.592h-3.672V25zM48.855 7.388c-2.856 0-4.828 1.258-5.95 3.162-1.054-2.244-3.094-3.162-5.372-3.162-2.618.034-4.114 1.19-5.1 2.482l-.408-2.278H28.83V25h3.672v-9.316c0-3.094 1.564-5.134 4.08-5.134 2.414 0 3.672 1.598 3.672 4.658V25h3.706v-9.418c0-3.128 1.598-5.032 4.114-5.032 2.38 0 3.638 1.598 3.638 4.658V25h3.672V14.97c0-5.508-2.924-7.582-6.528-7.582zm11.727-2.244c1.258 0 2.244-.918 2.244-2.21 0-1.292-.986-2.21-2.244-2.21-1.258 0-2.244.918-2.244 2.21 0 1.292.986 2.21 2.244 2.21zM58.712 25h3.672V7.592h-3.672V25zM75.164 7.388c-2.822 0-4.488 1.122-5.576 2.482l-.408-2.278h-3.196V25h3.672v-8.772c0-3.536 1.734-5.678 4.658-5.678 2.754 0 4.148 1.768 4.148 5.066V25h3.706v-9.69c0-5.814-3.162-7.922-7.004-7.922zM98.8 10.312C97.68 8.578 95.81 7.388 93.09 7.388c-4.726 0-8.228 3.502-8.228 8.84 0 5.542 3.502 8.84 8.228 8.84 2.72 0 4.522-1.122 5.678-2.856v1.938c0 3.332-1.802 4.862-4.998 4.862-2.584 0-4.284-1.122-4.726-3.06h-3.74c.34 3.91 3.57 6.052 8.194 6.052 6.256 0 8.908-2.992 8.908-7.718V7.592h-3.196l-.408 2.72zm-5.1 11.662c-3.06 0-5.066-2.346-5.066-5.746 0-3.366 2.006-5.746 5.066-5.746s5.066 2.38 5.066 5.814c0 3.332-2.006 5.678-5.066 5.678zm22.862-16.83c1.258 0 2.244-.918 2.244-2.21 0-1.292-.986-2.21-2.244-2.21-1.258 0-2.244.918-2.244 2.21 0 1.292.986 2.21 2.244 2.21zM114.693 25h3.672V7.592h-3.672V25zm6.523-5.746c.102 3.774 3.298 5.95 7.956 5.95 4.216 0 7.378-2.108 7.378-5.44 0-3.876-3.23-4.692-7.208-5.168-2.516-.272-4.182-.476-4.182-2.108 0-1.394 1.428-2.278 3.604-2.278s3.672 1.122 3.876 2.72h3.604c-.238-3.57-3.264-5.542-7.548-5.542-4.182-.034-7.14 2.108-7.14 5.406 0 3.604 3.128 4.454 7.106 4.93 2.686.34 4.284.476 4.284 2.346 0 1.394-1.496 2.278-3.774 2.278-2.652 0-4.216-1.292-4.352-3.094h-3.604zm35.141 5.95c4.318 0 7.242-2.618 7.854-6.052h-3.672c-.51 1.938-2.142 3.06-4.386 3.06-2.89 0-4.76-1.938-4.862-4.896v-.238h13.124c.068-.476.102-.952.102-1.394-.102-5.1-3.468-8.296-8.5-8.296-5.134 0-8.568 3.57-8.568 8.942 0 5.338 3.434 8.874 8.908 8.874zm-4.93-10.812c.272-2.482 2.278-4.046 4.624-4.046 2.55 0 4.352 1.462 4.658 4.046h-9.282zM171.381 25h4.488l6.426-17.408h-3.876l-4.726 13.464-4.794-13.464h-3.944L171.381 25zm20.238.204c4.318 0 7.242-2.618 7.854-6.052h-3.672c-.51 1.938-2.142 3.06-4.386 3.06-2.89 0-4.76-1.938-4.862-4.896v-.238h13.124c.068-.476.102-.952.102-1.394-.102-5.1-3.468-8.296-8.5-8.296-5.134 0-8.568 3.57-8.568 8.942 0 5.338 3.434 8.874 8.908 8.874zm-4.93-10.812c.272-2.482 2.278-4.046 4.624-4.046 2.55 0 4.352 1.462 4.658 4.046h-9.282zm24.864-6.8c-2.856 0-4.25 1.156-5.134 2.618l-.408-2.618h-3.264V25h3.672v-8.738c0-2.686 1.054-5.236 4.318-5.236h1.632V7.592h-.816zm8.312 17.51l-.68 1.7c-.544 1.428-.884 1.768-2.312 1.768h-2.584v3.23h3.944c2.55 0 3.298-1.258 4.386-4.08l7.888-20.128h-3.91l-4.726 13.226-4.862-13.226h-3.91l6.766 17.51zm14.123-4.828c0 3.162 1.428 4.726 4.76 4.726h3.4v-3.23h-2.584c-1.394 0-1.87-.51-1.87-1.87v-9.078h4.25v-3.23h-4.25V2.73h-3.706v4.862h-3.026v3.23h3.026v9.452zM253.63 7.388c-2.72 0-4.386 1.224-5.474 2.72V1.2h-3.672V25h3.672v-8.806c0-3.502 1.768-5.644 4.658-5.644 2.72 0 4.182 1.768 4.182 5.066V25h3.672v-9.69c0-5.814-3.162-7.922-7.038-7.922zm12.247-2.244c1.258 0 2.244-.918 2.244-2.21 0-1.292-.986-2.21-2.244-2.21-1.258 0-2.244.918-2.244 2.21 0 1.292.986 2.21 2.244 2.21zM264.007 25h3.672V7.592h-3.672V25zm16.452-17.612c-2.822 0-4.488 1.122-5.576 2.482l-.408-2.278h-3.196V25h3.672v-8.772c0-3.536 1.734-5.678 4.658-5.678 2.754 0 4.148 1.768 4.148 5.066V25h3.706v-9.69c0-5.814-3.162-7.922-7.004-7.922zm23.637 2.924c-1.122-1.734-2.992-2.924-5.712-2.924-4.726 0-8.228 3.502-8.228 8.84 0 5.542 3.502 8.84 8.228 8.84 2.72 0 4.522-1.122 5.678-2.856v1.938c0 3.332-1.802 4.862-4.998 4.862-2.584 0-4.284-1.122-4.726-3.06h-3.74c.34 3.91 3.57 6.052 8.194 6.052 6.256 0 8.908-2.992 8.908-7.718V7.592h-3.196l-.408 2.72zm-5.1 11.662c-3.06 0-5.066-2.346-5.066-5.746 0-3.366 2.006-5.746 5.066-5.746s5.066 2.38 5.066 5.814c0 3.332-2.006 5.678-5.066 5.678z" fill="#000"/></svg>