<svg width="161" height="11" viewBox="0 0 161 11" fill="none" xmlns="http://www.w3.org/2000/svg"><path d="M3.458 6.633V10h1.495V6.633L8.346.9H6.669L4.212 5.06 1.82.9H.065l3.393 5.733zm7.639 3.445c2.028 0 3.393-1.365 3.393-3.406 0-2.028-1.365-3.406-3.393-3.406-2.028 0-3.393 1.378-3.393 3.406 0 2.041 1.365 3.406 3.393 3.406zm0-1.196c-1.183 0-1.95-.923-1.95-2.21s.767-2.21 1.95-2.21c1.183 0 1.963.923 1.963 2.21s-.78 2.21-1.963 2.21zm9.085-2.21c0 1.378-.65 2.184-1.716 2.184-1.027 0-1.547-.663-1.547-1.963V3.344h-1.404v3.705c0 2.275 1.209 3.029 2.626 3.029 1.027 0 1.638-.416 2.054-.923l.156.845h1.235V3.344h-1.404v3.328zm6.154-3.328c-1.092 0-1.625.442-1.963 1.001l-.156-1.001H22.97V10h1.404V6.659c0-1.027.403-2.002 1.651-2.002h.624V3.344h-.312zm10.588 5.434c-.286 0-.429-.091-.429-.429V5.684c0-1.573-1.014-2.418-2.782-2.418-1.677 0-2.795.806-2.938 2.106h1.378c.104-.585.663-.975 1.495-.975.923 0 1.456.455 1.456 1.196v.403h-1.677c-1.859 0-2.847.767-2.847 2.132 0 1.235 1.014 1.95 2.47 1.95 1.08 0 1.755-.468 2.197-1.144 0 .663.312 1.066 1.222 1.066h.741V8.778h-.286zm-1.82-1.508c-.013 1.027-.689 1.716-1.859 1.716-.767 0-1.235-.39-1.235-.949 0-.676.481-1.001 1.352-1.001h1.742v.234zm7.434-.598c0 1.378-.65 2.184-1.716 2.184-1.027 0-1.547-.663-1.547-1.963V3.344h-1.404v3.705c0 2.275 1.21 3.029 2.626 3.029 1.027 0 1.638-.416 2.054-.923l.156.845h1.235V3.344h-1.404v3.328zm3.307 1.521c0 1.209.546 1.807 1.82 1.807h1.3V8.765h-.988c-.533 0-.715-.195-.715-.715V4.579h1.625V3.344h-1.625V1.485h-1.417v1.859h-1.157v1.235h1.157v3.614zm7.02 1.885c2.027 0 3.392-1.365 3.392-3.406 0-2.028-1.365-3.406-3.393-3.406-2.028 0-3.393 1.378-3.393 3.406 0 2.041 1.365 3.406 3.393 3.406zm0-1.196c-1.184 0-1.95-.923-1.95-2.21s.766-2.21 1.95-2.21c1.182 0 1.962.923 1.962 2.21s-.78 2.21-1.963 2.21zm12.178-5.616c-1.092 0-1.846.481-2.275 1.209-.403-.858-1.183-1.209-2.054-1.209-1 .013-1.573.455-1.95.949l-.156-.871h-1.222V10h1.404V6.438c0-1.183.598-1.963 1.56-1.963.923 0 1.404.611 1.404 1.781V10h1.417V6.399c0-1.196.611-1.924 1.573-1.924.91 0 1.391.611 1.391 1.781V10h1.404V6.165c0-2.106-1.118-2.899-2.496-2.899zm9.853 5.512c-.286 0-.429-.091-.429-.429V5.684c0-1.573-1.014-2.418-2.782-2.418-1.677 0-2.795.806-2.938 2.106h1.378c.104-.585.663-.975 1.495-.975.923 0 1.456.455 1.456 1.196v.403h-1.677c-1.859 0-2.847.767-2.847 2.132 0 1.235 1.014 1.95 2.47 1.95 1.079 0 1.755-.468 2.197-1.144 0 .663.312 1.066 1.222 1.066h.741V8.778h-.286zm-1.82-1.508c-.013 1.027-.689 1.716-1.859 1.716-.767 0-1.235-.39-1.235-.949 0-.676.481-1.001 1.352-1.001h1.742v.234zm3.352.923c0 1.209.546 1.807 1.82 1.807h1.3V8.765h-.988c-.533 0-.715-.195-.715-.715V4.579h1.625V3.344h-1.625V1.485h-1.417v1.859H75.27v1.235h1.157v3.614zm4.728-5.785c.481 0 .858-.351.858-.845s-.377-.845-.858-.845-.858.351-.858.845.377.845.858.845zM80.441 10h1.404V3.344h-1.404V10zm5.835.078c1.703 0 2.834-.949 3.094-2.457h-1.482c-.169.767-.74 1.261-1.599 1.261-1.13 0-1.872-.897-1.872-2.197 0-1.313.741-2.223 1.872-2.223.871 0 1.43.481 1.612 1.261h1.47c-.274-1.508-1.34-2.457-3.056-2.457-2.015 0-3.34 1.365-3.34 3.419 0 2.08 1.286 3.393 3.301 3.393zm12.552-7.67c.481 0 .858-.351.858-.845s-.377-.845-.858-.845-.858.351-.858.845.377.845.858.845zm-3.159.936v-.559c0-.455.182-.65.637-.65h.988V.9h-1.183c-1.287 0-1.859.611-1.859 1.781v.663h-1.157v1.235h1.157V10h1.417V4.579h2.444V10h1.417V3.344h-3.861zm8.591 0c-1.092 0-1.625.442-1.963 1.001l-.156-1.001h-1.248V10h1.404V6.659c0-1.027.403-2.002 1.651-2.002h.624V3.344h-.312zm.778 4.459c.039 1.443 1.261 2.275 3.042 2.275 1.612 0 2.821-.806 2.821-2.08 0-1.482-1.235-1.794-2.756-1.976-.962-.104-1.599-.182-1.599-.806 0-.533.546-.871 1.378-.871.832 0 1.404.429 1.482 1.04h1.378c-.091-1.365-1.248-2.119-2.886-2.119-1.599-.013-2.73.806-2.73 2.067 0 1.378 1.196 1.703 2.717 1.885 1.027.13 1.638.182 1.638.897 0 .533-.572.871-1.443.871-1.014 0-1.612-.494-1.664-1.183h-1.378zm7.432.39c0 1.209.546 1.807 1.82 1.807h1.3V8.765h-.988c-.533 0-.715-.195-.715-.715V4.579h1.625V3.344h-1.625V1.485h-1.417v1.859h-1.157v1.235h1.157v3.614zm8.063-1.313V5.723h-4.42V6.88h4.42zm4.426 3.198c1.703 0 2.834-.949 3.094-2.457h-1.482c-.169.767-.741 1.261-1.599 1.261-1.131 0-1.872-.897-1.872-2.197 0-1.313.741-2.223 1.872-2.223.871 0 1.43.481 1.612 1.261h1.469c-.273-1.508-1.339-2.457-3.055-2.457-2.015 0-3.341 1.365-3.341 3.419 0 2.08 1.287 3.393 3.302 3.393zm7.665-6.812c-1.04 0-1.677.468-2.093 1.04V.9h-1.404V10h1.404V6.633c0-1.339.676-2.158 1.781-2.158 1.04 0 1.599.676 1.599 1.937V10h1.404V6.295c0-2.223-1.209-3.029-2.691-3.029zm7.064 6.812c2.028 0 3.393-1.365 3.393-3.406 0-2.028-1.365-3.406-3.393-3.406-2.028 0-3.393 1.378-3.393 3.406 0 2.041 1.365 3.406 3.393 3.406zm0-1.196c-1.183 0-1.95-.923-1.95-2.21s.767-2.21 1.95-2.21c1.183 0 1.963.923 1.963 2.21s-.78 2.21-1.963 2.21zm5.237-6.474c.481 0 .858-.351.858-.845s-.377-.845-.858-.845-.858.351-.858.845.377.845.858.845zM144.21 10h1.404V3.344h-1.404V10zm5.835.078c1.703 0 2.834-.949 3.094-2.457h-1.482c-.169.767-.741 1.261-1.599 1.261-1.131 0-1.872-.897-1.872-2.197 0-1.313.741-2.223 1.872-2.223.871 0 1.43.481 1.612 1.261h1.469c-.273-1.508-1.339-2.457-3.055-2.457-2.015 0-3.341 1.365-3.341 3.419 0 2.08 1.287 3.393 3.302 3.393zm7.327 0c1.651 0 2.769-1.001 3.003-2.314h-1.404c-.195.741-.819 1.17-1.677 1.17-1.105 0-1.82-.741-1.859-1.872v-.091h5.018c.026-.182.039-.364.039-.533-.039-1.95-1.326-3.172-3.25-3.172-1.963 0-3.276 1.365-3.276 3.419 0 2.041 1.313 3.393 3.406 3.393zm-1.885-4.134c.104-.949.871-1.547 1.768-1.547.975 0 1.664.559 1.781 1.547h-3.549z" fill="#000"/></svg>