<svg width="129" height="13" viewBox="0 0 129 13" fill="none" xmlns="http://www.w3.org/2000/svg"><path d="M3.055 9.5h.832L6.24 1.557 8.593 9.5h.832L12.207.4h-.728L9.022 8.577 6.63.4h-.715L3.458 8.577 1.027.4H.286l2.769 9.1zM13.61 1.518c.26 0 .468-.195.468-.468a.458.458 0 00-.468-.468.458.458 0 00-.468.468c0 .273.208.468.468.468zM13.272 9.5h.663V2.909h-.663V9.5zm2.716-1.534c0 1.053.429 1.534 1.547 1.534h.962v-.611h-.91c-.69 0-.936-.26-.936-.936V3.52h1.78v-.611h-1.78V1.063h-.663v1.846H14.74v.611h1.248v4.446zm6.56-5.135c-1.235 0-2.002.689-2.38 1.638V.4h-.662v9.1h.663V6.25c0-1.716.87-2.808 2.275-2.808 1.26 0 2.04.832 2.04 2.392V9.5h.664V5.808c0-2.08-1.105-2.977-2.6-2.977zM35.93 8.889c-.39 0-.585-.13-.585-.637V5.184c0-1.508-.923-2.353-2.574-2.353-1.508 0-2.51.728-2.678 1.924h.663c.169-.806.87-1.339 1.989-1.339 1.235 0 1.937.65 1.937 1.742v.572h-2.236c-1.69 0-2.6.728-2.6 1.963 0 1.17.923 1.885 2.327 1.885 1.339 0 2.132-.611 2.535-1.43v.234c-.026.78.299 1.118 1.079 1.118h.39v-.611h-.247zm-1.248-2.054c0 1.261-.897 2.171-2.457 2.171-1.053 0-1.703-.533-1.703-1.352 0-.871.65-1.352 1.872-1.352h2.288v.533zm6.38 1.131c0 1.053.428 1.534 1.546 1.534h.962v-.611h-.91c-.689 0-.936-.26-.936-.936V3.52h1.781v-.611h-1.78V1.063h-.664v1.846h-1.248v.611h1.248v4.446zm6.208-5.057c-1.222 0-1.742.585-2.015 1.313l-.104-1.313h-.572V9.5h.663V6.159c0-1.339.35-2.613 1.898-2.613h.48v-.637h-.35zm6.117 3.237c0 1.729-.858 2.821-2.223 2.821-1.222 0-1.976-.832-1.976-2.405V2.909h-.663v3.692c0 2.067 1.08 2.977 2.535 2.977 1.17 0 1.937-.624 2.314-1.469l.091 1.391h.585V2.909h-.663v3.237zm1.925 1.326c.052 1.365 1.157 2.106 2.808 2.106 1.417 0 2.561-.715 2.561-1.885 0-1.391-1.222-1.664-2.639-1.859-1.027-.143-1.937-.26-1.937-1.183 0-.754.741-1.248 1.86-1.248 1.052 0 1.806.507 1.923 1.365h.676c-.117-1.287-1.17-1.937-2.6-1.937-1.469-.013-2.522.741-2.522 1.872 0 1.326 1.222 1.573 2.574 1.755 1.105.156 2.002.299 2.002 1.274 0 .78-.819 1.274-1.898 1.274-1.26 0-2.08-.585-2.132-1.534h-.676zm7.128.494c0 1.053.429 1.534 1.547 1.534h.962v-.611h-.91c-.689 0-.936-.26-.936-.936V3.52h1.781v-.611h-1.781V1.063h-.663v1.846h-1.248v.611h1.248v4.446zm6.227 1.612c1.443 0 2.548-.936 2.834-2.262h-.676c-.26 1.027-1.131 1.664-2.21 1.664-1.47 0-2.392-1.118-2.418-2.652v-.117h5.382c0-.091.013-.195.013-.273-.065-1.963-1.274-3.107-3.042-3.107-1.807 0-3.042 1.378-3.042 3.328 0 2.067 1.287 3.419 3.159 3.419zm-2.418-3.926c.104-1.339 1.105-2.236 2.314-2.236 1.287 0 2.21.793 2.314 2.236h-4.628zm12.035-1.261c-.403-.936-1.287-1.56-2.522-1.56-1.807 0-3.107 1.378-3.107 3.367 0 2.08 1.3 3.38 3.107 3.38 1.235 0 2.093-.663 2.51-1.586l.103 1.508h.572V.4h-.663v3.991zm-2.47 4.589c-1.469 0-2.483-1.144-2.483-2.782 0-1.625 1.014-2.782 2.483-2.782 1.47 0 2.483 1.157 2.483 2.795 0 1.625-1.014 2.769-2.483 2.769zm11.382-6.149c-1.236 0-2.093.663-2.51 1.586l-.104-1.508h-.572V12.1h.663V7.979c.377.962 1.275 1.599 2.522 1.599 1.808 0 3.108-1.378 3.108-3.38 0-2.067-1.3-3.367-3.108-3.367zm-.052 6.149c-1.47 0-2.484-1.144-2.484-2.795 0-1.612 1.014-2.769 2.484-2.769 1.468 0 2.482 1.157 2.482 2.782 0 1.638-1.014 2.782-2.483 2.782zm7.162-6.071c-1.222 0-1.742.585-2.015 1.313l-.104-1.313h-.572V9.5h.663V6.159c0-1.339.351-2.613 1.898-2.613h.481v-.637h-.351zm3.776 6.669c1.859 0 3.172-1.378 3.172-3.38 0-1.989-1.313-3.367-3.172-3.367-1.86 0-3.16 1.378-3.16 3.367 0 2.002 1.3 3.38 3.16 3.38zm0-.598c-1.47 0-2.483-1.144-2.483-2.782 0-1.625 1.014-2.782 2.483-2.782s2.483 1.157 2.483 2.782c0 1.638-1.014 2.782-2.483 2.782zm6.121.52h.793l2.574-6.591h-.689l-2.262 5.824-2.275-5.824h-.715l2.574 6.591zm4.609-7.982c.26 0 .468-.195.468-.468a.458.458 0 00-.468-.468.458.458 0 00-.468.468c0 .273.208.468.468.468zm-.338 7.982h.663V2.909h-.663V9.5zm7.604-5.109c-.403-.936-1.287-1.56-2.522-1.56-1.807 0-3.107 1.378-3.107 3.367 0 2.08 1.3 3.38 3.107 3.38 1.235 0 2.093-.663 2.509-1.586l.104 1.508h.572V.4h-.663v3.991zm-2.47 4.589c-1.469 0-2.483-1.144-2.483-2.782 0-1.625 1.014-2.782 2.483-2.782s2.483 1.157 2.483 2.795c0 1.625-1.014 2.769-2.483 2.769zm7.605.598c1.443 0 2.548-.936 2.834-2.262h-.676c-.26 1.027-1.131 1.664-2.21 1.664-1.469 0-2.392-1.118-2.418-2.652v-.117h5.382c0-.091.013-.195.013-.273-.065-1.963-1.274-3.107-3.042-3.107-1.807 0-3.042 1.378-3.042 3.328 0 2.067 1.287 3.419 3.159 3.419zm-2.418-3.926c.104-1.339 1.105-2.236 2.314-2.236 1.287 0 2.21.793 2.314 2.236h-4.628zm9.344-2.743c-1.222 0-1.742.585-2.015 1.313l-.104-1.313h-.572V9.5h.663V6.159c0-1.339.351-2.613 1.898-2.613h.481v-.637h-.351z" fill="#000"/></svg>