<svg width="239" height="24" viewBox="0 0 239 24" fill="none" xmlns="http://www.w3.org/2000/svg"><path d="M.472 19h2.645v-5.842H6.82c3.358 0 5.566-2.024 5.566-5.129 0-3.128-2.208-5.129-5.566-5.129H.472V19zM6.613 5.2c1.886 0 3.082 1.081 3.082 2.829 0 1.725-1.219 2.829-3.105 2.829H3.117V5.2h3.496zm17.622 11.638c-.506 0-.759-.161-.759-.759v-4.715c0-2.783-1.794-4.278-4.922-4.278-2.967 0-4.945 1.426-5.198 3.726h2.438c.184-1.035 1.173-1.725 2.645-1.725 1.633 0 2.576.805 2.576 2.116v.713h-2.967c-3.289 0-5.037 1.357-5.037 3.772 0 2.185 1.794 3.45 4.37 3.45 1.909 0 3.105-.828 3.887-2.024 0 1.173.552 1.886 2.162 1.886h1.311v-2.162h-.506zm-3.22-2.668c-.023 1.817-1.219 3.036-3.289 3.036-1.357 0-2.185-.69-2.185-1.679 0-1.196.851-1.771 2.392-1.771h3.082v.414zm7.989 4.899l-.46 1.15c-.368.966-.598 1.196-1.564 1.196h-1.748V23.6H27.9c1.725 0 2.23-.851 2.967-2.76l5.336-13.616h-2.645l-3.197 8.947-3.29-8.947h-2.644l4.577 11.845zm21.171-9.338c-2.53-.437-4.186-.782-4.186-2.438 0-1.518 1.265-2.3 3.082-2.3 1.955 0 3.243 1.104 3.45 2.737h2.645c-.092-2.599-1.863-4.439-4.761-4.876V.416h-2.231v2.392c-2.921.299-4.83 2.116-4.83 4.669 0 3.197 2.53 4.048 5.198 4.508 2.553.46 4.232.828 4.232 2.53 0 1.541-1.38 2.392-3.289 2.392-2.254 0-3.726-1.265-3.864-3.151l-2.668-.046c.092 2.852 2.001 4.922 5.221 5.336v2.415h2.231v-2.369c3.013-.322 5.014-2.231 5.014-4.853.023-3.174-2.576-4.025-5.244-4.508zm6.997 1.587c0 4.853 2.6 7.82 6.348 7.82 3.75 0 6.348-2.967 6.348-7.82v-.736c0-4.669-2.599-7.82-6.348-7.82-3.749 0-6.348 3.151-6.348 7.82v.736zm10.12-.092c0 3.611-1.518 5.681-3.772 5.681-2.254 0-3.772-2.07-3.772-5.681v-.552c0-3.588 1.518-5.681 3.772-5.681 2.254 0 3.772 2.093 3.772 5.681v.552zm16.14 7.912c3.588 0 6.004-2.415 6.004-6.026 0-3.588-2.416-6.026-6.004-6.026-3.588 0-6.002 2.438-6.002 6.026 0 3.611 2.414 6.026 6.002 6.026zm0-2.116c-2.093 0-3.45-1.633-3.45-3.91s1.358-3.91 3.45-3.91c2.093 0 3.474 1.633 3.474 3.91s-1.38 3.91-3.474 3.91zm14.21-9.936c-1.908 0-3.035.759-3.771 1.679l-.276-1.541h-2.162V19h2.484v-5.934c0-2.392 1.173-3.841 3.15-3.841 1.864 0 2.807 1.196 2.807 3.427V19h2.507v-6.555c0-3.933-2.139-5.359-4.738-5.359zM110.779 19h2.645v-6.808h6.302V9.915h-6.302V5.246h7.636V2.9h-10.281V19zm16.768.138c3.588 0 6.003-2.415 6.003-6.026 0-3.588-2.415-6.026-6.003-6.026s-6.003 2.438-6.003 6.026c0 3.611 2.415 6.026 6.003 6.026zm0-2.116c-2.093 0-3.45-1.633-3.45-3.91s1.357-3.91 3.45-3.91 3.473 1.633 3.473 3.91-1.38 3.91-3.473 3.91zm13.957-9.798c-1.932 0-2.875.782-3.473 1.771l-.276-1.771h-2.208V19h2.484v-5.911c0-1.817.713-3.542 2.921-3.542h1.104V7.224h-.552zm7.112 11.914c2.921 0 4.899-1.771 5.313-4.094h-2.484c-.345 1.311-1.449 2.07-2.967 2.07-1.955 0-3.22-1.311-3.289-3.312v-.161h8.878c.046-.322.069-.644.069-.943-.069-3.45-2.346-5.612-5.75-5.612-3.473 0-5.796 2.415-5.796 6.049 0 3.611 2.323 6.003 6.026 6.003zm-3.335-7.314c.184-1.679 1.541-2.737 3.128-2.737 1.725 0 2.944.989 3.151 2.737h-6.279zM154.385 19h2.737l3.105-4.278L163.309 19h2.898l-4.439-6.026 4.186-5.75h-2.737l-2.875 3.979-2.806-3.979h-2.898l4.163 5.75L154.385 19zm19.769-3.197c0 2.139.966 3.197 3.22 3.197h2.3v-2.185h-1.748c-.943 0-1.265-.345-1.265-1.265V9.409h2.875V7.224h-2.875V3.935h-2.507v3.289h-2.047v2.185h2.047v6.394zm13.057-8.579c-1.932 0-2.875.782-3.473 1.771l-.276-1.771h-2.208V19h2.484v-5.911c0-1.817.713-3.542 2.921-3.542h1.104V7.224h-.552zm12.489 9.614c-.506 0-.759-.161-.759-.759v-4.715c0-2.783-1.794-4.278-4.922-4.278-2.967 0-4.945 1.426-5.198 3.726h2.438c.184-1.035 1.173-1.725 2.645-1.725 1.633 0 2.576.805 2.576 2.116v.713h-2.967c-3.289 0-5.037 1.357-5.037 3.772 0 2.185 1.794 3.45 4.37 3.45 1.909 0 3.105-.828 3.887-2.024 0 1.173.552 1.886 2.162 1.886h1.311v-2.162h-.506zm-3.22-2.668c-.023 1.817-1.219 3.036-3.289 3.036-1.357 0-2.185-.69-2.185-1.679 0-1.196.851-1.771 2.392-1.771h3.082v.414zm13.936-5.313c-.759-1.035-2.024-1.771-3.818-1.771-3.197 0-5.566 2.392-5.566 6.026 0 3.772 2.369 6.026 5.566 6.026 1.863 0 3.082-.874 3.841-1.909l.299 1.771h2.162V2.9h-2.484v5.957zm-3.404 8.188c-2.07 0-3.427-1.61-3.427-3.933 0-2.3 1.357-3.91 3.427-3.91 2.07 0 3.427 1.61 3.427 3.956 0 2.277-1.357 3.887-3.427 3.887zm13.904 2.093c2.921 0 4.899-1.771 5.313-4.094h-2.484c-.345 1.311-1.449 2.07-2.967 2.07-1.955 0-3.22-1.311-3.289-3.312v-.161h8.878c.046-.322.069-.644.069-.943-.069-3.45-2.346-5.612-5.75-5.612-3.473 0-5.796 2.415-5.796 6.049 0 3.611 2.323 6.003 6.026 6.003zm-3.335-7.314c.184-1.679 1.541-2.737 3.128-2.737 1.725 0 2.944.989 3.151 2.737h-6.279zm10.29 3.289c.069 2.553 2.231 4.025 5.382 4.025 2.852 0 4.991-1.426 4.991-3.68 0-2.622-2.185-3.174-4.876-3.496-1.702-.184-2.829-.322-2.829-1.426 0-.943.966-1.541 2.438-1.541 1.472 0 2.484.759 2.622 1.84h2.438c-.161-2.415-2.208-3.749-5.106-3.749-2.829-.023-4.83 1.426-4.83 3.657 0 2.438 2.116 3.013 4.807 3.335 1.817.23 2.898.322 2.898 1.587 0 .943-1.012 1.541-2.553 1.541-1.794 0-2.852-.874-2.944-2.093h-2.438z" fill="#000"/></svg>