<svg width="159" height="32" viewBox="0 0 159 32" fill="none" xmlns="http://www.w3.org/2000/svg"><path d="M18.318 10v-.56h-2.233V5.1h-.609V10h2.842zm1.987.042c1.043 0 1.77-.742 1.77-1.827s-.727-1.827-1.77-1.827c-1.043 0-1.771.742-1.771 1.827s.728 1.827 1.77 1.827zm0-.511c-.707 0-1.183-.553-1.183-1.316s.476-1.316 1.183-1.316c.707 0 1.183.553 1.183 1.316s-.476 1.316-1.183 1.316zm2.268-.707c.014.784.651 1.218 1.575 1.218.791 0 1.428-.413 1.428-1.078 0-.791-.65-.945-1.463-1.043-.518-.063-.896-.112-.896-.504 0-.329.336-.539.833-.539.49 0 .826.273.868.637h.588c-.056-.742-.644-1.12-1.456-1.127-.805-.007-1.4.42-1.4 1.071 0 .742.637.903 1.435 1.001.532.063.924.098.924.546 0 .329-.357.546-.86.546-.596 0-.967-.308-.988-.728h-.588zm3.425 0c.014.784.65 1.218 1.575 1.218.79 0 1.428-.413 1.428-1.078 0-.791-.651-.945-1.463-1.043-.518-.063-.896-.112-.896-.504 0-.329.336-.539.833-.539.49 0 .826.273.868.637h.588c-.056-.742-.644-1.12-1.456-1.127-.805-.007-1.4.42-1.4 1.071 0 .742.637.903 1.435 1.001.532.063.924.098.924.546 0 .329-.357.546-.861.546-.595 0-.966-.308-.987-.728h-.588zm5.285 1.218c.826 0 1.414-.525 1.554-1.239h-.58c-.12.462-.512.728-1.016.728-.679 0-1.106-.476-1.127-1.155v-.049h2.772c.007-.084.014-.168.014-.245-.028-1.057-.686-1.694-1.694-1.694s-1.694.742-1.694 1.827c0 1.092.7 1.827 1.771 1.827zM30.15 7.851a1.057 1.057 0 011.064-.959c.595 0 1.015.343 1.071.959H30.15zm3.245.973c.014.784.651 1.218 1.575 1.218.791 0 1.428-.413 1.428-1.078 0-.791-.65-.945-1.463-1.043-.518-.063-.896-.112-.896-.504 0-.329.336-.539.833-.539.49 0 .826.273.868.637h.588c-.056-.742-.644-1.12-1.456-1.127-.805-.007-1.4.42-1.4 1.071 0 .742.637.903 1.435 1.001.532.063.924.098.924.546 0 .329-.357.546-.86.546-.596 0-.967-.308-.988-.728h-.588zm7.076 1.218c.868 0 1.449-.49 1.589-1.26h-.61c-.111.455-.461.749-.972.749-.686 0-1.148-.532-1.148-1.309 0-.777.462-1.323 1.148-1.323.525 0 .875.287.98.763h.602c-.147-.784-.7-1.274-1.575-1.274-1.036 0-1.743.742-1.743 1.834 0 1.113.686 1.82 1.729 1.82zm5.375-.567c-.161 0-.231-.049-.231-.238V7.676c0-.833-.525-1.288-1.435-1.288-.861 0-1.428.413-1.512 1.113h.574c.07-.364.406-.602.91-.602.56 0 .889.28.889.742v.245h-1.05c-.938 0-1.435.399-1.435 1.113 0 .651.532 1.043 1.316 1.043.616 0 .973-.273 1.197-.595.007.35.168.553.644.553h.315v-.525h-.182zm-.805-.931c0 .595-.413 1.008-1.127 1.008-.476 0-.777-.238-.777-.588 0-.406.287-.595.798-.595h1.106v.175zm3.178-2.156c-.602 0-.966.252-1.176.525l-.077-.483h-.497V10h.574V8.215c0-.805.406-1.302 1.078-1.302.623 0 .966.392.966 1.134V10h.574V8.012c0-1.183-.637-1.624-1.442-1.624zm5.651 3.654c.826 0 1.414-.525 1.554-1.239h-.581c-.119.462-.511.728-1.015.728-.679 0-1.106-.476-1.127-1.155v-.049h2.772c.007-.084.014-.168.014-.245-.028-1.057-.686-1.694-1.694-1.694s-1.694.742-1.694 1.827c0 1.092.7 1.827 1.771 1.827zm-1.134-2.191a1.057 1.057 0 011.064-.959c.595 0 1.015.343 1.071.959h-2.135zM55.613 10h.65l1.044-1.435L58.35 10h.686L57.67 8.166l1.274-1.736h-.651l-.96 1.323-.944-1.323h-.686l1.267 1.736L55.613 10zm5.282.042c.868 0 1.45-.49 1.59-1.26h-.61c-.112.455-.462.749-.973.749-.686 0-1.148-.532-1.148-1.309 0-.777.462-1.323 1.148-1.323.525 0 .875.287.98.763h.602c-.147-.784-.7-1.274-1.575-1.274-1.036 0-1.743.742-1.743 1.834 0 1.113.686 1.82 1.73 1.82zm3.864 0c.826 0 1.414-.525 1.554-1.239h-.581c-.12.462-.511.728-1.015.728-.68 0-1.106-.476-1.127-1.155v-.049h2.772c.007-.084.014-.168.014-.245-.028-1.057-.686-1.694-1.694-1.694s-1.694.742-1.694 1.827c0 1.092.7 1.827 1.77 1.827zm-1.134-2.191a1.057 1.057 0 011.064-.959c.595 0 1.015.343 1.07.959h-2.134zm5.05 2.191c.827 0 1.415-.525 1.555-1.239h-.581c-.12.462-.511.728-1.015.728-.68 0-1.106-.476-1.127-1.155v-.049h2.772c.007-.084.014-.168.014-.245-.028-1.057-.686-1.694-1.694-1.694s-1.694.742-1.694 1.827c0 1.092.7 1.827 1.77 1.827zm-1.133-2.191a1.057 1.057 0 011.064-.959c.595 0 1.015.343 1.07.959h-2.134zm6.22-.875c-.217-.343-.623-.588-1.225-.588-.987 0-1.715.735-1.715 1.827 0 1.162.728 1.827 1.715 1.827.602 0 .987-.287 1.225-.616l.077.574h.497V5.1h-.574v1.876zm-1.17 2.555c-.706 0-1.182-.539-1.182-1.316s.476-1.316 1.183-1.316c.7 0 1.176.546 1.176 1.33 0 .763-.476 1.302-1.176 1.302zm7.172-2.555c-.217-.343-.623-.588-1.225-.588-.987 0-1.715.735-1.715 1.827 0 1.162.728 1.827 1.715 1.827.602 0 .987-.287 1.225-.616l.077.574h.497V5.1h-.574v1.876zm-1.17 2.555c-.706 0-1.182-.539-1.182-1.316s.476-1.316 1.183-1.316c.7 0 1.176.546 1.176 1.33 0 .763-.476 1.302-1.176 1.302zm4.17.511c.827 0 1.415-.525 1.555-1.239h-.582c-.118.462-.51.728-1.014.728-.68 0-1.106-.476-1.127-1.155v-.049h2.772c.007-.084.014-.168.014-.245-.029-1.057-.687-1.694-1.695-1.694-1.007 0-1.694.742-1.694 1.827 0 1.092.7 1.827 1.772 1.827zm-1.133-2.191a1.057 1.057 0 011.064-.959c.595 0 1.015.343 1.07.959H81.63zm5.204-1.463c-.601 0-.986.287-1.224.616l-.078-.574h-.496v4.97h.573V9.454c.218.343.624.588 1.225.588.988 0 1.716-.735 1.716-1.827 0-1.162-.728-1.827-1.716-1.827zm-.055 3.143c-.7 0-1.177-.546-1.177-1.33 0-.763.477-1.302 1.177-1.302.707 0 1.183.539 1.183 1.316s-.476 1.316-1.183 1.316zm4.072.511c1.042 0 1.77-.742 1.77-1.827s-.728-1.827-1.77-1.827c-1.044 0-1.772.742-1.772 1.827s.728 1.827 1.772 1.827zm0-.511c-.708 0-1.184-.553-1.184-1.316s.476-1.316 1.183-1.316c.707 0 1.183.553 1.183 1.316s-.476 1.316-1.183 1.316zm2.268-.707c.014.784.651 1.218 1.575 1.218.791 0 1.428-.413 1.428-1.078 0-.791-.651-.945-1.463-1.043-.518-.063-.896-.112-.896-.504 0-.329.336-.539.833-.539.49 0 .826.273.868.637h.588c-.056-.742-.644-1.12-1.456-1.127-.805-.007-1.4.42-1.4 1.071 0 .742.637.903 1.435 1.001.532.063.924.098.924.546 0 .329-.357.546-.861.546-.595 0-.966-.308-.987-.728h-.588zm3.934-2.996a.36.36 0 00.371-.371.36.36 0 00-.37-.371.36.36 0 00-.372.371.36.36 0 00.371.371zM96.76 10h.574V6.43h-.574V10zm1.626-.931c0 .63.246.931.931.931h.624v-.525h-.567c-.308 0-.413-.112-.413-.413V6.955h.924V6.43h-.925V5.429h-.573V6.43h-.644v.525h.644v2.114zm1.905-.245c.014.784.651 1.218 1.575 1.218.791 0 1.428-.413 1.428-1.078 0-.791-.651-.945-1.463-1.043-.518-.063-.896-.112-.896-.504 0-.329.336-.539.833-.539.49 0 .826.273.868.637h.588c-.056-.742-.644-1.12-1.456-1.127-.805-.007-1.4.42-1.4 1.071 0 .742.637.903 1.435 1.001.532.063.924.098.924.546 0 .329-.357.546-.861.546-.595 0-.966-.308-.987-.728h-.588zm3.515.826c0 .238.168.392.399.392s.399-.154.399-.392c0-.238-.168-.392-.399-.392s-.399.154-.399.392zM15.14 13.66h1.589V18h.609v-4.34h1.589v-.56H15.14v.56zm6.07.728c-.603 0-.967.294-1.177.63V13.1h-.574V18h.574v-1.785c0-.805.413-1.302 1.078-1.302.616 0 .973.392.973 1.134V18h.574v-1.988c0-1.183-.65-1.624-1.449-1.624zm2.474-.56a.36.36 0 00.371-.371.36.36 0 00-.371-.371.36.36 0 00-.371.371.36.36 0 00.371.371zM23.39 18h.574v-3.57h-.574V18zm1.213-1.176c.014.784.651 1.218 1.575 1.218.791 0 1.428-.413 1.428-1.078 0-.791-.65-.945-1.463-1.043-.518-.063-.896-.112-.896-.504 0-.329.336-.539.833-.539.49 0 .826.273.868.637h.588c-.056-.742-.644-1.12-1.456-1.127-.805-.007-1.4.42-1.4 1.071 0 .742.637.903 1.435 1.001.532.063.924.098.924.546 0 .329-.357.546-.86.546-.596 0-.967-.308-.988-.728h-.588zm8.63.651c-.161 0-.231-.049-.231-.238v-1.561c0-.833-.525-1.288-1.435-1.288-.861 0-1.428.413-1.512 1.113h.574c.07-.364.406-.602.91-.602.56 0 .889.28.889.742v.245h-1.05c-.938 0-1.435.399-1.435 1.113 0 .651.532 1.043 1.316 1.043.616 0 .973-.273 1.197-.595.007.35.168.553.644.553h.315v-.525h-.182zm-.805-.931c0 .595-.413 1.008-1.127 1.008-.476 0-.777-.238-.777-.588 0-.406.287-.595.798-.595h1.106v.175zm4.2-1.568c-.216-.343-.622-.588-1.224-.588-.987 0-1.715.735-1.715 1.827 0 1.162.728 1.827 1.715 1.827.602 0 .987-.287 1.225-.616l.077.574h.497v-4.9h-.574v1.876zm-1.168 2.555c-.707 0-1.183-.539-1.183-1.316s.476-1.316 1.183-1.316c.7 0 1.176.546 1.176 1.33 0 .763-.476 1.302-1.176 1.302zm3.505.469h.693l1.337-3.57h-.602l-1.071 2.919-1.078-2.919h-.616L38.965 18zm3.946.042c.826 0 1.414-.525 1.554-1.239h-.581c-.119.462-.511.728-1.015.728-.679 0-1.106-.476-1.127-1.155v-.049h2.772c.007-.084.014-.168.014-.245-.028-1.057-.686-1.694-1.694-1.694s-1.694.742-1.694 1.827c0 1.092.7 1.827 1.771 1.827zm-1.134-2.191a1.057 1.057 0 011.064-.959c.595 0 1.015.343 1.071.959h-2.135zm5.058-1.421c-.637 0-.91.266-1.078.539l-.077-.539h-.497V18h.574v-1.82c0-.567.203-1.19.952-1.19h.287v-.56h-.161zm1.04 2.639c0 .63.246.931.932.931h.623v-.525h-.567c-.308 0-.413-.112-.413-.413v-2.107h.924v-.525h-.924v-1.001h-.574v1.001h-.644v.525h.644v2.114zm2.346-3.241a.36.36 0 00.371-.371.36.36 0 00-.37-.371.36.36 0 00-.372.371.36.36 0 00.371.371zM49.927 18h.574v-3.57h-.574V18zm1.214-1.176c.014.784.65 1.218 1.575 1.218.79 0 1.428-.413 1.428-1.078 0-.791-.651-.945-1.463-1.043-.518-.063-.896-.112-.896-.504 0-.329.336-.539.833-.539.49 0 .825.273.867.637h.589c-.056-.742-.645-1.12-1.456-1.127-.806-.007-1.4.42-1.4 1.071 0 .742.636.903 1.434 1.001.532.063.925.098.925.546 0 .329-.358.546-.861.546-.596 0-.967-.308-.988-.728h-.587zm5.285 1.218c.826 0 1.414-.525 1.554-1.239h-.581c-.12.462-.511.728-1.015.728-.68 0-1.106-.476-1.127-1.155v-.049h2.772c.007-.084.014-.168.014-.245-.028-1.057-.686-1.694-1.694-1.694s-1.694.742-1.694 1.827c0 1.092.7 1.827 1.77 1.827zm-1.134-2.191a1.057 1.057 0 011.064-.959c.595 0 1.015.343 1.07.959h-2.134zm7.389-1.463c-.637 0-1.022.294-1.24.679-.202-.455-.63-.679-1.126-.679a1.21 1.21 0 00-1.043.532l-.077-.49h-.497V18h.574v-1.883c0-.714.357-1.204.945-1.204.546 0 .86.364.86 1.064V18h.575v-1.911c0-.728.364-1.176.959-1.176.539 0 .847.364.847 1.064V18h.574v-2.058c0-1.127-.61-1.554-1.351-1.554zm3.691 3.654c.826 0 1.414-.525 1.554-1.239h-.581c-.119.462-.511.728-1.015.728-.679 0-1.106-.476-1.127-1.155v-.049h2.772c.007-.084.014-.168.014-.245-.028-1.057-.686-1.694-1.694-1.694s-1.694.742-1.694 1.827c0 1.092.7 1.827 1.771 1.827zm-1.134-2.191a1.057 1.057 0 011.064-.959c.595 0 1.015.343 1.071.959h-2.135zm5.156-1.463c-.602 0-.966.252-1.176.525l-.077-.483h-.497V18h.574v-1.785c0-.805.406-1.302 1.078-1.302.623 0 .966.392.966 1.134V18h.574v-1.988c0-1.183-.637-1.624-1.442-1.624zm2.44 2.681c0 .63.245.931.93.931h.624v-.525h-.567c-.308 0-.413-.112-.413-.413v-2.107h.924v-.525h-.924v-1.001h-.574v1.001h-.644v.525h.644v2.114zm5.633-2.681c-.602 0-.966.294-1.176.63V13.1h-.574V18h.574v-1.785c0-.805.413-1.302 1.078-1.302.616 0 .973.392.973 1.134V18h.574v-1.988c0-1.183-.65-1.624-1.449-1.624zm5.338 3.087c-.161 0-.231-.049-.231-.238v-1.561c0-.833-.525-1.288-1.435-1.288-.861 0-1.428.413-1.512 1.113h.574c.07-.364.406-.602.91-.602.56 0 .889.28.889.742v.245h-1.05c-.938 0-1.435.399-1.435 1.113 0 .651.532 1.043 1.316 1.043.616 0 .973-.273 1.197-.595.007.35.168.553.644.553h.315v-.525h-.182zM83 16.544c0 .595-.413 1.008-1.127 1.008-.476 0-.777-.238-.777-.588 0-.406.287-.595.798-.595H83v.175zm1.281.28c.014.784.651 1.218 1.575 1.218.791 0 1.428-.413 1.428-1.078 0-.791-.65-.945-1.463-1.043-.518-.063-.896-.112-.896-.504 0-.329.336-.539.833-.539.49 0 .826.273.868.637h.588c-.056-.742-.644-1.12-1.456-1.127-.805-.007-1.4.42-1.4 1.071 0 .742.637.903 1.435 1.001.532.063.924.098.924.546 0 .329-.357.546-.86.546-.596 0-.967-.308-.988-.728h-.588zm7.222-2.436c-.602 0-.966.252-1.176.525l-.077-.483h-.497V18h.574v-1.785c0-.805.406-1.302 1.078-1.302.623 0 .966.392.966 1.134V18h.574v-1.988c0-1.183-.637-1.624-1.442-1.624zm3.778 3.654c1.043 0 1.771-.742 1.771-1.827s-.728-1.827-1.77-1.827c-1.044 0-1.772.742-1.772 1.827s.728 1.827 1.771 1.827zm0-.511c-.707 0-1.183-.553-1.183-1.316s.476-1.316 1.183-1.316c.707 0 1.183.553 1.183 1.316s-.476 1.316-1.183 1.316zm2.654-.462c0 .63.245.931.931.931h.623v-.525h-.567c-.308 0-.413-.112-.413-.413v-2.107h.924v-.525h-.924v-1.001h-.574v1.001h-.644v.525h.644v2.114zm5.683-2.681c-.602 0-.987.287-1.225.616V13.1h-.574V18h.497l.077-.546c.217.343.623.588 1.225.588.987 0 1.715-.735 1.715-1.827 0-1.162-.728-1.827-1.715-1.827zm-.056 3.143c-.7 0-1.176-.546-1.176-1.33 0-.763.476-1.302 1.176-1.302.707 0 1.183.539 1.183 1.316s-.476 1.316-1.183 1.316zm4.072.511c.826 0 1.414-.525 1.554-1.239h-.581c-.119.462-.511.728-1.015.728-.679 0-1.106-.476-1.127-1.155v-.049h2.772c.007-.084.014-.168.014-.245-.028-1.057-.686-1.694-1.694-1.694s-1.694.742-1.694 1.827c0 1.092.7 1.827 1.771 1.827zm-1.134-2.191a1.057 1.057 0 011.064-.959c.595 0 1.015.343 1.071.959H106.5zm5.051 2.191c.826 0 1.414-.525 1.554-1.239h-.581c-.119.462-.511.728-1.015.728-.679 0-1.106-.476-1.127-1.155v-.049h2.772c.007-.084.014-.168.014-.245-.028-1.057-.686-1.694-1.694-1.694s-1.694.742-1.694 1.827c0 1.092.7 1.827 1.771 1.827zm-1.134-2.191a1.057 1.057 0 011.064-.959c.595 0 1.015.343 1.071.959h-2.135zm5.156-1.463c-.602 0-.966.252-1.176.525l-.077-.483h-.497V18h.574v-1.785c0-.805.406-1.302 1.078-1.302.623 0 .966.392.966 1.134V18h.574v-1.988c0-1.183-.637-1.624-1.442-1.624zm5.658.042c-.637 0-.91.266-1.078.539l-.077-.539h-.497V18h.574v-1.82c0-.567.203-1.19.952-1.19h.287v-.56h-.161zm2.098 3.612c.826 0 1.414-.525 1.554-1.239h-.581c-.119.462-.511.728-1.015.728-.679 0-1.106-.476-1.127-1.155v-.049h2.772c.007-.084.014-.168.014-.245-.028-1.057-.686-1.694-1.694-1.694s-1.694.742-1.694 1.827c0 1.092.7 1.827 1.771 1.827zm-1.134-2.191a1.057 1.057 0 011.064-.959c.595 0 1.015.343 1.071.959h-2.135zM126.424 18h.693l1.337-3.57h-.602l-1.071 2.919-1.078-2.919h-.616l1.337 3.57zm2.752-4.172a.36.36 0 00.371-.371.36.36 0 00-.371-.371.36.36 0 00-.371.371.36.36 0 00.371.371zM128.882 18h.574v-3.57h-.574V18zm3.006.042c.826 0 1.414-.525 1.554-1.239h-.581c-.119.462-.511.728-1.015.728-.679 0-1.106-.476-1.127-1.155v-.049h2.772c.007-.084.014-.168.014-.245-.028-1.057-.686-1.694-1.694-1.694s-1.694.742-1.694 1.827c0 1.092.7 1.827 1.771 1.827zm-1.134-2.191a1.057 1.057 0 011.064-.959c.595 0 1.015.343 1.071.959h-2.135zM134.862 18h.63l.896-2.653.861 2.653h.63l1.19-3.57h-.581l-.931 2.905-.889-2.905h-.532l-.938 2.905-.889-2.905h-.602l1.155 3.57zm6.186.042c.826 0 1.414-.525 1.554-1.239h-.581c-.119.462-.511.728-1.015.728-.679 0-1.106-.476-1.127-1.155v-.049h2.772c.007-.084.014-.168.014-.245-.028-1.057-.686-1.694-1.694-1.694s-1.694.742-1.694 1.827c0 1.092.7 1.827 1.771 1.827zm-1.134-2.191a1.057 1.057 0 011.064-.959c.595 0 1.015.343 1.071.959h-2.135zm6.22-.875c-.217-.343-.623-.588-1.225-.588-.987 0-1.715.735-1.715 1.827 0 1.162.728 1.827 1.715 1.827.602 0 .987-.287 1.225-.616l.077.574h.497v-4.9h-.574v1.876zm-1.169 2.555c-.707 0-1.183-.539-1.183-1.316s.476-1.316 1.183-1.316c.7 0 1.176.546 1.176 1.33 0 .763-.476 1.302-1.176 1.302zM17.191 22.388c-.602 0-.987.287-1.225.616V21.1h-.574V26h.497l.077-.546c.217.343.623.588 1.225.588.987 0 1.715-.735 1.715-1.827 0-1.162-.728-1.827-1.715-1.827zm-.056 3.143c-.7 0-1.176-.546-1.176-1.33 0-.763.476-1.302 1.176-1.302.707 0 1.183.539 1.183 1.316s-.476 1.316-1.183 1.316zm3.306.49l-.175.434c-.133.336-.19.42-.518.42h-.511v.525h.686c.504 0 .637-.224.86-.798l1.646-4.172h-.61l-1.063 2.849-1.1-2.849h-.608l1.393 3.591zm4.514-.952c0 .63.245.931.93.931h.624v-.525h-.567c-.308 0-.413-.112-.413-.413v-2.107h.924v-.525h-.924v-1.001h-.574v1.001h-.644v.525h.644v2.114zm3.801-2.681c-.602 0-.966.294-1.176.63V21.1h-.574V26h.574v-1.785c0-.805.413-1.302 1.078-1.302.616 0 .973.392.973 1.134V26h.574v-1.988c0-1.183-.65-1.624-1.449-1.624zm3.785 3.654c.826 0 1.414-.525 1.554-1.239h-.581c-.12.462-.511.728-1.015.728-.68 0-1.106-.476-1.127-1.155v-.049h2.772c.007-.084.014-.168.014-.245-.028-1.057-.686-1.694-1.694-1.694s-1.694.742-1.694 1.827c0 1.092.7 1.827 1.77 1.827zm-1.134-2.191a1.057 1.057 0 011.064-.959c.595 0 1.015.343 1.07.959h-2.134zM36.729 26h.595v-3.864L38.948 26h.539l1.624-3.864V26h.595v-4.9h-.756l-1.715 4.067-1.736-4.067h-.77V26zm7.488.042c1.043 0 1.77-.742 1.77-1.827s-.727-1.827-1.77-1.827c-1.043 0-1.771.742-1.771 1.827s.728 1.827 1.77 1.827zm0-.511c-.707 0-1.183-.553-1.183-1.316s.476-1.316 1.183-1.316c.707 0 1.183.553 1.183 1.316s-.476 1.316-1.183 1.316zm4.179-3.143c-.602 0-.966.252-1.176.525l-.077-.483h-.497V26h.574v-1.785c0-.805.406-1.302 1.078-1.302.623 0 .966.392.966 1.134V26h.574v-1.988c0-1.183-.637-1.624-1.442-1.624zm3.778 3.654c.826 0 1.414-.525 1.554-1.239h-.581c-.12.462-.511.728-1.015.728-.68 0-1.106-.476-1.127-1.155v-.049h2.772c.007-.084.014-.168.014-.245-.028-1.057-.686-1.694-1.694-1.694s-1.694.742-1.694 1.827c0 1.092.7 1.827 1.77 1.827zm-1.134-2.191a1.057 1.057 0 011.064-.959c.595 0 1.015.343 1.07.959H51.04zm3.63 1.218c0 .63.246.931.932.931h.623v-.525h-.567c-.308 0-.413-.112-.413-.413v-2.107h.924v-.525h-.924v-1.001h-.574v1.001h-.644v.525h.644v2.114zm5.154.406c-.16 0-.23-.049-.23-.238v-1.561c0-.833-.526-1.288-1.436-1.288-.86 0-1.428.413-1.512 1.113h.574c.07-.364.406-.602.91-.602.56 0 .89.28.89.742v.245h-1.05c-.939 0-1.436.399-1.436 1.113 0 .651.532 1.043 1.316 1.043.616 0 .973-.273 1.197-.595.007.35.168.553.644.553h.315v-.525h-.182zm-.805-.931c0 .595-.413 1.008-1.127 1.008-.476 0-.777-.238-.777-.588 0-.406.287-.595.798-.595h1.106v.175zm3.08-2.114c-.636 0-.91.266-1.077.539l-.077-.539h-.497V26h.574v-1.82c0-.567.203-1.19.952-1.19h.287v-.56H62.1zm1.723 3.591l-.175.434c-.133.336-.19.42-.518.42h-.511v.525h.686c.504 0 .637-.224.86-.798l1.646-4.172h-.61l-1.063 2.849-1.1-2.849h-.608l1.393 3.591zM68.385 26l.518-1.323h2.135L71.556 26h.65l-1.861-4.9h-.721l-1.87 4.9h.63zm1.582-4.235l.889 2.359h-1.771l.882-2.359zm5.093 2.45c0 .805-.392 1.302-1.043 1.302-.595 0-.931-.392-.931-1.134V22.43h-.574v1.988c0 1.183.623 1.624 1.407 1.624.588 0 .93-.252 1.14-.518l.078.476h.497v-3.57h-.574v1.785zm1.636.854c0 .63.245.931.931.931h.623v-.525h-.567c-.308 0-.413-.112-.413-.413v-2.107h.924v-.525h-.924v-1.001h-.574v1.001h-.644v.525h.644v2.114zm3.802-2.681c-.603 0-.967.294-1.177.63V21.1h-.573V26h.573v-1.785c0-.805.413-1.302 1.079-1.302.615 0 .972.392.972 1.134V26h.575v-1.988c0-1.183-.651-1.624-1.45-1.624zm3.784 3.654c1.043 0 1.771-.742 1.771-1.827s-.728-1.827-1.77-1.827c-1.044 0-1.772.742-1.772 1.827s.728 1.827 1.771 1.827zm0-.511c-.707 0-1.183-.553-1.183-1.316s.476-1.316 1.183-1.316c.707 0 1.183.553 1.183 1.316s-.476 1.316-1.183 1.316zm4.081-3.101c-.637 0-.91.266-1.078.539l-.077-.539h-.497V26h.574v-1.82c0-.567.203-1.19.952-1.19h.287v-.56h-.16zm.953-.602a.36.36 0 00.37-.371.36.36 0 00-.37-.371.36.36 0 00-.371.371.36.36 0 00.37.371zM89.022 26h.574v-3.57h-.574V26zm1.626-.931c0 .63.245.931.931.931h.623v-.525h-.567c-.308 0-.413-.112-.413-.413v-2.107h.924v-.525h-.924v-1.001h-.574v1.001h-.644v.525h.644v2.114zm3.088.952l-.175.434c-.133.336-.19.42-.518.42h-.511v.525h.686c.504 0 .637-.224.86-.798l1.646-4.172h-.61l-1.063 2.849-1.1-2.849h-.608l1.393 3.591zm5.893.021c1.043 0 1.771-.742 1.771-1.827s-.728-1.827-1.771-1.827-1.771.742-1.771 1.827.728 1.827 1.77 1.827zm0-.511c-.707 0-1.183-.553-1.183-1.316s.476-1.316 1.183-1.316c.707 0 1.183.553 1.183 1.316s-.476 1.316-1.183 1.316zm2.01-2.576h.644V26h.574v-3.045h1.008v-.525h-1.008v-.413c0-.273.105-.392.392-.392h.616V21.1h-.651c-.665 0-.931.301-.931.931v.399h-.644v.525zM106 24.397c.035.966.735 1.645 1.932 1.645 1.029 0 1.743-.595 1.743-1.442 0-.952-.819-1.218-1.617-1.351-.735-.126-1.33-.245-1.33-.833 0-.525.427-.805 1.064-.805.665 0 1.12.371 1.19.938h.63c-.056-.882-.728-1.491-1.82-1.491-.994 0-1.673.56-1.673 1.393 0 .952.812 1.211 1.603 1.344.742.126 1.344.252 1.344.861 0 .532-.469.833-1.127.833-.749 0-1.26-.434-1.309-1.092H106zm4.658-2.569a.36.36 0 00.371-.371.36.36 0 00-.371-.371.36.36 0 00-.371.371.36.36 0 00.371.371zM110.364 26h.574v-3.57h-.574V26zm3.11-3.612c-.602 0-.966.252-1.176.525l-.077-.483h-.497V26h.574v-1.785c0-.805.406-1.302 1.078-1.302.623 0 .966.392.966 1.134V26h.574v-1.988c0-1.183-.637-1.624-1.442-1.624zm4.988.658c-.224-.399-.623-.658-1.225-.658-.987 0-1.715.735-1.715 1.827 0 1.162.728 1.827 1.715 1.827.602 0 .987-.252 1.225-.658v.42c0 .777-.406 1.127-1.155 1.127-.595 0-.994-.252-1.092-.7h-.588c.091.784.728 1.211 1.638 1.211 1.225 0 1.771-.588 1.771-1.617V22.43h-.497l-.077.616zm-1.169 2.485c-.707 0-1.183-.539-1.183-1.316s.476-1.316 1.183-1.316c.7 0 1.176.546 1.176 1.33 0 .763-.476 1.302-1.176 1.302zm5.682-.056c-.161 0-.231-.049-.231-.238v-1.561c0-.833-.525-1.288-1.435-1.288-.861 0-1.428.413-1.512 1.113h.574c.07-.364.406-.602.91-.602.56 0 .889.28.889.742v.245h-1.05c-.938 0-1.435.399-1.435 1.113 0 .651.532 1.043 1.316 1.043.616 0 .973-.273 1.197-.595.007.35.168.553.644.553h.315v-.525h-.182zm-.805-.931c0 .595-.413 1.008-1.127 1.008-.476 0-.777-.238-.777-.588 0-.406.287-.595.798-.595h1.106v.175zm3.227-2.156c-.602 0-.987.287-1.225.616l-.077-.574h-.497v4.97h.574v-1.946c.217.343.623.588 1.225.588.987 0 1.715-.735 1.715-1.827 0-1.162-.728-1.827-1.715-1.827zm-.056 3.143c-.7 0-1.176-.546-1.176-1.33 0-.763.476-1.302 1.176-1.302.707 0 1.183.539 1.183 1.316s-.476 1.316-1.183 1.316zm4.072.511c1.043 0 1.771-.742 1.771-1.827s-.728-1.827-1.771-1.827-1.771.742-1.771 1.827.728 1.827 1.771 1.827zm0-.511c-.707 0-1.183-.553-1.183-1.316s.476-1.316 1.183-1.316c.707 0 1.183.553 1.183 1.316s-.476 1.316-1.183 1.316zm4.081-3.101c-.637 0-.91.266-1.078.539l-.077-.539h-.497V26h.574v-1.82c0-.567.203-1.19.952-1.19h.287v-.56h-.161zm2.099 3.612c.826 0 1.414-.525 1.554-1.239h-.581c-.119.462-.511.728-1.015.728-.679 0-1.106-.476-1.127-1.155v-.049h2.772c.007-.084.014-.168.014-.245-.028-1.057-.686-1.694-1.694-1.694s-1.694.742-1.694 1.827c0 1.092.7 1.827 1.771 1.827zm-1.134-2.191a1.057 1.057 0 011.064-.959c.595 0 1.015.343 1.071.959h-2.135zm3.103 1.799c0 .238.168.392.399.392s.399-.154.399-.392c0-.238-.168-.392-.399-.392s-.399.154-.399.392z" fill="#000"/></svg>