<svg width="143" height="84" viewBox="0 0 143 84" fill="none" xmlns="http://www.w3.org/2000/svg"><path d="M.38 2.638h4.104V14h2.185V2.638h4.104V.7H.38v1.938zm15.79 1.634c-1.596 0-2.375.646-2.869 1.463l-.228-1.463H11.25V14h2.052V9.117c0-1.501.59-2.926 2.413-2.926h.912V4.272h-.456zm10.317 7.942c-.418 0-.627-.133-.627-.627V7.692c0-2.299-1.482-3.534-4.066-3.534-2.451 0-4.085 1.178-4.294 3.078h2.014c.152-.855.969-1.425 2.185-1.425 1.349 0 2.128.665 2.128 1.748v.589h-2.451c-2.717 0-4.161 1.121-4.161 3.116 0 1.805 1.482 2.85 3.61 2.85 1.577 0 2.565-.684 3.21-1.672 0 .969.457 1.558 1.787 1.558h1.083v-1.786h-.418zm-2.66-2.204c-.02 1.501-1.007 2.508-2.717 2.508-1.121 0-1.805-.57-1.805-1.387 0-.988.703-1.463 1.976-1.463h2.546v.342zm11.512-4.389c-.627-.855-1.672-1.463-3.154-1.463-2.64 0-4.598 1.976-4.598 4.978 0 3.116 1.957 4.978 4.598 4.978 1.54 0 2.546-.722 3.173-1.577L35.605 14h1.786V.7H35.34v4.921zm-2.812 6.764c-1.71 0-2.83-1.33-2.83-3.249 0-1.9 1.12-3.23 2.83-3.23s2.831 1.33 2.831 3.268c0 1.881-1.12 3.211-2.83 3.211zm11.487 1.729c2.413 0 4.047-1.463 4.389-3.382H46.35c-.285 1.083-1.197 1.71-2.451 1.71-1.615 0-2.66-1.083-2.717-2.736v-.133h7.334c.038-.266.057-.532.057-.779-.057-2.85-1.938-4.636-4.75-4.636-2.87 0-4.788 1.995-4.788 4.997 0 2.983 1.919 4.959 4.978 4.959zm-2.755-6.042c.152-1.387 1.273-2.261 2.584-2.261 1.425 0 2.432.817 2.603 2.261h-5.187zm14.538 3.287c0 1.767.798 2.641 2.66 2.641h1.9v-1.805h-1.444c-.78 0-1.045-.285-1.045-1.045V6.077h2.375V4.272h-2.375V1.555h-2.071v2.717h-1.691v1.805h1.69v5.282zm10.278 2.755c2.413 0 4.047-1.463 4.39-3.382h-2.053c-.285 1.083-1.197 1.71-2.45 1.71-1.616 0-2.66-1.083-2.718-2.736v-.133h7.334c.038-.266.057-.532.057-.779-.057-2.85-1.938-4.636-4.75-4.636-2.869 0-4.788 1.995-4.788 4.997 0 2.983 1.92 4.959 4.978 4.959zM63.32 8.072c.152-1.387 1.273-2.261 2.584-2.261 1.425 0 2.432.817 2.603 2.261H63.32zm13.44 6.042c2.488 0 4.141-1.387 4.521-3.591h-2.166c-.247 1.121-1.083 1.843-2.337 1.843-1.653 0-2.736-1.311-2.736-3.211 0-1.919 1.083-3.249 2.736-3.249 1.273 0 2.09.703 2.356 1.843h2.147c-.399-2.204-1.957-3.591-4.465-3.591-2.945 0-4.883 1.995-4.883 4.997 0 3.04 1.881 4.959 4.826 4.959zm11.203-9.956c-1.52 0-2.451.684-3.06 1.52V.7h-2.051V14h2.052V9.079c0-1.957.988-3.154 2.603-3.154 1.52 0 2.337.988 2.337 2.831V14h2.052V8.585c0-3.249-1.767-4.427-3.933-4.427zM5.624 37.114c2.413 0 4.047-1.463 4.389-3.382H7.961c-.285 1.083-1.197 1.71-2.451 1.71-1.615 0-2.66-1.083-2.717-2.736v-.133h7.334c.038-.266.057-.532.057-.779-.057-2.85-1.938-4.636-4.75-4.636-2.869 0-4.788 1.995-4.788 4.997 0 2.983 1.919 4.959 4.978 4.959zm-2.755-6.042c.152-1.387 1.273-2.261 2.584-2.261 1.425 0 2.432.817 2.603 2.261H2.869zm17.866 4.142c-.418 0-.627-.133-.627-.627v-3.895c0-2.299-1.482-3.534-4.066-3.534-2.451 0-4.085 1.178-4.294 3.078h2.014c.152-.855.969-1.425 2.185-1.425 1.349 0 2.128.665 2.128 1.748v.589h-2.451c-2.717 0-4.161 1.121-4.161 3.116 0 1.805 1.482 2.85 3.61 2.85 1.577 0 2.565-.684 3.21-1.672 0 .969.457 1.558 1.787 1.558h1.083v-1.786h-.418zm-2.66-2.204c-.02 1.501-1.007 2.508-2.717 2.508-1.121 0-1.805-.57-1.805-1.387 0-.988.703-1.463 1.976-1.463h2.546v.342zm9.117-5.738c-1.596 0-2.375.646-2.87 1.463l-.227-1.463H22.27V37h2.052v-4.883c0-1.501.589-2.926 2.413-2.926h.912v-1.919h-.456zm6.851-.114c-1.577 0-2.508.627-3.116 1.387l-.228-1.273h-1.786V37h2.052v-4.902c0-1.976.97-3.173 2.603-3.173 1.54 0 2.318.988 2.318 2.831V37h2.071v-5.415c0-3.249-1.767-4.427-3.914-4.427zm6.825-1.254c.703 0 1.254-.513 1.254-1.235 0-.722-.55-1.235-1.254-1.235-.703 0-1.254.513-1.254 1.235 0 .722.551 1.235 1.254 1.235zM39.823 37h2.052v-9.728h-2.052V37zm9.194-9.842c-1.577 0-2.508.627-3.116 1.387l-.228-1.273h-1.786V37h2.052v-4.902c0-1.976.969-3.173 2.603-3.173 1.539 0 2.318.988 2.318 2.831V37h2.07v-5.415c0-3.249-1.766-4.427-3.913-4.427zm13.209 1.634c-.627-.969-1.672-1.634-3.192-1.634-2.641 0-4.598 1.957-4.598 4.94 0 3.097 1.957 4.94 4.598 4.94 1.52 0 2.527-.627 3.173-1.596v1.083c0 1.862-1.007 2.717-2.793 2.717-1.444 0-2.394-.627-2.641-1.71h-2.09c.19 2.185 1.995 3.382 4.579 3.382 3.496 0 4.978-1.672 4.978-4.313v-9.329h-1.786l-.228 1.52zm-2.85 6.517c-1.71 0-2.831-1.311-2.831-3.211 0-1.881 1.121-3.211 2.831-3.211s2.831 1.33 2.831 3.249c0 1.862-1.121 3.173-2.831 3.173zm6.451-1.52c.057 2.109 1.843 3.325 4.446 3.325 2.356 0 4.123-1.178 4.123-3.04 0-2.166-1.805-2.622-4.028-2.888-1.406-.152-2.337-.266-2.337-1.178 0-.779.798-1.273 2.014-1.273 1.216 0 2.052.627 2.166 1.52h2.014c-.133-1.995-1.824-3.097-4.218-3.097-2.337-.019-3.99 1.178-3.99 3.021 0 2.014 1.748 2.489 3.971 2.755 1.501.19 2.394.266 2.394 1.311 0 .779-.836 1.273-2.109 1.273-1.482 0-2.356-.722-2.432-1.729h-2.014zm16.066-7.885c.703 0 1.254-.513 1.254-1.235 0-.722-.551-1.235-1.254-1.235s-1.254.513-1.254 1.235c0 .722.55 1.235 1.254 1.235zM80.848 37H82.9v-9.728h-2.052V37zm9.193-9.842c-1.577 0-2.508.627-3.116 1.387l-.228-1.273h-1.786V37h2.052v-4.902c0-1.976.97-3.173 2.603-3.173 1.54 0 2.318.988 2.318 2.831V37h2.071v-5.415c0-3.249-1.767-4.427-3.914-4.427zM5.928 50.272c-1.596 0-2.375.646-2.869 1.463l-.228-1.463H1.007V60h2.052v-4.883c0-1.501.589-2.926 2.413-2.926h.912v-1.919h-.456zm5.875 9.842c2.413 0 4.047-1.463 4.389-3.382H14.14c-.285 1.083-1.197 1.71-2.451 1.71-1.615 0-2.66-1.083-2.717-2.736v-.133h7.334c.038-.266.057-.532.057-.779-.057-2.85-1.938-4.636-4.75-4.636-2.87 0-4.788 1.995-4.788 4.997 0 2.983 1.919 4.959 4.978 4.959zm-2.755-6.042c.152-1.387 1.273-2.261 2.584-2.261 1.425 0 2.432.817 2.603 2.261H9.048zm17.866 4.142c-.418 0-.627-.133-.627-.627v-3.895c0-2.299-1.482-3.534-4.066-3.534-2.451 0-4.085 1.178-4.294 3.078h2.014c.152-.855.969-1.425 2.185-1.425 1.349 0 2.128.665 2.128 1.748v.589h-2.451c-2.717 0-4.161 1.121-4.161 3.116 0 1.805 1.482 2.85 3.61 2.85 1.577 0 2.565-.684 3.21-1.672 0 .969.457 1.558 1.787 1.558h1.083v-1.786h-.418zm-2.66-2.204c-.02 1.501-1.007 2.508-2.717 2.508-1.121 0-1.805-.57-1.805-1.387 0-.988.703-1.463 1.976-1.463h2.546v.342zM28.449 60h2.052V46.7H28.45V60zm10.41-4.56v-1.691h-6.46v1.691h6.46zm2.41 1.919c0 1.767.798 2.641 2.66 2.641h1.9v-1.805h-1.444c-.78 0-1.045-.285-1.045-1.045v-5.073h2.375v-1.805H43.34v-2.717h-2.071v2.717h-1.691v1.805h1.69v5.282zm6.91-8.455c.703 0 1.254-.513 1.254-1.235 0-.722-.551-1.235-1.254-1.235s-1.254.513-1.254 1.235c0 .722.551 1.235 1.254 1.235zM47.134 60h2.052v-9.728h-2.052V60zm15.254-9.842c-1.596 0-2.698.703-3.325 1.767-.589-1.254-1.729-1.767-3.002-1.767-1.463.019-2.299.665-2.85 1.387l-.228-1.273h-1.786V60h2.052v-5.206c0-1.729.874-2.869 2.28-2.869 1.35 0 2.052.893 2.052 2.603V60h2.071v-5.263c0-1.748.893-2.812 2.3-2.812 1.33 0 2.032.893 2.032 2.603V60h2.052v-5.605c0-3.078-1.634-4.237-3.648-4.237zm10.051 9.956c2.413 0 4.047-1.463 4.39-3.382h-2.053c-.285 1.083-1.197 1.71-2.45 1.71-1.616 0-2.66-1.083-2.718-2.736v-.133h7.334c.038-.266.057-.532.057-.779-.057-2.85-1.938-4.636-4.75-4.636-2.869 0-4.788 1.995-4.788 4.997 0 2.983 1.92 4.959 4.978 4.959zm-2.755-6.042c.152-1.387 1.273-2.261 2.584-2.261 1.425 0 2.432.817 2.603 2.261h-5.187zM9.9 81.214c-.418 0-.627-.133-.627-.627v-3.895c0-2.299-1.482-3.534-4.066-3.534-2.451 0-4.085 1.178-4.294 3.078h2.014c.152-.855.969-1.425 2.185-1.425 1.349 0 2.128.665 2.128 1.748v.589H4.788c-2.717 0-4.161 1.121-4.161 3.116 0 1.805 1.482 2.85 3.61 2.85 1.577 0 2.565-.684 3.211-1.672 0 .969.456 1.558 1.786 1.558h1.083v-1.786h-.418zm-2.66-2.204c-.019 1.501-1.007 2.508-2.717 2.508-1.121 0-1.805-.57-1.805-1.387 0-.988.703-1.463 1.976-1.463h2.546v.342zm3.778.779c.057 2.109 1.843 3.325 4.446 3.325 2.356 0 4.123-1.178 4.123-3.04 0-2.166-1.805-2.622-4.028-2.888-1.406-.152-2.337-.266-2.337-1.178 0-.779.798-1.273 2.014-1.273 1.216 0 2.052.627 2.166 1.52h2.014c-.133-1.995-1.824-3.097-4.218-3.097-2.337-.019-3.99 1.178-3.99 3.021 0 2.014 1.748 2.489 3.97 2.755 1.502.19 2.395.266 2.395 1.311 0 .779-.836 1.273-2.11 1.273-1.481 0-2.355-.722-2.431-1.729h-2.014zm27.161 1.273c-.399 0-.665-.114-.912-.361.893-1.14 1.387-2.66 1.387-4.351 0-3.895-2.64-6.764-6.46-6.764-3.819 0-6.46 2.869-6.46 6.764s2.641 6.764 6.46 6.764c1.444 0 2.717-.399 3.743-1.121l.057.076c.475.627.97.931 2.052.931h1.292v-1.938h-1.159zm-5.985.133c-2.527 0-4.218-2.033-4.218-4.845s1.691-4.845 4.218-4.845 4.218 2.033 4.218 4.845c0 .95-.19 1.824-.55 2.546l-.4-.513c-.456-.608-.893-.931-1.88-.931h-1.426v1.9h1.178c.456 0 .741.209 1.064.646l.285.38c-.665.513-1.52.817-2.489.817zm10.408-10.146c0 .703-.285 1.197-.969 1.197h-2.07v1.805h2.165c.361 0 .646-.057.836-.171V83h2.11V69.7H42.6v1.349zm10.217.855c.703 0 1.254-.513 1.254-1.235 0-.722-.551-1.235-1.254-1.235s-1.254.513-1.254 1.235c0 .722.55 1.235 1.254 1.235zM51.773 83h2.052v-9.728h-2.052V83zm3.645-3.211c.057 2.109 1.843 3.325 4.446 3.325 2.356 0 4.123-1.178 4.123-3.04 0-2.166-1.805-2.622-4.028-2.888-1.406-.152-2.337-.266-2.337-1.178 0-.779.798-1.273 2.014-1.273 1.216 0 2.052.627 2.166 1.52h2.014c-.133-1.995-1.824-3.097-4.218-3.097-2.337-.019-3.99 1.178-3.99 3.021 0 2.014 1.748 2.489 3.971 2.755 1.501.19 2.394.266 2.394 1.311 0 .779-.836 1.273-2.109 1.273-1.482 0-2.356-.722-2.432-1.729h-2.014zm19.942-6.517c-1.596 0-2.375.646-2.87 1.463l-.227-1.463h-1.824V83h2.052v-4.883c0-1.501.589-2.926 2.413-2.926h.912v-1.919h-.456zm5.874 9.842c2.413 0 4.047-1.463 4.39-3.382H83.57c-.285 1.083-1.197 1.71-2.45 1.71-1.616 0-2.66-1.083-2.718-2.736v-.133h7.334c.038-.266.057-.532.057-.779-.057-2.85-1.938-4.636-4.75-4.636-2.869 0-4.788 1.995-4.788 4.997 0 2.983 1.92 4.959 4.978 4.959zm-2.755-6.042c.152-1.387 1.273-2.261 2.584-2.261 1.425 0 2.432.817 2.603 2.261H78.48zM87.453 83h2.052V69.7h-2.052V83zm8.68.114c2.414 0 4.048-1.463 4.39-3.382h-2.052c-.285 1.083-1.197 1.71-2.451 1.71-1.615 0-2.66-1.083-2.717-2.736v-.133h7.334c.038-.266.057-.532.057-.779-.057-2.85-1.938-4.636-4.75-4.636-2.87 0-4.788 1.995-4.788 4.997 0 2.983 1.919 4.959 4.978 4.959zm-2.754-6.042c.152-1.387 1.273-2.261 2.584-2.261 1.425 0 2.432.817 2.603 2.261h-5.187zm17.866 4.142c-.418 0-.627-.133-.627-.627v-3.895c0-2.299-1.482-3.534-4.066-3.534-2.451 0-4.085 1.178-4.294 3.078h2.014c.152-.855.969-1.425 2.185-1.425 1.349 0 2.128.665 2.128 1.748v.589h-2.451c-2.717 0-4.161 1.121-4.161 3.116 0 1.805 1.482 2.85 3.61 2.85 1.577 0 2.565-.684 3.211-1.672 0 .969.456 1.558 1.786 1.558h1.083v-1.786h-.418zm-2.66-2.204c-.019 1.501-1.007 2.508-2.717 2.508-1.121 0-1.805-.57-1.805-1.387 0-.988.703-1.463 1.976-1.463h2.546v.342zm3.777.779c.057 2.109 1.843 3.325 4.446 3.325 2.356 0 4.123-1.178 4.123-3.04 0-2.166-1.805-2.622-4.028-2.888-1.406-.152-2.337-.266-2.337-1.178 0-.779.798-1.273 2.014-1.273 1.216 0 2.052.627 2.166 1.52h2.014c-.133-1.995-1.824-3.097-4.218-3.097-2.337-.019-3.99 1.178-3.99 3.021 0 2.014 1.748 2.489 3.971 2.755 1.501.19 2.394.266 2.394 1.311 0 .779-.836 1.273-2.109 1.273-1.482 0-2.356-.722-2.432-1.729h-2.014zm14.777 3.325c2.413 0 4.047-1.463 4.389-3.382h-2.052c-.285 1.083-1.197 1.71-2.451 1.71-1.615 0-2.66-1.083-2.717-2.736v-.133h7.334c.038-.266.057-.532.057-.779-.057-2.85-1.938-4.636-4.75-4.636-2.869 0-4.788 1.995-4.788 4.997 0 2.983 1.919 4.959 4.978 4.959zm-2.755-6.042c.152-1.387 1.273-2.261 2.584-2.261 1.425 0 2.432.817 2.603 2.261h-5.187zm16.365-2.451c-.627-.855-1.672-1.463-3.154-1.463-2.641 0-4.598 1.976-4.598 4.978 0 3.116 1.957 4.978 4.598 4.978 1.539 0 2.546-.722 3.173-1.577l.247 1.463h1.786V69.7h-2.052v4.921zm-2.812 6.764c-1.71 0-2.831-1.33-2.831-3.249 0-1.9 1.121-3.23 2.831-3.23s2.831 1.33 2.831 3.268c0 1.881-1.121 3.211-2.831 3.211z" fill="#000"/></svg>