<svg width="130" height="31" viewBox="0 0 130 31" fill="none" xmlns="http://www.w3.org/2000/svg"><path d="M1.022 10l1.176-2.996h4.508L7.882 10h.812L4.914.2h-.882L.238 10h.784zm3.43-8.96l2.03 5.264h-4.06l2.03-5.264zm8.592 1.778c-1.302 0-2.142.672-2.548 1.596l-.112-1.512h-.616V10h.714V6.5c0-1.848.938-3.024 2.45-3.024 1.372 0 2.198.896 2.198 2.576V10h.714V6.024c0-2.24-1.19-3.206-2.8-3.206zm10.067 1.68c-.434-1.008-1.386-1.68-2.716-1.68-1.946 0-3.346 1.484-3.346 3.626 0 2.24 1.4 3.64 3.346 3.64 1.33 0 2.254-.714 2.702-1.708L23.209 10h.616V.2h-.714v4.298zM20.45 9.44c-1.582 0-2.674-1.232-2.674-2.996 0-1.75 1.092-2.996 2.674-2.996 1.582 0 2.674 1.246 2.674 3.01 0 1.75-1.092 2.982-2.674 2.982zM37.2 2.818c-1.301 0-2.142.728-2.547 1.778-.337-1.176-1.219-1.778-2.339-1.778-1.217 0-1.945.714-2.31 1.596l-.111-1.512h-.616V10h.713V6.388c0-1.736.84-2.912 2.199-2.912 1.232 0 2.002.868 2.002 2.506V10h.714V6.136c.041-1.624.882-2.66 2.212-2.66 1.231 0 1.974.826 1.974 2.436V10h.727V5.884c0-2.142-1.134-3.066-2.617-3.066zm10.447 6.524c-.42 0-.63-.14-.63-.686V5.352c0-1.624-.993-2.534-2.772-2.534-1.623 0-2.702.784-2.884 2.072h.715c.181-.868.938-1.442 2.142-1.442 1.33 0 2.085.7 2.085 1.876v.616h-2.407c-1.82 0-2.8.784-2.8 2.114 0 1.26.993 2.03 2.505 2.03 1.443 0 2.297-.658 2.73-1.54v.252c-.028.84.322 1.204 1.163 1.204h.42v-.658h-.267zM46.304 7.13c0 1.358-.965 2.338-2.646 2.338-1.133 0-1.834-.574-1.834-1.456 0-.938.7-1.456 2.017-1.456h2.463v.574zM48.87 10h.714V8.082l1.666-1.708L53.965 10h.868L51.74 5.856l2.856-2.954h-.882l-4.13 4.256V.2h-.714V10zm9.672.084c1.553 0 2.744-1.008 3.052-2.436h-.729c-.28 1.106-1.217 1.792-2.38 1.792-1.581 0-2.576-1.204-2.604-2.856v-.126h5.796c0-.098.014-.21.014-.294-.07-2.114-1.371-3.346-3.276-3.346-1.946 0-3.276 1.484-3.276 3.584 0 2.226 1.387 3.682 3.403 3.682zm-2.604-4.228c.111-1.442 1.19-2.408 2.492-2.408 1.386 0 2.38.854 2.491 2.408h-4.983zM69.002 10l-.462 1.148c-.322.784-.448.994-1.176.994h-.896v.658h1.092c.952 0 1.176-.364 1.624-1.484l3.402-8.414h-.77l-2.422 6.174-2.464-6.174h-.77L69.003 10zm7.38.084c2.001 0 3.415-1.484 3.415-3.64 0-2.142-1.414-3.626-3.416-3.626S72.98 4.302 72.98 6.444c0 2.156 1.4 3.64 3.402 3.64zm0-.644c-1.583 0-2.675-1.232-2.675-2.996 0-1.75 1.092-2.996 2.674-2.996 1.582 0 2.674 1.246 2.674 2.996 0 1.764-1.092 2.996-2.674 2.996zm9.986-3.052c0 1.862-.924 3.038-2.394 3.038-1.316 0-2.128-.896-2.128-2.59V2.902h-.714v3.976c0 2.226 1.162 3.206 2.73 3.206 1.26 0 2.086-.672 2.492-1.582L86.453 10h.63V2.902h-.714v3.486zm5.293-3.486c-1.316 0-1.876.63-2.17 1.414l-.112-1.414h-.616V10h.714V6.402c0-1.442.378-2.814 2.044-2.814h.518v-.686h-.378zm13.133-.084c-1.302 0-2.142.728-2.548 1.778-.336-1.176-1.218-1.778-2.338-1.778-1.218 0-1.946.714-2.31 1.596l-.112-1.512h-.616V10h.714V6.388c0-1.736.84-2.912 2.198-2.912 1.232 0 2.002.868 2.002 2.506V10h.714V6.136c.042-1.624.882-2.66 2.212-2.66 1.232 0 1.974.826 1.974 2.436V10h.728V5.884c0-2.142-1.134-3.066-2.618-3.066zm7.23 7.266c2.002 0 3.416-1.484 3.416-3.64 0-2.142-1.414-3.626-3.416-3.626s-3.402 1.484-3.402 3.626c0 2.156 1.4 3.64 3.402 3.64zm0-.644c-1.582 0-2.674-1.232-2.674-2.996 0-1.75 1.092-2.996 2.674-2.996 1.582 0 2.674 1.246 2.674 2.996 0 1.764-1.092 2.996-2.674 2.996zm6.592.56h.854l2.772-7.098h-.742l-2.436 6.272-2.45-6.272h-.77L118.617 10zm7.435.084c1.554 0 2.744-1.008 3.052-2.436h-.728c-.28 1.106-1.218 1.792-2.38 1.792-1.582 0-2.576-1.204-2.604-2.856v-.126h5.796c0-.098.014-.21.014-.294-.07-2.114-1.372-3.346-3.276-3.346-1.946 0-3.276 1.484-3.276 3.584 0 2.226 1.386 3.682 3.402 3.682zm-2.604-4.228c.112-1.442 1.19-2.408 2.492-2.408 1.386 0 2.38.854 2.492 2.408h-4.984zM2.562 30h.77l2.1-5.964L7.434 30h.77l2.52-7.098h-.728l-2.184 6.244-2.03-6.244h-.658l-2.142 6.244L.91 22.902H.154L2.562 30zm12.437-7.182c-1.33 0-2.156.742-2.562 1.764V20.2h-.714V30h.714v-3.5c0-1.848.938-3.024 2.45-3.024 1.358 0 2.198.896 2.198 2.576V30h.714v-3.976c0-2.24-1.19-3.206-2.8-3.206zm4.758-1.414c.28 0 .504-.21.504-.504a.493.493 0 00-.504-.504c-.28 0-.504.21-.504.504 0 .294.224.504.504.504zM19.393 30h.714v-7.098h-.714V30zm2.392 0h.714v-9.8h-.714V30zm5.529.084c1.554 0 2.744-1.008 3.052-2.436h-.728c-.28 1.106-1.218 1.792-2.38 1.792-1.582 0-2.576-1.204-2.604-2.856v-.126h5.796c0-.098.014-.21.014-.294-.07-2.114-1.372-3.346-3.276-3.346-1.946 0-3.276 1.484-3.276 3.584 0 2.226 1.386 3.682 3.402 3.682zm-2.604-4.228c.112-1.442 1.19-2.408 2.492-2.408 1.386 0 2.38.854 2.492 2.408H24.71zm14.075 4.228c2.002 0 3.416-1.484 3.416-3.64 0-2.142-1.414-3.626-3.416-3.626s-3.402 1.484-3.402 3.626c0 2.156 1.4 3.64 3.402 3.64zm0-.644c-1.582 0-2.674-1.232-2.674-2.996 0-1.75 1.092-2.996 2.674-2.996 1.582 0 2.674 1.246 2.674 2.996 0 1.764-1.092 2.996-2.674 2.996zm5.257-1.092c0 1.134.462 1.652 1.666 1.652h1.036v-.658h-.98c-.742 0-1.008-.28-1.008-1.008V23.56h1.918v-.658h-1.918v-1.988h-.714v1.988h-1.344v.658h1.344v4.788zm7.064-5.53c-1.33 0-2.156.742-2.562 1.764V20.2h-.714V30h.714v-3.5c0-1.848.938-3.024 2.45-3.024 1.358 0 2.198.896 2.198 2.576V30h.714v-3.976c0-2.24-1.19-3.206-2.8-3.206zm7.42 7.266c1.555 0 2.745-1.008 3.053-2.436h-.728c-.28 1.106-1.218 1.792-2.38 1.792-1.582 0-2.576-1.204-2.604-2.856v-.126h5.796c0-.098.014-.21.014-.294-.07-2.114-1.372-3.346-3.276-3.346-1.946 0-3.276 1.484-3.276 3.584 0 2.226 1.386 3.682 3.402 3.682zm-2.603-4.228c.112-1.442 1.19-2.408 2.492-2.408 1.386 0 2.38.854 2.492 2.408h-4.984zm10.063-2.954c-1.316 0-1.876.63-2.17 1.414l-.112-1.414h-.616V30h.714v-3.598c0-1.442.378-2.814 2.044-2.814h.518v-.686h-.378zm.936 4.914c.056 1.47 1.246 2.268 3.024 2.268 1.526 0 2.758-.77 2.758-2.03 0-1.498-1.316-1.792-2.842-2.002-1.106-.154-2.086-.28-2.086-1.274 0-.812.798-1.344 2.002-1.344 1.134 0 1.946.546 2.072 1.47h.728c-.126-1.386-1.26-2.086-2.8-2.086-1.582-.014-2.716.798-2.716 2.016 0 1.428 1.316 1.694 2.772 1.89 1.19.168 2.156.322 2.156 1.372 0 .84-.882 1.372-2.044 1.372-1.358 0-2.24-.63-2.296-1.652h-.728zM79.562 30h.77l2.1-5.964L84.434 30h.77l2.52-7.098h-.728l-2.184 6.244-2.03-6.244h-.658l-2.142 6.244-2.072-6.244h-.756L79.562 30zm15.172-.658c-.42 0-.63-.14-.63-.686v-3.304c0-1.624-.994-2.534-2.772-2.534-1.624 0-2.702.784-2.884 2.072h.714c.182-.868.938-1.442 2.142-1.442 1.33 0 2.086.7 2.086 1.876v.616h-2.408c-1.82 0-2.8.784-2.8 2.114 0 1.26.994 2.03 2.506 2.03 1.442 0 2.296-.658 2.73-1.54v.252c-.028.84.322 1.204 1.162 1.204H95v-.658h-.266zM93.39 27.13c0 1.358-.966 2.338-2.646 2.338-1.134 0-1.834-.574-1.834-1.456 0-.938.7-1.456 2.016-1.456h2.464v.574zm2.93-5.726c.28 0 .503-.21.503-.504a.493.493 0 00-.504-.504c-.28 0-.504.21-.504.504 0 .294.224.504.504.504zM95.954 30h.714v-7.098h-.714V30zm2.925-1.652c0 1.134.462 1.652 1.666 1.652h1.036v-.658h-.98c-.742 0-1.008-.28-1.008-1.008V23.56h1.918v-.658h-1.918v-1.988h-.714v1.988h-1.344v.658h1.344v4.788z" fill="#000"/></svg>