<svg width="103" height="23" viewBox="0 0 103 23" fill="none" xmlns="http://www.w3.org/2000/svg"><rect width="103" height="23" rx="11.5" fill="#000"/><path d="M22.22 8.18h2.497V15h.957V8.18h2.497V7.3H22.22v.88zm8.825 1.21c-1.001 0-1.43.418-1.694.847l-.121-.847h-.781V15h.902v-2.86c0-.891.319-1.87 1.496-1.87h.451v-.88h-.253zm5.802 4.785c-.253 0-.363-.077-.363-.374v-2.453c0-1.309-.825-2.024-2.255-2.024-1.352 0-2.244.649-2.375 1.749h.901c.11-.572.639-.946 1.43-.946.88 0 1.398.44 1.398 1.166v.385h-1.65c-1.474 0-2.256.627-2.256 1.749 0 1.023.837 1.639 2.069 1.639.968 0 1.529-.429 1.88-.935.012.55.265.869 1.013.869h.494v-.825h-.286zm-1.264-1.463c0 .935-.65 1.584-1.771 1.584-.748 0-1.221-.374-1.221-.924 0-.638.45-.935 1.253-.935h1.739v.275zm6.602-2.464c-.342-.539-.98-.924-1.925-.924-1.551 0-2.695 1.155-2.695 2.871 0 1.826 1.144 2.871 2.695 2.871.946 0 1.55-.451 1.925-.968l.12.902h.782V7.3h-.903v2.948zm-1.838 4.015c-1.11 0-1.858-.847-1.858-2.068s.748-2.068 1.858-2.068c1.1 0 1.849.858 1.849 2.09 0 1.199-.748 2.046-1.849 2.046zm6.553.803c1.298 0 2.222-.825 2.442-1.947h-.913c-.187.726-.803 1.144-1.595 1.144-1.067 0-1.738-.748-1.77-1.815v-.077h4.355c.011-.132.022-.264.022-.385-.044-1.661-1.078-2.662-2.662-2.662-1.584 0-2.662 1.166-2.662 2.871 0 1.716 1.1 2.871 2.783 2.871zm-1.782-3.443c.088-.913.847-1.507 1.672-1.507.935 0 1.595.539 1.683 1.507h-3.355zm8.65 1.914c0 .99.384 1.463 1.462 1.463h.98v-.825h-.892c-.484 0-.649-.176-.649-.649v-3.311h1.452V9.39H54.67V7.817h-.902V9.39h-1.012v.825h1.012v3.322zm5.668 1.529c1.64 0 2.783-1.166 2.783-2.871s-1.144-2.871-2.783-2.871-2.783 1.166-2.783 2.871 1.144 2.871 2.783 2.871zm0-.803c-1.11 0-1.859-.869-1.859-2.068s.748-2.068 1.86-2.068c1.11 0 1.858.869 1.858 2.068s-.748 2.068-1.859 2.068zm8.24-4.015c-.341-.539-.98-.924-1.925-.924-1.551 0-2.695 1.155-2.695 2.871 0 1.826 1.144 2.871 2.695 2.871.946 0 1.55-.451 1.925-.968l.12.902h.782V7.3h-.902v2.948zm-1.837 4.015c-1.111 0-1.86-.847-1.86-2.068s.749-2.068 1.86-2.068c1.1 0 1.848.858 1.848 2.09 0 1.199-.748 2.046-1.848 2.046zm8.928-.088c-.253 0-.363-.077-.363-.374v-2.453c0-1.309-.825-2.024-2.255-2.024-1.353 0-2.244.649-2.376 1.749h.902c.11-.572.638-.946 1.43-.946.88 0 1.397.44 1.397 1.166v.385h-1.65c-1.474 0-2.255.627-2.255 1.749 0 1.023.836 1.639 2.068 1.639.968 0 1.53-.429 1.881-.935.011.55.264.869 1.012.869h.495v-.825h-.286zm-1.265-1.463c0 .935-.649 1.584-1.77 1.584-.749 0-1.222-.374-1.222-.924 0-.638.451-.935 1.254-.935h1.738v.275zm3.669 2.321l-.275.682c-.21.528-.297.66-.814.66h-.803v.825h1.078c.792 0 1-.352 1.353-1.254l2.585-6.556h-.957l-1.672 4.477-1.727-4.477h-.957l2.189 5.643z" fill="#fff"/></svg>