<svg width="315" height="13" viewBox="0 0 315 13" fill="none" xmlns="http://www.w3.org/2000/svg"><path d="M.936 10h.702V5.801h3.926v-.65H1.638V1.55h4.706V.9H.936V10zm11.736-.611c-.39 0-.585-.13-.585-.637V5.684c0-1.508-.923-2.353-2.574-2.353-1.508 0-2.51.728-2.678 1.924h.663c.169-.806.87-1.339 1.989-1.339 1.235 0 1.937.65 1.937 1.742v.572H9.188c-1.69 0-2.6.728-2.6 1.963 0 1.17.923 1.885 2.327 1.885 1.339 0 2.132-.611 2.535-1.43v.234c-.026.78.299 1.118 1.079 1.118h.39v-.611h-.247zm-1.248-2.054c0 1.261-.897 2.171-2.457 2.171-1.053 0-1.703-.533-1.703-1.352 0-.871.65-1.352 1.872-1.352h2.288v.533zm2.082.637c.052 1.365 1.157 2.106 2.808 2.106 1.417 0 2.561-.715 2.561-1.885 0-1.391-1.222-1.664-2.639-1.859-1.027-.143-1.937-.26-1.937-1.183 0-.754.741-1.248 1.86-1.248 1.052 0 1.806.507 1.923 1.365h.676c-.117-1.287-1.17-1.937-2.6-1.937-1.469-.013-2.522.741-2.522 1.872 0 1.326 1.222 1.573 2.574 1.755 1.105.156 2.002.299 2.002 1.274 0 .78-.819 1.274-1.898 1.274-1.26 0-2.08-.585-2.132-1.534h-.676zm7.128.494c0 1.053.43 1.534 1.547 1.534h.962v-.611h-.91c-.689 0-.936-.26-.936-.936V4.02h1.781v-.611h-1.78V1.563h-.664v1.846h-1.248v.611h1.248v4.446zm9.934 1.612c1.443 0 2.548-.936 2.834-2.262h-.676c-.26 1.027-1.131 1.664-2.21 1.664-1.469 0-2.392-1.118-2.418-2.652v-.117h5.382c0-.091.013-.195.013-.273-.065-1.963-1.274-3.107-3.042-3.107-1.807 0-3.042 1.378-3.042 3.328 0 2.067 1.287 3.419 3.159 3.419zM28.15 6.152c.104-1.339 1.105-2.236 2.314-2.236 1.287 0 2.21.793 2.314 2.236H28.15zM33.873 10h.767l2.184-2.899L39.008 10h.806l-2.561-3.367 2.43-3.224h-.753l-2.08 2.73-2.054-2.73h-.793l2.43 3.224L33.874 10zm9.48.078c1.442 0 2.547-.936 2.833-2.262h-.676c-.26 1.027-1.13 1.664-2.21 1.664-1.469 0-2.392-1.118-2.418-2.652v-.117h5.382c0-.091.013-.195.013-.273-.065-1.963-1.274-3.107-3.042-3.107-1.807 0-3.042 1.378-3.042 3.328 0 2.067 1.287 3.419 3.16 3.419zm-2.419-3.926c.104-1.339 1.105-2.236 2.314-2.236 1.287 0 2.21.793 2.314 2.236h-4.628zm9.527 3.926c1.495 0 2.548-.858 2.808-2.197h-.702c-.221.975-1.014 1.599-2.106 1.599-1.443 0-2.444-1.131-2.444-2.769 0-1.638.988-2.795 2.444-2.795 1.105 0 1.885.624 2.119 1.612h.689c-.273-1.365-1.3-2.197-2.795-2.197-1.86 0-3.133 1.378-3.133 3.38 0 2.028 1.26 3.367 3.12 3.367zm8.88-3.432c0 1.729-.858 2.821-2.223 2.821-1.222 0-1.976-.832-1.976-2.405V3.409h-.663v3.692c0 2.067 1.08 2.977 2.535 2.977 1.17 0 1.937-.624 2.314-1.469L59.42 10h.585V3.409h-.663v3.237zm2.73 1.82c0 1.053.43 1.534 1.548 1.534h.962v-.611h-.91c-.69 0-.936-.26-.936-.936V4.02h1.78v-.611h-1.78V1.563h-.663v1.846h-1.248v.611h1.248v4.446zm3.857-6.448c.26 0 .468-.195.468-.468a.458.458 0 00-.468-.468.458.458 0 00-.468.468c0 .273.208.468.468.468zM65.59 10h.663V3.409h-.663V10zm5.133.078c1.86 0 3.172-1.378 3.172-3.38 0-1.989-1.313-3.367-3.172-3.367-1.859 0-3.159 1.378-3.159 3.367 0 2.002 1.3 3.38 3.16 3.38zm0-.598c-1.469 0-2.483-1.144-2.483-2.782 0-1.625 1.014-2.782 2.483-2.782 1.47 0 2.483 1.157 2.483 2.782 0 1.638-1.014 2.782-2.483 2.782zm7.532-6.149c-1.21 0-1.99.624-2.366 1.482l-.104-1.404h-.572V10h.663V6.75c0-1.716.87-2.808 2.275-2.808 1.274 0 2.04.832 2.04 2.392V10h.664V6.308c0-2.08-1.105-2.977-2.6-2.977zm14.682 6.071c-.364 0-.624-.078-.897-.416l-.65-.754 2.067-3.146h-.702l-1.768 2.665-2.028-2.379-.078-.091c1.742-.728 2.366-1.56 2.366-2.574 0-1.079-.845-1.885-1.99-1.885-1.351 0-2.352.897-2.352 2.093 0 .832.286 1.352.988 2.21-1.586.676-2.223 1.612-2.223 2.639 0 1.495 1.183 2.314 2.665 2.314 1.014 0 1.898-.455 2.639-1.326l.637.754c.312.377.74.494 1.235.494h.91v-.598h-.82zm-3.731-8.008c.806 0 1.365.559 1.365 1.326 0 .884-.611 1.521-2.041 2.145-.663-.793-.936-1.248-.936-1.963 0-.871.663-1.508 1.612-1.508zm-.858 8.086c-1.144 0-2.002-.65-2.002-1.768 0-.949.533-1.534 1.885-2.184l.195.221 2.158 2.548c-.611.767-1.378 1.183-2.236 1.183zm13.291-6.149c-1.235 0-2.002.689-2.379 1.638V.9h-.663V10h.663V6.75c0-1.716.871-2.808 2.275-2.808 1.261 0 2.041.832 2.041 2.392V10h.663V6.308c0-2.08-1.105-2.977-2.6-2.977zm4.418-1.313c.26 0 .468-.195.468-.468a.458.458 0 00-.468-.468.458.458 0 00-.468.468c0 .273.208.468.468.468zM105.719 10h.663V3.409h-.663V10zm7.591-5.057c-.403-.975-1.287-1.612-2.509-1.612-1.807 0-3.107 1.365-3.107 3.367 0 2.08 1.3 3.38 3.107 3.38 1.235 0 2.106-.65 2.522-1.677v1.17c0 1.755-.832 2.509-2.418 2.509-1.235 0-2.093-.559-2.301-1.56h-.689c.208 1.404 1.339 2.158 2.938 2.158 2.132 0 3.133-1.014 3.133-3.081V3.409h-.572l-.104 1.534zm-2.457 4.537c-1.469 0-2.483-1.144-2.483-2.782 0-1.638 1.014-2.782 2.483-2.782s2.483 1.144 2.483 2.795c0 1.625-1.014 2.769-2.483 2.769zm7.735-6.149c-1.235 0-2.002.689-2.379 1.638V.9h-.663V10h.663V6.75c0-1.716.871-2.808 2.275-2.808 1.261 0 2.041.832 2.041 2.392V10h.663V6.308c0-2.08-1.105-2.977-2.6-2.977zm6.89 6.747c1.443 0 2.548-.936 2.834-2.262h-.676c-.26 1.027-1.131 1.664-2.21 1.664-1.469 0-2.392-1.118-2.418-2.652v-.117h5.382c0-.091.013-.195.013-.273-.065-1.963-1.274-3.107-3.042-3.107-1.807 0-3.042 1.378-3.042 3.328 0 2.067 1.287 3.419 3.159 3.419zm-2.418-3.926c.104-1.339 1.105-2.236 2.314-2.236 1.287 0 2.21.793 2.314 2.236h-4.628zm9.345-2.743c-1.222 0-1.742.585-2.015 1.313l-.104-1.313h-.572V10h.663V6.659c0-1.339.351-2.613 1.898-2.613h.481v-.637h-.351zM137.242 10h.663V.9h-.663V10zm5.134.078c1.443 0 2.548-.936 2.834-2.262h-.676c-.26 1.027-1.131 1.664-2.21 1.664-1.469 0-2.392-1.118-2.418-2.652v-.117h5.382c0-.091.013-.195.013-.273-.065-1.963-1.274-3.107-3.042-3.107-1.807 0-3.042 1.378-3.042 3.328 0 2.067 1.287 3.419 3.159 3.419zm-2.418-3.926c.104-1.339 1.105-2.236 2.314-2.236 1.287 0 2.21.793 2.314 2.236h-4.628zM148.243 10h.793l2.574-6.591h-.689l-2.262 5.824-2.275-5.824h-.715L148.243 10zm6.904.078c1.443 0 2.548-.936 2.834-2.262h-.676c-.26 1.027-1.131 1.664-2.21 1.664-1.469 0-2.392-1.118-2.418-2.652v-.117h5.382c0-.091.013-.195.013-.273-.065-1.963-1.274-3.107-3.042-3.107-1.807 0-3.042 1.378-3.042 3.328 0 2.067 1.287 3.419 3.159 3.419zm-2.418-3.926c.104-1.339 1.105-2.236 2.314-2.236 1.287 0 2.21.793 2.314 2.236h-4.628zm9.345-2.743c-1.222 0-1.742.585-2.015 1.313l-.104-1.313h-.572V10h.663V6.659c0-1.339.351-2.613 1.898-2.613h.481v-.637h-.351zm6.852 5.98c-.39 0-.585-.13-.585-.637V5.684c0-1.508-.923-2.353-2.574-2.353-1.508 0-2.509.728-2.678 1.924h.663c.169-.806.871-1.339 1.989-1.339 1.235 0 1.937.65 1.937 1.742v.572h-2.236c-1.69 0-2.6.728-2.6 1.963 0 1.17.923 1.885 2.327 1.885 1.339 0 2.132-.611 2.535-1.43v.234c-.026.78.299 1.118 1.079 1.118h.39v-.611h-.247zm-1.248-2.054c0 1.261-.897 2.171-2.457 2.171-1.053 0-1.703-.533-1.703-1.352 0-.871.65-1.352 1.872-1.352h2.288v.533zm7.75-2.392c-.403-.975-1.287-1.612-2.509-1.612-1.807 0-3.107 1.365-3.107 3.367 0 2.08 1.3 3.38 3.107 3.38 1.235 0 2.106-.65 2.522-1.677v1.17c0 1.755-.832 2.509-2.418 2.509-1.235 0-2.093-.559-2.301-1.56h-.689c.208 1.404 1.339 2.158 2.938 2.158 2.132 0 3.133-1.014 3.133-3.081V3.409h-.572l-.104 1.534zm-2.457 4.537c-1.469 0-2.483-1.144-2.483-2.782 0-1.638 1.014-2.782 2.483-2.782s2.483 1.144 2.483 2.795c0 1.625-1.014 2.769-2.483 2.769zm7.605.598c1.443 0 2.548-.936 2.834-2.262h-.676c-.26 1.027-1.131 1.664-2.21 1.664-1.469 0-2.392-1.118-2.418-2.652v-.117h5.382c0-.091.013-.195.013-.273-.065-1.963-1.274-3.107-3.042-3.107-1.807 0-3.042 1.378-3.042 3.328 0 2.067 1.287 3.419 3.159 3.419zm-2.418-3.926c.104-1.339 1.105-2.236 2.314-2.236 1.287 0 2.21.793 2.314 2.236h-4.628zM189.914 10h.715l1.95-5.538L194.438 10h.715l2.34-6.591h-.676l-2.028 5.798-1.885-5.798h-.611l-1.989 5.798-1.924-5.798h-.702L189.914 10zm8.845-7.982c.26 0 .468-.195.468-.468a.458.458 0 00-.468-.468.458.458 0 00-.468.468c0 .273.208.468.468.468zM198.421 10h.663V3.409h-.663V10zm2.715-1.534c0 1.053.429 1.534 1.547 1.534h.962v-.611h-.91c-.689 0-.936-.26-.936-.936V4.02h1.781v-.611h-1.781V1.563h-.663v1.846h-1.248v.611h1.248v4.446zm6.56-5.135c-1.235 0-2.002.689-2.379 1.638V.9h-.663V10h.663V6.75c0-1.716.871-2.808 2.275-2.808 1.261 0 2.041.832 2.041 2.392V10h.663V6.308c0-2.08-1.105-2.977-2.6-2.977zm12.953 1.612c-.403-.975-1.287-1.612-2.509-1.612-1.807 0-3.107 1.365-3.107 3.367 0 2.08 1.3 3.38 3.107 3.38 1.235 0 2.106-.65 2.522-1.677v1.17c0 1.755-.832 2.509-2.418 2.509-1.235 0-2.093-.559-2.301-1.56h-.689c.208 1.404 1.339 2.158 2.938 2.158 2.132 0 3.133-1.014 3.133-3.081V3.409h-.572l-.104 1.534zm-2.457 4.537c-1.469 0-2.483-1.144-2.483-2.782 0-1.638 1.014-2.782 2.483-2.782s2.483 1.144 2.483 2.795c0 1.625-1.014 2.769-2.483 2.769zm9.476-2.834c0 1.729-.858 2.821-2.223 2.821-1.222 0-1.976-.832-1.976-2.405V3.409h-.663v3.692c0 2.067 1.079 2.977 2.535 2.977 1.17 0 1.937-.624 2.314-1.469l.091 1.391h.585V3.409h-.663v3.237zm8.022 2.743c-.39 0-.585-.13-.585-.637V5.684c0-1.508-.923-2.353-2.574-2.353-1.508 0-2.509.728-2.678 1.924h.663c.169-.806.871-1.339 1.989-1.339 1.235 0 1.937.65 1.937 1.742v.572h-2.236c-1.69 0-2.6.728-2.6 1.963 0 1.17.923 1.885 2.327 1.885 1.339 0 2.132-.611 2.535-1.43v.234c-.026.78.299 1.118 1.079 1.118h.39v-.611h-.247zm-1.248-2.054c0 1.261-.897 2.171-2.457 2.171-1.053 0-1.703-.533-1.703-1.352 0-.871.65-1.352 1.872-1.352h2.288v.533zm5.073-3.926c-1.222 0-1.742.585-2.015 1.313l-.104-1.313h-.572V10h.663V6.659c0-1.339.351-2.613 1.898-2.613h.481v-.637h-.351zm6.852 5.98c-.39 0-.585-.13-.585-.637V5.684c0-1.508-.923-2.353-2.574-2.353-1.508 0-2.509.728-2.678 1.924h.663c.169-.806.871-1.339 1.989-1.339 1.235 0 1.937.65 1.937 1.742v.572h-2.236c-1.69 0-2.6.728-2.6 1.963 0 1.17.923 1.885 2.327 1.885 1.339 0 2.132-.611 2.535-1.43v.234c-.026.78.299 1.118 1.079 1.118h.39v-.611h-.247zm-1.248-2.054c0 1.261-.897 2.171-2.457 2.171-1.053 0-1.703-.533-1.703-1.352 0-.871.65-1.352 1.872-1.352h2.288v.533zm5.424-4.004c-1.209 0-1.989.624-2.366 1.482l-.104-1.404h-.572V10h.663V6.75c0-1.716.871-2.808 2.275-2.808 1.274 0 2.041.832 2.041 2.392V10h.663V6.308c0-2.08-1.105-2.977-2.6-2.977zm4.561 5.135c0 1.053.429 1.534 1.547 1.534h.962v-.611h-.91c-.689 0-.936-.26-.936-.936V4.02h1.781v-.611h-1.781V1.563h-.663v1.846h-1.248v.611h1.248v4.446zm6.227 1.612c1.443 0 2.548-.936 2.834-2.262h-.676c-.26 1.027-1.131 1.664-2.21 1.664-1.469 0-2.392-1.118-2.418-2.652v-.117h5.382c0-.091.013-.195.013-.273-.065-1.963-1.274-3.107-3.042-3.107-1.807 0-3.042 1.378-3.042 3.328 0 2.067 1.287 3.419 3.159 3.419zm-2.418-3.926c.104-1.339 1.105-2.236 2.314-2.236 1.287 0 2.21.793 2.314 2.236h-4.628zm9.565 3.926c1.443 0 2.548-.936 2.834-2.262h-.676c-.26 1.027-1.131 1.664-2.21 1.664-1.469 0-2.392-1.118-2.418-2.652v-.117h5.382c0-.091.013-.195.013-.273-.065-1.963-1.274-3.107-3.042-3.107-1.807 0-3.042 1.378-3.042 3.328 0 2.067 1.287 3.419 3.159 3.419zm-2.418-3.926c.104-1.339 1.105-2.236 2.314-2.236 1.287 0 2.21.793 2.314 2.236h-4.628zm12.036-1.261c-.403-.936-1.287-1.56-2.522-1.56-1.807 0-3.107 1.378-3.107 3.367 0 2.08 1.3 3.38 3.107 3.38 1.235 0 2.093-.663 2.509-1.586l.104 1.508h.572V.9h-.663v3.991zm-2.47 4.589c-1.469 0-2.483-1.144-2.483-2.782 0-1.625 1.014-2.782 2.483-2.782s2.483 1.157 2.483 2.795c0 1.625-1.014 2.769-2.483 2.769zm7.897-1.508c.052 1.365 1.157 2.106 2.808 2.106 1.417 0 2.561-.715 2.561-1.885 0-1.391-1.222-1.664-2.639-1.859-1.027-.143-1.937-.26-1.937-1.183 0-.754.741-1.248 1.859-1.248 1.053 0 1.807.507 1.924 1.365h.676c-.117-1.287-1.17-1.937-2.6-1.937-1.469-.013-2.522.741-2.522 1.872 0 1.326 1.222 1.573 2.574 1.755 1.105.156 2.002.299 2.002 1.274 0 .78-.819 1.274-1.898 1.274-1.261 0-2.08-.585-2.132-1.534h-.676zm7.128.494c0 1.053.429 1.534 1.547 1.534h.962v-.611h-.91c-.689 0-.936-.26-.936-.936V4.02h1.781v-.611h-1.781V1.563h-.663v1.846h-1.248v.611h1.248v4.446zm6.227 1.612c1.859 0 3.172-1.378 3.172-3.38 0-1.989-1.313-3.367-3.172-3.367-1.859 0-3.159 1.378-3.159 3.367 0 2.002 1.3 3.38 3.159 3.38zm0-.598c-1.469 0-2.483-1.144-2.483-2.782 0-1.625 1.014-2.782 2.483-2.782s2.483 1.157 2.483 2.782c0 1.638-1.014 2.782-2.483 2.782zm7.674-6.149c-1.235 0-2.093.663-2.509 1.586l-.104-1.508h-.572V12.6h.663V8.479c.377.962 1.274 1.599 2.522 1.599 1.807 0 3.107-1.378 3.107-3.38 0-2.067-1.3-3.367-3.107-3.367zM304.5 9.48c-1.469 0-2.483-1.144-2.483-2.795 0-1.612 1.014-2.769 2.483-2.769s2.483 1.157 2.483 2.782c0 1.638-1.014 2.782-2.483 2.782zm4.16-1.508c.052 1.365 1.157 2.106 2.808 2.106 1.417 0 2.561-.715 2.561-1.885 0-1.391-1.222-1.664-2.639-1.859-1.027-.143-1.937-.26-1.937-1.183 0-.754.741-1.248 1.859-1.248 1.053 0 1.807.507 1.924 1.365h.676c-.117-1.287-1.17-1.937-2.6-1.937-1.469-.013-2.522.741-2.522 1.872 0 1.326 1.222 1.573 2.574 1.755 1.105.156 2.002.299 2.002 1.274 0 .78-.819 1.274-1.898 1.274-1.261 0-2.08-.585-2.132-1.534h-.676z" fill="#000"/></svg>