<svg width="88" height="106" viewBox="0 0 88 106" fill="none" xmlns="http://www.w3.org/2000/svg"><path d="M.46 3.246h4.968V17h2.645V3.246h4.968V.9H.46v2.346zm19.114 1.978c-1.932 0-2.875.782-3.473 1.771l-.276-1.771h-2.208V17h2.484v-5.911c0-1.817.713-3.542 2.921-3.542h1.104V5.224h-.552zm12.49 9.614c-.507 0-.76-.161-.76-.759V9.364c0-2.783-1.794-4.278-4.922-4.278-2.967 0-4.945 1.426-5.198 3.726h2.438c.184-1.035 1.173-1.725 2.645-1.725 1.633 0 2.576.805 2.576 2.116v.713h-2.967c-3.289 0-5.037 1.357-5.037 3.772 0 2.185 1.794 3.45 4.37 3.45 1.91 0 3.105-.828 3.887-2.024 0 1.173.552 1.886 2.162 1.886h1.311v-2.162h-.506zm-3.22-2.668c-.024 1.817-1.22 3.036-3.29 3.036-1.357 0-2.185-.69-2.185-1.679 0-1.196.851-1.771 2.392-1.771h3.082v.414zm13.935-5.313c-.759-1.035-2.024-1.771-3.818-1.771-3.197 0-5.566 2.392-5.566 6.026 0 3.772 2.37 6.026 5.566 6.026 1.863 0 3.082-.874 3.841-1.909l.3 1.771h2.161V.9H42.78v5.957zm-3.404 8.188c-2.07 0-3.427-1.61-3.427-3.933 0-2.3 1.357-3.91 3.427-3.91 2.07 0 3.427 1.61 3.427 3.956 0 2.277-1.357 3.887-3.427 3.887zm13.905 2.093c2.92 0 4.899-1.771 5.313-4.094h-2.484c-.345 1.311-1.45 2.07-2.967 2.07-1.955 0-3.22-1.311-3.29-3.312v-.161h8.879c.046-.322.069-.644.069-.943-.07-3.45-2.346-5.612-5.75-5.612-3.473 0-5.796 2.415-5.796 6.049 0 3.611 2.323 6.003 6.026 6.003zm-3.335-7.314c.184-1.679 1.54-2.737 3.128-2.737 1.725 0 2.944.989 3.15 2.737h-6.278zm11.294 4.209c-1.058 0-1.748.69-1.748 1.564 0 .989.598 1.472 1.357 1.472.276 0 .552-.069.76-.23.022.092.022.207.022.299 0 .805-.575 1.702-2.024 1.725v1.334c2.277-.023 3.703-1.288 3.703-3.519 0-1.472-.805-2.645-2.07-2.645zM11.983 42.838c-.506 0-.759-.161-.759-.759v-4.715c0-2.783-1.794-4.278-4.922-4.278-2.967 0-4.945 1.426-5.198 3.726h2.438c.184-1.035 1.173-1.725 2.645-1.725 1.633 0 2.576.805 2.576 2.116v.713H5.796c-3.289 0-5.037 1.357-5.037 3.772 0 2.185 1.794 3.45 4.37 3.45 1.909 0 3.105-.828 3.887-2.024 0 1.173.552 1.886 2.162 1.886h1.311v-2.162h-.506zm-3.22-2.668c-.023 1.817-1.219 3.036-3.289 3.036-1.357 0-2.185-.69-2.185-1.679 0-1.196.851-1.771 2.392-1.771h3.082v.414zm11.289-7.084c-1.909 0-3.036.759-3.772 1.679l-.276-1.541h-2.162V45h2.484v-5.934c0-2.392 1.173-3.841 3.151-3.841 1.863 0 2.806 1.196 2.806 3.427V45h2.507v-6.555c0-3.933-2.139-5.359-4.738-5.359zm17.761 9.752c-.506 0-.759-.161-.759-.759v-4.715c0-2.783-1.794-4.278-4.922-4.278-2.967 0-4.945 1.426-5.198 3.726h2.438c.184-1.035 1.173-1.725 2.645-1.725 1.633 0 2.576.805 2.576 2.116v.713h-2.967c-3.289 0-5.037 1.357-5.037 3.772 0 2.185 1.794 3.45 4.37 3.45 1.91 0 3.105-.828 3.887-2.024 0 1.173.552 1.886 2.162 1.886h1.311v-2.162h-.506zm-3.22-2.668c-.023 1.817-1.219 3.036-3.289 3.036-1.357 0-2.185-.69-2.185-1.679 0-1.196.851-1.771 2.392-1.771h3.082v.414zm5.08 4.83h2.483V28.9h-2.484V45zm8.322.069l-.46 1.15c-.368.966-.598 1.196-1.564 1.196h-1.748V49.6h2.668c1.725 0 2.231-.851 2.967-2.76l5.336-13.616H52.55l-3.197 8.947-3.289-8.947h-2.645l4.577 11.845zm7.702-3.956c.07 2.553 2.231 4.025 5.382 4.025 2.852 0 4.991-1.426 4.991-3.68 0-2.622-2.185-3.174-4.876-3.496-1.702-.184-2.829-.322-2.829-1.426 0-.943.966-1.541 2.438-1.541 1.472 0 2.484.759 2.622 1.84h2.438c-.16-2.415-2.208-3.749-5.106-3.749-2.829-.023-4.83 1.426-4.83 3.657 0 2.438 2.116 3.013 4.807 3.335 1.817.23 2.898.322 2.898 1.587 0 .943-1.012 1.541-2.553 1.541-1.794 0-2.852-.874-2.944-2.093h-2.438zm17.887 4.025c2.921 0 4.9-1.771 5.313-4.094h-2.484c-.345 1.311-1.449 2.07-2.967 2.07-1.955 0-3.22-1.311-3.289-3.312v-.161h8.878c.046-.322.07-.644.07-.943-.07-3.45-2.347-5.612-5.75-5.612-3.474 0-5.797 2.415-5.797 6.049 0 3.611 2.323 6.003 6.026 6.003zm-3.335-7.314c.184-1.679 1.541-2.737 3.128-2.737 1.725 0 2.944.989 3.151 2.737H70.25zm11.295 4.209c-1.058 0-1.748.69-1.748 1.564 0 .989.598 1.472 1.357 1.472.276 0 .552-.069.759-.23.023.092.023.207.023.299 0 .805-.575 1.702-2.024 1.725v1.334c2.277-.023 3.703-1.288 3.703-3.519 0-1.472-.805-2.645-2.07-2.645zM2.484 59.568c.851 0 1.518-.621 1.518-1.495 0-.874-.667-1.495-1.518-1.495s-1.518.621-1.518 1.495c0 .874.667 1.495 1.518 1.495zM1.219 73h2.484V61.224H1.219V73zm18.466-11.914c-1.932 0-3.266.851-4.025 2.139-.713-1.518-2.093-2.139-3.634-2.139-1.771.023-2.783.805-3.45 1.679L8.3 61.224H6.138V73h2.484v-6.302c0-2.093 1.058-3.473 2.76-3.473 1.633 0 2.484 1.081 2.484 3.151V73h2.507v-6.371c0-2.116 1.08-3.404 2.783-3.404 1.61 0 2.46 1.081 2.46 3.151V73h2.485v-6.785c0-3.726-1.978-5.129-4.416-5.129zm12.97 0c-1.84 0-3.06.851-3.841 1.886l-.3-1.748h-2.161V77.6h2.484v-6.256c.736 1.058 2 1.794 3.818 1.794 3.22 0 5.566-2.392 5.566-6.026 0-3.772-2.346-6.026-5.566-6.026zm-.414 9.959c-2.07 0-3.427-1.633-3.427-3.979 0-2.277 1.357-3.864 3.427-3.864 2.07 0 3.45 1.587 3.45 3.91 0 2.3-1.38 3.933-3.45 3.933zm13.927-9.821c-1.932 0-2.875.782-3.473 1.771l-.276-1.771h-2.208V73h2.484v-5.911c0-1.817.713-3.542 2.921-3.542h1.104v-2.323h-.552zm7.089 11.914c3.588 0 6.003-2.415 6.003-6.026 0-3.588-2.415-6.026-6.003-6.026s-6.003 2.438-6.003 6.026c0 3.611 2.415 6.026 6.003 6.026zm0-2.116c-2.093 0-3.45-1.633-3.45-3.91s1.357-3.91 3.45-3.91 3.473 1.633 3.473 3.91-1.38 3.91-3.473 3.91zM63.892 73h3.036l4.347-11.776h-2.622l-3.197 9.108-3.243-9.108h-2.668L63.892 73zm13.69.138c2.921 0 4.9-1.771 5.313-4.094h-2.484c-.345 1.311-1.449 2.07-2.967 2.07-1.955 0-3.22-1.311-3.289-3.312v-.161h8.878c.046-.322.07-.644.07-.943-.07-3.45-2.347-5.612-5.75-5.612-3.474 0-5.797 2.415-5.797 6.049 0 3.611 2.323 6.003 6.026 6.003zm-3.335-7.314c.184-1.679 1.541-2.737 3.128-2.737 1.725 0 2.944.989 3.151 2.737h-6.279zm11.295 4.209c-1.058 0-1.748.69-1.748 1.564 0 .989.598 1.472 1.357 1.472.276 0 .552-.069.759-.23.023.092.023.207.023.299 0 .805-.575 1.702-2.024 1.725v1.334c2.277-.023 3.703-1.288 3.703-3.519 0-1.472-.805-2.645-2.07-2.645zM7.176 89.224c-1.932 0-2.875.782-3.473 1.771l-.276-1.771H1.219V101h2.484v-5.911c0-1.817.713-3.542 2.921-3.542h1.104v-2.323h-.552zm7.111 11.914c2.921 0 4.9-1.771 5.313-4.094h-2.484c-.345 1.311-1.448 2.07-2.966 2.07-1.956 0-3.22-1.311-3.29-3.312v-.161h8.878c.047-.322.07-.644.07-.943-.07-3.45-2.346-5.612-5.75-5.612-3.473 0-5.797 2.415-5.797 6.049 0 3.611 2.324 6.003 6.027 6.003zm-3.335-7.314c.184-1.679 1.541-2.737 3.129-2.737 1.725 0 2.944.989 3.15 2.737h-6.279zm17.166-4.738c-1.84 0-3.06.851-3.841 1.886l-.3-1.748h-2.161V105.6H24.3v-6.256c.736 1.058 2 1.794 3.818 1.794 3.22 0 5.566-2.392 5.566-6.026 0-3.772-2.346-6.026-5.566-6.026zm-.414 9.959c-2.07 0-3.427-1.633-3.427-3.979 0-2.277 1.357-3.864 3.427-3.864 2.07 0 3.45 1.587 3.45 3.91 0 2.3-1.38 3.933-3.45 3.933zm13.56 2.093c2.92 0 4.898-1.771 5.312-4.094h-2.484c-.345 1.311-1.449 2.07-2.967 2.07-1.955 0-3.22-1.311-3.289-3.312v-.161h8.878c.046-.322.07-.644.07-.943-.07-3.45-2.347-5.612-5.75-5.612-3.474 0-5.797 2.415-5.797 6.049 0 3.611 2.323 6.003 6.026 6.003zm-3.336-7.314c.184-1.679 1.541-2.737 3.128-2.737 1.725 0 2.944.989 3.151 2.737h-6.279zm21.627 5.014c-.506 0-.759-.161-.759-.759v-4.715c0-2.783-1.794-4.278-4.922-4.278-2.967 0-4.945 1.426-5.198 3.726h2.438c.184-1.035 1.173-1.725 2.645-1.725 1.633 0 2.576.805 2.576 2.116v.713h-2.967c-3.289 0-5.037 1.357-5.037 3.772 0 2.185 1.794 3.45 4.37 3.45 1.91 0 3.105-.828 3.887-2.024 0 1.173.552 1.886 2.162 1.886h1.311v-2.162h-.506zm-3.22-2.668c-.023 1.817-1.219 3.036-3.289 3.036-1.357 0-2.185-.69-2.185-1.679 0-1.196.851-1.771 2.392-1.771h3.082v.414zm5.93 1.633c0 2.139.966 3.197 3.22 3.197h2.3v-2.185h-1.748c-.943 0-1.265-.345-1.265-1.265v-6.141h2.875v-2.185h-2.875v-3.289h-2.507v3.289h-2.047v2.185h2.047v6.394zm7.005 1.771c0 .92.667 1.564 1.587 1.564.92 0 1.61-.644 1.61-1.564s-.69-1.564-1.61-1.564c-.92 0-1.587.644-1.587 1.564z" fill="#000"/></svg>