<svg width="132" height="88" viewBox="0 0 132 88" fill="none" xmlns="http://www.w3.org/2000/svg"><path d="M1.241 12l1.428-3.638h5.474L9.571 12h.986L5.967.1H4.896L.289 12h.952zM5.406 1.12l2.465 6.392h-4.93L5.406 1.12zM12.065 12h.918V.1h-.918V12zm7.357-2.652c.068 1.785 1.513 2.754 3.672 2.754 1.853 0 3.349-.935 3.349-2.465 0-1.819-1.598-2.176-3.451-2.431-1.343-.187-2.533-.34-2.533-1.547 0-.986.969-1.632 2.431-1.632 1.377 0 2.363.663 2.516 1.785h.884c-.153-1.683-1.53-2.533-3.4-2.533-1.921-.017-3.298.969-3.298 2.448 0 1.734 1.598 2.057 3.366 2.295 1.445.204 2.618.391 2.618 1.666 0 1.02-1.071 1.666-2.482 1.666-1.649 0-2.72-.765-2.788-2.006h-.884zm9.117-7.786c.34 0 .612-.255.612-.612a.599.599 0 00-.612-.612.599.599 0 00-.612.612c0 .357.272.612.612.612zM28.097 12h.867V3.381h-.867V12zm9.926-6.613c-.527-1.275-1.683-2.108-3.28-2.108-2.364 0-4.064 1.785-4.064 4.403 0 2.72 1.7 4.42 4.063 4.42 1.615 0 2.754-.85 3.298-2.193v1.53c0 2.295-1.088 3.281-3.162 3.281-1.615 0-2.737-.731-3.009-2.04h-.9c.271 1.836 1.75 2.822 3.841 2.822 2.788 0 4.097-1.326 4.097-4.029V3.381h-.748l-.136 2.006zM34.81 11.32c-1.92 0-3.247-1.496-3.247-3.638s1.326-3.638 3.247-3.638c1.921 0 3.247 1.496 3.247 3.655 0 2.125-1.326 3.621-3.247 3.621zm10.115-8.041c-1.581 0-2.601.816-3.094 1.938l-.136-1.836h-.748V12h.867V7.75c0-2.244 1.139-3.672 2.975-3.672 1.666 0 2.669 1.088 2.669 3.128V12h.867V7.172c0-2.72-1.445-3.893-3.4-3.893zm12.9 7.922c-.51 0-.764-.17-.764-.833V6.356c0-1.972-1.207-3.077-3.366-3.077-1.972 0-3.281.952-3.502 2.516h.867c.22-1.054 1.139-1.751 2.6-1.751 1.616 0 2.534.85 2.534 2.278v.748H53.27c-2.21 0-3.4.952-3.4 2.567 0 1.53 1.207 2.465 3.043 2.465 1.75 0 2.788-.799 3.315-1.87v.306c-.034 1.02.39 1.462 1.41 1.462h.51v-.799h-.322zm-1.631-2.686c0 1.649-1.173 2.839-3.213 2.839-1.377 0-2.227-.697-2.227-1.768 0-1.139.85-1.768 2.448-1.768h2.992v.697zM59.308 12h.867V.1h-.867V12zm2.514-2.652c.068 1.785 1.513 2.754 3.672 2.754 1.853 0 3.35-.935 3.35-2.465 0-1.819-1.599-2.176-3.452-2.431-1.343-.187-2.533-.34-2.533-1.547 0-.986.97-1.632 2.431-1.632 1.377 0 2.363.663 2.516 1.785h.884c-.153-1.683-1.53-2.533-3.4-2.533-1.92-.017-3.298.969-3.298 2.448 0 1.734 1.598 2.057 3.366 2.295 1.445.204 2.618.391 2.618 1.666 0 1.02-1.07 1.666-2.482 1.666-1.649 0-2.72-.765-2.788-2.006h-.884zm20.84 1.853c-.51 0-.765-.17-.765-.833V6.356c0-1.972-1.207-3.077-3.366-3.077-1.972 0-3.281.952-3.502 2.516h.867c.22-1.054 1.139-1.751 2.6-1.751 1.616 0 2.534.85 2.534 2.278v.748h-2.924c-2.21 0-3.4.952-3.4 2.567 0 1.53 1.207 2.465 3.043 2.465 1.75 0 2.788-.799 3.315-1.87v.306c-.034 1.02.39 1.462 1.41 1.462h.51v-.799h-.322zM81.03 8.515c0 1.649-1.173 2.839-3.213 2.839-1.377 0-2.227-.697-2.227-1.768 0-1.139.85-1.768 2.448-1.768h2.992v.697zm7.092-5.236c-1.581 0-2.601.816-3.094 1.938l-.136-1.836h-.748V12h.867V7.75c0-2.244 1.139-3.672 2.975-3.672 1.666 0 2.669 1.088 2.669 3.128V12h.867V7.172c0-2.72-1.445-3.893-3.4-3.893zm12.224 2.04c-.527-1.224-1.683-2.04-3.298-2.04-2.363 0-4.063 1.802-4.063 4.403 0 2.72 1.7 4.42 4.063 4.42 1.615 0 2.737-.867 3.281-2.074l.136 1.972h.748V.1h-.867v5.219zm-3.23 6.001c-1.92 0-3.247-1.496-3.247-3.638 0-2.125 1.326-3.638 3.247-3.638 1.921 0 3.247 1.513 3.247 3.655 0 2.125-1.326 3.621-3.247 3.621zM8.602 35.201c-.51 0-.765-.17-.765-.833v-4.012c0-1.972-1.207-3.077-3.366-3.077-1.972 0-3.281.952-3.502 2.516h.867c.221-1.054 1.139-1.751 2.601-1.751 1.615 0 2.533.85 2.533 2.278v.748H4.046c-2.21 0-3.4.952-3.4 2.567 0 1.53 1.207 2.465 3.043 2.465 1.751 0 2.788-.799 3.315-1.87v.306C6.97 35.558 7.395 36 8.415 36h.51v-.799h-.323zM6.97 32.515c0 1.649-1.173 2.839-3.213 2.839-1.377 0-2.227-.697-2.227-1.768 0-1.139.85-1.768 2.448-1.768H6.97v.697zM10.085 36h.866V24.1h-.867V36zm9.926-6.613c-.527-1.275-1.683-2.108-3.281-2.108-2.363 0-4.063 1.785-4.063 4.403 0 2.72 1.7 4.42 4.063 4.42 1.615 0 2.754-.85 3.298-2.193v1.53c0 2.295-1.088 3.281-3.162 3.281-1.615 0-2.737-.731-3.01-2.04h-.9c.272 1.836 1.75 2.822 3.842 2.822 2.788 0 4.097-1.326 4.097-4.029v-8.092h-.748l-.136 2.006zm-3.213 5.933c-1.921 0-3.247-1.496-3.247-3.638s1.326-3.638 3.247-3.638c1.92 0 3.247 1.496 3.247 3.655 0 2.125-1.326 3.621-3.247 3.621zm9.944.782c2.431 0 4.148-1.802 4.148-4.42 0-2.601-1.717-4.403-4.148-4.403-2.43 0-4.13 1.802-4.13 4.403 0 2.618 1.7 4.42 4.13 4.42zm0-.782c-1.92 0-3.247-1.496-3.247-3.638 0-2.125 1.326-3.638 3.247-3.638 1.921 0 3.247 1.513 3.247 3.638 0 2.142-1.326 3.638-3.247 3.638zm9.39-7.939c-1.598 0-2.278.765-2.635 1.717l-.136-1.717h-.748V36h.867v-4.369c0-1.751.459-3.417 2.482-3.417h.629v-.833h-.46zm2.186-1.819c.34 0 .611-.255.611-.612a.599.599 0 00-.611-.612.599.599 0 00-.612.612c0 .357.271.612.611.612zM37.876 36h.867v-8.619h-.867V36zm3.55-2.006c0 1.377.562 2.006 2.024 2.006h1.258v-.799h-1.19c-.901 0-1.224-.34-1.224-1.224V28.18h2.329v-.799h-2.33v-2.414h-.866v2.414h-1.632v.799h1.632v5.814zm8.579-6.715c-1.615 0-2.618.901-3.111 2.142V24.1h-.867V36h.867v-4.25c0-2.244 1.139-3.672 2.975-3.672 1.649 0 2.669 1.088 2.669 3.128V36h.867v-4.828c0-2.72-1.445-3.893-3.4-3.893zm14.957 0c-1.58 0-2.6.884-3.094 2.159-.408-1.428-1.479-2.159-2.839-2.159-1.479 0-2.363.867-2.805 1.938l-.136-1.836h-.748V36h.867v-4.386c0-2.108 1.02-3.536 2.67-3.536 1.495 0 2.43 1.054 2.43 3.043V36h.867v-4.692c.051-1.972 1.071-3.23 2.686-3.23 1.496 0 2.397 1.003 2.397 2.958V36h.884v-4.998c0-2.601-1.377-3.723-3.179-3.723zm5.546-1.717c.34 0 .612-.255.612-.612a.599.599 0 00-.612-.612.599.599 0 00-.612.612c0 .357.272.612.612.612zM70.066 36h.867v-8.619h-.867V36zm6.662.102c1.955 0 3.332-1.122 3.672-2.873h-.918c-.289 1.275-1.326 2.091-2.754 2.091-1.887 0-3.196-1.479-3.196-3.621s1.292-3.655 3.196-3.655c1.445 0 2.465.816 2.771 2.108h.901c-.357-1.785-1.7-2.873-3.655-2.873-2.43 0-4.097 1.802-4.097 4.42 0 2.652 1.65 4.403 4.08 4.403zM.63 57.348c.068 1.785 1.513 2.754 3.672 2.754 1.853 0 3.349-.935 3.349-2.465 0-1.819-1.598-2.176-3.451-2.431-1.343-.187-2.533-.34-2.533-1.547 0-.986.969-1.632 2.431-1.632 1.377 0 2.363.663 2.516 1.785h.884c-.153-1.683-1.53-2.533-3.4-2.533-1.921-.017-3.298.969-3.298 2.448 0 1.734 1.598 2.057 3.366 2.295 1.445.204 2.618.391 2.618 1.666 0 1.02-1.071 1.666-2.482 1.666-1.649 0-2.72-.765-2.788-2.006H.629zm9.321.646c0 1.377.561 2.006 2.023 2.006h1.258v-.799h-1.19c-.9 0-1.224-.34-1.224-1.224V52.18h2.33v-.799h-2.33v-2.414H9.95v2.414H8.318v.799H9.95v5.814zm8.12-6.613c-1.599 0-2.279.765-2.636 1.717l-.136-1.717h-.748V60h.867v-4.369c0-1.751.46-3.417 2.482-3.417h.63v-.833h-.46zm8.96 7.82c-.51 0-.765-.17-.765-.833v-4.012c0-1.972-1.207-3.077-3.366-3.077-1.972 0-3.281.952-3.502 2.516h.867c.22-1.054 1.139-1.751 2.6-1.751 1.616 0 2.534.85 2.534 2.278v.748h-2.924c-2.21 0-3.4.952-3.4 2.567 0 1.53 1.207 2.465 3.043 2.465 1.75 0 2.788-.799 3.315-1.87v.306c-.034 1.02.39 1.462 1.41 1.462h.51v-.799h-.322zm-1.632-2.686c0 1.649-1.173 2.839-3.213 2.839-1.377 0-2.227-.697-2.227-1.768 0-1.139.85-1.768 2.448-1.768h2.992v.697zm3.76 1.479c0 1.377.561 2.006 2.023 2.006h1.258v-.799h-1.19c-.9 0-1.224-.34-1.224-1.224V52.18h2.33v-.799h-2.33v-2.414h-.867v2.414h-1.632v.799h1.632v5.814zm8.143 2.108c1.887 0 3.332-1.224 3.706-2.958h-.884c-.34 1.343-1.48 2.176-2.89 2.176-1.921 0-3.128-1.462-3.162-3.468v-.153h7.038c0-.119.017-.255.017-.357-.085-2.567-1.666-4.063-3.978-4.063-2.363 0-3.978 1.802-3.978 4.352 0 2.703 1.683 4.471 4.13 4.471zm-3.162-5.134c.136-1.751 1.445-2.924 3.026-2.924 1.683 0 2.89 1.037 3.026 2.924h-6.052zm15.721-1.581c-.527-1.275-1.683-2.108-3.28-2.108-2.364 0-4.064 1.785-4.064 4.403 0 2.72 1.7 4.42 4.063 4.42 1.615 0 2.754-.85 3.298-2.193v1.53c0 2.295-1.088 3.281-3.162 3.281-1.615 0-2.737-.731-3.009-2.04h-.9c.271 1.836 1.75 2.822 3.841 2.822 2.788 0 4.097-1.326 4.097-4.029v-8.092h-.748l-.136 2.006zm-3.213 5.933c-1.92 0-3.247-1.496-3.247-3.638s1.326-3.638 3.247-3.638c1.921 0 3.247 1.496 3.247 3.655 0 2.125-1.326 3.621-3.247 3.621zm6.579-9.758c.34 0 .612-.255.612-.612a.599.599 0 00-.612-.612.599.599 0 00-.612.612c0 .357.272.612.612.612zM52.784 60h.867v-8.619h-.867V60zm6.713.102c1.887 0 3.332-1.224 3.706-2.958h-.884c-.34 1.343-1.48 2.176-2.89 2.176-1.921 0-3.128-1.462-3.162-3.468v-.153h7.038c0-.119.017-.255.017-.357-.085-2.567-1.666-4.063-3.978-4.063-2.363 0-3.978 1.802-3.978 4.352 0 2.703 1.683 4.471 4.13 4.471zm-3.162-5.134c.136-1.751 1.445-2.924 3.026-2.924 1.683 0 2.89 1.037 3.026 2.924h-6.052zm8.293 2.38c.068 1.785 1.513 2.754 3.672 2.754 1.853 0 3.349-.935 3.349-2.465 0-1.819-1.598-2.176-3.451-2.431-1.343-.187-2.533-.34-2.533-1.547 0-.986.969-1.632 2.431-1.632 1.377 0 2.363.663 2.516 1.785h.884c-.153-1.683-1.53-2.533-3.4-2.533-1.921-.017-3.298.969-3.298 2.448 0 1.734 1.598 2.057 3.366 2.295 1.445.204 2.618.391 2.618 1.666 0 1.02-1.071 1.666-2.482 1.666-1.649 0-2.72-.765-2.788-2.006h-.884zm17.422-6.069c-1.615 0-2.754.884-3.298 2.108V48.1h-.867V60h.748l.136-1.955c.51 1.241 1.666 2.057 3.281 2.057 2.363 0 4.063-1.802 4.063-4.42 0-2.703-1.7-4.403-4.063-4.403zm-.068 8.041c-1.92 0-3.247-1.496-3.247-3.655 0-2.108 1.326-3.621 3.247-3.621 1.921 0 3.247 1.513 3.247 3.638 0 2.142-1.326 3.638-3.247 3.638zm13.43-.119c-.51 0-.765-.17-.765-.833v-4.012c0-1.972-1.207-3.077-3.366-3.077-1.972 0-3.281.952-3.502 2.516h.867c.22-1.054 1.139-1.751 2.6-1.751 1.616 0 2.534.85 2.534 2.278v.748h-2.924c-2.21 0-3.4.952-3.4 2.567 0 1.53 1.207 2.465 3.043 2.465 1.75 0 2.788-.799 3.315-1.87v.306c-.034 1.02.39 1.462 1.41 1.462h.51v-.799h-.322zm-1.632-2.686c0 1.649-1.173 2.839-3.213 2.839-1.377 0-2.227-.697-2.227-1.768 0-1.139.85-1.768 2.448-1.768h2.992v.697zm6.738 3.587c1.955 0 3.332-1.122 3.672-2.873h-.918c-.289 1.275-1.326 2.091-2.754 2.091-1.887 0-3.196-1.479-3.196-3.621s1.292-3.655 3.196-3.655c1.445 0 2.465.816 2.771 2.108h.901c-.357-1.785-1.7-2.873-3.655-2.873-2.43 0-4.097 1.802-4.097 4.42 0 2.652 1.65 4.403 4.08 4.403zm5.357-.102h.867v-2.329l2.023-2.074L112.063 60h1.054l-3.757-5.032 3.468-3.587h-1.071l-5.015 5.168V48.1h-.867V60zm11.744.102c1.887 0 3.332-1.224 3.706-2.958h-.884c-.34 1.343-1.479 2.176-2.89 2.176-1.921 0-3.128-1.462-3.162-3.468v-.153h7.038c0-.119.017-.255.017-.357-.085-2.567-1.666-4.063-3.978-4.063-2.363 0-3.978 1.802-3.978 4.352 0 2.703 1.683 4.471 4.131 4.471zm-3.162-5.134c.136-1.751 1.445-2.924 3.026-2.924 1.683 0 2.89 1.037 3.026 2.924h-6.052zm15.739-1.649c-.527-1.224-1.683-2.04-3.298-2.04-2.363 0-4.063 1.802-4.063 4.403 0 2.72 1.7 4.42 4.063 4.42 1.615 0 2.737-.867 3.281-2.074l.136 1.972h.748V48.1h-.867v5.219zm-3.23 6.001c-1.921 0-3.247-1.496-3.247-3.638 0-2.125 1.326-3.638 3.247-3.638 1.921 0 3.247 1.513 3.247 3.655 0 2.125-1.326 3.621-3.247 3.621zM5.185 75.279c-1.615 0-2.754.884-3.298 2.108V72.1H1.02V84h.748l.136-1.955c.51 1.241 1.666 2.057 3.281 2.057 2.363 0 4.063-1.802 4.063-4.42 0-2.703-1.7-4.403-4.063-4.403zm-.068 8.041c-1.921 0-3.247-1.496-3.247-3.655 0-2.108 1.326-3.621 3.247-3.621 1.921 0 3.247 1.513 3.247 3.638 0 2.142-1.326 3.638-3.247 3.638zm8.066.68l-.56 1.394c-.392.952-.545 1.207-1.429 1.207h-1.088v.799h1.326c1.156 0 1.428-.442 1.972-1.802l4.131-10.217H16.6l-2.94 7.497-2.993-7.497h-.935L13.183 84zm17.138-6.681c-.527-1.224-1.683-2.04-3.298-2.04-2.363 0-4.063 1.802-4.063 4.403 0 2.72 1.7 4.42 4.063 4.42 1.615 0 2.737-.867 3.28-2.074L30.44 84h.748V72.1h-.867v5.219zm-3.23 6.001c-1.921 0-3.247-1.496-3.247-3.638 0-2.125 1.326-3.638 3.247-3.638 1.92 0 3.247 1.513 3.247 3.655 0 2.125-1.326 3.621-3.247 3.621zm13.718-.119c-.51 0-.765-.17-.765-.833v-4.012c0-1.972-1.207-3.077-3.366-3.077-1.972 0-3.281.952-3.502 2.516h.867c.221-1.054 1.139-1.751 2.601-1.751 1.615 0 2.533.85 2.533 2.278v.748h-2.924c-2.21 0-3.4.952-3.4 2.567 0 1.53 1.207 2.465 3.043 2.465 1.751 0 2.788-.799 3.315-1.87v.306c-.034 1.02.391 1.462 1.411 1.462h.51v-.799h-.323zm-1.632-2.686c0 1.649-1.173 2.839-3.213 2.839-1.377 0-2.227-.697-2.227-1.768 0-1.139.85-1.768 2.448-1.768h2.992v.697zm3.76 1.479c0 1.377.562 2.006 2.024 2.006h1.258v-.799h-1.19c-.902 0-1.225-.34-1.225-1.224V76.18h2.33v-.799h-2.33v-2.414h-.867v2.414h-1.631v.799h1.632v5.814zm12 1.207c-.51 0-.765-.17-.765-.833v-4.012c0-1.972-1.207-3.077-3.366-3.077-1.972 0-3.281.952-3.502 2.516h.867c.221-1.054 1.139-1.751 2.601-1.751 1.615 0 2.533.85 2.533 2.278v.748h-2.924c-2.21 0-3.4.952-3.4 2.567 0 1.53 1.207 2.465 3.043 2.465 1.751 0 2.788-.799 3.315-1.87v.306C53.305 83.558 53.73 84 54.75 84h.51v-.799h-.323zm-1.632-2.686c0 1.649-1.173 2.839-3.213 2.839-1.377 0-2.227-.697-2.227-1.768 0-1.139.85-1.768 2.448-1.768h2.992v.697z" fill="#000"/></svg>