<svg width="479" height="40" viewBox="0 0 479 40" fill="none" xmlns="http://www.w3.org/2000/svg"><path d="M.752 31h4.945V.9H.752V31zM22.345 8.726c-3.569 0-5.676 1.419-7.052 3.139l-.516-2.881h-4.042V31h4.644V19.906c0-4.472 2.193-7.181 5.891-7.181 3.483 0 5.246 2.236 5.246 6.407V31h4.687V18.745c0-7.353-3.999-10.019-8.858-10.019zM40.437 31h5.676L54.24 8.984h-4.902L43.36 26.012 37.298 8.984H32.31L40.437 31zm25.595.258c5.46 0 9.159-3.311 9.933-7.654H71.32c-.645 2.451-2.71 3.87-5.547 3.87-3.655 0-6.02-2.451-6.15-6.192v-.301h16.599c.086-.602.129-1.204.129-1.763-.13-6.45-4.386-10.492-10.75-10.492-6.493 0-10.836 4.515-10.836 11.309 0 6.751 4.343 11.223 11.266 11.223zm-6.235-13.674c.344-3.139 2.88-5.117 5.848-5.117 3.225 0 5.504 1.849 5.89 5.117H59.798zm19.237 6.149c.13 4.773 4.171 7.525 10.062 7.525 5.332 0 9.331-2.666 9.331-6.88 0-4.902-4.085-5.934-9.116-6.536-3.182-.344-5.289-.602-5.289-2.666 0-1.763 1.806-2.881 4.558-2.881s4.644 1.419 4.902 3.44h4.558c-.3-4.515-4.128-7.009-9.546-7.009-5.289-.043-9.03 2.666-9.03 6.837 0 4.558 3.956 5.633 8.987 6.235 3.397.43 5.418.602 5.418 2.967 0 1.763-1.892 2.881-4.773 2.881-3.354 0-5.332-1.634-5.504-3.913h-4.558zm24.583 1.29c0 3.999 1.806 5.977 6.02 5.977h4.3v-4.085h-3.268c-1.763 0-2.365-.645-2.365-2.365V13.069h5.375V8.984h-5.375V2.835h-4.687v6.149H99.79v4.085h3.827v11.954zm23.261 6.235c5.461 0 9.159-3.311 9.933-7.654h-4.644c-.645 2.451-2.709 3.87-5.547 3.87-3.655 0-6.02-2.451-6.149-6.192v-.301h16.598c.086-.602.129-1.204.129-1.763-.129-6.45-4.386-10.492-10.75-10.492-6.493 0-10.836 4.515-10.836 11.309 0 6.751 4.343 11.223 11.266 11.223zm-6.235-13.674c.344-3.139 2.881-5.117 5.848-5.117 3.225 0 5.504 1.849 5.891 5.117h-11.739zm37.037-5.547c-1.419-1.935-3.784-3.311-7.138-3.311-5.977 0-10.406 4.472-10.406 11.266 0 7.052 4.429 11.266 10.406 11.266 3.483 0 5.762-1.634 7.181-3.569l.559 3.311h4.042V.9h-4.644v11.137zm-6.364 15.308c-3.87 0-6.407-3.01-6.407-7.353 0-4.3 2.537-7.31 6.407-7.31s6.407 3.01 6.407 7.396c0 4.257-2.537 7.267-6.407 7.267zm28.913-21.457c1.591 0 2.838-1.161 2.838-2.795S181.82.298 180.229.298s-2.838 1.161-2.838 2.795 1.247 2.795 2.838 2.795zM177.864 31h4.644V8.984h-4.644V31zM198.67 8.726c-3.569 0-5.676 1.419-7.052 3.139l-.516-2.881h-4.042V31h4.644V19.906c0-4.472 2.193-7.181 5.891-7.181 3.483 0 5.246 2.236 5.246 6.407V31h4.687V18.745c0-7.353-3.999-10.019-8.858-10.019zm30.448 22.403l-.86 2.15c-.688 1.806-1.118 2.236-2.924 2.236h-3.268V39.6h4.988c3.225 0 4.171-1.591 5.547-5.16l9.976-25.456h-4.945l-5.977 16.727-6.149-16.727h-4.945l8.557 22.145zm25.206.129c6.708 0 11.223-4.515 11.223-11.266 0-6.708-4.515-11.266-11.223-11.266-6.708 0-11.223 4.558-11.223 11.266 0 6.751 4.515 11.266 11.223 11.266zm0-3.956c-3.913 0-6.45-3.053-6.45-7.31s2.537-7.31 6.45-7.31c3.913 0 6.493 3.053 6.493 7.31s-2.58 7.31-6.493 7.31zm30.05-7.31c0 4.558-2.15 7.224-5.676 7.224-3.397 0-5.117-2.193-5.117-6.493V8.984h-4.644v12.255c0 7.525 3.999 10.019 8.686 10.019 3.397 0 5.418-1.376 6.794-3.053l.516 2.795h4.085V8.984h-4.644v11.008zm20.357-11.008c-3.612 0-5.375 1.462-6.493 3.311l-.516-3.311h-4.128V31h4.644V19.949c0-3.397 1.333-6.622 5.461-6.622h2.064V8.984h-1.032zm13.953 14.749c.129 4.773 4.171 7.525 10.062 7.525 5.332 0 9.331-2.666 9.331-6.88 0-4.902-4.085-5.934-9.116-6.536-3.182-.344-5.289-.602-5.289-2.666 0-1.763 1.806-2.881 4.558-2.881s4.644 1.419 4.902 3.44h4.558c-.301-4.515-4.128-7.009-9.546-7.009-5.289-.043-9.03 2.666-9.03 6.837 0 4.558 3.956 5.633 8.987 6.235 3.397.43 5.418.602 5.418 2.967 0 1.763-1.892 2.881-4.773 2.881-3.354 0-5.332-1.634-5.504-3.913h-4.558zm38.084-3.741c0 4.558-2.15 7.224-5.676 7.224-3.397 0-5.117-2.193-5.117-6.493V8.984h-4.644v12.255c0 7.525 3.999 10.019 8.686 10.019 3.397 0 5.418-1.376 6.794-3.053l.516 2.795h4.085V8.984h-4.644v11.008zm19.326 11.266c5.633 0 9.374-3.139 10.234-8.127h-4.902c-.559 2.537-2.451 4.171-5.289 4.171-3.741 0-6.192-2.967-6.192-7.267 0-4.343 2.451-7.353 6.192-7.353 2.881 0 4.73 1.591 5.332 4.171h4.859c-.903-4.988-4.429-8.127-10.105-8.127-6.665 0-11.051 4.515-11.051 11.309 0 6.88 4.257 11.223 10.922 11.223zm23.894 0c5.633 0 9.374-3.139 10.234-8.127h-4.902c-.559 2.537-2.451 4.171-5.289 4.171-3.741 0-6.192-2.967-6.192-7.267 0-4.343 2.451-7.353 6.192-7.353 2.881 0 4.73 1.591 5.332 4.171h4.859c-.903-4.988-4.429-8.127-10.105-8.127-6.665 0-11.051 4.515-11.051 11.309 0 6.88 4.257 11.223 10.922 11.223zm24.237 0c5.461 0 9.159-3.311 9.933-7.654h-4.644c-.645 2.451-2.709 3.87-5.547 3.87-3.655 0-6.02-2.451-6.149-6.192v-.301h16.598c.086-.602.129-1.204.129-1.763-.129-6.45-4.386-10.492-10.75-10.492-6.493 0-10.836 4.515-10.836 11.309 0 6.751 4.343 11.223 11.266 11.223zm-6.235-13.674c.344-3.139 2.881-5.117 5.848-5.117 3.225 0 5.504 1.849 5.891 5.117H417.99zm19.238 6.149c.129 4.773 4.171 7.525 10.062 7.525 5.332 0 9.331-2.666 9.331-6.88 0-4.902-4.085-5.934-9.116-6.536-3.182-.344-5.289-.602-5.289-2.666 0-1.763 1.806-2.881 4.558-2.881s4.644 1.419 4.902 3.44h4.558c-.301-4.515-4.128-7.009-9.546-7.009-5.289-.043-9.03 2.666-9.03 6.837 0 4.558 3.956 5.633 8.987 6.235 3.397.43 5.418.602 5.418 2.967 0 1.763-1.892 2.881-4.773 2.881-3.354 0-5.332-1.634-5.504-3.913h-4.558zm21.626 0c.129 4.773 4.171 7.525 10.062 7.525 5.332 0 9.331-2.666 9.331-6.88 0-4.902-4.085-5.934-9.116-6.536-3.182-.344-5.289-.602-5.289-2.666 0-1.763 1.806-2.881 4.558-2.881s4.644 1.419 4.902 3.44h4.558c-.301-4.515-4.128-7.009-9.546-7.009-5.289-.043-9.03 2.666-9.03 6.837 0 4.558 3.956 5.633 8.987 6.235 3.397.43 5.418.602 5.418 2.967 0 1.763-1.892 2.881-4.773 2.881-3.354 0-5.332-1.634-5.504-3.913h-4.558z" fill="#000"/></svg>