<svg width="47" height="17" viewBox="0 0 47 17" fill="none" xmlns="http://www.w3.org/2000/svg"><path d="M32.04 6.556h-2.417C28.96 2.77 26.184.47 21.988.47c-4.716 0-7.766 3.15-7.766 8.017 0 4.868 2.955 7.947 7.766 7.922 3.922 0 6.705-2.161 7.533-5.703h1.638l.5-1.385h-1.921a11.304 11.304 0 00.03-1.384h1.796l.477-1.385v.005zm-6.76 2.77h-2.577l-.5 1.384h2.938c-.33 2.074-1.219 3.508-3.058 3.508-2.43 0-3.382-2.579-3.382-5.774s.762-5.751 3.217-5.774c1.93 0 2.927 1.611 3.257 3.889h-2.09l-.477 1.384h2.683c.004.166.009.331.009.501 0 .302-.007.596-.02.884v-.002zM.883 16.41h4.216v-5.797h7.171V7.105H5.1V4.526h7.932V.828H.882v15.581zM43.763 10.73c1.882-.81 3.12-2.363 3.12-4.677v-.047c0-1.48-.453-2.672-1.335-3.533C44.525 1.446 42.903.828 40.594.828H33.4v15.581h4.217v-4.987h1.857l2.287 5.048h4.86l-2.86-5.74h.002zm-1.097-4.416c0 1.122-.832 1.813-2.262 1.813h-2.79V4.454h2.765c1.43 0 2.287.62 2.287 1.812v.048z" fill="#fff"/></svg>