<svg width="73" height="18" viewBox="0 0 73 18" fill="none" xmlns="http://www.w3.org/2000/svg"><rect x=".5" y=".5" width="72" height="17" rx="8.5" fill="#14964F"/><path d="M16.45 7.625V6.468h-4.277v1.157h1.459V11.5h1.359V7.625h1.459zm.68-1.15V11.5h1.351V9.969H19.287l.977 1.531h1.56l-1.128-1.711c.697-.237.992-.748.992-1.567 0-1.23-.654-1.747-2.294-1.747H17.13zM18.48 7.69h.978c.597 0 .82.187.82.618 0 .439-.223.618-.82.618h-.978V7.69zm9.454 3.81L25.93 6.468h-1.776L22.17 11.5h1.617l.324-.877h1.883l.324.877h1.617zm-3.472-1.955l.582-1.568.583 1.568h-1.165zm4.152-3.07V11.5h2.157c1.488 0 2.696-1.085 2.696-2.509 0-1.43-1.208-2.523-2.696-2.523l-2.156.007zm1.352 1.208h.755c.747 0 1.359.56 1.359 1.3 0 .749-.612 1.31-1.36 1.31h-.754v-2.61zm8.51 0V6.468h-4.119V11.5h4.163v-1.215H35.71V9.53h2.573V8.38H35.71v-.697h2.767zM45.8 11.5V6.468h-1.33v2.81l-2.027-2.81H41.04V11.5h1.33V8.696l2.027 2.804H45.8zm3.544-5.097c-1.488 0-2.696 1.157-2.696 2.588 0 1.424 1.208 2.58 2.696 2.58 1.488 0 2.696-1.156 2.696-2.58 0-1.43-1.208-2.588-2.696-2.588zm0 1.265c.755 0 1.287.59 1.287 1.323 0 .726-.532 1.316-1.287 1.316-.755 0-1.28-.59-1.28-1.316 0-.733.525-1.323 1.28-1.323zm9.184 3.832l1.653-5.025h-1.51l-.898 2.911-.877-2.918h-1.323l-.877 2.918-.899-2.911h-1.51l1.654 5.025h1.388l.905-2.89.906 2.89h1.388z" fill="#fff"/></svg>