<svg width="50" height="16" viewBox="0 0 50 16" fill="none" xmlns="http://www.w3.org/2000/svg"><path d="M10.218 10.278L16.254.326h-4.825L8.206 5.972 5.004.326H.136l6.015 9.995v5.149h4.067v-5.192zM24.468.13c-4.479 0-8.113 3.483-8.113 7.788 0 4.284 3.634 7.767 8.113 7.767 4.478 0 8.113-3.483 8.113-7.767 0-4.305-3.635-7.788-8.113-7.788zm0 3.808c2.271 0 3.872 1.774 3.872 3.98 0 2.186-1.6 3.96-3.872 3.96s-3.851-1.774-3.851-3.96c0-2.206 1.58-3.98 3.85-3.98zM49.184.326h-4.089v8.2c0 2.422-1.103 3.44-2.877 3.44-1.753 0-2.856-1.018-2.878-3.44V.347h-4.067v8.177c0 4.954 2.683 7.161 6.945 7.161 4.262 0 6.966-2.207 6.966-7.16v-8.2z" fill="#09B45B"/></svg>