<svg width="241" height="17" viewBox="0 0 241 17" fill="none" xmlns="http://www.w3.org/2000/svg"><path d="M4.788 8.338V13h2.07V8.338L11.556.4H9.234L5.832 6.16 2.52.4H.09l4.698 7.938zm10.577 4.77c2.808 0 4.698-1.89 4.698-4.716 0-2.808-1.89-4.716-4.698-4.716-2.808 0-4.698 1.908-4.698 4.716 0 2.826 1.89 4.716 4.698 4.716zm0-1.656c-1.638 0-2.7-1.278-2.7-3.06s1.062-3.06 2.7-3.06c1.638 0 2.718 1.278 2.718 3.06s-1.08 3.06-2.718 3.06zm12.579-3.06c0 1.908-.9 3.024-2.376 3.024-1.422 0-2.142-.918-2.142-2.718V3.784h-1.944v5.13c0 3.15 1.674 4.194 3.636 4.194 1.422 0 2.268-.576 2.844-1.278l.216 1.17h1.71V3.784h-1.944v4.608zm16.89 2.916c-.397 0-.595-.126-.595-.594v-3.69c0-2.178-1.404-3.348-3.852-3.348-2.322 0-3.87 1.116-4.068 2.916h1.908c.144-.81.918-1.35 2.07-1.35 1.278 0 2.016.63 2.016 1.656v.558h-2.322c-2.574 0-3.942 1.062-3.942 2.952 0 1.71 1.404 2.7 3.42 2.7 1.494 0 2.43-.648 3.042-1.584 0 .918.432 1.476 1.692 1.476h1.026v-1.692h-.396zm-2.52-2.088c-.019 1.422-.955 2.376-2.575 2.376-1.062 0-1.71-.54-1.71-1.314 0-.936.666-1.386 1.872-1.386h2.412v.324zm8.636-5.436c-1.512 0-2.25.612-2.718 1.386l-.216-1.386h-1.728V13h1.944V8.374c0-1.422.558-2.772 2.286-2.772h.864V3.784h-.432zm5.566 9.324c2.285 0 3.834-1.386 4.157-3.204H58.73c-.27 1.026-1.133 1.62-2.322 1.62-1.53 0-2.52-1.026-2.573-2.592v-.126h6.947a5.28 5.28 0 00.055-.738c-.054-2.7-1.837-4.392-4.5-4.392-2.718 0-4.536 1.89-4.536 4.734 0 2.826 1.818 4.698 4.716 4.698zm-2.61-5.724c.144-1.314 1.206-2.142 2.447-2.142 1.35 0 2.304.774 2.466 2.142h-4.913zm21.53 3.924c-.395 0-.593-.126-.593-.594v-3.69c0-2.178-1.404-3.348-3.852-3.348-2.322 0-3.87 1.116-4.068 2.916h1.908c.144-.81.918-1.35 2.07-1.35 1.278 0 2.016.63 2.016 1.656v.558h-2.322c-2.574 0-3.942 1.062-3.942 2.952 0 1.71 1.404 2.7 3.42 2.7 1.494 0 2.43-.648 3.042-1.584 0 .918.432 1.476 1.692 1.476h1.026v-1.692h-.396zm-2.52-2.088c-.017 1.422-.953 2.376-2.573 2.376-1.062 0-1.71-.54-1.71-1.314 0-.936.666-1.386 1.872-1.386h2.412v.324zM76.892 13h1.944V.4h-1.944V13zm14.452-9.324c-1.512 0-2.556.666-3.15 1.674-.558-1.188-1.638-1.674-2.844-1.674-1.386.018-2.178.63-2.7 1.314l-.216-1.206h-1.692V13h1.944V8.068c0-1.638.828-2.718 2.16-2.718 1.278 0 1.944.846 1.944 2.466V13h1.962V8.014c0-1.656.846-2.664 2.178-2.664 1.26 0 1.926.846 1.926 2.466V13H94.8V7.69c0-2.916-1.548-4.014-3.456-4.014zm9.504 9.432c2.808 0 4.698-1.89 4.698-4.716 0-2.808-1.89-4.716-4.698-4.716-2.808 0-4.698 1.908-4.698 4.716 0 2.826 1.89 4.716 4.698 4.716zm0-1.656c-1.638 0-2.7-1.278-2.7-3.06s1.062-3.06 2.7-3.06c1.638 0 2.718 1.278 2.718 3.06s-1.08 3.06-2.718 3.06zm5.813-1.494c.054 1.998 1.746 3.15 4.212 3.15 2.232 0 3.906-1.116 3.906-2.88 0-2.052-1.71-2.484-3.816-2.736-1.332-.144-2.214-.252-2.214-1.116 0-.738.756-1.206 1.908-1.206s1.944.594 2.052 1.44h1.908c-.126-1.89-1.728-2.934-3.996-2.934-2.214-.018-3.78 1.116-3.78 2.862 0 1.908 1.656 2.358 3.762 2.61 1.422.18 2.268.252 2.268 1.242 0 .738-.792 1.206-1.998 1.206-1.404 0-2.232-.684-2.304-1.638h-1.908zm10.29.54c0 1.674.756 2.502 2.52 2.502h1.8v-1.71h-1.368c-.738 0-.99-.27-.99-.99V5.494h2.25v-1.71h-2.25V1.21h-1.962v2.574h-1.602v1.71h1.602v5.004zm14.824-6.714c-1.512 0-2.25.612-2.718 1.386l-.216-1.386h-1.728V13h1.944V8.374c0-1.422.558-2.772 2.286-2.772h.864V3.784h-.432zm5.566 9.324c2.286 0 3.834-1.386 4.158-3.204h-1.944c-.27 1.026-1.134 1.62-2.322 1.62-1.53 0-2.52-1.026-2.574-2.592v-.126h6.948a5.28 5.28 0 00.054-.738c-.054-2.7-1.836-4.392-4.5-4.392-2.718 0-4.536 1.89-4.536 4.734 0 2.826 1.818 4.698 4.716 4.698zm-2.61-5.724c.144-1.314 1.206-2.142 2.448-2.142 1.35 0 2.304.774 2.466 2.142h-4.914zm16.925 3.924c-.396 0-.594-.126-.594-.594v-3.69c0-2.178-1.404-3.348-3.852-3.348-2.322 0-3.87 1.116-4.068 2.916h1.908c.144-.81.918-1.35 2.07-1.35 1.278 0 2.016.63 2.016 1.656v.558h-2.322c-2.574 0-3.942 1.062-3.942 2.952 0 1.71 1.404 2.7 3.42 2.7 1.494 0 2.43-.648 3.042-1.584 0 .918.432 1.476 1.692 1.476h1.026v-1.692h-.396zm-2.52-2.088c-.018 1.422-.954 2.376-2.574 2.376-1.062 0-1.71-.54-1.71-1.314 0-.936.666-1.386 1.872-1.386h2.412v.324zm10.907-4.158c-.594-.81-1.584-1.386-2.988-1.386-2.502 0-4.356 1.872-4.356 4.716 0 2.952 1.854 4.716 4.356 4.716 1.458 0 2.412-.684 3.006-1.494l.234 1.386h1.692V.4h-1.944v4.662zm-2.664 6.408c-1.62 0-2.682-1.26-2.682-3.078 0-1.8 1.062-3.06 2.682-3.06 1.62 0 2.682 1.26 2.682 3.096 0 1.782-1.062 3.042-2.682 3.042zm9.172 1.584l-.36.9c-.288.756-.468.936-1.224.936h-1.368v1.71h2.088c1.35 0 1.746-.666 2.322-2.16l4.176-10.656h-2.07l-2.502 7.002-2.574-7.002h-2.07l3.582 9.27zm11.888-2.556c0 1.674.756 2.502 2.52 2.502h1.8v-1.71h-1.368c-.738 0-.99-.27-.99-.99V5.494h2.25v-1.71h-2.25V1.21h-1.962v2.574h-1.602v1.71h1.602v5.004zm9.72 2.61c2.808 0 4.698-1.89 4.698-4.716 0-2.808-1.89-4.716-4.698-4.716-2.808 0-4.698 1.908-4.698 4.716 0 2.826 1.89 4.716 4.698 4.716zm0-1.656c-1.638 0-2.7-1.278-2.7-3.06s1.062-3.06 2.7-3.06c1.638 0 2.718 1.278 2.718 3.06s-1.08 3.06-2.718 3.06zm11.532-.954c0 1.674.756 2.502 2.52 2.502h1.8v-1.71h-1.368c-.738 0-.99-.27-.99-.99V5.494h2.25v-1.71h-2.25V1.21h-1.962v2.574h-1.602v1.71h1.602v5.004zm10.219-6.714c-1.512 0-2.25.612-2.718 1.386l-.216-1.386h-1.728V13h1.944V8.374c0-1.422.558-2.772 2.286-2.772h.864V3.784h-.432zm9.774 7.524c-.396 0-.594-.126-.594-.594v-3.69c0-2.178-1.404-3.348-3.852-3.348-2.322 0-3.87 1.116-4.068 2.916h1.908c.144-.81.918-1.35 2.07-1.35 1.278 0 2.016.63 2.016 1.656v.558h-2.322c-2.574 0-3.942 1.062-3.942 2.952 0 1.71 1.404 2.7 3.42 2.7 1.494 0 2.43-.648 3.042-1.584 0 .918.432 1.476 1.692 1.476h1.026v-1.692h-.396zm-2.52-2.088c-.018 1.422-.954 2.376-2.574 2.376-1.062 0-1.71-.54-1.71-1.314 0-.936.666-1.386 1.872-1.386h2.412v.324zm10.906-4.158c-.594-.81-1.584-1.386-2.988-1.386-2.502 0-4.356 1.872-4.356 4.716 0 2.952 1.854 4.716 4.356 4.716 1.458 0 2.412-.684 3.006-1.494l.234 1.386h1.692V.4h-1.944v4.662zm-2.664 6.408c-1.62 0-2.682-1.26-2.682-3.078 0-1.8 1.062-3.06 2.682-3.06 1.62 0 2.682 1.26 2.682 3.096 0 1.782-1.062 3.042-2.682 3.042zm10.882 1.638c2.286 0 3.834-1.386 4.158-3.204h-1.944c-.27 1.026-1.134 1.62-2.322 1.62-1.53 0-2.52-1.026-2.574-2.592v-.126h6.948a5.28 5.28 0 00.054-.738c-.054-2.7-1.836-4.392-4.5-4.392-2.718 0-4.536 1.89-4.536 4.734 0 2.826 1.818 4.698 4.716 4.698zm-2.61-5.724c.144-1.314 1.206-2.142 2.448-2.142 1.35 0 2.304.774 2.466 2.142h-4.914z" fill="#000"/></svg>