<svg width="93" height="57" viewBox="0 0 93 57" fill="none" xmlns="http://www.w3.org/2000/svg"><path d="M3.683 21l1.885-5.017h8.323L15.805 21h3.567L11.803.7H7.83L.232 21h3.451zM9.715 4.296l3.248 8.845H6.496l3.219-8.845zM21.135 21h3.132V.7h-3.132V21zM44.418 5.978c-2.436 0-4.118 1.073-5.075 2.697-.9-1.914-2.64-2.697-4.582-2.697-2.233.029-3.51 1.015-4.35 2.117l-.348-1.943h-2.726V21h3.132v-7.946c0-2.639 1.334-4.379 3.48-4.379 2.059 0 3.132 1.363 3.132 3.973V21h3.16v-8.033c0-2.668 1.364-4.292 3.51-4.292 2.03 0 3.103 1.363 3.103 3.973V21h3.132v-8.555c0-4.698-2.494-6.467-5.568-6.467zM59.73 21.174c4.524 0 7.569-3.045 7.569-7.598 0-4.524-3.045-7.598-7.57-7.598-4.523 0-7.568 3.074-7.568 7.598 0 4.553 3.045 7.598 7.569 7.598zm0-2.668c-2.64 0-4.35-2.059-4.35-4.93 0-2.871 1.71-4.93 4.35-4.93 2.639 0 4.379 2.059 4.379 4.93 0 2.871-1.74 4.93-4.38 4.93zm9.364-2.407c.087 3.219 2.813 5.075 6.786 5.075 3.596 0 6.293-1.798 6.293-4.64 0-3.306-2.755-4.002-6.148-4.408-2.146-.232-3.567-.406-3.567-1.798 0-1.189 1.218-1.943 3.074-1.943 1.856 0 3.132.957 3.306 2.32h3.074c-.203-3.045-2.784-4.727-6.438-4.727-3.567-.029-6.09 1.798-6.09 4.611 0 3.074 2.668 3.799 6.061 4.205 2.291.29 3.654.406 3.654 2.001 0 1.189-1.276 1.943-3.219 1.943-2.262 0-3.596-1.102-3.712-2.639h-3.074zm16.58.87c0 2.697 1.217 4.031 4.06 4.031h2.9v-2.755H90.43c-1.19 0-1.596-.435-1.596-1.595V8.907h3.626V6.152h-3.625V2.005h-3.161v4.147h-2.582v2.755h2.582v8.062zm-83.064 35C2.61 54.666 3.828 56 6.67 56h2.9v-2.755H7.366c-1.189 0-1.595-.435-1.595-1.595v-7.743h3.625v-2.755H5.771v-4.147H2.61v4.147H.029v2.755H2.61v8.062zm16.753-10.991c-2.32 0-3.74 1.044-4.669 2.32V35.7h-3.132V56h3.132v-7.511c0-2.987 1.508-4.814 3.973-4.814 2.32 0 3.567 1.508 3.567 4.321V56h3.132v-8.265c0-4.959-2.697-6.757-6.003-6.757zm15.785 15.196c3.683 0 6.177-2.233 6.7-5.162h-3.133c-.434 1.653-1.827 2.61-3.74 2.61-2.465 0-4.06-1.653-4.148-4.176v-.203h11.195c.058-.406.087-.812.087-1.189-.087-4.35-2.959-7.076-7.25-7.076-4.38 0-7.309 3.045-7.309 7.627 0 4.553 2.93 7.569 7.598 7.569zm-4.205-9.222c.232-2.117 1.943-3.451 3.945-3.451 2.175 0 3.712 1.247 3.973 3.451h-7.917zm21.208-5.8c-2.436 0-3.625.986-4.379 2.233l-.347-2.233H44.64V56h3.132v-7.453c0-2.291.898-4.466 3.682-4.466h1.392v-2.929h-.696zm8.967 15.022c3.683 0 6.177-2.233 6.7-5.162h-3.133c-.435 1.653-1.827 2.61-3.74 2.61-2.466 0-4.06-1.653-4.148-4.176v-.203h11.194c.058-.406.087-.812.087-1.189-.087-4.35-2.958-7.076-7.25-7.076-4.379 0-7.308 3.045-7.308 7.627 0 4.553 2.93 7.569 7.598 7.569zm-4.205-9.222c.232-2.117 1.943-3.451 3.944-3.451 2.175 0 3.712 1.247 3.973 3.451h-7.917zm17.235 2.871l.493-14.123h-3.364l.493 14.123h2.378zm-3.219 4.379c0 1.16.87 1.972 2.03 1.972 1.16 0 2.001-.812 2.001-1.972s-.84-1.972-2-1.972c-1.16 0-2.03.812-2.03 1.972z" fill="#000"/></svg>