<svg width="111" height="26" viewBox="0 0 111 26" fill="none" xmlns="http://www.w3.org/2000/svg"><rect x=".287" y=".617" width="109.887" height="24.766" rx="12.383" fill="#fff"/><path d="M19.047 17h1.044v-3.672h3.456v-.96H20.09V9.56h4.176V8.6h-5.22V17zm6.7-7.152c.36 0 .636-.264.636-.636a.618.618 0 00-.636-.636.618.618 0 00-.636.636c0 .372.276.636.636.636zM25.243 17h.984v-6.12h-.984V17zm5.332-6.192c-1.032 0-1.656.432-2.016.9l-.132-.828h-.852V17h.984v-3.06c0-1.38.696-2.232 1.848-2.232 1.068 0 1.656.672 1.656 1.944V17h.984v-3.408c0-2.028-1.092-2.784-2.472-2.784zm8.48 1.008c-.372-.588-1.068-1.008-2.1-1.008-1.692 0-2.94 1.26-2.94 3.132 0 1.992 1.248 3.132 2.94 3.132 1.032 0 1.692-.492 2.1-1.056l.132.984h.852V8.6h-.984v3.216zm-2.004 4.38c-1.212 0-2.028-.924-2.028-2.256 0-1.332.816-2.256 2.028-2.256 1.2 0 2.016.936 2.016 2.28 0 1.308-.816 2.232-2.016 2.232zm10.289.876c1.788 0 3.036-1.272 3.036-3.132s-1.248-3.132-3.036-3.132-3.036 1.272-3.036 3.132 1.248 3.132 3.036 3.132zm0-.876c-1.212 0-2.028-.948-2.028-2.256 0-1.308.816-2.256 2.028-2.256 1.212 0 2.028.948 2.028 2.256 0 1.308-.816 2.256-2.028 2.256zm8.448-2.256c0 1.38-.672 2.232-1.788 2.232-1.02 0-1.596-.672-1.596-1.944V10.88h-.984v3.408c0 2.028 1.068 2.784 2.412 2.784 1.008 0 1.596-.432 1.956-.888l.132.816h.852v-6.12h-.984v3.06zm2.805 1.464c0 1.08.42 1.596 1.596 1.596h1.068v-.9h-.972c-.528 0-.708-.192-.708-.708V11.78h1.584v-.9h-1.584V9.164h-.984v1.716H57.49v.9h1.104v3.624zm13.485-4.596c-1.092 0-1.752.504-2.124 1.164-.348-.78-1.08-1.164-1.932-1.164-.948 0-1.464.468-1.788.912l-.132-.84h-.852V17h.984v-3.228c0-1.224.612-2.064 1.62-2.064.936 0 1.476.624 1.476 1.824V17h.984v-3.276c0-1.248.624-2.016 1.644-2.016.924 0 1.452.624 1.452 1.824V17h.984v-3.528c0-1.932-1.044-2.664-2.316-2.664zm6.328 6.264c1.788 0 3.036-1.272 3.036-3.132s-1.248-3.132-3.036-3.132-3.036 1.272-3.036 3.132 1.248 3.132 3.036 3.132zm0-.876c-1.212 0-2.028-.948-2.028-2.256 0-1.308.816-2.256 2.028-2.256 1.212 0 2.028.948 2.028 2.256 0 1.308-.816 2.256-2.028 2.256zm6.997-5.316c-1.092 0-1.56.456-1.848.924l-.132-.924h-.852V17h.984v-3.12c0-.972.348-2.04 1.632-2.04h.492v-.96h-.276zM89 17.072c1.416 0 2.424-.9 2.664-2.124h-.996c-.204.792-.876 1.248-1.74 1.248-1.164 0-1.896-.816-1.932-1.98v-.084h4.752c.012-.144.024-.288.024-.42-.048-1.812-1.176-2.904-2.904-2.904s-2.904 1.272-2.904 3.132c0 1.872 1.2 3.132 3.036 3.132zm-1.944-3.756c.096-.996.924-1.644 1.824-1.644 1.02 0 1.74.588 1.836 1.644h-3.66z" fill="#000"/></svg>