<svg width="174" height="13" viewBox="0 0 174 13" fill="none" xmlns="http://www.w3.org/2000/svg"><path d="M3.458 6.133V9.5h1.495V6.133L8.346.4H6.669L4.212 4.56 1.82.4H.065l3.393 5.733zm7.639 3.445c2.028 0 3.393-1.365 3.393-3.406 0-2.028-1.365-3.406-3.393-3.406-2.028 0-3.393 1.378-3.393 3.406 0 2.041 1.365 3.406 3.393 3.406zm0-1.196c-1.183 0-1.95-.923-1.95-2.21s.767-2.21 1.95-2.21c1.183 0 1.963.923 1.963 2.21s-.78 2.21-1.963 2.21zm9.085-2.21c0 1.378-.65 2.184-1.716 2.184-1.027 0-1.547-.663-1.547-1.963V2.844h-1.404v3.705c0 2.275 1.209 3.029 2.626 3.029 1.027 0 1.638-.416 2.054-.923l.156.845h1.235V2.844h-1.404v3.328zm12.197 2.106c-.286 0-.429-.091-.429-.429V5.184c0-1.573-1.014-2.418-2.782-2.418-1.677 0-2.795.806-2.938 2.106h1.378c.104-.585.663-.975 1.495-.975.923 0 1.456.455 1.456 1.196v.403h-1.677c-1.859 0-2.847.767-2.847 2.132 0 1.235 1.014 1.95 2.47 1.95 1.08 0 1.755-.468 2.197-1.144 0 .663.312 1.066 1.222 1.066h.741V8.278h-.286zM30.56 6.77c-.013 1.027-.689 1.716-1.859 1.716-.767 0-1.235-.39-1.235-.949 0-.676.481-1.001 1.352-1.001h1.742v.234zm6.238-3.926c-1.092 0-1.625.442-1.963 1.001l-.156-1.001H33.43V9.5h1.404V6.159c0-1.027.403-2.002 1.651-2.002h.624V2.844h-.312zm4.02 6.734c1.65 0 2.769-1.001 3.003-2.314h-1.404c-.195.741-.82 1.17-1.677 1.17-1.105 0-1.82-.741-1.86-1.872v-.091h5.019c.026-.182.039-.364.039-.533-.04-1.95-1.326-3.172-3.25-3.172-1.963 0-3.276 1.365-3.276 3.419 0 2.041 1.313 3.393 3.406 3.393zm-1.885-4.134c.104-.949.87-1.547 1.768-1.547.975 0 1.664.559 1.78 1.547h-3.548zm15.55 2.834c-.286 0-.429-.091-.429-.429V5.184c0-1.573-1.014-2.418-2.782-2.418-1.677 0-2.795.806-2.938 2.106h1.378c.104-.585.663-.975 1.495-.975.923 0 1.456.455 1.456 1.196v.403h-1.677c-1.859 0-2.847.767-2.847 2.132 0 1.235 1.014 1.95 2.47 1.95 1.079 0 1.755-.468 2.197-1.144 0 .663.312 1.066 1.222 1.066h.741V8.278h-.286zm-1.82-1.508c-.013 1.027-.689 1.716-1.859 1.716-.767 0-1.235-.39-1.235-.949 0-.676.481-1.001 1.352-1.001h1.742v.234zm2.87 2.73h1.405V.4h-1.404v9.1zM65.97 2.766c-1.092 0-1.846.481-2.275 1.209-.403-.858-1.183-1.209-2.054-1.209-1.001.013-1.573.455-1.95.949l-.156-.871h-1.222V9.5h1.404V5.938c0-1.183.598-1.963 1.56-1.963.923 0 1.404.611 1.404 1.781V9.5h1.417V5.899c0-1.196.611-1.924 1.573-1.924.91 0 1.391.611 1.391 1.781V9.5h1.404V5.665c0-2.106-1.118-2.899-2.496-2.899zm6.864 6.812c2.028 0 3.393-1.365 3.393-3.406 0-2.028-1.365-3.406-3.393-3.406-2.028 0-3.393 1.378-3.393 3.406 0 2.041 1.365 3.406 3.393 3.406zm0-1.196c-1.183 0-1.95-.923-1.95-2.21s.767-2.21 1.95-2.21c1.183 0 1.963.923 1.963 2.21s-.78 2.21-1.963 2.21zm4.198-1.079c.039 1.443 1.26 2.275 3.042 2.275 1.612 0 2.82-.806 2.82-2.08 0-1.482-1.234-1.794-2.755-1.976-.962-.104-1.6-.182-1.6-.806 0-.533.547-.871 1.379-.871s1.404.429 1.482 1.04h1.378c-.091-1.365-1.248-2.119-2.886-2.119-1.6-.013-2.73.806-2.73 2.067 0 1.378 1.196 1.703 2.717 1.885 1.027.13 1.638.182 1.638.897 0 .533-.572.871-1.443.871-1.014 0-1.612-.494-1.664-1.183h-1.378zm7.432.39c0 1.209.546 1.807 1.82 1.807h1.3V8.265h-.988c-.533 0-.715-.195-.715-.715V4.079h1.625V2.844H85.88V.985h-1.417v1.859h-1.157v1.235h1.157v3.614zM95.17 2.844c-1.092 0-1.625.442-1.963 1.001l-.156-1.001h-1.248V9.5h1.404V6.159c0-1.027.403-2.002 1.651-2.002h.624V2.844h-.312zm4.02 6.734c1.651 0 2.769-1.001 3.003-2.314h-1.404c-.195.741-.82 1.17-1.677 1.17-1.105 0-1.82-.741-1.86-1.872v-.091h5.019c.026-.182.039-.364.039-.533-.039-1.95-1.326-3.172-3.25-3.172-1.963 0-3.276 1.365-3.276 3.419 0 2.041 1.313 3.393 3.406 3.393zm-1.885-4.134c.104-.949.87-1.547 1.768-1.547.975 0 1.664.559 1.781 1.547h-3.55zm12.224 2.834c-.286 0-.429-.091-.429-.429V5.184c0-1.573-1.014-2.418-2.782-2.418-1.677 0-2.795.806-2.938 2.106h1.378c.104-.585.663-.975 1.495-.975.923 0 1.456.455 1.456 1.196v.403h-1.677c-1.859 0-2.847.767-2.847 2.132 0 1.235 1.014 1.95 2.47 1.95 1.079 0 1.755-.468 2.197-1.144 0 .663.312 1.066 1.222 1.066h.741V8.278h-.286zm-1.82-1.508c-.013 1.027-.689 1.716-1.859 1.716-.767 0-1.235-.39-1.235-.949 0-.676.481-1.001 1.352-1.001h1.742v.234zm7.877-3.003c-.429-.585-1.144-1.001-2.158-1.001-1.807 0-3.146 1.352-3.146 3.406 0 2.132 1.339 3.406 3.146 3.406 1.053 0 1.742-.494 2.171-1.079l.169 1.001h1.222V.4h-1.404v3.367zm-1.924 4.628c-1.17 0-1.937-.91-1.937-2.223 0-1.3.767-2.21 1.937-2.21s1.937.91 1.937 2.236c0 1.287-.767 2.197-1.937 2.197zm6.624 1.144l-.26.65c-.208.546-.338.676-.884.676h-.988V12.1h1.508c.975 0 1.261-.481 1.677-1.56l3.016-7.696h-1.495l-1.807 5.057-1.859-5.057h-1.495l2.587 6.695zm8.586-1.846c0 1.209.546 1.807 1.82 1.807h1.3V8.265h-.988c-.533 0-.715-.195-.715-.715V4.079h1.625V2.844h-1.625V.985h-1.417v1.859h-1.157v1.235h1.157v3.614zm7.02 1.885c2.028 0 3.393-1.365 3.393-3.406 0-2.028-1.365-3.406-3.393-3.406-2.028 0-3.393 1.378-3.393 3.406 0 2.041 1.365 3.406 3.393 3.406zm0-1.196c-1.183 0-1.95-.923-1.95-2.21s.767-2.21 1.95-2.21c1.183 0 1.963.923 1.963 2.21s-.78 2.21-1.963 2.21zm8.329-.689c0 1.209.546 1.807 1.82 1.807h1.3V8.265h-.988c-.533 0-.715-.195-.715-.715V4.079h1.625V2.844h-1.625V.985h-1.417v1.859h-1.157v1.235h1.157v3.614zm7.38-4.849c-1.092 0-1.625.442-1.963 1.001l-.156-1.001h-1.248V9.5h1.404V6.159c0-1.027.403-2.002 1.651-2.002h.624V2.844h-.312zm7.059 5.434c-.286 0-.429-.091-.429-.429V5.184c0-1.573-1.014-2.418-2.782-2.418-1.677 0-2.795.806-2.938 2.106h1.378c.104-.585.663-.975 1.495-.975.923 0 1.456.455 1.456 1.196v.403h-1.677c-1.859 0-2.847.767-2.847 2.132 0 1.235 1.014 1.95 2.47 1.95 1.079 0 1.755-.468 2.197-1.144 0 .663.312 1.066 1.222 1.066h.741V8.278h-.286zm-1.82-1.508c-.013 1.027-.689 1.716-1.859 1.716-.767 0-1.235-.39-1.235-.949 0-.676.481-1.001 1.352-1.001h1.742v.234zm7.877-3.003c-.429-.585-1.144-1.001-2.158-1.001-1.807 0-3.146 1.352-3.146 3.406 0 2.132 1.339 3.406 3.146 3.406 1.053 0 1.742-.494 2.171-1.079l.169 1.001h1.222V.4h-1.404v3.367zm-1.924 4.628c-1.17 0-1.937-.91-1.937-2.223 0-1.3.767-2.21 1.937-2.21s1.937.91 1.937 2.236c0 1.287-.767 2.197-1.937 2.197zm7.859 1.183c1.651 0 2.769-1.001 3.003-2.314h-1.404c-.195.741-.819 1.17-1.677 1.17-1.105 0-1.82-.741-1.859-1.872v-.091h5.018c.026-.182.039-.364.039-.533-.039-1.95-1.326-3.172-3.25-3.172-1.963 0-3.276 1.365-3.276 3.419 0 2.041 1.313 3.393 3.406 3.393zm-1.885-4.134c.104-.949.871-1.547 1.768-1.547.975 0 1.664.559 1.781 1.547h-3.549z" fill="#000"/></svg>