<svg width="360" height="25" viewBox="0 0 360 25" fill="none" xmlns="http://www.w3.org/2000/svg"><path d="M.794 11.486c0 5.07 2.158 7.67 6.63 7.67 4.498 0 6.682-2.6 6.682-7.67V.8h-1.404v10.764c0 4.186-1.612 6.292-5.278 6.292-3.614 0-5.226-2.106-5.226-6.292V.8H.794v10.686zM23.84 5.662c-2.47 0-4.186 1.326-5.018 3.172l-.208-3.016H17.47V24.2h1.326v-8.242c.754 1.924 2.548 3.198 5.044 3.198 3.614 0 6.214-2.756 6.214-6.76 0-4.134-2.6-6.734-6.214-6.734zm-.104 12.298c-2.938 0-4.966-2.288-4.966-5.59 0-3.224 2.028-5.538 4.966-5.538s4.966 2.314 4.966 5.564c0 3.276-2.028 5.564-4.966 5.564zm19.681-9.074c-.806-1.95-2.574-3.224-5.018-3.224-3.614 0-6.214 2.73-6.214 6.734 0 4.16 2.6 6.76 6.214 6.76 2.47 0 4.212-1.3 5.044-3.354v2.34c0 3.51-1.664 5.018-4.836 5.018-2.47 0-4.186-1.118-4.602-3.12h-1.378c.416 2.808 2.678 4.316 5.876 4.316 4.264 0 6.266-2.028 6.266-6.162V5.818h-1.144l-.208 3.068zm-4.914 9.074c-2.938 0-4.966-2.288-4.966-5.564 0-3.276 2.028-5.564 4.966-5.564s4.966 2.288 4.966 5.59c0 3.25-2.028 5.538-4.966 5.538zM53.27 5.818c-2.444 0-3.484 1.17-4.03 2.626l-.208-2.626h-1.144V19h1.326v-6.682c0-2.678.702-5.226 3.796-5.226h.962V5.818h-.702zm13.704 11.96c-.78 0-1.17-.26-1.17-1.274v-6.136c0-3.016-1.846-4.706-5.148-4.706-3.016 0-5.018 1.456-5.356 3.848h1.326c.338-1.612 1.742-2.678 3.978-2.678 2.47 0 3.874 1.3 3.874 3.484v1.144h-4.472c-3.38 0-5.2 1.456-5.2 3.926 0 2.34 1.846 3.77 4.654 3.77 2.678 0 4.264-1.222 5.07-2.86v.468c-.052 1.56.598 2.236 2.158 2.236h.78v-1.222h-.494zm-2.496-4.108c0 2.522-1.794 4.342-4.914 4.342-2.106 0-3.406-1.066-3.406-2.704 0-1.742 1.3-2.704 3.744-2.704h4.576v1.066zm15.325-4.888c-.806-1.872-2.575-3.12-5.044-3.12-3.615 0-6.215 2.756-6.215 6.734 0 4.16 2.6 6.76 6.215 6.76 2.47 0 4.186-1.326 5.017-3.172L79.986 19h1.144V.8h-1.327v7.982zm-4.94 9.178c-2.939 0-4.966-2.288-4.966-5.564 0-3.25 2.027-5.564 4.965-5.564 2.939 0 4.967 2.314 4.967 5.59 0 3.25-2.028 5.538-4.966 5.538zm15.209 1.196c2.885 0 5.096-1.872 5.668-4.524h-1.352c-.52 2.054-2.263 3.328-4.42 3.328-2.939 0-4.785-2.236-4.837-5.304v-.234h10.764c0-.182.026-.39.026-.546-.13-3.926-2.547-6.214-6.084-6.214-3.614 0-6.084 2.756-6.084 6.656 0 4.134 2.575 6.838 6.319 6.838zm-4.837-7.852c.209-2.678 2.21-4.472 4.629-4.472 2.573 0 4.42 1.586 4.627 4.472h-9.255zm21.303 4.628c0 2.106.858 3.068 3.094 3.068h1.924v-1.222h-1.82c-1.378 0-1.872-.52-1.872-1.872V7.04h3.562V5.818h-3.562V2.126h-1.326v3.692h-2.496V7.04h2.496v8.892zm12.453 3.224c3.718 0 6.344-2.756 6.344-6.76 0-3.978-2.626-6.734-6.344-6.734-3.718 0-6.318 2.756-6.318 6.734 0 4.004 2.6 6.76 6.318 6.76zm0-1.196c-2.938 0-4.966-2.288-4.966-5.564 0-3.25 2.028-5.564 4.966-5.564s4.966 2.314 4.966 5.564c0 3.276-2.028 5.564-4.966 5.564zm27.583-.182c-.78 0-1.17-.26-1.17-1.274v-6.136c0-3.016-1.846-4.706-5.148-4.706-3.016 0-5.018 1.456-5.356 3.848h1.326c.338-1.612 1.742-2.678 3.978-2.678 2.47 0 3.874 1.3 3.874 3.484v1.144h-4.472c-3.38 0-5.2 1.456-5.2 3.926 0 2.34 1.846 3.77 4.654 3.77 2.678 0 4.264-1.222 5.07-2.86v.468c-.052 1.56.598 2.236 2.158 2.236h.78v-1.222h-.494zm-2.496-4.108c0 2.522-1.794 4.342-4.914 4.342-2.106 0-3.406-1.066-3.406-2.704 0-1.742 1.3-2.704 3.744-2.704h4.576v1.066zM155.849 19h1.326V.8h-1.326V19zm5.119-15.964c.52 0 .936-.39.936-.936a.916.916 0 00-.936-.936c-.52 0-.936.39-.936.936s.416.936.936.936zM160.292 19h1.326V5.818h-1.326V19zm8.266 0h1.586l5.148-13.182h-1.378l-4.524 11.648-4.55-11.648h-1.43L168.558 19zm13.808.156c2.886 0 5.096-1.872 5.668-4.524h-1.352c-.52 2.054-2.262 3.328-4.42 3.328-2.938 0-4.784-2.236-4.836-5.304v-.234h10.764c0-.182.026-.39.026-.546-.13-3.926-2.548-6.214-6.084-6.214-3.614 0-6.084 2.756-6.084 6.656 0 4.134 2.574 6.838 6.318 6.838zm-4.836-7.852c.208-2.678 2.21-4.472 4.628-4.472 2.574 0 4.42 1.586 4.628 4.472h-9.256zm31.911 6.474c-.78 0-1.17-.26-1.17-1.274v-6.136c0-3.016-1.846-4.706-5.148-4.706-3.016 0-5.018 1.456-5.356 3.848h1.326c.338-1.612 1.742-2.678 3.978-2.678 2.47 0 3.874 1.3 3.874 3.484v1.144h-4.472c-3.38 0-5.2 1.456-5.2 3.926 0 2.34 1.846 3.77 4.654 3.77 2.678 0 4.264-1.222 5.07-2.86v.468c-.052 1.56.598 2.236 2.158 2.236h.78v-1.222h-.494zm-2.496-4.108c0 2.522-1.794 4.342-4.914 4.342-2.106 0-3.406-1.066-3.406-2.704 0-1.742 1.3-2.704 3.744-2.704h4.576v1.066zm10.306 5.486c2.99 0 5.096-1.716 5.616-4.394h-1.404c-.442 1.95-2.028 3.198-4.212 3.198-2.886 0-4.888-2.262-4.888-5.538 0-3.276 1.976-5.59 4.888-5.59 2.21 0 3.77 1.248 4.238 3.224h1.378c-.546-2.73-2.6-4.394-5.59-4.394-3.718 0-6.266 2.756-6.266 6.76 0 4.056 2.522 6.734 6.24 6.734zm13.94 0c2.99 0 5.096-1.716 5.616-4.394h-1.404c-.442 1.95-2.028 3.198-4.212 3.198-2.886 0-4.888-2.262-4.888-5.538 0-3.276 1.976-5.59 4.888-5.59 2.21 0 3.77 1.248 4.238 3.224h1.378c-.546-2.73-2.6-4.394-5.59-4.394-3.718 0-6.266 2.756-6.266 6.76 0 4.056 2.522 6.734 6.24 6.734zm14.017 0c3.718 0 6.344-2.756 6.344-6.76 0-3.978-2.626-6.734-6.344-6.734-3.718 0-6.318 2.756-6.318 6.734 0 4.004 2.6 6.76 6.318 6.76zm0-1.196c-2.938 0-4.966-2.288-4.966-5.564 0-3.25 2.028-5.564 4.966-5.564s4.966 2.314 4.966 5.564c0 3.276-2.028 5.564-4.966 5.564zm18.547-5.668c0 3.458-1.716 5.642-4.446 5.642-2.444 0-3.952-1.664-3.952-4.81V5.818h-1.326v7.384c0 4.134 2.158 5.954 5.07 5.954 2.34 0 3.874-1.248 4.628-2.938l.182 2.782h1.17V5.818h-1.326v6.474zm10.532-6.63c-2.418 0-3.978 1.248-4.732 2.964l-.208-2.808h-1.144V19h1.326v-6.5c0-3.432 1.742-5.616 4.55-5.616 2.548 0 4.082 1.664 4.082 4.784V19h1.326v-7.384c0-4.16-2.21-5.954-5.2-5.954zm9.122 10.27c0 2.106.858 3.068 3.094 3.068h1.924v-1.222h-1.82c-1.378 0-1.872-.52-1.872-1.872V7.04h3.562V5.818h-3.562V2.126h-1.326v3.692h-2.496V7.04h2.496v8.892zm15.032 0c0 2.106.858 3.068 3.094 3.068h1.924v-1.222h-1.82c-1.378 0-1.872-.52-1.872-1.872V7.04h3.562V5.818h-3.562V2.126h-1.326v3.692h-2.496V7.04h2.496v8.892zm12.453 3.224c3.718 0 6.344-2.756 6.344-6.76 0-3.978-2.626-6.734-6.344-6.734-3.718 0-6.318 2.756-6.318 6.734 0 4.004 2.6 6.76 6.318 6.76zm0-1.196c-2.938 0-4.966-2.288-4.966-5.564 0-3.25 2.028-5.564 4.966-5.564s4.966 2.314 4.966 5.564c0 3.276-2.028 5.564-4.966 5.564zm19.743-9.178c-.806-1.872-2.574-3.12-5.044-3.12-3.614 0-6.214 2.756-6.214 6.734 0 4.16 2.6 6.76 6.214 6.76 2.47 0 4.186-1.326 5.018-3.172l.208 3.016h1.144V.8h-1.326v7.982zm-4.94 9.178c-2.938 0-4.966-2.288-4.966-5.564 0-3.25 2.028-5.564 4.966-5.564s4.966 2.314 4.966 5.59c0 3.25-2.028 5.538-4.966 5.538zm20.98-.182c-.78 0-1.17-.26-1.17-1.274v-6.136c0-3.016-1.846-4.706-5.148-4.706-3.016 0-5.018 1.456-5.356 3.848h1.326c.338-1.612 1.742-2.678 3.978-2.678 2.47 0 3.874 1.3 3.874 3.484v1.144h-4.472c-3.38 0-5.2 1.456-5.2 3.926 0 2.34 1.846 3.77 4.654 3.77 2.678 0 4.264-1.222 5.07-2.86v.468c-.052 1.56.598 2.236 2.158 2.236h.78v-1.222h-.494zm-2.496-4.108c0 2.522-1.794 4.342-4.914 4.342-2.106 0-3.406-1.066-3.406-2.704 0-1.742 1.3-2.704 3.744-2.704h4.576v1.066zm8.284 5.33l-.858 2.132c-.598 1.456-.832 1.846-2.184 1.846h-1.664V24.2h2.028c1.768 0 2.184-.676 3.016-2.756l6.318-15.626h-1.43l-4.498 11.466-4.576-11.466h-1.43L352.465 19z" fill="#000"/></svg>