<svg width="446" height="34" viewBox="0 0 446 34" fill="none" xmlns="http://www.w3.org/2000/svg"><path d="M.304 26h4.14v-9.144h5.544L14.848 26h4.608l-5.328-10.044c2.952-1.044 4.896-3.744 4.896-7.128C19.024 3.932 15.496.8 10.24.8H.304V26zM9.916 4.4c2.952 0 4.86 1.728 4.86 4.428s-1.908 4.428-4.86 4.428H4.444V4.4h5.472zm20.29 21.816c4.573 0 7.669-2.772 8.317-6.408h-3.888c-.54 2.052-2.268 3.24-4.644 3.24-3.06 0-5.04-2.052-5.148-5.184v-.252h13.896c.072-.504.108-1.008.108-1.476-.108-5.4-3.672-8.784-9-8.784-5.436 0-9.072 3.78-9.072 9.468 0 5.652 3.636 9.396 9.432 9.396zm-5.22-11.448c.289-2.628 2.413-4.284 4.897-4.284 2.7 0 4.608 1.548 4.932 4.284h-9.828zm33.852 7.848c-.792 0-1.188-.252-1.188-1.188v-7.38c0-4.356-2.808-6.696-7.704-6.696-4.644 0-7.74 2.232-8.136 5.832h3.816c.288-1.62 1.836-2.7 4.14-2.7 2.556 0 4.032 1.26 4.032 3.312v1.116h-4.644c-5.148 0-7.884 2.124-7.884 5.904 0 3.42 2.808 5.4 6.84 5.4 2.988 0 4.86-1.296 6.084-3.168 0 1.836.864 2.952 3.384 2.952h2.052v-3.384h-.792zm-5.04-4.176c-.036 2.844-1.908 4.752-5.148 4.752-2.124 0-3.42-1.08-3.42-2.628 0-1.872 1.332-2.772 3.744-2.772h4.824v.648zm21.813-8.316c-1.188-1.62-3.168-2.772-5.976-2.772-5.004 0-8.712 3.744-8.712 9.432 0 5.904 3.708 9.432 8.712 9.432 2.916 0 4.824-1.368 6.012-2.988L76.115 26H79.5V.8h-3.888v9.324zM70.283 22.94c-3.24 0-5.364-2.52-5.364-6.156 0-3.6 2.124-6.12 5.364-6.12 3.24 0 5.364 2.52 5.364 6.192 0 3.564-2.124 6.084-5.364 6.084zm18.344 3.168l-.72 1.8c-.576 1.512-.936 1.872-2.448 1.872h-2.736v3.42h4.176c2.7 0 3.492-1.332 4.644-4.32l8.352-21.312h-4.14L90.75 21.572 85.603 7.568h-4.14l7.164 18.54zm20.573-15.12h3.204V26h3.924V10.988h4.932v-3.42h-5.004V6.02c0-1.26.54-1.8 1.8-1.8h3.204V.8h-3.708c-3.564 0-5.148 1.728-5.148 5.04v1.728H109.2v3.42zm22.01 15.228c5.616 0 9.396-3.78 9.396-9.432 0-5.616-3.78-9.432-9.396-9.432-5.616 0-9.396 3.816-9.396 9.432 0 5.652 3.78 9.432 9.396 9.432zm0-3.312c-3.276 0-5.4-2.556-5.4-6.12s2.124-6.12 5.4-6.12c3.276 0 5.436 2.556 5.436 6.12s-2.16 6.12-5.436 6.12zm21.846-15.336c-3.024 0-4.5 1.224-5.436 2.772l-.432-2.772h-3.456V26h3.888v-9.252c0-2.844 1.116-5.544 4.572-5.544h1.728V7.568h-.864zm13.805 13.428c0 3.348 1.512 5.004 5.04 5.004h3.6v-3.42h-2.736c-1.476 0-1.98-.54-1.98-1.98v-9.612h4.5v-3.42h-4.5V2.42h-3.924v5.148h-3.204v3.42h3.204v10.008zm20.797-13.644c-2.88 0-4.644 1.296-5.796 2.88V.8h-3.888V26h3.888v-9.324c0-3.708 1.872-5.976 4.932-5.976 2.88 0 4.428 1.872 4.428 5.364V26h3.888V15.74c0-6.156-3.348-8.388-7.452-8.388zm19.596 18.864c4.572 0 7.668-2.772 8.316-6.408h-3.888c-.54 2.052-2.268 3.24-4.644 3.24-3.06 0-5.04-2.052-5.148-5.184v-.252h13.896c.072-.504.108-1.008.108-1.476-.108-5.4-3.672-8.784-9-8.784-5.436 0-9.072 3.78-9.072 9.468 0 5.652 3.636 9.396 9.432 9.396zm-5.22-11.448c.288-2.628 2.412-4.284 4.896-4.284 2.7 0 4.608 1.548 4.932 4.284h-9.828zm35.538-7.2c-3.024 0-4.5 1.224-5.436 2.772l-.432-2.772h-3.456V26h3.888v-9.252c0-2.844 1.116-5.544 4.572-5.544h1.728V7.568h-.864zm11.131 18.648c4.572 0 7.668-2.772 8.316-6.408h-3.888c-.54 2.052-2.268 3.24-4.644 3.24-3.06 0-5.04-2.052-5.148-5.184v-.252h13.896c.072-.504.108-1.008.108-1.476-.108-5.4-3.672-8.784-9-8.784-5.436 0-9.072 3.78-9.072 9.468 0 5.652 3.636 9.396 9.432 9.396zm-5.22-11.448c.288-2.628 2.412-4.284 4.896-4.284 2.7 0 4.608 1.548 4.932 4.284h-9.828zm33.851 7.848c-.792 0-1.188-.252-1.188-1.188v-7.38c0-4.356-2.808-6.696-7.704-6.696-4.644 0-7.74 2.232-8.136 5.832h3.816c.288-1.62 1.836-2.7 4.14-2.7 2.556 0 4.032 1.26 4.032 3.312v1.116h-4.644c-5.148 0-7.884 2.124-7.884 5.904 0 3.42 2.808 5.4 6.84 5.4 2.988 0 4.86-1.296 6.084-3.168 0 1.836.864 2.952 3.384 2.952h2.052v-3.384h-.792zm-5.04-4.176c-.036 2.844-1.908 4.752-5.148 4.752-2.124 0-3.42-1.08-3.42-2.628 0-1.872 1.332-2.772 3.744-2.772h4.824v.648zm7.95 7.56h3.888V.8h-3.888V26zm38.114-18.648c-3.024 0-5.112 1.332-6.3 3.348-1.116-2.376-3.276-3.348-5.688-3.348-2.772.036-4.356 1.26-5.4 2.628l-.432-2.412h-3.384V26h3.888v-9.864c0-3.276 1.656-5.436 4.32-5.436 2.556 0 3.888 1.692 3.888 4.932V26h3.924v-9.972c0-3.312 1.692-5.328 4.356-5.328 2.52 0 3.852 1.692 3.852 4.932V26h3.888V15.38c0-5.832-3.096-8.028-6.912-8.028zm27.285 15.264c-.792 0-1.188-.252-1.188-1.188v-7.38c0-4.356-2.808-6.696-7.704-6.696-4.644 0-7.74 2.232-8.136 5.832h3.816c.288-1.62 1.836-2.7 4.14-2.7 2.556 0 4.032 1.26 4.032 3.312v1.116h-4.644c-5.148 0-7.884 2.124-7.884 5.904 0 3.42 2.808 5.4 6.84 5.4 2.988 0 4.86-1.296 6.084-3.168 0 1.836.864 2.952 3.384 2.952h2.052v-3.384h-.792zm-5.04-4.176c-.036 2.844-1.908 4.752-5.148 4.752-2.124 0-3.42-1.08-3.42-2.628 0-1.872 1.332-2.772 3.744-2.772h4.824v.648zm17.274-10.872c-3.024 0-4.5 1.224-5.436 2.772l-.432-2.772h-3.456V26h3.888v-9.252c0-2.844 1.116-5.544 4.572-5.544h1.728V7.568h-.864zM361.138 26h3.888v-4.68l3.312-3.456L373.774 26h4.608l-7.38-10.98 6.948-7.452h-4.572l-8.352 8.928V.8h-3.888V26zm26.713.216c4.572 0 7.668-2.772 8.316-6.408h-3.888c-.54 2.052-2.268 3.24-4.644 3.24-3.06 0-5.04-2.052-5.148-5.184v-.252h13.896c.072-.504.108-1.008.108-1.476-.108-5.4-3.672-8.784-9-8.784-5.436 0-9.072 3.78-9.072 9.468 0 5.652 3.636 9.396 9.432 9.396zm-5.22-11.448c.288-2.628 2.412-4.284 4.896-4.284 2.7 0 4.608 1.548 4.932 4.284h-9.828zm18.195 6.228c0 3.348 1.512 5.004 5.04 5.004h3.6v-3.42h-2.736c-1.476 0-1.98-.54-1.98-1.98v-9.612h4.5v-3.42h-4.5V2.42h-3.924v5.148h-3.204v3.42h3.204v10.008zm10.321-1.08c.108 3.996 3.492 6.3 8.424 6.3 4.464 0 7.812-2.232 7.812-5.76 0-4.104-3.42-4.968-7.632-5.472-2.664-.288-4.428-.504-4.428-2.232 0-1.476 1.512-2.412 3.816-2.412s3.888 1.188 4.104 2.88h3.816c-.252-3.78-3.456-5.868-7.992-5.868-4.428-.036-7.56 2.232-7.56 5.724 0 3.816 3.312 4.716 7.524 5.22 2.844.36 4.536.504 4.536 2.484 0 1.476-1.584 2.412-3.996 2.412-2.808 0-4.464-1.368-4.608-3.276h-3.816zm21.431-10.872c0-2.988 1.8-5.004 4.572-5.004 2.412 0 4.032 1.44 4.032 3.492 0 1.728-.936 2.88-2.556 3.96-2.16 1.404-3.852 2.592-3.852 5.508v1.152h3.672v-.72c0-1.8 1.224-2.736 3.168-4.068 1.872-1.332 3.6-2.916 3.6-6.228 0-3.78-3.096-6.552-8.1-6.552-5.364 0-8.496 3.78-8.496 8.46h3.96zm1.656 14.76c0 1.44 1.08 2.412 2.484 2.412s2.448-.972 2.448-2.412-1.044-2.412-2.448-2.412-2.484.972-2.484 2.412z" fill="#000"/></svg>