<svg width="121" height="28" viewBox="0 0 121 28" fill="none" xmlns="http://www.w3.org/2000/svg"><rect width="121" height="28" rx="14" fill="#000"/><path d="M27.565 19.09c1.8 0 2.925-.855 3.405-1.62l.09 1.53h1.125v-5.685H27.76v1.2h3.15v.36c0 1.86-1.395 3.015-3.33 3.015-2.175 0-3.615-1.71-3.615-4.14 0-2.43 1.44-4.14 3.645-4.14 1.59 0 2.715.855 3.075 2.31h1.395c-.36-2.16-2.115-3.51-4.44-3.51-3.045 0-5.01 2.16-5.01 5.34 0 3.18 2.025 5.34 4.935 5.34zm10.006 0c1.77 0 3.03-1.125 3.33-2.655h-1.245c-.255.99-1.095 1.56-2.175 1.56-1.455 0-2.37-1.02-2.415-2.475v-.105h5.94c.015-.18.03-.36.03-.525-.06-2.265-1.47-3.63-3.63-3.63s-3.63 1.59-3.63 3.915c0 2.34 1.5 3.915 3.795 3.915zm-2.43-4.695c.12-1.245 1.155-2.055 2.28-2.055 1.275 0 2.175.735 2.295 2.055h-4.575zm7.78 2.61c0 1.35.526 1.995 1.996 1.995h1.335v-1.125h-1.215c-.66 0-.885-.24-.885-.885v-4.515h1.98V11.35h-1.98V9.205h-1.23v2.145h-1.38v1.125h1.38v4.53zm8.007-.525c.03 1.68 1.395 2.61 3.375 2.61 1.695 0 3.06-.885 3.06-2.31 0-1.695-1.395-2.025-3.135-2.235-1.11-.135-1.92-.24-1.92-1.08 0-.705.72-1.155 1.785-1.155 1.05 0 1.77.585 1.86 1.365h1.26c-.12-1.59-1.38-2.4-3.12-2.415-1.725-.015-3 .9-3 2.295 0 1.59 1.365 1.935 3.075 2.145 1.14.135 1.98.21 1.98 1.17 0 .705-.765 1.17-1.845 1.17-1.275 0-2.07-.66-2.115-1.56h-1.26zm8.37.525c0 1.35.526 1.995 1.996 1.995h1.335v-1.125h-1.215c-.66 0-.885-.24-.885-.885v-4.515h1.98V11.35h-1.98V9.205h-1.23v2.145h-1.38v1.125h1.38v4.53zm11.044.87c-.345 0-.495-.105-.495-.51V14.02c0-1.785-1.125-2.76-3.075-2.76-1.845 0-3.06.885-3.24 2.385h1.23c.15-.78.87-1.29 1.95-1.29 1.2 0 1.905.6 1.905 1.59v.525h-2.25c-2.01 0-3.075.855-3.075 2.385 0 1.395 1.14 2.235 2.82 2.235 1.32 0 2.085-.585 2.565-1.275.015.75.36 1.185 1.38 1.185h.675v-1.125h-.39zm-1.725-1.995c0 1.275-.885 2.16-2.415 2.16-1.02 0-1.665-.51-1.665-1.26 0-.87.615-1.275 1.71-1.275h2.37v.375zm6.6-4.53c-1.364 0-1.95.57-2.31 1.155l-.164-1.155h-1.065V19h1.23v-3.9c0-1.215.435-2.55 2.04-2.55h.615v-1.2h-.345zm2.231 5.655c0 1.35.525 1.995 1.995 1.995h1.335v-1.125h-1.215c-.66 0-.885-.24-.885-.885v-4.515h1.98V11.35h-1.98V9.205h-1.23v2.145h-1.38v1.125h1.38v4.53zm7.73 2.085c1.77 0 3.03-1.125 3.33-2.655h-1.245c-.255.99-1.095 1.56-2.175 1.56-1.454 0-2.37-1.02-2.414-2.475v-.105h5.94c.014-.18.03-.36.03-.525-.06-2.265-1.47-3.63-3.63-3.63s-3.63 1.59-3.63 3.915c0 2.34 1.5 3.915 3.794 3.915zm-2.43-4.695c.12-1.245 1.155-2.055 2.28-2.055 1.275 0 2.175.735 2.295 2.055H82.75zm13.329-1.875c-.465-.735-1.335-1.26-2.625-1.26-2.115 0-3.675 1.575-3.675 3.915 0 2.49 1.56 3.915 3.675 3.915 1.29 0 2.115-.615 2.625-1.32l.165 1.23h1.065V8.5h-1.23v4.02zm-2.505 5.475c-1.515 0-2.535-1.155-2.535-2.82 0-1.665 1.02-2.82 2.535-2.82 1.5 0 2.52 1.17 2.52 2.85 0 1.635-1.02 2.79-2.52 2.79z" fill="#fff"/></svg>