<svg width="135" height="78" viewBox="0 0 135 78" fill="none" xmlns="http://www.w3.org/2000/svg"><path d="M1.856 21H9.57c4.901 0 7.54-2.204 7.54-5.8 0-2.9-1.856-4.321-4.263-4.698 2.117-.58 3.48-2.03 3.48-4.437C16.327 2.73 13.775.7 9.309.7H1.856V21zm7.54-17.516c2.32 0 3.596 1.102 3.596 2.9 0 1.827-1.305 2.929-3.596 2.929H5.191V3.484h4.205zm.203 8.584c2.581 0 4.089 1.102 4.089 3.103 0 1.885-1.421 3.016-4.089 3.016H5.191v-6.119h4.408zm11.715-8.004c1.073 0 1.914-.783 1.914-1.885 0-1.102-.841-1.885-1.914-1.885S19.4 1.077 19.4 2.179c0 1.102.84 1.885 1.914 1.885zM19.719 21h3.132V6.152h-3.132V21zm17.54-12.528c-.956-1.479-2.551-2.494-4.871-2.494-4.031 0-7.018 2.987-7.018 7.54 0 4.727 2.987 7.54 7.018 7.54 2.32 0 3.857-.957 4.843-2.436v1.653c0 2.842-1.537 4.147-4.263 4.147-2.204 0-3.654-.957-4.031-2.61h-3.19c.29 3.335 3.045 5.162 6.989 5.162 5.336 0 7.598-2.552 7.598-6.583V6.152h-2.726l-.348 2.32zm-4.35 9.947c-2.61 0-4.32-2.001-4.32-4.901 0-2.871 1.71-4.901 4.32-4.901 2.61 0 4.322 2.03 4.322 4.959 0 2.842-1.711 4.843-4.321 4.843zm18.978-1.45c0 2.697 1.218 4.031 4.06 4.031h2.9v-2.755h-2.204c-1.189 0-1.595-.435-1.595-1.595V8.907h3.625V6.152h-3.625V2.005h-3.16v4.147h-2.582v2.755h2.581v8.062zm15.688 4.205c3.683 0 6.177-2.233 6.7-5.162h-3.133c-.435 1.653-1.827 2.61-3.74 2.61-2.466 0-4.06-1.653-4.148-4.176v-.203h11.194c.058-.406.087-.812.087-1.189-.087-4.35-2.958-7.076-7.25-7.076-4.379 0-7.308 3.045-7.308 7.627 0 4.553 2.93 7.569 7.598 7.569zm-4.205-9.222c.232-2.117 1.943-3.451 3.944-3.451 2.175 0 3.712 1.247 3.973 3.451H63.37zm20.512 9.222c3.8 0 6.322-2.117 6.902-5.481h-3.306c-.377 1.711-1.653 2.813-3.567 2.813-2.523 0-4.176-2.001-4.176-4.901 0-2.929 1.653-4.959 4.176-4.959 1.943 0 3.19 1.073 3.596 2.813h3.277c-.609-3.364-2.987-5.481-6.815-5.481-4.495 0-7.453 3.045-7.453 7.627 0 4.64 2.871 7.569 7.366 7.569zm17.101-15.196c-2.32 0-3.742 1.044-4.67 2.32V.7h-3.132V21h3.133v-7.511c0-2.987 1.508-4.814 3.973-4.814 2.32 0 3.567 1.508 3.567 4.321V21h3.132v-8.265c0-4.959-2.697-6.757-6.003-6.757zM2.61 44.969C2.61 47.666 3.828 49 6.67 49h2.9v-2.755H7.366c-1.189 0-1.595-.435-1.595-1.595v-7.743h3.625v-2.755H5.771v-4.147H2.61v4.147H.029v2.755H2.61v8.062zm15.659 4.205c4.524 0 7.569-3.045 7.569-7.598 0-4.524-3.045-7.598-7.57-7.598-4.523 0-7.568 3.074-7.568 7.598 0 4.553 3.045 7.598 7.569 7.598zm0-2.668c-2.64 0-4.35-2.059-4.35-4.93 0-2.871 1.71-4.93 4.35-4.93 2.639 0 4.379 2.059 4.379 4.93 0 2.871-1.74 4.93-4.38 4.93zm25.453-12.528c-2.29 0-3.828 1.044-4.814 2.378V28.7h-3.132V49h2.726l.377-2.146c.928 1.334 2.523 2.32 4.843 2.32 4.06 0 7.018-3.045 7.018-7.598 0-4.785-2.958-7.598-7.018-7.598zM43.2 46.535c-2.61 0-4.32-2.059-4.32-4.988 0-2.871 1.71-4.901 4.32-4.901 2.61 0 4.35 2.03 4.35 4.93 0 2.929-1.74 4.959-4.35 4.959zm20.229-4.959c0 3.074-1.45 4.872-3.828 4.872-2.291 0-3.451-1.479-3.451-4.379v-7.917h-3.132v8.265c0 5.075 2.697 6.757 5.858 6.757 2.29 0 3.654-.928 4.582-2.059L63.806 49h2.755V34.152h-3.132v7.424zm13.033 7.598c3.8 0 6.322-2.117 6.902-5.481h-3.306c-.377 1.711-1.653 2.813-3.567 2.813-2.523 0-4.176-2.001-4.176-4.901 0-2.929 1.653-4.959 4.176-4.959 1.943 0 3.19 1.073 3.596 2.813h3.277c-.609-3.364-2.987-5.481-6.815-5.481-4.495 0-7.453 3.045-7.453 7.627 0 4.64 2.871 7.569 7.366 7.569zm9.3-.174h3.132v-3.77l2.668-2.784L95.94 49h3.712l-5.945-8.845 5.597-6.003h-3.683l-6.728 7.192V28.7h-3.132V49zM2.61 72.969C2.61 75.666 3.828 77 6.67 77h2.9v-2.755H7.366c-1.189 0-1.595-.435-1.595-1.595v-7.743h3.625v-2.755H5.771v-4.147H2.61v4.147H.029v2.755H2.61v8.062zm16.753-10.991c-2.32 0-3.74 1.044-4.669 2.32V56.7h-3.132V77h3.132v-7.511c0-2.987 1.508-4.814 3.973-4.814 2.32 0 3.567 1.508 3.567 4.321V77h3.132v-8.265c0-4.959-2.697-6.757-6.003-6.757zm15.785 15.196c3.683 0 6.177-2.233 6.7-5.162h-3.133c-.434 1.653-1.827 2.61-3.74 2.61-2.465 0-4.06-1.653-4.148-4.176v-.203h11.195c.058-.406.087-.812.087-1.189-.087-4.35-2.959-7.076-7.25-7.076-4.38 0-7.309 3.045-7.309 7.627 0 4.553 2.93 7.569 7.598 7.569zm-4.205-9.222c.232-2.117 1.943-3.451 3.945-3.451 2.175 0 3.712 1.247 3.973 3.451h-7.917zm22.19 5.017c0 2.697 1.218 4.031 4.06 4.031h2.9v-2.755H57.89c-1.189 0-1.595-.435-1.595-1.595v-7.743h3.625v-2.755h-3.625v-4.147h-3.16v4.147h-2.582v2.755h2.581v8.062zm16.464-10.817c-2.436 0-3.625.986-4.38 2.233l-.347-2.233h-2.784V77h3.132v-7.453c0-2.291.899-4.466 3.683-4.466h1.392v-2.929h-.696zm8.967 15.022c3.683 0 6.177-2.233 6.699-5.162H82.13c-.434 1.653-1.826 2.61-3.74 2.61-2.466 0-4.06-1.653-4.147-4.176v-.203h11.194c.058-.406.087-.812.087-1.189-.088-4.35-2.959-7.076-7.25-7.076-4.38 0-7.308 3.045-7.308 7.627 0 4.553 2.928 7.569 7.598 7.569zm-4.205-9.222c.232-2.117 1.943-3.451 3.944-3.451 2.175 0 3.712 1.247 3.972 3.451H74.36zm21.527-5.974c-2.407 0-3.828.957-4.756 2.117l-.348-1.943h-2.726V77h3.132v-7.482c0-3.016 1.479-4.843 3.973-4.843 2.349 0 3.538 1.508 3.538 4.321V77h3.161v-8.265c0-4.959-2.697-6.757-5.974-6.757zm19.99 2.233c-.957-1.305-2.552-2.233-4.814-2.233-4.031 0-7.018 3.016-7.018 7.598 0 4.756 2.987 7.598 7.018 7.598 2.349 0 3.886-1.102 4.843-2.407l.377 2.233h2.726V56.7h-3.132v7.511zm-4.292 10.324c-2.61 0-4.321-2.03-4.321-4.959 0-2.9 1.711-4.93 4.321-4.93 2.61 0 4.321 2.03 4.321 4.988 0 2.871-1.711 4.901-4.321 4.901zm12.978-11.194c0-2.407 1.45-4.031 3.683-4.031 1.943 0 3.248 1.16 3.248 2.813 0 1.392-.754 2.32-2.059 3.19-1.74 1.131-3.103 2.088-3.103 4.437v.928h2.958v-.58c0-1.45.986-2.204 2.552-3.277 1.508-1.073 2.9-2.349 2.9-5.017 0-3.045-2.494-5.278-6.525-5.278-4.321 0-6.844 3.045-6.844 6.815h3.19zm1.334 11.89c0 1.16.87 1.943 2.001 1.943 1.131 0 1.972-.783 1.972-1.943 0-1.16-.841-1.943-1.972-1.943s-2.001.783-2.001 1.943z" fill="#000"/></svg>