<svg width="128" height="65" viewBox="0 0 128 65" fill="none" xmlns="http://www.w3.org/2000/svg"><path d="M6.256 13.102c2.55 0 4.352-1.377 4.862-3.774h-.969c-.51 1.904-1.887 2.924-3.91 2.924-2.754 0-4.488-2.159-4.488-5.202s1.768-5.202 4.522-5.202c1.989 0 3.383 1.037 3.91 2.907h.969C10.625 2.375 8.823.998 6.324.998 2.975.998.799 3.48.799 7.05c0 3.604 2.125 6.052 5.457 6.052zm14.216-.901c-.51 0-.765-.17-.765-.833V7.356c0-1.972-1.207-3.077-3.366-3.077-1.972 0-3.28.952-3.502 2.516h.867c.221-1.054 1.14-1.751 2.601-1.751 1.615 0 2.533.85 2.533 2.278v.748h-2.924c-2.21 0-3.4.952-3.4 2.567 0 1.53 1.207 2.465 3.043 2.465 1.751 0 2.788-.799 3.315-1.87v.306c-.034 1.02.391 1.462 1.411 1.462h.51v-.799h-.323zM18.84 9.515c0 1.649-1.173 2.839-3.213 2.839-1.377 0-2.227-.697-2.227-1.768 0-1.139.85-1.768 2.448-1.768h2.992v.697zm7.093-5.236c-1.581 0-2.601.816-3.094 1.938l-.136-1.836h-.748V13h.867V8.75c0-2.244 1.139-3.672 2.975-3.672 1.666 0 2.669 1.088 2.669 3.128V13h.867V8.172c0-2.72-1.445-3.893-3.4-3.893zm9.663 5.066c.119 2.244 1.75 3.757 4.42 3.757 2.498 0 4.148-1.36 4.148-3.366 0-2.261-2.007-2.839-3.979-3.179-1.819-.306-3.4-.612-3.4-2.312 0-1.547 1.208-2.414 3.078-2.414 1.785 0 3.008 1.003 3.212 2.55h.935c-.17-2.04-1.716-3.383-4.148-3.383-2.413 0-3.995 1.275-3.995 3.298 0 2.261 1.939 2.771 3.843 3.094 1.87.323 3.535.697 3.535 2.431 0 1.53-1.291 2.448-3.212 2.448-2.007 0-3.367-1.156-3.486-2.924h-.951zm10.823-6.783c.34 0 .612-.255.612-.612a.599.599 0 00-.612-.612.599.599 0 00-.612.612c0 .357.272.612.612.612zM45.977 13h.867V4.381h-.867V13zm2.905 0h.867V1.1h-.867V13zM52.23 2.562c.34 0 .612-.255.612-.612a.599.599 0 00-.612-.612.599.599 0 00-.612.612c0 .357.272.612.612.612zM51.788 13h.867V4.381h-.867V13zm6.662.102c1.955 0 3.332-1.122 3.672-2.873h-.918c-.29 1.275-1.326 2.091-2.754 2.091-1.887 0-3.196-1.479-3.196-3.621s1.292-3.655 3.196-3.655c1.445 0 2.465.816 2.77 2.108h.902c-.357-1.785-1.7-2.873-3.655-2.873-2.431 0-4.097 1.802-4.097 4.42 0 2.652 1.649 4.403 4.08 4.403zm9.165 0c2.431 0 4.148-1.802 4.148-4.42 0-2.601-1.717-4.403-4.148-4.403-2.43 0-4.13 1.802-4.13 4.403 0 2.618 1.7 4.42 4.13 4.42zm0-.782c-1.92 0-3.247-1.496-3.247-3.638 0-2.125 1.326-3.638 3.247-3.638 1.921 0 3.247 1.513 3.247 3.638 0 2.142-1.326 3.638-3.247 3.638zm9.849-8.041c-1.581 0-2.601.816-3.094 1.938l-.136-1.836h-.748V13h.867V8.75c0-2.244 1.139-3.672 2.975-3.672 1.666 0 2.669 1.088 2.669 3.128V13h.867V8.172c0-2.72-1.445-3.893-3.4-3.893zM90.952 13h1.105l4.437-11.9h-.952l-4.03 10.795L87.485 1.1h-.986L90.952 13zm13.341-.799c-.51 0-.765-.17-.765-.833V7.356c0-1.972-1.207-3.077-3.366-3.077-1.972 0-3.28.952-3.502 2.516h.867c.221-1.054 1.14-1.751 2.601-1.751 1.615 0 2.533.85 2.533 2.278v.748h-2.924c-2.21 0-3.4.952-3.4 2.567 0 1.53 1.207 2.465 3.043 2.465 1.751 0 2.788-.799 3.315-1.87v.306c-.034 1.02.391 1.462 1.411 1.462h.51v-.799h-.323zm-1.632-2.686c0 1.649-1.173 2.839-3.213 2.839-1.377 0-2.227-.697-2.227-1.768 0-1.139.85-1.768 2.448-1.768h2.992v.697zM105.776 13h.867V1.1h-.867V13zm2.905 0h.867V1.1h-.867V13zm6.713.102c1.887 0 3.332-1.224 3.706-2.958h-.884c-.34 1.343-1.479 2.176-2.89 2.176-1.921 0-3.128-1.462-3.162-3.468v-.153h7.038c0-.119.017-.255.017-.357-.085-2.567-1.666-4.063-3.978-4.063-2.363 0-3.978 1.802-3.978 4.352 0 2.703 1.683 4.471 4.131 4.471zm-3.162-5.134c.136-1.751 1.445-2.924 3.026-2.924 1.683 0 2.89 1.037 3.026 2.924h-6.052zM123.152 13l-.561 1.394c-.391.952-.544 1.207-1.428 1.207h-1.088v.799h1.326c1.156 0 1.428-.442 1.972-1.802l4.131-10.217h-.935l-2.941 7.497-2.992-7.497h-.935L123.152 13zM4.539 28.381c-1.598 0-2.278.765-2.635 1.717l-.136-1.717H1.02V37h.867v-4.369c0-1.751.459-3.417 2.482-3.417h.629v-.833h-.459zm8.96 7.82c-.51 0-.764-.17-.764-.833v-4.012c0-1.972-1.207-3.077-3.367-3.077-1.972 0-3.28.952-3.502 2.516h.867c.221-1.054 1.14-1.751 2.601-1.751 1.616 0 2.534.85 2.534 2.278v.748H8.942c-2.21 0-3.4.952-3.4 2.567 0 1.53 1.207 2.465 3.043 2.465 1.752 0 2.788-.799 3.316-1.87v.306c-.034 1.02.39 1.462 1.41 1.462h.51v-.799H13.5zm-1.632-2.686c0 1.649-1.173 2.839-3.213 2.839-1.377 0-2.227-.697-2.227-1.768 0-1.139.85-1.768 2.448-1.768h2.992v.697zM14.982 37h.867V25.1h-.867V37zm2.905 0h.867V25.1h-.867V37zm5.49 0l-.561 1.394c-.392.952-.544 1.207-1.428 1.207h-1.089v.799h1.326c1.157 0 1.428-.442 1.973-1.802l4.13-10.217h-.934l-2.942 7.497-2.992-7.497h-.934L23.375 37zm17.681-.799c-.51 0-.765-.17-.765-.833v-4.012c0-1.972-1.207-3.077-3.366-3.077-1.972 0-3.28.952-3.502 2.516h.867c.221-1.054 1.14-1.751 2.601-1.751 1.615 0 2.533.85 2.533 2.278v.748h-2.924c-2.21 0-3.4.952-3.4 2.567 0 1.53 1.207 2.465 3.043 2.465 1.751 0 2.788-.799 3.315-1.87v.306c-.034 1.02.391 1.462 1.411 1.462h.51v-.799h-.323zm-1.632-2.686c0 1.649-1.173 2.839-3.213 2.839-1.377 0-2.227-.697-2.227-1.768 0-1.139.85-1.768 2.448-1.768h2.992v.697zm7.093-5.236c-1.615 0-2.618.901-3.111 2.142V25.1h-.867V37h.867v-4.25c0-2.244 1.139-3.672 2.974-3.672 1.65 0 2.67 1.088 2.67 3.128V37h.867v-4.828c0-2.72-1.445-3.893-3.4-3.893zm9.01 8.823c1.887 0 3.332-1.224 3.706-2.958h-.884c-.34 1.343-1.479 2.176-2.89 2.176-1.92 0-3.128-1.462-3.162-3.468v-.153h7.038c0-.119.017-.255.017-.357-.085-2.567-1.666-4.063-3.978-4.063-2.363 0-3.978 1.802-3.978 4.352 0 2.703 1.683 4.471 4.131 4.471zm-3.162-5.134c.136-1.751 1.445-2.924 3.026-2.924 1.683 0 2.89 1.037 3.026 2.924h-6.052zm16.283 4.233c-.51 0-.765-.17-.765-.833v-4.012c0-1.972-1.207-3.077-3.366-3.077-1.972 0-3.281.952-3.502 2.516h.867c.22-1.054 1.139-1.751 2.6-1.751 1.616 0 2.534.85 2.534 2.278v.748h-2.924c-2.21 0-3.4.952-3.4 2.567 0 1.53 1.207 2.465 3.043 2.465 1.75 0 2.788-.799 3.315-1.87v.306c-.034 1.02.39 1.462 1.41 1.462h.51v-.799h-.322zm-1.632-2.686c0 1.649-1.173 2.839-3.213 2.839-1.377 0-2.227-.697-2.227-1.768 0-1.139.85-1.768 2.448-1.768h2.992v.697zm10.02-3.196c-.528-1.224-1.683-2.04-3.298-2.04-2.364 0-4.063 1.802-4.063 4.403 0 2.72 1.7 4.42 4.063 4.42 1.615 0 2.737-.867 3.28-2.074L77.156 37h.748V25.1h-.867v5.219zm-3.23 6.001c-1.922 0-3.248-1.496-3.248-3.638 0-2.125 1.326-3.638 3.248-3.638 1.92 0 3.246 1.513 3.246 3.655 0 2.125-1.326 3.621-3.246 3.621zm14.526.782c2.43 0 4.148-1.802 4.148-4.42 0-2.601-1.717-4.403-4.148-4.403-2.431 0-4.131 1.802-4.131 4.403 0 2.618 1.7 4.42 4.13 4.42zm0-.782c-1.921 0-3.247-1.496-3.247-3.638 0-2.125 1.326-3.638 3.247-3.638 1.92 0 3.247 1.513 3.247 3.638 0 2.142-1.326 3.638-3.247 3.638zm4.752-7.14h1.632V37h.867v-7.82h2.584v-.799h-2.584v-1.292c0-.85.323-1.19 1.19-1.19h1.41V25.1h-1.444c-1.445 0-2.023.629-2.023 2.006v1.275h-1.632v.799zM4.828 61.102c1.887 0 3.332-1.224 3.706-2.958H7.65c-.34 1.343-1.479 2.176-2.89 2.176-1.921 0-3.128-1.462-3.162-3.468v-.153h7.038c0-.119.017-.255.017-.357-.085-2.567-1.666-4.063-3.978-4.063-2.363 0-3.978 1.802-3.978 4.352 0 2.703 1.683 4.471 4.131 4.471zm-3.162-5.134c.136-1.751 1.445-2.924 3.026-2.924 1.683 0 2.89 1.037 3.026 2.924H1.666zm16.283 4.233c-.51 0-.765-.17-.765-.833v-4.012c0-1.972-1.207-3.077-3.366-3.077-1.972 0-3.281.952-3.502 2.516h.867c.22-1.054 1.139-1.751 2.6-1.751 1.616 0 2.534.85 2.534 2.278v.748h-2.924c-2.21 0-3.4.952-3.4 2.567 0 1.53 1.207 2.465 3.043 2.465 1.75 0 2.788-.799 3.315-1.87v.306c-.034 1.02.39 1.462 1.41 1.462h.51v-.799h-.322zm-1.632-2.686c0 1.649-1.173 2.839-3.213 2.839-1.377 0-2.227-.697-2.227-1.768 0-1.139.85-1.768 2.448-1.768h2.992v.697zm6.633-5.134c-1.598 0-2.278.765-2.635 1.717l-.136-1.717h-.748V61h.867v-4.369c0-1.751.46-3.417 2.482-3.417h.63v-.833h-.46zm5.722-.102c-1.581 0-2.601.816-3.094 1.938l-.136-1.836h-.748V61h.867v-4.25c0-2.244 1.139-3.672 2.975-3.672 1.666 0 2.669 1.088 2.669 3.128V61h.867v-4.828c0-2.72-1.445-3.893-3.4-3.893zm5.76-1.717c.34 0 .613-.255.613-.612a.599.599 0 00-.612-.612.599.599 0 00-.612.612c0 .357.272.612.612.612zM33.992 61h.867v-8.619h-.867V61zm6.883-8.721c-1.581 0-2.601.816-3.094 1.938l-.136-1.836h-.748V61h.867v-4.25c0-2.244 1.139-3.672 2.975-3.672 1.666 0 2.669 1.088 2.669 3.128V61h.867v-4.828c0-2.72-1.445-3.893-3.4-3.893zm12.34 2.108c-.527-1.275-1.683-2.108-3.281-2.108-2.363 0-4.063 1.785-4.063 4.403 0 2.72 1.7 4.42 4.063 4.42 1.615 0 2.754-.85 3.298-2.193v1.53c0 2.295-1.088 3.281-3.162 3.281-1.615 0-2.737-.731-3.01-2.04h-.9c.272 1.836 1.75 2.822 3.842 2.822 2.788 0 4.097-1.326 4.097-4.029v-8.092h-.748l-.136 2.006zM50 60.32c-1.921 0-3.247-1.496-3.247-3.638S48.08 53.044 50 53.044c1.92 0 3.247 1.496 3.247 3.655 0 2.125-1.326 3.621-3.247 3.621zm5.745-1.972c.068 1.785 1.513 2.754 3.672 2.754 1.853 0 3.35-.935 3.35-2.465 0-1.819-1.599-2.176-3.452-2.431-1.343-.187-2.533-.34-2.533-1.547 0-.986.97-1.632 2.431-1.632 1.377 0 2.363.663 2.516 1.785h.884c-.153-1.683-1.53-2.533-3.4-2.533-1.92-.017-3.298.969-3.298 2.448 0 1.734 1.598 2.057 3.366 2.295 1.445.204 2.618.391 2.618 1.666 0 1.02-1.07 1.666-2.482 1.666-1.649 0-2.72-.765-2.788-2.006h-.884zm8.97-5.61c0-1.734 1.106-2.924 2.789-2.924 1.479 0 2.499.918 2.499 2.159 0 1.088-.561 1.717-1.326 2.295-.901.68-1.82 1.241-1.82 2.567v.68h.817v-.595c0-1.054.799-1.547 1.666-2.193.833-.629 1.564-1.411 1.564-2.839 0-1.649-1.343-2.89-3.417-2.89-2.244 0-3.655 1.615-3.655 3.74h.884zm1.922 7.701c0 .391.272.646.646.646s.646-.255.646-.646-.272-.629-.646-.629-.646.238-.646.629z" fill="#000"/></svg>