<svg width="266" height="11" viewBox="0 0 266 11" fill="none" xmlns="http://www.w3.org/2000/svg"><path d="M.792 8.5h.594V4.947h3.322v-.55H1.386V1.35h3.982V.8H.792v7.7zm9.93-.517c-.33 0-.495-.11-.495-.539V4.848c0-1.276-.78-1.991-2.178-1.991-1.276 0-2.123.616-2.266 1.628h.561c.143-.682.737-1.133 1.683-1.133 1.045 0 1.64.55 1.64 1.474v.484H7.773c-1.43 0-2.2.616-2.2 1.661 0 .99.781 1.595 1.97 1.595 1.132 0 1.803-.517 2.144-1.21v.198c-.022.66.253.946.913.946h.33v-.517h-.209zM9.666 6.245c0 1.067-.759 1.837-2.079 1.837-.89 0-1.44-.451-1.44-1.144 0-.737.55-1.144 1.583-1.144h1.936v.451zm1.762.539c.044 1.155.98 1.782 2.377 1.782 1.199 0 2.167-.605 2.167-1.595 0-1.177-1.034-1.408-2.233-1.573-.87-.121-1.64-.22-1.64-1.001 0-.638.627-1.056 1.573-1.056.891 0 1.53.429 1.628 1.155h.572c-.098-1.089-.99-1.639-2.2-1.639-1.242-.011-2.133.627-2.133 1.584 0 1.122 1.034 1.331 2.178 1.485.934.132 1.694.253 1.694 1.078 0 .66-.694 1.078-1.606 1.078-1.067 0-1.76-.495-1.804-1.298h-.572zm6.032.418c0 .891.363 1.298 1.309 1.298h.814v-.517h-.77c-.583 0-.792-.22-.792-.792V3.44h1.507v-.517H18.02V1.361h-.561v1.562h-1.056v.517h1.056v3.762zm8.405 1.364c1.221 0 2.156-.792 2.398-1.914h-.572c-.22.869-.957 1.408-1.87 1.408-1.243 0-2.024-.946-2.046-2.244v-.099h4.554c0-.077.011-.165.011-.231-.055-1.661-1.078-2.629-2.574-2.629-1.529 0-2.574 1.166-2.574 2.816 0 1.749 1.09 2.893 2.673 2.893zM23.82 5.244c.088-1.133.935-1.892 1.958-1.892 1.09 0 1.87.671 1.958 1.892H23.82zM28.662 8.5h.649l1.848-2.453L33.007 8.5h.682l-2.167-2.849 2.057-2.728h-.638l-1.76 2.31-1.738-2.31h-.671l2.057 2.728L28.662 8.5zm8.02.066c1.222 0 2.157-.792 2.399-1.914h-.572c-.22.869-.957 1.408-1.87 1.408-1.243 0-2.024-.946-2.046-2.244v-.099h4.554c0-.077.01-.165.01-.231-.054-1.661-1.077-2.629-2.573-2.629-1.53 0-2.574 1.166-2.574 2.816 0 1.749 1.089 2.893 2.673 2.893zm-2.045-3.322c.088-1.133.935-1.892 1.958-1.892 1.089 0 1.87.671 1.958 1.892h-3.916zm8.06 3.322c1.265 0 2.156-.726 2.376-1.859h-.594c-.187.825-.858 1.353-1.782 1.353-1.22 0-2.068-.957-2.068-2.343 0-1.386.836-2.365 2.068-2.365.935 0 1.595.528 1.793 1.364h.583c-.23-1.155-1.1-1.859-2.365-1.859-1.573 0-2.65 1.166-2.65 2.86 0 1.716 1.066 2.849 2.64 2.849zm7.515-2.904c0 1.463-.726 2.387-1.881 2.387-1.034 0-1.672-.704-1.672-2.035V2.923h-.561v3.124c0 1.749.913 2.519 2.145 2.519.99 0 1.639-.528 1.958-1.243l.077 1.177h.495V2.923h-.561v2.739zm2.31 1.54c0 .891.363 1.298 1.31 1.298h.813v-.517h-.77c-.583 0-.792-.22-.792-.792V3.44h1.507v-.517h-1.507V1.361h-.56v1.562h-1.057v.517h1.056v3.762zm3.263-5.456c.22 0 .396-.165.396-.396a.388.388 0 00-.396-.396.388.388 0 00-.396.396c0 .231.176.396.396.396zM55.499 8.5h.56V2.923h-.56V8.5zm4.344.066c1.573 0 2.684-1.166 2.684-2.86 0-1.683-1.111-2.849-2.684-2.849-1.573 0-2.673 1.166-2.673 2.849 0 1.694 1.1 2.86 2.673 2.86zm0-.506c-1.243 0-2.101-.968-2.101-2.354 0-1.375.858-2.354 2.1-2.354 1.244 0 2.102.979 2.102 2.354 0 1.386-.858 2.354-2.101 2.354zm6.372-5.203c-1.023 0-1.683.528-2.002 1.254l-.088-1.188h-.484V8.5h.561V5.75c0-1.452.737-2.376 1.925-2.376 1.078 0 1.727.704 1.727 2.024V8.5h.561V5.376c0-1.76-.935-2.519-2.2-2.519zM78.64 7.994c-.308 0-.528-.066-.76-.352l-.55-.638 1.75-2.662h-.594l-1.496 2.255-1.716-2.013-.066-.077c1.474-.616 2.002-1.32 2.002-2.178 0-.913-.715-1.595-1.683-1.595-1.144 0-1.991.759-1.991 1.771 0 .704.242 1.144.836 1.87-1.342.572-1.881 1.364-1.881 2.233 0 1.265 1 1.958 2.255 1.958.858 0 1.606-.385 2.233-1.122l.539.638c.264.319.627.418 1.045.418h.77v-.506h-.693zm-3.157-6.776c.682 0 1.155.473 1.155 1.122 0 .748-.517 1.287-1.727 1.815-.561-.671-.792-1.056-.792-1.661 0-.737.56-1.276 1.364-1.276zm-.726 6.842c-.968 0-1.694-.55-1.694-1.496 0-.803.45-1.298 1.595-1.848l.165.187 1.826 2.156c-.517.649-1.166 1.001-1.892 1.001zm11.247-5.203c-1.045 0-1.694.583-2.013 1.386V.8h-.561v7.7h.56V5.75c0-1.452.738-2.376 1.926-2.376 1.067 0 1.727.704 1.727 2.024V8.5h.56V5.376c0-1.76-.934-2.519-2.2-2.519zm3.738-1.111c.22 0 .396-.165.396-.396a.388.388 0 00-.396-.396.388.388 0 00-.396.396c0 .231.176.396.396.396zM89.455 8.5h.56V2.923h-.56V8.5zm6.423-4.279c-.341-.825-1.09-1.364-2.123-1.364-1.53 0-2.63 1.155-2.63 2.849 0 1.76 1.1 2.86 2.63 2.86 1.045 0 1.782-.55 2.134-1.419v.99c0 1.485-.704 2.123-2.046 2.123-1.045 0-1.771-.473-1.947-1.32h-.583c.176 1.188 1.133 1.826 2.486 1.826 1.804 0 2.65-.858 2.65-2.607V2.923h-.483l-.088 1.298zm-2.08 3.839c-1.242 0-2.1-.968-2.1-2.354 0-1.386.858-2.354 2.1-2.354 1.244 0 2.102.968 2.102 2.365 0 1.375-.858 2.343-2.101 2.343zm6.545-5.203c-1.045 0-1.694.583-2.013 1.386V.8h-.56v7.7h.56V5.75c0-1.452.737-2.376 1.925-2.376 1.067 0 1.727.704 1.727 2.024V8.5h.561V5.376c0-1.76-.935-2.519-2.2-2.519zm5.831 5.709c1.221 0 2.156-.792 2.398-1.914H108c-.22.869-.957 1.408-1.87 1.408-1.243 0-2.024-.946-2.046-2.244v-.099h4.554c0-.077.011-.165.011-.231-.055-1.661-1.078-2.629-2.574-2.629-1.529 0-2.574 1.166-2.574 2.816 0 1.749 1.089 2.893 2.673 2.893zm-2.046-3.322c.088-1.133.935-1.892 1.958-1.892 1.089 0 1.87.671 1.958 1.892h-3.916zm7.907-2.321c-1.034 0-1.474.495-1.705 1.111l-.088-1.111h-.484V8.5h.561V5.673c0-1.133.297-2.211 1.606-2.211h.407v-.539h-.297zm4.093 5.577h.561V.8h-.561v7.7zm4.344.066c1.221 0 2.156-.792 2.398-1.914h-.572c-.22.869-.957 1.408-1.87 1.408-1.243 0-2.024-.946-2.046-2.244v-.099h4.554c0-.077.011-.165.011-.231-.055-1.661-1.078-2.629-2.574-2.629-1.529 0-2.574 1.166-2.574 2.816 0 1.749 1.089 2.893 2.673 2.893zm-2.046-3.322c.088-1.133.935-1.892 1.958-1.892 1.089 0 1.87.671 1.958 1.892h-3.916zm7.01 3.256h.671l2.178-5.577h-.583l-1.914 4.928-1.925-4.928h-.605l2.178 5.577zm5.842.066c1.221 0 2.156-.792 2.398-1.914h-.572c-.22.869-.957 1.408-1.87 1.408-1.243 0-2.024-.946-2.046-2.244v-.099h4.554c0-.077.011-.165.011-.231-.055-1.661-1.078-2.629-2.574-2.629-1.529 0-2.574 1.166-2.574 2.816 0 1.749 1.089 2.893 2.673 2.893zm-2.046-3.322c.088-1.133.935-1.892 1.958-1.892 1.089 0 1.87.671 1.958 1.892h-3.916zm7.907-2.321c-1.034 0-1.474.495-1.705 1.111l-.088-1.111h-.484V8.5h.561V5.673c0-1.133.297-2.211 1.606-2.211h.407v-.539h-.297zm5.798 5.06c-.33 0-.495-.11-.495-.539V4.848c0-1.276-.781-1.991-2.178-1.991-1.276 0-2.123.616-2.266 1.628h.561c.143-.682.737-1.133 1.683-1.133 1.045 0 1.639.55 1.639 1.474v.484h-1.892c-1.43 0-2.2.616-2.2 1.661 0 .99.781 1.595 1.969 1.595 1.133 0 1.804-.517 2.145-1.21v.198c-.022.66.253.946.913.946h.33v-.517h-.209zm-1.056-1.738c0 1.067-.759 1.837-2.079 1.837-.891 0-1.441-.451-1.441-1.144 0-.737.55-1.144 1.584-1.144h1.936v.451zm6.558-2.024c-.341-.825-1.089-1.364-2.123-1.364-1.529 0-2.629 1.155-2.629 2.849 0 1.76 1.1 2.86 2.629 2.86 1.045 0 1.782-.55 2.134-1.419v.99c0 1.485-.704 2.123-2.046 2.123-1.045 0-1.771-.473-1.947-1.32h-.583c.176 1.188 1.133 1.826 2.486 1.826 1.804 0 2.651-.858 2.651-2.607V2.923h-.484l-.088 1.298zM146.36 8.06c-1.243 0-2.101-.968-2.101-2.354 0-1.386.858-2.354 2.101-2.354 1.243 0 2.101.968 2.101 2.365 0 1.375-.858 2.343-2.101 2.343zm6.435.506c1.221 0 2.156-.792 2.398-1.914h-.572c-.22.869-.957 1.408-1.87 1.408-1.243 0-2.024-.946-2.046-2.244v-.099h4.554c0-.077.011-.165.011-.231-.055-1.661-1.078-2.629-2.574-2.629-1.529 0-2.574 1.166-2.574 2.816 0 1.749 1.089 2.893 2.673 2.893zm-2.046-3.322c.088-1.133.935-1.892 1.958-1.892 1.089 0 1.87.671 1.958 1.892h-3.916zm9.948 3.256h.605l1.65-4.686 1.573 4.686h.605l1.98-5.577h-.572l-1.716 4.906-1.595-4.906h-.517l-1.683 4.906-1.628-4.906h-.594l1.892 5.577zm7.483-6.754c.22 0 .396-.165.396-.396a.388.388 0 00-.396-.396.388.388 0 00-.396.396c0 .231.176.396.396.396zm-.286 6.754h.561V2.923h-.561V8.5zm2.298-1.298c0 .891.363 1.298 1.309 1.298h.814v-.517h-.77c-.583 0-.792-.22-.792-.792V3.44h1.507v-.517h-1.507V1.361h-.561v1.562h-1.056v.517h1.056v3.762zm5.551-4.345c-1.045 0-1.694.583-2.013 1.386V.8h-.561v7.7h.561V5.75c0-1.452.737-2.376 1.925-2.376 1.067 0 1.727.704 1.727 2.024V8.5h.561V5.376c0-1.76-.935-2.519-2.2-2.519zm10.96 1.364c-.341-.825-1.089-1.364-2.123-1.364-1.529 0-2.629 1.155-2.629 2.849 0 1.76 1.1 2.86 2.629 2.86 1.045 0 1.782-.55 2.134-1.419v.99c0 1.485-.704 2.123-2.046 2.123-1.045 0-1.771-.473-1.947-1.32h-.583c.176 1.188 1.133 1.826 2.486 1.826 1.804 0 2.651-.858 2.651-2.607V2.923h-.484l-.088 1.298zm-2.079 3.839c-1.243 0-2.101-.968-2.101-2.354 0-1.386.858-2.354 2.101-2.354 1.243 0 2.101.968 2.101 2.365 0 1.375-.858 2.343-2.101 2.343zm8.019-2.398c0 1.463-.726 2.387-1.881 2.387-1.034 0-1.672-.704-1.672-2.035V2.923h-.561v3.124c0 1.749.913 2.519 2.145 2.519.99 0 1.639-.528 1.958-1.243l.077 1.177h.495V2.923h-.561v2.739zm6.787 2.321c-.33 0-.495-.11-.495-.539V4.848c0-1.276-.781-1.991-2.178-1.991-1.276 0-2.123.616-2.266 1.628h.561c.143-.682.737-1.133 1.683-1.133 1.045 0 1.639.55 1.639 1.474v.484h-1.892c-1.43 0-2.2.616-2.2 1.661 0 .99.781 1.595 1.969 1.595 1.133 0 1.804-.517 2.145-1.21v.198c-.022.66.253.946.913.946h.33v-.517h-.209zm-1.056-1.738c0 1.067-.759 1.837-2.079 1.837-.891 0-1.441-.451-1.441-1.144 0-.737.55-1.144 1.584-1.144h1.936v.451zm4.292-3.322c-1.034 0-1.474.495-1.705 1.111l-.088-1.111h-.484V8.5h.561V5.673c0-1.133.297-2.211 1.606-2.211h.407v-.539h-.297zm5.798 5.06c-.33 0-.495-.11-.495-.539V4.848c0-1.276-.781-1.991-2.178-1.991-1.276 0-2.123.616-2.266 1.628h.561c.143-.682.737-1.133 1.683-1.133 1.045 0 1.639.55 1.639 1.474v.484h-1.892c-1.43 0-2.2.616-2.2 1.661 0 .99.781 1.595 1.969 1.595 1.133 0 1.804-.517 2.145-1.21v.198c-.022.66.253.946.913.946h.33v-.517h-.209zm-1.056-1.738c0 1.067-.759 1.837-2.079 1.837-.891 0-1.441-.451-1.441-1.144 0-.737.55-1.144 1.584-1.144h1.936v.451zm4.59-3.388c-1.023 0-1.683.528-2.002 1.254l-.088-1.188h-.484V8.5h.561V5.75c0-1.452.737-2.376 1.925-2.376 1.078 0 1.727.704 1.727 2.024V8.5h.561V5.376c0-1.76-.935-2.519-2.2-2.519zm3.859 4.345c0 .891.363 1.298 1.309 1.298h.814v-.517h-.77c-.583 0-.792-.22-.792-.792V3.44h1.507v-.517h-1.507V1.361h-.561v1.562h-1.056v.517h1.056v3.762zm5.269 1.364c1.221 0 2.156-.792 2.398-1.914h-.572c-.22.869-.957 1.408-1.87 1.408-1.243 0-2.024-.946-2.046-2.244v-.099h4.554c0-.077.011-.165.011-.231-.055-1.661-1.078-2.629-2.574-2.629-1.529 0-2.574 1.166-2.574 2.816 0 1.749 1.089 2.893 2.673 2.893zm-2.046-3.322c.088-1.133.935-1.892 1.958-1.892 1.089 0 1.87.671 1.958 1.892h-3.916zm8.094 3.322c1.221 0 2.156-.792 2.398-1.914H229c-.22.869-.957 1.408-1.87 1.408-1.243 0-2.024-.946-2.046-2.244v-.099h4.554c0-.077.011-.165.011-.231-.055-1.661-1.078-2.629-2.574-2.629-1.529 0-2.574 1.166-2.574 2.816 0 1.749 1.089 2.893 2.673 2.893zm-2.046-3.322c.088-1.133.935-1.892 1.958-1.892 1.089 0 1.87.671 1.958 1.892h-3.916zm10.184-1.067c-.341-.792-1.089-1.32-2.134-1.32-1.529 0-2.629 1.166-2.629 2.849 0 1.76 1.1 2.86 2.629 2.86 1.045 0 1.771-.561 2.123-1.342l.088 1.276h.484V.8h-.561v3.377zm-2.09 3.883c-1.243 0-2.101-.968-2.101-2.354 0-1.375.858-2.354 2.101-2.354 1.243 0 2.101.979 2.101 2.365 0 1.375-.858 2.343-2.101 2.343zm6.682-1.276c.044 1.155.979 1.782 2.376 1.782 1.199 0 2.167-.605 2.167-1.595 0-1.177-1.034-1.408-2.233-1.573-.869-.121-1.639-.22-1.639-1.001 0-.638.627-1.056 1.573-1.056.891 0 1.529.429 1.628 1.155h.572c-.099-1.089-.99-1.639-2.2-1.639-1.243-.011-2.134.627-2.134 1.584 0 1.122 1.034 1.331 2.178 1.485.935.132 1.694.253 1.694 1.078 0 .66-.693 1.078-1.606 1.078-1.067 0-1.76-.495-1.804-1.298h-.572zm6.031.418c0 .891.363 1.298 1.309 1.298h.814v-.517h-.77c-.583 0-.792-.22-.792-.792V3.44h1.507v-.517h-1.507V1.361h-.561v1.562h-1.056v.517h1.056v3.762zm5.269 1.364c1.573 0 2.684-1.166 2.684-2.86 0-1.683-1.111-2.849-2.684-2.849-1.573 0-2.673 1.166-2.673 2.849 0 1.694 1.1 2.86 2.673 2.86zm0-.506c-1.243 0-2.101-.968-2.101-2.354 0-1.375.858-2.354 2.101-2.354 1.243 0 2.101.979 2.101 2.354 0 1.386-.858 2.354-2.101 2.354zm6.494-5.203c-1.045 0-1.771.561-2.123 1.342l-.088-1.276h-.484V10.7h.561V7.213c.319.814 1.078 1.353 2.134 1.353 1.529 0 2.629-1.166 2.629-2.86 0-1.749-1.1-2.849-2.629-2.849zm-.044 5.203c-1.243 0-2.101-.968-2.101-2.365 0-1.364.858-2.343 2.101-2.343 1.243 0 2.101.979 2.101 2.354 0 1.386-.858 2.354-2.101 2.354zm3.52-1.276c.044 1.155.979 1.782 2.376 1.782 1.199 0 2.167-.605 2.167-1.595 0-1.177-1.034-1.408-2.233-1.573-.869-.121-1.639-.22-1.639-1.001 0-.638.627-1.056 1.573-1.056.891 0 1.529.429 1.628 1.155h.572c-.099-1.089-.99-1.639-2.2-1.639-1.243-.011-2.134.627-2.134 1.584 0 1.122 1.034 1.331 2.178 1.485.935.132 1.694.253 1.694 1.078 0 .66-.693 1.078-1.606 1.078-1.067 0-1.76-.495-1.804-1.298h-.572z" fill="#000"/></svg>