<svg width="366" height="45" viewBox="0 0 366 45" fill="none" xmlns="http://www.w3.org/2000/svg"><path d="M2.379 39.097h.715l1.95-5.538 1.859 5.538h.715l2.34-6.591h-.676l-2.028 5.798-1.885-5.798h-.611l-1.989 5.798-1.924-5.798H.143l2.236 6.59zm11.549-6.67c-1.236 0-2.003.69-2.38 1.639v-4.07h-.662v9.1h.663v-3.25c0-1.715.87-2.807 2.274-2.807 1.261 0 2.041.832 2.041 2.392v3.666h.663v-3.692c0-2.08-1.105-2.977-2.6-2.977zm6.89 6.748c1.443 0 2.548-.936 2.834-2.262h-.676c-.26 1.027-1.131 1.664-2.21 1.664-1.469 0-2.392-1.118-2.418-2.652v-.117h5.382c0-.091.013-.195.013-.273-.065-1.963-1.274-3.107-3.042-3.107-1.807 0-3.042 1.378-3.042 3.328 0 2.067 1.287 3.419 3.159 3.419zM18.4 35.249c.104-1.34 1.105-2.236 2.314-2.236 1.287 0 2.21.793 2.314 2.236H18.4zm9.695-2.821c-1.209 0-1.989.624-2.366 1.482l-.104-1.404h-.572v6.59h.663v-3.25c0-1.715.871-2.807 2.275-2.807 1.274 0 2.041.832 2.041 2.392v3.666h.663v-3.692c0-2.08-1.105-2.977-2.6-2.977zm9.548 6.669l-.43 1.066c-.298.728-.415.923-1.091.923h-.832v.61h1.014c.884 0 1.092-.337 1.508-1.377l3.159-7.813h-.715l-2.25 5.733-2.287-5.733h-.715l2.639 6.59zm6.852.078c1.859 0 3.172-1.378 3.172-3.38 0-1.99-1.313-3.367-3.172-3.367-1.86 0-3.16 1.378-3.16 3.367 0 2.002 1.3 3.38 3.16 3.38zm0-.598c-1.47 0-2.483-1.144-2.483-2.782 0-1.625 1.014-2.782 2.483-2.782s2.483 1.157 2.483 2.782c0 1.638-1.014 2.782-2.483 2.782zm9.273-2.834c0 1.729-.858 2.82-2.223 2.82-1.222 0-1.976-.831-1.976-2.404v-3.653h-.663v3.692c0 2.067 1.08 2.977 2.535 2.977 1.17 0 1.937-.624 2.314-1.47l.091 1.392h.585v-6.591h-.663v3.237zm6.222 1.82c0 1.053.429 1.534 1.547 1.534h.962v-.611h-.91c-.69 0-.936-.26-.936-.936v-4.433h1.78v-.611h-1.78V30.66h-.663v1.846h-1.248v.61h1.248v4.447zm6.208-5.057c-1.221 0-1.741.585-2.014 1.313l-.105-1.313h-.571v6.59h.663v-3.34c0-1.34.35-2.613 1.897-2.613h.481v-.637h-.35zm6.853 5.98c-.39 0-.585-.13-.585-.637V34.78c0-1.508-.923-2.353-2.574-2.353-1.508 0-2.51.728-2.678 1.924h.663c.169-.806.87-1.34 1.989-1.34 1.235 0 1.937.65 1.937 1.743v.572h-2.236c-1.69 0-2.6.728-2.6 1.963 0 1.17.923 1.885 2.327 1.885 1.339 0 2.132-.611 2.535-1.43v.234c-.026.78.299 1.118 1.079 1.118h.39v-.611h-.247zm-1.248-2.054c0 1.26-.897 2.17-2.457 2.17-1.053 0-1.703-.532-1.703-1.351 0-.871.65-1.352 1.872-1.352h2.288v.533zm7.662-2.444c-.403-.936-1.287-1.56-2.522-1.56-1.807 0-3.107 1.378-3.107 3.367 0 2.08 1.3 3.38 3.107 3.38 1.235 0 2.093-.663 2.509-1.586l.104 1.508h.572v-9.1h-.663v3.99zm-2.47 4.589c-1.47 0-2.483-1.144-2.483-2.782 0-1.625 1.014-2.782 2.483-2.782s2.483 1.157 2.483 2.795c0 1.625-1.014 2.769-2.483 2.769zm7.604.598c1.443 0 2.548-.936 2.834-2.262h-.676c-.26 1.027-1.13 1.664-2.21 1.664-1.469 0-2.392-1.118-2.418-2.652v-.117h5.382c0-.091.013-.195.013-.273-.065-1.963-1.274-3.107-3.042-3.107-1.807 0-3.042 1.378-3.042 3.328 0 2.067 1.287 3.419 3.16 3.419zm-2.418-3.926c.104-1.34 1.105-2.236 2.314-2.236 1.287 0 2.21.793 2.314 2.236h-4.628zm10.21 3.848h1.495v-3.848h3.562v-1.287h-3.562v-2.64h4.316v-1.325H92.39v9.1zm6.294 0h1.69l2.236-3.497 2.223 3.497h1.781l-3.029-4.72 2.847-4.38h-1.69l-2.08 3.237-2.041-3.237h-1.768l2.847 4.446-3.016 4.654zm18.182-1.222c-.286 0-.429-.091-.429-.43v-2.664c0-1.573-1.014-2.418-2.782-2.418-1.677 0-2.795.806-2.938 2.106h1.378c.104-.585.663-.975 1.495-.975.923 0 1.456.455 1.456 1.196v.403h-1.677c-1.859 0-2.847.767-2.847 2.132 0 1.235 1.014 1.95 2.47 1.95 1.079 0 1.755-.468 2.197-1.144 0 .663.312 1.066 1.222 1.066h.741v-1.222h-.286zm-1.82-1.508c-.013 1.027-.689 1.716-1.859 1.716-.767 0-1.235-.39-1.235-.95 0-.675.481-1 1.352-1h1.742v.234zm6.381-4.004c-1.079 0-1.716.429-2.132.949l-.156-.871h-1.222v6.656h1.404v-3.354c0-1.352.663-2.171 1.781-2.171 1.053 0 1.586.676 1.586 1.937v3.588h1.417v-3.705c0-2.223-1.209-3.03-2.678-3.03zm8.961 1c-.429-.584-1.144-1-2.158-1-1.807 0-3.146 1.352-3.146 3.406 0 2.132 1.339 3.406 3.146 3.406 1.053 0 1.742-.494 2.171-1.08l.169 1.002h1.222v-9.1h-1.404v3.367zm-1.924 4.629c-1.17 0-1.937-.91-1.937-2.223 0-1.3.767-2.21 1.937-2.21s1.937.91 1.937 2.236c0 1.287-.767 2.197-1.937 2.197zm8.741-6.487c.481 0 .858-.351.858-.845s-.377-.845-.858-.845-.858.35-.858.845c0 .494.377.845.858.845zm-.715 7.592h1.404V32.44h-1.404v6.656zm6.29-6.734c-1.079 0-1.716.429-2.132.949l-.156-.871h-1.222v6.656h1.404v-3.354c0-1.352.663-2.171 1.781-2.171 1.053 0 1.586.676 1.586 1.937v3.588h1.417v-3.705c0-2.223-1.209-3.03-2.678-3.03zm8.961 1c-.429-.584-1.144-1-2.158-1-1.807 0-3.146 1.352-3.146 3.406 0 2.132 1.339 3.406 3.146 3.406 1.053 0 1.742-.494 2.171-1.08l.169 1.002h1.222v-9.1h-1.404v3.367zm-1.924 4.629c-1.17 0-1.937-.91-1.937-2.223 0-1.3.767-2.21 1.937-2.21s1.937.91 1.937 2.236c0 1.287-.767 2.197-1.937 2.197zm5.415-6.487c.481 0 .858-.351.858-.845s-.377-.845-.858-.845-.858.35-.858.845c0 .494.377.845.858.845zm-.715 7.592h1.404V32.44h-1.404v6.656zm5.835.078c1.703 0 2.834-.95 3.094-2.457h-1.482c-.169.767-.741 1.26-1.599 1.26-1.131 0-1.872-.896-1.872-2.196 0-1.313.741-2.223 1.872-2.223.871 0 1.43.48 1.612 1.26h1.469c-.273-1.507-1.339-2.456-3.055-2.456-2.015 0-3.341 1.365-3.341 3.419 0 2.08 1.287 3.393 3.302 3.393zm7.328 0c1.651 0 2.769-1.001 3.003-2.314h-1.404c-.195.74-.819 1.17-1.677 1.17-1.105 0-1.82-.741-1.859-1.872v-.091h5.018c.026-.182.039-.364.039-.533-.039-1.95-1.326-3.172-3.25-3.172-1.963 0-3.276 1.365-3.276 3.419 0 2.04 1.313 3.393 3.406 3.393zm-1.885-4.134c.104-.95.871-1.547 1.768-1.547.975 0 1.664.559 1.781 1.547h-3.549zm5.816 1.859c.039 1.443 1.261 2.275 3.042 2.275 1.612 0 2.821-.806 2.821-2.08 0-1.482-1.235-1.794-2.756-1.976-.962-.104-1.599-.182-1.599-.806 0-.533.546-.871 1.378-.871.832 0 1.404.429 1.482 1.04h1.378c-.091-1.365-1.248-2.12-2.886-2.12-1.599-.012-2.73.807-2.73 2.068 0 1.378 1.196 1.703 2.717 1.885 1.027.13 1.638.182 1.638.897 0 .533-.572.87-1.443.87-1.014 0-1.612-.493-1.664-1.182h-1.378zm11.04.663c0 1.053.429 1.534 1.547 1.534h.962v-.611h-.91c-.689 0-.936-.26-.936-.936v-4.433h1.781v-.611h-1.781V30.66h-.663v1.846h-1.248v.61h1.248v4.447zm6.56-5.135c-1.235 0-2.002.689-2.379 1.638v-4.07h-.663v9.1h.663v-3.25c0-1.715.871-2.807 2.275-2.807 1.261 0 2.041.832 2.041 2.392v3.666h.663v-3.692c0-2.08-1.105-2.977-2.6-2.977zm4.418-1.313c.26 0 .468-.195.468-.468a.458.458 0 00-.468-.468.458.458 0 00-.468.468c0 .273.208.468.468.468zm-.338 7.982h.663v-6.591h-.663v6.59zm1.922-2.028c.052 1.365 1.157 2.106 2.808 2.106 1.417 0 2.561-.715 2.561-1.885 0-1.391-1.222-1.664-2.639-1.86-1.027-.142-1.937-.26-1.937-1.182 0-.754.741-1.248 1.859-1.248 1.053 0 1.807.507 1.924 1.365h.676c-.117-1.287-1.17-1.937-2.6-1.937-1.469-.013-2.522.74-2.522 1.872 0 1.326 1.222 1.573 2.574 1.755 1.105.156 2.002.299 2.002 1.274 0 .78-.819 1.274-1.898 1.274-1.261 0-2.08-.585-2.132-1.534h-.676zm15.351 2.028v-.65h-4.355v-8.45h-.702v9.1h5.057zm5.449-3.354c0 1.729-.858 2.82-2.223 2.82-1.222 0-1.976-.831-1.976-2.404v-3.653h-.663v3.692c0 2.067 1.079 2.977 2.535 2.977 1.17 0 1.937-.624 2.314-1.47l.091 1.392h.585v-6.591h-.663v3.237zm5.266-3.315c-1.209 0-1.989.624-2.366 1.482l-.104-1.404h-.572v6.59h.663v-3.25c0-1.715.871-2.807 2.275-2.807 1.274 0 2.041.832 2.041 2.392v3.666h.663v-3.692c0-2.08-1.105-2.977-2.6-2.977zm9.865 6.058c-.39 0-.585-.13-.585-.637V34.78c0-1.508-.923-2.353-2.574-2.353-1.508 0-2.509.728-2.678 1.924h.663c.169-.806.871-1.34 1.989-1.34 1.235 0 1.937.65 1.937 1.743v.572h-2.236c-1.69 0-2.6.728-2.6 1.963 0 1.17.923 1.885 2.327 1.885 1.339 0 2.132-.611 2.535-1.43v.234c-.026.78.299 1.118 1.079 1.118h.39v-.611h-.247zm-1.248-2.054c0 1.26-.897 2.17-2.457 2.17-1.053 0-1.703-.532-1.703-1.351 0-.871.65-1.352 1.872-1.352h2.288v.533zm5.073-3.926c-1.222 0-1.742.585-2.015 1.313l-.104-1.313h-.572v6.59h.663v-3.34c0-1.34.351-2.613 1.898-2.613h.481v-.637h-.351zm5.682 6.59v-7.825l5.382 7.826h.663v-9.1h-.689v7.826l-5.382-7.826h-.663v9.1h.689zm10.675.079c1.443 0 2.548-.936 2.834-2.262h-.676c-.26 1.027-1.131 1.664-2.21 1.664-1.469 0-2.392-1.118-2.418-2.652v-.117h5.382c0-.091.013-.195.013-.273-.065-1.963-1.274-3.107-3.042-3.107-1.807 0-3.042 1.378-3.042 3.328 0 2.067 1.287 3.419 3.159 3.419zm-2.418-3.926c.104-1.34 1.105-2.236 2.314-2.236 1.287 0 2.21.793 2.314 2.236h-4.628zm8.049 3.848h.715l1.95-5.538 1.859 5.538h.715l2.34-6.591h-.676l-2.028 5.798-1.885-5.798h-.611l-1.989 5.798-1.924-5.798h-.702l2.236 6.59zm14.896-3.354v3.354h.702v-3.354l3.484-5.746h-.793l-3.042 4.979-3.016-4.98h-.819l3.484 5.747zm6.971 3.432c1.443 0 2.548-.936 2.834-2.262h-.676c-.26 1.027-1.131 1.664-2.21 1.664-1.469 0-2.392-1.118-2.418-2.652v-.117h5.382c0-.091.013-.195.013-.273-.065-1.963-1.274-3.107-3.042-3.107-1.807 0-3.042 1.378-3.042 3.328 0 2.067 1.287 3.419 3.159 3.419zm-2.418-3.926c.104-1.34 1.105-2.236 2.314-2.236 1.287 0 2.21.793 2.314 2.236h-4.628zm12.451 3.237c-.39 0-.585-.13-.585-.637V34.78c0-1.508-.923-2.353-2.574-2.353-1.508 0-2.509.728-2.678 1.924h.663c.169-.806.871-1.34 1.989-1.34 1.235 0 1.937.65 1.937 1.743v.572h-2.236c-1.69 0-2.6.728-2.6 1.963 0 1.17.923 1.885 2.327 1.885 1.339 0 2.132-.611 2.535-1.43v.234c-.026.78.299 1.118 1.079 1.118h.39v-.611h-.247zm-1.248-2.054c0 1.26-.897 2.17-2.457 2.17-1.053 0-1.703-.532-1.703-1.351 0-.871.65-1.352 1.872-1.352h2.288v.533zm5.073-3.926c-1.222 0-1.742.585-2.015 1.313l-.104-1.313h-.572v6.59h.663v-3.34c0-1.34.351-2.613 1.898-2.613h.481v-.637h-.351zm.582 6.162a.47.47 0 00.494.494.47.47 0 00.494-.494c0-.3-.208-.481-.494-.481-.286 0-.494.182-.494.48zM3.713 16.158V8.555l5.227 7.603h1.61V5.428H8.816v7.603L3.59 5.428H1.981v10.73h1.732zm12.347.092c1.947 0 3.265-1.18 3.541-2.729h-1.655c-.23.874-.966 1.38-1.978 1.38-1.303 0-2.146-.874-2.191-2.207v-.108h5.916c.03-.214.046-.429.046-.628-.046-2.3-1.563-3.74-3.832-3.74-2.315 0-3.863 1.61-3.863 4.031 0 2.407 1.548 4 4.016 4zm-2.222-4.874c.122-1.12 1.027-1.825 2.084-1.825 1.15 0 1.962.66 2.1 1.825h-4.184zm8.779 4.782h1.793l1.717-5.334 1.655 5.334h1.779l2.605-7.848H30.48l-1.855 6.008L26.91 8.31H25.39l-1.793 6.008-1.794-6.008h-1.747l2.56 7.848zm14.91-2.13c0 1.425.644 2.13 2.146 2.13h1.533v-1.456H40.04c-.629 0-.843-.23-.843-.843V9.766h1.916V8.31h-1.916V6.118h-1.671V8.31h-1.364v1.456h1.364v4.261zm8.702-5.718c-1.288 0-1.916.521-2.315 1.18l-.184-1.18H42.26v7.848h1.655v-3.94c0-1.21.475-2.36 1.947-2.36h.736V8.31h-.368zm8.323 6.407c-.337 0-.506-.107-.506-.506V11.07c0-1.855-1.196-2.851-3.28-2.851-1.978 0-3.296.95-3.465 2.483h1.625c.123-.69.782-1.15 1.763-1.15 1.088 0 1.717.537 1.717 1.41v.476h-1.978c-2.191 0-3.356.904-3.356 2.514 0 1.456 1.195 2.299 2.912 2.299 1.272 0 2.07-.552 2.59-1.349 0 .782.368 1.257 1.441 1.257h.874v-1.441h-.337zm-2.146-1.778c-.016 1.21-.813 2.023-2.192 2.023-.905 0-1.456-.46-1.456-1.119 0-.797.567-1.18 1.594-1.18h2.054v.276zm9.288-3.54c-.506-.69-1.35-1.181-2.545-1.181-2.13 0-3.71 1.594-3.71 4.016 0 2.514 1.58 4.016 3.71 4.016 1.242 0 2.054-.583 2.56-1.272l.2 1.18h1.44V5.428h-1.655v3.97zm-2.27 5.456c-1.379 0-2.283-1.073-2.283-2.621 0-1.533.904-2.606 2.284-2.606s2.284 1.073 2.284 2.636c0 1.518-.905 2.591-2.284 2.591zm9.267 1.395c1.947 0 3.265-1.18 3.541-2.729h-1.655c-.23.874-.966 1.38-1.977 1.38-1.303 0-2.146-.874-2.192-2.207v-.108h5.916c.03-.214.046-.429.046-.628-.046-2.3-1.563-3.74-3.832-3.74-2.314 0-3.863 1.61-3.863 4.031 0 2.407 1.549 4 4.016 4zm-2.222-4.874c.123-1.12 1.027-1.825 2.085-1.825 1.15 0 1.962.66 2.1 1.825h-4.185zm11.21-3.066c-1.288 0-1.916.521-2.315 1.18l-.184-1.18H73.71v7.848h1.655v-3.94c0-1.21.475-2.36 1.947-2.36h.735V8.31h-.367zm9.51-.092c-1.21 0-2.023.552-2.544 1.257V5.428h-1.656v10.73h1.441l.2-1.134c.49.705 1.333 1.226 2.56 1.226 2.145 0 3.709-1.61 3.709-4.016 0-2.53-1.564-4.016-3.71-4.016zm-.276 6.637c-1.38 0-2.284-1.088-2.284-2.636 0-1.518.905-2.59 2.284-2.59 1.38 0 2.3 1.072 2.3 2.605 0 1.548-.92 2.621-2.3 2.621zm9.022 1.395c2.39 0 4-1.61 4-4.016 0-2.391-1.61-4.016-4-4.016-2.392 0-4.001 1.625-4.001 4.016 0 2.406 1.61 4.016 4 4.016zm0-1.41c-1.395 0-2.3-1.089-2.3-2.606 0-1.518.905-2.606 2.3-2.606 1.394 0 2.314 1.088 2.314 2.606 0 1.517-.92 2.606-2.314 2.606zm9.47-6.622c-1.272 0-2.023.506-2.514 1.119l-.184-1.027h-1.44v7.848h1.655v-3.955c0-1.594.782-2.56 2.1-2.56 1.242 0 1.87.797 1.87 2.284v4.23h1.671V11.79c0-2.62-1.426-3.571-3.158-3.571zm10.044 4.016c0 1.625-.767 2.575-2.024 2.575-1.211 0-1.824-.782-1.824-2.315V8.31h-1.655v4.368c0 2.683 1.425 3.572 3.096 3.572 1.211 0 1.931-.49 2.422-1.088l.184.996h1.456V8.31h-1.655v3.924zm2.949 1.333c.046 1.702 1.487 2.683 3.587 2.683 1.901 0 3.326-.95 3.326-2.453 0-1.747-1.456-2.115-3.249-2.33-1.135-.122-1.886-.214-1.886-.95 0-.628.644-1.027 1.625-1.027s1.655.506 1.747 1.226h1.625c-.107-1.61-1.471-2.498-3.403-2.498-1.885-.015-3.219.95-3.219 2.437 0 1.625 1.411 2.008 3.204 2.223 1.211.153 1.931.214 1.931 1.057 0 .629-.674 1.027-1.701 1.027-1.196 0-1.901-.582-1.962-1.395h-1.625zm8.043-3.924c0 .614.444 1.043 1.057 1.043.614 0 1.073-.43 1.073-1.043s-.459-1.042-1.073-1.042c-.613 0-1.057.43-1.057 1.042zm0 5.564c0 .614.444 1.043 1.057 1.043.614 0 1.073-.43 1.073-1.043s-.459-1.042-1.073-1.042c-.613 0-1.057.43-1.057 1.043z" fill="#000"/><path d="M139.758 16.264c1.954 0 3.222-.88 3.82-1.761l.176 1.655h1.567V9.415h-5.352v1.708h3.416v.299c-.106 1.99-1.638 3.063-3.539 3.063-2.36 0-3.839-1.848-3.839-4.49 0-2.64 1.515-4.489 3.856-4.489 1.708 0 2.888.95 3.257 2.518h2.096c-.37-2.606-2.448-4.296-5.3-4.296-3.662 0-5.986 2.517-5.986 6.268 0 3.75 2.377 6.268 5.828 6.268zm11.902 0c2.236 0 3.751-1.356 4.067-3.134h-1.901c-.264 1.003-1.109 1.584-2.271 1.584-1.497 0-2.465-1.003-2.518-2.535v-.123h6.796a5.2 5.2 0 00.053-.722c-.053-2.641-1.796-4.296-4.402-4.296-2.658 0-4.437 1.848-4.437 4.63 0 2.764 1.779 4.596 4.613 4.596zm-2.553-5.6c.141-1.285 1.18-2.094 2.395-2.094 1.32 0 2.254.757 2.412 2.095h-4.807zm8.899 3.047c0 1.637.739 2.447 2.465 2.447h1.76v-1.673h-1.338c-.722 0-.968-.264-.968-.968V8.816h2.201V7.143h-2.201V4.626h-1.919v2.517h-1.567v1.673h1.567v4.895zm18.179.792c-.387 0-.581-.123-.581-.581v-3.61c0-2.13-1.373-3.274-3.767-3.274-2.272 0-3.786 1.091-3.979 2.852h1.866c.141-.792.898-1.32 2.025-1.32 1.25 0 1.972.616 1.972 1.62v.545h-2.272c-2.517 0-3.855 1.039-3.855 2.888 0 1.672 1.373 2.64 3.345 2.64 1.461 0 2.377-.633 2.975-1.549 0 .898.423 1.444 1.655 1.444h1.004v-1.655h-.388zm-2.464-2.042c-.018 1.39-.934 2.324-2.518 2.324-1.039 0-1.673-.529-1.673-1.286 0-.915.652-1.355 1.831-1.355h2.36v.317zm13.621-3.398c-1.936-.335-3.204-.6-3.204-1.867 0-1.162.968-1.76 2.359-1.76 1.497 0 2.483.845 2.641 2.095h2.025c-.07-1.99-1.426-3.398-3.644-3.733V1.932h-1.708v1.831c-2.236.229-3.698 1.62-3.698 3.574 0 2.447 1.937 3.099 3.979 3.45 1.955.353 3.24.635 3.24 1.938 0 1.18-1.056 1.83-2.518 1.83-1.725 0-2.852-.968-2.958-2.411l-2.042-.036c.07 2.184 1.532 3.768 3.997 4.085v1.849h1.708v-1.814c2.306-.246 3.838-1.708 3.838-3.715.017-2.43-1.972-3.08-4.015-3.45zm5.058 7.095h8.732V14.45h-5.968l3.275-2.729c1.496-1.25 2.605-2.394 2.605-4.225 0-2.254-1.549-3.768-4.313-3.768-2.624 0-4.314 1.708-4.314 4.05v.316h1.955v-.211c0-1.532.95-2.483 2.359-2.483 1.408 0 2.341.775 2.341 2.184 0 1.18-.827 2.042-1.936 2.975l-4.736 4.032v1.567zm11.054-2.271c-.81 0-1.338.528-1.338 1.197 0 .757.458 1.127 1.039 1.127a.948.948 0 00.581-.176c.018.07.018.158.018.229 0 .616-.441 1.302-1.55 1.32v1.021c1.743-.017 2.835-.986 2.835-2.694 0-1.126-.616-2.024-1.585-2.024zm9.209-4.138c1.145-.264 2.131-1.303 2.131-2.746 0-1.92-1.655-3.275-4.296-3.275-2.624 0-4.279 1.355-4.279 3.275 0 1.496.986 2.482 2.113 2.764-1.32.3-2.447 1.32-2.447 3.028 0 2.042 1.708 3.469 4.613 3.469 2.905 0 4.63-1.427 4.63-3.469 0-1.743-1.144-2.764-2.465-3.046zm-2.165-4.507c1.408 0 2.324.74 2.324 1.813 0 1.092-.916 1.831-2.324 1.831-1.391 0-2.307-.739-2.307-1.83 0-1.075.916-1.814 2.307-1.814zm0 9.525c-1.55 0-2.624-.88-2.624-2.078 0-1.197 1.074-2.06 2.624-2.06 1.567 0 2.641.863 2.641 2.06 0 1.198-1.074 2.078-2.641 2.078zm12.636-5.018c1.145-.264 2.131-1.303 2.131-2.746 0-1.92-1.655-3.275-4.296-3.275-2.624 0-4.279 1.355-4.279 3.275 0 1.496.986 2.482 2.113 2.764-1.32.3-2.447 1.32-2.447 3.028 0 2.042 1.708 3.469 4.613 3.469 2.905 0 4.63-1.427 4.63-3.469 0-1.743-1.144-2.764-2.465-3.046zm-2.165-4.507c1.408 0 2.324.74 2.324 1.813 0 1.092-.916 1.831-2.324 1.831-1.391 0-2.307-.739-2.307-1.83 0-1.075.916-1.814 2.307-1.814zm0 9.525c-1.55 0-2.624-.88-2.624-2.078 0-1.197 1.074-2.06 2.624-2.06 1.567 0 2.641.863 2.641 2.06 0 1.198-1.074 2.078-2.641 2.078zm12.636-5.018c1.145-.264 2.131-1.303 2.131-2.746 0-1.92-1.655-3.275-4.296-3.275-2.624 0-4.279 1.355-4.279 3.275 0 1.496.986 2.482 2.113 2.764-1.32.3-2.447 1.32-2.447 3.028 0 2.042 1.708 3.469 4.613 3.469 2.905 0 4.63-1.427 4.63-3.469 0-1.743-1.144-2.764-2.465-3.046zm-2.165-4.507c1.408 0 2.324.74 2.324 1.813 0 1.092-.916 1.831-2.324 1.831-1.391 0-2.307-.739-2.307-1.83 0-1.075.916-1.814 2.307-1.814zm0 9.525c-1.55 0-2.624-.88-2.624-2.078 0-1.197 1.074-2.06 2.624-2.06 1.567 0 2.641.863 2.641 2.06 0 1.198-1.074 2.078-2.641 2.078zm15.24-7.624c-1.479 0-2.201.599-2.659 1.356l-.211-1.356h-1.69v9.015h1.901v-4.525c0-1.39.546-2.711 2.236-2.711h.845V7.143h-.422zm5.443 9.12c2.236 0 3.751-1.355 4.067-3.133h-1.901c-.264 1.003-1.109 1.584-2.271 1.584-1.497 0-2.465-1.003-2.518-2.535v-.123h6.796a5.2 5.2 0 00.053-.722c-.053-2.641-1.796-4.296-4.402-4.296-2.658 0-4.437 1.848-4.437 4.63 0 2.764 1.779 4.596 4.613 4.596zm-2.553-5.598c.141-1.286 1.18-2.095 2.395-2.095 1.32 0 2.254.757 2.412 2.095h-4.807zm10.084 5.493h2.06l1.972-6.127 1.902 6.127h2.042l2.993-9.015h-1.937l-2.13 6.902-1.972-6.902h-1.743l-2.06 6.902-2.06-6.902h-2.007l2.94 9.015zm19.831-1.655c-.387 0-.581-.123-.581-.581v-3.61c0-2.13-1.373-3.274-3.767-3.274-2.272 0-3.786 1.091-3.979 2.852h1.866c.141-.792.898-1.32 2.025-1.32 1.25 0 1.972.616 1.972 1.62v.545h-2.272c-2.517 0-3.855 1.039-3.855 2.888 0 1.672 1.373 2.64 3.345 2.64 1.461 0 2.377-.633 2.975-1.549 0 .898.423 1.444 1.655 1.444h1.004v-1.655h-.388zm-2.464-2.042c-.018 1.39-.934 2.324-2.518 2.324-1.039 0-1.673-.529-1.673-1.286 0-.915.652-1.355 1.831-1.355h2.36v.317zm8.448-5.318c-1.479 0-2.201.599-2.659 1.356l-.211-1.356h-1.69v9.015h1.901v-4.525c0-1.39.546-2.711 2.236-2.711h.845V7.143h-.422zm8.014 1.25c-.581-.792-1.549-1.355-2.923-1.355-2.447 0-4.26 1.83-4.26 4.613 0 2.887 1.813 4.613 4.26 4.613 1.426 0 2.36-.67 2.941-1.462l.228 1.356h1.655V3.833h-1.901v4.56zm-2.606 6.268c-1.584 0-2.623-1.232-2.623-3.01 0-1.761 1.039-2.993 2.623-2.993 1.585 0 2.624 1.232 2.624 3.028 0 1.743-1.039 2.975-2.624 2.975zm11.736-9.613l-1.937.933.053-2.165h-1.303l.053 2.148-1.919-.916-.529 1.233 2.078.774-1.444 1.638 1.004.88 1.391-1.831 1.408 1.849 1.021-.88-1.443-1.638 2.095-.775-.528-1.25z" fill="url(#paint0_linear_839_900)"/><defs><linearGradient id="paint0_linear_839_900" x1="304.278" y1="10.158" x2="133.278" y2="10.158" gradientUnits="userSpaceOnUse"><stop stop-color="#FF4343"/><stop offset=".5" stop-color="#9C0B93"/><stop offset="1" stop-color="#4C1BB7"/></linearGradient></defs></svg>