<svg width="299" height="19" viewBox="0 0 299 19" fill="none" xmlns="http://www.w3.org/2000/svg"><path d="M5.32 9.82V15h2.3V9.82L12.84 1h-2.58L6.48 7.4 2.8 1H.1l5.22 8.82zm11.752 5.3c3.12 0 5.22-2.1 5.22-5.24 0-3.12-2.1-5.24-5.22-5.24-3.12 0-5.22 2.12-5.22 5.24 0 3.14 2.1 5.24 5.22 5.24zm0-1.84c-1.82 0-3-1.42-3-3.4s1.18-3.4 3-3.4 3.02 1.42 3.02 3.4-1.2 3.4-3.02 3.4zm13.977-3.4c0 2.12-1 3.36-2.64 3.36-1.58 0-2.38-1.02-2.38-3.02V4.76h-2.16v5.7c0 3.5 1.86 4.66 4.04 4.66 1.58 0 2.52-.64 3.16-1.42l.24 1.3h1.9V4.76h-2.16v5.12zm17.185-3.7c-.66-.9-1.76-1.54-3.32-1.54-2.78 0-4.84 2.08-4.84 5.24 0 3.28 2.06 5.24 4.84 5.24 1.62 0 2.68-.76 3.34-1.66l.26 1.54h1.88V1h-2.16v5.18zm-2.96 7.12c-1.8 0-2.98-1.4-2.98-3.42 0-2 1.18-3.4 2.98-3.4s2.98 1.4 2.98 3.44c0 1.98-1.18 3.38-2.98 3.38zm8.331-9.98c.74 0 1.32-.54 1.32-1.3s-.58-1.3-1.32-1.3c-.74 0-1.32.54-1.32 1.3s.58 1.3 1.32 1.3zM52.505 15h2.16V4.76h-2.16V15zm12.058-8.82c-.66-.9-1.76-1.54-3.32-1.54-2.78 0-4.84 2.08-4.84 5.24 0 3.28 2.06 5.24 4.84 5.24 1.62 0 2.68-.76 3.34-1.66l.26 1.54h1.88V1h-2.16v5.18zm-2.96 7.12c-1.8 0-2.98-1.4-2.98-3.42 0-2 1.18-3.4 2.98-3.4s2.98 1.4 2.98 3.44c0 1.98-1.18 3.38-2.98 3.38zm12.63-8.66c-1.66 0-2.64.66-3.28 1.46l-.24-1.34h-1.88V15h2.16V9.84c0-2.08 1.02-3.34 2.74-3.34 1.62 0 2.44 1.04 2.44 2.98V15h2.18V9.3c0-3.42-1.86-4.66-4.12-4.66zM80.83.88c-.92 0-1.52.6-1.52 1.36 0 .84.52 1.28 1.18 1.28.24 0 .48-.08.66-.22.02.1.02.18.02.28 0 .7-.5 1.48-1.76 1.48v1.18c1.98-.02 3.22-1.12 3.22-3.06 0-1.3-.7-2.3-1.8-2.3zm4.604 11.34c0 1.86.84 2.78 2.8 2.78h2v-1.9h-1.52c-.82 0-1.1-.3-1.1-1.1V6.66h2.5v-1.9h-2.5V1.9h-2.18v2.86h-1.78v1.9h1.78v5.56zm19.071-8.9c.74 0 1.32-.54 1.32-1.3s-.58-1.3-1.32-1.3c-.74 0-1.32.54-1.32 1.3s.58 1.3 1.32 1.3zm-4.86 1.44V3.9c0-.7.28-1 .98-1h1.52V1h-1.82c-1.98 0-2.86.94-2.86 2.74v1.02h-1.78v1.9h1.78V15h2.18V6.66h3.76V15h2.18V4.76h-5.94zm13.437-.12c-1.66 0-2.64.66-3.28 1.46l-.24-1.34h-1.88V15h2.16V9.84c0-2.08 1.02-3.34 2.74-3.34 1.62 0 2.44 1.04 2.44 2.98V15h2.18V9.3c0-3.42-1.86-4.66-4.12-4.66zm7.184-1.32c.74 0 1.32-.54 1.32-1.3s-.58-1.3-1.32-1.3c-.74 0-1.32.54-1.32 1.3s.58 1.3 1.32 1.3zm-1.1 11.68h2.16V4.76h-2.16V15zm3.838-3.38c.06 2.22 1.94 3.5 4.68 3.5 2.48 0 4.34-1.24 4.34-3.2 0-2.28-1.9-2.76-4.24-3.04-1.48-.16-2.46-.28-2.46-1.24 0-.82.84-1.34 2.12-1.34 1.28 0 2.16.66 2.28 1.6h2.12c-.14-2.1-1.92-3.26-4.44-3.26-2.46-.02-4.2 1.24-4.2 3.18 0 2.12 1.84 2.62 4.18 2.9 1.58.2 2.52.28 2.52 1.38 0 .82-.88 1.34-2.22 1.34-1.56 0-2.48-.76-2.56-1.82h-2.12zm16.074-6.98c-1.6 0-2.58.72-3.22 1.6V1h-2.16v14h2.16V9.82c0-2.06 1.04-3.32 2.74-3.32 1.6 0 2.46 1.04 2.46 2.98V15h2.16V9.3c0-3.42-1.86-4.66-4.14-4.66zm14.181 10.42l-.4 1c-.32.84-.52 1.04-1.36 1.04h-1.52V19h2.32c1.5 0 1.94-.74 2.58-2.4l4.64-11.84h-2.3l-2.78 7.78-2.86-7.78h-2.3l3.98 10.3zm11.724.06c3.12 0 5.22-2.1 5.22-5.24 0-3.12-2.1-5.24-5.22-5.24-3.12 0-5.22 2.12-5.22 5.24 0 3.14 2.1 5.24 5.22 5.24zm0-1.84c-1.82 0-3-1.42-3-3.4s1.18-3.4 3-3.4 3.02 1.42 3.02 3.4-1.2 3.4-3.02 3.4zm13.977-3.4c0 2.12-1 3.36-2.64 3.36-1.58 0-2.38-1.02-2.38-3.02V4.76h-2.16v5.7c0 3.5 1.86 4.66 4.04 4.66 1.58 0 2.52-.64 3.16-1.42l.24 1.3h1.9V4.76h-2.16v5.12zm9.469-5.12c-1.68 0-2.5.68-3.02 1.54l-.24-1.54h-1.92V15h2.16V9.86c0-1.58.62-3.08 2.54-3.08h.96V4.76h-.48zm16.289 8.36c-.44 0-.66-.14-.66-.66v-4.1c0-2.42-1.56-3.72-4.28-3.72-2.58 0-4.3 1.24-4.52 3.24h2.12c.16-.9 1.02-1.5 2.3-1.5 1.42 0 2.24.7 2.24 1.84v.62h-2.58c-2.86 0-4.38 1.18-4.38 3.28 0 1.9 1.56 3 3.8 3 1.66 0 2.7-.72 3.38-1.76 0 1.02.48 1.64 1.88 1.64h1.14v-1.88h-.44zm-2.8-2.32c-.02 1.58-1.06 2.64-2.86 2.64-1.18 0-1.9-.6-1.9-1.46 0-1.04.74-1.54 2.08-1.54h2.68v.36zm9.896-6.16c-1.6 0-2.66.74-3.34 1.64l-.26-1.52h-1.88V19h2.16v-5.44c.64.92 1.74 1.56 3.32 1.56 2.8 0 4.84-2.08 4.84-5.24 0-3.28-2.04-5.24-4.84-5.24zm-.36 8.66c-1.8 0-2.98-1.42-2.98-3.46 0-1.98 1.18-3.36 2.98-3.36s3 1.38 3 3.4c0 2-1.2 3.42-3 3.42zm12.411-8.66c-1.6 0-2.66.74-3.34 1.64l-.26-1.52h-1.88V19h2.16v-5.44c.64.92 1.74 1.56 3.32 1.56 2.8 0 4.84-2.08 4.84-5.24 0-3.28-2.04-5.24-4.84-5.24zm-.36 8.66c-1.8 0-2.98-1.42-2.98-3.46 0-1.98 1.18-3.36 2.98-3.36s3 1.38 3 3.4c0 2-1.2 3.42-3 3.42zm6.931 1.7h2.16V1h-2.16v14zm5.377-11.68c.74 0 1.32-.54 1.32-1.3s-.58-1.3-1.32-1.3c-.74 0-1.32.54-1.32 1.3s.58 1.3 1.32 1.3zm-1.1 11.68h2.16V4.76h-2.16V15zm8.978.12c2.62 0 4.36-1.46 4.76-3.78h-2.28c-.26 1.18-1.14 1.94-2.46 1.94-1.74 0-2.88-1.38-2.88-3.38 0-2.02 1.14-3.42 2.88-3.42 1.34 0 2.2.74 2.48 1.94h2.26c-.42-2.32-2.06-3.78-4.7-3.78-3.1 0-5.14 2.1-5.14 5.26 0 3.2 1.98 5.22 5.08 5.22zm15.773-2c-.44 0-.66-.14-.66-.66v-4.1c0-2.42-1.56-3.72-4.28-3.72-2.58 0-4.3 1.24-4.52 3.24h2.12c.16-.9 1.02-1.5 2.3-1.5 1.42 0 2.24.7 2.24 1.84v.62h-2.58c-2.86 0-4.38 1.18-4.38 3.28 0 1.9 1.56 3 3.8 3 1.66 0 2.7-.72 3.38-1.76 0 1.02.48 1.64 1.88 1.64h1.14v-1.88h-.44zm-2.8-2.32c-.02 1.58-1.06 2.64-2.86 2.64-1.18 0-1.9-.6-1.9-1.46 0-1.04.74-1.54 2.08-1.54h2.68v.36zm5.157 1.42c0 1.86.84 2.78 2.8 2.78h2v-1.9h-1.52c-.82 0-1.1-.3-1.1-1.1V6.66h2.5v-1.9H264V1.9h-2.18v2.86h-1.78v1.9h1.78v5.56zm7.274-8.9c.74 0 1.32-.54 1.32-1.3s-.58-1.3-1.32-1.3c-.74 0-1.32.54-1.32 1.3s.58 1.3 1.32 1.3zm-1.1 11.68h2.16V4.76h-2.16V15zm9.117.12c3.12 0 5.22-2.1 5.22-5.24 0-3.12-2.1-5.24-5.22-5.24-3.12 0-5.22 2.12-5.22 5.24 0 3.14 2.1 5.24 5.22 5.24zm0-1.84c-1.82 0-3-1.42-3-3.4s1.18-3.4 3-3.4 3.02 1.42 3.02 3.4-1.2 3.4-3.02 3.4zm12.357-8.64c-1.66 0-2.64.66-3.28 1.46l-.24-1.34h-1.88V15h2.16V9.84c0-2.08 1.02-3.34 2.74-3.34 1.62 0 2.44 1.04 2.44 2.98V15h2.18V9.3c0-3.42-1.86-4.66-4.12-4.66zm8.524 6.1l.34-9.74h-2.32l.34 9.74h1.64zm-2.22 3.02c0 .8.6 1.36 1.4 1.36.8 0 1.38-.56 1.38-1.36s-.58-1.36-1.38-1.36c-.8 0-1.4.56-1.4 1.36z" fill="#000"/></svg>