<svg width="162" height="9" viewBox="0 0 162 9" fill="none" xmlns="http://www.w3.org/2000/svg"><path d="M.512 6.62h.92V4.59H2.72c1.168 0 1.936-.704 1.936-1.784 0-1.088-.768-1.784-1.936-1.784H.512v5.6zm2.136-4.8c.656 0 1.072.377 1.072.985 0 .6-.424.984-1.08.984H1.432V1.82h1.216zM7.016 6.67c1.248 0 2.088-.84 2.088-2.096 0-1.248-.84-2.096-2.088-2.096-1.248 0-2.088.848-2.088 2.096 0 1.256.84 2.096 2.088 2.096zm0-.736c-.728 0-1.2-.568-1.2-1.36 0-.792.472-1.36 1.2-1.36s1.208.568 1.208 1.36c0 .792-.48 1.36-1.208 1.36zm3.586.688h.936l.896-2.784.864 2.784h.928l1.36-4.096h-.88l-.968 3.136-.896-3.136h-.792l-.936 3.136-.936-3.136h-.912l1.336 4.096zm7.243.048c1.016 0 1.704-.616 1.848-1.424h-.864c-.12.456-.504.72-1.032.72-.68 0-1.12-.456-1.144-1.152v-.056h3.088c.016-.112.024-.224.024-.328-.024-1.2-.816-1.952-2-1.952-1.208 0-2.016.84-2.016 2.104 0 1.256.808 2.088 2.096 2.088zm-1.16-2.544c.064-.584.536-.952 1.088-.952.6 0 1.024.344 1.096.952h-2.184zm5.85-1.6c-.672 0-1 .272-1.208.616l-.096-.616h-.768V6.62h.864V4.565c0-.632.248-1.232 1.016-1.232h.384v-.808h-.192zm3.956 4.12l-.16.4c-.128.336-.208.416-.544.416h-.608v.76h.928c.6 0 .776-.296 1.032-.96l1.856-4.736h-.92l-1.112 3.112-1.144-3.112h-.92l1.592 4.12zm4.69.024c1.247 0 2.087-.84 2.087-2.096 0-1.248-.84-2.096-2.088-2.096-1.248 0-2.088.848-2.088 2.096 0 1.256.84 2.096 2.088 2.096zm0-.736c-.729 0-1.2-.568-1.2-1.36 0-.792.471-1.36 1.2-1.36.727 0 1.207.568 1.207 1.36 0 .792-.48 1.36-1.208 1.36zm5.59-1.36c0 .848-.4 1.344-1.056 1.344-.632 0-.952-.408-.952-1.208V2.525H33.9v2.28c0 1.4.744 1.864 1.616 1.864.632 0 1.008-.256 1.264-.568l.096.52h.76V2.525h-.864v2.048zm3.788-2.048c-.672 0-1 .272-1.209.616l-.096-.616h-.767V6.62h.863V4.565c0-.632.248-1.232 1.017-1.232h.384v-.808h-.192zm2.507-.688h1.728V6.62h.92V1.837h1.728V1.02h-4.376v.816zm6.185 4.832c1.016 0 1.704-.616 1.848-1.424h-.864c-.12.456-.504.72-1.032.72-.68 0-1.12-.456-1.144-1.152v-.056h3.088c.016-.112.024-.224.024-.328-.024-1.2-.816-1.952-2-1.952-1.208 0-2.016.84-2.016 2.104 0 1.256.808 2.088 2.096 2.088zm-1.16-2.544c.064-.584.536-.952 1.088-.952.6 0 1.024.344 1.096.952H48.09zm3.579 1.144c.024.888.776 1.4 1.872 1.4.992 0 1.736-.496 1.736-1.28 0-.912-.76-1.104-1.696-1.216-.592-.064-.984-.112-.984-.496 0-.328.336-.536.848-.536s.864.264.912.64h.848c-.056-.84-.768-1.304-1.776-1.304-.984-.008-1.68.496-1.68 1.272 0 .848.736 1.048 1.672 1.16.632.08 1.008.112 1.008.552 0 .328-.352.536-.888.536-.624 0-.992-.304-1.024-.728h-.848zm4.277 1.352h.864v-5.6h-.864v5.6zm5.455-.752c-.176 0-.264-.056-.264-.264v-1.64c0-.968-.624-1.488-1.712-1.488-1.032 0-1.72.496-1.808 1.296h.848c.064-.36.408-.6.92-.6.568 0 .896.28.896.736v.248H59.25c-1.144 0-1.752.472-1.752 1.312 0 .76.624 1.2 1.52 1.2.664 0 1.08-.288 1.352-.704 0 .408.192.656.752.656h.456v-.752h-.176zm-1.12-.928c-.008.632-.424 1.056-1.144 1.056-.472 0-.76-.24-.76-.584 0-.416.296-.616.832-.616h1.072v.144zm4.11.568c0 .744.336 1.112 1.12 1.112h.8v-.76h-.608c-.328 0-.44-.12-.44-.44V3.285h1v-.76h-1V1.38h-.872v1.144h-.712v.76h.712v2.224zm4.541-2.984c-.672 0-1 .272-1.208.616l-.096-.616h-.767V6.62h.864V4.565c0-.632.248-1.232 1.016-1.232h.383v-.808h-.192zm4.344 3.344c-.176 0-.264-.056-.264-.264v-1.64c0-.968-.624-1.488-1.712-1.488-1.032 0-1.72.496-1.808 1.296h.848c.064-.36.408-.6.92-.6.568 0 .896.28.896.736v.248h-1.032c-1.144 0-1.752.472-1.752 1.312 0 .76.624 1.2 1.52 1.2.664 0 1.08-.288 1.352-.704 0 .408.192.656.752.656h.456v-.752h-.176zm-1.12-.928c-.008.632-.424 1.056-1.144 1.056-.472 0-.76-.24-.76-.584 0-.416.296-.616.832-.616h1.072v.144zm4.848-1.848c-.264-.36-.704-.616-1.328-.616-1.112 0-1.936.832-1.936 2.096 0 1.312.824 2.096 1.936 2.096.648 0 1.072-.304 1.336-.664l.104.616h.752v-5.6h-.864v2.072zM75.82 5.94c-.72 0-1.192-.56-1.192-1.368 0-.8.472-1.36 1.192-1.36s1.192.56 1.192 1.376c0 .792-.472 1.352-1.192 1.352zm3.332-3.992a.511.511 0 00.528-.52.511.511 0 00-.528-.52.511.511 0 00-.528.52c0 .304.232.52.528.52zm-.44 4.672h.864V2.525h-.864V6.62zm3.871-4.144c-.664 0-1.056.264-1.312.584l-.096-.536h-.752V6.62h.864V4.557c0-.832.408-1.336 1.096-1.336.648 0 .976.416.976 1.192V6.62h.872V4.34c0-1.368-.744-1.864-1.648-1.864zm5.562.688c-.264-.408-.704-.688-1.344-.688-1.112 0-1.936.824-1.936 2.08 0 1.304.824 2.08 1.936 2.08.64 0 1.064-.264 1.336-.672v.456c0 .784-.424 1.144-1.176 1.144-.608 0-1.008-.264-1.112-.72h-.88c.08.92.84 1.424 1.928 1.424 1.472 0 2.096-.704 2.096-1.816V2.525h-.752l-.096.64zm-1.2 2.744c-.72 0-1.192-.552-1.192-1.352 0-.792.472-1.352 1.192-1.352s1.192.56 1.192 1.368c0 .784-.472 1.336-1.192 1.336zm5.883.712h.936l.896-2.784.864 2.784h.928l1.36-4.096h-.88l-.968 3.136-.896-3.136h-.792L93.34 5.66l-.936-3.136h-.912l1.336 4.096zm5.879-4.672a.511.511 0 00.528-.52.511.511 0 00-.528-.52.511.511 0 00-.528.52c0 .304.232.52.528.52zm-.44 4.672h.864V2.525h-.864V6.62zm2.007-1.112c0 .744.336 1.112 1.12 1.112h.8v-.76h-.608c-.328 0-.44-.12-.44-.44V3.285h1v-.76h-1V1.38h-.872v1.144h-.712v.76h.712v2.224zm4.621-3.032c-.64 0-1.032.288-1.288.64V1.02h-.864v5.6h.864V4.549c0-.824.416-1.328 1.096-1.328.64 0 .984.416.984 1.192V6.62h.864V4.34c0-1.368-.744-1.864-1.656-1.864zm6.433 4.192c1.016 0 1.704-.616 1.848-1.424h-.864c-.12.456-.504.72-1.032.72-.68 0-1.12-.456-1.144-1.152v-.056h3.088c.016-.112.024-.224.024-.328-.024-1.2-.816-1.952-2-1.952-1.208 0-2.016.84-2.016 2.104 0 1.256.808 2.088 2.096 2.088zm-1.16-2.544c.064-.584.536-.952 1.088-.952.6 0 1.024.344 1.096.952h-2.184zm3.167 2.496h.952l1.08-1.488 1.072 1.488h1.008l-1.544-2.096 1.456-2h-.952l-1 1.384-.976-1.384h-1.008l1.448 2-1.536 2.096zm6.226.048c1.048 0 1.744-.584 1.904-1.512h-.912c-.104.472-.456.776-.984.776-.696 0-1.152-.552-1.152-1.352 0-.808.456-1.368 1.152-1.368.536 0 .88.296.992.776h.904c-.168-.928-.824-1.512-1.88-1.512-1.24 0-2.056.84-2.056 2.104 0 1.28.792 2.088 2.032 2.088zm2.565-.048h.864v-5.6h-.864v5.6zm4.519-2.048c0 .848-.4 1.344-1.056 1.344-.632 0-.952-.408-.952-1.208V2.525h-.864v2.28c0 1.4.744 1.864 1.616 1.864.632 0 1.008-.256 1.264-.568l.096.52h.76V2.525h-.864v2.048zm1.54.696c.024.888.776 1.4 1.872 1.4.992 0 1.736-.496 1.736-1.28 0-.912-.76-1.104-1.696-1.216-.592-.064-.985-.112-.985-.496 0-.328.337-.536.849-.536s.864.264.912.64h.848c-.056-.84-.768-1.304-1.776-1.304-.984-.008-1.68.496-1.68 1.272 0 .848.736 1.048 1.672 1.16.632.08 1.008.112 1.008.552 0 .328-.352.536-.888.536-.624 0-.992-.304-1.024-.728h-.848zm4.717-3.32a.511.511 0 00.528-.52.511.511 0 00-.528-.52.511.511 0 00-.528.52c0 .304.232.52.528.52zm-.44 4.672h.864V2.525h-.864V6.62zm2.815 0h1.056l1.512-4.096h-.912l-1.112 3.168-1.128-3.168h-.928l1.512 4.096zm4.762.048c1.016 0 1.704-.616 1.848-1.424h-.864c-.12.456-.504.72-1.032.72-.68 0-1.12-.456-1.144-1.152v-.056h3.088c.016-.112.024-.224.024-.328-.024-1.2-.816-1.952-2-1.952-1.208 0-2.016.84-2.016 2.104 0 1.256.808 2.088 2.096 2.088zm-1.16-2.544c.064-.584.536-.952 1.088-.952.6 0 1.024.344 1.096.952h-2.184zm6.121 1.384c0 .744.336 1.112 1.12 1.112h.8v-.76h-.608c-.328 0-.44-.12-.44-.44V3.285h1v-.76h-1V1.38h-.872v1.144h-.712v.76h.712v2.224zm4.32 1.16c1.248 0 2.088-.84 2.088-2.096 0-1.248-.84-2.096-2.088-2.096-1.248 0-2.088.848-2.088 2.096 0 1.256.84 2.096 2.088 2.096zm0-.736c-.728 0-1.2-.568-1.2-1.36 0-.792.472-1.36 1.2-1.36s1.208.568 1.208 1.36c0 .792-.48 1.36-1.208 1.36zm4.719.736c1.248 0 2.088-.84 2.088-2.096 0-1.248-.84-2.096-2.088-2.096-1.248 0-2.088.848-2.088 2.096 0 1.256.84 2.096 2.088 2.096zm0-.736c-.728 0-1.2-.568-1.2-1.36 0-.792.472-1.36 1.2-1.36s1.208.568 1.208 1.36c0 .792-.48 1.36-1.208 1.36zm2.782.688h.864v-5.6h-.864v5.6zm1.535-1.352c.024.888.776 1.4 1.872 1.4.992 0 1.736-.496 1.736-1.28 0-.912-.76-1.104-1.696-1.216-.592-.064-.984-.112-.984-.496 0-.328.336-.536.848-.536s.864.264.912.64h.848c-.056-.84-.768-1.304-1.776-1.304-.984-.008-1.68.496-1.68 1.272 0 .848.736 1.048 1.672 1.16.632.08 1.008.112 1.008.552 0 .328-.352.536-.888.536-.624 0-.992-.304-1.024-.728h-.848z" fill="#000"/></svg>