<svg width="101" height="11" viewBox="0 0 101 11" fill="none" xmlns="http://www.w3.org/2000/svg"><rect x="1" y="1" width="99" height="9" rx="4.5" fill="#fff"/><circle cx="9.229" cy="5.5" r="2.42" fill="#D10000"/><path d="M15.737 7.5v-.83h-1.363V3.772h-.98V7.5h2.343zm.397 0h.98V3.773h-.98V7.5zm2.476 0h1.16l1.225-3.727h-1.017l-.793 2.534-.767-2.534H17.38L18.61 7.5zm2.651 0h2.63v-.83h-1.65v-.65h1.273v-.778H22.24v-.639h1.592v-.83h-2.572V7.5zm4.29-3.301h1.21V7.5h.463V4.199h1.209v-.426h-2.881v.426zm4.618.554c-.458 0-.735.223-.895.479v-1.46h-.437V7.5h.437V6.142c0-.612.314-.99.82-.99.469 0 .74.298.74.862V7.5h.437V5.988c0-.9-.495-1.235-1.102-1.235zm3.56 1.39c0 .612-.299.99-.794.99-.453 0-.708-.299-.708-.863V4.784h-.437v1.513c0 .9.474 1.235 1.07 1.235.447 0 .708-.192.868-.394l.059.362h.378V4.784h-.437v1.358zm2.288-1.359c-.485 0-.693.203-.82.41l-.059-.41h-.378V7.5h.437V6.116c0-.432.154-.906.724-.906h.218v-.426h-.123zm.331 1.821c.011.597.496.927 1.199.927.601 0 1.086-.314 1.086-.82 0-.602-.495-.719-1.113-.793-.394-.048-.682-.086-.682-.384 0-.25.256-.41.634-.41.373 0 .628.208.66.485h.447c-.042-.565-.49-.852-1.107-.857-.612-.006-1.065.319-1.065.814 0 .565.485.687 1.092.762.404.048.702.074.702.415 0 .25-.271.415-.654.415-.453 0-.735-.234-.751-.554h-.447zm4.91-1.405c-.165-.261-.474-.447-.932-.447-.75 0-1.304.559-1.304 1.39 0 .883.553 1.389 1.304 1.389.458 0 .75-.218.932-.469l.058.437h.378V3.773h-.436V5.2zm-.89 1.943c-.537 0-.9-.41-.9-1 0-.592.363-1.002.9-1.002.533 0 .895.416.895 1.012 0 .58-.362.99-.894.99zm4.323-.042c-.123 0-.176-.038-.176-.181V5.732c0-.633-.4-.98-1.092-.98-.655 0-1.086.315-1.15.847h.437c.053-.277.309-.458.692-.458.426 0 .676.213.676.565v.186h-.798c-.714 0-1.092.303-1.092.847 0 .495.405.793 1.001.793.469 0 .74-.208.91-.453.006.267.128.421.49.421h.24v-.4h-.138zm-.613-.708c0 .452-.314.766-.857.766-.362 0-.591-.18-.591-.447 0-.309.218-.453.607-.453h.841v.133zm1.776 1.123l-.133.33c-.101.256-.144.32-.394.32h-.389v.399h.522c.383 0 .484-.17.655-.607l1.251-3.174h-.463l-.81 2.168-.836-2.168h-.463l1.06 2.732zm3.47-.016l.395-1.006h1.624l.394 1.006h.495l-1.416-3.727h-.549L48.846 7.5h.479zm1.204-3.221l.676 1.794h-1.347l.671-1.794zm3.43.474c-.458 0-.75.218-.931.468l-.06-.437h-.377v3.78h.436v-1.48c.166.262.474.448.932.448.751 0 1.305-.56 1.305-1.39 0-.884-.554-1.39-1.305-1.39zm-.042 2.39c-.533 0-.895-.415-.895-1.011 0-.58.362-.99.895-.99.538 0 .9.41.9 1 0 .591-.363 1.001-.9 1.001zm3.102-2.359c-.484 0-.692.203-.82.41l-.058-.41h-.378V7.5h.436V6.116c0-.432.155-.906.724-.906h.219v-.426h-.123zm.725-.457c.16 0 .282-.118.282-.283a.274.274 0 00-.282-.282.274.274 0 00-.282.282c0 .165.122.283.282.283zM57.519 7.5h.437V4.784h-.437V7.5zm1.035 0h.437V3.773h-.437V7.5zm2.247 0h2.567v-.41h-1.95l1.119-.948c.442-.378.804-.73.804-1.288 0-.671-.468-1.113-1.273-1.113-.75 0-1.245.5-1.245 1.203v.096h.447v-.07c0-.51.32-.83.798-.83.496 0 .815.266.815.735 0 .405-.287.692-.634.99l-1.448 1.257V7.5zm2.754-3.317h2.14L63.87 7.5h.485l1.832-3.413v-.314h-2.63v.41zm6.131 1.986V5.8h-1.773v.368h1.773zm3.792-.607c.357-.096.602-.368.602-.836 0-.586-.484-.985-1.251-.985-.735 0-1.246.452-1.251 1.107h.441c.006-.426.347-.708.815-.708.447 0 .788.235.788.613s-.277.654-.83.654h-.293v.39h.32c.58 0 .9.25.9.638 0 .426-.374.698-.858.698-.527 0-.91-.293-.916-.783h-.442c0 .74.522 1.182 1.331 1.182.81 0 1.342-.431 1.342-1.065 0-.57-.357-.841-.698-.905zM77.09 7.1c-.122 0-.175-.038-.175-.181V5.732c0-.633-.4-.98-1.092-.98-.655 0-1.086.315-1.15.847h.436c.054-.277.31-.458.693-.458.426 0 .676.213.676.565v.186h-.799c-.713 0-1.091.303-1.091.847 0 .495.404.793 1 .793.47 0 .74-.208.911-.453.005.267.128.421.49.421h.24v-.4h-.139zm-.612-.708c0 .452-.314.766-.857.766-.362 0-.591-.18-.591-.447 0-.309.218-.453.607-.453h.84v.133zm4.116-1.64c-.485 0-.777.223-.942.516-.155-.346-.48-.516-.858-.516a.92.92 0 00-.793.404l-.059-.373h-.378V7.5h.437V6.068c0-.543.271-.916.719-.916.415 0 .655.277.655.81V7.5h.436V6.046c0-.553.277-.894.73-.894.41 0 .644.277.644.81V7.5h.437V5.935c0-.858-.464-1.182-1.028-1.182zM83.49 6.28c.027.734.56 1.251 1.47 1.251.782 0 1.325-.453 1.325-1.097 0-.724-.623-.926-1.23-1.028-.559-.095-1.011-.186-1.011-.633 0-.4.325-.612.81-.612.505 0 .851.282.904.713h.48c-.043-.67-.554-1.134-1.385-1.134-.756 0-1.272.426-1.272 1.06 0 .724.617.92 1.219 1.022.564.096 1.022.191 1.022.655 0 .404-.357.633-.857.633-.57 0-.959-.33-.996-.83h-.479zm4.997 1.251c.639 0 1.038-.304 1.208-.575l.032.543h.4V5.482h-1.571v.426h1.118v.128c0 .66-.495 1.07-1.182 1.07-.772 0-1.283-.607-1.283-1.47 0-.862.51-1.47 1.294-1.47.564 0 .963.304 1.091.82h.495c-.127-.766-.75-1.245-1.576-1.245-1.08 0-1.778.767-1.778 1.895 0 1.13.719 1.896 1.752 1.896zm1.786-3.333h1.209V7.5h.463V4.199h1.209v-.426h-2.88v.426z" fill="#000"/><rect x="1" y="1" width="99" height="9" rx="4.5" stroke="#000" stroke-width=".484" stroke-miterlimit="0" stroke-linejoin="bevel"/></svg>