<svg width="119" height="69" viewBox="0 0 119 69" fill="none" xmlns="http://www.w3.org/2000/svg"><path d="M4.62 16h2.97l3.102-11.33L13.838 16h2.948L21.208.6h-2.596l-3.3 12.188L11.968.6H9.57L6.138 12.788 2.86.578.242.6 4.62 16zM23.796 3.152c.814 0 1.452-.594 1.452-1.43S24.61.292 23.796.292s-1.452.594-1.452 1.43.638 1.43 1.452 1.43zM22.586 16h2.376V4.736h-2.376V16zm4.705 0h2.376V.6h-2.376V16zm4.705 0h2.376V.6h-2.376V16zm17.264.132c3.586 0 6.204-2.112 6.688-5.368H53.33c-.484 1.958-1.958 3.146-4.092 3.146-2.904 0-4.664-2.332-4.664-5.61 0-3.3 1.804-5.61 4.73-5.61 2.09 0 3.542 1.21 4.048 3.146h2.618C55.464 2.58 52.934.468 49.414.468c-4.554 0-7.436 3.146-7.436 7.832 0 4.73 2.794 7.832 7.282 7.832zM63.717 4.604c-1.76 0-2.838.792-3.542 1.76V.6h-2.376V16h2.376v-5.698c0-2.266 1.144-3.652 3.014-3.652 1.76 0 2.706 1.144 2.706 3.278V16h2.376V9.73c0-3.762-2.046-5.126-4.554-5.126zm7.925-1.452c.814 0 1.452-.594 1.452-1.43s-.638-1.43-1.452-1.43-1.452.594-1.452 1.43.638 1.43 1.452 1.43zM70.432 16h2.376V4.736h-2.376V16zM81.077 4.604c-1.826 0-2.904.726-3.608 1.606l-.264-1.474h-2.068V16h2.376v-5.676c0-2.288 1.122-3.674 3.014-3.674 1.782 0 2.684 1.144 2.684 3.278V16h2.398V9.73c0-3.762-2.046-5.126-4.532-5.126zm16.989 9.328c-.484 0-.727-.154-.727-.726v-4.51c0-2.662-1.715-4.092-4.707-4.092-2.839 0-4.73 1.364-4.973 3.564h2.332c.177-.99 1.123-1.65 2.53-1.65 1.563 0 2.465.77 2.465 2.024v.682h-2.839c-3.146 0-4.818 1.298-4.818 3.608 0 2.09 1.717 3.3 4.18 3.3 1.826 0 2.97-.792 3.719-1.936 0 1.122.528 1.804 2.068 1.804h1.253v-2.068h-.484zm-3.08-2.552c-.023 1.738-1.166 2.904-3.147 2.904-1.297 0-2.09-.66-2.09-1.606 0-1.144.815-1.694 2.288-1.694h2.948v.396zM100.407.468c-1.012 0-1.672.66-1.672 1.496 0 .924.572 1.408 1.298 1.408a1.2 1.2 0 00.726-.242c.022.11.022.198.022.308 0 .77-.55 1.628-1.936 1.628v1.298c2.178-.022 3.542-1.232 3.542-3.366 0-1.43-.77-2.53-1.98-2.53zm2.97 11.814c.066 2.442 2.134 3.85 5.148 3.85 2.728 0 4.774-1.364 4.774-3.52 0-2.508-2.09-3.036-4.664-3.344-1.628-.176-2.706-.308-2.706-1.364 0-.902.924-1.474 2.332-1.474s2.376.726 2.508 1.76h2.332c-.154-2.31-2.112-3.586-4.884-3.586-2.706-.022-4.62 1.364-4.62 3.498 0 2.332 2.024 2.882 4.598 3.19 1.738.22 2.772.308 2.772 1.518 0 .902-.968 1.474-2.442 1.474-1.716 0-2.728-.836-2.816-2.002h-2.332zM6.864 28.736c-1.848 0-2.75.748-3.322 1.694l-.264-1.694H1.166V40h2.376v-5.654c0-1.738.682-3.388 2.794-3.388h1.056v-2.222h-.528zm6.802 11.396c2.794 0 4.686-1.694 5.082-3.916h-2.376c-.33 1.254-1.386 1.98-2.838 1.98-1.87 0-3.08-1.254-3.146-3.168v-.154h8.492c.044-.308.066-.616.066-.902-.066-3.3-2.244-5.368-5.5-5.368-3.322 0-5.544 2.31-5.544 5.786 0 3.454 2.222 5.742 5.764 5.742zm-3.19-6.996c.176-1.606 1.474-2.618 2.992-2.618 1.65 0 2.816.946 3.014 2.618h-6.006zm15.715 6.996c3.432 0 5.742-2.31 5.742-5.764 0-3.432-2.31-5.764-5.742-5.764s-5.742 2.332-5.742 5.764c0 3.454 2.31 5.764 5.742 5.764zm0-2.024c-2.002 0-3.3-1.562-3.3-3.74s1.298-3.74 3.3-3.74 3.322 1.562 3.322 3.74-1.32 3.74-3.322 3.74zm13.68-9.504c-1.76 0-2.925.814-3.673 1.804l-.286-1.672h-2.068V44.4h2.376v-5.984c.704 1.012 1.914 1.716 3.652 1.716 3.08 0 5.324-2.288 5.324-5.764 0-3.608-2.244-5.764-5.324-5.764zm-.395 9.526c-1.98 0-3.278-1.562-3.278-3.806 0-2.178 1.298-3.696 3.278-3.696s3.3 1.518 3.3 3.74c0 2.2-1.32 3.762-3.3 3.762zm12.97 2.002c2.794 0 4.686-1.694 5.082-3.916h-2.376c-.33 1.254-1.386 1.98-2.838 1.98-1.87 0-3.08-1.254-3.146-3.168v-.154h8.492c.044-.308.066-.616.066-.902-.066-3.3-2.244-5.368-5.5-5.368-3.322 0-5.544 2.31-5.544 5.786 0 3.454 2.222 5.742 5.764 5.742zm-3.19-6.996c.176-1.606 1.474-2.618 2.992-2.618 1.65 0 2.816.946 3.014 2.618h-6.006zm16.33-4.532c-1.825 0-2.904.726-3.608 1.606l-.264-1.474h-2.067V40h2.376v-5.676c0-2.288 1.121-3.674 3.014-3.674 1.781 0 2.683 1.144 2.683 3.278V40h2.398v-6.27c0-3.762-2.045-5.126-4.531-5.126zm7.903-1.452c.814 0 1.452-.594 1.452-1.43s-.638-1.43-1.452-1.43-1.452.594-1.452 1.43.638 1.43 1.452 1.43zM72.28 40h2.376V28.736H72.28V40zm10.645-11.396c-1.826 0-2.904.726-3.608 1.606l-.264-1.474h-2.068V40h2.376v-5.676c0-2.288 1.122-3.674 3.014-3.674 1.782 0 2.684 1.144 2.684 3.278V40h2.398v-6.27c0-3.762-2.046-5.126-4.532-5.126zm15.295 1.892c-.726-1.122-1.936-1.892-3.696-1.892-3.058 0-5.324 2.266-5.324 5.72 0 3.586 2.266 5.72 5.324 5.72 1.76 0 2.926-.726 3.674-1.848v1.254c0 2.156-1.166 3.146-3.234 3.146-1.672 0-2.772-.726-3.058-1.98h-2.42c.22 2.53 2.31 3.916 5.302 3.916 4.048 0 5.764-1.936 5.764-4.994V28.736h-2.068l-.264 1.76zm-3.3 7.546c-1.98 0-3.278-1.518-3.278-3.718 0-2.178 1.298-3.718 3.278-3.718s3.278 1.54 3.278 3.762c0 2.156-1.298 3.674-3.278 3.674zM.682 60.282c.066 2.442 2.134 3.85 5.148 3.85 2.728 0 4.774-1.364 4.774-3.52 0-2.508-2.09-3.036-4.664-3.344-1.628-.176-2.706-.308-2.706-1.364 0-.902.924-1.474 2.332-1.474s2.376.726 2.508 1.76h2.332c-.154-2.31-2.112-3.586-4.884-3.586-2.706-.022-4.62 1.364-4.62 3.498 0 2.332 2.024 2.882 4.598 3.19 1.738.22 2.772.308 2.772 1.518 0 .902-.968 1.474-2.442 1.474-1.716 0-2.728-.836-2.816-2.002H.682zm17.791-7.678c-1.76 0-2.926.814-3.674 1.804l-.286-1.672h-2.068V68.4h2.376v-5.984c.704 1.012 1.914 1.716 3.652 1.716 3.08 0 5.324-2.288 5.324-5.764 0-3.608-2.244-5.764-5.324-5.764zm-.396 9.526c-1.98 0-3.278-1.562-3.278-3.806 0-2.178 1.298-3.696 3.278-3.696s3.3 1.518 3.3 3.74c0 2.2-1.32 3.762-3.3 3.762zm15.346-3.762c0 2.332-1.1 3.696-2.904 3.696-1.738 0-2.618-1.122-2.618-3.322v-6.006h-2.376v6.27c0 3.85 2.046 5.126 4.444 5.126 1.738 0 2.772-.704 3.476-1.562L33.71 64h2.09V52.736h-2.376v5.632zm10.416-5.632c-1.848 0-2.75.748-3.322 1.694l-.264-1.694H38.14V64h2.376v-5.654c0-1.738.682-3.388 2.794-3.388h1.056v-2.222h-.528zM53.089 64l1.43-3.806h6.314L62.285 64h2.706l-5.742-15.4h-3.014L50.47 64h2.618zm4.576-12.672l2.464 6.71h-4.906l2.442-6.71zm14.691 1.276c-1.76 0-2.926.814-3.674 1.804l-.286-1.672h-2.068V68.4h2.376v-5.984c.704 1.012 1.914 1.716 3.652 1.716 3.08 0 5.324-2.288 5.324-5.764 0-3.608-2.244-5.764-5.324-5.764zm-.396 9.526c-1.98 0-3.278-1.562-3.278-3.806 0-2.178 1.298-3.696 3.278-3.696s3.3 1.518 3.3 3.74c0 2.2-1.32 3.762-3.3 3.762zm13.652-9.526c-1.76 0-2.926.814-3.674 1.804l-.286-1.672h-2.068V68.4h2.376v-5.984c.704 1.012 1.914 1.716 3.652 1.716 3.08 0 5.324-2.288 5.324-5.764 0-3.608-2.244-5.764-5.324-5.764zm-.396 9.526c-1.98 0-3.278-1.562-3.278-3.806 0-2.178 1.298-3.696 3.278-3.696s3.3 1.518 3.3 3.74c0 2.2-1.32 3.762-3.3 3.762zM92.84 64h2.376V48.6H92.84V64zm10.051.132c2.794 0 4.686-1.694 5.082-3.916h-2.376c-.33 1.254-1.386 1.98-2.838 1.98-1.87 0-3.08-1.254-3.146-3.168v-.154h8.492c.044-.308.066-.616.066-.902-.066-3.3-2.244-5.368-5.5-5.368-3.322 0-5.544 2.31-5.544 5.786 0 3.454 2.222 5.742 5.764 5.742zm-3.19-6.996c.176-1.606 1.474-2.618 2.992-2.618 1.65 0 2.816.946 3.014 2.618h-6.006zm11.574-3.498c0-1.826 1.1-3.058 2.794-3.058 1.474 0 2.464.88 2.464 2.134 0 1.056-.572 1.76-1.562 2.42-1.32.858-2.354 1.584-2.354 3.366v.704h2.244v-.44c0-1.1.748-1.672 1.936-2.486 1.144-.814 2.2-1.782 2.2-3.806 0-2.31-1.892-4.004-4.95-4.004-3.278 0-5.192 2.31-5.192 5.17h2.42zm1.012 9.02c0 .88.66 1.474 1.518 1.474s1.496-.594 1.496-1.474-.638-1.474-1.496-1.474-1.518.594-1.518 1.474z" fill="#000"/></svg>