<svg width="133" height="15" viewBox="0 0 133 15" fill="none" xmlns="http://www.w3.org/2000/svg"><rect x="1" y="1.163" width="131" height="13" rx="6.5" fill="#fff"/><circle cx="11.462" cy="7.663" r="3.077" fill="#4FC706"/><path d="M16.758 9.663h1.245V8.201h.67l.698 1.462h1.367l-.86-1.767c.427-.277.705-.751.705-1.333 0-.995-.738-1.638-1.828-1.638h-1.997v4.738zm1.895-3.723c.407 0 .657.237.657.623s-.25.623-.657.623h-.65V5.94h.65zm2.528 3.723h3.344V8.607h-2.099v-.826h1.618v-.988h-1.618v-.812h2.024V4.925h-3.27v4.738zm3.92 0h1.246V8.201h.744c1.077 0 1.794-.643 1.794-1.638 0-.995-.717-1.638-1.794-1.638h-1.99v4.738zm1.875-3.723c.393 0 .643.237.643.623s-.25.623-.643.623h-.63V5.94h.63zm7.032 1.354c0-1.374-.968-2.41-2.397-2.41-1.428 0-2.396 1.036-2.396 2.41s.968 2.41 2.396 2.41c1.429 0 2.397-1.036 2.397-2.41zm-3.52 0c0-.792.433-1.381 1.123-1.381.691 0 1.124.589 1.124 1.38 0 .793-.433 1.382-1.123 1.382-.691 0-1.124-.589-1.124-1.381zm4.067 2.37H35.8V8.2h.67l.698 1.462h1.367l-.86-1.767c.427-.277.705-.751.705-1.333 0-.995-.738-1.638-1.828-1.638h-1.997v4.738zM36.45 5.94c.406 0 .657.237.657.623s-.25.623-.657.623h-.65V5.94h.65zm2.119.04h1.28v3.683h1.245V5.981h1.28V4.925h-3.805V5.98zM42.47 8.1c0 .981.792 1.604 2.018 1.604 1.17 0 1.929-.63 1.936-1.55.007-.975-.67-1.212-1.503-1.375-.826-.162-1.09-.223-1.09-.507 0-.291.257-.427.596-.427.42 0 .65.237.677.555h1.211c0-.934-.737-1.516-1.888-1.516-1.13 0-1.849.623-1.849 1.483 0 .988.657 1.238 1.476 1.408.833.169 1.117.23 1.117.52 0 .305-.284.454-.663.454-.508 0-.799-.264-.826-.622L42.47 8.1zm6.34 1.563h.589V7.592h1.95V7.05h-1.95V5.466h2.356v-.541H48.81v4.738zm4.888-3.452c-.616 0-.88.257-1.042.521l-.075-.521h-.48v3.452h.555v-1.76c0-.548.196-1.15.92-1.15h.278V6.21h-.156zm.921-.582a.349.349 0 00.36-.36.349.349 0 00-.36-.358.349.349 0 00-.358.359c0 .21.155.359.358.359zm-.284 4.034h.555V6.211h-.555v3.452zm4.037-2.924c-.21-.332-.603-.569-1.185-.569-.954 0-1.658.711-1.658 1.767 0 1.124.704 1.767 1.658 1.767.582 0 .955-.278 1.185-.596l.074.555h.481V4.925h-.555v1.814zm-1.13 2.47c-.684 0-1.145-.52-1.145-1.272 0-.751.46-1.273 1.144-1.273.677 0 1.138.528 1.138 1.287 0 .737-.46 1.259-1.138 1.259zm5.494-.053c-.155 0-.223-.048-.223-.23v-1.51c0-.806-.508-1.246-1.388-1.246-.833 0-1.38.4-1.462 1.077h.555c.068-.352.393-.583.88-.583.542 0 .86.271.86.718v.237h-1.016c-.907 0-1.387.386-1.387 1.076 0 .63.514 1.009 1.272 1.009.596 0 .941-.264 1.158-.575.007.338.162.534.623.534h.304v-.507h-.176zm-.778-.9c0 .575-.4.974-1.09.974-.46 0-.752-.23-.752-.569 0-.392.278-.575.772-.575h1.07v.17zm2.257 1.428l-.169.42c-.129.324-.183.405-.5.405h-.495v.508h.663c.488 0 .617-.216.833-.771l1.591-4.035h-.589L64.52 8.966l-1.063-2.755h-.589l1.347 3.473zm4.19-.02h.576V5.925l1.57 3.737h.521l1.57-3.737v3.737h.576V4.925h-.73l-1.66 3.933-1.678-3.933h-.745v4.738zm8.704-.508c-.156 0-.224-.048-.224-.23v-1.51c0-.806-.508-1.246-1.388-1.246-.832 0-1.38.4-1.462 1.077h.555c.068-.352.393-.583.88-.583.542 0 .86.271.86.718v.237h-1.015c-.907 0-1.388.386-1.388 1.076 0 .63.514 1.009 1.273 1.009.595 0 .94-.264 1.157-.575.007.338.163.534.623.534h.305v-.507h-.176zm-.779-.9c0 .575-.4.974-1.09.974-.46 0-.751-.23-.751-.569 0-.392.277-.575.771-.575h1.07v.17zm2.258 1.428l-.17.42c-.128.324-.182.405-.5.405h-.495v.508h.664c.487 0 .616-.216.832-.771L80.51 6.21h-.589l-1.029 2.755-1.063-2.755h-.588l1.347 3.473zm5.794-3.196c-.44 0-.847.109-1.138.454l.109-1.496h2.315v-.521h-2.837l-.155 2.694.548.013c.203-.561.785-.643 1.076-.643.657 0 1.07.454 1.07 1.097 0 .731-.521 1.103-1.076 1.103-.684 0-1.097-.453-1.151-1.001h-.562c.047.825.657 1.51 1.713 1.51.887 0 1.658-.57 1.658-1.619 0-.94-.643-1.59-1.57-1.59zm6.16 1.483v-.467h-2.254v.467h2.255zm2.21.535h2.484v1.157h.568V8.506h.765v-.522h-.765v-3.06h-.636l-2.417 3.074v.508zm2.484-2.884v2.362h-1.848l1.848-2.362zm4.833 3.534c-.156 0-.224-.048-.224-.23v-1.51c0-.806-.507-1.246-1.388-1.246-.832 0-1.38.4-1.462 1.077h.555c.068-.352.393-.583.88-.583.542 0 .86.271.86.718v.237h-1.015c-.907 0-1.388.386-1.388 1.076 0 .63.514 1.009 1.273 1.009.595 0 .94-.264 1.157-.575.007.338.163.534.623.534h.305v-.507h-.176zm-.779-.9c0 .575-.4.974-1.09.974-.46 0-.751-.23-.751-.569 0-.392.277-.575.772-.575h1.07v.17zm5.233-2.086c-.616 0-.988.285-1.198.657-.196-.44-.609-.657-1.09-.657-.535 0-.826.264-1.008.515l-.075-.474h-.481v3.452h.556v-1.82c0-.691.345-1.165.913-1.165.528 0 .833.352.833 1.029v1.956h.555V7.815c0-.704.352-1.137.928-1.137.521 0 .819.352.819 1.029v1.956h.555v-1.99c0-1.09-.589-1.503-1.307-1.503zm4.095 3.493l.501-1.28h2.065l.501 1.28h.63l-1.801-4.738h-.697l-1.808 4.738h.609zm1.53-4.095l.86 2.281h-1.713l.853-2.281zm2.703 4.095h3.107v-.541h-2.518V7.524h2.024v-.541h-2.024V5.466h2.43v-.541h-3.019v4.738zm3.578-1.55c.034.934.711 1.591 1.869 1.591.995 0 1.686-.575 1.686-1.395 0-.92-.793-1.178-1.564-1.306-.711-.122-1.286-.237-1.286-.806 0-.507.412-.778 1.029-.778.643 0 1.083.359 1.15.907h.61c-.055-.853-.704-1.442-1.76-1.442-.962 0-1.618.542-1.618 1.347 0 .92.785 1.171 1.55 1.3.717.122 1.3.244 1.3.833 0 .514-.454.805-1.09.805-.725 0-1.219-.42-1.266-1.056h-.61zm3.772-2.647h1.537v4.197h.589V5.466h1.537v-.541h-3.663v.541z" fill="#000"/><rect x="1" y="1.163" width="131" height="13" rx="6.5" stroke="#000" stroke-width=".615" stroke-miterlimit="0" stroke-linejoin="bevel"/></svg>