<svg width="95" height="30" viewBox="0 0 95 30" fill="none" xmlns="http://www.w3.org/2000/svg"><path d="M3.724 6.374V10h1.61V6.374L8.988.2H7.182L4.536 4.68 1.96.2H.07l3.654 6.174zm8.226 3.71c2.184 0 3.654-1.47 3.654-3.668 0-2.184-1.47-3.668-3.654-3.668S8.296 4.232 8.296 6.416c0 2.198 1.47 3.668 3.654 3.668zm0-1.288c-1.274 0-2.1-.994-2.1-2.38s.826-2.38 2.1-2.38 2.114.994 2.114 2.38-.84 2.38-2.114 2.38zm9.784-2.38c0 1.484-.7 2.352-1.848 2.352-1.106 0-1.666-.714-1.666-2.114V2.832h-1.512v3.99c0 2.45 1.302 3.262 2.828 3.262 1.106 0 1.764-.448 2.212-.994l.168.91h1.33V2.832h-1.512v3.584zM34.87 8.684c-.308 0-.462-.098-.462-.462v-2.87c0-1.694-1.092-2.604-2.996-2.604-1.806 0-3.01.868-3.164 2.268h1.484c.112-.63.714-1.05 1.61-1.05.994 0 1.568.49 1.568 1.288v.434h-1.806c-2.002 0-3.066.826-3.066 2.296 0 1.33 1.092 2.1 2.66 2.1 1.162 0 1.89-.504 2.366-1.232 0 .714.336 1.148 1.316 1.148h.798V8.684h-.308zM32.91 7.06c-.014 1.106-.742 1.848-2.002 1.848-.826 0-1.33-.42-1.33-1.022 0-.728.518-1.078 1.456-1.078h1.876v.252zm6.718-4.228c-1.176 0-1.75.476-2.114 1.078l-.168-1.078h-1.344V10h1.512V6.402c0-1.106.434-2.156 1.778-2.156h.672V2.832h-.336zm4.328 7.252c1.778 0 2.982-1.078 3.234-2.492H45.68c-.21.798-.883 1.26-1.806 1.26-1.19 0-1.96-.798-2.002-2.016v-.098h5.404c.028-.196.041-.392.041-.574-.041-2.1-1.428-3.416-3.5-3.416-2.114 0-3.528 1.47-3.528 3.682 0 2.198 1.415 3.654 3.669 3.654zm-2.03-4.452c.112-1.022.938-1.666 1.904-1.666 1.05 0 1.793.602 1.919 1.666h-3.823zm16.747 3.052c-.308 0-.462-.098-.462-.462v-2.87c0-1.694-1.092-2.604-2.996-2.604-1.806 0-3.01.868-3.164 2.268h1.484c.112-.63.714-1.05 1.61-1.05.994 0 1.568.49 1.568 1.288v.434h-1.806c-2.002 0-3.066.826-3.066 2.296 0 1.33 1.092 2.1 2.66 2.1 1.162 0 1.89-.504 2.366-1.232 0 .714.336 1.148 1.316 1.148h.798V8.684h-.308zm-1.96-1.624c-.014 1.106-.742 1.848-2.002 1.848-.826 0-1.33-.42-1.33-1.022 0-.728.518-1.078 1.456-1.078h1.876v.252zM59.804 10h1.512V.2h-1.512V10zm11.24-7.252c-1.175 0-1.987.518-2.45 1.302-.433-.924-1.273-1.302-2.211-1.302-1.078.014-1.694.49-2.1 1.022l-.168-.938h-1.316V10h1.512V6.164c0-1.274.644-2.114 1.68-2.114.994 0 1.512.658 1.512 1.918V10h1.526V6.122c0-1.288.658-2.072 1.694-2.072.98 0 1.498.658 1.498 1.918V10h1.512V5.87c0-2.268-1.204-3.122-2.688-3.122zm7.393 7.336c2.184 0 3.654-1.47 3.654-3.668 0-2.184-1.47-3.668-3.654-3.668s-3.654 1.484-3.654 3.668c0 2.198 1.47 3.668 3.654 3.668zm0-1.288c-1.274 0-2.1-.994-2.1-2.38s.826-2.38 2.1-2.38 2.114.994 2.114 2.38-.84 2.38-2.114 2.38zm4.52-1.162c.042 1.554 1.358 2.45 3.276 2.45 1.736 0 3.038-.868 3.038-2.24 0-1.596-1.33-1.932-2.968-2.128-1.036-.112-1.722-.196-1.722-.868 0-.574.588-.938 1.484-.938s1.512.462 1.596 1.12h1.484c-.098-1.47-1.344-2.282-3.108-2.282-1.722-.014-2.94.868-2.94 2.226 0 1.484 1.288 1.834 2.926 2.03 1.106.14 1.764.196 1.764.966 0 .574-.616.938-1.554.938-1.092 0-1.736-.532-1.792-1.274h-1.484zm8.004.42c0 1.302.588 1.946 1.96 1.946h1.4V8.67h-1.064c-.574 0-.77-.21-.77-.77V4.162h1.75v-1.33h-1.75V.83h-1.526v2.002h-1.246v1.33h1.246v3.892zM4.368 19.832c-1.176 0-1.75.476-2.114 1.078l-.168-1.078H.742V27h1.512v-3.598c0-1.106.434-2.156 1.778-2.156h.672v-1.414h-.336zm4.329 7.252c1.778 0 2.982-1.078 3.234-2.492h-1.512c-.21.798-.882 1.26-1.806 1.26-1.19 0-1.96-.798-2.002-2.016v-.098h5.404c.028-.196.042-.392.042-.574-.042-2.1-1.428-3.416-3.5-3.416-2.114 0-3.528 1.47-3.528 3.682 0 2.198 1.414 3.654 3.668 3.654zm-2.03-4.452c.112-1.022.938-1.666 1.904-1.666 1.05 0 1.792.602 1.918 1.666H6.667zm13.164 3.052c-.308 0-.462-.098-.462-.462v-2.87c0-1.694-1.092-2.604-2.996-2.604-1.806 0-3.01.868-3.164 2.268h1.484c.112-.63.714-1.05 1.61-1.05.994 0 1.568.49 1.568 1.288v.434h-1.806c-2.002 0-3.066.826-3.066 2.296 0 1.33 1.092 2.1 2.66 2.1 1.162 0 1.89-.504 2.366-1.232 0 .714.336 1.148 1.316 1.148h.798v-1.316h-.308zm-1.96-1.624c-.014 1.106-.742 1.848-2.002 1.848-.826 0-1.33-.42-1.33-1.022 0-.728.518-1.078 1.456-1.078h1.876v.252zm8.483-3.234c-.462-.63-1.232-1.078-2.324-1.078-1.946 0-3.388 1.456-3.388 3.668 0 2.296 1.442 3.668 3.388 3.668 1.134 0 1.876-.532 2.338-1.162L26.55 27h1.316v-9.8h-1.512v3.626zm-2.072 4.984c-1.26 0-2.086-.98-2.086-2.394 0-1.4.826-2.38 2.086-2.38 1.26 0 2.086.98 2.086 2.408 0 1.386-.826 2.366-2.086 2.366zm7.134 1.232l-.28.7c-.224.588-.364.728-.952.728H29.12v1.33h1.624c1.05 0 1.358-.518 1.806-1.68l3.248-8.288h-1.61l-1.946 5.446-2.002-5.446h-1.61l2.786 7.21zm9.246-1.988c0 1.302.588 1.946 1.96 1.946h1.4v-1.33h-1.064c-.574 0-.77-.21-.77-.77v-3.738h1.75v-1.33h-1.75V17.83h-1.526v2.002h-1.246v1.33h1.246v3.892zm7.56 2.03c2.184 0 3.654-1.47 3.654-3.668 0-2.184-1.47-3.668-3.654-3.668s-3.654 1.484-3.654 3.668c0 2.198 1.47 3.668 3.654 3.668zm0-1.288c-1.274 0-2.1-.994-2.1-2.38s.826-2.38 2.1-2.38 2.114.994 2.114 2.38-.84 2.38-2.114 2.38zm8.97-.742c0 1.302.588 1.946 1.96 1.946h1.4v-1.33h-1.064c-.574 0-.77-.21-.77-.77v-3.738h1.75v-1.33h-1.75V17.83h-1.526v2.002h-1.246v1.33h1.246v3.892zm7.947-5.222c-1.175 0-1.75.476-2.113 1.078l-.169-1.078h-1.343V27h1.511v-3.598c0-1.106.434-2.156 1.779-2.156h.671v-1.414h-.335zm7.602 5.852c-.308 0-.462-.098-.462-.462v-2.87c0-1.694-1.092-2.604-2.996-2.604-1.806 0-3.01.868-3.164 2.268h1.484c.112-.63.714-1.05 1.61-1.05.994 0 1.568.49 1.568 1.288v.434h-1.806c-2.002 0-3.066.826-3.066 2.296 0 1.33 1.092 2.1 2.66 2.1 1.162 0 1.89-.504 2.366-1.232 0 .714.336 1.148 1.316 1.148h.798v-1.316h-.308zm-1.96-1.624c-.014 1.106-.742 1.848-2.002 1.848-.826 0-1.33-.42-1.33-1.022 0-.728.518-1.078 1.456-1.078h1.876v.252zm8.483-3.234c-.462-.63-1.232-1.078-2.324-1.078-1.946 0-3.388 1.456-3.388 3.668 0 2.296 1.442 3.668 3.388 3.668 1.134 0 1.876-.532 2.338-1.162L79.46 27h1.316v-9.8h-1.512v3.626zm-2.072 4.984c-1.26 0-2.086-.98-2.086-2.394 0-1.4.826-2.38 2.086-2.38 1.26 0 2.086.98 2.086 2.408 0 1.386-.826 2.366-2.086 2.366zm8.464 1.274c1.778 0 2.982-1.078 3.234-2.492h-1.512c-.21.798-.882 1.26-1.806 1.26-1.19 0-1.96-.798-2.002-2.016v-.098h5.404c.028-.196.042-.392.042-.574-.042-2.1-1.428-3.416-3.5-3.416-2.114 0-3.528 1.47-3.528 3.682 0 2.198 1.414 3.654 3.668 3.654zm-2.03-4.452c.112-1.022.938-1.666 1.904-1.666 1.05 0 1.792.602 1.918 1.666h-3.822z" fill="#000"/></svg>