<svg width="131" height="26" viewBox="0 0 131 26" fill="none" xmlns="http://www.w3.org/2000/svg"><rect width="131" height="26" rx="13" fill="#fff"/><path d="M27.5 10.808c-1.092 0-1.752.504-2.124 1.164-.348-.78-1.08-1.164-1.932-1.164-.948 0-1.464.468-1.788.912l-.132-.84h-.852V17h.984v-3.228c0-1.224.612-2.064 1.62-2.064.936 0 1.476.624 1.476 1.824V17h.984v-3.276c0-1.248.624-2.016 1.644-2.016.924 0 1.452.624 1.452 1.824V17h.984v-3.528c0-1.932-1.044-2.664-2.316-2.664zm8.99 5.292c-.276 0-.396-.084-.396-.408v-2.676c0-1.428-.9-2.208-2.46-2.208-1.476 0-2.448.708-2.592 1.908h.984c.12-.624.696-1.032 1.56-1.032.96 0 1.524.48 1.524 1.272v.42h-1.8c-1.608 0-2.46.684-2.46 1.908 0 1.116.912 1.788 2.256 1.788 1.056 0 1.668-.468 2.052-1.02.012.6.288.948 1.104.948h.54v-.9h-.312zm-1.38-1.596c0 1.02-.708 1.728-1.932 1.728-.816 0-1.332-.408-1.332-1.008 0-.696.492-1.02 1.368-1.02h1.896v.3zM37.56 17h.984v-1.608l1.236-1.272L41.807 17h1.188l-2.556-3.588 2.388-2.532h-1.212l-3.072 3.252V8.6h-.984V17zm8.597.072c1.416 0 2.424-.9 2.664-2.124h-.996c-.204.792-.876 1.248-1.74 1.248-1.164 0-1.896-.816-1.932-1.98v-.084h4.752c.012-.144.024-.288.024-.42-.048-1.812-1.176-2.904-2.904-2.904S43.12 12.08 43.12 13.94c0 1.872 1.2 3.132 3.036 3.132zm-1.944-3.756c.096-.996.924-1.644 1.824-1.644 1.02 0 1.74.588 1.836 1.644h-3.66zm10.755 3.72l-.3.744c-.227.576-.324.72-.888.72h-.876v.9h1.177c.864 0 1.092-.384 1.476-1.368l2.82-7.152h-1.044l-1.825 4.884-1.883-4.884H52.58l2.388 6.156zm6.693.036c1.788 0 3.036-1.272 3.036-3.132s-1.248-3.132-3.036-3.132-3.036 1.272-3.036 3.132 1.248 3.132 3.036 3.132zm0-.876c-1.212 0-2.028-.948-2.028-2.256 0-1.308.816-2.256 2.028-2.256 1.212 0 2.028.948 2.028 2.256 0 1.308-.816 2.256-2.028 2.256zm8.448-2.256c0 1.38-.672 2.232-1.788 2.232-1.02 0-1.596-.672-1.596-1.944V10.88h-.984v3.408c0 2.028 1.068 2.784 2.412 2.784 1.008 0 1.596-.432 1.956-.888l.132.816h.852v-6.12h-.984v3.06zm5.158-3.06c-1.092 0-1.56.456-1.848.924l-.132-.924h-.852V17h.984v-3.12c0-.972.348-2.04 1.632-2.04h.492v-.96h-.276zm11.097-.072c-1.092 0-1.752.504-2.124 1.164-.348-.78-1.08-1.164-1.932-1.164-.948 0-1.464.468-1.788.912l-.132-.84h-.852V17h.984v-3.228c0-1.224.612-2.064 1.62-2.064.936 0 1.476.624 1.476 1.824V17h.984v-3.276c0-1.248.624-2.016 1.644-2.016.924 0 1.452.624 1.452 1.824V17h.984v-3.528c0-1.932-1.044-2.664-2.316-2.664zm6.328 6.264c1.788 0 3.036-1.272 3.036-3.132s-1.248-3.132-3.036-3.132-3.036 1.272-3.036 3.132 1.248 3.132 3.036 3.132zm0-.876c-1.212 0-2.028-.948-2.028-2.256 0-1.308.816-2.256 2.028-2.256 1.212 0 2.028.948 2.028 2.256 0 1.308-.816 2.256-2.028 2.256zm5.575.804h1.188l2.292-6.12h-1.032l-1.836 5.004-1.848-5.004h-1.056L98.266 17zm6.765.072c1.416 0 2.424-.9 2.664-2.124h-.996c-.204.792-.876 1.248-1.74 1.248-1.164 0-1.896-.816-1.932-1.98v-.084h4.752c.012-.144.024-.288.024-.42-.048-1.812-1.176-2.904-2.904-2.904s-2.904 1.272-2.904 3.132c0 1.872 1.2 3.132 3.036 3.132zm-1.944-3.756c.096-.996.924-1.644 1.824-1.644 1.02 0 1.74.588 1.836 1.644h-3.66zm5.32 3.084c0 .408.288.672.684.672.396 0 .684-.264.684-.672 0-.408-.288-.672-.684-.672-.396 0-.684.264-.684.672z" fill="#000"/></svg>