<svg width="275" height="18" viewBox="0 0 275 18" fill="none" xmlns="http://www.w3.org/2000/svg"><path d="M.48 3.148h5.184V17.5h2.76V3.148h5.184V.7H.48v2.448zm19.945 2.064c-2.015 0-3 .816-3.623 1.848l-.288-1.848H14.21V17.5H16.8v-6.168c0-1.896.745-3.696 3.049-3.696H21V5.212h-.576zm13.032 10.032c-.528 0-.792-.168-.792-.792v-4.92c0-2.904-1.872-4.464-5.136-4.464-3.096 0-5.16 1.488-5.424 3.888h2.544c.192-1.08 1.224-1.8 2.76-1.8 1.704 0 2.688.84 2.688 2.208v.744h-3.096c-3.432 0-5.256 1.416-5.256 3.936 0 2.28 1.872 3.6 4.56 3.6 1.992 0 3.24-.864 4.056-2.112 0 1.224.576 1.968 2.256 1.968h1.368v-2.256h-.528zm-3.36-2.784c-.024 1.896-1.272 3.168-3.432 3.168-1.416 0-2.28-.72-2.28-1.752 0-1.248.888-1.848 2.496-1.848h3.216v.432zM44.64 6.916c-.792-1.08-2.112-1.848-3.984-1.848-3.336 0-5.808 2.496-5.808 6.288 0 3.936 2.472 6.288 5.808 6.288 1.944 0 3.216-.912 4.008-1.992l.312 1.848h2.256V.7H44.64v6.216zm-3.552 8.544c-2.16 0-3.576-1.68-3.576-4.104 0-2.4 1.416-4.08 3.576-4.08s3.576 1.68 3.576 4.128c0 2.376-1.416 4.056-3.576 4.056zm14.51 2.184c3.047 0 5.111-1.848 5.543-4.272h-2.592c-.36 1.368-1.512 2.16-3.096 2.16-2.04 0-3.36-1.368-3.432-3.456v-.168h9.264c.048-.336.072-.672.072-.984-.072-3.6-2.448-5.856-6-5.856-3.624 0-6.048 2.52-6.048 6.312 0 3.768 2.424 6.264 6.288 6.264zm-3.48-7.632c.191-1.752 1.607-2.856 3.263-2.856 1.8 0 3.072 1.032 3.288 2.856h-6.552zm25.035 7.632c2.664 0 4.392-1.2 5.208-2.4l.24 2.256h2.136V8.308H77.44v2.328h4.656v.408c-.144 2.712-2.232 4.176-4.824 4.176-3.216 0-5.232-2.52-5.232-6.12s2.064-6.12 5.256-6.12c2.328 0 3.936 1.296 4.44 3.432h2.856C84.088 2.86 81.256.556 77.368.556c-4.992 0-8.16 3.432-8.16 8.544s3.24 8.544 7.944 8.544zm16.201 0c3.744 0 6.264-2.52 6.264-6.288 0-3.744-2.52-6.288-6.264-6.288s-6.264 2.544-6.264 6.288c0 3.768 2.52 6.288 6.264 6.288zm0-2.208c-2.184 0-3.6-1.704-3.6-4.08 0-2.376 1.416-4.08 3.6-4.08s3.624 1.704 3.624 4.08c0 2.376-1.44 4.08-3.624 4.08zm8.349 2.064h2.592V.7h-2.592v16.8zm14.469-10.584c-.792-1.08-2.112-1.848-3.984-1.848-3.336 0-5.808 2.496-5.808 6.288 0 3.936 2.472 6.288 5.808 6.288 1.944 0 3.216-.912 4.008-1.992l.312 1.848h2.256V.7h-2.592v6.216zm-3.553 8.544c-2.159 0-3.575-1.68-3.575-4.104 0-2.4 1.416-4.08 3.575-4.08 2.161 0 3.577 1.68 3.577 4.128 0 2.376-1.416 4.056-3.577 4.056zm17.65 2.04h2.808l2.688-8.352 2.592 8.352h2.784l4.08-12.288h-2.64l-2.904 9.408-2.688-9.408h-2.376l-2.808 9.408-2.808-9.408h-2.736l4.008 12.288zm17.637-14.016c.888 0 1.584-.648 1.584-1.56s-.696-1.56-1.584-1.56c-.888 0-1.584.648-1.584 1.56s.696 1.56 1.584 1.56zm-1.32 14.016h2.592V5.212h-2.592V17.5zm6.02-3.336c0 2.232 1.008 3.336 3.36 3.336h2.4v-2.28h-1.824c-.984 0-1.32-.36-1.32-1.32V7.492h3v-2.28h-3V1.78h-2.616v3.432h-2.136v2.28h2.136v6.672zm13.865-9.096c-1.92 0-3.096.864-3.864 1.92V.7h-2.592v16.8h2.592v-6.216c0-2.472 1.248-3.984 3.288-3.984 1.92 0 2.952 1.248 2.952 3.576V17.5h2.592v-6.84c0-4.104-2.232-5.592-4.968-5.592zm13.04 12.576c3.744 0 6.264-2.52 6.264-6.288 0-3.744-2.52-6.288-6.264-6.288s-6.264 2.544-6.264 6.288c0 3.768 2.52 6.288 6.264 6.288zm0-2.208c-2.184 0-3.6-1.704-3.6-4.08 0-2.376 1.416-4.08 3.6-4.08s3.624 1.704 3.624 4.08c0 2.376-1.44 4.08-3.624 4.08zm16.772-4.08c0 2.544-1.2 4.032-3.168 4.032-1.896 0-2.856-1.224-2.856-3.624V5.212h-2.592v6.84c0 4.2 2.232 5.592 4.848 5.592 1.896 0 3.024-.768 3.792-1.704l.288 1.56h2.28V5.212h-2.592v6.144zm6.105 2.808c0 2.232 1.008 3.336 3.36 3.336h2.4v-2.28h-1.824c-.984 0-1.32-.36-1.32-1.32V7.492h3v-2.28h-3V1.78h-2.616v3.432h-2.136v2.28h2.136v6.672zm19.189 3.48c3.144 0 5.232-1.752 5.712-4.536h-2.736c-.312 1.416-1.368 2.328-2.952 2.328-2.088 0-3.456-1.656-3.456-4.056 0-2.424 1.368-4.104 3.456-4.104 1.608 0 2.64.888 2.976 2.328h2.712c-.504-2.784-2.472-4.536-5.64-4.536-3.72 0-6.168 2.52-6.168 6.312 0 3.84 2.376 6.264 6.096 6.264zm13.504 0c3.744 0 6.264-2.52 6.264-6.288 0-3.744-2.52-6.288-6.264-6.288s-6.264 2.544-6.264 6.288c0 3.768 2.52 6.288 6.264 6.288zm0-2.208c-2.184 0-3.6-1.704-3.6-4.08 0-2.376 1.416-4.08 3.6-4.08s3.624 1.704 3.624 4.08c0 2.376-1.44 4.08-3.624 4.08zm7.75-1.992c.072 2.664 2.328 4.2 5.616 4.2 2.976 0 5.208-1.488 5.208-3.84 0-2.736-2.28-3.312-5.088-3.648-1.776-.192-2.952-.336-2.952-1.488 0-.984 1.008-1.608 2.544-1.608s2.592.792 2.736 1.92h2.544c-.168-2.52-2.304-3.912-5.328-3.912-2.952-.024-5.04 1.488-5.04 3.816 0 2.544 2.208 3.144 5.016 3.48 1.896.24 3.024.336 3.024 1.656 0 .984-1.056 1.608-2.664 1.608-1.872 0-2.976-.912-3.072-2.184h-2.544zm13.721.72c0 2.232 1.008 3.336 3.36 3.336h2.4v-2.28h-1.824c-.984 0-1.32-.36-1.32-1.32V7.492h3v-2.28h-3V1.78h-2.616v3.432h-2.136v2.28h2.136v6.672zm6.881-.72c.072 2.664 2.328 4.2 5.616 4.2 2.976 0 5.208-1.488 5.208-3.84 0-2.736-2.28-3.312-5.088-3.648-1.776-.192-2.953-.336-2.953-1.488 0-.984 1.009-1.608 2.545-1.608s2.592.792 2.736 1.92h2.544c-.168-2.52-2.304-3.912-5.328-3.912-2.952-.024-5.04 1.488-5.04 3.816 0 2.544 2.208 3.144 5.016 3.48 1.896.24 3.024.336 3.024 1.656 0 .984-1.056 1.608-2.664 1.608-1.872 0-2.976-.912-3.072-2.184h-2.544z" fill="#000"/></svg>