<svg width="83" height="16" viewBox="0 0 83 16" fill="none" xmlns="http://www.w3.org/2000/svg"><path d="M7.803.11C4.277.13 1.508 1.667 1.508 5.064c0 2.964 2.466 3.764 5.906 4.586 2.488.628 2.92.714 2.92 1.58 0 .692-.735.995-1.579.995-1.925 0-4.11-.563-6.08-1.666L.86 13.588c2.077 1.384 4.63 2.12 7.442 2.12 3.894 0 6.339-1.774 6.339-4.998 0-3.093-2.532-3.959-6.08-4.91-2.358-.585-2.639-.78-2.639-1.255 0-.693.67-.996 1.45-.996 1.492 0 3.526.52 5.257 1.407l1.709-3.137C12.563.737 10.227.109 7.803.109zm13.24 15.36V.348h-4.067V15.47h4.067zm7.162-3.656V.326h-4.067V15.47h11.488v-3.656h-7.42zm17.359 3.656L51.36.326h-4.867l-3.591 10.363L39.376.326H34.51l5.733 15.144h5.322zM65.816 3.982V.326H53.42V15.47h12.526v-3.656h-8.459V9.542h7.745V6.081h-7.745V3.982h8.33zM68.251.348V15.47h4.067v-4.608h2.423l2.943 4.608h4.694l-3.396-5.15c2.098-.713 2.985-2.25 2.985-4.715 0-3.7-1.968-5.257-6.901-5.257h-6.815zm4.067 3.656h2.943c1.795 0 2.466.562 2.466 1.86 0 1.32-.67 1.86-2.466 1.86h-2.943v-3.72z" fill="#09B45B"/></svg>