<svg width="47" height="17" viewBox="0 0 47 17" fill="none" xmlns="http://www.w3.org/2000/svg"><path d="M31.923 6.556h-2.418C28.842 2.77 26.067.47 21.871.47c-4.717 0-7.766 3.15-7.766 8.017 0 4.868 2.954 7.947 7.766 7.922 3.922 0 6.705-2.161 7.532-5.703h1.638l.5-1.385h-1.92a11.305 11.305 0 00.029-1.384h1.796l.477-1.385v.005zm-6.761 2.77h-2.577l-.5 1.384h2.939c-.33 2.074-1.22 3.508-3.058 3.508-2.43 0-3.382-2.579-3.382-5.774s.762-5.751 3.216-5.774c1.93 0 2.928 1.611 3.258 3.889h-2.09l-.478 1.384h2.683c.005.166.01.331.01.501 0 .302-.008.596-.021.884v-.002zM.765 16.41h4.217v-5.797h7.17V7.105h-7.17V4.526h7.933V.828H.765v15.581zM43.646 10.73c1.882-.81 3.12-2.363 3.12-4.677v-.047c0-1.48-.453-2.672-1.335-3.533C44.407 1.446 42.785.828 40.476.828h-7.193v15.581h4.216v-4.987h1.858l2.287 5.048h4.859l-2.86-5.74h.003zm-1.098-4.416c0 1.122-.832 1.813-2.262 1.813h-2.789V4.454h2.764c1.43 0 2.287.62 2.287 1.812v.048z" fill="#fff"/></svg>