<svg width="217" height="45" viewBox="0 0 217 45" fill="none" xmlns="http://www.w3.org/2000/svg"><path d="M4.796 15c4.662 0 7.392-2.898 7.392-7.35 0-4.473-2.73-7.35-7.392-7.35H.512V15h4.284zM1.646 1.35h3.15c4.011 0 6.237 2.436 6.237 6.3 0 3.843-2.226 6.3-6.237 6.3h-3.15V1.35zm13.351.756a.74.74 0 00.756-.756.74.74 0 00-.756-.756.74.74 0 00-.756.756.74.74 0 00.756.756zM14.451 15h1.071V4.353h-1.07V15zm6.676 0h1.281l4.158-10.647h-1.113L21.8 13.761l-3.675-9.408H16.97L21.127 15zm11.153.126c2.331 0 4.116-1.512 4.578-3.654h-1.092c-.42 1.659-1.827 2.688-3.57 2.688-2.373 0-3.864-1.806-3.906-4.284v-.189h8.694c0-.147.021-.315.021-.441-.105-3.171-2.058-5.019-4.914-5.019-2.919 0-4.914 2.226-4.914 5.376 0 3.339 2.08 5.523 5.103 5.523zm-3.906-6.342c.168-2.163 1.785-3.612 3.738-3.612 2.08 0 3.57 1.281 3.738 3.612h-7.476zm16.954-6.678a.74.74 0 00.756-.756.74.74 0 00-.756-.756.74.74 0 00-.756.756.74.74 0 00.756.756zM44.782 15h1.072V4.353h-1.072V15zm8.503-10.773c-1.953 0-3.213 1.008-3.822 2.394l-.168-2.268h-.924V15h1.071V9.75c0-2.772 1.407-4.536 3.675-4.536 2.058 0 3.297 1.344 3.297 3.864V15h1.071V9.036c0-3.36-1.785-4.809-4.2-4.809zm7.369 8.295c0 1.701.693 2.478 2.499 2.478h1.554v-.987h-1.47c-1.113 0-1.512-.42-1.512-1.512V5.34h2.877v-.987h-2.877V1.371h-1.071v2.982h-2.016v.987h2.016v7.182zm10.058 2.604c3.003 0 5.124-2.226 5.124-5.46 0-3.213-2.121-5.439-5.124-5.439-3.003 0-5.103 2.226-5.103 5.439 0 3.234 2.1 5.46 5.103 5.46zm0-.966c-2.373 0-4.011-1.848-4.011-4.494 0-2.625 1.638-4.494 4.011-4.494s4.011 1.869 4.011 4.494c0 2.646-1.638 4.494-4.011 4.494zm21.585-7.329c-.65-1.575-2.079-2.604-4.053-2.604-2.919 0-5.019 2.205-5.019 5.439 0 3.36 2.1 5.46 5.02 5.46 1.994 0 3.401-1.05 4.073-2.709v1.89c0 2.835-1.344 4.053-3.906 4.053-1.995 0-3.38-.903-3.717-2.52h-1.113c.336 2.268 2.163 3.486 4.746 3.486 3.444 0 5.061-1.638 5.061-4.977V4.353h-.924l-.168 2.478zm-3.969 7.329c-2.373 0-4.01-1.848-4.01-4.494s1.637-4.494 4.01-4.494c2.373 0 4.011 1.848 4.011 4.515 0 2.625-1.638 4.473-4.01 4.473zm12.284.966c3.003 0 5.124-2.226 5.124-5.46 0-3.213-2.121-5.439-5.124-5.439-3.003 0-5.103 2.226-5.103 5.439 0 3.234 2.1 5.46 5.103 5.46zm0-.966c-2.373 0-4.01-1.848-4.01-4.494 0-2.625 1.637-4.494 4.01-4.494 2.373 0 4.011 1.869 4.011 4.494 0 2.646-1.638 4.494-4.011 4.494zm7.252.84h1.071V.3h-1.071V15zm12.283-8.253c-.651-1.512-2.079-2.52-4.074-2.52-2.919 0-5.019 2.226-5.019 5.439 0 3.36 2.1 5.46 5.019 5.46 1.995 0 3.381-1.071 4.053-2.562l.168 2.436h.924V.3h-1.071v6.447zm-3.99 7.413c-2.373 0-4.011-1.848-4.011-4.494 0-2.625 1.638-4.494 4.011-4.494s4.011 1.869 4.011 4.515c0 2.625-1.638 4.473-4.011 4.473zm8.022-.63c-.567 0-.924.357-.924.819 0 .504.336.756.735.756.21 0 .42-.084.525-.252.147.147.189.357.189.546 0 .798-.504 1.617-1.575 1.659v.63c1.449-.063 2.352-1.029 2.352-2.415 0-.966-.546-1.743-1.302-1.743zm8.591-1.806c.084 2.205 1.869 3.402 4.536 3.402 2.289 0 4.137-1.155 4.137-3.045 0-2.247-1.974-2.688-4.263-3.003-1.659-.231-3.129-.42-3.129-1.911 0-1.218 1.197-2.016 3.003-2.016 1.701 0 2.919.819 3.108 2.205h1.092c-.189-2.079-1.89-3.129-4.2-3.129-2.373-.021-4.074 1.197-4.074 3.024 0 2.142 1.974 2.541 4.158 2.835 1.785.252 3.234.483 3.234 2.058 0 1.26-1.323 2.058-3.066 2.058-2.037 0-3.36-.945-3.444-2.478h-1.092zm11.263-9.618a.74.74 0 00.756-.756.74.74 0 00-.756-.756.74.74 0 00-.756.756.74.74 0 00.756.756zM143.487 15h1.071V4.353h-1.071V15zm3.588 0h1.071V.3h-1.071V15zm6.676 0h1.281l4.158-10.647h-1.113l-3.654 9.408-3.675-9.408h-1.155L153.751 15zm11.153.126c2.331 0 4.116-1.512 4.578-3.654h-1.092c-.42 1.659-1.827 2.688-3.57 2.688-2.373 0-3.864-1.806-3.906-4.284v-.189h8.694c0-.147.021-.315.021-.441-.105-3.171-2.058-5.019-4.914-5.019-2.919 0-4.914 2.226-4.914 5.376 0 3.339 2.079 5.523 5.103 5.523zm-3.906-6.342c.168-2.163 1.785-3.612 3.738-3.612 2.079 0 3.57 1.281 3.738 3.612h-7.476zm15.095-4.431c-1.974 0-2.814.945-3.255 2.121l-.168-2.121h-.924V15h1.071V9.603c0-2.163.567-4.221 3.066-4.221h.777V4.353h-.567zm17.18 9.66c-.63 0-.945-.21-.945-1.029V8.028c0-2.436-1.491-3.801-4.158-3.801-2.436 0-4.053 1.176-4.326 3.108h1.071c.273-1.302 1.407-2.163 3.213-2.163 1.995 0 3.129 1.05 3.129 2.814v.924h-3.612c-2.73 0-4.2 1.176-4.2 3.171 0 1.89 1.491 3.045 3.759 3.045 2.163 0 3.444-.987 4.095-2.31v.378c-.042 1.26.483 1.806 1.743 1.806h.63v-.987h-.399zm-2.016-3.318c0 2.037-1.449 3.507-3.969 3.507-1.701 0-2.751-.861-2.751-2.184 0-1.407 1.05-2.184 3.024-2.184h3.696v.861zm8.762-6.468c-1.953 0-3.213 1.008-3.822 2.394l-.168-2.268h-.924V15h1.071V9.75c0-2.772 1.407-4.536 3.675-4.536 2.058 0 3.297 1.344 3.297 3.864V15h1.071V9.036c0-3.36-1.785-4.809-4.2-4.809zm15.1 2.52c-.651-1.512-2.079-2.52-4.074-2.52-2.919 0-5.019 2.226-5.019 5.439 0 3.36 2.1 5.46 5.019 5.46 1.995 0 3.381-1.071 4.053-2.562l.168 2.436h.924V.3h-1.071v6.447zm-3.99 7.413c-2.373 0-4.011-1.848-4.011-4.494 0-2.625 1.638-4.494 4.011-4.494s4.011 1.869 4.011 4.515c0 2.625-1.638 4.473-4.011 4.473zM12.146 33.227c-1.953 0-3.213 1.092-3.822 2.667-.504-1.764-1.827-2.667-3.507-2.667-1.827 0-2.919 1.071-3.465 2.394l-.168-2.268H.26V44h1.071v-5.418c0-2.604 1.26-4.368 3.297-4.368 1.848 0 3.003 1.302 3.003 3.759V44h1.071v-5.796c.063-2.436 1.323-3.99 3.318-3.99 1.848 0 2.961 1.239 2.961 3.654V44h1.092v-6.174c0-3.213-1.701-4.599-3.927-4.599zM22.99 44.126c3.003 0 5.124-2.226 5.124-5.46 0-3.213-2.12-5.439-5.124-5.439-3.003 0-5.103 2.226-5.103 5.439 0 3.234 2.1 5.46 5.103 5.46zm0-.966c-2.373 0-4.01-1.848-4.01-4.494 0-2.625 1.637-4.494 4.01-4.494 2.373 0 4.011 1.869 4.011 4.494 0 2.646-1.638 4.494-4.01 4.494zm11.6-9.807c-1.975 0-2.815.945-3.256 2.121l-.168-2.121h-.924V44h1.071v-5.397c0-2.163.567-4.221 3.066-4.221h.777v-1.029h-.567zm6.099 10.773c2.33 0 4.116-1.512 4.578-3.654h-1.092c-.42 1.659-1.827 2.688-3.57 2.688-2.373 0-3.864-1.806-3.906-4.284v-.189h8.694c0-.147.02-.315.02-.441-.104-3.171-2.057-5.019-4.913-5.019-2.92 0-4.914 2.226-4.914 5.376 0 3.339 2.079 5.523 5.103 5.523zm-3.906-6.342c.168-2.163 1.785-3.612 3.738-3.612 2.079 0 3.57 1.281 3.738 3.612h-7.476z" fill="#000"/></svg>