<svg width="232" height="34" viewBox="0 0 232 34" fill="none" xmlns="http://www.w3.org/2000/svg"><path d="M15.715 12c3.008 0 5.632-1.776 5.632-5.6 0-3.664-2.448-5.6-5.664-5.6h-3.536a.143.143 0 00-.144.144l.064 5.312-.064 5.6c0 .08.064.144.144.144h3.568zM13.49 6.224c0-1.008.048-4.208.048-4.224h2.24c2.224 0 4.032 1.44 4.032 4.4 0 3.104-1.984 4.4-3.968 4.4h-2.304c0-.016-.048-3.536-.048-4.576zM24.44 2.816c.08 0 .144-.064.144-.144V1.36a.143.143 0 00-.144-.144h-1.2a.143.143 0 00-.144.144v1.312c0 .08.064.144.144.144h1.2zm0 9.184c.08 0 .144-.064.144-.144l-.032-4.112.032-3.84a.143.143 0 00-.144-.144h-1.2a.143.143 0 00-.144.144l.032 3.856-.032 4.096c0 .08.064.144.144.144h1.2zm8.954-2.368c0-3.456-5.552-1.68-5.552-3.728 0-.912.72-1.328 1.84-1.328 1.184 0 1.984.48 2.08 1.52.016.08.08.144.16.144h1.072c.08 0 .144-.064.144-.144-.128-1.712-1.52-2.512-3.44-2.512-1.952 0-3.248.832-3.248 2.416 0 3.328 5.552 1.584 5.552 3.744 0 .912-.8 1.424-2.016 1.424-1.472 0-2.256-.576-2.32-1.872a.143.143 0 00-.144-.144h-1.12a.143.143 0 00-.144.144c.064 1.92 1.488 2.88 3.68 2.88 1.968 0 3.456-.928 3.456-2.544zm8.789-.592c.016-.08-.048-.144-.128-.144h-1.072c-.08 0-.144.064-.16.144-.144 1.328-.976 2.08-2.208 2.08-1.616-.016-2.384-1.136-2.384-3.232 0-2.048.768-3.232 2.384-3.232 1.104 0 1.904.608 2.128 1.808.016.08.08.144.16.144h1.056c.08 0 .144-.064.128-.144-.176-1.728-1.424-2.896-3.472-2.896-2.496 0-3.888 1.744-3.888 4.336 0 2.592 1.392 4.288 3.856 4.288 2.128 0 3.44-1.328 3.6-3.152zm9.101-1.168c0-2.592-1.392-4.304-3.904-4.304-2.496 0-3.904 1.728-3.904 4.336 0 2.592 1.408 4.288 3.904 4.288 2.512 0 3.904-1.728 3.904-4.32zm-6.32.032c0-2.064.784-3.248 2.416-3.264 1.6 0 2.4 1.2 2.4 3.264s-.784 3.216-2.4 3.216c-1.616 0-2.416-1.152-2.416-3.216zM59.57 3.888c.016-.064-.016-.128-.096-.128h-1.12c-.08 0-.16.064-.192.144l-2.384 6.88-2.32-6.88c-.032-.08-.112-.144-.192-.144H51.97c-.064 0-.112.064-.096.128l2.944 8c.032.064.112.128.192.128h1.472c.08 0 .16-.064.192-.128l2.896-8zm6.913 5.248c-.08 0-.16.064-.176.144-.24 1.2-.976 1.84-2.192 1.84-1.616 0-2.432-1.056-2.48-3.04h6.08c.08 0 .144-.064.144-.144-.048-2.736-1.456-4.368-3.84-4.368s-3.856 1.76-3.856 4.336c0 2.512 1.376 4.288 3.936 4.288 2.112 0 3.36-1.232 3.616-2.912 0-.08-.048-.144-.128-.144h-1.104zm-.192-2.08h-4.608c.208-1.552.992-2.432 2.352-2.432 1.456 0 2.208 1.12 2.256 2.432zM70.793 12c.08 0 .144-.064.144-.144l-.016-4.32c.176-1.808 1.376-2.656 2.768-2.656.176 0 .336.016.464.032a.12.12 0 00.144-.112v-.896c0-.08-.064-.16-.144-.176a2.217 2.217 0 00-.48-.048c-1.152 0-2.208.56-2.8 1.616l.064-1.392a.143.143 0 00-.144-.144h-1.184a.143.143 0 00-.144.144l.048 3.888-.048 4.064c0 .08.064.144.144.144h1.184zm16.796-3.28c0-4.384-7.296-2.176-7.296-5.056 0-1.264 1.056-1.84 2.608-1.84 1.808 0 2.752.72 2.88 2.16.016.08.08.144.16.144h1.264c.08 0 .144-.064.128-.144C87.093 1.68 85.51.608 82.95.608c-2.48 0-4.112 1.152-4.112 3.2 0 4.272 7.296 2.016 7.296 5.104 0 1.472-1.184 2.08-2.832 2.08-2.192 0-2.992-1.024-3.136-2.704-.016-.08-.08-.144-.16-.144h-1.248a.143.143 0 00-.144.144c.112 2.544 1.792 3.904 4.64 3.904 2.544 0 4.336-1.168 4.336-3.472zm5.753 2.272c0-.064-.064-.128-.144-.096a4.136 4.136 0 01-.848.096c-.704 0-1.04-.304-1.04-1.296v-4.8h1.888c.08 0 .144-.064.144-.144v-.848a.143.143 0 00-.144-.144H91.31l.016-1.92a.143.143 0 00-.144-.144h-1.184a.143.143 0 00-.144.144l.016 1.92h-.912a.143.143 0 00-.144.144v.848c0 .08.064.144.144.144h.912v4.832c0 1.792 1.008 2.416 2.208 2.416.384 0 .8-.096 1.12-.192.08-.032.144-.112.144-.192v-.768zm8.672-3.12c0-2.592-1.392-4.304-3.904-4.304-2.496 0-3.904 1.728-3.904 4.336 0 2.592 1.408 4.288 3.904 4.288 2.512 0 3.904-1.728 3.904-4.32zm-6.32.032c0-2.064.784-3.248 2.416-3.264 1.6 0 2.4 1.2 2.4 3.264s-.784 3.216-2.4 3.216c-1.616 0-2.416-1.152-2.416-3.216zm9.3 4.096c.08 0 .144-.064.144-.144l-.016-3.376V7.232c.32-1.632 1.184-2.496 2.272-2.496 1.024 0 1.744.672 1.744 2.16V8.48l-.032 3.376c0 .08.064.144.144.144h1.184c.08 0 .144-.064.144-.144l-.032-3.376V6.832c0-2.144-1.056-3.264-2.752-3.264-1.312 0-2.24.752-2.752 1.584l.048-1.248a.143.143 0 00-.144-.144h-1.136a.143.143 0 00-.144.144l.032 4.336-.048 3.616c0 .08.064.144.144.144h1.2zm13.453-2.864c-.08 0-.16.064-.176.144-.24 1.2-.976 1.84-2.192 1.84-1.616 0-2.432-1.056-2.48-3.04h6.08c.08 0 .144-.064.144-.144-.048-2.736-1.456-4.368-3.84-4.368s-3.856 1.76-3.856 4.336c0 2.512 1.376 4.288 3.936 4.288 2.112 0 3.36-1.232 3.616-2.912 0-.08-.048-.144-.128-.144h-1.104zm-.192-2.08h-4.608c.208-1.552.992-2.432 2.352-2.432 1.456 0 2.208 1.12 2.256 2.432zM129.599 12c.064 0 .096-.064.064-.128l-3.696-5.744 3.28-5.2c.032-.064 0-.128-.064-.128h-1.376a.276.276 0 00-.224.128l-2.448 3.936-2.464-3.936a.276.276 0 00-.224-.128h-1.504c-.064 0-.096.064-.064.128l3.344 5.152-3.68 5.792c-.032.064 0 .128.064.128h1.376c.08 0 .176-.048.224-.128l2.848-4.576 2.816 4.576c.048.08.144.128.224.128h1.504zm1.508-7.952c.08 0 .176-.048.224-.128l.896-1.36a.59.59 0 00.08-.272V.944a.143.143 0 00-.144-.144h-1.168a.143.143 0 00-.144.144v1.504l-.4 1.456a.12.12 0 00.112.144h.544zm8.95 5.584c0-3.456-5.552-1.68-5.552-3.728 0-.912.72-1.328 1.84-1.328 1.184 0 1.984.48 2.08 1.52.016.08.08.144.16.144h1.072c.08 0 .144-.064.144-.144-.128-1.712-1.52-2.512-3.44-2.512-1.952 0-3.248.832-3.248 2.416 0 3.328 5.552 1.584 5.552 3.744 0 .912-.8 1.424-2.016 1.424-1.472 0-2.256-.576-2.32-1.872a.143.143 0 00-.144-.144h-1.12a.143.143 0 00-.144.144c.064 1.92 1.488 2.88 3.68 2.88 1.968 0 3.456-.928 3.456-2.544zm7.393-4.752h1.792c.08 0 .144-.064.144-.144v-.832a.143.143 0 00-.144-.144h-1.792v-.608c0-1.04.4-1.44 1.056-1.44.272 0 .528.032.752.096a.12.12 0 00.144-.112V.88c0-.08-.064-.16-.144-.176a5.38 5.38 0 00-1.072-.112c-1.056 0-2.16.64-2.16 2.448v.72h-1.152a.143.143 0 00-.144.144v.832c0 .08.064.144.144.144h1.152v3.408l-.048 3.568c0 .08.064.144.144.144h1.232c.08 0 .144-.064.144-.144l-.048-3.568V4.88zm8.933 5.712l-.032 1.264c0 .08.064.144.144.144h1.136c.08 0 .144-.064.144-.144l-.032-4.336.048-3.616a.143.143 0 00-.144-.144h-1.216a.143.143 0 00-.144.144l.032 3.376v1.248c-.32 1.632-1.2 2.496-2.272 2.496-1.04 0-1.744-.672-1.744-2.16V7.28l.032-3.376a.143.143 0 00-.144-.144h-1.2a.143.143 0 00-.144.144l.032 3.376v1.632c0 2.16 1.072 3.28 2.768 3.28 1.312 0 2.24-.752 2.736-1.6zM161.084 12c.08 0 .144-.064.144-.144l-.064-5.536.064-5.376a.143.143 0 00-.144-.144H159.9a.143.143 0 00-.144.144l.064 5.392-.064 5.52c0 .08.064.144.144.144h1.184zm3.515 0c.08 0 .144-.064.144-.144l-.064-5.536.064-5.376a.143.143 0 00-.144-.144h-1.184a.143.143 0 00-.144.144l.064 5.392-.064 5.52c0 .08.064.144.144.144h1.184zm12.407-2.368c0-3.456-5.552-1.68-5.552-3.728 0-.912.72-1.328 1.84-1.328 1.184 0 1.984.48 2.08 1.52.016.08.08.144.16.144h1.072c.08 0 .144-.064.144-.144-.128-1.712-1.52-2.512-3.44-2.512-1.952 0-3.248.832-3.248 2.416 0 3.328 5.552 1.584 5.552 3.744 0 .912-.8 1.424-2.016 1.424-1.472 0-2.256-.576-2.32-1.872a.143.143 0 00-.144-.144h-1.12a.143.143 0 00-.144.144c.064 1.92 1.488 2.88 3.68 2.88 1.968 0 3.456-.928 3.456-2.544zm7.077.96l-.032 1.264c0 .08.064.144.144.144h1.136c.08 0 .144-.064.144-.144l-.032-4.336.048-3.616a.143.143 0 00-.144-.144h-1.216a.143.143 0 00-.144.144l.032 3.376v1.248c-.32 1.632-1.2 2.496-2.272 2.496-1.04 0-1.744-.672-1.744-2.16V7.28l.032-3.376a.143.143 0 00-.144-.144h-1.2a.143.143 0 00-.144.144l.032 3.376v1.632c0 2.16 1.072 3.28 2.768 3.28 1.312 0 2.24-.752 2.736-1.6zm4.717-7.776c.08 0 .144-.064.144-.144V1.36a.143.143 0 00-.144-.144h-1.2a.143.143 0 00-.144.144v1.312c0 .08.064.144.144.144h1.2zm0 9.184c.08 0 .144-.064.144-.144l-.032-4.112.032-3.84a.143.143 0 00-.144-.144h-1.2a.143.143 0 00-.144.144l.032 3.856-.032 4.096c0 .08.064.144.144.144h1.2zm6.266-1.008c0-.064-.064-.128-.144-.096a4.136 4.136 0 01-.848.096c-.704 0-1.04-.304-1.04-1.296v-4.8h1.888c.08 0 .144-.064.144-.144v-.848a.143.143 0 00-.144-.144h-1.888l.016-1.92a.143.143 0 00-.144-.144h-1.184a.143.143 0 00-.144.144l.016 1.92h-.912a.143.143 0 00-.144.144v.848c0 .08.064.144.144.144h.912v4.832c0 1.792 1.008 2.416 2.208 2.416.384 0 .8-.096 1.12-.192.08-.032.144-.112.144-.192v-.768zm7.169-1.856c-.08 0-.16.064-.176.144-.24 1.2-.976 1.84-2.192 1.84-1.616 0-2.432-1.056-2.48-3.04h6.08c.08 0 .144-.064.144-.144-.048-2.736-1.456-4.368-3.84-4.368s-3.856 1.76-3.856 4.336c0 2.512 1.376 4.288 3.936 4.288 2.112 0 3.36-1.232 3.616-2.912 0-.08-.048-.144-.128-.144h-1.104zm-.192-2.08h-4.608c.208-1.552.992-2.432 2.352-2.432 1.456 0 2.208 1.12 2.256 2.432zm13.929.816c0-2.592-1.392-4.304-3.904-4.304-2.496 0-3.904 1.728-3.904 4.336 0 2.592 1.408 4.288 3.904 4.288 2.512 0 3.904-1.728 3.904-4.32zm-6.32.032c0-2.064.784-3.248 2.416-3.264 1.6 0 2.4 1.2 2.4 3.264s-.784 3.216-2.4 3.216c-1.616 0-2.416-1.152-2.416-3.216zm9.869-3.024h1.792c.08 0 .144-.064.144-.144v-.832a.143.143 0 00-.144-.144h-1.792v-.608c0-1.04.4-1.44 1.056-1.44.272 0 .528.032.752.096a.12.12 0 00.144-.112V.88c0-.08-.064-.16-.144-.176a5.38 5.38 0 00-1.072-.112c-1.056 0-2.16.64-2.16 2.448v.72h-1.152a.143.143 0 00-.144.144v.832c0 .08.064.144.144.144h1.152v3.408l-.048 3.568c0 .08.064.144.144.144h1.232c.08 0 .144-.064.144-.144l-.048-3.568V4.88zM8.115 30.04c.016-.08-.048-.144-.128-.144H6.915c-.08 0-.144.064-.16.144-.144 1.328-.976 2.08-2.208 2.08-1.616-.016-2.384-1.136-2.384-3.232 0-2.048.768-3.232 2.384-3.232 1.104 0 1.904.608 2.128 1.808.016.08.08.144.16.144H7.89c.08 0 .144-.064.128-.144-.176-1.728-1.424-2.896-3.472-2.896-2.496 0-3.888 1.744-3.888 4.336 0 2.592 1.392 4.288 3.856 4.288 2.128 0 3.44-1.328 3.6-3.152zm9.101-1.168c0-2.592-1.392-4.304-3.904-4.304-2.496 0-3.904 1.728-3.904 4.336 0 2.592 1.408 4.288 3.904 4.288 2.512 0 3.904-1.728 3.904-4.32zm-6.32.032c0-2.064.784-3.248 2.416-3.264 1.6 0 2.4 1.2 2.4 3.264s-.784 3.216-2.4 3.216c-1.616 0-2.416-1.152-2.416-3.216zm14.71 1.728c0-3.456-5.553-1.68-5.553-3.728 0-.912.72-1.328 1.84-1.328 1.184 0 1.984.48 2.08 1.52.016.08.08.144.16.144h1.072c.08 0 .144-.064.144-.144-.128-1.712-1.52-2.512-3.44-2.512-1.952 0-3.248.832-3.248 2.416 0 3.328 5.552 1.584 5.552 3.744 0 .912-.8 1.424-2.016 1.424-1.472 0-2.256-.576-2.32-1.872a.143.143 0 00-.144-.144h-1.12a.143.143 0 00-.144.144c.064 1.92 1.488 2.88 3.68 2.88 1.968 0 3.456-.928 3.456-2.544zm5.53 1.36c0-.064-.064-.128-.144-.096a4.136 4.136 0 01-.848.096c-.704 0-1.04-.304-1.04-1.296v-4.8h1.888c.08 0 .144-.064.144-.144v-.848a.143.143 0 00-.144-.144h-1.888l.016-1.92a.143.143 0 00-.144-.144h-1.184a.143.143 0 00-.144.144l.016 1.92h-.912a.143.143 0 00-.144.144v.848c0 .08.064.144.144.144h.912v4.832c0 1.792 1.008 2.416 2.208 2.416.384 0 .8-.096 1.12-.192.08-.032.144-.112.144-.192v-.768zm3.91-3.104c.08 0 .145-.064.145-.144v-.848a.143.143 0 00-.144-.144H31.75a.143.143 0 00-.144.144v.848c0 .08.064.144.144.144h3.296zm7.773 1.248c-.08 0-.16.064-.176.144-.24 1.2-.976 1.84-2.192 1.84-1.616 0-2.432-1.056-2.48-3.04h6.08c.08 0 .144-.064.144-.144-.048-2.736-1.456-4.368-3.84-4.368s-3.856 1.76-3.856 4.336c0 2.512 1.376 4.288 3.936 4.288 2.112 0 3.36-1.232 3.616-2.912 0-.08-.048-.144-.128-.144H42.82zm-.192-2.08H38.02c.208-1.552.992-2.432 2.352-2.432 1.456 0 2.208 1.12 2.256 2.432zm5.105-2.176h1.792c.08 0 .144-.064.144-.144v-.832a.143.143 0 00-.144-.144h-1.792v-.608c0-1.04.4-1.44 1.056-1.44.272 0 .528.032.752.096a.12.12 0 00.144-.112v-.816c0-.08-.064-.16-.144-.176a5.38 5.38 0 00-1.072-.112c-1.056 0-2.16.64-2.16 2.448v.72h-1.152a.143.143 0 00-.144.144v.832c0 .08.064.144.144.144h1.152v3.408l-.048 3.568c0 .08.064.144.144.144h1.232c.08 0 .144-.064.144-.144l-.048-3.568V25.88zm5.811 0h1.792c.08 0 .144-.064.144-.144v-.832a.143.143 0 00-.144-.144h-1.792v-.608c0-1.04.4-1.44 1.056-1.44.272 0 .528.032.752.096a.12.12 0 00.144-.112v-.816c0-.08-.064-.16-.144-.176a5.38 5.38 0 00-1.072-.112c-1.056 0-2.16.64-2.16 2.448v.72h-1.152a.143.143 0 00-.144.144v.832c0 .08.064.144.144.144h1.152v3.408l-.048 3.568c0 .08.064.144.144.144h1.232c.08 0 .144-.064.144-.144l-.048-3.568V25.88zm8.9 4.256c-.08 0-.16.064-.177.144-.24 1.2-.976 1.84-2.192 1.84-1.616 0-2.432-1.056-2.48-3.04h6.08c.08 0 .144-.064.144-.144-.048-2.736-1.456-4.368-3.84-4.368s-3.856 1.76-3.856 4.336c0 2.512 1.376 4.288 3.936 4.288 2.112 0 3.36-1.232 3.616-2.912 0-.08-.048-.144-.128-.144h-1.104zm-.193-2.08h-4.608c.208-1.552.992-2.432 2.352-2.432 1.456 0 2.208 1.12 2.256 2.432zM72.61 30.04c.016-.08-.048-.144-.128-.144h-1.072c-.08 0-.144.064-.16.144-.144 1.328-.976 2.08-2.208 2.08-1.616-.016-2.384-1.136-2.384-3.232 0-2.048.768-3.232 2.384-3.232 1.104 0 1.904.608 2.128 1.808.016.08.08.144.16.144h1.056c.08 0 .144-.064.128-.144-.176-1.728-1.424-2.896-3.472-2.896-2.496 0-3.888 1.744-3.888 4.336 0 2.592 1.392 4.288 3.856 4.288 2.128 0 3.44-1.328 3.6-3.152zm5.553 1.952c0-.064-.064-.128-.144-.096a4.136 4.136 0 01-.848.096c-.704 0-1.04-.304-1.04-1.296v-4.8h1.888c.08 0 .144-.064.144-.144v-.848a.143.143 0 00-.144-.144H76.13l.016-1.92a.143.143 0 00-.144-.144h-1.184a.143.143 0 00-.144.144l.016 1.92h-.912a.143.143 0 00-.144.144v.848c0 .08.064.144.144.144h.912v4.832c0 1.792 1.008 2.416 2.208 2.416.384 0 .8-.096 1.12-.192.08-.032.144-.112.144-.192v-.768zm2.92-8.176c.08 0 .144-.064.144-.144V22.36a.143.143 0 00-.144-.144h-1.2a.143.143 0 00-.144.144v1.312c0 .08.064.144.144.144h1.2zm0 9.184c.08 0 .144-.064.144-.144l-.032-4.112.032-3.84a.143.143 0 00-.144-.144h-1.2a.143.143 0 00-.144.144l.032 3.856-.032 4.096c0 .08.064.144.144.144h1.2zm9.179-8.112c.016-.064-.016-.128-.096-.128h-1.12c-.08 0-.16.064-.192.144l-2.384 6.88-2.32-6.88c-.032-.08-.112-.144-.192-.144H82.66c-.064 0-.112.064-.096.128l2.944 8c.032.064.112.128.192.128h1.472c.08 0 .16-.064.192-.128l2.896-8zm6.913 5.248c-.08 0-.16.064-.176.144-.24 1.2-.976 1.84-2.192 1.84-1.616 0-2.432-1.056-2.48-3.04h6.08c.08 0 .144-.064.144-.144-.048-2.736-1.456-4.368-3.84-4.368s-3.856 1.76-3.856 4.336c0 2.512 1.376 4.288 3.936 4.288 2.112 0 3.36-1.232 3.616-2.912 0-.08-.048-.144-.128-.144h-1.104zm-.192-2.08h-4.608c.208-1.552.992-2.432 2.352-2.432 1.456 0 2.208 1.12 2.256 2.432zm14.495 1.952c.016-.096-.064-.176-.16-.176h-1.92c-.096 0-.176.08-.192.176-.112 1.056-.72 1.616-1.52 1.6-1.2-.016-1.792-.832-1.792-2.72 0-1.824.576-2.704 1.792-2.72.672 0 1.264.448 1.44 1.344a.206.206 0 00.208.176h1.872c.096 0 .176-.08.16-.176-.208-1.776-1.568-2.96-3.68-2.96-2.688 0-4.256 1.728-4.256 4.352 0 2.624 1.568 4.304 4.208 4.304 2.144 0 3.648-1.344 3.84-3.2zm3.602-1.232c0-1.696.624-2.608 1.84-2.576 1.136.016 1.776.976 1.76 2.736-.032 1.744-.64 2.624-1.808 2.624-1.152.016-1.792-.928-1.792-2.784zm5.76 4.224c.096 0 .176-.08.176-.176l-.064-3.936.064-3.952a.178.178 0 00-.176-.176h-2.08c-.096 0-.176.08-.16.176l.032.72c-.56-.688-1.36-1.056-2.384-1.056-2.24 0-3.616 1.92-3.616 4.304 0 2.4 1.232 4.256 3.568 4.256 1.04 0 1.856-.416 2.432-1.12l-.032.784c0 .096.08.176.176.176h2.064zm3.989 0c.096 0 .176-.08.176-.176l-.016-3.488c0-1.888 1.248-2.832 2.944-2.832.08 0 .192 0 .272.016.096 0 .176-.064.176-.16v-1.424a.221.221 0 00-.176-.208 2.387 2.387 0 00-.336-.032c-1.2 0-2.304.48-2.944 1.456l.048-1.216c.016-.096-.064-.176-.16-.176h-2.048a.178.178 0 00-.176.176l.064 3.936-.064 3.952c0 .096.08.176.176.176h2.064zm13.143-4.144c0-2.4-1.232-4.256-3.568-4.256-1.024 0-1.84.4-2.416 1.088l.032-3.712a.178.178 0 00-.176-.176h-2.08a.178.178 0 00-.176.176l.064 5.424-.064 5.424c0 .096.08.176.176.176h2.08c.096 0 .176-.08.16-.176l-.032-.704c.56.672 1.36 1.04 2.384 1.04 2.24 0 3.616-1.92 3.616-4.304zm-6.048-.064c.016-1.696.64-2.56 1.808-2.56 1.152-.016 1.792.912 1.792 2.72 0 1.664-.624 2.608-1.84 2.576-1.152-.016-1.776-.976-1.76-2.736zm15.717.064c0-2.624-1.52-4.304-4.208-4.304s-4.24 1.728-4.24 4.352c0 2.624 1.552 4.304 4.24 4.304s4.208-1.728 4.208-4.352zm-6 .064c0-1.856.56-2.752 1.776-2.768 1.184 0 1.76.896 1.76 2.752 0 1.888-.56 2.704-1.744 2.704-1.2 0-1.792-.832-1.792-2.688zm9.688 4.08c.096 0 .176-.08.176-.176l-.032-3.328v-.608c0-1.76.928-2.56 1.792-2.56.72 0 1.264.576 1.264 1.472v1.696l-.048 3.328c0 .096.08.176.176.176h2.08c.096 0 .176-.08.176-.176l-.048-3.328v-1.728c0-2.016-1.12-3.2-2.864-3.2-1.152 0-2.096.512-2.656 1.232l.032-.864c.016-.096-.064-.176-.16-.176h-1.968a.178.178 0 00-.176.176l.032 4.112-.064 3.776c0 .096.08.176.176.176h2.112zm18.546-2.512c0-3.504-5.392-1.904-5.392-3.472 0-.704.496-.992 1.28-.992.96 0 1.408.416 1.536 1.104.032.112.112.176.224.176h1.872c.096 0 .176-.08.16-.176-.16-1.712-1.616-2.56-3.76-2.56-2.224 0-3.6.912-3.6 2.624 0 3.456 5.392 1.936 5.392 3.504 0 .64-.512 1.008-1.456 1.008-1.12 0-1.712-.4-1.792-1.296a.178.178 0 00-.176-.176h-1.984a.178.178 0 00-.176.176c.096 1.824 1.712 2.784 4.048 2.784 2.192 0 3.824-.976 3.824-2.704zm9.654-1.632c0-2.624-1.52-4.304-4.208-4.304s-4.24 1.728-4.24 4.352c0 2.624 1.552 4.304 4.24 4.304s4.208-1.728 4.208-4.352zm-6 .064c0-1.856.56-2.752 1.776-2.768 1.184 0 1.76.896 1.76 2.752 0 1.888-.56 2.704-1.744 2.704-1.2 0-1.792-.832-1.792-2.688zm9.688 4.08c.096 0 .176-.08.176-.176l-.08-5.424.08-5.424a.178.178 0 00-.176-.176h-2.048a.178.178 0 00-.176.176l.08 5.424-.08 5.424c0 .096.08.176.176.176h2.048zm7.34-1.04l-.032.864c-.016.096.064.176.16.176h1.968c.096 0 .176-.08.176-.176l-.032-4.112.064-3.776a.178.178 0 00-.176-.176h-2.112a.178.178 0 00-.176.176l.032 3.328v.608c0 1.76-.928 2.56-1.792 2.56-.72 0-1.264-.576-1.264-1.472v-1.696l.048-3.328a.178.178 0 00-.176-.176h-2.08a.178.178 0 00-.176.176l.048 3.328v1.728c0 2.016 1.12 3.2 2.864 3.2 1.152 0 2.096-.512 2.656-1.232zm8.99-.512c0-.08-.08-.144-.176-.128-.24.064-.528.128-.896.128-.528 0-.88-.224-.88-.928l-.016-4.064h1.808c.096 0 .176-.08.176-.176v-1.344a.178.178 0 00-.176-.176h-1.792l.016-1.888a.178.178 0 00-.176-.176h-2.08a.178.178 0 00-.176.176l.016 1.888h-.88a.178.178 0 00-.176.176v1.344c0 .096.08.176.176.176h.896l-.016 4.128c0 1.872 1.328 2.576 2.72 2.576.496 0 1.008-.112 1.472-.256a.29.29 0 00.16-.24v-1.216zm3.669-7.488c.096 0 .176-.08.176-.176v-1.808a.178.178 0 00-.176-.176h-2.08a.178.178 0 00-.176.176v1.808c0 .096.08.176.176.176h2.08zm.016 9.04c.096 0 .176-.08.176-.176l-.064-3.936.064-3.952a.178.178 0 00-.176-.176h-2.112a.178.178 0 00-.176.176l.064 3.952-.064 3.936c0 .096.08.176.176.176h2.112zm10.075-4.144c0-2.624-1.52-4.304-4.208-4.304s-4.24 1.728-4.24 4.352c0 2.624 1.552 4.304 4.24 4.304s4.208-1.728 4.208-4.352zm-6 .064c0-1.856.56-2.752 1.776-2.768 1.184 0 1.76.896 1.76 2.752 0 1.888-.56 2.704-1.744 2.704-1.2 0-1.792-.832-1.792-2.688zm9.688 4.08c.096 0 .176-.08.176-.176l-.032-3.328v-.608c0-1.76.928-2.56 1.792-2.56.72 0 1.264.576 1.264 1.472v1.696l-.048 3.328c0 .096.08.176.176.176h2.08c.096 0 .176-.08.176-.176l-.048-3.328v-1.728c0-2.016-1.12-3.2-2.864-3.2-1.152 0-2.096.512-2.656 1.232l.032-.864c.016-.096-.064-.176-.16-.176h-1.968a.178.178 0 00-.176.176l.032 4.112-.064 3.776c0 .096.08.176.176.176h2.112zm14.782-2.512c0-3.504-5.392-1.904-5.392-3.472 0-.704.496-.992 1.28-.992.96 0 1.408.416 1.536 1.104.032.112.112.176.224.176h1.872c.096 0 .176-.08.16-.176-.16-1.712-1.616-2.56-3.76-2.56-2.224 0-3.6.912-3.6 2.624 0 3.456 5.392 1.936 5.392 3.504 0 .64-.512 1.008-1.456 1.008-1.12 0-1.712-.4-1.792-1.296a.178.178 0 00-.176-.176h-1.984a.178.178 0 00-.176.176c.096 1.824 1.712 2.784 4.048 2.784 2.192 0 3.824-.976 3.824-2.704z" fill="#fff"/></svg>