<svg width="140" height="175" viewBox="0 0 140 175" fill="none" xmlns="http://www.w3.org/2000/svg"><path d="M.97 118.92h5.982v-.674H1.698v-3.813h4.257v-.673H1.698v-3.598h5.079v-.673H.97v9.431zm6.466 0h.795l2.263-3.005 2.264 3.005h.835l-2.654-3.49 2.52-3.341h-.782l-2.156 2.829-2.129-2.829h-.821l2.52 3.341-2.655 3.49zm9.784.081c1.55 0 2.64-.889 2.91-2.277h-.728c-.229 1.01-1.05 1.657-2.182 1.657-1.496 0-2.533-1.172-2.533-2.87 0-1.697 1.024-2.897 2.533-2.897 1.145 0 1.953.647 2.196 1.671h.714c-.283-1.415-1.347-2.277-2.897-2.277-1.927 0-3.247 1.428-3.247 3.503 0 2.102 1.307 3.49 3.234 3.49zm4.246-.081h.687v-9.431h-.687v9.431zm7.26-3.476c0 1.792-.889 2.924-2.304 2.924-1.266 0-2.048-.863-2.048-2.493v-3.786h-.687v3.826c0 2.143 1.118 3.086 2.627 3.086 1.213 0 2.008-.647 2.399-1.523l.094 1.442h.606v-6.831h-.687v3.355zm1.995 1.374c.054 1.415 1.2 2.183 2.91 2.183 1.469 0 2.654-.741 2.654-1.954 0-1.442-1.266-1.724-2.734-1.927-1.065-.148-2.008-.269-2.008-1.226 0-.781.768-1.293 1.927-1.293 1.091 0 1.872.525 1.994 1.415h.7c-.121-1.334-1.212-2.008-2.694-2.008-1.523-.013-2.614.768-2.614 1.94 0 1.375 1.266 1.631 2.667 1.819 1.146.162 2.075.31 2.075 1.321 0 .808-.848 1.32-1.967 1.32-1.307 0-2.155-.606-2.21-1.59h-.7zm7.226-6.171c.27 0 .485-.202.485-.485a.475.475 0 00-.485-.485.475.475 0 00-.485.485c0 .283.215.485.485.485zm-.35 8.273h.687v-6.831h-.687v6.831zm4.283 0h.822l2.667-6.831h-.714l-2.344 6.036-2.358-6.036h-.741l2.668 6.831zm7.155.081c1.496 0 2.641-.97 2.938-2.345h-.701c-.27 1.065-1.172 1.725-2.29 1.725-1.523 0-2.48-1.159-2.507-2.749v-.121h5.578c0-.094.014-.202.014-.283-.068-2.034-1.32-3.22-3.153-3.22-1.873 0-3.153 1.428-3.153 3.449 0 2.143 1.334 3.544 3.274 3.544zm-2.506-4.069c.108-1.388 1.145-2.318 2.398-2.318 1.334 0 2.291.822 2.399 2.318h-4.797zm11.04 2.398c0 1.091.444 1.59 1.603 1.59h.997v-.633h-.943c-.715 0-.97-.27-.97-.97v-4.595H60.1v-.633h-1.846v-1.913h-.687v1.913h-1.293v.633h1.293v4.608zm6.453 1.671c1.926 0 3.287-1.428 3.287-3.503 0-2.062-1.36-3.49-3.287-3.49-1.927 0-3.274 1.428-3.274 3.49 0 2.075 1.347 3.503 3.274 3.503zm0-.62c-1.523 0-2.574-1.186-2.574-2.883 0-1.684 1.051-2.884 2.574-2.884 1.522 0 2.573 1.2 2.573 2.884 0 1.697-1.05 2.883-2.573 2.883zm12.434.62c2.02 0 3.449-1.092 3.853-2.991h-.768c-.404 1.509-1.496 2.317-3.099 2.317-2.182 0-3.557-1.711-3.557-4.123 0-2.411 1.401-4.123 3.584-4.123 1.576 0 2.681.822 3.099 2.304h.768c-.418-1.886-1.846-2.977-3.826-2.977-2.655 0-4.38 1.967-4.38 4.796 0 2.857 1.685 4.797 4.326 4.797zm5.608-8.354c.27 0 .485-.202.485-.485a.475.475 0 00-.485-.485.475.475 0 00-.485.485c0 .283.215.485.485.485zm-.35 8.273h.686v-6.831h-.687v6.831zm2.814-1.59c0 1.091.444 1.59 1.603 1.59h.997v-.633h-.943c-.714 0-.97-.27-.97-.97v-4.595h1.846v-.633h-1.846v-1.913h-.687v1.913h-1.294v.633h1.294v4.608zm5.694 1.59l-.445 1.105c-.31.754-.431.956-1.132.956h-.862v.634h1.05c.917 0 1.133-.351 1.564-1.429l3.274-8.097h-.741l-2.331 5.942-2.371-5.942h-.741l2.735 6.831zm8.166 0h.727v-9.431h-.727v9.431zm5.662-6.912c-1.253 0-2.062.647-2.452 1.536l-.108-1.455h-.593v6.831h.687v-3.368c0-1.779.903-2.911 2.358-2.911 1.32 0 2.115.863 2.115 2.479v3.8h.687v-3.826c0-2.156-1.145-3.086-2.694-3.086zm9.688 1.617c-.418-.97-1.334-1.617-2.614-1.617-1.873 0-3.22 1.428-3.22 3.49 0 2.155 1.347 3.503 3.22 3.503 1.28 0 2.169-.687 2.6-1.644l.108 1.563h.593v-9.431h-.687v4.136zm-2.56 4.756c-1.523 0-2.574-1.186-2.574-2.883 0-1.684 1.051-2.884 2.574-2.884 1.522 0 2.573 1.2 2.573 2.897 0 1.684-1.051 2.87-2.573 2.87zm7.881.62c1.496 0 2.641-.97 2.937-2.345h-.7c-.27 1.065-1.172 1.725-2.291 1.725-1.522 0-2.479-1.159-2.506-2.749v-.121h5.578c0-.094.014-.202.014-.283-.068-2.034-1.321-3.22-3.153-3.22-1.873 0-3.153 1.428-3.153 3.449 0 2.143 1.334 3.544 3.274 3.544zm-2.506-4.069c.108-1.388 1.145-2.318 2.398-2.318 1.334 0 2.291.822 2.399 2.318h-4.797zm5.931 3.988h.795l2.264-3.005 2.263 3.005h.836l-2.655-3.49 2.52-3.341h-.782l-2.155 2.829-2.129-2.829h-.822l2.52 3.341-2.655 3.49zm7.3-.943c-.364 0-.593.229-.593.525 0 .324.216.485.472.485.135 0 .269-.054.337-.161a.486.486 0 01.121.35c0 .512-.323 1.037-1.011 1.064v.404c.93-.04 1.509-.66 1.509-1.549 0-.62-.35-1.118-.835-1.118zM5.767 131.444c0 1.792-.89 2.924-2.304 2.924-1.267 0-2.048-.863-2.048-2.493v-3.786H.728v3.826c0 2.143 1.118 3.086 2.627 3.086 1.212 0 2.007-.647 2.398-1.523l.094 1.442h.607v-6.831h-.687v3.355zm1.994 1.374c.054 1.415 1.2 2.183 2.91 2.183 1.47 0 2.655-.741 2.655-1.954 0-1.442-1.267-1.724-2.735-1.927-1.065-.148-2.008-.269-2.008-1.226 0-.781.768-1.293 1.927-1.293 1.091 0 1.873.525 1.994 1.415h.7c-.12-1.334-1.212-2.008-2.694-2.008-1.523-.013-2.614.768-2.614 1.94 0 1.375 1.267 1.631 2.668 1.819 1.145.162 2.075.31 2.075 1.321 0 .808-.85 1.32-1.967 1.32-1.307 0-2.156-.606-2.21-1.59h-.7zm9.894 2.183c1.495 0 2.64-.97 2.937-2.345h-.7c-.27 1.065-1.173 1.725-2.291 1.725-1.523 0-2.48-1.159-2.506-2.749v-.121h5.578c0-.094.013-.202.013-.283-.067-2.034-1.32-3.22-3.152-3.22-1.873 0-3.153 1.428-3.153 3.449 0 2.143 1.334 3.544 3.274 3.544zm-2.506-4.069c.108-1.388 1.145-2.318 2.398-2.318 1.334 0 2.29.822 2.398 2.318H15.15zm10.58 3.988h1.55v-3.422h2.17c1.966 0 3.26-1.186 3.26-3.005 0-1.832-1.294-3.004-3.26-3.004h-3.72v9.431zm3.598-8.084c1.105 0 1.806.633 1.806 1.657 0 1.011-.714 1.657-1.82 1.657H27.28v-3.314h2.048zm7.37 8.165c1.711 0 2.87-1.038 3.113-2.398h-1.455c-.202.767-.85 1.212-1.738 1.212-1.146 0-1.887-.768-1.927-1.94v-.094h5.2c.027-.189.041-.378.041-.553-.04-2.021-1.374-3.287-3.368-3.287-2.035 0-3.396 1.414-3.396 3.543 0 2.116 1.361 3.517 3.53 3.517zm-1.953-4.285c.108-.983.903-1.603 1.832-1.603 1.01 0 1.725.579 1.846 1.603h-3.678zm9.853-2.694c-1.132 0-1.684.458-2.035 1.037l-.161-1.037h-1.294v6.898h1.456v-3.463c0-1.064.417-2.075 1.71-2.075h.647v-1.36h-.323zm.81 1.28h1.199v5.618h1.468v-5.618h1.846v-1.28h-1.873v-.58c0-.471.202-.673.674-.673h1.2v-1.28h-1.389c-1.333 0-1.926.646-1.926 1.886v.647h-1.2v1.28zm8.237 5.699c2.102 0 3.516-1.415 3.516-3.53 0-2.102-1.414-3.53-3.516-3.53-2.102 0-3.517 1.428-3.517 3.53 0 2.115 1.415 3.53 3.517 3.53zm0-1.24c-1.226 0-2.021-.956-2.021-2.29s.795-2.291 2.02-2.291c1.227 0 2.035.957 2.035 2.291s-.808 2.29-2.034 2.29zm8.176-5.739c-1.132 0-1.684.458-2.034 1.037l-.162-1.037H58.33v6.898h1.456v-3.463c0-1.064.417-2.075 1.71-2.075h.647v-1.36h-.323zm9.157-.081c-1.132 0-1.914.498-2.358 1.253-.418-.889-1.226-1.253-2.13-1.253-1.037.013-1.63.471-2.02.983l-.162-.902h-1.266v6.898h1.455v-3.692c0-1.226.62-2.034 1.617-2.034.956 0 1.455.633 1.455 1.846v3.88h1.468v-3.732c0-1.24.634-1.994 1.63-1.994.944 0 1.442.633 1.442 1.846v3.88h1.455v-3.975c0-2.182-1.158-3.004-2.587-3.004zm10.21 5.712c-.296 0-.444-.094-.444-.444v-2.762c0-1.63-1.05-2.506-2.883-2.506-1.738 0-2.897.835-3.045 2.182h1.428c.108-.606.687-1.01 1.55-1.01.956 0 1.509.472 1.509 1.239v.418h-1.738c-1.927 0-2.951.795-2.951 2.21 0 1.28 1.05 2.021 2.56 2.021 1.118 0 1.819-.485 2.277-1.186 0 .687.323 1.105 1.266 1.105h.768v-1.267h-.296zm-1.885-1.562c-.014 1.064-.714 1.778-1.927 1.778-.795 0-1.28-.404-1.28-.984 0-.7.499-1.037 1.401-1.037h1.806v.243zm6.613-4.15c-1.119 0-1.779.444-2.21.983l-.162-.902h-1.266v6.898h1.455v-3.476c0-1.401.687-2.25 1.846-2.25 1.091 0 1.644.7 1.644 2.007v3.719h1.468v-3.84c0-2.304-1.253-3.139-2.775-3.139zm7.212 7.06c1.765 0 2.937-.984 3.207-2.547h-1.536c-.175.795-.768 1.307-1.657 1.307-1.173 0-1.94-.929-1.94-2.277 0-1.361.767-2.304 1.94-2.304.902 0 1.482.499 1.67 1.307h1.523c-.283-1.563-1.388-2.546-3.166-2.546-2.089 0-3.463 1.414-3.463 3.543 0 2.156 1.334 3.517 3.422 3.517zm7.594 0c1.712 0 2.87-1.038 3.113-2.398h-1.455c-.202.767-.849 1.212-1.738 1.212-1.146 0-1.887-.768-1.927-1.94v-.094h5.201c.027-.189.04-.378.04-.553-.04-2.021-1.374-3.287-3.368-3.287-2.035 0-3.395 1.414-3.395 3.543 0 2.116 1.36 3.517 3.529 3.517zm-1.953-4.285c.108-.983.903-1.603 1.832-1.603 1.011 0 1.725.579 1.846 1.603h-3.678zM1.71 150.92l.876-2.331h3.867l.889 2.331H9l-3.516-9.431H3.638l-3.53 9.431H1.71zm2.803-7.761l1.509 4.11H3.018l1.496-4.11zm8.943.782c-1.119 0-1.779.444-2.21.983l-.162-.902H9.82v6.898h1.455v-3.476c0-1.401.687-2.25 1.846-2.25 1.091 0 1.644.7 1.644 2.007v3.719h1.468v-3.84c0-2.304-1.253-3.139-2.775-3.139zm10.404 5.712c-.296 0-.445-.094-.445-.444v-2.762c0-1.63-1.05-2.506-2.883-2.506-1.738 0-2.897.835-3.045 2.182h1.428c.108-.606.688-1.01 1.55-1.01.956 0 1.509.472 1.509 1.239v.418h-1.738c-1.927 0-2.95.795-2.95 2.21 0 1.28 1.05 2.021 2.559 2.021 1.118 0 1.819-.485 2.277-1.186 0 .687.323 1.105 1.267 1.105h.767v-1.267h-.296zm-1.886-1.562c-.014 1.064-.714 1.778-1.927 1.778-.795 0-1.28-.404-1.28-.984 0-.7.499-1.037 1.401-1.037h1.806v.243zm2.975 2.829h1.455v-9.431H24.95v9.431zm4.876.04l-.27.674c-.216.566-.35.701-.916.701h-1.024v1.28h1.563c1.01 0 1.307-.499 1.738-1.617l3.126-7.976h-1.55l-1.873 5.241-1.926-5.241h-1.55l2.682 6.938zm5.596-1.913c0 1.253.566 1.873 1.886 1.873h1.348v-1.28h-1.024c-.553 0-.741-.202-.741-.741v-3.597h1.684v-1.28H36.89v-1.927h-1.47v1.927h-1.198v1.28h1.199v3.745zm4.9-5.995c.499 0 .89-.364.89-.876s-.391-.876-.89-.876c-.498 0-.89.364-.89.876s.392.876.89.876zm-.74 7.868h1.454v-6.898h-1.455v6.898zm6.047.081c1.765 0 2.937-.984 3.206-2.547H47.3c-.176.795-.768 1.307-1.658 1.307-1.172 0-1.94-.929-1.94-2.277 0-1.361.768-2.304 1.94-2.304.903 0 1.482.499 1.67 1.307h1.523c-.282-1.563-1.387-2.546-3.166-2.546-2.088 0-3.462 1.414-3.462 3.543 0 2.156 1.333 3.517 3.422 3.517zm4.024-2.358c.04 1.495 1.307 2.358 3.153 2.358 1.67 0 2.923-.836 2.923-2.156 0-1.536-1.28-1.859-2.856-2.048-.997-.108-1.657-.189-1.657-.835 0-.553.566-.903 1.428-.903s1.455.445 1.536 1.078h1.428c-.094-1.415-1.293-2.196-2.991-2.196-1.657-.014-2.83.835-2.83 2.142 0 1.428 1.24 1.765 2.816 1.954 1.065.134 1.698.188 1.698.929 0 .553-.593.903-1.495.903-1.051 0-1.671-.512-1.725-1.226h-1.428zm11.442.687c0 1.091.444 1.59 1.603 1.59h.997v-.633h-.943c-.714 0-.97-.27-.97-.97v-4.595h1.846v-.633h-1.846v-1.913h-.687v1.913H59.8v.633h1.294v4.608zm6.453 1.671c1.927 0 3.287-1.428 3.287-3.503 0-2.062-1.36-3.49-3.287-3.49-1.927 0-3.274 1.428-3.274 3.49 0 2.075 1.347 3.503 3.274 3.503zm0-.62c-1.523 0-2.574-1.186-2.574-2.883 0-1.684 1.051-2.884 2.574-2.884 1.522 0 2.573 1.2 2.573 2.884 0 1.697-1.05 2.883-2.573 2.883zm15.91-6.373c-1.253 0-2.061.701-2.452 1.711-.324-1.131-1.172-1.711-2.25-1.711-1.172 0-1.873.687-2.223 1.536l-.108-1.455h-.593v6.831h.687v-3.476c0-1.671.809-2.803 2.115-2.803 1.186 0 1.927.836 1.927 2.412v3.867h.687v-3.719c.04-1.563.85-2.56 2.129-2.56 1.186 0 1.9.795 1.9 2.345v3.934h.7v-3.961c0-2.062-1.091-2.951-2.52-2.951zm10.054 6.279c-.404 0-.607-.135-.607-.661v-3.179c0-1.563-.956-2.439-2.667-2.439-1.563 0-2.6.755-2.776 1.994h.687c.175-.835.903-1.388 2.062-1.388 1.28 0 2.007.674 2.007 1.806v.593h-2.317c-1.752 0-2.695.754-2.695 2.034 0 1.213.957 1.954 2.412 1.954 1.388 0 2.21-.633 2.627-1.482v.242c-.027.809.31 1.159 1.118 1.159h.405v-.633h-.256zm-1.294-2.129c0 1.307-.93 2.25-2.546 2.25-1.091 0-1.765-.552-1.765-1.401 0-.903.674-1.402 1.94-1.402h2.371v.553zm2.469 2.762h.687v-1.846l1.603-1.644 2.614 3.49h.835l-2.977-3.988 2.748-2.843h-.849l-3.974 4.096v-6.696h-.687v9.431zm9.307.081c1.495 0 2.641-.97 2.937-2.345h-.701c-.269 1.065-1.172 1.725-2.29 1.725-1.522 0-2.479-1.159-2.506-2.749v-.121h5.578c0-.094.013-.202.013-.283-.067-2.034-1.32-3.22-3.152-3.22-1.873 0-3.153 1.428-3.153 3.449 0 2.143 1.334 3.544 3.274 3.544zm-2.506-4.069c.108-1.388 1.145-2.318 2.398-2.318 1.334 0 2.291.822 2.398 2.318h-4.796zM1.32 165.33c0 1.091.445 1.59 1.604 1.59h.997v-.633h-.943c-.715 0-.97-.27-.97-.97v-4.595h1.845v-.633H2.008v-1.913H1.32v1.913H.027v.633H1.32v4.608zm3.996-6.683c.27 0 .485-.202.485-.485a.475.475 0 00-.485-.485.475.475 0 00-.485.485c0 .283.216.485.485.485zm-.35 8.273h.687v-6.831h-.687v6.831zm9.929-6.912c-1.253 0-2.062.701-2.453 1.711-.323-1.131-1.172-1.711-2.25-1.711-1.172 0-1.872.687-2.223 1.536l-.107-1.455h-.593v6.831h.687v-3.476c0-1.671.808-2.803 2.115-2.803 1.186 0 1.927.836 1.927 2.412v3.867h.687v-3.719c.04-1.563.849-2.56 2.129-2.56 1.185 0 1.9.795 1.9 2.345v3.934h.7v-3.961c0-2.062-1.091-2.951-2.52-2.951zm6.957 6.993c1.496 0 2.64-.97 2.937-2.345h-.7c-.27 1.065-1.173 1.725-2.29 1.725-1.523 0-2.48-1.159-2.507-2.749v-.121h5.578c0-.094.014-.202.014-.283-.068-2.034-1.32-3.22-3.153-3.22-1.873 0-3.153 1.428-3.153 3.449 0 2.143 1.334 3.544 3.274 3.544zm-2.506-4.069c.108-1.388 1.145-2.318 2.398-2.318 1.334 0 2.29.822 2.398 2.318h-4.796zm6.896 3.988h.687v-9.431h-.687v9.431zm4.35 0l-.444 1.105c-.31.754-.432.956-1.132.956h-.862v.634h1.05c.917 0 1.132-.351 1.563-1.429l3.274-8.097h-.74l-2.332 5.942-2.37-5.942h-.742l2.735 6.831zm4.117-.943c-.364 0-.593.229-.593.525 0 .324.215.485.471.485.135 0 .27-.054.337-.161a.485.485 0 01.121.35c0 .512-.323 1.037-1.01 1.064v.404c.93-.04 1.509-.66 1.509-1.549 0-.62-.35-1.118-.835-1.118zm8.84 1.024c1.495 0 2.64-.97 2.937-2.345h-.7c-.27 1.065-1.173 1.725-2.291 1.725-1.523 0-2.48-1.159-2.506-2.749v-.121h5.578c0-.094.013-.202.013-.283-.067-2.034-1.32-3.22-3.153-3.22-1.872 0-3.152 1.428-3.152 3.449 0 2.143 1.334 3.544 3.274 3.544zm-2.506-4.069c.107-1.388 1.145-2.318 2.398-2.318 1.334 0 2.29.822 2.398 2.318h-4.796zm13.661-4.81v-.633h-1.158c-1.132 0-1.59.498-1.59 1.59v1.01h-2.924v-1.024c0-.674.256-.943.943-.943h.984v-.633h-1.01c-1.146 0-1.604.498-1.604 1.59v1.01h-1.293v.633h1.293v6.198h.687v-6.198h2.924v6.198h.687v-6.198h2.048v-.633h-2.048v-1.024c0-.674.256-.943.943-.943h1.118zm3.502 8.879c1.496 0 2.64-.97 2.937-2.345h-.7c-.27 1.065-1.173 1.725-2.29 1.725-1.523 0-2.48-1.159-2.507-2.749v-.121h5.578c0-.094.014-.202.014-.283-.068-2.034-1.32-3.22-3.153-3.22-1.873 0-3.153 1.428-3.153 3.449 0 2.143 1.334 3.544 3.274 3.544zm-2.506-4.069c.108-1.388 1.145-2.318 2.398-2.318 1.334 0 2.29.822 2.398 2.318H55.7zm9.873 4.069c1.55 0 2.641-.889 2.91-2.277h-.727c-.23 1.01-1.051 1.657-2.183 1.657-1.495 0-2.533-1.172-2.533-2.87 0-1.697 1.024-2.897 2.533-2.897 1.146 0 1.954.647 2.196 1.671h.715c-.283-1.415-1.348-2.277-2.897-2.277-1.927 0-3.247 1.428-3.247 3.503 0 2.102 1.307 3.49 3.233 3.49zm4.758-1.671c0 1.091.445 1.59 1.603 1.59h.997v-.633h-.943c-.714 0-.97-.27-.97-.97v-4.595h1.846v-.633h-1.846v-1.913h-.687v1.913h-1.293v.633h1.293v4.608zm3.996-6.683c.27 0 .485-.202.485-.485a.475.475 0 00-.485-.485.475.475 0 00-.485.485c0 .283.216.485.485.485zm-.35 8.273h.687v-6.831h-.687v6.831zm4.283 0h.822l2.668-6.831h-.715l-2.344 6.036-2.358-6.036h-.74l2.667 6.831zm7.156.081c1.495 0 2.64-.97 2.937-2.345h-.7c-.27 1.065-1.173 1.725-2.291 1.725-1.523 0-2.48-1.159-2.506-2.749v-.121h5.578c0-.094.013-.202.013-.283-.067-2.034-1.32-3.22-3.153-3.22-1.872 0-3.152 1.428-3.152 3.449 0 2.143 1.333 3.544 3.274 3.544zm-2.506-4.069c.107-1.388 1.145-2.318 2.398-2.318 1.334 0 2.29.822 2.398 2.318H82.91zm11.039 2.398c0 1.091.444 1.59 1.603 1.59h.997v-.633h-.943c-.714 0-.97-.27-.97-.97v-4.595h1.846v-.633h-1.846v-1.913h-.687v1.913h-1.294v.633h1.294v4.608zm6.434-5.241c-1.266 0-1.805.606-2.088 1.361l-.108-1.361h-.593v6.831h.688v-3.463c0-1.387.363-2.708 1.967-2.708h.498v-.66h-.364zm7.102 6.198c-.404 0-.606-.135-.606-.661v-3.179c0-1.563-.957-2.439-2.668-2.439-1.563 0-2.6.755-2.776 1.994h.688c.175-.835.902-1.388 2.061-1.388 1.28 0 2.007.674 2.007 1.806v.593h-2.317c-1.751 0-2.695.754-2.695 2.034 0 1.213.957 1.954 2.412 1.954 1.388 0 2.21-.633 2.627-1.482v.242c-.027.809.31 1.159 1.119 1.159h.404v-.633h-.256zm-1.294-2.129c0 1.307-.929 2.25-2.546 2.25-1.091 0-1.765-.552-1.765-1.401 0-.903.674-1.402 1.94-1.402h2.371v.553zm7.941-2.533c-.417-.97-1.333-1.617-2.613-1.617-1.873 0-3.22 1.428-3.22 3.49 0 2.155 1.347 3.503 3.22 3.503 1.28 0 2.169-.687 2.6-1.644l.108 1.563h.593v-9.431h-.688v4.136zm-2.559 4.756c-1.523 0-2.574-1.186-2.574-2.883 0-1.684 1.051-2.884 2.574-2.884 1.522 0 2.573 1.2 2.573 2.897 0 1.684-1.051 2.87-2.573 2.87zm7.881.62c1.495 0 2.641-.97 2.937-2.345h-.701c-.269 1.065-1.172 1.725-2.29 1.725-1.523 0-2.479-1.159-2.506-2.749v-.121h5.578c0-.094.013-.202.013-.283-.067-2.034-1.32-3.22-3.152-3.22-1.873 0-3.153 1.428-3.153 3.449 0 2.143 1.334 3.544 3.274 3.544zm-2.506-4.069c.108-1.388 1.145-2.318 2.398-2.318 1.334 0 2.291.822 2.398 2.318h-4.796zm6.572 1.886c.054 1.415 1.2 2.183 2.911 2.183 1.468 0 2.654-.741 2.654-1.954 0-1.442-1.267-1.724-2.735-1.927-1.065-.148-2.008-.269-2.008-1.226 0-.781.768-1.293 1.927-1.293 1.091 0 1.873.525 1.994 1.415h.701c-.122-1.334-1.213-2.008-2.695-2.008-1.523-.013-2.614.768-2.614 1.94 0 1.375 1.267 1.631 2.668 1.819 1.145.162 2.075.31 2.075 1.321 0 .808-.849 1.32-1.967 1.32-1.307 0-2.156-.606-2.21-1.59h-.701zm6.677 1.657c0 .31.215.512.512.512a.488.488 0 00.512-.512c0-.31-.216-.498-.512-.498-.297 0-.512.188-.512.498zM3.122 12.258c0 3.72 1.758 5.722 5.142 5.722 3.403 0 5.18-2.001 5.18-5.722v-7.48h-2.15v7.592c0 2.43-.936 3.702-3.03 3.702-2.057 0-2.992-1.271-2.992-3.702V4.778h-2.15v7.48zm17.48-4.076c-1.551 0-2.468.617-3.066 1.365l-.224-1.253h-1.758v9.573h2.02v-4.824c0-1.944.953-3.123 2.561-3.123 1.515 0 2.281.973 2.281 2.787v5.16h2.039v-5.329c0-3.197-1.74-4.356-3.852-4.356zm12.89 1.44c-.617-.842-1.646-1.44-3.104-1.44-2.6 0-4.525 1.944-4.525 4.899 0 3.066 1.926 4.899 4.525 4.899 1.514 0 2.505-.711 3.122-1.552l.244 1.44h1.757V4.777h-2.02v4.843zm-2.768 6.656c-1.682 0-2.786-1.309-2.786-3.197 0-1.87 1.104-3.18 2.786-3.18 1.683 0 2.787 1.31 2.787 3.217 0 1.851-1.104 3.16-2.787 3.16zm11.304 1.702c2.375 0 3.983-1.44 4.32-3.329h-2.02c-.28 1.066-1.178 1.683-2.412 1.683-1.59 0-2.618-1.066-2.674-2.692v-.131h7.218c.037-.262.056-.524.056-.767-.056-2.805-1.907-4.562-4.675-4.562-2.823 0-4.712 1.963-4.712 4.917 0 2.936 1.889 4.88 4.9 4.88zm-2.71-5.947c.149-1.365 1.252-2.225 2.542-2.225 1.403 0 2.394.804 2.562 2.225h-5.105zm13.674-3.74c-1.571 0-2.338.636-2.824 1.44l-.224-1.44h-1.795v9.574h2.02v-4.805c0-1.477.579-2.88 2.374-2.88h.897V8.294h-.448zm1.118 6.414c.056 2.076 1.814 3.273 4.376 3.273 2.318 0 4.057-1.16 4.057-2.992 0-2.132-1.776-2.58-3.964-2.842-1.384-.15-2.3-.262-2.3-1.16 0-.766.785-1.253 1.982-1.253s2.02.617 2.132 1.496h1.982c-.131-1.963-1.795-3.047-4.151-3.047-2.3-.02-3.927 1.159-3.927 2.973 0 1.982 1.72 2.45 3.908 2.71 1.477.188 2.356.263 2.356 1.291 0 .767-.823 1.253-2.075 1.253-1.459 0-2.319-.71-2.394-1.702H54.11zm10.69.561c0 1.74.785 2.6 2.618 2.6h1.87V16.09h-1.421c-.767 0-1.029-.28-1.029-1.028V10.07h2.337V8.294h-2.337V5.62H64.8v2.674h-1.664v1.776H64.8v5.198zm14.414.842c-.412 0-.617-.131-.617-.617v-3.834c0-2.262-1.459-3.477-4.002-3.477-2.412 0-4.02 1.159-4.226 3.029h1.982c.15-.842.954-1.403 2.15-1.403 1.328 0 2.095.655 2.095 1.72v.58h-2.412c-2.674 0-4.095 1.103-4.095 3.067 0 1.776 1.458 2.805 3.552 2.805 1.552 0 2.525-.674 3.16-1.646 0 .954.45 1.533 1.758 1.533h1.066V16.11h-.411zm-2.618-2.17c-.019 1.478-.991 2.469-2.674 2.469-1.103 0-1.776-.561-1.776-1.365 0-.972.691-1.44 1.944-1.44h2.506v.337zm9.178-5.758c-1.552 0-2.469.617-3.067 1.365l-.224-1.253h-1.758v9.573h2.02v-4.824c0-1.944.953-3.123 2.561-3.123 1.515 0 2.281.973 2.281 2.787v5.16h2.038v-5.329c0-3.197-1.739-4.356-3.851-4.356zm12.889 1.44c-.617-.842-1.646-1.44-3.104-1.44-2.6 0-4.525 1.944-4.525 4.899 0 3.066 1.926 4.899 4.525 4.899 1.514 0 2.505-.711 3.122-1.552l.243 1.44h1.758V4.777h-2.02v4.843zm-2.768 6.656c-1.683 0-2.786-1.309-2.786-3.197 0-1.87 1.103-3.18 2.786-3.18s2.786 1.31 2.786 3.217c0 1.851-1.103 3.16-2.786 3.16zM5.197 38.868h2.188L9.48 32.36l2.02 6.507h2.169l3.179-9.573H14.79l-2.263 7.33-2.094-7.33H8.582l-2.188 7.33-2.188-7.33H2.075l3.122 9.573zM22.94 29.18c-1.496 0-2.413.674-3.01 1.496v-4.899h-2.02v13.09h2.02v-4.844c0-1.925.971-3.104 2.56-3.104 1.497 0 2.3.973 2.3 2.787v5.16h2.02v-5.329c0-3.197-1.739-4.356-3.87-4.356zm10.177 9.799c2.375 0 3.983-1.44 4.32-3.329h-2.02c-.28 1.066-1.178 1.683-2.412 1.683-1.59 0-2.618-1.066-2.674-2.693v-.13h7.218c.037-.262.056-.524.056-.767-.056-2.805-1.907-4.563-4.675-4.563-2.823 0-4.712 1.964-4.712 4.918 0 2.936 1.889 4.88 4.9 4.88zm-2.71-5.947c.149-1.365 1.252-2.225 2.542-2.225 1.403 0 2.394.804 2.562 2.225h-5.105zm13.88-3.852c-1.553 0-2.469.618-3.067 1.366l-.225-1.253h-1.757v9.573h2.02v-4.824c0-1.944.953-3.122 2.56-3.122 1.515 0 2.282.972 2.282 2.786v5.16h2.038v-5.329c0-3.197-1.739-4.356-3.852-4.356zm11.164 7.087c0 1.74.785 2.6 2.617 2.6h1.87V37.09h-1.42c-.767 0-1.03-.28-1.03-1.028V31.07h2.338v-1.776H57.49V26.62H55.45v2.674h-1.665v1.776h1.665v5.198zm10.096 2.712c2.917 0 4.88-1.964 4.88-4.9 0-2.916-1.963-4.898-4.88-4.898s-4.88 1.982-4.88 4.899c0 2.935 1.963 4.898 4.88 4.898zm0-1.72c-1.701 0-2.805-1.328-2.805-3.18 0-1.85 1.104-3.178 2.805-3.178 1.702 0 2.824 1.327 2.824 3.178 0 1.852-1.122 3.18-2.824 3.18z" fill="#000"/><path d="M18.086 55.26c-2.236 0-3.78.985-4.657 2.476-.825-1.757-2.422-2.476-4.205-2.476-2.05.027-3.22.932-3.992 1.943l-.32-1.783H2.411v13.626h2.874v-7.292c0-2.422 1.224-4.018 3.193-4.018 1.89 0 2.875 1.25 2.875 3.646v7.664h2.9v-7.372c0-2.448 1.251-3.938 3.22-3.938 1.864 0 2.848 1.25 2.848 3.646v7.664h2.875v-7.85c0-4.312-2.29-5.936-5.11-5.936zm20.17 11.285c-.585 0-.878-.187-.878-.879v-5.455c0-3.22-2.076-4.95-5.695-4.95-3.433 0-5.722 1.65-6.015 4.31h2.821c.213-1.197 1.357-1.995 3.06-1.995 1.89 0 2.982.931 2.982 2.448v.825h-3.434c-3.805 0-5.828 1.57-5.828 4.365 0 2.528 2.076 3.992 5.057 3.992 2.209 0 3.592-.958 4.497-2.342 0 1.357.639 2.182 2.502 2.182h1.517v-2.502h-.586zm-3.725-3.088c-.027 2.103-1.411 3.513-3.806 3.513-1.57 0-2.529-.798-2.529-1.942 0-1.384.985-2.05 2.768-2.05h3.567v.48zm5.877 5.59h2.874v-3.46l2.448-2.555 4.019 6.014h3.406L47.7 60.93l5.136-5.509h-3.38l-6.174 6.6V50.417h-2.874v18.63zm19.747.159c3.38 0 5.669-2.05 6.148-4.737h-2.874c-.4 1.517-1.677 2.395-3.433 2.395-2.263 0-3.726-1.517-3.806-3.832v-.187h10.273c.053-.372.08-.745.08-1.09-.08-3.993-2.715-6.495-6.654-6.495-4.019 0-6.706 2.795-6.706 7 0 4.178 2.688 6.946 6.972 6.946zm-3.859-8.463c.213-1.943 1.784-3.167 3.62-3.167 1.996 0 3.406 1.144 3.646 3.167h-7.266zm23.318 8.383l-.532 1.33c-.426 1.118-.692 1.385-1.81 1.385H75.25v2.528h3.087c1.996 0 2.581-.985 3.433-3.194l6.174-15.755h-3.06l-3.7 10.353L77.38 55.42h-3.06l5.295 13.706zm15.6.08c4.153 0 6.947-2.794 6.947-6.973 0-4.152-2.794-6.973-6.946-6.973-4.152 0-6.946 2.821-6.946 6.973 0 4.179 2.794 6.973 6.946 6.973zm0-2.449c-2.421 0-3.991-1.89-3.991-4.524 0-2.635 1.57-4.524 3.992-4.524 2.422 0 4.019 1.89 4.019 4.524 0 2.635-1.597 4.524-4.02 4.524zm18.599-4.524c0 2.821-1.33 4.471-3.512 4.471-2.103 0-3.167-1.357-3.167-4.018V55.42h-2.875v7.585c0 4.657 2.475 6.2 5.376 6.2 2.103 0 3.353-.85 4.205-1.889l.319 1.73h2.529V55.42h-2.875v6.813zm12.6-6.813c-2.235 0-3.327.905-4.019 2.05l-.319-2.05h-2.555v13.626h2.874v-6.84c0-2.102.825-4.098 3.38-4.098h1.278V55.42h-.639zM18.086 79.26c-2.236 0-3.78.985-4.657 2.475-.825-1.756-2.422-2.475-4.205-2.475-2.05.027-3.22.932-3.992 1.943l-.32-1.783H2.411v13.626h2.874v-7.292c0-2.422 1.224-4.019 3.193-4.019 1.89 0 2.875 1.251 2.875 3.647v7.664h2.9v-7.372c0-2.448 1.251-3.939 3.22-3.939 1.864 0 2.848 1.251 2.848 3.647v7.664h2.875v-7.85c0-4.312-2.29-5.936-5.11-5.936zm14.052 13.946c4.151 0 6.946-2.794 6.946-6.973 0-4.152-2.795-6.973-6.946-6.973-4.152 0-6.946 2.821-6.946 6.973 0 4.178 2.794 6.973 6.946 6.973zm0-2.449c-2.422 0-3.992-1.89-3.992-4.524 0-2.635 1.57-4.524 3.992-4.524 2.422 0 4.018 1.89 4.018 4.524 0 2.635-1.596 4.524-4.018 4.524zm12.306 2.29h3.513l5.03-13.627h-3.034l-3.7 10.539-3.752-10.539h-3.087l5.03 13.626zm15.841.159c3.38 0 5.669-2.05 6.148-4.737h-2.874c-.4 1.517-1.677 2.395-3.433 2.395-2.263 0-3.726-1.517-3.806-3.832v-.187h10.273c.053-.372.08-.745.08-1.09-.08-3.993-2.715-6.495-6.654-6.495-4.018 0-6.706 2.795-6.706 7 0 4.178 2.688 6.946 6.972 6.946zm-3.859-8.463c.213-1.943 1.783-3.167 3.62-3.167 1.996 0 3.406 1.144 3.646 3.167h-7.266zm11.472 6.653c0 1.065.772 1.81 1.837 1.81 1.064 0 1.863-.745 1.863-1.81 0-1.064-.799-1.81-1.863-1.81-1.065 0-1.837.746-1.837 1.81z" fill="url(#paint0_linear_101_61)"/><defs><linearGradient id="paint0_linear_101_61" x1="140" y1="72.574" x2="1" y2="72.574" gradientUnits="userSpaceOnUse"><stop stop-color="#FF4343"/><stop offset=".5" stop-color="#9C0B93"/><stop offset="1" stop-color="#4C1BB7"/></linearGradient></defs></svg>