<svg width="160" height="34" viewBox="0 0 160 34" fill="none" xmlns="http://www.w3.org/2000/svg"><rect x="-1.5" width="163" height="34" rx="17" fill="#fff"/><path d="M32.875 14.26c-1.365 0-2.19.63-2.655 1.455-.435-.975-1.35-1.455-2.415-1.455-1.185 0-1.83.585-2.235 1.14l-.165-1.05H24.34V22h1.23v-4.035c0-1.53.765-2.58 2.025-2.58 1.17 0 1.845.78 1.845 2.28V22h1.23v-4.095c0-1.56.78-2.52 2.055-2.52 1.155 0 1.815.78 1.815 2.28V22h1.23v-4.41c0-2.415-1.305-3.33-2.895-3.33zm11.238 6.615c-.345 0-.495-.105-.495-.51V17.02c0-1.785-1.125-2.76-3.075-2.76-1.845 0-3.06.885-3.24 2.385h1.23c.15-.78.87-1.29 1.95-1.29 1.2 0 1.905.6 1.905 1.59v.525h-2.25c-2.01 0-3.075.855-3.075 2.385 0 1.395 1.14 2.235 2.82 2.235 1.32 0 2.085-.585 2.565-1.275.015.75.36 1.185 1.38 1.185h.675v-1.125h-.39zm-1.725-1.995c0 1.275-.885 2.16-2.415 2.16-1.02 0-1.665-.51-1.665-1.26 0-.87.615-1.275 1.71-1.275h2.37v.375zm3.06 3.12h1.23v-2.01l1.545-1.59 2.535 3.6h1.485l-3.195-4.485 2.985-3.165h-1.515l-3.84 4.065V11.5h-1.23V22zm10.747.09c1.77 0 3.03-1.125 3.33-2.655H58.28c-.255.99-1.095 1.56-2.175 1.56-1.455 0-2.37-1.02-2.415-2.475v-.105h5.94c.015-.18.03-.36.03-.525-.06-2.265-1.47-3.63-3.63-3.63s-3.63 1.59-3.63 3.915c0 2.34 1.5 3.915 3.795 3.915zm-2.43-4.695c.12-1.245 1.155-2.055 2.28-2.055 1.275 0 2.175.735 2.295 2.055h-4.575zm13.444 4.65l-.375.93c-.285.72-.405.9-1.11.9H64.63V25h1.47c1.08 0 1.365-.48 1.845-1.71l3.525-8.94h-1.305l-2.28 6.105-2.355-6.105h-1.305l2.985 7.695zm8.366.045c2.235 0 3.795-1.59 3.795-3.915s-1.56-3.915-3.795-3.915-3.795 1.59-3.795 3.915 1.56 3.915 3.795 3.915zm0-1.095c-1.515 0-2.535-1.185-2.535-2.82 0-1.635 1.02-2.82 2.535-2.82 1.515 0 2.535 1.185 2.535 2.82 0 1.635-1.02 2.82-2.535 2.82zm10.56-2.82c0 1.725-.84 2.79-2.235 2.79-1.275 0-1.995-.84-1.995-2.43V14.35h-1.23v4.26c0 2.535 1.335 3.48 3.015 3.48 1.26 0 1.995-.54 2.445-1.11L86.3 22h1.065v-7.65h-1.23v3.825zm6.447-3.825c-1.365 0-1.95.57-2.31 1.155l-.165-1.155h-1.065V22h1.23v-3.9c0-1.215.435-2.55 2.04-2.55h.615v-1.2h-.345zm13.872-.09c-1.365 0-2.19.63-2.655 1.455-.435-.975-1.35-1.455-2.415-1.455-1.185 0-1.83.585-2.235 1.14l-.165-1.05H97.92V22h1.23v-4.035c0-1.53.765-2.58 2.025-2.58 1.17 0 1.845.78 1.845 2.28V22h1.23v-4.095c0-1.56.78-2.52 2.055-2.52 1.155 0 1.815.78 1.815 2.28V22h1.23v-4.41c0-2.415-1.305-3.33-2.895-3.33zm7.91 7.83c2.235 0 3.795-1.59 3.795-3.915s-1.56-3.915-3.795-3.915-3.795 1.59-3.795 3.915 1.56 3.915 3.795 3.915zm0-1.095c-1.515 0-2.535-1.185-2.535-2.82 0-1.635 1.02-2.82 2.535-2.82 1.515 0 2.535 1.185 2.535 2.82 0 1.635-1.02 2.82-2.535 2.82zM121.333 22h1.485l2.865-7.65h-1.29l-2.295 6.255-2.31-6.255h-1.32l2.865 7.65zm8.456.09c1.77 0 3.03-1.125 3.33-2.655h-1.245c-.255.99-1.095 1.56-2.175 1.56-1.455 0-2.37-1.02-2.415-2.475v-.105h5.94c.015-.18.03-.36.03-.525-.06-2.265-1.47-3.63-3.63-3.63s-3.63 1.59-3.63 3.915c0 2.34 1.5 3.915 3.795 3.915zm-2.43-4.695c.12-1.245 1.155-2.055 2.28-2.055 1.275 0 2.175.735 2.295 2.055h-4.575zm6.65 3.855c0 .51.36.84.855.84s.855-.33.855-.84-.36-.84-.855-.84-.855.33-.855.84z" fill="#000"/></svg>