<svg width="147" height="104" viewBox="0 0 147 104" fill="none" xmlns="http://www.w3.org/2000/svg"><path d="M6.646 67.046c.875-.193 1.544-1.004 1.544-2.033 0-1.416-1.184-2.394-3.024-2.394s-3.025.978-3.025 2.394c0 1.08.683 1.84 1.545 2.033-1.017.232-1.802 1.017-1.802 2.24 0 1.454 1.248 2.496 3.282 2.496 2.033 0 3.282-1.042 3.282-2.497 0-1.235-.798-2.007-1.802-2.239zm-3.398-2.033c0-.876.76-1.468 1.918-1.468s1.917.592 1.917 1.468c0 .888-.759 1.48-1.917 1.48s-1.918-.592-1.918-1.48zm1.918 5.843c-1.274 0-2.175-.683-2.175-1.648 0-.952.888-1.634 2.175-1.634s2.175.682 2.175 1.634c0 .965-.888 1.648-2.175 1.648zm4.348-3.45c0 2.69 1.39 4.376 3.423 4.376 2.02 0 3.41-1.686 3.41-4.376v-.412c0-2.56-1.39-4.375-3.41-4.375-2.033 0-3.423 1.814-3.423 4.376v.411zm5.74-.038c0 2.136-.927 3.423-2.317 3.423-1.402 0-2.33-1.287-2.33-3.423v-.335c0-2.136.928-3.423 2.33-3.423 1.39 0 2.317 1.287 2.317 3.423v.335zm4.533.206H17.65v.888h2.137v2.265h.965v-2.265h2.15v-.888h-2.15V65.32h-.965v2.253zm8.11 4.131h1.12v-3.938h3.706v-1.03h-3.707v-3.011h4.479v-1.03h-5.599v9.009zm6.117 0h1.3l2.42-3.771 2.444 3.771h1.326l-3.037-4.698 2.844-4.311h-1.287l-2.252 3.488-2.252-3.488h-1.313l2.844 4.389-3.037 4.62zm15.084-6.641c-1.107 0-1.815.528-2.253 1.133l-.141-1.056h-.914v9.138h1.055v-3.578c.4.63 1.146 1.081 2.253 1.081 1.814 0 3.153-1.351 3.153-3.359 0-2.136-1.339-3.359-3.153-3.359zm-.103 5.779c-1.287 0-2.162-1.004-2.162-2.446 0-1.403.875-2.394 2.162-2.394 1.3 0 2.175.992 2.175 2.42 0 1.429-.875 2.42-2.175 2.42zm10.266-.103c-.296 0-.425-.09-.425-.438v-2.87c0-1.531-.965-2.368-2.638-2.368-1.583 0-2.625.76-2.78 2.046h1.056c.128-.669.746-1.106 1.673-1.106 1.03 0 1.634.514 1.634 1.364v.45h-1.93c-1.725 0-2.639.734-2.639 2.047 0 1.197.978 1.917 2.42 1.917 1.132 0 1.789-.502 2.2-1.094.014.644.31 1.017 1.185 1.017h.579v-.965h-.335zm-1.48-1.712c0 1.094-.76 1.853-2.072 1.853-.875 0-1.428-.437-1.428-1.08 0-.747.527-1.095 1.467-1.095h2.033v.322zm3.167-4.994a.663.663 0 00.682-.682.663.663 0 00-.682-.682.663.663 0 00-.682.682c0 .4.296.682.682.682zm-.54 7.671h1.054v-6.564h-1.055v6.564zm5.537-6.564c-1.17 0-1.673.49-1.981.991l-.142-.99h-.914v6.563h1.056v-3.346c0-1.043.373-2.188 1.75-2.188h.528v-1.03h-.297zm.803 4.402c.025 1.441 1.197 2.24 2.895 2.24 1.455 0 2.626-.76 2.626-1.983 0-1.454-1.197-1.737-2.69-1.917-.952-.116-1.647-.206-1.647-.927 0-.605.618-.991 1.531-.991.901 0 1.519.502 1.596 1.171h1.081c-.103-1.364-1.184-2.06-2.677-2.072-1.48-.013-2.574.772-2.574 1.97 0 1.363 1.172 1.66 2.639 1.84.978.115 1.699.18 1.699 1.003 0 .605-.657 1.004-1.584 1.004-1.093 0-1.775-.566-1.814-1.338h-1.081zm7.068.81c-.54 0-.85.322-.85.747 0 .463.297.695.683.695.154 0 .335-.051.437-.154.013.051.013.103.013.167 0 .438-.257 1.017-1.08 1.03v.604c1.132-.025 1.814-.682 1.814-1.776 0-.707-.386-1.312-1.017-1.312zM2.63 79.035a.663.663 0 00.683-.682.663.663 0 00-.683-.682.663.663 0 00-.682.682c0 .4.296.682.682.682zm-.54 7.671h1.055v-6.564H2.09v6.564zm5.719-6.641c-1.107 0-1.777.463-2.163.965l-.141-.888H4.59v6.564h1.055v-3.282c0-1.48.747-2.394 1.982-2.394 1.146 0 1.776.721 1.776 2.085v3.591h1.056V83.05c0-2.175-1.171-2.986-2.651-2.986zm6.868 6.718c1.596 0 2.664-.9 2.922-2.316h-1.12c-.206.836-.85 1.377-1.789 1.377-1.261 0-2.11-.978-2.11-2.407s.849-2.433 2.11-2.433c.965 0 1.609.528 1.802 1.403h1.107c-.27-1.441-1.287-2.342-2.896-2.342-1.905 0-3.205 1.364-3.205 3.372 0 2.046 1.261 3.346 3.18 3.346zm4.079-.077h1.055v-9.009h-1.055v9.009zm7.095-3.282c0 1.48-.72 2.394-1.917 2.394-1.094 0-1.712-.72-1.712-2.085v-3.59h-1.055v3.654c0 2.175 1.145 2.986 2.586 2.986 1.081 0 1.712-.463 2.098-.952l.142.875h.914v-6.564H25.85v3.282zm7.668-2.278c-.399-.63-1.145-1.081-2.252-1.081-1.815 0-3.153 1.351-3.153 3.36 0 2.135 1.338 3.358 3.153 3.358 1.107 0 1.814-.528 2.252-1.132l.142 1.055h.913v-9.009H33.52v3.45zm-2.15 4.698c-1.3 0-2.174-.991-2.174-2.42 0-1.428.875-2.42 2.175-2.42 1.287 0 2.162 1.004 2.162 2.446 0 1.403-.875 2.394-2.162 2.394zm5.184-6.809a.663.663 0 00.682-.682.663.663 0 00-.682-.682.663.663 0 00-.683.682c0 .4.296.682.683.682zm-.541 7.671h1.055v-6.564h-1.055v6.564zm5.718-6.641c-1.106 0-1.775.463-2.162.965l-.141-.888h-.914v6.564h1.055v-3.282c0-1.48.747-2.394 1.982-2.394 1.146 0 1.776.721 1.776 2.085v3.591h1.056V83.05c0-2.175-1.171-2.986-2.651-2.986zm9.171 1.21c-.412-.734-1.145-1.21-2.252-1.21-1.815 0-3.153 1.351-3.153 3.36 0 2.135 1.338 3.358 3.153 3.358 1.107 0 1.814-.463 2.252-1.21v.773c0 1.428-.747 2.072-2.123 2.072-1.094 0-1.828-.464-2.008-1.287h-1.081c.167 1.441 1.338 2.226 3.011 2.226 2.252 0 3.256-1.08 3.256-2.973v-6.242h-.913l-.142 1.133zm-2.15 4.569c-1.3 0-2.174-.991-2.174-2.42 0-1.428.875-2.42 2.175-2.42 1.287 0 2.162 1.004 2.162 2.446 0 1.403-.875 2.394-2.162 2.394zm12.065.94c1.545 0 2.51-.734 2.922-1.39l.077 1.312h.965v-4.878h-3.796v1.03h2.702v.309c0 1.596-1.197 2.587-2.857 2.587-1.866 0-3.102-1.468-3.102-3.552 0-2.085 1.236-3.553 3.128-3.553 1.364 0 2.33.734 2.638 1.982h1.197c-.309-1.853-1.814-3.011-3.81-3.011-2.612 0-4.298 1.853-4.298 4.582 0 2.728 1.738 4.581 4.234 4.581zm5.715-.078h3.282c2.137 0 3.27-.978 3.27-2.574 0-1.3-.837-1.918-1.79-2.098.85-.296 1.416-.927 1.416-1.956 0-1.454-1.068-2.381-2.986-2.381h-3.192v9.009zm3.244-7.992c1.17 0 1.814.54 1.814 1.441 0 .914-.656 1.454-1.814 1.454H67.65v-2.895h2.124zm.038 3.9c1.339 0 2.124.553 2.124 1.57 0 .926-.734 1.505-2.124 1.505h-2.162v-3.076h2.162zm4.674 4.092h1.12v-3.462h2.342c1.802 0 2.986-1.094 2.986-2.78 0-1.686-1.184-2.767-2.986-2.767h-3.462v9.009zm3.372-7.98c1.184 0 1.93.67 1.93 1.738s-.759 1.75-1.943 1.75h-2.239v-3.487h2.252zm3.408 9.653L84.91 77.31h-1.043l-3.642 11.068h1.042zm4.669-5.521c0 2.574 1.171 3.925 3.423 3.925 2.253 0 3.45-1.351 3.45-3.925v-5.161h-1.12v5.225c0 1.866-.747 2.832-2.33 2.832-1.557 0-2.303-.966-2.303-2.832v-5.225h-1.12v5.16zm8.212.9c.065 1.777 1.352 3.025 3.552 3.025 1.892 0 3.205-1.094 3.205-2.651 0-1.75-1.506-2.24-2.973-2.484-1.351-.232-2.445-.45-2.445-1.532 0-.965.785-1.48 1.956-1.48 1.223 0 2.06.683 2.188 1.725h1.158c-.103-1.622-1.338-2.741-3.346-2.741-1.828 0-3.076 1.03-3.076 2.56 0 1.751 1.493 2.227 2.947 2.472 1.365.232 2.471.463 2.471 1.583 0 .978-.862 1.531-2.072 1.531-1.377 0-2.316-.797-2.406-2.007h-1.159zm11.061 2.948c2.819 0 4.53-1.815 4.53-4.504 0-2.703-1.711-4.505-4.53-4.505h-2.883v9.009h2.883zm-1.763-7.98h1.763c2.188 0 3.385 1.365 3.385 3.476 0 2.097-1.197 3.474-3.385 3.474h-1.763v-6.95zm-94.033 22.04c-.335 0-.566-.064-.824-.36l-.502-.566 1.995-2.999h-1.12l-1.518 2.278-1.802-2.008c1.647-.643 2.188-1.531 2.188-2.522 0-1.12-.901-1.97-2.124-1.97-1.441 0-2.535.927-2.535 2.163 0 .772.232 1.287.888 2.085-1.493.63-2.02 1.634-2.02 2.574 0 1.531 1.248 2.342 2.83 2.342.966 0 1.803-.386 2.536-1.145l.515.579c.335.386.81.489 1.364.489h.978v-.94h-.85zm-3.784-7.258c.682 0 1.133.463 1.133 1.107 0 .759-.528 1.39-1.686 1.853-.592-.695-.811-1.081-.811-1.725 0-.72.54-1.235 1.364-1.235zm-.733 7.336c-1.043 0-1.776-.554-1.776-1.506 0-.81.386-1.3 1.48-1.828.038.026.064.065.09.09l2.097 2.343c-.553.592-1.17.901-1.891.901zm10.269.862h5.907v-1.03h-4.788v-3.037h3.849v-1.03h-3.849v-2.882h4.62v-1.03h-5.74v9.009zm7.112-3.848c0 2.574 1.171 3.925 3.424 3.925 2.252 0 3.449-1.351 3.449-3.925v-5.161h-1.12v5.225c0 1.866-.747 2.832-2.33 2.832-1.557 0-2.303-.966-2.303-2.832v-5.225h-1.12v5.16zm8.573 3.848h1.12v-3.462h2.265l1.904 3.462h1.262l-2.02-3.68c1.157-.323 1.917-1.3 1.917-2.562 0-1.686-1.197-2.767-2.999-2.767h-3.45v9.009zm3.372-7.98c1.171 0 1.93.683 1.93 1.738s-.759 1.75-1.943 1.75h-2.24v-3.487h2.253zm4.527 9.653L42.39 92.31h-1.043l-3.642 11.068h1.043zm8.292-1.596c1.545 0 2.51-.733 2.922-1.39l.077 1.313h.965v-4.878H47.21v1.03h2.702v.309c0 1.596-1.197 2.587-2.857 2.587-1.866 0-3.101-1.468-3.101-3.552 0-2.085 1.235-3.553 3.127-3.553 1.364 0 2.33.734 2.638 1.982h1.197c-.309-1.853-1.814-3.011-3.81-3.011-2.612 0-4.298 1.853-4.298 4.582 0 2.728 1.738 4.581 4.234 4.581zm5.716-.077h3.281c2.137 0 3.27-.978 3.27-2.574 0-1.3-.837-1.918-1.79-2.098.85-.296 1.416-.927 1.416-1.956 0-1.454-1.068-2.381-2.986-2.381h-3.191v9.009zM56 93.713c1.171 0 1.815.54 1.815 1.441 0 .914-.657 1.454-1.815 1.454h-2.124v-2.895H56zm.038 3.9c1.339 0 2.124.553 2.124 1.57 0 .926-.734 1.505-2.124 1.505h-2.162v-3.076h2.162zm4.674 4.092h1.12v-3.462h2.342c1.802 0 2.986-1.094 2.986-2.78 0-1.686-1.184-2.767-2.986-2.767h-3.462v9.009zm3.372-7.98c1.184 0 1.93.67 1.93 1.738s-.758 1.75-1.943 1.75h-2.239v-3.487h2.252z" fill="#000"/><path d="M.44 6.844h4.752V20h2.53V6.844h4.752V4.6H.44v2.244zm18.283 1.892c-1.848 0-2.75.748-3.322 1.694l-.264-1.694h-2.112V20h2.376v-5.654c0-1.738.682-3.388 2.794-3.388h1.056V8.736h-.528zm11.946 9.196c-.484 0-.726-.154-.726-.726v-4.51c0-2.662-1.716-4.092-4.708-4.092-2.838 0-4.73 1.364-4.972 3.564h2.332c.176-.99 1.122-1.65 2.53-1.65 1.562 0 2.464.77 2.464 2.024v.682h-2.838c-3.146 0-4.818 1.298-4.818 3.608 0 2.09 1.716 3.3 4.18 3.3 1.826 0 2.97-.792 3.718-1.936 0 1.122.528 1.804 2.068 1.804h1.254v-2.068h-.484zm-3.08-2.552c-.022 1.738-1.166 2.904-3.146 2.904-1.298 0-2.09-.66-2.09-1.606 0-1.144.814-1.694 2.288-1.694h2.948v.396zm13.33-5.082c-.726-.99-1.936-1.694-3.652-1.694-3.058 0-5.324 2.288-5.324 5.764 0 3.608 2.266 5.764 5.324 5.764 1.782 0 2.948-.836 3.674-1.826L41.227 20h2.068V4.6H40.92v5.698zm-3.256 7.832c-1.98 0-3.278-1.54-3.278-3.762 0-2.2 1.298-3.74 3.278-3.74s3.278 1.54 3.278 3.784c0 2.178-1.298 3.718-3.278 3.718zm13.3 2.002c2.794 0 4.686-1.694 5.082-3.916H53.67c-.33 1.254-1.386 1.98-2.838 1.98-1.87 0-3.08-1.254-3.146-3.168v-.154h8.492c.044-.308.066-.616.066-.902-.066-3.3-2.244-5.368-5.5-5.368-3.322 0-5.544 2.31-5.544 5.786 0 3.454 2.222 5.742 5.764 5.742zm-3.19-6.996c.176-1.606 1.474-2.618 2.992-2.618 1.65 0 2.816.946 3.014 2.618h-6.006zM64.035 20h2.53v-6.512h6.028V11.31h-6.028V6.844h7.304V4.6h-9.834V20zm10.651 0h2.86l3.784-5.918L85.092 20h3.014l-5.126-7.986L87.798 4.6h-2.86l-3.52 5.478L77.964 4.6h-2.992l4.818 7.524L74.686 20zm23.07 0h2.574l2.464-7.656L105.17 20h2.552l3.74-11.264h-2.42l-2.662 8.624-2.464-8.624h-2.178l-2.574 8.624-2.574-8.624h-2.508L97.756 20zm16.167-12.848c.814 0 1.452-.594 1.452-1.43s-.638-1.43-1.452-1.43-1.452.594-1.452 1.43.638 1.43 1.452 1.43zM112.713 20h2.376V8.736h-2.376V20zm5.519-3.058c0 2.046.924 3.058 3.08 3.058h2.2v-2.09h-1.672c-.902 0-1.21-.33-1.21-1.21v-5.874h2.75v-2.09h-2.75V5.59h-2.398v3.146h-1.958v2.09h1.958v6.116zm12.709-8.338c-1.76 0-2.838.792-3.542 1.76V4.6h-2.376V20h2.376v-5.698c0-2.266 1.144-3.652 3.014-3.652 1.76 0 2.706 1.144 2.706 3.278V20h2.376v-6.27c0-3.762-2.046-5.126-4.554-5.126zM6.336 45.132c2.882 0 4.796-1.606 5.236-4.158H9.064c-.286 1.298-1.254 2.134-2.706 2.134-1.914 0-3.168-1.518-3.168-3.718 0-2.222 1.254-3.762 3.168-3.762 1.474 0 2.42.814 2.728 2.134h2.486c-.462-2.552-2.266-4.158-5.17-4.158-3.41 0-5.654 2.31-5.654 5.786 0 3.52 2.178 5.742 5.588 5.742zm12.379 0c3.432 0 5.742-2.31 5.742-5.764 0-3.432-2.31-5.764-5.742-5.764s-5.742 2.332-5.742 5.764c0 3.454 2.31 5.764 5.742 5.764zm0-2.024c-2.002 0-3.3-1.562-3.3-3.74s1.298-3.74 3.3-3.74 3.322 1.562 3.322 3.74-1.32 3.74-3.322 3.74zm13.592-9.504c-1.826 0-2.904.726-3.608 1.606l-.264-1.474h-2.068V45h2.376v-5.676c0-2.288 1.122-3.674 3.014-3.674 1.782 0 2.684 1.144 2.684 3.278V45h2.398v-6.27c0-3.762-2.046-5.126-4.532-5.126zm15.251-1.452c.814 0 1.452-.594 1.452-1.43s-.638-1.43-1.452-1.43-1.452.594-1.452 1.43.638 1.43 1.452 1.43zm-5.346 1.584v-.946c0-.77.308-1.1 1.078-1.1h1.672V29.6H42.96c-2.178 0-3.146 1.034-3.146 3.014v1.122h-1.958v2.09h1.958V45h2.398v-9.174h4.136V45h2.398V33.736h-6.534zm17.399 1.562c-.726-.99-1.936-1.694-3.652-1.694-3.058 0-5.324 2.288-5.324 5.764 0 3.608 2.266 5.764 5.324 5.764 1.782 0 2.948-.836 3.674-1.826L59.919 45h2.068V29.6H59.61v5.698zm-3.256 7.832c-1.98 0-3.278-1.54-3.278-3.762 0-2.2 1.298-3.74 3.278-3.74s3.278 1.54 3.278 3.784c0 2.178-1.298 3.718-3.278 3.718zm13.3 2.002c2.794 0 4.686-1.694 5.082-3.916H72.36c-.33 1.254-1.386 1.98-2.838 1.98-1.87 0-3.08-1.254-3.146-3.168v-.154h8.492c.044-.308.066-.616.066-.902-.066-3.3-2.244-5.368-5.5-5.368-3.322 0-5.544 2.31-5.544 5.786 0 3.454 2.222 5.742 5.764 5.742zm-3.19-6.996c.176-1.606 1.474-2.618 2.992-2.618 1.65 0 2.816.946 3.014 2.618h-6.006zm16.33-4.532c-1.826 0-2.904.726-3.608 1.606l-.263-1.474h-2.069V45h2.376v-5.676c0-2.288 1.123-3.674 3.015-3.674 1.782 0 2.684 1.144 2.684 3.278V45h2.397v-6.27c0-3.762-2.046-5.126-4.531-5.126zm11.777 11.528c2.882 0 4.796-1.606 5.236-4.158H97.3c-.286 1.298-1.254 2.134-2.706 2.134-1.914 0-3.168-1.518-3.168-3.718 0-2.222 1.254-3.762 3.168-3.762 1.474 0 2.42.814 2.728 2.134h2.486c-.462-2.552-2.266-4.158-5.17-4.158-3.41 0-5.654 2.31-5.654 5.786 0 3.52 2.178 5.742 5.588 5.742zm12.401 0c2.794 0 4.686-1.694 5.082-3.916h-2.376c-.33 1.254-1.386 1.98-2.838 1.98-1.87 0-3.08-1.254-3.146-3.168v-.154h8.492c.044-.308.066-.616.066-.902-.066-3.3-2.244-5.368-5.5-5.368-3.322 0-5.544 2.31-5.544 5.786 0 3.454 2.222 5.742 5.764 5.742zm-3.19-6.996c.176-1.606 1.474-2.618 2.992-2.618 1.65 0 2.816.946 3.014 2.618h-6.006z" fill="url(#paint0_linear_1072_206)"/><defs><linearGradient id="paint0_linear_1072_206" x1="147" y1="25.5" x2="0" y2="25.5" gradientUnits="userSpaceOnUse"><stop stop-color="#FF4343"/><stop offset=".5" stop-color="#9C0B93"/><stop offset="1" stop-color="#4C1BB7"/></linearGradient></defs></svg>