<svg width="285" height="15" viewBox="0 0 285 15" fill="none" xmlns="http://www.w3.org/2000/svg"><path d="M.72 9.9c.08 2.8 2.18 4.72 5.66 4.72 3.08 0 5.18-1.74 5.18-4.26.02-2.76-2.24-3.5-4.56-3.92-2.2-.38-3.64-.68-3.64-2.12 0-1.32 1.1-2 2.68-2 1.7 0 2.82.96 3 2.38h2.3c-.1-2.58-2.1-4.32-5.3-4.32-2.98 0-4.98 1.66-4.98 4.1 0 2.78 2.2 3.52 4.52 3.92 2.22.4 3.68.72 3.68 2.2 0 1.34-1.2 2.08-2.86 2.08-1.96 0-3.24-1.1-3.36-2.74L.72 9.9zm24.425-5.76c-1.68 0-2.84.74-3.5 1.86-.62-1.32-1.82-1.86-3.16-1.86-1.54.02-2.42.7-3 1.46l-.24-1.34h-1.88V14.5h2.16V9.02c0-1.82.92-3.02 2.4-3.02 1.42 0 2.16.94 2.16 2.74v5.76h2.18V8.96c0-1.84.94-2.96 2.42-2.96 1.4 0 2.14.94 2.14 2.74v5.76h2.16V8.6c0-3.24-1.72-4.46-3.84-4.46zm15.158 8.48c-.44 0-.66-.14-.66-.66v-4.1c0-2.42-1.56-3.72-4.28-3.72-2.58 0-4.3 1.24-4.52 3.24h2.12c.16-.9 1.02-1.5 2.3-1.5 1.42 0 2.24.7 2.24 1.84v.62h-2.58c-2.86 0-4.38 1.18-4.38 3.28 0 1.9 1.56 3 3.8 3 1.66 0 2.7-.72 3.38-1.76 0 1.02.48 1.64 1.88 1.64h1.14v-1.88h-.44zm-2.8-2.32c-.02 1.58-1.06 2.64-2.86 2.64-1.18 0-1.9-.6-1.9-1.46 0-1.04.74-1.54 2.08-1.54h2.68v.36zm9.596-6.04c-1.68 0-2.5.68-3.02 1.54l-.24-1.54h-1.92V14.5h2.16V9.36c0-1.58.62-3.08 2.54-3.08h.96V4.26h-.48zm2.924 7.46c0 1.86.84 2.78 2.8 2.78h2v-1.9h-1.52c-.82 0-1.1-.3-1.1-1.1V6.16h2.5v-1.9h-2.5V1.4h-2.18v2.86h-1.78v1.9h1.78v5.56zm12.03 0c0 1.86.84 2.78 2.8 2.78h2v-1.9h-1.52c-.82 0-1.1-.3-1.1-1.1V6.16h2.5v-1.9h-2.5V1.4h-2.18v2.86h-1.78v1.9h1.78v5.56zm11.355-7.46c-1.68 0-2.5.68-3.02 1.54l-.24-1.54h-1.92V14.5h2.16V9.36c0-1.58.62-3.08 2.54-3.08h.96V4.26h-.48zm10.86 8.36c-.44 0-.66-.14-.66-.66v-4.1c0-2.42-1.56-3.72-4.28-3.72-2.58 0-4.3 1.24-4.52 3.24h2.12c.16-.9 1.02-1.5 2.3-1.5 1.42 0 2.24.7 2.24 1.84v.62h-2.58c-2.86 0-4.38 1.18-4.38 3.28 0 1.9 1.56 3 3.8 3 1.66 0 2.7-.72 3.38-1.76 0 1.02.48 1.64 1.88 1.64h1.14v-1.88h-.44zm-2.8-2.32c-.02 1.58-1.06 2.64-2.86 2.64-1.18 0-1.9-.6-1.9-1.46 0-1.04.74-1.54 2.08-1.54h2.68v.36zm12.118-4.62c-.66-.9-1.76-1.54-3.32-1.54-2.78 0-4.84 2.08-4.84 5.24 0 3.28 2.06 5.24 4.84 5.24 1.62 0 2.68-.76 3.34-1.66l.26 1.54h1.88V.5h-2.16v5.18zm-2.96 7.12c-1.8 0-2.98-1.4-2.98-3.42 0-2 1.18-3.4 2.98-3.4s2.98 1.4 2.98 3.44c0 1.98-1.18 3.38-2.98 3.38zm12.091 1.82c2.54 0 4.26-1.54 4.62-3.56h-2.16c-.3 1.14-1.26 1.8-2.58 1.8-1.7 0-2.8-1.14-2.86-2.88v-.14h7.72c.04-.28.06-.56.06-.82-.06-3-2.04-4.88-5-4.88-3.02 0-5.04 2.1-5.04 5.26 0 3.14 2.02 5.22 5.24 5.22zm-2.9-6.36c.16-1.46 1.34-2.38 2.72-2.38 1.5 0 2.56.86 2.74 2.38h-5.46zm14.626-4c-1.68 0-2.5.68-3.02 1.54l-.24-1.54h-1.92V14.5h2.16V9.36c0-1.58.62-3.08 2.54-3.08h.96V4.26h-.48zm1.197 6.86c.06 2.22 1.94 3.5 4.68 3.5 2.48 0 4.34-1.24 4.34-3.2 0-2.28-1.9-2.76-4.24-3.04-1.48-.16-2.46-.28-2.46-1.24 0-.82.84-1.34 2.12-1.34 1.28 0 2.16.66 2.28 1.6h2.12c-.14-2.1-1.92-3.26-4.44-3.26-2.46-.02-4.2 1.24-4.2 3.18 0 2.12 1.84 2.62 4.18 2.9 1.58.2 2.52.28 2.52 1.38 0 .82-.88 1.34-2.22 1.34-1.56 0-2.48-.76-2.56-1.82h-2.12zm21.211-6.98c-1.66 0-2.64.66-3.28 1.46l-.24-1.34h-1.88V14.5h2.16V9.34c0-2.08 1.02-3.34 2.74-3.34 1.62 0 2.44 1.04 2.44 2.98v5.52h2.18V8.8c0-3.42-1.86-4.66-4.12-4.66zm10.866 10.48c2.54 0 4.26-1.54 4.62-3.56h-2.16c-.3 1.14-1.26 1.8-2.58 1.8-1.7 0-2.8-1.14-2.86-2.88v-.14h7.72c.04-.28.06-.56.06-.82-.06-3-2.04-4.88-5-4.88-3.02 0-5.04 2.1-5.04 5.26 0 3.14 2.02 5.22 5.24 5.22zm-2.9-6.36c.16-1.46 1.34-2.38 2.72-2.38 1.5 0 2.56.86 2.74 2.38h-5.46zm14.306 6.36c2.54 0 4.26-1.54 4.62-3.56h-2.16c-.3 1.14-1.26 1.8-2.58 1.8-1.7 0-2.8-1.14-2.86-2.88v-.14h7.72c.04-.28.06-.56.06-.82-.06-3-2.04-4.88-5-4.88-3.02 0-5.04 2.1-5.04 5.26 0 3.14 2.02 5.22 5.24 5.22zm-2.9-6.36c.16-1.46 1.34-2.38 2.72-2.38 1.5 0 2.56.86 2.74 2.38h-5.46zm17.226-2.58c-.66-.9-1.76-1.54-3.32-1.54-2.78 0-4.84 2.08-4.84 5.24 0 3.28 2.06 5.24 4.84 5.24 1.62 0 2.68-.76 3.34-1.66l.26 1.54h1.88V.5h-2.16v5.18zm-2.96 7.12c-1.8 0-2.98-1.4-2.98-3.42 0-2 1.18-3.4 2.98-3.4s2.98 1.4 2.98 3.44c0 1.98-1.18 3.38-2.98 3.38zm11.908-1.68c.06 2.22 1.94 3.5 4.68 3.5 2.48 0 4.34-1.24 4.34-3.2 0-2.28-1.9-2.76-4.24-3.04-1.48-.16-2.46-.28-2.46-1.24 0-.82.84-1.34 2.12-1.34 1.28 0 2.16.66 2.28 1.6h2.12c-.14-2.1-1.92-3.26-4.44-3.26-2.46-.02-4.2 1.24-4.2 3.18 0 2.12 1.84 2.62 4.18 2.9 1.58.2 2.52.28 2.52 1.38 0 .82-.88 1.34-2.22 1.34-1.56 0-2.48-.76-2.56-1.82h-2.12zm22.474-6.98c-1.68 0-2.84.74-3.5 1.86-.62-1.32-1.82-1.86-3.16-1.86-1.54.02-2.42.7-3 1.46l-.24-1.34h-1.88V14.5h2.16V9.02c0-1.82.92-3.02 2.4-3.02 1.42 0 2.16.94 2.16 2.74v5.76h2.18V8.96c0-1.84.94-2.96 2.42-2.96 1.4 0 2.14.94 2.14 2.74v5.76h2.16V8.6c0-3.24-1.72-4.46-3.84-4.46zm15.158 8.48c-.44 0-.66-.14-.66-.66v-4.1c0-2.42-1.56-3.72-4.28-3.72-2.58 0-4.3 1.24-4.52 3.24h2.12c.16-.9 1.02-1.5 2.3-1.5 1.42 0 2.24.7 2.24 1.84v.62h-2.58c-2.86 0-4.38 1.18-4.38 3.28 0 1.9 1.56 3 3.8 3 1.66 0 2.7-.72 3.38-1.76 0 1.02.48 1.64 1.88 1.64h1.14v-1.88h-.44zm-2.8-2.32c-.02 1.58-1.06 2.64-2.86 2.64-1.18 0-1.9-.6-1.9-1.46 0-1.04.74-1.54 2.08-1.54h2.68v.36zm9.597-6.04c-1.68 0-2.5.68-3.02 1.54l-.24-1.54h-1.92V14.5h2.16V9.36c0-1.58.62-3.08 2.54-3.08h.96V4.26h-.48zm2.923 7.46c0 1.86.84 2.78 2.8 2.78h2v-1.9h-1.52c-.82 0-1.1-.3-1.1-1.1V6.16h2.5v-1.9h-2.5V1.4h-2.18v2.86h-1.78v1.9h1.78v5.56zm12.031 0c0 1.86.84 2.78 2.8 2.78h2v-1.9h-1.52c-.82 0-1.1-.3-1.1-1.1V6.16h2.5v-1.9h-2.5V1.4h-2.18v2.86H240v1.9h1.78v5.56zm10.82 2.9c2.54 0 4.26-1.54 4.62-3.56h-2.16c-.3 1.14-1.26 1.8-2.58 1.8-1.7 0-2.8-1.14-2.86-2.88v-.14h7.72c.04-.28.06-.56.06-.82-.06-3-2.04-4.88-5-4.88-3.02 0-5.04 2.1-5.04 5.26 0 3.14 2.02 5.22 5.24 5.22zm-2.9-6.36c.16-1.46 1.34-2.38 2.72-2.38 1.5 0 2.56.86 2.74 2.38h-5.46zm14.146 6.36c2.62 0 4.36-1.46 4.76-3.78h-2.28c-.26 1.18-1.14 1.94-2.46 1.94-1.74 0-2.88-1.38-2.88-3.38 0-2.02 1.14-3.42 2.88-3.42 1.34 0 2.2.74 2.48 1.94h2.26c-.42-2.32-2.06-3.78-4.7-3.78-3.1 0-5.14 2.1-5.14 5.26 0 3.2 1.98 5.22 5.08 5.22zm11.793-10.48c-1.6 0-2.58.72-3.22 1.6V.5h-2.16v14h2.16V9.32c0-2.06 1.04-3.32 2.74-3.32 1.6 0 2.46 1.04 2.46 2.98v5.52h2.16V8.8c0-3.42-1.86-4.66-4.14-4.66zm5.905 9.12c0 .8.58 1.36 1.38 1.36.8 0 1.4-.56 1.4-1.36s-.6-1.36-1.4-1.36c-.8 0-1.38.56-1.38 1.36z" fill="#000"/></svg>