<svg width="90" height="26" viewBox="0 0 90 26" fill="none" xmlns="http://www.w3.org/2000/svg"><rect width="90" height="26" rx="13" fill="#000"/><path d="M14.26 9.94h2.951V18h1.131V9.94h2.951V8.9H14.26v1.04zm10.43 1.43c-1.183 0-1.69.494-2.002 1.001l-.143-1.001h-.923V18h1.066v-3.38c0-1.053.377-2.21 1.768-2.21h.533v-1.04h-.3zm6.857 5.655c-.299 0-.429-.091-.429-.442v-2.899c0-1.547-.975-2.392-2.665-2.392-1.599 0-2.652.767-2.808 2.067h1.066c.13-.676.754-1.118 1.69-1.118 1.04 0 1.651.52 1.651 1.378v.455h-1.95c-1.742 0-2.665.741-2.665 2.067 0 1.209.988 1.937 2.444 1.937 1.144 0 1.807-.507 2.223-1.105.013.65.312 1.027 1.196 1.027h.585v-.975h-.338zm-1.495-1.729c0 1.105-.767 1.872-2.093 1.872-.884 0-1.443-.442-1.443-1.092 0-.754.533-1.105 1.482-1.105h2.054v.325zm7.802-2.912c-.403-.637-1.157-1.092-2.275-1.092-1.833 0-3.185 1.365-3.185 3.393 0 2.158 1.352 3.393 3.185 3.393 1.118 0 1.833-.533 2.275-1.144L37.997 18h.923V8.9h-1.066v3.484zm-2.17 4.745c-1.314 0-2.198-1.001-2.198-2.444s.884-2.444 2.197-2.444c1.3 0 2.184 1.014 2.184 2.47 0 1.417-.884 2.418-2.184 2.418zm7.744.949c1.534 0 2.626-.975 2.886-2.301h-1.08c-.22.858-.949 1.352-1.885 1.352-1.26 0-2.053-.884-2.092-2.145v-.091h5.148c.012-.156.026-.312.026-.455-.052-1.963-1.274-3.146-3.146-3.146-1.872 0-3.146 1.378-3.146 3.393 0 2.028 1.3 3.393 3.288 3.393zm-2.106-4.069c.103-1.079 1-1.781 1.975-1.781 1.106 0 1.886.637 1.99 1.781h-3.965zm12.977-2.717c-1.118 0-1.794.468-2.184.975l-.143-.897h-.923V18h1.066v-3.315c0-1.495.754-2.418 2.002-2.418 1.157 0 1.794.728 1.794 2.106V18h1.066v-3.692c0-2.197-1.183-3.016-2.678-3.016zm7.016 6.786c1.937 0 3.29-1.378 3.29-3.393 0-2.015-1.353-3.393-3.29-3.393s-3.289 1.378-3.289 3.393c0 2.015 1.352 3.393 3.29 3.393zm0-.949c-1.313 0-2.197-1.027-2.197-2.444s.884-2.444 2.197-2.444c1.313 0 2.197 1.027 2.197 2.444s-.884 2.444-2.197 2.444zm5.817.871h1.17l1.664-4.927L71.565 18h1.17l2.21-6.63h-1.08l-1.728 5.395-1.651-5.395h-.988l-1.742 5.395-1.651-5.395h-1.118L67.132 18z" fill="#fff"/></svg>