<svg width="45" height="15" viewBox="0 0 45 15" fill="none" xmlns="http://www.w3.org/2000/svg"><rect x=".991" y=".108" width="44" height="14" rx="7" fill="#000"/><path d="M5.248 7.639c.032.885.674 1.507 1.77 1.507.944 0 1.598-.545 1.598-1.321 0-.873-.75-1.117-1.482-1.238-.673-.116-1.219-.225-1.219-.764 0-.481.392-.738.976-.738.609 0 1.026.34 1.09.86h.578c-.052-.808-.668-1.367-1.668-1.367-.912 0-1.534.514-1.534 1.277 0 .873.744 1.11 1.47 1.232.68.115 1.231.231 1.231.79 0 .487-.43.763-1.033.763-.686 0-1.155-.398-1.2-1.001h-.577zm4.244.616c0 .577.224.853.853.853h.57v-.481h-.519c-.282 0-.378-.103-.378-.379v-1.93h.847v-.482h-.847v-.918h-.526v.918h-.59v.481h.59v1.938zm4.723.372c-.147 0-.211-.045-.211-.218V6.978c0-.764-.482-1.18-1.316-1.18-.789 0-1.309.378-1.386 1.02h.527c.064-.334.372-.552.834-.552.513 0 .814.256.814.68v.224h-.962c-.86 0-1.315.366-1.315 1.02 0 .597.487.956 1.206.956.565 0 .892-.25 1.097-.545.006.32.154.507.59.507h.289v-.481h-.167zm-.738-.854c0 .546-.378.924-1.033.924-.436 0-.712-.218-.712-.539 0-.372.263-.545.732-.545h1.013v.16zm2.824-1.937c-.584 0-.834.244-.988.494l-.071-.494h-.456v3.272h.527V7.44c0-.52.186-1.09.872-1.09h.263v-.514h-.147zm.954 2.419c0 .577.224.853.853.853h.57v-.481h-.519c-.282 0-.378-.103-.378-.379v-1.93h.847v-.482h-.847v-.918h-.526v.918h-.59v.481h.59v1.938zm3.803 0c0 .577.224.853.853.853h.57v-.481h-.519c-.282 0-.378-.103-.378-.379v-1.93h.847v-.482h-.847v-.918h-.526v.918h-.59v.481h.59v1.938zm3.394-2.42c-.584 0-.834.245-.988.495l-.07-.494h-.456v3.272h.526V7.44c0-.52.186-1.09.873-1.09h.262v-.514h-.147zm3.384 2.792c-.147 0-.211-.045-.211-.218V6.978c0-.764-.482-1.18-1.316-1.18-.789 0-1.309.378-1.386 1.02h.527c.064-.334.372-.552.834-.552.513 0 .815.256.815.68v.224h-.963c-.86 0-1.315.366-1.315 1.02 0 .597.487.956 1.206.956.565 0 .892-.25 1.097-.545.007.32.154.507.59.507h.29v-.481h-.168zm-.737-.854c0 .546-.38.924-1.034.924-.436 0-.712-.218-.712-.539 0-.372.263-.545.732-.545h1.014v.16zm3.85-1.437c-.199-.314-.57-.539-1.123-.539-.904 0-1.572.674-1.572 1.675 0 1.065.668 1.674 1.572 1.674.552 0 .905-.263 1.123-.564l.07.526h.456V4.617h-.526v1.72zm-1.071 2.342c-.648 0-1.085-.494-1.085-1.206s.437-1.206 1.085-1.206c.641 0 1.078.5 1.078 1.219 0 .7-.437 1.193-1.078 1.193zm2.583-3.394a.33.33 0 00.34-.34.33.33 0 00-.34-.34.33.33 0 00-.34.34c0 .199.148.34.34.34zm-.27 3.824h.527V5.836h-.526v3.272zm2.852-3.31c-.552 0-.886.23-1.078.48l-.07-.442h-.456v3.272h.526V7.472c0-.738.372-1.193.988-1.193.57 0 .885.359.885 1.039v1.79h.526V7.286c0-1.084-.584-1.489-1.321-1.489zm4.571.603c-.205-.366-.57-.604-1.123-.604-.904 0-1.572.674-1.572 1.675 0 1.065.668 1.674 1.572 1.674.552 0 .905-.23 1.123-.603v.385c0 .712-.372 1.033-1.058 1.033-.546 0-.911-.23-1.001-.641h-.54c.084.718.668 1.11 1.502 1.11 1.123 0 1.623-.54 1.623-1.482V5.836h-.455l-.07.564zm-1.071 2.277c-.648 0-1.084-.494-1.084-1.206s.436-1.206 1.084-1.206c.641 0 1.078.5 1.078 1.219 0 .7-.437 1.193-1.078 1.193z" fill="#fff"/></svg>