<svg width="139" height="20" viewBox="0 0 139 20" fill="none" xmlns="http://www.w3.org/2000/svg"><path d="M.52 3.452h5.616V19h2.99V3.452h5.616V.8H.52v2.652zm21.608 2.236c-2.184 0-3.25.884-3.926 2.002l-.312-2.002h-2.496V19h2.808v-6.682c0-2.054.806-4.004 3.302-4.004h1.248V5.688h-.624zm14.117 10.868c-.572 0-.858-.182-.858-.858v-5.33c0-3.146-2.028-4.836-5.564-4.836-3.354 0-5.59 1.612-5.876 4.212h2.756c.208-1.17 1.326-1.95 2.99-1.95 1.846 0 2.912.91 2.912 2.392v.806h-3.354c-3.718 0-5.694 1.534-5.694 4.264 0 2.47 2.028 3.9 4.94 3.9 2.158 0 3.51-.936 4.394-2.288 0 1.326.624 2.132 2.444 2.132h1.482v-2.444h-.572zm-3.64-3.016c-.026 2.054-1.378 3.432-3.718 3.432-1.534 0-2.47-.78-2.47-1.898 0-1.352.962-2.002 2.704-2.002h3.484v.468zM48.36 7.534c-.858-1.17-2.288-2.002-4.316-2.002-3.614 0-6.292 2.704-6.292 6.812 0 4.264 2.678 6.812 6.292 6.812 2.106 0 3.484-.988 4.342-2.158L48.723 19h2.444V.8H48.36v6.734zm-3.848 9.256c-2.34 0-3.874-1.82-3.874-4.446 0-2.6 1.534-4.42 3.874-4.42s3.874 1.82 3.874 4.472c0 2.574-1.534 4.394-3.874 4.394zm15.718 2.366c3.302 0 5.538-2.002 6.006-4.628h-2.808c-.39 1.482-1.638 2.34-3.354 2.34-2.21 0-3.64-1.482-3.718-3.744v-.182h10.036c.052-.364.078-.728.078-1.066-.078-3.9-2.652-6.344-6.5-6.344-3.926 0-6.552 2.73-6.552 6.838 0 4.082 2.626 6.786 6.812 6.786zm-3.77-8.268c.208-1.898 1.742-3.094 3.536-3.094 1.95 0 3.328 1.118 3.562 3.094H56.46zM75.678 19h2.99v-7.696h7.124V8.73h-7.124V3.452H87.3V.8H75.678V19zm18.955.156c4.056 0 6.786-2.73 6.786-6.812 0-4.056-2.73-6.812-6.786-6.812-4.056 0-6.786 2.756-6.786 6.812 0 4.082 2.73 6.812 6.786 6.812zm0-2.392c-2.366 0-3.9-1.846-3.9-4.42s1.534-4.42 3.9-4.42c2.366 0 3.926 1.846 3.926 4.42s-1.56 4.42-3.926 4.42zM110.41 5.688c-2.184 0-3.25.884-3.926 2.002l-.312-2.002h-2.496V19h2.808v-6.682c0-2.054.806-4.004 3.302-4.004h1.248V5.688h-.624zm8.039 13.468c3.302 0 5.538-2.002 6.006-4.628h-2.808c-.39 1.482-1.638 2.34-3.354 2.34-2.21 0-3.64-1.482-3.718-3.744v-.182h10.036c.052-.364.078-.728.078-1.066-.078-3.9-2.652-6.344-6.5-6.344-3.926 0-6.552 2.73-6.552 6.838 0 4.082 2.626 6.786 6.812 6.786zm-3.77-8.268c.208-1.898 1.742-3.094 3.536-3.094 1.95 0 3.328 1.118 3.562 3.094h-7.098zM124.973 19h3.094l3.51-4.836L135.061 19h3.276l-5.018-6.812 4.732-6.5h-3.094l-3.25 4.498-3.172-4.498h-3.276l4.706 6.5L124.973 19z" fill="#000"/></svg>