<svg width="1711" height="1093" viewBox="0 0 1711 1093" fill="none" xmlns="http://www.w3.org/2000/svg"><path d="M0 .5v1092h1711V.5H0zm1524.05 932.155c-20.46 0-122.77-2.27-162.55-2.27-42.06 0-169.37 2.27-190.97 2.27v-15.891l36.37-5.675c35.24-5.676 50.02-14.757 50.02-36.323 0-18.161-11.37-40.863-36.38-79.455l-127.31-194.097-127.312 174.801c-29.554 40.862-43.195 71.509-43.195 94.211 0 22.701 13.641 36.322 48.879 41.997l37.508 5.676v15.891c-20.457 0-111.395-2.27-152.317-2.27-40.922 0-105.715 2.27-127.312 2.27v-17.026l19.324-3.406c51.152-9.08 98.895-52.213 137.543-101.021L1070.5 571.702 889.758 303.825c-42.059-62.429-71.613-90.806-117.082-98.751l-23.871-4.541v-15.891c20.461 0 122.765 2.27 162.55 2.27 42.059 0 167.095-2.27 188.695-2.27v15.891l-36.37 5.675c-30.7 4.541-47.75 14.756-47.75 36.323 0 18.161 11.37 40.862 36.38 79.455l109.12 167.991 106.86-149.83c28.41-40.862 43.19-71.51 43.19-93.076 0-21.566-14.78-36.322-48.88-41.997l-37.51-5.676v-15.891c20.46 0 111.4 2.27 152.32 2.27 40.92 0 105.72-2.27 127.31-2.27v15.891l-19.32 3.405c-51.15 9.081-97.76 47.673-137.54 101.022l-164.83 215.664 200.06 292.848c42.06 62.429 71.62 90.806 117.09 98.752l23.87 4.54v17.026z" fill="#fff"/></svg>