<svg width="142" height="30" viewBox="0 0 142 30" fill="none" xmlns="http://www.w3.org/2000/svg"><rect x=".5" y=".5" width="141" height="29" rx="14.5" fill="#fff"/><path d="M21.452 20.5h1.218v-3.766h2.464l2.072 3.766h1.372l-2.198-4.004c1.26-.35 2.086-1.414 2.086-2.786 0-1.834-1.302-3.01-3.262-3.01h-3.752v9.8zm3.668-8.68c1.274 0 2.1.742 2.1 1.89s-.826 1.904-2.114 1.904H22.67V11.82h2.45zm10.736 7.63c-.322 0-.462-.098-.462-.476v-3.122c0-1.666-1.05-2.576-2.87-2.576-1.722 0-2.856.826-3.024 2.226h1.148c.14-.728.812-1.204 1.82-1.204 1.12 0 1.778.56 1.778 1.484v.49h-2.1c-1.876 0-2.87.798-2.87 2.226 0 1.302 1.064 2.086 2.632 2.086 1.232 0 1.946-.546 2.394-1.19.014.7.336 1.106 1.288 1.106h.63v-1.05h-.364zm-1.61-1.862c0 1.19-.826 2.016-2.254 2.016-.952 0-1.554-.476-1.554-1.176 0-.812.574-1.19 1.596-1.19h2.212v.35zm4.303 2.912h1.26l1.792-5.306 1.722 5.306h1.26l2.38-7.14h-1.162l-1.862 5.81-1.778-5.81h-1.064l-1.876 5.81-1.778-5.81h-1.204l2.31 7.14zm13.145 0h1.218v-4.284h4.032v-1.12h-4.032V11.82h4.872V10.7h-6.09v9.8zm6.655 0h1.414l2.632-4.102 2.66 4.102h1.442l-3.304-5.11 3.094-4.69h-1.4l-2.45 3.794-2.45-3.794h-1.428l3.094 4.774-3.304 5.026zm19.124-1.05c-.322 0-.462-.098-.462-.476v-3.122c0-1.666-1.05-2.576-2.87-2.576-1.722 0-2.856.826-3.024 2.226h1.148c.14-.728.812-1.204 1.82-1.204 1.12 0 1.778.56 1.778 1.484v.49h-2.1c-1.876 0-2.87.798-2.87 2.226 0 1.302 1.064 2.086 2.632 2.086 1.232 0 1.946-.546 2.394-1.19.014.7.336 1.106 1.288 1.106h.63v-1.05h-.364zm-1.61-1.862c0 1.19-.826 2.016-2.254 2.016-.952 0-1.554-.476-1.554-1.176 0-.812.574-1.19 1.596-1.19h2.212v.35zm5.98 2.996c1.736 0 2.898-.98 3.178-2.52h-1.218c-.224.91-.924 1.498-1.945 1.498-1.373 0-2.297-1.064-2.297-2.618 0-1.554.924-2.646 2.296-2.646 1.05 0 1.75.574 1.96 1.526h1.205c-.294-1.568-1.4-2.548-3.15-2.548-2.073 0-3.487 1.484-3.487 3.668 0 2.226 1.372 3.64 3.459 3.64zm7.643 0c1.736 0 2.898-.98 3.178-2.52h-1.218c-.224.91-.924 1.498-1.946 1.498-1.372 0-2.296-1.064-2.296-2.618 0-1.554.924-2.646 2.296-2.646 1.05 0 1.75.574 1.96 1.526h1.204c-.294-1.568-1.4-2.548-3.15-2.548-2.072 0-3.486 1.484-3.486 3.668 0 2.226 1.372 3.64 3.458 3.64zm7.727 0c2.086 0 3.542-1.484 3.542-3.654s-1.456-3.654-3.542-3.654-3.542 1.484-3.542 3.654 1.456 3.654 3.542 3.654zm0-1.022c-1.414 0-2.366-1.106-2.366-2.632s.952-2.632 2.366-2.632c1.414 0 2.366 1.106 2.366 2.632s-.952 2.632-2.366 2.632zm9.856-2.632c0 1.61-.784 2.604-2.086 2.604-1.19 0-1.862-.784-1.862-2.268V13.36h-1.148v3.976c0 2.366 1.246 3.248 2.814 3.248 1.176 0 1.862-.504 2.282-1.036l.154.952h.994v-7.14h-1.148v3.57zm6.213-3.654c-1.204 0-1.932.504-2.352 1.05l-.154-.966h-.994v7.14h1.148v-3.57c0-1.61.812-2.604 2.156-2.604 1.246 0 1.932.784 1.932 2.268V20.5h1.148v-3.976c0-2.366-1.274-3.248-2.884-3.248zm4.88 5.362c0 1.26.49 1.862 1.862 1.862h1.246v-1.05h-1.134c-.616 0-.826-.224-.826-.826V14.41h1.848v-1.05h-1.848v-2.002h-1.148v2.002h-1.288v1.05h1.288v4.228z" fill="#000"/></svg>