<svg width="135" height="11" viewBox="0 0 135 11" fill="none" xmlns="http://www.w3.org/2000/svg"><path d="M.66 8h1.184V.79H.659V8zM5.83 2.665c-.854 0-1.36.34-1.689.752l-.123-.69H3.05V8h1.113V5.343c0-1.072.525-1.72 1.411-1.72.834 0 1.257.535 1.257 1.534V8h1.122V5.064c0-1.76-.958-2.4-2.122-2.4zm3.515 3.903c0 .958.433 1.432 1.442 1.432h1.03v-.979h-.783c-.422 0-.566-.154-.566-.566v-2.75h1.287v-.979H10.47V1.254H9.346v1.472h-.917v.979h.917v2.863zm5.572 1.494c1.308 0 2.194-.793 2.38-1.834h-1.113c-.155.588-.65.927-1.329.927-.875 0-1.442-.587-1.473-1.483V5.6h3.976c.02-.144.03-.288.03-.422-.03-1.545-1.05-2.513-2.574-2.513-1.555 0-2.596 1.081-2.596 2.708 0 1.618 1.04 2.689 2.699 2.689zm-1.494-3.276c.083-.751.69-1.225 1.401-1.225.773 0 1.319.443 1.411 1.225h-2.812zm7.533-2.06c-.865 0-1.288.35-1.555.793l-.124-.793h-.989V8h1.113V5.353c0-.814.319-1.586 1.308-1.586h.494v-1.04h-.247zm3.185 5.336c1.308 0 2.194-.793 2.379-1.834h-1.112c-.155.588-.65.927-1.33.927-.875 0-1.441-.587-1.472-1.483V5.6h3.976c.02-.144.03-.288.03-.422-.03-1.545-1.05-2.513-2.574-2.513-1.556 0-2.596 1.081-2.596 2.708 0 1.618 1.04 2.689 2.699 2.689zm-1.494-3.276c.083-.751.69-1.225 1.401-1.225.773 0 1.318.443 1.411 1.225h-2.812zm4.608 1.473c.031 1.144 1 1.803 2.41 1.803 1.278 0 2.235-.639 2.235-1.648 0-1.174-.978-1.422-2.183-1.566-.762-.082-1.267-.144-1.267-.638 0-.423.433-.69 1.092-.69s1.112.34 1.174.823h1.092c-.072-1.081-.989-1.678-2.287-1.678-1.267-.01-2.163.638-2.163 1.637 0 1.092.948 1.35 2.153 1.494.814.103 1.298.144 1.298.71 0 .423-.453.69-1.144.69-.803 0-1.277-.39-1.318-.937h-1.092zm5.889.31c0 .957.432 1.431 1.442 1.431h1.03v-.979h-.783c-.422 0-.567-.154-.567-.566v-2.75h1.288v-.979h-1.288V1.254h-1.122v1.472h-.917v.979h.917v2.863zm5.572 1.493c1.308 0 2.194-.793 2.379-1.834h-1.112c-.155.588-.65.927-1.33.927-.875 0-1.441-.587-1.472-1.483V5.6h3.976c.02-.144.03-.288.03-.422-.03-1.545-1.05-2.513-2.574-2.513-1.556 0-2.596 1.081-2.596 2.708 0 1.618 1.04 2.689 2.699 2.689zm-1.494-3.276c.083-.751.69-1.225 1.4-1.225.773 0 1.32.443 1.412 1.225h-2.812zm8.872-1.328c-.34-.464-.907-.793-1.71-.793-1.432 0-2.493 1.07-2.493 2.698 0 1.69 1.061 2.699 2.493 2.699.834 0 1.38-.392 1.72-.855l.134.793h.968V.79h-1.112v2.668zM44.57 7.125c-.927 0-1.535-.721-1.535-1.762 0-1.03.608-1.75 1.535-1.75.927 0 1.535.72 1.535 1.77 0 1.02-.608 1.742-1.535 1.742zm6.926-5.14c.381 0 .68-.278.68-.67a.658.658 0 00-.68-.67.658.658 0 00-.68.67c0 .392.299.67.68.67zM50.929 8h1.113V2.726h-1.113V8zm4.984-5.335c-.855 0-1.36.34-1.689.752l-.124-.69h-.968V8h1.113V5.343c0-1.072.525-1.72 1.41-1.72.835 0 1.257.535 1.257 1.534V8h1.123V5.064c0-1.76-.958-2.4-2.122-2.4zm5.542 3.594c.031 1.144 1 1.803 2.41 1.803 1.278 0 2.236-.639 2.236-1.648 0-1.174-.979-1.422-2.184-1.566-.762-.082-1.267-.144-1.267-.638 0-.423.433-.69 1.092-.69.66 0 1.112.34 1.174.823h1.092c-.072-1.081-.989-1.678-2.287-1.678-1.266-.01-2.163.638-2.163 1.637 0 1.092.948 1.35 2.153 1.494.814.103 1.298.144 1.298.71 0 .423-.453.69-1.143.69-.804 0-1.278-.39-1.319-.937h-1.092zm8.33-3.594c-.824 0-1.37.38-1.72.844l-.134-.783h-.968v7.334h1.112V7.258c.33.474.896.804 1.71.804 1.442 0 2.493-1.071 2.493-2.699 0-1.689-1.051-2.698-2.493-2.698zm-.185 4.46c-.927 0-1.535-.732-1.535-1.782 0-1.02.608-1.73 1.535-1.73.927 0 1.545.71 1.545 1.75 0 1.03-.618 1.761-1.545 1.761zm6.237-4.399c-.866 0-1.288.35-1.556.793l-.123-.793h-.99V8h1.113V5.353c0-.814.32-1.586 1.308-1.586h.495v-1.04h-.247zm3.184 5.336c1.308 0 2.194-.793 2.38-1.834h-1.113c-.154.588-.649.927-1.328.927-.876 0-1.442-.587-1.473-1.483V5.6h3.976c.02-.144.03-.288.03-.422-.03-1.545-1.05-2.513-2.575-2.513-1.555 0-2.595 1.081-2.595 2.708 0 1.618 1.04 2.689 2.698 2.689zm-1.493-3.276c.082-.751.69-1.225 1.4-1.225.773 0 1.32.443 1.412 1.225h-2.812zm9.685 2.246c-.226 0-.34-.072-.34-.34V4.58c0-1.246-.803-1.915-2.204-1.915-1.329 0-2.215.638-2.328 1.668h1.092c.082-.463.525-.772 1.184-.772.732 0 1.154.36 1.154.947v.32h-1.329c-1.472 0-2.255.607-2.255 1.689 0 .978.803 1.545 1.957 1.545.855 0 1.39-.371 1.74-.907 0 .526.248.845.969.845h.587v-.968h-.227zm-1.442-1.195c-.01.814-.546 1.36-1.473 1.36-.608 0-.978-.31-.978-.752 0-.536.38-.793 1.07-.793h1.381v.185zm6.241-2.38c-.34-.463-.906-.792-1.71-.792-1.431 0-2.492 1.07-2.492 2.698 0 1.69 1.06 2.699 2.492 2.699.835 0 1.38-.392 1.72-.855l.134.793h.968V.79h-1.112v2.668zm-1.524 3.668c-.927 0-1.535-.721-1.535-1.762 0-1.03.608-1.75 1.535-1.75.927 0 1.534.72 1.534 1.77 0 1.02-.607 1.742-1.534 1.742zm9.181-4.46c-.814 0-1.36.37-1.71.844V.79h-1.112V8h.968l.134-.762c.33.474.896.824 1.72.824 1.442 0 2.493-1.082 2.493-2.699 0-1.7-1.051-2.698-2.493-2.698zm-.185 4.46c-.927 0-1.535-.732-1.535-1.772 0-1.02.608-1.74 1.535-1.74.927 0 1.545.72 1.545 1.75 0 1.04-.618 1.761-1.545 1.761zm6.072.937c1.308 0 2.194-.793 2.379-1.834h-1.112c-.155.588-.649.927-1.329.927-.875 0-1.442-.587-1.473-1.483V5.6h3.976c.021-.144.031-.288.031-.422-.031-1.545-1.051-2.513-2.575-2.513-1.555 0-2.596 1.081-2.596 2.708 0 1.618 1.041 2.689 2.699 2.689zm-1.494-3.276c.083-.751.691-1.225 1.401-1.225.773 0 1.319.443 1.411 1.225h-2.812zm10.016 2.236c-.391 0-.546-.155-.546-.567v-2.75h1.278v-.979h-1.278V1.254h-1.112v1.472h-2.029V1.254h-1.123v1.472h-.917v.979h.917v2.863c0 .958.433 1.432 1.442 1.432h.917v-.979h-.69c-.402 0-.546-.154-.546-.566v-2.75h2.029v2.863c0 .958.422 1.432 1.432 1.432h1.071v-.979h-.845zm2.125-5.037c.381 0 .68-.278.68-.67a.658.658 0 00-.68-.67.658.658 0 00-.68.67c0 .392.299.67.68.67zM115.636 8h1.113V2.726h-1.113V8zm4.984-5.335c-.855 0-1.359.34-1.689.752l-.124-.69h-.968V8h1.113V5.343c0-1.072.525-1.72 1.411-1.72.834 0 1.256.535 1.256 1.534V8h1.123V5.064c0-1.76-.958-2.4-2.122-2.4zm7.161.885c-.34-.525-.906-.885-1.73-.885-1.432 0-2.493 1.06-2.493 2.678 0 1.678 1.061 2.678 2.493 2.678.824 0 1.369-.34 1.72-.866v.587c0 1.01-.546 1.473-1.514 1.473-.783 0-1.298-.34-1.432-.927h-1.133c.103 1.185 1.081 1.834 2.482 1.834 1.895 0 2.699-.907 2.699-2.338V2.726h-.968l-.124.824zm-1.545 3.533c-.927 0-1.535-.71-1.535-1.74 0-1.02.608-1.741 1.535-1.741.927 0 1.535.72 1.535 1.761 0 1.01-.608 1.72-1.535 1.72zm4.61-3.934c0-.855.515-1.432 1.308-1.432.69 0 1.153.412 1.153 1 0 .494-.268.823-.731 1.132-.618.402-1.102.742-1.102 1.576v.33h1.05v-.206c0-.515.351-.783.907-1.164.535-.381 1.03-.835 1.03-1.782 0-1.082-.886-1.875-2.318-1.875-1.534 0-2.43 1.082-2.43 2.42h1.133zm.473 4.223c0 .412.309.69.711.69.402 0 .7-.278.7-.69 0-.412-.298-.69-.7-.69-.402 0-.711.278-.711.69z" fill="#000"/></svg>