<svg width="115" height="33" viewBox="0 0 115 33" fill="none" xmlns="http://www.w3.org/2000/svg"><rect width="115" height="33" rx="16.5" fill="#000"/><path d="M21.035 21.59c2.37 0 4.11-1.35 4.5-3.525h-1.38c-.39 1.47-1.515 2.325-3.135 2.325-2.205 0-3.555-1.725-3.555-4.14 0-2.43 1.41-4.14 3.615-4.14 1.575 0 2.685.87 3.09 2.325h1.38c-.39-2.175-2.085-3.525-4.41-3.525-3.045 0-5.01 2.16-5.01 5.34 0 3.21 1.89 5.34 4.905 5.34zm5.896-.09h1.23V11h-1.23v10.5zm9.68-1.125c-.345 0-.495-.105-.495-.51V16.52c0-1.785-1.125-2.76-3.075-2.76-1.845 0-3.06.885-3.24 2.385h1.23c.15-.78.87-1.29 1.95-1.29 1.2 0 1.905.6 1.905 1.59v.525h-2.25c-2.01 0-3.075.855-3.075 2.385 0 1.395 1.14 2.235 2.82 2.235 1.32 0 2.085-.585 2.565-1.275.015.75.36 1.185 1.38 1.185H37v-1.125h-.39zm-1.725-1.995c0 1.275-.885 2.16-2.415 2.16-1.02 0-1.665-.51-1.665-1.26 0-.87.615-1.275 1.71-1.275h2.37v.375zm3.69-5.82c.45 0 .795-.33.795-.795a.773.773 0 00-.795-.795c-.45 0-.795.33-.795.795s.345.795.795.795zm-.63 8.94h1.23v-7.65h-1.23v7.65zm11.45-7.74c-1.364 0-2.19.63-2.654 1.455-.435-.975-1.35-1.455-2.415-1.455-1.185 0-1.83.585-2.235 1.14l-.166-1.05h-1.065v7.65h1.23v-4.035c0-1.53.765-2.58 2.026-2.58 1.17 0 1.845.78 1.845 2.28V21.5h1.23v-4.095c0-1.56.78-2.52 2.054-2.52 1.155 0 1.816.78 1.816 2.28V21.5h1.23v-4.41c0-2.415-1.306-3.33-2.895-3.33zm12.254 0c-1.29 0-2.115.615-2.625 1.32V11h-1.23v10.5h1.065l.165-1.17c.465.735 1.335 1.26 2.625 1.26 2.115 0 3.675-1.575 3.675-3.915 0-2.49-1.56-3.915-3.675-3.915zm-.12 6.735c-1.5 0-2.52-1.17-2.52-2.85 0-1.635 1.02-2.79 2.52-2.79 1.515 0 2.535 1.155 2.535 2.82 0 1.665-1.02 2.82-2.535 2.82zm8.726 1.095c2.235 0 3.795-1.59 3.795-3.915s-1.56-3.915-3.795-3.915-3.795 1.59-3.795 3.915 1.56 3.915 3.795 3.915zm0-1.095c-1.515 0-2.535-1.185-2.535-2.82 0-1.635 1.02-2.82 2.535-2.82 1.515 0 2.535 1.185 2.535 2.82 0 1.635-1.02 2.82-2.535 2.82zm8.955-6.735c-1.29 0-2.07.54-2.52 1.125l-.165-1.035h-1.065v7.65h1.23v-3.825c0-1.725.87-2.79 2.31-2.79 1.335 0 2.07.84 2.07 2.43V21.5h1.23v-4.26c0-2.535-1.365-3.48-3.09-3.48zm10.013 3.915c0 1.725-.84 2.79-2.235 2.79-1.275 0-1.995-.84-1.995-2.43V13.85h-1.23v4.26c0 2.535 1.335 3.48 3.015 3.48 1.26 0 1.995-.54 2.445-1.11l.165 1.02h1.065v-7.65h-1.23v3.825zm2.592 1.305c.03 1.68 1.395 2.61 3.375 2.61 1.695 0 3.06-.885 3.06-2.31 0-1.695-1.395-2.025-3.135-2.235-1.11-.135-1.92-.24-1.92-1.08 0-.705.72-1.155 1.785-1.155 1.05 0 1.77.585 1.86 1.365h1.26c-.12-1.59-1.38-2.4-3.12-2.415-1.725-.015-3 .9-3 2.295 0 1.59 1.365 1.935 3.075 2.145 1.14.135 1.98.21 1.98 1.17 0 .705-.765 1.17-1.845 1.17-1.275 0-2.07-.66-2.115-1.56h-1.26z" fill="#fff"/></svg>