<svg width="120" height="73" viewBox="0 0 120 73" fill="none" xmlns="http://www.w3.org/2000/svg"><path d="M4.62 16h2.97l3.102-11.33L13.838 16h2.948L21.208.6h-2.596l-3.3 12.188L11.968.6H9.57L6.138 12.788 2.86.578.242.6 4.62 16zm22.302.132c2.794 0 4.686-1.694 5.082-3.916h-2.376c-.33 1.254-1.386 1.98-2.838 1.98-1.87 0-3.08-1.254-3.146-3.168v-.154h8.492c.044-.308.066-.616.066-.902-.066-3.3-2.244-5.368-5.5-5.368-3.322 0-5.544 2.31-5.544 5.786 0 3.454 2.222 5.742 5.764 5.742zm-3.19-6.996c.176-1.606 1.474-2.618 2.992-2.618 1.65 0 2.816.946 3.014 2.618h-6.006zm24.622-2.64c-.726-1.122-1.936-1.892-3.696-1.892-3.058 0-5.324 2.266-5.324 5.72 0 3.586 2.266 5.72 5.324 5.72 1.76 0 2.926-.726 3.674-1.848v1.254c0 2.156-1.166 3.146-3.234 3.146-1.672 0-2.772-.726-3.058-1.98h-2.42c.22 2.53 2.31 3.916 5.302 3.916 4.048 0 5.764-1.936 5.764-4.994V4.736h-2.068l-.264 1.76zm-3.3 7.546c-1.98 0-3.278-1.518-3.278-3.718 0-2.178 1.298-3.718 3.278-3.718s3.278 1.54 3.278 3.762c0 2.156-1.298 3.674-3.278 3.674zm13.278 2.09c3.432 0 5.742-2.31 5.742-5.764 0-3.432-2.31-5.764-5.742-5.764s-5.742 2.332-5.742 5.764c0 3.454 2.31 5.764 5.742 5.764zm0-2.024c-2.002 0-3.3-1.562-3.3-3.74s1.298-3.74 3.3-3.74 3.322 1.562 3.322 3.74-1.32 3.74-3.322 3.74zm14.095-1.166c0 2.046.924 3.058 3.08 3.058h2.2v-2.09h-1.672c-.902 0-1.21-.33-1.21-1.21V6.826h2.75v-2.09h-2.75V1.59h-2.398v3.146H70.47v2.09h1.958v6.116zm11.88 3.19c3.431 0 5.741-2.31 5.741-5.764 0-3.432-2.31-5.764-5.742-5.764s-5.742 2.332-5.742 5.764c0 3.454 2.31 5.764 5.742 5.764zm0-2.024c-2.003 0-3.3-1.562-3.3-3.74s1.297-3.74 3.3-3.74c2.001 0 3.321 1.562 3.321 3.74s-1.32 3.74-3.322 3.74zM.747 32.826h6.028l-6.292 7.48V42h9.768v-2.09H3.674l6.292-7.48v-1.694H.748v2.09zm15.99 9.306c2.795 0 4.687-1.694 5.083-3.916h-2.376c-.33 1.254-1.386 1.98-2.838 1.98-1.87 0-3.08-1.254-3.146-3.168v-.154h8.492c.044-.308.066-.616.066-.902-.066-3.3-2.244-5.368-5.5-5.368-3.322 0-5.544 2.31-5.544 5.786 0 3.454 2.222 5.742 5.764 5.742zm-3.19-6.996c.177-1.606 1.475-2.618 2.993-2.618 1.65 0 2.816.946 3.014 2.618h-6.006zm16.09-4.4c-1.849 0-2.75.748-3.323 1.694l-.264-1.694H23.94V42h2.376v-5.654c0-1.738.682-3.388 2.794-3.388h1.056v-2.222h-.528zm6.78 11.396c3.432 0 5.742-2.31 5.742-5.764 0-3.432-2.31-5.764-5.742-5.764s-5.742 2.332-5.742 5.764c0 3.454 2.31 5.764 5.742 5.764zm0-2.024c-2.002 0-3.3-1.562-3.3-3.74s1.298-3.74 3.3-3.74 3.322 1.562 3.322 3.74-1.32 3.74-3.322 3.74zm8.065-.946c-1.012 0-1.672.66-1.672 1.496 0 .946.572 1.408 1.298 1.408.264 0 .528-.066.726-.22.022.088.022.198.022.286 0 .77-.55 1.628-1.936 1.65v1.276c2.178-.022 3.542-1.232 3.542-3.366 0-1.408-.77-2.53-1.98-2.53zm8.965-.88c.066 2.442 2.134 3.85 5.148 3.85 2.728 0 4.774-1.364 4.774-3.52 0-2.508-2.09-3.036-4.664-3.344C57.078 35.092 56 34.96 56 33.904c0-.902.924-1.474 2.332-1.474s2.376.726 2.508 1.76h2.332c-.154-2.31-2.112-3.586-4.884-3.586-2.706-.022-4.62 1.364-4.62 3.498 0 2.332 2.024 2.882 4.598 3.19 1.738.22 2.772.308 2.772 1.518 0 .902-.968 1.474-2.442 1.474-1.716 0-2.728-.836-2.816-2.002h-2.332zm17.087 3.85c3.432 0 5.742-2.31 5.742-5.764 0-3.432-2.31-5.764-5.742-5.764s-5.742 2.332-5.742 5.764c0 3.454 2.31 5.764 5.742 5.764zm0-2.024c-2.002 0-3.3-1.562-3.3-3.74s1.298-3.74 3.3-3.74 3.322 1.562 3.322 3.74-1.32 3.74-3.322 3.74zm16.537 1.958l-.44 1.1c-.352.924-.572 1.144-1.496 1.144h-1.672v2.09h2.552c1.65 0 2.134-.814 2.838-2.64l5.104-13.024h-2.53l-3.058 8.558-3.146-8.558h-2.53l4.378 11.33zm12.897.066c3.432 0 5.742-2.31 5.742-5.764 0-3.432-2.31-5.764-5.742-5.764s-5.742 2.332-5.742 5.764c0 3.454 2.31 5.764 5.742 5.764zm0-2.024c-2.002 0-3.3-1.562-3.3-3.74s1.297-3.74 3.3-3.74c2.002 0 3.322 1.562 3.322 3.74s-1.32 3.74-3.322 3.74zm15.374-3.74c0 2.332-1.1 3.696-2.904 3.696-1.738 0-2.618-1.122-2.618-3.322v-6.006h-2.376v6.27c0 3.85 2.046 5.126 4.444 5.126 1.738 0 2.772-.704 3.476-1.562l.264 1.43h2.09V30.736h-2.376v5.632zM6.336 68.132c2.882 0 4.796-1.606 5.236-4.158H9.064c-.286 1.298-1.254 2.134-2.706 2.134-1.914 0-3.168-1.518-3.168-3.718 0-2.222 1.254-3.762 3.168-3.762 1.474 0 2.42.814 2.728 2.134h2.486c-.462-2.552-2.266-4.158-5.17-4.158-3.41 0-5.654 2.31-5.654 5.786 0 3.52 2.178 5.742 5.588 5.742zm17.35-2.2c-.483 0-.725-.154-.725-.726v-4.51c0-2.662-1.716-4.092-4.708-4.092-2.838 0-4.73 1.364-4.972 3.564h2.332c.176-.99 1.122-1.65 2.53-1.65 1.562 0 2.464.77 2.464 2.024v.682h-2.838c-3.146 0-4.818 1.298-4.818 3.608 0 2.09 1.716 3.3 4.18 3.3 1.826 0 2.97-.792 3.718-1.936 0 1.122.528 1.804 2.068 1.804h1.254v-2.068h-.484zm-3.08-2.552c-.021 1.738-1.165 2.904-3.145 2.904-1.298 0-2.09-.66-2.09-1.606 0-1.144.814-1.694 2.288-1.694h2.948v.396zm10.799-6.776c-1.826 0-2.904.726-3.608 1.606l-.264-1.474h-2.068V68h2.376v-5.676c0-2.288 1.122-3.674 3.014-3.674 1.782 0 2.684 1.144 2.684 3.278V68h2.398v-6.27c0-3.762-2.046-5.126-4.532-5.126zm20.923 1.892c-.726-1.122-1.936-1.892-3.696-1.892-3.057 0-5.323 2.266-5.323 5.72 0 3.586 2.266 5.72 5.324 5.72 1.76 0 2.925-.726 3.673-1.848v1.254c0 2.156-1.165 3.146-3.233 3.146-1.672 0-2.773-.726-3.059-1.98h-2.42c.22 2.53 2.31 3.916 5.303 3.916 4.047 0 5.764-1.936 5.764-4.994V56.736h-2.069l-.264 1.76zm-3.3 7.546c-1.98 0-3.277-1.518-3.277-3.718 0-2.178 1.297-3.718 3.278-3.718 1.98 0 3.277 1.54 3.277 3.762 0 2.156-1.297 3.674-3.277 3.674zm13.278 2.09c3.432 0 5.742-2.31 5.742-5.764 0-3.432-2.31-5.764-5.742-5.764s-5.742 2.332-5.742 5.764c0 3.454 2.31 5.764 5.742 5.764zm0-2.024c-2.002 0-3.3-1.562-3.3-3.74s1.298-3.74 3.3-3.74 3.322 1.562 3.322 3.74-1.32 3.74-3.322 3.74zm14.096-1.166c0 2.046.924 3.058 3.08 3.058h2.2v-2.09H80.01c-.902 0-1.21-.33-1.21-1.21v-5.874h2.75v-2.09H78.8V53.59h-2.398v3.146h-1.958v2.09h1.958v6.116zm11.879 3.19c3.432 0 5.742-2.31 5.742-5.764 0-3.432-2.31-5.764-5.742-5.764s-5.742 2.332-5.742 5.764c0 3.454 2.31 5.764 5.742 5.764zm0-2.024c-2.002 0-3.3-1.562-3.3-3.74s1.298-3.74 3.3-3.74 3.322 1.562 3.322 3.74-1.32 3.74-3.322 3.74zm15.767-11.946c0 .814-.33 1.386-1.122 1.386h-2.398v2.09h2.508c.418 0 .748-.066.968-.198V68h2.442V52.6h-2.398v1.562zm7.477 0c0 .814-.33 1.386-1.122 1.386h-2.398v2.09h2.508c.418 0 .748-.066.968-.198V68h2.442V52.6h-2.398v1.562zm4.771 12.474c0 .88.638 1.496 1.518 1.496s1.54-.616 1.54-1.496-.66-1.496-1.54-1.496-1.518.616-1.518 1.496z" fill="#000"/></svg>