<svg width="157" height="8" viewBox="0 0 157 8" fill="none" xmlns="http://www.w3.org/2000/svg"><path d="M3.227 3.151c.535-.118.944-.614.944-1.243 0-.866-.724-1.464-1.85-1.464-1.125 0-1.849.598-1.849 1.464 0 .66.417 1.125.945 1.243-.622.142-1.102.622-1.102 1.37 0 .889.763 1.526 2.007 1.526 1.243 0 2.006-.637 2.006-1.527 0-.755-.487-1.227-1.101-1.369zM1.149 1.908c0-.536.464-.898 1.173-.898.708 0 1.172.362 1.172.898 0 .543-.464.905-1.172.905-.709 0-1.173-.362-1.173-.905zM2.322 5.48c-.78 0-1.33-.418-1.33-1.008 0-.582.543-1 1.33-1s1.33.418 1.33 1c0 .59-.543 1.008-1.33 1.008zM4.98 3.37c0 1.645.85 2.676 2.094 2.676 1.235 0 2.085-1.03 2.085-2.676V3.12c0-1.567-.85-2.676-2.085-2.676C5.83.444 4.98 1.554 4.98 3.12v.251zm3.51-.023c0 1.306-.566 2.093-1.416 2.093-.858 0-1.425-.787-1.425-2.093v-.205c0-1.306.567-2.093 1.425-2.093.85 0 1.417.787 1.417 2.093v.205zm2.772.126H9.956v.543h1.306v1.385h.59V4.017h1.315v-.543h-1.315V2.096h-.59v1.378zM16.222 6h.684V3.592h2.267v-.63h-2.267V1.121h2.739V.49H16.22V6zm3.74 0h.795l1.48-2.306L23.732 6h.81l-1.857-2.873 1.74-2.636h-.788L22.26 2.624 20.883.49h-.803l1.74 2.684L19.962 6zm9.224-4.06c-.677 0-1.11.322-1.377.692l-.087-.646h-.559v5.588h.646V5.386c.244.386.7.661 1.377.661 1.11 0 1.928-.826 1.928-2.054 0-1.306-.818-2.054-1.928-2.054zm-.063 3.533c-.787 0-1.322-.614-1.322-1.496 0-.857.535-1.463 1.322-1.463.795 0 1.33.606 1.33 1.48 0 .873-.535 1.479-1.33 1.479zm6.278-.063c-.181 0-.26-.055-.26-.268V3.387c0-.936-.59-1.448-1.613-1.448-.968 0-1.606.464-1.7 1.251h.645c.079-.409.457-.676 1.023-.676.63 0 1 .314 1 .834v.275h-1.18c-1.055 0-1.614.449-1.614 1.252 0 .731.598 1.172 1.48 1.172.692 0 1.093-.307 1.345-.669.008.394.19.622.724.622h.355v-.59H35.4zm-.905-1.047c0 .669-.465 1.133-1.267 1.133-.535 0-.874-.267-.874-.66 0-.457.323-.67.897-.67h1.244v.197zm1.936-3.054a.405.405 0 00.417-.417.405.405 0 00-.417-.417.405.405 0 00-.417.417c0 .244.181.417.417.417zM36.102 6h.645V1.986h-.645V6zm3.386-4.014c-.716 0-1.023.3-1.212.606l-.086-.606h-.559V6h.645V3.954c0-.638.229-1.338 1.07-1.338h.323v-.63h-.18zm.491 2.692c.016.881.732 1.37 1.77 1.37.89 0 1.606-.465 1.606-1.213 0-.89-.732-1.062-1.645-1.172-.582-.071-1.007-.126-1.007-.567 0-.37.378-.606.937-.606.55 0 .928.307.975.716h.661c-.062-.834-.724-1.259-1.636-1.267-.906-.008-1.574.472-1.574 1.204 0 .834.716 1.015 1.613 1.126.598.07 1.039.11 1.039.613 0 .37-.402.614-.968.614-.67 0-1.086-.346-1.11-.818h-.661zm4.322.496c-.33 0-.52.196-.52.456 0 .283.182.425.418.425a.397.397 0 00.268-.094c.007.031.007.063.007.102 0 .268-.157.622-.66.63v.37c.692-.016 1.109-.418 1.109-1.087 0-.432-.236-.802-.622-.802zm3.721-3.865a.405.405 0 00.417-.417.405.405 0 00-.417-.417.405.405 0 00-.417.417c0 .244.18.417.417.417zM47.692 6h.645V1.986h-.646V6zm3.496-4.06c-.676 0-1.086.282-1.322.59l-.086-.544h-.56V6h.646V3.993c0-.905.457-1.464 1.212-1.464.7 0 1.086.441 1.086 1.275V6h.646V3.765c0-1.33-.717-1.826-1.622-1.826zm4.2 4.107c.976 0 1.63-.55 1.787-1.416h-.685c-.126.511-.52.842-1.094.842-.77 0-1.29-.598-1.29-1.472s.52-1.487 1.29-1.487c.59 0 .984.322 1.102.857h.677c-.165-.881-.787-1.432-1.77-1.432-1.166 0-1.96.834-1.96 2.062 0 1.251.77 2.046 1.944 2.046zM57.883 6h.645V.491h-.645V6zm4.338-2.007c0 .905-.44 1.464-1.172 1.464-.67 0-1.047-.44-1.047-1.275V1.986h-.645v2.235c0 1.33.7 1.826 1.582 1.826.66 0 1.046-.283 1.282-.582l.087.535h.559V1.986h-.645v2.007zm4.69-1.393c-.245-.385-.701-.66-1.378-.66-1.11 0-1.928.825-1.928 2.053 0 1.307.818 2.054 1.928 2.054.677 0 1.11-.322 1.377-.692l.087.645h.559V.491h-.646v2.11zm-1.315 2.873c-.795 0-1.33-.606-1.33-1.48 0-.873.535-1.48 1.33-1.48.787 0 1.322.614 1.322 1.496 0 .858-.535 1.464-1.322 1.464zm3.17-4.164a.405.405 0 00.416-.417.405.405 0 00-.417-.417.405.405 0 00-.417.417c0 .244.181.417.417.417zM68.434 6h.645V1.986h-.645V6zm3.497-4.06c-.677 0-1.086.282-1.323.59l-.086-.544h-.559V6h.645V3.993c0-.905.457-1.464 1.213-1.464.7 0 1.086.441 1.086 1.275V6h.645V3.765c0-1.33-.716-1.826-1.621-1.826zm5.607.739c-.251-.449-.7-.74-1.377-.74-1.11 0-1.928.826-1.928 2.054 0 1.307.819 2.054 1.928 2.054.677 0 1.11-.283 1.377-.74v.473c0 .873-.456 1.267-1.298 1.267-.67 0-1.118-.284-1.228-.787h-.66c.101.881.818 1.361 1.84 1.361 1.378 0 1.992-.66 1.992-1.818V1.986h-.559l-.087.693zm-1.314 2.794c-.795 0-1.33-.606-1.33-1.48 0-.873.535-1.48 1.33-1.48.787 0 1.322.614 1.322 1.496 0 .858-.535 1.464-1.322 1.464zm7.378.574c.944 0 1.534-.448 1.786-.85l.047.803h.59V3.017h-2.321v.63h1.653v.189c0 .976-.732 1.582-1.748 1.582-1.14 0-1.896-.898-1.896-2.173 0-1.274.755-2.172 1.912-2.172.834 0 1.425.449 1.614 1.212h.732c-.19-1.133-1.11-1.841-2.33-1.841-1.598 0-2.629 1.133-2.629 2.801 0 1.669 1.063 2.802 2.59 2.802zM87.098 6h2.006c1.307 0 2-.598 2-1.574 0-.795-.512-1.173-1.095-1.283.52-.18.866-.566.866-1.196 0-.89-.653-1.456-1.826-1.456h-1.952V6zm1.983-4.887c.716 0 1.11.33 1.11.881 0 .559-.402.89-1.11.89h-1.299V1.112h1.299zm.023 2.384c.819 0 1.299.339 1.299.96 0 .567-.449.921-1.299.921h-1.322v-1.88h1.322zM91.962 6h.685V3.883h1.432c1.102 0 1.826-.669 1.826-1.7 0-1.03-.724-1.692-1.826-1.692h-2.117V6zm2.062-4.88c.724 0 1.18.41 1.18 1.063s-.463 1.07-1.188 1.07h-1.369V1.121h1.377zm2.084 5.903L98.336.255h-.638l-2.227 6.768h.637zm2.855-3.376c0 1.574.716 2.4 2.094 2.4 1.377 0 2.109-.826 2.109-2.4V.49h-.685v3.195c0 1.141-.456 1.732-1.424 1.732-.953 0-1.41-.59-1.41-1.732V.491h-.684v3.156zm5.022.55c.039 1.087.826 1.85 2.172 1.85 1.157 0 1.96-.669 1.96-1.621 0-1.07-.921-1.37-1.818-1.519-.826-.142-1.495-.275-1.495-.936 0-.59.48-.905 1.196-.905.748 0 1.259.417 1.338 1.054h.708c-.063-.992-.818-1.676-2.046-1.676-1.118 0-1.881.63-1.881 1.566 0 1.07.913 1.361 1.802 1.511.834.142 1.511.283 1.511.968 0 .598-.527.936-1.267.936-.842 0-1.416-.487-1.472-1.227h-.708zM110.749 6c1.723 0 2.77-1.11 2.77-2.755 0-1.652-1.047-2.754-2.77-2.754h-1.763V6h1.763zm-1.078-4.88h1.078c1.338 0 2.07.835 2.07 2.125 0 1.283-.732 2.125-2.07 2.125h-1.078V1.12zm11.153 4.305c-.204 0-.346-.039-.503-.22l-.307-.346 1.22-1.834h-.685l-.929 1.393-1.101-1.228c1.007-.393 1.337-.936 1.337-1.542 0-.685-.55-1.204-1.298-1.204-.882 0-1.55.566-1.55 1.322 0 .472.141.787.543 1.275-.913.386-1.236 1-1.236 1.574 0 .936.763 1.432 1.731 1.432.591 0 1.102-.236 1.551-.7l.315.354c.204.236.495.299.834.299h.598v-.575h-.52zM118.511.987c.417 0 .692.283.692.677 0 .464-.322.85-1.031 1.133-.362-.425-.496-.661-.496-1.055 0-.44.331-.755.835-.755zm-.449 4.486c-.637 0-1.086-.339-1.086-.921 0-.496.236-.795.905-1.118.024.016.039.04.055.055l1.283 1.433c-.338.362-.716.55-1.157.55zm6.28.527h3.612v-.63h-2.928V3.513h2.353v-.63h-2.353V1.121h2.826V.49h-3.51V6zm4.349-2.353c0 1.574.716 2.4 2.093 2.4 1.378 0 2.11-.826 2.11-2.4V.49h-.685v3.195c0 1.141-.457 1.732-1.425 1.732-.952 0-1.408-.59-1.408-1.732V.491h-.685v3.156zM133.933 6h.685V3.883h1.385L137.168 6h.771l-1.236-2.25c.709-.198 1.173-.796 1.173-1.567 0-1.03-.732-1.692-1.834-1.692h-2.109V6zm2.062-4.88c.716 0 1.181.418 1.181 1.063s-.465 1.07-1.189 1.07h-1.369V1.121h1.377zm2.768 5.903L140.99.255h-.637l-2.227 6.768h.637zm5.071-.976c.945 0 1.535-.448 1.787-.85l.047.803h.59V3.017h-2.321v.63h1.652v.189c0 .976-.732 1.582-1.747 1.582-1.141 0-1.897-.898-1.897-2.173 0-1.274.756-2.172 1.913-2.172.834 0 1.424.449 1.613 1.212h.732c-.189-1.133-1.11-1.841-2.329-1.841-1.598 0-2.629 1.133-2.629 2.801 0 1.669 1.062 2.802 2.589 2.802zM147.329 6h2.007c1.306 0 1.999-.598 1.999-1.574 0-.795-.512-1.173-1.094-1.283.519-.18.866-.566.866-1.196 0-.89-.654-1.456-1.826-1.456h-1.952V6zm1.983-4.887c.717 0 1.11.33 1.11.881 0 .559-.401.89-1.11.89h-1.298V1.112h1.298zm.024 2.384c.818 0 1.299.339 1.299.96 0 .567-.449.921-1.299.921h-1.322v-1.88h1.322zM152.194 6h.685V3.883h1.432c1.102 0 1.826-.669 1.826-1.7 0-1.03-.724-1.692-1.826-1.692h-2.117V6zm2.062-4.88c.724 0 1.18.41 1.18 1.063s-.464 1.07-1.188 1.07h-1.369V1.121h1.377z" fill="#000"/></svg>