<svg width="173" height="12" viewBox="0 0 173 12" fill="none" xmlns="http://www.w3.org/2000/svg"><path d="M.298 2.078h3.223V11h1.716V2.078H8.46V.556H.298v1.522zm12.4 1.283c-1.253 0-1.865.507-2.253 1.149l-.18-1.149H8.835V11h1.61V7.166c0-1.18.463-2.298 1.896-2.298h.716V3.36h-.358zm8.101 6.237c-.328 0-.492-.105-.492-.493V6.047c0-1.806-1.164-2.776-3.193-2.776-1.925 0-3.208.925-3.372 2.417h1.581c.12-.67.761-1.119 1.716-1.119 1.06 0 1.671.523 1.671 1.373v.463h-1.924c-2.134 0-3.268.88-3.268 2.447 0 1.417 1.164 2.237 2.835 2.237 1.238 0 2.014-.537 2.521-1.312 0 .76.359 1.223 1.403 1.223h.85V9.598H20.8zM18.71 7.867c-.015 1.178-.79 1.97-2.133 1.97-.88 0-1.418-.448-1.418-1.09 0-.776.552-1.149 1.552-1.149h2v.269zm9.04-3.447c-.492-.671-1.312-1.149-2.476-1.149-2.074 0-3.61 1.552-3.61 3.91 0 2.446 1.536 3.908 3.61 3.908 1.209 0 2-.566 2.492-1.238L27.96 11h1.402V.556h-1.611V4.42zm-2.207 5.312c-1.343 0-2.223-1.045-2.223-2.552 0-1.492.88-2.536 2.223-2.536 1.342 0 2.223 1.044 2.223 2.566 0 1.477-.88 2.522-2.223 2.522zm9.02 1.357c1.894 0 3.177-1.148 3.446-2.655h-1.611c-.224.85-.94 1.343-1.925 1.343-1.268 0-2.089-.85-2.134-2.149v-.104h5.76c.03-.21.044-.418.044-.612-.045-2.238-1.522-3.64-3.73-3.64-2.253 0-3.76 1.566-3.76 3.923 0 2.343 1.507 3.894 3.91 3.894zm-2.164-4.744c.12-1.09 1-1.776 2.029-1.776 1.119 0 1.91.642 2.044 1.776H32.4zM43.427 11h1.716V6.584h4.088V5.107h-4.088v-3.03h4.954V.557h-6.67V11zm7.224 0h1.94l2.566-4.013L57.708 11h2.044l-3.476-5.416L59.543.556h-1.94l-2.386 3.715L52.874.556h-2.03l3.268 5.103L50.651 11zm15.645 0h1.746l1.671-5.192L71.325 11h1.73l2.537-7.639H73.95L72.145 9.21 70.474 3.36h-1.477L67.251 9.21 65.506 3.36h-1.701L66.296 11zM77.26 2.287c.552 0 .985-.403.985-.97s-.433-.97-.985-.97-.984.403-.984.97.432.97.984.97zM76.44 11h1.611V3.361H76.44V11zm3.743-2.074c0 1.388.626 2.074 2.089 2.074h1.492V9.583H82.63c-.612 0-.821-.224-.821-.821V4.778h1.865V3.361h-1.865V1.227h-1.626v2.134h-1.328v1.417h1.328v4.148zm8.62-5.655c-1.194 0-1.926.538-2.403 1.194V.556h-1.611V11H86.4V7.136c0-1.537.776-2.477 2.044-2.477 1.194 0 1.835.776 1.835 2.223V11h1.612V6.748c0-2.552-1.388-3.477-3.089-3.477zm11.877 7.818c1.954 0 3.252-1.089 3.551-2.82h-1.701c-.194.88-.851 1.448-1.836 1.448-1.297 0-2.148-1.03-2.148-2.522 0-1.507.85-2.55 2.148-2.55 1 0 1.642.551 1.851 1.446h1.686c-.314-1.73-1.537-2.82-3.507-2.82-2.312 0-3.834 1.567-3.834 3.924 0 2.388 1.477 3.894 3.79 3.894zm8.395 0c2.327 0 3.894-1.566 3.894-3.909 0-2.327-1.567-3.909-3.894-3.909-2.328 0-3.895 1.582-3.895 3.91 0 2.342 1.567 3.908 3.895 3.908zm0-1.372c-1.358 0-2.238-1.06-2.238-2.537 0-1.477.88-2.536 2.238-2.536 1.357 0 2.252 1.06 2.252 2.536 0 1.478-.895 2.537-2.252 2.537zm9.218-6.446c-1.239 0-1.97.493-2.447 1.09l-.179-1h-1.403V11h1.612V7.15c0-1.551.761-2.491 2.044-2.491 1.208 0 1.82.776 1.82 2.223V11h1.626V6.748c0-2.552-1.387-3.477-3.073-3.477zm10.343-.984c.552 0 .984-.403.984-.97s-.432-.97-.984-.97-.985.403-.985.97.433.97.985.97zM125.01 3.36v-.642c0-.522.209-.746.731-.746h1.134V.556h-1.358c-1.477 0-2.133.701-2.133 2.044v.761h-1.328v1.417h1.328V11h1.626V4.778h2.805V11h1.626V3.361h-4.431zm11.8 1.06c-.493-.672-1.313-1.15-2.477-1.15-2.074 0-3.611 1.552-3.611 3.91 0 2.446 1.537 3.908 3.611 3.908 1.208 0 1.999-.566 2.491-1.238l.194 1.149h1.403V.556h-1.611V4.42zm-2.209 5.31c-1.342 0-2.223-1.044-2.223-2.55 0-1.493.881-2.537 2.223-2.537 1.343 0 2.223 1.044 2.223 2.566 0 1.477-.88 2.522-2.223 2.522zm9.02 1.358c1.895 0 3.178-1.148 3.447-2.655h-1.612c-.224.85-.94 1.343-1.924 1.343-1.269 0-2.089-.85-2.134-2.149v-.104h5.759c.03-.21.045-.418.045-.612-.045-2.238-1.522-3.64-3.73-3.64-2.253 0-3.76 1.566-3.76 3.923 0 2.343 1.507 3.894 3.909 3.894zm-2.163-4.744c.119-1.09.999-1.776 2.029-1.776 1.119 0 1.91.642 2.044 1.776h-4.073zm11.075-3.074c-1.238 0-1.969.493-2.447 1.09l-.179-1h-1.402V11h1.611V7.15c0-1.551.761-2.491 2.044-2.491 1.209 0 1.82.776 1.82 2.223V11h1.627V6.748c0-2.552-1.388-3.477-3.074-3.477zm7.987 7.818c1.954 0 3.252-1.089 3.551-2.82h-1.701c-.194.88-.851 1.448-1.835 1.448-1.298 0-2.149-1.03-2.149-2.522 0-1.507.851-2.55 2.149-2.55.999 0 1.641.551 1.85 1.446h1.686c-.314-1.73-1.537-2.82-3.506-2.82-2.313 0-3.835 1.567-3.835 3.924 0 2.388 1.477 3.894 3.79 3.894zm8.41 0c1.895 0 3.178-1.148 3.446-2.655h-1.611c-.224.85-.94 1.343-1.925 1.343-1.268 0-2.089-.85-2.133-2.149v-.104h5.759c.03-.21.045-.418.045-.612-.045-2.238-1.522-3.64-3.73-3.64-2.253 0-3.76 1.566-3.76 3.923 0 2.343 1.507 3.894 3.909 3.894zm-2.164-4.744c.12-1.09 1-1.776 2.029-1.776 1.119 0 1.91.642 2.044 1.776h-4.073z" fill="url(#paint0_linear_1072_177)"/><defs><linearGradient id="paint0_linear_1072_177" x1="210" y1="5" x2="0" y2="5" gradientUnits="userSpaceOnUse"><stop stop-color="#FF4343"/><stop offset=".5" stop-color="#9C0B93"/><stop offset="1" stop-color="#4C1BB7"/></linearGradient></defs></svg>