<svg width="69" height="22" viewBox="0 0 69 22" fill="none" xmlns="http://www.w3.org/2000/svg"><rect y=".027" width="69" height="21" rx="10.5" fill="#000"/><path d="M11.208 7.824h2.271v6.203h.87V7.824h2.271v-.8h-5.412v.8zm8.026 1.1c-.91 0-1.3.38-1.54.77l-.11-.77h-.71v5.103h.82v-2.601c0-.81.29-1.701 1.36-1.701h.41v-.8h-.23zm5.278 4.352c-.23 0-.33-.07-.33-.34v-2.23c0-1.191-.75-1.842-2.051-1.842-1.23 0-2.041.59-2.161 1.591h.82c.1-.52.58-.86 1.3-.86.801 0 1.271.4 1.271 1.06v.35h-1.5c-1.341 0-2.051.57-2.051 1.591 0 .93.76 1.49 1.88 1.49.88 0 1.391-.39 1.711-.85.01.5.24.79.92.79h.45v-.75h-.26zm-1.15-1.33c0 .85-.591 1.44-1.611 1.44-.68 0-1.111-.34-1.111-.84 0-.58.41-.85 1.14-.85h1.581v.25zm6.004-2.241c-.31-.49-.89-.84-1.751-.84-1.41 0-2.451 1.05-2.451 2.61 0 1.661 1.04 2.612 2.451 2.612.86 0 1.41-.41 1.75-.88l.11.82h.711V7.024h-.82v2.68zm-1.671 3.652c-1.01 0-1.69-.77-1.69-1.881 0-1.11.68-1.881 1.69-1.881 1 0 1.68.78 1.68 1.9 0 1.091-.68 1.862-1.68 1.862zm5.96.73c1.18 0 2.02-.75 2.22-1.771h-.83c-.17.66-.73 1.04-1.45 1.04-.97 0-1.581-.68-1.611-1.65v-.07h3.962c.01-.12.02-.24.02-.35-.04-1.511-.98-2.422-2.421-2.422-1.441 0-2.421 1.06-2.421 2.612 0 1.56 1 2.61 2.53 2.61zm-1.621-3.132c.08-.83.77-1.37 1.52-1.37.851 0 1.451.49 1.531 1.37h-3.051zm9.987-2.09c-.86 0-1.38.36-1.68.75l-.11-.69h-.71v5.102h.82v-2.551c0-1.15.58-1.861 1.54-1.861.89 0 1.381.56 1.381 1.62v2.792h.82v-2.841c0-1.691-.91-2.322-2.06-2.322zm5.4 5.222c1.49 0 2.53-1.06 2.53-2.611 0-1.551-1.04-2.612-2.53-2.612-1.491 0-2.531 1.06-2.531 2.612 0 1.55 1.04 2.61 2.53 2.61zm0-.73c-1.01 0-1.691-.79-1.691-1.881 0-1.09.68-1.881 1.69-1.881 1.011 0 1.691.79 1.691 1.88 0 1.091-.68 1.882-1.69 1.882zm4.476.67h.9l1.281-3.792 1.23 3.792h.901l1.7-5.103h-.83l-1.33 4.152-1.27-4.152h-.761l-1.34 4.152-1.271-4.152h-.86l1.65 5.103z" fill="#fff"/></svg>