<svg width="253" height="12" viewBox="0 0 253 12" fill="none" xmlns="http://www.w3.org/2000/svg"><path d="M6.68 11.5V9.868H1.864V.3H.024v11.2H6.68zm2.048-9.344c.592 0 1.056-.432 1.056-1.04 0-.608-.464-1.04-1.056-1.04-.592 0-1.056.432-1.056 1.04 0 .608.464 1.04 1.056 1.04zm-.88 9.344h1.728V3.308H7.848V11.5zm3.118-6.672h4.384l-4.576 5.44V11.5h7.104V9.98h-4.784l4.576-5.44V3.308h-6.704v1.52zm12.21 6.672h1.728V.3h-1.728v11.2zm7.31.096c2.032 0 3.408-1.232 3.696-2.848h-1.728c-.24.912-1.008 1.44-2.064 1.44-1.36 0-2.24-.912-2.288-2.304v-.112h6.176c.032-.224.048-.448.048-.656-.048-2.4-1.632-3.904-4-3.904-2.416 0-4.032 1.68-4.032 4.208 0 2.512 1.616 4.176 4.192 4.176zm-2.32-5.088c.128-1.168 1.072-1.904 2.176-1.904 1.2 0 2.048.688 2.192 1.904h-4.368zm15.045 3.488c-.352 0-.528-.112-.528-.528v-3.28c0-1.936-1.248-2.976-3.424-2.976-2.064 0-3.44.992-3.616 2.592h1.696c.128-.72.816-1.2 1.84-1.2 1.136 0 1.792.56 1.792 1.472v.496h-2.064c-2.288 0-3.504.944-3.504 2.624 0 1.52 1.248 2.4 3.04 2.4 1.328 0 2.16-.576 2.704-1.408 0 .816.384 1.312 1.504 1.312h.912V9.996h-.352zm-2.24-1.856c-.016 1.264-.848 2.112-2.288 2.112-.944 0-1.52-.48-1.52-1.168 0-.832.592-1.232 1.664-1.232h2.144v.288zm5.398 3.36h2.111l3.025-8.192H49.68l-2.224 6.336L45.2 3.308h-1.856l3.024 8.192zm9.523.096c2.032 0 3.408-1.232 3.696-2.848H57.86c-.24.912-1.008 1.44-2.064 1.44-1.36 0-2.24-.912-2.288-2.304v-.112h6.176c.032-.224.048-.448.048-.656-.048-2.4-1.632-3.904-4-3.904-2.416 0-4.032 1.68-4.032 4.208 0 2.512 1.616 4.176 4.192 4.176zm-2.32-5.088c.128-1.168 1.072-1.904 2.176-1.904 1.2 0 2.048.688 2.192 1.904h-4.368zm7.158 2.288c.048 1.776 1.552 2.8 3.744 2.8 1.984 0 3.472-.992 3.472-2.56 0-1.824-1.52-2.208-3.392-2.432-1.184-.128-1.968-.224-1.968-.992 0-.656.672-1.072 1.696-1.072s1.728.528 1.824 1.28h1.696c-.112-1.68-1.536-2.608-3.552-2.608-1.968-.016-3.36.992-3.36 2.544 0 1.696 1.472 2.096 3.344 2.32 1.264.16 2.016.224 2.016 1.104 0 .656-.704 1.072-1.776 1.072-1.248 0-1.984-.608-2.048-1.456H60.73zM69.126 4.7c0 .64.463 1.088 1.103 1.088.64 0 1.12-.448 1.12-1.088 0-.64-.48-1.088-1.12-1.088-.64 0-1.103.448-1.103 1.088zm0 5.808c0 .64.463 1.088 1.103 1.088.64 0 1.12-.448 1.12-1.088 0-.64-.48-1.088-1.12-1.088-.64 0-1.103.448-1.103 1.088zm9.72.992h1.871l1.792-5.568 1.728 5.568h1.856l2.72-8.192h-1.76L85.117 9.58l-1.792-6.272h-1.584L79.87 9.58l-1.872-6.272h-1.824l2.672 8.192zm15.181-8.288c-1.28 0-2.064.576-2.576 1.28V.3h-1.728v11.2h1.728V7.356c0-1.648.832-2.656 2.192-2.656 1.28 0 1.968.832 1.968 2.384V11.5h1.728V6.94c0-2.736-1.488-3.728-3.312-3.728zm8.709 8.384c2.032 0 3.408-1.232 3.696-2.848h-1.728c-.24.912-1.008 1.44-2.064 1.44-1.36 0-2.24-.912-2.288-2.304v-.112h6.176c.032-.224.048-.448.048-.656-.048-2.4-1.632-3.904-4-3.904-2.416 0-4.032 1.68-4.032 4.208 0 2.512 1.616 4.176 4.192 4.176zm-2.32-5.088c.128-1.168 1.072-1.904 2.176-1.904 1.2 0 2.048.688 2.192 1.904h-4.368zm11.701-3.2c-1.344 0-2 .544-2.416 1.232l-.192-1.232h-1.536V11.5h1.728V7.388c0-1.264.496-2.464 2.032-2.464h.768V3.308h-.384zm4.947 8.288c2.032 0 3.408-1.232 3.696-2.848h-1.728c-.24.912-1.008 1.44-2.064 1.44-1.36 0-2.24-.912-2.288-2.304v-.112h6.176c.032-.224.048-.448.048-.656-.048-2.4-1.632-3.904-4-3.904-2.416 0-4.032 1.68-4.032 4.208 0 2.512 1.616 4.176 4.192 4.176zm-2.32-5.088c.128-1.168 1.072-1.904 2.176-1.904 1.2 0 2.048.688 2.192 1.904h-4.368zm15.971-3.296c-1.328 0-2.112.528-2.624 1.168l-.192-1.072h-1.504V11.5h1.728V7.372c0-1.664.816-2.672 2.192-2.672 1.296 0 1.952.832 1.952 2.384V11.5h1.744V6.94c0-2.736-1.488-3.728-3.296-3.728zm8.693 8.384c2.032 0 3.408-1.232 3.696-2.848h-1.728c-.24.912-1.008 1.44-2.064 1.44-1.36 0-2.24-.912-2.288-2.304v-.112h6.176c.032-.224.048-.448.048-.656-.048-2.4-1.632-3.904-4-3.904-2.416 0-4.032 1.68-4.032 4.208 0 2.512 1.616 4.176 4.192 4.176zm-2.32-5.088c.128-1.168 1.072-1.904 2.176-1.904 1.2 0 2.048.688 2.192 1.904h-4.368zm6.334 4.992h1.904l2.16-2.976 2.144 2.976h2.016l-3.088-4.192 2.912-4h-1.904l-2 2.768-1.952-2.768h-2.016l2.896 4-3.072 4.192zm9.768-2.224c0 1.488.672 2.224 2.24 2.224h1.6V9.98h-1.216c-.656 0-.88-.24-.88-.88V4.828h2v-1.52h-2V1.02h-1.744v2.288h-1.424v1.52h1.424v4.448zm8.201-4.448h1.424V11.5h1.744V4.828h2.192v-1.52h-2.224V2.62c0-.56.24-.8.8-.8h1.424V.3h-1.648c-1.584 0-2.288.768-2.288 2.24v.768h-1.424v1.52zm9.782 6.768c2.496 0 4.176-1.68 4.176-4.192 0-2.496-1.68-4.192-4.176-4.192-2.496 0-4.176 1.696-4.176 4.192 0 2.512 1.68 4.192 4.176 4.192zm0-1.472c-1.456 0-2.4-1.136-2.4-2.72 0-1.584.944-2.72 2.4-2.72s2.416 1.136 2.416 2.72c0 1.584-.96 2.72-2.416 2.72zm9.71-6.816c-1.344 0-2 .544-2.416 1.232l-.192-1.232h-1.536V11.5h1.728V7.388c0-1.264.496-2.464 2.032-2.464h.768V3.308h-.384zm14.967-.096c-1.344 0-2.272.592-2.8 1.488-.496-1.056-1.456-1.488-2.528-1.488-1.232.016-1.936.56-2.4 1.168l-.192-1.072h-1.504V11.5h1.728V7.116c0-1.456.736-2.416 1.92-2.416 1.136 0 1.728.752 1.728 2.192V11.5h1.744V7.068c0-1.472.752-2.368 1.936-2.368 1.12 0 1.712.752 1.712 2.192V11.5h1.728V6.78c0-2.592-1.376-3.568-3.072-3.568zm12.127 6.784c-.352 0-.528-.112-.528-.528v-3.28c0-1.936-1.248-2.976-3.424-2.976-2.064 0-3.44.992-3.616 2.592h1.696c.128-.72.816-1.2 1.84-1.2 1.136 0 1.792.56 1.792 1.472v.496h-2.064c-2.288 0-3.504.944-3.504 2.624 0 1.52 1.248 2.4 3.04 2.4 1.328 0 2.16-.576 2.704-1.408 0 .816.384 1.312 1.504 1.312h.912V9.996h-.352zm-2.24-1.856c-.016 1.264-.848 2.112-2.288 2.112-.944 0-1.52-.48-1.52-1.168 0-.832.592-1.232 1.664-1.232h2.144v.288zm7.677-4.832c-1.344 0-2 .544-2.416 1.232l-.192-1.232h-1.536V11.5h1.728V7.388c0-1.264.496-2.464 2.032-2.464h.768V3.308h-.384zm1.45 8.192h1.728V9.42l1.472-1.536 2.416 3.616h2.048l-3.28-4.88 3.088-3.312h-2.032l-3.712 3.968V.3h-1.728v11.2zm11.872.096c2.032 0 3.408-1.232 3.696-2.848h-1.728c-.24.912-1.008 1.44-2.064 1.44-1.36 0-2.24-.912-2.288-2.304v-.112h6.176c.032-.224.048-.448.048-.656-.048-2.4-1.632-3.904-4-3.904-2.416 0-4.032 1.68-4.032 4.208 0 2.512 1.616 4.176 4.192 4.176zm-2.32-5.088c.128-1.168 1.072-1.904 2.176-1.904 1.2 0 2.048.688 2.192 1.904h-4.368zm8.087 2.768c0 1.488.671 2.224 2.24 2.224h1.6V9.98h-1.216c-.656 0-.88-.24-.88-.88V4.828h2v-1.52h-2V1.02h-1.744v2.288h-1.424v1.52h1.424v4.448zm4.587-.48c.048 1.776 1.552 2.8 3.744 2.8 1.984 0 3.472-.992 3.472-2.56 0-1.824-1.52-2.208-3.392-2.432-1.184-.128-1.968-.224-1.968-.992 0-.656.672-1.072 1.696-1.072s1.728.528 1.824 1.28h1.696c-.112-1.68-1.536-2.608-3.552-2.608-1.968-.016-3.36.992-3.36 2.544 0 1.696 1.472 2.096 3.344 2.32 1.264.16 2.016.224 2.016 1.104 0 .656-.704 1.072-1.776 1.072-1.248 0-1.984-.608-2.048-1.456h-1.696zm9.525-4.832c0-1.328.8-2.224 2.032-2.224 1.072 0 1.792.64 1.792 1.552 0 .768-.416 1.28-1.136 1.76-.96.624-1.712 1.152-1.712 2.448v.512h1.632v-.32c0-.8.544-1.216 1.408-1.808.832-.592 1.6-1.296 1.6-2.768 0-1.68-1.376-2.912-3.6-2.912-2.384 0-3.776 1.68-3.776 3.76h1.76zm.736 6.56c0 .64.48 1.072 1.104 1.072.624 0 1.088-.432 1.088-1.072 0-.64-.464-1.072-1.088-1.072-.624 0-1.104.432-1.104 1.072z" fill="#000"/></svg>