<svg width="161" height="28" viewBox="0 0 161 28" fill="none" xmlns="http://www.w3.org/2000/svg"><path d="M.896 10H2.45V2.79L5.39 10h1.358l2.94-7.21V10h1.554V.2H9.198l-3.08 7.714L2.982.2H.896V10zm18.539-1.316c-.308 0-.462-.098-.462-.462v-2.87c0-1.694-1.092-2.604-2.996-2.604-1.806 0-3.01.868-3.164 2.268h1.484c.112-.63.714-1.05 1.61-1.05.994 0 1.568.49 1.568 1.288v.434h-1.806c-2.002 0-3.066.826-3.066 2.296 0 1.33 1.092 2.1 2.66 2.1 1.162 0 1.89-.504 2.366-1.232 0 .714.336 1.148 1.316 1.148h.798V8.684h-.308zm-1.96-1.624c-.014 1.106-.742 1.848-2.002 1.848-.826 0-1.33-.42-1.33-1.022 0-.728.518-1.078 1.456-1.078h1.876v.252zm2.783.574c.042 1.554 1.358 2.45 3.276 2.45 1.736 0 3.038-.868 3.038-2.24 0-1.596-1.33-1.932-2.968-2.128-1.036-.112-1.722-.196-1.722-.868 0-.574.588-.938 1.484-.938s1.512.462 1.596 1.12h1.484c-.098-1.47-1.344-2.282-3.108-2.282-1.722-.014-2.94.868-2.94 2.226 0 1.484 1.288 1.834 2.926 2.03 1.106.14 1.764.196 1.764.966 0 .574-.616.938-1.554.938-1.092 0-1.736-.532-1.792-1.274h-1.484zm8.004.42c0 1.302.588 1.946 1.96 1.946h1.4V8.67h-1.064c-.574 0-.77-.21-.77-.77V4.162h1.75v-1.33h-1.75V.83h-1.526v2.002h-1.246v1.33h1.246v3.892zm7.573 2.03c1.778 0 2.982-1.078 3.234-2.492h-1.512c-.21.798-.882 1.26-1.806 1.26-1.19 0-1.96-.798-2.002-2.016v-.098h5.404c.028-.196.042-.392.042-.574-.042-2.1-1.428-3.416-3.5-3.416-2.114 0-3.528 1.47-3.528 3.682 0 2.198 1.414 3.654 3.668 3.654zm-2.03-4.452c.112-1.022.938-1.666 1.904-1.666 1.05 0 1.792.602 1.918 1.666h-3.822zm10.239-2.8c-1.176 0-1.75.476-2.114 1.078l-.168-1.078h-1.344V10h1.512V6.402c0-1.106.434-2.156 1.778-2.156h.672V2.832h-.336zm5.368 5.222c0 1.302.588 1.946 1.96 1.946h1.4V8.67h-1.064c-.574 0-.77-.21-.77-.77V4.162h1.75v-1.33h-1.75V.83h-1.526v2.002h-1.246v1.33h1.246v3.892zM57.5 2.748c-1.12 0-1.806.504-2.254 1.12V.2h-1.512V10h1.512V6.374c0-1.442.728-2.324 1.918-2.324 1.12 0 1.722.728 1.722 2.086V10h1.512V6.01c0-2.394-1.302-3.262-2.898-3.262zm7.62 7.336c1.779 0 2.983-1.078 3.235-2.492h-1.512c-.21.798-.882 1.26-1.806 1.26-1.19 0-1.96-.798-2.002-2.016v-.098h5.404c.028-.196.042-.392.042-.574-.042-2.1-1.428-3.416-3.5-3.416-2.114 0-3.528 1.47-3.528 3.682 0 2.198 1.414 3.654 3.668 3.654zm-2.03-4.452c.113-1.022.939-1.666 1.905-1.666 1.05 0 1.792.602 1.918 1.666H63.09zm18.441-2.884c-1.176 0-1.988.518-2.45 1.302-.434-.924-1.274-1.302-2.212-1.302-1.078.014-1.694.49-2.1 1.022l-.168-.938h-1.316V10h1.512V6.164c0-1.274.644-2.114 1.68-2.114.994 0 1.512.658 1.512 1.918V10h1.526V6.122c0-1.288.658-2.072 1.694-2.072.98 0 1.498.658 1.498 1.918V10h1.512V5.87c0-2.268-1.204-3.122-2.688-3.122zm10.61 5.936c-.307 0-.461-.098-.461-.462v-2.87c0-1.694-1.092-2.604-2.996-2.604-1.806 0-3.01.868-3.164 2.268h1.484c.112-.63.714-1.05 1.61-1.05.994 0 1.568.49 1.568 1.288v.434h-1.806c-2.002 0-3.066.826-3.066 2.296 0 1.33 1.092 2.1 2.66 2.1 1.162 0 1.89-.504 2.366-1.232 0 .714.336 1.148 1.316 1.148h.798V8.684h-.308zm-1.96-1.624c-.013 1.106-.741 1.848-2.001 1.848-.826 0-1.33-.42-1.33-1.022 0-.728.518-1.078 1.456-1.078h1.876v.252zM96.9 2.832c-1.176 0-1.75.476-2.114 1.078l-.168-1.078h-1.344V10h1.512V6.402c0-1.106.434-2.156 1.778-2.156h.672V2.832H96.9zM98.168 10h1.512V8.18l1.288-1.344L103.082 10h1.792l-2.87-4.27 2.702-2.898h-1.778L99.68 6.304V.2h-1.512V10zm10.388.084c1.778 0 2.982-1.078 3.234-2.492h-1.512c-.21.798-.882 1.26-1.806 1.26-1.19 0-1.96-.798-2.002-2.016v-.098h5.404c.028-.196.042-.392.042-.574-.042-2.1-1.428-3.416-3.5-3.416-2.114 0-3.528 1.47-3.528 3.682 0 2.198 1.414 3.654 3.668 3.654zm-2.03-4.452c.112-1.022.938-1.666 1.904-1.666 1.05 0 1.792.602 1.918 1.666h-3.822zm7.076 2.422c0 1.302.588 1.946 1.96 1.946h1.4V8.67h-1.064c-.574 0-.77-.21-.77-.77V4.162h1.75v-1.33h-1.75V.83h-1.526v2.002h-1.246v1.33h1.246v3.892zm7.176-3.892h1.246V10h1.526V4.162h1.918v-1.33h-1.946V2.23c0-.49.21-.7.7-.7h1.246V.2h-1.442c-1.386 0-2.002.672-2.002 1.96v.672h-1.246v1.33zm8.559 5.922c2.184 0 3.654-1.47 3.654-3.668 0-2.184-1.47-3.668-3.654-3.668s-3.654 1.484-3.654 3.668c0 2.198 1.47 3.668 3.654 3.668zm0-1.288c-1.274 0-2.1-.994-2.1-2.38s.826-2.38 2.1-2.38 2.114.994 2.114 2.38-.84 2.38-2.114 2.38zm8.496-5.964c-1.176 0-1.75.476-2.114 1.078l-.168-1.078h-1.344V10h1.512V6.402c0-1.106.434-2.156 1.778-2.156h.672V2.832h-.336zm4.217 7.252c1.834 0 3.052-1.022 3.332-2.646h-1.596c-.182.826-.798 1.358-1.722 1.358-1.218 0-2.016-.966-2.016-2.366 0-1.414.798-2.394 2.016-2.394.938 0 1.54.518 1.736 1.358h1.582c-.294-1.624-1.442-2.646-3.29-2.646-2.17 0-3.598 1.47-3.598 3.682 0 2.24 1.386 3.654 3.556 3.654zm7.891 0c1.778 0 2.982-1.078 3.234-2.492h-1.512c-.21.798-.882 1.26-1.806 1.26-1.19 0-1.96-.798-2.002-2.016v-.098h5.404c.028-.196.042-.392.042-.574-.042-2.1-1.428-3.416-3.5-3.416-2.114 0-3.528 1.47-3.528 3.682 0 2.198 1.414 3.654 3.668 3.654zm-2.03-4.452c.112-1.022.938-1.666 1.904-1.666 1.05 0 1.792.602 1.918 1.666h-3.822zm6.263 2.002c.042 1.554 1.358 2.45 3.276 2.45 1.736 0 3.038-.868 3.038-2.24 0-1.596-1.33-1.932-2.968-2.128-1.036-.112-1.722-.196-1.722-.868 0-.574.588-.938 1.484-.938s1.512.462 1.596 1.12h1.484c-.098-1.47-1.344-2.282-3.108-2.282-1.722-.014-2.94.868-2.94 2.226 0 1.484 1.288 1.834 2.926 2.03 1.106.14 1.764.196 1.764.966 0 .574-.616.938-1.554.938-1.092 0-1.736-.532-1.792-1.274h-1.484zM2.394 25h1.638L5.6 20.128 7.112 25h1.624l2.38-7.168h-1.54L7.882 23.32l-1.568-5.488H4.928L3.29 23.32l-1.638-5.488H.056L2.394 25zm10.288-8.176c.518 0 .924-.378.924-.91s-.406-.91-.924-.91-.924.378-.924.91.406.91.924.91zM11.912 25h1.512v-7.168h-1.512V25zm3.512-1.946c0 1.302.588 1.946 1.96 1.946h1.4v-1.33H17.72c-.574 0-.77-.21-.77-.77v-3.738h1.75v-1.33h-1.75V15.83h-1.526v2.002h-1.246v1.33h1.246v3.892zm8.088-5.306c-1.12 0-1.806.504-2.254 1.12V15.2h-1.512V25h1.512v-3.626c0-1.442.728-2.324 1.918-2.324 1.12 0 1.722.728 1.722 2.086V25h1.512v-3.99c0-2.394-1.302-3.262-2.898-3.262zm12.265 7.336c2.282 0 3.948-1.344 4.256-3.416h-1.666c-.308 1.246-1.246 2.002-2.604 2.002-1.848 0-2.968-1.484-2.968-3.57 0-2.1 1.148-3.57 3.01-3.57 1.33 0 2.254.77 2.576 2.002h1.666c-.322-2.072-1.932-3.416-4.172-3.416-2.898 0-4.732 2.002-4.732 4.984 0 3.01 1.778 4.984 4.634 4.984zm6.204-8.26c.518 0 .924-.378.924-.91s-.406-.91-.924-.91-.924.378-.924.91.406.91.924.91zM41.21 25h1.512v-7.168H41.21V25zm3.512-1.946c0 1.302.588 1.946 1.96 1.946h1.4v-1.33h-1.064c-.574 0-.77-.21-.77-.77v-3.738h1.75v-1.33h-1.75V15.83h-1.526v2.002h-1.246v1.33h1.246v3.892zm6.394 1.988l-.28.7c-.224.588-.364.728-.952.728H48.82v1.33h1.624c1.05 0 1.358-.518 1.806-1.68l3.248-8.288h-1.61l-1.946 5.446-2.002-5.446h-1.61l2.786 7.21zM60 25h1.61v-9.8H60V25zm7.03-7.252c-1.162 0-1.848.462-2.296 1.022l-.168-.938H63.25V25h1.512v-3.612c0-1.456.714-2.338 1.918-2.338 1.134 0 1.708.728 1.708 2.086V25h1.526v-3.99c0-2.394-1.302-3.262-2.884-3.262zm9.65 1.078c-.462-.63-1.232-1.078-2.324-1.078-1.946 0-3.388 1.456-3.388 3.668 0 2.296 1.442 3.668 3.388 3.668 1.134 0 1.876-.532 2.338-1.162L76.876 25h1.316v-9.8H76.68v3.626zm-2.072 4.984c-1.26 0-2.086-.98-2.086-2.394 0-1.4.826-2.38 2.086-2.38 1.26 0 2.086.98 2.086 2.408 0 1.386-.826 2.366-2.086 2.366zm8.464 1.274c1.778 0 2.982-1.078 3.234-2.492h-1.512c-.21.798-.882 1.26-1.806 1.26-1.19 0-1.96-.798-2.002-2.016v-.098h5.404c.028-.196.042-.392.042-.574-.042-2.1-1.428-3.416-3.5-3.416-2.114 0-3.528 1.47-3.528 3.682 0 2.198 1.414 3.654 3.668 3.654zm-2.03-4.452c.112-1.022.938-1.666 1.904-1.666 1.05 0 1.792.602 1.918 1.666h-3.822zM86.584 25h1.666l1.89-2.604L92.016 25h1.764l-2.702-3.668 2.548-3.5H91.96l-1.75 2.422-1.708-2.422h-1.764l2.534 3.5L86.584 25z" fill="#000"/></svg>