<svg width="95" height="39" viewBox="0 0 95 39" fill="none" xmlns="http://www.w3.org/2000/svg"><path d="M.28 14h2.3V8.92H5.8c2.92 0 4.84-1.76 4.84-4.46C10.64 1.74 8.72 0 5.8 0H.28v14zM5.62 2c1.64 0 2.68.94 2.68 2.46 0 1.5-1.06 2.46-2.7 2.46H2.58V2h3.04zm10.92 12.12c3.12 0 5.22-2.1 5.22-5.24 0-3.12-2.1-5.24-5.22-5.24-3.12 0-5.22 2.12-5.22 5.24 0 3.14 2.1 5.24 5.22 5.24zm0-1.84c-1.82 0-3-1.42-3-3.4s1.18-3.4 3-3.4 3.02 1.42 3.02 3.4-1.2 3.4-3.02 3.4zM25.507 14h2.34l2.24-6.96 2.16 6.96h2.32l3.4-10.24h-2.2l-2.42 7.84-2.24-7.84h-1.98l-2.34 7.84-2.34-7.84h-2.28L25.506 14zm18.105.12c2.54 0 4.26-1.54 4.62-3.56h-2.16c-.3 1.14-1.26 1.8-2.58 1.8-1.7 0-2.8-1.14-2.86-2.88v-.14h7.72c.04-.28.06-.56.06-.82-.06-3-2.04-4.88-5-4.88-3.02 0-5.04 2.1-5.04 5.26 0 3.14 2.02 5.22 5.24 5.22zm-2.9-6.36c.16-1.46 1.34-2.38 2.72-2.38 1.5 0 2.56.86 2.74 2.38h-5.46zm14.627-4c-1.68 0-2.5.68-3.02 1.54l-.24-1.54h-1.92V14h2.16V8.86c0-1.58.62-3.08 2.54-3.08h.96V3.76h-.48zm16.289 8.36c-.44 0-.66-.14-.66-.66v-4.1c0-2.42-1.56-3.72-4.28-3.72-2.58 0-4.3 1.24-4.52 3.24h2.12c.16-.9 1.02-1.5 2.3-1.5 1.42 0 2.24.7 2.24 1.84v.62h-2.58c-2.86 0-4.38 1.18-4.38 3.28 0 1.9 1.56 3 3.8 3 1.66 0 2.7-.72 3.38-1.76 0 1.02.48 1.64 1.88 1.64h1.14v-1.88h-.44zm-2.8-2.32c-.02 1.58-1.06 2.64-2.86 2.64-1.18 0-1.9-.6-1.9-1.46 0-1.04.74-1.54 2.08-1.54h2.68v.36zm9.817-6.16c-1.66 0-2.64.66-3.28 1.46l-.24-1.34h-1.88V14h2.16V8.84c0-2.08 1.02-3.34 2.74-3.34 1.62 0 2.44 1.04 2.44 2.98V14h2.18V8.3c0-3.42-1.86-4.66-4.12-4.66zM92.43 5.18c-.66-.9-1.76-1.54-3.32-1.54-2.78 0-4.84 2.08-4.84 5.24 0 3.28 2.06 5.24 4.84 5.24 1.62 0 2.68-.76 3.34-1.66l.26 1.54h1.88V0h-2.16v5.18zm-2.96 7.12c-1.8 0-2.98-1.4-2.98-3.42 0-2 1.18-3.4 2.98-3.4s2.98 1.4 2.98 3.44c0 1.98-1.18 3.38-2.98 3.38zM.28 38h2.3v-5.08H5.8c2.92 0 4.84-1.76 4.84-4.46 0-2.72-1.92-4.46-4.84-4.46H.28v14zm5.34-12c1.64 0 2.68.94 2.68 2.46 0 1.5-1.06 2.46-2.7 2.46H2.58V26h3.04zm11.749 1.76c-1.68 0-2.5.68-3.02 1.54l-.24-1.54h-1.92V38h2.16v-5.14c0-1.58.62-3.08 2.54-3.08h.96v-2.02h-.48zm6.184 10.36c2.54 0 4.26-1.54 4.62-3.56h-2.16c-.3 1.14-1.26 1.8-2.58 1.8-1.7 0-2.8-1.14-2.86-2.88v-.14h7.72c.04-.28.06-.56.06-.82-.06-3-2.04-4.88-5-4.88-3.02 0-5.04 2.1-5.04 5.26 0 3.14 2.02 5.22 5.24 5.22zm-2.9-6.36c.16-1.46 1.34-2.38 2.72-2.38 1.5 0 2.56.86 2.74 2.38h-5.46zm14.146 6.36c2.62 0 4.36-1.46 4.76-3.78h-2.28c-.26 1.18-1.14 1.94-2.46 1.94-1.74 0-2.88-1.38-2.88-3.38 0-2.02 1.14-3.42 2.88-3.42 1.34 0 2.2.74 2.48 1.94h2.26c-.42-2.32-2.06-3.78-4.7-3.78-3.1 0-5.14 2.1-5.14 5.26 0 3.2 1.98 5.22 5.08 5.22zm7.513-11.8c.74 0 1.32-.54 1.32-1.3s-.58-1.3-1.32-1.3c-.74 0-1.32.54-1.32 1.3s.58 1.3 1.32 1.3zM41.212 38h2.16V27.76h-2.16V38zm3.838-3.38c.06 2.22 1.94 3.5 4.68 3.5 2.48 0 4.34-1.24 4.34-3.2 0-2.28-1.9-2.76-4.24-3.04-1.48-.16-2.46-.28-2.46-1.24 0-.82.84-1.34 2.12-1.34 1.28 0 2.16.66 2.28 1.6h2.12c-.14-2.1-1.92-3.26-4.44-3.26-2.46-.02-4.2 1.24-4.2 3.18 0 2.12 1.84 2.62 4.18 2.9 1.58.2 2.52.28 2.52 1.38 0 .82-.88 1.34-2.22 1.34-1.56 0-2.48-.76-2.56-1.82h-2.12zm11.794-8.3c.74 0 1.32-.54 1.32-1.3s-.58-1.3-1.32-1.3c-.74 0-1.32.54-1.32 1.3s.58 1.3 1.32 1.3zM55.744 38h2.16V27.76h-2.16V38zm9.117.12c3.12 0 5.22-2.1 5.22-5.24 0-3.12-2.1-5.24-5.22-5.24-3.12 0-5.22 2.12-5.22 5.24 0 3.14 2.1 5.24 5.22 5.24zm0-1.84c-1.82 0-3-1.42-3-3.4s1.18-3.4 3-3.4 3.02 1.42 3.02 3.4-1.2 3.4-3.02 3.4zm12.357-8.64c-1.66 0-2.64.66-3.28 1.46l-.24-1.34h-1.88V38h2.16v-5.16c0-2.08 1.02-3.34 2.74-3.34 1.62 0 2.44 1.04 2.44 2.98V38h2.18v-5.7c0-3.42-1.86-4.66-4.12-4.66z" fill="#000"/></svg>