<svg width="266" height="133" viewBox="0 0 266 133" fill="none" xmlns="http://www.w3.org/2000/svg"><path d="M4.058 89.443h9.788v-2.129H6.458v-4.236h5.886V81.01H6.458v-4.048h7.138v-2.13H4.058v14.61zm10.424 0h2.484l2.817-3.882 2.797 3.882h2.63l-4.029-5.468 3.799-5.218h-2.484l-2.608 3.61-2.547-3.61h-2.63l3.778 5.218-4.007 5.468zm12.741-2.901c0 1.94.877 2.9 2.922 2.9h2.087V87.46h-1.586c-.856 0-1.148-.313-1.148-1.148V80.74h2.609v-1.983h-2.609v-2.984h-2.275v2.984h-1.857v1.983h1.857v5.802zm11.29 3.026c2.65 0 4.445-1.607 4.821-3.715H41.08c-.313 1.19-1.315 1.878-2.692 1.878-1.774 0-2.922-1.19-2.984-3.005v-.146h8.055a6.13 6.13 0 00.063-.856c-.063-3.13-2.129-5.092-5.218-5.092-3.15 0-5.259 2.191-5.259 5.489 0 3.276 2.108 5.447 5.468 5.447zm-3.026-6.637c.167-1.523 1.398-2.483 2.838-2.483 1.566 0 2.672.897 2.86 2.483h-5.698zm15.492-4.299c-1.732 0-2.755.689-3.423 1.524l-.25-1.399h-1.962v10.686h2.254v-5.385c0-2.17 1.064-3.485 2.86-3.485 1.69 0 2.545 1.085 2.545 3.11v5.76h2.275v-5.948c0-3.569-1.94-4.863-4.3-4.863zm14.386 1.607c-.69-.939-1.837-1.607-3.465-1.607-2.9 0-5.05 2.17-5.05 5.468 0 3.423 2.15 5.468 5.05 5.468 1.69 0 2.797-.793 3.485-1.732l.272 1.607h1.962v-14.61h-2.254v5.406zm-3.09 7.43c-1.877 0-3.109-1.461-3.109-3.569 0-2.087 1.232-3.548 3.11-3.548s3.11 1.461 3.11 3.59c0 2.066-1.232 3.527-3.11 3.527zm12.617 1.899c2.65 0 4.446-1.607 4.821-3.715H77.46c-.313 1.19-1.314 1.878-2.692 1.878-1.774 0-2.921-1.19-2.984-3.005v-.146h8.056a6.13 6.13 0 00.062-.856c-.062-3.13-2.129-5.092-5.217-5.092-3.152 0-5.26 2.191-5.26 5.489 0 3.276 2.108 5.447 5.468 5.447zm-3.026-6.637c.167-1.523 1.399-2.483 2.839-2.483 1.565 0 2.671.897 2.859 2.483h-5.698zm17.976-2.692c-.689-.939-1.837-1.607-3.465-1.607-2.9 0-5.05 2.17-5.05 5.468 0 3.423 2.15 5.468 5.05 5.468 1.69 0 2.797-.793 3.486-1.732l.27 1.607h1.963v-14.61h-2.254v5.406zm-3.089 7.43c-1.878 0-3.11-1.461-3.11-3.569 0-2.087 1.232-3.548 3.11-3.548s3.11 1.461 3.11 3.59c0 2.066-1.232 3.527-3.11 3.527zm18.499-9.037c-1.67 0-2.692.751-3.36 1.67v-5.468h-2.254v14.609h2.254v-5.406c0-2.15 1.085-3.464 2.859-3.464 1.67 0 2.567 1.085 2.567 3.11v5.76h2.254v-5.948c0-3.569-1.941-4.863-4.32-4.863zm11.339 10.936c3.255 0 5.447-2.191 5.447-5.468 0-3.256-2.192-5.468-5.447-5.468-3.256 0-5.447 2.212-5.447 5.468 0 3.277 2.191 5.468 5.447 5.468zm0-1.92c-1.9 0-3.131-1.482-3.131-3.548s1.231-3.548 3.131-3.548c1.899 0 3.151 1.482 3.151 3.548s-1.252 3.548-3.151 3.548zm14.584-3.548c0 2.212-1.043 3.506-2.755 3.506-1.648 0-2.483-1.064-2.483-3.151v-5.698h-2.254v5.948c0 3.653 1.941 4.863 4.216 4.863 1.648 0 2.629-.668 3.297-1.482l.251 1.357h1.982V78.757h-2.254V84.1zm9.881-5.343c-1.753 0-2.609.71-3.152 1.607l-.25-1.607h-2.004v10.686h2.254v-5.364c0-1.648.647-3.214 2.651-3.214h1.001v-2.108h-.5zm1.248 7.159c.063 2.316 2.024 3.652 4.884 3.652 2.587 0 4.528-1.294 4.528-3.34 0-2.378-1.982-2.88-4.424-3.171-1.544-.167-2.567-.293-2.567-1.294 0-.856.876-1.399 2.212-1.399 1.336 0 2.254.69 2.379 1.67h2.212c-.146-2.191-2.003-3.402-4.633-3.402-2.567-.02-4.382 1.294-4.382 3.319 0 2.212 1.92 2.733 4.361 3.026 1.649.208 2.63.292 2.63 1.44 0 .855-.918 1.398-2.316 1.398-1.628 0-2.588-.793-2.672-1.9h-2.212zm17.271.626c0 1.94.876 2.9 2.922 2.9h2.087V87.46h-1.587c-.855 0-1.147-.313-1.147-1.148V80.74h2.608v-1.983h-2.608v-2.984h-2.275v2.984h-1.858v1.983h1.858v5.802zm11.848-7.785c-1.753 0-2.609.71-3.152 1.607l-.25-1.607h-2.004v10.686h2.254v-5.364c0-1.648.647-3.214 2.651-3.214h1.002v-2.108h-.501zm11.332 8.724c-.46 0-.689-.146-.689-.689v-4.278c0-2.525-1.628-3.882-4.466-3.882-2.692 0-4.487 1.294-4.717 3.381h2.212c.167-.939 1.065-1.565 2.4-1.565 1.482 0 2.338.73 2.338 1.92v.647h-2.692c-2.985 0-4.571 1.231-4.571 3.422 0 1.983 1.628 3.13 3.965 3.13 1.733 0 2.818-.75 3.527-1.836 0 1.065.501 1.712 1.962 1.712h1.19V87.48h-.459zm-2.922-2.42c-.021 1.648-1.106 2.754-2.985 2.754-1.231 0-1.982-.626-1.982-1.524 0-1.085.772-1.607 2.17-1.607h2.797v.376zm12.645-4.822c-.688-.939-1.836-1.607-3.464-1.607-2.901 0-5.051 2.17-5.051 5.468 0 3.423 2.15 5.468 5.051 5.468 1.69 0 2.796-.793 3.485-1.732l.271 1.607h1.962v-14.61h-2.254v5.406zm-3.088 7.43c-1.879 0-3.11-1.461-3.11-3.569 0-2.087 1.231-3.548 3.11-3.548 1.878 0 3.109 1.461 3.109 3.59 0 2.066-1.231 3.527-3.109 3.527zm8.693-10.414c.772 0 1.377-.564 1.377-1.357s-.605-1.356-1.377-1.356c-.773 0-1.378.563-1.378 1.356 0 .793.605 1.357 1.378 1.357zm-1.148 12.188h2.254V78.757h-2.254v10.686zm10.098-10.81c-1.732 0-2.755.688-3.423 1.523l-.25-1.399h-1.962v10.686h2.254v-5.385c0-2.17 1.064-3.485 2.859-3.485 1.691 0 2.546 1.085 2.546 3.11v5.76h2.275v-5.948c0-3.569-1.941-4.863-4.299-4.863zm14.509 1.794c-.689-1.064-1.837-1.795-3.506-1.795-2.901 0-5.051 2.15-5.051 5.426 0 3.402 2.15 5.426 5.051 5.426 1.669 0 2.775-.688 3.485-1.753v1.19c0 2.045-1.106 2.984-3.068 2.984-1.586 0-2.629-.688-2.901-1.878h-2.295c.208 2.4 2.191 3.715 5.029 3.715 3.84 0 5.468-1.837 5.468-4.738V78.757h-1.962l-.25 1.67zm-3.131 7.158c-1.878 0-3.109-1.44-3.109-3.527 0-2.066 1.231-3.527 3.109-3.527 1.879 0 3.11 1.461 3.11 3.57 0 2.044-1.231 3.484-3.11 3.484zM8.65 113.568c2.984 0 5.092-2.212 5.092-5.426 0-3.193-2.108-5.405-5.092-5.405-2.985 0-5.072 2.212-5.072 5.405 0 3.214 2.087 5.426 5.072 5.426zm0-.96c-2.359 0-3.986-1.837-3.986-4.466 0-2.609 1.627-4.466 3.986-4.466 2.358 0 3.986 1.857 3.986 4.466 0 2.629-1.628 4.466-3.986 4.466zm12.09-9.871c-1.94 0-3.193 1.001-3.798 2.379l-.167-2.254h-.918v10.581h1.064v-5.218c0-2.755 1.398-4.508 3.652-4.508 2.046 0 3.277 1.336 3.277 3.84v5.886h1.064v-5.927c0-3.339-1.774-4.779-4.174-4.779zm11.028-2.901h8.828l-7.409 13.607h1.19l7.408-13.816v-.793H31.768v1.002zm10.924 6.636c0 4.279 2.108 7.096 5.28 7.096 3.13 0 5.26-2.817 5.26-7.096v-.668c0-4.153-2.13-7.095-5.26-7.095-3.172 0-5.28 2.942-5.28 7.095v.668zm9.433-.042c0 3.715-1.648 6.136-4.153 6.136-2.525 0-4.174-2.421-4.174-6.136v-.584c0-3.715 1.649-6.136 4.174-6.136 2.505 0 4.153 2.421 4.153 6.136v.584zm7.108.564h-3.631v.897h3.631v3.82h.981v-3.82h3.652v-.897h-3.652v-3.819h-.98v3.819zm13.103.417c0 4.07 1.732 6.157 5.322 6.157 3.61 0 5.363-2.087 5.363-6.157v-8.577h-1.127v8.64c0 3.36-1.294 5.05-4.237 5.05-2.9 0-4.194-1.69-4.194-5.05v-8.64h-1.127v8.577zm13.093 1.545c.146 2.755 2.15 4.612 5.426 4.612 3.068 0 5.093-1.67 5.093-4.132 0-2.776-2.463-3.486-4.884-3.903-2.233-.376-4.174-.751-4.174-2.838 0-1.899 1.482-2.964 3.778-2.964 2.19 0 3.693 1.232 3.944 3.131h1.148c-.209-2.505-2.108-4.153-5.093-4.153-2.963 0-4.904 1.565-4.904 4.048 0 2.776 2.38 3.402 4.717 3.799 2.295.396 4.34.855 4.34 2.984 0 1.878-1.585 3.005-3.944 3.005-2.462 0-4.132-1.419-4.278-3.589h-1.169zm17.89 1.231c.083 2.191 1.857 3.381 4.508 3.381 2.275 0 4.111-1.148 4.111-3.026 0-2.233-1.962-2.671-4.236-2.985-1.649-.229-3.11-.417-3.11-1.899 0-1.21 1.19-2.003 2.984-2.003 1.691 0 2.901.814 3.089 2.191h1.085c-.188-2.066-1.878-3.109-4.174-3.109-2.358-.021-4.048 1.189-4.048 3.005 0 2.129 1.961 2.525 4.132 2.817 1.774.251 3.214.48 3.214 2.045 0 1.253-1.315 2.046-3.047 2.046-2.025 0-3.339-.939-3.423-2.463h-1.085zm11.443.793c0 1.691.689 2.463 2.483 2.463h1.545v-.981h-1.461c-1.106 0-1.503-.418-1.503-1.503v-7.116h2.859v-.981h-2.859v-2.964h-1.064v2.964h-2.004v.981h2.004v7.137zm9.996 2.588c2.984 0 5.092-2.212 5.092-5.426 0-3.193-2.108-5.405-5.092-5.405-2.985 0-5.072 2.212-5.072 5.405 0 3.214 2.087 5.426 5.072 5.426zm0-.96c-2.358 0-3.986-1.837-3.986-4.466 0-2.609 1.628-4.466 3.986-4.466 2.358 0 3.986 1.857 3.986 4.466 0 2.629-1.628 4.466-3.986 4.466zm11.819.96c2.4 0 4.091-1.377 4.508-3.527h-1.127c-.355 1.565-1.628 2.567-3.381 2.567-2.316 0-3.923-1.816-3.923-4.445 0-2.63 1.586-4.487 3.923-4.487 1.774 0 3.026 1.001 3.402 2.588h1.106c-.438-2.192-2.087-3.527-4.487-3.527-2.984 0-5.03 2.212-5.03 5.426 0 3.255 2.025 5.405 5.009 5.405zm6.577-.125h1.064v-2.859l2.484-2.547 4.048 5.406h1.294l-4.612-6.178 4.258-4.403h-1.315l-6.157 6.344V98.834h-1.064v14.609zm9.567-3.256c.084 2.191 1.858 3.381 4.508 3.381 2.275 0 4.112-1.148 4.112-3.026 0-2.233-1.962-2.671-4.237-2.985-1.649-.229-3.11-.417-3.11-1.899 0-1.21 1.19-2.003 2.985-2.003 1.69 0 2.901.814 3.089 2.191h1.085c-.188-2.066-1.878-3.109-4.174-3.109-2.358-.021-4.049 1.189-4.049 3.005 0 2.129 1.962 2.525 4.132 2.817 1.774.251 3.214.48 3.214 2.045 0 1.253-1.315 2.046-3.047 2.046-2.024 0-3.339-.939-3.422-2.463h-1.086z" fill="#000"/><path d="M.592 8.598h6.395v17.705h3.405V8.598h6.395v-3.02H.592v3.02zm24.605 2.546c-2.487 0-3.701 1.007-4.47 2.28l-.356-2.28h-2.842v15.159h3.197v-7.61c0-2.338.918-4.558 3.76-4.558h1.421v-2.99h-.71zM41.272 23.52c-.65 0-.977-.207-.977-.977v-6.07c0-3.582-2.309-5.506-6.335-5.506-3.82 0-6.366 1.835-6.691 4.796h3.138c.237-1.332 1.51-2.22 3.405-2.22 2.102 0 3.316 1.036 3.316 2.723v.918h-3.82c-4.233 0-6.483 1.747-6.483 4.855 0 2.813 2.309 4.441 5.625 4.441 2.457 0 3.997-1.066 5.003-2.605 0 1.51.71 2.428 2.783 2.428h1.688V23.52h-.652zm-4.144-3.435c-.03 2.34-1.57 3.909-4.234 3.909-1.747 0-2.813-.889-2.813-2.162 0-1.54 1.096-2.28 3.08-2.28h3.967v.533zm17.939-6.839c-.977-1.332-2.606-2.28-4.915-2.28-4.115 0-7.165 3.08-7.165 7.758 0 4.855 3.05 7.756 7.165 7.756 2.398 0 3.967-1.125 4.944-2.457l.385 2.28h2.783V5.578h-3.197v7.668zm-4.382 10.54c-2.665 0-4.411-2.072-4.411-5.063 0-2.96 1.746-5.032 4.41-5.032 2.665 0 4.412 2.072 4.412 5.092 0 2.93-1.747 5.003-4.411 5.003zm17.898 2.694c3.76 0 6.306-2.28 6.839-5.27h-3.197c-.444 1.688-1.866 2.665-3.82 2.665-2.516 0-4.145-1.688-4.233-4.263v-.207H75.6c.059-.415.089-.83.089-1.214-.09-4.441-3.02-7.224-7.402-7.224-4.47 0-7.46 3.108-7.46 7.786 0 4.648 2.99 7.727 7.756 7.727zm-4.293-9.414c.237-2.162 1.984-3.523 4.026-3.523 2.221 0 3.79 1.273 4.057 3.523H64.29zm29.67-6.1c-2.368 0-3.937 1.096-4.944 2.428l-.385-2.25H85.85v21.08h3.197v-8.053c.947 1.362 2.576 2.31 4.915 2.31 4.145 0 7.164-3.08 7.164-7.758 0-4.855-3.02-7.756-7.164-7.756zm-.532 12.82c-2.665 0-4.412-2.102-4.412-5.122 0-2.93 1.747-4.974 4.412-4.974 2.664 0 4.44 2.043 4.44 5.034 0 2.96-1.776 5.062-4.44 5.062zm17.927-12.642c-2.487 0-3.7 1.007-4.47 2.28l-.355-2.28h-2.843v15.159h3.198v-7.61c0-2.338.918-4.558 3.76-4.558h1.421v-2.99h-.711zm9.154 15.336c3.76 0 6.307-2.28 6.84-5.27h-3.198c-.444 1.688-1.865 2.665-3.819 2.665-2.517 0-4.145-1.688-4.234-4.263v-.207h11.428a8.72 8.72 0 00.089-1.214c-.089-4.441-3.02-7.224-7.402-7.224-4.47 0-7.46 3.108-7.46 7.786 0 4.648 2.99 7.727 7.756 7.727zm-4.292-9.414c.236-2.162 1.983-3.523 4.026-3.523 2.22 0 3.79 1.273 4.056 3.523h-8.082zm39.026 6.513c-.681 0-1.155-.119-1.718-.74l-.917-1.007 4.47-6.72h-3.168l-3.108 4.737-3.79-4.116c3.76-1.54 4.856-3.493 4.856-5.655 0-2.694-2.28-4.677-5.27-4.677-3.524 0-6.129 2.19-6.129 5.122 0 1.746.415 2.871 1.836 4.648-3.346 1.48-4.471 3.76-4.471 5.803-.029 3.641 3.02 5.506 6.898 5.506 2.191 0 4.027-.77 5.714-2.368l.8.888c.918 1.036 2.161 1.303 3.553 1.303h2.457v-2.724h-2.013zm-8.823-15.75c1.421 0 2.339.976 2.339 2.338 0 1.51-1.007 2.783-3.375 3.79-1.214-1.392-1.717-2.19-1.717-3.523 0-1.51 1.125-2.606 2.753-2.606zm-1.54 16.016c-2.22 0-3.76-1.154-3.76-3.197 0-1.599.681-2.724 2.695-3.76l.059.06 4.855 5.299c-1.154 1.036-2.398 1.598-3.849 1.598zM9.681 40.967c-2.368 0-3.937 1.095-4.944 2.427l-.385-2.25H1.57v21.08h3.198v-8.053c.947 1.362 2.575 2.31 4.914 2.31 4.145 0 7.165-3.08 7.165-7.758 0-4.855-3.02-7.756-7.165-7.756zm-.533 12.82c-2.664 0-4.411-2.103-4.411-5.123 0-2.93 1.747-4.974 4.411-4.974 2.665 0 4.441 2.043 4.441 5.034 0 2.96-1.776 5.062-4.44 5.062zm17.425 2.693c4.618 0 7.727-3.108 7.727-7.756 0-4.619-3.109-7.757-7.727-7.757-4.619 0-7.727 3.138-7.727 7.757 0 4.648 3.108 7.756 7.727 7.756zm0-2.723c-2.694 0-4.441-2.102-4.441-5.033 0-2.931 1.747-5.033 4.44-5.033 2.695 0 4.471 2.101 4.471 5.032 0 2.932-1.776 5.034-4.47 5.034zm9.56-2.458c.089 3.287 2.872 5.181 6.928 5.181 3.671 0 6.424-1.835 6.424-4.737 0-3.375-2.812-4.085-6.276-4.5-2.191-.237-3.642-.414-3.642-1.835 0-1.214 1.244-1.984 3.139-1.984 1.894 0 3.197.977 3.375 2.368h3.138c-.207-3.108-2.842-4.825-6.573-4.825-3.641-.03-6.217 1.835-6.217 4.707 0 3.138 2.724 3.879 6.188 4.293 2.339.296 3.73.415 3.73 2.043 0 1.214-1.303 1.983-3.286 1.983-2.31 0-3.671-1.125-3.79-2.694h-3.138zm16.926.889c0 2.753 1.243 4.115 4.145 4.115h2.96V53.49h-2.25c-1.214 0-1.628-.444-1.628-1.628v-7.905h3.7v-2.813h-3.7v-4.233h-3.227v4.233h-2.635v2.813h2.635v8.23zm18.363-2.99v-2.636H61.356v2.635h10.066zm20.386-8.231c-2.487 0-4.204 1.095-5.18 2.753-.918-1.954-2.695-2.753-4.678-2.753-2.28.03-3.583 1.036-4.441 2.161l-.356-1.984H74.37v15.159h3.198V48.19c0-2.695 1.362-4.47 3.553-4.47 2.102 0 3.197 1.39 3.197 4.055v8.527h3.227v-8.201c0-2.724 1.392-4.382 3.582-4.382 2.073 0 3.168 1.392 3.168 4.056v8.527h3.198v-8.734c0-4.796-2.546-6.602-5.685-6.602zm22.439 12.553c-.651 0-.977-.208-.977-.977v-6.07c0-3.582-2.309-5.506-6.336-5.506-3.819 0-6.365 1.835-6.691 4.796h3.139c.236-1.332 1.51-2.22 3.404-2.22 2.102 0 3.316 1.036 3.316 2.723v.918h-3.819c-4.234 0-6.484 1.747-6.484 4.855 0 2.813 2.31 4.441 5.625 4.441 2.458 0 3.997-1.066 5.004-2.605 0 1.51.71 2.428 2.783 2.428h1.687V53.52h-.651zm-4.145-3.435c-.029 2.34-1.569 3.908-4.233 3.908-1.747 0-2.813-.888-2.813-2.16 0-1.54 1.095-2.28 3.079-2.28h3.967v.532zm14.206-8.94c-2.487 0-3.701 1.006-4.47 2.279l-.356-2.28h-2.842v15.159h3.198v-7.61c0-2.338.917-4.558 3.76-4.558h1.421v-2.99h-.711zm2.683 15.158h3.197v-3.85l2.724-2.841 4.47 6.69h3.79l-6.069-9.03 5.714-6.128h-3.76l-6.869 7.343V35.578h-3.197v20.725zm21.968.177c3.76 0 6.306-2.28 6.839-5.27h-3.197c-.444 1.688-1.865 2.665-3.819 2.665-2.517 0-4.145-1.688-4.234-4.263v-.208h11.428a8.72 8.72 0 00.089-1.213c-.089-4.441-3.02-7.224-7.402-7.224-4.47 0-7.461 3.108-7.461 7.786 0 4.648 2.991 7.727 7.757 7.727zm-4.293-9.414c.237-2.162 1.984-3.524 4.027-3.524 2.22 0 3.789 1.273 4.056 3.524h-8.083zm14.963 5.121c0 2.754 1.244 4.116 4.145 4.116h2.961V53.49h-2.25c-1.214 0-1.628-.444-1.628-1.628v-7.905h3.7v-2.813h-3.7v-4.233h-3.228v4.233h-2.635v2.813h2.635v8.23zm34.153-11.22c-2.487 0-4.204 1.095-5.181 2.753-.918-1.954-2.694-2.753-4.678-2.753-2.279.03-3.582 1.036-4.441 2.161l-.355-1.984h-2.783v15.159h3.197V48.19c0-2.695 1.362-4.47 3.553-4.47 2.102 0 3.198 1.39 3.198 4.055v8.527h3.227v-8.201c0-2.724 1.391-4.382 3.582-4.382 2.073 0 3.168 1.392 3.168 4.056v8.527h3.197v-8.734c0-4.796-2.546-6.602-5.684-6.602zm15.632 15.513c4.619 0 7.727-3.108 7.727-7.756 0-4.619-3.108-7.757-7.727-7.757-4.618 0-7.727 3.138-7.727 7.757 0 4.648 3.109 7.756 7.727 7.756zm0-2.723c-2.694 0-4.441-2.102-4.441-5.033 0-2.931 1.747-5.033 4.441-5.033s4.471 2.101 4.471 5.032c0 2.932-1.777 5.034-4.471 5.034zm13.69 2.546h3.908l5.596-15.159h-3.375l-4.116 11.724-4.174-11.724h-3.434l5.595 15.159zm17.623.177c3.76 0 6.306-2.28 6.839-5.27h-3.198c-.444 1.688-1.865 2.665-3.819 2.665-2.516 0-4.145-1.688-4.233-4.263v-.208h11.427a8.57 8.57 0 00.089-1.213c-.089-4.441-3.02-7.224-7.401-7.224-4.471 0-7.461 3.108-7.461 7.786 0 4.648 2.99 7.727 7.757 7.727zm-4.293-9.414c.237-2.162 1.984-3.524 4.026-3.524 2.221 0 3.79 1.273 4.056 3.524h-8.082zm13.245 4.233c.089 3.287 2.872 5.181 6.928 5.181 3.671 0 6.425-1.835 6.425-4.737 0-3.375-2.813-4.085-6.277-4.5-2.191-.237-3.641-.414-3.641-1.835 0-1.214 1.243-1.984 3.138-1.984 1.895 0 3.197.977 3.375 2.368h3.138c-.207-3.108-2.842-4.825-6.572-4.825-3.642-.03-6.218 1.835-6.218 4.707 0 3.138 2.724 3.879 6.188 4.293 2.339.296 3.73.415 3.73 2.043 0 1.214-1.302 1.983-3.286 1.983-2.309 0-3.671-1.125-3.79-2.694h-3.138z" fill="url(#paint0_linear_1240_5932)"/><defs><linearGradient id="paint0_linear_1240_5932" x1="266" y1="31.659" x2="0" y2="31.659" gradientUnits="userSpaceOnUse"><stop stop-color="#FF4343"/><stop offset=".5" stop-color="#9C0B93"/><stop offset="1" stop-color="#4C1BB7"/></linearGradient></defs></svg>