<svg width="529" height="143" viewBox="0 0 529 143" fill="none" xmlns="http://www.w3.org/2000/svg"><path d="M1.922 108.802l1.512-3.852H9.23l1.512 3.852h1.044l-4.86-12.6H5.792l-4.878 12.6h1.008zm4.41-11.52l2.61 6.768h-5.22l2.61-6.768zm10.426 11.628c2.07 0 3.528-1.188 3.888-3.042h-.972c-.306 1.35-1.404 2.214-2.916 2.214-1.998 0-3.384-1.566-3.384-3.834s1.368-3.87 3.384-3.87c1.53 0 2.61.864 2.934 2.232h.954c-.378-1.89-1.8-3.042-3.87-3.042-2.574 0-4.338 1.908-4.338 4.68 0 2.808 1.746 4.662 4.32 4.662zm9.65 0c2.07 0 3.528-1.188 3.888-3.042h-.972c-.306 1.35-1.404 2.214-2.916 2.214-1.998 0-3.384-1.566-3.384-3.834s1.368-3.87 3.384-3.87c1.53 0 2.61.864 2.934 2.232h.954c-.378-1.89-1.8-3.042-3.87-3.042-2.574 0-4.338 1.908-4.338 4.68 0 2.808 1.746 4.662 4.32 4.662zm9.705 0c1.998 0 3.528-1.296 3.924-3.132H39.1c-.36 1.422-1.566 2.304-3.06 2.304-2.034 0-3.312-1.548-3.348-3.672v-.162h7.452c0-.126.018-.27.018-.378-.09-2.718-1.764-4.302-4.212-4.302-2.502 0-4.212 1.908-4.212 4.608 0 2.862 1.782 4.734 4.374 4.734zm-3.348-5.436c.144-1.854 1.53-3.096 3.204-3.096 1.782 0 3.06 1.098 3.204 3.096h-6.408zm8.78 2.52c.073 1.89 1.603 2.916 3.889 2.916 1.962 0 3.546-.99 3.546-2.61 0-1.926-1.692-2.304-3.654-2.574-1.422-.198-2.682-.36-2.682-1.638 0-1.044 1.026-1.728 2.574-1.728 1.458 0 2.502.702 2.664 1.89h.936c-.162-1.782-1.62-2.682-3.6-2.682-2.034-.018-3.492 1.026-3.492 2.592 0 1.836 1.692 2.178 3.564 2.43 1.53.216 2.772.414 2.772 1.764 0 1.08-1.134 1.764-2.628 1.764-1.746 0-2.88-.81-2.952-2.124h-.936zm8.596 0c.072 1.89 1.602 2.916 3.888 2.916 1.962 0 3.546-.99 3.546-2.61 0-1.926-1.692-2.304-3.654-2.574-1.422-.198-2.682-.36-2.682-1.638 0-1.044 1.026-1.728 2.574-1.728 1.458 0 2.502.702 2.664 1.89h.936c-.162-1.782-1.62-2.682-3.6-2.682-2.034-.018-3.492 1.026-3.492 2.592 0 1.836 1.692 2.178 3.564 2.43 1.53.216 2.772.414 2.772 1.764 0 1.08-1.134 1.764-2.628 1.764-1.746 0-2.88-.81-2.952-2.124h-.936zm18.07 2.916c2.573 0 4.391-1.908 4.391-4.68 0-2.754-1.818-4.662-4.392-4.662-2.574 0-4.374 1.908-4.374 4.662 0 2.772 1.8 4.68 4.374 4.68zm0-.828c-2.035 0-3.439-1.584-3.439-3.852 0-2.25 1.404-3.852 3.438-3.852 2.034 0 3.438 1.602 3.438 3.852 0 2.268-1.404 3.852-3.438 3.852zm8.475.72h1.098l3.564-9.126h-.954l-3.132 8.064-3.15-8.064h-.99l3.564 9.126zm9.56.108c1.998 0 3.528-1.296 3.924-3.132h-.936c-.36 1.422-1.566 2.304-3.06 2.304-2.034 0-3.312-1.548-3.348-3.672v-.162h7.452c0-.126.018-.27.018-.378-.09-2.718-1.764-4.302-4.212-4.302-2.502 0-4.212 1.908-4.212 4.608 0 2.862 1.782 4.734 4.374 4.734zm-3.348-5.436c.144-1.854 1.53-3.096 3.204-3.096 1.782 0 3.06 1.098 3.204 3.096h-6.408zm12.938-3.798c-1.692 0-2.412.81-2.79 1.818l-.144-1.818h-.792v9.126h.918v-4.626c0-1.854.486-3.618 2.628-3.618h.666v-.882h-.486zm13.178 2.574c1.17-.27 2.178-1.332 2.178-2.808 0-1.962-1.692-3.348-4.392-3.348-2.682 0-4.374 1.386-4.374 3.348 0 1.53 1.008 2.538 2.16 2.826-1.35.306-2.502 1.35-2.502 3.096 0 2.088 1.746 3.546 4.716 3.546s4.734-1.458 4.734-3.546c0-1.782-1.17-2.826-2.52-3.114zm-2.214-4.608c1.44 0 2.376.756 2.376 1.854 0 1.116-.936 1.872-2.376 1.872-1.422 0-2.358-.756-2.358-1.872 0-1.098.936-1.854 2.358-1.854zm0 9.738c-1.584 0-2.682-.9-2.682-2.124 0-1.224 1.098-2.106 2.682-2.106 1.602 0 2.7.882 2.7 2.106 0 1.224-1.098 2.124-2.7 2.124zm6.061-4.59c0 3.798 2.034 6.12 4.968 6.12s4.968-2.322 4.968-6.12v-.576c0-3.654-2.034-6.12-4.968-6.12s-4.968 2.466-4.968 6.12v.576zm7.92-.072c0 2.826-1.188 4.446-2.952 4.446s-2.952-1.62-2.952-4.446v-.432c0-2.808 1.188-4.446 2.952-4.446s2.952 1.638 2.952 4.446v.432zm7.339-1.422h1.602v7.506h1.962v-7.506h2.466v-1.71h-2.502v-.774c0-.63.27-.9.9-.9h1.602v-1.71h-1.854c-1.782 0-2.574.864-2.574 2.52v.864h-1.602v1.71zm11.005 7.614c2.808 0 4.698-1.89 4.698-4.716 0-2.808-1.89-4.716-4.698-4.716-2.808 0-4.698 1.908-4.698 4.716 0 2.826 1.89 4.716 4.698 4.716zm0-1.656c-1.638 0-2.7-1.278-2.7-3.06s1.062-3.06 2.7-3.06c1.638 0 2.718 1.278 2.718 3.06s-1.08 3.06-2.718 3.06zm10.923-7.668c-1.512 0-2.25.612-2.718 1.386l-.216-1.386h-1.728v9.216h1.944v-4.626c0-1.422.558-2.772 2.286-2.772h.864v-1.818h-.432zm5.566 9.324c2.286 0 3.834-1.386 4.158-3.204h-1.944c-.27 1.026-1.134 1.62-2.322 1.62-1.53 0-2.52-1.026-2.574-2.592v-.126h6.948a5.28 5.28 0 00.054-.738c-.054-2.7-1.836-4.392-4.5-4.392-2.718 0-4.536 1.89-4.536 4.734 0 2.826 1.818 4.698 4.716 4.698zm-2.61-5.724c.144-1.314 1.206-2.142 2.448-2.142 1.35 0 2.304.774 2.466 2.142h-4.914zm7.126 5.616h2.142l2.43-3.348 2.412 3.348h2.268l-3.474-4.716 3.276-4.5h-2.142l-2.25 3.114-2.196-3.114h-2.268l3.258 4.5-3.456 4.716zm19.737-9.324c-1.44 0-2.394.666-3.006 1.476l-.234-1.368h-1.692v12.816h1.944v-4.896c.576.828 1.566 1.404 2.988 1.404 2.52 0 4.356-1.872 4.356-4.716 0-2.952-1.836-4.716-4.356-4.716zm-.324 7.794c-1.62 0-2.682-1.278-2.682-3.114 0-1.782 1.062-3.024 2.682-3.024 1.62 0 2.7 1.242 2.7 3.06 0 1.8-1.08 3.078-2.7 3.078zm14.662-.162c-.396 0-.594-.126-.594-.594v-3.69c0-2.178-1.404-3.348-3.852-3.348-2.322 0-3.87 1.116-4.068 2.916h1.908c.144-.81.918-1.35 2.07-1.35 1.278 0 2.016.63 2.016 1.656v.558h-2.322c-2.574 0-3.942 1.062-3.942 2.952 0 1.71 1.404 2.7 3.42 2.7 1.494 0 2.43-.648 3.042-1.584 0 .918.432 1.476 1.692 1.476h1.026v-1.692h-.396zm-2.52-2.088c-.018 1.422-.954 2.376-2.574 2.376-1.062 0-1.71-.54-1.71-1.314 0-.936.666-1.386 1.872-1.386h2.412v.324zm4.965-6.732c.666 0 1.188-.486 1.188-1.17 0-.684-.522-1.17-1.188-1.17-.666 0-1.188.486-1.188 1.17 0 .684.522 1.17 1.188 1.17zm-.99 10.512h1.944v-9.216h-1.944v9.216zm8.511-9.216c-1.512 0-2.25.612-2.718 1.386l-.216-1.386h-1.728v9.216h1.944v-4.626c0-1.422.558-2.772 2.286-2.772h.864v-1.818h-.432zm1.077 6.174c.054 1.998 1.746 3.15 4.212 3.15 2.232 0 3.906-1.116 3.906-2.88 0-2.052-1.71-2.484-3.816-2.736-1.332-.144-2.214-.252-2.214-1.116 0-.738.756-1.206 1.908-1.206s1.944.594 2.052 1.44h1.908c-.126-1.89-1.728-2.934-3.996-2.934-2.214-.018-3.78 1.116-3.78 2.862 0 1.908 1.656 2.358 3.762 2.61 1.422.18 2.268.252 2.268 1.242 0 .738-.792 1.206-1.998 1.206-1.404 0-2.232-.684-2.304-1.638h-1.908zm16.816 3.042h.99l2.7-7.668 2.574 7.668h.99l3.24-9.126h-.936l-2.808 8.028-2.61-8.028h-.846l-2.754 8.028-2.664-8.028h-.972l3.096 9.126zM234.31 97.75c.36 0 .648-.27.648-.648a.634.634 0 00-.648-.648c-.36 0-.648.27-.648.648s.288.648.648.648zm-.468 11.052h.918v-9.126h-.918v9.126zm3.761-2.124c0 1.458.594 2.124 2.142 2.124h1.332v-.846h-1.26c-.954 0-1.296-.36-1.296-1.296v-6.138h2.466v-.846h-2.466V97.12h-.918v2.556h-1.728v.846h1.728v6.156zm9.082-7.11c-1.71 0-2.772.954-3.294 2.268v-5.634h-.918v12.6h.918v-4.5c0-2.376 1.206-3.888 3.15-3.888 1.746 0 2.826 1.152 2.826 3.312v5.076h.918v-5.112c0-2.88-1.53-4.122-3.6-4.122zm18.529 8.388c-.54 0-.81-.18-.81-.882v-4.248c0-2.088-1.278-3.258-3.564-3.258-2.088 0-3.474 1.008-3.708 2.664h.918c.234-1.116 1.206-1.854 2.754-1.854 1.71 0 2.682.9 2.682 2.412v.792h-3.096c-2.34 0-3.6 1.008-3.6 2.718 0 1.62 1.278 2.61 3.222 2.61 1.854 0 2.952-.846 3.51-1.98v.324c-.036 1.08.414 1.548 1.494 1.548h.54v-.846h-.342zm-1.728-2.844c0 1.746-1.242 3.006-3.402 3.006-1.458 0-2.358-.738-2.358-1.872 0-1.206.9-1.872 2.592-1.872h3.168v.738zm10.363 3.69h.99l2.7-7.668 2.574 7.668h.99l3.24-9.126h-.936l-2.808 8.028-2.61-8.028h-.846l-2.754 8.028-2.664-8.028h-.972l3.096 9.126zm15.529.108c2.574 0 4.392-1.908 4.392-4.68 0-2.754-1.818-4.662-4.392-4.662-2.574 0-4.374 1.908-4.374 4.662 0 2.772 1.8 4.68 4.374 4.68zm0-.828c-2.034 0-3.438-1.584-3.438-3.852 0-2.25 1.404-3.852 3.438-3.852 2.034 0 3.438 1.602 3.438 3.852 0 2.268-1.404 3.852-3.438 3.852zm9.942-8.406c-1.692 0-2.412.81-2.79 1.818l-.144-1.818h-.792v9.126h.918v-4.626c0-1.854.486-3.618 2.628-3.618h.666v-.882h-.486zm1.847 9.126h.918v-12.6h-.918v12.6zm10.528-7.074c-.558-1.296-1.782-2.16-3.492-2.16-2.502 0-4.302 1.908-4.302 4.662 0 2.88 1.8 4.68 4.302 4.68 1.71 0 2.898-.918 3.474-2.196l.144 2.088h.792v-12.6h-.918v5.526zm-3.42 6.354c-2.034 0-3.438-1.584-3.438-3.852 0-2.25 1.404-3.852 3.438-3.852 2.034 0 3.438 1.602 3.438 3.87 0 2.25-1.404 3.834-3.438 3.834zm11.349.72h.918v-12.6h-.918v12.6zm7.108.108c1.998 0 3.528-1.296 3.924-3.132h-.936c-.36 1.422-1.566 2.304-3.06 2.304-2.034 0-3.312-1.548-3.348-3.672v-.162h7.452c0-.126.018-.27.018-.378-.09-2.718-1.764-4.302-4.212-4.302-2.502 0-4.212 1.908-4.212 4.608 0 2.862 1.782 4.734 4.374 4.734zm-3.348-5.436c.144-1.854 1.53-3.096 3.204-3.096 1.782 0 3.06 1.098 3.204 3.096h-6.408zm17.24 4.482c-.54 0-.81-.18-.81-.882v-4.248c0-2.088-1.278-3.258-3.564-3.258-2.088 0-3.474 1.008-3.708 2.664h.918c.234-1.116 1.206-1.854 2.754-1.854 1.71 0 2.682.9 2.682 2.412v.792H335.8c-2.34 0-3.6 1.008-3.6 2.718 0 1.62 1.278 2.61 3.222 2.61 1.854 0 2.952-.846 3.51-1.98v.324c-.036 1.08.414 1.548 1.494 1.548h.54v-.846h-.342zm-1.728-2.844c0 1.746-1.242 3.006-3.402 3.006-1.458 0-2.358-.738-2.358-1.872 0-1.206.9-1.872 2.592-1.872h3.168v.738zm10.609-3.384c-.558-1.296-1.782-2.16-3.492-2.16-2.502 0-4.302 1.908-4.302 4.662 0 2.88 1.8 4.68 4.302 4.68 1.71 0 2.898-.918 3.474-2.196l.144 2.088h.792v-12.6h-.918v5.526zm-3.42 6.354c-2.034 0-3.438-1.584-3.438-3.852 0-2.25 1.404-3.852 3.438-3.852 2.034 0 3.438 1.602 3.438 3.87 0 2.25-1.404 3.834-3.438 3.834zm10.53.828c1.998 0 3.528-1.296 3.924-3.132h-.936c-.36 1.422-1.566 2.304-3.06 2.304-2.034 0-3.312-1.548-3.348-3.672v-.162h7.452c0-.126.018-.27.018-.378-.09-2.718-1.764-4.302-4.212-4.302-2.502 0-4.212 1.908-4.212 4.608 0 2.862 1.782 4.734 4.374 4.734zm-3.348-5.436c.144-1.854 1.53-3.096 3.204-3.096 1.782 0 3.06 1.098 3.204 3.096h-6.408zm12.938-3.798c-1.692 0-2.412.81-2.79 1.818l-.144-1.818h-.792v9.126h.918v-4.626c0-1.854.486-3.618 2.628-3.618h.666v-.882h-.486zm7.166-1.926c.36 0 .648-.27.648-.648a.634.634 0 00-.648-.648c-.36 0-.648.27-.648.648s.288.648.648.648zm-.468 11.052h.918v-9.126h-.918v9.126zm7.288-9.234c-1.674 0-2.754.864-3.276 2.052l-.144-1.944h-.792v9.126h.918v-4.5c0-2.376 1.206-3.888 3.15-3.888 1.764 0 2.826 1.152 2.826 3.312v5.076h.918v-5.112c0-2.88-1.53-4.122-3.6-4.122zm14.516 9.342c2.574 0 4.392-1.908 4.392-4.68 0-2.754-1.818-4.662-4.392-4.662-2.574 0-4.374 1.908-4.374 4.662 0 2.772 1.8 4.68 4.374 4.68zm0-.828c-2.034 0-3.438-1.584-3.438-3.852 0-2.25 1.404-3.852 3.438-3.852 2.034 0 3.438 1.602 3.438 3.852 0 2.268-1.404 3.852-3.438 3.852zm10.428-8.514c-1.674 0-2.754.864-3.276 2.052l-.144-1.944h-.792v9.126h.918v-4.5c0-2.376 1.206-3.888 3.15-3.888 1.764 0 2.826 1.152 2.826 3.312v5.076h.918v-5.112c0-2.88-1.53-4.122-3.6-4.122zm5.631 9.234h.918v-12.6h-.918v12.6zm3.544-11.052c.36 0 .648-.27.648-.648a.634.634 0 00-.648-.648c-.36 0-.648.27-.648.648s.288.648.648.648zm-.468 11.052h.918v-9.126h-.918v9.126zm7.289-9.234c-1.674 0-2.754.864-3.276 2.052l-.144-1.944h-.792v9.126h.918v-4.5c0-2.376 1.206-3.888 3.15-3.888 1.764 0 2.826 1.152 2.826 3.312v5.076h.918v-5.112c0-2.88-1.53-4.122-3.6-4.122zm9.523 9.342c1.998 0 3.528-1.296 3.924-3.132h-.936c-.36 1.422-1.566 2.304-3.06 2.304-2.034 0-3.312-1.548-3.348-3.672v-.162h7.452c0-.126.018-.27.018-.378-.09-2.718-1.764-4.302-4.212-4.302-2.502 0-4.212 1.908-4.212 4.608 0 2.862 1.782 4.734 4.374 4.734zm-3.348-5.436c.144-1.854 1.53-3.096 3.204-3.096 1.782 0 3.06 1.098 3.204 3.096h-6.408zm14.748 3.204c0 1.458.594 2.124 2.142 2.124h1.332v-.846h-1.26c-.954 0-1.296-.36-1.296-1.296v-6.138h2.466v-.846h-2.466V97.12h-.918v2.556h-1.728v.846h1.728v6.156zm8.597-7.002c-1.692 0-2.412.81-2.79 1.818l-.144-1.818h-.792v9.126h.918v-4.626c0-1.854.486-3.618 2.628-3.618h.666v-.882h-.486zm9.487 8.28c-.54 0-.81-.18-.81-.882v-4.248c0-2.088-1.278-3.258-3.564-3.258-2.088 0-3.474 1.008-3.708 2.664h.918c.234-1.116 1.206-1.854 2.754-1.854 1.71 0 2.682.9 2.682 2.412v.792h-3.096c-2.34 0-3.6 1.008-3.6 2.718 0 1.62 1.278 2.61 3.222 2.61 1.854 0 2.952-.846 3.51-1.98v.324c-.036 1.08.414 1.548 1.494 1.548h.54v-.846h-.342zm-1.728-2.844c0 1.746-1.242 3.006-3.402 3.006-1.458 0-2.358-.738-2.358-1.872 0-1.206.9-1.872 2.592-1.872h3.168v.738zm10.609-3.384c-.558-1.296-1.782-2.16-3.492-2.16-2.502 0-4.302 1.908-4.302 4.662 0 2.88 1.8 4.68 4.302 4.68 1.71 0 2.898-.918 3.474-2.196l.144 2.088h.792v-12.6h-.918v5.526zm-3.42 6.354c-2.034 0-3.438-1.584-3.438-3.852 0-2.25 1.404-3.852 3.438-3.852 2.034 0 3.438 1.602 3.438 3.87 0 2.25-1.404 3.834-3.438 3.834zm6.965-10.332c.36 0 .648-.27.648-.648a.634.634 0 00-.648-.648c-.36 0-.648.27-.648.648s.288.648.648.648zm-.468 11.052h.918v-9.126h-.918v9.126zm7.289-9.234c-1.674 0-2.754.864-3.276 2.052l-.144-1.944h-.792v9.126h.918v-4.5c0-2.376 1.206-3.888 3.15-3.888 1.764 0 2.826 1.152 2.826 3.312v5.076h.918v-5.112c0-2.88-1.53-4.122-3.6-4.122zm13.065 2.232c-.558-1.35-1.782-2.232-3.474-2.232-2.502 0-4.302 1.89-4.302 4.662 0 2.88 1.8 4.68 4.302 4.68 1.71 0 2.916-.9 3.492-2.322v1.62c0 2.43-1.152 3.474-3.348 3.474-1.71 0-2.898-.774-3.186-2.16h-.954c.288 1.944 1.854 2.988 4.068 2.988 2.952 0 4.338-1.404 4.338-4.266v-8.568h-.792l-.144 2.124zm-3.402 6.282c-2.034 0-3.438-1.584-3.438-3.852s1.404-3.852 3.438-3.852c2.034 0 3.438 1.584 3.438 3.87 0 2.25-1.404 3.834-3.438 3.834zm6.39.126c0 .414.288.684.684.684.396 0 .684-.27.684-.684 0-.414-.288-.666-.684-.666-.396 0-.684.252-.684.666zM1.457 73.267h2.528V61.54l4.782 11.728h2.21l4.782-11.728v11.728h2.527v-15.94h-3.324l-5.01 12.547L4.85 57.326H1.457v15.941zm30.156-2.14c-.501 0-.752-.16-.752-.752v-4.668c0-2.756-1.776-4.236-4.873-4.236-2.938 0-4.896 1.412-5.147 3.69h2.414c.182-1.026 1.162-1.709 2.619-1.709 1.617 0 2.55.797 2.55 2.095v.706h-2.937c-3.257 0-4.987 1.344-4.987 3.735 0 2.163 1.776 3.416 4.326 3.416 1.89 0 3.075-.82 3.849-2.004 0 1.161.547 1.867 2.14 1.867h1.299v-2.14h-.501zm-3.189-2.642c-.022 1.799-1.206 3.006-3.256 3.006-1.343 0-2.163-.683-2.163-1.662 0-1.185.842-1.754 2.368-1.754h3.051v.41zm5.03 4.782h2.459v-2.96l2.095-2.186 3.439 5.146h2.914l-4.668-6.945 4.395-4.715h-2.892l-5.283 5.648v-9.929h-2.46v15.941zm16.897.137c2.892 0 4.85-1.754 5.26-4.054h-2.459c-.341 1.298-1.434 2.05-2.937 2.05-1.936 0-3.189-1.298-3.257-3.28v-.159h8.79c.046-.319.069-.638.069-.934-.069-3.416-2.323-5.556-5.694-5.556-3.438 0-5.738 2.391-5.738 5.99 0 3.574 2.3 5.943 5.966 5.943zm-3.302-7.242c.182-1.662 1.526-2.71 3.097-2.71 1.708 0 2.915.98 3.12 2.71H47.05zm17.425 3.94c0 2.118.957 3.165 3.188 3.165h2.278v-2.163h-1.731c-.934 0-1.253-.342-1.253-1.253v-6.08h2.847v-2.163h-2.847V58.35h-2.482v3.257h-2.027v2.163h2.027v6.33zM77.63 61.47c-1.822 0-2.938.82-3.666 1.822v-5.967h-2.46v15.941h2.46V67.37c0-2.346 1.184-3.78 3.12-3.78 1.821 0 2.8 1.184 2.8 3.393v6.285h2.46v-6.49c0-3.894-2.118-5.306-4.714-5.306zm12.395 11.933c2.892 0 4.851-1.754 5.26-4.054h-2.459c-.341 1.298-1.434 2.05-2.937 2.05-1.936 0-3.188-1.298-3.257-3.28v-.159h8.79c.046-.319.069-.638.069-.934-.069-3.416-2.323-5.556-5.693-5.556-3.439 0-5.739 2.391-5.739 5.99 0 3.574 2.3 5.943 5.966 5.943zm-3.302-7.242c.183-1.662 1.526-2.71 3.097-2.71 1.708 0 2.915.98 3.12 2.71h-6.217zm22.481-4.555c-1.913 0-2.847.775-3.439 1.754l-.273-1.753h-2.186v11.66h2.459v-5.853c0-1.8.706-3.507 2.892-3.507h1.093v-2.3h-.546zm3.316-1.64c.842 0 1.503-.614 1.503-1.48 0-.865-.661-1.48-1.503-1.48-.843 0-1.503.615-1.503 1.48 0 .866.66 1.48 1.503 1.48zm-1.253 13.3h2.46v-11.66h-2.46v11.66zm13.775-9.838c-.752-1.161-2.004-1.958-3.826-1.958-3.165 0-5.511 2.346-5.511 5.92 0 3.713 2.346 5.922 5.511 5.922 1.822 0 3.029-.752 3.803-1.913v1.298c0 2.232-1.207 3.256-3.348 3.256-1.73 0-2.869-.751-3.165-2.05h-2.505c.228 2.62 2.391 4.054 5.488 4.054 4.19 0 5.967-2.004 5.967-5.17v-11.18h-2.141l-.273 1.821zm-3.416 7.811c-2.05 0-3.393-1.57-3.393-3.848 0-2.255 1.343-3.849 3.393-3.849 2.049 0 3.393 1.594 3.393 3.894 0 2.232-1.344 3.803-3.393 3.803zm14.359-9.77c-1.822 0-2.938.82-3.667 1.823v-5.967h-2.459v15.941h2.459V67.37c0-2.346 1.185-3.78 3.12-3.78 1.822 0 2.801 1.184 2.801 3.393v6.285h2.46v-6.49c0-3.894-2.118-5.306-4.714-5.306zm7.793 8.632c0 2.118.957 3.165 3.188 3.165h2.278v-2.163h-1.731c-.934 0-1.253-.342-1.253-1.253v-6.08h2.847v-2.163h-2.847V58.35h-2.482v3.257h-2.027v2.163h2.027v6.33zm26.27-8.631c-1.913 0-3.234.843-3.985 2.118-.706-1.503-2.073-2.118-3.599-2.118-1.753.023-2.755.797-3.415 1.662l-.274-1.526h-2.14v11.66h2.459v-6.24c0-2.072 1.048-3.438 2.733-3.438 1.617 0 2.459 1.07 2.459 3.12v6.558h2.482V66.96c0-2.095 1.071-3.37 2.756-3.37 1.594 0 2.437 1.07 2.437 3.12v6.558h2.459V66.55c0-3.689-1.958-5.078-4.372-5.078zm12.024 11.933c3.552 0 5.943-2.391 5.943-5.967 0-3.552-2.391-5.966-5.943-5.966-3.553 0-5.944 2.414-5.944 5.966 0 3.576 2.391 5.967 5.944 5.967zm0-2.095c-2.073 0-3.416-1.617-3.416-3.872 0-2.254 1.343-3.871 3.416-3.871 2.072 0 3.438 1.617 3.438 3.871 0 2.255-1.366 3.872-3.438 3.872zm10.53 1.958h3.006l4.304-11.66h-2.596l-3.166 9.019-3.21-9.019h-2.642l4.304 11.66zm13.555.137c2.892 0 4.851-1.754 5.26-4.054h-2.459c-.342 1.298-1.435 2.05-2.938 2.05-1.935 0-3.188-1.298-3.256-3.28v-.159h8.79a6.61 6.61 0 00.068-.934c-.068-3.416-2.322-5.556-5.693-5.556-3.438 0-5.738 2.391-5.738 5.99 0 3.574 2.3 5.943 5.966 5.943zm-3.302-7.242c.182-1.662 1.526-2.71 3.097-2.71 1.708 0 2.915.98 3.12 2.71h-6.217zm9.816 5.693c0 .911.661 1.549 1.572 1.549s1.594-.638 1.594-1.549c0-.91-.683-1.548-1.594-1.548s-1.572.637-1.572 1.548z" fill="#000"/><path d="M238.226 10.422h8.608v23.832h4.583V10.422h8.609V6.357h-21.8v4.065zm33.12 3.428c-3.347 0-4.981 1.355-6.018 3.068l-.478-3.068h-3.826v20.404h4.304V24.012c0-3.148 1.236-6.137 5.062-6.137h1.913V13.85h-.957zm21.64 16.658c-.877 0-1.315-.279-1.315-1.315v-8.17c0-4.822-3.109-7.412-8.529-7.412-5.141 0-8.568 2.47-9.007 6.456h4.225c.318-1.794 2.032-2.99 4.583-2.99 2.829 0 4.463 1.396 4.463 3.667v1.236h-5.141c-5.699 0-8.728 2.351-8.728 6.535 0 3.786 3.109 5.978 7.573 5.978 3.307 0 5.38-1.434 6.735-3.507 0 2.033.956 3.268 3.746 3.268h2.271v-3.746h-.876zm-5.58-4.623c-.04 3.149-2.112 5.26-5.699 5.26-2.351 0-3.786-1.195-3.786-2.909 0-2.072 1.475-3.068 4.145-3.068h5.34v.717zm24.148-9.206c-1.315-1.793-3.507-3.068-6.616-3.068-5.539 0-9.644 4.144-9.644 10.441 0 6.536 4.105 10.441 9.644 10.441 3.228 0 5.341-1.514 6.656-3.307l.518 3.068h3.746V6.357h-4.304V16.68zm-5.898 14.188c-3.587 0-5.938-2.79-5.938-6.815 0-3.985 2.351-6.775 5.938-6.775 3.586 0 5.938 2.79 5.938 6.855 0 3.945-2.352 6.735-5.938 6.735zm24.092 3.626c5.062 0 8.489-3.068 9.206-7.093h-4.304c-.598 2.271-2.511 3.586-5.141 3.586-3.387 0-5.579-2.271-5.699-5.738v-.28h15.383c.08-.557.12-1.115.12-1.633-.12-5.978-4.065-9.724-9.963-9.724-6.018 0-10.043 4.184-10.043 10.48 0 6.258 4.025 10.402 10.441 10.402zM323.97 21.82c.318-2.909 2.67-4.742 5.42-4.742 2.989 0 5.101 1.713 5.459 4.742H323.97zm29.298.479c0 7.93 3.746 12.194 10.96 12.194 7.253 0 11.039-4.264 11.039-12.195V6.359h-4.583v16.18c0 5.18-1.993 7.89-6.456 7.89-4.384 0-6.377-2.71-6.377-7.89V6.358h-4.583v15.94zm25.82 2.79c.159 5.579 4.344 9.404 11.278 9.404 6.138 0 10.322-3.467 10.322-8.488.04-5.5-4.463-6.974-9.086-7.811-4.384-.758-7.253-1.355-7.253-4.225 0-2.63 2.191-3.985 5.34-3.985 3.387 0 5.619 1.913 5.978 4.742h4.583c-.199-5.14-4.185-8.608-10.561-8.608-5.938 0-9.924 3.308-9.924 8.17 0 5.54 4.384 7.014 9.007 7.811 4.424.797 7.333 1.435 7.333 4.384 0 2.67-2.391 4.145-5.699 4.145-3.905 0-6.456-2.192-6.695-5.46l-4.623-.08zm35.12 9.165c8.727 0 14.227-5.699 14.227-13.988 0-8.29-5.5-13.909-14.227-13.909h-9.485v27.897h9.485zm-4.902-23.911h4.902c6.137 0 9.524 3.945 9.524 9.923s-3.387 10.003-9.524 10.003h-4.902V10.343zm22.895 29.092l11.318-34.273h-4.185l-11.278 34.273h4.145zm17.009-12.793c0 2.431-.997 3.547-3.428 3.547h-3.268v4.065h4.304c4.464 0 6.975-2.47 6.975-6.934V6.357h-4.583v20.285zm9.688 7.612h4.583V24.132h6.416c5.818 0 9.644-3.507 9.644-8.888 0-5.42-3.826-8.887-9.644-8.887h-10.999v27.897zm10.64-23.911c3.268 0 5.341 1.873 5.341 4.902 0 2.989-2.113 4.901-5.381 4.901h-6.017v-9.803h6.057zm20.489 13.59v10.321h4.583V23.932l10.401-17.575h-5.141l-7.532 12.753-7.333-12.753h-5.38l10.402 17.575zM244.244 74.253h4.663l4.463-13.869 4.304 13.87h4.623l6.775-20.405h-4.384l-4.822 15.622-4.463-15.622h-3.946l-4.663 15.622-4.662-15.622h-4.544l6.656 20.404zM273.53 50.98c1.474 0 2.63-1.076 2.63-2.59 0-1.515-1.156-2.59-2.63-2.59-1.475 0-2.631 1.075-2.631 2.59 0 1.514 1.156 2.59 2.631 2.59zm-2.192 23.274h4.304V53.85h-4.304v20.404zm9.998-5.54c0 3.707 1.673 5.54 5.579 5.54h3.985v-3.786h-3.029c-1.634 0-2.191-.597-2.191-2.192v-10.64h4.981V53.85h-4.981v-5.7h-4.344v5.7h-3.547v3.786h3.547v11.079zm23.023-15.103c-3.189 0-5.141 1.434-6.417 3.188V46.357h-4.304v27.897h4.304V63.932c0-4.104 2.073-6.615 5.46-6.615 3.188 0 4.902 2.072 4.902 5.938v11h4.304V62.895c0-6.815-3.706-9.285-8.249-9.285zm34.914 20.882c6.496 0 11.238-3.825 12.115-9.724h-4.742c-.877 3.547-3.547 5.7-7.413 5.7-5.261 0-8.449-4.225-8.449-10.163 0-5.978 3.268-10.163 8.569-10.163 3.786 0 6.416 2.192 7.332 5.7h4.743c-.917-5.899-5.5-9.725-11.876-9.725-8.25 0-13.47 5.7-13.47 14.188 0 8.568 5.061 14.187 13.191 14.187zm17.66-23.513c1.474 0 2.63-1.076 2.63-2.59 0-1.515-1.156-2.59-2.63-2.59-1.475 0-2.631 1.075-2.631 2.59 0 1.514 1.156 2.59 2.631 2.59zm-2.192 23.274h4.304V53.85h-4.304v20.404zm9.997-5.54c0 3.707 1.674 5.54 5.58 5.54h3.985v-3.786h-3.029c-1.634 0-2.192-.597-2.192-2.192v-10.64h4.982V53.85h-4.982v-5.7h-4.344v5.7h-3.546v3.786h3.546v11.079zm18.201 5.66l-.797 1.993c-.637 1.673-1.036 2.072-2.71 2.072h-3.029v3.786h4.623c2.989 0 3.866-1.475 5.141-4.782l9.246-23.593h-4.583l-5.539 15.502-5.699-15.502h-4.583l7.93 20.524zm25.286-.12h4.583V46.357h-4.583v27.897zm20.013-20.643c-3.308 0-5.261 1.315-6.536 2.909l-.478-2.67h-3.746v20.404h4.304V63.972c0-4.144 2.032-6.655 5.46-6.655 3.228 0 4.862 2.072 4.862 5.938v11h4.344V62.895c0-6.815-3.707-9.285-8.21-9.285zm27.471 3.068c-1.315-1.793-3.507-3.068-6.616-3.068-5.539 0-9.644 4.144-9.644 10.441 0 6.536 4.105 10.441 9.644 10.441 3.229 0 5.341-1.514 6.656-3.307l.518 3.068h3.746V46.357h-4.304V56.68zm-5.898 14.188c-3.587 0-5.938-2.79-5.938-6.815 0-3.985 2.351-6.775 5.938-6.775 3.587 0 5.938 2.79 5.938 6.855 0 3.945-2.351 6.735-5.938 6.735zm24.092 3.626c5.062 0 8.489-3.068 9.206-7.093h-4.304c-.598 2.271-2.51 3.586-5.141 3.586-3.387 0-5.579-2.271-5.699-5.738v-.28h15.383c.08-.557.12-1.115.12-1.633-.12-5.978-4.065-9.724-9.963-9.724-6.018 0-10.043 4.184-10.043 10.48 0 6.258 4.025 10.402 10.441 10.402zm-5.778-12.673c.319-2.909 2.67-4.742 5.42-4.742 2.989 0 5.101 1.713 5.46 4.742h-10.88zm15.776 12.434h4.743l5.38-7.412 5.34 7.412h5.022l-7.692-10.441 7.253-9.963h-4.742l-4.982 6.894-4.862-6.894h-5.021l7.213 9.963-7.652 10.441zm21.952-2.47c0 1.593 1.156 2.71 2.75 2.71s2.789-1.117 2.789-2.71c0-1.595-1.195-2.71-2.789-2.71s-2.75 1.115-2.75 2.71z" fill="url(#paint0_linear_619_8246)"/><defs><linearGradient id="paint0_linear_619_8246" x1="529" y1="36.773" x2="237.429" y2="36.773" gradientUnits="userSpaceOnUse"><stop stop-color="#FF4343"/><stop offset=".5" stop-color="#9C0B93"/><stop offset="1" stop-color="#4C1BB7"/></linearGradient></defs></svg>