<svg width="225" height="72" viewBox="0 0 225 72" fill="none" xmlns="http://www.w3.org/2000/svg"><path d="M46.5 47.14L74.047 1.722H52.03l-14.711 25.77-14.613-25.77H.49l27.448 45.615v23.5H46.5V47.14zM111.535.833c-20.438 0-37.026 15.896-37.026 35.545 0 19.55 16.588 35.445 37.026 35.445 20.438 0 37.025-15.896 37.025-35.445 0-19.649-16.587-35.545-37.025-35.545zm0 17.378c10.367 0 17.673 8.096 17.673 18.167 0 9.972-7.306 18.068-17.673 18.068-10.367 0-17.575-8.096-17.575-18.068 0-10.071 7.208-18.168 17.575-18.168zM224.336 1.72h-18.661v37.421c0 11.058-5.035 15.7-13.131 15.7-7.998 0-13.033-4.642-13.132-15.7V1.82H160.85v37.322c0 22.61 12.243 32.681 31.694 32.681 19.45 0 31.792-10.07 31.792-32.68V1.721z" fill="#09B45B"/></svg>