<svg width="142" height="67" viewBox="0 0 142 67" fill="none" xmlns="http://www.w3.org/2000/svg"><path d="M7.36 15.12c2.22 0 3.66-1 4.34-2l.2 1.88h1.78V7.34H7.6v1.94h3.88v.34c-.12 2.26-1.86 3.48-4.02 3.48C4.78 13.1 3.1 11 3.1 8c0-3 1.72-5.1 4.38-5.1 1.94 0 3.28 1.08 3.7 2.86h2.38C13.14 2.8 10.78.88 7.54.88 3.38.88.74 3.74.74 8s2.7 7.12 6.62 7.12zm8.66-.12h2.16V1h-2.16v14zm9.118.12c3.12 0 5.22-2.1 5.22-5.24 0-3.12-2.1-5.24-5.22-5.24-3.12 0-5.22 2.12-5.22 5.24 0 3.14 2.1 5.24 5.22 5.24zm0-1.84c-1.82 0-3-1.42-3-3.4s1.18-3.4 3-3.4 3.02 1.42 3.02 3.4-1.2 3.4-3.02 3.4zm12.437-8.64c-1.58 0-2.64.72-3.32 1.64V1h-2.16v14h1.88l.26-1.48c.64.92 1.74 1.6 3.34 1.6 2.8 0 4.84-2.1 4.84-5.24 0-3.3-2.04-5.24-4.84-5.24zm-.36 8.66c-1.8 0-2.98-1.42-2.98-3.44 0-1.98 1.18-3.38 2.98-3.38s3 1.4 3 3.4c0 2.02-1.2 3.42-3 3.42zm16.29-.18c-.44 0-.66-.14-.66-.66v-4.1c0-2.42-1.56-3.72-4.28-3.72-2.58 0-4.3 1.24-4.52 3.24h2.12c.16-.9 1.02-1.5 2.3-1.5 1.42 0 2.24.7 2.24 1.84v.62h-2.58c-2.86 0-4.38 1.18-4.38 3.28 0 1.9 1.56 3 3.8 3 1.66 0 2.7-.72 3.38-1.76 0 1.02.48 1.64 1.88 1.64h1.14v-1.88h-.44zm-2.8-2.32c-.02 1.58-1.06 2.64-2.86 2.64-1.18 0-1.9-.6-1.9-1.46 0-1.04.74-1.54 2.08-1.54h2.68v.36zm4.418 4.2h2.16V1h-2.16v14zM76.297 4.64c-1.68 0-2.84.74-3.5 1.86-.62-1.32-1.82-1.86-3.16-1.86-1.54.02-2.42.7-3 1.46l-.24-1.34h-1.88V15h2.16V9.52c0-1.82.92-3.02 2.4-3.02 1.42 0 2.16.94 2.16 2.74V15h2.18V9.46c0-1.84.94-2.96 2.42-2.96 1.4 0 2.14.94 2.14 2.74V15h2.16V9.1c0-3.24-1.72-4.46-3.84-4.46zm15.158 8.48c-.44 0-.66-.14-.66-.66v-4.1c0-2.42-1.56-3.72-4.28-3.72-2.58 0-4.3 1.24-4.52 3.24h2.12c.16-.9 1.02-1.5 2.3-1.5 1.42 0 2.24.7 2.24 1.84v.62h-2.58c-2.86 0-4.38 1.18-4.38 3.28 0 1.9 1.56 3 3.8 3 1.66 0 2.7-.72 3.38-1.76 0 1.02.48 1.64 1.88 1.64h1.14v-1.88h-.44zm-2.8-2.32c-.02 1.58-1.06 2.64-2.86 2.64-1.18 0-1.9-.6-1.9-1.46 0-1.04.74-1.54 2.08-1.54h2.68v.36zm9.597-6.04c-1.68 0-2.5.68-3.02 1.54l-.24-1.54h-1.92V15h2.16V9.86c0-1.58.62-3.08 2.54-3.08h.96V4.76h-.48zM100.064 15h2.16v-2.6l1.84-1.92 3.02 4.52h2.56l-4.1-6.1 3.86-4.14h-2.54l-4.64 4.96V1h-2.16v14zm14.84.12c2.54 0 4.26-1.54 4.62-3.56h-2.16c-.3 1.14-1.26 1.8-2.58 1.8-1.7 0-2.8-1.14-2.86-2.88v-.14h7.72c.04-.28.06-.56.06-.82-.06-3-2.04-4.88-5-4.88-3.02 0-5.04 2.1-5.04 5.26 0 3.14 2.02 5.22 5.24 5.22zm-2.9-6.36c.16-1.46 1.34-2.38 2.72-2.38 1.5 0 2.56.86 2.74 2.38h-5.46zm10.109 3.46c0 1.86.839 2.78 2.8 2.78h2v-1.9h-1.52c-.82 0-1.1-.3-1.1-1.1V6.66h2.5v-1.9h-2.5V1.9h-2.18v2.86h-1.78v1.9h1.78v5.56zm5.734-.6c.06 2.22 1.94 3.5 4.68 3.5 2.48 0 4.34-1.24 4.34-3.2 0-2.28-1.9-2.76-4.24-3.04-1.48-.16-2.46-.28-2.46-1.24 0-.82.84-1.34 2.12-1.34 1.28 0 2.16.66 2.28 1.6h2.12c-.14-2.1-1.92-3.26-4.44-3.26-2.46-.02-4.2 1.24-4.2 3.18 0 2.12 1.84 2.62 4.18 2.9 1.58.2 2.52.28 2.52 1.38 0 .82-.88 1.34-2.22 1.34-1.56 0-2.48-.76-2.56-1.82h-2.12zm11.557.8c-.92 0-1.52.6-1.52 1.36 0 .86.52 1.28 1.18 1.28.24 0 .48-.06.66-.2.02.08.02.18.02.26 0 .7-.5 1.48-1.76 1.5v1.16c1.98-.02 3.22-1.12 3.22-3.06 0-1.28-.7-2.3-1.8-2.3zM.44 39h9.92v-1.94H3.58l3.72-3.1c1.7-1.42 2.96-2.72 2.96-4.8 0-2.56-1.76-4.28-4.9-4.28-2.98 0-4.9 1.94-4.9 4.6v.36h2.22v-.24c0-1.74 1.08-2.82 2.68-2.82s2.66.88 2.66 2.48c0 1.34-.94 2.32-2.2 3.38L.44 37.22V39zm10.543-3.24h7.14V39h2.18v-3.24h2.12v-1.92h-2.12V25h-2.6l-6.72 8.88v1.88zm7.14-8.34v6.42h-4.86l4.86-6.42zm12.43 6.78v-1.78h-6.8v1.78h6.8zm7.371-5.56c-1.6 0-2.58.72-3.22 1.6V25h-2.16v14h2.16v-5.18c0-2.06 1.04-3.32 2.74-3.32 1.6 0 2.46 1.04 2.46 2.98V39h2.16v-5.7c0-3.42-1.86-4.66-4.14-4.66zm10.867 10.48c3.12 0 5.22-2.1 5.22-5.24 0-3.12-2.1-5.24-5.22-5.24-3.12 0-5.22 2.12-5.22 5.24 0 3.14 2.1 5.24 5.22 5.24zm0-1.84c-1.82 0-3-1.42-3-3.4s1.18-3.4 3-3.4 3.02 1.42 3.02 3.4-1.2 3.4-3.02 3.4zm13.977-3.4c0 2.12-1 3.36-2.64 3.36-1.58 0-2.38-1.02-2.38-3.02v-5.46h-2.16v5.7c0 3.5 1.86 4.66 4.04 4.66 1.58 0 2.52-.64 3.16-1.42l.24 1.3h1.9V28.76h-2.16v5.12zm9.468-5.12c-1.68 0-2.5.68-3.02 1.54l-.24-1.54h-1.92V39h2.16v-5.14c0-1.58.62-3.08 2.54-3.08h.96v-2.02h-.48zM5.9 63.12c3.12 0 5.22-2.1 5.22-5.24 0-3.12-2.1-5.24-5.22-5.24-3.12 0-5.22 2.12-5.22 5.24 0 3.14 2.1 5.24 5.22 5.24zm0-1.84c-1.82 0-3-1.42-3-3.4s1.18-3.4 3-3.4 3.02 1.42 3.02 3.4-1.2 3.4-3.02 3.4zm12.437-8.64c-1.6 0-2.66.74-3.34 1.64l-.26-1.52h-1.88V67h2.16v-5.44c.64.92 1.74 1.56 3.32 1.56 2.8 0 4.84-2.08 4.84-5.24 0-3.28-2.04-5.24-4.84-5.24zm-.36 8.66c-1.8 0-2.98-1.42-2.98-3.46 0-1.98 1.18-3.36 2.98-3.36s3 1.38 3 3.4c0 2-1.2 3.42-3 3.42zm12.41-8.66c-1.6 0-2.66.74-3.34 1.64l-.26-1.52h-1.88V67h2.16v-5.44c.64.92 1.74 1.56 3.32 1.56 2.8 0 4.84-2.08 4.84-5.24 0-3.28-2.04-5.24-4.84-5.24zm-.36 8.66c-1.8 0-2.98-1.42-2.98-3.46 0-1.98 1.18-3.36 2.98-3.36s3 1.38 3 3.4c0 2-1.2 3.42-3 3.42zm11.771 1.82c3.12 0 5.22-2.1 5.22-5.24 0-3.12-2.1-5.24-5.22-5.24-3.12 0-5.22 2.12-5.22 5.24 0 3.14 2.1 5.24 5.22 5.24zm0-1.84c-1.82 0-3-1.42-3-3.4s1.18-3.4 3-3.4 3.02 1.42 3.02 3.4-1.2 3.4-3.02 3.4zm12.137-8.52c-1.68 0-2.5.68-3.02 1.54l-.24-1.54h-1.92V63h2.16v-5.14c0-1.58.62-3.08 2.54-3.08h.96v-2.02h-.48zm2.924 7.46c0 1.86.84 2.78 2.8 2.78h2v-1.9h-1.52c-.82 0-1.1-.3-1.1-1.1v-5.34h2.5v-1.9h-2.5V49.9h-2.18v2.86h-1.78v1.9h1.78v5.56zm13.194-2.34c0 2.12-1 3.36-2.64 3.36-1.58 0-2.38-1.02-2.38-3.02v-5.46h-2.16v5.7c0 3.5 1.86 4.66 4.04 4.66 1.58 0 2.52-.64 3.16-1.42l.24 1.3h1.9V52.76h-2.16v5.12zm9.688-5.24c-1.66 0-2.64.66-3.28 1.46l-.24-1.34h-1.88V63h2.16v-5.16c0-2.08 1.02-3.34 2.74-3.34 1.62 0 2.44 1.04 2.44 2.98V63h2.18v-5.7c0-3.42-1.86-4.66-4.12-4.66zm7.185-1.32c.74 0 1.32-.54 1.32-1.3s-.58-1.3-1.32-1.3c-.74 0-1.32.54-1.32 1.3s.58 1.3 1.32 1.3zM85.826 63h2.16V52.76h-2.16V63zm5.017-2.78c0 1.86.84 2.78 2.8 2.78h2v-1.9h-1.52c-.82 0-1.1-.3-1.1-1.1v-5.34h2.5v-1.9h-2.5V49.9h-2.18v2.86h-1.78v1.9h1.78v5.56zm9.134 2.84l-.4 1c-.32.84-.52 1.04-1.36 1.04h-1.52V67h2.32c1.5 0 1.94-.74 2.58-2.4l4.64-11.84h-2.3l-2.78 7.78-2.86-7.78h-2.3l3.98 10.3z" fill="#000"/></svg>