<svg width="164" height="24" viewBox="0 0 164 24" fill="none" xmlns="http://www.w3.org/2000/svg"><path d="M7.344 23.82c-2.76 0-4.59-.472-5.954-1.069l-.806-4.776h.589l.589 1.132c1.395 2.702 3.1 3.896 5.83 3.896 3.132 0 4.9-1.571 4.9-4.148 0-2.294-1.303-3.456-5.024-4.776-4.218-1.477-6.326-3.11-6.326-6.787 0-3.739 3.318-6.41 7.442-6.41 2.574 0 4.062.346 5.489.943l.775 4.965h-.62l-.558-1.163C12.398 2.925 10.786 1.7 8.336 1.7 5.762 1.7 4.243 3.27 4.243 5.5c0 2.326 1.24 3.362 4.775 4.588 4.652 1.57 6.605 3.362 6.605 7.007.031 3.99-3.783 6.724-8.28 6.724zM26.818 21.872c-1.303 1.13-2.636 1.885-4.31 1.885-2.481 0-3.784-1.131-3.784-3.833V9.492H16.43v-.597l2.45-.943 2.418-4.901h.992v5.027h4.156v1.414H22.29V19.86c0 1.54.745 2.293 1.954 2.293.837 0 1.395-.22 2.17-.785l.404.503zM35.531 23.883c-4.496 0-7.814-2.891-7.814-8.264 0-4.556 3.225-8.044 7.845-8.044 4.466 0 7.815 2.89 7.815 8.264-.031 4.556-3.287 8.044-7.846 8.044zm-.434-15.49c-2.201 0-3.442 1.696-3.442 6.315 0 5.059 1.613 8.358 4.28 8.358 2.232 0 3.442-1.697 3.442-6.316 0-5.059-1.582-8.358-4.28-8.358zM62.448 23.537c-.714 0-2.543-.031-3.938-.031-1.365 0-3.194.031-3.97.031v-.503l.528-.094c1.395-.251 1.643-.691 1.643-3.55v-6.16c0-2.387-1.023-3.55-2.853-3.55-1.271 0-2.326.503-3.256 1.194v8.515c0 2.891.217 3.3 1.644 3.551l.527.094v.503c-.776 0-2.574-.031-3.97-.031-1.395 0-3.224.031-3.969.031v-.503l.62-.094c1.303-.189 1.551-.691 1.551-3.833V12.32c0-1.697-.28-2.168-1.427-2.702l-.775-.377v-.346L50.2 7.7l.434.283v2.2c1.706-1.478 3.287-2.452 5.303-2.452 2.884 0 4.403 1.571 4.403 4.87v6.599c0 3.205.248 3.582 1.582 3.833l.558.095-.031.408zM66.944 14.268v.22c.093 4.462 2.48 7.227 5.706 7.227 1.767 0 3.008-.66 4.31-1.98l.434.314c-1.674 2.357-3.845 3.834-6.636 3.834-4.093 0-7.163-2.828-7.163-7.698 0-5.248 3.907-8.578 7.66-8.578 4.155 0 6.17 2.356 6.264 6.692l-10.575-.031zm6.791-.88c-.093-3.3-1.271-4.964-3.132-4.964-2.108 0-3.442 1.822-3.659 4.964h6.791zM100.187 23.537c-.559 0-3.35-.063-4.435-.063-1.147 0-4.62.063-5.21.063v-.44l.993-.157c.961-.157 1.364-.409 1.364-1.006 0-.502-.31-1.13-.992-2.199l-3.473-5.373-3.473 4.839c-.806 1.131-1.179 1.98-1.179 2.608 0 .628.373 1.005 1.334 1.162l1.023.157v.44c-.558 0-3.039-.063-4.155-.063s-2.884.063-3.473.063v-.47l.527-.095c1.395-.252 2.698-1.446 3.752-2.797l5.024-6.66-4.93-7.416c-1.148-1.728-1.954-2.514-3.195-2.734l-.651-.125v-.44c.558 0 3.349.063 4.434.063 1.148 0 4.559-.063 5.148-.063v.44l-.992.157c-.838.125-1.303.408-1.303 1.005 0 .503.31 1.131.992 2.2l2.977 4.65 2.915-4.148c.776-1.13 1.179-1.98 1.179-2.576 0-.597-.403-1.006-1.334-1.163l-1.023-.157V2.8c.558 0 3.039.063 4.155.063 1.117 0 2.884-.063 3.473-.063v.44l-.527.094c-1.395.252-2.667 1.32-3.752 2.797l-4.496 5.97 5.457 8.106c1.148 1.729 1.954 2.514 3.194 2.734l.652.126v.471zM102.667 6.224c-.248 0-.465-.031-.651-.126a1.621 1.621 0 01-.527-.377 1.422 1.422 0 01-.341-.534 1.66 1.66 0 01-.124-.66c0-.251.031-.47.124-.66.093-.22.217-.376.341-.534.124-.157.341-.282.527-.345a1.6 1.6 0 01.651-.126c.248 0 .465.032.652.126.217.094.372.22.527.345.155.158.279.346.341.535.093.22.124.44.124.66 0 .25-.031.47-.124.66a2.24 2.24 0 01-.341.533 2.037 2.037 0 01-.527.377 2.014 2.014 0 01-.652.126zm0-.251c.217 0 .403-.032.558-.126.187-.063.342-.188.466-.314s.217-.283.31-.471c.062-.189.093-.378.093-.566 0-.22-.031-.409-.093-.566a1.244 1.244 0 00-.31-.47 1.726 1.726 0 00-.466-.315c-.186-.063-.372-.126-.558-.126-.217 0-.403.032-.558.126a1.225 1.225 0 00-.465.314 1.763 1.763 0 00-.31.471 1.801 1.801 0 00-.093.566c0 .22.031.408.093.566.062.188.186.345.31.47.124.127.279.252.465.315.186.094.372.126.558.126zm-.713-.44V3.522h.868c.217 0 .403.063.528.157a.574.574 0 01.186.44.574.574 0 01-.186.44c-.125.125-.28.157-.497.157l.093-.032c.093 0 .155.032.217.063a.54.54 0 01.187.189l.341.597h-.466l-.341-.66c-.031-.063-.062-.094-.093-.094-.031-.032-.093-.032-.155-.032h-.217v.786h-.465zm.403-1.131h.403c.124 0 .217-.032.248-.063.062-.032.093-.126.093-.22s-.031-.189-.093-.22a.578.578 0 00-.248-.063h-.403v.566zM132.638 12.754c0-6.937-3.991-11.13-10.057-11.13-6.097 0-10.12 4.224-10.12 11.13 0 6.843 4.023 11.129 10.088 11.129 6.066 0 10.089-4.255 10.089-11.13zm-18.511 0c0-6.104 3.237-9.773 8.422-9.773 5.155 0 8.423 3.669 8.423 9.773 0 6.134-3.268 9.772-8.423 9.772-5.122 0-8.422-3.668-8.422-9.772zM136.415 23.544c.126 0 .251-.124.251-.247l-.031-6.567v-3.452c1.069-2.898 2.703-4.686 5.123-4.686 2.451 0 4.086 1.449 4.086 5.271v2.867l-.063 6.567c0 .123.126.247.251.247h1.1c.126 0 .252-.124.252-.247l-.032-6.567v-3.02c0-4.348-2.011-6.413-5.28-6.413-2.797 0-4.588 1.85-5.5 3.638l.063-3.022c0-.123-.126-.246-.251-.246h-1.069c-.126 0-.251.123-.251.247l.062 8.662-.062 6.72c0 .124.125.248.251.248h1.1zM162.264 17.933c-.126 0-.283.092-.283.246-.535 2.806-2.2 4.501-5.123 4.501-3.835 0-5.752-2.62-5.752-7.09l12.226-.031c.126 0 .252-.123.252-.247-.095-5.055-2.672-7.984-6.946-7.984-4.369 0-7.103 3.452-7.103 8.323s2.514 8.232 7.291 8.232c3.866 0 6.066-2.22 6.663-5.704 0-.123-.094-.246-.22-.246h-1.005zm-.346-3.607h-10.749c.377-3.546 2.263-5.796 5.469-5.796 3.426 0 5.248 2.59 5.28 5.796z" fill="#fff"/></svg>