<svg width="136" height="133" viewBox="0 0 136 133" fill="none" xmlns="http://www.w3.org/2000/svg"><path d="M1.927 89.03h.695V85.27h2.586l2.124 3.758h.785l-2.188-3.886c1.326-.207 2.162-1.172 2.162-2.497 0-1.596-1.12-2.626-2.831-2.626H1.927v9.01zm3.294-8.366c1.326 0 2.162.772 2.162 1.982 0 1.197-.849 1.982-2.175 1.982H2.622v-3.964h2.6zm6.723 8.442c1.43 0 2.523-.926 2.806-2.239h-.67c-.257 1.017-1.119 1.647-2.187 1.647-1.454 0-2.368-1.106-2.394-2.625v-.116h5.328c0-.09.013-.193.013-.27-.064-1.944-1.261-3.076-3.011-3.076-1.79 0-3.012 1.364-3.012 3.295 0 2.046 1.274 3.384 3.127 3.384zM9.552 85.22c.103-1.326 1.094-2.214 2.29-2.214 1.275 0 2.188.785 2.291 2.214H9.551zm12.326 3.204c-.386 0-.579-.129-.579-.63v-3.038c0-1.493-.913-2.329-2.548-2.329-1.493 0-2.484.72-2.651 1.905h.656c.168-.798.863-1.326 1.97-1.326 1.222 0 1.917.644 1.917 1.725v.566h-2.214c-1.673 0-2.574.72-2.574 1.943 0 1.159.914 1.866 2.304 1.866 1.326 0 2.11-.605 2.51-1.415v.231c-.026.773.296 1.107 1.068 1.107h.386v-.605h-.245zm-1.235-2.033c0 1.248-.888 2.15-2.432 2.15-1.043 0-1.686-.529-1.686-1.34 0-.862.643-1.338 1.853-1.338h2.265v.528zm5.101 2.715c1.48 0 2.523-.85 2.78-2.175h-.695c-.218.966-1.004 1.583-2.085 1.583-1.428 0-2.42-1.12-2.42-2.74 0-1.623.979-2.768 2.42-2.768 1.094 0 1.867.618 2.098 1.596h.682c-.27-1.351-1.287-2.175-2.767-2.175-1.84 0-3.101 1.364-3.101 3.346 0 2.008 1.248 3.333 3.088 3.333zm4.545-1.596c0 1.043.425 1.52 1.532 1.52h.952v-.606h-.9c-.683 0-.928-.257-.928-.926v-4.389h1.764v-.605h-1.764v-1.827h-.656v1.827h-1.235v.605h1.235v4.401zm7.44 0c0 1.043.425 1.52 1.532 1.52h.952v-.606h-.9c-.683 0-.927-.257-.927-.926v-4.389h1.763v-.605h-1.763v-1.827h-.657v1.827h-1.235v.605h1.235v4.401zm6.165 1.596c1.84 0 3.14-1.364 3.14-3.346 0-1.969-1.3-3.333-3.14-3.333s-3.128 1.364-3.128 3.333c0 1.982 1.287 3.346 3.128 3.346zm0-.592c-1.455 0-2.459-1.132-2.459-2.754 0-1.609 1.004-2.754 2.459-2.754 1.454 0 2.458 1.145 2.458 2.754 0 1.622-1.004 2.754-2.458 2.754zm10.795.592c1.43 0 2.523-.926 2.806-2.239h-.67c-.256 1.017-1.119 1.647-2.187 1.647-1.454 0-2.368-1.106-2.394-2.625v-.116h5.328c0-.09.013-.193.013-.27-.064-1.944-1.261-3.076-3.011-3.076-1.79 0-3.012 1.364-3.012 3.295 0 2.046 1.274 3.384 3.127 3.384zm-2.393-3.886c.103-1.326 1.094-2.214 2.29-2.214 1.275 0 2.188.785 2.291 2.214h-4.581zm12.326 3.204c-.386 0-.579-.129-.579-.63v-3.038c0-1.493-.913-2.329-2.548-2.329-1.493 0-2.484.72-2.651 1.905h.656c.168-.798.863-1.326 1.97-1.326 1.222 0 1.917.644 1.917 1.725v.566h-2.214c-1.673 0-2.574.72-2.574 1.943 0 1.159.914 1.866 2.304 1.866 1.326 0 2.11-.605 2.51-1.415v.231c-.026.773.296 1.107 1.068 1.107h.386v-.605h-.245zm-1.235-2.033c0 1.248-.888 2.15-2.432 2.15-1.043 0-1.686-.529-1.686-1.34 0-.862.643-1.338 1.853-1.338h2.265v.528zm5.022-3.887c-1.21 0-1.725.58-1.995 1.3l-.103-1.3h-.566v6.525h.656v-3.307c0-1.326.347-2.587 1.879-2.587h.476v-.63h-.347zm4.331-.077c-1.197 0-1.969.618-2.342 1.467l-.103-1.39h-.566v6.525h.656v-3.217c0-1.7.862-2.78 2.252-2.78 1.262 0 2.02.824 2.02 2.368v3.63h.657v-3.656c0-2.059-1.094-2.947-2.574-2.947zm4.361-1.3a.453.453 0 00.464-.463.453.453 0 00-.463-.463.453.453 0 00-.464.463c0 .27.206.463.463.463zm-.334 7.902h.656v-6.525h-.656v6.525zm5.21-6.602c-1.196 0-1.968.618-2.341 1.467l-.103-1.39h-.567v6.525h.657v-3.217c0-1.7.862-2.78 2.252-2.78 1.261 0 2.02.824 2.02 2.368v3.63h.657v-3.656c0-2.059-1.094-2.947-2.574-2.947zm9.343 1.596c-.4-.965-1.275-1.596-2.484-1.596-1.79 0-3.076 1.351-3.076 3.333 0 2.06 1.287 3.346 3.076 3.346 1.222 0 2.085-.643 2.497-1.66v1.158c0 1.738-.824 2.484-2.394 2.484-1.223 0-2.072-.553-2.278-1.544h-.682c.206 1.39 1.325 2.136 2.908 2.136 2.11 0 3.102-1.004 3.102-3.05v-6.126h-.566l-.103 1.519zm-2.433 4.491c-1.454 0-2.458-1.132-2.458-2.754 0-1.621 1.004-2.754 2.458-2.754 1.455 0 2.458 1.133 2.458 2.767 0 1.609-1.003 2.741-2.458 2.741zm4.35-1.493c.051 1.352 1.145 2.085 2.78 2.085 1.402 0 2.535-.707 2.535-1.866 0-1.377-1.21-1.647-2.613-1.84-1.016-.142-1.917-.258-1.917-1.171 0-.747.733-1.236 1.84-1.236 1.043 0 1.789.502 1.905 1.352h.67c-.117-1.275-1.16-1.918-2.575-1.918-1.454-.013-2.497.733-2.497 1.853 0 1.313 1.21 1.557 2.549 1.738 1.094.154 1.981.296 1.981 1.26 0 .773-.81 1.262-1.879 1.262-1.248 0-2.059-.58-2.11-1.519h-.67zm10.371-5.894a.453.453 0 00.463-.463.453.453 0 00-.463-.463.454.454 0 00-.464.463c0 .27.206.463.464.463zm-.335 7.902h.656v-6.525h-.656v6.525zm5.211-6.602c-1.197 0-1.969.618-2.342 1.467l-.103-1.39h-.567v6.525h.657v-3.217c0-1.7.862-2.78 2.252-2.78 1.261 0 2.02.824 2.02 2.368v3.63h.657v-3.656c0-2.059-1.094-2.947-2.574-2.947zm10.159.077c-1.209 0-1.724.58-1.995 1.3l-.102-1.3h-.567v6.525h.657v-3.307c0-1.326.347-2.587 1.879-2.587h.476v-.63h-.348zm3.738 6.602c1.429 0 2.523-.926 2.806-2.239h-.669c-.258 1.017-1.12 1.647-2.188 1.647-1.455 0-2.368-1.106-2.394-2.625v-.116h5.328c0-.09.013-.193.013-.27-.065-1.944-1.261-3.076-3.012-3.076-1.789 0-3.011 1.364-3.011 3.295 0 2.046 1.274 3.384 3.127 3.384zm-2.394-3.886c.103-1.326 1.094-2.214 2.291-2.214 1.274 0 2.188.785 2.291 2.214h-4.582zm12.327 3.204c-.386 0-.579-.129-.579-.63v-3.038c0-1.493-.914-2.329-2.548-2.329-1.493 0-2.484.72-2.651 1.905h.656c.167-.798.862-1.326 1.969-1.326 1.223 0 1.918.644 1.918 1.725v.566h-2.214c-1.673 0-2.574.72-2.574 1.943 0 1.159.914 1.866 2.304 1.866 1.325 0 2.11-.605 2.509-1.415v.231c-.025.773.296 1.107 1.068 1.107h.387v-.605h-.245zm-1.235-2.033c0 1.248-.888 2.15-2.433 2.15-1.042 0-1.686-.529-1.686-1.34 0-.862.644-1.338 1.853-1.338h2.266v.528zm2.357 2.638h.657V80.02h-.657v9.01zM2.261 102.51c0 1.043.425 1.519 1.532 1.519h.952v-.605h-.9c-.683 0-.927-.257-.927-.926v-4.389H4.68v-.605H2.918v-1.827H2.26v1.827H1.026v.605H2.26v4.401zm3.817-6.383a.453.453 0 00.464-.463.453.453 0 00-.464-.463.453.453 0 00-.463.463c0 .27.206.463.463.463zm-.334 7.902H6.4v-6.525h-.656v6.525zm9.483-6.602c-1.197 0-1.969.67-2.342 1.634-.309-1.08-1.12-1.634-2.15-1.634-1.119 0-1.788.656-2.123 1.467l-.103-1.39h-.566v6.525H8.6v-3.32c0-1.596.772-2.677 2.02-2.677 1.133 0 1.84.798 1.84 2.304v3.693h.657v-3.552c.038-1.493.81-2.445 2.033-2.445 1.133 0 1.815.76 1.815 2.239v3.758h.669v-3.784c0-1.969-1.042-2.818-2.407-2.818zm6.646 6.679c1.429 0 2.523-.926 2.806-2.239h-.67c-.257 1.017-1.119 1.647-2.187 1.647-1.454 0-2.368-1.106-2.394-2.625v-.116h5.328c0-.09.013-.193.013-.27-.064-1.944-1.261-3.076-3.011-3.076-1.79 0-3.012 1.364-3.012 3.295 0 2.046 1.274 3.384 3.127 3.384zm-2.393-3.886c.102-1.326 1.093-2.214 2.29-2.214 1.274 0 2.188.785 2.291 2.214H19.48zm11.638 3.809h.708l1.93-5.482 1.84 5.482h.709l2.316-6.525h-.67l-2.007 5.74-1.866-5.74h-.605l-1.969 5.74-1.905-5.74h-.695l2.214 6.525zm8.756-7.902a.453.453 0 00.463-.463.453.453 0 00-.463-.463.453.453 0 00-.463.463c0 .27.206.463.463.463zm-.335 7.902h.657v-6.525h-.657v6.525zm2.689-1.519c0 1.043.424 1.519 1.531 1.519h.953v-.605h-.901c-.682 0-.927-.257-.927-.926v-4.389h1.763v-.605h-1.763v-1.827h-.656v1.827h-1.236v.605h1.236v4.401zm6.494-5.083c-1.223 0-1.982.682-2.355 1.621V95.02h-.657v9.009h.657v-3.217c0-1.7.862-2.78 2.252-2.78 1.248 0 2.02.824 2.02 2.368v3.629h.657v-3.655c0-2.059-1.094-2.947-2.574-2.947zm10.545 6.679c1.634 0 2.741-.991 2.973-2.29h-1.39c-.193.733-.81 1.158-1.66 1.158-1.094 0-1.802-.734-1.84-1.853v-.091h4.967c.026-.18.039-.36.039-.527-.039-1.93-1.313-3.14-3.218-3.14-1.943 0-3.243 1.35-3.243 3.384 0 2.021 1.3 3.359 3.372 3.359zm-1.866-4.092c.103-.94.862-1.532 1.75-1.532.965 0 1.647.554 1.763 1.532h-3.513zm5.095 4.015h1.531l1.737-2.394 1.725 2.394h1.622l-2.484-3.372 2.342-3.217h-1.531l-1.61 2.226-1.57-2.226h-1.62l2.329 3.217-2.471 3.372zm7.857-1.789c0 1.197.54 1.789 1.801 1.789h1.287v-1.223h-.978c-.527 0-.707-.193-.707-.707v-3.437h1.608V97.44h-1.609V95.6h-1.402v1.84h-1.146v1.222h1.146v3.578zm6.962 1.866c1.634 0 2.74-.991 2.973-2.29h-1.39c-.193.733-.811 1.158-1.66 1.158-1.094 0-1.802-.734-1.84-1.853v-.091h4.967c.026-.18.038-.36.038-.527-.038-1.93-1.312-3.14-3.217-3.14-1.943 0-3.243 1.35-3.243 3.384 0 2.021 1.3 3.359 3.372 3.359zm-1.866-4.092c.103-.94.862-1.532 1.75-1.532.965 0 1.647.554 1.763 1.532h-3.513zm9.553-2.651c-1.068 0-1.699.424-2.11.94l-.155-.863h-1.21v6.589h1.39v-3.32c0-1.339.656-2.15 1.763-2.15 1.043 0 1.57.67 1.57 1.918v3.552h1.403v-3.668c0-2.2-1.197-2.998-2.651-2.998zm8.871.99c-.425-.579-1.132-.99-2.136-.99-1.79 0-3.115 1.338-3.115 3.371 0 2.111 1.326 3.372 3.115 3.372 1.042 0 1.724-.489 2.149-1.068l.167.991h1.21V95.02h-1.39v3.334zm-1.905 4.582c-1.158 0-1.917-.901-1.917-2.201 0-1.286.76-2.187 1.917-2.187 1.159 0 1.918.9 1.918 2.213 0 1.274-.76 2.175-1.918 2.175zm7.78 1.171c1.635 0 2.742-.991 2.974-2.29h-1.39c-.193.733-.811 1.158-1.66 1.158-1.094 0-1.802-.734-1.84-1.853v-.091h4.967c.026-.18.038-.36.038-.527-.038-1.93-1.312-3.14-3.217-3.14-1.943 0-3.243 1.35-3.243 3.384 0 2.021 1.3 3.359 3.372 3.359zm-1.865-4.092c.103-.94.862-1.532 1.75-1.532.965 0 1.647.554 1.763 1.532h-3.513zm11.084-1.66c-.424-.58-1.132-.991-2.136-.991-1.789 0-3.114 1.338-3.114 3.371 0 2.111 1.325 3.372 3.114 3.372 1.042 0 1.725-.489 2.149-1.068l.168.991h1.209V95.02h-1.39v3.334zm-1.904 4.581c-1.159 0-1.918-.901-1.918-2.201 0-1.286.759-2.187 1.918-2.187 1.158 0 1.917.9 1.917 2.213 0 1.274-.759 2.175-1.917 2.175zM2.158 117.24c0 1.197.54 1.789 1.802 1.789h1.287v-1.223H4.27c-.528 0-.708-.193-.708-.707v-3.437H5.17v-1.222H3.56v-1.841H2.158v1.841H1.013v1.222h1.145v3.578zm7.306-4.8c-1.08 0-1.608.437-1.943.991l-.154-.991H6.13v6.589h1.39v-3.307c0-1.017.4-1.982 1.635-1.982h.617v-1.3h-.309zm6.989 5.379c-.284 0-.425-.09-.425-.424v-2.639c0-1.557-1.004-2.393-2.754-2.393-1.66 0-2.767.798-2.909 2.085h1.364c.103-.58.657-.966 1.48-.966.914 0 1.442.451 1.442 1.184v.399h-1.66c-1.84 0-2.819.76-2.819 2.111 0 1.222 1.004 1.93 2.445 1.93 1.069 0 1.738-.463 2.175-1.132 0 .656.31 1.055 1.21 1.055h.734v-1.21h-.284zm-1.802-1.493c-.013 1.017-.682 1.699-1.84 1.699-.76 0-1.223-.386-1.223-.939 0-.669.476-.991 1.338-.991h1.725v.231zm7.798-2.972c-.425-.58-1.133-.991-2.137-.991-1.788 0-3.114 1.338-3.114 3.371 0 2.111 1.326 3.372 3.114 3.372 1.043 0 1.725-.489 2.15-1.068l.167.991h1.21v-9.009h-1.39v3.334zm-1.905 4.581c-1.158 0-1.918-.901-1.918-2.201 0-1.286.76-2.187 1.918-2.187s1.918.901 1.918 2.213c0 1.274-.76 2.175-1.918 2.175zm5.36-6.422c.477 0 .85-.347.85-.836s-.373-.837-.85-.837c-.475 0-.849.348-.849.837s.374.836.85.836zm-.707 7.516h1.39v-6.589h-1.39v6.589zm6.227-6.666c-1.068 0-1.699.424-2.11.939l-.155-.862h-1.21v6.589h1.39v-3.32c0-1.339.657-2.15 1.764-2.15 1.042 0 1.57.67 1.57 1.918v3.552h1.402v-3.668c0-2.2-1.197-2.998-2.65-2.998zm8.947 1.106c-.424-.656-1.132-1.106-2.162-1.106-1.789 0-3.114 1.325-3.114 3.346 0 2.097 1.325 3.346 3.114 3.346 1.03 0 1.712-.425 2.15-1.081v.733c0 1.262-.683 1.841-1.892 1.841-.978 0-1.622-.425-1.79-1.159h-1.415c.129 1.48 1.352 2.291 3.102 2.291 2.368 0 3.372-1.132 3.372-2.921v-6.319h-1.21l-.155 1.029zm-1.93 4.415c-1.158 0-1.918-.888-1.918-2.175 0-1.274.76-2.175 1.918-2.175s1.918.901 1.918 2.2c0 1.262-.76 2.15-1.918 2.15zm11.408-5.521c-1.03 0-1.66.463-2.072 1.029v-3.372h-1.39v9.009h1.39v-3.333c0-1.326.669-2.137 1.763-2.137 1.03 0 1.583.67 1.583 1.918v3.552h1.39v-3.668c0-2.2-1.197-2.998-2.664-2.998zm6.992 6.743c2.008 0 3.359-1.351 3.359-3.372 0-2.007-1.351-3.371-3.359-3.371s-3.359 1.364-3.359 3.371c0 2.021 1.351 3.372 3.359 3.372zm0-1.184c-1.171 0-1.93-.913-1.93-2.188 0-1.274.759-2.187 1.93-2.187 1.171 0 1.943.913 1.943 2.187 0 1.275-.772 2.188-1.943 2.188zm8.994-2.188c0 1.365-.644 2.163-1.699 2.163-1.017 0-1.531-.657-1.531-1.944v-3.513h-1.39v3.668c0 2.252 1.197 2.998 2.6 2.998 1.016 0 1.62-.411 2.033-.913l.154.836h1.223v-6.589h-1.39v3.294zm6.093-3.294c-1.081 0-1.609.437-1.944.991l-.154-.991h-1.236v6.589h1.39v-3.307c0-1.017.4-1.982 1.635-1.982h.618v-1.3h-.31zm.77 4.414c.038 1.429 1.248 2.252 3.011 2.252 1.596 0 2.793-.798 2.793-2.059 0-1.467-1.223-1.776-2.728-1.956-.953-.103-1.583-.18-1.583-.798 0-.528.54-.862 1.364-.862.823 0 1.39.424 1.467 1.029h1.364c-.09-1.351-1.235-2.097-2.857-2.097-1.583-.013-2.703.798-2.703 2.046 0 1.364 1.184 1.686 2.69 1.866 1.017.129 1.622.18 1.622.888 0 .528-.567.862-1.429.862-1.004 0-1.596-.489-1.647-1.171h-1.364zm6.664 1.377c0 .515.374.875.888.875.515 0 .901-.36.901-.875s-.386-.875-.9-.875c-.515 0-.889.36-.889.875zM6.979 15.144c1.748 0 2.882-.787 3.417-1.574l.158 1.48h1.401V9.019H7.168v1.527h3.055v.268c-.095 1.78-1.465 2.74-3.165 2.74-2.11 0-3.433-1.654-3.433-4.016s1.354-4.015 3.448-4.015c1.528 0 2.583.85 2.914 2.251h1.874c-.331-2.33-2.19-3.842-4.74-3.842-3.276 0-5.355 2.252-5.355 5.606s2.126 5.606 5.213 5.606zm10.646 0c2 0 3.354-1.212 3.638-2.803h-1.7c-.237.898-.993 1.418-2.032 1.418-1.339 0-2.205-.898-2.252-2.268v-.11h6.078c.032-.22.047-.441.047-.646-.047-2.362-1.606-3.842-3.936-3.842-2.378 0-3.969 1.653-3.969 4.141 0 2.473 1.59 4.11 4.126 4.11zm-2.283-5.007c.126-1.15 1.055-1.874 2.141-1.874 1.181 0 2.016.677 2.158 1.874h-4.3zM23.3 12.86c0 1.464.661 2.189 2.204 2.189h1.575v-1.496h-1.197c-.645 0-.866-.236-.866-.866V8.483h1.969V6.987h-1.969V4.735h-1.716v2.252h-1.402v1.496h1.402v4.378zm12.59 2.283c2.064 0 3.434-1.15 3.749-2.976h-1.795c-.205.93-.898 1.528-1.937 1.528-1.37 0-2.268-1.087-2.268-2.662 0-1.59.898-2.693 2.268-2.693 1.055 0 1.732.583 1.952 1.528h1.78c-.33-1.827-1.622-2.976-3.7-2.976-2.442 0-4.048 1.653-4.048 4.141 0 2.52 1.559 4.11 4 4.11zm5.05-.094h1.701V4.027h-1.7V15.05zm10.738-1.48c-.346 0-.52-.11-.52-.52V9.822c0-1.906-1.227-2.93-3.37-2.93-2.03 0-3.385.977-3.558 2.552h1.67c.125-.709.802-1.181 1.81-1.181 1.118 0 1.764.55 1.764 1.448v.489h-2.032c-2.252 0-3.448.929-3.448 2.582 0 1.496 1.228 2.362 2.992 2.362 1.307 0 2.126-.566 2.661-1.385 0 .803.378 1.29 1.48 1.29h.898v-1.48h-.347zm-2.204-1.827c-.016 1.244-.835 2.079-2.252 2.079-.93 0-1.496-.473-1.496-1.15 0-.819.583-1.213 1.638-1.213h2.11v.284zm7.556-4.756c-1.323 0-1.968.536-2.378 1.213l-.189-1.213h-1.512v8.063h1.701v-4.047c0-1.244.488-2.425 2-2.425h.756v-1.59h-.378zm2.293-1.134c.583 0 1.04-.425 1.04-1.023 0-.599-.457-1.024-1.04-1.024s-1.04.425-1.04 1.024c0 .598.457 1.023 1.04 1.023zm-.866 9.197h1.7V6.987h-1.7v8.063zm3.95-2.189c0 1.464.662 2.189 2.205 2.189h1.575v-1.496H64.99c-.645 0-.866-.236-.866-.866V8.483h1.968V6.987h-1.968V4.735h-1.717v2.252h-1.401v1.496h1.401v4.378zm7.192 2.236l-.314.788c-.252.661-.41.818-1.071.818h-1.197V18.2h1.827c1.18 0 1.527-.583 2.031-1.89l3.653-9.323h-1.81l-2.19 6.126-2.251-6.126h-1.811l3.133 8.11zm11.677-.047h1.843l1.763-5.48 1.701 5.48h1.827l2.677-8.063h-1.732L87.45 13.16l-1.764-6.173h-1.559l-1.842 6.173-1.842-6.173h-1.796l2.63 8.063zM96.22 6.893c-1.26 0-2.031.567-2.535 1.26V4.026h-1.7V15.05h1.7V10.97c0-1.622.819-2.614 2.157-2.614 1.26 0 1.937.819 1.937 2.347v4.346h1.701v-4.488c0-2.693-1.464-3.67-3.26-3.67zm8.572 8.251c2 0 3.354-1.212 3.638-2.803h-1.701c-.236.898-.992 1.418-2.031 1.418-1.339 0-2.205-.898-2.252-2.268v-.11h6.078c.032-.22.048-.441.048-.646-.048-2.362-1.607-3.842-3.937-3.842-2.378 0-3.969 1.653-3.969 4.141 0 2.473 1.591 4.11 4.126 4.11zm-2.283-5.007c.126-1.15 1.055-1.874 2.141-1.874 1.181 0 2.016.677 2.158 1.874h-4.299zm11.689-3.244c-1.307 0-2.078.52-2.582 1.15l-.189-1.056h-1.48v8.063h1.7v-4.063c0-1.638.803-2.63 2.158-2.63 1.275 0 1.921.819 1.921 2.347v4.346h1.716v-4.488c0-2.693-1.464-3.67-3.244-3.67z" fill="#000"/><path d="M1.99 42.43c0 2.046.923 3.058 3.08 3.058h2.2v-2.09H5.596c-.902 0-1.21-.33-1.21-1.21v-5.874h2.75v-2.09h-2.75v-3.146H1.99v3.146H.031v2.09H1.99v6.116zm12.489-8.206c-1.848 0-2.75.748-3.322 1.694l-.264-1.694H8.78v11.264h2.376v-5.654c0-1.738.682-3.388 2.794-3.388h1.056v-2.222h-.528zm11.945 9.196c-.484 0-.726-.154-.726-.726v-4.51c0-2.662-1.716-4.092-4.708-4.092-2.838 0-4.73 1.364-4.972 3.564h2.332c.176-.99 1.122-1.65 2.53-1.65 1.562 0 2.464.77 2.464 2.024v.682h-2.838c-3.146 0-4.818 1.298-4.818 3.608 0 2.09 1.716 3.3 4.18 3.3 1.826 0 2.97-.792 3.718-1.936 0 1.122.528 1.804 2.068 1.804h1.254V43.42h-.484zm-3.08-2.552c-.022 1.738-1.166 2.904-3.146 2.904-1.298 0-2.09-.66-2.09-1.606 0-1.144.814-1.694 2.288-1.694h2.948v.396zm13.33-5.082c-.725-.99-1.935-1.694-3.651-1.694-3.058 0-5.324 2.288-5.324 5.764 0 3.608 2.266 5.764 5.324 5.764 1.782 0 2.948-.836 3.674-1.826l.286 1.694h2.068v-15.4h-2.376v5.698zm-3.255 7.832c-1.98 0-3.278-1.54-3.278-3.762 0-2.2 1.298-3.74 3.278-3.74s3.278 1.54 3.278 3.784c0 2.178-1.298 3.718-3.278 3.718zm9.163-10.978c.814 0 1.452-.594 1.452-1.43s-.638-1.43-1.452-1.43-1.452.594-1.452 1.43.638 1.43 1.452 1.43zm-1.21 12.848h2.376V34.224h-2.376v11.264zm10.645-11.396c-1.826 0-2.904.726-3.608 1.606l-.264-1.474h-2.068v11.264h2.377v-5.676c0-2.288 1.121-3.674 3.014-3.674 1.781 0 2.683 1.144 2.683 3.278v6.072h2.398v-6.27c0-3.762-2.045-5.126-4.532-5.126zm15.295 1.892c-.726-1.122-1.936-1.892-3.696-1.892-3.058 0-5.324 2.266-5.324 5.72 0 3.586 2.266 5.72 5.324 5.72 1.76 0 2.926-.726 3.674-1.848v1.254c0 2.156-1.166 3.146-3.234 3.146-1.672 0-2.772-.726-3.058-1.98h-2.42c.22 2.53 2.31 3.916 5.302 3.916 4.048 0 5.764-1.936 5.764-4.994V34.224h-2.068l-.264 1.76zm-3.3 7.546c-1.98 0-3.278-1.518-3.278-3.718 0-2.178 1.298-3.718 3.278-3.718s3.278 1.54 3.278 3.762c0 2.156-1.298 3.674-3.278 3.674zM76.87 32.332h4.752v13.156h2.53V32.332h4.752v-2.244H76.87v2.244zM93.877 45.62c2.794 0 4.686-1.694 5.082-3.916h-2.376c-.33 1.254-1.386 1.98-2.838 1.98-1.87 0-3.08-1.254-3.146-3.168v-.154h8.492c.044-.308.066-.616.066-.902-.066-3.3-2.244-5.368-5.5-5.368-3.322 0-5.544 2.31-5.544 5.786 0 3.454 2.222 5.742 5.764 5.742zm-3.19-6.996c.176-1.606 1.474-2.618 2.992-2.618 1.65 0 2.816.946 3.014 2.618h-6.006zm9.842 3.146c.066 2.442 2.134 3.85 5.148 3.85 2.728 0 4.774-1.364 4.774-3.52 0-2.508-2.09-3.036-4.664-3.344-1.628-.176-2.706-.308-2.706-1.364 0-.902.924-1.474 2.332-1.474s2.376.726 2.508 1.76h2.332c-.154-2.31-2.112-3.586-4.884-3.586-2.706-.022-4.62 1.364-4.62 3.498 0 2.332 2.024 2.882 4.598 3.19 1.738.22 2.772.308 2.772 1.518 0 .902-.968 1.474-2.442 1.474-1.716 0-2.728-.836-2.816-2.002h-2.332zm11.763 3.718h2.376v-15.4h-2.376v15.4zm15.001-2.068c-.484 0-.726-.154-.726-.726v-4.51c0-2.662-1.716-4.092-4.708-4.092-2.838 0-4.73 1.364-4.972 3.564h2.332c.176-.99 1.122-1.65 2.53-1.65 1.562 0 2.464.77 2.464 2.024v.682h-2.838c-3.146 0-4.818 1.298-4.818 3.608 0 2.09 1.716 3.3 4.18 3.3 1.826 0 2.97-.792 3.718-1.936 0 1.122.528 1.804 2.068 1.804h1.254V43.42h-.484zm-3.08-2.552c-.022 1.738-1.166 2.904-3.146 2.904-1.298 0-2.09-.66-2.09-1.606 0-1.144.814-1.694 2.288-1.694h2.948v.396zM.691 63.77c.066 2.442 2.134 3.85 5.148 3.85 2.728 0 4.774-1.364 4.774-3.52 0-2.508-2.09-3.036-4.664-3.344-1.628-.176-2.706-.308-2.706-1.364 0-.902.924-1.474 2.332-1.474s2.376.726 2.508 1.76h2.332c-.154-2.31-2.112-3.586-4.884-3.586-2.706-.022-4.62 1.364-4.62 3.498 0 2.332 2.024 2.882 4.598 3.19 1.738.22 2.772.308 2.772 1.518 0 .902-.968 1.474-2.442 1.474-1.716 0-2.728-.836-2.816-2.002H.691zm17.681-7.678c-1.76 0-2.838.792-3.541 1.76v-5.764h-2.377v15.4h2.377V61.79c0-2.266 1.144-3.652 3.014-3.652 1.76 0 2.706 1.144 2.706 3.278v6.072h2.376v-6.27c0-3.762-2.046-5.126-4.555-5.126zm17.011 9.328c-.484 0-.726-.154-.726-.726v-4.51c0-2.662-1.716-4.092-4.708-4.092-2.838 0-4.73 1.364-4.972 3.564h2.332c.176-.99 1.122-1.65 2.53-1.65 1.562 0 2.464.77 2.464 2.024v.682h-2.838c-3.146 0-4.818 1.298-4.818 3.608 0 2.09 1.716 3.3 4.18 3.3 1.826 0 2.97-.792 3.718-1.936 0 1.122.528 1.804 2.068 1.804h1.254V65.42h-.484zm-3.08-2.552c-.022 1.738-1.166 2.904-3.146 2.904-1.298 0-2.09-.66-2.09-1.606 0-1.144.814-1.694 2.288-1.694h2.948v.396zm10.556-6.644c-1.848 0-2.75.748-3.322 1.694l-.264-1.694h-2.112v11.264h2.377v-5.654c0-1.738.681-3.388 2.794-3.388h1.056v-2.222h-.529zm6.803 11.396c2.794 0 4.686-1.694 5.082-3.916h-2.376c-.33 1.254-1.386 1.98-2.838 1.98-1.87 0-3.08-1.254-3.146-3.168v-.154h8.492c.044-.308.066-.616.066-.902-.066-3.3-2.244-5.368-5.5-5.368-3.322 0-5.544 2.31-5.544 5.786 0 3.454 2.222 5.742 5.764 5.742zm-3.19-6.996c.176-1.606 1.474-2.618 2.992-2.618 1.65 0 2.816.946 3.014 2.618h-6.006zm22.95 6.996c3.586 0 6.204-2.112 6.688-5.368h-2.618c-.484 1.958-1.958 3.146-4.092 3.146-2.904 0-4.664-2.332-4.664-5.61 0-3.3 1.804-5.61 4.73-5.61 2.09 0 3.542 1.21 4.048 3.146h2.618c-.506-3.256-3.036-5.368-6.556-5.368-4.554 0-7.436 3.146-7.436 7.832 0 4.73 2.794 7.832 7.282 7.832zm8.78-.132h2.53v-6.512h6.028v-2.178h-6.028v-4.466h7.304v-2.244h-9.834v15.4zm17.01 0c4.818 0 7.854-3.146 7.854-7.722 0-4.576-3.036-7.678-7.854-7.678h-5.236v15.4h5.236zm-2.706-13.2h2.706c3.388 0 5.258 2.178 5.258 5.478s-1.87 5.522-5.258 5.522h-2.706v-11zm12.062 9.482c.066 2.442 2.134 3.85 5.148 3.85 2.728 0 4.774-1.364 4.774-3.52 0-2.508-2.09-3.036-4.664-3.344-1.628-.176-2.706-.308-2.706-1.364 0-.902.924-1.474 2.332-1.474s2.376.726 2.508 1.76h2.332c-.154-2.31-2.112-3.586-4.884-3.586-2.706-.022-4.62 1.364-4.62 3.498 0 2.332 2.024 2.882 4.598 3.19 1.738.22 2.772.308 2.772 1.518 0 .902-.968 1.474-2.442 1.474-1.716 0-2.728-.836-2.816-2.002h-2.332zm11.393 2.354c0 .88.638 1.496 1.518 1.496s1.54-.616 1.54-1.496-.66-1.496-1.54-1.496-1.518.616-1.518 1.496z" fill="url(#paint0_linear_76_21258)"/><defs><linearGradient id="paint0_linear_76_21258" x1="133.018" y1="48.497" x2=".009" y2="48.497" gradientUnits="userSpaceOnUse"><stop stop-color="#FF4343"/><stop offset=".5" stop-color="#9C0B93"/><stop offset="1" stop-color="#4C1BB7"/></linearGradient></defs></svg>