<svg width="193" height="29" viewBox="0 0 193 29" fill="none" xmlns="http://www.w3.org/2000/svg"><rect width="193" height="29" rx="14.5" fill="#000"/><path d="M23.088 20h1.392v-4.896h4.608v-1.28H24.48V10.08h5.568V8.8h-6.96V20zm8.933-9.536c.48 0 .848-.352.848-.848a.824.824 0 00-.848-.848.824.824 0 00-.848.848c0 .496.368.848.848.848zM31.35 20h1.312v-8.16H31.35V20zm7.11-8.256c-1.377 0-2.209.576-2.689 1.2l-.176-1.104h-1.136V20h1.313v-4.08c0-1.84.928-2.976 2.463-2.976 1.424 0 2.209.896 2.209 2.592V20h1.312v-4.544c0-2.704-1.457-3.712-3.297-3.712zm5.64-1.28c.48 0 .848-.352.848-.848a.824.824 0 00-.848-.848.824.824 0 00-.848.848c0 .496.368.848.848.848zM43.427 20h1.312v-8.16h-1.312V20zm2.774-2.688c.032 1.792 1.488 2.784 3.6 2.784 1.808 0 3.264-.944 3.264-2.464 0-1.808-1.488-2.16-3.344-2.384-1.184-.144-2.048-.256-2.048-1.152 0-.752.768-1.232 1.904-1.232 1.12 0 1.888.624 1.984 1.456h1.344c-.128-1.696-1.472-2.56-3.328-2.576-1.84-.016-3.2.96-3.2 2.448 0 1.696 1.456 2.064 3.28 2.288 1.216.144 2.112.224 2.112 1.248 0 .752-.816 1.248-1.968 1.248-1.36 0-2.208-.704-2.256-1.664H46.2zm12.32-5.568c-1.376 0-2.208.672-2.688 1.44V8.8h-1.312V20h1.312v-4.08c0-1.84.944-2.976 2.464-2.976 1.408 0 2.224.896 2.224 2.592V20h1.312v-4.544c0-2.704-1.488-3.712-3.312-3.712zm18.276 0c-1.456 0-2.336.672-2.832 1.552-.464-1.04-1.44-1.552-2.576-1.552-1.264 0-1.952.624-2.384 1.216l-.176-1.12h-1.136V20h1.312v-4.304c0-1.632.816-2.752 2.16-2.752 1.248 0 1.968.832 1.968 2.432V20h1.312v-4.368c0-1.664.832-2.688 2.192-2.688 1.232 0 1.936.832 1.936 2.432V20h1.312v-4.704c0-2.576-1.392-3.552-3.088-3.552zm6.842 8.304l-.4.992c-.304.768-.432.96-1.184.96h-1.168v1.2h1.568c1.152 0 1.456-.512 1.968-1.824l3.76-9.536h-1.392l-2.432 6.512-2.512-6.512h-1.392l3.184 8.208zm16.926-1.248c-.368 0-.528-.112-.528-.544v-3.568c0-1.904-1.2-2.944-3.28-2.944-1.968 0-3.264.944-3.456 2.544h1.312c.16-.832.928-1.376 2.08-1.376 1.28 0 2.032.64 2.032 1.696v.56h-2.4c-2.144 0-3.28.912-3.28 2.544 0 1.488 1.216 2.384 3.008 2.384 1.408 0 2.224-.624 2.736-1.36.016.8.384 1.264 1.472 1.264h.72v-1.2h-.416zm-1.84-2.128c0 1.36-.944 2.304-2.576 2.304-1.088 0-1.776-.544-1.776-1.344 0-.928.656-1.36 1.824-1.36h2.528v.4zm7.377-4.928c-1.376 0-2.256.656-2.8 1.408l-.176-1.312h-1.136V23.2h1.312v-4.448c.496.784 1.424 1.344 2.8 1.344 2.256 0 3.92-1.68 3.92-4.176 0-2.656-1.664-4.176-3.92-4.176zm-.128 7.184c-1.6 0-2.688-1.248-2.688-3.04 0-1.744 1.088-2.976 2.688-2.976 1.616 0 2.704 1.232 2.704 3.008s-1.088 3.008-2.704 3.008zm9.659-7.184c-1.376 0-2.256.656-2.8 1.408l-.176-1.312h-1.136V23.2h1.312v-4.448c.496.784 1.424 1.344 2.8 1.344 2.256 0 3.92-1.68 3.92-4.176 0-2.656-1.664-4.176-3.92-4.176zm-.128 7.184c-1.6 0-2.688-1.248-2.688-3.04 0-1.744 1.088-2.976 2.688-2.976 1.616 0 2.704 1.232 2.704 3.008s-1.088 3.008-2.704 3.008zM121.052 20h1.312V8.8h-1.312V20zm3.782-9.536c.48 0 .848-.352.848-.848a.824.824 0 00-.848-.848.824.824 0 00-.848.848c0 .496.368.848.848.848zM124.162 20h1.312v-8.16h-1.312V20zm6.773.096c1.984 0 3.312-1.12 3.632-2.88h-1.392c-.256 1.04-1.056 1.712-2.224 1.712-1.568 0-2.624-1.216-2.624-2.992s1.056-3.024 2.624-3.024c1.2 0 2 .656 2.24 1.744h1.376c-.336-1.792-1.6-2.912-3.6-2.912-2.368 0-3.984 1.696-3.984 4.192 0 2.544 1.568 4.16 3.952 4.16zm12.286-1.296c-.368 0-.528-.112-.528-.544v-3.568c0-1.904-1.2-2.944-3.28-2.944-1.968 0-3.264.944-3.456 2.544h1.312c.16-.832.928-1.376 2.08-1.376 1.28 0 2.032.64 2.032 1.696v.56h-2.4c-2.144 0-3.28.912-3.28 2.544 0 1.488 1.216 2.384 3.008 2.384 1.408 0 2.224-.624 2.736-1.36.016.8.384 1.264 1.472 1.264h.72v-1.2h-.416zm-1.84-2.128c0 1.36-.944 2.304-2.576 2.304-1.088 0-1.776-.544-1.776-1.344 0-.928.656-1.36 1.824-1.36h2.528v.4zm3.873 1.2c0 1.44.56 2.128 2.128 2.128h1.424v-1.2h-1.296c-.704 0-.944-.256-.944-.944V13.04h2.112v-1.2h-2.112V9.552h-1.312v2.288h-1.472v1.2h1.472v4.832zm5.361-7.408c.48 0 .848-.352.848-.848a.824.824 0 00-.848-.848.824.824 0 00-.848.848c0 .496.368.848.848.848zM149.943 20h1.312v-8.16h-1.312V20zm6.869.096c2.384 0 4.048-1.696 4.048-4.176 0-2.48-1.664-4.176-4.048-4.176-2.384 0-4.048 1.696-4.048 4.176 0 2.48 1.664 4.176 4.048 4.176zm0-1.168c-1.616 0-2.704-1.264-2.704-3.008s1.088-3.008 2.704-3.008 2.704 1.264 2.704 3.008-1.088 3.008-2.704 3.008zm9.553-7.184c-1.376 0-2.208.576-2.688 1.2l-.176-1.104h-1.136V20h1.312v-4.08c0-1.84.928-2.976 2.464-2.976 1.424 0 2.208.896 2.208 2.592V20h1.312v-4.544c0-2.704-1.456-3.712-3.296-3.712z" fill="#fff"/></svg>