<svg width="113" height="24" viewBox="0 0 113 24" fill="none" xmlns="http://www.w3.org/2000/svg"><path d="M1.524 9l.78-2.076h3.444L6.54 9h1.476L4.884.6H3.24L.096 9h1.428zM4.02 2.088l1.344 3.66H2.688l1.332-3.66zm7.264 6.984c1.572 0 2.616-.876 2.856-2.268h-1.368c-.156.708-.684 1.164-1.476 1.164-1.044 0-1.728-.828-1.728-2.028 0-1.212.684-2.052 1.728-2.052.804 0 1.32.444 1.488 1.164h1.356c-.252-1.392-1.236-2.268-2.82-2.268-1.86 0-3.084 1.26-3.084 3.156 0 1.92 1.188 3.132 3.048 3.132zm7.076-6.288c-.96 0-1.548.432-1.932.96V.6h-1.296V9h1.296V5.892c0-1.236.624-1.992 1.644-1.992.96 0 1.476.624 1.476 1.788V9h1.296V5.58c0-2.052-1.116-2.796-2.484-2.796zm4.323-.792c.444 0 .792-.324.792-.78s-.348-.78-.792-.78c-.444 0-.792.324-.792.78s.348.78.792.78zM22.023 9h1.296V2.856h-1.296V9zm5.482.072c1.524 0 2.556-.924 2.772-2.136h-1.296c-.18.684-.756 1.08-1.548 1.08-1.02 0-1.68-.684-1.716-1.728v-.084h4.632a3.52 3.52 0 00.036-.492c-.036-1.8-1.224-2.928-3-2.928-1.812 0-3.024 1.26-3.024 3.156 0 1.884 1.212 3.132 3.144 3.132zm-1.74-3.816c.096-.876.804-1.428 1.632-1.428.9 0 1.536.516 1.644 1.428h-3.276zM32.808 9h1.584l2.268-6.144h-1.368l-1.668 4.752-1.692-4.752H30.54L32.808 9zm7.142.072c1.524 0 2.556-.924 2.772-2.136h-1.296c-.18.684-.756 1.08-1.548 1.08-1.02 0-1.68-.684-1.716-1.728v-.084h4.632a3.52 3.52 0 00.036-.492c-.036-1.8-1.224-2.928-3-2.928-1.812 0-3.024 1.26-3.024 3.156 0 1.884 1.212 3.132 3.144 3.132zm-1.74-3.816c.096-.876.804-1.428 1.632-1.428.9 0 1.536.516 1.644 1.428H38.21zm10.514 3.78l-.24.6c-.192.504-.312.624-.816.624h-.911v1.14h1.392c.9 0 1.163-.444 1.547-1.44l2.785-7.104H51.1l-1.669 4.668-1.715-4.668h-1.38l2.387 6.18zm7.035.036c1.872 0 3.132-1.26 3.132-3.144 0-1.872-1.26-3.144-3.132-3.144s-3.132 1.272-3.132 3.144c0 1.884 1.26 3.144 3.132 3.144zm0-1.104c-1.092 0-1.8-.852-1.8-2.04 0-1.188.708-2.04 1.8-2.04s1.812.852 1.812 2.04c0 1.188-.72 2.04-1.812 2.04zm8.386-2.04c0 1.272-.6 2.016-1.584 2.016-.948 0-1.428-.612-1.428-1.812V2.856h-1.296v3.42c0 2.1 1.116 2.796 2.424 2.796.948 0 1.512-.384 1.896-.852L64.3 9h1.14V2.856h-1.296v3.072zm5.681-3.072c-1.008 0-1.5.408-1.812.924l-.144-.924h-1.152V9h1.296V5.916c0-.948.372-1.848 1.524-1.848h.576V2.856h-.288zm7.446-.072c-.96 0-1.596.444-2.004.984l-.156-.912h-1.128V11.4h1.296V8.136c.384.552 1.044.936 1.992.936 1.68 0 2.904-1.248 2.904-3.144 0-1.968-1.224-3.144-2.904-3.144zm-.216 5.196c-1.08 0-1.788-.852-1.788-2.076 0-1.188.708-2.016 1.788-2.016s1.8.828 1.8 2.04c0 1.2-.72 2.052-1.8 2.052zm7.074 1.092c1.524 0 2.556-.924 2.772-2.136h-1.296c-.18.684-.756 1.08-1.548 1.08-1.02 0-1.68-.684-1.716-1.728v-.084h4.632a3.52 3.52 0 00.036-.492c-.036-1.8-1.224-2.928-3-2.928-1.812 0-3.024 1.26-3.024 3.156 0 1.884 1.212 3.132 3.144 3.132zm-1.74-3.816c.096-.876.804-1.428 1.632-1.428.9 0 1.536.516 1.644 1.428H82.39zm11.284 2.616c-.264 0-.396-.084-.396-.396v-2.46c0-1.452-.936-2.232-2.568-2.232-1.548 0-2.58.744-2.712 1.944h1.272c.096-.54.612-.9 1.38-.9.852 0 1.344.42 1.344 1.104v.372h-1.548c-1.716 0-2.628.708-2.628 1.968 0 1.14.936 1.8 2.28 1.8.996 0 1.62-.432 2.028-1.056 0 .612.288.984 1.128.984h.684V7.872h-.264zm-1.68-1.392c-.012.948-.636 1.584-1.716 1.584-.708 0-1.14-.36-1.14-.876 0-.624.444-.924 1.248-.924h1.608v.216zM94.644 9h1.296V7.44l1.104-1.152L98.856 9h1.536l-2.46-3.66 2.316-2.484h-1.524L95.94 5.832V.6h-1.296V9zM1.08 19.332c0 1.116.504 1.668 1.68 1.668h1.2v-1.14h-.912c-.492 0-.66-.18-.66-.66v-3.204h1.5v-1.14h-1.5V13.14H1.08v1.716H.012v1.14H1.08v3.336zm6.812-4.476c-1.008 0-1.5.408-1.812.924l-.144-.924H4.784V21H6.08v-3.084c0-.948.372-1.848 1.524-1.848h.576v-1.212h-.288zm6.516 5.016c-.264 0-.396-.084-.396-.396v-2.46c0-1.452-.936-2.232-2.568-2.232-1.548 0-2.58.744-2.712 1.944h1.272c.096-.54.612-.9 1.38-.9.852 0 1.344.42 1.344 1.104v.372H11.18c-1.716 0-2.628.708-2.628 1.968 0 1.14.936 1.8 2.28 1.8.996 0 1.62-.432 2.028-1.056 0 .612.288.984 1.128.984h.684v-1.128h-.264zm-1.68-1.392c-.012.948-.636 1.584-1.716 1.584-.708 0-1.14-.36-1.14-.876 0-.624.444-.924 1.248-.924h1.608v.216zM20 15.708c-.396-.54-1.056-.924-1.992-.924-1.668 0-2.904 1.248-2.904 3.144 0 1.968 1.236 3.144 2.904 3.144.972 0 1.608-.456 2.004-.996l.156.924h1.128v-8.4H20v3.108zm-1.776 4.272c-1.08 0-1.788-.84-1.788-2.052 0-1.2.708-2.04 1.788-2.04s1.788.84 1.788 2.064c0 1.188-.708 2.028-1.788 2.028zm4.999-5.988c.444 0 .792-.324.792-.78s-.348-.78-.792-.78c-.444 0-.792.324-.792.78s.348.78.792.78zM22.562 21h1.296v-6.144h-1.296V21zm5.806-6.216c-.996 0-1.584.396-1.968.876l-.144-.804h-1.128V21h1.296v-3.096c0-1.248.612-2.004 1.644-2.004.972 0 1.464.624 1.464 1.788V21h1.308v-3.42c0-2.052-1.116-2.796-2.472-2.796zm8.343 1.032c-.396-.612-1.056-1.032-2.016-1.032-1.668 0-2.904 1.236-2.904 3.12 0 1.956 1.236 3.12 2.904 3.12.96 0 1.596-.396 2.004-1.008v.684c0 1.176-.636 1.716-1.764 1.716-.912 0-1.512-.396-1.668-1.08h-1.32c.12 1.38 1.26 2.136 2.892 2.136 2.208 0 3.144-1.056 3.144-2.724v-5.892h-1.128l-.144.96zm-1.8 4.116c-1.08 0-1.788-.828-1.788-2.028 0-1.188.708-2.028 1.788-2.028s1.788.84 1.788 2.052c0 1.176-.708 2.004-1.788 2.004zm10.697-5.148c-.96 0-1.596.444-2.004.984l-.156-.912H42.32V23.4h1.296v-3.264c.384.552 1.044.936 1.992.936 1.68 0 2.904-1.248 2.904-3.144 0-1.968-1.224-3.144-2.904-3.144zm-.216 5.196c-1.08 0-1.788-.852-1.788-2.076 0-1.188.708-2.016 1.788-2.016s1.8.828 1.8 2.04c0 1.2-.72 2.052-1.8 2.052zm7.074 1.092c1.524 0 2.556-.924 2.772-2.136h-1.296c-.18.684-.756 1.08-1.548 1.08-1.02 0-1.68-.684-1.716-1.728v-.084h4.632a3.52 3.52 0 00.036-.492c-.036-1.8-1.224-2.928-3-2.928-1.812 0-3.024 1.26-3.024 3.156 0 1.884 1.212 3.132 3.144 3.132zm-1.74-3.816c.096-.876.804-1.428 1.632-1.428.9 0 1.536.516 1.644 1.428h-3.276zm8.776-2.4c-1.008 0-1.5.408-1.812.924l-.144-.924h-1.152V21h1.296v-3.084c0-.948.372-1.848 1.524-1.848h.576v-1.212h-.288zm.72 1.14h1.069V21h1.308v-5.004h1.644v-1.14h-1.668v-.516c0-.42.18-.6.6-.6h1.068V12.6h-1.236c-1.188 0-1.716.576-1.716 1.68v.576h-1.068v1.14zm7.337 5.076c1.873 0 3.133-1.26 3.133-3.144 0-1.872-1.26-3.144-3.132-3.144-1.873 0-3.133 1.272-3.133 3.144 0 1.884 1.26 3.144 3.132 3.144zm0-1.104c-1.091 0-1.8-.852-1.8-2.04 0-1.188.709-2.04 1.8-2.04 1.093 0 1.813.852 1.813 2.04 0 1.188-.72 2.04-1.813 2.04zm7.283-5.112c-1.008 0-1.5.408-1.812.924l-.144-.924h-1.152V21h1.296v-3.084c0-.948.372-1.848 1.524-1.848h.576v-1.212h-.288zm8.155-.072c-1.008 0-1.704.444-2.1 1.116-.372-.792-1.092-1.116-1.896-1.116-.924.012-1.452.42-1.8.876l-.144-.804h-1.128V21h1.296v-3.288c0-1.092.552-1.812 1.44-1.812.852 0 1.296.564 1.296 1.644V21h1.308v-3.324c0-1.104.564-1.776 1.452-1.776.84 0 1.284.564 1.284 1.644V21h1.296v-3.54c0-1.944-1.032-2.676-2.304-2.676zm9.095 5.088c-.264 0-.396-.084-.396-.396v-2.46c0-1.452-.936-2.232-2.568-2.232-1.548 0-2.58.744-2.712 1.944h1.272c.096-.54.612-.9 1.38-.9.852 0 1.344.42 1.344 1.104v.372h-1.548c-1.716 0-2.628.708-2.628 1.968 0 1.14.936 1.8 2.28 1.8.996 0 1.62-.432 2.028-1.056 0 .612.288.984 1.128.984h.684v-1.128h-.264zm-1.68-1.392c-.012.948-.636 1.584-1.716 1.584-.708 0-1.14-.36-1.14-.876 0-.624.444-.924 1.248-.924h1.608v.216zm5.89-3.696c-.996 0-1.584.396-1.968.876l-.144-.804h-1.128V21h1.296v-3.096c0-1.248.612-2.004 1.644-2.004.972 0 1.464.624 1.464 1.788V21h1.308v-3.42c0-2.052-1.116-2.796-2.472-2.796zm6.424 6.288c1.572 0 2.616-.876 2.856-2.268h-1.368c-.156.708-.684 1.164-1.476 1.164-1.044 0-1.728-.828-1.728-2.028 0-1.212.684-2.052 1.728-2.052.804 0 1.32.444 1.488 1.164h1.356c-.252-1.392-1.236-2.268-2.82-2.268-1.86 0-3.085 1.26-3.085 3.156 0 1.92 1.189 3.132 3.049 3.132zm6.764 0c1.524 0 2.556-.924 2.772-2.136h-1.296c-.18.684-.756 1.08-1.548 1.08-1.02 0-1.68-.684-1.717-1.728v-.084h4.633a3.52 3.52 0 00.036-.492c-.036-1.8-1.224-2.928-3-2.928-1.812 0-3.024 1.26-3.024 3.156 0 1.884 1.212 3.132 3.144 3.132zm-1.74-3.816c.096-.876.804-1.428 1.632-1.428.9 0 1.536.516 1.644 1.428h-3.276z" fill="#000"/></svg>