<svg width="252" height="20" viewBox="0 0 252 20" fill="none" xmlns="http://www.w3.org/2000/svg"><path d="M7.728 15.126c3.423 0 5.922-2.016 6.384-5.124h-2.499c-.462 1.869-1.869 3.003-3.906 3.003-2.772 0-4.452-2.226-4.452-5.355 0-3.15 1.722-5.355 4.515-5.355 1.995 0 3.381 1.155 3.864 3.003h2.499C13.65 2.19 11.235.174 7.875.174 3.528.174.777 3.177.777 7.65c0 4.515 2.667 7.476 6.951 7.476zm13.8-11.004c-1.68 0-2.71.756-3.381 1.68V.3h-2.268V15h2.268V9.561c0-2.163 1.092-3.486 2.877-3.486 1.68 0 2.583 1.092 2.583 3.129V15h2.268V9.015c0-3.591-1.953-4.893-4.347-4.893zm11.41 11.004c3.275 0 5.48-2.205 5.48-5.502 0-3.276-2.205-5.502-5.48-5.502-3.277 0-5.482 2.226-5.482 5.502 0 3.297 2.205 5.502 5.481 5.502zm0-1.932c-1.912 0-3.15-1.491-3.15-3.57 0-2.079 1.238-3.57 3.15-3.57 1.91 0 3.17 1.491 3.17 3.57 0 2.079-1.26 3.57-3.17 3.57zm12.386 1.932c3.276 0 5.48-2.205 5.48-5.502 0-3.276-2.204-5.502-5.48-5.502-3.276 0-5.481 2.226-5.481 5.502 0 3.297 2.205 5.502 5.48 5.502zm0-1.932c-1.911 0-3.15-1.491-3.15-3.57 0-2.079 1.239-3.57 3.15-3.57 1.91 0 3.17 1.491 3.17 3.57 0 2.079-1.26 3.57-3.17 3.57zm6.781-1.743c.063 2.331 2.037 3.675 4.914 3.675 2.604 0 4.557-1.302 4.557-3.36 0-2.394-1.995-2.898-4.452-3.192-1.554-.168-2.583-.294-2.583-1.302 0-.861.882-1.407 2.226-1.407 1.344 0 2.268.693 2.394 1.68h2.226c-.147-2.205-2.016-3.423-4.662-3.423-2.583-.021-4.41 1.302-4.41 3.339 0 2.226 1.932 2.751 4.39 3.045 1.658.21 2.645.294 2.645 1.449 0 .861-.924 1.407-2.33 1.407-1.639 0-2.605-.798-2.689-1.911h-2.226zm16.332 3.675c2.667 0 4.473-1.617 4.85-3.738H71.02c-.315 1.197-1.323 1.89-2.71 1.89-1.784 0-2.94-1.197-3.002-3.024v-.147h8.106a6.16 6.16 0 00.063-.861c-.063-3.15-2.142-5.124-5.25-5.124-3.171 0-5.292 2.205-5.292 5.523 0 3.297 2.12 5.481 5.502 5.481zm-3.045-6.678c.168-1.533 1.407-2.499 2.856-2.499 1.575 0 2.688.903 2.877 2.499h-5.733zM80.914 15h2.415v-3.885l2.541-2.856L90.49 15h2.92l-5.797-8.526L93.01.3h-2.94l-6.74 7.581V.3h-2.416V15zm19.262-10.878c-1.743 0-2.772.693-3.444 1.533l-.252-1.407h-1.974V15h2.268V9.582c0-2.184 1.07-3.507 2.877-3.507 1.701 0 2.562 1.092 2.562 3.129V15h2.289V9.015c0-3.591-1.953-4.893-4.326-4.893zm11.388 11.004c3.276 0 5.481-2.205 5.481-5.502 0-3.276-2.205-5.502-5.481-5.502s-5.481 2.226-5.481 5.502c0 3.297 2.205 5.502 5.481 5.502zm0-1.932c-1.911 0-3.15-1.491-3.15-3.57 0-2.079 1.239-3.57 3.15-3.57 1.911 0 3.171 1.491 3.171 3.57 0 2.079-1.26 3.57-3.171 3.57zm12.24 1.932c2.751 0 4.578-1.533 4.998-3.969h-2.394c-.273 1.239-1.197 2.037-2.583 2.037-1.827 0-3.024-1.449-3.024-3.549 0-2.121 1.197-3.591 3.024-3.591 1.407 0 2.31.777 2.604 2.037h2.373c-.441-2.436-2.163-3.969-4.935-3.969-3.255 0-5.397 2.205-5.397 5.523 0 3.36 2.079 5.481 5.334 5.481zm6.734-.126h2.268v-2.73l1.932-2.016L137.909 15h2.688l-4.305-6.405 4.053-4.347h-2.667l-4.872 5.208V.3h-2.268V15zm15.561.126c3.276 0 5.481-2.205 5.481-5.502 0-3.276-2.205-5.502-5.481-5.502s-5.481 2.226-5.481 5.502c0 3.297 2.205 5.502 5.481 5.502zm0-1.932c-1.911 0-3.15-1.491-3.15-3.57 0-2.079 1.239-3.57 3.15-3.57 1.911 0 3.171 1.491 3.171 3.57 0 2.079-1.26 3.57-3.171 3.57zm14.676-3.57c0 2.226-1.05 3.528-2.772 3.528-1.659 0-2.499-1.071-2.499-3.171V4.248h-2.268v5.985c0 3.675 1.953 4.893 4.242 4.893 1.659 0 2.646-.672 3.318-1.491l.252 1.365h1.995V4.248h-2.268v5.376zm5.342 2.457c0 1.953.882 2.919 2.94 2.919h2.1v-1.995h-1.596c-.861 0-1.155-.315-1.155-1.155V6.243h2.625V4.248h-2.625V1.245h-2.289v3.003h-1.869v1.995h1.869v5.838zm25.799-4.431c0-4.305-2.919-7.476-7.14-7.476s-7.14 3.171-7.14 7.476 2.919 7.476 7.14 7.476 7.14-3.171 7.14-7.476zm-11.802 0c0-3.108 1.869-5.355 4.662-5.355s4.662 2.247 4.662 5.355c0 3.108-1.869 5.355-4.662 5.355s-4.662-2.247-4.662-5.355zm19.444-3.528c-1.68 0-2.793.777-3.507 1.722l-.273-1.596h-1.974V19.2h2.268v-5.712c.672.966 1.827 1.638 3.486 1.638 2.94 0 5.082-2.184 5.082-5.502 0-3.444-2.142-5.502-5.082-5.502zm-.378 9.093c-1.89 0-3.129-1.491-3.129-3.633 0-2.079 1.239-3.528 3.129-3.528s3.15 1.449 3.15 3.57c0 2.1-1.26 3.591-3.15 3.591zm7.973-1.134c0 1.953.882 2.919 2.94 2.919h2.1v-1.995h-1.596c-.861 0-1.155-.315-1.155-1.155V6.243h2.625V4.248h-2.625V1.245h-2.289v3.003h-1.869v1.995h1.869v5.838zm7.637-9.345c.777 0 1.386-.567 1.386-1.365S215.567.006 214.79.006c-.777 0-1.386.567-1.386 1.365s.609 1.365 1.386 1.365zM213.635 15h2.268V4.248h-2.268V15zm9.574.126c3.276 0 5.481-2.205 5.481-5.502 0-3.276-2.205-5.502-5.481-5.502s-5.481 2.226-5.481 5.502c0 3.297 2.205 5.502 5.481 5.502zm0-1.932c-1.911 0-3.15-1.491-3.15-3.57 0-2.079 1.239-3.57 3.15-3.57 1.911 0 3.171 1.491 3.171 3.57 0 2.079-1.26 3.57-3.171 3.57zm12.974-9.072c-1.743 0-2.772.693-3.444 1.533l-.252-1.407h-1.974V15h2.268V9.582c0-2.184 1.071-3.507 2.877-3.507 1.701 0 2.562 1.092 2.562 3.129V15h2.289V9.015c0-3.591-1.953-4.893-4.326-4.893zm5.927 7.329c.063 2.331 2.037 3.675 4.914 3.675 2.604 0 4.557-1.302 4.557-3.36 0-2.394-1.995-2.898-4.452-3.192-1.554-.168-2.583-.294-2.583-1.302 0-.861.882-1.407 2.226-1.407 1.344 0 2.268.693 2.394 1.68h2.226c-.147-2.205-2.016-3.423-4.662-3.423-2.583-.021-4.41 1.302-4.41 3.339 0 2.226 1.932 2.751 4.389 3.045 1.659.21 2.646.294 2.646 1.449 0 .861-.924 1.407-2.331 1.407-1.638 0-2.604-.798-2.688-1.911h-2.226z" fill="#000"/></svg>