<svg width="91" height="8" viewBox="0 0 91 8" fill="none" xmlns="http://www.w3.org/2000/svg"><path d="M.733 1.545H2.46V6.33h.92V1.545h1.73V.729H.732v.816zm6.65.688c-.672 0-1 .272-1.208.616l-.096-.616h-.768V6.33h.864V4.274c0-.632.248-1.233 1.016-1.233h.385v-.808h-.193zm4.346 3.345c-.176 0-.264-.056-.264-.264v-1.64c0-.969-.624-1.489-1.713-1.489-1.032 0-1.72.496-1.808 1.297h.848c.064-.36.408-.6.92-.6.568 0 .896.28.896.736v.248H9.576c-1.144 0-1.752.472-1.752 1.312 0 .76.624 1.2 1.52 1.2.664 0 1.08-.288 1.352-.704 0 .408.193.656.753.656h.456v-.752h-.176zm-1.12-.928c-.009.632-.425 1.056-1.145 1.056-.472 0-.76-.24-.76-.584 0-.416.296-.616.832-.616h1.072v.144zM15.456 2.8c-.264-.36-.704-.616-1.328-.616-1.112 0-1.937.832-1.937 2.097 0 1.312.825 2.096 1.937 2.096.648 0 1.072-.304 1.336-.664l.104.616h.753V.73h-.865V2.8zm-1.184 2.85c-.72 0-1.192-.561-1.192-1.37 0-.8.472-1.36 1.192-1.36s1.192.56 1.192 1.377c0 .792-.472 1.352-1.192 1.352zm3.333-3.994a.511.511 0 00.529-.52.511.511 0 00-.529-.52.511.511 0 00-.528.52c0 .304.232.52.528.52zm-.44 4.673h.864V2.233h-.864V6.33zm3.872-4.145c-.664 0-1.056.264-1.312.584l-.096-.536h-.752V6.33h.864V4.266c0-.833.408-1.337 1.096-1.337.649 0 .977.416.977 1.193V6.33h.872V4.05c0-1.369-.744-1.865-1.649-1.865zm5.564.688c-.264-.408-.704-.688-1.344-.688-1.113 0-1.937.824-1.937 2.08 0 1.305.824 2.081 1.937 2.081.64 0 1.064-.264 1.336-.672v.456c0 .785-.424 1.145-1.176 1.145-.609 0-1.009-.264-1.113-.72h-.88c.08.92.84 1.424 1.929 1.424 1.472 0 2.096-.704 2.096-1.817V2.233h-.752l-.096.64zm-1.2 2.745c-.72 0-1.193-.552-1.193-1.352 0-.792.472-1.353 1.193-1.353.72 0 1.192.56 1.192 1.369 0 .784-.472 1.336-1.192 1.336zm6.821.76c1.048 0 1.745-.584 1.905-1.512h-.913c-.104.472-.456.776-.984.776-.696 0-1.152-.552-1.152-1.352 0-.808.456-1.369 1.152-1.369.536 0 .88.296.992.777h.905c-.168-.929-.825-1.513-1.88-1.513-1.241 0-2.058.84-2.058 2.105 0 1.28.793 2.088 2.033 2.088zm6.311-.8c-.176 0-.264-.056-.264-.264v-1.64c0-.969-.624-1.489-1.712-1.489-1.032 0-1.72.496-1.809 1.297h.848c.064-.36.409-.6.92-.6.569 0 .897.28.897.736v.248h-1.032c-1.145 0-1.753.472-1.753 1.312 0 .76.624 1.2 1.52 1.2.665 0 1.081-.288 1.353-.704 0 .408.192.656.752.656h.457v-.752h-.177zm-1.12-.928c-.008.632-.424 1.056-1.144 1.056-.472 0-.76-.24-.76-.584 0-.416.296-.616.832-.616h1.072v.144zm3.928-2.465c-.664 0-1.056.264-1.312.584l-.096-.536h-.753V6.33h.865V4.266c0-.833.408-1.337 1.096-1.337.648 0 .976.416.976 1.193V6.33h.872V4.05c0-1.369-.744-1.865-1.648-1.865zm9.659.688c-.264-.408-.705-.688-1.345-.688-1.112 0-1.936.824-1.936 2.08 0 1.305.824 2.081 1.936 2.081.64 0 1.065-.264 1.337-.672v.456c0 .785-.425 1.145-1.177 1.145-.608 0-1.008-.264-1.112-.72h-.88c.08.92.84 1.424 1.928 1.424 1.473 0 2.097-.704 2.097-1.817V2.233h-.752l-.096.64zm-1.2 2.745c-.721 0-1.193-.552-1.193-1.352 0-.792.472-1.353 1.192-1.353s1.193.56 1.193 1.369c0 .784-.473 1.336-1.193 1.336zm4.83.76c1.248 0 2.088-.84 2.088-2.096 0-1.249-.84-2.097-2.089-2.097-1.248 0-2.089.848-2.089 2.097 0 1.256.84 2.096 2.09 2.096zm0-.736c-.73 0-1.201-.568-1.201-1.36 0-.792.472-1.36 1.2-1.36s1.209.568 1.209 1.36c0 .792-.48 1.36-1.209 1.36zm5.775.688h.936l.896-2.784.865 2.784h.928l1.36-4.097h-.88l-.968 3.137-.897-3.137h-.792l-.936 3.137-.937-3.137h-.912l1.337 4.097zm7.513-4.097c-.672 0-1 .272-1.208.616l-.096-.616h-.769V6.33h.865V4.274c0-.632.248-1.233 1.016-1.233h.384v-.808h-.192zm2.466 4.145c1.249 0 2.089-.84 2.089-2.096 0-1.249-.84-2.097-2.089-2.097-1.248 0-2.088.848-2.088 2.097 0 1.256.84 2.096 2.088 2.096zm0-.736c-.728 0-1.2-.568-1.2-1.36 0-.792.472-1.36 1.2-1.36.729 0 1.209.568 1.209 1.36 0 .792-.48 1.36-1.209 1.36zm4.945-3.457c-.665 0-1.057.264-1.313.584l-.096-.536h-.752V6.33h.864V4.266c0-.833.408-1.337 1.097-1.337.648 0 .976.416.976 1.193V6.33h.872V4.05c0-1.369-.744-1.865-1.648-1.865zm5.563.688c-.264-.408-.704-.688-1.344-.688-1.113 0-1.937.824-1.937 2.08 0 1.305.825 2.081 1.937 2.081.64 0 1.064-.264 1.336-.672v.456c0 .785-.424 1.145-1.176 1.145-.608 0-1.008-.264-1.112-.72h-.88c.08.92.84 1.424 1.928 1.424 1.472 0 2.097-.704 2.097-1.817V2.233h-.753l-.096.64zm-1.2 2.745c-.72 0-1.192-.552-1.192-1.352 0-.792.472-1.353 1.192-1.353s1.192.56 1.192 1.369c0 .784-.472 1.336-1.192 1.336zm5.38-3.961a.511.511 0 00.529-.52.511.511 0 00-.528-.52.511.511 0 00-.528.52c0 .304.232.52.528.52zm-.44 4.673h.865V2.233h-.864V6.33zm3.873-4.145c-.664 0-1.056.264-1.313.584l-.096-.536h-.752V6.33h.865V4.266c0-.833.408-1.337 1.096-1.337.648 0 .976.416.976 1.193V6.33h.872V4.05c0-1.369-.744-1.865-1.648-1.865z" fill="#000"/></svg>