<svg width="154" height="58" viewBox="0 0 154 58" fill="none" xmlns="http://www.w3.org/2000/svg"><path d="M3.186 13V4.072L9.324 13h1.89V.4H9.18v8.928L3.042.4h-1.89V13h2.034zm14.5.108c2.285 0 3.833-1.386 4.157-3.204H19.9c-.27 1.026-1.134 1.62-2.322 1.62-1.53 0-2.52-1.026-2.574-2.592v-.126h6.948a5.28 5.28 0 00.054-.738c-.054-2.7-1.836-4.392-4.5-4.392-2.718 0-4.536 1.89-4.536 4.734 0 2.826 1.818 4.698 4.716 4.698zm-2.61-5.724c.143-1.314 1.205-2.142 2.447-2.142 1.35 0 2.304.774 2.466 2.142h-4.914zM25.384 13h2.106l2.016-6.264L31.45 13h2.088l3.06-9.216h-1.98L32.44 10.84l-2.016-7.056h-1.782l-2.106 7.056-2.106-7.056h-2.052L25.385 13zm17.04 0h2.07V8.428h2.772L49.697 13h2.304l-2.664-5.022c1.476-.522 2.448-1.872 2.448-3.564C51.785 1.966 50.021.4 47.393.4h-4.968V13zm4.806-10.8c1.476 0 2.43.864 2.43 2.214s-.954 2.214-2.43 2.214h-2.736V2.2h2.736zm14.319 9.108c-.396 0-.594-.126-.594-.594v-3.69c0-2.178-1.404-3.348-3.852-3.348-2.322 0-3.87 1.116-4.068 2.916h1.908c.144-.81.918-1.35 2.07-1.35 1.278 0 2.016.63 2.016 1.656v.558h-2.322c-2.574 0-3.942 1.062-3.942 2.952 0 1.71 1.404 2.7 3.42 2.7 1.494 0 2.43-.648 3.042-1.584 0 .918.432 1.476 1.692 1.476h1.026v-1.692h-.396zM59.03 9.22c-.018 1.422-.954 2.376-2.574 2.376-1.062 0-1.71-.54-1.71-1.314 0-.936.666-1.386 1.872-1.386h2.412v.324zM64.847 13h2.107l2.016-6.264L70.913 13H73l3.06-9.216h-1.98l-2.178 7.056-2.016-7.056h-1.781L66 10.84l-2.106-7.056h-2.052L64.847 13zm17.041 0h2.07V7.672h4.932V5.89h-4.932V2.236h5.976V.4h-8.046V13zm8.715 0h2.34l3.096-4.842L99.117 13h2.466l-4.194-6.534L101.331.4h-2.34l-2.88 4.482L93.285.4h-2.448l3.942 6.156L90.603 13zm12.036-1.116c0 .72.522 1.224 1.242 1.224s1.26-.504 1.26-1.224-.54-1.224-1.26-1.224-1.242.504-1.242 1.224zM.648 24.218h6.858L.45 33.578V35h10.08v-1.818H3.276l7.056-9.36V22.4H.648v1.818zm15.21 10.89c2.285 0 3.833-1.386 4.157-3.204h-1.944c-.27 1.026-1.134 1.62-2.322 1.62-1.53 0-2.52-1.026-2.574-2.592v-.126h6.948a5.28 5.28 0 00.054-.738c-.054-2.7-1.836-4.392-4.5-4.392-2.718 0-4.536 1.89-4.536 4.734 0 2.826 1.818 4.698 4.716 4.698zm-2.61-5.724c.143-1.314 1.205-2.142 2.447-2.142 1.35 0 2.304.774 2.466 2.142h-4.914zm13.163-3.6c-1.512 0-2.25.612-2.718 1.386l-.216-1.386h-1.728V35h1.944v-4.626c0-1.422.558-2.772 2.286-2.772h.864v-1.818h-.432zm5.547 9.324c2.808 0 4.698-1.89 4.698-4.716 0-2.808-1.89-4.716-4.698-4.716-2.808 0-4.698 1.908-4.698 4.716 0 2.826 1.89 4.716 4.698 4.716zm0-1.656c-1.638 0-2.7-1.278-2.7-3.06s1.062-3.06 2.7-3.06c1.638 0 2.718 1.278 2.718 3.06s-1.08 3.06-2.718 3.06zm15.8-7.776c-1.44 0-2.395.666-3.007 1.476l-.234-1.368h-1.692V38.6h1.944v-4.896c.576.828 1.566 1.404 2.988 1.404 2.52 0 4.356-1.872 4.356-4.716 0-2.952-1.836-4.716-4.356-4.716zm-.325 7.794c-1.62 0-2.682-1.278-2.682-3.114 0-1.782 1.062-3.024 2.682-3.024 1.62 0 2.7 1.242 2.7 3.06 0 1.8-1.08 3.078-2.7 3.078zm7.228-8.982c.666 0 1.188-.486 1.188-1.17 0-.684-.522-1.17-1.188-1.17-.666 0-1.188.486-1.188 1.17 0 .684.522 1.17 1.188 1.17zM53.67 35h1.944v-9.216H53.67V35zm8.781-9.324c-1.44 0-2.394.666-3.006 1.476l-.234-1.368H57.52V38.6h1.944v-4.896c.576.828 1.566 1.404 2.988 1.404 2.52 0 4.356-1.872 4.356-4.716 0-2.952-1.836-4.716-4.356-4.716zm-.324 7.794c-1.62 0-2.682-1.278-2.682-3.114 0-1.782 1.062-3.024 2.682-3.024 1.62 0 2.7 1.242 2.7 3.06 0 1.8-1.08 3.078-2.7 3.078zm5.79-1.512c.053 1.998 1.745 3.15 4.211 3.15 2.232 0 3.906-1.116 3.906-2.88 0-2.052-1.71-2.484-3.816-2.736-1.332-.144-2.214-.252-2.214-1.116 0-.738.756-1.206 1.908-1.206s1.944.594 2.052 1.44h1.908c-.126-1.89-1.728-2.934-3.996-2.934-2.214-.018-3.78 1.116-3.78 2.862 0 1.908 1.656 2.358 3.762 2.61 1.422.18 2.268.252 2.268 1.242 0 .738-.792 1.206-1.998 1.206-1.404 0-2.232-.684-2.304-1.638h-1.908zm9.32 1.926c0 .72.523 1.224 1.243 1.224.72 0 1.26-.504 1.26-1.224s-.54-1.224-1.26-1.224-1.242.504-1.242 1.224zM.649 46.218h6.858L.45 55.578V57h10.08v-1.818H3.276l7.056-9.36V44.4H.648v1.818zm15.21 10.89c2.285 0 3.833-1.386 4.157-3.204h-1.944c-.27 1.026-1.134 1.62-2.322 1.62-1.53 0-2.52-1.026-2.574-2.592v-.126h6.948a5.28 5.28 0 00.054-.738c-.054-2.7-1.836-4.392-4.5-4.392-2.718 0-4.536 1.89-4.536 4.734 0 2.826 1.818 4.698 4.716 4.698zm-2.61-5.724c.143-1.314 1.205-2.142 2.447-2.142 1.35 0 2.304.774 2.466 2.142h-4.914zm13.163-3.6c-1.512 0-2.25.612-2.718 1.386l-.216-1.386h-1.728V57h1.944v-4.626c0-1.422.558-2.772 2.286-2.772h.864v-1.818h-.432zm5.547 9.324c2.808 0 4.698-1.89 4.698-4.716 0-2.808-1.89-4.716-4.698-4.716-2.808 0-4.698 1.908-4.698 4.716 0 2.826 1.89 4.716 4.698 4.716zm0-1.656c-1.638 0-2.7-1.278-2.7-3.06s1.062-3.06 2.7-3.06c1.638 0 2.718 1.278 2.718 3.06s-1.08 3.06-2.718 3.06zm15.097 1.656c2.358 0 3.924-1.314 4.284-3.402h-2.052c-.234 1.062-1.026 1.746-2.214 1.746-1.566 0-2.592-1.242-2.592-3.042 0-1.818 1.026-3.078 2.592-3.078 1.206 0 1.98.666 2.232 1.746h2.034c-.378-2.088-1.854-3.402-4.23-3.402-2.79 0-4.626 1.89-4.626 4.734 0 2.88 1.782 4.698 4.572 4.698zm10.128 0c2.808 0 4.698-1.89 4.698-4.716 0-2.808-1.89-4.716-4.698-4.716-2.808 0-4.698 1.908-4.698 4.716 0 2.826 1.89 4.716 4.698 4.716zm0-1.656c-1.638 0-2.7-1.278-2.7-3.06s1.062-3.06 2.7-3.06c1.638 0 2.718 1.278 2.718 3.06s-1.08 3.06-2.718 3.06zm16.863-7.776c-1.512 0-2.556.666-3.15 1.674-.558-1.188-1.638-1.674-2.844-1.674-1.386.018-2.178.63-2.7 1.314l-.216-1.206h-1.692V57h1.944v-4.932c0-1.638.828-2.718 2.16-2.718 1.278 0 1.944.846 1.944 2.466V57h1.962v-4.986c0-1.656.846-2.664 2.178-2.664 1.26 0 1.926.846 1.926 2.466V57h1.944v-5.31c0-2.916-1.548-4.014-3.456-4.014zm15.82 0c-1.511 0-2.555.666-3.15 1.674-.557-1.188-1.637-1.674-2.843-1.674-1.386.018-2.178.63-2.7 1.314l-.216-1.206h-1.692V57h1.944v-4.932c0-1.638.828-2.718 2.16-2.718 1.278 0 1.944.846 1.944 2.466V57h1.962v-4.986c0-1.656.846-2.664 2.177-2.664 1.26 0 1.927.846 1.927 2.466V57h1.944v-5.31c0-2.916-1.548-4.014-3.456-4.014zm6.209-1.188c.666 0 1.188-.486 1.188-1.17 0-.684-.522-1.17-1.188-1.17-.666 0-1.188.486-1.188 1.17 0 .684.522 1.17 1.188 1.17zM95.085 57h1.944v-9.216h-1.944V57zm3.454-3.042c.053 1.998 1.745 3.15 4.211 3.15 2.232 0 3.906-1.116 3.906-2.88 0-2.052-1.71-2.484-3.816-2.736-1.332-.144-2.214-.252-2.214-1.116 0-.738.756-1.206 1.908-1.206s1.944.594 2.052 1.44h1.908c-.126-1.89-1.728-2.934-3.996-2.934-2.214-.018-3.78 1.116-3.78 2.862 0 1.908 1.656 2.358 3.762 2.61 1.422.18 2.268.252 2.268 1.242 0 .738-.792 1.206-1.998 1.206-1.404 0-2.232-.684-2.304-1.638h-1.907zm9.052 0c.054 1.998 1.746 3.15 4.212 3.15 2.232 0 3.906-1.116 3.906-2.88 0-2.052-1.71-2.484-3.816-2.736-1.332-.144-2.214-.252-2.214-1.116 0-.738.756-1.206 1.908-1.206s1.944.594 2.052 1.44h1.908c-.126-1.89-1.728-2.934-3.996-2.934-2.214-.018-3.78 1.116-3.78 2.862 0 1.908 1.656 2.358 3.762 2.61 1.422.18 2.268.252 2.268 1.242 0 .738-.792 1.206-1.998 1.206-1.404 0-2.232-.684-2.304-1.638h-1.908zm10.615-7.47c.666 0 1.188-.486 1.188-1.17 0-.684-.522-1.17-1.188-1.17-.666 0-1.188.486-1.188 1.17 0 .684.522 1.17 1.188 1.17zM117.216 57h1.944v-9.216h-1.944V57zm8.205.108c2.808 0 4.698-1.89 4.698-4.716 0-2.808-1.89-4.716-4.698-4.716-2.808 0-4.698 1.908-4.698 4.716 0 2.826 1.89 4.716 4.698 4.716zm0-1.656c-1.638 0-2.7-1.278-2.7-3.06s1.062-3.06 2.7-3.06c1.638 0 2.718 1.278 2.718 3.06s-1.08 3.06-2.718 3.06zm11.122-7.776c-1.494 0-2.376.594-2.952 1.314l-.216-1.206h-1.692V57h1.944v-4.644c0-1.872.918-3.006 2.466-3.006 1.458 0 2.196.936 2.196 2.682V57h1.962v-5.13c0-3.078-1.674-4.194-3.708-4.194zm5.079 6.282c.054 1.998 1.746 3.15 4.212 3.15 2.232 0 3.906-1.116 3.906-2.88 0-2.052-1.71-2.484-3.816-2.736-1.332-.144-2.214-.252-2.214-1.116 0-.738.756-1.206 1.908-1.206s1.944.594 2.052 1.44h1.908c-.126-1.89-1.728-2.934-3.996-2.934-2.214-.018-3.78 1.116-3.78 2.862 0 1.908 1.656 2.358 3.762 2.61 1.422.18 2.268.252 2.268 1.242 0 .738-.792 1.206-1.998 1.206-1.404 0-2.232-.684-2.304-1.638h-1.908zm9.322 1.926c0 .72.522 1.224 1.242 1.224s1.26-.504 1.26-1.224-.54-1.224-1.26-1.224-1.242.504-1.242 1.224z" fill="#000"/></svg>