<svg width="160" height="60" viewBox="0 0 160 60" fill="none" xmlns="http://www.w3.org/2000/svg"><path fill="#fff" d="M0 0h160v60H0z"/><path d="M5.078 7.971h3.089L5.505 13h1.357l2.68-5.28v-.81H5.077v1.061zm7.423.88c-.539 0-.94.164-1.244.443l.07-1.331h2.862V6.91h-4.002l-.174 3.567h1.21c.217-.505.687-.635 1.026-.635.635 0 1.044.452 1.044 1.096 0 .722-.504 1.088-1.035 1.088-.653 0-1.035-.435-1.096-.983H9.917c.053 1.113.923 2.01 2.332 2.01 1.262 0 2.306-.714 2.306-2.115 0-1.244-.827-2.088-2.054-2.088zm2.592-.488c0 .87.678 1.505 1.6 1.505.914 0 1.592-.635 1.592-1.505 0-.87-.678-1.505-1.592-1.505-.922 0-1.6.635-1.6 1.505zM17.285 13l4.176-6.09h-1.21L16.077 13h1.209zm.009-4.637a.595.595 0 01-.6.618.597.597 0 01-.61-.618c0-.348.261-.618.61-.618.339 0 .6.27.6.618zm1.957 3.184c0 .87.679 1.505 1.592 1.505.922 0 1.592-.635 1.592-1.505 0-.87-.67-1.505-1.592-1.505-.913 0-1.592.635-1.592 1.505zm2.201 0a.597.597 0 01-.609.618c-.339 0-.6-.261-.6-.618a.6.6 0 01.6-.618c.348 0 .61.27.61.618zm6.09 1.505c1.427 0 2.357-.905 2.357-2.288 0-1.374-.93-2.288-2.357-2.288s-2.358.913-2.358 2.288c0 1.375.931 2.288 2.358 2.288zm0-1c-.688 0-1.105-.531-1.105-1.288s.418-1.287 1.105-1.287 1.113.53 1.113 1.287c0 .757-.426 1.288-1.113 1.288zm2.598-2.489h.74V13h1.226V9.563h1.123V8.528H32.08V8.32c0-.252.122-.365.366-.365h.783V6.91h-1c-.906 0-1.35.461-1.35 1.288v.33h-.739v1.035zm8.225-1.035c-.696 0-1.044.27-1.288.67l-.113-.67h-1.113V13h1.227v-2.192c0-.679.278-1.166 1.009-1.166h.487V8.528h-.209zm2.822 4.524c1.192 0 1.966-.696 2.106-1.566h-1.21c-.104.418-.452.635-.948.635-.618 0-1.027-.383-1.053-1.018v-.06h3.245c.026-.14.035-.288.035-.418-.017-1.314-.922-2.149-2.262-2.149-1.383 0-2.297.905-2.297 2.297 0 1.383.897 2.28 2.384 2.28zm-1.079-2.81c.07-.53.47-.853 1-.853.558 0 .932.305 1.019.853h-2.019zm4.23 1.48c0 .852.426 1.278 1.278 1.278h1v-1.035h-.608c-.322 0-.444-.13-.444-.444V9.563h1.027V8.528h-1.027V7.275h-1.227v1.253h-.739v1.035h.74v2.158zm7.084.243c-.191 0-.287-.044-.287-.279v-1.583c0-1.07-.722-1.627-1.975-1.627-1.183 0-1.983.574-2.07 1.444h1.183c.052-.33.374-.548.852-.548.514 0 .8.261.8.661v.218h-.887c-1.34 0-2.053.54-2.053 1.488 0 .852.696 1.313 1.662 1.313.696 0 1.148-.287 1.461-.783-.008.426.192.731.827.731h.626v-1.035h-.139zm-1.496-.81c-.009.61-.4 1.01-1.044 1.01-.41 0-.661-.2-.661-.513 0-.375.295-.583.809-.583h.896v.087zm2.728-3.105c.4 0 .713-.296.713-.688 0-.4-.313-.696-.713-.696-.4 0-.714.296-.714.696 0 .392.313.688.714.688zM52.036 13h1.235V8.528h-1.235V13zm2.081 0h1.227V6.91h-1.227V13zm4.858-4.95c.4 0 .713-.296.713-.688 0-.4-.313-.696-.713-.696-.4 0-.714.296-.714.696 0 .392.313.688.714.688zM58.357 13h1.235V8.528h-1.235V13zm4.648-4.524c-.687 0-1.096.261-1.383.609l-.113-.557h-1.07V13h1.226v-2.288c0-.774.366-1.227 1-1.227.618 0 .906.4.906 1.157V13h1.226v-2.48c0-1.53-.826-2.044-1.792-2.044zM66.541 13h1.522l1.61-4.472h-1.288l-1.061 3.22-1.08-3.22h-1.313L66.541 13zm5.538.052c1.192 0 1.966-.696 2.105-1.566h-1.209c-.104.418-.452.635-.948.635-.618 0-1.027-.383-1.053-1.018v-.06h3.245c.026-.14.035-.288.035-.418-.017-1.314-.922-2.149-2.262-2.149-1.383 0-2.297.905-2.297 2.297 0 1.383.896 2.28 2.384 2.28zM71 10.242c.07-.53.47-.853 1-.853.558 0 .932.305 1.019.853H71zm3.682 1.27c.052.957.896 1.54 2.14 1.54 1.2 0 2.036-.565 2.036-1.453 0-1.009-.853-1.244-1.88-1.348-.643-.079-1.026-.113-1.026-.453 0-.287.313-.46.791-.46.496 0 .836.217.87.574h1.175c-.06-.914-.887-1.445-2.088-1.445-1.148-.008-1.923.574-1.923 1.462 0 .922.81 1.157 1.853 1.279.723.095 1.027.122 1.027.487 0 .313-.313.479-.826.479-.6 0-.94-.27-.984-.662h-1.165zm5.144.21c0 .852.426 1.278 1.279 1.278h1v-1.035h-.609c-.322 0-.444-.13-.444-.444V9.563h1.027V8.528h-1.027V7.275h-1.226v1.253h-.74v1.035h.74v2.158zm4.963 1.33c1.426 0 2.357-.905 2.357-2.288 0-1.374-.93-2.288-2.358-2.288-1.426 0-2.357.913-2.357 2.288 0 1.375.93 2.288 2.358 2.288zm0-1c-.688 0-1.105-.531-1.105-1.288s.417-1.287 1.105-1.287c.687 0 1.113.53 1.113 1.287 0 .757-.426 1.288-1.114 1.288zm5.547-3.524c-.696 0-1.044.27-1.288.67l-.113-.67h-1.114V13h1.227v-2.192c0-.679.278-1.166 1.01-1.166h.486V8.528h-.208zm7.177 3.437c-.191 0-.287-.044-.287-.279v-1.583c0-1.07-.722-1.627-1.975-1.627-1.183 0-1.983.574-2.07 1.444h1.183c.052-.33.374-.548.853-.548.513 0 .8.261.8.661v.218h-.887c-1.34 0-2.054.54-2.054 1.488 0 .852.696 1.313 1.662 1.313.696 0 1.148-.287 1.462-.783-.009.426.191.731.826.731h.627v-1.035h-.14zm-1.496-.81c-.009.61-.4 1.01-1.044 1.01-.409 0-.661-.2-.661-.513 0-.375.296-.583.809-.583h.896v.087zm4.199 1.897c1.218 0 2.027-.67 2.201-1.74h-1.288c-.087.453-.409.74-.887.74-.644 0-1.053-.522-1.053-1.288 0-.757.409-1.287 1.053-1.287.478 0 .783.278.887.722h1.279c-.174-1.062-.931-1.723-2.149-1.723-1.418 0-2.323.905-2.323 2.288 0 1.41.861 2.288 2.28 2.288zm4.953 0c1.218 0 2.027-.67 2.201-1.74h-1.288c-.087.453-.409.74-.887.74-.644 0-1.053-.522-1.053-1.288 0-.757.409-1.287 1.053-1.287.478 0 .783.278.887.722h1.279c-.174-1.062-.931-1.723-2.149-1.723-1.418 0-2.323.905-2.323 2.288 0 1.41.862 2.288 2.28 2.288zm5.031 0c1.427 0 2.358-.905 2.358-2.288 0-1.374-.931-2.288-2.358-2.288-1.426 0-2.357.913-2.357 2.288 0 1.375.931 2.288 2.357 2.288zm0-1c-.687 0-1.105-.531-1.105-1.288s.418-1.287 1.105-1.287c.688 0 1.114.53 1.114 1.287 0 .757-.426 1.288-1.114 1.288zm6.017-1.288c0 .827-.356 1.27-.965 1.27s-.87-.391-.87-1.192V8.528h-1.227v2.48c0 1.583.853 2.044 1.775 2.044.635 0 1.026-.243 1.313-.591l.114.539h1.087V8.528h-1.227v2.236zm4.646-2.288c-.687 0-1.096.261-1.383.609l-.113-.557h-1.07V13h1.227v-2.288c0-.774.365-1.227 1-1.227.618 0 .905.4.905 1.157V13h1.227v-2.48c0-1.53-.827-2.044-1.793-2.044zm2.887 3.245c0 .853.427 1.279 1.279 1.279h1.001v-1.035h-.609c-.322 0-.444-.13-.444-.444V9.563h1.027V8.528h-1.027V7.275h-1.227v1.253h-.739v1.035h.739v2.158zm2.639-.209c.052.957.896 1.54 2.14 1.54 1.201 0 2.036-.565 2.036-1.453 0-1.009-.853-1.244-1.879-1.348-.644-.079-1.027-.113-1.027-.453 0-.287.313-.46.792-.46.496 0 .835.217.87.574h1.174c-.061-.914-.887-1.445-2.088-1.445-1.148-.008-1.923.574-1.923 1.462 0 .922.81 1.157 1.854 1.279.722.095 1.026.122 1.026.487 0 .313-.313.479-.826.479-.601 0-.94-.27-.983-.662h-1.166zm6.98 1.488h1.227V6.91h-1.227V13zm4.265.052c1.427 0 2.358-.905 2.358-2.288 0-1.374-.931-2.288-2.358-2.288s-2.357.913-2.357 2.288c0 1.375.93 2.288 2.357 2.288zm0-1c-.687 0-1.105-.531-1.105-1.288s.418-1.287 1.105-1.287c.688 0 1.114.53 1.114 1.287 0 .757-.426 1.288-1.114 1.288zm2.79-.54c.053.957.896 1.54 2.141 1.54 1.2 0 2.035-.565 2.035-1.453 0-1.009-.852-1.244-1.879-1.348-.644-.079-1.026-.113-1.026-.453 0-.287.313-.46.791-.46.496 0 .835.217.87.574h1.175c-.061-.914-.888-1.445-2.088-1.445-1.149-.008-1.923.574-1.923 1.462 0 .922.809 1.157 1.853 1.279.722.095 1.027.122 1.027.487 0 .313-.313.479-.827.479-.6 0-.939-.27-.983-.662h-1.166zm7.032 1.54c1.192 0 1.967-.696 2.106-1.566h-1.21c-.104.418-.452.635-.948.635-.618 0-1.026-.383-1.053-1.018v-.06h3.246c.026-.14.034-.288.034-.418-.017-1.314-.922-2.149-2.262-2.149-1.383 0-2.296.905-2.296 2.297 0 1.383.896 2.28 2.383 2.28zm-1.078-2.81c.069-.53.469-.853 1-.853.557 0 .931.305 1.018.853h-2.018zM10.777 18.476c-.679 0-1.2.278-1.514.757-.278-.566-.792-.766-1.34-.757-.652.009-1.044.261-1.314.609l-.113-.557h-1.07V23h1.227v-2.436c0-.67.348-1.079.879-1.079.54 0 .783.348.783 1.018V23H9.54v-2.445c0-.678.357-1.07.888-1.07.53 0 .774.348.774 1.018V23h1.227v-2.567c0-1.435-.731-1.957-1.653-1.957zm4.59 4.576c1.427 0 2.358-.905 2.358-2.288 0-1.374-.931-2.288-2.358-2.288s-2.358.914-2.358 2.288c0 1.375.931 2.288 2.358 2.288zm0-1c-.687 0-1.105-.531-1.105-1.288s.418-1.287 1.105-1.287 1.113.53 1.113 1.287c0 .757-.426 1.288-1.113 1.288zm5.6-3.576c-.688 0-1.097.261-1.384.609l-.113-.557H18.4V23h1.227v-2.288c0-.774.365-1.227 1-1.227.618 0 .905.4.905 1.157V23h1.227v-2.48c0-1.53-.827-2.044-1.793-2.044zm4.757 4.576c1.192 0 1.966-.696 2.106-1.566h-1.21c-.104.418-.452.635-.948.635-.618 0-1.027-.383-1.053-1.018v-.06h3.245c.027-.14.035-.288.035-.418-.017-1.314-.922-2.149-2.262-2.149-1.383 0-2.297.905-2.297 2.297 0 1.383.897 2.28 2.384 2.28zm-1.079-2.81c.07-.53.47-.852 1.001-.852.557 0 .93.304 1.018.852h-2.019zm5 2.784l-.113.296c-.122.304-.226.383-.54.383h-.678v1.035h1.192c.696 0 .922-.365 1.2-1.105l1.984-5.107h-1.314l-1.061 3.184-1.088-3.184h-1.305l1.723 4.498zM36.3 23h1.305l.8-2.697.783 2.697h1.305l1.47-4.472h-1.252l-.914 3.158-.817-3.158h-1.105l-.844 3.15-.896-3.15h-1.297L36.3 23zm8.642-4.524c-.635 0-1.035.252-1.322.6V16.91h-1.227V23h1.227v-2.297c0-.765.374-1.218 1-1.218.609 0 .905.41.905 1.14V23h1.227v-2.48c0-1.513-.818-2.044-1.81-2.044zm4.775 4.576c1.192 0 1.967-.696 2.106-1.566h-1.21c-.104.418-.452.635-.948.635-.618 0-1.026-.383-1.053-1.018v-.06h3.245c.027-.14.035-.288.035-.418-.017-1.314-.922-2.149-2.262-2.149-1.383 0-2.297.905-2.297 2.297 0 1.383.897 2.28 2.384 2.28zm-1.078-2.81c.07-.53.47-.852 1-.852.557 0 .93.304 1.018.852h-2.018zm6.49-1.766c-.687 0-1.096.261-1.383.609l-.113-.557h-1.07V23h1.226v-2.288c0-.774.366-1.227 1-1.227.618 0 .906.4.906 1.157V23h1.226v-2.48c0-1.53-.826-2.044-1.792-2.044zm5.045 3.245c0 .853.426 1.279 1.28 1.279h1v-1.035h-.61c-.321 0-.443-.13-.443-.444v-1.957h1.026v-1.036h-1.026v-1.253h-1.227v1.253h-.74v1.036h.74v2.157zm5.362-3.193c-.696 0-1.044.27-1.288.67l-.113-.67H63.02V23h1.227v-2.192c0-.679.278-1.166 1.01-1.166h.486v-1.114h-.208zm4.909 3.437c-.191 0-.287-.044-.287-.279v-1.583c0-1.07-.722-1.627-1.975-1.627-1.183 0-1.984.574-2.07 1.444h1.183c.052-.33.374-.548.852-.548.513 0 .8.261.8.661v.218h-.887c-1.34 0-2.053.54-2.053 1.487 0 .853.696 1.314 1.662 1.314.696 0 1.148-.287 1.461-.783-.008.427.192.731.827.731h.626v-1.035h-.14zm-1.496-.81c-.01.61-.4 1.01-1.044 1.01-.41 0-.662-.2-.662-.514 0-.374.296-.582.81-.582h.895v.087zm5.338-2.07c-.287-.365-.731-.609-1.349-.609-1.192 0-2.07.896-2.07 2.28 0 1.418.878 2.296 2.079 2.296.644 0 1.079-.287 1.374-.67l.122.618h1.07v-6.09h-1.226v2.175zm-1.07 2.967c-.67 0-1.097-.522-1.097-1.288 0-.765.427-1.287 1.097-1.287.67 0 1.087.53 1.087 1.296 0 .757-.418 1.279-1.087 1.279zm3.77-4.002c.4 0 .713-.296.713-.688 0-.4-.313-.696-.714-.696-.4 0-.713.296-.713.696 0 .392.313.688.713.688zM76.368 23h1.235v-4.472H76.37V23zm4.648-4.524c-.688 0-1.096.261-1.384.609l-.113-.557h-1.07V23h1.227v-2.288c0-.774.365-1.227 1-1.227.618 0 .905.4.905 1.157V23h1.227v-2.48c0-1.53-.827-2.044-1.792-2.044zm5.854.67c-.296-.392-.749-.679-1.392-.679-1.192 0-2.071.888-2.071 2.254 0 1.383.879 2.262 2.08 2.253.626 0 1.07-.244 1.365-.618v.47c0 .696-.409 1.035-1.096 1.035-.566 0-.905-.243-1.018-.67h-1.235c.06 1.036.913 1.601 2.157 1.601 1.714 0 2.393-.818 2.393-1.923v-4.34h-1.08l-.103.617zm-1.114 2.845c-.67 0-1.096-.514-1.096-1.262s.426-1.27 1.096-1.27c.67 0 1.087.53 1.087 1.279 0 .74-.417 1.253-1.087 1.253zm8.068 1.061c1.487 0 2.54-.905 2.688-2.227H95.2c-.156.679-.643 1.122-1.383 1.122-.983 0-1.566-.826-1.566-1.992 0-1.174.592-1.992 1.584-1.992.722 0 1.209.443 1.365 1.122h1.323c-.157-1.322-1.175-2.227-2.619-2.227-1.844 0-2.984 1.226-2.984 3.097 0 1.87 1.096 3.097 2.906 3.097zm3.43-.052h1.304v-2.47h2.228v-1.07h-2.228v-1.428h2.715V16.91h-4.02V23zm6.95 0c1.897 0 3.158-1.27 3.158-3.054 0-1.792-1.261-3.036-3.158-3.036h-2.218V23h2.218zm-.913-5.003h.913c1.166 0 1.818.784 1.818 1.95 0 1.156-.652 1.966-1.818 1.966h-.913v-3.916zm4.558 3.515c.053.957.896 1.54 2.141 1.54 1.2 0 2.035-.565 2.035-1.453 0-1.009-.852-1.244-1.879-1.348-.644-.079-1.026-.113-1.026-.453 0-.287.313-.46.791-.46.496 0 .835.217.87.573h1.175c-.061-.913-.888-1.444-2.088-1.444-1.149-.008-1.923.575-1.923 1.462 0 .922.809 1.157 1.853 1.279.722.096 1.027.122 1.027.487 0 .313-.313.479-.827.479-.6 0-.939-.27-.983-.662h-1.166zM115.866 23h1.305l.8-2.697.783 2.697h1.305l1.47-4.472h-1.252l-.914 3.158-.818-3.158h-1.105l-.843 3.15-.897-3.15h-1.296L115.866 23zm6.71-4.95c.401 0 .714-.296.714-.688 0-.4-.313-.696-.714-.696-.4 0-.713.296-.713.696 0 .392.313.688.713.688zm-.617 4.95h1.235v-4.472h-1.235V23zm2.403-1.279c0 .853.426 1.279 1.279 1.279h1.001v-1.035h-.609c-.322 0-.444-.13-.444-.444v-1.957h1.026v-1.036h-1.026v-1.253h-1.227v1.253h-.739v1.036h.739v2.157zm5.396-3.245c-.635 0-1.035.252-1.322.6V16.91h-1.227V23h1.227v-2.297c0-.765.374-1.218 1.001-1.218.609 0 .904.41.904 1.14V23h1.227v-2.48c0-1.513-.818-2.044-1.81-2.044zm5.063 3.245c0 .853.426 1.279 1.279 1.279h1v-1.035h-.609c-.322 0-.443-.13-.443-.444v-1.957h1.026v-1.036h-1.026v-1.253h-1.227v1.253h-.74v1.036h.74v2.157zm5.396-3.245c-.635 0-1.035.252-1.322.6V16.91h-1.227V23h1.227v-2.297c0-.765.374-1.218 1-1.218.609 0 .905.41.905 1.14V23h1.227v-2.48c0-1.513-.818-2.044-1.81-2.044zm3.2-.426c.401 0 .714-.296.714-.688 0-.4-.313-.696-.714-.696-.4 0-.713.296-.713.696 0 .392.313.688.713.688zM142.8 23h1.235v-4.472H142.8V23zm1.872-1.488c.053.957.896 1.54 2.141 1.54 1.2 0 2.035-.565 2.035-1.453 0-1.009-.852-1.244-1.879-1.348-.644-.079-1.026-.113-1.026-.453 0-.287.313-.46.791-.46.496 0 .835.217.87.573h1.175c-.061-.913-.888-1.444-2.088-1.444-1.149-.008-1.923.575-1.923 1.462 0 .922.809 1.157 1.853 1.279.722.096 1.027.122 1.027.487 0 .313-.313.479-.827.479-.6 0-.939-.27-.983-.662h-1.166zM7.992 28.476c-.634 0-1.087.287-1.374.67l-.122-.618h-1.07v6.212h1.227v-2.306c.287.366.73.618 1.349.618 1.2 0 2.07-.887 2.07-2.28 0-1.409-.87-2.305-2.08-2.296zm-.269 3.576c-.67 0-1.087-.531-1.087-1.297 0-.756.417-1.278 1.087-1.278.67 0 1.105.521 1.105 1.278 0 .766-.435 1.297-1.105 1.297zm5.545-3.524c-.696 0-1.044.27-1.288.67l-.113-.67h-1.114V33h1.227v-2.192c0-.679.278-1.166 1.01-1.166h.486v-1.114h-.208zm2.796 4.524c1.426 0 2.357-.905 2.357-2.288 0-1.374-.93-2.288-2.357-2.288s-2.358.914-2.358 2.288c0 1.375.93 2.288 2.358 2.288zm0-1c-.688 0-1.105-.531-1.105-1.288s.417-1.287 1.105-1.287c.687 0 1.113.53 1.113 1.287 0 .757-.426 1.288-1.113 1.288zm3.995.948h1.522l1.61-4.472h-1.288l-1.061 3.22-1.08-3.22H18.45L20.06 33zm4.158-4.95c.4 0 .713-.296.713-.688 0-.4-.313-.696-.713-.696-.4 0-.713.296-.713.696 0 .392.313.688.713.688zM23.6 33h1.236v-4.472h-1.236V33zm5.327-3.915c-.287-.365-.73-.609-1.348-.609-1.192 0-2.071.896-2.071 2.28 0 1.417.879 2.296 2.08 2.296.643 0 1.078-.287 1.374-.67l.122.618h1.07v-6.09h-1.227v2.175zm-1.07 2.967c-.67 0-1.096-.522-1.096-1.288 0-.765.426-1.287 1.096-1.287.67 0 1.087.53 1.087 1.296 0 .757-.417 1.279-1.087 1.279zm5.362 1c1.192 0 1.966-.696 2.105-1.566h-1.21c-.103.418-.452.635-.947.635-.618 0-1.027-.383-1.053-1.018v-.06h3.245c.026-.14.035-.288.035-.418-.018-1.314-.922-2.149-2.262-2.149-1.384 0-2.297.905-2.297 2.297 0 1.383.896 2.28 2.384 2.28zm-1.079-2.81c.07-.53.47-.852 1-.852.557 0 .931.304 1.018.852H32.14zm6.438-1.714c-.695 0-1.044.27-1.287.67l-.113-.67h-1.114V33h1.227v-2.192c0-.679.278-1.166 1.01-1.166h.486v-1.114h-.209zm.169 3.802c0 .418.313.722.74.722.417 0 .739-.304.739-.722a.716.716 0 00-.74-.73c-.426 0-.74.304-.74.73zm6.352-1.583V33h.757v-2.253l2.297-3.837h-.853l-1.818 3.019-1.793-3.019h-.887l2.297 3.837zm4.906 2.305c1.296 0 2.2-.922 2.2-2.27 0-1.349-.904-2.271-2.2-2.271-1.297 0-2.201.922-2.201 2.27 0 1.349.904 2.271 2.2 2.271zm0-.635c-.879 0-1.47-.687-1.47-1.636 0-.948.591-1.635 1.47-1.635.878 0 1.47.687 1.47 1.636 0 .948-.592 1.635-1.47 1.635zm6.125-1.636c0 1.001-.487 1.619-1.297 1.619-.74 0-1.157-.487-1.157-1.41v-2.427h-.713v2.47c0 1.471.774 2.02 1.749 2.02.73 0 1.157-.314 1.418-.645l.095.592h.618v-4.437h-.713v2.219zm3.78.757c.017.975.809 1.514 1.957 1.514.983 0 1.775-.513 1.775-1.34 0-.983-.809-1.174-1.818-1.296-.644-.078-1.114-.14-1.114-.626 0-.41.418-.67 1.036-.67.609 0 1.026.34 1.078.791h.731c-.07-.922-.8-1.392-1.81-1.4-1-.009-1.74.522-1.74 1.33 0 .923.792 1.123 1.784 1.245.661.078 1.149.122 1.149.679 0 .408-.444.678-1.07.678-.74 0-1.201-.383-1.227-.905h-.731zm6.7-3.027c-.75 0-1.201.365-1.462.783V26.91h-.714V33h.713v-2.218c0-1.001.514-1.619 1.34-1.619.766 0 1.21.488 1.21 1.41V33h.713v-2.47c0-1.471-.81-2.02-1.8-2.02zm4.703 4.541c1.296 0 2.201-.922 2.201-2.27 0-1.349-.905-2.271-2.201-2.271s-2.201.922-2.201 2.27c0 1.349.905 2.271 2.2 2.271zm0-.635c-.879 0-1.47-.687-1.47-1.636 0-.948.591-1.635 1.47-1.635s1.47.687 1.47 1.636c0 .948-.591 1.635-1.47 1.635zm6.125-1.636c0 1.001-.487 1.619-1.296 1.619-.74 0-1.157-.487-1.157-1.41v-2.427h-.714v2.47c0 1.471.774 2.02 1.749 2.02.73 0 1.157-.314 1.418-.645l.096.592h.617v-4.437h-.713v2.219zM79.123 33h.713v-6.09h-.713V33zm5.188-3.758c-.27-.427-.774-.731-1.523-.731-1.226 0-2.131.913-2.131 2.27 0 1.445.905 2.271 2.132 2.271.748 0 1.226-.356 1.522-.765l.096.713h.617v-6.09h-.713v2.332zm-1.453 3.175c-.879 0-1.47-.67-1.47-1.636 0-.965.591-1.635 1.47-1.635.87 0 1.462.678 1.462 1.653 0 .948-.592 1.618-1.462 1.618zm7.407.635c1.08 0 1.801-.609 1.975-1.566h-.757c-.139.566-.574.931-1.209.931-.853 0-1.427-.661-1.427-1.627 0-.965.575-1.644 1.427-1.644.653 0 1.088.357 1.218.948h.748c-.182-.974-.87-1.583-1.957-1.583-1.288 0-2.166.922-2.166 2.28 0 1.382.852 2.261 2.148 2.261zm4.802 0c1.296 0 2.201-.922 2.201-2.27 0-1.349-.905-2.271-2.201-2.271s-2.201.922-2.201 2.27c0 1.349.905 2.271 2.2 2.271zm0-.635c-.879 0-1.47-.687-1.47-1.636 0-.948.591-1.635 1.47-1.635s1.47.687 1.47 1.636c0 .948-.591 1.635-1.47 1.635zm5.194-3.906c-.748 0-1.2.313-1.462.652l-.095-.6h-.618V33h.713v-2.218c0-1.001.505-1.619 1.34-1.619.775 0 1.201.488 1.201 1.41V33h.713v-2.47c0-1.471-.791-2.02-1.792-2.02zm2.519 3.027c.018.975.809 1.514 1.958 1.514.983 0 1.774-.513 1.774-1.34 0-.983-.809-1.174-1.818-1.296-.644-.078-1.113-.14-1.113-.626 0-.41.417-.67 1.035-.67.609 0 1.026.34 1.079.791h.73c-.069-.922-.8-1.392-1.809-1.4-1.001-.009-1.74.522-1.74 1.33 0 .923.792 1.123 1.783 1.245.662.078 1.149.122 1.149.679 0 .408-.444.678-1.07.678-.74 0-1.201-.383-1.227-.905h-.731zm4.89-3.723a.448.448 0 00.461-.461c0-.27-.2-.461-.461-.461a.448.448 0 00-.461.46c0 .27.2.462.461.462zM107.304 33h.714v-4.437h-.714V33zm5.189-3.758c-.27-.427-.775-.731-1.523-.731-1.227 0-2.131.913-2.131 2.27 0 1.445.904 2.271 2.131 2.271.748 0 1.227-.356 1.523-.765l.095.713h.618v-6.09h-.713v2.332zm-1.453 3.175c-.879 0-1.471-.67-1.471-1.636 0-.965.592-1.635 1.471-1.635.87 0 1.461.678 1.461 1.653 0 .948-.591 1.618-1.461 1.618zm5.182.635c1.027 0 1.758-.652 1.932-1.54h-.722c-.148.575-.636.905-1.262.905-.844 0-1.375-.591-1.401-1.435v-.061h3.446c.008-.105.017-.21.017-.305-.035-1.314-.853-2.105-2.105-2.105-1.253 0-2.106.922-2.106 2.27 0 1.358.87 2.271 2.201 2.271zm-1.409-2.723a1.313 1.313 0 011.322-1.192c.74 0 1.262.427 1.331 1.192h-2.653zm6.286-1.766c-.792 0-1.131.33-1.34.67l-.095-.67h-.618V33h.713v-2.262c0-.705.253-1.479 1.184-1.479h.356v-.696h-.2zM6.505 43h.783l1.114-3.297L9.472 43h.783l1.479-4.437h-.722l-1.157 3.61-1.105-3.61h-.662l-1.165 3.61-1.105-3.61H5.07L6.505 43zm7.963-4.49c-.749 0-1.201.366-1.462.784V36.91h-.713V43h.713v-2.218c0-1.001.513-1.619 1.34-1.619.765 0 1.21.488 1.21 1.41V43h.713v-2.47c0-1.471-.81-2.02-1.801-2.02zm4.703 4.542c1.027 0 1.758-.652 1.932-1.54h-.722c-.148.575-.636.905-1.262.905-.844 0-1.375-.592-1.4-1.435v-.061h3.445c.008-.105.017-.21.017-.305-.035-1.313-.853-2.105-2.105-2.105-1.253 0-2.106.922-2.106 2.27 0 1.358.87 2.271 2.201 2.271zm-1.41-2.723c.07-.722.67-1.192 1.323-1.192.74 0 1.262.426 1.331 1.192h-2.653zm4.514 1.514c0 .783.304 1.157 1.157 1.157h.774v-.653h-.705c-.382 0-.513-.139-.513-.513v-2.619h1.149v-.652h-1.149v-1.244h-.713v1.244h-.8v.652h.8v2.628zm4.724-3.332c-.748 0-1.2.365-1.461.783V36.91h-.714V43h.714v-2.218c0-1.001.513-1.619 1.34-1.619.765 0 1.209.488 1.209 1.41V43h.713v-2.47c0-1.471-.809-2.02-1.8-2.02zm4.704 4.541c1.027 0 1.758-.652 1.932-1.54h-.723c-.148.575-.635.905-1.261.905-.844 0-1.375-.592-1.4-1.435v-.061h3.444c.01-.105.018-.21.018-.305-.035-1.313-.853-2.105-2.106-2.105-1.252 0-2.105.922-2.105 2.27 0 1.358.87 2.271 2.201 2.271zm-1.41-2.723c.07-.722.67-1.192 1.323-1.192.74 0 1.262.426 1.331 1.192h-2.653zm6.287-1.766c-.792 0-1.131.33-1.34.67l-.096-.67h-.617V43h.713v-2.262c0-.705.252-1.479 1.183-1.479h.357v-.696h-.2zm4.383 4.463l-.217.54c-.166.417-.235.521-.644.521h-.635v.653h.852c.627 0 .792-.278 1.07-.992l2.045-5.185h-.757l-1.322 3.54-1.366-3.54h-.757l1.731 4.463zm4.852.026c1.296 0 2.201-.922 2.201-2.27 0-1.349-.905-2.271-2.2-2.271-1.297 0-2.202.922-2.202 2.27 0 1.349.905 2.271 2.201 2.271zm0-.635c-.879 0-1.47-.687-1.47-1.636 0-.948.591-1.635 1.47-1.635s1.47.687 1.47 1.636c0 .948-.591 1.635-1.47 1.635zm6.125-1.636c0 1.001-.487 1.619-1.296 1.619-.74 0-1.157-.487-1.157-1.41v-2.427h-.714v2.47c0 1.471.775 2.02 1.75 2.02.73 0 1.156-.314 1.417-.645l.096.592h.618v-4.437h-.714v2.218zm5.955 2.271c1.08 0 1.801-.609 1.975-1.566h-.757c-.139.566-.574.931-1.209.931-.853 0-1.427-.661-1.427-1.627 0-.965.574-1.644 1.427-1.644.652 0 1.087.357 1.218.948h.748c-.182-.974-.87-1.583-1.957-1.583-1.288 0-2.167.922-2.167 2.28 0 1.383.853 2.261 2.15 2.261zm6.681-.705c-.2 0-.287-.06-.287-.295v-1.94c0-1.036-.653-1.601-1.784-1.601-1.07 0-1.774.513-1.879 1.383h.714c.087-.452.504-.748 1.13-.748.697 0 1.105.348 1.105.922v.305H62.27c-1.165 0-1.783.495-1.783 1.383 0 .809.661 1.296 1.636 1.296.765 0 1.209-.34 1.487-.74.009.436.21.688.8.688h.392v-.653h-.226zm-1-1.157c0 .74-.514 1.253-1.401 1.253-.592 0-.966-.296-.966-.73 0-.505.357-.74.992-.74h1.374v.217zm3.95-2.68c-.748 0-1.2.314-1.462.653l-.096-.6h-.617V43h.713v-2.218c0-1.001.505-1.619 1.34-1.619.774 0 1.2.488 1.2 1.41V43h.714v-2.47c0-1.471-.792-2.02-1.792-2.02zm8.902 3.837c-.2 0-.287-.06-.287-.295v-1.94c0-1.036-.653-1.601-1.784-1.601-1.07 0-1.774.513-1.879 1.383h.714c.087-.452.504-.748 1.13-.748.697 0 1.106.348 1.106.922v.305h-1.305c-1.166 0-1.784.495-1.784 1.383 0 .809.661 1.296 1.636 1.296.765 0 1.209-.34 1.487-.74.01.436.21.688.8.688h.392v-.653h-.226zm-1-1.157c0 .74-.514 1.253-1.401 1.253-.592 0-.966-.296-.966-.73 0-.505.357-.74.992-.74h1.375v.217zm6.534-3.627v-.653h-.818c-.827 0-1.157.374-1.157 1.157v.496h-1.74v-.513c0-.34.13-.487.487-.487h.687v-.653h-.73c-.827 0-1.158.374-1.158 1.157v.496h-.8v.652h.8V43h.714v-3.785h1.74V43h.713v-3.785h1.253v-.652H80.7v-.513c0-.34.13-.487.487-.487h.775zm2.357 5.49c1.297 0 2.201-.923 2.201-2.271 0-1.349-.904-2.271-2.2-2.271-1.297 0-2.202.922-2.202 2.27 0 1.349.905 2.271 2.201 2.271zm0-.636c-.878 0-1.47-.687-1.47-1.636 0-.948.592-1.635 1.47-1.635.88 0 1.47.687 1.47 1.636 0 .948-.59 1.635-1.47 1.635zm5.073-3.854c-.792 0-1.131.33-1.34.67l-.096-.67h-.617V43h.713v-2.262c0-.705.252-1.479 1.183-1.479h.357v-.696h-.2zm4.06.679c-.269-.427-.773-.731-1.522-.731-1.226 0-2.131.913-2.131 2.27 0 1.445.905 2.271 2.131 2.271.748 0 1.227-.356 1.523-.765l.096.713h.617v-6.09h-.713v2.332zM92 42.417c-.879 0-1.47-.67-1.47-1.636 0-.965.591-1.635 1.47-1.635.87 0 1.462.678 1.462 1.653 0 .948-.592 1.618-1.462 1.618zm5.746-.574c0 .783.304 1.157 1.157 1.157h.774v-.653h-.705c-.383 0-.513-.139-.513-.513v-2.619h1.148v-.652H98.46v-1.244h-.713v1.244h-.8v.652h.8v2.628zm4.483 1.21c1.296 0 2.201-.923 2.201-2.271 0-1.349-.905-2.271-2.201-2.271s-2.201.922-2.201 2.27c0 1.349.905 2.271 2.201 2.271zm0-.636c-.879 0-1.47-.687-1.47-1.636 0-.948.591-1.635 1.47-1.635s1.47.687 1.47 1.636c0 .948-.591 1.635-1.47 1.635zm5.627-.574c0 .783.304 1.157 1.157 1.157h.774v-.653h-.704c-.383 0-.514-.139-.514-.513v-2.619h1.149v-.652h-1.149v-1.244h-.713v1.244h-.801v.652h.801v2.628zm6.405.504c-.2 0-.287-.06-.287-.295v-1.94c0-1.036-.652-1.601-1.783-1.601-1.071 0-1.775.513-1.88 1.383h.714c.087-.452.504-.748 1.131-.748.696 0 1.105.348 1.105.922v.305h-1.305c-1.166 0-1.784.495-1.784 1.383 0 .809.661 1.296 1.636 1.296.765 0 1.209-.34 1.487-.74.009.436.209.688.801.688h.391v-.653h-.226zm-1-1.157c0 .74-.514 1.253-1.401 1.253-.592 0-.966-.296-.966-.73 0-.505.357-.74.992-.74h1.375v.217zm1.775 1.81h.713v-1.166l.896-.922L118.116 43h.861l-1.853-2.601 1.731-1.836h-.879l-2.227 2.358V36.91h-.713V43zm6.233.052c1.027 0 1.757-.652 1.931-1.54h-.722c-.148.575-.635.905-1.261.905-.844 0-1.375-.592-1.401-1.435v-.061h3.445c.009-.105.018-.21.018-.305-.035-1.313-.853-2.105-2.106-2.105s-2.105.922-2.105 2.27c0 1.358.87 2.271 2.201 2.271zm-1.409-2.723a1.312 1.312 0 011.322-1.192c.739 0 1.261.426 1.331 1.192h-2.653zm6.84 1.514c0 .783.305 1.157 1.157 1.157h.775v-.653h-.705c-.383 0-.513-.139-.513-.513v-2.619h1.148v-.652h-1.148v-1.244h-.714v1.244h-.8v.652h.8v2.628zm4.725-3.332c-.748 0-1.201.365-1.462.783V36.91h-.713V43h.713v-2.218c0-1.001.513-1.619 1.34-1.619.766 0 1.209.488 1.209 1.41V43h.714v-2.47c0-1.471-.809-2.02-1.801-2.02zm4.704 4.541c1.026 0 1.757-.652 1.931-1.54h-.722c-.148.575-.635.905-1.262.905-.844 0-1.374-.592-1.4-1.435v-.061h3.445c.009-.105.017-.21.017-.305-.035-1.313-.852-2.105-2.105-2.105-1.253 0-2.106.922-2.106 2.27 0 1.358.87 2.271 2.202 2.271zm-1.41-2.723c.07-.722.67-1.192 1.323-1.192.739 0 1.261.426 1.331 1.192h-2.654zM7.662 48.511c-.748 0-1.2.365-1.461.783V46.91h-.714V53h.714v-2.218c0-1.001.513-1.619 1.34-1.619.765 0 1.209.488 1.209 1.41V53h.713v-2.47c0-1.471-.809-2.02-1.8-2.02zm3.076-.696a.448.448 0 00.461-.461c0-.27-.2-.461-.461-.461a.448.448 0 00-.461.46c0 .27.2.462.46.462zM10.373 53h.713v-4.437h-.713V53zm5.188-3.671c-.279-.496-.775-.818-1.523-.818-1.227 0-2.131.913-2.131 2.27 0 1.445.904 2.271 2.131 2.271.748 0 1.227-.313 1.523-.818v.522c0 .966-.505 1.401-1.436 1.401-.74 0-1.235-.313-1.357-.87h-.73c.112.974.904 1.505 2.035 1.505 1.522 0 2.201-.73 2.201-2.01v-4.219h-.618l-.095.766zm-1.453 3.088c-.879 0-1.47-.67-1.47-1.636 0-.965.591-1.635 1.47-1.635.87 0 1.461.678 1.461 1.653 0 .948-.591 1.618-1.461 1.618zm5.313-3.906c-.748 0-1.2.365-1.462.783V46.91h-.713V53h.713v-2.218c0-1.001.514-1.619 1.34-1.619.766 0 1.21.488 1.21 1.41V53h.713v-2.47c0-1.471-.81-2.02-1.801-2.02zm7.04.052c-.791 0-1.13.33-1.34.67l-.095-.67h-.618V53h.713v-2.262c0-.705.253-1.479 1.184-1.479h.356v-.696h-.2zm1.184-.748a.448.448 0 00.461-.461c0-.27-.2-.461-.46-.461a.448.448 0 00-.462.46c0 .27.2.462.461.462zM27.28 53h.713v-4.437h-.713V53zm1.508-1.462c.017.975.809 1.514 1.957 1.514.983 0 1.775-.513 1.775-1.34 0-.983-.81-1.174-1.818-1.296-.644-.078-1.114-.14-1.114-.626 0-.41.418-.67 1.035-.67.61 0 1.027.34 1.08.791h.73c-.07-.922-.8-1.392-1.81-1.4-1-.009-1.74.522-1.74 1.33 0 .923.792 1.123 1.784 1.245.661.078 1.148.122 1.148.679 0 .408-.443.678-1.07.678-.74 0-1.2-.383-1.227-.905h-.73zM33.312 53h.713v-1.166l.896-.922L36.391 53h.862L35.4 50.399l1.731-1.836h-.879l-2.227 2.358V46.91h-.713V53zm8.765.052c1.296 0 2.2-.922 2.2-2.27 0-1.349-.904-2.271-2.2-2.271-1.296 0-2.201.922-2.201 2.27 0 1.349.905 2.271 2.2 2.271zm0-.635c-.879 0-1.47-.687-1.47-1.636 0-.948.591-1.635 1.47-1.635s1.47.687 1.47 1.636c0 .948-.591 1.635-1.47 1.635zm2.498-3.202h.8V53h.714v-3.785h1.253v-.652h-1.253v-.513c0-.34.13-.487.487-.487h.766v-.653h-.81c-.826 0-1.156.374-1.156 1.157v.496h-.8v.652zM50.135 53h.713v-6.09h-.714V53zm3.734.052c1.297 0 2.202-.922 2.202-2.27 0-1.349-.905-2.271-2.202-2.271-1.296 0-2.2.922-2.2 2.27 0 1.349.904 2.271 2.2 2.271zm0-.635c-.878 0-1.47-.687-1.47-1.636 0-.948.592-1.635 1.47-1.635.88 0 1.47.687 1.47 1.636 0 .948-.59 1.635-1.47 1.635zm2.82-.879c.017.975.809 1.514 1.957 1.514.983 0 1.775-.513 1.775-1.34 0-.983-.809-1.174-1.818-1.296-.644-.078-1.114-.14-1.114-.626 0-.41.418-.67 1.036-.67.609 0 1.026.34 1.078.791h.731c-.07-.922-.8-1.392-1.81-1.4-1-.009-1.74.522-1.74 1.33 0 .923.792 1.123 1.784 1.245.661.078 1.149.122 1.149.679 0 .408-.444.678-1.07.678-.74 0-1.201-.383-1.227-.905h-.731zm4.89-3.723a.448.448 0 00.46-.461c0-.27-.2-.461-.46-.461a.448.448 0 00-.462.46c0 .27.2.462.462.462zM61.212 53h.713v-4.437h-.713V53zm3.866-4.49c-.748 0-1.2.314-1.462.653l-.095-.6h-.618V53h.713v-2.218c0-1.001.505-1.619 1.34-1.619.774 0 1.2.488 1.2 1.41V53h.714v-2.47c0-1.471-.792-2.02-1.792-2.02zm6.199.819c-.278-.496-.774-.818-1.523-.818-1.226 0-2.131.913-2.131 2.27 0 1.445.905 2.271 2.132 2.271.748 0 1.226-.313 1.522-.818v.522c0 .966-.505 1.401-1.436 1.401-.739 0-1.235-.313-1.357-.87h-.73c.113.974.904 1.505 2.035 1.505 1.523 0 2.201-.73 2.201-2.01v-4.219h-.617l-.096.766zm-1.453 3.088c-.879 0-1.47-.67-1.47-1.636 0-.965.591-1.635 1.47-1.635.87 0 1.462.678 1.462 1.653 0 .948-.592 1.618-1.462 1.618zm6.703.61l-.218.538c-.165.418-.235.523-.644.523h-.635v.652h.853c.626 0 .792-.278 1.07-.992l2.045-5.185h-.757l-1.323 3.54-1.366-3.54h-.757l1.732 4.463zm4.852.025c1.296 0 2.2-.922 2.2-2.27 0-1.349-.904-2.271-2.2-2.271-1.297 0-2.201.922-2.201 2.27 0 1.349.904 2.271 2.2 2.271zm0-.635c-.879 0-1.47-.687-1.47-1.636 0-.948.591-1.635 1.47-1.635.878 0 1.47.687 1.47 1.636 0 .948-.592 1.635-1.47 1.635zm6.125-1.636c0 1.001-.487 1.619-1.296 1.619-.74 0-1.158-.487-1.158-1.41v-2.427h-.713v2.47c0 1.471.774 2.02 1.749 2.02.73 0 1.157-.314 1.418-.645L87.6 53h.617v-4.437h-.713v2.218zm3.739-2.218c-.792 0-1.131.33-1.34.67l-.096-.67h-.617V53h.713v-2.262c0-.705.252-1.479 1.183-1.479h.357v-.696h-.2zm8.046-.052c-.792 0-1.27.365-1.54.844-.253-.566-.783-.844-1.401-.844-.687 0-1.061.34-1.296.661l-.096-.609h-.618V53h.714v-2.34c0-.888.443-1.497 1.174-1.497.679 0 1.07.453 1.07 1.323V53h.714v-2.375c0-.905.452-1.462 1.192-1.462.67 0 1.052.453 1.052 1.323V53h.714v-2.558c0-1.4-.757-1.931-1.68-1.931zm4.587 4.541c1.297 0 2.202-.922 2.202-2.27 0-1.349-.905-2.271-2.202-2.271-1.296 0-2.201.922-2.201 2.27 0 1.349.905 2.271 2.201 2.271zm0-.635c-.878 0-1.47-.687-1.47-1.636 0-.948.592-1.635 1.47-1.635.879 0 1.471.687 1.471 1.636 0 .948-.592 1.635-1.471 1.635zm5.195-3.906c-.749 0-1.201.313-1.462.652l-.096-.6h-.617V53h.713v-2.218c0-1.001.505-1.619 1.34-1.619.774 0 1.2.488 1.2 1.41V53h.714v-2.47c0-1.471-.792-2.02-1.792-2.02zm4.695 4.541c1.026 0 1.757-.652 1.931-1.54h-.722c-.148.575-.635.905-1.261.905-.844 0-1.375-.592-1.401-1.435v-.061h3.445c.009-.105.018-.21.018-.305-.035-1.313-.853-2.105-2.106-2.105s-2.105.922-2.105 2.27c0 1.358.87 2.271 2.201 2.271zm-1.41-2.723c.07-.722.67-1.192 1.323-1.192.739 0 1.261.426 1.331 1.192h-2.654zm5.326 2.697l-.218.54c-.165.417-.235.521-.643.521h-.636v.653h.853c.626 0 .792-.278 1.07-.992l2.045-5.185h-.757l-1.323 3.54-1.366-3.54h-.756l1.731 4.463zm2.499-.461c0 .296.209.487.496.487.287 0 .496-.191.496-.487s-.209-.487-.496-.487c-.287 0-.496.191-.496.487z" fill="#000"/></svg>