<svg width="101" height="73" viewBox="0 0 101 73" fill="none" xmlns="http://www.w3.org/2000/svg"><path d="M1.408 16h2.53V.6h-2.53V16zM12.456 4.604c-1.826 0-2.904.726-3.608 1.606l-.264-1.474H6.516V16h2.376v-5.676c0-2.288 1.122-3.674 3.014-3.674 1.782 0 2.684 1.144 2.684 3.278V16h2.398V9.73c0-3.762-2.046-5.126-4.532-5.126zm7.506 8.338c0 2.046.924 3.058 3.08 3.058h2.2v-2.09H23.57c-.902 0-1.21-.33-1.21-1.21V6.826h2.75v-2.09h-2.75V1.59h-2.398v3.146h-1.958v2.09h1.958v6.116zm11.902 3.19c2.794 0 4.686-1.694 5.082-3.916H34.57c-.33 1.254-1.386 1.98-2.838 1.98-1.87 0-3.08-1.254-3.146-3.168v-.154h8.492c.044-.308.066-.616.066-.902-.066-3.3-2.244-5.368-5.5-5.368-3.322 0-5.544 2.31-5.544 5.786 0 3.454 2.222 5.742 5.764 5.742zm-3.19-6.996c.176-1.606 1.474-2.618 2.992-2.618 1.65 0 2.816.946 3.014 2.618h-6.006zm16.088-4.4c-1.848 0-2.75.748-3.322 1.694l-.264-1.694h-2.112V16h2.376v-5.654c0-1.738.682-3.388 2.794-3.388h1.056V4.736h-.528zm6.803 11.396c2.794 0 4.686-1.694 5.082-3.916H54.27c-.33 1.254-1.386 1.98-2.838 1.98-1.87 0-3.08-1.254-3.146-3.168v-.154h8.492c.044-.308.066-.616.066-.902-.066-3.3-2.244-5.368-5.5-5.368-3.322 0-5.544 2.31-5.544 5.786 0 3.454 2.222 5.742 5.764 5.742zm-3.19-6.996c.176-1.606 1.474-2.618 2.992-2.618 1.65 0 2.816.946 3.014 2.618h-6.006zm9.842 3.146c.066 2.442 2.134 3.85 5.148 3.85 2.728 0 4.774-1.364 4.774-3.52 0-2.508-2.09-3.036-4.664-3.344-1.628-.176-2.706-.308-2.706-1.364 0-.902.924-1.474 2.332-1.474s2.376.726 2.508 1.76h2.332c-.154-2.31-2.112-3.586-4.884-3.586-2.706-.022-4.62 1.364-4.62 3.498 0 2.332 2.024 2.882 4.598 3.19 1.738.22 2.772.308 2.772 1.518 0 .902-.968 1.474-2.442 1.474-1.716 0-2.728-.836-2.816-2.002h-2.332zm12.578.66c0 2.046.924 3.058 3.08 3.058h2.2v-2.09h-1.672c-.903 0-1.21-.33-1.21-1.21V6.826h2.75v-2.09h-2.75V1.59h-2.398v3.146h-1.959v2.09h1.959v6.116zm11.9 3.19c2.795 0 4.687-1.694 5.083-3.916h-2.376c-.33 1.254-1.386 1.98-2.838 1.98-1.87 0-3.08-1.254-3.146-3.168v-.154h8.492c.044-.308.066-.616.066-.902-.066-3.3-2.244-5.368-5.5-5.368-3.322 0-5.544 2.31-5.544 5.786 0 3.454 2.222 5.742 5.764 5.742zm-3.19-6.996c.177-1.606 1.475-2.618 2.993-2.618 1.65 0 2.816.946 3.014 2.618h-6.006zm18.95-2.838c-.727-.99-1.936-1.694-3.653-1.694-3.058 0-5.324 2.288-5.324 5.764 0 3.608 2.267 5.764 5.325 5.764 1.782 0 2.948-.836 3.674-1.826L98.761 16h2.068V.6h-2.376v5.698zm-3.257 7.832c-1.98 0-3.277-1.54-3.277-3.762 0-2.2 1.297-3.74 3.277-3.74 1.98 0 3.279 1.54 3.279 3.784 0 2.178-1.299 3.718-3.279 3.718zM2.376 29.152c.814 0 1.452-.594 1.452-1.43s-.638-1.43-1.452-1.43-1.452.594-1.452 1.43.638 1.43 1.452 1.43zM1.166 42h2.376V30.736H1.166V42zm10.645-11.396c-1.826 0-2.904.726-3.608 1.606l-.264-1.474H5.871V42h2.376v-5.676c0-2.288 1.122-3.674 3.014-3.674 1.782 0 2.684 1.144 2.684 3.278V42h2.398v-6.27c0-3.762-2.046-5.126-4.532-5.126zm11.838 7.678c.066 2.442 2.134 3.85 5.148 3.85 2.728 0 4.774-1.364 4.774-3.52 0-2.508-2.09-3.036-4.664-3.344-1.628-.176-2.706-.308-2.706-1.364 0-.902.924-1.474 2.332-1.474s2.376.726 2.508 1.76h2.332c-.154-2.31-2.112-3.586-4.884-3.586-2.706-.022-4.62 1.364-4.62 3.498 0 2.332 2.024 2.882 4.598 3.19 1.738.22 2.772.308 2.772 1.518 0 .902-.968 1.474-2.442 1.474-1.716 0-2.728-.836-2.816-2.002h-2.332zm17.791-7.678c-1.76 0-2.926.814-3.674 1.804l-.286-1.672h-2.068V46.4h2.376v-5.984c.704 1.012 1.914 1.716 3.652 1.716 3.08 0 5.324-2.288 5.324-5.764 0-3.608-2.244-5.764-5.324-5.764zm-.396 9.526c-1.98 0-3.278-1.562-3.278-3.806 0-2.178 1.298-3.696 3.278-3.696s3.3 1.518 3.3 3.74c0 2.2-1.32 3.762-3.3 3.762zm13.322-9.394c-1.848 0-2.75.748-3.322 1.694l-.264-1.694h-2.112V42h2.376v-5.654c0-1.738.682-3.388 2.794-3.388h1.056v-2.222h-.528zm6.802 11.396c2.794 0 4.686-1.694 5.082-3.916h-2.376c-.33 1.254-1.386 1.98-2.838 1.98-1.87 0-3.08-1.254-3.146-3.168v-.154h8.492c.044-.308.066-.616.066-.902-.066-3.3-2.244-5.368-5.5-5.368-3.322 0-5.544 2.31-5.544 5.786 0 3.454 2.222 5.742 5.764 5.742zm-3.19-6.996c.176-1.606 1.474-2.618 2.992-2.618 1.65 0 2.816.946 3.014 2.618h-6.006zm20.687 4.796c-.484 0-.726-.154-.726-.726v-4.51c0-2.662-1.716-4.092-4.708-4.092-2.838 0-4.73 1.364-4.972 3.564h2.332c.176-.99 1.122-1.65 2.53-1.65 1.562 0 2.464.77 2.464 2.024v.682h-2.838c-3.146 0-4.818 1.298-4.818 3.608 0 2.09 1.716 3.3 4.18 3.3 1.826 0 2.97-.792 3.718-1.936 0 1.122.528 1.804 2.068 1.804h1.254v-2.068h-.484zm-3.08-2.552c-.022 1.738-1.166 2.904-3.146 2.904-1.298 0-2.09-.66-2.09-1.606 0-1.144.814-1.694 2.288-1.694h2.948v.396zm13.33-5.082c-.726-.99-1.936-1.694-3.652-1.694-3.058 0-5.324 2.288-5.324 5.764 0 3.608 2.266 5.764 5.324 5.764 1.782 0 2.948-.836 3.674-1.826L89.223 42h2.068V26.6h-2.376v5.698zM85.66 40.13c-1.98 0-3.278-1.54-3.278-3.762 0-2.2 1.298-3.74 3.278-3.74s3.278 1.54 3.278 3.784c0 2.178-1.298 3.718-3.278 3.718zM7.194 56.604c-1.738 0-2.904.792-3.652 1.804V52.6H1.166V68h2.068l.286-1.628c.704 1.012 1.914 1.76 3.674 1.76 3.08 0 5.324-2.31 5.324-5.764 0-3.63-2.244-5.764-5.324-5.764zm-.396 9.526c-1.98 0-3.278-1.562-3.278-3.784 0-2.178 1.298-3.718 3.278-3.718s3.3 1.54 3.3 3.74c0 2.222-1.32 3.762-3.3 3.762zm12.97 2.002c2.794 0 4.686-1.694 5.082-3.916h-2.376c-.33 1.254-1.386 1.98-2.838 1.98-1.87 0-3.08-1.254-3.146-3.168v-.154h8.492c.044-.308.066-.616.066-.902-.066-3.3-2.244-5.368-5.5-5.368-3.322 0-5.544 2.31-5.544 5.786 0 3.454 2.222 5.742 5.764 5.742zm-3.19-6.996c.176-1.606 1.474-2.618 2.992-2.618 1.65 0 2.816.946 3.014 2.618h-6.006zM37.97 65.91c-.836 0-1.166-.33-1.166-1.21v-5.874h2.728v-2.09h-2.728V53.59h-2.376v3.146h-4.334V53.59h-2.398v3.146h-1.958v2.09h1.958v6.116c0 2.046.924 3.058 3.08 3.058h1.958v-2.09H31.26c-.858 0-1.166-.33-1.166-1.21v-5.874h4.334v6.116c0 2.046.902 3.058 3.058 3.058h2.288v-2.09H37.97zm4.538-10.758c.814 0 1.452-.594 1.452-1.43s-.638-1.43-1.452-1.43-1.452.594-1.452 1.43.638 1.43 1.452 1.43zM41.299 68h2.376V56.736h-2.376V68zm10.645-11.396c-1.826 0-2.904.726-3.608 1.606l-.264-1.474h-2.068V68h2.376v-5.676c0-2.288 1.122-3.674 3.014-3.674 1.782 0 2.684 1.144 2.684 3.278V68h2.398v-6.27c0-3.762-2.046-5.126-4.532-5.126zm15.295 1.892c-.726-1.122-1.936-1.892-3.696-1.892-3.058 0-5.324 2.266-5.324 5.72 0 3.586 2.266 5.72 5.324 5.72 1.76 0 2.926-.726 3.674-1.848v1.254c0 2.156-1.166 3.146-3.234 3.146-1.672 0-2.772-.726-3.058-1.98h-2.42c.22 2.53 2.31 3.916 5.302 3.916 4.048 0 5.764-1.936 5.764-4.994V56.736h-2.068l-.264 1.76zm-3.3 7.546c-1.98 0-3.278-1.518-3.278-3.718 0-2.178 1.298-3.718 3.278-3.718s3.278 1.54 3.278 3.762c0 2.156-1.298 3.674-3.278 3.674zm9.846-8.404c0-1.826 1.1-3.058 2.794-3.058 1.474 0 2.464.88 2.464 2.134 0 1.056-.572 1.76-1.562 2.42-1.32.858-2.354 1.584-2.354 3.366v.704h2.244v-.44c0-1.1.748-1.672 1.936-2.486 1.144-.814 2.2-1.782 2.2-3.806 0-2.31-1.892-4.004-4.95-4.004-3.278 0-5.192 2.31-5.192 5.17h2.42zm1.012 9.02c0 .88.66 1.474 1.518 1.474s1.496-.594 1.496-1.474-.638-1.474-1.496-1.474-1.518.594-1.518 1.474z" fill="#000"/></svg>