<svg width="87" height="21" viewBox="0 0 87 21" fill="none" xmlns="http://www.w3.org/2000/svg"><rect width="87" height="21" rx="10.5" fill="#000"/><path d="M16.218 10.196c0-2.24-1.49-3.87-3.631-3.87s-3.63 1.63-3.63 3.87c0 2.239 1.489 3.87 3.63 3.87s3.63-1.631 3.63-3.87zm-6.294 0c0-1.75 1.076-3 2.663-3 1.587 0 2.663 1.25 2.663 3s-1.076 3-2.663 3c-1.587 0-2.663-1.25-2.663-3zM20.076 8.39c-.935 0-1.533.446-1.902.957l-.12-.892h-.772v7.718h.892v-3.022c.337.533.967.913 1.902.913 1.532 0 2.663-1.141 2.663-2.837 0-1.804-1.13-2.837-2.663-2.837zm-.087 4.88c-1.087 0-1.826-.847-1.826-2.065 0-1.184.739-2.021 1.826-2.021 1.098 0 1.837.837 1.837 2.043 0 1.207-.74 2.044-1.837 2.044zm6.323.794c1.282 0 2.195-.815 2.413-1.924h-.902c-.185.718-.794 1.13-1.576 1.13-1.055 0-1.718-.738-1.75-1.793v-.076H28.8c.01-.13.022-.26.022-.38-.044-1.642-1.066-2.63-2.63-2.63-1.566 0-2.631 1.151-2.631 2.836 0 1.696 1.087 2.837 2.75 2.837zm-1.761-3.402c.087-.902.837-1.49 1.652-1.49.924 0 1.576.533 1.663 1.49h-3.315zm8.006-2.272c-.935 0-1.5.392-1.826.815l-.12-.75h-.771V14h.891v-2.772c0-1.25.63-2.022 1.674-2.022.967 0 1.5.61 1.5 1.761V14h.891v-3.087c0-1.837-.989-2.522-2.239-2.522zm11.123 4.794c-.25 0-.359-.076-.359-.37v-2.424c0-1.293-.815-2-2.228-2-1.337 0-2.218.642-2.348 1.729h.891c.109-.566.63-.935 1.413-.935.87 0 1.38.435 1.38 1.152v.38H40.8c-1.456 0-2.228.62-2.228 1.729 0 1.01.826 1.62 2.043 1.62.957 0 1.511-.425 1.86-.925.01.544.26.859 1 .859h.488v-.815h-.282zm-1.25-1.446c0 .924-.642 1.565-1.75 1.565-.74 0-1.207-.37-1.207-.913 0-.63.446-.924 1.24-.924h1.717v.272zm4.643 2.326c1.348 0 2.25-.76 2.467-1.956h-.945c-.174.706-.718 1.163-1.511 1.163-1.065 0-1.783-.826-1.783-2.033 0-1.206.718-2.054 1.783-2.054.815 0 1.359.445 1.522 1.184h.934c-.228-1.217-1.087-1.978-2.445-1.978-1.609 0-2.707 1.152-2.707 2.848 0 1.728 1.065 2.826 2.685 2.826zm5.934 0c1.348 0 2.25-.76 2.467-1.956h-.945c-.174.706-.718 1.163-1.511 1.163-1.066 0-1.783-.826-1.783-2.033 0-1.206.717-2.054 1.783-2.054.815 0 1.358.445 1.521 1.184h.935c-.228-1.217-1.087-1.978-2.445-1.978-1.61 0-2.707 1.152-2.707 2.848 0 1.728 1.065 2.826 2.685 2.826zm5.999 0c1.62 0 2.75-1.152 2.75-2.837 0-1.685-1.13-2.837-2.75-2.837s-2.75 1.152-2.75 2.837c0 1.685 1.13 2.837 2.75 2.837zm0-.793c-1.098 0-1.837-.859-1.837-2.044s.739-2.043 1.837-2.043c1.098 0 1.837.858 1.837 2.043s-.74 2.044-1.837 2.044zm7.652-2.044c0 1.25-.608 2.022-1.62 2.022-.923 0-1.445-.609-1.445-1.76V8.455h-.891v3.087c0 1.837.967 2.522 2.185 2.522.913 0 1.445-.391 1.771-.804l.12.739h.772V8.456h-.892v2.772zm4.824-2.837c-.935 0-1.5.392-1.826.815l-.12-.75h-.771V14h.891v-2.772c0-1.25.63-2.022 1.674-2.022.967 0 1.5.61 1.5 1.761V14h.891v-3.087c0-1.837-.989-2.522-2.239-2.522zm3.789 4.163c0 .979.38 1.446 1.445 1.446h.968v-.815h-.88c-.479 0-.642-.174-.642-.642V9.273h1.435v-.816h-1.435V6.902h-.891v1.554h-1v.816h1v3.282z" fill="#fff"/></svg>