<svg width="253" height="46" viewBox="0 0 253 46" fill="none" xmlns="http://www.w3.org/2000/svg"><path d="M1.408 15.5H3.85V4.17L8.47 15.5h2.134l4.62-11.33V15.5h2.442V.1h-3.212l-4.84 12.122L4.686.1H1.408v15.4zm29.132-2.068c-.484 0-.726-.154-.726-.726v-4.51c0-2.662-1.716-4.092-4.708-4.092-2.838 0-4.73 1.364-4.972 3.564h2.332c.176-.99 1.122-1.65 2.53-1.65 1.562 0 2.464.77 2.464 2.024v.682h-2.838c-3.146 0-4.818 1.298-4.818 3.608 0 2.09 1.716 3.3 4.18 3.3 1.826 0 2.97-.792 3.718-1.936 0 1.122.528 1.804 2.068 1.804h1.254v-2.068h-.484zm-3.08-2.552c-.022 1.738-1.166 2.904-3.146 2.904-1.298 0-2.09-.66-2.09-1.606 0-1.144.814-1.694 2.288-1.694h2.948v.396zm4.374.902c.066 2.442 2.134 3.85 5.148 3.85 2.728 0 4.774-1.364 4.774-3.52 0-2.508-2.09-3.036-4.664-3.344-1.628-.176-2.706-.308-2.706-1.364 0-.902.924-1.474 2.332-1.474s2.376.726 2.508 1.76h2.332c-.154-2.31-2.112-3.586-4.884-3.586-2.706-.022-4.62 1.364-4.62 3.498 0 2.332 2.024 2.882 4.598 3.19 1.738.22 2.772.308 2.772 1.518 0 .902-.968 1.474-2.442 1.474-1.716 0-2.728-.836-2.816-2.002h-2.332zm12.578.66c0 2.046.924 3.058 3.08 3.058h2.2v-2.09H48.02c-.902 0-1.21-.33-1.21-1.21V6.326h2.75v-2.09h-2.75V1.09h-2.398v3.146h-1.958v2.09h1.958v6.116zm11.9 3.19c2.795 0 4.687-1.694 5.083-3.916h-2.376c-.33 1.254-1.386 1.98-2.838 1.98-1.87 0-3.08-1.254-3.146-3.168v-.154h8.492c.044-.308.066-.616.066-.902-.066-3.3-2.244-5.368-5.5-5.368-3.322 0-5.544 2.31-5.544 5.786 0 3.454 2.222 5.742 5.764 5.742zm-3.19-6.996c.177-1.606 1.475-2.618 2.993-2.618 1.65 0 2.816.946 3.014 2.618h-6.006zm16.09-4.4c-1.848 0-2.75.748-3.322 1.694l-.264-1.694h-2.112V15.5h2.376V9.846c0-1.738.682-3.388 2.794-3.388h1.056V4.236h-.528zm8.436 8.206c0 2.046.924 3.058 3.08 3.058h2.2v-2.09h-1.672c-.902 0-1.21-.33-1.21-1.21V6.326h2.75v-2.09h-2.75V1.09h-2.398v3.146H75.69v2.09h1.958v6.116zm12.71-8.338c-1.76 0-2.839.792-3.543 1.76V.1H84.44v15.4h2.376V9.802c0-2.266 1.144-3.652 3.014-3.652 1.76 0 2.706 1.144 2.706 3.278V15.5h2.376V9.23c0-3.762-2.046-5.126-4.554-5.126zm11.974 11.528c2.794 0 4.686-1.694 5.082-3.916h-2.376c-.33 1.254-1.386 1.98-2.838 1.98-1.87 0-3.08-1.254-3.146-3.168v-.154h8.492c.044-.308.066-.616.066-.902-.066-3.3-2.244-5.368-5.5-5.368-3.322 0-5.544 2.31-5.544 5.786 0 3.454 2.222 5.742 5.764 5.742zm-3.19-6.996c.176-1.606 1.474-2.618 2.992-2.618 1.65 0 2.816.946 3.014 2.618h-6.006zm28.978-4.532c-1.848 0-3.124.814-3.85 2.046-.682-1.452-2.002-2.046-3.476-2.046-1.694.022-2.662.77-3.3 1.606l-.264-1.474h-2.068V15.5h2.376V9.472c0-2.002 1.012-3.322 2.64-3.322 1.562 0 2.376 1.034 2.376 3.014V15.5h2.398V9.406c0-2.024 1.034-3.256 2.662-3.256 1.54 0 2.354 1.034 2.354 3.014V15.5h2.376V9.01c0-3.564-1.892-4.906-4.224-4.906zm16.674 9.328c-.484 0-.726-.154-.726-.726v-4.51c0-2.662-1.716-4.092-4.708-4.092-2.838 0-4.73 1.364-4.972 3.564h2.332c.176-.99 1.122-1.65 2.53-1.65 1.562 0 2.464.77 2.464 2.024v.682h-2.838c-3.146 0-4.818 1.298-4.818 3.608 0 2.09 1.716 3.3 4.18 3.3 1.826 0 2.97-.792 3.718-1.936 0 1.122.528 1.804 2.068 1.804h1.254v-2.068h-.484zm-3.08-2.552c-.022 1.738-1.166 2.904-3.146 2.904-1.298 0-2.09-.66-2.09-1.606 0-1.144.814-1.694 2.288-1.694h2.948v.396zm10.556-6.644c-1.848 0-2.75.748-3.322 1.694l-.264-1.694h-2.112V15.5h2.376V9.846c0-1.738.682-3.388 2.794-3.388h1.056V4.236h-.528zm1.994 11.264h2.376v-2.86l2.024-2.112 3.322 4.972h2.816l-4.51-6.71 4.246-4.554h-2.794l-5.104 5.456V.1h-2.376v15.4zm16.324.132c2.794 0 4.686-1.694 5.082-3.916h-2.376c-.33 1.254-1.386 1.98-2.838 1.98-1.87 0-3.08-1.254-3.146-3.168v-.154h8.492c.044-.308.066-.616.066-.902-.066-3.3-2.244-5.368-5.5-5.368-3.322 0-5.544 2.31-5.544 5.786 0 3.454 2.222 5.742 5.764 5.742zm-3.19-6.996c.176-1.606 1.474-2.618 2.992-2.618 1.65 0 2.816.946 3.014 2.618h-6.006zm11.119 3.806c0 2.046.924 3.058 3.08 3.058h2.2v-2.09h-1.672c-.902 0-1.21-.33-1.21-1.21V6.326h2.75v-2.09h-2.75V1.09h-2.398v3.146h-1.958v2.09h1.958v6.116zm11.276-6.116h1.958V15.5h2.398V6.326h3.014v-2.09h-3.058V3.29c0-.77.33-1.1 1.1-1.1h1.958V.1h-2.266c-2.178 0-3.146 1.056-3.146 3.08v1.056h-1.958v2.09zm13.451 9.306c3.432 0 5.742-2.31 5.742-5.764 0-3.432-2.31-5.764-5.742-5.764s-5.742 2.332-5.742 5.764c0 3.454 2.31 5.764 5.742 5.764zm0-2.024c-2.002 0-3.3-1.562-3.3-3.74s1.298-3.74 3.3-3.74 3.322 1.562 3.322 3.74-1.32 3.74-3.322 3.74zm13.35-9.372c-1.848 0-2.75.748-3.322 1.694l-.264-1.694h-2.112V15.5h2.376V9.846c0-1.738.682-3.388 2.794-3.388h1.056V4.236h-.528zm6.627 11.396c2.882 0 4.796-1.606 5.236-4.158h-2.508c-.286 1.298-1.254 2.134-2.706 2.134-1.914 0-3.168-1.518-3.168-3.718 0-2.222 1.254-3.762 3.168-3.762 1.474 0 2.42.814 2.728 2.134h2.486c-.462-2.552-2.266-4.158-5.17-4.158-3.41 0-5.654 2.31-5.654 5.786 0 3.52 2.178 5.742 5.588 5.742zm12.4 0c2.794 0 4.686-1.694 5.082-3.916h-2.376c-.33 1.254-1.386 1.98-2.838 1.98-1.87 0-3.08-1.254-3.146-3.168v-.154h8.492c.044-.308.066-.616.066-.902-.066-3.3-2.244-5.368-5.5-5.368-3.322 0-5.544 2.31-5.544 5.786 0 3.454 2.222 5.742 5.764 5.742zm-3.19-6.996c.176-1.606 1.474-2.618 2.992-2.618 1.65 0 2.816.946 3.014 2.618h-6.006zm9.843 3.146c.066 2.442 2.134 3.85 5.148 3.85 2.728 0 4.774-1.364 4.774-3.52 0-2.508-2.09-3.036-4.664-3.344-1.628-.176-2.706-.308-2.706-1.364 0-.902.924-1.474 2.332-1.474s2.376.726 2.508 1.76h2.332c-.154-2.31-2.112-3.586-4.884-3.586-2.706-.022-4.62 1.364-4.62 3.498 0 2.332 2.024 2.882 4.598 3.19 1.738.22 2.772.308 2.772 1.518 0 .902-.968 1.474-2.442 1.474-1.716 0-2.728-.836-2.816-2.002h-2.332zM3.762 41.5h2.574L8.8 33.844l2.376 7.656h2.552l3.74-11.264h-2.42l-2.662 8.624-2.464-8.624H7.744L5.17 38.86l-2.574-8.624H.088L3.762 41.5zm16.167-12.848c.814 0 1.452-.594 1.452-1.43s-.638-1.43-1.452-1.43-1.452.594-1.452 1.43.638 1.43 1.452 1.43zM18.719 41.5h2.376V30.236h-2.376V41.5zm5.519-3.058c0 2.046.924 3.058 3.08 3.058h2.2v-2.09h-1.672c-.902 0-1.21-.33-1.21-1.21v-5.874h2.75v-2.09h-2.75V27.09h-2.398v3.146H22.28v2.09h1.958v6.116zm12.71-8.338c-1.76 0-2.839.792-3.543 1.76V26.1H31.03v15.4h2.376v-5.698c0-2.266 1.144-3.652 3.014-3.652 1.76 0 2.706 1.144 2.706 3.278V41.5h2.376v-6.27c0-3.762-2.046-5.126-4.554-5.126zM56.22 41.632c3.586 0 6.204-2.112 6.688-5.368h-2.618c-.484 1.958-1.958 3.146-4.092 3.146-2.904 0-4.664-2.332-4.664-5.61 0-3.3 1.804-5.61 4.73-5.61 2.09 0 3.542 1.21 4.048 3.146h2.618c-.506-3.256-3.036-5.368-6.556-5.368-4.554 0-7.436 3.146-7.436 7.832 0 4.73 2.794 7.832 7.282 7.832zm9.749-12.98c.814 0 1.452-.594 1.452-1.43s-.638-1.43-1.452-1.43-1.452.594-1.452 1.43.638 1.43 1.452 1.43zM64.76 41.5h2.376V30.236H64.76V41.5zm5.519-3.058c0 2.046.924 3.058 3.08 3.058h2.2v-2.09h-1.672c-.902 0-1.21-.33-1.21-1.21v-5.874h2.75v-2.09h-2.75V27.09h-2.398v3.146H68.32v2.09h1.958v6.116zm10.047 3.124l-.44 1.1c-.352.924-.572 1.144-1.496 1.144h-1.672v2.09h2.552c1.65 0 2.134-.814 2.838-2.64l5.104-13.024h-2.53l-3.058 8.558-3.146-8.558h-2.53l4.378 11.33zm13.959-.066h2.53V26.1h-2.53v15.4zm11.048-11.396c-1.826 0-2.904.726-3.608 1.606l-.264-1.474h-2.068V41.5h2.376v-5.676c0-2.288 1.122-3.674 3.014-3.674 1.782 0 2.684 1.144 2.684 3.278V41.5h2.398v-6.27c0-3.762-2.046-5.126-4.532-5.126zm15.164 1.694c-.726-.99-1.936-1.694-3.652-1.694-3.058 0-5.324 2.288-5.324 5.764 0 3.608 2.266 5.764 5.324 5.764 1.782 0 2.948-.836 3.674-1.826l.286 1.694h2.068V26.1h-2.376v5.698zm-3.256 7.832c-1.98 0-3.278-1.54-3.278-3.762 0-2.2 1.298-3.74 3.278-3.74s3.278 1.54 3.278 3.784c0 2.178-1.298 3.718-3.278 3.718zm13.3 2.002c2.794 0 4.686-1.694 5.082-3.916h-2.376c-.33 1.254-1.386 1.98-2.838 1.98-1.87 0-3.08-1.254-3.146-3.168v-.154h8.492c.044-.308.066-.616.066-.902-.066-3.3-2.244-5.368-5.5-5.368-3.322 0-5.544 2.31-5.544 5.786 0 3.454 2.222 5.742 5.764 5.742zm-3.19-6.996c.176-1.606 1.474-2.618 2.992-2.618 1.65 0 2.816.946 3.014 2.618h-6.006zm8.71 6.864h2.618l2.97-4.092 2.948 4.092h2.772l-4.246-5.764 4.004-5.5h-2.618l-2.75 3.806-2.684-3.806h-2.772l3.982 5.5-4.224 5.764z" fill="#000"/></svg>