<svg width="97" height="32" viewBox="0 0 97 32" fill="none" xmlns="http://www.w3.org/2000/svg"><rect y=".763" width="97" height="31" rx="15.5" fill="#000"/><path d="M10.06 18.553c.07 1.934 1.472 3.294 3.869 3.294 2.06 0 3.49-1.192 3.49-2.887 0-1.907-1.64-2.44-3.238-2.705-1.471-.253-2.663-.491-2.663-1.668 0-1.051.855-1.612 2.13-1.612 1.332 0 2.243.743 2.383 1.878h1.262c-.112-1.766-1.458-2.985-3.644-2.985-1.99 0-3.35 1.12-3.35 2.789 0 1.906 1.626 2.424 3.21 2.69 1.485.253 2.69.505 2.69 1.725 0 1.065-.939 1.668-2.256 1.668-1.5 0-2.523-.87-2.62-2.187H10.06zm9.271 1.346c0 1.261.49 1.864 1.864 1.864h1.247v-1.051h-1.135c-.616 0-.827-.225-.827-.827v-4.22h1.85v-1.05h-1.85V12.61h-1.149v2.005h-1.29v1.05h1.29V19.9zm10.319.813c-.322 0-.462-.099-.462-.477V17.11c0-1.668-1.052-2.58-2.874-2.58-1.724 0-2.859.828-3.027 2.23h1.15c.14-.73.812-1.206 1.821-1.206 1.121 0 1.78.56 1.78 1.485v.491h-2.102c-1.878 0-2.873.799-2.873 2.229 0 1.303 1.065 2.088 2.635 2.088 1.233 0 1.948-.547 2.396-1.192.014.701.337 1.108 1.29 1.108h.63v-1.051h-.364zm-1.612-1.864c0 1.19-.827 2.018-2.256 2.018-.953 0-1.556-.477-1.556-1.178 0-.813.575-1.19 1.598-1.19h2.214v.35zm6.168-4.233c-1.276 0-1.822.532-2.159 1.079l-.154-1.08h-.995v7.149h1.15v-3.644c0-1.136.406-2.383 1.905-2.383h.575v-1.121h-.322zm2.084 5.284c0 1.261.49 1.864 1.864 1.864H39.4v-1.051h-1.135c-.617 0-.827-.225-.827-.827v-4.22h1.85v-1.05h-1.85V12.61h-1.15v2.005H35v1.05h1.29V19.9zm8.308 0c0 1.261.49 1.864 1.864 1.864h1.247v-1.051h-1.135c-.617 0-.827-.225-.827-.827v-4.22h1.85v-1.05h-1.85V12.61h-1.15v2.005h-1.289v1.05h1.29V19.9zm7.415-5.284c-1.276 0-1.822.532-2.159 1.079l-.154-1.08h-.995v7.149h1.15v-3.644c0-1.136.406-2.383 1.906-2.383h.574v-1.121h-.322zm7.393 6.097c-.322 0-.462-.099-.462-.477V17.11c0-1.668-1.052-2.58-2.874-2.58-1.724 0-2.859.828-3.027 2.23h1.15c.14-.73.812-1.206 1.821-1.206 1.122 0 1.78.56 1.78 1.485v.491h-2.102c-1.878 0-2.873.799-2.873 2.229 0 1.303 1.065 2.088 2.635 2.088 1.233 0 1.948-.547 2.396-1.192.014.701.337 1.108 1.29 1.108h.63v-1.051h-.364zm-1.612-1.864c0 1.19-.826 2.018-2.256 2.018-.953 0-1.556-.477-1.556-1.178 0-.813.575-1.19 1.598-1.19h2.214v.35zm8.412-3.14c-.434-.687-1.247-1.177-2.452-1.177-1.977 0-3.434 1.471-3.434 3.658 0 2.326 1.457 3.658 3.434 3.658 1.205 0 1.976-.575 2.452-1.234l.155 1.15h.995v-9.811h-1.15v3.756zm-2.34 5.116c-1.416 0-2.369-1.08-2.369-2.635 0-1.556.953-2.635 2.369-2.635 1.401 0 2.354 1.093 2.354 2.663 0 1.527-.953 2.607-2.354 2.607zm5.644-7.415c.42 0 .743-.308.743-.743a.722.722 0 00-.743-.742.722.722 0 00-.743.742c0 .435.323.743.743.743zm-.589 8.354h1.15v-7.148h-1.15v7.148zm6.228-7.232c-1.205 0-1.934.504-2.355 1.05l-.154-.966h-.995v7.148h1.15v-3.574c0-1.612.812-2.607 2.158-2.607 1.247 0 1.934.785 1.934 2.27v3.91h1.15v-3.98c0-2.368-1.276-3.251-2.888-3.251zm9.987 1.317c-.449-.799-1.248-1.317-2.453-1.317-1.976 0-3.434 1.471-3.434 3.658 0 2.326 1.458 3.658 3.434 3.658 1.205 0 1.976-.505 2.453-1.318v.841c0 1.556-.813 2.257-2.313 2.257-1.191 0-1.99-.505-2.186-1.402H79.46c.182 1.57 1.457 2.425 3.28 2.425 2.452 0 3.545-1.177 3.545-3.238v-6.797h-.995l-.154 1.233zm-2.34 4.976c-1.416 0-2.37-1.08-2.37-2.635 0-1.556.954-2.635 2.37-2.635 1.4 0 2.354 1.093 2.354 2.663 0 1.527-.953 2.607-2.355 2.607z" fill="#fff"/></svg>