<svg width="131" height="16" viewBox="0 0 131 16" fill="none" xmlns="http://www.w3.org/2000/svg"><path d="M14.266 11v-.72h-2.871V4.7h-.783V11h3.654zm2.554.054c1.341 0 2.277-.954 2.277-2.349 0-1.395-.936-2.349-2.277-2.349-1.34 0-2.277.954-2.277 2.349 0 1.395.936 2.349 2.277 2.349zm0-.657c-.909 0-1.52-.711-1.52-1.692s.611-1.692 1.52-1.692c.91 0 1.521.711 1.521 1.692s-.612 1.692-1.52 1.692zm2.917-.909c.018 1.008.837 1.566 2.025 1.566 1.017 0 1.836-.531 1.836-1.386 0-1.017-.837-1.215-1.881-1.341-.666-.081-1.152-.144-1.152-.648 0-.423.432-.693 1.07-.693.63 0 1.063.351 1.117.819h.756c-.072-.954-.828-1.44-1.872-1.449-1.035-.009-1.8.54-1.8 1.377 0 .954.819 1.161 1.845 1.287.684.081 1.188.126 1.188.702 0 .423-.46.702-1.107.702-.765 0-1.242-.396-1.27-.936h-.755zm4.403 0c.018 1.008.837 1.566 2.025 1.566 1.017 0 1.836-.531 1.836-1.386 0-1.017-.837-1.215-1.88-1.341-.667-.081-1.153-.144-1.153-.648 0-.423.432-.693 1.071-.693.63 0 1.062.351 1.116.819h.756c-.072-.954-.828-1.44-1.872-1.449-1.035-.009-1.8.54-1.8 1.377 0 .954.82 1.161 1.845 1.287.684.081 1.188.126 1.188.702 0 .423-.459.702-1.107.702-.765 0-1.242-.396-1.269-.936h-.756zm6.795 1.566c1.062 0 1.818-.675 1.998-1.593h-.747c-.153.594-.657.936-1.305.936-.873 0-1.422-.612-1.449-1.485v-.063h3.564c.01-.108.018-.216.018-.315-.036-1.359-.882-2.178-2.178-2.178-1.296 0-2.178.954-2.178 2.349 0 1.404.9 2.349 2.277 2.349zm-1.458-2.817a1.359 1.359 0 011.368-1.233c.765 0 1.305.441 1.377 1.233h-2.745zm4.173 1.251c.018 1.008.837 1.566 2.025 1.566 1.017 0 1.836-.531 1.836-1.386 0-1.017-.837-1.215-1.881-1.341-.666-.081-1.152-.144-1.152-.648 0-.423.432-.693 1.071-.693.63 0 1.062.351 1.116.819h.756c-.072-.954-.828-1.44-1.872-1.449-1.035-.009-1.8.54-1.8 1.377 0 .954.819 1.161 1.845 1.287.684.081 1.188.126 1.188.702 0 .423-.459.702-1.107.702-.765 0-1.242-.396-1.269-.936h-.756zm9.097 1.566c1.116 0 1.863-.63 2.043-1.62h-.783c-.144.585-.594.963-1.251.963-.882 0-1.476-.684-1.476-1.683s.594-1.701 1.476-1.701c.675 0 1.125.369 1.26.981h.774c-.19-1.008-.9-1.638-2.025-1.638-1.332 0-2.241.954-2.241 2.358 0 1.431.882 2.34 2.223 2.34zm6.91-.729c-.206 0-.296-.063-.296-.306V8.012c0-1.071-.675-1.656-1.845-1.656-1.107 0-1.836.531-1.944 1.431h.738c.09-.468.522-.774 1.17-.774.72 0 1.143.36 1.143.954v.315h-1.35c-1.206 0-1.845.513-1.845 1.431 0 .837.684 1.341 1.692 1.341.792 0 1.25-.351 1.539-.765.009.45.216.711.828.711h.405v-.675h-.234zm-1.034-1.197c0 .765-.531 1.296-1.45 1.296-.611 0-.998-.306-.998-.756 0-.522.369-.765 1.026-.765h1.422v.225zm4.086-2.772c-.774 0-1.242.324-1.512.675l-.099-.621h-.639V11h.738V8.705c0-1.035.522-1.674 1.386-1.674.801 0 1.242.504 1.242 1.458V11h.738V8.444c0-1.521-.819-2.088-1.854-2.088zm7.265 4.698c1.063 0 1.819-.675 1.998-1.593h-.747c-.153.594-.657.936-1.305.936-.873 0-1.422-.612-1.449-1.485v-.063h3.565c.008-.108.017-.216.017-.315-.035-1.359-.881-2.178-2.177-2.178s-2.178.954-2.178 2.349c0 1.404.9 2.349 2.276 2.349zm-1.457-2.817a1.359 1.359 0 011.367-1.233c.766 0 1.306.441 1.377 1.233h-2.745zm3.7 2.763h.836l1.341-1.845L65.735 11h.882l-1.755-2.358L66.5 6.41h-.837L64.43 8.111 63.215 6.41h-.882l1.63 2.232L62.215 11zm6.791.054c1.116 0 1.863-.63 2.043-1.62h-.783c-.144.585-.594.963-1.25.963-.883 0-1.477-.684-1.477-1.683s.594-1.701 1.476-1.701c.675 0 1.125.369 1.26.981h.774c-.189-1.008-.9-1.638-2.025-1.638-1.332 0-2.24.954-2.24 2.358 0 1.431.881 2.34 2.222 2.34zm4.967 0c1.062 0 1.818-.675 1.998-1.593h-.747c-.153.594-.657.936-1.305.936-.873 0-1.422-.612-1.449-1.485v-.063h3.564c.01-.108.018-.216.018-.315-.036-1.359-.882-2.178-2.178-2.178-1.296 0-2.178.954-2.178 2.349 0 1.404.9 2.349 2.277 2.349zm-1.458-2.817a1.359 1.359 0 011.368-1.233c.765 0 1.305.441 1.377 1.233h-2.745zm6.495 2.817c1.062 0 1.818-.675 1.998-1.593h-.747c-.153.594-.657.936-1.305.936-.873 0-1.422-.612-1.45-1.485v-.063h3.565c.009-.108.018-.216.018-.315-.036-1.359-.882-2.178-2.178-2.178-1.296 0-2.178.954-2.178 2.349 0 1.404.9 2.349 2.277 2.349zm-1.458-2.817a1.359 1.359 0 011.368-1.233c.765 0 1.305.441 1.377 1.233h-2.745zm7.997-1.125c-.28-.441-.801-.756-1.575-.756-1.27 0-2.205.945-2.205 2.349 0 1.494.936 2.349 2.205 2.349.774 0 1.269-.369 1.575-.792l.099.738h.639V4.7h-.738v2.412zm-1.503 3.285c-.91 0-1.521-.693-1.521-1.692s.612-1.692 1.52-1.692c.9 0 1.513.702 1.513 1.71 0 .981-.612 1.674-1.512 1.674zm9.22-3.285c-.28-.441-.802-.756-1.576-.756-1.268 0-2.204.945-2.204 2.349 0 1.494.936 2.349 2.204 2.349.775 0 1.27-.369 1.576-.792l.099.738h.638V4.7h-.737v2.412zm-1.504 3.285c-.908 0-1.52-.693-1.52-1.692s.612-1.692 1.52-1.692c.9 0 1.513.702 1.513 1.71 0 .981-.612 1.674-1.513 1.674zm5.362.657c1.062 0 1.818-.675 1.998-1.593h-.747c-.153.594-.657.936-1.305.936-.873 0-1.422-.612-1.45-1.485v-.063h3.565c.009-.108.018-.216.018-.315-.036-1.359-.882-2.178-2.178-2.178-1.296 0-2.178.954-2.178 2.349 0 1.404.9 2.349 2.277 2.349zm-1.458-2.817a1.359 1.359 0 011.368-1.233c.765 0 1.305.441 1.377 1.233h-2.745zm6.692-1.881c-.774 0-1.269.369-1.575.792l-.099-.738h-.639v6.39h.738v-2.502c.279.441.801.756 1.575.756 1.269 0 2.205-.945 2.205-2.349 0-1.494-.936-2.349-2.205-2.349zm-.072 4.041c-.9 0-1.512-.702-1.512-1.71 0-.981.612-1.674 1.512-1.674.909 0 1.521.693 1.521 1.692s-.612 1.692-1.521 1.692zm5.235.657c1.341 0 2.277-.954 2.277-2.349 0-1.395-.936-2.349-2.277-2.349-1.341 0-2.277.954-2.277 2.349 0 1.395.936 2.349 2.277 2.349zm0-.657c-.909 0-1.521-.711-1.521-1.692s.612-1.692 1.521-1.692c.909 0 1.521.711 1.521 1.692s-.612 1.692-1.521 1.692zm2.917-.909c.018 1.008.837 1.566 2.025 1.566 1.017 0 1.836-.531 1.836-1.386 0-1.017-.837-1.215-1.881-1.341-.666-.081-1.152-.144-1.152-.648 0-.423.432-.693 1.071-.693.63 0 1.062.351 1.116.819h.756c-.072-.954-.828-1.44-1.872-1.449-1.035-.009-1.8.54-1.8 1.377 0 .954.819 1.161 1.845 1.287.684.081 1.188.126 1.188.702 0 .423-.459.702-1.107.702-.765 0-1.242-.396-1.269-.936h-.756zm5.058-3.852c.27 0 .477-.198.477-.477a.464.464 0 00-.477-.477.464.464 0 00-.477.477c0 .279.207.477.477.477zM115.12 11h.738V6.41h-.738V11zm2.091-1.197c0 .81.315 1.197 1.197 1.197h.801v-.675h-.729c-.396 0-.531-.144-.531-.531V7.085h1.188V6.41h-1.188V5.123h-.738V6.41h-.828v.675h.828v2.718zm2.449-.315c.018 1.008.837 1.566 2.025 1.566 1.017 0 1.836-.531 1.836-1.386 0-1.017-.837-1.215-1.881-1.341-.666-.081-1.152-.144-1.152-.648 0-.423.432-.693 1.071-.693.63 0 1.062.351 1.116.819h.756c-.072-.954-.828-1.44-1.872-1.449-1.035-.009-1.8.54-1.8 1.377 0 .954.819 1.161 1.845 1.287.684.081 1.188.126 1.188.702 0 .423-.459.702-1.107.702-.765 0-1.242-.396-1.269-.936h-.756zm4.52 1.062c0 .306.216.504.513.504.297 0 .513-.198.513-.504s-.216-.504-.513-.504c-.297 0-.513.198-.513.504z" fill="#000"/></svg>