<svg width="327" height="13" viewBox="0 0 327 13" fill="none" xmlns="http://www.w3.org/2000/svg"><path d="M.26 1.55h3.12V10h.702V1.55h3.12V.9H.26v.65zm9.965 1.859c-1.222 0-1.742.585-2.015 1.313l-.104-1.313h-.572V10h.663V6.659c0-1.339.35-2.613 1.898-2.613h.48v-.637h-.35zm6.852 5.98c-.39 0-.585-.13-.585-.637V5.684c0-1.508-.923-2.353-2.574-2.353-1.508 0-2.509.728-2.678 1.924h.663c.169-.806.871-1.339 1.989-1.339 1.235 0 1.937.65 1.937 1.742v.572h-2.236c-1.69 0-2.6.728-2.6 1.963 0 1.17.923 1.885 2.327 1.885 1.339 0 2.132-.611 2.535-1.43v.234c-.026.78.299 1.118 1.079 1.118h.39v-.611h-.247zm-1.248-2.054c0 1.261-.897 2.171-2.457 2.171-1.053 0-1.703-.533-1.703-1.352 0-.871.65-1.352 1.872-1.352h2.288v.533zm7.662-2.444c-.403-.936-1.287-1.56-2.522-1.56-1.807 0-3.107 1.378-3.107 3.367 0 2.08 1.3 3.38 3.107 3.38 1.235 0 2.093-.663 2.51-1.586L23.581 10h.572V.9h-.663v3.991zm-2.47 4.589c-1.469 0-2.483-1.144-2.483-2.782 0-1.625 1.014-2.782 2.483-2.782 1.47 0 2.483 1.157 2.483 2.795 0 1.625-1.014 2.769-2.483 2.769zm7.605.598c1.443 0 2.548-.936 2.834-2.262h-.676c-.26 1.027-1.131 1.664-2.21 1.664-1.47 0-2.392-1.118-2.418-2.652v-.117h5.382c0-.091.013-.195.013-.273-.065-1.963-1.274-3.107-3.042-3.107-1.807 0-3.042 1.378-3.042 3.328 0 2.067 1.287 3.419 3.159 3.419zm-2.418-3.926c.104-1.339 1.105-2.236 2.314-2.236 1.287 0 2.21.793 2.314 2.236h-4.628zm9.559 1.456h4.862V10h.676V7.608H42.8v-.624h-1.495V.9h-.754l-4.784 6.097v.611zm4.862-5.863v5.239h-4.095l4.095-5.239zM43.76 9.09c-.351 0-.572.221-.572.507 0 .312.208.468.455.468.13 0 .26-.052.325-.156a.469.469 0 01.117.338c0 .494-.312 1.001-.975 1.027v.39c.897-.039 1.456-.637 1.456-1.495 0-.598-.338-1.079-.806-1.079zm4.648-5.122c-.962 0-1.82.338-2.366 1.105l.247-3.549h4.51V.9h-5.121l-.325 5.083.65.026c.39-1.066 1.482-1.43 2.314-1.43 1.456 0 2.353 1.027 2.353 2.431 0 1.612-1.157 2.444-2.405 2.444-1.482 0-2.34-.988-2.444-2.171h-.676c.104 1.508 1.196 2.782 3.12 2.782 1.638 0 3.094-1.066 3.094-3.068 0-1.768-1.183-3.029-2.951-3.029zm4.026 1.69c0 2.665 1.313 4.42 3.289 4.42 1.95 0 3.276-1.755 3.276-4.42v-.416c0-2.587-1.326-4.42-3.276-4.42-1.976 0-3.29 1.833-3.29 4.42v.416zm5.876-.026c0 2.314-1.027 3.822-2.587 3.822-1.573 0-2.6-1.508-2.6-3.822v-.364c0-2.314 1.027-3.822 2.6-3.822 1.56 0 2.587 1.508 2.587 3.822v.364zm1.931.026c0 2.665 1.313 4.42 3.29 4.42 1.95 0 3.275-1.755 3.275-4.42v-.416c0-2.587-1.326-4.42-3.276-4.42-1.976 0-3.289 1.833-3.289 4.42v.416zm5.876-.026c0 2.314-1.027 3.822-2.587 3.822-1.573 0-2.6-1.508-2.6-3.822v-.364c0-2.314 1.027-3.822 2.6-3.822 1.56 0 2.587 1.508 2.587 3.822v.364zm4.428.351h-2.262v.559h2.262v2.379h.61V6.542h2.276v-.559h-2.275V3.604h-.611v2.379zm15.403-2.652c-1.21 0-1.99.676-2.366 1.651-.312-1.092-1.131-1.651-2.171-1.651-1.131 0-1.807.663-2.145 1.482l-.104-1.404h-.572V10h.663V6.646c0-1.612.78-2.704 2.04-2.704 1.145 0 1.86.806 1.86 2.327V10h.663V6.412c.039-1.508.819-2.47 2.054-2.47 1.144 0 1.833.767 1.833 2.262V10h.676V6.178c0-1.989-1.053-2.847-2.431-2.847zm9.7 6.058c-.39 0-.585-.13-.585-.637V5.684c0-1.508-.923-2.353-2.574-2.353-1.508 0-2.509.728-2.678 1.924h.663c.17-.806.871-1.339 1.99-1.339 1.234 0 1.936.65 1.936 1.742v.572h-2.236c-1.69 0-2.6.728-2.6 1.963 0 1.17.923 1.885 2.327 1.885 1.34 0 2.132-.611 2.535-1.43v.234c-.026.78.3 1.118 1.08 1.118h.39v-.611h-.248zM94.4 7.335c0 1.261-.897 2.171-2.457 2.171-1.053 0-1.703-.533-1.703-1.352 0-.871.65-1.352 1.872-1.352H94.4v.533zm5.073-3.926c-1.222 0-1.742.585-2.015 1.313l-.104-1.313h-.572V10h.663V6.659c0-1.339.351-2.613 1.898-2.613h.481v-.637h-.351zM100.806 10h.663V8.219l1.547-1.586L105.538 10h.806l-2.873-3.848 2.652-2.743h-.819l-3.835 3.952V.9h-.663V10zm8.981.078c1.443 0 2.548-.936 2.834-2.262h-.676c-.26 1.027-1.131 1.664-2.21 1.664-1.469 0-2.392-1.118-2.418-2.652v-.117h5.382c0-.091.013-.195.013-.273-.065-1.963-1.274-3.107-3.042-3.107-1.807 0-3.042 1.378-3.042 3.328 0 2.067 1.287 3.419 3.159 3.419zm-2.418-3.926c.104-1.339 1.105-2.236 2.314-2.236 1.287 0 2.21.793 2.314 2.236h-4.628zm7.046 2.314c0 1.053.429 1.534 1.547 1.534h.962v-.611h-.91c-.689 0-.936-.26-.936-.936V4.02h1.781v-.611h-1.781V1.563h-.663v1.846h-1.248v.611h1.248v4.446zm3.218-.494c.052 1.365 1.157 2.106 2.808 2.106 1.417 0 2.561-.715 2.561-1.885 0-1.391-1.222-1.664-2.639-1.859-1.027-.143-1.937-.26-1.937-1.183 0-.754.741-1.248 1.859-1.248 1.053 0 1.807.507 1.924 1.365h.676c-.117-1.287-1.17-1.937-2.6-1.937-1.469-.013-2.522.741-2.522 1.872 0 1.326 1.222 1.573 2.574 1.755 1.105.156 2.002.299 2.002 1.274 0 .78-.819 1.274-1.898 1.274-1.261 0-2.08-.585-2.132-1.534h-.676zM129.37 10h.715l1.95-5.538L133.894 10h.715l2.34-6.591h-.676l-2.028 5.798-1.885-5.798h-.611l-1.989 5.798-1.924-5.798h-.702L129.37 10zm8.845-7.982c.26 0 .468-.195.468-.468a.458.458 0 00-.468-.468.458.458 0 00-.468.468c0 .273.208.468.468.468zM137.877 10h.663V3.409h-.663V10zm2.715-1.534c0 1.053.429 1.534 1.547 1.534h.962v-.611h-.91c-.689 0-.936-.26-.936-.936V4.02h1.781v-.611h-1.781V1.563h-.663v1.846h-1.248v.611h1.248v4.446zm6.56-5.135c-1.235 0-2.002.689-2.379 1.638V.9h-.663V10h.663V6.75c0-1.716.871-2.808 2.275-2.808 1.261 0 2.041.832 2.041 2.392V10h.663V6.308c0-2.08-1.105-2.977-2.6-2.977zm7.285 4.641c.052 1.365 1.157 2.106 2.808 2.106 1.417 0 2.561-.715 2.561-1.885 0-1.391-1.222-1.664-2.639-1.859-1.027-.143-1.937-.26-1.937-1.183 0-.754.741-1.248 1.859-1.248 1.053 0 1.807.507 1.924 1.365h.676c-.117-1.287-1.17-1.937-2.6-1.937-1.469-.013-2.522.741-2.522 1.872 0 1.326 1.222 1.573 2.574 1.755 1.105.156 2.002.299 2.002 1.274 0 .78-.819 1.274-1.898 1.274-1.261 0-2.08-.585-2.132-1.534h-.676zm9.546 2.106c1.443 0 2.548-.936 2.834-2.262h-.676c-.26 1.027-1.131 1.664-2.21 1.664-1.469 0-2.392-1.118-2.418-2.652v-.117h5.382c0-.091.013-.195.013-.273-.065-1.963-1.274-3.107-3.042-3.107-1.807 0-3.042 1.378-3.042 3.328 0 2.067 1.287 3.419 3.159 3.419zm-2.418-3.926c.104-1.339 1.105-2.236 2.314-2.236 1.287 0 2.21.793 2.314 2.236h-4.628zm9.526 3.926c1.495 0 2.548-.858 2.808-2.197h-.702c-.221.975-1.014 1.599-2.106 1.599-1.443 0-2.444-1.131-2.444-2.769 0-1.638.988-2.795 2.444-2.795 1.105 0 1.885.624 2.119 1.612h.689c-.273-1.365-1.3-2.197-2.795-2.197-1.859 0-3.133 1.378-3.133 3.38 0 2.028 1.261 3.367 3.12 3.367zm8.881-3.432c0 1.729-.858 2.821-2.223 2.821-1.222 0-1.976-.832-1.976-2.405V3.409h-.663v3.692c0 2.067 1.079 2.977 2.535 2.977 1.17 0 1.937-.624 2.314-1.469L180.05 10h.585V3.409h-.663v3.237zm4.915-3.237c-1.222 0-1.742.585-2.015 1.313l-.104-1.313h-.572V10h.663V6.659c0-1.339.351-2.613 1.898-2.613h.481v-.637h-.351zm3.776 6.669c1.443 0 2.548-.936 2.834-2.262h-.676c-.26 1.027-1.131 1.664-2.21 1.664-1.469 0-2.392-1.118-2.418-2.652v-.117h5.382c0-.091.013-.195.013-.273-.065-1.963-1.274-3.107-3.042-3.107-1.807 0-3.042 1.378-3.042 3.328 0 2.067 1.287 3.419 3.159 3.419zm-2.418-3.926c.104-1.339 1.105-2.236 2.314-2.236 1.287 0 2.21.793 2.314 2.236h-4.628zm15.539-1.261c-.403-.936-1.287-1.56-2.522-1.56-1.807 0-3.107 1.378-3.107 3.367 0 2.08 1.3 3.38 3.107 3.38 1.235 0 2.093-.663 2.509-1.586l.104 1.508h.572V.9h-.663v3.991zm-2.47 4.589c-1.469 0-2.483-1.144-2.483-2.782 0-1.625 1.014-2.782 2.483-2.782s2.483 1.157 2.483 2.795c0 1.625-1.014 2.769-2.483 2.769zm7.605.598c1.443 0 2.548-.936 2.834-2.262h-.676c-.26 1.027-1.131 1.664-2.21 1.664-1.469 0-2.392-1.118-2.418-2.652v-.117h5.382c0-.091.013-.195.013-.273-.065-1.963-1.274-3.107-3.042-3.107-1.807 0-3.042 1.378-3.042 3.328 0 2.067 1.287 3.419 3.159 3.419zm-2.418-3.926c.104-1.339 1.105-2.236 2.314-2.236 1.287 0 2.21.793 2.314 2.236h-4.628zm9.838-2.821c-1.235 0-2.093.663-2.509 1.586l-.104-1.508h-.572V12.6h.663V8.479c.377.962 1.274 1.599 2.522 1.599 1.807 0 3.107-1.378 3.107-3.38 0-2.067-1.3-3.367-3.107-3.367zm-.052 6.149c-1.469 0-2.483-1.144-2.483-2.795 0-1.612 1.014-2.769 2.483-2.769s2.483 1.157 2.483 2.782c0 1.638-1.014 2.782-2.483 2.782zm7.384.598c1.859 0 3.172-1.378 3.172-3.38 0-1.989-1.313-3.367-3.172-3.367-1.859 0-3.159 1.378-3.159 3.367 0 2.002 1.3 3.38 3.159 3.38zm0-.598c-1.469 0-2.483-1.144-2.483-2.782 0-1.625 1.014-2.782 2.483-2.782s2.483 1.157 2.483 2.782c0 1.638-1.014 2.782-2.483 2.782zm4.177-1.508c.052 1.365 1.157 2.106 2.808 2.106 1.417 0 2.561-.715 2.561-1.885 0-1.391-1.222-1.664-2.639-1.859-1.027-.143-1.937-.26-1.937-1.183 0-.754.741-1.248 1.859-1.248 1.053 0 1.807.507 1.924 1.365h.676c-.117-1.287-1.17-1.937-2.6-1.937-1.469-.013-2.522.741-2.522 1.872 0 1.326 1.222 1.573 2.574 1.755 1.105.156 2.002.299 2.002 1.274 0 .78-.819 1.274-1.898 1.274-1.261 0-2.08-.585-2.132-1.534h-.676zm6.972-5.954c.26 0 .468-.195.468-.468a.458.458 0 00-.468-.468.458.458 0 00-.468.468c0 .273.208.468.468.468zM232.482 10h.663V3.409h-.663V10zm2.716-1.534c0 1.053.429 1.534 1.547 1.534h.962v-.611h-.91c-.689 0-.936-.26-.936-.936V4.02h1.781v-.611h-1.781V1.563h-.663v1.846h-1.248v.611h1.248v4.446zm3.219-.494c.052 1.365 1.157 2.106 2.808 2.106 1.417 0 2.561-.715 2.561-1.885 0-1.391-1.222-1.664-2.639-1.859-1.027-.143-1.937-.26-1.937-1.183 0-.754.741-1.248 1.859-1.248 1.053 0 1.807.507 1.924 1.365h.676c-.117-1.287-1.17-1.937-2.6-1.937-1.469-.013-2.522.741-2.522 1.872 0 1.326 1.222 1.573 2.574 1.755 1.105.156 2.002.299 2.002 1.274 0 .78-.819 1.274-1.898 1.274-1.261 0-2.08-.585-2.132-1.534h-.676zm17.248 1.43c-.364 0-.624-.078-.897-.416l-.65-.754 2.067-3.146h-.702l-1.768 2.665-2.028-2.379-.078-.091c1.742-.728 2.366-1.56 2.366-2.574 0-1.079-.845-1.885-1.989-1.885-1.352 0-2.353.897-2.353 2.093 0 .832.286 1.352.988 2.21-1.586.676-2.223 1.612-2.223 2.639 0 1.495 1.183 2.314 2.665 2.314 1.014 0 1.898-.455 2.639-1.326l.637.754c.312.377.741.494 1.235.494h.91v-.598h-.819zm-3.731-8.008c.806 0 1.365.559 1.365 1.326 0 .884-.611 1.521-2.041 2.145-.663-.793-.936-1.248-.936-1.963 0-.871.663-1.508 1.612-1.508zm-.858 8.086c-1.144 0-2.002-.65-2.002-1.768 0-.949.533-1.534 1.885-2.184l.195.221 2.158 2.548c-.611.767-1.378 1.183-2.236 1.183zm11.849.52h.715l1.95-5.538L267.449 10h.715l2.34-6.591h-.676L267.8 9.207l-1.885-5.798h-.611l-1.989 5.798-1.924-5.798h-.702L262.925 10zm8.844-7.982c.26 0 .468-.195.468-.468a.458.458 0 00-.468-.468.458.458 0 00-.468.468c0 .273.208.468.468.468zM271.431 10h.663V3.409h-.663V10zm2.716-1.534c0 1.053.429 1.534 1.547 1.534h.962v-.611h-.91c-.689 0-.936-.26-.936-.936V4.02h1.781v-.611h-1.781V1.563h-.663v1.846h-1.248v.611h1.248v4.446zm6.56-5.135c-1.235 0-2.002.689-2.379 1.638V.9h-.663V10h.663V6.75c0-1.716.871-2.808 2.275-2.808 1.261 0 2.041.832 2.041 2.392V10h.663V6.308c0-2.08-1.105-2.977-2.6-2.977zm9.36 1.56c-.403-.936-1.287-1.56-2.522-1.56-1.807 0-3.107 1.378-3.107 3.367 0 2.08 1.3 3.38 3.107 3.38 1.235 0 2.093-.663 2.509-1.586l.104 1.508h.572V.9h-.663v3.991zm-2.47 4.589c-1.469 0-2.483-1.144-2.483-2.782 0-1.625 1.014-2.782 2.483-2.782s2.483 1.157 2.483 2.795c0 1.625-1.014 2.769-2.483 2.769zm7.384-6.071c-1.222 0-1.742.585-2.015 1.313l-.104-1.313h-.572V10h.663V6.659c0-1.339.351-2.613 1.898-2.613h.481v-.637h-.351zm6.852 5.98c-.39 0-.585-.13-.585-.637V5.684c0-1.508-.923-2.353-2.574-2.353-1.508 0-2.509.728-2.678 1.924h.663c.169-.806.871-1.339 1.989-1.339 1.235 0 1.937.65 1.937 1.742v.572h-2.236c-1.69 0-2.6.728-2.6 1.963 0 1.17.923 1.885 2.327 1.885 1.339 0 2.132-.611 2.535-1.43v.234c-.026.78.299 1.118 1.079 1.118h.39v-.611h-.247zm-1.248-2.054c0 1.261-.897 2.171-2.457 2.171-1.053 0-1.703-.533-1.703-1.352 0-.871.65-1.352 1.872-1.352h2.288v.533zM304.413 10h.715l1.95-5.538L308.937 10h.715l2.34-6.591h-.676l-2.028 5.798-1.885-5.798h-.611l-1.989 5.798-1.924-5.798h-.702L304.413 10zm14.089-.611c-.39 0-.585-.13-.585-.637V5.684c0-1.508-.923-2.353-2.574-2.353-1.508 0-2.509.728-2.678 1.924h.663c.169-.806.871-1.339 1.989-1.339 1.235 0 1.937.65 1.937 1.742v.572h-2.236c-1.69 0-2.6.728-2.6 1.963 0 1.17.923 1.885 2.327 1.885 1.339 0 2.132-.611 2.535-1.43v.234c-.026.78.299 1.118 1.079 1.118h.39v-.611h-.247zm-1.248-2.054c0 1.261-.897 2.171-2.457 2.171-1.053 0-1.703-.533-1.703-1.352 0-.871.65-1.352 1.872-1.352h2.288v.533zM319.635 10h.663V.9h-.663V10zm1.923-2.028c.052 1.365 1.157 2.106 2.808 2.106 1.417 0 2.561-.715 2.561-1.885 0-1.391-1.222-1.664-2.639-1.859-1.027-.143-1.937-.26-1.937-1.183 0-.754.741-1.248 1.859-1.248 1.053 0 1.807.507 1.924 1.365h.676c-.117-1.287-1.17-1.937-2.6-1.937-1.469-.013-2.522.741-2.522 1.872 0 1.326 1.222 1.573 2.574 1.755 1.105.156 2.002.299 2.002 1.274 0 .78-.819 1.274-1.898 1.274-1.261 0-2.08-.585-2.132-1.534h-.676z" fill="#000"/></svg>