<svg width="241" height="16" viewBox="0 0 241 16" fill="none" xmlns="http://www.w3.org/2000/svg"><path d="M.42 2.442h4.536V15h2.415V2.442h4.536V.3H.42v2.142zm17.452 1.806c-1.764 0-2.625.714-3.17 1.617l-.253-1.617h-2.016V15h2.268V9.603c0-1.659.651-3.234 2.667-3.234h1.008V4.248h-.504zm11.403 8.778c-.462 0-.693-.147-.693-.693V8.028c0-2.541-1.638-3.906-4.494-3.906-2.709 0-4.515 1.302-4.746 3.402h2.226c.168-.945 1.071-1.575 2.415-1.575 1.491 0 2.352.735 2.352 1.932v.651h-2.709c-3.003 0-4.599 1.239-4.599 3.444 0 1.995 1.638 3.15 3.99 3.15 1.743 0 2.835-.756 3.549-1.848 0 1.071.504 1.722 1.974 1.722h1.197v-1.974h-.462zm-2.94-2.436c-.021 1.659-1.113 2.772-3.003 2.772-1.239 0-1.995-.63-1.995-1.533 0-1.092.777-1.617 2.184-1.617h2.814v.378zm12.724-4.851c-.693-.945-1.848-1.617-3.486-1.617-2.919 0-5.082 2.184-5.082 5.502 0 3.444 2.163 5.502 5.082 5.502 1.701 0 2.814-.798 3.507-1.743L39.353 15h1.974V.3H39.06v5.439zm-3.108 7.476c-1.89 0-3.129-1.47-3.129-3.591 0-2.1 1.24-3.57 3.13-3.57s3.128 1.47 3.128 3.612c0 2.079-1.239 3.549-3.129 3.549zm12.696 1.911c2.667 0 4.473-1.617 4.85-3.738H51.23c-.315 1.197-1.323 1.89-2.71 1.89-1.784 0-2.94-1.197-3.002-3.024v-.147h8.106a6.16 6.16 0 00.063-.861c-.063-3.15-2.142-5.124-5.25-5.124-3.171 0-5.292 2.205-5.292 5.523 0 3.297 2.12 5.481 5.502 5.481zm-3.045-6.678c.168-1.533 1.407-2.499 2.856-2.499 1.575 0 2.688.903 2.877 2.499h-5.733zM62.447 15l1.365-3.633h6.027L71.225 15h2.583L68.328.3H65.45L59.948 15h2.5zm4.368-12.096l2.352 6.405h-4.683l2.331-6.405zm15.272 6.72c0 2.226-1.05 3.528-2.773 3.528-1.658 0-2.498-1.071-2.498-3.171V4.248h-2.269v5.985c0 3.675 1.954 4.893 4.243 4.893 1.658 0 2.645-.672 3.317-1.491L82.36 15h1.996V4.248h-2.269v5.376zm4.04 1.827c.064 2.331 2.038 3.675 4.915 3.675 2.604 0 4.557-1.302 4.557-3.36 0-2.394-1.995-2.898-4.452-3.192-1.554-.168-2.583-.294-2.583-1.302 0-.861.882-1.407 2.226-1.407 1.344 0 2.268.693 2.394 1.68h2.226c-.147-2.205-2.016-3.423-4.662-3.423-2.583-.021-4.41 1.302-4.41 3.339 0 2.226 1.932 2.751 4.389 3.045 1.659.21 2.646.294 2.646 1.449 0 .861-.924 1.407-2.331 1.407-1.638 0-2.604-.798-2.688-1.911h-2.226zm10.562 0c.063 2.331 2.037 3.675 4.914 3.675 2.604 0 4.557-1.302 4.557-3.36 0-2.394-1.995-2.898-4.452-3.192-1.554-.168-2.583-.294-2.583-1.302 0-.861.882-1.407 2.226-1.407 1.344 0 2.268.693 2.394 1.68h2.226c-.147-2.205-2.016-3.423-4.662-3.423-2.583-.021-4.41 1.302-4.41 3.339 0 2.226 1.932 2.751 4.389 3.045 1.659.21 2.646.294 2.646 1.449 0 .861-.924 1.407-2.331 1.407-1.638 0-2.604-.798-2.688-1.911H96.69zm12.384-8.715c.777 0 1.386-.567 1.386-1.365S109.85.006 109.073.006c-.777 0-1.386.567-1.386 1.365s.609 1.365 1.386 1.365zM107.918 15h2.268V4.248h-2.268V15zm9.594.126c2.667 0 4.473-1.617 4.851-3.738h-2.268c-.315 1.197-1.323 1.89-2.709 1.89-1.785 0-2.94-1.197-3.003-3.024v-.147h8.106a6.16 6.16 0 00.063-.861c-.063-3.15-2.142-5.124-5.25-5.124-3.171 0-5.292 2.205-5.292 5.523 0 3.297 2.121 5.481 5.502 5.481zm-3.045-6.678c.168-1.533 1.407-2.499 2.856-2.499 1.575 0 2.688.903 2.877 2.499h-5.733zm14.935 1.722c.084 2.94 2.289 4.956 5.943 4.956 3.234 0 5.439-1.827 5.439-4.473.021-2.898-2.352-3.675-4.788-4.116-2.31-.399-3.822-.714-3.822-2.226 0-1.386 1.155-2.1 2.814-2.1 1.785 0 2.961 1.008 3.15 2.499h2.415c-.105-2.709-2.205-4.536-5.565-4.536-3.129 0-5.229 1.743-5.229 4.305 0 2.919 2.31 3.696 4.746 4.116 2.331.42 3.864.756 3.864 2.31 0 1.407-1.26 2.184-3.003 2.184-2.058 0-3.402-1.155-3.528-2.877l-2.436-.042zm18.925-6.048c-1.68 0-2.709.756-3.381 1.68V.3h-2.268V15h2.268V9.561c0-2.163 1.092-3.486 2.877-3.486 1.68 0 2.583 1.092 2.583 3.129V15h2.268V9.015c0-3.591-1.953-4.893-4.347-4.893zm16.238 8.904c-.462 0-.693-.147-.693-.693V8.028c0-2.541-1.638-3.906-4.494-3.906-2.709 0-4.515 1.302-4.746 3.402h2.226c.168-.945 1.071-1.575 2.415-1.575 1.491 0 2.352.735 2.352 1.932v.651h-2.709c-3.003 0-4.599 1.239-4.599 3.444 0 1.995 1.638 3.15 3.99 3.15 1.743 0 2.835-.756 3.549-1.848 0 1.071.504 1.722 1.974 1.722h1.197v-1.974h-.462zm-2.94-2.436c-.021 1.659-1.113 2.772-3.003 2.772-1.239 0-1.995-.63-1.995-1.533 0-1.092.777-1.617 2.184-1.617h2.814v.378zm10.076-6.342c-1.764 0-2.625.714-3.171 1.617l-.252-1.617h-2.016V15h2.268V9.603c0-1.659.651-3.234 2.667-3.234h1.008V4.248h-.504zm6.494 10.878c2.667 0 4.473-1.617 4.851-3.738h-2.268c-.315 1.197-1.323 1.89-2.709 1.89-1.785 0-2.94-1.197-3.003-3.024v-.147h8.106a6.16 6.16 0 00.063-.861c-.063-3.15-2.142-5.124-5.25-5.124-3.171 0-5.292 2.205-5.292 5.523 0 3.297 2.121 5.481 5.502 5.481zm-3.045-6.678c.168-1.533 1.407-2.499 2.856-2.499 1.575 0 2.688.903 2.877 2.499h-5.733zm21.906 6.678c3.423 0 5.922-2.016 6.384-5.124h-2.499c-.462 1.869-1.869 3.003-3.906 3.003-2.772 0-4.452-2.226-4.452-5.355 0-3.15 1.722-5.355 4.515-5.355 1.995 0 3.381 1.155 3.864 3.003h2.499c-.483-3.108-2.898-5.124-6.258-5.124-4.347 0-7.098 3.003-7.098 7.476 0 4.515 2.667 7.476 6.951 7.476zm8.382-.126h2.415V8.784h5.754V6.705h-5.754V2.442h6.972V.3h-9.387V15zm16.236 0c4.599 0 7.497-3.003 7.497-7.371S226.273.3 221.674.3h-4.998V15h4.998zm-2.583-12.6h2.583c3.234 0 5.019 2.079 5.019 5.229s-1.785 5.271-5.019 5.271h-2.583V2.4zm11.514 9.051c.063 2.331 2.037 3.675 4.914 3.675 2.604 0 4.557-1.302 4.557-3.36 0-2.394-1.995-2.898-4.452-3.192-1.554-.168-2.583-.294-2.583-1.302 0-.861.882-1.407 2.226-1.407 1.344 0 2.268.693 2.394 1.68h2.226c-.147-2.205-2.016-3.423-4.662-3.423-2.583-.021-4.41 1.302-4.41 3.339 0 2.226 1.932 2.751 4.389 3.045 1.659.21 2.646.294 2.646 1.449 0 .861-.924 1.407-2.331 1.407-1.638 0-2.604-.798-2.688-1.911h-2.226z" fill="#000"/></svg>