<svg width="256" height="82" viewBox="0 0 256 82" fill="none" xmlns="http://www.w3.org/2000/svg"><path d="M4.602 19V6.104L13.468 19h2.73V.8H13.26v12.896L4.394.8h-2.73V19h2.938zm20.944.156c3.302 0 5.538-2.002 6.006-4.628h-2.808c-.39 1.482-1.638 2.34-3.354 2.34-2.21 0-3.64-1.482-3.718-3.744v-.182h10.036c.052-.364.078-.728.078-1.066-.078-3.9-2.652-6.344-6.5-6.344-3.926 0-6.552 2.73-6.552 6.838 0 4.082 2.626 6.786 6.812 6.786zm-3.77-8.268c.208-1.898 1.742-3.094 3.536-3.094 1.95 0 3.328 1.118 3.562 3.094h-7.098zM36.666 19h3.043l2.912-9.048L45.429 19h3.016l4.42-13.312h-2.86L46.859 15.88 43.947 5.688h-2.574L38.33 15.88 35.289 5.688h-2.964L36.667 19zm24.615 0h2.99v-6.604h4.004L71.785 19h3.328l-3.848-7.254c2.132-.754 3.536-2.704 3.536-5.148C74.801 3.062 72.253.8 68.457.8h-7.176V19zm6.942-15.6c2.132 0 3.51 1.248 3.51 3.198s-1.378 3.198-3.51 3.198h-3.952V3.4h3.952zm20.682 13.156c-.572 0-.858-.182-.858-.858v-5.33c0-3.146-2.028-4.836-5.564-4.836-3.354 0-5.59 1.612-5.876 4.212h2.756c.208-1.17 1.326-1.95 2.99-1.95 1.846 0 2.912.91 2.912 2.392v.806h-3.354c-3.718 0-5.694 1.534-5.694 4.264 0 2.47 2.028 3.9 4.94 3.9 2.158 0 3.51-.936 4.394-2.288 0 1.326.624 2.132 2.444 2.132h1.482v-2.444h-.572zm-3.64-3.016c-.026 2.054-1.378 3.432-3.718 3.432-1.534 0-2.47-.78-2.47-1.898 0-1.352.962-2.002 2.704-2.002h3.484v.468zM93.67 19h3.042l2.912-9.048L102.43 19h3.016l4.42-13.312h-2.86l-3.146 10.192-2.912-10.192h-2.574L95.333 15.88 92.29 5.688h-2.964L93.669 19zm24.614 0h2.99v-7.696h7.124V8.73h-7.124V3.452h8.632V.8h-11.622V19zm12.588 0h3.38l4.472-6.994L143.169 19h3.562l-6.058-9.438L146.367.8h-3.38l-4.16 6.474L134.745.8h-3.536l5.694 8.892L130.871 19zm36.364-2.444c-.572 0-.858-.182-.858-.858v-5.33c0-3.146-2.028-4.836-5.564-4.836-3.354 0-5.59 1.612-5.876 4.212h2.756c.208-1.17 1.326-1.95 2.99-1.95 1.846 0 2.912.91 2.912 2.392v.806h-3.354c-3.718 0-5.694 1.534-5.694 4.264 0 2.47 2.028 3.9 4.94 3.9 2.158 0 3.51-.936 4.394-2.288 0 1.326.624 2.132 2.444 2.132h1.482v-2.444h-.572zm-3.64-3.016c-.026 2.054-1.378 3.432-3.718 3.432-1.534 0-2.47-.78-2.47-1.898 0-1.352.962-2.002 2.704-2.002h3.484v.468zm11.75 5.616c3.406 0 5.668-1.898 6.188-4.914h-2.964c-.338 1.534-1.482 2.522-3.198 2.522-2.262 0-3.744-1.794-3.744-4.394 0-2.626 1.482-4.446 3.744-4.446 1.742 0 2.86.962 3.224 2.522h2.938c-.546-3.016-2.678-4.914-6.11-4.914-4.03 0-6.682 2.73-6.682 6.838 0 4.16 2.574 6.786 6.604 6.786zm14.448 0c3.406 0 5.668-1.898 6.188-4.914h-2.964c-.338 1.534-1.482 2.522-3.198 2.522-2.262 0-3.744-1.794-3.744-4.394 0-2.626 1.482-4.446 3.744-4.446 1.742 0 2.86.962 3.224 2.522h2.938c-.546-3.016-2.678-4.914-6.11-4.914-4.03 0-6.682 2.73-6.682 6.838 0 4.16 2.574 6.786 6.604 6.786zm14.629 0c4.056 0 6.786-2.73 6.786-6.812 0-4.056-2.73-6.812-6.786-6.812-4.056 0-6.786 2.756-6.786 6.812 0 4.082 2.73 6.812 6.786 6.812zm0-2.392c-2.366 0-3.9-1.846-3.9-4.42s1.534-4.42 3.9-4.42c2.366 0 3.926 1.846 3.926 4.42s-1.56 4.42-3.926 4.42zm18.17-4.42c0 2.756-1.3 4.368-3.432 4.368-2.054 0-3.094-1.326-3.094-3.926V5.688h-2.808v7.41c0 4.55 2.418 6.058 5.252 6.058 2.054 0 3.276-.832 4.108-1.846l.312 1.69h2.47V5.688h-2.808v6.656zm12.595-6.812c-2.158 0-3.432.858-4.264 1.898l-.312-1.742h-2.444V19h2.808v-6.708c0-2.704 1.326-4.342 3.562-4.342 2.106 0 3.172 1.352 3.172 3.874V19h2.834v-7.41c0-4.446-2.418-6.058-5.356-6.058zm8.872 9.854c0 2.418 1.092 3.614 3.64 3.614h2.6v-2.47h-1.976c-1.066 0-1.43-.39-1.43-1.43V8.158h3.25v-2.47h-3.25V1.97h-2.834v3.718h-2.314v2.47h2.314v7.228zm7.918 2.002c0 1.04.754 1.768 1.794 1.768s1.82-.728 1.82-1.768-.78-1.768-1.82-1.768-1.794.728-1.794 1.768zM.936 34.426h9.906L.65 47.946V50h14.56v-2.626H4.732l10.192-13.52V31.8H.936v2.626zm21.969 15.73c3.302 0 5.538-2.002 6.006-4.628h-2.808c-.39 1.482-1.638 2.34-3.354 2.34-2.21 0-3.64-1.482-3.718-3.744v-.182h10.036c.052-.364.078-.728.078-1.066-.078-3.9-2.652-6.344-6.5-6.344-3.926 0-6.552 2.73-6.552 6.838 0 4.082 2.626 6.786 6.812 6.786zm-3.77-8.268c.208-1.898 1.742-3.094 3.536-3.094 1.95 0 3.328 1.118 3.562 3.094h-7.098zm19.014-5.2c-2.184 0-3.25.884-3.926 2.002l-.312-2.002h-2.496V50h2.808v-6.682c0-2.054.806-4.004 3.302-4.004h1.248v-2.626h-.624zm8.013 13.468c4.056 0 6.786-2.73 6.786-6.812 0-4.056-2.73-6.812-6.786-6.812-4.056 0-6.786 2.756-6.786 6.812 0 4.082 2.73 6.812 6.786 6.812zm0-2.392c-2.366 0-3.9-1.846-3.9-4.42s1.534-4.42 3.9-4.42c2.366 0 3.926 1.846 3.926 4.42s-1.56 4.42-3.926 4.42zm22.82-11.232c-2.08 0-3.457.962-4.341 2.132l-.339-1.976h-2.444V55.2h2.809v-7.072c.832 1.196 2.261 2.028 4.316 2.028 3.64 0 6.291-2.704 6.291-6.812 0-4.264-2.651-6.812-6.291-6.812zm-.468 11.258c-2.34 0-3.873-1.846-3.873-4.498 0-2.574 1.533-4.368 3.873-4.368 2.34 0 3.9 1.794 3.9 4.42 0 2.6-1.56 4.446-3.9 4.446zm10.44-12.974c.963 0 1.717-.702 1.717-1.69s-.755-1.69-1.717-1.69c-.961 0-1.715.702-1.715 1.69s.754 1.69 1.715 1.69zM77.524 50h2.808V36.688h-2.807V50zM90.21 36.532c-2.08 0-3.458.962-4.342 2.132l-.338-1.976h-2.444V55.2h2.808v-7.072c.832 1.196 2.262 2.028 4.316 2.028 3.64 0 6.292-2.704 6.292-6.812 0-4.264-2.652-6.812-6.292-6.812zm-.468 11.258c-2.34 0-3.874-1.846-3.874-4.498 0-2.574 1.534-4.368 3.874-4.368s3.9 1.794 3.9 4.42c0 2.6-1.56 4.446-3.9 4.446zm8.362-2.184c.078 2.886 2.522 4.55 6.084 4.55 3.224 0 5.642-1.612 5.642-4.16 0-2.964-2.47-3.588-5.512-3.952-1.924-.208-3.198-.364-3.198-1.612 0-1.066 1.092-1.742 2.756-1.742 1.664 0 2.808.858 2.964 2.08h2.756c-.182-2.73-2.496-4.238-5.772-4.238-3.198-.026-5.46 1.612-5.46 4.134 0 2.756 2.392 3.406 5.434 3.77 2.054.26 3.276.364 3.276 1.794 0 1.066-1.144 1.742-2.886 1.742-2.028 0-3.224-.988-3.328-2.366h-2.756zm13.464 2.782c0 1.04.754 1.768 1.794 1.768s1.82-.728 1.82-1.768-.78-1.768-1.82-1.768-1.794.728-1.794 1.768zM.936 65.426h9.906L.65 78.946V81h14.56v-2.626H4.732l10.192-13.52V62.8H.936v2.626zm21.969 15.73c3.302 0 5.538-2.002 6.006-4.628h-2.808c-.39 1.482-1.638 2.34-3.354 2.34-2.21 0-3.64-1.482-3.718-3.744v-.182h10.036c.052-.364.078-.728.078-1.066-.078-3.9-2.652-6.344-6.5-6.344-3.926 0-6.552 2.73-6.552 6.838 0 4.082 2.626 6.786 6.812 6.786zm-3.77-8.268c.208-1.898 1.742-3.094 3.536-3.094 1.95 0 3.328 1.118 3.562 3.094h-7.098zm19.014-5.2c-2.184 0-3.25.884-3.926 2.002l-.312-2.002h-2.496V81h2.808v-6.682c0-2.054.806-4.004 3.302-4.004h1.248v-2.626h-.624zm8.013 13.468c4.056 0 6.786-2.73 6.786-6.812 0-4.056-2.73-6.812-6.786-6.812-4.056 0-6.786 2.756-6.786 6.812 0 4.082 2.73 6.812 6.786 6.812zm0-2.392c-2.366 0-3.9-1.846-3.9-4.42s1.534-4.42 3.9-4.42c2.366 0 3.926 1.846 3.926 4.42s-1.56 4.42-3.926 4.42zm21.807 2.392c3.406 0 5.668-1.898 6.188-4.914h-2.965c-.337 1.534-1.481 2.522-3.197 2.522-2.263 0-3.745-1.794-3.745-4.394 0-2.626 1.483-4.446 3.745-4.446 1.742 0 2.86.962 3.224 2.522h2.938c-.546-3.016-2.678-4.914-6.11-4.914-4.03 0-6.682 2.73-6.682 6.838 0 4.16 2.573 6.786 6.604 6.786zm14.629 0c4.056 0 6.786-2.73 6.786-6.812 0-4.056-2.73-6.812-6.786-6.812-4.056 0-6.786 2.756-6.786 6.812 0 4.082 2.73 6.812 6.786 6.812zm0-2.392c-2.366 0-3.9-1.846-3.9-4.42s1.534-4.42 3.9-4.42c2.366 0 3.926 1.846 3.926 4.42s-1.56 4.42-3.926 4.42zm24.358-11.232c-2.184 0-3.692.962-4.55 2.418-.806-1.716-2.366-2.418-4.108-2.418-2.002.026-3.146.91-3.9 1.898l-.312-1.742h-2.444V81h2.808v-7.124c0-2.366 1.196-3.926 3.12-3.926 1.846 0 2.808 1.222 2.808 3.562V81h2.834v-7.202c0-2.392 1.222-3.848 3.146-3.848 1.82 0 2.782 1.222 2.782 3.562V81h2.808v-7.67c0-4.212-2.236-5.798-4.992-5.798zm22.851 0c-2.184 0-3.692.962-4.55 2.418-.806-1.716-2.366-2.418-4.108-2.418-2.002.026-3.146.91-3.9 1.898l-.312-1.742h-2.444V81h2.808v-7.124c0-2.366 1.196-3.926 3.12-3.926 1.846 0 2.808 1.222 2.808 3.562V81h2.834v-7.202c0-2.392 1.222-3.848 3.146-3.848 1.82 0 2.782 1.222 2.782 3.562V81h2.808v-7.67c0-4.212-2.236-5.798-4.992-5.798zm8.968-1.716c.962 0 1.716-.702 1.716-1.69s-.754-1.69-1.716-1.69-1.716.702-1.716 1.69.754 1.69 1.716 1.69zM137.345 81h2.808V67.688h-2.808V81zm4.988-4.394c.078 2.886 2.522 4.55 6.084 4.55 3.224 0 5.642-1.612 5.642-4.16 0-2.964-2.47-3.588-5.512-3.952-1.924-.208-3.198-.364-3.198-1.612 0-1.066 1.092-1.742 2.756-1.742 1.664 0 2.808.858 2.964 2.08h2.756c-.182-2.73-2.496-4.238-5.772-4.238-3.198-.026-5.46 1.612-5.46 4.134 0 2.756 2.392 3.406 5.434 3.77 2.054.26 3.276.364 3.276 1.794 0 1.066-1.144 1.742-2.886 1.742-2.028 0-3.224-.988-3.328-2.366h-2.756zm13.077 0c.078 2.886 2.522 4.55 6.084 4.55 3.224 0 5.642-1.612 5.642-4.16 0-2.964-2.47-3.588-5.512-3.952-1.924-.208-3.198-.364-3.198-1.612 0-1.066 1.092-1.742 2.756-1.742 1.664 0 2.808.858 2.964 2.08h2.756c-.182-2.73-2.496-4.238-5.772-4.238-3.198-.026-5.46 1.612-5.46 4.134 0 2.756 2.392 3.406 5.434 3.77 2.054.26 3.276.364 3.276 1.794 0 1.066-1.144 1.742-2.886 1.742-2.028 0-3.224-.988-3.328-2.366h-2.756zm15.332-10.79c.962 0 1.716-.702 1.716-1.69s-.754-1.69-1.716-1.69-1.716.702-1.716 1.69.754 1.69 1.716 1.69zM169.312 81h2.808V67.688h-2.808V81zm11.852.156c4.056 0 6.786-2.73 6.786-6.812 0-4.056-2.73-6.812-6.786-6.812-4.056 0-6.786 2.756-6.786 6.812 0 4.082 2.73 6.812 6.786 6.812zm0-2.392c-2.366 0-3.9-1.846-3.9-4.42s1.534-4.42 3.9-4.42c2.366 0 3.926 1.846 3.926 4.42s-1.56 4.42-3.926 4.42zm16.064-11.232c-2.158 0-3.432.858-4.264 1.898l-.312-1.742h-2.444V81h2.808v-6.708c0-2.704 1.326-4.342 3.562-4.342 2.106 0 3.172 1.352 3.172 3.874V81h2.834v-7.41c0-4.446-2.418-6.058-5.356-6.058zm7.338 9.074c.078 2.886 2.522 4.55 6.084 4.55 3.224 0 5.642-1.612 5.642-4.16 0-2.964-2.47-3.588-5.512-3.952-1.924-.208-3.198-.364-3.198-1.612 0-1.066 1.092-1.742 2.756-1.742 1.664 0 2.808.858 2.964 2.08h2.756c-.182-2.73-2.496-4.238-5.772-4.238-3.198-.026-5.46 1.612-5.46 4.134 0 2.756 2.392 3.406 5.434 3.77 2.054.26 3.276.364 3.276 1.794 0 1.066-1.144 1.742-2.886 1.742-2.028 0-3.224-.988-3.328-2.366h-2.756zm13.464 2.782c0 1.04.754 1.768 1.794 1.768s1.82-.728 1.82-1.768-.78-1.768-1.82-1.768-1.794.728-1.794 1.768z" fill="#000"/></svg>