<svg width="255" height="37" viewBox="0 0 255 37" fill="none" xmlns="http://www.w3.org/2000/svg"><path d="M1.152 12H2V2.256L6.192 12h.784l4.192-9.744V12h.848V.8h-1.088l-4.32 10.032L2.256.8H1.152V12zm20.116-.752c-.48 0-.72-.16-.72-.784V6.688c0-1.856-1.136-2.896-3.168-2.896-1.856 0-3.088.896-3.296 2.368h.816c.208-.992 1.072-1.648 2.448-1.648 1.52 0 2.384.8 2.384 2.144v.704H16.98c-2.08 0-3.2.896-3.2 2.416 0 1.44 1.136 2.32 2.864 2.32 1.648 0 2.624-.752 3.12-1.76v.288c-.032.96.368 1.376 1.328 1.376h.48v-.752h-.304zM19.732 8.72c0 1.552-1.104 2.672-3.024 2.672-1.296 0-2.096-.656-2.096-1.664 0-1.072.8-1.664 2.304-1.664h2.816v.656zm3.427-6.544c.32 0 .576-.24.576-.576a.564.564 0 00-.576-.576c-.32 0-.576.24-.576.576 0 .336.256.576.576.576zM20.68 15.2h.992c1.36 0 1.904-.592 1.904-1.888V3.888h-.816v9.44c0 .8-.304 1.12-1.12 1.12h-.96v.752zm8.396-3.104c2.288 0 3.904-1.696 3.904-4.16 0-2.448-1.616-4.144-3.904-4.144s-3.888 1.696-3.888 4.144c0 2.464 1.6 4.16 3.888 4.16zm0-.736c-1.808 0-3.056-1.408-3.056-3.424 0-2 1.248-3.424 3.056-3.424s3.056 1.424 3.056 3.424c0 2.016-1.248 3.424-3.056 3.424zm8.838-7.472c-1.504 0-2.144.72-2.48 1.616l-.128-1.616H34.6V12h.816V7.888c0-1.648.432-3.216 2.336-3.216h.592v-.784h-.432zm5.025.752h1.536V12h.816V4.64h2.432v-.752H45.29V2.672c0-.8.304-1.12 1.12-1.12h1.328V.8h-1.36c-1.36 0-1.904.592-1.904 1.888v1.2h-1.536v.752zm8.934 7.456c2.288 0 3.904-1.696 3.904-4.16 0-2.448-1.616-4.144-3.904-4.144s-3.888 1.696-3.888 4.144c0 2.464 1.6 4.16 3.888 4.16zm0-.736c-1.808 0-3.056-1.408-3.056-3.424 0-2 1.248-3.424 3.056-3.424s3.056 1.424 3.056 3.424c0 2.016-1.248 3.424-3.056 3.424zm8.837-7.472c-1.504 0-2.144.72-2.48 1.616l-.127-1.616h-.704V12h.816V7.888c0-1.648.431-3.216 2.336-3.216h.592v-.784h-.433zm4.647 8.208c1.776 0 3.137-1.152 3.489-2.784h-.832c-.32 1.264-1.392 2.048-2.72 2.048-1.809 0-2.945-1.376-2.977-3.264v-.144h6.624c0-.112.017-.24.017-.336-.08-2.416-1.569-3.824-3.744-3.824-2.224 0-3.744 1.696-3.744 4.096 0 2.544 1.584 4.208 3.887 4.208zm-2.975-4.832c.127-1.648 1.36-2.752 2.847-2.752 1.585 0 2.72.976 2.849 2.752H62.38zM69.424 12h.944l2.688-3.568L75.744 12h.992l-3.152-4.144 2.992-3.968h-.928l-2.56 3.36-2.528-3.36h-.976l2.992 3.968L69.424 12zm16.597-8.208c-1.52 0-2.576.816-3.088 1.952l-.128-1.856H82.1V15.2h.816v-5.072c.464 1.184 1.568 1.968 3.104 1.968 2.224 0 3.824-1.696 3.824-4.16 0-2.544-1.6-4.144-3.824-4.144zm-.064 7.568c-1.808 0-3.056-1.408-3.056-3.44 0-1.984 1.248-3.408 3.056-3.408s3.056 1.424 3.056 3.424c0 2.016-1.248 3.424-3.056 3.424zm12.639-.112c-.48 0-.72-.16-.72-.784V6.688c0-1.856-1.136-2.896-3.168-2.896-1.856 0-3.088.896-3.296 2.368h.816c.208-.992 1.072-1.648 2.448-1.648 1.52 0 2.384.8 2.384 2.144v.704h-2.752c-2.08 0-3.2.896-3.2 2.416 0 1.44 1.136 2.32 2.864 2.32 1.648 0 2.624-.752 3.12-1.76v.288c-.032.96.368 1.376 1.328 1.376h.48v-.752h-.304zM97.06 8.72c0 1.552-1.104 2.672-3.024 2.672-1.296 0-2.096-.656-2.096-1.664 0-1.072.8-1.664 2.304-1.664h2.816v.656zm3.347-6.544c.32 0 .576-.24.576-.576a.564.564 0 00-.576-.576c-.32 0-.576.24-.576.576 0 .336.256.576.576.576zM99.991 12h.816V3.888h-.816V12zm6.047-8.112c-1.504 0-2.144.72-2.48 1.616l-.128-1.616h-.704V12h.816V7.888c0-1.648.432-3.216 2.336-3.216h.592v-.784h-.432zm1.07 5.616c.064 1.68 1.424 2.592 3.456 2.592 1.744 0 3.152-.88 3.152-2.32 0-1.712-1.504-2.048-3.248-2.288-1.264-.176-2.384-.32-2.384-1.456 0-.928.912-1.536 2.288-1.536 1.296 0 2.224.624 2.368 1.68h.832c-.144-1.584-1.44-2.384-3.2-2.384-1.808-.016-3.104.912-3.104 2.304 0 1.632 1.504 1.936 3.168 2.16 1.36.192 2.464.368 2.464 1.568 0 .96-1.008 1.568-2.336 1.568-1.552 0-2.56-.72-2.624-1.888h-.832zm11.549-4.864h1.536V12h.816V4.64h2.432v-.752h-2.432V2.672c0-.8.304-1.12 1.12-1.12h1.328V.8h-1.36c-1.36 0-1.904.592-1.904 1.888v1.2h-1.536v.752zm9.084-.752c-1.504 0-2.144.72-2.48 1.616l-.128-1.616h-.704V12h.816V7.888c0-1.648.432-3.216 2.336-3.216h.592v-.784h-.432zm4.647 8.208c2.288 0 3.904-1.696 3.904-4.16 0-2.448-1.616-4.144-3.904-4.144S128.5 5.488 128.5 7.936c0 2.464 1.6 4.16 3.888 4.16zm0-.736c-1.808 0-3.056-1.408-3.056-3.424 0-2 1.248-3.424 3.056-3.424s3.056 1.424 3.056 3.424c0 2.016-1.248 3.424-3.056 3.424zm14.581-7.568c-1.488 0-2.448.832-2.912 2.032-.384-1.344-1.392-2.032-2.672-2.032-1.392 0-2.224.816-2.64 1.824l-.128-1.728h-.704V12h.816V7.872c0-1.984.96-3.328 2.512-3.328 1.408 0 2.288.992 2.288 2.864V12h.816V7.584c.048-1.856 1.008-3.04 2.528-3.04 1.408 0 2.256.944 2.256 2.784V12h.832V7.296c0-2.448-1.296-3.504-2.992-3.504zm8.924 2.864c0 3.28 1.616 5.44 4.048 5.44 2.4 0 4.032-2.16 4.032-5.44v-.512c0-3.184-1.632-5.44-4.032-5.44-2.432 0-4.048 2.256-4.048 5.44v.512zm7.232-.032c0 2.848-1.264 4.704-3.184 4.704-1.936 0-3.2-1.856-3.2-4.704v-.448c0-2.848 1.264-4.704 3.2-4.704 1.92 0 3.184 1.856 3.184 4.704v.448zm1.677 4.848c0 .368.256.608.608.608s.608-.24.608-.608-.256-.592-.608-.592-.608.224-.608.592zm2.044-4.816c0 3.28 1.616 5.44 4.048 5.44 2.4 0 4.032-2.16 4.032-5.44v-.512c0-3.184-1.632-5.44-4.032-5.44-2.432 0-4.048 2.256-4.048 5.44v.512zm7.232-.032c0 2.848-1.264 4.704-3.184 4.704-1.936 0-3.2-1.856-3.2-4.704v-.448c0-2.848 1.264-4.704 3.2-4.704 1.92 0 3.184 1.856 3.184 4.704v.448zm10.802-2.832c-1.52 0-2.576.816-3.088 1.952l-.128-1.856h-.704V15.2h.816v-5.072c.464 1.184 1.568 1.968 3.104 1.968 2.224 0 3.824-1.696 3.824-4.16 0-2.544-1.6-4.144-3.824-4.144zm-.064 7.568c-1.808 0-3.056-1.408-3.056-3.44 0-1.984 1.248-3.408 3.056-3.408s3.056 1.424 3.056 3.424c0 2.016-1.248 3.424-3.056 3.424zm5.919-9.184c.32 0 .576-.24.576-.576a.564.564 0 00-.576-.576c-.32 0-.576.24-.576.576 0 .336.256.576.576.576zM190.319 12h.816V3.888h-.816V12zm6.655-8.208c-1.52 0-2.576.816-3.088 1.952l-.128-1.856h-.704V15.2h.816v-5.072c.464 1.184 1.568 1.968 3.104 1.968 2.224 0 3.824-1.696 3.824-4.16 0-2.544-1.6-4.144-3.824-4.144zm-.064 7.568c-1.808 0-3.056-1.408-3.056-3.44 0-1.984 1.248-3.408 3.056-3.408s3.056 1.424 3.056 3.424c0 2.016-1.248 3.424-3.056 3.424zm5.12-1.856c.064 1.68 1.424 2.592 3.456 2.592 1.744 0 3.152-.88 3.152-2.32 0-1.712-1.504-2.048-3.248-2.288-1.264-.176-2.384-.32-2.384-1.456 0-.928.912-1.536 2.288-1.536 1.296 0 2.224.624 2.368 1.68h.832c-.144-1.584-1.44-2.384-3.2-2.384-1.808-.016-3.104.912-3.104 2.304 0 1.632 1.504 1.936 3.168 2.16 1.36.192 2.464.368 2.464 1.568 0 .96-1.008 1.568-2.336 1.568-1.552 0-2.56-.72-2.624-1.888h-.832zm19.613 1.744c-.48 0-.72-.16-.72-.784V6.688c0-1.856-1.136-2.896-3.168-2.896-1.856 0-3.088.896-3.296 2.368h.816c.208-.992 1.072-1.648 2.448-1.648 1.52 0 2.384.8 2.384 2.144v.704h-2.752c-2.08 0-3.2.896-3.2 2.416 0 1.44 1.136 2.32 2.864 2.32 1.648 0 2.624-.752 3.12-1.76v.288c-.032.96.368 1.376 1.328 1.376h.48v-.752h-.304zm-1.536-2.528c0 1.552-1.104 2.672-3.024 2.672-1.296 0-2.096-.656-2.096-1.664 0-1.072.8-1.664 2.304-1.664h2.816v.656zm6.675-4.928c-1.488 0-2.448.768-2.912 1.824l-.128-1.728h-.704V12h.816V8c0-2.112 1.072-3.456 2.8-3.456 1.568 0 2.512 1.024 2.512 2.944V12h.816V7.456c0-2.56-1.36-3.664-3.2-3.664zm11.505 1.92c-.496-1.152-1.584-1.92-3.104-1.92-2.224 0-3.824 1.696-3.824 4.144 0 2.56 1.6 4.16 3.824 4.16 1.52 0 2.576-.816 3.088-1.952l.128 1.856h.704V.8h-.816v4.912zm-3.04 5.648c-1.808 0-3.056-1.408-3.056-3.424 0-2 1.248-3.424 3.056-3.424s3.056 1.424 3.056 3.44c0 2-1.248 3.408-3.056 3.408zM.032 26.64h1.536V34h.816v-7.36h2.432v-.752H2.384v-1.216c0-.8.304-1.12 1.12-1.12h1.328V22.8h-1.36c-1.36 0-1.904.592-1.904 1.888v1.2H.032v.752zm8.934 7.456c2.288 0 3.904-1.696 3.904-4.16 0-2.448-1.616-4.144-3.904-4.144s-3.888 1.696-3.888 4.144c0 2.464 1.6 4.16 3.888 4.16zm0-.736c-1.808 0-3.056-1.408-3.056-3.424 0-2 1.248-3.424 3.056-3.424s3.056 1.424 3.056 3.424c0 2.016-1.248 3.424-3.056 3.424zm8.837-7.472c-1.504 0-2.144.72-2.48 1.616l-.128-1.616h-.704V34h.816v-4.112c0-1.648.432-3.216 2.336-3.216h.592v-.784h-.432zm13.09 7.36c-.48 0-.72-.16-.72-.784v-3.776c0-1.856-1.136-2.896-3.168-2.896-1.856 0-3.088.896-3.296 2.368h.816c.208-.992 1.072-1.648 2.448-1.648 1.52 0 2.384.8 2.384 2.144v.704h-2.752c-2.08 0-3.2.896-3.2 2.416 0 1.44 1.136 2.32 2.864 2.32 1.648 0 2.624-.752 3.12-1.76v.288c-.032.96.368 1.376 1.328 1.376h.48v-.752h-.304zm-1.536-2.528c0 1.552-1.104 2.672-3.024 2.672-1.296 0-2.096-.656-2.096-1.664 0-1.072.8-1.664 2.304-1.664h2.816v.656zM36.6 34h.816V22.8H36.6V34zm3.15-9.824c.32 0 .576-.24.576-.576a.564.564 0 00-.576-.576c-.32 0-.576.24-.576.576 0 .336.256.576.576.576zM39.335 34h.816v-8.112h-.816V34zm11.79-8.208c-1.488 0-2.448.832-2.912 2.032-.384-1.344-1.392-2.032-2.672-2.032-1.392 0-2.224.816-2.64 1.824l-.128-1.728h-.704V34h.816v-4.128c0-1.984.96-3.328 2.512-3.328 1.408 0 2.288.992 2.288 2.864V34h.816v-4.416c.048-1.856 1.008-3.04 2.528-3.04 1.408 0 2.256.944 2.256 2.784V34h.832v-4.704c0-2.448-1.296-3.504-2.992-3.504zm5.22-1.616c.32 0 .576-.24.576-.576a.564.564 0 00-.576-.576c-.32 0-.576.24-.576.576 0 .336.256.576.576.576zM55.929 34h.816v-8.112h-.816V34zm3.342-1.888c0 1.296.528 1.888 1.904 1.888h1.184v-.752h-1.12c-.848 0-1.152-.32-1.152-1.152V26.64h2.192v-.752h-2.192v-2.272h-.816v2.272h-1.536v.752h1.536v5.472zm7.664 1.984c1.776 0 3.136-1.152 3.488-2.784h-.832c-.32 1.264-1.392 2.048-2.72 2.048-1.808 0-2.944-1.376-2.976-3.264v-.144h6.624c0-.112.016-.24.016-.336-.08-2.416-1.568-3.824-3.744-3.824-2.224 0-3.744 1.696-3.744 4.096 0 2.544 1.584 4.208 3.888 4.208zm-2.976-4.832c.128-1.648 1.36-2.752 2.848-2.752 1.584 0 2.72.976 2.848 2.752h-5.696zm14.813-1.552c-.497-1.152-1.585-1.92-3.105-1.92-2.224 0-3.823 1.696-3.823 4.144 0 2.56 1.6 4.16 3.824 4.16 1.52 0 2.575-.816 3.087-1.952L78.885 34h.704V22.8h-.816v4.912zm-3.04 5.648c-1.808 0-3.056-1.408-3.056-3.424 0-2 1.248-3.424 3.055-3.424 1.809 0 3.056 1.424 3.056 3.44 0 2-1.248 3.408-3.056 3.408zm10.695-1.248c0 1.296.528 1.888 1.904 1.888h1.184v-.752h-1.12c-.848 0-1.152-.32-1.152-1.152V26.64h2.192v-.752h-2.192v-2.272h-.816v2.272h-1.536v.752h1.536v5.472zm4.746-7.936c.32 0 .576-.24.576-.576a.564.564 0 00-.576-.576c-.32 0-.576.24-.576.576 0 .336.256.576.576.576zM90.757 34h.816v-8.112h-.816V34zm11.79-8.208c-1.488 0-2.448.832-2.912 2.032-.384-1.344-1.392-2.032-2.672-2.032-1.392 0-2.224.816-2.64 1.824l-.128-1.728h-.704V34h.816v-4.128c0-1.984.96-3.328 2.512-3.328 1.408 0 2.288.992 2.288 2.864V34h.816v-4.416c.048-1.856 1.008-3.04 2.528-3.04 1.408 0 2.256.944 2.256 2.784V34h.832v-4.704c0-2.448-1.296-3.504-2.992-3.504zm8.263 8.304c1.776 0 3.136-1.152 3.488-2.784h-.832c-.32 1.264-1.392 2.048-2.72 2.048-1.808 0-2.944-1.376-2.976-3.264v-.144h6.624c0-.112.016-.24.016-.336-.08-2.416-1.568-3.824-3.744-3.824-2.224 0-3.744 1.696-3.744 4.096 0 2.544 1.584 4.208 3.888 4.208zm-2.976-4.832c.128-1.648 1.36-2.752 2.848-2.752 1.584 0 2.72.976 2.848 2.752h-5.696zm7.946 3.616c-.432 0-.704.272-.704.624 0 .384.256.576.56.576.16 0 .32-.064.4-.192.112.112.144.272.144.416 0 .608-.384 1.232-1.2 1.264v.48c1.104-.048 1.792-.784 1.792-1.84 0-.736-.416-1.328-.992-1.328zm6.53-6.24h5.216l-5.44 6.72V34h6.752v-.752h-5.68l5.456-6.736v-.624h-6.304v.752zm10.937 7.456c1.776 0 3.136-1.152 3.488-2.784h-.832c-.32 1.264-1.392 2.048-2.72 2.048-1.808 0-2.944-1.376-2.976-3.264v-.144h6.624c0-.112.016-.24.016-.336-.08-2.416-1.568-3.824-3.744-3.824-2.224 0-3.744 1.696-3.744 4.096 0 2.544 1.584 4.208 3.888 4.208zm-2.976-4.832c.128-1.648 1.36-2.752 2.848-2.752 1.584 0 2.72.976 2.848 2.752h-5.696zm11.501-3.376c-1.504 0-2.144.72-2.48 1.616l-.128-1.616h-.704V34h.816v-4.112c0-1.648.432-3.216 2.336-3.216h.592v-.784h-.432zm4.647 8.208c2.288 0 3.904-1.696 3.904-4.16 0-2.448-1.616-4.144-3.904-4.144s-3.888 1.696-3.888 4.144c0 2.464 1.6 4.16 3.888 4.16zm0-.736c-1.808 0-3.056-1.408-3.056-3.424 0-2 1.248-3.424 3.056-3.424s3.056 1.424 3.056 3.424c0 2.016-1.248 3.424-3.056 3.424zm13.374.736c1.84 0 3.136-1.056 3.456-2.704h-.864c-.272 1.2-1.248 1.968-2.592 1.968-1.776 0-3.008-1.392-3.008-3.408s1.216-3.44 3.008-3.44c1.36 0 2.32.768 2.608 1.984h.848c-.336-1.68-1.6-2.704-3.44-2.704-2.288 0-3.856 1.696-3.856 4.16 0 2.496 1.552 4.144 3.84 4.144zm8.626 0c2.288 0 3.904-1.696 3.904-4.16 0-2.448-1.616-4.144-3.904-4.144s-3.888 1.696-3.888 4.144c0 2.464 1.6 4.16 3.888 4.16zm0-.736c-1.808 0-3.056-1.408-3.056-3.424 0-2 1.248-3.424 3.056-3.424s3.056 1.424 3.056 3.424c0 2.016-1.248 3.424-3.056 3.424zM183 25.792c-1.488 0-2.448.832-2.912 2.032-.384-1.344-1.392-2.032-2.672-2.032-1.392 0-2.224.816-2.64 1.824l-.128-1.728h-.704V34h.816v-4.128c0-1.984.96-3.328 2.512-3.328 1.408 0 2.288.992 2.288 2.864V34h.816v-4.416c.048-1.856 1.008-3.04 2.528-3.04 1.408 0 2.256.944 2.256 2.784V34h.832v-4.704c0-2.448-1.296-3.504-2.992-3.504zm13.86 0c-1.488 0-2.448.832-2.912 2.032-.384-1.344-1.392-2.032-2.672-2.032-1.392 0-2.224.816-2.64 1.824l-.128-1.728h-.704V34h.816v-4.128c0-1.984.96-3.328 2.512-3.328 1.408 0 2.288.992 2.288 2.864V34h.816v-4.416c.048-1.856 1.008-3.04 2.528-3.04 1.408 0 2.256.944 2.256 2.784V34h.832v-4.704c0-2.448-1.296-3.504-2.992-3.504zm5.219-1.616c.32 0 .576-.24.576-.576a.564.564 0 00-.576-.576c-.32 0-.576.24-.576.576 0 .336.256.576.576.576zM201.663 34h.816v-8.112h-.816V34zm2.367-2.496c.064 1.68 1.424 2.592 3.456 2.592 1.744 0 3.152-.88 3.152-2.32 0-1.712-1.504-2.048-3.248-2.288-1.264-.176-2.384-.32-2.384-1.456 0-.928.912-1.536 2.288-1.536 1.296 0 2.224.624 2.368 1.68h.832c-.144-1.584-1.44-2.384-3.2-2.384-1.808-.016-3.104.912-3.104 2.304 0 1.632 1.504 1.936 3.168 2.16 1.36.192 2.464.368 2.464 1.568 0 .96-1.008 1.568-2.336 1.568-1.552 0-2.56-.72-2.624-1.888h-.832zm7.64 0c.064 1.68 1.424 2.592 3.456 2.592 1.744 0 3.152-.88 3.152-2.32 0-1.712-1.504-2.048-3.248-2.288-1.264-.176-2.384-.32-2.384-1.456 0-.928.912-1.536 2.288-1.536 1.296 0 2.224.624 2.368 1.68h.832c-.144-1.584-1.44-2.384-3.2-2.384-1.808-.016-3.104.912-3.104 2.304 0 1.632 1.504 1.936 3.168 2.16 1.36.192 2.464.368 2.464 1.568 0 .96-1.008 1.568-2.336 1.568-1.552 0-2.56-.72-2.624-1.888h-.832zm8.581-7.328c.32 0 .576-.24.576-.576a.564.564 0 00-.576-.576c-.32 0-.576.24-.576.576 0 .336.256.576.576.576zM219.835 34h.816v-8.112h-.816V34zm6.318.096c2.288 0 3.904-1.696 3.904-4.16 0-2.448-1.616-4.144-3.904-4.144s-3.888 1.696-3.888 4.144c0 2.464 1.6 4.16 3.888 4.16zm0-.736c-1.808 0-3.056-1.408-3.056-3.424 0-2 1.248-3.424 3.056-3.424s3.056 1.424 3.056 3.424c0 2.016-1.248 3.424-3.056 3.424zm9.27-7.568c-1.488 0-2.448.768-2.912 1.824l-.128-1.728h-.704V34h.816v-4c0-2.112 1.072-3.456 2.8-3.456 1.568 0 2.512 1.024 2.512 2.944V34h.816v-4.544c0-2.56-1.36-3.664-3.2-3.664zm4.638 5.712c.064 1.68 1.424 2.592 3.456 2.592 1.744 0 3.152-.88 3.152-2.32 0-1.712-1.504-2.048-3.248-2.288-1.264-.176-2.384-.32-2.384-1.456 0-.928.912-1.536 2.288-1.536 1.296 0 2.224.624 2.368 1.68h.832c-.144-1.584-1.44-2.384-3.2-2.384-1.808-.016-3.104.912-3.104 2.304 0 1.632 1.504 1.936 3.168 2.16 1.36.192 2.464.368 2.464 1.568 0 .96-1.008 1.568-2.336 1.568-1.552 0-2.56-.72-2.624-1.888h-.832zm7.928 1.968c0 .368.256.608.608.608s.608-.24.608-.608-.256-.592-.608-.592-.608.224-.608.592zm6.061-9.36l-2 .864.032-2.192h-.592l.032 2.192-1.984-.864-.24.56 2.048.784-1.408 1.68.432.4 1.408-1.744 1.408 1.744.448-.4-1.392-1.664 2.032-.784-.224-.576z" fill="#000"/></svg>