<svg width="167" height="85" viewBox="0 0 167 85" fill="none" xmlns="http://www.w3.org/2000/svg"><path d="M.54 3.854h5.832V20h3.105V3.854h5.832V1.1H.54v2.754zm22.439 2.322c-2.268 0-3.375.918-4.077 2.079l-.324-2.079h-2.592V20h2.916v-6.939c0-2.133.837-4.158 3.429-4.158h1.296V6.176h-.648zm14.66 11.286c-.594 0-.89-.189-.89-.891v-5.535c0-3.267-2.107-5.022-5.779-5.022-3.483 0-5.805 1.674-6.102 4.374h2.862c.216-1.215 1.377-2.025 3.105-2.025 1.917 0 3.024.945 3.024 2.484v.837h-3.483c-3.86 0-5.913 1.593-5.913 4.428 0 2.565 2.106 4.05 5.13 4.05 2.241 0 3.645-.972 4.563-2.376 0 1.377.648 2.214 2.538 2.214h1.54v-2.538h-.595zm-3.78-3.132c-.027 2.133-1.43 3.564-3.86 3.564-1.594 0-2.566-.81-2.566-1.971 0-1.404 1-2.079 2.808-2.079h3.618v.486zm16.36-6.237c-.89-1.215-2.376-2.079-4.482-2.079-3.753 0-6.534 2.808-6.534 7.074 0 4.428 2.781 7.074 6.534 7.074 2.187 0 3.618-1.026 4.51-2.241l.35 2.079h2.538V1.1H50.22v6.993zm-3.996 9.612c-2.43 0-4.023-1.89-4.023-4.617 0-2.7 1.593-4.59 4.023-4.59 2.43 0 4.023 1.89 4.023 4.644 0 2.673-1.593 4.563-4.023 4.563zm16.323 2.457c3.429 0 5.75-2.079 6.237-4.806h-2.916c-.405 1.539-1.701 2.43-3.483 2.43-2.295 0-3.78-1.539-3.861-3.888v-.189h10.422c.054-.378.08-.756.08-1.107-.08-4.05-2.753-6.588-6.75-6.588-4.076 0-6.803 2.835-6.803 7.101 0 4.239 2.727 7.047 7.074 7.047zm-3.915-8.586c.216-1.971 1.809-3.213 3.672-3.213 2.025 0 3.456 1.161 3.699 3.213H58.63zM77.454 20h13.392v-2.619h-9.153l5.022-4.185c2.295-1.917 3.996-3.672 3.996-6.48 0-3.456-2.376-5.778-6.615-5.778-4.023 0-6.615 2.619-6.615 6.21v.486h2.997V7.31c0-2.349 1.458-3.807 3.618-3.807s3.591 1.188 3.591 3.348c0 1.809-1.269 3.132-2.97 4.563l-7.263 6.183V20zm15.225-9.018c0 5.697 3.051 9.18 7.452 9.18s7.452-3.483 7.452-9.18v-.864c0-5.481-3.051-9.18-7.452-9.18s-7.452 3.699-7.452 9.18v.864zm11.88-.108c0 4.239-1.782 6.669-4.428 6.669s-4.428-2.43-4.428-6.669v-.648c0-4.212 1.782-6.669 4.428-6.669s4.428 2.457 4.428 6.669v.648zM5.67 52h3.645l3.807-13.905L16.983 52h3.618l5.427-18.9h-3.186l-4.05 14.958L14.688 33.1h-2.943L7.533 48.058 3.51 33.073.297 33.1 5.67 52zm27.344.162c4.212 0 7.047-2.835 7.047-7.074 0-4.212-2.835-7.074-7.047-7.074s-7.047 2.862-7.047 7.074c0 4.239 2.835 7.074 7.047 7.074zm0-2.484c-2.457 0-4.05-1.917-4.05-4.59s1.593-4.59 4.05-4.59 4.077 1.917 4.077 4.59-1.62 4.59-4.077 4.59zm16.385-11.502c-2.268 0-3.375.918-4.077 2.079l-.324-2.079h-2.592V52h2.916v-6.939c0-2.133.837-4.158 3.429-4.158h1.296v-2.727h-.648zM51.845 52h2.916V33.1h-2.916V52zm16.278-11.907c-.892-1.215-2.377-2.079-4.483-2.079-3.752 0-6.534 2.808-6.534 7.074 0 4.428 2.782 7.074 6.535 7.074 2.187 0 3.617-1.026 4.509-2.241L68.5 52h2.538V33.1h-2.915v6.993zm-3.997 9.612c-2.43 0-4.023-1.89-4.023-4.617 0-2.7 1.593-4.59 4.023-4.59 2.43 0 4.023 1.89 4.023 4.644 0 2.673-1.593 4.563-4.023 4.563zM81.093 52h3.105V33.1h-3.105V52zm13.559-13.986c-2.241 0-3.564.891-4.428 1.971l-.324-1.809h-2.538V52h2.916v-6.966c0-2.808 1.377-4.509 3.699-4.509 2.187 0 3.294 1.404 3.294 4.023V52h2.943v-7.695c0-4.617-2.511-6.291-5.562-6.291zm18.611 2.079c-.891-1.215-2.376-2.079-4.482-2.079-3.753 0-6.534 2.808-6.534 7.074 0 4.428 2.781 7.074 6.534 7.074 2.187 0 3.618-1.026 4.509-2.241l.351 2.079h2.538V33.1h-2.916v6.993zm-3.996 9.612c-2.43 0-4.023-1.89-4.023-4.617 0-2.7 1.593-4.59 4.023-4.59 2.43 0 4.023 1.89 4.023 4.644 0 2.673-1.593 4.563-4.023 4.563zm11.247-13.473c.999 0 1.782-.729 1.782-1.755 0-1.026-.783-1.755-1.782-1.755s-1.782.729-1.782 1.755c0 1.026.783 1.755 1.782 1.755zM119.029 52h2.916V38.176h-2.916V52zm12.119.162c3.537 0 5.886-1.971 6.426-5.103h-3.078c-.351 1.593-1.539 2.619-3.321 2.619-2.349 0-3.888-1.863-3.888-4.563 0-2.727 1.539-4.617 3.888-4.617 1.809 0 2.97.999 3.348 2.619h3.051c-.567-3.132-2.781-5.103-6.345-5.103-4.185 0-6.939 2.835-6.939 7.101 0 4.32 2.673 7.047 6.858 7.047zm15.219 0c3.429 0 5.751-2.079 6.237-4.806h-2.916c-.405 1.539-1.701 2.43-3.483 2.43-2.295 0-3.78-1.539-3.861-3.888v-.189h10.422c.054-.378.081-.756.081-1.107-.081-4.05-2.754-6.588-6.75-6.588-4.077 0-6.804 2.835-6.804 7.101 0 4.239 2.727 7.047 7.074 7.047zm-3.915-8.586c.216-1.971 1.809-3.213 3.672-3.213 2.025 0 3.456 1.161 3.699 3.213h-7.371zm12.079 3.861c.081 2.997 2.619 4.725 6.318 4.725 3.348 0 5.859-1.674 5.859-4.32 0-3.078-2.565-3.726-5.724-4.104-1.998-.216-3.321-.378-3.321-1.674 0-1.107 1.134-1.809 2.862-1.809 1.728 0 2.916.891 3.078 2.16h2.862c-.189-2.835-2.592-4.401-5.994-4.401-3.321-.027-5.67 1.674-5.67 4.293 0 2.862 2.484 3.537 5.643 3.915 2.133.27 3.402.378 3.402 1.863 0 1.107-1.188 1.809-2.997 1.809-2.106 0-3.348-1.026-3.456-2.457h-2.862zM5.67 84h3.645l3.807-13.905L16.983 84h3.618l5.427-18.9h-3.186l-4.05 14.958L14.688 65.1h-2.943L7.533 80.058 3.51 65.073.297 65.1 5.67 84zm23.534-15.768c1 0 1.782-.729 1.782-1.755 0-1.026-.783-1.755-1.782-1.755s-1.782.729-1.782 1.755c0 1.026.783 1.755 1.782 1.755zM27.72 84h2.916V70.176H27.72V84zm6.773-3.753c0 2.511 1.135 3.753 3.78 3.753h2.7v-2.565H38.92c-1.107 0-1.485-.405-1.485-1.485v-7.209h3.375v-2.565h-3.375v-3.861h-2.943v3.861H32.09v2.565h2.402v7.506zm15.599-10.233c-2.16 0-3.483.972-4.348 2.16V65.1h-2.916V84h2.916v-6.993c0-2.781 1.404-4.482 3.7-4.482 2.16 0 3.32 1.404 3.32 4.023V84h2.916v-7.695c0-4.617-2.51-6.291-5.589-6.291zM64.76 84.162c4.212 0 7.047-2.835 7.047-7.074 0-4.212-2.835-7.074-7.047-7.074s-7.047 2.862-7.047 7.074c0 4.239 2.835 7.074 7.047 7.074zm0-2.484c-2.457 0-4.05-1.917-4.05-4.59s1.593-4.59 4.05-4.59 4.077 1.917 4.077 4.59-1.62 4.59-4.077 4.59zm18.869-4.59c0 2.862-1.35 4.536-3.564 4.536-2.133 0-3.213-1.377-3.213-4.077v-7.371h-2.916v7.695c0 4.725 2.51 6.291 5.454 6.291 2.133 0 3.402-.864 4.266-1.917L83.98 84h2.565V70.176h-2.916v6.912zm6.867 3.159c0 2.511 1.134 3.753 3.78 3.753h2.7v-2.565h-2.052c-1.107 0-1.485-.405-1.485-1.485v-7.209h3.375v-2.565H93.44v-3.861h-2.943v3.861h-2.403v2.565h2.403v7.506zm23.749 3.915c4.401 0 7.614-2.592 8.208-6.588h-3.213c-.594 2.403-2.403 3.861-5.022 3.861-3.564 0-5.724-2.862-5.724-6.885 0-4.05 2.214-6.885 5.805-6.885 2.565 0 4.347 1.485 4.968 3.861h3.213c-.621-3.996-3.726-6.588-8.046-6.588-5.589 0-9.126 3.861-9.126 9.612 0 5.805 3.429 9.612 8.937 9.612zm17.013 0c4.212 0 7.047-2.835 7.047-7.074 0-4.212-2.835-7.074-7.047-7.074s-7.047 2.862-7.047 7.074c0 4.239 2.835 7.074 7.047 7.074zm0-2.484c-2.457 0-4.05-1.917-4.05-4.59s1.593-4.59 4.05-4.59 4.077 1.917 4.077 4.59-1.62 4.59-4.077 4.59zm8.719-2.241c.081 2.997 2.619 4.725 6.318 4.725 3.348 0 5.859-1.674 5.859-4.32 0-3.078-2.565-3.726-5.724-4.104-1.998-.216-3.321-.378-3.321-1.674 0-1.107 1.134-1.809 2.862-1.809 1.728 0 2.916.891 3.078 2.16h2.862c-.189-2.835-2.592-4.401-5.994-4.401-3.321-.027-5.67 1.674-5.67 4.293 0 2.862 2.484 3.537 5.643 3.915 2.133.27 3.402.378 3.402 1.863 0 1.107-1.188 1.809-2.997 1.809-2.106 0-3.348-1.026-3.456-2.457h-2.862zm15.435.81c0 2.511 1.134 3.753 3.78 3.753h2.7v-2.565h-2.052c-1.107 0-1.485-.405-1.485-1.485v-7.209h3.375v-2.565h-3.375v-3.861h-2.943v3.861h-2.403v2.565h2.403v7.506z" fill="#000"/></svg>