<svg width="100" height="25" viewBox="0 0 100 25" fill="none" xmlns="http://www.w3.org/2000/svg"><rect width="100" height="25" rx="12.5" fill="#000"/><path d="M17.28 8.32h3.178V17h1.218V8.32h3.178V7.2H17.28v1.12zm11.232 1.54c-1.274 0-1.82.532-2.156 1.078l-.154-1.078h-.994V17h1.148v-3.64c0-1.134.406-2.38 1.904-2.38h.574V9.86h-.322zm7.385 6.09c-.322 0-.462-.098-.462-.476v-3.122c0-1.666-1.05-2.576-2.87-2.576-1.722 0-2.856.826-3.024 2.226h1.148c.14-.728.812-1.204 1.82-1.204 1.12 0 1.778.56 1.778 1.484v.49h-2.1c-1.876 0-2.87.798-2.87 2.226 0 1.302 1.064 2.086 2.632 2.086 1.232 0 1.946-.546 2.394-1.19.014.7.336 1.106 1.288 1.106h.63v-1.05h-.364zm-1.61-1.862c0 1.19-.826 2.016-2.254 2.016-.952 0-1.554-.476-1.554-1.176 0-.812.574-1.19 1.596-1.19h2.212v.35zm8.402-3.136c-.434-.686-1.246-1.176-2.45-1.176-1.974 0-3.43 1.47-3.43 3.654 0 2.324 1.456 3.654 3.43 3.654 1.204 0 1.974-.574 2.45-1.232L42.843 17h.994V7.2H42.69v3.752zm-2.338 5.11c-1.414 0-2.366-1.078-2.366-2.632s.952-2.632 2.366-2.632c1.4 0 2.352 1.092 2.352 2.66 0 1.526-.952 2.604-2.352 2.604zm8.34 1.022c1.652 0 2.828-1.05 3.108-2.478h-1.162c-.238.924-1.022 1.456-2.03 1.456-1.358 0-2.212-.952-2.254-2.31v-.098h5.544c.014-.168.028-.336.028-.49-.056-2.114-1.372-3.388-3.388-3.388S45.15 11.26 45.15 13.43c0 2.184 1.4 3.654 3.542 3.654zm-2.268-4.382c.112-1.162 1.078-1.918 2.128-1.918 1.19 0 2.03.686 2.142 1.918h-4.27zM60.4 9.776c-1.204 0-1.932.504-2.352 1.05l-.154-.966H56.9V17h1.148v-3.57c0-1.61.812-2.604 2.156-2.604 1.246 0 1.932.784 1.932 2.268V17h1.148v-3.976c0-2.366-1.274-3.248-2.884-3.248zm7.556 7.308c2.086 0 3.542-1.484 3.542-3.654s-1.456-3.654-3.542-3.654-3.542 1.484-3.542 3.654 1.456 3.654 3.542 3.654zm0-1.022c-1.414 0-2.366-1.106-2.366-2.632s.952-2.632 2.366-2.632c1.414 0 2.366 1.106 2.366 2.632s-.952 2.632-2.366 2.632zm6.264.938h1.26l1.792-5.306L78.993 17h1.26l2.38-7.14H81.47l-1.862 5.81-1.778-5.81h-1.064l-1.876 5.81-1.778-5.81h-1.204l2.31 7.14z" fill="#fff"/></svg>