<svg width="268" height="17" viewBox="0 0 268 17" fill="none" xmlns="http://www.w3.org/2000/svg"><path d="M.36 2.236h3.888V13h2.07V2.236h3.888V.4H.36v1.836zm12.043.252c.666 0 1.188-.486 1.188-1.17 0-.684-.522-1.17-1.188-1.17-.666 0-1.188.486-1.188 1.17 0 .684.522 1.17 1.188 1.17zM11.413 13h1.944V3.784h-1.944V13zm10.888-7.776c-.594-.918-1.584-1.548-3.024-1.548-2.502 0-4.356 1.854-4.356 4.68 0 2.934 1.854 4.68 4.356 4.68 1.44 0 2.394-.594 3.006-1.512v1.026c0 1.764-.954 2.574-2.646 2.574-1.368 0-2.268-.594-2.502-1.62h-1.98c.18 2.07 1.89 3.204 4.338 3.204 3.312 0 4.716-1.584 4.716-4.086V3.784h-1.692l-.216 1.44zm-2.7 6.174c-1.62 0-2.682-1.242-2.682-3.042 0-1.782 1.062-3.042 2.682-3.042 1.62 0 2.682 1.26 2.682 3.078 0 1.764-1.062 3.006-2.682 3.006zm11.35-7.722c-1.44 0-2.323.648-2.899 1.44V.4h-1.944V13h1.944V8.338c0-1.854.936-2.988 2.466-2.988 1.44 0 2.214.936 2.214 2.682V13h1.944V7.87c0-3.078-1.674-4.194-3.726-4.194zm6.16 6.822c0 1.674.755 2.502 2.52 2.502h1.8v-1.71h-1.369c-.738 0-.99-.27-.99-.99V5.494h2.25v-1.71h-2.25V1.21H37.11v2.574h-1.602v1.71h1.602v5.004zm9.765-.54c.054 1.998 1.746 3.15 4.212 3.15 2.232 0 3.906-1.116 3.906-2.88 0-2.052-1.71-2.484-3.816-2.736-1.332-.144-2.214-.252-2.214-1.116 0-.738.756-1.206 1.908-1.206s1.944.594 2.052 1.44h1.908c-.126-1.89-1.728-2.934-3.996-2.934-2.214-.018-3.78 1.116-3.78 2.862 0 1.908 1.656 2.358 3.762 2.61 1.422.18 2.268.252 2.268 1.242 0 .738-.792 1.206-1.998 1.206-1.404 0-2.232-.684-2.304-1.638h-1.908zm14.557-6.282c-1.44 0-2.394.666-3.006 1.476l-.234-1.368H56.5V16.6h1.944v-4.896c.576.828 1.566 1.404 2.988 1.404 2.52 0 4.356-1.872 4.356-4.716 0-2.952-1.836-4.716-4.356-4.716zm-.324 7.794c-1.62 0-2.682-1.278-2.682-3.114 0-1.782 1.062-3.024 2.682-3.024 1.62 0 2.7 1.242 2.7 3.06 0 1.8-1.08 3.078-2.7 3.078zm10.9-7.686c-1.512 0-2.25.612-2.718 1.386l-.216-1.386h-1.728V13h1.944V8.374c0-1.422.558-2.772 2.286-2.772h.864V3.784h-.432zm5.565 9.324c2.286 0 3.834-1.386 4.158-3.204h-1.944c-.27 1.026-1.134 1.62-2.322 1.62-1.53 0-2.52-1.026-2.574-2.592v-.126h6.948a5.28 5.28 0 00.054-.738c-.054-2.7-1.836-4.392-4.5-4.392-2.718 0-4.536 1.89-4.536 4.734 0 2.826 1.818 4.698 4.716 4.698zm-2.61-5.724c.144-1.314 1.206-2.142 2.448-2.142 1.35 0 2.304.774 2.466 2.142h-4.914zm16.926 3.924c-.396 0-.594-.126-.594-.594v-3.69c0-2.178-1.404-3.348-3.852-3.348-2.322 0-3.87 1.116-4.068 2.916h1.908c.144-.81.918-1.35 2.07-1.35 1.278 0 2.016.63 2.016 1.656v.558h-2.322c-2.574 0-3.942 1.062-3.942 2.952 0 1.71 1.404 2.7 3.42 2.7 1.494 0 2.43-.648 3.042-1.584 0 .918.432 1.476 1.692 1.476h1.026v-1.692h-.396zM89.37 9.22c-.018 1.422-.954 2.376-2.574 2.376-1.062 0-1.71-.54-1.71-1.314 0-.936.666-1.386 1.872-1.386h2.412v.324zm10.906-4.158c-.594-.81-1.584-1.386-2.988-1.386-2.502 0-4.356 1.872-4.356 4.716 0 2.952 1.854 4.716 4.356 4.716 1.458 0 2.412-.684 3.006-1.494l.234 1.386h1.692V.4h-1.944v4.662zm-2.664 6.408c-1.62 0-2.682-1.26-2.682-3.078 0-1.8 1.062-3.06 2.682-3.06 1.62 0 2.682 1.26 2.682 3.096 0 1.782-1.062 3.042-2.682 3.042zm6.112-1.512c.054 1.998 1.746 3.15 4.212 3.15 2.232 0 3.906-1.116 3.906-2.88 0-2.052-1.71-2.484-3.816-2.736-1.332-.144-2.214-.252-2.214-1.116 0-.738.756-1.206 1.908-1.206s1.944.594 2.052 1.44h1.908c-.126-1.89-1.728-2.934-3.996-2.934-2.214-.018-3.78 1.116-3.78 2.862 0 1.908 1.656 2.358 3.762 2.61 1.422.18 2.268.252 2.268 1.242 0 .738-.792 1.206-1.998 1.206-1.404 0-2.232-.684-2.304-1.638h-1.908zm18.586 3.15c2.808 0 4.698-1.89 4.698-4.716 0-2.808-1.89-4.716-4.698-4.716-2.808 0-4.698 1.908-4.698 4.716 0 2.826 1.89 4.716 4.698 4.716zm0-1.656c-1.638 0-2.7-1.278-2.7-3.06s1.062-3.06 2.7-3.06c1.638 0 2.718 1.278 2.718 3.06s-1.08 3.06-2.718 3.06zm11.121-7.776c-1.494 0-2.376.594-2.952 1.314l-.216-1.206h-1.692V13h1.944V8.356c0-1.872.918-3.006 2.466-3.006 1.458 0 2.196.936 2.196 2.682V13h1.962V7.87c0-3.078-1.674-4.194-3.708-4.194zm16.688 2.772c1.17-.27 2.178-1.332 2.178-2.808 0-1.962-1.692-3.348-4.392-3.348-2.682 0-4.374 1.386-4.374 3.348 0 1.53 1.008 2.538 2.16 2.826-1.35.306-2.502 1.35-2.502 3.096 0 2.088 1.746 3.546 4.716 3.546s4.734-1.458 4.734-3.546c0-1.782-1.17-2.826-2.52-3.114zm-2.214-4.608c1.44 0 2.376.756 2.376 1.854 0 1.116-.936 1.872-2.376 1.872-1.422 0-2.358-.756-2.358-1.872 0-1.098.936-1.854 2.358-1.854zm0 9.738c-1.584 0-2.682-.9-2.682-2.124 0-1.224 1.098-2.106 2.682-2.106 1.602 0 2.7.882 2.7 2.106 0 1.224-1.098 2.124-2.7 2.124zm6.061-4.59c0 3.798 2.034 6.12 4.968 6.12s4.968-2.322 4.968-6.12v-.576c0-3.654-2.034-6.12-4.968-6.12s-4.968 2.466-4.968 6.12v.576zm7.92-.072c0 2.826-1.188 4.446-2.952 4.446s-2.952-1.62-2.952-4.446v-.432c0-2.808 1.188-4.446 2.952-4.446s2.952 1.638 2.952 4.446v.432zm6.496.126h-2.862V8.68h2.862v3.042h1.782V8.68h2.88V7.042h-2.88V4h-1.782v3.042zM179.711 13h2.07V7.672h4.932V5.89h-4.932V2.236h5.976V.4h-8.046V13zm13.122.108c2.808 0 4.698-1.89 4.698-4.716 0-2.808-1.89-4.716-4.698-4.716-2.808 0-4.698 1.908-4.698 4.716 0 2.826 1.89 4.716 4.698 4.716zm0-1.656c-1.638 0-2.7-1.278-2.7-3.06s1.062-3.06 2.7-3.06c1.638 0 2.718 1.278 2.718 3.06s-1.08 3.06-2.718 3.06zm10.924-7.668c-1.512 0-2.25.612-2.718 1.386l-.216-1.386h-1.728V13h1.944V8.374c0-1.422.558-2.772 2.286-2.772h.864V3.784h-.432zm5.565 9.324c2.286 0 3.834-1.386 4.158-3.204h-1.944c-.27 1.026-1.134 1.62-2.322 1.62-1.53 0-2.52-1.026-2.574-2.592v-.126h6.948a5.28 5.28 0 00.054-.738c-.054-2.7-1.836-4.392-4.5-4.392-2.718 0-4.536 1.89-4.536 4.734 0 2.826 1.818 4.698 4.716 4.698zm-2.61-5.724c.144-1.314 1.206-2.142 2.448-2.142 1.35 0 2.304.774 2.466 2.142h-4.914zM213.838 13h2.142l2.43-3.348L220.822 13h2.268l-3.474-4.716 3.276-4.5h-2.142l-2.25 3.114-2.196-3.114h-2.268l3.258 4.5L213.838 13zm19.737-9.324c-1.44 0-2.394.666-3.006 1.476l-.234-1.368h-1.692V16.6h1.944v-4.896c.576.828 1.566 1.404 2.988 1.404 2.52 0 4.356-1.872 4.356-4.716 0-2.952-1.836-4.716-4.356-4.716zm-.324 7.794c-1.62 0-2.682-1.278-2.682-3.114 0-1.782 1.062-3.024 2.682-3.024 1.62 0 2.7 1.242 2.7 3.06 0 1.8-1.08 3.078-2.7 3.078zm14.662-.162c-.396 0-.594-.126-.594-.594v-3.69c0-2.178-1.404-3.348-3.852-3.348-2.322 0-3.87 1.116-4.068 2.916h1.908c.144-.81.918-1.35 2.07-1.35 1.278 0 2.016.63 2.016 1.656v.558h-2.322c-2.574 0-3.942 1.062-3.942 2.952 0 1.71 1.404 2.7 3.42 2.7 1.494 0 2.43-.648 3.042-1.584 0 .918.432 1.476 1.692 1.476h1.026v-1.692h-.396zm-2.52-2.088c-.018 1.422-.954 2.376-2.574 2.376-1.062 0-1.71-.54-1.71-1.314 0-.936.666-1.386 1.872-1.386h2.412v.324zm4.965-6.732c.666 0 1.188-.486 1.188-1.17 0-.684-.522-1.17-1.188-1.17-.666 0-1.188.486-1.188 1.17 0 .684.522 1.17 1.188 1.17zM249.368 13h1.944V3.784h-1.944V13zm8.512-9.216c-1.512 0-2.25.612-2.718 1.386l-.216-1.386h-1.728V13h1.944V8.374c0-1.422.558-2.772 2.286-2.772h.864V3.784h-.432zm1.076 6.174c.054 1.998 1.746 3.15 4.212 3.15 2.232 0 3.906-1.116 3.906-2.88 0-2.052-1.71-2.484-3.816-2.736-1.332-.144-2.214-.252-2.214-1.116 0-.738.756-1.206 1.908-1.206s1.944.594 2.052 1.44h1.908c-.126-1.89-1.728-2.934-3.996-2.934-2.214-.018-3.78 1.116-3.78 2.862 0 1.908 1.656 2.358 3.762 2.61 1.422.18 2.268.252 2.268 1.242 0 .738-.792 1.206-1.998 1.206-1.404 0-2.232-.684-2.304-1.638h-1.908z" fill="#000"/></svg>