<svg width="144" height="45" viewBox="0 0 144 45" fill="none" xmlns="http://www.w3.org/2000/svg"><path d="M7.728 15.126c2.331 0 3.843-1.05 4.557-2.1l.21 1.974h1.869V6.957H7.98v2.037h4.074v.357c-.126 2.373-1.953 3.654-4.221 3.654-2.814 0-4.578-2.205-4.578-5.355 0-3.15 1.806-5.355 4.599-5.355 2.037 0 3.444 1.134 3.885 3.003h2.499C13.797 2.19 11.319.174 7.917.174 3.549.174.777 3.177.777 7.65s2.835 7.476 6.951 7.476zM16.822 15h2.268V.3h-2.268V15zm9.573.126c3.276 0 5.481-2.205 5.481-5.502 0-3.276-2.205-5.502-5.48-5.502-3.277 0-5.482 2.226-5.482 5.502 0 3.297 2.205 5.502 5.481 5.502zm0-1.932c-1.91 0-3.15-1.491-3.15-3.57 0-2.079 1.24-3.57 3.15-3.57 1.911 0 3.171 1.491 3.171 3.57 0 2.079-1.26 3.57-3.17 3.57zm13.059-9.072c-1.66 0-2.772.756-3.486 1.722V.3H33.7V15h1.974l.273-1.554c.672.966 1.827 1.68 3.507 1.68 2.94 0 5.082-2.205 5.082-5.502 0-3.465-2.142-5.502-5.082-5.502zm-.378 9.093c-1.89 0-3.13-1.491-3.13-3.612 0-2.079 1.24-3.549 3.13-3.549s3.15 1.47 3.15 3.57c0 2.121-1.26 3.591-3.15 3.591zm17.105-.189c-.462 0-.693-.147-.693-.693V8.028c0-2.541-1.638-3.906-4.494-3.906-2.709 0-4.515 1.302-4.746 3.402h2.226c.168-.945 1.071-1.575 2.415-1.575 1.491 0 2.352.735 2.352 1.932v.651h-2.709c-3.003 0-4.599 1.239-4.599 3.444 0 1.995 1.638 3.15 3.99 3.15 1.743 0 2.835-.756 3.55-1.848 0 1.071.503 1.722 1.973 1.722h1.197v-1.974h-.462zm-2.94-2.436c-.02 1.659-1.113 2.772-3.003 2.772-1.239 0-1.995-.63-1.995-1.533 0-1.092.777-1.617 2.184-1.617h2.814v.378zM57.88 15h2.268V.3h-2.268V15zM80.112 4.122c-1.764 0-2.982.777-3.675 1.953-.651-1.386-1.911-1.953-3.318-1.953-1.617.021-2.541.735-3.15 1.533l-.252-1.407h-1.974V15h2.268V9.246c0-1.911.966-3.171 2.52-3.171 1.49 0 2.268.987 2.268 2.877V15h2.289V9.183c0-1.932.987-3.108 2.54-3.108 1.47 0 2.248.987 2.248 2.877V15h2.268V8.805c0-3.402-1.806-4.683-4.032-4.683zm15.916 8.904c-.462 0-.693-.147-.693-.693V8.028c0-2.541-1.638-3.906-4.494-3.906-2.71 0-4.515 1.302-4.746 3.402h2.226c.168-.945 1.07-1.575 2.415-1.575 1.49 0 2.352.735 2.352 1.932v.651h-2.71c-3.002 0-4.598 1.239-4.598 3.444 0 1.995 1.638 3.15 3.99 3.15 1.743 0 2.835-.756 3.549-1.848 0 1.071.504 1.722 1.974 1.722h1.197v-1.974h-.462zm-2.94-2.436c-.021 1.659-1.113 2.772-3.003 2.772-1.24 0-1.995-.63-1.995-1.533 0-1.092.777-1.617 2.184-1.617h2.814v.378zm10.076-6.342c-1.764 0-2.625.714-3.17 1.617l-.253-1.617h-2.016V15h2.268V9.603c0-1.659.651-3.234 2.667-3.234h1.008V4.248h-.504zM105.067 15h2.268v-2.73l1.932-2.016L112.438 15h2.688l-4.305-6.405 4.053-4.347h-2.667l-4.872 5.208V.3h-2.268V15zm15.583.126c2.667 0 4.473-1.617 4.851-3.738h-2.268c-.315 1.197-1.323 1.89-2.709 1.89-1.785 0-2.94-1.197-3.003-3.024v-.147h8.106a6.16 6.16 0 00.063-.861c-.063-3.15-2.142-5.124-5.25-5.124-3.171 0-5.292 2.205-5.292 5.523 0 3.297 2.121 5.481 5.502 5.481zm-3.045-6.678c.168-1.533 1.407-2.499 2.856-2.499 1.575 0 2.688.903 2.877 2.499h-5.733zm10.613 3.633c0 1.953.882 2.919 2.94 2.919h2.1v-1.995h-1.596c-.861 0-1.155-.315-1.155-1.155V6.243h2.625V4.248h-2.625V1.245h-2.289v3.003h-1.869v1.995h1.869v5.838zm6.021-.63c.063 2.331 2.037 3.675 4.914 3.675 2.604 0 4.557-1.302 4.557-3.36 0-2.394-1.995-2.898-4.452-3.192-1.554-.168-2.583-.294-2.583-1.302 0-.861.882-1.407 2.226-1.407 1.344 0 2.268.693 2.394 1.68h2.226c-.147-2.205-2.016-3.423-4.662-3.423-2.583-.021-4.41 1.302-4.41 3.339 0 2.226 1.932 2.751 4.389 3.045 1.659.21 2.646.294 2.646 1.449 0 .861-.924 1.407-2.331 1.407-1.638 0-2.604-.798-2.688-1.911h-2.226zM10.941 38.026c-.462 0-.693-.147-.693-.693v-4.305c0-2.541-1.638-3.906-4.494-3.906-2.709 0-4.515 1.302-4.746 3.402h2.226c.168-.945 1.071-1.575 2.415-1.575 1.491 0 2.352.735 2.352 1.932v.651H5.292c-3.003 0-4.599 1.239-4.599 3.444 0 1.995 1.638 3.15 3.99 3.15 1.743 0 2.835-.756 3.549-1.848 0 1.071.504 1.722 1.974 1.722h1.197v-1.974h-.462zm-2.94-2.436c-.021 1.659-1.113 2.772-3.003 2.772-1.239 0-1.995-.63-1.995-1.533 0-1.092.777-1.617 2.184-1.617h2.814v.378zm10.076-6.342c-1.764 0-2.625.714-3.17 1.617l-.253-1.617h-2.016V40h2.268v-5.397c0-1.659.651-3.234 2.667-3.234h1.008v-2.121h-.504zm6.493 10.878c2.668 0 4.474-1.617 4.852-3.738h-2.268c-.316 1.197-1.323 1.89-2.71 1.89-1.784 0-2.94-1.197-3.002-3.024v-.147h8.105a6.16 6.16 0 00.063-.861c-.063-3.15-2.142-5.124-5.25-5.124-3.17 0-5.291 2.205-5.291 5.523 0 3.297 2.12 5.481 5.502 5.481zm-3.044-6.678c.168-1.533 1.407-2.499 2.855-2.499 1.575 0 2.689.903 2.878 2.499h-5.733zm27.66-4.326c-1.764 0-2.982.777-3.675 1.953-.65-1.386-1.91-1.953-3.318-1.953-1.617.021-2.54.735-3.15 1.533l-.252-1.407h-1.974V40h2.268v-5.754c0-1.911.966-3.171 2.52-3.171 1.491 0 2.268.987 2.268 2.877V40h2.29v-5.817c0-1.932.986-3.108 2.54-3.108 1.47 0 2.247.987 2.247 2.877V40h2.268v-6.195c0-3.402-1.806-4.683-4.032-4.683zm11.088 11.004c3.276 0 5.481-2.205 5.481-5.502 0-3.276-2.205-5.502-5.48-5.502-3.277 0-5.482 2.226-5.482 5.502 0 3.297 2.205 5.502 5.481 5.502zm0-1.932c-1.91 0-3.15-1.491-3.15-3.57 0-2.079 1.24-3.57 3.15-3.57 1.911 0 3.171 1.491 3.171 3.57 0 2.079-1.26 3.57-3.17 3.57zM69.984 40h2.773l3.969-10.752h-2.394l-2.92 8.316-2.96-8.316h-2.436L69.985 40zm9.045-12.264c.777 0 1.386-.567 1.386-1.365s-.61-1.365-1.386-1.365c-.777 0-1.386.567-1.386 1.365s.609 1.365 1.386 1.365zM77.874 40h2.268V29.248h-2.268V40zm10.161-10.878c-1.743 0-2.772.693-3.444 1.533l-.252-1.407h-1.974V40h2.268v-5.418c0-2.184 1.071-3.507 2.877-3.507 1.701 0 2.562 1.092 2.562 3.129V40h2.289v-5.985c0-3.591-1.953-4.893-4.326-4.893zm14.6 1.806c-.693-1.071-1.848-1.806-3.529-1.806-2.918 0-5.081 2.163-5.081 5.46 0 3.423 2.162 5.46 5.081 5.46 1.681 0 2.794-.693 3.508-1.764v1.197c0 2.058-1.113 3.003-3.088 3.003-1.596 0-2.645-.693-2.918-1.89h-2.31c.21 2.415 2.204 3.738 5.06 3.738 3.865 0 5.503-1.848 5.503-4.767V29.248h-1.974l-.252 1.68zm-3.15 7.203c-1.89 0-3.13-1.449-3.13-3.549 0-2.079 1.24-3.549 3.13-3.549s3.129 1.47 3.129 3.591c0 2.058-1.239 3.507-3.13 3.507z" fill="#000"/></svg>