<svg width="132" height="33" viewBox="0 0 132 33" fill="none" xmlns="http://www.w3.org/2000/svg"><path d="M5.152 10.084c2.1 0 3.584-1.134 4.004-3.108h-.798c-.42 1.568-1.554 2.408-3.22 2.408-2.268 0-3.696-1.778-3.696-4.284S2.898.816 5.166.816c1.638 0 2.786.854 3.22 2.394h.798C8.75 1.25 7.266.116 5.208.116 2.45.116.658 2.16.658 5.1c0 2.968 1.75 4.984 4.494 4.984zm11.707-.742c-.42 0-.63-.14-.63-.686V5.352c0-1.624-.994-2.534-2.772-2.534-1.624 0-2.702.784-2.884 2.072h.714c.182-.868.938-1.442 2.142-1.442 1.33 0 2.086.7 2.086 1.876v.616h-2.408c-1.82 0-2.8.784-2.8 2.114 0 1.26.994 2.03 2.506 2.03 1.442 0 2.296-.658 2.73-1.54v.252c-.028.84.322 1.204 1.162 1.204h.42v-.658h-.266zM15.515 7.13c0 1.358-.966 2.338-2.646 2.338-1.134 0-1.834-.574-1.834-1.456 0-.938.7-1.456 2.016-1.456h2.464v.574zm5.841-4.312c-1.302 0-2.142.672-2.548 1.596l-.112-1.512h-.616V10h.714V6.5c0-1.848.938-3.024 2.45-3.024 1.372 0 2.198.896 2.198 2.576V10h.714V6.024c0-2.24-1.19-3.206-2.8-3.206zm7.958 4.172c.098 1.848 1.442 3.094 3.64 3.094 2.058 0 3.416-1.12 3.416-2.772 0-1.862-1.652-2.338-3.276-2.618-1.498-.252-2.8-.504-2.8-1.904 0-1.274.994-1.988 2.534-1.988 1.47 0 2.478.826 2.646 2.1h.77c-.14-1.68-1.414-2.786-3.416-2.786-1.988 0-3.29 1.05-3.29 2.716 0 1.862 1.596 2.282 3.164 2.548 1.54.266 2.912.574 2.912 2.002 0 1.26-1.064 2.016-2.646 2.016-1.652 0-2.772-.952-2.87-2.408h-.784zm8.913-5.586c.28 0 .504-.21.504-.504a.493.493 0 00-.504-.504c-.28 0-.504.21-.504.504 0 .294.224.504.504.504zM37.863 10h.714V2.902h-.714V10zm2.393 0h.714V.2h-.714V10zm2.757-8.596c.28 0 .504-.21.504-.504a.493.493 0 00-.504-.504c-.28 0-.504.21-.504.504 0 .294.224.504.504.504zM42.649 10h.714V2.902h-.714V10zm5.486.084c1.61 0 2.744-.924 3.024-2.366h-.756c-.238 1.05-1.092 1.722-2.268 1.722-1.554 0-2.632-1.218-2.632-2.982 0-1.764 1.064-3.01 2.632-3.01 1.19 0 2.03.672 2.282 1.736h.742c-.294-1.47-1.4-2.366-3.01-2.366-2.002 0-3.374 1.484-3.374 3.64 0 2.184 1.358 3.626 3.36 3.626zm7.548 0c2.002 0 3.416-1.484 3.416-3.64 0-2.142-1.414-3.626-3.416-3.626s-3.402 1.484-3.402 3.626c0 2.156 1.4 3.64 3.402 3.64zm0-.644c-1.582 0-2.674-1.232-2.674-2.996 0-1.75 1.092-2.996 2.674-2.996 1.582 0 2.674 1.246 2.674 2.996 0 1.764-1.092 2.996-2.674 2.996zm8.11-6.622c-1.301 0-2.141.672-2.547 1.596l-.112-1.512h-.616V10h.714V6.5c0-1.848.938-3.024 2.45-3.024 1.372 0 2.198.896 2.198 2.576V10h.714V6.024c0-2.24-1.19-3.206-2.8-3.206zM74.902 10h.91L79.465.2h-.784l-3.318 8.89L72.045.2h-.812l3.668 9.8zm10.988-.658c-.42 0-.63-.14-.63-.686V5.352c0-1.624-.994-2.534-2.772-2.534-1.624 0-2.702.784-2.884 2.072h.714c.182-.868.938-1.442 2.142-1.442 1.33 0 2.086.7 2.086 1.876v.616h-2.408c-1.82 0-2.8.784-2.8 2.114 0 1.26.994 2.03 2.506 2.03 1.442 0 2.296-.658 2.73-1.54v.252c-.028.84.322 1.204 1.162 1.204h.42v-.658h-.266zM84.545 7.13c0 1.358-.966 2.338-2.646 2.338-1.134 0-1.834-.574-1.834-1.456 0-.938.7-1.456 2.016-1.456h2.464v.574zM87.109 10h.715V.2h-.715V10zm2.393 0h.714V.2h-.714V10zm5.529.084c1.554 0 2.744-1.008 3.052-2.436h-.728c-.28 1.106-1.218 1.792-2.38 1.792-1.582 0-2.576-1.204-2.604-2.856v-.126h5.796c0-.098.014-.21.014-.294-.07-2.114-1.372-3.346-3.276-3.346-1.946 0-3.276 1.484-3.276 3.584 0 2.226 1.386 3.682 3.402 3.682zm-2.604-4.228c.112-1.442 1.19-2.408 2.492-2.408 1.386 0 2.38.854 2.492 2.408h-4.984zM101.419 10l-.462 1.148c-.322.784-.448.994-1.176.994h-.896v.658h1.092c.952 0 1.176-.364 1.624-1.484l3.402-8.414h-.77l-2.422 6.174-2.464-6.174h-.77L101.42 10zm11.215-7.098c-1.316 0-1.876.63-2.17 1.414l-.112-1.414h-.616V10h.714V6.402c0-1.442.378-2.814 2.044-2.814h.518v-.686h-.378zm7.38 6.44c-.42 0-.63-.14-.63-.686V5.352c0-1.624-.994-2.534-2.772-2.534-1.624 0-2.702.784-2.884 2.072h.714c.182-.868.938-1.442 2.142-1.442 1.33 0 2.086.7 2.086 1.876v.616h-2.408c-1.82 0-2.8.784-2.8 2.114 0 1.26.994 2.03 2.506 2.03 1.442 0 2.296-.658 2.73-1.54v.252c-.028.84.322 1.204 1.162 1.204h.42v-.658h-.266zM118.67 7.13c0 1.358-.966 2.338-2.646 2.338-1.134 0-1.834-.574-1.834-1.456 0-.938.7-1.456 2.016-1.456h2.464v.574zm2.565 2.87h.714V.2h-.714V10zm2.392 0h.714V.2h-.714V10zm4.521 0l-.462 1.148c-.322.784-.448.994-1.176.994h-.896v.658h1.092c.952 0 1.176-.364 1.624-1.484l3.402-8.414h-.77l-2.422 6.174-2.464-6.174h-.77L128.148 10zM7.084 29.342c-.42 0-.63-.14-.63-.686v-3.304c0-1.624-.994-2.534-2.772-2.534-1.624 0-2.702.784-2.884 2.072h.714c.182-.868.938-1.442 2.142-1.442 1.33 0 2.086.7 2.086 1.876v.616H3.332c-1.82 0-2.8.784-2.8 2.114 0 1.26.994 2.03 2.506 2.03 1.442 0 2.296-.658 2.73-1.54v.252C5.74 29.636 6.09 30 6.93 30h.42v-.658h-.266zM5.74 27.13c0 1.358-.966 2.338-2.646 2.338-1.134 0-1.834-.574-1.834-1.456 0-.938.7-1.456 2.016-1.456H5.74v.574zm5.84-4.312c-1.33 0-2.155.742-2.561 1.764V20.2h-.714V30h.714v-3.5c0-1.848.938-3.024 2.45-3.024 1.358 0 2.198.896 2.198 2.576V30h.714v-3.976c0-2.24-1.19-3.206-2.8-3.206zm7.421 7.266c1.554 0 2.744-1.008 3.052-2.436h-.728c-.28 1.106-1.218 1.792-2.38 1.792-1.582 0-2.576-1.204-2.604-2.856v-.126h5.796c0-.098.014-.21.014-.294-.07-2.114-1.372-3.346-3.276-3.346-1.946 0-3.276 1.484-3.276 3.584 0 2.226 1.386 3.682 3.402 3.682zm-2.604-4.228c.112-1.442 1.19-2.408 2.492-2.408 1.386 0 2.38.854 2.492 2.408h-4.984zm13.41 3.486c-.42 0-.63-.14-.63-.686v-3.304c0-1.624-.994-2.534-2.772-2.534-1.624 0-2.702.784-2.884 2.072h.714c.182-.868.938-1.442 2.142-1.442 1.33 0 2.086.7 2.086 1.876v.616h-2.408c-1.82 0-2.8.784-2.8 2.114 0 1.26.994 2.03 2.506 2.03 1.442 0 2.296-.658 2.73-1.54v.252c-.028.84.322 1.204 1.162 1.204h.42v-.658h-.266zm-1.344-2.212c0 1.358-.966 2.338-2.646 2.338-1.134 0-1.834-.574-1.834-1.456 0-.938.7-1.456 2.016-1.456h2.464v.574zm8.251-2.632c-.434-1.008-1.386-1.68-2.716-1.68-1.946 0-3.346 1.484-3.346 3.626 0 2.24 1.4 3.64 3.346 3.64 1.33 0 2.254-.714 2.702-1.708L36.812 30h.616v-9.8h-.714v4.298zm-2.66 4.942c-1.582 0-2.674-1.232-2.674-2.996 0-1.75 1.092-2.996 2.674-2.996 1.582 0 2.674 1.246 2.674 3.01 0 1.75-1.092 2.982-2.674 2.982zm11.963.644c2.002 0 3.416-1.484 3.416-3.64 0-2.142-1.414-3.626-3.416-3.626s-3.402 1.484-3.402 3.626c0 2.156 1.4 3.64 3.402 3.64zm0-.644c-1.582 0-2.674-1.232-2.674-2.996 0-1.75 1.092-2.996 2.674-2.996 1.582 0 2.674 1.246 2.674 2.996 0 1.764-1.092 2.996-2.674 2.996zm3.913-5.88h1.344V30h.714v-6.44h2.128v-.658h-2.128v-1.064c0-.7.266-.98.98-.98h1.162V20.2h-1.19c-1.19 0-1.666.518-1.666 1.652v1.05H49.93v.658zm11.96 6.524c1.554 0 2.744-1.008 3.052-2.436h-.728c-.28 1.106-1.218 1.792-2.38 1.792-1.582 0-2.576-1.204-2.604-2.856v-.126h5.796c0-.098.014-.21.014-.294-.07-2.114-1.372-3.346-3.276-3.346-1.946 0-3.276 1.484-3.276 3.584 0 2.226 1.386 3.682 3.402 3.682zm-2.604-4.228c.112-1.442 1.19-2.408 2.492-2.408 1.386 0 2.38.854 2.492 2.408h-4.984zm13.41 3.486c-.42 0-.63-.14-.63-.686v-3.304c0-1.624-.995-2.534-2.773-2.534-1.624 0-2.702.784-2.884 2.072h.714c.182-.868.938-1.442 2.142-1.442 1.33 0 2.086.7 2.086 1.876v.616h-2.408c-1.82 0-2.8.784-2.8 2.114 0 1.26.994 2.03 2.506 2.03 1.442 0 2.296-.658 2.73-1.54v.252c-.028.84.322 1.204 1.162 1.204h.42v-.658h-.266zM71.35 27.13c0 1.358-.966 2.338-2.646 2.338-1.134 0-1.834-.574-1.834-1.456 0-.938.7-1.456 2.016-1.456h2.464v.574zm5.463-4.228c-1.316 0-1.876.63-2.17 1.414l-.112-1.414h-.616V30h.714v-3.598c0-1.442.378-2.814 2.044-2.814h.518v-.686h-.378zm4.712-.084c-1.302 0-2.142.672-2.548 1.596l-.112-1.512h-.616V30h.714v-3.5c0-1.848.938-3.024 2.45-3.024 1.372 0 2.198.896 2.198 2.576V30h.714v-3.976c0-2.24-1.19-3.206-2.8-3.206zm4.744-1.414c.28 0 .504-.21.504-.504a.493.493 0 00-.504-.504c-.28 0-.504.21-.504.504 0 .294.224.504.504.504zM85.906 30h.714v-7.098h-.714V30zm5.669-7.182c-1.302 0-2.142.672-2.548 1.596l-.112-1.512h-.616V30h.714v-3.5c0-1.848.938-3.024 2.45-3.024 1.372 0 2.198.896 2.198 2.576V30h.714v-3.976c0-2.24-1.19-3.206-2.8-3.206zm10.162 1.736c-.434-1.05-1.386-1.736-2.702-1.736-1.946 0-3.346 1.47-3.346 3.626 0 2.24 1.4 3.64 3.346 3.64 1.33 0 2.268-.7 2.716-1.806v1.26c0 1.89-.896 2.702-2.604 2.702-1.33 0-2.254-.602-2.478-1.68h-.742c.224 1.512 1.442 2.324 3.164 2.324 2.296 0 3.374-1.092 3.374-3.318v-6.664h-.616l-.112 1.652zm-2.646 4.886c-1.582 0-2.674-1.232-2.674-2.996s1.092-2.996 2.674-2.996c1.582 0 2.674 1.232 2.674 3.01 0 1.75-1.092 2.982-2.674 2.982zm4.732-1.624c.056 1.47 1.246 2.268 3.024 2.268 1.526 0 2.758-.77 2.758-2.03 0-1.498-1.316-1.792-2.842-2.002-1.106-.154-2.086-.28-2.086-1.274 0-.812.798-1.344 2.002-1.344 1.134 0 1.946.546 2.072 1.47h.728c-.126-1.386-1.26-2.086-2.8-2.086-1.582-.014-2.716.798-2.716 2.016 0 1.428 1.316 1.694 2.772 1.89 1.19.168 2.156.322 2.156 1.372 0 .84-.882 1.372-2.044 1.372-1.358 0-2.24-.63-2.296-1.652h-.728zm7.387-4.62c0-1.428.91-2.408 2.296-2.408 1.218 0 2.058.756 2.058 1.778 0 .896-.462 1.414-1.092 1.89-.742.56-1.498 1.022-1.498 2.114v.56h.672v-.49c0-.868.658-1.274 1.372-1.806.686-.518 1.288-1.162 1.288-2.338 0-1.358-1.106-2.38-2.814-2.38-1.848 0-3.01 1.33-3.01 3.08h.728zm1.582 6.342c0 .322.224.532.532.532.308 0 .532-.21.532-.532 0-.322-.224-.518-.532-.518-.308 0-.532.196-.532.518z" fill="#000"/></svg>