<svg width="75" height="24" viewBox="0 0 75 24" fill="none" xmlns="http://www.w3.org/2000/svg"><rect y=".895" width="75" height="23" rx="11.5" fill="#000"/><path d="M9.409 14.053c.051 1.41 1.074 2.403 2.822 2.403 1.504 0 2.547-.87 2.547-2.107 0-1.39-1.197-1.779-2.363-1.973-1.073-.184-1.942-.358-1.942-1.217 0-.767.623-1.176 1.554-1.176.971 0 1.636.542 1.738 1.37h.92c-.081-1.288-1.063-2.178-2.658-2.178-1.452 0-2.444.818-2.444 2.035 0 1.39 1.186 1.769 2.342 1.963 1.084.184 1.963.368 1.963 1.258 0 .777-.685 1.217-1.646 1.217-1.095 0-1.841-.634-1.913-1.595h-.92zm6.764.981c0 .92.358 1.36 1.36 1.36h.91v-.766h-.828c-.45 0-.604-.164-.604-.604v-3.078h1.35v-.767h-1.35V9.717h-.838v1.462h-.941v.767h.94v3.088zm7.529.594c-.236 0-.338-.072-.338-.348V13c0-1.217-.767-1.882-2.096-1.882-1.258 0-2.086.603-2.21 1.626h.84c.102-.532.593-.88 1.329-.88.818 0 1.299.41 1.299 1.084v.358h-1.534c-1.37 0-2.097.583-2.097 1.626 0 .951.777 1.524 1.923 1.524.9 0 1.421-.399 1.748-.87.01.512.246.809.941.809h.46v-.767h-.265zm-1.177-1.36c0 .869-.603 1.472-1.646 1.472-.695 0-1.135-.348-1.135-.859 0-.593.42-.87 1.166-.87h1.616v.257zm4.5-3.089c-.93 0-1.33.389-1.574.788l-.113-.788h-.726v5.216h.839v-2.66c0-.827.296-1.738 1.39-1.738h.42v-.818h-.236zm1.52 3.855c0 .92.359 1.36 1.36 1.36h.91v-.766h-.827c-.45 0-.604-.164-.604-.604v-3.078h1.35v-.767h-1.35V9.717h-.838v1.462h-.941v.767h.94v3.088zm6.062 0c0 .92.358 1.36 1.36 1.36h.91v-.766h-.828c-.45 0-.603-.164-.603-.604v-3.078h1.35v-.767h-1.35V9.717h-.839v1.462h-.94v.767h.94v3.088zm5.41-3.855c-.93 0-1.329.389-1.574.788l-.113-.788h-.726v5.216h.839v-2.66c0-.827.296-1.738 1.39-1.738h.42v-.818h-.236zm5.395 4.449c-.236 0-.338-.072-.338-.348V13c0-1.217-.767-1.882-2.096-1.882-1.258 0-2.086.603-2.209 1.626h.839c.102-.532.593-.88 1.329-.88.818 0 1.299.41 1.299 1.084v.358h-1.534c-1.37 0-2.097.583-2.097 1.626 0 .951.778 1.524 1.923 1.524.9 0 1.421-.399 1.749-.87.01.512.245.809.94.809h.46v-.767h-.265zm-1.176-1.36c0 .869-.604 1.472-1.647 1.472-.695 0-1.135-.348-1.135-.859 0-.593.42-.87 1.166-.87h1.616v.257zm6.137-2.291c-.317-.501-.91-.86-1.79-.86-1.441 0-2.505 1.075-2.505 2.67 0 1.697 1.064 2.669 2.505 2.669.88 0 1.442-.42 1.79-.9l.113.839h.726V9.236h-.839v2.74zm-1.708 3.732c-1.032 0-1.728-.787-1.728-1.922 0-1.135.696-1.923 1.728-1.923 1.023 0 1.718.798 1.718 1.943 0 1.115-.695 1.902-1.718 1.902zm4.118-5.41a.527.527 0 00.542-.541.527.527 0 00-.542-.542.527.527 0 00-.542.542c0 .317.236.542.542.542zm-.43 6.096h.84v-5.216h-.84v5.216zm4.545-5.277c-.88 0-1.412.368-1.718.767l-.113-.706h-.726v5.216h.839v-2.608c0-1.176.593-1.902 1.575-1.902.91 0 1.41.572 1.41 1.656v2.854h.84V13.49c0-1.728-.931-2.372-2.107-2.372zm7.286.961c-.327-.583-.91-.961-1.79-.961-1.441 0-2.505 1.074-2.505 2.669 0 1.697 1.064 2.669 2.505 2.669.88 0 1.442-.368 1.79-.961v.613c0 1.135-.593 1.647-1.687 1.647-.87 0-1.452-.369-1.595-1.023h-.86c.133 1.145 1.064 1.769 2.393 1.769 1.79 0 2.588-.859 2.588-2.362v-4.96h-.726l-.113.9zm-1.708 3.63c-1.032 0-1.728-.787-1.728-1.922 0-1.135.696-1.923 1.728-1.923 1.023 0 1.718.798 1.718 1.943 0 1.115-.695 1.902-1.718 1.902z" fill="#fff"/></svg>