<svg width="60" height="8" viewBox="0 0 60 8" fill="none" xmlns="http://www.w3.org/2000/svg"><path d="M1.842 1.838c.265-.28.57-.5.92-.659.347-.16.719-.239 1.113-.239.435 0 .785.056 1.05.17.264.112.52.275.768.489.12.092.243.134.371.125a.522.522 0 00.326-.14.41.41 0 00.136-.315.717.717 0 00-.015-.155.368.368 0 00-.06-.13.55.55 0 00-.127-.125 3.819 3.819 0 00-1.12-.658C4.835.067 4.392 0 3.876 0c-.55 0-1.057.103-1.526.31a3.866 3.866 0 00-1.23.853 3.963 3.963 0 00-.823 1.269A4.093 4.093 0 000 3.995c0 .566.099 1.092.296 1.578.197.487.471.911.823 1.274s.763.645 1.235.848c.471.204.978.305 1.521.305.455 0 .889-.073 1.3-.22a4.052 4.052 0 001.16-.649.511.511 0 00.16-.37c0-.146-.04-.26-.12-.345a.456.456 0 00-.296-.14.528.528 0 00-.356.116 3.75 3.75 0 01-.879.484 2.69 2.69 0 01-.969.174c-.395 0-.766-.078-1.114-.235a2.885 2.885 0 01-.919-.654 3.035 3.035 0 01-.617-.974 3.193 3.193 0 01-.222-1.193c0-.42.074-.814.222-1.184.147-.368.353-.693.617-.972zM8.545.1a.518.518 0 00-.372.145.495.495 0 00-.15.374V7.38a.51.51 0 00.522.52.508.508 0 00.521-.52V.62a.506.506 0 00-.145-.374A.511.511 0 008.545.1zM15.984.1h-5.37a.473.473 0 00-.347.135.467.467 0 00-.136.345c0 .14.046.254.136.345.09.09.206.135.347.135h2.168V7.38a.51.51 0 00.522.52c.148 0 .271-.05.372-.15a.5.5 0 00.15-.37V1.06h2.16c.14 0 .255-.046.346-.135a.467.467 0 00.136-.345.469.469 0 00-.136-.345.475.475 0 00-.348-.134zM23.995.225A.402.402 0 0023.694.1a.528.528 0 00-.271.065.585.585 0 00-.191.184l-2.39 3.75L18.494.39a.822.822 0 00-.19-.214A.446.446 0 0018.03.1a.526.526 0 00-.335.116.46.46 0 00-.176.3.564.564 0 00.1.394l2.68 4.145v2.327a.5.5 0 00.151.37c.101.1.221.15.362.15.148 0 .271-.05.372-.15a.5.5 0 00.15-.37v-2.33L24.037.91a.576.576 0 00.1-.374.524.524 0 00-.141-.31zM29.307.1a.518.518 0 00-.371.145.495.495 0 00-.151.374V7.38a.51.51 0 00.522.52.509.509 0 00.521-.52V.62a.506.506 0 00-.145-.374.511.511 0 00-.376-.145zM37.216.1a.518.518 0 00-.372.145.495.495 0 00-.15.374v5.463L32.316.29a.506.506 0 00-.402-.19.499.499 0 00-.366.145.503.503 0 00-.145.374V7.38c0 .147.049.27.145.37.097.1.22.15.367.15.153 0 .28-.05.376-.15a.513.513 0 00.145-.37V1.928l4.377 5.792a.43.43 0 00.185.135.59.59 0 00.216.045c.154 0 .277-.05.371-.15.094-.1.141-.223.141-.37V.62a.488.488 0 00-.51-.519z" fill="#000"/><path fill-rule="evenodd" clip-rule="evenodd" d="M44.394 1.193a3.617 3.617 0 00-1.23-.808A4.176 4.176 0 0041.593.1h-1.818a.519.519 0 00-.371.145.495.495 0 00-.15.374V7.38a.51.51 0 00.522.52h1.817a4.18 4.18 0 001.571-.285c.472-.19.882-.459 1.23-.808.348-.35.616-.762.803-1.239.188-.475.28-1 .28-1.573 0-.572-.092-1.095-.28-1.567a3.615 3.615 0 00-.803-1.235zm-.291 4.345c-.248.45-.588.802-1.019 1.058-.431.257-.929.385-1.491.385h-1.295V1.02h1.295c.562 0 1.059.126 1.491.38.431.253.772.602 1.019 1.048.247.446.371.962.371 1.548 0 .58-.123 1.093-.371 1.543z" fill="#000"/><path d="M51.938 1.059a.524.524 0 00.371-.13c.094-.087.141-.2.141-.34a.466.466 0 00-.14-.355.516.516 0 00-.372-.135h-4.539a.519.519 0 00-.371.145.495.495 0 00-.151.374v6.761a.51.51 0 00.522.52h4.539a.517.517 0 00.371-.135.47.47 0 00.141-.355.438.438 0 00-.14-.34.527.527 0 00-.372-.13h-4.016V4.445h2.881a.517.517 0 00.372-.135.459.459 0 00.14-.345.456.456 0 00-.14-.345.516.516 0 00-.372-.135h-2.881V1.06h4.016zM57.6 3.954L59.889.918a.598.598 0 00.11-.37.49.49 0 00-.13-.318.431.431 0 00-.331-.13.486.486 0 00-.372.149l-2.25 2.978L54.76.25c-.074-.1-.198-.15-.372-.15a.427.427 0 00-.336.14.57.57 0 00-.145.33.482.482 0 00.1.35l2.206 3.043-2.337 3.098a.575.575 0 00-.12.355c0 .13.04.243.12.34.08.096.198.144.352.144.14 0 .26-.05.361-.15l2.305-3.05 2.184 3.01a.484.484 0 00.176.144c.064.03.138.046.226.046a.442.442 0 00.347-.14.53.53 0 00.135-.34.54.54 0 00-.11-.36L57.6 3.954z" fill="#000"/></svg>