<svg width="148" height="12" viewBox="0 0 148 12" fill="none" xmlns="http://www.w3.org/2000/svg"><path d="M.432 6.24C.48 7.92 1.74 9.072 3.828 9.072c1.848 0 3.108-1.044 3.108-2.556.012-1.656-1.344-2.1-2.736-2.352-1.32-.228-2.184-.408-2.184-1.272 0-.792.66-1.2 1.608-1.2 1.02 0 1.692.576 1.8 1.428h1.38C6.744 1.572 5.544.528 3.624.528c-1.788 0-2.988.996-2.988 2.46 0 1.668 1.32 2.112 2.712 2.352 1.332.24 2.208.432 2.208 1.32 0 .804-.72 1.248-1.716 1.248-1.176 0-1.944-.66-2.016-1.644L.432 6.24zm13.203 1.632c-.264 0-.396-.084-.396-.396v-2.46c0-1.452-.936-2.232-2.568-2.232-1.548 0-2.58.744-2.712 1.944H9.23c.096-.54.612-.9 1.38-.9.852 0 1.344.42 1.344 1.104v.372h-1.548c-1.716 0-2.628.708-2.628 1.968 0 1.14.936 1.8 2.28 1.8.996 0 1.62-.432 2.028-1.056 0 .612.288.984 1.128.984h.684V7.872h-.264zm-1.68-1.392c-.012.948-.636 1.584-1.716 1.584-.708 0-1.14-.36-1.14-.876 0-.624.444-.924 1.248-.924h1.608v.216zm5.758-3.624c-1.008 0-1.5.408-1.812.924l-.144-.924h-1.152V9H15.9V5.916c0-.948.372-1.848 1.524-1.848H18V2.856h-.288zm6.516 5.016c-.264 0-.396-.084-.396-.396v-2.46c0-1.452-.936-2.232-2.568-2.232-1.548 0-2.58.744-2.712 1.944h1.272c.096-.54.612-.9 1.38-.9.852 0 1.344.42 1.344 1.104v.372H21c-1.716 0-2.628.708-2.628 1.968 0 1.14.936 1.8 2.28 1.8.996 0 1.62-.432 2.028-1.056 0 .612.288.984 1.128.984h.684V7.872h-.264zm-1.68-1.392c-.012.948-.636 1.584-1.716 1.584-.708 0-1.14-.36-1.14-.876 0-.624.444-.924 1.248-.924h1.608v.216zm5.423 2.592c1.572 0 2.616-.876 2.856-2.268H29.46c-.156.708-.684 1.164-1.476 1.164-1.044 0-1.728-.828-1.728-2.028 0-1.212.684-2.052 1.728-2.052.804 0 1.32.444 1.488 1.164h1.356c-.252-1.392-1.236-2.268-2.82-2.268-1.86 0-3.084 1.26-3.084 3.156 0 1.92 1.188 3.132 3.048 3.132zm6.764 0c1.524 0 2.556-.924 2.772-2.136h-1.296c-.18.684-.756 1.08-1.548 1.08-1.02 0-1.68-.684-1.716-1.728v-.084h4.632a3.52 3.52 0 00.036-.492c-.036-1.8-1.224-2.928-3-2.928-1.812 0-3.024 1.26-3.024 3.156 0 1.884 1.212 3.132 3.144 3.132zm-1.74-3.816c.096-.876.804-1.428 1.632-1.428.9 0 1.536.516 1.644 1.428h-3.276zm8.907-2.472c-.996 0-1.584.396-1.968.876l-.144-.804h-1.128V9h1.296V5.904c0-1.248.612-2.004 1.644-2.004.972 0 1.464.624 1.464 1.788V9h1.308V5.58c0-2.052-1.116-2.796-2.472-2.796zm3.387 4.188c.036 1.332 1.164 2.1 2.808 2.1 1.488 0 2.604-.744 2.604-1.92 0-1.368-1.14-1.656-2.544-1.824-.888-.096-1.476-.168-1.476-.744 0-.492.504-.804 1.272-.804s1.296.396 1.368.96h1.272c-.084-1.26-1.152-1.956-2.664-1.956-1.476-.012-2.52.744-2.52 1.908 0 1.272 1.104 1.572 2.508 1.74.948.12 1.512.168 1.512.828 0 .492-.528.804-1.332.804-.936 0-1.488-.456-1.536-1.092H45.29zm13.267 2.1c1.956 0 3.384-1.152 3.648-2.928h-1.428c-.264 1.068-1.068 1.716-2.232 1.716C56.96 7.86 56 6.588 56 4.8c0-1.8.984-3.06 2.58-3.06 1.14 0 1.932.66 2.208 1.716h1.428C61.94 1.68 60.56.528 58.64.528c-2.484 0-4.056 1.716-4.056 4.272 0 2.58 1.524 4.272 3.972 4.272zm7.885-6.288c-.96 0-1.548.432-1.932.96V.6h-1.296V9h1.296V5.892c0-1.236.624-1.992 1.644-1.992.96 0 1.476.624 1.476 1.788V9h1.296V5.58c0-2.052-1.116-2.796-2.484-2.796zm9.279 5.088c-.264 0-.396-.084-.396-.396v-2.46c0-1.452-.936-2.232-2.568-2.232-1.548 0-2.58.744-2.712 1.944h1.272c.096-.54.612-.9 1.38-.9.852 0 1.344.42 1.344 1.104v.372h-1.548c-1.716 0-2.628.708-2.628 1.968 0 1.14.936 1.8 2.28 1.8.996 0 1.62-.432 2.028-1.056 0 .612.288.984 1.128.984h.684V7.872h-.264zM74.04 6.48c-.012.948-.636 1.584-1.716 1.584-.708 0-1.14-.36-1.14-.876 0-.624.444-.924 1.248-.924h1.608v.216zm9.718-3.696c-1.008 0-1.704.444-2.1 1.116-.372-.792-1.092-1.116-1.896-1.116-.924.012-1.452.42-1.8.876l-.144-.804H76.69V9h1.296V5.712c0-1.092.552-1.812 1.44-1.812.852 0 1.296.564 1.296 1.644V9h1.308V5.676c0-1.104.564-1.776 1.452-1.776.84 0 1.284.564 1.284 1.644V9h1.296V5.46c0-1.944-1.032-2.676-2.304-2.676zm6.767 0c-.96 0-1.596.444-2.004.984l-.156-.912h-1.128V11.4h1.296V8.136c.384.552 1.044.936 1.992.936 1.68 0 2.904-1.248 2.904-3.144 0-1.968-1.224-3.144-2.904-3.144zM90.31 7.98c-1.08 0-1.788-.852-1.788-2.076 0-1.188.708-2.016 1.788-2.016s1.8.828 1.8 2.04c0 1.2-.72 2.052-1.8 2.052zm4.818-5.988c.444 0 .792-.324.792-.78s-.348-.78-.792-.78c-.444 0-.792.324-.792.78s.348.78.792.78zM94.468 9h1.296V2.856h-1.296V9zm5.47.072c1.872 0 3.132-1.26 3.132-3.144 0-1.872-1.26-3.144-3.132-3.144s-3.132 1.272-3.132 3.144c0 1.884 1.26 3.144 3.132 3.144zm0-1.104c-1.092 0-1.8-.852-1.8-2.04 0-1.188.708-2.04 1.8-2.04s1.812.852 1.812 2.04c0 1.188-.72 2.04-1.812 2.04zm7.415-5.184c-.996 0-1.584.396-1.968.876l-.144-.804h-1.128V9h1.296V5.904c0-1.248.612-2.004 1.644-2.004.972 0 1.464.624 1.464 1.788V9h1.308V5.58c0-2.052-1.116-2.796-2.472-2.796zm3.386 4.188c.036 1.332 1.164 2.1 2.808 2.1 1.488 0 2.604-.744 2.604-1.92 0-1.368-1.14-1.656-2.544-1.824-.888-.096-1.476-.168-1.476-.744 0-.492.504-.804 1.272-.804s1.296.396 1.368.96h1.272c-.084-1.26-1.152-1.956-2.664-1.956-1.476-.012-2.52.744-2.52 1.908 0 1.272 1.104 1.572 2.508 1.74.948.12 1.512.168 1.512.828 0 .492-.528.804-1.332.804-.936 0-1.488-.456-1.536-1.092h-1.272zM119.854 9h5.952V7.836h-4.068l2.232-1.86c1.02-.852 1.776-1.632 1.776-2.88 0-1.536-1.056-2.568-2.94-2.568-1.788 0-2.94 1.164-2.94 2.76v.216h1.332V3.36c0-1.044.648-1.692 1.608-1.692.96 0 1.596.528 1.596 1.488 0 .804-.564 1.392-1.32 2.028l-3.228 2.748V9zm8.29-7.548c0 .444-.18.756-.612.756h-1.308v1.14h1.368c.228 0 .408-.036.528-.108V9h1.332V.6h-1.308v.852zm3.37 9.108L134.922.24h-1.26l-3.396 10.32h1.248zM135.123 9h5.952V7.836h-4.068l2.232-1.86c1.02-.852 1.776-1.632 1.776-2.88 0-1.536-1.056-2.568-2.94-2.568-1.788 0-2.94 1.164-2.94 2.76v.216h1.332V3.36c0-1.044.648-1.692 1.608-1.692.96 0 1.596.528 1.596 1.488 0 .804-.564 1.392-1.32 2.028l-3.228 2.748V9zm6.563 0h5.952V7.836h-4.068l2.232-1.86c1.02-.852 1.776-1.632 1.776-2.88 0-1.536-1.056-2.568-2.94-2.568-1.788 0-2.94 1.164-2.94 2.76v.216h1.332V3.36c0-1.044.648-1.692 1.608-1.692.96 0 1.596.528 1.596 1.488 0 .804-.564 1.392-1.32 2.028l-3.228 2.748V9z" fill="#000"/></svg>