<svg width="414" height="33" viewBox="0 0 414 33" fill="none" xmlns="http://www.w3.org/2000/svg"><path d="M.176 25H9.22c5.746 0 8.84-2.584 8.84-6.8 0-3.4-2.176-5.066-4.998-5.508 2.482-.68 4.08-2.38 4.08-5.202 0-3.91-2.992-6.29-8.228-6.29H.176V25zm8.84-20.536c2.72 0 4.216 1.292 4.216 3.4 0 2.142-1.53 3.434-4.216 3.434h-4.93V4.464h4.93zm.238 10.064c3.026 0 4.794 1.292 4.794 3.638 0 2.21-1.666 3.536-4.794 3.536H4.086v-7.174h5.168zM29.38 25.204c4.318 0 7.242-2.618 7.854-6.052h-3.672c-.51 1.938-2.142 3.06-4.386 3.06-2.89 0-4.76-1.938-4.862-4.896v-.238h13.124c.068-.476.102-.952.102-1.394-.102-5.1-3.468-8.296-8.5-8.296-5.134 0-8.568 3.57-8.568 8.942 0 5.338 3.434 8.874 8.908 8.874zm-4.93-10.812c.272-2.482 2.278-4.046 4.624-4.046 2.55 0 4.352 1.462 4.658 4.046H24.45zm33.564-6.8c-2.856 0-4.25 1.156-5.134 2.618l-.408-2.618h-3.264V25h3.672v-8.738c0-2.686 1.054-5.236 4.318-5.236h1.632V7.592h-.816zm10.513 17.612c4.318 0 7.242-2.618 7.854-6.052h-3.672c-.51 1.938-2.142 3.06-4.386 3.06-2.89 0-4.76-1.938-4.862-4.896v-.238h13.124c.068-.476.102-.952.102-1.394-.102-5.1-3.468-8.296-8.5-8.296-5.134 0-8.568 3.57-8.568 8.942 0 5.338 3.434 8.874 8.908 8.874zm-4.93-10.812c.272-2.482 2.278-4.046 4.624-4.046 2.55 0 4.352 1.462 4.658 4.046h-9.282zm31.97 7.412c-.747 0-1.121-.238-1.121-1.122v-6.97c0-4.114-2.653-6.324-7.276-6.324-4.386 0-7.31 2.108-7.684 5.508h3.603c.273-1.53 1.734-2.55 3.91-2.55 2.415 0 3.809 1.19 3.809 3.128v1.054H86.42c-4.862 0-7.446 2.006-7.446 5.576 0 3.23 2.653 5.1 6.46 5.1 2.822 0 4.59-1.224 5.746-2.992 0 1.734.817 2.788 3.197 2.788h1.938v-3.196h-.749zm-4.76-3.944c-.034 2.686-1.802 4.488-4.862 4.488-2.005 0-3.23-1.02-3.23-2.482 0-1.768 1.258-2.618 3.536-2.618h4.556v.612zm20.602-7.854c-1.122-1.53-2.992-2.618-5.644-2.618-4.726 0-8.228 3.536-8.228 8.908 0 5.576 3.502 8.908 8.228 8.908 2.754 0 4.556-1.292 5.678-2.822l.442 2.618h3.196V1.2h-3.672v8.806zm-5.032 12.104c-3.06 0-5.066-2.38-5.066-5.814 0-3.4 2.006-5.78 5.066-5.78s5.066 2.38 5.066 5.848c0 3.366-2.006 5.746-5.066 5.746zm17.324 2.992l-.68 1.7c-.544 1.428-.884 1.768-2.312 1.768h-2.584v3.23h3.944c2.55 0 3.298-1.258 4.386-4.08l7.888-20.128h-3.91l-4.726 13.226-4.862-13.226h-3.91l6.766 17.51zM146.77 5.144c1.258 0 2.244-.918 2.244-2.21 0-1.292-.986-2.21-2.244-2.21-1.258 0-2.244.918-2.244 2.21 0 1.292.986 2.21 2.244 2.21zM144.9 25h3.672V7.592H144.9V25zm5.503-14.178h3.026V25h3.706V10.822h4.658v-3.23h-4.726V6.13c0-1.19.51-1.7 1.7-1.7h3.026V1.2h-3.502c-3.366 0-4.862 1.632-4.862 4.76v1.632h-3.026v3.23zM172.392 25h3.672V1.2h-3.672V25zm9.141-19.856c1.258 0 2.244-.918 2.244-2.21 0-1.292-.986-2.21-2.244-2.21-1.258 0-2.244.918-2.244 2.21 0 1.292.986 2.21 2.244 2.21zM179.663 25h3.672V7.592h-3.672V25zm20.566-14.688c-1.122-1.734-2.992-2.924-5.712-2.924-4.726 0-8.228 3.502-8.228 8.84 0 5.542 3.502 8.84 8.228 8.84 2.72 0 4.522-1.122 5.678-2.856v1.938c0 3.332-1.802 4.862-4.998 4.862-2.584 0-4.284-1.122-4.726-3.06h-3.74c.34 3.91 3.57 6.052 8.194 6.052 6.256 0 8.908-2.992 8.908-7.718V7.592h-3.196l-.408 2.72zm-5.1 11.662c-3.06 0-5.066-2.346-5.066-5.746 0-3.366 2.006-5.746 5.066-5.746s5.066 2.38 5.066 5.814c0 3.332-2.006 5.678-5.066 5.678zm21.438-14.586c-2.72 0-4.386 1.224-5.474 2.72V1.2h-3.672V25h3.672v-8.806c0-3.502 1.768-5.644 4.658-5.644 2.72 0 4.182 1.768 4.182 5.066V25h3.672v-9.69c0-5.814-3.162-7.922-7.038-7.922zm11.636 12.886c0 3.162 1.428 4.726 4.76 4.726h3.4v-3.23h-2.584c-1.394 0-1.87-.51-1.87-1.87v-9.078h4.25v-3.23h-4.25V2.73h-3.706v4.862h-3.026v3.23h3.026v9.452zm19.675-12.886c-2.822 0-4.488 1.122-5.576 2.482l-.408-2.278h-3.196V25h3.672v-8.772c0-3.536 1.734-5.678 4.658-5.678 2.754 0 4.148 1.768 4.148 5.066V25h3.706v-9.69c0-5.814-3.162-7.922-7.004-7.922zm12.214-2.244c1.258 0 2.244-.918 2.244-2.21 0-1.292-.986-2.21-2.244-2.21-1.258 0-2.244.918-2.244 2.21 0 1.292.986 2.21 2.244 2.21zM258.222 25h3.672V7.592h-3.672V25zm16.451-17.612c-2.822 0-4.488 1.122-5.576 2.482l-.408-2.278h-3.196V25h3.672v-8.772c0-3.536 1.734-5.678 4.658-5.678 2.754 0 4.148 1.768 4.148 5.066V25h3.706v-9.69c0-5.814-3.162-7.922-7.004-7.922zm23.638 2.924c-1.122-1.734-2.992-2.924-5.712-2.924-4.726 0-8.228 3.502-8.228 8.84 0 5.542 3.502 8.84 8.228 8.84 2.72 0 4.522-1.122 5.678-2.856v1.938c0 3.332-1.802 4.862-4.998 4.862-2.584 0-4.284-1.122-4.726-3.06h-3.74c.34 3.91 3.57 6.052 8.194 6.052 6.256 0 8.908-2.992 8.908-7.718V7.592h-3.196l-.408 2.72zm-5.1 11.662c-3.06 0-5.066-2.346-5.066-5.746 0-3.366 2.006-5.746 5.066-5.746s5.066 2.38 5.066 5.814c0 3.332-2.006 5.678-5.066 5.678zm20.243-2.72c.102 3.774 3.298 5.95 7.956 5.95 4.216 0 7.378-2.108 7.378-5.44 0-3.876-3.23-4.692-7.208-5.168-2.516-.272-4.182-.476-4.182-2.108 0-1.394 1.428-2.278 3.604-2.278s3.672 1.122 3.876 2.72h3.604c-.238-3.57-3.264-5.542-7.548-5.542-4.182-.034-7.14 2.108-7.14 5.406 0 3.604 3.128 4.454 7.106 4.93 2.686.34 4.284.476 4.284 2.346 0 1.394-1.496 2.278-3.774 2.278-2.652 0-4.216-1.292-4.352-3.094h-3.604zm19.438 1.02c0 3.162 1.428 4.726 4.76 4.726h3.4v-3.23h-2.584c-1.394 0-1.87-.51-1.87-1.87v-9.078h4.25v-3.23h-4.25V2.73h-3.706v4.862h-3.026v3.23h3.026v9.452zm19.302-12.682c-2.856 0-4.25 1.156-5.134 2.618l-.408-2.618h-3.264V25h3.672v-8.738c0-2.686 1.054-5.236 4.318-5.236h1.632V7.592h-.816zm4.951-2.448c1.258 0 2.244-.918 2.244-2.21 0-1.292-.986-2.21-2.244-2.21-1.258 0-2.244.918-2.244 2.21 0 1.292.986 2.21 2.244 2.21zM355.275 25h3.672V7.592h-3.672V25zm7.271 0h3.672v-4.42l3.128-3.264L374.48 25h4.352l-6.97-10.37 6.562-7.038h-4.318l-7.888 8.432V1.2h-3.672V25zm25.229.204c4.318 0 7.242-2.618 7.854-6.052h-3.672c-.51 1.938-2.142 3.06-4.386 3.06-2.89 0-4.76-1.938-4.862-4.896v-.238h13.124c.068-.476.102-.952.102-1.394-.102-5.1-3.468-8.296-8.5-8.296-5.134 0-8.568 3.57-8.568 8.942 0 5.338 3.434 8.874 8.908 8.874zm-4.93-10.812c.272-2.482 2.278-4.046 4.624-4.046 2.55 0 4.352 1.462 4.658 4.046h-9.282zm15.211 4.862c.102 3.774 3.298 5.95 7.956 5.95 4.216 0 7.378-2.108 7.378-5.44 0-3.876-3.23-4.692-7.208-5.168-2.516-.272-4.182-.476-4.182-2.108 0-1.394 1.428-2.278 3.604-2.278s3.672 1.122 3.876 2.72h3.604c-.238-3.57-3.264-5.542-7.548-5.542-4.182-.034-7.14 2.108-7.14 5.406 0 3.604 3.128 4.454 7.106 4.93 2.686.34 4.284.476 4.284 2.346 0 1.394-1.496 2.278-3.774 2.278-2.652 0-4.216-1.292-4.352-3.094h-3.604z" fill="#000"/></svg>