<svg width="514" height="21" viewBox="0 0 514 21" fill="none" xmlns="http://www.w3.org/2000/svg"><path d="M.512 16h1.113V3.211L7.127 16h1.029l5.502-12.789V16h1.113V1.3h-1.428l-5.67 13.167L1.961 1.3H.512V16zm26.402-.987c-.63 0-.945-.21-.945-1.029V9.028c0-2.436-1.49-3.801-4.158-3.801-2.436 0-4.053 1.176-4.326 3.108h1.071c.273-1.302 1.407-2.163 3.213-2.163 1.995 0 3.13 1.05 3.13 2.814v.924h-3.613c-2.73 0-4.2 1.176-4.2 3.171 0 1.89 1.491 3.045 3.76 3.045 2.162 0 3.443-.987 4.094-2.31v.378c-.042 1.26.483 1.806 1.743 1.806h.63v-.987h-.399zm-2.016-3.318c0 2.037-1.449 3.507-3.969 3.507-1.7 0-2.75-.861-2.75-2.184 0-1.407 1.05-2.184 3.023-2.184h3.696v.861zm4.498-8.589a.74.74 0 00.756-.756.74.74 0 00-.756-.756.74.74 0 00-.756.756.74.74 0 00.756.756zM26.141 20.2h1.302c1.785 0 2.5-.777 2.5-2.478V5.353H28.87v12.39c0 1.05-.399 1.47-1.47 1.47h-1.26v.987zm11.02-4.074c3.003 0 5.124-2.226 5.124-5.46 0-3.213-2.12-5.439-5.124-5.439-3.003 0-5.103 2.226-5.103 5.439 0 3.234 2.1 5.46 5.103 5.46zm0-.966c-2.373 0-4.01-1.848-4.01-4.494 0-2.625 1.637-4.494 4.01-4.494 2.373 0 4.011 1.869 4.011 4.494 0 2.646-1.638 4.494-4.01 4.494zm11.6-9.807c-1.975 0-2.815.945-3.256 2.121l-.168-2.121h-.924V16h1.071v-5.397c0-2.163.567-4.221 3.066-4.221h.777V5.353h-.567zm1.404 7.371c.084 2.205 1.869 3.402 4.536 3.402 2.289 0 4.137-1.155 4.137-3.045 0-2.247-1.974-2.688-4.263-3.003-1.66-.231-3.13-.42-3.13-1.911 0-1.218 1.198-2.016 3.004-2.016 1.7 0 2.919.819 3.108 2.205h1.092c-.19-2.079-1.89-3.129-4.2-3.129-2.373-.021-4.074 1.197-4.074 3.024 0 2.142 1.974 2.541 4.158 2.835 1.785.252 3.234.483 3.234 2.058 0 1.26-1.323 2.058-3.066 2.058-2.037 0-3.36-.945-3.444-2.478h-1.092zM65.323 6.34h2.016V16h1.071V6.34h3.192v-.987H68.41V3.757c0-1.05.4-1.47 1.47-1.47h1.743V1.3h-1.785c-1.785 0-2.499.777-2.499 2.478v1.575h-2.016v.987zm11.923-.987c-1.974 0-2.814.945-3.255 2.121l-.168-2.121h-.924V16h1.07v-5.397c0-2.163.568-4.221 3.067-4.221h.777V5.353h-.567zm6.099 10.773c3.003 0 5.124-2.226 5.124-5.46 0-3.213-2.121-5.439-5.124-5.439-3.003 0-5.103 2.226-5.103 5.439 0 3.234 2.1 5.46 5.103 5.46zm0-.966c-2.373 0-4.011-1.848-4.011-4.494 0-2.625 1.638-4.494 4.01-4.494 2.374 0 4.012 1.869 4.012 4.494 0 2.646-1.638 4.494-4.011 4.494zm19.138-9.933c-1.953 0-3.213 1.092-3.822 2.667-.504-1.764-1.827-2.667-3.507-2.667-1.827 0-2.92 1.071-3.465 2.394l-.168-2.268h-.924V16h1.07v-5.418c0-2.604 1.26-4.368 3.298-4.368 1.848 0 3.003 1.302 3.003 3.759V16h1.07v-5.796c.064-2.436 1.324-3.99 3.319-3.99 1.848 0 2.961 1.239 2.961 3.654V16h1.092V9.826c0-3.213-1.701-4.599-3.927-4.599zm11.713 3.759c0 4.305 2.121 7.14 5.313 7.14 3.15 0 5.292-2.835 5.292-7.14v-.672c0-4.179-2.142-7.14-5.292-7.14-3.192 0-5.313 2.961-5.313 7.14v.672zm9.492-.042c0 3.738-1.659 6.174-4.179 6.174-2.541 0-4.2-2.436-4.2-6.174v-.588c0-3.738 1.659-6.174 4.2-6.174 2.52 0 4.179 2.436 4.179 6.174v.588zm2.2 6.363c0 .483.336.798.798.798s.798-.315.798-.798c0-.483-.336-.777-.798-.777s-.798.294-.798.777zm8.075-9.051c-1.554 0-2.94.546-3.822 1.785l.399-5.733h7.287V1.3h-8.274l-.525 8.211 1.05.042c.63-1.722 2.394-2.31 3.738-2.31 2.352 0 3.801 1.659 3.801 3.927 0 2.604-1.869 3.948-3.885 3.948-2.394 0-3.78-1.596-3.948-3.507h-1.092c.168 2.436 1.932 4.494 5.04 4.494 2.646 0 4.998-1.722 4.998-4.956 0-2.856-1.911-4.893-4.767-4.893zm11.9-1.029c-1.995 0-3.381 1.071-4.053 2.562l-.168-2.436h-.924V20.2h1.071v-6.657c.609 1.554 2.058 2.583 4.074 2.583 2.919 0 5.019-2.226 5.019-5.46 0-3.339-2.1-5.439-5.019-5.439zm-.084 9.933c-2.373 0-4.011-1.848-4.011-4.515 0-2.604 1.638-4.473 4.011-4.473s4.011 1.869 4.011 4.494c0 2.646-1.638 4.494-4.011 4.494zm7.857-1.638c0 1.701.693 2.478 2.499 2.478h1.554v-.987h-1.47c-1.113 0-1.512-.42-1.512-1.512V6.34h2.877v-.987h-2.877V2.371h-1.071v2.982h-2.016v.987h2.016v7.182zm5.2-.798c.084 2.205 1.869 3.402 4.536 3.402 2.289 0 4.137-1.155 4.137-3.045 0-2.247-1.974-2.688-4.263-3.003-1.659-.231-3.129-.42-3.129-1.911 0-1.218 1.197-2.016 3.003-2.016 1.701 0 2.919.819 3.108 2.205h1.092c-.189-2.079-1.89-3.129-4.2-3.129-2.373-.021-4.074 1.197-4.074 3.024 0 2.142 1.974 2.541 4.158 2.835 1.785.252 3.234.483 3.234 2.058 0 1.26-1.323 2.058-3.066 2.058-2.037 0-3.36-.945-3.444-2.478h-1.092zM177.795 16h1.155l3.15-8.946L185.103 16h1.155l3.78-10.647h-1.092l-3.276 9.366-3.045-9.366h-.987l-3.213 9.366-3.108-9.366h-1.134L177.795 16zm14.287-12.894a.74.74 0 00.756-.756.74.74 0 00-.756-.756.74.74 0 00-.756.756.74.74 0 00.756.756zM191.536 16h1.071V5.353h-1.071V16zm4.387-2.478c0 1.701.693 2.478 2.499 2.478h1.554v-.987h-1.47c-1.113 0-1.512-.42-1.512-1.512V6.34h2.877v-.987h-2.877V2.371h-1.071v2.982h-2.016v.987h2.016v7.182zm10.597-8.295c-1.995 0-3.234 1.113-3.843 2.646V1.3h-1.071V16h1.071v-5.25c0-2.772 1.407-4.536 3.675-4.536 2.037 0 3.297 1.344 3.297 3.864V16h1.071v-5.964c0-3.36-1.785-4.809-4.2-4.809zM218.771 16h1.071V1.3h-1.071V16zm8.293.126c3.003 0 5.124-2.226 5.124-5.46 0-3.213-2.121-5.439-5.124-5.439-3.003 0-5.103 2.226-5.103 5.439 0 3.234 2.1 5.46 5.103 5.46zm0-.966c-2.373 0-4.011-1.848-4.011-4.494 0-2.625 1.638-4.494 4.011-4.494s4.011 1.869 4.011 4.494c0 2.646-1.638 4.494-4.011 4.494zm9.507.84h1.155l3.15-8.946L243.879 16h1.155l3.78-10.647h-1.092l-3.276 9.366-3.045-9.366h-.987l-3.213 9.366-3.108-9.366h-1.134L236.571 16zm18.117.126c2.331 0 4.116-1.512 4.578-3.654h-1.092c-.42 1.659-1.827 2.688-3.57 2.688-2.373 0-3.864-1.806-3.906-4.284v-.189h8.694c0-.147.021-.315.021-.441-.105-3.171-2.058-5.019-4.914-5.019-2.919 0-4.914 2.226-4.914 5.376 0 3.339 2.079 5.523 5.103 5.523zm-3.906-6.342c.168-2.163 1.785-3.612 3.738-3.612 2.079 0 3.57 1.281 3.738 3.612h-7.476zm15.095-4.431c-1.974 0-2.814.945-3.255 2.121l-.168-2.121h-.924V16h1.071v-5.397c0-2.163.567-4.221 3.066-4.221h.777V5.353h-.567zm19.7-.126c-1.953 0-3.213 1.092-3.822 2.667-.504-1.764-1.827-2.667-3.507-2.667-1.827 0-2.919 1.071-3.465 2.394l-.168-2.268h-.924V16h1.071v-5.418c0-2.604 1.26-4.368 3.297-4.368 1.848 0 3.003 1.302 3.003 3.759V16h1.071v-5.796c.063-2.436 1.323-3.99 3.318-3.99 1.848 0 2.961 1.239 2.961 3.654V16h1.092V9.826c0-3.213-1.701-4.599-3.927-4.599zm15.67 9.786c-.63 0-.945-.21-.945-1.029V9.028c0-2.436-1.491-3.801-4.158-3.801-2.436 0-4.053 1.176-4.326 3.108h1.071c.273-1.302 1.407-2.163 3.213-2.163 1.995 0 3.129 1.05 3.129 2.814v.924h-3.612c-2.73 0-4.2 1.176-4.2 3.171 0 1.89 1.491 3.045 3.759 3.045 2.163 0 3.444-.987 4.095-2.31v.378c-.042 1.26.483 1.806 1.743 1.806h.63v-.987h-.399zm-2.016-3.318c0 2.037-1.449 3.507-3.969 3.507-1.701 0-2.751-.861-2.751-2.184 0-1.407 1.05-2.184 3.024-2.184h3.696v.861zm8.194-6.342c-1.974 0-2.814.945-3.255 2.121l-.168-2.121h-.924V16h1.071v-5.397c0-2.163.567-4.221 3.066-4.221h.777V5.353h-.567zm10.069 2.478c-.651-1.575-2.079-2.604-4.053-2.604-2.919 0-5.019 2.205-5.019 5.439 0 3.36 2.1 5.46 5.019 5.46 1.995 0 3.402-1.05 4.074-2.709v1.89c0 2.835-1.344 4.053-3.906 4.053-1.995 0-3.381-.903-3.717-2.52h-1.113c.336 2.268 2.163 3.486 4.746 3.486 3.444 0 5.061-1.638 5.061-4.977V5.353h-.924l-.168 2.478zm-3.969 7.329c-2.373 0-4.011-1.848-4.011-4.494s1.638-4.494 4.011-4.494 4.011 1.848 4.011 4.515c0 2.625-1.638 4.473-4.011 4.473zm8.126-12.054a.74.74 0 00.756-.756.74.74 0 00-.756-.756.74.74 0 00-.756.756.74.74 0 00.756.756zM321.105 16h1.071V5.353h-1.071V16zm8.503-10.773c-1.953 0-3.213 1.008-3.822 2.394l-.168-2.268h-.924V16h1.071v-5.25c0-2.772 1.407-4.536 3.675-4.536 2.058 0 3.297 1.344 3.297 3.864V16h1.071v-5.964c0-3.36-1.785-4.809-4.2-4.809zm23.717 9.807c-.588 0-1.008-.126-1.449-.672l-1.05-1.218 3.339-5.082h-1.134l-2.856 4.305-3.276-3.843-.126-.147c2.814-1.176 3.822-2.52 3.822-4.158 0-1.743-1.365-3.045-3.213-3.045-2.184 0-3.801 1.449-3.801 3.381 0 1.344.462 2.184 1.596 3.57-2.562 1.092-3.591 2.604-3.591 4.263 0 2.415 1.911 3.738 4.305 3.738 1.638 0 3.066-.735 4.263-2.142l1.029 1.218c.504.609 1.197.798 1.995.798h1.47v-.966h-1.323zm-6.027-12.936c1.302 0 2.205.903 2.205 2.142 0 1.428-.987 2.457-3.297 3.465-1.071-1.281-1.512-2.016-1.512-3.171 0-1.407 1.071-2.436 2.604-2.436zm-1.386 13.062c-1.848 0-3.234-1.05-3.234-2.856 0-1.533.861-2.478 3.045-3.528l.315.357 3.486 4.116c-.987 1.239-2.226 1.911-3.612 1.911zm15.738.84h9.807v-1.008h-8.295l4.893-4.41c1.701-1.533 3.213-2.94 3.213-5.166 0-2.583-1.785-4.242-4.767-4.242-2.856 0-4.704 1.848-4.704 4.62v.357h1.092v-.294c0-2.289 1.407-3.696 3.612-3.696 2.226 0 3.654 1.239 3.654 3.318 0 1.848-1.407 3.129-2.793 4.389l-5.712 5.187V16zm10.415-3.864h7.854V16h1.092v-3.864h2.415v-1.008h-2.415V1.3h-1.218l-7.728 9.849v.987zm7.854-9.471v8.463h-6.615l6.615-8.463zm4.968 16.065L390.83.67h-1.071l-5.943 18.06h1.071zm12.129-12.474c-1.554 0-2.94.546-3.822 1.785l.399-5.733h7.287V1.3h-8.274l-.525 8.211 1.05.042c.63-1.722 2.394-2.31 3.738-2.31 2.352 0 3.801 1.659 3.801 3.927 0 2.604-1.869 3.948-3.885 3.948-2.394 0-3.78-1.596-3.948-3.507h-1.092c.168 2.436 1.932 4.494 5.04 4.494 2.646 0 4.998-1.722 4.998-4.956 0-2.856-1.911-4.893-4.767-4.893zM409.432 16h1.071V1.3h-1.071V16zm4.135-12.894a.74.74 0 00.756-.756.74.74 0 00-.756-.756.74.74 0 00-.756.756.74.74 0 00.756.756zM413.021 16h1.071V5.353h-1.071V16zm6.676 0h1.281l4.158-10.647h-1.113l-3.654 9.408-3.675-9.408h-1.155L419.697 16zm11.153.126c2.331 0 4.116-1.512 4.578-3.654h-1.092c-.42 1.659-1.827 2.688-3.57 2.688-2.373 0-3.864-1.806-3.906-4.284v-.189h8.694c0-.147.021-.315.021-.441-.105-3.171-2.058-5.019-4.914-5.019-2.919 0-4.914 2.226-4.914 5.376 0 3.339 2.079 5.523 5.103 5.523zm-3.906-6.342c.168-2.163 1.785-3.612 3.738-3.612 2.079 0 3.57 1.281 3.738 3.612h-7.476zm15.925 2.94c.084 2.205 1.869 3.402 4.536 3.402 2.289 0 4.137-1.155 4.137-3.045 0-2.247-1.974-2.688-4.263-3.003-1.659-.231-3.129-.42-3.129-1.911 0-1.218 1.197-2.016 3.003-2.016 1.701 0 2.919.819 3.108 2.205h1.092c-.189-2.079-1.89-3.129-4.2-3.129-2.373-.021-4.074 1.197-4.074 3.024 0 2.142 1.974 2.541 4.158 2.835 1.785.252 3.234.483 3.234 2.058 0 1.26-1.323 2.058-3.066 2.058-2.037 0-3.36-.945-3.444-2.478h-1.092zm18.444-2.142c0 2.793-1.386 4.557-3.591 4.557-1.974 0-3.192-1.344-3.192-3.885V5.353h-1.071v5.964c0 3.339 1.743 4.809 4.095 4.809 1.89 0 3.129-1.008 3.738-2.373l.147 2.247h.945V5.353h-1.071v5.229zm8.738-5.355c-1.995 0-3.381 1.071-4.053 2.562l-.168-2.436h-.924V20.2h1.071v-6.657c.609 1.554 2.058 2.583 4.074 2.583 2.919 0 5.019-2.226 5.019-5.46 0-3.339-2.1-5.439-5.019-5.439zm-.084 9.933c-2.373 0-4.011-1.848-4.011-4.515 0-2.604 1.638-4.473 4.011-4.473s4.011 1.869 4.011 4.494c0 2.646-1.638 4.494-4.011 4.494zm12.368-9.933c-1.995 0-3.381 1.071-4.053 2.562l-.168-2.436h-.924V20.2h1.071v-6.657c.609 1.554 2.058 2.583 4.074 2.583 2.919 0 5.019-2.226 5.019-5.46 0-3.339-2.1-5.439-5.019-5.439zm-.084 9.933c-2.373 0-4.011-1.848-4.011-4.515 0-2.604 1.638-4.473 4.011-4.473s4.011 1.869 4.011 4.494c0 2.646-1.638 4.494-4.011 4.494zm11.927.966c3.003 0 5.124-2.226 5.124-5.46 0-3.213-2.121-5.439-5.124-5.439-3.003 0-5.103 2.226-5.103 5.439 0 3.234 2.1 5.46 5.103 5.46zm0-.966c-2.373 0-4.011-1.848-4.011-4.494 0-2.625 1.638-4.494 4.011-4.494s4.011 1.869 4.011 4.494c0 2.646-1.638 4.494-4.011 4.494zm11.599-9.807c-1.974 0-2.814.945-3.255 2.121l-.168-2.121h-.924V16h1.071v-5.397c0-2.163.567-4.221 3.066-4.221h.777V5.353h-.567zm3.239 8.169c0 1.701.693 2.478 2.499 2.478h1.554v-.987h-1.47c-1.113 0-1.512-.42-1.512-1.512V6.34h2.877v-.987h-2.877V2.371h-1.071v2.982H507v.987h2.016v7.182z" fill="#000"/></svg>