<svg width="233" height="34" viewBox="0 0 233 34" fill="none" xmlns="http://www.w3.org/2000/svg"><rect width="233" height="34" rx="17" fill="#000"/><path d="M23.28 18.02c0 4 1.82 6.1 5.32 6.1s5.36-2.1 5.36-6.1V10h-1.74v8.12c0 2.9-1.16 4.4-3.62 4.4-2.42 0-3.58-1.5-3.58-4.4V10h-1.74v8.02zm18.222-4.34c-1.72 0-2.82.82-3.5 1.76l-.22-1.64h-1.42V28h1.64v-5.56c.62.98 1.78 1.68 3.5 1.68 2.82 0 4.9-2.1 4.9-5.22 0-3.32-2.08-5.22-4.9-5.22zm-.16 8.98c-2 0-3.36-1.56-3.36-3.8 0-2.18 1.36-3.72 3.36-3.72 2.02 0 3.38 1.54 3.38 3.76 0 2.22-1.36 3.76-3.38 3.76zm14.974-7.1c-.64-1.14-1.78-1.88-3.5-1.88-2.82 0-4.9 2.1-4.9 5.22 0 3.32 2.08 5.22 4.9 5.22 1.72 0 2.82-.72 3.5-1.88v1.2c0 2.22-1.16 3.22-3.3 3.22-1.7 0-2.84-.72-3.12-2h-1.68c.26 2.24 2.08 3.46 4.68 3.46 3.5 0 5.06-1.68 5.06-4.62v-9.7h-1.42l-.22 1.76zm-3.34 7.1c-2.02 0-3.38-1.54-3.38-3.76 0-2.22 1.36-3.76 3.38-3.76 2 0 3.36 1.56 3.36 3.8 0 2.18-1.36 3.72-3.36 3.72zM64.91 13.8c-1.82 0-2.6.76-3.08 1.54l-.22-1.54h-1.42V24h1.64v-5.2c0-1.62.58-3.4 2.72-3.4h.82v-1.6h-.46zm10.55 8.7c-.46 0-.66-.14-.66-.68v-4.46c0-2.38-1.5-3.68-4.1-3.68-2.46 0-4.08 1.18-4.32 3.18h1.64c.2-1.04 1.16-1.72 2.6-1.72 1.6 0 2.54.8 2.54 2.12v.7h-3c-2.68 0-4.1 1.14-4.1 3.18 0 1.86 1.52 2.98 3.76 2.98 1.76 0 2.78-.78 3.42-1.7.02 1 .48 1.58 1.84 1.58h.9v-1.5h-.52zm-2.3-2.66c0 1.7-1.18 2.88-3.22 2.88-1.36 0-2.22-.68-2.22-1.68 0-1.16.82-1.7 2.28-1.7h3.16v.5zm12.004-4.48c-.62-.98-1.78-1.68-3.5-1.68-2.82 0-4.9 2.1-4.9 5.22 0 3.32 2.08 5.22 4.9 5.22 1.72 0 2.82-.82 3.5-1.76l.22 1.64h1.42V10h-1.64v5.36zm-3.34 7.3c-2.02 0-3.38-1.54-3.38-3.76 0-2.22 1.36-3.76 3.38-3.76 2 0 3.36 1.56 3.36 3.8 0 2.18-1.36 3.72-3.36 3.72zm11.914 1.46c2.36 0 4.04-1.5 4.44-3.54h-1.66c-.34 1.32-1.46 2.08-2.9 2.08-1.94 0-3.16-1.36-3.22-3.3v-.14h7.92c.02-.24.04-.48.04-.7-.08-3.02-1.96-4.84-4.84-4.84s-4.84 2.12-4.84 5.22c0 3.12 2 5.22 5.06 5.22zm-3.24-6.26c.16-1.66 1.54-2.74 3.04-2.74 1.7 0 2.9.98 3.06 2.74h-6.1zm17.926 6.2l-.5 1.24c-.38.96-.54 1.2-1.48 1.2h-1.46V28h1.96c1.44 0 1.82-.64 2.46-2.28l4.7-11.92h-1.74l-3.04 8.14-3.14-8.14h-1.74l3.98 10.26zm11.154.06c2.98 0 5.06-2.12 5.06-5.22 0-3.1-2.08-5.22-5.06-5.22-2.98 0-5.06 2.12-5.06 5.22 0 3.1 2.08 5.22 5.06 5.22zm0-1.46c-2.02 0-3.38-1.58-3.38-3.76 0-2.18 1.36-3.76 3.38-3.76 2.02 0 3.38 1.58 3.38 3.76 0 2.18-1.36 3.76-3.38 3.76zm14.08-3.76c0 2.3-1.12 3.72-2.98 3.72-1.7 0-2.66-1.12-2.66-3.24V13.8h-1.64v5.68c0 3.38 1.78 4.64 4.02 4.64 1.68 0 2.66-.72 3.26-1.48l.22 1.36h1.42V13.8h-1.64v5.1zm8.596-5.1c-1.82 0-2.6.76-3.08 1.54l-.22-1.54h-1.42V24h1.64v-5.2c0-1.62.58-3.4 2.72-3.4h.82v-1.6h-.46zm7.876 7.54c0 1.8.7 2.66 2.66 2.66h1.78v-1.5h-1.62c-.88 0-1.18-.32-1.18-1.18V15.3h2.64v-1.5h-2.64v-2.86h-1.64v2.86h-1.84v1.5h1.84v6.04zm10.581-7.54c-1.82 0-2.6.76-3.08 1.54l-.22-1.54h-1.42V24h1.64v-5.2c0-1.62.58-3.4 2.72-3.4h.82v-1.6h-.46zm10.55 8.7c-.46 0-.66-.14-.66-.68v-4.46c0-2.38-1.5-3.68-4.1-3.68-2.46 0-4.08 1.18-4.32 3.18h1.64c.2-1.04 1.16-1.72 2.6-1.72 1.6 0 2.54.8 2.54 2.12v.7h-3c-2.68 0-4.1 1.14-4.1 3.18 0 1.86 1.52 2.98 3.76 2.98 1.76 0 2.78-.78 3.42-1.7.02 1 .48 1.58 1.84 1.58h.9v-1.5h-.52zm-2.3-2.66c0 1.7-1.18 2.88-3.22 2.88-1.36 0-2.22-.68-2.22-1.68 0-1.16.82-1.7 2.28-1.7h3.16v.5zm12.004-4.48c-.62-.98-1.78-1.68-3.5-1.68-2.82 0-4.9 2.1-4.9 5.22 0 3.32 2.08 5.22 4.9 5.22 1.72 0 2.82-.82 3.5-1.76l.22 1.64h1.42V10h-1.64v5.36zm-3.34 7.3c-2.02 0-3.38-1.54-3.38-3.76 0-2.22 1.36-3.76 3.38-3.76 2 0 3.36 1.56 3.36 3.8 0 2.18-1.36 3.72-3.36 3.72zm8.054-10.58c.6 0 1.06-.44 1.06-1.06 0-.62-.46-1.06-1.06-1.06-.6 0-1.06.44-1.06 1.06 0 .62.46 1.06 1.06 1.06zm-.84 11.92h1.64V13.8h-1.64V24zm8.886-10.32c-1.72 0-2.76.72-3.36 1.5l-.22-1.38h-1.42V24h1.64v-5.1c0-2.3 1.16-3.72 3.08-3.72 1.78 0 2.76 1.12 2.76 3.24V24h1.64v-5.68c0-3.38-1.82-4.64-4.12-4.64zm14.251 1.88c-.64-1.14-1.78-1.88-3.5-1.88-2.82 0-4.9 2.1-4.9 5.22 0 3.32 2.08 5.22 4.9 5.22 1.72 0 2.82-.72 3.5-1.88v1.2c0 2.22-1.16 3.22-3.3 3.22-1.7 0-2.84-.72-3.12-2h-1.68c.26 2.24 2.08 3.46 4.68 3.46 3.5 0 5.06-1.68 5.06-4.62v-9.7h-1.42l-.22 1.76zm-3.34 7.1c-2.02 0-3.38-1.54-3.38-3.76 0-2.22 1.36-3.76 3.38-3.76 2 0 3.36 1.56 3.36 3.8 0 2.18-1.36 3.72-3.36 3.72z" fill="#fff"/></svg>