<svg width="110" height="7" viewBox="0 0 110 7" fill="none" xmlns="http://www.w3.org/2000/svg"><path d="M1.898 1.319l-.745.322.012-.816h-.22l.012.816-.739-.322-.09.208.763.292-.524.626.16.149.525-.65.524.65.167-.15-.518-.619.756-.292-.083-.214zm.461-.19h1.43V5h.321V1.128h1.43V.831H2.359v.297zm6.917 3.597a.462.462 0 01-.411-.19l-.298-.346.947-1.442h-.322l-.81 1.222-.929-1.09-.036-.042c.798-.334 1.084-.715 1.084-1.18 0-.494-.387-.863-.911-.863-.62 0-1.078.41-1.078.959 0 .381.131.62.453 1.012-.727.31-1.019.739-1.019 1.21 0 .684.542 1.06 1.221 1.06.465 0 .87-.209 1.21-.608l.291.346c.143.172.34.226.566.226h.417v-.274h-.375zm-1.71-3.67c.37 0 .626.257.626.608 0 .405-.28.697-.936.983-.303-.363-.428-.572-.428-.9 0-.398.303-.69.738-.69zm-.393 3.706c-.524 0-.917-.298-.917-.81 0-.435.244-.703.863-1.001l.09.101.989 1.168c-.28.351-.632.542-1.025.542zm4.925.274c.894 0 1.525-.483 1.704-1.323h-.34c-.178.668-.66 1.025-1.37 1.025-.965 0-1.572-.757-1.572-1.823 0-1.066.62-1.822 1.584-1.822.697 0 1.186.363 1.37 1.018h.34c-.185-.834-.816-1.316-1.692-1.316-1.173 0-1.936.87-1.936 2.12 0 1.263.745 2.12 1.912 2.12zm2.188-.965c.024.625.53.965 1.286.965.65 0 1.174-.328 1.174-.864 0-.637-.56-.762-1.21-.852-.47-.065-.887-.119-.887-.542 0-.345.34-.572.852-.572.482 0 .828.233.881.626h.31c-.053-.59-.536-.888-1.191-.888-.673-.006-1.156.34-1.156.858 0 .608.56.72 1.18.804.506.072.917.137.917.584 0 .357-.375.584-.87.584-.577 0-.953-.268-.976-.703h-.31zm7.301.649c-.178 0-.268-.06-.268-.292V3.022c0-.69-.423-1.078-1.18-1.078-.69 0-1.149.334-1.226.882h.304c.077-.37.399-.614.911-.614.566 0 .887.298.887.799v.262h-1.024c-.774 0-1.191.333-1.191.9 0 .535.423.863 1.066.863.613 0 .977-.28 1.161-.655v.107c-.012.357.137.512.495.512h.179v-.28h-.114zm-.572-.941c0 .578-.41.995-1.125.995-.483 0-.78-.245-.78-.62 0-.399.297-.62.857-.62h1.049v.245zm2.551-1.835c-.566 0-.959.304-1.15.727l-.047-.69h-.262v4.21h.303V4.303c.173.44.584.733 1.156.733.828 0 1.424-.632 1.424-1.549 0-.947-.596-1.543-1.424-1.543zm-.024 2.818c-.673 0-1.138-.524-1.138-1.28 0-.74.465-1.27 1.138-1.27.673 0 1.138.53 1.138 1.275 0 .75-.465 1.275-1.138 1.275zm3.508-2.818c-.566 0-.959.304-1.15.727l-.047-.69h-.262v4.21h.304V4.303c.172.44.583.733 1.155.733.828 0 1.424-.632 1.424-1.549 0-.947-.596-1.543-1.424-1.543zm-.024 2.818c-.673 0-1.137-.524-1.137-1.28 0-.74.464-1.27 1.137-1.27.674 0 1.138.53 1.138 1.275 0 .75-.465 1.275-1.138 1.275zm2.05.238h.303V.83h-.304V5zm1.922 0l-.196.488c-.137.334-.19.423-.5.423h-.382v.28h.465c.405 0 .5-.155.69-.631l1.448-3.58h-.327l-1.03 2.627-1.05-2.627h-.327L31 5zm1.66-.197c0 .137.095.227.226.227.13 0 .226-.09.226-.227s-.095-.22-.226-.22-.227.083-.227.22zM37.78 5v-.298h-1.996V.831h-.321V5h2.317zm1.621.036c.852 0 1.453-.632 1.453-1.549 0-.911-.601-1.543-1.453-1.543-.852 0-1.447.632-1.447 1.543 0 .917.595 1.549 1.447 1.549zm0-.274c-.673 0-1.138-.524-1.138-1.275 0-.744.465-1.275 1.138-1.275.673 0 1.138.53 1.138 1.275 0 .75-.465 1.275-1.138 1.275zm1.914-.691c.024.625.53.965 1.287.965.65 0 1.173-.328 1.173-.864 0-.637-.56-.762-1.209-.852-.47-.065-.887-.119-.887-.542 0-.345.34-.572.851-.572.483 0 .828.233.882.626h.31c-.054-.59-.536-.888-1.192-.888-.673-.006-1.155.34-1.155.858 0 .608.56.72 1.18.804.506.072.916.137.916.584 0 .357-.375.584-.87.584-.577 0-.952-.268-.976-.703h-.31zm2.845 0c.023.625.53.965 1.286.965.65 0 1.174-.328 1.174-.864 0-.637-.56-.762-1.21-.852-.47-.065-.887-.119-.887-.542 0-.345.34-.572.852-.572.482 0 .828.233.881.626h.31c-.054-.59-.536-.888-1.191-.888-.673-.006-1.156.34-1.156.858 0 .608.56.72 1.18.804.506.072.917.137.917.584 0 .357-.375.584-.87.584-.578 0-.953-.268-.977-.703h-.31zm4.373.965c.662 0 1.168-.43 1.299-1.037h-.31c-.119.47-.518.763-1.012.763-.674 0-1.096-.512-1.108-1.215v-.054h2.466c0-.042.006-.09.006-.125-.03-.9-.584-1.424-1.394-1.424-.828 0-1.394.632-1.394 1.525 0 .947.59 1.567 1.447 1.567zm-1.107-1.8c.047-.613.506-1.024 1.06-1.024.59 0 1.012.364 1.06 1.025h-2.12zm2.905.835c.024.625.53.965 1.287.965.65 0 1.173-.328 1.173-.864 0-.637-.56-.762-1.209-.852-.47-.065-.887-.119-.887-.542 0-.345.34-.572.851-.572.483 0 .828.233.882.626h.31c-.054-.59-.536-.888-1.192-.888-.673-.006-1.155.34-1.155.858 0 .608.56.72 1.18.804.505.072.916.137.916.584 0 .357-.375.584-.87.584-.577 0-.952-.268-.976-.703h-.31zm5.962.965c.685 0 1.167-.393 1.286-1.007h-.322c-.1.447-.464.733-.964.733-.662 0-1.12-.518-1.12-1.269 0-.75.453-1.28 1.12-1.28.506 0 .863.285.97.738h.316c-.125-.625-.596-1.007-1.28-1.007-.852 0-1.436.632-1.436 1.549 0 .93.578 1.543 1.43 1.543zm4.533-.316c-.178 0-.268-.06-.268-.292V3.022c0-.69-.423-1.078-1.18-1.078-.69 0-1.149.334-1.226.882h.303c.078-.37.4-.614.912-.614.566 0 .887.298.887.799v.262h-1.024c-.775 0-1.191.333-1.191.9 0 .535.422.863 1.066.863.613 0 .977-.28 1.161-.655v.107c-.012.357.137.512.495.512h.178v-.28h-.113zm-.572-.941c0 .578-.41.995-1.125.995-.483 0-.78-.245-.78-.62 0-.399.297-.62.857-.62h1.048v.245zm2.485-1.835c-.554 0-.911.286-1.084.68l-.047-.644h-.262V5h.303V3.51c0-.785.4-1.286 1.043-1.286.583 0 .935.382.935 1.096V5h.304V3.308c0-.953-.507-1.364-1.192-1.364zm4.804 3.092c.66 0 1.167-.43 1.298-1.037h-.31c-.119.47-.518.763-1.012.763-.673 0-1.096-.512-1.108-1.215v-.054h2.466c0-.042.006-.09.006-.125-.03-.9-.584-1.424-1.394-1.424-.828 0-1.394.632-1.394 1.525 0 .947.59 1.567 1.448 1.567zm-1.108-1.8c.047-.613.506-1.024 1.06-1.024.59 0 1.013.364 1.06 1.025h-2.12zM69.058 5h.351l1.001-1.328 1 1.328h.37l-1.174-1.543L71.72 1.98h-.345l-.953 1.251-.941-1.25h-.364l1.114 1.476L69.058 5zm4.325.036c.685 0 1.168-.393 1.287-1.007h-.322c-.101.447-.464.733-.965.733-.66 0-1.12-.518-1.12-1.269 0-.75.453-1.28 1.12-1.28.507 0 .864.285.971.738h.316c-.125-.625-.596-1.007-1.28-1.007-.853 0-1.436.632-1.436 1.549 0 .93.578 1.543 1.43 1.543zm3.212 0c.66 0 1.167-.43 1.298-1.037h-.31c-.119.47-.518.763-1.012.763-.673 0-1.096-.512-1.108-1.215v-.054h2.466c0-.042.006-.09.006-.125-.03-.9-.584-1.424-1.394-1.424-.828 0-1.394.632-1.394 1.525 0 .947.59 1.567 1.447 1.567zm-1.108-1.8c.047-.613.506-1.024 1.06-1.024.59 0 1.012.364 1.06 1.025h-2.12zm4.382 1.8c.662 0 1.168-.43 1.299-1.037h-.31c-.119.47-.518.763-1.013.763-.673 0-1.096-.512-1.107-1.215v-.054h2.466c0-.042.006-.09.006-.125-.03-.9-.584-1.424-1.394-1.424-.828 0-1.394.632-1.394 1.525 0 .947.59 1.567 1.447 1.567zm-1.108-1.8c.048-.613.507-1.024 1.06-1.024.59 0 1.013.364 1.06 1.025h-2.12zm5.515-.577c-.185-.429-.59-.715-1.156-.715-.828 0-1.423.632-1.423 1.543 0 .953.595 1.549 1.423 1.549.566 0 .96-.304 1.15-.727l.048.691h.262V.83h-.304v1.83zm-1.132 2.103c-.673 0-1.138-.524-1.138-1.275 0-.744.465-1.275 1.138-1.275.673 0 1.138.53 1.138 1.281 0 .745-.465 1.269-1.138 1.269zm6.221-2.103c-.184-.429-.59-.715-1.155-.715-.828 0-1.424.632-1.424 1.543 0 .953.596 1.549 1.424 1.549.566 0 .959-.304 1.15-.727l.047.691h.262V.83h-.303v1.83zm-1.131 2.103c-.673 0-1.138-.524-1.138-1.275 0-.744.465-1.275 1.138-1.275.673 0 1.138.53 1.138 1.281 0 .745-.465 1.269-1.138 1.269zm3.484.274c.661 0 1.167-.43 1.299-1.037h-.31c-.12.47-.518.763-1.013.763-.673 0-1.096-.512-1.108-1.215v-.054h2.466c0-.042.006-.09.006-.125-.03-.9-.584-1.424-1.394-1.424-.828 0-1.393.632-1.393 1.525 0 .947.59 1.567 1.447 1.567zm-1.108-1.8c.048-.613.507-1.024 1.06-1.024.59 0 1.013.364 1.06 1.025h-2.12zm4.508-1.292c-.566 0-.959.304-1.15.727l-.047-.69h-.262v4.21h.303V4.303c.173.44.584.733 1.156.733.828 0 1.424-.632 1.424-1.549 0-.947-.596-1.543-1.424-1.543zm-.024 2.818c-.673 0-1.137-.524-1.137-1.28 0-.74.464-1.27 1.137-1.27s1.138.53 1.138 1.275c0 .75-.465 1.275-1.138 1.275zm3.383.274c.852 0 1.453-.632 1.453-1.549 0-.911-.601-1.543-1.453-1.543-.852 0-1.447.632-1.447 1.543 0 .917.595 1.549 1.447 1.549zm0-.274c-.673 0-1.138-.524-1.138-1.275 0-.744.465-1.275 1.138-1.275.673 0 1.138.53 1.138 1.275 0 .75-.465 1.275-1.138 1.275zm1.914-.691c.024.625.53.965 1.287.965.649 0 1.173-.328 1.173-.864 0-.637-.56-.762-1.209-.852-.47-.065-.887-.119-.887-.542 0-.345.339-.572.851-.572.483 0 .828.233.882.626h.31c-.054-.59-.536-.888-1.192-.888-.673-.006-1.155.34-1.155.858 0 .608.56.72 1.179.804.506.072.917.137.917.584 0 .357-.375.584-.869.584-.578 0-.953-.268-.977-.703h-.31zm3.195-2.728a.21.21 0 00.214-.215.21.21 0 00-.214-.214.21.21 0 00-.215.214.21.21 0 00.215.215zM103.431 5h.304V1.98h-.304V5zm1.244-.703c0 .483.197.703.709.703h.441v-.28h-.417c-.316 0-.429-.12-.429-.429v-2.03h.816v-.28h-.816v-.847h-.304v.846h-.572v.28h.572v2.037zm1.475-.226c.024.625.53.965 1.286.965.65 0 1.174-.328 1.174-.864 0-.637-.56-.762-1.209-.852-.471-.065-.888-.119-.888-.542 0-.345.34-.572.852-.572.482 0 .828.233.882.626h.309c-.053-.59-.536-.888-1.191-.888-.673-.006-1.156.34-1.156.858 0 .608.56.72 1.18.804.506.072.917.137.917.584 0 .357-.375.584-.87.584-.577 0-.953-.268-.976-.703h-.31zm2.951.732c0 .137.096.227.227.227s.226-.09.226-.227-.095-.22-.226-.22-.227.083-.227.22z" fill="#000"/></svg>