<svg width="77" height="10" viewBox="0 0 77 10" fill="none" xmlns="http://www.w3.org/2000/svg"><path d="M2.364 2.298c.34-.35.732-.624 1.18-.824.446-.2.923-.299 1.43-.299.557 0 1.006.07 1.345.212.34.141.668.345.987.611a.696.696 0 00.477.157.68.68 0 00.418-.175.506.506 0 00.174-.394.874.874 0 00-.02-.194.454.454 0 00-.077-.162.697.697 0 00-.162-.156C7.636.691 7.156.416 6.68.251 6.204.084 5.635 0 4.973 0A4.919 4.919 0 00.38 3.04 5 5 0 000 4.994C0 5.7.127 6.359.38 6.967a4.886 4.886 0 001.057 1.591c.45.454.979.807 1.584 1.06A4.98 4.98 0 004.973 10 5.057 5.057 0 008.13 8.914a.625.625 0 00.206-.462.588.588 0 00-.154-.432.592.592 0 00-.38-.175.69.69 0 00-.458.144c-.36.258-.737.46-1.127.606-.391.145-.806.218-1.244.218-.507 0-.983-.099-1.43-.294a3.702 3.702 0 01-1.179-.818 3.782 3.782 0 01-.792-1.217 3.9 3.9 0 01-.284-1.491c0-.525.094-1.018.284-1.48.189-.46.453-.866.792-1.215zM10.966.125c-.19 0-.348.061-.477.181a.61.61 0 00-.194.468v8.451c0 .184.064.337.194.462.13.124.288.188.477.188a.649.649 0 00.482-.188.627.627 0 00.187-.462V.774a.623.623 0 00-.187-.468.666.666 0 00-.482-.18zM20.513.125h-6.892a.616.616 0 00-.445.169.575.575 0 00-.174.431c0 .175.058.318.174.431a.614.614 0 00.445.169h2.783v7.902c0 .183.064.336.193.462.13.124.288.187.477.187.19 0 .348-.062.477-.187a.617.617 0 00.193-.462V1.323h2.77c.181 0 .329-.056.446-.168a.575.575 0 00.174-.431.577.577 0 00-.174-.431.62.62 0 00-.447-.168zM30.794.282a.524.524 0 00-.387-.157.691.691 0 00-.348.081.741.741 0 00-.245.23l-3.066 4.687L23.733.488a1.038 1.038 0 00-.245-.268.583.583 0 00-.348-.093.688.688 0 00-.43.144.572.572 0 00-.226.375c-.027.153.017.318.13.493l3.438 5.181v2.91c0 .183.064.336.194.462.13.123.284.187.464.187.19 0 .348-.062.477-.187a.617.617 0 00.194-.463V6.317l3.465-5.18a.706.706 0 00.13-.469.648.648 0 00-.182-.386zM37.61.125c-.188 0-.347.061-.476.181a.61.61 0 00-.194.468v8.451c0 .184.065.337.194.462.13.124.288.188.477.188a.649.649 0 00.482-.188.627.627 0 00.187-.462V.774a.623.623 0 00-.187-.468.666.666 0 00-.482-.18zM47.76.125c-.189 0-.347.061-.477.181a.61.61 0 00-.193.468v6.829L41.473.363a.656.656 0 00-.516-.238c-.19 0-.346.061-.47.181a.62.62 0 00-.187.468v8.451a.638.638 0 00.656.65.649.649 0 00.483-.188.632.632 0 00.187-.462V2.41l5.617 7.24c.06.075.14.131.238.17.099.037.19.056.277.056a.632.632 0 00.657-.65V.774a.63.63 0 00-.18-.468.635.635 0 00-.475-.18z" fill="#fff"/><path fill-rule="evenodd" clip-rule="evenodd" d="M56.973 1.492a4.655 4.655 0 00-1.579-1.01C54.79.243 54.116.124 53.377.124h-2.332c-.189 0-.347.061-.477.181a.61.61 0 00-.193.468v8.451c0 .184.064.337.193.462.13.124.288.188.477.188h2.332c.739 0 1.41-.119 2.017-.356a4.668 4.668 0 001.579-1.01c.446-.437.79-.953 1.03-1.549.24-.594.36-1.25.36-1.966 0-.715-.12-1.369-.36-1.96a4.51 4.51 0 00-1.03-1.542zm-.374 5.43a3.489 3.489 0 01-1.308 1.324c-.553.32-1.192.48-1.913.48h-1.662V1.275h1.661c.722 0 1.36.157 1.914.474.554.317.99.753 1.308 1.311.317.558.477 1.202.477 1.935 0 .724-.16 1.366-.477 1.928z" fill="#fff"/><path d="M66.653 1.323a.684.684 0 00.477-.163c.12-.108.181-.25.181-.424a.575.575 0 00-.18-.444.672.672 0 00-.478-.168H60.83c-.189 0-.348.06-.477.18a.61.61 0 00-.193.468v8.452c0 .183.064.337.193.462.13.124.288.187.477.187h5.824a.674.674 0 00.477-.168.58.58 0 00.181-.443.54.54 0 00-.18-.425.688.688 0 00-.478-.163H61.5V5.556h3.698a.674.674 0 00.477-.169.565.565 0 00.181-.43.563.563 0 00-.18-.432.672.672 0 00-.478-.168H61.5V1.323h5.154zM73.92 4.943l2.937-3.795A.734.734 0 0077 .686a.561.561 0 00-.593-.562.632.632 0 00-.476.187l-2.888 3.722-2.769-3.72c-.094-.126-.253-.188-.477-.188a.554.554 0 00-.43.175.704.704 0 00-.187.413.591.591 0 00.13.436l2.83 3.805-2.999 3.872a.706.706 0 00-.154.444c0 .161.051.304.154.424.103.121.253.18.45.18.181 0 .336-.061.465-.187l2.958-3.813 2.803 3.764a.617.617 0 00.225.18.687.687 0 00.29.057c.19 0 .337-.058.445-.175a.653.653 0 00.174-.425.662.662 0 00-.142-.45L73.92 4.943z" fill="#fff"/></svg>