<svg width="45" height="15" viewBox="0 0 45 15" fill="none" xmlns="http://www.w3.org/2000/svg"><path d="M.365 15H2.78V9.666h3.234L8.85 15h2.688L8.43 9.141c1.723-.609 2.857-2.184 2.857-4.158C11.286 2.127 9.227.3 6.16.3H.365V15zM5.972 2.4c1.722 0 2.835 1.008 2.835 2.583 0 1.575-1.113 2.583-2.835 2.583H2.78V2.4h3.192zM14.567 15l1.365-3.633h6.027L23.345 15h2.583L20.448.3H17.57L12.068 15h2.5zm4.368-12.096l2.352 6.405h-4.683l2.331-6.405zM28.964 15h2.835l2.96-10.815L37.764 15h2.814L44.797.3H42.32l-3.15 11.634L35.978.3h-2.29l-3.275 11.634L27.283.279 24.786.3 28.964 15z" fill="#E3DEDD"/></svg>