<svg width="251" height="63" viewBox="0 0 251 63" fill="none" xmlns="http://www.w3.org/2000/svg"><path d="M1.212 41l.888-2.268h3.66L6.648 41h1.116l-3.192-8.4H3.336L.132 41h1.08zm2.712-7.26l1.524 4.044H2.412l1.512-4.044zM8.57 41h.984v-8.4H8.57V41zm2.332 0h.985v-8.4h-.985V41zm5.93-1.596c0 1.08.42 1.596 1.595 1.596h1.068v-.9h-.972c-.528 0-.708-.192-.708-.708V35.78H19.4v-.9h-1.584v-1.716h-.984v1.716h-1.104v.9h1.104v3.624zm6.348-4.524c-1.092 0-1.56.456-1.848.924l-.132-.924h-.852V41h.984v-3.12c0-.972.348-2.04 1.632-2.04h.492v-.96h-.276zm6.33 5.22c-.276 0-.396-.084-.396-.408v-2.676c0-1.428-.9-2.208-2.46-2.208-1.476 0-2.448.708-2.592 1.908h.984c.12-.624.696-1.032 1.56-1.032.96 0 1.524.48 1.524 1.272v.42h-1.8c-1.608 0-2.46.684-2.46 1.908 0 1.116.912 1.788 2.256 1.788 1.056 0 1.668-.468 2.052-1.02.012.6.288.948 1.104.948h.54v-.9h-.312zm-1.38-1.596c0 1.02-.708 1.728-1.932 1.728-.816 0-1.332-.408-1.332-1.008 0-.696.492-1.02 1.368-1.02h1.896v.3zm7.202-2.688c-.372-.588-1.068-1.008-2.1-1.008-1.692 0-2.94 1.26-2.94 3.132 0 1.992 1.248 3.132 2.94 3.132 1.032 0 1.692-.492 2.1-1.056l.132.984h.852v-8.4h-.984v3.216zm-2.004 4.38c-1.212 0-2.028-.924-2.028-2.256 0-1.332.816-2.256 2.028-2.256 1.2 0 2.016.936 2.016 2.28 0 1.308-.816 2.232-2.016 2.232zm4.832-6.348c.36 0 .636-.264.636-.636a.618.618 0 00-.636-.636.618.618 0 00-.636.636c0 .372.276.636.636.636zM37.656 41h.984v-6.12h-.984V41zm5.332-6.192c-1.032 0-1.656.432-2.016.9l-.132-.828h-.852V41h.984v-3.06c0-1.38.696-2.232 1.848-2.232 1.068 0 1.656.672 1.656 1.944V41h.984v-3.408c0-2.028-1.092-2.784-2.472-2.784zm8.551 1.128c-.384-.684-1.068-1.128-2.1-1.128-1.692 0-2.94 1.26-2.94 3.132 0 1.992 1.248 3.132 2.94 3.132 1.032 0 1.692-.432 2.1-1.128v.72c0 1.332-.696 1.932-1.98 1.932-1.02 0-1.704-.432-1.872-1.2h-1.008c.156 1.344 1.248 2.076 2.808 2.076 2.1 0 3.036-1.008 3.036-2.772v-5.82h-.852l-.132 1.056zm-2.004 4.26c-1.212 0-2.028-.924-2.028-2.256 0-1.332.816-2.256 2.028-2.256 1.2 0 2.016.936 2.016 2.28 0 1.308-.816 2.232-2.016 2.232zm7.973-6.348c.36 0 .636-.264.636-.636a.618.618 0 00-.636-.636.618.618 0 00-.636.636c0 .372.276.636.636.636zM57.004 41h.984v-6.12h-.984V41zm5.332-6.192c-1.032 0-1.656.432-2.016.9l-.132-.828h-.852V41h.984v-3.06c0-1.38.696-2.232 1.848-2.232 1.068 0 1.656.672 1.656 1.944V41h.984v-3.408c0-2.028-1.092-2.784-2.472-2.784zM67.52 41h1.188L71 34.88h-1.032l-1.836 5.004-1.848-5.004h-1.056L67.52 41zm6.765.072c1.788 0 3.036-1.272 3.036-3.132s-1.248-3.132-3.036-3.132-3.036 1.272-3.036 3.132 1.248 3.132 3.036 3.132zm0-.876c-1.212 0-2.028-.948-2.028-2.256 0-1.308.816-2.256 2.028-2.256 1.212 0 2.028.948 2.028 2.256 0 1.308-.816 2.256-2.028 2.256zm4.164.804h.984v-8.4h-.984V41zm4.012 0h1.188l2.292-6.12H84.91l-1.836 5.004-1.848-5.004H80.17L82.461 41zm6.765.072c1.416 0 2.424-.9 2.664-2.124h-.996c-.204.792-.876 1.248-1.74 1.248-1.164 0-1.896-.816-1.932-1.98v-.084h4.752c.012-.144.024-.288.024-.42-.048-1.812-1.176-2.904-2.904-2.904S86.19 36.08 86.19 37.94c0 1.872 1.2 3.132 3.036 3.132zm-1.944-3.756c.096-.996.924-1.644 1.824-1.644 1.02 0 1.74.588 1.836 1.644h-3.66zm5.564 1.668c.024 1.344 1.116 2.088 2.7 2.088 1.356 0 2.448-.708 2.448-1.848 0-1.356-1.116-1.62-2.508-1.788-.888-.108-1.536-.192-1.536-.864 0-.564.576-.924 1.428-.924.84 0 1.416.468 1.488 1.092h1.008c-.096-1.272-1.104-1.92-2.496-1.932-1.38-.012-2.4.72-2.4 1.836 0 1.272 1.092 1.548 2.46 1.716.912.108 1.584.168 1.584.936 0 .564-.612.936-1.476.936-1.02 0-1.656-.528-1.692-1.248h-1.008zm12.213-4.104c-1.092 0-1.56.456-1.848.924l-.132-.924h-.852V41h.984v-3.12c0-.972.348-2.04 1.632-2.04h.492v-.96h-.276zm1.633-1.032c.36 0 .636-.264.636-.636a.618.618 0 00-.636-.636.618.618 0 00-.636.636c0 .372.276.636.636.636zM106.188 41h.984v-6.12h-.984V41zm2.08-2.016c.024 1.344 1.116 2.088 2.7 2.088 1.356 0 2.448-.708 2.448-1.848 0-1.356-1.116-1.62-2.508-1.788-.888-.108-1.536-.192-1.536-.864 0-.564.576-.924 1.428-.924.84 0 1.416.468 1.488 1.092h1.008c-.096-1.272-1.104-1.92-2.496-1.932-1.38-.012-2.4.72-2.4 1.836 0 1.272 1.092 1.548 2.46 1.716.912.108 1.584.168 1.584.936 0 .564-.612.936-1.476.936-1.02 0-1.656-.528-1.692-1.248h-1.008zm6.24 2.016h.984v-1.608l1.236-1.272 2.028 2.88h1.188l-2.556-3.588 2.388-2.532h-1.212l-3.072 3.252V32.6h-.984V41zm6.009-.6c0 .408.288.672.684.672.396 0 .684-.264.684-.672 0-.408-.288-.672-.684-.672-.396 0-.684.264-.684.672zM4.26 47.488l-1.404.648.036-1.548h-.684l.024 1.536-1.392-.636-.276.672 1.464.54-1.008 1.188.516.48.996-1.26 1.008 1.26.528-.48-.996-1.176 1.464-.54-.276-.684zM5.914 55h1.044v-3.672h3.456v-.96H6.958V47.56h4.176v-.96h-5.22V55zm8.664-6.12c-1.092 0-1.56.456-1.848.924l-.132-.924h-.852V55h.984v-3.12c0-.972.348-2.04 1.632-2.04h.492v-.96h-.276zm3.598 6.192c1.788 0 3.036-1.272 3.036-3.132s-1.248-3.132-3.036-3.132-3.036 1.272-3.036 3.132 1.248 3.132 3.036 3.132zm0-.876c-1.212 0-2.028-.948-2.028-2.256 0-1.308.816-2.256 2.028-2.256 1.212 0 2.028.948 2.028 2.256 0 1.308-.816 2.256-2.028 2.256zm10.992-5.388c-1.092 0-1.752.504-2.124 1.164-.348-.78-1.08-1.164-1.932-1.164-.948 0-1.464.468-1.788.912l-.132-.84h-.852V55h.984v-3.228c0-1.224.612-2.064 1.62-2.064.936 0 1.476.624 1.476 1.824V55h.984v-3.276c0-1.248.624-2.016 1.644-2.016.924 0 1.452.624 1.452 1.824V55h.984v-3.528c0-1.932-1.044-2.664-2.316-2.664zm8.05-1.296c0 .42-.191.72-.587.72h-1.368v.9h1.356c.264 0 .456-.048.576-.156V55h1.008v-8.4h-.984v.912zM43.389 55l.888-2.268h3.66L48.824 55h1.116l-3.192-8.4h-1.236L42.308 55h1.08zm2.712-7.26l1.524 4.044h-3.036L46.1 47.74zm7.73 1.068c-1.032 0-1.692.492-2.1 1.056l-.132-.984h-.852v8.52h.984v-3.336c.372.588 1.068 1.008 2.1 1.008 1.692 0 2.94-1.26 2.94-3.132 0-1.992-1.248-3.132-2.94-3.132zm-.096 5.388c-1.2 0-2.016-.936-2.016-2.28 0-1.308.816-2.232 2.016-2.232 1.212 0 2.028.924 2.028 2.256 0 1.332-.816 2.256-2.028 2.256zm6.993-5.316c-1.092 0-1.56.456-1.848.924l-.132-.924h-.852V55h.984v-3.12c0-.972.348-2.04 1.632-2.04h.492v-.96h-.276zm1.633-1.032c.36 0 .636-.264.636-.636a.618.618 0 00-.636-.636.618.618 0 00-.636.636c0 .372.276.636.636.636zM61.856 55h.984v-6.12h-.984V55zm2.332 0h.984v-8.4h-.984V55zm2.776-1.26c-.504 0-.792.3-.792.696 0 .432.276.648.636.648.144 0 .312-.048.408-.144.012.048.012.096.012.156 0 .408-.24.948-1.008.96v.564c1.056-.024 1.692-.636 1.692-1.656 0-.66-.36-1.224-.948-1.224zm7.917 1.332c1.488 0 2.484-.84 2.724-2.16H76.56c-.192.78-.792 1.284-1.668 1.284-1.176 0-1.968-.912-1.968-2.244 0-1.332.792-2.268 1.968-2.268.9 0 1.5.492 1.68 1.308h1.032c-.252-1.344-1.2-2.184-2.7-2.184-1.776 0-2.988 1.272-2.988 3.144 0 1.908 1.176 3.12 2.964 3.12zm6.623 0c1.788 0 3.036-1.272 3.036-3.132s-1.248-3.132-3.036-3.132-3.036 1.272-3.036 3.132 1.248 3.132 3.036 3.132zm0-.876c-1.212 0-2.028-.948-2.028-2.256 0-1.308.816-2.256 2.028-2.256 1.212 0 2.028.948 2.028 2.256 0 1.308-.816 2.256-2.028 2.256zm10.992-5.388c-1.092 0-1.752.504-2.124 1.164-.348-.78-1.08-1.164-1.932-1.164-.948 0-1.464.468-1.788.912l-.132-.84h-.852V55h.984v-3.228c0-1.224.612-2.064 1.62-2.064.936 0 1.476.624 1.476 1.824V55h.984v-3.276c0-1.248.624-2.016 1.644-2.016.924 0 1.452.624 1.452 1.824V55h.984v-3.528c0-1.932-1.044-2.664-2.316-2.664zm10.406 0c-1.092 0-1.752.504-2.124 1.164-.348-.78-1.08-1.164-1.932-1.164-.948 0-1.464.468-1.788.912l-.132-.84h-.852V55h.984v-3.228c0-1.224.612-2.064 1.62-2.064.936 0 1.476.624 1.476 1.824V55h.984v-3.276c0-1.248.624-2.016 1.644-2.016.924 0 1.452.624 1.452 1.824V55h.984v-3.528c0-1.932-1.044-2.664-2.316-2.664zm4.083-.96c.36 0 .636-.264.636-.636a.618.618 0 00-.636-.636.618.618 0 00-.636.636c0 .372.276.636.636.636zM106.481 55h.984v-6.12h-.984V55zm2.08-2.016c.024 1.344 1.116 2.088 2.7 2.088 1.356 0 2.448-.708 2.448-1.848 0-1.356-1.116-1.62-2.508-1.788-.888-.108-1.536-.192-1.536-.864 0-.564.576-.924 1.428-.924.84 0 1.416.468 1.488 1.092h1.008c-.096-1.272-1.104-1.92-2.496-1.932-1.38-.012-2.4.72-2.4 1.836 0 1.272 1.092 1.548 2.46 1.716.912.108 1.584.168 1.584.936 0 .564-.612.936-1.476.936-1.02 0-1.656-.528-1.692-1.248h-1.008zm5.871 0c.024 1.344 1.116 2.088 2.7 2.088 1.356 0 2.448-.708 2.448-1.848 0-1.356-1.116-1.62-2.508-1.788-.888-.108-1.536-.192-1.536-.864 0-.564.576-.924 1.428-.924.84 0 1.416.468 1.488 1.092h1.008c-.096-1.272-1.104-1.92-2.496-1.932-1.38-.012-2.4.72-2.4 1.836 0 1.272 1.092 1.548 2.46 1.716.912.108 1.584.168 1.584.936 0 .564-.612.936-1.476.936-1.02 0-1.656-.528-1.692-1.248h-1.008zm6.744-5.136c.36 0 .636-.264.636-.636a.618.618 0 00-.636-.636.618.618 0 00-.636.636c0 .372.276.636.636.636zM120.672 55h.984v-6.12h-.984V55zm5.152.072c1.788 0 3.036-1.272 3.036-3.132s-1.248-3.132-3.036-3.132-3.036 1.272-3.036 3.132 1.248 3.132 3.036 3.132zm0-.876c-1.212 0-2.028-.948-2.028-2.256 0-1.308.816-2.256 2.028-2.256 1.212 0 2.028.948 2.028 2.256 0 1.308-.816 2.256-2.028 2.256zm7.164-5.388c-1.032 0-1.656.432-2.016.9l-.132-.828h-.852V55h.984v-3.06c0-1.38.696-2.232 1.848-2.232 1.068 0 1.656.672 1.656 1.944V55h.984v-3.408c0-2.028-1.092-2.784-2.472-2.784zm3.475 4.176c.024 1.344 1.116 2.088 2.7 2.088 1.356 0 2.448-.708 2.448-1.848 0-1.356-1.116-1.62-2.508-1.788-.888-.108-1.536-.192-1.536-.864 0-.564.576-.924 1.428-.924.84 0 1.416.468 1.488 1.092h1.008c-.096-1.272-1.104-1.92-2.496-1.932-1.38-.012-2.4.72-2.4 1.836 0 1.272 1.092 1.548 2.46 1.716.912.108 1.584.168 1.584.936 0 .564-.612.936-1.476.936-1.02 0-1.656-.528-1.692-1.248h-1.008zm9.129 0c.024 1.344 1.116 2.088 2.7 2.088 1.356 0 2.448-.708 2.448-1.848 0-1.356-1.116-1.62-2.508-1.788-.888-.108-1.536-.192-1.536-.864 0-.564.576-.924 1.428-.924.84 0 1.416.468 1.488 1.092h1.008c-.096-1.272-1.104-1.92-2.496-1.932-1.38-.012-2.4.72-2.4 1.836 0 1.272 1.092 1.548 2.46 1.716.912.108 1.584.168 1.584.936 0 .564-.612.936-1.476.936-1.02 0-1.656-.528-1.692-1.248h-1.008zm6.696.42c0 1.08.42 1.596 1.596 1.596h1.068v-.9h-.972c-.528 0-.708-.192-.708-.708V49.78h1.584v-.9h-1.584v-1.716h-.984v1.716h-1.104v.9h1.104v3.624zm8.835.696c-.276 0-.396-.084-.396-.408v-2.676c0-1.428-.9-2.208-2.46-2.208-1.476 0-2.448.708-2.592 1.908h.984c.12-.624.696-1.032 1.56-1.032.96 0 1.524.48 1.524 1.272v.42h-1.8c-1.608 0-2.46.684-2.46 1.908 0 1.116.912 1.788 2.256 1.788 1.056 0 1.668-.468 2.052-1.02.012.6.288.948 1.104.948h.54v-.9h-.312zm-1.38-1.596c0 1.02-.708 1.728-1.932 1.728-.816 0-1.332-.408-1.332-1.008 0-.696.492-1.02 1.368-1.02h1.896v.3zm5.281-3.624c-1.092 0-1.56.456-1.848.924l-.132-.924h-.852V55h.984v-3.12c0-.972.348-2.04 1.632-2.04h.492v-.96h-.276zm1.784 4.524c0 1.08.42 1.596 1.596 1.596h1.068v-.9h-.972c-.528 0-.708-.192-.708-.708V49.78h1.584v-.9h-1.584v-1.716h-.984v1.716h-1.104v.9h1.104v3.624zm6.009-3.624h1.104V55h.984v-5.22h1.728v-.9h-1.728v-.708c0-.468.18-.672.672-.672h1.056v-.9h-1.116c-1.14 0-1.596.516-1.596 1.596v.684h-1.104v.9zm7.359-.9c-1.092 0-1.56.456-1.848.924l-.132-.924h-.852V55h.984v-3.12c0-.972.348-2.04 1.632-2.04h.492v-.96h-.276zm3.597 6.192c1.788 0 3.036-1.272 3.036-3.132s-1.248-3.132-3.036-3.132-3.036 1.272-3.036 3.132 1.248 3.132 3.036 3.132zm0-.876c-1.212 0-2.028-.948-2.028-2.256 0-1.308.816-2.256 2.028-2.256 1.212 0 2.028.948 2.028 2.256 0 1.308-.816 2.256-2.028 2.256zm10.993-5.388c-1.092 0-1.752.504-2.124 1.164-.348-.78-1.08-1.164-1.932-1.164-.948 0-1.464.468-1.788.912l-.132-.84h-.852V55h.984v-3.228c0-1.224.612-2.064 1.62-2.064.936 0 1.476.624 1.476 1.824V55h.984v-3.276c0-1.248.624-2.016 1.644-2.016.924 0 1.452.624 1.452 1.824V55h.984v-3.528c0-1.932-1.044-2.664-2.316-2.664zm6.815 2.604c0 2.4 1.092 3.66 3.192 3.66 2.099 0 3.216-1.26 3.216-3.66V46.6h-1.044v4.872c0 1.74-.696 2.64-2.172 2.64-1.452 0-2.148-.9-2.148-2.64V46.6h-1.044v4.812zm7.657.84c.06 1.656 1.26 2.82 3.312 2.82 1.764 0 2.988-1.02 2.988-2.472 0-1.632-1.404-2.088-2.772-2.316-1.26-.216-2.28-.42-2.28-1.428 0-.9.732-1.38 1.824-1.38 1.14 0 1.92.636 2.04 1.608h1.08c-.096-1.512-1.248-2.556-3.12-2.556-1.704 0-2.868.96-2.868 2.388 0 1.632 1.392 2.076 2.748 2.304 1.272.216 2.304.432 2.304 1.476 0 .912-.804 1.428-1.932 1.428-1.284 0-2.16-.744-2.244-1.872h-1.08zM219.551 55c2.628 0 4.224-1.692 4.224-4.2 0-2.52-1.596-4.2-4.224-4.2h-2.688V55h2.688zm-1.644-7.44h1.644c2.04 0 3.156 1.272 3.156 3.24 0 1.956-1.116 3.24-3.156 3.24h-1.644v-6.48zm13.146 5.04c0-1.632-1.404-2.088-2.772-2.316-1.26-.216-2.28-.42-2.28-1.428 0-.9.732-1.38 1.824-1.38 1.14 0 1.92.636 2.04 1.608h1.08c-.084-1.344-.996-2.316-2.508-2.52v-1.26h-.912v1.236c-1.536.108-2.568 1.032-2.568 2.376 0 1.632 1.392 2.076 2.748 2.304 1.272.216 2.304.432 2.304 1.476 0 .912-.804 1.428-1.932 1.428-1.284 0-2.16-.744-2.244-1.872h-1.08c.06 1.5 1.056 2.604 2.772 2.796v1.236h.912V55.06c1.56-.132 2.616-1.116 2.616-2.46zm5.298-1.968c.804-.216 1.356-.828 1.356-1.884 0-1.32-1.092-2.22-2.82-2.22-1.656 0-2.808 1.02-2.82 2.496h.995c.013-.96.781-1.596 1.837-1.596 1.008 0 1.776.528 1.776 1.38 0 .852-.624 1.476-1.872 1.476h-.66v.876h.72c1.308 0 2.028.564 2.028 1.44 0 .96-.84 1.572-1.932 1.572-1.188 0-2.052-.66-2.064-1.764h-.996c0 1.668 1.176 2.664 3 2.664s3.024-.972 3.024-2.4c0-1.284-.804-1.896-1.572-2.04zm2.326 3.768c0 .408.288.672.684.672.396 0 .684-.264.684-.672 0-.408-.288-.672-.684-.672-.396 0-.684.264-.684.672z" fill="#000"/></svg>