<svg width="60" height="21" viewBox="0 0 60 21" fill="none" xmlns="http://www.w3.org/2000/svg"><path d="M40.324 8.193h-3.068C36.415 3.44 32.893.555 27.569.555c-5.984 0-9.853 3.953-9.853 10.06 0 6.107 3.748 9.972 9.853 9.94 4.977 0 8.507-2.712 9.558-7.156h2.078l.634-1.738h-2.437a14.07 14.07 0 00.038-1.737h2.279l.605-1.737v.006zm-8.579 3.474h-3.269l-.634 1.737h3.728c-.419 2.602-1.547 4.402-3.88 4.402-3.083 0-4.291-3.236-4.291-7.245 0-4.01.967-7.216 4.081-7.245 2.448 0 3.714 2.022 4.133 4.88h-2.652l-.605 1.737h3.403c.006.207.012.415.012.628 0 .378-.009.748-.026 1.109v-.003zM.79 20.078h5.35v-6.796h9.099V8.881H6.14V5.645h10.066v-4.64H.79v19.073zM55.198 13.43c2.388-1.018 3.958-2.966 3.958-5.869v-.06c0-1.856-.574-3.352-1.694-4.432-1.297-1.288-3.355-2.064-6.286-2.064H42.05v19.073h5.35v-5.78h2.357l3.869 5.78h6.165l-4.595-6.648h.003zm-1.392-5.542c0 1.408-1.057 2.275-2.87 2.275h-3.54V5.554h3.508c1.814 0 2.902.779 2.902 2.275v.06z" fill="#fff"/></svg>