<svg width="138" height="30" viewBox="0 0 138 30" fill="none" xmlns="http://www.w3.org/2000/svg"><rect x=".5" y=".5" width="137" height="29" rx="14.5" fill="#fff"/><path d="M25.666 20.584c2.212 0 3.836-1.26 4.2-3.29h-1.288c-.364 1.372-1.414 2.17-2.926 2.17-2.058 0-3.318-1.61-3.318-3.864 0-2.268 1.316-3.864 3.374-3.864 1.47 0 2.506.812 2.884 2.17h1.288c-.364-2.03-1.946-3.29-4.116-3.29-2.842 0-4.676 2.016-4.676 4.984 0 2.996 1.764 4.984 4.578 4.984zm8.807-7.224c-1.274 0-1.82.532-2.156 1.078l-.154-1.078h-.994v7.14h1.148v-3.64c0-1.134.406-2.38 1.904-2.38h.574v-1.12h-.322zm4.197 7.224c1.652 0 2.828-1.05 3.108-2.478h-1.162c-.238.924-1.022 1.456-2.03 1.456-1.358 0-2.212-.952-2.254-2.31v-.098h5.544c.014-.168.028-.336.028-.49-.056-2.114-1.372-3.388-3.388-3.388s-3.388 1.484-3.388 3.654c0 2.184 1.4 3.654 3.542 3.654zm-2.268-4.382c.112-1.162 1.078-1.918 2.128-1.918 1.19 0 2.03.686 2.142 1.918h-4.27zm13.126 3.248c-.322 0-.462-.098-.462-.476v-3.122c0-1.666-1.05-2.576-2.87-2.576-1.722 0-2.856.826-3.024 2.226h1.148c.14-.728.812-1.204 1.82-1.204 1.12 0 1.778.56 1.778 1.484v.49h-2.1c-1.876 0-2.87.798-2.87 2.226 0 1.302 1.064 2.086 2.632 2.086 1.232 0 1.946-.546 2.394-1.19.014.7.336 1.106 1.288 1.106h.63v-1.05h-.364zm-1.61-1.862c0 1.19-.826 2.016-2.254 2.016-.952 0-1.554-.476-1.554-1.176 0-.812.574-1.19 1.596-1.19h2.212v.35zm3.388 1.05c0 1.26.49 1.862 1.862 1.862h1.246v-1.05H53.28c-.616 0-.826-.224-.826-.826V14.41h1.848v-1.05h-1.848v-2.002h-1.148v2.002h-1.288v1.05h1.288v4.228zm7.215 1.946c1.652 0 2.828-1.05 3.108-2.478h-1.162c-.238.924-1.022 1.456-2.03 1.456-1.358 0-2.212-.952-2.254-2.31v-.098h5.544c.014-.168.028-.336.028-.49-.056-2.114-1.372-3.388-3.388-3.388S54.98 14.76 54.98 16.93c0 2.184 1.4 3.654 3.542 3.654zm-2.268-4.382c.112-1.162 1.078-1.918 2.128-1.918 1.19 0 2.03.686 2.142 1.918h-4.27zm16.79 3.248c-.322 0-.462-.098-.462-.476v-3.122c0-1.666-1.05-2.576-2.87-2.576-1.722 0-2.856.826-3.024 2.226h1.148c.14-.728.812-1.204 1.82-1.204 1.12 0 1.778.56 1.778 1.484v.49h-2.1c-1.876 0-2.87.798-2.87 2.226 0 1.302 1.064 2.086 2.632 2.086 1.232 0 1.946-.546 2.394-1.19.014.7.336 1.106 1.288 1.106h.63v-1.05h-.364zm-1.61-1.862c0 1.19-.826 2.016-2.254 2.016-.952 0-1.554-.476-1.554-1.176 0-.812.574-1.19 1.596-1.19h2.212v.35zm5.98 2.996c1.737 0 2.899-.98 3.179-2.52h-1.218c-.224.91-.924 1.498-1.946 1.498-1.372 0-2.296-1.064-2.296-2.618 0-1.554.924-2.646 2.296-2.646 1.05 0 1.75.574 1.96 1.526h1.204c-.294-1.568-1.4-2.548-3.15-2.548-2.072 0-3.486 1.484-3.486 3.668 0 2.226 1.372 3.64 3.458 3.64zm7.643 0c1.736 0 2.898-.98 3.178-2.52h-1.218c-.224.91-.924 1.498-1.946 1.498-1.372 0-2.296-1.064-2.296-2.618 0-1.554.924-2.646 2.296-2.646 1.05 0 1.75.574 1.96 1.526h1.204c-.294-1.568-1.4-2.548-3.15-2.548-2.072 0-3.486 1.484-3.486 3.668 0 2.226 1.372 3.64 3.458 3.64zm7.727 0c2.086 0 3.542-1.484 3.542-3.654s-1.456-3.654-3.542-3.654-3.542 1.484-3.542 3.654 1.456 3.654 3.542 3.654zm0-1.022c-1.414 0-2.366-1.106-2.366-2.632s.952-2.632 2.366-2.632c1.414 0 2.366 1.106 2.366 2.632s-.952 2.632-2.366 2.632zm9.856-2.632c0 1.61-.784 2.604-2.086 2.604-1.19 0-1.862-.784-1.862-2.268V13.36h-1.148v3.976c0 2.366 1.246 3.248 2.814 3.248 1.176 0 1.862-.504 2.282-1.036l.154.952h.994v-7.14h-1.148v3.57zm6.213-3.654c-1.204 0-1.932.504-2.352 1.05l-.154-.966h-.994v7.14h1.148v-3.57c0-1.61.812-2.604 2.156-2.604 1.246 0 1.932.784 1.932 2.268V20.5h1.148v-3.976c0-2.366-1.274-3.248-2.884-3.248zm4.88 5.362c0 1.26.49 1.862 1.862 1.862h1.246v-1.05h-1.134c-.616 0-.826-.224-.826-.826V14.41h1.848v-1.05h-1.848v-2.002h-1.148v2.002h-1.288v1.05h1.288v4.228z" fill="#000"/></svg>