<svg width="137" height="144" viewBox="0 0 137 144" fill="none" xmlns="http://www.w3.org/2000/svg"><path d="M1.257 98.635h3.09V107h.694v-8.365H8.13v-.644H1.257v.644zm9.865 1.84c-1.21 0-1.724.579-1.994 1.3l-.103-1.3h-.567V107h.657v-3.308c0-1.325.347-2.586 1.879-2.586h.476v-.631h-.348zm6.784 5.92c-.386 0-.58-.129-.58-.63v-3.038c0-1.493-.913-2.329-2.548-2.329-1.492 0-2.483.721-2.65 1.905h.656c.167-.798.862-1.326 1.969-1.326 1.222 0 1.917.643 1.917 1.725v.566h-2.213c-1.673 0-2.574.72-2.574 1.943 0 1.158.914 1.866 2.304 1.866 1.325 0 2.11-.605 2.51-1.415v.231c-.027.772.295 1.107 1.067 1.107h.386v-.605h-.244zm-1.236-2.033c0 1.248-.888 2.149-2.432 2.149-1.043 0-1.686-.528-1.686-1.338 0-.863.643-1.339 1.853-1.339h2.265v.528zm7.586-2.42c-.4-.926-1.274-1.544-2.497-1.544-1.789 0-3.076 1.364-3.076 3.333 0 2.059 1.287 3.346 3.076 3.346 1.223 0 2.072-.656 2.484-1.57l.103 1.493h.566v-9.009h-.656v3.951zm-2.446 4.543c-1.454 0-2.458-1.132-2.458-2.754 0-1.609 1.004-2.754 2.458-2.754 1.455 0 2.459 1.145 2.459 2.767 0 1.609-1.004 2.741-2.459 2.741zm7.529.592c1.428 0 2.522-.926 2.805-2.239h-.669c-.257 1.017-1.12 1.647-2.188 1.647-1.454 0-2.368-1.107-2.394-2.625v-.116h5.328c0-.09.013-.193.013-.27-.064-1.944-1.26-3.076-3.011-3.076-1.789 0-3.012 1.364-3.012 3.294 0 2.047 1.274 3.385 3.128 3.385zm-2.394-3.886c.103-1.326 1.094-2.214 2.29-2.214 1.275 0 2.189.785 2.291 2.214h-4.581zM38.583 107h.708l1.93-5.482L43.063 107h.708l2.316-6.525h-.669l-2.007 5.74-1.866-5.74h-.605l-1.97 5.74-1.904-5.74h-.695L38.583 107zm8.756-7.902a.453.453 0 00.464-.463.453.453 0 00-.464-.464.453.453 0 00-.463.464c0 .27.206.463.463.463zM47.005 107h.656v-6.525h-.656V107zm2.688-1.519c0 1.043.425 1.519 1.532 1.519h.952v-.605h-.9c-.683 0-.928-.257-.928-.926v-4.389h1.764v-.605h-1.764v-1.827h-.656v1.827h-1.235v.605h1.235v4.401zm6.494-5.083c-1.222 0-1.982.682-2.355 1.621v-4.028h-.656V107h.656v-3.217c0-1.699.862-2.78 2.252-2.78 1.248 0 2.02.823 2.02 2.368V107h.657v-3.655c0-2.059-1.094-2.947-2.574-2.947zm10.352 6.679c1.48 0 2.523-.849 2.78-2.175h-.695c-.219.965-1.004 1.583-2.085 1.583-1.428 0-2.42-1.119-2.42-2.741s.979-2.767 2.42-2.767c1.094 0 1.866.618 2.098 1.596h.682c-.27-1.351-1.287-2.175-2.767-2.175-1.84 0-3.102 1.364-3.102 3.346 0 2.008 1.249 3.333 3.09 3.333zm6.939 0c1.84 0 3.14-1.364 3.14-3.346 0-1.969-1.3-3.333-3.14-3.333s-3.128 1.364-3.128 3.333c0 1.982 1.287 3.346 3.128 3.346zm0-.592c-1.455 0-2.458-1.132-2.458-2.754 0-1.609 1.003-2.754 2.458-2.754 1.454 0 2.458 1.145 2.458 2.754 0 1.622-1.004 2.754-2.458 2.754zm7.456-6.087c-1.197 0-1.97.618-2.343 1.467l-.103-1.39h-.566V107h.657v-3.217c0-1.699.862-2.78 2.252-2.78 1.26 0 2.02.823 2.02 2.368V107h.656v-3.655c0-2.059-1.093-2.947-2.573-2.947zm5.172.077v-.978c0-.644.244-.9.9-.9h.94v-.606h-.965c-1.094 0-1.532.476-1.532 1.519v.965h-1.235v.605h1.235V107h.657v-5.92h2.792V107h.657v-6.525h-3.45zm3.127-2.304a.454.454 0 00-.463.464c0 .27.206.463.463.463.27 0 .463-.193.463-.463a.446.446 0 00-.463-.464zm7.188 3.771c-.399-.926-1.274-1.544-2.496-1.544-1.79 0-3.076 1.364-3.076 3.333 0 2.059 1.287 3.346 3.076 3.346 1.222 0 2.072-.656 2.484-1.57l.103 1.493h.566v-9.009h-.657v3.951zm-2.445 4.543c-1.454 0-2.458-1.132-2.458-2.754 0-1.609 1.004-2.754 2.458-2.754 1.454 0 2.458 1.145 2.458 2.767 0 1.609-1.004 2.741-2.458 2.741zm7.529.592c1.428 0 2.522-.926 2.805-2.239h-.669c-.258 1.017-1.12 1.647-2.188 1.647-1.454 0-2.368-1.107-2.394-2.625v-.116h5.328c0-.09.013-.193.013-.27-.064-1.944-1.261-3.076-3.011-3.076-1.79 0-3.012 1.364-3.012 3.294 0 2.047 1.274 3.385 3.128 3.385zm-2.394-3.886c.103-1.326 1.094-2.214 2.291-2.214 1.274 0 2.187.785 2.29 2.214h-4.581zm9.598-2.793c-1.197 0-1.969.618-2.342 1.467l-.103-1.39h-.566V107h.656v-3.217c0-1.699.862-2.78 2.252-2.78 1.261 0 2.021.823 2.021 2.368V107h.656v-3.655c0-2.059-1.094-2.947-2.574-2.947zm6.77 6.679c1.48 0 2.523-.849 2.78-2.175h-.695c-.219.965-1.004 1.583-2.085 1.583-1.428 0-2.419-1.119-2.419-2.741s.978-2.767 2.419-2.767c1.094 0 1.866.618 2.098 1.596h.682c-.27-1.351-1.287-2.175-2.767-2.175-1.84 0-3.101 1.364-3.101 3.346 0 2.008 1.248 3.333 3.088 3.333zm6.939 0c1.428 0 2.522-.926 2.805-2.239h-.669c-.257 1.017-1.12 1.647-2.188 1.647-1.454 0-2.368-1.107-2.393-2.625v-.116h5.328c0-.09.012-.193.012-.27-.064-1.944-1.261-3.076-3.011-3.076-1.789 0-3.012 1.364-3.012 3.294 0 2.047 1.275 3.385 3.128 3.385zm-2.394-3.886c.103-1.326 1.094-2.214 2.291-2.214 1.274 0 2.188.785 2.291 2.214h-4.582zM3.355 122h.708l1.93-5.482L7.833 122h.709l2.316-6.525h-.669l-2.008 5.74-1.866-5.74H5.71l-1.969 5.74-1.904-5.74h-.695L3.355 122zm8.756-7.902a.453.453 0 00.463-.463.454.454 0 00-.463-.464.454.454 0 00-.463.464c0 .27.206.463.463.463zM11.776 122h.657v-6.525h-.657V122zm2.689-1.519c0 1.043.425 1.519 1.531 1.519h.953v-.605h-.901c-.682 0-.927-.257-.927-.926v-4.389h1.763v-.605h-1.763v-1.827h-.656v1.827h-1.236v.605h1.236v4.401zm6.494-5.083c-1.223 0-1.982.682-2.355 1.621v-4.028h-.657V122h.657v-3.217c0-1.699.862-2.78 2.252-2.78 1.248 0 2.02.823 2.02 2.368V122h.657v-3.655c0-2.059-1.094-2.947-2.574-2.947zm11.472 6.679c1.93 0 3.294-1.042 3.68-2.857h-.733c-.386 1.442-1.429 2.214-2.96 2.214-2.085 0-3.398-1.635-3.398-3.938 0-2.304 1.339-3.939 3.424-3.939 1.505 0 2.56.786 2.96 2.201h.733c-.399-1.802-1.763-2.844-3.655-2.844-2.535 0-4.183 1.879-4.183 4.582 0 2.728 1.61 4.581 4.132 4.581zm5.357-7.979a.453.453 0 00.463-.463.454.454 0 00-.463-.464.454.454 0 00-.464.464c0 .27.206.463.464.463zM37.453 122h.656v-6.525h-.656V122zm2.688-1.519c0 1.043.425 1.519 1.532 1.519h.952v-.605h-.9c-.683 0-.927-.257-.927-.926v-4.389h1.763v-.605h-1.763v-1.827h-.657v1.827h-1.235v.605h1.235v4.401zM45.58 122l-.425 1.055c-.296.721-.412.914-1.08.914h-.824v.605h1.004c.875 0 1.08-.335 1.492-1.364l3.128-7.735h-.708l-2.227 5.676-2.265-5.676h-.707L45.58 122zm7.8 0h.695v-9.009h-.695V122zm5.409-6.602c-1.197 0-1.97.618-2.343 1.467l-.103-1.39h-.566V122h.657v-3.217c0-1.699.862-2.78 2.252-2.78 1.26 0 2.02.823 2.02 2.368V122h.657v-3.655c0-2.059-1.094-2.947-2.574-2.947zm9.254 1.544c-.4-.926-1.274-1.544-2.497-1.544-1.789 0-3.076 1.364-3.076 3.333 0 2.059 1.287 3.346 3.076 3.346 1.223 0 2.072-.656 2.484-1.57l.103 1.493h.566v-9.009h-.656v3.951zm-2.446 4.543c-1.454 0-2.458-1.132-2.458-2.754 0-1.609 1.004-2.754 2.458-2.754 1.455 0 2.459 1.145 2.459 2.767 0 1.609-1.004 2.741-2.459 2.741zm7.529.592c1.428 0 2.522-.926 2.805-2.239h-.669c-.257 1.017-1.12 1.647-2.188 1.647-1.454 0-2.368-1.107-2.393-2.625v-.116h5.328c0-.09.013-.193.013-.27-.065-1.944-1.262-3.076-3.012-3.076-1.789 0-3.011 1.364-3.011 3.294 0 2.047 1.274 3.385 3.127 3.385zm-2.394-3.886c.103-1.326 1.094-2.214 2.29-2.214 1.275 0 2.189.785 2.292 2.214h-4.582zM76.398 122h.759l2.162-2.87 2.162 2.87h.798l-2.535-3.333 2.406-3.192h-.746l-2.06 2.703-2.033-2.703h-.785l2.407 3.192L76.398 122zm6.625-.425c0 .296.206.489.489.489a.466.466 0 00.489-.489c0-.296-.206-.476-.489-.476-.283 0-.49.18-.49.476zM2.668 69h1.716l1.792-6.544L7.993 69h1.702l2.554-8.895H10.75l-1.906 7.04-1.931-7.04H5.527l-1.982 7.04-1.893-7.052-1.512.012L2.668 69zm13.796-6.582c-1.017 0-1.64.457-2.046 1.016v-3.329h-1.373V69h1.373v-3.291c0-1.309.66-2.11 1.74-2.11 1.017 0 1.563.661 1.563 1.894V69h1.373v-3.621c0-2.173-1.182-2.961-2.63-2.961zm9.825 5.388c-.28 0-.42-.09-.42-.42v-2.605c0-1.537-.99-2.363-2.719-2.363-1.64 0-2.732.788-2.872 2.058h1.347c.102-.572.648-.953 1.462-.953.902 0 1.423.445 1.423 1.17v.393h-1.64c-1.817 0-2.782.75-2.782 2.084 0 1.207.99 1.906 2.414 1.906 1.055 0 1.716-.457 2.148-1.118 0 .648.305 1.042 1.194 1.042h.724v-1.194h-.28zm-1.78-1.474c-.012 1.003-.673 1.677-1.816 1.677-.75 0-1.208-.381-1.208-.928 0-.66.47-.978 1.322-.978h1.703v.229zm3.277.902c0 1.181.534 1.766 1.779 1.766h1.27v-1.207h-.965c-.521 0-.699-.19-.699-.699v-3.393h1.588v-1.207h-1.588v-1.817h-1.385v1.817h-1.131v1.207h1.13v3.533zm10.605-4.816c-1.055 0-1.678.42-2.084.927l-.153-.85H34.96V69h1.372v-3.278c0-1.322.648-2.122 1.741-2.122 1.03 0 1.55.66 1.55 1.893V69h1.385v-3.621c0-2.173-1.181-2.961-2.617-2.961zm6.904 6.658c1.613 0 2.706-.978 2.935-2.262h-1.373c-.19.725-.8 1.144-1.639 1.144-1.08 0-1.779-.724-1.817-1.83v-.089h4.905a3.73 3.73 0 00.038-.52c-.038-1.907-1.296-3.101-3.177-3.101-1.918 0-3.202 1.334-3.202 3.342 0 1.995 1.284 3.316 3.33 3.316zm-1.843-4.04c.102-.928.851-1.513 1.728-1.513.953 0 1.627.547 1.74 1.512h-3.468zM48.482 69h1.512l1.716-2.364L53.413 69h1.6l-2.452-3.33 2.313-3.176h-1.512l-1.589 2.198-1.55-2.198h-1.6l2.299 3.177L48.482 69zm7.758-1.766c0 1.181.534 1.766 1.779 1.766h1.27v-1.207h-.965c-.521 0-.699-.19-.699-.699v-3.393h1.588v-1.207h-1.588v-1.817H56.24v1.817h-1.131v1.207h1.131v3.533zm6.513-3.533h1.131V69h1.385v-5.299h1.74v-1.207h-1.765v-.546c0-.445.19-.636.635-.636h1.13v-1.207h-1.308c-1.258 0-1.817.61-1.817 1.78v.61h-1.131V63.7zm7.769 5.375c1.982 0 3.316-1.334 3.316-3.329 0-1.982-1.334-3.33-3.316-3.33-1.983 0-3.317 1.348-3.317 3.33 0 1.995 1.335 3.33 3.317 3.33zm0-1.169c-1.157 0-1.906-.902-1.906-2.16s.75-2.16 1.906-2.16 1.919.902 1.919 2.16-.763 2.16-1.92 2.16zm7.71-5.413c-1.066 0-1.587.432-1.918.978l-.152-.978h-1.22V69h1.372v-3.266c0-1.003.394-1.956 1.614-1.956h.61v-1.284h-.305zm4.124 4.359c.038 1.41 1.233 2.223 2.973 2.223 1.576 0 2.758-.788 2.758-2.033 0-1.449-1.207-1.753-2.694-1.931-.94-.102-1.563-.178-1.563-.788 0-.521.534-.852 1.347-.852s1.372.42 1.448 1.017h1.347c-.089-1.334-1.22-2.071-2.82-2.071-1.564-.013-2.669.788-2.669 2.02 0 1.347 1.169 1.665 2.656 1.843 1.004.127 1.6.178 1.6.876 0 .522-.558.852-1.41.852-.99 0-1.575-.483-1.626-1.156h-1.347zm7.264.38c0 1.182.534 1.767 1.78 1.767h1.27v-1.207h-.966c-.52 0-.698-.19-.698-.699v-3.393h1.588v-1.207h-1.588v-1.817H89.62v1.817h-1.13v1.207h1.13v3.533zm6.874 1.843c1.614 0 2.707-.978 2.936-2.262h-1.373c-.19.725-.8 1.144-1.639 1.144-1.08 0-1.779-.724-1.817-1.83v-.089h4.905a3.73 3.73 0 00.038-.52c-.038-1.907-1.296-3.101-3.177-3.101-1.919 0-3.202 1.334-3.202 3.342 0 1.995 1.283 3.316 3.33 3.316zm-1.842-4.04c.102-.928.851-1.513 1.728-1.513.953 0 1.627.547 1.74 1.512h-3.468zm9.293-2.542c-1.068 0-1.589.432-1.919.978l-.153-.978h-1.22V69h1.373v-3.266c0-1.003.394-1.956 1.614-1.956h.61v-1.284h-.305zM105.096 69h1.372v-8.895h-1.372V69zm3.416-7.42c.471 0 .839-.344.839-.827s-.368-.826-.839-.826c-.47 0-.838.343-.838.826 0 .483.368.826.838.826zm-.698 7.42h1.372v-6.506h-1.372V69zm6.148-6.582c-1.055 0-1.677.42-2.084.927l-.152-.85h-1.195V69h1.372v-3.278c0-1.322.648-2.122 1.741-2.122 1.03 0 1.551.66 1.551 1.893V69h1.385v-3.621c0-2.173-1.182-2.961-2.618-2.961zm8.834 1.093c-.419-.648-1.118-1.093-2.135-1.093-1.766 0-3.075 1.309-3.075 3.304 0 2.07 1.309 3.303 3.075 3.303 1.017 0 1.69-.419 2.122-1.067v.724c0 1.246-.673 1.817-1.868 1.817-.965 0-1.601-.419-1.766-1.143h-1.398c.127 1.461 1.335 2.262 3.063 2.262 2.338 0 3.329-1.119 3.329-2.885v-6.239h-1.194l-.153 1.017zm-1.906 4.358c-1.144 0-1.893-.877-1.893-2.147 0-1.258.749-2.148 1.893-2.148 1.144 0 1.893.89 1.893 2.173 0 1.245-.749 2.122-1.893 2.122zm5.229-.508c-.584 0-.965.381-.965.864 0 .546.33.813.749.813a.686.686 0 00.42-.127c.012.05.012.114.012.165 0 .445-.317.94-1.118.953v.737c1.258-.012 2.046-.711 2.046-1.944 0-.813-.445-1.461-1.144-1.461zM.813 83h1.462v-3.761h3.481V77.98H2.275V75.4h4.218v-1.296H.813V83zm6.316-7.599h2.744V83h1.462v-7.599h2.744v-1.296H7.13v1.296zm7.239 4.676c.05 1.78 1.385 3 3.596 3 1.957 0 3.291-1.106 3.291-2.707.013-1.754-1.423-2.224-2.897-2.49-1.398-.242-2.313-.433-2.313-1.348 0-.838.7-1.27 1.703-1.27 1.08 0 1.792.61 1.906 1.512h1.461c-.063-1.64-1.334-2.745-3.367-2.745-1.893 0-3.164 1.055-3.164 2.605 0 1.766 1.398 2.236 2.872 2.49 1.41.255 2.338.458 2.338 1.398 0 .852-.762 1.322-1.817 1.322-1.245 0-2.059-.7-2.135-1.741l-1.474-.026zM22.542 83h5.96v-1.296h-4.5v-2.58h3.584v-1.258h-3.583v-2.465h4.346v-1.296h-5.807V83zm16.218-1.194c-.28 0-.42-.09-.42-.42v-2.605c0-1.537-.99-2.363-2.719-2.363-1.639 0-2.732.788-2.872 2.058h1.347c.102-.572.648-.953 1.462-.953.902 0 1.423.445 1.423 1.17v.393h-1.64c-1.816 0-2.782.75-2.782 2.084 0 1.207.991 1.906 2.414 1.906 1.055 0 1.716-.457 2.148-1.118 0 .648.305 1.042 1.194 1.042h.724v-1.194h-.28zm-1.78-1.474c-.012 1.003-.673 1.677-1.816 1.677-.75 0-1.207-.381-1.207-.928 0-.66.47-.978 1.321-.978h1.703v.229zm6.238-3.914c-1.055 0-1.678.42-2.084.927l-.153-.85h-1.194V83h1.372v-3.278c0-1.322.648-2.122 1.741-2.122 1.03 0 1.55.66 1.55 1.893V83h1.385v-3.621c0-2.173-1.181-2.961-2.617-2.961zm8.759.978c-.42-.572-1.118-.978-2.11-.978-1.766 0-3.075 1.321-3.075 3.329 0 2.084 1.31 3.33 3.075 3.33 1.03 0 1.703-.484 2.123-1.055l.165.978h1.194v-8.895h-1.372v3.291zm-1.88 4.524c-1.144 0-1.894-.89-1.894-2.173 0-1.27.75-2.16 1.893-2.16 1.144 0 1.894.89 1.894 2.185 0 1.258-.75 2.148-1.894 2.148zm12.813-4.41c-.42-.647-1.118-1.092-2.135-1.092-1.766 0-3.075 1.309-3.075 3.304 0 2.07 1.309 3.303 3.075 3.303 1.017 0 1.69-.419 2.122-1.067v.724c0 1.246-.673 1.817-1.868 1.817-.966 0-1.6-.419-1.766-1.143h-1.398c.127 1.461 1.334 2.262 3.063 2.262 2.338 0 3.329-1.119 3.329-2.885v-6.239h-1.195l-.152 1.017zm-1.906 4.36c-1.144 0-1.894-.878-1.894-2.148 0-1.258.75-2.148 1.894-2.148 1.143 0 1.893.89 1.893 2.173 0 1.245-.75 2.122-1.893 2.122zm5.293-6.29c.47 0 .838-.344.838-.827s-.368-.826-.838-.826-.839.343-.839.826c0 .483.368.826.839.826zm-.7 7.42h1.373v-6.506h-1.372V83zm2.718 0h1.373v-8.895h-1.373V83zm3.188-1.766c0 1.181.534 1.766 1.78 1.766h1.27v-1.207h-.966c-.52 0-.699-.19-.699-.699v-3.393h1.588v-1.207h-1.588v-1.817h-1.385v1.817h-1.13v1.207h1.13v3.533zm3.643-.381c.038 1.41 1.233 2.223 2.974 2.223 1.575 0 2.757-.788 2.757-2.033 0-1.449-1.207-1.753-2.694-1.931-.94-.102-1.563-.178-1.563-.788 0-.521.534-.852 1.347-.852s1.373.42 1.449 1.017h1.347c-.09-1.334-1.22-2.071-2.821-2.071-1.563-.013-2.669.788-2.669 2.02 0 1.347 1.17 1.665 2.656 1.843 1.004.127 1.601.178 1.601.876 0 .522-.559.852-1.41.852-.992 0-1.576-.483-1.627-1.156h-1.347zm7.565-3.838c0-1.055.635-1.766 1.614-1.766.85 0 1.423.508 1.423 1.232 0 .61-.33 1.017-.903 1.398-.762.496-1.36.915-1.36 1.944v.407h1.297v-.254c0-.636.432-.966 1.118-1.436.66-.47 1.27-1.03 1.27-2.198 0-1.335-1.092-2.313-2.858-2.313-1.894 0-2.999 1.334-2.999 2.986h1.398zm.584 5.21c0 .508.381.851.877.851s.864-.343.864-.851-.368-.851-.864-.851-.877.343-.877.85z" fill="#000"/><path d="M1.252 18H3.5v-4.967h3.011L9.152 18h2.504L8.76 12.544c1.604-.568 2.66-2.034 2.66-3.873 0-2.66-1.916-4.36-4.772-4.36H1.252V18zM6.473 6.266c1.604 0 2.64.939 2.64 2.405 0 1.467-1.036 2.406-2.64 2.406H3.501V6.266h2.972zm7.824.313c.723 0 1.29-.528 1.29-1.271 0-.743-.567-1.271-1.29-1.271-.724 0-1.29.528-1.29 1.27 0 .744.566 1.272 1.29 1.272zM13.22 18h2.112V7.987h-2.112V18zm3.753-3.305c.058 2.17 1.896 3.422 4.576 3.422 2.425 0 4.244-1.212 4.244-3.129 0-2.23-1.858-2.698-4.146-2.972-1.448-.157-2.406-.274-2.406-1.213 0-.802.821-1.31 2.073-1.31s2.112.645 2.23 1.564h2.072c-.136-2.053-1.877-3.187-4.341-3.187-2.405-.02-4.107 1.212-4.107 3.11 0 2.072 1.8 2.561 4.087 2.835 1.545.195 2.465.274 2.465 1.35 0 .801-.86 1.31-2.171 1.31-1.526 0-2.425-.744-2.503-1.78h-2.073zM32.69 7.87c-1.564 0-2.523.704-3.149 1.564V4.31H27.43V18h2.113v-5.065c0-2.014 1.016-3.247 2.679-3.247 1.564 0 2.405 1.017 2.405 2.914V18h2.112v-5.574c0-3.344-1.818-4.556-4.048-4.556zm7.045-1.291c.723 0 1.29-.528 1.29-1.271 0-.743-.567-1.271-1.29-1.271-.724 0-1.291.528-1.291 1.27 0 .744.567 1.272 1.29 1.272zM38.66 18h2.112V7.987H38.66V18zm8.854-4.498c.078 2.738 2.132 4.615 5.534 4.615 3.012 0 5.066-1.701 5.066-4.165.02-2.699-2.19-3.423-4.46-3.833-2.15-.372-3.559-.665-3.559-2.073 0-1.291 1.076-1.956 2.621-1.956 1.662 0 2.758.939 2.934 2.327h2.249c-.098-2.523-2.054-4.224-5.183-4.224-2.914 0-4.87 1.623-4.87 4.01 0 2.718 2.152 3.441 4.42 3.832 2.171.391 3.599.704 3.599 2.152 0 1.31-1.174 2.033-2.797 2.033-1.916 0-3.168-1.075-3.285-2.679l-2.269-.039zm19.229-.509c0 2.073-.978 3.286-2.582 3.286-1.545 0-2.327-.997-2.327-2.953V7.987h-2.112v5.574c0 3.422 1.819 4.556 3.95 4.556 1.545 0 2.465-.626 3.09-1.388L66.997 18h1.858V7.987h-2.112v5.006zm9.474-5.123c-1.624 0-2.582.645-3.208 1.427l-.234-1.31h-1.839V18h2.112v-5.046c0-2.034.998-3.266 2.68-3.266 1.584 0 2.386 1.017 2.386 2.914V18h2.131v-5.574c0-3.344-1.819-4.556-4.028-4.556zm15.102 8.292c-.43 0-.646-.137-.646-.646v-4.009c0-2.366-1.525-3.637-4.185-3.637-2.523 0-4.205 1.212-4.42 3.168h2.073c.157-.88.998-1.467 2.25-1.467 1.388 0 2.19.685 2.19 1.8v.605h-2.523c-2.797 0-4.283 1.154-4.283 3.208 0 1.858 1.525 2.933 3.716 2.933 1.623 0 2.64-.704 3.305-1.72 0 .997.47 1.603 1.838 1.603h1.115v-1.838h-.43zm-2.738-2.269c-.02 1.545-1.037 2.582-2.797 2.582-1.154 0-1.858-.587-1.858-1.428 0-1.017.724-1.506 2.034-1.506h2.62v.352zM92.899 18h2.112v-2.542l1.8-1.878L99.764 18h2.503l-4.01-5.965 3.775-4.048h-2.483l-4.538 4.85V4.31H92.9V18zM1.76 37.282C1.76 39.1 2.581 40 4.498 40h1.956v-1.858H4.967c-.801 0-1.075-.293-1.075-1.076v-5.221h2.444v-1.858H3.892V27.19H1.76v2.797H.02v1.858h1.74v5.437zm10.56 2.835c3.05 0 5.104-2.053 5.104-5.123 0-3.051-2.053-5.124-5.104-5.124-3.05 0-5.104 2.073-5.104 5.123 0 3.07 2.053 5.124 5.104 5.124zm0-1.799c-1.78 0-2.934-1.388-2.934-3.325 0-1.936 1.154-3.324 2.934-3.324 1.78 0 2.953 1.388 2.953 3.324 0 1.937-1.173 3.325-2.953 3.325zm17.165-8.448c-1.545 0-2.582.704-3.247 1.603V26.31h-2.112V40h1.839l.254-1.447c.626.9 1.701 1.564 3.266 1.564 2.738 0 4.733-2.053 4.733-5.123 0-3.227-1.995-5.124-4.733-5.124zm-.352 8.468c-1.76 0-2.914-1.389-2.914-3.364 0-1.936 1.154-3.305 2.914-3.305 1.76 0 2.933 1.369 2.933 3.324 0 1.976-1.173 3.345-2.933 3.345zm11.53 1.78c2.483 0 4.165-1.507 4.517-3.482h-2.112c-.294 1.115-1.232 1.76-2.523 1.76-1.662 0-2.738-1.114-2.797-2.816v-.137h7.55a5.74 5.74 0 00.058-.801c-.059-2.934-1.995-4.772-4.89-4.772-2.952 0-4.928 2.053-4.928 5.143 0 3.07 1.976 5.104 5.124 5.104zm-2.836-6.22c.156-1.427 1.31-2.327 2.66-2.327 1.466 0 2.502.841 2.678 2.327h-5.338zm13.832 6.22c2.562 0 4.264-1.428 4.655-3.697h-2.23c-.254 1.154-1.115 1.897-2.405 1.897-1.702 0-2.816-1.35-2.816-3.305 0-1.975 1.114-3.344 2.816-3.344 1.31 0 2.151.723 2.425 1.897h2.21c-.411-2.269-2.015-3.696-4.596-3.696-3.031 0-5.026 2.053-5.026 5.143 0 3.13 1.936 5.104 4.967 5.104zm11.004 0c3.05 0 5.104-2.054 5.104-5.125 0-3.05-2.053-5.123-5.104-5.123-3.05 0-5.104 2.073-5.104 5.123 0 3.07 2.053 5.124 5.104 5.124zm0-1.8c-1.78 0-2.933-1.388-2.933-3.325 0-1.936 1.153-3.324 2.933-3.324 1.78 0 2.953 1.388 2.953 3.324 0 1.937-1.173 3.325-2.953 3.325zm18.322-8.448c-1.643 0-2.778.723-3.423 1.818-.606-1.29-1.78-1.818-3.09-1.818-1.506.02-2.366.684-2.933 1.427l-.235-1.31h-1.838V40h2.112v-5.358c0-1.78.9-2.954 2.347-2.954 1.388 0 2.112.92 2.112 2.68V40h2.131v-5.417c0-1.8.92-2.895 2.367-2.895 1.369 0 2.092.92 2.092 2.68V40h2.113v-5.77c0-3.167-1.682-4.36-3.755-4.36zM91.33 40.117c2.484 0 4.166-1.505 4.518-3.48h-2.112c-.294 1.114-1.233 1.76-2.523 1.76-1.663 0-2.738-1.115-2.797-2.817v-.137h7.549a5.74 5.74 0 00.059-.801c-.059-2.934-1.995-4.772-4.89-4.772-2.953 0-4.928 2.053-4.928 5.143 0 3.07 1.975 5.104 5.124 5.104zm-2.836-6.219c.157-1.427 1.31-2.327 2.66-2.327 1.467 0 2.503.841 2.68 2.327h-5.34zM102.95 40h2.249v-4.967h3.149c2.855 0 4.732-1.721 4.732-4.361 0-2.66-1.877-4.362-4.732-4.362h-5.398V40zm5.222-11.734c1.603 0 2.62.92 2.62 2.406 0 1.466-1.036 2.405-2.64 2.405h-2.953v-4.811h2.973zM114.81 40h2.171V29.928L121.088 40h1.897l4.107-10.072V40h2.17V26.31h-2.855l-4.302 10.776-4.381-10.776h-2.914V40z" fill="url(#paint0_linear_922_17398)"/><defs><linearGradient id="paint0_linear_922_17398" x1="137" y1="22.5" x2="0" y2="22.5" gradientUnits="userSpaceOnUse"><stop stop-color="#FF4343"/><stop offset=".5" stop-color="#9C0B93"/><stop offset="1" stop-color="#4C1BB7"/></linearGradient></defs></svg>