<svg width="554" height="72" viewBox="0 0 554 72" fill="none" xmlns="http://www.w3.org/2000/svg"><path d="M2.048 67.87h1.08v-5.84h4.02l3.3 5.84h1.22l-3.4-6.04c2.06-.32 3.36-1.82 3.36-3.88 0-2.48-1.74-4.08-4.4-4.08h-5.18v14zm5.12-13c2.06 0 3.36 1.2 3.36 3.08 0 1.86-1.32 3.08-3.38 3.08h-4.02v-6.16h4.04zm10.448 13.12c2.22 0 3.92-1.44 4.36-3.48h-1.04c-.4 1.58-1.74 2.56-3.4 2.56-2.26 0-3.68-1.72-3.72-4.08v-.18h8.28c0-.14.02-.3.02-.42-.1-3.02-1.96-4.78-4.68-4.78-2.78 0-4.68 2.12-4.68 5.12 0 3.18 1.98 5.26 4.86 5.26zm-3.72-6.04c.16-2.06 1.7-3.44 3.56-3.44 1.98 0 3.4 1.22 3.56 3.44h-7.12zm19.157 4.98c-.6 0-.9-.2-.9-.98v-4.72c0-2.32-1.42-3.62-3.96-3.62-2.32 0-3.86 1.12-4.12 2.96h1.02c.26-1.24 1.34-2.06 3.06-2.06 1.9 0 2.98 1 2.98 2.68v.88h-3.44c-2.6 0-4 1.12-4 3.02 0 1.8 1.42 2.9 3.58 2.9 2.06 0 3.28-.94 3.9-2.2v.36c-.04 1.2.46 1.72 1.66 1.72h.6v-.94h-.38zm-1.92-3.16c0 1.94-1.38 3.34-3.78 3.34-1.62 0-2.62-.82-2.62-2.08 0-1.34 1-2.08 2.88-2.08h3.52v.82zm7.927 4.22c2.3 0 3.92-1.32 4.32-3.38H42.3c-.34 1.5-1.56 2.46-3.24 2.46-2.22 0-3.76-1.74-3.76-4.26 0-2.52 1.52-4.3 3.76-4.3 1.7 0 2.9.96 3.26 2.48h1.06c-.42-2.1-2-3.38-4.3-3.38-2.86 0-4.82 2.12-4.82 5.2 0 3.12 1.94 5.18 4.8 5.18zm7.063-2.48c0 1.62.66 2.36 2.38 2.36h1.48v-.94h-1.4c-1.06 0-1.44-.4-1.44-1.44v-6.82h2.74v-.94h-2.74v-2.84h-1.02v2.84h-1.92v.94h1.92v6.84zm11.563 0c0 1.62.66 2.36 2.38 2.36h1.48v-.94h-1.4c-1.06 0-1.44-.4-1.44-1.44v-6.82h2.74v-.94h-2.74v-2.84h-1.02v2.84h-1.92v.94h1.92v6.84zm9.579 2.48c2.86 0 4.88-2.12 4.88-5.2 0-3.06-2.02-5.18-4.88-5.18s-4.86 2.12-4.86 5.18c0 3.08 2 5.2 4.86 5.2zm0-.92c-2.26 0-3.82-1.76-3.82-4.28 0-2.5 1.56-4.28 3.82-4.28s3.82 1.78 3.82 4.28c0 2.52-1.56 4.28-3.82 4.28zm16.777.92c2.22 0 3.92-1.44 4.36-3.48h-1.04c-.4 1.58-1.74 2.56-3.4 2.56-2.26 0-3.68-1.72-3.72-4.08v-.18h8.28c0-.14.02-.3.02-.42-.1-3.02-1.96-4.78-4.68-4.78-2.78 0-4.68 2.12-4.68 5.12 0 3.18 1.98 5.26 4.86 5.26zm-3.72-6.04c.16-2.06 1.7-3.44 3.56-3.44 1.98 0 3.4 1.22 3.56 3.44h-7.12zm19.156 4.98c-.6 0-.9-.2-.9-.98v-4.72c0-2.32-1.42-3.62-3.96-3.62-2.32 0-3.86 1.12-4.12 2.96h1.02c.26-1.24 1.34-2.06 3.06-2.06 1.9 0 2.98 1 2.98 2.68v.88h-3.44c-2.6 0-4 1.12-4 3.02 0 1.8 1.42 2.9 3.58 2.9 2.06 0 3.28-.94 3.9-2.2v.36c-.04 1.2.46 1.72 1.66 1.72h.6v-.94h-.38zm-1.92-3.16c0 1.94-1.38 3.34-3.78 3.34-1.62 0-2.62-.82-2.62-2.08 0-1.34 1-2.08 2.88-2.08h3.52v.82zm7.804-6.04c-1.88 0-2.68.9-3.1 2.02l-.16-2.02h-.88v10.14h1.02v-5.14c0-2.06.54-4.02 2.92-4.02h.74v-.98h-.54zm6.732-.12c-1.86 0-3.06.96-3.64 2.28l-.16-2.16h-.88v10.14h1.02v-5c0-2.64 1.34-4.32 3.5-4.32 1.96 0 3.14 1.28 3.14 3.68v5.64h1.02v-5.68c0-3.2-1.7-4.58-4-4.58zm6.777-2.02c.4 0 .72-.3.72-.72s-.32-.72-.72-.72c-.4 0-.72.3-.72.72s.32.72.72.72zm-.52 12.28h1.02V57.73h-1.02v10.14zm8.098-10.26c-1.86 0-3.06.96-3.64 2.28l-.16-2.16h-.88v10.14h1.02v-5c0-2.64 1.34-4.32 3.5-4.32 1.96 0 3.14 1.28 3.14 3.68v5.64h1.02v-5.68c0-3.2-1.7-4.58-4-4.58zm14.518 2.48c-.62-1.5-1.98-2.48-3.86-2.48-2.78 0-4.78 2.1-4.78 5.18 0 3.2 2 5.2 4.78 5.2 1.9 0 3.24-1 3.88-2.58v1.8c0 2.7-1.28 3.86-3.72 3.86-1.9 0-3.22-.86-3.54-2.4h-1.06c.32 2.16 2.06 3.32 4.52 3.32 3.28 0 4.82-1.56 4.82-4.74v-9.52h-.88l-.16 2.36zm-3.78 6.98c-2.26 0-3.82-1.76-3.82-4.28 0-2.52 1.56-4.28 3.82-4.28s3.82 1.76 3.82 4.3c0 2.5-1.56 4.26-3.82 4.26zm6.759-2.32c.08 2.1 1.78 3.24 4.32 3.24 2.18 0 3.94-1.1 3.94-2.9 0-2.14-1.88-2.56-4.06-2.86-1.58-.22-2.98-.4-2.98-1.82 0-1.16 1.14-1.92 2.86-1.92 1.62 0 2.78.78 2.96 2.1h1.04c-.18-1.98-1.8-2.98-4-2.98-2.26-.02-3.88 1.14-3.88 2.88 0 2.04 1.88 2.42 3.96 2.7 1.7.24 3.08.46 3.08 1.96 0 1.2-1.26 1.96-2.92 1.96-1.94 0-3.2-.9-3.28-2.36h-1.04zm18.057 3.12h1.1l3-8.52 2.86 8.52h1.1l3.6-10.14h-1.04l-3.12 8.92-2.9-8.92h-.94l-3.06 8.92-2.96-8.92h-1.08l3.44 10.14zm13.607-12.28c.4 0 .72-.3.72-.72s-.32-.72-.72-.72c-.4 0-.72.3-.72.72s.32.72.72.72zm-.52 12.28h1.02V57.73h-1.02v10.14zm4.178-2.36c0 1.62.66 2.36 2.38 2.36h1.48v-.94h-1.4c-1.06 0-1.44-.4-1.44-1.44v-6.82h2.74v-.94h-2.74v-2.84h-1.02v2.84h-1.92v.94h1.92v6.84zm10.091-7.9c-1.9 0-3.08 1.06-3.66 2.52v-6.26h-1.02v14h1.02v-5c0-2.64 1.34-4.32 3.5-4.32 1.94 0 3.14 1.28 3.14 3.68v5.64h1.02v-5.68c0-3.2-1.7-4.58-4-4.58zm16.148 10.38c2.22 0 3.92-1.44 4.36-3.48h-1.04c-.4 1.58-1.74 2.56-3.4 2.56-2.26 0-3.68-1.72-3.72-4.08v-.18h8.28c0-.14.02-.3.02-.42-.1-3.02-1.96-4.78-4.68-4.78-2.78 0-4.68 2.12-4.68 5.12 0 3.18 1.98 5.26 4.86 5.26zm-3.72-6.04c.16-2.06 1.7-3.44 3.56-3.44 1.98 0 3.4 1.22 3.56 3.44h-7.12zm8.805 5.92h1.18l3.36-4.46 3.36 4.46h1.24l-3.94-5.18 3.74-4.96h-1.16l-3.2 4.2-3.16-4.2h-1.22l3.74 4.96-3.94 5.18zm11.351-2.36c0 1.62.66 2.36 2.38 2.36h1.48v-.94h-1.4c-1.06 0-1.44-.4-1.44-1.44v-6.82h2.74v-.94h-2.74v-2.84h-1.02v2.84h-1.92v.94h1.92v6.84zm9.58 2.48c2.22 0 3.92-1.44 4.36-3.48h-1.04c-.4 1.58-1.74 2.56-3.4 2.56-2.26 0-3.68-1.72-3.72-4.08v-.18h8.28c0-.14.02-.3.02-.42-.1-3.02-1.96-4.78-4.68-4.78-2.78 0-4.68 2.12-4.68 5.12 0 3.18 1.98 5.26 4.86 5.26zm-3.72-6.04c.16-2.06 1.7-3.44 3.56-3.44 1.98 0 3.4 1.22 3.56 3.44h-7.12zm14.916-4.34c-1.86 0-3.06.96-3.64 2.28l-.16-2.16h-.88v10.14h1.02v-5c0-2.64 1.34-4.32 3.5-4.32 1.96 0 3.14 1.28 3.14 3.68v5.64h1.02v-5.68c0-3.2-1.7-4.58-4-4.58zm14.381 2.4c-.62-1.44-1.98-2.4-3.88-2.4-2.78 0-4.78 2.12-4.78 5.18 0 3.2 2 5.2 4.78 5.2 1.9 0 3.22-1.02 3.86-2.44l.16 2.32h.88v-14h-1.02v6.14zm-3.8 7.06c-2.26 0-3.82-1.76-3.82-4.28 0-2.5 1.56-4.28 3.82-4.28s3.82 1.78 3.82 4.3c0 2.5-1.56 4.26-3.82 4.26zm11.699.92c2.22 0 3.92-1.44 4.36-3.48h-1.04c-.4 1.58-1.74 2.56-3.4 2.56-2.26 0-3.68-1.72-3.72-4.08v-.18h8.28c0-.14.02-.3.02-.42-.1-3.02-1.96-4.78-4.68-4.78-2.78 0-4.68 2.12-4.68 5.12 0 3.18 1.98 5.26 4.86 5.26zm-3.72-6.04c.16-2.06 1.7-3.44 3.56-3.44 1.98 0 3.4 1.22 3.56 3.44h-7.12zm18.516-1.94c-.62-1.44-1.98-2.4-3.88-2.4-2.78 0-4.78 2.12-4.78 5.18 0 3.2 2 5.2 4.78 5.2 1.9 0 3.22-1.02 3.86-2.44l.16 2.32h.88v-14h-1.02v6.14zm-3.8 7.06c-2.26 0-3.82-1.76-3.82-4.28 0-2.5 1.56-4.28 3.82-4.28s3.82 1.78 3.82 4.3c0 2.5-1.56 4.26-3.82 4.26zm17.29-9.46c-1.9 0-3.08 1.06-3.66 2.52v-6.26h-1.02v14h1.02v-5c0-2.64 1.34-4.32 3.5-4.32 1.94 0 3.14 1.28 3.14 3.68v5.64h1.02v-5.68c0-3.2-1.7-4.58-4-4.58zm10.601 10.38c2.86 0 4.88-2.12 4.88-5.2 0-3.06-2.02-5.18-4.88-5.18s-4.86 2.12-4.86 5.18c0 3.08 2 5.2 4.86 5.2zm0-.92c-2.26 0-3.82-1.76-3.82-4.28 0-2.5 1.56-4.28 3.82-4.28s3.82 1.78 3.82 4.28c0 2.52-1.56 4.28-3.82 4.28zm14.267-4.36c0 2.66-1.32 4.34-3.42 4.34-1.88 0-3.04-1.28-3.04-3.7v-5.62h-1.02v5.68c0 3.18 1.66 4.58 3.9 4.58 1.8 0 2.98-.96 3.56-2.26l.14 2.14h.9V57.73h-1.02v4.98zm7.561-4.98c-1.88 0-2.68.9-3.1 2.02l-.16-2.02h-.88v10.14h1.02v-5.14c0-2.06.54-4.02 2.92-4.02h.74v-.98h-.54zm1.337 7.02c.08 2.1 1.78 3.24 4.32 3.24 2.18 0 3.94-1.1 3.94-2.9 0-2.14-1.88-2.56-4.06-2.86-1.58-.22-2.98-.4-2.98-1.82 0-1.16 1.14-1.92 2.86-1.92 1.62 0 2.78.78 2.96 2.1h1.04c-.18-1.98-1.8-2.98-4-2.98-2.26-.02-3.88 1.14-3.88 2.88 0 2.04 1.88 2.42 3.96 2.7 1.7.24 3.08.46 3.08 1.96 0 1.2-1.26 1.96-2.92 1.96-1.94 0-3.2-.9-3.28-2.36h-1.04zm24.517 2.18c-.6 0-.9-.2-.9-.98v-4.72c0-2.32-1.42-3.62-3.96-3.62-2.32 0-3.86 1.12-4.12 2.96h1.02c.26-1.24 1.34-2.06 3.06-2.06 1.9 0 2.98 1 2.98 2.68v.88h-3.44c-2.6 0-4 1.12-4 3.02 0 1.8 1.42 2.9 3.58 2.9 2.06 0 3.28-.94 3.9-2.2v.36c-.04 1.2.46 1.72 1.66 1.72h.6v-.94h-.38zm-1.92-3.16c0 1.94-1.38 3.34-3.78 3.34-1.62 0-2.62-.82-2.62-2.08 0-1.34 1-2.08 2.88-2.08h3.52v.82zm8.344-6.16c-1.86 0-3.06.96-3.64 2.28l-.16-2.16h-.88v10.14h1.02v-5c0-2.64 1.34-4.32 3.5-4.32 1.96 0 3.14 1.28 3.14 3.68v5.64h1.02v-5.68c0-3.2-1.7-4.58-4-4.58zm14.382 2.4c-.62-1.44-1.98-2.4-3.88-2.4-2.78 0-4.78 2.12-4.78 5.18 0 3.2 2 5.2 4.78 5.2 1.9 0 3.22-1.02 3.86-2.44l.16 2.32h.88v-14h-1.02v6.14zm-3.8 7.06c-2.26 0-3.82-1.76-3.82-4.28 0-2.5 1.56-4.28 3.82-4.28s3.82 1.78 3.82 4.3c0 2.5-1.56 4.26-3.82 4.26zm22.409-3.04c0-2.66-2.36-3.34-4.68-3.74-2.14-.36-4-.72-4-2.72 0-1.82 1.42-2.84 3.62-2.84 2.1 0 3.54 1.18 3.78 3h1.1c-.18-2.2-1.74-3.72-4.22-3.96v-2.06h-.96v2.04c-2.68.1-4.4 1.58-4.4 3.88 0 2.66 2.28 3.26 4.52 3.64 2.2.38 4.16.82 4.16 2.86 0 1.8-1.52 2.88-3.78 2.88-2.36 0-3.96-1.36-4.1-3.44h-1.12c.14 2.5 1.86 4.24 4.72 4.4v2.04h.96v-2.04c2.66-.16 4.4-1.72 4.4-3.94zm1.894-2.84c0 4.1 2.02 6.8 5.06 6.8 3 0 5.04-2.7 5.04-6.8v-.64c0-3.98-2.04-6.8-5.04-6.8-3.04 0-5.06 2.82-5.06 6.8v.64zm9.04-.04c0 3.56-1.58 5.88-3.98 5.88-2.42 0-4-2.32-4-5.88v-.56c0-3.56 1.58-5.88 4-5.88 2.4 0 3.98 2.32 3.98 5.88v.56zm13.022 6.84c2.3 0 3.92-1.32 4.32-3.38h-1.08c-.34 1.5-1.56 2.46-3.24 2.46-2.22 0-3.76-1.74-3.76-4.26 0-2.52 1.52-4.3 3.76-4.3 1.7 0 2.9.96 3.26 2.48h1.06c-.42-2.1-2-3.38-4.3-3.38-2.86 0-4.82 2.12-4.82 5.2 0 3.12 1.94 5.18 4.8 5.18zm10.783 0c2.86 0 4.88-2.12 4.88-5.2 0-3.06-2.02-5.18-4.88-5.18s-4.86 2.12-4.86 5.18c0 3.08 2 5.2 4.86 5.2zm0-.92c-2.26 0-3.82-1.76-3.82-4.28 0-2.5 1.56-4.28 3.82-4.28s3.82 1.78 3.82 4.28c0 2.52-1.56 4.28-3.82 4.28zm18.227-9.46c-1.86 0-3.06 1.04-3.64 2.54-.48-1.68-1.74-2.54-3.34-2.54-1.74 0-2.78 1.02-3.3 2.28l-.16-2.16h-.88v10.14h1.02v-5.16c0-2.48 1.2-4.16 3.14-4.16 1.76 0 2.86 1.24 2.86 3.58v5.74h1.02v-5.52c.06-2.32 1.26-3.8 3.16-3.8 1.76 0 2.82 1.18 2.82 3.48v5.84h1.04v-5.88c0-3.06-1.62-4.38-3.74-4.38zm17.324 0c-1.86 0-3.06 1.04-3.64 2.54-.48-1.68-1.74-2.54-3.34-2.54-1.74 0-2.78 1.02-3.3 2.28l-.16-2.16h-.88v10.14h1.02v-5.16c0-2.48 1.2-4.16 3.14-4.16 1.76 0 2.86 1.24 2.86 3.58v5.74h1.02v-5.52c.06-2.32 1.26-3.8 3.16-3.8 1.76 0 2.82 1.18 2.82 3.48v5.84h1.04v-5.88c0-3.06-1.62-4.38-3.74-4.38zm6.524-2.02c.4 0 .72-.3.72-.72s-.32-.72-.72-.72c-.4 0-.72.3-.72.72s.32.72.72.72zm-.52 12.28h1.02V57.73h-1.02v10.14zm2.958-3.12c.08 2.1 1.78 3.24 4.32 3.24 2.18 0 3.94-1.1 3.94-2.9 0-2.14-1.88-2.56-4.06-2.86-1.58-.22-2.98-.4-2.98-1.82 0-1.16 1.14-1.92 2.86-1.92 1.62 0 2.78.78 2.96 2.1h1.04c-.18-1.98-1.8-2.98-4-2.98-2.26-.02-3.88 1.14-3.88 2.88 0 2.04 1.88 2.42 3.96 2.7 1.7.24 3.08.46 3.08 1.96 0 1.2-1.26 1.96-2.92 1.96-1.94 0-3.2-.9-3.28-2.36h-1.04zm9.551 0c.08 2.1 1.78 3.24 4.32 3.24 2.18 0 3.94-1.1 3.94-2.9 0-2.14-1.88-2.56-4.06-2.86-1.58-.22-2.98-.4-2.98-1.82 0-1.16 1.14-1.92 2.86-1.92 1.62 0 2.78.78 2.96 2.1h1.04c-.18-1.98-1.8-2.98-4-2.98-2.26-.02-3.88 1.14-3.88 2.88 0 2.04 1.88 2.42 3.96 2.7 1.7.24 3.08.46 3.08 1.96 0 1.2-1.26 1.96-2.92 1.96-1.94 0-3.2-.9-3.28-2.36h-1.04zm10.726-9.16c.4 0 .72-.3.72-.72s-.32-.72-.72-.72c-.4 0-.72.3-.72.72s.32.72.72.72zm-.52 12.28h1.02V57.73h-1.02v10.14zm7.898.12c2.86 0 4.88-2.12 4.88-5.2 0-3.06-2.02-5.18-4.88-5.18s-4.86 2.12-4.86 5.18c0 3.08 2 5.2 4.86 5.2zm0-.92c-2.26 0-3.82-1.76-3.82-4.28 0-2.5 1.56-4.28 3.82-4.28s3.82 1.78 3.82 4.28c0 2.52-1.56 4.28-3.82 4.28zm11.587-9.46c-1.86 0-3.06.96-3.64 2.28l-.16-2.16h-.88v10.14h1.02v-5c0-2.64 1.34-4.32 3.5-4.32 1.96 0 3.14 1.28 3.14 3.68v5.64h1.02v-5.68c0-3.2-1.7-4.58-4-4.58zm6.137 9.6c0 .46.32.76.76.76s.76-.3.76-.76-.32-.74-.76-.74-.76.28-.76.74zM9.484 37.155c2.861 0 4.717-1.289 5.593-2.578L15.335 37h2.293v-9.87H9.794v2.499h5v.438c-.155 2.913-2.397 4.485-5.18 4.485-3.454 0-5.62-2.706-5.62-6.572s2.217-6.572 5.645-6.572c2.5 0 4.227 1.391 4.768 3.685h3.067c-.541-3.814-3.582-6.288-7.758-6.288-5.36 0-8.762 3.685-8.762 9.175s3.479 9.175 8.53 9.175zm23.223-2.578c-.567 0-.85-.18-.85-.85v-5.283c0-3.119-2.011-4.794-5.516-4.794-3.325 0-5.541 1.598-5.825 4.175h2.732c.206-1.16 1.315-1.933 2.964-1.933 1.83 0 2.887.902 2.887 2.371v.799h-3.325c-3.686 0-5.644 1.52-5.644 4.227 0 2.448 2.01 3.866 4.896 3.866 2.14 0 3.48-.928 4.356-2.268 0 1.314.619 2.113 2.423 2.113h1.469v-2.423h-.567zm-3.608-2.99c-.026 2.037-1.366 3.403-3.686 3.403-1.52 0-2.448-.773-2.448-1.882 0-1.34.953-1.984 2.68-1.984h3.454v.464zm7.108-9.638c.954 0 1.701-.696 1.701-1.675 0-.98-.747-1.676-1.7-1.676-.954 0-1.702.696-1.702 1.676 0 .979.748 1.675 1.701 1.675zM34.79 37h2.783V23.804H34.79V37zm12.47-13.35c-2.139 0-3.402.85-4.226 1.881l-.31-1.727h-2.422V37h2.783v-6.65c0-2.68 1.315-4.303 3.531-4.303 2.088 0 3.144 1.34 3.144 3.84V37h2.81v-7.345c0-4.407-2.397-6.005-5.31-6.005zm20.492 13.505c3.376 0 5.618-1.882 6.134-4.871h-2.938c-.336 1.52-1.47 2.5-3.17 2.5-2.243 0-3.712-1.779-3.712-4.356 0-2.603 1.47-4.407 3.711-4.407 1.727 0 2.835.953 3.196 2.5h2.913c-.542-2.99-2.655-4.871-6.057-4.871-3.995 0-6.624 2.706-6.624 6.778 0 4.124 2.552 6.727 6.547 6.727zM76.016 37h2.783V18.96h-2.783V37zm17.573-2.423c-.567 0-.85-.18-.85-.85v-5.283c0-3.119-2.01-4.794-5.515-4.794-3.325 0-5.541 1.598-5.825 4.175h2.732c.206-1.16 1.314-1.933 2.964-1.933 1.83 0 2.886.902 2.886 2.371v.799h-3.324c-3.686 0-5.644 1.52-5.644 4.227 0 2.448 2.01 3.866 4.896 3.866 2.14 0 3.48-.928 4.356-2.268 0 1.314.618 2.113 2.422 2.113h1.47v-2.423h-.567zm-3.608-2.99c-.025 2.037-1.366 3.403-3.685 3.403-1.52 0-2.449-.773-2.449-1.882 0-1.34.954-1.984 2.68-1.984h3.454v.464zm12.367-7.783c-2.165 0-3.222.877-3.892 1.985l-.31-1.985h-2.473V37h2.783v-6.624c0-2.036.8-3.969 3.273-3.969h1.237v-2.603h-.618zm3.753-1.855c.953 0 1.701-.696 1.701-1.675 0-.98-.748-1.676-1.701-1.676-.954 0-1.701.696-1.701 1.676 0 .979.747 1.675 1.701 1.675zM104.683 37h2.783V23.804h-2.783V37zm6.466-3.582c0 2.397 1.082 3.582 3.608 3.582h2.577v-2.448h-1.959c-1.056 0-1.417-.387-1.417-1.418v-6.881h3.221v-2.449h-3.221V20.12h-2.809v3.685h-2.294v2.449h2.294v7.165zm11.77 3.66l-.515 1.288c-.413 1.082-.671 1.34-1.753 1.34h-1.959v2.448h2.99c1.933 0 2.5-.953 3.325-3.092l5.979-15.258h-2.964L124.44 33.83l-3.686-10.026h-2.964l5.129 13.273zm19.11-.078h3.015l2.887-8.969L150.714 37h2.99l4.381-13.196h-2.835l-3.118 10.103-2.887-10.103h-2.551l-3.016 10.103-3.015-10.103h-2.938L142.029 37zm24.454-13.35c-2.061 0-3.324.928-4.149 2.062v-6.753h-2.783V37h2.783v-6.675c0-2.655 1.34-4.278 3.531-4.278 2.062 0 3.17 1.34 3.17 3.84V37h2.783v-7.345c0-4.407-2.397-6.005-5.335-6.005zm14.029 13.505c3.273 0 5.489-1.985 5.953-4.588h-2.783c-.387 1.47-1.624 2.32-3.325 2.32-2.191 0-3.608-1.47-3.685-3.712v-.18h9.948c.051-.36.077-.722.077-1.057-.077-3.866-2.629-6.288-6.443-6.288-3.892 0-6.495 2.706-6.495 6.778 0 4.046 2.603 6.727 6.753 6.727zm-3.737-8.196c.206-1.881 1.727-3.067 3.505-3.067 1.933 0 3.299 1.108 3.531 3.067h-7.036zm19.131-5.31c-2.139 0-3.402.851-4.227 1.882l-.309-1.727h-2.423V37h2.784v-6.65c0-2.68 1.314-4.303 3.531-4.303 2.087 0 3.144 1.34 3.144 3.84V37h2.809v-7.345c0-4.407-2.397-6.005-5.309-6.005z" fill="#000"/><path d="M216.6 31.44c0 3.72 1.68 5.56 5.6 5.56h4v-3.8h-3.04c-1.64 0-2.2-.6-2.2-2.2V20.32h5v-3.8h-5V10.8h-4.36v5.72h-3.56v3.8h3.56v11.12zm22.708-14.92c-3.36 0-5 1.36-6.04 3.08l-.48-3.08h-3.84V37h4.32V26.72c0-3.16 1.24-6.16 5.08-6.16h1.92v-4.04h-.96zm21.72 16.72c-.88 0-1.32-.28-1.32-1.32v-8.2c0-4.84-3.12-7.44-8.56-7.44-5.16 0-8.6 2.48-9.04 6.48h4.24c.32-1.8 2.04-3 4.6-3 2.84 0 4.48 1.4 4.48 3.68v1.24h-5.16c-5.72 0-8.76 2.36-8.76 6.56 0 3.8 3.12 6 7.6 6 3.32 0 5.4-1.44 6.76-3.52 0 2.04.96 3.28 3.76 3.28h2.28v-3.76h-.88zm-5.6-4.64c-.04 3.16-2.12 5.28-5.72 5.28-2.36 0-3.8-1.2-3.8-2.92 0-2.08 1.48-3.08 4.16-3.08h5.36v.72zm24.236-9.24c-1.32-1.8-3.52-3.08-6.64-3.08-5.56 0-9.68 4.16-9.68 10.48 0 6.56 4.12 10.48 9.68 10.48 3.24 0 5.36-1.52 6.68-3.32l.52 3.08h3.76V9h-4.32v10.36zm-5.92 14.24c-3.6 0-5.96-2.8-5.96-6.84 0-4 2.36-6.8 5.96-6.8s5.96 2.8 5.96 6.88c0 3.96-2.36 6.76-5.96 6.76zm16.662-19.96c1.48 0 2.64-1.08 2.64-2.6s-1.16-2.6-2.64-2.6c-1.48 0-2.64 1.08-2.64 2.6s1.16 2.6 2.64 2.6zm-2.2 23.36h4.32V16.52h-4.32V37zm19.355-20.72c-3.32 0-5.28 1.32-6.56 2.92l-.48-2.68h-3.76V37h4.32V26.68c0-4.16 2.04-6.68 5.48-6.68 3.24 0 4.88 2.08 4.88 5.96V37h4.36V25.6c0-6.84-3.72-9.32-8.24-9.32zm27.808 3.44c-1.32-2.04-3.52-3.44-6.72-3.44-5.56 0-9.68 4.12-9.68 10.4 0 6.52 4.12 10.4 9.68 10.4 3.2 0 5.32-1.32 6.68-3.36V36c0 3.92-2.12 5.72-5.88 5.72-3.04 0-5.04-1.32-5.56-3.6h-4.4c.4 4.6 4.2 7.12 9.64 7.12 7.36 0 10.48-3.52 10.48-9.08V16.52h-3.76l-.48 3.2zm-6 13.72c-3.6 0-5.96-2.76-5.96-6.76 0-3.96 2.36-6.76 5.96-6.76s5.96 2.8 5.96 6.84c0 3.92-2.36 6.68-5.96 6.68zm23.376-20.36h8.64V37h4.6V13.08h8.64V9h-21.88v4.08zm30.923 24.16c5.08 0 8.52-3.08 9.24-7.12h-4.32c-.6 2.28-2.52 3.6-5.16 3.6-3.4 0-5.6-2.28-5.72-5.76v-.28h15.44c.08-.56.12-1.12.12-1.64-.12-6-4.08-9.76-10-9.76-6.04 0-10.08 4.2-10.08 10.52 0 6.28 4.04 10.44 10.48 10.44zm-5.8-12.72c.32-2.92 2.68-4.76 5.44-4.76 3 0 5.12 1.72 5.48 4.76h-10.92zm17.895 5.72c.12 4.44 3.88 7 9.36 7 4.96 0 8.68-2.48 8.68-6.4 0-4.56-3.8-5.52-8.48-6.08-2.96-.32-4.92-.56-4.92-2.48 0-1.64 1.68-2.68 4.24-2.68 2.56 0 4.32 1.32 4.56 3.2h4.24c-.28-4.2-3.84-6.52-8.88-6.52-4.92-.04-8.4 2.48-8.4 6.36 0 4.24 3.68 5.24 8.36 5.8 3.16.4 5.04.56 5.04 2.76 0 1.64-1.76 2.68-4.44 2.68-3.12 0-4.96-1.52-5.12-3.64h-4.24zM417.151 37h4.32V9h-4.32v28zm27.275-3.76c-.88 0-1.32-.28-1.32-1.32v-8.2c0-4.84-3.12-7.44-8.56-7.44-5.16 0-8.6 2.48-9.04 6.48h4.24c.32-1.8 2.04-3 4.6-3 2.84 0 4.48 1.4 4.48 3.68v1.24h-5.16c-5.72 0-8.76 2.36-8.76 6.56 0 3.8 3.12 6 7.6 6 3.32 0 5.4-1.44 6.76-3.52 0 2.04.96 3.28 3.76 3.28h2.28v-3.76h-.88zm-5.6-4.64c-.04 3.16-2.12 5.28-5.72 5.28-2.36 0-3.8-1.2-3.8-2.92 0-2.08 1.48-3.08 4.16-3.08h5.36v.72zm31.667 8.64c6.52 0 11.28-3.84 12.16-9.76h-4.76c-.88 3.56-3.56 5.72-7.44 5.72-5.28 0-8.48-4.24-8.48-10.2 0-6 3.28-10.2 8.6-10.2 3.8 0 6.44 2.2 7.36 5.72h4.76c-.92-5.92-5.52-9.76-11.92-9.76-8.28 0-13.52 5.72-13.52 14.24 0 8.6 5.08 14.24 13.24 14.24zm15.965-.24h4.6V25.16h10.96V21.2h-10.96v-8.12h13.28V9h-17.88v28zm30.927 0c8.76 0 14.28-5.72 14.28-14.04S526.145 9 517.385 9h-9.52v28h9.52zm-4.92-24h4.92c6.16 0 9.56 3.96 9.56 9.96 0 6-3.4 10.04-9.56 10.04h-4.92V13zm21.931 17.24c.12 4.44 3.88 7 9.36 7 4.96 0 8.68-2.48 8.68-6.4 0-4.56-3.8-5.52-8.48-6.08-2.96-.32-4.92-.56-4.92-2.48 0-1.64 1.68-2.68 4.24-2.68 2.56 0 4.32 1.32 4.56 3.2h4.24c-.28-4.2-3.84-6.52-8.88-6.52-4.92-.04-8.4 2.48-8.4 6.36 0 4.24 3.68 5.24 8.36 5.8 3.16.4 5.04.56 5.04 2.76 0 1.64-1.76 2.68-4.44 2.68-3.12 0-4.96-1.52-5.12-3.64h-4.24z" fill="url(#paint0_linear_42_982)"/><defs><linearGradient id="paint0_linear_42_982" x1="554" y1="23" x2="213" y2="23" gradientUnits="userSpaceOnUse"><stop stop-color="#FF4343"/><stop offset=".5" stop-color="#9C0B93"/><stop offset="1" stop-color="#4C1BB7"/></linearGradient></defs></svg>