<svg width="156" height="11" viewBox="0 0 156 11" fill="none" xmlns="http://www.w3.org/2000/svg"><path d="M4.784 10.078c2.119 0 3.666-1.248 3.952-3.172H7.189c-.286 1.157-1.157 1.859-2.418 1.859-1.716 0-2.756-1.378-2.756-3.315 0-1.95 1.066-3.315 2.795-3.315 1.235 0 2.093.715 2.392 1.859h1.547C8.45 2.07 6.955.822 4.875.822 2.184.822.481 2.681.481 5.45c0 2.795 1.651 4.628 4.303 4.628zm8.543-6.812c-1.04 0-1.677.468-2.093 1.04V.9H9.83V10h1.404V6.633c0-1.339.676-2.158 1.78-2.158 1.04 0 1.6.676 1.6 1.937V10h1.404V6.295c0-2.223-1.21-3.029-2.691-3.029zm7.063 6.812c2.028 0 3.393-1.365 3.393-3.406 0-2.028-1.365-3.406-3.393-3.406-2.028 0-3.393 1.378-3.393 3.406 0 2.041 1.365 3.406 3.393 3.406zm0-1.196c-1.183 0-1.95-.923-1.95-2.21s.767-2.21 1.95-2.21c1.183 0 1.963.923 1.963 2.21s-.78 2.21-1.963 2.21zm7.668 1.196c2.028 0 3.393-1.365 3.393-3.406 0-2.028-1.365-3.406-3.393-3.406-2.028 0-3.393 1.378-3.393 3.406 0 2.041 1.365 3.406 3.393 3.406zm0-1.196c-1.183 0-1.95-.923-1.95-2.21s.767-2.21 1.95-2.21c1.183 0 1.963.923 1.963 2.21s-.78 2.21-1.963 2.21zm4.197-1.079c.04 1.443 1.261 2.275 3.042 2.275 1.613 0 2.822-.806 2.822-2.08 0-1.482-1.236-1.794-2.757-1.976-.962-.104-1.599-.182-1.599-.806 0-.533.547-.871 1.379-.871.831 0 1.403.429 1.481 1.04h1.379c-.092-1.365-1.248-2.119-2.887-2.119-1.599-.013-2.73.806-2.73 2.067 0 1.378 1.197 1.703 2.718 1.885 1.026.13 1.637.182 1.637.897 0 .533-.572.871-1.443.871-1.014 0-1.611-.494-1.663-1.183h-1.379zm10.11 2.275c1.652 0 2.77-1.001 3.004-2.314h-1.404c-.195.741-.82 1.17-1.677 1.17-1.105 0-1.82-.741-1.86-1.872v-.091h5.019c.026-.182.039-.364.039-.533-.04-1.95-1.326-3.172-3.25-3.172-1.963 0-3.276 1.365-3.276 3.419 0 2.041 1.313 3.393 3.406 3.393zm-1.884-4.134c.104-.949.87-1.547 1.768-1.547.975 0 1.664.559 1.78 1.547h-3.548zm9.947 2.249c0 1.209.546 1.807 1.82 1.807h1.3V8.765h-.988c-.533 0-.715-.195-.715-.715V4.579h1.625V3.344h-1.625V1.485h-1.417v1.859H49.27v1.235h1.157v3.614zm7.51-4.927c-1.04 0-1.677.468-2.093 1.04V.9h-1.404V10h1.404V6.633c0-1.339.676-2.158 1.781-2.158 1.04 0 1.599.676 1.599 1.937V10h1.404V6.295c0-2.223-1.209-3.029-2.691-3.029zm7.076 6.812c1.651 0 2.769-1.001 3.003-2.314h-1.404c-.195.741-.819 1.17-1.677 1.17-1.105 0-1.82-.741-1.859-1.872v-.091h5.018c.026-.182.039-.364.039-.533-.039-1.95-1.326-3.172-3.25-3.172-1.963 0-3.276 1.365-3.276 3.419 0 2.041 1.313 3.393 3.406 3.393zm-1.885-4.134c.104-.949.871-1.547 1.768-1.547.975 0 1.664.559 1.781 1.547h-3.549zm13.561 4.134c1.443 0 2.38-.65 2.821-1.3l.13 1.222h1.157V5.021h-3.952v1.261h2.522v.221c-.078 1.469-1.209 2.262-2.613 2.262-1.742 0-2.834-1.365-2.834-3.315s1.118-3.315 2.847-3.315c1.261 0 2.132.702 2.405 1.859h1.547C80.447 2.07 78.913.822 76.807.822c-2.704 0-4.42 1.859-4.42 4.628s1.755 4.628 4.303 4.628zm8.776 0c2.028 0 3.393-1.365 3.393-3.406 0-2.028-1.365-3.406-3.393-3.406-2.028 0-3.393 1.378-3.393 3.406 0 2.041 1.365 3.406 3.393 3.406zm0-1.196c-1.183 0-1.95-.923-1.95-2.21s.767-2.21 1.95-2.21c1.183 0 1.963.923 1.963 2.21s-.78 2.21-1.963 2.21zM89.988 10h1.404V.9h-1.404V10zm7.837-5.733c-.429-.585-1.144-1.001-2.158-1.001-1.807 0-3.146 1.352-3.146 3.406 0 2.132 1.34 3.406 3.146 3.406 1.053 0 1.742-.494 2.171-1.079l.17 1.001h1.221V.9h-1.404v3.367zm-1.924 4.628c-1.17 0-1.937-.91-1.937-2.223 0-1.3.767-2.21 1.937-2.21s1.937.91 1.937 2.236c0 1.287-.767 2.197-1.937 2.197zm7.74-1.092c.039 1.443 1.261 2.275 3.042 2.275 1.612 0 2.821-.806 2.821-2.08 0-1.482-1.235-1.794-2.756-1.976-.962-.104-1.599-.182-1.599-.806 0-.533.546-.871 1.378-.871.832 0 1.404.429 1.482 1.04h1.378c-.091-1.365-1.248-2.119-2.886-2.119-1.599-.013-2.73.806-2.73 2.067 0 1.378 1.196 1.703 2.717 1.885 1.027.13 1.638.182 1.638.897 0 .533-.572.871-1.443.871-1.014 0-1.612-.494-1.664-1.183h-1.378zm7.432.39c0 1.209.546 1.807 1.82 1.807h1.3V8.765h-.988c-.533 0-.715-.195-.715-.715V4.579h1.625V3.344h-1.625V1.485h-1.417v1.859h-1.157v1.235h1.157v3.614zm10.021.585c-.286 0-.429-.091-.429-.429V5.684c0-1.573-1.014-2.418-2.782-2.418-1.677 0-2.795.806-2.938 2.106h1.378c.104-.585.663-.975 1.495-.975.923 0 1.456.455 1.456 1.196v.403h-1.677c-1.859 0-2.847.767-2.847 2.132 0 1.235 1.014 1.95 2.47 1.95 1.079 0 1.755-.468 2.197-1.144 0 .663.312 1.066 1.222 1.066h.741V8.778h-.286zm-1.82-1.508c-.013 1.027-.689 1.716-1.859 1.716-.767 0-1.235-.39-1.235-.949 0-.676.481-1.001 1.352-1.001h1.742v.234zm6.381-4.004c-1.079 0-1.716.429-2.132.949l-.156-.871h-1.222V10h1.404V6.646c0-1.352.663-2.171 1.781-2.171 1.053 0 1.586.676 1.586 1.937V10h1.417V6.295c0-2.223-1.209-3.029-2.678-3.029zm8.961 1.001c-.429-.585-1.144-1.001-2.158-1.001-1.807 0-3.146 1.352-3.146 3.406 0 2.132 1.339 3.406 3.146 3.406 1.053 0 1.742-.494 2.171-1.079l.169 1.001h1.222V.9h-1.404v3.367zm-1.924 4.628c-1.17 0-1.937-.91-1.937-2.223 0-1.3.767-2.21 1.937-2.21s1.937.91 1.937 2.236c0 1.287-.767 2.197-1.937 2.197zm10.784-.117c-.286 0-.429-.091-.429-.429V5.684c0-1.573-1.014-2.418-2.782-2.418-1.677 0-2.795.806-2.938 2.106h1.378c.104-.585.663-.975 1.495-.975.923 0 1.456.455 1.456 1.196v.403h-1.677c-1.859 0-2.847.767-2.847 2.132 0 1.235 1.014 1.95 2.47 1.95 1.079 0 1.755-.468 2.197-1.144 0 .663.312 1.066 1.222 1.066h.741V8.778h-.286zm-1.82-1.508c-.013 1.027-.689 1.716-1.859 1.716-.767 0-1.235-.39-1.235-.949 0-.676.481-1.001 1.352-1.001h1.742v.234zm6.238-3.926c-1.092 0-1.625.442-1.963 1.001l-.156-1.001h-1.248V10h1.404V6.659c0-1.027.403-2.002 1.651-2.002h.624V3.344h-.312zm5.917.923c-.429-.585-1.144-1.001-2.158-1.001-1.807 0-3.146 1.352-3.146 3.406 0 2.132 1.339 3.406 3.146 3.406 1.053 0 1.742-.494 2.171-1.079l.169 1.001h1.222V.9h-1.404v3.367zm-1.924 4.628c-1.17 0-1.937-.91-1.937-2.223 0-1.3.767-2.21 1.937-2.21s1.937.91 1.937 2.236c0 1.287-.767 2.197-1.937 2.197z" fill="#000"/></svg>