<svg width="257" height="57" viewBox="0 0 257 57" fill="none" xmlns="http://www.w3.org/2000/svg"><path d="M4.133 21V6.616L14.022 21h3.045V.7H13.79v14.384L3.901.7H.856V21h3.277zm23.331.174c4.524 0 7.57-3.045 7.57-7.598 0-4.524-3.046-7.598-7.57-7.598-4.524 0-7.569 3.074-7.569 7.598 0 4.553 3.045 7.598 7.57 7.598zm0-2.668c-2.639 0-4.35-2.059-4.35-4.93 0-2.871 1.711-4.93 4.35-4.93 2.64 0 4.38 2.059 4.38 4.93 0 2.871-1.74 4.93-4.38 4.93zm24.526 2.668c4.524 0 7.569-3.045 7.569-7.598 0-4.524-3.045-7.598-7.57-7.598-4.523 0-7.568 3.074-7.568 7.598 0 4.553 3.045 7.598 7.569 7.598zm0-2.668c-2.64 0-4.35-2.059-4.35-4.93 0-2.871 1.71-4.93 4.35-4.93 2.639 0 4.379 2.059 4.379 4.93 0 2.871-1.74 4.93-4.38 4.93zM69.907 5.978c-2.407 0-3.828.957-4.756 2.117l-.348-1.943h-2.726V21h3.132v-7.482c0-3.016 1.479-4.843 3.973-4.843 2.349 0 3.538 1.508 3.538 4.321V21h3.161v-8.265c0-4.959-2.697-6.757-5.974-6.757zm15.756 15.196c3.683 0 6.177-2.233 6.7-5.162H89.23c-.435 1.653-1.827 2.61-3.74 2.61-2.466 0-4.06-1.653-4.148-4.176v-.203h11.194c.058-.406.087-.812.087-1.189-.087-4.35-2.958-7.076-7.25-7.076-4.379 0-7.308 3.045-7.308 7.627 0 4.553 2.93 7.569 7.598 7.569zm-4.205-9.222c.232-2.117 1.943-3.451 3.944-3.451 2.175 0 3.712 1.247 3.973 3.451h-7.917zm27.932 9.222c3.799 0 6.322-2.117 6.902-5.481h-3.306c-.377 1.711-1.653 2.813-3.567 2.813-2.523 0-4.176-2.001-4.176-4.901 0-2.929 1.653-4.959 4.176-4.959 1.943 0 3.19 1.073 3.596 2.813h3.277c-.609-3.364-2.987-5.481-6.815-5.481-4.495 0-7.453 3.045-7.453 7.627 0 4.64 2.871 7.569 7.366 7.569zm22.871-2.9c-.638 0-.957-.203-.957-.957v-5.945c0-3.509-2.262-5.394-6.206-5.394-3.741 0-6.235 1.798-6.554 4.698h3.074c.232-1.305 1.479-2.175 3.335-2.175 2.059 0 3.248 1.015 3.248 2.668v.899h-3.741c-4.147 0-6.351 1.711-6.351 4.756 0 2.755 2.262 4.35 5.51 4.35 2.407 0 3.915-1.044 4.901-2.552 0 1.479.696 2.378 2.726 2.378h1.653v-2.726h-.638zm-4.06-3.364c-.029 2.291-1.537 3.828-4.147 3.828-1.711 0-2.755-.87-2.755-2.117 0-1.508 1.073-2.233 3.016-2.233h3.886v.522zm14.234-8.932c-2.407 0-3.828.957-4.756 2.117l-.348-1.943h-2.726V21h3.132v-7.482c0-3.016 1.479-4.843 3.973-4.843 2.349 0 3.538 1.508 3.538 4.321V21h3.161v-8.265c0-4.959-2.697-6.757-5.974-6.757zm14.735 2.929h2.581V21h3.161V8.907h3.973V6.152h-4.031V4.905c0-1.015.435-1.45 1.45-1.45h2.581V.7h-2.987c-2.871 0-4.147 1.392-4.147 4.06v1.392h-2.581v2.755zm17.73 12.267c4.524 0 7.569-3.045 7.569-7.598 0-4.524-3.045-7.598-7.569-7.598s-7.569 3.074-7.569 7.598c0 4.553 3.045 7.598 7.569 7.598zm0-2.668c-2.639 0-4.35-2.059-4.35-4.93 0-2.871 1.711-4.93 4.35-4.93 2.639 0 4.379 2.059 4.379 4.93 0 2.871-1.74 4.93-4.379 4.93zm17.598-12.354c-2.436 0-3.625.986-4.379 2.233l-.348-2.233h-2.784V21h3.132v-7.453c0-2.291.899-4.466 3.683-4.466h1.392V6.152h-.696zm8.967 15.022c3.683 0 6.177-2.233 6.699-5.162h-3.132c-.435 1.653-1.827 2.61-3.741 2.61-2.465 0-4.06-1.653-4.147-4.176v-.203h11.194c.058-.406.087-.812.087-1.189-.087-4.35-2.958-7.076-7.25-7.076-4.379 0-7.308 3.045-7.308 7.627 0 4.553 2.929 7.569 7.598 7.569zm-4.205-9.222c.232-2.117 1.943-3.451 3.944-3.451 2.175 0 3.712 1.247 3.973 3.451h-7.917zm12.974 4.147c.087 3.219 2.813 5.075 6.786 5.075 3.596 0 6.293-1.798 6.293-4.64 0-3.306-2.755-4.002-6.148-4.408-2.146-.232-3.567-.406-3.567-1.798 0-1.189 1.218-1.943 3.074-1.943 1.856 0 3.132.957 3.306 2.32h3.074c-.203-3.045-2.784-4.727-6.438-4.727-3.567-.029-6.09 1.798-6.09 4.611 0 3.074 2.668 3.799 6.061 4.205 2.291.29 3.654.406 3.654 2.001 0 1.189-1.276 1.943-3.219 1.943-2.262 0-3.596-1.102-3.712-2.639h-3.074zm22.553 5.075c3.683 0 6.177-2.233 6.699-5.162h-3.132c-.435 1.653-1.827 2.61-3.741 2.61-2.465 0-4.06-1.653-4.147-4.176v-.203h11.194c.058-.406.087-.812.087-1.189-.087-4.35-2.958-7.076-7.25-7.076-4.379 0-7.308 3.045-7.308 7.627 0 4.553 2.929 7.569 7.598 7.569zm-4.205-9.222c.232-2.117 1.943-3.451 3.944-3.451 2.175 0 3.712 1.247 3.973 3.451h-7.917zm20.744 9.222c3.683 0 6.177-2.233 6.699-5.162h-3.132c-.435 1.653-1.827 2.61-3.741 2.61-2.465 0-4.06-1.653-4.147-4.176v-.203h11.194c.058-.406.087-.812.087-1.189-.087-4.35-2.958-7.076-7.25-7.076-4.379 0-7.308 3.045-7.308 7.627 0 4.553 2.929 7.569 7.598 7.569zm-4.205-9.222c.232-2.117 1.943-3.451 3.944-3.451 2.175 0 3.712 1.247 3.973 3.451h-7.917zM8.483 40.978c-2.291 0-3.828 1.044-4.814 2.378V35.7H.537V56h2.726l.377-2.146c.928 1.334 2.523 2.32 4.843 2.32 4.06 0 7.018-3.045 7.018-7.598 0-4.785-2.958-7.598-7.018-7.598zm-.522 12.557c-2.61 0-4.321-2.059-4.321-4.988 0-2.871 1.711-4.901 4.321-4.901 2.61 0 4.35 2.03 4.35 4.93 0 2.929-1.74 4.959-4.35 4.959zM18.011 56h3.132V35.7H18.01V56zm19.774-2.726c-.638 0-.957-.203-.957-.957v-5.945c0-3.509-2.262-5.394-6.206-5.394-3.741 0-6.235 1.798-6.554 4.698h3.074c.232-1.305 1.479-2.175 3.335-2.175 2.059 0 3.248 1.015 3.248 2.668v.899h-3.741c-4.147 0-6.351 1.711-6.351 4.756 0 2.755 2.262 4.35 5.51 4.35 2.407 0 3.915-1.044 4.9-2.552 0 1.479.697 2.378 2.727 2.378h1.653v-2.726h-.638zm-4.06-3.364c-.03 2.291-1.537 3.828-4.147 3.828-1.711 0-2.755-.87-2.755-2.117 0-1.508 1.073-2.233 3.016-2.233h3.886v.522zm13.105 6.264c3.8 0 6.323-2.117 6.903-5.481h-3.306c-.377 1.711-1.654 2.813-3.568 2.813-2.523 0-4.175-2.001-4.175-4.901 0-2.929 1.653-4.959 4.175-4.959 1.944 0 3.19 1.073 3.596 2.813h3.278c-.61-3.364-2.987-5.481-6.816-5.481-4.495 0-7.453 3.045-7.453 7.627 0 4.64 2.872 7.569 7.367 7.569zm9.3-.174h3.132v-3.77l2.668-2.784L66.309 56h3.712l-5.945-8.845 5.597-6.003H65.99l-6.728 7.192V35.7H56.13V56zm22.188-4.901c.087 3.219 2.813 5.075 6.786 5.075 3.596 0 6.293-1.798 6.293-4.64 0-3.306-2.755-4.002-6.148-4.408-2.146-.232-3.567-.406-3.567-1.798 0-1.189 1.218-1.943 3.074-1.943 1.856 0 3.132.957 3.306 2.32h3.074c-.203-3.045-2.784-4.727-6.438-4.727-3.567-.029-6.09 1.798-6.09 4.611 0 3.074 2.668 3.799 6.06 4.205 2.292.29 3.655.406 3.655 2.001 0 1.189-1.276 1.943-3.22 1.943-2.261 0-3.595-1.102-3.711-2.639h-3.074zM96.85 56h3.393l3.248-10.092L106.623 56h3.364l4.93-14.848h-3.19l-3.509 11.368-3.248-11.368h-2.871L98.706 52.52l-3.393-11.368h-3.306L96.85 56zm32.664-2.726c-.638 0-.957-.203-.957-.957v-5.945c0-3.509-2.262-5.394-6.206-5.394-3.741 0-6.235 1.798-6.554 4.698h3.074c.232-1.305 1.479-2.175 3.335-2.175 2.059 0 3.248 1.015 3.248 2.668v.899h-3.741c-4.147 0-6.351 1.711-6.351 4.756 0 2.755 2.262 4.35 5.51 4.35 2.407 0 3.915-1.044 4.901-2.552 0 1.479.696 2.378 2.726 2.378h1.653v-2.726h-.638zm-4.06-3.364c-.029 2.291-1.537 3.828-4.147 3.828-1.711 0-2.755-.87-2.755-2.117 0-1.508 1.073-2.233 3.016-2.233h3.886v.522zm14.234-8.932c-2.407 0-3.828.957-4.756 2.117l-.348-1.943h-2.726V56h3.132v-7.482c0-3.016 1.479-4.843 3.973-4.843 2.349 0 3.538 1.508 3.538 4.321V56h3.161v-8.265c0-4.959-2.697-6.757-5.974-6.757zm8.185 10.121c.087 3.219 2.813 5.075 6.786 5.075 3.596 0 6.293-1.798 6.293-4.64 0-3.306-2.755-4.002-6.148-4.408-2.146-.232-3.567-.406-3.567-1.798 0-1.189 1.218-1.943 3.074-1.943 1.856 0 3.132.957 3.306 2.32h3.074c-.203-3.045-2.784-4.727-6.438-4.727-3.567-.029-6.09 1.798-6.09 4.611 0 3.074 2.668 3.799 6.061 4.205 2.291.29 3.654.406 3.654 2.001 0 1.189-1.276 1.943-3.219 1.943-2.262 0-3.596-1.102-3.712-2.639h-3.074z" fill="#000"/></svg>