<svg width="526" height="27" viewBox="0 0 526 27" fill="none" xmlns="http://www.w3.org/2000/svg"><path d="M.856 21h3.335v-8.584h7.946V9.545H4.191V3.658h9.628V.7H.856V21zm14.04 0h3.77l4.988-7.801L28.614 21h3.973l-6.758-10.527L32.181.7h-3.77l-4.64 7.221L19.217.7h-3.944l6.35 9.918L14.898 21zm30.41 0H48.7l3.248-10.092L55.08 21h3.364l4.93-14.848h-3.19l-3.51 11.368-3.247-11.368h-2.871L47.163 17.52 43.77 6.152h-3.306L45.307 21zM66.618 4.064c1.073 0 1.914-.783 1.914-1.885 0-1.102-.84-1.885-1.914-1.885-1.073 0-1.914.783-1.914 1.885 0 1.102.841 1.885 1.914 1.885zM65.022 21h3.132V6.152h-3.132V21zm7.275-4.031c0 2.697 1.219 4.031 4.06 4.031h2.9v-2.755h-2.204c-1.188 0-1.594-.435-1.594-1.595V8.907h3.624V6.152H75.46V2.005h-3.162v4.147h-2.58v2.755h2.58v8.062zM89.052 5.978c-2.32 0-3.741 1.044-4.67 2.32V.7H81.25V21h3.132v-7.511c0-2.987 1.508-4.814 3.973-4.814 2.32 0 3.567 1.508 3.567 4.321V21h3.132v-8.265c0-4.959-2.697-6.757-6.003-6.757zm17.344 10.991c0 2.697 1.218 4.031 4.06 4.031h2.9v-2.755h-2.204c-1.189 0-1.595-.435-1.595-1.595V8.907h3.625V6.152h-3.625V2.005h-3.161v4.147h-2.581v2.755h2.581v8.062zm10.548-12.905c1.073 0 1.914-.783 1.914-1.885 0-1.102-.841-1.885-1.914-1.885s-1.914.783-1.914 1.885c0 1.102.841 1.885 1.914 1.885zM115.348 21h3.132V6.152h-3.132V21zm17.541-12.528c-.957-1.479-2.552-2.494-4.872-2.494-4.031 0-7.018 2.987-7.018 7.54 0 4.727 2.987 7.54 7.018 7.54 2.32 0 3.857-.957 4.843-2.436v1.653c0 2.842-1.537 4.147-4.263 4.147-2.204 0-3.654-.957-4.031-2.61h-3.19c.29 3.335 3.045 5.162 6.989 5.162 5.336 0 7.598-2.552 7.598-6.583V6.152h-2.726l-.348 2.32zm-4.35 9.947c-2.61 0-4.321-2.001-4.321-4.901 0-2.871 1.711-4.901 4.321-4.901 2.61 0 4.321 2.03 4.321 4.959 0 2.842-1.711 4.843-4.321 4.843zm18.285-12.441c-2.32 0-3.741 1.044-4.669 2.32V.7h-3.132V21h3.132v-7.511c0-2.987 1.508-4.814 3.973-4.814 2.32 0 3.567 1.508 3.567 4.321V21h3.132v-8.265c0-4.959-2.697-6.757-6.003-6.757zm9.925 10.991c0 2.697 1.218 4.031 4.06 4.031h2.9v-2.755h-2.204c-1.189 0-1.595-.435-1.595-1.595V8.907h3.625V6.152h-3.625V2.005h-3.161v4.147h-2.581v2.755h2.581v8.062zm15.734-.87c.087 3.219 2.813 5.075 6.786 5.075 3.596 0 6.293-1.798 6.293-4.64 0-3.306-2.755-4.002-6.148-4.408-2.146-.232-3.567-.406-3.567-1.798 0-1.189 1.218-1.943 3.074-1.943 1.856 0 3.132.957 3.306 2.32h3.074c-.203-3.045-2.784-4.727-6.438-4.727-3.567-.029-6.09 1.798-6.09 4.611 0 3.074 2.668 3.799 6.061 4.205 2.291.29 3.654.406 3.654 2.001 0 1.189-1.276 1.943-3.219 1.943-2.262 0-3.596-1.102-3.712-2.639h-3.074zm23.452-10.121c-2.32 0-3.857 1.073-4.843 2.378l-.377-2.204h-2.726V26.8h3.132v-7.888c.928 1.334 2.523 2.262 4.814 2.262 4.06 0 7.018-3.016 7.018-7.598 0-4.756-2.958-7.598-7.018-7.598zm-.522 12.557c-2.61 0-4.321-2.059-4.321-5.017 0-2.871 1.711-4.872 4.321-4.872 2.61 0 4.35 2.001 4.35 4.93 0 2.9-1.74 4.959-4.35 4.959zm17.561-12.383c-2.436 0-3.625.986-4.379 2.233l-.348-2.233h-2.784V21h3.132v-7.453c0-2.291.899-4.466 3.683-4.466h1.392V6.152h-.696zm8.966 15.022c3.683 0 6.177-2.233 6.699-5.162h-3.132c-.435 1.653-1.827 2.61-3.741 2.61-2.465 0-4.06-1.653-4.147-4.176v-.203h11.194c.058-.406.087-.812.087-1.189-.087-4.35-2.958-7.076-7.25-7.076-4.379 0-7.308 3.045-7.308 7.627 0 4.553 2.929 7.569 7.598 7.569zm-4.205-9.222c.232-2.117 1.943-3.451 3.944-3.451 2.175 0 3.712 1.247 3.973 3.451h-7.917zm27.27 6.322c-.638 0-.957-.203-.957-.957v-5.945c0-3.509-2.262-5.394-6.206-5.394-3.741 0-6.235 1.798-6.554 4.698h3.074c.232-1.305 1.479-2.175 3.335-2.175 2.059 0 3.248 1.015 3.248 2.668v.899h-3.741c-4.147 0-6.351 1.711-6.351 4.756 0 2.755 2.262 4.35 5.51 4.35 2.407 0 3.915-1.044 4.901-2.552 0 1.479.696 2.378 2.726 2.378h1.653v-2.726h-.638zm-4.06-3.364c-.029 2.291-1.537 3.828-4.147 3.828-1.711 0-2.755-.87-2.755-2.117 0-1.508 1.073-2.233 3.016-2.233h3.886v.522zm17.571-6.699c-.957-1.305-2.552-2.233-4.814-2.233-4.031 0-7.018 3.016-7.018 7.598 0 4.756 2.987 7.598 7.018 7.598 2.349 0 3.886-1.102 4.843-2.407l.377 2.233h2.726V.7h-3.132v7.511zm-4.292 10.324c-2.61 0-4.321-2.03-4.321-4.959 0-2.9 1.711-4.93 4.321-4.93 2.61 0 4.321 2.03 4.321 4.988 0 2.871-1.711 4.901-4.321 4.901zm9.847-2.436c.087 3.219 2.813 5.075 6.786 5.075 3.596 0 6.293-1.798 6.293-4.64 0-3.306-2.755-4.002-6.148-4.408-2.146-.232-3.567-.406-3.567-1.798 0-1.189 1.218-1.943 3.074-1.943 1.856 0 3.132.957 3.306 2.32h3.074c-.203-3.045-2.784-4.727-6.438-4.727-3.567-.029-6.09 1.798-6.09 4.611 0 3.074 2.668 3.799 6.061 4.205 2.291.29 3.654.406 3.654 2.001 0 1.189-1.276 1.943-3.219 1.943-2.262 0-3.596-1.102-3.712-2.639h-3.074zm40.036 2.233c-.667 0-1.131-.116-1.682-.725l-.899-.986 4.379-6.583h-3.103l-3.045 4.64-3.712-4.031c3.683-1.508 4.756-3.422 4.756-5.539 0-2.639-2.233-4.582-5.162-4.582-3.451 0-6.003 2.146-6.003 5.017 0 1.711.406 2.813 1.798 4.553-3.277 1.45-4.379 3.683-4.379 5.684-.029 3.567 2.958 5.394 6.757 5.394 2.146 0 3.944-.754 5.597-2.32l.783.87c.899 1.015 2.117 1.276 3.48 1.276h2.407v-2.668h-1.972zm-8.642-15.428c1.392 0 2.291.957 2.291 2.291 0 1.479-.986 2.726-3.306 3.712-1.189-1.363-1.682-2.146-1.682-3.451 0-1.479 1.102-2.552 2.697-2.552zm-1.508 15.689c-2.175 0-3.683-1.131-3.683-3.132 0-1.566.667-2.668 2.639-3.683l.058.058 4.756 5.191c-1.131 1.015-2.349 1.566-3.77 1.566zm22.342-7.279c0 6.119 3.277 9.86 8.004 9.86 4.727 0 8.004-3.741 8.004-9.86v-.928c0-5.887-3.277-9.86-8.004-9.86-4.727 0-8.004 3.973-8.004 9.86v.928zm12.76-.116c0 4.553-1.914 7.163-4.756 7.163-2.842 0-4.756-2.61-4.756-7.163v-.696c0-4.524 1.914-7.163 4.756-7.163 2.842 0 4.756 2.639 4.756 7.163v.696zm5.739-5.713c0 2.871 2.204 4.93 5.191 4.93 2.987 0 5.191-2.059 5.191-4.93 0-2.871-2.204-4.959-5.191-4.959-2.987 0-5.191 2.088-5.191 4.959zM341.236 21L355.127.7h-3.103L338.162 21h3.074zm1.305-15.515c0 1.479-1.073 2.581-2.552 2.581-1.45 0-2.523-1.102-2.523-2.581 0-1.479 1.073-2.581 2.523-2.581 1.479 0 2.552 1.102 2.552 2.581zm5.51 10.759c0 2.842 2.204 4.93 5.191 4.93 2.987 0 5.191-2.088 5.191-4.93 0-2.9-2.204-4.959-5.191-4.959-2.987 0-5.191 2.059-5.191 4.959zm7.743 0c0 1.479-1.102 2.552-2.552 2.552s-2.552-1.073-2.552-2.552 1.102-2.61 2.552-2.61 2.552 1.131 2.552 2.61zm19.779 4.93c3.799 0 6.322-2.117 6.902-5.481h-3.306c-.377 1.711-1.653 2.813-3.567 2.813-2.523 0-4.176-2.001-4.176-4.901 0-2.929 1.653-4.959 4.176-4.959 1.943 0 3.19 1.073 3.596 2.813h3.277c-.609-3.364-2.987-5.481-6.815-5.481-4.495 0-7.453 3.045-7.453 7.627 0 4.64 2.871 7.569 7.366 7.569zm16.317 0c4.524 0 7.569-3.045 7.569-7.598 0-4.524-3.045-7.598-7.569-7.598s-7.569 3.074-7.569 7.598c0 4.553 3.045 7.598 7.569 7.598zm0-2.668c-2.639 0-4.35-2.059-4.35-4.93 0-2.871 1.711-4.93 4.35-4.93 2.639 0 4.379 2.059 4.379 4.93 0 2.871-1.74 4.93-4.379 4.93zm27.168-12.528c-2.436 0-4.118 1.073-5.075 2.697-.899-1.914-2.639-2.697-4.582-2.697-2.233.029-3.509 1.015-4.35 2.117l-.348-1.943h-2.726V21h3.132v-7.946c0-2.639 1.334-4.379 3.48-4.379 2.059 0 3.132 1.363 3.132 3.973V21h3.161v-8.033c0-2.668 1.363-4.292 3.509-4.292 2.03 0 3.103 1.363 3.103 3.973V21h3.132v-8.555c0-4.698-2.494-6.467-5.568-6.467zm25.489 0c-2.436 0-4.118 1.073-5.075 2.697-.899-1.914-2.639-2.697-4.582-2.697-2.233.029-3.509 1.015-4.35 2.117l-.348-1.943h-2.726V21h3.132v-7.946c0-2.639 1.334-4.379 3.48-4.379 2.059 0 3.132 1.363 3.132 3.973V21h3.161v-8.033c0-2.668 1.363-4.292 3.509-4.292 2.03 0 3.103 1.363 3.103 3.973V21h3.132v-8.555c0-4.698-2.494-6.467-5.568-6.467zm10.002-1.914c1.073 0 1.914-.783 1.914-1.885 0-1.102-.841-1.885-1.914-1.885s-1.914.783-1.914 1.885c0 1.102.841 1.885 1.914 1.885zM452.954 21h3.132V6.152h-3.132V21zm5.564-4.901c.087 3.219 2.813 5.075 6.786 5.075 3.596 0 6.293-1.798 6.293-4.64 0-3.306-2.755-4.002-6.148-4.408-2.146-.232-3.567-.406-3.567-1.798 0-1.189 1.218-1.943 3.074-1.943 1.856 0 3.132.957 3.306 2.32h3.074c-.203-3.045-2.784-4.727-6.438-4.727-3.567-.029-6.09 1.798-6.09 4.611 0 3.074 2.668 3.799 6.061 4.205 2.291.29 3.654.406 3.654 2.001 0 1.189-1.276 1.943-3.219 1.943-2.262 0-3.596-1.102-3.712-2.639h-3.074zm14.585 0c.087 3.219 2.813 5.075 6.786 5.075 3.596 0 6.293-1.798 6.293-4.64 0-3.306-2.755-4.002-6.148-4.408-2.146-.232-3.567-.406-3.567-1.798 0-1.189 1.218-1.943 3.074-1.943 1.856 0 3.132.957 3.306 2.32h3.074c-.203-3.045-2.784-4.727-6.438-4.727-3.567-.029-6.09 1.798-6.09 4.611 0 3.074 2.668 3.799 6.061 4.205 2.291.29 3.654.406 3.654 2.001 0 1.189-1.276 1.943-3.219 1.943-2.262 0-3.596-1.102-3.712-2.639h-3.074zm17.101-12.035c1.073 0 1.914-.783 1.914-1.885 0-1.102-.841-1.885-1.914-1.885s-1.914.783-1.914 1.885c0 1.102.841 1.885 1.914 1.885zM488.609 21h3.132V6.152h-3.132V21zm13.22.174c4.524 0 7.569-3.045 7.569-7.598 0-4.524-3.045-7.598-7.569-7.598s-7.569 3.074-7.569 7.598c0 4.553 3.045 7.598 7.569 7.598zm0-2.668c-2.639 0-4.35-2.059-4.35-4.93 0-2.871 1.711-4.93 4.35-4.93 2.639 0 4.379 2.059 4.379 4.93 0 2.871-1.74 4.93-4.379 4.93zm17.918-12.528c-2.407 0-3.828.957-4.756 2.117l-.348-1.943h-2.726V21h3.132v-7.482c0-3.016 1.479-4.843 3.973-4.843 2.349 0 3.538 1.508 3.538 4.321V21h3.161v-8.265c0-4.959-2.697-6.757-5.974-6.757z" fill="#000"/></svg>