<svg width="128" height="56" viewBox="0 0 128 56" fill="none" xmlns="http://www.w3.org/2000/svg"><path d="M.3 1.25h3.6V11h.81V1.25h3.6V.5H.3v.75zm14.82 9.045c-.45 0-.676-.15-.676-.735V6.02c0-1.74-1.065-2.715-2.97-2.715-1.74 0-2.895.84-3.09 2.22h.765c.195-.93 1.005-1.545 2.295-1.545 1.425 0 2.235.75 2.235 2.01v.66H11.1c-1.95 0-3 .84-3 2.265 0 1.35 1.065 2.175 2.685 2.175 1.545 0 2.46-.705 2.925-1.65v.27c-.03.9.345 1.29 1.245 1.29h.45v-.705h-.285zm-1.44-2.37c0 1.455-1.036 2.505-2.836 2.505-1.215 0-1.965-.615-1.965-1.56 0-1.005.75-1.56 2.16-1.56h2.64v.615zM16.426 11h.765V8.945l1.785-1.83L21.887 11h.93l-3.315-4.44 3.06-3.165h-.945l-4.425 4.56V.5h-.765V11zm10.362.09c1.665 0 2.94-1.08 3.27-2.61h-.78c-.3 1.185-1.305 1.92-2.55 1.92-1.695 0-2.76-1.29-2.79-3.06v-.135h6.21c0-.105.015-.225.015-.315-.075-2.265-1.47-3.585-3.51-3.585-2.085 0-3.51 1.59-3.51 3.84 0 2.385 1.485 3.945 3.645 3.945zM24 6.56c.12-1.545 1.275-2.58 2.67-2.58 1.485 0 2.55.915 2.67 2.58H24zm18.41 3.735c-.45 0-.675-.15-.675-.735V6.02c0-1.74-1.065-2.715-2.97-2.715-1.74 0-2.895.84-3.09 2.22h.765c.195-.93 1.005-1.545 2.295-1.545 1.425 0 2.235.75 2.235 2.01v.66h-2.58c-1.95 0-3 .84-3 2.265 0 1.35 1.065 2.175 2.685 2.175 1.545 0 2.46-.705 2.925-1.65v.27c-.03.9.345 1.29 1.245 1.29h.45v-.705h-.285zm-1.44-2.37c0 1.455-1.035 2.505-2.835 2.505-1.215 0-1.965-.615-1.965-1.56 0-1.005.75-1.56 2.16-1.56h2.64v.615zm8.841-2.82c-.465-1.08-1.485-1.8-2.91-1.8-2.085 0-3.585 1.59-3.585 3.885 0 2.4 1.5 3.9 3.585 3.9 1.425 0 2.415-.765 2.895-1.83l.12 1.74h.66V.5h-.765v4.605zM46.96 10.4c-1.695 0-2.865-1.32-2.865-3.21 0-1.875 1.17-3.21 2.865-3.21 1.695 0 2.865 1.335 2.865 3.225 0 1.875-1.17 3.195-2.865 3.195zm7.62.6h.915l2.97-7.605h-.795l-2.61 6.72-2.625-6.72h-.825L54.58 11zm11.325-.705c-.45 0-.675-.15-.675-.735V6.02c0-1.74-1.065-2.715-2.97-2.715-1.74 0-2.895.84-3.09 2.22h.765c.195-.93 1.005-1.545 2.295-1.545 1.425 0 2.235.75 2.235 2.01v.66h-2.58c-1.95 0-3 .84-3 2.265 0 1.35 1.065 2.175 2.685 2.175 1.545 0 2.46-.705 2.925-1.65v.27c-.03.9.345 1.29 1.245 1.29h.45v-.705h-.285zm-1.44-2.37c0 1.455-1.035 2.505-2.835 2.505-1.215 0-1.965-.615-1.965-1.56 0-1.005.75-1.56 2.16-1.56h2.64v.615zm6.258-4.62c-1.394 0-2.294.72-2.73 1.71l-.12-1.62h-.66V11h.766V7.25c0-1.98 1.005-3.24 2.624-3.24 1.47 0 2.356.96 2.356 2.76V11h.764V6.74c0-2.4-1.275-3.435-3-3.435zm5.264 5.925c0 1.215.495 1.77 1.785 1.77h1.11v-.705h-1.05c-.795 0-1.08-.3-1.08-1.08V4.1h2.055v-.705h-2.055v-2.13h-.765v2.13h-1.44V4.1h1.44v5.13zm10.587 1.065c-.45 0-.675-.15-.675-.735V6.02c0-1.74-1.065-2.715-2.97-2.715-1.74 0-2.895.84-3.09 2.22h.765C80.8 4.595 81.61 3.98 82.9 3.98c1.425 0 2.235.75 2.235 2.01v.66h-2.58c-1.95 0-3 .84-3 2.265 0 1.35 1.065 2.175 2.685 2.175 1.545 0 2.46-.705 2.925-1.65v.27c-.03.9.345 1.29 1.245 1.29h.45v-.705h-.285zm-1.44-2.37c0 1.455-1.035 2.505-2.835 2.505-1.215 0-1.965-.615-1.965-1.56 0-1.005.75-1.56 2.16-1.56h2.64v.615zm8.943-2.76c-.465-1.125-1.485-1.86-2.895-1.86-2.085 0-3.585 1.575-3.585 3.885 0 2.4 1.5 3.9 3.585 3.9 1.425 0 2.43-.75 2.91-1.935v1.35c0 2.025-.96 2.895-2.79 2.895-1.425 0-2.415-.645-2.655-1.8h-.795c.24 1.62 1.545 2.49 3.39 2.49 2.46 0 3.615-1.17 3.615-3.555v-7.14h-.66l-.12 1.77zM91.242 10.4c-1.695 0-2.865-1.32-2.865-3.21s1.17-3.21 2.865-3.21c1.695 0 2.865 1.32 2.865 3.225 0 1.875-1.17 3.195-2.865 3.195zm8.775.69c1.665 0 2.94-1.08 3.27-2.61h-.78c-.3 1.185-1.305 1.92-2.55 1.92-1.695 0-2.76-1.29-2.79-3.06v-.135h6.21c0-.105.015-.225.015-.315-.075-2.265-1.47-3.585-3.51-3.585-2.085 0-3.51 1.59-3.51 3.84 0 2.385 1.485 3.945 3.645 3.945zm-2.79-4.53c.12-1.545 1.275-2.58 2.67-2.58 1.485 0 2.55.915 2.67 2.58h-5.34zM4.26 32.09c2.145 0 3.66-1.59 3.66-3.9 0-2.295-1.515-3.885-3.66-3.885-2.145 0-3.645 1.59-3.645 3.885 0 2.31 1.5 3.9 3.645 3.9zm0-.69c-1.695 0-2.865-1.32-2.865-3.21 0-1.875 1.17-3.21 2.865-3.21 1.695 0 2.865 1.335 2.865 3.21 0 1.89-1.17 3.21-2.865 3.21zm4.193-6.3h1.44V32h.765v-6.9h2.28v-.705h-2.28v-1.14c0-.75.285-1.05 1.05-1.05h1.245V21.5h-1.275c-1.275 0-1.785.555-1.785 1.77v1.125h-1.44v.705zm12.814 6.99c2.145 0 3.66-1.59 3.66-3.9 0-2.295-1.515-3.885-3.66-3.885-2.145 0-3.645 1.59-3.645 3.885 0 2.31 1.5 3.9 3.645 3.9zm0-.69c-1.695 0-2.865-1.32-2.865-3.21 0-1.875 1.17-3.21 2.865-3.21 1.695 0 2.865 1.335 2.865 3.21 0 1.89-1.17 3.21-2.865 3.21zm10.7-3.27c0 1.995-.99 3.255-2.565 3.255-1.41 0-2.28-.96-2.28-2.775v-4.215h-.765v4.26c0 2.385 1.245 3.435 2.925 3.435 1.35 0 2.235-.72 2.67-1.695L32.057 32h.675v-7.605h-.765v3.735zm5.67-3.735c-1.41 0-2.01.675-2.324 1.515l-.12-1.515h-.66V32h.765v-3.855c0-1.545.405-3.015 2.19-3.015h.555v-.735h-.405zm9.092-.09c-1.395 0-2.295.72-2.73 1.71l-.12-1.62h-.66V32h.765v-3.75c0-1.98 1.005-3.24 2.625-3.24 1.47 0 2.355.96 2.355 2.76V32h.765v-4.26c0-2.4-1.275-3.435-3-3.435zm7.936 7.785c1.665 0 2.94-1.08 3.27-2.61h-.78c-.3 1.185-1.305 1.92-2.55 1.92-1.695 0-2.76-1.29-2.79-3.06v-.135h6.21c0-.105.015-.225.015-.315-.075-2.265-1.47-3.585-3.51-3.585-2.085 0-3.51 1.59-3.51 3.84 0 2.385 1.485 3.945 3.645 3.945zm-2.79-4.53c.12-1.545 1.275-2.58 2.67-2.58 1.485 0 2.55.915 2.67 2.58h-5.34zM61.163 32h.825l2.25-6.39L66.383 32h.825l2.7-7.605h-.78l-2.34 6.69-2.175-6.69h-.705l-2.295 6.69-2.22-6.69h-.81L61.163 32zm16.963-7.605c-1.41 0-2.01.675-2.325 1.515l-.12-1.515h-.66V32h.765v-3.855c0-1.545.405-3.015 2.19-3.015h.555v-.735h-.405zm4.357 7.695c1.665 0 2.94-1.08 3.27-2.61h-.78c-.3 1.185-1.305 1.92-2.55 1.92-1.695 0-2.76-1.29-2.79-3.06v-.135h6.21c0-.105.015-.225.015-.315-.075-2.265-1.47-3.585-3.51-3.585-2.085 0-3.51 1.59-3.51 3.84 0 2.385 1.485 3.945 3.645 3.945zm-2.79-4.53c.12-1.545 1.275-2.58 2.67-2.58 1.485 0 2.55.915 2.67 2.58h-5.34zm13.887-1.455c-.465-1.08-1.485-1.8-2.91-1.8-2.085 0-3.585 1.59-3.585 3.885 0 2.4 1.5 3.9 3.585 3.9 1.425 0 2.415-.765 2.895-1.83l.12 1.74h.66V21.5h-.765v4.605zM90.73 31.4c-1.695 0-2.865-1.32-2.865-3.21 0-1.875 1.17-3.21 2.865-3.21 1.695 0 2.865 1.335 2.865 3.225 0 1.875-1.17 3.195-2.865 3.195zm10.934-3.27c0 1.995-.99 3.255-2.565 3.255-1.41 0-2.28-.96-2.28-2.775v-4.215h-.765v4.26c0 2.385 1.245 3.435 2.925 3.435 1.35 0 2.235-.72 2.67-1.695l.105 1.605h.675v-7.605h-.765v3.735zm5.881 3.96c1.725 0 2.94-.99 3.24-2.535h-.81c-.255 1.125-1.17 1.845-2.43 1.845-1.665 0-2.82-1.305-2.82-3.195s1.14-3.225 2.82-3.225c1.275 0 2.175.72 2.445 1.86h.795c-.315-1.575-1.5-2.535-3.225-2.535-2.145 0-3.615 1.59-3.615 3.9 0 2.34 1.455 3.885 3.6 3.885zm8.087 0c1.665 0 2.94-1.08 3.27-2.61h-.78c-.3 1.185-1.305 1.92-2.55 1.92-1.695 0-2.76-1.29-2.79-3.06v-.135h6.21c0-.105.015-.225.015-.315-.075-2.265-1.47-3.585-3.51-3.585-2.085 0-3.51 1.59-3.51 3.84 0 2.385 1.485 3.945 3.645 3.945zm-2.79-4.53c.12-1.545 1.275-2.58 2.67-2.58 1.485 0 2.55.915 2.67 2.58h-5.34zm13.887-1.455c-.465-1.08-1.485-1.8-2.91-1.8-2.085 0-3.585 1.59-3.585 3.885 0 2.4 1.5 3.9 3.585 3.9 1.425 0 2.415-.765 2.895-1.83l.12 1.74h.66V21.5h-.765v4.605zm-2.85 5.295c-1.695 0-2.865-1.32-2.865-3.21 0-1.875 1.17-3.21 2.865-3.21 1.695 0 2.865 1.335 2.865 3.225 0 1.875-1.17 3.195-2.865 3.195zM.555 50.66c.06 1.575 1.335 2.43 3.24 2.43 1.635 0 2.955-.825 2.955-2.175 0-1.605-1.41-1.92-3.045-2.145-1.185-.165-2.235-.3-2.235-1.365 0-.87.855-1.44 2.145-1.44 1.215 0 2.085.585 2.22 1.575h.78c-.135-1.485-1.35-2.235-3-2.235-1.695-.015-2.91.855-2.91 2.16 0 1.53 1.41 1.815 2.97 2.025 1.275.18 2.31.345 2.31 1.47 0 .9-.945 1.47-2.19 1.47-1.455 0-2.4-.675-2.46-1.77h-.78zm11.33-5.355c-1.425 0-2.415.765-2.895 1.83l-.12-1.74h-.66V56h.765v-4.755c.435 1.11 1.47 1.845 2.91 1.845 2.085 0 3.585-1.59 3.585-3.9 0-2.385-1.5-3.885-3.585-3.885zm-.06 7.095c-1.695 0-2.865-1.32-2.865-3.225 0-1.86 1.17-3.195 2.865-3.195 1.695 0 2.865 1.335 2.865 3.21 0 1.89-1.17 3.21-2.865 3.21zm8.264-7.005c-1.41 0-2.01.675-2.325 1.515l-.12-1.515h-.66V53h.765v-3.855c0-1.545.405-3.015 2.19-3.015h.555v-.735h-.405zm4.357 7.695c1.664 0 2.94-1.08 3.27-2.61h-.78c-.3 1.185-1.305 1.92-2.55 1.92-1.695 0-2.76-1.29-2.79-3.06v-.135h6.21c0-.105.014-.225.014-.315-.075-2.265-1.47-3.585-3.51-3.585-2.084 0-3.51 1.59-3.51 3.84 0 2.385 1.485 3.945 3.645 3.945zm-2.79-4.53c.12-1.545 1.274-2.58 2.67-2.58 1.485 0 2.55.915 2.67 2.58h-5.34zm14.367 3.735c-.45 0-.675-.15-.675-.735v-3.54c0-1.74-1.065-2.715-2.97-2.715-1.74 0-2.895.84-3.09 2.22h.765c.195-.93 1.005-1.545 2.295-1.545 1.425 0 2.235.75 2.235 2.01v.66h-2.58c-1.95 0-3 .84-3 2.265 0 1.35 1.065 2.175 2.685 2.175 1.545 0 2.46-.705 2.925-1.65v.27c-.03.9.345 1.29 1.245 1.29h.45v-.705h-.285zm-1.44-2.37c0 1.455-1.035 2.505-2.835 2.505-1.215 0-1.965-.615-1.965-1.56 0-1.005.75-1.56 2.16-1.56h2.64v.615zm8.84-2.82c-.465-1.08-1.485-1.8-2.91-1.8-2.084 0-3.584 1.59-3.584 3.885 0 2.4 1.5 3.9 3.584 3.9 1.425 0 2.416-.765 2.895-1.83l.12 1.74h.66V42.5h-.765v4.605zm-2.85 5.295c-1.694 0-2.864-1.32-2.864-3.21 0-1.875 1.17-3.21 2.864-3.21 1.696 0 2.865 1.335 2.865 3.225 0 1.875-1.17 3.195-2.864 3.195zm5.07-1.74c.06 1.575 1.335 2.43 3.24 2.43 1.635 0 2.955-.825 2.955-2.175 0-1.605-1.41-1.92-3.045-2.145-1.185-.165-2.235-.3-2.235-1.365 0-.87.855-1.44 2.145-1.44 1.215 0 2.085.585 2.22 1.575h.78c-.135-1.485-1.35-2.235-3-2.235-1.695-.015-2.91.855-2.91 2.16 0 1.53 1.41 1.815 2.97 2.025 1.275.18 2.31.345 2.31 1.47 0 .9-.945 1.47-2.19 1.47-1.455 0-2.4-.675-2.46-1.77h-.78zM60.7 53.09c2.145 0 3.66-1.59 3.66-3.9 0-2.295-1.515-3.885-3.66-3.885-2.145 0-3.645 1.59-3.645 3.885 0 2.31 1.5 3.9 3.645 3.9zm0-.69c-1.695 0-2.865-1.32-2.865-3.21 0-1.875 1.17-3.21 2.865-3.21 1.695 0 2.865 1.335 2.865 3.21 0 1.89-1.17 3.21-2.865 3.21zm8.69-7.095c-1.394 0-2.294.72-2.73 1.71l-.12-1.62h-.66V53h.766v-3.75c0-1.98 1.004-3.24 2.624-3.24 1.47 0 2.356.96 2.356 2.76V53h.764v-4.26c0-2.4-1.275-3.435-3-3.435zm9.127-1.515c.3 0 .54-.225.54-.54 0-.315-.24-.54-.54-.54-.3 0-.54.225-.54.54 0 .315.24.54.54.54zm-.39 9.21h.765v-7.605h-.765V53zm6.073-7.695c-1.395 0-2.295.72-2.73 1.71l-.12-1.62h-.66V53h.765v-3.75c0-1.98 1.005-3.24 2.625-3.24 1.47 0 2.355.96 2.355 2.76V53h.765v-4.26c0-2.4-1.275-3.435-3-3.435zm10.786 1.8c-.465-1.08-1.485-1.8-2.91-1.8-2.085 0-3.585 1.59-3.585 3.885 0 2.4 1.5 3.9 3.585 3.9 1.425 0 2.415-.765 2.895-1.83l.12 1.74h.66V42.5h-.765v4.605zm-2.85 5.295c-1.695 0-2.865-1.32-2.865-3.21 0-1.875 1.17-3.21 2.865-3.21 1.695 0 2.865 1.335 2.865 3.225 0 1.875-1.17 3.195-2.865 3.195zm5.804-8.61c.3 0 .54-.225.54-.54 0-.315-.24-.54-.54-.54-.3 0-.54.225-.54.54 0 .315.24.54.54.54zM97.55 53h.765v-7.605h-.765V53zm5.879.09c1.725 0 2.94-.99 3.24-2.535h-.81c-.255 1.125-1.17 1.845-2.43 1.845-1.665 0-2.82-1.305-2.82-3.195s1.14-3.225 2.82-3.225c1.275 0 2.175.72 2.445 1.86h.795c-.315-1.575-1.5-2.535-3.225-2.535-2.145 0-3.615 1.59-3.615 3.9 0 2.34 1.455 3.885 3.6 3.885zm8.087 0c1.665 0 2.94-1.08 3.27-2.61h-.78c-.3 1.185-1.305 1.92-2.55 1.92-1.695 0-2.76-1.29-2.79-3.06v-.135h6.21c0-.105.015-.225.015-.315-.075-2.265-1.47-3.585-3.51-3.585-2.085 0-3.51 1.59-3.51 3.84 0 2.385 1.485 3.945 3.645 3.945zm-2.79-4.53c.12-1.545 1.275-2.58 2.67-2.58 1.485 0 2.55.915 2.67 2.58h-5.34zm7.317 2.1c.06 1.575 1.335 2.43 3.24 2.43 1.635 0 2.955-.825 2.955-2.175 0-1.605-1.41-1.92-3.045-2.145-1.185-.165-2.235-.3-2.235-1.365 0-.87.855-1.44 2.145-1.44 1.215 0 2.085.585 2.22 1.575h.78c-.135-1.485-1.35-2.235-3-2.235-1.695-.015-2.91.855-2.91 2.16 0 1.53 1.41 1.815 2.97 2.025 1.275.18 2.31.345 2.31 1.47 0 .9-.945 1.47-2.19 1.47-1.455 0-2.4-.675-2.46-1.77h-.78z" fill="#000"/></svg>