<svg width="127" height="57" viewBox="0 0 127 57" fill="none" xmlns="http://www.w3.org/2000/svg"><path d="M3.76 12h1.024L7.68 2.224 10.576 12H11.6L15.024.8h-.896l-3.024 10.064L8.16.8h-.88L4.256 10.864 1.264.8H.352L3.76 12zm12.991-9.824c.32 0 .576-.24.576-.576a.564.564 0 00-.576-.576c-.32 0-.576.24-.576.576 0 .336.256.576.576.576zM16.335 12h.816V3.888h-.816V12zm3.342-1.888c0 1.296.528 1.888 1.904 1.888h1.184v-.752h-1.12c-.848 0-1.152-.32-1.152-1.152V4.64h2.192v-.752h-2.192V1.616h-.816v2.272h-1.536v.752h1.536v5.472zm8.074-6.32c-1.52 0-2.464.848-2.928 2.016V.8h-.816V12h.816V8c0-2.112 1.072-3.456 2.8-3.456 1.552 0 2.512 1.024 2.512 2.944V12h.816V7.456c0-2.56-1.36-3.664-3.2-3.664zm12.87 8.304c1.84 0 3.136-1.056 3.456-2.704h-.864c-.272 1.2-1.248 1.968-2.592 1.968-1.776 0-3.008-1.392-3.008-3.408s1.216-3.44 3.008-3.44c1.36 0 2.32.768 2.608 1.984h.848c-.336-1.68-1.6-2.704-3.44-2.704-2.288 0-3.856 1.696-3.856 4.16 0 2.496 1.552 4.144 3.84 4.144zm8.626 0c2.288 0 3.904-1.696 3.904-4.16 0-2.448-1.616-4.144-3.904-4.144S45.36 5.488 45.36 7.936c0 2.464 1.6 4.16 3.888 4.16zm0-.736c-1.808 0-3.056-1.408-3.056-3.424 0-2 1.248-3.424 3.056-3.424s3.056 1.424 3.056 3.424c0 2.016-1.248 3.424-3.056 3.424zm14.581-7.568c-1.488 0-2.448.832-2.912 2.032-.383-1.344-1.391-2.032-2.671-2.032-1.392 0-2.224.816-2.64 1.824l-.128-1.728h-.704V12h.816V7.872c0-1.984.96-3.328 2.511-3.328 1.408 0 2.288.992 2.288 2.864V12h.817V7.584c.047-1.856 1.008-3.04 2.528-3.04 1.408 0 2.256.944 2.256 2.784V12h.831V7.296c0-2.448-1.295-3.504-2.991-3.504zm13.86 0c-1.488 0-2.448.832-2.912 2.032-.384-1.344-1.392-2.032-2.672-2.032-1.392 0-2.224.816-2.64 1.824l-.128-1.728h-.704V12h.816V7.872c0-1.984.96-3.328 2.512-3.328 1.408 0 2.288.992 2.288 2.864V12h.816V7.584c.048-1.856 1.008-3.04 2.528-3.04 1.408 0 2.256.944 2.256 2.784V12h.832V7.296c0-2.448-1.296-3.504-2.992-3.504zm5.22-1.616c.32 0 .575-.24.575-.576a.564.564 0 00-.576-.576c-.32 0-.576.24-.576.576 0 .336.256.576.576.576zM82.49 12h.816V3.888h-.816V12zm2.367-2.496c.064 1.68 1.424 2.592 3.456 2.592 1.744 0 3.152-.88 3.152-2.32 0-1.712-1.504-2.048-3.248-2.288-1.264-.176-2.384-.32-2.384-1.456 0-.928.912-1.536 2.288-1.536 1.296 0 2.224.624 2.368 1.68h.832c-.144-1.584-1.44-2.384-3.2-2.384-1.808-.016-3.104.912-3.104 2.304 0 1.632 1.504 1.936 3.168 2.16 1.36.192 2.464.368 2.464 1.568 0 .96-1.008 1.568-2.336 1.568-1.552 0-2.56-.72-2.624-1.888h-.832zm7.64 0c.064 1.68 1.424 2.592 3.456 2.592 1.744 0 3.152-.88 3.152-2.32 0-1.712-1.504-2.048-3.248-2.288-1.264-.176-2.384-.32-2.384-1.456 0-.928.912-1.536 2.288-1.536 1.296 0 2.224.624 2.368 1.68h.832c-.144-1.584-1.44-2.384-3.2-2.384-1.808-.016-3.104.912-3.104 2.304 0 1.632 1.504 1.936 3.168 2.16 1.36.192 2.464.368 2.464 1.568 0 .96-1.008 1.568-2.336 1.568-1.552 0-2.56-.72-2.624-1.888h-.832zm8.581-7.328c.32 0 .576-.24.576-.576a.564.564 0 00-.576-.576c-.32 0-.576.24-.576.576 0 .336.256.576.576.576zM100.663 12h.816V3.888h-.816V12zm6.319.096c2.288 0 3.903-1.696 3.903-4.16 0-2.448-1.615-4.144-3.903-4.144-2.288 0-3.888 1.696-3.888 4.144 0 2.464 1.6 4.16 3.888 4.16zm0-.736c-1.808 0-3.056-1.408-3.056-3.424 0-2 1.248-3.424 3.056-3.424s3.056 1.424 3.056 3.424c0 2.016-1.248 3.424-3.056 3.424zm9.269-7.568c-1.488 0-2.448.768-2.912 1.824l-.128-1.728h-.704V12h.816V8c0-2.112 1.072-3.456 2.8-3.456 1.568 0 2.512 1.024 2.512 2.944V12h.816V7.456c0-2.56-1.36-3.664-3.2-3.664zm10.158 4v-.688h-5.168v.688h5.168zM.032 26.64h1.536V34h.816v-7.36h2.432v-.752H2.384v-1.216c0-.8.304-1.12 1.12-1.12h1.328V22.8h-1.36c-1.36 0-1.904.592-1.904 1.888v1.2H.032v.752zm9.084-.752c-1.504 0-2.144.72-2.48 1.616l-.128-1.616h-.704V34h.816v-4.112c0-1.648.432-3.216 2.336-3.216h.592v-.784h-.432zm4.647 8.208c1.776 0 3.136-1.152 3.488-2.784h-.832c-.32 1.264-1.392 2.048-2.72 2.048-1.808 0-2.944-1.376-2.976-3.264v-.144h6.624c0-.112.016-.24.016-.336-.08-2.416-1.568-3.824-3.744-3.824-2.224 0-3.744 1.696-3.744 4.096 0 2.544 1.584 4.208 3.888 4.208zm-2.976-4.832c.128-1.648 1.36-2.752 2.848-2.752 1.584 0 2.72.976 2.848 2.752h-5.696zm11.773 4.832c1.776 0 3.136-1.152 3.488-2.784h-.832c-.32 1.264-1.392 2.048-2.72 2.048-1.808 0-2.944-1.376-2.976-3.264v-.144h6.624c0-.112.016-.24.016-.336-.08-2.416-1.568-3.824-3.744-3.824-2.224 0-3.744 1.696-3.744 4.096 0 2.544 1.584 4.208 3.888 4.208zm-2.976-4.832c.128-1.648 1.36-2.752 2.848-2.752 1.584 0 2.72.976 2.848 2.752h-5.696zm17.429 4.832c2.4 0 4.096-1.296 4.576-3.552h-.912c-.48 1.792-1.776 2.752-3.68 2.752-2.592 0-4.224-2.032-4.224-4.896s1.664-4.896 4.256-4.896c1.872 0 3.184.976 3.68 2.736h.912c-.496-2.24-2.192-3.536-4.544-3.536-3.152 0-5.2 2.336-5.2 5.696 0 3.392 2 5.696 5.136 5.696zM43.449 34h.864v-5.168h4.832v-.8h-4.832V23.6h5.792v-.8h-6.656V34zm11.436 0c3.552 0 5.632-2.208 5.632-5.6 0-3.408-2.08-5.6-5.632-5.6H51.62V34h3.264zm-2.4-10.4h2.4c3.056 0 4.752 1.856 4.752 4.8 0 2.928-1.696 4.8-4.752 4.8h-2.4v-9.6zm14.677 8.512c0 1.296.528 1.888 1.904 1.888h1.184v-.752h-1.12c-.848 0-1.152-.32-1.152-1.152V26.64h2.192v-.752h-2.192v-2.272h-.816v2.272h-1.536v.752h1.536v5.472zm7.641-6.224c-1.504 0-2.144.72-2.48 1.616l-.128-1.616h-.704V34h.816v-4.112c0-1.648.432-3.216 2.336-3.216h.592v-.784h-.432zm8.434 7.36c-.48 0-.72-.16-.72-.784v-3.776c0-1.856-1.136-2.896-3.168-2.896-1.856 0-3.088.896-3.296 2.368h.816c.208-.992 1.072-1.648 2.448-1.648 1.52 0 2.384.8 2.384 2.144v.704h-2.752c-2.08 0-3.2.896-3.2 2.416 0 1.44 1.136 2.32 2.864 2.32 1.648 0 2.624-.752 3.12-1.76v.288C81.7 33.584 82.1 34 83.06 34h.48v-.752h-.304zM81.7 30.72c0 1.552-1.104 2.672-3.024 2.672-1.296 0-2.096-.656-2.096-1.664 0-1.072.8-1.664 2.304-1.664H81.7v.656zm9.43-3.008c-.496-1.152-1.584-1.92-3.104-1.92-2.224 0-3.824 1.696-3.824 4.144 0 2.56 1.6 4.16 3.824 4.16 1.52 0 2.576-.816 3.088-1.952L91.243 34h.704V22.8h-.816v4.912zm-3.04 5.648c-1.808 0-3.056-1.408-3.056-3.424 0-2 1.248-3.424 3.056-3.424s3.056 1.424 3.056 3.44c0 2-1.248 3.408-3.056 3.408zm6.191-9.184c.32 0 .576-.24.576-.576a.564.564 0 00-.576-.576c-.32 0-.576.24-.576.576 0 .336.256.576.576.576zM93.866 34h.816v-8.112h-.816V34zm6.479-8.208c-1.488 0-2.448.768-2.912 1.824l-.128-1.728H96.6V34h.816v-4c0-2.112 1.072-3.456 2.8-3.456 1.568 0 2.512 1.024 2.512 2.944V34h.816v-4.544c0-2.56-1.36-3.664-3.2-3.664zm11.614 1.984c-.496-1.2-1.584-1.984-3.088-1.984-2.224 0-3.824 1.68-3.824 4.144 0 2.56 1.6 4.16 3.824 4.16 1.52 0 2.592-.8 3.104-2.064v1.44c0 2.16-1.024 3.088-2.976 3.088-1.52 0-2.576-.688-2.832-1.92h-.848c.256 1.728 1.648 2.656 3.616 2.656 2.624 0 3.856-1.248 3.856-3.792v-7.616h-.704l-.128 1.888zm-3.024 5.584c-1.808 0-3.056-1.408-3.056-3.424s1.248-3.424 3.056-3.424 3.056 1.408 3.056 3.44c0 2-1.248 3.408-3.056 3.408zM4.544 56.096c2.288 0 3.904-1.696 3.904-4.16 0-2.448-1.616-4.144-3.904-4.144S.656 49.488.656 51.936c0 2.464 1.6 4.16 3.888 4.16zm0-.736c-1.808 0-3.056-1.408-3.056-3.424 0-2 1.248-3.424 3.056-3.424S7.6 49.936 7.6 51.936c0 2.016-1.248 3.424-3.056 3.424zm9.27-7.568c-1.489 0-2.449.768-2.913 1.824l-.128-1.728h-.704V56h.816v-4c0-2.112 1.072-3.456 2.8-3.456 1.568 0 2.512 1.024 2.512 2.944V56h.816v-4.544c0-2.56-1.36-3.664-3.2-3.664zm9.462 3.584c0 3.12 1.328 4.72 4.08 4.72 2.768 0 4.112-1.6 4.112-4.72V44.8h-.864v6.624c0 2.576-.992 3.872-3.248 3.872-2.224 0-3.216-1.296-3.216-3.872V44.8h-.864v6.576zm10.038 1.184c.112 2.112 1.648 3.536 4.16 3.536 2.352 0 3.904-1.28 3.904-3.168 0-2.128-1.888-2.672-3.744-2.992-1.712-.288-3.2-.576-3.2-2.176 0-1.456 1.136-2.272 2.896-2.272 1.68 0 2.832.944 3.024 2.4h.88c-.16-1.92-1.616-3.184-3.904-3.184-2.272 0-3.76 1.2-3.76 3.104 0 2.128 1.824 2.608 3.616 2.912 1.76.304 3.328.656 3.328 2.288 0 1.44-1.216 2.304-3.024 2.304-1.888 0-3.168-1.088-3.28-2.752h-.896zm13.715.944c.064 1.68 1.424 2.592 3.456 2.592 1.745 0 3.153-.88 3.153-2.32 0-1.712-1.505-2.048-3.248-2.288-1.264-.176-2.385-.32-2.385-1.456 0-.928.912-1.536 2.288-1.536 1.297 0 2.224.624 2.368 1.68h.832c-.144-1.584-1.44-2.384-3.2-2.384-1.807-.016-3.103.912-3.103 2.304 0 1.632 1.504 1.936 3.168 2.16 1.36.192 2.464.368 2.464 1.568 0 .96-1.009 1.568-2.337 1.568-1.551 0-2.56-.72-2.623-1.888h-.833zm11.91-5.712c-1.52 0-2.465.848-2.929 2.016V44.8h-.816V56h.816v-4c0-2.112 1.072-3.456 2.8-3.456 1.552 0 2.512 1.024 2.512 2.944V56h.816v-4.544c0-2.56-1.36-3.664-3.2-3.664zm12.157 7.456c-.48 0-.72-.16-.72-.784v-3.776c0-1.856-1.136-2.896-3.168-2.896-1.856 0-3.088.896-3.296 2.368h.816c.208-.992 1.072-1.648 2.448-1.648 1.52 0 2.384.8 2.384 2.144v.704h-2.752c-2.08 0-3.2.896-3.2 2.416 0 1.44 1.136 2.32 2.864 2.32 1.648 0 2.624-.752 3.12-1.76v.288c-.032.96.368 1.376 1.328 1.376h.48v-.752h-.304zM69.56 52.72c0 1.552-1.104 2.672-3.024 2.672-1.296 0-2.096-.656-2.096-1.664 0-1.072.8-1.664 2.304-1.664h2.816v.656zm6.243-4.832c-1.504 0-2.144.72-2.48 1.616l-.128-1.616h-.704V56h.816v-4.112c0-1.648.432-3.216 2.336-3.216h.592v-.784h-.432zm4.647 8.208c1.776 0 3.136-1.152 3.488-2.784h-.832c-.32 1.264-1.392 2.048-2.72 2.048-1.808 0-2.944-1.376-2.976-3.264v-.144h6.624c0-.112.016-.24.016-.336-.08-2.416-1.568-3.824-3.744-3.824-2.224 0-3.744 1.696-3.744 4.096 0 2.544 1.584 4.208 3.888 4.208zm-2.976-4.832c.128-1.648 1.36-2.752 2.848-2.752 1.584 0 2.72.976 2.848 2.752h-5.696zm7.805 2.24c.065 1.68 1.425 2.592 3.457 2.592 1.743 0 3.151-.88 3.151-2.32 0-1.712-1.504-2.048-3.248-2.288-1.263-.176-2.383-.32-2.383-1.456 0-.928.912-1.536 2.287-1.536 1.296 0 2.224.624 2.368 1.68h.832c-.143-1.584-1.44-2.384-3.2-2.384-1.808-.016-3.104.912-3.104 2.304 0 1.632 1.505 1.936 3.169 2.16 1.36.192 2.463.368 2.463 1.568 0 .96-1.007 1.568-2.335 1.568-1.553 0-2.56-.72-2.624-1.888h-.832z" fill="#000"/></svg>