<svg width="121" height="51" viewBox="0 0 121 51" fill="none" xmlns="http://www.w3.org/2000/svg"><path d="M1.25 12h7.912v-1.721H3.19V6.854h4.758v-1.67H3.19V1.912h5.77V.19H1.25V12zm8.426 0h2.008l2.277-3.138L16.221 12h2.126l-3.255-4.42 3.07-4.218h-2.008l-2.108 2.919-2.058-2.919H9.862l3.053 4.218L9.676 12zm10.3-2.345c0 1.569.708 2.345 2.361 2.345h1.687v-1.603h-1.282c-.692 0-.928-.253-.928-.928V4.965h2.109V3.362h-2.109V.95h-1.838v2.412h-1.502v1.603h1.502v4.69zM29.1 12.1c2.143 0 3.594-1.3 3.897-3.003h-1.822c-.253.962-1.063 1.518-2.176 1.518-1.434 0-2.362-.961-2.412-2.429v-.118h6.511c.034-.236.051-.472.051-.692-.05-2.53-1.72-4.116-4.217-4.116-2.548 0-4.252 1.771-4.252 4.437 0 2.648 1.704 4.403 4.42 4.403zm-2.446-5.365c.135-1.231 1.13-2.007 2.294-2.007 1.266 0 2.16.725 2.312 2.007h-4.606zm12.523-3.475c-1.4 0-2.227.557-2.767 1.232l-.202-1.13h-1.586V12h1.822V7.647c0-1.754.86-2.817 2.311-2.817 1.367 0 2.058.877 2.058 2.514V12h1.839V7.192c0-2.885-1.569-3.93-3.475-3.93zm11.628 1.3c-.556-.76-1.484-1.3-2.8-1.3-2.345 0-4.083 1.755-4.083 4.42 0 2.767 1.738 4.42 4.083 4.42 1.366 0 2.26-.641 2.817-1.4l.22 1.299h1.585V.19h-1.822v4.37zm-2.496 6.005c-1.519 0-2.514-1.181-2.514-2.885 0-1.687.995-2.868 2.514-2.868 1.518 0 2.513 1.181 2.513 2.902 0 1.67-.995 2.85-2.513 2.85zM58.508 12.1c2.142 0 3.593-1.3 3.897-3.003h-1.822c-.253.962-1.063 1.518-2.176 1.518-1.434 0-2.362-.961-2.413-2.429v-.118h6.512c.034-.236.05-.472.05-.692-.05-2.53-1.72-4.116-4.217-4.116-2.547 0-4.25 1.771-4.25 4.437 0 2.648 1.703 4.403 4.419 4.403zm-2.446-5.365c.135-1.231 1.13-2.007 2.294-2.007 1.265 0 2.16.725 2.311 2.007h-4.605zm14.53-2.176c-.557-.76-1.485-1.299-2.8-1.299-2.345 0-4.083 1.755-4.083 4.42 0 2.767 1.738 4.42 4.083 4.42 1.366 0 2.26-.641 2.817-1.4l.22 1.299h1.585V.19h-1.822v4.37zm-2.497 6.006c-1.518 0-2.513-1.181-2.513-2.885 0-1.687.995-2.868 2.513-2.868 1.519 0 2.514 1.181 2.514 2.902 0 1.67-.995 2.85-2.514 2.85zM83.05 3.26c-1.35 0-2.177.607-2.717 1.35V.19h-1.821V12h1.822V7.63c0-1.737.877-2.8 2.31-2.8 1.35 0 2.076.877 2.076 2.514V12h1.822V7.192c0-2.885-1.57-3.93-3.492-3.93zm9.165 8.84c2.632 0 4.403-1.772 4.403-4.42 0-2.632-1.771-4.42-4.403-4.42-2.632 0-4.403 1.788-4.403 4.42 0 2.648 1.771 4.42 4.403 4.42zm0-1.552c-1.535 0-2.53-1.198-2.53-2.868s.995-2.868 2.53-2.868c1.535 0 2.547 1.198 2.547 2.868s-1.012 2.868-2.547 2.868zm11.789-2.868c0 1.788-.843 2.834-2.226 2.834-1.333 0-2.008-.86-2.008-2.547V3.362h-1.822V8.17c0 2.952 1.569 3.93 3.408 3.93 1.332 0 2.125-.539 2.665-1.197l.203 1.097h1.602V3.362h-1.822v4.319zm7.987-4.319c-1.417 0-2.109.574-2.547 1.3l-.203-1.3h-1.619V12h1.822V7.664c0-1.333.523-2.598 2.142-2.598h.81V3.362h-.405zm1.009 5.787c.051 1.872 1.636 2.952 3.948 2.952 2.091 0 3.66-1.046 3.66-2.7 0-1.922-1.602-2.327-3.576-2.564-1.248-.134-2.075-.236-2.075-1.045 0-.692.709-1.13 1.788-1.13 1.08 0 1.822.556 1.923 1.349h1.789c-.119-1.771-1.62-2.75-3.746-2.75-2.075-.017-3.542 1.046-3.542 2.682 0 1.789 1.552 2.21 3.526 2.446 1.332.17 2.125.237 2.125 1.165 0 .691-.742 1.13-1.872 1.13-1.316 0-2.092-.641-2.16-1.535h-1.788zM1.689 28.655c0 1.569.709 2.345 2.362 2.345h1.687v-1.603H4.456c-.692 0-.928-.253-.928-.928v-4.504h2.108v-1.603H3.528V19.95H1.689v2.412H.188v1.603h1.501v4.69zm9.577-6.293c-1.417 0-2.109.574-2.547 1.3l-.203-1.3h-1.62V31H8.72v-4.336c0-1.333.523-2.598 2.142-2.598h.81v-1.704h-.405zm9.16 7.052c-.371 0-.557-.118-.557-.557V25.4c0-2.041-1.316-3.138-3.61-3.138-2.176 0-3.627 1.046-3.812 2.733h1.788c.135-.76.86-1.265 1.94-1.265 1.197 0 1.89.59 1.89 1.552v.523h-2.177c-2.412 0-3.694.995-3.694 2.766 0 1.603 1.315 2.53 3.205 2.53 1.4 0 2.277-.607 2.85-1.484 0 .86.406 1.384 1.587 1.384h.961v-1.586h-.371zm-2.362-1.957c-.017 1.333-.894 2.227-2.412 2.227-.995 0-1.603-.506-1.603-1.232 0-.877.624-1.299 1.755-1.299h2.26v.304zm10.222-3.897c-.557-.76-1.485-1.299-2.8-1.299-2.345 0-4.083 1.755-4.083 4.42 0 2.767 1.738 4.42 4.082 4.42 1.367 0 2.261-.641 2.818-1.4l.22 1.299h1.585V19.19h-1.822v4.37zm-2.497 6.006c-1.518 0-2.513-1.181-2.513-2.885 0-1.687.995-2.868 2.513-2.868 1.518 0 2.514 1.181 2.514 2.902 0 1.67-.995 2.85-2.514 2.85zm7.027-8.418c.624 0 1.113-.456 1.113-1.097 0-.64-.489-1.096-1.113-1.096s-1.113.455-1.113 1.096.489 1.097 1.113 1.097zM31.888 31h1.822v-8.638h-1.822V31zm8.163-8.739c-1.4 0-2.227.557-2.767 1.232l-.202-1.13h-1.586V31h1.822v-4.353c0-1.754.86-2.817 2.311-2.817 1.367 0 2.058.877 2.058 2.514V31h1.84v-4.808c0-2.885-1.57-3.93-3.476-3.93zm11.728 1.45c-.557-.86-1.484-1.45-2.834-1.45-2.345 0-4.083 1.738-4.083 4.386 0 2.75 1.738 4.386 4.083 4.386 1.35 0 2.244-.556 2.817-1.417v.962c0 1.653-.894 2.412-2.48 2.412-1.282 0-2.125-.556-2.344-1.518h-1.856c.169 1.94 1.771 3.003 4.065 3.003 3.104 0 4.42-1.485 4.42-3.83v-8.283h-1.586l-.202 1.35zm-2.53 5.787c-1.519 0-2.514-1.164-2.514-2.85 0-1.67.995-2.852 2.514-2.852 1.518 0 2.513 1.181 2.513 2.885 0 1.653-.995 2.817-2.513 2.817zm14.542 1.603c2.413 0 4.117-1.788 4.117-4.386 0-2.581-1.704-4.37-4.117-4.37-2.412 0-4.099 1.789-4.099 4.37 0 2.598 1.687 4.386 4.1 4.386zm0-.776c-1.906 0-3.222-1.485-3.222-3.61 0-2.109 1.316-3.61 3.222-3.61 1.907 0 3.223 1.501 3.223 3.61 0 2.125-1.316 3.61-3.222 3.61zm9.774-7.98c-1.57 0-2.581.81-3.07 1.924l-.136-1.822h-.742V31h.86v-4.218c0-2.227 1.13-3.644 2.953-3.644 1.653 0 2.648 1.08 2.648 3.104V31h.86v-4.791c0-2.7-1.433-3.864-3.373-3.864zm8.914-2.344h7.136L83.625 31h.963l5.988-11.168v-.641H82.48V20zm8.83 5.364c0 3.458 1.704 5.736 4.268 5.736 2.53 0 4.251-2.278 4.251-5.736v-.54c0-3.357-1.72-5.735-4.25-5.735-2.565 0-4.269 2.378-4.269 5.735v.54zm7.625-.034c0 3.003-1.332 4.96-3.357 4.96-2.041 0-3.374-1.957-3.374-4.96v-.472c0-3.003 1.333-4.96 3.374-4.96 2.025 0 3.357 1.957 3.357 4.96v.472zm5.746.456h-2.935v.725h2.935V29.6h.793v-3.087h2.952v-.725h-2.952V22.7h-.793v3.087zM1.335 45.124c0 3.29 1.4 4.977 4.301 4.977 2.919 0 4.336-1.687 4.336-4.977v-6.933h-.91v6.984c0 2.716-1.047 4.082-3.425 4.082-2.345 0-3.391-1.366-3.391-4.082V38.19h-.911v6.933zm10.584 1.249c.118 2.226 1.737 3.728 4.386 3.728 2.48 0 4.116-1.35 4.116-3.34 0-2.244-1.99-2.818-3.948-3.155-1.805-.304-3.373-.607-3.373-2.294 0-1.535 1.197-2.396 3.053-2.396 1.771 0 2.986.995 3.188 2.53h.928c-.169-2.024-1.704-3.356-4.116-3.356-2.396 0-3.964 1.265-3.964 3.272 0 2.244 1.923 2.75 3.812 3.07 1.856.321 3.509.692 3.509 2.413 0 1.518-1.282 2.43-3.188 2.43-1.991 0-3.34-1.148-3.459-2.902h-.944zm14.46.995c.068 1.771 1.502 2.733 3.644 2.733 1.84 0 3.324-.928 3.324-2.446 0-1.805-1.586-2.16-3.425-2.413-1.333-.185-2.513-.337-2.513-1.535 0-.978.961-1.62 2.412-1.62 1.366 0 2.345.659 2.497 1.772h.877c-.152-1.67-1.518-2.514-3.374-2.514-1.906-.016-3.273.962-3.273 2.43 0 1.72 1.586 2.04 3.34 2.277 1.434.203 2.598.388 2.598 1.653 0 1.013-1.062 1.654-2.463 1.654-1.636 0-2.699-.76-2.766-1.991h-.878zm9.25.641c0 1.366.557 1.99 2.008 1.99h1.248v-.792h-1.18c-.895 0-1.215-.338-1.215-1.215V42.24h2.31v-.793h-2.31V39.05h-.86v2.396h-1.62v.792h1.62v5.77zm8.08 2.092c2.413 0 4.116-1.788 4.116-4.386 0-2.581-1.703-4.37-4.116-4.37-2.412 0-4.099 1.789-4.099 4.37 0 2.598 1.687 4.386 4.1 4.386zm0-.776c-1.906 0-3.222-1.485-3.222-3.61 0-2.109 1.316-3.61 3.222-3.61 1.907 0 3.222 1.501 3.222 3.61 0 2.125-1.315 3.61-3.222 3.61zm9.554.776c1.94 0 3.307-1.114 3.644-2.851h-.91c-.288 1.265-1.317 2.075-2.734 2.075-1.872 0-3.171-1.468-3.171-3.593 0-2.126 1.282-3.627 3.171-3.627 1.434 0 2.446.81 2.75 2.091h.894c-.354-1.77-1.687-2.85-3.627-2.85-2.412 0-4.066 1.788-4.066 4.386 0 2.631 1.637 4.369 4.05 4.369zM58.58 50h.86v-2.312l2.008-2.058L64.72 50h1.046l-3.728-4.994 3.441-3.56h-1.063l-4.976 5.13V38.19h-.86V50zm7.734-2.632c.068 1.771 1.502 2.733 3.644 2.733 1.839 0 3.323-.928 3.323-2.446 0-1.805-1.585-2.16-3.424-2.413-1.333-.185-2.514-.337-2.514-1.535 0-.978.962-1.62 2.413-1.62 1.366 0 2.345.659 2.496 1.772h.878c-.152-1.67-1.519-2.514-3.374-2.514-1.907-.016-3.273.962-3.273 2.43 0 1.72 1.586 2.04 3.34 2.277 1.434.203 2.598.388 2.598 1.653 0 1.013-1.063 1.654-2.463 1.654-1.636 0-2.699-.76-2.766-1.991h-.878z" fill="#000"/></svg>