<svg width="176" height="70" viewBox="0 0 176 70" fill="none" xmlns="http://www.w3.org/2000/svg"><path d="M47.406 21.55V.007h-7.628v28.402h21.545V21.55H47.406zm25.398 6.858V.047h-7.628v28.36h7.628zm24.63 0L108.308.006h-9.13l-6.734 19.435L85.83.006h-9.129l10.752 28.402h9.981zm37.983-21.545V.006h-23.249v28.402h23.492V21.55h-15.864v-4.26h14.525v-6.492h-14.525V6.863h15.621zM7.942 69.408V41.047H.314v28.36h7.628zm32.42 0V41.006h-7.506V56.87L21.414 41.006h-7.911v28.402h7.506V53.584L32.45 69.408h7.912zM57.483 40.6c-6.613.041-11.807 2.922-11.807 9.292 0 5.558 4.625 7.06 11.077 8.601 4.666 1.177 5.477 1.34 5.477 2.962 0 1.299-1.38 1.867-2.962 1.867-3.61 0-7.709-1.055-11.4-3.125l-3.41 5.68c3.896 2.597 8.684 3.977 13.958 3.977 7.303 0 11.888-3.327 11.888-9.373 0-5.802-4.747-7.425-11.4-9.21-4.423-1.095-4.95-1.46-4.95-2.353 0-1.298 1.257-1.866 2.718-1.866 2.8 0 6.613.973 9.859 2.637l3.205-5.883C66.41 41.777 62.027 40.6 57.483 40.6zm24.83 28.808V41.047h-7.627v28.36h7.627zM103.05 40.6c-8.075-.04-15.702 5.275-15.702 14.647 0 8.034 6.816 14.566 15.215 14.566 4.787 0 9.21-1.582 12.618-4.3V53.097h-12.131v5.437h4.868v2.718c-1.541.893-3.327 1.42-5.355 1.42-4.26 0-7.222-3.327-7.222-7.425 0-4.747 3.61-7.587 7.709-7.587 2.19 0 4.422.771 6.207 2.313l4.991-5.234c-3.165-2.718-7.182-4.098-11.198-4.139zm44.537 28.808V41.006h-7.668v10.712h-11.563V41.006h-7.628v28.402h7.628V58.574h11.563v10.834h7.668zm28.024-21.87v-6.532h-24.141v6.532h8.236v21.87h7.669v-21.87h8.236z" fill="#09B45B"/></svg>