<svg width="129" height="25" viewBox="0 0 129 25" fill="none" xmlns="http://www.w3.org/2000/svg"><rect y=".5" width="129" height="24" rx="12" fill="#000"/><path d="M14.504 16.5c2.628 0 4.224-1.692 4.224-4.2 0-2.52-1.596-4.2-4.224-4.2h-2.688v8.4h2.688zM12.86 9.06h1.644c2.04 0 3.156 1.272 3.156 3.24 0 1.956-1.116 3.24-3.156 3.24H12.86V9.06zm7.543.288c.36 0 .636-.264.636-.636a.618.618 0 00-.636-.636.618.618 0 00-.636.636c0 .372.276.636.636.636zm-.504 7.152h.984v-6.12h-.984v6.12zm2.08-2.016c.024 1.344 1.116 2.088 2.7 2.088 1.356 0 2.448-.708 2.448-1.848 0-1.356-1.116-1.62-2.508-1.788-.888-.108-1.536-.192-1.536-.864 0-.564.576-.924 1.428-.924.84 0 1.416.468 1.488 1.092h1.008c-.096-1.272-1.104-1.92-2.496-1.932-1.38-.012-2.4.72-2.4 1.836 0 1.272 1.092 1.548 2.46 1.716.912.108 1.584.168 1.584.936 0 .564-.612.936-1.476.936-1.02 0-1.656-.528-1.692-1.248h-1.008zm8.988 2.088c1.488 0 2.484-.84 2.724-2.16h-1.044c-.192.78-.792 1.284-1.668 1.284-1.176 0-1.968-.912-1.968-2.244 0-1.332.792-2.268 1.968-2.268.9 0 1.5.492 1.68 1.308h1.032c-.252-1.344-1.2-2.184-2.7-2.184-1.776 0-2.988 1.272-2.988 3.144 0 1.908 1.176 3.12 2.964 3.12zm6.623 0c1.788 0 3.036-1.272 3.036-3.132s-1.248-3.132-3.036-3.132-3.036 1.272-3.036 3.132 1.248 3.132 3.036 3.132zm0-.876c-1.212 0-2.028-.948-2.028-2.256 0-1.308.816-2.256 2.028-2.256 1.212 0 2.028.948 2.028 2.256 0 1.308-.816 2.256-2.028 2.256zm5.574.804h1.188l2.293-6.12h-1.033l-1.836 5.004-1.848-5.004h-1.055l2.291 6.12zm6.765.072c1.416 0 2.424-.9 2.664-2.124h-.996c-.203.792-.876 1.248-1.74 1.248-1.163 0-1.895-.816-1.931-1.98v-.084h4.752c.012-.144.024-.288.024-.42-.048-1.812-1.176-2.904-2.904-2.904-1.729 0-2.904 1.272-2.904 3.132 0 1.872 1.2 3.132 3.035 3.132zm-1.944-3.756c.096-.996.925-1.644 1.825-1.644 1.02 0 1.74.588 1.835 1.644h-3.66zm8.671-2.436c-1.092 0-1.56.456-1.848.924l-.132-.924h-.852v6.12h.984v-3.12c0-.972.348-2.04 1.632-2.04h.492v-.96h-.276zm4.414 6.12h1.044v-2.184l1.668-1.884 2.832 4.068h1.248l-3.312-4.86 3.072-3.54H66.35l-4.236 4.764V8.1H61.07v8.4zm10.508-6.192c-1.032 0-1.656.432-2.016.9l-.132-.828h-.852v6.12h.984v-3.06c0-1.38.696-2.232 1.848-2.232 1.068 0 1.656.672 1.656 1.944V16.5h.984v-3.408c0-2.028-1.092-2.784-2.472-2.784zm6.477 6.264c1.787 0 3.035-1.272 3.035-3.132s-1.248-3.132-3.035-3.132c-1.789 0-3.037 1.272-3.037 3.132s1.248 3.132 3.037 3.132zm0-.876c-1.213 0-2.029-.948-2.029-2.256 0-1.308.817-2.256 2.029-2.256 1.211 0 2.027.948 2.027 2.256 0 1.308-.816 2.256-2.027 2.256zm6.912.876c1.488 0 2.484-.84 2.724-2.16h-1.044c-.192.78-.792 1.284-1.668 1.284-1.176 0-1.968-.912-1.968-2.244 0-1.332.792-2.268 1.968-2.268.9 0 1.5.492 1.68 1.308h1.032c-.252-1.344-1.2-2.184-2.7-2.184-1.776 0-2.988 1.272-2.988 3.144 0 1.908 1.176 3.12 2.964 3.12zm3.803-.072h.984v-1.608l1.236-1.272 2.028 2.88h1.188l-2.556-3.588 2.388-2.532h-1.212l-3.072 3.252V8.1h-.984v8.4zm8.597.072c1.788 0 3.036-1.272 3.036-3.132s-1.248-3.132-3.036-3.132-3.036 1.272-3.036 3.132 1.248 3.132 3.036 3.132zm0-.876c-1.212 0-2.028-.948-2.028-2.256 0-1.308.816-2.256 2.028-2.256 1.212 0 2.028.948 2.028 2.256 0 1.308-.816 2.256-2.028 2.256zm8.448-2.256c0 1.38-.672 2.232-1.788 2.232-1.02 0-1.596-.672-1.596-1.944V10.38h-.984v3.408c0 2.028 1.068 2.784 2.412 2.784 1.008 0 1.596-.432 1.956-.888l.132.816h.852v-6.12h-.984v3.06zm2.805 1.464c0 1.08.42 1.596 1.596 1.596h1.068v-.9h-.972c-.528 0-.708-.192-.708-.708V11.28h1.584v-.9h-1.584V8.664h-.984v1.716h-1.104v.9h1.104v3.624zm3.265-.42c.024 1.344 1.116 2.088 2.7 2.088 1.356 0 2.448-.708 2.448-1.848 0-1.356-1.116-1.62-2.508-1.788-.888-.108-1.536-.192-1.536-.864 0-.564.576-.924 1.428-.924.84 0 1.416.468 1.488 1.092h1.008c-.096-1.272-1.104-1.92-2.496-1.932-1.38-.012-2.4.72-2.4 1.836 0 1.272 1.092 1.548 2.46 1.716.912.108 1.584.168 1.584.936 0 .564-.612.936-1.476.936-1.02 0-1.656-.528-1.692-1.248h-1.008z" fill="#fff"/></svg>