<svg width="257" height="13" viewBox="0 0 257 13" fill="none" xmlns="http://www.w3.org/2000/svg"><path d="M.936 10h.702V.9H.936V10zm5.463-6.669c-1.209 0-1.989.624-2.366 1.482L3.93 3.409h-.572V10h.663V6.75c0-1.716.871-2.808 2.275-2.808 1.274 0 2.041.832 2.041 2.392V10H9V6.308c0-2.08-1.105-2.977-2.6-2.977zm6.839 6.747c1.495 0 2.548-.858 2.808-2.197h-.702c-.221.975-1.014 1.599-2.106 1.599-1.443 0-2.444-1.131-2.444-2.769 0-1.638.988-2.795 2.444-2.795 1.105 0 1.885.624 2.119 1.612h.689c-.273-1.365-1.3-2.197-2.795-2.197-1.859 0-3.133 1.378-3.133 3.38 0 2.028 1.261 3.367 3.12 3.367zm6.788-6.669c-1.222 0-1.742.585-2.015 1.313l-.104-1.313h-.572V10h.663V6.659c0-1.339.35-2.613 1.898-2.613h.48v-.637h-.35zm3.775 6.669c1.443 0 2.548-.936 2.834-2.262h-.676c-.26 1.027-1.13 1.664-2.21 1.664-1.469 0-2.392-1.118-2.418-2.652v-.117h5.382c0-.091.013-.195.013-.273-.065-1.963-1.274-3.107-3.042-3.107-1.807 0-3.042 1.378-3.042 3.328 0 2.067 1.287 3.419 3.16 3.419zm-2.418-3.926c.104-1.339 1.105-2.236 2.314-2.236 1.287 0 2.21.793 2.314 2.236h-4.628zm12.452 3.237c-.39 0-.585-.13-.585-.637V5.684c0-1.508-.923-2.353-2.574-2.353-1.508 0-2.51.728-2.678 1.924h.663c.169-.806.87-1.339 1.989-1.339 1.235 0 1.937.65 1.937 1.742v.572H30.35c-1.69 0-2.6.728-2.6 1.963 0 1.17.923 1.885 2.327 1.885 1.339 0 2.132-.611 2.535-1.43v.234c-.026.78.299 1.118 1.079 1.118h.39v-.611h-.247zm-1.248-2.054c0 1.261-.897 2.171-2.457 2.171-1.053 0-1.703-.533-1.703-1.352 0-.871.65-1.352 1.872-1.352h2.288v.533zm2.082.637c.053 1.365 1.158 2.106 2.809 2.106 1.416 0 2.56-.715 2.56-1.885 0-1.391-1.221-1.664-2.638-1.859-1.027-.143-1.938-.26-1.938-1.183 0-.754.741-1.248 1.86-1.248 1.052 0 1.806.507 1.923 1.365h.677c-.117-1.287-1.17-1.937-2.6-1.937-1.47-.013-2.523.741-2.523 1.872 0 1.326 1.223 1.573 2.575 1.755 1.104.156 2.002.299 2.002 1.274 0 .78-.82 1.274-1.898 1.274-1.261 0-2.08-.585-2.133-1.534h-.675zm9.546 2.106c1.443 0 2.548-.936 2.834-2.262h-.676c-.26 1.027-1.13 1.664-2.21 1.664-1.469 0-2.392-1.118-2.418-2.652v-.117h5.382c0-.091.013-.195.013-.273-.065-1.963-1.274-3.107-3.042-3.107-1.807 0-3.042 1.378-3.042 3.328 0 2.067 1.287 3.419 3.16 3.419zm-2.418-3.926c.104-1.339 1.105-2.236 2.314-2.236 1.287 0 2.21.793 2.314 2.236h-4.628zM51.955 10h.663V.9h-.663V10zm5.134.078c1.443 0 2.547-.936 2.834-2.262h-.677c-.26 1.027-1.13 1.664-2.21 1.664-1.468 0-2.392-1.118-2.418-2.652v-.117h5.383c0-.091.013-.195.013-.273-.066-1.963-1.275-3.107-3.043-3.107-1.806 0-3.041 1.378-3.041 3.328 0 2.067 1.287 3.419 3.159 3.419zM54.67 6.152c.105-1.339 1.105-2.236 2.314-2.236 1.288 0 2.21.793 2.314 2.236H54.67zM62.956 10h.793l2.574-6.591h-.69l-2.261 5.824-2.275-5.824h-.715L62.956 10zm6.904.078c1.443 0 2.548-.936 2.834-2.262h-.676c-.26 1.027-1.131 1.664-2.21 1.664-1.469 0-2.392-1.118-2.418-2.652v-.117h5.382c0-.091.013-.195.013-.273-.065-1.963-1.274-3.107-3.042-3.107-1.807 0-3.042 1.378-3.042 3.328 0 2.067 1.287 3.419 3.159 3.419zm-2.418-3.926c.104-1.339 1.105-2.236 2.314-2.236 1.287 0 2.21.793 2.314 2.236h-4.628zm9.344-2.743c-1.222 0-1.742.585-2.015 1.313l-.104-1.313h-.572V10h.663V6.659c0-1.339.351-2.613 1.898-2.613h.481v-.637h-.35zm6.852 5.98c-.39 0-.585-.13-.585-.637V5.684c0-1.508-.922-2.353-2.573-2.353-1.508 0-2.51.728-2.678 1.924h.662c.17-.806.871-1.339 1.99-1.339 1.235 0 1.937.65 1.937 1.742v.572h-2.237c-1.69 0-2.6.728-2.6 1.963 0 1.17.924 1.885 2.328 1.885 1.338 0 2.131-.611 2.534-1.43v.234c-.025.78.3 1.118 1.08 1.118h.39v-.611h-.248zM82.39 7.335c0 1.261-.897 2.171-2.457 2.171-1.053 0-1.703-.533-1.703-1.352 0-.871.65-1.352 1.873-1.352h2.288v.533zm7.751-2.392c-.403-.975-1.287-1.612-2.509-1.612-1.807 0-3.107 1.365-3.107 3.367 0 2.08 1.3 3.38 3.107 3.38 1.235 0 2.106-.65 2.522-1.677v1.17c0 1.755-.832 2.509-2.418 2.509-1.235 0-2.093-.559-2.3-1.56h-.69c.208 1.404 1.34 2.158 2.938 2.158 2.132 0 3.133-1.014 3.133-3.081V3.409h-.572l-.104 1.534zM87.684 9.48c-1.469 0-2.483-1.144-2.483-2.782 0-1.638 1.014-2.782 2.483-2.782 1.47 0 2.483 1.144 2.483 2.795 0 1.625-1.014 2.769-2.483 2.769zm7.605.598c1.443 0 2.548-.936 2.834-2.262h-.676c-.26 1.027-1.131 1.664-2.21 1.664-1.47 0-2.392-1.118-2.418-2.652v-.117H98.2c0-.091.013-.195.013-.273-.065-1.963-1.274-3.107-3.042-3.107-1.807 0-3.042 1.378-3.042 3.328 0 2.067 1.287 3.419 3.159 3.419zM92.87 6.152c.104-1.339 1.105-2.236 2.314-2.236 1.287 0 2.21.793 2.314 2.236H92.87zm6.105 3.419a.47.47 0 00.494.494.47.47 0 00.494-.494c0-.299-.208-.481-.494-.481-.286 0-.494.182-.494.481zm11.182.429v-.65h-4.355V.9h-.702V10h5.057zm3.539.078c1.859 0 3.172-1.378 3.172-3.38 0-1.989-1.313-3.367-3.172-3.367-1.859 0-3.159 1.378-3.159 3.367 0 2.002 1.3 3.38 3.159 3.38zm0-.598c-1.469 0-2.483-1.144-2.483-2.782 0-1.625 1.014-2.782 2.483-2.782s2.483 1.157 2.483 2.782c0 1.638-1.014 2.782-2.483 2.782zm5.885.52h.715l1.95-5.538L124.106 10h.715l2.34-6.591h-.676l-2.028 5.798-1.885-5.798h-.611l-1.989 5.798-1.924-5.798h-.702L119.582 10zm11.215.078c1.443 0 2.548-.936 2.834-2.262h-.676c-.26 1.027-1.131 1.664-2.21 1.664-1.469 0-2.392-1.118-2.418-2.652v-.117h5.382c0-.091.013-.195.013-.273-.065-1.963-1.274-3.107-3.042-3.107-1.807 0-3.042 1.378-3.042 3.328 0 2.067 1.287 3.419 3.159 3.419zm-2.418-3.926c.104-1.339 1.105-2.236 2.314-2.236 1.287 0 2.21.793 2.314 2.236h-4.628zm9.345-2.743c-1.222 0-1.742.585-2.015 1.313l-.104-1.313h-.572V10h.663V6.659c0-1.339.351-2.613 1.898-2.613h.481v-.637h-.351zm7.528 0c-1.222 0-1.742.585-2.015 1.313l-.104-1.313h-.572V10h.663V6.659c0-1.339.351-2.613 1.898-2.613h.481v-.637h-.351zm1.672-1.391c.26 0 .468-.195.468-.468a.458.458 0 00-.468-.468.458.458 0 00-.468.468c0 .273.208.468.468.468zM146.586 10h.663V3.409h-.663V10zm1.922-2.028c.052 1.365 1.157 2.106 2.808 2.106 1.417 0 2.561-.715 2.561-1.885 0-1.391-1.222-1.664-2.639-1.859-1.027-.143-1.937-.26-1.937-1.183 0-.754.741-1.248 1.859-1.248 1.053 0 1.807.507 1.924 1.365h.676c-.117-1.287-1.17-1.937-2.6-1.937-1.469-.013-2.522.741-2.522 1.872 0 1.326 1.222 1.573 2.574 1.755 1.105.156 2.002.299 2.002 1.274 0 .78-.819 1.274-1.898 1.274-1.261 0-2.08-.585-2.132-1.534h-.676zM155.142 10h.663V8.219l1.547-1.586L159.874 10h.806l-2.873-3.848 2.652-2.743h-.819l-3.835 3.952V.9h-.663V10zm6.321-.429a.47.47 0 00.494.494.47.47 0 00.494-.494c0-.299-.208-.481-.494-.481-.286 0-.494.182-.494.481zm5.786-2.366c.091 1.716 1.339 2.873 3.38 2.873 1.911 0 3.172-1.04 3.172-2.574 0-1.729-1.534-2.171-3.042-2.431-1.391-.234-2.6-.468-2.6-1.768 0-1.183.923-1.846 2.353-1.846 1.365 0 2.301.767 2.457 1.95h.715c-.13-1.56-1.313-2.587-3.172-2.587-1.846 0-3.055.975-3.055 2.522 0 1.729 1.482 2.119 2.938 2.366 1.43.247 2.704.533 2.704 1.859 0 1.17-.988 1.872-2.457 1.872-1.534 0-2.574-.884-2.665-2.236h-.728zm15.297-3.874c-1.209 0-1.989.676-2.366 1.651-.312-1.092-1.131-1.651-2.171-1.651-1.131 0-1.807.663-2.145 1.482l-.104-1.404h-.572V10h.663V6.646c0-1.612.78-2.704 2.041-2.704 1.144 0 1.859.806 1.859 2.327V10h.663V6.412c.039-1.508.819-2.47 2.054-2.47 1.144 0 1.833.767 1.833 2.262V10h.676V6.178c0-1.989-1.053-2.847-2.431-2.847zm9.701 6.058c-.39 0-.585-.13-.585-.637V5.684c0-1.508-.923-2.353-2.574-2.353-1.508 0-2.509.728-2.678 1.924h.663c.169-.806.871-1.339 1.989-1.339 1.235 0 1.937.65 1.937 1.742v.572h-2.236c-1.69 0-2.6.728-2.6 1.963 0 1.17.923 1.885 2.327 1.885 1.339 0 2.132-.611 2.535-1.43v.234c-.026.78.299 1.118 1.079 1.118h.39v-.611h-.247zm-1.248-2.054c0 1.261-.897 2.171-2.457 2.171-1.053 0-1.703-.533-1.703-1.352 0-.871.65-1.352 1.872-1.352h2.288v.533zm5.073-3.926c-1.222 0-1.742.585-2.015 1.313l-.104-1.313h-.572V10h.663V6.659c0-1.339.351-2.613 1.898-2.613h.481v-.637h-.351zm2.005 5.057c0 1.053.429 1.534 1.547 1.534h.962v-.611h-.91c-.689 0-.936-.26-.936-.936V4.02h1.781v-.611h-1.781V1.563h-.663v1.846h-1.248v.611h1.248v4.446zm6.226 1.612c1.443 0 2.548-.936 2.834-2.262h-.676c-.26 1.027-1.131 1.664-2.21 1.664-1.469 0-2.392-1.118-2.418-2.652v-.117h5.382c0-.091.013-.195.013-.273-.065-1.963-1.274-3.107-3.042-3.107-1.807 0-3.042 1.378-3.042 3.328 0 2.067 1.287 3.419 3.159 3.419zm-2.418-3.926c.104-1.339 1.105-2.236 2.314-2.236 1.287 0 2.21.793 2.314 2.236h-4.628zm9.345-2.743c-1.222 0-1.742.585-2.015 1.313l-.104-1.313h-.572V10h.663V6.659c0-1.339.351-2.613 1.898-2.613h.481v-.637h-.351zm5.331 5.057c0 1.053.429 1.534 1.547 1.534h.962v-.611h-.91c-.689 0-.936-.26-.936-.936V4.02h1.781v-.611h-1.781V1.563h-.663v1.846h-1.248v.611h1.248v4.446zm6.209-5.057c-1.222 0-1.742.585-2.015 1.313l-.104-1.313h-.572V10h.663V6.659c0-1.339.351-2.613 1.898-2.613h.481v-.637h-.351zm6.852 5.98c-.39 0-.585-.13-.585-.637V5.684c0-1.508-.923-2.353-2.574-2.353-1.508 0-2.509.728-2.678 1.924h.663c.169-.806.871-1.339 1.989-1.339 1.235 0 1.937.65 1.937 1.742v.572h-2.236c-1.69 0-2.6.728-2.6 1.963 0 1.17.923 1.885 2.327 1.885 1.339 0 2.132-.611 2.535-1.43v.234c-.026.78.299 1.118 1.079 1.118h.39v-.611h-.247zm-1.248-2.054c0 1.261-.897 2.171-2.457 2.171-1.053 0-1.703-.533-1.703-1.352 0-.871.65-1.352 1.872-1.352h2.288v.533zm7.662-2.444c-.403-.936-1.287-1.56-2.522-1.56-1.807 0-3.107 1.378-3.107 3.367 0 2.08 1.3 3.38 3.107 3.38 1.235 0 2.093-.663 2.509-1.586l.104 1.508h.572V.9h-.663v3.991zm-2.47 4.589c-1.469 0-2.483-1.144-2.483-2.782 0-1.625 1.014-2.782 2.483-2.782s2.483 1.157 2.483 2.795c0 1.625-1.014 2.769-2.483 2.769zm5.031-7.462c.26 0 .468-.195.468-.468a.458.458 0 00-.468-.468.458.458 0 00-.468.468c0 .273.208.468.468.468zM238.259 10h.663V3.409h-.663V10zm5.263-6.669c-1.209 0-1.989.624-2.366 1.482l-.104-1.404h-.572V10h.663V6.75c0-1.716.871-2.808 2.275-2.808 1.274 0 2.041.832 2.041 2.392V10h.663V6.308c0-2.08-1.105-2.977-2.6-2.977zm9.437 1.612c-.403-.975-1.287-1.612-2.509-1.612-1.807 0-3.107 1.365-3.107 3.367 0 2.08 1.3 3.38 3.107 3.38 1.235 0 2.106-.65 2.522-1.677v1.17c0 1.755-.832 2.509-2.418 2.509-1.235 0-2.093-.559-2.301-1.56h-.689c.208 1.404 1.339 2.158 2.938 2.158 2.132 0 3.133-1.014 3.133-3.081V3.409h-.572l-.104 1.534zm-2.457 4.537c-1.469 0-2.483-1.144-2.483-2.782 0-1.638 1.014-2.782 2.483-2.782s2.483 1.144 2.483 2.795c0 1.625-1.014 2.769-2.483 2.769zm4.614.091a.47.47 0 00.494.494.47.47 0 00.494-.494c0-.299-.208-.481-.494-.481-.286 0-.494.182-.494.481z" fill="#000"/></svg>