<svg width="284" height="22" viewBox="0 0 284 22" fill="none" xmlns="http://www.w3.org/2000/svg"><path d="M.472 17h2.645v-6.992h7.475V17h2.645V.9h-2.645v6.762H3.117V.9H.472V17zM17.184 3.568c.851 0 1.518-.621 1.518-1.495 0-.874-.667-1.495-1.518-1.495-.85 0-1.518.621-1.518 1.495 0 .874.667 1.495 1.518 1.495zM15.92 17h2.484V5.224H15.92V17zm13.912-9.936c-.759-1.173-2.024-1.978-3.864-1.978-3.197 0-5.566 2.369-5.566 5.98 0 3.749 2.37 5.98 5.566 5.98 1.84 0 3.06-.759 3.841-1.932v1.311c0 2.254-1.219 3.289-3.38 3.289-1.749 0-2.899-.759-3.198-2.07H20.7c.23 2.645 2.415 4.094 5.543 4.094 4.232 0 6.026-2.024 6.026-5.221V5.224h-2.162l-.276 1.84zm-3.45 7.889c-2.07 0-3.427-1.587-3.427-3.887 0-2.277 1.357-3.887 3.427-3.887 2.07 0 3.427 1.61 3.427 3.933 0 2.254-1.357 3.841-3.427 3.841zm14.502-9.867c-1.84 0-2.967.828-3.703 1.84V.9h-2.483V17h2.483v-5.957c0-2.369 1.197-3.818 3.151-3.818 1.84 0 2.83 1.196 2.83 3.427V17h2.483v-6.555c0-3.933-2.139-5.359-4.76-5.359zm12.52 12.052c2.92 0 4.899-1.771 5.313-4.094h-2.484c-.345 1.311-1.45 2.07-2.967 2.07-1.955 0-3.22-1.311-3.29-3.312v-.161h8.879c.046-.322.069-.644.069-.943-.07-3.45-2.346-5.612-5.75-5.612-3.473 0-5.796 2.415-5.796 6.049 0 3.611 2.323 6.003 6.026 6.003zm-3.335-7.314c.184-1.679 1.54-2.737 3.128-2.737 1.725 0 2.944.989 3.15 2.737h-6.278zm16.82-4.6c-1.932 0-2.875.782-3.473 1.771l-.276-1.771H60.93V17h2.484v-5.911c0-1.817.713-3.542 2.92-3.542h1.105V5.224h-.552zM74.857 17h2.484V.9h-2.484V17zm10.508.138c2.92 0 4.899-1.771 5.313-4.094h-2.484c-.345 1.311-1.45 2.07-2.967 2.07-1.955 0-3.22-1.311-3.29-3.312v-.161h8.879c.046-.322.069-.644.069-.943-.07-3.45-2.346-5.612-5.75-5.612-3.473 0-5.796 2.415-5.796 6.049 0 3.611 2.323 6.003 6.026 6.003zM82.03 9.824c.184-1.679 1.54-2.737 3.128-2.737 1.725 0 2.944.989 3.15 2.737H82.03zM95.528 17h3.036l4.347-11.776h-2.622l-3.197 9.108-3.243-9.108H91.18L95.528 17zm13.69.138c2.921 0 4.899-1.771 5.313-4.094h-2.484c-.345 1.311-1.449 2.07-2.967 2.07-1.955 0-3.22-1.311-3.289-3.312v-.161h8.878c.046-.322.069-.644.069-.943-.069-3.45-2.346-5.612-5.75-5.612-3.473 0-5.796 2.415-5.796 6.049 0 3.611 2.323 6.003 6.026 6.003zm-3.335-7.314c.184-1.679 1.541-2.737 3.128-2.737 1.725 0 2.944.989 3.151 2.737h-6.279zm16.82-4.6c-1.932 0-2.875.782-3.473 1.771l-.276-1.771h-2.208V17h2.484v-5.911c0-1.817.713-3.542 2.921-3.542h1.104V5.224h-.552zm12.489 9.614c-.506 0-.759-.161-.759-.759V9.364c0-2.783-1.794-4.278-4.922-4.278-2.967 0-4.945 1.426-5.198 3.726h2.438c.184-1.035 1.173-1.725 2.645-1.725 1.633 0 2.576.805 2.576 2.116v.713h-2.967c-3.289 0-5.037 1.357-5.037 3.772 0 2.185 1.794 3.45 4.37 3.45 1.909 0 3.105-.828 3.887-2.024 0 1.173.552 1.886 2.162 1.886h1.311v-2.162h-.506zm-3.22-2.668c-.023 1.817-1.219 3.036-3.289 3.036-1.357 0-2.185-.69-2.185-1.679 0-1.196.851-1.771 2.392-1.771h3.082v.414zm14.072-5.106c-.759-1.173-2.024-1.978-3.864-1.978-3.197 0-5.566 2.369-5.566 5.98 0 3.749 2.369 5.98 5.566 5.98 1.84 0 3.059-.759 3.841-1.932v1.311c0 2.254-1.219 3.289-3.381 3.289-1.748 0-2.898-.759-3.197-2.07h-2.53c.23 2.645 2.415 4.094 5.543 4.094 4.232 0 6.026-2.024 6.026-5.221V5.224h-2.162l-.276 1.84zm-3.45 7.889c-2.07 0-3.427-1.587-3.427-3.887 0-2.277 1.357-3.887 3.427-3.887 2.07 0 3.427 1.61 3.427 3.933 0 2.254-1.357 3.841-3.427 3.841zm13.904 2.185c2.921 0 4.899-1.771 5.313-4.094h-2.484c-.345 1.311-1.449 2.07-2.967 2.07-1.955 0-3.22-1.311-3.289-3.312v-.161h8.878c.046-.322.069-.644.069-.943-.069-3.45-2.346-5.612-5.75-5.612-3.473 0-5.796 2.415-5.796 6.049 0 3.611 2.323 6.003 6.026 6.003zm-3.335-7.314c.184-1.679 1.541-2.737 3.128-2.737 1.725 0 2.944.989 3.151 2.737h-6.279zm9.915 5.75c0 .92.667 1.564 1.587 1.564.92 0 1.61-.644 1.61-1.564s-.69-1.564-1.61-1.564c-.92 0-1.587.644-1.587 1.564zM184.157 17v-2.346h-6.923V.9h-2.645V17h9.568zm6.729.138c3.588 0 6.003-2.415 6.003-6.026 0-3.588-2.415-6.026-6.003-6.026s-6.003 2.438-6.003 6.026c0 3.611 2.415 6.026 6.003 6.026zm0-2.116c-2.093 0-3.45-1.633-3.45-3.91s1.357-3.91 3.45-3.91 3.473 1.633 3.473 3.91-1.38 3.91-3.473 3.91zM201.196 17h2.691l2.576-8.004L208.947 17h2.668l3.91-11.776h-2.53l-2.783 9.016-2.576-9.016h-2.277l-2.691 9.016-2.691-9.016h-2.622L201.196 17zm20.821.138c2.921 0 4.899-1.771 5.313-4.094h-2.484c-.345 1.311-1.449 2.07-2.967 2.07-1.955 0-3.22-1.311-3.289-3.312v-.161h8.878c.046-.322.069-.644.069-.943-.069-3.45-2.346-5.612-5.75-5.612-3.473 0-5.796 2.415-5.796 6.049 0 3.611 2.323 6.003 6.026 6.003zm-3.335-7.314c.184-1.679 1.541-2.737 3.128-2.737 1.725 0 2.944.989 3.151 2.737h-6.279zm16.82-4.6c-1.932 0-2.875.782-3.473 1.771l-.276-1.771h-2.208V17h2.484v-5.911c0-1.817.713-3.542 2.921-3.542h1.104V5.224h-.552zm13.926 0c-1.932 0-2.875.782-3.473 1.771l-.276-1.771h-2.208V17h2.484v-5.911c0-1.817.713-3.542 2.921-3.542h1.104V5.224h-.552zm3.349-1.656c.851 0 1.518-.621 1.518-1.495 0-.874-.667-1.495-1.518-1.495s-1.518.621-1.518 1.495c0 .874.667 1.495 1.518 1.495zM251.512 17h2.484V5.224h-2.484V17zm4.413-3.887c.069 2.553 2.231 4.025 5.382 4.025 2.852 0 4.991-1.426 4.991-3.68 0-2.622-2.185-3.174-4.876-3.496-1.702-.184-2.829-.322-2.829-1.426 0-.943.966-1.541 2.438-1.541 1.472 0 2.484.759 2.622 1.84h2.438c-.161-2.415-2.208-3.749-5.106-3.749-2.829-.023-4.83 1.426-4.83 3.657 0 2.438 2.116 3.013 4.807 3.335 1.817.23 2.898.322 2.898 1.587 0 .943-1.012 1.541-2.553 1.541-1.794 0-2.852-.874-2.944-2.093h-2.438zM268.223 17h2.484v-2.99l2.116-2.208L276.296 17h2.944l-4.715-7.015 4.439-4.761h-2.921l-5.336 5.704V.9h-2.484V17zm11.989-1.426c0 .92.667 1.564 1.587 1.564.92 0 1.61-.644 1.61-1.564s-.69-1.564-1.61-1.564c-.92 0-1.587.644-1.587 1.564z" fill="#000"/></svg>