<svg width="212" height="40" viewBox="0 0 212 40" fill="none" xmlns="http://www.w3.org/2000/svg"><rect x=".5" width="211" height="40" rx="20" fill="#fff"/><path d="M35.464 26c3.723 0 5.984-2.397 5.984-5.95 0-3.57-2.261-5.95-5.984-5.95h-3.808V26h3.808zm-2.329-10.54h2.329c2.89 0 4.471 1.802 4.471 4.59 0 2.771-1.581 4.59-4.471 4.59h-2.329v-9.18zm10.685.408c.51 0 .901-.374.901-.901a.876.876 0 00-.9-.901.876.876 0 00-.902.901c0 .527.391.901.901.901zM43.106 26H44.5v-8.67h-1.394V26zm2.947-2.856c.034 1.904 1.581 2.958 3.825 2.958 1.921 0 3.468-1.003 3.468-2.618 0-1.921-1.581-2.295-3.553-2.533-1.258-.153-2.176-.272-2.176-1.224 0-.799.816-1.309 2.023-1.309 1.19 0 2.006.663 2.108 1.547h1.428c-.136-1.802-1.564-2.72-3.536-2.737-1.955-.017-3.4 1.02-3.4 2.601 0 1.802 1.547 2.193 3.485 2.431 1.292.153 2.244.238 2.244 1.326 0 .799-.867 1.326-2.091 1.326-1.445 0-2.346-.748-2.397-1.768h-1.428zm12.733 2.958c2.108 0 3.52-1.19 3.86-3.06h-1.48c-.272 1.105-1.122 1.819-2.363 1.819-1.666 0-2.788-1.292-2.788-3.179 0-1.887 1.122-3.213 2.788-3.213 1.275 0 2.125.697 2.38 1.853h1.462c-.357-1.904-1.7-3.094-3.825-3.094-2.516 0-4.233 1.802-4.233 4.454 0 2.703 1.666 4.42 4.2 4.42zm9.383 0c2.533 0 4.3-1.802 4.3-4.437 0-2.635-1.767-4.437-4.3-4.437s-4.301 1.802-4.301 4.437c0 2.635 1.768 4.437 4.3 4.437zm0-1.241c-1.717 0-2.873-1.343-2.873-3.196 0-1.853 1.156-3.196 2.873-3.196 1.717 0 2.873 1.343 2.873 3.196 0 1.853-1.156 3.196-2.873 3.196zM76.066 26h1.683l3.247-8.67h-1.462l-2.6 7.089-2.619-7.089H72.82L76.066 26zm9.584.102c2.006 0 3.434-1.275 3.774-3.009h-1.41c-.29 1.122-1.242 1.768-2.466 1.768-1.649 0-2.686-1.156-2.737-2.805v-.119h6.732c.017-.204.034-.408.034-.595-.068-2.567-1.666-4.114-4.114-4.114s-4.114 1.802-4.114 4.437c0 2.652 1.7 4.437 4.301 4.437zm-2.754-5.321c.136-1.411 1.31-2.329 2.584-2.329 1.445 0 2.465.833 2.601 2.329h-5.185zM95.18 17.33c-1.547 0-2.21.646-2.618 1.309l-.187-1.309h-1.207V26h1.394v-4.42c0-1.377.493-2.89 2.312-2.89h.697v-1.36h-.391zm6.252 8.67h1.479v-3.094l2.363-2.669L109.286 26h1.768l-4.692-6.885 4.352-5.015h-1.802l-6.001 6.749V14.1h-1.479V26zm14.887-8.772c-1.462 0-2.346.612-2.856 1.275l-.187-1.173h-1.207V26h1.394v-4.335c0-1.955.986-3.162 2.618-3.162 1.513 0 2.346.952 2.346 2.754V26h1.394v-4.828c0-2.873-1.547-3.944-3.502-3.944zm9.175 8.874c2.533 0 4.301-1.802 4.301-4.437 0-2.635-1.768-4.437-4.301-4.437-2.533 0-4.301 1.802-4.301 4.437 0 2.635 1.768 4.437 4.301 4.437zm0-1.241c-1.717 0-2.873-1.343-2.873-3.196 0-1.853 1.156-3.196 2.873-3.196 1.717 0 2.873 1.343 2.873 3.196 0 1.853-1.156 3.196-2.873 3.196zm9.792 1.241c2.108 0 3.519-1.19 3.859-3.06h-1.479c-.272 1.105-1.122 1.819-2.363 1.819-1.666 0-2.788-1.292-2.788-3.179 0-1.887 1.122-3.213 2.788-3.213 1.275 0 2.125.697 2.38 1.853h1.462c-.357-1.904-1.7-3.094-3.825-3.094-2.516 0-4.233 1.802-4.233 4.454 0 2.703 1.666 4.42 4.199 4.42zm5.388-.102h1.394v-2.278l1.751-1.802 2.873 4.08h1.683l-3.621-5.083 3.383-3.587h-1.717l-4.352 4.607V14.1h-1.394V26zm12.179.102c2.533 0 4.301-1.802 4.301-4.437 0-2.635-1.768-4.437-4.301-4.437-2.533 0-4.301 1.802-4.301 4.437 0 2.635 1.768 4.437 4.301 4.437zm0-1.241c-1.717 0-2.873-1.343-2.873-3.196 0-1.853 1.156-3.196 2.873-3.196 1.717 0 2.873 1.343 2.873 3.196 0 1.853-1.156 3.196-2.873 3.196zm11.969-3.196c0 1.955-.952 3.162-2.533 3.162-1.445 0-2.261-.952-2.261-2.754V17.33h-1.394v4.828c0 2.873 1.513 3.944 3.417 3.944 1.428 0 2.261-.612 2.771-1.258l.187 1.156h1.207v-8.67h-1.394v4.335zm3.973 2.074c0 1.53.595 2.261 2.261 2.261h1.513v-1.275h-1.377c-.748 0-1.003-.272-1.003-1.003v-5.117h2.244V17.33h-2.244v-2.431h-1.394v2.431h-1.564v1.275h1.564v5.134zm4.625-.595c.034 1.904 1.581 2.958 3.825 2.958 1.921 0 3.468-1.003 3.468-2.618 0-1.921-1.581-2.295-3.553-2.533-1.258-.153-2.176-.272-2.176-1.224 0-.799.816-1.309 2.023-1.309 1.19 0 2.006.663 2.108 1.547h1.428c-.136-1.802-1.564-2.72-3.536-2.737-1.955-.017-3.4 1.02-3.4 2.601 0 1.802 1.547 2.193 3.485 2.431 1.292.153 2.244.238 2.244 1.326 0 .799-.867 1.326-2.091 1.326-1.445 0-2.346-.748-2.397-1.768h-1.428z" fill="#000"/></svg>