<svg width="249" height="149" viewBox="0 0 249 149" fill="none" xmlns="http://www.w3.org/2000/svg"><path d="M.3 85.25h3.6V95h.81v-9.75h3.6v-.75H.3v.75zm11.498 2.145c-1.41 0-2.01.675-2.325 1.515l-.12-1.515h-.66V95h.765v-3.855c0-1.545.405-3.015 2.19-3.015h.555v-.735h-.405zm7.906 6.9c-.45 0-.675-.15-.675-.735v-3.54c0-1.74-1.065-2.715-2.97-2.715-1.74 0-2.895.84-3.09 2.22h.765c.195-.93 1.005-1.545 2.295-1.545 1.425 0 2.235.75 2.235 2.01v.66h-2.58c-1.95 0-3 .84-3 2.265 0 1.35 1.065 2.175 2.685 2.175 1.545 0 2.46-.705 2.925-1.65v.27c-.03.9.345 1.29 1.245 1.29h.45v-.705h-.285zm-1.44-2.37c0 1.455-1.035 2.505-2.835 2.505-1.215 0-1.965-.615-1.965-1.56 0-1.005.75-1.56 2.16-1.56h2.64v.615zm8.841-2.82c-.465-1.08-1.485-1.8-2.91-1.8-2.085 0-3.585 1.59-3.585 3.885 0 2.4 1.5 3.9 3.585 3.9 1.425 0 2.415-.765 2.895-1.83l.12 1.74h.66V84.5h-.765v4.605zm-2.85 5.295c-1.695 0-2.865-1.32-2.865-3.21 0-1.875 1.17-3.21 2.865-3.21 1.695 0 2.865 1.335 2.865 3.225 0 1.875-1.17 3.195-2.865 3.195zm8.774.69c1.665 0 2.94-1.08 3.27-2.61h-.78c-.3 1.185-1.304 1.92-2.55 1.92-1.695 0-2.76-1.29-2.79-3.06v-.135h6.21c0-.105.015-.225.015-.315-.075-2.265-1.47-3.585-3.51-3.585-2.084 0-3.51 1.59-3.51 3.84 0 2.385 1.485 3.945 3.645 3.945zm-2.79-4.53c.12-1.545 1.276-2.58 2.67-2.58 1.486 0 2.55.915 2.67 2.58h-5.34zm12.29 2.67c0 1.215.496 1.77 1.786 1.77h1.11v-.705h-1.05c-.795 0-1.08-.3-1.08-1.08V88.1h2.055v-.705h-2.055v-2.13h-.765v2.13h-1.44v.705h1.44v5.13zm7.185 1.86c1.665 0 2.94-1.08 3.27-2.61h-.78c-.3 1.185-1.305 1.92-2.55 1.92-1.695 0-2.76-1.29-2.79-3.06v-.135h6.21c0-.105.015-.225.015-.315-.075-2.265-1.47-3.585-3.51-3.585-2.085 0-3.51 1.59-3.51 3.84 0 2.385 1.485 3.945 3.645 3.945zm-2.79-4.53c.12-1.545 1.275-2.58 2.67-2.58 1.485 0 2.55.915 2.67 2.58h-5.34zm10.992 4.53c1.725 0 2.94-.99 3.24-2.535h-.81c-.255 1.125-1.17 1.845-2.43 1.845-1.665 0-2.82-1.305-2.82-3.195s1.14-3.225 2.82-3.225c1.275 0 2.175.72 2.445 1.86h.795c-.315-1.575-1.5-2.535-3.225-2.535-2.145 0-3.615 1.59-3.615 3.9 0 2.34 1.455 3.885 3.6 3.885zm8.237-7.785c-1.425 0-2.31.795-2.745 1.89V84.5h-.765V95h.765v-3.75c0-1.98 1.005-3.24 2.625-3.24 1.455 0 2.355.96 2.355 2.76V95h.765v-4.26c0-2.4-1.275-3.435-3-3.435zm12.11 7.785c1.666 0 2.94-1.08 3.27-2.61h-.78c-.3 1.185-1.304 1.92-2.55 1.92-1.694 0-2.76-1.29-2.79-3.06v-.135h6.21c0-.105.016-.225.016-.315-.075-2.265-1.47-3.585-3.51-3.585-2.085 0-3.51 1.59-3.51 3.84 0 2.385 1.485 3.945 3.645 3.945zm-2.79-4.53c.12-1.545 1.276-2.58 2.67-2.58 1.486 0 2.55.915 2.67 2.58h-5.34zm14.368 3.735c-.45 0-.675-.15-.675-.735v-3.54c0-1.74-1.065-2.715-2.97-2.715-1.74 0-2.895.84-3.09 2.22h.765c.195-.93 1.005-1.545 2.295-1.545 1.425 0 2.235.75 2.235 2.01v.66h-2.58c-1.95 0-3 .84-3 2.265 0 1.35 1.065 2.175 2.685 2.175 1.545 0 2.46-.705 2.925-1.65v.27c-.03.9.345 1.29 1.245 1.29h.45v-.705h-.285zm-1.44-2.37c0 1.455-1.035 2.505-2.835 2.505-1.215 0-1.965-.615-1.965-1.56 0-1.005.75-1.56 2.16-1.56h2.64v.615zm5.853-4.53c-1.41 0-2.01.675-2.325 1.515l-.12-1.515h-.66V95h.765v-3.855c0-1.545.405-3.015 2.19-3.015h.555v-.735h-.405zm5.049-.09c-1.395 0-2.295.72-2.73 1.71l-.12-1.62h-.66V95h.765v-3.75c0-1.98 1.005-3.24 2.625-3.24 1.47 0 2.355.96 2.355 2.76V95h.765v-4.26c0-2.4-1.275-3.435-3-3.435zm5.083-1.515c.3 0 .54-.225.54-.54 0-.315-.24-.54-.54-.54-.3 0-.54.225-.54.54 0 .315.24.54.54.54zm-.39 9.21h.765v-7.605h-.765V95zm6.073-7.695c-1.395 0-2.295.72-2.73 1.71l-.12-1.62h-.66V95h.765v-3.75c0-1.98 1.005-3.24 2.625-3.24 1.47 0 2.355.96 2.355 2.76V95h.765v-4.26c0-2.4-1.275-3.435-3-3.435zm10.888 1.86c-.465-1.125-1.485-1.86-2.895-1.86-2.085 0-3.585 1.575-3.585 3.885 0 2.4 1.5 3.9 3.585 3.9 1.425 0 2.43-.75 2.91-1.935v1.35c0 2.025-.96 2.895-2.79 2.895-1.425 0-2.415-.645-2.655-1.8h-.795c.24 1.62 1.545 2.49 3.39 2.49 2.46 0 3.615-1.17 3.615-3.555v-7.14h-.66l-.12 1.77zm-2.835 5.235c-1.695 0-2.865-1.32-2.865-3.21s1.17-3.21 2.865-3.21c1.695 0 2.865 1.32 2.865 3.225 0 1.875-1.17 3.195-2.865 3.195zm5.07-1.74c.06 1.575 1.335 2.43 3.24 2.43 1.635 0 2.955-.825 2.955-2.175 0-1.605-1.41-1.92-3.045-2.145-1.185-.165-2.235-.3-2.235-1.365 0-.87.855-1.44 2.145-1.44 1.215 0 2.085.585 2.22 1.575h.78c-.135-1.485-1.35-2.235-3-2.235-1.695-.015-2.91.855-2.91 2.16 0 1.53 1.41 1.815 2.97 2.025 1.275.18 2.31.345 2.31 1.47 0 .9-.945 1.47-2.19 1.47-1.455 0-2.4-.675-2.46-1.77h-.78zm18.387 1.635c-.45 0-.675-.15-.675-.735v-3.54c0-1.74-1.065-2.715-2.97-2.715-1.74 0-2.895.84-3.09 2.22h.765c.195-.93 1.005-1.545 2.295-1.545 1.425 0 2.235.75 2.235 2.01v.66h-2.58c-1.95 0-3 .84-3 2.265 0 1.35 1.065 2.175 2.685 2.175 1.545 0 2.46-.705 2.925-1.65v.27c-.03.9.345 1.29 1.245 1.29h.45v-.705h-.285zm-1.44-2.37c0 1.455-1.035 2.505-2.835 2.505-1.215 0-1.965-.615-1.965-1.56 0-1.005.75-1.56 2.16-1.56h2.64v.615zm2.403.735c.06 1.575 1.335 2.43 3.24 2.43 1.635 0 2.955-.825 2.955-2.175 0-1.605-1.41-1.92-3.045-2.145-1.185-.165-2.235-.3-2.235-1.365 0-.87.855-1.44 2.145-1.44 1.215 0 2.085.585 2.22 1.575h.78c-.135-1.485-1.35-2.235-3-2.235-1.695-.015-2.91.855-2.91 2.16 0 1.53 1.41 1.815 2.97 2.025 1.275.18 2.31.345 2.31 1.47 0 .9-.945 1.47-2.19 1.47-1.455 0-2.4-.675-2.46-1.77h-.78zm12.268.57c0 1.215.495 1.77 1.785 1.77h1.11v-.705h-1.05c-.795 0-1.08-.3-1.08-1.08V88.1h2.055v-.705h-2.055v-2.13h-.765v2.13h-1.44v.705h1.44v5.13zm7.569-5.925c-1.425 0-2.31.795-2.745 1.89V84.5h-.765V95h.765v-3.75c0-1.98 1.005-3.24 2.625-3.24 1.455 0 2.355.96 2.355 2.76V95h.765v-4.26c0-2.4-1.275-3.435-3-3.435zm7.95 7.785c1.665 0 2.94-1.08 3.27-2.61h-.78c-.3 1.185-1.305 1.92-2.55 1.92-1.695 0-2.76-1.29-2.79-3.06v-.135h6.21c0-.105.015-.225.015-.315-.075-2.265-1.47-3.585-3.51-3.585-2.085 0-3.51 1.59-3.51 3.84 0 2.385 1.485 3.945 3.645 3.945zm-2.79-4.53c.12-1.545 1.275-2.58 2.67-2.58 1.485 0 2.55.915 2.67 2.58h-5.34zm9.635 4.44l-.495 1.23c-.345.84-.48 1.065-1.26 1.065h-.96V98h1.17c1.02 0 1.26-.39 1.74-1.59l3.645-9.015h-.825l-2.595 6.615-2.64-6.615h-.825L177.174 95zm12.422-7.695c-1.425 0-2.31.795-2.745 1.89V84.5h-.765V95h.765v-3.75c0-1.98 1.005-3.24 2.625-3.24 1.455 0 2.355.96 2.355 2.76V95h.765v-4.26c0-2.4-1.275-3.435-3-3.435zm11.397 6.99c-.45 0-.675-.15-.675-.735v-3.54c0-1.74-1.065-2.715-2.97-2.715-1.74 0-2.895.84-3.09 2.22h.765c.195-.93 1.005-1.545 2.295-1.545 1.425 0 2.235.75 2.235 2.01v.66h-2.58c-1.95 0-3 .84-3 2.265 0 1.35 1.065 2.175 2.685 2.175 1.545 0 2.46-.705 2.925-1.65v.27c-.03.9.345 1.29 1.245 1.29h.45v-.705h-.285zm-1.44-2.37c0 1.455-1.035 2.505-2.835 2.505-1.215 0-1.965-.615-1.965-1.56 0-1.005.75-1.56 2.16-1.56h2.64v.615zm6.423-4.62c-1.425 0-2.415.765-2.895 1.83l-.12-1.74h-.66V98h.765v-4.755c.435 1.11 1.47 1.845 2.91 1.845 2.085 0 3.585-1.59 3.585-3.9 0-2.385-1.5-3.885-3.585-3.885zm-.06 7.095c-1.695 0-2.865-1.32-2.865-3.225 0-1.86 1.17-3.195 2.865-3.195 1.695 0 2.865 1.335 2.865 3.21 0 1.89-1.17 3.21-2.865 3.21zm8.835-7.095c-1.425 0-2.415.765-2.895 1.83l-.12-1.74h-.66V98h.765v-4.755c.435 1.11 1.47 1.845 2.91 1.845 2.085 0 3.585-1.59 3.585-3.9 0-2.385-1.5-3.885-3.585-3.885zm-.06 7.095c-1.695 0-2.865-1.32-2.865-3.225 0-1.86 1.17-3.195 2.865-3.195 1.695 0 2.865 1.335 2.865 3.21 0 1.89-1.17 3.21-2.865 3.21zm8.519.69c1.665 0 2.94-1.08 3.27-2.61h-.78c-.3 1.185-1.305 1.92-2.55 1.92-1.695 0-2.76-1.29-2.79-3.06v-.135h6.21c0-.105.015-.225.015-.315-.075-2.265-1.47-3.585-3.51-3.585-2.085 0-3.51 1.59-3.51 3.84 0 2.385 1.485 3.945 3.645 3.945zm-2.79-4.53c.12-1.545 1.275-2.58 2.67-2.58 1.485 0 2.55.915 2.67 2.58h-5.34zm11.187-3.255c-1.395 0-2.295.72-2.73 1.71l-.12-1.62h-.66V95h.765v-3.75c0-1.98 1.005-3.24 2.625-3.24 1.47 0 2.355.96 2.355 2.76V95h.765v-4.26c0-2.4-1.275-3.435-3-3.435zM2.745 112h.825l2.25-6.39L7.965 112h.825l2.7-7.605h-.78l-2.34 6.69-2.175-6.69H5.49l-2.295 6.69-2.22-6.69h-.81L2.745 112zm10.205-9.21c.3 0 .54-.225.54-.54 0-.315-.24-.54-.54-.54-.3 0-.54.225-.54.54 0 .315.24.54.54.54zm-.39 9.21h.765v-7.605h-.765V112zm3.134-1.77c0 1.215.495 1.77 1.785 1.77h1.11v-.705h-1.05c-.795 0-1.08-.3-1.08-1.08V105.1h2.055v-.705h-2.055v-2.13h-.765v2.13h-1.44v.705h1.44v5.13zm7.568-5.925c-1.425 0-2.31.795-2.745 1.89V101.5h-.764V112h.764v-3.75c0-1.98 1.006-3.24 2.625-3.24 1.456 0 2.355.96 2.355 2.76V112h.765v-4.26c0-2.4-1.274-3.435-3-3.435zm12.291 7.785c1.905 0 3.195-1.155 3.465-2.67h-1.62c-.225.855-.945 1.35-1.935 1.35-1.275 0-2.1-.855-2.145-2.16v-.105h5.79a4.4 4.4 0 00.045-.615c-.045-2.25-1.53-3.66-3.75-3.66-2.265 0-3.78 1.575-3.78 3.945 0 2.355 1.515 3.915 3.93 3.915zm-2.175-4.77c.12-1.095 1.005-1.785 2.04-1.785 1.125 0 1.92.645 2.055 1.785h-4.095zm5.938 4.68h1.785l2.025-2.79 2.01 2.79h1.89l-2.895-3.93 2.73-3.75h-1.785l-1.875 2.595-1.83-2.595h-1.89l2.715 3.75-2.88 3.93zm9.158-2.085c0 1.395.63 2.085 2.1 2.085h1.5v-1.425h-1.14c-.615 0-.825-.225-.825-.825v-4.005h1.875v-1.425h-1.875v-2.145h-1.635v2.145h-1.335v1.425h1.335v4.17zm8.114 2.175c1.905 0 3.195-1.155 3.465-2.67h-1.62c-.225.855-.945 1.35-1.935 1.35-1.275 0-2.1-.855-2.145-2.16v-.105h5.79a4.4 4.4 0 00.045-.615c-.045-2.25-1.53-3.66-3.75-3.66-2.265 0-3.78 1.575-3.78 3.945 0 2.355 1.515 3.915 3.93 3.915zm-2.175-4.77c.12-1.095 1.005-1.785 2.04-1.785 1.125 0 1.92.645 2.055 1.785h-4.095zm11.135-3.09c-1.245 0-1.98.495-2.46 1.095l-.18-1.005h-1.41V112h1.62v-3.87c0-1.56.765-2.505 2.055-2.505 1.215 0 1.83.78 1.83 2.235V112h1.635v-4.275c0-2.565-1.395-3.495-3.09-3.495zm10.34 1.155c-.495-.675-1.32-1.155-2.49-1.155-2.085 0-3.63 1.56-3.63 3.93 0 2.46 1.545 3.93 3.63 3.93 1.215 0 2.01-.57 2.505-1.245l.195 1.155h1.41v-10.5h-1.62v3.885zm-2.22 5.34c-1.35 0-2.235-1.05-2.235-2.565 0-1.5.885-2.55 2.235-2.55 1.35 0 2.235 1.05 2.235 2.58 0 1.485-.885 2.535-2.235 2.535zm9.068 1.365c1.905 0 3.195-1.155 3.465-2.67h-1.62c-.225.855-.945 1.35-1.935 1.35-1.275 0-2.1-.855-2.145-2.16v-.105h5.79a4.4 4.4 0 00.045-.615c-.045-2.25-1.53-3.66-3.75-3.66-2.265 0-3.78 1.575-3.78 3.945 0 2.355 1.515 3.915 3.93 3.915zm-2.175-4.77c.12-1.095 1.005-1.785 2.04-1.785 1.125 0 1.92.645 2.055 1.785H80.56zm12.92-1.935c-.495-.675-1.32-1.155-2.49-1.155-2.085 0-3.63 1.56-3.63 3.93 0 2.46 1.545 3.93 3.63 3.93 1.215 0 2.01-.57 2.505-1.245L93.69 112h1.41v-10.5h-1.62v3.885zm-2.22 5.34c-1.35 0-2.235-1.05-2.235-2.565 0-1.5.885-2.55 2.235-2.55 1.35 0 2.235 1.05 2.235 2.58 0 1.485-.885 2.535-2.235 2.535zm13.296-6.495c-1.2 0-1.935.54-2.415 1.2v-3.93h-1.62V112h1.62v-3.885c0-1.545.78-2.49 2.055-2.49 1.2 0 1.845.78 1.845 2.235V112h1.62v-4.275c0-2.565-1.395-3.495-3.105-3.495zm8.149 7.86c2.34 0 3.915-1.575 3.915-3.93 0-2.34-1.575-3.93-3.915-3.93s-3.915 1.59-3.915 3.93c0 2.355 1.575 3.93 3.915 3.93zm0-1.38c-1.365 0-2.25-1.065-2.25-2.55 0-1.485.885-2.55 2.25-2.55s2.265 1.065 2.265 2.55c0 1.485-.9 2.55-2.265 2.55zm10.483-2.55c0 1.59-.75 2.52-1.98 2.52-1.185 0-1.785-.765-1.785-2.265v-4.095h-1.62v4.275c0 2.625 1.395 3.495 3.03 3.495 1.185 0 1.89-.48 2.37-1.065l.18.975h1.425v-7.68h-1.62v3.84zm7.101-3.84c-1.26 0-1.875.51-2.265 1.155l-.18-1.155h-1.44V112h1.62v-3.855c0-1.185.465-2.31 1.905-2.31h.72v-1.515h-.36zm.898 5.145c.045 1.665 1.455 2.625 3.51 2.625 1.86 0 3.255-.93 3.255-2.4 0-1.71-1.425-2.07-3.18-2.28-1.11-.12-1.845-.21-1.845-.93 0-.615.63-1.005 1.59-1.005.96 0 1.62.495 1.71 1.2h1.59c-.105-1.575-1.44-2.445-3.33-2.445-1.845-.015-3.15.93-3.15 2.385 0 1.59 1.38 1.965 3.135 2.175 1.185.15 1.89.21 1.89 1.035 0 .615-.66 1.005-1.665 1.005-1.17 0-1.86-.57-1.92-1.365h-1.59zm12.413.45c0 1.395.63 2.085 2.1 2.085h1.5v-1.425h-1.14c-.615 0-.825-.225-.825-.825v-4.005h1.875v-1.425h-1.875v-2.145h-1.635v2.145h-1.335v1.425h1.335v4.17zm8.516-5.595c-1.26 0-1.875.51-2.265 1.155l-.18-1.155h-1.44V112h1.62v-3.855c0-1.185.465-2.31 1.905-2.31h.72v-1.515h-.36zm8.144 6.27c-.33 0-.495-.105-.495-.495v-3.075c0-1.815-1.17-2.79-3.21-2.79-1.935 0-3.225.93-3.39 2.43h1.59c.12-.675.765-1.125 1.725-1.125 1.065 0 1.68.525 1.68 1.38v.465h-1.935c-2.145 0-3.285.885-3.285 2.46 0 1.425 1.17 2.25 2.85 2.25 1.245 0 2.025-.54 2.535-1.32 0 .765.36 1.23 1.41 1.23h.855v-1.41h-.33zm-2.1-1.74c-.015 1.185-.795 1.98-2.145 1.98-.885 0-1.425-.45-1.425-1.095 0-.78.555-1.155 1.56-1.155h2.01v.27zm9.089-3.465c-.495-.675-1.32-1.155-2.49-1.155-2.085 0-3.63 1.56-3.63 3.93 0 2.46 1.545 3.93 3.63 3.93 1.215 0 2.01-.57 2.505-1.245l.195 1.155h1.41v-10.5h-1.62v3.885zm-2.22 5.34c-1.35 0-2.235-1.05-2.235-2.565 0-1.5.885-2.55 2.235-2.55 1.35 0 2.235 1.05 2.235 2.58 0 1.485-.885 2.535-2.235 2.535zm6.248-7.485c.555 0 .99-.405.99-.975s-.435-.975-.99-.975c-.555 0-.99.405-.99.975s.435.975.99.975zm-.825 8.76h1.62v-7.68h-1.62V112zm7.258-7.77c-1.245 0-1.98.495-2.46 1.095l-.18-1.005h-1.41V112h1.62v-3.87c0-1.56.765-2.505 2.055-2.505 1.215 0 1.83.78 1.83 2.235V112h1.635v-4.275c0-2.565-1.395-3.495-3.09-3.495zm10.428 1.29c-.495-.765-1.32-1.29-2.52-1.29-2.085 0-3.63 1.545-3.63 3.9 0 2.445 1.545 3.9 3.63 3.9 1.2 0 1.995-.495 2.505-1.26v.855c0 1.47-.795 2.145-2.205 2.145-1.14 0-1.89-.495-2.085-1.35h-1.65c.15 1.725 1.575 2.67 3.615 2.67 2.76 0 3.93-1.32 3.93-3.405v-7.365h-1.41l-.18 1.2zm-2.25 5.145c-1.35 0-2.235-1.035-2.235-2.535 0-1.485.885-2.535 2.235-2.535 1.35 0 2.235 1.05 2.235 2.565 0 1.47-.885 2.505-2.235 2.505zM4.575 121.305c-1.425 0-2.43.78-2.91 1.86V118.5H.9V129h.66l.12-1.725c.45 1.095 1.47 1.815 2.895 1.815 2.085 0 3.585-1.59 3.585-3.9 0-2.385-1.5-3.885-3.585-3.885zm-.06 7.095c-1.695 0-2.865-1.32-2.865-3.225 0-1.86 1.17-3.195 2.865-3.195 1.695 0 2.865 1.335 2.865 3.21 0 1.89-1.17 3.21-2.865 3.21zm7.117.6l-.495 1.23c-.345.84-.48 1.065-1.26 1.065h-.96V132h1.17c1.02 0 1.26-.39 1.74-1.59l3.645-9.015h-.825l-2.595 6.615-2.64-6.615h-.825L11.632 129zm13.532.09c2.25 0 3.84-1.215 4.29-3.33h-.855c-.45 1.68-1.665 2.58-3.45 2.58-2.43 0-3.96-1.905-3.96-4.59 0-2.685 1.56-4.59 3.99-4.59 1.755 0 2.985.915 3.45 2.565h.855c-.465-2.1-2.055-3.315-4.26-3.315-2.955 0-4.875 2.19-4.875 5.34 0 3.18 1.875 5.34 4.815 5.34zm6.243-9.3c.3 0 .54-.225.54-.54 0-.315-.24-.54-.54-.54-.3 0-.54.225-.54.54 0 .315.24.54.54.54zm-.39 9.21h.765v-7.605h-.765V129zm3.134-1.77c0 1.215.495 1.77 1.785 1.77h1.11v-.705h-1.05c-.795 0-1.08-.3-1.08-1.08V122.1h2.055v-.705h-2.055v-2.13h-.765v2.13h-1.44v.705h1.44v5.13zM40.49 129l-.495 1.23c-.345.84-.48 1.065-1.26 1.065h-.96V132h1.17c1.02 0 1.26-.39 1.74-1.59l3.645-9.015h-.825l-2.595 6.615-2.64-6.615h-.825L40.49 129zm9.091 0h.81v-10.5h-.81V129zm6.304-7.695c-1.395 0-2.295.72-2.73 1.71l-.12-1.62h-.66V129h.765v-3.75c0-1.98 1.005-3.24 2.625-3.24 1.47 0 2.355.96 2.355 2.76V129h.765v-4.26c0-2.4-1.275-3.435-3-3.435zm10.786 1.8c-.466-1.08-1.486-1.8-2.91-1.8-2.086 0-3.586 1.59-3.586 3.885 0 2.4 1.5 3.9 3.586 3.9 1.425 0 2.414-.765 2.895-1.83l.12 1.74h.66v-10.5h-.766v4.605zm-2.85 5.295c-1.695 0-2.865-1.32-2.865-3.21 0-1.875 1.17-3.21 2.864-3.21 1.696 0 2.866 1.335 2.866 3.225 0 1.875-1.17 3.195-2.866 3.195zm8.774.69c1.665 0 2.94-1.08 3.27-2.61h-.78c-.3 1.185-1.305 1.92-2.55 1.92-1.695 0-2.76-1.29-2.79-3.06v-.135h6.21c0-.105.015-.225.015-.315-.075-2.265-1.47-3.585-3.51-3.585-2.085 0-3.51 1.59-3.51 3.84 0 2.385 1.485 3.945 3.645 3.945zm-2.79-4.53c.12-1.545 1.275-2.58 2.67-2.58 1.485 0 2.55.915 2.67 2.58h-5.34zm6.603 4.44h.885l2.52-3.345 2.52 3.345h.93l-2.955-3.885 2.805-3.72h-.87l-2.4 3.15-2.37-3.15h-.915l2.805 3.72L76.408 129zm7.722-.495c0 .345.24.57.57.57.33 0 .57-.225.57-.57s-.24-.555-.57-.555c-.33 0-.57.21-.57.555zM3.933 65.951h2.691L9.2 57.947l2.484 8.004h2.668l3.91-11.776h-2.53l-2.783 9.016-2.576-9.016H8.096l-2.691 9.016-2.691-9.016H.092l3.841 11.776zm21.824-11.914c-1.84 0-2.967.828-3.703 1.84v-6.026H19.57v16.1h2.484v-5.957c0-2.369 1.196-3.818 3.15-3.818 1.84 0 2.83 1.196 2.83 3.427v6.348h2.484v-6.555c0-3.933-2.14-5.359-4.761-5.359zM38.276 66.09c2.92 0 4.899-1.77 5.313-4.094h-2.484c-.345 1.311-1.45 2.07-2.967 2.07-1.955 0-3.22-1.31-3.29-3.312v-.16h8.879c.046-.323.069-.645.069-.944-.07-3.45-2.346-5.612-5.75-5.612-3.473 0-5.796 2.415-5.796 6.05 0 3.61 2.323 6.002 6.026 6.002zm-3.335-7.314c.184-1.679 1.54-2.737 3.128-2.737 1.725 0 2.944.99 3.15 2.737h-6.278zm17.073-4.738c-1.909 0-3.036.76-3.772 1.68l-.276-1.542h-2.162v11.776h2.484v-5.934c0-2.392 1.173-3.84 3.151-3.84 1.863 0 2.806 1.195 2.806 3.426v6.348h2.507v-6.555c0-3.933-2.139-5.359-4.738-5.359zM70.462 66.09c3.588 0 6.003-2.415 6.003-6.026 0-3.588-2.415-6.026-6.003-6.026s-6.003 2.438-6.003 6.026c0 3.611 2.415 6.026 6.003 6.026zm0-2.116c-2.093 0-3.45-1.633-3.45-3.91s1.357-3.91 3.45-3.91 3.473 1.633 3.473 3.91-1.38 3.91-3.473 3.91zm8.761-1.219c0 2.14.966 3.197 3.22 3.197h2.3v-2.185h-1.748c-.943 0-1.265-.345-1.265-1.265v-6.14h2.875v-2.186H81.73v-3.289h-2.507v3.29h-2.047v2.184h2.047v6.394zm13.287-8.717c-1.84 0-2.967.828-3.703 1.84v-6.026h-2.484v16.1h2.485v-5.957c0-2.369 1.195-3.818 3.15-3.818 1.84 0 2.83 1.196 2.83 3.427v6.348h2.484v-6.555c0-3.933-2.14-5.359-4.762-5.359zm12.52 12.052c2.921 0 4.899-1.77 5.313-4.094h-2.484c-.345 1.311-1.449 2.07-2.967 2.07-1.955 0-3.22-1.31-3.289-3.312v-.16h8.878c.046-.323.069-.645.069-.944-.069-3.45-2.346-5.612-5.75-5.612-3.473 0-5.796 2.415-5.796 6.05 0 3.61 2.323 6.002 6.026 6.002zm-3.335-7.314c.184-1.679 1.541-2.737 3.128-2.737 1.725 0 2.944.99 3.151 2.737h-6.279zm16.82-4.6c-1.932 0-2.875.782-3.473 1.771l-.276-1.77h-2.208V65.95h2.484v-5.91c0-1.818.713-3.543 2.921-3.543h1.104v-2.323h-.552zm1.376 7.89c.069 2.552 2.231 4.024 5.382 4.024 2.852 0 4.991-1.426 4.991-3.68 0-2.622-2.185-3.174-4.876-3.496-1.702-.184-2.829-.322-2.829-1.426 0-.943.966-1.54 2.438-1.54 1.472 0 2.484.758 2.622 1.84h2.438c-.161-2.416-2.208-3.75-5.106-3.75-2.829-.023-4.83 1.426-4.83 3.657 0 2.438 2.116 3.013 4.807 3.335 1.817.23 2.898.322 2.898 1.587 0 .943-1.012 1.541-2.553 1.541-1.794 0-2.852-.874-2.944-2.093h-2.438zm23.587 4.024c3.013 0 5.014-1.679 5.474-4.347h-2.622c-.299 1.357-1.311 2.231-2.829 2.231-2.001 0-3.312-1.587-3.312-3.887 0-2.323 1.311-3.933 3.312-3.933 1.541 0 2.53.851 2.852 2.231h2.599c-.483-2.668-2.369-4.347-5.405-4.347-3.565 0-5.911 2.415-5.911 6.05 0 3.68 2.277 6.002 5.842 6.002zm18.14-2.3c-.506 0-.759-.16-.759-.759v-4.715c0-2.783-1.794-4.278-4.922-4.278-2.967 0-4.945 1.426-5.198 3.726h2.438c.184-1.035 1.173-1.725 2.645-1.725 1.633 0 2.576.805 2.576 2.116v.713h-2.967c-3.289 0-5.037 1.357-5.037 3.772 0 2.185 1.794 3.45 4.37 3.45 1.909 0 3.105-.828 3.887-2.024 0 1.173.552 1.886 2.162 1.886h1.311V63.79h-.506zm-3.22-2.668c-.023 1.817-1.219 3.036-3.289 3.036-1.357 0-2.185-.69-2.185-1.679 0-1.196.851-1.77 2.392-1.77h3.082v.413zm11.289-7.084c-1.909 0-3.036.76-3.772 1.68l-.276-1.542h-2.162v11.776h2.484v-5.934c0-2.392 1.173-3.84 3.151-3.84 1.863 0 2.806 1.195 2.806 3.426v6.348h2.507v-6.555c0-3.933-2.139-5.359-4.738-5.359zm7.585-4.324c-1.058 0-1.748.69-1.748 1.564 0 .966.598 1.472 1.357 1.472.276 0 .552-.092.759-.253.023.115.023.207.023.322 0 .805-.575 1.702-2.024 1.702v1.357c2.277-.023 3.703-1.288 3.703-3.519 0-1.495-.805-2.645-2.07-2.645zm5.294 13.041c0 2.14.966 3.197 3.22 3.197h2.3v-2.185h-1.748c-.943 0-1.265-.345-1.265-1.265v-6.14h2.875v-2.186h-2.875v-3.289h-2.507v3.29h-2.047v2.184h2.047v6.394zm7.005 1.771c0 .92.667 1.564 1.587 1.564.92 0 1.61-.644 1.61-1.564s-.69-1.564-1.61-1.564c-.92 0-1.587.644-1.587 1.564z" fill="#000"/><path d="M.717 11.548h7.749V33h4.125V11.548h7.749V7.889H.717v3.659zm36.295 18.08c-.79 0-1.184-.251-1.184-1.184V21.09c0-4.34-2.798-6.672-7.677-6.672-4.628 0-7.713 2.224-8.107 5.811h3.802c.287-1.614 1.83-2.69 4.126-2.69 2.547 0 4.017 1.255 4.017 3.3v1.112h-4.627c-5.13 0-7.856 2.117-7.856 5.883 0 3.408 2.798 5.381 6.815 5.381 2.978 0 4.843-1.291 6.063-3.157 0 1.83.86 2.942 3.372 2.942h2.045v-3.372h-.79zm-5.023-4.161c-.036 2.834-1.9 4.735-5.13 4.735-2.116 0-3.407-1.076-3.407-2.619 0-1.865 1.327-2.762 3.73-2.762h4.807v.646zM39.911 33h3.874v-4.663l3.3-3.444L52.503 33h4.592L49.74 22.059l6.924-7.426h-4.556l-8.323 8.897V7.889h-3.874V33zm26.619.215c4.555 0 7.64-2.762 8.286-6.385h-3.874c-.538 2.045-2.26 3.228-4.628 3.228-3.049 0-5.022-2.044-5.13-5.165v-.251h13.847a10.53 10.53 0 00.108-1.471c-.108-5.381-3.659-8.753-8.968-8.753-5.417 0-9.04 3.767-9.04 9.434 0 5.633 3.623 9.363 9.399 9.363zm-5.202-11.407c.287-2.62 2.403-4.27 4.879-4.27 2.69 0 4.592 1.543 4.914 4.27h-9.793zm42.91 7.82c-.789 0-1.184-.251-1.184-1.184V21.09c0-4.34-2.798-6.672-7.676-6.672-4.628 0-7.713 2.224-8.108 5.811h3.803c.287-1.614 1.83-2.69 4.125-2.69 2.547 0 4.018 1.255 4.018 3.3v1.112h-4.628c-5.13 0-7.856 2.117-7.856 5.883 0 3.408 2.798 5.381 6.816 5.381 2.977 0 4.843-1.291 6.063-3.157 0 1.83.861 2.942 3.372 2.942h2.044v-3.372h-.789zm-5.022-4.161c-.036 2.834-1.901 4.735-5.13 4.735-2.116 0-3.408-1.076-3.408-2.619 0-1.865 1.328-2.762 3.731-2.762h4.807v.646zm26.929-11.05c-2.87 0-4.771 1.328-5.99 2.942l-.467-2.726h-3.372v25.542h3.874v-9.758c1.148 1.65 3.121 2.798 5.955 2.798 5.023 0 8.682-3.73 8.682-9.399 0-5.883-3.659-9.398-8.682-9.398zm-.645 15.534c-3.229 0-5.345-2.547-5.345-6.206 0-3.552 2.116-6.027 5.345-6.027 3.228 0 5.381 2.475 5.381 6.099 0 3.587-2.153 6.134-5.381 6.134zm21.112 3.264c5.596 0 9.363-3.766 9.363-9.399 0-5.596-3.767-9.398-9.363-9.398s-9.363 3.802-9.363 9.399c0 5.632 3.767 9.398 9.363 9.398zm0-3.3c-3.264 0-5.381-2.547-5.381-6.098 0-3.552 2.117-6.099 5.381-6.099 3.265 0 5.417 2.547 5.417 6.099 0 3.551-2.152 6.098-5.417 6.098zm11.584-2.977c.108 3.981 3.48 6.277 8.394 6.277 4.449 0 7.785-2.224 7.785-5.74 0-4.089-3.408-4.95-7.605-5.452-2.655-.287-4.413-.502-4.413-2.224 0-1.471 1.507-2.404 3.803-2.404 2.296 0 3.874 1.184 4.089 2.87h3.803c-.251-3.767-3.444-5.847-7.964-5.847-4.412-.036-7.533 2.224-7.533 5.704 0 3.802 3.3 4.699 7.497 5.201 2.834.359 4.52.502 4.52 2.475 0 1.471-1.578 2.404-3.982 2.404-2.798 0-4.448-1.363-4.591-3.265h-3.803zM179.35 12.05c1.327 0 2.368-.968 2.368-2.332 0-1.363-1.041-2.331-2.368-2.331s-2.368.968-2.368 2.332c0 1.363 1.041 2.331 2.368 2.331zM177.377 33h3.874V14.633h-3.874V33zm8.999-4.986c0 3.336 1.507 4.986 5.023 4.986h3.587v-3.408h-2.726c-1.471 0-1.973-.538-1.973-1.973v-9.578h4.484v-3.408h-4.484v-5.13h-3.911v5.13h-3.192v3.408h3.192v9.973zm13.047-15.964c1.328 0 2.368-.968 2.368-2.332 0-1.363-1.04-2.331-2.368-2.331-1.327 0-2.367.968-2.367 2.332 0 1.363 1.04 2.331 2.367 2.331zM197.45 33h3.875V14.633h-3.875V33zm16.354.215c5.596 0 9.363-3.766 9.363-9.399 0-5.596-3.767-9.398-9.363-9.398s-9.363 3.802-9.363 9.399c0 5.632 3.767 9.398 9.363 9.398zm0-3.3c-3.265 0-5.381-2.547-5.381-6.098 0-3.552 2.116-6.099 5.381-6.099 3.264 0 5.417 2.547 5.417 6.099 0 3.551-2.153 6.098-5.417 6.098zm22.164-15.497c-2.978 0-4.736 1.184-5.884 2.619l-.43-2.404h-3.372V33h3.874v-9.255c0-3.731 1.83-5.991 4.915-5.991 2.905 0 4.376 1.865 4.376 5.345V33h3.91V22.776c0-6.134-3.336-8.358-7.389-8.358z" fill="url(#paint0_linear_3_71)"/><defs><linearGradient id="paint0_linear_3_71" x1="249" y1="27.402" x2="0" y2="27.402" gradientUnits="userSpaceOnUse"><stop stop-color="#FF4343"/><stop offset=".5" stop-color="#9C0B93"/><stop offset="1" stop-color="#4C1BB7"/></linearGradient></defs></svg>