<svg width="156" height="21" viewBox="0 0 156 21" fill="none" xmlns="http://www.w3.org/2000/svg"><path d="M3.172 6.84l-.056-2.1 5.74 15.008c.084.14.224.252.392.252h2.156a.399.399 0 00.364-.252l5.404-14.644-.028 1.68-.084 5.264-.028 7.672c0 .14.14.28.28.28h2.912c.14 0 .28-.14.28-.28l-.112-9.436.112-9.604c0-.14-.14-.28-.28-.28h-3.808a.399.399 0 00-.364.252l-5.488 15.036L4.852.652C4.768.512 4.628.4 4.46.4H.4C.26.4.12.54.12.68l.112 9.604L.12 19.72c0 .14.14.28.28.28h2.604c.14 0 .28-.14.28-.28l-.028-7.672-.084-5.208zM32.169 17.9l-.056 1.82c0 .14.14.28.28.28h2.716c.14 0 .28-.14.28-.28l-.056-7.364.084-6.496c0-.14-.14-.28-.28-.28h-2.912c-.14 0-.28.14-.28.28l.056 5.852v1.568c-.28 2.996-1.848 4.424-3.556 4.424-1.54 0-2.632-1.064-2.632-3.108v-2.884l.084-5.852c0-.14-.14-.28-.28-.28h-2.884c-.14 0-.28.14-.28.28l.084 5.852v2.968c0 3.64 1.904 5.656 4.928 5.656 2.156 0 3.78-1.092 4.704-2.436zm13.281-.196c0-.14-.14-.252-.28-.196a5.668 5.668 0 01-1.512.196c-1.064 0-1.68-.448-1.68-1.904l-.028-7.7h3.248c.14 0 .28-.14.28-.28V5.86c0-.14-.14-.28-.28-.28h-3.22l.028-3.332c0-.14-.14-.28-.28-.28H38.87c-.14 0-.28.14-.28.28l.056 3.332H37.05c-.14 0-.28.14-.28.28v1.96c0 .14.14.28.28.28h1.596l-.028 7.784c0 3.22 2.044 4.368 4.312 4.368.756 0 1.568-.168 2.268-.392a.399.399 0 00.252-.364v-1.792zm10.946.196l-.056 1.82c0 .14.14.28.28.28h2.716c.14 0 .28-.14.28-.28l-.056-7.364.084-6.496c0-.14-.14-.28-.28-.28h-2.912c-.14 0-.28.14-.28.28l.056 5.852v1.568c-.28 2.996-1.848 4.424-3.556 4.424-1.54 0-2.632-1.064-2.632-3.108v-2.884l.084-5.852c0-.14-.14-.28-.28-.28H46.96c-.14 0-.28.14-.28.28l.084 5.852v2.968c0 3.64 1.904 5.656 4.928 5.656 2.156 0 3.78-1.092 4.704-2.436zm8.24-5.292c0-3.08 1.177-4.956 3.64-4.928 2.269.028 3.557 1.876 3.529 5.208-.028 3.332-1.344 5.012-3.612 5.012-2.352 0-3.556-1.932-3.556-5.292zM74.774 20c.14 0 .28-.14.28-.28l-.084-6.972.084-6.888c0-.14-.14-.28-.28-.28h-2.856c-.14 0-.28.14-.28.28l.084 1.568c-.98-1.4-2.464-2.128-4.368-2.128-3.864 0-6.16 3.36-6.16 7.532 0 4.2 2.1 7.448 6.104 7.448 1.932 0 3.444-.84 4.424-2.268l-.056 1.708c0 .14.14.28.28.28h2.828zm5.454 0c.14 0 .28-.14.28-.28l-.112-9.576.112-9.464c0-.14-.14-.28-.28-.28H77.4c-.14 0-.28.14-.28.28l.112 9.464-.112 9.576c0 .14.14.28.28.28h2.828zM92.765 8.1H95.9c.14 0 .28-.14.28-.28V5.86c0-.14-.14-.28-.28-.28h-3.136v-.784c0-1.624.672-2.184 1.708-2.184.56 0 1.036.056 1.428.14.14.056.28-.056.28-.196V.624a.333.333 0 00-.28-.336c-.616-.084-1.428-.196-2.184-.196-2.128 0-4.256 1.176-4.256 4.396V5.58H87.5c-.14 0-.28.14-.28.28v1.96c0 .14.14.28.28.28h1.96v5.488l-.112 6.132c0 .14.14.28.28.28h2.968c.14 0 .28-.14.28-.28l-.112-6.132V8.1zm14.436 9.8l-.056 1.82c0 .14.14.28.28.28h2.716c.14 0 .28-.14.28-.28l-.056-7.364.084-6.496c0-.14-.14-.28-.28-.28h-2.912c-.14 0-.28.14-.28.28l.056 5.852v1.568c-.28 2.996-1.848 4.424-3.556 4.424-1.54 0-2.632-1.064-2.632-3.108v-2.884l.084-5.852c0-.14-.14-.28-.28-.28h-2.885c-.14 0-.28.14-.28.28l.085 5.852v2.968c0 3.64 1.903 5.656 4.928 5.656 2.156 0 3.78-1.092 4.704-2.436zm8.409 2.1c.14 0 .28-.14.28-.28l-.056-5.852V12.3c.28-2.996 1.848-4.424 3.556-4.424 1.54 0 2.632 1.064 2.632 3.108v2.884l-.084 5.852c0 .14.14.28.28.28h2.884c.14 0 .28-.14.28-.28l-.084-5.852V10.9c0-3.64-1.904-5.656-4.928-5.656-2.156 0-3.78 1.092-4.704 2.436l.056-1.82c0-.14-.14-.28-.28-.28h-2.716c-.14 0-.28.14-.28.28l.056 7.364-.084 6.496c0 .14.14.28.28.28h2.912zm14.624-7.364c0-3.108 1.176-5.04 3.64-4.984 2.268.028 3.556 1.904 3.528 5.264-.028 3.332-1.344 5.012-3.612 5.012-2.352 0-3.556-1.96-3.556-5.292zM140.37 20c.14 0 .28-.14.28-.28l-.056-9.996.056-9.044c0-.14-.14-.28-.28-.28h-2.856c-.14 0-.28.14-.28.28l.056 6.692c-.98-1.344-2.464-2.072-4.34-2.072-3.864 0-6.16 3.36-6.16 7.532 0 4.2 2.1 7.448 6.104 7.448 1.932 0 3.416-.84 4.424-2.24l-.084 1.68c0 .14.14.28.28.28h2.856zm14.919-4.284c0-6.104-9.576-3.164-9.576-6.272 0-1.4 1.064-2.016 2.716-2.016 1.876 0 2.94.812 3.192 2.268.028.168.14.28.308.28h2.576c.14 0 .28-.14.252-.28-.224-2.968-2.716-4.452-6.272-4.452-3.668 0-5.992 1.54-5.992 4.452 0 5.936 9.576 3.108 9.576 6.3 0 1.344-1.148 2.1-3.052 2.1-2.24 0-3.472-.84-3.584-2.716a.28.28 0 00-.28-.28h-2.716c-.14 0-.28.14-.28.28.14 3.248 2.8 4.956 6.748 4.956 3.64 0 6.384-1.68 6.384-4.62z" fill="#fff"/></svg>