<svg width="137" height="22" viewBox="0 0 137 22" fill="none" xmlns="http://www.w3.org/2000/svg"><rect width="137" height="22" rx="11" fill="#000"/><path d="M16.92 15c2.19 0 3.52-1.41 3.52-3.5 0-2.1-1.33-3.5-3.52-3.5h-2.24v7h2.24zm-1.37-6.2h1.37c1.7 0 2.63 1.06 2.63 2.7 0 1.63-.93 2.7-2.63 2.7h-1.37V8.8zm6.285.24c.3 0 .53-.22.53-.53 0-.31-.23-.53-.53-.53-.3 0-.53.22-.53.53 0 .31.23.53.53.53zm-.42 5.96h.82V9.9h-.82V15zm1.734-1.68c.02 1.12.93 1.74 2.25 1.74 1.13 0 2.04-.59 2.04-1.54 0-1.13-.93-1.35-2.09-1.49-.74-.09-1.28-.16-1.28-.72 0-.47.48-.77 1.19-.77.7 0 1.18.39 1.24.91h.84c-.08-1.06-.92-1.6-2.08-1.61-1.15-.01-2 .6-2 1.53 0 1.06.91 1.29 2.05 1.43.76.09 1.32.14 1.32.78 0 .47-.51.78-1.23.78-.85 0-1.38-.44-1.41-1.04h-.84zm7.49 1.74c1.24 0 2.07-.7 2.27-1.8h-.87c-.16.65-.66 1.07-1.39 1.07-.98 0-1.64-.76-1.64-1.87s.66-1.89 1.64-1.89c.75 0 1.25.41 1.4 1.09h.86c-.21-1.12-1-1.82-2.25-1.82-1.48 0-2.49 1.06-2.49 2.62 0 1.59.98 2.6 2.47 2.6zm5.519 0c1.49 0 2.53-1.06 2.53-2.61 0-1.55-1.04-2.61-2.53-2.61-1.49 0-2.53 1.06-2.53 2.61 0 1.55 1.04 2.61 2.53 2.61zm0-.73c-1.01 0-1.69-.79-1.69-1.88 0-1.09.68-1.88 1.69-1.88 1.01 0 1.69.79 1.69 1.88 0 1.09-.68 1.88-1.69 1.88zm4.646.67h.99l1.91-5.1h-.86l-1.53 4.17-1.54-4.17h-.88l1.91 5.1zm5.637.06c1.18 0 2.02-.75 2.22-1.77h-.83c-.17.66-.73 1.04-1.45 1.04-.97 0-1.58-.68-1.61-1.65v-.07h3.96c.01-.12.02-.24.02-.35-.04-1.51-.98-2.42-2.42-2.42s-2.42 1.06-2.42 2.61c0 1.56 1 2.61 2.53 2.61zm-1.62-3.13c.08-.83.77-1.37 1.52-1.37.85 0 1.45.49 1.53 1.37h-3.05zm7.226-2.03c-.91 0-1.3.38-1.54.77l-.11-.77h-.71V15h.82v-2.6c0-.81.29-1.7 1.36-1.7h.41v-.8h-.23zm3.398 2.81c.05 1.38 1.05 2.35 2.76 2.35 1.47 0 2.49-.85 2.49-2.06 0-1.36-1.17-1.74-2.31-1.93-1.05-.18-1.9-.35-1.9-1.19 0-.75.61-1.15 1.52-1.15.95 0 1.6.53 1.7 1.34h.9c-.08-1.26-1.04-2.13-2.6-2.13-1.42 0-2.39.8-2.39 1.99 0 1.36 1.16 1.73 2.29 1.92 1.06.18 1.92.36 1.92 1.23 0 .76-.67 1.19-1.61 1.19-1.07 0-1.8-.62-1.87-1.56h-.9zM61.799 15h.85V9.48L64.97 15h.77l2.32-5.52V15h.85V8h-1.08l-2.45 5.81L62.9 8h-1.1v7zm8.797 0l.74-1.89h3.05l.74 1.89h.93l-2.66-7h-1.03l-2.67 7h.9zm2.26-6.05l1.27 3.37h-2.53l1.26-3.37zM76.848 15h.87v-2.69h1.76l1.48 2.69h.98l-1.57-2.86c.9-.25 1.49-1.01 1.49-1.99 0-1.31-.93-2.15-2.33-2.15h-2.68v7zm2.62-6.2c.91 0 1.5.53 1.5 1.35 0 .82-.59 1.36-1.51 1.36h-1.74V8.8h1.75zm2.652 0h2.27V15h.87V8.8h2.27V8h-5.41v.8zm8.628 3.91c.05 1.38 1.05 2.35 2.76 2.35 1.47 0 2.49-.85 2.49-2.06 0-1.36-1.17-1.74-2.31-1.93-1.05-.18-1.9-.35-1.9-1.19 0-.75.61-1.15 1.52-1.15.95 0 1.6.53 1.7 1.34h.9c-.08-1.26-1.04-2.13-2.6-2.13-1.42 0-2.39.8-2.39 1.99 0 1.36 1.16 1.73 2.29 1.92 1.06.18 1.92.36 1.92 1.23 0 .76-.67 1.19-1.61 1.19-1.07 0-1.8-.62-1.87-1.56h-.9zm6.654-3.67c.3 0 .53-.22.53-.53 0-.31-.23-.53-.53-.53-.3 0-.53.22-.53.53 0 .31.23.53.53.53zm-.42 5.96h.82V9.9h-.82V15zm5.963-4.22c-.32-.57-.89-.94-1.75-.94-1.41 0-2.45 1.05-2.45 2.61 0 1.66 1.04 2.61 2.45 2.61.86 0 1.41-.36 1.75-.94v.6c0 1.11-.58 1.61-1.65 1.61-.85 0-1.42-.36-1.56-1h-.84c.13 1.12 1.04 1.73 2.34 1.73 1.75 0 2.53-.84 2.53-2.31V9.9h-.71l-.11.88zm-1.67 3.55c-1.01 0-1.69-.77-1.69-1.88 0-1.11.68-1.88 1.69-1.88 1 0 1.68.78 1.68 1.9 0 1.09-.68 1.86-1.68 1.86zm6.107-4.49c-.86 0-1.38.36-1.68.75l-.11-.69h-.71V15h.82v-2.55c0-1.15.58-1.86 1.54-1.86.89 0 1.38.56 1.38 1.62V15h.82v-2.84c0-1.69-.91-2.32-2.06-2.32zm7.616 4.41c-.23 0-.33-.07-.33-.34v-2.23c0-1.19-.75-1.84-2.05-1.84-1.23 0-2.04.59-2.16 1.59h.82c.1-.52.58-.86 1.3-.86.8 0 1.27.4 1.27 1.06v.35h-1.5c-1.34 0-2.05.57-2.05 1.59 0 .93.76 1.49 1.88 1.49.88 0 1.39-.39 1.71-.85.01.5.24.79.92.79h.45v-.75h-.26zm-1.15-1.33c0 .85-.59 1.44-1.61 1.44-.68 0-1.11-.34-1.11-.84 0-.58.41-.85 1.14-.85h1.58v.25zm2.04 2.08h.82V8h-.82v7zm1.733-1.68c.02 1.12.93 1.74 2.25 1.74 1.13 0 2.04-.59 2.04-1.54 0-1.13-.93-1.35-2.09-1.49-.74-.09-1.28-.16-1.28-.72 0-.47.48-.77 1.19-.77.7 0 1.18.39 1.24.91h.84c-.08-1.06-.92-1.6-2.08-1.61-1.15-.01-2 .6-2 1.53 0 1.06.91 1.29 2.05 1.43.76.09 1.32.14 1.32.78 0 .47-.51.78-1.23.78-.85 0-1.38-.44-1.41-1.04h-.84z" fill="#fff"/></svg>