<svg width="180" height="65" viewBox="0 0 180 65" fill="none" xmlns="http://www.w3.org/2000/svg"><path d="M.66 4.266h7.128V24h3.795V4.266h7.128V.9H.66v3.366zm22.079.462c1.22 0 2.178-.891 2.178-2.145S23.96.438 22.739.438s-2.178.891-2.178 2.145.957 2.145 2.178 2.145zM20.924 24h3.564V7.104h-3.564V24zM47.418 6.906c-2.772 0-4.686 1.221-5.775 3.069-1.023-2.178-3.003-3.069-5.214-3.069-2.54.033-3.993 1.155-4.95 2.409l-.396-2.211h-3.102V24h3.564v-9.042c0-3.003 1.518-4.983 3.96-4.983 2.343 0 3.564 1.551 3.564 4.521V24h3.597v-9.141c0-3.036 1.551-4.884 3.993-4.884 2.31 0 3.531 1.551 3.531 4.521V24h3.564v-9.735c0-5.346-2.838-7.359-6.336-7.359zm17.457 17.292c4.191 0 7.03-2.541 7.623-5.874h-3.564c-.495 1.881-2.079 2.97-4.257 2.97-2.805 0-4.62-1.881-4.719-4.752v-.231h12.738c.066-.462.1-.924.1-1.353-.1-4.95-3.367-8.052-8.25-8.052-4.984 0-8.317 3.465-8.317 8.679 0 5.181 3.333 8.613 8.646 8.613zM60.09 13.704c.264-2.409 2.211-3.927 4.488-3.927 2.475 0 4.224 1.419 4.521 3.927H60.09zm25.251 5.709c0 3.069 1.386 4.587 4.62 4.587h3.3v-3.135h-2.508c-1.353 0-1.815-.495-1.815-1.815v-8.811h4.125V7.104h-4.125V2.385h-3.597v4.719h-2.937v3.135h2.937v9.174zm17.819 4.785c5.148 0 8.613-3.465 8.613-8.646 0-5.148-3.465-8.646-8.613-8.646s-8.613 3.498-8.613 8.646c0 5.181 3.465 8.646 8.613 8.646zm0-3.036c-3.003 0-4.95-2.343-4.95-5.61 0-3.267 1.947-5.61 4.95-5.61s4.983 2.343 4.983 5.61c0 3.267-1.98 5.61-4.983 5.61zM2.97 59.413C2.97 62.482 4.356 64 7.59 64h3.3v-3.135H8.382c-1.353 0-1.815-.495-1.815-1.815v-8.811h4.125v-3.135H6.567v-4.719H2.97v4.719H.033v3.135H2.97v9.174zm18.734-12.309c-2.772 0-4.125 1.122-4.983 2.541l-.396-2.541h-3.168V64h3.564v-8.481c0-2.607 1.023-5.082 4.191-5.082h1.584v-3.333h-.792zm17.919 13.794c-.726 0-1.09-.231-1.09-1.089v-6.765c0-3.993-2.573-6.138-7.061-6.138-4.257 0-7.095 2.046-7.458 5.346h3.498c.264-1.485 1.683-2.475 3.795-2.475 2.343 0 3.696 1.155 3.696 3.036v1.023h-4.257c-4.72 0-7.227 1.947-7.227 5.412 0 3.135 2.574 4.95 6.27 4.95 2.739 0 4.455-1.188 5.577-2.904 0 1.683.792 2.706 3.102 2.706h1.88v-3.102h-.725zm-4.62-3.828c-.033 2.607-1.75 4.356-4.72 4.356-1.946 0-3.134-.99-3.134-2.409 0-1.716 1.22-2.541 3.432-2.541h4.422v.594zm19.995-7.623c-1.089-1.485-2.904-2.541-5.478-2.541-4.587 0-7.986 3.432-7.986 8.646 0 5.412 3.4 8.646 7.986 8.646 2.673 0 4.422-1.254 5.511-2.739l.43 2.541h3.101V40.9h-3.564v8.547zm-4.884 11.748c-2.97 0-4.917-2.31-4.917-5.643 0-3.3 1.947-5.61 4.917-5.61 2.97 0 4.917 2.31 4.917 5.676 0 3.267-1.947 5.577-4.917 5.577zm19.95 3.003c4.19 0 7.029-2.541 7.623-5.874h-3.564c-.495 1.881-2.08 2.97-4.257 2.97-2.805 0-4.62-1.881-4.72-4.752v-.231h12.739c.066-.462.099-.924.099-1.353-.1-4.95-3.366-8.052-8.25-8.052-4.983 0-8.316 3.465-8.316 8.679 0 5.181 3.333 8.613 8.646 8.613zm-4.785-10.494c.264-2.409 2.21-3.927 4.488-3.927 2.475 0 4.224 1.419 4.52 3.927H65.28zm22.94-9.438h7.129V64h3.795V44.266h7.128V40.9H88.22v3.366zm25.512 19.932c4.191 0 7.029-2.541 7.623-5.874h-3.564c-.495 1.881-2.079 2.97-4.257 2.97-2.805 0-4.62-1.881-4.719-4.752v-.231h12.738c.066-.462.099-.924.099-1.353-.099-4.95-3.366-8.052-8.25-8.052-4.983 0-8.316 3.465-8.316 8.679 0 5.181 3.333 8.613 8.646 8.613zm-4.785-10.494c.264-2.409 2.211-3.927 4.488-3.927 2.475 0 4.224 1.419 4.521 3.927h-9.009zm14.764 4.719c.099 3.663 3.201 5.775 7.722 5.775 4.092 0 7.161-2.046 7.161-5.28 0-3.762-3.135-4.554-6.996-5.016-2.442-.264-4.059-.462-4.059-2.046 0-1.353 1.386-2.211 3.498-2.211s3.564 1.089 3.762 2.64h3.498c-.231-3.465-3.168-5.379-7.326-5.379-4.059-.033-6.93 2.046-6.93 5.247 0 3.498 3.036 4.323 6.897 4.785 2.607.33 4.158.462 4.158 2.277 0 1.353-1.452 2.211-3.663 2.211-2.574 0-4.092-1.254-4.224-3.003h-3.498zM141.354 64h3.564V40.9h-3.564V64zm22.502-3.102c-.726 0-1.089-.231-1.089-1.089v-6.765c0-3.993-2.574-6.138-7.062-6.138-4.257 0-7.095 2.046-7.458 5.346h3.498c.264-1.485 1.683-2.475 3.795-2.475 2.343 0 3.696 1.155 3.696 3.036v1.023h-4.257c-4.719 0-7.227 1.947-7.227 5.412 0 3.135 2.574 4.95 6.27 4.95 2.739 0 4.455-1.188 5.577-2.904 0 1.683.792 2.706 3.102 2.706h1.881v-3.102h-.726zm-4.62-3.828c-.033 2.607-1.749 4.356-4.719 4.356-1.947 0-3.135-.99-3.135-2.409 0-1.716 1.221-2.541 3.432-2.541h4.422v.594zm9.159-8.613c0-2.739 1.65-4.587 4.191-4.587 2.211 0 3.696 1.32 3.696 3.201 0 1.584-.858 2.64-2.343 3.63-1.98 1.287-3.531 2.376-3.531 5.049v1.056h3.366v-.66c0-1.65 1.122-2.508 2.904-3.729 1.716-1.221 3.3-2.673 3.3-5.709 0-3.465-2.838-6.006-7.425-6.006-4.917 0-7.788 3.465-7.788 7.755h3.63zm1.518 13.53c0 1.32.99 2.211 2.277 2.211 1.287 0 2.244-.891 2.244-2.211 0-1.32-.957-2.211-2.244-2.211-1.287 0-2.277.891-2.277 2.211z" fill="#000"/></svg>