<svg width="140" height="28" viewBox="0 0 140 28" fill="none" xmlns="http://www.w3.org/2000/svg"><rect width="140" height="28" rx="14" fill="#000"/><path d="M24.52 19h1.305v-4.59h4.32v-1.2h-4.32V9.7h5.22V8.5H24.52V19zm8.375-8.94c.45 0 .795-.33.795-.795a.773.773 0 00-.795-.795c-.45 0-.795.33-.795.795s.345.795.795.795zm-.63 8.94h1.23v-7.65h-1.23V19zm6.665-7.74c-1.29 0-2.07.54-2.52 1.125l-.165-1.035H35.18V19h1.23v-3.825c0-1.725.87-2.79 2.31-2.79 1.335 0 2.07.84 2.07 2.43V19h1.23v-4.26c0-2.535-1.365-3.48-3.09-3.48zm10.6 1.26c-.465-.735-1.335-1.26-2.625-1.26-2.115 0-3.675 1.575-3.675 3.915 0 2.49 1.56 3.915 3.675 3.915 1.29 0 2.115-.615 2.625-1.32l.165 1.23h1.065V8.5h-1.23v4.02zm-2.505 5.475c-1.515 0-2.535-1.155-2.535-2.82 0-1.665 1.02-2.82 2.535-2.82 1.5 0 2.52 1.17 2.52 2.85 0 1.635-1.02 2.79-2.52 2.79zm12.861 1.095c2.235 0 3.795-1.59 3.795-3.915s-1.56-3.915-3.794-3.915c-2.236 0-3.795 1.59-3.795 3.915s1.56 3.915 3.794 3.915zm0-1.095c-1.515 0-2.535-1.185-2.535-2.82 0-1.635 1.02-2.82 2.535-2.82 1.515 0 2.535 1.185 2.535 2.82 0 1.635-1.02 2.82-2.535 2.82zm10.561-2.82c0 1.725-.84 2.79-2.235 2.79-1.275 0-1.995-.84-1.995-2.43V11.35h-1.23v4.26c0 2.535 1.335 3.48 3.015 3.48 1.26 0 1.995-.54 2.445-1.11l.165 1.02h1.065v-7.65h-1.23v3.825zm3.506 1.83c0 1.35.525 1.995 1.995 1.995h1.335v-1.125h-1.215c-.66 0-.885-.24-.885-.885v-4.515h1.98V11.35h-1.98V9.205h-1.23v2.145h-1.38v1.125h1.38v4.53zM90.81 11.26c-1.365 0-2.19.63-2.655 1.455-.435-.975-1.35-1.455-2.415-1.455-1.185 0-1.83.585-2.235 1.14l-.165-1.05h-1.065V19h1.23v-4.035c0-1.53.765-2.58 2.025-2.58 1.17 0 1.845.78 1.845 2.28V19h1.23v-4.095c0-1.56.78-2.52 2.055-2.52 1.155 0 1.815.78 1.815 2.28V19h1.23v-4.41c0-2.415-1.305-3.33-2.895-3.33zm7.91 7.83c2.234 0 3.794-1.59 3.794-3.915s-1.56-3.915-3.794-3.915c-2.236 0-3.796 1.59-3.796 3.915s1.56 3.915 3.795 3.915zm0-1.095c-1.516 0-2.535-1.185-2.535-2.82 0-1.635 1.02-2.82 2.534-2.82 1.515 0 2.535 1.185 2.535 2.82 0 1.635-1.02 2.82-2.535 2.82zm8.745-6.645c-1.365 0-1.95.57-2.31 1.155l-.165-1.155h-1.065V19h1.23v-3.9c0-1.215.435-2.55 2.04-2.55h.615v-1.2h-.345zm4.497 7.74c1.77 0 3.03-1.125 3.33-2.655h-1.245c-.255.99-1.095 1.56-2.175 1.56-1.455 0-2.37-1.02-2.415-2.475v-.105h5.94c.015-.18.03-.36.03-.525-.06-2.265-1.47-3.63-3.63-3.63s-3.63 1.59-3.63 3.915c0 2.34 1.5 3.915 3.795 3.915zm-2.43-4.695c.12-1.245 1.155-2.055 2.28-2.055 1.275 0 2.175.735 2.295 2.055h-4.575z" fill="#fff"/></svg>