<svg width="260" height="36" viewBox="0 0 260 36" fill="none" xmlns="http://www.w3.org/2000/svg"><path d="M.799 19.26c.152 5.32 4.142 8.968 10.754 8.968 5.852 0 9.842-3.306 9.842-8.094.038-5.244-4.256-6.65-8.664-7.448-4.18-.722-6.916-1.292-6.916-4.028 0-2.508 2.09-3.8 5.092-3.8 3.23 0 5.358 1.824 5.7 4.522h4.37c-.19-4.902-3.99-8.208-10.07-8.208-5.662 0-9.462 3.154-9.462 7.79 0 5.282 4.18 6.688 8.588 7.448 4.218.76 6.992 1.368 6.992 4.18 0 2.546-2.28 3.952-5.434 3.952-3.724 0-6.156-2.09-6.384-5.206L.799 19.26zM25.242 28h4.218V8.43L37.44 28h3.686l7.98-19.57V28h4.218V1.4h-5.548l-8.36 20.938L30.904 1.4h-5.662V28zm35.347 0l2.47-6.574h10.906L76.473 28h4.674L71.229 1.4h-5.206L56.067 28h4.522zm7.904-21.888l4.256 11.59h-8.474l4.218-11.59zM83.874 28h4.37v-9.652h5.852L99.226 28h4.864l-5.624-10.602c3.116-1.102 5.168-3.952 5.168-7.524 0-5.168-3.724-8.474-9.272-8.474H83.874V28zM94.02 5.2c3.116 0 5.13 1.824 5.13 4.674 0 2.85-2.014 4.674-5.13 4.674h-5.776V5.2h5.776zm10.596.076h8.208V28h4.37V5.276h8.208V1.4h-20.786v3.876zM137.25 19.26c.152 5.32 4.142 8.968 10.754 8.968 5.852 0 9.842-3.306 9.842-8.094.038-5.244-4.256-6.65-8.664-7.448-4.18-.722-6.916-1.292-6.916-4.028 0-2.508 2.09-3.8 5.092-3.8 3.23 0 5.358 1.824 5.7 4.522h4.37c-.19-4.902-3.99-8.208-10.07-8.208-5.662 0-9.462 3.154-9.462 7.79 0 5.282 4.18 6.688 8.588 7.448 4.218.76 6.992 1.368 6.992 4.18 0 2.546-2.28 3.952-5.434 3.952-3.724 0-6.156-2.09-6.384-5.206l-4.408-.076zm26.115-13.452c1.406 0 2.508-1.026 2.508-2.47 0-1.444-1.102-2.47-2.508-2.47s-2.508 1.026-2.508 2.47c0 1.444 1.102 2.47 2.508 2.47zM161.275 28h4.104V8.544h-4.104V28zm22.985-16.416c-1.254-1.938-3.344-3.268-6.384-3.268-5.282 0-9.196 3.914-9.196 9.88 0 6.194 3.914 9.88 9.196 9.88 3.04 0 5.054-1.254 6.346-3.192v2.166c0 3.724-2.014 5.434-5.586 5.434-2.888 0-4.788-1.254-5.282-3.42h-4.18c.38 4.37 3.99 6.764 9.158 6.764 6.992 0 9.956-3.344 9.956-8.626V8.544h-3.572l-.456 3.04zm-5.7 13.034c-3.42 0-5.662-2.622-5.662-6.422 0-3.762 2.242-6.422 5.662-6.422s5.662 2.66 5.662 6.498c0 3.724-2.242 6.346-5.662 6.346zm23.998-16.302c-3.154 0-5.016 1.254-6.232 2.774l-.456-2.546h-3.572V28h4.104v-9.804c0-3.952 1.938-6.346 5.206-6.346 3.078 0 4.636 1.976 4.636 5.662V28h4.142V17.17c0-6.498-3.534-8.854-7.828-8.854zm29.344 16.112c-.836 0-1.254-.266-1.254-1.254v-7.79c0-4.598-2.964-7.068-8.132-7.068-4.902 0-8.17 2.356-8.588 6.156h4.028c.304-1.71 1.938-2.85 4.37-2.85 2.698 0 4.256 1.33 4.256 3.496v1.178h-4.902c-5.434 0-8.322 2.242-8.322 6.232 0 3.61 2.964 5.7 7.22 5.7 3.154 0 5.13-1.368 6.422-3.344 0 1.938.912 3.116 3.572 3.116h2.166v-3.572h-.836zm-5.32-4.408c-.038 3.002-2.014 5.016-5.434 5.016-2.242 0-3.61-1.14-3.61-2.774 0-1.976 1.406-2.926 3.952-2.926h5.092v.684zm8.392 7.98h4.104V1.4h-4.104V28zm7.291-6.422c.114 4.218 3.686 6.65 8.892 6.65 4.712 0 8.246-2.356 8.246-6.08 0-4.332-3.61-5.244-8.056-5.776-2.812-.304-4.674-.532-4.674-2.356 0-1.558 1.596-2.546 4.028-2.546 2.432 0 4.104 1.254 4.332 3.04h4.028c-.266-3.99-3.648-6.194-8.436-6.194-4.674-.038-7.98 2.356-7.98 6.042 0 4.028 3.496 4.978 7.942 5.51 3.002.38 4.788.532 4.788 2.622 0 1.558-1.672 2.546-4.218 2.546-2.964 0-4.712-1.444-4.864-3.458h-4.028z" fill="#fff"/></svg>