<svg width="247" height="17" viewBox="0 0 247 17" fill="none" xmlns="http://www.w3.org/2000/svg"><path d="M.34 2.834h3.672V13h1.955V2.834h3.672V1.1H.34v1.734zm11.374.238c.629 0 1.122-.459 1.122-1.105 0-.646-.493-1.105-1.122-1.105-.63 0-1.122.459-1.122 1.105 0 .646.493 1.105 1.122 1.105zM10.779 13h1.836V4.296h-1.836V13zm13.649-8.806c-1.428 0-2.414.629-2.975 1.581-.527-1.122-1.547-1.581-2.686-1.581-1.31.017-2.057.595-2.55 1.241l-.204-1.139h-1.598V13h1.836V8.342c0-1.547.782-2.567 2.04-2.567 1.207 0 1.836.799 1.836 2.329V13h1.853V8.291c0-1.564.799-2.516 2.057-2.516 1.19 0 1.819.799 1.819 2.329V13h1.836V7.985c0-2.754-1.462-3.791-3.264-3.791zm8.993 8.908c2.159 0 3.62-1.309 3.927-3.026h-1.836c-.255.969-1.071 1.53-2.193 1.53-1.445 0-2.38-.969-2.431-2.448v-.119h6.562c.034-.238.05-.476.05-.697-.05-2.55-1.733-4.148-4.25-4.148-2.566 0-4.283 1.785-4.283 4.471 0 2.669 1.717 4.437 4.454 4.437zm-2.465-5.406c.136-1.241 1.139-2.023 2.312-2.023 1.275 0 2.176.731 2.329 2.023h-4.641zm13.008 2.941c0 1.581.714 2.363 2.38 2.363h1.7v-1.615h-1.292c-.697 0-.935-.255-.935-.935V5.911h2.125V4.296h-2.125V1.865h-1.853v2.431H42.45v1.615h1.513v4.726zm9.179 2.465c2.652 0 4.437-1.785 4.437-4.454 0-2.652-1.785-4.454-4.437-4.454s-4.437 1.802-4.437 4.454c0 2.669 1.785 4.454 4.437 4.454zm0-1.564c-1.547 0-2.55-1.207-2.55-2.89s1.003-2.89 2.55-2.89 2.567 1.207 2.567 2.89-1.02 2.89-2.567 2.89zm10.892-.901c0 1.581.714 2.363 2.38 2.363h1.7v-1.615h-1.292c-.697 0-.935-.255-.935-.935V5.911h2.125V4.296h-2.125V1.865h-1.853v2.431h-1.513v1.615h1.513v4.726zm9.65-6.341c-1.427 0-2.124.578-2.566 1.309l-.204-1.309h-1.632V13h1.836V8.631c0-1.343.527-2.618 2.159-2.618h.816V4.296h-.408zm9.232 7.106c-.374 0-.561-.119-.561-.561V7.356c0-2.057-1.326-3.162-3.638-3.162-2.193 0-3.655 1.054-3.842 2.754h1.802c.136-.765.867-1.275 1.955-1.275 1.207 0 1.904.595 1.904 1.564v.527h-2.193c-2.431 0-3.723 1.003-3.723 2.788 0 1.615 1.326 2.55 3.23 2.55 1.41 0 2.295-.612 2.873-1.496 0 .867.408 1.394 1.598 1.394h.969v-1.598h-.374zm-2.38-1.972c-.017 1.343-.901 2.244-2.431 2.244-1.003 0-1.615-.51-1.615-1.241 0-.884.629-1.309 1.768-1.309h2.278v.306zm10.3-3.927c-.56-.765-1.496-1.309-2.822-1.309-2.363 0-4.114 1.768-4.114 4.454 0 2.788 1.751 4.454 4.114 4.454 1.377 0 2.278-.646 2.84-1.411l.22 1.309h1.598V1.1h-1.836v4.403zm-2.516 6.052c-1.53 0-2.533-1.19-2.533-2.907 0-1.7 1.003-2.89 2.533-2.89s2.533 1.19 2.533 2.924c0 1.683-1.003 2.873-2.533 2.873zm10.277 1.547c2.159 0 3.621-1.309 3.927-3.026h-1.836c-.255.969-1.07 1.53-2.193 1.53-1.445 0-2.38-.969-2.43-2.448v-.119h6.561c.034-.238.051-.476.051-.697-.051-2.55-1.734-4.148-4.25-4.148-2.567 0-4.284 1.785-4.284 4.471 0 2.669 1.717 4.437 4.454 4.437zm-2.465-5.406c.136-1.241 1.14-2.023 2.312-2.023 1.275 0 2.176.731 2.329 2.023h-4.64zm16.493 5.406c2.652 0 4.437-1.785 4.437-4.454 0-2.652-1.785-4.454-4.437-4.454s-4.437 1.802-4.437 4.454c0 2.669 1.785 4.454 4.437 4.454zm0-1.564c-1.547 0-2.55-1.207-2.55-2.89s1.003-2.89 2.55-2.89 2.567 1.207 2.567 2.89-1.02 2.89-2.567 2.89zm10.504-7.344c-1.411 0-2.244.561-2.788 1.241l-.204-1.139h-1.598V13h1.836V8.614c0-1.768.867-2.839 2.329-2.839 1.377 0 2.074.884 2.074 2.533V13h1.853V8.155c0-2.907-1.581-3.961-3.502-3.961zM132.838 13h1.887V4.245l3.57 8.755h1.649l3.57-8.755V13h1.887V1.1h-2.482l-3.74 9.367-3.808-9.367h-2.533V13zm18.686.102c2.159 0 3.621-1.309 3.927-3.026h-1.836c-.255.969-1.071 1.53-2.193 1.53-1.445 0-2.38-.969-2.431-2.448v-.119h6.562c.034-.238.051-.476.051-.697-.051-2.55-1.734-4.148-4.25-4.148-2.567 0-4.284 1.785-4.284 4.471 0 2.669 1.717 4.437 4.454 4.437zm-2.465-5.406c.136-1.241 1.139-2.023 2.312-2.023 1.275 0 2.176.731 2.329 2.023h-4.641zm8.592 2.941c0 1.581.714 2.363 2.38 2.363h1.7v-1.615h-1.292c-.697 0-.935-.255-.935-.935V5.911h2.125V4.296h-2.125V1.865h-1.853v2.431h-1.513v1.615h1.513v4.726zm13.104.765c-.374 0-.561-.119-.561-.561V7.356c0-2.057-1.326-3.162-3.638-3.162-2.193 0-3.655 1.054-3.842 2.754h1.802c.136-.765.867-1.275 1.955-1.275 1.207 0 1.904.595 1.904 1.564v.527h-2.193c-2.431 0-3.723 1.003-3.723 2.788 0 1.615 1.326 2.55 3.23 2.55 1.411 0 2.295-.612 2.873-1.496 0 .867.408 1.394 1.598 1.394h.969v-1.598h-.374zm-2.38-1.972c-.017 1.343-.901 2.244-2.431 2.244-1.003 0-1.615-.51-1.615-1.241 0-.884.629-1.309 1.768-1.309h2.278v.306zm10.45 3.57h2.244l3.213-8.704h-1.938l-2.363 6.732-2.397-6.732h-1.972L178.825 13zm10.102.102c2.652 0 4.437-1.785 4.437-4.454 0-2.652-1.785-4.454-4.437-4.454s-4.437 1.802-4.437 4.454c0 2.669 1.785 4.454 4.437 4.454zm0-1.564c-1.547 0-2.55-1.207-2.55-2.89s1.003-2.89 2.55-2.89 2.567 1.207 2.567 2.89-1.02 2.89-2.567 2.89zM194.84 13h1.836V1.1h-1.836V13zm11.592-1.598c-.374 0-.561-.119-.561-.561V7.356c0-2.057-1.326-3.162-3.638-3.162-2.193 0-3.655 1.054-3.842 2.754h1.802c.136-.765.867-1.275 1.955-1.275 1.207 0 1.904.595 1.904 1.564v.527h-2.193c-2.431 0-3.723 1.003-3.723 2.788 0 1.615 1.326 2.55 3.23 2.55 1.411 0 2.295-.612 2.873-1.496 0 .867.408 1.394 1.598 1.394h.969v-1.598h-.374zm-2.38-1.972c-.017 1.343-.901 2.244-2.431 2.244-1.003 0-1.615-.51-1.615-1.241 0-.884.629-1.309 1.768-1.309h2.278v.306zm4.383 1.207c0 1.581.714 2.363 2.38 2.363h1.7v-1.615h-1.292c-.697 0-.935-.255-.935-.935V5.911h2.125V4.296h-2.125V1.865h-1.853v2.431h-1.513v1.615h1.513v4.726zm6.183-7.565c.629 0 1.122-.459 1.122-1.105 0-.646-.493-1.105-1.122-1.105-.629 0-1.122.459-1.122 1.105 0 .646.493 1.105 1.122 1.105zM213.683 13h1.836V4.296h-1.836V13zm3.636 0h1.836V1.1h-1.836V13zm4.571-9.928c.629 0 1.122-.459 1.122-1.105 0-.646-.493-1.105-1.122-1.105-.629 0-1.122.459-1.122 1.105 0 .646.493 1.105 1.122 1.105zM220.955 13h1.836V4.296h-1.836V13zm4.264-2.363c0 1.581.714 2.363 2.38 2.363h1.7v-1.615h-1.292c-.697 0-.935-.255-.935-.935V5.911h2.125V4.296h-2.125V1.865h-1.853v2.431h-1.513v1.615h1.513v4.726zm7.764 2.414l-.34.85c-.272.714-.442.884-1.156.884h-1.292V16.4h1.972c1.275 0 1.649-.629 2.193-2.04l3.944-10.064h-1.955l-2.363 6.613-2.431-6.613H229.6l3.383 8.755zm7.978-8.058c0-1.411.85-2.363 2.159-2.363 1.139 0 1.904.68 1.904 1.649 0 .816-.442 1.36-1.207 1.87-1.02.663-1.819 1.224-1.819 2.601v.544h1.734v-.34c0-.85.578-1.292 1.496-1.921.884-.629 1.7-1.377 1.7-2.941 0-1.785-1.462-3.094-3.825-3.094-2.533 0-4.012 1.785-4.012 3.995h1.87zm.782 6.97c0 .68.51 1.139 1.173 1.139s1.156-.459 1.156-1.139c0-.68-.493-1.139-1.156-1.139-.663 0-1.173.459-1.173 1.139z" fill="#000"/></svg>