<svg width="112" height="57" viewBox="0 0 112 57" fill="none" xmlns="http://www.w3.org/2000/svg"><path d="M.776 7.233c.09 1.699 1.326 2.844 3.346 2.844 1.892 0 3.14-1.03 3.14-2.548 0-1.711-1.518-2.149-3.011-2.406-1.377-.232-2.574-.464-2.574-1.75 0-1.172.914-1.828 2.33-1.828 1.35 0 2.277.76 2.432 1.93h.708c-.129-1.544-1.3-2.56-3.14-2.56C2.179.914.982 1.878.982 3.41c0 1.712 1.467 2.098 2.909 2.342 1.415.245 2.677.528 2.677 1.84 0 1.159-.979 1.854-2.433 1.854-1.518 0-2.548-.875-2.638-2.214h-.72zm10.742 2.844c1.429 0 2.523-.926 2.806-2.239h-.67c-.257 1.017-1.119 1.647-2.187 1.647-1.455 0-2.368-1.106-2.394-2.625v-.116h5.328c0-.09.013-.193.013-.27-.064-1.943-1.261-3.076-3.011-3.076-1.79 0-3.012 1.364-3.012 3.295 0 2.046 1.274 3.384 3.127 3.384zM9.125 6.191c.102-1.326 1.093-2.214 2.29-2.214 1.274 0 2.188.785 2.291 2.214H9.125zm6.92-4.093a.453.453 0 00.464-.463.453.453 0 00-.463-.463.453.453 0 00-.463.463c0 .27.206.463.463.463zM15.712 10h.657V3.475h-.657V10zm1.89-5.92h4.196l-4.375 5.405V10h5.43v-.605h-4.568l4.389-5.418v-.502h-5.071v.605zm8.798 5.997c1.428 0 2.522-.926 2.805-2.239h-.669c-.257 1.017-1.12 1.647-2.188 1.647-1.454 0-2.368-1.106-2.393-2.625v-.116h5.328c0-.09.013-.193.013-.27-.065-1.943-1.262-3.076-3.012-3.076-1.789 0-3.012 1.364-3.012 3.295 0 2.046 1.275 3.384 3.128 3.384zm-2.394-3.886c.103-1.326 1.094-2.214 2.29-2.214 1.275 0 2.189.785 2.292 2.214h-4.582zm12.939 3.886c1.84 0 3.14-1.364 3.14-3.346 0-1.969-1.3-3.333-3.14-3.333s-3.128 1.364-3.128 3.333c0 1.982 1.287 3.346 3.127 3.346zm0-.592c-1.455 0-2.459-1.132-2.459-2.754 0-1.608 1.004-2.754 2.459-2.754 1.454 0 2.458 1.146 2.458 2.754 0 1.622-1.004 2.754-2.459 2.754zm7.455-6.087c-1.197 0-1.969.618-2.342 1.467l-.103-1.39h-.566V10h.656V6.783c0-1.699.863-2.78 2.252-2.78 1.262 0 2.021.824 2.021 2.368V10h.656V6.344c0-2.059-1.094-2.947-2.574-2.947zm10.379 6.68c1.428 0 2.522-.927 2.805-2.24h-.67c-.256 1.017-1.119 1.647-2.187 1.647-1.454 0-2.368-1.106-2.394-2.625v-.116h5.328c0-.09.013-.193.013-.27-.064-1.943-1.261-3.076-3.011-3.076-1.79 0-3.012 1.364-3.012 3.295 0 2.046 1.274 3.384 3.128 3.384zM52.384 6.19c.103-1.326 1.094-2.214 2.29-2.214 1.275 0 2.188.785 2.291 2.214h-4.581zM64.71 9.395c-.386 0-.579-.128-.579-.63V5.727c0-1.492-.913-2.329-2.548-2.329-1.493 0-2.484.72-2.651 1.905h.656c.168-.798.863-1.326 1.97-1.326 1.222 0 1.917.644 1.917 1.725v.566h-2.214c-1.673 0-2.574.72-2.574 1.943 0 1.159.914 1.866 2.304 1.866 1.326 0 2.11-.604 2.51-1.415v.231c-.026.773.296 1.107 1.068 1.107h.386v-.605h-.245zm-1.235-2.033c0 1.248-.888 2.15-2.432 2.15-1.043 0-1.686-.529-1.686-1.34 0-.862.643-1.338 1.853-1.338h2.265v.528zm5.022-3.887c-1.21 0-1.725.58-1.995 1.3l-.103-1.3h-.566V10h.656V6.693c0-1.326.348-2.587 1.88-2.587h.475v-.63h-.347zm4.331-.077c-1.197 0-1.969.618-2.342 1.467l-.103-1.39h-.566V10h.656V6.783c0-1.699.862-2.78 2.252-2.78 1.262 0 2.02.824 2.02 2.368V10h.657V6.344c0-2.059-1.094-2.947-2.574-2.947zm4.362-1.3a.454.454 0 00.463-.463.454.454 0 00-.463-.463.454.454 0 00-.464.463c0 .27.206.463.464.463zM76.855 10h.656V3.475h-.656V10zm5.21-6.602c-1.196 0-1.968.618-2.341 1.467l-.103-1.39h-.567V10h.657V6.783c0-1.699.862-2.78 2.252-2.78 1.261 0 2.02.824 2.02 2.368V10h.657V6.344c0-2.059-1.094-2.947-2.574-2.947zm9.343 1.596c-.4-.965-1.274-1.596-2.484-1.596-1.79 0-3.076 1.351-3.076 3.333 0 2.06 1.287 3.346 3.076 3.346 1.222 0 2.085-.643 2.496-1.66v1.158c0 1.738-.823 2.484-2.393 2.484-1.223 0-2.072-.553-2.278-1.544h-.682c.206 1.39 1.325 2.136 2.908 2.136 2.11 0 3.102-1.003 3.102-3.05V3.475h-.566l-.103 1.519zm-2.433 4.491c-1.454 0-2.458-1.132-2.458-2.754 0-1.621 1.004-2.754 2.458-2.754 1.455 0 2.458 1.133 2.458 2.767 0 1.609-1.003 2.741-2.458 2.741zm4.35-1.492c.051 1.35 1.145 2.084 2.78 2.084 1.402 0 2.535-.707 2.535-1.866 0-1.377-1.21-1.647-2.613-1.84-1.016-.142-1.917-.257-1.917-1.171 0-.747.733-1.236 1.84-1.236 1.043 0 1.789.502 1.905 1.352h.67c-.117-1.274-1.16-1.918-2.575-1.918-1.454-.013-2.497.734-2.497 1.853 0 1.313 1.21 1.558 2.549 1.738 1.094.154 1.982.296 1.982 1.26 0 .773-.811 1.262-1.88 1.262-1.248 0-2.059-.579-2.11-1.518h-.67zM2.539 25h.708l1.93-5.482L7.019 25h.708l2.316-6.525h-.669l-2.007 5.74-1.867-5.74h-.604l-1.97 5.74-1.904-5.74H.326L2.539 25zm8.756-7.902a.453.453 0 00.463-.463.453.453 0 00-.463-.463.453.453 0 00-.463.463c0 .27.206.463.463.463zM10.961 25h.656v-6.525h-.656V25zm2.688-1.518c0 1.042.425 1.518 1.532 1.518h.952v-.605h-.901c-.682 0-.927-.257-.927-.926V19.08h1.764v-.605h-1.764v-1.827h-.656v1.827h-1.235v.605h1.235v4.402zm6.494-5.084c-1.223 0-1.982.682-2.355 1.622V15.99h-.657v9.01h.657v-3.218c0-1.699.862-2.78 2.252-2.78 1.248 0 2.02.824 2.02 2.368V25h.657v-3.656c0-2.059-1.094-2.947-2.574-2.947zm11.472 6.68c1.93 0 3.295-1.043 3.68-2.858h-.733c-.386 1.442-1.428 2.214-2.96 2.214-2.085 0-3.398-1.635-3.398-3.938 0-2.304 1.339-3.938 3.424-3.938 1.505 0 2.56.785 2.96 2.2h.733c-.399-1.801-1.763-2.844-3.655-2.844-2.535 0-4.182 1.88-4.182 4.582 0 2.728 1.608 4.581 4.13 4.581zM36.792 25h.694v-4.157h3.887V20.2h-3.886v-3.565h4.658v-.644h-5.353v9.01zm9.198 0c2.857 0 4.53-1.776 4.53-4.504 0-2.741-1.673-4.505-4.53-4.505h-2.625v9.01h2.625zm-1.93-8.365h1.93c2.458 0 3.822 1.493 3.822 3.86 0 2.356-1.364 3.862-3.822 3.862h-1.93v-7.722zm7.551 6.357c.052 1.352 1.146 2.085 2.78 2.085 1.403 0 2.535-.707 2.535-1.866 0-1.377-1.21-1.647-2.612-1.84-1.017-.142-1.918-.258-1.918-1.171 0-.747.734-1.236 1.84-1.236 1.043 0 1.79.502 1.906 1.352h.669c-.116-1.274-1.159-1.918-2.574-1.918-1.455-.013-2.497.734-2.497 1.853 0 1.313 1.21 1.557 2.548 1.738 1.094.154 1.982.296 1.982 1.26 0 .773-.81 1.262-1.879 1.262-1.248 0-2.059-.579-2.11-1.518h-.67zM63.231 25h.707l1.93-5.482L67.71 25h.708l2.317-6.525h-.67l-2.007 5.74-1.866-5.74h-.605l-1.97 5.74-1.904-5.74h-.695L63.231 25zm8.755-7.902a.453.453 0 00.464-.463.453.453 0 00-.464-.463.453.453 0 00-.463.463c0 .27.206.463.463.463zM71.652 25h.656v-6.525h-.656V25zm2.688-1.518c0 1.042.425 1.518 1.532 1.518h.952v-.605h-.9c-.683 0-.927-.257-.927-.926V19.08h1.763v-.605h-1.763v-1.827h-.657v1.827h-1.235v.605h1.235v4.402zm6.494-5.084c-1.222 0-1.982.682-2.355 1.622V15.99h-.656v9.01h.656v-3.218c0-1.699.862-2.78 2.252-2.78 1.249 0 2.02.824 2.02 2.368V25h.657v-3.656c0-2.059-1.094-2.947-2.574-2.947zM3.84 40.078c1.429 0 2.523-.927 2.806-2.24h-.67c-.257 1.017-1.12 1.647-2.187 1.647-1.455 0-2.368-1.106-2.394-2.625v-.116h5.328c0-.09.013-.193.013-.27-.064-1.943-1.261-3.076-3.012-3.076-1.789 0-3.011 1.364-3.011 3.295 0 2.046 1.274 3.384 3.127 3.384zM1.445 36.19c.103-1.326 1.094-2.214 2.291-2.214 1.274 0 2.188.785 2.291 2.214H1.445zM7.111 40h.76l2.161-2.87L12.195 40h.797l-2.535-3.334 2.407-3.192h-.747l-2.059 2.703-2.033-2.703H7.24l2.406 3.192L7.111 40zm7.305-1.52c0 1.043.424 1.52 1.531 1.52h.953v-.606h-.901c-.682 0-.927-.257-.927-.926V34.08h1.763v-.605h-1.763v-1.827h-.656v1.827H13.18v.605h1.236v4.402zm6.164 1.596c1.428 0 2.522-.926 2.806-2.239h-.67c-.257 1.017-1.12 1.647-2.188 1.647-1.454 0-2.368-1.106-2.393-2.625v-.116h5.328c0-.09.012-.193.012-.27-.064-1.943-1.26-3.076-3.011-3.076-1.789 0-3.011 1.364-3.011 3.295 0 2.046 1.274 3.384 3.127 3.384zm-2.394-3.886c.103-1.326 1.094-2.214 2.29-2.214 1.275 0 2.189.785 2.292 2.214h-4.582zm9.598-2.793c-1.197 0-1.969.618-2.342 1.467l-.103-1.39h-.566V40h.656v-3.217c0-1.699.863-2.78 2.252-2.78 1.262 0 2.021.824 2.021 2.368V40h.656v-3.656c0-2.059-1.094-2.947-2.574-2.947zm9.255 1.544c-.4-.926-1.275-1.544-2.497-1.544-1.79 0-3.076 1.364-3.076 3.333 0 2.06 1.287 3.346 3.076 3.346 1.222 0 2.072-.656 2.484-1.57L37.129 40h.566v-9.009h-.657v3.951zm-2.446 4.543c-1.454 0-2.458-1.132-2.458-2.754 0-1.608 1.004-2.754 2.458-2.754 1.454 0 2.458 1.146 2.458 2.767 0 1.609-1.004 2.741-2.458 2.741zm7.528.592c1.43 0 2.523-.926 2.806-2.239h-.67c-.256 1.017-1.119 1.647-2.187 1.647-1.454 0-2.368-1.106-2.394-2.625v-.116h5.328c0-.09.013-.193.013-.27-.064-1.943-1.261-3.076-3.011-3.076-1.79 0-3.012 1.364-3.012 3.295 0 2.046 1.274 3.384 3.127 3.384zm-2.393-3.886c.103-1.326 1.094-2.214 2.29-2.214 1.275 0 2.188.785 2.291 2.214h-4.581zm11.915-1.249c-.4-.926-1.275-1.544-2.497-1.544-1.789 0-3.076 1.364-3.076 3.333 0 2.06 1.287 3.346 3.076 3.346 1.222 0 2.072-.656 2.484-1.57L51.733 40h.566v-9.009h-.656v3.951zm-2.446 4.543c-1.454 0-2.458-1.132-2.458-2.754 0-1.608 1.004-2.754 2.458-2.754 1.455 0 2.459 1.146 2.459 2.767 0 1.609-1.004 2.741-2.459 2.741zm11.126-6.087c-1.223 0-1.982.682-2.355 1.622V30.99h-.656v9.01h.656v-3.218c0-1.699.862-2.78 2.252-2.78 1.248 0 2.02.824 2.02 2.368V40h.657v-3.656c0-2.059-1.094-2.947-2.574-2.947zm6.822 6.68c1.84 0 3.14-1.365 3.14-3.347 0-1.969-1.3-3.333-3.14-3.333s-3.128 1.364-3.128 3.333c0 1.982 1.287 3.346 3.128 3.346zm0-.593c-1.455 0-2.459-1.132-2.459-2.754 0-1.608 1.004-2.754 2.459-2.754 1.454 0 2.458 1.146 2.458 2.754 0 1.622-1.004 2.754-2.458 2.754zm9.18-2.805c0 1.712-.85 2.792-2.2 2.792-1.21 0-1.957-.823-1.957-2.38v-3.617h-.656v3.655c0 2.046 1.068 2.947 2.51 2.947 1.158 0 1.917-.617 2.29-1.454l.09 1.377h.58v-6.525h-.657v3.205zm4.865-3.205c-1.21 0-1.724.58-1.994 1.3l-.103-1.3h-.567V40h.657v-3.307c0-1.326.347-2.587 1.879-2.587h.476v-.63h-.347zm.861 4.517c.052 1.352 1.146 2.085 2.78 2.085 1.403 0 2.535-.707 2.535-1.866 0-1.377-1.21-1.647-2.612-1.84-1.017-.142-1.918-.258-1.918-1.171 0-.747.734-1.236 1.84-1.236 1.043 0 1.79.502 1.905 1.352h.67c-.116-1.275-1.159-1.918-2.574-1.918-1.455-.013-2.497.734-2.497 1.853 0 1.313 1.21 1.558 2.548 1.738 1.094.154 1.982.296 1.982 1.26 0 .773-.81 1.262-1.879 1.262-1.248 0-2.06-.579-2.11-1.519h-.67zm15.776 1.403c-.386 0-.579-.128-.579-.63v-3.038c0-1.492-.914-2.329-2.548-2.329-1.493 0-2.484.72-2.651 1.905h.656c.168-.798.862-1.326 1.97-1.326 1.222 0 1.917.644 1.917 1.725v.566h-2.214c-1.673 0-2.574.72-2.574 1.943 0 1.159.914 1.866 2.304 1.866 1.326 0 2.11-.605 2.51-1.415v.231c-.026.773.296 1.107 1.068 1.107h.386v-.605h-.245zm-1.235-2.033c0 1.248-.888 2.15-2.433 2.15-1.042 0-1.686-.529-1.686-1.34 0-.862.644-1.338 1.854-1.338h2.265v.528zm5.369-3.964c-1.197 0-1.969.618-2.342 1.467l-.103-1.39h-.566V40h.656v-3.217c0-1.699.862-2.78 2.252-2.78 1.261 0 2.021.824 2.021 2.368V40h.656v-3.656c0-2.059-1.094-2.947-2.574-2.947zm9.254 1.544c-.399-.926-1.274-1.544-2.496-1.544-1.789 0-3.076 1.364-3.076 3.333 0 2.06 1.287 3.346 3.076 3.346 1.222 0 2.072-.656 2.483-1.57l.103 1.493h.567v-9.009h-.657v3.951zm-2.445 4.543c-1.454 0-2.458-1.132-2.458-2.754 0-1.608 1.004-2.754 2.458-2.754 1.454 0 2.458 1.146 2.458 2.767 0 1.609-1.004 2.741-2.458 2.741zM7.263 52.53c0-1.712-1.52-2.149-3.012-2.406-1.377-.232-2.574-.464-2.574-1.75 0-1.172.914-1.828 2.33-1.828 1.35 0 2.277.76 2.432 1.93h.708c-.116-1.415-1.12-2.394-2.716-2.548v-1.325h-.618v1.312c-1.724.064-2.83 1.017-2.83 2.497 0 1.712 1.466 2.098 2.908 2.342 1.415.245 2.677.528 2.677 1.84 0 1.159-.979 1.854-2.433 1.854-1.518 0-2.548-.875-2.638-2.214h-.72c.09 1.609 1.196 2.729 3.036 2.832v1.312h.618v-1.313c1.712-.102 2.832-1.106 2.832-2.535zm1.218-1.827c0 2.638 1.3 4.375 3.256 4.375 1.93 0 3.243-1.737 3.243-4.375v-.412c0-2.561-1.313-4.376-3.243-4.376-1.956 0-3.256 1.815-3.256 4.376v.412zm5.817-.026c0 2.29-1.017 3.784-2.56 3.784-1.558 0-2.575-1.493-2.575-3.784v-.36c0-2.291 1.017-3.784 2.574-3.784 1.544 0 2.561 1.493 2.561 3.784v.36zm8.38 4.401c1.48 0 2.522-.849 2.78-2.175h-.695c-.22.966-1.004 1.583-2.085 1.583-1.429 0-2.42-1.12-2.42-2.74 0-1.622.978-2.768 2.42-2.768 1.094 0 1.866.618 2.098 1.596h.682c-.27-1.351-1.287-2.175-2.767-2.175-1.84 0-3.102 1.364-3.102 3.346 0 2.008 1.248 3.333 3.089 3.333zm6.938 0c1.84 0 3.14-1.364 3.14-3.346 0-1.969-1.3-3.333-3.14-3.333s-3.127 1.364-3.127 3.333c0 1.982 1.287 3.346 3.127 3.346zm0-.592c-1.454 0-2.458-1.132-2.458-2.754 0-1.608 1.004-2.754 2.458-2.754 1.455 0 2.458 1.146 2.458 2.754 0 1.622-1.003 2.754-2.458 2.754zm11.729-6.087c-1.197 0-1.97.67-2.342 1.634-.31-1.08-1.12-1.634-2.15-1.634-1.12 0-1.788.656-2.123 1.467l-.103-1.39h-.566V55h.656v-3.32c0-1.596.772-2.677 2.02-2.677 1.133 0 1.84.798 1.84 2.304V55h.657v-3.552c.039-1.493.811-2.445 2.034-2.445 1.132 0 1.814.76 1.814 2.24V55h.67v-3.783c0-1.97-1.043-2.819-2.407-2.819zm11.148 0c-1.197 0-1.97.67-2.343 1.634-.308-1.08-1.12-1.634-2.149-1.634-1.12 0-1.789.656-2.123 1.467l-.103-1.39h-.566V55h.656v-3.32c0-1.596.772-2.677 2.02-2.677 1.133 0 1.84.798 1.84 2.304V55h.657v-3.552c.039-1.493.811-2.445 2.034-2.445 1.132 0 1.814.76 1.814 2.24V55h.67v-3.783c0-1.97-1.043-2.819-2.407-2.819zm4.198-1.3a.453.453 0 00.463-.463.453.453 0 00-.463-.463.453.453 0 00-.463.463c0 .27.206.463.463.463zM56.356 55h.657v-6.525h-.657V55zm1.904-2.008c.051 1.352 1.145 2.085 2.78 2.085 1.403 0 2.535-.707 2.535-1.866 0-1.377-1.21-1.647-2.613-1.84-1.016-.142-1.917-.258-1.917-1.171 0-.747.733-1.236 1.84-1.236 1.043 0 1.79.502 1.905 1.352h.67c-.117-1.275-1.16-1.918-2.575-1.918-1.454-.013-2.496.734-2.496 1.853 0 1.313 1.21 1.558 2.548 1.738 1.094.154 1.982.296 1.982 1.26 0 .773-.811 1.262-1.88 1.262-1.248 0-2.059-.579-2.11-1.519h-.67zm6.146 0c.051 1.352 1.145 2.085 2.78 2.085 1.402 0 2.535-.707 2.535-1.866 0-1.377-1.21-1.647-2.613-1.84-1.017-.142-1.917-.258-1.917-1.171 0-.747.733-1.236 1.84-1.236 1.042 0 1.789.502 1.905 1.352h.669c-.116-1.275-1.158-1.918-2.574-1.918-1.454-.013-2.497.734-2.497 1.853 0 1.313 1.21 1.558 2.548 1.738 1.094.154 1.983.296 1.983 1.26 0 .773-.811 1.262-1.88 1.262-1.248 0-2.059-.579-2.11-1.519h-.67zm6.902-5.894a.453.453 0 00.463-.463.453.453 0 00-.463-.463.453.453 0 00-.464.463c0 .27.206.463.464.463zM70.973 55h.656v-6.525h-.656V55zm5.082.077c1.84 0 3.14-1.364 3.14-3.346 0-1.969-1.3-3.333-3.14-3.333s-3.127 1.364-3.127 3.333c0 1.982 1.287 3.346 3.127 3.346zm0-.592c-1.454 0-2.458-1.132-2.458-2.754 0-1.608 1.004-2.754 2.458-2.754 1.455 0 2.458 1.146 2.458 2.754 0 1.622-1.003 2.754-2.458 2.754zm7.456-6.087c-1.197 0-1.969.618-2.342 1.467l-.103-1.39H80.5V55h.656v-3.217c0-1.699.862-2.78 2.252-2.78 1.261 0 2.02.824 2.02 2.368V55h.657v-3.656c0-2.059-1.094-2.947-2.574-2.947zm3.95 6.177c0 .296.206.49.489.49.283 0 .489-.194.489-.49s-.206-.476-.49-.476c-.282 0-.488.18-.488.477z" fill="#000"/></svg>