<svg width="135" height="32" viewBox="0 0 135 32" fill="none" xmlns="http://www.w3.org/2000/svg"><rect y=".5" width="135" height="31" rx="15.5" fill="#14964F"/><path d="M30.328 13.748v-2.166h-8.005v2.166h2.731V21h2.543v-7.252h2.731zm1.273-2.153V21h2.53v-2.866h1.506L37.467 21h2.92l-2.113-3.202c1.305-.444 1.857-1.4 1.857-2.933 0-2.3-1.224-3.27-4.292-3.27H31.6zm2.53 2.274h1.829c1.117 0 1.534.35 1.534 1.157 0 .821-.417 1.157-1.534 1.157h-1.83V13.87zM51.822 21l-3.754-9.418h-3.323L41.033 21h3.027l.606-1.641h3.525L48.796 21h3.027zm-6.498-3.66l1.09-2.933 1.09 2.933h-2.18zm7.771-5.745V21h4.037c2.784 0 5.045-2.032 5.045-4.696 0-2.677-2.26-4.722-5.045-4.722l-4.037.013zm2.53 2.26h1.412c1.4 0 2.543 1.05 2.543 2.436 0 1.4-1.143 2.449-2.543 2.449h-1.412v-4.884zm15.927 0v-2.273h-7.71V21h7.791v-2.274h-5.26v-1.412h4.816V15.16h-4.817v-1.305h5.18zM85.257 21v-9.418h-2.489v5.26l-3.794-5.26H76.35V21h2.49v-5.247L82.633 21h2.623zm6.633-9.54c-2.785 0-5.046 2.167-5.046 4.844 0 2.664 2.26 4.83 5.046 4.83 2.785 0 5.045-2.166 5.045-4.83 0-2.677-2.26-4.843-5.045-4.843zm0 2.369c1.412 0 2.408 1.103 2.408 2.475 0 1.36-.996 2.463-2.408 2.463-1.413 0-2.395-1.104-2.395-2.463 0-1.372.982-2.475 2.395-2.475zM109.078 21l3.094-9.405h-2.825l-1.682 5.45-1.641-5.463h-2.476l-1.641 5.462-1.682-5.449h-2.826L100.494 21h2.596l1.696-5.409L106.481 21h2.597z" fill="#fff"/></svg>