<svg width="87" height="28" viewBox="0 0 87 28" fill="none" xmlns="http://www.w3.org/2000/svg"><rect x=".553" width="86" height="28" rx="14" fill="#000"/><path d="M12.998 15.952c.056 1.536 1.168 2.615 3.071 2.615 1.636 0 2.77-.946 2.77-2.292 0-1.513-1.301-1.936-2.57-2.147-1.168-.2-2.114-.39-2.114-1.325 0-.834.679-1.279 1.692-1.279 1.057 0 1.78.59 1.89 1.49h1.002c-.089-1.401-1.157-2.369-2.893-2.369-1.58 0-2.659.89-2.659 2.214 0 1.513 1.291 1.925 2.548 2.136 1.18.2 2.136.4 2.136 1.369 0 .845-.745 1.324-1.79 1.324-1.191 0-2.003-.69-2.081-1.736h-1.002zm7.36 1.068c0 1.002.389 1.48 1.479 1.48h.99v-.834h-.901c-.49 0-.656-.178-.656-.657V13.66h1.468v-.834H21.27v-1.591h-.913v1.59h-1.023v.835h1.023v3.36zm8.19.646c-.255 0-.367-.078-.367-.379v-2.48c0-1.325-.834-2.048-2.28-2.048-1.369 0-2.27.656-2.404 1.769h.913c.111-.579.645-.957 1.446-.957.89 0 1.413.445 1.413 1.18v.389H25.6c-1.49 0-2.28.634-2.28 1.769 0 1.035.845 1.658 2.091 1.658.98 0 1.547-.434 1.903-.946.01.556.267.879 1.023.879h.5v-.834h-.288zm-1.279-1.48c0 .945-.656 1.602-1.791 1.602-.757 0-1.235-.378-1.235-.935 0-.645.456-.945 1.268-.945h1.758v.278zm4.896-3.36c-1.012 0-1.446.423-1.713.856l-.123-.856h-.79V18.5h.913v-2.893c0-.9.322-1.891 1.513-1.891h.456v-.89h-.256zm1.654 4.194c0 1.002.39 1.48 1.48 1.48h.99v-.834h-.901c-.49 0-.657-.178-.657-.657V13.66h1.47v-.834h-1.47v-1.591h-.912v1.59h-1.023v.835h1.023v3.36zm6.595 0c0 1.002.39 1.48 1.48 1.48h.99v-.834h-.9c-.49 0-.657-.178-.657-.657V13.66h1.468v-.834h-1.468v-1.591h-.913v1.59h-1.023v.835h1.023v3.36zm5.887-4.194c-1.013 0-1.447.423-1.714.856l-.122-.856h-.79V18.5h.912v-2.893c0-.9.323-1.891 1.513-1.891h.456v-.89h-.255zm5.868 4.84c-.255 0-.367-.078-.367-.379v-2.48c0-1.325-.834-2.048-2.28-2.048-1.369 0-2.27.656-2.404 1.769h.913c.11-.579.645-.957 1.446-.957.89 0 1.413.445 1.413 1.18v.389h-1.669c-1.49 0-2.28.634-2.28 1.769 0 1.035.845 1.658 2.091 1.658.98 0 1.547-.434 1.903-.946.01.556.267.879 1.023.879h.5v-.834h-.288zm-1.279-1.48c0 .945-.656 1.602-1.791 1.602-.757 0-1.235-.378-1.235-.935 0-.645.456-.945 1.268-.945h1.758v.278zm6.678-2.492c-.345-.546-.99-.935-1.947-.935-1.57 0-2.726 1.168-2.726 2.904 0 1.847 1.157 2.904 2.725 2.904.957 0 1.57-.456 1.948-.98l.122.913h.79v-7.788h-.912v2.982zm-1.858 4.06c-1.124 0-1.88-.856-1.88-2.091 0-1.235.756-2.092 1.88-2.092 1.112 0 1.869.868 1.869 2.114 0 1.213-.757 2.07-1.87 2.07zm4.48-5.885c.334 0 .59-.245.59-.59a.573.573 0 00-.59-.59.573.573 0 00-.59.59c0 .345.256.59.59.59zm-.467 6.631h.912v-5.674h-.912V18.5zm4.943-5.741c-.956 0-1.535.4-1.869.835l-.122-.768h-.79V18.5h.912v-2.837c0-1.28.646-2.07 1.714-2.07.99 0 1.535.623 1.535 1.803V18.5h.912v-3.16c0-1.88-1.012-2.581-2.292-2.581zm7.928 1.046c-.356-.634-.99-1.046-1.947-1.046-1.569 0-2.726 1.168-2.726 2.904 0 1.847 1.157 2.904 2.726 2.904.957 0 1.569-.4 1.947-1.046v.668c0 1.235-.645 1.79-1.836 1.79-.945 0-1.58-.4-1.735-1.112h-.935c.145 1.246 1.157 1.925 2.604 1.925 1.947 0 2.814-.935 2.814-2.57v-5.396h-.79l-.122.979zm-1.858 3.95c-1.124 0-1.88-.857-1.88-2.092s.756-2.092 1.88-2.092c1.113 0 1.87.868 1.87 2.114 0 1.213-.757 2.07-1.87 2.07z" fill="#fff"/></svg>