<svg width="106" height="22" viewBox="0 0 106 22" fill="none" xmlns="http://www.w3.org/2000/svg"><path d="M2.926 5.151V8h1.265V5.151L7.062.3H5.643L3.564 3.82 1.54.3H.055l2.871 4.851zM9.39 8.066c1.715 0 2.87-1.155 2.87-2.882 0-1.716-1.155-2.882-2.87-2.882-1.716 0-2.871 1.166-2.871 2.882 0 1.727 1.155 2.882 2.87 2.882zm0-1.012c-1.001 0-1.65-.781-1.65-1.87s.649-1.87 1.65-1.87c1 0 1.66.781 1.66 1.87s-.66 1.87-1.66 1.87zm7.687-1.87c0 1.166-.55 1.848-1.452 1.848-.87 0-1.31-.561-1.31-1.661V2.368h-1.187v3.135c0 1.925 1.023 2.563 2.222 2.563.869 0 1.386-.352 1.738-.781L17.22 8h1.045V2.368h-1.188v2.816zm10.321 1.782c-.242 0-.363-.077-.363-.363V4.348c0-1.331-.858-2.046-2.354-2.046-1.419 0-2.365.682-2.486 1.782h1.166c.088-.495.561-.825 1.265-.825.781 0 1.232.385 1.232 1.012v.341h-1.419c-1.573 0-2.409.649-2.409 1.804 0 1.045.858 1.65 2.09 1.65.913 0 1.485-.396 1.859-.968 0 .561.264.902 1.034.902h.627V6.966h-.242zm-1.54-1.276c-.011.869-.583 1.452-1.573 1.452-.649 0-1.045-.33-1.045-.803 0-.572.407-.847 1.144-.847h1.474v.198zm5.278-3.322c-.924 0-1.375.374-1.66.847l-.133-.847h-1.056V8h1.188V5.173c0-.869.341-1.694 1.397-1.694h.528V2.368h-.264zm3.401 5.698c1.397 0 2.343-.847 2.541-1.958H35.89c-.165.627-.693.99-1.419.99-.935 0-1.54-.627-1.573-1.584v-.077h4.246c.022-.154.033-.308.033-.451-.033-1.65-1.122-2.684-2.75-2.684-1.66 0-2.772 1.155-2.772 2.893 0 1.727 1.111 2.871 2.882 2.871zm-1.595-3.498c.088-.803.737-1.309 1.496-1.309.825 0 1.408.473 1.507 1.309h-3.003zM46.1 6.966c-.242 0-.363-.077-.363-.363V4.348c0-1.331-.858-2.046-2.354-2.046-1.419 0-2.365.682-2.486 1.782h1.166c.088-.495.561-.825 1.265-.825.781 0 1.232.385 1.232 1.012v.341h-1.419c-1.573 0-2.409.649-2.409 1.804 0 1.045.858 1.65 2.09 1.65.913 0 1.485-.396 1.86-.968 0 .561.263.902 1.033.902h.627V6.966H46.1zM44.56 5.69c-.01.869-.583 1.452-1.573 1.452-.649 0-1.045-.33-1.045-.803 0-.572.407-.847 1.144-.847h1.474v.198zM46.99 8h1.187V.3H46.99V8zm8.83-5.698c-.923 0-1.561.407-1.924 1.023-.341-.726-1.001-1.023-1.738-1.023-.847.011-1.331.385-1.65.803l-.132-.737h-1.034V8h1.188V4.986c0-1.001.506-1.661 1.32-1.661.78 0 1.188.517 1.188 1.507V8h1.199V4.953c0-1.012.517-1.628 1.33-1.628.77 0 1.178.517 1.178 1.507V8h1.188V4.755c0-1.782-.946-2.453-2.112-2.453zm5.809 5.764c1.716 0 2.87-1.155 2.87-2.882 0-1.716-1.154-2.882-2.87-2.882-1.716 0-2.871 1.166-2.871 2.882 0 1.727 1.155 2.882 2.87 2.882zm0-1.012c-1.001 0-1.65-.781-1.65-1.87s.649-1.87 1.65-1.87c1 0 1.66.781 1.66 1.87s-.66 1.87-1.66 1.87zm3.552-.913c.033 1.221 1.067 1.925 2.574 1.925 1.364 0 2.387-.682 2.387-1.76 0-1.254-1.045-1.518-2.332-1.672-.814-.088-1.353-.154-1.353-.682 0-.451.462-.737 1.166-.737s1.188.363 1.254.88h1.166c-.077-1.155-1.056-1.793-2.442-1.793-1.353-.011-2.31.682-2.31 1.749 0 1.166 1.012 1.441 2.299 1.595.869.11 1.386.154 1.386.759 0 .451-.484.737-1.221.737-.858 0-1.364-.418-1.408-1.001H65.18zm6.288.33c0 1.023.463 1.529 1.54 1.529h1.1V6.955h-.835c-.451 0-.606-.165-.606-.605V3.413h1.375V2.368h-1.375V.795H71.47v1.573h-.978v1.045h.978v3.058zm9.06-4.103c-.924 0-1.375.374-1.661.847l-.132-.847H77.68V8h1.188V5.173c0-.869.34-1.694 1.397-1.694h.528V2.368h-.264zm3.4 5.698c1.398 0 2.344-.847 2.542-1.958h-1.188c-.165.627-.693.99-1.42.99-.934 0-1.54-.627-1.572-1.584v-.077h4.246c.022-.154.033-.308.033-.451-.033-1.65-1.122-2.684-2.75-2.684-1.661 0-2.772 1.155-2.772 2.893 0 1.727 1.11 2.871 2.882 2.871zm-1.594-3.498c.088-.803.737-1.309 1.496-1.309.825 0 1.408.473 1.507 1.309h-3.003zm10.343 2.398c-.242 0-.363-.077-.363-.363V4.348c0-1.331-.858-2.046-2.354-2.046-1.419 0-2.365.682-2.486 1.782h1.166c.088-.495.561-.825 1.265-.825.781 0 1.232.385 1.232 1.012v.341H89.72c-1.573 0-2.409.649-2.409 1.804 0 1.045.858 1.65 2.09 1.65.913 0 1.485-.396 1.86-.968 0 .561.263.902 1.033.902h.627V6.966h-.242zm-1.54-1.276c-.01.869-.583 1.452-1.573 1.452-.649 0-1.045-.33-1.045-.803 0-.572.407-.847 1.144-.847h1.474v.198zm6.665-2.541c-.363-.495-.968-.847-1.826-.847-1.529 0-2.662 1.144-2.662 2.882 0 1.804 1.133 2.882 2.662 2.882.891 0 1.474-.418 1.837-.913l.143.847h1.034V.3h-1.188v2.849zm-1.628 3.916c-.99 0-1.639-.77-1.639-1.881 0-1.1.65-1.87 1.64-1.87.99 0 1.638.77 1.638 1.892 0 1.089-.649 1.859-1.639 1.859zm5.605.968l-.22.55c-.176.462-.286.572-.748.572h-.836V10.2h1.276c.825 0 1.067-.407 1.419-1.32l2.552-6.512h-1.265l-1.529 4.279-1.573-4.279h-1.265l2.189 5.665zM.99 19.471C.99 20.494 1.452 21 2.53 21h1.1v-1.045h-.836c-.451 0-.605-.165-.605-.605v-2.937h1.375v-1.045H2.189v-1.573H.99v1.573H.011v1.045H.99v3.058zm5.94 1.595c1.716 0 2.87-1.155 2.87-2.882 0-1.716-1.154-2.882-2.87-2.882-1.716 0-2.871 1.166-2.871 2.882 0 1.727 1.155 2.882 2.87 2.882zm0-1.012c-1.001 0-1.65-.781-1.65-1.87s.649-1.87 1.65-1.87c1 0 1.66.781 1.66 1.87s-.66 1.87-1.66 1.87zm7.047-.583c0 1.023.462 1.529 1.54 1.529h1.1v-1.045h-.836c-.45 0-.605-.165-.605-.605v-2.937h1.375v-1.045h-1.375v-1.573h-1.199v1.573h-.979v1.045h.98v3.058zm6.245-4.103c-.924 0-1.375.374-1.661.847l-.132-.847h-1.056V21h1.188v-2.827c0-.869.341-1.694 1.397-1.694h.528v-1.111h-.264zm5.973 4.598c-.242 0-.363-.077-.363-.363v-2.255c0-1.331-.858-2.046-2.354-2.046-1.42 0-2.365.682-2.486 1.782h1.166c.088-.495.56-.825 1.265-.825.78 0 1.232.385 1.232 1.012v.341h-1.42c-1.572 0-2.408.649-2.408 1.804 0 1.045.858 1.65 2.09 1.65.913 0 1.485-.396 1.859-.968 0 .561.264.902 1.034.902h.627v-1.034h-.242zm-1.54-1.276c-.011.869-.583 1.452-1.573 1.452-.65 0-1.045-.33-1.045-.803 0-.572.407-.847 1.144-.847h1.474v.198zm6.665-2.541c-.363-.495-.968-.847-1.826-.847-1.529 0-2.662 1.144-2.662 2.882 0 1.804 1.133 2.882 2.662 2.882.891 0 1.474-.418 1.837-.913l.143.847h1.034v-7.7H31.32v2.849zm-1.628 3.916c-.99 0-1.639-.77-1.639-1.881 0-1.1.649-1.87 1.639-1.87s1.639.77 1.639 1.892c0 1.089-.649 1.859-1.639 1.859zm6.65 1.001c1.397 0 2.343-.847 2.54-1.958h-1.187c-.165.627-.693.99-1.42.99-.934 0-1.54-.627-1.572-1.584v-.077h4.246c.022-.154.033-.308.033-.451-.033-1.65-1.122-2.684-2.75-2.684-1.661 0-2.772 1.155-2.772 2.893 0 1.727 1.11 2.871 2.882 2.871zm-1.595-3.498c.088-.803.737-1.309 1.496-1.309.825 0 1.408.473 1.507 1.309h-3.003z" fill="#000"/></svg>