<svg width="259" height="24" viewBox="0 0 259 24" fill="none" xmlns="http://www.w3.org/2000/svg"><path d="M.22 1.35h2.64V8.5h.594V1.35h2.64V.8H.22v.55zm8.432 1.573c-1.034 0-1.474.495-1.705 1.111l-.088-1.111h-.484V8.5h.56V5.673c0-1.133.298-2.211 1.607-2.211h.407v-.539h-.297zm5.798 5.06c-.33 0-.495-.11-.495-.539V4.848c0-1.276-.781-1.991-2.178-1.991-1.276 0-2.123.616-2.266 1.628h.56c.144-.682.738-1.133 1.684-1.133 1.045 0 1.639.55 1.639 1.474v.484h-1.892c-1.43 0-2.2.616-2.2 1.661 0 .99.78 1.595 1.969 1.595 1.133 0 1.804-.517 2.145-1.21v.198c-.022.66.253.946.913.946h.33v-.517h-.21zm-1.056-1.738c0 1.067-.76 1.837-2.08 1.837-.89 0-1.44-.451-1.44-1.144 0-.737.55-1.144 1.584-1.144h1.936v.451zm6.483-2.068c-.34-.792-1.089-1.32-2.134-1.32-1.529 0-2.629 1.166-2.629 2.849 0 1.76 1.1 2.86 2.63 2.86 1.044 0 1.77-.561 2.122-1.342l.088 1.276h.484V.8h-.56v3.377zm-2.09 3.883c-1.243 0-2.1-.968-2.1-2.354 0-1.375.857-2.354 2.1-2.354s2.101.979 2.101 2.365c0 1.375-.858 2.343-2.1 2.343zm6.435.506c1.22 0 2.156-.792 2.398-1.914h-.572c-.22.869-.957 1.408-1.87 1.408-1.243 0-2.024-.946-2.046-2.244v-.099h4.554c0-.077.01-.165.01-.231-.054-1.661-1.077-2.629-2.573-2.629-1.53 0-2.574 1.166-2.574 2.816 0 1.749 1.089 2.893 2.673 2.893zm-2.046-3.322c.088-1.133.935-1.892 1.958-1.892 1.089 0 1.87.671 1.958 1.892h-3.916zm9.012 1.958c0 .891.363 1.298 1.31 1.298h.813v-.517h-.77c-.583 0-.792-.22-.792-.792V3.44h1.507v-.517H31.75V1.361h-.56v1.562h-1.057v.517h1.056v3.762zm5.55-4.345c-1.044 0-1.693.583-2.012 1.386V.8h-.561v7.7h.56V5.75c0-1.452.738-2.376 1.926-2.376 1.067 0 1.727.704 1.727 2.024V8.5h.56V5.376c0-1.76-.934-2.519-2.2-2.519zm5.831 5.709c1.221 0 2.156-.792 2.398-1.914h-.572c-.22.869-.957 1.408-1.87 1.408-1.243 0-2.024-.946-2.046-2.244v-.099h4.554c0-.077.011-.165.011-.231-.055-1.661-1.078-2.629-2.574-2.629-1.529 0-2.574 1.166-2.574 2.816 0 1.749 1.09 2.893 2.673 2.893zm-2.046-3.322c.088-1.133.935-1.892 1.958-1.892 1.09 0 1.87.671 1.958 1.892h-3.916zM49.118 8.5h.561V.8h-.561v7.7zm4.344.066c1.22 0 2.156-.792 2.398-1.914h-.572c-.22.869-.957 1.408-1.87 1.408-1.243 0-2.024-.946-2.046-2.244v-.099h4.554c0-.077.01-.165.01-.231-.054-1.661-1.077-2.629-2.573-2.629-1.53 0-2.574 1.166-2.574 2.816 0 1.749 1.089 2.893 2.673 2.893zm-2.046-3.322c.088-1.133.935-1.892 1.958-1.892 1.089 0 1.87.671 1.958 1.892h-3.916zm10.536 2.739c-.33 0-.495-.11-.495-.539V4.848c0-1.276-.781-1.991-2.178-1.991-1.276 0-2.123.616-2.266 1.628h.56c.144-.682.738-1.133 1.684-1.133 1.045 0 1.639.55 1.639 1.474v.484h-1.892c-1.43 0-2.2.616-2.2 1.661 0 .99.78 1.595 1.969 1.595 1.133 0 1.804-.517 2.145-1.21v.198c-.022.66.253.946.913.946h.33v-.517h-.21zm-1.056-1.738c0 1.067-.76 1.837-2.08 1.837-.89 0-1.44-.451-1.44-1.144 0-.737.55-1.144 1.584-1.144h1.936v.451zm6.483-2.068c-.341-.792-1.089-1.32-2.134-1.32-1.529 0-2.629 1.166-2.629 2.849 0 1.76 1.1 2.86 2.629 2.86 1.045 0 1.771-.561 2.123-1.342l.088 1.276h.484V.8h-.561v3.377zm-2.09 3.883c-1.243 0-2.101-.968-2.101-2.354 0-1.375.858-2.354 2.101-2.354 1.243 0 2.101.979 2.101 2.365 0 1.375-.858 2.343-2.101 2.343zm6.435.506c1.22 0 2.156-.792 2.398-1.914h-.572c-.22.869-.957 1.408-1.87 1.408-1.243 0-2.024-.946-2.046-2.244v-.099h4.554c0-.077.01-.165.01-.231-.054-1.661-1.077-2.629-2.573-2.629-1.53 0-2.574 1.166-2.574 2.816 0 1.749 1.089 2.893 2.673 2.893zm-2.046-3.322c.088-1.133.935-1.892 1.958-1.892 1.089 0 1.87.671 1.958 1.892h-3.916zm7.907-2.321c-1.034 0-1.474.495-1.706 1.111l-.088-1.111h-.483V8.5h.56V5.673c0-1.133.297-2.211 1.607-2.211h.407v-.539h-.297zm.735 3.861c.044 1.155.98 1.782 2.376 1.782 1.2 0 2.167-.605 2.167-1.595 0-1.177-1.034-1.408-2.233-1.573-.869-.121-1.639-.22-1.639-1.001 0-.638.627-1.056 1.573-1.056.891 0 1.53.429 1.628 1.155h.572c-.099-1.089-.99-1.639-2.2-1.639-1.243-.011-2.134.627-2.134 1.584 0 1.122 1.034 1.331 2.178 1.485.935.132 1.694.253 1.694 1.078 0 .66-.693 1.078-1.606 1.078-1.067 0-1.76-.495-1.804-1.298h-.572zm8.187-3.927c-1.045 0-1.694.583-2.013 1.386V.8h-.56v7.7h.56V5.75c0-1.452.737-2.376 1.925-2.376 1.067 0 1.727.704 1.727 2.024V8.5h.561V5.376c0-1.76-.935-2.519-2.2-2.519zm3.739-1.111c.22 0 .396-.165.396-.396a.388.388 0 00-.396-.396.388.388 0 00-.396.396c0 .231.176.396.396.396zM89.96 8.5h.56V2.923h-.56V8.5zm4.575-5.643c-1.045 0-1.771.561-2.123 1.342l-.088-1.276h-.484V10.7h.56V7.213c.32.814 1.079 1.353 2.135 1.353 1.529 0 2.629-1.166 2.629-2.86 0-1.749-1.1-2.849-2.63-2.849zM94.49 8.06c-1.243 0-2.101-.968-2.101-2.365 0-1.364.858-2.343 2.1-2.343 1.244 0 2.102.979 2.102 2.354 0 1.386-.858 2.354-2.101 2.354zm9.025-5.137c-1.034 0-1.474.495-1.705 1.111l-.088-1.111h-.484V8.5h.561V5.673c0-1.133.297-2.211 1.606-2.211h.407v-.539h-.297zm5.798 5.06c-.33 0-.495-.11-.495-.539V4.848c0-1.276-.781-1.991-2.178-1.991-1.276 0-2.123.616-2.266 1.628h.561c.143-.682.737-1.133 1.683-1.133 1.045 0 1.639.55 1.639 1.474v.484h-1.892c-1.43 0-2.2.616-2.2 1.661 0 .99.781 1.595 1.969 1.595 1.133 0 1.804-.517 2.145-1.21v.198c-.022.66.253.946.913.946h.33v-.517h-.209zm-1.056-1.738c0 1.067-.759 1.837-2.079 1.837-.891 0-1.441-.451-1.441-1.144 0-.737.55-1.144 1.584-1.144h1.936v.451zm4.36 2.321c1.265 0 2.156-.726 2.376-1.859h-.594c-.187.825-.858 1.353-1.782 1.353-1.221 0-2.068-.957-2.068-2.343 0-1.386.836-2.365 2.068-2.365.935 0 1.595.528 1.793 1.364h.583c-.231-1.155-1.1-1.859-2.365-1.859-1.573 0-2.651 1.166-2.651 2.86 0 1.716 1.067 2.849 2.64 2.849zm5.931 0c1.221 0 2.156-.792 2.398-1.914h-.572c-.22.869-.957 1.408-1.87 1.408-1.243 0-2.024-.946-2.046-2.244v-.099h4.554c0-.077.011-.165.011-.231-.055-1.661-1.078-2.629-2.574-2.629-1.529 0-2.574 1.166-2.574 2.816 0 1.749 1.089 2.893 2.673 2.893zm-2.046-3.322c.088-1.133.935-1.892 1.958-1.892 1.089 0 1.87.671 1.958 1.892h-3.916zM126.715 8.5h.671l2.178-5.577h-.583l-1.914 4.928-1.925-4.928h-.605l2.178 5.577zm5.842.066c1.573 0 2.684-1.166 2.684-2.86 0-1.683-1.111-2.849-2.684-2.849-1.573 0-2.673 1.166-2.673 2.849 0 1.694 1.1 2.86 2.673 2.86zm0-.506c-1.243 0-2.101-.968-2.101-2.354 0-1.375.858-2.354 2.101-2.354 1.243 0 2.101.979 2.101 2.354 0 1.386-.858 2.354-2.101 2.354zm3.798.44h.561V.8h-.561v7.7zm6.786-.517c-.33 0-.495-.11-.495-.539V4.848c0-1.276-.781-1.991-2.178-1.991-1.276 0-2.123.616-2.266 1.628h.561c.143-.682.737-1.133 1.683-1.133 1.045 0 1.639.55 1.639 1.474v.484h-1.892c-1.43 0-2.2.616-2.2 1.661 0 .99.781 1.595 1.969 1.595 1.133 0 1.804-.517 2.145-1.21v.198c-.022.66.253.946.913.946h.33v-.517h-.209zm-1.056-1.738c0 1.067-.759 1.837-2.079 1.837-.891 0-1.441-.451-1.441-1.144 0-.737.55-1.144 1.584-1.144h1.936v.451zm2.433.957c0 .891.363 1.298 1.309 1.298h.814v-.517h-.77c-.583 0-.792-.22-.792-.792V3.44h1.507v-.517h-1.507V1.361h-.561v1.562h-1.056v.517h1.056v3.762zm3.263-5.456c.22 0 .396-.165.396-.396a.388.388 0 00-.396-.396.388.388 0 00-.396.396c0 .231.176.396.396.396zm-.286 6.754h.561V2.923h-.561V8.5zm1.88 0h.561V.8h-.561v7.7zm2.166-6.754c.22 0 .396-.165.396-.396a.388.388 0 00-.396-.396.388.388 0 00-.396.396c0 .231.176.396.396.396zm-.286 6.754h.561V2.923h-.561V8.5zm2.298-1.298c0 .891.363 1.298 1.309 1.298h.814v-.517h-.77c-.583 0-.792-.22-.792-.792V3.44h1.507v-.517h-1.507V1.361h-.561v1.562h-1.056v.517h1.056v3.762zm4.648 1.298l-.363.902c-.253.616-.352.781-.924.781h-.704v.517h.858c.748 0 .924-.286 1.276-1.166l2.673-6.611h-.605l-1.903 4.851-1.936-4.851h-.605l2.233 5.577zm7.888 0h.605l1.65-4.686 1.573 4.686h.605l1.98-5.577h-.572l-1.716 4.906-1.595-4.906h-.517l-1.683 4.906-1.628-4.906h-.594l1.892 5.577zm7.484-6.754c.22 0 .396-.165.396-.396a.388.388 0 00-.396-.396.388.388 0 00-.396.396c0 .231.176.396.396.396zm-.286 6.754h.561V2.923h-.561V8.5zm2.298-1.298c0 .891.363 1.298 1.309 1.298h.814v-.517h-.77c-.583 0-.792-.22-.792-.792V3.44h1.507v-.517h-1.507V1.361h-.561v1.562h-1.056v.517h1.056v3.762zm5.55-4.345c-1.045 0-1.694.583-2.013 1.386V.8h-.561v7.7h.561V5.75c0-1.452.737-2.376 1.925-2.376 1.067 0 1.727.704 1.727 2.024V8.5h.561V5.376c0-1.76-.935-2.519-2.2-2.519zm12.644 0c-1.023 0-1.683.572-2.002 1.397-.264-.924-.957-1.397-1.837-1.397-.957 0-1.529.561-1.815 1.254l-.088-1.188h-.484V8.5h.561V5.662c0-1.364.66-2.288 1.727-2.288.968 0 1.573.682 1.573 1.969V8.5h.561V5.464c.033-1.276.693-2.09 1.738-2.09.968 0 1.551.649 1.551 1.914V8.5h.572V5.266c0-1.683-.891-2.409-2.057-2.409zm8.208 5.126c-.33 0-.495-.11-.495-.539V4.848c0-1.276-.781-1.991-2.178-1.991-1.276 0-2.123.616-2.266 1.628h.561c.143-.682.737-1.133 1.683-1.133 1.045 0 1.639.55 1.639 1.474v.484h-1.892c-1.43 0-2.2.616-2.2 1.661 0 .99.781 1.595 1.969 1.595 1.133 0 1.804-.517 2.145-1.21v.198c-.022.66.253.946.913.946h.33v-.517h-.209zm-1.056-1.738c0 1.067-.759 1.837-2.079 1.837-.891 0-1.441-.451-1.441-1.144 0-.737.55-1.144 1.584-1.144h1.936v.451zm4.292-3.322c-1.034 0-1.474.495-1.705 1.111l-.088-1.111h-.484V8.5h.561V5.673c0-1.133.297-2.211 1.606-2.211h.407v-.539h-.297zm1.128 5.577h.561V6.993l1.309-1.342 2.134 2.849h.682l-2.431-3.256 2.244-2.321h-.693l-3.245 3.344V.8h-.561v7.7zm7.599.066c1.221 0 2.156-.792 2.398-1.914h-.572c-.22.869-.957 1.408-1.87 1.408-1.243 0-2.024-.946-2.046-2.244v-.099h4.554c0-.077.011-.165.011-.231-.055-1.661-1.078-2.629-2.574-2.629-1.529 0-2.574 1.166-2.574 2.816 0 1.749 1.089 2.893 2.673 2.893zm-2.046-3.322c.088-1.133.935-1.892 1.958-1.892 1.089 0 1.87.671 1.958 1.892h-3.916zm5.962 1.958c0 .891.363 1.298 1.309 1.298h.814v-.517h-.77c-.583 0-.792-.22-.792-.792V3.44h1.507v-.517h-1.507V1.361h-.561v1.562h-1.056v.517h1.056v3.762zm6.164-1.595v-.473h-3.553v.473h3.553zm1.314 2.893h.561V.8h-.561v7.7zm4.343.066c1.221 0 2.156-.792 2.398-1.914h-.572c-.22.869-.957 1.408-1.87 1.408-1.243 0-2.024-.946-2.046-2.244v-.099h4.554c0-.077.011-.165.011-.231-.055-1.661-1.078-2.629-2.574-2.629-1.529 0-2.574 1.166-2.574 2.816 0 1.749 1.089 2.893 2.673 2.893zm-2.046-3.322c.088-1.133.935-1.892 1.958-1.892 1.089 0 1.87.671 1.958 1.892h-3.916zm10.536 2.739c-.33 0-.495-.11-.495-.539V4.848c0-1.276-.781-1.991-2.178-1.991-1.276 0-2.123.616-2.266 1.628h.561c.143-.682.737-1.133 1.683-1.133 1.045 0 1.639.55 1.639 1.474v.484h-1.892c-1.43 0-2.2.616-2.2 1.661 0 .99.781 1.595 1.969 1.595 1.133 0 1.804-.517 2.145-1.21v.198c-.022.66.253.946.913.946h.33v-.517h-.209zm-1.056-1.738c0 1.067-.759 1.837-2.079 1.837-.891 0-1.441-.451-1.441-1.144 0-.737.55-1.144 1.584-1.144h1.936v.451zm6.484-2.068c-.341-.792-1.089-1.32-2.134-1.32-1.529 0-2.629 1.166-2.629 2.849 0 1.76 1.1 2.86 2.629 2.86 1.045 0 1.771-.561 2.123-1.342l.088 1.276h.484V.8h-.561v3.377zm-2.09 3.883c-1.243 0-2.101-.968-2.101-2.354 0-1.375.858-2.354 2.101-2.354 1.243 0 2.101.979 2.101 2.365 0 1.375-.858 2.343-2.101 2.343zm4.256-6.314c.22 0 .396-.165.396-.396a.388.388 0 00-.396-.396.388.388 0 00-.396.396c0 .231.176.396.396.396zm-.286 6.754h.561V2.923h-.561V8.5zm4.454-5.643c-1.023 0-1.683.528-2.002 1.254l-.088-1.188h-.484V8.5h.561V5.75c0-1.452.737-2.376 1.925-2.376 1.078 0 1.727.704 1.727 2.024V8.5h.561V5.376c0-1.76-.935-2.519-2.2-2.519zm7.985 1.364c-.341-.825-1.089-1.364-2.123-1.364-1.529 0-2.629 1.155-2.629 2.849 0 1.76 1.1 2.86 2.629 2.86 1.045 0 1.782-.55 2.134-1.419v.99c0 1.485-.704 2.123-2.046 2.123-1.045 0-1.771-.473-1.947-1.32h-.583c.176 1.188 1.133 1.826 2.486 1.826 1.804 0 2.651-.858 2.651-2.607V2.923h-.484l-.088 1.298zm-2.079 3.839c-1.243 0-2.101-.968-2.101-2.354 0-1.386.858-2.354 2.101-2.354 1.243 0 2.101.968 2.101 2.365 0 1.375-.858 2.343-2.101 2.343zM.407 19.784c.044 1.155.979 1.782 2.376 1.782 1.199 0 2.167-.605 2.167-1.595 0-1.177-1.034-1.408-2.233-1.573-.869-.121-1.639-.22-1.639-1.001 0-.638.627-1.056 1.573-1.056.891 0 1.529.429 1.628 1.155h.572c-.099-1.089-.99-1.639-2.2-1.639-1.243-.011-2.134.627-2.134 1.584 0 1.122 1.034 1.331 2.178 1.485.935.132 1.694.253 1.694 1.078 0 .66-.693 1.078-1.606 1.078-1.067 0-1.76-.495-1.804-1.298H.407zm8.308-3.927c-1.045 0-1.77.561-2.123 1.342l-.088-1.276H6.02V23.7h.561v-3.487c.32.814 1.078 1.353 2.134 1.353 1.53 0 2.63-1.166 2.63-2.86 0-1.749-1.1-2.849-2.63-2.849zm-.044 5.203c-1.243 0-2.1-.968-2.1-2.365 0-1.364.857-2.343 2.1-2.343s2.101.979 2.101 2.354c0 1.386-.858 2.354-2.1 2.354zm6.06-5.137c-1.033 0-1.473.495-1.704 1.111l-.088-1.111h-.484V21.5h.56v-2.827c0-1.133.298-2.211 1.607-2.211h.407v-.539h-.297zm3.196 5.643c1.22 0 2.156-.792 2.398-1.914h-.572c-.22.869-.957 1.408-1.87 1.408-1.243 0-2.024-.946-2.046-2.244v-.099h4.554c0-.077.01-.165.01-.231-.054-1.661-1.077-2.629-2.573-2.629-1.53 0-2.574 1.166-2.574 2.816 0 1.749 1.089 2.893 2.673 2.893zm-2.046-3.322c.088-1.133.935-1.892 1.958-1.892 1.089 0 1.87.671 1.958 1.892H15.88zm10.536 2.739c-.33 0-.495-.11-.495-.539v-2.596c0-1.276-.781-1.991-2.178-1.991-1.276 0-2.123.616-2.266 1.628h.56c.144-.682.738-1.133 1.684-1.133 1.045 0 1.639.55 1.639 1.474v.484h-1.892c-1.43 0-2.2.616-2.2 1.661 0 .99.78 1.595 1.969 1.595 1.133 0 1.804-.517 2.145-1.21v.198c-.022.66.253.946.913.946h.33v-.517h-.21zm-1.056-1.738c0 1.067-.76 1.837-2.08 1.837-.89 0-1.44-.451-1.44-1.144 0-.737.55-1.144 1.584-1.144h1.936v.451zm6.483-2.068c-.341-.792-1.09-1.32-2.134-1.32-1.53 0-2.63 1.166-2.63 2.849 0 1.76 1.1 2.86 2.63 2.86 1.045 0 1.77-.561 2.123-1.342l.088 1.276h.484v-7.7h-.561v3.377zm-2.09 3.883c-1.243 0-2.101-.968-2.101-2.354 0-1.375.858-2.354 2.1-2.354 1.244 0 2.102.979 2.102 2.365 0 1.375-.858 2.343-2.101 2.343zm3.717-1.276c.045 1.155.98 1.782 2.377 1.782 1.199 0 2.166-.605 2.166-1.595 0-1.177-1.034-1.408-2.233-1.573-.868-.121-1.639-.22-1.639-1.001 0-.638.627-1.056 1.573-1.056.891 0 1.53.429 1.628 1.155h.572c-.099-1.089-.99-1.639-2.2-1.639-1.243-.011-2.134.627-2.134 1.584 0 1.122 1.034 1.331 2.178 1.485.935.132 1.694.253 1.694 1.078 0 .66-.693 1.078-1.606 1.078-1.066 0-1.76-.495-1.803-1.298h-.572zm11.043 1.782c1.573 0 2.684-1.166 2.684-2.86 0-1.683-1.111-2.849-2.684-2.849-1.573 0-2.673 1.166-2.673 2.849 0 1.694 1.1 2.86 2.673 2.86zm0-.506c-1.243 0-2.101-.968-2.101-2.354 0-1.375.858-2.354 2.1-2.354 1.244 0 2.102.979 2.102 2.354 0 1.386-.858 2.354-2.101 2.354zm6.372-5.203c-1.023 0-1.683.528-2.002 1.254l-.088-1.188h-.484V21.5h.561v-2.75c0-1.452.737-2.376 1.925-2.376 1.078 0 1.727.704 1.727 2.024V21.5h.561v-3.124c0-1.76-.935-2.519-2.2-2.519zm9.74 5.709c1.54 0 2.453-.847 2.783-1.771l.033 1.705h.517v-4.015h-3.102v.55h2.53v.33c0 1.507-1.045 2.651-2.75 2.651-1.727 0-2.871-1.386-2.871-3.366 0-1.969 1.144-3.366 2.926-3.366 1.298 0 2.2.671 2.519 1.881h.638c-.32-1.54-1.518-2.431-3.135-2.431-2.178 0-3.564 1.606-3.564 3.916 0 2.321 1.419 3.916 3.476 3.916zm4.93-.066h2.674c1.793 0 2.717-.814 2.717-2.145 0-1.1-.715-1.683-1.738-1.837.858-.22 1.386-.803 1.386-1.738 0-1.221-.858-1.98-2.41-1.98h-2.628v7.7zm2.652-7.161c1.155 0 1.793.561 1.793 1.474 0 .924-.65 1.485-1.793 1.485H66.15v-2.959h2.057zm.022 3.498c1.33 0 2.1.539 2.1 1.551 0 .968-.714 1.573-2.1 1.573h-2.08v-3.124h2.08zm3.998 3.663h.594v-3.212h2.266c1.452 0 2.409-.902 2.409-2.244s-.947-2.244-2.41-2.244h-2.86v7.7zm2.816-7.15c1.133 0 1.847.682 1.847 1.694 0 1.001-.726 1.694-1.859 1.694h-2.21V14.35h2.221zm9.05 1.507c-1.046 0-1.772.561-2.124 1.342l-.088-1.276h-.484V23.7h.561v-3.487c.32.814 1.078 1.353 2.134 1.353 1.53 0 2.63-1.166 2.63-2.86 0-1.749-1.1-2.849-2.63-2.849zm-.045 5.203c-1.243 0-2.1-.968-2.1-2.365 0-1.364.857-2.343 2.1-2.343s2.101.979 2.101 2.354c0 1.386-.858 2.354-2.1 2.354zm8.69-.077c-.33 0-.495-.11-.495-.539v-2.596c0-1.276-.781-1.991-2.178-1.991-1.276 0-2.123.616-2.266 1.628h.56c.144-.682.738-1.133 1.684-1.133 1.045 0 1.639.55 1.639 1.474v.484H89.79c-1.43 0-2.2.616-2.2 1.661 0 .99.78 1.595 1.969 1.595 1.133 0 1.804-.517 2.145-1.21v.198c-.022.66.253.946.913.946h.33v-.517h-.21zm-1.056-1.738c0 1.067-.76 1.837-2.08 1.837-.89 0-1.44-.451-1.44-1.144 0-.737.55-1.144 1.584-1.144h1.936v.451zm2.301-4.499c.22 0 .396-.165.396-.396a.388.388 0 00-.396-.396.388.388 0 00-.396.396c0 .231.176.396.396.396zm-.286 6.754h.561v-5.577h-.56V21.5zm4.157-5.577c-1.034 0-1.474.495-1.705 1.111l-.088-1.111h-.484V21.5h.561v-2.827c0-1.133.297-2.211 1.606-2.211h.407v-.539h-.297zm.736 3.861c.044 1.155.979 1.782 2.376 1.782 1.199 0 2.167-.605 2.167-1.595 0-1.177-1.034-1.408-2.233-1.573-.869-.121-1.64-.22-1.64-1.001 0-.638.628-1.056 1.574-1.056.891 0 1.529.429 1.628 1.155h.572c-.099-1.089-.99-1.639-2.2-1.639-1.243-.011-2.134.627-2.134 1.584 0 1.122 1.034 1.331 2.178 1.485.935.132 1.694.253 1.694 1.078 0 .66-.693 1.078-1.606 1.078-1.067 0-1.76-.495-1.804-1.298h-.572zm13.484 1.199c-.33 0-.495-.11-.495-.539v-2.596c0-1.276-.781-1.991-2.178-1.991-1.276 0-2.123.616-2.266 1.628h.561c.143-.682.737-1.133 1.683-1.133 1.045 0 1.639.55 1.639 1.474v.484h-1.892c-1.43 0-2.2.616-2.2 1.661 0 .99.781 1.595 1.969 1.595 1.133 0 1.804-.517 2.145-1.21v.198c-.022.66.253.946.913.946h.33v-.517h-.209zm-1.056-1.738c0 1.067-.759 1.837-2.079 1.837-.891 0-1.441-.451-1.441-1.144 0-.737.55-1.144 1.584-1.144h1.936v.451zm4.589-3.388c-1.023 0-1.683.528-2.002 1.254l-.088-1.188h-.484V21.5h.561v-2.75c0-1.452.737-2.376 1.925-2.376 1.078 0 1.727.704 1.727 2.024V21.5h.561v-3.124c0-1.76-.935-2.519-2.2-2.519zm7.91 1.32c-.341-.792-1.089-1.32-2.134-1.32-1.529 0-2.629 1.166-2.629 2.849 0 1.76 1.1 2.86 2.629 2.86 1.045 0 1.771-.561 2.123-1.342l.088 1.276h.484v-7.7h-.561v3.377zm-2.09 3.883c-1.243 0-2.101-.968-2.101-2.354 0-1.375.858-2.354 2.101-2.354 1.243 0 2.101.979 2.101 2.365 0 1.375-.858 2.343-2.101 2.343zm7.353-.858c0 .891.363 1.298 1.309 1.298h.814v-.517h-.77c-.583 0-.792-.22-.792-.792V16.44h1.507v-.517h-1.507v-1.562h-.561v1.562h-1.056v.517h1.056v3.762zm5.551-4.345c-1.045 0-1.694.583-2.013 1.386V13.8h-.561v7.7h.561v-2.75c0-1.452.737-2.376 1.925-2.376 1.067 0 1.727.704 1.727 2.024V21.5h.561v-3.124c0-1.76-.935-2.519-2.2-2.519zm5.83 5.709c1.221 0 2.156-.792 2.398-1.914h-.572c-.22.869-.957 1.408-1.87 1.408-1.243 0-2.024-.946-2.046-2.244v-.099h4.554c0-.077.011-.165.011-.231-.055-1.661-1.078-2.629-2.574-2.629-1.529 0-2.574 1.166-2.574 2.816 0 1.749 1.089 2.893 2.673 2.893zm-2.046-3.322c.088-1.133.935-1.892 1.958-1.892 1.089 0 1.87.671 1.958 1.892h-3.916zm8.727 3.256h.594v-3.553h3.322v-.55h-3.322V14.35h3.982v-.55h-4.576v7.7zm5.078-7.15h2.64v7.15h.594v-7.15h2.64v-.55h-5.874v.55zm6.227 4.785c.077 1.452 1.133 2.431 2.86 2.431 1.617 0 2.684-.88 2.684-2.178 0-1.463-1.298-1.837-2.574-2.057-1.177-.198-2.2-.396-2.2-1.496 0-1.001.781-1.562 1.991-1.562 1.155 0 1.947.649 2.079 1.65h.605c-.11-1.32-1.111-2.189-2.684-2.189-1.562 0-2.585.825-2.585 2.134 0 1.463 1.254 1.793 2.486 2.002 1.21.209 2.288.451 2.288 1.573 0 .99-.836 1.584-2.079 1.584-1.298 0-2.178-.748-2.255-1.892h-.616zm6.849 2.365h4.884v-.55h-4.29v-3.113h3.476v-.55h-3.476V14.35h4.147v-.55h-4.741v7.7zm10.026-6.721c0 .352-.165.594-.506.594h-1.32v.517h1.32c.231 0 .396-.066.495-.187V21.5h.572v-7.7h-.561v.979zm1.902 3.047c0 2.255 1.111 3.74 2.783 3.74 1.65 0 2.772-1.485 2.772-3.74v-.352c0-2.189-1.122-3.74-2.772-3.74-1.672 0-2.783 1.551-2.783 3.74v.352zm4.972-.022c0 1.958-.869 3.234-2.189 3.234-1.331 0-2.2-1.276-2.2-3.234v-.308c0-1.958.869-3.234 2.2-3.234 1.32 0 2.189 1.276 2.189 3.234v.308zm1.635.022c0 2.255 1.111 3.74 2.783 3.74 1.65 0 2.772-1.485 2.772-3.74v-.352c0-2.189-1.122-3.74-2.772-3.74-1.672 0-2.783 1.551-2.783 3.74v.352zm4.972-.022c0 1.958-.869 3.234-2.189 3.234-1.331 0-2.2-1.276-2.2-3.234v-.308c0-1.958.869-3.234 2.2-3.234 1.32 0 2.189 1.276 2.189 3.234v.308zm1.153 3.333c0 .253.176.418.418.418a.398.398 0 00.418-.418c0-.253-.176-.407-.418-.407s-.418.154-.418.407z" fill="#000"/></svg>