<svg width="122" height="22" viewBox="0 0 122 22" fill="none" xmlns="http://www.w3.org/2000/svg"><path d="M.22 1.422h2.376V8h1.265V1.422h2.376V.3H.22v1.122zm9.142.946c-.924 0-1.375.374-1.661.847l-.132-.847H6.513V8H7.7V5.173c0-.869.34-1.694 1.397-1.694h.528V2.368h-.264zm5.973 4.598c-.243 0-.364-.077-.364-.363V4.348c0-1.331-.857-2.046-2.354-2.046-1.419 0-2.365.682-2.486 1.782h1.166c.088-.495.561-.825 1.265-.825.782 0 1.232.385 1.232 1.012v.341h-1.418c-1.573 0-2.41.649-2.41 1.804 0 1.045.859 1.65 2.09 1.65.914 0 1.486-.396 1.86-.968 0 .561.264.902 1.034.902h.627V6.966h-.242zm-1.54-1.276c-.011.869-.584 1.452-1.573 1.452-.65 0-1.045-.33-1.045-.803 0-.572.407-.847 1.143-.847h1.474v.198zm6.665-2.541c-.363-.495-.968-.847-1.826-.847-1.53 0-2.662 1.144-2.662 2.882 0 1.804 1.133 2.882 2.662 2.882.89 0 1.474-.418 1.837-.913l.143.847h1.034V.3H20.46v2.849zm-1.628 3.916c-.99 0-1.64-.77-1.64-1.881 0-1.1.65-1.87 1.64-1.87.99 0 1.639.77 1.639 1.892 0 1.089-.65 1.859-1.64 1.859zm6.65 1.001c1.397 0 2.343-.847 2.54-1.958h-1.187c-.165.627-.693.99-1.42.99-.934 0-1.54-.627-1.572-1.584v-.077h4.246c.022-.154.033-.308.033-.451-.033-1.65-1.122-2.684-2.75-2.684-1.661 0-2.772 1.155-2.772 2.893 0 1.727 1.11 2.871 2.882 2.871zm-1.595-3.498c.088-.803.737-1.309 1.496-1.309.825 0 1.408.473 1.507 1.309h-3.003zM33.194 8h1.287l1.233-3.828L36.902 8h1.276l1.87-5.632h-1.21L37.506 6.68l-1.232-4.312h-1.09L33.898 6.68l-1.287-4.312h-1.253L33.194 8zm8.084-6.424c.407 0 .726-.297.726-.715s-.32-.715-.726-.715c-.407 0-.726.297-.726.715s.319.715.726.715zM40.673 8h1.188V2.368h-1.188V8zm2.76-1.529c0 1.023.461 1.529 1.54 1.529h1.1V6.955h-.837c-.45 0-.605-.165-.605-.605V3.413h1.375V2.368h-1.375V.795h-1.199v1.573h-.979v1.045h.98v3.058zm6.354-4.169c-.88 0-1.419.396-1.77.88V.3h-1.189V8h1.188V5.151c0-1.133.572-1.826 1.507-1.826.88 0 1.353.572 1.353 1.639V8h1.188V4.865c0-1.881-1.023-2.563-2.277-2.563zm9.142 0c-.913 0-1.452.363-1.804.803l-.132-.737h-1.034V8h1.188V5.162c0-1.144.561-1.837 1.507-1.837.891 0 1.342.572 1.342 1.639V8h1.199V4.865c0-1.881-1.023-2.563-2.266-2.563zm5.965 5.764c1.716 0 2.871-1.155 2.871-2.882 0-1.716-1.155-2.882-2.87-2.882-1.717 0-2.872 1.166-2.872 2.882 0 1.727 1.155 2.882 2.871 2.882zm0-1.012c-1 0-1.65-.781-1.65-1.87s.65-1.87 1.65-1.87c1.001 0 1.661.781 1.661 1.87s-.66 1.87-1.66 1.87zm6.07-3.641h.978V8h1.2V3.413h1.506V2.368H73.12v-.473c0-.385.165-.55.55-.55h.98V.3h-1.134c-1.089 0-1.573.528-1.573 1.54v.528h-.979v1.045zm6.735 4.653c1.397 0 2.343-.847 2.541-1.958h-1.188c-.165.627-.693.99-1.419.99-.935 0-1.54-.627-1.573-1.584v-.077h4.246c.022-.154.033-.308.033-.451-.033-1.65-1.122-2.684-2.75-2.684-1.66 0-2.772 1.155-2.772 2.893 0 1.727 1.111 2.871 2.882 2.871zm-1.595-3.498c.088-.803.737-1.309 1.496-1.309.825 0 1.408.473 1.507 1.309h-3.003zm7.869 3.498c1.397 0 2.343-.847 2.54-1.958h-1.187c-.165.627-.693.99-1.42.99-.934 0-1.54-.627-1.572-1.584v-.077h4.246c.022-.154.033-.308.033-.451-.033-1.65-1.122-2.684-2.75-2.684-1.661 0-2.772 1.155-2.772 2.893 0 1.727 1.11 2.871 2.882 2.871zm-1.595-3.498c.088-.803.737-1.309 1.496-1.309.825 0 1.408.473 1.507 1.309h-3.003zm4.921 1.573c.033 1.221 1.067 1.925 2.574 1.925 1.364 0 2.387-.682 2.387-1.76 0-1.254-1.045-1.518-2.332-1.672-.814-.088-1.353-.154-1.353-.682 0-.451.462-.737 1.166-.737s1.188.363 1.254.88h1.166c-.077-1.155-1.056-1.793-2.442-1.793-1.353-.011-2.31.682-2.31 1.749 0 1.166 1.012 1.441 2.299 1.595.869.11 1.386.154 1.386.759 0 .451-.484.737-1.221.737-.858 0-1.364-.418-1.408-1.001h-1.166zm8.124-2.728h.98V8H97.6V3.413h1.507V2.368H97.58v-.473c0-.385.165-.55.55-.55h.98V.3h-1.134c-1.089 0-1.573.528-1.573 1.54v.528h-.979v1.045zm6.725 4.653c1.716 0 2.871-1.155 2.871-2.882 0-1.716-1.155-2.882-2.871-2.882s-2.87 1.166-2.87 2.882c0 1.727 1.154 2.882 2.87 2.882zm0-1.012c-1.001 0-1.65-.781-1.65-1.87s.649-1.87 1.65-1.87 1.661.781 1.661 1.87-.66 1.87-1.661 1.87zm6.676-4.686c-.924 0-1.375.374-1.661.847l-.132-.847h-1.056V8h1.188V5.173c0-.869.341-1.694 1.397-1.694h.528V2.368h-.264zm5.054-1.287c0 .407-.165.693-.561.693h-1.199v1.045h1.254c.209 0 .374-.033.484-.099V8h1.221V.3h-1.199v.781zM116.032 8h5.456V6.933h-3.729l2.046-1.705c.935-.781 1.628-1.496 1.628-2.64 0-1.408-.968-2.354-2.695-2.354-1.639 0-2.695 1.067-2.695 2.53v.198h1.221V2.83c0-.957.594-1.551 1.474-1.551s1.463.484 1.463 1.364c0 .737-.517 1.276-1.21 1.859l-2.959 2.519V8zM7.062 15.302c-.924 0-1.562.407-1.925 1.023-.341-.726-1.001-1.023-1.738-1.023-.847.011-1.331.385-1.65.803l-.132-.737H.583V21h1.188v-3.014c0-1.001.506-1.661 1.32-1.661.781 0 1.188.517 1.188 1.507V21h1.199v-3.047c0-1.012.517-1.628 1.331-1.628.77 0 1.177.517 1.177 1.507V21h1.188v-3.245c0-1.782-.946-2.453-2.112-2.453zm5.808 5.764c1.716 0 2.871-1.155 2.871-2.882 0-1.716-1.155-2.882-2.871-2.882s-2.871 1.166-2.871 2.882c0 1.727 1.155 2.882 2.871 2.882zm0-1.012c-1.001 0-1.65-.781-1.65-1.87s.649-1.87 1.65-1.87 1.661.781 1.661 1.87-.66 1.87-1.661 1.87zm6.796-4.752c-.913 0-1.452.363-1.804.803l-.132-.737h-1.034V21h1.188v-2.838c0-1.144.561-1.837 1.507-1.837.891 0 1.342.572 1.342 1.639V21h1.2v-3.135c0-1.881-1.024-2.563-2.267-2.563zm3.754 4.169c0 1.023.462 1.529 1.54 1.529h1.1v-1.045h-.836c-.451 0-.605-.165-.605-.605v-2.937h1.375v-1.045h-1.375v-1.573h-1.2v1.573h-.978v1.045h.979v3.058zm6.354-4.169c-.88 0-1.419.396-1.77.88V13.3h-1.189V21h1.188v-2.849c0-1.133.572-1.826 1.507-1.826.88 0 1.353.572 1.353 1.639V21h1.188v-3.135c0-1.881-1.023-2.563-2.277-2.563zm3.116 3.839c.033 1.221 1.067 1.925 2.574 1.925 1.364 0 2.387-.682 2.387-1.76 0-1.254-1.045-1.518-2.332-1.672-.814-.088-1.353-.154-1.353-.682 0-.451.462-.737 1.166-.737s1.188.363 1.254.88h1.166c-.077-1.155-1.056-1.793-2.442-1.793-1.353-.011-2.31.682-2.31 1.749 0 1.166 1.012 1.441 2.299 1.595.869.11 1.386.154 1.386.759 0 .451-.484.737-1.221.737-.858 0-1.364-.418-1.408-1.001H32.89z" fill="#000"/></svg>