<svg width="128" height="20" viewBox="0 0 128 20" fill="none" xmlns="http://www.w3.org/2000/svg"><path d="M35.36 9.94c0-.192-.003-.381-.01-.569h2.166l.575-1.736h-2.917c-.8-4.75-4.15-7.635-9.21-7.635-5.691 0-9.37 3.952-9.37 10.06 0 6.169 3.564 9.97 9.37 9.94 4.73 0 8.088-2.714 9.087-7.156h1.977l.603-1.736h-2.318c.031-.38.047-.769.048-1.168zm-9.282 7.307c-2.932-.002-4.081-3.236-4.081-7.247 0-4.01.92-7.216 3.88-7.245 2.329 0 3.532 2.022 3.93 4.88h-2.52L26.71 9.37h3.238a23.768 23.768 0 01-.015 1.738h-3.109l-.603 1.736h3.545c-.399 2.602-1.47 4.4-3.689 4.4v.002zM.5.45h14.657v4.64h-9.57v3.233h8.65v4.402h-8.65v6.796H.5V.45zm39.23 0v19.07h5.086v-5.778h2.242l3.678 5.779H56.6l-4.368-6.647c2.27-1.018 3.764-2.964 3.764-5.869v-.059c0-1.856-.545-3.353-1.61-4.431C53.15 1.228 51.196.45 48.408.45H39.73zm5.086 9.161V5h3.334c1.724 0 2.758.778 2.758 2.274v.06c0 1.407-1.005 2.275-2.729 2.275l-3.363.002zm13.766 9.91H73.44v-4.492h-9.829v-3.023h8.794V7.844H63.61V4.94h9.716V.45H58.582v19.07zm16.525 0h5.72l3.534-5.748 3.506 5.748h5.834l-6.293-9.76L93.413.45h-5.69l-3.275 5.359-3.25-5.36h-5.833L81.4 9.82l-6.294 9.7zm23.566-9.041c-.005.524.09 1.044.284 1.529.192.485.477.923.837 1.29s.787.654 1.257.843c.469.19.97.279 1.473.261 1.61 0 2.558-.688 3.248-1.736l-1.724-1.287c-.403.478-.805.778-1.409.778-.862 0-1.465-.749-1.465-1.737v-.03c0-.928.603-1.677 1.437-1.677.273 0 .541.075.778.217a1.6 1.6 0 01.572.592l1.754-1.348a3.585 3.585 0 00-1.346-1.292 3.4 3.4 0 00-1.787-.413 3.674 3.674 0 00-1.498.276c-.476.196-.91.49-1.275.864a3.983 3.983 0 00-.848 1.315 4.115 4.115 0 00-.288 1.557m7.76 0c0 2.155 1.696 3.952 4.023 3.952 2.357 0 4.053-1.827 4.053-3.983v-.028c0-2.156-1.696-3.952-4.024-3.952-2.356 0-4.052 1.826-4.052 4.012m5.575 0c0 .898-.575 1.678-1.523 1.678a1.53 1.53 0 01-.609-.14 1.595 1.595 0 01-.51-.375 1.662 1.662 0 01-.331-.55 1.724 1.724 0 01-.102-.641v-.029a1.66 1.66 0 01.418-1.177c.143-.157.314-.282.504-.368.19-.086.394-.13.601-.132.213.005.422.054.615.145.194.09.368.22.513.382a1.703 1.703 0 01.424 1.209m3.736-3.862v7.598h2.558V10.09c0-.809.431-1.258 1.035-1.258.604 0 1.006.42 1.006 1.258v4.131h2.529V10.09c0-.809.46-1.258 1.064-1.258.605 0 1.006.42 1.006 1.258v4.162h2.558v-5c0-1.767-.949-2.785-2.5-2.785a2.992 2.992 0 00-1.358.32 3.122 3.122 0 00-1.085.908c-.374-.779-1.121-1.228-2.098-1.228-.43.002-.852.112-1.232.32-.38.21-.707.51-.951.878V6.617h-2.532v.006zM95.11 12.814c-.013.187.017.373.087.545.07.172.178.324.315.443.258.25.597.39.949.39s.69-.14.948-.39a1.4 1.4 0 00.3-.453 1.448 1.448 0 00-.285-1.538 1.337 1.337 0 00-.44-.305 1.294 1.294 0 00-1.036.008c-.164.073-.312.18-.436.312a1.438 1.438 0 00-.402.988z" fill="#fff"/></svg>