<svg width="100" height="17" viewBox="0 0 100 17" fill="none" xmlns="http://www.w3.org/2000/svg"><path d="M9.011.422C4.394.422.66 4.066.66 8.57c0 4.482 3.735 8.126 8.352 8.126 2.83 0 5.32-1.358 6.813-3.463l-3.69-2.082a3.784 3.784 0 01-3.1 1.562c-2.309 0-3.916-1.856-3.916-4.143 0-2.308 1.607-4.164 3.916-4.164 1.313 0 2.399.61 3.1 1.562l3.69-2.083C14.33 1.78 11.84.422 9.011.422zm9.253.227v15.82h4.255v-4.82h2.535l3.078 4.82h4.912l-3.554-5.386c2.196-.747 3.124-2.354 3.124-4.934 0-3.87-2.06-5.5-7.22-5.5h-7.13zm4.255 3.825h3.078c1.879 0 2.58.588 2.58 1.946 0 1.38-.701 1.947-2.58 1.947H22.52V4.474zm21.54 6.564L50.376.626h-5.048l-3.372 5.907-3.35-5.907h-5.093l6.293 10.457v5.387h4.255v-5.432zM52.525.648V16.47h4.255v-4.504h2.717c4.708 0 6.948-1.743 6.948-5.614 0-3.87-2.127-5.703-6.994-5.703h-6.926zm4.255 3.667h2.513c1.901 0 2.716.702 2.716 2.196 0 1.516-.837 2.173-2.716 2.173h-2.513V4.315zm24.727-.045V.626H68.038V4.27h4.595v12.2h4.278V4.27h4.595zM90.82.422c-4.685 0-8.488 3.644-8.488 8.148 0 4.482 3.803 8.126 8.488 8.126s8.488-3.644 8.488-8.126c0-4.504-3.803-8.148-8.488-8.148zm0 3.984c2.376 0 4.051 1.856 4.051 4.164 0 2.287-1.675 4.143-4.051 4.143-2.377 0-4.029-1.856-4.029-4.143 0-2.308 1.652-4.164 4.029-4.164z" fill="#09B45B"/></svg>