<svg width="347" height="54" viewBox="0 0 347 54" fill="none" xmlns="http://www.w3.org/2000/svg"><path d="M2.196 33.63h2.352V40h.53v-6.37h2.351v-.49H2.196v.49zm7.512 1.401c-.921 0-1.313.441-1.519.99l-.078-.99h-.432V40h.5v-2.519c0-1.009.265-1.97 1.431-1.97h.363v-.48h-.265zm5.165 4.508c-.294 0-.44-.098-.44-.48v-2.313c0-1.136-.696-1.773-1.941-1.773-1.137 0-1.891.548-2.019 1.45h.5c.127-.608.657-1.01 1.5-1.01.93 0 1.46.49 1.46 1.314v.431h-1.686c-1.274 0-1.96.549-1.96 1.48 0 .882.696 1.42 1.754 1.42 1.01 0 1.607-.46 1.911-1.077v.176c-.02.588.226.843.814.843h.294v-.46h-.187zm-.94-1.548c0 .95-.677 1.637-1.853 1.637-.793 0-1.283-.402-1.283-1.02 0-.656.49-1.019 1.41-1.019h1.726v.402zm5.776-1.842c-.304-.706-.97-1.176-1.901-1.176-1.363 0-2.343 1.038-2.343 2.538 0 1.568.98 2.548 2.343 2.548.93 0 1.577-.5 1.89-1.196l.08 1.137h.43v-6.86h-.5v3.009zm-1.862 3.459c-1.108 0-1.872-.862-1.872-2.097 0-1.225.764-2.097 1.872-2.097 1.107 0 1.871.872 1.871 2.107 0 1.225-.764 2.087-1.871 2.087zm5.732.45c1.088 0 1.921-.705 2.137-1.704h-.51c-.196.774-.852 1.254-1.666 1.254-1.107 0-1.803-.843-1.823-2v-.087h4.058c0-.069.01-.147.01-.206-.05-1.48-.961-2.342-2.294-2.342-1.362 0-2.293 1.038-2.293 2.508 0 1.559.97 2.578 2.381 2.578zM21.756 37.1c.079-1.01.834-1.685 1.745-1.685.97 0 1.666.597 1.744 1.685h-3.489zm9.853 2.96c1.088 0 1.92-.706 2.136-1.705h-.51c-.195.774-.852 1.254-1.665 1.254-1.108 0-1.804-.843-1.823-2v-.087h4.057c0-.069.01-.147.01-.206-.05-1.48-.96-2.342-2.293-2.342-1.363 0-2.294 1.038-2.294 2.508 0 1.559.97 2.578 2.382 2.578zm-1.823-2.96c.078-1.01.833-1.685 1.744-1.685.97 0 1.666.597 1.745 1.685h-3.489zm9.386 2.44c-.293 0-.44-.098-.44-.48v-2.313c0-1.136-.696-1.773-1.94-1.773-1.138 0-1.892.548-2.02 1.45h.5c.128-.608.657-1.01 1.5-1.01.93 0 1.46.49 1.46 1.314v.431h-1.686c-1.274 0-1.96.549-1.96 1.48 0 .882.696 1.42 1.754 1.42 1.01 0 1.607-.46 1.911-1.077v.176c-.02.588.226.843.814.843h.294v-.46h-.187zm-.94-1.548c0 .95-.676 1.637-1.852 1.637-.794 0-1.284-.402-1.284-1.02 0-.656.49-1.019 1.41-1.019h1.726v.402zm3.824-2.96c-.921 0-1.313.441-1.52.99l-.078-.99h-.43V40h.499v-2.519c0-1.009.264-1.97 1.43-1.97h.363v-.48h-.264zm3.298-.058c-.911 0-1.5.47-1.783 1.117l-.079-1.059h-.431V40h.5v-2.45c0-1.294.656-2.117 1.715-2.117.96 0 1.538.627 1.538 1.803V40h.5v-2.783c0-1.568-.833-2.244-1.96-2.244zm3.321-.99a.345.345 0 00.353-.353.345.345 0 00-.353-.353.345.345 0 00-.353.353c0 .206.157.353.353.353zM48.42 40h.5v-4.969h-.5V40zm3.968-5.027c-.911 0-1.5.47-1.783 1.117l-.079-1.059h-.431V40h.5v-2.45c0-1.294.656-2.117 1.715-2.117.96 0 1.538.627 1.538 1.803V40h.5v-2.783c0-1.568-.833-2.244-1.96-2.244zm7.114 1.215c-.304-.735-.97-1.215-1.892-1.215-1.362 0-2.342 1.029-2.342 2.538 0 1.568.98 2.548 2.342 2.548.931 0 1.588-.49 1.902-1.264v.882c0 1.323-.628 1.891-1.823 1.891-.931 0-1.578-.421-1.735-1.176h-.52c.158 1.058 1.01 1.627 2.216 1.627 1.607 0 2.361-.765 2.361-2.323v-4.665h-.43l-.08 1.157zm-1.852 3.42c-1.108 0-1.872-.862-1.872-2.097 0-1.235.764-2.097 1.872-2.097 1.107 0 1.871.862 1.871 2.107 0 1.225-.764 2.087-1.871 2.087zm3.312-1.137c.039 1.03.872 1.588 2.116 1.588 1.069 0 1.931-.54 1.931-1.421 0-1.049-.921-1.255-1.99-1.402-.774-.107-1.46-.196-1.46-.891 0-.569.559-.941 1.402-.941.794 0 1.362.382 1.45 1.029h.51c-.088-.97-.882-1.46-1.96-1.46-1.108-.01-1.901.558-1.901 1.41 0 1 .92 1.187 1.94 1.324.833.117 1.51.225 1.51.96 0 .588-.618.96-1.432.96-.95 0-1.568-.44-1.607-1.156h-.51zm12.013 1.068c-.294 0-.441-.098-.441-.48v-2.313c0-1.136-.696-1.773-1.94-1.773-1.137 0-1.892.548-2.02 1.45h.5c.128-.608.657-1.01 1.5-1.01.93 0 1.46.49 1.46 1.314v.431h-1.686c-1.274 0-1.96.549-1.96 1.48 0 .882.696 1.42 1.755 1.42 1.009 0 1.607-.46 1.91-1.077v.176c-.019.588.226.843.814.843h.294v-.46h-.186zm-.941-1.548c0 .95-.676 1.637-1.852 1.637-.794 0-1.284-.402-1.284-1.02 0-.656.49-1.019 1.411-1.019h1.725v.402zm1.57.48c.04 1.03.872 1.588 2.117 1.588 1.068 0 1.93-.54 1.93-1.421 0-1.049-.92-1.255-1.989-1.402-.774-.107-1.46-.196-1.46-.891 0-.569.558-.941 1.401-.941.794 0 1.362.382 1.45 1.029h.51c-.088-.97-.882-1.46-1.96-1.46-1.107-.01-1.901.558-1.901 1.41 0 1 .921 1.187 1.94 1.324.833.117 1.51.225 1.51.96 0 .588-.618.96-1.431.96-.95 0-1.568-.44-1.607-1.156h-.51zm8.015.373c0 .793.323 1.156 1.166 1.156h.725v-.46h-.686c-.52 0-.705-.197-.705-.706v-3.342h1.342v-.46H82.12V33.64h-.5v1.391h-.941v.461h.94v3.352zm4.945-3.871c-.931 0-1.51.519-1.794 1.234V33.14h-.5V40h.5v-2.45c0-1.294.657-2.117 1.715-2.117.951 0 1.539.627 1.539 1.803V40h.5v-2.783c0-1.568-.833-2.244-1.96-2.244zm5.194 5.086c1.088 0 1.921-.706 2.137-1.705h-.51c-.196.774-.853 1.254-1.666 1.254-1.107 0-1.803-.843-1.823-2v-.087h4.057c0-.069.01-.147.01-.206-.049-1.48-.96-2.342-2.293-2.342-1.362 0-2.293 1.038-2.293 2.508 0 1.559.97 2.578 2.381 2.578zm-1.823-2.96c.079-1.01.833-1.685 1.745-1.685.97 0 1.666.597 1.744 1.685h-3.489zM96.23 40l-.323.804c-.226.548-.314.695-.823.695h-.628v.461h.765c.666 0 .823-.255 1.136-1.039l2.382-5.89h-.54l-1.695 4.322-1.724-4.322h-.54L96.23 40zm8.115-5.027c-.931 0-1.509.519-1.793 1.234V33.14h-.5V40h.5v-2.45c0-1.294.657-2.117 1.715-2.117.951 0 1.539.627 1.539 1.803V40h.499v-2.783c0-1.568-.833-2.244-1.96-2.244zm7.447 4.566c-.294 0-.441-.098-.441-.48v-2.313c0-1.136-.696-1.773-1.94-1.773-1.137 0-1.892.548-2.019 1.45h.5c.127-.608.656-1.01 1.499-1.01.931 0 1.46.49 1.46 1.314v.431h-1.685c-1.274 0-1.96.549-1.96 1.48 0 .882.695 1.42 1.754 1.42 1.009 0 1.607-.46 1.911-1.077v.176c-.02.588.225.843.813.843h.294v-.46h-.186zm-.941-1.548c0 .95-.676 1.637-1.852 1.637-.794 0-1.284-.402-1.284-1.02 0-.656.49-1.019 1.411-1.019h1.725v.402zm4.197-3.018c-.931 0-1.578.5-1.892 1.195l-.078-1.137h-.431v6.929h.499v-3.107c.285.726.961 1.206 1.902 1.206 1.362 0 2.342-1.039 2.342-2.548 0-1.558-.98-2.538-2.342-2.538zm-.04 4.635c-1.107 0-1.871-.862-1.871-2.107 0-1.215.764-2.087 1.871-2.087 1.108 0 1.872.872 1.872 2.097 0 1.235-.764 2.097-1.872 2.097zm5.772-4.635c-.931 0-1.578.5-1.891 1.195l-.079-1.137h-.431v6.929h.5v-3.107c.284.726.96 1.206 1.901 1.206 1.362 0 2.342-1.039 2.342-2.548 0-1.558-.98-2.538-2.342-2.538zm-.039 4.635c-1.107 0-1.872-.862-1.872-2.107 0-1.215.765-2.087 1.872-2.087 1.107 0 1.872.872 1.872 2.097 0 1.235-.765 2.097-1.872 2.097zm5.566.45c1.088 0 1.921-.705 2.136-1.704h-.509c-.196.774-.853 1.254-1.666 1.254-1.108 0-1.803-.843-1.823-2v-.087h4.057c0-.069.01-.147.01-.206-.049-1.48-.96-2.342-2.293-2.342-1.362 0-2.293 1.038-2.293 2.508 0 1.559.97 2.578 2.381 2.578zm-1.823-2.959c.079-1.01.833-1.685 1.745-1.685.97 0 1.666.597 1.744 1.685h-3.489zm7.309-2.126c-.911 0-1.499.47-1.783 1.117l-.079-1.059h-.431V40h.5v-2.45c0-1.294.656-2.117 1.715-2.117.96 0 1.538.627 1.538 1.803V40h.5v-2.783c0-1.568-.833-2.244-1.96-2.244zM138.706 40h.539l1.47-4.175L142.117 40h.539l1.764-4.969h-.51l-1.529 4.371-1.421-4.37h-.46l-1.5 4.37-1.45-4.37h-.529L138.706 40zm6.667-6.017a.345.345 0 00.353-.353.345.345 0 00-.353-.353.345.345 0 00-.352.353c0 .206.156.353.352.353zM145.119 40h.499v-4.969h-.499V40zm2.047-1.156c0 .793.323 1.156 1.166 1.156h.725v-.46h-.686c-.519 0-.705-.197-.705-.706v-3.342h1.342v-.46h-1.342V33.64h-.5v1.391h-.941v.461h.941v3.352zm4.945-3.871c-.931 0-1.509.519-1.794 1.234V33.14h-.499V40h.499v-2.45c0-1.294.657-2.117 1.715-2.117.951 0 1.539.627 1.539 1.803V40h.5v-2.783c0-1.568-.833-2.244-1.96-2.244zm8.03 5.086c1.244 0 2.087-.755 2.264-1.745h-1.059c-.147.559-.617.882-1.264.882-.833 0-1.372-.558-1.401-1.41v-.07h3.782c.02-.137.03-.274.03-.401-.03-1.47-1-2.391-2.45-2.391-1.48 0-2.47 1.029-2.47 2.577 0 1.539.99 2.558 2.568 2.558zm-1.421-3.117c.078-.715.656-1.166 1.333-1.166.735 0 1.254.422 1.342 1.166h-2.675zM162.599 40h1.167l1.323-1.823L166.402 40h1.235l-1.892-2.568 1.784-2.45h-1.166l-1.225 1.696-1.196-1.696h-1.235l1.774 2.45L162.599 40zm5.983-1.362c0 .911.412 1.362 1.372 1.362h.98v-.931h-.744c-.402 0-.539-.147-.539-.539v-2.617h1.225v-.93h-1.225V33.58h-1.069v1.401h-.872v.931h.872v2.725zm5.302 1.42c1.244 0 2.087-.754 2.264-1.744h-1.059c-.147.559-.617.882-1.264.882-.833 0-1.372-.558-1.401-1.41v-.07h3.782c.02-.137.03-.274.03-.401-.03-1.47-1-2.391-2.45-2.391-1.48 0-2.47 1.029-2.47 2.577 0 1.539.99 2.558 2.568 2.558zm-1.421-3.116c.078-.715.656-1.166 1.333-1.166.735 0 1.254.422 1.342 1.166h-2.675zm7.274-2.018c-.813 0-1.293.323-1.607.715l-.117-.657h-.922V40h1.059v-2.528c0-1.02.5-1.637 1.342-1.637.794 0 1.196.51 1.196 1.46V40h1.068v-2.793c0-1.676-.911-2.283-2.019-2.283zm6.756.754c-.324-.44-.863-.754-1.627-.754-1.362 0-2.372 1.019-2.372 2.567 0 1.607 1.01 2.568 2.372 2.568.794 0 1.313-.373 1.637-.814l.127.755h.921v-6.86h-1.058v2.538zm-1.451 3.489c-.882 0-1.46-.686-1.46-1.676 0-.98.578-1.666 1.46-1.666s1.461.686 1.461 1.686c0 .97-.579 1.656-1.461 1.656zm5.925.892c1.244 0 2.087-.755 2.264-1.745h-1.059c-.147.559-.617.882-1.264.882-.833 0-1.372-.558-1.401-1.41v-.07h3.782c.02-.137.03-.274.03-.401-.03-1.47-1-2.391-2.45-2.391-1.48 0-2.47 1.029-2.47 2.577 0 1.539.99 2.558 2.568 2.558zm-1.421-3.117c.078-.715.656-1.166 1.333-1.166.735 0 1.254.422 1.342 1.166h-2.675zm8.441-1.264c-.324-.44-.863-.754-1.627-.754-1.362 0-2.372 1.019-2.372 2.567 0 1.607 1.01 2.568 2.372 2.568.794 0 1.313-.373 1.636-.814l.128.755h.921v-6.86h-1.058v2.538zm-1.451 3.489c-.882 0-1.46-.686-1.46-1.676 0-.98.578-1.666 1.46-1.666s1.46.686 1.46 1.686c0 .97-.578 1.656-1.46 1.656zm8.687-4.243c-.784 0-1.264.352-1.578.784V33.14h-1.058V40h1.058v-2.538c0-1.01.51-1.627 1.343-1.627.784 0 1.205.51 1.205 1.46V40h1.059v-2.793c0-1.676-.912-2.283-2.029-2.283zm5.324 5.135c1.529 0 2.558-1.03 2.558-2.568 0-1.529-1.029-2.567-2.558-2.567-1.528 0-2.557 1.038-2.557 2.567 0 1.539 1.029 2.568 2.557 2.568zm0-.902c-.891 0-1.47-.696-1.47-1.666s.579-1.666 1.47-1.666c.892 0 1.48.696 1.48 1.666s-.588 1.666-1.48 1.666zm6.849-1.666c0 1.039-.49 1.647-1.293 1.647-.775 0-1.167-.5-1.167-1.48v-2.676h-1.058v2.793c0 1.715.911 2.284 1.98 2.284.774 0 1.234-.314 1.548-.696l.118.637h.931v-5.018h-1.059v2.51zm4.64-2.509c-.823 0-1.225.334-1.48.755l-.118-.755h-.94V40h1.058v-2.519c0-.774.304-1.509 1.245-1.509h.47v-.99h-.235zm.586 3.362c.029 1.088.951 1.715 2.293 1.715 1.215 0 2.127-.608 2.127-1.568 0-1.117-.931-1.353-2.078-1.49-.725-.078-1.205-.137-1.205-.607 0-.402.411-.657 1.039-.657.627 0 1.058.323 1.117.784h1.039c-.069-1.029-.941-1.597-2.176-1.597-1.205-.01-2.058.607-2.058 1.558 0 1.039.902 1.284 2.048 1.42.774.099 1.235.138 1.235.677 0 .402-.431.657-1.088.657-.764 0-1.215-.373-1.254-.892h-1.039zm8.11.294c0 .911.412 1.362 1.372 1.362h.98v-.931h-.745c-.402 0-.539-.147-.539-.539v-2.617h1.225v-.93H231.8V33.58h-1.068v1.401h-.872v.931h.872v2.725zm5.563-3.656c-.823 0-1.225.334-1.479.755l-.118-.755h-.941V40h1.059v-2.519c0-.774.303-1.509 1.244-1.509h.471v-.99h-.236zm5.322 4.097c-.216 0-.324-.069-.324-.324v-2.009c0-1.185-.764-1.822-2.097-1.822-1.264 0-2.107.607-2.215 1.587h1.039c.079-.44.5-.735 1.127-.735.696 0 1.098.343 1.098.902v.304h-1.264c-1.402 0-2.147.578-2.147 1.607 0 .93.765 1.47 1.862 1.47.814 0 1.323-.353 1.657-.863 0 .5.235.804.921.804h.558v-.921h-.215zm-1.372-1.137c-.01.774-.52 1.294-1.402 1.294-.578 0-.931-.294-.931-.716 0-.51.363-.754 1.02-.754h1.313v.176zm5.938-2.264c-.324-.44-.863-.754-1.627-.754-1.362 0-2.372 1.019-2.372 2.567 0 1.607 1.01 2.568 2.372 2.568.794 0 1.313-.373 1.637-.814l.127.755h.921v-6.86h-1.058v2.538zm-1.451 3.489c-.882 0-1.46-.686-1.46-1.676 0-.98.578-1.666 1.46-1.666s1.461.686 1.461 1.686c0 .97-.579 1.656-1.461 1.656zm4.082-4.89a.626.626 0 00.647-.637.626.626 0 00-.647-.637.626.626 0 00-.646.637c0 .372.284.637.646.637zM248.275 40h1.059v-5.018h-1.059V40zm4.742-5.076c-.813 0-1.293.323-1.607.715l-.117-.657h-.922V40h1.059v-2.528c0-1.02.5-1.637 1.342-1.637.794 0 1.196.51 1.196 1.46V40h1.068v-2.793c0-1.676-.911-2.283-2.019-2.283zm6.814.842c-.324-.5-.863-.842-1.647-.842-1.362 0-2.371 1.009-2.371 2.548 0 1.597 1.009 2.548 2.371 2.548.784 0 1.304-.324 1.637-.824v.559c0 .96-.52 1.401-1.441 1.401-.745 0-1.235-.323-1.362-.882h-1.078c.098 1.127 1.029 1.745 2.362 1.745 1.803 0 2.567-.863 2.567-2.225v-4.812h-.921l-.117.784zm-1.47 3.362c-.882 0-1.461-.676-1.461-1.656 0-.97.579-1.657 1.461-1.657.882 0 1.46.686 1.46 1.676 0 .96-.578 1.637-1.46 1.637zm8.654-4.155c-.931 0-1.588.51-1.902 1.215V33.14h-.499V40h.431l.078-1.127c.294.715.961 1.186 1.892 1.186 1.362 0 2.342-1.039 2.342-2.548 0-1.558-.98-2.538-2.342-2.538zm-.04 4.635c-1.107 0-1.871-.862-1.871-2.107 0-1.215.764-2.087 1.871-2.087 1.108 0 1.872.872 1.872 2.097 0 1.235-.764 2.097-1.872 2.097zm4.65.392l-.323.804c-.226.548-.314.695-.823.695h-.628v.461h.765c.666 0 .823-.255 1.137-1.039l2.381-5.89h-.539l-1.695 4.322-1.725-4.322h-.539L271.625 40zm8.841.059c1.47 0 2.509-.794 2.803-2.176h-.559c-.294 1.098-1.088 1.686-2.254 1.686-1.588 0-2.587-1.245-2.587-2.999s1.019-2.999 2.607-2.999c1.146 0 1.95.598 2.254 1.676h.558c-.304-1.372-1.342-2.166-2.783-2.166-1.931 0-3.185 1.431-3.185 3.489 0 2.078 1.225 3.489 3.146 3.489zm4.079-6.076a.345.345 0 00.353-.353.345.345 0 00-.353-.353.345.345 0 00-.353.353c0 .206.157.353.353.353zM284.29 40h.5v-4.969h-.5V40zm2.047-1.156c0 .793.324 1.156 1.167 1.156h.725v-.46h-.686c-.52 0-.706-.197-.706-.706v-3.342h1.343v-.46h-1.343V33.64h-.5v1.391h-.94v.461h.94v3.352zM290.479 40l-.324.804c-.225.548-.313.695-.823.695h-.627v.461h.764c.667 0 .824-.255 1.137-1.039l2.382-5.89h-.539l-1.696 4.322-1.725-4.322h-.539l1.99 4.969zm5.939 0h.53v-6.86h-.53V40zm4.119-5.027c-.912 0-1.5.47-1.784 1.117l-.078-1.059h-.431V40h.499v-2.45c0-1.294.657-2.117 1.715-2.117.961 0 1.539.627 1.539 1.803V40h.5v-2.783c0-1.568-.833-2.244-1.96-2.244zm7.047 1.176c-.304-.706-.971-1.176-1.902-1.176-1.362 0-2.342 1.038-2.342 2.538 0 1.568.98 2.548 2.342 2.548.931 0 1.578-.5 1.892-1.196l.078 1.137h.431v-6.86h-.499v3.009zm-1.862 3.459c-1.108 0-1.872-.862-1.872-2.097 0-1.225.764-2.097 1.872-2.097 1.107 0 1.871.872 1.871 2.107 0 1.225-.764 2.087-1.871 2.087zm5.732.45c1.088 0 1.921-.705 2.137-1.704h-.51c-.196.774-.852 1.254-1.666 1.254-1.107 0-1.803-.843-1.823-2v-.087h4.058c0-.069.009-.147.009-.206-.049-1.48-.96-2.342-2.293-2.342-1.362 0-2.293 1.038-2.293 2.508 0 1.559.97 2.578 2.381 2.578zm-1.822-2.959c.078-1.01.833-1.685 1.744-1.685.97 0 1.666.597 1.744 1.685h-3.488zM313.946 40h.578l1.646-2.185L317.817 40h.607l-1.93-2.538 1.832-2.43h-.568l-1.568 2.057-1.548-2.058h-.598l1.832 2.43-1.93 2.539zm5.045-.323c0 .225.157.372.372.372a.355.355 0 00.373-.372c0-.226-.157-.363-.373-.363-.215 0-.372.137-.372.363zM186.158 24h1.477l1.413-4.392L190.411 24h1.464l2.146-6.462h-1.388l-1.528 4.947-1.413-4.947h-1.25l-1.476 4.947-1.477-4.947h-1.439L186.158 24zm11.975-6.538c-1.009 0-1.628.455-2.032 1.01v-3.307h-1.363V24h1.363v-3.269c0-1.3.657-2.095 1.729-2.095 1.01 0 1.553.657 1.553 1.88V24h1.363v-3.597c0-2.158-1.174-2.94-2.613-2.94zm6.87 6.614c1.603 0 2.688-.972 2.915-2.247h-1.363c-.189.72-.795 1.136-1.628 1.136-1.073 0-1.767-.72-1.805-1.817v-.089h4.872a3.74 3.74 0 00.038-.517c-.038-1.893-1.287-3.08-3.155-3.08-1.906 0-3.181 1.326-3.181 3.32 0 1.981 1.275 3.294 3.307 3.294zm-1.83-4.014c.101-.921.846-1.502 1.716-1.502.947 0 1.616.543 1.729 1.502h-3.445zm9.368-2.6c-1.047 0-1.666.417-2.069.922l-.152-.846h-1.186V24h1.363v-3.256c0-1.313.644-2.108 1.729-2.108 1.022 0 1.54.657 1.54 1.88V24h1.375v-3.597c0-2.158-1.173-2.94-2.6-2.94zm10.123 6.614c1.969 0 3.294-1.326 3.294-3.307 0-1.969-1.325-3.306-3.294-3.306s-3.294 1.337-3.294 3.306c0 1.982 1.325 3.307 3.294 3.307zm0-1.161c-1.148 0-1.893-.896-1.893-2.146s.745-2.145 1.893-2.145c1.149 0 1.906.896 1.906 2.145 0 1.25-.757 2.146-1.906 2.146zm4.808-.67c0 1.174.53 1.755 1.767 1.755h1.262v-1.199h-.959c-.518 0-.694-.19-.694-.694v-3.37h1.577v-1.199h-1.577v-1.805h-1.376v1.805h-1.123v1.2h1.123v3.508zm7.291-4.783c-1.01 0-1.628.455-2.032 1.01v-3.307h-1.363V24h1.363v-3.269c0-1.3.656-2.095 1.729-2.095 1.01 0 1.552.657 1.552 1.88V24h1.363v-3.597c0-2.158-1.173-2.94-2.612-2.94zm6.87 6.614c1.602 0 2.688-.972 2.915-2.247h-1.363c-.189.72-.795 1.136-1.628 1.136-1.073 0-1.767-.72-1.805-1.817v-.089h4.872a3.74 3.74 0 00.038-.517c-.038-1.893-1.288-3.08-3.156-3.08-1.905 0-3.18 1.326-3.18 3.32 0 1.981 1.275 3.294 3.307 3.294zm-1.83-4.014c.101-.921.845-1.502 1.716-1.502.947 0 1.615.543 1.729 1.502h-3.445zm9.229-2.524c-1.06 0-1.577.43-1.905.972l-.152-.972h-1.212V24h1.364v-3.244c0-.997.391-1.943 1.602-1.943h.606v-1.275h-.303zm.755 4.33c.038 1.4 1.224 2.208 2.953 2.208 1.565 0 2.739-.783 2.739-2.02 0-1.438-1.199-1.741-2.675-1.918-.934-.1-1.553-.177-1.553-.782 0-.518.53-.846 1.338-.846s1.363.416 1.439 1.01h1.338c-.089-1.325-1.212-2.058-2.802-2.058-1.553-.012-2.651.783-2.651 2.007 0 1.338 1.162 1.653 2.638 1.83.997.126 1.59.177 1.59.871 0 .517-.555.846-1.401.846-.984 0-1.565-.48-1.615-1.149h-1.338zm12.943 2.208c1.654 0 2.752-.922 3.004-2.386h-1.439c-.164.745-.719 1.225-1.552 1.225-1.098 0-1.817-.871-1.817-2.133 0-1.275.719-2.158 1.817-2.158.846 0 1.388.466 1.565 1.224h1.426c-.265-1.464-1.3-2.386-2.966-2.386-1.956 0-3.243 1.326-3.243 3.32 0 2.019 1.249 3.294 3.205 3.294zm9.954-1.262c-.278 0-.417-.089-.417-.417V19.81c0-1.527-.984-2.348-2.7-2.348-1.628 0-2.714.783-2.853 2.045h1.338c.101-.568.644-.947 1.452-.947.896 0 1.413.442 1.413 1.162v.39h-1.628c-1.805 0-2.764.745-2.764 2.07 0 1.2.984 1.894 2.398 1.894 1.047 0 1.704-.455 2.133-1.11 0 .643.303 1.034 1.186 1.034h.72v-1.186h-.278zm-1.767-1.464c-.013.997-.669 1.666-1.805 1.666-.744 0-1.199-.379-1.199-.922 0-.656.467-.972 1.313-.972h1.691v.228zm6.195-3.888c-1.048 0-1.666.417-2.07.922l-.152-.846h-1.186V24h1.363v-3.256c0-1.313.644-2.108 1.729-2.108 1.022 0 1.54.657 1.54 1.88V24h1.375v-3.597c0-2.158-1.173-2.94-2.599-2.94zm4.162-2.372c-.581 0-.959.378-.959.858 0 .53.328.808.744.808a.69.69 0 00.417-.14c.013.064.013.114.013.178 0 .441-.316.933-1.111.933v.745c1.249-.013 2.032-.707 2.032-1.93 0-.821-.442-1.452-1.136-1.452zm2.905 7.156c0 1.173.53 1.754 1.767 1.754h1.262v-1.199h-.959c-.518 0-.695-.19-.695-.694v-3.37h1.578v-1.199h-1.578v-1.805h-1.375v1.805h-1.123v1.2h1.123v3.508zm3.844.972c0 .504.366.858.87.858.505 0 .884-.354.884-.858 0-.505-.379-.859-.884-.859-.504 0-.87.354-.87.858z" fill="#000"/><path d="M.518 8.52h5.591V24h2.977V8.52h5.592V5.88H.518v2.64zm26.19 13.047c-.57 0-.854-.182-.854-.855v-5.306c0-3.133-2.019-4.815-5.54-4.815-3.339 0-5.565 1.605-5.85 4.193h2.744c.207-1.165 1.32-1.941 2.977-1.941 1.838 0 2.9.906 2.9 2.381v.803h-3.34c-3.702 0-5.67 1.527-5.67 4.245 0 2.46 2.02 3.883 4.92 3.883 2.148 0 3.494-.932 4.374-2.278 0 1.32.621 2.123 2.433 2.123h1.476v-2.433h-.57zm-3.624-3.003c-.026 2.045-1.372 3.417-3.701 3.417-1.528 0-2.46-.777-2.46-1.89 0-1.346.958-1.993 2.693-1.993h3.468v.466zM28.801 24h2.796v-3.365l2.381-2.485L37.887 24H41.2l-5.306-7.895 4.996-5.359h-3.288l-6.005 6.42V5.879H28.8V24zm19.208.155c3.288 0 5.514-1.993 5.98-4.608h-2.796c-.388 1.476-1.63 2.33-3.339 2.33-2.2 0-3.624-1.475-3.702-3.727v-.182h9.992a7.59 7.59 0 00.078-1.061c-.078-3.883-2.64-6.316-6.471-6.316-3.91 0-6.524 2.718-6.524 6.808 0 4.064 2.615 6.756 6.782 6.756zm-3.753-8.232c.207-1.89 1.734-3.08 3.52-3.08 1.942 0 3.314 1.113 3.547 3.08h-7.067zm30.965 5.644c-.57 0-.855-.182-.855-.855v-5.306c0-3.133-2.019-4.815-5.54-4.815-3.339 0-5.565 1.605-5.85 4.193h2.744c.207-1.165 1.32-1.941 2.977-1.941 1.838 0 2.9.906 2.9 2.381v.803h-3.34c-3.702 0-5.669 1.527-5.669 4.245 0 2.46 2.02 3.883 4.919 3.883 2.148 0 3.494-.932 4.374-2.278 0 1.32.622 2.123 2.434 2.123h1.475v-2.433h-.57zm-3.624-3.003c-.026 2.045-1.372 3.417-3.702 3.417-1.527 0-2.46-.777-2.46-1.89 0-1.346.958-1.993 2.693-1.993h3.469v.466zm19.432-7.973c-2.07 0-3.442.958-4.323 2.122l-.336-1.967h-2.434v18.431h2.796v-7.04c.829 1.19 2.252 2.018 4.297 2.018 3.625 0 6.265-2.692 6.265-6.782 0-4.245-2.64-6.782-6.265-6.782zM90.564 21.8c-2.33 0-3.858-1.838-3.858-4.479 0-2.563 1.528-4.349 3.858-4.349s3.883 1.786 3.883 4.401c0 2.589-1.554 4.427-3.883 4.427zm15.235 2.355c4.038 0 6.756-2.718 6.756-6.782 0-4.038-2.718-6.782-6.756-6.782-4.039 0-6.757 2.744-6.757 6.782 0 4.064 2.718 6.782 6.757 6.782zm0-2.381c-2.356 0-3.883-1.838-3.883-4.401 0-2.563 1.527-4.4 3.883-4.4s3.909 1.837 3.909 4.4c0 2.563-1.553 4.4-3.909 4.4zm8.359-2.149c.078 2.874 2.511 4.53 6.058 4.53 3.209 0 5.617-1.605 5.617-4.142 0-2.95-2.459-3.572-5.488-3.934-1.916-.207-3.184-.363-3.184-1.605 0-1.062 1.087-1.735 2.744-1.735 1.657 0 2.796.854 2.951 2.071h2.744c-.181-2.718-2.485-4.22-5.747-4.22-3.184-.025-5.436 1.606-5.436 4.117 0 2.744 2.381 3.39 5.41 3.753 2.045.26 3.262.363 3.262 1.786 0 1.062-1.139 1.735-2.873 1.735-2.02 0-3.21-.984-3.314-2.356h-2.744zm15.265-10.743c.958 0 1.709-.699 1.709-1.682 0-.984-.751-1.683-1.709-1.683-.958 0-1.708.699-1.708 1.683 0 .983.75 1.682 1.708 1.682zM128 24h2.795V10.746H128V24zm6.494-3.598c0 2.407 1.087 3.598 3.624 3.598h2.588v-2.46h-1.967c-1.061 0-1.424-.387-1.424-1.423v-6.912h3.236v-2.459h-3.236V7.044h-2.821v3.702h-2.304v2.46h2.304v7.196zm9.415-11.52c.958 0 1.708-.699 1.708-1.682 0-.984-.75-1.683-1.708-1.683S142.2 6.216 142.2 7.2c0 .983.751 1.682 1.709 1.682zM142.485 24h2.796V10.746h-2.796V24zm11.801.155c4.038 0 6.756-2.718 6.756-6.782 0-4.038-2.718-6.782-6.756-6.782s-6.757 2.744-6.757 6.782c0 4.064 2.719 6.782 6.757 6.782zm0-2.381c-2.356 0-3.883-1.838-3.883-4.401 0-2.563 1.527-4.4 3.883-4.4s3.909 1.837 3.909 4.4c0 2.563-1.553 4.4-3.909 4.4zM170.28 10.59c-2.149 0-3.417.854-4.246 1.89l-.31-1.735h-2.434V24h2.796v-6.679c0-2.692 1.32-4.323 3.547-4.323 2.096 0 3.158 1.346 3.158 3.857V24h2.821v-7.378c0-4.426-2.407-6.031-5.332-6.031z" fill="url(#paint0_linear_19_18785)"/><defs><linearGradient id="paint0_linear_19_18785" x1="228" y1="16" x2="0" y2="16" gradientUnits="userSpaceOnUse"><stop stop-color="#FF4343"/><stop offset=".5" stop-color="#9C0B93"/><stop offset="1" stop-color="#4C1BB7"/></linearGradient></defs></svg>