<svg width="347" height="54" viewBox="0 0 347 54" fill="none" xmlns="http://www.w3.org/2000/svg"><path d="M2.176 33.28h2.112V39h.475v-5.72h2.112v-.44H2.176v.44zm6.745 1.258c-.827 0-1.179.396-1.364.89l-.07-.89H7.1V39h.449v-2.262c0-.906.237-1.768 1.284-1.768h.326v-.432h-.238zm4.639 4.048c-.264 0-.396-.088-.396-.43v-2.078c0-1.02-.625-1.592-1.743-1.592-1.02 0-1.698.492-1.812 1.302h.448c.115-.546.59-.906 1.347-.906.836 0 1.311.44 1.311 1.179v.387h-1.514c-1.144 0-1.76.493-1.76 1.329 0 .792.625 1.276 1.576 1.276.906 0 1.443-.414 1.716-.968v.158c-.018.528.202.757.73.757h.264v-.414h-.167zm-.845-1.39c0 .854-.607 1.47-1.663 1.47-.713 0-1.153-.361-1.153-.916 0-.59.44-.915 1.267-.915h1.549v.361zm5.187-1.654c-.273-.634-.872-1.056-1.707-1.056-1.224 0-2.104.932-2.104 2.279 0 1.408.88 2.288 2.104 2.288.835 0 1.416-.449 1.698-1.074l.07 1.021h.387v-6.16h-.448v2.702zm-1.672 3.106c-.995 0-1.681-.774-1.681-1.883 0-1.1.686-1.883 1.68-1.883.995 0 1.681.783 1.681 1.892 0 1.1-.686 1.874-1.68 1.874zm5.147.405c.977 0 1.725-.634 1.919-1.531h-.458c-.176.695-.765 1.126-1.496 1.126-.994 0-1.62-.757-1.637-1.795v-.08h3.644c0-.061.008-.131.008-.184-.044-1.329-.862-2.103-2.059-2.103-1.223 0-2.06.932-2.06 2.252 0 1.4.872 2.315 2.14 2.315zm-1.636-2.658c.07-.906.747-1.513 1.566-1.513.871 0 1.496.536 1.566 1.513H19.74zm6.954.062c0 1.716.73 2.596 2.244 2.596 1.523 0 2.262-.88 2.262-2.596V32.84h-.475v3.643c0 1.417-.546 2.13-1.787 2.13-1.223 0-1.768-.713-1.768-2.13V32.84h-.476v3.617zm5.522.651c.061 1.162.906 1.945 2.288 1.945 1.293 0 2.147-.704 2.147-1.743 0-1.17-1.039-1.47-2.06-1.645-.941-.159-1.76-.317-1.76-1.197 0-.8.625-1.25 1.593-1.25.924 0 1.558.52 1.664 1.32h.483c-.088-1.056-.888-1.75-2.147-1.75-1.25 0-2.068.66-2.068 1.706 0 1.17 1.004 1.435 1.99 1.602.967.167 1.83.36 1.83 1.258 0 .792-.67 1.268-1.664 1.268-1.038 0-1.742-.599-1.804-1.514h-.492zm7.393-3.828h2.112V39h.476v-5.72h2.112v-.44h-4.7v.44zm6.586 5.773c.977 0 1.725-.634 1.919-1.531h-.458c-.176.695-.766 1.126-1.496 1.126-.995 0-1.62-.757-1.637-1.795v-.08h3.643c0-.061.01-.131.01-.184-.045-1.329-.863-2.103-2.06-2.103-1.223 0-2.06.932-2.06 2.252 0 1.4.872 2.315 2.14 2.315zm-1.637-2.658c.07-.906.748-1.513 1.567-1.513.87 0 1.496.536 1.566 1.513H44.56zm6.449 2.658c1.012 0 1.725-.581 1.9-1.487h-.474c-.15.66-.687 1.082-1.426 1.082-.977 0-1.654-.766-1.654-1.874 0-1.11.668-1.892 1.654-1.892.748 0 1.276.422 1.434 1.09h.467c-.185-.923-.88-1.486-1.892-1.486-1.259 0-2.121.932-2.121 2.288 0 1.372.854 2.279 2.112 2.279zm4.832-4.567c-.836 0-1.355.466-1.61 1.108V32.84h-.449V39h.449v-2.2c0-1.162.59-1.9 1.54-1.9.853 0 1.381.562 1.381 1.618V39h.45v-2.5c0-1.407-.749-2.014-1.76-2.014zm7.105 4.567c.977 0 1.725-.634 1.919-1.531h-.458c-.176.695-.766 1.126-1.496 1.126-.994 0-1.62-.757-1.637-1.795v-.08h3.643c0-.061.01-.131.01-.184-.045-1.329-.863-2.103-2.06-2.103-1.223 0-2.06.932-2.06 2.252 0 1.4.872 2.315 2.14 2.315zm-1.636-2.658c.07-.906.748-1.513 1.566-1.513.871 0 1.496.536 1.566 1.513h-3.133zm8.428 2.191c-.264 0-.396-.088-.396-.43v-2.078c0-1.02-.625-1.592-1.742-1.592-1.021 0-1.699.492-1.813 1.302h.449c.114-.546.59-.906 1.346-.906.836 0 1.311.44 1.311 1.179v.387H67.38c-1.144 0-1.76.493-1.76 1.329 0 .792.625 1.276 1.575 1.276.906 0 1.443-.414 1.716-.968v.158c-.018.528.202.757.73.757h.264v-.414h-.167zm-.845-1.39c0 .854-.607 1.47-1.663 1.47-.713 0-1.153-.361-1.153-.916 0-.59.44-.915 1.268-.915h1.548v.361zm3.434-2.658c-.827 0-1.179.396-1.364.89l-.07-.89h-.387V39h.448v-2.262c0-.906.238-1.768 1.285-1.768h.326v-.432h-.238zm2.962-.052c-.818 0-1.346.422-1.602 1.003l-.07-.95h-.387V39h.449v-2.2c0-1.162.59-1.9 1.54-1.9.862 0 1.381.562 1.381 1.618V39h.449v-2.5c0-1.407-.748-2.014-1.76-2.014zm2.982-.89a.31.31 0 00.317-.316.31.31 0 00-.317-.317.31.31 0 00-.317.317c0 .185.141.317.317.317zM78.041 39h.45v-4.462h-.45V39zm3.563-4.514c-.818 0-1.346.422-1.601 1.003l-.07-.95h-.388V39h.449v-2.2c0-1.162.59-1.9 1.54-1.9.862 0 1.382.562 1.382 1.618V39h.448v-2.5c0-1.407-.748-2.014-1.76-2.014zm6.388 1.09c-.273-.66-.871-1.09-1.698-1.09-1.224 0-2.103.924-2.103 2.279 0 1.408.88 2.288 2.103 2.288.836 0 1.425-.44 1.707-1.135v.792c0 1.188-.563 1.698-1.637 1.698-.836 0-1.417-.378-1.558-1.056h-.466c.14.95.906 1.46 1.989 1.46 1.443 0 2.12-.686 2.12-2.085v-4.189h-.386l-.07 1.039zm-1.663 3.072c-.994 0-1.68-.774-1.68-1.883s.686-1.883 1.68-1.883c.994 0 1.68.774 1.68 1.892 0 1.1-.686 1.874-1.68 1.874zm2.974-1.02c.035.923.783 1.425 1.9 1.425.96 0 1.734-.484 1.734-1.276 0-.942-.827-1.127-1.786-1.259-.695-.096-1.311-.176-1.311-.8 0-.51.501-.845 1.258-.845.713 0 1.223.343 1.302.924h.458c-.08-.871-.792-1.311-1.76-1.311-.994-.01-1.707.501-1.707 1.267 0 .897.827 1.065 1.742 1.188.748.105 1.356.202 1.356.862 0 .528-.555.863-1.285.863-.854 0-1.408-.396-1.444-1.039h-.457zm10.787.958c-.264 0-.396-.088-.396-.43v-2.078c0-1.02-.624-1.592-1.742-1.592-1.02 0-1.698.492-1.813 1.302h.449c.114-.546.59-.906 1.346-.906.836 0 1.312.44 1.312 1.179v.387h-1.514c-1.144 0-1.76.493-1.76 1.329 0 .792.625 1.276 1.575 1.276.907 0 1.443-.414 1.716-.968v.158c-.017.528.203.757.73.757h.265v-.414h-.168zm-.844-1.39c0 .854-.608 1.47-1.664 1.47-.712 0-1.152-.361-1.152-.916 0-.59.44-.915 1.267-.915h1.549v.361zm1.409.431c.035.924.783 1.426 1.901 1.426.959 0 1.734-.484 1.734-1.276 0-.942-.828-1.127-1.787-1.259-.695-.096-1.311-.176-1.311-.8 0-.51.502-.845 1.258-.845.713 0 1.224.343 1.303.924h.457c-.079-.871-.792-1.311-1.76-1.311-.994-.01-1.707.501-1.707 1.267 0 .897.827 1.065 1.743 1.188.748.105 1.355.202 1.355.862 0 .528-.555.863-1.285.863-.854 0-1.408-.396-1.443-1.039h-.458zm7.197.335c0 .712.291 1.038 1.047 1.038h.652v-.414h-.616c-.467 0-.634-.176-.634-.633v-3.001h1.206v-.414h-1.206v-1.25h-.449v1.25h-.845v.414h.845v3.01zm4.441-3.476c-.836 0-1.356.466-1.611 1.108V32.84h-.449V39h.449v-2.2c0-1.162.59-1.9 1.54-1.9.854 0 1.382.562 1.382 1.618V39h.449v-2.5c0-1.407-.748-2.014-1.76-2.014zm4.664 4.567c.977 0 1.725-.634 1.918-1.531h-.457c-.176.695-.766 1.126-1.496 1.126-.995 0-1.619-.757-1.637-1.795v-.08h3.643c0-.061.009-.131.009-.184-.044-1.329-.862-2.103-2.059-2.103-1.223 0-2.059.932-2.059 2.252 0 1.4.871 2.315 2.138 2.315zm-1.637-2.658c.071-.906.748-1.513 1.567-1.513.871 0 1.496.536 1.566 1.513h-3.133zM120.973 39l-.291.722c-.202.492-.281.624-.739.624h-.563v.414h.686c.599 0 .739-.229 1.021-.933l2.138-5.289h-.484l-1.522 3.881-1.549-3.88h-.484L120.973 39zm7.287-4.514c-.836 0-1.355.466-1.611 1.108V32.84h-.448V39h.448v-2.2c0-1.162.59-1.9 1.54-1.9.854 0 1.382.562 1.382 1.618V39h.449v-2.5c0-1.407-.748-2.014-1.76-2.014zm6.687 4.1c-.264 0-.396-.088-.396-.43v-2.078c0-1.02-.625-1.592-1.743-1.592-1.021 0-1.698.492-1.813 1.302h.449c.115-.546.59-.906 1.347-.906.836 0 1.311.44 1.311 1.179v.387h-1.514c-1.144 0-1.76.493-1.76 1.329 0 .792.625 1.276 1.575 1.276.907 0 1.444-.414 1.716-.968v.158c-.017.528.203.757.731.757h.264v-.414h-.167zm-.845-1.39c0 .854-.607 1.47-1.663 1.47-.713 0-1.153-.361-1.153-.916 0-.59.44-.915 1.267-.915h1.549v.361zm3.768-2.71c-.836 0-1.417.448-1.698 1.073l-.071-1.02h-.387v6.221h.449v-2.79c.255.652.862 1.083 1.707 1.083 1.223 0 2.103-.933 2.103-2.288 0-1.4-.88-2.28-2.103-2.28zm-.035 4.162c-.995 0-1.681-.774-1.681-1.892 0-1.091.686-1.874 1.681-1.874.994 0 1.681.783 1.681 1.883 0 1.109-.687 1.883-1.681 1.883zm5.183-4.162c-.836 0-1.417.448-1.699 1.073l-.07-1.02h-.387v6.221h.448v-2.79c.256.652.863 1.083 1.708 1.083 1.223 0 2.103-.933 2.103-2.288 0-1.4-.88-2.28-2.103-2.28zm-.036 4.162c-.994 0-1.68-.774-1.68-1.892 0-1.091.686-1.874 1.68-1.874.995 0 1.681.783 1.681 1.883 0 1.109-.686 1.883-1.681 1.883zm4.998.405c.977 0 1.725-.634 1.919-1.531h-.458c-.176.695-.765 1.126-1.496 1.126-.994 0-1.619-.757-1.637-1.795v-.08h3.644c0-.061.008-.131.008-.184-.044-1.329-.862-2.103-2.059-2.103-1.223 0-2.059.932-2.059 2.252 0 1.4.871 2.315 2.138 2.315zm-1.636-2.658c.07-.906.748-1.513 1.566-1.513.871 0 1.496.536 1.566 1.513h-3.132zm6.563-1.91c-.819 0-1.347.423-1.602 1.004l-.07-.95h-.387V39h.448v-2.2c0-1.162.59-1.9 1.54-1.9.863 0 1.382.562 1.382 1.618V39h.449v-2.5c0-1.407-.748-2.014-1.76-2.014zM159.114 39h.484l1.32-3.749L162.177 39h.484l1.584-4.462h-.458l-1.373 3.925-1.276-3.925h-.413l-1.347 3.925-1.302-3.925h-.475L159.114 39zm5.987-5.403a.31.31 0 00.317-.317.31.31 0 00-.317-.317.31.31 0 00-.316.317c0 .185.14.317.316.317zM164.873 39h.448v-4.462h-.448V39zm1.838-1.038c0 .712.29 1.038 1.047 1.038h.651v-.414h-.616c-.466 0-.633-.176-.633-.633v-3.001h1.205v-.414h-1.205v-1.25h-.449v1.25h-.845v.414h.845v3.01zm4.44-3.476c-.836 0-1.355.466-1.61 1.108V32.84h-.449V39h.449v-2.2c0-1.162.589-1.9 1.54-1.9.853 0 1.381.562 1.381 1.618V39h.449v-2.5c0-1.407-.748-2.014-1.76-2.014zm7.211 4.567c1.117 0 1.874-.678 2.033-1.567h-.951c-.132.502-.554.792-1.135.792-.748 0-1.232-.501-1.258-1.267v-.061h3.396c.018-.124.027-.247.027-.361-.027-1.32-.898-2.147-2.2-2.147-1.329 0-2.218.924-2.218 2.314 0 1.382.889 2.297 2.306 2.297zm-1.276-2.799c.07-.642.589-1.047 1.197-1.047.66 0 1.126.379 1.205 1.047h-2.402zM180.57 39h1.047l1.188-1.637L183.984 39h1.109l-1.699-2.306 1.602-2.2h-1.047l-1.1 1.523-1.074-1.523h-1.109l1.593 2.2L180.57 39zm5.372-1.223c0 .818.37 1.223 1.232 1.223h.88v-.836h-.669c-.361 0-.484-.132-.484-.484v-2.35h1.1v-.836h-1.1v-1.258h-.959v1.258h-.783v.836h.783v2.447zm4.76 1.276c1.118 0 1.875-.678 2.033-1.567h-.95c-.132.502-.555.792-1.135.792-.748 0-1.232-.501-1.259-1.267v-.061h3.397a2.52 2.52 0 00.026-.361c-.026-1.32-.897-2.147-2.2-2.147-1.328 0-2.217.924-2.217 2.314 0 1.382.889 2.297 2.305 2.297zm-1.276-2.799c.071-.642.59-1.047 1.197-1.047.66 0 1.127.379 1.206 1.047h-2.403zm6.533-1.812c-.731 0-1.162.29-1.443.642l-.106-.59h-.827V39h.95v-2.27c0-.916.449-1.47 1.206-1.47.713 0 1.073.458 1.073 1.311V39h.96v-2.508c0-1.505-.819-2.05-1.813-2.05zm6.066.677c-.291-.396-.775-.677-1.461-.677-1.223 0-2.13.915-2.13 2.305 0 1.443.907 2.306 2.13 2.306.713 0 1.179-.335 1.47-.73l.114.677h.827v-6.16h-.95v2.28zm-1.303 3.133c-.792 0-1.311-.616-1.311-1.505 0-.88.519-1.496 1.311-1.496.792 0 1.312.616 1.312 1.514 0 .871-.52 1.487-1.312 1.487zm5.32.8c1.118 0 1.875-.677 2.033-1.566h-.95c-.132.502-.555.792-1.135.792-.748 0-1.232-.501-1.259-1.267v-.061h3.397a2.52 2.52 0 00.026-.361c-.026-1.32-.897-2.147-2.2-2.147-1.328 0-2.217.924-2.217 2.314 0 1.382.889 2.297 2.305 2.297zm-1.276-2.798c.071-.642.59-1.047 1.197-1.047.66 0 1.127.379 1.206 1.047h-2.403zm7.58-1.135c-.291-.396-.775-.677-1.461-.677-1.223 0-2.13.915-2.13 2.305 0 1.443.907 2.306 2.13 2.306.713 0 1.179-.335 1.47-.73l.114.677h.827v-6.16h-.95v2.28zm-1.303 3.133c-.792 0-1.311-.616-1.311-1.505 0-.88.519-1.496 1.311-1.496.792 0 1.312.616 1.312 1.514 0 .871-.52 1.487-1.312 1.487zm7.801-3.81c-.704 0-1.135.316-1.417.704V32.84h-.95V39h.95v-2.28c0-.906.458-1.46 1.206-1.46.704 0 1.082.458 1.082 1.311V39h.95v-2.508c0-1.505-.818-2.05-1.821-2.05zm4.781 4.61c1.373 0 2.297-.923 2.297-2.305 0-1.373-.924-2.305-2.297-2.305-1.373 0-2.297.932-2.297 2.305 0 1.382.924 2.306 2.297 2.306zm0-.809c-.801 0-1.32-.625-1.32-1.496s.519-1.496 1.32-1.496 1.329.625 1.329 1.496-.528 1.496-1.329 1.496zm6.15-1.496c0 .933-.44 1.479-1.162 1.479-.695 0-1.047-.45-1.047-1.33v-2.402h-.95v2.508c0 1.54.818 2.05 1.777 2.05.695 0 1.109-.28 1.391-.624l.105.572h.836v-4.506h-.95v2.253zm4.166-2.253c-.739 0-1.1.3-1.329.678l-.105-.678h-.845V39h.95v-2.262c0-.695.273-1.355 1.118-1.355h.422v-.889h-.211zm.526 3.019c.027.977.854 1.54 2.06 1.54 1.091 0 1.909-.546 1.909-1.408 0-1.003-.836-1.215-1.865-1.338-.652-.07-1.083-.123-1.083-.545 0-.361.37-.59.933-.59.563 0 .95.29 1.003.704h.933c-.062-.924-.845-1.434-1.954-1.434-1.082-.01-1.848.545-1.848 1.399 0 .933.81 1.153 1.84 1.276.695.088 1.108.123 1.108.607 0 .36-.387.59-.976.59-.687 0-1.092-.335-1.127-.801h-.933zm7.283.264c0 .818.369 1.223 1.232 1.223h.88v-.836h-.669c-.361 0-.484-.132-.484-.484v-2.35h1.1v-.836h-1.1v-1.258h-.959v1.258h-.783v.836h.783v2.447zm4.996-3.283c-.74 0-1.1.3-1.329.678l-.106-.678h-.845V39h.951v-2.262c0-.695.273-1.355 1.117-1.355h.423v-.889h-.211zm4.778 3.679c-.194 0-.291-.062-.291-.29v-1.805c0-1.064-.686-1.636-1.883-1.636-1.135 0-1.892.545-1.989 1.425h.933c.071-.396.449-.66 1.012-.66.625 0 .986.308.986.81v.273h-1.135c-1.259 0-1.928.519-1.928 1.443 0 .836.687 1.32 1.672 1.32.731 0 1.188-.317 1.488-.775 0 .45.211.722.827.722h.501v-.827h-.193zm-1.232-1.021c-.009.695-.467 1.162-1.259 1.162-.519 0-.836-.264-.836-.643 0-.457.326-.677.916-.677h1.179v.158zm5.332-2.033c-.29-.396-.774-.677-1.461-.677-1.223 0-2.129.915-2.129 2.305 0 1.443.906 2.306 2.129 2.306.713 0 1.179-.335 1.47-.73l.114.677h.827v-6.16h-.95v2.28zm-1.302 3.133c-.792 0-1.312-.616-1.312-1.505 0-.88.52-1.496 1.312-1.496s1.311.616 1.311 1.514c0 .871-.519 1.487-1.311 1.487zm3.665-4.391a.562.562 0 00.581-.572.562.562 0 00-.581-.572.563.563 0 00-.581.572c0 .334.256.572.581.572zM257.503 39h.951v-4.506h-.951V39zm4.258-4.558c-.73 0-1.161.29-1.443.642l-.106-.59h-.827V39h.951v-2.27c0-.916.448-1.47 1.205-1.47.713 0 1.074.458 1.074 1.311V39h.959v-2.508c0-1.505-.818-2.05-1.813-2.05zm6.118.756c-.29-.448-.774-.756-1.478-.756-1.224 0-2.13.906-2.13 2.288 0 1.434.906 2.288 2.13 2.288.704 0 1.17-.29 1.469-.74v.502c0 .862-.466 1.258-1.293 1.258-.669 0-1.109-.29-1.224-.792h-.968c.088 1.012.924 1.567 2.121 1.567 1.619 0 2.306-.775 2.306-1.998v-4.32h-.827l-.106.703zm-1.32 3.019c-.792 0-1.311-.607-1.311-1.487 0-.872.519-1.488 1.311-1.488.792 0 1.311.616 1.311 1.505 0 .863-.519 1.47-1.311 1.47zm7.771-3.731c-.836 0-1.426.457-1.707 1.09V32.84h-.449V39h.387l.071-1.012c.264.642.862 1.065 1.698 1.065 1.223 0 2.103-.933 2.103-2.288 0-1.4-.88-2.28-2.103-2.28zm-.035 4.162c-.995 0-1.681-.774-1.681-1.892 0-1.091.686-1.874 1.681-1.874.994 0 1.681.783 1.681 1.883 0 1.109-.687 1.883-1.681 1.883zm4.175.352l-.29.722c-.202.492-.282.624-.739.624h-.563v.414h.686c.598 0 .739-.229 1.021-.933l2.138-5.289h-.484l-1.522 3.881-1.549-3.88h-.484L278.47 39zm7.939.053c1.32 0 2.253-.713 2.517-1.954h-.502c-.264.986-.977 1.514-2.024 1.514-1.426 0-2.323-1.118-2.323-2.693s.915-2.693 2.341-2.693c1.029 0 1.751.537 2.024 1.505h.501c-.273-1.232-1.205-1.945-2.499-1.945-1.734 0-2.86 1.285-2.86 3.133 0 1.866 1.1 3.133 2.825 3.133zm3.663-5.456a.31.31 0 00.316-.317.31.31 0 00-.316-.317.31.31 0 00-.317.317.31.31 0 00.317.317zM289.843 39h.449v-4.462h-.449V39zm1.838-1.038c0 .712.291 1.038 1.047 1.038h.652v-.414h-.616c-.467 0-.634-.176-.634-.633v-3.001h1.206v-.414h-1.206v-1.25h-.449v1.25h-.845v.414h.845v3.01zM295.4 39l-.29.722c-.203.492-.282.624-.74.624h-.563v.414h.687c.598 0 .739-.229 1.02-.933l2.139-5.289h-.484l-1.523 3.881-1.548-3.88h-.484L295.4 39zm5.334 0h.475v-6.16h-.475V39zm3.698-4.514c-.819 0-1.347.422-1.602 1.003l-.07-.95h-.387V39h.448v-2.2c0-1.162.59-1.9 1.54-1.9.863 0 1.382.562 1.382 1.618V39h.449v-2.5c0-1.407-.748-2.014-1.76-2.014zm6.327 1.056c-.272-.634-.871-1.056-1.707-1.056-1.223 0-2.103.932-2.103 2.279 0 1.408.88 2.288 2.103 2.288.836 0 1.417-.449 1.699-1.074l.07 1.021h.387v-6.16h-.449v2.702zm-1.672 3.106c-.994 0-1.68-.774-1.68-1.883 0-1.1.686-1.883 1.68-1.883.995 0 1.681.783 1.681 1.892 0 1.1-.686 1.874-1.681 1.874zm5.148.405c.977 0 1.725-.634 1.919-1.531h-.458c-.176.695-.766 1.126-1.496 1.126-.994 0-1.619-.757-1.637-1.795v-.08h3.643c0-.061.009-.131.009-.184-.044-1.329-.862-2.103-2.059-2.103-1.223 0-2.059.932-2.059 2.252 0 1.4.871 2.315 2.138 2.315zm-1.637-2.658c.071-.906.748-1.513 1.567-1.513.871 0 1.496.536 1.566 1.513h-3.133zM316.472 39h.52l1.478-1.962L319.948 39h.546l-1.734-2.28 1.646-2.182h-.51l-1.408 1.848-1.391-1.848h-.537l1.646 2.183L316.472 39zm4.531-.29c0 .202.14.334.334.334a.318.318 0 00.334-.334c0-.203-.14-.326-.334-.326s-.334.123-.334.326zM186.158 24h1.477l1.413-4.392L190.411 24h1.464l2.146-6.462h-1.388l-1.528 4.947-1.413-4.947h-1.25l-1.476 4.947-1.477-4.947h-1.439L186.158 24zm11.975-6.538c-1.009 0-1.628.455-2.032 1.01v-3.307h-1.363V24h1.363v-3.269c0-1.3.657-2.095 1.729-2.095 1.01 0 1.553.657 1.553 1.88V24h1.363v-3.597c0-2.158-1.174-2.94-2.613-2.94zm6.87 6.614c1.603 0 2.688-.972 2.915-2.247h-1.363c-.189.72-.795 1.136-1.628 1.136-1.073 0-1.767-.72-1.805-1.817v-.089h4.872a3.74 3.74 0 00.038-.517c-.038-1.893-1.287-3.08-3.155-3.08-1.906 0-3.181 1.326-3.181 3.32 0 1.981 1.275 3.294 3.307 3.294zm-1.83-4.014c.101-.921.846-1.502 1.716-1.502.947 0 1.616.543 1.729 1.502h-3.445zm9.368-2.6c-1.047 0-1.666.417-2.069.922l-.152-.846h-1.186V24h1.363v-3.256c0-1.313.644-2.108 1.729-2.108 1.022 0 1.54.657 1.54 1.88V24h1.375v-3.597c0-2.158-1.173-2.94-2.6-2.94zm10.123 6.614c1.969 0 3.294-1.326 3.294-3.307 0-1.969-1.325-3.306-3.294-3.306s-3.294 1.337-3.294 3.306c0 1.982 1.325 3.307 3.294 3.307zm0-1.161c-1.148 0-1.893-.896-1.893-2.146s.745-2.145 1.893-2.145c1.149 0 1.906.896 1.906 2.145 0 1.25-.757 2.146-1.906 2.146zm4.808-.67c0 1.174.53 1.755 1.767 1.755h1.262v-1.199h-.959c-.518 0-.694-.19-.694-.694v-3.37h1.577v-1.199h-1.577v-1.805h-1.376v1.805h-1.123v1.2h1.123v3.508zm7.291-4.783c-1.01 0-1.628.455-2.032 1.01v-3.307h-1.363V24h1.363v-3.269c0-1.3.656-2.095 1.729-2.095 1.01 0 1.552.657 1.552 1.88V24h1.363v-3.597c0-2.158-1.173-2.94-2.612-2.94zm6.87 6.614c1.602 0 2.688-.972 2.915-2.247h-1.363c-.189.72-.795 1.136-1.628 1.136-1.073 0-1.767-.72-1.805-1.817v-.089h4.872a3.74 3.74 0 00.038-.517c-.038-1.893-1.288-3.08-3.156-3.08-1.905 0-3.18 1.326-3.18 3.32 0 1.981 1.275 3.294 3.307 3.294zm-1.83-4.014c.101-.921.845-1.502 1.716-1.502.947 0 1.615.543 1.729 1.502h-3.445zm9.229-2.524c-1.06 0-1.577.43-1.905.972l-.152-.972h-1.212V24h1.364v-3.244c0-.997.391-1.943 1.602-1.943h.606v-1.275h-.303zm.755 4.33c.038 1.4 1.224 2.208 2.953 2.208 1.565 0 2.739-.783 2.739-2.02 0-1.438-1.199-1.741-2.675-1.918-.934-.1-1.553-.177-1.553-.782 0-.518.53-.846 1.338-.846s1.363.416 1.439 1.01h1.338c-.089-1.325-1.212-2.058-2.802-2.058-1.553-.012-2.651.783-2.651 2.007 0 1.338 1.162 1.653 2.638 1.83.997.126 1.59.177 1.59.871 0 .517-.555.846-1.401.846-.984 0-1.565-.48-1.615-1.149h-1.338zm12.943 2.208c1.654 0 2.752-.922 3.004-2.386h-1.439c-.164.745-.719 1.225-1.552 1.225-1.098 0-1.817-.871-1.817-2.133 0-1.275.719-2.158 1.817-2.158.846 0 1.388.466 1.565 1.224h1.426c-.265-1.464-1.3-2.386-2.966-2.386-1.956 0-3.243 1.326-3.243 3.32 0 2.019 1.249 3.294 3.205 3.294zm9.954-1.262c-.278 0-.417-.089-.417-.417V19.81c0-1.527-.984-2.348-2.7-2.348-1.628 0-2.714.783-2.853 2.045h1.338c.101-.568.644-.947 1.452-.947.896 0 1.413.442 1.413 1.162v.39h-1.628c-1.805 0-2.764.745-2.764 2.07 0 1.2.984 1.894 2.398 1.894 1.047 0 1.704-.455 2.133-1.11 0 .643.303 1.034 1.186 1.034h.72v-1.186h-.278zm-1.767-1.464c-.013.997-.669 1.666-1.805 1.666-.744 0-1.199-.379-1.199-.922 0-.656.467-.972 1.313-.972h1.691v.228zm6.195-3.888c-1.048 0-1.666.417-2.07.922l-.152-.846h-1.186V24h1.363v-3.256c0-1.313.644-2.108 1.729-2.108 1.022 0 1.54.657 1.54 1.88V24h1.375v-3.597c0-2.158-1.173-2.94-2.599-2.94zm4.162-2.372c-.581 0-.959.378-.959.858 0 .53.328.808.744.808a.69.69 0 00.417-.14c.013.064.013.114.013.178 0 .441-.316.933-1.111.933v.745c1.249-.013 2.032-.707 2.032-1.93 0-.821-.442-1.452-1.136-1.452zm2.905 7.156c0 1.173.53 1.754 1.767 1.754h1.262v-1.199h-.959c-.518 0-.695-.19-.695-.694v-3.37h1.578v-1.199h-1.578v-1.805h-1.375v1.805h-1.123v1.2h1.123v3.508zm3.844.972c0 .504.366.858.87.858.505 0 .884-.354.884-.858 0-.505-.379-.859-.884-.859-.504 0-.87.354-.87.858z" fill="#000"/><path d="M.518 8.52h5.591V24h2.977V8.52h5.592V5.88H.518v2.64zm26.19 13.047c-.57 0-.854-.182-.854-.855v-5.306c0-3.133-2.019-4.815-5.54-4.815-3.339 0-5.565 1.605-5.85 4.193h2.744c.207-1.165 1.32-1.941 2.977-1.941 1.838 0 2.9.906 2.9 2.381v.803h-3.34c-3.702 0-5.67 1.527-5.67 4.245 0 2.46 2.02 3.883 4.92 3.883 2.148 0 3.494-.932 4.374-2.278 0 1.32.621 2.123 2.433 2.123h1.476v-2.433h-.57zm-3.624-3.003c-.026 2.045-1.372 3.417-3.701 3.417-1.528 0-2.46-.777-2.46-1.89 0-1.346.958-1.993 2.693-1.993h3.468v.466zM28.801 24h2.796v-3.365l2.381-2.485L37.887 24H41.2l-5.306-7.895 4.996-5.359h-3.288l-6.005 6.42V5.879H28.8V24zm19.208.155c3.288 0 5.514-1.993 5.98-4.608h-2.796c-.388 1.476-1.63 2.33-3.339 2.33-2.2 0-3.624-1.475-3.702-3.727v-.182h9.992a7.59 7.59 0 00.078-1.061c-.078-3.883-2.64-6.316-6.471-6.316-3.91 0-6.524 2.718-6.524 6.808 0 4.064 2.615 6.756 6.782 6.756zm-3.753-8.232c.207-1.89 1.734-3.08 3.52-3.08 1.942 0 3.314 1.113 3.547 3.08h-7.067zm30.965 5.644c-.57 0-.855-.182-.855-.855v-5.306c0-3.133-2.019-4.815-5.54-4.815-3.339 0-5.565 1.605-5.85 4.193h2.744c.207-1.165 1.32-1.941 2.977-1.941 1.838 0 2.9.906 2.9 2.381v.803h-3.34c-3.702 0-5.669 1.527-5.669 4.245 0 2.46 2.02 3.883 4.919 3.883 2.148 0 3.494-.932 4.374-2.278 0 1.32.622 2.123 2.434 2.123h1.475v-2.433h-.57zm-3.624-3.003c-.026 2.045-1.372 3.417-3.702 3.417-1.527 0-2.46-.777-2.46-1.89 0-1.346.958-1.993 2.693-1.993h3.469v.466zm19.432-7.973c-2.07 0-3.442.958-4.323 2.122l-.336-1.967h-2.434v18.431h2.796v-7.04c.829 1.19 2.252 2.018 4.297 2.018 3.625 0 6.265-2.692 6.265-6.782 0-4.245-2.64-6.782-6.265-6.782zM90.564 21.8c-2.33 0-3.858-1.838-3.858-4.479 0-2.563 1.528-4.349 3.858-4.349s3.883 1.786 3.883 4.401c0 2.589-1.554 4.427-3.883 4.427zm15.235 2.355c4.038 0 6.756-2.718 6.756-6.782 0-4.038-2.718-6.782-6.756-6.782-4.039 0-6.757 2.744-6.757 6.782 0 4.064 2.718 6.782 6.757 6.782zm0-2.381c-2.356 0-3.883-1.838-3.883-4.401 0-2.563 1.527-4.4 3.883-4.4s3.909 1.837 3.909 4.4c0 2.563-1.553 4.4-3.909 4.4zm8.359-2.149c.078 2.874 2.511 4.53 6.058 4.53 3.209 0 5.617-1.605 5.617-4.142 0-2.95-2.459-3.572-5.488-3.934-1.916-.207-3.184-.363-3.184-1.605 0-1.062 1.087-1.735 2.744-1.735 1.657 0 2.796.854 2.951 2.071h2.744c-.181-2.718-2.485-4.22-5.747-4.22-3.184-.025-5.436 1.606-5.436 4.117 0 2.744 2.381 3.39 5.41 3.753 2.045.26 3.262.363 3.262 1.786 0 1.062-1.139 1.735-2.873 1.735-2.02 0-3.21-.984-3.314-2.356h-2.744zm15.265-10.743c.958 0 1.709-.699 1.709-1.682 0-.984-.751-1.683-1.709-1.683-.958 0-1.708.699-1.708 1.683 0 .983.75 1.682 1.708 1.682zM128 24h2.795V10.746H128V24zm6.494-3.598c0 2.407 1.087 3.598 3.624 3.598h2.588v-2.46h-1.967c-1.061 0-1.424-.387-1.424-1.423v-6.912h3.236v-2.459h-3.236V7.044h-2.821v3.702h-2.304v2.46h2.304v7.196zm9.415-11.52c.958 0 1.708-.699 1.708-1.682 0-.984-.75-1.683-1.708-1.683S142.2 6.216 142.2 7.2c0 .983.751 1.682 1.709 1.682zM142.485 24h2.796V10.746h-2.796V24zm11.801.155c4.038 0 6.756-2.718 6.756-6.782 0-4.038-2.718-6.782-6.756-6.782s-6.757 2.744-6.757 6.782c0 4.064 2.719 6.782 6.757 6.782zm0-2.381c-2.356 0-3.883-1.838-3.883-4.401 0-2.563 1.527-4.4 3.883-4.4s3.909 1.837 3.909 4.4c0 2.563-1.553 4.4-3.909 4.4zM170.28 10.59c-2.149 0-3.417.854-4.246 1.89l-.31-1.735h-2.434V24h2.796v-6.679c0-2.692 1.32-4.323 3.547-4.323 2.096 0 3.158 1.346 3.158 3.857V24h2.821v-7.378c0-4.426-2.407-6.031-5.332-6.031z" fill="url(#paint0_linear_19_18785)"/><defs><linearGradient id="paint0_linear_19_18785" x1="228" y1="16" x2="0" y2="16" gradientUnits="userSpaceOnUse"><stop stop-color="#FF4343"/><stop offset=".5" stop-color="#9C0B93"/><stop offset="1" stop-color="#4C1BB7"/></linearGradient></defs></svg>