<svg width="158" height="11" viewBox="0 0 158 11" fill="none" xmlns="http://www.w3.org/2000/svg"><path d="M.204 1.9h2.203V8H3.58V1.9h2.203V.86H.204V1.9zm8.477.878c-.857 0-1.275.346-1.54.785l-.123-.785H6.04V8h1.102V5.379c0-.806.316-1.571 1.295-1.571h.49v-1.03H8.68zm5.538 4.263c-.224 0-.336-.071-.336-.336V4.614c0-1.235-.796-1.898-2.183-1.898-1.316 0-2.193.633-2.305 1.653h1.08c.082-.46.521-.765 1.174-.765.724 0 1.142.357 1.142.938v.316h-1.316c-1.458 0-2.233.602-2.233 1.673 0 .97.795 1.53 1.938 1.53.846 0 1.377-.367 1.723-.897 0 .52.245.836.96.836h.58v-.959h-.224zm-1.428-1.183c-.01.806-.54 1.346-1.458 1.346-.602 0-.97-.306-.97-.744 0-.53.378-.786 1.062-.786h1.366v.184zm6.18-2.356c-.336-.46-.897-.786-1.692-.786-1.418 0-2.469 1.061-2.469 2.673 0 1.673 1.05 2.672 2.469 2.672.826 0 1.366-.387 1.703-.846l.133.785h.958V.86h-1.101v2.642zm-1.509 3.631c-.918 0-1.52-.714-1.52-1.744 0-1.02.602-1.734 1.52-1.734s1.52.714 1.52 1.754c0 1.01-.602 1.724-1.52 1.724zm6.166.928c1.296 0 2.173-.785 2.357-1.815h-1.102c-.153.581-.643.918-1.316.918-.867 0-1.428-.582-1.458-1.47v-.07h3.937c.02-.143.03-.286.03-.419-.03-1.53-1.04-2.489-2.55-2.489-1.54 0-2.57 1.071-2.57 2.683 0 1.601 1.03 2.662 2.672 2.662zM22.15 4.818c.082-.745.684-1.214 1.388-1.214.765 0 1.305.438 1.397 1.214h-2.785zM32.79 8.06c1.663 0 2.877-.979 3.102-2.489h-1.214c-.225.908-.908 1.459-1.898 1.459-1.346 0-2.162-1.081-2.162-2.601 0-1.53.836-2.601 2.193-2.601.97 0 1.642.561 1.877 1.459H35.9c-.235-1.51-1.408-2.49-3.04-2.49-2.111 0-3.447 1.46-3.447 3.632 0 2.193 1.295 3.631 3.376 3.631zm6.601-5.283c-.856 0-1.275.346-1.54.785l-.122-.785h-.98V8h1.102V5.379c0-.806.316-1.571 1.296-1.571h.49v-1.03h-.246zm2.494 5.253l-.204.51c-.163.428-.265.53-.694.53h-.775v.969h1.183c.765 0 .99-.377 1.316-1.224l2.367-6.038h-1.173l-1.418 3.967-1.459-3.967h-1.173l2.03 5.253zm6.545-5.315c-.816 0-1.357.378-1.704.837l-.132-.775h-.96v7.262h1.102V7.266c.327.469.888.795 1.694.795 1.428 0 2.468-1.06 2.468-2.672 0-1.673-1.04-2.673-2.468-2.673zm-.184 4.417c-.918 0-1.52-.724-1.52-1.765 0-1.01.602-1.713 1.52-1.713s1.53.704 1.53 1.734c0 1.02-.612 1.744-1.53 1.744zm3.872-.55c0 .948.429 1.417 1.428 1.417h1.02v-.969h-.775c-.418 0-.561-.153-.561-.561V3.747h1.275v-.97h-1.275V1.32h-1.112v1.459h-.908v.969h.908v2.835zm5.508 1.478c1.591 0 2.662-1.07 2.662-2.672 0-1.591-1.071-2.673-2.662-2.673s-2.662 1.082-2.662 2.673c0 1.601 1.07 2.672 2.662 2.672zm0-.938c-.928 0-1.53-.724-1.53-1.734s.602-1.734 1.53-1.734 1.54.724 1.54 1.734-.612 1.734-1.54 1.734zm9.37.938c1.663 0 2.877-.979 3.101-2.489h-1.213c-.225.908-.908 1.459-1.898 1.459-1.346 0-2.162-1.081-2.162-2.601 0-1.53.836-2.601 2.193-2.601.969 0 1.642.561 1.877 1.459h1.214c-.235-1.51-1.408-2.49-3.04-2.49-2.111 0-3.448 1.46-3.448 3.632 0 2.193 1.296 3.631 3.377 3.631zM71.068 8h1.173V4.98h2.794V3.972H72.24v-2.07h3.386V.86h-4.56V8zm7.886 0c2.234 0 3.641-1.459 3.641-3.58 0-2.122-1.407-3.56-3.641-3.56h-2.428V8h2.428zm-1.255-6.12h1.255c1.57 0 2.438 1.01 2.438 2.54s-.867 2.56-2.438 2.56h-1.255v-5.1zm5.593 4.396c.03 1.132.99 1.785 2.387 1.785 1.264 0 2.213-.632 2.213-1.632 0-1.163-.969-1.407-2.162-1.55-.755-.082-1.255-.143-1.255-.633 0-.418.428-.683 1.081-.683s1.102.337 1.163.816h1.081c-.071-1.071-.979-1.663-2.264-1.663-1.255-.01-2.142.633-2.142 1.622 0 1.081.938 1.336 2.132 1.48.805.101 1.285.142 1.285.703 0 .418-.449.683-1.132.683-.796 0-1.265-.387-1.306-.928h-1.081zM92.956 8h1.377l1.438-5.253L97.23 8h1.367l2.05-7.14h-1.204l-1.53 5.65-1.55-5.65H95.25L93.66 6.51 92.14.85l-1.214.01L92.956 8zm8.891-5.957a.652.652 0 00.673-.663.652.652 0 00-.673-.663.652.652 0 00-.674.663c0 .388.296.663.674.663zM101.286 8h1.101V2.778h-1.101V8zm2.558-1.418c0 .949.429 1.418 1.428 1.418h1.02v-.969h-.775c-.418 0-.561-.153-.561-.561V3.747h1.275v-.97h-1.275V1.32h-1.112v1.459h-.907v.969h.907v2.835zm5.893-3.866c-.816 0-1.316.368-1.642.816V.86h-1.102V8h1.102V5.358c0-1.05.53-1.693 1.397-1.693.816 0 1.255.53 1.255 1.52V8h1.101V5.093c0-1.744-.948-2.377-2.111-2.377zm5.542 5.345c1.591 0 2.662-1.07 2.662-2.672 0-1.591-1.071-2.673-2.662-2.673s-2.662 1.082-2.662 2.673c0 1.601 1.071 2.672 2.662 2.672zm0-.938c-.928 0-1.53-.724-1.53-1.734s.602-1.734 1.53-1.734 1.54.724 1.54 1.734-.612 1.734-1.54 1.734zm7.128-1.734c0 1.081-.51 1.713-1.346 1.713-.806 0-1.214-.52-1.214-1.54V2.778h-1.102v2.907c0 1.785.949 2.376 2.061 2.376.805 0 1.285-.326 1.611-.724l.123.663h.969V2.778h-1.102v2.61zm2.594 1.193c0 .949.429 1.418 1.428 1.418h1.02v-.969h-.775c-.418 0-.561-.153-.561-.561V3.747h1.275v-.97h-1.275V1.32h-1.112v1.459h-.907v.969h.907v2.835zm8.972 1.48c1.663 0 2.876-.98 3.101-2.49h-1.214c-.224.908-.908 1.459-1.897 1.459-1.347 0-2.163-1.081-2.163-2.601 0-1.53.837-2.601 2.193-2.601.969 0 1.643.561 1.877 1.459h1.214c-.235-1.51-1.408-2.49-3.04-2.49-2.111 0-3.447 1.46-3.447 3.632 0 2.193 1.295 3.631 3.376 3.631zm6.427 0c1.591 0 2.662-1.072 2.662-2.673 0-1.591-1.071-2.673-2.662-2.673s-2.662 1.082-2.662 2.673c0 1.601 1.071 2.672 2.662 2.672zm0-.94c-.928 0-1.53-.723-1.53-1.733 0-1.01.602-1.734 1.53-1.734s1.54.724 1.54 1.734-.612 1.734-1.54 1.734zm3.294-.846c.031 1.132.989 1.785 2.387 1.785 1.265 0 2.213-.632 2.213-1.632 0-1.163-.969-1.407-2.162-1.55-.755-.082-1.255-.143-1.255-.633 0-.418.429-.683 1.081-.683.653 0 1.102.337 1.163.816h1.081c-.071-1.071-.979-1.663-2.264-1.663-1.255-.01-2.142.633-2.142 1.622 0 1.081.938 1.336 2.132 1.48.806.101 1.285.142 1.285.703 0 .418-.449.683-1.132.683-.796 0-1.265-.387-1.306-.928h-1.081zm5.831.306c0 .949.429 1.418 1.428 1.418h1.02v-.969h-.775c-.418 0-.561-.153-.561-.561V3.747h1.275v-.97h-1.275V1.32h-1.112v1.459h-.908v.969h.908v2.835zm2.925-.306c.03 1.132.989 1.785 2.386 1.785 1.265 0 2.214-.632 2.214-1.632 0-1.163-.969-1.407-2.163-1.55-.754-.082-1.254-.143-1.254-.633 0-.418.428-.683 1.081-.683s1.102.337 1.163.816h1.081c-.071-1.071-.979-1.663-2.264-1.663-1.255-.01-2.142.633-2.142 1.622 0 1.081.938 1.336 2.131 1.48.806.101 1.286.142 1.286.703 0 .418-.449.683-1.133.683-.795 0-1.264-.387-1.305-.928h-1.081z" fill="#000"/></svg>