<svg width="644" height="142" viewBox="0 0 644 142" fill="none" xmlns="http://www.w3.org/2000/svg"><path d="M277.783 95.559c-3.779-.195-7.557-.39-11.335 0-1.989.195-3.778.586-5.369 1.758-.796.391-1.392.978-1.989 1.76.199.195.398.195.796.195 3.38.977 6.761 1.563 10.141 1.367 1.591 0 3.182-.39 4.773-1.172 1.392-.586 2.585-1.563 3.38-3.126.398-.587.199-.782-.397-.782zm96.047 0c-3.977-.39-7.756-.195-11.733 0-.397 0-.397.195-.397.586a8.678 8.678 0 001.59 2.15c1.79 1.563 3.977 2.149 6.364 2.344 3.181.196 6.363-.195 9.545-.977l1.789-.586c-.198-.39-.397-.586-.596-.781-1.989-1.76-4.176-2.54-6.562-2.736zm11.931-5.667c-1.591.196-3.182.391-4.574.587-2.187.39-4.176.977-6.363 1.563-.398 0-.398.195-.199.586l1.193 1.172c1.989 1.368 4.176 1.759 6.562 1.564 2.387-.196 4.773-.782 6.96-1.76 1.193-.585 2.188-1.171 3.381-1.562v-.196c-.199-.195-.597-.39-.796-.586-1.988-1.172-4.175-1.368-6.164-1.368zm-120.307 2.931c.397-.39.199-.39-.199-.586-.994-.195-1.989-.586-2.983-.781-2.585-.587-5.17-1.173-7.755-1.368-1.989-.196-3.977 0-5.568.781-.597.196-.995.587-1.591.977l.199.196c.199 0 .199.195.397.195 2.188 1.172 4.375 2.15 6.762 2.736 2.386.586 4.772.781 7.357 0 1.193-.391 2.386-.977 3.381-2.15zm121.699-78.55c.199.195.398.195.597 0 .596-.978.994-2.15.994-3.127 0-1.759-.597-3.322-1.591-4.69-1.989-2.735-4.574-4.69-7.557-6.253-.397-.195-.596 0-.596.196 0 .586-.199 1.172-.199 1.758 0 1.954.795 3.518 1.989 5.08 1.789 2.541 4.176 4.69 6.363 7.035zm-134.227-.196c.994-.977 1.789-1.954 2.585-2.736 1.79-1.758 3.38-3.517 4.375-5.471.994-1.563 1.392-3.322.994-5.276 0-.586-.199-.781-.795-.39-2.784 1.563-5.37 3.321-7.159 5.861-1.193 1.368-1.79 3.127-1.79 4.885 0 .977.398 2.15.994 3.127.398.586.398.586.796 0zm4.772-3.127c-.199.391-.199.587.199.587h1.193c2.585 0 5.171-.587 7.358-1.759 2.983-1.368 5.369-3.517 7.159-6.057 0-.196 0-.196.199-.391-.199 0-.199-.196-.398-.196-.796 0-1.591 0-2.386.196-3.977.39-7.358 1.758-10.341 4.299-1.193.781-2.187 1.954-2.983 3.321zm108.774-7.425c2.187 2.931 4.971 5.276 8.352 6.644 2.386.977 4.772 1.368 7.159 1.172.596 0 .795-.195.397-.781-.994-1.564-2.386-2.931-3.977-4.104-2.982-2.15-6.562-3.126-10.539-3.517h-1.591v.39c.199 0 .199.196.199.196zm34.8 79.138c-1.193-.391-2.188-.587-3.381-.587v-.195l-3.579.586c-1.79.586-3.58 1.368-5.369 2.15-1.193.586-2.387 1.172-3.58 1.953-.397.196-.397.391 0 .587.199.195.597.39.796.586 2.187 1.368 4.573 1.368 6.96.586 3.38-.977 5.965-2.735 8.55-5.08.199-.391.199-.391-.397-.587zM251.136 88.72c1.392-.195 2.585-.782 3.58-1.563.198-.196.397-.391 0-.587-.398-.195-.597-.39-.995-.39-2.585-1.368-5.369-2.736-8.153-3.518-2.187-.586-4.573-.781-6.761 0-.596.196-.596.391-.199.782 1.79 1.759 3.778 3.126 5.966 4.103 1.591.782 3.38 1.173 5.17 1.368.597-.195.994-.195 1.392-.195zm143.573-67.022c.199.586.398.586.796.195 1.392-1.368 1.988-2.931 1.988-4.885-.198-.782-.198-1.563-.397-2.345-.995-3.126-2.983-5.667-5.369-7.816-.199-.195-.398-.195-.597.195-.199.782-.597 1.564-.795 2.345-.398 2.345.397 4.494 1.392 6.644.795 1.954 1.988 3.712 2.982 5.667zm-150.135.39c.199.196.398.196.596 0 .995-1.954 2.188-4.103 3.182-6.057.796-1.759 1.392-3.517 1.392-5.276 0-1.172-.199-2.345-.795-3.322-.398-.586-.398-.586-.796-.195-1.591 1.172-2.784 2.735-3.778 4.494-1.193 1.954-1.989 3.908-1.79 6.253.199 1.563.796 2.93 1.989 4.103zm-4.971 9.184c.198-.195.198-.39.198-.586.796-2.54 1.392-5.08 1.591-7.816.199-1.954 0-3.713-.795-5.471-.199-.782-.597-1.368-1.392-1.954-.199.195-.398.195-.398.39-.398.782-.994 1.564-1.392 2.54-.994 2.15-1.79 4.3-1.591 6.644 0 2.15.796 4.104 2.585 5.472.398.195.796.586 1.194.781zm160.476-.586c.198.586.198.586.795.39 2.784-1.758 3.579-4.494 3.182-7.425-.199-1.953-.995-3.908-1.79-5.862-.398-.781-.795-1.563-1.392-2.344h-.199l-1.193 1.758c-1.193 2.345-1.392 4.69-.795 7.23.397 1.954.994 4.104 1.392 6.253zM246.562 79.73c.398-.195.398-.39.199-.586-1.988-1.758-3.977-3.517-6.164-4.885-1.989-1.368-4.176-2.15-6.562-2.15h-1.79c-.398.196-.597.196-.199.587.795.977 1.591 2.15 2.386 3.126 1.591 1.76 3.58 3.322 5.966 4.104 1.988.977 4.176.781 6.164-.196zm156.499-7.034c-1.789.586-3.181 1.368-4.573 2.54-1.591 1.368-3.182 2.54-4.773 3.908-.398.391-.398.391.199.587l1.79.586c2.386.586 4.573 0 6.363-1.173a21.129 21.129 0 005.966-5.862c.199-.195.397-.586.596-.781-.199 0-.199-.196-.397-.196-1.989-.39-3.58-.195-5.171.391zm.199-35.172v2.93c0 .587.199.782.796.392 2.585-.977 3.977-2.931 4.573-5.471.597-3.127.199-6.058-.795-9.184-.199-.587-.199-.587-.597-.196-1.789 1.368-2.784 3.127-3.38 5.08-.597 2.15-.597 4.3-.597 6.449zM238.807 71.329c.398 0 .994-.195 1.591-.39.597 0 .597-.196.199-.587-.597-.781-1.193-1.758-1.989-2.54-1.392-1.759-2.784-3.517-4.573-4.885-1.79-1.368-3.58-1.954-5.767-2.15-.398 0-.597.196-.398.587.994 2.735 2.386 5.08 4.375 7.23 1.79 1.758 3.778 2.735 6.562 2.735zm-2.784-30.482c.398.195.597.195.597-.391v-2.931c.199-2.345 0-4.69-.597-7.034-.596-1.76-1.591-3.322-2.983-4.495-.596-.39-.596-.39-.795.196-.398 1.367-.796 2.735-.994 4.103-.199 2.15-.199 4.103.596 6.057.597 2.15 1.989 3.713 4.176 4.495zm175.589 20.126c-1.988 0-3.977.782-5.568 1.954-1.79 1.368-3.182 2.931-4.574 4.69-.795.977-1.391 1.954-2.187 2.93-.199.391-.199.587.199.587.597.195 1.392.195 1.591.39 2.784 0 4.772-.976 6.562-2.735 1.989-1.954 3.381-4.494 4.375-7.034.199-.782 0-.782-.398-.782zM230.057 47.881c1.194 1.759 2.983 2.931 4.972 3.127.596.195.795 0 .596-.587-.397-1.954-.795-3.908-1.392-5.862-.596-1.954-1.392-3.908-2.982-5.47-.995-.978-1.989-1.76-3.182-2.15v.586a21.691 21.691 0 000 5.08c.398 1.954.795 3.713 1.988 5.276zm175.589-3.126c-.596 1.758-.795 3.712-1.193 5.471-.199.977-.199.977.796.782 2.585-.587 4.375-2.15 5.369-4.495.994-2.15 1.193-4.494 1.392-7.034 0-.586-.199-1.172-.199-1.954 0-.39-.199-.39-.597-.39-1.193.585-1.988 1.172-2.784 2.148-1.392 1.564-2.187 3.518-2.784 5.472zM236.023 61.364h.597c.397 0 .596-.196.397-.586-.994-2.345-1.988-4.495-3.181-6.644-1.193-1.954-2.585-3.517-4.773-4.494-.596-.196-1.392-.391-1.988-.587-.398-.195-.398 0-.398.391 0 .587.199 1.173.199 1.564.398 2.344 1.193 4.69 2.784 6.643 1.591 2.345 3.579 3.517 6.363 3.713zm170.618-7.816c-1.392 2.15-2.585 4.494-3.58 6.839-.397.977-.397.977 1.392.977 1.79 0 3.58-.977 5.171-2.54 1.193-1.173 1.789-2.54 2.386-4.104.596-1.758 1.193-3.322 1.193-5.276 0-.39-.199-.39-.398-.39h-.397c-2.387.781-4.375 2.344-5.767 4.494zm-44.743 41.62c.995-.39 2.188-.586 3.381-.977 1.988-.782 3.778-1.758 5.369-3.322 1.392-1.368 2.187-2.93 2.386-4.885-.199-.586-.199-1.367-.397-1.954-.199-.39-.199-.586-.597-.195-1.79 1.172-3.778 2.345-5.568 3.713-1.591 1.172-2.983 2.54-3.977 4.103-.597.977-.994 1.954-.994 3.126 0 .391 0 .587.397.391zm-85.706-5.276a17.997 17.997 0 00-4.176-3.517c-1.392-.977-2.585-1.758-3.977-2.54-.199-.195-.398-.195-.597.195-.397 1.368-.596 2.54 0 3.908.398 1.368 1.392 2.54 2.585 3.517 2.387 1.76 4.972 2.931 7.756 3.713.596.195.795.195.596-.782 0-1.563-.994-3.126-2.187-4.494zm99.229 1.368c2.187-1.368 4.175-2.736 5.369-4.885 1.392-2.345 1.59-4.69 0-7.23-.398-.39-.398-.586-.796 0-.795.782-1.591 1.759-2.386 2.54-1.392 1.76-2.983 3.518-3.579 5.862a7.888 7.888 0 000 4.3c.596 0 .994-.196 1.392-.587zm-110.962 0c.398.195.995.586 1.392.782.199-.391.199-.782.199-.977.199-2.15-.199-4.104-1.392-5.862-1.392-2.345-3.181-4.3-4.971-6.058-.199-.39-.597-.195-.796 0-1.392 2.345-1.59 4.69-.198 7.035 1.59 2.15 3.579 3.712 5.766 5.08zm117.126-74.252a12.513 12.513 0 005.17-1.759c.398-.39.398-.39 0-.781-2.386-1.368-5.17-2.345-7.954-2.54-2.187-.196-4.176.39-5.966 1.758-.596.39-1.193.977-1.392 1.563.199 0 .199 0 .199.196 1.193.39 2.387.586 3.58.781 1.988.586 4.176.977 6.363.782zm-113.546-2.54c-1.79-1.954-4.176-2.736-6.761-2.54-2.387 0-4.773.781-6.96 1.953-.597.196-.994.587-1.591.782v.195c.597.391.994.587 1.591.977 2.784 1.368 5.568 1.368 8.551.782 1.59-.195 3.181-.586 4.772-.977 1.193-.195 1.193-.195.398-1.172zM384.966 86.18c1.789-1.759 3.38-3.713 4.175-6.058.995-2.735.398-5.276-1.789-7.23-.398-.39-.597-.39-.796.196-.795 1.563-1.59 2.93-2.187 4.494a11.625 11.625 0 00-.994 4.69c0 1.367.397 2.735.994 3.908 0 .195.199.39.597 0zm-129.853 0c.398.39.398.195.597-.196.596-1.172.994-2.54.994-4.298 0-.391-.199-1.173-.398-1.955a23.143 23.143 0 00-2.982-6.839c-.199-.586-.398-.586-.796-.195-1.988 2.15-2.585 4.494-1.79 7.23.995 2.735 2.586 4.69 4.375 6.253zm5.369-66.241c-.199-.196-.397-.196-.397-.391-2.188-1.759-4.773-2.15-7.358-1.563-2.784.586-4.971 2.15-6.96 4.103l-.398.391c.199.195.398.195.597.195 2.187.782 4.375.977 6.761.587 2.585-.587 4.971-1.759 7.358-2.931l.397-.391zm131.642 3.517c.796-.195 1.79-.39 2.585-.782v-.195l-.397-.39c-1.989-1.76-4.176-3.323-6.761-3.909-2.784-.781-5.171-.39-7.358 1.368-.199.195-.398.195-.597.39l.398.392c1.591.781 2.983 1.368 4.574 2.15 2.386.78 4.971 1.562 7.556.976zm-.795 53.93c.398.587.795 1.173 1.392 1.955.199-.196.398-.391.398-.587 1.193-1.758 1.988-3.908 2.386-6.057.398-2.931-.994-5.862-3.58-7.23-.397-.195-.596-.195-.596.196-.597 1.954-.994 3.908-.994 6.057-.398 2.15 0 3.908.994 5.667zm-144.17 1.955c.199 0 .199 0 .398.195.199-.195.199-.39.397-.586 1.591-1.954 2.387-4.104 2.188-6.448 0-2.15-.398-4.3-.994-6.449 0-.39-.199-.39-.597-.195-2.585 1.172-3.977 3.126-3.977 5.862 0 1.563.398 2.931.994 4.299.398 1.172.994 2.15 1.591 3.322zM386.556 25.8c-.596.195-.596.39-.198.782 1.392.977 2.585 2.149 3.977 2.93 1.988 1.368 4.374 2.345 6.96 2.345.596 0 1.392-.195 1.988-.195.597-.195.597-.195.199-.586-1.193-1.759-2.585-3.322-4.375-4.495-2.585-1.954-5.369-2.344-8.551-.781zm-133.034 0c-1.988-1.172-4.176-1.368-6.562-.586-2.187.781-3.977 2.345-5.568 4.103-.596.586-.994 1.368-1.591 1.954.199 0 .199.196.398.196 2.187.39 4.176.195 6.363-.587 2.586-.977 4.773-2.735 6.96-4.69.398 0 .199-.195 0-.39zM241.79 70.352c1.79-1.172 2.983-2.93 3.579-4.885.597-1.954.796-3.908.796-5.862v-1.758c0-.391-.199-.391-.597-.391-.199 0-.398.195-.398.195-2.386.977-3.977 2.54-4.573 5.08-.796 2.54-.398 5.081.398 7.621.198.196.397.391.795 0zm156.101-.195c.199.195.398.39.796.586.198-.195.198-.39.198-.39.597-1.955.995-3.909.796-5.863-.199-3.322-1.989-5.666-5.17-6.839-.597-.195-.597-.195-.597.391 0 1.954 0 3.908.398 5.667.397 2.735 1.591 4.885 3.579 6.448zm-3.977-33.218c1.79 2.15 4.176 3.712 6.96 4.103.795.195 1.392.195 2.187.195v-.39c-.795-2.345-1.988-4.495-3.778-6.058-2.187-1.954-4.772-2.54-7.755-1.758-.597.195-.597.195-.199.781.795.977 1.591 2.15 2.585 3.127zm-144.965-3.517c.199-.196 0-.391-.199-.391-2.188-.587-4.375-.391-6.364.586-1.988 1.172-3.181 2.736-4.175 4.69-.398.781-.796 1.758-1.194 2.735h.796c1.591 0 2.983-.39 4.375-.977 2.784-1.368 4.772-3.908 6.761-6.643zm154.908 17.195c-.398-1.368-.597-2.736-1.193-4.104-.995-2.54-2.784-4.494-5.568-5.276-.995-.39-2.188-.39-3.381-.195 0 .195 0 .39.199.586.994 2.15 1.989 4.3 3.579 6.058 1.591 1.758 3.381 2.93 5.767 3.517.597 0 .597 0 .597-.586zm-1.392 9.965V59.02c-.199-.977-.199-1.954-.398-2.931 0-.586-.199-.977-.398-1.563-.994-3.127-3.181-4.885-6.562-5.471-.596 0-.596 0-.596.586.397 2.15.994 4.103 1.789 6.057.995 2.345 2.784 3.908 5.17 5.08.796.391.995.391.995-.195zm-165.646-9.574c1.789-.391 3.579-1.368 4.971-2.54 1.591-1.564 2.784-3.713 3.778-5.667.199-.587.398-1.173.796-1.759h-.398c-3.182-.195-5.767.977-7.557 3.713-1.193 1.758-1.789 3.908-2.187 6.057-.199.391 0 .391.597.196zm1.193 9.965c1.789-.782 3.181-1.759 4.176-3.322.994-1.368 1.59-2.93 2.187-4.494.398-1.172.597-2.15.795-3.322.199-.586 0-.586-.596-.586-.199 0-.597.195-.796.195-2.187.587-3.778 1.759-4.971 3.713-.994 1.759-1.392 3.908-1.392 6.057v1.564c.199.39.199.39.597.195zM302.531 47.904h4.905c3.117 0 4.795-1.387 4.795-3.65 0-1.824-1.18-2.718-2.711-2.956 1.347-.364 2.213-1.277 2.213-2.791 0-2.098-1.623-3.376-4.463-3.376h-4.739v12.773zm4.795-11.021c1.475 0 2.287.693 2.287 1.825 0 1.15-.83 1.843-2.287 1.843h-2.674v-3.668h2.674zm.129 5.4c1.641 0 2.6.694 2.6 1.953 0 1.186-.904 1.898-2.6 1.898h-2.803v-3.85h2.803zM318.372 48.013c2.342 0 3.928-1.405 4.26-3.248h-1.992c-.277 1.04-1.162 1.642-2.379 1.642-1.568 0-2.582-1.04-2.637-2.627v-.128h7.118c.037-.255.056-.51.056-.748-.056-2.737-1.881-4.452-4.611-4.452-2.785 0-4.647 1.916-4.647 4.799 0 2.864 1.862 4.762 4.832 4.762zm-2.675-5.802c.148-1.332 1.236-2.171 2.509-2.171 1.383 0 2.36.784 2.526 2.17h-5.035zM323.948 44.82c.055 2.025 1.789 3.193 4.316 3.193 2.286 0 4.001-1.131 4.001-2.92 0-2.08-1.752-2.517-3.909-2.773-1.365-.146-2.269-.255-2.269-1.13 0-.749.775-1.223 1.955-1.223 1.181 0 1.992.602 2.103 1.46h1.954c-.129-1.917-1.77-2.975-4.094-2.975-2.268-.018-3.872 1.131-3.872 2.901 0 1.934 1.696 2.39 3.854 2.646 1.457.182 2.324.255 2.324 1.259 0 .748-.812 1.222-2.047 1.222-1.439 0-2.287-.693-2.361-1.66h-1.955zM334.491 45.367c0 1.697.775 2.537 2.582 2.537h1.844V46.17h-1.401c-.756 0-1.015-.273-1.015-1.003v-4.872h2.306v-1.733h-2.306v-2.61h-2.01v2.61h-1.641v1.733h1.641v5.072zM274.666 68.54c3.006 0 5.201-1.752 5.606-4.452h-2.194c-.406 1.624-1.641 2.609-3.43 2.609-2.435 0-3.91-1.934-3.91-4.653 0-2.737 1.512-4.652 3.965-4.652 1.752 0 2.969 1.003 3.393 2.609h2.195c-.424-2.7-2.545-4.452-5.496-4.452-3.817 0-6.233 2.609-6.233 6.495 0 3.923 2.342 6.496 6.104 6.496zM282.027 68.43h2.121v-5.4h5.053v-1.807h-5.053V57.52h6.122v-1.86h-8.243V68.43zM296.285 68.43c4.039 0 6.584-2.609 6.584-6.404s-2.545-6.368-6.584-6.368h-4.389V68.43h4.389zm-2.268-10.947h2.268c2.84 0 4.408 1.806 4.408 4.543s-1.568 4.58-4.408 4.58h-2.268v-9.123zM308.981 68.43h2.121v-4.634h2.969c2.692 0 4.463-1.606 4.463-4.07 0-2.48-1.771-4.068-4.463-4.068h-5.09V68.43zm4.924-10.947c1.512 0 2.471.857 2.471 2.244 0 1.368-.977 2.244-2.49 2.244h-2.784v-4.488h2.803zM324.738 59.088c-1.549 0-2.305.62-2.784 1.405l-.222-1.405h-1.77v9.342h1.992v-4.689c0-1.441.571-2.81 2.342-2.81h.885v-1.843h-.443zM330.422 68.54c2.877 0 4.813-1.916 4.813-4.78 0-2.847-1.936-4.781-4.813-4.781s-4.813 1.934-4.813 4.78c0 2.865 1.936 4.78 4.813 4.78zm0-1.679c-1.678 0-2.766-1.295-2.766-3.102 0-1.806 1.088-3.102 2.766-3.102s2.785 1.296 2.785 3.102c0 1.807-1.107 3.102-2.785 3.102zM338.95 68.43h2.434l3.486-9.342h-2.103l-2.563 7.226-2.6-7.226h-2.14l3.486 9.342zM346.892 57.775c.683 0 1.217-.493 1.217-1.186 0-.694-.534-1.186-1.217-1.186-.682 0-1.217.492-1.217 1.186 0 .693.535 1.186 1.217 1.186zm-1.014 10.655h1.992v-9.342h-1.992v9.342zM356.996 60.384c-.609-.821-1.623-1.405-3.061-1.405-2.564 0-4.463 1.897-4.463 4.78 0 2.993 1.899 4.78 4.463 4.78 1.493 0 2.471-.693 3.079-1.514l.24 1.405h1.734V55.658h-1.992v4.726zm-2.729 6.495c-1.66 0-2.748-1.277-2.748-3.12 0-1.824 1.088-3.102 2.748-3.102 1.659 0 2.747 1.278 2.747 3.139 0 1.806-1.088 3.083-2.747 3.083zM365.415 68.54c2.343 0 3.929-1.405 4.261-3.248h-1.992c-.277 1.04-1.162 1.642-2.379 1.642-1.568 0-2.582-1.04-2.637-2.627v-.128h7.118c.037-.256.056-.51.056-.748-.056-2.737-1.882-4.452-4.611-4.452-2.785 0-4.647 1.916-4.647 4.799 0 2.864 1.862 4.762 4.831 4.762zm-2.674-5.803c.148-1.331 1.236-2.17 2.508-2.17 1.384 0 2.361.784 2.527 2.17h-5.035zM376.228 59.088c-1.549 0-2.305.62-2.785 1.405l-.221-1.405h-1.77v9.342h1.991v-4.689c0-1.441.572-2.81 2.343-2.81h.885v-1.843h-.443zM249.897 123.168l1.194-3.017h4.922l1.194 3.017h1.501l-4.293-11.176h-1.662l-4.308 11.176h1.452zm3.647-9.659l2.049 5.38h-4.082l2.033-5.38zM263.6 123.168c3.534 0 5.681-2.251 5.681-5.588 0-3.352-2.147-5.588-5.681-5.588h-3.614v11.176h3.614zm-2.21-9.898h2.21c2.744 0 4.244 1.692 4.244 4.31 0 2.603-1.5 4.311-4.244 4.311h-2.21v-8.621zM273.58 123.168h1.694l4.066-11.176h-1.452l-3.437 9.532-3.453-9.532h-1.485l4.067 11.176zM280.582 123.168h1.404v-4.885h4.647v-1.278h-4.647v-3.735h5.616v-1.278h-7.02v11.176zM290.479 123.168v-8.621l6.068 8.621h1.29v-11.176h-1.371v8.622l-6.068-8.622h-1.291v11.176h1.372zM304.251 123.168h1.404v-11.176h-1.404v11.176zM311.685 114.93c-1.388 0-2.227.575-2.711 1.197l-.178-1.101h-1.145v8.142h1.323v-4.071c0-1.836.936-2.97 2.485-2.97 1.436 0 2.227.894 2.227 2.587v4.454h1.323v-4.534c0-2.698-1.468-3.704-3.324-3.704zM317.309 121.045c0 1.437.565 2.123 2.146 2.123h1.437v-1.197h-1.307c-.71 0-.952-.256-.952-.942v-4.806h2.13v-1.197h-2.13v-2.283h-1.324v2.283h-1.484v1.197h1.484v4.822zM325.626 123.264c1.904 0 3.259-1.198 3.582-2.826h-1.339c-.275 1.054-1.178 1.66-2.34 1.66-1.566 0-2.55-1.085-2.598-2.634v-.112h6.39c.016-.191.032-.383.032-.558-.064-2.411-1.581-3.864-3.905-3.864s-3.905 1.692-3.905 4.167c0 2.491 1.614 4.167 4.083 4.167zm-2.615-4.997c.129-1.325 1.243-2.187 2.453-2.187 1.372 0 2.34.782 2.469 2.187h-4.922zM334.671 115.026c-1.468 0-2.097.606-2.485 1.229l-.177-1.229h-1.146v8.142h1.323v-4.151c0-1.293.468-2.714 2.195-2.714h.661v-1.277h-.371zM340.224 114.93c-1.388 0-2.227.575-2.711 1.197l-.178-1.101h-1.146v8.142h1.324v-4.071c0-1.836.936-2.97 2.485-2.97 1.436 0 2.227.894 2.227 2.587v4.454h1.323v-4.534c0-2.698-1.469-3.704-3.324-3.704zM352.512 121.971c-.371 0-.532-.112-.532-.543v-3.56c0-1.9-1.21-2.938-3.308-2.938-1.985 0-3.292.942-3.486 2.538h1.324c.161-.83.935-1.373 2.097-1.373 1.291 0 2.05.639 2.05 1.693v.559h-2.421c-2.162 0-3.308.91-3.308 2.538 0 1.485 1.227 2.379 3.034 2.379 1.42 0 2.243-.623 2.759-1.357.016.798.388 1.261 1.485 1.261h.726v-1.197h-.42zm-1.855-2.124c0 1.357-.952 2.299-2.598 2.299-1.098 0-1.791-.543-1.791-1.341 0-.926.661-1.357 1.839-1.357h2.55v.399zM354.562 121.045c0 1.437.565 2.123 2.147 2.123h1.436v-1.197h-1.307c-.71 0-.952-.256-.952-.942v-4.806h2.13v-1.197h-2.13v-2.283h-1.324v2.283h-1.484v1.197h1.484v4.822zM359.969 113.653c.484 0 .855-.351.855-.846s-.371-.847-.855-.847-.855.352-.855.847.371.846.855.846zm-.678 9.515h1.324v-8.142h-1.324v8.142zM366.219 123.264c2.405 0 4.083-1.692 4.083-4.167 0-2.475-1.678-4.167-4.083-4.167-2.404 0-4.082 1.692-4.082 4.167 0 2.475 1.678 4.167 4.082 4.167zm0-1.166c-1.629 0-2.727-1.261-2.727-3.001s1.098-3.002 2.727-3.002c1.63 0 2.728 1.262 2.728 3.002 0 1.74-1.098 3.001-2.728 3.001zM375.854 114.93c-1.388 0-2.227.575-2.711 1.197l-.178-1.101h-1.146v8.142h1.324v-4.071c0-1.836.936-2.97 2.485-2.97 1.436 0 2.227.894 2.227 2.587v4.454h1.323v-4.534c0-2.698-1.469-3.704-3.324-3.704zM388.142 121.971c-.371 0-.532-.112-.532-.543v-3.56c0-1.9-1.21-2.938-3.308-2.938-1.985 0-3.292.942-3.486 2.538h1.324c.161-.83.936-1.373 2.097-1.373 1.291 0 2.05.639 2.05 1.693v.559h-2.421c-2.162 0-3.308.91-3.308 2.538 0 1.485 1.227 2.379 3.034 2.379 1.42 0 2.243-.623 2.759-1.357.016.798.388 1.261 1.485 1.261h.726v-1.197h-.42zm-1.855-2.124c0 1.357-.952 2.299-2.598 2.299-1.098 0-1.791-.543-1.791-1.341 0-.926.661-1.357 1.839-1.357h2.55v.399zM389.579 123.168h1.323v-11.176h-1.323v11.176zM241.186 141.414h1.404v-4.885h4.647v-1.278h-4.647v-3.735h5.615v-1.278h-7.019v11.176zM250.195 131.899c.484 0 .856-.351.856-.846s-.372-.847-.856-.847-.855.352-.855.847.371.846.855.846zm-.677 9.515h1.323v-8.142h-1.323v8.142zM256.688 133.176c-1.388 0-2.227.575-2.711 1.197l-.178-1.101h-1.145v8.142h1.323v-4.071c0-1.836.936-2.97 2.485-2.97 1.436 0 2.227.894 2.227 2.587v4.454h1.323v-4.534c0-2.698-1.469-3.704-3.324-3.704zM268.977 140.217c-.372 0-.533-.112-.533-.543v-3.56c0-1.9-1.21-2.938-3.308-2.938-1.985 0-3.292.942-3.486 2.538h1.324c.161-.83.936-1.373 2.097-1.373 1.291 0 2.05.639 2.05 1.693v.559H264.7c-2.162 0-3.308.91-3.308 2.538 0 1.485 1.227 2.379 3.034 2.379 1.42 0 2.243-.623 2.759-1.357.017.798.388 1.261 1.485 1.261h.726v-1.197h-.419zm-1.856-2.124c0 1.357-.952 2.299-2.598 2.299-1.097 0-1.791-.543-1.791-1.341 0-.926.661-1.357 1.839-1.357h2.55v.399zM274.448 133.176c-1.388 0-2.227.575-2.711 1.197l-.178-1.101h-1.146v8.142h1.324v-4.071c0-1.836.936-2.97 2.485-2.97 1.436 0 2.226.894 2.226 2.587v4.454h1.324v-4.534c0-2.698-1.469-3.704-3.324-3.704zM283.06 141.51c2 0 3.34-1.118 3.663-2.874h-1.404c-.259 1.038-1.065 1.708-2.243 1.708-1.582 0-2.647-1.213-2.647-2.985 0-1.772 1.065-3.018 2.647-3.018 1.21 0 2.017.655 2.259 1.741h1.388c-.339-1.788-1.614-2.906-3.631-2.906-2.388 0-4.018 1.692-4.018 4.183 0 2.538 1.581 4.151 3.986 4.151zM288.851 131.899c.484 0 .855-.351.855-.846s-.371-.847-.855-.847-.855.352-.855.847.371.846.855.846zm-.678 9.515h1.323v-8.142h-1.323v8.142zM298.587 140.217c-.371 0-.533-.112-.533-.543v-3.56c0-1.9-1.21-2.938-3.308-2.938-1.985 0-3.292.942-3.485 2.538h1.323c.161-.83.936-1.373 2.098-1.373 1.291 0 2.049.639 2.049 1.693v.559h-2.42c-2.163 0-3.308.91-3.308 2.538 0 1.485 1.226 2.379 3.033 2.379 1.42 0 2.243-.623 2.76-1.357.016.798.387 1.261 1.484 1.261h.726v-1.197h-.419zm-1.856-2.124c0 1.357-.952 2.299-2.598 2.299-1.097 0-1.791-.543-1.791-1.341 0-.926.662-1.357 1.839-1.357h2.55v.399zM300.024 141.414h1.323v-11.176h-1.323v11.176zM308.109 141.414l1.194-3.017h4.922l1.194 3.017h1.501l-4.293-11.176h-1.662l-4.308 11.176h1.452zm3.647-9.659l2.049 5.38h-4.082l2.033-5.38zM319.136 141.414h1.452l2.065-6.051 1.985 6.051h1.453l2.743-8.142h-1.34l-2.146 6.625-2.049-6.625h-1.226l-2.163 6.625-2.049-6.625h-1.388l2.663 8.142zM336.848 140.217c-.371 0-.532-.112-.532-.543v-3.56c0-1.9-1.21-2.938-3.308-2.938-1.985 0-3.292.942-3.486 2.538h1.324c.161-.83.936-1.373 2.097-1.373 1.291 0 2.05.639 2.05 1.693v.559h-2.421c-2.162 0-3.308.91-3.308 2.538 0 1.485 1.227 2.379 3.034 2.379 1.42 0 2.243-.623 2.759-1.357.016.798.388 1.261 1.485 1.261h.726v-1.197h-.42zm-1.855-2.124c0 1.357-.952 2.299-2.598 2.299-1.098 0-1.791-.543-1.791-1.341 0-.926.661-1.357 1.839-1.357h2.55v.399zM342.094 133.272c-1.469 0-2.098.606-2.486 1.229l-.177-1.229h-1.146v8.142h1.323v-4.151c0-1.293.468-2.714 2.195-2.714h.662v-1.277h-.371zM349.626 134.517c-.5-.782-1.436-1.341-2.824-1.341-2.275 0-3.954 1.676-3.954 4.167 0 2.65 1.679 4.167 3.954 4.167 1.388 0 2.275-.655 2.824-1.405l.177 1.309h1.146v-11.176h-1.323v4.279zm-2.695 5.827c-1.63 0-2.727-1.229-2.727-3.001 0-1.772 1.097-3.002 2.727-3.002 1.614 0 2.711 1.246 2.711 3.034 0 1.74-1.097 2.969-2.711 2.969zM352.413 138.732c.032 1.788 1.5 2.778 3.63 2.778 1.824 0 3.292-.942 3.292-2.459 0-1.804-1.5-2.155-3.372-2.379-1.194-.143-2.066-.255-2.066-1.149 0-.751.775-1.229 1.921-1.229 1.129 0 1.904.622 2.001 1.452h1.355c-.129-1.692-1.485-2.554-3.356-2.57-1.856-.016-3.228.958-3.228 2.443 0 1.692 1.469 2.059 3.308 2.283 1.227.143 2.13.223 2.13 1.245 0 .75-.823 1.245-1.985 1.245-1.371 0-2.226-.702-2.275-1.66h-1.355zM364.479 141.414h7.778v-1.229h-5.906l3.388-2.842c1.34-1.134 2.437-2.187 2.437-3.864 0-2.011-1.42-3.336-3.857-3.336-2.275 0-3.776 1.5-3.776 3.608v.287h1.356v-.207c0-1.533.968-2.491 2.42-2.491 1.501 0 2.469.798 2.469 2.203 0 1.214-.871 2.076-1.92 2.97l-4.389 3.767v1.134zM373.453 136.082c0 3.336 1.743 5.428 4.293 5.428 2.533 0 4.276-2.092 4.276-5.428v-.511c0-3.177-1.743-5.428-4.276-5.428-2.55 0-4.293 2.251-4.293 5.428v.511zm7.197-.048c0 2.65-1.162 4.246-2.904 4.246-1.759 0-2.921-1.596-2.921-4.246v-.415c0-2.651 1.162-4.247 2.921-4.247 1.742 0 2.904 1.596 2.904 4.247v.415zM383.074 141.414h7.778v-1.229h-5.906l3.388-2.842c1.34-1.134 2.437-2.187 2.437-3.864 0-2.011-1.42-3.336-3.857-3.336-2.275 0-3.776 1.5-3.776 3.608v.287h1.356v-.207c0-1.533.968-2.491 2.42-2.491 1.501 0 2.469.798 2.469 2.203 0 1.214-.871 2.076-1.92 2.97l-4.389 3.767v1.134zM391.71 141.414h7.777v-1.229h-5.906l3.389-2.842c1.339-1.134 2.437-2.187 2.437-3.864 0-2.011-1.42-3.336-3.857-3.336-2.275 0-3.776 1.5-3.776 3.608v.287h1.356v-.207c0-1.533.968-2.491 2.42-2.491 1.501 0 2.469.798 2.469 2.203 0 1.214-.871 2.076-1.92 2.97l-4.389 3.767v1.134zM504.665 95.559c-3.735-.195-7.471-.39-11.206 0-1.966.195-3.735.586-5.308 1.759-.787.39-1.376.977-1.966 1.758.197.196.393.196.786.196 3.342.977 6.685 1.563 10.027 1.367 1.572 0 3.145-.39 4.718-1.172 1.376-.586 2.556-1.563 3.342-3.126.393-.587.197-.782-.393-.782zm100.409 0c-3.932-.39-7.667-.195-11.599 0-.393 0-.393.195-.393.586a8.669 8.669 0 001.573 2.15c1.769 1.563 3.931 2.149 6.291 2.344 3.145.196 6.291-.195 9.436-.977l1.77-.586c-.197-.39-.394-.586-.59-.781-1.966-1.759-4.129-2.54-6.488-2.736zm11.796-5.667c-1.573.196-3.146.391-4.522.587-2.162.39-4.128.977-6.291 1.563-.393 0-.393.195-.197.586l1.18 1.172c1.966 1.368 4.129 1.759 6.488 1.564 2.359-.196 4.718-.782 6.881-1.759 1.179-.586 2.162-1.172 3.342-1.563v-.196c-.197-.195-.59-.39-.787-.586-1.966-1.172-4.128-1.368-6.094-1.368zm-124.394 2.931c.393-.39.197-.39-.197-.586-.983-.195-1.966-.586-2.949-.781-2.555-.587-5.111-1.173-7.667-1.368-1.966-.196-3.932 0-5.504.781-.59.196-.983.587-1.573.977l.196.196c.197 0 .197.195.394.195 2.162 1.173 4.325 2.15 6.684 2.736 2.359.586 4.718.781 7.274 0 1.179-.391 2.359-.977 3.342-2.15zm125.77-78.55c.197.195.393.195.59 0 .59-.978.983-2.15.983-3.127 0-1.759-.59-3.322-1.573-4.69-1.966-2.735-4.522-4.69-7.471-6.253-.393-.195-.589 0-.589.196 0 .586-.197 1.172-.197 1.758 0 1.954.786 3.518 1.966 5.08 1.769 2.541 4.128 4.69 6.291 7.035zm-138.156-.196c.983-.977 1.77-1.954 2.556-2.736 1.77-1.758 3.342-3.517 4.325-5.47.983-1.564 1.376-3.323.983-5.277 0-.586-.196-.781-.786-.39-2.752 1.563-5.308 3.321-7.078 5.861-1.179 1.368-1.769 3.127-1.769 4.885 0 .978.393 2.15.983 3.127.393.586.393.586.786 0zm4.719-3.127c-.197.391-.197.587.196.587h1.18c2.556 0 5.111-.587 7.274-1.759 2.949-1.368 5.308-3.517 7.077-6.057 0-.196 0-.196.197-.391-.197 0-.197-.196-.393-.196-.787 0-1.573 0-2.359.196-3.932.39-7.274 1.758-10.223 4.299-1.18.781-2.163 1.954-2.949 3.322zM597.8 3.526c2.163 2.931 4.915 5.276 8.257 6.644 2.359.977 4.718 1.368 7.077 1.172.59 0 .787-.195.394-.781-.983-1.564-2.359-2.931-3.932-4.104-2.949-2.15-6.488-3.126-10.42-3.517h-1.573v.39c.197 0 .197.196.197.196zm34.404 79.137c-1.179-.39-2.162-.586-3.342-.586v-.195l-3.539.586c-1.769.586-3.538 1.368-5.308 2.15-1.179.586-2.359 1.172-3.538 1.953-.394.196-.394.391 0 .587.196.195.589.39.786.586 2.163 1.368 4.522 1.368 6.881.586 3.342-.977 5.898-2.735 8.453-5.08.197-.391.197-.391-.393-.587zM478.321 88.72c1.376-.195 2.556-.782 3.539-1.563.196-.196.393-.391 0-.587-.393-.195-.59-.39-.983-.39-2.556-1.368-5.308-2.736-8.061-3.518-2.162-.586-4.521-.781-6.684 0-.59.196-.59.391-.196.782 1.769 1.759 3.735 3.126 5.897 4.103 1.573.782 3.343 1.173 5.112 1.368.59-.195.983-.195 1.376-.195zm147.396-67.022c.196.586.393.586.786.195 1.376-1.368 1.966-2.931 1.966-4.885-.197-.782-.197-1.563-.393-2.345-.983-3.126-2.949-5.667-5.308-7.816-.197-.195-.394-.195-.59.195-.197.782-.59 1.564-.787 2.345-.393 2.345.394 4.495 1.377 6.644.786 1.954 1.966 3.713 2.949 5.667zm-153.884.39c.197.196.394.196.59 0 .983-1.954 2.163-4.103 3.146-6.057.786-1.759 1.376-3.517 1.376-5.276 0-1.172-.197-2.345-.786-3.322-.394-.586-.394-.586-.787-.195-1.573 1.172-2.752 2.735-3.735 4.494-1.18 1.954-1.966 3.908-1.769 6.253.196 1.563.786 2.93 1.965 4.103zm-4.914 9.184c.196-.195.196-.39.196-.586.787-2.54 1.376-5.08 1.573-7.816.197-1.954 0-3.713-.786-5.471-.197-.782-.59-1.368-1.377-1.954-.196.195-.393.195-.393.39-.393.782-.983 1.564-1.376 2.54-.983 2.15-1.769 4.3-1.573 6.644 0 2.15.787 4.104 2.556 5.472.393.195.786.586 1.18.781zm164.106-.586c.196.586.196.586.786.39 2.752-1.758 3.539-4.494 3.146-7.425-.197-1.953-.983-3.907-1.77-5.861-.393-.782-.786-1.564-1.376-2.345h-.197l-1.179 1.758c-1.18 2.345-1.376 4.69-.787 7.23.394 1.954.983 4.104 1.377 6.253zM473.799 79.73c.394-.195.394-.39.197-.586-1.966-1.758-3.932-3.517-6.094-4.885-1.966-1.368-4.129-2.15-6.488-2.15h-1.769c-.394.196-.59.196-.197.587.786.977 1.573 2.15 2.359 3.126 1.573 1.76 3.539 3.322 5.898 4.104 1.966.977 4.128.781 6.094-.196zm160.175-7.034c-1.77.586-3.146 1.368-4.522 2.54-1.573 1.368-3.146 2.54-4.718 3.908-.394.391-.394.391.196.587l1.77.586c2.359.586 4.521 0 6.291-1.173a20.986 20.986 0 005.897-5.862c.197-.195.394-.586.59-.781-.196 0-.196-.196-.393-.196-1.966-.39-3.539-.195-5.111.391zm.196-35.172v2.931c0 .586.197.782.787.39 2.555-.976 3.931-2.93 4.521-5.47.59-3.127.197-6.058-.786-9.184-.197-.587-.197-.587-.59-.196-1.769 1.368-2.752 3.127-3.342 5.08-.59 2.15-.59 4.3-.59 6.449zM466.132 71.329c.393 0 .983-.195 1.573-.39.59 0 .59-.196.197-.587-.59-.781-1.18-1.758-1.966-2.54-1.377-1.758-2.753-3.517-4.522-4.885-1.769-1.368-3.539-1.954-5.701-2.15-.394 0-.59.196-.394.587.983 2.736 2.36 5.08 4.326 7.23 1.769 1.758 3.735 2.735 6.487 2.735zm-2.752-30.482c.393.195.59.195.59-.391v-2.931c.196-2.345 0-4.69-.59-7.034-.59-1.76-1.573-3.322-2.949-4.495-.59-.39-.59-.39-.786.196-.394 1.367-.787 2.735-.983 4.103-.197 2.15-.197 4.104.589 6.058.59 2.149 1.966 3.712 4.129 4.494zm179.047 20.126c-1.966 0-3.932.782-5.504 1.954-1.77 1.368-3.146 2.931-4.522 4.69-.787.977-1.376 1.954-2.163 2.93-.196.392-.196.587.197.587.59.195 1.376.195 1.573.39 2.752 0 4.718-.976 6.487-2.735 1.966-1.954 3.342-4.494 4.325-7.034.197-.782 0-.782-.393-.782zM457.482 47.881c1.18 1.759 2.949 2.931 4.915 3.127.59.195.786 0 .59-.587-.394-1.954-.787-3.908-1.376-5.862-.59-1.954-1.377-3.908-2.949-5.47-.983-.978-1.966-1.76-3.146-2.15v.586a21.91 21.91 0 000 5.08c.393 1.954.786 3.713 1.966 5.276zm179.047-3.126c-.589 1.758-.786 3.712-1.179 5.471-.197.977-.197.977.786.782 2.556-.587 4.325-2.15 5.308-4.495.983-2.149 1.18-4.494 1.376-7.034 0-.586-.196-1.172-.196-1.954 0-.39-.197-.39-.59-.39-1.18.585-1.966 1.172-2.752 2.149-1.377 1.563-2.163 3.517-2.753 5.47zM463.38 61.364h.59c.393 0 .589-.195.393-.586-.983-2.345-1.966-4.495-3.146-6.644-1.179-1.954-2.555-3.517-4.718-4.494-.59-.196-1.376-.391-1.966-.586-.393-.196-.393 0-.393.39 0 .587.196 1.173.196 1.564.394 2.344 1.18 4.69 2.753 6.643 1.573 2.345 3.539 3.517 6.291 3.713zm174.132-7.816c-1.376 2.15-2.555 4.494-3.538 6.839-.394.977-.394.977 1.376.977 1.769 0 3.538-.977 5.111-2.54 1.18-1.173 1.77-2.54 2.359-4.104.59-1.758 1.18-3.322 1.18-5.276 0-.39-.197-.39-.393-.39h-.393c-2.36.781-4.326 2.344-5.702 4.494zm-44.234 41.62c.983-.39 2.163-.586 3.342-.977 1.966-.781 3.736-1.758 5.309-3.322 1.376-1.367 2.162-2.93 2.359-4.885-.197-.586-.197-1.367-.393-1.954-.197-.39-.197-.586-.59-.195-1.77 1.172-3.736 2.345-5.505 3.713-1.573 1.172-2.949 2.54-3.932 4.103-.59.977-.983 1.954-.983 3.126 0 .391 0 .587.393.391zm-90.186-5.276a17.852 17.852 0 00-4.128-3.517c-1.377-.977-2.556-1.758-3.932-2.54-.197-.195-.393-.195-.59.195-.393 1.368-.59 2.54 0 3.908.393 1.368 1.376 2.54 2.556 3.518 2.359 1.758 4.915 2.93 7.667 3.712.59.196.786.196.59-.781 0-1.564-.983-3.127-2.163-4.495zm103.555 1.368c2.162-1.368 4.128-2.735 5.308-4.885 1.376-2.345 1.573-4.69 0-7.23-.393-.39-.393-.586-.786 0-.787.782-1.573 1.759-2.36 2.54-1.376 1.76-2.949 3.518-3.538 5.862a7.965 7.965 0 000 4.3c.589 0 .983-.196 1.376-.587zm-115.154 0c.393.196.983.586 1.376.782.197-.391.197-.782.197-.977.196-2.15-.197-4.104-1.376-5.862-1.377-2.345-3.146-4.3-4.915-6.058-.197-.39-.59-.195-.787 0-1.376 2.345-1.572 4.69-.196 7.035 1.572 2.15 3.538 3.712 5.701 5.08zm121.248-74.252a12.279 12.279 0 005.112-1.759c.393-.39.393-.39 0-.781-2.359-1.368-5.112-2.345-7.864-2.54-2.163-.196-4.129.39-5.898 1.758-.59.39-1.179.977-1.376 1.563.197 0 .197 0 .197.196 1.179.39 2.359.586 3.538.781 1.966.587 4.129.977 6.291.782zm-117.709-2.54c-1.77-1.954-4.129-2.736-6.685-2.54-2.359 0-4.718.781-6.88 1.954-.59.195-.983.586-1.573.781v.195c.59.391.983.587 1.573.977 2.752 1.368 5.504 1.368 8.453.782 1.573-.195 3.146-.586 4.719-.977 1.179-.195 1.179-.195.393-1.172zM616.083 86.18c1.77-1.759 3.343-3.713 4.129-6.058.983-2.735.393-5.275-1.769-7.23-.394-.39-.59-.39-.787.196-.786 1.563-1.573 2.93-2.162 4.494a11.741 11.741 0 00-.983 4.69c0 1.367.393 2.735.983 3.908 0 .195.196.39.589 0zm-133.83 0c.393.39.393.195.59-.196.59-1.172.983-2.54.983-4.298 0-.391-.197-1.173-.393-1.955a23.283 23.283 0 00-2.949-6.838c-.197-.587-.394-.587-.787-.196-1.966 2.15-2.555 4.494-1.769 7.23.983 2.735 2.556 4.69 4.325 6.253zm5.308-66.241c-.197-.195-.393-.195-.393-.39-2.163-1.76-4.718-2.15-7.274-1.564-2.752.586-4.915 2.15-6.881 4.103l-.393.391c.196.195.393.195.59.195 2.162.782 4.325.977 6.684.587 2.556-.587 4.915-1.759 7.274-2.931l.393-.391zm135.6 3.517c.786-.195 1.769-.39 2.556-.782v-.195l-.394-.39c-1.966-1.76-4.128-3.322-6.684-3.909-2.752-.781-5.111-.39-7.274 1.368-.196.196-.393.196-.59.39l.394.392c1.572.781 2.948 1.368 4.521 2.15 2.359.78 4.915 1.562 7.471.976zm-.787 53.93c.394.587.787 1.173 1.377 1.955.196-.196.393-.391.393-.587 1.179-1.758 1.966-3.907 2.359-6.057.393-2.93-.983-5.862-3.539-7.23-.393-.195-.59-.195-.59.196-.589 1.954-.983 3.908-.983 6.057-.393 2.15 0 3.908.983 5.667zm-147.985 1.955c.197 0 .197 0 .393.195.197-.195.197-.39.394-.586 1.572-1.954 2.359-4.103 2.162-6.448 0-2.15-.393-4.3-.983-6.448 0-.391-.196-.391-.59-.196-2.555 1.172-3.932 3.126-3.932 5.862 0 1.563.394 2.931.983 4.299.394 1.172.983 2.15 1.573 3.322zM617.656 25.8c-.59.195-.59.39-.196.782 1.376.977 2.555 2.149 3.931 2.93 1.966 1.368 4.326 2.345 6.881 2.345.59 0 1.377-.195 1.966-.195.59-.195.59-.195.197-.586-1.18-1.759-2.556-3.322-4.325-4.495-2.556-1.954-5.308-2.344-8.454-.781zm-136.976 0c-1.966-1.172-4.128-1.368-6.487-.586-2.163.781-3.932 2.345-5.505 4.103-.59.586-.983 1.368-1.573 1.954.197 0 .197.196.393.196 2.163.39 4.129.195 6.291-.587 2.556-.977 4.719-2.735 6.881-4.69.393 0 .197-.195 0-.39zm-11.599 44.551c1.769-1.172 2.949-2.93 3.539-4.885.59-1.954.786-3.908.786-5.862v-1.758c0-.391-.196-.391-.59-.391-.196 0-.393.195-.393.195-2.359.977-3.932 2.54-4.521 5.08-.787 2.54-.394 5.081.393 7.621.196.196.393.391.786 0zm159.781-.195c.197.195.393.39.786.586.197-.195.197-.39.197-.39.59-1.955.983-3.909.786-5.863-.196-3.322-1.965-5.666-5.111-6.839-.59-.195-.59-.195-.59.391 0 1.954 0 3.908.393 5.667.394 2.735 1.573 4.885 3.539 6.448zm-3.932-33.218c1.77 2.15 4.129 3.712 6.881 4.103.786.196 1.376.196 2.163.196v-.391c-.787-2.345-1.966-4.494-3.736-6.058-2.162-1.954-4.718-2.54-7.667-1.758-.59.195-.59.195-.197.781.787.977 1.573 2.15 2.556 3.127zm-148.771-3.517c.196-.196 0-.391-.197-.391-2.163-.587-4.325-.391-6.291.586-1.966 1.172-3.146 2.736-4.129 4.69-.393.781-.786 1.758-1.179 2.735h.786c1.573 0 2.949-.39 4.325-.977 2.753-1.368 4.719-3.908 6.685-6.643zM634.76 50.617c-.393-1.368-.59-2.736-1.18-4.104-.983-2.54-2.752-4.494-5.504-5.275-.983-.391-2.163-.391-3.342-.196 0 .196 0 .391.196.586.983 2.15 1.966 4.3 3.539 6.058 1.573 1.758 3.342 2.93 5.701 3.517.59 0 .59 0 .59-.586zm-1.376 9.965V59.02c-.197-.977-.197-1.954-.393-2.931 0-.586-.197-.977-.394-1.563-.983-3.127-3.145-4.885-6.487-5.471-.59 0-.59 0-.59.586.393 2.15.983 4.103 1.769 6.057.983 2.345 2.753 3.908 5.112 5.08.786.392.983.391.983-.195zm-169.218-9.574c1.77-.391 3.539-1.368 4.915-2.54 1.573-1.564 2.752-3.713 3.735-5.667.197-.586.394-1.173.787-1.759h-.393c-3.146-.195-5.702.977-7.471 3.713-1.18 1.758-1.769 3.908-2.163 6.057-.196.391 0 .391.59.196zm1.18 9.965c1.769-.782 3.145-1.759 4.128-3.322.983-1.368 1.573-2.93 2.163-4.494.393-1.172.59-2.15.786-3.322.197-.586 0-.586-.59-.586-.196 0-.589.195-.786.195-2.162.587-3.735 1.759-4.915 3.713-.983 1.759-1.376 3.908-1.376 6.057v1.564c.197.39.197.39.59.195zM496.217 45.623h4.91c3.12 0 4.8-1.387 4.8-3.65 0-1.824-1.181-2.718-2.714-2.955 1.348-.365 2.216-1.277 2.216-2.792 0-2.098-1.625-3.375-4.468-3.375h-4.744v12.772zm4.8-11.02c1.477 0 2.289.693 2.289 1.824 0 1.15-.831 1.843-2.289 1.843h-2.677v-3.668h2.677zm.129 5.4c1.643 0 2.603.694 2.603 1.953 0 1.185-.905 1.897-2.603 1.897h-2.806v-3.85h2.806zM512.074 45.732c2.344 0 3.932-1.405 4.264-3.247h-1.994c-.277 1.04-1.163 1.642-2.381 1.642-1.569 0-2.585-1.04-2.64-2.628v-.127h7.126c.037-.256.055-.511.055-.748-.055-2.737-1.883-4.453-4.615-4.453-2.788 0-4.652 1.916-4.652 4.8 0 2.864 1.864 4.761 4.837 4.761zm-2.677-5.802c.148-1.332 1.237-2.171 2.51-2.171 1.385 0 2.363.785 2.529 2.171h-5.039zM517.656 42.54c.055 2.025 1.79 3.192 4.319 3.192 2.289 0 4.006-1.13 4.006-2.919 0-2.08-1.753-2.518-3.913-2.773-1.366-.146-2.271-.256-2.271-1.132 0-.748.775-1.222 1.957-1.222 1.181 0 1.994.602 2.104 1.46h1.957c-.129-1.916-1.772-2.974-4.098-2.974-2.271-.019-3.877 1.13-3.877 2.9 0 1.935 1.699 2.39 3.858 2.646 1.459.183 2.326.256 2.326 1.26 0 .747-.812 1.222-2.049 1.222-1.44 0-2.289-.694-2.363-1.66h-1.956zM528.209 43.087c0 1.697.776 2.536 2.585 2.536h1.846V43.89h-1.403c-.757 0-1.016-.274-1.016-1.004v-4.872h2.308v-1.733h-2.308v-2.61h-2.012v2.61h-1.643v1.733h1.643v5.073zM538.317 41.426c.074 2.555 2.013 4.306 5.225 4.306 2.843 0 4.781-1.587 4.781-3.886.018-2.518-2.068-3.193-4.209-3.576-2.031-.347-3.36-.62-3.36-1.934 0-1.204 1.016-1.825 2.474-1.825 1.569 0 2.603.876 2.769 2.171h2.123c-.092-2.353-1.938-3.94-4.892-3.94-2.751 0-4.597 1.514-4.597 3.74 0 2.536 2.031 3.211 4.172 3.576 2.049.365 3.397.657 3.397 2.007 0 1.222-1.108 1.898-2.64 1.898-1.809 0-2.99-1.004-3.101-2.5l-2.142-.037zM555.047 36.172c-1.477 0-2.455.675-3.083 1.496l-.24-1.387h-1.735v12.991h1.993V44.31c.591.84 1.606 1.423 3.065 1.423 2.584 0 4.467-1.897 4.467-4.78 0-2.992-1.883-4.78-4.467-4.78zm-.332 7.9c-1.662 0-2.751-1.296-2.751-3.157 0-1.806 1.089-3.065 2.751-3.065 1.661 0 2.769 1.26 2.769 3.102 0 1.825-1.108 3.12-2.769 3.12zM565.893 36.281c-1.551 0-2.308.62-2.788 1.405l-.221-1.405h-1.772v9.342h1.993v-4.69c0-1.44.573-2.81 2.345-2.81h.886v-1.842h-.443zM571.601 45.732c2.344 0 3.932-1.405 4.264-3.247h-1.994c-.276 1.04-1.163 1.642-2.381 1.642-1.569 0-2.584-1.04-2.64-2.628v-.127h7.126c.037-.256.055-.511.055-.748-.055-2.737-1.883-4.453-4.615-4.453-2.787 0-4.652 1.916-4.652 4.8 0 2.864 1.865 4.761 4.837 4.761zm-2.677-5.802c.148-1.332 1.237-2.171 2.511-2.171 1.384 0 2.363.785 2.529 2.171h-5.04zM586.283 43.908c-.407 0-.61-.128-.61-.602v-3.74c0-2.209-1.44-3.395-3.95-3.395-2.382 0-3.969 1.132-4.172 2.956h1.957c.147-.82.941-1.368 2.123-1.368 1.31 0 2.067.639 2.067 1.678v.566h-2.381c-2.64 0-4.043 1.077-4.043 2.992 0 1.734 1.44 2.737 3.507 2.737 1.533 0 2.492-.657 3.12-1.605 0 .93.443 1.496 1.735 1.496h1.053v-1.715h-.406zm-2.585-2.117c-.018 1.442-.978 2.409-2.64 2.409-1.089 0-1.753-.548-1.753-1.332 0-.949.683-1.405 1.919-1.405h2.474v.328zM594.884 37.576c-.61-.82-1.625-1.404-3.065-1.404-2.566 0-4.467 1.897-4.467 4.78 0 2.992 1.901 4.78 4.467 4.78 1.495 0 2.474-.693 3.083-1.514l.24 1.405h1.735V32.85h-1.993v4.725zm-2.733 6.496c-1.661 0-2.75-1.277-2.75-3.12 0-1.825 1.089-3.102 2.75-3.102 1.662 0 2.751 1.277 2.751 3.138 0 1.807-1.089 3.084-2.751 3.084zM483.625 66.15h4.91c3.12 0 4.8-1.387 4.8-3.65 0-1.824-1.182-2.718-2.714-2.956 1.348-.364 2.215-1.277 2.215-2.791 0-2.098-1.624-3.376-4.467-3.376h-4.744V66.15zm4.799-11.021c1.477 0 2.289.693 2.289 1.825 0 1.15-.83 1.842-2.289 1.842h-2.676V55.13h2.676zm.13 5.4c1.643 0 2.603.694 2.603 1.953 0 1.186-.905 1.898-2.603 1.898h-2.806v-3.85h2.806zM499.481 66.259c2.345 0 3.932-1.405 4.265-3.248h-1.994c-.277 1.04-1.163 1.642-2.381 1.642-1.57 0-2.585-1.04-2.64-2.627v-.128h7.125c.037-.255.056-.51.056-.748-.056-2.737-1.883-4.452-4.615-4.452-2.788 0-4.652 1.916-4.652 4.799 0 2.865 1.864 4.762 4.836 4.762zm-2.676-5.802c.147-1.332 1.236-2.171 2.51-2.171 1.385 0 2.363.784 2.529 2.17h-5.039zM506.134 63.613c0 1.697.776 2.537 2.585 2.537h1.846v-1.734h-1.403c-.757 0-1.015-.273-1.015-1.003V58.54h2.307v-1.733h-2.307v-2.61h-2.013v2.61h-1.642v1.733h1.642v5.072zM520.12 55.494c.683 0 1.219-.493 1.219-1.186s-.536-1.186-1.219-1.186-1.218.493-1.218 1.186.535 1.186 1.218 1.186zm-1.015 10.656h1.994v-9.342h-1.994v9.342zM528.037 56.698c-1.532 0-2.437.602-3.027 1.332l-.222-1.222h-1.735v9.342h1.994v-4.708c0-1.898.941-3.047 2.529-3.047 1.495 0 2.252.949 2.252 2.719v5.036h2.012v-5.2c0-3.12-1.717-4.252-3.803-4.252zM540.871 58.267c-.609-.93-1.624-1.569-3.101-1.569-2.566 0-4.468 1.88-4.468 4.744 0 2.974 1.902 4.744 4.468 4.744 1.477 0 2.455-.602 3.083-1.533v1.04c0 1.788-.979 2.61-2.714 2.61-1.403 0-2.326-.602-2.566-1.642h-2.031c.185 2.098 2.208 3.02 4.719 3.02 3.397 0 4.567-1.378 4.567-3.915v-8.958h-1.735l-.222 1.46zm-2.769 6.259c-1.661 0-2.751-1.26-2.751-3.084 0-1.806 1.09-3.083 2.751-3.083 1.661 0 2.751 1.277 2.751 3.12 0 1.788-1.09 3.047-2.751 3.047zM549.702 66.15h2.123v-4.635h2.973c2.695 0 4.467-1.605 4.467-4.069 0-2.481-1.772-4.069-4.467-4.069h-5.096V66.15zm4.929-10.948c1.514 0 2.474.858 2.474 2.244 0 1.369-.978 2.245-2.492 2.245h-2.788v-4.489h2.806zM565.476 56.808c-1.551 0-2.308.62-2.788 1.405l-.221-1.405h-1.772v9.342h1.993v-4.69c0-1.441.573-2.81 2.345-2.81h.886v-1.842h-.443zM571.165 66.259c2.88 0 4.818-1.916 4.818-4.78 0-2.847-1.938-4.78-4.818-4.78s-4.818 1.933-4.818 4.78c0 2.864 1.938 4.78 4.818 4.78zm0-1.679c-1.68 0-2.769-1.295-2.769-3.101 0-1.807 1.089-3.102 2.769-3.102 1.68 0 2.788 1.295 2.788 3.102 0 1.806-1.108 3.101-2.788 3.101zM579.701 66.15h2.437l3.489-9.342h-2.104l-2.566 7.225-2.603-7.225h-2.142l3.489 9.342zM587.652 55.494c.683 0 1.218-.493 1.218-1.186s-.535-1.186-1.218-1.186c-.683 0-1.219.493-1.219 1.186s.536 1.186 1.219 1.186zm-1.016 10.656h1.994v-9.342h-1.994v9.342zM597.765 58.103c-.609-.821-1.624-1.405-3.064-1.405-2.566 0-4.467 1.898-4.467 4.78 0 2.993 1.901 4.781 4.467 4.781 1.495 0 2.474-.693 3.083-1.514l.24 1.405h1.735V53.377h-1.994v4.726zm-2.732 6.496c-1.661 0-2.75-1.278-2.75-3.12 0-1.825 1.089-3.102 2.75-3.102 1.662 0 2.751 1.277 2.751 3.138 0 1.806-1.089 3.084-2.751 3.084zM606.193 66.259c2.345 0 3.932-1.405 4.265-3.248h-1.994c-.277 1.04-1.163 1.642-2.381 1.642-1.57 0-2.585-1.04-2.64-2.627v-.128h7.125c.037-.255.056-.51.056-.748-.056-2.737-1.883-4.452-4.615-4.452-2.788 0-4.652 1.916-4.652 4.799 0 2.865 1.864 4.762 4.836 4.762zm-2.676-5.802c.147-1.332 1.236-2.171 2.51-2.171 1.385 0 2.363.784 2.529 2.17h-5.039zM617.017 56.808c-1.551 0-2.308.62-2.788 1.405l-.221-1.405h-1.772v9.342h1.993v-4.69c0-1.441.573-2.81 2.345-2.81h.886v-1.842h-.443zM491.357 119.512c.081 2.203 1.696 3.752 4.458 3.752 2.375 0 4.023-1.357 4.023-3.289 0-2.171-1.89-2.778-3.732-3.081-1.696-.288-3.069-.559-3.069-1.9 0-1.197.986-1.836 2.455-1.836 1.535 0 2.585.846 2.746 2.139h1.454c-.129-2.011-1.68-3.4-4.2-3.4-2.293 0-3.86 1.277-3.86 3.177 0 2.171 1.874 2.762 3.699 3.065 1.712.287 3.101.575 3.101 1.964 0 1.213-1.082 1.9-2.6 1.9-1.729 0-2.908-.99-3.021-2.491h-1.454zM505.465 114.93c-1.389 0-2.229.671-2.713 1.437v-4.375h-1.325v11.176h1.325v-4.071c0-1.836.953-2.97 2.487-2.97 1.422 0 2.246.895 2.246 2.587v4.454h1.324v-4.534c0-2.698-1.502-3.704-3.344-3.704zM517.782 121.971c-.371 0-.533-.112-.533-.543v-3.56c0-1.9-1.211-2.938-3.311-2.938-1.987 0-3.295.942-3.489 2.539h1.325c.161-.831.936-1.373 2.099-1.373 1.293 0 2.052.638 2.052 1.692v.559h-2.423c-2.165 0-3.311.91-3.311 2.538 0 1.485 1.227 2.379 3.036 2.379 1.422 0 2.245-.623 2.762-1.357.017.798.388 1.261 1.486 1.261h.727v-1.197h-.42zm-1.857-2.124c0 1.357-.953 2.299-2.601 2.299-1.098 0-1.793-.542-1.793-1.341 0-.926.662-1.357 1.842-1.357h2.552v.399zM523.033 115.026c-1.47 0-2.1.607-2.488 1.229l-.178-1.229h-1.146v8.142h1.324v-4.151c0-1.293.469-2.714 2.197-2.714h.662v-1.277h-.371zM527.875 123.264c1.906 0 3.263-1.197 3.586-2.826h-1.341c-.274 1.054-1.179 1.66-2.342 1.66-1.567 0-2.552-1.085-2.601-2.634v-.112h6.397c.016-.191.032-.383.032-.558-.064-2.411-1.583-3.864-3.909-3.864-2.326 0-3.909 1.692-3.909 4.167 0 2.491 1.616 4.167 4.087 4.167zm-2.617-4.997c.129-1.325 1.244-2.187 2.455-2.187 1.373 0 2.343.782 2.472 2.187h-4.927zM532.747 120.486c.032 1.788 1.502 2.778 3.634 2.778 1.826 0 3.295-.942 3.295-2.459 0-1.804-1.502-2.155-3.376-2.379-1.195-.143-2.067-.255-2.067-1.149 0-.75.775-1.229 1.922-1.229 1.131 0 1.906.622 2.003 1.452h1.357c-.129-1.692-1.486-2.554-3.36-2.57-1.857-.016-3.23.958-3.23 2.443 0 1.692 1.469 2.059 3.311 2.283 1.227.143 2.132.223 2.132 1.245 0 .75-.824 1.245-1.987 1.245-1.373 0-2.229-.702-2.277-1.66h-1.357zM546.101 123.168l1.195-3.017h4.927l1.195 3.017h1.502l-4.296-11.176h-1.664l-4.313 11.176h1.454zm3.651-9.659l2.051 5.38h-4.087l2.036-5.38zM557.139 123.168h1.453l2.068-6.051 1.987 6.051h1.454l2.745-8.142h-1.34l-2.149 6.625-2.051-6.625h-1.228l-2.164 6.625-2.051-6.625h-1.39l2.666 8.142zM574.869 121.971c-.371 0-.533-.112-.533-.543v-3.56c0-1.9-1.211-2.938-3.311-2.938-1.987 0-3.295.942-3.489 2.539h1.324c.162-.831.937-1.373 2.1-1.373 1.292 0 2.052.638 2.052 1.692v.559h-2.423c-2.165 0-3.312.91-3.312 2.538 0 1.485 1.228 2.379 3.037 2.379 1.421 0 2.245-.623 2.762-1.357.016.798.388 1.261 1.486 1.261h.727v-1.197h-.42zm-1.857-2.124c0 1.357-.953 2.299-2.601 2.299-1.098 0-1.793-.542-1.793-1.341 0-.926.662-1.357 1.841-1.357h2.553v.399zM580.119 115.026c-1.47 0-2.099.607-2.487 1.229l-.178-1.229h-1.147v8.142h1.325v-4.151c0-1.293.468-2.714 2.197-2.714h.662v-1.277h-.372zM587.659 116.271c-.501-.782-1.437-1.341-2.827-1.341-2.277 0-3.957 1.676-3.957 4.167 0 2.65 1.68 4.167 3.957 4.167 1.39 0 2.278-.655 2.827-1.405l.178 1.309h1.147v-11.176h-1.325v4.279zm-2.697 5.827c-1.632 0-2.73-1.229-2.73-3.001 0-1.772 1.098-3.001 2.73-3.001 1.615 0 2.713 1.245 2.713 3.033 0 1.74-1.098 2.969-2.713 2.969zM590.449 120.486c.032 1.788 1.502 2.778 3.634 2.778 1.825 0 3.295-.942 3.295-2.459 0-1.804-1.502-2.155-3.376-2.379-1.195-.143-2.067-.255-2.067-1.149 0-.75.775-1.229 1.922-1.229 1.131 0 1.906.622 2.003 1.452h1.357c-.129-1.692-1.486-2.554-3.36-2.57-1.858-.016-3.231.958-3.231 2.443 0 1.692 1.47 2.059 3.312 2.283 1.227.143 2.132.223 2.132 1.245 0 .75-.824 1.245-1.987 1.245-1.373 0-2.229-.702-2.277-1.66h-1.357zM530.597 141.414h7.785v-1.229h-5.912l3.392-2.842c1.341-1.134 2.44-2.187 2.44-3.864 0-2.011-1.422-3.336-3.861-3.336-2.278 0-3.78 1.5-3.78 3.608v.287h1.357v-.207c0-1.533.969-2.491 2.423-2.491 1.502 0 2.471.798 2.471 2.203 0 1.214-.872 2.076-1.922 2.97l-4.393 3.768v1.133zM539.58 136.082c0 3.336 1.745 5.428 4.297 5.428 2.536 0 4.28-2.092 4.28-5.428v-.511c0-3.177-1.744-5.428-4.28-5.428-2.552 0-4.297 2.251-4.297 5.428v.511zm7.204-.048c0 2.65-1.163 4.247-2.907 4.247-1.761 0-2.924-1.597-2.924-4.247v-.415c0-2.651 1.163-4.247 2.924-4.247 1.744 0 2.907 1.596 2.907 4.247v.415zM549.21 141.414h7.786v-1.229h-5.912l3.392-2.842c1.341-1.134 2.439-2.187 2.439-3.864 0-2.011-1.421-3.336-3.86-3.336-2.278 0-3.78 1.5-3.78 3.608v.287h1.357v-.207c0-1.533.969-2.491 2.423-2.491 1.502 0 2.471.798 2.471 2.203 0 1.214-.872 2.076-1.922 2.97l-4.394 3.768v1.133zM560.197 131.452c0 .559-.259.958-.792.958h-1.841v1.197h1.825c.355 0 .614-.064.775-.207v8.014h1.357v-11.176h-1.324v1.214zM512.635 63.613c0 1.697.776 2.537 2.585 2.537h1.846v-1.734h-1.403c-.757 0-1.015-.273-1.015-1.003V58.54h2.307v-1.733h-2.307v-2.61h-2.013v2.61h-1.643v1.733h1.643v5.072zM51.106 96.05c-3.779-.196-7.557-.392-11.335 0-1.989.195-3.778.585-5.37 1.758-.795.39-1.391.977-1.988 1.758.2.196.398.196.796.196 3.38.977 6.76 1.563 10.141 1.368 1.591 0 3.182-.391 4.773-1.173 1.392-.586 2.585-1.563 3.38-3.126.398-.586.2-.782-.397-.782zm96.047 0c-3.977-.392-7.756-.196-11.733 0-.397 0-.397.195-.397.585a8.678 8.678 0 001.59 2.15c1.79 1.563 3.978 2.149 6.364 2.345 3.181.195 6.363-.196 9.545-.977l1.789-.587c-.198-.39-.397-.586-.596-.781-1.989-1.759-4.176-2.54-6.562-2.736zm11.931-5.668c-1.591.196-3.182.391-4.574.587-2.187.39-4.176.977-6.363 1.563-.398 0-.398.195-.199.586l1.193 1.172c1.989 1.368 4.176 1.76 6.563 1.564 2.386-.196 4.772-.782 6.959-1.759 1.194-.586 2.188-1.172 3.381-1.563v-.195c-.199-.196-.597-.391-.795-.587-1.989-1.172-4.176-1.368-6.165-1.368zM38.777 93.313c.397-.39.199-.39-.2-.586-.993-.195-1.988-.586-2.982-.781-2.585-.587-5.17-1.173-7.755-1.368-1.989-.196-3.977 0-5.568.781-.597.196-.994.587-1.591.978l.199.195c.199 0 .199.195.398.195 2.187 1.173 4.374 2.15 6.76 2.736 2.387.586 4.773.782 7.358 0 1.193-.39 2.386-.977 3.38-2.15zm121.699-78.55c.199.195.398.195.597 0 .596-.977.994-2.15.994-3.127 0-1.759-.597-3.322-1.591-4.69-1.989-2.735-4.574-4.69-7.556-6.252-.398-.196-.597 0-.597.195 0 .586-.199 1.172-.199 1.759 0 1.954.796 3.517 1.989 5.08 1.789 2.54 4.176 4.69 6.363 7.034zm-134.227-.196c.994-.977 1.79-1.954 2.585-2.736 1.79-1.758 3.38-3.517 4.375-5.47.994-1.564 1.392-3.323.994-5.277 0-.586-.199-.781-.795-.39-2.784 1.563-5.37 3.321-7.16 5.862-1.192 1.367-1.789 3.126-1.789 4.885 0 .977.398 2.15.994 3.126.398.586.398.586.796 0zm4.772-3.126c-.198.39-.198.586.2.586h1.192c2.586 0 5.17-.586 7.358-1.759 2.983-1.368 5.37-3.517 7.159-6.057 0-.196 0-.196.199-.391-.2 0-.2-.195-.398-.195-.796 0-1.59 0-2.386.195-3.977.39-7.358 1.759-10.34 4.299-1.194.781-2.188 1.954-2.984 3.322zm108.774-7.426c2.187 2.931 4.971 5.276 8.352 6.644 2.386.977 4.773 1.368 7.159 1.172.596 0 .795-.195.398-.781-.995-1.563-2.387-2.931-3.978-4.104-2.982-2.149-6.562-3.126-10.539-3.517h-1.591v.391c.199 0 .199.195.199.195zm34.8 79.138c-1.193-.391-2.188-.587-3.381-.587v-.195l-3.579.586c-1.79.587-3.58 1.368-5.369 2.15-1.193.586-2.387 1.172-3.58 1.954-.397.195-.397.39 0 .586.199.195.597.39.796.586 2.187 1.368 4.573 1.368 6.96.586 3.38-.977 5.965-2.735 8.55-5.08.199-.39.199-.39-.397-.586zM24.459 89.21c1.392-.195 2.585-.781 3.58-1.563.198-.196.397-.39 0-.586-.398-.196-.597-.391-.995-.391-2.585-1.368-5.369-2.736-8.153-3.517-2.187-.587-4.573-.782-6.76 0-.597.195-.597.39-.2.781 1.79 1.759 3.779 3.127 5.966 4.104 1.59.781 3.38 1.172 5.17 1.368.597-.196.994-.196 1.392-.196zm143.573-67.022c.199.586.398.586.796.195 1.392-1.368 1.988-2.93 1.988-4.885-.198-.782-.198-1.563-.397-2.345-.995-3.126-2.983-5.666-5.369-7.816-.199-.195-.398-.195-.597.196-.199.781-.596 1.563-.795 2.344-.398 2.345.397 4.495 1.392 6.644.795 1.954 1.988 3.713 2.982 5.667zm-150.135.39c.199.196.398.196.597 0 .994-1.953 2.187-4.103 3.181-6.057.796-1.759 1.392-3.517 1.392-5.276 0-1.172-.199-2.345-.795-3.322-.398-.586-.398-.586-.796-.195-1.59 1.172-2.784 2.736-3.778 4.494-1.193 1.954-1.989 3.908-1.79 6.253.2 1.563.796 2.931 1.989 4.103zm-4.971 9.184c.198-.195.198-.39.198-.586.796-2.54 1.392-5.08 1.591-7.816.2-1.954 0-3.712-.795-5.471-.199-.782-.597-1.368-1.392-1.954-.199.195-.398.195-.398.39-.398.782-.994 1.564-1.392 2.54-.994 2.15-1.79 4.3-1.59 6.645 0 2.149.795 4.103 2.584 5.47.398.196.796.587 1.194.782zm160.476-.586c.198.586.198.586.795.39 2.784-1.758 3.579-4.493 3.182-7.424-.199-1.954-.995-3.908-1.79-5.862-.398-.782-.795-1.564-1.392-2.345h-.199l-1.193 1.758c-1.193 2.345-1.392 4.69-.795 7.23.397 1.954.994 4.104 1.392 6.253zM19.886 80.222c.397-.196.397-.391.198-.587-1.988-1.758-3.977-3.517-6.164-4.885-1.989-1.367-4.176-2.149-6.562-2.149h-1.79c-.398.195-.597.195-.199.586.796.977 1.59 2.15 2.386 3.127 1.591 1.758 3.58 3.322 5.966 4.103 1.989.977 4.176.782 6.165-.195zm156.498-7.035c-1.789.587-3.181 1.368-4.573 2.54-1.591 1.368-3.182 2.54-4.773 3.908-.397.391-.397.391.199.587l1.79.586c2.386.586 4.573 0 6.363-1.173a21.128 21.128 0 005.966-5.862c.199-.195.397-.586.596-.781-.199 0-.198-.196-.397-.196-1.989-.39-3.58-.195-5.171.391zm.199-35.172v2.931c0 .586.199.782.796.391 2.585-.977 3.977-2.931 4.573-5.471.597-3.127.199-6.058-.795-9.184-.199-.586-.199-.586-.597-.195-1.789 1.367-2.784 3.126-3.38 5.08-.597 2.15-.597 4.299-.597 6.448zM12.13 71.82c.398 0 .994-.196 1.591-.391.597 0 .597-.196.199-.587-.597-.781-1.193-1.758-1.989-2.54-1.392-1.758-2.784-3.517-4.573-4.885-1.79-1.368-3.58-1.954-5.767-2.15-.398 0-.597.196-.398.587.994 2.736 2.386 5.08 4.375 7.23 1.79 1.758 3.778 2.736 6.562 2.736zM9.346 41.337c.398.195.597.195.597-.39v-2.932c.199-2.345 0-4.69-.597-7.034-.596-1.759-1.59-3.322-2.983-4.495-.596-.39-.596-.39-.795.196-.398 1.368-.795 2.736-.994 4.103-.2 2.15-.2 4.104.596 6.058.597 2.15 1.989 3.712 4.176 4.494zm175.589 20.126c-1.988 0-3.977.782-5.568 1.954-1.789 1.368-3.181 2.931-4.573 4.69-.796.977-1.392 1.954-2.188 2.93-.199.392-.199.587.199.587.597.196 1.392.196 1.591.39 2.784 0 4.772-.976 6.562-2.735 1.989-1.954 3.381-4.494 4.375-7.034.199-.782 0-.782-.398-.782zM3.381 48.371c1.193 1.759 2.982 2.931 4.97 3.127.597.195.796 0 .597-.586-.397-1.954-.795-3.908-1.392-5.862-.596-1.954-1.391-3.908-2.982-5.472-.995-.977-1.989-1.758-3.182-2.15v.587a21.707 21.707 0 000 5.08c.398 1.955.795 3.713 1.989 5.276zm175.589-3.126c-.597 1.759-.796 3.713-1.194 5.471-.198.977-.198.977.796.782 2.585-.586 4.375-2.15 5.369-4.494.994-2.15 1.193-4.495 1.392-7.035 0-.586-.199-1.172-.199-1.954 0-.39-.199-.39-.597-.39-1.193.586-1.988 1.172-2.784 2.149-1.391 1.563-2.187 3.517-2.783 5.471zM9.346 61.854h.597c.398 0 .596-.195.398-.586-.995-2.345-1.99-4.494-3.182-6.644-1.193-1.954-2.585-3.517-4.773-4.494-.596-.195-1.392-.39-1.988-.586-.398-.196-.398 0-.398.39 0 .587.199 1.173.199 1.564.398 2.345 1.193 4.69 2.784 6.643 1.59 2.345 3.58 3.518 6.363 3.713zm170.618-7.816c-1.392 2.15-2.585 4.494-3.58 6.839-.397.977-.397.977 1.392.977 1.79 0 3.58-.977 5.171-2.54 1.193-1.173 1.789-2.54 2.386-4.104.596-1.758 1.193-3.321 1.392-5.275 0-.391-.199-.391-.398-.391h-.398c-2.585.781-4.573 2.345-5.965 4.494zm-44.743 41.62c.995-.39 2.188-.586 3.381-.977 1.989-.781 3.778-1.758 5.369-3.322 1.392-1.367 2.187-2.93 2.386-4.884-.199-.587-.199-1.368-.397-1.954-.199-.391-.199-.587-.597-.196-1.79 1.172-3.778 2.345-5.568 3.713-1.591 1.172-2.983 2.54-3.977 4.103-.597.977-.994 1.954-.994 3.126 0 .391 0 .587.397.391zm-85.706-5.276a18.001 18.001 0 00-4.176-3.517c-1.392-.977-2.585-1.758-3.977-2.54-.199-.195-.398-.195-.597.195-.397 1.368-.596 2.54 0 3.909.398 1.367 1.392 2.54 2.585 3.517 2.387 1.758 4.972 2.93 7.756 3.712.596.196.795.196.596-.781 0-1.563-.994-3.127-2.187-4.495zm99.229 1.368c2.187-1.368 4.176-2.735 5.369-4.885 1.392-2.344 1.59-4.69 0-7.23-.398-.39-.398-.586-.796 0-.795.782-1.591 1.76-2.386 2.54-1.392 1.76-2.983 3.518-3.579 5.863a7.888 7.888 0 000 4.299c.596 0 .994-.196 1.392-.587zm-110.962 0c.398.196.995.587 1.392.782.2-.39.2-.782.2-.977.198-2.15-.2-4.104-1.393-5.862-1.392-2.345-3.181-4.299-4.971-6.058-.199-.39-.597-.195-.795 0-1.393 2.345-1.591 4.69-.2 7.035 1.591 2.15 3.58 3.712 5.767 5.08zm117.126-74.252a12.513 12.513 0 005.17-1.759c.398-.39.398-.39 0-.781-2.386-1.368-5.17-2.345-7.954-2.54-2.187-.196-4.176.39-5.966 1.758-.596.391-1.193.977-1.392 1.563.199 0 .199 0 .199.196 1.193.39 2.387.586 3.58.781 1.988.587 4.176.977 6.363.782zm-113.546-2.54c-1.79-1.954-4.176-2.736-6.761-2.54-2.386 0-4.773.781-6.96 1.954-.597.195-.994.586-1.591.781v.196c.597.39.994.586 1.59.977 2.785 1.367 5.569 1.367 8.552.781 1.59-.195 3.181-.586 4.772-.977 1.193-.195 1.193-.195.398-1.172zM158.289 86.67c1.789-1.759 3.38-3.713 4.176-6.058.994-2.735.397-5.275-1.79-7.23-.398-.39-.597-.39-.796.196-.795 1.563-1.59 2.931-2.187 4.494a11.624 11.624 0 00-.994 4.69c0 1.368.397 2.736.994 3.908 0 .195.199.39.597 0zm-129.853 0c.398.39.398.195.597-.195.596-1.173.994-2.54.994-4.3 0-.39-.199-1.172-.398-1.953a23.136 23.136 0 00-2.982-6.84c-.2-.586-.398-.586-.796-.195-1.988 2.15-2.585 4.495-1.79 7.23.995 2.736 2.586 4.69 4.375 6.253zm5.37-66.24c-.2-.196-.398-.196-.398-.392-2.188-1.758-4.773-2.15-7.358-1.563-2.784.586-4.971 2.15-6.96 4.103l-.398.391c.2.196.398.196.597.196 2.187.781 4.375.977 6.761.586 2.585-.586 4.971-1.759 7.358-2.931l.397-.39zm131.641 3.516c.796-.195 1.79-.39 2.585-.781v-.196l-.397-.39c-1.989-1.76-4.176-3.322-6.761-3.909-2.784-.781-5.171-.39-7.358 1.368-.199.196-.398.196-.596.391.198.196.397.39.397.39 1.591.783 2.983 1.369 4.574 2.15 2.386.782 4.971 1.563 7.556.977zm-.795 53.93c.398.587.795 1.173 1.392 1.955.199-.196.398-.39.398-.586 1.193-1.759 1.988-3.908 2.386-6.058.398-2.93-.994-5.862-3.579-7.23-.398-.195-.597-.195-.597.196-.597 1.954-.994 3.908-.994 6.057-.398 2.15 0 3.908.994 5.667zm-144.17 1.955c.199 0 .199 0 .398.195.199-.195.199-.39.398-.586 1.59-1.954 2.386-4.103 2.187-6.448 0-2.15-.398-4.299-.994-6.448 0-.391-.2-.391-.597-.196-2.585 1.173-3.977 3.127-3.977 5.862 0 1.564.398 2.931.994 4.3.398 1.171.995 2.148 1.591 3.32zM159.88 26.29c-.596.195-.596.39-.198.782 1.392.977 2.585 2.15 3.977 2.93 1.988 1.369 4.375 2.346 6.96 2.346.596 0 1.392-.196 1.988-.196.597-.195.597-.195.199-.586-1.193-1.759-2.585-3.322-4.375-4.494-2.585-1.954-5.369-2.345-8.551-.782zm-133.034 0c-1.988-1.172-4.175-1.368-6.562-.586-2.187.782-3.977 2.345-5.568 4.103-.596.587-.994 1.368-1.59 1.954.198 0 .198.196.397.196 2.188.39 4.176.195 6.364-.586 2.585-.977 4.772-2.736 6.96-4.69.397 0 .198-.195 0-.39zM15.113 70.843c1.79-1.173 2.983-2.931 3.58-4.886.596-1.954.795-3.908.795-5.862v-1.758c0-.391-.2-.391-.597-.391-.199 0-.397.195-.397.195-2.387.977-3.978 2.54-4.574 5.08-.796 2.541-.398 5.081.398 7.622.198.195.397.39.795 0zm156.101-.196c.199.195.398.39.796.586.198-.195.198-.39.198-.39.597-1.955.995-3.909.796-5.863-.199-3.321-1.989-5.666-5.17-6.839-.597-.195-.597-.195-.597.391 0 1.954 0 3.908.398 5.667.398 2.735 1.591 4.885 3.579 6.448zm-3.977-33.218c1.79 2.15 4.176 3.713 6.96 4.103.795.196 1.392.196 2.187.196v-.391c-.795-2.345-1.988-4.494-3.778-6.058-2.187-1.954-4.772-2.54-7.755-1.758-.597.195-.597.195-.199.782.795.977 1.591 2.149 2.585 3.126zM22.272 33.912c.199-.196 0-.391-.2-.391-2.186-.586-4.374-.39-6.362.586-1.989 1.172-3.182 2.736-4.176 4.69-.398.781-.796 1.758-1.194 2.735h.796c1.59 0 2.983-.39 4.375-.977 2.784-1.367 4.772-3.908 6.76-6.643zM177.18 51.107c-.398-1.368-.597-2.736-1.193-4.103-.995-2.54-2.784-4.495-5.568-5.276-.995-.391-2.188-.391-3.381-.196 0 .196 0 .391.199.587.994 2.149 1.989 4.298 3.579 6.057 1.591 1.759 3.381 2.931 5.767 3.517.597 0 .597 0 .597-.586zm-1.392 9.965V59.51c-.199-.977-.199-1.954-.398-2.93 0-.587-.199-.978-.398-1.564-.994-3.126-3.181-4.885-6.562-5.471-.596 0-.596 0-.596.586.397 2.15.994 4.103 1.789 6.057.995 2.345 2.784 3.908 5.171 5.08.795.392.994.392.994-.195zM10.142 51.498c1.79-.391 3.579-1.368 4.971-2.54 1.59-1.564 2.784-3.713 3.778-5.667.2-.586.398-1.172.796-1.759h-.398c-3.182-.195-5.767.977-7.557 3.713-1.193 1.759-1.79 3.908-2.187 6.057-.199.391 0 .391.597.196zm1.193 9.965c1.79-.781 3.181-1.758 4.176-3.322.994-1.367 1.59-2.93 2.187-4.494.398-1.172.597-2.15.796-3.322.198-.586 0-.586-.597-.586-.199 0-.597.196-.795.196-2.188.586-3.779 1.758-4.972 3.712-.994 1.759-1.392 3.908-1.392 6.058v1.563c.199.39.199.39.597.195zM42.806 46.955h4.906c3.117 0 4.795-1.387 4.795-3.65 0-1.824-1.18-2.718-2.71-2.955 1.345-.365 2.212-1.277 2.212-2.792 0-2.098-1.623-3.375-4.463-3.375h-4.74v12.772zm4.796-11.02c1.475 0 2.286.693 2.286 1.824 0 1.15-.83 1.843-2.286 1.843h-2.675v-3.668h2.675zm.129 5.4c1.64 0 2.6.694 2.6 1.953 0 1.186-.904 1.897-2.6 1.897h-2.804v-3.85h2.804zM58.647 47.064c2.343 0 3.928-1.405 4.26-3.247h-1.991c-.277 1.04-1.162 1.642-2.38 1.642-1.567 0-2.581-1.04-2.636-2.628v-.127h7.118c.037-.256.055-.511.055-.748-.055-2.737-1.88-4.453-4.61-4.453-2.785 0-4.648 1.916-4.648 4.8 0 2.864 1.863 4.761 4.832 4.761zm-2.674-5.802c.148-1.332 1.236-2.171 2.508-2.171 1.383 0 2.36.785 2.527 2.171h-5.035zM64.224 43.871c.055 2.026 1.789 3.193 4.315 3.193 2.287 0 4.002-1.13 4.002-2.919 0-2.08-1.752-2.518-3.91-2.773-1.364-.146-2.268-.256-2.268-1.132 0-.748.775-1.222 1.955-1.222 1.18 0 1.992.602 2.102 1.46h1.955c-.129-1.916-1.77-2.974-4.094-2.974-2.268-.019-3.873 1.13-3.873 2.9 0 1.935 1.697 2.39 3.855 2.646 1.457.183 2.323.256 2.323 1.26 0 .747-.811 1.222-2.047 1.222-1.438 0-2.287-.694-2.36-1.66h-1.955zM74.767 44.419c0 1.697.775 2.536 2.582 2.536h1.844v-1.733h-1.401c-.757 0-1.015-.274-1.015-1.004v-4.872h2.305v-1.733h-2.305v-2.61h-2.01v2.61h-1.641v1.733h1.641v5.073zM84.57 36.044h3.984v10.91h2.12v-10.91h3.984v-1.861H84.57v1.86zM99.897 37.613c-1.55 0-2.306.62-2.785 1.405l-.221-1.405h-1.77v9.342h1.99v-4.69c0-1.44.572-2.81 2.343-2.81h.885v-1.842h-.442zM109.91 45.24c-.406 0-.608-.128-.608-.602v-3.74c0-2.209-1.439-3.395-3.947-3.395-2.379 0-3.965 1.132-4.168 2.956h1.955c.148-.82.941-1.368 2.121-1.368 1.309 0 2.065.639 2.065 1.678v.566h-2.379c-2.637 0-4.038 1.077-4.038 2.992 0 1.734 1.438 2.737 3.504 2.737 1.53 0 2.489-.657 3.116-1.605 0 .93.443 1.496 1.734 1.496h1.051V45.24h-.406zm-2.582-2.117c-.018 1.442-.977 2.409-2.637 2.409-1.088 0-1.752-.548-1.752-1.332 0-.949.683-1.405 1.918-1.405h2.471v.328zM118.503 38.908c-.609-.82-1.623-1.404-3.062-1.404-2.563 0-4.463 1.897-4.463 4.78 0 2.992 1.9 4.78 4.463 4.78 1.494 0 2.472-.693 3.08-1.514l.24 1.405h1.733V34.183h-1.991v4.725zm-2.73 6.496c-1.659 0-2.748-1.277-2.748-3.12 0-1.825 1.089-3.102 2.748-3.102 1.66 0 2.748 1.277 2.748 3.138 0 1.807-1.088 3.084-2.748 3.084zM123.455 36.3c.682 0 1.217-.493 1.217-1.187 0-.693-.535-1.186-1.217-1.186s-1.217.493-1.217 1.186c0 .694.535 1.186 1.217 1.186zm-1.014 10.655h1.992v-9.342h-1.992v9.342zM131.364 37.504c-1.53 0-2.434.602-3.024 1.332l-.222-1.223h-1.733v9.342h1.992v-4.707c0-1.898.94-3.048 2.526-3.048 1.494 0 2.25.95 2.25 2.719v5.036h2.01v-5.2c0-3.12-1.715-4.252-3.799-4.252zM144.185 39.073c-.608-.93-1.622-1.57-3.098-1.57-2.563 0-4.463 1.88-4.463 4.745 0 2.974 1.9 4.743 4.463 4.743 1.476 0 2.453-.602 3.08-1.532v1.04c0 1.788-.977 2.609-2.711 2.609-1.402 0-2.324-.602-2.563-1.642h-2.029c.184 2.098 1.936 3.248 4.445 3.248 3.393 0 4.831-1.606 4.831-4.142v-8.959h-1.733l-.222 1.46zm-2.766 6.258c-1.66 0-2.748-1.259-2.748-3.084 0-1.806 1.088-3.083 2.748-3.083 1.66 0 2.748 1.277 2.748 3.12 0 1.788-1.088 3.047-2.748 3.047zM59.943 67.482h2.12v-4.635h2.97c2.692 0 4.463-1.605 4.463-4.069 0-2.481-1.77-4.069-4.463-4.069h-5.09v12.773zm4.924-10.948c1.512 0 2.471.858 2.471 2.244 0 1.369-.977 2.245-2.49 2.245h-2.784v-4.489h2.803zM70.924 67.482h1.992V54.709h-1.992v12.773zM83.499 65.766c-.406 0-.609-.127-.609-.602v-3.74c0-2.208-1.438-3.394-3.946-3.394-2.38 0-3.965 1.131-4.168 2.956h1.955c.147-.821.94-1.368 2.12-1.368 1.31 0 2.066.638 2.066 1.678v.566h-2.379c-2.637 0-4.039 1.076-4.039 2.992 0 1.734 1.439 2.737 3.504 2.737 1.53 0 2.49-.657 3.117-1.606 0 .931.442 1.497 1.733 1.497h1.052v-1.716h-.406zm-2.582-2.116c-.018 1.441-.977 2.408-2.637 2.408-1.088 0-1.752-.547-1.752-1.332 0-.948.682-1.404 1.918-1.404h2.471v.328zM85.672 64.945c0 1.697.775 2.537 2.582 2.537h1.844v-1.734h-1.402c-.756 0-1.014-.273-1.014-1.003v-4.872h2.305V58.14h-2.305v-2.61h-2.01v2.61H84.03v1.733h1.64v5.072zM90.604 59.873h1.642v7.609h2.01v-7.609h2.526V58.14H94.22v-.785c0-.638.276-.912.922-.912h1.641v-1.734h-1.9c-1.825 0-2.636.876-2.636 2.555v.876h-1.642v1.733zM101.879 67.591c2.877 0 4.814-1.916 4.814-4.78 0-2.847-1.937-4.78-4.814-4.78s-4.813 1.933-4.813 4.78c0 2.864 1.936 4.78 4.813 4.78zm0-1.679c-1.678 0-2.766-1.295-2.766-3.101 0-1.807 1.088-3.102 2.766-3.102s2.785 1.295 2.785 3.102c0 1.806-1.107 3.101-2.785 3.101zM113.071 58.14c-1.549 0-2.306.62-2.785 1.405l-.221-1.405h-1.771v9.342h1.992v-4.69c0-1.441.572-2.81 2.342-2.81h.885V58.14h-.442zM125.604 58.03c-1.549 0-2.619.675-3.227 1.697-.572-1.204-1.679-1.697-2.914-1.697-1.42.018-2.232.639-2.767 1.332l-.221-1.222h-1.733v9.342h1.991v-5c0-1.66.849-2.755 2.213-2.755 1.31 0 1.992.858 1.992 2.5v5.255h2.01v-5.054c0-1.68.867-2.7 2.232-2.7 1.291 0 1.973.857 1.973 2.499v5.255h1.992v-5.383c0-2.956-1.586-4.069-3.541-4.069zM32.617 118.07c0-3.288-2.21-5.683-5.39-5.683-3.178 0-5.389 2.395-5.389 5.683 0 3.289 2.21 5.684 5.39 5.684 3.179 0 5.39-2.395 5.39-5.684zm-9.343 0c0-2.57 1.598-4.406 3.954-4.406s3.953 1.836 3.953 4.406c0 2.571-1.597 4.407-3.953 4.407s-3.954-1.836-3.954-4.407zM38.232 115.42c-1.388 0-2.227.575-2.71 1.198l-.178-1.102h-1.146v8.142h1.323v-4.071c0-1.836.936-2.969 2.485-2.969 1.436 0 2.227.894 2.227 2.586v4.454h1.323v-4.534c0-2.698-1.468-3.704-3.324-3.704zM43.243 123.658h1.324v-11.175h-1.324v11.175zM47.057 114.143c.484 0 .855-.351.855-.846s-.37-.846-.855-.846c-.484 0-.855.351-.855.846s.371.846.855.846zm-.678 9.515h1.324v-8.142h-1.324v8.142zM53.55 115.42c-1.388 0-2.227.575-2.711 1.198l-.178-1.102h-1.146v8.142h1.324v-4.071c0-1.836.935-2.969 2.485-2.969 1.436 0 2.226.894 2.226 2.586v4.454h1.324v-4.534c0-2.698-1.469-3.704-3.325-3.704zM62.258 123.754c1.904 0 3.26-1.197 3.583-2.826H64.5c-.274 1.054-1.178 1.661-2.34 1.661-1.565 0-2.55-1.086-2.598-2.635v-.111h6.39c.017-.192.033-.384.033-.559-.065-2.411-1.582-3.864-3.905-3.864-2.324 0-3.905 1.693-3.905 4.167 0 2.491 1.613 4.167 4.082 4.167zm-2.614-4.997c.13-1.325 1.243-2.187 2.453-2.187 1.371 0 2.34.782 2.469 2.187h-4.922zM71.913 123.658h1.371v-8.812l3.744 8.812h1.242l3.744-8.812v8.812h1.372v-11.175h-1.743l-3.953 9.275-4.002-9.275h-1.775v11.175zM89.174 123.754c2.404 0 4.082-1.692 4.082-4.167 0-2.474-1.678-4.167-4.082-4.167-2.405 0-4.083 1.693-4.083 4.167 0 2.475 1.678 4.167 4.083 4.167zm0-1.165c-1.63 0-2.727-1.262-2.727-3.002 0-1.74 1.097-3.001 2.727-3.001s2.727 1.261 2.727 3.001-1.097 3.002-2.727 3.002zM98.808 115.42c-1.388 0-2.227.575-2.711 1.198l-.178-1.102h-1.145v8.142h1.323v-4.071c0-1.836.936-2.969 2.485-2.969 1.436 0 2.227.894 2.227 2.586v4.454h1.323v-4.534c0-2.698-1.468-3.704-3.324-3.704zM107.517 123.754c1.904 0 3.259-1.197 3.582-2.826h-1.339c-.275 1.054-1.178 1.661-2.34 1.661-1.565 0-2.55-1.086-2.598-2.635v-.111h6.39c.016-.192.032-.384.032-.559-.064-2.411-1.581-3.864-3.905-3.864-2.323 0-3.905 1.693-3.905 4.167 0 2.491 1.614 4.167 4.083 4.167zm-2.614-4.997c.129-1.325 1.242-2.187 2.452-2.187 1.372 0 2.34.782 2.469 2.187h-4.921zM114.78 123.706l-.403.99c-.307.766-.436.958-1.195.958h-1.178v1.197h1.582c1.162 0 1.468-.511 1.985-1.82l3.792-9.515h-1.404l-2.453 6.498-2.533-6.498h-1.404l3.211 8.19zM125.299 123.658l1.194-3.017h4.922l1.194 3.017h1.501l-4.292-11.175h-1.663l-4.308 11.175h1.452zm3.647-9.659l2.05 5.381h-4.083l2.033-5.381zM136.326 123.658h1.452l2.066-6.051 1.985 6.051h1.452l2.743-8.142h-1.339l-2.146 6.626-2.05-6.626h-1.226l-2.163 6.626-2.049-6.626h-1.388l2.663 8.142zM154.039 122.461c-.371 0-.533-.112-.533-.543v-3.56c0-1.9-1.21-2.938-3.308-2.938-1.985 0-3.292.942-3.485 2.539h1.323c.161-.83.936-1.373 2.098-1.373 1.291 0 2.049.638 2.049 1.692v.559h-2.42c-2.163 0-3.309.91-3.309 2.538 0 1.485 1.227 2.379 3.034 2.379 1.42 0 2.243-.623 2.76-1.357.016.798.387 1.261 1.484 1.261h.726v-1.197h-.419zm-1.856-2.123c0 1.357-.952 2.299-2.598 2.299-1.097 0-1.791-.543-1.791-1.342 0-.926.661-1.357 1.839-1.357h2.55v.4zM159.284 115.516c-1.469 0-2.098.607-2.485 1.229l-.178-1.229h-1.145v8.142h1.323v-4.151c0-1.293.468-2.714 2.194-2.714h.662v-1.277h-.371zM166.816 116.761c-.5-.782-1.436-1.341-2.824-1.341-2.275 0-3.953 1.677-3.953 4.167 0 2.65 1.678 4.167 3.953 4.167 1.388 0 2.275-.654 2.824-1.405l.178 1.309h1.145v-11.175h-1.323v4.278zm-2.695 5.828c-1.63 0-2.727-1.23-2.727-3.002 0-1.772 1.097-3.001 2.727-3.001 1.614 0 2.711 1.245 2.711 3.033 0 1.74-1.097 2.97-2.711 2.97zM169.603 120.976c.032 1.788 1.501 2.778 3.631 2.778 1.823 0 3.292-.942 3.292-2.459 0-1.804-1.501-2.155-3.373-2.378-1.194-.144-2.065-.256-2.065-1.15 0-.75.774-1.229 1.92-1.229 1.129 0 1.904.622 2.001 1.453h1.355c-.129-1.693-1.484-2.555-3.356-2.571-1.856-.016-3.228.958-3.228 2.443 0 1.692 1.469 2.059 3.309 2.283 1.226.144 2.13.223 2.13 1.245 0 .751-.823 1.246-1.985 1.246-1.372 0-2.227-.703-2.276-1.661h-1.355zM81.547 141.904h7.778v-1.229H83.42l3.389-2.842c1.34-1.133 2.437-2.187 2.437-3.863 0-2.012-1.42-3.337-3.857-3.337-2.275 0-3.776 1.501-3.776 3.608v.287h1.355v-.207c0-1.533.969-2.491 2.42-2.491 1.502 0 2.47.798 2.47 2.203 0 1.214-.872 2.076-1.92 2.97l-4.39 3.768v1.133zM90.522 136.572c0 3.337 1.743 5.428 4.292 5.428 2.534 0 4.277-2.091 4.277-5.428v-.511c0-3.177-1.743-5.428-4.277-5.428-2.55 0-4.292 2.251-4.292 5.428v.511zm7.197-.048c0 2.65-1.162 4.247-2.905 4.247-1.759 0-2.92-1.597-2.92-4.247v-.415c0-2.65 1.161-4.247 2.92-4.247 1.743 0 2.905 1.597 2.905 4.247v.415zM100.142 141.904h7.778v-1.229h-5.906l3.389-2.842c1.339-1.133 2.437-2.187 2.437-3.863 0-2.012-1.42-3.337-3.857-3.337-2.275 0-3.776 1.501-3.776 3.608v.287h1.355v-.207c0-1.533.969-2.491 2.421-2.491 1.501 0 2.469.798 2.469 2.203 0 1.214-.872 2.076-1.92 2.97l-4.39 3.768v1.133zM108.778 141.904h7.778v-1.229h-5.906l3.389-2.842c1.339-1.133 2.436-2.187 2.436-3.863 0-2.012-1.42-3.337-3.856-3.337-2.276 0-3.776 1.501-3.776 3.608v.287h1.355v-.207c0-1.533.968-2.491 2.421-2.491 1.5 0 2.469.798 2.469 2.203 0 1.214-.872 2.076-1.921 2.97l-4.389 3.768v1.133z" fill="#fff"/></svg>