<svg width="100" height="20" viewBox="0 0 100 20" fill="none" xmlns="http://www.w3.org/2000/svg"><rect y=".5" width="100" height="19" rx="9.5" fill="#000"/><path d="M12.628 13.5c1.971 0 3.168-1.269 3.168-3.15 0-1.89-1.197-3.15-3.168-3.15h-2.016v6.3h2.016zm-1.233-5.58h1.233c1.53 0 2.367.954 2.367 2.43 0 1.467-.837 2.43-2.367 2.43h-1.233V7.92zm5.657.216c.27 0 .477-.198.477-.477a.464.464 0 00-.477-.477.464.464 0 00-.477.477c0 .279.207.477.477.477zm-.378 5.364h.738V8.91h-.738v4.59zm1.56-1.512c.018 1.008.837 1.566 2.025 1.566 1.017 0 1.836-.531 1.836-1.386 0-1.017-.837-1.215-1.881-1.341-.666-.081-1.152-.144-1.152-.648 0-.423.432-.693 1.07-.693.63 0 1.063.351 1.117.819h.756c-.072-.954-.828-1.44-1.872-1.449-1.035-.009-1.8.54-1.8 1.377 0 .954.819 1.161 1.845 1.287.684.081 1.188.126 1.188.702 0 .423-.46.702-1.107.702-.765 0-1.242-.396-1.27-.936h-.755zm6.741 1.566c1.116 0 1.863-.63 2.043-1.62h-.783c-.144.585-.594.963-1.25.963-.883 0-1.477-.684-1.477-1.683s.594-1.701 1.476-1.701c.675 0 1.125.369 1.26.981h.774c-.189-1.008-.9-1.638-2.025-1.638-1.332 0-2.24.954-2.24 2.358 0 1.431.881 2.34 2.222 2.34zm4.967 0c1.341 0 2.277-.954 2.277-2.349 0-1.395-.936-2.349-2.277-2.349-1.34 0-2.277.954-2.277 2.349 0 1.395.936 2.349 2.277 2.349zm0-.657c-.909 0-1.52-.711-1.52-1.692s.611-1.692 1.52-1.692c.91 0 1.521.711 1.521 1.692s-.612 1.692-1.52 1.692zm4.181.603h.891l1.72-4.59h-.775l-1.377 3.753-1.386-3.753h-.792l1.72 4.59zm5.074.054c1.062 0 1.818-.675 1.998-1.593h-.747c-.153.594-.657.936-1.305.936-.873 0-1.422-.612-1.449-1.485v-.063h3.564c.01-.108.018-.216.018-.315-.036-1.359-.882-2.178-2.178-2.178-1.296 0-2.178.954-2.178 2.349 0 1.404.9 2.349 2.277 2.349zm-1.458-2.817a1.359 1.359 0 011.368-1.233c.765 0 1.305.441 1.377 1.233H37.74zm6.503-1.827c-.819 0-1.17.342-1.386.693l-.099-.693h-.639v4.59h.738v-2.34c0-.729.261-1.53 1.224-1.53h.37v-.72h-.208zm3.31 4.59h.783v-1.638l1.251-1.413L51.71 13.5h.936l-2.484-3.645L52.466 7.2h-.954l-3.177 3.573V7.2h-.783v6.3zm7.882-4.644c-.774 0-1.242.324-1.512.675l-.1-.621h-.638v4.59h.738v-2.295c0-1.035.522-1.674 1.386-1.674.8 0 1.242.504 1.242 1.458V13.5h.738v-2.556c0-1.521-.82-2.088-1.854-2.088zm4.857 4.698c1.34 0 2.277-.954 2.277-2.349 0-1.395-.936-2.349-2.277-2.349-1.341 0-2.277.954-2.277 2.349 0 1.395.936 2.349 2.277 2.349zm0-.657c-.91 0-1.521-.711-1.521-1.692s.612-1.692 1.52-1.692c.91 0 1.522.711 1.522 1.692s-.612 1.692-1.521 1.692zm5.184.657c1.116 0 1.863-.63 2.043-1.62h-.783c-.144.585-.594.963-1.25.963-.883 0-1.477-.684-1.477-1.683s.594-1.701 1.476-1.701c.675 0 1.125.369 1.26.981h.774c-.189-1.008-.9-1.638-2.025-1.638-1.332 0-2.24.954-2.24 2.358 0 1.431.881 2.34 2.222 2.34zm2.852-.054h.738v-1.206l.927-.954 1.521 2.16h.891l-1.917-2.691 1.791-1.899h-.909l-2.304 2.439V7.2h-.738v6.3zm6.448.054c1.341 0 2.277-.954 2.277-2.349 0-1.395-.936-2.349-2.277-2.349-1.34 0-2.277.954-2.277 2.349 0 1.395.936 2.349 2.277 2.349zm0-.657c-.909 0-1.52-.711-1.52-1.692s.611-1.692 1.52-1.692c.91 0 1.521.711 1.521 1.692s-.612 1.692-1.52 1.692zm6.337-1.692c0 1.035-.504 1.674-1.341 1.674-.766 0-1.198-.504-1.198-1.458V8.91h-.737v2.556c0 1.521.8 2.088 1.808 2.088.756 0 1.197-.324 1.468-.666l.099.612h.639V8.91h-.738v2.295zm2.103 1.098c0 .81.315 1.197 1.197 1.197h.801v-.675h-.729c-.396 0-.53-.144-.53-.531V9.585h1.187V8.91h-1.188V7.623h-.738V8.91h-.828v.675h.828v2.718zm2.449-.315c.018 1.008.837 1.566 2.025 1.566 1.017 0 1.836-.531 1.836-1.386 0-1.017-.837-1.215-1.881-1.341-.666-.081-1.152-.144-1.152-.648 0-.423.432-.693 1.07-.693.63 0 1.063.351 1.117.819h.756c-.072-.954-.828-1.44-1.872-1.449-1.035-.009-1.8.54-1.8 1.377 0 .954.819 1.161 1.845 1.287.684.081 1.188.126 1.188.702 0 .423-.46.702-1.107.702-.765 0-1.242-.396-1.27-.936h-.755z" fill="#fff"/></svg>