<svg width="105" height="24" viewBox="0 0 105 24" fill="none" xmlns="http://www.w3.org/2000/svg"><rect x=".287" y=".117" width="103.887" height="23.766" rx="11.883" fill="#fff"/><path d="M18.979 15.5h.957v-3.366h3.168v-.88h-3.168V8.68h3.828V7.8h-4.785v7.7zm6.141-6.556c.33 0 .583-.242.583-.583a.567.567 0 00-.583-.583.567.567 0 00-.583.583c0 .341.253.583.583.583zm-.462 6.556h.902V9.89h-.902v5.61zm4.888-5.676c-.946 0-1.518.396-1.848.825l-.121-.759h-.781v5.61h.902v-2.805c0-1.265.638-2.046 1.694-2.046.979 0 1.518.616 1.518 1.782V15.5h.902v-3.124c0-1.859-1.001-2.552-2.266-2.552zm7.773.924c-.34-.539-.979-.924-1.925-.924-1.55 0-2.694 1.155-2.694 2.871 0 1.826 1.143 2.871 2.694 2.871.947 0 1.552-.451 1.925-.968l.121.902h.782V7.8h-.903v2.948zm-1.837 4.015c-1.11 0-1.858-.847-1.858-2.068s.747-2.068 1.858-2.068c1.1 0 1.849.858 1.849 2.09 0 1.199-.748 2.046-1.849 2.046zm9.432.803c1.64 0 2.783-1.166 2.783-2.871s-1.144-2.871-2.783-2.871-2.783 1.166-2.783 2.871 1.144 2.871 2.783 2.871zm0-.803c-1.11 0-1.859-.869-1.859-2.068s.748-2.068 1.86-2.068c1.11 0 1.858.869 1.858 2.068s-.748 2.068-1.859 2.068zm7.744-2.068c0 1.265-.616 2.046-1.639 2.046-.934 0-1.462-.616-1.462-1.782V9.89h-.903v3.124c0 1.859.98 2.552 2.211 2.552.924 0 1.463-.396 1.793-.814l.121.748h.781V9.89h-.902v2.805zm2.572 1.342c0 .99.385 1.463 1.463 1.463h.979v-.825h-.891c-.484 0-.65-.176-.65-.649v-3.311h1.453V9.89h-1.452V8.317h-.902V9.89h-1.012v.825h1.012v3.322zM67.59 9.824c-1 0-1.606.462-1.947 1.067-.319-.715-.99-1.067-1.77-1.067-.87 0-1.343.429-1.64.836l-.12-.77h-.782v5.61h.902v-2.959c0-1.122.561-1.892 1.485-1.892.858 0 1.353.572 1.353 1.672V15.5h.902v-3.003c0-1.144.572-1.848 1.507-1.848.847 0 1.331.572 1.331 1.672V15.5h.902v-3.234c0-1.771-.957-2.442-2.123-2.442zm5.8 5.742c1.64 0 2.784-1.166 2.784-2.871s-1.144-2.871-2.783-2.871c-1.64 0-2.783 1.166-2.783 2.871s1.144 2.871 2.783 2.871zm0-.803c-1.11 0-1.858-.869-1.858-2.068s.748-2.068 1.859-2.068c1.11 0 1.859.869 1.859 2.068s-.748 2.068-1.86 2.068zm6.414-4.873c-1.001 0-1.43.418-1.694.847l-.121-.847h-.781v5.61h.902v-2.86c0-.891.319-1.87 1.496-1.87h.451v-.88h-.253zm3.298 5.676c1.298 0 2.222-.825 2.442-1.947h-.913c-.187.726-.803 1.144-1.595 1.144-1.067 0-1.738-.748-1.771-1.815v-.077h4.356c.01-.132.022-.264.022-.385-.044-1.661-1.078-2.662-2.662-2.662-1.584 0-2.662 1.166-2.662 2.871 0 1.716 1.1 2.871 2.783 2.871zm-1.782-3.443c.088-.913.847-1.507 1.672-1.507.935 0 1.595.539 1.683 1.507H81.32z" fill="#000"/></svg>