<svg width="112" height="30" viewBox="0 0 112 30" fill="none" xmlns="http://www.w3.org/2000/svg"><rect x=".5" y=".5" width="111" height="29" rx="14.5" fill="#fff"/><path d="M27.136 20.5v-1.12H22.67V10.7h-1.218v9.8h5.684zm3.973.084c1.652 0 2.828-1.05 3.108-2.478h-1.162c-.238.924-1.022 1.456-2.03 1.456-1.358 0-2.212-.952-2.254-2.31v-.098h5.544c.014-.168.028-.336.028-.49-.056-2.114-1.372-3.388-3.388-3.388s-3.388 1.484-3.388 3.654c0 2.184 1.4 3.654 3.542 3.654zm-2.268-4.382c.112-1.162 1.078-1.918 2.128-1.918 1.19 0 2.03.686 2.142 1.918h-4.27zm13.126 3.248c-.322 0-.462-.098-.462-.476v-3.122c0-1.666-1.05-2.576-2.87-2.576-1.722 0-2.856.826-3.024 2.226h1.148c.14-.728.812-1.204 1.82-1.204 1.12 0 1.778.56 1.778 1.484v.49h-2.1c-1.876 0-2.87.798-2.87 2.226 0 1.302 1.064 2.086 2.632 2.086 1.232 0 1.946-.546 2.394-1.19.014.7.336 1.106 1.288 1.106h.63v-1.05h-.364zm-1.61-1.862c0 1.19-.826 2.016-2.254 2.016-.952 0-1.554-.476-1.554-1.176 0-.812.574-1.19 1.596-1.19h2.212v.35zm6.16-4.228c-1.273 0-1.82.532-2.155 1.078l-.154-1.078h-.994v7.14h1.148v-3.64c0-1.134.406-2.38 1.904-2.38h.574v-1.12h-.322zm4.818-.084c-1.204 0-1.932.504-2.352 1.05l-.154-.966h-.994v7.14h1.148v-3.57c0-1.61.812-2.604 2.156-2.604 1.246 0 1.932.784 1.932 2.268V20.5h1.148v-3.976c0-2.366-1.274-3.248-2.884-3.248zm8.18 7.224h1.19v-7.728l3.248 7.728h1.078l3.247-7.728V20.5h1.19v-9.8h-1.511l-3.43 8.134-3.473-8.134h-1.54v9.8zm14.975.084c2.086 0 3.542-1.484 3.542-3.654s-1.456-3.654-3.542-3.654-3.542 1.484-3.542 3.654 1.456 3.654 3.542 3.654zm0-1.022c-1.414 0-2.366-1.106-2.366-2.632s.952-2.632 2.366-2.632c1.414 0 2.366 1.106 2.366 2.632s-.952 2.632-2.366 2.632zm8.163-6.202c-1.275 0-1.82.532-2.157 1.078l-.153-1.078h-.995v7.14h1.148v-3.64c0-1.134.407-2.38 1.904-2.38h.575v-1.12h-.322zm4.196 7.224c1.652 0 2.828-1.05 3.108-2.478h-1.162c-.238.924-1.022 1.456-2.03 1.456-1.358 0-2.212-.952-2.254-2.31v-.098h5.544c.014-.168.028-.336.028-.49-.056-2.114-1.372-3.388-3.388-3.388s-3.388 1.484-3.388 3.654c0 2.184 1.4 3.654 3.542 3.654zm-2.268-4.382c.112-1.162 1.078-1.918 2.128-1.918 1.19 0 2.03.686 2.142 1.918h-4.27z" fill="#000"/></svg>