<svg width="184" height="10" viewBox="0 0 184 10" fill="none" xmlns="http://www.w3.org/2000/svg"><path d="M.21 1.721h2.268V8h1.208V1.721h2.268V.65H.21v1.071zm8.726.903c-.882 0-1.312.357-1.585.808l-.126-.808H6.217V8H7.35V5.301c0-.829.325-1.617 1.333-1.617h.504v-1.06h-.252zm5.701 4.389c-.23 0-.346-.074-.346-.346V4.514c0-1.27-.819-1.953-2.247-1.953-1.354 0-2.258.651-2.373 1.701h1.113c.084-.472.535-.787 1.207-.787.746 0 1.177.367 1.177.966v.325h-1.355c-1.502 0-2.3.62-2.3 1.722 0 .997.82 1.575 1.995 1.575.872 0 1.418-.378 1.775-.924 0 .535.252.861.987.861h.598v-.987h-.23zm-1.47-1.218c-.01.83-.556 1.386-1.501 1.386-.62 0-.998-.315-.998-.766 0-.546.389-.809 1.093-.809h1.407v.189zM19.53 3.37c-.347-.473-.924-.809-1.743-.809-1.46 0-2.541 1.092-2.541 2.751 0 1.722 1.081 2.751 2.54 2.751.851 0 1.408-.399 1.754-.872l.137.809h.987V.65H19.53v2.72zm-1.554 3.737c-.945 0-1.565-.735-1.565-1.795 0-1.05.62-1.785 1.565-1.785s1.564.735 1.564 1.806c0 1.04-.62 1.774-1.564 1.774zm6.347.956c1.334 0 2.237-.809 2.426-1.869h-1.134c-.158.599-.662.945-1.355.945-.892 0-1.47-.599-1.501-1.512v-.074h4.053a3.08 3.08 0 00.031-.43c-.031-1.575-1.07-2.562-2.625-2.562-1.585 0-2.646 1.103-2.646 2.761 0 1.649 1.06 2.741 2.751 2.741zm-1.522-3.339c.084-.767.703-1.25 1.428-1.25.787 0 1.344.452 1.438 1.25h-2.866zm8.118 2.152c.494.746 1.26 1.187 2.279 1.187 1.564 0 2.635-1.029 2.635-2.478 0-1.491-1.018-2.478-2.478-2.478-.882 0-1.575.42-1.91 1.06-.043.074-.053.137-.074.179-.01-.136-.01-.2-.01-.284 0-1.522.63-2.509 1.763-2.509.788 0 1.281.43 1.439 1.113h1.155c-.179-1.291-1.166-2.079-2.52-2.079-1.796 0-2.898 1.407-2.898 3.79 0 .987.23 1.859.62 2.5zm3.749-1.291c0 .893-.588 1.522-1.48 1.522-.893 0-1.492-.619-1.492-1.511 0-.914.62-1.534 1.512-1.534.903 0 1.46.63 1.46 1.523zm2.312 1.06c-.483 0-.798.316-.798.715 0 .451.273.671.62.671a.565.565 0 00.346-.105c.01.042.01.095.01.137 0 .367-.262.777-.923.787v.61c1.04-.011 1.69-.589 1.69-1.607 0-.672-.367-1.207-.945-1.207zm1.154-2.152c0 2.215 1.186 3.57 2.898 3.57 1.711 0 2.898-1.355 2.898-3.57v-.336c0-2.131-1.187-3.57-2.898-3.57-1.712 0-2.898 1.439-2.898 3.57v.336zm4.62-.042c0 1.649-.693 2.594-1.722 2.594-1.03 0-1.722-.946-1.722-2.594v-.252c0-1.638.693-2.593 1.722-2.593s1.722.955 1.722 2.593v.252zm1.993.042c0 2.215 1.187 3.57 2.898 3.57 1.712 0 2.898-1.355 2.898-3.57v-.336c0-2.131-1.186-3.57-2.898-3.57-1.711 0-2.898 1.439-2.898 3.57v.336zm4.62-.042c0 1.649-.693 2.594-1.722 2.594s-1.722-.946-1.722-2.594v-.252c0-1.638.693-2.593 1.722-2.593 1.03 0 1.722.955 1.722 2.593v.252zm1.994.042c0 2.215 1.187 3.57 2.898 3.57 1.712 0 2.898-1.355 2.898-3.57v-.336c0-2.131-1.186-3.57-2.898-3.57-1.711 0-2.898 1.439-2.898 3.57v.336zm4.62-.042c0 1.649-.693 2.594-1.722 2.594s-1.722-.946-1.722-2.594v-.252c0-1.638.693-2.593 1.722-2.593 1.03 0 1.722.955 1.722 2.593v.252zm4.649 1.134c.042 1.47 1.145 2.478 2.971 2.478 1.618 0 2.72-.914 2.72-2.237.01-1.448-1.176-1.837-2.394-2.057-1.155-.2-1.911-.357-1.911-1.114 0-.692.578-1.05 1.407-1.05.892 0 1.48.505 1.575 1.25h1.207C66.153 1.5 65.103.587 63.424.587c-1.565 0-2.614.871-2.614 2.152 0 1.46 1.155 1.849 2.373 2.059 1.165.21 1.931.378 1.931 1.154 0 .704-.63 1.093-1.501 1.093-1.029 0-1.701-.578-1.764-1.439l-1.218-.021zm9.463-3.024c-.84 0-1.355.378-1.69.84V.65h-1.135V8h1.134V5.28c0-1.081.546-1.743 1.439-1.743.84 0 1.291.546 1.291 1.565V8h1.134V5.008c0-1.796-.976-2.447-2.173-2.447zm8.119 4.452c-.231 0-.347-.074-.347-.346V4.514c0-1.27-.819-1.953-2.247-1.953-1.354 0-2.257.651-2.373 1.701h1.113c.084-.472.536-.787 1.208-.787.745 0 1.176.367 1.176.966v.325h-1.355c-1.501 0-2.3.62-2.3 1.722 0 .997.82 1.575 1.996 1.575.871 0 1.417-.378 1.774-.924 0 .535.252.861.987.861h.599v-.987h-.231zm-1.47-1.218c-.01.83-.557 1.386-1.502 1.386-.62 0-.997-.315-.997-.766 0-.546.388-.809 1.092-.809h1.407v.189zm5.038-3.171c-.882 0-1.313.357-1.586.808l-.126-.808H79.06V8h1.134V5.301c0-.829.326-1.617 1.334-1.617h.504v-1.06h-.252zm3.246 5.439c1.334 0 2.237-.809 2.426-1.869h-1.134c-.157.599-.662.945-1.355.945-.892 0-1.47-.599-1.501-1.512v-.074h4.053a3.08 3.08 0 00.031-.43c-.031-1.575-1.07-2.562-2.625-2.562-1.585 0-2.646 1.103-2.646 2.761 0 1.649 1.061 2.741 2.751 2.741zm-1.522-3.339c.084-.767.703-1.25 1.428-1.25.787 0 1.344.452 1.439 1.25h-2.867zm10.953 3.339c1.712 0 2.961-1.008 3.192-2.562H96.4c-.23.934-.934 1.502-1.952 1.502-1.386 0-2.226-1.114-2.226-2.678 0-1.575.86-2.678 2.257-2.678.998 0 1.69.578 1.932 1.502h1.25C97.418 1.595 96.21.587 94.53.587c-2.173 0-3.548 1.501-3.548 3.738 0 2.257 1.333 3.738 3.475 3.738zM98.648 8h1.208V4.892h2.877v-1.04h-2.877V1.722h3.486V.65h-4.694V8zm8.118 0c2.3 0 3.749-1.502 3.749-3.686 0-2.183-1.449-3.664-3.749-3.664h-2.499V8h2.499zm-1.291-6.3h1.291c1.617 0 2.51 1.04 2.51 2.614 0 1.575-.893 2.636-2.51 2.636h-1.291V1.7zm5.757 4.526c.031 1.165 1.018 1.837 2.457 1.837 1.302 0 2.278-.651 2.278-1.68 0-1.197-.997-1.449-2.226-1.596-.777-.084-1.291-.147-1.291-.651 0-.43.441-.704 1.113-.704.672 0 1.134.347 1.197.84h1.113c-.074-1.102-1.008-1.711-2.331-1.711-1.292-.01-2.205.651-2.205 1.67 0 1.112.966 1.375 2.194 1.522.83.105 1.323.147 1.323.724 0 .431-.462.704-1.165.704-.819 0-1.302-.399-1.344-.955h-1.113zM120.772 8H122l1.176-3.654L124.31 8h1.218l1.785-5.376h-1.155l-1.27 4.116-1.176-4.116h-1.04l-1.228 4.116-1.229-4.116h-1.197L120.772 8zm7.716-6.132a.671.671 0 00.693-.683.671.671 0 00-.693-.682.67.67 0 00-.693.682.67.67 0 00.693.683zM127.91 8h1.134V2.624h-1.134V8zm2.634-1.46c0 .977.441 1.46 1.47 1.46h1.05v-.997h-.798c-.43 0-.577-.158-.577-.578V3.622h1.312v-.998h-1.312V1.122h-1.145v1.502h-.934v.998h.934V6.54zm6.066-3.979c-.84 0-1.354.378-1.69.84V.65h-1.134V8h1.134V5.28c0-1.081.546-1.743 1.438-1.743.84 0 1.292.546 1.292 1.565V8h1.134V5.008c0-1.796-.977-2.447-2.174-2.447zm5.705 5.502c1.638 0 2.74-1.103 2.74-2.751 0-1.638-1.102-2.751-2.74-2.751-1.638 0-2.741 1.113-2.741 2.751 0 1.648 1.103 2.751 2.741 2.751zm0-.966c-.956 0-1.575-.746-1.575-1.785 0-1.04.619-1.785 1.575-1.785.955 0 1.585.745 1.585 1.785s-.63 1.785-1.585 1.785zm7.338-1.785c0 1.113-.525 1.764-1.386 1.764-.83 0-1.25-.535-1.25-1.585V2.623h-1.134v2.993c0 1.837.977 2.446 2.121 2.446.83 0 1.323-.336 1.659-.746l.126.683h.998V2.624h-1.134v2.688zm2.67 1.228c0 .977.441 1.46 1.47 1.46h1.05v-.997h-.798c-.43 0-.577-.158-.577-.578V3.622h1.312v-.998h-1.312V1.122h-1.145v1.502h-.934v.998h.934V6.54zm8.396 1.523c1.375 0 2.289-.767 2.499-1.985h-1.197c-.137.62-.599 1.019-1.292 1.019-.913 0-1.512-.725-1.512-1.775 0-1.06.599-1.795 1.512-1.795.704 0 1.155.389 1.302 1.018h1.187c-.221-1.217-1.082-1.984-2.468-1.984-1.627 0-2.698 1.103-2.698 2.761 0 1.68 1.039 2.741 2.667 2.741zm5.908 0c1.638 0 2.74-1.103 2.74-2.751 0-1.638-1.102-2.751-2.74-2.751-1.638 0-2.741 1.113-2.741 2.751 0 1.648 1.103 2.751 2.741 2.751zm0-.966c-.956 0-1.575-.746-1.575-1.785 0-1.04.619-1.785 1.575-1.785.955 0 1.585.745 1.585 1.785s-.63 1.785-1.585 1.785zm3.39-.872c.032 1.166 1.019 1.838 2.457 1.838 1.302 0 2.279-.651 2.279-1.68 0-1.197-.998-1.449-2.226-1.596-.777-.084-1.292-.147-1.292-.651 0-.43.441-.704 1.113-.704.672 0 1.134.347 1.197.84h1.113c-.073-1.102-1.008-1.711-2.331-1.711-1.291-.01-2.205.651-2.205 1.67 0 1.112.966 1.375 2.195 1.522.829.105 1.323.147 1.323.724 0 .431-.462.704-1.166.704-.819 0-1.302-.399-1.344-.955h-1.113zm6.003.316c0 .976.441 1.459 1.47 1.459h1.05v-.997h-.798c-.43 0-.577-.158-.577-.578V3.622h1.312v-.998h-1.312V1.122h-1.145v1.502h-.934v.998h.934V6.54zm3.011-.316c.031 1.166 1.018 1.838 2.457 1.838 1.302 0 2.278-.651 2.278-1.68 0-1.197-.997-1.449-2.226-1.596-.777-.084-1.291-.147-1.291-.651 0-.43.441-.704 1.113-.704.672 0 1.134.347 1.197.84h1.113c-.074-1.102-1.008-1.711-2.331-1.711-1.292-.01-2.205.651-2.205 1.67 0 1.112.966 1.375 2.194 1.522.83.105 1.323.147 1.323.724 0 .431-.462.704-1.165.704-.819 0-1.302-.399-1.344-.955h-1.113z" fill="#000"/></svg>