<svg width="91" height="14" viewBox="0 0 91 14" fill="none" xmlns="http://www.w3.org/2000/svg"><path d="M24.979 6.958c0-.134-.003-.267-.008-.398h1.552l.412-1.216h-2.09C24.272 2.02 21.871 0 18.245 0c-4.077 0-6.713 2.766-6.713 7.042 0 4.318 2.553 6.979 6.713 6.958 3.39 0 5.796-1.9 6.512-5.01h1.416l.433-1.215h-1.66c.021-.265.033-.538.033-.817zm-6.651 5.115c-2.101-.001-2.925-2.265-2.925-5.073 0-2.808.66-5.05 2.78-5.072 1.669 0 2.531 1.416 2.816 3.416h-1.806l-.412 1.216h2.32a14.17 14.17 0 01-.01 1.216h-2.228l-.432 1.216h2.54c-.286 1.82-1.054 3.08-2.643 3.08zM0 .315h10.502v3.248H3.645v2.263h6.199v3.081h-6.2v4.758H0V.315zm28.109 0v13.35h3.645V9.62h1.606l2.636 4.045h4.201l-3.13-4.653c1.627-.713 2.697-2.075 2.697-4.108v-.042c0-1.3-.39-2.347-1.153-3.102-.885-.9-2.285-1.445-4.283-1.445H28.11zm3.645 6.413V3.5h2.389c1.235 0 1.977.545 1.977 1.592v.042c0 .985-.721 1.592-1.956 1.592l-2.41.002zm9.864 6.937h10.646V10.52h-7.043V8.404h6.301V5.491h-6.3V3.458h6.96V.315H41.619v13.35zm11.84 0h4.099l2.532-4.024 2.513 4.024h4.18l-4.51-6.833L66.576.315h-4.077l-2.347 3.751L57.824.315h-4.18l4.324 6.56-4.51 6.79zm16.886-6.329c-.003.367.066.731.204 1.07.138.34.342.647.6.903.258.257.564.458.9.59.336.134.695.196 1.056.183 1.154 0 1.833-.482 2.327-1.215l-1.235-.901c-.289.335-.577.545-1.01.545-.617 0-1.05-.524-1.05-1.216v-.02c0-.65.433-1.175 1.03-1.175.196 0 .388.053.558.152.17.1.31.242.41.414l1.256-.943a2.536 2.536 0 00-.964-.905 2.483 2.483 0 00-1.28-.29 2.688 2.688 0 00-1.074.194 2.726 2.726 0 00-.913.605 2.78 2.78 0 00-.609.92c-.14.346-.21.717-.205 1.09m5.56 0c0 1.51 1.215 2.766 2.883 2.766 1.688 0 2.903-1.278 2.903-2.787v-.02c0-1.509-1.215-2.766-2.883-2.766-1.688 0-2.903 1.278-2.903 2.808m3.995 0c0 .629-.412 1.174-1.092 1.174a1.117 1.117 0 01-.801-.36 1.157 1.157 0 01-.31-.834v-.02a1.137 1.137 0 01.299-.824 1.1 1.1 0 01.792-.35 1.124 1.124 0 01.807.37 1.165 1.165 0 01.305.846m2.677-2.704v5.319h1.832V7.063c0-.566.31-.88.742-.88s.72.293.72.88v2.892h1.813V7.063c0-.566.33-.88.762-.88.433 0 .721.293.721.88v2.913H91v-3.5c0-1.236-.68-1.95-1.792-1.95a2.185 2.185 0 00-.972.225c-.304.149-.57.366-.778.635-.268-.545-.803-.86-1.503-.86-.308.002-.61.08-.883.225a1.927 1.927 0 00-.682.614v-.733h-1.813v.004zM67.792 8.97a.836.836 0 00.288.692.987.987 0 001.359 0 .98.98 0 00.292-.695.994.994 0 00-.281-.7.96.96 0 00-.688-.286.947.947 0 00-.682.297.994.994 0 00-.288.692z" fill="#fff"/></svg>