<svg width="213" height="32" viewBox="0 0 213 32" fill="none" xmlns="http://www.w3.org/2000/svg"><path d="M58.467 15.904c0-.307-.006-.61-.018-.91h3.633l.964-2.778h-4.892C56.812 4.616 51.192 0 42.706 0c-9.544 0-15.714 6.323-15.714 16.096 0 9.87 5.977 15.951 15.714 15.904 7.935 0 13.567-4.342 15.241-11.45h3.316l1.012-2.778h-3.887a22.3 22.3 0 00.08-1.868zm-15.569 11.69c-4.917-.001-6.844-5.176-6.844-11.594 0-6.417 1.542-11.545 6.507-11.593 3.906 0 5.924 3.236 6.591 7.809h-4.227l-.964 2.778h5.43a36.34 36.34 0 01-.025 2.78h-5.214l-1.012 2.779h5.945c-.668 4.162-2.466 7.04-6.187 7.04v.002zM0 .72h24.582v7.424H8.532v5.173H23.04v7.042H8.53v10.874H0V.72zm65.794 0v30.513h8.531v-9.245h3.76l6.17 9.245h9.832l-7.326-10.635c3.808-1.629 6.314-4.743 6.314-9.39v-.094c0-2.97-.916-5.365-2.7-7.09C88.302 1.964 85.025.72 80.35.72H65.794zm8.531 14.658V8h5.591c2.892 0 4.627 1.246 4.627 3.64v.095c0 2.251-1.686 3.639-4.577 3.639l-5.64.004zm23.088 15.855h24.92v-7.187h-16.485V19.21h14.748V12.55h-14.748V7.904h16.294V.72H97.413v30.513zm27.715 0h9.592l5.929-9.197 5.88 9.197h9.785l-10.556-15.616L155.832.72h-9.544l-5.492 8.574L135.347.72h-9.785l10.122 14.993-10.556 15.52zm39.525-14.465a6.17 6.17 0 00.475 2.447 6.217 6.217 0 003.512 3.413 6.284 6.284 0 002.472.417c2.7 0 4.289-1.101 5.446-2.778l-2.891-2.06c-.675.767-1.35 1.246-2.362 1.246-1.447 0-2.459-1.198-2.459-2.779v-.047c0-1.486 1.012-2.684 2.41-2.684a2.64 2.64 0 012.266 1.293l2.94-2.155a5.88 5.88 0 00-2.257-2.069 5.929 5.929 0 00-2.997-.66 6.425 6.425 0 00-4.65 1.825 6.342 6.342 0 00-1.905 4.594m13.014 0c0 3.449 2.844 6.323 6.748 6.323 3.952 0 6.797-2.923 6.797-6.372v-.046c0-3.448-2.845-6.322-6.749-6.322-3.952 0-6.796 2.922-6.796 6.419m9.351 0c0 1.437-.964 2.684-2.555 2.684a2.667 2.667 0 01-1.876-.823 2.621 2.621 0 01-.726-1.906v-.046a2.553 2.553 0 011.545-2.472 2.59 2.59 0 011.009-.212 2.682 2.682 0 011.891.844 2.65 2.65 0 01.712 1.935m6.266-6.18v12.157h4.29v-6.61c0-1.294.723-2.012 1.735-2.012 1.013 0 1.687.67 1.687 2.012v6.61h4.242v-6.61c0-1.294.771-2.012 1.785-2.012 1.014 0 1.687.67 1.687 2.012v6.658H213v-8c0-2.826-1.591-4.455-4.193-4.455a5.216 5.216 0 00-2.277.512c-.71.34-1.333.837-1.821 1.452-.626-1.245-1.88-1.964-3.518-1.964a4.481 4.481 0 00-3.662 1.916v-1.676h-4.245v.01zm-34.607 9.906a1.882 1.882 0 00.674 1.58 2.342 2.342 0 003.181 0 2.22 2.22 0 00.685-1.587 2.232 2.232 0 00-1.397-2.087 2.263 2.263 0 00-2.469.513 2.245 2.245 0 00-.674 1.581z" fill="#fff"/></svg>