<svg width="49" height="17" viewBox="0 0 49 17" fill="none" xmlns="http://www.w3.org/2000/svg"><path d="M32.288 6.756h-2.496c-.684-3.8-3.55-6.11-7.88-6.11-4.87 0-8.017 3.162-8.017 8.048s3.05 7.977 8.016 7.952c4.05 0 6.921-2.17 7.776-5.725h1.69l.517-1.39H29.91a11.038 11.038 0 00.03-1.39h1.855l.492-1.39v.005zm-6.98 2.78H22.65l-.516 1.39h3.033c-.34 2.08-1.258 3.52-3.157 3.52-2.508 0-3.49-2.588-3.49-5.795s.786-5.773 3.32-5.796c1.992 0 3.022 1.617 3.363 3.903h-2.158l-.493 1.39h2.77c.004.166.009.332.009.503 0 .302-.007.598-.021.887v-.002zM.125 16.264h4.353v-5.436h7.402V7.307H4.478V4.718h8.189V1.006H.125v15.258zM44.389 10.946c1.943-.814 3.22-2.373 3.22-4.695v-.048c0-1.485-.467-2.682-1.378-3.546-1.055-1.03-2.73-1.651-5.114-1.651h-7.425v15.258h4.352V11.64h1.918l3.147 4.624h5.016l-3.739-5.318h.003zm-1.133-4.433c0 1.126-.859 1.82-2.335 1.82h-2.879V4.644h2.854c1.475 0 2.36.623 2.36 1.82v.048z" fill="#fff"/></svg>