<svg width="212" height="100" viewBox="0 0 212 100" fill="none" xmlns="http://www.w3.org/2000/svg"><path d="M11.04 22.18c3.33 0 5.49-1.5 6.51-3l.3 2.82h2.67V10.51H11.4v2.91h5.82v.51c-.18 3.39-2.79 5.22-6.03 5.22-4.02 0-6.54-3.15-6.54-7.65s2.58-7.65 6.57-7.65c2.91 0 4.92 1.62 5.55 4.29h3.57C19.71 3.7 16.17.82 11.31.82 5.07.82 1.11 5.11 1.11 11.5s4.05 10.68 9.93 10.68zM24.031 22h3.24V1h-3.24v21zm13.676.18c4.68 0 7.83-3.15 7.83-7.86 0-4.68-3.15-7.86-7.83-7.86s-7.83 3.18-7.83 7.86c0 4.71 3.15 7.86 7.83 7.86zm0-2.76c-2.73 0-4.5-2.13-4.5-5.1 0-2.97 1.77-5.1 4.5-5.1s4.53 2.13 4.53 5.1c0 2.97-1.8 5.1-4.53 5.1zM56.363 6.46c-2.37 0-3.96 1.08-4.98 2.46V1h-3.24v21h2.82l.39-2.22c.96 1.38 2.61 2.4 5.01 2.4 4.2 0 7.26-3.15 7.26-7.86 0-4.95-3.06-7.86-7.26-7.86zm-.54 12.99c-2.7 0-4.47-2.13-4.47-5.16 0-2.97 1.77-5.07 4.47-5.07 2.7 0 4.5 2.1 4.5 5.1 0 3.03-1.8 5.13-4.5 5.13zm24.436-.27c-.66 0-.99-.21-.99-.99v-6.15c0-3.63-2.34-5.58-6.42-5.58-3.87 0-6.45 1.86-6.78 4.86h3.18c.24-1.35 1.53-2.25 3.45-2.25 2.13 0 3.36 1.05 3.36 2.76v.93h-3.87c-4.29 0-6.57 1.77-6.57 4.92 0 2.85 2.34 4.5 5.7 4.5 2.49 0 4.05-1.08 5.07-2.64 0 1.53.72 2.46 2.82 2.46h1.71v-2.82h-.66zm-4.2-3.48c-.03 2.37-1.59 3.96-4.29 3.96-1.77 0-2.85-.9-2.85-2.19 0-1.56 1.11-2.31 3.12-2.31h4.02v.54zm6.625 6.3h3.24V1h-3.24v21zm31.762-15.54c-2.52 0-4.26 1.11-5.25 2.79-.93-1.98-2.73-2.79-4.74-2.79-2.31.03-3.63 1.05-4.5 2.19l-.36-2.01h-2.82V22h3.24v-8.22c0-2.73 1.38-4.53 3.6-4.53 2.13 0 3.24 1.41 3.24 4.11V22h3.27v-8.31c0-2.76 1.41-4.44 3.63-4.44 2.1 0 3.21 1.41 3.21 4.11V22h3.24v-8.85c0-4.86-2.58-6.69-5.76-6.69zm22.737 12.72c-.66 0-.99-.21-.99-.99v-6.15c0-3.63-2.34-5.58-6.42-5.58-3.87 0-6.45 1.86-6.78 4.86h3.18c.24-1.35 1.53-2.25 3.45-2.25 2.13 0 3.36 1.05 3.36 2.76v.93h-3.87c-4.29 0-6.57 1.77-6.57 4.92 0 2.85 2.34 4.5 5.7 4.5 2.49 0 4.05-1.08 5.07-2.64 0 1.53.72 2.46 2.82 2.46h1.71v-2.82h-.66zm-4.2-3.48c-.03 2.37-1.59 3.96-4.29 3.96-1.77 0-2.85-.9-2.85-2.19 0-1.56 1.11-2.31 3.12-2.31h4.02v.54zm14.395-9.06c-2.52 0-3.75 1.02-4.53 2.31l-.36-2.31h-2.88V22h3.24v-7.71c0-2.37.93-4.62 3.81-4.62h1.44V6.64h-.72zM150.096 22h3.24v-3.9l2.76-2.88 4.53 6.78h3.84l-6.15-9.15 5.79-6.21h-3.81l-6.96 7.44V1h-3.24v21zm22.261.18c3.81 0 6.39-2.31 6.93-5.34h-3.24c-.45 1.71-1.89 2.7-3.87 2.7-2.55 0-4.2-1.71-4.29-4.32v-.21h11.58c.06-.42.09-.84.09-1.23-.09-4.5-3.06-7.32-7.5-7.32-4.53 0-7.56 3.15-7.56 7.89 0 4.71 3.03 7.83 7.86 7.83zm-4.35-9.54c.24-2.19 2.01-3.57 4.08-3.57 2.25 0 3.84 1.29 4.11 3.57h-8.19zm15.162 5.19c0 2.79 1.26 4.17 4.2 4.17h3v-2.85h-2.28c-1.23 0-1.65-.45-1.65-1.65V9.49h3.75V6.64h-3.75V2.35h-3.27v4.29h-2.67v2.85h2.67v8.34zm8.601-.9c.09 3.33 2.91 5.25 7.02 5.25 3.72 0 6.51-1.86 6.51-4.8 0-3.42-2.85-4.14-6.36-4.56-2.22-.24-3.69-.42-3.69-1.86 0-1.23 1.26-2.01 3.18-2.01 1.92 0 3.24.99 3.42 2.4h3.18c-.21-3.15-2.88-4.89-6.66-4.89-3.69-.03-6.3 1.86-6.3 4.77 0 3.18 2.76 3.93 6.27 4.35 2.37.3 3.78.42 3.78 2.07 0 1.23-1.32 2.01-3.33 2.01-2.34 0-3.72-1.14-3.84-2.73h-3.18zm17.336 1.2c-1.38 0-2.28.9-2.28 2.04 0 1.29.78 1.92 1.77 1.92.36 0 .72-.09.99-.3.03.12.03.27.03.39 0 1.05-.75 2.22-2.64 2.25v1.74c2.97-.03 4.83-1.68 4.83-4.59 0-1.92-1.05-3.45-2.7-3.45zM.66 58h14.88v-2.91H5.37l5.58-4.65c2.55-2.13 4.44-4.08 4.44-7.2 0-3.84-2.64-6.42-7.35-6.42-4.47 0-7.35 2.91-7.35 6.9v.54h3.33v-.36c0-2.61 1.62-4.23 4.02-4.23 2.4 0 3.99 1.32 3.99 3.72 0 2.01-1.41 3.48-3.3 5.07L.66 55.33V58zm15.814-4.86h10.71V58h3.27v-4.86h3.18v-2.88h-3.18V37h-3.9l-10.08 13.32v2.82zm10.71-12.51v9.63h-7.29l7.29-9.63zM45.829 50.8v-2.67h-10.2v2.67h10.2zm11.058-8.34c-2.4 0-3.87 1.08-4.83 2.4V37h-3.24v21h3.24v-7.77c0-3.09 1.56-4.98 4.11-4.98 2.4 0 3.69 1.56 3.69 4.47V58h3.24v-8.55c0-5.13-2.79-6.99-6.21-6.99zm16.299 15.72c4.68 0 7.83-3.15 7.83-7.86 0-4.68-3.15-7.86-7.83-7.86s-7.83 3.18-7.83 7.86c0 4.71 3.15 7.86 7.83 7.86zm0-2.76c-2.73 0-4.5-2.13-4.5-5.1 0-2.97 1.77-5.1 4.5-5.1s4.53 2.13 4.53 5.1c0 2.97-1.8 5.1-4.53 5.1zm20.965-5.1c0 3.18-1.5 5.04-3.96 5.04-2.37 0-3.57-1.53-3.57-4.53v-8.19h-3.24v8.55c0 5.25 2.79 6.99 6.06 6.99 2.37 0 3.78-.96 4.74-2.13l.36 1.95h2.85V42.64h-3.24v7.68zm14.203-7.68c-2.52 0-3.75 1.02-4.53 2.31l-.36-2.31h-2.88V58h3.24v-7.71c0-2.37.93-4.62 3.81-4.62h1.44v-3.03h-.72zM8.85 94.18c4.68 0 7.83-3.15 7.83-7.86 0-4.68-3.15-7.86-7.83-7.86s-7.83 3.18-7.83 7.86c0 4.71 3.15 7.86 7.83 7.86zm0-2.76c-2.73 0-4.5-2.13-4.5-5.1 0-2.97 1.77-5.1 4.5-5.1s4.53 2.13 4.53 5.1c0 2.97-1.8 5.1-4.53 5.1zm18.655-12.96c-2.4 0-3.99 1.11-5.01 2.46l-.39-2.28h-2.82V100h3.24v-8.16c.96 1.38 2.61 2.34 4.98 2.34 4.2 0 7.26-3.12 7.26-7.86 0-4.92-3.06-7.86-7.26-7.86zm-.54 12.99c-2.7 0-4.47-2.13-4.47-5.19 0-2.97 1.77-5.04 4.47-5.04 2.7 0 4.5 2.07 4.5 5.1 0 3-1.8 5.13-4.5 5.13zm18.616-12.99c-2.4 0-3.99 1.11-5.01 2.46l-.39-2.28h-2.82V100h3.24v-8.16c.96 1.38 2.61 2.34 4.98 2.34 4.2 0 7.26-3.12 7.26-7.86 0-4.92-3.06-7.86-7.26-7.86zm-.54 12.99c-2.7 0-4.47-2.13-4.47-5.19 0-2.97 1.77-5.04 4.47-5.04 2.7 0 4.5 2.07 4.5 5.1 0 3-1.8 5.13-4.5 5.13zm17.657 2.73c4.68 0 7.83-3.15 7.83-7.86 0-4.68-3.15-7.86-7.83-7.86s-7.83 3.18-7.83 7.86c0 4.71 3.15 7.86 7.83 7.86zm0-2.76c-2.73 0-4.5-2.13-4.5-5.1 0-2.97 1.77-5.1 4.5-5.1s4.53 2.13 4.53 5.1c0 2.97-1.8 5.1-4.53 5.1zm18.205-12.78c-2.52 0-3.75 1.02-4.53 2.31l-.36-2.31h-2.88V94h3.24v-7.71c0-2.37.93-4.62 3.81-4.62h1.44v-3.03h-.72zm4.385 11.19c0 2.79 1.26 4.17 4.2 4.17h3v-2.85h-2.28c-1.23 0-1.65-.45-1.65-1.65v-8.01h3.75v-2.85h-3.75v-4.29h-3.27v4.29h-2.67v2.85h2.67v8.34zm19.791-3.51c0 3.18-1.5 5.04-3.96 5.04-2.37 0-3.57-1.53-3.57-4.53v-8.19h-3.24v8.55c0 5.25 2.79 6.99 6.06 6.99 2.37 0 3.78-.96 4.74-2.13l.36 1.95h2.85V78.64h-3.24v7.68zm14.533-7.86c-2.49 0-3.96.99-4.92 2.19l-.36-2.01h-2.82V94h3.24v-7.74c0-3.12 1.53-5.01 4.11-5.01 2.43 0 3.66 1.56 3.66 4.47V94h3.27v-8.55c0-5.13-2.79-6.99-6.18-6.99zm10.776-1.98c1.11 0 1.98-.81 1.98-1.95s-.87-1.95-1.98-1.95c-1.11 0-1.98.81-1.98 1.95s.87 1.95 1.98 1.95zM128.738 94h3.24V78.64h-3.24V94zm7.526-4.17c0 2.79 1.26 4.17 4.2 4.17h3v-2.85h-2.28c-1.23 0-1.65-.45-1.65-1.65v-8.01h3.75v-2.85h-3.75v-4.29h-3.27v4.29h-2.67v2.85h2.67v8.34zm13.702 4.26l-.6 1.5c-.48 1.26-.78 1.56-2.04 1.56h-2.28V100h3.48c2.25 0 2.91-1.11 3.87-3.6l6.96-17.76h-3.45l-4.17 11.67-4.29-11.67h-3.45l5.97 15.45z" fill="#000"/></svg>