<svg width="448" height="83" viewBox="0 0 448 83" fill="none" xmlns="http://www.w3.org/2000/svg"><path d="M2.496 28h4.329V7.915L15.015 28h3.783l8.19-20.085V28h4.329V.7h-5.694l-8.58 21.489L8.307.7H2.496V28zm51.643-3.666c-.858 0-1.287-.273-1.287-1.287v-7.995c0-4.719-3.042-7.254-8.346-7.254-5.03 0-8.385 2.418-8.814 6.318h4.134c.312-1.755 1.99-2.925 4.485-2.925 2.77 0 4.368 1.365 4.368 3.588v1.209h-5.03c-5.578 0-8.542 2.301-8.542 6.396 0 3.705 3.042 5.85 7.41 5.85 3.237 0 5.265-1.404 6.591-3.432 0 1.989.936 3.198 3.666 3.198h2.223v-3.666h-.858zm-5.46-4.524c-.039 3.081-2.067 5.148-5.577 5.148-2.3 0-3.705-1.17-3.705-2.847 0-2.028 1.443-3.003 4.056-3.003h5.226v.702zm7.755 1.599c.117 4.329 3.783 6.825 9.126 6.825 4.836 0 8.463-2.418 8.463-6.24 0-4.446-3.705-5.382-8.268-5.928-2.886-.312-4.797-.546-4.797-2.418 0-1.599 1.638-2.613 4.134-2.613 2.496 0 4.212 1.287 4.446 3.12h4.134c-.273-4.095-3.744-6.357-8.658-6.357-4.797-.039-8.19 2.418-8.19 6.201 0 4.134 3.588 5.109 8.15 5.655 3.082.39 4.915.546 4.915 2.691 0 1.599-1.716 2.613-4.33 2.613-3.041 0-4.835-1.482-4.991-3.549h-4.134zm22.296 1.17c0 3.627 1.638 5.421 5.46 5.421h3.9v-3.705h-2.964c-1.6 0-2.145-.585-2.145-2.145V11.737h4.875V8.032H82.98V2.455H78.73v5.577h-3.471v3.705h3.47v10.842zm21.097 5.655c4.953 0 8.307-3.003 9.009-6.942h-4.212c-.585 2.223-2.457 3.51-5.03 3.51-3.316 0-5.46-2.223-5.578-5.616v-.273h15.054c.078-.546.117-1.092.117-1.599-.117-5.85-3.978-9.516-9.75-9.516-5.889 0-9.828 4.095-9.828 10.257 0 6.123 3.94 10.179 10.218 10.179zm-5.655-12.402c.312-2.847 2.613-4.641 5.304-4.641 2.925 0 4.992 1.677 5.343 4.641H94.172zm28.521-7.8c-3.276 0-4.875 1.326-5.889 3.003l-.468-3.003h-3.744V28h4.212V17.977c0-3.081 1.209-6.006 4.953-6.006h1.872V8.032h-.936zm14.956 14.547c0 3.627 1.638 5.421 5.46 5.421h3.9v-3.705h-2.964c-1.599 0-2.145-.585-2.145-2.145V11.737h4.875V8.032H141.9V2.455h-4.251v5.577h-3.471v3.705h3.471v10.842zm22.53-14.781c-3.12 0-5.031 1.404-6.279 3.12V.7h-4.212V28h4.212V17.899c0-4.017 2.028-6.474 5.343-6.474 3.12 0 4.797 2.028 4.797 5.811V28h4.212V16.885c0-6.669-3.627-9.087-8.073-9.087zm21.228 20.436c4.953 0 8.307-3.003 9.009-6.942h-4.212c-.585 2.223-2.457 3.51-5.031 3.51-3.315 0-5.46-2.223-5.577-5.616v-.273h15.054c.078-.546.117-1.092.117-1.599-.117-5.85-3.978-9.516-9.75-9.516-5.889 0-9.828 4.095-9.828 10.257 0 6.123 3.939 10.179 10.218 10.179zm-5.655-12.402c.312-2.847 2.613-4.641 5.304-4.641 2.925 0 4.992 1.677 5.343 4.641h-10.647zm51.37-8.034c-3.276 0-5.538 1.443-6.825 3.627-1.209-2.574-3.549-3.627-6.162-3.627-3.003.039-4.719 1.365-5.85 2.847l-.468-2.613h-3.666V28h4.212V17.314c0-3.549 1.794-5.889 4.68-5.889 2.769 0 4.212 1.833 4.212 5.343V28h4.251V17.197c0-3.588 1.833-5.772 4.719-5.772 2.73 0 4.173 1.833 4.173 5.343V28h4.212V16.495c0-6.318-3.354-8.697-7.488-8.697zm29.558 16.536c-.858 0-1.287-.273-1.287-1.287v-7.995c0-4.719-3.042-7.254-8.346-7.254-5.031 0-8.385 2.418-8.814 6.318h4.134c.312-1.755 1.989-2.925 4.485-2.925 2.769 0 4.368 1.365 4.368 3.588v1.209h-5.031c-5.577 0-8.541 2.301-8.541 6.396 0 3.705 3.042 5.85 7.41 5.85 3.237 0 5.265-1.404 6.591-3.432 0 1.989.936 3.198 3.666 3.198h2.223v-3.666h-.858zm-5.46-4.524c-.039 3.081-2.067 5.148-5.577 5.148-2.301 0-3.705-1.17-3.705-2.847 0-2.028 1.443-3.003 4.056-3.003h5.226v.702zm18.714-11.778c-3.276 0-4.875 1.326-5.889 3.003l-.468-3.003h-3.744V28h4.212V17.977c0-3.081 1.209-6.006 4.953-6.006h1.872V8.032h-.936zM273.467 28h4.212v-5.07l3.588-3.744L287.156 28h4.992l-7.995-11.895 7.527-8.073h-4.953l-9.048 9.672V.7h-4.212V28zm28.939.234c4.953 0 8.307-3.003 9.009-6.942h-4.212c-.585 2.223-2.457 3.51-5.031 3.51-3.315 0-5.46-2.223-5.577-5.616v-.273h15.054c.078-.546.117-1.092.117-1.599-.117-5.85-3.978-9.516-9.75-9.516-5.889 0-9.828 4.095-9.828 10.257 0 6.123 3.939 10.179 10.218 10.179zm-5.655-12.402c.312-2.847 2.613-4.641 5.304-4.641 2.925 0 4.992 1.677 5.343 4.641h-10.647zm19.711 6.747c0 3.627 1.638 5.421 5.46 5.421h3.9v-3.705h-2.964c-1.599 0-2.145-.585-2.145-2.145V11.737h4.875V8.032h-4.875V2.455h-4.251v5.577h-3.471v3.705h3.471v10.842zm19.99-10.842h3.471V28h4.251V11.737h5.343V8.032h-5.421V6.355c0-1.365.585-1.95 1.95-1.95h3.471V.7H345.5c-3.861 0-5.577 1.872-5.577 5.46v1.872h-3.471v3.705zm23.844 16.497c6.084 0 10.179-4.095 10.179-10.218 0-6.084-4.095-10.218-10.179-10.218-6.084 0-10.179 4.134-10.179 10.218 0 6.123 4.095 10.218 10.179 10.218zm0-3.588c-3.549 0-5.85-2.769-5.85-6.63 0-3.861 2.301-6.63 5.85-6.63 3.549 0 5.889 2.769 5.889 6.63 0 3.861-2.34 6.63-5.889 6.63zm23.667-16.614c-3.276 0-4.875 1.326-5.889 3.003l-.468-3.003h-3.744V28h4.212V17.977c0-3.081 1.209-6.006 4.953-6.006h1.872V8.032h-.936zm11.747 20.202c5.109 0 8.502-2.847 9.282-7.371h-4.446c-.507 2.301-2.223 3.783-4.797 3.783-3.393 0-5.616-2.691-5.616-6.591 0-3.939 2.223-6.669 5.616-6.669 2.613 0 4.29 1.443 4.836 3.783h4.407c-.819-4.524-4.017-7.371-9.165-7.371-6.045 0-10.023 4.095-10.023 10.257 0 6.24 3.861 10.179 9.906 10.179zm21.982 0c4.953 0 8.307-3.003 9.009-6.942h-4.212c-.585 2.223-2.457 3.51-5.031 3.51-3.315 0-5.46-2.223-5.577-5.616v-.273h15.054c.078-.546.117-1.092.117-1.599-.117-5.85-3.978-9.516-9.75-9.516-5.889 0-9.828 4.095-9.828 10.257 0 6.123 3.939 10.179 10.218 10.179zm-5.655-12.402c.312-2.847 2.613-4.641 5.304-4.641 2.925 0 4.992 1.677 5.343 4.641h-10.647zm17.448 5.577c.117 4.329 3.783 6.825 9.126 6.825 4.836 0 8.463-2.418 8.463-6.24 0-4.446-3.705-5.382-8.268-5.928-2.886-.312-4.797-.546-4.797-2.418 0-1.599 1.638-2.613 4.134-2.613 2.496 0 4.212 1.287 4.446 3.12h4.134c-.273-4.095-3.744-6.357-8.658-6.357-4.797-.039-8.19 2.418-8.19 6.201 0 4.134 3.588 5.109 8.151 5.655 3.081.39 4.914.546 4.914 2.691 0 1.599-1.716 2.613-4.329 2.613-3.042 0-4.836-1.482-4.992-3.549h-4.134zM6.669 75h4.563L15.6 61.428 19.812 75h4.524l6.63-19.968h-4.29L21.957 70.32l-4.368-15.288h-3.861L9.165 70.32 4.602 55.032H.156L6.669 75zm28.66-22.776c1.442 0 2.573-1.053 2.573-2.535 0-1.482-1.13-2.535-2.574-2.535-1.443 0-2.574 1.053-2.574 2.535 0 1.482 1.131 2.535 2.574 2.535zM33.182 75h4.212V55.032h-4.212V75zm9.784-5.421c0 3.627 1.638 5.421 5.46 5.421h3.9v-3.705h-2.964c-1.599 0-2.145-.585-2.145-2.145V58.737h4.875v-3.705h-4.875v-5.577h-4.251v5.577h-3.471v3.705h3.471v10.842zm22.53-14.781c-3.12 0-5.03 1.404-6.279 3.12V47.7h-4.212V75h4.212V64.899c0-4.017 2.028-6.474 5.343-6.474 3.12 0 4.797 2.028 4.797 5.811V75h4.212V63.885c0-6.669-3.626-9.087-8.072-9.087zm34.168 20.436c6.357 0 10.998-3.744 11.856-9.516h-4.641c-.858 3.471-3.471 5.577-7.254 5.577-5.148 0-8.269-4.134-8.269-9.945 0-5.85 3.198-9.945 8.386-9.945 3.705 0 6.279 2.145 7.176 5.577h4.641c-.897-5.772-5.382-9.516-11.623-9.516-8.072 0-13.181 5.577-13.181 13.884 0 8.385 4.953 13.884 12.909 13.884zm17.281-23.01c1.443 0 2.574-1.053 2.574-2.535 0-1.482-1.131-2.535-2.574-2.535-1.443 0-2.574 1.053-2.574 2.535 0 1.482 1.131 2.535 2.574 2.535zM114.801 75h4.212V55.032h-4.212V75zm9.784-5.421c0 3.627 1.638 5.421 5.46 5.421h3.9v-3.705h-2.964c-1.599 0-2.145-.585-2.145-2.145V58.737h4.875v-3.705h-4.875v-5.577h-4.251v5.577h-3.471v3.705h3.471v10.842zm17.812 5.538l-.78 1.95c-.624 1.638-1.014 2.028-2.652 2.028h-2.964V82.8h4.524c2.925 0 3.783-1.443 5.031-4.68l9.048-23.088h-4.485l-5.421 15.171-5.577-15.171h-4.485l7.761 20.085zM167.142 75h4.485V47.7h-4.485V75zm19.584-20.202c-3.237 0-5.148 1.287-6.396 2.847l-.468-2.613h-3.666V75h4.212V64.938c0-4.056 1.989-6.513 5.343-6.513 3.159 0 4.758 2.028 4.758 5.811V75h4.251V63.885c0-6.669-3.627-9.087-8.034-9.087zm26.883 3.003c-1.287-1.755-3.432-3.003-6.474-3.003-5.421 0-9.438 4.056-9.438 10.218 0 6.396 4.017 10.218 9.438 10.218 3.159 0 5.226-1.482 6.513-3.237l.507 3.003h3.666V47.7h-4.212v10.101zm-5.772 13.884c-3.51 0-5.811-2.73-5.811-6.669 0-3.9 2.301-6.63 5.811-6.63s5.811 2.73 5.811 6.708c0 3.861-2.301 6.591-5.811 6.591zm23.577 3.549c4.953 0 8.307-3.003 9.009-6.942h-4.212c-.585 2.223-2.457 3.51-5.031 3.51-3.315 0-5.46-2.223-5.577-5.616v-.273h15.054c.078-.546.117-1.092.117-1.599-.117-5.85-3.978-9.516-9.75-9.516-5.889 0-9.828 4.095-9.828 10.257 0 6.123 3.939 10.179 10.218 10.179zm-5.655-12.402c.312-2.847 2.613-4.641 5.304-4.641 2.925 0 4.992 1.677 5.343 4.641h-10.647zM241.198 75h4.641l5.265-7.254L256.33 75h4.914l-7.527-10.218 7.098-9.75h-4.641l-4.875 6.747-4.758-6.747h-4.914l7.059 9.75L241.198 75z" fill="#000"/></svg>