<svg width="400" height="33" viewBox="0 0 400 33" fill="none" xmlns="http://www.w3.org/2000/svg"><path d="M11.512 25.204c5.542 0 9.588-3.264 10.336-8.296h-4.046c-.748 3.026-3.026 4.862-6.324 4.862-4.488 0-7.208-3.604-7.208-8.67 0-5.1 2.788-8.67 7.31-8.67 3.23 0 5.474 1.87 6.256 4.862h4.046C21.1 4.26 17.19.996 11.75.996 4.712.996.258 5.858.258 13.1c0 7.31 4.318 12.104 11.254 12.104zM33.854 7.388c-2.72 0-4.386 1.224-5.474 2.72V1.2h-3.672V25h3.672v-8.806c0-3.502 1.768-5.644 4.658-5.644 2.72 0 4.182 1.768 4.182 5.066V25h3.672v-9.69c0-5.814-3.162-7.922-7.038-7.922zm18.473 17.816c5.304 0 8.874-3.57 8.874-8.908 0-5.304-3.57-8.908-8.874-8.908s-8.874 3.604-8.874 8.908c0 5.338 3.57 8.908 8.874 8.908zm0-3.128c-3.094 0-5.1-2.414-5.1-5.78s2.006-5.78 5.1-5.78 5.134 2.414 5.134 5.78-2.04 5.78-5.134 5.78zm20.055 3.128c5.304 0 8.874-3.57 8.874-8.908 0-5.304-3.57-8.908-8.874-8.908s-8.874 3.604-8.874 8.908c0 5.338 3.57 8.908 8.874 8.908zm0-3.128c-3.094 0-5.1-2.414-5.1-5.78s2.006-5.78 5.1-5.78 5.134 2.414 5.134 5.78-2.04 5.78-5.134 5.78zm10.979-2.822c.102 3.774 3.298 5.95 7.956 5.95 4.216 0 7.378-2.108 7.378-5.44 0-3.876-3.23-4.692-7.208-5.168-2.516-.272-4.182-.476-4.182-2.108 0-1.394 1.428-2.278 3.604-2.278s3.672 1.122 3.876 2.72h3.604c-.238-3.57-3.264-5.542-7.548-5.542-4.182-.034-7.14 2.108-7.14 5.406 0 3.604 3.128 4.454 7.106 4.93 2.686.34 4.284.476 4.284 2.346 0 1.394-1.496 2.278-3.774 2.278-2.652 0-4.216-1.292-4.352-3.094H83.36zm26.441 5.95c4.318 0 7.242-2.618 7.854-6.052h-3.672c-.51 1.938-2.142 3.06-4.386 3.06-2.89 0-4.76-1.938-4.862-4.896v-.238h13.124c.068-.476.102-.952.102-1.394-.102-5.1-3.468-8.296-8.5-8.296-5.134 0-8.568 3.57-8.568 8.942 0 5.338 3.434 8.874 8.908 8.874zm-4.93-10.812c.272-2.482 2.278-4.046 4.624-4.046 2.55 0 4.352 1.462 4.658 4.046h-9.282zm26.016 5.882c0 3.162 1.428 4.726 4.76 4.726h3.4v-3.23h-2.584c-1.394 0-1.87-.51-1.87-1.87v-9.078h4.25v-3.23h-4.25V2.73h-3.706v4.862h-3.026v3.23h3.026v9.452zM150.53 7.388c-2.72 0-4.386 1.224-5.474 2.72V1.2h-3.672V25h3.672v-8.806c0-3.502 1.768-5.644 4.658-5.644 2.72 0 4.182 1.768 4.182 5.066V25h3.672v-9.69c0-5.814-3.162-7.922-7.038-7.922zm18.507 17.816c4.318 0 7.242-2.618 7.854-6.052h-3.672c-.51 1.938-2.142 3.06-4.386 3.06-2.89 0-4.76-1.938-4.862-4.896v-.238h13.124c.068-.476.102-.952.102-1.394-.102-5.1-3.468-8.296-8.5-8.296-5.134 0-8.568 3.57-8.568 8.942 0 5.338 3.434 8.874 8.908 8.874zm-4.93-10.812c.272-2.482 2.278-4.046 4.624-4.046 2.55 0 4.352 1.462 4.658 4.046h-9.282zm38.052-4.08c-1.122-1.734-2.992-2.924-5.712-2.924-4.726 0-8.228 3.502-8.228 8.84 0 5.542 3.502 8.84 8.228 8.84 2.72 0 4.522-1.122 5.678-2.856v1.938c0 3.332-1.802 4.862-4.998 4.862-2.584 0-4.284-1.122-4.726-3.06h-3.74c.34 3.91 3.57 6.052 8.194 6.052 6.256 0 8.908-2.992 8.908-7.718V7.592h-3.196l-.408 2.72zm-5.101 11.662c-3.059 0-5.065-2.346-5.065-5.746 0-3.366 2.006-5.746 5.065-5.746 3.061 0 5.067 2.38 5.067 5.814 0 3.332-2.006 5.678-5.067 5.678zm20.521 3.23c5.304 0 8.874-3.57 8.874-8.908 0-5.304-3.57-8.908-8.874-8.908s-8.874 3.604-8.874 8.908c0 5.338 3.57 8.908 8.874 8.908zm0-3.128c-3.094 0-5.1-2.414-5.1-5.78s2.006-5.78 5.1-5.78 5.134 2.414 5.134 5.78-2.04 5.78-5.134 5.78zM229.406 25h3.672V1.2h-3.672V25zm20.497-14.994c-1.122-1.53-2.992-2.618-5.644-2.618-4.726 0-8.228 3.536-8.228 8.908 0 5.576 3.502 8.908 8.228 8.908 2.754 0 4.556-1.292 5.678-2.822l.442 2.618h3.196V1.2h-3.672v8.806zm-5.032 12.104c-3.06 0-5.066-2.38-5.066-5.814 0-3.4 2.006-5.78 5.066-5.78s5.066 2.38 5.066 5.848c0 3.366-2.006 5.746-5.066 5.746zm20.244-2.856c.102 3.774 3.298 5.95 7.956 5.95 4.216 0 7.378-2.108 7.378-5.44 0-3.876-3.23-4.692-7.208-5.168-2.516-.272-4.182-.476-4.182-2.108 0-1.394 1.428-2.278 3.604-2.278s3.672 1.122 3.876 2.72h3.604c-.238-3.57-3.264-5.542-7.548-5.542-4.182-.034-7.14 2.108-7.14 5.406 0 3.604 3.128 4.454 7.106 4.93 2.686.34 4.284.476 4.284 2.346 0 1.394-1.496 2.278-3.774 2.278-2.652 0-4.216-1.292-4.352-3.094h-3.604zm19.437 1.02c0 3.162 1.428 4.726 4.76 4.726h3.4v-3.23h-2.584c-1.394 0-1.87-.51-1.87-1.87v-9.078h4.25v-3.23h-4.25V2.73h-3.706v4.862h-3.026v3.23h3.026v9.452zm26.209 1.53c-.748 0-1.122-.238-1.122-1.122v-6.97c0-4.114-2.652-6.324-7.276-6.324-4.386 0-7.31 2.108-7.684 5.508h3.604c.272-1.53 1.734-2.55 3.91-2.55 2.414 0 3.808 1.19 3.808 3.128v1.054h-4.386c-4.862 0-7.446 2.006-7.446 5.576 0 3.23 2.652 5.1 6.46 5.1 2.822 0 4.59-1.224 5.746-2.992 0 1.734.816 2.788 3.196 2.788h1.938v-3.196h-.748zm-4.76-3.944c-.034 2.686-1.802 4.488-4.862 4.488-2.006 0-3.23-1.02-3.23-2.482 0-1.768 1.258-2.618 3.536-2.618h4.556v.612zm16.688-10.472c-2.822 0-4.488 1.122-5.576 2.482l-.408-2.278h-3.196V25h3.672v-8.772c0-3.536 1.734-5.678 4.658-5.678 2.754 0 4.148 1.768 4.148 5.066V25h3.706v-9.69c0-5.814-3.162-7.922-7.004-7.922zm23.437 2.618c-1.122-1.53-2.992-2.618-5.644-2.618-4.726 0-8.228 3.536-8.228 8.908 0 5.576 3.502 8.908 8.228 8.908 2.754 0 4.556-1.292 5.678-2.822l.442 2.618h3.196V1.2h-3.672v8.806zm-5.032 12.104c-3.06 0-5.066-2.38-5.066-5.814 0-3.4 2.006-5.78 5.066-5.78s5.066 2.38 5.066 5.848c0 3.366-2.006 5.746-5.066 5.746zm28.204-.306c-.748 0-1.122-.238-1.122-1.122v-6.97c0-4.114-2.652-6.324-7.276-6.324-4.386 0-7.31 2.108-7.684 5.508h3.604c.272-1.53 1.734-2.55 3.91-2.55 2.414 0 3.808 1.19 3.808 3.128v1.054h-4.386c-4.862 0-7.446 2.006-7.446 5.576 0 3.23 2.652 5.1 6.46 5.1 2.822 0 4.59-1.224 5.746-2.992 0 1.734.816 2.788 3.196 2.788h1.938v-3.196h-.748zm-4.76-3.944c-.034 2.686-1.802 4.488-4.862 4.488-2.006 0-3.23-1.02-3.23-2.482 0-1.768 1.258-2.618 3.536-2.618h4.556v.612zm16.314-10.268c-2.856 0-4.25 1.156-5.134 2.618l-.408-2.618h-3.264V25h3.672v-8.738c0-2.686 1.054-5.236 4.318-5.236h1.632V7.592h-.816zm15.477 2.414c-1.122-1.53-2.992-2.618-5.644-2.618-4.726 0-8.228 3.536-8.228 8.908 0 5.576 3.502 8.908 8.228 8.908 2.754 0 4.556-1.292 5.678-2.822l.442 2.618h3.196V1.2h-3.672v8.806zm-5.032 12.104c-3.06 0-5.066-2.38-5.066-5.814 0-3.4 2.006-5.78 5.066-5.78s5.066 2.38 5.066 5.848c0 3.366-2.006 5.746-5.066 5.746z" fill="#000"/></svg>