<svg width="137" height="34" viewBox="0 0 137 34" fill="none" xmlns="http://www.w3.org/2000/svg"><rect y=".5" width="137" height="33" rx="16.5" fill="#000"/><path d="M31.815 12.741h3.573V22.5h1.37v-9.759h3.572v-1.259h-8.515v1.26zm12.628 1.732c-1.433 0-2.047.598-2.424 1.212l-.174-1.212h-1.117V22.5h1.29v-4.092c0-1.275.457-2.676 2.141-2.676h.645v-1.26h-.361zm8.302 6.847c-.362 0-.52-.11-.52-.536v-3.51c0-1.873-1.18-2.896-3.226-2.896-1.936 0-3.21.929-3.4 2.503h1.291c.157-.819.913-1.354 2.046-1.354 1.26 0 2 .63 2 1.669v.55h-2.362c-2.109 0-3.227.898-3.227 2.503 0 1.464 1.197 2.345 2.96 2.345 1.385 0 2.187-.613 2.691-1.337.016.787.378 1.243 1.448 1.243h.708v-1.18h-.409zm-1.81-2.094c0 1.338-.928 2.267-2.534 2.267-1.07 0-1.747-.535-1.747-1.322 0-.913.645-1.338 1.794-1.338h2.487v.393zm9.447-3.526c-.488-.77-1.401-1.322-2.755-1.322-2.219 0-3.856 1.653-3.856 4.108 0 2.613 1.637 4.108 3.856 4.108 1.354 0 2.22-.645 2.755-1.385l.173 1.291h1.117V11.482h-1.29V15.7zm-2.629 5.745c-1.59 0-2.66-1.212-2.66-2.959s1.07-2.959 2.66-2.959c1.574 0 2.645 1.228 2.645 2.99 0 1.716-1.07 2.928-2.645 2.928zm9.377 1.15c1.857 0 3.179-1.181 3.494-2.787h-1.307c-.267 1.04-1.149 1.637-2.282 1.637-1.527 0-2.487-1.07-2.534-2.597v-.11h6.233c.016-.189.032-.378.032-.55-.064-2.377-1.543-3.81-3.81-3.81-2.266 0-3.809 1.669-3.809 4.108 0 2.456 1.574 4.108 3.983 4.108zm-2.55-4.927c.126-1.306 1.212-2.156 2.392-2.156 1.338 0 2.282.77 2.408 2.156h-4.8zm15.713-3.29c-1.354 0-2.172.567-2.645 1.18l-.173-1.085h-1.117V22.5h1.29v-4.014c0-1.81.913-2.927 2.424-2.927 1.401 0 2.172.881 2.172 2.55V22.5h1.291v-4.47c0-2.66-1.432-3.652-3.242-3.652zm8.494 8.216c2.345 0 3.982-1.668 3.982-4.108 0-2.44-1.637-4.108-3.982-4.108s-3.982 1.669-3.982 4.108c0 2.44 1.637 4.108 3.982 4.108zm0-1.149c-1.59 0-2.66-1.243-2.66-2.959 0-1.715 1.07-2.959 2.66-2.959s2.66 1.244 2.66 2.96c0 1.715-1.07 2.958-2.66 2.958zM95.83 22.5h1.416l2.015-5.965 1.936 5.965h1.417l2.675-8.027h-1.306l-2.093 6.532-2-6.532h-1.196l-2.109 6.532-1.999-6.532h-1.353L95.83 22.5z" fill="#fff"/></svg>