<svg width="261" height="54" viewBox="0 0 261 54" fill="none" xmlns="http://www.w3.org/2000/svg"><path d="M5.46 19h3.51l3.666-13.39L16.354 19h3.484L25.064.8h-3.068l-3.9 14.404L14.144.8H11.31L7.254 15.204 3.38.774.286.8 5.46 19zM28.122 3.816c.962 0 1.716-.702 1.716-1.69s-.754-1.69-1.716-1.69-1.715.702-1.715 1.69.753 1.69 1.715 1.69zM26.692 19H29.5V5.688h-2.808V19zm5.561 0h2.808V.8h-2.808V19zm5.56 0h2.808V.8h-2.808V19zm20.403.156c4.238 0 7.332-2.496 7.904-6.344h-3.094c-.572 2.314-2.314 3.718-4.836 3.718-3.432 0-5.512-2.756-5.512-6.63 0-3.9 2.132-6.63 5.59-6.63 2.47 0 4.186 1.43 4.784 3.718h3.094C65.548 3.14 62.558.644 58.398.644c-5.382 0-8.788 3.718-8.788 9.256 0 5.59 3.302 9.256 8.606 9.256zM75.302 5.532c-2.08 0-3.354.936-4.186 2.08V.8h-2.808V19h2.808v-6.734c0-2.678 1.352-4.316 3.562-4.316 2.08 0 3.198 1.352 3.198 3.874V19h2.808v-7.41c0-4.446-2.418-6.058-5.382-6.058zm9.365-1.716c.962 0 1.716-.702 1.716-1.69S85.63.436 84.667.436s-1.716.702-1.716 1.69.754 1.69 1.716 1.69zM83.237 19h2.808V5.688h-2.808V19zm12.58-13.468c-2.157 0-3.431.858-4.263 1.898l-.312-1.742h-2.444V19h2.808v-6.708c0-2.704 1.326-4.342 3.562-4.342 2.106 0 3.172 1.352 3.172 3.874V19h2.834v-7.41c0-4.446-2.418-6.058-5.356-6.058zm20.079 11.024c-.572 0-.858-.182-.858-.858v-5.33c0-3.146-2.028-4.836-5.564-4.836-3.354 0-5.59 1.612-5.876 4.212h2.756c.208-1.17 1.326-1.95 2.99-1.95 1.846 0 2.912.91 2.912 2.392v.806h-3.354c-3.718 0-5.694 1.534-5.694 4.264 0 2.47 2.028 3.9 4.94 3.9 2.158 0 3.51-.936 4.394-2.288 0 1.326.624 2.132 2.444 2.132h1.482v-2.444h-.572zm-3.64-3.016c-.026 2.054-1.378 3.432-3.718 3.432-1.534 0-2.47-.78-2.47-1.898 0-1.352.962-2.002 2.704-2.002h3.484v.468zM118.662.644c-1.196 0-1.976.78-1.976 1.768 0 1.092.676 1.664 1.534 1.664.312 0 .624-.104.858-.286.026.13.026.234.026.364 0 .91-.65 1.924-2.288 1.924v1.534c2.574-.026 4.186-1.456 4.186-3.978 0-1.69-.91-2.99-2.34-2.99zm3.511 13.962c.078 2.886 2.522 4.55 6.084 4.55 3.224 0 5.642-1.612 5.642-4.16 0-2.964-2.47-3.588-5.512-3.952-1.924-.208-3.198-.364-3.198-1.612 0-1.066 1.092-1.742 2.756-1.742 1.664 0 2.808.858 2.964 2.08h2.756c-.182-2.73-2.496-4.238-5.772-4.238-3.198-.026-5.46 1.612-5.46 4.134 0 2.756 2.392 3.406 5.434 3.77 2.054.26 3.276.364 3.276 1.794 0 1.066-1.144 1.742-2.886 1.742-2.028 0-3.224-.988-3.328-2.366h-2.756zm27.289-8.918c-2.184 0-3.25.884-3.926 2.002l-.312-2.002h-2.496V19h2.808v-6.682c0-2.054.806-4.004 3.302-4.004h1.248V5.688h-.624zm8.039 13.468c3.302 0 5.538-2.002 6.006-4.628h-2.808c-.39 1.482-1.638 2.34-3.354 2.34-2.21 0-3.64-1.482-3.718-3.744v-.182h10.036c.052-.364.078-.728.078-1.066-.078-3.9-2.652-6.344-6.5-6.344-3.926 0-6.552 2.73-6.552 6.838 0 4.082 2.626 6.786 6.812 6.786zm-3.77-8.268c.208-1.898 1.742-3.094 3.536-3.094 1.95 0 3.328 1.118 3.562 3.094h-7.098zm18.572 8.268c4.056 0 6.786-2.73 6.786-6.812 0-4.056-2.73-6.812-6.786-6.812-4.056 0-6.786 2.756-6.786 6.812 0 4.082 2.73 6.812 6.786 6.812zm0-2.392c-2.366 0-3.9-1.846-3.9-4.42s1.534-4.42 3.9-4.42c2.366 0 3.926 1.846 3.926 4.42s-1.56 4.42-3.926 4.42zm16.168-11.232c-2.08 0-3.458.962-4.342 2.132l-.338-1.976h-2.444V24.2h2.808v-7.072c.832 1.196 2.262 2.028 4.316 2.028 3.64 0 6.292-2.704 6.292-6.812 0-4.264-2.652-6.812-6.292-6.812zm-.468 11.258c-2.34 0-3.874-1.846-3.874-4.498 0-2.574 1.534-4.368 3.874-4.368s3.9 1.794 3.9 4.42c0 2.6-1.56 4.446-3.9 4.446zm15.328 2.366c3.302 0 5.538-2.002 6.006-4.628h-2.808c-.39 1.482-1.638 2.34-3.354 2.34-2.21 0-3.64-1.482-3.718-3.744v-.182h10.036c.052-.364.078-.728.078-1.066-.078-3.9-2.652-6.344-6.5-6.344-3.926 0-6.552 2.73-6.552 6.838 0 4.082 2.626 6.786 6.812 6.786zm-3.77-8.268c.208-1.898 1.742-3.094 3.536-3.094 1.95 0 3.328 1.118 3.562 3.094h-7.098zm19.3-5.356c-2.158 0-3.432.858-4.264 1.898l-.312-1.742h-2.444V19h2.808v-6.708c0-2.704 1.326-4.342 3.562-4.342 2.106 0 3.172 1.352 3.172 3.874V19h2.834v-7.41c0-4.446-2.418-6.058-5.356-6.058zm9.34-1.716c.962 0 1.716-.702 1.716-1.69s-.754-1.69-1.716-1.69-1.716.702-1.716 1.69.754 1.69 1.716 1.69zM226.771 19h2.808V5.688h-2.808V19zm12.58-13.468c-2.158 0-3.432.858-4.264 1.898l-.312-1.742h-2.444V19h2.808v-6.708c0-2.704 1.326-4.342 3.562-4.342 2.106 0 3.172 1.352 3.172 3.874V19h2.834v-7.41c0-4.446-2.418-6.058-5.356-6.058zm18.076 2.236c-.858-1.326-2.288-2.236-4.368-2.236-3.614 0-6.292 2.678-6.292 6.76 0 4.238 2.678 6.76 6.292 6.76 2.08 0 3.458-.858 4.342-2.184v1.482c0 2.548-1.378 3.718-3.822 3.718-1.976 0-3.276-.858-3.614-2.34h-2.86c.26 2.99 2.73 4.628 6.266 4.628 4.784 0 6.812-2.288 6.812-5.902V5.688h-2.444l-.312 2.08zm-3.9 8.918c-2.34 0-3.874-1.794-3.874-4.394 0-2.574 1.534-4.394 3.874-4.394s3.874 1.82 3.874 4.446c0 2.548-1.534 4.342-3.874 4.342zM8.502 34.532c-2.054 0-3.432.936-4.316 2.132V29.8H1.378V48h2.444l.338-1.924c.832 1.196 2.262 2.08 4.342 2.08 3.64 0 6.292-2.73 6.292-6.812 0-4.29-2.652-6.812-6.292-6.812zM8.034 45.79c-2.34 0-3.874-1.846-3.874-4.472 0-2.574 1.534-4.394 3.874-4.394s3.9 1.82 3.9 4.42c0 2.626-1.56 4.446-3.9 4.446zm15.302 2.366c4.056 0 6.786-2.73 6.786-6.812 0-4.056-2.73-6.812-6.786-6.812-4.056 0-6.786 2.756-6.786 6.812 0 4.082 2.73 6.812 6.786 6.812zm0-2.392c-2.366 0-3.9-1.846-3.9-4.42s1.534-4.42 3.9-4.42c2.366 0 3.926 1.846 3.926 4.42s-1.56 4.42-3.926 4.42zm15.336 2.392c4.056 0 6.786-2.73 6.786-6.812 0-4.056-2.73-6.812-6.786-6.812-4.056 0-6.786 2.756-6.786 6.812 0 4.082 2.73 6.812 6.786 6.812zm0-2.392c-2.366 0-3.9-1.846-3.9-4.42s1.534-4.42 3.9-4.42c2.366 0 3.926 1.846 3.926 4.42s-1.56 4.42-3.926 4.42zm8.396-2.158c.078 2.886 2.522 4.55 6.084 4.55 3.224 0 5.642-1.612 5.642-4.16 0-2.964-2.47-3.588-5.512-3.952-1.924-.208-3.198-.364-3.198-1.612 0-1.066 1.092-1.742 2.756-1.742 1.664 0 2.808.858 2.964 2.08h2.756c-.182-2.73-2.496-4.238-5.772-4.238-3.198-.026-5.46 1.612-5.46 4.134 0 2.756 2.392 3.406 5.434 3.77 2.054.26 3.276.364 3.276 1.794 0 1.066-1.144 1.742-2.886 1.742-2.028 0-3.224-.988-3.328-2.366h-2.756zm14.864.78c0 2.418 1.092 3.614 3.64 3.614h2.6v-2.47h-1.976c-1.066 0-1.43-.39-1.43-1.43v-6.942h3.25v-2.47h-3.25V30.97h-2.834v3.718h-2.314v2.47h2.314v7.228zM78.534 48l1.69-4.498h7.462L89.402 48H92.6l-6.786-18.2h-3.562L75.44 48h3.094zm5.408-14.976l2.912 7.93h-5.798l2.886-7.93zm17.363 1.508c-2.08 0-3.458.962-4.342 2.132l-.338-1.976H94.18V53.2h2.808v-7.072c.832 1.196 2.262 2.028 4.316 2.028 3.64 0 6.292-2.704 6.292-6.812 0-4.264-2.652-6.812-6.292-6.812zm-.468 11.258c-2.34 0-3.874-1.846-3.874-4.498 0-2.574 1.534-4.368 3.874-4.368s3.9 1.794 3.9 4.42c0 2.6-1.56 4.446-3.9 4.446zm16.134-11.258c-2.08 0-3.458.962-4.342 2.132l-.338-1.976h-2.444V53.2h2.808v-7.072c.832 1.196 2.262 2.028 4.316 2.028 3.64 0 6.292-2.704 6.292-6.812 0-4.264-2.652-6.812-6.292-6.812zm-.468 11.258c-2.34 0-3.874-1.846-3.874-4.498 0-2.574 1.534-4.368 3.874-4.368s3.9 1.794 3.9 4.42c0 2.6-1.56 4.446-3.9 4.446zm9.01 2.21h2.808V29.8h-2.808V48zm11.878.156c3.302 0 5.538-2.002 6.006-4.628h-2.808c-.39 1.482-1.638 2.34-3.354 2.34-2.21 0-3.64-1.482-3.718-3.744v-.182h10.036c.052-.364.078-.728.078-1.066-.078-3.9-2.652-6.344-6.5-6.344-3.926 0-6.552 2.73-6.552 6.838 0 4.082 2.626 6.786 6.812 6.786zm-3.77-8.268c.208-1.898 1.742-3.094 3.536-3.094 1.95 0 3.328 1.118 3.562 3.094h-7.098zm13.679-4.134c0-2.158 1.3-3.614 3.302-3.614 1.742 0 2.912 1.04 2.912 2.522 0 1.248-.676 2.08-1.846 2.86-1.56 1.014-2.782 1.872-2.782 3.978v.832h2.652v-.52c0-1.3.884-1.976 2.288-2.938 1.352-.962 2.6-2.106 2.6-4.498 0-2.73-2.236-4.732-5.85-4.732-3.874 0-6.136 2.73-6.136 6.11h2.86zm1.196 10.66c0 1.04.78 1.742 1.794 1.742s1.768-.702 1.768-1.742-.754-1.742-1.768-1.742-1.794.702-1.794 1.742z" fill="#000"/></svg>