<svg width="139" height="73" viewBox="0 0 139 73" fill="none" xmlns="http://www.w3.org/2000/svg"><path d="M.44 2.844h4.752V16h2.53V2.844h4.752V.6H.44v2.244zm18.283 1.892c-1.848 0-2.75.748-3.322 1.694l-.264-1.694h-2.112V16h2.376v-5.654c0-1.738.682-3.388 2.794-3.388h1.056V4.736h-.528zm11.946 9.196c-.484 0-.726-.154-.726-.726v-4.51c0-2.662-1.716-4.092-4.708-4.092-2.838 0-4.73 1.364-4.972 3.564h2.332c.176-.99 1.122-1.65 2.53-1.65 1.562 0 2.464.77 2.464 2.024v.682h-2.838c-3.146 0-4.818 1.298-4.818 3.608 0 2.09 1.716 3.3 4.18 3.3 1.826 0 2.97-.792 3.718-1.936 0 1.122.528 1.804 2.068 1.804h1.254v-2.068h-.484zm-3.08-2.552c-.022 1.738-1.166 2.904-3.146 2.904-1.298 0-2.09-.66-2.09-1.606 0-1.144.814-1.694 2.288-1.694h2.948v.396zm13.33-5.082c-.726-.99-1.936-1.694-3.652-1.694-3.058 0-5.324 2.288-5.324 5.764 0 3.608 2.266 5.764 5.324 5.764 1.782 0 2.948-.836 3.674-1.826L41.227 16h2.068V.6H40.92v5.698zm-3.256 7.832c-1.98 0-3.278-1.54-3.278-3.762 0-2.2 1.298-3.74 3.278-3.74s3.278 1.54 3.278 3.784c0 2.178-1.298 3.718-3.278 3.718zm13.3 2.002c2.794 0 4.686-1.694 5.082-3.916H53.67c-.33 1.254-1.386 1.98-2.838 1.98-1.87 0-3.08-1.254-3.146-3.168v-.154h8.492c.044-.308.066-.616.066-.902-.066-3.3-2.244-5.368-5.5-5.368-3.322 0-5.544 2.31-5.544 5.786 0 3.454 2.222 5.742 5.764 5.742zm-3.19-6.996c.176-1.606 1.474-2.618 2.992-2.618 1.65 0 2.816.946 3.014 2.618h-6.006zM4.62 42h2.97l3.102-11.33L13.838 42h2.948l4.422-15.4h-2.596l-3.3 12.188L11.968 26.6H9.57L6.138 38.788 2.86 26.578.242 26.6 4.62 42zm19.176-12.848c.814 0 1.452-.594 1.452-1.43s-.638-1.43-1.452-1.43-1.452.594-1.452 1.43.638 1.43 1.452 1.43zM22.586 42h2.376V30.736h-2.376V42zm5.519-3.058c0 2.046.924 3.058 3.08 3.058h2.2v-2.09h-1.672c-.902 0-1.21-.33-1.21-1.21v-5.874h2.75v-2.09h-2.75V27.59h-2.398v3.146h-1.958v2.09h1.958v6.116zm12.71-8.338c-1.76 0-2.838.792-3.542 1.76V26.6h-2.377V42h2.377v-5.698c0-2.266 1.143-3.652 3.013-3.652 1.76 0 2.706 1.144 2.706 3.278V42h2.377v-6.27c0-3.762-2.047-5.126-4.554-5.126zm11.952 11.528c3.432 0 5.742-2.31 5.742-5.764 0-3.432-2.31-5.764-5.742-5.764s-5.742 2.332-5.742 5.764c0 3.454 2.31 5.764 5.742 5.764zm0-2.024c-2.002 0-3.3-1.562-3.3-3.74s1.298-3.74 3.3-3.74 3.322 1.562 3.322 3.74-1.32 3.74-3.322 3.74zm15.375-3.74c0 2.332-1.1 3.696-2.904 3.696-1.738 0-2.618-1.122-2.618-3.322v-6.006h-2.376v6.27c0 3.85 2.046 5.126 4.444 5.126 1.738 0 2.772-.704 3.476-1.562l.264 1.43h2.09V30.736h-2.376v5.632zm5.596 2.574c0 2.046.924 3.058 3.08 3.058h2.2v-2.09h-1.672c-.902 0-1.21-.33-1.21-1.21v-5.874h2.75v-2.09h-2.75V27.59h-2.398v3.146H71.78v2.09h1.958v6.116zM.44 54.844h4.752V68h2.53V54.844h4.752V52.6H.44v2.244zm18.283 1.892c-1.848 0-2.75.748-3.322 1.694l-.264-1.694h-2.112V68h2.376v-5.654c0-1.738.682-3.388 2.794-3.388h1.056v-2.222h-.528zm11.946 9.196c-.484 0-.726-.154-.726-.726v-4.51c0-2.662-1.716-4.092-4.708-4.092-2.838 0-4.73 1.364-4.972 3.564h2.332c.176-.99 1.122-1.65 2.53-1.65 1.562 0 2.464.77 2.464 2.024v.682h-2.838c-3.146 0-4.818 1.298-4.818 3.608 0 2.09 1.716 3.3 4.18 3.3 1.826 0 2.97-.792 3.718-1.936 0 1.122.528 1.804 2.068 1.804h1.254v-2.068h-.484zm-3.08-2.552c-.022 1.738-1.166 2.904-3.146 2.904-1.298 0-2.09-.66-2.09-1.606 0-1.144.814-1.694 2.288-1.694h2.948v.396zm13.33-5.082c-.726-.99-1.936-1.694-3.652-1.694-3.058 0-5.324 2.288-5.324 5.764 0 3.608 2.266 5.764 5.324 5.764 1.782 0 2.948-.836 3.674-1.826L41.227 68h2.068V52.6H40.92v5.698zm-3.256 7.832c-1.98 0-3.278-1.54-3.278-3.762 0-2.2 1.298-3.74 3.278-3.74s3.278 1.54 3.278 3.784c0 2.178-1.298 3.718-3.278 3.718zm9.164-10.978c.814 0 1.452-.594 1.452-1.43s-.638-1.43-1.452-1.43-1.452.594-1.452 1.43.638 1.43 1.452 1.43zM45.617 68h2.376V56.736h-2.376V68zm10.645-11.396c-1.826 0-2.904.726-3.608 1.606l-.264-1.474h-2.068V68h2.376v-5.676c0-2.288 1.122-3.674 3.014-3.674 1.782 0 2.684 1.144 2.684 3.278V68h2.398v-6.27c0-3.762-2.046-5.126-4.532-5.126zm15.295 1.892c-.726-1.122-1.936-1.892-3.696-1.892-3.058 0-5.324 2.266-5.324 5.72 0 3.586 2.266 5.72 5.324 5.72 1.76 0 2.926-.726 3.674-1.848v1.254c0 2.156-1.166 3.146-3.234 3.146-1.672 0-2.772-.726-3.058-1.98h-2.42c.22 2.53 2.31 3.916 5.302 3.916 4.048 0 5.764-1.936 5.764-4.994V56.736h-2.068l-.264 1.76zm-3.3 7.546c-1.98 0-3.278-1.518-3.278-3.718 0-2.178 1.298-3.718 3.278-3.718s3.278 1.54 3.278 3.762c0 2.156-1.298 3.674-3.278 3.674zm20.513 2.09c3.586 0 6.204-2.112 6.688-5.368H92.84c-.484 1.958-1.958 3.146-4.092 3.146-2.904 0-4.664-2.332-4.664-5.61 0-3.3 1.804-5.61 4.73-5.61 2.09 0 3.542 1.21 4.048 3.146h2.618c-.506-3.256-3.036-5.368-6.556-5.368-4.554 0-7.436 3.146-7.436 7.832 0 4.73 2.794 7.832 7.282 7.832zm13.863 0c3.432 0 5.742-2.31 5.742-5.764 0-3.432-2.31-5.764-5.742-5.764s-5.742 2.332-5.742 5.764c0 3.454 2.31 5.764 5.742 5.764zm0-2.024c-2.002 0-3.3-1.562-3.3-3.74s1.298-3.74 3.3-3.74 3.322 1.562 3.322 3.74-1.32 3.74-3.322 3.74zm7.104-1.826c.066 2.442 2.134 3.85 5.148 3.85 2.728 0 4.774-1.364 4.774-3.52 0-2.508-2.09-3.036-4.664-3.344-1.628-.176-2.706-.308-2.706-1.364 0-.902.924-1.474 2.332-1.474s2.376.726 2.508 1.76h2.332c-.154-2.31-2.112-3.586-4.884-3.586-2.706-.022-4.62 1.364-4.62 3.498 0 2.332 2.024 2.882 4.598 3.19 1.738.22 2.772.308 2.772 1.518 0 .902-.968 1.474-2.442 1.474-1.716 0-2.728-.836-2.816-2.002h-2.332zm12.577.66c0 2.046.924 3.058 3.08 3.058h2.2v-2.09h-1.672c-.902 0-1.21-.33-1.21-1.21v-5.874h2.75v-2.09h-2.75V53.59h-2.398v3.146h-1.958v2.09h1.958v6.116zm6.307-.66c.066 2.442 2.134 3.85 5.148 3.85 2.728 0 4.774-1.364 4.774-3.52 0-2.508-2.09-3.036-4.664-3.344-1.628-.176-2.706-.308-2.706-1.364 0-.902.924-1.474 2.332-1.474s2.376.726 2.508 1.76h2.332c-.154-2.31-2.112-3.586-4.884-3.586-2.706-.022-4.62 1.364-4.62 3.498 0 2.332 2.024 2.882 4.598 3.19 1.738.22 2.772.308 2.772 1.518 0 .902-.968 1.474-2.442 1.474-1.716 0-2.728-.836-2.816-2.002h-2.332z" fill="#000"/></svg>