<svg width="179" height="10" viewBox="0 0 179 10" fill="none" xmlns="http://www.w3.org/2000/svg"><path d="M.24 2.324h2.592V9.5h1.38V2.324h2.592V1.1H.24v1.224zm9.973 1.032c-1.008 0-1.5.408-1.812.924l-.144-.924H7.105V9.5H8.4V6.416c0-.948.372-1.848 1.524-1.848h.576V3.356h-.288zm6.516 5.016c-.264 0-.396-.084-.396-.396v-2.46c0-1.452-.936-2.232-2.568-2.232-1.548 0-2.58.744-2.712 1.944h1.272c.096-.54.612-.9 1.38-.9.852 0 1.344.42 1.344 1.104v.372H13.5c-1.716 0-2.628.708-2.628 1.968 0 1.14.936 1.8 2.28 1.8.996 0 1.62-.432 2.028-1.056 0 .612.288.984 1.128.984h.684V8.372h-.264zm-1.68-1.392c-.012.948-.636 1.584-1.716 1.584-.708 0-1.14-.36-1.14-.876 0-.624.444-.924 1.248-.924h1.608v.216zm7.27-2.772c-.395-.54-1.055-.924-1.991-.924-1.668 0-2.904 1.248-2.904 3.144 0 1.968 1.236 3.144 2.904 3.144.972 0 1.608-.456 2.004-.996l.156.924h1.128V1.1H22.32v3.108zM20.545 8.48c-1.08 0-1.788-.84-1.788-2.052 0-1.2.708-2.04 1.788-2.04s1.788.84 1.788 2.064c0 1.188-.708 2.028-1.788 2.028zm7.254 1.092c1.524 0 2.556-.924 2.772-2.136h-1.296c-.18.684-.756 1.08-1.548 1.08-1.02 0-1.68-.684-1.716-1.728v-.084h4.632a3.52 3.52 0 00.036-.492c-.036-1.8-1.224-2.928-3-2.928-1.812 0-3.024 1.26-3.024 3.156 0 1.884 1.212 3.132 3.144 3.132zm-1.74-3.816c.096-.876.804-1.428 1.632-1.428.9 0 1.536.516 1.644 1.428h-3.276zM39.2 5.132a1.892 1.892 0 001.452-1.872c0-1.308-1.128-2.232-2.928-2.232-1.788 0-2.916.924-2.916 2.232 0 1.02.672 1.692 1.44 1.884-.9.204-1.668.9-1.668 2.064 0 1.392 1.164 2.364 3.144 2.364 1.98 0 3.156-.972 3.156-2.364 0-1.188-.78-1.884-1.68-2.076zM37.724 2.06c.96 0 1.584.504 1.584 1.236 0 .744-.624 1.248-1.584 1.248-.948 0-1.572-.504-1.572-1.248 0-.732.624-1.236 1.572-1.236zm0 6.492c-1.056 0-1.788-.6-1.788-1.416s.732-1.404 1.788-1.404c1.068 0 1.8.588 1.8 1.404s-.732 1.416-1.8 1.416zm3.729-.996h4.284V9.5h1.308V7.556h1.272V6.404h-1.272V1.1h-1.56l-4.032 5.328v1.128zm4.284-5.004v3.852H42.82l2.916-3.852zm5.228 2.976h-1.908V6.62h1.908v2.028h1.188V6.62h1.92V5.528h-1.92V3.5h-1.188v2.028zM58.518 9.5h1.38V5.948h3.288V4.76h-3.288V2.324h3.984V1.1h-5.364v8.4zm5.81 0h1.56l2.064-3.228L70.004 9.5h1.644l-2.796-4.356L71.48 1.1h-1.56L68 4.088 66.116 1.1h-1.632l2.628 4.104L64.328 9.5zm11.3 0h1.38V6.452h1.931c1.752 0 2.904-1.056 2.904-2.676 0-1.632-1.152-2.676-2.904-2.676h-3.312v8.4zm3.203-7.2c.984 0 1.608.564 1.608 1.476 0 .9-.636 1.476-1.62 1.476h-1.812V2.3h1.824zm9.194 6.072c-.264 0-.396-.084-.396-.396v-2.46c0-1.452-.936-2.232-2.568-2.232-1.548 0-2.58.744-2.712 1.944h1.272c.096-.54.612-.9 1.38-.9.852 0 1.344.42 1.344 1.104v.372h-1.548c-1.716 0-2.628.708-2.628 1.968 0 1.14.936 1.8 2.28 1.8.996 0 1.62-.432 2.028-1.056 0 .612.288.984 1.128.984h.684V8.372h-.264zm-1.68-1.392c-.012.948-.636 1.584-1.716 1.584-.708 0-1.14-.36-1.14-.876 0-.624.444-.924 1.248-.924h1.608v.216zm3.31-4.488c.444 0 .792-.324.792-.78s-.348-.78-.792-.78c-.444 0-.792.324-.792.78s.348.78.792.78zm-.66 7.008h1.296V3.356h-1.296V9.5zm5.675-6.144c-1.008 0-1.5.408-1.812.924l-.144-.924h-1.152V9.5h1.296V6.416c0-.948.372-1.848 1.524-1.848h.576V3.356h-.288zm.718 4.116c.036 1.332 1.164 2.1 2.808 2.1 1.488 0 2.604-.744 2.604-1.92 0-1.368-1.14-1.656-2.544-1.824-.888-.096-1.476-.168-1.476-.744 0-.492.504-.804 1.272-.804s1.296.396 1.368.96h1.272c-.084-1.26-1.152-1.956-2.664-1.956-1.476-.012-2.52.744-2.52 1.908 0 1.272 1.104 1.572 2.508 1.74.948.12 1.512.168 1.512.828 0 .492-.528.804-1.332.804-.936 0-1.488-.456-1.536-1.092h-1.272zM106.29 9.5h1.404l1.344-4.176 1.296 4.176h1.392l2.04-6.144h-1.32l-1.452 4.704-1.344-4.704h-1.188l-1.404 4.704-1.404-4.704h-1.368L106.29 9.5zm8.819-7.008c.444 0 .792-.324.792-.78s-.348-.78-.792-.78c-.444 0-.792.324-.792.78s.348.78.792.78zm-.66 7.008h1.296V3.356h-1.296V9.5zm3.01-1.668c0 1.116.504 1.668 1.68 1.668h1.2V8.36h-.912c-.492 0-.66-.18-.66-.66V4.496h1.5v-1.14h-1.5V1.64h-1.308v1.716h-1.068v1.14h1.068v3.336zm6.932-4.548c-.96 0-1.548.432-1.932.96V1.1h-1.296v8.4h1.296V6.392c0-1.236.624-1.992 1.644-1.992.96 0 1.476.624 1.476 1.788V9.5h1.296V6.08c0-2.052-1.116-2.796-2.484-2.796zm6.52 6.288c1.872 0 3.132-1.26 3.132-3.144 0-1.872-1.26-3.144-3.132-3.144s-3.132 1.272-3.132 3.144c0 1.884 1.26 3.144 3.132 3.144zm0-1.104c-1.092 0-1.8-.852-1.8-2.04 0-1.188.708-2.04 1.8-2.04s1.812.852 1.812 2.04c0 1.188-.72 2.04-1.812 2.04zm8.386-2.04c0 1.272-.6 2.016-1.584 2.016-.948 0-1.428-.612-1.428-1.812V3.356h-1.296v3.42c0 2.1 1.116 2.796 2.424 2.796.948 0 1.512-.384 1.896-.852l.144.78h1.14V3.356h-1.296v3.072zm3.053 1.404c0 1.116.504 1.668 1.68 1.668h1.2V8.36h-.912c-.492 0-.66-.18-.66-.66V4.496h1.5v-1.14h-1.5V1.64h-1.308v1.716h-1.068v1.14h1.068v3.336zm9.594 1.74c1.572 0 2.616-.876 2.856-2.268h-1.368c-.156.708-.684 1.164-1.476 1.164-1.044 0-1.728-.828-1.728-2.028 0-1.212.684-2.052 1.728-2.052.804 0 1.32.444 1.488 1.164h1.356c-.252-1.392-1.236-2.268-2.82-2.268-1.86 0-3.084 1.26-3.084 3.156 0 1.92 1.188 3.132 3.048 3.132zm6.752 0c1.872 0 3.132-1.26 3.132-3.144 0-1.872-1.26-3.144-3.132-3.144s-3.132 1.272-3.132 3.144c0 1.884 1.26 3.144 3.132 3.144zm0-1.104c-1.092 0-1.8-.852-1.8-2.04 0-1.188.708-2.04 1.8-2.04s1.812.852 1.812 2.04c0 1.188-.72 2.04-1.812 2.04zm3.875-.996c.036 1.332 1.164 2.1 2.808 2.1 1.488 0 2.604-.744 2.604-1.92 0-1.368-1.14-1.656-2.544-1.824-.888-.096-1.476-.168-1.476-.744 0-.492.504-.804 1.272-.804s1.296.396 1.368.96h1.272c-.084-1.26-1.152-1.956-2.664-1.956-1.476-.012-2.52.744-2.52 1.908 0 1.272 1.104 1.572 2.508 1.74.948.12 1.512.168 1.512.828 0 .492-.528.804-1.332.804-.936 0-1.488-.456-1.536-1.092h-1.272zm6.861.36c0 1.116.504 1.668 1.68 1.668h1.2V8.36h-.912c-.492 0-.66-.18-.66-.66V4.496h1.5v-1.14h-1.5V1.64h-1.308v1.716h-1.068v1.14h1.068v3.336zm3.44-.36c.036 1.332 1.164 2.1 2.808 2.1 1.488 0 2.604-.744 2.604-1.92 0-1.368-1.14-1.656-2.544-1.824-.888-.096-1.476-.168-1.476-.744 0-.492.504-.804 1.272-.804s1.296.396 1.368.96h1.272c-.084-1.26-1.152-1.956-2.664-1.956-1.476-.012-2.52.744-2.52 1.908 0 1.272 1.104 1.572 2.508 1.74.948.12 1.512.168 1.512.828 0 .492-.528.804-1.332.804-.936 0-1.488-.456-1.536-1.092h-1.272z" fill="#000"/></svg>