<svg width="104" height="19" viewBox="0 0 104 19" fill="none" xmlns="http://www.w3.org/2000/svg"><rect width="104" height="19" rx="9.5" fill="#000"/><path d="M10.612 13h.783v-2.754h2.592v-.72h-2.592V7.42h3.132V6.7h-3.915V13zm5.025-5.364c.27 0 .477-.198.477-.477a.464.464 0 00-.477-.477.464.464 0 00-.477.477c0 .279.207.477.477.477zM15.259 13h.738V8.41h-.738V13zm3.999-4.644c-.774 0-1.242.324-1.512.675l-.1-.621h-.638V13h.738v-2.295c0-1.035.522-1.674 1.386-1.674.8 0 1.242.504 1.242 1.458V13h.738v-2.556c0-1.521-.82-2.088-1.854-2.088zm3.173-.72c.27 0 .477-.198.477-.477a.464.464 0 00-.477-.477.464.464 0 00-.477.477c0 .279.207.477.477.477zM22.053 13h.738V8.41h-.738V13zm1.56-1.512c.018 1.008.837 1.566 2.025 1.566 1.017 0 1.836-.531 1.836-1.386 0-1.017-.837-1.215-1.881-1.341-.666-.081-1.152-.144-1.152-.648 0-.423.432-.693 1.07-.693.63 0 1.063.351 1.117.819h.756c-.072-.954-.828-1.44-1.872-1.449-1.035-.009-1.8.54-1.8 1.377 0 .954.819 1.161 1.845 1.287.684.081 1.188.126 1.188.702 0 .423-.46.702-1.107.702-.765 0-1.242-.396-1.27-.936h-.755zm6.93-3.132c-.774 0-1.242.378-1.512.81V6.7h-.738V13h.738v-2.295c0-1.035.531-1.674 1.386-1.674.792 0 1.251.504 1.251 1.458V13h.738v-2.556c0-1.521-.837-2.088-1.863-2.088zm10.28 0c-.819 0-1.314.378-1.593.873-.26-.585-.81-.873-1.449-.873-.71 0-1.098.351-1.34.684l-.1-.63h-.639V13h.738v-2.421c0-.918.46-1.548 1.215-1.548.702 0 1.107.468 1.107 1.368V13h.738v-2.457c0-.936.468-1.512 1.233-1.512.693 0 1.09.468 1.09 1.368V13h.737v-2.646c0-1.449-.783-1.998-1.737-1.998zm3.849 4.671l-.225.558c-.171.432-.243.54-.666.54h-.657v.675h.882c.648 0 .819-.288 1.107-1.026l2.115-5.364h-.783l-1.368 3.663-1.413-3.663h-.783l1.79 4.617zm9.52-.702c-.206 0-.296-.063-.296-.306v-2.007c0-1.071-.675-1.656-1.845-1.656-1.107 0-1.836.531-1.944 1.431h.738c.09-.468.522-.774 1.17-.774.72 0 1.143.36 1.143.954v.315h-1.35c-1.206 0-1.845.513-1.845 1.431 0 .837.684 1.341 1.692 1.341.792 0 1.25-.351 1.539-.765.009.45.216.711.828.711h.405v-.675h-.234zm-1.034-1.197c0 .765-.531 1.296-1.45 1.296-.611 0-.998-.306-.998-.756 0-.522.369-.765 1.026-.765h1.422v.225zm4.15-2.772c-.775 0-1.27.369-1.576.792l-.099-.738h-.639v6.39h.738v-2.502c.28.441.801.756 1.575.756 1.27 0 2.205-.945 2.205-2.349 0-1.494-.936-2.349-2.205-2.349zm-.073 4.041c-.9 0-1.512-.702-1.512-1.71 0-.981.612-1.674 1.512-1.674.91 0 1.521.693 1.521 1.692s-.612 1.692-1.52 1.692zm5.434-4.041c-.774 0-1.27.369-1.575.792l-.1-.738h-.638v6.39h.738v-2.502c.279.441.8.756 1.575.756 1.269 0 2.205-.945 2.205-2.349 0-1.494-.936-2.349-2.205-2.349zm-.072 4.041c-.9 0-1.512-.702-1.512-1.71 0-.981.612-1.674 1.512-1.674.909 0 1.52.693 1.52 1.692s-.611 1.692-1.52 1.692zm3.12.603h.738V6.7h-.738V13zm2.127-5.364c.27 0 .477-.198.477-.477a.464.464 0 00-.477-.477.464.464 0 00-.477.477c0 .279.207.477.477.477zM67.466 13h.738V8.41h-.738V13zm3.81.054c1.116 0 1.863-.63 2.043-1.62h-.783c-.144.585-.594.963-1.251.963-.882 0-1.476-.684-1.476-1.683s.594-1.701 1.476-1.701c.675 0 1.125.369 1.26.981h.774c-.19-1.008-.9-1.638-2.025-1.638-1.332 0-2.241.954-2.241 2.358 0 1.431.882 2.34 2.223 2.34zm6.911-.729c-.207 0-.297-.063-.297-.306v-2.007c0-1.071-.675-1.656-1.845-1.656-1.107 0-1.836.531-1.944 1.431h.738c.09-.468.522-.774 1.17-.774.72 0 1.143.36 1.143.954v.315h-1.35c-1.206 0-1.845.513-1.845 1.431 0 .837.684 1.341 1.692 1.341.792 0 1.251-.351 1.539-.765.009.45.216.711.828.711h.405v-.675h-.234zm-1.035-1.197c0 .765-.531 1.296-1.449 1.296-.612 0-.999-.306-.999-.756 0-.522.369-.765 1.026-.765h1.422v.225zm2.178.675c0 .81.315 1.197 1.197 1.197h.801v-.675H80.6c-.396 0-.53-.144-.53-.531V9.085h1.187V8.41h-1.188V7.123h-.738V8.41h-.828v.675h.828v2.718zm3.016-4.167c.27 0 .477-.198.477-.477a.464.464 0 00-.477-.477.464.464 0 00-.477.477c0 .279.207.477.477.477zM81.968 13h.738V8.41h-.738V13zm3.864.054c1.34 0 2.277-.954 2.277-2.349 0-1.395-.936-2.349-2.277-2.349-1.341 0-2.277.954-2.277 2.349 0 1.395.936 2.349 2.277 2.349zm0-.657c-.91 0-1.521-.711-1.521-1.692s.612-1.692 1.52-1.692c.91 0 1.522.711 1.522 1.692s-.612 1.692-1.521 1.692zm5.373-4.041c-.774 0-1.242.324-1.512.675l-.099-.621h-.639V13h.738v-2.295c0-1.035.522-1.674 1.386-1.674.801 0 1.242.504 1.242 1.458V13h.738v-2.556c0-1.521-.819-2.088-1.854-2.088z" fill="#fff"/></svg>