<svg width="237" height="65" viewBox="0 0 237 65" fill="none" xmlns="http://www.w3.org/2000/svg"><path d="M.6 4.06h6.48V22h3.45V4.06h6.48V1H.6v3.06zm30.352 15.12c-.66 0-.99-.21-.99-.99v-6.15c0-3.63-2.34-5.58-6.42-5.58-3.87 0-6.45 1.86-6.78 4.86h3.18c.24-1.35 1.53-2.25 3.45-2.25 2.13 0 3.36 1.05 3.36 2.76v.93h-3.87c-4.29 0-6.57 1.77-6.57 4.92 0 2.85 2.34 4.5 5.7 4.5 2.49 0 4.05-1.08 5.07-2.64 0 1.53.72 2.46 2.82 2.46h1.71v-2.82h-.66zm-4.2-3.48c-.03 2.37-1.59 3.96-4.29 3.96-1.77 0-2.85-.9-2.85-2.19 0-1.56 1.11-2.31 3.12-2.31h4.02v.54zm14.845-9.24c-2.4 0-3.99 1.11-5.01 2.46l-.39-2.28h-2.82V28h3.24v-8.16c.96 1.38 2.61 2.34 4.98 2.34 4.2 0 7.26-3.12 7.26-7.86 0-4.92-3.06-7.86-7.26-7.86zm-.54 12.99c-2.7 0-4.47-2.13-4.47-5.19 0-2.97 1.77-5.04 4.47-5.04 2.7 0 4.5 2.07 4.5 5.1 0 3-1.8 5.13-4.5 5.13zM60.78 4.48c1.11 0 1.98-.81 1.98-1.95S61.89.58 60.78.58c-1.11 0-1.98.81-1.98 1.95s.87 1.95 1.98 1.95zM59.13 22h3.24V6.64h-3.24V22zM73.645 6.46c-2.49 0-3.96.99-4.92 2.19l-.36-2.01h-2.82V22h3.24v-7.74c0-3.12 1.53-5.01 4.11-5.01 2.43 0 3.66 1.56 3.66 4.47V22h3.27v-8.55c0-5.13-2.79-6.99-6.18-6.99zm10.237 11.37c0 2.79 1.26 4.17 4.2 4.17h3v-2.85h-2.28c-1.23 0-1.65-.45-1.65-1.65V9.49h3.75V6.64h-3.75V2.35h-3.27v4.29h-2.67v2.85h2.67v8.34zm16.198 4.35c4.68 0 7.83-3.15 7.83-7.86 0-4.68-3.15-7.86-7.83-7.86s-7.83 3.18-7.83 7.86c0 4.71 3.15 7.86 7.83 7.86zm0-2.76c-2.73 0-4.5-2.13-4.5-5.1 0-2.97 1.77-5.1 4.5-5.1s4.53 2.13 4.53 5.1c0 2.97-1.8 5.1-4.53 5.1zm19.222-1.59c0 2.79 1.26 4.17 4.2 4.17h3v-2.85h-2.28c-1.23 0-1.65-.45-1.65-1.65V9.49h3.75V6.64h-3.75V2.35h-3.27v4.29h-2.67v2.85h2.67v8.34zm16.228 4.35c3.81 0 6.39-2.31 6.93-5.34h-3.24c-.45 1.71-1.89 2.7-3.87 2.7-2.55 0-4.2-1.71-4.29-4.32v-.21h11.58c.06-.42.09-.84.09-1.23-.09-4.5-3.06-7.32-7.5-7.32-4.53 0-7.56 3.15-7.56 7.89 0 4.71 3.03 7.83 7.86 7.83zm-4.35-9.54c.24-2.19 2.01-3.57 4.08-3.57 2.25 0 3.84 1.29 4.11 3.57h-8.19zm21.22 9.54c3.93 0 6.54-2.19 7.14-5.67h-3.42c-.39 1.77-1.71 2.91-3.69 2.91-2.61 0-4.32-2.07-4.32-5.07 0-3.03 1.71-5.13 4.32-5.13 2.01 0 3.3 1.11 3.72 2.91h3.39c-.63-3.48-3.09-5.67-7.05-5.67-4.65 0-7.71 3.15-7.71 7.89 0 4.8 2.97 7.83 7.62 7.83zm17.69-15.72c-2.4 0-3.87 1.08-4.83 2.4V1h-3.24v21h3.24v-7.77c0-3.09 1.56-4.98 4.11-4.98 2.4 0 3.69 1.56 3.69 4.47V22h3.24v-8.55c0-5.13-2.79-6.99-6.21-6.99zM8.88 58.18c3.81 0 6.39-2.31 6.93-5.34h-3.24c-.45 1.71-1.89 2.7-3.87 2.7-2.55 0-4.2-1.71-4.29-4.32v-.21h11.58c.06-.42.09-.84.09-1.23-.09-4.5-3.06-7.32-7.5-7.32-4.53 0-7.56 3.15-7.56 7.89 0 4.71 3.03 7.83 7.86 7.83zm-4.35-9.54c.24-2.19 2.01-3.57 4.08-3.57 2.25 0 3.84 1.29 4.11 3.57H4.53zm28.21 6.54c-.66 0-.99-.21-.99-.99v-6.15c0-3.63-2.34-5.58-6.42-5.58-3.87 0-6.45 1.86-6.78 4.86h3.18c.24-1.35 1.53-2.25 3.45-2.25 2.13 0 3.36 1.05 3.36 2.76v.93h-3.87c-4.29 0-6.57 1.77-6.57 4.92 0 2.85 2.34 4.5 5.7 4.5 2.49 0 4.05-1.08 5.07-2.64 0 1.53.72 2.46 2.82 2.46h1.71v-2.82h-.66zm-4.2-3.48c-.03 2.37-1.59 3.96-4.29 3.96-1.77 0-2.85-.9-2.85-2.19 0-1.56 1.11-2.31 3.12-2.31h4.02v.54zm14.394-9.06c-2.52 0-3.75 1.02-4.53 2.31l-.36-2.31h-2.88V58h3.24v-7.71c0-2.37.93-4.62 3.81-4.62h1.44v-3.03h-.72zm10.819-.18c-2.49 0-3.96.99-4.92 2.19l-.36-2.01h-2.82V58h3.24v-7.74c0-3.12 1.53-5.01 4.11-5.01 2.43 0 3.66 1.56 3.66 4.47V58h3.27v-8.55c0-5.13-2.79-6.99-6.18-6.99zm10.776-1.98c1.11 0 1.98-.81 1.98-1.95s-.87-1.95-1.98-1.95c-1.11 0-1.98.81-1.98 1.95s.87 1.95 1.98 1.95zM62.88 58h3.24V42.64h-3.24V58zm14.516-15.54c-2.49 0-3.96.99-4.92 2.19l-.36-2.01h-2.82V58h3.24v-7.74c0-3.12 1.53-5.01 4.11-5.01 2.43 0 3.66 1.56 3.66 4.47V58h3.27v-8.55c0-5.13-2.79-6.99-6.18-6.99zm20.857 2.58c-.99-1.53-2.64-2.58-5.04-2.58-4.17 0-7.26 3.09-7.26 7.8 0 4.89 3.09 7.8 7.26 7.8 2.4 0 3.99-.99 5.01-2.52v1.71c0 2.94-1.59 4.29-4.41 4.29-2.28 0-3.78-.99-4.17-2.7h-3.3c.3 3.45 3.15 5.34 7.23 5.34 5.52 0 7.86-2.64 7.86-6.81V42.64h-2.82l-.36 2.4zm-4.5 10.29c-2.7 0-4.47-2.07-4.47-5.07 0-2.97 1.77-5.07 4.47-5.07 2.7 0 4.47 2.1 4.47 5.13 0 2.94-1.77 5.01-4.47 5.01zm10.186-2.4c.09 3.33 2.91 5.25 7.02 5.25 3.72 0 6.51-1.86 6.51-4.8 0-3.42-2.85-4.14-6.36-4.56-2.22-.24-3.69-.42-3.69-1.86 0-1.23 1.26-2.01 3.18-2.01 1.92 0 3.24.99 3.42 2.4h3.18c-.21-3.15-2.88-4.89-6.66-4.89-3.69-.03-6.3 1.86-6.3 4.77 0 3.18 2.76 3.93 6.27 4.35 2.37.3 3.78.42 3.78 2.07 0 1.23-1.32 2.01-3.33 2.01-2.34 0-3.72-1.14-3.84-2.73h-3.18zM131.794 58h3.96l5.67-15.36h-3.42l-4.17 11.88-4.23-11.88h-3.48l5.67 15.36zm17.827.18c4.68 0 7.83-3.15 7.83-7.86 0-4.68-3.15-7.86-7.83-7.86s-7.83 3.18-7.83 7.86c0 4.71 3.15 7.86 7.83 7.86zm0-2.76c-2.73 0-4.5-2.13-4.5-5.1 0-2.97 1.77-5.1 4.5-5.1s4.53 2.13 4.53 5.1c0 2.97-1.8 5.1-4.53 5.1zM160.057 58h3.24V37h-3.24v21zm20.456-2.82c-.66 0-.99-.21-.99-.99v-6.15c0-3.63-2.34-5.58-6.42-5.58-3.87 0-6.45 1.86-6.78 4.86h3.18c.24-1.35 1.53-2.25 3.45-2.25 2.13 0 3.36 1.05 3.36 2.76v.93h-3.87c-4.29 0-6.57 1.77-6.57 4.92 0 2.85 2.34 4.5 5.7 4.5 2.49 0 4.05-1.08 5.07-2.64 0 1.53.72 2.46 2.82 2.46h1.71v-2.82h-.66zm-4.2-3.48c-.03 2.37-1.59 3.96-4.29 3.96-1.77 0-2.85-.9-2.85-2.19 0-1.56 1.11-2.31 3.12-2.31h4.02v.54zm7.735 2.13c0 2.79 1.26 4.17 4.2 4.17h3v-2.85h-2.28c-1.23 0-1.65-.45-1.65-1.65v-8.01h3.75v-2.85h-3.75v-4.29h-3.27v4.29h-2.67v2.85h2.67v8.34zm10.911-13.35c1.11 0 1.98-.81 1.98-1.95s-.87-1.95-1.98-1.95c-1.11 0-1.98.81-1.98 1.95s.87 1.95 1.98 1.95zM193.309 58h3.24V42.64h-3.24V58zm6.416 0h3.24V37h-3.24v21zm8.066-17.52c1.11 0 1.98-.81 1.98-1.95s-.87-1.95-1.98-1.95c-1.11 0-1.98.81-1.98 1.95s.87 1.95 1.98 1.95zM206.141 58h3.24V42.64h-3.24V58zm7.526-4.17c0 2.79 1.26 4.17 4.2 4.17h3v-2.85h-2.28c-1.23 0-1.65-.45-1.65-1.65v-8.01h3.75v-2.85h-3.75v-4.29h-3.27v4.29h-2.67v2.85h2.67v8.34zm13.701 4.26l-.6 1.5c-.48 1.26-.78 1.56-2.04 1.56h-2.28V64h3.48c2.25 0 2.91-1.11 3.87-3.6l6.96-17.76h-3.45l-4.17 11.67-4.29-11.67h-3.45l5.97 15.45z" fill="#000"/></svg>