<svg width="114" height="21" viewBox="0 0 114 21" fill="none" xmlns="http://www.w3.org/2000/svg"><rect width="114" height="21" rx="10.5" fill="#000"/><path d="M22.612 14h.783v-2.754h2.592v-.72h-2.592V8.42h3.132V7.7h-3.915V14zm7.623-2.295c0 1.035-.504 1.674-1.341 1.674-.765 0-1.197-.504-1.197-1.458V9.41h-.738v2.556c0 1.521.8 2.088 1.809 2.088.756 0 1.197-.324 1.467-.666l.099.612h.639V9.41h-.738v2.295zm3.994-2.349c-.774 0-1.242.324-1.512.675l-.1-.621h-.638V14h.738v-2.295c0-1.035.522-1.674 1.386-1.674.8 0 1.242.504 1.242 1.458V14h.738v-2.556c0-1.521-.82-2.088-1.854-2.088zm6.36.756c-.28-.441-.801-.756-1.575-.756-1.27 0-2.205.945-2.205 2.349 0 1.494.936 2.349 2.205 2.349.774 0 1.269-.369 1.575-.792l.099.738h.639V7.7h-.738v2.412zm-1.503 3.285c-.91 0-1.521-.693-1.521-1.692s.612-1.692 1.52-1.692c.9 0 1.513.702 1.513 1.71 0 .981-.612 1.674-1.512 1.674zm10.723-4.041c-.82 0-1.314.378-1.593.873-.261-.585-.81-.873-1.45-.873-.71 0-1.097.351-1.34.684l-.1-.63h-.638V14h.738v-2.421c0-.918.459-1.548 1.215-1.548.702 0 1.107.468 1.107 1.368V14h.738v-2.457c0-.936.468-1.512 1.233-1.512.693 0 1.089.468 1.089 1.368V14h.738v-2.646c0-1.449-.783-1.998-1.737-1.998zm3.848 4.671l-.225.558c-.17.432-.243.54-.666.54h-.657v.675h.882c.648 0 .82-.288 1.107-1.026l2.115-5.364h-.783l-1.368 3.663L52.65 9.41h-.783l1.791 4.617zm9.521-.702c-.207 0-.297-.063-.297-.306v-2.007c0-1.071-.675-1.656-1.845-1.656-1.107 0-1.836.531-1.944 1.431h.738c.09-.468.522-.774 1.17-.774.72 0 1.143.36 1.143.954v.315h-1.35c-1.206 0-1.845.513-1.845 1.431 0 .837.684 1.341 1.692 1.341.792 0 1.251-.351 1.54-.765.008.45.215.711.827.711h.405v-.675h-.234zm-1.035-1.197c0 .765-.53 1.296-1.449 1.296-.612 0-.999-.306-.999-.756 0-.522.37-.765 1.026-.765h1.422v.225zm3.845 1.926c1.116 0 1.863-.63 2.043-1.62h-.783c-.144.585-.594.963-1.251.963-.882 0-1.476-.684-1.476-1.683s.594-1.701 1.476-1.701c.675 0 1.125.369 1.26.981h.774c-.19-1.008-.9-1.638-2.025-1.638-1.332 0-2.241.954-2.241 2.358 0 1.431.882 2.34 2.223 2.34zm4.913 0c1.116 0 1.863-.63 2.043-1.62h-.783c-.144.585-.594.963-1.251.963-.882 0-1.476-.684-1.476-1.683s.594-1.701 1.476-1.701c.675 0 1.125.369 1.26.981h.774c-.19-1.008-.9-1.638-2.025-1.638-1.332 0-2.241.954-2.241 2.358 0 1.431.882 2.34 2.223 2.34zm4.967 0c1.341 0 2.277-.954 2.277-2.349 0-1.395-.936-2.349-2.277-2.349-1.341 0-2.277.954-2.277 2.349 0 1.395.936 2.349 2.277 2.349zm0-.657c-.909 0-1.521-.711-1.521-1.692s.612-1.692 1.521-1.692c.909 0 1.521.711 1.521 1.692s-.612 1.692-1.521 1.692zm6.336-1.692c0 1.035-.504 1.674-1.34 1.674-.766 0-1.198-.504-1.198-1.458V9.41h-.738v2.556c0 1.521.801 2.088 1.81 2.088.755 0 1.196-.324 1.466-.666l.1.612h.638V9.41h-.738v2.295zm3.994-2.349c-.774 0-1.242.324-1.512.675l-.099-.621h-.639V14h.738v-2.295c0-1.035.522-1.674 1.386-1.674.801 0 1.242.504 1.242 1.458V14h.738v-2.556c0-1.521-.819-2.088-1.854-2.088zm3.137 3.447c0 .81.315 1.197 1.197 1.197h.801v-.675h-.729c-.396 0-.53-.144-.53-.531v-2.709h1.187V9.41h-1.188V8.123h-.738V9.41h-.828v.675h.828v2.718z" fill="#fff"/></svg>