<svg width="1236" height="1453" viewBox="0 0 1236 1453" fill="none" xmlns="http://www.w3.org/2000/svg"><path d="M.5.277V1452.28h1235V.277H.5zM1032.45 1312.23c-21.74 0-130.428-2.11-172.697-2.11-44.685 0-179.946 2.11-202.892 2.11v-14.81l38.646-5.29c37.439-5.29 53.139-13.75 53.139-33.85 0-16.93-12.078-38.09-38.647-74.06l-135.26-180.91-135.261 162.93c-31.4 38.08-45.893 66.65-45.893 87.81 0 21.16 14.492 33.85 51.931 39.14l39.853 5.29v14.81c-21.738 0-118.354-2.11-161.83-2.11-43.477 0-112.315 2.11-135.261 2.11v-15.87l20.531-3.17c54.346-8.46 105.069-48.67 146.13-94.16l195.645-224.283-319.717-404.424c-44.684-58.187-76.084-84.635-124.391-92.041l-25.361-4.232v-14.811c21.738 0 130.429 2.116 172.699 2.116 44.684 0 177.53-2.116 200.476-2.116v14.811l-38.646 5.29c-32.608 4.232-50.722 13.753-50.722 33.854 0 16.927 139.77 192.834 166.34 228.804L647.2 899.635l245-308.151c30.192-38.086 45.891-66.65 45.891-86.751s-15.7-33.854-51.93-39.144l-39.854-5.29v-14.811c21.738 0 118.353 2.116 161.833 2.116 43.47 0 112.31-2.116 135.26-2.116v14.811l-20.53 3.174c-54.35 8.464-103.86 44.434-146.132 94.157L670.146 927.141l212.553 272.949c44.684 58.19 76.084 84.64 124.391 92.04l25.36 4.23v15.87z" fill="#fff"/></svg>