<svg width="265" height="194" viewBox="0 0 265 194" fill="none" xmlns="http://www.w3.org/2000/svg"><path d="M6.803 26.254c-.79 0-1.664-.113-2.623-.339-.94-.225-1.748-.526-2.425-.902l-.14-4.174 1.804-.113.959 2.905c.376.244.818.442 1.325.592a6.17 6.17 0 001.495.198c.846 0 1.485-.179 1.918-.536.45-.357.676-.837.676-1.438 0-.658-.197-1.185-.592-1.58-.376-.394-.874-.733-1.494-1.015a32.968 32.968 0 00-1.975-.818 13.815 13.815 0 01-1.974-.987 5.024 5.024 0 01-1.523-1.494c-.376-.62-.564-1.401-.564-2.341 0-1.015.282-1.899.846-2.651.583-.77 1.392-1.363 2.426-1.777 1.053-.432 2.265-.648 3.638-.648.432 0 .893.028 1.382.084.507.057.996.15 1.466.282.47.113.884.245 1.24.395l.311 4.117-1.776.113-.903-2.763c-.583-.301-1.25-.452-2.002-.452-.771 0-1.41.198-1.918.593-.489.376-.733.911-.733 1.607 0 .62.197 1.137.592 1.551.395.395.902.743 1.523 1.044.62.282 1.278.564 1.974.846.714.282 1.382.62 2.002 1.015.64.376 1.157.855 1.551 1.438.395.583.593 1.326.593 2.228 0 .959-.301 1.824-.903 2.594-.583.753-1.41 1.345-2.482 1.777-1.052.433-2.284.649-3.694.649zm18.36-2.623c-.283.808-.8 1.457-1.552 1.946-.733.47-1.56.705-2.482.705-1.297 0-2.369-.376-3.215-1.128-.827-.77-1.24-1.918-1.24-3.44l.084-6.29h-1.974v-.874l4.822-3.835h.875l-.057 3.976-.056 6.684c0 .79.188 1.363.564 1.72.376.339.902.508 1.58.508.356 0 .704-.066 1.043-.198.338-.15.63-.338.874-.564l.733.79zm-6.177-8.207v-1.776h5.386v1.777h-5.386zm13.34 10.802c-1.317 0-2.473-.264-3.47-.79a6.068 6.068 0 01-2.34-2.228c-.564-.959-.846-2.05-.846-3.271 0-1.392.32-2.576.958-3.554a6.233 6.233 0 012.51-2.227 7.39 7.39 0 013.3-.762c1.24 0 2.331.263 3.271.79a5.526 5.526 0 012.228 2.228c.545.94.818 2.02.818 3.243 0 1.24-.291 2.36-.874 3.356a6.42 6.42 0 01-2.313 2.34c-.977.583-2.058.875-3.243.875zm.281-1.805c.47 0 .865-.15 1.185-.451.338-.301.592-.743.761-1.326.188-.583.282-1.278.282-2.087 0-1.617-.263-2.933-.79-3.948-.507-1.015-1.193-1.523-2.058-1.523-.715 0-1.279.367-1.692 1.1-.414.714-.62 1.692-.62 2.933 0 .996.122 1.899.366 2.707.263.809.61 1.448 1.043 1.918.451.451.96.677 1.523.677zM40.277 26l-.084-1.297 1.749-.48c.019-.075.037-.244.056-.507.019-.264.038-.593.057-.987.018-.414.028-.856.028-1.326l.028-2.143c0-.583-.019-1.09-.056-1.523a12.381 12.381 0 00-.198-1.354l-1.805-.394v-1.27l4.964-1.268.761.479-.17 1.664.086.028c.582-.752 1.222-1.307 1.917-1.664a4.778 4.778 0 012.256-.564c.809 0 1.523.197 2.144.592.639.395 1.147.978 1.523 1.749.375.752.563 1.664.563 2.735v2.905c0 .64.01 1.24.029 1.805.019.545.056.893.112 1.043l1.749.48L55.901 26h-7.078l-.085-1.297 1.608-.48a4.81 4.81 0 00.084-.705c.02-.32.029-.667.029-1.043.018-.376.028-.733.028-1.072v-2.369c0-.714-.113-1.288-.339-1.72-.207-.451-.489-.78-.846-.987-.338-.207-.733-.31-1.184-.31-.47 0-.912.103-1.326.31a3.436 3.436 0 00-1.071.902v4.146c0 .64.01 1.24.028 1.805.037.545.075.893.113 1.043l1.72.48L47.497 26h-7.22zm23.323.226c-1.222 0-2.312-.273-3.271-.818a6.03 6.03 0 01-2.228-2.228c-.526-.94-.79-2.002-.79-3.187 0-1.316.301-2.463.903-3.44a6.645 6.645 0 012.34-2.341 5.955 5.955 0 013.13-.818c1.655 0 2.934.517 3.836 1.551.903 1.015 1.354 2.34 1.354 3.977v.676h-8.291v-1.466h5.527l-.423.677v-.96c0-.883-.197-1.588-.592-2.114-.395-.527-.94-.79-1.636-.79-.47 0-.893.132-1.269.395-.376.263-.677.667-.902 1.213-.207.526-.31 1.193-.31 2.002v.592c0 1.316.347 2.378 1.043 3.187.715.808 1.664 1.213 2.848 1.213.64 0 1.222-.113 1.749-.339.526-.244 1.034-.648 1.523-1.213l.874.79c-.526 1.128-1.27 1.983-2.228 2.566-.959.583-2.021.875-3.187.875zM80.916 26l-.085-1.41 1.749-.451c.037-.094.066-.348.084-.762.038-.413.066-.93.085-1.55.019-.621.028-1.298.028-2.031V15.65c0-.752-.01-1.438-.028-2.059a24.728 24.728 0 00-.085-1.55c-.019-.414-.047-.668-.084-.762l-1.749-.423.085-1.41h7.558l.084 1.41-1.776.423c-.02.094-.047.357-.085.79-.038.432-.066.968-.085 1.607-.018.64-.028 1.297-.028 1.974v4.146c0 .658.01 1.306.028 1.946.02.62.047 1.156.085 1.607.038.433.066.696.085.79l1.776.45L88.474 26h-7.558zM70.82 26l-.085-1.41 1.777-.451c.037-.094.066-.339.085-.733.037-.395.065-.903.084-1.523.019-.64.028-1.335.028-2.087V15.65c0-.77-.01-1.476-.028-2.115a24.728 24.728 0 00-.084-1.551c-.02-.414-.047-.649-.085-.705l-1.777-.423.085-1.41h7.53l.084 1.41-1.748.423c-.038.094-.076.348-.113.761-.019.395-.038.912-.057 1.552v8.234c.02.62.038 1.138.057 1.551.037.414.075.668.113.762l1.748.45L78.35 26h-7.53zm5.048-7.389v-2.143c.451.056.968.094 1.55.113.602.019 1.345.028 2.229.028.883 0 1.617-.01 2.2-.028.582-.019 1.1-.057 1.55-.113v2.143a98.434 98.434 0 00-1.466-.056 37.003 37.003 0 00-2.284-.056c-.94 0-1.711.018-2.313.056-.583.019-1.071.038-1.466.056zm20.953 7.615c-1.222 0-2.312-.273-3.271-.818a6.03 6.03 0 01-2.228-2.228c-.526-.94-.79-2.002-.79-3.187 0-1.316.301-2.463.903-3.44a6.645 6.645 0 012.34-2.341 5.955 5.955 0 013.13-.818c1.655 0 2.934.517 3.836 1.551.903 1.015 1.354 2.34 1.354 3.977v.676h-8.291v-1.466h5.527l-.423.677v-.96c0-.883-.197-1.588-.592-2.114-.395-.527-.94-.79-1.636-.79-.47 0-.893.132-1.269.395-.376.263-.677.667-.902 1.213-.207.526-.31 1.193-.31 2.002v.592c0 1.316.347 2.378 1.043 3.187.715.808 1.664 1.213 2.848 1.213.64 0 1.222-.113 1.749-.339.526-.244 1.034-.648 1.523-1.213l.874.79c-.526 1.128-1.269 1.983-2.228 2.566-.959.583-2.021.875-3.187.875zm16.865.14l-.762-.422.028-1.834-.084-.028c-.47.809-.997 1.382-1.579 1.72a3.71 3.71 0 01-1.805.48 5.274 5.274 0 01-2.764-.761 5.637 5.637 0 01-2.031-2.116c-.507-.92-.761-1.983-.761-3.186 0-1.053.197-1.993.592-2.82a6.48 6.48 0 011.58-2.144 6.701 6.701 0 012.199-1.353 6.7 6.7 0 012.482-.48c.357 0 .724.038 1.1.113.376.056.686.15.93.282 0-.357-.009-.752-.028-1.184 0-.452-.009-.893-.028-1.326a23.1 23.1 0 00-.028-1.213c0-.375-.01-.658-.028-.846l-2.087-.31-.057-1.212 5.33-1.382.79.48a398.575 398.575 0 01-.169 3.242 53.417 53.417 0 00-.085 3.102l-.028 6.543c0 .921.028 1.673.085 2.256.056.583.103 1.081.141 1.495l1.861.395v1.212l-4.794 1.298zm-2.849-2.791c.301 0 .64-.094 1.016-.282.394-.188.733-.498 1.015-.931v-6.289c-.263-.357-.574-.601-.931-.733a2.74 2.74 0 00-1.071-.226c-.884 0-1.617.367-2.2 1.1-.564.733-.846 1.74-.846 3.018 0 1.391.291 2.463.874 3.215.602.752 1.316 1.128 2.143 1.128zm14.75 8.855c-1.993 0-3.554-.273-4.682-.818-1.109-.545-1.664-1.297-1.664-2.256 0-.62.329-1.203.987-1.748.677-.527 1.589-.95 2.736-1.27l1.212.113c-.451.32-.808.686-1.071 1.1a2.383 2.383 0 00-.395 1.297c0 .64.263 1.128.79 1.467.545.357 1.335.536 2.369.536 1.015 0 1.861-.226 2.538-.677.676-.433 1.015-.978 1.015-1.636 0-.47-.169-.827-.508-1.072-.338-.225-.921-.376-1.748-.45l-3.582-.311-.254-.141c-.958 0-1.701-.188-2.227-.564-.527-.357-.79-.827-.79-1.41 0-.602.291-1.156.874-1.664.602-.526 1.42-.94 2.454-1.24l.451.479a1.986 1.986 0 00-.508.45c-.131.151-.197.302-.197.452 0 .226.066.395.197.508.151.113.357.188.621.225l4.371.423c1.391.132 2.425.498 3.102 1.1.677.602 1.015 1.391 1.015 2.37 0 .883-.31 1.682-.93 2.396-.602.715-1.448 1.279-2.539 1.692-1.071.433-2.284.649-3.637.649zm.112-9.758c-1.128 0-2.124-.188-2.989-.564-.846-.395-1.504-.93-1.974-1.607-.47-.696-.705-1.495-.705-2.397 0-.922.254-1.74.761-2.454.508-.714 1.194-1.278 2.059-1.692.884-.414 1.871-.62 2.961-.62 1.072 0 2.021.216 2.848.648.847.414 1.514.978 2.003 1.692.489.715.733 1.523.733 2.426 0 .883-.244 1.673-.733 2.369-.489.676-1.156 1.212-2.003 1.607-.846.395-1.833.592-2.961.592zm.226-1.635c.583 0 1.043-.254 1.382-.762.338-.526.507-1.231.507-2.115 0-.959-.188-1.73-.564-2.312-.357-.583-.846-.875-1.466-.875-.564 0-1.025.273-1.382.818-.357.545-.536 1.27-.536 2.172 0 .92.188 1.663.564 2.228.376.564.875.846 1.495.846zm7.022-5.105l-3.807-.366-.846-1.326 4.653-.564v2.256zm7.502 10.294c-1.222 0-2.313-.273-3.272-.818a6.037 6.037 0 01-2.228-2.228c-.526-.94-.789-2.002-.789-3.187 0-1.316.301-2.463.902-3.44.602-.997 1.382-1.777 2.341-2.341a5.953 5.953 0 013.13-.818c1.655 0 2.933.517 3.836 1.551.902 1.015 1.353 2.34 1.353 3.977v.676h-8.291v-1.466h5.527l-.423.677v-.96c0-.883-.197-1.588-.592-2.114-.395-.527-.94-.79-1.635-.79-.47 0-.893.132-1.269.395-.377.263-.677.667-.903 1.213-.207.526-.31 1.193-.31 2.002v.592c0 1.316.348 2.378 1.043 3.187.715.808 1.664 1.213 2.849 1.213.639 0 1.222-.113 1.748-.339.527-.244 1.034-.648 1.523-1.213l.874.79c-.526 1.128-1.269 1.983-2.228 2.566-.959.583-2.021.875-3.186.875zM152.772 26l-.056-1.043 1.89-.395a1.93 1.93 0 00.028-.395c.019-.188.037-.489.056-.902.019-.414.028-.988.028-1.72v-1.862c0-.77-.018-1.476-.056-2.115a16.597 16.597 0 00-.141-1.495l-1.89-.395v-.93l4.005-1.044.423.395a60.508 60.508 0 00-.141 1.72 59.668 59.668 0 00-.028 1.975v3.553c0 .865.009 1.58.028 2.143.038.564.075.921.113 1.072l1.889.395-.056 1.043h-6.092zm3.046-15.482c-.47 0-.883-.16-1.241-.48a1.565 1.565 0 01-.507-1.184c0-.47.169-.865.507-1.185.358-.32.771-.48 1.241-.48.489 0 .893.16 1.213.48.319.32.479.715.479 1.185 0 .47-.16.865-.479 1.184-.32.32-.724.48-1.213.48zm9.278 15.708A9.841 9.841 0 01163.01 26c-.696-.17-1.288-.385-1.777-.649l-.141-3.017h1.382l.564 2.03c.658.451 1.41.677 2.256.677.639 0 1.156-.15 1.551-.451.395-.32.592-.743.592-1.27 0-.488-.178-.911-.536-1.268-.357-.376-1.053-.78-2.087-1.213-1.334-.583-2.274-1.137-2.82-1.664-.545-.545-.818-1.24-.818-2.087 0-.676.198-1.269.593-1.776.413-.527.977-.93 1.692-1.213.714-.3 1.541-.451 2.481-.451a9.45 9.45 0 011.608.14c.545.095.996.217 1.354.367l.31 2.933h-1.326l-.676-1.917a2.21 2.21 0 00-.677-.254 3.075 3.075 0 00-.846-.113c-.658 0-1.185.16-1.58.48-.394.3-.592.695-.592 1.184 0 .564.216 1.025.649 1.382.432.338 1.194.761 2.284 1.269 1.241.564 2.106 1.119 2.595 1.664.488.545.733 1.203.733 1.974 0 1.015-.442 1.852-1.326 2.51-.883.639-2.002.959-3.356.959zM.768 58l-.085-1.297 1.749-.48c.019-.075.037-.244.056-.507.02-.282.038-.62.057-1.016.018-.394.028-.827.028-1.297l.028-2.115c0-.376-.01-.714-.028-1.015a16.835 16.835 0 00-.226-1.89L.542 47.99v-1.27l4.964-1.269.761.48-.169 1.636.085.028c.601-.771 1.231-1.326 1.89-1.664a4.258 4.258 0 012.058-.536c.733 0 1.41.188 2.03.564.64.357 1.157.912 1.551 1.664.395.733.593 1.683.593 2.848l.056 2.905c0 .62.01 1.213.028 1.777.019.564.057.92.113 1.071l1.523.48L15.94 58H9.257l-.085-1.297 1.438-.48a4.81 4.81 0 00.085-.705c.019-.32.028-.667.028-1.043.019-.376.028-.733.028-1.072l-.028-2.65c0-.678-.103-1.213-.31-1.608-.188-.414-.451-.705-.79-.874-.32-.17-.695-.254-1.128-.254-.413 0-.827.113-1.24.338a2.924 2.924 0 00-1.044.874v4.146c0 .62.01 1.213.028 1.777.038.564.075.92.113 1.071l1.55.48L7.819 58H.768zm16.554 0l-.084-1.297 1.466-.48a4.81 4.81 0 00.085-.705c.018-.32.028-.667.028-1.043.019-.376.028-.733.028-1.072l-.056-2.397c0-.733-.104-1.316-.31-1.748-.207-.433-.49-.743-.847-.931a2.321 2.321 0 00-1.184-.31c-.47 0-.921.103-1.354.31-.413.188-.761.48-1.043.874l-.818-1.071c.677-.903 1.391-1.58 2.143-2.03a4.685 4.685 0 012.482-.706c.884 0 1.664.207 2.34.62.696.395 1.232.969 1.608 1.72.376.753.564 1.655.564 2.708l.056 2.933c0 .62.01 1.213.029 1.777.037.564.075.92.113 1.071l1.748.48L24.231 58h-6.909zm14.608.226c-1.222 0-2.312-.273-3.271-.818a6.031 6.031 0 01-2.228-2.228c-.526-.94-.79-2.002-.79-3.187 0-1.316.301-2.463.903-3.44a6.646 6.646 0 012.34-2.341 5.955 5.955 0 013.13-.818c1.655 0 2.934.517 3.836 1.551.903 1.015 1.354 2.34 1.354 3.977v.676h-8.291v-1.466h5.527l-.423.677v-.96c0-.883-.197-1.588-.592-2.114-.395-.527-.94-.79-1.636-.79-.47 0-.893.132-1.269.395-.376.263-.677.667-.902 1.213-.207.526-.31 1.193-.31 2.002v.592c0 1.316.347 2.378 1.043 3.187.715.808 1.664 1.212 2.848 1.212.64 0 1.223-.112 1.749-.338.526-.244 1.034-.648 1.523-1.213l.874.79c-.526 1.128-1.27 1.984-2.228 2.566-.959.583-2.021.875-3.187.875zM38.642 58l-.084-1.297 1.748-.48c.019-.075.038-.244.056-.507.02-.282.038-.62.057-1.016.019-.413.028-.846.028-1.297l.028-2.115c0-.564-.019-1.062-.056-1.494a13.343 13.343 0 00-.197-1.41l-1.805-.395v-1.27l4.878-1.269.734.48-.113 2.228.085.028c.545-1.053 1.09-1.767 1.635-2.143.564-.376 1.138-.564 1.72-.564.508 0 .95.14 1.326.423.395.282.592.724.592 1.325 0 .602-.207 1.072-.62 1.41a2.205 2.205 0 01-1.439.508 3.1 3.1 0 01-1.212-.226c-.358-.169-.752-.46-1.185-.874l.79.085c-.282.206-.555.47-.818.79-.263.319-.489.685-.677 1.1l.029 2.227c.018.696.028 1.325.028 1.89.018.545.037 1.005.056 1.381.019.358.038.593.056.705l2.454.423L46.651 58h-8.009zm17.541.226c-1.184 0-2.256-.254-3.215-.762a6.322 6.322 0 01-2.284-2.171c-.564-.94-.846-2.003-.846-3.187 0-1.184.3-2.284.902-3.3a6.83 6.83 0 012.482-2.481c1.053-.62 2.266-.93 3.638-.93.827 0 1.57.112 2.228.337.658.207 1.185.508 1.58.903.394.395.592.837.592 1.325 0 .47-.15.828-.452 1.072-.282.226-.63.338-1.043.338-.357 0-.677-.065-.959-.197-.263-.132-.573-.348-.93-.649l-2.06-1.805 1.439.339c-.545-.132-1.09-.056-1.636.225-.526.283-.959.753-1.297 1.41-.338.64-.508 1.448-.508 2.426 0 1.448.348 2.538 1.044 3.271.714.733 1.589 1.1 2.623 1.1.526 0 1.043-.113 1.55-.338.527-.245 1.035-.658 1.524-1.241l.902.818c-.526 1.147-1.269 2.02-2.228 2.622a5.675 5.675 0 01-3.046.875zM62.218 58l-.084-1.297 1.748-.48c.02-.206.038-.564.057-1.071a41.99 41.99 0 00.084-1.805 71.14 71.14 0 00.029-1.974v-3.554c0-.639-.01-1.278-.029-1.917 0-.658-.01-1.279-.028-1.862 0-.601-.01-1.146-.028-1.635a14.424 14.424 0 00-.085-1.185l-2.087-.282-.056-1.212 5.33-1.382.79.48c-.038.582-.075 1.146-.113 1.691a307.795 307.795 0 00-.113 4.033c-.019.827-.037 1.833-.056 3.018l.084.028c.583-.733 1.222-1.279 1.918-1.636a4.615 4.615 0 012.228-.564c.808 0 1.523.198 2.143.592.64.395 1.147.978 1.523 1.749.376.752.564 1.664.564 2.735v2.905c0 .64.01 1.24.028 1.805.038.545.075.893.113 1.043l1.749.48L77.842 58h-7.05l-.085-1.297 1.58-.48a4.81 4.81 0 00.084-.705c.019-.32.028-.667.028-1.043.019-.376.028-.733.028-1.072v-2.369c0-.714-.113-1.288-.338-1.72-.207-.451-.489-.78-.846-.987-.339-.207-.733-.31-1.185-.31-.45 0-.883.103-1.297.31-.413.207-.78.508-1.1.902v4.146c0 .696.01 1.307.028 1.833.038.526.076.865.113 1.015l1.692.48L69.41 58h-7.192zm21.349.226c-.865 0-1.617-.188-2.256-.564-.62-.376-1.1-.828-1.439-1.354-.32-.526-.479-1.025-.479-1.495 0-.677.207-1.24.62-1.692.433-.47 1.09-.836 1.974-1.1l4.428-1.297V49.71c0-.395-.132-.762-.395-1.1a2.79 2.79 0 00-.987-.874 2.726 2.726 0 00-1.325-.339c-.301 0-.517.076-.649.226-.113.132-.188.404-.225.818l-.142 1.72c-.94.188-1.71.16-2.312-.084-.583-.264-.874-.687-.874-1.27 0-.357.188-.723.564-1.1a6.809 6.809 0 011.382-1.043c.564-.338 1.137-.62 1.72-.846.583-.244 1.09-.385 1.523-.423 1.673 0 2.999.386 3.976 1.156.978.752 1.476 1.768 1.495 3.046l-.085 3.92c0 .526.01.94.028 1.24.038.302.094.546.17.734l1.86.338v1.185l-1.832.79a8.972 8.972 0 01-.93.31 3.17 3.17 0 01-.819.113c-.733 0-1.25-.376-1.55-1.128l-.48-1.298.592.141c-.583.715-1.184 1.279-1.805 1.692-.601.395-1.184.593-1.748.593zm1.438-2.538c.263 0 .517-.047.761-.142.245-.112.47-.272.677-.479v-2.764l-1.917.367c-.47.056-.809.197-1.016.423-.188.226-.282.526-.282.902 0 .433.17.828.508 1.185.357.338.78.508 1.269.508zM92.873 58l-.085-1.297 1.749-.48c.019-.075.038-.244.056-.507.02-.264.038-.593.057-.987.019-.414.028-.856.028-1.326l.028-2.143c0-.583-.019-1.09-.056-1.523a12.381 12.381 0 00-.198-1.354l-1.805-.394v-1.27l4.964-1.269.761.48-.169 1.664.085.028c.583-.752 1.222-1.307 1.917-1.664a4.782 4.782 0 012.257-.564c.808 0 1.522.198 2.143.592.639.395 1.147.978 1.523 1.749.376.752.564 1.664.564 2.735v2.905c0 .64.009 1.24.028 1.805.019.545.056.893.113 1.043l1.748.48-.084 1.297h-7.079l-.084-1.297 1.607-.48c.038-.169.066-.404.085-.705.018-.32.028-.667.028-1.043.019-.376.028-.733.028-1.072v-2.369c0-.714-.113-1.288-.338-1.72-.207-.451-.489-.78-.846-.987a2.23 2.23 0 00-1.185-.31c-.47 0-.912.103-1.325.31a3.435 3.435 0 00-1.072.902v4.146c0 .64.01 1.24.028 1.805.038.545.075.893.113 1.043l1.72.48-.084 1.297h-7.22zm26.763.367l-.761-.423.028-1.834-.085-.028c-.47.809-.996 1.382-1.579 1.72-.583.32-1.184.48-1.805.48a5.276 5.276 0 01-2.764-.761c-.846-.508-1.522-1.213-2.03-2.115-.508-.922-.762-1.984-.762-3.187 0-1.053.198-1.993.593-2.82a6.49 6.49 0 011.579-2.144 6.695 6.695 0 012.2-1.353 6.69 6.69 0 012.481-.48c.358 0 .724.038 1.1.113.376.057.686.15.931.282 0-.357-.01-.752-.028-1.184 0-.452-.01-.893-.029-1.326a23.1 23.1 0 00-.028-1.213c0-.376-.009-.657-.028-.846l-2.087-.31-.056-1.212 5.33-1.382.789.48a358.033 358.033 0 01-.169 3.242 54.352 54.352 0 00-.084 3.102l-.029 6.543c0 .921.029 1.673.085 2.256.056.583.103 1.081.141 1.495l1.861.395v1.212l-4.794 1.298zm-2.848-2.792c.301 0 .639-.094 1.015-.282.395-.188.733-.498 1.015-.931v-6.289c-.263-.357-.573-.601-.93-.733a2.748 2.748 0 00-1.072-.226c-.884 0-1.617.367-2.2 1.1-.564.733-.846 1.74-.846 3.018 0 1.391.292 2.463.874 3.215.602.752 1.317 1.128 2.144 1.128zM125.135 58l-.084-1.325 1.889-.452c.019-.075.038-.244.057-.507.018-.282.037-.62.056-1.016.019-.394.028-.827.028-1.297l.028-2.115c0-.564-.018-1.071-.056-1.523a12.31 12.31 0 00-.197-1.382l-1.89-.394v-1.27l5.189-1.269.762.48a52.675 52.675 0 00-.141 1.833 65.836 65.836 0 00-.029 2.059v3.553c0 .62.01 1.213.029 1.777.037.564.075.92.112 1.071l1.89.452-.085 1.325h-7.558zm3.807-14.862c-.752 0-1.344-.226-1.776-.677-.433-.47-.649-1.006-.649-1.607 0-.602.216-1.128.649-1.58.432-.47 1.024-.705 1.776-.705.753 0 1.335.235 1.749.705.414.452.62.978.62 1.58 0 .601-.206 1.137-.62 1.607-.414.451-.996.677-1.749.677zm9.645 15.088c-.789 0-1.57-.085-2.34-.254-.771-.188-1.42-.423-1.946-.705l-.141-3.3h1.805l.592 2.03c.714.414 1.457.621 2.228.621.583 0 1.024-.113 1.325-.338.301-.245.451-.564.451-.96 0-.413-.169-.77-.507-1.07-.32-.302-.987-.64-2.003-1.016-1.391-.508-2.359-1.062-2.904-1.664-.545-.602-.818-1.353-.818-2.256 0-.77.235-1.448.705-2.03.47-.602 1.128-1.063 1.974-1.382.846-.339 1.824-.508 2.933-.508.602 0 1.213.056 1.833.17.62.112 1.128.263 1.523.45l.338 3.272h-1.805l-.62-2.003a2.21 2.21 0 00-.705-.253 2.766 2.766 0 00-.761-.113c-.564 0-1.025.122-1.382.366a1.156 1.156 0 00-.508.988c0 .45.207.827.62 1.128.414.3 1.166.676 2.257 1.128 1.24.507 2.124 1.053 2.65 1.635.527.564.79 1.27.79 2.115 0 1.185-.517 2.144-1.551 2.877-1.034.714-2.378 1.072-4.033 1.072zm6.684-.226l-.085-1.325 1.89-.452c.019-.075.037-.244.056-.507.019-.282.038-.62.057-1.016.018-.394.028-.827.028-1.297l.028-2.115c0-.564-.019-1.071-.056-1.523a12.317 12.317 0 00-.198-1.382l-1.889-.394v-1.27l5.189-1.269.761.48a58.09 58.09 0 00-.141 1.833 66.089 66.089 0 00-.028 2.059v3.553c0 .62.009 1.213.028 1.777.038.564.075.92.113 1.071l1.89.452-.085 1.325h-7.558zm3.807-14.862c-.752 0-1.344-.226-1.777-.677-.432-.47-.648-1.006-.648-1.607 0-.602.216-1.128.648-1.58.433-.47 1.025-.705 1.777-.705s1.335.235 1.749.705c.413.452.62.978.62 1.58 0 .601-.207 1.137-.62 1.607-.414.451-.997.677-1.749.677zM153.76 58l-.085-1.297 1.748-.48c.019-.075.038-.244.057-.507.019-.264.037-.593.056-.987.019-.414.028-.856.028-1.326l.029-2.143c0-.583-.019-1.09-.057-1.523a12.233 12.233 0 00-.197-1.354l-1.805-.394v-1.27l4.963-1.269.762.48-.169 1.664.084.028c.583-.752 1.222-1.307 1.918-1.664a4.776 4.776 0 012.256-.564c.808 0 1.523.198 2.143.592.639.395 1.147.978 1.523 1.749.376.752.564 1.664.564 2.735v2.905c0 .64.01 1.24.028 1.805.019.545.057.893.113 1.043l1.749.48-.085 1.297h-7.079l-.084-1.297 1.607-.48c.038-.169.066-.404.085-.705.019-.32.028-.667.028-1.043.019-.376.028-.733.028-1.072v-2.369c0-.714-.112-1.288-.338-1.72-.207-.451-.489-.78-.846-.987-.338-.207-.733-.31-1.185-.31-.47 0-.911.103-1.325.31a3.439 3.439 0 00-1.072.902v4.146c0 .64.01 1.24.029 1.805.037.545.075.893.112 1.043l1.721.48-.085 1.297h-7.219zm22.871 6.43c-1.993 0-3.554-.273-4.682-.818-1.109-.545-1.664-1.297-1.664-2.256 0-.62.329-1.203.987-1.748.677-.527 1.589-.95 2.736-1.27l1.213.113c-.452.32-.809.686-1.072 1.1a2.383 2.383 0 00-.395 1.297c0 .64.263 1.128.79 1.467.545.357 1.335.536 2.369.536 1.015 0 1.861-.226 2.538-.677.677-.433 1.015-.978 1.015-1.636 0-.47-.169-.827-.508-1.071-.338-.226-.921-.377-1.748-.452l-3.582-.31-.253-.141c-.959 0-1.702-.188-2.228-.564-.527-.357-.79-.827-.79-1.41 0-.602.291-1.156.874-1.664.602-.526 1.42-.94 2.454-1.24l.451.479a1.986 1.986 0 00-.508.45c-.131.151-.197.302-.197.452 0 .226.066.395.197.508.151.112.358.188.621.225l4.371.423c1.391.132 2.425.498 3.102 1.1.677.602 1.015 1.391 1.015 2.37 0 .883-.31 1.682-.93 2.396-.602.715-1.448 1.279-2.538 1.692-1.072.433-2.285.649-3.638.649zm.113-9.758c-1.129 0-2.125-.188-2.99-.564-.846-.395-1.504-.93-1.974-1.607-.47-.696-.705-1.495-.705-2.397 0-.922.254-1.74.762-2.454.507-.714 1.193-1.278 2.058-1.692.884-.413 1.871-.62 2.961-.62 1.072 0 2.021.216 2.849.648.846.414 1.513.978 2.002 1.692.489.715.733 1.523.733 2.426 0 .883-.244 1.673-.733 2.369-.489.676-1.156 1.212-2.002 1.607-.846.395-1.833.592-2.961.592zm.225-1.635c.583 0 1.044-.254 1.382-.762.338-.526.508-1.231.508-2.115 0-.959-.188-1.73-.564-2.312-.358-.583-.846-.875-1.467-.875-.564 0-1.025.273-1.382.818-.357.545-.536 1.27-.536 2.172 0 .92.188 1.663.564 2.228.376.564.875.846 1.495.846zm7.022-5.105l-3.807-.366-.846-1.326 4.653-.564v2.256zm1.636 15.031l-.423-.817c.752-.339 1.325-.752 1.72-1.241.414-.47.621-1.025.621-1.664 0-.282-.057-.517-.17-.705a1.949 1.949 0 00-.366-.508l-.451-.395a2.608 2.608 0 01-.395-.507 1.836 1.836 0 01-.141-.762c0-.395.15-.742.451-1.043.32-.32.724-.48 1.213-.48.338 0 .648.094.93.282.301.189.536.47.705.846.188.377.282.856.282 1.439 0 .752-.169 1.494-.507 2.228a6.176 6.176 0 01-1.382 1.974 6.444 6.444 0 01-2.087 1.353zM5.731 90.226A9.85 9.85 0 013.645 90c-.696-.17-1.288-.385-1.777-.649l-.141-3.017h1.382l.564 2.03c.658.451 1.41.677 2.256.677.64 0 1.156-.15 1.55-.451.396-.32.593-.743.593-1.27 0-.488-.178-.911-.536-1.268-.357-.376-1.053-.78-2.087-1.213-1.334-.583-2.274-1.137-2.82-1.664-.545-.545-.818-1.24-.818-2.087 0-.676.198-1.269.593-1.776.413-.527.977-.93 1.692-1.213.714-.3 1.541-.451 2.481-.451a9.45 9.45 0 011.608.14c.545.095.996.217 1.354.368l.31 2.932H8.523l-.676-1.917a2.208 2.208 0 00-.677-.254 3.067 3.067 0 00-.846-.113c-.658 0-1.185.16-1.58.48a1.42 1.42 0 00-.592 1.184c0 .564.216 1.025.649 1.382.432.338 1.194.761 2.284 1.269 1.24.564 2.106 1.119 2.595 1.664.488.545.733 1.203.733 1.974 0 1.015-.442 1.852-1.326 2.51-.883.639-2.002.959-3.356.959zM12.302 90l-.056-1.043 1.89-.395c.018-.075.028-.207.028-.395.018-.188.037-.489.056-.903.019-.413.028-.987.028-1.72v-1.861c0-.77-.019-1.476-.056-2.115a16.305 16.305 0 00-.141-1.495l-1.89-.395v-.93l4.005-1.044.423.395a57.705 57.705 0 00-.141 1.72 60.171 60.171 0 00-.028 1.974v3.554c0 .865.01 1.58.028 2.143.037.564.075.921.113 1.072l1.89.395L18.393 90h-6.092zm3.046-15.483c-.47 0-.884-.16-1.24-.479a1.564 1.564 0 01-.508-1.184c0-.47.169-.865.507-1.185.357-.32.771-.48 1.241-.48.489 0 .893.16 1.213.48.32.32.48.715.48 1.185 0 .47-.16.865-.48 1.184-.32.32-.724.48-1.213.48zM20.001 90l-.056-1.015 1.748-.423c.02-.132.028-.301.028-.508.02-.207.038-.508.057-.902.019-.395.028-.931.028-1.608l.028-2.2c.02-.394.01-.798-.028-1.212-.019-.414-.047-.8-.085-1.156a14.558 14.558 0 00-.112-.903l-1.805-.395v-.93l3.779-1.044.48.452-.142 1.522.085.029c.583-.734 1.184-1.26 1.805-1.58a4.31 4.31 0 011.946-.48c.658 0 1.297.18 1.917.537.62.357 1.128.902 1.523 1.635.414.734.62 1.674.62 2.82l.029 2.99c0 .677.01 1.288.028 1.833.038.526.085.893.141 1.1l1.692.423L33.622 90h-5.499l-.084-1.015 1.55-.423a10.44 10.44 0 00.085-1.41c.02-.358.029-.8.029-1.326l-.029-3.102c0-.808-.131-1.457-.395-1.946-.244-.489-.573-.846-.987-1.071a2.726 2.726 0 00-1.325-.339c-.583 0-1.128.141-1.636.423-.507.282-.959.724-1.353 1.326v4.23c0 .865.009 1.57.028 2.115.037.526.075.893.113 1.1l1.663.423L25.698 90H20zm15.906 0l-.085-1.015 1.608-.423c.018-.15.028-.339.028-.564a25.929 25.929 0 00.085-2.171v-3.075c0-.827-.142-1.485-.424-1.974-.282-.489-.639-.846-1.071-1.071a2.62 2.62 0 00-1.27-.339c-.639 0-1.23.16-1.776.48-.545.32-1.034.808-1.467 1.466L31 80.271c.658-.903 1.353-1.56 2.087-1.975a4.684 4.684 0 012.368-.648c.79 0 1.505.188 2.144.564.639.376 1.147.921 1.523 1.636.376.714.564 1.579.564 2.594v3.187c0 .677.01 1.288.028 1.833.038.526.075.893.113 1.1l1.748.423L41.52 90h-5.612zm7.22 6.204l-.057-1.015 1.748-.423v-.508a27.675 27.675 0 00.085-2.256c.019-.526.028-1.137.028-1.833l.056-6.965c0-.564-.028-1.138-.084-1.72a16.046 16.046 0 00-.141-1.41l-1.805-.396v-.93l3.779-1.044.48.452-.142 1.55h.085c.526-.676 1.1-1.184 1.72-1.522a4.153 4.153 0 012.059-.536c1.034 0 1.946.263 2.735.79.809.507 1.439 1.212 1.89 2.115.47.883.705 1.908.705 3.073 0 1.241-.282 2.36-.846 3.356a6.356 6.356 0 01-2.313 2.37c-.958.563-2.049.845-3.27.845-.452 0-.922-.047-1.411-.14a9.22 9.22 0 01-1.297-.339v2.115c0 .715.01 1.316.028 1.805l.085 1.128 2.312.367-.056 1.071h-6.374zm6.796-7.388c.752 0 1.41-.18 1.974-.536.583-.358 1.034-.884 1.354-1.58.338-.695.517-1.541.535-2.538.02-.902-.131-1.701-.45-2.397-.302-.695-.734-1.24-1.298-1.635a3.04 3.04 0 00-1.89-.62c-.583 0-1.128.14-1.635.422-.508.263-.969.658-1.382 1.185v6.824a4.2 4.2 0 001.297.649c.489.15.987.225 1.495.225zM58.243 90l-.057-1.043 1.833-.395c.037-.188.066-.498.084-.93a41.5 41.5 0 00.029-1.721c.018-.715.028-1.589.028-2.623v-3.525c0-.715-.01-1.448-.028-2.2 0-.752-.01-1.457-.029-2.115 0-.677-.01-1.25-.028-1.72 0-.489-.01-.808-.028-.959l-2.087-.282-.056-.902 4.032-1.157.536.395-.056 2.37c-.019.789-.038 1.663-.057 2.622v3.469l-.028 4.54c0 1.11.01 2.115.028 3.017.038.884.076 1.458.113 1.72l1.833.396L64.25 90h-6.007zm7.557 0l-.056-1.043 1.89-.395c.018-.075.027-.207.027-.395.02-.188.038-.489.057-.903.019-.413.028-.987.028-1.72v-1.861c0-.77-.019-1.476-.056-2.115a16.305 16.305 0 00-.141-1.495l-1.89-.395v-.93l4.005-1.044.423.395a57.705 57.705 0 00-.141 1.72 60.171 60.171 0 00-.029 1.974v3.554c0 .865.01 1.58.029 2.143.037.564.075.921.112 1.072l1.89.395L71.892 90H65.8zm3.046-15.483c-.47 0-.884-.16-1.241-.479a1.564 1.564 0 01-.508-1.184c0-.47.17-.865.508-1.185.357-.32.77-.48 1.24-.48.49 0 .894.16 1.213.48.32.32.48.715.48 1.185 0 .47-.16.865-.48 1.184-.32.32-.724.48-1.212.48zM73.527 90l-.056-1.015 1.748-.423c.019-.207.028-.47.028-.79.02-.32.029-.752.029-1.297v-9.617c0-1.447.291-2.65.874-3.61.601-.977 1.391-1.71 2.369-2.2a7.264 7.264 0 013.243-.732c1.222 0 2.2.244 2.933.733.733.47 1.1 1.015 1.1 1.635 0 .358-.104.64-.31.847-.207.206-.499.31-.875.31-.3 0-.583-.057-.846-.17-.244-.131-.536-.376-.874-.733l-1.861-1.861 1.579.48c-.884-.17-1.72-.095-2.51.225-.79.3-1.429.827-1.918 1.58-.489.751-.733 1.738-.733 2.96v9.532a248.057 248.057 0 00.113 2.708l1.89.423L79.364 90h-5.838zm7.67 0l-.056-1.043 1.89-.395c.019-.17.037-.367.056-.593.02-.244.028-.554.028-.93.02-.376.029-.874.029-1.495v-2.481c0-.997-.02-1.777-.057-2.341a31.685 31.685 0 00-.112-1.382h-9.73v-.93l2.03-.508 1.467.028H83.2c.357 0 .724-.01 1.1-.028l1.128-.057-.056 1.777a69.33 69.33 0 00-.029 2.171V86.843c.02.432.038.79.057 1.071.037.282.066.498.084.649l1.89.395L87.289 90h-6.091zm13.82.226c-1.091 0-2.078-.245-2.962-.734-.865-.488-1.56-1.184-2.087-2.087-.507-.92-.761-2.002-.761-3.243 0-1.335.273-2.49.818-3.468.545-.978 1.26-1.73 2.143-2.257a5.141 5.141 0 012.848-.79c1.467.02 2.614.508 3.441 1.467.827.96 1.24 2.313 1.24 4.061v.508H91.04v-1.24h6.797l-.31.366v-.593c0-1.09-.245-1.927-.734-2.51-.489-.582-1.156-.874-2.002-.874-.527 0-1.034.16-1.523.48-.489.3-.884.77-1.184 1.41-.301.62-.452 1.41-.452 2.369v.338c0 1.542.376 2.745 1.128 3.61.771.865 1.758 1.297 2.962 1.297.657 0 1.25-.132 1.776-.395.527-.263 1.034-.686 1.523-1.269l.705.649c-.526.978-1.194 1.71-2.002 2.2-.809.47-1.711.705-2.708.705zm16.497.084l-.423-.366.028-1.834-.084-.028c-.564.79-1.147 1.345-1.749 1.664-.583.32-1.203.48-1.861.48-1.072 0-2.031-.245-2.877-.734a5.552 5.552 0 01-1.974-2.087c-.488-.883-.733-1.898-.733-3.045 0-.997.169-1.909.508-2.736a6.341 6.341 0 011.382-2.115 6.377 6.377 0 012.03-1.382 5.926 5.926 0 012.341-.48c.526 0 1.062.067 1.607.198.545.132 1.006.339 1.382.62 0-.338-.009-.78-.028-1.325 0-.545-.009-1.109-.028-1.692 0-.601-.01-1.128-.028-1.58 0-.47-.01-.789-.029-.958l-2.199-.395-.057-.93 4.146-1.157.507.395a196.26 196.26 0 00-.112 6.796l-.029 6.487c0 .959.019 1.786.057 2.482.056.677.094 1.156.113 1.438l1.804.451v.93l-3.694.903zm-3.384-1.974c.545 0 1.053-.113 1.523-.338.47-.245.949-.668 1.438-1.27v-6.063c-.357-.639-.808-1.09-1.354-1.353a3.731 3.731 0 00-1.635-.395c-1.185 0-2.115.442-2.792 1.325-.658.865-.987 1.993-.987 3.384 0 1.486.366 2.642 1.1 3.47.752.826 1.654 1.24 2.707 1.24zm11.083 1.946c-.508 0-.931-.16-1.269-.48a1.69 1.69 0 01-.508-1.24c0-.339.076-.63.226-.874.15-.264.357-.47.62-.62.282-.151.593-.227.931-.227.508 0 .931.17 1.269.508.339.32.508.724.508 1.213 0 .489-.169.902-.508 1.24-.338.32-.761.48-1.269.48zM6.81 120.13c-1.215 0-2.235-.228-3.059-.683a4.434 4.434 0 01-1.839-2.018c-.4-.878-.602-1.936-.602-3.173 0-1.215.207-2.256.619-3.124.423-.878 1.025-1.551 1.806-2.017.792-.478 1.74-.716 2.847-.716.835 0 1.551.135 2.148.407a5.15 5.15 0 011.66 1.155l-.358.569a5.775 5.775 0 00-1.058-.829 3.626 3.626 0 00-1.074-.472 4.86 4.86 0 00-1.334-.163c-1.443 0-2.56.456-3.352 1.367-.78.911-1.171 2.191-1.171 3.84 0 1.681.385 2.966 1.155 3.856.78.889 1.985 1.334 3.612 1.334.618 0 1.193-.054 1.725-.163a7.64 7.64 0 001.53-.504l-.196.586v-4.556H6.712v-.635h3.808v5.142c-.412.228-.966.418-1.66.569a9.417 9.417 0 01-2.05.228zm6.584-.13v-8.135h.684V120h-.684zm-.179-10.267v-1.025h1.042v1.025h-1.042zM19.345 120l-3.449-8.135h.781l3.254 7.875h-.39l3.27-7.875h.765L20.126 120h-.78zm9.318.13c-1.193 0-2.142-.363-2.847-1.09-.705-.738-1.058-1.763-1.058-3.075 0-.868.157-1.616.472-2.246a3.527 3.527 0 011.318-1.464c.575-.347 1.231-.521 1.969-.521.705 0 1.301.152 1.79.456.498.293.878.721 1.138 1.285.272.554.407 1.215.407 1.985v.44h-6.655v-.619h6.297l-.276.212c0-.976-.228-1.741-.684-2.294-.455-.564-1.133-.846-2.034-.846-.954 0-1.703.325-2.245.976-.531.651-.797 1.502-.797 2.554v.082c0 1.15.282 2.028.846 2.636.564.596 1.35.895 2.36.895.509 0 .986-.082 1.43-.244.446-.163.874-.44 1.286-.83l.342.537c-.336.368-.781.656-1.334.862a4.903 4.903 0 01-1.725.309zm9.063 3.563l-.163-.634c.51-.119.928-.271 1.253-.456.337-.173.619-.401.846-.683.228-.282.434-.635.619-1.058l.423-.976-.017.342-3.546-8.363h.78l3.27 7.875h-.373l3.221-7.875h.781l-3.79 9.014a5.843 5.843 0 01-.635 1.171 3.87 3.87 0 01-.749.814c-.26.217-.553.39-.878.52a5.455 5.455 0 01-1.042.309zm11.889-3.563c-.738 0-1.378-.168-1.92-.504-.543-.336-.96-.819-1.253-1.448-.293-.629-.44-1.378-.44-2.246 0-.868.147-1.616.44-2.245.293-.629.71-1.112 1.253-1.448.542-.336 1.182-.505 1.92-.505.737 0 1.377.169 1.92.505.542.336.96.819 1.252 1.448.304.629.456 1.377.456 2.245 0 .868-.152 1.617-.456 2.246-.292.629-.71 1.112-1.252 1.448-.543.336-1.183.504-1.92.504zm0-.634c.889 0 1.6-.304 2.131-.912.532-.618.797-1.502.797-2.652 0-1.15-.265-2.028-.797-2.636-.532-.618-1.242-.927-2.131-.927-.89 0-1.6.309-2.132.927-.52.608-.78 1.486-.78 2.636 0 1.15.26 2.034.78 2.652.532.608 1.242.912 2.132.912zm8.765.634c-.944 0-1.66-.255-2.148-.765-.488-.509-.732-1.29-.732-2.343v-5.157h.684v5.092c0 .879.179 1.524.537 1.937.358.401.91.602 1.66.602.834 0 1.502-.266 2-.798.5-.542.749-1.258.749-2.147v-4.686h.683V120h-.667v-1.985h.196c-.217.672-.592 1.193-1.123 1.562-.52.369-1.134.553-1.839.553zm6.257-.13v-6.281c0-.303-.01-.612-.032-.927-.011-.315-.033-.624-.065-.927h.667l.097 1.773-.146.016c.108-.434.304-.792.586-1.074.293-.282.623-.493.992-.634a3.21 3.21 0 011.497-.195c.13.01.25.032.358.065l-.032.634a1.8 1.8 0 00-.358-.065 4.281 4.281 0 00-.391-.016c-.499 0-.938.13-1.318.39a2.67 2.67 0 00-.862.944c-.206.369-.31.732-.31 1.09V120h-.683zm11.942.13c-.662 0-1.171-.206-1.53-.618-.347-.423-.52-1.063-.52-1.92v-5.142h-1.627v-.585h1.627v-2.327l.683-.261v2.588h2.473v.585h-2.473v4.995c0 .716.109 1.237.326 1.562.228.326.59.489 1.09.489a2.44 2.44 0 001.025-.212v.651c-.12.054-.282.098-.488.13-.196.043-.39.065-.586.065zm6.172 0c-1.193 0-2.142-.363-2.847-1.09-.705-.738-1.058-1.763-1.058-3.075 0-.868.157-1.616.472-2.246a3.527 3.527 0 011.318-1.464c.575-.347 1.231-.521 1.969-.521.705 0 1.301.152 1.79.456.499.293.878.721 1.139 1.285.27.554.406 1.215.406 1.985v.44h-6.655v-.619h6.297l-.276.212c0-.976-.228-1.741-.684-2.294-.455-.564-1.133-.846-2.034-.846-.954 0-1.703.325-2.245.976-.532.651-.797 1.502-.797 2.554v.082c0 1.15.282 2.028.846 2.636.564.596 1.35.895 2.36.895.509 0 .986-.082 1.431-.244.445-.163.873-.44 1.285-.83l.342.537c-.336.368-.78.656-1.334.862a4.903 4.903 0 01-1.725.309zm8.51 0c-.737 0-1.377-.168-1.92-.504-.542-.336-.96-.819-1.253-1.448-.293-.629-.439-1.378-.439-2.246 0-.878.146-1.627.44-2.245.303-.629.726-1.112 1.268-1.448.543-.336 1.177-.505 1.904-.505.77 0 1.427.201 1.969.602.553.402.916.955 1.09 1.66h-.195l.162-2.131h.668l-.098.894c-.022.293-.033.581-.033.863V120h-.683v-2.131h.179c-.173.705-.537 1.258-1.09 1.659s-1.21.602-1.969.602zm0-.634c.89 0 1.595-.304 2.115-.912.521-.618.781-1.502.781-2.652 0-1.15-.26-2.028-.78-2.636-.521-.618-1.226-.927-2.116-.927-.89 0-1.6.309-2.131.927-.521.608-.781 1.486-.781 2.636 0 1.15.26 2.034.78 2.652.532.608 1.243.912 2.132.912zm6.427.504v-6.378c0-.282-.016-.57-.049-.863a27.523 27.523 0 00-.08-.894h.666l.147 1.952h-.196c.206-.672.548-1.188 1.025-1.546.478-.358 1.058-.537 1.741-.537.716 0 1.291.174 1.725.521.434.336.716.862.846 1.578h-.228a2.827 2.827 0 011.042-1.529c.52-.38 1.144-.57 1.871-.57.868 0 1.529.25 1.985.749.456.499.683 1.28.683 2.343V120h-.683v-5.109c0-.879-.157-1.519-.472-1.92-.314-.401-.824-.602-1.529-.602-.792 0-1.421.266-1.888.797-.455.532-.683 1.248-.683 2.148V120h-.684v-5.109c0-.879-.157-1.519-.471-1.92-.315-.401-.825-.602-1.53-.602-.792 0-1.415.266-1.871.797-.456.532-.683 1.248-.683 2.148V120h-.684zm20.442.13c-.661 0-1.171-.206-1.529-.618-.347-.423-.521-1.063-.521-1.92v-5.142h-1.627v-.585h1.627v-2.327l.683-.261v2.588h2.474v.585h-2.474v4.995c0 .716.109 1.237.326 1.562.228.326.591.489 1.09.489a2.444 2.444 0 001.025-.212v.651a1.93 1.93 0 01-.488.13 2.72 2.72 0 01-.586.065zm2.9-.13v-8.135h.683V120h-.683zm-.179-10.267v-1.025h1.041v1.025h-1.041zM124.573 120v-6.378c0-.282-.016-.57-.048-.863a27.001 27.001 0 00-.082-.894h.667l.147 1.952h-.196c.207-.672.548-1.188 1.026-1.546.477-.358 1.057-.537 1.741-.537.715 0 1.29.174 1.724.521.434.336.716.862.846 1.578h-.227a2.82 2.82 0 011.041-1.529c.521-.38 1.144-.57 1.871-.57.868 0 1.53.25 1.985.749.456.499.683 1.28.683 2.343V120h-.683v-5.109c0-.879-.157-1.519-.472-1.92-.314-.401-.824-.602-1.529-.602-.792 0-1.421.266-1.888.797-.455.532-.683 1.248-.683 2.148V120h-.683v-5.109c0-.879-.158-1.519-.472-1.92-.315-.401-.825-.602-1.53-.602-.792 0-1.415.266-1.871.797-.455.532-.683 1.248-.683 2.148V120h-.684zm17.351.13c-1.193 0-2.142-.363-2.848-1.09-.705-.738-1.057-1.763-1.057-3.075 0-.868.157-1.616.472-2.246a3.523 3.523 0 011.318-1.464c.575-.347 1.231-.521 1.968-.521.706 0 1.302.152 1.79.456.499.293.879.721 1.139 1.285.271.554.407 1.215.407 1.985v.44h-6.655v-.619h6.297l-.277.212c0-.976-.227-1.741-.683-2.294-.456-.564-1.134-.846-2.034-.846-.954 0-1.703.325-2.245.976-.532.651-.797 1.502-.797 2.554v.082c0 1.15.282 2.028.846 2.636.564.596 1.35.895 2.359.895.51 0 .987-.082 1.432-.244.444-.163.873-.44 1.285-.83l.342.537c-.336.368-.781.656-1.334.862a4.91 4.91 0 01-1.725.309zm-137.75 20a5.332 5.332 0 01-1.725-.276c-.531-.196-.965-.461-1.301-.798l.341-.537c.39.337.814.586 1.27.749.455.152.938.228 1.448.228.737 0 1.301-.141 1.692-.423a1.35 1.35 0 00.586-1.156c0-.379-.125-.683-.375-.911-.25-.238-.661-.417-1.236-.537l-1.416-.309c-.694-.163-1.21-.423-1.546-.781-.336-.358-.504-.803-.504-1.334 0-.445.114-.841.342-1.188.238-.347.575-.618 1.009-.813.444-.207.965-.31 1.562-.31.574 0 1.1.098 1.578.293.488.196.878.467 1.171.814l-.358.537a3.162 3.162 0 00-1.09-.749 3.253 3.253 0 00-1.301-.26c-.706 0-1.248.152-1.628.456-.368.303-.553.705-.553 1.204 0 .379.114.688.342.927.239.239.613.418 1.123.537l1.415.325c.738.174 1.286.429 1.644.765.358.326.536.759.536 1.302 0 .455-.124.851-.374 1.188-.25.336-.602.596-1.057.781-.456.184-.987.276-1.595.276zm8.53 0c-.739 0-1.379-.168-1.92-.504-.543-.336-.96-.819-1.254-1.448-.293-.629-.439-1.378-.439-2.246 0-.878.146-1.627.44-2.245.303-.629.726-1.112 1.268-1.448.543-.336 1.177-.505 1.904-.505.77 0 1.427.201 1.969.602.553.402.916.955 1.09 1.66h-.195l.162-2.131h.668l-.098.894c-.022.293-.033.581-.033.863V140h-.683v-2.131h.179c-.174.705-.537 1.258-1.09 1.659s-1.21.602-1.969.602zm0-.634c.889 0 1.594-.304 2.114-.912.521-.618.781-1.502.781-2.652 0-1.15-.26-2.028-.78-2.636-.521-.618-1.226-.927-2.116-.927-.89 0-1.6.309-2.131.927-.521.608-.781 1.486-.781 2.636 0 1.15.26 2.034.78 2.652.532.608 1.243.912 2.132.912zm8.755.504l-3.45-8.135h.782l3.254 7.875h-.39l3.27-7.875h.764L22.24 140h-.78zm6.045 0v-8.135h.683V140h-.683zm-.179-10.267v-1.025h1.041v1.025h-1.04zM31.047 140v-6.378c0-.282-.016-.57-.048-.863a27.25 27.25 0 00-.082-.894h.667l.147 1.952h-.196c.228-.683.608-1.199 1.14-1.546.542-.358 1.176-.537 1.903-.537.966 0 1.692.25 2.18.749.5.499.749 1.28.749 2.343V140h-.683v-5.109c0-.879-.18-1.519-.537-1.92-.358-.401-.922-.602-1.693-.602-.878 0-1.578.266-2.099.797-.51.532-.764 1.248-.764 2.148V140h-.684zm12.697 3.628a5.885 5.885 0 01-1.871-.292 4.759 4.759 0 01-1.562-.847l.325-.553c.358.261.694.467 1.009.619.314.151.64.26.976.325.347.076.727.114 1.14.114.845 0 1.485-.233 1.919-.7.445-.455.667-1.112.667-1.969v-2.782h.18c-.174.716-.543 1.275-1.107 1.676-.553.401-1.215.602-1.985.602-.749 0-1.4-.163-1.953-.488a3.421 3.421 0 01-1.269-1.416c-.293-.607-.44-1.323-.44-2.147 0-.825.147-1.535.44-2.132.304-.607.727-1.074 1.27-1.399.552-.336 1.203-.505 1.952-.505.77 0 1.431.201 1.985.602.564.402.933.966 1.106 1.693l-.179-.212.147-1.952h.667l-.098.894c-.022.293-.032.581-.032.863v6.59c0 1.128-.277 1.979-.83 2.554-.553.575-1.373.862-2.457.862zm-.326-4.442c.9 0 1.611-.298 2.132-.894.531-.608.797-1.449.797-2.522 0-1.074-.266-1.91-.797-2.506-.52-.597-1.231-.895-2.132-.895-.9 0-1.616.298-2.147.895-.532.596-.798 1.432-.798 2.506 0 1.073.266 1.914.798 2.522.531.596 1.247.894 2.147.894zm12.902.944c-.662 0-1.172-.206-1.53-.618-.347-.423-.52-1.063-.52-1.92v-5.142h-1.627v-.585h1.627v-2.327l.683-.261v2.588h2.473v.585h-2.473v4.995c0 .716.108 1.237.325 1.562.228.326.592.489 1.09.489a2.44 2.44 0 001.026-.212v.651c-.12.054-.282.098-.488.13-.196.043-.39.065-.586.065zm5.88 0c-.739 0-1.379-.168-1.92-.504-.543-.336-.96-.819-1.254-1.448-.293-.629-.44-1.378-.44-2.246 0-.868.147-1.616.44-2.245.293-.629.71-1.112 1.253-1.448.542-.336 1.182-.505 1.92-.505s1.378.169 1.92.505c.542.336.96.819 1.253 1.448.304.629.456 1.377.456 2.245 0 .868-.152 1.617-.456 2.246-.293.629-.71 1.112-1.253 1.448-.542.336-1.182.504-1.92.504zm0-.634c.889 0 1.6-.304 2.13-.912.532-.618.798-1.502.798-2.652 0-1.15-.266-2.028-.797-2.636-.532-.618-1.242-.927-2.132-.927-.89 0-1.6.309-2.131.927-.521.608-.781 1.486-.781 2.636 0 1.15.26 2.034.78 2.652.532.608 1.243.912 2.132.912zm8.993.634c-.738 0-1.378-.168-1.92-.504-.543-.336-.96-.819-1.253-1.448-.293-.629-.44-1.378-.44-2.246 0-.868.147-1.616.44-2.245.293-.629.71-1.112 1.253-1.448.542-.336 1.182-.505 1.92-.505.737 0 1.377.169 1.92.505.542.336.96.819 1.252 1.448.304.629.456 1.377.456 2.245 0 .868-.152 1.617-.456 2.246-.292.629-.71 1.112-1.252 1.448-.543.336-1.183.504-1.92.504zm0-.634c.89 0 1.6-.304 2.131-.912.532-.618.797-1.502.797-2.652 0-1.15-.265-2.028-.797-2.636-.531-.618-1.242-.927-2.131-.927-.89 0-1.6.309-2.132.927-.52.608-.78 1.486-.78 2.636 0 1.15.26 2.034.78 2.652.532.608 1.242.912 2.132.912zm5.934.504v-11.975h.684V140h-.684zm6.082.13a5.332 5.332 0 01-1.725-.276c-.531-.196-.965-.461-1.302-.798l.342-.537c.39.337.814.586 1.27.749.455.152.938.228 1.447.228.738 0 1.302-.141 1.692-.423a1.35 1.35 0 00.586-1.156c0-.379-.125-.683-.374-.911-.25-.238-.662-.417-1.237-.537l-1.415-.309c-.694-.163-1.21-.423-1.546-.781-.336-.358-.504-.803-.504-1.334 0-.445.114-.841.341-1.188.239-.347.575-.618 1.01-.813.444-.207.965-.31 1.561-.31.575 0 1.101.098 1.578.293.489.196.88.467 1.172.814l-.358.537a3.162 3.162 0 00-1.09-.749 3.254 3.254 0 00-1.302-.26c-.705 0-1.247.152-1.627.456-.369.303-.553.705-.553 1.204 0 .379.114.688.342.927.238.239.612.418 1.122.537l1.416.325c.737.174 1.285.429 1.643.765.358.326.537.759.537 1.302 0 .455-.125.851-.374 1.188-.25.336-.602.596-1.058.781-.455.184-.987.276-1.594.276zm11.913 0c-.662 0-1.171-.206-1.53-.618-.346-.423-.52-1.063-.52-1.92v-5.142h-1.627v-.585h1.627v-2.327l.683-.261v2.588h2.474v.585h-2.474v4.995c0 .716.109 1.237.326 1.562.228.326.591.489 1.09.489a2.44 2.44 0 001.025-.212v.651c-.12.054-.282.098-.488.13-.195.043-.39.065-.586.065zm5.879 0c-.737 0-1.377-.168-1.92-.504-.542-.336-.96-.819-1.252-1.448-.293-.629-.44-1.378-.44-2.246 0-.868.147-1.616.44-2.245.292-.629.71-1.112 1.252-1.448.543-.336 1.183-.505 1.92-.505.738 0 1.378.169 1.92.505.543.336.96.819 1.253 1.448.304.629.456 1.377.456 2.245 0 .868-.152 1.617-.456 2.246-.293.629-.71 1.112-1.253 1.448-.542.336-1.182.504-1.92.504zm0-.634c.89 0 1.6-.304 2.132-.912.531-.618.797-1.502.797-2.652 0-1.15-.266-2.028-.797-2.636-.532-.618-1.242-.927-2.132-.927-.889 0-1.6.309-2.131.927-.52.608-.781 1.486-.781 2.636 0 1.15.26 2.034.78 2.652.532.608 1.243.912 2.132.912zm12.541.634a5.339 5.339 0 01-1.725-.276c-.531-.196-.965-.461-1.301-.798l.341-.537c.391.337.814.586 1.269.749a4.55 4.55 0 001.448.228c.738 0 1.302-.141 1.693-.423.39-.282.585-.668.585-1.156 0-.379-.124-.683-.374-.911-.249-.238-.661-.417-1.236-.537l-1.416-.309c-.694-.163-1.209-.423-1.546-.781-.336-.358-.504-.803-.504-1.334 0-.445.114-.841.342-1.188.238-.347.574-.618 1.008-.813.445-.207.966-.31 1.562-.31.575 0 1.101.098 1.579.293.488.196.878.467 1.171.814l-.358.537a3.16 3.16 0 00-1.09-.749 3.252 3.252 0 00-1.302-.26c-.705 0-1.247.152-1.627.456-.369.303-.553.705-.553 1.204 0 .379.114.688.342.927.238.239.613.418 1.122.537l1.416.325c.738.174 1.285.429 1.643.765.358.326.537.759.537 1.302 0 .455-.124.851-.374 1.188-.249.336-.602.596-1.058.781-.455.184-.987.276-1.594.276zm8.822 0c-1.193 0-2.143-.363-2.848-1.09-.705-.738-1.057-1.763-1.057-3.075 0-.868.157-1.616.472-2.246a3.523 3.523 0 011.318-1.464c.575-.347 1.231-.521 1.968-.521.705 0 1.302.152 1.79.456.499.293.879.721 1.139 1.285.271.554.407 1.215.407 1.985v.44h-6.655v-.619h6.297l-.277.212c0-.976-.227-1.741-.683-2.294-.456-.564-1.134-.846-2.034-.846-.954 0-1.703.325-2.245.976-.532.651-.798 1.502-.798 2.554v.082c0 1.15.282 2.028.847 2.636.564.596 1.35.895 2.359.895.51 0 .987-.082 1.432-.244.444-.163.873-.44 1.285-.83l.342.537c-.337.368-.781.656-1.334.862a4.91 4.91 0 01-1.725.309zm5.418-.13v-6.281c0-.303-.011-.612-.032-.927a13.215 13.215 0 00-.065-.927h.667l.097 1.773-.146.016c.108-.434.304-.792.586-1.074.293-.282.623-.493.992-.634a3.213 3.213 0 011.497-.195c.13.01.25.032.358.065l-.032.634a1.81 1.81 0 00-.358-.065 4.303 4.303 0 00-.391-.016c-.499 0-.938.13-1.318.39-.369.25-.656.565-.862.944-.206.369-.309.732-.309 1.09V140h-.684zm8.4 0l-3.45-8.135h.781l3.254 7.875h-.39l3.27-7.875h.765L136.963 140h-.781zm9.317.13c-1.193 0-2.142-.363-2.847-1.09-.705-.738-1.058-1.763-1.058-3.075 0-.868.157-1.616.472-2.246a3.523 3.523 0 011.318-1.464c.575-.347 1.231-.521 1.969-.521.705 0 1.301.152 1.789.456.499.293.879.721 1.139 1.285.272.554.407 1.215.407 1.985v.44h-6.655v-.619h6.297l-.276.212c0-.976-.228-1.741-.684-2.294-.455-.564-1.133-.846-2.034-.846-.954 0-1.703.325-2.245.976-.532.651-.797 1.502-.797 2.554v.082c0 1.15.282 2.028.846 2.636.564.596 1.35.895 2.359.895.51 0 .987-.082 1.432-.244.445-.163.873-.44 1.285-.83l.342.537c-.336.368-.781.656-1.334.862a4.902 4.902 0 01-1.725.309zm-140.723 20c-.76 0-1.415-.168-1.969-.504-.553-.347-.981-.841-1.285-1.481-.293-.64-.44-1.399-.44-2.278 0-.878.152-1.627.456-2.245.304-.618.732-1.085 1.286-1.399.553-.326 1.204-.489 1.952-.489.51 0 .998.103 1.465.31.477.195.873.471 1.187.829l-.341.521a3.295 3.295 0 00-1.123-.781 3.178 3.178 0 00-1.204-.244c-.933 0-1.665.304-2.197.911-.52.597-.78 1.464-.78 2.603 0 1.15.26 2.04.78 2.669.532.629 1.264.944 2.197.944.38 0 .77-.076 1.171-.228a3.323 3.323 0 001.156-.797l.341.52a3.161 3.161 0 01-1.22.846 3.742 3.742 0 01-1.432.293zm7.62 0c-.944 0-1.66-.255-2.148-.765-.488-.509-.732-1.29-.732-2.343v-5.157h.683v5.092c0 .879.18 1.524.537 1.937.358.401.911.602 1.66.602.835 0 1.502-.266 2.001-.798.5-.542.749-1.258.749-2.147v-4.686h.683V160h-.667v-1.985h.195c-.217.672-.591 1.193-1.122 1.562-.521.369-1.134.553-1.84.553zm8.828 0a5.332 5.332 0 01-1.725-.276c-.532-.196-.965-.461-1.302-.798l.342-.537c.39.337.813.586 1.269.749.456.152.938.228 1.448.228.738 0 1.302-.141 1.692-.423a1.35 1.35 0 00.586-1.156c0-.379-.125-.683-.374-.911-.25-.238-.662-.417-1.237-.537l-1.415-.309c-.694-.163-1.21-.423-1.546-.781-.336-.358-.505-.803-.505-1.334 0-.445.114-.841.342-1.188.239-.347.575-.618 1.009-.813.445-.207.965-.31 1.562-.31.575 0 1.101.098 1.578.293.488.196.879.467 1.172.814l-.358.537a3.162 3.162 0 00-1.09-.749 3.253 3.253 0 00-1.302-.26c-.705 0-1.247.152-1.627.456-.369.303-.553.705-.553 1.204 0 .379.114.688.341.927.24.239.613.418 1.123.537l1.416.325c.737.174 1.285.429 1.643.765.358.326.537.759.537 1.302 0 .455-.125.851-.374 1.188-.25.336-.602.596-1.058.781-.455.184-.987.276-1.594.276zm7.766 0c-.662 0-1.172-.206-1.53-.618-.347-.423-.52-1.063-.52-1.92v-5.142h-1.627v-.585h1.627v-2.327l.683-.261v2.588h2.473v.585h-2.473v4.995c0 .716.108 1.237.325 1.562.228.326.592.489 1.09.489a2.439 2.439 0 001.026-.212v.651c-.12.054-.282.098-.488.13-.196.043-.391.065-.586.065zm5.879 0c-.738 0-1.378-.168-1.92-.504-.542-.336-.96-.819-1.253-1.448-.293-.629-.44-1.378-.44-2.246 0-.868.147-1.616.44-2.245.293-.629.71-1.112 1.253-1.448.542-.336 1.182-.505 1.92-.505s1.378.169 1.92.505c.542.336.96.819 1.253 1.448.304.629.456 1.377.456 2.245 0 .868-.152 1.617-.456 2.246-.293.629-.71 1.112-1.253 1.448-.542.336-1.182.504-1.92.504zm0-.634c.89 0 1.6-.304 2.132-.912.531-.618.797-1.502.797-2.652 0-1.15-.266-2.028-.797-2.636-.532-.618-1.242-.927-2.132-.927-.89 0-1.6.309-2.131.927-.521.608-.782 1.486-.782 2.636 0 1.15.26 2.034.782 2.652.531.608 1.242.912 2.131.912zm5.935.504v-6.378c0-.282-.017-.57-.05-.863a27.25 27.25 0 00-.08-.894h.666l.147 1.952h-.195c.206-.672.547-1.188 1.025-1.546.477-.358 1.057-.537 1.74-.537.717 0 1.292.174 1.725.521.434.336.716.862.847 1.578H46.4a2.824 2.824 0 011.041-1.529c.52-.38 1.145-.57 1.871-.57.868 0 1.53.25 1.985.749.456.499.684 1.28.684 2.343V160h-.684v-5.109c0-.879-.157-1.519-.471-1.92-.315-.401-.825-.602-1.53-.602-.792 0-1.421.266-1.887.797-.456.532-.684 1.248-.684 2.148V160h-.683v-5.109c0-.879-.157-1.519-.472-1.92-.315-.401-.824-.602-1.53-.602-.791 0-1.415.266-1.87.797-.456.532-.684 1.248-.684 2.148V160h-.683zm17.35.13c-1.193 0-2.142-.363-2.847-1.09-.705-.738-1.058-1.763-1.058-3.075 0-.868.157-1.616.472-2.246a3.527 3.527 0 011.318-1.464c.575-.347 1.231-.521 1.969-.521.705 0 1.301.152 1.79.456.498.293.878.721 1.138 1.285.272.554.407 1.215.407 1.985v.44h-6.655v-.619h6.297l-.276.212c0-.976-.228-1.741-.684-2.294-.455-.564-1.133-.846-2.034-.846-.954 0-1.703.325-2.245.976-.532.651-.797 1.502-.797 2.554v.082c0 1.15.282 2.028.846 2.636.564.596 1.35.895 2.36.895.509 0 .986-.082 1.431-.244.445-.163.873-.44 1.285-.83l.342.537c-.336.368-.781.656-1.334.862a4.903 4.903 0 01-1.725.309zm5.419-.13v-6.281c0-.303-.011-.612-.033-.927-.01-.315-.032-.624-.065-.927h.667l.098 1.773-.147.016c.109-.434.304-.792.586-1.074.293-.282.624-.493.992-.634a3.21 3.21 0 011.497-.195c.13.01.25.032.358.065l-.032.634a1.8 1.8 0 00-.358-.065 4.281 4.281 0 00-.39-.016c-.5 0-.939.13-1.319.39a2.67 2.67 0 00-.862.944c-.206.369-.309.732-.309 1.09V160h-.683zm7.957.13a5.332 5.332 0 01-1.725-.276c-.531-.196-.965-.461-1.301-.798l.341-.537c.39.337.814.586 1.27.749.455.152.938.228 1.448.228.737 0 1.301-.141 1.692-.423a1.35 1.35 0 00.585-1.156c0-.379-.124-.683-.374-.911-.25-.238-.661-.417-1.236-.537l-1.416-.309c-.694-.163-1.21-.423-1.546-.781-.336-.358-.504-.803-.504-1.334 0-.445.114-.841.342-1.188.238-.347.575-.618 1.008-.813.445-.207.966-.31 1.562-.31.575 0 1.101.098 1.579.293.488.196.878.467 1.171.814l-.358.537a3.162 3.162 0 00-1.09-.749 3.254 3.254 0 00-1.302-.26c-.705 0-1.247.152-1.627.456-.369.303-.553.705-.553 1.204 0 .379.114.688.342.927.238.239.613.418 1.123.537l1.415.325c.738.174 1.285.429 1.643.765.358.326.537.759.537 1.302 0 .455-.124.851-.374 1.188-.25.336-.602.596-1.058.781-.455.184-.987.276-1.594.276zm13.117 0c-.78 0-1.442-.201-1.985-.602-.542-.401-.905-.954-1.09-1.659h.18V160h-.684v-11.975h.683v5.971h-.179c.185-.705.548-1.258 1.09-1.66.543-.401 1.204-.602 1.985-.602.738 0 1.372.169 1.904.505.542.336.96.819 1.253 1.448.293.618.44 1.367.44 2.245 0 .868-.153 1.617-.456 2.246-.293.629-.71 1.112-1.253 1.448-.532.336-1.16.504-1.888.504zm-.016-.634c.89 0 1.595-.304 2.115-.912.532-.618.798-1.502.798-2.652 0-1.15-.266-2.028-.798-2.636-.52-.618-1.225-.927-2.115-.927-.89 0-1.594.309-2.115.927-.52.608-.781 1.486-.781 2.636 0 1.15.26 2.034.78 2.652.522.608 1.227.912 2.116.912zm9.275.634c-1.194 0-2.143-.363-2.848-1.09-.705-.738-1.057-1.763-1.057-3.075 0-.868.157-1.616.471-2.246a3.526 3.526 0 011.318-1.464c.575-.347 1.232-.521 1.97-.521.704 0 1.3.152 1.789.456.499.293.879.721 1.139 1.285.271.554.407 1.215.407 1.985v.44H90.44v-.619h6.297l-.277.212c0-.976-.228-1.741-.683-2.294-.456-.564-1.134-.846-2.034-.846-.955 0-1.703.325-2.245.976-.532.651-.798 1.502-.798 2.554v.082c0 1.15.282 2.028.846 2.636.564.596 1.35.895 2.36.895.51 0 .987-.082 1.431-.244.445-.163.874-.44 1.286-.83l.342.537c-.337.368-.781.656-1.335.862a4.903 4.903 0 01-1.724.309zm7.842 0c-.662 0-1.171-.206-1.529-.618-.347-.423-.521-1.063-.521-1.92v-5.142H98.07v-.585h1.627v-2.327l.683-.261v2.588h2.473v.585h-2.473v4.995c0 .716.109 1.237.326 1.562.228.326.591.489 1.09.489a2.444 2.444 0 001.025-.212v.651a1.93 1.93 0 01-.488.13 2.72 2.72 0 01-.586.065zm5.275 0c-.661 0-1.171-.206-1.529-.618-.347-.423-.521-1.063-.521-1.92v-5.142h-1.627v-.585h1.627v-2.327l.684-.261v2.588h2.473v.585h-2.473v4.995c0 .716.108 1.237.325 1.562.228.326.591.489 1.09.489a2.444 2.444 0 001.025-.212v.651a1.93 1.93 0 01-.488.13c-.195.043-.39.065-.586.065zm6.173 0c-1.194 0-2.143-.363-2.848-1.09-.705-.738-1.057-1.763-1.057-3.075 0-.868.157-1.616.471-2.246a3.53 3.53 0 011.318-1.464c.575-.347 1.231-.521 1.969-.521.705 0 1.302.152 1.79.456.499.293.879.721 1.139 1.285.271.554.407 1.215.407 1.985v.44h-6.655v-.619h6.297l-.277.212c0-.976-.228-1.741-.683-2.294-.456-.564-1.134-.846-2.034-.846-.955 0-1.703.325-2.246.976-.531.651-.797 1.502-.797 2.554v.082c0 1.15.282 2.028.846 2.636.564.596 1.351.895 2.36.895.509 0 .987-.082 1.431-.244.445-.163.874-.44 1.286-.83l.341.537c-.336.368-.781.656-1.334.862a4.9 4.9 0 01-1.724.309zm5.418-.13v-6.281c0-.303-.011-.612-.033-.927-.01-.315-.032-.624-.065-.927h.668l.097 1.773-.146.016c.108-.434.303-.792.585-1.074.293-.282.624-.493.993-.634a3.213 3.213 0 011.497-.195c.13.01.249.032.358.065l-.033.634a1.783 1.783 0 00-.358-.065 4.265 4.265 0 00-.39-.016c-.499 0-.938.13-1.318.39-.369.25-.656.565-.862.944-.207.369-.31.732-.31 1.09V160h-.683zm4.904 0v-1.139h1.123V160h-1.123zM2.63 182.117c-.468 0-.887-.061-1.257-.182a2.966 2.966 0 01-.968-.521l.249-.546c.193.143.386.265.579.364.198.094.41.165.637.215.226.044.48.066.76.066.492 0 .856-.091 1.093-.273a.87.87 0 00.355-.728c0-.259-.082-.458-.248-.595-.165-.138-.455-.249-.868-.331l-.87-.174c-.534-.11-.934-.29-1.199-.538-.259-.248-.388-.584-.388-1.009 0-.347.088-.651.264-.91.182-.259.436-.46.761-.604a2.795 2.795 0 011.134-.215c.413 0 .791.063 1.133.19.342.122.634.301.877.538l-.24.529a2.423 2.423 0 00-.819-.496 2.731 2.731 0 00-.96-.157c-.452 0-.81.099-1.075.298a.936.936 0 00-.389.794c0 .27.083.482.248.637.166.149.439.262.82.339l.876.174c.563.116.976.289 1.241.521.265.232.397.557.397.976 0 .32-.088.604-.264.852a1.67 1.67 0 01-.737.579c-.32.138-.7.207-1.141.207zm4.634 0c-.408 0-.72-.116-.935-.347-.215-.237-.322-.593-.322-1.068v-2.291h-.811v-.521h.81v-1.134l.67-.19v1.324h1.192v.521H6.677v2.217c0 .331.055.568.165.711.116.138.287.207.513.207.105 0 .199-.008.281-.025.083-.022.158-.046.224-.074v.563a1.179 1.179 0 01-.282.074c-.104.022-.21.033-.314.033zm3.083 0c-.397 0-.744-.085-1.042-.256a1.78 1.78 0 01-.678-.745c-.16-.325-.24-.709-.24-1.15 0-.446.08-.83.24-1.15.16-.32.386-.565.678-.736a2.01 2.01 0 011.043-.265c.402 0 .75.089 1.042.265.298.171.526.416.686.736.166.32.249.704.249 1.15 0 .441-.083.825-.249 1.15-.16.32-.388.568-.686.745-.293.171-.64.256-1.043.256zm0-.546c.398 0 .712-.135.944-.405.231-.276.347-.676.347-1.2 0-.529-.119-.929-.356-1.199-.231-.276-.543-.414-.934-.414-.392 0-.704.138-.935.414-.232.27-.348.67-.348 1.199 0 .524.116.924.348 1.2.231.27.543.405.934.405zm3.022.472v-3.194c0-.154-.008-.311-.024-.471a13.355 13.355 0 00-.042-.488h.645l.083.91h-.1a1.42 1.42 0 01.58-.728c.27-.171.582-.257.935-.257.49 0 .86.133 1.108.397.254.26.38.671.38 1.233v2.598h-.67v-2.557c0-.391-.08-.675-.24-.852-.154-.182-.396-.273-.727-.273-.386 0-.692.119-.918.356-.226.237-.34.554-.34.951v2.375h-.67zm6.692.074c-.65 0-1.163-.187-1.538-.562-.375-.381-.563-.908-.563-1.58 0-.436.083-.814.248-1.134.166-.325.397-.576.695-.753.298-.182.64-.273 1.026-.273.38 0 .7.08.96.24.259.16.457.389.595.687.138.292.207.64.207 1.042v.248h-3.218v-.421h2.78l-.141.107c0-.441-.1-.786-.298-1.034-.198-.248-.494-.372-.885-.372-.414 0-.736.146-.968.438-.232.287-.347.676-.347 1.167v.074c0 .518.127.913.38 1.183.26.265.62.397 1.084.397.248 0 .48-.036.695-.107.22-.078.43-.202.628-.373l.232.472a1.881 1.881 0 01-.695.413 2.7 2.7 0 01-.877.141zm2.73-.074v-5.832h.686v2.581h3.516v-2.581h.679v5.832h-.679v-2.664h-3.516v2.664h-.686zm8.104.074c-.651 0-1.164-.187-1.539-.562-.375-.381-.562-.908-.562-1.58 0-.436.082-.814.248-1.134.165-.325.397-.576.695-.753.297-.182.64-.273 1.025-.273.381 0 .7.08.96.24.26.16.458.389.596.687.138.292.207.64.207 1.042v.248h-3.219v-.421h2.78l-.14.107c0-.441-.1-.786-.298-1.034-.199-.248-.494-.372-.886-.372-.413 0-.736.146-.968.438-.231.287-.347.676-.347 1.167v.074c0 .518.127.913.38 1.183.26.265.621.397 1.084.397.248 0 .48-.036.695-.107.22-.078.43-.202.629-.373l.232.472a1.882 1.882 0 01-.695.413 2.7 2.7 0 01-.877.141zm4.227 0c-.364 0-.684-.085-.96-.256a1.78 1.78 0 01-.645-.745c-.15-.32-.224-.703-.224-1.15 0-.452.075-.838.224-1.158.154-.32.37-.565.645-.736.276-.171.596-.257.96-.257.375 0 .697.094.968.282.275.187.46.441.554.761h-.1v-2.904h.67v6.089h-.661v-.993h.09c-.087.331-.27.593-.545.786a1.698 1.698 0 01-.976.281zm.14-.546c.392 0 .706-.135.943-.405.237-.276.356-.676.356-1.2 0-.529-.119-.929-.356-1.199-.237-.276-.551-.414-.943-.414-.391 0-.706.138-.943.414-.232.27-.347.67-.347 1.199 0 .524.115.924.347 1.2.237.27.552.405.943.405zm5.076 2.316c-.358 0-.689-.044-.992-.132a2.523 2.523 0 01-.82-.405l.2-.505c.17.121.338.218.504.29.165.071.336.124.513.157.176.038.364.058.562.058.408 0 .717-.108.927-.323.21-.215.314-.521.314-.918v-1.216h.083c-.088.325-.27.584-.546.777a1.677 1.677 0 01-.968.282c-.38 0-.712-.083-.993-.249-.276-.17-.49-.41-.645-.719-.149-.315-.223-.684-.223-1.109 0-.419.074-.783.223-1.092a1.68 1.68 0 01.645-.711c.282-.171.612-.257.993-.257.375 0 .698.094.968.282.276.187.458.446.546.777l-.083-.082.075-.902h.653a6.945 6.945 0 00-.066.959v3.169c0 .618-.16 1.084-.48 1.398-.314.314-.778.471-1.39.471zm-.099-2.481c.403 0 .72-.133.951-.397.232-.271.348-.648.348-1.134 0-.485-.116-.86-.348-1.125-.231-.265-.548-.397-.95-.397-.398 0-.715.132-.952.397s-.356.64-.356 1.125c0 .486.119.863.356 1.134.237.264.554.397.951.397zm5.1.711c-.65 0-1.163-.187-1.538-.562-.375-.381-.563-.908-.563-1.58 0-.436.083-.814.248-1.134.166-.325.397-.576.695-.753.298-.182.64-.273 1.026-.273.38 0 .7.08.96.24.259.16.457.389.595.687.138.292.207.64.207 1.042v.248h-3.218v-.421h2.78l-.141.107c0-.441-.1-.786-.298-1.034-.198-.248-.493-.372-.885-.372-.414 0-.736.146-.968.438-.231.287-.347.676-.347 1.167v.074c0 .518.127.913.38 1.183.26.265.62.397 1.084.397.248 0 .48-.036.695-.107.22-.078.43-.202.629-.373l.231.472a1.881 1.881 0 01-.695.413 2.7 2.7 0 01-.877.141zm4.812-.074v-4.153h.67v4.153h-.67zm-.082-5.096v-.753h.827v.753h-.827zm3.435 5.17c-.33 0-.64-.044-.926-.132a2.01 2.01 0 01-.712-.389l.232-.472c.204.16.425.279.662.356.242.077.493.116.752.116.331 0 .58-.058.745-.174a.577.577 0 00.256-.496.474.474 0 00-.165-.381c-.105-.099-.279-.176-.521-.231l-.77-.157c-.352-.078-.617-.207-.794-.389a.999.999 0 01-.264-.712c0-.242.063-.455.19-.637.127-.187.311-.333.554-.438.243-.11.527-.166.852-.166.303 0 .582.047.836.141.259.088.474.218.645.389l-.24.463a1.591 1.591 0 00-.57-.356 1.779 1.779 0 00-.654-.124c-.326 0-.571.066-.737.199a.612.612 0 00-.24.504c0 .16.05.293.15.398.104.099.264.173.48.223l.769.157c.375.083.653.212.835.389.188.171.281.402.281.695 0 .248-.069.466-.206.653-.138.182-.331.323-.58.422a2.27 2.27 0 01-.86.149zm6.46 0c-.37 0-.692-.085-.968-.256a1.78 1.78 0 01-.646-.745c-.148-.32-.223-.703-.223-1.15 0-.452.075-.838.223-1.158.155-.32.37-.565.646-.736.276-.171.598-.257.968-.257.375 0 .697.097.968.29.275.187.457.444.545.769h-.099l.091-.984h.645l-.05.488c-.01.16-.016.317-.016.471v3.194h-.67v-.977h.091a1.32 1.32 0 01-.546.77 1.67 1.67 0 01-.96.281zm.132-.546c.397 0 .712-.135.943-.405.232-.276.347-.676.347-1.2 0-.529-.115-.929-.347-1.199-.232-.276-.546-.414-.943-.414-.392 0-.706.138-.943.414-.232.27-.347.67-.347 1.199 0 .524.115.924.347 1.2.237.27.551.405.943.405zm5.405 2.259v-4.981a4.59 4.59 0 00-.025-.471 13.353 13.353 0 00-.041-.488h.645l.091.984h-.1c.089-.325.268-.582.538-.769.27-.193.593-.29.968-.29s.698.086.968.257c.276.171.491.416.645.736.155.32.232.706.232 1.158 0 .447-.077.83-.232 1.15-.148.32-.36.568-.636.745a1.815 1.815 0 01-.977.256c-.37 0-.69-.094-.96-.281a1.33 1.33 0 01-.537-.77h.091v2.764h-.67zm1.944-2.259c.397 0 .711-.135.943-.405.237-.276.356-.676.356-1.2 0-.529-.119-.929-.356-1.199-.232-.276-.546-.414-.943-.414-.392 0-.706.138-.943.414-.232.27-.348.67-.348 1.199 0 .524.116.924.348 1.2.237.27.551.405.943.405zm3 .472v-3.152c0-.166-.006-.334-.017-.505a7.036 7.036 0 00-.033-.496h.645l.083 1.009-.116.008a1.292 1.292 0 01.778-.968c.187-.082.383-.124.587-.124.083 0 .155.003.215.009a.613.613 0 01.182.041l-.008.596a.977.977 0 00-.232-.05 1.425 1.425 0 00-.231-.017 1.16 1.16 0 00-.637.174 1.17 1.17 0 00-.406.447 1.31 1.31 0 00-.132.579v2.449h-.678zm4.677.074c-.397 0-.744-.085-1.042-.256a1.78 1.78 0 01-.679-.745c-.16-.325-.24-.709-.24-1.15 0-.446.08-.83.24-1.15.16-.32.386-.565.679-.736a2.01 2.01 0 011.042-.265c.403 0 .75.089 1.043.265.297.171.526.416.686.736.165.32.248.704.248 1.15 0 .441-.083.825-.248 1.15-.16.32-.389.568-.686.745-.293.171-.64.256-1.043.256zm0-.546c.397 0 .712-.135.943-.405.232-.276.348-.676.348-1.2 0-.529-.119-.929-.356-1.199-.232-.276-.543-.414-.935-.414-.391 0-.703.138-.935.414-.231.27-.347.67-.347 1.199 0 .524.116.924.347 1.2.232.27.544.405.935.405zm4.594.546c-.364 0-.684-.085-.96-.256a1.781 1.781 0 01-.645-.745c-.149-.32-.224-.703-.224-1.15 0-.452.075-.838.224-1.158.154-.32.37-.565.645-.736.276-.171.596-.257.96-.257.375 0 .697.094.968.282.275.187.46.441.554.761h-.1v-2.904h.67v6.089h-.661v-.993h.09c-.087.331-.27.593-.545.786a1.697 1.697 0 01-.976.281zm.14-.546c.392 0 .706-.135.944-.405.237-.276.355-.676.355-1.2 0-.529-.118-.929-.356-1.199-.237-.276-.551-.414-.943-.414-.391 0-.706.138-.943.414-.231.27-.347.67-.347 1.199 0 .524.116.924.347 1.2.237.27.552.405.943.405zm4.713.546c-.491 0-.864-.135-1.117-.405-.248-.27-.373-.684-.373-1.241v-2.581h.67v2.564c0 .381.078.662.232.844.155.177.395.265.72.265.364 0 .656-.119.877-.356.22-.237.33-.554.33-.951v-2.366h.67v4.153h-.653v-.935h.108c-.116.32-.304.568-.563.744a1.535 1.535 0 01-.901.265zm5.055 0c-.408 0-.764-.088-1.067-.265a1.8 1.8 0 01-.695-.752c-.16-.326-.24-.712-.24-1.159 0-.452.083-.835.249-1.149.165-.32.397-.563.694-.728a2.171 2.171 0 011.06-.249c.264 0 .52.047.769.141.253.094.463.226.628.397l-.24.48a1.631 1.631 0 00-.546-.356 1.534 1.534 0 00-.57-.116c-.43 0-.764.135-1.001.406-.238.27-.356.664-.356 1.183 0 .513.118.91.356 1.191.237.281.57.422 1 .422.183 0 .37-.036.563-.108.199-.071.384-.19.554-.355l.24.471c-.17.177-.383.312-.637.405a2.177 2.177 0 01-.76.141zm3.823 0c-.408 0-.72-.116-.935-.347-.215-.237-.322-.593-.322-1.068v-2.291h-.811v-.521h.81v-1.134l.67-.19v1.324h1.192v.521H92.86v2.217c0 .331.055.568.165.711.116.138.287.207.513.207.105 0 .199-.008.281-.025.083-.022.158-.046.224-.074v.563a1.179 1.179 0 01-.282.074c-.104.022-.21.033-.314.033zm5.662 0c-.375 0-.698-.094-.968-.281a1.407 1.407 0 01-.546-.786h.09v.993h-.661v-6.089h.67v2.904h-.1c.094-.32.276-.574.547-.761.27-.188.593-.282.968-.282s.697.089.967.265c.276.171.488.416.637.736.155.32.232.704.232 1.15 0 .447-.077.83-.232 1.15-.154.32-.369.568-.645.745-.27.171-.59.256-.96.256zm-.141-.546c.391 0 .706-.135.943-.405s.356-.67.356-1.2c0-.529-.119-.929-.356-1.199-.237-.276-.552-.414-.943-.414-.392 0-.706.138-.943.414-.232.27-.348.67-.348 1.199 0 .524.116.924.348 1.2.237.27.551.405.943.405zm2.794 2.35l-.157-.555c.259-.06.474-.132.645-.215.177-.077.323-.182.439-.314.115-.133.215-.298.297-.497l.216-.488-.017.282-1.812-4.244h.728l1.498 3.648h-.215l1.48-3.648h.703l-1.919 4.5a3.04 3.04 0 01-.364.662 1.908 1.908 0 01-.43.438 1.8 1.8 0 01-.496.273 3.571 3.571 0 01-.596.158zm8.694-1.804c-.468 0-.887-.061-1.257-.182a2.975 2.975 0 01-.968-.521l.248-.546c.193.143.386.265.579.364.199.094.411.165.637.215.227.044.48.066.761.066.491 0 .855-.091 1.092-.273a.869.869 0 00.356-.728c0-.259-.083-.458-.248-.595-.165-.138-.455-.249-.869-.331l-.868-.174c-.535-.11-.935-.29-1.2-.538-.259-.248-.389-.584-.389-1.009 0-.347.089-.651.265-.91a1.79 1.79 0 01.761-.604 2.798 2.798 0 011.134-.215c.413 0 .791.063 1.133.19.342.122.634.301.877.538l-.24.529a2.42 2.42 0 00-.819-.496 2.73 2.73 0 00-.96-.157c-.452 0-.81.099-1.075.298a.937.937 0 00-.389.794c0 .27.083.482.248.637.166.149.439.262.819.339l.877.174c.563.116.976.289 1.241.521.265.232.397.557.397.976 0 .32-.088.604-.265.852a1.668 1.668 0 01-.736.579c-.32.138-.7.207-1.142.207zm4.634 0c-.408 0-.72-.116-.935-.347-.215-.237-.323-.593-.323-1.068v-2.291h-.81v-.521h.81v-1.134l.671-.19v1.324h1.191v.521h-1.191v2.217c0 .331.055.568.165.711.116.138.287.207.513.207.105 0 .198-.008.281-.025.083-.022.157-.046.223-.074v.563c-.077.033-.17.057-.281.074a1.523 1.523 0 01-.314.033zm3.083 0c-.397 0-.744-.085-1.042-.256a1.78 1.78 0 01-.678-.745c-.16-.325-.24-.709-.24-1.15 0-.446.08-.83.24-1.15.16-.32.386-.565.678-.736a2.01 2.01 0 011.042-.265c.403 0 .75.089 1.043.265.297.171.526.416.686.736.166.32.248.704.248 1.15 0 .441-.082.825-.248 1.15-.16.32-.389.568-.686.745-.293.171-.64.256-1.043.256zm0-.546c.397 0 .712-.135.943-.405.232-.276.348-.676.348-1.2 0-.529-.119-.929-.356-1.199-.232-.276-.543-.414-.935-.414-.391 0-.703.138-.935.414-.231.27-.347.67-.347 1.199 0 .524.116.924.347 1.2.232.27.544.405.935.405zm3.022.472v-3.194c0-.154-.008-.311-.025-.471a14.575 14.575 0 00-.041-.488h.645l.083.91h-.099c.121-.32.314-.563.579-.728.27-.171.582-.257.935-.257.49 0 .86.133 1.108.397.254.26.381.671.381 1.233v2.598h-.67v-2.557c0-.391-.08-.675-.24-.852-.155-.182-.397-.273-.728-.273-.386 0-.692.119-.919.356-.226.237-.339.554-.339.951v2.375h-.67zm6.692.074c-.651 0-1.164-.187-1.539-.562-.375-.381-.562-.908-.562-1.58 0-.436.083-.814.248-1.134a1.81 1.81 0 01.695-.753c.298-.182.64-.273 1.026-.273.38 0 .7.08.959.24.26.16.458.389.596.687.138.292.207.64.207 1.042v.248h-3.218v-.421h2.779l-.14.107c0-.441-.1-.786-.298-1.034-.199-.248-.494-.372-.885-.372-.414 0-.737.146-.968.438-.232.287-.348.676-.348 1.167v.074c0 .518.127.913.381 1.183.259.265.62.397 1.084.397.248 0 .479-.036.695-.107.22-.078.43-.202.628-.373l.232.472a1.884 1.884 0 01-.695.413 2.7 2.7 0 01-.877.141zm2.076-.074l2.325-3.111v.257l-2.217-2.978h.81l1.82 2.49h-.215l1.804-2.49h.819l-2.226 2.978v-.257l2.325 3.111h-.811l-1.944-2.639h.265l-1.944 2.639h-.811zm8.207 0v-5.832h3.64v.562h-2.953v2.043h2.771v.563h-2.771v2.664h-.687zm4.571 0v-4.153h.67v4.153h-.67zm-.083-5.096v-.753h.827v.753h-.827zm2.054 5.096v-3.194c0-.154-.008-.311-.025-.471a14.575 14.575 0 00-.041-.488h.645l.083.91h-.099c.121-.32.314-.563.579-.728.27-.171.582-.257.935-.257.49 0 .86.133 1.108.397.254.26.381.671.381 1.233v2.598h-.671v-2.557c0-.391-.079-.675-.239-.852-.155-.182-.398-.273-.728-.273-.386 0-.693.119-.919.356-.226.237-.339.554-.339.951v2.375h-.67zm6.427.074a1.8 1.8 0 01-.968-.256 1.79 1.79 0 01-.645-.745c-.149-.32-.223-.703-.223-1.15 0-.452.074-.838.223-1.158.155-.32.37-.565.645-.736.276-.171.599-.257.968-.257.375 0 .698.097.968.29.276.187.458.444.546.769h-.099l.091-.984h.645l-.049.488c-.011.16-.017.317-.017.471v3.194h-.67v-.977h.091c-.088.326-.27.582-.546.77a1.67 1.67 0 01-.96.281zm.133-.546c.397 0 .711-.135.943-.405.231-.276.347-.676.347-1.2 0-.529-.116-.929-.347-1.199-.232-.276-.546-.414-.943-.414-.392 0-.706.138-.943.414-.232.27-.348.67-.348 1.199 0 .524.116.924.348 1.2.237.27.551.405.943.405zm3.248.472v-3.194c0-.154-.009-.311-.025-.471a12.318 12.318 0 00-.042-.488h.646l.082.91h-.099c.121-.32.314-.563.579-.728.27-.171.582-.257.935-.257.491 0 .86.133 1.109.397.253.26.38.671.38 1.233v2.598h-.67v-2.557c0-.391-.08-.675-.24-.852-.154-.182-.397-.273-.728-.273-.386 0-.692.119-.918.356-.226.237-.339.554-.339.951v2.375h-.67zm6.592.074c-.408 0-.764-.088-1.067-.265a1.801 1.801 0 01-.695-.752c-.16-.326-.24-.712-.24-1.159 0-.452.083-.835.248-1.149a1.71 1.71 0 01.695-.728 2.175 2.175 0 011.059-.249c.265 0 .521.047.77.141.253.094.463.226.628.397l-.24.48a1.623 1.623 0 00-.546-.356 1.532 1.532 0 00-.57-.116c-.431 0-.764.135-1.001.406-.237.27-.356.664-.356 1.183 0 .513.119.91.356 1.191s.57.422 1.001.422c.182 0 .369-.036.562-.108.199-.071.383-.19.554-.355l.24.471a1.666 1.666 0 01-.637.405 2.173 2.173 0 01-.761.141zm2.351-.074v-4.153h.67v4.153h-.67zm-.083-5.096v-.753h.827v.753h-.827zm3.634 5.17c-.37 0-.692-.085-.968-.256a1.776 1.776 0 01-.645-.745c-.149-.32-.224-.703-.224-1.15 0-.452.075-.838.224-1.158.154-.32.369-.565.645-.736.276-.171.598-.257.968-.257.375 0 .698.097.968.29.276.187.458.444.546.769h-.1l.091-.984h.646l-.05.488c-.011.16-.016.317-.016.471v3.194h-.671v-.977h.091a1.32 1.32 0 01-.545.77 1.67 1.67 0 01-.96.281zm.132-.546c.397 0 .712-.135.943-.405.232-.276.348-.676.348-1.2 0-.529-.116-.929-.348-1.199-.231-.276-.546-.414-.943-.414-.391 0-.706.138-.943.414-.231.27-.347.67-.347 1.199 0 .524.116.924.347 1.2.237.27.552.405.943.405zm3.248.472v-6.089h.67v6.089h-.67zm4.203 0v-5.832h.686v5.832h-.686zm2.066 0v-3.194c0-.154-.008-.311-.025-.471a12.335 12.335 0 00-.041-.488h.645l.083.91h-.099c.121-.32.314-.563.579-.728.27-.171.582-.257.935-.257.49 0 .86.133 1.108.397.254.26.381.671.381 1.233v2.598h-.67v-2.557c0-.391-.08-.675-.24-.852-.155-.182-.397-.273-.728-.273-.386 0-.692.119-.919.356-.226.237-.339.554-.339.951v2.375h-.67zm6.593.074c-.408 0-.764-.088-1.067-.265a1.795 1.795 0 01-.695-.752c-.16-.326-.24-.712-.24-1.159 0-.452.083-.835.248-1.149.166-.32.397-.563.695-.728a2.17 2.17 0 011.059-.249c.265 0 .521.047.769.141.254.094.463.226.629.397l-.24.48a1.623 1.623 0 00-.546-.356 1.533 1.533 0 00-.571-.116c-.43 0-.764.135-1.001.406-.237.27-.355.664-.355 1.183 0 .513.118.91.355 1.191s.571.422 1.001.422c.182 0 .37-.036.563-.108.198-.071.383-.19.554-.355l.24.471a1.666 1.666 0 01-.637.405 2.177 2.177 0 01-.761.141zm2.299-.074v-.844h.843v.844h-.843zm3.518-2.052v-.438h4.177v.438h-4.177zm7.061 2.052v-5.832h3.64v.562h-2.953v2.043h2.771v.563h-2.771v2.664h-.687zm7.048.074c-.585 0-1.081-.121-1.489-.364a2.42 2.42 0 01-.943-1.034c-.215-.447-.323-.979-.323-1.597 0-.617.108-1.147.323-1.588a2.42 2.42 0 01.943-1.034c.408-.243.904-.364 1.489-.364.414 0 .783.063 1.109.19.325.127.609.312.852.555l-.257.546a2.818 2.818 0 00-.786-.505 2.313 2.313 0 00-.91-.166c-.667 0-1.174.207-1.522.621-.347.414-.521.995-.521 1.745 0 .75.174 1.335.521 1.754.348.414.855.621 1.522.621.348 0 .651-.053.91-.158a2.9 2.9 0 00.786-.521l.257.555a2.635 2.635 0 01-.852.554c-.326.127-.695.19-1.109.19zm3.124-.074v-5.832h.595l2.341 5.286h-.239l2.341-5.286h.595v5.832h-.628v-4.947h.248l-2.209 4.947h-.455l-2.217-4.947h.248v4.947h-.62zm9.25 0v-5.832h1.935c.646 0 1.192.113 1.638.339.447.22.786.548 1.018.984.231.43.347.96.347 1.588 0 .624-.116 1.153-.347 1.589a2.303 2.303 0 01-1.018.992c-.446.227-.992.34-1.638.34h-1.935zm.686-.588h1.2c.794 0 1.384-.193 1.77-.579.386-.391.579-.976.579-1.754 0-.783-.193-1.367-.579-1.753-.386-.386-.976-.579-1.77-.579h-1.2v4.665zm5.419.588v-4.153h.67v4.153h-.67zm-.082-5.096v-.753h.827v.753h-.827zm3.278 5.096l-1.779-4.153h.728l1.489 3.656h-.223l1.505-3.656h.695l-1.778 4.153h-.637zm3.17 0v-4.153h.67v4.153h-.67zm-.082-5.096v-.753h.827v.753h-.827zm3.435 5.17c-.331 0-.64-.044-.927-.132a2.019 2.019 0 01-.711-.389l.232-.472c.204.16.424.279.661.356.243.077.494.116.753.116.331 0 .579-.058.745-.174a.576.576 0 00.256-.496.475.475 0 00-.165-.381c-.105-.099-.279-.176-.521-.231l-.77-.157c-.353-.078-.617-.207-.794-.389a1.001 1.001 0 01-.265-.712c0-.242.064-.455.191-.637.126-.187.311-.333.554-.438a2.05 2.05 0 01.852-.166c.303 0 .582.047.835.141.26.088.475.218.646.389l-.24.463a1.598 1.598 0 00-.571-.356 1.778 1.778 0 00-.653-.124c-.326 0-.571.066-.737.199a.612.612 0 00-.24.504c0 .16.05.293.149.398.105.099.265.173.48.223l.769.157c.375.083.654.212.836.389.187.171.281.402.281.695 0 .248-.069.466-.207.653a1.314 1.314 0 01-.579.422 2.265 2.265 0 01-.86.149zm2.722-.074v-4.153h.67v4.153h-.67zm-.082-5.096v-.753h.827v.753h-.827zm3.758 5.17a2.06 2.06 0 01-1.043-.256 1.78 1.78 0 01-.678-.745c-.16-.325-.24-.709-.24-1.15 0-.446.08-.83.24-1.15.16-.32.386-.565.678-.736a2.014 2.014 0 011.043-.265c.402 0 .75.089 1.042.265.298.171.527.416.687.736.165.32.248.704.248 1.15 0 .441-.083.825-.248 1.15-.16.32-.389.568-.687.745-.292.171-.64.256-1.042.256zm0-.546c.397 0 .711-.135.943-.405.231-.276.347-.676.347-1.2 0-.529-.118-.929-.355-1.199-.232-.276-.544-.414-.935-.414-.392 0-.703.138-.935.414-.232.27-.348.67-.348 1.199 0 .524.116.924.348 1.2.232.27.543.405.935.405zm3.022.472v-3.194c0-.154-.009-.311-.025-.471a12.318 12.318 0 00-.042-.488h.646l.082.91h-.099c.121-.32.314-.563.579-.728.27-.171.582-.257.935-.257.491 0 .86.133 1.109.397.253.26.38.671.38 1.233v2.598h-.67v-2.557c0-.391-.08-.675-.24-.852-.154-.182-.397-.273-.728-.273-.386 0-.692.119-.918.356-.226.237-.339.554-.339.951v2.375h-.67z" fill="#000"/></svg>