<svg width="102" height="35" viewBox="0 0 102 35" fill="none" xmlns="http://www.w3.org/2000/svg"><path d="M4.256 7.856V12h1.84V7.856L10.272.8H8.208L5.184 5.92 2.24.8H.08l4.176 7.056zm9.402 4.24c2.496 0 4.176-1.68 4.176-4.192 0-2.496-1.68-4.192-4.176-4.192-2.496 0-4.176 1.696-4.176 4.192 0 2.512 1.68 4.192 4.176 4.192zm0-1.472c-1.457 0-2.4-1.136-2.4-2.72 0-1.584.944-2.72 2.4-2.72s2.415 1.136 2.415 2.72c0 1.584-.96 2.72-2.415 2.72zm11.181-2.72c0 1.696-.8 2.688-2.112 2.688-1.264 0-1.904-.816-1.904-2.416V3.808h-1.728v4.56c0 2.8 1.488 3.728 3.232 3.728 1.264 0 2.016-.512 2.528-1.136l.192 1.04h1.52V3.808h-1.728v4.096zm4.23-7.2c-.735 0-1.215.48-1.215 1.088 0 .672.416 1.024.944 1.024a.873.873 0 00.528-.176c.016.08.016.144.016.224 0 .56-.4 1.184-1.408 1.184v.944c1.584-.016 2.576-.896 2.576-2.448 0-1.04-.56-1.84-1.44-1.84zm6.923 3.104c-1.344 0-2 .544-2.416 1.232l-.192-1.232h-1.536V12h1.728V7.888c0-1.264.496-2.464 2.032-2.464h.768V3.808h-.384zm4.947 8.288c2.032 0 3.408-1.232 3.696-2.848h-1.728c-.24.912-1.008 1.44-2.064 1.44-1.36 0-2.24-.912-2.288-2.304v-.112h6.176c.032-.224.048-.448.048-.656-.048-2.4-1.632-3.904-4-3.904-2.416 0-4.032 1.68-4.032 4.208 0 2.512 1.616 4.176 4.192 4.176zm-2.32-5.088c.128-1.168 1.072-1.904 2.176-1.904 1.2 0 2.048.688 2.192 1.904H38.62zm15.97-3.296c-1.327 0-2.111.528-2.623 1.168l-.192-1.072H50.27V12h1.728V7.872c0-1.664.816-2.672 2.192-2.672 1.296 0 1.952.832 1.952 2.384V12h1.744V7.44c0-2.736-1.488-3.728-3.296-3.728zm8.694 8.384c2.032 0 3.408-1.232 3.696-2.848H65.25c-.24.912-1.008 1.44-2.064 1.44-1.36 0-2.24-.912-2.288-2.304v-.112h6.176c.032-.224.048-.448.048-.656-.048-2.4-1.632-3.904-4-3.904-2.416 0-4.032 1.68-4.032 4.208 0 2.512 1.616 4.176 4.192 4.176zm-2.32-5.088c.128-1.168 1.072-1.904 2.176-1.904 1.2 0 2.048.688 2.192 1.904h-4.368zm15.045 3.488c-.352 0-.528-.112-.528-.528v-3.28c0-1.936-1.248-2.976-3.424-2.976-2.064 0-3.44.992-3.616 2.592h1.696c.128-.72.816-1.2 1.84-1.2 1.136 0 1.792.56 1.792 1.472v.496h-2.064c-2.288 0-3.504.944-3.504 2.624 0 1.52 1.248 2.4 3.04 2.4 1.328 0 2.16-.576 2.704-1.408 0 .816.384 1.312 1.504 1.312h.912v-1.504h-.352zm-2.24-1.856c-.016 1.264-.848 2.112-2.288 2.112-.944 0-1.52-.48-1.52-1.168 0-.832.592-1.232 1.664-1.232h2.144v.288zm7.677-4.832c-1.344 0-2 .544-2.416 1.232l-.192-1.232h-1.536V12h1.728V7.888c0-1.264.496-2.464 2.032-2.464h.768V3.808h-.384zM82.895 12h1.728V.8h-1.728V12zm5.79.048l-.32.8c-.256.672-.416.832-1.088.832H86.06v1.52h1.856c1.2 0 1.552-.592 2.064-1.92l3.712-9.472h-1.84l-2.224 6.224-2.288-6.224H85.5l3.184 8.24zM4.992 22.808c-1.344 0-2 .544-2.416 1.232l-.192-1.232H.848V31h1.728v-4.112c0-1.264.496-2.464 2.032-2.464h.768v-1.616h-.384zm4.947 8.288c2.032 0 3.408-1.232 3.696-2.848h-1.728c-.24.912-1.008 1.44-2.064 1.44-1.36 0-2.24-.912-2.288-2.304v-.112h6.176c.032-.224.048-.448.048-.656-.048-2.4-1.632-3.904-4-3.904-2.416 0-4.032 1.68-4.032 4.208 0 2.512 1.616 4.176 4.192 4.176zm-2.32-5.088c.128-1.168 1.072-1.904 2.176-1.904 1.2 0 2.048.688 2.192 1.904H7.62zm15.045 3.488c-.352 0-.528-.112-.528-.528v-3.28c0-1.936-1.248-2.976-3.424-2.976-2.064 0-3.44.992-3.616 2.592h1.696c.128-.72.816-1.2 1.84-1.2 1.136 0 1.792.56 1.792 1.472v.496H18.36c-2.288 0-3.504.944-3.504 2.624 0 1.52 1.248 2.4 3.04 2.4 1.328 0 2.16-.576 2.704-1.408 0 .816.384 1.312 1.504 1.312h.912v-1.504h-.352zm-2.24-1.856c-.016 1.264-.848 2.112-2.288 2.112-.944 0-1.52-.48-1.52-1.168 0-.832.592-1.232 1.664-1.232h2.144v.288zm9.695-3.696c-.528-.72-1.408-1.232-2.656-1.232-2.224 0-3.872 1.664-3.872 4.192 0 2.624 1.648 4.192 3.872 4.192 1.296 0 2.144-.608 2.672-1.328L30.343 31h1.504V19.8h-1.728v4.144zM27.75 29.64c-1.44 0-2.384-1.12-2.384-2.736 0-1.6.944-2.72 2.384-2.72s2.384 1.12 2.384 2.752c0 1.584-.944 2.704-2.384 2.704zm8.152 1.408l-.32.8c-.255.672-.416.832-1.087.832h-1.217v1.52h1.856c1.2 0 1.553-.592 2.065-1.92l3.711-9.472h-1.84l-2.224 6.224-2.288-6.224h-1.84l3.184 8.24zm10.568-2.272c0 1.488.672 2.224 2.24 2.224h1.6v-1.52h-1.216c-.656 0-.88-.24-.88-.88v-4.272h2v-1.52h-2V20.52h-1.744v2.288h-1.424v1.52h1.424v4.448zm8.64 2.32c2.496 0 4.176-1.68 4.176-4.192 0-2.496-1.68-4.192-4.176-4.192-2.496 0-4.176 1.696-4.176 4.192 0 2.512 1.68 4.192 4.176 4.192zm0-1.472c-1.456 0-2.4-1.136-2.4-2.72 0-1.584.944-2.72 2.4-2.72s2.416 1.136 2.416 2.72c0 1.584-.96 2.72-2.416 2.72zm10.25-.848c0 1.488.673 2.224 2.24 2.224h1.6v-1.52h-1.215c-.656 0-.88-.24-.88-.88v-4.272h2v-1.52h-2V20.52h-1.744v2.288h-1.424v1.52h1.424v4.448zm9.084-5.968c-1.344 0-2 .544-2.416 1.232l-.192-1.232h-1.536V31h1.728v-4.112c0-1.264.496-2.464 2.032-2.464h.768v-1.616h-.384zm8.688 6.688c-.352 0-.528-.112-.528-.528v-3.28c0-1.936-1.248-2.976-3.424-2.976-2.064 0-3.44.992-3.616 2.592h1.696c.128-.72.816-1.2 1.84-1.2 1.136 0 1.792.56 1.792 1.472v.496h-2.064c-2.288 0-3.504.944-3.504 2.624 0 1.52 1.248 2.4 3.04 2.4 1.328 0 2.16-.576 2.704-1.408 0 .816.384 1.312 1.504 1.312h.912v-1.504h-.352zm-2.24-1.856c-.016 1.264-.848 2.112-2.288 2.112-.944 0-1.52-.48-1.52-1.168 0-.832.592-1.232 1.664-1.232h2.144v.288zm9.695-3.696c-.528-.72-1.408-1.232-2.656-1.232-2.224 0-3.872 1.664-3.872 4.192 0 2.624 1.648 4.192 3.872 4.192 1.296 0 2.144-.608 2.672-1.328L90.812 31h1.504V19.8h-1.728v4.144zM88.22 29.64c-1.44 0-2.384-1.12-2.384-2.736 0-1.6.944-2.72 2.384-2.72s2.384 1.12 2.384 2.752c0 1.584-.944 2.704-2.384 2.704zm9.672 1.456c2.032 0 3.408-1.232 3.696-2.848H99.86c-.24.912-1.008 1.44-2.064 1.44-1.36 0-2.24-.912-2.288-2.304v-.112h6.176c.032-.224.048-.448.048-.656-.048-2.4-1.632-3.904-4-3.904-2.416 0-4.032 1.68-4.032 4.208 0 2.512 1.616 4.176 4.192 4.176zm-2.32-5.088c.128-1.168 1.072-1.904 2.176-1.904 1.2 0 2.048.688 2.192 1.904h-4.368z" fill="#000"/></svg>