<svg width="650" height="547" viewBox="0 0 650 547" fill="none" xmlns="http://www.w3.org/2000/svg"><path d="M.5.5v546h649V.5H.5zm517.241 425.577c-8.934 0-53.605-.992-70.976-.992-18.365 0-73.955.992-83.386.992v-6.945l15.883-2.48c15.387-2.48 21.839-6.448 21.839-15.873 0-7.937-4.963-17.858-15.883-34.723l-55.59-84.823-55.59 76.39c-12.905 17.858-18.861 31.251-18.861 41.172 0 9.921 5.956 15.873 21.343 18.353l16.379 2.48v6.945c-8.934 0-48.642-.992-66.51-.992-17.868 0-46.16.992-55.59.992v-7.441l8.438-1.488c22.335-3.968 43.181-22.818 60.057-44.147l80.407-105.161-78.918-117.066c-18.365-27.282-31.27-39.683-51.123-43.156l-10.423-1.984v-6.944c8.934 0 53.604.992 70.976.992 18.365 0 72.962-.992 82.393-.992v6.944l-15.883 2.48c-13.401 1.985-20.846 6.449-20.846 15.874 0 7.936 4.963 17.857 15.883 34.723l47.648 73.414 46.657-65.478c12.408-17.857 18.861-31.25 18.861-40.675 0-9.425-6.453-15.873-21.343-18.354l-16.379-2.48v-6.945c8.934 0 48.641.993 66.509.993 17.869 0 46.16-.993 55.591-.993v6.945l-8.438 1.488c-22.336 3.969-42.685 20.834-60.057 44.148l-71.97 94.248 87.356 127.979c18.365 27.282 31.27 39.683 51.123 43.155l10.423 1.984v7.441z" fill="#fff"/></svg>