<svg width="140" height="167" viewBox="0 0 140 167" fill="none" xmlns="http://www.w3.org/2000/svg"><path d="M.97 110.953h.728v-4.473h5.456v4.473h.728v-9.431h-.728v4.284H1.698v-4.284H.97v9.431zm14.702-.633c-.404 0-.606-.135-.606-.66v-3.18c0-1.563-.957-2.439-2.668-2.439-1.563 0-2.6.755-2.775 1.994h.687c.175-.835.903-1.387 2.061-1.387 1.28 0 2.008.673 2.008 1.805v.593h-2.317c-1.752 0-2.695.754-2.695 2.034 0 1.213.956 1.954 2.412 1.954 1.387 0 2.21-.633 2.627-1.482v.242c-.027.809.31 1.159 1.118 1.159h.404v-.633h-.256zm-1.293-2.129c0 1.307-.93 2.25-2.546 2.25-1.092 0-1.765-.552-1.765-1.401 0-.903.673-1.401 1.94-1.401h2.371v.552zm5.257-4.069c-1.266 0-1.805.607-2.088 1.361l-.108-1.361h-.593v6.831h.687v-3.462c0-1.388.364-2.709 1.968-2.709H20v-.66h-.364zm4.535-.081c-1.253 0-2.061.647-2.452 1.536l-.108-1.455h-.593v6.831h.687v-3.368c0-1.779.903-2.91 2.358-2.91 1.32 0 2.115.862 2.115 2.479v3.799h.688v-3.826c0-2.156-1.146-3.086-2.695-3.086zm7.128 6.993c1.496 0 2.64-.97 2.937-2.344h-.7c-.27 1.064-1.172 1.724-2.29 1.724-1.523 0-2.48-1.158-2.507-2.748v-.122h5.578c0-.094.014-.202.014-.283-.068-2.034-1.32-3.22-3.153-3.22-1.873 0-3.153 1.429-3.153 3.45 0 2.142 1.334 3.543 3.274 3.543zm-2.506-4.069c.108-1.388 1.145-2.317 2.398-2.317 1.334 0 2.29.822 2.399 2.317h-4.797zm6.573 1.886c.054 1.415 1.199 2.183 2.91 2.183 1.468 0 2.654-.741 2.654-1.954 0-1.441-1.266-1.724-2.735-1.926-1.064-.148-2.007-.27-2.007-1.226 0-.782.767-1.294 1.926-1.294 1.092 0 1.873.526 1.994 1.415h.7c-.12-1.334-1.212-2.008-2.694-2.008-1.522-.013-2.614.768-2.614 1.941 0 1.374 1.267 1.63 2.668 1.818 1.145.162 2.075.31 2.075 1.321 0 .808-.849 1.32-1.967 1.32-1.307 0-2.156-.606-2.21-1.59h-.7zm6.434 0c.054 1.415 1.199 2.183 2.91 2.183 1.468 0 2.654-.741 2.654-1.954 0-1.441-1.266-1.724-2.735-1.926-1.064-.148-2.008-.27-2.008-1.226 0-.782.768-1.294 1.927-1.294 1.091 0 1.873.526 1.994 1.415h.7c-.12-1.334-1.212-2.008-2.694-2.008-1.522-.013-2.614.768-2.614 1.941 0 1.374 1.267 1.63 2.668 1.818 1.145.162 2.075.31 2.075 1.321 0 .808-.849 1.32-1.967 1.32-1.307 0-2.156-.606-2.21-1.59h-.7zm11.019.512c0 1.092.444 1.59 1.603 1.59h.997v-.633h-.943c-.714 0-.97-.27-.97-.97v-4.595h1.846v-.633h-1.846v-1.913h-.688v1.913h-1.293v.633h1.294v4.608zm6.798-5.322c-1.28 0-2.075.714-2.466 1.698v-4.217h-.687v9.431h.687v-3.368c0-1.779.903-2.91 2.358-2.91 1.307 0 2.115.862 2.115 2.479v3.799h.688v-3.826c0-2.156-1.145-3.086-2.695-3.086zm7.141 6.993c1.496 0 2.641-.97 2.938-2.344h-.701c-.27 1.064-1.172 1.724-2.29 1.724-1.523 0-2.48-1.158-2.507-2.748v-.122h5.578c0-.094.014-.202.014-.283-.068-2.034-1.32-3.22-3.153-3.22-1.873 0-3.153 1.429-3.153 3.45 0 2.142 1.334 3.543 3.274 3.543zm-2.506-4.069c.108-1.388 1.146-2.317 2.399-2.317 1.333 0 2.29.822 2.398 2.317h-4.797zm13.828-2.924c-1.28 0-2.169.688-2.6 1.644l-.108-1.563h-.593v9.526h.688v-4.271c.39.997 1.32 1.657 2.613 1.657 1.873 0 3.22-1.428 3.22-3.503 0-2.142-1.347-3.49-3.22-3.49zm-.053 6.373c-1.523 0-2.574-1.185-2.574-2.897 0-1.67 1.051-2.869 2.573-2.869 1.523 0 2.574 1.199 2.574 2.883 0 1.698-1.051 2.883-2.573 2.883zm7.652.62c1.926 0 3.287-1.428 3.287-3.503 0-2.061-1.36-3.49-3.287-3.49-1.927 0-3.274 1.429-3.274 3.49 0 2.075 1.347 3.503 3.274 3.503zm0-.62c-1.523 0-2.574-1.185-2.574-2.883 0-1.684 1.051-2.883 2.574-2.883 1.522 0 2.573 1.199 2.573 2.883 0 1.698-1.05 2.883-2.573 2.883zm6.1.539h.74l2.021-5.739 1.927 5.739h.74l2.426-6.831h-.7l-2.102 6.009-1.954-6.009h-.633l-2.062 6.009-1.994-6.009h-.727l2.317 6.831zm11.623.081c1.495 0 2.641-.97 2.937-2.344h-.701c-.269 1.064-1.172 1.724-2.29 1.724-1.523 0-2.479-1.158-2.506-2.748v-.122h5.578c0-.094.013-.202.013-.283-.067-2.034-1.32-3.22-3.152-3.22-1.873 0-3.153 1.429-3.153 3.45 0 2.142 1.334 3.543 3.274 3.543zm-2.506-4.069c.108-1.388 1.145-2.317 2.398-2.317 1.334 0 2.29.822 2.398 2.317h-4.796zm9.684-2.843c-1.266 0-1.805.607-2.088 1.361l-.108-1.361h-.593v6.831h.688v-3.462c0-1.388.363-2.709 1.967-2.709h.498v-.66h-.364zM3.826 127.034c1.927 0 3.288-1.428 3.288-3.503 0-2.061-1.36-3.49-3.288-3.49-1.926 0-3.274 1.429-3.274 3.49 0 2.075 1.348 3.503 3.274 3.503zm0-.62c-1.522 0-2.573-1.185-2.573-2.883 0-1.684 1.05-2.883 2.573-2.883s2.574 1.199 2.574 2.883c0 1.698-1.051 2.883-2.574 2.883zm3.766-5.659h1.294v6.198h.687v-6.198h2.048v-.633H9.573v-1.024c0-.673.256-.943.943-.943h1.118v-.633H10.49c-1.145 0-1.603.498-1.603 1.59v1.01H7.592v.633zm12.642 6.279c2.02 0 3.45-1.091 3.853-2.991h-.768c-.404 1.509-1.495 2.317-3.099 2.317-2.182 0-3.556-1.711-3.556-4.122 0-2.412 1.4-4.123 3.583-4.123 1.577 0 2.682.822 3.1 2.304h.767c-.418-1.887-1.846-2.978-3.826-2.978-2.654 0-4.379 1.967-4.379 4.797 0 2.856 1.684 4.796 4.325 4.796zm5.608-8.353c.27 0 .485-.202.485-.485a.475.475 0 00-.485-.485.475.475 0 00-.485.485c0 .283.216.485.485.485zm-.35 8.272h.687v-6.831h-.687v6.831zm2.814-1.59c0 1.092.445 1.59 1.604 1.59h.997v-.633h-.944c-.714 0-.97-.27-.97-.97v-4.595h1.846v-.633h-1.846v-1.913h-.687v1.913h-1.293v.633h1.293v4.608zm5.694 1.59l-.445 1.105c-.31.754-.43.957-1.131.957h-.863v.633h1.051c.916 0 1.132-.351 1.563-1.428l3.274-8.098h-.74l-2.332 5.942-2.371-5.942h-.741L34 126.953zm8.166 0h.728v-9.431h-.728v9.431zm5.662-6.912c-1.253 0-2.061.647-2.452 1.536l-.108-1.455h-.593v6.831h.687v-3.368c0-1.779.903-2.91 2.358-2.91 1.32 0 2.116.862 2.116 2.479v3.799h.687v-3.826c0-2.156-1.146-3.086-2.695-3.086zm9.688 1.617c-.418-.97-1.334-1.617-2.614-1.617-1.873 0-3.22 1.429-3.22 3.49 0 2.156 1.347 3.503 3.22 3.503 1.28 0 2.17-.687 2.6-1.644l.108 1.563h.593v-9.431h-.687v4.136zm-2.56 4.756c-1.522 0-2.573-1.185-2.573-2.883 0-1.684 1.05-2.883 2.573-2.883s2.573 1.199 2.573 2.896c0 1.685-1.05 2.87-2.573 2.87zm7.881.62c1.496 0 2.641-.97 2.938-2.344h-.701c-.27 1.064-1.172 1.724-2.29 1.724-1.523 0-2.48-1.158-2.506-2.748v-.122h5.577c0-.094.014-.202.014-.283-.067-2.034-1.32-3.22-3.153-3.22-1.873 0-3.153 1.429-3.153 3.45 0 2.142 1.334 3.543 3.274 3.543zm-2.506-4.069c.108-1.388 1.146-2.317 2.399-2.317 1.334 0 2.29.822 2.398 2.317H60.33zm5.932 3.988h.795l2.263-3.004 2.264 3.004h.835l-2.654-3.489 2.52-3.342h-.782l-2.156 2.83-2.129-2.83h-.822l2.52 3.342-2.654 3.489zm7.326-9.498c-.364 0-.593.215-.593.525 0 .323.216.485.472.485.134 0 .269-.054.336-.162.095.095.122.216.122.351 0 .512-.324 1.037-1.01 1.064v.404c.929-.04 1.508-.66 1.508-1.549 0-.62-.35-1.118-.835-1.118zm1.63 7.396c.054 1.415 1.2 2.183 2.91 2.183 1.47 0 2.655-.741 2.655-1.954 0-1.441-1.267-1.724-2.735-1.926-1.065-.148-2.008-.27-2.008-1.226 0-.782.768-1.294 1.927-1.294 1.091 0 1.873.526 1.994 1.415h.7c-.12-1.334-1.212-2.008-2.694-2.008-1.522-.013-2.614.768-2.614 1.941 0 1.374 1.267 1.63 2.668 1.818 1.145.162 2.075.31 2.075 1.321 0 .808-.849 1.32-1.967 1.32-1.307 0-2.156-.606-2.21-1.59h-.7zm11.02.512c0 1.092.444 1.59 1.603 1.59h.997v-.633h-.943c-.715 0-.97-.27-.97-.97v-4.595h1.845v-.633h-1.846v-1.913h-.687v1.913h-1.293v.633h1.293v4.608zm6.453 1.671c1.926 0 3.287-1.428 3.287-3.503 0-2.061-1.36-3.49-3.287-3.49-1.927 0-3.274 1.429-3.274 3.49 0 2.075 1.347 3.503 3.274 3.503zm0-.62c-1.523 0-2.574-1.185-2.574-2.883 0-1.684 1.051-2.883 2.574-2.883 1.522 0 2.573 1.199 2.573 2.883 0 1.698-1.05 2.883-2.573 2.883zm7.67.62c1.927 0 3.288-1.428 3.288-3.503 0-2.061-1.361-3.49-3.288-3.49-1.926 0-3.274 1.429-3.274 3.49 0 2.075 1.348 3.503 3.274 3.503zm0-.62c-1.522 0-2.573-1.185-2.573-2.883 0-1.684 1.051-2.883 2.573-2.883 1.523 0 2.574 1.199 2.574 2.883 0 1.698-1.051 2.883-2.574 2.883zm4.653.539h.687v-9.431h-.687v9.431zm1.993-2.102c.054 1.415 1.199 2.183 2.91 2.183 1.469 0 2.654-.741 2.654-1.954 0-1.441-1.266-1.724-2.735-1.926-1.064-.148-2.007-.27-2.007-1.226 0-.782.768-1.294 1.926-1.294 1.092 0 1.873.526 1.994 1.415h.701c-.121-1.334-1.213-2.008-2.695-2.008-1.522-.013-2.613.768-2.613 1.941 0 1.374 1.266 1.63 2.667 1.818 1.146.162 2.075.31 2.075 1.321 0 .808-.849 1.32-1.967 1.32-1.307 0-2.156-.606-2.21-1.59h-.7zM1.32 141.363c0 1.092.445 1.59 1.604 1.59h.997v-.633h-.943c-.715 0-.97-.27-.97-.97v-4.595h1.845v-.633H2.008v-1.913H1.32v1.913H.027v.633H1.32v4.608zm6.454 1.671c1.926 0 3.287-1.428 3.287-3.503 0-2.061-1.36-3.49-3.287-3.49-1.927 0-3.274 1.429-3.274 3.49 0 2.075 1.347 3.503 3.274 3.503zm0-.62c-1.523 0-2.574-1.185-2.574-2.883 0-1.684 1.051-2.883 2.574-2.883 1.522 0 2.573 1.199 2.573 2.883 0 1.698-1.05 2.883-2.573 2.883zm11.302.62c1.495 0 2.64-.97 2.937-2.344h-.7c-.27 1.064-1.173 1.724-2.291 1.724-1.522 0-2.48-1.158-2.506-2.748v-.122h5.578c0-.094.013-.202.013-.283-.067-2.034-1.32-3.22-3.152-3.22-1.873 0-3.153 1.429-3.153 3.45 0 2.142 1.334 3.543 3.274 3.543zm-2.506-4.069c.108-1.388 1.145-2.317 2.398-2.317 1.334 0 2.29.822 2.398 2.317H16.57zm10.048-2.924c-1.253 0-2.061.647-2.452 1.536l-.108-1.455h-.593v6.831h.688v-3.368c0-1.779.902-2.91 2.357-2.91 1.32 0 2.116.862 2.116 2.479v3.799h.687v-3.826c0-2.156-1.145-3.086-2.695-3.086zm7.368 0c-1.28 0-2.074.714-2.465 1.698v-4.217h-.687v9.431h.687v-3.368c0-1.779.902-2.91 2.358-2.91 1.306 0 2.115.862 2.115 2.479v3.799h.687v-3.826c0-2.156-1.145-3.086-2.695-3.086zm10.238 6.279c-.404 0-.606-.135-.606-.66v-3.18c0-1.563-.957-2.439-2.668-2.439-1.563 0-2.6.755-2.776 1.994h.688c.175-.835.902-1.387 2.061-1.387 1.28 0 2.008.673 2.008 1.805v.593h-2.318c-1.751 0-2.694.754-2.694 2.034 0 1.213.956 1.954 2.411 1.954 1.388 0 2.21-.633 2.628-1.482v.242c-.027.809.31 1.159 1.118 1.159h.404v-.633h-.256zm-1.293-2.129c0 1.307-.93 2.25-2.547 2.25-1.091 0-1.765-.552-1.765-1.401 0-.903.674-1.401 1.94-1.401h2.372v.552zm5.62-4.15c-1.252 0-2.06.647-2.452 1.536l-.107-1.455h-.593v6.831h.687v-3.368c0-1.779.903-2.91 2.358-2.91 1.32 0 2.115.862 2.115 2.479v3.799h.687v-3.826c0-2.156-1.145-3.086-2.694-3.086zm7.088 6.993c1.55 0 2.641-.889 2.91-2.277h-.727c-.229 1.011-1.05 1.657-2.183 1.657-1.495 0-2.533-1.172-2.533-2.87 0-1.697 1.024-2.896 2.533-2.896 1.146 0 1.954.646 2.197 1.67h.714c-.283-1.414-1.348-2.277-2.897-2.277-1.927 0-3.247 1.429-3.247 3.503 0 2.102 1.307 3.49 3.233 3.49zm7.264 0c1.496 0 2.641-.97 2.937-2.344h-.7c-.27 1.064-1.172 1.724-2.29 1.724-1.523 0-2.48-1.158-2.507-2.748v-.122h5.578c0-.094.014-.202.014-.283-.068-2.034-1.32-3.22-3.153-3.22-1.873 0-3.153 1.429-3.153 3.45 0 2.142 1.334 3.543 3.274 3.543zm-2.506-4.069c.108-1.388 1.145-2.317 2.398-2.317 1.334 0 2.29.822 2.399 2.317h-4.797zm12.575 3.988l-.444 1.105c-.31.754-.431.957-1.132.957h-.862v.633h1.05c.917 0 1.132-.351 1.563-1.428l3.274-8.098h-.74l-2.331 5.942-2.372-5.942h-.74l2.734 6.831zm7.102.081c1.926 0 3.287-1.428 3.287-3.503 0-2.061-1.36-3.49-3.287-3.49-1.927 0-3.274 1.429-3.274 3.49 0 2.075 1.347 3.503 3.274 3.503zm0-.62c-1.523 0-2.574-1.185-2.574-2.883 0-1.684 1.051-2.883 2.574-2.883 1.522 0 2.573 1.199 2.573 2.883 0 1.698-1.05 2.883-2.573 2.883zm9.61-2.937c0 1.792-.889 2.924-2.303 2.924-1.267 0-2.048-.863-2.048-2.493v-3.786h-.687v3.827c0 2.142 1.118 3.085 2.627 3.085 1.213 0 2.007-.647 2.398-1.522l.094 1.441h.607v-6.831h-.687v3.355zm5.094-3.355c-1.266 0-1.805.607-2.088 1.361l-.108-1.361h-.593v6.831h.688v-3.462c0-1.388.363-2.709 1.967-2.709h.498v-.66h-.364zM1.32 157.363c0 1.092.445 1.59 1.604 1.59h.997v-.633h-.943c-.715 0-.97-.27-.97-.97v-4.595h1.845v-.633H2.008v-1.913H1.32v1.913H.027v.633H1.32v4.608zm6.435-5.241c-1.266 0-1.805.607-2.088 1.361l-.108-1.361h-.593v6.831h.687v-3.462c0-1.388.364-2.709 1.967-2.709h.499v-.66h-.364zm7.102 6.198c-.405 0-.607-.135-.607-.66v-3.18c0-1.563-.956-2.439-2.667-2.439-1.563 0-2.6.755-2.776 1.994h.687c.175-.835.903-1.387 2.062-1.387 1.28 0 2.007.673 2.007 1.805v.593h-2.317c-1.752 0-2.695.754-2.695 2.034 0 1.213.957 1.954 2.412 1.954 1.388 0 2.21-.633 2.627-1.482v.242c-.027.809.31 1.159 1.118 1.159h.405v-.633h-.256zm-1.294-2.129c0 1.307-.93 2.25-2.546 2.25-1.092 0-1.765-.552-1.765-1.401 0-.903.673-1.401 1.94-1.401h2.371v.552zm7.941-2.533c-.418-.97-1.334-1.617-2.614-1.617-1.872 0-3.22 1.429-3.22 3.49 0 2.156 1.348 3.503 3.22 3.503 1.28 0 2.17-.687 2.6-1.644l.109 1.563h.592v-9.431h-.687v4.136zm-2.56 4.756c-1.522 0-2.573-1.185-2.573-2.883 0-1.684 1.05-2.883 2.573-2.883s2.574 1.199 2.574 2.896c0 1.685-1.051 2.87-2.574 2.87zm5.214-7.733c.27 0 .485-.202.485-.485a.475.475 0 00-.485-.485.475.475 0 00-.485.485c0 .283.215.485.485.485zm-.35 8.272h.687v-6.831h-.687v6.831zm5.455-6.912c-1.253 0-2.062.647-2.452 1.536l-.108-1.455h-.593v6.831h.687v-3.368c0-1.779.903-2.91 2.358-2.91 1.32 0 2.115.862 2.115 2.479v3.799h.688v-3.826c0-2.156-1.146-3.086-2.695-3.086zm9.78 1.671c-.418-1.01-1.334-1.671-2.6-1.671-1.873 0-3.22 1.415-3.22 3.49 0 2.156 1.347 3.503 3.22 3.503 1.28 0 2.182-.674 2.613-1.738v1.213c0 1.818-.862 2.6-2.506 2.6-1.28 0-2.169-.579-2.385-1.617h-.714c.216 1.455 1.388 2.237 3.045 2.237 2.21 0 3.247-1.051 3.247-3.194v-6.413h-.593l-.107 1.59zm-2.547 4.702c-1.522 0-2.573-1.185-2.573-2.883s1.05-2.883 2.573-2.883 2.574 1.185 2.574 2.896c0 1.685-1.051 2.87-2.574 2.87zM51 158.32c-.404 0-.606-.135-.606-.66v-3.18c0-1.563-.957-2.439-2.668-2.439-1.563 0-2.6.755-2.775 1.994h.687c.175-.835.902-1.387 2.061-1.387 1.28 0 2.008.673 2.008 1.805v.593h-2.318c-1.751 0-2.694.754-2.694 2.034 0 1.213.956 1.954 2.411 1.954 1.388 0 2.21-.633 2.628-1.482v.242c-.027.809.31 1.159 1.118 1.159h.404v-.633H51zm-1.293-2.129c0 1.307-.93 2.25-2.547 2.25-1.091 0-1.765-.552-1.765-1.401 0-.903.674-1.401 1.94-1.401h2.372v.552zm5.769-4.15c-1.28 0-2.183.701-2.614 1.671v-4.19h-.687v9.431h.593l.108-1.549c.404.983 1.32 1.63 2.6 1.63 1.873 0 3.22-1.428 3.22-3.503 0-2.142-1.347-3.49-3.22-3.49zm-.054 6.373c-1.522 0-2.573-1.185-2.573-2.897 0-1.67 1.05-2.869 2.573-2.869s2.573 1.199 2.573 2.883c0 1.698-1.05 2.883-2.573 2.883zm4.985-7.733c.269 0 .485-.202.485-.485a.475.475 0 00-.485-.485.475.475 0 00-.485.485c0 .283.215.485.485.485zm-.35 8.272h.686v-6.831h-.687v6.831zm2.302 0h.687v-9.431h-.687v9.431zm2.653-8.272c.27 0 .485-.202.485-.485a.475.475 0 00-.485-.485.475.475 0 00-.485.485c0 .283.215.485.485.485zm-.35 8.272h.686v-6.831h-.687v6.831zm2.814-1.59c0 1.092.445 1.59 1.603 1.59h.997v-.633h-.943c-.714 0-.97-.27-.97-.97v-4.595h1.846v-.633h-1.846v-1.913h-.687v1.913h-1.293v.633h1.293v4.608zm3.996-6.682c.27 0 .485-.202.485-.485a.475.475 0 00-.485-.485.475.475 0 00-.485.485c0 .283.216.485.485.485zm-.35 8.272h.687v-6.831h-.687v6.831zm5.32.081c1.496 0 2.641-.97 2.937-2.344h-.7c-.27 1.064-1.172 1.724-2.29 1.724-1.523 0-2.48-1.158-2.507-2.748v-.122h5.578c0-.094.014-.202.014-.283-.068-2.034-1.32-3.22-3.153-3.22-1.873 0-3.153 1.429-3.153 3.45 0 2.142 1.334 3.543 3.274 3.543zm-2.506-4.069c.108-1.388 1.145-2.317 2.398-2.317 1.334 0 2.29.822 2.399 2.317h-4.797zm6.573 1.886c.054 1.415 1.199 2.183 2.91 2.183 1.469 0 2.654-.741 2.654-1.954 0-1.441-1.266-1.724-2.735-1.926-1.064-.148-2.007-.27-2.007-1.226 0-.782.768-1.294 1.926-1.294 1.092 0 1.873.526 1.994 1.415h.701c-.121-1.334-1.213-2.008-2.695-2.008-1.522-.013-2.614.768-2.614 1.941 0 1.374 1.267 1.63 2.668 1.818 1.145.162 2.075.31 2.075 1.321 0 .808-.849 1.32-1.967 1.32-1.307 0-2.156-.606-2.21-1.59h-.7zm6.676 1.658c0 .309.216.512.512.512a.488.488 0 00.512-.512c0-.31-.216-.499-.512-.499-.296 0-.512.189-.512.499zM3.122 12.258c0 3.72 1.758 5.722 5.142 5.722 3.403 0 5.18-2.001 5.18-5.722v-7.48h-2.15v7.592c0 2.43-.936 3.702-3.03 3.702-2.057 0-2.992-1.271-2.992-3.702V4.778h-2.15v7.48zm17.48-4.076c-1.551 0-2.468.617-3.066 1.365l-.224-1.253h-1.758v9.573h2.02v-4.824c0-1.944.953-3.123 2.561-3.123 1.515 0 2.281.973 2.281 2.787v5.16h2.039v-5.329c0-3.197-1.74-4.356-3.852-4.356zm5.69 9.685h2.019V4.778h-2.02v13.09zm8.523.113c2.917 0 4.88-1.964 4.88-4.9 0-2.916-1.963-4.898-4.88-4.898s-4.88 1.982-4.88 4.899c0 2.935 1.963 4.899 4.88 4.899zm0-1.72c-1.701 0-2.805-1.328-2.805-3.18 0-1.85 1.104-3.178 2.805-3.178 1.702 0 2.824 1.327 2.824 3.179 0 1.85-1.122 3.178-2.824 3.178zm10.899 1.72c2.449 0 4.076-1.366 4.45-3.535h-2.132c-.243 1.104-1.066 1.814-2.3 1.814-1.627 0-2.692-1.29-2.692-3.16 0-1.888 1.065-3.197 2.692-3.197 1.253 0 2.057.692 2.319 1.814h2.113c-.393-2.17-1.926-3.534-4.394-3.534-2.899 0-4.806 1.963-4.806 4.917 0 2.992 1.851 4.88 4.75 4.88zm5.995-.113h2.02v-2.43l1.72-1.795 2.824 4.225h2.393l-3.833-5.703 3.609-3.87h-2.375l-4.338 4.637V4.778h-2.02v13.09zm17.486.056l-.374.935c-.3.786-.487.973-1.272.973h-1.421v1.776h2.169c1.402 0 1.814-.692 2.412-2.244l4.338-11.07h-2.15l-2.6 7.274-2.673-7.273h-2.15l3.72 9.63zm10.96.057c2.917 0 4.88-1.964 4.88-4.9 0-2.916-1.963-4.898-4.88-4.898s-4.88 1.982-4.88 4.899c0 2.935 1.963 4.899 4.88 4.899zm0-1.72c-1.701 0-2.804-1.328-2.804-3.18 0-1.85 1.103-3.178 2.804-3.178 1.702 0 2.824 1.327 2.824 3.179 0 1.85-1.122 3.178-2.824 3.178zm13.068-3.18c0 1.983-.935 3.142-2.469 3.142-1.477 0-2.225-.954-2.225-2.824V8.294H86.51v5.329c0 3.272 1.739 4.357 3.777 4.357 1.477 0 2.356-.599 2.954-1.328l.225 1.215h1.776V8.294h-2.02v4.787zm8.852-4.786c-1.571 0-2.337.635-2.823 1.44l-.225-1.44h-1.795v9.573h2.02v-4.805c0-1.477.58-2.88 2.374-2.88h.898V8.294h-.449z" fill="#000"/><path d="M3.845 47.64c0 2.94 1.328 4.394 4.426 4.394h3.161V49.03H9.03c-1.296 0-1.739-.474-1.739-1.738V38.85h3.952v-3.004H7.29v-4.52H3.845v4.52H1.032v3.004h2.813v8.788zm17.947-11.793c-2.655 0-3.951 1.075-4.773 2.435l-.38-2.434h-3.035v16.186h3.415v-8.125c0-2.498.98-4.869 4.015-4.869h1.517v-3.193h-.759zm17.166 13.215c-.696 0-1.043-.221-1.043-1.043v-6.481c0-3.825-2.466-5.88-6.766-5.88-4.078 0-6.797 1.96-7.144 5.121h3.35c.254-1.422 1.613-2.37 3.636-2.37 2.245 0 3.541 1.106 3.541 2.908v.98h-4.078c-4.52 0-6.924 1.865-6.924 5.184 0 3.003 2.466 4.742 6.007 4.742 2.624 0 4.268-1.138 5.343-2.782 0 1.613.758 2.593 2.971 2.593h1.802v-2.972h-.695zm-4.426-3.667c-.032 2.497-1.675 4.173-4.52 4.173-1.866 0-3.004-.949-3.004-2.308 0-1.644 1.17-2.434 3.288-2.434h4.236v.569zm19.155-7.303c-1.043-1.423-2.782-2.434-5.247-2.434-4.395 0-7.651 3.288-7.651 8.282 0 5.185 3.256 8.283 7.65 8.283 2.561 0 4.237-1.201 5.28-2.624l.41 2.435h2.973v-22.13h-3.415v8.188zM49.01 49.346c-2.846 0-4.71-2.212-4.71-5.405 0-3.162 1.864-5.375 4.71-5.375 2.845 0 4.71 2.213 4.71 5.438 0 3.13-1.865 5.342-4.71 5.342zm13.168-15.775c1.17 0 2.086-.853 2.086-2.055 0-1.2-.917-2.054-2.086-2.054-1.17 0-2.087.853-2.087 2.054 0 1.202.917 2.055 2.087 2.055zm-1.739 18.463h3.414V35.847h-3.414v16.187zm15.297-16.376c-2.624 0-4.173 1.043-5.185 2.308l-.38-2.119H67.2v16.187h3.413v-8.157c0-3.288 1.613-5.28 4.331-5.28 2.561 0 3.857 1.645 3.857 4.711v8.726h3.446v-9.01c0-5.406-2.94-7.366-6.512-7.366zm21.978 2.719c-1.043-1.613-2.782-2.72-5.311-2.72-4.394 0-7.65 3.257-7.65 8.22 0 5.153 3.256 8.22 7.65 8.22 2.53 0 4.205-1.043 5.28-2.656v1.802c0 3.098-1.676 4.521-4.648 4.521-2.402 0-3.983-1.043-4.394-2.845h-3.478c.317 3.635 3.32 5.627 7.62 5.627 5.816 0 8.282-2.782 8.282-7.176V35.847h-2.972l-.379 2.53zM92.971 49.22c-2.845 0-4.71-2.181-4.71-5.343 0-3.13 1.865-5.342 4.71-5.342 2.845 0 4.71 2.213 4.71 5.406 0 3.098-1.865 5.279-4.71 5.279zM11.338 63.658c-2.53 0-4.205 1.17-5.28 2.592l-.41-2.403H2.675v22.51H6.09v-8.6c1.011 1.455 2.75 2.466 5.248 2.466 4.426 0 7.65-3.287 7.65-8.282 0-5.185-3.224-8.283-7.65-8.283zm-.57 13.688c-2.845 0-4.71-2.244-4.71-5.469 0-3.13 1.865-5.31 4.71-5.31 2.846 0 4.743 2.18 4.743 5.374 0 3.16-1.897 5.405-4.742 5.405zm18.606 2.877c4.932 0 8.252-3.32 8.252-8.282 0-4.932-3.32-8.283-8.252-8.283-4.931 0-8.25 3.35-8.25 8.282 0 4.964 3.319 8.283 8.25 8.283zm0-2.908c-2.877 0-4.742-2.245-4.742-5.374 0-3.13 1.865-5.375 4.742-5.375s4.774 2.245 4.774 5.374c0 3.13-1.897 5.375-4.774 5.375zm12.043-1.676c0 2.94 1.328 4.395 4.426 4.395h3.161V77.03h-2.402c-1.296 0-1.739-.474-1.739-1.738V66.85h3.952v-3.004h-3.952v-4.52h-3.446v4.52h-2.814v3.004h2.814v8.788zm17.102 4.584c4.015 0 6.733-2.434 7.303-5.627h-3.415c-.474 1.802-1.991 2.845-4.078 2.845-2.687 0-4.426-1.802-4.52-4.552v-.221H66.01c.063-.443.095-.886.095-1.297-.095-4.742-3.225-7.713-7.903-7.713-4.774 0-7.967 3.32-7.967 8.314 0 4.964 3.193 8.251 8.283 8.251zM53.935 70.17c.253-2.308 2.118-3.762 4.3-3.762 2.37 0 4.046 1.36 4.33 3.762h-8.63zm23.467-6.512c-2.624 0-4.173 1.043-5.185 2.308l-.38-2.118h-2.97v16.186h3.413v-8.157c0-3.287 1.613-5.28 4.332-5.28 2.56 0 3.856 1.645 3.856 4.711v8.726h3.446v-9.01c0-5.406-2.94-7.366-6.512-7.366zm10.787 11.981c0 2.94 1.328 4.395 4.426 4.395h3.161V77.03h-2.402c-1.296 0-1.74-.474-1.74-1.738V66.85h3.953v-3.004h-3.952v-4.52h-3.446v4.52h-2.814v3.004h2.814v8.788zm11.498-14.068c1.17 0 2.086-.853 2.086-2.055 0-1.2-.916-2.054-2.086-2.054s-2.087.853-2.087 2.054c0 1.202.917 2.055 2.087 2.055zm-1.739 18.463h3.414V63.847h-3.414v16.187zm21.556-2.972c-.695 0-1.043-.221-1.043-1.043v-6.481c0-3.825-2.466-5.88-6.765-5.88-4.078 0-6.797 1.96-7.145 5.121h3.351c.253-1.422 1.613-2.37 3.636-2.37 2.244 0 3.54 1.106 3.54 2.908v.98H111c-4.52 0-6.923 1.865-6.923 5.184 0 3.004 2.466 4.742 6.007 4.742 2.623 0 4.267-1.138 5.342-2.782 0 1.613.759 2.593 2.972 2.593h1.802v-2.972h-.696zm-4.426-3.667c-.031 2.497-1.675 4.173-4.52 4.173-1.865 0-3.004-.949-3.004-2.308 0-1.644 1.17-2.434 3.288-2.434h4.236v.569zm6.982 6.639h3.414v-22.13h-3.414v22.13zm6.445-1.96c0 1.264.916 2.15 2.181 2.15 1.264 0 2.213-.886 2.213-2.15 0-1.265-.949-2.15-2.213-2.15-1.265 0-2.181.885-2.181 2.15z" fill="url(#paint0_linear_101_61)"/><defs><linearGradient id="paint0_linear_101_61" x1="140" y1="52.549" x2="1" y2="52.549" gradientUnits="userSpaceOnUse"><stop stop-color="#FF4343"/><stop offset=".5" stop-color="#9C0B93"/><stop offset="1" stop-color="#4C1BB7"/></linearGradient></defs></svg>