<svg width="160" height="34" viewBox="0 0 160 34" fill="none" xmlns="http://www.w3.org/2000/svg"><rect x="-1" width="162" height="34" rx="17" fill="#fff"/><path d="M25.41 20.005c0 1.35.525 1.995 1.995 1.995h1.335v-1.125h-1.215c-.66 0-.885-.24-.885-.885v-4.515h1.98V14.35h-1.98v-2.145h-1.23v2.145h-1.38v1.125h1.38v4.53zm7.936-5.655c-1.365 0-1.95.57-2.31 1.155l-.165-1.155h-1.065V22h1.23v-3.9c0-1.215.435-2.55 2.04-2.55h.615v-1.2h-.345zm7.912 6.525c-.345 0-.495-.105-.495-.51V17.02c0-1.785-1.125-2.76-3.075-2.76-1.845 0-3.06.885-3.24 2.385h1.23c.15-.78.87-1.29 1.95-1.29 1.2 0 1.905.6 1.905 1.59v.525h-2.25c-2.01 0-3.075.855-3.075 2.385 0 1.395 1.14 2.235 2.82 2.235 1.32 0 2.085-.585 2.565-1.275.015.75.36 1.185 1.38 1.185h.675v-1.125h-.39zm-1.725-1.995c0 1.275-.885 2.16-2.415 2.16-1.02 0-1.665-.51-1.665-1.26 0-.87.615-1.275 1.71-1.275h2.37v.375zm9.003-3.36c-.465-.735-1.335-1.26-2.625-1.26-2.115 0-3.675 1.575-3.675 3.915 0 2.49 1.56 3.915 3.675 3.915 1.29 0 2.115-.615 2.625-1.32l.165 1.23h1.065V11.5h-1.23v4.02zm-2.505 5.475c-1.515 0-2.535-1.155-2.535-2.82 0-1.665 1.02-2.82 2.535-2.82 1.5 0 2.52 1.17 2.52 2.85 0 1.635-1.02 2.79-2.52 2.79zm6.04-7.935c.45 0 .796-.33.796-.795a.773.773 0 00-.795-.795c-.45 0-.795.33-.795.795s.345.795.795.795zm-.63 8.94h1.23v-7.65h-1.23V22zm6.666-7.74c-1.29 0-2.07.54-2.52 1.125l-.165-1.035h-1.065V22h1.23v-3.825c0-1.725.87-2.79 2.31-2.79 1.335 0 2.07.84 2.07 2.43V22h1.23v-4.26c0-2.535-1.365-3.48-3.09-3.48zm10.688 1.41c-.48-.855-1.335-1.41-2.625-1.41-2.115 0-3.675 1.575-3.675 3.915 0 2.49 1.56 3.915 3.675 3.915 1.29 0 2.115-.54 2.625-1.41v.9c0 1.665-.87 2.415-2.475 2.415-1.275 0-2.13-.54-2.34-1.5h-1.26c.195 1.68 1.56 2.595 3.51 2.595 2.625 0 3.795-1.26 3.795-3.465V14.35H68.96l-.165 1.32zm-2.505 5.325c-1.515 0-2.535-1.155-2.535-2.82 0-1.665 1.02-2.82 2.535-2.82 1.5 0 2.52 1.17 2.52 2.85 0 1.635-1.02 2.79-2.52 2.79zM79.48 14.26c-1.29 0-2.115.615-2.625 1.32l-.165-1.23h-1.065V25h1.23v-4.17c.465.735 1.335 1.26 2.625 1.26 2.115 0 3.675-1.575 3.675-3.915 0-2.49-1.56-3.915-3.675-3.915zm-.12 6.735c-1.5 0-2.52-1.17-2.52-2.85 0-1.635 1.02-2.79 2.52-2.79 1.515 0 2.535 1.155 2.535 2.82 0 1.665-1.02 2.82-2.535 2.82zm8.726 1.095c2.235 0 3.795-1.59 3.795-3.915s-1.56-3.915-3.795-3.915-3.795 1.59-3.795 3.915 1.56 3.915 3.795 3.915zm0-1.095c-1.515 0-2.535-1.185-2.535-2.82 0-1.635 1.02-2.82 2.535-2.82 1.515 0 2.535 1.185 2.535 2.82 0 1.635-1.02 2.82-2.535 2.82zm5.687-.99c0 1.35.525 1.995 1.995 1.995h1.335v-1.125H95.89c-.66 0-.885-.24-.885-.885v-4.515h1.98V14.35h-1.98v-2.145h-1.23v2.145h-1.38v1.125h1.38v4.53zm7.731 2.085c1.77 0 3.03-1.125 3.33-2.655h-1.245c-.255.99-1.095 1.56-2.175 1.56-1.455 0-2.37-1.02-2.415-2.475v-.105h5.94c.015-.18.03-.36.03-.525-.06-2.265-1.47-3.63-3.63-3.63s-3.63 1.59-3.63 3.915c0 2.34 1.5 3.915 3.795 3.915zm-2.43-4.695c.12-1.245 1.155-2.055 2.28-2.055 1.275 0 2.175.735 2.295 2.055h-4.575zm11.048-3.135c-1.29 0-2.07.54-2.52 1.125l-.165-1.035h-1.065V22h1.23v-3.825c0-1.725.87-2.79 2.31-2.79 1.335 0 2.07.84 2.07 2.43V22h1.23v-4.26c0-2.535-1.365-3.48-3.09-3.48zm5.228 5.745c0 1.35.525 1.995 1.995 1.995h1.335v-1.125h-1.215c-.66 0-.885-.24-.885-.885v-4.515h1.98V14.35h-1.98v-2.145h-1.23v2.145h-1.38v1.125h1.38v4.53zm5.026-6.945c.45 0 .795-.33.795-.795a.773.773 0 00-.795-.795c-.45 0-.795.33-.795.795s.345.795.795.795zm-.63 8.94h1.23v-7.65h-1.23V22zm9.68-1.125c-.345 0-.495-.105-.495-.51V17.02c0-1.785-1.125-2.76-3.075-2.76-1.845 0-3.06.885-3.24 2.385h1.23c.15-.78.87-1.29 1.95-1.29 1.2 0 1.905.6 1.905 1.59v.525h-2.25c-2.01 0-3.075.855-3.075 2.385 0 1.395 1.14 2.235 2.82 2.235 1.32 0 2.085-.585 2.565-1.275.015.75.36 1.185 1.38 1.185h.675v-1.125h-.39zm-1.725-1.995c0 1.275-.885 2.16-2.415 2.16-1.02 0-1.665-.51-1.665-1.26 0-.87.615-1.275 1.71-1.275h2.37v.375zm3.061 3.12h1.23V11.5h-1.23V22zm2.765-.75c0 .51.36.84.855.84s.855-.33.855-.84-.36-.84-.855-.84-.855.33-.855.84z" fill="#000"/></svg>