<svg width="182" height="40" viewBox="0 0 182 40" fill="none" xmlns="http://www.w3.org/2000/svg"><rect x=".5" width="181" height="40" rx="20" fill="#fff"/><path d="M30.84 15.46h3.859V26h1.479V15.46h3.859V14.1H30.84v1.36zm16.895 9.265c-.39 0-.56-.119-.56-.578v-3.791c0-2.023-1.276-3.128-3.486-3.128-2.09 0-3.468 1.003-3.672 2.703h1.394c.17-.884.986-1.462 2.21-1.462 1.36 0 2.16.68 2.16 1.802v.595h-2.55c-2.279 0-3.486.969-3.486 2.703 0 1.581 1.292 2.533 3.196 2.533 1.496 0 2.363-.663 2.907-1.445.017.85.408 1.343 1.564 1.343h.765v-1.275h-.442zm-1.955-2.261c0 1.445-1.003 2.448-2.737 2.448-1.156 0-1.887-.578-1.887-1.428 0-.986.697-1.445 1.938-1.445h2.686v.425zM49.25 26h1.394v-2.278l1.75-1.802L55.268 26h1.683l-3.621-5.083 3.383-3.587h-1.717l-4.352 4.607V14.1h-1.394V26zm12.18.102c2.005 0 3.433-1.275 3.773-3.009h-1.41c-.29 1.122-1.242 1.768-2.466 1.768-1.649 0-2.686-1.156-2.737-2.805v-.119h6.732c.017-.204.034-.408.034-.595-.068-2.567-1.666-4.114-4.114-4.114s-4.114 1.802-4.114 4.437c0 2.652 1.7 4.437 4.301 4.437zm-2.755-5.321c.136-1.411 1.31-2.329 2.584-2.329 1.445 0 2.465.833 2.601 2.329h-5.185zm20.388 3.944c-.39 0-.56-.119-.56-.578v-3.791c0-2.023-1.276-3.128-3.486-3.128-2.09 0-3.468 1.003-3.672 2.703h1.394c.17-.884.986-1.462 2.21-1.462 1.36 0 2.16.68 2.16 1.802v.595h-2.55c-2.279 0-3.486.969-3.486 2.703 0 1.581 1.292 2.533 3.196 2.533 1.496 0 2.363-.663 2.907-1.445.017.85.408 1.343 1.564 1.343h.765v-1.275h-.442zm-1.955-2.261c0 1.445-1.003 2.448-2.737 2.448-1.156 0-1.887-.578-1.887-1.428 0-.986.697-1.445 1.938-1.445h2.686v.425zm10.203-3.808c-.527-.833-1.513-1.428-2.975-1.428-2.397 0-4.165 1.785-4.165 4.437 0 2.822 1.768 4.437 4.165 4.437 1.462 0 2.397-.697 2.975-1.496L87.497 26h1.207V14.1H87.31v4.556zm-2.839 6.205c-1.717 0-2.873-1.309-2.873-3.196 0-1.887 1.156-3.196 2.873-3.196 1.7 0 2.856 1.326 2.856 3.23 0 1.853-1.156 3.162-2.856 3.162zM92.983 26h1.683l3.247-8.67h-1.462l-2.6 7.089-2.619-7.089h-1.496L92.983 26zm13.223-1.275c-.391 0-.561-.119-.561-.578v-3.791c0-2.023-1.275-3.128-3.485-3.128-2.091 0-3.468 1.003-3.672 2.703h1.394c.17-.884.986-1.462 2.21-1.462 1.36 0 2.159.68 2.159 1.802v.595h-2.55c-2.278 0-3.485.969-3.485 2.703 0 1.581 1.292 2.533 3.196 2.533 1.496 0 2.363-.663 2.907-1.445.017.85.408 1.343 1.564 1.343h.765v-1.275h-.442zm-1.955-2.261c0 1.445-1.003 2.448-2.737 2.448-1.156 0-1.887-.578-1.887-1.428 0-.986.697-1.445 1.938-1.445h2.686v.425zm7.719-5.236c-1.462 0-2.346.612-2.856 1.275l-.187-1.173h-1.207V26h1.394v-4.335c0-1.955.986-3.162 2.618-3.162 1.513 0 2.346.952 2.346 2.754V26h1.394v-4.828c0-2.873-1.547-3.944-3.502-3.944zm5.925 6.511c0 1.53.595 2.261 2.261 2.261h1.513v-1.275h-1.377c-.748 0-1.003-.272-1.003-1.003v-5.117h2.244V17.33h-2.244v-2.431h-1.394v2.431h-1.564v1.275h1.564v5.134zm12.516.986c-.391 0-.561-.119-.561-.578v-3.791c0-2.023-1.275-3.128-3.485-3.128-2.091 0-3.468 1.003-3.672 2.703h1.394c.17-.884.986-1.462 2.21-1.462 1.36 0 2.159.68 2.159 1.802v.595h-2.55c-2.278 0-3.485.969-3.485 2.703 0 1.581 1.292 2.533 3.196 2.533 1.496 0 2.363-.663 2.907-1.445.017.85.408 1.343 1.564 1.343h.765v-1.275h-.442zm-1.955-2.261c0 1.445-1.003 2.448-2.737 2.448-1.156 0-1.887-.578-1.887-1.428 0-.986.697-1.445 1.938-1.445h2.686v.425zm10.303-3.638c-.544-.969-1.513-1.598-2.975-1.598-2.397 0-4.165 1.785-4.165 4.437 0 2.822 1.768 4.437 4.165 4.437 1.462 0 2.397-.612 2.975-1.598v1.02c0 1.887-.986 2.737-2.805 2.737-1.445 0-2.414-.612-2.652-1.7h-1.428c.221 1.904 1.768 2.941 3.978 2.941 2.975 0 4.301-1.428 4.301-3.927V17.33h-1.207l-.187 1.496zm-2.839 6.035c-1.717 0-2.873-1.309-2.873-3.196 0-1.887 1.156-3.196 2.873-3.196 1.7 0 2.856 1.326 2.856 3.23 0 1.853-1.156 3.162-2.856 3.162zm10.127 1.241c2.006 0 3.434-1.275 3.774-3.009h-1.411c-.289 1.122-1.241 1.768-2.465 1.768-1.649 0-2.686-1.156-2.737-2.805v-.119h6.732c.017-.204.034-.408.034-.595-.068-2.567-1.666-4.114-4.114-4.114s-4.114 1.802-4.114 4.437c0 2.652 1.7 4.437 4.301 4.437zm-2.754-5.321c.136-1.411 1.309-2.329 2.584-2.329 1.445 0 2.465.833 2.601 2.329h-5.185z" fill="#000"/></svg>