<svg width="160" height="13" viewBox="0 0 160 13" fill="none" xmlns="http://www.w3.org/2000/svg"><path d="M.468 7.01c.052 1.82 1.417 3.068 3.679 3.068 2.002 0 3.367-1.131 3.367-2.769.013-1.794-1.456-2.275-2.964-2.548-1.43-.247-2.366-.442-2.366-1.378 0-.858.715-1.3 1.742-1.3 1.105 0 1.833.624 1.95 1.547h1.495C7.306 1.953 6.006.822 3.926.822 1.989.822.689 1.901.689 3.487c0 1.807 1.43 2.288 2.938 2.548 1.443.26 2.392.468 2.392 1.43 0 .871-.78 1.352-1.859 1.352-1.274 0-2.106-.715-2.184-1.781L.468 7.01zm14.303 1.768c-.286 0-.429-.091-.429-.429V5.684c0-1.573-1.014-2.418-2.782-2.418-1.677 0-2.795.806-2.938 2.106H10c.104-.585.663-.975 1.495-.975.923 0 1.456.455 1.456 1.196v.403h-1.677c-1.859 0-2.847.767-2.847 2.132 0 1.235 1.014 1.95 2.47 1.95 1.079 0 1.755-.468 2.197-1.144 0 .663.312 1.066 1.222 1.066h.741V8.778h-.286zm-1.82-1.508c-.013 1.027-.689 1.716-1.859 1.716-.767 0-1.235-.39-1.235-.949 0-.676.481-1.001 1.352-1.001h1.742v.234zm6.238-3.926c-1.092 0-1.625.442-1.963 1.001l-.156-1.001h-1.248V10h1.404V6.659c0-1.027.403-2.002 1.65-2.002h.625V3.344h-.312zm7.059 5.434c-.286 0-.43-.091-.43-.429V5.684c0-1.573-1.013-2.418-2.781-2.418-1.677 0-2.795.806-2.938 2.106h1.378c.104-.585.663-.975 1.495-.975.923 0 1.456.455 1.456 1.196v.403H22.75c-1.86 0-2.847.767-2.847 2.132 0 1.235 1.014 1.95 2.47 1.95 1.079 0 1.755-.468 2.197-1.144 0 .663.312 1.066 1.222 1.066h.74V8.778h-.285zm-1.82-1.508c-.013 1.027-.69 1.716-1.86 1.716-.766 0-1.234-.39-1.234-.949 0-.676.48-1.001 1.352-1.001h1.742v.234zm5.875 2.808c1.703 0 2.834-.949 3.094-2.457h-1.482c-.17.767-.741 1.261-1.6 1.261-1.13 0-1.871-.897-1.871-2.197 0-1.313.74-2.223 1.872-2.223.87 0 1.43.481 1.612 1.261h1.469c-.273-1.508-1.34-2.457-3.055-2.457C28.327 3.266 27 4.631 27 6.685c0 2.08 1.287 3.393 3.302 3.393zm7.327 0c1.651 0 2.77-1.001 3.003-2.314H39.23c-.195.741-.819 1.17-1.677 1.17-1.105 0-1.82-.741-1.859-1.872v-.091h5.018c.026-.182.04-.364.04-.533-.04-1.95-1.327-3.172-3.25-3.172-1.964 0-3.277 1.365-3.277 3.419 0 2.041 1.313 3.393 3.406 3.393zm-1.885-4.134c.104-.949.871-1.547 1.768-1.547.975 0 1.664.559 1.781 1.547h-3.549zm9.65-2.678c-1.079 0-1.716.429-2.132.949l-.156-.871h-1.222V10h1.404V6.646c0-1.352.663-2.171 1.781-2.171 1.053 0 1.586.676 1.586 1.937V10h1.417V6.295c0-2.223-1.209-3.029-2.678-3.029zm3.67 4.537c.038 1.443 1.26 2.275 3.041 2.275 1.612 0 2.821-.806 2.821-2.08 0-1.482-1.235-1.794-2.756-1.976-.962-.104-1.599-.182-1.599-.806 0-.533.546-.871 1.378-.871.832 0 1.404.429 1.482 1.04h1.378c-.09-1.365-1.248-2.119-2.886-2.119-1.599-.013-2.73.806-2.73 2.067 0 1.378 1.196 1.703 2.717 1.885 1.027.13 1.638.182 1.638.897 0 .533-.572.871-1.443.871-1.014 0-1.612-.494-1.664-1.183h-1.378zm14.371 2.275c2.12 0 3.666-1.248 3.952-3.172h-1.547c-.286 1.157-1.157 1.859-2.418 1.859-1.716 0-2.756-1.378-2.756-3.315 0-1.95 1.066-3.315 2.795-3.315 1.235 0 2.093.715 2.392 1.859h1.547C67.102 2.07 65.607.822 63.527.822c-2.69 0-4.394 1.859-4.394 4.628 0 2.795 1.651 4.628 4.303 4.628zm8.543-6.812c-1.04 0-1.677.468-2.093 1.04V.9h-1.404V10h1.404V6.633c0-1.339.676-2.158 1.781-2.158 1.04 0 1.599.676 1.599 1.937V10h1.404V6.295c0-2.223-1.209-3.029-2.691-3.029zm10.052 5.512c-.286 0-.43-.091-.43-.429V5.684c0-1.573-1.013-2.418-2.781-2.418-1.677 0-2.795.806-2.938 2.106h1.378c.104-.585.663-.975 1.495-.975.923 0 1.456.455 1.456 1.196v.403h-1.677c-1.86 0-2.847.767-2.847 2.132 0 1.235 1.014 1.95 2.47 1.95 1.079 0 1.755-.468 2.197-1.144 0 .663.312 1.066 1.222 1.066h.74V8.778h-.285zM80.21 7.27c-.013 1.027-.69 1.716-1.86 1.716-.766 0-1.234-.39-1.234-.949 0-.676.48-1.001 1.352-1.001h1.742v.234zm10.528-4.004c-1.092 0-1.846.481-2.275 1.209-.403-.858-1.183-1.209-2.054-1.209-1.001.013-1.573.455-1.95.949l-.156-.871h-1.222V10h1.404V6.438c0-1.183.598-1.963 1.56-1.963.923 0 1.404.611 1.404 1.781V10h1.417V6.399c0-1.196.61-1.924 1.573-1.924.91 0 1.39.611 1.39 1.781V10h1.405V6.165c0-2.106-1.118-2.899-2.496-2.899zm7.33 0c-1.04 0-1.729.481-2.17 1.066l-.17-.988h-1.222V12.6h1.404V9.064c.416.598 1.131 1.014 2.158 1.014 1.82 0 3.146-1.352 3.146-3.406 0-2.132-1.326-3.406-3.146-3.406zm-.234 5.629c-1.17 0-1.937-.923-1.937-2.249 0-1.287.767-2.184 1.937-2.184s1.95.897 1.95 2.21c0 1.3-.78 2.223-1.95 2.223zm5.22-6.487c.481 0 .858-.351.858-.845s-.377-.845-.858-.845-.858.351-.858.845.377.845.858.845zM102.34 10h1.404V3.344h-1.404V10zm5.927.078c2.028 0 3.393-1.365 3.393-3.406 0-2.028-1.365-3.406-3.393-3.406-2.028 0-3.393 1.378-3.393 3.406 0 2.041 1.365 3.406 3.393 3.406zm0-1.196c-1.183 0-1.95-.923-1.95-2.21s.767-2.21 1.95-2.21c1.183 0 1.963.923 1.963 2.21s-.78 2.21-1.963 2.21zm8.032-5.616c-1.079 0-1.716.429-2.132.949l-.156-.871h-1.222V10h1.404V6.646c0-1.352.663-2.171 1.781-2.171 1.053 0 1.586.676 1.586 1.937V10h1.417V6.295c0-2.223-1.209-3.029-2.678-3.029zm3.668 4.537c.039 1.443 1.261 2.275 3.042 2.275 1.612 0 2.821-.806 2.821-2.08 0-1.482-1.235-1.794-2.756-1.976-.962-.104-1.599-.182-1.599-.806 0-.533.546-.871 1.378-.871.832 0 1.404.429 1.482 1.04h1.378c-.091-1.365-1.248-2.119-2.886-2.119-1.599-.013-2.73.806-2.73 2.067 0 1.378 1.196 1.703 2.717 1.885 1.027.13 1.638.182 1.638.897 0 .533-.572.871-1.443.871-1.014 0-1.612-.494-1.664-1.183h-1.378zM129.842 10h6.448V8.739h-4.407l2.418-2.015c1.105-.923 1.924-1.768 1.924-3.12 0-1.664-1.144-2.782-3.185-2.782-1.937 0-3.185 1.261-3.185 2.99v.234h1.443V3.89c0-1.131.702-1.833 1.742-1.833s1.729.572 1.729 1.612c0 .871-.611 1.508-1.43 2.197l-3.497 2.977V10zm8.981-8.177c0 .481-.195.819-.663.819h-1.417v1.235h1.482c.247 0 .442-.039.572-.117V10h1.443V.9h-1.417v.923zm3.651 9.867L146.166.51h-1.365l-3.679 11.18h1.352zm3.91-1.69h6.448V8.739h-4.407l2.418-2.015c1.105-.923 1.924-1.768 1.924-3.12 0-1.664-1.144-2.782-3.185-2.782-1.937 0-3.185 1.261-3.185 2.99v.234h1.443V3.89c0-1.131.702-1.833 1.742-1.833s1.729.572 1.729 1.612c0 .871-.611 1.508-1.43 2.197l-3.497 2.977V10zm7.109 0h6.448V8.739h-4.407l2.418-2.015c1.105-.923 1.924-1.768 1.924-3.12 0-1.664-1.144-2.782-3.185-2.782-1.937 0-3.185 1.261-3.185 2.99v.234h1.443V3.89c0-1.131.702-1.833 1.742-1.833s1.729.572 1.729 1.612c0 .871-.611 1.508-1.43 2.197l-3.497 2.977V10z" fill="#000"/></svg>