<svg width="527" height="30" viewBox="0 0 527 30" fill="none" xmlns="http://www.w3.org/2000/svg"><path d="M.64 3.864h6.912V23h3.68V3.864h6.912V.6H.64v3.264zm24.738 19.328c4.064 0 6.816-2.464 7.392-5.696h-3.456c-.48 1.824-2.016 2.88-4.128 2.88-2.72 0-4.48-1.824-4.576-4.608v-.224h12.352c.064-.448.096-.896.096-1.312-.096-4.8-3.264-7.808-8-7.808-4.832 0-8.064 3.36-8.064 8.416 0 5.024 3.232 8.352 8.384 8.352zm-4.64-10.176c.256-2.336 2.144-3.808 4.352-3.808 2.4 0 4.096 1.376 4.384 3.808h-8.736zm14.316 4.576c.096 3.552 3.104 5.6 7.488 5.6 3.968 0 6.944-1.984 6.944-5.12 0-3.648-3.04-4.416-6.783-4.864-2.369-.256-3.937-.448-3.937-1.984 0-1.312 1.345-2.144 3.392-2.144 2.048 0 3.456 1.056 3.648 2.56H49.2c-.224-3.36-3.072-5.216-7.105-5.216-3.936-.032-6.72 1.984-6.72 5.088 0 3.392 2.944 4.192 6.688 4.64 2.529.32 4.032.448 4.032 2.208 0 1.312-1.407 2.144-3.552 2.144-2.495 0-3.968-1.216-4.096-2.912h-3.392zM52.164 23h3.457V.6h-3.456V23zm21.82-3.008c-.703 0-1.055-.224-1.055-1.056v-6.56c0-3.872-2.496-5.952-6.849-5.952-4.127 0-6.88 1.984-7.231 5.184h3.392c.255-1.44 1.632-2.4 3.68-2.4 2.271 0 3.583 1.12 3.583 2.944v.992h-4.128c-4.576 0-7.008 1.888-7.008 5.248 0 3.04 2.496 4.8 6.08 4.8 2.657 0 4.32-1.152 5.409-2.816 0 1.632.767 2.624 3.008 2.624h1.824v-3.008h-.704zm-4.48-3.712c-.032 2.528-1.696 4.224-4.576 4.224-1.887 0-3.04-.96-3.04-2.336 0-1.664 1.184-2.464 3.328-2.464h4.288v.576zm22.998 6.912c4.993 0 8.353-3.36 8.353-8.384 0-4.992-3.36-8.384-8.353-8.384-4.992 0-8.352 3.392-8.352 8.384 0 5.024 3.36 8.384 8.352 8.384zm0-2.944c-2.911 0-4.8-2.272-4.8-5.44 0-3.168 1.889-5.44 4.8-5.44 2.913 0 4.833 2.272 4.833 5.44 0 3.168-1.92 5.44-4.832 5.44zm19.772-13.824c-2.656 0-4.224 1.056-5.248 2.336l-.385-2.144h-3.007V23h3.456v-8.256c0-3.328 1.632-5.344 4.384-5.344 2.592 0 3.904 1.664 3.904 4.768V23h3.488v-9.12c0-5.472-2.976-7.456-6.592-7.456zm19.106 12.128c0 2.976 1.344 4.448 4.48 4.448h3.2v-3.04h-2.432c-1.312 0-1.76-.48-1.76-1.76V9.656h4v-3.04h-4V2.04h-3.488v4.576h-2.848v3.04h2.848v8.896zm18.167-11.936c-2.688 0-4 1.088-4.832 2.464l-.384-2.464h-3.072V23h3.456v-8.224c0-2.528.992-4.928 4.064-4.928h1.536V6.616h-.768zm17.375 13.376c-.704 0-1.056-.224-1.056-1.056v-6.56c0-3.872-2.496-5.952-6.848-5.952-4.128 0-6.88 1.984-7.232 5.184h3.392c.256-1.44 1.632-2.4 3.68-2.4 2.272 0 3.584 1.12 3.584 2.944v.992h-4.128c-4.576 0-7.008 1.888-7.008 5.248 0 3.04 2.496 4.8 6.08 4.8 2.656 0 4.32-1.152 5.408-2.816 0 1.632.768 2.624 3.008 2.624h1.824v-3.008h-.704zm-4.48-3.712c-.032 2.528-1.696 4.224-4.576 4.224-1.888 0-3.04-.96-3.04-2.336 0-1.664 1.184-2.464 3.328-2.464h4.288v.576zm14.462 6.912c4.192 0 6.976-2.336 7.616-6.048h-3.648c-.416 1.888-1.824 3.104-3.936 3.104-2.784 0-4.608-2.208-4.608-5.408 0-3.232 1.824-5.472 4.608-5.472 2.144 0 3.52 1.184 3.968 3.104h3.616c-.673-3.712-3.296-6.048-7.52-6.048-4.96 0-8.224 3.36-8.224 8.416 0 5.12 3.168 8.352 8.128 8.352zM187.165 23h3.456v-4.16l2.944-3.072L198.397 23h4.096l-6.56-9.76 6.176-6.624h-4.064l-7.424 7.936V.6h-3.456V23zm26.371-4.448c0 2.976 1.344 4.448 4.48 4.448h3.2v-3.04h-2.432c-1.312 0-1.76-.48-1.76-1.76V9.656h4v-3.04h-4V2.04h-3.488v4.576h-2.848v3.04h2.848v8.896zm17.279 4.64c4.992 0 8.352-3.36 8.352-8.384 0-4.992-3.36-8.384-8.352-8.384-4.992 0-8.352 3.392-8.352 8.384 0 5.024 3.36 8.384 8.352 8.384zm0-2.944c-2.912 0-4.8-2.272-4.8-5.44 0-3.168 1.888-5.44 4.8-5.44s4.832 2.272 4.832 5.44c0 3.168-1.92 5.44-4.832 5.44zm28.087-13.824c-2.528 0-4.224 1.152-5.312 2.624V.6h-3.456V23h3.007l.417-2.368c1.024 1.472 2.784 2.56 5.344 2.56 4.48 0 7.744-3.36 7.744-8.384 0-5.28-3.264-8.384-7.744-8.384zm-.576 13.856c-2.88 0-4.768-2.272-4.768-5.504 0-3.168 1.888-5.408 4.768-5.408s4.8 2.24 4.8 5.44c0 3.232-1.92 5.472-4.8 5.472zm18.865 2.912c4.064 0 6.816-2.464 7.392-5.696h-3.456c-.48 1.824-2.016 2.88-4.128 2.88-2.72 0-4.48-1.824-4.576-4.608v-.224h12.352c.064-.448.096-.896.096-1.312-.096-4.8-3.264-7.808-8-7.808-4.832 0-8.064 3.36-8.064 8.416 0 5.024 3.232 8.352 8.384 8.352zm-4.64-10.176c.256-2.336 2.144-3.808 4.352-3.808 2.4 0 4.096 1.376 4.384 3.808h-8.736zm30.09 6.976c-.704 0-1.056-.224-1.056-1.056v-6.56c0-3.872-2.496-5.952-6.848-5.952-4.128 0-6.88 1.984-7.232 5.184h3.392c.256-1.44 1.632-2.4 3.68-2.4 2.272 0 3.584 1.12 3.584 2.944v.992h-4.128c-4.576 0-7.008 1.888-7.008 5.248 0 3.04 2.496 4.8 6.08 4.8 2.656 0 4.32-1.152 5.408-2.816 0 1.632.768 2.624 3.008 2.624h1.824v-3.008h-.704zm-4.48-3.712c-.032 2.528-1.696 4.224-4.576 4.224-1.888 0-3.04-.96-3.04-2.336 0-1.664 1.184-2.464 3.328-2.464h4.288v.576zm8.25 2.272c0 2.976 1.344 4.448 4.48 4.448h3.2v-3.04h-2.432c-1.312 0-1.76-.48-1.76-1.76V9.656h4v-3.04h-4V2.04h-3.488v4.576h-2.848v3.04h2.848v8.896zm25.842 4.64c4.064 0 6.816-2.464 7.392-5.696h-3.456c-.48 1.824-2.016 2.88-4.128 2.88-2.72 0-4.48-1.824-4.576-4.608v-.224h12.352c.064-.448.096-.896.096-1.312-.096-4.8-3.264-7.808-8-7.808-4.832 0-8.064 3.36-8.064 8.416 0 5.024 3.232 8.352 8.384 8.352zm-4.64-10.176c.256-2.336 2.144-3.808 4.352-3.808 2.4 0 4.096 1.376 4.384 3.808h-8.736zM340.281 23h3.808l4.32-5.952L352.697 23h4.032l-6.176-8.384 5.824-8h-3.808l-4 5.536-3.904-5.536h-4.032l5.792 8L340.281 23zm26.902-16.576c-2.56 0-4.256 1.184-5.344 2.624l-.416-2.432h-3.008V29.4h3.456v-8.704c1.024 1.472 2.784 2.496 5.312 2.496 4.48 0 7.744-3.328 7.744-8.384 0-5.248-3.264-8.384-7.744-8.384zm-.576 13.856c-2.88 0-4.768-2.272-4.768-5.536 0-3.168 1.888-5.376 4.768-5.376s4.8 2.208 4.8 5.44c0 3.2-1.92 5.472-4.8 5.472zm18.865 2.912c4.064 0 6.816-2.464 7.392-5.696h-3.456c-.48 1.824-2.016 2.88-4.128 2.88-2.72 0-4.48-1.824-4.576-4.608v-.224h12.352c.064-.448.096-.896.096-1.312-.096-4.8-3.264-7.808-8-7.808-4.832 0-8.064 3.36-8.064 8.416 0 5.024 3.232 8.352 8.384 8.352zm-4.64-10.176c.256-2.336 2.144-3.808 4.352-3.808 2.4 0 4.096 1.376 4.384 3.808h-8.736zm22.634 10.176c4.192 0 6.976-2.336 7.616-6.048h-3.648c-.416 1.888-1.824 3.104-3.936 3.104-2.784 0-4.608-2.208-4.608-5.408 0-3.232 1.824-5.472 4.608-5.472 2.144 0 3.52 1.184 3.968 3.104h3.616c-.672-3.712-3.296-6.048-7.52-6.048-4.96 0-8.224 3.36-8.224 8.416 0 5.12 3.168 8.352 8.128 8.352zm11.445-4.64c0 2.976 1.344 4.448 4.48 4.448h3.2v-3.04h-2.432c-1.312 0-1.76-.48-1.76-1.76V9.656h4v-3.04h-4V2.04h-3.488v4.576h-2.848v3.04h2.848v8.896zm24.667 1.44c-.704 0-1.056-.224-1.056-1.056v-6.56c0-3.872-2.496-5.952-6.848-5.952-4.128 0-6.88 1.984-7.232 5.184h3.392c.256-1.44 1.632-2.4 3.68-2.4 2.272 0 3.584 1.12 3.584 2.944v.992h-4.128c-4.576 0-7.008 1.888-7.008 5.248 0 3.04 2.496 4.8 6.08 4.8 2.656 0 4.32-1.152 5.408-2.816 0 1.632.768 2.624 3.008 2.624h1.824v-3.008h-.704zm-4.48-3.712c-.032 2.528-1.696 4.224-4.576 4.224-1.888 0-3.04-.96-3.04-2.336 0-1.664 1.184-2.464 3.328-2.464h4.288v.576zm8.251 2.272c0 2.976 1.344 4.448 4.48 4.448h3.2v-3.04h-2.432c-1.312 0-1.76-.48-1.76-1.76V9.656h4v-3.04h-4V2.04h-3.488v4.576h-2.848v3.04h2.848v8.896zm11.638-14.24c1.184 0 2.112-.864 2.112-2.08 0-1.216-.928-2.08-2.112-2.08-1.184 0-2.112.864-2.112 2.08 0 1.216.928 2.08 2.112 2.08zM453.227 23h3.456V6.616h-3.456V23zm14.588.192c4.992 0 8.352-3.36 8.352-8.384 0-4.992-3.36-8.384-8.352-8.384-4.992 0-8.352 3.392-8.352 8.384 0 5.024 3.36 8.384 8.352 8.384zm0-2.944c-2.912 0-4.8-2.272-4.8-5.44 0-3.168 1.888-5.44 4.8-5.44s4.832 2.272 4.832 5.44c0 3.168-1.92 5.44-4.832 5.44zm19.771-13.824c-2.656 0-4.224 1.056-5.248 2.336l-.384-2.144h-3.008V23h3.456v-8.256c0-3.328 1.632-5.344 4.384-5.344 2.592 0 3.904 1.664 3.904 4.768V23h3.488v-9.12c0-5.472-2.976-7.456-6.592-7.456zm9.031 11.168c.096 3.552 3.104 5.6 7.488 5.6 3.968 0 6.944-1.984 6.944-5.12 0-3.648-3.04-4.416-6.784-4.864-2.368-.256-3.936-.448-3.936-1.984 0-1.312 1.344-2.144 3.392-2.144s3.456 1.056 3.648 2.56h3.392c-.224-3.36-3.072-5.216-7.104-5.216-3.936-.032-6.72 1.984-6.72 5.088 0 3.392 2.944 4.192 6.688 4.64 2.528.32 4.032.448 4.032 2.208 0 1.312-1.408 2.144-3.552 2.144-2.496 0-3.968-1.216-4.096-2.912h-3.392zm19.05-9.664c0-2.656 1.6-4.448 4.064-4.448 2.144 0 3.584 1.28 3.584 3.104 0 1.536-.832 2.56-2.272 3.52-1.92 1.248-3.424 2.304-3.424 4.896v1.024h3.264v-.64c0-1.6 1.088-2.432 2.816-3.616 1.664-1.184 3.2-2.592 3.2-5.536 0-3.36-2.752-5.824-7.2-5.824-4.768 0-7.552 3.36-7.552 7.52h3.52zm1.472 13.12c0 1.28.96 2.144 2.208 2.144 1.248 0 2.176-.864 2.176-2.144 0-1.28-.928-2.144-2.176-2.144-1.248 0-2.208.864-2.208 2.144z" fill="#000"/></svg>