<svg width="140" height="22" viewBox="0 0 140 22" fill="none" xmlns="http://www.w3.org/2000/svg"><path d="M38.43 10.934c0-.21-.005-.42-.013-.625h2.388l.634-1.91h-3.216C37.341 3.172 33.648 0 28.07 0 21.797 0 17.74 4.347 17.74 11.066c0 6.785 3.929 10.967 10.329 10.934 5.215 0 8.917-2.985 10.017-7.871h2.18l.665-1.91h-2.555c.034-.418.052-.846.052-1.285zm-10.234 8.037c-3.232 0-4.498-3.559-4.498-7.97 0-4.413 1.013-7.938 4.276-7.97 2.567 0 3.894 2.224 4.332 5.367h-2.778l-.634 1.91h3.569a25.992 25.992 0 01-.016 1.911H29.02l-.665 1.91h3.908c-.44 2.862-1.622 4.841-4.067 4.841v.001zM0 .495h16.157v5.104H5.607v3.557h9.537v4.841H5.608v7.476H0V.495zm43.245 0v20.978h5.607v-6.356h2.471l4.056 6.356h6.463l-4.816-7.312c2.503-1.12 4.15-3.26 4.15-6.455v-.065c0-2.042-.602-3.689-1.775-4.875C58.04 1.35 55.885.495 52.812.495h-9.567zm5.607 10.078V5.5h3.675c1.9 0 3.041.856 3.041 2.502v.066c0 1.548-1.108 2.501-3.008 2.501l-3.708.004zm15.175 10.9h16.38v-4.941H69.571v-3.325h9.693V8.629h-9.694V5.434h10.71V.494H64.027v20.979zm18.217 0h6.305l3.896-6.323 3.865 6.323h6.431l-6.938-10.737L102.425.495h-6.273l-3.61 5.895L88.96.495h-6.43l6.652 10.307-6.938 10.67zm25.978-9.945a4.41 4.41 0 00.313 1.682c.212.533.526 1.016.923 1.419s.868.719 1.385.928c.517.208 1.07.306 1.625.287 1.775 0 2.819-.758 3.58-1.91l-1.901-1.417c-.443.527-.887.857-1.552.857-.951 0-1.616-.824-1.616-1.91v-.033c0-1.021.665-1.845 1.584-1.845.301 0 .597.082.858.238.261.156.479.38.631.651l1.933-1.482a3.944 3.944 0 00-1.484-1.422 3.753 3.753 0 00-1.97-.454 4.059 4.059 0 00-1.651.303 4.187 4.187 0 00-1.405.951 4.383 4.383 0 00-.936 1.447 4.505 4.505 0 00-.316 1.712m8.554 0c0 2.371 1.869 4.347 4.435 4.347 2.598 0 4.467-2.01 4.467-4.38v-.032c0-2.371-1.869-4.347-4.436-4.347-2.597 0-4.466 2.01-4.466 4.413m6.146 0c0 .988-.634 1.845-1.68 1.845a1.691 1.691 0 01-.671-.154 1.742 1.742 0 01-.562-.411 1.83 1.83 0 01-.365-.606 1.877 1.877 0 01-.112-.705v-.031a1.83 1.83 0 01.103-.697c.079-.222.201-.426.358-.598.156-.173.345-.31.555-.405.209-.094.435-.144.663-.145.234.005.464.06.678.16.213.1.405.242.564.42.16.178.283.387.364.616.08.228.116.471.105.714m4.118-4.249v8.358h2.82V11.1c0-.89.475-1.383 1.14-1.383.666 0 1.109.46 1.109 1.383v4.544h2.788V11.1c0-.89.507-1.383 1.173-1.383.667 0 1.109.46 1.109 1.383v4.578H140v-5.5c0-1.943-1.046-3.063-2.756-3.063a3.307 3.307 0 00-1.497.352 3.435 3.435 0 00-1.196.998c-.412-.856-1.236-1.35-2.313-1.35a2.857 2.857 0 00-1.358.352 2.99 2.99 0 00-1.049.965V7.28h-2.79v.006zm-22.746 6.81c-.015.205.018.41.095.6.077.189.196.356.348.487a1.5 1.5 0 001.045.429c.388 0 .762-.153 1.046-.429.141-.141.253-.31.33-.498a1.582 1.582 0 00.009-1.188 1.533 1.533 0 00-.323-.504 1.465 1.465 0 00-1.057-.45c-.196.001-.39.043-.57.124-.18.08-.343.197-.48.343-.28.287-.439.678-.443 1.087z" fill="#fff"/></svg>