<svg width="100" height="18" viewBox="0 0 100 18" fill="none" xmlns="http://www.w3.org/2000/svg"><path d="M3.899 13.319l-.366.913c-.292.767-.475.95-1.242.95H.902v1.736h2.12c1.37 0 1.772-.676 2.357-2.193L9.617 3.91h-2.1l-2.54 7.107L2.364 3.91H.263l3.636 9.41zm10.71.054c2.85 0 4.768-1.918 4.768-4.787 0-2.85-1.918-4.787-4.768-4.787-2.85 0-4.769 1.937-4.769 4.787 0 2.869 1.919 4.787 4.769 4.787zm0-1.68c-1.663 0-2.74-1.298-2.74-3.107 0-1.808 1.077-3.106 2.74-3.106 1.662 0 2.759 1.298 2.759 3.106 0 1.81-1.097 3.106-2.76 3.106zm12.768-3.107c0 1.937-.913 3.07-2.412 3.07-1.443 0-2.174-.932-2.174-2.759V3.909h-1.973v5.207c0 3.198 1.7 4.257 3.69 4.257 1.444 0 2.303-.584 2.887-1.297l.22 1.188h1.735V3.909h-1.973v4.677zm8.65-4.677c-1.535 0-2.284.621-2.759 1.407l-.22-1.407h-1.753v9.355h1.973V8.568c0-1.443.566-2.814 2.32-2.814h.877V3.91h-.438zm7.006 6.815c0 1.7.768 2.54 2.558 2.54h1.827v-1.736H46.03c-.75 0-1.005-.274-1.005-1.005V5.645h2.284V3.909h-2.284V1.296h-1.992V3.91h-1.626v1.736h1.626v5.079zm10.373-6.815c-1.535 0-2.284.621-2.76 1.407l-.218-1.407h-1.755v9.355h1.974V8.568c0-1.443.566-2.814 2.32-2.814h.877V3.91h-.438zm9.92 7.637c-.402 0-.603-.128-.603-.603V7.198c0-2.211-1.425-3.399-3.91-3.399-2.357 0-3.928 1.133-4.129 2.96h1.937c.146-.822.932-1.37 2.101-1.37 1.297 0 2.046.64 2.046 1.68v.567h-2.357c-2.612 0-4 1.078-4 2.997 0 1.735 1.424 2.74 3.47 2.74 1.517 0 2.467-.657 3.088-1.607 0 .931.439 1.498 1.718 1.498h1.041v-1.718h-.402zm-2.558-2.12c-.018 1.444-.968 2.413-2.612 2.413-1.078 0-1.736-.549-1.736-1.334 0-.95.676-1.407 1.9-1.407h2.448v.329zm11.071-4.22c-.603-.822-1.608-1.407-3.033-1.407-2.54 0-4.421 1.9-4.421 4.787 0 2.997 1.881 4.787 4.421 4.787 1.48 0 2.448-.694 3.051-1.516l.238 1.407h1.717V.474H71.84v4.732zm-2.704 6.505c-1.644 0-2.722-1.28-2.722-3.125 0-1.827 1.078-3.106 2.722-3.106s2.722 1.28 2.722 3.143c0 1.809-1.078 3.088-2.722 3.088zm7.61-9.117c.676 0 1.206-.494 1.206-1.188S77.421.218 76.745.218c-.676 0-1.206.494-1.206 1.188s.53 1.188 1.206 1.188zm-1.005 10.67h1.974V3.909H75.74v9.355zm8.841-9.465c-1.516 0-2.412.603-2.996 1.334l-.22-1.224h-1.717v9.355h1.973V8.55c0-1.9.932-3.051 2.503-3.051 1.48 0 2.23.95 2.23 2.722v5.043h1.99V8.057c0-3.125-1.698-4.258-3.763-4.258zm12.702 1.572c-.603-.932-1.608-1.572-3.07-1.572-2.539 0-4.42 1.882-4.42 4.75 0 2.979 1.881 4.751 4.42 4.751 1.462 0 2.43-.603 3.052-1.535v1.042c0 1.79-.968 2.613-2.686 2.613-1.388 0-2.302-.603-2.54-1.645h-2.01c.184 2.101 1.92 3.252 4.404 3.252 3.362 0 4.787-1.607 4.787-4.147V3.91h-1.718l-.219 1.46zm-2.74 6.267c-1.645 0-2.723-1.261-2.723-3.088 0-1.809 1.078-3.088 2.723-3.088 1.644 0 2.722 1.279 2.722 3.124 0 1.79-1.078 3.052-2.722 3.052z" fill="#000"/></svg>