<svg width="237" height="9" viewBox="0 0 237 9" fill="none" xmlns="http://www.w3.org/2000/svg"><path d="M.18.65h2.16V6.5h.486V.65h2.16V.2H.18v.45zm8.892 5.427c-.27 0-.405-.09-.405-.441V3.512c0-1.044-.64-1.629-1.782-1.629-1.044 0-1.737.504-1.854 1.332h.459c.117-.558.603-.927 1.377-.927.855 0 1.34.45 1.34 1.206v.396H6.66c-1.17 0-1.8.504-1.8 1.359 0 .81.639 1.305 1.61 1.305.928 0 1.477-.423 1.756-.99v.162c-.018.54.207.774.747.774h.27v-.423h-.171zm-.864-1.422c0 .873-.621 1.503-1.701 1.503-.73 0-1.18-.369-1.18-.936 0-.603.45-.936 1.297-.936h1.584v.369zM9.856 6.5h.46V5.267l1.07-1.098L13.132 6.5h.558l-1.989-2.664 1.836-1.899h-.567l-2.655 2.736V.2h-.459v6.3zm6.218.054c.999 0 1.764-.648 1.962-1.566h-.468c-.18.711-.783 1.152-1.53 1.152-1.017 0-1.656-.774-1.674-1.836v-.081h3.726c0-.063.009-.135.009-.189-.045-1.359-.882-2.151-2.106-2.151-1.251 0-2.106.954-2.106 2.304 0 1.431.89 2.367 2.187 2.367zM14.4 3.836c.072-.927.765-1.548 1.602-1.548.89 0 1.53.549 1.602 1.548H14.4zm11.046 2.241c-.27 0-.405-.09-.405-.441V3.512c0-1.044-.64-1.629-1.782-1.629-1.044 0-1.737.504-1.854 1.332h.459c.117-.558.603-.927 1.377-.927.855 0 1.34.45 1.34 1.206v.396h-1.547c-1.17 0-1.8.504-1.8 1.359 0 .81.639 1.305 1.61 1.305.928 0 1.477-.423 1.756-.99v.162c-.018.54.207.774.747.774h.27v-.423h-.171zm-.864-1.422c0 .873-.621 1.503-1.701 1.503-.73 0-1.18-.369-1.18-.936 0-.603.45-.936 1.297-.936h1.584v.369zm5.304-1.692c-.279-.648-.89-1.08-1.746-1.08-1.25 0-2.15.954-2.15 2.331 0 1.44.9 2.34 2.15 2.34.855 0 1.45-.459 1.737-1.098L29.95 6.5h.396V.2h-.459v2.763zm-1.71 3.177c-1.017 0-1.719-.792-1.719-1.926 0-1.125.702-1.926 1.72-1.926 1.016 0 1.718.801 1.718 1.935 0 1.125-.702 1.917-1.719 1.917zm4.572.36h.549l1.782-4.563h-.477l-1.566 4.032-1.575-4.032h-.495L32.748 6.5zm6.795-.423c-.27 0-.405-.09-.405-.441V3.512c0-1.044-.639-1.629-1.782-1.629-1.044 0-1.737.504-1.854 1.332h.46c.116-.558.602-.927 1.376-.927.855 0 1.341.45 1.341 1.206v.396h-1.548c-1.17 0-1.8.504-1.8 1.359 0 .81.64 1.305 1.611 1.305.927 0 1.476-.423 1.755-.99v.162c-.018.54.207.774.747.774h.27v-.423h-.17zm-.864-1.422c0 .873-.62 1.503-1.7 1.503-.73 0-1.18-.369-1.18-.936 0-.603.45-.936 1.296-.936h1.584v.369zm3.755-2.772c-.837 0-1.377.432-1.638 1.026l-.072-.972h-.396V6.5h.46V4.25c0-1.188.602-1.944 1.574-1.944.882 0 1.413.576 1.413 1.656V6.5h.46V3.944c0-1.44-.766-2.061-1.8-2.061zm3.158 3.555c0 .729.297 1.062 1.071 1.062h.666v-.423h-.63c-.477 0-.648-.18-.648-.648V2.36h1.233v-.423h-1.233V.659h-.459v1.278h-.864v.423h.864v3.078zm6.353.639c-.27 0-.405-.09-.405-.441V3.512c0-1.044-.64-1.629-1.782-1.629-1.044 0-1.737.504-1.854 1.332h.459c.117-.558.603-.927 1.377-.927.855 0 1.34.45 1.34 1.206v.396h-1.547c-1.17 0-1.8.504-1.8 1.359 0 .81.639 1.305 1.61 1.305.928 0 1.477-.423 1.756-.99v.162c-.018.54.207.774.747.774h.27v-.423h-.171zm-.864-1.422c0 .873-.621 1.503-1.701 1.503-.73 0-1.18-.369-1.18-.936 0-.603.45-.936 1.297-.936h1.584v.369zm5.365-1.656c-.279-.675-.89-1.116-1.736-1.116-1.252 0-2.151.945-2.151 2.331 0 1.44.9 2.34 2.15 2.34.855 0 1.458-.45 1.746-1.161v.81c0 1.215-.575 1.737-1.673 1.737-.855 0-1.45-.387-1.593-1.08h-.477c.143.972.926 1.494 2.033 1.494 1.477 0 2.17-.702 2.17-2.133V1.937h-.396l-.072 1.062zm-1.7 3.141c-1.018 0-1.72-.792-1.72-1.926s.702-1.926 1.72-1.926c1.017 0 1.718.792 1.718 1.935 0 1.125-.701 1.917-1.718 1.917zm5.264.414c1 0 1.764-.648 1.962-1.566h-.468c-.18.711-.783 1.152-1.53 1.152-1.017 0-1.656-.774-1.674-1.836v-.081h3.726c0-.063.01-.135.01-.189-.046-1.359-.883-2.151-2.107-2.151-1.25 0-2.106.954-2.106 2.304 0 1.431.891 2.367 2.187 2.367zm-1.674-2.718c.072-.927.765-1.548 1.602-1.548.891 0 1.53.549 1.602 1.548h-3.204zm9.048 2.718c1.287 0 2.196-.954 2.196-2.34 0-1.377-.909-2.331-2.196-2.331-1.287 0-2.187.954-2.187 2.331 0 1.386.9 2.34 2.187 2.34zm0-.414c-1.017 0-1.719-.792-1.719-1.926 0-1.125.702-1.926 1.72-1.926 1.016 0 1.718.801 1.718 1.926 0 1.134-.702 1.926-1.719 1.926zM69.9 2.36h.864V6.5h.459V2.36h1.368v-.423h-1.368v-.684c0-.45.17-.63.63-.63h.747V.2h-.765c-.765 0-1.071.333-1.071 1.062v.675H69.9v.423zm6.014 3.078c0 .729.297 1.062 1.071 1.062h.666v-.423h-.63c-.477 0-.648-.18-.648-.648V2.36h1.233v-.423h-1.233V.659h-.459v1.278h-.864v.423h.864v3.078zm2.67-4.464c.18 0 .324-.135.324-.324a.317.317 0 00-.324-.324.317.317 0 00-.324.324c0 .189.144.324.324.324zM78.35 6.5h.459V1.937h-.46V6.5zm5.255-3.501c-.28-.675-.891-1.116-1.737-1.116-1.251 0-2.151.945-2.151 2.331 0 1.44.9 2.34 2.15 2.34.856 0 1.459-.45 1.747-1.161v.81c0 1.215-.576 1.737-1.674 1.737-.855 0-1.45-.387-1.593-1.08h-.477c.144.972.927 1.494 2.034 1.494 1.476 0 2.169-.702 2.169-2.133V1.937h-.396l-.072 1.062zM81.904 6.14c-1.017 0-1.72-.792-1.72-1.926s.703-1.926 1.72-1.926 1.719.792 1.719 1.935c0 1.125-.702 1.917-1.72 1.917zm5.354-4.257c-.855 0-1.386.477-1.647 1.134V.2h-.459v6.3h.46V4.25c0-1.188.602-1.944 1.574-1.944.873 0 1.413.576 1.413 1.656V6.5h.46V3.944c0-1.44-.766-2.061-1.8-2.061zm3.167 3.555c0 .729.297 1.062 1.071 1.062h.666v-.423h-.63c-.477 0-.648-.18-.648-.648V2.36h1.233v-.423h-1.233V.659h-.459v1.278h-.864v.423h.864v3.078zm4.654-.342c.036.945.801 1.458 1.944 1.458.981 0 1.773-.495 1.773-1.305 0-.963-.846-1.152-1.827-1.287-.71-.099-1.34-.18-1.34-.819 0-.522.512-.864 1.286-.864.73 0 1.251.351 1.332.945h.468c-.08-.891-.81-1.341-1.8-1.341-1.017-.009-1.746.513-1.746 1.296 0 .918.846 1.089 1.782 1.215.765.108 1.386.207 1.386.882 0 .54-.567.882-1.314.882-.873 0-1.44-.405-1.476-1.062h-.468zm6.798-3.213c-.855 0-1.449.459-1.737 1.098l-.072-1.044h-.396V8.3h.459V5.447c.261.666.882 1.107 1.746 1.107 1.251 0 2.151-.954 2.151-2.34 0-1.431-.9-2.331-2.151-2.331zm-.036 4.257c-1.017 0-1.719-.792-1.719-1.935 0-1.116.702-1.917 1.719-1.917 1.017 0 1.719.801 1.719 1.926 0 1.134-.702 1.926-1.719 1.926zm4.958-4.203c-.846 0-1.206.405-1.395.909l-.072-.909h-.396V6.5h.459V4.187c0-.927.243-1.809 1.314-1.809h.333v-.441h-.243zm2.614 4.617c.999 0 1.764-.648 1.962-1.566h-.468c-.18.711-.783 1.152-1.53 1.152-1.017 0-1.656-.774-1.674-1.836v-.081h3.726c0-.063.009-.135.009-.189-.045-1.359-.882-2.151-2.106-2.151-1.251 0-2.106.954-2.106 2.304 0 1.431.891 2.367 2.187 2.367zm-1.674-2.718c.072-.927.765-1.548 1.602-1.548.891 0 1.53.549 1.602 1.548h-3.204zm8.621 2.241c-.27 0-.405-.09-.405-.441V3.512c0-1.044-.639-1.629-1.782-1.629-1.044 0-1.737.504-1.854 1.332h.459c.117-.558.603-.927 1.377-.927.855 0 1.341.45 1.341 1.206v.396h-1.548c-1.17 0-1.8.504-1.8 1.359 0 .81.639 1.305 1.611 1.305.927 0 1.476-.423 1.755-.99v.162c-.018.54.207.774.747.774h.27v-.423h-.171zm-.864-1.422c0 .873-.621 1.503-1.701 1.503-.729 0-1.179-.369-1.179-.936 0-.603.45-.936 1.296-.936h1.584v.369zm5.304-1.692c-.279-.648-.891-1.08-1.746-1.08-1.251 0-2.151.954-2.151 2.331 0 1.44.9 2.34 2.151 2.34.855 0 1.449-.459 1.737-1.098l.072 1.044h.396V.2h-.459v2.763zm-1.71 3.177c-1.017 0-1.719-.792-1.719-1.926 0-1.125.702-1.926 1.719-1.926 1.017 0 1.719.801 1.719 1.935 0 1.125-.702 1.917-1.719 1.917zm3.042-1.044c.036.945.801 1.458 1.944 1.458.981 0 1.773-.495 1.773-1.305 0-.963-.846-1.152-1.827-1.287-.711-.099-1.341-.18-1.341-.819 0-.522.513-.864 1.287-.864.729 0 1.251.351 1.332.945h.468c-.081-.891-.81-1.341-1.8-1.341-1.017-.009-1.746.513-1.746 1.296 0 .918.846 1.089 1.782 1.215.765.108 1.386.207 1.386.882 0 .54-.567.882-1.314.882-.873 0-1.44-.405-1.476-1.062h-.468zm11.032.981c-.27 0-.405-.09-.405-.441V3.512c0-1.044-.639-1.629-1.782-1.629-1.044 0-1.737.504-1.854 1.332h.459c.117-.558.603-.927 1.377-.927.855 0 1.341.45 1.341 1.206v.396h-1.548c-1.17 0-1.8.504-1.8 1.359 0 .81.639 1.305 1.611 1.305.927 0 1.476-.423 1.755-.99v.162c-.018.54.207.774.747.774h.27v-.423h-.171zm-.864-1.422c0 .873-.621 1.503-1.701 1.503-.729 0-1.179-.369-1.179-.936 0-.603.45-.936 1.296-.936h1.584v.369zm3.755-2.772c-.837 0-1.377.432-1.638 1.026l-.072-.972h-.396V6.5h.459V4.25c0-1.188.603-1.944 1.575-1.944.882 0 1.413.576 1.413 1.656V6.5h.459V3.944c0-1.44-.765-2.061-1.8-2.061zm6.472 1.08c-.279-.648-.891-1.08-1.746-1.08-1.251 0-2.151.954-2.151 2.331 0 1.44.9 2.34 2.151 2.34.855 0 1.449-.459 1.737-1.098l.072 1.044h.396V.2h-.459v2.763zm-1.71 3.177c-1.017 0-1.719-.792-1.719-1.926 0-1.125.702-1.926 1.719-1.926 1.017 0 1.719.801 1.719 1.935 0 1.125-.702 1.917-1.719 1.917zm5.674.36h.459V.2h-.459v6.3zm1.772-5.526c.18 0 .324-.135.324-.324a.317.317 0 00-.324-.324.317.317 0 00-.324.324c0 .189.144.324.324.324zm-.234 5.526h.459V1.937h-.459V6.5zm5.255-3.501c-.279-.675-.891-1.116-1.737-1.116-1.251 0-2.151.945-2.151 2.331 0 1.44.9 2.34 2.151 2.34.855 0 1.458-.45 1.746-1.161v.81c0 1.215-.576 1.737-1.674 1.737-.855 0-1.449-.387-1.593-1.08h-.477c.144.972.927 1.494 2.034 1.494 1.476 0 2.169-.702 2.169-2.133V1.937h-.396l-.072 1.062zm-1.701 3.141c-1.017 0-1.719-.792-1.719-1.926s.702-1.926 1.719-1.926c1.017 0 1.719.792 1.719 1.935 0 1.125-.702 1.917-1.719 1.917zm5.355-4.257c-.855 0-1.386.477-1.647 1.134V.2h-.459v6.3h.459V4.25c0-1.188.603-1.944 1.575-1.944.873 0 1.413.576 1.413 1.656V6.5h.459V3.944c0-1.44-.765-2.061-1.8-2.061zm3.167 3.555c0 .729.297 1.062 1.071 1.062h.666v-.423h-.63c-.477 0-.648-.18-.648-.648V2.36h1.233v-.423h-1.233V.659h-.459v1.278h-.864v.423h.864v3.078zm4.541-3.555c-.837 0-1.377.432-1.638 1.026l-.072-.972h-.396V6.5h.459V4.25c0-1.188.603-1.944 1.575-1.944.882 0 1.413.576 1.413 1.656V6.5h.459V3.944c0-1.44-.765-2.061-1.8-2.061zm3.05-.909c.18 0 .324-.135.324-.324a.317.317 0 00-.324-.324.317.317 0 00-.324.324c0 .189.144.324.324.324zm-.234 5.526h.459V1.937h-.459V6.5zm3.644-4.617c-.837 0-1.377.432-1.638 1.026l-.072-.972H169V6.5h.459V4.25c0-1.188.603-1.944 1.575-1.944.882 0 1.413.576 1.413 1.656V6.5h.459V3.944c0-1.44-.765-2.061-1.8-2.061zm6.533 1.116c-.279-.675-.891-1.116-1.737-1.116-1.251 0-2.151.945-2.151 2.331 0 1.44.9 2.34 2.151 2.34.855 0 1.458-.45 1.746-1.161v.81c0 1.215-.576 1.737-1.674 1.737-.855 0-1.449-.387-1.593-1.08h-.477c.144.972.927 1.494 2.034 1.494 1.476 0 2.169-.702 2.169-2.133V1.937h-.396l-.072 1.062zm-1.701 3.141c-1.017 0-1.719-.792-1.719-1.926s.702-1.926 1.719-1.926c1.017 0 1.719.792 1.719 1.935 0 1.125-.702 1.917-1.719 1.917zm6.146-2.007v-.387h-2.907v.387h2.907zm.351-1.773h.864V6.5h.459V2.36h1.368v-.423h-1.368v-.684c0-.45.171-.63.63-.63h.747V.2h-.765c-.765 0-1.071.333-1.071 1.062v.675h-.864v.423zm7.102 3.717c-.27 0-.405-.09-.405-.441V3.512c0-1.044-.639-1.629-1.782-1.629-1.044 0-1.737.504-1.854 1.332h.459c.117-.558.603-.927 1.377-.927.855 0 1.341.45 1.341 1.206v.396h-1.548c-1.17 0-1.8.504-1.8 1.359 0 .81.639 1.305 1.611 1.305.927 0 1.476-.423 1.755-.99v.162c-.018.54.207.774.747.774h.27v-.423h-.171zm-.864-1.422c0 .873-.621 1.503-1.701 1.503-.729 0-1.179-.369-1.179-.936 0-.603.45-.936 1.296-.936h1.584v.369zm1.442.441c.036.945.801 1.458 1.944 1.458.981 0 1.773-.495 1.773-1.305 0-.963-.846-1.152-1.827-1.287-.711-.099-1.341-.18-1.341-.819 0-.522.513-.864 1.287-.864.729 0 1.251.351 1.332.945h.468c-.081-.891-.81-1.341-1.8-1.341-1.017-.009-1.746.513-1.746 1.296 0 .918.846 1.089 1.782 1.215.765.108 1.386.207 1.386.882 0 .54-.567.882-1.314.882-.873 0-1.44-.405-1.476-1.062h-.468zm4.935.342c0 .729.297 1.062 1.071 1.062h.666v-.423h-.63c-.477 0-.648-.18-.648-.648V2.36h1.233v-.423h-1.233V.659h-.459v1.278h-.864v.423h.864v3.078zm6.877 1.116c.999 0 1.764-.648 1.962-1.566h-.468c-.18.711-.783 1.152-1.53 1.152-1.017 0-1.656-.774-1.674-1.836v-.081h3.726c0-.063.009-.135.009-.189-.045-1.359-.882-2.151-2.106-2.151-1.251 0-2.106.954-2.106 2.304 0 1.431.891 2.367 2.187 2.367zm-1.674-2.718c.072-.927.765-1.548 1.602-1.548.891 0 1.53.549 1.602 1.548h-3.204zm3.962 2.664h.531l1.512-2.007L207.77 6.5h.558l-1.773-2.331 1.683-2.232h-.522l-1.44 1.89-1.422-1.89h-.549l1.683 2.232-1.773 2.331zm6.563.054c.999 0 1.764-.648 1.962-1.566h-.468c-.18.711-.783 1.152-1.53 1.152-1.017 0-1.656-.774-1.674-1.836v-.081h3.726c0-.063.009-.135.009-.189-.045-1.359-.882-2.151-2.106-2.151-1.251 0-2.106.954-2.106 2.304 0 1.431.891 2.367 2.187 2.367zm-1.674-2.718c.072-.927.765-1.548 1.602-1.548.891 0 1.53.549 1.602 1.548h-3.204zm6.595 2.718c1.035 0 1.764-.594 1.944-1.521h-.486c-.153.675-.702 1.107-1.458 1.107-.999 0-1.692-.783-1.692-1.917s.684-1.935 1.692-1.935c.765 0 1.305.432 1.467 1.116h.477c-.189-.945-.9-1.521-1.935-1.521-1.287 0-2.169.954-2.169 2.34 0 1.404.873 2.331 2.16 2.331zm6.148-2.376c0 1.197-.594 1.953-1.539 1.953-.846 0-1.368-.576-1.368-1.665V1.937h-.459v2.556c0 1.431.747 2.061 1.755 2.061.81 0 1.341-.432 1.602-1.017l.063.963h.405V1.937h-.459v2.241zm1.89 1.26c0 .729.297 1.062 1.071 1.062h.666v-.423h-.63c-.477 0-.648-.18-.648-.648V2.36h1.233v-.423h-1.233V.659h-.459v1.278h-.864v.423h.864v3.078zm2.67-4.464c.18 0 .324-.135.324-.324a.317.317 0 00-.324-.324.317.317 0 00-.324.324c0 .189.144.324.324.324zm-.234 5.526h.459V1.937h-.459V6.5zm3.554.054c1.287 0 2.196-.954 2.196-2.34 0-1.377-.909-2.331-2.196-2.331-1.287 0-2.187.954-2.187 2.331 0 1.386.9 2.34 2.187 2.34zm0-.414c-1.017 0-1.719-.792-1.719-1.926 0-1.125.702-1.926 1.719-1.926 1.017 0 1.719.801 1.719 1.926 0 1.134-.702 1.926-1.719 1.926zm5.214-4.257c-.837 0-1.377.432-1.638 1.026l-.072-.972h-.396V6.5h.459V4.25c0-1.188.603-1.944 1.575-1.944.882 0 1.413.576 1.413 1.656V6.5h.459V3.944c0-1.44-.765-2.061-1.8-2.061z" fill="#000"/></svg>