<svg width="3562" height="3043" viewBox="0 0 3562 3043" fill="none" xmlns="http://www.w3.org/2000/svg"><path d="M.5 0v3043h3561V0H.5zm1962.24 1681.69c-8.93 0-53.6-.99-70.98-.99-18.36 0-73.95.99-83.38.99v-6.94l15.88-2.48c15.39-2.48 21.84-6.44 21.84-15.86 0-7.93-4.96-17.84-15.88-34.69l-55.59-84.74-55.59 76.32c-12.91 17.84-18.86 31.22-18.86 41.13 0 9.91 5.95 15.86 21.34 18.34l16.38 2.47v6.94c-8.94 0-48.64-.99-66.51-.99-17.87 0-46.16.99-55.59.99v-7.43l8.44-1.49c22.33-3.96 43.18-22.79 60.05-44.1l80.41-105.07-78.92-116.96c-18.36-27.26-31.27-39.65-51.12-43.11l-10.42-1.99v-6.93c8.93 0 53.6.99 70.97.99 18.37 0 72.97-.99 82.4-.99v6.93l-15.89 2.48c-13.4 1.98-20.84 6.44-20.84 15.86 0 7.93 4.96 17.84 15.88 34.69l47.65 73.35 46.65-65.42c12.41-17.84 18.87-31.22 18.87-40.64 0-9.41-6.46-15.86-21.35-18.33l-16.38-2.48v-6.94c8.94 0 48.65.99 66.51.99 17.87 0 46.16-.99 55.59-.99v6.94l-8.43 1.48c-22.34 3.97-42.69 20.82-60.06 44.11l-71.97 94.16 87.36 127.87c18.36 27.25 31.26 39.64 51.12 43.11l10.42 1.98v7.44z" fill="#fff"/></svg>