<svg width="634" height="535" viewBox="0 0 634 535" fill="none" xmlns="http://www.w3.org/2000/svg"><path d="M0 0v535h634V0H0zm505.741 426.085c-8.934 0-53.605-.992-70.976-.992-18.365 0-73.955.992-83.386.992v-6.944l15.883-2.48c15.387-2.481 21.839-6.449 21.839-15.874 0-7.937-4.963-17.858-15.883-34.724l-55.59-84.824-55.59 76.391c-12.905 17.858-18.861 31.252-18.861 41.173 0 9.921 5.956 15.873 21.343 18.353l16.379 2.481v6.945c-8.934 0-48.642-.993-66.51-.993-17.868 0-46.16.993-55.59.993v-7.441l8.438-1.488c22.335-3.969 43.181-22.819 60.057-44.149l80.407-105.163-78.918-117.068c-18.365-27.282-31.27-39.684-51.123-43.156l-10.423-1.984v-6.945c8.934 0 53.604.992 70.976.992 18.365 0 72.962-.992 82.393-.992v6.945l-15.883 2.48c-13.401 1.984-20.846 6.448-20.846 15.873 0 7.937 4.963 17.858 15.883 34.724l47.648 73.416 46.657-65.479c12.408-17.858 18.861-31.251 18.861-40.676s-6.453-15.874-21.343-18.354l-16.379-2.48v-6.945c8.934 0 48.641.992 66.509.992 17.869 0 46.16-.992 55.591-.992v6.945l-8.438 1.488c-22.336 3.968-42.685 20.834-60.057 44.148l-71.97 94.25 87.356 127.981c18.365 27.283 31.27 39.684 51.123 43.157l10.423 1.984v7.44z" fill="#fff"/></svg>