<svg width="173" height="140" viewBox="0 0 173 140" fill="none" xmlns="http://www.w3.org/2000/svg"><path d="M4.562 17.167c-.52 0-1.095-.074-1.726-.223-.618-.148-1.15-.346-1.596-.593l-.092-2.746 1.187-.075.63 1.911c.248.161.539.291.873.39.346.087.674.13.983.13.557 0 .978-.118 1.262-.353.297-.235.445-.55.445-.946 0-.433-.13-.78-.39-1.039-.247-.26-.574-.482-.983-.668a21.675 21.675 0 00-1.298-.538 9.095 9.095 0 01-1.3-.65 3.306 3.306 0 01-1.001-.983c-.248-.408-.371-.921-.371-1.54 0-.668.185-1.25.556-1.744.384-.507.916-.897 1.596-1.169.693-.284 1.49-.427 2.394-.427.284 0 .587.019.909.056.334.037.655.099.965.186.309.074.581.16.816.26l.204 2.708-1.169.074-.594-1.818a2.831 2.831 0 00-1.317-.297c-.507 0-.928.13-1.262.39-.321.247-.482.6-.482 1.058 0 .408.13.748.39 1.02.26.26.593.489 1.002.686.408.186.84.372 1.298.557.47.186.91.408 1.318.668.42.248.76.563 1.02.946.26.384.39.873.39 1.466 0 .631-.198 1.2-.594 1.707-.383.495-.928.885-1.633 1.17-.692.284-1.503.426-2.43.426zm12.079-1.726a2.465 2.465 0 01-1.02 1.28 2.96 2.96 0 01-1.634.465c-.853 0-1.558-.248-2.115-.743-.544-.507-.816-1.261-.816-2.263l.056-4.138h-1.3v-.575l3.174-2.524h.575l-.037 2.617-.037 4.397c0 .52.123.897.37 1.132.248.223.594.334 1.04.334.235 0 .463-.043.686-.13.223-.099.415-.223.575-.371l.483.52zm-4.064-5.399V8.873h3.544v1.169h-3.544zm8.777 7.106c-.866 0-1.627-.173-2.283-.52a3.992 3.992 0 01-1.54-1.465c-.37-.63-.556-1.348-.556-2.152 0-.916.21-1.695.63-2.338a4.1 4.1 0 011.652-1.466 4.862 4.862 0 012.17-.501c.817 0 1.535.173 2.153.52.631.346 1.12.834 1.466 1.465.359.619.538 1.33.538 2.134 0 .817-.192 1.553-.575 2.208a4.223 4.223 0 01-1.522 1.54 4.088 4.088 0 01-2.133.575zm.185-1.187c.31 0 .57-.099.78-.297.222-.198.39-.489.5-.872.124-.383.186-.841.186-1.373 0-1.064-.173-1.93-.52-2.598-.334-.668-.785-1.002-1.354-1.002-.47 0-.841.241-1.113.724-.272.47-.409 1.113-.409 1.93 0 .655.08 1.249.242 1.78.173.533.402.953.686 1.263.297.296.631.445 1.002.445zM26.586 17l-.056-.854 1.15-.315c.013-.05.026-.16.038-.334.012-.173.025-.39.037-.65.012-.271.019-.562.019-.871l.018-1.41c0-.384-.012-.718-.037-1.003a8.123 8.123 0 00-.13-.89l-1.187-.26v-.835l3.265-.835.501.316-.111 1.094.056.019c.383-.495.804-.86 1.261-1.095.47-.247.965-.371 1.485-.371.532 0 1.002.13 1.41.39.42.26.754.643 1.002 1.15.247.495.37 1.095.37 1.8v1.911c0 .42.007.816.02 1.188.012.358.036.587.074.686l1.15.316-.056.853h-4.657l-.055-.854 1.057-.315c.025-.111.043-.266.056-.464.012-.21.018-.439.018-.686.013-.248.019-.483.019-.705v-1.559c0-.47-.074-.847-.223-1.132-.136-.297-.321-.513-.556-.65a1.465 1.465 0 00-.78-.203c-.309 0-.6.068-.872.204a2.26 2.26 0 00-.705.594v2.727c0 .42.006.816.019 1.188.024.358.05.587.074.686l1.132.316-.056.853h-4.75zm15.345.148c-.804 0-1.522-.179-2.153-.538a3.97 3.97 0 01-1.465-1.465c-.347-.619-.52-1.318-.52-2.097 0-.866.198-1.62.594-2.264a4.373 4.373 0 011.54-1.54 3.918 3.918 0 012.06-.538c1.088 0 1.93.34 2.523 1.02.594.668.89 1.54.89 2.617v.445h-5.455v-.965h3.637l-.278.446v-.631c0-.582-.13-1.046-.39-1.392-.26-.346-.618-.52-1.076-.52-.31 0-.588.087-.835.26-.247.173-.445.44-.594.798-.136.346-.204.786-.204 1.318v.39c0 .865.229 1.564.687 2.096.47.532 1.094.798 1.874.798.42 0 .804-.074 1.15-.223.347-.16.68-.427 1.002-.798l.575.52c-.346.742-.835 1.305-1.465 1.688-.631.384-1.33.575-2.097.575zM53.323 17l-.055-.928 1.15-.297c.025-.062.043-.229.056-.5.025-.273.043-.613.055-1.021.013-.408.019-.854.019-1.336V10.19c0-.494-.006-.946-.019-1.354-.012-.42-.03-.76-.055-1.02-.013-.273-.031-.44-.056-.502l-1.15-.278.055-.928h4.973l.056.928-1.17.278c-.012.062-.03.235-.055.52-.025.284-.043.637-.056 1.058-.012.42-.018.853-.018 1.298v2.728c0 .433.006.86.018 1.28.013.408.031.761.056 1.058.025.284.043.457.056.52l1.169.296-.056.928h-4.973zm-6.642 0l-.056-.928 1.17-.297c.024-.062.042-.222.055-.482.024-.26.043-.594.055-1.002.013-.42.019-.878.019-1.373V10.19c0-.507-.006-.97-.019-1.391-.012-.42-.03-.76-.055-1.02-.013-.273-.031-.427-.056-.465l-1.169-.278.056-.928h4.954l.056.928-1.15.278c-.026.062-.05.23-.075.501-.012.26-.025.6-.037 1.02V14.255c.012.408.025.748.037 1.02.025.273.05.44.074.501l1.15.297-.055.928H46.68zm3.321-4.861v-1.41c.297.037.637.061 1.02.074.396.012.885.018 1.466.018.582 0 1.064-.006 1.448-.018.383-.013.723-.037 1.02-.075v1.41c-.26-.012-.581-.024-.965-.036a24.293 24.293 0 00-1.503-.037c-.618 0-1.125.012-1.521.037a63.44 63.44 0 00-.965.037zm13.786 5.01c-.804 0-1.521-.18-2.152-.539a3.97 3.97 0 01-1.466-1.465c-.346-.619-.52-1.318-.52-2.097 0-.866.198-1.62.594-2.264a4.372 4.372 0 011.54-1.54 3.918 3.918 0 012.06-.538c1.088 0 1.93.34 2.523 1.02.594.668.89 1.54.89 2.617v.445h-5.454v-.965h3.637l-.279.446v-.631c0-.582-.13-1.046-.39-1.392-.26-.346-.618-.52-1.076-.52-.309 0-.587.087-.834.26-.248.173-.446.44-.594.798-.136.346-.204.786-.204 1.318v.39c0 .865.228 1.564.686 2.096.47.532 1.095.798 1.874.798.42 0 .804-.074 1.15-.223.347-.16.68-.427 1.002-.798l.576.52c-.347.742-.835 1.305-1.466 1.688-.631.384-1.33.575-2.097.575zm11.096.092l-.501-.278.019-1.206-.056-.019c-.31.532-.656.91-1.04 1.132a2.44 2.44 0 01-1.187.316 3.47 3.47 0 01-1.818-.501 3.707 3.707 0 01-1.336-1.392c-.334-.606-.501-1.305-.501-2.097 0-.692.13-1.31.39-1.855a4.27 4.27 0 011.039-1.41 4.408 4.408 0 011.447-.891 4.405 4.405 0 011.633-.315c.235 0 .476.024.723.074.248.037.452.099.613.185 0-.235-.007-.494-.019-.779 0-.297-.006-.587-.018-.872 0-.297-.007-.563-.019-.798 0-.247-.006-.433-.019-.556l-1.372-.205-.038-.797 3.507-.91.52.316c-.037.767-.075 1.478-.112 2.134a35.512 35.512 0 00-.055 2.04l-.019 4.305c0 .606.019 1.101.056 1.485l.093.983 1.224.26v.798l-3.154.853zm-1.874-1.837c.198 0 .42-.062.668-.185a1.65 1.65 0 00.668-.613V10.47a1.334 1.334 0 00-.612-.483 1.804 1.804 0 00-.706-.148c-.58 0-1.063.241-1.447.724-.37.482-.556 1.144-.556 1.985 0 .915.191 1.62.575 2.115.396.495.866.742 1.41.742zm9.704 5.826c-1.311 0-2.338-.179-3.08-.538-.73-.358-1.095-.853-1.095-1.484 0-.408.217-.792.65-1.15.445-.347 1.045-.625 1.8-.835l.797.074c-.297.21-.532.451-.705.723-.173.273-.26.557-.26.854 0 .42.174.742.52.965.359.235.878.352 1.559.352.667 0 1.224-.148 1.67-.445.445-.284.667-.643.667-1.076 0-.31-.11-.544-.334-.705-.222-.149-.606-.248-1.15-.297l-2.356-.204-.167-.093c-.631 0-1.12-.124-1.466-.371-.347-.235-.52-.544-.52-.928 0-.396.192-.76.576-1.095.395-.346.933-.618 1.614-.816l.297.316a1.304 1.304 0 00-.334.296.454.454 0 00-.13.297c0 .149.043.26.13.334a.881.881 0 00.408.149l2.876.278c.915.087 1.596.328 2.04.724.446.396.669.915.669 1.558 0 .582-.204 1.107-.612 1.577-.396.47-.953.842-1.67 1.114-.706.284-1.503.427-2.394.427zm.074-6.42c-.742 0-1.398-.123-1.967-.37-.556-.26-.99-.613-1.298-1.058a2.75 2.75 0 01-.464-1.577c0-.606.167-1.144.5-1.615.335-.47.786-.84 1.355-1.113.582-.272 1.231-.408 1.948-.408.706 0 1.33.142 1.875.427a3.33 3.33 0 011.317 1.113 2.76 2.76 0 01.482 1.596c0 .581-.16 1.1-.482 1.558-.322.446-.76.798-1.317 1.058-.557.26-1.207.39-1.949.39zm.149-1.076c.383 0 .686-.167.909-.5.222-.347.334-.81.334-1.392 0-.631-.124-1.138-.371-1.522-.235-.383-.557-.575-.965-.575-.371 0-.674.18-.91.538-.234.359-.352.835-.352 1.429 0 .606.124 1.095.371 1.466.248.37.575.556.984.556zm4.62-3.358l-2.505-.241-.557-.872 3.062-.371v1.484zm4.935 6.772c-.804 0-1.521-.179-2.152-.538a3.97 3.97 0 01-1.466-1.465c-.346-.619-.52-1.318-.52-2.097 0-.866.198-1.62.594-2.264a4.372 4.372 0 011.54-1.54 3.918 3.918 0 012.06-.538c1.088 0 1.93.34 2.523 1.02.594.668.891 1.54.891 2.617v.445h-5.455v-.965h3.637l-.279.446v-.631c0-.582-.13-1.046-.39-1.392-.26-.346-.618-.52-1.075-.52-.31 0-.588.087-.835.26-.248.173-.446.44-.594.798-.136.346-.204.786-.204 1.318v.39c0 .865.229 1.564.686 2.096.47.532 1.095.798 1.874.798.42 0 .804-.074 1.15-.223.347-.16.681-.427 1.003-.798l.575.52c-.347.742-.835 1.305-1.466 1.688-.63.384-1.33.575-2.097.575zm8.109-.148l-.037-.686 1.243-.26c.012-.05.018-.136.018-.26.013-.124.025-.322.037-.594.013-.272.019-.65.019-1.132v-1.224c0-.507-.012-.971-.037-1.392-.025-.42-.056-.748-.093-.983l-1.243-.26v-.612l2.635-.687.278.26c-.037.383-.068.76-.093 1.132-.012.37-.018.804-.018 1.299v2.337c0 .57.006 1.04.018 1.41.025.372.05.607.074.706l1.244.26-.037.686h-4.008zm2.004-10.187c-.31 0-.582-.105-.817-.315a1.032 1.032 0 01-.334-.78c0-.308.112-.568.334-.779.235-.21.507-.315.817-.315a1.08 1.08 0 011.113 1.095 1.08 1.08 0 01-1.113 1.095zm6.104 10.335c-.458 0-.915-.049-1.373-.148a4.926 4.926 0 01-1.169-.427l-.093-1.985h.91l.371 1.336a2.56 2.56 0 001.484.445c.421 0 .761-.099 1.02-.297.26-.21.39-.488.39-.835 0-.321-.117-.6-.352-.835-.235-.247-.693-.513-1.373-.797-.879-.384-1.497-.749-1.856-1.095-.359-.359-.538-.817-.538-1.373 0-.446.13-.835.39-1.17.272-.346.643-.612 1.113-.797.47-.198 1.014-.297 1.633-.297.346 0 .699.031 1.057.093.359.062.656.142.891.241l.204 1.93h-.872l-.445-1.262a1.452 1.452 0 00-.446-.167 2.012 2.012 0 00-.556-.074c-.433 0-.78.105-1.039.315a.933.933 0 00-.39.78c0 .37.142.674.427.909.284.222.785.5 1.503.835.816.37 1.385.736 1.707 1.094.321.36.482.792.482 1.3 0 .667-.291 1.218-.872 1.65-.581.421-1.317.631-2.208.631zM.591 38l-.056-.853 1.15-.316c.013-.05.025-.16.038-.334.012-.185.025-.408.037-.668.012-.26.018-.544.018-.853l.019-1.392a10.803 10.803 0 00-.074-1.28c-.025-.21-.056-.42-.093-.631l-1.187-.26v-.835l3.265-.835.501.316-.111 1.076.055.018c.396-.507.81-.872 1.244-1.094a2.802 2.802 0 011.354-.353c.483 0 .928.124 1.336.371.42.235.76.6 1.02 1.095.26.482.39 1.107.39 1.874l.037 1.911c0 .408.006.798.019 1.169.012.371.037.606.074.705l1.002.316-.056.853H6.176l-.056-.853.947-.316c.024-.111.043-.266.055-.464.013-.21.019-.439.019-.686.012-.248.018-.483.018-.705l-.018-1.745c0-.445-.068-.797-.204-1.057-.124-.272-.297-.464-.52-.575a1.565 1.565 0 00-.742-.167c-.272 0-.544.074-.816.222a1.924 1.924 0 00-.687.576v2.727c0 .408.006.798.019 1.169.024.371.049.606.074.705l1.02.316L5.23 38H.59zm10.892 0l-.056-.853.965-.316c.024-.111.043-.266.055-.464.013-.21.019-.439.019-.686.012-.248.019-.483.019-.705l-.038-1.578c0-.482-.068-.865-.204-1.15-.136-.284-.321-.489-.556-.612a1.528 1.528 0 00-.78-.204c-.309 0-.606.068-.89.204-.272.123-.501.315-.687.575l-.538-.705c.445-.594.915-1.04 1.41-1.336a3.082 3.082 0 011.633-.464c.581 0 1.095.136 1.54.408.458.26.81.637 1.058 1.132.247.495.37 1.089.37 1.781l.038 1.93c0 .408.006.798.019 1.169.024.371.049.606.074.705l1.15.316-.056.853h-4.545zm9.61.148c-.803 0-1.52-.179-2.151-.538a3.968 3.968 0 01-1.466-1.465c-.347-.619-.52-1.318-.52-2.097 0-.866.198-1.62.594-2.264a4.373 4.373 0 011.54-1.54 3.917 3.917 0 012.06-.538c1.088 0 1.93.34 2.523 1.02.594.669.89 1.54.89 2.617v.445H19.11v-.965h3.636l-.278.446v-.631c0-.582-.13-1.046-.39-1.392-.26-.346-.618-.52-1.076-.52-.31 0-.588.087-.835.26-.247.174-.445.44-.594.798-.136.346-.204.786-.204 1.318v.39c0 .865.23 1.564.687 2.096.47.532 1.095.798 1.874.798.42 0 .804-.075 1.15-.223.347-.16.68-.427 1.002-.798l.575.52c-.346.742-.835 1.305-1.465 1.688-.631.384-1.33.575-2.097.575zM25.51 38l-.056-.853 1.15-.316c.013-.05.025-.16.038-.334.012-.185.024-.408.037-.668.012-.272.018-.556.018-.853l.019-1.392c0-.371-.012-.699-.037-.983a8.78 8.78 0 00-.13-.928l-1.188-.26v-.835l3.21-.835.483.316-.074 1.465.055.019c.359-.693.718-1.163 1.076-1.41.372-.248.749-.371 1.132-.371.334 0 .625.093.872.278.26.186.39.476.39.872s-.136.705-.408.928a1.45 1.45 0 01-.947.334 2.04 2.04 0 01-.797-.149c-.235-.11-.495-.303-.78-.575l.52.056a3.01 3.01 0 00-.538.52 3.24 3.24 0 00-.445.723l.018 1.466c.012.457.019.872.019 1.243.012.359.024.662.037.91.012.234.024.389.037.463l1.614.278-.056.891h-5.27zm11.54.148c-.778 0-1.483-.167-2.114-.5a4.16 4.16 0 01-1.503-1.43c-.371-.618-.557-1.317-.557-2.096 0-.78.198-1.503.594-2.17.396-.681.94-1.225 1.633-1.634.692-.408 1.49-.612 2.393-.612.544 0 1.033.074 1.466.223.433.136.78.334 1.04.594.259.26.389.55.389.872 0 .309-.1.544-.297.705a1.065 1.065 0 01-.687.222c-.235 0-.445-.043-.63-.13a3.285 3.285 0 01-.613-.426l-1.354-1.188.946.223c-.359-.087-.718-.037-1.076.148-.346.186-.631.495-.854.928-.222.42-.334.952-.334 1.596 0 .952.23 1.67.687 2.152.47.482 1.045.724 1.725.724a2.49 2.49 0 001.02-.223c.347-.16.681-.433 1.003-.816l.594.538c-.347.754-.835 1.33-1.466 1.725a3.733 3.733 0 01-2.004.575zM41.023 38l-.056-.853 1.15-.316c.013-.136.025-.371.037-.705.025-.346.044-.742.056-1.188.012-.445.019-.878.019-1.298v-2.338c0-.42-.007-.841-.019-1.262 0-.433-.006-.841-.018-1.225 0-.395-.007-.754-.019-1.076a9.471 9.471 0 00-.056-.779l-1.373-.186-.037-.797 3.507-.91.52.316-.075 1.113a211.756 211.756 0 00-.074 2.653c-.012.545-.025 1.206-.037 1.986l.056.018c.383-.482.804-.84 1.261-1.076a3.037 3.037 0 011.466-.37c.532 0 1.002.129 1.41.389.42.26.755.643 1.002 1.15.248.495.371 1.095.371 1.8v1.911c0 .42.007.816.019 1.188.025.358.05.587.074.686l1.15.316-.055.853h-4.639l-.055-.853 1.039-.316c.024-.111.043-.266.055-.464.013-.21.019-.439.019-.686.012-.248.018-.483.018-.705v-1.559c0-.47-.074-.847-.222-1.132-.136-.297-.322-.513-.557-.65a1.465 1.465 0 00-.78-.203c-.296 0-.58.068-.853.204a2.19 2.19 0 00-.723.594v2.727c0 .458.006.86.018 1.206.025.346.05.57.074.668l1.114.316-.056.853h-4.731zm14.046.148c-.57 0-1.064-.123-1.485-.37a2.859 2.859 0 01-.946-.891c-.21-.347-.316-.674-.316-.984 0-.445.137-.816.409-1.113.284-.31.717-.55 1.298-.724l2.913-.853v-.668c0-.26-.086-.501-.26-.724a1.834 1.834 0 00-.649-.575 1.794 1.794 0 00-.872-.223c-.198 0-.34.05-.426.149-.075.087-.124.266-.149.538l-.093 1.132c-.618.123-1.125.105-1.521-.056-.384-.173-.575-.451-.575-.835 0-.235.123-.476.37-.724.248-.247.551-.476.91-.686a7.376 7.376 0 011.132-.557c.383-.16.717-.253 1.002-.278 1.1 0 1.973.254 2.616.76.643.496.97 1.164.983 2.005l-.055 2.579c0 .346.006.618.018.816.025.198.062.359.111.483l1.225.222v.78l-1.206.52a5.913 5.913 0 01-.612.203c-.186.05-.365.074-.538.074-.483 0-.823-.247-1.02-.742l-.316-.853.39.093c-.384.47-.78.84-1.188 1.113-.396.26-.78.39-1.15.39zm.946-1.67c.173 0 .34-.03.5-.092.162-.075.31-.18.446-.316v-1.818l-1.262.241c-.309.037-.532.13-.668.279-.123.148-.185.346-.185.593 0 .285.111.544.334.78.235.222.513.333.835.333zM61.19 38l-.056-.853 1.15-.316c.013-.05.025-.16.037-.334.013-.173.025-.39.037-.65.013-.272.02-.562.02-.871l.018-1.41c0-.384-.013-.718-.038-1.003a8.123 8.123 0 00-.13-.89l-1.187-.26v-.835l3.266-.835.5.316-.11 1.094.055.019c.383-.495.804-.86 1.262-1.095.47-.247.965-.37 1.484-.37.532 0 1.002.129 1.41.389.42.26.755.643 1.002 1.15.248.495.371 1.095.371 1.8v1.911c0 .42.007.816.019 1.188.012.358.037.587.074.686l1.15.316-.055.853h-4.657l-.056-.853 1.058-.316c.024-.111.043-.266.055-.464.013-.21.019-.439.019-.686.012-.248.018-.483.018-.705v-1.559c0-.47-.074-.847-.222-1.132-.136-.297-.322-.513-.557-.65a1.465 1.465 0 00-.78-.203c-.308 0-.6.068-.871.204a2.26 2.26 0 00-.705.594v2.727c0 .42.006.816.018 1.188.025.358.05.587.074.686l1.132.316-.055.853h-4.75zm17.608.241l-.501-.278.019-1.206-.056-.019c-.31.532-.656.91-1.04 1.132a2.44 2.44 0 01-1.187.316 3.47 3.47 0 01-1.818-.501 3.707 3.707 0 01-1.336-1.392c-.334-.606-.501-1.305-.501-2.097 0-.692.13-1.31.39-1.855a4.267 4.267 0 011.039-1.41 4.41 4.41 0 011.447-.891 4.407 4.407 0 011.633-.315c.235 0 .476.024.724.074.247.037.45.099.612.185 0-.235-.006-.494-.019-.779 0-.297-.006-.587-.018-.872 0-.297-.007-.563-.019-.798a6.09 6.09 0 00-.019-.556l-1.373-.205-.037-.797 3.507-.91.52.316c-.037.767-.075 1.478-.112 2.134a35.515 35.515 0 00-.055 2.04l-.019 4.305a16 16 0 00.056 1.485l.093.983 1.224.26v.798l-3.154.853zm-1.874-1.837c.198 0 .42-.062.668-.185a1.65 1.65 0 00.668-.613V31.47a1.335 1.335 0 00-.612-.483 1.806 1.806 0 00-.706-.148c-.58 0-1.063.241-1.447.723-.37.483-.556 1.145-.556 1.986 0 .915.191 1.62.575 2.115.396.495.866.742 1.41.742zM82.417 38l-.055-.872 1.243-.297c.012-.05.024-.16.037-.334.012-.185.025-.408.037-.668a18 18 0 00.018-.853l.019-1.392c0-.371-.012-.705-.037-1.002a8.042 8.042 0 00-.13-.91l-1.243-.259v-.835l3.414-.835.5.316a36.63 36.63 0 00-.092 1.206 43.76 43.76 0 00-.019 1.354v2.338c0 .408.007.798.02 1.169.024.371.048.606.073.705l1.243.297-.055.872h-4.973zm2.505-9.778c-.495 0-.884-.149-1.169-.446a1.518 1.518 0 01-.427-1.057c0-.396.143-.742.427-1.04.285-.309.674-.463 1.169-.463s.878.154 1.15.464c.272.297.409.643.409 1.039 0 .396-.136.748-.409 1.057-.272.297-.655.446-1.15.446zm6.346 9.926c-.52 0-1.033-.055-1.54-.167a5.468 5.468 0 01-1.28-.463l-.093-2.171h1.187l.39 1.336c.47.272.958.408 1.466.408.383 0 .674-.074.872-.223a.774.774 0 00.297-.63.914.914 0 00-.334-.706c-.21-.198-.65-.42-1.318-.668-.915-.334-1.552-.699-1.911-1.094-.359-.396-.538-.891-.538-1.485 0-.507.155-.952.464-1.336.31-.396.742-.699 1.299-.909.556-.223 1.2-.334 1.93-.334.395 0 .797.037 1.205.111.409.075.743.174 1.002.297l.223 2.153h-1.188l-.408-1.318a1.454 1.454 0 00-.464-.167 1.82 1.82 0 00-.5-.074c-.372 0-.675.08-.91.241a.76.76 0 00-.334.65c0 .296.136.544.409.742.272.198.766.445 1.484.742.816.334 1.398.693 1.744 1.076.346.371.52.835.52 1.392 0 .78-.34 1.41-1.021 1.892-.68.47-1.565.705-2.653.705zM95.665 38l-.056-.872 1.244-.297c.012-.05.024-.16.037-.334.012-.185.025-.408.037-.668.012-.26.018-.544.018-.853l.019-1.392c0-.371-.012-.705-.037-1.002a8.066 8.066 0 00-.13-.91l-1.243-.259v-.835l3.414-.835.5.316c-.036.395-.067.797-.092 1.206a43.76 43.76 0 00-.019 1.354v2.338c0 .408.007.798.02 1.169.024.371.049.606.073.705l1.243.297-.055.872h-4.973zm2.505-9.778c-.495 0-.884-.149-1.169-.446a1.519 1.519 0 01-.427-1.057c0-.396.143-.742.427-1.04.285-.309.674-.463 1.169-.463s.878.154 1.15.464c.273.297.409.643.409 1.039 0 .396-.136.748-.409 1.057-.272.297-.655.446-1.15.446zM101.25 38l-.056-.853 1.151-.316c.012-.05.025-.16.037-.334a19.794 19.794 0 00.056-1.522l.018-1.41c0-.383-.012-.717-.037-1.002a8.173 8.173 0 00-.13-.89l-1.187-.26v-.835l3.265-.835.501.316-.111 1.094.056.019c.383-.495.804-.86 1.261-1.095.47-.247.965-.37 1.485-.37.532 0 1.002.129 1.41.389.42.26.754.643 1.002 1.15.247.495.371 1.095.371 1.8v1.911c0 .42.006.816.018 1.188.013.358.038.587.075.686l1.15.316-.056.853h-4.657l-.055-.853 1.057-.316a3.21 3.21 0 00.056-.464c.012-.21.018-.439.018-.686.013-.248.019-.483.019-.705v-1.559c0-.47-.074-.847-.223-1.132-.136-.297-.321-.513-.556-.65a1.468 1.468 0 00-.78-.203c-.309 0-.6.068-.872.204-.26.136-.495.334-.705.594v2.727c0 .42.006.816.019 1.188.024.358.049.587.074.686l1.132.316L106 38h-4.75zm15.048 4.23c-1.311 0-2.338-.179-3.08-.538-.73-.358-1.095-.853-1.095-1.484 0-.408.217-.792.65-1.15.445-.347 1.045-.625 1.799-.835l.798.074a2.6 2.6 0 00-.705.724c-.173.272-.26.556-.26.853 0 .42.174.742.52.965.359.235.878.352 1.559.352.667 0 1.224-.148 1.669-.445.446-.284.668-.643.668-1.076 0-.31-.111-.544-.334-.705-.222-.149-.606-.248-1.15-.297l-2.356-.204-.167-.093c-.631 0-1.12-.124-1.466-.371-.347-.235-.52-.544-.52-.928 0-.396.192-.76.575-1.095.396-.346.934-.618 1.615-.816l.297.316a1.296 1.296 0 00-.334.296.452.452 0 00-.13.297c0 .149.043.26.13.334a.881.881 0 00.408.149l2.876.278c.915.087 1.595.328 2.041.724.445.395.668.915.668 1.558 0 .582-.204 1.107-.613 1.577-.395.47-.952.842-1.669 1.114-.706.284-1.503.426-2.394.426zm.074-6.42c-.742 0-1.398-.123-1.967-.37-.556-.26-.989-.613-1.298-1.058a2.745 2.745 0 01-.464-1.577c0-.606.167-1.145.501-1.615.334-.47.785-.84 1.354-1.113.582-.272 1.231-.408 1.948-.408.705 0 1.33.142 1.874.427a3.33 3.33 0 011.318 1.113c.321.47.482 1.002.482 1.596 0 .581-.161 1.1-.482 1.558-.322.446-.761.798-1.318 1.058-.556.26-1.206.39-1.948.39zm.149-1.076c.383 0 .686-.167.909-.5.222-.347.334-.81.334-1.392 0-.631-.124-1.138-.371-1.522-.235-.383-.557-.575-.965-.575-.371 0-.674.18-.909.538-.235.359-.353.835-.353 1.429 0 .606.124 1.095.371 1.466.248.37.575.556.984.556zm4.62-3.358l-2.505-.241-.557-.872 3.062-.371v1.484zm1.076 9.89l-.278-.538c.494-.223.872-.495 1.131-.817a1.6 1.6 0 00.409-1.095.881.881 0 00-.112-.464 1.278 1.278 0 00-.241-.333l-.297-.26a1.757 1.757 0 01-.26-.334 1.222 1.222 0 01-.092-.501c0-.26.099-.489.297-.687.21-.21.476-.315.797-.315.223 0 .427.062.613.185.198.124.352.31.464.557.123.247.185.563.185.946 0 .495-.111.984-.334 1.466-.21.483-.513.916-.909 1.299-.396.383-.854.68-1.373.89zM3.857 59.148c-.458 0-.916-.049-1.373-.148a4.924 4.924 0 01-1.17-.427l-.092-1.985h.909l.371 1.336c.433.297.928.445 1.484.445.421 0 .761-.099 1.021-.297.26-.21.39-.488.39-.835 0-.321-.118-.6-.353-.835-.235-.247-.693-.513-1.373-.797-.878-.384-1.497-.749-1.855-1.095-.36-.359-.539-.817-.539-1.373 0-.446.13-.835.39-1.17.272-.346.643-.611 1.113-.797.47-.198 1.015-.297 1.633-.297.347 0 .7.031 1.058.093.359.062.655.142.89.241l.205 1.93h-.873l-.445-1.262a1.453 1.453 0 00-.445-.167 2.017 2.017 0 00-.557-.074c-.433 0-.78.105-1.039.315a.934.934 0 00-.39.78c0 .37.143.674.427.909.285.222.786.5 1.503.835.817.37 1.386.736 1.707 1.094.322.36.483.792.483 1.3 0 .667-.291 1.218-.872 1.65-.582.421-1.318.631-2.208.631zM8.18 59l-.037-.687 1.243-.26a1.23 1.23 0 00.018-.26c.013-.123.025-.32.038-.593.012-.272.018-.65.018-1.132v-1.224c0-.507-.012-.971-.037-1.392-.025-.42-.056-.748-.093-.983l-1.243-.26v-.612l2.635-.687.278.26c-.037.383-.068.76-.093 1.132-.012.37-.018.804-.018 1.299v2.337c0 .57.006 1.04.018 1.41.025.372.05.607.075.706l1.243.26-.037.686H8.18zm2.004-10.187c-.31 0-.582-.105-.817-.315a1.029 1.029 0 01-.334-.78c0-.309.112-.568.334-.779.235-.21.507-.315.817-.315a1.081 1.081 0 011.113 1.095 1.081 1.081 0 01-1.113 1.095zM13.245 59l-.037-.668 1.15-.278c.013-.087.02-.198.02-.334.011-.136.024-.334.036-.594.013-.26.019-.612.019-1.058l.018-1.447a5.76 5.76 0 00-.018-.798 12.853 12.853 0 00-.13-1.354l-1.188-.26v-.612l2.487-.687.315.297-.093 1.002.056.018c.383-.482.78-.828 1.187-1.038.421-.21.848-.316 1.28-.316.434 0 .854.118 1.262.353.409.235.743.593 1.002 1.076.273.482.409 1.1.409 1.855l.018 1.967c0 .445.006.847.019 1.206.024.346.055.588.093.724l1.113.278-.056.668H18.59l-.056-.668 1.02-.278a6.886 6.886 0 00.056-.928c.013-.235.02-.526.02-.872l-.02-2.041c0-.532-.086-.959-.26-1.28-.16-.322-.377-.557-.649-.706a1.794 1.794 0 00-.872-.222c-.383 0-.742.093-1.076.278-.334.186-.63.476-.89.872v2.783c0 .57.006 1.033.018 1.392.025.346.05.588.074.724l1.095.278-.056.668h-3.748zm10.465 0l-.056-.668 1.058-.278c.012-.1.019-.223.019-.371a17.015 17.015 0 00.056-1.429V54.23c0-.544-.093-.977-.28-1.298a1.756 1.756 0 00-.704-.706 1.725 1.725 0 00-.835-.222c-.42 0-.81.105-1.169.315-.359.21-.68.532-.965.965l-.352-.686c.433-.594.89-1.027 1.373-1.3a3.081 3.081 0 011.558-.426c.52 0 .99.124 1.41.371.42.248.755.606 1.002 1.076.248.47.371 1.04.371 1.707v2.097c0 .445.007.847.019 1.206.025.346.05.588.074.724l1.15.278-.037.668H23.71zm4.75 4.082l-.037-.668 1.15-.278v-.334a18.306 18.306 0 00.056-1.484 34.2 34.2 0 00.019-1.207l.037-4.583c0-.37-.019-.748-.056-1.131a10.547 10.547 0 00-.093-.928l-1.187-.26v-.612l2.486-.687.316.297-.093 1.02h.055c.347-.445.724-.779 1.132-1.001.42-.235.872-.353 1.355-.353.68 0 1.28.173 1.8.52.531.334.946.797 1.243 1.391.309.582.464 1.256.464 2.023 0 .816-.186 1.552-.557 2.208a4.18 4.18 0 01-1.522 1.558c-.63.371-1.348.557-2.152.557-.297 0-.606-.031-.928-.093a6.071 6.071 0 01-.853-.222v1.391c0 .47.006.866.018 1.188l.056.742 1.522.241-.038.705H28.46zm4.472-4.861c.495 0 .927-.118 1.299-.353.383-.235.68-.581.89-1.039.223-.458.34-1.014.353-1.67.012-.594-.087-1.12-.297-1.577a2.477 2.477 0 00-.854-1.076 2 2 0 00-1.243-.408 2.18 2.18 0 00-1.076.278 2.811 2.811 0 00-.91.78v4.49c.248.185.533.327.854.426.322.1.65.149.984.149zm5.473.779l-.037-.687 1.206-.26a4.51 4.51 0 00.056-.612c.012-.284.019-.661.019-1.131.012-.47.018-1.046.018-1.726v-2.32c0-.47-.006-.952-.018-1.447 0-.494-.007-.958-.019-1.391 0-.446-.006-.823-.019-1.132 0-.322-.006-.532-.018-.63l-1.373-.187-.037-.593 2.653-.761.353.26-.038 1.558-.037 1.726v2.282l-.018 2.988c0 .73.006 1.391.018 1.985.025.581.05.959.075 1.132l1.206.26-.038.686h-3.952zm4.973 0l-.037-.687 1.243-.26c.012-.049.019-.135.019-.26.012-.123.024-.32.037-.593.012-.272.018-.65.018-1.132v-1.224c0-.507-.012-.971-.037-1.392-.025-.42-.055-.748-.093-.983l-1.243-.26v-.612l2.635-.687.278.26c-.037.383-.068.76-.092 1.132a39.49 39.49 0 00-.019 1.299v2.337c0 .57.006 1.04.019 1.41.024.372.05.607.074.706l1.243.26-.037.686h-4.008zm2.004-10.187c-.31 0-.581-.105-.816-.315a1.029 1.029 0 01-.334-.78c0-.309.11-.568.334-.779.235-.21.507-.315.816-.315a1.081 1.081 0 011.113 1.095 1.081 1.081 0 01-1.113 1.095zM48.462 59l-.037-.668 1.15-.278c.013-.136.019-.31.019-.52.012-.21.018-.495.018-.853v-6.328c0-.952.192-1.744.576-2.375a3.809 3.809 0 011.558-1.447 4.78 4.78 0 012.134-.482c.804 0 1.447.16 1.93.482.482.31.723.668.723 1.076 0 .235-.068.421-.204.557-.136.136-.328.204-.575.204-.198 0-.383-.037-.557-.111-.16-.087-.352-.248-.575-.483l-1.224-1.224 1.039.315a2.873 2.873 0 00-1.652.149c-.52.198-.94.544-1.261 1.039-.322.495-.483 1.144-.483 1.948V56.273a172.544 172.544 0 00.074 1.78l1.243.279-.055.668h-3.841zm5.047 0l-.037-.687 1.243-.26a8.299 8.299 0 00.056-1.002c.012-.247.018-.574.018-.983v-1.633a21.002 21.002 0 00-.111-2.45h-6.402v-.611l1.336-.334.965.019h4.25c.234 0 .476-.007.723-.019l.742-.037-.037 1.169c-.012.383-.019.86-.019 1.429v3.321c.013.284.025.52.038.705l.055.427 1.243.26-.055.686h-4.008zm9.092.148c-.718 0-1.367-.16-1.948-.482a3.658 3.658 0 01-1.374-1.373c-.334-.606-.5-1.317-.5-2.134 0-.878.179-1.639.537-2.282.36-.643.83-1.138 1.41-1.484a3.383 3.383 0 011.875-.52c.965.012 1.72.334 2.263.965.545.63.817 1.521.817 2.672v.334h-5.697v-.817h4.472l-.204.242v-.39c0-.718-.16-1.268-.482-1.651-.322-.384-.761-.576-1.318-.576-.346 0-.68.105-1.002.316-.321.198-.581.507-.779.927-.198.409-.297.928-.297 1.56v.222c0 1.014.247 1.806.742 2.375.508.569 1.157.853 1.949.853.433 0 .822-.086 1.169-.26.346-.173.68-.451 1.002-.835l.463.427c-.346.643-.785 1.126-1.317 1.448a3.48 3.48 0 01-1.781.463zm10.854.056l-.278-.241.018-1.206-.055-.019c-.371.52-.755.885-1.15 1.095-.384.21-.792.315-1.225.315-.705 0-1.336-.16-1.893-.482a3.651 3.651 0 01-1.299-1.373c-.321-.581-.482-1.25-.482-2.004 0-.656.111-1.256.334-1.8a4.177 4.177 0 012.245-2.3 3.9 3.9 0 011.54-.316c.346 0 .699.043 1.058.13.358.087.662.223.909.408 0-.223-.006-.513-.019-.872 0-.359-.006-.73-.018-1.113 0-.396-.006-.742-.019-1.04 0-.309-.006-.519-.018-.63l-1.448-.26-.037-.612 2.728-.761.334.26a131.12 131.12 0 00-.074 4.472l-.019 4.267c0 .63.012 1.175.037 1.633.037.445.062.76.074.946l1.188.297v.612l-2.43.594zm-2.226-1.299c.358 0 .692-.074 1.002-.222.309-.161.624-.44.946-.835v-3.99c-.235-.42-.532-.717-.89-.89a2.457 2.457 0 00-1.077-.26c-.78 0-1.391.29-1.837.872-.433.57-.65 1.311-.65 2.227 0 .977.242 1.738.724 2.282.495.544 1.089.816 1.782.816zm7.292 1.28c-.334 0-.613-.105-.835-.315a1.11 1.11 0 01-.334-.816c0-.223.05-.415.148-.576.1-.173.235-.309.408-.408.186-.099.39-.148.613-.148.334 0 .612.111.835.334.222.21.334.476.334.798 0 .321-.112.593-.334.816-.223.21-.501.316-.835.316zM2.87 81.11c-.327 0-.63-.077-.91-.23a1.843 1.843 0 01-.67-.65 1.714 1.714 0 01-.25-.91c0-.307.077-.597.23-.87.16-.273.377-.493.65-.66.28-.173.597-.26.95-.26.327 0 .627.08.9.24.273.153.493.363.66.63.173.267.26.573.26.92 0 .327-.083.627-.25.9-.16.273-.38.49-.66.65-.273.16-.577.24-.91.24zm8.273.97c-.567 0-1.06-.073-1.48-.22a3.622 3.622 0 01-1.13-.66l.21-.36c.246.193.483.353.71.48.226.12.473.21.74.27.273.053.587.08.94.08.653 0 1.147-.13 1.48-.39.34-.267.51-.62.51-1.06 0-.373-.12-.66-.36-.86-.233-.2-.637-.357-1.21-.47l-.99-.2c-.647-.133-1.127-.343-1.44-.63-.314-.287-.47-.683-.47-1.19 0-.4.103-.75.31-1.05.206-.3.493-.533.86-.7.367-.167.793-.25 1.28-.25a3.8 3.8 0 011.35.23c.407.153.757.383 1.05.69l-.2.36a3.062 3.062 0 00-1.01-.67 3.299 3.299 0 00-1.19-.2c-.614 0-1.104.143-1.47.43-.36.287-.54.673-.54 1.16 0 .393.116.7.35.92.233.213.61.373 1.13.48l1 .2c.693.14 1.197.343 1.51.61.32.26.48.637.48 1.13 0 .367-.097.693-.29.98-.194.28-.473.5-.84.66-.36.153-.79.23-1.29.23zm5.255 0c-.407 0-.72-.127-.94-.38-.214-.26-.32-.653-.32-1.18v-3.16h-1V77h1v-1.43l.42-.16V77h1.52v.36h-1.52v3.07c0 .44.066.76.2.96.14.2.363.3.67.3a1.485 1.485 0 00.63-.13v.4c-.074.033-.174.06-.3.08-.12.027-.24.04-.36.04zM18.16 82v-3.86c0-.187-.007-.377-.02-.57a7.872 7.872 0 00-.04-.57h.41l.06 1.09-.09.01c.067-.267.187-.487.36-.66a1.8 1.8 0 01.61-.39 1.972 1.972 0 01.92-.12c.08.007.153.02.22.04l-.02.39a1.078 1.078 0 00-.22-.04 2.649 2.649 0 00-.24-.01c-.307 0-.577.08-.81.24a1.635 1.635 0 00-.53.58c-.127.227-.19.45-.19.67V82h-.42zm5.39.08c-.733 0-1.316-.223-1.75-.67-.433-.453-.65-1.083-.65-1.89 0-.533.097-.993.29-1.38.194-.387.464-.687.81-.9.354-.213.757-.32 1.21-.32.434 0 .8.093 1.1.28.307.18.54.443.7.79.167.34.25.747.25 1.22v.27h-4.09v-.38h3.87l-.17.13c0-.6-.14-1.07-.42-1.41-.28-.347-.696-.52-1.25-.52-.586 0-1.046.2-1.38.6-.326.4-.49.923-.49 1.57v.05c0 .707.174 1.247.52 1.62.347.367.83.55 1.45.55.314 0 .607-.05.88-.15.274-.1.537-.27.79-.51l.21.33c-.206.227-.48.403-.82.53-.34.127-.693.19-1.06.19zm5.23 0c-.453 0-.846-.103-1.18-.31a2.018 2.018 0 01-.77-.89c-.18-.387-.27-.847-.27-1.38 0-.54.09-1 .27-1.38.187-.387.447-.683.78-.89.334-.207.724-.31 1.17-.31.474 0 .877.123 1.21.37.34.247.564.587.67 1.02h-.12l.1-1.31h.41l-.06.55c-.013.18-.02.357-.02.53V82h-.42v-1.31h.11c-.106.433-.33.773-.67 1.02s-.743.37-1.21.37zm0-.39c.547 0 .98-.187 1.3-.56.32-.38.48-.923.48-1.63 0-.707-.16-1.247-.48-1.62-.32-.38-.753-.57-1.3-.57-.546 0-.983.19-1.31.57-.32.373-.48.913-.48 1.62 0 .707.16 1.25.48 1.63.327.373.764.56 1.31.56zm3.95.31v-3.92c0-.173-.01-.35-.03-.53a16.76 16.76 0 00-.05-.55h.41l.09 1.2h-.12c.127-.413.337-.73.63-.95.294-.22.65-.33 1.07-.33.44 0 .794.107 1.06.32.267.207.44.53.52.97h-.14c.114-.393.327-.707.64-.94.32-.233.704-.35 1.15-.35.534 0 .94.153 1.22.46.28.307.42.787.42 1.44V82h-.42v-3.14c0-.54-.096-.933-.29-1.18-.193-.247-.506-.37-.94-.37-.486 0-.873.163-1.16.49-.28.327-.42.767-.42 1.32V82h-.42v-3.14c0-.54-.096-.933-.29-1.18-.193-.247-.506-.37-.94-.37-.486 0-.87.163-1.15.49-.28.327-.42.767-.42 1.32V82h-.42zm8.604 0v-7.36h.42V82h-.42zm2.178 0v-5h.42v5h-.42zm-.11-6.31v-.63h.64v.63h-.64zM45.69 82v-3.92c0-.173-.01-.35-.03-.53a16.76 16.76 0 00-.05-.55h.41l.09 1.2h-.12c.14-.42.373-.737.7-.95.333-.22.723-.33 1.17-.33.593 0 1.04.153 1.34.46.306.307.46.787.46 1.44V82h-.42v-3.14c0-.54-.11-.933-.33-1.18-.22-.247-.567-.37-1.04-.37-.54 0-.97.163-1.29.49-.314.327-.47.767-.47 1.32V82h-.42zm7.763.08c-.734 0-1.317-.223-1.75-.67-.434-.453-.65-1.083-.65-1.89 0-.533.097-.993.29-1.38.193-.387.463-.687.81-.9.353-.213.757-.32 1.21-.32.433 0 .8.093 1.1.28.306.18.54.443.7.79.167.34.25.747.25 1.22v.27h-4.09v-.38h3.87l-.17.13c0-.6-.14-1.07-.42-1.41-.28-.347-.697-.52-1.25-.52-.587 0-1.047.2-1.38.6-.327.4-.49.923-.49 1.57v.05c0 .707.173 1.247.52 1.62.346.367.83.55 1.45.55.313 0 .606-.05.88-.15.273-.1.537-.27.79-.51l.21.33c-.207.227-.48.403-.82.53-.34.127-.694.19-1.06.19zm5.65-3.61c0-.747.12-1.387.36-1.92.247-.54.6-.953 1.06-1.24.467-.293 1.03-.44 1.69-.44.64 0 1.193.147 1.66.44.467.287.827.7 1.08 1.24.253.533.38 1.17.38 1.91 0 .747-.13 1.39-.39 1.93-.253.54-.613.957-1.08 1.25-.467.293-1.017.44-1.65.44-.653 0-1.213-.147-1.68-.44-.46-.293-.813-.71-1.06-1.25-.247-.54-.37-1.18-.37-1.92zm.45 0c0 1.007.227 1.793.68 2.36.453.56 1.113.84 1.98.84.833 0 1.487-.28 1.96-.84.473-.56.71-1.347.71-2.36s-.237-1.797-.71-2.35c-.467-.56-1.12-.84-1.96-.84-.867 0-1.527.28-1.98.84-.453.553-.68 1.337-.68 2.35zM66.871 82v-3.86c0-.187-.007-.377-.02-.57a7.93 7.93 0 00-.04-.57h.41l.06 1.09-.09.01c.066-.267.186-.487.36-.66a1.8 1.8 0 01.61-.39 1.971 1.971 0 01.92-.12c.08.007.153.02.22.04l-.02.39a1.08 1.08 0 00-.22-.04 2.652 2.652 0 00-.24-.01c-.307 0-.577.08-.81.24a1.633 1.633 0 00-.53.58c-.127.227-.19.45-.19.67V82h-.42zm3.38 0v-5h.42v5h-.42zm-.11-6.31v-.63h.64v.63h-.64zm4.387 8.54c-.407 0-.79-.06-1.15-.18a2.919 2.919 0 01-.96-.52l.2-.34c.22.16.427.287.62.38.193.093.393.16.6.2.213.047.447.07.7.07.52 0 .913-.143 1.18-.43.273-.28.41-.683.41-1.21v-1.71h.11c-.107.44-.333.783-.68 1.03-.34.247-.747.37-1.22.37-.46 0-.86-.1-1.2-.3a2.105 2.105 0 01-.78-.87c-.18-.373-.27-.813-.27-1.32 0-.507.09-.943.27-1.31.187-.373.447-.66.78-.86.34-.207.74-.31 1.2-.31.473 0 .88.123 1.22.37.347.247.573.593.68 1.04l-.11-.13.09-1.2h.41l-.06.55c-.013.18-.02.357-.02.53v4.05c0 .693-.17 1.217-.51 1.57-.34.353-.843.53-1.51.53zm-.2-2.73c.553 0 .99-.183 1.31-.55.327-.373.49-.89.49-1.55s-.163-1.173-.49-1.54c-.32-.367-.757-.55-1.31-.55s-.993.183-1.32.55c-.327.367-.49.88-.49 1.54s.163 1.177.49 1.55c.327.367.767.55 1.32.55zm3.97.5v-5h.42v5h-.42zm-.11-6.31v-.63h.64v.63h-.64zM80.474 82v-3.92c0-.173-.01-.35-.03-.53a16.76 16.76 0 00-.05-.55h.41l.09 1.2h-.12c.14-.42.373-.737.7-.95.333-.22.723-.33 1.17-.33.593 0 1.04.153 1.34.46.306.307.46.787.46 1.44V82h-.42v-3.14c0-.54-.11-.933-.33-1.18-.22-.247-.567-.37-1.04-.37-.54 0-.97.163-1.29.49-.313.327-.47.767-.47 1.32V82h-.42zm7.583.08c-.453 0-.847-.103-1.18-.31a2.018 2.018 0 01-.77-.89c-.18-.387-.27-.847-.27-1.38 0-.54.09-1 .27-1.38a2.08 2.08 0 01.78-.89c.333-.207.723-.31 1.17-.31.473 0 .877.123 1.21.37.34.247.563.587.67 1.02h-.12l.1-1.31h.41l-.06.55c-.013.18-.02.357-.02.53V82h-.42v-1.31h.11c-.107.433-.33.773-.67 1.02s-.743.37-1.21.37zm0-.39c.547 0 .98-.187 1.3-.56.32-.38.48-.923.48-1.63 0-.707-.16-1.247-.48-1.62-.32-.38-.753-.57-1.3-.57s-.983.19-1.31.57c-.32.373-.48.913-.48 1.62 0 .707.16 1.25.48 1.63.327.373.763.56 1.31.56zm5.41.39c-.407 0-.72-.127-.94-.38-.213-.26-.32-.653-.32-1.18v-3.16h-1V77h1v-1.43l.42-.16V77h1.52v.36h-1.52v3.07c0 .44.067.76.2.96.14.2.363.3.67.3a1.486 1.486 0 00.63-.13v.4c-.073.033-.173.06-.3.08-.12.027-.24.04-.36.04zM95.25 82v-5h.42v5h-.42zm-.11-6.31v-.63h.64v.63h-.64zm4.168 6.39c-.453 0-.847-.103-1.18-.31a2.018 2.018 0 01-.77-.89c-.18-.387-.27-.847-.27-1.38 0-.533.09-.993.27-1.38.18-.387.437-.683.77-.89.333-.207.727-.31 1.18-.31.453 0 .847.103 1.18.31.333.207.59.503.77.89.187.387.28.847.28 1.38 0 .533-.093.993-.28 1.38a2.02 2.02 0 01-.77.89c-.333.207-.727.31-1.18.31zm0-.39c.547 0 .983-.187 1.31-.56.327-.38.49-.923.49-1.63 0-.707-.163-1.247-.49-1.62-.327-.38-.763-.57-1.31-.57s-.983.19-1.31.57c-.32.373-.48.913-.48 1.62 0 .707.16 1.25.48 1.63.327.373.763.56 1.31.56zm3.647.31v-3.92c0-.173-.01-.35-.03-.53-.013-.18-.03-.363-.05-.55h.41l.09 1.2h-.12c.14-.42.374-.737.7-.95.334-.22.724-.33 1.17-.33.594 0 1.04.153 1.34.46.307.307.46.787.46 1.44V82h-.42v-3.14c0-.54-.11-.933-.33-1.18-.22-.247-.566-.37-1.04-.37-.54 0-.97.163-1.29.49-.313.327-.47.767-.47 1.32V82h-.42zM2.87 94.11c-.327 0-.63-.077-.91-.23a1.843 1.843 0 01-.67-.65 1.714 1.714 0 01-.25-.91c0-.307.077-.597.23-.87.16-.273.377-.493.65-.66.28-.173.597-.26.95-.26.327 0 .627.08.9.24.273.153.493.363.66.63.173.267.26.573.26.92 0 .327-.083.627-.25.9-.16.273-.38.49-.66.65-.273.16-.577.24-.91.24zm5.483.89l3.03-7.05h.41l3.09 7.05h-.46l-.89-2.04.23.09h-4.37l.28-.09-.87 2.04h-.45zm3.22-6.49l-1.79 4.21-.22-.06h4.03l-.16.06-1.84-4.21h-.02zm6.267 6.57c-.58 0-1.02-.157-1.32-.47-.3-.313-.45-.793-.45-1.44V90h.42v3.13c0 .54.11.937.33 1.19.22.247.56.37 1.02.37.513 0 .923-.163 1.23-.49.306-.333.46-.773.46-1.32V90h.42v5h-.41v-1.22h.12a1.8 1.8 0 01-.69.96c-.32.227-.697.34-1.13.34zm5.325 0c-.406 0-.72-.127-.94-.38-.213-.26-.32-.653-.32-1.18v-3.16h-1V90h1v-1.43l.42-.16V90h1.52v.36h-1.52v3.07c0 .44.067.76.2.96.14.2.364.3.67.3a1.485 1.485 0 00.63-.13v.4c-.073.033-.173.06-.3.08-.12.027-.24.04-.36.04zm3.614 0c-.454 0-.847-.103-1.18-.31a2.018 2.018 0 01-.77-.89c-.18-.387-.27-.847-.27-1.38 0-.533.09-.993.27-1.38.18-.387.436-.683.77-.89.333-.207.726-.31 1.18-.31.453 0 .846.103 1.18.31.333.207.59.503.77.89.186.387.28.847.28 1.38 0 .533-.094.993-.28 1.38-.18.387-.437.683-.77.89-.334.207-.727.31-1.18.31zm0-.39c.546 0 .983-.187 1.31-.56.326-.38.49-.923.49-1.63 0-.707-.164-1.247-.49-1.62-.327-.38-.764-.57-1.31-.57-.547 0-.984.19-1.31.57-.32.373-.48.913-.48 1.62 0 .707.16 1.25.48 1.63.326.373.763.56 1.31.56zm3.647.31v-3.92c0-.173-.01-.35-.03-.53a16.76 16.76 0 00-.05-.55h.41l.09 1.2h-.12c.127-.413.337-.73.63-.95.293-.22.65-.33 1.07-.33.44 0 .793.107 1.06.32.267.207.44.53.52.97h-.14c.113-.393.327-.707.64-.94.32-.233.703-.35 1.15-.35.533 0 .94.153 1.22.46.28.307.42.787.42 1.44V95h-.42v-3.14c0-.54-.097-.933-.29-1.18-.193-.247-.507-.37-.94-.37-.487 0-.873.163-1.16.49-.28.327-.42.767-.42 1.32V95h-.42v-3.14c0-.54-.097-.933-.29-1.18-.193-.247-.507-.37-.94-.37-.487 0-.87.163-1.15.49-.28.327-.42.767-.42 1.32V95h-.42zm10.484.08c-.454 0-.847-.103-1.18-.31a2.018 2.018 0 01-.77-.89c-.18-.387-.27-.847-.27-1.38 0-.54.09-1 .27-1.38.186-.387.446-.683.78-.89.333-.207.723-.31 1.17-.31.473 0 .876.123 1.21.37.34.247.563.587.67 1.02h-.12l.1-1.31h.41l-.06.55c-.014.18-.02.357-.02.53V95h-.42v-1.31h.11c-.107.433-.33.773-.67 1.02s-.744.37-1.21.37zm0-.39c.546 0 .98-.187 1.3-.56.32-.38.48-.923.48-1.63 0-.707-.16-1.247-.48-1.62-.32-.38-.754-.57-1.3-.57-.547 0-.984.19-1.31.57-.32.373-.48.913-.48 1.62 0 .707.16 1.25.48 1.63.326.373.763.56 1.31.56zm5.41.39c-.407 0-.72-.127-.94-.38-.214-.26-.32-.653-.32-1.18v-3.16h-1V90h1v-1.43l.42-.16V90H47v.36h-1.52v3.07c0 .44.066.76.2.96.14.2.363.3.67.3a1.486 1.486 0 00.63-.13v.4c-.074.033-.174.06-.3.08-.12.027-.24.04-.36.04zm3.793 0c-.733 0-1.317-.223-1.75-.67-.433-.453-.65-1.083-.65-1.89 0-.533.097-.993.29-1.38.193-.387.463-.687.81-.9.353-.213.757-.32 1.21-.32.433 0 .8.093 1.1.28.307.18.54.443.7.79.167.34.25.747.25 1.22v.27h-4.09v-.38h3.87l-.17.13c0-.6-.14-1.07-.42-1.41-.28-.347-.697-.52-1.25-.52-.587 0-1.047.2-1.38.6-.327.4-.49.923-.49 1.57v.05c0 .707.173 1.247.52 1.62.347.367.83.55 1.45.55.313 0 .607-.05.88-.15.273-.1.537-.27.79-.51l.21.33c-.207.227-.48.403-.82.53-.34.127-.693.19-1.06.19zm5.65-3.61c0-.747.12-1.387.36-1.92.247-.54.6-.953 1.06-1.24.467-.293 1.03-.44 1.69-.44.64 0 1.194.147 1.66.44.467.287.827.7 1.08 1.24.254.533.38 1.17.38 1.91 0 .747-.13 1.39-.39 1.93-.253.54-.613.957-1.08 1.25-.467.293-1.017.44-1.65.44-.653 0-1.213-.147-1.68-.44-.46-.293-.813-.71-1.06-1.25-.247-.54-.37-1.18-.37-1.92zm.45 0c0 1.007.227 1.793.68 2.36.453.56 1.114.84 1.98.84.834 0 1.487-.28 1.96-.84.474-.56.71-1.347.71-2.36s-.236-1.797-.71-2.35c-.466-.56-1.12-.84-1.96-.84-.866 0-1.526.28-1.98.84-.453.553-.68 1.337-.68 2.35zM63.751 95v-4.64h-1V90h1.1l-.1.11v-.89c0-.513.123-.91.37-1.19.253-.287.61-.43 1.07-.43.113 0 .233.013.36.04.127.02.227.047.3.08v.4a1.544 1.544 0 00-.28-.09 1.566 1.566 0 00-.36-.04c-.233 0-.43.05-.59.15a.879.879 0 00-.34.44c-.073.187-.11.423-.11.71v.85l-.08-.14h1.55v.36h-1.47V95h-.42zm3.008 0v-4.64h-1V90h1.1l-.1.11v-.89c0-.513.123-.91.37-1.19.253-.287.61-.43 1.07-.43.113 0 .233.013.36.04.127.02.227.047.3.08v.4a1.544 1.544 0 00-.28-.09 1.566 1.566 0 00-.36-.04c-.233 0-.43.05-.59.15a.879.879 0 00-.34.44c-.073.187-.11.423-.11.71v.85l-.08-.14h1.55v.36h-1.47V95h-.42zm4.819.08c-.734 0-1.317-.223-1.75-.67-.434-.453-.65-1.083-.65-1.89 0-.533.097-.993.29-1.38.193-.387.463-.687.81-.9.353-.213.756-.32 1.21-.32.433 0 .8.093 1.1.28.306.18.54.443.7.79.166.34.25.747.25 1.22v.27h-4.09v-.38h3.87l-.17.13c0-.6-.14-1.07-.42-1.41-.28-.347-.697-.52-1.25-.52-.587 0-1.047.2-1.38.6-.327.4-.49.923-.49 1.57v.05c0 .707.173 1.247.52 1.62.347.367.83.55 1.45.55.313 0 .606-.05.88-.15.273-.1.537-.27.79-.51l.21.33c-.207.227-.48.403-.82.53-.34.127-.694.19-1.06.19zm3.33-.08v-3.86c0-.187-.007-.377-.02-.57a7.93 7.93 0 00-.04-.57h.41l.06 1.09-.09.01c.067-.267.187-.487.36-.66a1.8 1.8 0 01.61-.39 1.971 1.971 0 01.92-.12c.08.007.153.02.22.04l-.02.39a1.08 1.08 0 00-.22-.04 2.652 2.652 0 00-.24-.01c-.307 0-.577.08-.81.24a1.633 1.633 0 00-.53.58c-.127.227-.19.45-.19.67V95h-.42zm5.97 0v-7.05h.37l3.04 6.88h-.28l3.05-6.88h.36V95h-.39v-6.64h.24L84.327 95h-.35l-2.95-6.65h.24V95h-.39zm10.266.08c-.453 0-.847-.103-1.18-.31a2.018 2.018 0 01-.77-.89c-.18-.387-.27-.847-.27-1.38 0-.54.09-1 .27-1.38.187-.387.447-.683.78-.89.333-.207.723-.31 1.17-.31.473 0 .877.123 1.21.37.34.247.563.587.67 1.02h-.12l.1-1.31h.41l-.06.55c-.013.18-.02.357-.02.53V95h-.42v-1.31h.11c-.107.433-.33.773-.67 1.02s-.743.37-1.21.37zm0-.39c.547 0 .98-.187 1.3-.56.32-.38.48-.923.48-1.63 0-.707-.16-1.247-.48-1.62-.32-.38-.753-.57-1.3-.57s-.983.19-1.31.57c-.32.373-.48.913-.48 1.62 0 .707.16 1.25.48 1.63.327.373.763.56 1.31.56zm3.95.31v-3.92c0-.173-.01-.35-.03-.53a16.76 16.76 0 00-.05-.55h.41l.09 1.2h-.12c.14-.42.373-.737.7-.95.333-.22.723-.33 1.17-.33.593 0 1.04.153 1.34.46.307.307.46.787.46 1.44V95h-.42v-3.14c0-.54-.11-.933-.33-1.18-.22-.247-.567-.37-1.04-.37-.54 0-.97.163-1.29.49-.313.327-.47.767-.47 1.32V95h-.42zm7.583.08c-.453 0-.847-.103-1.18-.31a2.02 2.02 0 01-.77-.89c-.18-.387-.27-.847-.27-1.38 0-.54.09-1 .27-1.38.187-.387.447-.683.78-.89.333-.207.723-.31 1.17-.31.473 0 .877.123 1.21.37.34.247.563.587.67 1.02h-.12l.1-1.31h.41l-.06.55c-.013.18-.02.357-.02.53V95h-.42v-1.31h.11c-.107.433-.33.773-.67 1.02s-.743.37-1.21.37zm0-.39c.547 0 .98-.187 1.3-.56.32-.38.48-.923.48-1.63 0-.707-.16-1.247-.48-1.62-.32-.38-.753-.57-1.3-.57s-.983.19-1.31.57c-.32.373-.48.913-.48 1.62 0 .707.16 1.25.48 1.63.327.373.763.56 1.31.56zm6.05 2.54c-.406 0-.79-.06-1.15-.18a2.927 2.927 0 01-.96-.52l.2-.34c.22.16.427.287.62.38.194.093.394.16.6.2.214.047.447.07.7.07.52 0 .914-.143 1.18-.43.274-.28.41-.683.41-1.21v-1.71h.11c-.106.44-.333.783-.68 1.03-.34.247-.746.37-1.22.37-.46 0-.86-.1-1.2-.3a2.11 2.11 0 01-.78-.87c-.18-.373-.27-.813-.27-1.32 0-.507.09-.943.27-1.31.187-.373.447-.66.78-.86.34-.207.74-.31 1.2-.31.474 0 .88.123 1.22.37.347.247.574.593.68 1.04l-.11-.13.09-1.2h.41l-.06.55c-.013.18-.02.357-.02.53v4.05c0 .693-.17 1.217-.51 1.57-.34.353-.843.53-1.51.53zm-.2-2.73c.554 0 .99-.183 1.31-.55.327-.373.49-.89.49-1.55s-.163-1.173-.49-1.54c-.32-.367-.756-.55-1.31-.55-.553 0-.993.183-1.32.55-.326.367-.49.88-.49 1.54s.164 1.177.49 1.55c.327.367.767.55 1.32.55zm6.029.58c-.733 0-1.316-.223-1.75-.67-.433-.453-.65-1.083-.65-1.89 0-.533.097-.993.29-1.38.194-.387.464-.687.81-.9.354-.213.757-.32 1.21-.32.434 0 .8.093 1.1.28.307.18.54.443.7.79.167.34.25.747.25 1.22v.27h-4.09v-.38h3.87l-.17.13c0-.6-.14-1.07-.42-1.41-.28-.347-.696-.52-1.25-.52-.586 0-1.046.2-1.38.6-.326.4-.49.923-.49 1.57v.05c0 .707.174 1.247.52 1.62.347.367.83.55 1.45.55.314 0 .607-.05.88-.15.274-.1.537-.27.79-.51l.21.33c-.206.227-.48.403-.82.53a3.01 3.01 0 01-1.06.19zm3.35-.08v-3.92c0-.173-.01-.35-.03-.53-.013-.18-.03-.363-.05-.55h.41l.09 1.2h-.12c.127-.413.337-.73.63-.95.294-.22.65-.33 1.07-.33.44 0 .794.107 1.06.32.267.207.44.53.52.97h-.14c.114-.393.327-.707.64-.94.32-.233.704-.35 1.15-.35.534 0 .94.153 1.22.46.28.307.42.787.42 1.44V95h-.42v-3.14c0-.54-.096-.933-.29-1.18-.193-.247-.506-.37-.94-.37-.486 0-.873.163-1.16.49-.28.327-.42.767-.42 1.32V95h-.42v-3.14c0-.54-.096-.933-.29-1.18-.193-.247-.506-.37-.94-.37-.486 0-.87.163-1.15.49-.28.327-.42.767-.42 1.32V95h-.42zm10.664.08c-.733 0-1.317-.223-1.75-.67-.433-.453-.65-1.083-.65-1.89 0-.533.097-.993.29-1.38.193-.387.463-.687.81-.9.353-.213.757-.32 1.21-.32.433 0 .8.093 1.1.28.307.18.54.443.7.79.167.34.25.747.25 1.22v.27h-4.09v-.38h3.87l-.17.13c0-.6-.14-1.07-.42-1.41-.28-.347-.697-.52-1.25-.52-.587 0-1.047.2-1.38.6-.327.4-.49.923-.49 1.57v.05c0 .707.173 1.247.52 1.62.347.367.83.55 1.45.55.313 0 .607-.05.88-.15.273-.1.537-.27.79-.51l.21.33a2.06 2.06 0 01-.82.53 3.01 3.01 0 01-1.06.19zm3.35-.08v-3.92c0-.173-.01-.35-.03-.53-.013-.18-.03-.363-.05-.55h.41l.09 1.2h-.12c.14-.42.373-.737.7-.95.333-.22.723-.33 1.17-.33.593 0 1.04.153 1.34.46.307.307.46.787.46 1.44V95h-.42v-3.14c0-.54-.11-.933-.33-1.18-.22-.247-.567-.37-1.04-.37-.54 0-.97.163-1.29.49-.313.327-.47.767-.47 1.32V95h-.42zm7.163.08c-.406 0-.72-.127-.94-.38-.213-.26-.32-.653-.32-1.18v-3.16h-1V90h1v-1.43l.42-.16V90h1.52v.36h-1.52v3.07c0 .44.067.76.2.96.14.2.364.3.67.3a1.478 1.478 0 00.63-.13v.4a1.19 1.19 0 01-.3.08c-.12.027-.24.04-.36.04zM2.87 107.11c-.327 0-.63-.077-.91-.23a1.845 1.845 0 01-.67-.65 1.714 1.714 0 01-.25-.91c0-.307.077-.597.23-.87.16-.273.377-.493.65-.66.28-.173.597-.26.95-.26.327 0 .627.08.9.24.273.153.493.363.66.63.173.267.26.573.26.92 0 .327-.083.627-.25.9-.16.273-.38.49-.66.65-.273.16-.577.24-.91.24zm6.113.89v-7.05h.42V108h-.42zm2.273 0v-3.92c0-.173-.01-.35-.03-.53-.013-.18-.03-.363-.05-.55h.41l.09 1.2h-.12c.14-.42.373-.737.7-.95.333-.22.723-.33 1.17-.33.593 0 1.04.153 1.34.46.307.307.46.787.46 1.44V108h-.42v-3.14c0-.54-.11-.933-.33-1.18-.22-.247-.567-.37-1.04-.37-.54 0-.97.163-1.29.49-.313.327-.47.767-.47 1.32V108h-.42zm7.163.08c-.406 0-.72-.127-.94-.38-.213-.26-.32-.653-.32-1.18v-3.16h-1V103h1v-1.43l.42-.16V103h1.52v.36h-1.52v3.07c0 .44.067.76.2.96.14.2.364.3.67.3.134 0 .254-.013.36-.04.107-.027.197-.057.27-.09v.4a1.21 1.21 0 01-.3.08c-.12.027-.24.04-.36.04zm3.794 0c-.734 0-1.317-.223-1.75-.67-.434-.453-.65-1.083-.65-1.89 0-.533.096-.993.29-1.38.193-.387.463-.687.81-.9.353-.213.756-.32 1.21-.32.433 0 .8.093 1.1.28.306.18.54.443.7.79.166.34.25.747.25 1.22v.27h-4.09v-.38h3.87l-.17.13c0-.6-.14-1.07-.42-1.41-.28-.347-.697-.52-1.25-.52-.587 0-1.047.2-1.38.6-.327.4-.49.923-.49 1.57v.05c0 .707.173 1.247.52 1.62.346.367.83.55 1.45.55.313 0 .606-.05.88-.15.273-.1.536-.27.79-.51l.21.33c-.207.227-.48.403-.82.53-.34.127-.694.19-1.06.19zm5.45 2.15c-.407 0-.79-.06-1.15-.18a2.921 2.921 0 01-.96-.52l.2-.34c.22.16.426.287.62.38.193.093.393.16.6.2.213.047.446.07.7.07.52 0 .913-.143 1.18-.43.273-.28.41-.683.41-1.21v-1.71h.11c-.107.44-.334.783-.68 1.03-.34.247-.747.37-1.22.37-.46 0-.86-.1-1.2-.3a2.11 2.11 0 01-.78-.87c-.18-.373-.27-.813-.27-1.32 0-.507.09-.943.27-1.31a2.04 2.04 0 01.78-.86c.34-.207.74-.31 1.2-.31.473 0 .88.123 1.22.37.346.247.573.593.68 1.04l-.11-.13.09-1.2h.41l-.06.55a7.2 7.2 0 00-.02.53v4.05c0 .693-.17 1.217-.51 1.57-.34.353-.844.53-1.51.53zm-.2-2.73c.553 0 .99-.183 1.31-.55.326-.373.49-.89.49-1.55s-.164-1.173-.49-1.54c-.32-.367-.757-.55-1.31-.55-.554 0-.994.183-1.32.55-.327.367-.49.88-.49 1.54s.163 1.177.49 1.55c.326.367.766.55 1.32.55zm3.949.5v-3.86c0-.187-.007-.377-.02-.57a7.954 7.954 0 00-.04-.57h.41l.06 1.09-.09.01c.067-.267.187-.487.36-.66.18-.173.383-.303.61-.39a1.965 1.965 0 01.92-.12c.08.007.153.02.22.04l-.02.39a1.1 1.1 0 00-.22-.04 2.547 2.547 0 00-.24-.01c-.307 0-.577.08-.81.24a1.633 1.633 0 00-.53.58c-.127.227-.19.45-.19.67v3.2h-.42zm5.21.08c-.453 0-.846-.103-1.18-.31a2.018 2.018 0 01-.77-.89c-.18-.387-.27-.847-.27-1.38 0-.54.09-1 .27-1.38.187-.387.447-.683.78-.89.334-.207.724-.31 1.17-.31.474 0 .877.123 1.21.37.34.247.564.587.67 1.02h-.12l.1-1.31h.41l-.06.55a7.2 7.2 0 00-.02.53V108h-.42v-1.31h.11c-.106.433-.33.773-.67 1.02s-.743.37-1.21.37zm0-.39c.547 0 .98-.187 1.3-.56.32-.38.48-.923.48-1.63 0-.707-.16-1.247-.48-1.62-.32-.38-.753-.57-1.3-.57-.546 0-.983.19-1.31.57-.32.373-.48.913-.48 1.62 0 .707.16 1.25.48 1.63.327.373.764.56 1.31.56zm5.41.39c-.406 0-.72-.127-.94-.38-.213-.26-.32-.653-.32-1.18v-3.16h-1V103h1v-1.43l.42-.16V103h1.52v.36h-1.52v3.07c0 .44.067.76.2.96.14.2.364.3.67.3.134 0 .254-.013.36-.04.107-.027.197-.057.27-.09v.4a1.21 1.21 0 01-.3.08c-.12.027-.24.04-.36.04zm3.794 0c-.733 0-1.317-.223-1.75-.67-.434-.453-.65-1.083-.65-1.89 0-.533.096-.993.29-1.38.193-.387.463-.687.81-.9.353-.213.756-.32 1.21-.32.433 0 .8.093 1.1.28.306.18.54.443.7.79.166.34.25.747.25 1.22v.27h-4.09v-.38h3.87l-.17.13c0-.6-.14-1.07-.42-1.41-.28-.347-.697-.52-1.25-.52-.587 0-1.047.2-1.38.6-.327.4-.49.923-.49 1.57v.05c0 .707.173 1.247.52 1.62.346.367.83.55 1.45.55.313 0 .606-.05.88-.15.273-.1.536-.27.79-.51l.21.33c-.207.227-.48.403-.82.53-.34.127-.694.19-1.06.19zm5.21 0c-.447 0-.837-.103-1.17-.31a2.04 2.04 0 01-.76-.89c-.18-.387-.27-.847-.27-1.38 0-.54.09-1 .27-1.38a2.04 2.04 0 01.76-.89c.333-.207.723-.31 1.17-.31.473 0 .88.123 1.22.37.34.247.567.587.68 1.02h-.11v-3.67h.42V108h-.42v-1.31h.11a1.77 1.77 0 01-.68 1.02c-.34.247-.747.37-1.22.37zm.01-.39c.54 0 .973-.187 1.3-.56.327-.38.49-.923.49-1.63 0-.707-.163-1.247-.49-1.62-.327-.38-.76-.57-1.3-.57-.547 0-.98.19-1.3.57-.32.373-.48.913-.48 1.62 0 .707.16 1.25.48 1.63.32.373.753.56 1.3.56zm8.3.31v-6.66h-2.62v-.39h5.66v.39h-2.62V108h-.42zm5.367.08c-.734 0-1.317-.223-1.75-.67-.434-.453-.65-1.083-.65-1.89 0-.533.096-.993.29-1.38.193-.387.463-.687.81-.9.353-.213.756-.32 1.21-.32.433 0 .8.093 1.1.28.306.18.54.443.7.79.166.34.25.747.25 1.22v.27h-4.09v-.38h3.87l-.17.13c0-.6-.14-1.07-.42-1.41-.28-.347-.697-.52-1.25-.52-.587 0-1.047.2-1.38.6-.327.4-.49.923-.49 1.57v.05c0 .707.173 1.247.52 1.62.346.367.83.55 1.45.55.313 0 .606-.05.88-.15.273-.1.536-.27.79-.51l.21.33c-.207.227-.48.403-.82.53-.34.127-.694.19-1.06.19zm5.28 0c-.467 0-.87-.103-1.21-.31a2.114 2.114 0 01-.79-.91c-.18-.393-.27-.86-.27-1.4 0-.54.093-1 .28-1.38.186-.38.45-.667.79-.86.34-.2.74-.3 1.2-.3.313 0 .613.063.9.19.293.12.536.29.73.51l-.21.32a1.956 1.956 0 00-1.43-.63c-.574 0-1.024.187-1.35.56-.32.367-.48.9-.48 1.6 0 .707.16 1.253.48 1.64.326.387.776.58 1.35.58.233 0 .473-.047.72-.14.253-.1.49-.263.71-.49l.21.32c-.2.227-.45.4-.75.52-.294.12-.587.18-.88.18zm2.943-.08v-7.36h.42v3.57h-.12c.133-.427.37-.747.71-.96.34-.22.733-.33 1.18-.33.606 0 1.053.157 1.34.47.293.313.44.783.44 1.41v3.2h-.42v-3.16c0-.533-.107-.92-.32-1.16-.213-.247-.56-.37-1.04-.37-.534 0-.964.163-1.29.49-.32.327-.48.76-.48 1.3v2.9h-.42zm5.703 0v-3.92c0-.173-.01-.35-.03-.53-.013-.18-.03-.363-.05-.55h.41l.09 1.2h-.12c.14-.42.373-.737.7-.95.333-.22.723-.33 1.17-.33.593 0 1.04.153 1.34.46.307.307.46.787.46 1.44V108h-.42v-3.14c0-.54-.11-.933-.33-1.18-.22-.247-.567-.37-1.04-.37-.54 0-.97.163-1.29.49-.313.327-.47.767-.47 1.32V108h-.42zm7.583.08c-.453 0-.847-.103-1.18-.31a2.018 2.018 0 01-.77-.89c-.18-.387-.27-.847-.27-1.38 0-.533.09-.993.27-1.38.18-.387.437-.683.77-.89.333-.207.727-.31 1.18-.31.453 0 .847.103 1.18.31.333.207.59.503.77.89.187.387.28.847.28 1.38 0 .533-.093.993-.28 1.38-.18.387-.437.683-.77.89-.333.207-.727.31-1.18.31zm0-.39c.547 0 .983-.187 1.31-.56.327-.38.49-.923.49-1.63 0-.707-.163-1.247-.49-1.62-.327-.38-.763-.57-1.31-.57s-.983.19-1.31.57c-.32.373-.48.913-.48 1.62 0 .707.16 1.25.48 1.63.327.373.763.56 1.31.56zm3.647.31v-7.36h.42V108h-.42zm4.058.08c-.453 0-.847-.103-1.18-.31a2.018 2.018 0 01-.77-.89c-.18-.387-.27-.847-.27-1.38 0-.533.09-.993.27-1.38.18-.387.437-.683.77-.89.333-.207.727-.31 1.18-.31.453 0 .847.103 1.18.31.333.207.59.503.77.89.187.387.28.847.28 1.38 0 .533-.093.993-.28 1.38-.18.387-.437.683-.77.89-.333.207-.727.31-1.18.31zm0-.39c.547 0 .983-.187 1.31-.56.327-.38.49-.923.49-1.63 0-.707-.163-1.247-.49-1.62-.327-.38-.763-.57-1.31-.57s-.983.19-1.31.57c-.32.373-.48.913-.48 1.62 0 .707.16 1.25.48 1.63.327.373.763.56 1.31.56zm5.747 2.54c-.406 0-.79-.06-1.15-.18a2.919 2.919 0 01-.96-.52l.2-.34c.22.16.427.287.62.38.194.093.394.16.6.2.214.047.447.07.7.07.52 0 .914-.143 1.18-.43.274-.28.41-.683.41-1.21v-1.71h.11c-.106.44-.333.783-.68 1.03-.34.247-.746.37-1.22.37-.46 0-.86-.1-1.2-.3a2.108 2.108 0 01-.78-.87c-.18-.373-.27-.813-.27-1.32 0-.507.09-.943.27-1.31.187-.373.447-.66.78-.86.34-.207.74-.31 1.2-.31.474 0 .88.123 1.22.37.347.247.574.593.68 1.04l-.11-.13.09-1.2h.41l-.06.55a7.37 7.37 0 00-.02.53v4.05c0 .693-.17 1.217-.51 1.57-.34.353-.843.53-1.51.53zm-.2-2.73c.554 0 .99-.183 1.31-.55.327-.373.49-.89.49-1.55s-.163-1.173-.49-1.54c-.32-.367-.756-.55-1.31-.55-.553 0-.993.183-1.32.55-.326.367-.49.88-.49 1.54s.164 1.177.49 1.55c.327.367.767.55 1.32.55zm3.69 2.77l-.1-.39a2.93 2.93 0 00.77-.28c.206-.107.38-.247.52-.42s.266-.39.38-.65l.26-.6-.01.21-2.18-5.14h.48l2.01 4.84h-.23l1.98-4.84h.48l-2.33 5.54a3.58 3.58 0 01-.39.72c-.14.2-.294.367-.46.5-.16.133-.34.24-.54.32-.194.08-.407.143-.64.19zM2.099 131.908c-.335 0-.634-.043-.898-.13a2.137 2.137 0 01-.692-.372l.178-.39c.138.102.275.189.413.26.142.067.294.118.455.153.162.032.343.048.544.048.35 0 .61-.065.78-.195a.623.623 0 00.254-.52c0-.186-.06-.327-.177-.426-.118-.098-.325-.177-.62-.236l-.621-.124c-.382-.079-.668-.207-.857-.384-.185-.178-.278-.418-.278-.721 0-.249.063-.465.19-.65.13-.186.31-.329.543-.432a2 2 0 01.81-.153c.295 0 .565.045.81.136.243.086.452.214.625.384l-.17.378a1.722 1.722 0 00-.586-.355 1.95 1.95 0 00-.685-.112c-.323 0-.58.071-.769.213a.669.669 0 00-.277.567c0 .193.059.345.177.455.118.106.313.187.585.242l.626.124c.402.083.698.207.887.373.189.165.283.397.283.697 0 .228-.063.431-.189.609a1.188 1.188 0 01-.526.413c-.228.099-.5.148-.815.148zm3.31 0c-.292 0-.515-.083-.668-.248-.154-.17-.23-.424-.23-.763v-1.636h-.58v-.373h.58v-.809l.478-.136v.945h.851v.373h-.851v1.583c0 .237.04.406.118.508.083.099.205.148.367.148.074 0 .141-.006.2-.018.06-.015.113-.033.16-.053v.402a.815.815 0 01-.2.053c-.076.016-.15.024-.225.024zm2.202 0a1.47 1.47 0 01-.744-.183 1.271 1.271 0 01-.485-.532 1.843 1.843 0 01-.171-.821c0-.32.057-.593.171-.822.114-.228.276-.404.485-.526.212-.126.46-.189.744-.189.288 0 .536.063.745.189.212.122.376.298.49.526.118.229.177.502.177.822 0 .315-.059.588-.177.821a1.26 1.26 0 01-.49.532 1.45 1.45 0 01-.745.183zm0-.39c.284 0 .508-.097.674-.29.165-.197.248-.482.248-.856 0-.379-.085-.664-.254-.857a.827.827 0 00-.668-.296.827.827 0 00-.668.296c-.165.193-.248.478-.248.857 0 .374.083.659.248.856.166.193.388.29.668.29zm2.159.337v-2.281c0-.111-.006-.223-.018-.337a9.785 9.785 0 00-.03-.349h.461l.06.65h-.072c.087-.228.225-.401.414-.52.193-.122.416-.183.668-.183.35 0 .614.095.792.284.18.185.271.478.271.88v1.856h-.478v-1.826c0-.28-.057-.483-.172-.609-.11-.13-.283-.195-.52-.195-.275 0-.494.085-.655.254-.162.17-.243.396-.243.68v1.696H9.77zm4.78.053c-.465 0-.832-.134-1.1-.402-.267-.272-.401-.648-.401-1.129 0-.311.059-.581.177-.809.118-.233.284-.412.496-.538.213-.13.457-.195.733-.195.272 0 .5.057.686.172.185.114.326.277.425.49.098.209.148.457.148.745v.177h-2.299v-.302h1.986l-.1.077c0-.315-.072-.561-.214-.738-.141-.178-.352-.266-.632-.266-.295 0-.526.104-.691.313-.166.205-.248.482-.248.833v.053c0 .371.09.652.271.845.185.189.444.284.774.284.178 0 .343-.026.497-.077.157-.055.307-.144.449-.266l.165.337c-.13.126-.295.225-.496.295a1.931 1.931 0 01-.626.101zm1.95-.053v-4.166h.49v1.843H19.5v-1.843h.485v4.166H19.5v-1.903H16.99v1.903h-.49zm5.788.053c-.465 0-.831-.134-1.1-.402-.267-.272-.4-.648-.4-1.129 0-.311.058-.581.176-.809.119-.233.284-.412.497-.538.213-.13.457-.195.733-.195.271 0 .5.057.685.172a1.1 1.1 0 01.425.49c.099.209.148.457.148.745v.177h-2.299v-.302h1.986l-.1.077c0-.315-.071-.561-.213-.738-.142-.178-.353-.266-.633-.266-.295 0-.525.104-.69.313-.166.205-.25.482-.25.833v.053c0 .371.092.652.273.845.185.189.443.284.774.284.177 0 .343-.026.496-.077.158-.055.308-.144.45-.266l.165.337c-.13.126-.296.225-.497.295a1.932 1.932 0 01-.626.101zm3.02 0c-.26 0-.49-.061-.686-.183a1.272 1.272 0 01-.461-.532 1.933 1.933 0 01-.16-.821c0-.324.053-.599.16-.828.11-.228.264-.404.46-.526.198-.122.426-.183.686-.183.268 0 .499.067.692.201a.967.967 0 01.396.544h-.071v-2.074h.478v4.349h-.473v-.709h.066a.969.969 0 01-.39.561 1.21 1.21 0 01-.698.201zm.1-.39c.28 0 .504-.097.673-.29.17-.197.254-.482.254-.856 0-.379-.084-.664-.254-.857a.845.845 0 00-.673-.296.845.845 0 00-.674.296c-.165.193-.248.478-.248.857 0 .374.083.659.248.856.17.193.394.29.674.29zm3.626 1.654c-.256 0-.493-.031-.71-.094a1.807 1.807 0 01-.585-.29l.142-.36a1.746 1.746 0 00.727.319c.126.028.26.041.402.041.291 0 .512-.076.662-.23.15-.154.224-.372.224-.656v-.869h.06a.967.967 0 01-.39.556 1.2 1.2 0 01-.692.201c-.272 0-.508-.059-.709-.178a1.24 1.24 0 01-.461-.514 1.829 1.829 0 01-.16-.791c0-.3.054-.56.16-.78.11-.221.264-.39.461-.509.2-.122.437-.183.709-.183.268 0 .498.067.691.201a.942.942 0 01.39.556l-.059-.06.053-.644h.467a5.027 5.027 0 00-.047.686v2.263c0 .441-.114.774-.343.999-.224.224-.555.336-.992.336zm-.071-1.772c.287 0 .514-.095.68-.284.165-.193.247-.463.247-.809 0-.347-.082-.615-.248-.804-.165-.189-.392-.284-.68-.284-.283 0-.51.095-.679.284-.17.189-.254.457-.254.804 0 .346.085.616.254.809.17.189.396.284.68.284zm3.643.508c-.465 0-.831-.134-1.1-.402-.267-.272-.401-.648-.401-1.129 0-.311.059-.581.177-.809.118-.233.284-.412.497-.538.212-.13.457-.195.732-.195.272 0 .5.057.686.172.185.114.327.277.425.49.099.209.148.457.148.745v.177h-2.299v-.302h1.986l-.1.077c0-.315-.072-.561-.213-.738-.142-.178-.353-.266-.633-.266-.295 0-.526.104-.691.313-.166.205-.248.482-.248.833v.053c0 .371.09.652.272.845.185.189.443.284.774.284.177 0 .342-.026.496-.077.158-.055.307-.144.45-.266l.165.337c-.13.126-.296.225-.497.295a1.931 1.931 0 01-.626.101zm3.437-.053v-2.967h.479v2.967h-.479zm-.059-3.64v-.538h.59v.538h-.59zm2.454 3.693c-.236 0-.457-.032-.662-.095a1.43 1.43 0 01-.508-.277l.165-.337c.146.114.304.199.473.254.174.055.353.083.538.083.236 0 .413-.042.532-.124a.413.413 0 00.183-.355.339.339 0 00-.118-.272c-.075-.071-.2-.126-.373-.165l-.55-.113c-.251-.055-.44-.147-.566-.277a.713.713 0 01-.19-.508c0-.174.046-.325.136-.455a.889.889 0 01.396-.314c.174-.078.377-.118.609-.118.217 0 .416.034.597.101.185.063.339.155.46.277l-.17.331a1.13 1.13 0 00-.408-.254 1.261 1.261 0 00-.467-.088c-.233 0-.408.047-.526.141a.438.438 0 00-.171.361c0 .114.035.209.106.283.075.071.189.125.343.16l.55.112c.267.059.466.152.596.278.134.122.2.288.2.496 0 .178-.048.333-.147.467a.944.944 0 01-.413.302c-.174.07-.379.106-.615.106zm4.614 0c-.264 0-.494-.061-.691-.183a1.272 1.272 0 01-.461-.532 1.933 1.933 0 01-.16-.821c0-.324.053-.599.16-.828.11-.228.264-.404.46-.526.198-.122.428-.183.692-.183.268 0 .498.069.691.207a.94.94 0 01.39.55h-.07l.064-.704h.461l-.035.349a4.867 4.867 0 00-.012.337v2.281h-.479v-.698h.065a.94.94 0 01-.39.55 1.189 1.189 0 01-.685.201zm.095-.39c.283 0 .508-.097.673-.29.166-.197.248-.482.248-.856 0-.379-.082-.664-.248-.857-.165-.197-.39-.296-.673-.296a.845.845 0 00-.674.296c-.166.193-.248.478-.248.857 0 .374.082.659.248.856.17.193.394.29.674.29zm3.86 1.613v-3.557c0-.111-.006-.223-.017-.337a9.88 9.88 0 00-.03-.349h.46l.066.704h-.071a.949.949 0 01.384-.55c.193-.138.423-.207.691-.207.268 0 .499.061.692.183.197.122.35.298.46.526.111.229.166.504.166.828 0 .319-.055.592-.165.821a1.234 1.234 0 01-.455.532c-.197.122-.43.183-.698.183-.264 0-.492-.067-.685-.201a.949.949 0 01-.384-.55h.065v1.974h-.479zm1.389-1.613c.283 0 .508-.097.673-.29.17-.197.255-.482.255-.856 0-.379-.085-.664-.255-.857-.165-.197-.39-.296-.673-.296a.845.845 0 00-.674.296c-.165.193-.248.478-.248.857 0 .374.083.659.248.856.17.193.394.29.674.29zm2.143.337v-2.252c0-.118-.004-.238-.012-.36a5.116 5.116 0 00-.024-.355h.461l.06.721-.084.006a.918.918 0 01.555-.691 1.03 1.03 0 01.42-.089c.06 0 .11.002.154.006.047.004.09.014.13.03l-.006.425a.68.68 0 00-.165-.035 1.004 1.004 0 00-.166-.012.827.827 0 00-.455.124.834.834 0 00-.29.319.936.936 0 00-.094.414v1.749h-.484zm3.34.053a1.47 1.47 0 01-.744-.183 1.272 1.272 0 01-.484-.532 1.844 1.844 0 01-.172-.821c0-.32.057-.593.172-.822.114-.228.275-.404.484-.526.213-.126.461-.189.745-.189.287 0 .535.063.744.189.213.122.377.298.49.526.119.229.178.502.178.822 0 .315-.06.588-.177.821a1.259 1.259 0 01-.49.532 1.45 1.45 0 01-.745.183zm0-.39c.284 0 .509-.097.674-.29.166-.197.248-.482.248-.856 0-.379-.084-.664-.254-.857a.827.827 0 00-.667-.296.827.827 0 00-.668.296c-.166.193-.248.478-.248.857 0 .374.083.659.248.856.165.193.388.29.668.29zm3.282.39c-.26 0-.489-.061-.686-.183a1.272 1.272 0 01-.46-.532 1.933 1.933 0 01-.16-.821c0-.324.053-.599.16-.828.11-.228.264-.404.46-.526.197-.122.426-.183.686-.183.268 0 .498.067.691.201a.967.967 0 01.396.544h-.07v-2.074h.478v4.349h-.473v-.709h.065a.969.969 0 01-.39.561 1.21 1.21 0 01-.697.201zm.1-.39c.28 0 .505-.097.674-.29.17-.197.254-.482.254-.856 0-.379-.085-.664-.254-.857a.845.845 0 00-.674-.296.845.845 0 00-.673.296c-.166.193-.248.478-.248.857 0 .374.082.659.248.856.17.193.394.29.673.29zm3.366.39c-.35 0-.616-.097-.797-.29-.178-.193-.266-.488-.266-.886v-1.844h.478v1.832c0 .272.055.473.166.603.11.126.281.189.514.189.26 0 .469-.085.626-.254.158-.17.237-.396.237-.68v-1.69h.478v2.967h-.467v-.668h.077a1.061 1.061 0 01-1.046.721zm3.612 0a1.49 1.49 0 01-.763-.189 1.29 1.29 0 01-.496-.538 1.854 1.854 0 01-.171-.827c0-.323.059-.597.177-.822.118-.228.284-.401.496-.52.217-.118.469-.177.757-.177.189 0 .372.034.55.101.18.067.33.161.448.283l-.171.343a1.17 1.17 0 00-.798-.337c-.307 0-.545.097-.715.29-.17.193-.254.474-.254.845 0 .366.085.65.254.851.17.201.408.301.715.301a1.156 1.156 0 00.798-.331l.171.337a1.202 1.202 0 01-.455.289 1.559 1.559 0 01-.543.101zm2.73 0c-.291 0-.514-.083-.667-.248-.154-.17-.23-.424-.23-.763v-1.636h-.58v-.373h.58v-.809l.478-.136v.945h.85v.373h-.85v1.583c0 .237.04.406.118.508.083.099.205.148.366.148.075 0 .142-.006.201-.018.06-.015.112-.033.16-.053v.402a.817.817 0 01-.201.053c-.075.016-.15.024-.225.024zm4.044 0c-.268 0-.498-.067-.691-.201a1.006 1.006 0 01-.39-.561h.065v.709h-.473v-4.349h.479v2.074h-.071a.976.976 0 01.39-.544c.193-.134.423-.201.691-.201.268 0 .498.063.692.189.197.122.348.298.455.526.11.229.165.502.165.822 0 .319-.055.592-.165.821-.11.228-.264.406-.461.532a1.256 1.256 0 01-.686.183zm-.1-.39c.28 0 .504-.097.673-.29.17-.193.255-.478.255-.856 0-.379-.085-.664-.255-.857a.845.845 0 00-.673-.296.845.845 0 00-.674.296c-.165.193-.248.478-.248.857 0 .374.083.659.248.856.17.193.394.29.674.29zm1.996 1.678l-.113-.396c.186-.043.34-.094.461-.153a.88.88 0 00.313-.225 1.29 1.29 0 00.213-.355l.154-.348-.012.201-1.294-3.032h.52l1.07 2.606h-.154l1.058-2.606h.502l-1.371 3.215a2.2 2.2 0 01-.26.473c-.095.13-.197.234-.307.313a1.28 1.28 0 01-.355.195c-.13.047-.272.084-.425.112zm6.21-1.288c-.335 0-.634-.043-.898-.13a2.138 2.138 0 01-.692-.372l.178-.39c.138.102.276.189.414.26.141.067.293.118.455.153.161.032.342.048.543.048.35 0 .61-.065.78-.195a.623.623 0 00.254-.52c0-.186-.059-.327-.177-.426-.118-.098-.325-.177-.62-.236l-.621-.124c-.382-.079-.668-.207-.857-.384-.185-.178-.278-.418-.278-.721 0-.249.064-.465.19-.65.13-.186.31-.329.543-.432a2 2 0 01.81-.153c.295 0 .565.045.81.136.243.086.452.214.626.384l-.172.378a1.723 1.723 0 00-.585-.355c-.2-.075-.43-.112-.685-.112-.323 0-.58.071-.768.213a.669.669 0 00-.278.567c0 .193.059.345.177.455.118.106.313.187.585.242l.627.124c.401.083.697.207.886.373.189.165.284.397.284.697 0 .228-.064.431-.19.609a1.189 1.189 0 01-.525.413c-.229.099-.5.148-.816.148zm3.31 0c-.292 0-.514-.083-.668-.248-.154-.17-.23-.424-.23-.763v-1.636h-.58v-.373h.58v-.809l.478-.136v.945h.851v.373h-.85v1.583c0 .237.039.406.117.508.083.099.205.148.367.148.075 0 .141-.006.2-.018.06-.015.113-.033.16-.053v.402a.816.816 0 01-.2.053c-.076.016-.15.024-.225.024zm2.202 0a1.47 1.47 0 01-.744-.183 1.272 1.272 0 01-.485-.532 1.844 1.844 0 01-.171-.821c0-.32.057-.593.171-.822.114-.228.276-.404.485-.526.212-.126.46-.189.744-.189.288 0 .536.063.745.189.212.122.376.298.49.526.118.229.177.502.177.822 0 .315-.059.588-.177.821a1.259 1.259 0 01-.49.532 1.45 1.45 0 01-.745.183zm0-.39c.284 0 .508-.097.674-.29.165-.197.248-.482.248-.856 0-.379-.085-.664-.254-.857a.827.827 0 00-.668-.296.827.827 0 00-.668.296c-.165.193-.248.478-.248.857 0 .374.083.659.248.856.166.193.389.29.668.29zm2.159.337v-2.281c0-.111-.006-.223-.018-.337a9.88 9.88 0 00-.03-.349h.461l.06.65h-.071c.086-.228.224-.401.413-.52.193-.122.416-.183.668-.183.35 0 .615.095.792.284.18.185.272.478.272.88v1.856h-.48v-1.826c0-.28-.056-.483-.17-.609-.11-.13-.284-.195-.52-.195-.276 0-.495.085-.656.254-.162.17-.243.396-.243.68v1.696h-.478zm4.78.053c-.465 0-.831-.134-1.1-.402-.267-.272-.401-.648-.401-1.129 0-.311.059-.581.177-.809.118-.233.284-.412.497-.538.212-.13.457-.195.732-.195.272 0 .5.057.686.172a1.1 1.1 0 01.425.49c.099.209.148.457.148.745v.177h-2.299v-.302h1.986l-.1.077c0-.315-.072-.561-.213-.738-.142-.178-.353-.266-.633-.266-.295 0-.526.104-.691.313-.166.205-.248.482-.248.833v.053c0 .371.09.652.272.845.185.189.443.284.774.284.177 0 .342-.026.496-.077.158-.055.307-.144.45-.266l.164.337a1.33 1.33 0 01-.496.295 1.932 1.932 0 01-.626.101zm1.483-.053l1.66-2.222v.183l-1.584-2.127h.58l1.3 1.778h-.154l1.288-1.778h.585l-1.59 2.127v-.183l1.661 2.222h-.579l-1.389-1.885h.19l-1.39 1.885h-.578zm-92.313 7v-4.166h2.6v.402H1.23v1.459h1.98v.402H1.23v1.903H.74zm3.265 0v-2.967h.478v2.967h-.478zm-.06-3.64v-.538h.592v.538h-.591zm1.468 3.64v-2.281c0-.111-.006-.223-.018-.337a9.785 9.785 0 00-.03-.349h.461l.06.65h-.071c.086-.228.224-.401.413-.52.193-.122.416-.183.668-.183.35 0 .615.095.792.284.181.185.272.478.272.88v1.856H7.48v-1.826c0-.28-.057-.483-.171-.609-.11-.13-.284-.195-.52-.195-.276 0-.495.085-.656.254-.162.17-.243.396-.243.68v1.696h-.478zm4.59.053c-.263 0-.494-.061-.69-.183a1.273 1.273 0 01-.461-.532 1.934 1.934 0 01-.16-.821c0-.324.053-.599.16-.828.11-.228.263-.404.46-.526s.428-.183.692-.183c.268 0 .498.069.691.207a.94.94 0 01.39.55h-.07l.064-.704h.461l-.035.349a4.867 4.867 0 00-.012.337v2.281h-.479v-.698h.065a.94.94 0 01-.39.55 1.189 1.189 0 01-.685.201zm.095-.39c.284 0 .508-.097.674-.29.165-.197.248-.482.248-.856 0-.379-.083-.664-.248-.857-.165-.197-.39-.296-.674-.296a.845.845 0 00-.673.296c-.166.193-.248.478-.248.857 0 .374.082.659.248.856.17.193.394.29.673.29zm2.32.337v-2.281c0-.111-.006-.223-.017-.337a9.879 9.879 0 00-.03-.349h.46l.06.65h-.07c.086-.228.224-.401.413-.52.193-.122.415-.183.668-.183.35 0 .614.095.791.284.181.185.272.478.272.88v1.856h-.479v-1.826c0-.28-.057-.483-.17-.609-.111-.13-.285-.195-.52-.195-.277 0-.495.085-.657.254-.161.17-.242.396-.242.68v1.696h-.479zm4.71.053a1.49 1.49 0 01-.763-.189 1.29 1.29 0 01-.496-.538 1.855 1.855 0 01-.171-.827c0-.323.059-.597.177-.822.118-.228.283-.401.496-.52.217-.118.469-.177.757-.177.189 0 .372.034.549.101.181.067.33.161.45.283l-.172.343a1.168 1.168 0 00-.798-.337c-.307 0-.546.097-.715.29-.17.193-.254.474-.254.845 0 .366.085.65.254.851.17.201.408.301.715.301a1.156 1.156 0 00.798-.331l.171.337a1.203 1.203 0 01-.455.289 1.559 1.559 0 01-.543.101zm1.678-.053v-2.967h.479v2.967h-.479zm-.059-3.64v-.538h.591v.538h-.59zm2.596 3.693c-.264 0-.494-.061-.691-.183a1.273 1.273 0 01-.461-.532 1.935 1.935 0 01-.16-.821c0-.324.053-.599.16-.828.11-.228.264-.404.46-.526.198-.122.428-.183.692-.183.268 0 .498.069.691.207a.942.942 0 01.39.55h-.07l.065-.704h.46l-.035.349a4.867 4.867 0 00-.012.337v2.281h-.479v-.698h.066a.942.942 0 01-.39.55 1.19 1.19 0 01-.686.201zm.095-.39c.283 0 .508-.097.673-.29.166-.197.248-.482.248-.856 0-.379-.082-.664-.248-.857-.165-.197-.39-.296-.674-.296a.845.845 0 00-.673.296c-.165.193-.248.478-.248.857 0 .374.083.659.248.856.17.193.394.29.674.29zm2.32.337v-4.349h.478v4.349h-.479zm3.002 0v-4.166h.49v4.166h-.49zm1.475 0v-2.281c0-.111-.005-.223-.017-.337a9.879 9.879 0 00-.03-.349h.461l.06.65h-.072c.087-.228.225-.401.414-.52.193-.122.416-.183.668-.183.35 0 .614.095.791.284.182.185.272.478.272.88v1.856h-.478v-1.826c0-.28-.057-.483-.172-.609-.11-.13-.283-.195-.52-.195-.275 0-.494.085-.656.254-.161.17-.242.396-.242.68v1.696h-.479zm4.71.053a1.49 1.49 0 01-.763-.189 1.29 1.29 0 01-.496-.538 1.855 1.855 0 01-.171-.827c0-.323.059-.597.177-.822.118-.228.284-.401.496-.52.217-.118.47-.177.757-.177.189 0 .372.034.55.101.18.067.33.161.448.283l-.171.343a1.168 1.168 0 00-.798-.337c-.307 0-.545.097-.715.29-.17.193-.254.474-.254.845 0 .366.085.65.254.851.17.201.408.301.715.301a1.155 1.155 0 00.798-.331l.171.337a1.203 1.203 0 01-.455.289 1.559 1.559 0 01-.543.101zm1.642-.053v-.603h.602v.603h-.602zm2.513-1.466v-.313h2.984v.313H37.1zm5.044 1.466v-4.166h2.6v.402h-2.11v1.459h1.98v.402h-1.98v1.903h-.49zm5.034.053c-.418 0-.772-.087-1.064-.26a1.726 1.726 0 01-.673-.739c-.154-.319-.23-.699-.23-1.14 0-.441.076-.82.23-1.135.157-.319.382-.565.673-.738.292-.174.646-.26 1.064-.26.295 0 .56.045.792.136.232.09.435.222.608.395l-.183.39a2.02 2.02 0 00-.561-.36 1.647 1.647 0 00-.65-.118c-.477 0-.84.148-1.087.443-.249.295-.373.711-.373 1.247 0 .536.124.953.373 1.253.248.295.61.443 1.087.443.248 0 .465-.038.65-.113.185-.078.372-.202.561-.372l.183.396a1.882 1.882 0 01-.608.396 2.159 2.159 0 01-.792.136zm2.231-.053v-4.166h.426l1.672 3.776h-.171l1.672-3.776h.425v4.166h-.449v-3.534h.177l-1.577 3.534h-.325l-1.584-3.534h.177v3.534h-.443zm6.607 0v-4.166H57.4c.461 0 .851.081 1.17.242.32.158.561.392.727.703.165.308.248.686.248 1.135 0 .445-.083.823-.248 1.134a1.636 1.636 0 01-.727.709c-.319.162-.709.243-1.17.243h-1.383zm.49-.42h.858c.567 0 .989-.138 1.264-.413.276-.28.414-.698.414-1.253 0-.56-.138-.977-.414-1.253-.276-.276-.697-.414-1.264-.414h-.857v3.333zm3.872.42v-2.967h.478v2.967h-.478zm-.06-3.64v-.538h.592v.538h-.591zm2.342 3.64l-1.27-2.967h.52l1.064 2.612h-.16l1.075-2.612h.497l-1.27 2.967h-.456zm2.265 0v-2.967h.479v2.967h-.48zm-.06-3.64v-.538h.592v.538h-.591zm2.455 3.693a2.24 2.24 0 01-.662-.095 1.43 1.43 0 01-.508-.277l.165-.337c.146.114.304.199.473.254.173.055.353.083.538.083.236 0 .413-.042.532-.124a.413.413 0 00.183-.355.339.339 0 00-.118-.272c-.075-.071-.2-.126-.373-.165l-.55-.113c-.251-.055-.44-.147-.567-.277a.713.713 0 01-.189-.508c0-.174.046-.325.136-.455a.889.889 0 01.396-.314c.174-.078.376-.118.609-.118.216 0 .415.034.597.101.185.063.338.155.46.277l-.17.331a1.13 1.13 0 00-.409-.254 1.261 1.261 0 00-.466-.088c-.233 0-.408.047-.526.141a.438.438 0 00-.172.361c0 .114.036.209.107.283.075.071.189.125.342.16l.55.112c.268.059.467.152.597.278.134.122.2.288.2.496 0 .178-.049.333-.147.467a.945.945 0 01-.414.302c-.173.07-.378.106-.614.106zm1.944-.053v-2.967h.48v2.967h-.48zm-.059-3.64v-.538h.591v.538h-.59zm2.685 3.693a1.47 1.47 0 01-.745-.183 1.272 1.272 0 01-.484-.532 1.844 1.844 0 01-.172-.821c0-.32.057-.593.172-.822.114-.228.275-.404.484-.526.213-.126.461-.189.745-.189.287 0 .535.063.744.189.213.122.376.298.49.526.119.229.178.502.178.822 0 .315-.06.588-.177.821a1.26 1.26 0 01-.49.532 1.45 1.45 0 01-.745.183zm0-.39c.283 0 .508-.097.673-.29.166-.197.249-.482.249-.856 0-.379-.085-.664-.254-.857a.828.828 0 00-.668-.296.827.827 0 00-.668.296c-.165.193-.248.478-.248.857 0 .374.083.659.248.856.166.193.388.29.668.29zm2.158.337v-2.281c0-.111-.006-.223-.017-.337a9.88 9.88 0 00-.03-.349h.46l.06.65h-.07c.086-.228.224-.401.413-.52.193-.122.415-.183.667-.183.351 0 .615.095.792.284.181.185.272.478.272.88v1.856h-.479v-1.826c0-.28-.057-.483-.17-.609-.111-.13-.285-.195-.52-.195-.277 0-.495.085-.657.254-.161.17-.242.396-.242.68v1.696h-.479z" fill="#000"/></svg>