<svg width="95" height="29" viewBox="0 0 95 29" fill="none" xmlns="http://www.w3.org/2000/svg"><rect x=".22" y=".766" width="94" height="28" rx="14" fill="#0D2C4A"/><path d="M19.838 18.766v-7.618h.897v6.84h3.846v.778h-4.743zm8.148.097c-.85 0-1.52-.245-2.01-.735-.49-.497-.735-1.185-.735-2.064 0-.569.108-1.062.324-1.48.216-.425.519-.753.908-.983a2.518 2.518 0 011.34-.357c.497 0 .915.105 1.253.314.339.209.598.508.778.896.18.382.27.836.27 1.362v.324h-4.203v-.551h3.63l-.183.14c0-.576-.13-1.026-.389-1.35-.26-.324-.645-.486-1.156-.486-.54 0-.962.19-1.264.572-.303.375-.454.883-.454 1.524v.097c0 .677.165 1.192.497 1.545.338.346.81.519 1.415.519.324 0 .627-.047.908-.14.288-.101.562-.264.821-.487l.303.616c-.238.23-.54.41-.908.54-.36.123-.742.184-1.145.184zm5.531 0c-.482 0-.904-.111-1.264-.335a2.32 2.32 0 01-.843-.972c-.194-.418-.291-.919-.291-1.502 0-.591.097-1.095.291-1.513.202-.418.483-.739.843-.962.36-.223.782-.335 1.264-.335.49 0 .912.126 1.265.378.36.245.598.58.713 1.005h-.13l.12-1.286h.842l-.065.638a8.956 8.956 0 00-.022.616v4.17h-.875v-1.274h.12c-.116.425-.354.76-.714 1.005-.36.245-.778.367-1.254.367zm.173-.713c.52 0 .93-.176 1.232-.53.303-.36.454-.882.454-1.566 0-.692-.151-1.214-.454-1.567-.302-.36-.713-.54-1.232-.54-.511 0-.922.18-1.231.54-.303.353-.454.875-.454 1.567 0 .684.151 1.206.454 1.567.31.353.72.529 1.231.529zm4.221.616v-4.117c0-.216-.007-.436-.022-.66a9.183 9.183 0 00-.043-.648h.843l.108 1.319-.151.01c.072-.324.198-.59.378-.799.18-.209.393-.364.638-.465.245-.108.5-.162.767-.162.108 0 .201.004.28.011a.824.824 0 01.238.054l-.01.778a1.272 1.272 0 00-.303-.065 1.862 1.862 0 00-.302-.021c-.317 0-.595.075-.833.226-.23.152-.407.346-.529.584-.115.238-.173.49-.173.756v3.199h-.886zm3.947 0v-4.171c0-.202-.01-.407-.032-.616a17.31 17.31 0 00-.054-.637h.843l.108 1.188h-.13c.158-.418.41-.735.756-.95.353-.224.76-.336 1.221-.336.642 0 1.124.173 1.448.519.332.338.497.875.497 1.61v3.393h-.875v-3.339c0-.511-.104-.883-.313-1.113-.202-.238-.519-.357-.951-.357-.504 0-.904.155-1.2.465-.295.31-.443.724-.443 1.243v3.1h-.875zm9.149 0v-4.171c0-.202-.01-.407-.032-.616a17.533 17.533 0 00-.054-.637h.842l.108 1.188h-.13c.145-.41.372-.727.681-.95.318-.224.7-.336 1.146-.336.454 0 .821.108 1.102.324.288.216.483.552.584 1.005h-.162a1.86 1.86 0 01.724-.972c.345-.238.749-.357 1.21-.357.598 0 1.048.173 1.35.519.303.338.454.875.454 1.61v3.393h-.875v-3.339c0-.511-.09-.883-.27-1.113-.18-.238-.468-.357-.865-.357-.453 0-.814.159-1.08.476-.26.31-.39.727-.39 1.253v3.08h-.874v-3.339c0-.511-.09-.883-.27-1.113-.18-.238-.469-.357-.865-.357-.454 0-.81.159-1.07.476-.26.31-.389.727-.389 1.253v3.08h-.875zm11.712.097c-.518 0-.972-.111-1.361-.335a2.319 2.319 0 01-.886-.972c-.209-.425-.314-.926-.314-1.502 0-.584.105-1.084.314-1.502a2.25 2.25 0 01.886-.962c.389-.23.843-.346 1.361-.346.526 0 .98.116 1.362.346.389.223.688.544.897.962.216.418.324.918.324 1.502 0 .576-.108 1.077-.324 1.502a2.297 2.297 0 01-.897.972c-.382.224-.836.335-1.362.335zm0-.713c.52 0 .93-.176 1.232-.53.303-.36.454-.882.454-1.566 0-.692-.155-1.214-.465-1.567-.302-.36-.71-.54-1.22-.54-.512 0-.919.18-1.222.54-.302.353-.453.875-.453 1.567 0 .684.15 1.206.453 1.567.303.353.71.529 1.221.529zm3.926.616v-4.117c0-.216-.007-.436-.022-.66a9.183 9.183 0 00-.043-.648h.843l.108 1.319-.151.01c.072-.324.198-.59.378-.799.18-.209.393-.364.638-.465.244-.108.5-.162.767-.162.108 0 .201.004.28.011a.823.823 0 01.238.054l-.01.778a1.27 1.27 0 00-.303-.065 1.863 1.863 0 00-.303-.021c-.316 0-.594.075-.832.226-.23.152-.407.346-.53.584-.114.238-.172.49-.172.756v3.199h-.886zm6.293.097c-.85 0-1.52-.245-2.01-.735-.49-.497-.734-1.185-.734-2.064 0-.569.108-1.062.324-1.48.216-.425.519-.753.908-.983a2.518 2.518 0 011.34-.357c.496 0 .914.105 1.253.314.338.209.598.508.778.896.18.382.27.836.27 1.362v.324h-4.203v-.551h3.63l-.183.14c0-.576-.13-1.026-.39-1.35-.259-.324-.644-.486-1.156-.486-.54 0-.961.19-1.264.572-.302.375-.454.883-.454 1.524v.097c0 .677.166 1.192.498 1.545.338.346.81.519 1.415.519.324 0 .627-.047.908-.14.288-.101.562-.264.82-.487l.303.616c-.237.23-.54.41-.907.54-.36.123-.742.184-1.146.184z" fill="#fff"/></svg>