<svg width="81" height="23" viewBox="0 0 81 23" fill="none" xmlns="http://www.w3.org/2000/svg"><path d="M17.016 9.648c0-5.424-3.288-8.784-8.256-8.784C3.744.864.504 4.272.504 9.624c0 5.184 3.264 8.712 8.256 8.712 4.992 0 8.256-3.504 8.256-8.688zm-13.464 0c0-4.008 1.872-6.408 5.208-6.408 3.336 0 5.232 2.472 5.232 6.408 0 3.936-1.92 6.312-5.208 6.312-3.288 0-5.232-2.4-5.232-6.312zm17.627 2.064c.024-2.784 1.152-4.224 3.072-4.224 2.064 0 3.072 1.656 3.072 4.464 0 2.64-1.032 4.224-3.12 4.224-1.968 0-3.048-1.608-3.024-4.464zm9.096.072c0-3.6-1.824-6.384-5.232-6.384-1.656 0-2.952.72-3.792 1.92l.048-1.44c0-.12-.12-.24-.24-.24H18.61c-.12 0-.24.12-.24.24l.096 6.936-.096 9.024c0 .12.12.24.24.24h2.496c.12 0 .24-.12.24-.24l-.048-5.376c.84 1.152 2.064 1.776 3.672 1.776 3.312 0 5.304-2.88 5.304-6.456zm7.805 4.248c0-.12-.12-.216-.24-.168a4.858 4.858 0 01-1.296.168c-.912 0-1.44-.384-1.44-1.632l-.024-6.6h2.784c.12 0 .24-.12.24-.24V5.88c0-.12-.12-.24-.24-.24h-2.76l.024-2.856c0-.12-.12-.24-.24-.24H32.44c-.12 0-.24.12-.24.24l.048 2.856H30.88c-.12 0-.24.12-.24.24v1.68c0 .12.12.24.24.24h1.368l-.024 6.672c0 2.76 1.752 3.744 3.696 3.744.648 0 1.344-.144 1.944-.336a.342.342 0 00.216-.312v-1.536zm3.958-11.688c.12 0 .24-.12.24-.24V1.728c0-.12-.12-.24-.24-.24H39.59c-.12 0-.24.12-.24.24v2.376c0 .12.12.24.24.24h2.448zM42.062 18c.12 0 .24-.12.24-.24l-.072-6.024.072-5.856c0-.12-.12-.24-.24-.24h-2.496c-.12 0-.24.12-.24.24l.096 5.856-.096 6.024c0 .12.12.24.24.24h2.496zm13.852-6.216c0-3.912-2.184-6.432-6.072-6.432s-6.12 2.592-6.12 6.504c0 3.912 2.232 6.432 6.12 6.432s6.072-2.568 6.072-6.504zm-9.24.096c0-2.928 1.008-4.464 3.144-4.488 2.088 0 3.12 1.536 3.12 4.464 0 2.952-1.008 4.392-3.096 4.392-2.112 0-3.168-1.464-3.168-4.368zM59.967 18c.12 0 .24-.12.24-.24l-.048-5.016V11.4c.24-2.568 1.584-3.792 3.048-3.792 1.32 0 2.256.912 2.256 2.664v2.472l-.072 5.016c0 .12.12.24.24.24h2.472c.12 0 .24-.12.24-.24l-.072-5.016V10.2c0-3.12-1.632-4.848-4.224-4.848-1.848 0-3.24.936-4.032 2.088l.048-1.56c0-.12-.12-.24-.24-.24h-2.328c-.12 0-.24.12-.24.24l.048 6.312-.072 5.568c0 .12.12.24.24.24h2.496zm20.815-3.672c0-5.232-8.208-2.712-8.208-5.376 0-1.2.912-1.728 2.328-1.728 1.608 0 2.52.696 2.736 1.944.024.144.12.24.264.24h2.208c.12 0 .24-.12.216-.24-.192-2.544-2.328-3.816-5.376-3.816-3.144 0-5.136 1.32-5.136 3.816 0 5.088 8.208 2.664 8.208 5.4 0 1.152-.984 1.8-2.616 1.8-1.92 0-2.976-.72-3.072-2.328a.24.24 0 00-.24-.24h-2.328c-.12 0-.24.12-.24.24.12 2.784 2.4 4.248 5.784 4.248 3.12 0 5.472-1.44 5.472-3.96z" fill="#fff"/></svg>