<svg width="209" height="161" viewBox="0 0 209 161" fill="none" xmlns="http://www.w3.org/2000/svg"><path d="M26.473 20.393a.295.295 0 00-.301-.301h-.906a.295.295 0 00-.302.301c-.388 6.468-4.7 9.83-10.477 9.83-7.157 0-11.641-4.613-11.641-14.486 0-8.45 4.268-14.142 11.641-14.142 4.958 0 9.227 2.5 10.219 9.183.043.173.172.302.345.302h.905c.172 0 .302-.13.259-.302C25.094 3.19 20.092.388 14.53.388c-8.278 0-13.193 5.82-13.193 15.306 0 10.39 4.786 15.737 13.15 15.737 6.726 0 11.426-3.966 11.986-11.038zm22.05-.474c0-6.899-3.406-11.555-9.657-11.555-6.252 0-9.658 4.656-9.658 11.555s3.406 11.512 9.658 11.512c6.252 0 9.658-4.613 9.658-11.512zm-17.893 0c0-6.252 2.76-10.434 8.236-10.434 5.475 0 8.235 4.225 8.235 10.434S44.385 30.31 38.866 30.31c-5.476 0-8.236-4.139-8.236-10.39zM52.962 31c.172 0 .301-.13.301-.302l-.043-9.227v-5.519c1.725-3.923 3.924-6.467 7.416-6.467 3.622 0 5.993 2.113 5.993 8.063v3.923l-.043 9.227c0 .173.13.302.302.302h.82c.172 0 .301-.13.301-.302l-.043-9.227v-4.139c0-6.252-2.716-9.054-7.157-9.054-3.967 0-6.424 2.845-7.632 5.476l.086-4.657a.295.295 0 00-.301-.302h-.82a.295.295 0 00-.301.302l.086 12.374-.086 9.227c0 .173.129.302.301.302h.82zm20.21 0c.173 0 .302-.13.302-.302l-.043-9.227v-5.519c1.725-3.923 3.924-6.467 7.416-6.467 3.622 0 5.993 2.113 5.993 8.063v3.923l-.043 9.227c0 .173.13.302.302.302h.82c.172 0 .301-.13.301-.302l-.043-9.227v-4.139c0-6.252-2.717-9.054-7.158-9.054-3.966 0-6.424 2.845-7.631 5.476l.086-4.657a.295.295 0 00-.302-.302h-.819a.295.295 0 00-.302.302l.087 12.374-.087 9.227c0 .173.13.302.302.302h.82zm35.733-7.933c-.172 0-.302.129-.345.301-.733 4.269-3.104 6.942-7.502 6.942-5.562 0-8.365-3.967-8.365-10.348v-.43h16.945c.172 0 .302-.13.302-.303-.086-6.941-3.579-10.865-9.184-10.865-5.778 0-9.486 4.829-9.486 11.598 0 6.856 3.364 11.47 9.788 11.47 5.174 0 7.976-2.933 8.839-8.064 0-.172-.087-.301-.259-.301h-.733zm-.431-4.743H92.779c.432-5.347 3.234-8.839 7.977-8.839 5.045 0 7.718 3.88 7.718 8.839zm22.346 4.872c.043-.173-.086-.302-.259-.302h-.646c-.173 0-.302.13-.345.302-.388 4.44-3.234 7.114-7.804 7.114-5.476 0-8.02-4.096-8.02-10.348 0-6.252 2.587-10.477 8.063-10.477 4.139 0 6.855 2.285 7.502 6.467.043.173.173.302.345.302h.647c.172 0 .302-.13.258-.302-.431-4.527-3.492-7.588-8.752-7.588-6.252 0-9.486 4.7-9.486 11.598 0 6.899 3.234 11.47 9.443 11.47 5.648 0 8.666-3.493 9.054-8.236zm11.412 6.899a.235.235 0 00-.302-.216c-.603.13-1.466.172-2.155.172-2.329 0-3.191-1.077-3.191-4.7V9.96h5.346c.173 0 .302-.13.302-.302v-.56a.295.295 0 00-.302-.302h-5.346l.043-5.26a.295.295 0 00-.302-.302h-.819a.295.295 0 00-.302.302l.043 5.26h-2.544a.294.294 0 00-.301.302v.56c0 .173.129.302.301.302h2.544v15.393c0 4.613 1.897 5.95 4.614 5.95.69 0 1.509-.173 2.069-.259.173-.043.302-.172.302-.345v-.603zm-131.496 43c0-.13-.13-.26-.302-.216-.603.13-1.466.172-2.156.172-2.328 0-3.19-1.078-3.19-4.7V52.96h5.346c.173 0 .302-.13.302-.302v-.56a.295.295 0 00-.302-.302H5.088l.043-5.26a.295.295 0 00-.302-.302h-.82a.295.295 0 00-.301.302l.043 5.26H1.207a.295.295 0 00-.302.302v.56c0 .173.13.302.302.302h2.544v15.393c0 4.613 1.897 5.95 4.614 5.95.69 0 1.509-.173 2.07-.259.172-.043.301-.172.301-.345v-.603zm19.893-10.176c0-6.898-3.407-11.555-9.658-11.555-6.252 0-9.658 4.657-9.658 11.555 0 6.899 3.406 11.512 9.658 11.512 6.252 0 9.658-4.613 9.658-11.512zm-17.894 0c0-6.252 2.76-10.434 8.236-10.434 5.475 0 8.235 4.225 8.235 10.434S26.49 73.31 20.97 73.31c-5.476 0-8.236-4.139-8.236-10.39zm36.36 10.176c0-.13-.13-.26-.303-.216-.603.13-1.465.172-2.155.172-2.329 0-3.19-1.078-3.19-4.7V52.96h5.345c.173 0 .302-.13.302-.302v-.56a.295.295 0 00-.302-.302h-5.346l.043-5.26a.295.295 0 00-.302-.302h-.819a.295.295 0 00-.302.302l.043 5.26h-2.543a.295.295 0 00-.302.302v.56c0 .173.13.302.302.302h2.543v15.393c0 4.613 1.898 5.95 4.614 5.95.69 0 1.509-.173 2.07-.259.172-.043.301-.172.301-.345v-.603zm17.619-12.547v3.923l-.043 9.227c0 .173.129.302.301.302h.82c.172 0 .301-.13.301-.302l-.043-9.227v-4.139c0-6.252-2.716-9.054-7.157-9.054-3.967 0-6.468 2.845-7.675 5.476l.086-12.677a.295.295 0 00-.301-.301h-.82a.295.295 0 00-.301.301l.086 14.401-.086 15.22c0 .173.129.302.302.302h.819c.172 0 .301-.13.301-.302l-.086-14.746c1.725-3.923 4.01-6.553 7.502-6.553 3.622 0 5.994 2.199 5.994 8.149zm22.064 5.519c-.172 0-.301.129-.345.301-.733 4.269-3.104 6.942-7.502 6.942-5.562 0-8.364-3.967-8.364-10.348v-.43H89.51c.173 0 .302-.13.302-.303-.086-6.941-3.578-10.865-9.184-10.865-5.777 0-9.485 4.829-9.485 11.598 0 6.856 3.363 11.47 9.787 11.47 5.174 0 7.977-2.933 8.84-8.064 0-.172-.087-.301-.26-.301h-.733zm-.43-4.743H72.652c.431-5.347 3.234-8.839 7.976-8.839 5.045 0 7.718 3.88 7.718 8.839zm15.797 1.25c0-4.743 1.897-7.588 5.648-7.502 3.492.043 5.476 2.846 5.433 7.89-.044 4.915-2.07 7.33-5.476 7.33-3.665.043-5.605-2.673-5.605-7.718zm15.996 10.434l-.086-10.908.129-9.874a.464.464 0 00-.431-.43h-4.355a.463.463 0 00-.431.43l.129 2.458c-1.509-2.113-3.751-3.234-6.683-3.234-5.993 0-9.528 5.088-9.528 11.34 0 6.295 3.363 11.08 9.744 11.08 2.932 0 5.174-1.293 6.64-3.492v2.544c0 4.182-2.156 5.993-5.433 5.993-2.846 0-4.7-1.164-5.045-3.363-.043-.259-.215-.431-.474-.431h-4.268c-.216 0-.431.216-.388.431.388 4.786 4.613 7.071 10.046 6.985 6.812 0 10.477-3.579 10.434-9.529zm7.97.992a.463.463 0 00.431-.431l-.172-14.746.172-14.573a.463.463 0 00-.431-.431h-4.355a.464.464 0 00-.431.43l.172 14.574-.172 14.746c0 .215.216.431.431.431h4.355zm24.887-11.167c0-7.028-3.923-11.555-10.908-11.555-6.985 0-10.995 4.656-10.995 11.684s4.01 11.555 10.995 11.555c6.985 0 10.908-4.613 10.908-11.684zm-16.599.172c0-5.26 1.811-8.02 5.648-8.062 3.751 0 5.605 2.759 5.605 8.02 0 5.303-1.811 7.89-5.562 7.89-3.794 0-5.691-2.63-5.691-7.848zm40.307-.172c0-6.468-3.277-11.469-9.399-11.469-2.932 0-5.217 1.25-6.77 3.363l.044-10.477c0-.216-.216-.431-.432-.431h-4.397c-.216 0-.432.215-.432.43l.173 14.014-.173 15.306c0 .215.216.431.432.431h4.397c.216 0 .432-.216.432-.431l-.087-2.415c1.509 2.156 3.751 3.277 6.683 3.277 5.95 0 9.529-5.174 9.529-11.598zm-16.341-.173c.043-5.001 2.07-7.545 5.519-7.545 3.665-.043 5.519 2.932 5.519 7.977 0 4.7-1.854 7.674-5.605 7.588-3.536-.043-5.476-2.889-5.433-8.02zm23.361-.043c0-4.742 1.81-7.631 5.605-7.588 3.492.043 5.475 2.889 5.432 8.02-.043 5.13-2.069 7.717-5.562 7.717-3.621 0-5.475-2.975-5.475-8.149zM199.334 74a.464.464 0 00.431-.431l-.13-10.736.13-10.607a.464.464 0 00-.431-.43h-4.398a.463.463 0 00-.431.43l.129 2.415c-1.509-2.156-3.794-3.277-6.726-3.277-5.95 0-9.486 5.174-9.486 11.598 0 6.468 3.234 11.47 9.4 11.47 2.975 0 5.303-1.294 6.812-3.493l-.086 2.63c0 .215.215.431.431.431h4.355zm8.399 0a.464.464 0 00.431-.431l-.172-14.746.172-14.573a.464.464 0 00-.431-.431h-4.355a.464.464 0 00-.431.43l.172 14.574-.172 14.746c0 .215.216.431.431.431h4.355zM9.183 98.676h4.83a.464.464 0 00.431-.432v-3.018a.464.464 0 00-.431-.43h-4.83v-1.208c0-2.5 1.036-3.363 2.63-3.363.863 0 1.596.086 2.2.215.215.087.431-.086.431-.301v-2.975a.512.512 0 00-.431-.518c-.949-.13-2.2-.302-3.363-.302-3.277 0-6.554 1.811-6.554 6.77v1.681H1.078a.464.464 0 00-.431.431v3.018c0 .216.215.432.43.432h3.019v8.45l-.172 9.443c0 .215.215.431.43.431h4.571a.464.464 0 00.431-.431l-.172-9.443v-8.45zm12.486-6.21a.464.464 0 00.43-.43v-4.269a.464.464 0 00-.43-.431H17.27a.464.464 0 00-.431.431v4.269c0 .215.215.43.43.43h4.399zM21.712 117a.464.464 0 00.43-.431l-.128-10.822.129-10.52a.464.464 0 00-.431-.432h-4.484a.464.464 0 00-.431.431l.172 10.521-.172 10.822c0 .215.215.431.43.431h4.485zm8.544 0a.464.464 0 00.431-.431l-.086-9.011v-2.415c.431-4.613 2.846-6.812 5.476-6.812 2.371 0 4.053 1.638 4.053 4.786v4.441l-.13 9.011c0 .215.216.431.432.431h4.44a.464.464 0 00.432-.431l-.13-9.011v-4.571c0-5.605-2.931-8.71-7.588-8.71-3.32 0-5.82 1.682-7.244 3.752l.087-2.803a.464.464 0 00-.431-.43h-4.183a.464.464 0 00-.431.43l.086 11.34-.13 10.003c0 .215.216.431.432.431h4.484zm22.52-11.383c0-4.742 1.812-7.631 5.606-7.588 3.492.043 5.476 2.889 5.433 8.019-.044 5.131-2.07 7.718-5.563 7.718-3.621 0-5.475-2.975-5.475-8.149zM68.386 117a.464.464 0 00.43-.431l-.128-10.736.129-10.607a.464.464 0 00-.431-.43h-4.398a.464.464 0 00-.431.43l.13 2.415c-1.51-2.156-3.795-3.277-6.727-3.277-5.95 0-9.486 5.174-9.486 11.598 0 6.468 3.234 11.469 9.4 11.469 2.975 0 5.303-1.293 6.812-3.492l-.086 2.63c0 .215.216.431.431.431h4.355zm8.356 0a.464.464 0 00.431-.431l-.086-9.011v-2.415c.431-4.613 2.846-6.812 5.476-6.812 2.371 0 4.053 1.638 4.053 4.786v4.441l-.13 9.011c0 .215.216.431.431.431h4.441a.464.464 0 00.431-.431l-.129-9.011v-4.571c0-5.605-2.932-8.71-7.588-8.71-3.32 0-5.821 1.682-7.244 3.752l.086-2.803a.464.464 0 00-.43-.43H72.3a.464.464 0 00-.431.43l.086 11.34-.13 10.003c0 .215.216.431.432.431h4.484zm38.085-8.02c.044-.215-.172-.431-.388-.431h-4.009a.503.503 0 00-.475.431c-.345 3.191-2.285 4.916-5.044 4.873-3.795-.044-5.605-2.587-5.605-7.934 0-5.174 1.81-7.933 5.605-7.933 2.414 0 4.268 1.38 4.786 4.182a.511.511 0 00.517.431h3.967c.215 0 .431-.215.388-.431-.518-4.7-4.053-7.89-9.658-7.89-6.985 0-10.952 4.656-10.952 11.684s3.967 11.555 10.865 11.555c5.735 0 9.529-3.578 10.003-8.537zm7.181-16.513a.464.464 0 00.431-.431v-4.269a.464.464 0 00-.431-.431h-4.398a.463.463 0 00-.431.431v4.269c0 .215.215.43.431.43h4.398zM122.05 117a.464.464 0 00.431-.431l-.129-10.822.129-10.52a.464.464 0 00-.431-.432h-4.484c-.216 0-.432.216-.432.431l.173 10.521-.173 10.822c0 .215.216.431.432.431h4.484zm8.285-11.383c0-4.742 1.811-7.631 5.606-7.588 3.492.043 5.475 2.889 5.432 8.019-.043 5.131-2.069 7.718-5.562 7.718-3.622 0-5.476-2.975-5.476-8.149zM145.944 117a.464.464 0 00.431-.431l-.13-10.736.13-10.607a.464.464 0 00-.431-.43h-4.398a.463.463 0 00-.431.43l.129 2.415c-1.509-2.156-3.794-3.277-6.726-3.277-5.95 0-9.486 5.174-9.486 11.598 0 6.468 3.234 11.469 9.4 11.469 2.975 0 5.303-1.293 6.812-3.492l-.086 2.63c0 .215.215.431.431.431h4.355zm8.399 0a.464.464 0 00.431-.431l-.172-14.746.172-14.573a.464.464 0 00-.431-.431h-4.355a.463.463 0 00-.431.43l.172 14.574-.172 14.746c0 .215.215.431.431.431h4.355zM6.424 160a.464.464 0 00.431-.431l-.086-9.011v-2.415c.431-4.613 2.846-6.812 5.476-6.812 2.371 0 4.053 1.638 4.053 4.786v4.441l-.13 9.011c0 .215.216.431.432.431h4.44a.464.464 0 00.432-.431l-.13-9.011v-4.571c0-5.605-2.931-8.709-7.588-8.709-3.32 0-5.82 1.681-7.243 3.751l.086-2.803a.464.464 0 00-.431-.431H1.983a.464.464 0 00-.43.431l.085 11.34-.129 10.003c0 .215.216.431.431.431h4.484zm33.904-7.588a.512.512 0 00-.518.431c-.647 2.716-2.371 4.01-5.088 4.01-3.75 0-5.648-2.243-5.863-6.985H44.94a.464.464 0 00.431-.431c-.13-7.546-4.053-12.159-10.908-12.159-6.726 0-10.822 4.656-10.822 11.684 0 6.769 3.837 11.555 10.994 11.555 5.95 0 9.572-3.449 10.219-7.674 0-.216-.173-.431-.388-.431h-4.14zm-.561-6.037H29.031c.56-3.578 2.372-5.476 5.476-5.476 3.406 0 5.088 2.587 5.26 5.476zm19.55 10.089c0-.215-.216-.388-.432-.301a8.75 8.75 0 01-2.328.301c-1.638 0-2.587-.689-2.587-2.931l-.043-11.857h5.002c.215 0 .43-.216.43-.432v-3.018a.464.464 0 00-.43-.431H53.97l.043-5.131a.464.464 0 00-.43-.431h-4.399a.464.464 0 00-.43.431l.085 5.131h-2.457a.464.464 0 00-.431.431v3.018c0 .216.215.432.43.432h2.458l-.043 11.986c0 4.958 3.148 6.726 6.64 6.726 1.164 0 2.415-.259 3.492-.604a.613.613 0 00.389-.56v-2.76zM85.346 160a.512.512 0 00.517-.431l5.088-21.343a.365.365 0 00-.345-.431H86.64a.513.513 0 00-.518.431l-3.363 17.161-3.665-17.161a.513.513 0 00-.517-.431h-5.39a.513.513 0 00-.517.431l-3.665 17.505-3.406-17.505a.513.513 0 00-.518-.431h-4.354a.365.365 0 00-.345.431l5.26 21.343a.512.512 0 00.517.431h5.174a.512.512 0 00.518-.431l3.621-17.376 4.096 17.376a.512.512 0 00.518.431h5.26zm27.652-11.167c0-7.028-3.924-11.555-10.908-11.555-6.985 0-10.995 4.656-10.995 11.684s4.01 11.555 10.995 11.555c6.984 0 10.908-4.613 10.908-11.684zm-16.6.172c0-5.26 1.811-8.019 5.648-8.062 3.752 0 5.606 2.759 5.606 8.019 0 5.304-1.811 7.891-5.562 7.891-3.795 0-5.692-2.631-5.692-7.848zM120.15 160a.464.464 0 00.431-.431l-.086-10.391c.259-5.002 3.535-7.416 7.718-7.416.345 0 .69 0 .991.043.216 0 .431-.173.431-.388v-3.191a.554.554 0 00-.431-.517 9.103 9.103 0 00-1.078-.086c-3.19 0-6.122 1.379-7.761 4.096l.173-3.493a.464.464 0 00-.431-.431h-4.355a.463.463 0 00-.431.431l.172 10.564-.172 10.779c0 .215.215.431.431.431h4.398zm24.535-.388c.129.216.388.388.647.388h5.174c.215 0 .302-.216.215-.388l-8.062-13.754 6.984-7.761c.13-.129.044-.302-.129-.302h-4.915a.984.984 0 00-.733.345l-7.416 8.58v-1.854l.172-14.616a.463.463 0 00-.431-.431h-4.355a.463.463 0 00-.431.431l.173 14.702-.173 14.617c0 .215.216.431.431.431h4.355a.463.463 0 00.431-.431l-.086-7.071 2.458-2.889 3.751 6.209 1.94 3.794z" fill="#fff"/></svg>