<svg width="366" height="67" viewBox="0 0 366 67" fill="none" xmlns="http://www.w3.org/2000/svg"><path d="M10.114 40.979c0-2.87-1.946-4.984-4.76-4.984-2.813 0-4.76 2.114-4.76 4.984s1.947 4.984 4.76 4.984c2.814 0 4.76-2.114 4.76-4.984zm-7.868 0c0-2.072 1.247-3.57 3.108-3.57 1.862 0 3.109 1.498 3.109 3.57s-1.246 3.57-3.108 3.57c-1.863 0-3.109-1.498-3.109-3.57zm12.963-2.352c-1.12 0-1.862.518-2.338 1.148l-.182-1.064h-1.316v9.968h1.512V44.87c.448.644 1.218 1.092 2.324 1.092 1.96 0 3.388-1.456 3.388-3.668 0-2.296-1.428-3.668-3.388-3.668zm-.252 6.062c-1.26 0-2.086-.994-2.086-2.422 0-1.386.826-2.352 2.086-2.352 1.26 0 2.1.966 2.1 2.38 0 1.4-.84 2.394-2.1 2.394zm8.254 1.274c1.778 0 2.982-1.078 3.234-2.492h-1.512c-.21.798-.882 1.26-1.806 1.26-1.19 0-1.96-.798-2.002-2.016v-.098h5.404c.028-.196.042-.392.042-.574-.042-2.1-1.428-3.416-3.5-3.416-2.114 0-3.528 1.47-3.528 3.682 0 2.198 1.414 3.654 3.668 3.654zm-2.03-4.452c.112-1.022.938-1.666 1.904-1.666 1.05 0 1.792.602 1.918 1.666H21.18zm10.392-2.884c-1.162 0-1.848.462-2.296 1.022l-.168-.938h-1.316v7.168h1.512v-3.612c0-1.456.714-2.338 1.918-2.338 1.134 0 1.708.728 1.708 2.086v3.864h1.526v-3.99c0-2.394-1.302-3.262-2.884-3.262zm14.393 5.936c-.308 0-.462-.098-.462-.462v-2.87c0-1.694-1.092-2.604-2.996-2.604-1.806 0-3.01.868-3.164 2.268h1.484c.112-.63.714-1.05 1.61-1.05.994 0 1.568.49 1.568 1.288v.434H42.2c-2.002 0-3.066.826-3.066 2.296 0 1.33 1.092 2.1 2.66 2.1 1.162 0 1.89-.504 2.366-1.232 0 .714.336 1.148 1.316 1.148h.798v-1.316h-.308zm-1.96-1.624c-.014 1.106-.742 1.848-2.002 1.848-.826 0-1.33-.42-1.33-1.022 0-.728.518-1.078 1.456-1.078h1.876v.252zm6.366.574c.042 1.554 1.358 2.45 3.276 2.45 1.736 0 3.038-.868 3.038-2.24 0-1.596-1.33-1.932-2.968-2.128-1.036-.112-1.722-.196-1.722-.868 0-.574.588-.938 1.484-.938s1.512.462 1.596 1.12h1.484c-.098-1.47-1.344-2.282-3.108-2.282-1.722-.014-2.94.868-2.94 2.226 0 1.484 1.288 1.834 2.926 2.03 1.106.14 1.764.196 1.764.966 0 .574-.616.938-1.554.938-1.092 0-1.736-.532-1.792-1.274h-1.484zm11.322-4.886c-1.12 0-1.862.518-2.338 1.148l-.182-1.064h-1.316v9.968h1.512V44.87c.448.644 1.218 1.092 2.324 1.092 1.96 0 3.388-1.456 3.388-3.668 0-2.296-1.428-3.668-3.388-3.668zm-.252 6.062c-1.26 0-2.086-.994-2.086-2.422 0-1.386.826-2.352 2.086-2.352 1.26 0 2.1.966 2.1 2.38 0 1.4-.84 2.394-2.1 2.394zm8.477-5.978c-1.176 0-1.75.476-2.114 1.078l-.168-1.078h-1.344v7.168h1.512V42.28c0-1.106.434-2.156 1.778-2.156h.672V38.71h-.336zm4.329 7.252c1.778 0 2.982-1.078 3.234-2.492H75.97c-.21.798-.882 1.26-1.806 1.26-1.19 0-1.96-.798-2.002-2.016v-.098h5.404c.028-.196.042-.392.042-.574-.042-2.1-1.428-3.416-3.5-3.416-2.114 0-3.528 1.47-3.528 3.682 0 2.198 1.414 3.654 3.668 3.654zm-2.03-4.452c.112-1.022.938-1.666 1.904-1.666 1.05 0 1.792.602 1.918 1.666h-3.822zm13.164 3.052c-.308 0-.462-.098-.462-.462v-2.87c0-1.694-1.092-2.604-2.996-2.604-1.806 0-3.01.868-3.164 2.268h1.484c.112-.63.714-1.05 1.61-1.05.994 0 1.568.49 1.568 1.288v.434h-1.806c-2.002 0-3.066.826-3.066 2.296 0 1.33 1.092 2.1 2.66 2.1 1.162 0 1.89-.504 2.366-1.232 0 .714.336 1.148 1.316 1.148h.798v-1.316h-.308zm-1.96-1.624c-.014 1.106-.742 1.848-2.002 1.848-.826 0-1.33-.42-1.33-1.022 0-.728.518-1.078 1.456-1.078h1.876v.252zm8.483-3.234c-.462-.63-1.232-1.078-2.324-1.078-1.946 0-3.388 1.456-3.388 3.668 0 2.296 1.442 3.668 3.388 3.668 1.134 0 1.876-.532 2.338-1.162l.182 1.078h1.316v-9.8h-1.512v3.626zm-2.072 4.984c-1.26 0-2.086-.98-2.086-2.394 0-1.4.826-2.38 2.086-2.38 1.26 0 2.086.98 2.086 2.408 0 1.386-.826 2.366-2.086 2.366zm12.48-6.062c-1.106 0-1.848.504-2.324 1.148v-3.696h-1.512v9.8h1.316l.182-1.036c.448.644 1.218 1.12 2.338 1.12 1.96 0 3.388-1.47 3.388-3.668 0-2.31-1.428-3.668-3.388-3.668zm-.252 6.062c-1.26 0-2.086-.994-2.086-2.408 0-1.386.826-2.366 2.086-2.366 1.26 0 2.1.98 2.1 2.38 0 1.414-.84 2.394-2.1 2.394zm8.253 1.274c1.778 0 2.982-1.078 3.234-2.492h-1.512c-.21.798-.882 1.26-1.806 1.26-1.19 0-1.96-.798-2.002-2.016v-.098h5.404c.028-.196.042-.392.042-.574-.042-2.1-1.428-3.416-3.5-3.416-2.114 0-3.528 1.47-3.528 3.682 0 2.198 1.414 3.654 3.668 3.654zm-2.03-4.452c.112-1.022.938-1.666 1.904-1.666 1.05 0 1.792.602 1.918 1.666h-3.822zm13.614 3.038c-.532 0-.742-.21-.742-.77V40.04h1.736v-1.33h-1.736v-2.002h-1.512v2.002h-2.758v-2.002h-1.526v2.002h-1.246v1.33h1.246v3.892c0 1.302.588 1.946 1.96 1.946h1.246v-1.33h-.938c-.546 0-.742-.21-.742-.77V40.04h2.758v3.892c0 1.302.574 1.946 1.946 1.946h1.456v-1.33h-1.148zm2.888-6.846c.518 0 .924-.378.924-.91s-.406-.91-.924-.91-.924.378-.924.91.406.91.924.91zm-.77 8.176h1.512V38.71h-1.512v7.168zm6.774-7.252c-1.162 0-1.848.462-2.296 1.022l-.168-.938h-1.316v7.168h1.512v-3.612c0-1.456.714-2.338 1.918-2.338 1.134 0 1.708.728 1.708 2.086v3.864h1.526v-3.99c0-2.394-1.302-3.262-2.884-3.262zm9.733 1.204c-.462-.714-1.232-1.204-2.352-1.204-1.946 0-3.388 1.442-3.388 3.64 0 2.282 1.442 3.64 3.388 3.64 1.12 0 1.862-.462 2.338-1.176v.798c0 1.372-.742 2.002-2.058 2.002-1.064 0-1.764-.462-1.946-1.26h-1.54c.14 1.61 1.47 2.492 3.374 2.492 2.576 0 3.668-1.232 3.668-3.178V38.71h-1.316l-.168 1.12zm-2.1 4.802c-1.26 0-2.086-.966-2.086-2.366 0-1.386.826-2.366 2.086-2.366 1.26 0 2.086.98 2.086 2.394 0 1.372-.826 2.338-2.086 2.338zm15.196-.07c-.308 0-.462-.098-.462-.462v-2.87c0-1.694-1.092-2.604-2.996-2.604-1.806 0-3.01.868-3.164 2.268h1.484c.112-.63.714-1.05 1.61-1.05.994 0 1.568.49 1.568 1.288v.434h-1.806c-2.002 0-3.066.826-3.066 2.296 0 1.33 1.092 2.1 2.66 2.1 1.162 0 1.89-.504 2.366-1.232 0 .714.336 1.148 1.316 1.148h.798v-1.316h-.308zm-1.96-1.624c-.014 1.106-.742 1.848-2.002 1.848-.826 0-1.33-.42-1.33-1.022 0-.728.518-1.078 1.456-1.078h1.876v.252zm6.326 3.024c1.834 0 3.052-1.022 3.332-2.646h-1.596c-.182.826-.798 1.358-1.722 1.358-1.218 0-2.016-.966-2.016-2.366 0-1.414.798-2.394 2.016-2.394.938 0 1.54.518 1.736 1.358h1.582c-.294-1.624-1.442-2.646-3.29-2.646-2.17 0-3.598 1.47-3.598 3.682 0 2.24 1.386 3.654 3.556 3.654zm7.78 0c1.834 0 3.052-1.022 3.332-2.646h-1.596c-.182.826-.798 1.358-1.722 1.358-1.218 0-2.016-.966-2.016-2.366 0-1.414.798-2.394 2.016-2.394.938 0 1.54.518 1.736 1.358h1.582c-.294-1.624-1.442-2.646-3.29-2.646-2.17 0-3.598 1.47-3.598 3.682 0 2.24 1.386 3.654 3.556 3.654zm7.877 0c2.184 0 3.654-1.47 3.654-3.668 0-2.184-1.47-3.668-3.654-3.668s-3.654 1.484-3.654 3.668c0 2.198 1.47 3.668 3.654 3.668zm0-1.288c-1.274 0-2.1-.994-2.1-2.38s.826-2.38 2.1-2.38 2.114.994 2.114 2.38-.84 2.38-2.114 2.38zm9.784-2.38c0 1.484-.7 2.352-1.848 2.352-1.106 0-1.666-.714-1.666-2.114V38.71H178.4v3.99c0 2.45 1.302 3.262 2.828 3.262 1.106 0 1.764-.448 2.212-.994l.168.91h1.33V38.71h-1.512v3.584zm6.782-3.668c-1.162 0-1.848.462-2.296 1.022l-.168-.938h-1.316v7.168h1.512v-3.612c0-1.456.714-2.338 1.918-2.338 1.134 0 1.708.728 1.708 2.086v3.864h1.526v-3.99c0-2.394-1.302-3.262-2.884-3.262zm4.777 5.306c0 1.302.588 1.946 1.96 1.946h1.4v-1.33h-1.064c-.574 0-.77-.21-.77-.77V40.04h1.75v-1.33h-1.75v-2.002h-1.526v2.002h-1.246v1.33h1.246v3.892zm9.915 1.946h.77l2.1-5.964 2.002 5.964h.77l2.52-7.098h-.728l-2.184 6.244-2.03-6.244h-.658l-2.142 6.244-2.072-6.244h-.756l2.408 7.098zm9.525-8.596c.28 0 .504-.21.504-.504a.493.493 0 00-.504-.504c-.28 0-.504.21-.504.504 0 .294.224.504.504.504zm-.364 8.596h.714V38.78h-.714v7.098zm2.925-1.652c0 1.134.462 1.652 1.666 1.652h1.036v-.658h-.98c-.742 0-1.008-.28-1.008-1.008v-4.774h1.918v-.658H217.7v-1.988h-.714v1.988h-1.344v.658h1.344v4.788zm7.064-5.53c-1.33 0-2.156.742-2.562 1.764v-4.382h-.714v9.8h.714v-3.5c0-1.848.938-3.024 2.45-3.024 1.358 0 2.198.896 2.198 2.576v3.948h.714v-3.976c0-2.24-1.19-3.206-2.8-3.206zm12.479 7.266c2.1 0 3.584-1.134 4.004-3.108h-.798c-.42 1.568-1.554 2.408-3.22 2.408-2.268 0-3.696-1.778-3.696-4.284s1.456-4.284 3.724-4.284c1.638 0 2.786.854 3.22 2.394h.798c-.434-1.96-1.918-3.094-3.976-3.094-2.758 0-4.55 2.044-4.55 4.984 0 2.968 1.75 4.984 4.494 4.984zm5.828-8.68c.28 0 .504-.21.504-.504a.493.493 0 00-.504-.504c-.28 0-.504.21-.504.504 0 .294.224.504.504.504zm-.364 8.596h.714V38.78h-.714v7.098zm2.924-1.652c0 1.134.462 1.652 1.666 1.652h1.036v-.658h-.98c-.742 0-1.008-.28-1.008-1.008v-4.774h1.918v-.658h-1.918v-1.988h-.714v1.988h-1.344v.658h1.344v4.788zm5.917 1.652l-.462 1.148c-.322.784-.448.994-1.176.994h-.896v.658h1.092c.952 0 1.176-.364 1.624-1.484l3.402-8.414h-.77l-2.422 6.174-2.464-6.174h-.77l2.842 7.098zm8.485 0h.756v-9.8h-.756v9.8zm5.883-7.182c-1.302 0-2.142.672-2.548 1.596l-.112-1.512h-.616v7.098h.714v-3.5c0-1.848.938-3.024 2.45-3.024 1.372 0 2.198.896 2.198 2.576v3.948h.714v-3.976c0-2.24-1.19-3.206-2.8-3.206zm10.067 1.68c-.434-1.008-1.386-1.68-2.716-1.68-1.946 0-3.346 1.484-3.346 3.626 0 2.24 1.4 3.64 3.346 3.64 1.33 0 2.254-.714 2.702-1.708l.112 1.624h.616v-9.8h-.714v4.298zm-2.66 4.942c-1.582 0-2.674-1.232-2.674-2.996 0-1.75 1.092-2.996 2.674-2.996 1.582 0 2.674 1.246 2.674 3.01 0 1.75-1.092 2.982-2.674 2.982zm8.19.644c1.554 0 2.744-1.008 3.052-2.436h-.728c-.28 1.106-1.218 1.792-2.38 1.792-1.582 0-2.576-1.204-2.604-2.856v-.126h5.796c0-.098.014-.21.014-.294-.07-2.114-1.372-3.346-3.276-3.346-1.946 0-3.276 1.484-3.276 3.584 0 2.226 1.386 3.682 3.402 3.682zm-2.604-4.228c.112-1.442 1.19-2.408 2.492-2.408 1.386 0 2.38.854 2.492 2.408h-4.984zm6.163 4.144h.826l2.352-3.122 2.352 3.122h.868l-2.758-3.626 2.618-3.472h-.812l-2.24 2.94-2.212-2.94h-.854l2.618 3.472-2.758 3.626zm11.624-1.652c0 1.134.462 1.652 1.666 1.652h1.036v-.658h-.98c-.742 0-1.008-.28-1.008-1.008v-4.774h1.918v-.658h-1.918v-1.988h-.714v1.988h-1.344v.658h1.344v4.788zm6.705 1.736c2.002 0 3.416-1.484 3.416-3.64 0-2.142-1.414-3.626-3.416-3.626s-3.402 1.484-3.402 3.626c0 2.156 1.4 3.64 3.402 3.64zm0-.644c-1.582 0-2.674-1.232-2.674-2.996 0-1.75 1.092-2.996 2.674-2.996 1.582 0 2.674 1.246 2.674 2.996 0 1.764-1.092 2.996-2.674 2.996zm10.631-4.942c-.434-1.008-1.386-1.68-2.716-1.68-1.946 0-3.346 1.484-3.346 3.626 0 2.24 1.4 3.64 3.346 3.64 1.33 0 2.254-.714 2.702-1.708l.112 1.624h.616v-9.8h-.714v4.298zm-2.66 4.942c-1.582 0-2.674-1.232-2.674-2.996 0-1.75 1.092-2.996 2.674-2.996 1.582 0 2.674 1.246 2.674 3.01 0 1.75-1.092 2.982-2.674 2.982zm11.297-.098c-.42 0-.63-.14-.63-.686V41.23c0-1.624-.994-2.534-2.772-2.534-1.624 0-2.702.784-2.884 2.072h.714c.182-.868.938-1.442 2.142-1.442 1.33 0 2.086.7 2.086 1.876v.616h-2.408c-1.82 0-2.8.784-2.8 2.114 0 1.26.994 2.03 2.506 2.03 1.442 0 2.296-.658 2.73-1.54v.252c-.028.84.322 1.204 1.162 1.204h.42v-.658h-.266zm-1.344-2.212c0 1.358-.966 2.338-2.646 2.338-1.134 0-1.834-.574-1.834-1.456 0-.938.7-1.456 2.016-1.456h2.464v.574zm4.461 2.87l-.462 1.148c-.322.784-.448.994-1.176.994h-.896v.658h1.092c.952 0 1.176-.364 1.624-1.484l3.402-8.414h-.77l-2.422 6.174L323 38.78h-.77l2.842 7.098z" fill="#000"/><path d="M.55 8.558h5.939V25H9.65V8.558h5.94V5.754H.55v2.804zm22.85 2.365c-2.31 0-3.438.935-4.152 2.117l-.33-2.117h-2.64V25h2.97v-7.066c0-2.172.852-4.234 3.491-4.234h1.32v-2.777h-.66zm14.928 11.493c-.605 0-.907-.193-.907-.908v-5.636c0-3.327-2.145-5.114-5.884-5.114-3.547 0-5.911 1.705-6.214 4.454h2.915c.22-1.237 1.402-2.062 3.162-2.062 1.952 0 3.079.962 3.079 2.53v.852h-3.547c-3.931 0-6.021 1.622-6.021 4.509 0 2.612 2.145 4.124 5.224 4.124 2.282 0 3.712-.99 4.646-2.42 0 1.403.66 2.255 2.585 2.255h1.567v-2.584h-.605zm-3.849-3.19c-.027 2.172-1.457 3.63-3.932 3.63-1.622 0-2.612-.825-2.612-2.008 0-1.43 1.018-2.117 2.86-2.117h3.684v.495zm16.66-6.35c-.908-1.238-2.42-2.118-4.565-2.118-3.821 0-6.653 2.86-6.653 7.204 0 4.509 2.832 7.203 6.653 7.203 2.227 0 3.684-1.045 4.592-2.282L51.523 25h2.585V5.754h-2.97v7.121zm-4.07 9.787c-2.474 0-4.096-1.925-4.096-4.701 0-2.75 1.622-4.675 4.096-4.675 2.475 0 4.097 1.925 4.097 4.73 0 2.721-1.622 4.646-4.097 4.646zm11.453-13.72c1.017 0 1.814-.742 1.814-1.787S59.54 5.37 58.522 5.37c-1.018 0-1.815.742-1.815 1.787s.797 1.787 1.815 1.787zM57.009 25h2.97V10.923h-2.97V25zm13.304-14.242c-2.282 0-3.63.907-4.51 2.007l-.329-1.842h-2.585V25h2.97v-7.093c0-2.86 1.402-4.592 3.767-4.592 2.227 0 3.354 1.43 3.354 4.097V25h2.997v-7.836c0-4.701-2.557-6.406-5.664-6.406zm19.114 2.365c-.907-1.403-2.419-2.365-4.619-2.365-3.821 0-6.653 2.832-6.653 7.149 0 4.481 2.832 7.148 6.653 7.148 2.2 0 3.657-.907 4.592-2.31v1.568c0 2.694-1.457 3.931-4.042 3.931-2.09 0-3.464-.907-3.821-2.474h-3.025c.275 3.162 2.887 4.894 6.626 4.894 5.06 0 7.204-2.42 7.204-6.241v-13.5h-2.585l-.33 2.2zm-4.124 9.43c-2.474 0-4.096-1.897-4.096-4.646 0-2.722 1.622-4.647 4.096-4.647 2.475 0 4.097 1.925 4.097 4.702 0 2.694-1.622 4.591-4.097 4.591zM105.523 25h3.216l3.08-9.568L114.788 25h3.189l4.674-14.077h-3.024L116.3 21.701l-3.079-10.778h-2.722l-3.217 10.778-3.217-10.778h-3.134L105.523 25zm20.204-16.057c1.017 0 1.814-.742 1.814-1.787s-.797-1.787-1.814-1.787c-1.018 0-1.815.742-1.815 1.787s.797 1.787 1.815 1.787zM124.214 25h2.97V10.923h-2.97V25zm6.898-3.822c0 2.557 1.155 3.822 3.849 3.822h2.749v-2.612h-2.089c-1.127 0-1.512-.412-1.512-1.512v-7.341h3.437v-2.612h-3.437V6.991h-2.997v3.932h-2.447v2.612h2.447v7.643zm15.883-10.42c-2.199 0-3.546.99-4.426 2.2V5.753h-2.97V25h2.97v-7.121c0-2.832 1.429-4.564 3.766-4.564 2.2 0 3.382 1.43 3.382 4.097V25h2.97v-7.836c0-4.701-2.557-6.406-5.692-6.406zm14.938 14.407c4.289 0 7.176-2.887 7.176-7.203 0-4.29-2.887-7.204-7.176-7.204s-7.176 2.914-7.176 7.204c0 4.316 2.887 7.203 7.176 7.203zm0-2.53c-2.502 0-4.124-1.952-4.124-4.674 0-2.721 1.622-4.673 4.124-4.673s4.152 1.952 4.152 4.674c0 2.721-1.65 4.674-4.152 4.674zm19.214-4.674c0 2.915-1.374 4.62-3.629 4.62-2.172 0-3.272-1.403-3.272-4.152v-7.506h-2.969v7.836c0 4.811 2.557 6.406 5.554 6.406 2.172 0 3.464-.88 4.344-1.952l.33 1.787h2.612V10.923h-2.97v7.039zm6.994 3.217c0 2.557 1.155 3.822 3.849 3.822h2.749v-2.612h-2.089c-1.127 0-1.512-.412-1.512-1.512v-7.341h3.436v-2.612h-3.436V6.991h-2.997v3.932h-2.447v2.612h2.447v7.643zm16.539 0c0 2.557 1.155 3.822 3.85 3.822h2.749v-2.612h-2.09c-1.127 0-1.512-.412-1.512-1.512v-7.341h3.437v-2.612h-3.437V6.991h-2.997v3.932h-2.447v2.612h2.447v7.643zm15.884-10.42c-2.2 0-3.547.99-4.427 2.2V5.753h-2.969V25h2.969v-7.121c0-2.832 1.43-4.564 3.767-4.564 2.199 0 3.382 1.43 3.382 4.097V25h2.969v-7.836c0-4.701-2.557-6.406-5.691-6.406zm14.965 14.407c3.492 0 5.856-2.117 6.351-4.894h-2.969c-.412 1.567-1.732 2.474-3.547 2.474-2.337 0-3.849-1.567-3.931-3.959v-.192h10.612c.055-.385.083-.77.083-1.127-.083-4.124-2.805-6.709-6.874-6.709-4.151 0-6.928 2.887-6.928 7.231 0 4.317 2.777 7.176 7.203 7.176zm-3.986-8.743c.22-2.007 1.842-3.272 3.739-3.272 2.062 0 3.519 1.182 3.766 3.272h-7.505zm21.037 4.756c0 2.557 1.155 3.822 3.85 3.822h2.749v-2.612h-2.09c-1.127 0-1.512-.412-1.512-1.512v-7.341h3.437v-2.612h-3.437V6.991h-2.997v3.932h-2.447v2.612h2.447v7.643zm21.194 1.238c-.605 0-.907-.193-.907-.908v-5.636c0-3.327-2.145-5.114-5.884-5.114-3.547 0-5.911 1.705-6.214 4.454h2.915c.22-1.237 1.402-2.062 3.162-2.062 1.952 0 3.079.962 3.079 2.53v.852h-3.547c-3.932 0-6.021 1.622-6.021 4.509 0 2.612 2.144 4.124 5.224 4.124 2.282 0 3.712-.99 4.646-2.42 0 1.403.66 2.255 2.585 2.255h1.567v-2.584h-.605zm-3.849-3.19c-.028 2.172-1.457 3.63-3.932 3.63-1.622 0-2.612-.825-2.612-2.008 0-1.43 1.018-2.117 2.86-2.117h3.684v.495zM274.539 25h3.272l3.712-5.114L285.207 25h3.464l-5.306-7.203 5.004-6.874h-3.272l-3.437 4.757-3.354-4.757h-3.464l4.976 6.874L274.539 25z" fill="url(#paint0_linear_1248_7074)"/><defs><linearGradient id="paint0_linear_1248_7074" x1="289" y1="19" x2="0" y2="19" gradientUnits="userSpaceOnUse"><stop stop-color="#FF4343"/><stop offset=".5" stop-color="#9C0B93"/><stop offset="1" stop-color="#4C1BB7"/></linearGradient></defs></svg>