<svg width="252" height="71" viewBox="0 0 252 71" fill="none" xmlns="http://www.w3.org/2000/svg"><path d="M.66 4.266h7.128V24h3.795V4.266h7.128V.9H.66v3.366zm22.079.462c1.22 0 2.178-.891 2.178-2.145S23.96.438 22.739.438s-2.178.891-2.178 2.145.957 2.145 2.178 2.145zM20.924 24h3.564V7.104h-3.564V24zm19.96-14.256c-1.089-1.683-2.904-2.838-5.544-2.838-4.587 0-7.986 3.399-7.986 8.58 0 5.379 3.4 8.58 7.986 8.58 2.64 0 4.39-1.089 5.511-2.772v1.881c0 3.234-1.749 4.719-4.85 4.719-2.509 0-4.159-1.089-4.588-2.97h-3.63c.33 3.795 3.465 5.874 7.953 5.874 6.072 0 8.646-2.904 8.646-7.491V7.104H41.28l-.396 2.64zm-4.95 11.319c-2.97 0-4.917-2.277-4.917-5.577 0-3.267 1.947-5.577 4.917-5.577 2.97 0 4.917 2.31 4.917 5.643 0 3.234-1.947 5.511-4.917 5.511zM56.742 6.906c-2.64 0-4.257 1.188-5.313 2.64V.9h-3.564V24h3.564v-8.547c0-3.399 1.716-5.478 4.521-5.478 2.64 0 4.06 1.716 4.06 4.917V24h3.563v-9.405c0-5.643-3.069-7.689-6.83-7.689zm11.293 12.507c0 3.069 1.386 4.587 4.62 4.587h3.3v-3.135h-2.508c-1.353 0-1.815-.495-1.815-1.815v-8.811h4.125V7.104h-4.125V2.385h-3.597v4.719h-2.937v3.135h2.937v9.174zm17.905-.99c.099 3.663 3.201 5.775 7.722 5.775 4.092 0 7.161-2.046 7.161-5.28 0-3.762-3.135-4.554-6.996-5.016-2.442-.264-4.059-.462-4.059-2.046 0-1.353 1.386-2.211 3.498-2.211s3.564 1.089 3.762 2.64h3.498c-.231-3.465-3.168-5.379-7.326-5.379-4.059-.033-6.93 2.046-6.93 5.247 0 3.498 3.036 4.323 6.897 4.785 2.607.33 4.158.462 4.158 2.277 0 1.353-1.452 2.211-3.663 2.211-2.574 0-4.092-1.254-4.224-3.003H85.94zm26.687-11.517c-2.64 0-4.389 1.221-5.511 2.706l-.429-2.508h-3.102V30.6h3.564v-8.976c1.056 1.518 2.871 2.574 5.478 2.574 4.62 0 7.986-3.432 7.986-8.646 0-5.412-3.366-8.646-7.986-8.646zm-.594 14.289c-2.97 0-4.917-2.343-4.917-5.709 0-3.267 1.947-5.544 4.917-5.544 2.97 0 4.95 2.277 4.95 5.61 0 3.3-1.98 5.643-4.95 5.643zm19.983-14.091c-2.772 0-4.125 1.122-4.983 2.541l-.396-2.541h-3.168V24h3.564v-8.481c0-2.607 1.023-5.082 4.191-5.082h1.584V7.104h-.792zm10.203 17.094c4.191 0 7.029-2.541 7.623-5.874h-3.564c-.495 1.881-2.079 2.97-4.257 2.97-2.805 0-4.62-1.881-4.719-4.752v-.231h12.738c.066-.462.099-.924.099-1.353-.099-4.95-3.366-8.052-8.25-8.052-4.983 0-8.316 3.465-8.316 8.679 0 5.181 3.333 8.613 8.646 8.613zm-4.785-10.494c.264-2.409 2.211-3.927 4.488-3.927 2.475 0 4.224 1.419 4.521 3.927h-9.009zm31.03 7.194c-.726 0-1.089-.231-1.089-1.089v-6.765c0-3.993-2.574-6.138-7.062-6.138-4.257 0-7.095 2.046-7.458 5.346h3.498c.264-1.485 1.683-2.475 3.795-2.475 2.343 0 3.696 1.155 3.696 3.036v1.023h-4.257c-4.719 0-7.227 1.947-7.227 5.412 0 3.135 2.574 4.95 6.27 4.95 2.739 0 4.455-1.188 5.577-2.904 0 1.683.792 2.706 3.102 2.706h1.881v-3.102h-.726zm-4.62-3.828c-.033 2.607-1.749 4.356-4.719 4.356-1.947 0-3.135-.99-3.135-2.409 0-1.716 1.221-2.541 3.432-2.541h4.422v.594zm19.996-7.623c-1.089-1.485-2.904-2.541-5.478-2.541-4.587 0-7.986 3.432-7.986 8.646 0 5.412 3.399 8.646 7.986 8.646 2.673 0 4.422-1.254 5.511-2.739l.429 2.541h3.102V.9h-3.564v8.547zm-4.884 11.748c-2.97 0-4.917-2.31-4.917-5.643 0-3.3 1.947-5.61 4.917-5.61 2.97 0 4.917 2.31 4.917 5.676 0 3.267-1.947 5.577-4.917 5.577zm11.205-2.772c.099 3.663 3.201 5.775 7.722 5.775 4.092 0 7.161-2.046 7.161-5.28 0-3.762-3.135-4.554-6.996-5.016-2.442-.264-4.059-.462-4.059-2.046 0-1.353 1.386-2.211 3.498-2.211s3.564 1.089 3.762 2.64h3.498c-.231-3.465-3.168-5.379-7.326-5.379-4.059-.033-6.93 2.046-6.93 5.247 0 3.498 3.036 4.323 6.897 4.785 2.607.33 4.158.462 4.158 2.277 0 1.353-1.452 2.211-3.663 2.211-2.574 0-4.092-1.254-4.224-3.003h-3.498zm34.074 5.775c5.148 0 8.613-3.465 8.613-8.646 0-5.148-3.465-8.646-8.613-8.646s-8.613 3.498-8.613 8.646c0 5.181 3.465 8.646 8.613 8.646zm0-3.036c-3.003 0-4.95-2.343-4.95-5.61 0-3.267 1.947-5.61 4.95-5.61s4.983 2.343 4.983 5.61c0 3.267-1.98 5.61-4.983 5.61zm20.389-14.256c-2.739 0-4.356 1.089-5.412 2.409l-.396-2.211h-3.102V24h3.564v-8.514c0-3.432 1.683-5.511 4.521-5.511 2.673 0 4.026 1.716 4.026 4.917V24h3.597v-9.405c0-5.643-3.069-7.689-6.798-7.689zM13.86 51.988c2.145-.495 3.993-2.442 3.993-5.148 0-3.597-3.102-6.138-8.052-6.138-4.917 0-8.019 2.541-8.019 6.138 0 2.805 1.848 4.653 3.96 5.181-2.475.561-4.587 2.475-4.587 5.676 0 3.828 3.201 6.501 8.646 6.501s8.679-2.673 8.679-6.501c0-3.267-2.145-5.181-4.62-5.709zM9.801 43.54c2.64 0 4.356 1.386 4.356 3.399 0 2.046-1.716 3.432-4.356 3.432-2.607 0-4.323-1.386-4.323-3.432 0-2.013 1.716-3.399 4.323-3.399zm0 17.853c-2.904 0-4.917-1.65-4.917-3.894s2.013-3.861 4.917-3.861c2.937 0 4.95 1.617 4.95 3.861s-2.013 3.894-4.95 3.894zm11.112-8.415c0 6.963 3.729 11.22 9.108 11.22 5.379 0 9.108-4.257 9.108-11.22v-1.056c0-6.699-3.729-11.22-9.108-11.22-5.379 0-9.108 4.521-9.108 11.22v1.056zm14.52-.132c0 5.181-2.178 8.151-5.412 8.151s-5.412-2.97-5.412-8.151v-.792c0-5.148 2.178-8.151 5.412-8.151s5.412 3.003 5.412 8.151v.792zm11.91.231h-5.248v3.003h5.247v5.577h3.267V56.08h5.28v-3.003h-5.28V47.5h-3.267v5.577zM68.111 64h3.795v-9.768h9.042v-3.267h-9.042v-6.699h10.956V40.9H68.112V64zm24.059.198c5.147 0 8.613-3.465 8.613-8.646 0-5.148-3.466-8.646-8.614-8.646-5.148 0-8.612 3.498-8.612 8.646 0 5.181 3.464 8.646 8.612 8.646zm0-3.036c-3.004 0-4.95-2.343-4.95-5.61 0-3.267 1.947-5.61 4.95-5.61 3.002 0 4.982 2.343 4.982 5.61 0 3.267-1.98 5.61-4.983 5.61zm20.025-14.058c-2.772 0-4.125 1.122-4.983 2.541l-.396-2.541h-3.168V64h3.564v-8.481c0-2.607 1.023-5.082 4.191-5.082h1.584v-3.333h-.792zM122.4 64.198c4.191 0 7.029-2.541 7.623-5.874h-3.564c-.495 1.881-2.079 2.97-4.257 2.97-2.805 0-4.62-1.881-4.719-4.752v-.231h12.738c.066-.462.099-.924.099-1.353-.099-4.95-3.366-8.052-8.25-8.052-4.983 0-8.316 3.465-8.316 8.679 0 5.181 3.333 8.613 8.646 8.613zm-4.785-10.494c.264-2.409 2.211-3.927 4.488-3.927 2.475 0 4.224 1.419 4.521 3.927h-9.009zM130.679 64h3.927l4.455-6.138L143.483 64h4.158l-6.369-8.646 6.006-8.25h-3.927l-4.125 5.709-4.026-5.709h-4.158l5.973 8.25L130.679 64zm36.185-17.094c-2.64 0-4.389 1.221-5.511 2.706l-.429-2.508h-3.102V70.6h3.564v-8.976c1.056 1.518 2.871 2.574 5.478 2.574 4.62 0 7.986-3.432 7.986-8.646 0-5.412-3.366-8.646-7.986-8.646zm-.594 14.289c-2.97 0-4.917-2.343-4.917-5.709 0-3.267 1.947-5.544 4.917-5.544 2.97 0 4.95 2.277 4.95 5.61 0 3.3-1.98 5.643-4.95 5.643zm26.88-.297c-.726 0-1.089-.231-1.089-1.089v-6.765c0-3.993-2.574-6.138-7.062-6.138-4.257 0-7.095 2.046-7.458 5.346h3.498c.264-1.485 1.683-2.475 3.795-2.475 2.343 0 3.696 1.155 3.696 3.036v1.023h-4.257c-4.719 0-7.227 1.947-7.227 5.412 0 3.135 2.574 4.95 6.27 4.95 2.739 0 4.455-1.188 5.577-2.904 0 1.683.792 2.706 3.102 2.706h1.881v-3.102h-.726zm-4.62-3.828c-.033 2.607-1.749 4.356-4.719 4.356-1.947 0-3.135-.99-3.135-2.409 0-1.716 1.221-2.541 3.432-2.541h4.422v.594zm9.102-12.342c1.221 0 2.178-.891 2.178-2.145s-.957-2.145-2.178-2.145-2.178.891-2.178 2.145.957 2.145 2.178 2.145zM195.817 64h3.564V47.104h-3.564V64zm15.605-16.896c-2.772 0-4.125 1.122-4.983 2.541l-.396-2.541h-3.168V64h3.564v-8.481c0-2.607 1.023-5.082 4.191-5.082h1.584v-3.333h-.792zm1.974 11.319c.099 3.663 3.201 5.775 7.722 5.775 4.092 0 7.161-2.046 7.161-5.28 0-3.762-3.135-4.554-6.996-5.016-2.442-.264-4.059-.462-4.059-2.046 0-1.353 1.386-2.211 3.498-2.211s3.564 1.089 3.762 2.64h3.498c-.231-3.465-3.168-5.379-7.326-5.379-4.059-.033-6.93 2.046-6.93 5.247 0 3.498 3.036 4.323 6.897 4.785 2.607.33 4.158.462 4.158 2.277 0 1.353-1.452 2.211-3.663 2.211-2.574 0-4.092-1.254-4.224-3.003h-3.498z" fill="#000"/></svg>