<svg width="116" height="106" viewBox="0 0 116 106" fill="none" xmlns="http://www.w3.org/2000/svg"><path d="M1.472 17h2.553V5.155L8.855 17h2.231l4.83-11.845V17h2.553V.9h-3.358l-5.06 12.673L4.899.9H1.472V17zm30.456-2.162c-.506 0-.759-.161-.759-.759V9.364c0-2.783-1.794-4.278-4.922-4.278-2.967 0-4.945 1.426-5.198 3.726h2.438c.184-1.035 1.173-1.725 2.645-1.725 1.633 0 2.576.805 2.576 2.116v.713h-2.967c-3.289 0-5.037 1.357-5.037 3.772 0 2.185 1.794 3.45 4.37 3.45 1.91 0 3.105-.828 3.887-2.024 0 1.173.552 1.886 2.162 1.886h1.311v-2.162h-.506zm-3.22-2.668c-.023 1.817-1.219 3.036-3.289 3.036-1.357 0-2.185-.69-2.185-1.679 0-1.196.851-1.771 2.392-1.771h3.082v.414zm4.573.943c.07 2.553 2.231 4.025 5.382 4.025 2.852 0 4.991-1.426 4.991-3.68 0-2.622-2.185-3.174-4.876-3.496-1.702-.184-2.829-.322-2.829-1.426 0-.943.966-1.541 2.438-1.541 1.472 0 2.484.759 2.622 1.84h2.438c-.16-2.415-2.208-3.749-5.106-3.749-2.829-.023-4.83 1.426-4.83 3.657 0 2.438 2.116 3.013 4.807 3.335 1.817.23 2.898.322 2.898 1.587 0 .943-1.012 1.541-2.553 1.541-1.794 0-2.852-.874-2.944-2.093h-2.438zm13.15.69c0 2.139.965 3.197 3.22 3.197h2.3v-2.185h-1.749c-.943 0-1.265-.345-1.265-1.265V7.409h2.875V5.224h-2.875V1.935H46.43v3.289h-2.047v2.185h2.047v6.394zm12.442 3.335c2.92 0 4.899-1.771 5.313-4.094H61.7c-.345 1.311-1.449 2.07-2.967 2.07-1.955 0-3.22-1.311-3.288-3.312v-.161h8.877c.047-.322.07-.644.07-.943-.07-3.45-2.346-5.612-5.75-5.612-3.474 0-5.797 2.415-5.797 6.049 0 3.611 2.324 6.003 6.027 6.003zm-3.335-7.314c.184-1.679 1.54-2.737 3.128-2.737 1.725 0 2.944.989 3.15 2.737h-6.279zm16.82-4.6c-1.932 0-2.875.782-3.473 1.771l-.276-1.771H66.4V17h2.484v-5.911c0-1.817.713-3.542 2.92-3.542h1.105V5.224h-.552zM2.07 41.803c0 2.139.966 3.197 3.22 3.197h2.3v-2.185H5.842c-.943 0-1.265-.345-1.265-1.265v-6.141h2.875v-2.185H4.577v-3.289H2.07v3.289H.023v2.185H2.07v6.394zm13.287-8.717c-1.84 0-2.967.828-3.703 1.84V28.9H9.17V45h2.484v-5.957c0-2.369 1.196-3.818 3.151-3.818 1.84 0 2.83 1.196 2.83 3.427V45h2.483v-6.555c0-3.933-2.139-5.359-4.76-5.359zm12.52 12.052c2.92 0 4.898-1.771 5.312-4.094h-2.484c-.345 1.311-1.449 2.07-2.967 2.07-1.955 0-3.22-1.311-3.289-3.312v-.161h8.878c.046-.322.07-.644.07-.943-.07-3.45-2.347-5.612-5.75-5.612-3.474 0-5.797 2.415-5.797 6.049 0 3.611 2.323 6.003 6.026 6.003zm-3.336-7.314c.184-1.679 1.541-2.737 3.128-2.737 1.725 0 2.944.989 3.151 2.737h-6.279zm30.295-4.738c-1.932 0-3.266.851-4.025 2.139-.713-1.518-2.093-2.139-3.634-2.139-1.77.023-2.783.805-3.45 1.679l-.276-1.541H41.29V45h2.484v-6.302c0-2.093 1.058-3.473 2.76-3.473 1.633 0 2.484 1.081 2.484 3.151V45h2.507v-6.371c0-2.116 1.081-3.404 2.783-3.404 1.61 0 2.461 1.081 2.461 3.151V45h2.484v-6.785c0-3.726-1.978-5.129-4.416-5.129zm17.432 9.752c-.506 0-.759-.161-.759-.759v-4.715c0-2.783-1.794-4.278-4.922-4.278-2.967 0-4.945 1.426-5.198 3.726h2.438c.184-1.035 1.173-1.725 2.645-1.725 1.633 0 2.576.805 2.576 2.116v.713h-2.967c-3.289 0-5.037 1.357-5.037 3.772 0 2.185 1.794 3.45 4.37 3.45 1.91 0 3.105-.828 3.887-2.024 0 1.173.552 1.886 2.162 1.886h1.311v-2.162h-.506zm-3.22-2.668c-.023 1.817-1.219 3.036-3.289 3.036-1.357 0-2.185-.69-2.185-1.679 0-1.196.851-1.771 2.392-1.771h3.082v.414zm11.036-6.946c-1.932 0-2.875.782-3.473 1.771l-.276-1.771h-2.208V45h2.484v-5.911c0-1.817.713-3.542 2.921-3.542h1.104v-2.323h-.552zM82.168 45h2.484v-2.99l2.116-2.208L90.241 45h2.944l-4.715-7.015 4.44-4.761h-2.922l-5.336 5.704V28.9h-2.484V45zm17.067.138c2.921 0 4.899-1.771 5.313-4.094h-2.484c-.345 1.311-1.449 2.07-2.967 2.07-1.955 0-3.22-1.311-3.29-3.312v-.161h8.879c.046-.322.069-.644.069-.943-.069-3.45-2.346-5.612-5.75-5.612-3.473 0-5.796 2.415-5.796 6.049 0 3.611 2.323 6.003 6.026 6.003zM95.9 37.824c.184-1.679 1.54-2.737 3.128-2.737 1.725 0 2.944.989 3.151 2.737h-6.28zm11.624 3.979c0 2.139.966 3.197 3.22 3.197h2.3v-2.185h-1.748c-.943 0-1.265-.345-1.265-1.265v-6.141h2.875v-2.185h-2.875v-3.289h-2.507v3.289h-2.047v2.185h2.047v6.394zM.023 63.409H2.07V73h2.507v-9.591h3.151v-2.185H4.531v-.989c0-.805.345-1.15 1.15-1.15h2.047V56.9H5.359c-2.277 0-3.289 1.104-3.289 3.22v1.104H.023v2.185zm14.062 9.729c3.588 0 6.003-2.415 6.003-6.026 0-3.588-2.415-6.026-6.003-6.026s-6.003 2.438-6.003 6.026c0 3.611 2.415 6.026 6.003 6.026zm0-2.116c-2.093 0-3.45-1.633-3.45-3.91s1.357-3.91 3.45-3.91 3.473 1.633 3.473 3.91-1.38 3.91-3.473 3.91zm13.957-9.798c-1.932 0-2.875.782-3.473 1.771l-.276-1.771h-2.208V73h2.484v-5.911c0-1.817.713-3.542 2.921-3.542h1.104v-2.323h-.552zm6.928 11.914c3.013 0 5.014-1.679 5.474-4.347h-2.622c-.3 1.357-1.311 2.231-2.83 2.231-2 0-3.311-1.587-3.311-3.887 0-2.323 1.31-3.933 3.312-3.933 1.54 0 2.53.851 2.852 2.231h2.599c-.483-2.668-2.37-4.347-5.405-4.347-3.565 0-5.911 2.415-5.911 6.049 0 3.68 2.277 6.003 5.842 6.003zm12.964 0c2.921 0 4.899-1.771 5.313-4.094h-2.484c-.345 1.311-1.449 2.07-2.967 2.07-1.955 0-3.22-1.311-3.289-3.312v-.161h8.878c.046-.322.069-.644.069-.943-.069-3.45-2.346-5.612-5.75-5.612-3.473 0-5.796 2.415-5.796 6.049 0 3.611 2.323 6.003 6.026 6.003zm-3.335-7.314c.184-1.679 1.541-2.737 3.128-2.737 1.725 0 2.944.989 3.151 2.737h-6.279zm10.29 3.289c.069 2.553 2.23 4.025 5.382 4.025 2.852 0 4.99-1.426 4.99-3.68 0-2.622-2.184-3.174-4.875-3.496-1.702-.184-2.83-.322-2.83-1.426 0-.943.967-1.541 2.439-1.541s2.484.759 2.622 1.84h2.438c-.161-2.415-2.208-3.749-5.106-3.749-2.83-.023-4.83 1.426-4.83 3.657 0 2.438 2.116 3.013 4.807 3.335 1.817.23 2.898.322 2.898 1.587 0 .943-1.012 1.541-2.553 1.541-1.794 0-2.852-.874-2.944-2.093h-2.438zM75.785 73h2.692l2.575-8.004L83.536 73h2.668l3.91-11.776h-2.53l-2.782 9.016-2.577-9.016H79.95l-2.692 9.016-2.69-9.016h-2.622L75.785 73zm16.902-13.432c.851 0 1.518-.621 1.518-1.495 0-.874-.667-1.495-1.518-1.495-.85 0-1.518.621-1.518 1.495 0 .874.667 1.495 1.518 1.495zM91.422 73h2.484V61.224h-2.484V73zm5.77-3.197c0 2.139.966 3.197 3.22 3.197h2.3v-2.185h-1.748c-.943 0-1.265-.345-1.265-1.265v-6.141h2.875v-2.185h-2.875v-3.289h-2.507v3.289h-2.047v2.185h2.047v6.394zm13.287-8.717c-1.84 0-2.967.828-3.703 1.84V56.9h-2.484V73h2.484v-5.957c0-2.369 1.196-3.818 3.151-3.818 1.84 0 2.829 1.196 2.829 3.427V73h2.484v-6.555c0-3.933-2.139-5.359-4.761-5.359zM8.464 101.138c3.749 0 6.486-2.208 6.992-5.612h-2.737c-.506 2.047-2.047 3.289-4.278 3.289-3.036 0-4.876-2.438-4.876-5.865 0-3.45 1.886-5.865 4.945-5.865 2.185 0 3.703 1.265 4.232 3.289h2.737c-.529-3.404-3.174-5.612-6.854-5.612-4.761 0-7.774 3.289-7.774 8.188 0 4.945 2.921 8.188 7.613 8.188zm10.192-13.57c.85 0 1.518-.621 1.518-1.495 0-.874-.667-1.495-1.518-1.495s-1.518.621-1.518 1.495c0 .874.667 1.495 1.518 1.495zM17.39 101h2.484V89.224H17.39V101zm5.77-3.197c0 2.139.966 3.197 3.22 3.197h2.3v-2.185h-1.748c-.943 0-1.265-.345-1.265-1.265v-6.141h2.875v-2.185h-2.875v-3.289H23.16v3.289h-2.047v2.185h2.047v6.394zm10.504 3.266l-.46 1.15c-.368.966-.598 1.196-1.564 1.196h-1.748v2.185h2.668c1.725 0 2.231-.851 2.967-2.76l5.336-13.616h-2.645l-3.197 8.947-3.289-8.947h-2.645l4.577 11.845zM48.258 101h2.645V84.9h-2.645V101zm11.55-11.914c-1.91 0-3.036.759-3.772 1.679l-.276-1.541h-2.162V101h2.484v-5.934c0-2.392 1.173-3.841 3.15-3.841 1.864 0 2.807 1.196 2.807 3.427V101h2.507v-6.555c0-3.933-2.14-5.359-4.738-5.359zm15.854 1.771c-.759-1.035-2.024-1.771-3.818-1.771-3.197 0-5.566 2.392-5.566 6.026 0 3.772 2.37 6.026 5.566 6.026 1.863 0 3.082-.874 3.841-1.909l.3 1.771h2.161V84.9h-2.484v5.957zm-3.404 8.188c-2.07 0-3.427-1.61-3.427-3.933 0-2.3 1.357-3.91 3.427-3.91 2.07 0 3.427 1.61 3.427 3.956 0 2.277-1.357 3.887-3.427 3.887zm13.904 2.093c2.921 0 4.9-1.771 5.313-4.094h-2.483c-.346 1.311-1.45 2.07-2.968 2.07-1.954 0-3.22-1.311-3.288-3.312v-.161h8.877c.046-.322.07-.644.07-.943-.07-3.45-2.347-5.612-5.75-5.612-3.474 0-5.797 2.415-5.797 6.049 0 3.611 2.324 6.003 6.026 6.003zm-3.335-7.314c.184-1.679 1.541-2.737 3.129-2.737 1.724 0 2.944.989 3.15 2.737h-6.278zM91.933 101h2.737l3.105-4.278 3.082 4.278h2.898l-4.44-6.026 4.187-5.75h-2.737l-2.875 3.979-2.806-3.979h-2.898l4.163 5.75L91.933 101z" fill="#000"/></svg>