<svg width="279" height="143" viewBox="0 0 279 143" fill="none" xmlns="http://www.w3.org/2000/svg"><path d="M1.376 88.622h4.058v11.235h2.16V88.622h4.058v-1.916H1.376v1.916zm15.612 1.616c-1.578 0-2.348.639-2.836 1.447l-.226-1.447h-1.803v9.619h2.029v-4.828c0-1.484.582-2.894 2.386-2.894h.901v-1.897h-.45zm10.201 7.853c-.413 0-.62-.132-.62-.62V93.62c0-2.273-1.465-3.495-4.02-3.495-2.424 0-4.04 1.165-4.246 3.044h1.991c.15-.846.959-1.41 2.16-1.41 1.335 0 2.105.658 2.105 1.73v.581h-2.424c-2.686 0-4.114 1.109-4.114 3.082 0 1.784 1.466 2.817 3.57 2.817 1.559 0 2.536-.676 3.175-1.653 0 .958.45 1.54 1.766 1.54h1.07v-1.765h-.413zm-2.63-2.18c-.019 1.485-.996 2.48-2.687 2.48-1.108 0-1.784-.563-1.784-1.371 0-.977.695-1.447 1.954-1.447h2.517v.339zm11.383-4.34c-.62-.844-1.653-1.446-3.118-1.446-2.612 0-4.547 1.954-4.547 4.922 0 3.081 1.935 4.922 4.547 4.922 1.521 0 2.517-.713 3.137-1.559l.244 1.447h1.766v-13.15h-2.029v4.865zm-2.78 6.689c-1.691 0-2.8-1.315-2.8-3.213 0-1.878 1.109-3.193 2.8-3.193 1.69 0 2.799 1.315 2.799 3.231 0 1.86-1.109 3.175-2.8 3.175zm11.357 1.71c2.386 0 4.001-1.447 4.34-3.345h-2.03c-.281 1.071-1.183 1.691-2.423 1.691-1.597 0-2.63-1.07-2.686-2.705v-.132h7.251c.038-.263.057-.526.057-.77-.057-2.818-1.917-4.584-4.697-4.584-2.837 0-4.734 1.973-4.734 4.941 0 2.95 1.897 4.903 4.922 4.903zm-2.724-5.975c.15-1.371 1.258-2.235 2.555-2.235 1.409 0 2.404.808 2.573 2.235h-5.128zm18.244 5.974c2.386 0 4.002-1.446 4.34-3.344H62.35c-.282 1.071-1.183 1.691-2.423 1.691-1.597 0-2.63-1.07-2.687-2.705v-.132h7.252c.037-.263.056-.526.056-.77-.056-2.818-1.916-4.584-4.696-4.584-2.837 0-4.734 1.973-4.734 4.941 0 2.95 1.897 4.903 4.921 4.903zm-2.724-5.974c.15-1.371 1.26-2.235 2.555-2.235 1.41 0 2.405.808 2.574 2.235h-5.129zm17.666 4.096c-.414 0-.62-.132-.62-.62V93.62c0-2.273-1.466-3.495-4.02-3.495-2.424 0-4.04 1.165-4.246 3.044h1.99c.151-.846.959-1.41 2.161-1.41 1.334 0 2.104.658 2.104 1.73v.581h-2.423c-2.686 0-4.114 1.109-4.114 3.082 0 1.784 1.465 2.817 3.57 2.817 1.559 0 2.535-.676 3.174-1.653 0 .958.451 1.54 1.766 1.54h1.07v-1.765h-.412zm-2.63-2.18c-.02 1.485-.996 2.48-2.687 2.48-1.108 0-1.785-.563-1.785-1.371 0-.977.695-1.447 1.954-1.447h2.517v.339zm9.014-5.673c-1.578 0-2.349.639-2.837 1.447l-.226-1.447H76.5v9.619h2.029v-4.828c0-1.484.582-2.894 2.386-2.894h.901v-1.897h-.45zm6.774-.113c-1.56 0-2.48.62-3.08 1.372l-.226-1.259h-1.766v9.619h2.029V95.01c0-1.954.958-3.138 2.573-3.138 1.522 0 2.293.977 2.293 2.8v5.185h2.047v-5.354c0-3.213-1.747-4.378-3.87-4.378zm6.749-1.24c.695 0 1.24-.507 1.24-1.22 0-.715-.545-1.222-1.24-1.222-.696 0-1.24.508-1.24 1.221 0 .714.544 1.221 1.24 1.221zm-1.034 10.972h2.03v-9.619h-2.03v9.619zm9.09-9.732c-1.559 0-2.479.62-3.08 1.372l-.226-1.259h-1.766v9.619h2.03V95.01c0-1.954.957-3.138 2.573-3.138 1.522 0 2.292.977 2.292 2.8v5.185h2.047v-5.354c0-3.213-1.747-4.378-3.87-4.378zm13.061 1.616c-.62-.958-1.653-1.616-3.156-1.616-2.611 0-4.546 1.935-4.546 4.885 0 3.062 1.935 4.884 4.546 4.884 1.503 0 2.499-.62 3.137-1.578v1.071c0 1.841-.995 2.686-2.761 2.686-1.428 0-2.367-.619-2.612-1.69h-2.066c.188 2.16 1.972 3.344 4.527 3.344 3.457 0 4.922-1.654 4.922-4.265v-9.224h-1.765l-.226 1.503zm-2.818 6.444c-1.691 0-2.799-1.297-2.799-3.175 0-1.86 1.108-3.175 2.799-3.175 1.691 0 2.799 1.315 2.799 3.212 0 1.841-1.108 3.138-2.799 3.138zm6.379-1.503c.056 2.085 1.822 3.287 4.396 3.287 2.329 0 4.076-1.164 4.076-3.005 0-2.142-1.784-2.593-3.982-2.856-1.39-.15-2.311-.263-2.311-1.165 0-.77.789-1.258 1.991-1.258 1.203 0 2.029.62 2.142 1.502h1.991c-.131-1.972-1.803-3.062-4.17-3.062-2.311-.018-3.945 1.165-3.945 2.987 0 1.992 1.728 2.461 3.926 2.724 1.484.188 2.367.263 2.367 1.297 0 .77-.826 1.258-2.085 1.258-1.465 0-2.33-.714-2.405-1.71h-1.991zm17.551 3.175h1.033l2.818-8.003 2.686 8.003h1.033l3.382-9.525h-.977l-2.931 8.379-2.724-8.379h-.883l-2.874 8.379-2.78-8.379h-1.015l3.232 9.525zm12.781-11.535a.662.662 0 00.676-.676.662.662 0 00-.676-.677.662.662 0 00-.677.677c0 .394.301.676.677.676zm-.489 11.535h.958v-9.525h-.958v9.525zm3.925-2.217c0 1.522.62 2.217 2.235 2.217h1.391v-.883h-1.316c-.995 0-1.352-.376-1.352-1.353v-6.406h2.574v-.883h-2.574v-2.668h-.958v2.668h-1.804v.883h1.804v6.425zm9.479-7.42c-1.784 0-2.893.995-3.438 2.366v-5.88h-.958v13.15h.958V95.16c0-2.48 1.259-4.058 3.288-4.058 1.822 0 2.949 1.203 2.949 3.457v5.298h.958V94.52c0-3.005-1.596-4.302-3.757-4.302zm16.746 9.75c2.818 0 4.809-1.522 5.373-4.171h-1.071c-.563 2.104-2.085 3.231-4.321 3.231-3.043 0-4.959-2.386-4.959-5.749 0-3.362 1.953-5.748 4.997-5.748 2.198 0 3.738 1.146 4.321 3.212h1.071c-.583-2.63-2.574-4.151-5.336-4.151-3.701 0-6.105 2.742-6.105 6.688 0 3.982 2.348 6.687 6.03 6.687zm7.82-11.648a.662.662 0 00.676-.676.662.662 0 00-.676-.677.662.662 0 00-.677.677c0 .394.301.676.677.676zm-.489 11.535h.958v-9.525h-.958v9.525zm3.925-2.217c0 1.522.62 2.217 2.235 2.217h1.39v-.883h-1.315c-.995 0-1.352-.376-1.352-1.353v-6.406h2.574v-.883h-2.574v-2.668h-.958v2.668h-1.804v.883h1.804v6.425zm7.939 2.217l-.62 1.54c-.432 1.052-.601 1.334-1.578 1.334h-1.203v.883h1.466c1.277 0 1.578-.488 2.179-1.991l4.565-11.291h-1.033l-3.25 8.285-3.307-8.285h-1.033l3.814 9.525zm-196.401 21h1.014v-13.151H2.353v13.151zm7.894-9.638c-1.747 0-2.874.902-3.419 2.142l-.15-2.029h-.827v9.525h.959v-4.697c0-2.48 1.258-4.058 3.287-4.058 1.841 0 2.95 1.203 2.95 3.457v5.298h.958v-5.336c0-3.005-1.597-4.302-3.758-4.302zm13.509 2.255c-.582-1.353-1.86-2.255-3.645-2.255-2.61 0-4.49 1.992-4.49 4.866 0 3.006 1.88 4.884 4.49 4.884 1.785 0 3.025-.958 3.626-2.292l.15 2.18h.827v-13.151h-.958v5.768zm-3.57 6.631c-2.122 0-3.588-1.653-3.588-4.02 0-2.348 1.466-4.02 3.589-4.02 2.122 0 3.588 1.672 3.588 4.039 0 2.348-1.465 4.001-3.588 4.001zm10.99.864c2.085 0 3.682-1.352 4.095-3.268h-.977c-.375 1.484-1.634 2.404-3.193 2.404-2.123 0-3.457-1.615-3.494-3.832v-.169h7.777c0-.132.019-.282.019-.395-.094-2.837-1.841-4.49-4.396-4.49-2.612 0-4.396 1.992-4.396 4.81 0 2.987 1.86 4.94 4.565 4.94zm-3.494-5.673c.15-1.935 1.597-3.231 3.344-3.231 1.86 0 3.193 1.146 3.344 3.231h-6.688zm8.27 5.561h1.108l3.156-4.19 3.157 4.19h1.164l-3.7-4.866 3.512-4.659h-1.09l-3.005 3.945-2.968-3.945H36.14l3.513 4.659-3.701 4.866zm10.215-13.245c-.507 0-.827.301-.827.733 0 .451.3.676.658.676.188 0 .376-.075.47-.225.131.131.169.3.169.488 0 .714-.451 1.447-1.41 1.484v.564c1.297-.056 2.105-.921 2.105-2.16 0-.865-.489-1.56-1.165-1.56zm2.274 10.314c.075 1.973 1.672 3.043 4.058 3.043 2.047 0 3.7-1.033 3.7-2.724 0-2.01-1.765-2.404-3.813-2.686-1.484-.207-2.8-.376-2.8-1.71 0-1.089 1.072-1.803 2.687-1.803 1.522 0 2.612.733 2.78 1.972h.978c-.17-1.859-1.691-2.799-3.758-2.799-2.123-.018-3.644 1.071-3.644 2.706 0 1.916 1.766 2.273 3.72 2.536 1.596.225 2.893.432 2.893 1.841 0 1.127-1.184 1.841-2.743 1.841-1.823 0-3.006-.846-3.081-2.217h-.977zm18.858 3.043c2.085 0 3.682-1.352 4.096-3.268h-.977c-.376 1.484-1.635 2.404-3.194 2.404-2.123 0-3.457-1.615-3.494-3.832v-.169h7.777c0-.132.02-.282.02-.395-.095-2.837-1.842-4.49-4.397-4.49-2.611 0-4.396 1.992-4.396 4.81 0 2.987 1.86 4.94 4.565 4.94zm-3.494-5.673c.15-1.935 1.597-3.231 3.344-3.231 1.86 0 3.194 1.146 3.344 3.231h-6.688zm8.27 5.561h1.109l3.156-4.19 3.156 4.19h1.165l-3.701-4.866 3.513-4.659h-1.09l-3.006 3.945-2.968-3.945h-1.146l3.513 4.659-3.7 4.866zm14.424-9.638c-1.785 0-3.025.958-3.626 2.292l-.15-2.179h-.827v13.282h.958v-5.955c.545 1.39 1.841 2.31 3.645 2.31 2.61 0 4.49-1.991 4.49-4.884 0-2.987-1.88-4.866-4.49-4.866zm-.076 8.886c-2.123 0-3.588-1.653-3.588-4.039 0-2.329 1.466-4.001 3.588-4.001 2.123 0 3.588 1.672 3.588 4.02 0 2.367-1.465 4.02-3.588 4.02zm10.67.864c2.085 0 3.682-1.352 4.096-3.268h-.977c-.376 1.484-1.635 2.404-3.194 2.404-2.123 0-3.457-1.615-3.494-3.832v-.169h7.777c0-.132.019-.282.019-.395-.094-2.837-1.84-4.49-4.396-4.49-2.611 0-4.396 1.992-4.396 4.81 0 2.987 1.86 4.94 4.565 4.94zm-3.494-5.673c.15-1.935 1.597-3.231 3.344-3.231 1.86 0 3.194 1.146 3.344 3.231h-6.688zm13.504-3.964c-1.766 0-2.518.845-2.912 1.897l-.15-1.897h-.827v9.525h.958v-4.828c0-1.935.507-3.776 2.743-3.776h.695v-.921h-.507zM110 118.64c0 1.522.62 2.217 2.236 2.217h1.39v-.883h-1.315c-.996 0-1.353-.376-1.353-1.353v-6.406h2.574v-.883h-2.574v-2.668H110v2.668h-1.803v.883H110v6.425zm20.78-7.421c-1.747 0-2.874.977-3.419 2.386-.451-1.578-1.634-2.386-3.137-2.386-1.634 0-2.611.958-3.1 2.142l-.15-2.029h-.827v9.525h.958v-4.847c0-2.33 1.128-3.908 2.95-3.908 1.653 0 2.686 1.165 2.686 3.363v5.392h.958v-5.185c.057-2.18 1.184-3.57 2.969-3.57 1.653 0 2.649 1.109 2.649 3.269v5.486h.976v-5.523c0-2.875-1.521-4.115-3.513-4.115zm14.019 8.755c-.564 0-.845-.188-.845-.921v-4.433c0-2.18-1.334-3.401-3.72-3.401-2.179 0-3.626 1.052-3.87 2.781h.958c.244-1.165 1.259-1.935 2.874-1.935 1.785 0 2.8.939 2.8 2.517v.827h-3.232c-2.442 0-3.757 1.052-3.757 2.836 0 1.691 1.334 2.724 3.363 2.724 1.935 0 3.081-.883 3.663-2.066v.338c-.037 1.127.432 1.616 1.559 1.616h.564v-.883h-.357zm-1.803-2.969c0 1.823-1.297 3.138-3.551 3.138-1.522 0-2.461-.77-2.461-1.954 0-1.259.939-1.954 2.705-1.954h3.307v.77zm7.33-5.673c-1.766 0-2.517.845-2.912 1.897l-.15-1.897h-.827v9.525h.958v-4.828c0-1.935.508-3.776 2.743-3.776h.695v-.921h-.507zm1.927 9.525h.958v-2.574l2.236-2.292 3.644 4.866h1.165l-4.152-5.561 3.833-3.964h-1.184l-5.542 5.711v-9.337h-.958v13.151zm12.977.112c2.086 0 3.683-1.352 4.096-3.268h-.977c-.376 1.484-1.634 2.404-3.194 2.404-2.123 0-3.456-1.615-3.494-3.832v-.169h7.778c0-.132.018-.282.018-.395-.094-2.837-1.841-4.49-4.396-4.49-2.611 0-4.396 1.992-4.396 4.81 0 2.987 1.86 4.94 4.565 4.94zm-3.494-5.673c.151-1.935 1.597-3.231 3.344-3.231 1.86 0 3.194 1.146 3.344 3.231h-6.688zm10.182 3.344c0 1.522.62 2.217 2.236 2.217h1.39v-.883h-1.315c-.996 0-1.353-.376-1.353-1.353v-6.406h2.574v-.883h-2.574v-2.668h-.958v2.668h-1.803v.883h1.803v6.425zm10.636-9.318a.662.662 0 00.676-.676.662.662 0 00-.676-.677.663.663 0 00-.677.677c0 .394.301.676.677.676zm-.489 11.535h.958v-9.525h-.958v9.525zm7.607-9.638c-1.747 0-2.874.902-3.419 2.142l-.151-2.029h-.826v9.525h.958v-4.697c0-2.48 1.259-4.058 3.288-4.058 1.841 0 2.949 1.203 2.949 3.457v5.298h.958v-5.336c0-3.005-1.597-4.302-3.757-4.302zm5.446 6.707c.075 1.973 1.672 3.043 4.057 3.043 2.048 0 3.701-1.033 3.701-2.724 0-2.01-1.766-2.404-3.813-2.686-1.484-.207-2.799-.376-2.799-1.71 0-1.089 1.07-1.803 2.686-1.803 1.522 0 2.611.733 2.78 1.972h.977c-.169-1.859-1.691-2.799-3.757-2.799-2.123-.018-3.645 1.071-3.645 2.706 0 1.916 1.766 2.273 3.72 2.536 1.597.225 2.893.432 2.893 1.841 0 1.127-1.183 1.841-2.743 1.841-1.822 0-3.005-.846-3.081-2.217h-.976zm10.075-8.604a.662.662 0 00.676-.676.662.662 0 00-.676-.677.663.663 0 00-.677.677c0 .394.301.676.677.676zm-.489 11.535h.958v-9.525h-.958v9.525zm10.97-7.308c-.583-1.409-1.86-2.33-3.626-2.33-2.611 0-4.49 1.973-4.49 4.866 0 3.006 1.879 4.884 4.49 4.884 1.785 0 3.043-.939 3.644-2.423v1.691c0 2.536-1.202 3.626-3.494 3.626-1.785 0-3.024-.808-3.325-2.255h-.996c.301 2.029 1.935 3.119 4.246 3.119 3.081 0 4.528-1.466 4.528-4.453v-8.942h-.827l-.15 2.217zm-3.551 6.556c-2.123 0-3.588-1.653-3.588-4.02 0-2.367 1.465-4.02 3.588-4.02s3.588 1.653 3.588 4.039c0 2.348-1.465 4.001-3.588 4.001zm11.177-8.886c-1.785 0-2.893.996-3.438 2.367v-5.88h-.958v13.151h.958v-4.697c0-2.48 1.259-4.058 3.288-4.058 1.822 0 2.949 1.203 2.949 3.457v5.298h.958v-5.336c0-3.005-1.596-4.302-3.757-4.302zm6.61 7.421c0 1.522.62 2.217 2.236 2.217h1.39v-.883h-1.315c-.996 0-1.353-.376-1.353-1.353v-6.406h2.574v-.883h-2.574v-2.668h-.958v2.668h-1.803v.883h1.803v6.425zm4.652-.714c.075 1.973 1.672 3.043 4.057 3.043 2.048 0 3.701-1.033 3.701-2.724 0-2.01-1.766-2.404-3.813-2.686-1.484-.207-2.799-.376-2.799-1.71 0-1.089 1.07-1.803 2.686-1.803 1.522 0 2.611.733 2.78 1.972h.977c-.169-1.859-1.691-2.799-3.757-2.799-2.123-.018-3.645 1.071-3.645 2.706 0 1.916 1.766 2.273 3.72 2.536 1.597.225 2.893.432 2.893 1.841 0 1.127-1.183 1.841-2.743 1.841-1.822 0-3.005-.846-3.081-2.217h-.976zM9.016 21.887c2.502 0 4.125-1.127 4.891-2.254l.226 2.12h2.006v-8.634H9.286v2.186h4.373v.384c-.135 2.547-2.096 3.922-4.53 3.922-3.021 0-4.914-2.367-4.914-5.748 0-3.381 1.938-5.748 4.936-5.748 2.187 0 3.697 1.217 4.17 3.223h2.682c-.473-3.336-3.133-5.5-6.784-5.5-4.689 0-7.664 3.224-7.664 8.025s3.043 8.024 7.46 8.024zm15.239 0c2.862 0 4.8-1.735 5.207-4.012h-2.435c-.338 1.285-1.42 2.029-2.908 2.029-1.916 0-3.155-1.285-3.223-3.246V16.5h8.7c.046-.316.068-.631.068-.924-.067-3.381-2.299-5.5-5.635-5.5-3.404 0-5.68 2.367-5.68 5.928 0 3.54 2.276 5.883 5.905 5.883zm-3.269-7.168c.18-1.645 1.51-2.682 3.066-2.682 1.69 0 2.885.97 3.088 2.682h-6.154zm11.393 3.9c0 2.096.946 3.133 3.155 3.133h2.254v-2.141h-1.713c-.924 0-1.24-.338-1.24-1.24v-6.018h2.818V10.21h-2.817V6.988h-2.457v3.223h-2.007v2.141h2.007v6.267zM50.4 21.887c2.953 0 4.914-1.645 5.365-4.26h-2.57c-.292 1.33-1.284 2.187-2.772 2.187-1.961 0-3.246-1.556-3.246-3.81 0-2.277 1.285-3.854 3.246-3.854 1.51 0 2.48.834 2.795 2.186h2.547c-.473-2.615-2.322-4.26-5.297-4.26-3.494 0-5.793 2.367-5.793 5.928 0 3.607 2.232 5.883 5.725 5.883zm7.229-.135h2.434V5.973H57.63v15.78zM73 19.633c-.496 0-.744-.157-.744-.744v-4.62c0-2.728-1.758-4.193-4.824-4.193-2.908 0-4.846 1.397-5.094 3.651h2.389c.18-1.014 1.15-1.69 2.592-1.69 1.6 0 2.525.789 2.525 2.074v.698h-2.908c-3.223 0-4.937 1.33-4.937 3.697 0 2.142 1.759 3.381 4.283 3.381 1.871 0 3.043-.811 3.81-1.983 0 1.15.54 1.848 2.119 1.848h1.284v-2.119H73zm-3.156-2.614c-.023 1.78-1.195 2.975-3.224 2.975-1.33 0-2.141-.676-2.141-1.646 0-1.172.834-1.735 2.344-1.735h3.02v.405zM80.66 10.21c-1.894 0-2.818.766-3.404 1.736l-.27-1.736H74.82v11.541h2.435V15.96c0-1.78.699-3.471 2.863-3.471H81.2V10.21h-.541zm3.282-1.623c.834 0 1.488-.608 1.488-1.465 0-.857-.654-1.465-1.488-1.465s-1.488.608-1.488 1.465c0 .857.654 1.465 1.488 1.465zm-1.24 13.164h2.434v-11.54h-2.434v11.54zm5.655-3.133c0 2.096.947 3.133 3.156 3.133h2.254v-2.141h-1.713c-.925 0-1.24-.338-1.24-1.24v-6.018h2.818V10.21h-2.818V6.988h-2.457v3.223H86.35v2.141h2.006v6.267zm10.294 3.2l-.45 1.128c-.361.947-.586 1.172-1.533 1.172h-1.713v2.141h2.615c1.69 0 2.186-.834 2.907-2.705l5.23-13.344h-2.592l-3.134 8.769-3.223-8.769h-2.592L98.65 21.82zm16.714-.067h2.638l2.524-7.844 2.435 7.844h2.614l3.832-11.54h-2.479l-2.728 8.835-2.524-8.836h-2.232l-2.637 8.836-2.637-8.836h-2.57l3.764 11.541zm21.388-11.676c-1.803 0-2.907.811-3.629 1.803V5.973h-2.434v15.78h2.434v-5.839c0-2.322 1.172-3.742 3.088-3.742 1.804 0 2.773 1.172 2.773 3.359v6.221h2.434v-6.424c0-3.855-2.096-5.252-4.666-5.252zm12.27 11.811c2.862 0 4.801-1.735 5.207-4.012h-2.435c-.338 1.285-1.42 2.029-2.908 2.029-1.916 0-3.155-1.285-3.223-3.246V16.5h8.701c.045-.316.068-.631.068-.924-.068-3.381-2.3-5.5-5.636-5.5-3.403 0-5.68 2.367-5.68 5.928 0 3.54 2.277 5.883 5.906 5.883zm-3.269-7.168c.181-1.645 1.511-2.682 3.066-2.682 1.69 0 2.885.97 3.088 2.682h-6.154zm16.733-4.643c-1.871 0-2.976.744-3.697 1.645l-.27-1.51h-2.119v11.541h2.434v-5.815c0-2.345 1.15-3.765 3.088-3.765 1.826 0 2.75 1.172 2.75 3.359v6.221h2.457v-6.424c0-3.855-2.096-5.252-4.643-5.252z" fill="#000"/><path d="M3.79 60.945c0 3.917 1.77 5.854 5.898 5.854H13.9v-4.001h-3.201c-1.727 0-2.317-.632-2.317-2.317V49.235h5.265v-4.001H8.382V39.21H3.79v6.023H.042v4.001h3.749v11.71zm23.913-15.711c-3.538 0-5.265 1.432-6.36 3.243l-.506-3.243h-4.043v21.565h4.549V55.974c0-3.327 1.305-6.486 5.349-6.486h2.021v-4.254h-1.01zm22.87 17.606c-.926 0-1.39-.295-1.39-1.39v-8.635c0-5.096-3.285-7.834-9.013-7.834-5.434 0-9.056 2.612-9.52 6.824h4.465c.337-1.896 2.148-3.16 4.844-3.16 2.99 0 4.717 1.475 4.717 3.876v1.305h-5.433c-6.023 0-9.224 2.486-9.224 6.908 0 4.002 3.285 6.318 8.003 6.318 3.495 0 5.686-1.516 7.118-3.706 0 2.148 1.01 3.453 3.96 3.453h2.4V62.84h-.927zm-5.897-4.886c-.042 3.328-2.232 5.56-6.023 5.56-2.485 0-4.001-1.264-4.001-3.075 0-2.19 1.558-3.243 4.38-3.243h5.645v.758zm25.522-9.73c-1.39-1.895-3.706-3.243-6.992-3.243-5.855 0-10.193 4.38-10.193 11.036 0 6.907 4.338 11.035 10.193 11.035 3.412 0 5.644-1.6 7.034-3.496l.548 3.243h3.96V37.315h-4.55v10.91zM63.964 63.22c-3.79 0-6.276-2.948-6.276-7.202 0-4.212 2.485-7.16 6.276-7.16s6.276 2.948 6.276 7.244c0 4.17-2.485 7.118-6.276 7.118zM81.51 42.201c1.558 0 2.78-1.137 2.78-2.738 0-1.6-1.222-2.737-2.78-2.737-1.558 0-2.78 1.137-2.78 2.737 0 1.601 1.222 2.738 2.78 2.738zM79.192 66.8h4.55V45.234h-4.55v21.565zm20.381-21.818c-3.496 0-5.56 1.39-6.908 3.075l-.505-2.822H88.2v21.565h4.55V55.932c0-4.38 2.148-7.034 5.77-7.034 3.412 0 5.139 2.19 5.139 6.276V66.8h4.591V54.795c0-7.202-3.917-9.814-8.677-9.814zm29.283 3.622c-1.39-2.148-3.707-3.622-7.076-3.622-5.855 0-10.193 4.338-10.193 10.951 0 6.866 4.338 10.952 10.193 10.952 3.369 0 5.602-1.39 7.034-3.538v2.4c0 4.128-2.233 6.024-6.192 6.024-3.201 0-5.307-1.39-5.855-3.791h-4.633c.421 4.844 4.423 7.497 10.151 7.497 7.75 0 11.036-3.706 11.036-9.561V45.234h-3.96l-.505 3.37zm-6.318 14.448c-3.791 0-6.276-2.907-6.276-7.119 0-4.17 2.485-7.118 6.276-7.118s6.276 2.949 6.276 7.203c0 4.127-2.485 7.034-6.276 7.034zm24.615-21.44h9.098V66.8h4.844V41.611h9.098v-4.296h-23.04v4.297zm32.562 25.441c5.349 0 8.971-3.243 9.73-7.497h-4.549c-.632 2.4-2.654 3.79-5.434 3.79-3.58 0-5.897-2.4-6.023-6.065v-.295h16.258c.085-.59.127-1.179.127-1.727-.127-6.318-4.297-10.277-10.53-10.277-6.361 0-10.615 4.423-10.615 11.078 0 6.613 4.254 10.993 11.036 10.993zm-6.108-13.394c.337-3.075 2.822-5.012 5.729-5.012 3.159 0 5.391 1.81 5.77 5.012h-11.499zm18.844 6.023c.127 4.675 4.086 7.371 9.856 7.371 5.223 0 9.141-2.611 9.141-6.74 0-4.8-4.002-5.812-8.93-6.401-3.117-.337-5.181-.59-5.181-2.612 0-1.727 1.769-2.822 4.465-2.822 2.696 0 4.549 1.39 4.802 3.37h4.464c-.294-4.423-4.043-6.866-9.35-6.866-5.181-.042-8.845 2.612-8.845 6.697 0 4.465 3.875 5.518 8.803 6.108 3.327.42 5.307.59 5.307 2.906 0 1.727-1.853 2.822-4.676 2.822-3.285 0-5.222-1.6-5.391-3.833h-4.465zm22.522 7.118h4.549V37.315h-4.549V66.8zm28.72-3.959c-.926 0-1.39-.295-1.39-1.39v-8.635c0-5.096-3.285-7.834-9.013-7.834-5.434 0-9.056 2.612-9.52 6.824h4.465c.337-1.896 2.148-3.16 4.844-3.16 2.991 0 4.717 1.475 4.717 3.876v1.305h-5.433c-6.023 0-9.224 2.486-9.224 6.908 0 4.002 3.285 6.318 8.002 6.318 3.496 0 5.687-1.516 7.119-3.706 0 2.148 1.011 3.453 3.959 3.453h2.401V62.84h-.927zm-5.897-4.886c-.042 3.328-2.232 5.56-6.023 5.56-2.485 0-4.001-1.264-4.001-3.075 0-2.19 1.558-3.243 4.38-3.243h5.644v.758zm8.881 6.234c0 1.685 1.221 2.864 2.906 2.864s2.948-1.18 2.948-2.864c0-1.685-1.263-2.864-2.948-2.864s-2.906 1.18-2.906 2.864z" fill="url(#paint0_linear_1_119)"/><defs><linearGradient id="paint0_linear_1_119" x1="279" y1="66.628" x2="0" y2="66.628" gradientUnits="userSpaceOnUse"><stop stop-color="#FF4343"/><stop offset=".5" stop-color="#9C0B93"/><stop offset="1" stop-color="#4C1BB7"/></linearGradient></defs></svg>