<svg width="188" height="17" viewBox="0 0 188 17" fill="none" xmlns="http://www.w3.org/2000/svg"><path d="M4.02 13.949c-1.642 0-2.73-.287-3.54-.65L0 10.395h.35l.35.688c.83 1.643 1.844 2.37 3.467 2.37 1.862 0 2.913-.956 2.913-2.523 0-1.394-.774-2.101-2.987-2.904C1.586 7.128.332 6.135.332 3.9.332 1.664 2.305.002 4.757.002c1.53 0 2.415.21 3.263.573l.461 3.019h-.368l-.332-.707C7.025 1.244 6.066.499 4.609.499c-1.53 0-2.433.955-2.433 2.311 0 1.357.737 2.045 2.839 2.79 2.766.955 3.927 2.044 3.927 4.26.019 2.427-2.25 4.089-4.923 4.089zM15.598 12.764c-.774.688-1.567 1.147-2.563 1.147-1.475 0-2.25-.688-2.25-2.331V5.237H9.423v-.363l1.456-.573 1.438-2.98h.59v3.056h2.47v.86h-2.47v6.305c0 .936.443 1.394 1.162 1.394.498 0 .83-.133 1.29-.477l.24.305zM20.78 13.987c-2.674 0-4.647-1.758-4.647-5.025 0-2.77 1.917-4.89 4.665-4.89 2.747 0 4.646 1.757 4.646 5.024-.019 2.77-1.955 4.891-4.665 4.891zm-.259-9.419c-1.31 0-2.047 1.032-2.047 3.84 0 3.076.96 5.082 2.545 5.082 1.327 0 2.046-1.031 2.046-3.84 0-3.076-.94-5.082-2.544-5.082zM36.783 13.777c-.424 0-1.512-.02-2.342-.02-.83 0-1.899.02-2.36.02v-.306l.314-.057c.83-.153.977-.42.977-2.159V7.51c0-1.452-.608-2.159-1.696-2.159-.756 0-1.383.306-1.936.726v5.178c0 1.758.129 2.006.977 2.159l.313.057v.306c-.46 0-1.53-.02-2.36-.02-.83 0-1.917.02-2.36.02v-.306l.37-.057c.773-.115.921-.42.921-2.33V6.955c0-1.031-.166-1.318-.848-1.643l-.461-.229v-.21l3.208-.726.258.172v1.337c1.014-.898 1.954-1.49 3.153-1.49 1.715 0 2.618.955 2.618 2.961v4.012c0 1.95.148 2.178.94 2.331l.332.057v.249h-.018zM39.456 8.14v.135c.056 2.713 1.475 4.394 3.393 4.394 1.05 0 1.788-.401 2.563-1.204l.258.191c-.996 1.433-2.287 2.331-3.946 2.331-2.434 0-4.259-1.72-4.259-4.68 0-3.191 2.323-5.217 4.554-5.217 2.47 0 3.67 1.433 3.724 4.07h-6.287v-.02zm4.038-.534c-.055-2.006-.756-3.019-1.862-3.019-1.254 0-2.047 1.108-2.176 3.019h4.038zM59.221 13.777c-.332 0-1.99-.038-2.636-.038-.682 0-2.747.038-3.098.038v-.268l.59-.095c.572-.096.812-.248.812-.611 0-.306-.185-.688-.59-1.338l-2.066-3.267-2.064 2.942c-.48.688-.701 1.204-.701 1.586 0 .382.221.611.793.707l.608.095v.268c-.332 0-1.807-.038-2.47-.038-.664 0-1.715.038-2.066.038v-.287l.314-.057c.83-.153 1.604-.879 2.23-1.7l2.988-4.05-2.932-4.51c-.682-1.05-1.161-1.528-1.899-1.662l-.387-.076v-.268c.332 0 1.991.039 2.636.039.683 0 2.71-.039 3.061-.039v.268l-.59.095c-.498.077-.774.249-.774.612 0 .306.184.688.59 1.337l1.77 2.828 1.733-2.522c.46-.688.7-1.204.7-1.567s-.24-.611-.792-.707l-.609-.095v-.268c.332 0 1.807.039 2.47.039.665 0 1.716-.039 2.066-.039v.268l-.314.057c-.83.153-1.585.803-2.23 1.7l-2.674 3.63 3.245 4.93c.682 1.05 1.162 1.528 1.9 1.662l.386.076v.287zM60.696 3.25a.83.83 0 01-.387-.077.966.966 0 01-.313-.229.866.866 0 01-.203-.325 1.03 1.03 0 01-.074-.4c0-.154.019-.287.074-.402.055-.134.129-.23.203-.325a.71.71 0 01.313-.21.934.934 0 01.387-.076.83.83 0 01.388.076c.129.057.22.134.313.21.092.096.166.21.203.325.055.134.073.267.073.401a.913.913 0 01-.073.401c-.056.134-.13.23-.203.325a1.213 1.213 0 01-.313.23c-.111.038-.24.076-.388.076zm0-.153c.13 0 .24-.02.332-.076a.73.73 0 00.277-.191c.074-.077.129-.172.184-.287a1.117 1.117 0 000-.688.758.758 0 00-.184-.286 1.033 1.033 0 00-.277-.192 1.045 1.045 0 00-.332-.076c-.129 0-.24.02-.332.077a.728.728 0 00-.276.19c-.074.077-.13.172-.184.287a1.117 1.117 0 000 .688c.036.115.11.21.184.287a.728.728 0 00.276.19c.111.058.222.077.332.077zm-.424-.267V1.607h.517c.129 0 .24.038.313.095.074.077.11.153.11.268a.353.353 0 01-.11.267c-.074.077-.166.096-.295.096l.055-.02c.056 0 .092.02.13.039.036.019.073.057.11.115l.203.363h-.277l-.203-.402c-.018-.038-.037-.057-.055-.057-.018-.02-.055-.02-.092-.02h-.13v.479h-.276zm.24-.688h.24c.073 0 .129-.02.147-.038.037-.02.055-.077.055-.134 0-.058-.018-.115-.055-.134a.338.338 0 00-.147-.038h-.24v.344zM71.967 13.932c-3.296 0-5.66-2.683-5.66-6.985C66.307 2.644 68.709 0 71.93 0c2.701 0 4.562 1.467 5.14 4.303.02.076-.036.154-.112.154h-.69c-.073 0-.167-.057-.167-.154-.465-2.297-1.993-3.474-4.17-3.474-2.681 0-4.638 2.258-4.638 6.137 0 3.878 1.975 6.136 4.674 6.136 2.961 0 4.47-2.141 4.451-5.326h-4.396c-.073 0-.149-.077-.149-.155V7.1c0-.077.074-.155.15-.155h5.214c.073 0 .149.076.149.155.074 4.302-1.825 6.83-5.419 6.83v.002zM79.062 13.72c-.074 0-.15-.077-.15-.155l.056-6.735-.055-6.463c0-.077.073-.155.149-.155h.65c.075 0 .15.076.15.155l-.037 6.425.037 6.773c0 .076-.074.155-.15.155h-.65zM85.635 13.932c-2.757 0-4.283-2.066-4.283-5.172 0-3.107 1.526-5.191 4.283-5.191 2.756 0 4.283 2.084 4.283 5.19 0 3.107-1.508 5.173-4.283 5.173zm0-.753c2.234 0 3.333-1.718 3.333-4.42 0-2.7-1.117-4.437-3.333-4.437C83.419 4.34 82.3 6.058 82.3 8.76c0 2.701 1.118 4.419 3.334 4.419zM95.43 13.913c-1.508 0-2.606-.753-3.22-2.161l.037 1.794c0 .076-.074.155-.15.155h-.632c-.074 0-.15-.077-.15-.155l.056-7.776-.055-5.403c0-.077.073-.155.149-.155h.65c.074 0 .15.076.15.155l-.018 5.326c.614-1.312 1.712-2.103 3.202-2.103 2.495 0 3.837 2.24 3.837 5.134s-1.377 5.19-3.855 5.19v-.001zm-.186-.753c2.141 0 3.093-1.91 3.093-4.34 0-2.431-.932-4.477-3.072-4.477-1.826 0-3.074 1.427-3.092 4.283-.019 2.856 1.117 4.534 3.072 4.534zM107.459 13.72c-.073 0-.149-.077-.149-.155l.037-1.872c-.596 1.37-1.694 2.199-3.221 2.199-2.513 0-3.837-2.24-3.837-5.134 0-2.895 1.359-5.172 3.837-5.172 1.508 0 2.607.753 3.221 2.142l-.037-1.794c0-.077.074-.155.149-.155h.633c.074 0 .149.076.149.155l-.055 4.631.055 4.998c0 .076-.074.155-.149.155h-.633v.002zm-3.165-.58c1.862 0 3.073-1.447 3.092-4.283.018-2.837-1.118-4.514-3.054-4.514-2.161 0-3.128 1.91-3.128 4.321 0 2.411.949 4.477 3.091 4.477h-.001zM110.253 13.72c-.074 0-.15-.077-.15-.155l.056-6.735-.056-6.463c0-.077.074-.155.15-.155h.651c.073 0 .149.076.149.155l-.037 6.425.037 6.773c0 .076-.074.155-.149.155h-.651zM120.085 8.162h-3.053l.037 5.403c0 .076-.074.155-.149.155h-.708c-.074 0-.15-.077-.15-.155l.056-6.909-.056-6.291c0-.077.074-.155.15-.155h3.818c2.662 0 4.414 1.332 4.414 3.936 0 2.778-1.807 4.014-4.357 4.014l-.002.002zm-3.071-1.487v.677h3.11c2.085 0 3.352-.868 3.352-3.204 0-2.123-1.248-3.107-3.426-3.107h-2.979l-.055 5.634h-.002zM132.04 13.72c-.073 0-.149-.077-.149-.155l.037-1.872c-.596 1.37-1.695 2.199-3.221 2.199-2.513 0-3.837-2.24-3.837-5.134 0-2.895 1.359-5.172 3.837-5.172 1.508 0 2.607.753 3.221 2.142l-.037-1.794c0-.077.074-.155.149-.155h.633c.073 0 .149.076.149.155l-.055 4.631.055 4.998c0 .076-.074.155-.149.155h-.633v.002zm-3.165-.58c1.862 0 3.071-1.447 3.092-4.283.018-2.837-1.118-4.514-3.054-4.514-2.161 0-3.129 1.91-3.129 4.321 0 2.411.95 4.477 3.092 4.477h-.001zM137.367 16.845c-.037.096-.113.155-.205.155h-.577a.106.106 0 01-.094-.155l1.081-3.164-3.725-9.762c-.037-.058.019-.136.092-.136h.745c.092 0 .168.057.205.136l3.147 8.452 2.701-8.433c.037-.096.113-.155.205-.155h.689c.074 0 .131.076.093.155l-4.357 12.91v-.003zM143.678 9.572l.037 3.995c0 .076-.074.155-.149.155h-.672c-.073 0-.149-.077-.149-.155l.055-3.995-.036-5.634c0-.077.073-.155.149-.155h.632c.074 0 .15.076.15.155l-.037 1.891c.54-1.139 1.526-2.277 3.092-2.277 1.397 0 2.384.714 2.775 2.277.577-1.215 1.582-2.277 3.092-2.277 1.843 0 2.961 1.253 2.961 4.014v2.006l.018 3.995c0 .076-.074.155-.149.155h-.653c-.074 0-.149-.077-.149-.155l.037-3.995v-1.91c0-2.412-.895-3.3-2.272-3.3-1.248 0-2.104.984-2.719 2.547.018.212.018.424.018.655V9.57l.018 3.995c0 .076-.073.155-.149.155h-.653c-.073 0-.149-.077-.149-.155l.037-3.995V7.66c0-2.412-.894-3.3-2.272-3.3-1.377 0-2.234 1.139-2.867 2.933V9.57l.004.002zM165.056 10.208c.074 0 .131.076.131.155-.354 2.18-1.657 3.569-3.947 3.569-2.83 0-4.32-2.104-4.32-5.153 0-3.05 1.621-5.21 4.209-5.21 2.589 0 4.06 1.832 4.115 4.998 0 .076-.073.155-.149.155l-7.244.019c0 2.799 1.136 4.438 3.407 4.438 1.732 0 2.72-1.06 3.035-2.818 0-.096.092-.155.168-.155h.595v.002zm-3.929-5.884c-1.899 0-3.016 1.408-3.239 3.628h6.368c-.018-2.006-1.099-3.628-3.129-3.628zM166.806 13.72c-.074 0-.149-.077-.149-.155l.037-4.207-.037-5.422c0-.077.073-.155.149-.155h.632c.074 0 .15.076.15.155l-.037 1.891c.54-1.12 1.602-2.277 3.258-2.277 1.936 0 3.129 1.293 3.129 4.014v1.891l.018 4.11c0 .076-.074.155-.149.155h-.653c-.074 0-.149-.077-.149-.155l.037-4.11V7.661c0-2.392-.968-3.3-2.421-3.3-1.453 0-2.403 1.12-3.035 2.933v2.161l.018 4.11c0 .076-.073.155-.149.155h-.653.004zM179.674 13.527c0 .095-.056.174-.15.193a4.113 4.113 0 01-1.005.154c-1.248 0-2.179-.655-2.179-2.758l.019-6.542h-1.099c-.074 0-.15-.077-.15-.155v-.481c0-.077.074-.155.15-.155h1.099l-.037-2.335c0-.076.073-.155.149-.155h.653c.073 0 .149.077.149.155l-.018 2.335h2.271c.074 0 .149.076.149.155v.481c0 .077-.073.155-.149.155h-2.271v6.542c0 1.486.39 1.93 1.322 1.93.335 0 .689-.039.949-.096a.12.12 0 01.149.116v.462l-.001-.001zM184.274 13.913c-2.403 0-3.929-1.14-3.985-3.57 0-.076.074-.154.15-.154h.595c.074 0 .15.076.15.155.055 1.948 1.135 2.856 3.11 2.856 1.639 0 2.812-.772 2.812-2.142 0-3.223-6.61-.888-6.61-4.747 0-1.794 1.471-2.721 3.52-2.721 2.048 0 3.612.907 3.706 2.97 0 .077-.074.156-.15.156h-.558c-.074 0-.15-.077-.15-.155-.092-1.601-1.322-2.258-2.867-2.258s-2.607.655-2.607 1.967c0 2.933 6.61.598 6.61 4.727 0 1.832-1.639 2.914-3.724 2.914l-.002.002z" fill="#fff"/></svg>