<svg width="152" height="41" viewBox="0 0 152 41" fill="none" xmlns="http://www.w3.org/2000/svg"><path d="M.909 7l.666-1.701H4.32L4.986 7h.837L3.429.7h-.927L.099 7h.81zm2.034-5.445l1.143 3.033H1.809l1.134-3.033zM6.428 7h.738V.7h-.738V7zm1.749 0h.738V.7h-.738V7zm4.446-1.197c0 .81.315 1.197 1.197 1.197h.801v-.675h-.729c-.396 0-.53-.144-.53-.531V3.085h1.187V2.41h-1.188V1.123h-.738V2.41h-.828v.675h.828v2.718zm4.762-3.393c-.82 0-1.17.342-1.386.693l-.1-.693h-.638V7h.738V4.66c0-.729.26-1.53 1.224-1.53h.369v-.72h-.207zm4.747 3.915c-.207 0-.297-.063-.297-.306V4.012c0-1.071-.675-1.656-1.845-1.656-1.107 0-1.836.531-1.944 1.431h.738c.09-.468.522-.774 1.17-.774.72 0 1.143.36 1.143.954v.315h-1.35c-1.206 0-1.845.513-1.845 1.431 0 .837.684 1.341 1.692 1.341.792 0 1.251-.351 1.54-.765.008.45.215.711.827.711h.405v-.675h-.234zm-1.035-1.197c0 .765-.53 1.296-1.449 1.296-.612 0-.999-.306-.999-.756 0-.522.37-.765 1.026-.765h1.422v.225zM26.5 3.112c-.279-.441-.801-.756-1.575-.756-1.269 0-2.205.945-2.205 2.349 0 1.494.936 2.349 2.205 2.349.774 0 1.269-.369 1.575-.792l.099.738h.639V.7h-.738v2.412zm-1.503 3.285c-.909 0-1.521-.693-1.521-1.692s.612-1.692 1.521-1.692c.9 0 1.512.702 1.512 1.71 0 .981-.612 1.674-1.512 1.674zm3.624-4.761c.27 0 .477-.198.477-.477a.464.464 0 00-.477-.477.464.464 0 00-.477.477c0 .279.207.477.477.477zM28.242 7h.738V2.41h-.738V7zm4-4.644c-.775 0-1.243.324-1.513.675l-.099-.621h-.639V7h.738V4.705c0-1.035.522-1.674 1.386-1.674.801 0 1.242.504 1.242 1.458V7h.738V4.444c0-1.521-.819-2.088-1.854-2.088zm6.412.846c-.288-.513-.8-.846-1.575-.846-1.269 0-2.205.945-2.205 2.349 0 1.494.936 2.349 2.205 2.349.774 0 1.27-.324 1.575-.846v.54c0 .999-.522 1.449-1.485 1.449-.765 0-1.278-.324-1.404-.9h-.756c.117 1.008.936 1.557 2.106 1.557 1.575 0 2.277-.756 2.277-2.079V2.41h-.639l-.099.792zm-1.503 3.195c-.909 0-1.52-.693-1.52-1.692s.611-1.692 1.52-1.692c.9 0 1.512.702 1.512 1.71 0 .981-.612 1.674-1.512 1.674zm5.98-4.761c.27 0 .477-.198.477-.477a.464.464 0 00-.477-.477.464.464 0 00-.477.477c0 .279.207.477.477.477zM42.753 7h.738V2.41h-.738V7zm3.999-4.644c-.774 0-1.242.324-1.512.675l-.099-.621h-.639V7h.738V4.705c0-1.035.522-1.674 1.386-1.674.801 0 1.242.504 1.242 1.458V7h.738V4.444c0-1.521-.819-2.088-1.854-2.088zM50.64 7h.891l1.719-4.59h-.774l-1.377 3.753-1.386-3.753h-.792L50.64 7zm5.074.054c1.34 0 2.277-.954 2.277-2.349 0-1.395-.936-2.349-2.277-2.349-1.341 0-2.277.954-2.277 2.349 0 1.395.936 2.349 2.277 2.349zm0-.657c-.91 0-1.521-.711-1.521-1.692s.612-1.692 1.52-1.692c.91 0 1.522.711 1.522 1.692s-.612 1.692-1.521 1.692zM58.837 7h.738V.7h-.738V7zm3.009 0h.891l1.719-4.59h-.774l-1.377 3.753-1.386-3.753h-.792L61.846 7zm5.074.054c1.062 0 1.818-.675 1.998-1.593h-.747c-.153.594-.657.936-1.305.936-.873 0-1.422-.612-1.45-1.485v-.063h3.565c.009-.108.018-.216.018-.315-.036-1.359-.882-2.178-2.178-2.178-1.296 0-2.178.954-2.178 2.349 0 1.404.9 2.349 2.277 2.349zm-1.458-2.817a1.359 1.359 0 011.368-1.233c.765 0 1.305.441 1.377 1.233h-2.745zm4.172 1.251c.018 1.008.837 1.566 2.025 1.566 1.017 0 1.836-.531 1.836-1.386 0-1.017-.837-1.215-1.88-1.341-.667-.081-1.153-.144-1.153-.648 0-.423.432-.693 1.071-.693.63 0 1.062.351 1.116.819h.756c-.072-.954-.828-1.44-1.872-1.449-1.035-.009-1.8.54-1.8 1.377 0 .954.82 1.161 1.845 1.287.684.081 1.188.126 1.188.702 0 .423-.459.702-1.107.702-.765 0-1.242-.396-1.269-.936h-.756zm9.16-3.078c-.819 0-1.17.342-1.386.693l-.099-.693h-.639V7h.738V4.66c0-.729.261-1.53 1.224-1.53h.369v-.72h-.207zm1.225-.774c.27 0 .477-.198.477-.477a.464.464 0 00-.477-.477.464.464 0 00-.477.477c0 .279.207.477.477.477zM79.64 7h.738V2.41h-.738V7zm1.56-1.512c.018 1.008.837 1.566 2.025 1.566 1.017 0 1.836-.531 1.836-1.386 0-1.017-.837-1.215-1.881-1.341-.666-.081-1.152-.144-1.152-.648 0-.423.432-.693 1.07-.693.63 0 1.063.351 1.117.819h.756c-.072-.954-.828-1.44-1.872-1.449-1.035-.009-1.8.54-1.8 1.377 0 .954.819 1.161 1.845 1.287.684.081 1.188.126 1.188.702 0 .423-.46.702-1.107.702-.765 0-1.242-.396-1.27-.936h-.755zM85.88 7h.738V5.794l.927-.954L89.067 7h.891l-1.917-2.691 1.791-1.899h-.909l-2.304 2.439V.7h-.738V7zm4.507-.45c0 .306.216.504.513.504.297 0 .513-.198.513-.504s-.216-.504-.513-.504c-.297 0-.513.198-.513.504zm4.408.45h4.13v-.72H95.58V4.156h2.69v-.72h-2.69V1.42h3.23V.7h-4.013V7zm7.151-4.644c-.774 0-1.242.324-1.512.675l-.099-.621h-.639V7h.738V4.705c0-1.035.522-1.674 1.386-1.674.801 0 1.242.504 1.242 1.458V7h.738V4.444c0-1.521-.819-2.088-1.854-2.088zm2.606 3.132c.018 1.008.837 1.566 2.025 1.566 1.017 0 1.836-.531 1.836-1.386 0-1.017-.837-1.215-1.881-1.341-.666-.081-1.152-.144-1.152-.648 0-.423.432-.693 1.071-.693.63 0 1.062.351 1.116.819h.756c-.072-.954-.828-1.44-1.872-1.449-1.035-.009-1.8.54-1.8 1.377 0 .954.819 1.161 1.845 1.287.684.081 1.188.126 1.188.702 0 .423-.459.702-1.107.702-.765 0-1.242-.396-1.269-.936h-.756zm7.893-.783c0 1.035-.504 1.674-1.341 1.674-.765 0-1.197-.504-1.197-1.458V2.41h-.738v2.556c0 1.521.801 2.088 1.809 2.088.756 0 1.197-.324 1.467-.666l.099.612h.639V2.41h-.738v2.295zm3.869-2.295c-.819 0-1.17.342-1.386.693l-.099-.693h-.639V7h.738V4.66c0-.729.261-1.53 1.224-1.53h.369v-.72h-.207zm2.698 4.644c1.062 0 1.818-.675 1.998-1.593h-.747c-.153.594-.657.936-1.305.936-.873 0-1.422-.612-1.449-1.485v-.063h3.564c.009-.108.018-.216.018-.315-.036-1.359-.882-2.178-2.178-2.178-1.296 0-2.178.954-2.178 2.349 0 1.404.9 2.349 2.277 2.349zm-1.458-2.817a1.359 1.359 0 011.368-1.233c.765 0 1.305.441 1.377 1.233h-2.745zm8.066 2.79l-.225.558c-.171.432-.243.54-.666.54h-.657V8.8h.882c.648 0 .819-.288 1.107-1.026l2.115-5.364h-.783l-1.368 3.663-1.413-3.663h-.783l1.791 4.617zm5.019.027c1.341 0 2.277-.954 2.277-2.349 0-1.395-.936-2.349-2.277-2.349-1.341 0-2.277.954-2.277 2.349 0 1.395.936 2.349 2.277 2.349zm0-.657c-.909 0-1.521-.711-1.521-1.692s.612-1.692 1.521-1.692c.909 0 1.521.711 1.521 1.692s-.612 1.692-1.521 1.692zm6.337-1.692c0 1.035-.504 1.674-1.341 1.674-.765 0-1.197-.504-1.197-1.458V2.41h-.738v2.556c0 1.521.801 2.088 1.809 2.088.756 0 1.197-.324 1.467-.666l.099.612h.639V2.41h-.738v2.295zm-133.26 11c0 1.035-.504 1.674-1.341 1.674-.765 0-1.197-.504-1.197-1.458V13.41H.441v2.556c0 1.521.801 2.088 1.809 2.088.756 0 1.197-.324 1.467-.666l.099.612h.639v-4.59h-.738v2.295zm3.994-2.349c-.774 0-1.242.324-1.512.675L6.1 13.41h-.639V18h.738v-2.295c0-1.035.522-1.674 1.386-1.674.801 0 1.242.504 1.242 1.458V18h.738v-2.556c0-1.521-.819-2.088-1.854-2.088zm6.36.756c-.279-.441-.8-.756-1.575-.756-1.269 0-2.205.945-2.205 2.349 0 1.494.936 2.349 2.205 2.349.774 0 1.27-.369 1.575-.792l.1.738h.638v-6.3h-.738v2.412zm-1.503 3.285c-.909 0-1.52-.693-1.52-1.692s.611-1.692 1.52-1.692c.9 0 1.512.702 1.512 1.71 0 .981-.612 1.674-1.512 1.674zm5.362.657c1.061 0 1.817-.675 1.997-1.593h-.747c-.152.594-.657.936-1.305.936-.872 0-1.422-.612-1.448-1.485v-.063h3.564c.009-.108.018-.216.018-.315-.037-1.359-.883-2.178-2.178-2.178-1.296 0-2.178.954-2.178 2.349 0 1.404.9 2.349 2.277 2.349zm-1.459-2.817a1.359 1.359 0 011.369-1.233c.765 0 1.305.441 1.377 1.233h-2.745zm6.504-1.827c-.82 0-1.17.342-1.386.693l-.1-.693h-.638V18h.738v-2.34c0-.729.26-1.53 1.224-1.53h.369v-.72h-.207zm.56 3.078c.019 1.008.838 1.566 2.026 1.566 1.017 0 1.836-.531 1.836-1.386 0-1.017-.837-1.215-1.881-1.341-.666-.081-1.152-.144-1.152-.648 0-.423.432-.693 1.07-.693.63 0 1.063.351 1.117.819h.756c-.072-.954-.828-1.44-1.872-1.449-1.035-.009-1.8.54-1.8 1.377 0 .954.819 1.161 1.845 1.287.684.081 1.188.126 1.188.702 0 .423-.46.702-1.107.702-.765 0-1.242-.396-1.27-.936h-.755zm5.023.315c0 .81.315 1.197 1.197 1.197h.8v-.675h-.728c-.396 0-.531-.144-.531-.531v-2.709h1.188v-.675h-1.188v-1.287h-.738v1.287h-.828v.675h.828v2.718zm6.626.522c-.207 0-.297-.063-.297-.306v-2.007c0-1.071-.675-1.656-1.845-1.656-1.107 0-1.836.531-1.944 1.431h.738c.09-.468.522-.774 1.17-.774.72 0 1.143.36 1.143.954v.315H32.8c-1.206 0-1.845.513-1.845 1.431 0 .837.684 1.341 1.692 1.341.792 0 1.251-.351 1.54-.765.008.45.215.711.827.711h.405v-.675h-.234zm-1.035-1.197c0 .765-.53 1.296-1.449 1.296-.612 0-.999-.306-.999-.756 0-.522.37-.765 1.026-.765h1.422v.225zm4.086-2.772c-.774 0-1.242.324-1.512.675l-.099-.621h-.639V18h.738v-2.295c0-1.035.522-1.674 1.386-1.674.801 0 1.242.504 1.242 1.458V18h.738v-2.556c0-1.521-.819-2.088-1.854-2.088zm6.36.756c-.278-.441-.8-.756-1.574-.756-1.27 0-2.205.945-2.205 2.349 0 1.494.936 2.349 2.205 2.349.774 0 1.269-.369 1.575-.792l.099.738h.639v-6.3h-.738v2.412zm-1.502 3.285c-.91 0-1.521-.693-1.521-1.692s.612-1.692 1.52-1.692c.9 0 1.513.702 1.513 1.71 0 .981-.612 1.674-1.512 1.674zm5.943-.594c0 .81.315 1.197 1.197 1.197h.801v-.675h-.729c-.396 0-.53-.144-.53-.531v-2.709h1.187v-.675h-1.188v-1.287h-.738v1.287h-.828v.675h.828v2.718zm4.888-3.447c-.774 0-1.242.378-1.512.81V11.7h-.738V18h.738v-2.295c0-1.035.53-1.674 1.386-1.674.792 0 1.25.504 1.25 1.458V18h.739v-2.556c0-1.521-.837-2.088-1.863-2.088zm4.866 4.698c1.34 0 2.277-.954 2.277-2.349 0-1.395-.936-2.349-2.277-2.349-1.341 0-2.277.954-2.277 2.349 0 1.395.936 2.349 2.277 2.349zm0-.657c-.91 0-1.521-.711-1.521-1.692s.612-1.692 1.52-1.692c.91 0 1.522.711 1.522 1.692s-.612 1.692-1.521 1.692zm2.917-.909c.018 1.008.837 1.566 2.025 1.566 1.017 0 1.836-.531 1.836-1.386 0-1.017-.837-1.215-1.881-1.341-.666-.081-1.152-.144-1.152-.648 0-.423.432-.693 1.07-.693.63 0 1.063.351 1.117.819h.756c-.072-.954-.828-1.44-1.872-1.449-1.035-.009-1.8.54-1.8 1.377 0 .954.819 1.161 1.845 1.287.684.081 1.188.126 1.188.702 0 .423-.46.702-1.107.702-.765 0-1.242-.396-1.27-.936h-.755zm6.795 1.566c1.062 0 1.818-.675 1.998-1.593h-.747c-.153.594-.657.936-1.305.936-.873 0-1.422-.612-1.45-1.485v-.063h3.565c.009-.108.018-.216.018-.315-.036-1.359-.882-2.178-2.178-2.178-1.296 0-2.178.954-2.178 2.349 0 1.404.9 2.349 2.277 2.349zm-1.458-2.817a1.359 1.359 0 011.368-1.233c.765 0 1.305.441 1.377 1.233h-2.745zm8.858-1.827c-.819 0-1.17.342-1.386.693l-.099-.693h-.639V18h.738v-2.34c0-.729.261-1.53 1.224-1.53h.37v-.72h-.208zm1.225-.774c.27 0 .477-.198.477-.477a.464.464 0 00-.477-.477.464.464 0 00-.477.477c0 .279.207.477.477.477zM76.75 18h.738v-4.59h-.738V18zm1.56-1.512c.018 1.008.837 1.566 2.025 1.566 1.017 0 1.836-.531 1.836-1.386 0-1.017-.837-1.215-1.88-1.341-.667-.081-1.153-.144-1.153-.648 0-.423.432-.693 1.071-.693.63 0 1.062.351 1.116.819h.756c-.072-.954-.828-1.44-1.872-1.449-1.035-.009-1.8.54-1.8 1.377 0 .954.82 1.161 1.845 1.287.684.081 1.188.126 1.188.702 0 .423-.459.702-1.107.702-.765 0-1.242-.396-1.269-.936h-.756zM82.99 18h.738v-1.206l.927-.954L86.175 18h.891l-1.917-2.691 1.791-1.899h-.909l-2.304 2.439V11.7h-.738V18zm4.267-1.512c.018 1.008.837 1.566 2.025 1.566 1.017 0 1.836-.531 1.836-1.386 0-1.017-.837-1.215-1.88-1.341-.667-.081-1.153-.144-1.153-.648 0-.423.432-.693 1.071-.693.63 0 1.062.351 1.116.819h.756c-.072-.954-.828-1.44-1.872-1.449-1.035-.009-1.8.54-1.8 1.377 0 .954.82 1.161 1.845 1.287.684.081 1.188.126 1.188.702 0 .423-.459.702-1.107.702-.765 0-1.242-.396-1.269-.936h-.756zm9.35-3.132c-.775 0-1.27.369-1.576.792V11.7h-.738V18h.64l.098-.702c.28.441.801.756 1.575.756 1.27 0 2.205-.945 2.205-2.349 0-1.494-.936-2.349-2.205-2.349zm-.073 4.041c-.9 0-1.512-.702-1.512-1.71 0-.981.612-1.674 1.512-1.674.91 0 1.521.693 1.521 1.692s-.612 1.692-1.52 1.692zm5.235.657c1.062 0 1.818-.675 1.998-1.593h-.747c-.153.594-.657.936-1.305.936-.873 0-1.422-.612-1.449-1.485v-.063h3.564c.009-.108.018-.216.018-.315-.036-1.359-.882-2.178-2.178-2.178-1.296 0-2.178.954-2.178 2.349 0 1.404.9 2.349 2.277 2.349zm-1.458-2.817a1.359 1.359 0 011.368-1.233c.765 0 1.305.441 1.377 1.233h-2.745zm3.841-1.152h.828V18h.738v-3.915h1.296v-.675h-1.296v-.531c0-.351.135-.504.504-.504h.792V11.7h-.837c-.855 0-1.197.387-1.197 1.197v.513h-.828v.675zm5.299 3.969c1.341 0 2.277-.954 2.277-2.349 0-1.395-.936-2.349-2.277-2.349-1.341 0-2.277.954-2.277 2.349 0 1.395.936 2.349 2.277 2.349zm0-.657c-.909 0-1.521-.711-1.521-1.692s.612-1.692 1.521-1.692c.909 0 1.521.711 1.521 1.692s-.612 1.692-1.521 1.692zm5.247-3.987c-.819 0-1.17.342-1.386.693l-.099-.693h-.639V18h.738v-2.34c0-.729.261-1.53 1.224-1.53h.369v-.72h-.207zm2.698 4.644c1.062 0 1.818-.675 1.998-1.593h-.747c-.153.594-.657.936-1.305.936-.873 0-1.422-.612-1.449-1.485v-.063h3.564c.009-.108.018-.216.018-.315-.036-1.359-.882-2.178-2.178-2.178-1.296 0-2.178.954-2.178 2.349 0 1.404.9 2.349 2.277 2.349zm-1.458-2.817a1.359 1.359 0 011.368-1.233c.765 0 1.305.441 1.377 1.233h-2.745zm7.077 1.566c0 .81.315 1.197 1.197 1.197h.801v-.675h-.729c-.396 0-.531-.144-.531-.531v-2.709h1.188v-.675h-1.188v-1.287h-.738v1.287h-.828v.675h.828v2.718zm4.761-3.393c-.819 0-1.17.342-1.386.693l-.099-.693h-.639V18h.738v-2.34c0-.729.261-1.53 1.224-1.53h.369v-.72h-.207zm4.748 3.915c-.207 0-.297-.063-.297-.306v-2.007c0-1.071-.675-1.656-1.845-1.656-1.107 0-1.836.531-1.944 1.431h.738c.09-.468.522-.774 1.17-.774.72 0 1.143.36 1.143.954v.315h-1.35c-1.206 0-1.845.513-1.845 1.431 0 .837.684 1.341 1.692 1.341.792 0 1.251-.351 1.539-.765.009.45.216.711.828.711h.405v-.675h-.234zm-1.035-1.197c0 .765-.531 1.296-1.449 1.296-.612 0-.999-.306-.999-.756 0-.522.369-.765 1.026-.765h1.422v.225zm5.402-2.016c-.279-.441-.801-.756-1.575-.756-1.269 0-2.205.945-2.205 2.349 0 1.494.936 2.349 2.205 2.349.774 0 1.269-.369 1.575-.792l.099.738h.639v-6.3h-.738v2.412zm-1.503 3.285c-.909 0-1.521-.693-1.521-1.692s.612-1.692 1.521-1.692c.9 0 1.512.702 1.512 1.71 0 .981-.612 1.674-1.512 1.674zm3.624-4.761c.27 0 .477-.198.477-.477a.464.464 0 00-.477-.477.464.464 0 00-.477.477c0 .279.207.477.477.477zM138.633 18h.738v-4.59h-.738V18zm3.999-4.644c-.774 0-1.242.324-1.512.675l-.099-.621h-.639V18h.738v-2.295c0-1.035.522-1.674 1.386-1.674.801 0 1.242.504 1.242 1.458V18h.738v-2.556c0-1.521-.819-2.088-1.854-2.088zm6.413.846c-.288-.513-.801-.846-1.575-.846-1.269 0-2.205.945-2.205 2.349 0 1.494.936 2.349 2.205 2.349.774 0 1.269-.324 1.575-.846v.54c0 .999-.522 1.449-1.485 1.449-.765 0-1.278-.324-1.404-.9h-.756c.117 1.008.936 1.557 2.106 1.557 1.575 0 2.277-.756 2.277-2.079V13.41h-.639l-.099.792zm-1.503 3.195c-.909 0-1.521-.693-1.521-1.692s.612-1.692 1.521-1.692c.9 0 1.512.702 1.512 1.71 0 .981-.612 1.674-1.512 1.674zm3.156.153c0 .306.216.504.513.504.297 0 .513-.198.513-.504s-.216-.504-.513-.504c-.297 0-.513.198-.513.504zM3.195 23.366l-1.053.486.027-1.161h-.513l.018 1.152-1.044-.477-.207.504 1.098.405-.756.891.387.36.747-.945.756.945.396-.36-.747-.882 1.098-.405-.207-.513zM4.435 29h.783v-2.754H7.81v-.72H5.218V23.42H8.35v-.72H4.435V29zm6.499-4.59c-.82 0-1.17.342-1.386.693l-.1-.693H8.81V29h.738v-2.34c0-.729.26-1.53 1.224-1.53h.369v-.72h-.207zm2.698 4.644c1.34 0 2.277-.954 2.277-2.349 0-1.395-.936-2.349-2.277-2.349-1.341 0-2.277.954-2.277 2.349 0 1.395.936 2.349 2.277 2.349zm0-.657c-.91 0-1.521-.711-1.521-1.692s.612-1.692 1.52-1.692c.91 0 1.522.711 1.522 1.692s-.612 1.692-1.521 1.692zm8.244-4.041c-.819 0-1.314.378-1.593.873-.261-.585-.81-.873-1.449-.873-.711 0-1.098.351-1.341.684l-.099-.63h-.639V29h.738v-2.421c0-.918.459-1.548 1.215-1.548.702 0 1.107.468 1.107 1.368V29h.738v-2.457c0-.936.468-1.512 1.233-1.512.693 0 1.089.468 1.089 1.368V29h.738v-2.646c0-1.449-.783-1.998-1.737-1.998zm6.038-.972c0 .315-.144.54-.44.54h-1.027v.675h1.017c.198 0 .342-.036.432-.117V29h.756v-6.3h-.738v.684zM32.244 29h.765v-4.968L35.097 29h.693l2.088-4.968V29h.765v-6.3h-.972l-2.205 5.229-2.232-5.229h-.99V29zm11.571-.675c-.207 0-.297-.063-.297-.306v-2.007c0-1.071-.675-1.656-1.845-1.656-1.107 0-1.836.531-1.944 1.431h.738c.09-.468.522-.774 1.17-.774.72 0 1.143.36 1.143.954v.315h-1.35c-1.206 0-1.845.513-1.845 1.431 0 .837.684 1.341 1.692 1.341.792 0 1.251-.351 1.539-.765.009.45.216.711.828.711h.405v-.675h-.234zm-1.035-1.197c0 .765-.531 1.296-1.449 1.296-.612 0-.999-.306-.999-.756 0-.522.369-.765 1.026-.765h1.422v.225zm3.96-2.718c-.819 0-1.17.342-1.386.693l-.099-.693h-.639V29h.738v-2.34c0-.729.261-1.53 1.224-1.53h.37v-.72h-.208zm.697 3.645c-.378 0-.594.225-.594.522 0 .324.207.486.477.486a.454.454 0 00.306-.108.475.475 0 01.009.117c0 .306-.18.711-.756.72v.423c.792-.018 1.269-.477 1.269-1.242 0-.495-.27-.918-.711-.918zm5.938.999c1.116 0 1.863-.63 2.043-1.62h-.783c-.144.585-.594.963-1.251.963-.882 0-1.476-.684-1.476-1.683s.594-1.701 1.476-1.701c.675 0 1.125.369 1.26.981h.774c-.19-1.008-.9-1.638-2.025-1.638-1.332 0-2.241.954-2.241 2.358 0 1.431.882 2.34 2.223 2.34zm4.967 0c1.34 0 2.277-.954 2.277-2.349 0-1.395-.936-2.349-2.277-2.349-1.341 0-2.277.954-2.277 2.349 0 1.395.936 2.349 2.277 2.349zm0-.657c-.91 0-1.521-.711-1.521-1.692s.612-1.692 1.52-1.692c.91 0 1.522.711 1.522 1.692s-.612 1.692-1.521 1.692zm8.244-4.041c-.82 0-1.314.378-1.593.873-.261-.585-.81-.873-1.45-.873-.71 0-1.097.351-1.34.684l-.1-.63h-.638V29h.738v-2.421c0-.918.459-1.548 1.215-1.548.702 0 1.107.468 1.107 1.368V29h.738v-2.457c0-.936.468-1.512 1.233-1.512.693 0 1.089.468 1.089 1.368V29h.738v-2.646c0-1.449-.783-1.998-1.737-1.998zm7.805 0c-.82 0-1.314.378-1.593.873-.261-.585-.81-.873-1.45-.873-.71 0-1.097.351-1.34.684l-.1-.63h-.638V29h.738v-2.421c0-.918.459-1.548 1.215-1.548.702 0 1.107.468 1.107 1.368V29h.738v-2.457c0-.936.468-1.512 1.233-1.512.693 0 1.089.468 1.089 1.368V29h.738v-2.646c0-1.449-.783-1.998-1.737-1.998zm3.061-.72c.27 0 .477-.198.477-.477a.464.464 0 00-.477-.477.464.464 0 00-.477.477c0 .279.207.477.477.477zM77.074 29h.738v-4.59h-.738V29zm1.56-1.512c.018 1.008.837 1.566 2.025 1.566 1.017 0 1.836-.531 1.836-1.386 0-1.017-.837-1.215-1.88-1.341-.667-.081-1.153-.144-1.153-.648 0-.423.432-.693 1.071-.693.63 0 1.062.351 1.116.819h.756c-.072-.954-.828-1.44-1.872-1.449-1.035-.009-1.8.54-1.8 1.377 0 .954.82 1.161 1.845 1.287.684.081 1.188.126 1.188.702 0 .423-.459.702-1.107.702-.765 0-1.242-.396-1.269-.936h-.756zm4.404 0c.018 1.008.837 1.566 2.025 1.566 1.017 0 1.836-.531 1.836-1.386 0-1.017-.837-1.215-1.881-1.341-.666-.081-1.152-.144-1.152-.648 0-.423.432-.693 1.07-.693.63 0 1.063.351 1.117.819h.756c-.072-.954-.828-1.44-1.872-1.449-1.035-.009-1.8.54-1.8 1.377 0 .954.819 1.161 1.845 1.287.684.081 1.188.126 1.188.702 0 .423-.46.702-1.107.702-.765 0-1.242-.396-1.27-.936h-.755zm5.058-3.852c.27 0 .477-.198.477-.477a.464.464 0 00-.477-.477.464.464 0 00-.477.477c0 .279.207.477.477.477zM87.718 29h.738v-4.59h-.738V29zm3.864.054c1.34 0 2.277-.954 2.277-2.349 0-1.395-.936-2.349-2.277-2.349-1.341 0-2.277.954-2.277 2.349 0 1.395.936 2.349 2.277 2.349zm0-.657c-.91 0-1.521-.711-1.521-1.692s.612-1.692 1.52-1.692c.91 0 1.522.711 1.522 1.692s-.612 1.692-1.521 1.692zm5.373-4.041c-.774 0-1.242.324-1.512.675l-.099-.621h-.639V29h.738v-2.295c0-1.035.522-1.674 1.386-1.674.801 0 1.242.504 1.242 1.458V29h.738v-2.556c0-1.521-.819-2.088-1.854-2.088zm2.606 3.132c.018 1.008.837 1.566 2.025 1.566 1.017 0 1.836-.531 1.836-1.386 0-1.017-.837-1.215-1.881-1.341-.666-.081-1.152-.144-1.152-.648 0-.423.432-.693 1.071-.693.63 0 1.062.351 1.116.819h.756c-.072-.954-.828-1.44-1.872-1.449-1.035-.009-1.8.54-1.8 1.377 0 .954.819 1.161 1.845 1.287.684.081 1.188.126 1.188.702 0 .423-.459.702-1.107.702-.765 0-1.242-.396-1.269-.936h-.756zm-99.246 11c.018 1.008.837 1.566 2.025 1.566 1.017 0 1.836-.531 1.836-1.386 0-1.017-.837-1.215-1.881-1.341-.666-.081-1.152-.144-1.152-.648 0-.423.432-.693 1.071-.693.63 0 1.062.351 1.116.819h.756c-.072-.954-.828-1.44-1.872-1.449-1.035-.009-1.8.54-1.8 1.377 0 .954.819 1.161 1.845 1.287.684.081 1.188.126 1.188.702 0 .423-.459.702-1.107.702-.765 0-1.242-.396-1.269-.936H.315zm5.022.315c0 .81.315 1.197 1.197 1.197h.801v-.675h-.729c-.396 0-.53-.144-.53-.531v-2.709h1.187v-.675H6.075v-1.287h-.738v1.287H4.51v.675h.828v2.718zm6.626.522c-.207 0-.297-.063-.297-.306v-2.007c0-1.071-.675-1.656-1.845-1.656-1.107 0-1.836.531-1.944 1.431h.738c.09-.468.522-.774 1.17-.774.72 0 1.143.36 1.143.954v.315h-1.35c-1.206 0-1.845.513-1.845 1.431 0 .837.684 1.341 1.692 1.341.792 0 1.251-.351 1.54-.765.008.45.215.711.827.711h.405v-.675h-.234zm-1.035-1.197c0 .765-.53 1.296-1.449 1.296-.612 0-.999-.306-.999-.756 0-.522.37-.765 1.026-.765h1.422v.225zm3.96-2.718c-.818 0-1.17.342-1.385.693l-.1-.693h-.638V40h.738v-2.34c0-.729.26-1.53 1.224-1.53h.369v-.72h-.207zm1.339 3.393c0 .81.315 1.197 1.197 1.197h.8v-.675h-.728c-.396 0-.531-.144-.531-.531v-2.709h1.188v-.675h-1.188v-1.287h-.738v1.287h-.828v.675h.828v2.718zm4.507-2.718h.828V40h.738v-3.915h1.296v-.675H22.3v-.531c0-.351.135-.504.504-.504h.792V33.7h-.837c-.855 0-1.197.387-1.197 1.197v.513h-.828v.675zm5.519-.675c-.819 0-1.17.342-1.386.693l-.099-.693h-.639V40h.738v-2.34c0-.729.261-1.53 1.224-1.53h.369v-.72h-.207zm2.698 4.644c1.341 0 2.277-.954 2.277-2.349 0-1.395-.936-2.349-2.277-2.349-1.341 0-2.277.954-2.277 2.349 0 1.395.936 2.349 2.277 2.349zm0-.657c-.909 0-1.521-.711-1.521-1.692s.612-1.692 1.521-1.692c.909 0 1.521.711 1.521 1.692s-.612 1.692-1.521 1.692zm8.244-4.041c-.819 0-1.314.378-1.593.873-.26-.585-.81-.873-1.449-.873-.71 0-1.098.351-1.34.684l-.1-.63h-.639V40h.738v-2.421c0-.918.46-1.548 1.215-1.548.702 0 1.107.468 1.107 1.368V40h.738v-2.457c0-.936.468-1.512 1.233-1.512.693 0 1.09.468 1.09 1.368V40h.737v-2.646c0-1.449-.783-1.998-1.737-1.998zm5.111 1.953c0 1.8.82 2.745 2.395 2.745 1.575 0 2.411-.945 2.411-2.745V33.7h-.782v3.654c0 1.305-.523 1.98-1.63 1.98-1.089 0-1.61-.675-1.61-1.98V33.7h-.784v3.609zm5.744.63c.044 1.242.945 2.115 2.483 2.115 1.323 0 2.242-.765 2.242-1.854 0-1.224-1.053-1.566-2.08-1.737-.944-.162-1.71-.315-1.71-1.071 0-.675.55-1.035 1.368-1.035.855 0 1.44.477 1.53 1.206h.81c-.072-1.134-.935-1.917-2.34-1.917-1.278 0-2.15.72-2.15 1.791 0 1.224 1.043 1.557 2.06 1.728.955.162 1.729.324 1.729 1.107 0 .684-.603 1.071-1.45 1.071-.962 0-1.62-.558-1.683-1.404h-.81zM55.784 40c1.971 0 3.168-1.269 3.168-3.15 0-1.89-1.197-3.15-3.168-3.15h-2.016V40h2.016zm-1.233-5.58h1.233c1.53 0 2.367.954 2.367 2.43 0 1.467-.837 2.43-2.367 2.43h-1.233v-4.86zm9.86 3.78c0-1.224-1.053-1.566-2.079-1.737-.945-.162-1.71-.315-1.71-1.071 0-.675.55-1.035 1.368-1.035.855 0 1.44.477 1.53 1.206h.81c-.063-1.008-.747-1.737-1.88-1.89v-.945h-.685v.927c-1.152.081-1.926.774-1.926 1.782 0 1.224 1.044 1.557 2.061 1.728.954.162 1.728.324 1.728 1.107 0 .684-.603 1.071-1.449 1.071-.963 0-1.62-.558-1.683-1.404h-.81c.045 1.125.792 1.953 2.08 2.097v.927h.683v-.918c1.17-.099 1.962-.837 1.962-1.845zm3.973-1.476c.603-.162 1.017-.621 1.017-1.413 0-.99-.819-1.665-2.115-1.665-1.242 0-2.106.765-2.115 1.872h.747c.009-.72.585-1.197 1.377-1.197.756 0 1.332.396 1.332 1.035 0 .639-.468 1.107-1.404 1.107h-.495v.657h.54c.981 0 1.521.423 1.521 1.08 0 .72-.63 1.179-1.449 1.179-.891 0-1.539-.495-1.548-1.323h-.747c0 1.251.882 1.998 2.25 1.998 1.368 0 2.268-.729 2.268-1.8 0-.963-.603-1.422-1.179-1.53zm1.745 2.826c0 .306.216.504.513.504.297 0 .513-.198.513-.504s-.216-.504-.513-.504c-.297 0-.513.198-.513.504z" fill="#000"/></svg>