<svg width="139" height="35" viewBox="0 0 139 35" fill="none" xmlns="http://www.w3.org/2000/svg"><path d="M3.36 12h2.16l2.256-8.24L10.064 12h2.144L15.424.8h-1.888l-2.4 8.864L8.704.8H6.96L4.464 9.664 2.08.784.176.8 3.36 12zm16.22.096c2.032 0 3.408-1.232 3.696-2.848h-1.728c-.24.912-1.008 1.44-2.064 1.44-1.36 0-2.24-.912-2.288-2.304v-.112h6.176c.032-.224.048-.448.048-.656-.048-2.4-1.632-3.904-4-3.904-2.416 0-4.032 1.68-4.032 4.208 0 2.512 1.616 4.176 4.192 4.176zm-2.32-5.088c.128-1.168 1.072-1.904 2.176-1.904 1.2 0 2.048.688 2.192 1.904H17.26zm17.906-1.92c-.527-.816-1.407-1.376-2.688-1.376-2.224 0-3.872 1.648-3.872 4.16 0 2.608 1.648 4.16 3.872 4.16 1.28 0 2.128-.528 2.672-1.344v.912c0 1.568-.847 2.288-2.352 2.288-1.216 0-2.016-.528-2.224-1.44h-1.76c.16 1.84 1.68 2.848 3.856 2.848 2.944 0 4.192-1.408 4.192-3.632V3.808h-1.504l-.191 1.28zm-2.4 5.488c-1.44 0-2.383-1.104-2.383-2.704 0-1.584.944-2.704 2.384-2.704s2.383 1.12 2.383 2.736c0 1.568-.944 2.672-2.383 2.672zm9.657 1.52c2.496 0 4.176-1.68 4.176-4.192 0-2.496-1.68-4.192-4.176-4.192-2.496 0-4.176 1.696-4.176 4.192 0 2.512 1.68 4.192 4.176 4.192zm0-1.472c-1.456 0-2.4-1.136-2.4-2.72 0-1.584.944-2.72 2.4-2.72s2.416 1.136 2.416 2.72c0 1.584-.96 2.72-2.416 2.72zm10.251-.848c0 1.488.672 2.224 2.24 2.224h1.6v-1.52h-1.216c-.656 0-.88-.24-.88-.88V5.328h2v-1.52h-2V1.52h-1.744v2.288H51.25v1.52h1.424v4.448zm8.64 2.32c2.496 0 4.176-1.68 4.176-4.192 0-2.496-1.68-4.192-4.176-4.192-2.496 0-4.176 1.696-4.176 4.192 0 2.512 1.68 4.192 4.176 4.192zm0-1.472c-1.456 0-2.4-1.136-2.4-2.72 0-1.584.944-2.72 2.4-2.72s2.416 1.136 2.416 2.72c0 1.584-.96 2.72-2.416 2.72zm9.355-5.296h4.384l-4.576 5.44V12h7.104v-1.52h-4.784l4.576-5.44V3.808h-6.704v1.52zm11.63 6.768c2.031 0 3.407-1.232 3.695-2.848h-1.728c-.24.912-1.008 1.44-2.064 1.44-1.36 0-2.24-.912-2.287-2.304v-.112h6.175c.032-.224.048-.448.048-.656-.047-2.4-1.632-3.904-4-3.904-2.416 0-4.032 1.68-4.032 4.208 0 2.512 1.617 4.176 4.193 4.176zm-2.32-5.088c.127-1.168 1.072-1.904 2.175-1.904 1.2 0 2.049.688 2.193 1.904h-4.368zm11.7-3.2c-1.344 0-2 .544-2.416 1.232l-.192-1.232h-1.535V12h1.727V7.888c0-1.264.496-2.464 2.032-2.464h.769V3.808h-.384zm4.932 8.288c2.496 0 4.176-1.68 4.176-4.192 0-2.496-1.68-4.192-4.176-4.192-2.496 0-4.176 1.696-4.176 4.192 0 2.512 1.68 4.192 4.176 4.192zm0-1.472c-1.456 0-2.4-1.136-2.4-2.72 0-1.584.944-2.72 2.4-2.72s2.416 1.136 2.416 2.72c0 1.584-.96 2.72-2.416 2.72zm5.865-.688c-.736 0-1.216.48-1.216 1.088 0 .688.416 1.024.944 1.024a.86.86 0 00.528-.16.912.912 0 01.016.208c0 .56-.4 1.184-1.408 1.2v.928c1.584-.016 2.576-.896 2.576-2.448 0-1.024-.56-1.84-1.44-1.84zM.496 28.296c.048 1.776 1.552 2.8 3.744 2.8 1.984 0 3.472-.992 3.472-2.56 0-1.824-1.52-2.208-3.392-2.432-1.184-.128-1.968-.224-1.968-.992 0-.656.672-1.072 1.696-1.072s1.728.528 1.824 1.28h1.696c-.112-1.68-1.536-2.608-3.552-2.608-1.968-.016-3.36.992-3.36 2.544 0 1.696 1.472 2.096 3.344 2.32 1.264.16 2.016.224 2.016 1.104 0 .656-.704 1.072-1.776 1.072-1.248 0-1.984-.608-2.048-1.456H.496zm12.427 2.8c2.496 0 4.176-1.68 4.176-4.192 0-2.496-1.68-4.192-4.176-4.192-2.496 0-4.176 1.696-4.176 4.192 0 2.512 1.68 4.192 4.176 4.192zm0-1.472c-1.456 0-2.4-1.136-2.4-2.72 0-1.584.944-2.72 2.4-2.72s2.416 1.136 2.416 2.72c0 1.584-.96 2.72-2.416 2.72zm12.027 1.424l-.32.8c-.256.672-.416.832-1.088.832h-1.216v1.52h1.856c1.2 0 1.552-.592 2.064-1.92l3.712-9.472h-1.84l-2.224 6.224-2.288-6.224h-1.84l3.184 8.24zm9.38.048c2.495 0 4.175-1.68 4.175-4.192 0-2.496-1.68-4.192-4.176-4.192-2.496 0-4.176 1.696-4.176 4.192 0 2.512 1.68 4.192 4.176 4.192zm0-1.472c-1.457 0-2.4-1.136-2.4-2.72 0-1.584.943-2.72 2.4-2.72 1.455 0 2.415 1.136 2.415 2.72 0 1.584-.96 2.72-2.416 2.72zm11.18-2.72c0 1.696-.8 2.688-2.111 2.688-1.264 0-1.904-.816-1.904-2.416v-4.368h-1.728v4.56c0 2.8 1.488 3.728 3.232 3.728 1.264 0 2.016-.512 2.528-1.136l.192 1.04h1.52v-8.192H45.51v4.096zm11.285 4.192c2.096 0 3.488-1.168 3.808-3.024H58.78c-.208.944-.912 1.552-1.968 1.552-1.392 0-2.303-1.104-2.303-2.704 0-1.616.911-2.736 2.303-2.736 1.072 0 1.76.592 1.984 1.552h1.808c-.336-1.856-1.648-3.024-3.76-3.024-2.48 0-4.112 1.68-4.112 4.208 0 2.56 1.584 4.176 4.064 4.176zm12.62-1.6c-.353 0-.529-.112-.529-.528v-3.28c0-1.936-1.248-2.976-3.424-2.976-2.064 0-3.44.992-3.616 2.592h1.696c.128-.72.816-1.2 1.84-1.2 1.136 0 1.792.56 1.792 1.472v.496H65.11c-2.288 0-3.504.944-3.504 2.624 0 1.52 1.248 2.4 3.04 2.4 1.328 0 2.16-.576 2.704-1.408 0 .816.384 1.312 1.504 1.312h.912v-1.504h-.352zm-2.24-1.856c-.017 1.264-.849 2.112-2.289 2.112-.944 0-1.52-.48-1.52-1.168 0-.832.592-1.232 1.664-1.232h2.144v.288zm7.852-4.928c-1.328 0-2.112.528-2.624 1.168l-.192-1.072h-1.504V31h1.728v-4.128c0-1.664.816-2.672 2.192-2.672 1.296 0 1.952.832 1.952 2.384V31h1.744v-4.56c0-2.736-1.488-3.728-3.296-3.728zm15.218 1.376c-.528-.816-1.408-1.376-2.688-1.376-2.224 0-3.872 1.648-3.872 4.16 0 2.608 1.648 4.16 3.872 4.16 1.28 0 2.128-.528 2.672-1.344v.912c0 1.568-.848 2.288-2.352 2.288-1.216 0-2.016-.528-2.224-1.44h-1.76c.16 1.84 1.68 2.848 3.856 2.848 2.944 0 4.192-1.408 4.192-3.632v-7.856h-1.504l-.192 1.28zm-2.4 5.488c-1.44 0-2.384-1.104-2.384-2.704 0-1.584.944-2.704 2.384-2.704s2.384 1.12 2.384 2.736c0 1.568-.944 2.672-2.384 2.672zm9.656 1.52c2.496 0 4.176-1.68 4.176-4.192 0-2.496-1.68-4.192-4.176-4.192-2.496 0-4.176 1.696-4.176 4.192 0 2.512 1.68 4.192 4.176 4.192zm0-1.472c-1.456 0-2.4-1.136-2.4-2.72 0-1.584.944-2.72 2.4-2.72s2.416 1.136 2.416 2.72c0 1.584-.96 2.72-2.416 2.72zm10.252-.848c0 1.488.671 2.224 2.24 2.224h1.6v-1.52h-1.216c-.656 0-.88-.24-.88-.88v-4.272h2v-1.52h-2V20.52h-1.744v2.288h-1.424v1.52h1.424v4.448zm8.639 2.32c2.496 0 4.176-1.68 4.176-4.192 0-2.496-1.68-4.192-4.176-4.192-2.496 0-4.176 1.696-4.176 4.192 0 2.512 1.68 4.192 4.176 4.192zm0-1.472c-1.456 0-2.4-1.136-2.4-2.72 0-1.584.944-2.72 2.4-2.72s2.416 1.136 2.416 2.72c0 1.584-.96 2.72-2.416 2.72zm11.467-8.688c0 .592-.24 1.008-.816 1.008h-1.744v1.52h1.824c.304 0 .544-.048.704-.144V31h1.776V19.8h-1.744v1.136zm5.438 0c0 .592-.24 1.008-.816 1.008h-1.744v1.52h1.824c.304 0 .544-.048.704-.144V31h1.776V19.8h-1.744v1.136zm3.469 9.072c0 .64.464 1.088 1.104 1.088.64 0 1.12-.448 1.12-1.088 0-.64-.48-1.088-1.12-1.088-.64 0-1.104.448-1.104 1.088z" fill="#000"/></svg>