<svg width="164" height="45" viewBox="0 0 164 45" fill="none" xmlns="http://www.w3.org/2000/svg"><path d="M.24 1.2h2.88V9h.648V1.2h2.88V.6H.24v.6zm11.248 4.704c0 1.596-.792 2.604-2.052 2.604-1.128 0-1.824-.768-1.824-2.22V2.916H7v3.408c0 1.908.996 2.748 2.34 2.748 1.08 0 1.788-.576 2.136-1.356L11.56 9h.54V2.916h-.612v2.988zm4.536-2.988c-1.128 0-1.608.54-1.86 1.212l-.096-1.212h-.528V9h.612V5.916c0-1.236.324-2.412 1.752-2.412h.444v-.588h-.324zm4.04-.072c-1.117 0-1.837.576-2.185 1.368l-.096-1.296h-.528V9h.612V6c0-1.584.804-2.592 2.1-2.592 1.176 0 1.884.768 1.884 2.208V9h.612V5.592c0-1.92-1.02-2.748-2.4-2.748zM28.875 9l-.396.984c-.276.672-.384.852-1.008.852h-.768v.564h.936c.816 0 1.008-.312 1.392-1.272l2.916-7.212h-.66l-2.076 5.292L27.1 2.916h-.66L28.876 9zm6.325.072c1.716 0 2.928-1.272 2.928-3.12 0-1.836-1.212-3.108-2.928-3.108s-2.916 1.272-2.916 3.108c0 1.848 1.2 3.12 2.916 3.12zm0-.552c-1.356 0-2.292-1.056-2.292-2.568 0-1.5.936-2.568 2.292-2.568 1.356 0 2.292 1.068 2.292 2.568 0 1.512-.936 2.568-2.292 2.568zm8.56-2.616c0 1.596-.792 2.604-2.052 2.604-1.128 0-1.824-.768-1.824-2.22V2.916h-.612v3.408c0 1.908.996 2.748 2.34 2.748 1.08 0 1.788-.576 2.136-1.356L43.833 9h.54V2.916h-.612v2.988zm4.537-2.988c-1.128 0-1.608.54-1.86 1.212l-.096-1.212h-.528V9h.612V5.916c0-1.236.324-2.412 1.752-2.412h.444v-.588h-.324zm4.921 4.668c0 .972.396 1.416 1.428 1.416h.888v-.564h-.84c-.636 0-.864-.24-.864-.864V3.48h1.644v-.564h-1.644V1.212h-.612v1.704h-1.152v.564h1.152v4.104zm5.731-4.668c-1.128 0-1.608.54-1.86 1.212l-.096-1.212h-.528V9h.612V5.916c0-1.236.324-2.412 1.752-2.412h.444v-.588h-.324zm6.325 5.52c-.36 0-.54-.12-.54-.588V5.016c0-1.392-.852-2.172-2.376-2.172-1.392 0-2.316.672-2.472 1.776h.612c.156-.744.804-1.236 1.836-1.236 1.14 0 1.788.6 1.788 1.608v.528H62.06c-1.56 0-2.4.672-2.4 1.812 0 1.08.852 1.74 2.148 1.74 1.236 0 1.968-.564 2.34-1.32v.216c-.024.72.276 1.032.996 1.032h.36v-.564h-.228zM64.123 6.54c0 1.164-.828 2.004-2.268 2.004-.972 0-1.572-.492-1.572-1.248 0-.804.6-1.248 1.728-1.248h2.112v.492zm7.073-2.256c-.372-.864-1.188-1.44-2.328-1.44C67.2 2.844 66 4.116 66 5.952c0 1.92 1.2 3.12 2.868 3.12 1.14 0 1.932-.612 2.316-1.464L71.28 9h.528V.6h-.612v3.684zm-2.28 4.236c-1.356 0-2.292-1.056-2.292-2.568 0-1.5.936-2.568 2.292-2.568 1.356 0 2.292 1.068 2.292 2.58 0 1.5-.936 2.556-2.292 2.556zm4.643-6.888c.24 0 .432-.18.432-.432a.423.423 0 00-.432-.432c-.24 0-.432.18-.432.432s.192.432.432.432zM73.247 9h.612V2.916h-.612V9zm4.86-6.156c-1.117 0-1.837.576-2.185 1.368l-.096-1.296h-.528V9h.612V6c0-1.584.804-2.592 2.1-2.592 1.176 0 1.884.768 1.884 2.208V9h.612V5.592c0-1.92-1.02-2.748-2.4-2.748zm8.71 1.488c-.372-.9-1.188-1.488-2.316-1.488-1.668 0-2.868 1.26-2.868 3.108 0 1.92 1.2 3.12 2.868 3.12 1.14 0 1.944-.6 2.328-1.548v1.08c0 1.62-.768 2.316-2.232 2.316-1.14 0-1.932-.516-2.124-1.44h-.636c.192 1.296 1.236 1.992 2.712 1.992 1.968 0 2.892-.936 2.892-2.844V2.916h-.528l-.096 1.416zM84.549 8.52c-1.356 0-2.292-1.056-2.292-2.568s.936-2.568 2.292-2.568c1.356 0 2.292 1.056 2.292 2.58 0 1.5-.936 2.556-2.292 2.556zM96.53 5.904c0 1.596-.791 2.604-2.052 2.604-1.127 0-1.823-.768-1.823-2.22V2.916h-.612v3.408c0 1.908.995 2.748 2.34 2.748 1.08 0 1.788-.576 2.136-1.356L96.603 9h.54V2.916h-.612v2.988zm4.993-3.06c-1.14 0-1.932.612-2.316 1.464l-.096-1.392h-.528V11.4h.612V7.596c.348.888 1.176 1.476 2.328 1.476 1.668 0 2.868-1.272 2.868-3.12 0-1.908-1.2-3.108-2.868-3.108zm-.048 5.676c-1.356 0-2.292-1.056-2.292-2.58 0-1.488.936-2.556 2.292-2.556 1.356 0 2.292 1.068 2.292 2.568 0 1.512-.936 2.568-2.292 2.568zm8.838.48h.66l1.8-5.112L114.489 9h.66l2.16-6.084h-.624l-1.872 5.352-1.74-5.352h-.564l-1.836 5.352-1.776-5.352h-.648L110.313 9zm8.164-7.368c.24 0 .432-.18.432-.432a.423.423 0 00-.432-.432c-.24 0-.432.18-.432.432s.192.432.432.432zM118.165 9h.612V2.916h-.612V9zm2.507-1.416c0 .972.396 1.416 1.428 1.416h.888v-.564h-.84c-.636 0-.864-.24-.864-.864V3.48h1.644v-.564h-1.644V1.212h-.612v1.704h-1.152v.564h1.152v4.104zm6.055-4.74c-1.14 0-1.848.636-2.196 1.512V.6h-.612V9h.612V6c0-1.584.804-2.592 2.1-2.592 1.164 0 1.884.768 1.884 2.208V9h.612V5.592c0-1.92-1.02-2.748-2.4-2.748zM.444 24.128c.048 1.26 1.068 1.944 2.592 1.944 1.308 0 2.364-.66 2.364-1.74 0-1.284-1.128-1.536-2.436-1.716-.948-.132-1.788-.24-1.788-1.092 0-.696.684-1.152 1.716-1.152.972 0 1.668.468 1.776 1.26h.624c-.108-1.188-1.08-1.788-2.4-1.788-1.356-.012-2.328.684-2.328 1.728 0 1.224 1.128 1.452 2.376 1.62 1.02.144 1.848.276 1.848 1.176 0 .72-.756 1.176-1.752 1.176-1.164 0-1.92-.54-1.968-1.416H.444zm9.064-4.284c-1.14 0-1.932.612-2.316 1.464l-.096-1.392h-.528V28.4h.612v-3.804c.348.888 1.176 1.476 2.328 1.476 1.668 0 2.868-1.272 2.868-3.12 0-1.908-1.2-3.108-2.868-3.108zM9.46 25.52c-1.356 0-2.292-1.056-2.292-2.58 0-1.488.936-2.556 2.292-2.556 1.356 0 2.292 1.068 2.292 2.568 0 1.512-.936 2.568-2.292 2.568zm6.611-5.604c-1.128 0-1.608.54-1.86 1.212l-.096-1.212h-.528V26h.612v-3.084c0-1.236.324-2.412 1.752-2.412h.444v-.588h-.324zm3.485 6.156c1.332 0 2.352-.864 2.616-2.088h-.624c-.24.948-1.044 1.536-2.04 1.536-1.356 0-2.208-1.032-2.232-2.448v-.108h4.968c0-.084.012-.18.012-.252-.06-1.812-1.176-2.868-2.808-2.868-1.668 0-2.808 1.272-2.808 3.072 0 1.908 1.188 3.156 2.916 3.156zm-2.232-3.624c.096-1.236 1.02-2.064 2.136-2.064 1.188 0 2.04.732 2.136 2.064h-4.272zm11.494 2.988c-.36 0-.54-.12-.54-.588v-2.832c0-1.392-.852-2.172-2.376-2.172-1.392 0-2.316.672-2.472 1.776h.612c.156-.744.804-1.236 1.836-1.236 1.14 0 1.788.6 1.788 1.608v.528h-2.064c-1.56 0-2.4.672-2.4 1.812 0 1.08.852 1.74 2.148 1.74 1.236 0 1.968-.564 2.34-1.32v.216c-.024.72.276 1.032.996 1.032h.36v-.564h-.228zm-1.152-1.896c0 1.164-.828 2.004-2.268 2.004-.972 0-1.572-.492-1.572-1.248 0-.804.6-1.248 1.728-1.248h2.112v.492zm7.073-2.256c-.372-.864-1.188-1.44-2.328-1.44-1.668 0-2.868 1.272-2.868 3.108 0 1.92 1.2 3.12 2.868 3.12 1.14 0 1.932-.612 2.316-1.464L34.823 26h.528v-8.4h-.612v3.684zm-2.28 4.236c-1.356 0-2.292-1.056-2.292-2.568 0-1.5.936-2.568 2.292-2.568 1.356 0 2.292 1.068 2.292 2.58 0 1.5-.936 2.556-2.292 2.556zm4.055-1.392c.048 1.26 1.068 1.944 2.592 1.944 1.308 0 2.364-.66 2.364-1.74 0-1.284-1.128-1.536-2.436-1.716-.948-.132-1.788-.24-1.788-1.092 0-.696.684-1.152 1.716-1.152.972 0 1.668.468 1.776 1.26h.624c-.108-1.188-1.08-1.788-2.4-1.788-1.356-.012-2.328.684-2.328 1.728 0 1.224 1.128 1.452 2.376 1.62 1.02.144 1.848.276 1.848 1.176 0 .72-.756 1.176-1.752 1.176-1.164 0-1.92-.54-1.968-1.416h-.624zm8.662-3.648h1.152V26h.612v-5.52h1.824v-.564H46.94v-.912c0-.6.228-.84.84-.84h.996V17.6h-1.02c-1.02 0-1.428.444-1.428 1.416v.9h-1.152v.564zm6.813-.564c-1.128 0-1.608.54-1.86 1.212l-.096-1.212h-.528V26h.612v-3.084c0-1.236.324-2.412 1.752-2.412h.444v-.588h-.324zm3.485 6.156c1.716 0 2.928-1.272 2.928-3.12 0-1.836-1.212-3.108-2.928-3.108s-2.916 1.272-2.916 3.108c0 1.848 1.2 3.12 2.916 3.12zm0-.552c-1.356 0-2.292-1.056-2.292-2.568 0-1.5.936-2.568 2.292-2.568 1.356 0 2.292 1.068 2.292 2.568 0 1.512-.936 2.568-2.292 2.568zm10.936-5.676c-1.116 0-1.836.624-2.184 1.524-.288-1.008-1.044-1.524-2.004-1.524-1.044 0-1.668.612-1.98 1.368l-.096-1.296h-.528V26h.612v-3.096c0-1.488.72-2.496 1.884-2.496 1.056 0 1.716.744 1.716 2.148V26h.612v-3.312c.036-1.392.756-2.28 1.896-2.28 1.056 0 1.692.708 1.692 2.088V26h.624v-3.528c0-1.836-.972-2.628-2.244-2.628zm6.693 2.148c0 2.46 1.212 4.08 3.036 4.08 1.8 0 3.024-1.62 3.024-4.08v-.384c0-2.388-1.224-4.08-3.024-4.08-1.824 0-3.036 1.692-3.036 4.08v.384zm5.424-.024c0 2.136-.948 3.528-2.388 3.528-1.452 0-2.4-1.392-2.4-3.528v-.336c0-2.136.948-3.528 2.4-3.528 1.44 0 2.388 1.392 2.388 3.528v.336zm1.258 3.636c0 .276.192.456.456.456s.456-.18.456-.456-.192-.444-.456-.444-.456.168-.456.444zm1.533-3.612c0 2.46 1.212 4.08 3.036 4.08 1.8 0 3.024-1.62 3.024-4.08v-.384c0-2.388-1.224-4.08-3.024-4.08-1.824 0-3.036 1.692-3.036 4.08v.384zm5.424-.024c0 2.136-.948 3.528-2.388 3.528-1.452 0-2.4-1.392-2.4-3.528v-.336c0-2.136.948-3.528 2.4-3.528 1.44 0 2.388 1.392 2.388 3.528v.336zm8.102-2.124c-1.14 0-1.932.612-2.316 1.464l-.096-1.392h-.528V28.4h.612v-3.804c.348.888 1.176 1.476 2.328 1.476 1.668 0 2.868-1.272 2.868-3.12 0-1.908-1.2-3.108-2.868-3.108zm-.048 5.676c-1.356 0-2.292-1.056-2.292-2.58 0-1.488.936-2.556 2.292-2.556 1.356 0 2.292 1.068 2.292 2.568 0 1.512-.936 2.568-2.292 2.568zm4.44-6.888c.24 0 .431-.18.431-.432a.423.423 0 00-.432-.432c-.24 0-.432.18-.432.432s.192.432.432.432zM98.922 26h.612v-6.084h-.612V26zm4.991-6.156c-1.14 0-1.932.612-2.316 1.464l-.096-1.392h-.528V28.4h.612v-3.804c.348.888 1.176 1.476 2.328 1.476 1.668 0 2.868-1.272 2.868-3.12 0-1.908-1.2-3.108-2.868-3.108zm-.048 5.676c-1.356 0-2.292-1.056-2.292-2.58 0-1.488.936-2.556 2.292-2.556 1.356 0 2.292 1.068 2.292 2.568 0 1.512-.936 2.568-2.292 2.568zm3.84-1.392c.048 1.26 1.068 1.944 2.592 1.944 1.308 0 2.364-.66 2.364-1.74 0-1.284-1.128-1.536-2.436-1.716-.948-.132-1.788-.24-1.788-1.092 0-.696.684-1.152 1.716-1.152.972 0 1.668.468 1.776 1.26h.624c-.108-1.188-1.08-1.788-2.4-1.788-1.356-.012-2.328.684-2.328 1.728 0 1.224 1.128 1.452 2.376 1.62 1.02.144 1.848.276 1.848 1.176 0 .72-.756 1.176-1.752 1.176-1.164 0-1.92-.54-1.968-1.416h-.624zm14.71 1.308c-.36 0-.54-.12-.54-.588v-2.832c0-1.392-.852-2.172-2.376-2.172-1.392 0-2.316.672-2.472 1.776h.612c.156-.744.804-1.236 1.836-1.236 1.14 0 1.788.6 1.788 1.608v.528H119.2c-1.56 0-2.4.672-2.4 1.812 0 1.08.852 1.74 2.148 1.74 1.236 0 1.968-.564 2.34-1.32v.216c-.024.72.276 1.032.996 1.032h.36v-.564h-.228zm-1.152-1.896c0 1.164-.828 2.004-2.268 2.004-.972 0-1.572-.492-1.572-1.248 0-.804.6-1.248 1.728-1.248h2.112v.492zm5.006-3.696c-1.116 0-1.836.576-2.184 1.368l-.096-1.296h-.528V26h.612v-3c0-1.584.804-2.592 2.1-2.592 1.176 0 1.884.768 1.884 2.208V26h.612v-3.408c0-1.92-1.02-2.748-2.4-2.748zm8.629 1.44c-.372-.864-1.188-1.44-2.328-1.44-1.668 0-2.868 1.272-2.868 3.108 0 1.92 1.2 3.12 2.868 3.12 1.14 0 1.932-.612 2.316-1.464l.096 1.392h.528v-8.4h-.612v3.684zm-2.28 4.236c-1.356 0-2.292-1.056-2.292-2.568 0-1.5.936-2.568 2.292-2.568 1.356 0 2.292 1.068 2.292 2.58 0 1.5-.936 2.556-2.292 2.556zm6.87-5.04h1.152V26h.612v-5.52h1.824v-.564h-1.824v-.912c0-.6.228-.84.84-.84h.996V17.6h-1.02c-1.02 0-1.428.444-1.428 1.416v.9h-1.152v.564zm6.7 5.592c1.716 0 2.928-1.272 2.928-3.12 0-1.836-1.212-3.108-2.928-3.108s-2.916 1.272-2.916 3.108c0 1.848 1.2 3.12 2.916 3.12zm0-.552c-1.356 0-2.292-1.056-2.292-2.568 0-1.5.936-2.568 2.292-2.568 1.356 0 2.292 1.068 2.292 2.568 0 1.512-.936 2.568-2.292 2.568zm6.628-5.604c-1.128 0-1.608.54-1.86 1.212l-.096-1.212h-.528V26h.612v-3.084c0-1.236.324-2.412 1.752-2.412h.444v-.588h-.324zm9.818 5.52c-.36 0-.54-.12-.54-.588v-2.832c0-1.392-.852-2.172-2.376-2.172-1.393 0-2.316.672-2.472 1.776h.612c.156-.744.804-1.236 1.836-1.236 1.14 0 1.788.6 1.788 1.608v.528h-2.064c-1.56 0-2.4.672-2.4 1.812 0 1.08.852 1.74 2.148 1.74 1.236 0 1.968-.564 2.34-1.32v.216c-.024.72.276 1.032.996 1.032h.36v-.564h-.228zm-1.152-1.896c0 1.164-.828 2.004-2.268 2.004-.972 0-1.572-.492-1.572-1.248 0-.804.6-1.248 1.728-1.248h2.112v.492zM.72 43h.612v-8.4H.72V43zm2.363-7.368c.24 0 .432-.18.432-.432a.423.423 0 00-.432-.432c-.24 0-.432.18-.432.432s.192.432.432.432zM2.77 43h.612v-6.084H2.77V43zm8.843-6.156c-1.116 0-1.836.624-2.184 1.524-.288-1.008-1.044-1.524-2.004-1.524-1.044 0-1.668.612-1.98 1.368l-.096-1.296h-.528V43h.612v-3.096c0-1.488.72-2.496 1.884-2.496 1.056 0 1.716.744 1.716 2.148V43h.612v-3.312c.036-1.392.756-2.28 1.896-2.28 1.056 0 1.692.708 1.692 2.088V43h.624v-3.528c0-1.836-.972-2.628-2.244-2.628zm3.914-1.212c.24 0 .432-.18.432-.432a.423.423 0 00-.432-.432c-.24 0-.432.18-.432.432s.192.432.432.432zM15.216 43h.612v-6.084h-.612V43zm2.507-1.416c0 .972.396 1.416 1.428 1.416h.888v-.564h-.84c-.636 0-.864-.24-.864-.864V37.48h1.644v-.564h-1.644v-1.704h-.612v1.704H16.57v.564h1.152v4.104zm5.748 1.488c1.331 0 2.352-.864 2.616-2.088h-.625c-.24.948-1.043 1.536-2.04 1.536-1.355 0-2.207-1.032-2.232-2.448v-.108h4.968c0-.084.012-.18.012-.252-.06-1.812-1.176-2.868-2.808-2.868-1.667 0-2.807 1.272-2.807 3.072 0 1.908 1.188 3.156 2.916 3.156zm-2.233-3.624c.096-1.236 1.02-2.064 2.137-2.064 1.188 0 2.04.732 2.136 2.064h-4.273zm11.11-1.164c-.372-.864-1.188-1.44-2.328-1.44-1.668 0-2.868 1.272-2.868 3.108 0 1.92 1.2 3.12 2.868 3.12 1.14 0 1.932-.612 2.316-1.464L32.432 43h.528v-8.4h-.612v3.684zm-2.28 4.236c-1.356 0-2.292-1.056-2.292-2.568 0-1.5.936-2.568 2.292-2.568 1.356 0 2.292 1.068 2.292 2.58 0 1.5-.936 2.556-2.292 2.556zm8.022-.936c0 .972.396 1.416 1.428 1.416h.888v-.564h-.84c-.636 0-.864-.24-.864-.864V37.48h1.644v-.564h-1.644v-1.704h-.612v1.704h-1.152v.564h1.152v4.104zm3.56-5.952c.24 0 .431-.18.431-.432a.423.423 0 00-.432-.432c-.24 0-.432.18-.432.432s.192.432.432.432zM41.336 43h.612v-6.084h-.612V43zm8.843-6.156c-1.116 0-1.836.624-2.184 1.524-.288-1.008-1.044-1.524-2.004-1.524-1.044 0-1.668.612-1.98 1.368l-.096-1.296h-.528V43H44v-3.096c0-1.488.72-2.496 1.884-2.496 1.056 0 1.716.744 1.716 2.148V43h.612v-3.312c.036-1.392.756-2.28 1.896-2.28 1.056 0 1.692.708 1.692 2.088V43h.624v-3.528c0-1.836-.972-2.628-2.244-2.628zm6.197 6.228c1.332 0 2.352-.864 2.616-2.088h-.624c-.24.948-1.044 1.536-2.04 1.536-1.356 0-2.208-1.032-2.232-2.448v-.108h4.968c0-.084.012-.18.012-.252-.06-1.812-1.176-2.868-2.808-2.868-1.668 0-2.808 1.272-2.808 3.072 0 1.908 1.188 3.156 2.916 3.156zm-2.232-3.624c.096-1.236 1.02-2.064 2.136-2.064 1.188 0 2.04.732 2.136 2.064h-4.272zm5.96 2.712c-.324 0-.528.204-.528.468 0 .288.192.432.42.432.12 0 .24-.048.3-.144a.433.433 0 01.108.312c0 .456-.288.924-.9.948v.36c.828-.036 1.344-.588 1.344-1.38 0-.552-.312-.996-.744-.996zm4.897-4.68h3.912l-4.08 5.04V43h5.064v-.564h-4.26l4.092-5.052v-.468h-4.728v.564zm8.203 5.592c1.332 0 2.352-.864 2.616-2.088h-.624c-.24.948-1.044 1.536-2.04 1.536-1.356 0-2.208-1.032-2.232-2.448v-.108h4.968c0-.084.012-.18.012-.252-.06-1.812-1.176-2.868-2.808-2.868-1.668 0-2.808 1.272-2.808 3.072 0 1.908 1.188 3.156 2.916 3.156zm-2.232-3.624c.096-1.236 1.02-2.064 2.136-2.064 1.188 0 2.04.732 2.136 2.064h-4.272zm8.626-2.532c-1.129 0-1.609.54-1.86 1.212l-.097-1.212h-.527V43h.612v-3.084c0-1.236.323-2.412 1.751-2.412h.445v-.588h-.325zm3.485 6.156c1.716 0 2.928-1.272 2.928-3.12 0-1.836-1.212-3.108-2.928-3.108s-2.916 1.272-2.916 3.108c0 1.848 1.2 3.12 2.916 3.12zm0-.552c-1.356 0-2.292-1.056-2.292-2.568 0-1.5.936-2.568 2.292-2.568 1.356 0 2.292 1.068 2.292 2.568 0 1.512-.936 2.568-2.292 2.568zm10.03.552c1.38 0 2.352-.792 2.592-2.028h-.648c-.204.9-.936 1.476-1.944 1.476-1.332 0-2.256-1.044-2.256-2.556s.912-2.58 2.256-2.58c1.02 0 1.74.576 1.956 1.488h.636c-.252-1.26-1.2-2.028-2.58-2.028-1.716 0-2.892 1.272-2.892 3.12 0 1.872 1.164 3.108 2.88 3.108zm6.47 0c1.716 0 2.928-1.272 2.928-3.12 0-1.836-1.212-3.108-2.928-3.108s-2.916 1.272-2.916 3.108c0 1.848 1.2 3.12 2.916 3.12zm0-.552c-1.356 0-2.292-1.056-2.292-2.568 0-1.5.936-2.568 2.292-2.568 1.356 0 2.292 1.068 2.292 2.568 0 1.512-.936 2.568-2.292 2.568zm10.936-5.676c-1.116 0-1.836.624-2.184 1.524-.288-1.008-1.044-1.524-2.004-1.524-1.044 0-1.668.612-1.98 1.368l-.096-1.296h-.528V43h.612v-3.096c0-1.488.72-2.496 1.884-2.496 1.056 0 1.716.744 1.716 2.148V43h.612v-3.312c.036-1.392.756-2.28 1.896-2.28 1.056 0 1.692.708 1.692 2.088V43h.624v-3.528c0-1.836-.972-2.628-2.244-2.628zm10.394 0c-1.116 0-1.836.624-2.184 1.524-.288-1.008-1.044-1.524-2.004-1.524-1.044 0-1.668.612-1.98 1.368l-.096-1.296h-.528V43h.612v-3.096c0-1.488.72-2.496 1.884-2.496 1.056 0 1.716.744 1.716 2.148V43h.612v-3.312c.036-1.392.756-2.28 1.896-2.28 1.056 0 1.692.708 1.692 2.088V43h.624v-3.528c0-1.836-.972-2.628-2.244-2.628zm3.915-1.212c.24 0 .432-.18.432-.432a.423.423 0 00-.432-.432c-.24 0-.432.18-.432.432s.192.432.432.432zM124.517 43h.612v-6.084h-.612V43zm1.775-1.872c.048 1.26 1.068 1.944 2.592 1.944 1.308 0 2.364-.66 2.364-1.74 0-1.284-1.128-1.536-2.436-1.716-.948-.132-1.788-.24-1.788-1.092 0-.696.684-1.152 1.716-1.152.972 0 1.668.468 1.776 1.26h.624c-.108-1.188-1.08-1.788-2.4-1.788-1.356-.012-2.328.684-2.328 1.728 0 1.224 1.128 1.452 2.376 1.62 1.02.144 1.848.276 1.848 1.176 0 .72-.756 1.176-1.752 1.176-1.164 0-1.92-.54-1.968-1.416h-.624zm5.73 0c.048 1.26 1.068 1.944 2.592 1.944 1.308 0 2.364-.66 2.364-1.74 0-1.284-1.128-1.536-2.436-1.716-.948-.132-1.788-.24-1.788-1.092 0-.696.684-1.152 1.716-1.152.972 0 1.668.468 1.776 1.26h.624c-.108-1.188-1.08-1.788-2.4-1.788-1.356-.012-2.328.684-2.328 1.728 0 1.224 1.128 1.452 2.376 1.62 1.02.144 1.848.276 1.848 1.176 0 .72-.756 1.176-1.752 1.176-1.164 0-1.92-.54-1.968-1.416h-.624zm6.436-5.496c.24 0 .432-.18.432-.432a.423.423 0 00-.432-.432c-.24 0-.432.18-.432.432s.192.432.432.432zM138.146 43h.612v-6.084h-.612V43zm4.739.072c1.716 0 2.928-1.272 2.928-3.12 0-1.836-1.212-3.108-2.928-3.108s-2.916 1.272-2.916 3.108c0 1.848 1.2 3.12 2.916 3.12zm0-.552c-1.356 0-2.292-1.056-2.292-2.568 0-1.5.936-2.568 2.292-2.568 1.356 0 2.292 1.068 2.292 2.568 0 1.512-.936 2.568-2.292 2.568zm6.952-5.676c-1.116 0-1.836.576-2.184 1.368l-.096-1.296h-.528V43h.612v-3c0-1.584.804-2.592 2.1-2.592 1.176 0 1.884.768 1.884 2.208V43h.612v-3.408c0-1.92-1.02-2.748-2.4-2.748zm3.478 4.284c.048 1.26 1.068 1.944 2.592 1.944 1.308 0 2.364-.66 2.364-1.74 0-1.284-1.128-1.536-2.436-1.716-.948-.132-1.788-.24-1.788-1.092 0-.696.684-1.152 1.716-1.152.972 0 1.668.468 1.776 1.26h.624c-.108-1.188-1.08-1.788-2.4-1.788-1.356-.012-2.328.684-2.328 1.728 0 1.224 1.128 1.452 2.376 1.62 1.02.144 1.848.276 1.848 1.176 0 .72-.756 1.176-1.752 1.176-1.164 0-1.92-.54-1.968-1.416h-.624zm5.946 1.476c0 .276.192.456.456.456s.456-.18.456-.456-.192-.444-.456-.444-.456.168-.456.444zm4.546-7.02l-1.5.648.024-1.644h-.444l.024 1.644-1.488-.648-.18.42 1.536.588-1.056 1.26.324.3 1.056-1.308 1.056 1.308.336-.3-1.044-1.248 1.524-.588-.168-.432z" fill="#000"/></svg>