<svg width="143" height="32" viewBox="0 0 143 32" fill="none" xmlns="http://www.w3.org/2000/svg"><path fill="#fff" d="M0 0h123v32H0z"/><path d="M10.909 9l.666-1.701h2.745L14.986 9h.837l-2.394-6.3h-.927L10.099 9h.81zm2.034-5.445l1.143 3.033h-2.277l1.134-3.033zM16.428 9h.738V2.7h-.738V9zm1.749 0h.738V2.7h-.738V9zm4.446-1.197c0 .81.315 1.197 1.197 1.197h.801v-.675h-.729c-.396 0-.53-.144-.53-.531V5.085h1.187V4.41h-1.188V3.123h-.738V4.41h-.828v.675h.828v2.718zm4.762-3.393c-.82 0-1.17.342-1.386.693l-.1-.693h-.638V9h.738V6.66c0-.729.26-1.53 1.224-1.53h.369v-.72h-.207zm4.747 3.915c-.207 0-.297-.063-.297-.306V6.012c0-1.071-.675-1.656-1.845-1.656-1.107 0-1.836.531-1.944 1.431h.738c.09-.468.522-.774 1.17-.774.72 0 1.143.36 1.143.954v.315h-1.35c-1.206 0-1.845.513-1.845 1.431 0 .837.684 1.341 1.692 1.341.792 0 1.251-.351 1.54-.765.008.45.215.711.827.711h.405v-.675h-.234zm-1.035-1.197c0 .765-.53 1.296-1.449 1.296-.612 0-.999-.306-.999-.756 0-.522.37-.765 1.026-.765h1.422v.225zM36.5 5.112c-.279-.441-.801-.756-1.575-.756-1.269 0-2.205.945-2.205 2.349 0 1.494.936 2.349 2.205 2.349.774 0 1.269-.369 1.575-.792l.099.738h.639V2.7h-.738v2.412zm-1.503 3.285c-.909 0-1.521-.693-1.521-1.692s.612-1.692 1.521-1.692c.9 0 1.512.702 1.512 1.71 0 .981-.612 1.674-1.512 1.674zm3.624-4.761c.27 0 .477-.198.477-.477a.464.464 0 00-.477-.477.464.464 0 00-.477.477c0 .279.207.477.477.477zM38.242 9h.738V4.41h-.738V9zm4-4.644c-.775 0-1.243.324-1.513.675l-.099-.621h-.639V9h.738V6.705c0-1.035.522-1.674 1.386-1.674.801 0 1.242.504 1.242 1.458V9h.738V6.444c0-1.521-.819-2.088-1.854-2.088zm6.412.846c-.288-.513-.8-.846-1.575-.846-1.269 0-2.205.945-2.205 2.349 0 1.494.936 2.349 2.205 2.349.774 0 1.27-.324 1.575-.846v.54c0 .999-.522 1.449-1.485 1.449-.765 0-1.278-.324-1.404-.9h-.756c.117 1.008.936 1.557 2.106 1.557 1.575 0 2.277-.756 2.277-2.079V4.41h-.639l-.099.792zm-1.503 3.195c-.909 0-1.52-.693-1.52-1.692s.611-1.692 1.52-1.692c.9 0 1.512.702 1.512 1.71 0 .981-.612 1.674-1.512 1.674zm5.98-4.761c.27 0 .477-.198.477-.477a.464.464 0 00-.477-.477.464.464 0 00-.477.477c0 .279.207.477.477.477zM52.753 9h.738V4.41h-.738V9zm3.999-4.644c-.774 0-1.242.324-1.512.675l-.099-.621h-.639V9h.738V6.705c0-1.035.522-1.674 1.386-1.674.801 0 1.242.504 1.242 1.458V9h.738V6.444c0-1.521-.819-2.088-1.854-2.088zM60.64 9h.891l1.719-4.59h-.774l-1.377 3.753-1.386-3.753h-.792L60.64 9zm5.074.054c1.34 0 2.277-.954 2.277-2.349 0-1.395-.936-2.349-2.277-2.349-1.341 0-2.277.954-2.277 2.349 0 1.395.936 2.349 2.277 2.349zm0-.657c-.91 0-1.521-.711-1.521-1.692s.612-1.692 1.52-1.692c.91 0 1.522.711 1.522 1.692s-.612 1.692-1.521 1.692zM68.837 9h.738V2.7h-.738V9zm3.009 0h.891l1.719-4.59h-.774l-1.377 3.753-1.386-3.753h-.792L71.846 9zm5.074.054c1.062 0 1.818-.675 1.998-1.593h-.747c-.153.594-.657.936-1.305.936-.873 0-1.422-.612-1.45-1.485v-.063h3.565c.009-.108.018-.216.018-.315-.036-1.359-.882-2.178-2.178-2.178-1.296 0-2.178.954-2.178 2.349 0 1.404.9 2.349 2.277 2.349zm-1.458-2.817a1.359 1.359 0 011.368-1.233c.765 0 1.305.441 1.377 1.233h-2.745zm4.172 1.251c.018 1.008.837 1.566 2.025 1.566 1.017 0 1.836-.531 1.836-1.386 0-1.017-.837-1.215-1.88-1.341-.667-.081-1.153-.144-1.153-.648 0-.423.432-.693 1.071-.693.63 0 1.062.351 1.116.819h.756c-.072-.954-.828-1.44-1.872-1.449-1.035-.009-1.8.54-1.8 1.377 0 .954.82 1.161 1.845 1.287.684.081 1.188.126 1.188.702 0 .423-.459.702-1.107.702-.765 0-1.242-.396-1.269-.936h-.756zm9.16-3.078c-.819 0-1.17.342-1.386.693l-.099-.693h-.639V9h.738V6.66c0-.729.261-1.53 1.224-1.53h.369v-.72h-.207zm1.225-.774c.27 0 .477-.198.477-.477a.464.464 0 00-.477-.477.464.464 0 00-.477.477c0 .279.207.477.477.477zM89.64 9h.738V4.41h-.738V9zm1.56-1.512c.018 1.008.837 1.566 2.025 1.566 1.017 0 1.836-.531 1.836-1.386 0-1.017-.837-1.215-1.881-1.341-.666-.081-1.152-.144-1.152-.648 0-.423.432-.693 1.07-.693.63 0 1.063.351 1.117.819h.756c-.072-.954-.828-1.44-1.872-1.449-1.035-.009-1.8.54-1.8 1.377 0 .954.819 1.161 1.845 1.287.684.081 1.188.126 1.188.702 0 .423-.46.702-1.107.702-.765 0-1.242-.396-1.27-.936h-.755zM95.88 9h.738V7.794l.927-.954L99.067 9h.891l-1.917-2.691 1.791-1.899h-.909l-2.304 2.439V2.7h-.738V9zm4.267-1.512c.018 1.008.837 1.566 2.025 1.566 1.017 0 1.836-.531 1.836-1.386 0-1.017-.837-1.215-1.881-1.341-.666-.081-1.152-.144-1.152-.648 0-.423.432-.693 1.071-.693.63 0 1.062.351 1.116.819h.756c-.072-.954-.828-1.44-1.872-1.449-1.035-.009-1.8.54-1.8 1.377 0 .954.819 1.161 1.845 1.287.684.081 1.188.126 1.188.702 0 .423-.459.702-1.107.702-.765 0-1.242-.396-1.269-.936h-.756zm4.52 1.062c0 .306.216.504.513.504.297 0 .513-.198.513-.504s-.216-.504-.513-.504c-.297 0-.513.198-.513.504zM14.266 20v-.72h-2.871V13.7h-.783V20h3.654zm2.554.054c1.341 0 2.277-.954 2.277-2.349 0-1.395-.936-2.349-2.277-2.349-1.34 0-2.277.954-2.277 2.349 0 1.395.936 2.349 2.277 2.349zm0-.657c-.909 0-1.52-.711-1.52-1.692s.611-1.692 1.52-1.692c.91 0 1.521.711 1.521 1.692s-.612 1.692-1.52 1.692zm2.917-.909c.018 1.008.837 1.566 2.025 1.566 1.017 0 1.836-.531 1.836-1.386 0-1.017-.837-1.215-1.881-1.341-.666-.081-1.152-.144-1.152-.648 0-.423.432-.693 1.07-.693.63 0 1.063.351 1.117.819h.756c-.072-.954-.828-1.44-1.872-1.449-1.035-.009-1.8.54-1.8 1.377 0 .954.819 1.161 1.845 1.287.684.081 1.188.126 1.188.702 0 .423-.46.702-1.107.702-.765 0-1.242-.396-1.27-.936h-.755zm4.403 0c.018 1.008.837 1.566 2.025 1.566 1.017 0 1.836-.531 1.836-1.386 0-1.017-.837-1.215-1.88-1.341-.667-.081-1.153-.144-1.153-.648 0-.423.432-.693 1.071-.693.63 0 1.062.351 1.116.819h.756c-.072-.954-.828-1.44-1.872-1.449-1.035-.009-1.8.54-1.8 1.377 0 .954.82 1.161 1.845 1.287.684.081 1.188.126 1.188.702 0 .423-.459.702-1.107.702-.765 0-1.242-.396-1.269-.936h-.756zm6.795 1.566c1.062 0 1.818-.675 1.998-1.593h-.747c-.153.594-.657.936-1.305.936-.873 0-1.422-.612-1.449-1.485v-.063h3.564c.01-.108.018-.216.018-.315-.036-1.359-.882-2.178-2.178-2.178-1.296 0-2.178.954-2.178 2.349 0 1.404.9 2.349 2.277 2.349zm-1.458-2.817a1.359 1.359 0 011.368-1.233c.765 0 1.305.441 1.377 1.233h-2.745zm4.173 1.251c.018 1.008.837 1.566 2.025 1.566 1.017 0 1.836-.531 1.836-1.386 0-1.017-.837-1.215-1.881-1.341-.666-.081-1.152-.144-1.152-.648 0-.423.432-.693 1.071-.693.63 0 1.062.351 1.116.819h.756c-.072-.954-.828-1.44-1.872-1.449-1.035-.009-1.8.54-1.8 1.377 0 .954.819 1.161 1.845 1.287.684.081 1.188.126 1.188.702 0 .423-.459.702-1.107.702-.765 0-1.242-.396-1.269-.936h-.756zm9.097 1.566c1.116 0 1.863-.63 2.043-1.62h-.783c-.144.585-.594.963-1.251.963-.882 0-1.476-.684-1.476-1.683s.594-1.701 1.476-1.701c.675 0 1.125.369 1.26.981h.774c-.19-1.008-.9-1.638-2.025-1.638-1.332 0-2.241.954-2.241 2.358 0 1.431.882 2.34 2.223 2.34zm6.91-.729c-.206 0-.296-.063-.296-.306v-2.007c0-1.071-.675-1.656-1.845-1.656-1.107 0-1.836.531-1.944 1.431h.738c.09-.468.522-.774 1.17-.774.72 0 1.143.36 1.143.954v.315h-1.35c-1.206 0-1.845.513-1.845 1.431 0 .837.684 1.341 1.692 1.341.792 0 1.25-.351 1.539-.765.009.45.216.711.828.711h.405v-.675h-.234zm-1.034-1.197c0 .765-.531 1.296-1.45 1.296-.611 0-.998-.306-.998-.756 0-.522.369-.765 1.026-.765h1.422v.225zm4.086-2.772c-.774 0-1.242.324-1.512.675l-.099-.621h-.639V20h.738v-2.295c0-1.035.522-1.674 1.386-1.674.801 0 1.242.504 1.242 1.458V20h.738v-2.556c0-1.521-.819-2.088-1.854-2.088zm7.265 4.698c1.063 0 1.819-.675 1.998-1.593h-.747c-.153.594-.657.936-1.305.936-.873 0-1.422-.612-1.449-1.485v-.063h3.565c.008-.108.017-.216.017-.315-.035-1.359-.881-2.178-2.177-2.178s-2.178.954-2.178 2.349c0 1.404.9 2.349 2.276 2.349zm-1.457-2.817a1.359 1.359 0 011.367-1.233c.766 0 1.306.441 1.377 1.233h-2.745zm3.7 2.763h.836l1.341-1.845L65.735 20h.882l-1.755-2.358L66.5 15.41h-.837l-1.233 1.701-1.215-1.701h-.882l1.63 2.232L62.215 20zm6.791.054c1.116 0 1.863-.63 2.043-1.62h-.783c-.144.585-.594.963-1.25.963-.883 0-1.477-.684-1.477-1.683s.594-1.701 1.476-1.701c.675 0 1.125.369 1.26.981h.774c-.189-1.008-.9-1.638-2.025-1.638-1.332 0-2.24.954-2.24 2.358 0 1.431.881 2.34 2.222 2.34zm4.967 0c1.062 0 1.818-.675 1.998-1.593h-.747c-.153.594-.657.936-1.305.936-.873 0-1.422-.612-1.449-1.485v-.063h3.564c.01-.108.018-.216.018-.315-.036-1.359-.882-2.178-2.178-2.178-1.296 0-2.178.954-2.178 2.349 0 1.404.9 2.349 2.277 2.349zm-1.458-2.817a1.359 1.359 0 011.368-1.233c.765 0 1.305.441 1.377 1.233h-2.745zm6.495 2.817c1.062 0 1.818-.675 1.998-1.593h-.747c-.153.594-.657.936-1.305.936-.873 0-1.422-.612-1.45-1.485v-.063h3.565c.009-.108.018-.216.018-.315-.036-1.359-.882-2.178-2.178-2.178-1.296 0-2.178.954-2.178 2.349 0 1.404.9 2.349 2.277 2.349zm-1.458-2.817a1.359 1.359 0 011.368-1.233c.765 0 1.305.441 1.377 1.233h-2.745zm7.997-1.125c-.28-.441-.801-.756-1.575-.756-1.27 0-2.205.945-2.205 2.349 0 1.494.936 2.349 2.205 2.349.774 0 1.269-.369 1.575-.792l.099.738h.639v-6.3h-.738v2.412zm-1.503 3.285c-.91 0-1.521-.693-1.521-1.692s.612-1.692 1.52-1.692c.9 0 1.513.702 1.513 1.71 0 .981-.612 1.674-1.512 1.674zm9.22-3.285c-.28-.441-.802-.756-1.576-.756-1.268 0-2.204.945-2.204 2.349 0 1.494.936 2.349 2.204 2.349.775 0 1.27-.369 1.576-.792l.099.738h.638v-6.3h-.737v2.412zm-1.504 3.285c-.908 0-1.52-.693-1.52-1.692s.612-1.692 1.52-1.692c.9 0 1.513.702 1.513 1.71 0 .981-.612 1.674-1.513 1.674zm5.362.657c1.062 0 1.818-.675 1.998-1.593h-.747c-.153.594-.657.936-1.305.936-.873 0-1.422-.612-1.45-1.485v-.063h3.565c.009-.108.018-.216.018-.315-.036-1.359-.882-2.178-2.178-2.178-1.296 0-2.178.954-2.178 2.349 0 1.404.9 2.349 2.277 2.349zm-1.458-2.817a1.359 1.359 0 011.368-1.233c.765 0 1.305.441 1.377 1.233h-2.745zm6.692-1.881c-.774 0-1.269.369-1.575.792l-.099-.738h-.639v6.39h.738v-2.502c.279.441.801.756 1.575.756 1.269 0 2.205-.945 2.205-2.349 0-1.494-.936-2.349-2.205-2.349zm-.072 4.041c-.9 0-1.512-.702-1.512-1.71 0-.981.612-1.674 1.512-1.674.909 0 1.521.693 1.521 1.692s-.612 1.692-1.521 1.692zm5.235.657c1.341 0 2.277-.954 2.277-2.349 0-1.395-.936-2.349-2.277-2.349-1.341 0-2.277.954-2.277 2.349 0 1.395.936 2.349 2.277 2.349zm0-.657c-.909 0-1.521-.711-1.521-1.692s.612-1.692 1.521-1.692c.909 0 1.521.711 1.521 1.692s-.612 1.692-1.521 1.692zm2.917-.909c.018 1.008.837 1.566 2.025 1.566 1.017 0 1.836-.531 1.836-1.386 0-1.017-.837-1.215-1.881-1.341-.666-.081-1.152-.144-1.152-.648 0-.423.432-.693 1.071-.693.63 0 1.062.351 1.116.819h.756c-.072-.954-.828-1.44-1.872-1.449-1.035-.009-1.8.54-1.8 1.377 0 .954.819 1.161 1.845 1.287.684.081 1.188.126 1.188.702 0 .423-.459.702-1.107.702-.765 0-1.242-.396-1.269-.936h-.756zm5.058-3.852c.27 0 .477-.198.477-.477a.464.464 0 00-.477-.477.464.464 0 00-.477.477c0 .279.207.477.477.477zM115.12 20h.738v-4.59h-.738V20zm2.091-1.197c0 .81.315 1.197 1.197 1.197h.801v-.675h-.729c-.396 0-.531-.144-.531-.531v-2.709h1.188v-.675h-1.188v-1.287h-.738v1.287h-.828v.675h.828v2.718zm2.449-.315c.018 1.008.837 1.566 2.025 1.566 1.017 0 1.836-.531 1.836-1.386 0-1.017-.837-1.215-1.881-1.341-.666-.081-1.152-.144-1.152-.648 0-.423.432-.693 1.071-.693.63 0 1.062.351 1.116.819h.756c-.072-.954-.828-1.44-1.872-1.449-1.035-.009-1.8.54-1.8 1.377 0 .954.819 1.161 1.845 1.287.684.081 1.188.126 1.188.702 0 .423-.459.702-1.107.702-.765 0-1.242-.396-1.269-.936h-.756zm4.52 1.062c0 .306.216.504.513.504.297 0 .513-.198.513-.504s-.216-.504-.513-.504c-.297 0-.513.198-.513.504z" fill="#000"/></svg>