<svg width="387" height="20" viewBox="0 0 387 20" fill="none" xmlns="http://www.w3.org/2000/svg"><path d="M.344 15.5h2.331V4.685L7.085 15.5h2.037l4.41-10.815V15.5h2.331V.8h-3.066l-4.62 11.571L3.473.8H.344v14.7zm27.808-1.974c-.462 0-.693-.147-.693-.693V8.528c0-2.541-1.638-3.906-4.494-3.906-2.71 0-4.515 1.302-4.746 3.402h2.226c.168-.945 1.07-1.575 2.415-1.575 1.49 0 2.352.735 2.352 1.932v.651h-2.71c-3.002 0-4.598 1.239-4.598 3.444 0 1.995 1.638 3.15 3.99 3.15 1.743 0 2.835-.756 3.549-1.848 0 1.071.504 1.722 1.974 1.722h1.197v-1.974h-.462zm-2.94-2.436c-.021 1.659-1.113 2.772-3.003 2.772-1.24 0-1.995-.63-1.995-1.533 0-1.092.777-1.617 2.184-1.617h2.814v.378zm4.175.861c.063 2.331 2.037 3.675 4.914 3.675 2.604 0 4.557-1.302 4.557-3.36 0-2.394-1.995-2.898-4.452-3.192-1.554-.168-2.583-.294-2.583-1.302 0-.861.882-1.407 2.226-1.407 1.344 0 2.268.693 2.394 1.68h2.226c-.147-2.205-2.016-3.423-4.662-3.423-2.583-.021-4.41 1.302-4.41 3.339 0 2.226 1.932 2.751 4.39 3.045 1.658.21 2.645.294 2.645 1.449 0 .861-.924 1.407-2.33 1.407-1.639 0-2.605-.798-2.689-1.911h-2.226zm12.006.63c0 1.953.882 2.919 2.94 2.919h2.1v-1.995h-1.596c-.861 0-1.155-.315-1.155-1.155V6.743h2.625V4.748h-2.625V1.745h-2.29v3.003h-1.868v1.995h1.869v5.838zm11.36 3.045c2.667 0 4.473-1.617 4.851-3.738h-2.268c-.315 1.197-1.323 1.89-2.709 1.89-1.785 0-2.94-1.197-3.003-3.024v-.147h8.106a6.16 6.16 0 00.063-.861c-.063-3.15-2.142-5.124-5.25-5.124-3.17 0-5.292 2.205-5.292 5.523 0 3.297 2.121 5.481 5.502 5.481zm-3.045-6.678c.168-1.533 1.407-2.499 2.856-2.499 1.575 0 2.688.903 2.877 2.499h-5.733zm15.358-4.2c-1.764 0-2.625.714-3.171 1.617l-.252-1.617h-2.016V15.5h2.268v-5.397c0-1.659.65-3.234 2.667-3.234h1.008V4.748h-.504zm8.052 7.833c0 1.953.883 2.919 2.94 2.919h2.1v-1.995h-1.596c-.86 0-1.154-.315-1.154-1.155V6.743h2.624V4.748h-2.624V1.745h-2.29v3.003H71.25v1.995h1.868v5.838zM85.25 4.622c-1.68 0-2.709.756-3.38 1.68V.8H79.6v14.7h2.268v-5.439c0-2.163 1.092-3.486 2.877-3.486 1.68 0 2.583 1.092 2.583 3.129V15.5h2.268V9.515c0-3.591-1.953-4.893-4.347-4.893zm11.43 11.004c2.668 0 4.474-1.617 4.852-3.738h-2.268c-.315 1.197-1.323 1.89-2.71 1.89-1.784 0-2.94-1.197-3.002-3.024v-.147h8.106a6.16 6.16 0 00.063-.861c-.063-3.15-2.142-5.124-5.25-5.124-3.171 0-5.292 2.205-5.292 5.523 0 3.297 2.12 5.481 5.502 5.481zm-3.044-6.678c.168-1.533 1.407-2.499 2.856-2.499 1.575 0 2.688.903 2.877 2.499h-5.733zm27.66-4.326c-1.764 0-2.982.777-3.675 1.953-.651-1.386-1.911-1.953-3.318-1.953-1.617.021-2.541.735-3.15 1.533l-.252-1.407h-1.974V15.5h2.268V9.746c0-1.911.966-3.171 2.52-3.171 1.491 0 2.268.987 2.268 2.877V15.5h2.289V9.683c0-1.932.987-3.108 2.541-3.108 1.47 0 2.247.987 2.247 2.877V15.5h2.268V9.305c0-3.402-1.806-4.683-4.032-4.683zm15.916 8.904c-.462 0-.693-.147-.693-.693V8.528c0-2.541-1.638-3.906-4.494-3.906-2.709 0-4.515 1.302-4.746 3.402h2.226c.168-.945 1.071-1.575 2.415-1.575 1.491 0 2.352.735 2.352 1.932v.651h-2.709c-3.003 0-4.599 1.239-4.599 3.444 0 1.995 1.638 3.15 3.99 3.15 1.743 0 2.835-.756 3.549-1.848 0 1.071.504 1.722 1.974 1.722h1.197v-1.974h-.462zm-2.94-2.436c-.021 1.659-1.113 2.772-3.003 2.772-1.239 0-1.995-.63-1.995-1.533 0-1.092.777-1.617 2.184-1.617h2.814v.378zm10.077-6.342c-1.764 0-2.625.714-3.171 1.617l-.252-1.617h-2.016V15.5h2.268v-5.397c0-1.659.651-3.234 2.667-3.234h1.008V4.748h-.504zm1.903 10.752h2.268v-2.73l1.932-2.016 3.171 4.746h2.688l-4.305-6.405 4.053-4.347h-2.667l-4.872 5.208V.8h-2.268v14.7zm15.582.126c2.667 0 4.473-1.617 4.851-3.738h-2.268c-.315 1.197-1.323 1.89-2.709 1.89-1.785 0-2.94-1.197-3.003-3.024v-.147h8.106a6.16 6.16 0 00.063-.861c-.063-3.15-2.142-5.124-5.25-5.124-3.171 0-5.292 2.205-5.292 5.523 0 3.297 2.121 5.481 5.502 5.481zm-3.045-6.678c.168-1.533 1.407-2.499 2.856-2.499 1.575 0 2.688.903 2.877 2.499h-5.733zm10.614 3.633c0 1.953.882 2.919 2.94 2.919h2.1v-1.995h-1.596c-.861 0-1.155-.315-1.155-1.155V6.743h2.625V4.748h-2.625V1.745h-2.289v3.003h-1.869v1.995h1.869v5.838zm10.764-5.838h1.869V15.5h2.289V6.743h2.877V4.748h-2.919v-.903c0-.735.315-1.05 1.05-1.05h1.869V.8h-2.163c-2.079 0-3.003 1.008-3.003 2.94v1.008h-1.869v1.995zm12.839 8.883c3.276 0 5.481-2.205 5.481-5.502 0-3.276-2.205-5.502-5.481-5.502s-5.481 2.226-5.481 5.502c0 3.297 2.205 5.502 5.481 5.502zm0-1.932c-1.911 0-3.15-1.491-3.15-3.57 0-2.079 1.239-3.57 3.15-3.57 1.911 0 3.171 1.491 3.171 3.57 0 2.079-1.26 3.57-3.171 3.57zm12.743-8.946c-1.764 0-2.625.714-3.171 1.617l-.252-1.617h-2.016V15.5h2.268v-5.397c0-1.659.651-3.234 2.667-3.234h1.008V4.748h-.504zm6.325 10.878c2.751 0 4.578-1.533 4.998-3.969h-2.394c-.273 1.239-1.197 2.037-2.583 2.037-1.827 0-3.024-1.449-3.024-3.549 0-2.121 1.197-3.591 3.024-3.591 1.407 0 2.31.777 2.604 2.037h2.373c-.441-2.436-2.163-3.969-4.935-3.969-3.255 0-5.397 2.205-5.397 5.523 0 3.36 2.079 5.481 5.334 5.481zm11.837 0c2.667 0 4.473-1.617 4.851-3.738h-2.268c-.315 1.197-1.323 1.89-2.709 1.89-1.785 0-2.94-1.197-3.003-3.024v-.147h8.106a6.16 6.16 0 00.063-.861c-.063-3.15-2.142-5.124-5.25-5.124-3.171 0-5.292 2.205-5.292 5.523 0 3.297 2.121 5.481 5.502 5.481zm-3.045-6.678c.168-1.533 1.407-2.499 2.856-2.499 1.575 0 2.688.903 2.877 2.499h-5.733zm9.395 3.003c.063 2.331 2.037 3.675 4.914 3.675 2.604 0 4.557-1.302 4.557-3.36 0-2.394-1.995-2.898-4.452-3.192-1.554-.168-2.583-.294-2.583-1.302 0-.861.882-1.407 2.226-1.407 1.344 0 2.268.693 2.394 1.68h2.226c-.147-2.205-2.016-3.423-4.662-3.423-2.583-.021-4.41 1.302-4.41 3.339 0 2.226 1.932 2.751 4.389 3.045 1.659.21 2.646.294 2.646 1.449 0 .861-.924 1.407-2.331 1.407-1.638 0-2.604-.798-2.688-1.911h-2.226zm19.08 3.549h2.457l2.352-7.308 2.268 7.308h2.436l3.57-10.752h-2.31l-2.541 8.232-2.352-8.232h-2.079l-2.457 8.232-2.457-8.232h-2.394l3.507 10.752zm15.432-12.264c.777 0 1.386-.567 1.386-1.365S265.55.506 264.773.506c-.777 0-1.386.567-1.386 1.365s.609 1.365 1.386 1.365zM263.618 15.5h2.268V4.748h-2.268V15.5zm5.268-2.919c0 1.953.882 2.919 2.94 2.919h2.1v-1.995h-1.596c-.861 0-1.155-.315-1.155-1.155V6.743h2.625V4.748h-2.625V1.745h-2.289v3.003h-1.869v1.995h1.869v5.838zm12.132-7.959c-1.68 0-2.709.756-3.381 1.68V.8h-2.268v14.7h2.268v-5.439c0-2.163 1.092-3.486 2.877-3.486 1.68 0 2.583 1.092 2.583 3.129V15.5h2.268V9.515c0-3.591-1.953-4.893-4.347-4.893zm18.398 11.004c3.423 0 5.922-2.016 6.384-5.124h-2.499c-.462 1.869-1.869 3.003-3.906 3.003-2.772 0-4.452-2.226-4.452-5.355 0-3.15 1.722-5.355 4.515-5.355 1.995 0 3.381 1.155 3.864 3.003h2.499c-.483-3.108-2.898-5.124-6.258-5.124-4.347 0-7.098 3.003-7.098 7.476 0 4.515 2.667 7.476 6.951 7.476zm9.305-12.39c.777 0 1.386-.567 1.386-1.365s-.609-1.365-1.386-1.365c-.777 0-1.386.567-1.386 1.365s.609 1.365 1.386 1.365zM307.566 15.5h2.268V4.748h-2.268V15.5zm5.268-2.919c0 1.953.882 2.919 2.94 2.919h2.1v-1.995h-1.596c-.861 0-1.155-.315-1.155-1.155V6.743h2.625V4.748h-2.625V1.745h-2.289v3.003h-1.869v1.995h1.869v5.838zm9.591 2.982l-.42 1.05c-.336.882-.546 1.092-1.428 1.092h-1.596V19.7h2.436c1.575 0 2.037-.777 2.709-2.52l4.872-12.432h-2.415l-2.919 8.169-3.003-8.169h-2.415l4.179 10.815zm13.324-.063h2.415V.8h-2.415v14.7zm10.546-10.878c-1.743 0-2.772.693-3.444 1.533l-.252-1.407h-1.974V15.5h2.268v-5.418c0-2.184 1.071-3.507 2.877-3.507 1.701 0 2.562 1.092 2.562 3.129V15.5h2.289V9.515c0-3.591-1.953-4.893-4.326-4.893zm14.475 1.617c-.693-.945-1.848-1.617-3.486-1.617-2.919 0-5.082 2.184-5.082 5.502 0 3.444 2.163 5.502 5.082 5.502 1.701 0 2.814-.798 3.507-1.743l.273 1.617h1.974V.8h-2.268v5.439zm-3.108 7.476c-1.89 0-3.129-1.47-3.129-3.591 0-2.1 1.239-3.57 3.129-3.57s3.129 1.47 3.129 3.612c0 2.079-1.239 3.549-3.129 3.549zm12.696 1.911c2.667 0 4.473-1.617 4.851-3.738h-2.268c-.315 1.197-1.323 1.89-2.709 1.89-1.785 0-2.94-1.197-3.003-3.024v-.147h8.106a6.16 6.16 0 00.063-.861c-.063-3.15-2.142-5.124-5.25-5.124-3.171 0-5.292 2.205-5.292 5.523 0 3.297 2.121 5.481 5.502 5.481zm-3.045-6.678c.168-1.533 1.407-2.499 2.856-2.499 1.575 0 2.688.903 2.877 2.499h-5.733zm8.313 6.552h2.499l2.835-3.906 2.814 3.906h2.646l-4.053-5.502 3.822-5.25h-2.499l-2.625 3.633-2.562-3.633h-2.646l3.801 5.25-4.032 5.502z" fill="#000"/></svg>