<svg width="139" height="61" viewBox="0 0 139 61" fill="none" xmlns="http://www.w3.org/2000/svg"><path d="M5.808 13.096c2.24 0 3.568-1.232 4.048-2.576L9.904 13h.752V7.16H6.144v.8h3.68v.48c0 2.192-1.52 3.856-4 3.856-2.512 0-4.176-2.016-4.176-4.896 0-2.864 1.664-4.896 4.256-4.896 1.888 0 3.2.976 3.664 2.736h.928C10.032 3 8.288 1.704 5.936 1.704 2.768 1.704.752 4.04.752 7.4c0 3.376 2.064 5.696 5.056 5.696zm10.564 0c1.776 0 3.136-1.152 3.488-2.784h-.832c-.32 1.264-1.392 2.048-2.72 2.048-1.808 0-2.944-1.376-2.976-3.264v-.144h6.624c0-.112.016-.24.016-.336-.08-2.416-1.568-3.824-3.744-3.824-2.224 0-3.744 1.696-3.744 4.096 0 2.544 1.584 4.208 3.888 4.208zm-2.976-4.832c.128-1.648 1.36-2.752 2.848-2.752 1.584 0 2.72.976 2.848 2.752h-5.696zm8.672 2.848c0 1.296.528 1.888 1.904 1.888h1.184v-.752h-1.12c-.848 0-1.152-.32-1.152-1.152V5.64h2.192v-.752h-2.192V2.616h-.816v2.272h-1.536v.752h1.536v5.472zM38.55 9.928c0-2.128-1.888-2.672-3.744-2.992-1.712-.288-3.2-.576-3.2-2.176 0-1.456 1.136-2.272 2.896-2.272 1.68 0 2.832.944 3.024 2.4h.88c-.144-1.76-1.392-2.976-3.376-3.168V.072h-.768v1.632c-2.144.08-3.52 1.264-3.52 3.104 0 2.128 1.824 2.608 3.616 2.912 1.76.304 3.328.656 3.328 2.288 0 1.44-1.216 2.304-3.024 2.304-1.888 0-3.168-1.088-3.28-2.752h-.896c.112 2 1.488 3.392 3.776 3.52v1.632h.768V13.08c2.128-.128 3.52-1.376 3.52-3.152zM39.633 13h7.472v-.768h-6.32l3.728-3.36c1.296-1.168 2.448-2.24 2.448-3.936 0-1.968-1.36-3.232-3.632-3.232-2.176 0-3.584 1.408-3.584 3.52v.272h.832v-.224c0-1.744 1.072-2.816 2.752-2.816 1.696 0 2.784.944 2.784 2.528 0 1.408-1.072 2.384-2.128 3.344l-4.352 3.952V13zm8.744-5.344c0 3.28 1.616 5.44 4.048 5.44 2.4 0 4.032-2.16 4.032-5.44v-.512c0-3.184-1.632-5.44-4.032-5.44-2.432 0-4.048 2.256-4.048 5.44v.512zm7.232-.032c0 2.848-1.264 4.704-3.184 4.704-1.936 0-3.2-1.856-3.2-4.704v-.448c0-2.848 1.264-4.704 3.2-4.704 1.92 0 3.184 1.856 3.184 4.704v.448zm2.378.032c0 3.28 1.616 5.44 4.048 5.44 2.4 0 4.032-2.16 4.032-5.44v-.512c0-3.184-1.632-5.44-4.032-5.44-2.432 0-4.048 2.256-4.048 5.44v.512zm7.232-.032c0 2.848-1.264 4.704-3.184 4.704-1.936 0-3.2-1.856-3.2-4.704v-.448c0-2.848 1.264-4.704 3.2-4.704 1.92 0 3.184 1.856 3.184 4.704v.448zM74.069 13h.88l2.4-6.816L79.637 13h.88l2.88-8.112h-.832l-2.496 7.136-2.32-7.136h-.752l-2.448 7.136-2.368-7.136h-.864L74.069 13zm14.213-8.208c-1.52 0-2.464.848-2.928 2.016V1.8h-.816V13h.816V9c0-2.112 1.072-3.456 2.8-3.456 1.552 0 2.512 1.024 2.512 2.944V13h.816V8.456c0-2.56-1.36-3.664-3.2-3.664zm8.48 8.304c1.777 0 3.137-1.152 3.489-2.784h-.832c-.32 1.264-1.392 2.048-2.72 2.048-1.808 0-2.944-1.376-2.976-3.264v-.144h6.624c0-.112.016-.24.016-.336-.08-2.416-1.568-3.824-3.744-3.824-2.224 0-3.744 1.696-3.744 4.096 0 2.544 1.584 4.208 3.888 4.208zm-2.975-4.832c.128-1.648 1.36-2.752 2.848-2.752 1.584 0 2.72.976 2.848 2.752h-5.696zm11.933-3.472c-1.488 0-2.448.768-2.912 1.824l-.128-1.728h-.704V13h.816V9c0-2.112 1.072-3.456 2.8-3.456 1.568 0 2.512 1.024 2.512 2.944V13h.816V8.456c0-2.56-1.36-3.664-3.2-3.664zM117.47 13l-.528 1.312c-.368.896-.512 1.136-1.344 1.136h-1.024v.752h1.248c1.088 0 1.344-.416 1.856-1.696l3.888-9.616h-.88l-2.768 7.056-2.816-7.056h-.88L117.47 13zm8.433.096c2.288 0 3.904-1.696 3.904-4.16 0-2.448-1.616-4.144-3.904-4.144s-3.888 1.696-3.888 4.144c0 2.464 1.6 4.16 3.888 4.16zm0-.736c-1.808 0-3.056-1.408-3.056-3.424 0-2 1.248-3.424 3.056-3.424s3.056 1.424 3.056 3.424c0 2.016-1.248 3.424-3.056 3.424zm11.414-3.488c0 2.128-1.056 3.472-2.736 3.472-1.504 0-2.432-1.024-2.432-2.96V4.888h-.816v4.544c0 2.544 1.328 3.664 3.12 3.664 1.44 0 2.384-.768 2.848-1.808l.112 1.712h.72V4.888h-.816v3.984zM1.568 33.112c0 1.296.528 1.888 1.904 1.888h1.184v-.752h-1.12c-.848 0-1.152-.32-1.152-1.152V27.64h2.192v-.752H2.384v-2.272h-.816v2.272H.032v.752h1.536v5.472zm7.642-6.224c-1.505 0-2.145.72-2.48 1.616L6.6 26.888h-.704V35h.816v-4.112c0-1.648.433-3.216 2.337-3.216h.591v-.784H9.21zm8.433 7.36c-.48 0-.72-.16-.72-.784v-3.776c0-1.856-1.136-2.896-3.168-2.896-1.856 0-3.088.896-3.296 2.368h.816c.208-.992 1.072-1.648 2.448-1.648 1.52 0 2.384.8 2.384 2.144v.704h-2.752c-2.08 0-3.2.896-3.2 2.416 0 1.44 1.136 2.32 2.864 2.32 1.648 0 2.624-.752 3.12-1.76v.288c-.032.96.368 1.376 1.328 1.376h.48v-.752h-.304zm-1.536-2.528c0 1.552-1.104 2.672-3.024 2.672-1.296 0-2.096-.656-2.096-1.664 0-1.072.8-1.664 2.304-1.664h2.816v.656zm9.43-3.008c-.496-1.152-1.584-1.92-3.104-1.92-2.224 0-3.824 1.696-3.824 4.144 0 2.56 1.6 4.16 3.824 4.16 1.52 0 2.576-.816 3.088-1.952L25.65 35h.704V23.8h-.816v4.912zm-3.04 5.648c-1.808 0-3.056-1.408-3.056-3.424 0-2 1.248-3.424 3.056-3.424s3.056 1.424 3.056 3.44c0 2-1.248 3.408-3.056 3.408zm9.36.736c1.776 0 3.136-1.152 3.487-2.784h-.831c-.32 1.264-1.392 2.048-2.72 2.048-1.808 0-2.944-1.376-2.976-3.264v-.144h6.623c0-.112.017-.24.017-.336-.08-2.416-1.569-3.824-3.745-3.824-2.224 0-3.744 1.696-3.744 4.096 0 2.544 1.584 4.208 3.889 4.208zm-2.976-4.832c.128-1.648 1.36-2.752 2.848-2.752 1.584 0 2.72.976 2.848 2.752H28.88zm13.109 2.848c0 1.296.528 1.888 1.904 1.888h1.184v-.752h-1.12c-.848 0-1.152-.32-1.152-1.152V27.64h2.192v-.752h-2.192v-2.272h-.816v2.272h-1.536v.752h1.536v5.472zM48.287 35h.88l2.4-6.816L53.855 35h.88l2.88-8.112h-.832l-2.496 7.136-2.32-7.136h-.752l-2.448 7.136-2.368-7.136h-.864L48.287 35zm13.804.096c2.288 0 3.904-1.696 3.904-4.16 0-2.448-1.616-4.144-3.904-4.144s-3.888 1.696-3.888 4.144c0 2.464 1.6 4.16 3.888 4.16zm0-.736c-1.808 0-3.056-1.408-3.056-3.424 0-2 1.248-3.424 3.056-3.424s3.056 1.424 3.056 3.424c0 2.016-1.248 3.424-3.056 3.424zm10.03.64h.864v-2.928l2.544-2.912L79.56 35h1.04l-4.432-6.496 4.064-4.704h-1.056l-6.192 7.056V23.8h-.864V35zm13.317-8.208c-1.488 0-2.448.768-2.912 1.824l-.128-1.728h-.704V35h.816v-4c0-2.112 1.072-3.456 2.8-3.456 1.568 0 2.512 1.024 2.512 2.944V35h.816v-4.544c0-2.56-1.36-3.664-3.2-3.664zm8.465 8.304c2.288 0 3.904-1.696 3.904-4.16 0-2.448-1.616-4.144-3.904-4.144s-3.888 1.696-3.888 4.144c0 2.464 1.6 4.16 3.888 4.16zm0-.736c-1.808 0-3.056-1.408-3.056-3.424 0-2 1.248-3.424 3.056-3.424s3.056 1.424 3.056 3.424c0 2.016-1.248 3.424-3.056 3.424zm9.062.736c1.84 0 3.136-1.056 3.456-2.704h-.864c-.272 1.2-1.248 1.968-2.592 1.968-1.776 0-3.008-1.392-3.008-3.408s1.216-3.44 3.008-3.44c1.36 0 2.32.768 2.608 1.984h.848c-.336-1.68-1.6-2.704-3.44-2.704-2.288 0-3.856 1.696-3.856 4.16 0 2.496 1.552 4.144 3.84 4.144zm5.042-.096h.816v-2.192l1.904-1.952L113.831 35h.992l-3.536-4.736 3.264-3.376h-1.008l-4.72 4.864V23.8h-.816V35zm11.053.096c2.288 0 3.904-1.696 3.904-4.16 0-2.448-1.616-4.144-3.904-4.144s-3.888 1.696-3.888 4.144c0 2.464 1.6 4.16 3.888 4.16zm0-.736c-1.808 0-3.056-1.408-3.056-3.424 0-2 1.248-3.424 3.056-3.424s3.056 1.424 3.056 3.424c0 2.016-1.248 3.424-3.056 3.424zm11.413-3.488c0 2.128-1.056 3.472-2.736 3.472-1.504 0-2.432-1.024-2.432-2.96v-4.496h-.816v4.544c0 2.544 1.328 3.664 3.12 3.664 1.44 0 2.384-.768 2.848-1.808l.112 1.712h.72v-8.112h-.816v3.984zm3.361 2.24c0 1.296.528 1.888 1.904 1.888h1.184v-.752h-1.12c-.848 0-1.152-.32-1.152-1.152V27.64h2.192v-.752h-2.192v-2.272h-.816v2.272h-1.536v.752h1.536v5.472zM11.216 51.4c0-3.312-2.144-5.696-5.232-5.696-3.072 0-5.232 2.384-5.232 5.696s2.16 5.696 5.232 5.696c3.088 0 5.232-2.384 5.232-5.696zm-9.568 0c0-2.864 1.776-4.896 4.336-4.896 2.576 0 4.352 2.032 4.352 4.896s-1.776 4.896-4.352 4.896c-2.56 0-4.336-2.032-4.336-4.896zm15.216-2.608c-1.52 0-2.576.816-3.088 1.952l-.128-1.856h-.704V60.2h.816v-5.072c.464 1.184 1.568 1.968 3.104 1.968 2.224 0 3.824-1.696 3.824-4.16 0-2.544-1.6-4.144-3.824-4.144zM16.8 56.36c-1.808 0-3.056-1.408-3.056-3.44 0-1.984 1.248-3.408 3.056-3.408s3.056 1.424 3.056 3.424c0 2.016-1.248 3.424-3.056 3.424zm5.987-1.248c0 1.296.528 1.888 1.904 1.888h1.184v-.752h-1.12c-.848 0-1.152-.32-1.152-1.152V49.64h2.192v-.752h-2.192v-2.272h-.816v2.272H21.25v.752h1.536v5.472zm4.745-7.936c.32 0 .576-.24.576-.576a.564.564 0 00-.576-.576c-.32 0-.576.24-.576.576 0 .336.256.576.576.576zM27.116 57h.816v-8.112h-.816V57zm6.319.096c2.288 0 3.904-1.696 3.904-4.16 0-2.448-1.616-4.144-3.904-4.144s-3.888 1.696-3.888 4.144c0 2.464 1.6 4.16 3.888 4.16zm0-.736c-1.808 0-3.056-1.408-3.056-3.424 0-2 1.248-3.424 3.056-3.424s3.056 1.424 3.056 3.424c0 2.016-1.248 3.424-3.056 3.424zm9.269-7.568c-1.488 0-2.448.768-2.912 1.824l-.128-1.728h-.704V57h.816v-4c0-2.112 1.072-3.456 2.8-3.456 1.568 0 2.512 1.024 2.512 2.944V57h.816v-4.544c0-2.56-1.36-3.664-3.2-3.664zm4.638 5.712c.064 1.68 1.424 2.592 3.456 2.592 1.744 0 3.152-.88 3.152-2.32 0-1.712-1.504-2.048-3.248-2.288-1.264-.176-2.384-.32-2.384-1.456 0-.928.912-1.536 2.288-1.536 1.296 0 2.224.624 2.368 1.68h.832c-.144-1.584-1.44-2.384-3.2-2.384-1.808-.016-3.104.912-3.104 2.304 0 1.632 1.504 1.936 3.168 2.16 1.36.192 2.464.368 2.464 1.568 0 .96-1.008 1.568-2.336 1.568-1.552 0-2.56-.72-2.624-1.888h-.832z" fill="#000"/></svg>